<svg xmlns="http://www.w3.org/2000/svg" xmlns:xlink="http://www.w3.org/1999/xlink" id="svg211" width="238.1" height="158.8" version="1.1" viewBox="0 0 238.1 158.8"><g id="g1" transform="matrix(3.69169 0 0 2.05094 -791.7 -971.6)"><path id="path1" fill="#fff" d="M227 516.2h116.2v-77.4H227Z" transform="matrix(.55556 0 0 1 88.3 34.9)"/><path id="rect1" fill="#1e3061" d="M-240.3 473.7h25.8v77.4h-25.8z" stop-color="#000" style="font-variation-settings:normal;-inkscape-stroke:none;paint-order:fill markers stroke" transform="scale(-1 1)"/></g><g id="g123" transform="translate(114.1 -64.8) scale(1.00181)"><g id="g122"><path id="path2" fill="#fff" d="M-79.1 85.3v12.2a7 7 0 0 1-7 6.2 7 7 0 0 1-5-2.2 7 7 0 0 1-2-5V85.3"/><path id="path3" fill="#e83028" d="M-98 96.5a11.8 11.8 0 0 0 23.6 0V80.6h-23.5zm19-11.1v11.1l-.1 1a7 7 0 0 1-7 6.2 7 7 0 0 1-5-2.2 7 7 0 0 1-2-5V85.4"/><g id="g9" fill="#0c2b5c"><path id="path4" d="M-88.9 94.7v-2.2H-92v2.2c0 .5.2.9.5 1.2.2.3.6.5 1 .5.5 0 .9-.2 1.2-.5.2-.3.4-.7.4-1.2zm-2.4-1.7a.3.3 0 1 1 0 .7.3.3 0 0 1 0-.7m0 2.3a.3.3 0 1 1 0-.6.3.3 0 0 1 0 .6m.9-.8a.3.3 0 1 1 0-.6.3.3 0 0 1 0 .6m.8.8a.3.3 0 0 1-.3-.3l.3-.3a.3.3 0 1 1 0 .6m0-1.6a.3.3 0 0 1-.3-.4l.3-.3a.3.3 0 1 1 0 .7"/><path id="path5" d="M-80.3 94.7v-2.2h-3v2.2c0 .5 0 .9.4 1.2.3.3.6.5 1 .5.5 0 .9-.2 1.2-.5.3-.3.4-.7.4-1.2zm-2.3-1.7a.3.3 0 1 1 0 .7.3.3 0 0 1 0-.7m0 2.3a.3.3 0 1 1 0-.6l.3.3c0 .2-.2.3-.3.3m.8-.8a.3.3 0 1 1 0-.6.3.3 0 0 1 0 .6m.8.8a.3.3 0 1 1 0-.6.3.3 0 0 1 0 .6m0-1.6a.3.3 0 0 1-.3-.4l.3-.3a.3.3 0 1 1 0 .7"/><g id="g8"><path id="path6" d="M-84.6 94.7v-2.2h-3v2.2c0 .5 0 .9.4 1.2.3.3.6.5 1 .5.5 0 .9-.2 1.2-.5.3-.3.4-.7.4-1.2zm-2.3-1.7a.3.3 0 1 1 0 .7.3.3 0 0 1 0-.7m0 2.3a.3.3 0 1 1 0-.6l.3.3c0 .2-.2.3-.3.3m.8-.8a.3.3 0 1 1 0-.6.3.3 0 0 1 0 .6m.8.8a.3.3 0 1 1 0-.6.3.3 0 0 1 0 .6m0-1.6a.3.3 0 1 1 0-.7.3.3 0 0 1 0 .7"/><path id="path7" d="M-84.6 100.1v-2.2h-3v2.2c0 .5 0 .9.4 1.2.3.3.6.5 1 .5.5 0 .9-.2 1.2-.5.3-.3.4-.7.4-1.2zm-2.3-1.7c.1 0 .3.1.3.3a.3.3 0 1 1-.7 0c0-.2.2-.3.4-.3m0 2.3a.3.3 0 1 1 0-.6c.1 0 .3.1.3.3 0 .2-.2.3-.3.3m.8-.8a.3.3 0 0 1-.3-.4c0-.1.1-.3.3-.3.2 0 .3.2.3.3 0 .2-.1.4-.3.4m.8.8a.3.3 0 0 1-.3-.3.3.3 0 1 1 .7 0c0 .2-.2.3-.4.3m0-1.7a.3.3 0 0 1-.3-.3c0-.2.2-.3.3-.3.2 0 .4.1.4.3 0 .2-.2.3-.4.3"/><path id="path8" d="M-84.6 89.4V87h-3v2.3c0 .4 0 .8.4 1.1.3.3.6.5 1 .5.5 0 .9-.2 1.2-.5.3-.3.4-.7.4-1.1zm-2.3-1.7a.3.3 0 1 1 0 .6.3.3 0 0 1 0-.6m0 2.3a.3.3 0 1 1 0-.6c.1 0 .3 0 .3.3l-.3.3m.8-.9a.3.3 0 1 1 0-.6.3.3 0 0 1 0 .6m.8.9a.3.3 0 1 1 0-.6.3.3 0 0 1 0 .6m0-1.7a.3.3 0 1 1 0-.6.3.3 0 0 1 0 .6"/></g></g><path id="path9" fill="#211e1e" d="M-86.2 108.4a11.8 11.8 0 0 1-11.9-11.8v-16h23.8v16a11.8 11.8 0 0 1-11.9 11.8M-98 96.6c0 3 1.3 6 3.5 8.2a11.7 11.7 0 0 0 20-8.2V80.7h-23.4zm11.8 7.1a7.1 7.1 0 0 1-7-7.1l-.1-11.3h14.2v12.3a7 7 0 0 1-7 6.2m-7-18.3v11a7 7 0 0 0 2 5 7 7 0 0 0 11.9-4.9V85.5"/><g id="g21" fill="#f8de35"><path id="path10" d="M-96.5 84.8c0-1.1.8-1.4.9-1.4 0 0 .8.3.8 1.4"/><path id="path11" d="m-97.2 83.4-.1 1.3h.8c0-1 .8-1.3.9-1.3 0 0 .8.3.8 1.3h.9l-.2-1.3"/><path id="path12" d="M-97.4 84.7h3.5l.2.2-.2.1h-3.5l-.1-.1.1-.2"/><path id="path13" d="M-96.1 84.7c0-.7.5-.9.5-.9s.4.2.4 1"/><path id="path14" d="M-97.3 82.9h3.3l.2.1-.2.1h-3.3l-.2-.1.2-.1"/><path id="path15" d="M-97.3 83.1h3.3v.3h-3.3v-.3"/><path id="path16" d="M-96.2 81h.2v.1h.2V81h.3v.2h.2V81h.2v.5h-1.1"/><path id="path17" d="M-96 82.8h.8v-1.3h-.8"/><path id="path18" d="M-95.1 81.6h.2v.2h.2v-.2h.3v.2h.2v-.2h.2v.5h-1.1"/><path id="path19" d="M-95 82.1v.7h.9v-.7"/><path id="path20" d="M-97.3 81.6h.2v.2h.2v-.2h.3v.2h.2v-.2h.2v.4l-.1.1h-1"/><path id="path21" d="M-97.2 82.1v.7h.9v-.7"/></g><g id="g25" fill="#211e1e"><path id="path22" d="M-95.7 82.2h.1V82h-.1z"/><path id="path23" d="M-94.6 82.6h.1v-.2h-.1z"/><path id="path24" d="M-96.8 82.6h.1v-.2h-.1z"/><path id="path25" d="m-93.9 84.7-.1-1.2.1-.2v-.1l.1-.2-.2-.2v-1.3h-.3v.2-.2h-.4v.2h-.1v-.2h-.4v.5l.2.2v.6h-.2v-1.3l.2-.1v-.5h-.4v.2-.2h-.4v.2h-.1v-.2h-.4v.5l.2.1v1.3h-.2v-.6l.2-.2v-.4h-.4v.1-.1h-.4v.1h-.1v-.1h-.4v.4l.2.2v.6h-.1l-.2.2.1.2.1.3v1.2h-.1l-.2.2.2.2h3.5l.2-.2-.2-.2m0 0h-.8c0-.6-.3-.9-.5-1l-.2-.2h1.3zm-1.7-1-.2.2c-.2.1-.4.4-.4.8h-.2c0-1 .8-1.2.8-1.2s.7.2.8 1.2h-.3c0-.7-.5-1-.5-1m.4 1h-.9c0-.6.4-.8.4-.8.1 0 .5.2.5.8m.1-2.7v-.3h.2v.1h.3v-.2h.1v.2h.3v-.2h.2v.4h-1m.8.8h-.7v-.6h.7zm-1.9-1.4V81v.2h.4V81h.1v.2h.3V81h.2v.4zm.8 1.4h-.7v-1.2h.7zm-2-.8v-.3h.2v.1h.3v-.1h.1v.1h.3v-.1h.2v.3h-1m.8.8h-.7v-.6h.7zm-1 .2v-.1h3.4l.1.1h-3.5m0 .3.1-.1h3.3v.2h-3.3v-.1m.1.2h1.3l-.2.1c-.2.2-.4.5-.4 1h-.8zm3.3 1.5h-3.5v-.2h3.6v.2"/></g><g id="g37" fill="#f8de35"><path id="path26" d="M-87 84.8c0-1.1.8-1.4.8-1.4s1 .3.9 1.4"/><path id="path27" d="m-87.7 83.4-.2 1.3h.9c0-1 .8-1.3.8-1.3s.9.3.9 1.3h.9l-.2-1.3"/><path id="path28" d="M-88 84.7h3.6l.1.2-.1.1h-3.5l-.2-.1.2-.2"/><path id="path29" d="M-86.6 84.7c0-.7.4-.9.4-.9s.5.2.5 1"/><path id="path30" d="M-87.8 82.9h3.3l.2.1-.2.1h-3.3l-.2-.1.2-.1"/><path id="path31" d="M-87.8 83.1h3.3v.3h-3.3v-.3"/><path id="path32" d="M-86.7 81h.2v.1h.2V81h.3v.2h.2V81h.2v.5h-1.1"/><path id="path33" d="M-86.6 82.8h.9v-1.3h-.8"/><path id="path34" d="M-85.6 81.6h.2v.2h.2v-.2h.3v.2h.2v-.2h.2v.4l-.1.1h-1"/><path id="path35" d="M-85.5 82.8h.9v-.7h-.9"/><path id="path36" d="M-87.8 81.6h.2v.2h.2v-.2h.3v.2h.1v-.2h.3v.4l-.1.1h-1"/><path id="path37" d="M-87.7 82.1v.7h.9v-.7"/></g><g id="g41" fill="#211e1e"><path id="path38" d="M-86.2 82.2h.1V82h-.1z"/><path id="path39" d="M-85.1 82.6h.1v-.2h-.1z"/><path id="path40" d="M-87.4 82.6h.2v-.2h-.2z"/><path id="path41" d="m-84.4 84.7-.1-1.2.1-.2v-.1l.1-.2-.2-.2-.1-.6.2-.2v-.5h-.4v.2-.2h-.4v.2h-.1v-.2h-.4v.5l.2.2v.6h-.2v-1.3l.2-.1v-.5h-.4v.2-.2h-.4v.2h-.1v-.2h-.4v.5l.2.1v1.3h-.2v-.6l.2-.2v-.5h-.4v.2-.2h-.4v.2h-.1v-.1h-.4v.4l.2.2v.6h-.1l-.2.2v.3l.2.2-.1 1.2-.2.2.2.2h3.5l.2-.2-.2-.2m-.1 0h-.8c0-.6-.2-.9-.4-1l-.2-.2h1.3zm-1.7-1-.2.2a1 1 0 0 0-.3.8h-.2c0-1 .7-1.2.7-1.2s.8.2.8 1.2h-.2c0-.7-.5-1-.6-1m.5 1h-.9c0-.6.4-.8.4-.8.1 0 .4.2.5.8m.1-2.7v-.3h.2v.1h.3v-.1h.1v.1h.3v-.1h.1v.3h-1m1 .8h-.8v-.6h.7zm-2-1.4V81v.2h.4V81h.1v.2h.3V81h.2v.4zm.8 1.4h-.7v-1.2h.7zm-2-.8v-.3h.2v.1h.3v-.1h.1v.1h.3v-.1h.1v.3h-1m1 .8h-.8v-.6h.7zm-1.1.2h3.5-3.5m0 .3.1-.1h3.3v.1h-3.3m.1.2h1.3l-.2.1c-.2.2-.4.5-.5 1h-.7zm3.3 1.5h-3.5l-.1-.1v-.1h3.6v.2"/></g><g id="g53" fill="#f8de35"><path id="path42" d="M-77.6 84.8c0-1.1.8-1.4.8-1.4s.9.3.9 1.4"/><path id="path43" d="m-78.3 83.4-.2 1.3h.9c0-1 .8-1.2.8-1.2s.8.2.9 1.2h.8l-.1-1.3"/><path id="path44" d="M-78.5 84.7h3.5l.1.2-.1.1h-3.5l-.2-.1.2-.2"/><path id="path45" d="M-77.3 84.7c0-.7.5-.9.5-.9s.5.2.5 1"/><path id="path46" d="M-78.5 82.9h3.4l.1.1v.2h-3.5v-.3"/><path id="path47" d="M-78.4 83.2h3.2l.2.1-.2.1h-3.2l-.1-.1.1-.1"/><path id="path48" d="M-77.3 81h.2v.1h.2V81h.3v.1h.1V81h.3v.4h-1.1"/><path id="path49" d="M-77.2 82.8h.9v-1.3h-.9"/><path id="path50" d="M-76.2 81.6h.2v.2h.2v-.2h.2v.2h.2v-.2h.3v.4l-.1.1h-1"/><path id="path51" d="m-76 82.1-.1.8h.8V82"/><path id="path52" d="M-78.4 81.6h.2v.2h.2v-.2h.2v.2h.2v-.2h.3v.4l-.1.1h-1"/><path id="path53" d="M-78.3 82.1v.8h.8V82"/></g><g id="g57" fill="#211e1e"><path id="path54" d="M-76.9 82.3h.2v-.4h-.2z"/><path id="path55" d="M-75.8 82.6h.2v-.2h-.2z"/><path id="path56" d="M-78 82.6h.2v-.2h-.2z"/><path id="path57" d="m-75 84.7-.2-1.2.2-.2v-.5h-.2v-.6l.1-.2v-.4h-.3v.1h-.1v-.1h-.4v.1-.1h-.4v.4l.2.2v.6h-.2v-1.3l.2-.1v-.5h-.4v.2h-.1v-.2h-.4v.2-.2h-.4v.5l.2.1v1.3h-.2v-.6l.1-.2v-.4h-.3v.1h-.1v-.1h-.4v.1-.1h-.4v.4l.2.2v.6h-.2l-.1.2v.3l.2.2-.1 1.2-.2.2.2.2h3.5l.2-.2-.2-.2m-.1 0h-.8c0-.5-.2-.9-.4-1l-.3-.2h1.3zm-1.7-1-.2.2a1 1 0 0 0-.3.8h-.3c0-1 .8-1.2.8-1.2s.8.2.8 1.2h-.2c0-.7-.5-1-.6-1m.4 1h-.8c0-.6.3-.8.4-.8.1 0 .4.2.4.8m.2-2.7v-.3h.2v.1h.2v-.1h.2v.1h.3v-.1h.1v.3h-1m.9.8h-.8v-.6h.8zm-2-1.4V81h.1v.2h.3V81h.2v.2h.3V81h.1v.4zm1 1.4h-.9v-1.2h.8zm-2-.8v-.3.1h.3v-.1h.2v.1h.3v-.1h.1v.3h-1m.9.8h-.8v-.6h.8zm-1 .2h3.4v.1h-3.4m0 .2.1-.1h3.2l.1.1v.1h-3.3v-.1m.1.2h1.3l-.2.1c-.2.2-.5.5-.5 1h-.7zM-75 85h-3.5l-.1-.1v-.1h3.6v.2"/></g><g id="g69" fill="#f8de35"><path id="path58" d="M-77.6 94.4c0-1.1.8-1.4.8-1.4s.9.3.9 1.4"/><path id="path59" d="m-78.3 93-.2 1.3h.9c0-1 .8-1.2.8-1.2s.8.2.9 1.2h.8l-.1-1.3"/><path id="path60" d="M-78.5 94.3h3.5l.1.2-.1.2h-3.5l-.2-.2.2-.2"/><path id="path61" d="M-77.3 94.3c0-.7.5-.9.5-.9s.5.2.5 1"/><path id="path62" d="M-78.5 92.5h3.4l.1.1v.2h-3.5v-.3"/><path id="path63" d="M-78.4 92.8h3.2l.2.1-.2.1h-3.2l-.1-.1.1-.1"/><path id="path64" d="M-77.3 90.6h.2v.1h.2v-.1h.3v.1h.1v-.1h.3v.4h-1.1"/><path id="path65" d="M-77.2 92.4h.9v-1.3h-.9"/><path id="path66" d="M-76.2 91.2h.2v.2h.2v-.2h.2v.2h.2v-.2h.3v.4l-.1.1h-1"/><path id="path67" d="m-76 91.7-.1.8h.8v-.8"/><path id="path68" d="M-78.4 91.2h.2v.2h.2v-.2h.2v.2h.2v-.2h.3v.4l-.1.1h-1"/><path id="path69" d="M-78.3 91.7v.8h.8v-.8"/></g><g id="g73" fill="#211e1e"><path id="path70" d="M-76.9 91.9h.2v-.4h-.2z"/><path id="path71" d="M-75.8 92.2h.2V92h-.2z"/><path id="path72" d="M-78 92.2h.2V92h-.2z"/><path id="path73" d="m-75 94.3-.2-1.2.2-.2v-.5h-.2v-.6l.1-.2v-.4h-.3v.1h-.1v-.1h-.4v.1-.1h-.4v.4l.2.2v.6h-.2v-1.3l.2-.1v-.5h-.4v.2h-.1v-.2h-.4v.2-.2h-.4v.5l.2.1v1.3h-.2v-.6l.1-.2v-.4h-.3v.1h-.1v-.1h-.4v.1-.1h-.4v.4l.2.2v.6h-.2l-.1.2v.4l.2.2-.1 1.2-.2.2.2.2h3.5l.2-.2-.2-.2m-.1 0h-.8c0-.5-.2-.9-.4-1l-.3-.2h1.3zm-1.7-1-.2.2a1 1 0 0 0-.3.8h-.3c0-1 .8-1.2.8-1.2s.8.2.8 1.2h-.2c0-.7-.5-1-.6-1m.4 1h-.8c0-.6.3-.8.4-.8.1 0 .4.2.4.8m.2-2.7v-.3h.2v.1h.2v-.1h.2v.1h.3v-.1h.1v.3h-1m.9.8h-.8v-.6h.8zm-2-1.4v-.4h.1v.2h.3v-.2h.2v.2h.3v-.2h.1v.4zm1 1.4h-.9v-1.2h.8zm-2-.8v-.3.1h.3v-.1h.2v.1h.3v-.1h.1v.3h-1m.9.8h-.8v-.6h.8zm-1 .2h3.4v.1h-3.4m0 .2h3.5v.1h-3.3V93m.1.2h1.3l-.2.1c-.2.2-.5.5-.5 1h-.7zm3.3 1.5h-3.5l-.1-.1v-.1h3.6v.2"/></g><g id="g85" fill="#f8de35"><path id="path74" d="M-96.5 94.4c0-1.1.8-1.4.9-1.4 0 0 .8.3.8 1.4"/><path id="path75" d="m-97.2 93-.1 1.3h.8c0-1 .8-1.2.9-1.2 0 0 .8.2.8 1.2h.9l-.2-1.3"/><path id="path76" d="M-97.4 94.3h3.5l.2.2-.2.2h-3.5l-.1-.2.1-.2"/><path id="path77" d="M-96.1 94.3c0-.7.5-.9.5-.9s.4.2.4 1"/><path id="path78" d="M-97.3 92.5h3.3l.2.1-.2.2h-3.3l-.2-.2.2-.1"/><path id="path79" d="M-97.3 92.8h3.3v.2h-3.3v-.2"/><path id="path80" d="M-96.2 90.6h.2v.1h.2v-.1h.3v.1h.2v-.1h.2v.4h-1.1"/><path id="path81" d="M-96 92.4h.8v-1.3h-.8"/><path id="path82" d="M-95.1 91.2h.2v.2h.2v-.2h.3v.2h.2v-.2h.2v.5h-1.1"/><path id="path83" d="M-95 91.7v.8h.9v-.8"/><path id="path84" d="M-97.3 91.2h.2v.2h.2v-.2h.3v.2h.2v-.2h.2v.4l-.1.1h-1"/><path id="path85" d="M-97.2 91.7v.8h.9v-.8"/></g><g id="g89" fill="#211e1e"><path id="path86" d="M-95.7 91.9h.1v-.4h-.1z"/><path id="path87" d="M-94.6 92.2h.1V92h-.1z"/><path id="path88" d="M-96.8 92.2h.1V92h-.1z"/><path id="path89" d="M-93.9 94.3-94 93l.1-.2v-.1l.1-.2-.2-.2v-1.1h-.3v.1-.1h-.4v.1h-.1v-.1h-.4v.4l.2.2v.6h-.2v-1.3l.2-.1v-.5h-.4v.2-.2h-.4v.2h-.1v-.2h-.4v.5l.2.1v1.3h-.2v-.6l.2-.2v-.4h-.4v.1-.1h-.4v.1h-.1v-.1h-.4v.4l.2.2v.6h-.1l-.2.2.1.2v.1l.1.2v1.2h-.1l-.2.2.2.2h3.5l.2-.2-.2-.2m0 0h-.8c0-.5-.3-.9-.5-1l-.2-.2h1.3zm-1.7-1-.2.2c-.2.1-.4.4-.4.8h-.2c0-1 .8-1.2.8-1.2s.7.2.8 1.2h-.3c0-.7-.5-1-.5-1m.4 1h-.9c0-.6.4-.8.4-.8.1 0 .5.2.5.8m.1-2.7v-.3h.2v.1h.3v-.1h.1v.1h.3v-.1h.2v.3h-1m.8.8h-.7v-.6h.7zM-96 91v-.4.2h.4v-.2h.1v.2h.3v-.2h.2v.4zm.8 1.4h-.7v-1.2h.7zm-2-.8v-.3h.2v.1h.3v-.1h.1v.1h.3v-.1h.2v.3h-1m.8.8h-.7v-.6h.7zm-1 .2h3.5v.1h-3.5m0 .2h3.4v.1h-3.3v-.1m.1.2h1.3l-.2.1c-.2.2-.4.5-.4 1h-.8zm3.3 1.5h-3.5v-.2h3.6v.2"/></g><g id="g101" fill="#f8de35"><path id="path90" d="M-92.8 104.4c-.7-.8-.4-1.6-.4-1.6s.9-.4 1.7.4"/><path id="path91" d="m-94.2 104 .8 1 .6-.7c-.8-.7-.3-1.4-.3-1.5 0 0 .8-.4 1.5.3l.6-.6-1-.8"/><path id="path92" d="m-93.4 105 2.4-2.5h.2v.2l-2.4 2.5h-.2v-.2"/><path id="path93" d="M-92.6 104c-.4-.4-.2-.9-.2-.9s.4-.2 1 .3"/><path id="path94" d="m-94.7 103.6 2.4-2.4h.2v.2l-2.4 2.4h-.2v-.2"/><path id="path95" d="m-94.5 103.8 2.3-2.3h.2v.2l-2.3 2.3h-.1v-.2"/><path id="path96" d="m-95.3 101.5.2-.2.1.1.2-.1-.2-.1.2-.2.1.1.2-.1-.2-.1.2-.2.3.3v.1l-.6.7h-.2"/><path id="path97" d="m-94.8 101.7 1 1 .6-.6-1-.9"/><path id="path98" d="m-94 101.2.1-.2.2.1.1-.1-.1-.1.2-.2v.1l.2-.1-.1-.2.2-.1.3.3v.1l-.7.7h-.1"/><path id="path99" d="m-93.6 101.4.5.6.6-.7-.5-.4"/><path id="path100" d="m-95.6 102.7.2-.2.1.2.1-.2.1-.3.1.2.2-.2h-.2l.2-.3.3.3v.2l-.6.6h-.2"/><path id="path101" d="m-95.1 103 .5.5.6-.6-.5-.5"/></g><g id="g105" fill="#211e1e"><path id="path102" d="m-94.2 101.8.2.3.1-.2-.2-.2-.1.1"/><path id="path103" d="m-93.1 101.4.1.2.2-.2-.2-.1h-.1"/><path id="path104" d="m-94.7 103 .2.1.1-.1-.2-.2-.1.1"/><path id="path105" d="m-91 102.5-1-.8v-.2l-.1-.3h-.3l-.5-.3v-.3l-.3-.3-.3.3h.1v.1h-.1l-.3.2h.1v.1h-.2l-.2.2.3.3h.2l.5.5h-.1l-1-.8v-.3l-.3-.3-.2.3h.1v.2l-.2-.2-.2.3v.1h-.1l-.3.2.4.3h.2l.9 1h-.1l-.5-.4v-.2l-.3-.3-.2.2v.2l-.1-.1-.3.2.2.1v.1l-.2-.1-.3.2.4.4h.2l.4.4v.4h.2v.1h.3l.7 1v.2h.3l2.5-2.4v-.3h-.3m0 0-.6.6c-.4-.4-.8-.4-1-.4h-.3l.9-.9zm-1.9.6v.2c0 .2 0 .5.3.8l-.2.2c-.7-.8-.3-1.4-.3-1.4s.7-.4 1.4.3l-.2.1c-.5-.4-1-.2-1-.2m1 .3-.7.6c-.3-.4-.2-.7-.2-.8 0 0 .5-.1.9.2m-1.8-2-.3-.2.1-.1h.2l.2-.1-.2-.1.2-.1.3-.1-.1-.1v-.2l.3.3-.6.7h-.1m1.2 0-.6.5-.4-.5.5-.5zm-2.4.3-.3-.2.1-.1.1.1.2-.2-.1-.1.1-.1.1.1.2-.2v-.2l.3.2zm1.6.4-.6.6-.8-1 .5-.4zm-2 .9-.2-.3h.2l.2-.1-.1-.2h.2l.2-.2h-.1l.1-.2.3.3-.7.7m1.1 0-.5.4-.4-.4.5-.5zm-.6.8v-.1l2.4-2.4h.1v.1l-2.3 2.4h-.2m.3.1 2.3-2.4v.2l-2.2 2.2h-.1m.2 0 1-.8-.1.2c0 .2 0 .6.4 1l-.5.6zm3.4-1.2-2.5 2.5-.1-.2 2.5-2.5h.1v.2"/></g><g id="g117" fill="#f8de35"><path id="path106" d="M-80.8 103.2c.8-.8 1.6-.4 1.6-.4s.4.8-.4 1.6"/><path id="path107" d="m-80.3 101.7-1 .8.5.7c.8-.8 1.5-.4 1.5-.3 0 0 .4.7-.3 1.5l.7.6.8-1"/><path id="path108" d="m-81.4 102.5 2.5 2.5v.2h-.3l-2.4-2.5v-.2h.2"/><path id="path109" d="M-80.5 103.4c.5-.5 1-.3 1-.3s.2.5-.3 1"/><path id="path110" d="m-80 101.2 2.3 2.4v.2h-.2l-2.3-2.4v-.2h.2"/><path id="path111" d="m-80.2 101.5 2.3 2.3v.2h-.2l-2.3-2.3v-.2h.2"/><path id="path112" d="m-77.9 100.7.2.2h-.1v.2l.2-.1.2.2-.1.1v.1l.2-.1.2.2-.3.3h-.1l-.7-.7v-.1"/><path id="path113" d="m-79.2 102.1.7.6.9-1-.6-.5"/><path id="path114" d="m-77.6 102 .2.1-.1.1v.2l.2-.2.2.2-.1.1.1.2.1-.2.2.2-.3.3h-.1l-.7-.6v-.2"/><path id="path115" d="m-78.4 102.9.6.6.5-.5-.5-.6"/><path id="path116" d="m-79.1 100.4.1.1v.3l.2-.1.1.2v.2l.2-.1.2.2-.3.3h-.2l-.6-.7v-.1"/><path id="path117" d="m-80 101.3.7.6.5-.5-.6-.5"/></g><g id="g121" fill="#211e1e"><path id="path118" d="m-78.3 101.7-.2.2.1.2.3-.3h-.2"/><path id="path119" d="m-77.8 102.8-.2.2.1.1.2-.2h-.1"/><path id="path120" d="m-79.4 101.3-.1.1v.2l.3-.2-.2-.1"/><path id="path121" d="m-78.9 105 .8-1h.2v-.1h.3v-.3h-.1l.4-.6h.3l.3-.3-.3-.2h-.1l-.2-.3h-.1l-.2-.3-.3.3v.2l-.5.4.8-1h.3l.3-.3-.3-.3-.1.2v-.2l-.2-.3-.1.1v-.1l-.2-.3-.3.3v.3l-1 .8.4-.5h.2l.3-.3-.2-.3-.2.1.1-.1-.2-.3-.2.1.1-.2-.2-.2-.4.3v.2l-.4.5-.1-.1h-.3v.2h-.1v.3l-1 .8h-.3v.3l2.5 2.5h.3v-.3m0-.1-.6-.6c.4-.3.4-.7.4-1v-.3l.9 1zm-.6-1.8h-.2a1 1 0 0 0-.8.2l-.2-.1c.8-.7 1.4-.3 1.4-.3s.4.7-.3 1.4l-.2-.2c.5-.5.3-1 .3-1m-.3 1-.6-.7c.4-.4.7-.3.8-.2 0 0 .1.4-.2.8m2-1.7.2-.3.1.1-.1.1.2.2.1-.1.1.1-.1.1.2.2h.2l-.2.3h-.1l-.6-.7m0 1.1-.5-.5.5-.4.5.5zm-.4-2.3.3-.3h.1l-.1.2.2.2.1-.1h.1l-.1.2.2.2.1-.1h.1l-.2.3h-.1zm-.3 1.6-.6-.6 1-.8.4.5zm-.9-2 .3-.3v.3l.1.2.2-.2v.3l.1.2.2-.1-.2.3-.7-.6v-.1m0 1.2-.5-.6.5-.4.5.5zm-.8-.6h.1l2.4 2.4h-.1l-2.4-2.3v-.1m-.1.2 2.3 2.3v.1l-2.4-2.2v-.2m0 .3 1 .9h-.3c-.2 0-.6 0-1 .4l-.6-.6zm1.3 3.4-2.5-2.5v-.1h.1l2.5 2.4v.2h-.1"/></g></g></g><g id="g203" stroke="#613a21" transform="translate(48.4 -164) scale(.26458)"><g id="g202" fill="none" stroke="#613a21" stroke-width=".5" transform="translate(-180.8 622) scale(1.19307)"><path id="path123" fill="#ffca26" d="M288.6 264.4c5.6-14.5 17.2-15.7 24-23.7 2.6-3.2 9-1.8 13.5-2.8 4.3-1 5.7 1 6.2 5 8-.3 7.8 3.2 7 6.5-.3-1.3-4-1.5-5.7-1.4 0 3-2.1 3.1-5.4 4-2.5.6-3 4.6-3 7.4 7 .2 13.3-6 19.7-13 6.4-7 17-13 34-12 20.8 1.2 62 1.9 75.8-2.2 13.8-4 16.9 1.7 6.7 8.1 1.2 2.6-1.5 7-6.4 9 2.4 2.8-1.3 6.7-8.6 9.6.4 4.5-6.9 9.8-16.2 10.6 2.4 5.7-11.6 10.8-26.8 9.8 1.5 2.2-3.5 6-9.2 6 2 2.4-3.3 5.1-7 5.3 2.2 2-8.6 5.2-14.3 4 .2 2-6.2 3.6-10.5 2.6-.5 1.8-5 2.5-7.7.6-.7 1.9-3.9 2.2-6.8.4-1.8 1.8-5 1.7-6.9-.5-1.2 2-4 2.7-6 .1-1.7 2.2-4 1.6-6-.6-.3 2-6.2 5.4-9.6-6.8-.9 5.7-2.5 9.3-3.8 11.7a64.6 64.6 0 0 1 1.5 18c1 6.7 4 16.5 6 22.8 2 6.2-1.1 5.6-2.9 4.6.2.8.3 1.9 0 3.2-.7-.9-2.4-2.3-4-2.3 0 1-.3 2-1.1 2.8-1.6-2-3.2-4.5-5.1-4.5-1.9.5-5.4 2.2-6.4 5.2a6 6 0 0 1-.6-2.6c-1.3 1.1-5.4 1.3-6.3 0 0 .6-.2 1.2-.4 2-.7-1-2.3-2.5-3.9-2.5 0 1-.4 2-1.2 2.8-1.5-2.1-3.4-4-5.2-4-2 .3-5.5 1.9-6.7 4.8-.6-1.4-.8-3.6.1-5.3-1 0-2.2-.7-1.8-2-3.2 5.5-7.4 4.3-9 1.6-3.5 3.8-10.4 1.5-7.3-3.2 12.1-18.8 13.6-25 17-34.9 1.3-4 .5-10 2.4-16-4.3 7.4-9.5 8.6-10.7 7-1.3 1.6-5.9 3.3-7 .6-1.4 1-4.4 1-5.6-.3-2.2 1.7-5.4 1.8-6 .3-2.1 1.4-6.7 1.2-7.5-.3-3.4 2.8-10.8 1.3-10.5-2.9-7.9 3.7-15 1.7-14.6-2.2-4.8.5-7.5-1.8-7.1-4-5 .3-8.1-3-7.3-6.3-10.8 1-37.6-2.2-35.7-10.6-7.6-1.4-19-7-15.2-11.3-4.9-1.4-10.5-5.4-10-9.3-6.9-1.5-8.2-7.2-6-8.4-6.6-2.2-7.6-10.5 3.9-7.6 16 4 59 3.4 82.3 2 23.2-1.3 23 5 43.5 19.2 9.2 6.5 17 5 21.4 5.9z"/><path id="path124" d="M314.8 344.9c.9.8 1.5 2.1 1.5 3.6"/><path id="path125" d="M320.2 347.5c-.7-2.6-3.1-3-5.4-2.6-1.6-.4-3-1.5-3-4.4 0-1.8 1.1-4.6 3.4-9.4a33 33 0 0 0 1.9-11"/><path id="path126" d="M303 349.3c0-2 1.1-4.2 4.3-4.8 1.7-.4 2.4-.8 2.4-3.2 0-7.9-9.8-9.4-9.8-28.8"/><path id="path127" d="M310.2 309.3c1.1-2.9 3.9-4.6 5.4-7.2"/><path id="path128" d="M288.6 264.4c1.5.3 2.7.9 3.4 2.2"/><path id="path129" d="M291 345c1 .8 1.5 2.3 1.4 3.8"/><path id="path130" d="M296.7 349.3c0-3.5-2.8-4.8-5.7-4.4-1.5-.5-2.5-.8-2.4-3.6.6-11.7 10.7-15.4 8.4-36.7"/><path id="path131" d="M279.4 347.1a5 5 0 0 1 3.6-2.2c1.7-.3 2.4-.7 2.5-3.1.1-2.2-1.3-3.2-2.1-4.5-4-6-7.1-22.6-5.1-28.7"/><path id="path132" d="M325.2 259.4v2.5c0 8.3-5.3 11.8-5.2 18.7 0 3.9-.2 7-.6 9.8"/><path id="path133" d="M290.4 269.7c-16.8-.7-31-4.7-39-16.2-8.2-11.5-22-11.8-35.5-10.5-13.5 1.4-27.3 1-39.1 0"/><path id="path134" d="M195.2 244c-1 2.8 2.3 8.1 27.6 5.4"/><path id="path135" d="M197.5 248c.7 5.8 13.7 9.9 30.4 6.3"/><path id="path136" d="M205.8 254.4c-5 .2-1.7 5.5 4.2 6.2 5.9.6 16.3.8 22-.7"/><path id="path137" d="M210 260.6c-3.4 2.7-1.7 6.5 9.1 7.2a62 62 0 0 0 19.2-2"/><path id="path138" d="M220.3 268c-3 2 .3 5.6 6 5.6 5.8 0 12.2-1 16.6-3.3"/><path id="path139" d="M226.3 273.6c-2.3 3.2 1.5 6.6 9 4.8 2.9-.6 9.6-3.3 11.6-5"/><path id="path140" d="M236 278.3c-3.2 2-1.1 6.7 5 3.9a29 29 0 0 0 8.3-5.6"/><path id="path141" d="M241 282.2c-.8 2.5 1.9 4.5 5.8 2.2a21 21 0 0 0 7-6.8"/><path id="path142" d="M246.8 284.4c-.6 2.1 2 5.7 10.7-4.3"/><path id="path143" d="M251 286c-.7 2.7 3.3 4.4 9.8-3.8"/><path id="path144" d="M255.5 287.4c1.7 2.7 4.2 2.5 10.1-3.9"/><path id="path145" d="M259.7 288.6c-.3 2.5 4 3.2 8.6-2"/><path id="path146" d="M265 289.4c-.3 2.5 4.9 1.4 8.4-3"/><path id="path147" d="M269.7 289.6c1.3 2 5.7 2.2 8.6-2.7"/><path id="path148" d="M277.5 288c-2.7 3.6 1.6 5 5 1.4"/><path id="path149" d="M280.7 292.6c5.9-4.5 3.2-14.3 7.5-14.3"/><path id="path150" d="M137.5 244.9c11 4 40.6 6.6 60.5 4.9"/><path id="path151" d="M143.5 253.3c12.5 3.6 42.1 4.6 60.3 4.1"/><path id="path152" d="M153.5 262.6c8.8 2 38.1 6.4 57 3.2"/><path id="path153" d="M168.7 273.9c7.4 1.8 37.2 4.3 53.3-1.1"/><path id="path154" d="M204.4 284.5c4.7-.1 16.4-3 22.7-6.7"/><path id="path155" d="M211.7 290.8c6.9-1 16.8-4 23-9"/><path id="path156" d="M218.8 294.8c4.9-.2 17.7-5.5 23.2-9.7"/><path id="path157" d="M233.4 297c5-2 11.2-6.2 15.7-10.2"/><path id="path158" d="M243.9 299.9c4.5-3.2 8.4-8 12-12"/><path id="path159" d="M251.5 300.2c3.5-2 6.2-6 9-10"/><path id="path160" d="M257.4 299.9c2.8-2 6.4-6 8.4-9.3"/><path id="path161" d="M263 300.2c2.6-2.2 5.7-5.9 7.5-9.8"/><path id="path162" d="M270 299.5a25 25 0 0 0 6.7-9.3"/><path id="path163" d="M268.5 346.8c3.6-6.1 7.8-13.4 10.8-20.3"/><path id="path164" d="M277.6 345c2-3 3.4-6.6 5-9.3"/><path id="path165" d="M295.3 344.9c0-3.6-.7-15.2-.5-20.8"/><path id="path166" d="M303.5 346c0-4.3-1.8-13.8-1.7-20.8"/><path id="path167" d="M317 344.8c-.5-2.1-2.1-9-2.4-12.1"/><path id="path168" d="M325.2 266.6c17.5-.3 22.2-28.3 51-27.6 28.6.7 46.1 2.7 59.6 1.3"/><path id="path169" d="M381.7 245.7c17.9 1.4 25.3-1.3 25.1-5.5"/><path id="path170" d="M378.5 251.1c11.3 1.5 22.5 2.6 22.1-5.9"/><path id="path171" d="M373.4 256.7c9.1 1.8 23 4.2 22.6-5.2"/><path id="path172" d="M366.7 262c13 3.8 25.4 5.1 24.6-4.1"/><path id="path173" d="M361.6 268.2c11.3 4.3 23.6 4.8 22.3-3.3"/><path id="path174" d="M356.2 271.7c10.1 6.6 18.7 5.7 18.7-.4"/><path id="path175" d="M351.5 275c8.8 6.1 15 6.7 15.8 1"/><path id="path176" d="M348.4 277.1c5.8 6.4 10.8 6.2 12 2.5"/><path id="path177" d="M344.4 277.6c3.7 6 9.6 8.1 10.1 4.2"/><path id="path178" d="M341.3 279.1c3.7 6 9 8.3 9.6 4.4"/><path id="path179" d="M337.9 280.5c3.3 6 8.3 8.2 9 4.4"/><path id="path180" d="M334 281.1c2.4 6.9 7.4 8.8 8.5 4.9"/><path id="path181" d="M330 280.4c1 7.2 5.6 10 7.4 6.3"/><path id="path182" d="M327 281.9c1 7.1 4.3 8.8 6.4 5.8"/><path id="path183" d="M322.8 282.3c1 7.1 4.4 8.8 6.5 5.8"/><path id="path184" d="M324.5 287.6c-1 1.5-2.7 2.7-4.8.5"/><path id="path185" d="M461.4 240.3c-9 6.3-48.7 7.8-61 7.3"/><path id="path186" d="M455 249.3c-12.4 5.5-37.6 7.4-60.3 6.4"/><path id="path187" d="M446.4 258.9c-9.6 4.5-44.1 4.9-56.5 3.9"/><path id="path188" d="M430.2 269.5a236 236 0 0 1-47.5-.2"/><path id="path189" d="M403.4 279.3c-8-.2-21.3-2.3-29.9-4.5"/><path id="path190" d="M394.2 285.4a79 79 0 0 1-28.5-6.3"/><path id="path191" d="M387.2 290.6a44 44 0 0 1-28-9.1"/><path id="path192" d="M372.9 294.6a36 36 0 0 1-20.1-10.8"/><path id="path193" d="M362.4 297.2c-5.9-1.2-10.6-6.6-14.5-12"/><path id="path194" d="M354.7 297.8c-3-2.1-8.7-7-11.5-11.4"/><path id="path195" d="M348 298.2c-4-2-7-6.3-8.6-10.3"/><path id="path196" d="M341 297.7a30.3 30.3 0 0 1-5.7-9.4"/><path id="path197" d="M335 297.8a29.7 29.7 0 0 1-5-9"/><path id="path198" d="M329 297.2a31 31 0 0 1-4.9-9"/><path id="path199" d="M333.6 248c-1.8.2-3.7 0-4.5.4"/><path id="path200" d="M332.3 243c0 1-.8.8-1 1.7"/><path id="path201" d="M319 242.8c2.2-.7 4.3 1 6.3.5a5 5 0 0 1 3.9.4"/><path id="path202" d="M322 243c-.2 1 .6 2 2 2.1 1 0 2.3-.7 2.2-2"/></g></g><g id="g211"><path id="path203" fill="#613a21" d="m95.3 35.3-.2.4-1 3h-3.7l3 2.2-1.1 3.5 3-2.1 3 2.1L97 41l3-2.1h-3.7z" color="#000" style="paint-order:stroke markers fill"/><path id="star-4" fill="#ffca26" stroke="#613a21" stroke-width=".1" d="m95.3 35.7-1 3.2h-3.4l2.7 2-1 3.1 2.7-2 2.6 2-1-3.1 2.7-2h-3.3z" style="paint-order:fill markers stroke"/><g id="g210" fill="#ffca26" stroke="#613a21" stroke-width="1" transform="translate(114.4 -64.8)"><use xlink:href="#star-4" id="use203" width="100%" height="100%" x="0" y="0" style="paint-order:stroke markers fill" transform="rotate(-55 100.3 239.2)"/><use xlink:href="#star-4" id="use204" width="100%" height="100%" x="0" y="0" style="paint-order:stroke markers fill" transform="rotate(-41.3 124.1 281.3)"/><use xlink:href="#star-4" id="use205" width="100%" height="100%" x="0" y="0" style="paint-order:stroke markers fill" transform="rotate(-27.5 170.5 363)"/><use xlink:href="#star-4" id="use206" width="100%" height="100%" x="0" y="0" style="paint-order:stroke markers fill" transform="rotate(-13.8 306.8 603.8)"/><use xlink:href="#star-4" id="use207" width="100%" height="100%" x="0" y="0" style="paint-order:stroke markers fill" transform="rotate(13.8 -230.7 -345.2)"/><use xlink:href="#star-4" id="use208" width="100%" height="100%" x="0" y="0" style="paint-order:stroke markers fill" transform="rotate(27.5 -94.4 -104.5)"/><use xlink:href="#star-4" id="use209" width="100%" height="100%" x="0" y="0" style="paint-order:stroke markers fill" transform="rotate(41.3 -48 -22.7)"/><use xlink:href="#star-4" id="use210" width="100%" height="100%" x="0" y="0" style="paint-order:stroke markers fill" transform="rotate(55 -24.2 19.4)"/></g></g><!-- app4joy --></svg>