<svg width="450" height="300" id="svg29" viewBox="0 0 450 300" xmlns:xlink="http://www.w3.org/1999/xlink" xmlns="http://www.w3.org/2000/svg"><g id="g29"><path style="fill:#bf0a30" d="M0 0h450v300H0z" id="path1"/></g><g id="g30"><path d="M37.5 148.8 224.2 275l188.3-126.4L224.2 25z" style="fill:#002868" id="path2"/><path d="M84 149.1 224.4 244 366 149 224.4 56z" style="fill:#fff" id="path3"/><path d="M148.2 145h7.8l1.4 4.4h4.8l-7.5-21.2h-5.1l-7.6 21.2h4.7zm3.9-12 2.7 8.3h-5.4zm13 16.4h4.3V141h4.6q2.3 0 3 1 .5.8.4 3a22 22 0 0 0 .5 4.3h5v-.6q-.7-.2-1-1v-3.2q0-3-.7-3.9a4 4 0 0 0-2-1.5q1.5-.6 2.4-1.9.9-1.4.9-3.1 0-1-.5-2.4-.6-1.5-2-2.5-1.5-1-4.2-1.1H165zm4.3-11.9v-5.7h5.5q2 0 2.5 1 .8.9.6 1.8 0 1.6-.8 2.2-1 .7-2.6.7zm21.8 4.7 2-2.1 6.6 9.3h5.7l-9.2-12.5 8.7-8.7h-5.7l-8.1 8.6v-8.6h-4.5v21.2h4.5zm21 2.8h8l1.3 4.4h4.8l-7.5-21.2h-5.1l-7.6 21.2h4.7zm4-12 2.7 8.3h-5.4zm25.9 10-8.5-14.8H229v21.2h4.2v-15.1l8.7 15h4.4v-21.1h-4.1zm7.3-.1q0 1.3.6 3 .8 1.6 2.7 2.8t5.8 1.3q1 0 3-.4t3.6-2 1.8-4.6q-.1-2.8-1.7-4-1.7-1.2-3.9-1.7l-5.2-1.3-1.4-.5q-.8-.5-.8-1.7 0-1.4 1.2-2a5 5 0 0 1 2.5-.5q2.7 0 3.6 1.2.7 1.2.7 2h4.3q0-1.5-.7-3-.8-1.6-2.6-2.7a10 10 0 0 0-5-1.2q-3.4 0-5.2 1.2c-1.8 1.2-2 1.6-2.4 2.6q-.6 1.6-.6 2.7.2 3.4 2.1 4.6t4.7 1.7l2.3.5q1.6.3 2.7.9 1 .6 1.1 1.7 0 1.7-1.4 2.3-1.5.5-3 .5-2.9 0-3.7-1.3-1-1.2-.8-2.1zm25.4 2.1h7.8l1.3 4.4h4.9l-7.5-21.2h-5.1l-7.6 21.2h4.7zm3.9-12 2.6 8.3H276zm11.8 9.9q0 1.3.7 3t2.6 2.8 5.8 1.3q1 0 3-.4t3.6-2 1.8-4.6q0-2.8-1.7-4t-3.9-1.7l-5.2-1.3-1.4-.5q-.8-.5-.8-1.7 0-1.4 1.2-2a5 5 0 0 1 2.5-.5q2.8 0 3.6 1.2.7 1.2.7 2h4.3q0-1.5-.7-3-.8-1.6-2.6-2.7a10 10 0 0 0-5-1.2q-3.4 0-5.2 1.2-1.7 1-2.4 2.6t-.5 2.7q0 3.4 2 4.6 2.1 1.2 4.7 1.7l2.3.5q1.7.3 2.7.9t1.1 1.7q0 1.7-1.4 2.3-1.5.5-3 .5-2.8 0-3.7-1.3-1-1.2-.8-2.1z" style="font-size:28px;font-style:normal;font-variant:normal;font-weight:700;font-stretch:normal;text-align:start;line-height:125%;writing-mode:lr-tb;text-anchor:start;fill:#002868;fill-opacity:1;stroke:none;stroke-width:1px;stroke-linecap:butt;stroke-linejoin:miter;stroke-opacity:1;font-family:Helvetica LT Std;-inkscape-font-specification:Helvetica LT Std Bold" id="path4"/><path d="m229.5 50-5.5-4-5.5 4 2-6.5-5.5-4h6.8L224 33l2.2 6.5h6.8l-5.5 4z" style="fill:#fff" id="path5"/><path d="m235 190-10 7-10-7 3.8 11.5-10 7h12.4L225 220l3.8-11.5h12.3l-10-7z" style="fill:#002868" id="path6"/><path d="m202.7 190-10-7-10 7 3.9-11.5-10-7h12.3l3.8-11.5 3.8 11.5H209l-10 7z" id="a" style="fill:#002868"/><path d="m216 243.5-4 5.6 4 5.5-6.5-2.1-4 5.5v-6.8L199 249l6.5-2.1v-6.8l4 5.5z" id="b" style="fill:#fff"/><path d="m233 243.5 4 5.6-4 5.5 6.5-2.1 4 5.5v-6.8l6.5-2.1-6.5-2.1v-6.8l-4 5.5z" id="c" style="fill:#fff"/><use transform="translate(64.5)" width="450" height="300" xlink:href="#a" id="use6"/><use transform="translate(32.3 -85)" width="450" height="300" xlink:href="#a" id="use7"/><use transform="translate(151.5 -119)" width="450" height="300" xlink:href="#b" id="use8"/><use transform="translate(124.5 -137)" width="450" height="300" xlink:href="#b" id="use9"/><use transform="translate(97.5 -155)" width="450" height="300" xlink:href="#b" id="use10"/><use transform="translate(70.5 -172)" width="450" height="300" xlink:href="#b" id="use11"/><use transform="translate(43.5 -190)" width="450" height="300" xlink:href="#b" id="use12"/><use transform="translate(-120 -82)" width="450" height="300" xlink:href="#b" id="use13"/><use transform="translate(-96 -66)" width="450" height="300" xlink:href="#b" id="use14"/><use transform="translate(-72 -50)" width="450" height="300" xlink:href="#b" id="use15"/><use transform="translate(-48 -33)" width="450" height="300" xlink:href="#b" id="use16"/><use transform="translate(-24 -17)" width="450" height="300" xlink:href="#b" id="use17"/><use transform="translate(-144 -99)" width="450" height="300" xlink:href="#b" id="use18"/><use transform="translate(-151 -119)" width="450" height="300" xlink:href="#c" id="use19"/><use transform="translate(-124 -137)" width="450" height="300" xlink:href="#c" id="use20"/><use transform="translate(-97 -155)" width="450" height="300" xlink:href="#c" id="use21"/><use transform="translate(-70 -172)" width="450" height="300" xlink:href="#c" id="use22"/><use transform="translate(-43 -190)" width="450" height="300" xlink:href="#c" id="use23"/><use transform="translate(144 -99)" width="450" height="300" xlink:href="#c" id="use24"/><use transform="translate(120 -82)" width="450" height="300" xlink:href="#c" id="use25"/><use transform="translate(96 -66)" width="450" height="300" xlink:href="#c" id="use26"/><use transform="translate(72 -50)" width="450" height="300" xlink:href="#c" id="use27"/><use transform="translate(48 -33)" width="450" height="300" xlink:href="#c" id="use28"/><use transform="translate(24 -17)" width="450" height="300" xlink:href="#c" id="use29"/></g></svg>