<svg width="87.313" height="68.792" viewBox="0 0 87.313 68.792" id="svg270" xmlns="http://www.w3.org/2000/svg"><g id="g271"><path d="M0 0h87.3v68.8H0z" fill="#0c2d83" id="path1"/></g><g id="g270"><path transform="matrix(.14843 0 0 .14858 -.4 .3)" d="m296.6 52-1 2.1-.9 2.5-.1.4-.8-.6-1-.5v1.6c0 1.3 0 1.6-.5 2l-.4.3.5 1c.5.9.5 1 .3 1.7q-.1.5-.4.6t-1.2-.7a11 11 0 0 0-5-2.3c-3-.6-12.7-.3-12.4.5q.6 1.1 0 1.1t-1.3.3l-3 .8q-5.9 1.4-8 3.3-.6.5-.7.8l-1 .4a12 12 0 0 0-6.3 4l-2.3 3h1l.9-.1-.6.9a40 40 0 0 1-5.8 7.5h2.5a14 14 0 0 0 5.1-.9l.3.6c.3.7.2.7 2.3.4 1-.2.5 0-.6.4a18 18 0 0 0-5.2 2.3c-.7.5-1.5 1.9-1.3 2.2l.8.2.8.1-1.5 1.5q-2.2 2.2-2.5 3.6-.3.6.5.5.7 0 .7.2l-.8 1.2q-1.3 1.6-3.5 2.9-.8.5-.8.7c0 .3 1.6.6 3.2.6q3 0 6-1.2 2.3-.9 1 .3l-.6.5h1.4c1.6-.3 4.2-1.3 5.6-2.4l1-.8v1.7l1-.5 2-1.2 1.2-.8 3.3-1.5h.4l1-.5 4.1.6 5.4-5 6.6 3.4 23.3-.8 3-6.7 5.5 3.6 9.4 5.9q-.2-.2.4 0 .6 0 1.1-.2c.5-.3.6-.3 2.2.4l1.8.7 1.3.8c1 1 2.7 1.8 2.9 1.7l.1-.8v-.6l1.2.8c2 1.3 3.7 2 6 2.2l.9.1-.6-.5q-1-1-.2-.8 4.9 1.8 8 1.6a7 7 0 0 0 2.4-.6l-1.1-.8c-1.4-.8-3.2-2.5-3.8-3.4l-.5-.8h.7q1 .2.6-.6-.3-1.3-2.5-3.6l-1.3-1.4.7-.1q1.2-.1.6-1-.8-2-5.5-3.5-3-.9 0-.4.6.1.8-.5l.3-.7 1.3.4q1.3.4 3.8.5h2.5l-1.3-1.7a33 33 0 0 1-4-5l-1-1.7.9.1h.9c0-.6-2-2.9-3.8-4.5a11 11 0 0 0-4.8-2.5q-1-.2-1-.4c0-.4-1.7-1.7-3.1-2.4q-2.4-1-5.6-1.7L326 62l-1.6-.4q-.6 0-.4-.3.5-1 .2-1.2l-2.5-.2c-5.7-.7-10.5-.2-13.4 1.4-1.2.7-1.2.8-1.4-1.2l-.2-1.2-.8.6q-.5.6-.8.6l-.7-1.5-1-2.4-.6-.8-.5.4-.5.4-.3-.8c-.3-.8-1.2-2.4-1.5-2.4l-.7.7-.6.6-1-1.2z" fill="#129612" fill-rule="evenodd" stroke="#003718" stroke-width="1.066" id="path2"/><g fill="none" stroke="#003718" stroke-width="2.845" id="g25"><path d="M760.3 34s-12.1-6.1-12.6-9.6l2.8-2.8s-7.6-7.8-7.1-9.3l2.8-2.3s-3.3-8.3-3.6-11.1l5.6.7s.2-2.7 1.2-4.7S747-12 747-12l2-1.7.3-7.8 4.5 3.2L759-33l5.6 7 3.8-4.5s4 4.5 3.5 10.6l4.3-3s5.8 9 4.5 14.3c0 0 4.8-1 6.3-3 0 0 1.5 8.6 0 12.4l5.3-.3-6.5 13.4 4 .2s-7.8 16-12.4 18.2" transform="matrix(.05071 0 0 .04868 5.1 9.8)" id="path3"/><path d="M764.6-22.8S770-1.4 768.4 8c-1.8 9.3 1.2 22.4 1.2 22.4m-14.9-44.6L768-5.6" transform="matrix(.05071 0 0 .04868 5.1 9.8)" id="path4"/><path d="M777.4-13.5s-4 14.4-8.8 14.7m-14.9-3.8 14.7 10.8M750.2 10s16.6 13.4 18.4 12.4M784-1s-2 18.2-15.6 23M743.6.9S724.7-4.4 722-2c0 0 7.1.2 6.1 6.3 0 0-16.1-3-26.5 4.8 0 0 8 3.3 12.1 4.8l-4 2.2s4.8 5.6 17.9 5.3c0 0 2.3 10.6 22.7 5.8" transform="matrix(.05071 0 0 .04868 5.1 9.8)" id="path5"/><path d="M717.2 11s19.1-.8 31.5 10.8" transform="matrix(.05071 0 0 .04868 5.1 9.8)" id="path6"/><path d="M722.2 18s9.3-5.7 15.9-3m-3.3-12.3s-1.5 8.3 2.8 11.8m11.8 14.7-20.6-1.6s-8.1-8-17.7-7.3c0 0 3 2.6 2.5 4.8 0 0-24-1-28.7 23.2l6.5-1.7s-7.8 9-3.3 18.1l8.6-1s-6 6-7.3 12.6c0 0 8.8-.5 12.1-1.5M743.6-.9s-7.3-15-50-8.5l1.6 4s-9.6.5-10.8 3.8l3.2 2.8s-6 .5-7.3 3.7c0 0 11.9 3.3 14.4 7.4" transform="matrix(.05071 0 0 .04868 5.1 9.8)" id="path7"/><path d="M687.1-3.1s-23 3.3-30.7 11.6l6.3 2s-14.7 0-23.2 7.6-11.1 12.3-11.1 12.3l5.8-.5s-9.1 14.9-11.6 17.7l-7.4 8.3s13.7.8 20.2-4l2 4.8s20.2-2.8 22.5-5c0 0-12.4 6.5-16.2 7.7s-18.1 4.6-20.6 11.9l6.5 1.5S617 83.1 616 89.2l4.5.2s-1.7 8.1-14.6 16c0 0 11.1 3.7 28.5-5.4 0 0 2.5 3.6 1.3 4.6 0 0 9.8-1 20.7-11.4v6s5.8-2.7 8-6.2" transform="matrix(.05071 0 0 .04868 5.1 9.8)" id="path8"/><path d="m705.3 26.1-19.2-1.5-6.5-4s-19.5-5.8-23 3.8c0 0-18.1 2-20.7 18.9 0 0 2.8-2.3 5.8-2s5.3.2 5.3.2l.8 1.8 9-.3h3.3l-2.7 5 17.1.6" transform="matrix(.05071 0 0 .04868 5.1 9.8)" id="path9"/><path d="M687.9 40.5s-26.7 9.9-20.7 30l-3 5.3 3.8-1s-7.4 10.1-3.6 18.4c0 0 11.6-3.5 13.7-7.3" transform="matrix(.05071 0 0 .04868 5.1 9.8)" id="path10"/><path d="M688.9 63.2s-9 8.3-10.8 23.5c0 0 .5 7 10.3-1m-7.3-81.5s-9.6 4-9.4 6.3m24.8 1.5s-17.4-4.3-21.7 1.5l4.3 2.3-8.1 2.5m.5-8.6 3.5 2.8" transform="matrix(.05071 0 0 .04868 5.1 9.8)" id="path11"/><path d="m695.5 11.5 7.5 3.3-1.7 3.5 13.3 1m-49 50.2s-35 17.2-37.2 26" transform="matrix(.05071 0 0 .04868 5.1 9.8)" id="path12"/><path d="M636.2 67s3.3-1.3 8.3-.3l18.7 4m-33 11.4s11-3 15.3-1.2c0 0 4.8 3.5.8 12.3m6.5-57.7s33.8-7.3 44.7-6.8" transform="matrix(.05071 0 0 .04868 5.1 9.8)" id="path13"/><path d="M666.5 42s4.5-11.6 17.1-12.3M672 69.3s12.6-6.6 15.1-5.3" transform="matrix(.05071 0 0 .04868 5.1 9.8)" id="path14"/><g id="g24"><path d="M743.6 1S724.7-4.5 722-2.2c0 0 7.1.2 6.1 6.3 0 0-16.1-3-26.5 4.8 0 0 8 3.3 12.1 4.8l-4 2.2s4.8 6 17.9 5.7c0 0 2.3 10.6 22.7 5.8" transform="matrix(-.05071 0 0 .04868 82.8 9.8)" id="path15"/><path d="M717.2 11s14.3-.6 26.2 6.8" transform="matrix(-.05071 0 0 .04868 82.8 9.8)" id="path16"/><path d="M722.2 18s9.3-5.7 15.9-3m-3.3-12.3s-1.5 8.3 2.8 11.8m11.8 14.7-20.6-1.6s-8.1-8-17.7-7.3c0 0 3 2.6 2.5 4.8 0 0-24-1-28.7 23.2l6.5-1.7s-7.8 9-3.3 18.1l8.6-1s-6 6-7.3 12.6c0 0 8.8-.5 12.1-1.5M743.6-.9s-7.3-15-50-8.5l1.6 4s-9.6.5-10.8 3.8l3.2 2.8s-6 .5-7.3 3.7c0 0 11.9 3.3 14.4 7.4" transform="matrix(-.05071 0 0 .04868 82.8 9.8)" id="path17"/><path d="M687.1-3.1s-23 3.3-30.7 11.6l6.3 2s-14.7 0-23.2 7.6-11.1 12.3-11.1 12.3l5.8-.5s-9.1 14.9-11.6 17.7l-7.4 8.3s13.7.8 20.2-4l2 4.8s20.2-2.8 22.5-5c0 0-12.4 6.5-16.2 7.7s-18.1 4.6-20.6 11.9l6.5 1.5S617 83.1 616 89.2l4.5.2s-1.7 8.1-14.6 16c0 0 11.1 3.7 28.5-5.4 0 0 2.5 3.6 1.3 4.6 0 0 9.8-1 20.7-11.4v6s5.8-2.7 8-6.2" transform="matrix(-.05071 0 0 .04868 82.8 9.8)" id="path18"/><path d="m705.3 26.1-19.2-1.5-6.5-4s-19.5-5.8-23 3.8c0 0-18.1 2-20.7 18.9 0 0 2.8-2.3 5.8-2s5.3.2 5.3.2l.8 1.8 9-.3h3.3l-2.7 5 17.1.6" transform="matrix(-.05071 0 0 .04868 82.8 9.8)" id="path19"/><path d="M687.9 40.5s-26.7 9.9-20.7 30l-3 5.3 3.8-1s-7.4 10.1-3.6 18.4c0 0 11.6-3.5 13.7-7.3" transform="matrix(-.05071 0 0 .04868 82.8 9.8)" id="path20"/><path d="M688.9 63.2s-9 8.3-10.8 23.5c0 0 .5 7 10.3-1m-7.3-81.5s-9.6 4-9.4 6.3m24.8 1.5s-17.4-4.3-21.7 1.5l4.3 2.3-8.1 2.5m.5-8.6 3.5 2.8" transform="matrix(-.05071 0 0 .04868 82.8 9.8)" id="path21"/><path d="m695.5 11.5 7.5 3.3-1.7 3.5 13.3 1m-49 50.2s-35 17.2-37.2 26" transform="matrix(-.05071 0 0 .04868 82.8 9.8)" id="path22"/><path d="M636.2 67s3.3-1.3 8.3-.3l18.7 4m-33 11.4s11-3 15.3-1.2c0 0 4.8 3.5.8 12.3m6.5-57.7s33.8-7.3 44.7-6.8" transform="matrix(-.05071 0 0 .04868 82.8 9.8)" id="path23"/><path d="M666.5 42s4.5-11.6 17.1-12.3M672 69.3s12.6-6.6 15.1-5.3" transform="matrix(-.05071 0 0 .04868 82.8 9.8)" id="path24"/></g></g><path transform="matrix(.14843 0 0 .14858 -.4 .3)" d="M248 307.6c11 13.4 41 14.6 49.4 30.5 12.9-17 40.4-19.1 56.5-32.3" fill="none" stroke="#d2d2d2" stroke-width="3.109" id="path25"/><g fill="#b68c5b" stroke="#000" stroke-width=".375" id="g26"><path transform="matrix(.14843 0 0 .14858 -.4 .3)" d="M235.3 148.6c-1.9.7-4.5 1.2-5 3.2.1.8 1.5.9 2.6.6q-.3-2 2-1.5c-.2-.7.3-1.5.4-2.3zm128.4 0c1.9.7 4.5 1.2 5 3.2-.1.8-1.5.9-2.6.6q.3-2-2-1.5c.2-.7-.3-1.5-.4-2.3zm-54.3 65c1.6.5 4.1 1.1 4.5 2.9 0 .7-1.2.7-2.4.6q.4-1.8-1.8-1.5c.2-.6-.3-1.4-.3-2z" id="path26"/></g><path d="M46 12.2h.6c1.2 3.7 7.3 3.7 8.5 1.4q-.8-.7-.7-1.9c0-.4.2-1.4 1.4-1.4q.8-.2.8 1.6c.1 2.2-2.6 4.4-5.2 4.3-1.7-.1-5.5-1.3-5.4-4" fill="#ccc" id="path27"/><g stroke="#000" id="g36"><path transform="matrix(.14843 0 0 .14858 -.4 .3)" d="M260.8 187.6q-.5-2.7-1.8-4.6c0 .2-1 .5-1 .2q1.3 2.1 1.6 4.1.6.4 1 .4zm1.2-43.8q-.5-2.7-1.7-4.6c0 .2-1 .5-1 .2a20 20 0 0 1 1.6 4.2zm-32.6 12.8q.5-2.7 1.8-4.7c0 .3 1 .5 1 .3-.8 1.2-1.4 2.9-1.7 4.1q-.5.4-1 .4z" fill="#0f0" stroke-width=".375" id="path28"/><path transform="matrix(.14843 0 0 .14858 -.4 .3)" d="M260 185.3c.5 0 1.3.4 1.5.5 1 1 3 3.2 3 4.5 0-1 1.1-3.7.1-4.6-.6-.9-3.8-1-4.6-.4zm0 .5c-.6 0-1.2.8-1.6 1.4-.6 1.6-1.8 4.9-1.1 6.5-.5-1.4-3-3.7-2.5-5.4.5-1.2 4-3 5.2-2.5zm-.4-1q-1 .4-1.3 1.4c-.7 1.5-2 4.8-1.2 6.5-.6-1.4-3-3.7-2.6-5.5.4-1.4 4.1-3 5.1-2.5zm1.7-43.2q1 .1 1.4.5c1 1 3 3 3 4.5 0-1 1.2-3.8.2-4.7-.7-.8-3.9-1-4.6-.3zm0 .5q-1 .2-1.7 1.3c-.6 1.7-1.7 5-1.1 6.5-.5-1.3-3-3.7-2.5-5.3.5-1.3 4-3 5.3-2.5zm-.4-1.2c-.5.3-1.3 1-1.4 1.5-.6 1.5-2 4.8-1.1 6.5-.6-1.3-3-3.7-2.6-5.5.3-1.3 4-3 5-2.5zm-30.7 13.4c-.5 0-1.3.4-1.5.5-1 1-3 3.1-3 4.5 0-1-1.1-3.7-.1-4.6.6-.9 3.8-1 4.6-.4zm0 .5c.6 0 1.2.8 1.6 1.4.6 1.6 1.7 4.9 1.1 6.5.5-1.4 3-3.8 2.5-5.4-.5-1.2-4-3-5.2-2.5zm.3-1.1c.5.2 1.3.9 1.4 1.5.6 1.5 2 4.7 1.1 6.5.7-1.4 3-3.8 2.7-5.5-.4-1.4-4.2-3-5.2-2.5z" fill="#7eff00" stroke-width=".375" id="path29"/><path transform="matrix(.14843 0 0 .14858 -.4 .3)" d="M259.6 184.8a3 3 0 0 0-1.6 1c-.7 1-2.1 3.5-1.2 4.5-.7-1-3.5-2.6-3-3.7.5-.9 4.6-2.1 5.8-1.8zm-.1.2q1.1.2 1.6 1.6c.7 1.4 1.9 4.7 1.1 6.4.7-1.3 3-3.7 2.7-5.4-.5-1.3-4.1-3.1-5.4-2.6zm1.4-44a3 3 0 0 0-1.6 1c-.8 1-2.2 3.6-1.3 4.6-.6-1-3.5-2.7-3-3.8.5-.9 4.6-2.1 5.9-1.7zm-.1.2c.6.1 1.3.9 1.6 1.6.6 1.4 1.8 4.8 1.1 6.4.6-1.3 3-3.6 2.6-5.4-.5-1.2-4.1-3.1-5.3-2.6zm-30.3 12.6a3 3 0 0 1 1.7 1c.7 1 2 3.5 1.2 4.5.6-1 3.5-2.6 3-3.7-.5-.9-4.6-2.2-5.8-1.8zm.2.1a3 3 0 0 0-1.6 1.7c-.7 1.3-2 4.7-1.2 6.4-.6-1.3-3-3.7-2.6-5.4.5-1.3 4.1-3.2 5.4-2.7z" fill="#7eff00" stroke-width=".125" id="path30"/><path transform="matrix(.14843 0 0 .14858 -.4 .3)" d="M338.6 187.6q.5-2.7 1.8-4.6c0 .2 1 .5 1 .2q-1.2 2.1-1.6 4.1-.6.4-1 .4zm-1.2-43.8q.5-2.7 1.7-4.6c0 .2 1 .5 1 .2a20 20 0 0 0-1.6 4.2l-1 .3zm32.6 12.8q-.5-2.7-1.8-4.7c0 .3-1 .5-1 .3.8 1.2 1.4 2.9 1.6 4.1q.7.4 1 .4z" fill="#0f0" stroke-width=".375" id="path31"/><path transform="matrix(.14843 0 0 .14858 -.4 .3)" d="M339.4 185.3c-.5 0-1.3.4-1.5.5-1 1-3 3.2-3 4.5 0-1-1.1-3.7-.1-4.6.6-.9 3.8-1 4.6-.4zm0 .5c.6 0 1.2.8 1.6 1.4.6 1.6 1.7 4.9 1.1 6.5.5-1.4 3-3.7 2.5-5.4-.5-1.2-4-3-5.2-2.5zm.4-1q1 .4 1.3 1.4c.6 1.5 2 4.8 1.1 6.5.7-1.4 3-3.7 2.7-5.5-.4-1.4-4.1-3-5.1-2.5zm-1.7-43.2q-.9.1-1.5.5c-1 1-3 3-3 4.5 0-1-1-3.8 0-4.7.5-.8 3.8-1 4.5-.3zm0 .5q1 .2 1.7 1.3c.6 1.7 1.7 5 1 6.5.6-1.3 3-3.7 2.6-5.3-.5-1.3-4-3-5.3-2.5zm.4-1.2c.5.3 1.3 1 1.4 1.5.6 1.5 2 4.8 1.1 6.5.6-1.3 3-3.7 2.6-5.5-.4-1.3-4.1-3-5.1-2.5zm30.7 13.4c.5 0 1.3.4 1.5.5 1 1 3 3.1 3 4.5 0-1 1.1-3.7.1-4.6-.6-.9-3.8-1-4.6-.4zm0 .5c-.6 0-1.2.8-1.6 1.4-.6 1.6-1.8 4.9-1.1 6.5-.5-1.4-3-3.8-2.5-5.4.5-1.2 4-3 5.2-2.5zm-.4-1.1q-1 .4-1.3 1.5c-.7 1.5-2 4.7-1.2 6.5-.6-1.4-3-3.8-2.6-5.5.4-1.4 4.1-3 5.1-2.5z" fill="#7eff00" stroke-width=".375" id="path32"/><path transform="matrix(.14843 0 0 .14858 -.4 .3)" d="M339.8 184.8a3 3 0 0 1 1.6 1c.7 1 2.1 3.5 1.2 4.5.6-1 3.5-2.6 3-3.7-.5-.9-4.6-2.1-5.8-1.8zm0 .2c-.5 0-1.3.8-1.5 1.6-.7 1.4-2 4.7-1.2 6.4-.6-1.3-3-3.7-2.6-5.4.5-1.3 4.1-3.1 5.4-2.6zm-1.3-44a3 3 0 0 1 1.6 1c.8 1 2.1 3.6 1.3 4.6.6-1 3.5-2.7 3-3.8-.5-.9-4.6-2.1-5.9-1.7zm.1.2c-.6.1-1.3.9-1.6 1.6-.6 1.4-1.9 4.8-1.1 6.4-.6-1.3-3-3.6-2.6-5.4.5-1.2 4-3.1 5.3-2.6zm30.2 12.6a3 3 0 0 0-1.6 1c-.7 1-2.1 3.5-1.2 4.5-.7-1-3.5-2.6-3-3.7.5-.9 4.6-2.2 5.8-1.8zm0 .1c.5.2 1.3 1 1.5 1.7.7 1.3 1.9 4.7 1.2 6.4.6-1.3 3-3.7 2.6-5.4-.5-1.3-4.1-3.2-5.4-2.7z" fill="#7eff00" stroke-width=".125" id="path33"/><path transform="matrix(.14843 0 0 .14858 -.4 .3)" d="M284 251.8q.5-2.7 1.8-4.7c0 .3 1 .5 1 .3q-1.1 2-1.6 4.1l-1 .4zm-1.2-43.8q.5-2.7 1.8-4.7c0 .3 1 .5 1 .3-.8 1.2-1.4 2.9-1.6 4.1q-.6.4-1 .4zm32.6 12.7q-.5-2.6-1.7-4.6c0 .3-1 .5-1 .3.7 1.2 1.3 2.8 1.6 4l1 .5z" fill="#0f0" stroke-width=".375" id="path34"/><path transform="matrix(.14843 0 0 .14858 -.4 .3)" d="m284.8 249.5-1.5.5c-1 1-3 3.1-3 4.5 0-1-1-3.8 0-4.6.5-.9 3.8-1 4.5-.4zm0 .5q1 .2 1.7 1.4c.6 1.6 1.7 4.9 1 6.5.6-1.4 3-3.8 2.6-5.4-.5-1.3-4-3-5.3-2.5zm.4-1.1c.5.2 1.3.8 1.4 1.5.6 1.5 2 4.7 1.1 6.5.6-1.4 3-3.8 2.6-5.5-.3-1.4-4-3-5-2.5zm-1.6-43.2c-.5 0-1.3.4-1.5.5-1 1-3 3.2-3 4.5 0-1-1.1-3.7-.1-4.6.6-.9 3.8-1 4.6-.4zm0 .5c.6 0 1.2.8 1.6 1.4.6 1.6 1.8 4.9 1.1 6.5.5-1.4 3-3.7 2.5-5.4-.5-1.2-4-3-5.2-2.5zm.4-1.1q1 .4 1.3 1.5c.7 1.5 2 4.8 1.2 6.5.6-1.4 3-3.7 2.6-5.5-.4-1.4-4.1-3-5.1-2.5zm30.7 13.4 1.5.5c1 1 3 3.1 3 4.5 0-1 1-3.8 0-4.6-.5-1-3.8-1-4.5-.4zm0 .5q-1 .2-1.7 1.4c-.6 1.6-1.7 4.8-1 6.5-.6-1.4-3-3.8-2.6-5.4.5-1.3 4-3 5.3-2.5zm-.4-1.1c-.5.2-1.3.8-1.4 1.5-.6 1.5-2 4.7-1.1 6.5-.6-1.4-3-3.8-2.6-5.5.4-1.4 4-3 5-2.5z" fill="#7eff00" stroke-width=".375" id="path35"/><path transform="matrix(.14843 0 0 .14858 -.4 .3)" d="M285.2 249a3 3 0 0 1 1.6 1c.8 1 2.2 3.5 1.3 4.5.6-1 3.5-2.6 3-3.8-.5-.8-4.6-2-5.9-1.7zm.1.1c-.6.1-1.3.9-1.6 1.6-.6 1.4-1.9 4.8-1.1 6.4-.6-1.2-3-3.6-2.6-5.4.5-1.2 4-3 5.3-2.6zm-1.3-43.9a3 3 0 0 1 1.6 1c.7 1 2.1 3.5 1.2 4.5.7-1 3.5-2.6 3-3.7-.5-.9-4.6-2.2-5.8-1.8zm0 .1c-.5.2-1.3 1-1.5 1.7-.7 1.4-1.9 4.7-1.2 6.4-.6-1.3-3-3.7-2.6-5.4.5-1.3 4.1-3.2 5.4-2.7zm30.3 12.7a3 3 0 0 0-1.6 1c-.8 1-2.2 3.5-1.3 4.5-.6-1-3.5-2.6-3-3.8.5-.8 4.6-2 5.9-1.7zm-.1.1q1 .3 1.6 1.6c.6 1.4 1.9 4.8 1.1 6.4.6-1.2 3-3.6 2.6-5.4-.5-1.2-4-3-5.3-2.6z" fill="#7eff00" stroke-width=".125" id="path36"/></g><path d="M53.9 54.6c-1.8 2-2.6 1.3-4.4.8l-5.6-2c-1.7-.3-6.1-.7-8.8-.8-2.5 0-3.4-1-3.4-1.9h2.4c1.6.2 1.7.1 2-.4l.2-.4q.3 0 .3-.5c0-.6-.5-1.5-4.9-1.5l-3.4-.1 1.3-3.4c.4-1-1.4-1.2-1.4-1.2q-2.6 0-3.9-.2a16 16 0 0 0-5.3-.5 20 20 0 0 1-7.7-.8c.3 1.2 2.8 3 2.8 3l-3.9 1.7 1.1.3c3.3 1 5.3 1 7.7.9 1.9-.1 3 0 4.2.1l-.8 2.8c1.5 1.6 2.6 2.4 7.4 2.9l-1 1.2h.3c1.7 2.4 2.7 3.2 6.8 3.3s5.9 0 9 1.4c3.1 1.5 4.6 2 7 1.2 0 0 .1.1.6-1s.6-3.4 1-3.8c.6-.4 1.2-1.5 1.2-1.5z" fill="#ffd312" id="path37"/><path d="M65 49c.6.3 1.2.5 2.9 0s6.6-1.4 9.2-1.2c-1-.9-3.7-2.2-3.7-2.2l2.8-2.2-1.7-.2c-2.9-.9-5.7 0-8.1 1l-1.2.6-.6-2s-1-.8-3.3 0c-2.2.7-2.7 1.9-2.5 2.2l1.1 2.2q-1.4.7-3.5 1.3a23 23 0 0 0-8.5 4.4l1 2.3 2 .6.8.1c2-1.4 3.3-2 6.4-2.8q6.1-2 5.6-3.6l-.7-1.9s.9-.5 1.3-.3z" fill="#ffd312" id="path38"/><g fill="#fff" id="g41"><path d="m23.5 47 .5-1.6q0-.7 2.4-.4 2 .3 2.8-.1c.1-.8-1-.7-1-.7q-2.6 0-3.9-.2c-1.6-.4-2.9-.6-5.3-.5-2.2.2-4 .2-6.9-.6.6.7 2 1.7 2 1.7L11.3 46c3.3 1 5.3 1 7.7.9 2-.1 3.2 0 4.5.2m8.4 3.6h2q2 .3 2 0l-.9 2s-3.5 0-3.3-2" id="path39"/><path d="m54.6 54.3-.7 1c-1.3 1.8-3 1.3-4.9.8-1.8-.5-3.7-1.5-5.5-1.9s-6.2-.7-8.8-.8-3.5-1.3-3.4-2.1V51l.5-.8q.5-.5 2.4-.2H36c0-.7-.3-1.3-4.7-1.3s-5.4-.5-6.4-.9c-.5-.3-1.4-1-1.2-1.6l-1 3.2c1.7 1.7 2.5 2.6 7.6 3.1l-.9 1.3c1.7 2.4 2.7 3.2 6.8 3.2 4 .1 6 0 9 1.5 3.2 1.4 4.7 2 7.2 1.2" id="path40"/><path d="M24 45.8q.6.8 1.4 1.3c.6.2 1.3.5 3 .7l.9-2.6c-.4 1.1-1.7.8-3.3.6m38.7 2.4c.6.2 1.1.4 2.8-.1s5.8-1.4 8.4-1.2l-2.6-1.2 2-1.5-.4-.1c-3-.8-5.7.1-8.1 1.1-2.5 1-2.8.8-3 .5l-.7-1.3s0-.6.5-.8l.6-.2s-.6-.7-2.6 0-2.1 1.7-2.1 1.8l.8-.2c.4-.1 1.4-.7 1.7 0l.3.8q.5 1.8-5.6 3.5c-6.1 1.7-4.9 1.7-8.5 4.3l.6 1.6 1.9.6c2.5-1.9 3.7-2.4 7.1-3.5q6.1-1.8 5.6-3.5l-.7-1.8s.8-.7 1.2-.5z" id="path41"/></g><g fill="#0d2897" id="g42"><path d="M24.8 49.4q-.3.4.1.8h.2v-.4l.3.1v.3l.3-.3q.3-.4 0-.8-.5-.1-.9.3l-.3-.2q.6-.7 1.4-.3.6.5.1 1.2-.2.3-.6.5v.3l-.2-.1v-.2l-.5-.1q-.7-.6-.2-1.3zm2.5 0 .4.1-.3 1q-.1.4.2.5t.5-.4l.3-1h.3l-.3 1q-.1.8-1 .7-.6 0-.4-.8zm2.4 2-.4-.1.4-1.7h.4zm1.5 3.5-.3-.2.9-1.3-.3-.2.1-.3 1 .7-.2.2-.3-.2zm2.5-.4-.2.3q.3.2.5-.1.1-.3-.2-.3zh-.4l.3-.5.4.1q.6.1.4.7-.2.4-.6.3l.1.9-.4-.2-.1-.7-.4.6h-.3l.6-1.3zm2.1.6-.2.4h.5l-.1-.6zh-.3l.5-.7h.3l.2 1.9H36v-.5h-.7l-.2.4h-.4l.7-1.1zm2-.7h.3l.7 1.4.3-1.2h.3l-.4 1.8h-.2L38 55l-.3 1.2h-.4zm3.5.7L41 55l-.2.1c-.1.3.6.3.5.9q-.2.6-.8.5-.4 0-.5-.4l.3-.2q0 .3.3.3t.3-.2-.2-.3q-.4-.2-.3-.6l.7-.4.4.2zm1.3 1.7H42l.6-1.5-.4-.1.1-.3 1.1.2-.1.3H43zm1.7-1.5.3.2-.4 1q-.2.3.1.5.4.1.5-.3l.4-1 .3.1-.4 1q-.1.8-.9.5-.7-.2-.3-1zm2 2.5.4.2-.1.3-.8-.4.7-1.7.3.2zm1.5 1-.3-.2.6-1.7h.4zm1.6.4H49l.4-1.5H49v-.4l1.1.2v.3h-.4zm1.4-5.9h-.3v.3c0 .3.6-.2 1 .4q.1.5-.3.8h-.6v-.3h.5v-.3q0-.2-.4-.1-.3 0-.6-.3l.2-.7h.6zm.5-.8.4-.1.4.9q.1.4.6.3.2-.3 0-.6l-.5-1 .3-.1.6 1q.4.5-.3 1-.6.3-1-.4zm3-1h-.4l-.1.3c.1.3.7-.2 1 .4q.2.6-.3.8h-.6v-.4q.3.2.5.1v-.3q0-.3-.3-.1-.4 0-.6-.3a.5.5 0 0 1 .2-.8h.6zm1.9.7-.3.2-.6-1.4H55l-.2-.2 1-.4.2.3-.4.1zm1.2-.4-.3.1-.6-1.7.3-.2zm.1-2 .3-.1 1.3.9-.4-1.2.3-.1.7 1.8h-.3l-1.3-.8.4 1.1-.3.2z" id="path42"/></g><path d="M42 12.5c.3 1 2.4.9 2.9.9l2-.6h-.1c.6 1.6 2.8 2.4 4.6 2.4q2.6 0 3.8-1.6c-.7-.7-.8-1-.8-2 0-.7.7-1.3 1.3-1.3q1 .2 2 1 1 1.5 2.4 2.6c.8.7 1.8.7 2.5 1.2q1.5 1 2.2 2.5c.3.8-.3 1.7-.8 1.7s-1.3-.5-1.2-1c-1-.8-3.1.9-3.6 2.7-.7 2.4.3 5 1.5 6-.3 1-1.7 1.9-2.4 2.5a3 3 0 0 0 1 3l3.4.1c.6.8 1 2.4 1 3.3-.4 2.2-1 4-3 5.4q-1.5 1-3.2 1.6-.8-.9-1.6-1.5c-2 0-4.3 1-5 2.4-.2.7.6 1.4 1.5 2.2-2 1.4-4.2 2-6.4 3a7 7 0 0 0-2.4 2.1 7 7 0 0 0-2.7-2.4c-1.9-.8-4-1.3-5.5-2.7q1.3-.7 1.5-1.7c-1.1-1.5-2.5-3.1-4.4-3.6-.6.3-1.4 1.3-1.8 2.1-4.6-1-8.2-6-5.9-10q1 .5 2 .2c1.1-.7 2.5-1.7 2.6-3q-.2-2.1-2.2-3c.8-.6 1.6-2.6 1.7-4q-.2-2.1-1.4-3.9a4 4 0 0 0-1.6-1.2c-.2.3-1 1-1.6 1s-1.5-.5-1.5-1.1q0-.9.7-1.6 2.4-1.2 4.7-2.6c.8-.7 1.2-2 2.1-2.7l1-.6c1 3.8 2.3 4.2 4.2 4.9 2 .2 4.8-.6 6.5-2.7" fill="#c4c4c4" id="path43"/><path d="M41.5 12.2c-.2 1.8-3.2 2.9-4.9 3q-2.5-.4-4-2 .8-.5.8-1.7-.1-1-1-1.3l-1 .1c-.8 4 3.3 5.8 5.4 5.7 2 0 5.2-1.6 5-3.7z" fill="#ccc" id="path44"/><path d="m60 49 .2.4.5-.2.2.3-.6.2.2.5.6-.2.1.2-.9.4-.7-1.7.9-.3.1.2zm2.5.4-.4.1-.5-1.4-.3.2-.2-.3 1-.5.1.3-.3.1z" fill="#0d2897" id="path45"/><path d="M52.3 45.2h.1" id="path46"/><path d="M12 43c2.9.7 4.7.7 7 .6a16 16 0 0 1 5.3.4q1.2.3 3.8.2m-16.8 1.7c3.3 1 5.2 1 7.7.9 2-.1 3-.1 4.3.2m4.8-3.8s1.9.1 1.5 1.2-1.6.9-3.2.7c-4.1-.7-2 1.5-1 2s2 .8 6.3.8c4.4 0 4.8 1 4.8 1.6q.1.9-2.3.5-2.5-.5-2.6.6c0 .7.8 2 3.4 2 2.7.2 7.1.5 8.9.9q2.7.8 5.5 1.9c1.8.5 2.7 1.3 4.4-.8M28.1 44.2s1.1 0 1.1.7m2.4 5.8q.6-.2 2.2 0t2 0m.3-.7c0-1-.8-1.3-4.8-1.3-4.4 0-5.4-.5-6.4-.9-.5-.2-1.2-.8-1.2-1.4m.3-.5q.5-.4 2-.1 2.3.5 3.2-.3l.3-1m-6.9 5c1.7 1.7 2.5 2.5 7.6 3m-.6.9c-4.9-.5-5.8-1.3-7.3-3l1.7-5.2m7.8 4.8L29 54.6c1.8 2.4 2.9 3.2 7 3.3s5.8 0 9 1.4c3.1 1.5 4.5 2 7 1.2l.7-1.4c.2-1 1.6-3.7 2-4.8l-.4.8c-1.7 2.1-3.4 1.6-5.2 1-1.8-.5-3.8-1.5-5.5-1.9a67 67 0 0 0-8.9-.8c-2.6-.2-3.4-1.2-3.4-2V51m21.1 8.7c-2.4.7-3.8.4-7-1-3-1.5-5-1.4-9-1.5s-5.2-1-6.9-3.3m-6.3-6.2q-1.5-.3-4.1-.1c-2.5 0-4.4 0-7.7-.9l-1.1-.3 3.8-1.7s-2.4-1.8-2.7-3c3.3 1 5.2 1 7.7.8 2.4 0 3.7 0 5.3.5q1.2.3 3.8.2" fill="none" id="path47"/><path d="m29.3 45.4-.8 2.3m6.6 4.8 1.3-2.8m26.8-5.1L65 49c.5.3 1 .4 2.8 0s6.6-1.4 9.2-1.2c-.7-.9-3.7-2.1-3.7-2.1l2.7-2.4-1.6-.2c-2.9-.8-5.7.2-8.1 1.2s-2.7.8-3 .4c-.7-.4-.1-.9.7-1.3q1-.9-.1-1a6 6 0 0 0-5 1.9c-.6.6-.2 1.4 1.3.7.9-.3 1.4-.6 1.7 0q.5 1.7-5.6 3.5a21 21 0 0 0-8.5 4.4l1 2.2m10.6-9.8c0-1.1 3.2-2.8 4.6-2M62 45l1.6 4.5q.5 1.7-5.6 3.5a19 19 0 0 0-6.4 3m12-10.4c.2.4.6.6 3-.4 2.5-1 5.3-2 8.1-1.1h.3m-10.4 4c.6.3 1.1.5 2.8 0s5.8-1.3 8.4-1.1m-27.6 6.6c3.6-2.6 4.3-3 8.4-4.3s6-2.4 5.6-3.6m-11.6 10c2.5-1.8 3.7-2.3 7.1-3.4q6.1-1.8 5.6-3.5M58.8 45l1 2.1m4.8-4.3.5 1.9m-.2-1c-.8.4-1.6.9-1.2 1.2m-4.4 1q.3.3 1.3-.2 1.3-.5 1.3 0m.8 1.2q.6-.4 1.3-.4m-1 1.1a2 2 0 0 1 1.3-.3" fill="none" id="path48"/><g fill="#fff" id="g49"><path d="M59.2 45.8q.5.5 1.7-.2.9-.2 1 0c-.1.6-2 1.6-2 1.5zm5.9-1.1-.7.2c-.4 0-.8.2-.8-.3.3-.4 1.2-.8 1.2-.8zM25.2 15.5l1.5-.8c1.4-.9 1.6-.9 2.3-1.8 1-1.2.4-.9 1.3-1.8.1 1.5 2.9 6 5.8 6 3.7 0 5.9-2.3 6.6-3.7h2.6C46 15.5 49 17 51.5 17c2.6 0 6.1-1.8 5.8-6 3.9 5 3.6 2.4 6.7 5.4-5.6-.5-9.6 7-5 12.4-.7.8-.5 2 0 2l1.8 2c4.6 4.3-1.4 7.9-4.4 8.7l-4.6 3.2h-1.3c-1.4 1.7-5 1.7-6.8 3.8-2.2-2.6-5-1.7-6.2-4h-.8l-5.8-3c-4-1.8-5.9-3-4.4-8.1 3.6-2.4 3.4-3.7 2.6-5.2 2.9-4.4 3-10.6-4.4-12.6z" id="path49"/></g><g fill="#ffd312" id="g62"><path d="M25.6 33q.6.2 1.1 0c-1.7 4 1 7 4.6 8.8l-.5.8c-3.6-1.7-7-5.1-5.2-9.5m11.8 11.7h-.8v1c1.6 2 5.9 2 7 4.3 1.9-2.4 5.8-2.7 8.1-4.6V45h-1.2c-1.5 1.7-5.1 1.8-6.8 3.8-2.3-2.5-5-1.7-6.3-4m23.2-12.2h1.2c2.2 5-.5 7.7-4.7 10l-.8-.8c3-.8 7.2-4.3 4.3-9.2m-.8-4.4-.9.7c-4.5-5.3-.8-13 5-12.2.6 0 1 1.3.8 1.2-6.8-2.8-8 7.4-5 10.3M46 12.2q0 .6.6.6.3-.3.2-.8 0-.7-.7-.9-.7 0-.8 1v1.3c.7 2.3 3.7 3.8 6.1 3.8 2.7 0 6.2-1.7 5.9-6l-.6-.5c.5 3.4-2.9 5.5-5.3 5.5-2-.1-5.7-1.6-5.4-4m-3.2-.5-.2 1.8c-.7 1.4-1.7 3.4-5.9 3.5-4.6.2-6.8-3.4-6.2-6.2l.9-.5c-.8 2.8 2 5.7 5.4 5.7 2.5 0 5.3-2 5-3.7-1 0-1-1.5.3-1.5q.9.2.7 1m-18.5 4C32 17.4 32 24.4 29 28.5l-.8-.9c3-3.5 1.6-9.9-4.7-11.3zm30.9-2.2q.7-.7.7-1.3c0-.3 0-1.1-.3-1.1q-.5.2-.5 1c0 .3.5.8 0 1.5m7.6 4.7c.6.2 1-.2 1.3 0q.3.3.2.6l-.6.2q-.4-.2-.9-.8m-30.2-5a3 3 0 0 1-.6-1.5c0-.4.2-1 .5-.8q.5.2.3 1zM26 17.8q-1-.6-1.8-.5-.6.1-.7.8.3.6 1 .4c.6-.1.8-.5 1.5-.7" id="path50"/><g stroke="#000" id="g61"><path transform="matrix(.14843 0 0 .14858 -.4 .3)" d="M299.6 73.8a7 7 0 0 1 7 7.1c0 3.9-3.2 7.1-7 7.1s-7.1-3.2-7.1-7a7 7 0 0 1 7-7.2z" stroke-width="1.403" id="path51"/><path transform="matrix(.14843 0 0 .14858 -.4 .3)" d="M192.4 224a6.7 6.7 0 0 1-7-6.6 6.9 6.9 0 1 1 13.8 0c0 3.7-3 6.6-6.9 6.6z" stroke-width="1.151" id="path52"/><path transform="matrix(.14843 0 0 .14858 -.4 .3)" d="M194.1 191a8 8 0 0 1 8 8 8 8 0 0 1-8 8.1 8 8 0 0 1 0-16.1zM179 171.8a8 8 0 0 1 7.9 8 8 8 0 0 1-7.9 8 8 8 0 0 1-8-8 8 8 0 0 1 8-8z" stroke-width="1.403" id="path53"/><path d="M-1665-523.7a2.6 2.6 0 0 0-2.6 2.5 2.5 2.5 0 0 0 2.5 2.5c1.4 0 2.5-1.2 2.5-2.5a2.4 2.4 0 0 0-2.5-2.5z" stroke-width=".371" transform="matrix(.561 0 0 .56156 996 320.5)" id="path54"/><path d="M-1669-511.2q1.6-.2 1.8-1.9-.1-1.6-1.8-1.8-1.6.1-1.8 1.8.1 1.7 1.8 1.9z" stroke-width=".301" transform="matrix(.561 0 0 .56156 996 320.5)" id="path55"/><path d="M-1669.2-519.6a2.3 2.3 0 0 1 2.3 2.2 2.3 2.3 0 0 1-2.3 2.3q-2.1-.2-2.3-2.3.2-2 2.3-2.2z" stroke-width=".371" transform="matrix(.561 0 0 .56156 996 320.5)" id="path56"/><path transform="matrix(.14843 0 0 .14858 -.4 .3)" d="M371.2 269.1a6.4 6.4 0 0 0-6.4 6.4 6.4 6.4 0 1 0 6.4-6.4z" stroke-width="1.403" id="path57"/><path transform="matrix(.14843 0 0 .14858 -.4 .3)" d="M351.8 286c3.7 0 6.7 3 6.7 6.7s-3 6.8-6.7 6.8a6.8 6.8 0 0 1 0-13.6z" stroke-width="1.13" id="path58"/><g stroke-width="1.403" id="g60"><path transform="matrix(.14843 0 0 .14858 -.4 .3)" d="M361 277.4a7 7 0 0 1 6.8 6.9 7 7 0 0 1-6.8 6.8 7 7 0 0 1-6.9-6.8 7 7 0 0 1 6.9-7zm-136.9-9a7 7 0 0 1 0 14.1 7 7 0 0 1-7.1-7.1 7 7 0 0 1 7.1-7zm13.6 7.1a8 8 0 0 0 0 16.1 8 8 0 1 0 0-16z" id="path59"/><path transform="matrix(.14843 0 0 .14858 -.4 .3)" d="M250.9 298.8c-4 0-7.3-3.3-7.3-7.2s3.3-7.2 7.3-7.2 7.3 3.2 7.3 7.2-3.3 7.2-7.3 7.2z" id="path60"/></g></g></g><g id="g63"><path d="M26.2 26.9h-.5v.2l-.1.1-.2.1h-.3l-.2.3-.2.2-.2.2.1.1.6.3.5.1.5.2h.5l.2-.1h.2l.1.4-.2.2h-.9l-.8-.2v.1l-.2.1-.4.1-.3.1h-.1v.3l-.1.2-.3.4-.2.5h.3q.5 0 .8.3h.8l.1-.3v.1-.1h.1l.1-.2h.2l.2-.3.3-.2.2-.1h.2l.1.2v.1l-.3.3h-.2l-.1.2-.2.2-.3.2-.2.2v1l-.2.3.1.1h.1l.1-.1h.1l.2.1v.2l.1.2.2-.2h.3l.4-.4v-.3l.2-.1h.7V32h.3v-.1l.2-.3.2-.3v-.1h-.3q-1-.1-1.3-1.1a1 1 0 0 1 .2-1q.3-.4.6-.4h1l.2-.3.2-.2-.2-.1v-.6H29v-.1h-.2l-.3-.2h-.8V27h-.2v.2l-.1.2.2.6v.3h-.3l-.2-.2-.7-1.1zm1.4 0v.2z" fill="#129612" id="path62"/><path d="M26.2 26.7q-.2.2-.2 0h-.3l-.2.2q0 .4-.4.3H25v.1q0 .2-.3.4l-.4.4.4.2h.3l.8.4.4.1.2.2.1-.1q.4-.2.6-.1v.3h-.8L26 29h-.2l-.4-.2q-.5 0-.3.1v.1l-.3.1q-.7.1-.7.4l.2-.1h.3l.3-.2h.3q.2 0 0-.2-.1-.2.4 0h.4l.2.1q.7.3 1 0l-.2-.4h-.6q-.2.2-.3 0h-.3l-.6-.3-.2-.1-.6-.1q-.2-.1 0-.2l.2-.1.2-.2h.2l.1-.2h.1q.3 0 .5-.4 0-.3.3 0h.3V27l.3.4v.2l.1.2.1.1.1.1.1.2q.3.2 0 0-.2 0-.7-.6l-.5-.4.3.4q.4.4 0 .3h-1.3.4l.6.1h.3l-.3.2q-.4.1 0 .2h.3l.1-.2h.4l.1.1.4.2.4.2h.1v-.1h.1l-.1-.5-.3-.7.2-.2.2.2h.1q0-.2.1 0h1v.2l-.3.3-.2.2v-.2l-.1-.3q-.1-.3-.2 0h-.4l.2.3q.7.6.4.6H28l-.2.1-.8.8q-.4.2-.7 0l-.6-.2h-.2q0 .2.2.2.5 0 .5.2h-.8q-.8-.1-.8 0h.4l.2.1v.1l-.2.1h-.2l-.2.1-.2.2-.4.3.4-.1.2-.1.6-.3h.1l.2-.1v.1l-.5.3-.2.2q0 .2.1.1l.4-.2q.3-.2.4-.5l.2-.1h.4l-.4.5q0 .2.2 0l.2-.1-.1.2q-.2.3-.2.1l-.3.2q-.1.6-.5.4h-.5l-.1-.1h-.2v-.2h-.2q-.6.2-.8 0h.1l.1-.2.1-.1.1-.1.2-.3V30q-.1-.1.2-.3.3 0 .1-.1h-.2l-.1.2-.2.1-.5 1 .6.1.5.1.9.3.5-.5.2-.2h.2q.1-.3.5-.5h.1l-.2.2-.2.2-.2.2q-.2 0-.5.4l-.2.2h.2l-.1.1-.2.4h.1v.5l-.1.3q-.3.2 0 .2h.1q0 .3.2 0t.3 0l.1.5.3-.1q0-.3.2 0l.2-.1.3-.3.1-.3.2-.3v.1q0 .3.3 0l.3-.1q.2 0 .2-.2.3 0 .5-.5l.1-.2.1-.2h-.2.1q0-.2-.3-.2H28l-.2-.1-.1-.1q-.6-.7-.4-1.4.5-.8 1.4-.6h.3l.5-.7h-.1l-.1-.2v-.7l-.2.1q0 .3-.1 0l-.3-.1-.3-.1q0-.2-.1 0H28l-.4-.1q0-.2-.2 0h-.1l-.2.4q0 .6.3.8 0 .2 0 0-.7-.3-.9-1.1l-.2-.3zm3 1v.2q-.3.2 0 .3h.2l-.3.2q-.2.3-.4.2v-.3zm-2.3 2h.2v.2q0 .2-.2 0l-.2.2-.2.1v-.4h.2v-.1zm.3.7v.2q.3.1 0 .1l-.6.3h.4l.1-.1c.1 0-.4.8-.7 1v.3l.4-.3v-.1q.1-.2.1 0h.1v-.1l.3-.6.1-.2h.2l.2.1.2.1.1.1-.3.3q-.2.2-.2 0l-.2.1-.1.2-.3.2h-.2q0 .3-.3.3l-.2.1-.3.2h-.3v-.1l.1-.2.1-.3v-.2q-.2 0 0-.2l.2-.1v-.3h-.2l.2-.1.2-.1.5-.3.2-.2zm1.2.8q.4 0 .3.2l-.2.5-.1-.1q-.2-.4-.4 0l-.1.4h-.2q-.2-.3-.5.3l-.3.4q0 .2-.1 0l-.4.2-.1-.2v-.2h.2l.1-.2.2-.2h.1l.4-.2.2-.2.6-.5z" fill="#013818" id="path63"/></g><g id="g66"><path d="M33.3 41h-.1v.1h-.3l.1.1h-.5l-.8.1-.4.3-.5.3-.3.1-.1.2v.2l.1.1h.1v.1l-.2.2v.2h.3v.2l.1.5v.4h.7l.1-.1h.1v.1h.2-.1v.1l.2.1h.1v1l.4-.2.4-.4h.2q-.1 0 0 0V46l.1.1h.2v.1l.2.4.3.5V47h.1v.1h.2l.2.2h.1l.2-.3.1-.5.2-.4v-.2h.1l.2.2v.2h.2V46h.1l.3.3.2.3v-.1h.3l.1.1.3.2h.1v-1.1l-.1-.2-.1-.2v-.8l-.2-.6v-.1h-.2v-.2h-.1l-.3-.1h-.2l-.2-.1h-.8a1 1 0 0 1-.8-.4l-.2-.2v.1-.8l.2-.3v-.4l-.3-.4zm3 2.7" fill="#129612" id="path64"/><path d="M34.3 47.3 34 47l-.4-.4-.2-.5q0-.1-.2 0h-.1v-.9l-.1-.4v-.2q0-.2-.2 0-.2.5-.7.6H32v-.5l-.1-.5-.2-.2q0-.2-.1 0h-.8v-1h-.5l.1-.3v-.4l-.1-.2 1.1-.7.3-.2q.1-.2 1 0l.2-.1V41h.2q0-.2.2-.2.4 0 .6.6.2.2 0 .3v.2q-.3.6 0 1 .1.3.4.5h.8l.2-.1h.3l.4.2.3.1q0 .2.1.1l.2.3.1.7q.1.4 0 .4l.1.4.2.3V47l-.6-.3H36l-.2-.4-.2-.1v-.4l.2.2.3.5v-.1q0-.3.4.1l.3.3V46l-.1-.4-.2-.7v-.6l-.2-.2-.1.1V44q.1-.3-.4-.4l-.3-.1v.1l.2.4.3.5.4.3h-.3q-.1 0 0 0l.1.4.3.6q.3.5 0 .2l-.1-.1v.1q0 .2-.2 0v-.4l-.3-.4-.1-.2v.3l-.1.2-.2.1v-1.4l-.2-.3-.2-.3h-.4l-.4.1v.8q.1-.3.2-.2v.1l-.1.1v.6q.2.3 0 0l-.2-.2v.8l.3.3v.3l-.1-.1-.2-.2v.2q0 .4-.1 0h-.2V45l-.1.2-.2.1h-.3l.2-.3q.5-.7.5-1v-.3q.2-.2-.1-.4l-.3-.3v-.6l-.1-.3h-.2q-1 0-1 .2l-.2.2-.2.4v-.4l-.4.3v.1l-.2.2q-.2.3-.2.1l.1-.4.2-.2.2-.3h-.2q-.4-.1-.4-.3h1.1l.3-.1h.1q0-.1.1 0h.5l.6-.1v-.3l-.2-.2H33q0 .2-.2.1h-.5l-.4-.1q0 .3-.2.3-.5 0-1 .4h-.2v.2q.3.3.1.4v.2q-.2 0 0 .1h.2V44h.5l.4-.5-.1-.2.4-.3.1-.1c.1-.3.8-.4 1-.3q.3.4-.4.4h-.2v.2h-.4v.2l-.1.1v.1q-.2 0-.2.3l.1.2.1.1v.8h.2q.2 0 .5-.5l.5-.5q.1 0 0 .2l-.1.3q-.1.1 0 .2V46h.2q0-.3.2 0v.3l.1.1.2.5h.2l.1.1zq0 .3.2-.1t.2-.9l.1-.2.1-.4v-.2l-.1-.4q-.3-.5 0-.6t.3.9l.1.7v.2l.2.1v.1l-.3-.4v-.2l-.2.1v.6l-.5 1z" fill="#003718" id="path65"/><path d="m403.7-48.3-.8 6.2" fill="none" stroke="#000" transform="matrix(.04808 0 0 .04813 16.1 48.4)" id="path66"/></g><g fill="none" stroke="#000" id="g70"><path transform="matrix(.14843 0 0 .14858 -.4 .3)" d="M187.5 202.4s5.5 4.3 9.8 0c4.4-4.4 2.8-8.2 2.8-8.2" stroke-width="1.106" id="path67"/><path transform="matrix(.14843 0 0 .14858 -.4 .3)" d="M179.2 178.3s3.5-1 4.3-4.5M232 284.4c1.7 6.8 10.2 5.8 11.2 1m-3.7-1.1s1.5-2-.2-3.7m16 11.7s-2.8 3-6.2 3.2m107-12.2s0 7.9 7.7 4.7m-3-4.2s5 1.8 2.3-1.3" id="path68"/><g stroke-width=".265" id="g69"><path d="M-1670.8-517s1 2 3.3 1m-1.4-3 .6-.4m-1.8 6.9s1 1.4 2.4-.1" transform="matrix(.561 0 0 .56156 996 320.5)" id="path69"/></g></g><g id="g265"><g stroke="#003718" id="g75"><g stroke-width=".404" id="g74"><path d="M-386.7-354.6s1.5-1 .5-2.7-.2-2.9.2-3.4 1.1-1.8 1-2.6c-.2-.7 1.5.3 1.3 1.5s-.5 1.4.2 2q.9 1.2.9 1.6c0 .2.8.5 1.1-1.2.4-1.8 1-.5 1.8-.3.7.3 2.5.7 3 .6s.9 1.6 2 2c0 0-2-.5-3.3.7s-1 .2-2 .1q-1.2 0-1.3.7c0 .4-.1 1.1.5 1.3s2.8.5 3.2.2-2.8 2-4 1.7c-.7-.2-2-1.2-2.9-1.7-.4-.2-1.4.2-1.7.4" fill="#129612" fill-rule="evenodd" transform="matrix(-.24696 -.05915 -.028 .28936 -70.8 110.8)" id="path70"/><g fill="none" id="g73"><path d="M-386.3-354.1c.8-.4 1.1-1.8 1.3-3.2s-.4-2 .2-3.5c.4-1.3.7-1.8-.2-2.8" transform="matrix(-.24696 -.05915 -.028 .28936 -70.8 110.8)" id="path71"/><path d="M-385.6-355s2.1-2.5 3.3-2.2c1.2.4 1.4-.5 1.5-1 0-.4.3-.8 2-.4q1 .1 3.6 1.3" transform="matrix(-.24696 -.05915 -.028 .28936 -70.8 110.8)" id="path72"/><path d="M-385.5-354.9c2-1.2 2.6.5 3.6 1.1s3.4 0 3.4 0" transform="matrix(-.24696 -.05915 -.028 .28936 -70.8 110.8)" id="path73"/></g></g><path d="M-396.4-335.4s-2 .9-2 0c-.1-1 .8-1.8.8-2.6 0-.7 0-2.7-.6-2s-1 .7-.9 1.3c.1.5-1.2-2.7-1.2-3.4s-1-.2-1 1.4.4 2.9.2 3c-.2.3-.9.8-1.2-.3s-2.2-2.5-2.5-1.6c-.3 1-1.4.4-1.7.8s.5.8 0 1.3-1.2 0-.9 1-.4.9-.4 1.4 2 1.1 3.9 0 1.9.5 1.4.6-1.9.6-1.9 1.5-.2 1.5 1.7.8c1.8-.8 2-.3 3.8-2 .2-.4 1-.1 1 .4s1-1.9 1-1.9zm1.7-22.2s-.6-.6-.4-1.1c.3-.5 2-1.2 1.9-1.6a4 4 0 0 0-.6-1.8c-.4-.6-.1-2 .4-2.3s-1.7.2-1.9 1.9-1.3 1.2-1.5.7.4-2.2-.5-2.3q-1-.2-1.2.4c-.2.4-1-1-1.4-.6s-.9.6-.7 1.6q-1.7-.2-1.5.8c0 .8.4.6.5 1q.2.6 0 1.1 0 .7 1.2.1 1-.7 1.4.2c0 .6-.2.7-1 1.5s-1 1-.5 1.3 1.2.9 2.4-.4 1.8-1.3 2-1l.4.9" fill="#129612" fill-rule="evenodd" stroke-width=".378" transform="matrix(-.2885 0 0 .28879 -77 123.3)" id="path74"/></g><g transform="rotate(170 4.2 27)scale(.06607 -.06612)" fill="#b400b4" fill-rule="evenodd" stroke="#531553" stroke-width="1.65" id="g89"><circle cx="-448.064" cy="-368.486" r="4.521" id="circle75"/><circle cx="-446.055" cy="-373.21" r="4.521" id="circle76"/><circle cx="-452.617" cy="-378.161" r="4.521" id="circle77"/><circle cx="-442.171" cy="-380.843" r="4.521" id="circle78"/><circle cx="-447.796" cy="-383.12" r="4.521" id="circle79"/><circle cx="-440.163" cy="-389.146" r="4.521" id="circle80"/><circle cx="-459.179" cy="-384.325" r="4.521" id="circle81"/><circle cx="-454.625" cy="-387.941" r="4.521" id="circle82"/><circle cx="-447.93" cy="-392.628" r="4.521" id="circle83"/><circle cx="-440.564" cy="-397.315" r="4.521" id="circle84"/><circle cx="-456.232" cy="-402.404" r="4.521" id="circle85"/><circle cx="-462.392" cy="-397.449" r="4.521" id="circle86"/><circle cx="-463.464" cy="-390.485" r="4.521" id="circle87"/><circle cx="-455.161" cy="-395.574" r="4.521" id="circle88"/><circle cx="-448.599" cy="-401.466" r="4.521" id="circle89"/></g><path d="M-383.6-346c0-1.8-2.3-2.9-2.3-2.9s.1-1 .3-1a10 10 0 0 1 3 3" fill="#129612" fill-rule="evenodd" stroke="#003718" stroke-width=".378" transform="matrix(-.2885 0 0 .28879 -77 123.3)" id="path89"/><g transform="rotate(170 1.7 27.8)scale(.06607 -.06612)" fill="#b400b4" fill-rule="evenodd" stroke="#531553" stroke-width="1.65" id="g104"><circle cx="-448.064" cy="-368.486" r="4.521" id="circle90"/><circle cx="-446.055" cy="-373.21" r="4.521" id="circle91"/><circle cx="-452.617" cy="-378.161" r="4.521" id="circle92"/><circle cx="-442.171" cy="-380.843" r="4.521" id="circle93"/><circle cx="-447.796" cy="-383.12" r="4.521" id="circle94"/><circle cx="-440.163" cy="-389.146" r="4.521" id="circle95"/><circle cx="-459.179" cy="-384.325" r="4.521" id="circle96"/><circle cx="-454.625" cy="-387.941" r="4.521" id="circle97"/><circle cx="-447.93" cy="-392.628" r="4.521" id="circle98"/><circle cx="-440.564" cy="-397.315" r="4.521" id="circle99"/><circle cx="-456.232" cy="-402.404" r="4.521" id="circle100"/><circle cx="-462.392" cy="-397.449" r="4.521" id="circle101"/><circle cx="-463.464" cy="-390.485" r="4.521" id="circle102"/><circle cx="-455.161" cy="-395.574" r="4.521" id="circle103"/><circle cx="-448.599" cy="-401.466" r="4.521" id="circle104"/></g><path d="M-397.7-327.1c-.4-1.9 1.2-2.7 1.2-2.7s-.4-1-.6-.8c-.2 0-1.6 1.4-2 3.2" fill="#129612" fill-rule="evenodd" stroke="#003718" stroke-width=".378" transform="matrix(-.2885 0 0 .28879 -77 123.3)" id="path104"/><g transform="rotate(10 -315.6 393.7)scale(.06607 .06612)" fill="#b400b4" fill-rule="evenodd" stroke="#531553" stroke-width="1.65" id="g119"><circle cx="-448.064" cy="-368.486" r="4.521" id="circle105"/><circle cx="-446.055" cy="-373.21" r="4.521" id="circle106"/><circle cx="-452.617" cy="-378.161" r="4.521" id="circle107"/><circle cx="-442.171" cy="-380.843" r="4.521" id="circle108"/><circle cx="-447.796" cy="-383.12" r="4.521" id="circle109"/><circle cx="-440.163" cy="-389.146" r="4.521" id="circle110"/><circle cx="-459.179" cy="-384.325" r="4.521" id="circle111"/><circle cx="-454.625" cy="-387.941" r="4.521" id="circle112"/><circle cx="-447.93" cy="-392.628" r="4.521" id="circle113"/><circle cx="-440.564" cy="-397.315" r="4.521" id="circle114"/><circle cx="-456.232" cy="-402.404" r="4.521" id="circle115"/><circle cx="-462.392" cy="-397.449" r="4.521" id="circle116"/><circle cx="-463.464" cy="-390.485" r="4.521" id="circle117"/><circle cx="-455.161" cy="-395.574" r="4.521" id="circle118"/><circle cx="-448.599" cy="-401.466" r="4.521" id="circle119"/></g><g fill="#961e1d" fill-rule="evenodd" stroke-width="1.429" id="g121"><path transform="matrix(-.07633 0 0 .0764 -77 123.3)" d="m-1481.2-1353.8-4.3.5c-14.6 2.7-18.7 13.2-18.2 19l.5 1.5 2.1-1.4s-1.4-8.1 7.8-13.2a21 21 0 0 1 13.3-2.1v-4.2zm5.1.5v4.7a20 20 0 0 1 13.4 25.5c-1.6 7-8.5 15.3-12.4 20s-19.4 21.3-24.1 29c-4.7 7.8-4 11.7-3.7 14.7a26 26 0 0 0 8.2 17.4c4 3.6 8.7 7.2 13 11v-8.5l-3.9-2.9q-4.4-3.1-6.5-6.8a32 32 0 0 1-4.4-13.8 17 17 0 0 1 1-6.3c2.3-5.9 7.5-11.5 12.7-17.2 9.2-10 21-22.1 25.3-36.6 3.8-12.8-3-21.2-5.3-23.5a28 28 0 0 0-13.3-6.7z" stroke="#003718" id="path119"/><path transform="matrix(-.07633 0 0 .0764 -77 123.3)" d="M-1477.5-1365.5c-2.3-.4-2.3 5.6-2.3 5.6l-1 63.3 4.5-5.2.1-23.1s1-40.3-1.3-40.6zm1.2 72-4.7 5-.8 61.1c-.4 27.6-5.4 42-5.4 42l13.3-2c-3.6-4-2.6-17-2.6-17z" stroke="#000" id="path120"/><path transform="matrix(-.07633 0 0 .0764 -77 123.3)" d="M-1476.4-1235v9.5l1.9 2.5a47 47 0 0 1 4.9 32.5s-1.7 3.4-2.4 3.9 3 1.1 4.3-.5c1.4-1.7-.6 2.6.5 3.5s9 1.1 10-3c1-4.2 3.5-2.2 3.5-2.2-.6-1.2-7.3-14.2-9.6-24.7-1.6-7.4-6.5-15-13.1-21.4z" stroke="#003718" id="path121"/></g><g fill="none" stroke="#003718" id="g125"><g stroke-width=".378" id="g124"><path d="M-393.8-364s-.5.8-.6 1.3v1c.3.8-.7 2-1.7 2.5-.2.3.2 0-.2.1l-2.2.8c-.7.4-1 1.5-2.2 1.3" transform="matrix(-.2885 0 0 .28879 -77 123.3)" id="path122"/><path d="M-395.3-357.4c-.1-.8-2.7-5.4-5.4-5.3" transform="matrix(-.2885 0 0 .28879 -77 123.3)" id="path123"/><path d="M-397.2-364.1c-.8 0-1 2.4-.9 2.9 0 0-1.3-.4-2.4.3l-1 1" transform="matrix(-.2885 0 0 .28879 -77 123.3)" id="path124"/></g><path d="M-399.6-361.4s-1.5-.8-2.4 0" stroke-width=".387" transform="matrix(-.2885 0 0 .28879 -77 123.3)" id="path125"/></g><g stroke="#003718" stroke-width=".378" id="g131"><path d="M-386-355.1s.8-.5-.2-2.2-.2-2.9.2-3.4 1.1-1.8 1-2.6c-.2-.7 1.5.3 1.3 1.5s-.5 1.4.2 2q.9 1.2.9 1.6c0 .2.8.5 1.1-1.2.4-1.8 1-.5 1.8-.3.7.3 2.5.7 3 .6s.9 1.6 2 2c0 0-2-.5-3.3.7s-1 .2-2 .1q-1.2 0-1.3.7c0 .4-.1 1.1.5 1.3s1.5.3 1.9 0-1.5 2.2-2.6 2c-1.2-.4-3.2-2.5-4-1.8" fill="#129612" fill-rule="evenodd" transform="matrix(-.2885 0 0 .28879 -77 123.3)" id="path126"/><g fill="none" id="g130"><path d="M-385.6-361.2s-.3 1.7.4 2.4q.9 1.1.7 1" transform="matrix(-.2885 0 0 .28879 -77 123.3)" id="path127"/><path d="M-384-360.9c-.3 1.2-.4 5.4-1.9 6.3" transform="matrix(-.2885 0 0 .28879 -77 123.3)" id="path128"/><path d="M-385.6-355s2.1-2.5 3.3-2.2c1.2.4 1.4-.5 1.5-1 0-.4.3-.8 2-.4q1 .1 3.6 1.3" transform="matrix(-.2885 0 0 .28879 -77 123.3)" id="path129"/><path d="M-385.5-354.9c2-1.2 2.6.5 3.6 1.1s2.9-.2 2.9-.2" transform="matrix(-.2885 0 0 .28879 -77 123.3)" id="path130"/></g></g><g fill="none" stroke="#003718" stroke-width=".378" id="g133"><path d="M-407.6-335.6s1.8-1.1 3.9-1.2c0 0 .7-2.4-2-2.3" transform="matrix(-.2885 0 0 .28879 -77 123.3)" id="path131"/><path d="M-406.6-338.5s1 1.4 4.6 2c2 .4 3.6 2.2 4.2 1.8m-2.7-7.8s-.8 1 .7 6.7" transform="matrix(-.2885 0 0 .28879 -77 123.3)" id="path132"/><path d="M-404.2-332s.8-1.7 2.2-1.8 2.2-1.9 2.2-1.9m1.8-4.5s-.4 3.7-1.8 4.4" transform="matrix(-.2885 0 0 .28879 -77 123.3)" id="path133"/></g><path d="M-404.2-312.8s4 0 5.7.9c1.4.6.8-1 4.8-.2 2-1.2 5.6-.3 7 0 1.8-.4 2-.3 5.4.2 1.7-.3 5-.6 6.3-.1 0 0-3.7-1.5-4.7-1.5s-2.8-1-4.5-.6c-1.6-.8-7.9-1.3-9.4 0-1.9-.3-4.3-.5-5.4 1 0 0-2.1-.9-5.2.3z" fill="#129612" fill-rule="evenodd" stroke="#003718" stroke-width=".378" transform="matrix(-.2885 0 0 .28879 -77 123.3)" id="path134"/><g id="g199"><g stroke="#003718" id="g140"><g stroke-width=".404" id="g139"><path d="M-386.7-354.6s1.5-1 .5-2.7-.2-2.9.2-3.4 1.1-1.8 1-2.6c-.2-.7 1.5.3 1.3 1.5s-.5 1.4.2 2q.9 1.2.9 1.6c0 .2.8.5 1.1-1.2.4-1.8 1-.5 1.8-.3.7.3 2.5.7 3 .6s.9 1.6 2 2c0 0-2-.5-3.3.7s-1 .2-2 .1q-1.2 0-1.3.7c0 .4-.1 1.1.5 1.3s2.8.5 3.2.2-2.8 2-4 1.7c-.7-.2-2-1.2-2.9-1.7-.4-.2-1.4.2-1.7.4" fill="#129612" fill-rule="evenodd" transform="matrix(.24696 -.05915 .028 .28936 150.2 120)" id="path135"/><g fill="none" id="g138"><path d="M-386.3-354.1c.8-.4 1.1-1.8 1.3-3.2s-.4-2 .2-3.5c.4-1.3.7-1.8-.2-2.8" transform="matrix(.24696 -.05915 .028 .28936 150.2 120)" id="path136"/><path d="M-385.6-355s2.1-2.5 3.3-2.2c1.2.4 1.4-.5 1.5-1 0-.4.3-.8 2-.4q1 .1 3.6 1.3" transform="matrix(.24696 -.05915 .028 .28936 150.2 120)" id="path137"/><path d="M-385.5-354.9c2-1.2 2.6.5 3.6 1.1s3.4 0 3.4 0" transform="matrix(.24696 -.05915 .028 .28936 150.2 120)" id="path138"/></g></g><path d="M-396.4-335.4s-2 .9-2 0c-.1-1 .8-1.8.8-2.6 0-.7 0-2.7-.6-2s-1 .7-.9 1.3c.1.5-1.2-2.7-1.2-3.4s-1-.2-1 1.4.4 2.9.2 3c-.2.3-.9.8-1.2-.3s-2.2-2.5-2.5-1.6c-.3 1-1.4.4-1.7.8s.5.8 0 1.3-1.2 0-.9 1-.4.9-.4 1.4 2 1.1 3.9 0 1.9.5 1.4.6-1.9.6-1.9 1.5-.2 1.5 1.7.8c1.8-.8 2-.3 3.8-2 .2-.4 1-.1 1 .4s1-1.9 1-1.9zm1.7-22.2s-.6-.6-.4-1.1c.3-.5 2-1.2 1.9-1.6a4 4 0 0 0-.6-1.8c-.4-.6-.1-2 .4-2.3s-1.7.2-1.9 1.9-1.3 1.2-1.5.7.4-2.2-.5-2.3q-1-.2-1.2.4c-.2.4-1-1-1.4-.6s-.9.6-.7 1.6q-1.7-.2-1.5.8c0 .8.4.6.5 1q.2.6 0 1.1 0 .7 1.2.1 1-.7 1.4.2c0 .6-.2.7-1 1.5s-1 1-.5 1.3 1.2.9 2.4-.4 1.8-1.3 2-1l.4.9" fill="#129612" fill-rule="evenodd" stroke-width=".378" transform="matrix(.2885 0 0 .28879 156.4 132.5)" id="path139"/></g><g transform="rotate(9.9 -326 414.8)scale(.06607 .06612)" fill="#b400b4" fill-rule="evenodd" stroke="#531553" stroke-width="1.65" id="g154"><circle cx="-448.064" cy="-368.486" r="4.521" id="circle140"/><circle cx="-446.055" cy="-373.21" r="4.521" id="circle141"/><circle cx="-452.617" cy="-378.161" r="4.521" id="circle142"/><circle cx="-442.171" cy="-380.843" r="4.521" id="circle143"/><circle cx="-447.796" cy="-383.12" r="4.521" id="circle144"/><circle cx="-440.163" cy="-389.146" r="4.521" id="circle145"/><circle cx="-459.179" cy="-384.325" r="4.521" id="circle146"/><circle cx="-454.625" cy="-387.941" r="4.521" id="circle147"/><circle cx="-447.93" cy="-392.628" r="4.521" id="circle148"/><circle cx="-440.564" cy="-397.315" r="4.521" id="circle149"/><circle cx="-456.232" cy="-402.404" r="4.521" id="circle150"/><circle cx="-462.392" cy="-397.449" r="4.521" id="circle151"/><circle cx="-463.464" cy="-390.485" r="4.521" id="circle152"/><circle cx="-455.161" cy="-395.574" r="4.521" id="circle153"/><circle cx="-448.599" cy="-401.466" r="4.521" id="circle154"/></g><path d="M-383.6-346c0-1.8-2.3-2.9-2.3-2.9s.1-1 .3-1a10 10 0 0 1 3 3" fill="#129612" fill-rule="evenodd" stroke="#003718" stroke-width=".378" transform="matrix(.2885 0 0 .28879 156.4 132.5)" id="path154"/><g transform="rotate(10 -333.7 442)scale(.06607 .06612)" fill="#b400b4" fill-rule="evenodd" stroke="#531553" stroke-width="1.65" id="g169"><circle cx="-448.064" cy="-368.486" r="4.521" id="circle155"/><circle cx="-446.055" cy="-373.21" r="4.521" id="circle156"/><circle cx="-452.617" cy="-378.161" r="4.521" id="circle157"/><circle cx="-442.171" cy="-380.843" r="4.521" id="circle158"/><circle cx="-447.796" cy="-383.12" r="4.521" id="circle159"/><circle cx="-440.163" cy="-389.146" r="4.521" id="circle160"/><circle cx="-459.179" cy="-384.325" r="4.521" id="circle161"/><circle cx="-454.625" cy="-387.941" r="4.521" id="circle162"/><circle cx="-447.93" cy="-392.628" r="4.521" id="circle163"/><circle cx="-440.564" cy="-397.315" r="4.521" id="circle164"/><circle cx="-456.232" cy="-402.404" r="4.521" id="circle165"/><circle cx="-462.392" cy="-397.449" r="4.521" id="circle166"/><circle cx="-463.464" cy="-390.485" r="4.521" id="circle167"/><circle cx="-455.161" cy="-395.574" r="4.521" id="circle168"/><circle cx="-448.599" cy="-401.466" r="4.521" id="circle169"/></g><path d="M-397.7-327.1c-.4-1.9 1.2-2.7 1.2-2.7s-.4-1-.6-.8c-.2 0-1.6 1.4-2 3.2" fill="#129612" fill-rule="evenodd" stroke="#003718" stroke-width=".378" transform="matrix(.2885 0 0 .28879 156.4 132.5)" id="path169"/><g transform="rotate(170 5.1 35.4)scale(.06607 -.06612)" fill="#b400b4" fill-rule="evenodd" stroke="#531553" stroke-width="1.65" id="g184"><circle cx="-448.064" cy="-368.486" r="4.521" id="circle170"/><circle cx="-446.055" cy="-373.21" r="4.521" id="circle171"/><circle cx="-452.617" cy="-378.161" r="4.521" id="circle172"/><circle cx="-442.171" cy="-380.843" r="4.521" id="circle173"/><circle cx="-447.796" cy="-383.12" r="4.521" id="circle174"/><circle cx="-440.163" cy="-389.146" r="4.521" id="circle175"/><circle cx="-459.179" cy="-384.325" r="4.521" id="circle176"/><circle cx="-454.625" cy="-387.941" r="4.521" id="circle177"/><circle cx="-447.93" cy="-392.628" r="4.521" id="circle178"/><circle cx="-440.564" cy="-397.315" r="4.521" id="circle179"/><circle cx="-456.232" cy="-402.404" r="4.521" id="circle180"/><circle cx="-462.392" cy="-397.449" r="4.521" id="circle181"/><circle cx="-463.464" cy="-390.485" r="4.521" id="circle182"/><circle cx="-455.161" cy="-395.574" r="4.521" id="circle183"/><circle cx="-448.599" cy="-401.466" r="4.521" id="circle184"/></g><g fill="#961e1d" fill-rule="evenodd" stroke-width="1.429" id="g186"><path transform="matrix(.07633 0 0 .0764 156.4 132.5)" d="m-1481.2-1353.8-4.3.5c-14.6 2.7-18.7 13.2-18.2 19l.5 1.5 2.1-1.4s-1.4-8.1 7.8-13.2a21 21 0 0 1 13.3-2.1v-4.2zm5.1.5v4.7a20 20 0 0 1 13.4 25.5c-1.6 7-8.5 15.3-12.4 20s-19.4 21.3-24.1 29c-4.7 7.8-4 11.7-3.7 14.7a26 26 0 0 0 8.2 17.4c4 3.6 8.7 7.2 13 11v-8.5l-3.9-2.9q-4.4-3.1-6.5-6.8a32 32 0 0 1-4.4-13.8 17 17 0 0 1 1-6.3c2.3-5.9 7.5-11.5 12.7-17.2 9.2-10 21-22.1 25.3-36.6 3.8-12.8-3-21.2-5.3-23.5a28 28 0 0 0-13.3-6.7z" stroke="#003718" id="path184"/><path transform="matrix(.07633 0 0 .0764 156.4 132.5)" d="M-1477.5-1365.5c-2.3-.4-2.3 5.6-2.3 5.6l-1 63.3 4.5-5.2.1-23.1s1-40.3-1.3-40.6zm1.2 72-4.7 5-.8 61.1c-.4 27.6-5.4 42-5.4 42l13.3-2c-3.6-4-2.6-17-2.6-17z" stroke="#000" id="path185"/><path transform="matrix(.07633 0 0 .0764 156.4 132.5)" d="M-1476.4-1235v9.5l1.9 2.5a47 47 0 0 1 4.9 32.5s-1.7 3.4-2.4 3.9 3 1.1 4.3-.5c1.4-1.7-.6 2.6.5 3.5s9 1.1 10-3c1-4.2 3.5-2.2 3.5-2.2-.6-1.2-7.3-14.2-9.6-24.7-1.6-7.4-6.5-15-13.1-21.4z" stroke="#003718" id="path186"/></g><g fill="none" stroke="#003718" id="g190"><g stroke-width=".378" id="g189"><path d="M-393.8-364s-.5.8-.6 1.3v1c.3.8-.7 2-1.7 2.5-.2.3.2 0-.2.1l-2.2.8c-.7.4-1 1.5-2.2 1.3" transform="matrix(.2885 0 0 .28879 156.4 132.5)" id="path187"/><path d="M-395.3-357.4c-.1-.8-2.7-5.4-5.4-5.3" transform="matrix(.2885 0 0 .28879 156.4 132.5)" id="path188"/><path d="M-397.2-364.1c-.8 0-1 2.4-.9 2.9 0 0-1.3-.4-2.4.3l-1 1" transform="matrix(.2885 0 0 .28879 156.4 132.5)" id="path189"/></g><path d="M-399.6-361.4s-1.5-.8-2.4 0" stroke-width=".387" transform="matrix(.2885 0 0 .28879 156.4 132.5)" id="path190"/></g><g stroke="#003718" stroke-width=".378" id="g196"><path d="M-386-355.1s.8-.5-.2-2.2-.2-2.9.2-3.4 1.1-1.8 1-2.6c-.2-.7 1.5.3 1.3 1.5s-.5 1.4.2 2q.9 1.2.9 1.6c0 .2.8.5 1.1-1.2.4-1.8 1-.5 1.8-.3.7.3 2.5.7 3 .6s.9 1.6 2 2c0 0-2-.5-3.3.7s-1 .2-2 .1q-1.2 0-1.3.7c0 .4-.1 1.1.5 1.3s1.5.3 1.9 0-1.5 2.2-2.6 2c-1.2-.4-3.2-2.5-4-1.8" fill="#129612" fill-rule="evenodd" transform="matrix(.2885 0 0 .28879 156.4 132.5)" id="path191"/><g fill="none" id="g195"><path d="M-385.6-361.2s-.3 1.7.4 2.4q.9 1.1.7 1" transform="matrix(.2885 0 0 .28879 156.4 132.5)" id="path192"/><path d="M-384-360.9c-.3 1.2-.4 5.4-1.9 6.3" transform="matrix(.2885 0 0 .28879 156.4 132.5)" id="path193"/><path d="M-385.6-355s2.1-2.5 3.3-2.2c1.2.4 1.4-.5 1.5-1 0-.4.3-.8 2-.4q1 .1 3.6 1.3" transform="matrix(.2885 0 0 .28879 156.4 132.5)" id="path194"/><path d="M-385.5-354.9c2-1.2 2.6.5 3.6 1.1s2.9-.2 2.9-.2" transform="matrix(.2885 0 0 .28879 156.4 132.5)" id="path195"/></g></g><g fill="none" stroke="#003718" stroke-width=".378" id="g198"><path d="M-407.6-335.6s1.8-1.1 3.9-1.2c0 0 .7-2.4-2-2.3" transform="matrix(.2885 0 0 .28879 156.4 132.5)" id="path196"/><path d="M-406.6-338.5s1 1.4 4.6 2c2 .4 3.6 2.2 4.2 1.8m-2.7-7.8s-.8 1 .7 6.7" transform="matrix(.2885 0 0 .28879 156.4 132.5)" id="path197"/><path d="M-404.2-332s.8-1.7 2.2-1.8 2.2-1.9 2.2-1.9m1.8-4.5s-.4 3.7-1.8 4.4" transform="matrix(.2885 0 0 .28879 156.4 132.5)" id="path198"/></g><path d="M-404.2-312.8s4 0 5.7.9c1.4.6.8-1 4.8-.2 2-1.2 5.6-.3 7 0 1.8-.4 2-.3 5.4.2 1.7-.3 5-.6 6.3-.1 0 0-3.7-1.5-4.7-1.5s-2.8-1-4.5-.6c-1.6-.8-7.9-1.3-9.4 0-1.9-.3-4.3-.5-5.4 1 0 0-2.1-.9-5.2.3z" fill="#129612" fill-rule="evenodd" stroke="#003718" stroke-width=".378" transform="matrix(.2885 0 0 .28879 156.4 132.5)" id="path199"/></g><g id="g264"><g stroke="#003718" id="g205"><g stroke-width=".404" id="g204"><path d="M-386.7-354.6s1.5-1 .5-2.7-.2-2.9.2-3.4 1.1-1.8 1-2.6c-.2-.7 1.5.3 1.3 1.5s-.5 1.4.2 2q.9 1.2.9 1.6c0 .2.8.5 1.1-1.2.4-1.8 1-.5 1.8-.3.7.3 2.5.7 3 .6s.9 1.6 2 2c0 0-2-.5-3.3.7s-1 .2-2 .1q-1.2 0-1.3.7c0 .4-.1 1.1.5 1.3s2.8.5 3.2.2-2.8 2-4 1.7c-.7-.2-2-1.2-2.9-1.7-.4-.2-1.4.2-1.7.4" fill="#129612" fill-rule="evenodd" transform="matrix(.24696 -.05915 .028 .28936 158.6 110.8)" id="path200"/><g fill="none" id="g203"><path d="M-386.3-354.1c.8-.4 1.1-1.8 1.3-3.2s-.4-2 .2-3.5c.4-1.3.7-1.8-.2-2.8" transform="matrix(.24696 -.05915 .028 .28936 158.6 110.8)" id="path201"/><path d="M-385.6-355s2.1-2.5 3.3-2.2c1.2.4 1.4-.5 1.5-1 0-.4.3-.8 2-.4q1 .1 3.6 1.3" transform="matrix(.24696 -.05915 .028 .28936 158.6 110.8)" id="path202"/><path d="M-385.5-354.9c2-1.2 2.6.5 3.6 1.1s3.4 0 3.4 0" transform="matrix(.24696 -.05915 .028 .28936 158.6 110.8)" id="path203"/></g></g><path d="M-396.4-335.4s-2 .9-2 0c-.1-1 .8-1.8.8-2.6 0-.7 0-2.7-.6-2s-1 .7-.9 1.3c.1.5-1.2-2.7-1.2-3.4s-1-.2-1 1.4.4 2.9.2 3c-.2.3-.9.8-1.2-.3s-2.2-2.5-2.5-1.6c-.3 1-1.4.4-1.7.8s.5.8 0 1.3-1.2 0-.9 1-.4.9-.4 1.4 2 1.1 3.9 0 1.9.5 1.4.6-1.9.6-1.9 1.5-.2 1.5 1.7.8c1.8-.8 2-.3 3.8-2 .2-.4 1-.1 1 .4s1-1.9 1-1.9zm1.7-22.2s-.6-.6-.4-1.1c.3-.5 2-1.2 1.9-1.6a4 4 0 0 0-.6-1.8c-.4-.6-.1-2 .4-2.3s-1.7.2-1.9 1.9-1.3 1.2-1.5.7.4-2.2-.5-2.3q-1-.2-1.2.4c-.2.4-1-1-1.4-.6s-.9.6-.7 1.6q-1.7-.2-1.5.8c0 .8.4.6.5 1q.2.6 0 1.1 0 .7 1.2.1 1-.7 1.4.2c0 .6-.2.7-1 1.5s-1 1-.5 1.3 1.2.9 2.4-.4 1.8-1.3 2-1l.4.9" fill="#129612" fill-rule="evenodd" stroke-width=".378" transform="matrix(.2885 0 0 .28879 164.8 123.3)" id="path204"/></g><g transform="rotate(10 -268 457.7)scale(.06607 .06612)" fill="#b400b4" fill-rule="evenodd" stroke="#531553" stroke-width="1.65" id="g219"><circle cx="-448.064" cy="-368.486" r="4.521" id="circle205"/><circle cx="-446.055" cy="-373.21" r="4.521" id="circle206"/><circle cx="-452.617" cy="-378.161" r="4.521" id="circle207"/><circle cx="-442.171" cy="-380.843" r="4.521" id="circle208"/><circle cx="-447.796" cy="-383.12" r="4.521" id="circle209"/><circle cx="-440.163" cy="-389.146" r="4.521" id="circle210"/><circle cx="-459.179" cy="-384.325" r="4.521" id="circle211"/><circle cx="-454.625" cy="-387.941" r="4.521" id="circle212"/><circle cx="-447.93" cy="-392.628" r="4.521" id="circle213"/><circle cx="-440.564" cy="-397.315" r="4.521" id="circle214"/><circle cx="-456.232" cy="-402.404" r="4.521" id="circle215"/><circle cx="-462.392" cy="-397.449" r="4.521" id="circle216"/><circle cx="-463.464" cy="-390.485" r="4.521" id="circle217"/><circle cx="-455.161" cy="-395.574" r="4.521" id="circle218"/><circle cx="-448.599" cy="-401.466" r="4.521" id="circle219"/></g><path d="M-383.6-346c0-1.8-2.3-2.9-2.3-2.9s.1-1 .3-1a10 10 0 0 1 3 3" fill="#129612" fill-rule="evenodd" stroke="#003718" stroke-width=".378" transform="matrix(.2885 0 0 .28879 164.8 123.3)" id="path219"/><g transform="rotate(9.9 -277 486.4)scale(.06607 .06612)" fill="#b400b4" fill-rule="evenodd" stroke="#531553" stroke-width="1.65" id="g234"><circle cx="-448.064" cy="-368.486" r="4.521" id="circle220"/><circle cx="-446.055" cy="-373.21" r="4.521" id="circle221"/><circle cx="-452.617" cy="-378.161" r="4.521" id="circle222"/><circle cx="-442.171" cy="-380.843" r="4.521" id="circle223"/><circle cx="-447.796" cy="-383.12" r="4.521" id="circle224"/><circle cx="-440.163" cy="-389.146" r="4.521" id="circle225"/><circle cx="-459.179" cy="-384.325" r="4.521" id="circle226"/><circle cx="-454.625" cy="-387.941" r="4.521" id="circle227"/><circle cx="-447.93" cy="-392.628" r="4.521" id="circle228"/><circle cx="-440.564" cy="-397.315" r="4.521" id="circle229"/><circle cx="-456.232" cy="-402.404" r="4.521" id="circle230"/><circle cx="-462.392" cy="-397.449" r="4.521" id="circle231"/><circle cx="-463.464" cy="-390.485" r="4.521" id="circle232"/><circle cx="-455.161" cy="-395.574" r="4.521" id="circle233"/><circle cx="-448.599" cy="-401.466" r="4.521" id="circle234"/></g><path d="M-397.7-327.1c-.4-1.9 1.2-2.7 1.2-2.7s-.4-1-.6-.8c-.2 0-1.6 1.4-2 3.2" fill="#129612" fill-rule="evenodd" stroke="#003718" stroke-width=".378" transform="matrix(.2885 0 0 .28879 164.8 123.3)" id="path234"/><g transform="rotate(170 9.7 31.2)scale(.06607 -.06612)" fill="#b400b4" fill-rule="evenodd" stroke="#531553" stroke-width="1.65" id="g249"><circle cx="-448.064" cy="-368.486" r="4.521" id="circle235"/><circle cx="-446.055" cy="-373.21" r="4.521" id="circle236"/><circle cx="-452.617" cy="-378.161" r="4.521" id="circle237"/><circle cx="-442.171" cy="-380.843" r="4.521" id="circle238"/><circle cx="-447.796" cy="-383.12" r="4.521" id="circle239"/><circle cx="-440.163" cy="-389.146" r="4.521" id="circle240"/><circle cx="-459.179" cy="-384.325" r="4.521" id="circle241"/><circle cx="-454.625" cy="-387.941" r="4.521" id="circle242"/><circle cx="-447.93" cy="-392.628" r="4.521" id="circle243"/><circle cx="-440.564" cy="-397.315" r="4.521" id="circle244"/><circle cx="-456.232" cy="-402.404" r="4.521" id="circle245"/><circle cx="-462.392" cy="-397.449" r="4.521" id="circle246"/><circle cx="-463.464" cy="-390.485" r="4.521" id="circle247"/><circle cx="-455.161" cy="-395.574" r="4.521" id="circle248"/><circle cx="-448.599" cy="-401.466" r="4.521" id="circle249"/></g><g fill="#961e1d" fill-rule="evenodd" stroke-width="1.429" id="g251"><path transform="matrix(.07633 0 0 .0764 164.8 123.3)" d="m-1481.2-1353.8-4.3.5c-14.6 2.7-18.7 13.2-18.2 19l.5 1.5 2.1-1.4s-1.4-8.1 7.8-13.2a21 21 0 0 1 13.3-2.1v-4.2zm5.1.5v4.7a20 20 0 0 1 13.4 25.5c-1.6 7-8.5 15.3-12.4 20s-19.4 21.3-24.1 29c-4.7 7.8-4 11.7-3.7 14.7a26 26 0 0 0 8.2 17.4c4 3.6 8.7 7.2 13 11v-8.5l-3.9-2.9q-4.4-3.1-6.5-6.8a32 32 0 0 1-4.4-13.8 17 17 0 0 1 1-6.3c2.3-5.9 7.5-11.5 12.7-17.2 9.2-10 21-22.1 25.3-36.6 3.8-12.8-3-21.2-5.3-23.5a28 28 0 0 0-13.3-6.7z" stroke="#003718" id="path249"/><path transform="matrix(.07633 0 0 .0764 164.8 123.3)" d="M-1477.5-1365.5c-2.3-.4-2.3 5.6-2.3 5.6l-1 63.3 4.5-5.2.1-23.1s1-40.3-1.3-40.6zm1.2 72-4.7 5-.8 61.1c-.4 27.6-5.4 42-5.4 42l13.3-2c-3.6-4-2.6-17-2.6-17z" stroke="#000" id="path250"/><path transform="matrix(.07633 0 0 .0764 164.8 123.3)" d="M-1476.4-1235v9.5l1.9 2.5a47 47 0 0 1 4.9 32.5s-1.7 3.4-2.4 3.9 3 1.1 4.3-.5c1.4-1.7-.6 2.6.5 3.5s9 1.1 10-3c1-4.2 3.5-2.2 3.5-2.2-.6-1.2-7.3-14.2-9.6-24.7-1.6-7.4-6.5-15-13.1-21.4z" stroke="#003718" id="path251"/></g><g fill="none" stroke="#003718" id="g255"><g stroke-width=".378" id="g254"><path d="M-393.8-364s-.5.8-.6 1.3v1c.3.8-.7 2-1.7 2.5-.2.3.2 0-.2.1l-2.2.8c-.7.4-1 1.5-2.2 1.3" transform="matrix(.2885 0 0 .28879 164.8 123.3)" id="path252"/><path d="M-395.3-357.4c-.1-.8-2.7-5.4-5.4-5.3" transform="matrix(.2885 0 0 .28879 164.8 123.3)" id="path253"/><path d="M-397.2-364.1c-.8 0-1 2.4-.9 2.9 0 0-1.3-.4-2.4.3l-1 1" transform="matrix(.2885 0 0 .28879 164.8 123.3)" id="path254"/></g><path d="M-399.6-361.4s-1.5-.8-2.4 0" stroke-width=".387" transform="matrix(.2885 0 0 .28879 164.8 123.3)" id="path255"/></g><g stroke="#003718" stroke-width=".378" id="g261"><path d="M-386-355.1s.8-.5-.2-2.2-.2-2.9.2-3.4 1.1-1.8 1-2.6c-.2-.7 1.5.3 1.3 1.5s-.5 1.4.2 2q.9 1.2.9 1.6c0 .2.8.5 1.1-1.2.4-1.8 1-.5 1.8-.3.7.3 2.5.7 3 .6s.9 1.6 2 2c0 0-2-.5-3.3.7s-1 .2-2 .1q-1.2 0-1.3.7c0 .4-.1 1.1.5 1.3s1.5.3 1.9 0-1.5 2.2-2.6 2c-1.2-.4-3.2-2.5-4-1.8" fill="#129612" fill-rule="evenodd" transform="matrix(.2885 0 0 .28879 164.8 123.3)" id="path256"/><g fill="none" id="g260"><path d="M-385.6-361.2s-.3 1.7.4 2.4q.9 1.1.7 1" transform="matrix(.2885 0 0 .28879 164.8 123.3)" id="path257"/><path d="M-384-360.9c-.3 1.2-.4 5.4-1.9 6.3" transform="matrix(.2885 0 0 .28879 164.8 123.3)" id="path258"/><path d="M-385.6-355s2.1-2.5 3.3-2.2c1.2.4 1.4-.5 1.5-1 0-.4.3-.8 2-.4q1 .1 3.6 1.3" transform="matrix(.2885 0 0 .28879 164.8 123.3)" id="path259"/><path d="M-385.5-354.9c2-1.2 2.6.5 3.6 1.1s2.9-.2 2.9-.2" transform="matrix(.2885 0 0 .28879 164.8 123.3)" id="path260"/></g></g><g fill="none" stroke="#003718" stroke-width=".378" id="g263"><path d="M-407.6-335.6s1.8-1.1 3.9-1.2c0 0 .7-2.4-2-2.3" transform="matrix(.2885 0 0 .28879 164.8 123.3)" id="path261"/><path d="M-406.6-338.5s1 1.4 4.6 2c2 .4 3.6 2.2 4.2 1.8m-2.7-7.8s-.8 1 .7 6.7" transform="matrix(.2885 0 0 .28879 164.8 123.3)" id="path262"/><path d="M-404.2-332s.8-1.7 2.2-1.8 2.2-1.9 2.2-1.9m1.8-4.5s-.4 3.7-1.8 4.4" transform="matrix(.2885 0 0 .28879 164.8 123.3)" id="path263"/></g><path d="M-404.2-312.8s4 0 5.7.9c1.4.6.8-1 4.8-.2 2-1.2 5.6-.3 7 0 1.8-.4 2-.3 5.4.2 1.7-.3 5-.6 6.3-.1 0 0-3.7-1.5-4.7-1.5s-2.8-1-4.5-.6c-1.6-.8-7.9-1.3-9.4 0-1.9-.3-4.3-.5-5.4 1 0 0-2.1-.9-5.2.3z" fill="#129612" fill-rule="evenodd" stroke="#003718" stroke-width=".378" transform="matrix(.2885 0 0 .28879 164.8 123.3)" id="path264"/></g><path d="M-974.4-647.6s.3 4 3.2 4" fill="none" stroke="#000" stroke-width=".753" transform="matrix(.19722 0 0 .19742 235.5 140)" id="path265"/></g><g id="g267"><path d="m59.6 27-.2.1-.2.3q0 .2 0 0-.3-.1-.3.4v.5q0 .6.2.7h.1l.3-.1.7.1q.7.4.6 1.1v.3l-.4.4-.6.2q-.5 0-.4.4l.3.8.6.5h.3l.4.2.2.3.4.3v.1l.1-.3v-.1l1 .5.4.2-.1-.2q-.2-.2-.3-1.5l-.1-1V31h.4l.6-.1.2-.2h.4q.6-.2.6-.4l-.7-.9v-.1l-.3-.2-.3-.2h-.1l-.8-.2h-.1l.2-.4.3-.2v-.2l-.1-.3h-.1v-.3h-.5l-1.3-.1V27l-.1-.1h-.2v.2h-.2q-.2-.4-.5-.2l-.1.2-.2-.2m1.7 3.2h.3l.8.7v.1l-.7-.4z" fill="#129612" id="path266"/><path d="m59.6 27-.2.1-.2.3H59c-.2.3 0 1.6.1 1.6h.1l.3-.2.5.1q.8.4.9 1.1v.4h-.1l-.5.5-.5.1q-.5 0-.3.5l.4 1 .8.3.2.1.3.3.3.2.1.2.1-.2V33l1 .6.3.2v-.3l-.3-1.6-.1-.7q-.2-.4 0-.3h.4l.6-.1.2-.2.7-.2.3-.2-.2-.2-.4-.5q-.2-.2-.1-.3l-.3-.2-.3-.2h-.1l-.3-.1H63l-.4-.2.3-.3.2-.4-.1-.3q-.3 0-.1-.1v-.2h-1.6q-.2 0-.3-.2l-.2.1-.2.2-.1-.2q-.1-.3-.4 0h-.3zm.7.2.1.2h1.1l.1.1-.1.1-.1.2-.2.3-1.1.6h-.2l-.2-.2.3-.7v-.2l-.2.1q-.2.2-.2 0t-.1 0v.8l-.2.1q-.3 0-.2-.3v-.4l.1-.1.1-.2.2-.2.2-.1.1.2.2-.2zm1.8.3h.5l-.1.2q0 .2.2.1h.2q0 .3-.4.6l-.3.2.3.1h.3l.5.2v.2l.7.1v.1q-.2 0 .2.4l.5.5v.1l-.8.3h-.4q-.3 0-.1.2.3.3-.6.1l-.6-.3-.3-.3-.2-.1h-.4l.2.4.2.2.3.1.4.3.1.6v.5q.1.2 0 .2v.3l.1.2.1.4q0 .1-.2 0l-.2-.1-.5-.5q-.3-.3-.3.2v.1l-.2-.2-.3-.3-.2-.4h-.3v.3l-.7-.7q-.3-.6 0-.5h.5l.2-.2-.1.6-.1.3v.2h.1l.3-.7.3.3.3.7q.2.2.1 0V32l.5.5.3.2v-.2l-.1-.2-.5-.4-.4-.5.6-.3h-.3l-.3.1h-.4v-.3q.3-.2.3-.8l.1-.3h.6l.4.4.7.4-.3-.4-.3-.4h.5v.1h.5l.1.1h.2l.3.2h.3q.1 0 0 0L64 30l-.2-.1-.4-.1-.4-.2q-.3 0 0 0l.2-.2h.2q.3-.1 0-.2H63l-.9.3h-.2l.3-.3.2-.2q-.1-.2-.7.2-.6.6-.7.2l-.3-.4-.2-.2.7-.4 1-.3h.1q.1-.2-.5-.2h-.2v-.3zm-.5 2.8.3.2.2.3z" fill="#044617" id="path267"/></g><g id="g269"><path d="M56 41h-.1l-.3.2q-.2 0-.3.2l-.2.2H55v-.2l-.1-.1h-.2l-.3-.1H54v.1l-.1.2v.4l.2.2v.5q0 .3-.2.5-.5.7-1.2.4H52q0 .3-.2.5l-.2.5-.4.7v.7h.5v.1h.2v-.1h.1l.1.1v.2l.1.5h.1l.5-.4.3-.3h.2v-.2l.1-.3v-.2l.1-.4v-.3h.4v.3l.2.4h.2l.1.2.1.1h.2l.3.3.3.3.3.2v-.6h.1l.1-.1v-1.1l.1-.1-.2-.7v-.1h-.3v-.4h.3l.3.3h.1l.2-.2h.2q.2 0 .5.3v.1h.1l.1-.3.1-.2h.1V43l-.3-.6-.1-.6-.2-.1-.1-.1v-.2H56zm-.8 1.5.3.1v.3h-.3l-.1-.1-.1-.2z" fill="#129612" id="path268"/><path d="m55.9 41-.6.3-.1.1-.1.2q-.1.1-.2-.2 0-.3-.1-.2h-.6l-.2.1-.1.2v.4q.3.4.2.8v.2l-.2.2q-.4.6-1 .3H52q-.3 0-.2.2l-.4.8-.3.7q-.1.3 0 .8h.5q0 .3.2.1h.1v.1l.2.8.2-.1.5-.5q.3-.4.4-.2l.2-.6.1-.6v-.3q.2.3.2.1l.1.3q0 .5.3.4 0-.2.2.1 0 .3.2.2l.3.2.4.4.3.2.1-.4v-.3h.2V44q-.1-.4-.4-.4-.2-.4.4 0l.2.2.1-.2q.3-.5.7.1l.2.3v-.2l.1-.2.2-.2v-.5l-.2-.5V42l-.1-.2-.2-.3q-.2 0-.2-.2l-.1-.2-.3.1H56V41zm0 .2-.2.4v.1l.4-.1q.4-.3.4-.1v.3q.4 0 .4.2l.1.6.4.6h-.1q-.2-.3-.5-.4-.1-.2-.5-.1l-.4-.1q-.9-.4-1 0 .1.5.5.5l.3-.3h.4l.3.1.5.1.1.2h.1v.5l-.1-.1q-.2-.3-.5-.3t-.4.2q0 .1-.1 0l-.4-.3-.3.1v.3l.2.1q.3 0 .3.3v1.6q-.3-.1-.2.2v.5l-.3-.2-.3-.2-.1-.2q-.1-.3-.3-.2l-.1-.2-.1-.2q0-.3-.3 0V45l-.2-.5-.2-.1q0-.2-.2 0s0 .2 0 .5l-.1.5v.3l-.1.2H53l-.4.6q-.4.4-.3-.3v-.3l.2-.2v-.1l.1-.1.1-.3.5.5v-.3q-.3-.4-.3-.7v-.1q.1-.2.2 0l.2.2v-.2L53 44q-.3-.4.1-.4t.7-.2h.1l.1.1v.9q.2 0 .2-.3l.1-.3.1.2.2.2v.8l.2-.2v.2q0 .6.2.2h.1l.2.3V45l-.2-.4-.1-.3h.2q.2.3.3.1l-.5-.3-.1-.1-.2-.2-.3-.4-.2-.2V43l.2-.3q0-.2.2-.2l.2-.1c0-.1 1.5-.2 1.6-.1h.3l-.6-.2v-.2q.3 0 .2-.2l-.4.2-.6.2h-.7l-.1.2h-.1V42l-.1-.1v-.1l-.1-.1v-.3q0-.3.2-.1.3 0 .4.4l.1.2.3-.2.2-.3.2-.1zm-.6 1.4.1.2h-.2q-.1 0 0-.2m-2.7 1q.2 0 0 .2v.1q0 .5-.5 1-.3.3.2 0 .3-.2.1 0l-.1.4q0 .4-.2.3l-.2.1q-.2.2-.2 0v-.1h-.5v-.4l.4-.6.3-.8.3-.1h.2z" fill="#003718" id="path269"/></g><path d="M-1697.1-548.6s.8 0 .4-.5" fill="none" stroke="#000" stroke-width=".265" transform="matrix(.561 0 0 .56156 996 320.5)" id="path270"/></g><!-- app4joy -->
</svg>