<svg viewBox="0 0 100 50" width="100" height="50" id="svg2" xmlns="http://www.w3.org/2000/svg"><g transform="scale(.83333)" id="g1"><path id="rect124" style="display:inline;fill:#012169;stroke-width:1pt;fill-opacity:1" d="M0 0h120v60H0z"/><path id="rect2" style="display:inline;fill:#c8102e;stroke-width:1pt;fill-opacity:1" d="M0 30h120v30H0z"/><path id="rect6" style="display:inline;fill:#012169;stroke-width:1pt;fill-opacity:1" d="M0 37.5h120V45H0z"/><path id="rect7" style="display:inline;fill:#ffffff;stroke-width:1pt" d="M0 45h120v7.5H0z"/><path id="rect3" style="display:inline;fill:#ffffff;stroke-width:1pt" d="M60 0h60v30H60z"/><path id="rect4" style="display:inline;fill:#c8102e;stroke-width:1pt;fill-opacity:1" d="M60 7.5h60V15H60z"/><path id="rect5" style="display:inline;fill:#012169;stroke-width:1pt;fill-opacity:1" d="M60 15h60v7.5H60z"/></g><g id="logo" transform="scale(.83333)"><path id="path146" style="stroke-width:1pt;fill:#ffffff" d="M0 0v3.4L53.3 30H60v-3.4L6.7 0zm60 0v3.4L6.7 30H0v-3.4L53.3 0z"/><path id="path136" style="stroke-width:1pt;fill:#ffffff" d="M25 0v30h10V0zM0 10v10h60V10z"/><path id="path141" style="stroke-width:1pt;fill:#c8102e;fill-opacity:1" d="M0 12v6h60v-6zM27 0v30h6V0z"/><path id="path150" style="stroke-width:1pt;fill:#c8102e;fill-opacity:1" d="m0 30 20-10h4.5l-20 10zM0 0l20 10h-4.5L0 2.2zm35.5 10 20-10H60L40 10zM60 30 40 20h4.5L60 27.8z"/></g></svg>