<svg width="752" height="500" id="svg1" viewBox="0 0 752 500" xmlns:xlink="http://www.w3.org/1999/xlink" xmlns="http://www.w3.org/2000/svg"><g id="g4"><path id="rect1526" style="fill:#000f5d" d="M0 0h752v500H0z"/></g><g id="g1" style="display:inline"><path d="M355 372h15.9l5.3-15.6L381 372h16.1l-12.5 10.2 4.6 14.8-13.2-9-13 9 4.4-15z" id="path72" style="display:inline;fill:#ffb900;fill-opacity:1"/><path d="M346.4 114.7h22.5l7.4-22 6.8 22h22.7L388.2 129l6.4 20.8-18.6-12.5-18.4 12.6 6.3-21.1z" id="path90" style="display:inline;fill:#ffb900;fill-opacity:1"/><use transform="translate(95.8 -302.6)" id="use4474" xlink:href="#path72" style="fill:#ffb900;fill-opacity:1"/><use transform="translate(166.3 -240)" id="use4472" xlink:href="#path72" style="fill:#ffb900;fill-opacity:1"/><use transform="translate(204.4 -149.8)" id="use4468" xlink:href="#path72" style="fill:#ffb900;fill-opacity:1"/><use transform="translate(127 -126.4)" id="use4466" xlink:href="#path72" style="fill:#ffb900;fill-opacity:1"/><use transform="translate(192 -50)" id="use4464" xlink:href="#path72" style="fill:#ffb900;fill-opacity:1"/><use transform="translate(136.8 27)" id="use4462" xlink:href="#path72" style="fill:#ffb900;fill-opacity:1"/><use transform="translate(89 -37.1)" id="use4460" xlink:href="#path72" style="fill:#ffb900;fill-opacity:1"/><use transform="translate(53 75)" id="use4458" xlink:href="#path72" style="fill:#ffb900;fill-opacity:1"/><use transform="translate(-53 75)" id="use4442" xlink:href="#path72" style="fill:#ffb900;fill-opacity:1"/><use transform="translate(-89 -37.1)" id="use4440" xlink:href="#path72" style="fill:#ffb900;fill-opacity:1"/><use transform="translate(-136.8 27)" id="use4444" xlink:href="#path72" style="fill:#ffb900;fill-opacity:1"/><use transform="translate(-192 -50)" id="use4446" xlink:href="#path72" style="fill:#ffb900;fill-opacity:1"/><use transform="translate(-204.4 -149.8)" id="use4450" xlink:href="#path72" style="fill:#ffb900;fill-opacity:1"/><use transform="translate(-127 -126.4)" id="use4448" xlink:href="#path72" style="fill:#ffb900;fill-opacity:1"/><use transform="translate(-166.3 -240)" id="use4452" xlink:href="#path72" style="fill:#ffb900;fill-opacity:1"/><use transform="translate(-95.8 -302.6)" id="use4454" xlink:href="#path72" style="fill:#ffb900;fill-opacity:1"/><use transform="translate(0 -328.7)" id="use4456" xlink:href="#path72" style="fill:#ffb900;fill-opacity:1"/></g><g id="g2" style="display:inline"><use transform="matrix(-1 0 0 1 752.2 0)" id="use4438" xlink:href="#path112" style="display:inline;fill:#ffb900;fill-opacity:1"/><use transform="matrix(-1 0 0 1 751.8 0)" id="use4436" xlink:href="#path110" style="display:inline;fill:#ffb900;fill-opacity:1"/><use transform="matrix(-1 0 0 1 751.7 0)" id="use4434" xlink:href="#path108" style="display:inline;fill:#ffb900;fill-opacity:1"/><path d="M347.5 222.7v-.2c-18.2-24 .2-32.7.6-49.7 12 22.3-5.6 29.3 15.3 50z" id="path92" style="display:inline;fill:#ffb900;fill-opacity:1"/><path d="M367.6 222.7a49 49 0 0 1-9-32.7c2-9.3 8.4-18.5 7.5-25.6 3.4 8 6.6 11 5.6 16.9 5-15.2 16.7-23 32.5-23.8-28.4 21.7 8.7 38.3-15.8 65.2z" id="path94" style="fill:#ffb900;fill-opacity:1"/><path d="M393.6 222.8c22.6-27.3-6.1-41.3 20-53.5-1 7-5.4 8-3.5 18 1.4 4.2.9 7.7-.5 10.7-.4-1.3 6.8-9.5 10.1-9.9-6.8 3.8.6 22-17.2 34.7h-9.2" id="path96" style="display:inline;fill:#ffb900;fill-opacity:1"/><path d="M389.8 281.6c1-25.6 6.5-33.4 16.9-44l-61-.1c10.4 10.7 15.9 18.5 16.8 44z" id="path98" style="fill:#ffb900;fill-opacity:1"/><path d="m376 344 8 25 4.4-74.1h-24.6l4.3 74z" id="path100" style="fill:#ffb900;fill-opacity:1"/><path d="M376 456c3.5-3.3 4.5-14 4.5-14l2.1-43.2-6.6-4.7-6.6 4.7 2 43.3s1 10.6 4.5 13.9z" id="path102" style="fill:#ffb900;fill-opacity:1"/><path d="m411.5 233.5-70.7-.1v-6.7h70.8z" id="path104" style="fill:#ffb900;fill-opacity:1"/><path d="M394.3 292.3H358v-8.2h36.2v8.5z" id="path106" style="fill:#ffb900;fill-opacity:1"/><path d="m199.6 225.5 134.2-16-.4-2.5-133.3 16 .5 2.4z" id="path108" style="fill:#ffb900;fill-opacity:1"/><path d="m225.9 144.7 107.6 41.1 1.3-2.3-107.6-41.2-.2.4Z" id="path110" style="fill:#ffb900;fill-opacity:1"/><path d="m294.7 98.7 46.2 66.1 3-1-47.2-67.2-2.7 1Z" id="path112" style="fill:#ffb900;fill-opacity:1"/><path d="M374.9 142.7v24.5h2.5v-24.5H374z" id="path114" style="fill:#ffb900;fill-opacity:1"/></g><g id="g3" style="display:inline"><path d="m338.9 111.8-15.5-8 1-2 15.5 7.9zm2.6-5.6L329 94l1.8-1.9 14.7 3 1.6.4-10.1-9.8 1.6-1.6L351 96l-1.8 2-15-3-1.4-.4 10.2 9.8zm13.2-28.7-3.8 1.5 4.8 12.3 3.8-1.5q2.6-.9 3-3 .7-2-.5-5.1t-3-4q-2-1.1-4.3-.2m-.4 16.7L348 77.9l6.2-2.5q3.3-1.2 6 0 2.5 1.4 4 5.2 1.5 4 .6 6.9a7 7 0 0 1-4.4 4.2zm16.3-5-1.4-17.3 2.4-.2 1.3 17.3zm10.6-7 5.3 1-1.2-8.1zm-6.4 6.2 9.6-16 2.6.6 3 18.3-2.4-.5-.9-5.4-6.7-1.3-2.8 4.7zm17 3.8 9.9-14.3 2 1.4-.3 15-.2 1.7 8-11.6 1.8 1.2-9.8 14.4-2.1-1.5.4-15.2.1-1.4-8 11.6zm21.7 9.5 2.8 4.6 5.1-6.4zm-8.7-.4 18.1-3.8 1.4 2.2-11.3 14.7-1.3-2.1 3.4-4.4-3.7-5.8-5.3 1.2z" id="text2636" style="fill:#ffb900;fill-opacity:1" fill="#ffb900"/></g></svg>