<svg height="126.20625" viewBox="0 0 188.9125 126.20625" width="188.9125" id="svg16" xmlns="http://www.w3.org/2000/svg"><g id="g17" style="display:inline"><path d="m108.2 52.3 13.7-4 6 .2v4l-8.6-.3-7.3 3.5-3.2-.6z" fill="#0a1f62" fill-rule="evenodd" id="path2" style="display:inline;stroke-width:0.929813"/><path d="M58.7 53.5 69 47.8l1 4.4-10.7 6 1.4 4 7.8-5.4L80 51.6l5.9 4.3-11.9 3-15.7 11.7-1.8-5.3 3.6-3 .2-1.9-1.4-3.2z" fill="#0a1e65" fill-rule="evenodd" stroke="#000000" stroke-width="0.262414" id="path3" style="display:inline"/><path d="M0 0h189v126.2H0Z" fill="#ffffff" id="path4" style="display:inline;stroke-width:0.929813"/><path d="M103.4 22.9h-.4l-1.6.1c-2.5.4-3.2.7-4.7 2.4-1.3 1.4-1.5 2.2-1.2 4.9.2 2.3.2 3.5-.3 4.5-.2.5-.2.5-1 .4l-2.5.1-1.6.3-.5-1.3q-.6-1.2-.7-2.5c0-1.5-.8-3.3-1.6-3.9-1.1-.9-3.5-2-4.8-2.4s-1.9-.3-4-.2c-2.8.2-5.5.6-5.5.8s1.9.5 3.1.4l1.2-.1h-1l-1.6-.1q-.8 0-.2-.3a17 17 0 0 1 5.5-.5c2.3.1 3.5.5 5.5 1.7 1.4.8 1.7 1 2.2 2q1 1.6 1 3.5c0 .7.6 2.3 1.3 3.4l.6 1.2c0 .5-.8.4-1 0q-.3-.5-.5-.3-.4.5 0 .5.2 0 .4.4.3.6-.1 1.1t0 .8c.6.6.5 4.1-.1 3.7q-.2 0-.6.4-.7.9-.9.3 0-.2-.4.1t-.8.1-.7 0h-.6c-.3-.1 0 1.5.4 2.4q1 2.5 2.6 2.3c.7 0 2.5.6 3.3 1.1.3.3 1 .6 1.3.7l1.2.6c.4.4 1.6.6 5.2 1.2 1.5.2 2.8.8 3 1.2l-.2.4.8-.4q-.4 0-.6-.7-.6-1-.1-.7.3 0 .7 1 0 .4.2.1c.1-.5-.6-1.5-1.3-1.7l-1-.6-.5-.3q0 .3.8 1 1.4 1.5.2.8l-1.6-.5a6 6 0 0 1-3.2-1.6q-.6-.5-.4-.2.2.5.5.7.6.7-.4.2-.5-.3-1-.2-.2.2-1-.8l-.7-1-.2-.2q-.1 0 0 .4l.1.5q-.2.1-.8-1.4-.4-1.1-.3-.3c0 .8-.4.4-.4-.4q0-1.2-.3-.5-.1.4-.2 0c-.2-.5.3-1.8 1-2.5.8-1 2.1-1.7 2.8-1.8q1.2 0 2 1.1c.6 1 1 1.4 2.2 2.2l1.5 1.3q.8 1.2.5 1.8c-.2.3-1.3 0-1.7-.5s-2.1-1.9-2-1.5q.2.4-.3 0t0 .4l.6.4q.2 0 .2.3.1 1 1 1l.7.2 1 .1.9.1q.1.3-1 .3-.7 0-.1.2h1c1 0 2 1.5 1.8 2.7q0 .6.1.2c.5-1-.1-2.6-1.1-3q-.4-.2-.6-1.2c-.2-1.4-.5-1.8-2.2-3l-2-1.7-1.6-4-.9-1.7-.6-1 .7-.5.7-.5.2-.2c.4 0 1.3-1.2 1.3-1.7q0-.5.2-.5t.2-.8.2-.8l.3-.2q0-.2-.4-.1-.6-.1-.4.4c.3 1.2.3 1.3 0 1.2q-.3-.1-.2.2 0 1-.4 1-.3.1-.4.5l-.3.4-.3.3-.3.2c-.2 0-1.4 1-1.4 1.2l.3.4a9 9 0 0 1 1.5 3.2l.4 1.5-.4-.1q-1-.5-2.3.4c-1.2.8-2.4 2-2.7 3l-.3.7-.2-.8q-.2-.8-.4-.7c-.2.2-.3-.8-.2-1.6l.2-2.3c0-1.3 0-1.6-.3-2q-.6-.3 0-.7l.3-.6c-.1-.1 2-.5 3.1-.5q1 0 .4-.3t.4-.7c1.8-1.2 2.2-2.7 1.7-6.6-.3-2.4-.1-3 1-4.4 1.4-1.9 2.3-2.4 5-2.6 3.4-.4 4.7 0 14.3 3.2 4 1.3 4.6 1.6 4.5 1.8l-.6.1c-.7 0-4-.9-5.2-1.5-1-.5-1.4-.6-2.6-.6q-1.3 0-2.2-.3l-1.8-.2-2-.1q-.9-.3-1.5 0-.6 0-.3.1a66 66 0 0 1 10.1 1.2c.7.4 4.4 1.7 5.4 1.8.7 0 1.5-.3 1.1-.7q-.3-.4-8.8-3.2a28 28 0 0 0-8.8-2m-.2 2.4q-.6 0 .2.7.6.5.2.7-.1.4 0 .4c.4 0 .4-.7 0-1.1q-.6-.4-.3-.6.2 0 0 0m-1.4.3q-.3 0-.2.2l.5.8q1.3 1.7-1 .3-1-.7-1-.5-.3.2.4.9 1 1 .1.8c-1.6-.3-1.6-.3-1.5.1l.2.7q0 .4.3.4V29l-.2-.7q0-.3.2-.1c.6.2 1.6.2 1.7 0l-.4-.8q-1.1-1.2.5 0 1.4.9 1.4 0-.1-.5-.5-1-1-.8-.2-.4.6.3.2-.1zm-29.4 1-4.2.6a28 28 0 0 0-4.8.7q-1.3.4-1.2 1c.3.4 3.8 0 7-.8l3.5-1-.4-.1.2-.3zm5.8 0h-.8q-.2.2.7.2 1 0 .9.1l.1.2q.3 0 .4-.3 0-.3-.9-.3zm22.8-.4.5.5q.7.6.6.4l-.6-.5zm4.4 0-.4.1q-.6.3.4.5 4.5 1.7 7 3c2.4 1.3 2.6 1.4 2.8 1 .3-.5-1-1.3-5.7-3.3a19 19 0 0 0-4.1-1.2M81 27l-.5.1q-.5.2-.2.2t.3.2l.7.3q.7 0 .7.2l.6.3q.7 0 .7.3t.2.3c.4 0 0-.6-.4-.7q-.6-.2-.6-.4l-.7-.2q-.7 0-.6-.3T81 27m-6.3.3-1 .2-4 1c-2.9.6-3.6.9-3.6 1.2q0 .2.3.3c.5.1 1 0 3.4-.7l5.6-1.8q-.5 0-.5-.2zm33.8-.8c-.2.2-.4.2 2.2 1.3 1.3.5 3 1.4 3.8 1.8q2.5 1.4 2.6.6c0-.4-.7-.8-3.1-2q-2-1-2.9-1.2l-1.7-.3zm-31 1.1q-1.5 0-6 1.6c-2.2.7-2.4.8-2 1.2q.2.6 2-.2l2-.7 2.9-1c1.8-.7 1.9-.7 1.3-.8zm22-.4-.1.2.4.3q1.2.4.3-.1zm5 0h-.2q-.2.3 1.6 1l7.1 3.2q.6 0 .6-.2c0-.3-3.5-2.1-5.4-2.8zm8.8 0q-.2 0 1.5 1l2.2 1.2c.4.3 2.1.2 2-.1l-2.1-.9zm-34.1.8q-.4 0-2.7.8l-3.2 1c-1.4.4-2.3 1-1.5 1.2l.9.1a33 33 0 0 0 7-2.7q-.4 0-.4-.2.1-.2-.1-.2m-17.7.4a68 68 0 0 0-9 2.9v.2c.5.3 2.6 0 3.7-.4l4.8-1.4q1.6-.4.4-.5-.7 0-.1-.3t.2-.5m20 0a40 40 0 0 0-7.6 2.8l-.6.3.4.4c.5.4.8.4 3.8-1.2 1.4-.7 2.9-1.3 3.4-1.4q1.6-.5.6-.5-.6 0-.1-.1.3-.1 0-.3m21.9-.6q-.3.2.5.5l5.6 2.9q2.2 1.3 2.5.4a32 32 0 0 0-8.5-3.8m-1 .6h-.2q-.9 0 .6.7l5.5 3c.6.3.6.3.9 0q.8-.3-1.8-1.6c-2.3-1.2-4.3-2-5-2m-38 1h-.2l-2.4.5c-2.2.4-3.8 1-5.6 1.6q-1.8.8-1 1c.8.4 3.4 0 5.6-1 1.2-.4 2.7-.9 3.4-1q1.4-.4 1.3-.7.1-.3-.5 0-.5 0-.4-.1 0-.2-.2-.2m20-.3v.4q-.5.1.2.5 1 .3.4 0l-.3-.6q0-.3-.2-.3m-2.3.2h-.4c-1.2.2-6.2 2.6-6.2 3l.3.4q.5.4 2.7-.8l2.6-1.2c1.8-.6 1.7-.5 1.6-1q0-.4-.6-.4m18.4-.3q-.4 0-.4.2 0 .4.3.4c.5.2 3.5 1.7 4.6 2.5q2.1 1.3 2.3.4c0-.4-.5-.8-3.2-2.2-1.8-1-2.5-1.3-3.2-1.3zm-31.9.8-1.3.4c-1.7.5-1.7.5-1.4.1l.1-.3c-1 0-6.5 2-7 2.5q-.5.3.1.5.9.4 3-.5l6.6-2.5q.2-.2-.1-.2m30.3-.7-.2.1.1.5q.5.7-.3.6t-.2.6l.2.4q0 .2-.2.1-.5 0-.1.6l.1-.1q0-.2.3-.1.5 0 0-1-.5-.5.1-.3t.5-.3-.2-.7 0-.2l.3.2h.3q0-.3-.7-.4m21.7-.2h-.2q-.6 0-.8.2l.7.4 1.4.6 7.5 2.6a67 67 0 0 1 7.5 2.8q.5-.1.2-.5a35 35 0 0 0-6-3c-.7-.4-5.7-2-8.2-2.8zm-35.2 1v.1l-.1.3q-.5.1 0 .4t.3-.2zm-1.8.1h-.2l-1.4.5q-1.8.4-4 1.7-1.3.8-.8 1.2.4.5 3.4-1.3l2.3-1q1.1-.1 1-.7 0-.4-.3-.4M100 30q-.6.2.7 1.1l2.3 1.5q1.4 1 2 1 1-.1-.1-1.1c-.7-.6-4.4-2.5-4.9-2.5m-31 .8-2 .6c-3.8 1.4-4.3 1.7-3.8 2s1.2.2 4.3-1q4.7-1.8 2.6-1.4-.8.2-.8 0t-.3-.2m50-.9-.5.1q-1.5.5-.6.7l2 .7 10.5 3.7c3 1 4.1 1.2 4.3.7.1-.4-1.4-1-6.4-2.7zm-47.8 1.4c-.3 0-1 .3-3.1 1.2-2.3.9-2.9 1.2-2.9 1.5s1.5.3 2.6-.1c3.8-1.5 5-2 5-2.2q0-.2-.6-.2l-.8-.1zM86 31q-.1 0 0 .2 0 .2-.2.2-.1.1.3.5t.2.8q-.3.3.3.7t.3.8q0 .4.3.7.4.1.2.4c-.3.3-.2 1 0 1h.3v.5q.2.4.5-.2 0-.3-.1-.1-.2.1-.2-.4t-.1-.4q-.6.1-.3-.4.3-.2-.1-.6-.6-.3-.1-.6.3-.3.1-.4l-.6-.4q-.4-.4 0-.6.4-.3-.3-.7t-.2-.5 0-.3zm-1.3.3h-.4c-1.1 0-2.8.7-3.4 1.2q-1 .9-.9 1.3c.1.2 1 .1 1.2-.1.2-.4 1.6-1.1 2.6-1.3 1.3-.2 2-.6 1.1-.5q-.7 0-.2-.3t0-.3m15.1-.2h-.2q-.7.3.6 1.4l1.5 1.5q.8.9 1.4.7.5.1.5-.4-.1-.9-2-2.2-1.4-1.1-1.8-1m16.7-.3h-.3q-.4 0-.4.2t1.2.6l2.6 1c4.8 2.1 9 3.7 10 4l1.4.1h.4l.1-.5c0-.4-.4-.6-3.7-1.7l-8.4-3a9 9 0 0 0-3-.7m-43.2 1.4q-.6 0-2.4.7c-2.4 1-2.9 1.2-2.5 1.6q.1.3 4-1 3.6-1.1 2-1-.7.1-.7-.1t-.4-.2m41.8-.8h-.3l-.3.1a34 34 0 0 0 6.2 3l3.5 1.7q1.7.7 2.5.7c1.5-.1.9-.5-2.7-2l-4.2-1.7a20 20 0 0 0-4.7-1.8m-1.4.3h-.2c-.4.1-.3.2 1.1 1.2.9.6 2.7 1.7 4 2.3 2.3 1.2 3 1.4 3.4.9q.4-.2-1-1l-2.4-1.2c-.7-.2-2-.8-2.9-1.3q-1.5-.9-2-.9m-28.2.8c-.8 0-3 .6-3.6 1q-.7.6-.3 1.2.2.3 2-.5l1.4-.4q.6-.1.5-.4l.2-.5q.1-.3 0-.4zm27-.4q-.1.2.2.5c.5.3 3 2.4 3 2.6.4.3 1.3.9 1.8 1 .7.2.7.2 1.1 0q1 0-1-1l-2.1-1.4a13 13 0 0 0-3-1.7m-13.4.4q-.2 0-.2.6.1.5 1.3 1.7 1.3 1.3 1.6 1.1 1.3-.4-1.4-2.7-.9-.7-1.3-.7m11.3-.3s.5.6 1.1 1l3.8 3.3.7.2q.7-.2-.8-1.6-3-2.8-4-2.8zm-35 1q-.7 0-2.4.6-2.4.8-2.2 1 .1.4.5.4.8.3 3.5-.7 2.4-1 1.3-1-.4 0-.3-.1.1-.3-.4-.3m34-.8h-.2l-.7.3L110 34l2 1.7c.8.7 1.7.8 1.7.3s-.5-1-2.3-2.5c-1.1-.9-1.4-1-1.9-1m-1.5.5q-.2.1.4 1l.8 1.6q.1.5.7.7 2 .7 1-.8c-.7-.8-2.7-2.5-3-2.5m-28.8.7-.3.1-1.4.3c-.9.1-3.4 1.1-3.9 1.5v.5c.3.4 1.1.2 3.4-.7q3.1-1.4 2.4-1.3-.2 0-.1-.3m27.7-.5h-.8l.6 1c.7 1.1 1.3 2.5 1.1 2.5l-.5-.9-1-1.4q-.2-.8-1.1-.5-.8 0-.8.3l.6 1a8 8 0 0 1 1.7 3q.1.8-.4-.4c-.7-1.4-2-3.1-2.3-2.8l-.7.4-.5.2.8.9c1 1.2 1.8 2.7 1.8 3.2q0 .5-.4-.4l-2-3q-.3-.3-.7 0l-.4.6q0 .2 1 1.3t1.4 2l.5.9.5-.2.8-.4q.4-.2.6-.7t.4-.5c.4 0 .8-.7.8-1.1q0-.5.6-.8t.6-.7c0-.5-.6-2-1.2-2.8q-.4-.7-1-.7m-8.3.5-.2.5c0 .6 0 .7.8 1.5l1.3 1.3q.6.9.8.2c.3-.4 0-.8-1.4-2.3zM86 34c-.8 0-2.8.7-3.2 1q-.7.7-.1 1.3.4.4 1.3-.2.6-.5 1.4-.8 1.1-.3 1-.8 0-.5-.3-.5m-5.7.3-2.3.9c-2 .9-2.5 1.2-2.4 1.6.3.4 2.6-.2 4.6-1.3q1.4-1 .2-.7-.7.1-.2-.2.3-.3 0-.3m7.6 0-.2.2.3.1h.4l-.4-.2m-6.3 1q-1 .1-1 .8.1.4.7.3.7 0 .6-.7 0-.5-.3-.5m4.9 0c-.5 0-2.3.9-2.6 1.2q-.7.8-.2 1.2l.2.1 1-.6 1.5-.9q.5-.1.3-.6zm11.6 0q-.2 0-.3.3-.2.4 1 1.7t1.4 1.3c.4 0 .4-.8 0-1.3-.4-.7-1.9-2-2.1-2m-4 .4-.1.3q-.3.3-.3 0t.4-.3m-.7 0q.2 0 .1.2l-.2.2q-.2 0-.2-.2t.3-.2M80 36l-.7.3q-1.4.6-1.2 1c.2.3 1.3.3 2 0q.7-.3.3-.6zm12-.2v.2l-.2.2V36zm-1.1.1.2.2-.2.1-.1-.2m-8.6.8q-1.1.2-.7 1 .2.3.9.2t.7-.6-.5-.6zm11-.2.2.2-.2.2-.2-.2zm-1.7 0q.3 0 0 .3-.6.4-.4 0zm5.7 0q-1 .1.6 2 1.5 1.8 1.6.6c0-.5-1.6-2.6-2.2-2.6m-10.4.2q-.8.1-1.8.8-.7.5-.4 1.1.3.3 1.2-.4l1.1-.7q.5 0 .5-.4 0-.3-.5-.4m5.5 0-.1.3H92zm-14.9.4h-.3q-.3.2-.3.7 0 .9.5-.1zm11.1-.3h-.1l-.3.4q.2.3.5-.2zm-7.7.5-.4.3q-.7.9-.1 1.2.3.1.8 0 1-.3.5-.5-.7 0-.8-.8zm15.2 0-.4.4 1.2 1.6q1.8 2.1 1.8 1-.1-.5-1.1-1.7-1.2-1.4-1.5-1.2m-8.4.4-.5.1q-2 .8-1.6 1.5.6.4 1.7-.7 1-1 .4-1m-9.6.3q-.6-.1-.7.7c-.2 1-.2 1.2 0 1.9q.7 1 .7 0 0-.4.2-.7t.3-.5l.3-.8.3-.5-.8-.1zm23.4-.3h-.2q-.8.5.1 1.4.6.5 1.3 1.7 1.2 1.8 1.5.8c.2-.6-.7-2.3-1.7-3.2q-.8-.8-1-.7m-18.1.4c-.4 0-1.2 1-1.5 1.8-.3.6-.2 1.9.1 2.3l.7.2q.5.2.4-.8c0-.8.5-2.2.9-2.5.2-.2.2-1 0-.9zm5 0h-.1c-.4 0-1.5 1.4-1.4 1.7l.6.2q.4 0 .7-1 .6-1 .2-.9m6.8 0q0-.2 0 0l.5 1 1 1.7q.8 1.3 1 .3 0-.5-1.2-1.8zm-6.2.4c-.3 0-.7.7-.5 1q0 .2.4-.2.6-.9 0-.8m-9.5.3q-.4 0-.8 1.2a4 4 0 0 0 0 3l.4.6.3-1.2.6-2 .5-.8-.5-.5zm5.1.2q-.3 0-.7.8-.7 1.6-.2 3 .9 1.2 1-.7l.2-1.7c.3-1 .3-1.1 0-1.3zm15.9 0q-1 0 0 2l1.1 1.6q1.2 1.1 1.3.1c0-1.1-1.7-3.7-2.4-3.7m-19.1.5c-.4 0-1 1-1.4 1.8q-.9 2.3.3 3.7.3.5.5.4v-1q0-1 .3-1.5c.2-.5.4-3.4.3-3.4m4.3.4c-.7 0-1 2.6-.4 3.7q.2.7.7.2.4-.2.4-1.3l.1-1.5q.2-1.2-.2-1-.3.3-.3 0zm3.1.3-.3.2c-.4.3-.6 2-.5 3q0 .4.4.4.3.1.3-1.6l.3-1.7q0-.3-.2-.3m-1.1.1h-.1q-.6 0-.8.6a8 8 0 0 0 0 3q.6.7 1-1.7l.2-1.5q0-.4-.3-.4m1.7.1c-.3 0-.5 1.6-.2 2.3q.4 1 .3-1zm10.2 0-.4.4-.5.5.6 1 .8 1.4q.1.4.6.4t.4-.6q0-1.2-1-2.5zm5.6.9-.5.5q-.4.5-.6.5-.6.1 1 .8a14 14 0 0 1 4.9 3l1.3 1V47c0-.6-3.4-4-5.5-5.2zm-7.2.4-.1.2s.2.7.6 1.3q.6 1.2 1 1.2.6-.1-.4-1.7-.8-1-1.1-1m-.8.4q-.3 0 0 .4l.6 1q.5 1.2.6.5c0-.5-1-1.9-1.2-1.9m-15.5.5q-.2 0-.2.2c-.6 1.4-.3 3 .8 4q1.2.9 1 .1-.7-1.4-.3-2.7c.2-1.4.2-1.5-.2-1.3l-.7-.2zm1.8.8c-.3.3-.2 1.8 0 2.8q.5 1.6 1.7 1.9h.6l-.4-1.2a5 5 0 0 1-.6-2.2c0-1 0-1-.3-.9l-.7-.2zm5.5.4q.2 0 .2.5-.2.9-.3 0zm15.3-.1q-.5 0-.4.2t-.3.2.6.4 1.4.2c.7 0 .6-.6-.1-.8q-.6-.3-1.2-.2m-16.7.8.1.2q0 .5-.2.2zm14.5-.2h-.1q-.4 0 .6.7c1 .6 1.2.6 1.6.2q.5-.3-.3-.4-.6-.1-1-.4-.5-.2-.8-.1m4.8 0 .6.5 1.8 1.8q1.7 1.7 1.8 1c0-.2-2.7-2.5-3.5-3zm-6 .3h-.1c-.2.1.6 1 1 1.2q.9.3 1 0c.2-.3-1.6-1.3-2-1.2m-12.5.4.2.4-.2.4-.2-.4q0-.4.2-.4m18.3-.2.4.5.3.4h-.4l-.8-.3c-.4-.1-.4-.2 1.3 1.6q1.9 2 2.3 1c.1-.2-1.7-2.3-2.5-2.8zm-6.4.3q-.2 0-.2.5t.3.6h.7q.5 0-.1-.6-.4-.5-.7-.5m-12.8.7.3.4q0 .8-.3.1-.3-.5 0-.5m18-.2v.2q0 .6-.3.2l-.3-.2 1.2 1.4q1.2 1.5 1.7 1.4l.4-.2zm-16.3.7q.3.1.4.7 0 .5-.4-.1zm15-.2q-.6-.1.5 1.2l1.3 1.3q.6.4.7 0c0-.5-2.1-2.5-2.5-2.5m-.8.4.3.3q.3.4.2.6l.1.4.3.6.2.5q.5.5.9 0c.1-.2-1.2-2-1.7-2.3zm.2.6-.2.2.2.1q.2 0 .2-.2zm-15.6.4.2.2q.2.5.1.6c0 .1-.5-.5-.4-.8m.7 0 .4.4v.4q-.4-.1-.5-.6zm14.1-.1.1.5q.3.5-.1.2-.8-.5 0 .6c.3.5 1 .7 1 .3s-.8-1.6-1-1.6M90 48l.4.4.4.4q0 .2-.5-.3zm8.6.5.1.2q0 .3.3.3t.1.2q-.2.4-.6 0zm-4 1.5.2.4.4.4q.4 0-.2-.5z" fill="#69310b" stroke-width="0.277022" id="path7" style="display:inline"/><path d="M68.8 42.5h-1.4L66 43a5 5 0 0 0-1.5 1.4l-.1.2-.2.6v.4l.4.8.1.2.5.7 1 1.4-.5.3-1 .5a57 57 0 0 0-6.6 4 8 8 0 0 0-1.4 2.4l-.2.8v1.6l.2 1.6.1.3q0 .3.3.4l.3.2.2.1 1.3 1.2.1.3v.2l-.2.1-.1.1-.7.6-2.2 2.5-.2.5v.2l.1 1 .4 1 .7 2.6.4 1.2.2.2.1.1.5.1h1.1l1-.3 1-.3 1.1 1.4 2.1 2.7.3.2h.9l1.3-.4a25 25 0 0 0 7.2-3.6l2.2-1.2a71 71 0 0 0 7-5l.2-.2 3.1-2 2-.6h.2v.1q.1.2-.4 1.5l-.7 1.7h-.2l-2 .3a8 8 0 0 0-4.9 1.5l-.8 1.1v.9q.1.3 1.1 1l.2.2 2 1.7 1.5 1.4h.6l1.1-.4a22 22 0 0 0 4-2.2l2.4-2.2.3-.3a60 60 0 0 0 9.6-14.4l.3-.6 1.4.8 1.5.7 1.4.2h3.4a17 17 0 0 0 5.9-1.5q2.6-1.5 5.3-1.8 1-.3 1.3-.1v.3h-.2l-1 1q-.7 1-1.4 1l-.7.2-3.8 1a48 48 0 0 0-7.6 3.3q-.7.4-.9.8v.3q0 .4.3.7l.3.8.5 1 .5 1.4v.2h-.8l-.2-.1-.5-.3-.3-.1-1-.5-.3-.2q-.5 0-.8-.3l-.3-.1-1.3-.5-1-.3h-.3l-.4.2-.2.2-.3.4-2 4q0 .4.6 1l1.2 1.6 1 1.2 1 1.4.7.4 2.4.9 1.7.7 1.1-.8 1-.5.6-.3 1 .2 2 .3 4.2.6 1.6.1-.7.5-.4.4-1.5 1.7h.2l.5-.2 1-.6 1.4-.4v.1l-.7.7a6 6 0 0 0-1.5 1.8v.3h.2l.5-.3a10 10 0 0 1 6.5-.5h3q1.2 0 1.6-.7l.4-.5.4-1.1v-.2l.1-.5V74l-.5-1.6-.5-2.5-.1-.1-.3-.5q-.6-.4-1.8-.8a21 21 0 0 0-6.4-1h-.8l-1.2-.2h-1.4l.6-.7.2-.2.2-.3v-.7l-.3-.4-.6-.4-.5-.4-1-.8h-.1v-.1l.2-.1.8-.4 2.8-.8 1-.2 1 1 1.7 1.6 1.5.4h.7l4.6-1.5 2.6-.8.3-.2.6-.8.1-.4v-1.7l-.5-1.5-.5-2v-.3h-.2l-.2-.1a33 33 0 0 0-6.3-.4l.1-.1h.2l1.3-.2 2-.4.7-.5.2-.3v-.8l-.2-.4q-.1-.5-.5-1.1l-1.5-2.6-.6-.4h-.1l-.2-.1-.8-.2-1.6-.2a39 39 0 0 0-7 .4c-3.4.7-7.7 2.3-10.6 4.2a9 9 0 0 1-4 1.5h-.8q-.5 0-.8.4l-.1.1-.2.2-.8 1-1.2 1.1-1 .9h-.2l-.2.3-.9.6-1.8 1.5-1.4 1.4-.3-.9-.2-.6-.7-.7-.4-.2-1.2-1-1.2-1h-1l-2.2.5.6-.9.9-1.3v-.2l-.1-.2a3 3 0 0 0-1.2-1.3l-.4-.3-1.3-1.3-1.3-1.4-1.5.2a40 40 0 0 0-10.3 3.4h-.2a29 29 0 0 0-5.4 3.4l-2 1.3-2.7 1.6h-.2l-.5.2H61q-.3 0-.5-.2h-.1l-.2-.4v-.8l.1-.6.4-.5.2-.3c.6-.6 1.2-1 3-2l7.3-4.3.2-.4.1-.3.1-.5V49a24 24 0 0 1 .5-4.4l-.2-.8q-.3-1-1.2-1.1h-.2l-1.3-.2zm.6.3.2.2.5 3-.5-1.4-.3-1.6zm.6 0h.2v.1l.2.2.1.1.2 2.4-.3-.5-.2-.5zm-1.5 0 .2.1.1.3.1.3v.5h-.2l-.1-.2h-.1zm-.8 0 .2.3.3.5v.4H68l-.4-.4q-.3-.6-.1-.7zm3.3.3q.3.4.4 1l-.1.5-.1.3H71v-.3l-.2-1.4zm-4.3 0h.2q0 .2.2.2l.3.5V45l-.1-.1-.7-1.6v-.2zm-.9.4.2.2.2.3 1 2v.2H67V46l-.4-.4-.8-1.8zm-.5.6.2.1.5 1 .4 1v.2h-.3l-.5-.5-.6-1.4v-.3zm-.7 1 .5.6.2.5v.2H65l-.3-.3-.1-.3zm4.1 1.1.2.5v.2h-.2q-.3-.3-.2-.5v-.3zm-.7.2q.2.2.3.7v.2H68q-.2-.4-.1-.8m-.6.3h.1l.2.2.2.3v.5h-.1l-.3-.3-.2-.4zm-.7.2h.2l.2.5.2.5v.2H67c-.3-.3-.7-1-.6-1zm-.8.2.4.5q.3.5.2.7l-.7-1zm60.4 1.6h.3v.1h.2l.5.5v.3q-.2.3-.5-.1l-.3-.3q-.2-.1-.4 0v.4q0 .2.5.6l.6.8v.7l-.2.1-.3.3h-.7l-.2-.2-.5-.5-.2-.2v-.4h.3l.4.4.4.3h.3V51l-.1-.1-.3-.3-.4-.5-.2-.5v-.4l.1-.1.2-.2.2-.1zm-2.3 0h.2l.1.1v.2l-.5.2-.3.1V52h-.2v-.1h-.1l-.1-.4v-.2l-.2-1.4-.1-.3-.2-.2-.3-.2-.5-.2h.7zm-3.2.3h.1l.3.6.2.9.2 1v.4h-.1v.2h-.2V52l-.3-.6V51l-.2-.4h-.7q-.2 0-.3.2v1.5q-.3 0-.4-.2v-.4l-.2-.7q0-1-.3-1.4v-.4h.2v.1l.2.4.1.2.1.1.2.1h.7l.2-.1v-.5q0-.4.2-.5m-53.1.2h.3l.6.3.1.2v.7l.1.7.2.3.3.4-.1.3-.4-.1-.2-.2-.3-.3-.4-.1h-.1l-.1.1v.9l.1.3v.3h-.3v-.1l-.4-.5-.8-2.2c0-.2 1.3-1 1.6-1m48.8.5h.5l.1.1h.1v.3H116l-.1.1v.7l.3.7.4.7.2.1h.4l.3-.2V52l-.3-.3h-.1l-.1-.1q-.2-.3.6-.6h.7v.3q-.2 0-.2.3v.5l-.1.6-.3.4-.6.3h-.3l-.3-.2-.3-.4a4 4 0 0 1-.8-2v-.6l.2-.2h.1l.1-.1zm-48.9.2h-.3l-.2.3-.2.3.1.3q.2.3.7-.2t.3-.5L68 50zm46.2.6.3.2.3.4 1 2.6v.2l-.1.1h-.2l-.3-.3zm-49 .2q.3 0 .5.6l.5 1.1v1.2l-.1.2-.3.3-.9.3-.3-.1H64V54l-.2-.1v-.2l-1-2 .2-.2h.1l.2.2.2.5.5 1 .2.2q.2.3.4.3h.1q.2 0 .3-.2l.2-.2V53l-.2-.7zm47.2.6.5.2.3.4v.5l.2.5.4.8.4.5.1.3v.1l-.2.1q-.4 0-.7-.7l-.2-.2-.3-.3h-.1l-.3.1q-.6.3-.1.8l.2.8v.1l-.2.1-.2-.3-.2-.2-.8-1.7-.4-1.2h.1l.7-.5.5-.1zm0 .6h-.3l-.4.1v.1l-.2.3.1.3.1.2h.1l.2.1h.2l.5-.4q.3-.3.2-.5l-.3-.2zm-50.7.8h.2l.2.1.3.2.6 1 .2.6v.5l-.3.6-.8.4h-.4l-.5-.2-.2-.3-.2-.3L60 54v-.6q.4-.4 1-.6zm65 .3.1.1.2.3v.5l-.2.4q0 .3-.2.3l-.1-.1-.1-.3V54l.1-.9zm-1 0 .3.3v.9q0 .4-.2.4h-.3v-.2l-.2-.2v-.8l.1-.3zm-1 .1q.2 0 .2.8 0 .6-.2.7h-.2v-.2l-.1-.1v-1zm3 0v.1l.2.6-.1.6-.2.1h-.2v-1.3zm-66.1.2H61l-.3.2-.1.4v.8l.3.5.2.2.2.2h.2l.5-.3.1-.3v-.4l-.5-1zm66.9 0 .2.2v.6l-.1.2-.1.1h-.1q-.4-.4-.1-1zm.8.2q.3 0 .3.3l-.2.2h-.1zm-5.4.1v.8q0 .5-.2.5-.3-.4-.1-1v-.2zm-.9.9.1.2-.1.4h-.2v-.4zm-35.2 1.4.1.2-.3.3H87v-.1q0-.3.3-.4m-1 .2.3.1v.5l-.2.3H86v-.8h.2m40 0 .1.1.2.5v.7l.2 1.2v.1h.1l.2.2h.5l.6.1q.3 0 .3.2v.1q-.1.3-1.1.3h-1.2v-3.2q0-.2.2-.2m-2.9 0 .2.2v.3l-.1 1.2-.3 1.7v.2l-.2.1q-.2 0-.5-.3l-.2-.3-.3-.8-.1.9-.2.7h-.1l-.1.1h-.1l-.1-.1-.3-.5-.3-.7-.7-2v-.3h.1l.7.8.3.7h.1v-.1l.1-.3.4-1.3h.3v.2q.2 0 .3.4l.4.7.2-.6.3-.6v-.1l.1-.1zm6.2 0v.1l.1.1v.1l.1.6v.6l.1 1.4.9.1.7.2.1.1v.3l-.3.2h-.4l-1.6-.3v-1zm-4.9.1.2.2v.2l.2.7.2 2.3-.2.1h-.3v-.3a12 12 0 0 1-.2-3.2zm-39.5.2h.2l.2.2q.2.4 0 .7-.2.4-.5 0V57l-.2-.4q0-.4.3-.3m-1 0h.3l.2 1v.3h-.3v-.1l-.2-.2-.1-.3v-.6zm-.8.3h.2v.1l.1.1.2.7v.3l-.3.1-.4-.4-.1-.6v-.2l.1-.1zm-1 .2q.3 0 .5.7v.4h-.4l-.3-.2v-.2l-.1-.3V57zm-.9.3v.2l.2.1v.7l-.2.1h-.2V58l-.1-.1v-.6zm-1 .5.2.1.1.4v.4h-.3v-.2h-.1v-.6zm35.5 0 .3.1v.1l-.1.1-.4.2-.3.2q-.6.2-.7.6l.3.3h.3l.5.2v.2q0 .2-.2.3-.5 0-.3.6v.3h.2l1-.2h.5q.1 0 0 .2v.2l-.2.1-.5.3-1 .4h-.4v-.2l-.1-.1-.1-.4-.6-3 1.4-.4zm-36.3.4v.1l.2.1v.2l-.2.2-.1-.1-.2-.2V58zm8.5 0 .1.1v.1l-.1.1h-.1v.1l-.2.1h-.1l-.3.2q-.5 0-.7.4v.5l.6.3h.6v.3h-.2l-.3.1-.2.3v.1l.1.5.2.1h.8q.7-.2.8-.1l.1.2-.1.2-.7.2-.6.2c-.8 0-.8-.2-1.3-1.6l-.5-1.7.5-.2zm-9.3.2h.2v.2q0 .2-.2.2l-.2-.1v-.2h.2m4.5.1q.1.3-1.1 1a69 69 0 0 0-7.5 5.3l-4 2.4-3.4 1.6v-1.9l-.1-1.6h-.7l-.5-.1H66v-.3l.3-.2.8-.6 3.7-2.4 4.2-1.8 4.2-.6zm-5.3.2h.2v.1H78q-.3 0 0 0zm34.8.3v.1h.1v.1l.1.1.1.5.3 1.5v1.4q-.3.5-1-.6l-.5-.8v2.2l-.1.1-.4-.2-.6-.8-1.1-1.8q-.1-.3 0-.4l.2.2.6.6.8.9v-1.2q-.3-2.2.7-.6l.6.6v-1.9zM98 59h.3l.2.2.4.3.4.6v.1h-.9v.3l.1.1h.1v.4h-.1q-.1.1-.4-.2l-.2-.1-.3-.6-.2-.4v-.2l.2-.3h.1zm.1.2-.1.2v.5l.6-.2v-.3h-.2q0-.2-.2-.2m-13 .4.2.3v.4l-.2 1.3L85 63l.6-.4.7-.3h.1l.1.2v.2l-.3.2-.6.5-1.1.6-.1-.2v-1.1l.2-1.4v-.8l-.6.3-.4.2H83v-.2c0-.3 1.5-1.1 2-1.1m-25.8.3h.1l.1.2h.1v.2h-.2l-.2-.4m37.2.5h.1l.3.1.3.4.4.9v.7l-.1.6h-.1q-.7.4-1.3 0l-.5-.7-.2-.5v-.3q.3-.1.6.4l.5.5h.4v-.8l-.3-.6-.2-.4zm-37.8.5.4.3.3.3v.2q0 .2-.2 0l-.5-.6zm68.5.1h.1l.1.1.1.2.2.3.2.9v.7q0 .3-.2.3h-.2l-.2-.3-.2-1.5zm-1.7 0 .1.1.1.2.2 1V64h-.2q-.1.1-.3-.7V61m2.7.1h.2l.2.3.2.3.1 1.2v.1h-.5v-.2l-.1-.2v-.2l-.3-1.2zm2 .1q.3 0 .4.2l.2.4.1.4v.5h-.5v-.1l-.3-1.3zm-3.8 0v.1l.1.1.2.5.2.7v.1l.1.4v.6h-.4l-.1-.2-.1-.4-.1-.7v-1.1m2.9 0 .2.2v.1l.1.2.2.7v.4h-.2q-.2.2-.5-.4l-.1-.6q-.1-.5.2-.5m-4.6.1v.3l.2.6.1 1.7h-.2l-.1-.2-.1-.2v-2.1m-.7 0 .1.1.1.9.1.8.2.6.1.5v.1l-.5-.2q0-.2-.3-.5-.4-.7-.4-1.6v-.4q0-.2.4-.2zm7.4 0 .1.1v.1h.1v.2h.1v.5l-.1.2v.1h-.2c-.3-.3-.5-1-.3-1.2zm-49.7.2.2.2.6 1 .1.2c.6 1 .8 2 .6 2l-.3-.4-.5-.8-.8-1.6-.2-.4.1-.1zm50.7 0 .2.1v.6h-.3l-.1-.1v-.5zm-9.5.1v.2l.4 1.3.1.7q0 .1-.4 0-.3-.2-.3-1.2v-.8zm-30.2 0 .2.1v.3h-.1l-.3-.2V62zm29.5 0 .1.3v.8h-.2v-.2l-.2-.8v-.1l.1-.1zm-30.7.6h.6l.3.1h.1l.1.1v.2l-.4.2h.2l-1-.3h-.1v-.2l.4-.1zm-11.3.6h.2l.3.2.2.2.1.7v.5l.2.3.3.3q.5.4.5.6v.1l-.1.1q-.3.1-.4 0l-.4-.2-.2-.2-.5-.3h-.2l-.2.1v.4l.1.6.1.2v.6h.2l-.5-.5-1.1-2.8v-.1l.2-.2.4-.3zm14.2 0h.3l.6.6.4.9v.7l-.2.4h.1l-.1.2-.3.2h-.4l-.3-.2h-.1l-.3-.4-.3-.6-.1-.5v-.5q0-.4.4-.6zm-4 .2 1.5.2h.1v.2l-.2.1h-1q-.7-.1-1-.4h.1zm-10.4.4h-.1l-.4.3-.4.4v.3q.5.3 1-.1v-.1l.2-.3V64l-.1-.2zm14.4.1h-.2l-.2.3v.4l.2.6.2.3h.5l.1-.1.1-.3v-.4l.3-.6-.1-.2-.2-.2h-.1v-.1zm-4.8.1 1.1.2.7.2h.1v.1h.1l-.3.1h-1.4l-.3-.2V64m25.9.2.3.1.2.2h.1l.5.4.1.2q0 .2-.2.2-.5.3-.7 0l-.4-.9zm-.8 0 .2.2.2.2.5 1v.2h-.3l-.1-.1-.2-.1-.2-.3-.3-.5V64zm-1 .4.2.2.8 1.2v.1q0 .3-.2.3h-.3l-.1-.1-.3-.3-.1-.2-.2-.2q-.3-.7 0-.9zm-24.3.3h.3l1 .2.2.1v.2h-.2l-1.1-.1q-.3 0-.3-.3zm23.4.3h.2l.1.2.4.5q.4.7.3.9h-.3l-.2-.2-.7-1v-.3zm-35.5 0 .2.1.2.1.2.3v.2l.1.3v.5l-.3.2-.8.8-.1.1.2.7.2.2.2.6v.2l-.1.1h.3l-.6-1-.8-1.6-.4-.7.4-.4.3-.2zm39.9.3.3.1.4.5v.4l-.1.1h-.2l-.5-.4-.2-.5v-.1zm-5.2.1.2.2.7 1v.3h-.2l-.5-.5-.3-.4-.2-.4zm-22.8 0h.3l.3.2.3.1v.3h-.3l-.7-.1-.2-.3v-.1zm-12.2.3H76l-.1.2q-.3.1-.3.5l.1.4h.3l.5-.3.2-.3v-.3l-.1-.1zm-10.6 0 .2.3v.8h-.2l-.1-.2-.2-.6V66zm.8 0 .1.2v.2q0 .2-.2.1zm49.2 0 .4.4.5.5.2.2v.2h-.4l-.1-.1-.6-1zm-51 .2q.3.1.4.4l.2.6v.2q0 .3-.2.2h-.1V67zm45.7 0h.2l.3.3.3.3-.3.1h-.1l-.5-.2q-.6-.3 0-.5zm4.6.3.3.1.2.2.5.6v.3l-.2.1h-.2l-.5-.5-.2-.4-.1-.2V66zm-26.8 0h.2v.1q0 .2-.2.3H88v-.1q0-.3.3-.3m-24.1 0 .3.6v1H64v-.1l-.1-.1v-.2l-.3-.7V66h.2m50.2.4.2.2.2.2.1.2v.1h-.6V67l-.1-.2v-.3zm-51.2.3h.2l.1.1.2.3.1.5v.2l-.1.3h.7l-.2-.3-.1-.2-.1-.5v-.3zm50.5.2q.1 0 0 0h-.2zM67 67q.2-.1 0 1.6v.4h-.1l-.1-.1V68zm24 0h.2l.4.3q.3.4.3.8l-.2 1.2-.2.4-.5.6h-.2l-.2-.1-.3-.5-.7-2q0-.2.6-.5zm-27.9.4h.1l.2.3q.1.5 0 .8H63l-.1-.3q-.3-.6 0-.7zm23 .1a.1.1 0 0 1 .2 0v.3H86q0-.3.2-.3m-1 0 .2.2.2.1v.4l-.2.1h-.2L85 68v-.4zm-18.9 0 .1.1v.2l.1 1-.2.4V69l-.1-.3v-.9zm24.4.1q-.2 0-.1.4l.1.6.3.5q0 .2.2.1l.3-.4q.2-.5-.1-1l-.3-.2zm-6.7 0q.3 0 .4.3l.2.4v.3H84l-.3-.3-.3-.5v-.1zm4.6.4h.2l.4.8.8 2.4v.1q-.1.1-.4 0h-.2l-.2-.2-.5-.4-.6-.6-.2-.1v.1l.1.8.3 1v.2L88 72l-.2-.4-.1-.2-.8-2.4v-.3h.4l.3.2.5.6 1 .8-.3-1-.3-1.1zm-26.2 0h.3v.8h-.3q-.3-.3-.2-.7zm20.5 0 .3.1.5.6v.3q-.2.2-.8-.2l-.2-.4V68zm-17.2 0 .2.6v.7l-.1.3h-.2v-.2l-.1-.4v-.7zm6 .2.1.2v.1l-.2.2-.6.3q-.8.4-.7.8v.1q.1.3.6.2h.4q.3 0 .3.2v.1l-.2.1-.2.2-.3.1v.6l.3.3h.2l.6-.2.8-.4h.1v.4l-.4.3-.7.5h-.2l-.1.1-.4.2-.2-.1-.4-.8-1-2.4.2-.1.5-.4q.4 0 .7-.3l.3-.3zm-6.7.1.1 1v.7l-.2-.7v-1m17 0c.4.3.6.9.5 1q0 .4-.4.1l-.1-.1-.2-.2-.2-.3v-.5h.2m-17.7.3.2.3v.9q-.2 0-.2-.2V69zm-2.7 0 .3.2v.4q0 .3-.3.3h-.2q-.2-.4 0-.7zm19.4.2.5.5.3.5-.2.1h-.1q-.2 0-.3-.2l-.3-.7zm-17.4.2.1.2v.2l.1.3v.5h-.3V70l-.2-.5zm-.7.3v.2h.1v1h.2l-.3-.2v-.1l-.2-.3q0-.4.2-.6m-2.1 0 .2.2.1.2v.3h-.3l-.1-.2v-.1zm40.7 0 .3.2h.1l.1.2h.1l.1.1v.1l.2.1.2.3 1 1.6v.2l-.3.2-.1-.1-.3-.4-1.7-2.5zm-21 .2.2.2v.2q0 .2-.2.2l-.3-.1v-.5zM62 70h.2l.1.5-.1.4-.2-.1v-.2l-.1-.3zm23.1 0h.2l.1.2.3.3 1.2 2v.6h-.2l-.1-.2-.1-.2H86l-.4.1-.2.1q-.3.3-.3.5l-.2.5q-.2 0-.3-.3v-2c0-1.4 0-1.6.4-1.6m-25 0 .3.3.1.3.1.6v.5h-.2v-.2l-.5-1V70zm8.3.2v.2l.1.1v.7l.1.5V74l-.1.2h-.3l-.5-.7-.5-.8H67v.3l-.2.8v.7l-.2.3h-.1l-.2-.2-1.8-3h.7l.3.4.2.3.4.7v-1l.2-.6.1-.2v-.1h.3q.2 0 .3.2l.3.4.5.7v-1l.2-1zm-7 .3.2.1v.2h-.4zm42 0 .4.3.6.8.1.3-.1.2h-.1q-.2 0-.3-.2l-.4-.6V71l-.2-.1v-.3zm-44 .2.4.6.2.5q.1.5-.1.5l-.1-.1h-.1l-.2-.3q-.4-.5-.4-.8l.1-.3zm25.8.3v1l.2.1h.3q.1-.3-.2-.8zm19.7.2.2.1.1.1-.3.1-.2-.1zm-46.3.3q.3 0 .5.4l.2.5v.2H59v-.1l-.3-.3-.1-.2v-.1q-.3-.3-.1-.4m47.4.2h.2l.9.3 2.2.8.3.2v.2l-.1.1h-.4l-.3-.1zm-47.9.4h.1l.2.2v.2l-.1.2q-.3 0-.3-.4zm47 0h.2l.9.4 2.6 1.3-.6-.1-1.5-.6zm-.9.7h.4l.6.2 2.7 1v.2h.1v.2q-.2.1-1.3-.5l-2.7-1v-.1zm17.3 1.8.2.1.1.2v.3l-.2.2h-.2l-.1-.3v-.4zm2 0 .2 1 .2 1.5h-.4l-.2-.3v-2.3m-1 0q.1-.1.3.5l.2 1.2v.8h-.5l-.2-.5v-1.8zm1.9.1q.3 0 .4.9l.1 1.4v.4l-.1.1v.1h-.1l-.2-.2-.1-.5-.1-1zm-4 0 .3.2.1.1v.2l-.3.1h-.2V75l-.1-.2v-.2zm5 .2c.3 0 .7 2 .6 2.6v.2h-.1q-.2.2-.5-.4V77l-.1-.7zm-5.8 0 .2.2v.4h-.4V75l.1-.3zm6.8 0 .1.2h.1l.2.6v.4l.3 1.4q-.2.4-.6 0l-.3-1.6v-1zm1.1.4q.3 0 .3.8v1q-.1 1-.5.1l-.1-1.3zm-8.6.1v.2l-.3.2v-.1l.1-.2zm9.6.6.2.3v.8h-.2l-.1-.3-.1-.6zm-6.9 0 .3.8v.1q-.3.4-.5-.2l-.1-.6q0-.2.2-.2m-.8.3h.2v.7q0 .3-.4.1v-.7zm-.9.4.1.2v.5h-.2l-.2-.1v-.5zm-.8.7h.2l-.3.3q-.3.3-.3 0v-.1z" fill="#0a1e65" stroke-width="0.0781815" id="path8" style="display:inline"/><g fill="#ffffff" id="g14" transform="translate(-239 -110.6)scale(.92981)" style="display:inline"><path d="m322.1 192.2.7-.7c.1-.1 0-1.1-.3-1.2l-.4.4-.3.4c-.2 0-.8-1.5-1-2.2q0-1-.6-.5c-.3.3-.3.4.4 2.4l.5 1.9q0 .7 1-.5m2-2-.5-2c-.6-2-.8-2.2-1.1-1.7-.2.2-.1.6.4 2.1l.6 2q.4 0 .7-.4m2.7-2.2q.6-.6.6-1 0-1-.6-1-.4 0-.3-.6-.1-1-.8-1c-.4 0-1.7.8-1.7 1l.4 1.6.5 2v.4l.7-.4zm-1.3-.5q-.3-.4.1-.7.3-.2.7 0 .4-.1 0 .4-.4 1-.8.3m-.4-1.5q-.4-.1 0-.5c.3-.3.7 0 .4.3q-.1.4-.4.2m5.3-.3c.2-.2-.1-1-.4-.9l-.5.4q-.7.6-.8 0 0-.4.2-.7l.5-.5q-.1-.7-.5-.4l-.4.1q-.5-.2.4-.8.6-.4.4-.7.1-.6-.5 0l-1 .5q-.5.4-.4.7l1 3.4zm1.3-1.5c-.2-1 .5-1.3.9-.4q0 .3.4.2.7-.3.1-.7-.4-.3-.1-1 .3-1.2-.7-1.7-.8-.2-1.7.5c-.3.2-.3.3-.1 1.3l.4 1.7q.2 1.2.7.8.3 0 .1-.7m-.3-1.7-.3-.5q-.1-.4.4-.6c.8-.5 1.1.3.4 1q-.4.3-.5 0m14-4.5q0-.6-.7-1.3h-.9q-1-.2-.5-.6l.9-.1q1 .1.7-.5t-1.8 0q-1.1.7-.7 1.5 0 .3.7.3c1 0 1.1 0 1.3.4q.5.8-1.2.6-.3 0-.4.2v.5h1.7c.3 0 .9-.7 1-1m-9.6 4.2-.3-1.3q-.6-1.4 0-1.7.4-.2.3-.6v-.3l-1.3.7q-1.6.9-1.2 1 .1.1.4 0 .7-.4 1 1.2.4 1.8.8 1.5.3-.1.3-.5m2.4-1c.1-.3-.7-3.3-.9-3.5l-.6.3.3 1.3.5 1.8q.1.6.4.4.3 0 .3-.4m3.9-2c-.2-.3-.2-.3-1 0q-1.1.4-1.1.1-.4-.7.8-1 .6-.2.4-.5 0-.4-.7-.2-1 .4-.8-.1-.1-.3.8-.6t.6-.5c-.1-.4-.2-.4-1.3.1l-1.2.5.2.6.3 1.6c.4 1.7.3 1.6 1.8 1 1.3-.6 1.3-.6 1.2-1" id="path13"/><path d="M394.8 195.9c-.2-1.8-.3-2.1-.8-2q-.4-.1-.1 1v.7q-.4.1-1.2-1.2-.5-.8-.8-.6l-.3.1.2 1.8q.1 2 .4 2 .6.4.4-.9 0-1.4.6-.4 1 1.2 1.6 1.3c.2 0 .2-.2 0-1.8m-4.2 1.6-.2-2-.3-1.9h-.3q-.5-.2-.4.6c0 .8.4 3.2.6 3.4l.3.2zm-1.7 0q.1-.2-1-2.3c-.7-1.6-1-1.9-1.3-1.8q-.3-.1-.7 1.6c-.5 2.1-.5 2.5 0 2.4l.4-.4q.2-.4.8-.2.6.1 1 .5.6.6.8.2m-2.1-1.6c-.2 0-.2-.9 0-.9q.4.2.4.8 0 .4-.4.1m-2.8-.2c-.1-1.6 0-1.7.7-1.7q.6 0 .4-.3 0-.4-.4-.5l-2.8-.3q-.6.5.5.8l.6.2.1 1.5c0 1.6.2 1.9.6 1.8s.3-.2.3-1.5m-2.8-1-.2-2.1h-.4c-.3 0-.3 0-.3.9v1q-.2-.1-.8-1.1-1-1.7-1.4-1v1.8c0 1.4.1 1.7.3 2h.5q.3 0 .1-.8v-.8l.9 1c.6 1 .7 1 1 1h.4zm-4.8.8c.2-.3.2-3.6.1-3.8h-.4c-.3 0-.3 0-.3 1.1-.1 2.6-.1 2.7.1 2.8q.4.2.5-.1m-2.3-2.7c-.5-1.8-.7-2.2-1-2.2s-.3.1-1.3 1.8c-.8 1.5-.8 1.7 0 1.6.7-.1 1.6.2 1.8.7.1.2.7.4.9.1zm-1.3.4q-.6-.1 0-1 .3-.8.5.5.2 1-.5.5m-2.3 0v-3.5q-.1-.3-1 .4-.7.6-.9.5l-.3-1q-.1-1.2-.5-1.1-.4-.2-.5 0c-.2.5-.6 3.2-.5 3.4q.4.5.7-.4.1-1.3.6.2 0 .8.3.9l.5-.6q.5-.6.7-.6.3.2.2 1.2v.8q.6.4.7-.2" id="path14"/></g></g><g id="g16" style="display:inline"><path d="M140.8 0h48.1v126.2h-48.1z" fill="#d80025" id="path5" style="display:inline;stroke-width:0.929813"/><path d="M0 0h48.1v126.2H0Z" fill="#0a1f62" id="path6" style="display:inline;stroke-width:0.929813"/></g><g fill="#d80025" stroke-width="1.00105" transform="matrix(.71438 0 0 .65943 -455.7 92.4)" id="g13" style="display:inline"><path d="M2681.6 9.3c-7 0-12.5 5.6-12.5 12.5v32.9c0 6.9 5.6 12.5 12.5 12.5h14.7c6.9 0 12.5-5.6 12.5-12.5V21.8c0-7-5.6-12.5-12.5-12.5zm7.3 8.4c4 0 7.4 3.2 7.4 7.3v26.5a7.3 7.3 0 1 1-14.7 0V25c0-4 3.3-7.3 7.3-7.3" transform="scale(.28222)" id="path9"/><path d="M2642 9.6v.8a7 7 0 0 1 3.5 6v45q-.2 4-3.5 6v.7h18.8v-1.4a7 7 0 0 1-2.7-5.3v-45q0-3.5 2.7-5.5V9.6Z" transform="scale(.28222)" id="path10"/><g fill-rule="evenodd" id="g12"><path d="m787.9 2.8-7 14.6s0 1.2-1.4 1.5h3.6s-.6-.4-.4-.9l.5-1.1h7.1l.7 1.2s-.3.8-.9.8h6.2s-.8-.4-1.1-1.1zm-1 6.4 2.6 6H784z" id="path11"/><path d="M2771.8 9.8h-.3.7zm-.3 0h-11.8c2.7 2.8 1 4.8 1 4.8l-5.3 20-9.1-24.7h-1L2734 34.4s-3.8-16.6-4.2-19.1c-.2-2 1.5-4.3 2.4-5.4H2713c4.1 2.8 4.1 4.4 4.1 4.4l12.1 52.8s10.2-27.6 11.1-30.5 2.6.6 2.6.6l11.1 31.5s13.7-51.2 14.6-55.3c.7-2.8 2-3.4 2.8-3.5" transform="scale(.28222)" id="path12"/></g></g></svg>