<svg width="950" height="500" id="svg55" viewBox="0 0 950 500" xmlns="http://www.w3.org/2000/svg"><g id="g56"><path d="M0 500h950V0H0z" style="display:inline;fill:#006;fill-opacity:1;stroke:none;stroke-width:.4;stroke-dasharray:none" id="path1"/><path d="M475 354a104 104 0 1 0 0-208 104.1 104.1 0 0 0 0 208.1" style="display:inline;fill:#f6c604;fill-opacity:1" transform="translate(0 -14.9)" id="path2"/><path d="M474.9 350.6a100.5 100.5 0 1 0 0-201.2 100.5 100.5 0 0 0 0 201.2" style="display:inline;fill:#fff" transform="translate(0 -14.9)" id="path3"/></g><g style="display:inline" id="g37"><path d="m336.6 295.4-1.4 1.6c2.6 1 14.9 20 16 21.8.5.6.4-1.6.4-1.6.5-1.5-13-21.5-15-21.8" style="fill:#396d4b;fill-rule:evenodd" transform="rotate(.3 1423.8 3127.7)scale(.97095 1)" id="path4"/><path style="fill:#31a17f;fill-opacity:1;fill-rule:evenodd" d="m616.9 253-1 12.4c.7 0 1-.7 1.7-.7.3-1.8.6-8.7 1-11.5-1 0-.6 0-1.7-.2m-.2 26.3H613c.2 1-7 23.6-7 23.6l-5.8 13.4 1.3 1.5 6.2-14c.9-1.2 9-24.5 9-24.5m-261 38c-.4 1.4-3.7-.9-3.6-.6 1.5 2.6 3.7 5 5.2 7.9 0 0-1 0-.6.9.3.7 1.1.3 1.7.9.7.7 1.6 2.2 1.5 2.7s-2 .5-3 .9q-2.2.9-4.3 2.5l-.7.7c2.3-.1 3.3-1.2 5-1.4 2-.2 6 .2 6 .2l7.8 9.9c-1.4-.1-6.1-1.5-7-1.1v.8c1.6.2 4.3.4 5.8.8 2.2.6 4.8 3.6 5 4.1.9.1-.1 2.6-.7 3.4l-.2.5 2-.3c2.3-1 3.9 1 5.4 2.1.5.5.4.5.8 1.1-4.3.4-4.2 1.6-6.4 2.2s-7 1.2-7 1.2 1.4.9 2.2 1q4.8 1 9.7-.5c1.4-.4 3.6-2.2 3.6-2.2 3 2.5 3.4 3 6.2 4.6-7-1.3-7 2.2-10.4 3.5l-5.6 2-5.3 2.3c6.3.8 7.7-.1 11.5-.4 5.2-.4 8.6-8.9 15.5-1.8-1.1.3-4 2-5.6 3.5s-3.3 5.4-3.3 5.4l-10.7-1.4c.5.7 6.7 4.4 7.7 5l-3.4 4.6c2-1.4 3-3.1 5.4-3.6.6.4 4.4 1 6.6.8 2.6-.3 5-1.8 7.5-3l3.7-2.1 2-1c.6-.1 3-1.6 3.7-1.3 1.8.5 5.9 2.7 5.9 2.7-3.8.6-8.3 3.4-10.7 5.6-8.2 7.6-9.8 6-20.6 10.6 1.2 1 11.5 0 11.5 0 8.6-.8 9.8-3.8 16.3-8.6l3.7-2.5q2.1-1.2 4.6-1.8c1.8-.7 5 1.5 5 1.5s1.4.6 2.1 1.3a14 14 0 0 0-7.5 2.9c-2.9 2-4.6 5.8-6.7 8.3-1 1.1-1.5 1.7-2.7 2.6-3.1 2.3-3.3 2-7.1 3.4 5.8.1 11.7-2.8 16.7-6 2.4-1.5 3.7-4.7 6.2-6.2 2.6-1.6 8.8-2.6 8.8-2.6l4.7 1.9c-5.3 2.7-8.7 2.6-13.2 10.5-2.1 3.8-3.7 5.1-5.7 7.5-1.2 1.4-3 2.3-3.7 4q-.4 1-.1 2c5.7-1 13.1-5.9 15.6-8.7 1.6-1.8 3-5.2 4.7-7.5s5.9-6.4 5.9-6.4l8.5.7c-1.7.4-10.3 3.7-12.2 6.5-2.3 3.3-.7 10.3-8.5 15.6-1 .8-.5.2-1.5 1.3.6-.1 7.3-3 8-3.4q2-1.1 3.3-2.5c.8-.7 5.3-7.6 6-9 2-4.5 3.7-8.4 10-7.8l3.5.5c-1 .5-4.4 8.8-4.4 8.8s-5 1-7 2.2c-1.6 1-4 4-4 4s1.2 1.4 1.9 1.5c2.2.4 5.2-2.7 8.7-4.7.4.7-4.3 11.8-6 16.4-1.5 3.7 4-5 5.8-7.6 1.6-2.6 3.3-5.2 4.1-8.2l.1-2.5c1.4-1 .7-.7 2.2-1.6l8.5-4.6c1.3-.7 2.6-1.6 4-1.8q.8 0 1.4.2c3.4 2.6 7.7 4.8 10.9 7.7a8 8 0 0 1 1.5 2.3l.4 1.2q.7 1.8 2 3.2 1.1 1.4 2.7 2.4l2 1.2c2.1 1.4 3.7 2.4 6.1 4.3.3-3.3-3.2-9-6.1-12.6-1.5-2-5.2-4.2-5.8-4.6-.1-.6-1.2-4-2.3-6.5 1.7-.5 5.3-1.2 7.3-1.1 6.5.2 5.4 4.6 10 10.3a19 19 0 0 0 6.7 5.3l1.1 4.2c1.2-.5 2.9-1.5 3.7-2.2 1.6 1 2.7 2.3 5.2 4.1 0-2.4-4.7-6.1-4.7-6.1s.7-9.7-.9-12.9c-1-2.2-3.7-4-5.2-5-.4-.3-.5-.5-1.4-.7 6.1-.8 3.5-1.7 7.3 2.6 3.2 3.6 8 3.7 12.8 4.1 6.5.6 9.4 5.4 15.5 7.3l-4.9-5.8c-5-5.1-8.1-2.4-14.1-7.3-2.8-2.2-4.3-1.8-7.8-2.8 6.5-.8 5.5-1.4 10 1.6 10.1 6.5 16.6 3.6 27.1 2.2 1.2-.1 5-.2 6-.5l-.7-.5c-1.8-.8-6.5-1-8.3-1.1-7.8-.5-10.6-3.5-16.6-4.6-2.6-.4-6.1-.4-6.1-.4 2.6-.5 6-2.7 8.6-3.2 1.5-.3 2.8-1.3 4-1.3 4.2 1.2 6.2 2.2 10.5 3.9 8.2 1.9 9.3 2.2 16.4.2 0 0 9.3.1 13.8-1a9 9 0 0 0 2.5-1c-4.2 0-4 .3-6 .2-1.3-.1-3.6-.4-4.1-.6.4-.1 6-2.5 6.4-2.8 0 0-4.2 1-6.3 1.2-2.5.3-7.4.1-7.4.1-2.7-1.1-2.4-3.8-4-6-3-4.3-3.4-3.4-5.3-4.5l2.4-1.4c2.6-1.8 7-.8 7.8-.3 2.1 1.3 3.4 4 5.2 5.3l2.4 1.3c-.6-1.8-1.2 0-3.9-6.3-1-2.3-2.9-4-5.7-4H565l2.2-1.4c5.4-2 10-.5 14.5-2.6 1.7-.8 2.4-1.4 4.4-3.5-2.5-.3-4.4 1-6.6 1.4-2.5.3-7.6.4-7.6.4.4-.5 3.6-3.1 4.5-3.8 1.8-1.2 5.2-2 8-2.6l-1-1.2-4.6 1.6c.5-1.2 7.5-7.7 8.7-9.2 1.6-.5 5.4-1.3 6.2-2-1-.1-.5 0-.8-.4l-4.6 1.2 1.4-2c.4.1 2.1-1 2.8-1.7 1.1-1.2-.7-.9-1-1.2 1.3-1.9 10-7.7 10.1-6.5l-.6-1.7c-1.5.3-6.5 4-7.2 4.3l5.6-7.3-2.1-.6-6.7 9a9 9 0 0 1-.1-3.6c.2-1.6 1.6-3.5 1.8-4.4l-1-1.9s-1.7 4-2.2 6c-.4 1.8-.4 4.6-.5 5.4-.7 1.1-5.6 8-6.3 8.6-1.8 1.6-2.7.7-3 0 0 .3.2 2.7 0 3.2-.2.7-1.7 2-2 2.8-.5 1.2-3 3-3.8 3.8-.2-4.2-.5-13-.9-15.5-1.5 2.9-1.2 13-1.2 14.6 0 2.3-.5 3.4-2 4.7-.7.6-3 2.4-4 2.8 0-5.4 1-8.7-.3-12.8-.6-1.8-3-3.4-3.2-4.9.2-2.5 1.6-5.9 1.4-7.4l-2.7 4.3c-2.7 4.7-6.2 8.2-7.8 14-2 7.5 3.6 11.3-2.4 17.2-.8.8-3 2.3-4.5 2.7l2.4-8.1a83 83 0 0 0 3.2-16.9c0-1.4.4-8.7.2-9.2-2.4 3.8-3.6 5.2-4.6 9.7-.2.9.4 9.3-.6 13.8-1 4.8-4 10.8-5.2 13.6-5 1-8.4 4.1-10.1 4.3 5.4-8.3 5.7-9.9 7.7-15.2 1-3 1.2-6.3 2.1-9.3 1-3.7 3.8-11 3.8-11a26 26 0 0 0-3.7 4.4c-3 4.5-4.6 9.5-7.5 14.7a63 63 0 0 0-6.3 4.5c-1.4 1.2-1.6 2.2-4 4 2-5.4 1.2-10.8.9-13.2-.3-1.9 1.5-3.5 1.7-5.4 0 0-3 2.4-3.8 4-2.8 5.2-3.1 17-3.6 17.2-11.4 6-10.8 9.5-14.2 11.8-1.6 1-4.2 1.7-6.6 1.8l.8-1 .9-.8c3.7-3 1.4-1.4 5.5-4 10.4-6.7 8.7-19.6 10.4-24.5.4-1 .6-1.2.7-2.4l-2.8 6.2c-2.3 5.4-8.3 11-11.2 15.2l-3.3 5.6c-2.3 4-4.4 6-10.2 7.1l-6 1c2.2-1 4-4.9 8.3-7.6l4.2-2.4q2-1.1 3.7-2.7c6.6-5.8 2.9-8 10.7-18.9l1.2-1.7-6.4 7.4c-2.2 2.4-3.8 5.6-6.4 7.4-4.3 2.8-9 4.7-12.2 8.7-1 1.2-1.4 2.8-2.3 4.4-2 4-3.6 4.6-6.3 5.7q-1.4.5-2.8 0c-2.8-1.3-4.5-.3-5.6-7.6-1.6-11.4-3-10.7-11-18.8-1.5-1.6-1-1.5-3-3 .6 5.3 4.2 10.4 6.7 14 2.6 3.8 3.1 6.9 4.5 10.9.5 1.2 1.3 2.3 1.6 3.6-1.5-.1-4.2-.1-4-.2l-5.7-1.4c-3-1.5-4.3-8.4-6.6-11.3l-1.7-2.8c.7-3.4-.2-12.8-.8-16.2-1.6 1.7-1.2 5.9-1.2 8.6 0 1.5-.5 2-.6 2.8-2.3-4.6-3.8-8.5-6.6-12.2a48 48 0 0 0 3.2 18c-.2.8-.3 1.4-.9 3a15 15 0 0 0-.8 4l.2 4.2-1.7-.4c-3.1-2.7-3.5-5.6-4.6-8.7-2.4-6.6 1-12.7-4-20.8-.5-1-1.2-2.4-2.4-2.7l1.6 7.3c.6 5.3-1.6 8.5 0 16.3.9 3.8 2.2 6 2.2 6l-6-3.3c1-2.9 1.4-9.3-1-16.6a25 25 0 0 0-6.8-11.4l-1-.6c-.2 0 0 2.3.3 3.4.7 2.4 2.5 4.1 3.3 6.9q1.1 4.5 1.6 9.1l.4 5c0 1 .3 1.7.3 3.2l-6.7-2.7c-.3-1.5-.2-1.6-.2-3.6-.1-3.8 1.4-9.1 1.4-13.6a54 54 0 0 0-2.8-15c-.8 8.1-.7 10.5-1 15.8-.3 2.8-1 5.5-1.2 8.2-.4 3.3 0 4.7.6 6.7a24 24 0 0 1-4.2-2c-4-1.7-2.6-10-2.7-13.1-.2-4.1-3.5-8-3.5-8 1-3.3 1.8-9 1.1-10.7q-.2 2.7-.7 5c-.1.6-.9 4-3.4 5.8-3.5 3-6 7.6-5 12.3l-4.2-2.8c-3.8-9.3 6-9.8 3.8-20.7-1.3 2-1.1 6-4.3 9.4-4.4 5-3 5.8-2.9 9.6-3.2-2.5-6-3.5-3.1-8.5.8-1.5 1.7-6.7-.7-9.2-.7 1.6-.6 4.3-1 6.5-.5 1.9-1.8 1.7-1.6 5.6 0 0-1.6-2.7-2-4.2-.5-2.5 1-5.7-.2-7.6-1.1 2.6-1 5.5-1.6 8.3-1.4-1.2-2.1-1.3-2-3.7l-.8-.2-.5.8-1.7-2-2.6-3c-1.3-2.7-.8-5-.2-7.5-.4.3-2 .4-2.4.6s1.2.9.8 4c-1.8-2.4-1-1.1-3-3.8-.5-1 1.6-4.7 1-5.7-.1-.3-2 2.5-2.6 2.6-.5 0-.7-1.4-.8-1.6-.5-1 .5-1.7.4-3l-1.5 1.4c-.2.4-4.2-5.2-5-6.3l-3.3-4zm215 8.7c.8 5 4.9 6.4 6.9 8q1.4 1 2 3.2c.5-2 1-1.4 1.2-2.7.1-1.5-4.8-5-7.7-6.4zm-10.2 16.5c1.6 2.5 1 5.8 1.2 8.8 0 2.8.8 6.8-.4 8.5-.2.1-5 3.8-6 4.3.9-4.3 2.5-13 3.7-16.6zM403 350.2l.7 2c.4 1.8-.4 5-.5 7.2-.2 2.9.1 4.3.3 7l-4.3-3c0-4.2 2.1-9.8 3.8-13.2m129.9 15.3c-.4.6-.5 2.3-1.1 4-1 2.8-2 5.8-3.7 7.5a15 15 0 0 1-7.8 3.2l1.7-2.9 4.4-3.4c2.6-2.3 3.4-5.5 5.7-7.9zm-134 2.6q1.9-.1 5.3 2-1.6 0-4.3 1c-2.8 1.1-4.1 3.3-6.7 3.8-1.1.2-3.5-.5-3.5-.5.5-.1.8-.8 2.3-2.4q1.4-1.6 3.9-2.9c.8-.4 1.7-1 3-1m155.5.5c5.1.7 3.8 6.5 5.1 7.2-3.2-.6-5.7-1.6-8.7-2.5q-2.6-.7-4.9-.6zM446.7 377q.8 1 2.1 1.9c2.3 1.6 4.6 3.5 5.2 6.5a51 51 0 0 1-9-1.3l.3-1.7zm71 1.9c0 .5-.8 2.1-2.4 2.6s-5.4 1.4-7 1.3zm-12.4 7c3-.3 4.3 2.2 5.3 4.3 1.7 3.7.7 9.5.7 9.5-4.7-5-7.1-11.6-14.5-12.4 1.1-.8 7.3-1.4 8.5-1.5m-41.9 2.8a45 45 0 0 1 7.4 1.3c-4.9 2.4-7 4-11.3 6.1 0 0 1-5.7 2.1-7q.4-.4 1.8-.4m21.5.7c1 1 1.5 3 1.4 4.8-2-.3-5.2-3-6.4-4.2z" transform="rotate(.3 1423.8 3127.7)scale(.97095 1)" id="path5"/><path style="fill:#006;fill-opacity:1;fill-rule:nonzero;stroke:none;stroke-width:.3;stroke-linecap:round;stroke-linejoin:round;stroke-dasharray:none;stroke-opacity:1" d="M580.1 334.9q-.8-1.3-2-2.3l-3.7-2.4-3-2.9 2.8 3 3.7 2.5a11 11 0 0 1 2.1 2.4l.5 1.5.1.1h.1l.1-.2-.5-1.5z" transform="rotate(.3 1423.8 3127.7)scale(.97095 1)" id="path6"/><path style="fill:#f6c604;fill-opacity:1;fill-rule:evenodd" d="M618 235.8c-1 0-1.6 1.3-2.4 2l-1.8 2.5c-.8 1.1-2 2-2.4 3.3-.3 1-.6 2.3-.1 3.4.3.7 1.4 1 1.9 1.6s.5 1.7 1 2.4q.8 1.2 2 2 1.5.6 2.8.3c1-.4 1.4-1.6 2-2.5.8-.9 2-1.6 2.1-2.8 0-.5-.5-.9-.5-1.4.2-1.1 1.7-1.8 1.9-3 .3-1.3.2-3-.8-4-.6-.7-1.7-.1-2.4-.5-1.4-.8-1.8-3.3-3.3-3.3m-16.5 11h-.2c-1.3 0-2.4 1-3.7 1.3l-1.4.1c-.7.4-1.6.8-1.7 1.5-.3 1 .2 2.2 1 2.6.6.3 1.3-.7 2-.7s1 .8 1.7 1c.8.1 1.6-.3 2.4-.2.8.2 1.4 1.1 2.2 1.3 1 .3 2.1-.5 3 0 .7.5.8 1.6 1.4 2.4s1.7 1.3 1.8 2.3c.1.8-1 1.3-1 2.1-.2 1.6.3 3.4 1.5 4.4h.4c1.4 0 3.2 0 4-1.2.5-.5 0-1.3.1-2l.5-2.9q.3-1.5.2-3-.6-1.6-1.7-3-.6-1.5-1.5-2.5c-.6-.4-1.5-.2-2.1-.6-1-.5-1.4-1.8-2.4-2.2s-2.2 0-3.3-.1-2.1-.6-3.2-.6m26.7 3.2c-1.2 0-2.2.9-3.2 1.3-1.3.6-3.3.6-3.8 1.9-.1.5 1 1 .8 1.5s-.9.5-1.3.8q-1 .5-1.6 1.2c-.6.7-1.6 1.9-1 2.6.2.2 1-.5 1.7-.7h1.5c.8-.5 1.2-1.5 2-1.9 1-.3 2 0 3-.1 1.5-.2 2.9-1 4.3-.8 1.6.2 2.9 2 4.5 2 1.2 0 2.8-.3 3.2-1.4.6-1.7-1-3.7-2.6-4.7-1.3-1-3.1-.3-4.7-.7-1-.2-1.8-1-2.8-1m-34.1 9.1-.6.1q-.5.4-.5 1 0 1 .4 2.4-.2.7-.1 1.6c0 .7.6 1.2.9 1.8q.2.9.6 1.4c.8.7 2 .1 3 .5 1.1.5 1.8 1.7 2.9 2.2 1.3.5 2.9-.3 4.1.3q1.5.9 2.2 2.4c1.1 1.8 4.8 5.3 3.2 6.6-.7.5-2.2-1.7-3-2-1.2-.8-2.4-2-3.8-2-1.7.1-4.3 1-4.2 2.7.1.9 1.6.7 2.4 1 1.3.6 2.8.7 4 1.5 2.2 1.3 3.3 5.9 5.8 5.2.7-.1 1.2-1 1.1-1.8 0-1.2-.4-1.6.2-2.6s0-1.6 1-1l.7.9c.6.2 1.3-.3 1.9-.6.3-.2 1-1.3 1.2-1.5.8-.8 2.2-.8 2.8-1.7.3-.4 0-1 .3-1.5.4-.7 1.6-.8 2-1.4.7-1 0-2.9 1-3.6 1.1-.8 2.8.2 4.3.3 1.9.1 3.8-.2 5.7.3 1.6.5 7.1 5.5 8.5 4.6 1-.7-.2-2.4-.3-3.6s1-2.7.2-3.8c-.4-.7-3.8-1.5-4.6-1.9-1-.5-3.5-3-4.6-3.2-.6-.2-1.2.4-1.8.2-.4 0-.6-.7-1-.7-.6-.1-1 .5-1.5.4-.8-.2-1.3-1.2-2-1.6-1-.5-2.2-.3-3.2-.7s-1.8-1.8-2.8-1.6c-.7.1-.8 1-1.2 1.6l-.9 1q-1 .3-1.7 1c-.2.2-.7 1.8-1 2q-1 1.6-2.7 2.5-.7.4-1.6.3c-1-.4-1.5-1.6-2.2-2.4-.7-1-1-2-1.9-2.8q-1.9-1.4-4.4-2.3c-1-.4-2.2-1.2-3.3-1-.5.1-.7.8-1.1 1-1.5.3-3-1.5-4.4-1.5m31.5 22.5h-.1c-.5.1-.7.8-1.2 1l-1.2-.2-1 .7c-.5.2-1.2-.1-1.7 0-.8.4-1.2 1.4-2 1.8-.7.3-1.6 0-2.3.4l-.9 1.4c-.7 1-1.8 1.6-2.4 2.6-.4.6-1.2 1.5-.7 2 3 3.3 8.5-2.8 12.9-3 2.8 0 5.5 1 8.3 1.4 1.4.2 3 1.3 4.2.5.7-.6.6-1.8.4-2.7q-.4-1.5-1.5-2.4c-1-.8-2.4-.7-3.5-1.3-.8-.5-1.3-1.6-2.3-1.9s-2 .5-3.1.4c-.7 0-1.2-.7-1.9-.7m-23.2 3.9-1.2.2c-.5.2-.8 1-.6 1.4q.3.3.8.3 1.4.9 1.8 2.2c.2.8-.4 1.5-.3 2.3s1 1.2 1.2 2c.1 1-.9 1.9-.7 2.8 0 .5.7.8.9 1.2.5 1.5-1 3.5 0 4.7.4.4 1.2-.2 1.5.2l.1.4c.4.2.7-.4 1-.7l1-1q1-1.4 1.4-2.9.1-1.9-.3-3.8c-.2-2 0-4-.8-5.8a3 3 0 0 0-1-1.2c-1.4-1-3.2-2.3-4.9-2.3M587 287h-.2c-.7.2-1.2 1-1.8 1.2-.8.4-2-.1-2.4.6-.6 1.2.5 2.7 1.5 3.6.2.1 1.2 1 2 1.3 1.4.5 3.1 0 4.6.5q.7.2 1.2.8c4 4.4 2.1 15.2 8 15.9h1.2c1.7 0 1.3-3.2 1.5-4.9.2-1.3-.3-2.6-.2-4 0-.9.4-1.8.3-2.7-.1-.8-.8-1.5-1-2.3s0-1.4-.3-2q-.7-1.3-1.6-2.2-.8-1.5-1.7-2.6c-.6-.5-1.5-.4-2.1-.7-.9-.4-1.5-1.4-2.4-1.7l-2-.1-1.3-.5-1.5.1c-.6 0-1.2-.4-1.8-.3m29.4 10.1h-.3c-1.1.5-2 1.7-3.1 2q-1 .3-1.7.2-1.1 0-1.9.4-.5.5-.7 1.2c-.6 1.3-2.1 2.5-1.7 3.8.2 1 1.4 1.6 2.4 1.7 1.9.2 3.4-2.5 5.3-2.3 2 .3 3.7 2 4.7 3.6.6 1 .3 2.3.6 3.3s.8 1.9.7 2.9c0 1-1.2 1.8-1 2.7.4 1.3 1.9 2.3 3.2 2.7q1.7.6 3-.4c.7-.7.4-2 .6-3l.7-2.4c0-1.2-.7-2.4-.7-3.7l.4-1.8c0-1-1-1.8-1-2.8 0-.6.8-1 .7-1.6-.2-1.1-2-1.4-2.6-2.5-.4-.5-.2-1.4-.7-2-1-.8-2.5-.7-3.7-1l-3-1zm-31.5 9.4q-.6 0-1 .4c-.9.5-2.6.7-2.5 1.7s1.8.5 2.5 1l1 1.2 2 1.4c.6.6 1.4 1.5 1.2 2.3-.1.4-.9.2-1 .6-.4 1.3 1 2.5 1.6 3.7.7 1.4 1 3.3 2.2 4 .6.2 1.4-.2 2-.3q1.3-.5 2.5-.7c.5 0 1 .5 1.6.5q.9-.2 1.9-.2c.8.1 2.4 1 2.3 1.3a5 5 0 0 0-1.3 2v.8q.7.7 1.8.6c.5 0 1-.5 1.6-.6s1 .5 1.7.5c.8 0 1.4-.8 2.2-.7 1 .1 1.6 1 2.5 1.4q.9.1 1.7.4c.6.2 1 1.2 1.7 1s.8-1.3.8-2q-.1-1.5-1-2.5a10 10 0 0 0-4.1-3c-.3-.2-.5-1.2.3-1.2q2.2.2 4.3 1 1 .5 1.9 1.3 1.2.7 2.2 1.7l2 2c.6.8.6 2.3 1.5 2.3s1.2-1 1.6-1.6q.4-.6.5-1.3c0-1.5-1.3-2.6-1.9-3.9-.4-1-.4-2.2-1-3.2q-1.1-1.2-2.5-2.2c-.9-.7-1.4-1.8-2.4-2.3q-1.3-.4-2.7-.5c-.8-.2-1.7-1-2.5-.7-.6 0-.8.9-1.3 1.1q-1.3.4-2.7.5l-1.8.7q-.9.3-1.5 1t-.2 1.2s-.8-1.7-1.4-2.4c-1-1.1-2-2.6-3.5-2.9-1.3-.2-2.5 1.5-3.8 1.2s-1.9-1.7-2.7-2.6c-.6-.7-1-1.8-1.7-2.4q-1.6-1-3.4-1.3-.6-.4-1.2-.3m-10 6.8-2.4.3c-1 .1-2.4-.5-3 .3s-.4 2.3.4 3c.4.3 1-.3 1.5-.1.7.2 1 1 1.5 1.4 1 .6 2.5.3 3.3 1.1.7.7.4 2 .8 2.8.5 1 1.7 1.7 2.2 2.7q1 2.5 1.4 5.3l.2 2c-.2 1-1.1 1.8-1.3 2.8-.3 1.3.4 2.6.3 4-.1 1-1.3 1.9-.9 2.8q.4.8 1.3.8c1-.2 1.5-1.5 2-2.4.6-1.1.3-2.6.8-3.7.5-1 1.7-1.8 2-3 .2-1.1-.9-2.4-.7-3.6.2-1.4 1.8-2.3 1.7-3.6 0-.7-1-1-1.1-1.7-.3-1 .5-2 .2-3-.3-1.2-1.7-2-2.3-3.1-.5-1-.3-2.2-1-2.9-.8-.7-2.2-.3-3.3-.7s-1.8-1.2-2.8-1.4zm25.6 17.2c-.8 0-1.5.7-2.1.8s-1.4-.5-2-.4c-.8.2-1.3.8-2 1-.6.3-1.3.2-1.9.5q-1 .3-1.7 1c-.6.7-1.3 1.5-1 2.3.2.6 1.2.6 1.8 1l.7.4c3.5 1.1 8.3-1.2 11.1 1.2 1 .8.4 2.7 1.1 3.8l1 1q-.2.5-.1 1c.3 1 1 2.2 2 2.2q.8-.2 1.2-1.1.7-1 .7-2.3c0-1-.7-1.7-.7-2.6-.1-1.1.7-2.3.4-3.3s-1.3-1.5-1.9-2.3q-.6-1.2-1.6-2.1c-.9-.6-2.1-.4-3-.9-.8-.3-1.3-1.1-2-1.2m-7.5 10.2c-1 0-2.1.8-2.7.9-1 .1-2-.3-2.9.1s-1.2 1.4-2 2-2.5.4-2.8 1.5c-.2.9.9 1.7 1.6 2.3a6 6 0 0 0 3.4 1.4c1.4 0 2.8-1 4.3-1 1.4 0 2.7.7 4 1 .6.2 1.4 0 2 .4 1 1 .5 3 1.2 4.5.4 1.1 1.6 2 1.9 3.1.1.6-.4 1.2-.1 1.7s1.2.7 1.8.5c.5-.2.5-1 1-1.3l1.6-1.2q.8-.6 1.1-1.6c.1-.7-.4-1.3-.5-2 0-1 .4-1.8 0-2.6-.3-.8-1.2-1.1-1.7-1.8-.6-1-.5-2.3-1.4-3.1-.6-.6-1.8-.5-2.5-1s-1.1-1.3-1.8-1.7c-1-.5-2.1-.2-3-.6-1-.3-1.6-1.4-2.5-1.5M331.6 237.6q-1 0-1.7.3c-.6.4-.5 1.2-.9 1.7l-1.1 1c-.6 1.2-.1 2.6-.5 3.8l-1 1.7c-.2.7.6 1.5.1 2-.3.2-.7-.4-1-.2-.7.6.7 2.4-.2 3-1.6.8-3-2.6-4.9-2.6-.8 0-1.3 1-2.1 1.2q-1 .1-1.9-.2c-.5-.1-.9-.8-1.4-.7-1 .1-1.2 1.5-2 2-1.1.7-2.8.2-3.9 1-1.7 1.3-4.4 3.8-3 5.5.4.5 2.3-.2 2.6.5.8 1.5 3.3-.8 5-1l5.5.2q2.3.5 4.3 1.4l2 1.1c.6.5 2 .6 2 1.4 0 .4-.6.6-.9.8-1 .7-2.6.7-3.4 1.7-.6.9-.1 2.2-.5 3.2q-.4 1.2-1.3 1.9-1.3.6-2.8.4c-.8 0-1.6-.7-2.4-.5-1 .2-1.7 1.3-2.6 1.8-.7.4-1.6.3-2 .8-.6.6-.3 1.6-.7 2.2s-1.4.7-1.6 1.3c-.5 1.1-.6 2.8.3 3.6.4.3 1.1-.1 1.7 0l1.5.1c1.7-.2 3-1.7 4.5-2 1-.2 2 .1 3.1 0 1.4 0 2.7-.5 4-.4s2.8-.1 3.4.8c1 1.4-1.5 3.5-.6 5 .5.7 1.7.7 2.7.9q1.2.3 2.6.1c.5 0 1-.5 1.4-.5 1.3 0 2.3 1.5 3.6 1.4 1 0 1.6-.8 2.4-1.1l2.3-.8 1.4-1.4c.8-.5 2-.3 2.8-1 .5-.5.4-1.5.9-2s1.5-.3 1.8-1c.6-1.2-.7-2.6-.7-4 0-.7.4-1.4.2-2-.2-.8-1.2-1-1.5-1.7l-.4-1q-.6-.3-1.3-.4c-.5-.3-.8-1-1.4-1.1-.7-.2-1.5.2-2.3 0-.9-.2-2.3-.5-2.3-1.4q.2-.4 1-.6 1.6-.8 3.5-1.5c1-.4 1.7-1.2 2.8-1.4 1.9-.3 3.7 1.3 5.7 1l.9-.4 1.8.4q.7.2 1.4 0 1-1 .7-2.3c-.2-1.2-1.5-2-2.3-3-.6-1-.8-2.1-1.7-2.6-.5-.3-1.1 0-1.7-.2-.6-.1-1-.8-1.6-.8-.4 0-.7.5-1.2.5s-1.2-.5-1.9-.5c-.8 0-1.5.6-2.4.8-1.1.3-2.5 1-3.6.5q-1-.8-1.1-2.3c-.2-.7.2-1.5 0-2.3s-.9-1.4-1-2.2c-.3-.7 0-1.5-.2-2.3-.3-1.2-1.2-2.2-1.7-3.4q-.1-.9-.5-1.6c-.5-.6-1.5-.5-2-1s-.3-1.3-.9-1.6c-.5-.3-1.2 0-1.8 0" transform="rotate(.3 1423.8 3127.7)scale(.97095 1)" id="path7"/><path style="fill:#006;fill-opacity:1;stroke:none;stroke-width:1px;stroke-linecap:butt;stroke-linejoin:miter;stroke-opacity:1" d="m345.6 303.6-.7 3 2-.6 1.6-2.4-2-1.2z" transform="rotate(.3 1423.8 3127.7)scale(.97095 1)" id="path8"/><path style="fill:#f6c604;fill-opacity:1;fill-rule:evenodd" d="M359 286.9q-1.9-.2-3.4.7c-.4.3-.4 1-.9 1.4s-1 .1-1.5.4l-.8.6-1.1.7c-.4.5-.3 1.4-.7 2-.5.7-1.4 1-1.8 1.7-.4.8 0 1.8-.4 2.6l-1 1.3c-.5.9.4 2.6-.6 3-.8.4-1.4-1.7-2.3-1.5s-.8 1.5-1.2 2.2c-1 1.4-1.3 3.4-2.8 4q-1 .3-2-.1c-1.2-.2-2.4-.9-3.5-.6-1.3.3-1.9 2.1-3.2 2.2-.6 0-1-1-1.7-.9-.9 0-1.4 1.3-2.2 1.7-1 .5-2.4 0-3.2.8-.6.8.1 2.2-.5 2.9-.4.5-1.3.2-1.8.6-1.2 1.3-1.5 3.3-1.6 5.1-.2 2.4-1.2 6 1 7 .5.4 1.2-.3 1.7-.8.8-.8.8-2.3 1.5-3.2.9-1.3 2.3-2 3.4-3.1 1-1.2 1.4-3.2 2.9-4 1.2-.6 2.7 0 4.1 0 2-.1 4 .2 6-.3.6-.2 1.1-1 1.9-1.1q1 .1 1.9.9 1.2.9 2.2 2l1.8 1.3c1 1 1.6 2.8 3 3.2.6.2 1.2-.3 1.8-.4s1.7 0 2.2-.6.1-1.9.4-2.8c1-2.5 1.8-5.6 4-7 3-1.9 7 .1 10.3-.9.4 0 1.1-.2 1.2-.6.2-2.4-3.2-3.7-5.4-4.6-1.1-.4-2.4 0-3.5-.2-.8 0-1.6-.4-2.4-.2s-1.2 1.1-1.9 1.4c-.6.1-1.3-.3-1.8 0-1.2.5-1.2 2.9-2.4 3-.7 0-1-1-1.4-1.5-.7-.8-1.8-1.4-1.9-2.4-.2-1.5 1-2.8 1.6-4.1 1-1.5 1.7-3.2 3.3-4.1 1.2-.7 2.8-.5 4.2-.6 1 0 2.1.8 3 .3 1.4-.9 2.3-3 1.8-4.5-.5-1.2-2.2-1.3-3.3-1.8q-1.5-.9-3-1.1m-24.5 11.5q1.1.3 2-.6c1-1 1.4-2.8 1-4.2-.5-1.6-2.3-2.3-3.6-3.4q-1.7-1.7-4-2.8c-1.3-.5-2.8 0-4.2-.3-1.1-.4-2-1.5-3-1.6s-1.8.7-2.8.8c-.8.1-1.6-.5-2.4-.3-1.5.4-2.6 1.8-3.9 2.6-1.2.7-2.7 1-3.7 2-1 1.1-2.8 2.7-2 4 .6 1.4 4.1-.1 4.6.6 2.2 3.3 8-1.2 11.8-.6q5.6.8 10.2 3.8m40.8 50.5a2 2 0 0 0 .4-2.3c-.4-.8-1.7-.6-2.6-.7h-1.2q-1.6.1-3.1.5-2.2.8-4.2 2.2l-1.5 1.2q-.8.1-1.4.5l-.4.8c-.8 1.2-2.7 1.7-3 3.1-.2.9 1 1.6.9 2.5-.1.7-1.1 1.1-1.3 1.9-.5 1.6.4 3.3.4 5 0 .9-.5 1.8-.2 2.6.5 1.8 1.4 4.5 3.3 4.6 1.2 0 1.9-1.7 2.3-2.8 1.2-3-.1-6.3.6-9.4q.4-2.4 1.9-4.4c1.6-1.8 4.2-2.2 6.3-3.3.8-.4 2.1-.3 2.2-1.1q-.1-.4.6-1m-26.1-28c-1-.1-1.9.8-2.9 1-.9 0-1.8-.4-2.7-.1-.7.1-1.3.8-2 1l-1.9.3q-1.2.2-2.2.8c-1 1.1-.8 3.2-1.8 4.4l-1.5 1q-.6 1-.8 2.4c-.6 1.7-2.7 3.8-1.6 5.3.7 1 2.7.8 3.8.2 1.2-.5 1.6-2 2.6-3a30 30 0 0 1 6.1-4.9 14 14 0 0 1 4.3-1.5c2.2-.4 4.5 0 6.8-.2h1.5a3 3 0 0 0 1.5-2q0-1.2-.6-1.9c-1.3-1.1-3.4-.7-5-1.2-1.3-.5-2.3-1.6-3.6-1.7m7 15.7q-1 0-2 .3c-1 .5-1.4 2-2.3 2.7-1.3 1.2-3 1.7-4.1 3q-.8 1-1.4 2.2-.9.4-1.5 1.2c-.4.5-.2 1.3-.5 2-.4.7-1.5 1.2-1.6 2-.4 2.2 0 5.8 2 6 .2 0 1.5 0 2-.2.9-.3 1.2-1.5 1.7-2.3.7-1.2 1-2.7 1.9-3.8q1.4-1.5 3.2-2.7 1.4-1.3 2.9-2.4 2-1.6 4.4-2.6c1-.4 3.2.3 3.3-.8q0-.8 1.4-.8c.6-.1 1.5-.3 1.6-.9.2-1.1-1-2.3-2.1-2.8-1-.4-2.1.4-3.2.5-1.9 0-4-.7-5.8-.6m20.3-11.4q2.6-1.8 5.6-2.8c2.6-.7 6.7 1.5 8-.9.3-.5-.4-1-.7-1.5q-.9-1.4-2.2-2.1c-1.2-.5-2.5 0-3.8 0-1 0-2.2-.4-3.3-.2-.4.1-.7.6-1.2.7-1 .2-2.1-.6-3.1-.2-1.2.5-1.8 2-2.7 2.9-1.4 1.4-3.1 2.5-4.2 4.1q-.6 1.3-1 2.7c-.2.9-.8 1.6-.8 2.5 0 1 .2 2.7 1.2 3 .8.3 1.5-.7 2-1.3 1-1 1.4-2.6 2.4-3.7q1.6-1.9 3.8-3.2m8.6 11.1c1.7.3 4.1 2.3 5.2.9 1.5-2.1-1.6-5.3-3.7-6.9-1-.7-2.5-.4-3.8-.6-.9-.2-1.8-.8-2.7-.7-.8.1-1.4 1-2.2 1.2-.6.1-1.3-.3-2 0a6 6 0 0 0-2.6 3.8c-.3.8.2 1.7.2 2.6.3 2.2-.8 5 .6 6.7q.8 1 1.9.5c2.3-1.3-.2-5.9 1.8-7.7.7-.7 2-.6 3-.6 1.5 0 3 .6 4.3.8" transform="rotate(.3 1423.8 3127.7)scale(.97095 1)" id="path9"/><path d="M333.2 283c-.5.5-.2 1.4 0 2.1q.2.5.6.8l.7.6c.3.4.1 1 .4 1.5l1.4 1.3q.6.8 1 1.7l1 3.2c.4 1.8.3 3.7.6 5.5.4 2 .4 4.5 1.3 6q.4 0 1-1l.8-1.4.7-1.5 1.1-2.2c.5-1.7-.2-3.7.6-5.4.8-2 2.8-3.2 4.2-4.8 2.6-3 4-7.3 7.5-9 1.4-.7 3.3.7 4.6-.2.8-.5 1.6-1.7 1.3-2.7-.5-2-2.9-3.5-5-3.8-.5 0-1 .5-1.6.6-.8.2-1.7 0-2.6.3q-1 .1-1.8.7c-.6.4-.6 1.3-1.2 1.8-.3.3-.8.2-1.1.6s-.1 1-.4 1.4c-.4.5-1.4.4-1.7 1s0 1.3-.3 1.8-1 .5-1.4.9c-.7.7-.7 1.8-1.4 2.4l-1.4.5q-.7.6-1.2 1.3s-.2-1.9-.6-2.7q-.3-.5-.7-.7c-.7-.2-1.3.5-2 .4-1-.1-1.8-1.2-2.8-1.3q-1-.2-1.6.3m31.7 37.8c-.5 1.4-2.1 2.2-2.4 3.6-.2.8-.3 2 .4 2.4.6.5 1.6-.2 2.2-.6 2-1.2 3.3-3.3 4.8-5.1 1-1.2 2.7-2 2.8-3.6.1-1.2-.7-3.2-2-3.2-1 0-.5 2.2-1.3 2.8s-2 0-3 .1q-.7 0-1.3.4c-.7.8 0 2.2-.2 3.2" style="fill:#f6c604;fill-opacity:1;fill-rule:evenodd" transform="rotate(.3 1423.8 3127.7)scale(.97095 1)" id="path10"/><path style="color:#000;fill:#006;-inkscape-stroke:none" d="m616.5 236.6-.5.7s-.5 2.4.3 3c.3.3.8-.3 1.2-.1q.8.3.9 1c0 .6-.8.9-.9 1.4q0 .8.3 1.7.4.6.7-.1c.2-.5-.3-1-.2-1.5s1-.9 1-1.5-.8-1.4-1.5-1.7c-.2-.2-.6.2-.9 0-.8-.5-.4-2.9-.4-2.9m-17 12.6q-1.2 0-2.6.4c-1 .2-.6.5.2.5l2.5-.3c.8 0 1.7.6 2.5.7l2.4.2c1.1.3 2.4.2 3.3 1 .5.3.3 1.1.7 1.5.7.7 2.1.5 2.7 1.2.8 1 .8 2.2.9 3.4q.2 1 .5-.1.4-2.2-.8-3.7c-.7-.8-2.1-.5-2.8-1.2-.4-.4-.3-1.3-.7-1.6-1-.9-2.5-.8-3.7-1l-2.4-.3-2.6-.7m28.6 3.3c-.6 0-1.2.4-1.8.4q-.9-.2-2-.2c-.7 0-1.6.2.1.4 1 0 1.3.3 2 .3.5 0 1-.4 1.7-.4.6.1 1.2.8 1.9.9s1.4-.4 2-.3q1 .3 1.7 1c1.2 1.1.9.4.1-.3q-.7-.8-1.7-1.2c-.6-.2-1.4.4-2 .3-.8-.1-1.3-.8-2-.9m-32.5 10.6q-1.3-.4-.1.5a4 4 0 0 0 1.8.6c.7 0 1.3-.5 1.9-.3.8.2 1.2 1.3 2 1.6.6.3 1.4 0 2.1.2l1.3.8q.8.6 1.3 1.3l.6 1.4q.4 1.3 1 2.3.7.6 1.7 1l.3.3.4.8q.8 1.8.5 0l-.4-1q-.2-.4-.6-.5l-1.5-1-1-2q-.1-.9-.6-1.6l-1.4-1.4-1.4-.9c-.7-.2-1.5.1-2.1-.1-.8-.4-1.2-1.5-2-1.8-.7-.1-1.4.4-2 .4a4 4 0 0 1-1.8-.6m21.5-.2s-.4.1-.4.3q.4 1.1 1 2l.8 1.8.3.3.7.3h.9q.5-.3.9-.8l1.2-.6q1.2-1-.3-.5l-1.2.7-.8.6-.8-.1-.4-.2q-.2-.1-.3-.4l-.6-1.4z" transform="rotate(.3 1423.8 3127.7)scale(.97095 1)" id="path11"/><path style="color:#000;fill:#006;-inkscape-stroke:none" d="M619 266.9c0-.1-.4.2-.3.3q.6.9 1.4 1.7c.4.5.3 1.6 1 1.7.5 0 .7-1 1.1-1.2q.8-.5 1.5-.5c.5.1.8.8 1.4.8q1.6-.3 2.4-2 .6-1.2-.3-.4c-.7.6-1.2 1.7-2.2 1.8-.5 0-.8-.6-1.3-.7a3 3 0 0 0-1.7.5c-.3.2-.5 1-.8.9-.5 0-.5-.8-.7-1.2zm11.7-.6q-1.2-.5-.3.4 1 .5 1.6 1.1l.5 1.4q.6.5 1.4.8l1 .5c1 .6.8 0 .2-.4l-1-.6q-.7-.2-1.2-.7l-.4-1.3a4 4 0 0 0-1.8-1.2m-28 9.2s-.6 1-.5 1.6c.3 1 2.4 2.4 2.4 2.4 1 .8 1 .2.4-.5 0 0-1.9-1.1-2.1-2.1-.1-.5.5-1.5.5-1.5q-.3-.2-.7.1m23.5 8c-1 0-1.5 1.2-2.4 1.4-.7.1-1.4-.6-2.2-.4-1 .2-1.5 1.5-2.5 1.9-.7.3-1.7-.3-2.3.1-.4.3-.2 1.1-.6 1.5s-1.3.5-1.3.5c-.8.1-1.6.7.2.4 0 0 1-.1 1.5-.5.3-.3.1-1.1.5-1.4.6-.4 1.5.1 2.1-.1 1-.4 1.5-1.7 2.6-1.9.7-.2 1.4.5 2.1.4 1-.2 1.4-1.3 2.3-1.4 1-.1 2 .7 3 .8h2.1q2.6 0 0-.4h-2c-1-.2-2-1-3.1-1m-11.5 17.7q-1.6.1-3.3.5c-1.3.2-3.9 1-3.9 1l-.3.6s2.9-.9 4.3-1.1c1-.2 2.1-.6 3.1-.4 1.7.2 3.7.5 4.7 1.8.7.8-.1 2.4.6 3.2.4.6 1.7.2 2 .8s0 1.4-.1 2.1q-.4 1.1-.4 2.3a10 10 0 0 0 1.3 2.7c1 1.4 1 1 .5-.2 0 0-1-1.7-1.2-2.6l.4-2.1.2-2q0-.5-.4-.8c-.5-.5-1.4-.2-1.9-.7-.6-.8.1-2.3-.5-3-1.2-1.5-3.3-1.8-5-2m-27.6-11.7c-.5-.2-1.5 0-1.5 0q-2.6.9 0 .6s.9-.2 1.3 0c.8.2 1 1.3 1.8 1.8 1.3.8 3 .4 4.2 1.3.8.6 1 1.7 1.5 2.4s1.4 1 1.7 1.8c.4 1-.5 2.3-.1 3.4.3 1.1 2 1.7 2 2.9 0 .7-.8 1.2-1 1.8-.3 1.2-.2 3.8-.2 3.8l.5.5s-.1-2.8.2-4.1c.2-.8 1.1-1.3 1-2 0-1.3-1.7-1.9-2-3s.5-2.4.1-3.5c-.3-.8-1.3-1.2-1.8-1.9-.6-.8-.8-1.9-1.5-2.5-1.2-.9-3-.6-4.3-1.4-.8-.4-1-1.5-1.9-1.9m13.9 33.7v.4s1.6.7 2.5.8l1.5.1q1.2 0 2.2.3c.5.1 1.3.6 1.3.6 1 .6 1.8.6.2-.4l-1.3-.7-2.3-.3h-1.5zm1.8-6.6c-.3-.6-.9-.8-.4.3 0 0 .4 1 .8 1 1 .4 2-.6 3.1-.6l1.8.3c.9.2 2.3-.4 2.8.4 0 .2-.4.3-.3.5.4 1 2 .7 2.8 1.2q1.3.7 2.2 1.6l.7 1c.6.5 2 1 2 1 1.8.6 1.2.2.3-.4 0 0-1.4-.5-2-1l-.6-1q-1-1-2.3-1.6c-.8-.5-2.1-.2-2.4-1 0-.3.4-.5.3-.7-.5-1-2.3-.3-3.5-.5l-1.8-.3c-1 0-2 1-2.9.6-.3 0-.6-.8-.6-.8m-6.4-1.6c-1.2 0-2 1.5-3 1.5-.8 0-1.3-1-2-1-.8-.1-2.3.9-2.3.9q-1.2.9.2.4s1.3-.8 2-.8c.8 0 1.3 1 2 1 1.2 0 2-1.4 3.1-1.5.7 0 2 .8 2 .8q1.4.4.2-.5s-1.4-.9-2.2-.8m-13.1-6.8c-.5-.1-1.1.2-.1.5l.4.1.5.1 1.5.3q.8 0 1.4.4l.4 1.1.6 2q.6.6.9 1.3c0 .6-.7 1.6-.7 1.6q-.4 1.4.5.2s.8-1.2.7-1.8c0-.7-.7-1-1-1.6l-.5-2c-.2-.4 0-.9-.4-1.2q-.7-.4-1.8-.5l-1.5-.3h-.5zm12.3 24.4c-1-.2-2.1.6-3 1-1.1.6-3 2.1-3 2.1l.3.4s1.8-1.5 2.9-2c.8-.4 1.8-1 2.7-.9.9.2 1.2 1.4 2 1.7.8.2 1.6-.3 2.4-.1 1 .2 2 1.1 3 1.7q1 .4 1.7 1c.4.7.3 2.3.3 2.3 0 1.6.5 1 .5 0 0 0 .1-1.9-.3-2.6q-1-.8-2-1.1c-1-.6-2-1.6-3.1-1.8-.8-.2-1.6.3-2.3 0-.9-.2-1.2-1.5-2-1.7M571.3 315c-1.2.2-1.3.7 0 .5 0 0 1.7-.3 2.5 0 .9.4 1.2 1.6 2 2.1.7.6 2 .4 2.5 1.2 1.1 1.5.2 5.7.2 5.7l.5.4s1-4.7-.2-6.5c-.5-.8-2-.6-2.7-1.2-.9-.5-1.2-1.7-2-2.1s-2.8 0-2.8 0m14 28.5-.4.4s1.2 1.7 2.1 1.8c1 0 1.5-1.3 2.4-1.5h1.3c.4.4.3 1.2.7 1.5 1.2.9 3.1 0 4.6.5 1 .4 1.6 1.3 2.4 1.9q1 .3 1.7 1 1 1 1.1 2.3c.3 1 0 3 0 3 0 1 .6 2 .6-.1 0 0 .2-2 0-3q-.4-1.5-1.3-2.6l-1.7-1q-1.4-1.2-2.7-2c-1.4-.5-3.2.4-4.4-.5-.4-.3-.2-1-.7-1.4q-.9-.4-1.7 0c-.9.1-1.4 1.3-2.2 1.3-.8-.1-1.8-1.6-1.8-1.6M311 253.1c-1 .1-2.7 1.5-2.7 1.5-.7.3-.8 1 .2.4 0 0 1.6-1.2 2.6-1.3s1.8.6 2.7.8c1.7.2 3.4-.2 5 .2q1.8.4 3.2 1.1l3 1.1c1 .2 2.2-.2 3 .4s0 2.3.8 2.8c.5.3 1.2-.5 1.8-.4 1 0 1.7 1.3 2.6 1 1-.1 1.4-1.3 2-2s1-1.7 1.6-2.2c.8-.6 2.7-1.2 2.7-1.2q1.4-.7-.2-.4s-2 .5-2.8 1.2l-1.7 2.3c-.5.6-.9 1.6-1.7 1.8-.9.2-1.6-1-2.5-1-.5-.1-1 .5-1.4.3-.8-.5-.1-2-.8-2.6-.9-.8-2.3-.2-3.3-.5q-1.5-.4-2.9-1-1.5-.7-3.2-1.2c-1.7-.4-3.4 0-5-.2-1-.2-2-1-3-.9" transform="rotate(.3 1423.8 3127.7)scale(.97095 1)" id="path12"/><path style="color:#000;fill:#006;-inkscape-stroke:none" d="m325.2 250.3-.2.5 1.2.5q1 .5 1.5 1.4c.2.5-.4 1-.2 1.6.1.3.6.4.7.7.3.7 0 2.4 0 2.4l.4.2s.5-2 .1-2.8l-.7-.7c-.2-.5.4-1 .2-1.6q-.5-1.1-1.7-1.6c-.4-.3-1.3-.6-1.3-.6m9-10.7c0-.2-.6-.2-.4.2l.2.7q.3.6.2 1.2t-.4 1l-.5.6c-.5 1.1 0 .7.4.3l.5-.6q.4-.6.5-1.3t-.2-1.3zm3.2 9.2s-1.6 1-2 1.7a9 9 0 0 0-.7 3.2c0 1.3.5.9.5.1 0 0 .1-2.1.7-3 .4-.7 1.8-1.6 1.8-1.6.6-.5.2-.7-.3-.4m-9.4-3.3q-.4 0-.4.3s1.4 1 1.5 1.8c.1.5-.5 1.6-.5 1.6-.5 1 0 .9.4.2 0 0 .8-1.3.7-2-.2-.8-1.7-1.9-1.7-1.9m20.1 12.9c-.7.1-1.3.7-2 .8-.9.1-1.9-.6-2.8-.4-.5.2-.8 1-1.3 1.2s-1.2-.6-1.7-.5c-1.8.3-4.6 3-4.6 3-.6.6-.4 1.2.3.4 0 0 2.6-2.5 4.3-2.8.6-.1 1.2.6 1.8.4s.8-1 1.4-1.1c.9-.3 1.8.4 2.7.3.7 0 1.3-.7 2-.8s1.9 0 1.9 0c1.3.1.8-.5 0-.5 0 0-1.3-.2-2 0m-21 5.7c-.5.2-.5 1.2-1 1.3-.3.1-.6-.4-1-.2-.4.1-.6 1.3-.6 1.3q-.1 1.6.5.2s.1-.8.4-1c.3 0 .6.4.8.3.6-.2.6-1.1 1.1-1.3s1 .2 1.6.3l1.4.5c1 .3 1-.2.2-.5l-1.5-.5c-.6-.2-1.3-.6-1.9-.4m-6.2 8.1c-.7 0-1.3.6-2 .6-.9 0-2.8-.6-2.8-.6-.6-.2-1.3 0-.1.5 0 0 2 .7 3 .6.7 0 1.2-.6 1.8-.6 1 0 2.6 1 2.6 1l.3-.5s-1.8-1-2.8-1" transform="rotate(.3 1423.8 3127.7)scale(.97095 1)" id="path13"/><path style="color:#000;fill:#006;-inkscape-stroke:none" d="M332.1 268.3s-.5 1.4-1 1.8l-1.4.4c-.9.4-1.5 1.2-2.4 1.5s-1.8 0-2.6.4c-1.1.4-3 2-3 2-1 1-.3 1 .3.5 0 0 1.8-1.6 2.9-2 .8-.4 1.8-.1 2.6-.4l2.4-1.6c.4-.2 1 0 1.5-.4a6 6 0 0 0 1.1-2c.4-1.3-.1-.9-.4-.2m6.7 1.4c-1.3-1-1-.3-.4.3 0 0 .6.4.7.7.5 1 1 2.3.6 3.4q-.4 1.1-1.5 1.5-.8.1-1.5-.2l-1.1-.4-.5-.2c-1-.6-2-.5-.3.4l.6.2 1 .4q1 .5 2 .3a3 3 0 0 0 1.8-1.8q.4-1.9-.6-3.8z" transform="rotate(.3 1423.8 3127.7)scale(.97095 1)" id="path14"/><path style="color:#000;fill:#006;-inkscape-stroke:none" d="m345.5 271.7-.8.9c-.4.7-.2 1.8-.9 2.3q-1 .8-2.3.3c-.9-.5-1.2-2.7-1.2-2.7l-.5.1s.4 2.6 1.4 3.2c.9.4 2.2.1 3-.5s.5-1.7 1-2.5l.7-.8c.4-.5.3-.9-.4-.3m-24.8 18c-1.3 0-2 1.6-3.1 1.8a13 13 0 0 1-4.3-.3c-.8-.2-1.9 0 0 .5 0 0 3 .7 4.4.4 1.1-.3 1.8-1.8 3-2 1.7 0 3 2 4.7 2.2l1.6-.3h1.6l.8.4 1.2.7 1.8 1c1.2.7 1.2.2.2-.4l-1.7-1-1.3-.7-.8-.5h-2l-1.4.3c-1.7-.3-3-2.3-4.7-2.2m20.2-3.4s-1.6.7-2 1.4c-.4.4-.2 1.1-.6 1.5-.5.6-2 .9-2 .9l.2.4s1.7-.3 2.2-.9c.4-.4.2-1.1.5-1.6.4-.5 1.7-1 1.7-1zm16-11.6s-1 1-1.6 1.2c-1 .3-2.2-.4-3 .2-.7.5-.5 1.7-1 2.4s-1.7 1-2.2 1.7q-.1.6-.4 1.1c-.5.7-1.5.7-2 1.4-.1.4.2 1 0 1.4-.4.7-1.5.8-2 1.5-.4.5-.3 1.3-.7 1.8-.7 1-2 1.2-2.6 2l-.6 1.5-.7 1v1.5q.5 1.6.5 0V292l.6-1 .6-1.3c.7-.9 2-1.2 2.6-2 .4-.6.3-1.4.7-1.9.6-.7 1.7-.8 2-1.6.3-.4 0-1 .2-1.3.3-.7 1.4-.7 1.8-1.3l.4-1.2c.5-.8 1.6-1 2.1-1.7s.4-1.8 1-2.2c.8-.6 2 0 2.9-.2.6-.3 1.7-1.3 1.7-1.3.8-.6.3-.7-.3-.4m.7 15.6q-2.3 0-4 1.3c-.7.6-.7 1.7-1.2 2.4l-.9 1q-1 .9-1.7 2c-.8 1.3-1.3 4.5-1.3 4.5-.3 1.5.4 1.2.5.2 0 0 .6-3.4 1.4-4.8.6-.9 1.7-1.4 2.3-2.2s.7-2 1.4-2.6a6 6 0 0 1 3.5-1.3c.7 0 2 .4 2 .4 1.2.5.8-.2 0-.4 0 0-1.3-.5-2-.5m5.9 14.4c-1 .1-1.6 1-2.4 1.2-1 .3-2.1 0-3 .3a8 8 0 0 0-3.1 2.6c-.6 1-.2 2.7-1.2 3-.4.2-1.1-.6-1.1-.6-.9-.8-2-1.2-.3.4 0 0 1 1.2 1.7 1 1.1-.5.6-2.5 1.3-3.5a7 7 0 0 1 2.9-2.4c.9-.4 2 0 3-.3.8-.2 1.4-1 2.2-1.2a13 13 0 0 1 4.2.6c2 .4 1.2-.2 0-.5 0 0-2.8-.9-4.2-.6M340 307s.3 1.5-.2 1.9c-1 .8-2.6-.8-4-.7-1.8.2-3.4 1.3-5.1 2q-2 .6-3.7 1.6-1.4 1-2.5 2.3l-2.6 3.2c-.8 1.4-.2 1.2.4.3l2.6-3.1q1-1.3 2.4-2.3 1.6-.9 3.6-1.5c1.7-.7 3.2-1.8 5-2 1.5 0 3.2 1.6 4.4.7.6-.5.2-2.3.2-2.3q-.5-1-.5 0m11.2.8s-.6 1-1 1.3l-1.4.5q0 .3-.2.4l-.3-.2c-.6-.5-1-.3-.3.5 0 0 .5.5.7.4q.3-.2.5-.7l1.3-.5 1-1.4c1-1.3 0-.6-.3-.3m.1 15.6s-1.4 0-2.1.2c-1 .3-2 1.1-3 1.5q-1.8.6-3.8 1c-1 .3-2 .2-2.9.7-1.1.7-1.7 2-2.6 2.9q-1.2.8-2.2 1.7c-.8 1-1.6 3.5-1.6 3.5-.4 1.6.2 1.5.4.2 0 0 .8-2.4 1.6-3.4l2.1-1.7c1-.8 1.5-2.1 2.6-2.7q1.3-.6 2.7-.7l4-1c1-.4 1.8-1.2 2.8-1.5.7-.2 2-.2 2-.2 2 .2 1-.5 0-.5m31.3-3.2c-1.3.4-2.7.1-4 .4l-2.4.8-.4.1h-1.3c-.6 0-1.8.4-1.8.4q-1 .5.1.5l1.8-.5 1.1.1.7-.1 2.3-.8c1.3-.3 2.8 0 4-.4.7-.2 1-1 1.7-1 .5-.1 1 .4 1.4.6l1.1.5.7.3q1.5.4.1-.5l-.6-.3-1.1-.5q-.7-.5-1.6-.7c-.7 0-1.1.9-1.8 1.1m-26 17.1c-1.2-.2-2 1.5-2.8 2.4l-1.5 2.1c-.7.8-1.8 1.1-2.6 1.9l-1.3 2.1-2.5 2.6c-.5.7-1 2.1-1 2.1-.2.7 0 1.4.5.2 0 0 .5-1.4.9-2l2.5-2.6 1.3-2c.7-.8 1.9-1.2 2.6-2l1.4-2c.7-.8 1.3-2.2 2.3-2 .5 0 .3 1 .7 1.2 2 1.1 6.8-.3 6.8-.3 1 0 1-.6 0-.5 0 0-4.6 1.4-6.5.3-.5-.3-.3-1.4-.8-1.5m22.5-6.3c-.9.1-1 1.4-1.8 1.8-.6.3-1.4 0-2 .3-.9.8-1.3 3.3-1.3 3.3-.2 1.5.3.9.4.1 0 0 .5-2.3 1.3-3 .5-.3 1.3 0 1.8-.2.7-.4.9-1.6 1.6-1.6.8-.1 1.2 1.1 2 1.3.5.2 1-.2 1.5 0 .7.2 1.1 1 1.8 1.4l1 .4 1 .6c.9.5 1 0 .2-.4l-1-.6-1-.5c-.6-.4-1-1.2-1.9-1.4-.4-.2-1 .2-1.5 0-.8-.2-1.3-1.6-2.1-1.5m-6.6 15.3s-1.5 1.4-2.4 1.8c-1 .5-2.3.1-3.4.6s-2 1.9-3 2.7q-1.2.6-1.9 1.5c-.5.8-.2 2-.5 3-.4.8-1.4 1.4-1.7 2.3-.3 1 .3 2 .2 3 0 1.2-.5 2.3-.4 3.4 0 .8.6 1.4.7 2.2l-.2 1.7q.2 1.8.5 0l.2-1.8-.7-2.1.4-3.4c0-1-.4-2-.2-2.8.3-1 1.3-1.5 1.6-2.4s0-2 .6-2.9q.6-.7 1.6-1.3c1-.8 1.8-2 3-2.6 1-.5 2.4-.1 3.4-.6s2.4-1.8 2.4-1.8q.7-1-.2-.5M616 273.5c-.8.3-1 1.5-2 1.8-.5.3-1.2-.2-1.7.1-.3.2-.4.8-.4.8-.4 1.6.2 1 .4.2q0-.2.3-.5c.5-.3 1.2.2 1.7 0 .8-.4 1.1-1.6 2-2 1-.3 3.5.2 3.5.2.8.1.7-.4 0-.5 0 0-2.6-.6-3.8-.1" transform="rotate(.3 1423.8 3127.7)scale(.97095 1)" id="path15"/><path style="fill:#006;fill-rule:nonzero;stroke:none;stroke-width:.3;stroke-linecap:round;stroke-linejoin:round;stroke-miterlimit:4;stroke-dasharray:none;stroke-opacity:1" d="m380.8 354.6-4.2 1.7c-3.1 1.2-5.6.7-5.6.7s2.5.7 5.7-.5c1.3-.5 2.7-1.3 4.2-1.6l1.3-.4zm2.2-5.6 1.3-3.5c1-3 .3-5.4.3-5.4s.5 2.4-.5 5.4l-1.4 3.4c-.2 1 .2 1.7.2 1.7z" transform="rotate(.3 1423.8 3127.7)scale(.97095 1)" id="path16"/><path style="fill:#006;fill-rule:nonzero;stroke:none;stroke-width:.4;stroke-linecap:round;stroke-linejoin:round;stroke-miterlimit:4;stroke-dasharray:none;stroke-opacity:1" d="M390.2 350.7c1-1.6 2.4-3 3-4.6q1-2.4 1.3-4.2l.6-2.6-.7 2.6c-.3 1-.7 2.7-1.4 4-.7 1.6-2.1 2.9-3.2 4.6l-.7 1.7v.2q-.2 1.5 0 2.6h.2l.1-2.6v-.1zm-2.5 10.5h3.2l-.3-.1-3-.3-1.2.1-1 .5c-1.5 1-2.5 2.3-3.9 3-1.8.8-4 1.3-5.5 1.6l-2.4.5-.8.2h-.2.2l3.2-.5c1.5-.3 3.7-.7 5.7-1.6 1.5-.6 2.5-2 3.9-2.8l1-.5z" transform="rotate(.3 1423.8 3127.7)scale(.97095 1)" id="path17"/><path style="fill:#006;fill-opacity:1;fill-rule:nonzero;stroke:none;stroke-width:.4;stroke-linecap:round;stroke-linejoin:round;stroke-dasharray:none;stroke-opacity:1" d="M405.6 357.7V356a13 13 0 0 0-.7-3.4q-.5-1.5-1.2-2.5l-.8-1.5.7 1.6q.6 1 1 2.5a14 14 0 0 1 .6 5l-.3 3.4a26 26 0 0 0 .6 5.3v.4-1.6l-.1-3v-1.1z" transform="rotate(.3 1423.8 3127.7)scale(.97095 1)" id="path18"/><path style="fill:#396f4a;fill-opacity:1;stroke:none;stroke-width:.4;stroke-linecap:round;stroke-linejoin:round" d="m402.5 347.9 1.1.9-.2.9-.5.5z" transform="rotate(.3 1423.8 3127.7)scale(.97095 1)" id="path19"/><path style="fill:#006;fill-rule:nonzero;stroke:none;stroke-width:.4;stroke-linecap:round;stroke-linejoin:round;stroke-dasharray:none;stroke-opacity:1" d="M398 357.5q.1-1.2.5-2.5c.8-2.2 2.9-3.8 3.8-5.7q1-2 1.4-3.5l.6-1.5.1-.5v-.1.1l-.2.5-.6 1.5q-.4 1.4-1.5 3.4c-1 1.8-3 3.3-4 5.7q-.4 1.2-.5 2.6v3.7s.3-1.3.3-2.6zm-6.6 12.2-5.4 6.4-2.2 2.7-.8.8-.2.2q.2 0 .3-.2l.7-.7 2.4-2.6 5.5-6.3.6-.7q1.2-1.1 3.2-1.6l1.1-.5.4-.1h.1-.5l-1.2.2a10 10 0 0 0-3.4 1.8z" transform="rotate(.3 1423.8 3127.7)scale(.97095 1)" id="path20"/><path style="fill:#31a17f;fill-opacity:1;stroke-width:.4;stroke-linecap:round;stroke-linejoin:round" d="m386.4 374 3.3.4-3.7 4.3-2.2-1z" transform="rotate(.3 1423.8 3127.7)scale(.97095 1)" id="path21"/><path style="fill:#006;fill-opacity:1;fill-rule:nonzero;stroke:none;stroke-width:.4;stroke-linecap:round;stroke-linejoin:round;stroke-dasharray:none;stroke-opacity:1" d="M396.8 375.2q-2.5 1.4-5 1.7c-2.8.2-5.9-.8-7.8-1.3l-3.4-1-1-.4-.2-.1h-.1l1.3.5 3.3 1.1c2 .7 5 1.7 7.9 1.6 1.8-.1 3.5-1 5.2-1.8l.4-.2c1.3-.6 2.4-1.6 3.6-2.2l.2-.1 2.8-1 1.2-.5h.4l.1-.1h-.1l-1.6.3q-1.4.3-3 1h-.2q-1.7 1.2-3.5 2.2zm19.3-15.3q.5-2.4.6-4.8c.1-2.8-.1-5.7-.3-7.7h-.2c.1 2 .3 5 .2 7.7q-.1 2.2-.7 4.7-.7 3.3-.9 6.5l.3 3.3.4 1.7-.1-1.7-.2-3v-.2q.1-3.3 1-6.5M406 382.2c-2.4 2.1-4 4.4-6.7 5.7s-6 1.8-8 2.2l-5.2.8 5.2-.7c2-.3 5.4-.7 8.1-2 2.8-1.3 4.5-3.6 6.8-5.7a15 15 0 0 1 4.2-2.7l6.4-3-6.6 2.6-2.1 1.2q-1.2.7-2.1 1.6m18.4-21.9-.7-2c-.7-2-2-4-2.8-5.3l-2-3 1.9 3.1c.7 1.4 1.9 3.4 2.6 5.4a32 32 0 0 1 2 9l.1 4.5.2 2.7.2-2.7a41 41 0 0 0-1.5-11.7m-6 28.5c-1.3 1.8-2.3 3.4-4 4.7-1.2 1-3 1.8-4 2.3l-1.8.8-.7.3h.1l.6-.2 1.9-.8c1-.5 2.8-1.2 4.1-2.2 1.7-1.2 2.8-2.9 4.2-4.7a16 16 0 0 1 6.3-5l2.8-1 1.7-.4-4.6 1-.4.2a18 18 0 0 0-6.1 5m13.9-19.6.2-4.7c0-2.5 0-4.2-.3-6.2q-.3-1.8-.7-3l-.6-1.7.5 1.8c.2.6.5 1.9.6 3 .3 2 .1 3.6.1 6.1l-.2 4.7v1.3a22 22 0 0 0 2.5 8l.6 1.2.2.4v.1h.1v-.1l-.2-.4-.5-1.2-1-3-.4-1.2-.9-3.9zm-4.2 28.6q-.8 2.3-2 4a70 70 0 0 1-6.8 5.2l-.7.5-.2.1h-.1l.3-.1 2.9-1.7c1.3-.8 3.4-2 4.8-3.7q1.3-1.9 2.1-4.1l.9-1.8q1.2-2.3 2.8-4.2 1.6-1.5 3.6-2.7l3.4-2 .7-.5.4-.2.1-.1h-.2l-1.1.6-3.5 1.9q-2 1.1-3.6 2.7c-1.3 1.2-2 2.8-3 4.3zm18.1-25a21 21 0 0 0 2.3-8.9v-5l-.3-3v3q.2 2.1 0 5 0 2.5-1 5.4-.5 1.6-1.3 3.3l-.9 1.7-.5 1.1-1 3-.1 2.7v1.6l.1-1.6.3-2.6 1.1-3 .5-1z" transform="rotate(.3 1423.8 3127.7)scale(.97095 1)" id="path22"/><path style="fill:#31a17f;fill-opacity:1;stroke-width:.4;stroke-linecap:round;stroke-linejoin:round" d="m446.7 366.3 2.4 4.5-2.3 6q-2.2-1.9-3.4-4.8z" transform="rotate(.3 1423.8 3127.7)scale(.97095 1)" id="path23"/><path style="fill:#006;fill-opacity:1;fill-rule:nonzero;stroke:none;stroke-width:.4;stroke-linecap:round;stroke-linejoin:round;stroke-dasharray:none;stroke-opacity:1" d="m447.2 373-.4-.5a30 30 0 0 1-2.6-5.4l-2.6-7.5-1.4-4.7 1.3 4.7c.5 2 1.3 5 2.4 7.7a29 29 0 0 0 3 6l2.9 3.3 3.5 5.1.9 1.3.4.5.1.2-1.1-2.1-1.3-2-2.2-3.3zm0 17.5h.2l3-1.6 1.7-.9-1.9.7q-1.4.5-3 1.4l-.1.1q-1.4.8-2.6 1.8a9 9 0 0 0-1.8 2.2l-.4.9-.4 1.3-.7 2.4a15 15 0 0 1-2.7 4.7l-2.7 3-1.2 1 1.3-.9a24 24 0 0 0 5.6-7.6l.8-2.5.4-1.3q0-.5.3-.8.7-1.2 1.8-2zm18.1-16.8-1-2.9q-1.1-1.7-2.3-3l-6-7 5.7 7.2 2.2 3 1 2.8.3.7 1.5 5.9 1.2 4 .7 1.5-.5-1.6-1-4-1.5-5.9zM457 398l-1.2.5a72 72 0 0 0-8.5 4l-.7.3h-.2v.1h.2l.7-.4 2.5-1.1 6.1-2.5 1.2-.5 1.9-.9 2.3-1.2.7-.4.2-.2-.3.1-.7.3z" transform="rotate(.3 1423.8 3127.7)scale(.97095 1)" id="path24"/><path style="fill:#31a17f;fill-opacity:1;stroke-width:.4;stroke-linecap:round;stroke-linejoin:round" d="m456 397.2 3.5-1v2l-4 2z" transform="rotate(.3 1423.8 3127.7)scale(.97095 1)" id="path25"/><path style="fill:#006;fill-opacity:1;fill-rule:nonzero;stroke:none;stroke-width:.4;stroke-linecap:round;stroke-linejoin:round;stroke-dasharray:none;stroke-opacity:1" d="m459 393 1.4-3.4-1.8 3.3-.9 2.4-.3 3.4v.4l-.3 1.8q-1.2 3.6-2.6 6.4l-1.3 2.6-.4.8-.1.3.6-1 1.4-2.6q1.4-2.7 2.8-6.4l.2-1.9v-.3l.4-3.4zm35.4-19.2.6-.4q3-2 5.4-4.2 1.5-1.6 2.4-3.3l2-3.7 1-1.6.2-.5v-.1.1l-.3.5-.9 1.6-2.2 3.6q-.9 1.6-2.4 3.2-2.4 2-5.5 4l-.5.4c-2 1.3-4.3 2.3-6 4q-2 2-3.4 4.4l-.1.1-1.4 2.1-.6 1.3h-.1l.3-.3.6-.8 1.6-2.2q1.4-2.4 3.3-4.3c1.8-1.7 4-2.6 6-4m-11 20-4.7-2.5 4.4 3q2.9 1.7 5 3.3l3 2.8 1.6 1.7c1.7 1.9 3 4 4.2 5.2l1 1 .3.5.2.2-.5-.7-1-1q-1.4-2.3-3.9-5.5l-1.5-1.7-3.2-2.8zm24.5-22.8.9-1.3c1.6-2.5 2.8-5.4 3.8-7.8l1.5-4.3.8-2.6-1 2.6-1.5 4.2a55 55 0 0 1-4.8 9l-4.2 4.9-3.2 4-1.8 2.2-1.2 1.4-.5.6-.2.2.2-.2 2-1.8 1.8-2.1 3.2-4zm-4.3 23.2q1.7 2.6 3.8 4.8c1.9 1.7 4.2 3.2 5.7 4.2l3.7 2.2-3.6-2.4c-1.5-1-3.8-2.5-5.6-4.3q-2-2.1-3.7-4.8l-2-2.6-.7-1q-.7-1-1.6-1.7l-1-.2-.4-.1h-.1.1l.4.2.9.3 1.4 1.7.7 1z" transform="rotate(.3 1423.8 3127.7)scale(.97095 1)" id="path26"/><path style="fill:#31a17f;fill-opacity:1;stroke-width:.3;stroke-linecap:round;stroke-linejoin:round" d="m511.5 399.5 4.7 1.7-.4 4.2-4.7-2z" transform="rotate(.3 1423.8 3127.7)scale(.97095 1)" id="path27"/><path style="fill:#006;fill-opacity:1;fill-rule:nonzero;stroke:none;stroke-width:.4;stroke-linecap:round;stroke-linejoin:round;stroke-dasharray:none;stroke-opacity:1" d="m511.5 388-.8-.7-1.6-1-.8-.5-.3-.1h.1l.2.2.7.5 1.5 1.1.8.8 1.4 1.8q.5 1.2.6 2.6l.4 4.6v4.2l-.5 2.6-.3 1.5v.1l.1-.5.3-1q.4-1.1.6-2.6.3-2 .2-4.3l-.2-3-.2-1.7q-.2-1.4-.6-2.6-.6-1.1-1.6-2m2.1-10.1-6.1 3.8 6.3-3.5 4.9-3 4.8-3.1 2.3-1.9c1.4-1.3 2.1-3 3.3-4.2 1.7-1.6 3.7-2.5 5-3.4q.8-.5 1.2-1l.7-.5-.2.1-.5.4-1.3 1c-1.3.8-3.3 1.6-5 3.2-1.4 1.2-2.2 3-3.5 4.1l-2.2 1.9-4.8 3.1z" transform="rotate(.3 1423.8 3127.7)scale(.97095 1)" id="path28"/><path style="fill:#31a17f;fill-opacity:1;stroke-width:.3;stroke-linecap:round;stroke-linejoin:round" d="m518.7 371.5 4.5-2.7-1.5 8.6-4 1.4z" transform="rotate(.3 1423.8 3127.7)scale(.97095 1)" id="path29"/><path style="fill:#006;fill-opacity:1;fill-rule:nonzero;stroke:none;stroke-width:.4;stroke-linecap:round;stroke-linejoin:round;stroke-dasharray:none;stroke-opacity:1" d="m521.7 366.1.3-2 .5-6.8q.2-2 .7-3.4.6-1.1 1.2-1.8l.8-1-.9 1q-.6.6-1.2 1.8-.6 1.4-.9 3.3-.4 3.2-.6 7l-.3 1.9-.5 4.2-.5 4.5-.3 1.6-.6 2.8 1.3-4.4.5-4.4zm-1 20.7-.4-.1-4.6-2.6s2 1.5 4.4 2.9l4 1.8 5 1.5 2.5.4 2.1.5c1.5.6 3 1.9 4 2.6l2 1.5.7.7.3.2h.1l-1.1-1-2-1.6c-.9-.7-2.3-2-3.8-2.7q-1.1-.5-2.2-.6l-2.5-.4-5-1.4zm9.6-5-4.3-.3 4.3.7q1.7.4 3.2 1l1.8 1.1a14 14 0 0 0 3.3 1q3.6.8 7 1l5.3-.1h4.2-1.5l-2.7-.2h-5.3a49 49 0 0 1-10.1-2l-1.8-1.1z" transform="rotate(.3 1423.8 3127.7)scale(.97095 1)" id="path30"/><path style="fill:#31a17f;fill-opacity:1;stroke-width:.3;stroke-linecap:round;stroke-linejoin:round" d="m534 359.8 2.5.1v5.2l-3.7.4q.4-2.7 1.1-5.8" transform="rotate(.3 1423.8 3127.7)scale(.97095 1)" id="path31"/><path style="fill:#006;fill-opacity:1;fill-rule:nonzero;stroke:none;stroke-width:.4;stroke-linecap:round;stroke-linejoin:round;stroke-dasharray:none;stroke-opacity:1" d="m536 362.3.7-2.7c1-3.4 1.8-6 3-8.8q1.2-2.7 2.2-4.4l1.5-2.6-1.6 2.5-2.3 4.4q-1.7 3.9-3.2 8.8l-.7 2.7q-.5 2.7-1.3 5.2l-1 2-2.4 5.4 2.8-5.2 1-2.1q.8-2.6 1.3-5.2m24.1 6.7-1-1-1.4-.7-.9-.3.2.1.6.4q.7.3 1.3.9l1 1 .6 1.7.8 2.2q.5 1.4 1.2 2.6l1.4 1.2 2 .8 2.5.6h6.7l1-.1h.5-.4c-10.6-.2 9.5 0-1 0l-2.6-.1c-1 0-2.8 0-4.1-.2q-1.2 0-2.5-.6-1-.2-1.9-.7l-.3-.2-1-1q-.7-1.1-1-2.5l-.9-2.2-.6-1.6z" transform="rotate(.3 1423.8 3127.7)scale(.97095 1)" id="path32"/><path style="fill:#31a17f;fill-opacity:1;stroke-width:.3;stroke-linecap:round;stroke-linejoin:round" d="M567.3 375.8q4 .6 7.3 1.3l-6.4 2.2c-3.7-.7-6-2-8.5-3.4z" transform="rotate(.3 1423.8 3127.7)scale(.97095 1)" id="path33"/><path style="fill:#006;fill-opacity:1;fill-rule:nonzero;stroke:none;stroke-width:.4;stroke-linecap:round;stroke-linejoin:round;stroke-dasharray:none;stroke-opacity:1" d="m549 375.3-4.8-1 4.6 1.4 3.8 1 5 1.3q2.6.6 5.1.7c2.6-.1 4.9-1 6.8-1.5l5.4-1-5.4.8c-2 .4-4.3 1.2-6.8 1.3q-2.5-.1-5-.7h-.1l-4.9-1.3zm.2-26.2v-2.5a41 41 0 0 1 2-9.7l-1.6 5.4-.7 4.3-.1 2.5v1.7q-.2 3.1-.9 6.2c-.5 2.3-1.7 5.8-2.6 8.6l-1.3 4s1-1.9 1.7-3.9a74 74 0 0 0 2.6-8.6q.7-3 .8-6.3zm14.9-1.8a16 16 0 0 0-.8-3.8l-1.2-1.8q-.9-1-1-1.9-.2-1 0-1.7l.2-1-.3 1-.1 1.7q.2 1 1 2l1.1 1.8.6 2.7v10.8-.1l.2-1.5.3-4.3z" transform="rotate(.3 1423.8 3127.7)scale(.97095 1)" id="path34"/><path style="fill:#31a17f;fill-opacity:1;stroke-width:.3;stroke-linecap:round;stroke-linejoin:round" d="M560.5 336.4h1.5l-1.4 5.6-2.2-.2z" transform="rotate(.3 1423.8 3127.7)scale(.97095 1)" id="path35"/><path style="fill:#006;fill-opacity:1;fill-rule:nonzero;stroke:none;stroke-width:.4;stroke-linecap:round;stroke-linejoin:round;stroke-dasharray:none;stroke-opacity:1" d="M556 349.4q.9-1.7 1.6-3.6l4.9-12.5s-2.5 5.7-5.2 12.4l-1.6 3.6-.3 1q-.5 2.5-.5 5l-.3 3.5-.2 1.8-.2 1.9-.2.7v.3-.2l.8-2.6.2-1.8.3-3.5q0-2.6.5-5 0-.6.3-1m11.3 11.8h-1.8l-.7.2h-.3 1q.9 0 1.7.2h.2q.9.3 1.8 1 .6.3 1 .9.9 1 1.3 2l1.6 2-1.3-2.2-1.3-2-1-1.1q-1-.7-2-1z" transform="rotate(.3 1423.8 3127.7)scale(.97095 1)" id="path36"/><path style="fill:#006;fill-opacity:1;fill-rule:nonzero;stroke:none;stroke-width:.3;stroke-linecap:round;stroke-linejoin:round;stroke-dasharray:none;stroke-opacity:1" d="m572.5 343-.1-7.3-.2 7.3v4.1l.2 3v-3.4zm1.8 12.6c-1.5 0-3 .3-3 .3h3q1.3 0 2.2-.3l1.6-.2 3.4-1v-.2l-3.4.9z" transform="rotate(.3 1423.8 3127.7)scale(.97095 1)" id="path37"/></g><g aria-label="COMMONWEALTH OF KENTUCKY" style="font-size:29.3333px;line-height:1.25;font-family:&quot;Highway Gothic&quot;;-inkscape-font-specification:&quot;Highway Gothic, Normal&quot;;display:inline;fill:#f6c604;stroke-width:.96" id="g38"><path d="M343.8 209.3q.4-2.1-1.4-3.5l2-2.5q3.2 2.5 2.4 6.7-.7 3.4-3.7 4.6-3 1.3-7.7.3t-7-3.4-1.5-5.8q1-4.1 5-5.1l.8 3.1q-2.2.6-2.7 2.7-.4 2 1.3 3.3t4.7 2 5.2.1 2.6-2.5m7.3-14.5q-1.1 3.3-4.2 4.2-3.1.8-7.8-.8-4.5-1.6-6.4-4.2-1.9-2.7-.8-6 1.2-3.2 4.3-4 3.2-1 7.7.7 4.7 1.6 6.5 4.2 1.9 2.6.7 5.9m-16.2-5.7q-.7 2 .8 3.5 1.6 1.5 4.5 2.5 3.2 1.2 5.2 1 2-.4 2.7-2.4t-.7-3.5-4.6-2.6q-3.1-1-5.1-.7t-2.8 2.2m26.2-17.2-1.4 2.8-10.2-5.2 8.1 9.3-12.2-1.2 10.1 5.2-1.4 2.8-17.5-9 1.4-2.7 12 1-7.8-9.1 1.4-2.8zm10.2-14.9-1.8 2.6-9.3-6.5 6.7 10.2-12-2.8 9.4 6.5-1.8 2.6-16.1-11.3 1.8-2.5 11.6 2.6-6.4-10 1.8-2.6zm6.7-7q-2.4 2.6-5.6 2.2t-6.8-3.7-4.3-6.4 1.7-5.8 5.6-2q3.2.3 6.7 3.6 3.6 3.3 4.3 6.5.7 3-1.6 5.7m-12.7-11.6q-1.4 1.5-.6 3.6.8 2 3 4 2.6 2.4 4.5 3 2 .5 3.4-1.1t.7-3.5-3.2-4.2-4.4-2.7q-2-.5-3.4 1m29.4-4.3-2.1 1.8-14.4-5.3 8.6 10.2-2.3 2-12.8-15 2.4-2 13.6 5-8.1-9.7 2.3-2zm5.6-27.3 8.2 18.1-2.4 1.5-9.4-9 4.3 12.3-2.3 1.5-13.1-15 2.7-1.7 6.8 8-3.5-10.1 2.6-1.7 7.7 7.4-4.3-9.6zm23.5 10.5-11 5.2-8.4-17.8 10.4-5 1.4 2.9-7.7 3.6 2 4.4 5.3-2.5 1.3 3-5.2 2.4 2.3 4.8 8.3-3.9zm17.6-6.1-3 1-3.7-4.6-5.8 2v5.8l-3.2 1 .2-20.8 3-1zm-8.7-6.3-3.6-4.6-.1 5.9zm22.7 3.6-12 2.3-3.7-19.3 3-.6 3.2 16.2 9-1.7zm13.7-18.2-4.5.3 1.3 16.9-3.1.2-1.3-16.8-4.5.3-.2-2.7 12.1-1zm17.7 17.3-3.2-.1.4-8.5-7.1-.3-.4 8.5-3.1-.1.8-19.7 3.1.1-.3 8 7.1.3.4-8 3 .2zm16.8 3.2q-3.3-.8-4.6-3.7t-.1-7.8q1-4.7 3.4-6.9T508 91t4.6 3.7.2 7.7q-1.1 4.8-3.5 7-2.3 2.2-5.8 1.4m3.8-16.8q-2-.5-3.3 1.3-1.4 1.6-2 4.6-.8 3.4-.3 5.4t2.5 2.3q2.2.5 3.5-1 1.2-1.6 2-5 .6-3.1.1-5-.5-2-2.5-2.6m22.8 7.3-8.5-3-1.7 4.5 5.4 2-1 3-5.4-2-2.9 8-2.9-1 6.6-18.5 11.5 4zm15.8 26.6-3.2-1.8.3-10.6-3 1.2-3.4 6-2.7-1.6 9.8-17.1 2.7 1.5-3.9 6.8 9.2-3.7 3.5 2-9 3.6zm12 8.8-9.8-7.3 11.7-15.8 9.3 6.9-1.8 2.5-6.8-5-2.9 3.8 4.6 3.4-1.9 2.6-4.6-3.4-3.2 4.3 7.3 5.4zm12 11-2-2 3.7-14.7-9.1 9.6-2.3-2.1 13.5-14.3 2.3 2.1-3.5 14 8.7-9 2.2 2zm22.8.6-3-3.5-13 10.9-2-2.4 13-10.9-2.8-3.4 2.1-1.8 7.8 9.4zm2 20.6q-2 1.3-4 1.5-1.6.1-3.2-.7t-2.7-2.4q-1-1.5-1-3.3-.2-2 .7-3.4 1-1.6 2.9-3l10.6-6.8 1.7 2.6-10.6 6.9q-1.6 1-2 2.5-.5 1.4.4 2.8t2.4 1.5 3-.8l10.7-6.9 1.7 2.6zm1.2 11.7q1 2 3.2 1.9v3.2q-4 0-6-3.8-1.5-3 0-6 1.7-2.8 6-4.9 4.3-2 7.5-1.6 3.2.5 4.8 3.7 1.7 3.8-.8 7l-2.5-2q1.4-1.7.5-3.7-1-1.8-3.1-1.8-2.2 0-5 1.4t-4.2 3q-1.3 1.7-.4 3.6m5.7 22.2-1.2-3.4 7.2-7.7-3-1-6.5 2-1-2.9 18.6-6.3 1 3-7.4 2.5 9.4 3.3 1.3 3.8-9.2-3.3zm23.1 14.7-12.2-4.6-8.4 1.7-.6-3 8.4-1.7 9.6-9 .7 3.7-6.6 6.1 8.4 3.2z" id="path38"/></g><g style="display:inline" id="g52"><path style="fill:#f7daca;fill-opacity:1;stroke:none;stroke-width:.3;stroke-linecap:round;stroke-linejoin:round;stroke-dasharray:none;stroke-opacity:1" d="m465.9 172.6-8.7 6.3.7 8.3 1.6 1 4.1 1.3 1.3-.7h2.9l.5-2.2.4-3.3.8-.2.4-.8-1-3.2.6-1.5-.2-3.4z" transform="translate(0 -8.9)" id="path39"/><path style="fill:#f6c604;fill-opacity:1;stroke:none;stroke-width:8.183;stroke-linecap:round;stroke-linejoin:round;stroke-dasharray:none" d="M467.6 171.1c-3.4-1.7-6.8-3.5-11.7.3-2 3-4.3 6.1-2.2 8-2.3 6.1.3 6.4 1.4 8.3 2.5-.1 3-2.4 3.8-4.4-.3-1.3-1-2.8-.5-3.8.6 0 1.4-.4 1.5.6l1.6-.8 2.8-5.5c.9.2 2.2-.6 2.4.9 1.5.5 2.1.8 2.7-.3.3-1.5-.7-3.3-1.8-3.3" transform="translate(0 -8.9)" id="path40"/><path style="fill:#dcbc68;fill-opacity:1;stroke:none;stroke-width:8.183;stroke-linecap:round;stroke-linejoin:round;stroke-dasharray:none" d="M455.7 188.3q-4.5 3.8-7.1 8.3-.9 1.3-1.5 5.8-.7 2.7-3 6.8 1.4.6 2 1.5c-.2 2.2 1.8 1.8 2.8 2.6-1 4.4 1.3 8 1.7 12q.3.9-.2 1.4l-3 19.7c.5 0-.8 19.5-1.5 19.9-.5.2 3.2 2.3 3.2 2.3-.6 5.5-2 10.8-1.6 16.2.5 7.2 4.1 14.4 3.3 21.8-.5 2.8-1.5 5.8.8 8l11.3 2.6c4.6 1 7-1.2 8.4-3.2 2-.3 4.6-1.6 4.2-3.6-4.2-1.5-8-3.9-9-7.5l-8.1 1.1q-1.3-9.3-.8-18.6c.2-4.6 1.4-8.4 2.6-12.3l.4-3.5 2.3.5.3 2.6c-.3.8-.2 1.7-.6 2.5-2.3 6-3 9.8-3 20l-.6 9 7.8-1.2c-.5-5.2 1.6-10 3-14.8 1.4-6.5 3.2-13 3.8-19.6q.5-1.2 1.7-2.1l-1.3-18c0-6.3-1.3-12.4-2.6-18.5 1.3-.8 1.5-2.6 1.4-4.3q.6-2.5-.7-3.6l-1.3-.8-.6-6.5 2-7c2.7.1 5.4.4 8.2-.1 1.6-1.6 3.4-3 4.7-5.1l-.2-1.4-6.2 2c-3.4-1.7-5.8-4.3-7.8-6.3l-6.8-7.1-6.6-2z" transform="translate(0 -8.9)" id="path41"/><path style="fill:#bc7e59;fill-opacity:1;stroke:none;stroke-width:8.183;stroke-linecap:round;stroke-linejoin:round;stroke-dasharray:none" d="m467.6 229.5-7.8-.8-1 1.3-3.1 1.7-1.6 4c-1 3.6-2.6 6.7-6.6 7.2q-3.4-1.7-1.6-9c1.8-3.5 3.5-7.4 6.6-6.7q2.4.7 2.4 2.8 1.8-.3 3-1.4c.3-.3-8.2-.6-8-1 .1 0 1-1.4 1-2.2 1.8 0 6.8.6 8.4.9.4 0 0 .5 0 .4zm-4.4-14.2 1-4 1 1.5-.8 4.6q-.8-.7-1.1-2.1m1.8-9.5q.9-4 1-8v-6l1.1 1.1.4 5-.6 5-.7 3.7c-.3.6-.8-.2-1.2-.8" transform="translate(0 -8.9)" id="path42"/><path style="fill:#8c584b;fill-opacity:1;stroke:none;stroke-width:.3;stroke-linecap:round;stroke-linejoin:round;stroke-dasharray:none;stroke-opacity:1" d="M482.4 306.4q-2.9 2.9-7 3.6l.3 2.4 4.8 1-1 2.6c1 2.3 4.5 2.6 8.3 2.5q4.3-.6 8.1-2.4l5.4-.8.3-5.6z" transform="translate(0 -8.9)" id="path43"/><path style="fill:#6b7487;fill-opacity:1;stroke:none;stroke-width:.3;stroke-linecap:round;stroke-linejoin:round;stroke-dasharray:none;stroke-opacity:1" d="m493 192.3-1.7.4-6 8.2-.5 2.7c-.1-.2-3.7 3.9-5.1 4.2a51 51 0 0 1-12-.4c0-.2-1.6-1-2.2-.5-1.3 1.2-1.2 4.9-.3 5.9l5 2 8.2 1.5c.5.2 4.7-.8 4.7-1q-.5 5 .4 9.6c-.7.6-.5 2.4-.7 3.8l-1 39.2v6.7l1.4 17 .2 10.5-.9 3.9 2.1 1 1.3 1.5.7 1.8c2.4-.4 4-1.7 4.2-2.2l3.2 1.5c.3.2 2.4.7 2.4.6l4-.2 1.5-.9c1-4.4 1.7-8.6 1.7-13.5.5-6.6.1-13.4.1-20.1l.7-2c.7-3 .6-6.4 1-9.6v-22.5L504 232l-1.3-7 .1-7.5 1.3-4.2 1.3-7.4c-.2-2.7-.3-5-.7-8 .1-2.7-1.5-5.5-2.8-8.1l-1.9-2z" transform="translate(0 -8.9)" id="path44"/><path style="fill:#9fbef0;fill-opacity:1;stroke:none;stroke-width:.3;stroke-linecap:round;stroke-linejoin:round;stroke-dasharray:none;stroke-opacity:1" d="M499 184.7h-2.4c-.3-.4-8.7 3.5-8.3 4.3.1.4-3.8 11.8-3.8 11.8l.7.3 6-8.4 1.4-.3q3.9-2.2 7.5-4.6zm-2.9 79.6q.3 11.7 1.3 23.4.1 11.3-1.1 22.4l2-.1c.5-8.4.4-16.8.5-25.1q-1-9.3-1-18.6z" transform="translate(0 -8.9)" id="path45"/><path style="fill:#f7daca;fill-opacity:1;stroke:none;stroke-width:.3;stroke-linecap:round;stroke-linejoin:round;stroke-dasharray:none;stroke-opacity:1" d="m485.4 174-.6 4.6-1 3.5v.5l1.4.5.5 2.8.1 2.4 2 1 1.1-1.2 8-3.8-3.3-13.1z" transform="translate(0 -8.9)" id="path46"/><path style="fill:#8c584b;fill-opacity:1;stroke:none;stroke-width:.3;stroke-linecap:round;stroke-linejoin:round;stroke-dasharray:none;stroke-opacity:1" d="M485.6 174q3-1.2 4.7-.4c.5 2 .6 4.1 1.6 6.2q.2 1.4-.2 2.9h2.6c.2.3 4.8 1.8 4.8 1.4l1.6-2 .3-5.5s-1.4-4.7-1.8-4.9l-4.7-2.5q-4-.1-6.8 1.5z" transform="translate(0 -8.9)" id="path47"/><path style="fill:#f7daca;fill-opacity:1;stroke:none;stroke-width:.3;stroke-linecap:round;stroke-linejoin:round;stroke-dasharray:none;stroke-opacity:1" d="M459.8 201.9c-.2.7.4 1.2.7 1.7q-3.4-1-5.7-.7l-.1.6.8.8q-.8 0-1.4.4-.3.8.5 1.2l-.5.5.4 2.2 4.5.9c1.6.7 3.1 1.8 5.1 1.7l1.6-4.5c.1-.3-3.6-3.3-3.6-3.3q-.5-1-1.7-1.5zm22.4 18.1-2 1-1.9-.3-5.4 2.1v4.5l1.1.2 3.1 2 1.3.2 1.3.5 2-2.5c0-.3.9-1.6.9-1.6l.8-.7-.6-5.4z" transform="translate(0 -8.9)" id="path48"/><path style="fill:#8c584b;fill-opacity:1;stroke:none;stroke-width:.3;stroke-linecap:round;stroke-linejoin:round;stroke-dasharray:none;stroke-opacity:1" d="m461.8 231.6 1.1-1.5c1.3.2 2.6 2.2 2.5 3.7l-1.6 1.7c-.1-1.5-.2-2.7-2-3.9m-1.6 1.3-1.6.2q.1 2.5-1.3 3.9 1.5 1 3.7.4.4-2.2-.8-4.5m-4.7-1.1 1.3.7a4 4 0 0 1-1.7 3q-1-1-1.6-2 1.2-.5 2-1.7m-2.8-2.2q-.5.7 0 2 1.1 0 1.5-1-.7-.8-1.5-1" transform="translate(0 -8.9)" id="path49"/><path style="fill:#f7daca;fill-opacity:1;stroke:none;stroke-width:.3;stroke-linecap:round;stroke-linejoin:round;stroke-dasharray:none;stroke-opacity:1" d="m454.2 230.8 1.2 1q-.6 1.4-2 1.5l-.6-1.5zm7.6 1c1.9.8 1.7 2.3 2 3.8q-1.3 1.4-2.7 1.8c0-1.5 0-3-.8-4.5q.8-.4 1.4-1.2m-5 .8 1.7.5q.3 2.7-1.3 3.9-1.2-.5-2.1-1.5c.7-.8 1.5-1.5 1.7-3" transform="translate(0 -8.9)" id="path50"/><path style="display:inline;fill:#000;stroke-width:.0624573" d="M462 169q-2.5-.1-4.6 1-1.8 1.2-2.9 3a16 16 0 0 0-1.7 3.9l-.2.8.5 1.7c0 1.3-.8 2.6-.5 4a8 8 0 0 0 2.6 4.6c.2.2-3.4 3.5-4.8 5.5a19 19 0 0 0-2.5 4.2c-.6 1.5-.5 3.2-1 4.7-.6 2.1-2 5.4-2.4 6q-.7 1.1-.3 1.2 1 .1 1.6 1c.2.3-.1.8 0 1.1.5 1 2.4 1.3 2.7 1.8l-.2 1.2q.4 4 1.5 7.7l.5 2.5c.2.5.6.7-.1 1.9l-1.5 1.8-1 1.2q-1.5 2.3-2.3 5c-.5 1.5-.8 3.5-.5 4.9.2 1.3.3 1.3 1.1 2.4l1 1.4v1.3c0 .5 0 10.4-.4 15.6l-.8 5.4c-.2.7.5 1 .9 1.5.6.6 2 1 2.1 1.4.1.5-1.5 8.7-1.8 13v2.8q.1 1.8.5 3.6v.1c.9 4.1 2.2 8.2 2.8 12.4q.4 2.3.3 4.7l-.7 3.4-.2 2.6c.3 1.2.7 2.6 1.6 3.4.7.6 1.8.6 2.7.8l2 .2 3.1.8 4.4 1.3q1.8.1 3.5-.2t3.3-1.8c1.4-1.3.8-1.4 1.6-1.6a9 9 0 0 0 3.2-1.3c.4-.4 2.6.4 2.6.4l2 .2c.9 0-1.1 1.7-.8 2.5.8 2 3.6 2.4 5.6 2.8q3.3.6 6.7-.4c1.3-.3 2.8-1.3 3.7-1.6q.3.5.7.5l6-1.4.3-6.4a93 93 0 0 0 2-14q.4-7.2.2-14.3l-.1-2v-4.4c.3-.4.7-1.5.7-2.3q1.5-13.5 1.2-27.1-.4-6.6-1.4-13.2c-.3-3-1.4-6-1.4-9 0-6.1 2.4-12 2.7-18a43 43 0 0 0-2-13q-1-1.9-2.3-3.6-.4-.6-1.2-1l-1-2.5c-.4-1 1.5-1.8 1.8-2.8.3-.7 0-1.5 0-2.2s.5-1.6.5-2.5q-.1-1-.5-2.2l-.3-1c-.3-.8-.7-2-1-2.3a15 15 0 0 0-4-2.8q-1.6-.5-3.5-.3a9 9 0 0 0-5.8 2.3q-.7.6-1 1.7l-.8 1.5c-.2 1 0 2.9-.2 3.2v1l-.4 1.6q-.9 2.2-.4 2.5t1 .3c.6.4.1.6.4 1.4l.2.8.2 1q.2.8 0 1.4c0 .6 0 .8.9 1.1.4.2 1.4.7 1.4 1l-.5 2.7-2 5.1-.9 2.5q-.4 1-.9 1.5c-.3.3-3 1-3.1 1l-.9.2q-1 .5-1.4.1c-.2 0-2.3-1.5-4.2-3.1-.8-.7-1.3-1.9-2-2.5q-1.2-.9-2.7-2.4l-3-3.4c-1-1-3.4-3 1-2.2 1.2.2 1.3-1 1.3-1.7q-.2-.8.3-2.4c.2-.4 0-1.3 0-1.4.1-.5.5-.2.9-.6.5-.6.4-.8.2-1.5l-.5-1.4c-.5-1.2 0-.7.3-2.3v-2.2l.1-2q0-1-.3-2c-.8-1-3-1.6-3.6-2a7 7 0 0 0-4-.8m-.3.4 1.8.1 2 1q1.5.5 2.9 1.3.6.3.7.7v1.3l-.2.9q-.3.5 0 .5l.4.2c.1.2-.3.3-.3 1.1l.2 1.1c-.2.5-1.2.6-2 .3h-.5c-.3 0-1.5.4-1.5.6s.7.3.9.3q.1.5-.3.6c-.3.2-.4.6.8.5q.5 0 .8-.3l.4-.3c.1-.2.7-.2.7-.1l.3.7.3.9q1 1.9.2 2l-.7.1q-.6 0-.8-.2-.2-.5-.5-.3-.6.5-1 1.3c0 .5-.2 1.5 0 1.5.4 0 2.3 0 1.8.7q-.2.4-.2 1.1c0 1 0 1-.3 1.3-.5.4-1.2.1-1.8 0-1.1-.2-2.7-1.2-3-1.4a3 3 0 0 1-1.8-2.5l-.1-.4-.4-.1c-.6-.2-1.4-.5-1.4-1.4l-.2-.8q-.5-.5-.5-1.1.1-1.1.8-1c.7 0 .6.9.7.8l.2-.6q0-.8-.7-.8h-.6c-1 .3-1 1.2-.8 1.6.3.5 1 2.5.6 3-.3.6-1.3 1-1.7.7q-.2-.2.1.4.3.3.2.8c0 .5-.6 1.9-1.6 1.7-.2 0-1.4-.4-1.4-1.3 0-.2-1-.8-1.1-2.5 0-1-.3-2.8.9-3 1.1-.1.7 1.6.5 1.9-.4.5.2.8.4 1q.4.3.5.7 0 1 .6 1c.5 0-.1-.8-.2-1.1q0-.5.2-.6l.1-.3c0-.4.7-.6.8-.6 0 0-.4-2.4.1-3.3l.7-1c.2-.4 1.1-2 .8-1.7-.4.2-1.6 2.6-2.2 2.6-1 0 .7-2.7 1.3-3.3s2.1-1.2 2-1.4c0-.2-1.6.6-2.2 1.1q-.7.8-1.2 1.7l-.5 1.3c-.3.6-.4 1.6-1 1.5q-.3 0-.4-.3c-.3-.4.5-1.6.6-2.1l1.6-3.1c-.5-.1-2.1 3.6-2.2 3.7-.4.7-1 .4-1.2.1-.8-1 1.8-5.5 2-5.3.6.5.5.8 1.8.2q.7-.7 1-.4c.3.3 1.1.3 1.4-.2.5-.8.4-.9 2.3-1.5-1.8-.5-2.8.2-5.4 2-.2.1-.8-.3-.5-.7l1.5-1.5a8 8 0 0 1 2.7-1.2zm32.8.1c.6 0 1.4.7 1.4.8v.3l.4.2q.9.2 1.6.7.7.3.7.5c0 .1 1 .8.9 1-.1.3.4.7.6 1.1l.2.8.1.6c0 .4-.5.4-.6.5s.1.1.1.9c0 .6 1 1 .8 1.3-.2.5-2.2 0-2.8 0q-1.2-.2-1.3.4h.3q.6 0 .8.5l.3.3c.3.1-.8 0-.7.3q.1.2.4.3.6 0 1 .5l.1.2.2-.2c.2 0 .8-1 1.3-.8.6.3.2 1.9.1 2.2l-.1.5h-.5c-.4 0-.2.6-.4.8q-.4.6-.8.6-.2 0-.3-.2v-.5q.3-.4 0-.5-.1-.2-.2 0l-.3 1.2q-.2.1-.6-.6c0-.3-.3.2-.6.2l-.4-.3q-.3-.3-.3-.7.2-1.4-.8-.5-.6.6-.8.5c-.4 0-.9.5-1 0l-.4-.2q.3-.6 1-1 .8-.5.8-.8 0-.2-.3-.2l-.8.1c-.7.1-1.1 2.3-1.6 2.2-.2 0 .3-1.7.3-2.2q0-.7-.2-1l-.4-.8-.3-.6v-.9l.1-.6c0-.9 0-.9.4-1l.2-.2q0-.3-.6-.4-1-.3-1-1 .4-.3 1.5-.7.8-.1.5-.2l-1.5.2-.7.2q-.5.1-.3.8.2.3.1.5l.4.7q.3.3.1 1l.2.4c.3.2 0 .3 0 .7v1c0 .5 0 .4.8 2q.4.5 0 1.2-.6 1.5.7 1.6l.5-.2q.6-.3 1.4 0c.1.3 1 .6 1.5.5s.4.7.2 1l-1.9.7-1.4.7-2.3 1.1-1.5 1c-.3.1-.7.7-.9.9 0 0-1-.5-1.3-.5-1.1 0-.5-1.1-.5-2.1s-.2-1-.1-1.2c.2-.1 1.2-.3 1.5-.2q.4.1.3-.3 0-.3-.8-.1-1 .1-1.4-.1c-.1-.3-.2-1 0-1.2q.2-.6.4-.5c.1 0 .3-1.6.2-1.7l-.4.6c-.2.9 0 1-.6 1-.3 0-1 0-1.2-.2-.3-.3.5-1.7.5-1.8l.3-1.1.3-.4c.3-.2 1 .1 1.1.3q.6.4.5 1t.2.2l.4-.6.3-.3q0-.2-.4-.3t-.4-.5.6-.7.3-.4h-2.4q-.3-.2-.2-.8l.1-.8.1-1c0-1 .2-1 .6-1.3l1-.7c.2-.4.3-.4.2-.9q-.2-.4.3-1c.3-.2 1.6-1 1.9-1l.7-.2.7-.3c.8-.3 1 0 1.3-.2zm-1 1.3h-1c-.2.1-2.2.7-2.6 1q-.4.5-1 .6t-.7.5v.2h.9l.7-.5.5-.4.8-.3.7-.2 1.3-.3 1-.2q.6 0 0-.3zm-30.6 2-.2.1v.2q.3.6-.4 1.2l.2.1q.3 0 .3.4-.2.5-1.2.7h-.4q0 .3.2.4t0 .8v.8l-.2.5.2.2q.3.2 0 .7l-.1.5h.2l.3-.2a4 4 0 0 0 1.5-2l-.2-.3-.2-.3q0-.4.5-.6.4-.3.5-.8.3-.6.8-1l1.5-.3s.3.8.5.8q.3-.1.3-.7t-.4-1h-.2l-.4.4-.6.1-.9-.2-1.2-.4zm30.5 3.2q-.6 0-.8.6v2h.2q.3 0 .3-.9l.1-.6.3-.6q.3-.6-.1-.5m-37 3.5c.4 0 0 1.4 0 1.5l-.4 1.4c-.2.5-.5 1-1.1.5q-.4-.2.2-1.7c.2-.3.2-1.9 1.3-1.7m6 1.7v.2l.4.8.3.2s0-.6-.2-.9q-.2-.3-.5-.3m5.1 2 .8.3v1.2c-.4-.2-1.8.2-1.6-.6q.1-.6.6-.8zm-8.2 1c1.7.1.7 2.4 2.9 3.1.5.2.5.1 1.4.9.4.3 0 1-.4 1-2.3-.4-4-1.5-4.8-2 .2-.1 1-2.5.9-3m38.5.6q1 0 1.3.3l.8 2.6-1.6 1.2-2.9 1.8-2.9 1.5-1.3.2s-5.6 8-6.2 8.4c-1 .2 2-5.3 2.7-8l.6-3.4c.1-1 5.7-4 9-4.6zm2.2 3.3.3.1 1.2 1.4a17 17 0 0 1 2 3.6q.9 2.7 1.2 5.4a35 35 0 0 1-.3 11.8q-.1 1.5-.5 2.8l-.8 1.8c-.4.9-2 2.8-3.8 4.2-1.9 1.6-2.4 1.6-3.4 2.6-.3.2-.9.6-.8.8l1.1-.4q1.4-.8 2.6-1.8l2.7-2.3c.3-.2.9-.8.9-.6s-1.8 2.4-3 3.4c-.7.7-2.6 1.9-2.6 1.9l-.3.5.4.2c.1 0 2-1.2 3-2l1.6-1.5 1-1-.5 1.1q-.7 1.2-1.6 2l-1.7 1.3c-.5.6-1.3 1-.7 1l1-.6 1.3-.8h1c.4.5-.1 1.1-.3 1.7-.3 1-1.1 1.9-1.4 3q-.3 2.2-.2 4.3l.1 3q0 .4.2.6l.3-.6v-2.5l.1-1.5q-.1-1.5.4-3l.8-.9q.8-.4 1.2-.3l.4 1.2 1 4.8.5 4a115 115 0 0 1 .8 11v7.2l-.1 3.1-.2 3.7q-.1 4.8-.5 9.4l-.2 1.8q-.2.5-.5.6l-.8-3.5-.5-3.3q-.2-4.2 0-8.4v-3.2l.4-12.8v-3c0-.8-.6-6.3-.8-6.6v6.8l.1 11.4-.1 7-.2 6.2q0 2.9.6 5.7c.2 1.2 1 3.4 1 3.4l-1-1.2a60 60 0 0 1-7-10.7 113 113 0 0 1-8-34.4c.1-1.7-.3-1.7-.5-1.7h-1.4c-1.1 0-1.3 0-1.5-.2-.3-.1-.7-3.4-.7-5.5l.2-3.8 3.6-2.1 4.4-3q3.5-2.2 6.2-5.4 1.6-1.8 2.4-4.2v-2q-.1-.5-.5-.8c-.3-.1-.6-1.2-.6-1.2q-.2-.1-.4.2l-.2.5a6 6 0 0 1-1 2l-1 1.5-1.2 1.2-2 1.6-3 2.1-2 1.4-2 1-.3.2-.1.4 1.7-.5 2.1-.7 2.2-1.3 3.6-2c.7-.5 1.7-1.5 1.9-1.5l.2.1-1 2.2q-.6 1-1.7 1.8l-3 2.4a62 62 0 0 1-6.3 4.2c-1.1.5-2.4 1.4-3.3 1.5s-2.3 1.2-6 .3c-.3 0-3.2-.5-5.8-1.2l-4-1.4q-.8-.4-1.2-1.3-.3-.2-.4-1.3c0-1 1-3.2 1.1-3.3q.4-.5 1.3 0c.3 0 1.1.5 1.7.6 1.5.3 1.5.3 4.4.3h2.8s1 0 1.1.4v1c0 1.1.1 1.2.4 1.4q.5.1.4-.4t.2-.8v-.5q.3-.7.7-1c.2 0 .4.8.5 1.2q0 .6.4.8h.3v-1.8l1-.9 3.4-3.2c2.4-2.6 4.4-5.8 7-8.3l3-2.3 1.3-.4q1.7-.6-.1-.5c-.3 0-1.7.4-2.5.9q-.8.4-1.5 1.2c-.9.7-3.3 3.6-3.7 4.2l-2.1 2.7c-.3.3-.1-.5 0-.8.3-1.1 1.3-2 2-3l.7-1 .8-1.2 1.8-2.4.3-.4.9-.2.6-.2 1.2-.7 1.5-.9 2.6-1.6zm-41.8.1c.6 0 2.2.6 3 .8l1.4.4q.6.1 1.1.5c.8.5 2 1.6 2 2 .1.7.4 4.4.2 6.6a45 45 0 0 1-1 6.9q-.5-.2-1.5-1.1l-1.4-1.5c-.3-.5-2-1.7-2.6-.8-.2.3.4 1 .6 1.3a22 22 0 0 0-5-.6c-.6 0-.7 1-.4 1.1q1.4.5-.3.5c-.5.1-.5 1-.2 1.2q.5.5 0 .5-.2.2-.2.7l.3.9v1q.3.6 1 .5c1 .4 3 0 4.3.8 1.7 1 3.2 1.4 3.6 1.4l.8.2c-.1.5-.3 1.9-.6 2.6-.7.5-1.6-.5-2.4-.8-1.4-.5-6 .3-6.2 0-.1-.2.2-2.5-.2-2.6s-.2 2.6-.3 2.7l-.7.2q-.7 0-.9-.5c0-.9.2-3.4-.1-3.4s.1 3.7-.4 3.9c-.7.2-2.8-.4-3-.6 0 0 .6-1.5.7-2.3 0-1 .5-2.7.5-2.8.1-.2.4-1.6.2-1.7l-.2.5-.8 3.9c-.3.9-.4 2.3-.6 2.3q-.7.2-1.2-.3c-.3-.2-1.1-.5-1.2-.7-.7-1 1.3-3 1.5-3.4l.7-2.2c.3-.8.8-6.2 1.2-6.8.2-.4 2-3.2 1.8-3.2s-2.2 2.2-2.3 3.3c-.1 2-.7 4.6-.7 4.8a12 12 0 0 1-2.3 5.9l-1.2-.6-.1-.4c-.3-.1-.9 0-.8-.1l1.9-3.6 1.2-3c0-.2.3-3.4 1-5a13 13 0 0 1 2.3-3.8c.6-.7 1.5-2 2.1-1.8.3.1.8 1.7 1.1 1.6s0-2.2 0-2.3q.1-.5.5-.6c.3 0 .8 1.7.9 2l.2.3q.2-.1 0-1l-.5-1.5v-.4h.6l2 3q.2-.2 0-.8c-.4-.3-1.3-1.7-1.2-2q0-.4.3-.3.3 0 .5.2c.4.5 2.7 2.2 3.8 3.5l.8 1.5q.6.8.4-.1c0-.2-.6-1.1-1-1.6-.6-.8-2.1-2-2.1-2q-.1-.7.7-.4c.2 0 3 2.2 3 2.1l-2-2-2.8-2.8q0-.2.2-.2m8 4 .6.5c.3.4.5 4 .4 6 0 2.6-1.1 7.6-1.2 7.7 0 0-.7-.2-.9-.5-.1-.2 1-5 1.2-7.5.2-2-.2-6-.1-6.2m1.6 1.8c.2 0 .6 1 .8 1.1.7.6 3.6 2.9 4.4 4.9v1.7l-.2 2.3c0 .4-.4 1 0 1.1s.5-.8.7-1.3q.2-.7.2-1.6 0-.7.3-1.2c.4-.2.5-.3 1.3.2.1 0 2.2 1.5 2.7 2.7.2.3 0 1 0 1l.2.4q0 .2.3-.2c.1-.2-.1-1 .2-1.2 1.8-1.2 5.7-2.4 6-2.3.4 0-.4 2.2-.7 2.4s-3 3-3.5 3.3c-1.1.7-3.5.5-5.3.4-2.9 0-7 .4-8.5-1.3-.6-.8.4-1.9.5-2.8l.3-3 .2-1v-1c.1-1.1-.2-2.3 0-3.5 0-.3-.2-1 .1-1m1.4 5.8h-.3c-.1.5.5.7.7 1l.5 1.5.3 1.3.2.6h.2q.2-.1 0-.5 0-1-.3-2l-.5-1.4q-.3-.5-.8-.5m-9 2.3q.8 0 1.6 1c.6 1 1.2 1.2 1.7 1.7s1.7 1.6 1.8 1.9c-.8.2-1.8 3.8-1.3 4.2-2 .3-2.7-.8-4.4-1.4q-1.8-.5-3.9-.7-.9 0-1-.4t.3-.6c.4 0 2.3.5 2.4.2.1-.7-1.6-.7-2.3-.8-.3 0-1-.2-.8-.6q0-.3.2-.4l1.5.1q1.3.3 1.5-.1c.1-.4-.6-.4-1.3-.4-.9-.1-2-.1-2-.6q0-.4.2-.6h2c.8.1 1.1.4 1.3 0 0-.3-.8-.4-1.4-.6s-1.7-.2-1.5-.6q0-.3.3-.5a9 9 0 0 1 2.7.2q2 .3 2.9.8.3 0 0-.6c-.2-.3-1.2-.7-.8-1.1zM502 204c-.3.1-.2 2.9-.4 4.3q-.2 2.8-.9 5.4c-.3 1.1-2 2.9-1.3 3.2.8.4 1.8-3 2.4-4.7q.5-2.4.6-4.8l-.1-1.7c0-.5-.1-1.7-.3-1.7m-38 8c.3 0 .4.5.8.6 0 .5-.5 4.2-.7 4.6-.1-.3-.8-1.1-.8-1.5.1-.2.5-3.4.7-3.7m1.6 1.6c1 .2 3.9 1.3 4.4 1.5 0 .5.6 5.7.5 6.3L466 219l-1.4-1.3c-.2-.1.6-4.2.8-4.3zm-5.5.2 1.2.2a4 4 0 0 1 2 2.4c0 .3 1.3 2.2 1.4 2.4q.2.4 0 1.2c-.3.4-1.1.2-1.4.5l-.2.3s1.3 0 1.9-.4c.3-.2.5-.8.7-.8.3 0 6.3 3 6.5 3 .3.1.4 1 .4 1.5q.1 2.3-.4 4.5v.4l-.5.2-.5.3-.3.6a70 70 0 0 1-10.6-3.2c-.4-.4-4.3-3.3-5.4-5.2s-1.2-6.2-1.2-6.5c-.4-1.2 1.3-1.3 1.7-1l2.3 2.4c1.6 1.4 3.4 2.7 3.7 2.9.5.3 1 .3.4-.1 0 0-5.3-4.5-4.7-5.2 0-.4 2.4-.4 3-.4m-11.2.2c.6.4 3.5.6 3.8.4.1 0 .4 5.6 1.9 8 .8 1.5 3.8 3.8 3.9 3.6l-7.6-.7-.3-.4-.6-2.5c-.7-2.5-1.7-8-1.1-8.4m21.7 1.3c.5-.2 5 1 6.1 1.2q2 .4 3 0c.4 0 2.5-.6 3-.5 0 .4.2 3.7-.3 3.8-.7 0-1.7.7-2.2 1-.6.5-1.3-.3-2-.2q-.9.1-1.8.5l-2.5 1c-.8.4-2.8-.4-2.9-.5 0-.1-.9-6.2-.4-6.3m15.9.3h-.5q-.7.6-.7 1.5t.7 1.2q.9.2 1.6-.3c.4-.5.4-1.5 0-2q-.5-.4-1.1-.4m-.2 4.7h-.5q-.6.6-.7 1.5.1.8.8 1.2.9.3 1.5-.4.6-1 0-2-.4-.4-1.1-.3m-4.5.2h.4q.4.2.4 1s.8 4.1.1 4.3h-.5q-.5-.1-.6-.5c0-.3-.5-1.1-1-1.5q-.6-.7-1.6-1l-1-.2h-.8q-.7.2-1 .7 0 .4-.5.4c-.4 0-.5-.9-.5-1.1q.4-.7 1-.9c.8-.4 1.2-.7 2.3-.7l1.6.3.4-.1q.5-.4 1.3-.7m-22.6 1.8h-.3c-.5.4.6.9.9 1.1.5.5 1.9 1 2 1.1.6.3-.1 1 1.1 1.2.2 0 .8.6.8.9h.2q.2-.8 1.8-.9h.7l.7-.1c.3 0 1-.4 1-.4h-1.5c-1.2.3-3.5.2-3.8 0-.4-.5.5-1 1-1 .2 0 1.2-.2 1.1-.3h-1l-.8.1H462c-.3-.2-1.8-1.5-2.6-1.7m15 .4c.1 0 .6 0 .6.3l.4 1q.1.2.5.3t.7-.5c.1-.2.5-.8 1.1-.8q.9 0 1.3.2l.8.4.9.5q.5.2.6 1c0 .3.4 1.4.3 1.7q0 .2-.3.2t-.3-.2c0-.1-.4-.7-.5-.6l.5 1.3v.5q.2.8-.5.7l-.4-.2-.5-.6.4 1q.4 1-.4 1l-1.3-.5-.6-.1q-.6 0-1-.3l-1.5-1-.4-.5q-.3-.4-.9-.4l-.8-.1c-.1 0 0-1 .2-1.8V223zm-2.8 2.2-.4.3-1 .8-1.9 1q-.2.2 0 .2 0 .2 1-.2l1-.6 1.4-1.2zm-20.5.8c.8-.2 7.8.7 8.2.9q-.6 1-1.5 1.9l-.1.2c-.2.1-.9.8-1.6 1l-.7.2-.2-.5c0-.3-.5-1.1-.8-1.4l-.2-.2c-.1 0-.7-.6-1.3-.7-1.1-.3-2 0-2.2 0h-.1zm32.1.4 3.2.1v3.2c1.6 11 4.9 23.1 8.3 32.3.3.8 1 2.2 1.2 2.3l.2 7.5.4 5.4.6 9.2q.3 3.7.2 7.6a152 152 0 0 1-1.2 16.3h-1l-1.4-.6c-.1 0-2-1-2.3-1l-.3-.7.6-2.8c.2-1 .1-2.2.6-2.7s.9-.3 1.3-.3 1 .6 1 .5v-.7q-.3-.3-1-.2t-1-.4l-.4-.4v-9.4l-.7-7-.6-5.2-.7-4.7-1-8.2-1.1-10-1.5-10-1.5-12-.6-5.5q0-.3-.3-.4c-.3 0-1 0-1-.3zm-.4.5-.8 25.5c-.2 7.3-.6 14.6-.3 22 .1 5.6 1 11.2 1.2 17q.4 5.2 0 10.6c0 1.5-.8 4.3-.9 4.5-.2.5-1 1.5-1.5 1.7-.1 0-4 2.2-5.9 1.5-.6-.3-2.2-.6-3.3-1.1a10 10 0 0 1-3.2-2.9c-.4-.5-1-2.2-1-3.4-.3-5 2-9.9 3.2-14.7l2.7-11.6.7-3.2.4-2.9c.1-.7 0-1.7.6-2.2l1-.6c0-.2-1.2-13.4-1.5-20q0-3-.4-6.2l-.5-3.1c-.3-2-1-4.4-1.3-6.2 0-.3-.4-.5-.3-1 .7-.7 1.3-2.1 1.5-2.4.3-.7 1.4.2 3.2 1.6 1 .7 1.6.5 2 .5s1.2.6 1.6.4c1.6-.9 2-3.5 2.8-3.8m-23.2.5 1 .5c-.1.3-1.2 2-2.4 2.7l-2.6 1.3h-.1l-.1-1.2 1.8-.9c.4-.2 2.6-2.3 2.4-2.4m-8 .2.7.1 1.4.6q.9.9 1.2 2v1.1l-.2-.2-1-.8-.5-.5h-.4q-.3 0-.4.3v1a10 10 0 0 0 1.9 4l-.7 1.9q-.8 2.2-2.3 4-.7.8-1.8 1.4t-2.3.3c-.6-.2-.9-1-1.2-1.5l-.6-2 .1-2.5.9-3q.6-1.6 1.7-3c.8-1.2 1.6-2.7 3-3zm9.4.4 2 .6v.7l-2.8-.3c.8-.8.5-.6.8-1m2.5.8 3.7 1c-.9 0-1.2-.2-3.7-.5zm20.1.4h.6l.4 4.7q.5 6.3 1.3 12.6l1.5 10 1.1 10.1 1 8 .7 4.6.6 5.4q.5 3.4.7 7 .4 5 0 10.1v2.2l-.8 3.3c-.1.5 0 1.4-.2 1.7q-.5.5-1.6.9-1.9.9-2 .6c-.4-.2-.2-.7-.4-1.3q-.7-1.7-2.3-2.4c-.7-.5-1-.4-1-.8-.1-.5.3-2.4.6-2.5q.3-.4 1 0c.2.2.6.9.7.7.1-.4-1.1-1.8-1.7-1.6 0-.2.2-7.5 0-11.2-.2-5.7-1.2-11.5-1.3-17.2-.4-13.6.5-27 .7-40.6v-4.3zm-23.7.2q1.3 0 3 .3l-.1.9-.2.2q-1.4 2.2-2.7 2.4a4 4 0 0 1-2.8-.4l-1.2-.6 2.5-1.4zm3.6.3c3.5.6 6.5.7 7.2 1 .5.2 1 1.3 1 1.8l1 4.7q.7 3.7 1 7.3l.9 16 .4 6.6c0 .3-1.8.9-2 .7V266c-.2-1.1.1-3.2 0-3.4l-.1-.7q0-1.7-.3-1.4v6.9q0 .4-1 .5l-.4-.1a29 29 0 0 1 0-5.7q0-.6-.2-.8-.3-.1-.2.7v2l-.1 1.2-.1 1.4v1.3c-.1.2-1.4.3-1.5.2l-.2-2-.1-2.3v-4.7q-.2-.1-.3.2v3.5l-.3.8v1.6c0 1.1.2 3 .1 3.1l-.8.3q-.6 0-.7-.3l-.2-3.5c0-2 0-3.8-.3-3.7s-.2 5-.2 6c0 .8-.3 2-.7 2.2l-1.5.2h-1.2c-.2-.2 0-2.7 0-4l-.1-3.7h-.2v1.2l-.2 4.4v1.8l-1.2.2q-.6-.1-.7-.5V262q0-.9-.4-.3v1l-.2 4.5-.2 2H458l-.6-.6v-7.5l-.3 2.8-.1 5c-.3.4-.4.3-1.4.2-.6 0-.8-.5-.8-.5l.1-4.6v-4q-.2 0-.2.7l-.3 6.2c0 .4.1 1.8-.1 2h-1a2 2 0 0 1-1.3-.1c-.7-.4-.6-.9-.6-2l.5-4.9.1-3.5-.4 2.1-.3 3.3c0 .3-.4 2.9-.6 3.3 0 .2-1.6 0-1.8-.3s.8-4.6 1-5.6c0-1.5.5-5.5.3-5.6s-.7 3.9-.7 4.2c0 .7-.8 6-1 6.1 0 .6 0 1.4-.4 1.4l-1-.5c-.3-.4-1-.6-.7-1l.7-5.4a111 111 0 0 0 .7-15l.2-1.8c0-.3 1-.3 1.4-.5l1.3-.9 1.5-1.5 1.8-2.8.6-1.7.2-.8a7 7 0 0 0 4 2.3 5 5 0 0 0 3.8-.8l-.1 1.1-.3 1.5v.3q.2 0 .3-.3l.4-1.7v-1l1.4-1.4v2.4q.1.3.2 0v-1.4l.1-.3v-1l.8-.8q.4-.7.2-1.5a5 5 0 0 0-2-2.7h-.2zm-10.6.4h.2l.5.5.5.5q-.4.7-1.2.8l-.2-.8v-.8zm10.3.6.3.1q.6.3 1 1 .6.7.8 1.5.1.8-.2 1.2l-1.1 1.2q0-1-.4-2t-1.5-1.7l.7-1zm-8.8.6.6.5q.4.2.3.4c0 .2-.6.8-.7.9q-.4.4-1 .5l-.6-1.4q.8 0 1.4-1m15.2.8c-.3 0-.3.7-.4 1l-.6 1.3-.5 1.4c-.1.4-.5 1.2-.1 1.3s.4-.8.6-1.2l.8-2.4c.1-.4.7-1.2.2-1.4m-7.7.2a3 3 0 0 1 1.4 1.5c.3.6.4 2.2.4 2.2q-.7.8-1.5 1.2l-1 .5c.2-1.5.2-3-.8-4.4q.8-.3 1.5-1m-5 .8 1.5.5q.4 2.2-1.1 3.7l-2-1.4q1.3-.9 1.7-2.8m-2.5 1.7-.7-1q.6 0 1-.4l1-1 1 .6q-.3 1.9-1.6 2.7l-.2-.2zm5.7-1.3c1 1.3 1 2.7.8 4.2q-1 .3-2 0l-1.4-.3q1.6-1.6 1.2-3.8zm11 2.7c-.3.7-.4 2.4-.7 3.6l-.7 1.5-1.2 3.1-.2.8-.5 1.7v.5h.1l.4-.8 1-2.6.8-2.2.7-1.6c.2-.3.5-3.9.4-4.1m-2.9 3.1c-.6.1-2.4 5.6-3.5 8.5-1.3 3.3-3.3 10-3.3 10.2l-.2 1.3.9-1.5c.9-1.8 1.9-6.6 3.1-9.9 1-2.4 2.4-4.6 3.2-7.1.2-.5 0-1.5-.2-1.5m-17.2 5.4-.2.4-.1 1.1v1l-.2 1.3v1.1l-.1 1.5-.2 2.6v.6q.2.3.3-.4l.1-.5v-.5l.2-.8.1-1.8v-1.7c.2-.2.2-3.8.1-3.9m17.8 2.5-.4.4-.6 1.8-.5 1.4-.5 1.3-.5 1.7-.1.9-1.1 5c-.6 2.6.5 1 .6.2l.8-4 .6-2.2q0-.4.3-.7l.1-1.5.4-1 1-2.9zm-3.6 4.8c-.3 0-1 2.9-1.3 4.3-.3 1-.6 3-.5 3.1 0 0 .8-1.6 1-2.4.5-1.6 1-4.9.8-5m31.3 13.2 1.2 1.7.2 8 .4 5.6.4 12v5l-.8 12.7c0 .2-1 .2-1.2.2-.1-.5.8-9.5 1-14.2l-.1-8.6-.6-9.1-.3-4.3zm1.7 2.3 3.7 5.2c.6.7 1.7 1.9 1.7 2.1l-.1 1.9.2 4.1c0 8.7.2 17.5-1.3 26-.2 1 0 2.1-1 2.9-1 1-2.8.7-2.9.6s.8-15.9.6-23.8l-.3-6-.6-9.3zm-25.4 1.2.3.1c.5.3.2.4.2 2.2 0 1.4-.8 4.9-1.2 5.2l-.8.6-.7.7-.4.3q0 .3.4.2c.2-.2 1-.6 1.2-.2.1.1-.4 2.6-.4 2.8-1 4-1 5.1-2.3 7.3-.7 1-2.8 2.5-2.9 2.6v.3h.7c.2-.1 2.2-1.6 2.3-1.5.1 0-.8 1.8-1.5 2.5-.4.5-1.3.8-1.7 1.2q-.5.4-.2.4l1.7-.7 1-.6-.7 2.4-.8 1.2c-.4.3-1.3.6-1.5.7q-1 .5 0 .4c.9-.1 1.5-.6 1.8-.3.2.2-.5.6-.5 1.1l-.1.5s0 2.6-.3 2.9c-.1.3-2.7.7-2.8.6 0 .4 2.8 0 2.8.2v1.1l-1.3.3-2.3.3c-.3.2-1.7.5-1.9.5s-1.4-.3-1.4-.7c0-.9 0-1.9.6-1.7.7.3 1.8.2 1.9 0s-2 .3-2.1-1.4l.1-5c0-.4-.3-1.5 0-1.7s.5.3 1 .2q.7-.2 0-.6c-1.3-.5-1.1-1.6-1-1.8 0-.2.7.7 1.6.5q.3-.3-.1-.5c-2-.2-1.3-3.6-1.2-3.5.3.4.5 1.1 1 1.3q.3 0 .1-.3c-.4-.4-1.7-2.8-1-3.3 0 0 .9.9 1 .8v-.6q-.4-.4-.9-1.4l.2-1c0-1.4.7-2.6 1.1-3.8l.8-2.1c.2-.4.2-1.2.6-1.1q.8 0 1.2.8a4 4 0 0 0 1.7 1.5h1q.2-.2-.5-.6l-1.1-1c-.3-.4-2-1.3-2-1.7l.4-3.4-.4-1c0-.2 1.7-.5 2-.5q.1.1.8-.4.3-.5 1.4-.5l1.1-.1 1-.4 2-.2zm-22.5.6h.8l1.8.6h1.7l1.1.2h2.4l2 .3c.7.4-.9 6.8-1.5 7.2s-1.9 1.6-2.9 1.7q-.4.2.4.3c.4 0 2.3-.6 2.2-.8 0 0-.7 1.8-.8 8.7l-.2 6.9c0 3.2.2 3.8.3 4v1.4l.1.6.3 1.4.2 2.4c0 .1.4 1.1.2 1.3 0 .7-4 1.4-4 1.4-.5.3 4-.4 4-.3l2.2 2 2.6 2.2 4 2.2c.2 0 3.6 1.3 3.4 2 0 .1-1.2 1.3-2 1.7a10 10 0 0 1-4.7.8c-2-.1-4-1-5.9-1.6-2-.5-4.6-.2-6.2-1.6-.8-.7-1.1-2-1.2-3-.2-1.7.8-5.2.8-5.2s1.4-.5 1.9-1 .9-1.3.8-1.4c0-.2-.7.7-1.2 1s-1.6.6-1.6.6V303s1-.4 1.3-.7l.5-.7-.7.3-1 .4-.2-1.9s1-.5 1.4-1c.3-.2.7-.8.6-.8-.1-.2-.5.3-.8.5l-1.3.6-.4-2s1.2-.7 1.6-1.2q.6-.5.6-.8l-.7.5-1.6.9-.5-2.3s1.4-.6 2-1.1l.7-1.1-1.1.8-1.8.7-.6-2.4 1.7-1c.3-.3.9-1 .8-1.1l-1 .7-1.7.7-.7-2.8s1.6-.6 2.2-1.1c.4-.3 1-1.1 1-1.2l-1.3.8c-.6.4-2 .8-2 .8l-.4-3s1.8-.9 2.6-1.5c.5-.4 1.2-1.3 1.2-1.4l-2 1.3-1.9.8.1-2v-.7s2-1.2 2.8-2c.3-.2 1-.8.9-.9l-1.3.7-2.2 1.3.5-3.6q1.7-.8 3-2 .6-.6.6-1l-.9.6q-1 .9-2.6 1.6l.5-3.2q1-.1 1.7-.9c1.2-.8.6-1.1-.2-.5-.4.3-.8.9-1.4.8l.5-2.9zm10.7 1.1c-.3.2 1.4.3 1.5.3 0 0 .4 1.1.4 1.7v1l-.5 2.1-2.2 6.4-.6 3.1c-.3 3.3 0 6.6-.2 10 0 2.2-.5 9-.5 9l-.9-7.3c-.2-3 0-7.2 0-9.2 0-2.6.7-8.9 1.2-9.3 1-.7 1.8-7.8 1.8-7.8m3.7 33.3q.4 0 .4.2c0 .4 1.2.4 1.2.5s2.2 3 3.6 4.2c.9.7 2.5 1.4 2.9 1.5l1.8.5.7.4v.4l-.1.5-.3.4c0 .3-1.7 1.2-2.3 1.3l-2.4-.1s-6.2-3-6.8-3.6l-3-2.3c-.2 0-1.1-.9-1.2-1.1l-.2-1 .2-.4q.1-.4 1-.4c.7.1 2-.3 2.3-.6q.1-.2 1.3-.3zm18.5 3.4c.2-.2 3.1 1.6 2.9 3s-2.1 1.2-3.3 1.8c-.9.5-2.8 1-2.9 1.2-.4.3-4.1-.3-3.8-.8.4-.6 0-1-.1-1.6 0 0 3.3-.9 4.8-1.7 1-.5 2.4-2 2.4-2m8 1.7s2.7 1.6 4.2 2c2 .3 5.2-.1 6.1-.5 0 2.2-.4 5-.4 5 0 .3-2.7.6-5.3.8-1.2.3-3 1.5-4.7 1.9q-2.6.7-5.7.6c-2.2-.2-5.2-.4-5.5-2.5-.3-1.9 7.7-5.4 8.3-5.6 1.7-.5 2.9-1.7 3-1.7m-39 0-.5 2.6q-.1 1.4.5 2.2c1.5 1.7 4.5.8 6.4 1.4.8.2 2 .9 3.1 1.1l.8.1h3l-3-.4-.7-.1c-1-.2-2.2-1-3-1.2-2.1-.5-5 .4-6.2-1.2q-.6-.6-.5-1.8z" transform="translate(0 -8.9)" id="path51"/><path style="fill:none;fill-opacity:1;stroke:#040404;stroke-width:.3;stroke-linecap:round;stroke-linejoin:round;stroke-dasharray:none;stroke-opacity:1" d="m454.4 228.3 3.4.2" transform="translate(0 -8.9)" id="path52"/></g><g aria-label="UNITED WE STAND" style="font-weight:700;font-stretch:condensed;font-size:18.6667px;font-family:&quot;Arial Narrow&quot;;-inkscape-font-specification:&quot;Arial Narrow, Bold Condensed&quot;;display:inline;fill:#006" id="g53"><path d="m403.6 170.4 1.5-1.6 5.2 5 1.6 1.5q.8.5 1.5.5t1.4-.7q.5-.6.6-1.2l-.2-1q-.3-.6-1.8-2l-5.3-5.2 1.6-1.6 5 5q2 1.8 2.6 2.8t.5 2.3-1.3 2.4q-1.2 1.3-2.4 1.5-1 .3-2.2-.2-1-.5-3.2-2.6zm17.4 1.5-8.2-10.6 1.7-1.3 9 4.3-5.5-7 1.6-1.3 8.3 10.5-1.8 1.4-8.8-4.2 5.3 6.9zm8.8-6.6-7.2-11.2 1.8-1.2 7.2 11.2zm5.8-3.5-5.2-9.8-2.9 1.5-1-2 7.7-4 1 2-2.8 1.5 5.2 9.8zm6.1-3.1-4.7-12.5 7.5-3 .9 2.2-5.6 2.1 1 2.8 5.2-2 .8 2.1-5.1 2 1.3 3.4 5.7-2.2.8 2zm6.5-16.6 3.9-1q1.5-.3 2.3-.1t1.7.8 1.5 1.8 1.1 3q.4 1.7.3 3 0 1.4-.5 2.2t-1.1 1.5q-.7.5-2 .9l-4 1zm2.6 1.7 2.1 8.6 1.6-.4q1-.2 1.5-.5t.6-.8.2-1.4-.3-2.3-.8-2.2-1-1.1-1.1-.4l-1.8.3zm17 8.2-3-13.3h2.3l2 9 1.6-9.2h2.7l2.2 9.2 1.4-9.4h2.2l-2.2 13.4h-2.4l-2.5-9.9-1.8 10zm13-.1 1.5-13.3 8.1 1-.3 2.2-5.8-.7-.4 3 5.5.6-.3 2.2-5.4-.6-.5 3.6 6.1.7-.3 2.2zm15-2.1 2.1.4q-.4 2.5 1.6 3.1 1 .3 1.6 0 .7-.4 1-1.1v-.8q-.1-.4-.5-.7l-1.7-1.2q-1.2-.8-1.7-1.5t-.6-1.6.2-1.8 1-1.7 1.7-.9 2.2.2q1.8.6 2.6 2 .7 1.2.2 3.1l-2.1-.5q.1-1-.2-1.6t-1.2-.8-1.4 0q-.6.1-.8.7-.1.5.2 1t1.7 1.3q1.4 1 2 1.7t.7 1.7-.2 2q-.5 1.7-2 2.5-1.3.8-3.5.2-3.8-1.2-3-5.7m11.2 8.4 4.5-10.2-3-1.3.9-2 8 3.4-1 2.1-3-1.3-4.3 10.2zm13.9 7.3-2.1-1.2.7-3.1-3.8-2.2-2.3 2.2-2-1.2 10.4-9.4 2 1.2zm-.9-6.6 1.2-5-3.8 3.5zm1.8 7.3 8.2-10.5 1.7 1.3-1.9 9.8 5.5-7 1.6 1.2-8.2 10.6-1.7-1.4 1.8-9.6-5.3 6.9zm18.2-2.5 2.8 2.9q1 1 1.4 1.8t.2 1.9-.8 2.2q-.7 1.2-2 2.5-1.3 1.2-2.5 1.9t-2 .7-2-.3-1.7-1.3l-3-3zm-.1 3.2-6.3 6.2 1.2 1.2 1.2 1h1q.5 0 1.3-.5l1.7-1.5 1.6-1.8q.4-.7.5-1.4t-.3-1.2l-1.2-1.3z" id="path53"/></g><g aria-label="DIVIDED WE FALL" style="font-size:18.6667px;letter-spacing:1.74px;word-spacing:.11px;display:inline;fill:#006" id="g55"><path d="m414.2 292.1 2.9 2.8q1 1.1 1.4 1.9t.3 1.8-.8 2.3-2 2.5q-1.1 1.3-2.3 2t-2.1.7q-1 .1-1.9-.2t-1.8-1.2l-3-3zm0 3.2-6.1 6.4 1.2 1.1q.7.8 1.2 1h1q.5 0 1.2-.5.8-.5 1.8-1.5 1-1.1 1.5-1.9t.4-1.4-.3-1.2q-.2-.4-1.2-1.3zm.1 15 8.3-10.4 1.7 1.4-8.3 10.4zm7.1 5.3 4-13.3 2 1.3-3 9.8 7.6-6.8 2 1.3-10.6 9zm7.8 4.7 6.2-11.8 2 1-6.2 11.8zm10.4-9.6 3.8 1.5q1.4.6 2 1.2t.9 1.6.1 2.4-.8 3.1q-.7 1.6-1.5 2.7-.9 1-1.7 1.4-.9.5-1.8.5t-2.2-.4l-3.8-1.6zm1.2 3-3.3 8.1 1.5.7q1 .4 1.5.4t1-.3l1-1 1-2 .7-2.3q.1-.9-.1-1.5t-.7-1-1.7-.8zm5.7 14 3.5-13 7.8 2.1-.6 2.2-5.7-1.5-.7 2.9 5.3 1.4-.6 2.2-5.3-1.5-1 3.6 6 1.5-.6 2.2zm13.4-10.4 4 .5q1.5.2 2.2.6.8.5 1.3 1.4t.8 2.2 0 3.2q-.3 1.7-.9 3-.5 1.2-1.2 1.8t-1.6 1q-1 .2-2.2 0l-4.2-.5zm1.9 2.5-1.2 8.8 1.7.2h1.5q.5-.1.9-.5l.7-1.2q.3-.9.5-2.3v-2.3q0-.9-.4-1.4-.4-.6-1-.8-.4-.2-1.7-.4z" id="path54"/><path d="m472.1 347-2.8-13.3h2.3l1.8 9.1 1.8-9.2h2.7l2 9.3 1.6-9.4h2.2l-2.4 13.4h-2.4l-2.4-10-2 10zm14.7-.7-2.2-13.2 8-1.3.4 2.3-5.8 1 .4 2.8 5.5-.9.3 2.3-5.4.9.6 3.5 6-1 .4 2.3zm17.6-3.8-4.5-12.6 7.1-2.5.8 2-5 1.9 1 3 4.3-1.6.8 2.1-4.3 1.6 1.9 5.3zm18.5-8-2.2 1-2.2-2.2-4 2 .6 3-2 1-2.2-13.8 2-1zm-6-3-3.6-3.7.9 5.1zm8.5 1.4-7.3-11 1.8-1.3 6 9.2 4.7-3 1.2 1.9zm9.1-6.3-8.5-10.2 1.7-1.4 7 8.5 4.3-3.6 1.4 1.8z" style="-inkscape-font-specification:&quot;Arial Narrow Bold Condensed&quot;" transform="rotate(-3.6 234.2 237.2)" id="path55"/></g><!-- app4joy -->
</svg>