<svg viewBox="0 0 36 24" width="36" height="24" id="svg7" xmlns:xlink="http://www.w3.org/1999/xlink" xmlns="http://www.w3.org/2000/svg"><defs id="defs1"><path id="c" transform="scale(.024)" d="M0 215a32 32 0 0 0 32-32v-16h31a32 32 0 0 0 0-64H32V32h199v31a32 32 0 0 0 64 0V32h28a32 32 0 0 0 32-32H0z"/></defs><path d="M0 0h36v24H0z" id="path1"/><path fill="#eaaa00" d="M0 24V2l3 2v20h3V0h3v24h3V0h3v24h3V0h3v24h3V0h3v24h3V0h3v24h3v-2L3 0v4l30 20z" id="path2" style="display:inline"/><g id="q" style="display:inline"><path fill="#ffffff" d="M18 0h9v12h9V6H18Z" id="path3"/><path fill="#9d2235" d="M27 0h9v6H18v6h9z" id="path4"/><g transform="translate(27 6)" id="g7"><use fill="#9d2235" xlink:href="#c" id="use4"/><use fill="#ffffff" transform="scale(-1 1)" xlink:href="#c" id="use5"/><use fill="#ffffff" transform="scale(1 -1)" xlink:href="#c" id="use6"/><use fill="#9d2235" transform="scale(-1)" xlink:href="#c" id="use7"/></g></g><use id="l" x="-18" y="12" xlink:href="#q" style="display:inline"/></svg>