<svg width="768" height="512" id="svg23" viewBox="0 0 768 512" xmlns="http://www.w3.org/2000/svg"><g id="g26"><path style="display:inline;fill:#002a86;fill-opacity:1;stroke:none;stroke-width:0.6;stroke-linecap:round;stroke-linejoin:round;stroke-miterlimit:6.7;stroke-opacity:1" d="M0 0h768v512H0Z" id="path1"/></g><g id="g25"><path style="display:inline;fill:#ffd90f;fill-opacity:1;stroke-width:0.6;stroke-linecap:round;stroke-linejoin:round;stroke-miterlimit:6.7" d="M227.8 69.9a30.4 33 0 0 0-30.3 33 30.4 33 0 0 0 30.3 33 30.4 33 0 0 0 30.4-33 30.4 33 0 0 0-30.4-33m60.5 1.8v62h18.2v-32.2l17.6 32.2h17.6v-62h-18v30.7l-17.2-30.7zm83 0 .4 17h15.6v45h18.9v-45h16v-17zm92.1 0-22 62h19.2l3-8.7H481l3.3 8.7h18.6l-21.7-62Zm67.3 0v62h18.1v-32.2l17.6 32.2H584v-62h-18v30.7l-17.2-30.7zm102.7 0-22 62h19.1l3.1-8.7H651l3.2 8.7H673l-21.7-62zm-533.6.2-.6 61.8h18.2V95.4l9.1 38.3h13.7l9.9-39.2v39h17V71.9h-25.3l-7.9 35.9-8.4-36zm128 14a12 17 0 0 1 11.9 17 12 17 0 0 1-12 17.1 12 17 0 0 1-11.9-17 12 17 0 0 1 12-17.1m244.8 5.4 5 20.3h-11.3zm170 0 5 20.3h-11.3z" id="path6"/></g><g id="g24"><circle style="display:inline;fill:#fec70b;fill-opacity:1;stroke-width:0.622223;stroke-linecap:round;stroke-linejoin:round;stroke-miterlimit:6.7" cx="385.01599" cy="298.38199" r="140.793" id="circle1"/><path style="display:inline;fill:#f7e47c;fill-opacity:1;stroke-width:0.6;stroke-linecap:round;stroke-linejoin:round;stroke-miterlimit:6.7" d="m272.9 222.6-13.6 22s-7.2 20.5-7.2 22.4c0 2-2.7 24.3-2.7 24.3l.8 6.4 62 5.5 47.3-3.3-2-2.5-2.3-4.2-1.7-4.4-1-6.4 1.4-3.2-7.4-17.7-7.8-15.4-7.7 5.7-3 2-1.3.3-1.9.5-4-1.9s-3.6-7.6-4-8.1l-8-9.3-6-4.7-6.4 5.8-3.8 3.2-3.3 2.6-10.3-12.6z" id="path2"/><path style="display:inline;fill:#ffffff;fill-opacity:1;stroke-width:0.6;stroke-linecap:round;stroke-linejoin:round;stroke-miterlimit:6.7" d="M271.6 227.3c-1.1-1.8 1.9-4 3.3-5.6q.6-.7 1.4-1 .6-.2 1.2 0c.9.6.7 2 1.1 3q.6 2.3 1.5 4.2l2 2.7 1.8 2q.9.5 1.6 1.3.6 1 .9 2l.2 2.2q.6 1.4 1.8 2.2.6.3 1.3 0 1-.2 1.7-.8l3-2.2 2.2-2.4q1.4-1.7 2.4-3.5 1-1.6 2-2.8c.6-.9 1.2-2 2.2-2.4q.8-.4 1.7 0 1.5.3 2.7 1.2a6 6 0 0 1 1.4 1.8q.9 2 1.5 4 .5 1.7 1.4 3.1c.9 1.3 2.4 2.2 3.4 3.4l1.5 2.6 1.2 2 2.3 1.7q1 1.1 1.9 2.5 1.5 2.6 2.5 5.5 0 .6.3 1c1 .5 2.1-1 3.1-1.7q1-.7 1.8-1.5c1.4-1 3-1.7 4.2-3l1.1-2c.6-.9 1-1.8 2-2.2q1.1-.5 2.5-.3 1.3 0 2.4.7t1.6 1.9q1.5 2.8 2.2 6l1.5 5.5 1.6 3.6q1 2.1 1.7 4.4c.4 1.3.1 2.8.7 4q.6 1.1 1.4 1.9l.7.8c.1.4-.3.8-.2 1.2q0 .8.6 1.4l1.4 1.6.9 1c.5.5 1.6.6 1.6 1.3q-.1.3-.4.5v2.2q0 .4-.3.6l-.7-.1q-.3-.6-.3-1.3l-.5-1.1-.8-.7h-.9c-.3 0-.4.6-.7.5-.5-.2 0-1.1-.2-1.6q-.4-.8-1.1-1.6l-.8-1.2c-.5-.8-1.4-1.5-1.7-2.4V272a12 12 0 0 0-1-3q-1-1.9-2.3-3.6l-2.2-3.7-1-2-.2-2-.5-2.2q-.2-1-.7-2c-.3-.6-1-1-1.2-1.6l-.2-1.3q.1-.7-.4-1.5-.5-.7-1.4-1l-1-.2q-.6 0-1 .4-.9.9-1.6 1.9-1.2 1.2-2.5 2l-1.7.8q-1 .2-1.9.6l-2.8 1.3q-.6.2-1 .6v1.4l.7 1v2.9l.4 1 .6 1.8q.9 1.4 2 2.7l2.3 3.8 1.9 2.7 1.3 2.8 1 2q1 1 2.5 1.8l1.9.9 1.3.4.9.9 1.2.4 1 .5 1.5 1.5q1.4 1.6 2.6 3.3l1.8 2.3.9 1.8.6 1 1 1.3c.1.1.5.3.3.5q-.1.2-.7-.2t-1.1-1l-1.3-.5-1.3-1.3-2.5-2-2-1.3-1.2-1-2.2-2.3q-1.2-1-2.6-1.7-1.3-.5-2.7-.6l-2.6-.1c-.6 0-1.4.4-1.8 0q-.1-.6.4-1.3.4-.4.6-1 .3-.7.2-1.4-.3-1.1-1-2l-2-2.3q-.4-1.3-.5-2.7l-.4-1.5q-.6-.8-1.5-1.6l-3.2-4.1q-.7-.9-1.2-2l-.5-1.5-1.7-2.5q-.7-1.6-1.1-3.3l-1-4.1-1.1-3q-.3-1.3-.8-2.4-1-2.1-3-3.8-1.1-.9-2.4-1.5l-2.3-1.7q-.9-.7-1.6-1.7l-.7-1.9q-.4-.8-1-1.5-.8-.4-1.7-.2l-1.4.3-1 .8-.3 1-1.1 1c-.7.4-1.5.2-2.2.4a4 4 0 0 0-2.2 1.4l-1.3 1.8-1 1.4-.6 1.4-.3 1.2.2 1.8 1.5 3.2 2 3 1.4 2a7 7 0 0 1 .9 2.5v1.7q0 .6.3 1.3.6 1.2 1.5 2.2t1.9 2l1.3 1.5q.5.6.7 1.4.3.6.2 1.3t0 1.6q.2.8.9 1.6l1.3 1.8a13 13 0 0 1 1.4 3.5v1.2q0 1 .3 2 .2.8.8 1.3c1 .6 2.1.2 3.1.3l1.9.3 1.8.7 2.2.4 2.3.5 2.4.7q2.3 1 4.5 2.2l6 4 5 3 2.4 1.2 1.7.4c.6.1 1.5-.2 1.9.4l-.2.4c0 .4.3 1 0 1.4q-.5.3-1.2.2a16 16 0 0 1-4.3-.6c-4-1-11.3-4.9-11.6-4.9q-.9 0-1.8-.4-1-.6-1.8-1.7l-.8-1.6q-.6-1-1.4-1.6-1-.5-2-.7l-2.4-.4q-1.2-.6-2.6-.8H312c-.6 0-1 .6-1.5.7q-1.6.2-3.3-.2-1.2-.1-2.1-.7c-.5-.3-.6-1-1.1-1.2q-.7-.4-1.4-.5t-1.6.2q-.5.2-.6.7-.1.8.1 1.3l.5.8c.4.3 1 0 1.5.4l1.3 1.5 1.4 1.7 1 1.5.1.9.7.5 1 .4q.5 0 1 .3v.5q-.2.4-.8.3l-1.3-.2q-1.4-.9-2.7-2.1l-1.9-2q-1-1.2-2.2-2.2-1-.8-2.3-1.3l-3.3-1.1q-1.2-.6-2.3-1.6L290 281l-1.5-2.2-1-.5-2 .1q-1.2-.2-2.5-1l-1.7-.9-1.6.3-2 .5-3 1.9-1.6.4H271l-1.8.1-.8.4-3.3 1.2-2.3.8q-1.2.5-2.2 1.2-1.2.8-2.5 1.3l-2 .6q-1.6.4-3.3.3-.8 0-1.4-.3c-1-1.3-.9-3.7.3-4.8.7-.7 2-.1 3.1 0 1.9 0 3.7.6 5.6.4q1.8-.2 3.5-1c1.5-.6 2.8-1.7 4.3-2.3l2.7-.9c.9-.1 1.8.2 2.7 0q1.7-.6 3.3-1.4 2-.8 4.2-1.3 1.9-.3 3.8 0 1.9.6 3.6 1.5 1.7.6 3.3 1.6l2 1.9q1.4 1.1 3.3 1.9 1.2.5 2.6.5h3.6c.6-.2 1.3 0 1.7-.4q.4-.7.3-1.7l-.1-1.3q-.4-1.2-1-2.2c-.7-1.3-1.8-2.4-2.4-3.8l-.7-2.3q-.4-1-1.2-2L298 265c-1.4-1.6-3.2-2.9-4.5-4.6l-1.1-1.9-.6-1.8-1-2.1-.9-1.8q-.7-.5-1.3-1.2c-.3-.6-.1-1.4-.3-2q-.4-2.6-1.2-4.8l-1-2c-.7-.9-1.8-1.3-2.5-2.2q-.9-1.4-1.5-3l-1.5-3q-.5-1-1.2-1.7l-2.6-1.9q-1.6-1-2.8-2.4c-.3-.4-.2-1.2-.6-1.4-.5-.3-1.4.6-1.7.1" id="path3"/><path style="display:inline;fill:#9dc8eb;fill-opacity:1;stroke-width:0.6;stroke-linecap:round;stroke-linejoin:round;stroke-miterlimit:6.7" d="m355.7 279-2 .5s-.8 1-1 1.6a9 9 0 0 0-.6 3.3q0 1.8.5 3.6c.8 2.6 3.2 7.5 3.2 7.5l3.6 5 9 8.5 48.5 16.5 15.7 11.5 10.3 17.7 9.7 5.8 10.9 1.5 1.1 14.3s10.3 4.5 12.4 5 8.3.7 8.3.7l8.5-2.8 14.1-23.3 8.2-23 3.6-28.4 2-16-1.3-9.4-153.5-.8z" id="path4"/><path style="display:inline;fill:#a2d100;fill-opacity:1;stroke-width:0.6;stroke-linecap:round;stroke-linejoin:round;stroke-miterlimit:6.7" d="M251 294.6s3 .6 4.7.7l3.4-.2 3.7-.4c1.3 0 2.6-.4 3.8-.3q1.5.2 3 .7 4.5 1 9 1.4c3 .2 6-.5 8.9-.3q2.3 0 4.4.7c1.6.4 3 1.4 4.7 1.6 2.2.3 4.5-.2 6.7-.5 2.9-.4 5.7-1.3 8.6-1.6q3.8-.4 7.7-.2c2.5 0 4.9.6 7.4.7 3.2 0 6.4-.6 9.7-.5l4.6.3c3 0 5.9-1 8.8-.7q2.3.4 4.3 1l5.2 1.9 6 5s6.4 3.4 8.2 4.1 7.6 1.3 7.6 1.3l9 2.9 12.3 4.6 16.7 5.2 5 1.8 11.4 8.6 3.8 3.1 5.7 19 1.4 1.7 18.7 4s1.6-.5 1.6.4l-.1 3-1.1 3.7 7.2 7.2 3.4 3 1.4 1.6 6.3-1.8 4-1.2h.8l4.4 4.3-21 25.3s-30.8 19-31.5 19-30.9 11-35.7 10.8-36.1.4-36.8.4c-.8 0-50.1-16.5-50.1-16.5l-34.9-28.6-28.2-44.3-5.7-29-.6-20.8z" id="path5"/><g style="display:inline" id="g8" transform="translate(1 -128)"><path style="display:inline;fill:#ffffff;fill-opacity:1;stroke-width:0.6;stroke-linecap:round;stroke-linejoin:round;stroke-miterlimit:6.7" d="m394.7 478.2-14.2 13.2A167 167 0 0 0 393 493l13.1.5 12.2.6s2.3.3 3.3 0q.6-.3.8-1 .2-.8-.2-1.8-.6-.8-1.4-1.5l-1-1-.2-6.1-12.6-1.8v-2.3l-12.1-.7z" id="path7"/><path style="fill:#969496;fill-opacity:1;stroke-width:0.6;stroke-linecap:round;stroke-linejoin:round;stroke-miterlimit:6.7" d="M391.6 477.7 374.8 494l2.7.1 17.3-16.1z" id="path8"/></g><path style="display:inline;fill:#e86f00;fill-opacity:1;stroke-width:0.6;stroke-linecap:round;stroke-linejoin:round;stroke-miterlimit:6.7" d="M256.8 344.1s3.8 2 5.8 2.4c3.7.9 7.5.5 11.3.8l11.2 1.1q5.5.4 10.9 1.2l9.3 1.9c1.7.3 3.6.3 5.3 1a9 9 0 0 1 3.6 2.8q.4.9.6 2c.2 1-.1 3.5-.1 3.5s4.4 4.7 7.5 5.2c.8 0 1.5-.6 2.2-.8a42 42 0 0 1 8-1.1h1.2l.6.7q2 1 4 1.3c1.5.3 3.1.3 4.5.8q1.8.4 3.2 1.6.9 1 1.4 2 .5 1.1.5 2.2l-.2 2.8c-.3 3.6-.4 10.8-.4 10.8l-23.5 9.6-25.4 4-7.5-1.7-13.8-16-12.7-18.4-6.8-16.8z" id="path9"/><g style="display:inline" id="g10" transform="translate(1 -128)"><path style="fill:#ffffff;fill-opacity:1;stroke-width:0.6;stroke-linecap:round;stroke-linejoin:round;stroke-miterlimit:6.7" d="M355.7 404.2q-.6 0-1 .2-1 1-.7 2.3c.4.8 1.7 1 2.6 1.1.5.1 1-.3 1.4 0s-.1.8 0 1.2q.2.6.6.7.6 0 1-.5 0-.5.2-.8 1-.3 1.7.3c.8.8.9 2.1 1.2 3.2.6 2.3.7 4.7 1.3 7l1.2 3q.6 1.7 1.7 2.5.7.2 1.2-.1c.6-.3 1-1 1.5-1.2h1.4l1.3-.6q.5-.2 1-.7.3-.7.2-1.4c0-.8.5-2-.2-2.4-.8-.4-1.6.8-2.5 1.2-.5.3-1 1-1.5.8-1.7-.6-1.7-3-2.7-4.5s-2.3-2.6-3-4.2q-.4-1.1-.3-2.4 0-.7.6-1.2.6.1 1 .9c.4.5.3 1.7 1 1.8q.6 0 .9-.7t.5-1.1q.7-.7 1.7-.7.7.4 1.2 1.3c.5.9.5 1.5 1.2 1.7s1.1-.4 1.7-.6q1.2-.5 2-1.1l.5-.7h.5q.9.5 1.3 1.1t.5 1.5c.2.3 0 .8.4 1 .3.2.8-.3 1.2-.1q.3 0 .4.4l.7 1 .1 1.2.5 1q.7.4 1.4 1.2l.5 1.3q.2.6.7.7c.4 0 .3-.8.4-1.3q-.1-2-.5-4l-.5-2.7c-.1-.6-.6-1.3-.4-2l.6-.3.5.1q.6.5.8 1.4l1 2.9.5 3.2.5 3q-.1.8.2 1.5l.8.3c.4 0 .8-.3 1 0 .3.2 0 .7.1 1q0 1 .5 1.7.3.4.7.3.5-.2.6-.8c.6-2.1 0-4.4-.4-6.5l-1.1-3.9c-.3-.7-1-1.4-.7-2.2q.2-.6.9-.8.6 0 1 .6.8.8 1.2 2 .6 1 .8 2.1c.6 2.1.5 4.3.8 6.5q0 1.6.5 3 .2.7.9 1l.5.2.1.2 1 .5 1.2-.1.2-.2.2.1q.5-.2 1-.7t1-.7q.3.2.5.7.6.7 1.4.8.6.1 1.3-.2l.8-.8 1.1-.2c.9-.2 2-.1 2.6-.6q.6-.5.7-1.2c.3-1.2-.3-2.4-.5-3.7q-.2-2.4-.8-5c-.2-1-.8-2-.9-3.2v-1.4l.9-.2 1 .7q.9.8 1.3 1.5.7 1.2 1.2 2.5l.6 3.5.5 2.6.2 1.2q.1.2.6.4l.6.6.2 1q0 .7.2 1.1.4.4 1.1.3.7-.3 1.3-.9l1.1-.9 1.2-.6.3.2q.5.3.7 1c.2.2 0 .6.3.8q.4.4 1 .3l.8-.3q.5-.2 1.2-.1l1.5.7q.8.5 1.2.2c.3-.2 0-.6-.1-1l-.2-2q.1-.5-.4-.9c-.3-.1-.5.3-.8.3q-.6.3-1.3.2-.8-.3-1.4-.8h-.6l-.2-.5a3 3 0 0 0-1.7-.9q-1.3-.2-2.4.2-.4.2-.7.6l-.7.8q-.4.2-.7 0c-.5-.2-.6-1-.7-1.4l-.1-3-1-3.2c-.2-.7-.8-1.5-.6-2.3q0-.7.6-.9.5 0 1 .4l1.1 1.2q.5.4 1.2.6c.3 0 .4-.7.7-.8.4-.1.8.4 1.2.2q.6-.3.9-1c.2-.5-.1-1.2.2-1.5s.8 0 1.1 0 .6.3.9.1q.3-.5.4-1.1 0-.4.3-.6 1-.2 1.7.4c.4.2.4.9.8 1q.7.4 1.4.1l1-.3 1.2.5c.6.2 1.5.6 1.9.1q.1-.4-.2-1c-.2-.8 0-1.8-.7-2.3-3.1-2.4-7.8-.2-11.7-.3q-17.4-.2-34.8-.7-11.8-.3-23.6-.9zm37.7 4.9q.5 0 .8.3.6.6.7 1.6 1 1.7 1.7 3.6l1.2 3.6q.7 2 1 4c0 .3.3.7 0 1l-.2-.2q-.3.1-.5.5-.1.6-.5 1.2-.2.3-.7.2-.4-.3-.6-1-.3 0-.4-.3c-.3-.7 0-1.5 0-2.3a30 30 0 0 0-1-5c-.6-1.9-1.8-3.5-2.1-5.4q-.2-.7 0-1.5zm82.7-2.8h-26.9c-4.8.1-10.2-2-14.4.3q-1.2.7-1.3 2c0 .5.9.6 1 1l.4 1.5q-.1.7.4 1 .5 0 .7-.4c.2-.3 0-.7.2-1q0-.4.6-.6a4 4 0 0 1 2.4 0q.6.1 1 .6.4.2.7.6.4.8.4 1.8l.4 1.6.3 1.5.4 2.6v1.2c.2.6 0 1.4.5 1.8q.6.6 1.2.2.4-.6.3-1.6c0-1.5-.7-3-1-4.5q-.4-1.6-.5-3.4c0-.4-.3-1 0-1.4q.5-.4 1.1-.2l.5.5q1 1.6 1.3 3.5v2l.5 4.8q-.1 1.6 0 3.2.1.8.5 1.3.6.3 1 0 1-.4 1.5-1.5.3-1 .2-1.9c0-1.9-.5-3.8-.7-5.7l-.4-2.4-1-3.2q-.5-.8-.2-1.6.4-.3.8-.1.7 0 1 .5 1 1 1.6 2.3c.3.7.2 1.8 1 2.1.6.3 1.4-.5 2.2-.5q.8 0 1.4.3l.9 1.4.7 2q.5 1.8.6 3.7.3 1.7 0 3.4-.1.7-.5 1.2t-.8 1.2q0 .5.2.8.7.4 1.7.2 1.2.1 2.3-.4 1.2-.6 2.1-1.6.6-.4.7-1c.2-2.8-2.9-4.8-3.7-7.5-.3-.7-.1-1.5-.3-2.2-.4-1-1.6-1.9-1.8-3q-.2-1.2.3-2.2 0-.5.4-1 .3-.2.8-.2t.8.6q.4.4.5.9l.8 2q.5 1 .9 2.4.2 1.4 0 2.6c0 .8-.6 1.4-.5 2.2.2 1.8 1 4.1 2.8 4.8q.4 0 .6-.2.5-.6.5-1.7 0-1.8-.3-3.5l-.8-5q-.5-1.3-.5-2.8 0-.5.4-1l.5-.1c.5.2.5.9.8 1.3l.9 2.2.5 3.3.8 2.8.3 2q0 .8.2 1.4l1 1.3c.5.7.7 1.6 1.5 2q.7.5 1.4.2.5 0 .6-.6c.3-1-.2-2.3-.6-3.4-.3-1-1-1.9-1.2-3l-.4-2.1-1.4-3.9-.7-2.2c0-.5-.4-1.1 0-1.6q.1-.3.6-.3.8 0 1.1.6c.7.8.6 2 1 2.9q.7 1.3 1.7 2.5.3.4.6.5.4-.2.3-.8c.1-.8-.3-1.6-.2-2.5.1-.4.2-1.1.7-1.3l.7.4q.6.9 1 2.1.7 1.5 1 3.2c.3.7 0 1.5.3 2.2l.6.8.9 1.4.3 1.6q0 .8-.2 1.4l-.8.9q-.3.7 0 1.3.3.4.7.4.6.2 1 .6l.2.8c1 .8 2.7.6 4 .2.3 0 .4-.5.7-.6h.9q.6.5 1.3.6l1.1-.2.8.2.5.4c.6.1 1.1-.3 1.7-.4q.5-.3 1-.2l.8.5 1.5-.3.8-.2q.4.2.8.7.7.6 1.7.8 1.2 0 1.9-.6c.5-.7.4-1.9 0-2.6q-.3-.4-.7-.4c-.6-.2-1.2.1-1.7-.1q-.6-.4-.9-1-.4-1-.3-2c0-1-.3-2 .3-2.9q.6-.5 1.5-.6.5.2 1 .1.2-.3.2-.7l-.2-2c-.3-.8-1.2-1.5-1.2-2.4a2 2 0 0 1 .6-1.4q.4-.4.7-.3.5.2.7.8 1 1.2 1.4 2.6.4 1.2.5 2.6l.4 2.2q.1.5.6.9c.3.1.7-.2 1 0 .4 0 .4.7.7.6.5-.1.3-1 .4-1.6l.3-1.4q.1-2.3-.1-4.4-.2-.9-.1-1.6 0-.5.6-.7.7 0 1 .4 1 1 1.3 2.2.5 1 .6 2.3v3c.2.7 1 1 1.3 1.6q.6.7.8 1.5l.3 1.9.4 1.3c0 .5-.5 1.3-.1 1.7.5.6 1.6.5 2.3.1q.4-.4.3-1l-.3-2.4q-.1-1.8-.4-3.5a11 11 0 0 0-1.1-3.1L510 418q-.4-1.5 0-2.8.2-1.2 1.1-1.8.6 0 1 .3.6.2 1.1.7.9 1.1 1.3 2.5l.5 1.8c.2.7 0 1.5.3 2.2l.6.8c.4.5 1 1.5 1.5 1.2 4-1.7 2.9-8.8 1.2-12.7-.6-1.6-2.4-2.7-4-3.3-12-4.3-25.7-.5-38.5-.6m3.5 5.4c.4-.6 1.4.3 2 .8l.4.5q.4.4.6 1c.3.5 0 1.5.5 1.9s1.1 0 1.6 0q1.4-.4 2.1-1.2c.3-.5-.1-1.1 0-1.7q-.1-.7.2-1 .7-.2 1.2.1c.3.2.2.8.5.9.4.1.8-.4 1.2-.5q.7 0 1 .2.5.6.6 1.4.6 1.5 1 3.2.6 2.3.7 4.7c0 .7.4 1.4.1 2s-1.4 1.5-2.3 1.4c-.4 0-.5-.7-1-1-.6-.2-1.7-.6-2.3 0-.3.2 0 1-.1 1.4q-.3.8-.9 1.5-.3.4-.8.3t-.8-.8V424l-.7-1v-2c0-.5.4-1.1 0-1.4q-.5-.2-1 .3t-.5 1.1q-.1 1-.4 1.9 0 .4-.4.6c-.7-.1-.5-1.4-.7-2.1l-1.2-5.2c-.5-1.4-2.3-2.6-1.8-4 .2-.4 1.1-.1 1.2-.6" id="path10"/></g><path style="display:inline;fill:#f7e47c;fill-opacity:1;stroke-width:0.6;stroke-linecap:round;stroke-linejoin:round;stroke-miterlimit:6.7" d="m503.5 234.8-6.1 2.2c-.6 0-4.6 1.5-4.6 1.5l-3.3 1.4-5.2 1.2s-2.6 1-3.3 1l-6.7.6h-4.5c-.5 0-4.4.3-5.3.6s-4.6 2.2-4.6 2.2l-4.5 3.6s-4.4 2-5.1 2c-.8.2-5.2.6-6 .6s-5.2-1.5-5.2-1.5l-4.6-.3s-2.8.5-4.7 1.1-10.2 4.7-10.2 4.7l-7.7 3.7s-3.3 1.3-4.2 1.4l-2.7.7-3.7 1.6H399l-4-1.1-7 .5-5 1.6-4.6.2-5.2-.2h-4.4l-2.8 1.6h-3.3l-3.3 2.6-4.1 3.2s-1.4.5-1.4 1-.2 1.4.6 2c1 .4 48.2 4.9 48.2 4.9l14.8.5 3.6-.2 3.2-.2s5-.8 7.6-.9 49.4-10 49.4-10l17.1-14 4.5-14z" id="path11"/><path style="display:inline;fill:#7d421d;fill-opacity:1;stroke-width:0.6;stroke-linecap:round;stroke-linejoin:round;stroke-miterlimit:6.7" d="M504.1 234.2s-3.1 1.8-4.7 2.5c-2.2 1-4.5 1.4-6.7 2.4-.8.3-1.4 1-2.2 1.2q-1.5.6-3 .7l-1.4.1c-1.1.4-2 1.3-3 1.8q-1.4.8-2.9 1.1l-2.8.1q-.8 0-1.7.4L474 246q-1.5 1-3.1 1.5c-1.4.3-2.9-.2-4.3 0q-1.3.1-2.5.5l-2 1h-2.6q-1.2.2-2.3.6t-2 .7h-1.4q-.5 0-.9.4-.3.7-.1 1.5.2.7.9 1c1.5.8 3.4.4 5.2.7l3.5.6 2.2.5c1.6.1 3.2-.5 4.7-.1q1 .4 1.9 1.1 1 .6 1.6 1.6.2.5 0 1.1-.7.9-1.8 1.1a11 11 0 0 1-3.9.4 16 16 0 0 1-4-.8c-1.2-.3-2.2-1.2-3.4-1.6q-1.4-.2-2.6-.1c-2-.2-4 0-6-.3q-1.8-.3-3.5-1.3l-1.8-1.7-1.6-.6-1.4.2c-.4.1-.7.6-1 .6-.7 0-1.2-.7-1.7-1q-.6-.6-1.3-.8-.8-.1-1.7.3t-1.8 1q-1.4 1-3.2 1.6-1.2.3-2.6.3c-2 .2-4.2-.4-6.2 0a13 13 0 0 0-3.5 1.5l-2.7 1.8q-1.5.7-3.2 1.2-1.2.5-2.3.7-1.5.3-3 .2-1-.2-1.9.1l-.4.7q.3.7 1.1 1 1.6.6 3.4.6l5.3.1 3.2.2q.4 0 .6.3.3.5 0 1.2 0 .6-.3 1-.9.6-2.1.5c-1 0-1.8-.8-2.7-1h-2.2l-2.2.7-1.5 1q-1.8.3-3.5-.4l-1.2-1.1q-1-.5-2-.6c-1.9-.2-3.8.4-5.6 0q-1.2-.2-2.3-.8l-2.1-.6q-.8-.2-1.4 0c-.7 0-1.2.8-1.9 1q-1.5.4-3 .3c-1.3.1-2.6-.2-3.8.1l-1.6 1q-1.8.4-3.7.3-1.8 0-3.6-.3c-.4 0-.7-.4-1-.3-.9 0-1.5.7-2.2 1l-2.4 1-5.9 2c-2.7 1-5.7 1.3-8.2 2.8q-.6.3-.9.8c-.1 1.3 1.1 2.5 2.1 3.4q.8.7 1.9.8c1.3.3 2.6 0 3.9 0q4.5 0 9.2.4l12 .7q12.3.3 24.6.3c1.2 0 2.3.3 3.4 0 .7-.3 1-1 1.8-1.3.5-.2 1.1 0 1.7-.3 1-.5 1.7-1.6 2.7-2.4q2.1-1.9 4.5-3.2l2.6-.8c.9-.2 1.9-.1 2.6-.6 1-.5 1.5-1.7 2.4-2.4a14 14 0 0 1 3.3-1.9c1.5-.6 3-.7 4.6-1.1q1.8-.6 3.7-1l4-.2q2.6 0 5.3.3c1.5.3 2.8 1.3 4.3 1.7q.9 0 1.8.3.6 0 .8.6l-.4.7q-.8.3-1.7.3-1.5.1-2.7-.1c-.9-.3-1.5-1.1-2.4-1.4a10 10 0 0 0-4.1-.5 5 5 0 0 0-2 .8l-1.8 1.7q-.7.6-1.7.7c-.8 0-1.5-.7-2.3-.6q-1.2.1-2.3.9l-2 1c-.7.6-1.2 1.5-2 1.8q-1.5.4-2.9.4c-1.1.2-2.3 0-3.4.5l-1.7 1.1-2.2 1.2q-.7.1-1.3.6-.3.6 0 1.1.3.8 1.2 1.1c.8.4 1.8.2 2.7.3l.9.2 2.8 1q1.6.4 3.3.3l2.4-.4q2.7 0 5.6.3c2.5 0 5.1-.4 7.6 0 .8.2 1.5.9 2.3.9 5.2 0 9.6-.4 14.8-.1l.5.2h11.8c.9 0 1.6.5 2.4.6q1.3.3 2.5.2l2.4-.3 2-.2h4l1 .3 3.8.3 1.7.2h2l1.8-.3c2.6 0 5.2.4 7.8.2l1.3-.1h11.2s.4-8.2-.3-12.2a98 98 0 0 0-6.8-21.6c-1.6-3.8-4-7.3-5.9-11zm-229 73.2-.4 1.7v6.3l4.8-.2V314l-.2-1.7-.4-4.9zm56 .3-3.8 2.8-.3 7.3 4.5.4-.5-3.3v-1c-.2-2 0-6.2 0-6.2m18.3 1.8-4.3 1-.4 8.4 4.9 1 .4-.7-.7-2.8zm-56.8 2-3.4.3v4.8l1 .7 2-.3zm144.2.1-2.2.1q-2 .2-4 .8a23 23 0 0 0-5 2.2c-1.7 1-3.3 1.8-4.6 3.4l-17.3 22.4-19.2.5s3.6-7.8 5-11.9q.6-1 .8-2.3 0-1-.2-1.7-.5-.7-1.4-1h-1.2a3 3 0 0 0-1.5 1c-3.8 4.5-7 16.2-7 16.2h-3.2s-2.7-6.2-5.4-8q-1-.6-2-.5t-1.6.3q-.7.6-.8 1.6 0 .6.4 1c1 2.2 3.8 6.2 3.8 6.2l-30.7.9s-.4-1.5-.9-2q-.8-1-2-1.4a6 6 0 0 0-2.2-.2q-1.4-.1-2.6.5-.7.5-1 1.3-.6 2-.5 4.2 0 4 .9 8.1.2 1 1.2 1.7t2.3.6q1.2 0 2.3-.3.8-.4 1.4-1l.8-1.8c.2-.5.3-1.6.3-1.6h35.2l-10.1 22.8 4.5 2.3 9.8-22 17 23 3.8-2-16.7-24s5.3-.3 8-.3l7.7.2 6.6.3c1.9.1 3.8.9 5.6.5q1.4-.3 2.4-1.3 1.1-1 2.1-2.2l2-2.6 6.9-9.7q2-3.5 4.7-6.5 2-2 4.5-3.5a26 26 0 0 1 5-2.4q1.5-.7 3.2-.8c1.3 0 2.6.8 3.9.5q.8-.2 1.5-1 .9-.8 1-1.9a2 2 0 0 0-.5-1.4q-.6-.5-1.6-.5-2.4-.3-4.7.1l-4 1q-3 1-5.8 2.7-2 1.2-3.6 2.9-3.8 3.9-7 8.2l-8.2 10.7-3.4-4s8-10.7 11.8-15q1.9-2.4 4-4.4a21 21 0 0 1 8.4-4.2c1.4-.3 2.9 0 4.3-.3q1 0 1.7-.6.4-.7.6-1.5l-.2-1.4q-.2-.7-.8-.9zm-119 .1-3.4.6v4.3l-1.2 1.2 4 .6 1.6-.6v-1q-.4-.7-.4-1.8c0-1-.6-3.3-.6-3.3m-14.4.5h-.5c-.5.2-1.7.3-1.7.3l-.3 5.3 2.5.2 2.3-.4-1.1-5.3zm-21 16-3.7 1-.6 1.2.1 5 3.9.3zm17.9.7-3.3 1.5-.2 6.3 3 .4zm13.5.9L311 332l-.3 5.7h3zm20.7 12.3h.5l.7.3.6.6.4.9.2 7.6q-.2.7-.9 1l-.7.2-.6-.2q-.4 0-.7-.2-.4-.2-.6-.5-.4-.8-.3-1.5-.3-3.2-.4-6.7.1-.5.5-.9l.6-.4zm-20.3 15.5-.7.2-.7.7-1 .8c-.6.2-1.3-.2-2-.1q-.8 0-1.4.5c-.2.1 0 .5-.3.6h-.5l-1.3.2-.6.5q-.5.3-1 .1l-2-.4h-1q-.4 1 0 2.2.4 1.5 1.4 2.5 2 1.8 4.5 2.7a20 20 0 0 0 6.2 1.5q3.6.2 7.1-.6 1.6-.2 2.7-.8.5-.4.7-1-.1-.4-.6-.9-1.1-1.5-2.5-3l-3.6-3.4c-1-.8-2-1.9-3.2-2.2zm33.3 17.5s-1 2.8-1.8 4c-1.2 1.6-3 2.8-4.5 4a24 24 0 0 1-5 3.1q-1.5.6-3 .8l-2.5-.1-1.7.5c-.8.4-1.3 1.2-2 1.6-.6.3-2.6.4-2 .6 2.3 1 3.9 1.7 5.9 2.2q3.6 1.1 7.3 1.9 4.3.7 8.5.8h6.5c.8 0 1.9.4 2.5 0 .4-.2.6-1.2.7-1.5l-.2-1.2q-1.3-2.7-3.3-4.8l-2.6-2.4a8 8 0 0 1-1.6-2.5c-.3-1 0-2.2-.1-3.2zm-41 16.7-8.2.6-5 1-1.7 1-1.7.7 12.4 10 4.6 1.2 5.9-5.6.7-5.7s-1.5-3-1.7-3zm61.6 7c-1 0-.6 7.8-.5 13.3 0 2.1-.5 3.2-.3 4.4l.2 1 .7 1.1c.4.5 2.2.9 2.2.9l10.6-18.2v-2.5l-.1-2.2c-.2-.5-.8-3.2-1.3-3a87 87 0 0 0-11.5 5.1m20.4-4-.7 1.8q-.2 1-.2 2.2v2.5l10.1 18.6s2.3-.8 2.8-1.3l.6-1c.2-.4 0-4.2-.1-6.7-.1-1.8.2-5.4 0-7.2 0-1.1 1-6.6-.1-6.8-.8-.1-6.6-2.4-9.6-3.3-1-.3-2-.2-2.8 1.2" id="path12"/><path style="display:inline;fill:#008600;fill-opacity:1;stroke-width:0.6;stroke-linecap:round;stroke-linejoin:round;stroke-miterlimit:6.7" d="M279 288.4h-.6q-1.5.2-2.8.7l-1.6.5q-1.6.7-2.4 1.8c-.4.6-.3 1.3-.6 1.9q-.5 1.7-1.6 3.1c-.7 1-1.8 1.4-2.7 2.1q-.5.3-.9.8a3 3 0 0 0 .1 2.3l.6.7q.1.5-.2 1c-.1.4-.6.7-.7 1.1q.2 1.3 1.1 2.4.5.7 1.2 1.2c.7.6 1.7.7 2.6 1.1l1.8.9q.7.3 1.6.3.6-.1 1.2-.6l1.5-1q.4-.3 1-.2t1 .3l.1 1 .7.2 1.7-.4q1.1.2 2.2.1.7-.2 1.2-.8l1-.7s.6-.1.8.1c.6.7-.2 1.8-.1 2.7q0 1 .7 2a3 3 0 0 0 2.6.6l.8-.5q.6 0 1.3.3.4.4.9.6 1.3.3 2.5-.1l1.6-.2q.6-.3.8-1c.3-.5-.2-1.3.2-1.7q.6-.4 1.3 0c.7.4.3 1 .6 1.5q.5.9 1.4 1.4h.7l1.5-.5 1.2.1c.4.1.6.6 1 .6q1 .1 2.2-.4.6-.2 1.1-.6.9-1 1.4-2.2l.5-.7q.8-.4 1.2-.1c.3.4-.4 1-.5 1.6v1.8q.3.6.9 1 .8.8 1.8.6c.3 0 .4-.7.8-.9l1.4-.2q.7 0 1 .2l.8.8q1 .2 1.8-.2 1.5-1 2-2.6l.1-1.5q.4-.8 1-1 .3-.1.7.1.8.6 1.5 1.4c.5.3 1.1.9 1.8.9.4 0 .8-.5 1.1-.7l.6-.7.7.4q.4-.1.7-.4l2 .4 1.8.2.9.2 1 .5q.5.3 1.1.3.8-.1 1.1-1 .4-.7.6-1.5l.7-1.6s.8.6 1 1-.1 1.1.1 1.5c.5.6 1.3.6 2 1l1.6.6q.5.4 1.1.5.9-.1 1.7-.6l1.5-.3h1.5q1 .4 2.1.5 1 0 1.7-.2.8-.6 1.2-1.4.5-.7 1.2-1.2c.5-.4 1.4 0 1.9-.5q.5-.6.5-1.6c0-.6-.3-1.2 0-1.8 0-.5.7-.8.8-1.3q.4-1.5 0-3-.5-.4-.8-1l.1-1q-.4-.7-1-1.2l-1.2-.5q-.7-.7-1.2-1.6l-1-.8-1.2-.4-.8-.9-1.2-.5-.8-1.1h-1l-.6.4h-1.6q-.9 0-1.7.3-.5.4-.9 1l-1.2 1q-.4.7-.4 1.6t-.2 1.7q-.4 1.5-1 2.8l-1.3 2.9-.6-1.7-1-4q-.4-1.6-1-3.1-.1-1.3-1-2.2c-.7-.4-1.7.1-2.5 0l-1.6-.9c-.7-.3-1.6-.2-2.1-.8-.4-.4.1-1.2-.3-1.6q-.4-.2-1 0-.8-.1-1.4.4c-.3.4 0 1-.3 1.3q-.4.8-1.2 1.5-.7.4-1.3 1 0 .3-.3.6-.5.4-1.2.6t-1 .6q-.3.9-.3 1.9 0 1.2-.4 2.3-.2.9-1 1.4c-.4.3-1 0-1.6 0-1 0-2-.4-2.8-.2q-.8.2-1.3.8l-.6 1.2c-.4.3-1 .1-1.3.4q-.4.7-.6 1.5 0 .4-.2.7-.3.1-.8-.2c-.6-.4-.8-1.3-1.4-1.8l-2.7-1.9q-.3-.4-.7-.5c-.8-.2-1.6.3-2.3.5l-2 .7c-.7.3-1.7 0-2.2.6v1.1q0 .8-.2 1.5t-.8.7q-.7-.1-1.2-.7c-.8-.8-.8-2.1-1.4-3q-.9-1.5-2.1-2.5-.9-.8-2-1-.5.1-1 .6l-1.6 1.8-1.4 1-1 .1s-.8-.5-.7-1l.1-1.6q.5-.7.8-1.5a3 3 0 0 0-.3-1.8c-.4-.8-1.3-1.1-1.8-1.8l-1.9-2.8q-.9-.8-1.9-1.4l-1-1.4-1-1zm-7.2 23.8h-.2c-.3.2 0 .6-.2.8q-.6.2-1.3 0l-1.6.2q-1 .6-1.8 1.7l-1 1.4q-.3.7-.2 1.4c.4.5 1.1.2 1.7.3q.8.1 1.5.5c.5.4.6 1.3 1.2 1.4s.8-.6 1.3-1l1.3-.7 2.5-.7h3.2q1.5-.1 3 .1.6.2 1 .6l1.7 1q1.5.4 2.7 0c.5 0 .9-.4 1.3-.3.6 0 .9.8 1.4 1q1.1.2 2.2 0l2.2-.2 3-.6h2l.7.5-1.6.8a29 29 0 0 0-4.6 3.2q-.6.4-.8 1 0 .8.5 1.7.4.4.5 1c0 .5-1 .7-1 1.3q0 .9.7 1.4c.3.3 1 0 1.3.3l.7 1q.3.5.9.7c.4 0 .7-.6 1-.9l1.4-.6q.7-.2 1.4 0c.3.4-.2 1.3.2 1.6.4.2.9-.4 1.3-.5q.9-.5 1.8-.7h1.5q.7-1 .7-2a10 10 0 0 0 .1-3.5q-.2-1.1-.8-2.2c-.3-.7-1.2-1.1-1.3-1.9l.2-.4h6.1l-.9.9q-.8.7-1.4 1.8-.6 1.5-.5 3.1-.1 1.3.4 2.2l.7.7.1.5c0 .4-.4.8-.3 1.3q0 1 .8 1.8.6.4 1.6 0 .6-.1 1-.5.8-.4 1.4-.5.7 0 1.3.3l1 .2q1.6 0 3-.9 1.5-.8 2-2.2t0-3a6 6 0 0 0-1-2.2c-.4-.8-1.3-1.2-1.8-2l-.4-1.2h4c.4 0 .5.6.9.8q.9.8 2 1h1.8q1.2 0 2.5-.4 1.4-.6 3.2-1.1c1-.2 2.2-.6 3.2-.4l1.2.8q.9.3 1.8.3l2.6 1 2.6-.4 1.2-.1 1.6-.1q.8-.2 1.4-.6t1.1-.4q.8 0 1.3.3l2.1 1c1.8.5 3.7.2 5.5.2h9l3.2-.3c.7 0 1.6.3 2.2 0q.5-.3.6-.7-.1-.8-1-1.4-.6-.7-1.4-.8l-9-.7-2.6-.7-4.2-.9-1.7-.5-2.4-.7.5 2-1.1.2h-2.4q-.6 0-1.1-.3l-.9-.6-1-.5q-1.3-.5-2.6-.7c-.8-.1-1.5.3-2.2.1-.8 0-1.5-.6-2.2-1l-1.4-.6a5 5 0 0 0-2.2 0c-.5.1-1.6.7-1.6.7l.3 2H327v-1.3l-1.5-.3-.7-.5H323q-.6.4-1.3.6h-2.3c-.3 0-.7.6-.7.6v.7h-4.2v-1.1c0-.5-4.2-.6-6.2-.3q-.7.1-1.3.5l-1.5.2s-.5.7-1 .8q-1.4.6-3-.1-.5-.2-.5-.6v-.7l-1.2-.9q-1.1-.4-2.2-.4h-2.5l-1.8.3-1 .3-.2 1.2q0 .4-1 .3l-1.8-.3-.1-.8v-.8l-1.8-.9-1.7-.6c-.9-.1-1.7.3-2.5.3q-1 0-2-.4l-1.8-.6v2q-2.1.2-4.7-.2v-1s-1.5.1-2-.3c-.3-.2 0-.7-.3-1zm9 6.7q-.9.1-1.8.7l-2.3 1.5q-.9.7-1.5 1.6l-.4 1.4v2.2l.4 1.8c.2.6 0 1.4.4 2s1.3 1.4 2.2 1.3c.4 0 .4-.7.8-1l1-.1q1 0 1.7.4l1 .7h1.1l1.4-.5q.6 0 1.3-.3c.6-.3 1.6-1.3 1.6-1.3l.3-1.8c0-.7-.5-1.3-.6-2l.2-1.8q0-.9-.6-2l-.7-.7-1.3-.4-2.7-1q-.6-.5-1.3-.7zm4 14.7h-.6l-1 .5-1 .1-.1 1s-1.5.2-2.3 0q-.7 0-1.2-.4t-1.1-.6l-1.4.5-1.9.5c-.4.1-1-.3-1.3 0q-.3.4-.2 1 .5.5 1.4 1 .6.4 1.3.6h1.1l2-1q1.3-.2 2.5 0l1 .5 3.5.6c.5 0 1 .4 1.5.1q.4-.4.4-.9.2-.8 0-1.6a4 4 0 0 0-1.7-1.8zm32.7.9h-.6q-.8.1-1.6.6l-1.5.1v1.6q0 .4-.3.5-.7.3-1.5 0-.6 0-1.1-.5l-.5-.3q-.6-.1-1.2.2l-1.4.5c-.5.1-1.1-.1-1.5.2a1 1 0 0 0-.3.9q.4.6 1.1.9l2 .5 1.5.7h2l1.6.1q1.4 0 2.7-.2l1.3-.5q1.1-.1 2.1-.6t1-1.6c0-.7-.7-1.2-1.2-1.7q-.6-.8-1.6-1.3zm-17.5.1v1.9h-1.5c-.6-.1-1.6-.7-1.6-.7v-.8h-3q-.8 0-1.3.3a2 2 0 0 0-.8 1.1q-.2.7 0 1.2.7.4 1.8.2h2.3l1.8-.2 1 .5 1.5.2c.7 0 1.5.2 2-.3q.2-.4 0-.9l-.4-1.1q-.4-.8-1.2-1.3zm140.3 1.4c-.5 0-.9.6-1.2 1l-.4 1.1q0 1.2-.2 2.3-.2.8-.8 1.5l-1.3.6q-.6.9-1 2-.6 1.5-1.6 2.8l-1 1.7c-.6.5-1.6.5-2 1.2q-.5.9-.3 2c.1 1.2.3 2.6 1.3 3.4q1 .4 2.3.1l1.6-.4q.9-.3 2-.3l1 .6q.7.4 1.4.4c1.2-.1 2-1 3.1-1.5.7-.3 1.5-.2 2-.7.4-.6.1-1.6.1-2.4l-.2-2.3q-.4-1.5-1-2.8-1-2.2-1.4-4.6l-.1-1.9q0-.7-.4-1.3-.3-.5-1-1.1c-.3-.4-.3-1.3-.8-1.4zm24.7 26.4h-2.1q-2.3 0-4.5.3-1.4.2-2.2 1c-.4.6.2 1.6-.2 2.1-.4.7-1.4.7-2 1q-.8.2-1.6.8-.5.5-.8 1.2 0 .8.3 1.4.6 1.1 1.6 2l2 .7q1.2.3 2.4.2h1.8q1.2.2 2.2.7l2.8 1.4q1.5.8 3 1.1h2.3q1.3.2 2.4-.2t1.3-1.5c0-1.3-1.7-1.9-2.7-2.7l-2.2-2-1.4-1.1q-.7-.9-1-1.9v-1.1l.6-1v-1.2l-.1-.7q-.8-.5-2-.5" id="path13"/><g style="display:inline" id="g15" transform="translate(1 -128)"><path style="display:inline;fill:#ffffff;fill-opacity:1;stroke-width:0.6;stroke-linecap:round;stroke-linejoin:round;stroke-miterlimit:6.7" d="m359 498.3 12 5.1s3.3 1.3 4.8 2.3q.4.4.4 1t-.5 1.3q-3.5 7.7-9.4 13.7c-1.1 1-2.5 2.4-4 2.6q-1.5-.1-2.6-1a9 9 0 0 1-3.3-4.4q-.9-2.5-1.2-5.2a39 39 0 0 1-.4-7.1q0-2 .5-4 .5-1.9 1.7-3.6l.8-.5c.4-.2 1.2-.2 1.2-.2" id="path14"/><path style="fill:#969496;fill-opacity:1;stroke-width:0.6;stroke-linecap:round;stroke-linejoin:round;stroke-miterlimit:6.7" d="m371.2 503.5 3.8 1.6 1.1.7q.3.3.3.7.1.6-.1 1.2-.7 1.4-1.5 2.5l-1.4 2.1q-.7 1.5-1.7 2.8a52 52 0 0 1-5.3 6.7l-1.4-.1-.3-.7 1-1.8 7.5-9.8.5-1s0-.8-.2-1.1q-.2-.6-1-1c-.4-.3-1.3-.4-1.7-.8q-.3-.5-.3-1t.2-.7.5-.3m-15.6 11.4c-.4.5 0 1.3.2 2q.3 1.3.8 2.5l1.1 2c.4.5.7 1.3 1.2 1.4.8.1 1.5-.7 2.2-1.1l1.4-1.2.7-1v-.9q0-.5-.3-.9h-.9c-.5.3-.5 1.3-1 1.7l-1.2.4q-.8-.1-1.3-.8-.6-.6-.8-1.7l-.3-1.2q-.1-.8-.5-1.3-.3-.3-.6-.2-.5 0-.7.3" id="path15"/></g><g style="display:inline" id="g17" transform="translate(1 -128)"><path style="display:inline;fill:#ffffff;fill-opacity:1;stroke-width:0.6;stroke-linecap:round;stroke-linejoin:round;stroke-miterlimit:6.7" d="M405.6 491.8s-.5 2.8-1.1 4a19 19 0 0 1-4.2 5.7q-.6.4-1.1.5c-.7 0-1.8-.8-1.8-.8l-2.9 2.4s.2 1.5 0 2.2q-.6 1.4-1.7 2.3a20 20 0 0 1-4.8 3.8s2.4.3 3.6.2l3.2-.5q1.7-.5 3.2-1.4 1.9-1 3.4-2.4 1.5-1.5 2.5-3.3a20 20 0 0 0 1.9-4.3q.8-2.4.8-4.8c0-1.3-1-3.6-1-3.6" id="path16"/><path style="display:inline;fill:#969496;fill-opacity:1;stroke-width:0.6;stroke-linecap:round;stroke-linejoin:round;stroke-miterlimit:6.7" d="m396.6 501.9-2.1 1.7-.2 1.4q-.1 1-.5 1.7-.7 1-1.7 1.7l-2.5 1.5q-1 .7-2.3 1h-2l1.2.7 1.5.3h1.7q1.5-.3 2.7-1.2a7 7 0 0 0 1.6-2 7 7 0 0 0 1-2.3l-.1-2 2.4-2.3zm9-10-.6 1.7-.9 2.7-1.4 2.2q-.9 1.3-2 2.4-.4.5-1 .7c-.2.2-1 .3-1 .3l.4.5h.9l1.5-.8 1.6-2q.8-.9 1.3-2a14 14 0 0 0 1.3-4.8z" id="path17"/></g><path d="M352.8 272.2q.4.3.7 1c.1.3-.3.7-.2 1q0 .8.6 1.5l1.4 1.6.9 1c.5.5 1.6.6 1.6 1.3q-.1.3-.4.5v2.2q0 .4-.3.5-.3.2-.7 0-.3-.7-.3-1.3l-.5-1.1-.8-.7h-.9c-.3 0-.4.6-.7.5-.5-.2 0-1.1-.2-1.6q-.4-.8-1.1-1.6l-.8-1.2c-.5-.8-1.4-1.5-1.7-2.4m35.4-95.6q-.6.1-1.1.4l-.8.2-.6-.3q-.4-.2-.9 0-.5.1-1.1-.1h-.3v.6l-.8.2-3.1-.1q-.6-.2-1 0c-.2 0-.3.5-.5.6l-1.5.6h-1.4l-.8-.6c-2.4-.8-5-.1-7.5-.2H357q-.4-.1-.7-.4l-1.4-.3h-1.7l-.7.3-1.6-.4q-.7-.2-1.2 0-.1.5.2.7.4.5 1.1.6.7.2 1.5.2l.6.2q.3.2.1.7l-.1.3c-.4.3-1-.2-1.2.1q-.1.3.2.5t.8.2l1.2-.2 1-.7q.5-.3 1.2-.1.3.1.5.5t.7 1q.5.3 1 .2l1.6-.3 1 .1q.8.3 1.8.2c.6 0 1.2-.4 1.8-.4l1.2.4 1.5-.1q.4-.3 1-.4c.3 0 .6.4 1 .4.6 0 1-.5 1.6-.6h1.5q1.5-.2 2.8.1l.9.5 2 .5 1.2-.2 2.1-.1 1.2-.2 1 .1 2.9-.1 3.5-.4 3.3.1q1 0 2 .3l3.2.6q2.1.6 4.4.9l2.4-.3 2-.1q1.5 0 3-.3l1.1-.5c1.3-.3 2.6 0 3.9 0l1.8.3 2 .8h1.5l1-.7 1.6.5q1 .4 2 .3l1-.7q.7-.4 1.4 0c.2 0 .3.5.5.6q1 .6 2 .1.7-.4.7-1.2t-.6-1.1c-1.5-1-3.5 0-5.3.1-1.1.1-2.3.5-3.4.3l-1-.5c-1.4-.3-2.8 0-4.2 0l-6.6.2-2-.2q-.8-.3-1.3-.7l-1.2-1.2c-1.3-.5-2.8 0-4.2 0l-2-.1-1-.6c-.8-.1-1.5.4-2.2.3-.6 0-1-.5-1.6-.6h-1.8q-1-.2-1.7 0-.4.2-.7.6t-.5.4q-.6.3-1.3 0-.4-.2-.6-.6l-1.1-.7h-1.1zm30 .6-.4.1q0 .3.4.4.3.2.7 0 .3 0 .2-.3zm-6.4.6-.7.1q-.3 0-.2.3.2.4 1 .3a5 5 0 0 0 2.2 0l.3-.1q0-.3-.3-.4h-1.2zm-66.6 1.2q-1.1 0-2.2.4-.4 0-.4.3.1.3.5.4l.3.3q1.5.5 3 0l.2-.3q.3 0 .5-.3l-.2-.4q-.7-.4-1.7-.4m92.3 2.1h-.3l-.5.5-.5.2-.3.6q.3.5 1.1.7h1.3l1.2-.6c.4 0 1 .4 1.3.1q.2-.4-.2-1-.3-.3-.9-.4l-.9.1zm-60.5 8.2-.6.1-1 .5q-.7.2-1.5.2c-.9 0-1.8-.4-2.6 0-.4 0-.5.5-.8.6l-1 .1q-.6 0-1-.3l-1-.4h-1.3l-1 .4q-1 .2-2 .1-3 .2-6.2-.1l-1.9-.5-1.2-.1q-.5 0-.7-.3-3.3-.2-6.8-.1h-2c-.4 0-1-.2-1 .1-.2.5.9.4 1 .8v.5h-6.4c-.7.2-1.6 0-2.2.4q-.2.1-.3.5.3.8 1.1 1c1 .5 2.2 0 3.3 0q2 .1 4-.1l2-.6q1.8-.2 3.7 0h4.3l1.3-.2h1.4l2.4.2.7.1 1.7 1q.9.4 1.8.3l.7-.5 1.2-.4h1.3l.5.6q0 .6.2.8c.4.3.9-.2 1.3-.1q.7 0 1.3.3h2.3q2.3.3 4.7 0l2.2-.7q1.5-.2 3.2 0h2.4q1 .2 2 .1c.4-.1.7-.6 1.1-.7 1-.3 2 0 3 0 .8 0 1.8.4 2.5 0q.4-.3.3-.6-.1-.5-.6-.6l-.8-.4c-1.5-.3-3 .4-4.4 0l-.6-.2q0-.3-.2-.4c-1.9 0-3.2.3-5.1.3-.4 0-.7-.5-1-.6l-1.8-.2-1.3-.8zm19.8 2.3-1.7.2c-.4 0 .6.7 1 .9q.8.5 1.8.7h2q.7.2 1.3 0 .4-.2.3-.6-.2-.2-.8 0-.9 0-1.6-.3v-.7q-.4-.2-.9-.2zm8.7.8h-1q-.3.3 0 .7.3.1.8 0h3c.5 0 1.4.2 1.4-.2q-.1-.4-.7-.4h-1l-1.5-.1zm12 12.6q-.8 0-1.6.3l-1.9.7-3 .6-3.8.2-2.3.5h-2.6l-1.8.4c-.3.2-1 .2-1 .6q.2.4 1 .5l2-.2 3-.1 4.1.2 2-.2 2-.3h2.2l2-.8a6 6 0 0 1 2.2 0l1.5.7q1 .2 1.9 0l1.2-.4q.6 0 1 .2l1.8.6q1.5.2 3.2 0l4.1-.1q1.8 0 3.5-.3l1-.3 1.4-.3 1.2.2 1.8.4 2.2-.3 1.9-.4h1l4.1-.2q1.1.2 2.3.1.4 0 .7-.4l-.3-.3c-.8-.5-1.8-.2-2.7-.4l-1.4-.5-3-.2q-1-.2-2.1 0l-2 .5-1.3.1-1.5.5h-1.4l-5.4-.2h-8l-1.6-.1h-.8l-1.1.5h-1.3l-.8-.5-1-.5-1.7-.5q-.3 0-.4-.3zm-122 12-4.4.1q-.5.2-.6.4l.1.2h-1.6l-.6.2-.6.7 1.3.3 2.7.2s1-.4 2.2-.3l3.6.1.8-.3.5-.4v-.4H293v-.6zm185.4.6-1.7.1-2.3.5c-4 .5-7.8.2-11.7.2q-3.9.1-7.8-.1c-1.3-.1-2.6-.7-4-.6q-1.3-.1-2.4.4l-.8.8c-.7.4-1.6 0-2.4 0-1.4.1-2.9-.1-4.2.3-.5.1-1.4.3-1.3.7.2 1.1 2.2.4 3.3.5l5.2.1 1.2.3 1 .8q1 .6 2 .8c.8-.1 1.4-1 2.1-1.2l2.2-.2q10.5-.6 20.9-.5c1.5 0 3.3.9 4.7.1q.5-.2.5-.8c-.2-.4-1 0-1.4-.1-.8-.1-1.8.3-2.4-.3v-.7c.2-.4 1-.3 1-.7-.1-.4-.8-.3-1.2-.3zm-179 .2-.5.2-.2.3-.7.4 1.2.2 3.9-.1h2.1q.8.2.7.3s-.5.4-.3.5h1.5l4 .2 1.6-.3s-.5-.5-.8-.6l-.7-.2-.8-.4h-1.8l-.9-.1-.4-.4H304l-1 .3-1.5-.1-.8-.1zm115.3 11.5c-.5 0-1.3.5-1.8.7h-2.5l-.2.4-.2 1q.2.3 1.6.4 1 .3.8.5l1.9-.3h.8l1.5.3 3.3-.4h3c1.2 0 .5.3.9.5.3.2 2.1 0 3.7.1l2.6.3 2-.2q.7-.2 1.5-.2h5l1.6.1c.3 0 .7.5 1.4.6.7.2 1.1-.5 1.1-.5h2l1.6.4c.4.2 1.8-.7 1.8-.7l1.6-.2h1.4c.3.1 1.1.5 2.1.4s1.1-.6 1.1-.6l1.9.2 1.4.5q1-.2 1.6-.7c.2-.3.5 0 1 0s1.3-.4 1.5-.7q.2-.3-.2-.7c-.2-.3-.8 0-1.2-.1l-1.2-.5-3.3-.1h-3.6l-2.5.4-2.9.3c-1 0-1.3-.3-1.8-.4l-3 .3h-2.8c-1.5 0-1 0-2.3-.4-1.3-.3-1.8 0-2.4-.2h-4.3l-2 .5-9.8-.4-2-.5zM359 201.1h-.5a2 2 0 0 0-1.1 1.2 260 260 0 0 0-4.8 31.4q0 1.5 1 2.3t2 .3q1.2-.6 1.5-2.4a187 187 0 0 0 4.3-31.1q-.1-.8-.9-1.3a3 3 0 0 0-1.5-.4m-19.2 1q-.8 0-1.3.4-.8.7-.8 1.5 1.3 15.1 4.8 30.6.5 1.4 1.6 1.8t2.3-.3q1-.8.8-2.6-1.2-14.9-5.3-30.2c0-.5-.8-.9-1.3-1zm40.5 7.5q-.8 0-1.3.5-9.8 12-18.2 25.3-.7 1.3-.3 2.4.6 1.2 1.7 1.3 1.4 0 2.4-1.4 9.5-11.4 17.6-25.3.4-.7-.2-1.6-.5-.9-1.5-1.2zm-58.8 3h-.2q-1 0-1.5 1a2 2 0 0 0-.2 1.4 230 230 0 0 0 15 24.4q.9 1 2 1a2 2 0 0 0 1.6-1q.4-1.1-.3-2.5-6.3-12.1-15.2-23.9-.4-.4-1.2-.4m73.1 10.9-.8.2q-13 8-25.4 18-1 1-1 2.2t1.2 1.8q1.1.4 2.7-.6 12.7-7.7 24.8-18.3c.4-.2.5-1 .4-1.5q-.2-1-1.1-1.6zm4.5 17h-.2q-13.9 3.8-27.8 9.4-1.1.7-1.5 1.7-.2 1.1.6 2 1 .6 2.6.1 13.4-3.5 27.3-9.6.6-.3.7-1.3.2-1-.5-1.7a2 2 0 0 0-1.2-.5m37.8 44.8-.2.1c-.3.9.2 1.8.1 2.7q0 .7-.4 1.2t-.9 1q-.2.7.1 1.4 0 .8.3 1.5l.7.5q.3.5 0 1c-.5.4-1.3 0-1.9.4l-.7 1q-.5.4-.6 1l.2.8c.3.3 1 0 1.4.2l1 .5c.2 0 .6.4.9.2q.5-.4.6-1.2l.8-1.6.7-1.5.5-1q0-1.4-.5-2.7l-1-4q0-.7-.6-1.2zm-8.3 6.5-.4.1c-.3.4 0 1 0 1.5q-.2.6 0 1.2 0 .5.5.7l.9-.3q.5 0 .8.2l.1 1q.3.3.7.3.2-.2.3-.8.4-1.2 0-2.3c-.1-.3.1-.8-.2-1l-.6.4-.6.3q-.4-.1-.6-.6t-.5-.7zm77.7 7.7h-.7l-.3 1.3.1 1.9h1.8l.7-.3c.2-.2-.2-.8-.2-1s-.5-.8-.5-.8zm-102.8 3.2c-1 0-1.9.3-2.8.1h-.3c-.3.3.2 1 .6 1.2.6.4 1.6-.3 2 .2.5.3.1 1 .5 1.4.8.6 2 .2 3 .2 1.8 0 4.6 1.3 5.7-.3.2-.4-.3-.9-.5-1.2l-.7-1q-1-.4-2-.2-1.5.2-3.1 0-.9-.1-1.7-.4zm32.2.6q-.5 0-.6.4c-.2.7 1.3.6 1.7 1.3.2.4-.3 1 0 1.3.3.5 1.1.4 1.8.5 3 .4 6.9-1.8 9.2.2.3.3 0 .8.2 1 .5.6 1.5.4 2.2.4 1.2-.1 2.8 0 3.3-1 .2-.7-.4-1.4-.8-1.9q-.5-.6-1.2-.8c-1.3-.3-2.7.6-4 .6-2.5.2-5.2.9-7.4-.2-.5-.3-.5-1-1-1.3q-1-.4-2-.4zm-12.6 0c-1.1 0-2.4.9-3.1.1-.5-.2-1.2.5-1.2 1q.2.5.9.8 1.6.5 3.1 0c.7-.2 1.6-.5 1.7-1.1q-.2-.5-.8-.7zm83 3.8q-1.2 0-2.5.4c-.9.1-1.6.6-2.5.6-.7 0-1.5-.9-2.2-.6q-1 .5-.8 1.2c.7 1.6 3.3.4 5 .6l5.5.7 3.6.9q2.7.3 5.4 0 .6 0 1-.3c.6-.8.5-2.5-.3-3.1-1.2-1-3 .6-4.5.6q-2.4-.1-4.8-.5l-2.5-.5zm-42.9 10.3q-.8 0-1.5.2c-.7.3-1 1.4-1.8 1.6-1 .4-2.2 0-3.4-.1l-3.5-.3-2.5-.2q-.8-.2-1 .1c-.4.6.5 1.2 1 1.6q.8.9 1.8 1.3c1.6.5 3.4-.1 5.1 0q2 .2 3.9.8l2 1c1.5.4 3 .2 4.6.3l3.7-.2q2-.2 4-.1c1 .1 2 .8 3 1q1.6.1 3.2-.2 1.8-.4 3.5-1h3.5c1 0 2.2.5 3.2 0q.9-.2 1-1.2c-.2-.6-1.1-.7-1.7-.9-1.5-.4-3-.2-4.6-.3-1.7-.1-3.5.1-5.2-.2l-2.5-.8q-1.5 0-2.8.3c-1 0-2.3.8-3.2.2q-.3-.4-.2-1.1v-.8c-1.2-1.2-3.4 0-5-.2q-1.5-.5-3-.7zm-9.6 9h-1.1q-1.5.1-2.9.4h-3.2c-.8.2-1.9.3-2.2 1-.2.4.3 1 .6 1.3.5.5 1.3.3 1.8.7s.6 1 1.1 1.2c5.2 3 11.7 2 17.6 2.8l2.9.3c2.5-.2 4.8-1.6 7.3-2q2.1-.3 4.4-.2c1 .1 1.9.6 2.8.7q1.3.3 2.4 0 1-.5 1-1.4-.2-.7-1.1-1c-.6-.2-1.4.3-1.9-.2-.3-.3 0-.9-.2-1.2q-.6-.6-1.4-.6c-.8 0-1.4.7-2 .7q-2.8.4-5.4-.5c-1.3-.3-2.6-1.2-4-1.4q-2-.3-4-.2l-4.4.3q-2.1.1-4.2-.4h-.5zm19.3 9q-1.2-.1-2.4.4c-.6.2-1.1.9-1.8 1-1.8.6-3.7.2-5.5.1l-6.3-.2c-1.8 0-3.5-.4-5.2-.1-.7 0-1.7 0-2 .6q.1.6.8 1c1 .6 2.7-.5 3.6.3.3.2.1.8.3 1.1l.8 1.5q0 .6.3 1.1c.3.7 1.5 1 1.3 1.7q-.4.5-1 .2l-1.5-.5q-3.7-.7-7.3-.1c-.4 0-1.1.1-1.3.5q0 .8.9 1.3c.5.4 1.7-.3 2 .3q-.2.5-.7.9t-.4 1q.5.7 1.4 1c.7.1 1.5-.5 2.2-.4q2.3.1 4.4 1c1 .4 1.8 1.2 2.8 1.5q1.5.3 3 .2c2.3 0 4.5-.7 6.7-.6q.7 0 1.3.3.7.7.5 1.5c-.1.5-1 .4-1.3 1q0 .4.3.8c1.6 1.4 4.2 1 6.3.8 1.1 0 2.5 0 3.1-1 .3-.4-.4-1 0-1.4.4-.5 1.3.1 1.8 0l1.5-1.3c2-.7 4.2-.4 6.3-.5 1.8 0 3.6.5 5.4.2q1.9-.6 3.8-1.6c1.6-.8 3.5-1.2 4.8-2.5.5-.4.6-1.5.9-2.1-1 .3-2.7-.4-3.9-.6q-1-.5-2.1-.8-1 0-2 .3l-2.4.2-2-.3-1.5.3c-.4 0-1-.3-1.2 0-.7.6.1 2-.6 2.6-.6.5-1.7 0-2.6 0-.3 0-.7-.3-1 0-.3 0-.1.7-.4.9-.6.5-1.5.2-2.2.4l-2.6.6c-.8 0-2 .4-2.6-.3q-.2-.6.3-1c.6-.8 1.7-.9 2.4-1.5 1-.8 3-1.7 2.5-2.8s-2.6 0-3.8 0c-1 0-2.2-.4-3.2 0-.3 0-.5.6-.9.7a5 5 0 0 1-3 .3q-.7 0-1.2-.7c-.1-.8 1-1.4 1.6-1.9 1.6-1.2 3.7-1.7 5.6-2.4.6-.2 1.6 0 1.9-.6q.3-.7-.4-1.5c-1-1-3-1-4.5-1m29.8 9q.4 0 .7-.5-.4 0-.7.5M490.6 362h-.5q-.6 0-1 .2c-.5.4-.1 1.3-.5 1.8q-.4.4-1 .5c-1 .2-2-.1-2.9 0h-2q-1.5.2-3.2 0l-2.2-.6c-.9-.2-2-.6-2.6 0-.5.3-.6 1.2-.3 1.7.5 1 1.9 1.3 3 1.6 1.6.4 3.3.2 5 .3h2.9l5-.5 3.5-.8 3-.6c.8-.3 1.8-.6 2.1-1.4q.3-.7-.3-1.5c-1.1-1.1-3.2-.4-4.8-.5z" style="display:inline;fill:#ffffff;fill-opacity:1;stroke-width:0.6;stroke-linecap:round;stroke-linejoin:round;stroke-miterlimit:6.7" id="path18"/><path style="display:inline;fill:#006bad;fill-opacity:1;stroke-width:0.6;stroke-linecap:round;stroke-linejoin:round;stroke-miterlimit:6.7" d="M373.2 278.8h-.4l-.4.7.3.5-.4.7-.3.8.3 2q.3.7.4 1.6 0 .6-.3.7c-.3.1-.4-.4-.7-.5q-.5-.2-.8 0c-.5.4-.1 1.2-.2 1.8v3.9q-.3-.1-.5-.4c-.5-.8-.4-1.8-.7-2.6q-.3-1-.8-1.8l-1-1.3-1-1.4c-.3-.5 0-1.1-.4-1.5q-.6-.6-1.4-.4-.5.3-.7 1-.1.8.2 1.7l.5 1.8q.3.7 0 1.4 0 .3-.4.3c-.4 0-.4-.8-.8-.9-.3 0-.6.5-.8.3q-.3-.2-.2-.8 0-1-.3-1.9-.5-.8-1.3-1-.7 0-1.2.3l-.2 1q.5 1.4 1.2 2.7.5 1 1.3 2 .4.4 1 .5l1.1-.4 1-.1 1-.2c.2-.3 0-1 .3-1 .4 0 .4.6.5 1 .2.5 0 1.2.4 1.6l1 .1q.5 0 .8.3c.2.3-.2.8 0 1.2q.2.6.9.7.4-.1.7-.5c.2-.2 0-.8.3-.8s.2.6.4.7h1l.5-1c.2-.4.3-1 .6-.9s.2.5.4.5q.6.2 1-.2.6-.9.4-2v-1c.2-.5.9-.8 1.1-1.3q.6-1.4.5-3-.2-1.1-1-2.2-.6-.9-1.3-1.4c-.3-.4-.8-.3-.7-.7q-.3-.7-1-.6m46.8 1.7h-.2q-.5.4-.5 1.3-.3 2.1.2 4.3 0 1 .3 1.9l1 1.9.6 1.4.3 1.8q0 .9.3 1.8t.9 1.4 1 .1q.6-.1.8-.7.1-.8-.2-1.7l-1-2.4v-3.5c-.2-.5-1-.7-1.4-1.2l-.5-1.4c-.2-.8.2-1.7 0-2.5l-.2-.9-.5-1q-.4-.5-1-.6m-20.9.4q-.6.1-.8.5c-.3.6.5 1.2.5 1.9l-.2 1-.8.7q-.2.8 0 1.5t.6 1.3l.6 2 .2 1.8.4 1.2v1.4q0 .8.5 1.3.8.6 1.8.8c.5 0 1 .5 1.5.2q.3-.4.2-.9-.2-1-.9-1.9c-.3-.7-1.2-1.2-1.2-2l.7-.7v-1.2l-.8-1.5-.4-1.8.1-2a6 6 0 0 0-.6-2.1q-.5-1-1.3-1.4m32.5.7q-.7 0-1 .5t-.6 1.2v4.3q-.1 1.3.4 2.3.4.7 1 .9c.4 0 .7-.5 1-.3q.4.2.4.8.4 1.5 1 2.9.2.6.7 1t1 .4q.8 0 1.2-.6t0-1.3c-.2-.5-1-.7-1.3-1.3-.1-.4.2-1 0-1.4q0-.7-.4-1.5l-.7-1.1c-.2-.7.1-1.5 0-2.2q-.1-.8-.5-1.2l-1.1-.5q-.5-.2-.8-.8.2-.4.7-.7l.1-.7-.2-.4zm54 .6q-.5.2-.7.6a3 3 0 0 0-.6 1.5q.1.9.5 1.8l.7 1.5.9 2 .7 1.6.4 2q0 1 .4 1.7t1.3 1.2q.7.7 1.7 1.2.7.5 1.5.3.7-.2.9-.8-.1-.8-.5-1.5l-1.4-2.2-.2-1.7-.7-1c-.5-.3-1.3-.1-1.8-.5q-.7-.6-.9-1.7l.3-1-.1-1.3-.8-1q-.2-.5 0-1.1l-.2-.9-.1-.2zm16.5.2q-.2.5.1 1.2l1 1.6.3 1.6.2 1.7v1.8c.4.6 1.1.7 1.6 1.1q.8.6 1.3 1.3.5.6.7 1.3v4q0 1 .6 1.5t1.3.5q.7.1 1-.4.2-.6-.1-1.1c-.3-.8-1.3-1.2-1.5-2-.2-.6.2-1.3.2-2q0-1-.2-1.7c-.2-.5-1-.8-1.1-1.3v-1.8q.1-1.1-.4-2.1-.5-.6-1.1-.8c-.5-.3-1.1-.2-1.5-.6q-.3-.4-.3-.9l.2-1.3-.2-1-.7-.4h-.8zm-47.7 1q-.4.1-.7.5t-.2 1v.7l-.8.6q-.2.5 0 1.2l.3 2.5.7 2.5q.5 1.3 1.3 2.3.3.7.8 1l.6-.3q.4-.5.3-1.2c0-.7-.5-1.3-.6-2-.3-1.2 0-2.5-.2-3.8q0-.8-.4-1.6c-.1-.5-.8-1-.5-1.4.5-.6.2-1.7-.4-2zm-60.8.2h-.3c-.5.4-.2 1.4-.1 2.1q.1 1.5.4 2.8l.4 3.9q.2 1.2.8 2.3.3.5.7.8.9.2 1.6-.4.1-.3 0-.8c0-.7-.7-1.3-.8-2l-.1-1.7-.6-2.4q-.6-1.2-1-2.5c-.2-.6.1-1.3-.3-1.8zm85.7 1.5q-.3 1 .2 2 0 1 .5 2 .5.7 1.1 1.2l.4 1v2q.1.5-.1 1c-.2.2-.6 0-.8.3q-.5.5-.5 1.1t.5 1l.7.1h.8l.2.8q.3.2.7.1.4-.2.5-.9v-1.4l-.6-1c-.2-1 .3-1.8.1-2.7q-.1-.7-.7-1.6t-1.3-2l-.3-2.2q.2-.7-.2-1.2c-.3-.2-1 0-1.2.4m-13-.4q-.6 0-1 .5-.3.3-.3.8a4 4 0 0 0-.1 1.9c0 .4.5.7.6 1l.3 1.8q0 .8.3 1.5.5.7 1.3 1 .5 0 .9-.3.5-.6.4-1.3-.2-.9-.8-1.4-.4-.7-.6-1.6v-2q0-.7-.3-1.3-.2-.5-.6-.6zm4.2.2q-.6.1-1 .6-.5 0-.8.3-.5.7-.2 1.7 0 .8.6 1.4l1 .3q.7.4 1 1c.3.5-.1 1.3.2 1.8q.7.7 1.7.7.5 0 .7-.3c.3-.7-.5-1.3-.7-2q0-1.2-.4-2.3c-.3-.5-1.2-.6-1.4-1.2-.2-.4.3-.9.1-1.3q-.1-.6-.8-.7m-53.5.3-.6.2q-.4.2-.5.7-.3 1-.1 1.9a6 6 0 0 0 1.3 4c.4.4.8 1.1 1.4 1.2q.6 0 .9-.6.5-.7.5-1.5 0-1-.6-1.7-.6-.4-1-1c-.3-.4 0-1 0-1.4l-.3-.8q-.1-.6-.6-1zm94.5.3q-.5 0-.7.4l.3.5q.3.8.2 1.6c0 .6-.5 1.3-.3 1.8q.4.6 1 .6l.2-.4q.4-1 .3-1.7c0-.7.3-1.3 0-2q-.2-.6-.8-.8zm-67.4.7q-.7.3-1 1.2-.4 1.2 0 2.4.2.8.8 1.4t1.2 1l.7 1h1.1q.5 0 .8.4l1 1.2q.3.3.7.4.4 0 .7-.3l.8-.2q.4.3.4.8c.3.6.2 1.5.7 2q.5.3 1 .2.9 0 1.4-.6.2-.7-.1-1.5-.6-1.2-1.4-2.1l-1.7-1.7-1.3-.7-1.1-.1-.8-1q-.2-.6-.8-1c-.4-.2-1 .2-1.4 0q-.4-.2-.6-.8t-.3-1.1l-.4-.8zm15.5 1.5h-.2q-.3.4-.2 1l-.1 2.1q0 1 .3 1.8.6 1.3 1.5 2.3l2 2.6q.6 1.1 1.6 1.6.5 0 .7-.2.7-.7.7-1.7-.4-.7-1-1.3l-1-2q0-1-.2-1.6-.4-.5-.9-.7l-1-.1q-.4-.5-.3-1l.1-.8q-.2-.5 0-.9c.1-.4-.6-.2-1-.4q-.5-.5-1-.7m52.9 3.8v.2l.6 2 .3 1.3.1 1.7c0 .5-.4 1.2 0 1.5q.3.4.8 0c.5-.5.1-1.4 0-2q0-1.3-.3-2.4t-.8-1.8q-.3-.4-.6-.5M490 303.7q-.6 0-1 .4-.4.9.2 1.7t1.8 1.2l1 .5.7.8.6 1.3q0 .8.6 1.2.7.5 1.5.4.6-.1 1-.7l.6-.9 1.1-.3q.5-.2.8-.8t0-1.2-1-.7c-1-.3-2.3.4-3.2-.1l-.2-.5-.3-1.1a1 1 0 0 0-.8-.4l-.8.5q-.4.3-.8.2t-.7-.2q-.2-.4 0-.7c-.3 0-.6-.6-1-.6zm1 .6h.1m-58.9-.6-.3.1q-.3.2-.2.6.5.4 1.2.2.6.2 1-.1 0-.3-.3-.5h-.3zm-12.5 1.4-2 .2-1.7.3q-.7.1-1.2.6-.2.7.3 1.3c.4.4 1.2 0 1.8 0h1.5l.4.1q.4.5.9.8.6 0 1.2-.3l1-.3 1.1.2 1.4.1q.6 0 .7-.3 0-.4-.3-.6c-.8-.6-2.3.6-3-.1v-.7q-.2-.6-.6-1-.7-.3-1.5-.3m54.5 1.4h-.3l-1.9.4q-.8 0-1.1.5 0 .4.3.6c.5.3 1 0 1.6 0l2.1-.1 1 .2q1 .4 2.2.6h.6v-1c-.7.4-1.6-.7-2.4-.9zm4.5 1.3h.2zm-69 0c-.8-.6-2 .6-3 .8H404c-1.3 0-2.6-.3-3.8 0q-1 .1-1.7 1-.2.7.3 1.3c.8.7 2.2.6 3.3.5q1.2-.2 2.3-.8l1.6-.7q1.5-.3 3-.2 1.4.2 2.6-.1.4 0 .5-.4c0-1-2-.6-2.4-1.4m95.6 1.1-1.4.2H502q-.8.2-1.2.9-.2.5 0 1 0 1 .7 1.6.7.4 1.5 0 .6-.2 1-.8l.8-.7q.4.1.8.5.6.4 1.3.5.6 0 1-.6.2-.6 0-1.3-.3-.4-.8-.6-.6-.4-1.4-.6zm-45.1.5-1 .2-1 1-.9.3c-.6.1-1.4-.2-2 0l-1 1q-.5.5-1 .6-.5-.3-.7-.7 0-.8-.3-1.1c-.5-.4-1.4-.3-1.8 0q-.4.6-.2 1.3.3 1.3 1.4 2.2.5.5 1.1.5.8-.1 1.5-.6l1.2-.7q1-.4 2-.3c.3.1.5.6.9.7.7.3 1.4.9 2.2.6.4 0 .5-.7.8-.9l1.1-.4q1-.3 2-.2c.8.1 1.4.7 2.2.7q.9.2 1.6-.3.4-.5 0-1.2l-.5-.7c-.7-.5-1.6 0-2.4-.1l-2.5-1.1-1.7-.6zm-37.6 2.5-2 .4h-3.3c-.5.2-1.3.6-1.1 1 .1.6 1 .2 1.6.2h2.3c.6.1 1.1.7 1.8.6q.9 0 1.6-.7.7-.3.7-.7c0-.6-1-.7-1.7-.8m42.1 6.2c-.6.1-.7.7-1.1 1l-.7.4c-.4 0-.8-.4-1.2-.3q-.5.1-.9.6l-.8.3-.9-.4-.7-.5q-.6.1-1 .5c-.2 0-.3.4-.5.3-.3 0-.2-.7-.5-.8q-.7-.2-1.3.1-.3.5-.8.8h-1.8l-.4 1q-.3.4-.8.4c-.4 0-.6-.5-1-.6q-.5-.4-1-.3-.7 0-.8.5c-.2.7.6 1.3 1 1.7q.9.9 2 1l1.4-.5q.8-.3 1.3-.2c.5 0 .8.6 1.3.5s.6-.6 1-.8l1-.2h1.7c.5 0 1 .4 1.4.3s.3-.7.6-.8q.6-.2 1.3-.2.9 0 1.8-.3.6-.4 1-1l.5-1c0-.4-.7-1.6-1-1.5m29.3 2.4h-1c-.6.1-1.2.6-1.8.6l-1.6-.1c-.3 0-1 .2-1 .5 0 .5 1 .4 1.4.5q.8 0 1.5.3l.6 1q1.3.4 2.5 0 .6-.2 1-.8.4-.8 0-1.5-.6-.6-1.6-.5m-21 .7h-1.6q-.9.1-1.7.7-.4.3-.3.8c0 .6.8 1 1.3 1.4s1 1 1.5.9.7-.8 1.2-1q.8-.2 1.7 0l1.1.5q1 .3 1.8 0 .4-.1.5-.5.4-.5.3-1-.5-1-1.8-1.5-1.1-.3-2.4-.3zm13.8.2-1 .4c-.3 0-1-.3-1.2.1q.1.4.5.7.7.3 1.5 0 .4-.1.5-.5l-.2-.6zm12.3 4.2q-.9-.1-1.4.4-.6.4-.4 1c.3.6 1.4 0 2 .3l1.8 1q1.2.5 2.4.6h1.8c.6-.2 1-1 1.6-1.2 1.1-.4 2.4 0 3.6 0q1.7.3 3.5.2.8 0 1.4-.3l.5-.7.7-.8c-.9-.9-2.5 0-3.8.1h-4l-3 .7q-1.4.2-2.7-.2-.6-.4-1-1zm-47.9 2q-.6.1-1.1.6l-.6.7c-.3.2-.7-.1-1 0q-.7-.1-1 .2-.4.6 0 1.3.7 1.4 1.9 2.2.7.7 1.6.8.7 0 1.3-.3c.4-.1.7-.5 1.1-.3q.5.2.7 1 .8 1 1.8 1.7.7.6 1.5.4.5-.5.4-1.3v-1.3q.1-.4.5-.5c.7 0 .6 1.4 1.2 1.6q.6 0 1.1-.4l.4-.4h.7l.4.6c.4.2.9-.2 1.4-.3q.5-.4 1.2-.4.4.1.8.6l1 .1c.5-.1.5-.8 1-1 .7-.2 1.6.4 2.5.4q1.2 0 2.4-.4 1.5-.3 2.9-1l1-.6c.7-.2 1.6.5 2.2 0q.3-.1.2-.5c-.2-.5-1.1-.5-1.7-.8-.7-.2-1.4-.8-2-.6-.4 0-.5.6-.8.9l-1.5 1.2q-.6.4-1.3.5c-.6 0-1-.7-1.5-.8q-.8-.1-1.3.1-.6.5-1.3.7-1-.1-1.8-.8c-.3-.2-.3-.8-.7-.9-.6-.2-1.2.5-1.8.3q-.5-.2-1-.8-.3-.3-.7-.4c-.4 0-.6.7-1 1h-.8q-.4-.6-.5-1.2-.5-.5-.9-.5t-.7.3-.6.4q-.3-.2-.4-.8-.1-.4-.5-.5c-.8 0-1.1 1.4-2 1.4q-.6-.2-1.3-1c-.4-.3-.7-1-1.2-1.1zm31.8 3.2q-.6 0-1 .4.1.7 1 1c.4.3 1 0 1.6 0l1 .5h1q.5-.2.6-.7t-.3-.6c-.5-.4-1.4 0-2-.1l-1.2-.4zm-4.6 4.3h-.8q-.8.3-1.5 1l-1.4.7c-.6.4-1.2 1-2 1-.7.2-1.5-.3-2.2-.1q-.8 0-1 .5c0 .6 1.2.4 1.6.8q.4.3.3.7c0 .5-.6.6-.9 1s-1 .8-.8 1.2q.5.9 1.7.7c.5-.2.6-1 1.2-1.2.4-.1.8.4 1.2.2q.3-.5.3-1.2.1-.6.5-1l1.3-.8c.2-.3 0-.8.3-1 .6-.4 1.4-.2 2-.3q1 .2 1.9-.3.5-.4.4-1-.7-1-2.1-1m10.7 2.6h-.3q-.5.7-.4 1.3c0 .5.6 1 .3 1.3-.5.6-1.6 0-2.4 0l-1.3.2-1.2.4q-.8.2-1.4.6l-1.8 1.1-1.5 1.3-1 .8q-1 .3-2.1.2c-1 0-2-.2-2.8.4q-.4.2-.3.7c.4.8 1.8.7 2.8.8.8 0 1.5-.4 2.3-.3l1.9.3q1.2.3 2.4.3.7.1 1.2-.4c.5-.4.4-1.2.7-1.7q.4-.8 1-1.5 1.2-.6 2.5-.6l1.7.2q.5 0 .8-.4c.3-.3.2-.9.5-1 .6-.5 1.4 0 2-.2q.5-.3.8-.9t0-1.2c-.4-.5-1.2-.1-1.8-.4l-1.7-.8zm15.4 5.3q-.6.2-1.2.7c-.6.3-1.2 1-1.9 1-.4 0-.7-.5-1-.4q-1.1.1-2 1-.4.6-1 1-.3.5-.9.6c-.6 0-1.1-.7-1.8-.7q-.5 0-.8.4-.5.7-.5 1.7.1.9.5 1.6.4 1 1 1.6.5.3 1 .2c.6-.2.9-1 1.4-1.5l1-.7c.8-.3 1.8.2 2.7 0q1.3-.1 2.4-.9.9-.6 1.6-1.7l1-1.9.2-.7v-.6c-.2-.3-.7 0-1 0l-.6-.7m-53 4.3q-.3 0-.5.2-.4.5 0 1.2.5.9 1.4 1.3 1 .2 2.3 0l1.7-.4h2q.5 0 .8.3l1.4 1.4a5 5 0 0 0 2 .6 6 6 0 0 0 2.2-.3l1.2-.7h2c.5 0 1 .3 1.4 0q.5-.4.2-1c-.3-.5-1.2.1-1.7 0l-.8-.6q-1-.1-2 .4-1.2.7-2.5 1-1.2.2-2-.4c-.2-.3.2-.8.2-1.2s.4-.7.2-.9c-.8-1-2.5.1-3.7.1l-3.1-.1-1.8-.7zm37 .8h-.3l-.8 1q-.6.6-1.3.8l-2.4.6h-3.2q-.5.6-.2 1c.7.9 2.1.2 3.2.1l3.1-.2h3.2c1 0 2 .3 2.9 0l.7-.4-.1-.7-.2-.4c-.4-.7-1.5 0-2.2-.3l-1.6-1.3zm10.6 15.4q-.6 0-1 .2l-1.2 1-1.4.5q-.7.2-1 .7.1.5.6.7c1 .4 2.3-.2 3.3-.5q1.1-.1 2.1-.7.5-.3.8-.7 0-.5-.4-.8-.3-.3-.7-.3zM489 366h-1.2q-.6 0-1 .3-.3.4 0 .9c.4.4 1.1 0 1.6 0q.8.1 1.3-.4.2-.2 0-.5-.2-.4-.7-.3" id="path19"/><path style="display:inline;fill:#fec70b;fill-opacity:1;stroke-width:0.622223;stroke-linecap:round;stroke-linejoin:round;stroke-miterlimit:6.7" d="M385 157.6a141 141 0 0 0-140.8 140.8A141 141 0 0 0 385 439.2a141 141 0 0 0 140.8-140.8A141 141 0 0 0 385 157.6m0 7.9a133 133 0 0 1 133 132.9 133 133 0 0 1-133 132.9 133 133 0 0 1-132.9-133 133 133 0 0 1 133-132.8" id="path20"/><g style="display:inline" id="g22" transform="translate(1 -128)"><path style="fill:#f7e47b;fill-opacity:1;stroke-width:0.6;stroke-linecap:round;stroke-linejoin:round;stroke-miterlimit:6.7" d="M302.4 515.3h-1c-.5 0-1.3-.2-1.4.3-.2.6 1 1 1.6 1.4q1.6 1.2 3.4 2.1l2.6 1.4q1 .7 1.7 1.7.4.4.6 1 .2 1-.3 2c-.5 1.2-1.6 2.1-2.4 3.1q-1.8 2.1-3.7 4l-2.1 1.7c-.5.3-2.2 1.6-2 2q.1.2.6.3c4 .9 8.1 0 12.2-.2 3.7-.1 7.3-.7 11-.7q2.3 0 4.4.3l6.1 1.8 7.5 1.9a88 88 0 0 0 11.4 1.8q4.7.4 9.5-.1c1.5-.2 4.4-1 4.4-1l.3-10.5q0-1 .6-2l1.4-1 1.7-.7 2.8-.5q2.5-.3 4.9-1 .8 0 1.1-.6.3-1-.4-2.1a3 3 0 0 0-1.4-1q-1-.5-2.3-.4-2.3-.2-4.5 0-2.7.2-5.2.7l-8.6 1a73 73 0 0 1-11.3.2 61 61 0 0 1-7-.8q-3.3-.6-6.7-1.7l-9.4-2.4q-2.7-.9-5.6-1.6l-5.4-.3h-6zm155.2 1.6-4.3.2A54 54 0 0 0 441 520l-5.3 2a46 46 0 0 1-16.4 2q-2.1 0-4.2-.4l-6-.9-4.4-.9-5.5-.6-3-.2c-2 0-4.2-.3-6.2.2-.8.2-2 .4-2.2 1.2q-.2.7.5 1.3c.7.7 1.8.6 2.7.8l4.2.5q1.4.3 2.6 1 .8.5 1.4 1.2c.3.5.5 1.8.5 1.8l.2 10 1.6.5 5.4.9q3 .4 6.2.6l6-.2A96 96 0 0 0 434 539l5-1.3a49 49 0 0 1 7.4-1.2l5.2.2 7.8 1 4.3.3c1.2 0 2.8.7 3.5-.3l-.2-.5q-.7-.9-1.7-1.4-2-1.3-3.8-2.8-1.7-1.6-3.3-3.4l-2-2q-.4-.7-.3-1.4.1-.8.5-1.4 1-1.1 2.3-2 1.8-1.6 3.7-2.7c.9-.6 2-.7 2.8-1.4q.4-.2.5-.6c-.3-.7-1.3-.5-2-.6a26 26 0 0 0-4.7-.6zM383.4 529c-2.6 0-5 .8-7.6 1l-7.4.7s-.3 8.9.1 13.3q0 1.2.5 2.3-.1.7.4 1 .7.4 1.5.3l3.4-.1 4.8-.9q1.8-.5 3.7-.8h2.6q1.8.2 3.5.6l5 1c.9.2 2 .8 2.8.4q.6-.5 1-1.2l.3-1.3c.6-4.9-.1-14.7-.1-14.7l-5.5-.4c-3-.3-6-1.2-9-1.2" id="path21"/><path style="font-weight:500;font-size:13.3333px;font-family:&quot;Big Caslon&quot;;-inkscape-font-specification:&quot;Big Caslon Medium&quot;;display:inline;fill:#7d421d;fill-opacity:1;stroke:#7d421d;stroke-width:0.6;stroke-linecap:round;stroke-linejoin:round;stroke-miterlimit:6.7;stroke-opacity:1" d="m326.2 500.7-1.5.4-1.3.8-.9 1.4a6 6 0 0 0-.4 2.4 5 5 0 0 0 1.3 3.6q1.3 1.3 3.3 1.3 2.1 0 3.4-1.3a5 5 0 0 0 1.3-3.6 5 5 0 0 0-1.3-3.7q-1.3-1.3-3.4-1.3zm121.3-7.5-2 .4-3.6 10.8 1.7-.4 1.1-3.1 3.6-.8 1 2.7 1.9-.4zm-112.2 8.4v10h1.7v-4.1h2.5l.7.2.4.3.3.4v2.6l.2.4.2.3h1.8l-.3-.7-.2-.6v-2.1l-.3-.6-.4-.5-.5-.3q.6-.4 1-1l.4-1.2q0-.6-.3-1l-.6-1-1-.7-1.4-.3zm-8.6.8q1.2 0 2 .8.6.8.7 2.4 0 1.7-.8 2.5-.6.8-1.9.8-1.1 0-1.9-.8t-.7-2.5.7-2.4 2-.8m115.4-7.7-8 2.3v1.4l3.1-.9v8.6l1.7-.5V497l3.2-.9zm-36.4 3.5v10h1.7v-4l2.3.1q.8 0 1.3-.2l1-.6q.5-.4.6-1l.3-1-.3-1.1-.6-1q-.3-.5-1-.7l-1.3-.4zM337 503l2.5.1.6.1.5.4q.3.2.3.5v1.2q0 .3-.3.5l-.5.3H337zm109.5-7.5 1.3 3.3-2.6.6zm-95.6 6.9-1.5.3q-.7.3-1.3.9l-.9 1.3a6 6 0 0 0-.4 2.4 5 5 0 0 0 1.3 3.6q1.3 1.3 3.3 1.4 2.1 0 3.4-1.3a5 5 0 0 0 1.3-3.6 5 5 0 0 0-1.3-3.7q-1.3-1.2-3.4-1.3zm64.6-4.3v10l6.5.2v-1.5l-4.8-.1V498zm12.4-.2-3.6 10.3 1.7-.1 1-3 3.7-.3 1 2.9 1.8-.2-3.6-9.7zm-20.5 1.8h1.9l.8.2.6.3.3.5.2.7-.1.6-.4.5-.5.3h-2.8zm-56 4.3q1.2 0 2 .9.6.8.7 2.4 0 1.7-.8 2.5-.6.8-1.9.8-1.1 0-1.9-.9-.7-.7-.7-2.4t.7-2.5 2-.8m77.5-4 1.2 3.4-2.5.2zm-50 7.4 3.6 5.8v4l1.7-.2v-4l3.6-6.2-2 .1-2.5 4.6-2.5-4.2zm-7 6v1.4l3.7-.2V513zm19.3-1.2v1.5l3.7-.3v-1.5z" transform="skewY(4)" id="path22"/></g></g><!-- app4joy -->
</svg>