<svg width="660" height="440" id="svg98" viewBox="0 0 660 440" xmlns="http://www.w3.org/2000/svg"><g id="g100"><path d="M0 440h660V0H0z" fill="#002a86" style="display:inline" id="path1"/></g><g fill="#efae0e" style="display:inline" id="g4"><path d="m336.4 74.9 10-7.4-12.8.1-3.8-11.4-3.6 11.3h-12.5l10.1 7.4-4 12.1 10.3-7.5 10.3 7.5zm-92 29.3 10-7.8-12.7.6-4.2-11.4-3.5 11.6-12.3.5 10 7-3.4 12.2 10.1-8 10.5 7.2zM189 189.6l12.9-1-11-6.7 2.9-11.7-9.2 7.9-11-6.5 5 11.5-9.7 8.2 12.7-1 4.6 11.8zm11.8 93.2 9.3-8.8-12.5 1.7-5.1-11-2.4 12-12.4 1.5 10.9 6.1-2.6 12.5 9.4-8.8 10.7 6.3zm64.8 65.4 2.2-12.5-9.4 8.9-10.7-5.7 5.5 11-9 8.6 12.3-1.6 5.4 11.5 2.4-12.7 12.5-1.6z" id="path2"/><path d="m302.3 78.6-1.5-.8-1.4-.7-3.2-.4-3 .2-2.3.6-3 .7-2.4.2 3.7-2 4.8-2.8 4.8-3.3 1.7-1.7 1.2-1.5 1 .2 1-.3.8-.6.5-.7.2-1.1-.2-1.1-.5-1-1-.5-1-.4-1 .2-.9.6-.7.9-.2 1 .2 1 .4 1 .7.7-.2.1-3 2.6-3.4 2.4-3.7 2-3.9 2-7.9 3.4-7.9 2.4 1.5-1 1.5-1 5.5-2.7 4.2-2.5 1.8-1.6 1.7-1.9 1.7-1.8 1-2.3 1.2-2.3.5-2.6-2.4.3-2 .6-2.2 1-1.9 1-3.6 2.6-3.2 3.1-2.7 3.3-2.2 3.3-1.7 3-1 2.2-.4.4-1-.4-.3-.7.1-1.1.4-1.3 1.1-3.2 1-3.2h.8l1-.4.7-.8.4-.9v-.9l-.4-1-.7-.7-1-.3h-1l-1 .3-.5.8-.4.9-.2 1 .4.7.4.5.7.5-1 3-1.2 3.3-1.7 3.5-1.6 2.8-8 4.7-.1-.7v-1l.7-2.5.7-1.3 1.3-1 2.6-2.1 1-1.3.7-2 .3-2.6V72l-.5 1-1.1.7-2.8 1.8-3 2.2L254 79l-1.1 1.7-.4 1 .2 1.6.6 1.4.9 1.9.3 1v1.2l-.2 2.4L252 93l-.8.6-.2.5.2.4.2.2 1.1.1 1.1-.5 3-1.8 2.4-.4h2.7l1.3.3 1.3.6 1 .7.8 1.1-.5 1-.2.9.2 1 .3 1 1 .7 1 .4 1.2-.2 1-.5.8-1 .4-1-.2-1.2-.6-.9-.7-.7-1-.4h-1l-1 .4-1.6-1.7-1.8-1.2-2-.6-2-.2 3.6-2.2 2-.4 1.9.2 2 .4 2 .9 2.8 1.7 3.5 1.4 1.8.6 1.9.2h2l1.8-.6 3.2-1.3 1-.3h1.3l-.9-1.3-1.6-1.5-3.3-3-2.3-.9-2.4-.3-2.3.2-2 .7-2.6 1-2.6.8-2.4.4-2.2-.6 3.3-1.6 2.6-1.3 8.6-3 2.2.2 2.4 1 2.2 1 2 1.5 3.2 1.7 3.1 1 3.3.3 3.3-.4 3-1 2.7-1.2 2.4-1.8 1.7-2.3-2.2.2-2.4-.3-2.4-.8zM222.8 124l-1.7.2-1.7.4-2.5 1.7-2.2 1.8-1.7 2-1.8 2.4-1.9 1.5 1.7-3.7 2.2-5.4 1.6-5.3.4-2.4v-1.8l1-.6.5-.9.4-1v-.8l-.6-1.1-.7-.8-1.1-.3-1.1.1-1 .4-.7 1-.4.8v1.2l.4.9.7.7 1 .4 1 .2v.1l-.8 4-1.3 4-1.7 4-1.8 3.9-4.3 7.5-4.6 6.7 1.3-3.7 2.6-5.5 1.6-4.3.4-2.4.4-2.6V125l-.4-2.5-.7-2.4-1.1-2.4-1.5 1.7-1.5 1.8-1 1.8-1 2-1.3 4.5-.5 4.4v4.2l.2 3.9.5 3.3.6 2.6-.2.5-1 .2-.7-.4-.5-.9-.6-1.3-.9-3.1-1.3-3.1.7-.6.4-1 .2-.8-.2-1-.7-.7-.8-.5-1-.2-1 .4-.7.5-.6 1-.1.8.3 1 .6.7.5.6.8.1h.9l1 2.8 1 3.5 1 3.7.1 3.3-3.1 8.6-.8-.5-.5-1-1-2.1-.1-1.7.4-1.6.7-3.2v-1.4l-.7-2-1.3-2.5-2.2-3v1.2l-.4 1.3-1 3.1-1 3.7-.2 1.8.2 1.9.3 1 1 1.2 1.4.9 1.9.7.9.6.7 1 1.3 2-.9 2.9v.9l.2.5.2.2h.3l1-.5.7-1.1 1-3.3 1.6-1.7 2.3-1.7 1.3-.5 1.3-.4h1.3l1.3.4v1l.5.9.8.7.9.5h1.3l.9-.3 1-1 .3-.9.2-1.3-.6-.9-.7-1-1.1-.5h-1l-1 .4-.8.5-.5 1-2.2-.4-2.2.2-2 .7-1.7 1.1 1.5-4 1.2-1.3 1.7-1.1 1.8-1 2.2-.5 3.2-.3 3.7-1 1.8-.7 1.6-1.1 1.5-1.1 1.1-1.7 1.7-2.7.7-1 1-.9-1.5-.3-2.2-.4-4.5-.2-2.2.6-2.2 1.3-1.8 1.6-1.1 1.7-1.3 2.5-1.7 2.3-1.6 1.4-2 1.1 1.4-3.3 1.3-2.6 5-7.7 2-1.1 2-.8 3-.5 2.2-.2 3.5-.5 3.1-1.1 2.8-1.9 2.4-2.2 2-2.5 1.3-2.8.7-2.8v-3l-1.6 1.7-2 1.1-2.5 1zM187 209l-1.3 1.2-.9 1.3-1.3 3-.5 2.7v5.5l-.6 2.4-.9-4-1.4-5.4-2-5.3-1.2-2.2-1-1.7.3-.9v-1l-.4-.9-.5-.7-1.1-.5H173l-1 .2-.9.7-.5 1v1l.3 1.1.8.8.7.5 1.1.2 1-.2.8-.7v.3l1.7 3.7 1.5 3.9 1 4 1 4.3 1.1 8.6.4 8.1-.9-1.5-.6-2-1-6-1.2-4.5-1.1-2.2-1.3-2.2-1.5-2-1.8-1.7-2-1.6-2.2-1.1-.4 2.2v2.2l.7 4.4 1.7 4.2 2.2 4 2.6 3.4 2.5 3 2.4 2.3 2 1.7v.5l-.5.8-.7.2-1.1-.4-1.1-.7-2.6-2-1.5-1-1.4-.7.1-1-.1-1-.6-.8-.7-.5-1-.4-.9.2-.9.5-.5.8-.4.9.2 1 .5.8.8.8.7.2h1l.6-.4.6-.6 2.6 1.7 3 2.2 2.9 2.4 2.2 2.4 2.5 8.8h-.7l-1-.3-2.1-1.3-1.1-1.1-.8-1.5-1.2-3-1.1-1.3-1.7-1-2.4-1.4-3.5-.7.6.7.5 1.3 1.1 3.2 1.3 3.5 1 1.6 1.2 1.3 1.1.7 1.3.2h1.7l2-.7h1l1.2.4 2.2.7 1 3 .6.7.4.4h.4l.3-.4.4-1-.2-1.2-1-3.1.3-2.4.7-2.8.6-1.3.9-1 1.1-.8 1.1-.4.7.7 1 .4 1 .2 1-.2 1-.7.6-1 .2-1-.3-1.2-.6-1-1-.6-1.2-.2-1.1.4-1 .5-.5.7-.2 1.1v1l-2 1-1.6 1.6-1.1 1.8-.8 1.8-1-4 .1-2 .7-1.9 1-1.6 1.2-1.9 2.4-2.2 2.3-3 1-1.6.8-1.8.4-1.9v-2l-.4-3.3-.2-1.1.4-1.3-1.5.7-2 1.1-3.5 2.4-1.5 1.9-1 2.2-.5 2.4.2 2.2.6 2.8v2.5l-.4 2.4-1.1 2-1.3-6.4-.7-9 .9-2.2 1.5-2 1.6-1.9 1.9-1.7 2.4-2.3 1.8-3 1-3.1.7-3.2v-3l-.8-3.2-1-2.6-1.7-2.4-.4 2.2-1 2.2-1.2 2.3zm23.8 89.3-.4 1.6.2 1.5.6 3.1 1.2 2.6 1.5 2 1.9 2.6.9 2-3.2-2.5-4.4-3.5-4.8-3.2-2-.9-2-.5-.2-1.1-.5-.8-1-.5-.9-.2-1 .2-1 .5-.7 1-.2 1 .2 1.2.5.7 1 .7 1 .2 1-.2.9-.3.5-.8.4-1 .4.1 3.5 1.9 3.5 2.3 3.3 2.6 3.3 3 6 6 5.2 6.3-1.8-.8-1.5-1.4-4.4-4-3.9-2.8-2-1.1-2.4-1-2.4-.5-2.4-.4h-2.6l-2.5.4 1 2 3 3.3 1.7 1.5 3.8 2.4 4 1.9 4.1 1 3.9 1 3.3.3 2.6.2.5.4v1l-.5.5-1.1.3h-1.3l-3.3.2-3.5.4-.4-1-.5-.7-1-.3h-.9l-1 .3-.6.8-.4.9-.2.9.6 1.1.5.6 1 .3 1 .2.8-.4.5-.5.6-.6.2-.9 3-.2h3.6l3.9.2 3 .6 7.4 5.3-.5.6-1.1.3-2.4.4-1.7-.4-1.4-.7-2.8-1.5-1.5-.3h-2.2l-2.5.5-3.4 1.3 1 .3 1 .6 2.8 2 3.3 1.9 1.7.7 1.8.4h1.3l1.1-.8 1.3-1 1.3-1.7 1-.6.8-.5 2.4-.6 2.6 1.5.7.4h.6l.4-.2.2-.4-.4-1-1-1-2.7-1.8-1.3-2-1-2.6-.1-1.5v-1.3l.4-1.3.7-1h2l1-.6.5-1 .4-1v-1.2l-.6-.9-.9-.7-1.1-.4h-1.1l-1.1.6-.7.9-.4 1 .2 1 .3 1 .8.7-1.1 2-.4 2.2v2.2l.7 1.8-3.5-2.5-.9-1.7-.5-1.8-.4-2 .2-2 .3-3.4v-3.7l-.1-2-.4-1.8-1-1.9-1-1.5-2.4-2.4-.7-.9-.4-1-1 1.2-.9 2-1.2 4.3-.2 2.2.7 2.4 1 2.2 1.4 1.6 2 2 1.7 2 1 2.3.5 2-2.8-2.2-2-2-6.1-6.8-.8-2.2v-2.6l.2-2.6.6-2.4.5-3.3-.3-3.5-1-3.1-1.4-2.8-2-2.5-2.4-2-2.4-1.5-2.8-.8 1.1 2 .6 2.3.1 2.5zm127.2 83h3.9l2.2-.5 2-1.1v-.4l-.3-.5-2.6-1-3.9-1.4-2.2-1.1-2.4-1.3-3.5-1.9-2.4-.7-1.6-.6-1-.5-1-1.1-2-3-1.6-3.6-.2-1.7v-1.5l1-.3.7-.8.6-.9.1-.9-.3-1.1-.6-1-.9-.7-1.3-.1-1 .3-1 .8-.6.9-.1 1 .1 1.2.6.7 1 .8.8.1.2 3 .7 3.7 1.1 3 .8 1.4.7.7-4.2-.4-1.7-.9-1.4-1.3-1.5-1.4-1-2-1.2-3-2-3.3-1.1-1.5-1.5-1.3-1.5-1-1.8-.8-3.3-.8-1-.5-1-.7v1.6l.3 2.2 1 4.3 1 2 1.9 1.8 2 1.3 2 .6 2.8.5 2.4 1.1 2 1.1 1.7 1.7-3.7-.6-2.8-.5-8.8-2.8-1.7-1.5-1.3-2.2-1-2.2-1-2.2-1.3-3.3-2-2.6-2.6-2.2-2.7-1.8-3-1.1-3-.6-2.9.2-2.7.8 1.8 1 1.8 1.7 1.5 2 1 2.4.7 1.7.7 1.3 2.2 2.2 2.6 1.6 2.2 1 2.8 1 2 1.5-4.4-.6-5.4-.7-5.5-.2-2.4.2-2 .6-.7-.8-1-.3h-.9l-1 .3-.8.8-.4.9-.2 1.1.4 1 .7.9 1 .5h1l1.1-.4.8-.5.5-1 .2-1-.4-1h.4l4-.1 4.1.1 4.3.4 4.4.7 8.2 2.3 7.8 2.5-3.9-.2-6-1-4.7-.4-2.3.1-2.4.4-2.4.8-2.4.9-2.2 1.3-1.9 1.6 2 1.1 2 1 2.3.5 2.2.4h4.4l4.4-.6 4.3-1.1 3.6-1.3 3-1.5 2.4-1h.5l.6.9-.2.7-.7.7-1.2 1-2.9 1.6-1.3 1-1.3 1-.7-.5-1-.2-1 .2-.8.5-.5.8-.4.9.2 1 .6.8.7.8 1 .2 1-.2.7-.6.6-.5.4-.8v-.9l-.2-.7 2.4-1.9 3.1-1.8 3.3-1.9 3-1h2.5l2.4.5 2.2.5 2.2.4 1.3.2 1.5.6 3 1.8 2.7 2zm77.5-276.9-9.7-7.7 12.5.4 4.2-11.3 3.5 11.6 12.5.6-10.3 6.8 3.5 12.3-10.1-7.9-10.5 7zm55 85.3-12.4-1.1 10.8-6.5-2.7-11.8 9.3 8 10.7-6.5-4.8 11.4 9.8 8.3-12.9-1-4.8 11.5zM459 282.9l-9.2-8.6 12.3 1.6 5.2-11 2.5 12 12.6 1.6-11 6 2.5 12.6-9.4-8.8-11 6zm-64.6 65.4-2.3-12.4 9 8.9 11-5.7-5.2 11 8.6 8.7L403 357l-5 11.5-2.5-12.6-12.5-1.6z" id="path3"/><path d="m357.7 79 1.5-1 1.5-.5 3-.4 3 .2 2.4.5 3 .8h2.4l-3.7-1.9L366 74l-4.6-3.3-1.8-1.7-1.3-1.5h-1l-.9-.2-.9-.5-.5-1-.2-1 .2-1 .5-.9 1-.7 1-.2 1.1.2 1 .6.5.9.2 1v1l-.6.9-.7.5.2.2 3.1 2.6 3.3 2.4 3.7 2.2 3.9 2 8 3.4 7.8 2.3-1.5-1-1.8-1.2-5.3-2.5-4.1-2.6-1.8-1.5-1.7-1.8-1.5-2-1.2-2-1-2.5-.5-2.6 2.2.4 2.2.6 2 .7 2 1.1 3.7 2.8 3.1 3 2.6 3.4 2.2 3.1 1.7 3 1 2.4.6.1 1-.3.1-.8v-.9l-.3-1.3-1.3-3-1-3.4h-.9l-.9-.3-.5-.8-.4-1v-.8l.4-1 .5-.7 1.1-.4h1l.9.4.7.7.4 1v.7l-.2 1-.6.5-.5.5.7 3 1.5 3.3L395 83l1.8 2.7 7.7 4.8.2-1v-.8l-.7-2.4-.7-1.3-1.3-1-2.4-2-1-1.3-.9-2-.3-2.8v-3.5l.7.7 1 1 2.7 1.8L405 78l1.3 1.3 1 1.6.3 1.1v1.5L407 85l-1 1.8-.4 1V89l.3 2.3 2.4 1.8.6.7.2.6v.3l-.4.2-1.1.2-1.1-.5-2.8-1.9-2.4-.4h-2.7l-1.5.4-1.3.6-1 .7-.8 1.1.5 1 .2.8V98l-.5 1-1 .7-1 .2H391l-1-.6-.8-.9-.2-1v-1.2l.6-1.1.9-.5.9-.4h1l1 .4 1.5-1.7 1.8-1.3 2-.7h2l-3.6-2.4-1.8-.2-2 .2-2 .4-2 .9-2.9 1.6-3.3 1.5-2 .5-1.8.2h-2l-2-.5-2.9-1.3-1-.4H370l.9-1.3 1.6-1.6 3.3-2.8 2-.9 2.5-.4 2.5.2 1.9.7 2.6 1.2 2.5.7 2.4.2 2.2-.4-3.3-1.8-2.6-1.1-8.4-3-2.4.2-2.4 1-2.2 1-2 1.3-3 1.8-3.3 1-3.3.1-3.1-.1-3.2-1-2.7-1.4-2.2-1.7-1.9-2.2 2.4.2 2.2-.4 2.4-.7zm79.6 45.5 1.8.2 1.5.3 2.7 1.5 2.2 2 1.5 2 1.8 2.5 1.9 1.4-1.7-3.8-2-5.2-1.8-5.3-.4-2.4v-2l-1-.6-.5-.7-.3-1 .1-.9.4-1 1-.8.8-.4h1.1l1.2.6.7.7.3 1.1-.1 1.1-.4 1-.7.7-1 .3h-.9v.4l1 3.9 1 4 1.7 4 1.8 4 4.3 7.3 4.8 6.8-1.3-3.7-2.8-5.5-1.5-4.4-.5-2.4-.4-2.4v-2.4l.4-2.6.7-2.4 1.1-2.3 1.7 1.6 1.3 1.9 1 1.8 1 2 1.3 4.4.5 4.4.2 4.3-.3 3.8-.4 3.4-.8 2.5.4.6 1 .2.7-.4.5-1 .4-1.2.9-3.1 1.3-3.2-.7-.7-.4-.7-.2-1 .4-.9.5-.9 1-.3.9-.2.9.2 1 .7.3.7.2 1.1-.2 1-.6.7-.7.3-.8.4-.7-.2-1 3-1.2 3.5-.7 3.7-.4 3.3 3.1 8.4.8-.3.5-1 1-2.3.1-1.5-.1-1.7-.8-3.1v-1.6l.6-2 1.2-2.5 2.3-2.7v1l.3 1.4 1.1 3 1 3.6.1 2v1.8l-.5 1.1-1 1.2-1.2.7-2 .9-.8.6-1 .9-1 2 .7 3v1.2l-.4.4h-.3l-1-.5-.5-1.2-1-3.3-1.7-1.6-2.3-1.7-1.2-.7-1.3-.2-1.5-.2-1.3.6v.9l-.3 1-.8.6-1 .4-1.2.2-1-.6-.8-.7-.6-1V159l.4-1.1.7-.7 1.1-.6h1.1l1 .4.7.5.5 1 2.4-.4 2.2.2 2 .7 1.7 1.1-1.6-4-1.3-1.3-1.7-1.3-1.8-.7-2-.6-3.4-.4-3.5-1-1.8-.8-1.7-1-1.4-1-1.3-1.7-1.7-3-.5-.8-1.1-.8 1.4-.4 2.4-.3 4.3-.2 2.4.5 2 1.4 1.8 1.6 1.3 1.6 1.3 2.6 1.5 2 1.8 1.7 1.9 1.1-1.5-3.5-1.3-2.4-5-7.7-2-1.3-2.4-.7-2.4-.4-2.4-.2-3.5-.5-3.1-1.1-2.8-1.9-2.4-2.2-1.8-2.6-1.3-2.7-.7-3v-2.7l1.6 1.4 2 1.3 2.5 1zm35.9 84.9 1 1.3 1 1.2 1.3 2.8.5 3 .2 2.5v3l.5 2.2 1-3.9 1.4-5.5 1.9-5.3 1-2 1.2-1.7-.4-1v-.9l.4-.9.7-.9 1-.4 1-.1 1.1.3.8.7.5 1v1l-.2 1.2-.7.7-1 .6-.8.1-1.1-.3-.8-.6-.2.2-1.6 3.7-1.5 4-1 4-1 4.3-1.1 8.7-.4 8 .8-1.6.5-2 1.3-5.9 1.3-4.6.9-2.2 1.3-2 1.6-2 1.7-1.9 2-1.5 2.4-1.2.2 2.4v2.2l-.2 2.1-.5 2.3-1.7 4.2-2.2 3.9-2.4 3.4-2.6 3-2.4 2.4-2 1.5-.2.7.6.7h.9l1-.3 1-.8 2.8-1.8 1.5-1.1 1.4-.7-.3-1 .2-.9.5-.7.7-.6 1-.4 1 .3.8.3.7 1 .2.8-.2 1-.3.9-1 .5-.7.4h-.7l-.8-.4-.7-.5-2.6 1.7-3 2.2-2.7 2.3-2.4 2.4-2.6 8.9h1l.9-.4 2.2-1.3 1-1 .8-1.5 1.1-3 1.1-1.3 1.7-1.3 2.6-1 3.5-.8-.8.7-.5 1.3-1 3.1-1.4 3.6-1 1.4-1.2 1.5-1 .5-1.4.4-1.7-.2-2-.5h-.9l-1.3.1-2.2 1-1.1 3-.4.5-.5.3h-.4l-.4-.1-.3-1 .2-1.3 1-3.3-.1-2.2-.8-2.7-.7-1.3-1-1.1-.8-.8-1.3-.5-.8.9-.9.4-.9.2-1-.4-1-.6-.6-.9-.1-1.3.1-1 .8-1 .9-.5 1.1-.2 1 .2 1 .7.6.7.3 1.1-.2 1 2 1 1.7 1.5 1.1 1.9.8 1.8 1.3-4.2-.4-1.9-.6-1.8-.9-1.8-1.5-1.7-2.2-2.2-2.4-3-.9-1.8-.7-1.6-.6-1.9v-2l.6-3.3v-1.1l-.4-1.3 1.5.5 2 1.2 3.5 2.5 1.5 1.8 1 2.3.5 2.3-.2 2-.4 3-.2 2.6.6 2.4.7 2 1-3.7.5-2.7.7-9-.9-2.2-1.5-2-1.6-2.1-1.9-1.5-2.4-2.5-1.8-2.8-1.1-3.1-.5-3.2.1-3.3.6-3 1-2.7 1.7-2.2.6 2.2.7 2.2 1.5 2zm-23.7 89.3.2 1.6v1.7l-.7 3.1-1.3 2.6-1.5 2-1.9 2.4-.9 2.2 3.2-2.5 4.4-3.6 4.8-3.1 2.2-1 1.8-.6.4-1 .5-.7.8-.5 1-.2 1.2.2.9.5.5.7.2 1.1-.2 1.1-.5 1-1 .7-.8.2-1.2-.2-.9-.6-.5-.7-.4-.9-.2.2-3.5 1.8-3.5 2.4-3.5 2.6-3.3 2.8-5.9 6.2-5.3 6.3 3.3-2.2 4.6-4.1 3.7-2.8 2.2-1 2.2-1 2.4-.7 2.6-.4h2.4l2.5.6-1 1.8-1.4 1.9-1.6 1.6-1.7 1.5-3.8 2.4-4 1.6-4.1 1.3-3.9 1-3.3.3H433l-.4.6v.9l.6.5 1 .4h4.7l3.3.3.4-.7.7-.7 1-.4h.9l.9.4.7.7.4 1v.9l-.4.9-.7.7-1 .4h-.9l-.9-.2-.5-.6-.4-.7-.2-.7-3.1-.4h-3.7l-3.7.4-3.3.5-7.3 5.4.7.5 1 .4 2.5.2 1.5-.2 1.4-.8 2.8-1.6 1.6-.4h2l2.8.8 3.3 1.2-1 .4-1.2.6-2.7 1.8-3.2 2-1.8.8-1.7.3-1.2-.2-1.3-.5-1.3-1.1-1.3-1.7-.7-.5-1.1-.6-2.2-.5-2.8 1.5-.7.3h-.6l-.4-.2v-.3l.2-1.1 1-1 2.7-1.8 1.3-2 1-2.8.3-1.3v-1.4l-.4-1.3-.7-1.1-1.1.2-1-.2-.9-.4-.7-1-.4-1 .2-1.1.6-1 .7-.8 1.1-.2h1.3l1 .5.6 1 .4.9v1l-.4 1-.7.7 1 2 .5 2.2-.2 2.2-.7 1.9 3.5-2.6.9-1.6.7-1.9.2-2v-2.2l-.4-3.1-.1-4 .1-1.8.6-1.8.7-1.8 1.1-1.5 2.4-2.4.7-.9.6-1.3.7 1.5 1 2 1.4 4.2v2.3l-.5 2.3-1.1 2.2-1.3 1.7-2.2 1.8-1.7 2.3-1.1 2.2-.3 2 2.9-2.4 2-1.8 6.1-6.9.6-2.4V314l-.2-2.6-.6-2.4-.3-3.5.1-3.3 1.1-3.1 1.5-3 1.8-2.4 2.4-2 2.6-1.5 2.6-1-1 2.1-.7 2.4v2.4zm-127.4 83-1.7.2h-2.2l-2.2-.6-1.8-1.3-.2-.3.5-.4 2.4-.9 4-1.5 2.3-1 2.2-1.6 3.7-1.6 2.2-1 1.6-.3 1.2-.5.9-1.1 2-3.2 1.5-3.5.3-1.6-.1-1.5-1-.4-.7-.7-.5-1-.2-1 .3-1.1.8-1 .9-.5 1-.2 1.2.4 1 .5.5 1.1.2 1.2-.2 1-.6.8-1 .7-.8.2-.2 3-.6 3.4-1.2 3.4-.6 1.2-1 .8 4.5-.4 1.7-.9 1.4-1.3 1.3-1.6 1.1-1.9 1.3-3 1.8-3.3 1.2-1.4 1.4-1.5 1.7-.9 1.6-.7 3.3-1 1.1-.3 1.2-.8-.2 1.7-.2 2.2-1.1 4.2-1.1 2-1.7 1.7-2.2 1.5-1.8.5-2.8.6-2.6.9-2 1.3-1.5 1.6 3.7-.5 2.8-.5 8.6-2.8 1.7-1.7 1.5-2 1-2.2.8-2.4 1.5-3.1 2-2.8 2.4-2.2 2.8-1.7 2.9-1 3.1-.6 3 .2 2.6.7-1.9 1.1-1.6 1.7-1.5 2-1.1 2.4-.6 1.5-.9 1.4-2.2 2.2-2.4 1.5-2.4 1.1-2.7 1.1-1.9 1.3 4-.5 5.6-.6 5.7-.2 2.4.2 1.8.6.8-.8.9-.4h.9l1.1.2.7.8.6 1v1.2l-.4.9-.7 1-1 .3-1 .2-1.1-.4-.8-.7-.3-.8-.2-1 .2-1h-.2l-4-.2h-4.3l-4.2.6-4.3.7-8.4 2-7.8 2.8 4-.2 6-1 4.6-.4 2.4.1 2.5.4 2.4.5 2.2 1.1 2.3 1.3 2 1.7-2 1.1-2.3 1-2 .5-2.2.3h-4.6l-4.4-.5-4-1.1-3.7-1.3-3.2-1.5-2.2-1.3-.5.2-.6.7.2 1 .7.7 1.1.7 2.8 1.9 1.5.9 1.3 1.1.7-.6 1-.1.8.1 1 .6.5.7-.1 1 .1.9-.4.9-.9.6-.9.3-1-.2-.8-.5-.6-.6-.2-.9v-.7l.2-.7-2.4-1.9-3.1-2-3.3-1.7-3.2-1h-2.5l-2.4.5-2.2.5-2 .2-1.5.3-1.3.6-3 1.7-2.9 2.2z" id="path4"/></g><g style="display:inline" id="g11"><g fill="#efae0e" style="display:inline" id="g9"><path d="m286.8 317-4.7-2 2.6 4.5-3.5 4 5.1-1.2 2.7 4.6.5-5.3 5.1-1.2-4.8-2 .5-5.3zm86.5.2 4.6-2-2.5 4.4 3.4 4-5-1.2-2.7 4.6-.5-5.3-5.2-1.2 4.9-2-.5-5.3z" id="path5"/><g stroke-width="1.465" id="g6"><path d="M329.7 110a2 2 0 0 0-2 2c0 1 1 1.9 2 1.9a2 2 0 0 0 0-4m-81.3 37.6a2 2 0 0 0-2 2 2 2 0 1 0 4 0 2 2 0 0 0-2-2m-24.9 52.3a2 2 0 0 0 0 3.9 2 2 0 0 0 0-3.9m3 49.3a2 2 0 0 0-1.9 2q.2 1.7 2 1.9a2 2 0 0 0 1.9-2 2 2 0 0 0-2-1.9m153.1-127.3a2 2 0 0 1 2 2 2 2 0 1 1-2-2M303 322l-2.5-.6.4-1.4 1.4.2q.6 0 1.1-.3t.6-.6l.2-.4 1.7.4-2.8 10.5-2-.5zm21.4 0v1.6q-.6.4-1.5 1.6l-1.5 2.5a14 14 0 0 0-1.4 4.8l-2.2-.1q.3-3 2.2-6 1.2-2 2-2.7l-5.3-.2v-1.9zm16.8.2v1.7l-1.3 1.7-1.4 2.5a15 15 0 0 0-1.2 4.9H335q0-3 1.9-6.1 1.1-2 2-2.7h-5.4v-2zm15.4-2q-1-.7-2.5-.6-1 0-1.7.6l-1 1.4q-.5 1-.6 2.4l.1 2a7 7 0 0 0 1.1 3.4q1.1 1.5 3.2 1.4 1.9-.2 2.7-1.5.8-1.2.6-2.7t-1.2-2.4q-1-1-2.4-.8l-1.2.4q-.5.3-.8.8l.1-2q.3-1.2 1.4-1.3.7 0 1 .4l.3.6 2.1-.2a3 3 0 0 0-1.2-2m-96-19-1.4-1.7q.5-.6.5-1 .2-1-.7-2l-1-.8q-1-.5-1.7.2a1 1 0 0 0-.3.9l.7 1.5.6 1q.8 1.5 1 2.3 0 1.4-1 2.5-1.2 1-2.6.8-1.5 0-2.9-1.7a5 5 0 0 1-1.3-2.8q0-1.6 1.1-2.7l1.5 1.6q-.7.7-.4 1.6 0 .6.7 1.2t1.2.8q.7 0 1-.3.6-.4.4-1l-.7-1.4-.9-1.7a5 5 0 0 1-.7-2q0-1.1 1-2.2 1.1-1 2.7-.8 1.5.2 2.9 1.7 1.5 1.7 1.5 3.2.1 1.6-1.1 2.8" id="path6"/></g><path d="m243.1 286 1.5-1.3 3.4 4.2 2.2-1.8-4-4.7 1.6-1.3 5.3 6.4-8.4 7-5.2-6.1 1.5-1.3 3.7 4.5 1.8-1.5zm-3.5-17.3-7.2 9.1 1.4 2.2 11.4-2.5-1.3-2-2.3.5-2.2-3.4 1.5-1.8zM233 258l1.9-.8 3 7.2-10.1 4.3-1-2.1 8.4-3.6zm-1-67.7-.6 2.2-8.8-2.1-.8 3.2-1.9-.5 2.1-8.7 2 .5-.9 3.2zm-2.7-12.5 1.7-4-3.9-1.6 1-2.1 10 4.3-.9 2.1-4.5-2-1.7 4 4.6 2-1 2-10-4.3.8-2zm10-18.7 1.7 1-2.9 4.6 2.4 1.5 3.2-5.2 1.7 1.1-4.5 7-9.2-5.9 4.3-6.8 1.6 1-3 5 1.9 1.2zm18.5-16.2 1.6-1.5q.6.5 1 .5 1 .1 2-.8l.8-1q.4-1-.2-1.6a1 1 0 0 0-1-.3l-1.4.7-1 .6q-1.5 1-2.3 1-1.4.2-2.5-1-1-1.1-.9-2.5.2-1.5 1.7-2.9 1.2-1.2 2.8-1.4 1.5 0 2.7 1.1l-1.6 1.5q-.7-.6-1.6-.4-.5.1-1.1.7t-.8 1.2.3 1.1 1 .3l1.3-.6 1.7-1q1-.7 2-.7 1.2-.1 2.2 1 1 1 .9 2.6-.2 1.5-1.7 3t-3.2 1.5-2.7-1m18.4-10.6-1.9 1.3-5-7.6-2.7 1.8-1.1-1.6 7.4-5 1.1 1.7-2.7 1.8zm15.7-8.1-8.2-8.4-2.4 1.1 1.1 11.7 2.2-1-.3-2.4 3.7-1.7 1.6 1.7zm10.3-3.2-2.3.6-2.4-8.8-3.2 1-.5-2 8.6-2.4.5 2-3.2.8zm14.8-9.8.2 1.9-5.2.8.4 2.8 6-1 .3 2-8.2 1.3-1.7-11 8-1.2.3 2-5.8.9.4 2.3zm29.5-4.1q-2.4 0-3.7 1.2-1.7 1.5-1.8 4.4 0 3 1.5 4.7 1.2 1.2 3.6 1.4 2.3 0 3.6-1.2 1.8-1.5 1.8-4.5t-1.5-4.6q-1.2-1.4-3.5-1.4m-.1 2q1.3 0 2.1 1t.7 3q0 1.8-.9 2.8t-2.2.9-2.1-1q-.8-1.1-.7-3 0-1.8.9-2.8t2.2-1m20.7 3.3-.7 1.8-5.2-1.7-.8 2.4 4.6 1.5-.6 1.8-4.6-1.5-1.5 4.4-2.1-.7 3.5-10.5zm28.8 14.5-1.5 8.7 4.9-6 1.6 1.4-7 8.5-1.7-1.4 1.4-9-4.9 6.1-1.6-1.3 6.9-8.6zm14.8 18.8-1.3 1.4-3.8-3.8-2 2 4.3 4.3-1.4 1.4-5.9-6 7.8-7.7 5.7 5.7-1.4 1.4-4.1-4.1-1.7 1.6zM420 159l1.5-1.5-2 .9-6 2.6-1.2-1.8 7.2-8.9 1.4 2-4.3 4.8-1.3 1.3 1.6-.7 6-2.6 1.3 2-4.4 4.7-1.3 1.2 1.6-.6 6-2.5 1.4 2-10.8 3.7-1.3-1.8zm14.1 28.3 1.1 4.1 4-1 .7 2.1-10.6 3-.6-2.3 4.7-1.3-1.1-4.1-4.8 1.3-.6-2.2 10.6-3 .7 2.3z" id="path7"/><g stroke-width="1.465" id="g8"><path d="m430.6 200.2.4 2.4 2.3.4.6 4-2.1 1 .3 2.5 10.3-5.5-.3-2.5zm4.7 3.1 4.4.8-4 2zm-.6 17.2 8.6 2v3.3h-11v-2.2h9.2l-9.2-2v-2.3l9.2-2h-9.2V215h11v3.4zM432 232l-.3 2.3 4 .5-.4 2.3q-.2 1.8.4 3 .8.9 2.6 1.3 1.8.3 2.8-.7.9-.8 1.2-2.5l.6-4.7zm5.5 3 3.2.5-.3 2.1q0 .8-.5 1.2t-1.3.3-1.2-.6a2 2 0 0 1-.2-1.3zm-4.7 11.3-.7 2-1.1.1q-.9.3-1.3 1.7l-.2 1.3q0 1 1 1.3a1 1 0 0 0 .9-.2l1-1.3.5-1q.9-1.5 1.5-2 1-.9 2.6-.4 1.5.4 2 1.8.7 1.3 0 3.3-.5 1.6-1.7 2.5-1.3 1-3 .5l.7-2.1q1 .2 1.6-.5.4-.3.7-1.1t0-1.5a1 1 0 0 0-.7-.8 1 1 0 0 0-1 .2l-1 1.3-1 1.6a5 5 0 0 1-1.2 1.6q-1 .7-2.5.3-1.4-.5-2-2-.6-1.3 0-3.3.5-2.1 2-3 1.2-.9 3-.3" id="path8"/></g><path d="m430 264-1.8 4 3.8 1.7-1 2-10-4.5 1-2.1 4.5 2 1.8-3.9-4.5-2 1-2.1 10 4.6-1 2zm-4.1 16-9.4-5.8 1.2-2 9.4 5.8zm-3.6 6.2-8.6-6.8-1.4 1.8 3.4 2.7-1.5 1.8q-.6.9-1.1 1t-1.3-.7l-.9-.6-.8-.5-.5-.2-1.6 2 .2.1h.8l.8.7.6.4q.9.8 1.5.8.8.1 1.4-.3-.3 1 0 1.7a3 3 0 0 0 3.1 2q.7 0 1.3-.4.6-.3 1.3-1.2zM403.7 301l-1.4-1.4 3.9-3.7-2-2-4.4 4.2-1.3-1.4 6-5.8 7.6 7.9-5.8 5.6-1.3-1.4 4.1-4-1.6-1.7zM218 228.8q-1.4 1.2-1.2 3.6 0 2.4 1.4 3.6 1.5 1.6 4.5 1.6t4.5-1.8q1.4-1.3 1.2-3.7 0-2.4-1.4-3.6-1.6-1.6-4.5-1.5-3 0-4.5 1.8m-1.4-16h2v5.6h2.4v-4.8h2v4.8h4.6v2.3h-11z" id="path9"/></g><g fill="#002a86" style="display:inline" id="g10"><path d="M353.7 325.6q.3-.3.9-.4t1.2.4q.4.4.6 1.4 0 .8-.3 1.4t-1 .6a2 2 0 0 1-1.3-.4q-.4-.5-.6-1.4-.1-1 .5-1.6m-114-49.1-4.5 1.1 3-3.5zM284 123.4l-.6-4.5 3.1 3.3zm133 166.3q-.7.3-1.5-.3-.7-.6-.6-1.3l.6-1 1.6-2.1 2.3 1.8-1.6 2.1q-.5.6-.9.8m-191.3-55.3q-1 .8-2.8.9-1.9 0-2.9-.8-1-.7-1-2.1t.9-2.2q1-.9 2.8-.9 1.9 0 3 .7 1 .8 1 2.2 0 1.3-1 2.2" id="path10"/></g></g><g id="g99" style="display:inline"><path d="M480 54.3h558a294 294 0 0 0-78.5-196 264 264 0 0 0-201.7-83.5c-66 2.6-131.4 25-180.4 67.3A287 287 0 0 0 480 54.3z" fill="#ffffff" style="display:inline;stroke:#000000" transform="translate(69.2 201.7)scale(.34334)" id="path11"/><g style="display:inline" id="g98"><path style="display:inline;fill:#946922;fill-opacity:1;fill-rule:evenodd;stroke:none;stroke-width:3.5;stroke-linecap:round;stroke-linejoin:round;stroke-miterlimit:6.3;stroke-dasharray:none;stroke-opacity:1" d="m1079 112.1 108.9-1.5L1149 224l-36.8 62.4L747 323.8l-539-1-68.8 19.8L79.8 239 39.4 129.5l-7.1-48 370.2 16.3Z" transform="translate(229.4 220.5)scale(.16463)" id="path12"/><path d="M725 273.8c-12 4.7-184.8 24.7-210 36.5-8.3-4.7-38 31.2-55.1 12-42.5 7.3-106.4 25.5-154.1 19-42.2-5.6-112.4 17.8-152.2 13.5 104 130.2 278 221 457.5 225 209 4.4 436.2-123.8 516.6-314.4.6-1-91.9-8.9-119.6-7.8 0 0-271.3 11.4-283.2 16.2" fill="#4f9eff" style="display:inline" transform="translate(229.4 220.5)scale(.16463)" id="path13"/><path style="display:inline;fill:#efae0e;fill-opacity:1;fill-rule:evenodd;stroke-width:0.868219;stroke-miterlimit:6.3" d="M541.3-.3a70 70 0 0 1 70.6-69 70 70 0 0 1 69 70.6L611 .5Z" transform="translate(229.4 220.5)scale(.16463)" id="path14"/><path style="display:inline;fill:none;fill-opacity:1;fill-rule:evenodd;stroke:#000000;stroke-width:3.5;stroke-linecap:round;stroke-linejoin:round;stroke-miterlimit:6.3;stroke-dasharray:none;stroke-opacity:1" d="M913.2 27.1 907-119.3l-1 27.9-.8 27.4-3 91z" transform="translate(229.4 220.5)scale(.16463)" id="path15"/><path style="display:inline;fill:#2a1510;fill-opacity:1;fill-rule:evenodd;stroke:#000000;stroke-width:4;stroke-linecap:round;stroke-linejoin:round;stroke-miterlimit:6.3;stroke-dasharray:none;stroke-opacity:1" d="m891.7-121.8-163 86.6" transform="translate(229.4 220.5)scale(.16463)" id="path16"/><g style="display:inline;fill:#efae0e;fill-opacity:1" id="g17"><path style="fill:#efae0e;fill-opacity:1;fill-rule:evenodd;stroke-width:0.611;stroke-miterlimit:6.3" d="m858.9 754.8 139-41c4 4.5 8 10.5 5.4 20.8L860.4 763zm-8.5-17.2 22.8-16c2.7 3.2 2.4 7.6.3 12.7L854 746.6zm-15.2-18.1 111-101.2c7.7 2.7 13.7 7.2 16.6 14.8l-121 94.7Zm30.7-75.6-47.3 64.8 9.4 5.7 51-59.3c-2.4-5.7-6-10.2-13-11.2m-6.5-103L799.8 701l11.2 5 69.8-159c-6.5-4.4-13-8.5-21.4-6.2m-71.2 72.3L775.9 696l11.2 1.4 17.7-82.4c-6.8-4.5-11.6-2.9-16.6-1.8m-48.4-93.6 9 181.5 14.5-3.3 3.2-180c-8.5-.4-15.6-3.2-26.7 1.8M704 615.7l24.2 93 11.6-6.6-22.5-89.3q-8.9-2.8-13.3 3m-55.7-74.4L719.5 713l-5.4 5.4-85.3-165.2c4.6-7.1 12-9.6 19.5-12m-5 96.1 63.2 88.2-5.8 6.6-69.8-86.5c3.5-6.5 7.9-7.4 12.3-8.3m-84-15.9 138.9 116-4 6.2L536.8 633c5.9-6 13.7-9.4 22.4-11.6m19.6 71.2q-7.1 5.7-7 12.7l114.3 53.5 3.3-7.2zm-71 22.8a34 34 0 0 0-3.5 21.7L682.2 774l2.5-6.9z" transform="translate(202.7 92.7)scale(.16463)" id="path17"/></g><path d="M37.2 101.2c156.6 25.6 881.3 65.4 915.1 59.3 12.2-2.3 29.7 2 38.6 3.3 20.5 2.7 37.6.5 59-6.1 19.3-6 96.8-17.5 125-18.3 12.6-47 19.9-91.4 19.9-142.4 0 0-1183.3 0-1165.4.6" fill="#4f9eff" style="display:inline;stroke:#000000;stroke-width:2;stroke-dasharray:none;stroke-opacity:1" transform="translate(229.4 220.5)scale(.16463)" id="path18"/><g style="display:inline" id="g28"><path style="fill:none;fill-opacity:1;fill-rule:evenodd;stroke:#000000;stroke-width:3.5;stroke-linecap:round;stroke-linejoin:round;stroke-miterlimit:6.3;stroke-dasharray:none;stroke-opacity:1" d="m901.7 834.8 1.2-19.1 18.1.5-.7-16.6-16.8.7.7-17.6 15.5.6-.5-11.6-14.6-.5.6-17 13.3-.5-.6-14-12.2 1.2.4-12.4 10.5.4-.8-17.7-9-.4.7-17 8.3.4-.7-19.5-6.9-.4.4-13.5 6-.2-.9-14.3h-4.2" transform="translate(202.7 92.7)scale(.16463)" id="path19"/><path style="display:inline;fill:#2a1510;fill-opacity:1;fill-rule:evenodd;stroke:#000000;stroke-width:4;stroke-linecap:round;stroke-linejoin:round;stroke-miterlimit:6.3;stroke-dasharray:none;stroke-opacity:1" d="m601.8 586.5-231 146.7" transform="translate(202.7 92.7)scale(.16463)" id="path20"/><path style="fill:none;fill-opacity:1;fill-rule:evenodd;stroke:#000000;stroke-width:3.5;stroke-linecap:round;stroke-linejoin:round;stroke-miterlimit:6.3;stroke-dasharray:none;stroke-opacity:1" d="m902.5 830.5 9-249.5 10.1 250.6zm38 6.9L911.8 582l48.4 252z" transform="translate(202.7 92.7)scale(.16463)" id="path21"/><path style="fill:none;fill-opacity:1;fill-rule:evenodd;stroke:#000000;stroke-width:3.5;stroke-linecap:round;stroke-linejoin:round;stroke-miterlimit:6.3;stroke-dasharray:none;stroke-opacity:1" d="m913.2 576.4 82.9 264.9-29.7-.6-8.2-12.2z" transform="translate(202.7 92.7)scale(.16463)" id="path22"/><path style="fill:none;fill-opacity:1;fill-rule:evenodd;stroke:#000000;stroke-width:4;stroke-linecap:round;stroke-linejoin:round;stroke-miterlimit:6.3;stroke-dasharray:none;stroke-opacity:1" d="m1003 836.3.7-35.4m18-.8-1 37.3m-67.3-38 89.7 1" transform="translate(202.7 92.7)scale(.16463)" id="path23"/><path style="display:inline;fill:none;fill-opacity:1;fill-rule:evenodd;stroke:#000000;stroke-width:4;stroke-linecap:round;stroke-linejoin:round;stroke-miterlimit:6.3;stroke-dasharray:none;stroke-opacity:1" d="m1052.9 803 21.3-1v-9.5l-21 .4 1.1-12.7h19.5l-.3-11.3-17.7-.6 1-13.4 16-6.1 1-14.8-10.8-2.2" transform="translate(202.7 92.7)scale(.16463)" id="path24"/><path style="display:inline;fill:none;fill-rule:evenodd;stroke:#000000;stroke-width:3.5;stroke-linecap:round;stroke-linejoin:round;stroke-miterlimit:6.3;stroke-dasharray:none" d="m624 592.9 27.9 216-12.8.6-1-11.5-16.3-189-3.2-11 8 213 26.7 4.3-3-17.7-23.7-1.8-.7-11.2 22 .7-1.6-15.4-21-.1-.5-14.5 19.5.4-1.8-14.9-18 .8-.8-14.3 16.3-2.4-1.5-12.3-15.4.8-.5-15.6 14.1-.4L635 678h-13.2l-.5-18 11-1.1-2-13.2-9.8 1-.5-14.2 8.5.3-1.8-16.2-7.4 1-3.6-20z" transform="translate(202.7 92.7)scale(.16463)" id="path25"/><path style="display:inline;fill:none;fill-opacity:1;fill-rule:evenodd;stroke:#000000;stroke-width:4;stroke-linecap:round;stroke-linejoin:round;stroke-miterlimit:6.3;stroke-dasharray:none;stroke-opacity:1" d="M329 713.4c39.3 61.2 91.7 111.9 145.8 163.6" transform="translate(202.7 92.7)scale(.16463)" id="path26"/><path style="fill:#2a1510;fill-opacity:1;fill-rule:evenodd;stroke:#000000;stroke-width:4;stroke-linecap:round;stroke-linejoin:round;stroke-miterlimit:6.3;stroke-dasharray:none;stroke-opacity:1" d="m887.1 578.5-350.3 204" transform="translate(202.7 92.7)scale(.16463)" id="path27"/><path style="display:inline;fill:none;fill-opacity:1;fill-rule:evenodd;stroke:#000000;stroke-width:3.5;stroke-linecap:round;stroke-linejoin:round;stroke-miterlimit:6.3;stroke-dasharray:none;stroke-opacity:1" d="m622.3 524.1 7.1-105.8m327.3 397.4-17.7-.4-2.6-15.9 17 .4-2.9-16.3h-15.1l-1.9-12.3h14.1l-3-20.2-12.9.3-2.1-21.7h10.8l-3.5-18.4-10.6-1-1.8-16 9.4.4-2.2-13-8.5-.2-1.6-16.9 6.9-.3-3-17-6.4-.4-1.5-11.9 5.7-.8" transform="translate(202.7 92.7)scale(.16463)" id="path28"/></g><path style="display:inline;fill:#2a1510;fill-opacity:1;stroke:#000000;stroke-width:2.034;stroke-linecap:round;stroke-linejoin:round;stroke-dasharray:none;stroke-opacity:1" d="M269.4-4.6c-.4 5.5.1 33.6-1.1 38.2-1.9-.6-57.9-64.1-62.1-69.8zm-41.8-28.7q-6-2.2-11.5-5c-5-2.3-9.5-5.4-14.2-8.2-11.1-6.9-33-21.4-33-21.4l-5.6 4.4s11.8 8.1 17.3 12.7c10.5 8.9 20 18.8 29.7 28.6a995 995 0 0 1 33.5 35.4A602 602 0 0 1 271 44.7c5.6 7.2 10.6 14.9 15.9 22.3 22.2 31.1 68.1 96.2 68.1 96.2s25.4 3.7 38.9 5c50.7 5 100.4 7.2 151.2 11.8 98.6 8.9 198.1 18.5 296.7 28 22.2 2.1 44.4 3.8 66.6 6 9.7 1 28.8 3.6 28.8 3.6s2.2-9.2 2.8-13c.2-1.4 0-3 .5-4.3a7 7 0 0 1 2.3-3c2.1-1.5 5.4-1.1 7.4-2.9 1.6-1.3 3.7-3.4 3-5.3-.2-1-1.7-1-2.6-1.3-2.2-1-5.5-.4-6.7-2.5-1.4-2.5-.7-6.8 1.6-8.6 1.2-1 3.1.3 4.7.2s3.9.5 5.1-.8c1.8-1.8 2-5.1 1-7.5-.3-.9-2-.5-2.8-.9-2-.9-4.4-.5-5.7-2.2-1-1.2-1.1-3.6 0-4.7.8-.9 2.4-.2 3.5-.1 2.3 0 4.6 1.2 6.8.6a5 5 0 0 0 3.8-4.5c0-2-2.4-3.4-4.2-3.8-3-.6-4.2-2.7-5.3-5.5-.6-1.3 0-2.8.2-4.2.4-1.7 1.5-3.1 2-4.7.5-2.1 1.1-4.3 1-6.4-.1-1.4-1.4-2.6-1.2-4 .2-1.5 1.3-2.8 2.3-3.8q2.5-2.2 5.5-3.5c3-1.5 6.6-2 9.6-3.7q4-1.8 7.2-4.8c1.2-1.4 1.5-3.3 2.5-4.8l3.7-4.6c1.7-2.1 3.9-4 4.9-6.5.7-1.8.4-4 .7-5.9l1.8-6.4c.6-2 .7-4.1 1.4-6.1a59 59 0 0 1 5.3-10.4c2.5-4 5.8-7.6 8.3-11.6 1.5-2.4 3.3-4.7 4-7.4.5-1.5 0-3.2.2-4.7l.8-4.2c.4-2.3-8-1.3-9.8-2.7-2.7-2.2 3.3-6.5 3.3-10 0-3-2.2-5.5-2.7-8.5s-1.8-6.2-.7-9c13.7-37.4 38-112 38-112l-7-3L988 20.3s-1.5 1.9-2.5 2c-31.5 2.7-94.2 4.3-94.2 4.3l.2-13.4L909-119.7l16 .2 1.9-20.2-18.8-.4 4-45.7-9-1.6-5-1.9-2.9 1.1.2 5 6.5 1.7.4 4-2.4 35.8-10.8-.7-.9 20.2h3.6l-16 146-.4 26.1-4.7 7.2-41.4-1.1c-36.2-1-72.4-1.1-108.7-1.7l4.1-38.6L752.2-197l18.6.3-.1-16.4-16.1.3 1.7-31.4 6.9.9-.1-10.6-13.7-1.7 10.2-110.5-6.9.6-8.9 109.2-8.6-.4-.6 9.5 7.2 1-2 34-12.2-.7-1.7 15.3 14.3.5L709 15l-6.4 39a1426 1426 0 0 1-87.5-4.3q-62.6-5.2-124.2-17.2c-16-3.2-36.3-8-57.2-13.4l29.1-201 10.7.5v-19l-9.7-.4s1-24.4 3.1-38.4c.3-1.8 3.3-2 4-3.6.7-1.4 1-3.3 0-4.6-2-3.2-7-3-10.7-4.6-3.9-1.7-7.6-3.9-11.7-5q-1.2-.6-2.4-.8-.4 0-.7.2c-1.7 1.2-1.8 4-1.5 6.2.4 2.5 4.3 4 4 6.6-1.6 16.3-2.5 42.4-2.5 42.4l-6.6 1-1 20 6.6.5-28.5 195.4C366.5 1.7 318.5-12 318.5-12l.8 16.2s-39.9-17.5-60-25.7l-10-3.8z" transform="translate(229.4 220.5)scale(.16463)" id="path29"/><path d="M526.4 317.8c25.3-11.7 58.8-21.5 91.4-17.5 32.5 4 50-2.4 57.9-8a47 47 0 0 1 36.5-9.5 86 86 0 0 0 44.5-5.6c12-4.8 26.9-6.8 36.6-4.8 35 7.1 191.1-2 220-15.2-33.9 4.3-215 4.2-232-2.1-16.8-6.4-36-3.4-58.2 6.1s-37.6 10.9-48.4 5.8c-6.1-2.8-15.2-2.4-20.4 3s-3.2 11.1-27 11.1-104.8 1.3-150.9 9.3c17 19.3 41.7 22.7 50 27.4z" fill="none" stroke="#000000" stroke-width="2.034" style="display:inline;fill:#ffffff;fill-opacity:1" transform="translate(229.4 220.5)scale(.16463)" id="path30"/><path d="M163.6 374.3c21.1 16.9 233.8-2.4 245-8a97 97 0 0 1 45.2-11.6c27.2-1.6 48.8-4.8 70-25.8 24.7-17.3-24-46.4-56.5-43a71 71 0 0 1-29.4-2.5c-5.3-1.6-63-11.4-128.3-9.7-61.3 1.6-130.1 14.3-141.8 24.4-1.9 1.8-20.3 8.1-22.4 10-15 13.1-10.7 22.1 4.6 46.4 4.5 7 7.2 14.6 13.6 19.8z" fill="none" stroke="#000000" stroke-width="2.034" style="display:inline;fill:#949492;fill-opacity:1" transform="translate(229.4 220.5)scale(.16463)" id="path31"/><path style="display:inline;fill:#000000;fill-opacity:1;fill-rule:evenodd;stroke:#000000;stroke-width:2;stroke-linecap:round;stroke-linejoin:round;stroke-miterlimit:6.3;stroke-dasharray:none;stroke-opacity:1" d="m577.5 443.8 2 18.1 1.5 15.2-16.8 8.3 1.6-37.8zm67.3-.1-2 18-1.4 15.2 16.8 8.3-1.7-37.7z" transform="translate(229.4 220.5)scale(.16463)" id="path32"/><path style="display:inline;fill:#efae0e;fill-opacity:1;fill-rule:evenodd;stroke:#000000;stroke-width:2;stroke-linecap:round;stroke-linejoin:round;stroke-miterlimit:6.3;stroke-dasharray:none;stroke-opacity:1" d="m234 151.2 3.8 23.3 714 51.4 191.8 14.4.3-7.2L979.8 217z" transform="translate(229.4 220.5)scale(.16463)" id="path33"/><g style="display:inline" id="g46"><g style="display:inline;stroke:none" fill="#d4212f" id="g34"><path d="M489.7 410.6c-.3-6 6.4-13.2 12.5-13.4 6.4-.3 13.7 6.6 14.3 13 .5 6-5 14-11 14.6-7 .7-15.4-7.1-15.8-14.2zM439 348.5c-.3-6.1 6.3-13.2 12.4-13.5 6.5-.3 13.8 6.6 14.4 13 .5 6.1-5 14-11 14.6-7 .7-15.5-7-15.8-14.1zm-63.6 207.2c-2.8-5.5.3-14.7 5.8-17.4 5.7-2.9 15.2.4 18.4 6 3 5.3 1.2 14.7-4 17.8-6.2 3.5-17-.1-20.2-6.4zm-66.8-28.9c-2.8-5.4.4-14.6 5.8-17.3 5.8-3 15.2.4 18.4 6 3 5.2 1.2 14.7-4 17.7-6.2 3.5-17 0-20.2-6.4zm-63 194.2c-2.7-5.4.4-14.6 5.9-17.4 5.8-2.9 15.2.4 18.4 6 3 5.3 1.2 14.8-4 17.8-6.2 3.5-17-.1-20.2-6.4zM328 917.7c-2.8-5.5.4-14.7 5.8-17.4 5.8-2.9 15.2.4 18.4 6 3 5.3 1.2 14.8-4 17.8-6.1 3.5-17-.1-20.2-6.4zM262.6 939c-2.8-5.4.3-14.6 5.8-17.4 5.7-2.9 15.2.4 18.4 6 3 5.3 1.2 14.8-4 17.8-6.2 3.5-17 0-20.2-6.4zM405 1076.8c-2.7-5.5.4-14.7 5.9-17.4 5.7-3 15.1.4 18.3 6 3 5.3 1.3 14.7-4 17.8-6.1 3.5-17-.1-20.2-6.4zm-53.5 42.3c-2.8-5.5.4-14.7 5.8-17.4 5.8-2.9 15.2.4 18.4 6 3 5.3 1.2 14.7-4 17.8-6.1 3.5-17-.1-20.2-6.4zm171.8 68c-2.8-5.5.3-14.7 5.8-17.4 5.7-3 15.2.4 18.3 6 3 5.2 1.3 14.7-4 17.7-6.1 3.5-17 0-20.1-6.3zm-29.3 61c-2.8-5.4.3-14.6 5.8-17.3 5.7-3 15.2.4 18.3 6 3 5.2 1.3 14.7-4 17.7-6 3.6-17 0-20.1-6.3zm131.3-981.4c-.3-6.1 6.3-13.2 12.4-13.5 6.4-.3 13.7 6.6 14.3 13 .6 6-4.9 14-11 14.6-7 .7-15.4-7.1-15.7-14.1z" style="display:inline;fill:none;fill-opacity:1;stroke:#000000;stroke-width:3;stroke-dasharray:none;stroke-opacity:1" transform="translate(200 93)scale(.16463)" id="path34"/></g><g style="display:inline;fill:#efae0e;fill-opacity:1;stroke-width:2;stroke-dasharray:none" id="g40"><path d="M702.2 1299.8c5.8-15.9 15.5-64.5 11.7-85.7l-.1.4v-.6c1.3-5.8 1.4-14.2.5-16.9-9-.4-22.3-1.1-36.8-1 12 57.6-11.1 89.8-2.6 112.2 10 10.7 21.5 7.5 27.3-8.4m52-17.6a42 42 0 0 1-22.1 26.5c5.9 8 10.1 12 15 9.3 4.6-2.6 17-15.8 23.1-28.3a20 20 0 0 1-16-7.5" fill="#efae0e" style="fill:#efae0e;fill-opacity:1;stroke:#000000;stroke-width:2;stroke-dasharray:none;stroke-opacity:1" transform="translate(200.3 92.8)scale(.16463)" id="path35"/><path d="M750.7 1274.9c-13.6-24.2 5-34.6 4-52a55 55 0 0 0-2.4-11.4c-6.6-17.4-41.8-8.8-38.4 2.6 3.8 21.2-6 69.8-11.6 85.7-5.9 15.9-19.2 12.6-29.3 1.8-2.5 29.4 34.3 39.6 58.7 26.2a43 43 0 0 0 22-26.5 100 100 0 0 0 2.7-17.7q-3.2-4.4-5.7-8.7z" fill="none" stroke="#000000" stroke-width="2.034" style="fill:#efae0e;fill-opacity:1;stroke-width:2;stroke-dasharray:none" transform="translate(200.3 92.8)scale(.16463)" id="path36"/><path d="M754.1 1282.2a42 42 0 0 1-22 26.5c5.9 8 10.1 12 15 9.3 4.6-2.6 17-15.8 23.1-28.3a20 20 0 0 1-16-7.5" fill="#efae0e" style="display:inline;fill:#efae0e;fill-opacity:1;stroke:#000000;stroke-width:2;stroke-dasharray:none;stroke-opacity:1" transform="matrix(-.16463 0 0 .16463 459.7 92.8)" id="path37"/><path style="fill:#efae0e;fill-opacity:1;stroke:#000000;stroke-width:2;stroke-dasharray:none;stroke-opacity:1" d="M787.9 1223a59 59 0 0 0-31.7 14.7c.5 7.1-9.5 13.3-9.7 21-.3 9 13.1 34 25.5 46.7 4.3 4.4 15 9.1 16 9.1a51 51 0 0 0 15.8-9c12-12.4 25-36.9 25-45.3 0-8.1-9.7-15.4-9.1-22.5a59 59 0 0 0-31.8-14.6z" transform="translate(200.3 92.8)scale(.16463)" id="path38"/><path d="M702.2 1299.8c5.8-15.9 15.5-64.5 11.7-85.7l-.1.4v-.6c1.3-5.8 1.4-14.2.5-16.9-9-.4-22.3-1.1-36.8-1 12 57.6-11.1 89.8-2.6 112.2 10 10.7 21.5 7.5 27.3-8.4" fill="#efae0e" style="display:inline;fill:#efae0e;fill-opacity:1;stroke:#000000;stroke-width:2;stroke-dasharray:none;stroke-opacity:1" transform="matrix(-.16463 0 0 .16463 459.7 92.8)" id="path39"/><path d="M750.7 1274.9c-13.6-24.2 5-34.6 4-52a55 55 0 0 0-2.4-11.4c-6.6-17.4-41.8-8.8-38.4 2.6 3.8 21.2-6 69.8-11.6 85.7-5.9 15.9-19.2 12.6-29.3 1.8-2.5 29.4 34.3 39.6 58.7 26.2a43 43 0 0 0 22-26.5 100 100 0 0 0 2.7-17.7q-3.2-4.4-5.7-8.7z" fill="none" stroke="#000000" stroke-width="2.034" style="display:inline;fill:#efae0e;fill-opacity:1;stroke-width:2;stroke-dasharray:none" transform="matrix(-.16463 0 0 .16463 459.7 92.8)" id="path40"/></g><path d="M702.7 318.5a279 279 0 0 1 40-27c-16.8-10.3-34.4-11-52-11 12-6.4 24-24.6 24.8-39-20.7-3-50.2 10.4-59.8 26.2-6 10-27.5 32.2-41.5 44.6 3.8-9.2 10-20.7 10-30.7 0-4.2-4.1-5.4-5.3-.4-5 20-27.5 37.5-47.8 44.4-28 9.6-57 23.3-85.4 41a13 13 0 0 1-5-10.5c.4-8 11.2-11.3 23.9-11.8 20.8-1 92-43.2 80.4-81.1-8.1 16.6-28.1 21.5-55.5 24-34.4 3.1-63.4 34-56.1 68.5a73 73 0 0 1 2.3 17.3q-16 10.6-31.7 23a95 95 0 0 0-1.2-34.5c-1.8-5.6-8-12.2-5.9-.6 1.7 9.3-2.9 33.5-11.3 50.6a428 428 0 0 0-81.7 97.7c-4-1.5-6.1-4.2-7.1-6.8-2.9-7.4 5.4-15 16.6-20.7 17-21.2 65.3-77.5 38.9-107.1-.5 18.4-16.5 31.2-40.3 44.8-29.9 17.3-43.1 57.4-22 85.7a91 91 0 0 1 8.6 12.8q-8.6 15-16 31a84 84 0 0 0-13.5-25.7c-4-4.3-12.3-7.8-5.6 2 4.6 6.6 9.6 25.3 10.5 42.4a457 457 0 0 0-36.7 128.5 12 12 0 0 1-9.4-3.6c-5.5-5.8-.6-15.9 7.7-25.4 6.5-24.3 28-90.9-4-113.8 6.5 17.3-3.6 35.2-20.6 56.5-21.3 27-18.6 69.3 11.6 87.7 6.6 4 10.5 6.6 13.3 9.2a520 520 0 0 0-3 29.6 95 95 0 0 0-26.2-21.8c-5.3-2.4-14.5-2.2-4.3 4 7.8 4.8 22 23 29.4 40.1a618 618 0 0 0 10.5 134.7q-5.2 1.3-8.9-.8c-6.8-3.5-6.9-13.7-4-24.2 4.9-17.4-13-92.3-49.5-98 12.3 13.3 11.3 31.6 6 55-6.5 29.3 12.8 65.3 45.2 73 5.8 1.4 9.7 2.5 12.8 3.7q3.5 17.5 10.1 39a96 96 0 0 0-32.5-8.9c-5.9 0-14.1 3.9-2.4 5.4 8.7 1.1 27.6 10.9 41.3 22.6 11.9 33 29.4 70.3 53 107.6a12 12 0 0 1-9.4 3.6c-8-.6-15.3-11.8-15.7-24.4-.6-20.7-38-91.4-76.4-80.5 16.5 8.3 21.2 28.3 23.4 55.5 2.7 34.2 33.4 63.4 68.2 56.7a100 100 0 0 1 15.5-2.2 518 518 0 0 0 23.5 32.7 94 94 0 0 0-33 2.4c-5.5 1.9-12 8.2-.4 5.8 8.5-1.8 29.5 1.2 46.4 7.7a468 468 0 0 0 76.2 72q-3.1 3.8-6.9 4.4c-7.9 1.5-25-9-28.7-21.1-6.1-19.8-58.1-47.3-92.3-26.7 18.2 3.7 31.2-2 40.4 23.6 11.8 32.3 55.4 44 82 31.3a124 124 0 0 1 13.1-5.7 421 421 0 0 0 34.4 22.2c-10 4-20.7 9.6-26.1 14.9-4.2 4-7.4 12.5 2.1 5.5 6.2-4.6 23.1-10 39.5-11.9a432 432 0 0 0 126.4 43c-.5 4.2-2.7 6.8-4.8 8.7-6 5.3-19 3.7-28.3-4.8-18.3-10.5-96.4-32.8-115.3 2.1 17.5-6 38.9-.4 60 17 26.5 22 69 20.6 88.3-8.9 4.5-6.8 7.7-10 11-12a463 463 0 0 0 25.3 3.2c1.7-7.4 3.8-14.5 4.6-20.1q-13.5-1.6-27-4c2.7-7.6 7-16.2 3.4-26.3-6.4-18.5-35.8-44.7-64.7-45-22.7-.3-42.3-24.8-60.2-26.7a94 94 0 0 1 13 31.3c6.2 30.9 40.5 49.8 82.1 46.4 10.6-.9 18.3 10 20 19.2-42.8-8.2-86.1-23-127.2-44a68 68 0 0 1-15.6-30.8c-2.3-10.7-7.5-12.4-5.6 1 1 6.6 2.8 14.3 5.3 21.2a480 480 0 0 1-29-17.6c5.6-6.7 15.4-13 16.5-25.1 2-19.5-14-55.5-40.2-67.7-20.4-9.6-28-40-43.6-49a93 93 0 0 1-1.2 33.8c-7.3 30.6 16.1 62 55.4 76 11.4 4.1 13 20.3 8.9 29.2a444 444 0 0 1-78-66 72 72 0 0 1-5.2-45.3c2.4-10.7-1.5-14.4-5.4-1.5-2.7 9-4.7 20.6-4.5 29.9a393 393 0 0 1-24.6-33c5.8-7.8 21.5-9.7 26.7-23.9 7-18.3 1.3-57.1-20.8-75.8-17.3-14.7-16.5-45.9-29-58.7a95 95 0 0 1-10.2 32.3c-15.1 27.7-.9 64 33.3 87.9 11.8 8.2 5.8 29.3-3 33.5a465 465 0 0 1-50.7-105.6 73 73 0 0 1 10.4-44.3c5.8-9.3 3.3-14-4.7-3.2-5 6.7-10 15.5-13.2 23.5a606 606 0 0 1-8.8-35.3c7.5-2 19.4.9 27-7.5 11.4-12 17.6-46.3 4-70.6-10.8-19.1-1.2-44.4-8.3-60.1-5.5 9.5-5.5 16.6-13.5 22.8-18 19-16.1 46-1.1 85.2 6.9 10.2-1 23-9 25.7a567 567 0 0 1-7.4-187.2c9.3-.4 21.3 7.1 34 .7 17.6-8.8 39.9-41.2 36.3-69.8-2.7-22.4 19.1-44.9 18.6-62.8a94 94 0 0 1-29.5 17c-30 10.2-44.2 46.5-35.4 87 3 13.1-13.6 24-23.3 23 5.6-38.8 16-79.2 31.3-118a75 75 0 0 1 43.5-25.5c10.8-2 12.7-7-.7-5.6a94 94 0 0 0-33.7 9.4q8.8-19.7 19.3-38.6c9.4 2 17.9 15.1 33 13.7 19.6-1.6 52.4-23.5 59.8-51.3 6-21.8 34.5-34.7 40.8-51.5a95 95 0 0 1-33.7 5c-31.7-1.7-58.5 26.8-65.4 67.7-2.4 14-24.1 17.8-31.8 11.7a378 378 0 0 1 78-97.2 74 74 0 0 1 48.7-4.8c10.7 2.7 14.5-1.1 1.7-5.4-9.5-3.1-22.1-5.7-31.6-5.4q17-13.5 34.3-24.7c7.8 5.7 10 21.2 24.2 26.2 18.5 6.7 57.5.5 76-21.7 14.6-17.4 46-17 58.7-29.8-12.7-1.8-22-4-32.6-9.6-28-14.6-64.5 0-88 34.3-8 11.7-29 6.2-33.7-2.3A412 412 0 0 1 612 324.9c29.5-7.2 77.6 4.4 90.8-6.4" fill="#3f863f" style="display:inline;stroke:#000000;stroke-width:1.99821;stroke-dasharray:none;stroke-opacity:1" transform="translate(202.7 92.7)scale(.16463)" id="path41"/><g style="display:inline;stroke:none" fill="#d4212f" id="g42"><path d="M489.7 410.6c-.3-6 6.4-13.2 12.5-13.4 6.4-.3 13.7 6.6 14.3 13 .5 6-5 14-11 14.6-7 .7-15.4-7.1-15.8-14.2M439 348.5c-.3-6.1 6.3-13.2 12.4-13.5 6.5-.3 13.8 6.6 14.4 13 .5 6.1-5 14-11 14.6-7 .7-15.5-7-15.8-14.1m-63.6 207.2c-2.8-5.5.3-14.7 5.8-17.4 5.7-2.9 15.2.4 18.4 6 3 5.3 1.2 14.7-4 17.8-6.2 3.5-17-.1-20.2-6.4m-66.8-28.9c-2.8-5.4.4-14.6 5.8-17.3 5.8-3 15.2.4 18.4 6 3 5.2 1.2 14.7-4 17.7-6.2 3.5-17 0-20.2-6.4m-63 194.2c-2.7-5.4.4-14.6 5.9-17.4 5.8-2.9 15.2.4 18.4 6 3 5.3 1.2 14.8-4 17.8-6.2 3.5-17-.1-20.2-6.4M328 917.7c-2.8-5.5.4-14.7 5.8-17.4 5.8-2.9 15.2.4 18.4 6 3 5.3 1.2 14.8-4 17.8-6.1 3.5-17-.1-20.2-6.4M262.6 939c-2.8-5.4.3-14.6 5.8-17.4 5.7-2.9 15.2.4 18.4 6 3 5.3 1.2 14.8-4 17.8-6.2 3.5-17 0-20.2-6.4M405 1076.8c-2.7-5.5.4-14.7 5.9-17.4 5.7-3 15.1.4 18.3 6 3 5.3 1.3 14.7-4 17.8-6.1 3.5-17-.1-20.2-6.4m-53.5 42.3c-2.8-5.5.4-14.7 5.8-17.4 5.8-2.9 15.2.4 18.4 6 3 5.3 1.2 14.7-4 17.8-6.1 3.5-17-.1-20.2-6.4m171.8 68c-2.8-5.5.3-14.7 5.8-17.4 5.7-3 15.2.4 18.3 6 3 5.2 1.3 14.7-4 17.7-6.1 3.5-17 0-20.1-6.3m-29.3 61c-2.8-5.4.3-14.6 5.8-17.3 5.7-3 15.2.4 18.3 6 3 5.2 1.3 14.7-4 17.7-6 3.6-17 0-20.1-6.3m131.3-981.4c-.3-6.1 6.3-13.2 12.4-13.5 6.4-.3 13.7 6.6 14.3 13 .6 6-4.9 14-11 14.6-7 .7-15.4-7.1-15.7-14.1" style="display:inline;fill:#d4212f;fill-opacity:1;stroke:none;stroke-width:2;stroke-dasharray:none;stroke-opacity:1" transform="translate(200 93)scale(.16463)" id="path42"/></g><g style="display:inline;stroke:none" fill="#d4212f" id="g43"><path d="M489.7 410.6c-.3-6 6.4-13.2 12.5-13.4 6.4-.3 13.7 6.6 14.3 13 .5 6-5 14-11 14.6-7 .7-15.4-7.1-15.8-14.2zM439 348.5c-.3-6.1 6.3-13.2 12.4-13.5 6.5-.3 13.8 6.6 14.4 13 .5 6.1-5 14-11 14.6-7 .7-15.5-7-15.8-14.1zm-63.6 207.2c-2.8-5.5.3-14.7 5.8-17.4 5.7-2.9 15.2.4 18.4 6 3 5.3 1.2 14.7-4 17.8-6.2 3.5-17-.1-20.2-6.4zm-66.8-28.9c-2.8-5.4.4-14.6 5.8-17.3 5.8-3 15.2.4 18.4 6 3 5.2 1.2 14.7-4 17.7-6.2 3.5-17 0-20.2-6.4zm-63 194.2c-2.7-5.4.4-14.6 5.9-17.4 5.8-2.9 15.2.4 18.4 6 3 5.3 1.2 14.8-4 17.8-6.2 3.5-17-.1-20.2-6.4zM328 917.7c-2.8-5.5.4-14.7 5.8-17.4 5.8-2.9 15.2.4 18.4 6 3 5.3 1.2 14.8-4 17.8-6.1 3.5-17-.1-20.2-6.4zM262.6 939c-2.8-5.4.3-14.6 5.8-17.4 5.7-2.9 15.2.4 18.4 6 3 5.3 1.2 14.8-4 17.8-6.2 3.5-17 0-20.2-6.4zM405 1076.8c-2.7-5.5.4-14.7 5.9-17.4 5.7-3 15.1.4 18.3 6 3 5.3 1.3 14.7-4 17.8-6.1 3.5-17-.1-20.2-6.4zm-53.5 42.3c-2.8-5.5.4-14.7 5.8-17.4 5.8-2.9 15.2.4 18.4 6 3 5.3 1.2 14.7-4 17.8-6.1 3.5-17-.1-20.2-6.4zm171.8 68c-2.8-5.5.3-14.7 5.8-17.4 5.7-3 15.2.4 18.3 6 3 5.2 1.3 14.7-4 17.7-6.1 3.5-17 0-20.1-6.3zm-29.3 61c-2.8-5.4.3-14.6 5.8-17.3 5.7-3 15.2.4 18.3 6 3 5.2 1.3 14.7-4 17.7-6 3.6-17 0-20.1-6.3zm131.3-981.4c-.3-6.1 6.3-13.2 12.4-13.5 6.4-.3 13.7 6.6 14.3 13 .6 6-4.9 14-11 14.6-7 .7-15.4-7.1-15.7-14.1z" style="display:inline;fill:none;fill-opacity:1;stroke:#000000;stroke-width:3;stroke-dasharray:none;stroke-opacity:1" transform="matrix(-.16463 0 0 .16463 460 93)" id="path43"/></g><path d="M843.5 318.5a278 278 0 0 0-40-27c16.8-10.3 34.3-11 51.9-11a54 54 0 0 1-24.7-39c20.7-3 50.2 10.4 59.8 26.2 6 10 27.5 32.2 41.5 44.6-3.8-9.2-10-20.7-10-30.7 0-4.2 4-5.4 5.3-.4 5 20 27.5 37.5 47.8 44.4 28 9.6 57 23.3 85.3 41 4.2-3.3 5.2-7.2 5.1-10.5-.5-8-11.3-11.3-24-11.8-20.8-1-91.9-43.2-80.4-81.1 8.2 16.6 28.2 21.5 55.6 24 34.4 3.1 63.4 34 56.1 68.5a73 73 0 0 0-2.4 17.3q16.2 10.6 31.8 23a95 95 0 0 1 1.2-34.5c1.8-5.6 8-12.2 5.9-.6-1.7 9.3 2.8 33.5 11.3 50.6a428 428 0 0 1 81.7 97.7c4-1.5 6.1-4.2 7.1-6.8 2.9-7.4-5.4-15-16.7-20.7-17-21.2-65.2-77.5-38.8-107.1.5 18.4 16.5 31.2 40.2 44.8 30 17.3 43.2 57.4 22.1 85.7a91 91 0 0 0-8.6 12.8 434 434 0 0 1 16 31 84 84 0 0 1 13.5-25.7c4-4.3 12.3-7.8 5.6 2-4.6 6.6-9.6 25.3-10.6 42.4a457 457 0 0 1 36.8 128.5c4.3.1 7.4-1.5 9.4-3.6 5.5-5.8.6-15.9-7.7-25.4-6.5-24.3-28-90.9 4-113.8-6.5 17.3 3.6 35.2 20.6 56.5 21.3 27 18.6 69.3-11.6 87.7-6.6 4-10.5 6.6-13.3 9.2a520 520 0 0 1 3 29.6 95 95 0 0 1 26.2-21.8c5.3-2.4 14.4-2.2 4.3 4-7.8 4.8-22 23-29.4 40.1a618 618 0 0 1-10.5 134.7q5.1 1.3 8.9-.8c6.8-3.5 6.9-13.7 4-24.2-5-17.4 13-92.3 49.5-98-12.4 13.3-11.3 31.6-6 55 6.5 29.3-12.9 65.3-45.2 73a99 99 0 0 0-12.8 3.7 406 406 0 0 1-10.1 39 96 96 0 0 1 32.5-8.9c5.9 0 14 3.9 2.3 5.4-8.6 1.1-27.5 10.9-41.2 22.6a550 550 0 0 1-53 107.6c3 3 6.5 3.8 9.4 3.6 8-.6 15.2-11.8 15.7-24.4.6-20.7 38-91.4 76.4-80.5-16.6 8.3-21.3 28.3-23.4 55.5-2.7 34.2-33.4 63.4-68.2 56.7-7.3-1.4-11.8-2.1-15.6-2.2a518 518 0 0 1-23.5 32.7c11.5-.9 25.2-.5 33.1 2.4 5.5 1.9 12 8.2.4 5.8-8.5-1.8-29.5 1.2-46.4 7.7a468 468 0 0 1-76.2 72q3.2 3.8 6.9 4.4c7.9 1.5 25-9 28.7-21.1 6.1-19.8 58.1-47.3 92.2-26.7-18.1 3.7-31.2-2-40.4 23.6-11.7 32.3-55.3 44-82 31.3-5.8-2.8-9.7-4.6-13-5.7a421 421 0 0 1-34.4 22.2c10 4 20.7 9.6 26 14.9 4.3 4 7.5 12.5-2 5.5-6.2-4.6-23.1-10-39.6-11.9a432 432 0 0 1-126.3 43c.5 4.2 2.7 6.8 4.8 8.7 6 5.3 19 3.7 28.3-4.8 18.2-10.5 96.4-32.8 115.3 2.1-17.6-6-38.9-.4-60 17-26.5 22-69 20.6-88.4-8.9-4.5-6.8-7.7-10-10.9-12a463 463 0 0 1-25.4 3.2c-1.6-7.4-3.7-14.5-4.5-20.1q13.5-1.6 27-4c-2.7-7.6-7-16.2-3.4-26.3 6.4-18.5 35.8-44.7 64.7-45 22.7-.3 42.2-24.8 60.2-26.7a94 94 0 0 0-13 31.3c-6.2 30.9-40.5 49.8-82.2 46.4-10.6-.9-18.3 10-19.9 19.2 42.8-8.2 86.1-23 127.1-44a68 68 0 0 0 15.7-30.8c2.3-10.7 7.4-12.4 5.5 1-.9 6.6-2.7 14.3-5.2 21.2q14.9-8.3 29-17.6c-5.6-6.7-15.5-13-16.5-25.1-2-19.5 14-55.5 40.1-67.7 20.5-9.6 28.1-40 43.7-49a93 93 0 0 0 1.1 33.8c7.3 30.6-16 62-55.3 76-11.4 4.1-13 20.3-8.9 29.2 28.4-19 54.7-41.1 78-66 9-21 7-36.8 5.1-45.3-2.3-10.7 1.6-14.4 5.4-1.5 2.8 9 4.8 20.6 4.5 29.9a393 393 0 0 0 24.7-33c-5.8-7.8-21.5-9.7-26.7-23.9-7-18.3-1.3-57.1 20.8-75.8 17.3-14.7 16.5-45.9 29-58.7a95 95 0 0 0 10.2 32.3c15.1 27.7.9 64-33.3 87.9-11.8 8.2-5.8 29.3 3 33.5a465 465 0 0 0 50.7-105.6c1.3-22.5-5.7-37-10.4-44.3-5.8-9.3-3.3-14 4.7-3.2 5 6.7 10 15.5 13.1 23.5q5-17.6 9-35.3c-7.6-2-19.6.9-27.2-7.5-11.4-12-17.5-46.3-3.8-70.6 10.6-19.1 1-44.4 8.2-60.1 5.4 9.5 5.5 16.6 13.5 22.8 18 19 16.1 46 1.1 85.2-7 10.2 1 23 9 25.7a567 567 0 0 0 7.4-187.2c-9.3-.4-21.3 7.1-34 .7-17.6-8.8-39.9-41.2-36.3-69.8 2.6-22.4-19.1-44.9-18.6-62.8a94 94 0 0 0 29.5 17c30 10.2 44.2 46.5 35.3 87-2.8 13.1 13.6 24 23.4 23-5.6-38.8-16-79.2-31.3-118A75 75 0 0 0 1180 558c-10.8-2-12.7-7 .7-5.6a94 94 0 0 1 33.7 9.4q-8.8-19.7-19.3-38.6c-9.4 2-18 15.1-33 13.7-19.7-1.6-52.4-23.5-59.8-51.3-6-21.8-34.5-34.7-40.8-51.5a95 95 0 0 0 33.7 5c31.6-1.7 58.5 26.8 65.4 67.7 2.4 14 24.1 17.8 31.8 11.7a378 378 0 0 0-78-97.2 74 74 0 0 0-48.8-4.8c-10.6 2.7-14.4-1.1-1.6-5.4 9.5-3.1 22.1-5.7 31.6-5.4q-17-13.5-34.3-24.7c-7.8 5.7-10 21.2-24.2 26.2-18.6 6.7-57.5.5-76-21.7-14.6-17.4-46-17-58.7-29.8 12.7-1.8 22-4 32.6-9.6 28-14.6 64.5 0 88 34.3 8 11.7 29 6.2 33.6-2.3a412 412 0 0 0-122.3-53.2c-29.5-7.2-77.7 4.4-90.8-6.4" fill="#3f863f" style="display:inline;stroke:#000000;stroke-width:1.99821;stroke-dasharray:none;stroke-opacity:1" transform="translate(202.7 92.7)scale(.16463)" id="path44"/><g style="display:inline;stroke:none" fill="#d4212f" id="g45"><path d="M489.7 410.6c-.3-6 6.4-13.2 12.5-13.4 6.4-.3 13.7 6.6 14.3 13 .5 6-5 14-11 14.6-7 .7-15.4-7.1-15.8-14.2M439 348.5c-.3-6.1 6.3-13.2 12.4-13.5 6.5-.3 13.8 6.6 14.4 13 .5 6.1-5 14-11 14.6-7 .7-15.5-7-15.8-14.1m-63.6 207.2c-2.8-5.5.3-14.7 5.8-17.4 5.7-2.9 15.2.4 18.4 6 3 5.3 1.2 14.7-4 17.8-6.2 3.5-17-.1-20.2-6.4m-66.8-28.9c-2.8-5.4.4-14.6 5.8-17.3 5.8-3 15.2.4 18.4 6 3 5.2 1.2 14.7-4 17.7-6.2 3.5-17 0-20.2-6.4m-63 194.2c-2.7-5.4.4-14.6 5.9-17.4 5.8-2.9 15.2.4 18.4 6 3 5.3 1.2 14.8-4 17.8-6.2 3.5-17-.1-20.2-6.4M328 917.7c-2.8-5.5.4-14.7 5.8-17.4 5.8-2.9 15.2.4 18.4 6 3 5.3 1.2 14.8-4 17.8-6.1 3.5-17-.1-20.2-6.4M262.6 939c-2.8-5.4.3-14.6 5.8-17.4 5.7-2.9 15.2.4 18.4 6 3 5.3 1.2 14.8-4 17.8-6.2 3.5-17 0-20.2-6.4M405 1076.8c-2.7-5.5.4-14.7 5.9-17.4 5.7-3 15.1.4 18.3 6 3 5.3 1.3 14.7-4 17.8-6.1 3.5-17-.1-20.2-6.4m-53.5 42.3c-2.8-5.5.4-14.7 5.8-17.4 5.8-2.9 15.2.4 18.4 6 3 5.3 1.2 14.7-4 17.8-6.1 3.5-17-.1-20.2-6.4m171.8 68c-2.8-5.5.3-14.7 5.8-17.4 5.7-3 15.2.4 18.3 6 3 5.2 1.3 14.7-4 17.7-6.1 3.5-17 0-20.1-6.3m-29.3 61c-2.8-5.4.3-14.6 5.8-17.3 5.7-3 15.2.4 18.3 6 3 5.2 1.3 14.7-4 17.7-6 3.6-17 0-20.1-6.3m131.3-981.4c-.3-6.1 6.3-13.2 12.4-13.5 6.4-.3 13.7 6.6 14.3 13 .6 6-4.9 14-11 14.6-7 .7-15.4-7.1-15.7-14.1" style="display:inline;fill:#d4212f;fill-opacity:1;stroke:none;stroke-width:2;stroke-dasharray:none;stroke-opacity:1" transform="matrix(-.16463 0 0 .16463 460 93)" id="path45"/></g></g><g style="display:inline" transform="translate(202.7 92.7)scale(.16463)" id="g69"><path style="display:inline;fill:#d4212f;fill-opacity:1;fill-rule:evenodd;stroke:#000000;stroke-width:2;stroke-miterlimit:6.3;stroke-dasharray:none;stroke-opacity:1" d="M915 411.9s-5.9 2-9 2.3q-10 1-19.9-1c-7.4-1.7-14-6-21-8.7q-23.4-9.6-47.5-18c-16.3-5.5-32.5-12.4-49.6-14.8a95 95 0 0 0-26 .5q-8.8 1.3-17 4.6c-4.4 2-9.5 3.8-12.2 7.7a19 19 0 0 0-2.6 12.3q.6 5.3 3.9 9.6 2.8 3.4 6.7 5.3c2 1.2 5 .6 6.3 2.5q.8 1.4 0 3c-.7 1-2.3 1.2-3.6 1.6-3 1-6.1 1.2-9.2 2-10.8 2.8-22 4.5-32.2 9.2a34 34 0 0 0-12.3 8.2q-2.2 3.2-3 7.2c-.7 2.8.1 5.8-.5 8.7-.7 3-1.7 6.2-3.6 8.6-2.5 3.1-6.3 4.7-9.7 6.7-3 1.7-6.2 3.5-9.5 4.5-2.6.7-5.8-.3-8 1-2.2 1.2 4.1.9 6.2 1.1 3.7.5 7.5.3 11.3.6 3.4.2 6.8 1.5 10.2 1 3.6-.5 7.4-1.8 10.2-4.1a22 22 0 0 0 6.1-9.7c1-3-.2-6.4 1-9.2q1.8-3.5 5.2-5.7c8.6-5.3 19.5-5.3 29.1-8.1 6.5-2 13.7-2.5 19.5-6.2q3.1-2.1 5-5.6a19 19 0 0 0 2.6-8.2q.3-4.3-1.5-8.2c-1.4-2.8-4.5-4.5-6.1-7.1-1-1.4-2.7-3-2-4.6 1.7-4.5 8.6-4.5 13.3-5.3 7.4-1.2 15 0 22.5 1a170 170 0 0 1 55.1 17 163 163 0 0 1 22 12.3c5.2 3.6 9.2 8.7 14.3 12.3a68 68 0 0 0 15.9 9.2c6.8 2.5 14.2 3 21.5 3.6 4.7.4 14.3 0 14.3 0h.6z" id="path46"/><path style="display:inline;fill:#ffffff;fill-opacity:1;fill-rule:evenodd;stroke:none;stroke-width:2;stroke-miterlimit:6.3;stroke-dasharray:none;stroke-opacity:1" d="m842.3 395.6-11.5 22 8.3 4.5 10-23.5zm9.7 4.3-10.6 23.9 9 5.8 9.4-27.2z" id="path47"/><path style="fill:#ffffff;fill-opacity:1;fill-rule:evenodd;stroke:none;stroke-width:2;stroke-miterlimit:6.3;stroke-dasharray:none;stroke-opacity:1" d="m863.8 404.5-9.9 27.4 8.2 7.3 9-31.7zm-71.1-4s1.1-1 1.3-1.8q0-2-1.2-3.6c-2.2-2.7-6-3.9-9.2-5.2a74 74 0 0 0-17.4-4.6 65 65 0 0 0-15-.4 51 51 0 0 0-10.3 2.2c-2.8.8-5.8 1.5-8.2 3.3a10 10 0 0 0-3.4 4.3q-.6 2.2-.2 4.4.7 2.2 2 4.2c1.4 2.7 3.7 5 4.7 7.8a14 14 0 0 1 .9 7.5c-.7 2.8-3 4.9-5 6.8q-2.6 2.5-6 4.1c-6 2.8-12.6 3.8-19 5.6-5.4 1.6-11 2.7-16.3 4.8-4.4 1.7-9.3 3-12.8 6.2-1.4 1.4-2 3.4-2.8 5.1-1 2.3-2.3 7.2-2.3 7.2s-.6 5.5-2 7.8q-2 3-5.3 4.5c-2.2 1-4.7.8-7.1 1.3-4.5.8-9 1.4-13.3 2.8-.8.2-3 1-2.3 1s9.4 1 14.2 1.3c3.4.2 6.8.9 10.2.2q3.9-.7 7-3c3-2.5 5-6.1 6.4-9.8 1.3-3.5 0-7.7 1.5-11q1.5-2.7 4-4.2c7.5-4.6 17-5.2 25.3-7.9 8-2.6 16.5-3.9 23.8-8q2.6-1.2 4.3-3.5 2.9-4.2 3.5-9.2.3-2.8-.5-5.4-1.4-3.1-3.7-5.7c-1.1-1.4-2.7-2.2-3.7-3.6s-2.2-2.9-2-4.5c.1-1.7 1.5-3.2 3-4 3.9-2.4 8.9-2 13.4-2.2 7.8-.4 15.6.8 23.3 1.9 6.6 1 19.5 4 19.5 4z" id="path48"/><path style="display:inline;fill:#002a86;fill-opacity:1;fill-rule:evenodd;stroke:none;stroke-width:2;stroke-miterlimit:6.3;stroke-dasharray:none;stroke-opacity:1" d="m876 411.5-4.6 33.6s7 4.4 8 4.5l17 1 16.4.1 1.7-38.7-8.8 2.3-14-.1-11.5-2.6-4-1.6z" id="path49"/><path style="display:inline;fill:#ffffff;fill-opacity:1;fill-rule:evenodd;stroke:none;stroke-width:2;stroke-miterlimit:6.3;stroke-dasharray:none;stroke-opacity:1" d="m831 392.4-10.2 19.7 7.4 3.9 9.7-21.6zm-22.3-8.1-9.8 19.4 8.2 3.4 8.7-20.2zm10.6 3.7-9.7 19.7 8.1 3.5 8.9-20.8-7.3-2.8z" id="path50"/><circle style="display:inline;fill:#ffffff;fill-opacity:1;fill-rule:evenodd;stroke:none;stroke-width:2.99827;stroke-miterlimit:6.3;stroke-dasharray:none;stroke-opacity:1" cx="906.57501" cy="420.819" r="1.152" id="circle50"/><circle style="display:inline;fill:#ffffff;fill-opacity:1;fill-rule:evenodd;stroke:none;stroke-width:2.99827;stroke-miterlimit:6.3;stroke-dasharray:none;stroke-opacity:1" cx="897.49902" cy="420.30701" r="1.152" id="circle51"/><circle style="display:inline;fill:#ffffff;fill-opacity:1;fill-rule:evenodd;stroke:none;stroke-width:2.99827;stroke-miterlimit:6.3;stroke-dasharray:none;stroke-opacity:1" cx="890.08502" cy="419.668" r="1.152" id="circle52"/><circle style="display:inline;fill:#ffffff;fill-opacity:1;fill-rule:evenodd;stroke:none;stroke-width:2.99827;stroke-miterlimit:6.3;stroke-dasharray:none;stroke-opacity:1" cx="881.56403" cy="417.09" r="1.152" id="circle53"/><circle style="display:inline;fill:#ffffff;fill-opacity:1;fill-rule:evenodd;stroke:none;stroke-width:2.99827;stroke-miterlimit:6.3;stroke-dasharray:none;stroke-opacity:1" cx="880.64801" cy="423.104" r="1.152" id="circle54"/><circle style="display:inline;fill:#ffffff;fill-opacity:1;fill-rule:evenodd;stroke:none;stroke-width:2.99827;stroke-miterlimit:6.3;stroke-dasharray:none;stroke-opacity:1" cx="888.935" cy="425.93201" r="1.152" id="circle55"/><circle style="display:inline;fill:#ffffff;fill-opacity:1;fill-rule:evenodd;stroke:none;stroke-width:2.99827;stroke-miterlimit:6.3;stroke-dasharray:none;stroke-opacity:1" cx="896.36401" cy="426.608" r="1.152" id="circle56"/><circle style="display:inline;fill:#ffffff;fill-opacity:1;fill-rule:evenodd;stroke:none;stroke-width:2.99827;stroke-miterlimit:6.3;stroke-dasharray:none;stroke-opacity:1" cx="905.16901" cy="427.33801" r="1.152" id="circle57"/><circle style="display:inline;fill:#ffffff;fill-opacity:1;fill-rule:evenodd;stroke:none;stroke-width:2.99827;stroke-miterlimit:6.3;stroke-dasharray:none;stroke-opacity:1" cx="904.146" cy="433.21799" r="1.152" id="circle58"/><circle style="display:inline;fill:#ffffff;fill-opacity:1;fill-rule:evenodd;stroke:none;stroke-width:2.99827;stroke-miterlimit:6.3;stroke-dasharray:none;stroke-opacity:1" cx="895.59698" cy="433.51099" r="1.152" id="circle59"/><circle style="display:inline;fill:#ffffff;fill-opacity:1;fill-rule:evenodd;stroke:none;stroke-width:2.99827;stroke-miterlimit:6.3;stroke-dasharray:none;stroke-opacity:1" cx="888.03998" cy="432.57901" r="1.152" id="circle60"/><circle style="display:inline;fill:#ffffff;fill-opacity:1;fill-rule:evenodd;stroke:none;stroke-width:2.99827;stroke-miterlimit:6.3;stroke-dasharray:none;stroke-opacity:1" cx="879.60303" cy="429.51099" r="1.152" id="circle61"/><circle style="display:inline;fill:#ffffff;fill-opacity:1;fill-rule:evenodd;stroke:none;stroke-width:2.99827;stroke-miterlimit:6.3;stroke-dasharray:none;stroke-opacity:1" cx="878.42102" cy="436.03" r="1.152" id="circle62"/><circle style="display:inline;fill:#ffffff;fill-opacity:1;fill-rule:evenodd;stroke:none;stroke-width:2.99827;stroke-miterlimit:6.3;stroke-dasharray:none;stroke-opacity:1" cx="886.927" cy="438.625" r="1.152" id="circle63"/><circle style="display:inline;fill:#ffffff;fill-opacity:1;fill-rule:evenodd;stroke:none;stroke-width:2.99827;stroke-miterlimit:6.3;stroke-dasharray:none;stroke-opacity:1" cx="894.703" cy="439.27899" r="1.152" id="circle64"/><circle style="display:inline;fill:#ffffff;fill-opacity:1;fill-rule:evenodd;stroke:none;stroke-width:2.99827;stroke-miterlimit:6.3;stroke-dasharray:none;stroke-opacity:1" cx="902.99597" cy="439.73801" r="1.152" id="circle65"/><circle style="display:inline;fill:#ffffff;fill-opacity:1;fill-rule:evenodd;stroke:none;stroke-width:2.99827;stroke-miterlimit:6.3;stroke-dasharray:none;stroke-opacity:1" cx="902.229" cy="446.64001" r="1.152" id="circle66"/><circle style="display:inline;fill:#ffffff;fill-opacity:1;fill-rule:evenodd;stroke:none;stroke-width:2.99827;stroke-miterlimit:6.3;stroke-dasharray:none;stroke-opacity:1" cx="892.89697" cy="445.87299" r="1.152" id="circle67"/><circle style="display:inline;fill:#ffffff;fill-opacity:1;fill-rule:evenodd;stroke:none;stroke-width:2.99827;stroke-miterlimit:6.3;stroke-dasharray:none;stroke-opacity:1" cx="885.45203" cy="444.76001" r="1.152" id="circle68"/><circle style="display:inline;fill:#ffffff;fill-opacity:1;fill-rule:evenodd;stroke:none;stroke-width:2.99827;stroke-miterlimit:6.3;stroke-dasharray:none;stroke-opacity:1" cx="876.91901" cy="442.422" r="1.152" id="circle69"/><path style="display:inline;fill:none;fill-opacity:1;fill-rule:evenodd;stroke:#000000;stroke-width:2;stroke-miterlimit:6.3;stroke-dasharray:none;stroke-opacity:1" d="M914.9 411.5s-5.8 2.3-8.8 2.7q-10 1.2-20-1c-7.4-1.7-14-6-21-8.7q-23.4-9.6-47.5-18c-16.3-5.5-32.5-12.4-49.6-14.8a95 95 0 0 0-26 .5q-8.8 1.3-17 4.6c-4.4 2-9.5 3.8-12.2 7.7-2.4 3.4-3 8.1-2.6 12.3a21 21 0 0 0 5.3 10.9c1.8 2 4.5 3.1 6.9 4.4 1.5.8 3.8.6 4.7 2a3 3 0 0 1 0 3c-.7 1.1-2.3 1.3-3.6 1.7-3 1-6.1 1.2-9.2 2-10.8 2.8-22 4.5-32.2 9.2a34 34 0 0 0-12.3 8.2q-2.2 3.1-3 7.2c-.7 2.8.1 5.8-.5 8.7-.7 3-1.7 6.2-3.6 8.6-2.5 3.1-6.3 4.7-9.7 6.7-3 1.7-6.2 3.5-9.5 4.5-2.6.7-5.8-.3-8 1-2.2 1.2 4.1.9 6.2 1.1 3.7.5 7.5.3 11.3.6 3.4.2 6.8 1.5 10.2 1 3.6-.5 7.4-1.8 10.2-4.1a22 22 0 0 0 6.1-9.7c1-3-.2-6.4 1-9.2q1.8-3.5 5.2-5.7c8.6-5.3 19.5-5.3 29.1-8.1 6.5-2 13.7-2.5 19.5-6.2q3.1-2.1 5-5.6a19 19 0 0 0 2.6-8.2q.3-4.3-1.5-8.2c-1.4-2.8-4.5-4.5-6.1-7.1-1-1.4-2.7-3-2-4.6 1.7-4.5 8.6-4.5 13.3-5.3 7.4-1.2 15 0 22.5 1a170 170 0 0 1 55.1 17 163 163 0 0 1 22 12.3c5.2 3.6 9.2 8.7 14.3 12.3a68 68 0 0 0 15.9 9.2c6.8 2.5 14.2 3 21.5 3.6 4.7.4 14.3 0 14.3 0l1 .2z" id="path69"/></g><g style="display:inline" id="g80"><path style="display:inline;fill:#fefdfe;fill-opacity:1;fill-rule:evenodd;stroke:none;stroke-width:2.034;stroke-linecap:round;stroke-linejoin:round;stroke-miterlimit:6.3" d="M1190.3 686.4s-18.3-3.2-27.5-3.4a139 139 0 0 0-33.5 2.3c-4.5 1-8.9 3-13 5.1-2.3 1.2-4 3.5-6.5 4.5-2.5 1.1-5.3 1.1-8 1.8-3.3.9-6.8 1.4-9.9 3-2.2 1-3.8 3.2-6 4.3-3.7 1.8-8 2.4-12 3.6-3.9 1-7.6 2.6-11.5 3.2-1.4.3-4.5.2-4.5.2s-8.9 7.8-9.4 19.9c-.4 10-6.2 18.8-5 29 7 2 14-1.4 20.6-3.7 4.4-1.5 8-4.8 12.3-6.5 5.5-2.2 11.7-2.3 17.1-4.7 4.8-2 8.4-6.4 13.2-8.1 6.4-2.3 13.4-2.3 20.1-2.4a183 183 0 0 1 43.4 5.6z" transform="translate(202.7 92.7)scale(.16463)" id="path70"/><path style="color:#000000;fill:#d4212f;fill-rule:evenodd;stroke-linecap:square;stroke-miterlimit:6.3;-inkscape-stroke:none" d="M1152.9 681.3c-7.6 0-15.4.3-23 2q-6.2 1.6-11.8 4.8c-3.4 1.9-5.4 4.7-7.7 5.7-4.8 2.2-11.2 1.7-17.4 4-5.2 1.8-9.3 5.1-13.7 7q-3.8 2-7.7 3.5a69 69 0 0 1-11.8 2.7h-1.9q-1.7 1.6-2.8 3.1h3.8a68 68 0 0 0 22-5.6c5-2.2 9.1-5.4 13.5-7 5-1.9 11.6-1.2 17.7-4 3.6-1.7 5.6-4.6 7.9-5.9q5.2-3 10.9-4.3c7-1.7 14.5-2 22-2a209 209 0 0 1 29.8 2.9c2.5.4 3.3-3.5.6-4l-9.3-1.2c-7-.9-15-1.6-21.1-1.7" transform="translate(202.7 92.7)scale(.16463)" id="path71"/><path style="color:#000000;fill:#d4212f;fill-rule:evenodd;stroke-linecap:square;stroke-miterlimit:6.3;-inkscape-stroke:none" d="M1149.9 689.5c-7.6 0-15.4.3-23 2q-6.1 1.6-11.8 4.8c-3.4 1.9-5.4 4.7-7.6 5.7-4.8 2.2-11.2 1.7-17.4 4-5.2 1.8-9.4 5.1-13.7 7a51 51 0 0 1-8 3c-4.7 1.2-16 2-16 2q-1.2 2-2 4s13.8-.8 19-2.1q4.5-1.3 8.6-3.2c5-2.2 9-5.4 13.4-7 5-1.9 11.6-1.2 17.7-4 3.6-1.7 5.7-4.6 8-5.9q5.1-3 10.8-4.3c7-1.7 14.5-2 22-2a209 209 0 0 1 29.8 2.9c2.6.4 6.4-2.8 6.4-2.8q-1.8-.5-5.7-1.2l-9.3-1.3c-7-.8-15-1.5-21.2-1.6" transform="translate(202.7 92.7)scale(.16463)" id="path72"/><path style="color:#000000;fill:#d4212f;fill-rule:evenodd;stroke-linecap:square;stroke-miterlimit:6.3;-inkscape-stroke:none" d="M1146.8 698c-7.6 0-15.3.3-22.9 2q-6.3 1.6-11.9 4.8c-3.3 1.9-5.3 4.7-7.6 5.7-4.8 2.2-11.2 1.7-17.4 4-5.2 1.8-9.3 5.1-13.7 7a54 54 0 0 1-8 3 167 167 0 0 1-16.3 2.4l-.5 4s12.9-1.2 17.8-2.5q4.5-1.3 8.6-3.2c5-2.2 9-5.4 13.5-7 5-1.9 11.6-1.2 17.7-4 3.5-1.7 5.6-4.6 7.9-5.9q5.1-3 10.8-4.3c7.1-1.7 14.6-2 22-2a209 209 0 0 1 29.9 2.9c2.5.4 3.2-3.5.6-4l-9.3-1.3c-7-.8-15-1.5-21.2-1.6" transform="translate(202.7 92.7)scale(.16463)" id="path73"/><path style="color:#000000;fill:#d4212f;fill-rule:evenodd;stroke-linecap:square;stroke-miterlimit:6.3;-inkscape-stroke:none" d="M1143.2 707.3c-7.6-.1-15.3.2-22.9 2q-6.3 1.6-11.9 4.7c-3.4 1.9-5.4 4.7-7.6 5.7-4.8 2.2-11.2 1.7-17.4 4-5.2 1.9-9.3 5.1-13.7 7a46 46 0 0 1-8 3 127 127 0 0 1-13.7 1.6l-.9 4s10.8-.6 15.6-1.7q4.6-1.2 8.6-3.2c5-2.2 9-5.4 13.5-7 5-1.8 11.5-1.2 17.6-4 3.6-1.7 5.7-4.6 8-5.9q5.1-2.9 10.8-4.3c7-1.7 14.5-2 22-2 5.9.1 13.7.6 20.6 1.4l9.3 1.5c2.5.4 5 .6 5.7.8l.6-3.6q-1.8-.5-5.7-1.1l-9.3-1.3c-7-.9-15-1.6-21.2-1.6" transform="translate(202.7 92.7)scale(.16463)" id="path74"/><path style="color:#000000;fill:#d4212f;fill-rule:evenodd;stroke-linecap:square;stroke-miterlimit:6.3;-inkscape-stroke:none" d="M1139.8 714.9c-7.6-.1-15.4.2-23 2q-6.2 1.5-11.8 4.7c-3.4 1.9-5.4 4.7-7.7 5.7-4.8 2.2-11.1 1.7-17.4 4-5.1 1.8-9.3 5.1-13.6 7a48 48 0 0 1-8 3c-3.7.9-12.3 1.6-12.3 1.6l-1 3.8h1.7c3.8-.2 8.3-.5 12.5-1.5q4.7-1.3 8.7-3.2c5-2.2 9-5.4 13.4-7 5-1.8 11.6-1.2 17.7-4 3.6-1.7 5.6-4.6 8-5.9q5-2.9 10.8-4.3c7-1.7 14.5-2 22-2a209 209 0 0 1 35 4l1.6.6 1.5-3.9-2-.6q-1.7-.5-5.6-1.2l-9.4-1.2c-7-.9-15-1.6-21.1-1.6" transform="translate(202.7 92.7)scale(.16463)" id="path75"/><path style="color:#000000;fill:#d4212f;fill-rule:evenodd;stroke-linecap:square;stroke-miterlimit:6.3;-inkscape-stroke:none" d="M1137 722.8c-7.5 0-15.3.3-22.8 2q-6.3 1.6-12 4.8c-3.3 1.8-5.3 4.6-7.6 5.7-4.8 2.2-11.2 1.6-17.4 3.9-5.1 1.9-9.3 5.2-13.6 7.1a47 47 0 0 1-8 3 84 84 0 0 1-11.5 1l-.6 4s9.2-.2 13-1.2c3.1-.7 6-2 8.7-3.1 5-2.2 9-5.4 13.4-7 5-1.9 11.6-1.3 17.7-4 3.6-1.7 5.6-4.7 8-6q5-2.9 10.8-4.3 10.6-2.2 22-1.9a209 209 0 0 1 36.5 4.2l1.4-3.6s-4.8-1.3-7.4-1.7l-9.4-1.3c-7-.8-15-1.5-21.1-1.6" transform="translate(202.7 92.7)scale(.16463)" id="path76"/><path style="color:#000000;fill:#d4212f;fill-rule:evenodd;stroke-linecap:square;stroke-miterlimit:6.3;-inkscape-stroke:none" d="M1133.4 731.5a99 99 0 0 0-22.9 2q-6.2 1.6-11.9 4.7c-3.3 2-5.3 4.7-7.6 5.8-4.8 2.2-11.2 1.6-17.4 3.9-5.3 2-9.2 5.6-13.5 7a66 66 0 0 1-15.2 2.6h-1.6l-.2 4.1h2c4-.3 10.9-1 16.3-2.9s9.3-5.5 13.6-7c5-2 11.6-1.3 17.7-4.1 3.6-1.7 5.6-4.6 7.9-5.9q5.2-2.9 10.9-4.3c7-1.7 14.5-2 21.9-2 6 .1 13.9.8 20.7 1.7q5.4.7 9.3 1.4c2.5.4 6.8 1.6 6.8 1.6l1.5-4s-5.2-1.3-7.8-1.7l-9.3-1.3c-7-.8-15-1.6-21.2-1.6" transform="translate(202.7 92.7)scale(.16463)" id="path77"/><path style="display:inline;fill:#002868;stroke-width:0.177133" d="M1190.3 686.4s-3.8-1.7-5.8-2.2c-5.7-1.5-11.7-1.8-17.6-2.3-6.5-.5-19.4-.5-19.4-.5s-3.9 9-5.2 13.7c-1.5 5.3-3 16.2-3 16.2s15 .3 22.4 1.1c6 .7 17.7 3.1 17.7 3.1z" transform="translate(202.7 92.7)scale(.16463)" id="path78"/><path style="display:inline;fill:#ffffff;fill-opacity:0.994236;stroke-width:0.00217921" d="m1162.5 683.9-.3 1.5-1.6.2 1.4.7-.3 1.5 1.2-1 1.4.7-.7-1.4 1.2-1-1.6.2zm6.4.7-1 1.2-1.6-.5.9 1.2-1 1.2 1.6-.4.9 1.3v-1.5l1.6-.4-1.5-.6zm-12.4 1.4.5 1.5-1.4.9h1.7l.4 1.5.6-1.5h1.6l-1.3-.9.5-1.4-1.3.9zm15 1.5.2 1.5-1.5.6 1.6.4.2 1.5.8-1.3 1.6.3-1-1.2.7-1.3-1.5.6zm-16.9 2-.7 1.3-1.7-.3 1.2 1.1-.8 1.4 1.5-.7 1.1 1.1-.2-1.5 1.5-.7-1.6-.2zm20.5 2.2-.6 1.5-1.6-.1 1.2 1-.6 1.4 1.4-.8 1.2 1-.4-1.5 1.4-.9h-1.6zm-22.8 2.7v1.5l-1.6.5 1.6.5v1.5l1-1.3 1.5.5-1-1.2 1-1.3-1.6.5zm23.8 2.7-1.2 1-1.4-.9.6 1.5-1.2 1 1.6-.2.6 1.5.4-1.5 1.6-.1-1.4-.8zm-20.9 2.2-1 1.1-1.6-.6.8 1.3-1.1 1.1 1.6-.2.7 1.3.3-1.5 1.6-.3-1.5-.6zm16.8 2-.2 1.5-1.6.3 1.5.6-.1 1.5 1-1.1 1.6.6-.9-1.3 1.1-1.2-1.6.4zm-14.3 1.6-.4 1.4h-1.7l1.4 1-.5 1.4 1.3-1 1.4 1-.6-1.5 1.3-1-1.6.1zm11 1.2-1 1.3-1.5-.4 1 1.2-.9 1.3 1.6-.6 1 1.2v-1.5l1.4-.6-1.5-.4zm-7 .8.3 1.5-1.4.8 1.6.1.3 1.6.7-1.4 1.6.1-1.2-1 .7-1.4-1.4.8z" transform="translate(202.7 92.7)scale(.16463)" id="path79"/><path style="display:inline;fill:none;fill-opacity:1;fill-rule:evenodd;stroke:#000000;stroke-width:1.734;stroke-linecap:round;stroke-linejoin:round;stroke-miterlimit:6.3;stroke-dasharray:none;stroke-opacity:1" d="M1152.9 681.3h-5.4v0a84 84 0 0 0-17.5 2q-6.3 1.6-12 4.8c-3.3 1.9-5.3 4.7-7.6 5.7-4.8 2.2-11.2 1.7-17.4 4-5.1 1.8-9.3 5.1-13.6 7q-4 2-7.8 3.5a69 69 0 0 1-11.7 2.7h-2l-1.3 1.3-.1.2-1.4 1.6q0 0 0 0v0l-2.7 4h0l-1.1 2.1-.7 1.5-.2.4h0a28 28 0 0 0-1.4 4.8h0l-.5 4q-.1 3.3-1 6.6l-.2 1-1.2 4.4h-.1l-1 3.8h0l-.9 3.6h0l-.6 4v0l-.2 3.3h0l-.2 4h2c4-.3 10.9-1 16.3-2.9s9.3-5.5 13.6-7c5-2 11.6-1.3 17.7-4.1 3.6-1.7 5.6-4.6 7.9-5.9q5.2-2.9 10.9-4.3c7-1.7 14.5-2 21.9-2 6 .1 13.9.8 20.7 1.7l9.1 1.3 7 1.7 1.5-4 1.9-5v0l1.4-3.7 1.4-4v0l1.5-3.9v0l1.5-4 10.9-29s-3.8-1.8-5.8-2.3c-5.7-1.5-11.7-1.8-17.6-2.3a182 182 0 0 0-14-.6" transform="translate(202.7 92.7)scale(.16463)" id="path80"/></g><path style="display:inline;fill:#fefdfe;fill-opacity:1;fill-rule:evenodd;stroke:none;stroke-width:1.734;stroke-linecap:round;stroke-linejoin:round;stroke-miterlimit:6.3;stroke-dasharray:none;stroke-opacity:1" d="M999.7 42.3h-.9S983.3 45 975.5 46a846 846 0 0 1-60.6 6.4 597 597 0 0 1-37.2.5c-4.2.6-2.7 4.5.3 4.9 0 0 15.8.9 23.8.7 11-.1 22.1-1.3 33.2-2.1q14.8-1 29.5-2.7 14-1.8 28-4.4l7.8-1.6c3-.6 3.6-5.1-.6-5.4m-659.9 34h-1.2q-1.4.3-2 1.3a4 4 0 0 0-.3 3.6c.8 1.6 2.9 2.3 4.6 3 27.1 12.1 57.2 16.3 86.4 22 39.4 7.8 79.5 11.8 119.4 16.9q24.4 3.2 49 5.6c33.2 3 66.5 4.9 99.8 7 18.7 1 37.4 2.4 56.2 3 35 1.1 69.9 1.8 104.8 1 20-.4 40-2 59.8-3.3 6.2-.4 18.5-1.5 18.5-1.5l-.8-4.6s-45.5 1.2-68.3 1.2a3022 3022 0 0 1-153.9-4.3C677 125 642 123 607.3 119.5Q547 113.4 487 104.2c-22.8-3.5-45.4-7.9-68-12-22.1-4.1-44.3-8-66.2-12.8l-9.2-2.3q-2-.6-3.9-.9m639.4 17c1.7-.2 3.5-5.7-1-4.7-15.5 2.5-31.2 1-46.8 1.5-4.7 0-2.2 4-.7 4 15.2 0 31.2.5 48.5-.9" transform="translate(229.4 220.5)scale(.16463)" id="path81"/><g style="display:inline" id="g83"><path style="display:inline;fill:#efae0e;fill-opacity:1;fill-rule:evenodd;stroke:none;stroke-width:5.32362;stroke-linecap:round;stroke-linejoin:round;stroke-miterlimit:6.3;stroke-dasharray:none;stroke-opacity:1" d="m437.9 794.5-.6 5 10.1 2.8 1-5.7zm16.1 3.9-.6 4.9 10.1 2.9 1-5.7zm18.4 5.4-.7 4.8 10.2 3 1-5.7zm-39.6 3.8-.7 6.5 10.2 3.8 1-7.5zm19.5 18.7s5.6 6.6 9 9.2c6.8 5.4 14.8 9 22.4 13.3 2.4 1.3 4.5 3.8 7.2 3.8q1.7 0 2.8-1.5c.8-1.2 1.1-3 .7-4.4q-.7-2.4-3-3.8c-1.4-.9-3.3-.5-4.9-1-3.3-1-6.5-2.7-9.7-4.1-8.2-3.7-24.5-11.5-24.5-11.5m684 18.4c-1.2 0-2.5 1.3-2.8 2.4-1.3 4.3-3.2 7.7-4.4 11.5-.4 1.5-.1 3.8 1.3 4.4 1.6.6 3.9-1.2 4.4-2.9 1.3-4.4 2.5-6.5 3.8-10.4.5-1.7-.1-4.4-1.8-4.9zm-28 .2c-1.2 0-2.5 1.2-2.8 2.4-1.3 4.2-3.2 7.6-4.4 11.5-.4 1.4-.1 3.8 1.3 4.3 1.6.6 3.9-1.1 4.4-2.8 1.3-4.4 2.5-6.5 3.8-10.5.5-1.6-.2-4.3-1.8-4.8zm13.7.3c-1.2 0-2.5 1.3-2.8 2.4-1.3 4.3-3.2 7.7-4.4 11.5-.4 1.5-.1 3.8 1.3 4.4 1.6.6 3.9-1.2 4.3-2.8 1.3-4.5 2.6-6.5 3.9-10.5.5-1.7-.2-4.4-1.8-4.9z" transform="translate(202.7 92.7)scale(.16463)" id="path82"/><path style="display:inline;fill:none;fill-opacity:1;fill-rule:evenodd;stroke:#efae0e;stroke-width:4.6;stroke-linecap:round;stroke-linejoin:round;stroke-miterlimit:6.3;stroke-dasharray:none;stroke-opacity:1" d="m433.3 778-.2 27 2.5 1.9 58 15 1.1-6.9-1-4-4.1-3.6v-13.6l-7.7-1.8-1.8 5.4-13-3.3-2-8.2-6.7-.8-1 5.7-13.6-4.1-1.5-7.4zm712.6 62.4-45 .2z" transform="translate(202.7 92.7)scale(.16463)" id="path83"/></g><path style="display:inline;fill:#d4212f;fill-opacity:1;fill-rule:evenodd;stroke:#000000;stroke-width:2;stroke-linecap:round;stroke-linejoin:round;stroke-miterlimit:6.3;stroke-dasharray:none;stroke-opacity:1" d="m347.5 111.3-27.9.3 30.7 43.7 21.7-.5zm17.6 1.6c-1.5 5.6 5.7 11.9 12 18.1 0 0 145.6 10.3 218.4 15.9 94.6 7.2 283.8 23 283.8 23l-3-10S684.8 140 589 131.3c-74.6-6.8-224-18.4-224-18.4m542.5 45c-1.7 0-3.5 2.1-3.5 3.8 0 2.6 3 4.8 5.6 5.4 10.9 2.4 30 3.3 30 3.3l1-8.7s-22.2-2.8-32.8-3.8zm4.1 16.6c-2.2-.1-4.7 2.3-5 4.6-.3 1.5.8 3.5 2.2 3.8 10.4 2.3 26.1 3.3 26.1 3.3l2.3-9.2s-16.9-2.1-25.6-2.5m1.8 15.6c-1.6 0-3.4 1.9-3.5 3.6-.1 1.5 1.3 3.3 2.8 3.5 5.9 1 16.6 1.6 16.6 1.6l2.5-7.2s-12.3-1.3-18.4-1.5" transform="translate(229.4 220.5)scale(.16463)" id="path84"/><path style="display:inline;fill:#efae0e;fill-opacity:1;fill-rule:evenodd;stroke:none;stroke-width:2;stroke-linecap:round;stroke-linejoin:round;stroke-miterlimit:6.3;stroke-dasharray:none;stroke-opacity:1" d="m416.1 139.5.2 20.4 27.7 3v-20.4zm70.4 7.5v20.5l29.1 3 .4-20.4zm76.9 7.7.2 20.5 27.4 2.2-.3-20.5zM629 160l-.7 20.4 34 3.3-.5-20.5zm71.3 7.1.5 20.5 30.2 3.2-.5-20.5zm70.4 7-.4 20.4 32.3 2.1v-20.4zm72.5 4.3.6 20.5 30.3 1.4-.2-20.4z" transform="translate(229.4 220.5)scale(.16463)" id="path85"/><path style="display:inline;fill:#efae0e;fill-opacity:1;fill-rule:evenodd;stroke:#000000;stroke-width:2;stroke-linecap:round;stroke-linejoin:round;stroke-miterlimit:6.3;stroke-dasharray:none;stroke-opacity:1" d="M398.8 112.5a6 6 0 0 0-3.3 1c-1.4 1-3 2.5-3.5 4.1-8.7 26-29 89.6-28.1 90.1 3 2 8.2 3 11.7.3.9-.7 17.5-60.4 25.7-89.3.4-1.7 1-3.8.1-5.1q-1-1.1-2.6-1m68.5 7.4q-1.6 0-3.1 1c-1.3 1-2.7 2.3-3 3.9-5.5 24.6-17.6 85.1-16.7 85.6 3.4 1.9 8.6 2.8 11.8.3.8-.7 9.8-57.5 14.3-85 .2-1.6.5-3.5-.5-4.8q-1.1-1-2.8-1m76 7.3q-1.7 0-3 1c-1.3 1-2.6 2.3-2.8 3.8a1471 1471 0 0 0-12 85.7c3.4 1.8 8.7 2.7 11.7.2.8-.6 6.8-57.4 9.7-84.8.2-1.7.3-3.6-.7-4.9q-1.2-1.1-2.9-1m68.9 6.8q-1.7 0-3 1c-1.1 1-2.2 2.3-2.3 3.8-1.3 24.6-3.3 85.2-2.3 85.7 3.7 1.8 9 2.7 11.8.2.7-.6.2-57.4 0-84.9 0-1.6 0-3.6-1.3-4.8q-1.2-1.1-2.9-1m69.9 4.8a5 5 0 0 0-3 1c-1 1-2.1 2.3-2 3.9 0 24.6 1.8 85.1 2.8 85.6 3.7 1.9 9.2 2.8 11.8.3.6-.7-3.3-57.5-5-84.9-.2-1.6-.4-3.6-1.7-4.9-.7-.7-2-1-3-1m64 5.1q-1.6 0-2.7 1c-.9 1-1.7 2.4-1.4 4 4.6 25.3 17 87.3 18.1 87.8 4.2 1.9 9.8 2.8 11.9.2.6-.6-13.5-58.8-20.2-87-.4-1.6-1-3.6-2.5-5a5 5 0 0 0-3.1-1m132.1 2.6q-1.6 0-2.6 1-1.4 1.6-1 4a1845 1845 0 0 0 29.4 89.2c4.3 2 10 2.9 11.8.3.5-.7-21-59.8-31.2-88.4a11 11 0 0 0-3-5q-1.7-1.1-3.4-1M814 148q-1.6 0-2.6 1c-.9 1-1.6 2.4-1.2 4 6.8 25.3 24.5 87.5 25.6 88 4.3 2 10 2.9 11.9.3.5-.7-18.5-59-27.5-87.2-.6-1.7-1.3-3.7-3-5q-1.6-1.1-3.2-1" transform="translate(229.4 220.5)scale(.16463)" id="path86"/><g style="display:inline" id="g93"><path style="display:inline;fill:#d4212f;fill-opacity:1;fill-rule:evenodd;stroke:#000000;stroke-width:2;stroke-miterlimit:6.3;stroke-dasharray:none;stroke-opacity:1" d="M628 425.2s-23.2.8-34.3 4a99 99 0 0 0-30.4 14 130 130 0 0 0-25 25.7c-2.8 3.6-6.8 7-7.5 11.6-.6 3.3.6 7 2.5 9.8 2.6 3.7 9.3 3.7 11.2 8 .9 2 .2 4.4-.7 6.4-3.1 7-8.7 13.2-15.2 17.4-6 3.9-14.3 2.7-20.6 6.1a45 45 0 0 0-15.2 13c-2.3 3.3-5 7.3-4.3 11.3.3 2 1.9 4.4 4 4.7 2 .2 3.3-2.2 4.6-3.7 2.4-2.5 3.4-6.2 5.8-8.6q5.2-5.3 12-8c4.7-1.7 10.3-.2 15.1-1.8q9.8-3.1 17.4-9.8a43 43 0 0 0 13.4-17.7c1.4-4 2.2-8.8.3-12.6-1.6-3.4-6.9-3.5-9-6.5-1-1.5-1.8-3.4-1.4-5 1-5.3 6-9 10-12.4q5.5-4.4 12-7.2 11.9-5.2 24.6-7.2c8.2-1.5 25-1.5 25-1.5l3.6.4z" transform="translate(202.7 92.7)scale(.16463)" id="path87"/><path style="display:inline;fill:#ffffff;fill-opacity:1;fill-rule:evenodd;stroke:none;stroke-width:2;stroke-miterlimit:6.3;stroke-dasharray:none;stroke-opacity:1" d="m588.3 430.8 2.1 27 6.9-1.2-1.9-27.9zM559.8 446l7.7 20.5-4.6 3-7.5-19.7zm-9.7 9-4.4 5 9.5 16 3.8-3.4z" transform="translate(202.7 92.7)scale(.16463)" id="path88"/><path style="fill:#ffffff;fill-opacity:1;fill-rule:evenodd;stroke:none;stroke-width:2;stroke-miterlimit:6.3;stroke-dasharray:none;stroke-opacity:1" d="m536.5 471.2 14.8 16-.6-3.8-10.8-16.4z" transform="translate(202.7 92.7)scale(.16463)" id="path89"/><path style="display:inline;fill:#002a86;fill-opacity:1;fill-rule:evenodd;stroke:none;stroke-width:0.811;stroke-miterlimit:6.3;stroke-dasharray:none;stroke-opacity:1" d="m602.4 427.6-.6 28.5c8-.5 15.9-1.3 24-.5l2.2-30.4c-8.7.6-17.9.8-25.6 2.4" transform="translate(202.7 92.7)scale(.16463)" id="path90"/><path style="display:inline;fill:#ffffff;fill-opacity:1;fill-rule:evenodd;stroke:none;stroke-width:2;stroke-miterlimit:6.3;stroke-dasharray:none;stroke-opacity:1" d="m583.7 432.5-6.3 2.7 3.8 25.2 6-1.5zm-17.7 9 6.7 22.4 4.1-1.7-6-23.7zM550.3 485s.8 2.6 1.9 4.2c1.4 2.1 3.3 4.5 3.6 7.2.4 3.6-1.5 7.2-2.9 10.6q-2 4.6-5 8.6a42 42 0 0 1-9.4 9 28 28 0 0 1-7.5 3.3c-3 .9-6.3.9-9.4 1.5-3.5.7-7.2 1-10.5 2.5q-3.8 2-7 4.8-3.4 3-6.3 6.6-2.3 3-4.5 6.3-1.2 1.9-2.7 3.8c-1.3 1.4.3 2.6.3 2.6l3.7.4 5.6-7.7c2-2.5 3.6-5.4 6-7.4q4-3 8.7-4.6c2.6-.8 5.4-.8 8.1-1.2 3.5-.6 7.1-.8 10.4-2a56 56 0 0 0 15.2-9.2c2.4-2 6.3-7 6.3-7s2.6-4.8 3.6-7.3c1.2-3 2.7-5.8 3-9 .3-2.2-.6-6.8-.6-6.8l-5.6-3.3q-2.8-2.6-5-5.9" transform="translate(202.7 92.7)scale(.16463)" id="path91"/><path style="fill:#ffffff;fill-opacity:1;fill-rule:evenodd;stroke:none;stroke-width:2;stroke-miterlimit:6.3;stroke-dasharray:none;stroke-opacity:1" d="M622.5 428.8a1 1 0 0 0-.8.8 1 1 0 0 0 .8.7 1 1 0 0 0 .7-.7 1 1 0 0 0-.7-.8m-5.3.6a1 1 0 0 0-.8.8 1 1 0 0 0 .8.7 1 1 0 0 0 .8-.7 1 1 0 0 0-.8-.8m-5.4.5a1 1 0 0 0-.7.7 1 1 0 0 0 .7.8 1 1 0 0 0 .8-.8 1 1 0 0 0-.7-.8m-5 .3a1 1 0 0 0-.7.8 1 1 0 0 0 .8.7 1 1 0 0 0 .7-.7 1 1 0 0 0-.7-.8m15.6 3.3a1 1 0 0 0-.7.7 1 1 0 0 0 .7.8 1 1 0 0 0 .8-.8 1 1 0 0 0-.8-.7m-5.4 1.1a1 1 0 0 0-.8.8 1 1 0 0 0 .8.8 1 1 0 0 0 .8-.8 1 1 0 0 0-.8-.8m-5.4.1a1 1 0 0 0-.8.8 1 1 0 0 0 .8.8 1 1 0 0 0 .7-.8 1 1 0 0 0-.7-.8m-5 .3a1 1 0 0 0-.8.8 1 1 0 0 0 .8.7 1 1 0 0 0 .8-.7 1 1 0 0 0-.8-.8m15.8 3.6a1 1 0 0 0-.7.8 1 1 0 0 0 .7.8 1 1 0 0 0 .8-.8 1 1 0 0 0-.8-.8m-5.6.7a1 1 0 0 0-.7.8 1 1 0 0 0 .7.8 1 1 0 0 0 .8-.8 1 1 0 0 0-.8-.8m-5.2.5a1 1 0 0 0-.8.8 1 1 0 0 0 .8.7 1 1 0 0 0 .7-.7 1 1 0 0 0-.7-.8m-5.3.6a1 1 0 0 0-.7.8 1 1 0 0 0 .7.8 1 1 0 0 0 .8-.8 1 1 0 0 0-.8-.8m15.9 3.6a1 1 0 0 0-.8.7 1 1 0 0 0 .8.8 1 1 0 0 0 .7-.8 1 1 0 0 0-.7-.7m-5.2.4a1 1 0 0 0-.8.8 1 1 0 0 0 .8.7 1 1 0 0 0 .8-.7 1 1 0 0 0-.8-.8m-5.5.6a1 1 0 0 0-.8.8 1 1 0 0 0 .8.8 1 1 0 0 0 .8-.8 1 1 0 0 0-.8-.8m-5.3.3a1 1 0 0 0-.8.8 1 1 0 0 0 .8.7 1 1 0 0 0 .7-.7 1 1 0 0 0-.7-.8M622 449a1 1 0 0 0-.8.8 1 1 0 0 0 .8.8 1 1 0 0 0 .7-.8 1 1 0 0 0-.7-.8m-5.2.2a1 1 0 0 0-.7.8 1 1 0 0 0 .7.7 1 1 0 0 0 .8-.7 1 1 0 0 0-.8-.8m-5.3.5a1 1 0 0 0-.8.7 1 1 0 0 0 .8.8 1 1 0 0 0 .8-.8 1 1 0 0 0-.8-.7m-5.2.4a1 1 0 0 0-.7.8 1 1 0 0 0 .7.7 1 1 0 0 0 .8-.7 1 1 0 0 0-.8-.8" transform="translate(202.7 92.7)scale(.16463)" id="path92"/><path style="display:inline;fill:none;fill-opacity:1;fill-rule:evenodd;stroke:#000000;stroke-width:2;stroke-miterlimit:6.3;stroke-dasharray:none;stroke-opacity:1" d="M628 425.2s-23.2.8-34.3 4a99 99 0 0 0-30.4 14 130 130 0 0 0-25 25.7c-2.8 3.6-6.8 7-7.5 11.6-.6 3.3.6 7 2.5 9.8 2.6 3.7 9.3 3.7 11.2 8 .9 2 .2 4.4-.7 6.4-3.1 7-8.7 13.2-15.2 17.4-6 3.9-14.3 2.7-20.6 6.1a45 45 0 0 0-15.2 13c-2.3 3.3-5 7.3-4.3 11.3.3 2 1.9 4.4 4 4.7 2 .2 3.3-2.2 4.6-3.7 2.4-2.5 3.4-6.2 5.8-8.6q5.2-5.3 12-8c4.7-1.7 10.3-.2 15.1-1.8q9.8-3.1 17.4-9.8a43 43 0 0 0 13.4-17.7c1.4-4 2.2-8.8.3-12.6-1.6-3.4-6.9-3.5-9-6.5-1-1.5-1.8-3.4-1.4-5 1-5.3 6-9 10-12.4q5.5-4.4 12-7.2 11.9-5.2 24.6-7.2c8.2-1.5 25-1.5 25-1.5l3.6.4z" transform="translate(202.7 92.7)scale(.16463)" id="path93"/></g><path style="display:inline;fill:#efae0e;fill-opacity:1;fill-rule:evenodd;stroke:none;stroke-width:14.2325;stroke-linecap:round;stroke-linejoin:round;stroke-miterlimit:6.3;stroke-dasharray:none;stroke-opacity:1" d="M611-592.4A589.5 589.5 0 0 0 21.7-3a589.5 589.5 0 0 0 589.5 589.4A589.5 589.5 0 0 0 1200.6-2.9 589.5 589.5 0 0 0 611-592.4m0 14.3A575 575 0 0 1 1186.3-2.9a575 575 0 0 1-575.1 575.1A575 575 0 0 1 35.9-2.9a575 575 0 0 1 575.2-575.2" transform="translate(229.4 220.5)scale(.16463)" id="path94"/><path style="display:inline;fill:#efae0e;fill-opacity:1;fill-rule:evenodd;stroke:none;stroke-width:17.3436;stroke-linecap:round;stroke-linejoin:round;stroke-miterlimit:6.3;stroke-dasharray:none;stroke-opacity:1" d="M611-735.6A732.6 732.6 0 0 0-121.4-2.9 732.6 732.6 0 0 0 611 729.7 732.6 732.6 0 0 0 1343.7-3a732.6 732.6 0 0 0-732.6-732.7m0 14.3A718.3 718.3 0 0 1 1329.5-2.9a718.3 718.3 0 0 1-718.3 718.3A718.3 718.3 0 0 1-107.2-3 718.3 718.3 0 0 1 611-721.3" transform="translate(229.4 220.5)scale(.16463)" id="path95"/><path style="display:inline;fill:#efae0e;fill-opacity:1;fill-rule:evenodd;stroke:none;stroke-width:18.035;stroke-linecap:round;stroke-linejoin:round;stroke-miterlimit:6.3;stroke-dasharray:none;stroke-opacity:1" d="M611-776A773 773 0 0 0-162-3a773 773 0 0 0 773 773.2A773 773 0 0 0 1384.3-3a773 773 0 0 0-773.1-773.2m0 26.1a747 747 0 0 1 747 747 747 747 0 0 1-747 747A747 747 0 0 1-135.8-3a747 747 0 0 1 747-747" transform="translate(229.4 220.5)scale(.16463)" id="path96"/><path style="fill:#ffffff;fill-opacity:1;stroke:none;stroke-width:2.42968;stroke-miterlimit:4.3;stroke-dasharray:none" class="UnoptimicedTransforms" d="M874.4 71.8h29v20h-29Z" transform="translate(229.4 220.5)scale(.16463)" id="path97"/><path style="fill:#ffffff;fill-opacity:1;stroke:none;stroke-width:2.42968;stroke-miterlimit:4.3;stroke-dasharray:none;stroke-opacity:1" d="m903.6 91.9-29 .5-.3-20 28.8-.6zm-49.4.7h-29l.2-20.1h28.8zm-49.3-.3q-14.5-.2-29-.7l.6-20 28.7.6zM755.6 91l-29-1.3 1-20.1 28.7 1.3zm-49.3-2.5-29-1.9 1.5-20 28.7 1.9zM657 85l-29-2.6 2-20q14.2 1.4 28.6 2.6zm-49.2-4.6L579 77.2l2.4-20 28.5 3.2zm-49-5.7-28.7-4L533 51l28.5 3.8zM510 67.8l-28.7-4.6 3.3-19.8 28.4 4.5zm-48.7-8-28.5-5.3 3.7-19.7L465 40zm-48.5-9.2-28.4-6 4.3-19.6 28.1 6zm-48.2-10.3-28.3-6.7 4.8-19.5 28 6.6z" class="UnoptimicedTransforms" transform="translate(229.7 220.5)scale(.16463)" id="path98"/></g></g></svg>