<svg width="768" height="512" id="svg2" viewBox="0 0 768 512" xmlns="http://www.w3.org/2000/svg"><g id="g2"><path style="display:inline;fill:#ffea0f;fill-opacity:1;stroke:none;stroke-width:0.5;stroke-linecap:square;stroke-linejoin:bevel;stroke-miterlimit:6.7" d="M0 128h768v512H0Z" transform="translate(0 -128)" id="path1"/></g><g id="g3"><path style="display:inline;fill:#002a86;fill-opacity:0.996078;stroke:none;stroke-width:0.7;stroke-dasharray:none;stroke-opacity:1" d="M0 128v512h768V128H384Zm370 54.4h27.4v12.8h-15.3v8.3h7v12.2h-7v20.5h-12.2zm-25.8.8h3.8q3.3.2 6.1 1.6 2.5 1.5 4 3.8a23 23 0 0 1 3.1 7.1c1 3.5 1.2 7.2 1.4 10.8q.3 6.3-.2 12.8-.4 5-2 9.7-1.3 2.8-3.5 4.8-1.9 1.5-4.2 2.3-3 .8-6.4.7a19 19 0 0 1-6.5-1q-2.2-1-4-2.7a16 16 0 0 1-3.1-4.2q-1.5-3.2-2.2-6.7-1-6.7-.9-13.4c0-4.6-.2-9.3 1-13.7q1-4.1 3.6-7.4a14 14 0 0 1 10-4.5m98 .9q3.9 0 7.4 1.3a11 11 0 0 1 6 6.3q1.4 3.1 2 6.4c.6 2.4 1 9.6.9 14.4 0 4.7 0 9.5-1.1 14.1q-.6 3-2.5 5.8a13 13 0 0 1-4.3 3.6q-3 1.4-6.4 1.7-3 .3-6.1-.3-2.5-.6-4.6-2-2.2-1.6-3.7-4a20 20 0 0 1-2.7-5.8c-1.2-4.4-1.2-9.1-1.3-13.7-.2-4.8-.4-9.6.4-14.4q.6-3.1 2-6.1 1-2.2 2.6-3.7 1.9-1.6 4-2.5 3.7-1.2 7.4-1.1M297 186.6l.4 11.3-15.4 4-.4 8.4 7.8-.5v10.8l-7 2.2s.2 9.5.5 9.5l15-2.5c.2 0 .4 11.2.4 11.2l-27.5 5.7s-1.7-53.2-1.4-53.5a869 869 0 0 1 27.6-6.6m170.3 1.1s20.3 4 21.6 4.4 3.8 2 5.3 3.5q3 2.7 4.5 6.2a20 20 0 0 1 1.5 7.8q.1 3.9-1.3 7.5c-1 2.2-3 3.8-4.4 5.9-1 1.4-2.6 2.6-2.7 4.3 0 1.3 1 2.5 1.7 3.6q1.5 2 3.8 3.3a16 16 0 0 0 5.2 1.5c.1 1.6.3 9.1.5 10.2-2 .2-5-.4-6.3-.7a17 17 0 0 1-4.2-1.9q-3-1.7-5.2-4.2c-1.7-2-2.6-4.4-4-6.4-1-1.3-2-3.6-3-3.8-1.5-.2-1.5-.2-1.5 7.1v7.4s-10.2-1-10.2-1.6zm44.6 7 27 5.7.3 10.1c-.1.1-16-2.6-16.3-2.6v10.3l9 2.9v9.4l-8.6-1.4-.3 10 16.3 4.4s.2 10-.5 9.9c-.4 0-24.6-5.4-24.8-5.8s-2.1-53-2.1-53m-165.7.6a6 6 0 0 0-2.4.6c-1.1.6-1.9 2-2.4 3.2-1.4 3.4-1.2 7.3-1.2 11 0 3.6 0 7.3 1 10.7.6 1.5 1.2 3.3 2.6 4.2 1.4.8 3.3 1 4.8.4 1.3-.5 2.2-2 2.8-3.2 1.6-3.6 1.6-7.9 1.6-11.8s.2-8.1-1.5-11.6a6 6 0 0 0-3-3.2q-1-.4-2.3-.3m-88.2.8c.4 2.2.5 11.5.5 11.5l-9.7 1.7 1.8 43.2-11.4 2.2c-.7 0-2.6-42.9-2.6-42.9l-13.1 2.3v-11.8zm183 .2a5 5 0 0 0-3 2c-.9 1.3-1.1 3.5-1.3 10.4-.1 5 0 10.3.5 12.2s1.2 3.9 1.7 4.5q1.1 1.1 3.5 1.2c1.3 0 2.8-.5 3.4-1 .5-.6 1.3-2 1.6-3.4s.7-6.6.7-11.7a64 64 0 0 0-.7-11.3 4 4 0 0 0-2.6-2.7c-1-.3-2.8-.4-3.8-.2m37.2 4v17.5s2.4 0 3.6-.3c2-.6 4.3-1.1 5.8-2.7q2-2.3 2.1-5.5-.1-2.8-1.7-5.1a8 8 0 0 0-2.7-2.5q-2-.9-4-1zm-270.3 4.1c.2.2 16.8 52.5 16.7 52.6l-10.9.6-4.3-9.6-13.2 2c-.8 1.2-3.7 9.2-4.3 10.5l-10 1s10.2-55 10.4-55.2 15.5-2 15.6-1.9m358 1.9q3.5.3 6.5 1.9c2.3 1.3 4 3.3 5.8 5.1 1.1 1.2 3 3.7 3 4 0 .1-7.1 5.5-7.2 5.4-.1-.2-.7-1.9-1.3-2.7q-1.2-2.2-3.2-3.7a8 8 0 0 0-4.2-1.3q-2 0-3.9 1-1.7 1.1-2.6 3c-1.3 3-1 5.4-1 9.5-.3 4.5-.4 7.5.4 11a11 11 0 0 0 2.1 5.4q1.5 1.5 4 1.9a7 7 0 0 0 4.6-1c1.2-.7 2.1-2 3-3.1l1-1.9-5.3-1.7 1-9.8 13.9 1.3-.2 3.8c0 2-.2 5.3-.7 8q-.7 3.8-2.2 7.2a16 16 0 0 1-3 4.6q-1.6 1.6-3.7 2.4-2.7.9-5.8.7-3.2 0-6.3-1a16 16 0 0 1-4.7-2.3q-2.4-1.8-4.2-4.4a21 21 0 0 1-3-6.4c-1.1-4.2-1-5.8-1-13.1s-.2-9.1 1.1-13.4a15 15 0 0 1 3.5-6.2q2.7-2.5 6.2-3.5 3.7-1.1 7.5-.7m42.8 2.7q4.6-.2 8.5 1.7c2.2 1.3 3.7 3.6 5 5.8a29 29 0 0 1 2.6 9.3q.9 7.2.4 14.4c-.2 4.2-.1 8.6-1.4 12.6q-1 3.3-3.5 5.8-2 2.2-4.9 3-3.1 1-6.7.8-3 .2-5.7-.7-2-.8-3.7-2.3a17 17 0 0 1-3.6-4.6 29 29 0 0 1-2.7-8.4q-1.1-7.3-.7-14.7c.1-4.2.1-8.6 1.4-12.6q.8-3 2.7-5.3a12 12 0 0 1 4.3-3.4q3.8-1.6 8-1.4m-467.2.3H176v10.9h-9V263h-12l-.3-42.5-13.2-.4zm-28.3 1.5a28 28 0 0 1 11 2.6q3 1.6 5.8 3.6l2.9 2-7.6 6.8s-2.1-1.4-3.3-1.9a22 22 0 0 0-7.1-1.8c-1.6 0-3.4-.3-4.6.7q-1 1-.8 2.3c.3 1.2 1.5 2.1 2.4 3 2.3 2 4.9 2.9 7.8 4.6q4.6 2.5 8.5 6c1.6 1.4 3.3 2.8 4.2 4.7q1.1 2.9 1 5.9c0 2-.4 4.7-.8 5.7-.4 1.1-1.4 2.7-2.5 3.8a12 12 0 0 1-4.5 3.1c-4.2 1.5-9 1.5-13.4.8a19 19 0 0 1-11.6-6.5l-2.4-3 7.2-6.8 2.5 2.5c1.3 1.1 2.5 2.5 4 3.2q1.8.8 4 .7 2.2 0 3.9-1.3 1.2-1 1.3-2.5c0-1-.8-2-1.5-2.9-2.6-3.1-5.2-4.2-9.7-7.3-7-4.7-7.5-4.9-9.8-8.5a14 14 0 0 1-1.9-6.4q-.3-3 .8-5.9 1.3-2.5 4-4.2 2.8-2 6.3-2.6a19 19 0 0 1 3.9-.4m557 .5V265l-10.4-.4-13.6-29.3-.4 29.7H635l.3-53.5h11c.4.5 12.3 26.9 12.3 26.9v-27zm-61 9.5c-1.2 0-2.9.5-3.6 1.1-1 .8-1.6 2.4-2 5.6a68 68 0 0 0 .7 20.5 7 7 0 0 0 1.7 2.7c.6.5 1.9.8 3 .8 1 0 2.3-.3 3-.6.6-.4 1.4-1.6 1.8-2.7a86 86 0 0 0 1-19.4c-.3-4-.7-5.3-2-6.5a5 5 0 0 0-3.6-1.5M201 223.1c-.3.3-3.8 15.2-3.8 15.2l8.7-1a127 127 0 0 0-5-14.2M384.2 258c1 0 2.7.5 3 .8s.7.7.7 1.2c-.1.8-1.6 1.5-1.8 1.7l-1.9 1.5c-.7.7-1.4 1.4-1.2 1.9 0 0 4.7-1 4.6.3-.1.7-1.2 2.2-1.1 3.4 0 2 .8 4 1.1 4.7a3 3 0 0 0 1.8 1.7l1.9.6 3.6 1c1.5.5 3.5 1 4.5 1s3.5-.8 5.6-1.7c2.9-1.2 4-2.1 4.7-3.7q1-2 3.7-3.5a17 17 0 0 1 7-1.9c3.3-.2 5 0 7.8 1 2 .8 6 2.9 9.2 4.7a291 291 0 0 1 27.5 18c.2.2-2.2-1-4.5-2.3l-3.8-2.3-12.3-7.3c-3.7-2.3-6.9-4.6-8.1-5.2q-.5 0-.6.2c-.2.1.5 1.3 1 2.3q.6 1.7.2 2.3-.5.5-1.7.5t-2.5-.5q-1.2-.6-2-.3-.7.5.5 1.4l.7.5c.3.1 4.1.6 4.6.4 1-.3 1.6-1.2 1.8-1 .2 0 .5 1.3.5 1.8q0 1-1.2 1.1-1-.1-1.9-.7l-4.1-1.2q-.7-.2-.8.4c0 .3 1.6.9 3.2 1.5 1.5.7 3 1.3 3 1.6q-.2.8-1 1l-1.2-.2q-1.2-.6-2.8-1.8-1.7-1.2-3-1.8-.5-.3-.8-.1-.5.2-.6 1.4l.2 1.1c.4 1 1.6 2 1.7 2.3.2.2-.5.3-1 0l-1.9-2c-.3-.5-.6-1.8-1-2-.5-.5-1-.2-1.2-.2q-.8 0 .2 2c.4.7 1.9 2 2 2.3 0 .3-.9 0-1.2 0a7 7 0 0 1-2.2-2.5c-.7-1.2-.7-2.4-1.2-2.5l-1.3.1c-.2.3.1 2 1 3.1.6.6 2.1 1.8 1.7 1.8q-1 0-1.7-.2c-.8-.3-1.6-1.9-2-2.9-.2-.5-.2-1.4-.5-1.8q-.5-.4-1-.2t-.3 1.4q.1.9-.1 1.5c-.2.2-1.2.3-1.4.3-.5.2-.3.9-.3 1.6q0 1.2-1.2 1.6l-1.1.1q-.5.6-.5 1.4-.3 1.1-1.5 1.7-.4 0-1 .3c-.4.2-.4 1.1-.9 1.6-.3.2-.9 0-1.3.3s-.7 1.6-1.2 2-1.6.5-2 .8-.4 1.3-.7 1.5a3 3 0 0 1-1.8.7q-.8 0-.9.6c0 .2 0 1-.4 1.2s-1.3 0-1.8.2l-.9 1c-.5.3-1.3.2-1.4.2q-.4 0-1-.3l-.6-1.8c-.6-1.1-1.4-2.5-1.9-3q-.4-.3-1-1.2c-.2-.7.4-2 0-2.7l-1-2.7 3 .4q2.5.3 3.6-.6c.5-.3 1.2-1 1.9-1l.7.1q1.3 0 1.7-.6t1.3-.3 1.8-1q.8-1.2 1.6-1.3.8 0 1.2-1t1.3-1q.3.2 1.3-.1c.6-.4 1.2-1.5 2-2.1.5-.5 1-.5 1.6-1 2-1.6 3.1-3.1 4-3.4.5-.1 1.2.4 1.6.5l1.5.1c.5 0 .3.8 1 1h1.6c.3-.1.5-.6.7-.6h.8c.4.1.4.6.7.6h1.8q.4-.2.6-.5l1.5-.7h1.1l1-.8.2-1.1q.2-.8-1-2a5 5 0 0 0-2.6-1.3q-1.1 0-1.2.5 0 .3.3.7l1.3.6c.8.4 1.6 1 1.6 1.4q0 .7-2 .4l-1.7-.4c-.2 0-1 .3-.8.7s1.3 1 1.1 1.1q-.2.2-.8 0l-.8-.4-1-.1c-.4 0-.2.3-.5.4-.4.1-1.3.2-1.5.1-.8 0 0-.8-.6-1q-3-.2-3-.7c0-.4 0-1.4-.2-1.4 0 0-.7 0-1 .3q0 .5-.4 1.1-.7.8-1.7 1.5c-1 1-2 2-3 2.6-.4.4-1 .2-1.3.4-.5.4-1.3 2-1.7 2.2q-.9.1-1.1-.1-.3-.1-1 .4l-.4.7q-.3.6-.7.8-.6.3-1 .2-.4.1-1.2 1-.2.6-.5.8-.4.2-.8-.1c-.3-.2-1 0-1.2.3q-.3.8-1.4 1h-1q-1 0-1.4.6-.6.8-3 .8s-.4-.4-.6-.4l-.7.5a9 9 0 0 1-2.7-.3c-.2-.1 0-1.2.2-2q0-.8.7-1.2.6 0 1.5.3h1.6l1.2-.3c2-.2 3.6-.7 5.8-1.7s5.5-3.5 8.3-6a27 27 0 0 1 7-5.3c1.4-.5 3.4-.7 4.5-.5l3.5.8q1.3.4 1.4-.2-.2-.7-2-1.4c-1.1-.3-3.2-.7-4.4-.7s-3.1.5-4.4 1q-1 .4-3 1.7l-3.5 3.5a35 35 0 0 1-7.8 5.7c-1.8.8-4.7 1.8-6.3 2q-2.3.2-3.1-.2-.5-.5-.6-2.4 0-2.3-1.4-3.7-1.3-1.6-3.4-2.2c-.2-.1-.4.4-.7.4q-.4 0-.7-.2c-.2 0-.5-1.2-.7-1.1-.3.1-.6 1-.8 1.5l-.4 1.4c-.2.3-.4-.3-.6-.9-.3-.6-.9-1.4-1.2-1.4q-.3.2-.8 2.5-.6 2.7-1 1.2a8 8 0 0 1-.5-2.5c0-1.3-.1-1.3-1.2-.3-.7.6-1.5 1.4-1.7 1.4-.3 0-.3-1.2-.3-2.3q0-1.6-.3-1.9l-.7.3c-.3 0-.9 1-1 .8-.3 0-.3-1-.4-1.3 0-.3-.2-1-.4-1l-.8.4c-.3 0-.8.7-.9.6q0-.6.9-3.2c.5-1.6 1.4-4 2.6-5.8q1.3-2.4 3.4-4 2.2-1.3 4.8-1.4m1.4 1.4c-.4-.1-1.5.4-2.2.8q-2.2 1.1.5 1.1h1.7q.4 0 .4-.7.1-.9-.4-1.2m6.6 1.2q1.3.6 1.2 2.1c-.1.6-1 2-1.3 2.4 0 0-.6-.8-1-1H385l3.5-3.5zm-1.6 1c-.1-.1-.6.4-.3.3.3 0 1.1 0 1.2-.2zm-6 4.3c-.2 0-3 .4-3.2.6-.1.1 1.6.7 2 .7.2 0-2 1.3-1.9 1.3.3.2 2 0 2.2-.2.2-.1 1-2.3.9-2.4m-36 1.1q1.5.2 3 .8c2 .8 3.6 2 5.4 4.5q2.6 3.4 5.5 4.9 3 1.4 5.2 1a7 7 0 0 0 3.8-2.5q1.7-2.3 2-1.7c.2.4.5 1.2 1 1.2.2 0 .9 0 1 .2l.1 1.3q.3 1.5 1.7 1.5c.4 0 1-.4 1.4-.2.4.1.4.8.5 1.2q.5.9 1 1.1.8.4 2-.1l.5-1c0-.3.1-1.1.4-1.2q.4 0 1 .3t1.1 0 .6-1q.7-1.2 2.5-1c.9.3 1.6 1.5 2 2.4.4 1 .7 2.5.7 3.4v2.6l-.5.3-.4 1.4q-.5.3-.9.3c-.2 0-.1.8-.3 1q-.6.5-.6-.3c0-.4.2-2.2 0-2.4q-.3-.5-1-.2c-.1.1 0 1-.3 1.3q-.6.3-.9 0V284q0-1.5-.7-.6c-.2.3-.4 1.5-.6 1.4s-.3-1.8-.3-1.9q-.4-.6-1 .4c-.2.4-.5 1.2-.7 1l-.2-2.2c0-.2-.4-1-1-1.2q-.7 0-.7 1.2c0 .8-.4 1.6-.6 1.1s-.5-1.6-.8-1.6q-.6.1-.6 1.6 0 1.6-1 1.6-.7 0-1 1.2l-.2.8q-.2.4-.5-.8.1-1.1-.4-1.2l-.7.2v1l-.3 2-.5.9q-.7 1.5-1.7 2t-.8-1.4c.2-1.9.5-2.4-.1-2.6-.2-.1-.8 0-.8-.5 0-.3.5-.9.4-1.3s-1.1-.8-1.1-1.3q.2-1.2 1-2c.3-.5-.5-.8-.7-.8q-.5 0-1.2 1-.5.6-1 .8-.3-.1-.5-.5c-.2-.1-.6-.6-1-.7s-1.3 1-1.7 1-.3-.6-.7-.9l-1.4-.2q-.4-.3-.6-.8l-.8-1-1-.2c-.4-.3-.2-1.1-.5-1.4-.4-.4-1.2-.3-1.4-.3-.4 0-1.3-1.1-2-2.4q-.7-1.3-1.7-2.5-.8-1-1.7-1.4-1.1-1-2.5-1.4-1.1-.2-3-.1c-.4 0-1-.6-1.6-.6q-.5 0-1.1.3c-.1 0-.3.8-.5.8-1.5 0-2.7-.5-3.7-.5a10 10 0 0 0-3.2.4l-1.5.6q-1.5.9-1.2 1.5 0 .5.7.6l1.6-.8a13 13 0 0 1 3-1.2c.2 0 .7.3.4.6s-1.5.8-1.9 1.1c-1 .7-1.5 1.9-1.5 2.7q-.2 1.5 1.7 2.2c.3.2.7-.2 1 0 1 .3 1.4 1.1 2.1 1.3h1.7q.8-.1 1.2-.5t1.5-.6c.6 0 1.5.7 2.2.7 2.4 0 3-.8 3.2-1.6q.4-1.5-1.6-.2c-1 .4-2.1.3-2.4.1s.5-1 1.1-1.6q.6-.5.8-.9c.2-.3-.3-.6-.4-.8q-.4-.2-1.8 1.1c-.5.4-2 1.7-2.8 2.2-1.5 1-2.8.6-2.1.5l3.9-2.7c.7-.6 1.6-1.4 1.6-1.6q-.1-.5-.8-.5-.8.1-2.2 1.4c-.8.7-3 2-4.4 2.2-2 .2-2.4-.5-2-1.2.1-.4 1.8-1.6 3-2.3.5-.3 0-.8 1-1 .4-.2.9.3 1.5.3.8 0 1.2-.8 1.8-.9q.8.1 1.4.4 1.4-.2 2.4 0t2 .8c1 .7 2.5 2.3 3.3 3.7q.6 1.3 1.3 2.1.7.7 1.2.8.5-.1 1 .4l.8 1.3c.4.4 1.1.3 1.5.7l.4.6q.1.6.4 1c.4.2 1.3.2 1.6.3l1.2.7.9.1c.3 0 .6-.7 1-.7s.6.6 1 1c.4.2 1.3 0 1.4 0q.4.4.7 1.2l-.4 1.3.2 1c.2.3 1 .3 1.2.7.1.6-.1 1.8-.1 2 0 .8-.9-.6-1.4-.6l-1.4-.2-.5-.7-.5-1h-.7q-.5 0-1.4-.3c-.4-.2-.5-1-1-1.4l-1.4-.7-1-.6-.6-.7q-.1-.4-.4-.7c-.6-.4-1.4-.2-2-.6l-2-1.9-1-.4c-1.1-.7-1.2-1.6-1.5-1.6l-.4.1.1 1.4-.7.4c-.6.6-1.3 1.5-2 1.8-1 .5-2.8.7-4 .7h-2c-.7.3-.9 1.1-1.3 1.5-.6.7-2.2 1.6-2.8 1.6q-.9 0-1.2-.3c0-.3 1-1 1.8-2.1 1-1 1.8-2.4 1.9-3q0-.6-.6-.6-.6.5-1.8 2a12 12 0 0 1-3.7 3.3q-.3 0 1.3-1.5l1.4-1.4c.8-1.2 1.5-2.2 1.3-2.5 0 0-.6-.4-.8-.3-.6.4-1.5 1.6-2.6 2.7q-2.9 2.9-4.6 2.9t-1-.7c.2-.2 1.1-.5 1.8-.8a17 17 0 0 0 3.1-2.6q1-1.4.3-1.5c-.3 0-1.3 1-2.5 2a14 14 0 0 1-4.2 1.7q-.6-.1-.6-.5c.1-.1 1.9-.5 2.5-.8 1-.4 2.1-1.3 2.6-1.9q1-1 .8-1.4-.5-.2-2 1l-3.1 1.5c-1.3.5-2.2.2-2.5.2-.6 0 2.6-1 3.9-1.6s2.6-1.7 2.6-2q-.1-.6-.7-1-.5-.2-1.2.7c-.4.5-1.9 1.4-3 1.8-1.2.3-2.7.3-3.4 0q-1.2-.2-1.1-.8 0-.5 1.3-1.5c1-1 3-2.1 4.5-2.8l2.7-1.2q.2-.4-.1-1t-2.7.5c-1.3.5-3.3 1.7-4.4 2.5s-2.4 2.1-2.8 2.8c-.5 1-.3 1.6 1 2.8q1.2 1.6 2 1.7c.2 0 1.5 1 2.8 2.1 2 2 2.9 2.2 7 2.6s5.1.2 7-.9c1.1-.7 3.2-1.4 4.7-1.7 1.4-.2 3.3-1 4.3-1.9.6-.4 1.4-1.4 1.7-1.4l.8.5c.2 0 .8 0 1 .3.3.2.2.5.5.8q.8.7 1.5 1l1.3.6q.9.8 1.4 1.5c.5.4 1.4.5 1.8.8.3.2.7.9.8 1 .6.6 1.4.3 2.2.8.4.2.4 1 1 1.4.7.5 1.8.3 2.5.6.3.2 0 .7.2 1s1.8 0 1.8.2l-.2 4-.8 4.8q-.2 1-.9 1l-.6-.6c-.3-.1-1.4-.1-1.7-.3q-.3 0-.6-.5 0-.9-.2-1.5c-.4-.5-1-.2-1-.2q-.3 0-.8-.3l-.3-.9-.8-.3-1-.1q-.3-.2-.5-.6 0-.8-.2-1.3c-.3-.5-1.2-.4-1.4-.4q-.6 0-1-.8l-.2-1h-1q-.5 0-1-.6l-.2-.8q-.4-1.1-1.3-1.2-.7-.1-.8-1t-1.3-1q-.7 0-1.6-.3-.3-.3-.4-.9l-1-.5c0-.1-.6 0-.7-.2l-.2-1q-.1-.2-.4-.2-.2.1-.2.8v1c.2.5 1 .7 1.4 1.2l.7 1q.6.4 1 .4c.2 0 1 0 1.5.4l.6 1.4c.3.4.9.2 1.4.6.2 0 .3.7.5.8v.5l1.8.9q.6.6.8 1.1 1.1.7 1.6.7.8.1.9 1t.6 1l1 .3q.4.4.6 1c.4.3 1.2.1 1.6.5s.2 1.2.7 1.7c.3.4 1.3.6 1.8.8l1.3.6c1.3.2 1.1.5.6 2.3l-.6 3v.5q.6.2 1 0 .5-.1 1-2.4l1.2-5.4c.2-1.4 0-2.7.7-3.4 0-.2 1-.3 1.1-.4l.9-.7c.9-.7 1.1-.6 1.6-.4s.8-.7 1.2-.7q1.4 0 2.4 1c1.1 1.1 1 1.6-.6 8.7-.8 4-1.2 8.2-1.3 9.2 0 .2.2 2.3-.4 2.2-.3 0-.8-.9-1.8-1.6l-1-.5-.4-.5c-1.3-1-2.8-1.5-2.8-1.6 0-.3 1.2-2.5 2.2-4.2.7-1.3 1.6-2.9 2.2-3.4.3-.3.5.4.7.5l1-.1q.3-.5.2-.8-.2-.7-1.1-1t-2 .4c-.5.5-2 3-3.1 5.3q-1.4 2.6-2 4.5l-.2 1.4c0 .8-.3 2-.7 2.4q-.9.6-1.6.6a1 1 0 0 1-.9-1v-1.5c.4-.1 1.3-.8 1.7-1.7l.8-2.2q.1-.6-.2-.8l-.9.1c-.3.4-.3 1.6-.8 2.3-.8 1.4-1 1.5-2.2 1.4q-1.7-.2-1.4-1.4c.2-.6.9-2.3 1-3.4q.3-2-.5-2-.6 0-.7 1.2c0 .6-.2 1.7-.4 2.2q-.5 1-1.6 1t-1.2-.5c0-.2.3-1.2.8-2l1-2.1q0-.5-.5-.5-.6.2-1.6 2-.3 1-.7 1.6-.7.3-1.3.2t-1-.2l.4-1q.5-1.1 1.6-2.5 1.2-1.2.7-1.6-.6-.3-2 1.3c-.7.9-1.2 2.3-1.4 2.6q-.1.2-1-.1-.7-.2-.7-.8.2-.6 1.5-2 1-1.2 1.3-2l-.5-.5c-.3-.2-1 .8-1.9 2L353 308c-.3.3-.8-.3-.8-.5s.8-1.4 1.5-2.3 1.5-1.7 1.5-2q-.1-.5-.8-.5c-.5 0-1.4 1-2 2q-1.3 2-1.7 1.6-.5-.4-.7-.8.1-.7 1.3-1.8 1.5-1.4 1.2-2-.2-.2-.8-.2c-.5.2-1 1-1.6 1.5l-1.2 1.4q-.6.4-.8.2-.4 0-.5-.6c0-.6 1-2 1.6-2.8l.7-1.4q.1-.4-.4-.6t-1.8 1.8c-.6 1.3-1 2.5-1.4 2.5-.2 0-1.3-.3-1.3-.8s1-1.7 1.7-2.3q1.1-1.2 1.2-1.8-.1-.5-.7-.6c-.4 0-1.5 1-2.3 2.3l-1 2c-.1.1-.8.2-.7-.4.2-.9 1.1-2.6 1.1-2.6l1.3-3.4c0-.1-.9-.3-1.4-.3s-.7 1.8-1.4 3.6c-.4 1.1-1 2.7-1.6 3.2q-.6.4-1 .3c-.2 0-.7 0-.6-.4l1.3-2.7c.7-1.4 1.5-3.3 1.5-3.6q-.2-.5-1-.4c-.3 0-1 2-2 4-.9 2.1-2 4-2.4 4.2l-1.8.5c-.1-.1 1.3-2.3 2.5-4.4 1.2-2 2-3.9 1.8-4q-.4-.4-1 .2c-.4.4-1.7 2.5-3 4.8-.8 1.3-1.7 3.3-2.4 4-.5.6-1.5.4-1.8.4-.7-.2-.1-.6 1.5-4.1q1.4-3 1.4-4c0-.4-.7-.2-1-.3-.2 0-1.2 2.2-2.3 4.8a33 33 0 0 1-3.4 6.4l-1.5.8q-1.7.4-2.6.1c-.7-.2.6-1.4 1-2l9-10.8q2.6-2.8 1-2.3c-.7 0-2.6 1.8-4.1 3.8l-4.1 4.8-2.7 3.4a22 22 0 0 1-3.8 4.2 12 12 0 0 1-3.6 1.3c-2.2.5-2.2.5-1-.9.7-.7 3.4-2.8 6-4.6 0 0 2.6-2 4.7-4.2 1.5-1.6 2.5-3.5 2.8-4l1.7-3.9c0-.2-.8-.2-1.3-.2s-.9 1-1.3 2.2c-.3 1.1-1.4 3-2.3 4.1-.9 1.2-3.1 3-4.8 4a53 53 0 0 0-5.8 5c-1 1.1-2.1 2.4-3 2.9a5 5 0 0 1-2.5.6c-.5 0-2.1.1-2.3-.1l10.2-8c4-3 7.8-6.1 8.5-7s1.3-2.3 1.3-3v-1.1c0-.3-1-.2-1-.2-.4.2-.4 1.2-1 2.5q-.3.9-1.5 2-2.2 2.1-7.5 5.9l-9.4 7.3-2 1.7q-.9.5-1.6.4-2 .2-1.9-.2l.9-.8 4.9-3a28 28 0 0 0 5.5-4c.8-.8 3.4-2.8 5.7-4.3s4.7-3.3 5.4-4q1-1.2.8-1.9s-.5-.3-.7 0l-2 1.6a26 26 0 0 1-4.3 3q-1.1.5-3.1 2-1.7 1.2-3.3 2.7a66 66 0 0 1-7.9 5.7c-1 .6-2.9 2-3.9 2.3q-1.5.5-2.5.3-1.6-.4-1.4-.7l4.7-3c2.8-1.9 6.1-4.5 7.5-5.8q1.5-1.5 3-2.6c.6-.4 2-.3 2.5-.4l1.8-1q2-1.2 4.1-3c2.3-1.6 4.5-3.5 5-4l.6-.8q0-.6-.3-1-.4-.7-3 1.8c-1.5 1.4-4 3.4-5.5 4.5-1.6 1.1-3.3 2.1-4.1 2.1q-.8-.1-2 .4-1.7 1-4.2 3.6c-2.4 2.2-6.3 5-8.5 6.3q-2.7 1.7-4.1 2.2-1.4.3-2.9 0c-.7-.2-2.4-.5-2.1-.7.3-.3 2.3-.9 2.5-1a54 54 0 0 0 10.8-5.3c1-.8 2.8-2.7 4-4.4 1.2-1.5 2-2.6 3.4-3.4q1-.5 2.5-.9c2-.8 5-2.2 6.7-3.3s3.3-2.4 3.5-2.9q.3-.9 0-1.4c-.2 0-.5-.3-.8-.1q-.6.5-1.4 1.6a41 41 0 0 1-10.9 5.4c-.3.1-2.1 1.7-4 3.8a37 37 0 0 1-6.3 5.7 45 45 0 0 1-7.6 3.6c-1.7.5-3.3 1.4-4.3 1.5q-.8-.1-1.2-.4c-.2-.2-.7-.5-.6-.9q.5-.9 2.8-3.3 2.1-2.6 3.8-3.6c.8-.4 1.6-.2 2.6-.5 1.7-.4 4.4-1.5 5.9-2.3s5-2.8 8-4.8a98 98 0 0 1 12.3-7q1.4-.6 2.3-1.6.2-.4.1-.7c0-1.1.1-1.1-1.7.2-1.1.8-4 2.2-4.3 2.3s-.8-.3-1.2-.1q-2 1.1-4 2.8a88 88 0 0 1-16.8 9.5l-1.3.2q.2-.6 2.8-2.8c.8-.8 1.8-2 3-2.7.7-.6 1.4-.5 2.2-.7l1.3-.6c.9-.4 4.4-2.2 7.4-4.2a36 36 0 0 0 5.6-4.4c.4-.4 1.2-1.5 2.1-2.3l1.6-1.4q.4-.2.3-.8-.4-.2-1-.1-.9.1-1.1.7l-2.6 2.7-2 2q-1.6 1.4-3.4 2.6a32 32 0 0 1-7.2 3.5l8.5-6.7c1.7-1.3 4.3-3.5 7-5.2 2.5-1.6 5.1-2.9 6.7-3.7 3-1.6 8.1-3.8 11.5-5 3.3-1.2 7.8-2.4 9.8-2.6q2-.3 3.6 0m89.7 10 2.4 1.4 5.7 3.5 14 8.2c2.8 1.6 5.9 3 8.2 4.5 2.8 1.8 4.8 3.5 5.6 4.2 1 1 2.4 1.8 2.8 2.3.2.3-.3.8-.4.8-.2.3-2-.1-3.9-.7s-4.6-1.9-6.3-2.7-4.9-3.2-7.2-5.3a25 25 0 0 0-8-5.2c-2.3-.9-5-2.4-6.2-3.4q-1.5-1.4-2.2-1.7-.5 0-.7.5-.4.5 1.6 2.2c1.2.9 4 2.6 6.5 3.7a32 32 0 0 1 7.7 5 35 35 0 0 0 13 7.9q1.7.5 2.8 1.1a7 7 0 0 1 3 3.1s1.3 1.7 1.5 2.7c.1.4-.6.6-.7.6h-1.2a86 86 0 0 1-14-10c-3-2.5-5.5-4.6-6-4.6-1.7 0-2.7-.8-4.5-1.7a46 46 0 0 1-6.7-4.4q-2.2-2-3-2.4-.6 0-.6.5c0 .5 1.2 1.7 2.5 2.9s3.7 2.9 5.2 3.9c1.6 1 4 2.1 5.4 2.5s3.8 1.9 5.5 3.4l5.8 5c1.6 1.2 4.4 3 6.3 4.1s3.3 2 3 2.2-1.3.8-2 .8c-.5 0-2.8-1.6-5.4-3.4a94 94 0 0 1-8.3-6.3q-1.5-1.4-3.8-3-2-1.3-3.6-2a75 75 0 0 1-7.1-4.8 17 17 0 0 0-4-2.5q-.6 0-.7.6c0 .3 1.9 1.9 4.1 3.5s5.4 3.6 7 4.5c1.7.9 4.8 3 6.9 4.9a99 99 0 0 0 8 6.1q4.6 2.9 3.4 2.7c-.7 0-3.9.9-4.6.5s-3.7-3.4-6.5-6a50 50 0 0 0-7-5.6l-3.7-2c-1-.7-3-2.3-4.4-3.7q-1.5-1.5-2.4-1.9-.8-.2-.8.3c.3.8 3.2 3.5 4.7 4.7l5.6 3.8c1.5.9 4.9 3.5 7.3 5.8 3 2.8 5 4.2 4.7 4.5h-2.3c-1.5 0-2.3-1-4.3-3.5-1.4-1.7-5-4.9-7.8-7s-5.4-4.5-6-5c-.3-.3-2.9-3.5-3.1-4q-.7-1.1-1.4-1-.5.5.2 1.8a36 36 0 0 0 9.8 9.7c1.5 1 4 3.1 5.7 5 1.6 1.8 3 3.3 3 3.5-.2.2-1.7.2-3 0q-1.6-.1-2.6-.6-.6-.8-1.2-2.2c-1-2-2.5-3.4-5-5.2a30 30 0 0 1-5.8-5.7c-.7-1-1.3-2.2-1.8-2.6q-.5-.2-.7-.1-.3.1.8 2.4c.6 1.3 2 3.3 3.2 4.4l4.7 3.6c1.3 1 2.4 2.4 3 3 .4.5 1.1 1.4 1 1.7 0 .2-1.2 0-1.6-.1-.3-.2-1.9-.3-2.8-1s-1.1-2-2-3q-2-1.7-4-4.1-1.5-2.3-2.6-4.8c-1-2-1.6-4.3-2.3-5.2-.2-.4-.9-.3-1-.2q-.7.2 1 3.8c.8 2 2.8 5.7 3.9 7 .2.3 4.5 4.8 4.8 5.3.2.3-1.4-1-2.1-1.5l-3.6-.4c-1.3-.2-5.5-12-5.9-12 0 0-.6 0-.5.5.6 2.5 3.9 10.1 3.7 10.1-.3 0-1.8 0-2.4-.4s-1.5-2.8-2.2-4.9l-2.2-7.3s-.8-.2-.7.4q0 1.3.6 3.7c.8 3.2 2 6.8 2 7l-1.8-.6a2 2 0 0 1-1.2-1q-.6-1.2-1-3c-.7-2.4-1-5.2-1.1-5.9 0 0-.8 0-.8.4 0 1.9 1.3 7.5 1 7.8 0 .2-1.4 1-1.6.4-.3-.8 0-3.3-.3-3.9-.3-.4-.7 0-.8 0-.3.2.4 3.2.2 4.6 0 .9-.8.6-.9.6-.2.2-.4-2.5-1-3.4q-.7-.3-1-.2c-.8 0 1.7 4.9 1 4.9-.3 0-2.4.6-2.4-1.4 0-2.9 0-5.3-.8-5.4q-.4 0-.5.9l.2 3.4q.4 2 .4 3.1c-.1.6-1.2.4-1.3.3 0-.3-.1-3.3-.4-4.5 0-.4-.8-.1-.8 0q-.1.5.2 2.6.4 1.5.3 3c0 .6-1 .8-1.2.8s-.4-4.8-1-6.5c-.3-.7-1-.4-1-.3-.1.2.4 1.6.5 2 .4 1.8.3 5 .1 5.8 0 .3-.8.7-1-.2-.4-1.3-.4-4.5-.8-5.5-.3-.7-.6-.2-.7-.2-.3-.1.6 4.5.4 6.8-.1 1.3-1.1 1.5-1.4.4-.2-1-.1-4.2-.4-4.7q-.4-.4-.8-.2l-.2 1.1c.3 2 .6 4.7.4 5.2-.1.2-1.5.4-1.6 0-.1-.7-.2-2.3-.5-3.6l-.6-2.4c-.2-.5-.7-.3-.8-.3-.5 0 .4 4.2.6 6 0 .6-1 .9-1 .5l-1.4-5.1c-.1-.2-.7-.3-.7 0 0 1.4.8 4.9.8 6.4 0 .4-.6.5-.8.5-.4 0-.6-2.4-.9-3.5q-.2-.4-.5-.3c-.6 0 .8 4.6-.4 4.7-.2 0-.6-3-.8-4.6l-.5-3.4q-1.1-3-1-3.5c0-.2.9-.3 1.7-.7s1.9-.8 2.4-.8q.9 0 1-.7t1-1q.6 0 1.4-.6t1.3-1.8c.4-.4 1.2-.4 1.7-.9s.8-1.5 1.5-2.2l1.2-.6c.4-.3.5-1 .8-1.2l2-.8c.3-.2 1-2.1 1.2-2.4.6-.5 1.4-.3 1.8-.6.7-.6.6-1.6.6-1.9q0-.7.7-1.1c.1 0 .6-.5 1-.4s1 1 1.5 1.4c1.4 1 3 1.3 7.5 1.4 4 .1 5.7.4 6.8-.2l1-1c.4-.2 1 0 1.3-.3l.7-.5.8-1 .3-.7 1-.2c.4-.5.6-1.5.6-1.7 0-.5-.4-1.8-1-2.9zm-8.9 6c.3 0 2.4 1.6 3.2 2.1l1.3.6q.3.4-1.1.6c-.8 0-1.6-.7-2-1.2-.3-.3-1.3-1-1.5-1.5q-.2-.6.1-.6m-47.7 2.1q.6.1 1 .7.9.9 1.6 1l1.2.6 1.3.5c.2.1 0 .5.3.7l1.3.8c.4.5.1.9.4 1.1l.7.1c.6.1 1.6-.3 1.8.2q.9 1.5 0 2.8c-.5.6-.2-1.8-.9-1.7-.5 0 .1 1.9-.4 1.6-.5-.4-.2-1.2-.7-1.4q-.5.1-.7.5c-.3.5.1 1.3-.3 1.6l-.6-.2c-.2.1 0 .6-.3.8h-.5c-.4.2-.1 1-.5 1.2q-.2-.2-.5-.2c-.3.1 0 .8-.2 1q-.5.3-.8.1c-.2 0-.2-1-.4-1s-1 .1-1 .4c-.8 1.6-1.2 5-1.7 4.9-.4-.2.3-3 .2-4.8 0-.8-.8-1-1-1.4-.3-.2 0-1-.2-1-.4-.3-1.3.4-1.6.1-.3-.1-.2-1.2-.2-1.4q.1-.7-.4-.9c-.5 0-.8 1-.8 1.3 0 .2-.2 1-.5.7-.2 0-.3-1-.5-1.2q-.5-.2-.5 1 0 1-.4.3l-.6-.6-.6-.2q-.7.1-.6 1.3c0 .7-1 1.7-1.4 1.7s-.2-1-.2-1.7c0-.2-.2-1.2.1-1.7q.8-.9 2-1.6l1.3-1.5.2-1c.4-.5.8-.4 1.3-.6l1-.6q.9-.8 1.4-1.6.9-.4 1.1-.3zm8.6 9.3h.3l1.2.8q1.2 1.1 2 2.5 1.1 1.7 2 3.7l1.3 3.6q1 3.5 1.6 7.1l.2 2 .5 1.2-.1 3-.6-.2c-.6-.5-.7-1.4-1.3-2q-.6-.8-1.5-1-.6.2-1 1v.7q.2.7.6 1.2c.4.7 1 1.3 1 2q-.2.7-.7 1.3l-.3.6q0 .4.2.4.6.2 1 .1 1 0 1.7-.5c.6-.4 1.1-1.3 1.5-1.6l.8-.9q.4-.4.9-.6a2 2 0 0 1 1.4 0l.5.5.4-.4c1-1 12.1-9.2 12.7-9.8l-.4-.6 3.4-1.1-1.6 2.9-.6-.6-8.4 6.8 14.1-6.1-.2-.8 3.9-.1-2.9 2.6-.3-.8-19 8.5-.8.4-1.5.6q-.6.5-.7.9l-.2.6.6-.2 19-4v-.8l4 .4s-2.1 1.4-3.7 2.2l-.1-.9-19.2 4.2-1.3.3h-9.9s-.4-.3-.4-.5q0-.3.2-.5l.7-.2s2.2.2 2.6-.1q.6-.5.7-1.3l-.2-.8-.5-1.3-.5-1.5a9 9 0 0 1 0-3.5l.2-.4h.9l.7.5a4 4 0 0 0 2.1.2q.4 0 .6-.3l-.2-.5c-.3-.3-1.1-.3-1.4-.5q-.3-.4-.4-.9c-.3-.4-.4-1.6-.6-2.1s-.4-.3-.6-.7l-.6-2.2c-.2-.5-.8-.4-1-1l-.4-1.4q0-.4-.2-.6-.2-1-.8-2l-.6-.2-.2.4c-.1.3.2.7 0 1h-.4q-.4-.1-.6-.4l-.7-.2-.4.2.2.4 1.1.6q.7.6 1 1.6c.2.5-.1 1 .2 1.5.3.3 1 0 1.3.4.6.6.6 1.7 1 2.5l.6.5q.4.5.6 1.2c.1.5.3 1.4-.2 1.6l-.6-.5h-3q-.5 0-.9.4l-1 1-.7.5q-.3 0-.5-.3-.6-.6-1-1.3l-.6-1.4-.3-1.7-.2-3.2.1-2.7-.3-3-.5-1.3q0-.8.3-1.3t1-.8l1.4-1.7 1.5-1.1zM385 302c.3.1.2 2.3.2 3.1l-.1 2.4c-.2 1-1 1.5-1.2 1.8-.6.6-.7-.7-.7-2.6 0-1.3-.3-4 .1-4.4.2-.2.6 2 1 1.5.3-.6.4-2 .7-1.8m-4 1.2q.7-.1.9.4c.1.3.3 1.7.1 2.1 0 .1-.3 3.1-.4 3-.3 0 0-3-.5-3-.3 0-.9 2.4-1 2.1l.4-3c0-.4.2-1.6.5-1.6m-39.6 3.6c.3 0 2.1.9 2.9 1.7q1.2 1.3 1.7 2.8c.1.5 0 2 .4 2l2.1.4 1.2.1c0-.4-.4-1.3-1.1-1.9l-1-1.1q-.3-.6-.2-1c0-.3-.1-1.2.2-1.4q.4 0 1 .3.8.6 1.3 1.6c.6 1 .7 2.4.7 3q0 .5.2.9l.8.5 2.3.8 1 .3c.2-.3-.7-1.5-1.3-2.2l-1-1.1q-.6-.9-.6-1.4 0-.8.3-1.2c.2 0 .9.5 1.2.8.5.4 1.6 2 2.3 3.4.3.9.3 2 .6 2.4q.4.4.7.3.4.4.7.1l-.1-1.9q0-1.7.3-1.8.4.2 1 1c.5.8.5 2 .5 2.6q.1 1 .4 1.1l1.6-.7 1-.6c.5-.3.8-1 1-.8 0 .1 0 .9-.2 1.2l-.6.7-1.6.9 2.5 1.3q0-.3.3-.4.3-.4.8-.4l.6.2c.4.4.8 1.6.9 1.6.2 0 1.1.7 2 1.2 1.5.6 1.8.5 2.5-.4q.2-.1.2-.8c0-.4-.4-1-.3-1.7l.4-.8v-2.7c0-.6-.7-1.1-.5-1.6s.7 0 1 .1c.1.2.7.8.7 1.8l-.3 2.6v3q.6 1 2.3 1c1.6 0 2.3-.3 2.4-2.4l.2-2q.6-.4.8-.1l.3 2.5.2 1.7 1.3 1h-7.2s-4 .2-5.8 0c-.5 0-1-1-1-1.1l-.5-1-.8-.4c-.5.2-1 1-1.2.7l.4-1-1.6-.9-1.3-.7q-.5 1.2-1.3 2.1a2 2 0 0 1-1.2.6c-.4 0-1.4-.4-1.4-.6l.3-.7 1.3-1 .7-1c0-.3-.8-.5-1.2-.6h-1c-.6 0-1.1 1-1.3 1.2q-.6.5-2.2.6-1 0-1.3-.3-.1-.6 1.9-1.7l.9-.3.5-.4c.2-.3.2 0-.6-.3l-2.6-.8-.7.9-1.2 1.2q-1 .7-2 .7c-.7 0-2.4.2-2.3 0 .5-.6 1.8-1.3 2.6-2q.9-1 1-1.3l.3-.5-1.3-.2-1.4-.2-.8.9c-1 .9-2.7 2-3.4 2-.5.2-1.8.1-2 0-.2 0 1-.8 1.9-1.8q1.2-1.2 1.4-1.7l-1.6-.2h-1.8l-.8 1-2.6 2c-.7.3-2.6.7-2.8.7s1-1 1.6-1.9c.6-1 1.3-1.6 1.2-2l-1-.2a4 4 0 0 0-1.9.2c-.7.3-1.2 1.4-2.1 2s-2.6 1.5-3.9 1.8q-1.5.3-1.8 0c-.2 0 .5-1 .5-1.1q.2-.8 2.2-2 1.7-.9 2-1.3c.2-.2-.3-.5-.7-1-.6-.6-1.9-1.5-1.9-1.8s2.2-.2 3.3 0q1.8.3 2.8 1.3c.3.2.4.9.8 1q.7.4 1.6.3c.4 0 1.2 0 1.3-.2q.6-.5-1.5-2.4l-2.1-2s1.4-.2 2.7.6c1 .7 2 2.2 2.4 2.7l.8 1.6 1.8.1 1.6.1-1.7-2.1q-1-1.4-.9-2.4c0-.7-.3-1.7 0-1.7m38.3 2.7c.2-.2.7.5 1 .9q1.2 1.1 2 1.3.8-.1 1.5-.8.4-.5.7-.5c.3 0 .7 1 .8 1.6.3.8 1 2.3 1.8 3.5l1 1.2q.6.9.9 1.9c.2.4.3 1.2.3 1.6.3 1.7-.2 3.2-1 1.6-.2-.3-.5-2-.8-2.7-1-1.7-2-3.8-2.6-4.4q-.8-1-1.1-1.1c-.2 0-.4.7-.5 1.2q-.1.7-.4.8-.6.1-1.3-1.1-.8-1.4-1.2-1.5-.2 0-.5.3c-.1.7.3 2.6.5 4.4.1 2.4-.2 4.2-.3 4.4 0 .4-.8-.6-1-.8a24 24 0 0 1-.5-6q.1-5.1.7-5.8m12 3.7.4.1q.3.2.4.5-.1 2.8.4 5.1l.5.9.1 1q-.1.3-.4.5c-.6 0-1.8.2-2-.3q-.3-.6-.2-1.3-.7-1.2-1-2.4-.4-1-.3-2.5 0-.5.4-.6.4.2.4.8l.7 3q0 .7.4 1.3h.6c.3-.3 0-.8 0-1.2l-.4-2-.2-2.1v-.7zm-17.9 2.5q.4 0 .6.4l-.6 1.6c-.2.6-.3 3-.7 3h-.6c-.2-.1.7-4 .7-4.2l.1-.7h.5m10.8.7h.4q.7 1 1.3 2.3c.5 1 1 2.4 1 3q.1.9-.4 1c-.3 0-1.8-.8-2-1.4s-.2-1.6-.3-2.3a7 7 0 0 1 0-2.6m81.8.5q3.6.4 6.8 2.1 4.2 2.3 7.5 5.7a39 39 0 0 1 6.3 9.1q2.8 5.6 4.1 11.6 1.7 6.9 2 14 .4 8-.3 16a132 132 0 0 1-2.3 16q-1.7 7.7-4.2 15.3a126 126 0 0 1-5.4 13.5 122 122 0 0 1-23.8 33.6A179 179 0 0 1 427 479a194 194 0 0 1-15.1 9.3q-7.5 4.2-15.4 7.5c-4 1.7-9 4-12.4 4.1-3.7.2-6.7-1.4-10-2.5-4.5-1.6-8.7-4-13-6.2a242 242 0 0 1-13.8-7.5 216 216 0 0 1-36.2-27.5 139 139 0 0 1-11.3-12.8 113 113 0 0 1-7.5-10.8 129 129 0 0 1-12.2-26.4 129 129 0 0 1-6.4-29.8q-.7-8.4-.3-16.8.4-7 1.8-14 1-4.8 3-9.2a43 43 0 0 1 10-14q2.6-2.2 5.5-3.6t5.9-1.8q3.2-.3 6.3.7a19 19 0 0 1 7.9 6.4h139.6l.8-1.4q1.1-1.6 2.5-2.8a13 13 0 0 1 4-2.2q3-1 5.9-.8m-84.2.1h1l.2.5.2 1.7c0 1.1.3 2.8.1 3.2-.3.5-1.2.2-1.4-.4-.2-.5-.1-1.9-.1-3zm-6.9.2c.2 0 .3.8.3 1.2 0 .5-.3 2-.6 2.7q-.3.3-.6.1-.1 0 0-.8c0-.7.4-1.7.5-2zm-74 2.2q-1.2 0-2.3.3-2 .4-3.6 1l-1.3.9 51 20.7h1.5l-.4.2h.2v.5l12.6 5h3.4l.8-.8v-4l-30.7-16.1h-21.5v-1.8c0-.6-1.5-2.1-2.6-3q-2.1-1.8-4.8-2.7-1-.2-2.3-.2m36.5 7.7 25.5 14.3v-3.3l-.5-.3h-4v-2.5l-13.2-8.2zm24.9 7 .4.1.1.3 42.1 28.8-.3.2q0 .3-.3.5l-40.6-25.4v3.3l40.2 22.6-.2.3-40-21v3.3l1.1.9 4.6-.2s.5.1.5.3q-.1.5-.5.8c-.3.2-1 .2-1 .2h-2.6q-.8 0-1.4.5l-.4.5.2 3.2.5 2.3 6.4-.2v1.1c-.1.3-.7.6-.7.6l-5.4.3v.5l.1.2 37 9.4-.2.6-36.6-8.6.3 2 .2.5 19.2 3.6h.2l.7-.2h.6l.2.4 15 2.9-.2.6-15.9-2.6-.3.1q-.6 0-1 .2c-3 .7-8.5 3.3-8.5 3.3s-1.6.5-2.2 1l-.5.7-.2.5v.2h2.3l.6.4.7.1.6-.4q.4-.3 1-.4h1.6l.6.4q.6.2 1 0c.3 0 .4-.5.7-.6l1 .4q.5.3 1.1.4c.8.1 1.6-.3 2.3-.3.9 0 1.9.6 2.6.1.3-.1.1-.6.4-.8.4-.1.8.3 1.2.4q.6 0 1 .3 1.5-.2 3-.1c.4 0 .7.6 1.2.6s.7-.6 1.1-.7h4l2 .3 2.2.3.4-.1a11 11 0 0 1 11-10.3 11 11 0 0 1 11 10.1h2.8l1-.7 1.7-1.6s2.2-2.3 3.4-3.2l1.5-.9 1.8-.5c.7 0 1.6.4 2.2 0l.3-1 .2-1 .3-.6-12.2 4.1-.5-1 13-4.8 1.2-.5.2-.3 1-.8q.5 0 .6-.4c.3-.5 0-1.2.1-1.7l-16.5 7.7-.6-.8 19.2-10 .3-.4c.3-.8.2-2.1.2-2.8l-20.1 12.6-.3-.4-.2-.2 28.2-18.4.4-.7.6-.6.3-1.2.4-1 1.2-1 .4-.9.6-1q.8-1 1.9-1.7.5-.7 1.1-1.1.4-.2.8 0l.6.2 2.5 2 13.6-8.8-1-1.5a21 21 0 0 0-4.4-4l-48 38.8-.3-.3 46.5-39.7-2.4-1.5-44.4 41-.4-.4 42.5-41.6-.9-.4q-2-.6-4-.3-2.4.3-4.3 1.3t-3.5 2.3a5 5 0 0 0-1.1 2.2v1.8h-.7l-29 34-.3-.3-.2-.1 26.8-33.6h-5.8l-21.9 33h-.2l-.4-.3 19.5-32.7H438l-15.1 32.3-.7-.3h-.2l13-32h-4.3l-9.6 31.7-.4-.2h-.5l7.8-31.5h-6l-3.3 31.2h-.2l-.8-.1h-.1L419 327h-3.7l1.2 31.1h-1l-3-31.1h-5.8l7.4 31.4-.7.1-9-31.5h-4.5l12.3 31.8-1 .4-14.7-32.2h-5l18.8 32.6-.6.3-21.1-33h-5.2l25.4 33.4-.8.6-27.7-34h-6.7l33.8 34.5-.6.4-37-34.8h-4.3l41 35.2q-.4.2-.6.5L361.7 327h-9.2zm119.6-2.9-13.3 8.3 4.2 3q.3 0 .5-.3l.2-1 .4-2h.3l.2 1 9.7-5.7c-.6-1.1-2.2-3.3-2.2-3.3m2.5 4-9.7 5.9.1.2.7.6c1 1.1 1.7 1.8 2.7 3.5.2.4-2 0-3 0h-.6l-.2.5v3.4c0 .7 1 1.2 1.6 1.4l.2-.2.5-.6q.7-.6 1.6-1 1-.2 2 0l1-.4.1-.6v-1.6l.2-3.2 1 .1 4-2.5c-.6-1.9-2.2-5.5-2.2-5.5m-1.3 9-.7.4q0 1.1.2 1.8.4.5 1 .9a2 2 0 0 1 .5 2q0 .3-.6.7-.3.4-.2.6.3.5.8.6c.6.3 1.5.2 1.8.8.2.4-.1 1.4-.1 1.4l-1.2-1-1.2-.4h-.6l-.4.5-.2.5v2.1c.4.1.9-.2 1.2 0q.8.3 1.2 1c.5.4 1.2 1.4 1.2 1.4l-1.4.1h-.9c-.5 0-.9.5-1.4.5v2.5q.7.7 1.2 1.9c.1.3-.2.9 0 1.2l2.5 1.7 1.4.7s-2 0-3-.4l-1-.8h-1.1v5.5l.7.1q.8.2 1.4.6.6.7 1.3 1.2l.7.4q.3.2 0 .8 0 .2-.6.2l-1.4-.1-.6-.6q-.4-.2-1 0l-.6.2v5.7c.6.1 1.3-.3 2-.1q.5.1 1 .6l.7 1.3.6.8s-1.9.3-2.7 0q-.6-.3-.8-.7-.4-.4-.8-.4v3l2.6 3c.4.5 1.1.9 1.1 1.5 0 .2-.4.5-.4.5s-.9 0-1.3-.2q-1.2-.6-2-1.7l-.2 13 .3 1 .5 1c0 .4-.5.8-.6 1.2q-.2 1.3 0 2.5l-.2.6v1.8l.3.4.3.7 1.8-5q1.5-4.5 2.6-9.1 1.3-5.4 2-11 1.5-9.5 1.3-19.1a84 84 0 0 0-3-22.8zm-1.8 67.3c-.3-.3 0-1-.3-1.2q-.7-.4-1.5-.1-.6.1-1.2.7-.4.5-1 .9l-1.1.1.8-1.2 1.3-2q.2-.7 0-1.6l.2-1.5s.6 1.9.8 1.3l.2-1v-1q0-.8-.5-1.5-.5-.5-.7-1.1 0-.4.4-.6h1v-4.3a14 14 0 0 0-2.9-2.3l.5-.3q.8-.1 1.7.1.5.1.8.4v-3.4l-.4-.6q-.3-.5-.1-1c0-.3.4-.8.4-.8h.2l.1-3.8c-1 .3-1.7 1.5-2.7 2-.4.2-1.3.3-1.3.3s0-.6.2-.9q.4-.8 1-1.4l2.9-3.2v-2h-.1l-1.4-.1-1.3.3-1.6 1.3s.1-.8.3-1.1l.8-1 1.7-1.6q.5-.6 1-.8h.7l.3-12.3-3.5 2.5q-.4.2-.7-.4-.1-.3.1-.8.9-1.4 2.3-2.3c.5-.4 1.1-.4 1.5-.9q.3-.7.4-1.7v-3.8l-.4-.2-.8-.3q-.6 0-1 .3l-1 .5v-.7q0-1 .6-2 .4-.5 1-.8.6-.2 1.3-.2h.5v-3.5h-.1l-.9-.6h-1q-.6 0-1 .3l-.9.3q-.4 0-.6.2l.5.3q.4.5.4 1.1-.1.5-.5.7h-.8l-1-.2-.6.1v6.3l.2 1.3.4 2.6c.2.7 1 1.5.6 2.1q-.4.4-1.1.2v4.2l.9.8.4 1v1c.2.6 1 .7 1.6 1.2q.5.4.8 1.2l-.1 1-.7.7h-1.5l-1.2-.4h-.1v6.8l.3.3.8 1 .7 1.3-.7.2-1 .4v2.9l1.5.8 1 1.1.4 1.7.4.7s-1.3 0-1.9-.2l-.6-.2-.8-.2v3.4l.3.3q.4.2 1 .2l.7.1q.3.3.4 1t.6 1.3c.3.3 1.2.5 1.2.5l-1.4.2-1-.1-.8-.6h-.7l-.2.4.1 17.2 1.2.6q.7.5.7 1-.3.4-1 .3l-2-.1-1.1.1q-.5.3-1 .3t-.5-.4q.1-.3.5-.4l1-.9v-6.7q-.6-.4-1-1v-1l.8-.7v-3.2s-1-.2-1.4-.1q-.6.1-1.2.5l.1 10.9h-.6l-.4.3-1.4.5-1.7.6h-2l-.7.4h-.7l-.2.3-.1.4c-.3.3-.9-.1-1 .2-.2.1.2.3.1.5-.4.6-1.5 0-2.3.2l-1.8.2q-.9.4-1.8.5-.6 0-1.1-.2-.2 0-.4-.3l-.4-.4-.9.1q-.3.1-.5.4l-.7.2-.6-.3-.6-.6-.2-.3c-.8-.6-3-.2-3-.2l-.2-.3 1.5-.2h2.2l.9-.1.4-.4q.3-.2.6 0 .2 0 .3.3c.3.2 1.1 0 1.1 0v-1.2h-1.6l-.2-.4v-.4h-.5v-.6l.3-.3.4-.4-.1-.4-.6-.3-.1-.7q.1-.4.6-.8l1-1.3.4-.6.4-.8.2-1s.6 1.3.7 2.4q.1.4.4.5v.4l.4 1.1 1 .6q-.2.4-.5.6l-.2.7v.4s1.7-.5 1.9-.7l.3-.6-.1-1c0-.2.1-.7-.1-.7-.6 0-1.4 0-1.4-.2s.6-.4.8-.7v-1l.5-.4s-.5-.4-.6-.7l.3-.9 1.3-2 .6-.8 1.2 2.4q.4.4.6 1c.1.5-.3 1.7-.3 1.7q.7.3.8.8l-1 .7q-.3 0-.2.3c0 .3.5.1.6.8q0 .6.2 1c.2.4.7-.5.9-.8l.3-.9.2-11.2-.8-.1-.7.1q-.2.5 0 1 0 .5-.2.8h-.8c-.3 0-.5.5-.8.6h-1l-.7-.3h-.7c-.3.2-.6.7-1 .5q-.1-.3.1-.7l.6-.9.7-.8q.3-.2.8-.1.7 0 1.2-.2l.5-.8q.2-.5.6-.9l.5-.2h1q.3 0 .5-.3l.2-.3v-2.5c-.2 0-.6-.3-.8-.1q-.3.3-.3.7-.6.9-1.6 1.3t-1.9.6c-.5 0-1.4-.4-1.4-.4l1.5-1.3 1.3-.8q.5-.2 1-.8l.4-1.4q.2-.6.8-.9l1.1-.1.1-4h-.2l-.9 1-1.2 1-.9.7v-2.2q0-.5.3-1t.8-.6l1-.7.7-.9.4-.3.1-3.3-.6-.1-.8.2c-.5.4-1 1.3-1.2 1.3v-1.5q0-.6.2-1.1.3-.3 1-.5l1.4-.8v-2.6h-2.1l-.1.2-3.2-.1h-1l-.6.5c-1.3.5-2.8 0-4.1 0h-1.8l-.8-.3h-1.2l-1 .4-1.2.2-4.3-.3h-7.7l-1 .1.2.6 1.2.7c.2 0 1.2.8 1.8 1l1 .3q1.2.2 2.4.1l2.2-.3 3-.7q1-.4 2.3-.6 2.2-.2 4.4 0h4.3c.5 0 1.4-.4 1.5.1 0 .5.2 4.1-.3 4.5l-.6-.1-.2-.6c0-.4-.3-1.7-.5-2l-.6-.4h-1q-.6.1-1 .4l-1 .2-2.9-.1h-.8l-.4-.6-.8.1-1.3.5h-1q-.8 0-1.4.2l-1.1.4-1.7.8c-1.3.4-3-.4-4 .5v.6h.6q1.8 0 3.5-.2.4 0 1-.4l2-.7 1.4-.3 1.3-.6h1.4l.7.2h3.1l1.2.1q.6 0 1.1-.2l.6-.2q.4 0 .5.4.4.8.4 1.7v.5q.4.3.7.2l.7.1-.5 2q-1 3.3-2.3 6.3l-3 8-1.6 3.4-1.5 3-.8 1-1 .7-1.3.4-2.1.4-4.5.3.4-2.4 1-4.5.2-.5 1.6-6 1.8-5.5 1.3-3.2 1.7-3.5.7-1.4.3-.5v-.1.1l-1.4 1.7a27 27 0 0 0-3.5 6.5l-1.9 5.6-1.6 6-.1.6-.2.6-1.2-.7-1.3-.5-1.7-.3-2.3.1-1.7.6q-1 .5-1.8 1.3v.2l3.8.3h3.4l1.8-.4 1-.5-.8 3.8-.6 2.7h-4.3l.2-1h-5l-1.5-.1.1-1.2.6-4.3.3-2.5.2-.8q.8-4.6 2.3-9l.4-1.2q1-2.2 2-3.9l.9-1.7.3-.5v-.1l-.4.5a38 38 0 0 0-3.7 5.3l-.5 1.2q-1.4 4.6-2.3 9.2l-.1.9-.4 2.5-.6 4.3v1.2h-9.6l-.1-3.8v-1.9a111 111 0 0 1 .6-13.3v-.1c.8-3.9 1-7.8 1-7.8s-1.2 3.8-2 7.6v.2q-.6 5-.7 10v1.1a105 105 0 0 0 .3 9.9h-10.7v-7.1l1 .2 2.8-.1h3l3-.2-2-1-1.6-.5h-1.7q-1.3 0-2.5.2c-.7.2-1.6 1-2 1.2.3-2.5.9-5.1.7-7.8q-.1-2.5-.7-5.1a17 17 0 0 0-1.3-4q-1-2-2.3-3.1l-1.5-1.6h-.1l.4.5 1 1.3c.4.8 1.3 2 1.8 3.2l1 3.9q.6 2.4.7 5c.2 2.8-.6 5.6-.7 8.6v6.3q-3.1-.3-6.2-.2-2 0-4 .5v-.4l.1-8.4q.8.5 1.5.7 2.1.4 4.4.3l1.9-.1s-1.3-1.1-2.1-1.5q-.8-.5-1.7-.6h-1l-3 .4-.1-2.8q-.4-4.9-1.8-9.6l-.7-1.9a63 63 0 0 0-3.6-6.4 63 63 0 0 0 3.3 8.6q1.4 4.6 1.8 9.4c.3 3.6 0 10.7 0 11.9v.6a23 23 0 0 0-5.1 1.9l-2 1.5-.7.6V413l-.6-5.5-.8-4.4-.4-1.6.7-.2h1.8a19 19 0 0 1 4 .6l1.3.1.6-.2-.5-.6-1-.7-1.8-.7-1-.2h-4.4s-1.3-5-2.2-7.5L378 386l-2.3-5-.6-1.3 1.2-.1 1.4.1q.3 0 .5.4l.5.6q.7.3 1.4.2h3.9l.7-.1 1.1-.4a3 3 0 0 1 2.3.2l.3.2h.9l.8.2.5.7q.7.2 1.4 0h1.4l.7.4 1 .2 1.4-.4 2-.8 1-.2q.5 0 .9.4l.6.8q.4.4.8.5h.9l1.6-.5a7 7 0 0 1 2.6.2l.7.4h1q.6-.1 1-.4h.8c.3 0 .3.5.6.5 1.8 0 3 .2 4.6 0q.6 0 1.3-.4l.6-.6.7-.2q.3 0 .5.4l.3.6.5.5h.9q.2 0 .4-.3t.8-.3l.7.3q.4.4 1 .5h1l1.5-.6.5-.5q.3 0 .5.3l.3.2.7.5.9.3 1-.2.6-.6q.4-.3.7-.3t.6.4l.7.7.5.1.7-.2.8-.4q.3-.3.6-.3.2.4 0 1l.5.4h.6l-.2-.1v-1.1q0-.4-.2-.6-.1-.2-.5-.3h-1.2l-.7.4h-1l-.2-.5q-.3-.3-.8-.4c-.7 0-1.2.7-1.8.9h-1l-1-.3c-.4-.2-.5-.8-.9-.9q-.6.2-1 .7l-.9.4h-1.3l-1-.5-.6-.4-.6.2-.6.4q-.3.2-.6 0-.4-.2-.6-.7-.3-.5-.7-.7l-.9-.2q-.5 0-1 .4l-.7.8q-.7.2-1.6.2h-3.1c-.4 0-.5-.8-1-.8-.5-.1-.9.4-1.4.5q-.6.2-1.3.1l-1.2-.5-1-.3-1.7.3c-.8-.2-1.4-1-2.2-1.2l-1-.2h-1l-1.5.6h-1.2l-.8.6-.4.1h-1.2c-.6 0-1-.5-1.6-.6q-.7.2-1.6.2l-1.2-.6-.6-.3h-1l-1.2-.2q-.3-.3-.7-.4h-.6l-1 .6q-.9.2-1.8 0c-1.2 0-2.4.3-3.6 0q-.8 0-1.4-.6l-.6-.6c-1.2-.4-2.7.6-3.7 0l-.2-.6-.7-.8-.8-.2h-2.3q-.7 0-1 .3l-.6.6c0 .3-.3.6 0 .8l.5-.1.8-.4h.5v.7q0 .3.3.4h.6l.5-.6h.5l-.2 1.2-.2.5v1.1c0 .2.3-.3.5-.5s.5-1.1.8-.8q.3.3.3.8l-.2 1-.4 1q0 .3.3.4.4 0 .7-.2t.5-.3h.4q.3.5.2 1.2v1.5q-.1.6 0 .8.4 0 .6-.6l.5-.8q.1-.3.4-.3.2.1.3.6l1.3 3c.7 1.6 1.5 5 1.5 5l1.5 5 .3 1.5-.2.1-1.4-.2H378q-2.4-.3-4.6 0h-.7q.1.4.4.4.6.2 1.2.1h1.6l1.8.4h1.2l1.5.2q.6.1.7.3l.3.3c0 .3-.6.4-.7.7l.2.6.7.6q.3.1.5.6.4.6.4 1.3v1c0 .3-.7.2-.7.2h-6v.4l1 1.1c2.3-.5 4-.1 5.7.2 0 0 .3 1 .2 1.4q0 .2-.3.5l-1 .6.4.5 1.5 1.2.3 6.7-.5.8-.2.7-.2 1-.2 1.6v1l.1.9v.5l-4 3.6 2.5 1.8 2-3.7.4 1.4-.7 3 1.3.1h1.4l1.2 1.2-1 .1-2.8.1q-1 0-1.9-.3-1.5-.5-2.7-1.4a11 11 0 0 1-4.5-7.4v-2.5q0-1.5.6-2.8 1-1.6 2.2-3l.7-.8-.7-2-4-10.3-.2-.4-.2-.7-1-2.3-1-1.6-1.5-2q-3.1-4.2-5.4-8.8-.8-1.6-1.3-3.5l.2-2a8 8 0 0 1 1.4-3.2 5 5 0 0 1 1.8-1.3l3-.8 1.8-.2 1.9.2q1.7 0 3.4.5l2.1.9q2.4.7 4.8.3.6 0 1-.3l1.1-.6.9-.3q.9 0 1.7.2 1 0 1.9.3l2 1.1 2.4 1a9 9 0 0 0 3.7 0l.8-.4 1.3-.3q1 0 1.9.2l1.3.7q.7.6 1.9 1l9.5.1q.5 0 .8-.2l1.4-.9q.7-.4 1.5-.4.7.1 1.6.5.9.6 1.8.8c2.8.6 5.8-.2 8.7 0h1.2l1 .5a7 7 0 0 0 2.7 0l-.4-.3-1.4-1-.4-.1-.7-.2-1-.1q-.4-.2-.7-.6l-.3-.6h1.8q.6 0 1.1-.2l.2-.4h.5l.5.4q2 .4 4.3.1l.4-.5h1l.5.5q1 .4 1.7 0l.2-.5h1.6l.5.4q.6.2 1.3.2h1l.7-.7h4.2q.4.4.9.5l.5-.2 1-.3h1.3l1.6-.1.7-.3.4-.2v-3.1l-.5-.5-1-1.1a9 9 0 0 1-1-2.7v-1.2l.3-.9-1.2-1-.4-.5v-.4h3.8s.5-.1.6-.3l.6-.9.4-.6v-.8l-.2-.6h1.4l.5-.4v.9l.5.4-.3.3-.7.5-.8.3.3.4h1.5l.7-.6.4-.4.2-.3s0 .6.2.9q0 .4.4.8l.3.3h-.8l-.4.4-.3.8-.1-.4-.3-.5-1-.2h-1.2v1l-.5.1q-.4 0-.6.2v.7l.1.8.4.2h7l.8.3q.4.4.5 1 .3.5.2 1.2-.2.5-.8 1l-.6.4v4.3l.1.4h1l.9.1v-.7l-.3-1.5q0-.6.3-1.3l.6-.6.3-.5v-4.4q0-.2-.4-.3-.3 0-.5-.2t-.1-.7l.5-.4.5-.9v-3.6.2a3 3 0 0 1-2 .6q-.4-.2-.3-.8 0-.8.5-1.3.6-.9 1.4-1.4l.5-.5v-3.1l-.3.2-1.2.5-2.2 1q-.7.5-1.3.7-.7-.1-1.6 0-1 .6-2 1.6l-2.5 1.7q-.4.4-1 .6l-1.5.4q-1 .2-1.7.7l-5 2.8-1.7.7h-1.3l-1.1.5q-.7.5-1.6.7h-2q-.9 0-1.6.2-.5.3-1 .9l-1.7 1.4-2 1.7c-.6.4-1.5.6-1.6 1.2q0 .3.4.4h6.2c1.8.1 3.7.5 5.5.2l1.6-.6q1.3-.4 2.7-.4l4.8-.3q.5-.1.8.1 0 .4-.4.6l-1.3.3c-1.5.2-3-.1-4.5 0q-1.6.3-2.8.8l-2.4 1.2a17 17 0 0 1-4.4 1.3h-1.3l-1.7.4q-.8.1-1-.1c0-.3.6-.4 1-.5q.8-.4 1.8-.4 1.4 0 2.6-.3 1-.2 1.4-.8.1-.5-.1-.7l-6-.2h-62.7v.2l-.6-.2h-5.8l-.2.2h-31.4v-.2h-14.8l-1 .7-1.3.3h-8.8c-.3 0-1.3-.2-1 0l.2.3.6.6.6.3.8.1s-.9.2-1.3.1l-.6-.1-1.4-.8-.5-.5-.5-.2q-.6 0-1 .3l-.8.5q-.6 0-1-.2l-.8-.8q-.9-.4-1.7-.5h-1.7l-1.2.5-.7.6-.6.3h-1q-.3-.4-.7-.6l-.8-.3h-.5l-.2.3q0 .3-.4.6-.3.4-.8.6h-1.1l-1.2-.2-1.4-.3h.5l1.5.1h1l.4-.3.3-.9-.8-.5H276q.7 9 2.5 17.6a125 125 0 0 0 8.4 25.8l2.8 5.2.8.1h5.1l.3-.2q.4-.3 1-.2l1 .5q1 .2 2.3 0 .7.2 1.4 0c.2-.2 0-.5.3-.7a1 1 0 0 1 1 0l.3.6h.7l.8-.2.4-.4q1.3-.5 2.5 0 .4.1.7.4l.6.3 1-.3q.9-.5 1.8-.3l.6.6c.8.3 1.7 0 2.6 0q.9-.3 1.8 0l.4.4q.5.2.9.1l2.9-.4q.8-.1 1.4.1t.5.7q-.1.3-.5.2c-.8.2-1.7-.2-2.4 0l-.5.4q-1 .5-2 .4-.6-.2-1.2-.7t-1.3-.5h-1q-.4.3-1 .4l-1.8-.1-1.5-.4h-2.2q-.6 0-1.1.3t-1 .8l-1.1.1q-.8-.2-1.4-.7l-1.2-.2h-1l-.9.3-1.7-.2-1.4-.3h-3.8l-1.4.6-.8.2 3.4 6.5a103 103 0 0 0 18.5 23 197 197 0 0 0 14.1 12.8q6 5 12.5 9.3a189 189 0 0 0 12.3 7.9q6.3 3.6 12.8 6.8 5.6 2.8 11.4 5c2.7 1 6.7 2.1 8.3 2.1 1.9 0 5.6-1.6 8.2-2.7q7.1-3 14-6.7t13.8-7.8a213 213 0 0 0 13.2-8.8q7.3-5.1 14.1-11a131 131 0 0 0 21.6-24.4q4.7-7 8.6-14.6c1.6-3.2 4.3-10 4.3-10m-205.8-40h1c.3-.1.4-.7.8-.7q.3.1.5.4l.5.6.7-.3q.5 0 1 .3l.5.3q1 .3 1.9.1l1-.2q.6.1 1 .4h2l1-.3h1.1l-1.6-1.2-4.8-4q-1.6-1.3-2.8-2.8l-1.3-1.7 1-.1.4.6.3-.3c3-3.6 5.7-7 9.4-10.2l.2-.6c.3-1 1.7-2.6 1.7-2.6l-13.8-2.8-.6 2.2a93 93 0 0 0-1 23m2.5-28 12.8 3q-.3-.8 0-1.6c0-.5.7-1.1.7-1.1h2.3V342l-9.7.4v-.4q.2-.3.5-.3h.7q.5.2 1 0v-.3l.3-.3h1.2l.2-.4.2-.1-8.6-1.6q-.4.6-.8 1.7zm2.7-7.2 9.8 3.4.1-2.3h.8l1-.2.2-.4.7-.3h.5v-.1l.8-.1v7.5h2.2l-.2 1.6c0 .6.3 1.6.3 1.6h-2.3v2.2h2.4s-.8 1-1 1.6a8 8 0 0 0 0 3.8l1 2.5 3.6-3.8q.3-2 1-3.8c.4-.9 1.6-2.4 1.6-2.4h4.2v-2.5h-2.7s-.6-.7-.6-1.2 1-1.4 1-1.4h2.3v-2.2h-.1l-.6-.5h-.5v.7l-.7.9-1 .2q-.5 0-.9-.4l-.3-.2-1 .1-.6.5q-.7.3-1.5 0l-1.3-.5-1.5-.2-.5-.4v-.4q.3-.1.8 0l1.1.2h1l.3-.4.7-.3 1.3.2.5.4h.7q.2-.1.3-.6l.7-.3.4-.5 1.4-.6 1.3-.2v-2.2l-21.7-7.2-.6.6a34 34 0 0 0-3 4.8zm40.4 2.2.7.2q.4.1.7.4l1.8.4h1q.5.2.9.6l.6 1 1 .5 1.1-.2q1 0 1.6.5l.7 1c.4.1 1-.3 1.5-.2q.6.1 1.3.5l.7.9q.3.3.2.7l-.4.2-.7-.2q-.2-.3-.6-.5l-1.2-.2h-.5q-.4.5-.8.5c-.3 0-.2-.7-.4-1l-.8-.5-1.4-.2q-.7 0-1.3.2l-.4.5h-.8q-.2-.4-.2-.9c-.2-.4 0-1-.4-1.2q-.3-.4-.9-.3h-1.2l-.6.5-.4.5q-.4.4-1 .2c-.2-.2.1-.7 0-1q-.2-.6-.5-.9h-1.2q-.5 0-.9.2l-.5.3-.3.5-.6.2v9.8h2.3s-.9.8-1.1 1.3a7 7 0 0 0 .2 5.9h1.5l.7-.7.7-1 .2 2.6h-2.3l.1.1h-2.3v2.5l3.1 8.4.8-.5c.7-.5 1.6-2 1.6-2l.8-2.1h-2.9v-2.3l.4-.5q.2-.3.5-.3h3.5l.3-.5 1-1 .6.2-1.1 2.1c-.6 1.3-1.5 4-1.5 4s-1 2.4-1.7 3.5l-1 1.5h-.1 2.4c1 0 2 .5 2.9.1.3 0 .4-.8.8-.8s.4.6.8.7q.7.2 1.5 0l.5-.5.6.2 1 .3q1.5.2 3 0l.1-.4v-.5l-.2-.6-.3-.4-.4-.6.2-.2h2.3s-1.2-1.7-1.7-2.7a29 29 0 0 1-2-4.7 24 24 0 0 1-1-4.3V357l-.8-.1-1.3.1c-.8.3-2 1.3-2 1.3l-1.5-3.5 2.9-1 2.7-1.4.1-1q-.3-.2-.8-.1h-1.3q-1.5.1-2.9-.2c-.4 0-.7-.5-1-.7q-.8 0-1.3-.3l-.8-.8q-.6-.2-1.1-.1h-1.3q-.6 0-1-.2-.3-.4-.4-1-.2-.3-.6-.5h-.8q-.3.3-.7.3l-.3-.2q0-.2.3-.5l.6-1 .8-.2.7.2q.5.2.8.7l.2.6.3.4.5.2h.6q.3 0 .5-.3h.5l.7.3q.3 0 .5.4l.6.6 1.1.8q.3.2.7.2l1.2-.1.6.3.4.3h1l1.5-.5h.3l.1-.7.2-.9-1.8.3-.1-1 2.8-.7q3-.7 6-1.7c1.6-.5 4.4-1.7 4.7-1.8l-52.7-20.4-2 1.3-1 1zm-30.1 10.7h2.8v-2.1H292l-.5-.4zM269.9 322l1.3 3.7h3.9l-3 2.4 1 3.7-3.2-2.1-3.2 2.1 1.1-3.7-3-2.3 3.8-.1zm228.2 0 1.3 3.7 3.8.1-3 2.4 1 3.7-3.1-2.2-3.2 2.2 1-3.7-3-2.4 3.9-.1zm-233.3 13.7 1.3 3.7h3.8l-3 2.4 1 3.7-3.1-2.1-3.2 2.1 1-3.7-3-2.3 3.9-.1zm238.4 0 1.3 3.7 3.9.1-3 2.4 1 3.6-3.2-2.1-3.2 2.1 1.1-3.6-3-2.4 3.8-.1zm-194.2.1v2q.3.3.7.2c.3 0 .3-.5.6-.6l.9.1.4.6q.4.3 1 .2l.6-.3h1q.5.3.7.7l.1.5.8.4.8.4v-1.7zm155.2 1.6-1 .4-1.3 1.4-.6.5-.4.8q0 .5-.3.8l-1 .7-.5 1-.2.8-.4 1.2q-.6.5-1.1 1.2l-.4 1q-.2.8-.6 1.4-.7.6-1.5 1l-2 1.9-1 1-.8 1q-.4.4-.4 1l-.1 1q-.3.7-.8 1c-.3.4-1 .5-1.2 1-.3.5 0 1.1 0 1.6l-.4.8-.5 1.1q-.6.5-1.3.8l-.7.4q-.4.2-.6.6l-.2 1.1v1.3l.7-.1 1.3-.7 2.2-1.1 1.5-1.3 1-.4 1.6-.2 3-1.3q1-.2 1.8-.6.9-.8 1.4-1.7.4-.6 1-1 .7-.6 1.6-.7l1.2-.3 1.5.2q1.5-.3 2.7-1.1l1-.7.4-.8q0-.5.2-.7.2-.3.6-.1t.5.6l.9.3q1-.2 1.8-1l.2-.6v-.6l-.1-.7c-.1-1 .7-2.5-.1-3l-.6.4-.9.6c-.2 0-.5.4-.7.2v-.4q.2-.6.7-1l1-1q.4 0 .6-.2v-2l-.3-.5-.2-.1-3.9-2.7-1.3-.9-1.4-1q-.6-.9-1.3-1.5zm-169.9 1h-.5l-.4.2c-.2.1 0 .4-.3.5l-.9.5-1.1.3 3.2 1zm23 .2v1.3l.7-.6.6-.3zm-7 .8h-.5l-.8.5v2.2h2.8s-.6.8-.5 1.2c0 .5.7 1.4.7 1.4h-3v2.5h3.2s-.8 1.8-1 2.7a17 17 0 0 0-.6 8.2l.5 1h-2v2l4.5-.1s-.4.5-.7.6l-1.5.8-2.3.4v.6l3.2 5.5 4.3-7.5v-1.6h-3.4s-.6-.9-.7-1.4q-.4-1.2-.1-2.6l.3-1.8.9-1.5.6-.9h2.4v-3.9l-.3-.2q-.2 0-.3-.3h-.2l-.2.4h-.3l-.4-.2-.5-.4.2-.5.8-.7.5-.1-.1-.2v-.4l.8-.4v-3.2l-.5-.5q-.5-.4-1-.3l-.5.5q-.5.4-.8.2-.2-.2-.2-.8v-.8l-.6-.4-.3.2q-.6.4-1.2.4-.4-.2-.6-.5zm36.3 4.4.2 7.1h4l-3.5 2h-.4l.2 5.5h5.6l-3.2 2h-2.4l.3 9 .5 1.5h.4v.5h1s.1-1 .3-1.4l.6-1.2a7 7 0 0 1 2-2q.8-.5 1.8-.6a5 5 0 0 1 2.2.2q1 .3 1.5 1c.3.4.4 1.1.4 1.1h1.4v-6.7h.1v-.2q-.1-.3-.4-.5l-.2-.2v-.4l-.3-.3-.5-.1-.4-.3v-.3l-.2-.3-.8-.2h-.6l-.1-.4h-1.3l-.7-.1q0-.3.3-.5l.5-.2h.9l.9.1 1.3.2.6.1v.2l-.2.2h1l.5.2.1.3h-.2l-.3.2.3.2.6.2.1.4-.4.2v.3l.6.3.1.3-.1.6h.3v8.3h.3l.2.2.1.4h1.3l.2-13h-3.9q-.3 0-.7-.3l-1-1-.2-.4 5.9-.2v-5.4l-.2-.4q-.2-.3-.5-.4l-4-.1h-1.1q-.4-.2-.3-.7v-.7zm-1.1 1.5a77 77 0 0 1-12 3.2l-.2 1.5h2.1c.5 0 2.5-.1 2.8.1q.4.2.4.6 0 .6-.6 1s.4.4.7.4h.5q.5 0 .8.3l.5.6 1 .5h.8l.5.4.7.1q.4 0 .7.3v.4l-.6.1h-1.4q-.4 0-.8-.3l-.5-.5q-.7-.1-1.2-.4l-.5-.6-1-.4-1.4-.4-.5.2-.5.3 9.5 5.7h.2v-5.5l-3.6-2h3.7zm5.7 2.3h.3q.4.2.7.6l.4.8v.7q0 .3.4.5.3 0 .5.3l.2.5v.3q.4 0 .7.2.4.2.6.6v.4l.9.1.7.5q.3.2.3.4 0 .5-.3.7-.4-.2-.6-.5h-.8l-1-.2q-.3-.2-.5-.7l-.2-.6-.6-.3-.6-.4-.4-.7v-.7q0-.4-.3-.6l-.5-.2-.3.2-.8.2-.6-.2-.7-.4-.4-.3.2-.2h.4l.4.2q.4-.2.6-.6l.8-.5zM367 351l36.5 14.7-.3.6-36.6-14.5zm-105.8.2 1.3 3.6 3.9.1-3 2.4 1 3.7-3.2-2.2-3.1 2.2 1-3.7-3-2.4 3.8-.1zm245.4 0 1.3 3.6 3.8.1-3 2.4 1 3.7-3.1-2.2-3.2 2.2 1-3.7-3-2.4h3.9zm-173.5 1.1v2.3l.1 3.9q.5 2 1.2 3.8a40 40 0 0 0 3.1 7.2l.4.5h4.1l-.3.8h3v-.3q.5-4.7.7-9.6v-.6h-1.6l-5-2h4.8l-8.6-5.4h-.4l-1-.3zm-43.7 1-.4.5-1.6 2.5q-.7 1.3-1.2 2.8-.9 2.7-1.4 5.4l-.2 2.2h.2q1.8 1 3.9 1.8l2.3.8 2.8 1h.4V367H290s-1.5-1-2-1.9q-.3-1.4-.2-2.8c0-.8.5-2.4.5-2.4h6V358h-4s-.7-2.4-.8-3.7zm183.8.4h-.3l-.6.4-.1 1q0 1-.4 2-.6 1-1.5 1.7l-.6 1v5.1h.7l.8.1q.4.3.4.7.1.6-.4 1.1c-.2.4-.8.5-1 .9l-.4.5v3q.2 0 .3.2.3.2.4.5 0 .8-.5 1.6l-.1.5v3.6l.7.3.2.6v.4l-.3.1h-.5v6.5l.6.3q.4-.1.5-.6.2-.6.6-1 .6-1 1.4-1.6v-6.3h-1.3l-.8-.1a1 1 0 0 1-.2-.9l.5-.2.3-.5.9-.5.6-.8v-9.2l-.4-.5q-.6-.4-1-.9v-1l.8-.6.6-.8zM301 354l-3.3 3.7.2.4h-3v1.8h3.6l-.5 2.5.1 2.4 1 2 2.8 2.6 5.9-6v-.7h-.6l-1.6-.1q-.7 0-1.6-.4-.9-.2-1.6-.6l-.8-.6h6.2v-2h-5.4s-.8-1-1-1.7a9 9 0 0 1-.4-3.3m170.1.3-1 .2-.5.2v2.8l1.2-.8.4-.8zm-121.3 0 .6.2c.2.2.4 1 .4 1l.4-.3.8-.2h.8l.7.9-.8-.2h-.7q-.3 0-.6.4c-.2.1-.4.6-.7.5-.4 0-.4-.7-.6-1q0-.3-.3-.5l-1-.2h-.6l1-.5zm24.3 2 29 10.2-.3.4-29.3-9.7zm-20.5 4.3h.5l.8.8q0-.2.3-.5l.7-.2 1 .2.4.5.6 1-1-.7-.8-.1q-.4.1-.7.6l-.5.5-.2-.3-.5-.6q-.5-.4-1.1-.4l-.7.2-.7.6s.2-.7.5-1q.3-.5.8-.5zm-37.1 2-3.9 7 .9 1.5h3zm-35 .3-.7.1-.5.5 1.4 1.4q1 .8 2 1.3v-.8a4 4 0 0 0-1-2l-1-.5zm85 .6.5 2c0 .3.4 1.7 1 2.3l.6.3.4-.6h.6q.5.4.7 1l1.4.8h.3l1.3.1c1.2-.2 3.5-1 3.5-1l6.4-2.1zm-49.2.4v7.2s1.5 0 2.2-.3h.4zm-8.4.1v2.9l2.5 3.2.5-.8zm-1.1 0-5.4 5.9 1 .8 4.4-5.2zm-46.9 2.1 1.3 3.6 3.9.2-3 2.3 1 3.7-3.2-2.1-3.2 2.1 1.1-3.7-3-2.3 3.8-.2zm246 0 1.3 3.7h3.8l-3 2.4 1 3.7-3.1-2.1-3.2 2.1 1-3.7-3-2.3 3.9-.1zm-199.1.3-3.7 4.7h3.6zm-12.5.6 2.3 3.4 2 .3 1 .1 1-1-2.8-2.8zm-.3 0v3.3h2zm14 .9v3.2h1.9l.2-.3zm149 1.4q-.4 0-.5.3t.4.7q.2.9.6 1.4h.6l.1-.4v-.7l-.5-.7q0-.2-.3-.5zm-145.7.9-.3.7.1.2h.7zm-10.2.1-.6.6h1.2zm161 2.2H461q-.7 0-1.2.3l-.2.7v3.2l.3.2h2q.5 0 .9-.2l.6-.5.4-.4.2-.8v-1.6q0-.4-.2-.7l-.4-.2zm1.5 0-.1.1v4.5h.7v-4.5zm-6.2 1.5h-.1q-.3 0-.3.4v1.6l.3.5v.3h.4v-2.6zM326 377.5s.6 1 1 1.3q.9.4 1.7.5c1 .2 2.9 0 2.9 0s-.4.8-.7 1q-1.5.6-3.1.3l-2-.5q-1-.3-2-.1-.6 0-.7.4l.3.4c.2.3.9.3.8.7q-.1.3-.6.4-1.5.3-3-.1l-2.7-.5h-2q-1.2.5-2.5.6-1.7.2-3.4-.3l-1.7-1.3 1.9.4q1 .4 2.3.5 1 0 1.8-.3.6-.2 1-.7c.2-.4.1-1.3.1-1.3l.6.3 1.7.6 1.3.7q.5.3 1 .2c.5 0 1 .3 1.3 0q.3-.3.2-.7t-.6-.4c-.6-.3-2.3-.5-1.9-.5s2.1 0 3.2-.3l3-1zm140.3.2-1.7.1h-.3v.7l.7 1.1.6 1.3v1.4q-.2.7-1 1h-.3v2.2h1.3l1 .7c.3.1.5.6.8.5l.3-.5q.3-.6 1-1v-2.5l-1-.8-.5-1-.3-1.2q.1-.6.5-1l.8-1zm-111 .7.8 1.5.9.6q.5.5 1 .6c.8.3 2.3.1 2.3.1l-2.4.6q-1.1.3-2.1.2-.5-.4-.9-1c-.3-.1-1.6.4-1.6.7 0 .4-.7.5-1.1.6-1 .3-2.3-.6-2.8.1-.2.2-1 .6.2.7a15 15 0 0 1-3.5.6h-2q-.7-.3-1.3-.8c-.5-.3-1.5 0-1.8-.6l.2-.4-.1-.4-.8.5-1.5.6h-1.6q-1.2 0-2.3-.3l-1-.3h3.8l1.6-.3q.8-.2 1.3-.6c.3-.3.4-1 .4-1l.4.5.7.7 1 .5 1.4.2h1.5l2.4-.2 2.2-1 2.3-.6 1.3-.7zm-69.4 2s.7.7 1.2.9q1.1.3 2.2.2a6 6 0 0 0 2.5-.7s.8.3 1.3.3l1.5-.2c.4 0 1.1-.5 1.1-.5l1.7 1 2.1.4s-1.6.3-2.4.2c-.5 0-1-.4-1.6-.3l-.4.2-1 .8q-1 .4-2 .3c-.5-.2-2.5-.3-3.7-.5l-2.1-.6h-4.9l1.3-.4zm-23.7 1 1.3 3.6h3.8l-3 2.4 1 3.7-3.1-2.1-3.2 2.1 1-3.7-3-2.3 3.9-.1zm243.6 0 1.3 3.6h3.9l-3 2.5 1 3.6-3.2-2.1-3.2 2.1 1.1-3.6-3-2.4 3.8-.1zm-127.7 1s1.9 1 4 1.7l.3.1a7 7 0 0 0 2.7-.2l1.5-.8.7-.6v-.1l-.9.2-1.6.5h-.1a6 6 0 0 1-2.2.2h-.2c-2-.7-4.2-1-4.2-1m-9.6.2q-.5 0-.9.2-.7.6-.8 1.6-.3.6-.1 1.3 0 .6.4 1.2 2.3 4.2 5.2 8.1l.5.7.6-.2v-2a40 40 0 0 0-.8-5.8l-.6-1.8q-.3-1.1-1-1.9a4 4 0 0 0-1.7-1.2zm-50 .8s.8.9 1.3 1.2q1.6.9 3.6 1.1c1.6.3 4.9.2 4.9.2s-1 .8-1.5.9q-2 .4-3.8 0-1.6-.4-3.1-1-.8-.6-1.7-.9l-1.3.2-1.2.7q-.8.5-1.8.7a7 7 0 0 1-2.4.1l-1.2-.4q-.4-.4-1-.4h-1q-.5 0-1.1.3l-1.7.2c-.5 0-1.4-.5-1.4-.5s1.8.2 2.5-.2q.7-.1.9-.7-.2-.6-.4-.7s1.7.8 2.5.9q1.5.2 3 0a17 17 0 0 0 6-1.7m85 0v.1l1.5 1q1 .7 2.9 1.3a8 8 0 0 0 2.8 0h.3q1.4-.5 2-1l1.1-.8v-.1h.1-.1l-.3.1-.9.3-2 .7h-.4a7 7 0 0 1-2.5 0q-1.6-.3-2.8-1-.8-.1-1.3-.4zm-12.7.7 1.5.8a9 9 0 0 0 3.2 1l1-.2h.5l1.7-1 .8-.6-1 .3-1.7.5h-.4l-1.4.1q-1.4-.1-2.6-.5zm56.7.2.8 1a6 6 0 0 0 2.1 1.3 5 5 0 0 0 2.8 0q.9-.2 1.5-.8l.7-.5v-.1h-.3l-.6.3-1.5.3-.3.1q-1 .2-2 0h-.3l-1.8-1zm-28.4 0 1.3 1.1a8 8 0 0 0 2.8 1.4q1.5.3 2.8 0 1.6-.4 2.6-1.1l1.3-1-1.5.6-2.5.7q-1.3.3-2.6 0h-.1q-1.4-.4-2.6-1zm15.2.6 1.3.9a8 8 0 0 0 2.9 1q1.1 0 2-.3h.3l1.5-1 .7-.5-1 .2-1.5.5h-.2q-1 .4-1.7.4h-.3l-2.5-.7zm-54.8.7s1.3 1 2.9 1.7h.3q1.5.2 3-.2 1-.3 1.7-.8l.7-.7h.1-.3l-.7.2-1.6.5h-.1q-1.4.4-2.6.3h-.2c-1.6-.7-3.2-1-3.2-1m-88.2.3.8.1q.6 0 1 .3c.2.2 0 .5.3.7q.6.4 1.3.1l1.2-.3c.2 0 .6-.4.8-.1q.4.8-.4 1.5-1.1.8-2.6.7a4 4 0 0 1-2.2-.2q-.3-.5-.7-.8c-.5-.2-1 .3-1.5.3H287c-.7 0-1.4.4-2 .3l-1-.5-.6-.1.8-.1 3-1 2.8.1c.4 0 1 .3 1.3 0 .1-.3-.4-.6-.2-.9zm100.7.6 1.4.8a7 7 0 0 0 3 1l1.8-.4 2.5-1.5s-1.4.3-2.7.8l-.5.1-1.3.2q-1.4-.1-2.6-.6l-1.1-.3zm79.3.1q-.4 0-1 .4l-.2.2v2.2l.2-.1s.5.6.6 1l-.2 1-.5.9v.7l.2.4v.8l-.2.3v3.7l.6.5v.8q-.1.3-.4.5l-.1.2v2.7l1.2-.7q.6-.5 1-1.2l.6-1.2v-5l-.3-.1q-.4.1-.7.6l-1 1.1v-2.2q0-.7.6-1.5l.9-1.1.5-.7v-3.6l-.6-.2zm-56.5 0-1.4.7-2 1H409q-1.6-.4-2.7-1l-1.6-.6 1.4 1q1 .8 2.7 1.3a6 6 0 0 0 2.4 0h.3q1.5-.6 2.2-1.3zm-78.6.4s-.2.7-.1 1q0 .5.3.8.6.4 1.3.3h2.8l-1 .7a5 5 0 0 1-2.1.3c-.7 0-1.3-.6-2-.6h-.4l-1.7.3h-2l-3.2-.3 1.5-.4 3-.1 1.6-.6c.8-.3 2-1.4 2-1.4m97.8.4 1 .8a6 6 0 0 0 2.3 1q1.5.2 3-.3h.1l1.4-.7.6-.6-.8.2-1.6.4q-1.2.4-2.5.2h-.3l-2-.6-.8-.3zm33 .1q-1 .1-1.7.6l-1 .6v3.2q.2-.2.6-.1.3 0 .5.4-.2.8-.8 1.7-.3.7-.4 1.6v3.3l.2.2.8 1h.5q.3-.3.3-.7l.3-.7.5-.6.6-.3 1.1-.2V396l-.4-.5-.9-.3c-.4 0-1.1.3-1.1.3l.2-.9 1-2.2 1.3-1.6v-2.7h-.1l-1-.4zm-48 .3 1.2.9a8 8 0 0 0 2.9 1.2l2.4-.1q1.2-.4 2-1l1.1-.8-1.3.4q-.8.4-2 .6h-2.6l-2.3-.7zm27 0 1.3 1a8 8 0 0 0 3 1.4q1.1 0 2.1-.4h.2q1-.5 1.6-1l.8-.8-1 .3-1.7.7h-.2l-1.7.4h-.3l-2.6-1zm-140.7.7 1.5.8q.9.3 1.8.2.3 0 .7-.3l.1-.5 2.8 1.1 1.8.2 2.9.2s-.4.6-.7.7H315q-1 0-2-.3l-1.8-.2-.6.2-1.1.3q-.8 0-1.4-.3l-2-.3h-2.5q-.7.1-1.2.4-.9.5-1.7.5-.7-.1-1.1-.5l-1.8-1-.6-.2h1l3.4.4 2.3-.5zm-40.3 7.7 1.3 3.6 3.8.1-3 2.4 1 3.7-3.1-2.2-3.2 2.2 1-3.7-3-2.4 3.9-.1zm238 0 1.3 3.6 3.9.1-3 2.4 1 3.7-3.2-2.2-3.2 2.2 1.1-3.7-3-2.4 3.8-.1zm-35.4 4.4h-.3l-.7 1q-.3.6-.9.6-.4-.1-.7-.6 0-.2-.3-.3l-.6.3v1.8c.3.4 1 .6 1.1 1.1q.2.7 0 1.4l-.8 1-.3.5v7.3h.3l.4.7.2 1 1 .2 1-.2q.5-.4.8-1 .5-1 .3-2.4 0-.5-.5-.8c-.5-.3-1.2 0-1.8-.2q-.4 0-.6-.3 0-.4.4-.7c.6-.4 1.4-.2 2-.4q.5-.2.8-.6v-1.5c-.4-.5-1.1-.8-1.2-1.4q0-.7.5-1.5l.8-.8v-3.5q-.2-.4-.6-.6zm-91.8 0h-.7l-1 .1q-.5 0-.8.3-.2.3-.1.8v.2l1.7-.2c1 0 2.7.3 2.7.3l-.1-1.2h-.3l-.8-.2zm71.7.2q-1.2 0-2.3.2l-2.4.8-1 .6-1.6 1.2 1.2.1h1.8q1.6 0 3.2-.6 1.7-.4 3.2-1.1l1-.8s-.8 0-1.1-.2l-1.3-.2zm-137.8.1h.1l.8 1 1.6 1.1 1.2.3h2.2c.5-.1 1.4-.3 1.4-.5q0-1 .3-1.3h1.1c.4 0 .2 1.2.2 1.2l1.2.5c.3 0 0-1.1.3-1.1h1.4c.3.1 0 .9.2 1.2l.9.5c.1.3-.2.8 0 1 .6.5 1.5-.2 2.3-.1l1 .3 1 .2c.3 0 .9-.1.9-.3v-2c0-.2 1.3-.2 1.4 0v1.8h1.7v-2h1.8c0 .4.8.6.6 1 0 .2-1 .6-1 .8s2 1 3 .7h11.3l7-.2 4.5-.8q2-.5 4-.7h2.8q1.1 0 2.1.6l1.5 1.5q1 1 1.6 2.2.5 1 .6 2.3.2 2.5 0 4.9-.1 2.4-.6 4.7 0 2.1-.4 4.2 0 1.7-.8 3.2-.3.5-.7.5c-.7-.3 0-1.6 0-2.3l.3-6.2q0-1.8.4-3.6 0-1.8.3-3.5.1-2-.2-4.1-.1-.2-.2 0v3.1l-.4 2.9q-.2 2-.8 3.7l-.7 1.9q-.2 1-.1 2.1l.1 4q0 .8-.4 1.7-.5.7-.8 1.6l-.1 2.7-.5 1.5q-.5 1.1-1.4 1.7-1 .6-2 .2c-.3-.3 0-.9-.1-1.3l-.6-.6v-.9l.3-1.6q0-1.5-.3-3l-.9-1.1q-.6-.6-1-1.3c-.2-.4.1-1-.2-1.4q-.6-.3-1.3 0-1-.2-1.7.2c-.3.3 0 .8-.1 1.2q-.3 1.5-1 2.9l-1 .7-.5 1.3-.2 1c-.4.5-1.3.4-1.8.8q-.5.3-.7.8l-.1.9q-.2.7-.7 1.2-.6.7-1.6.8t-1.8.1c-.9 0-2 .6-2.6 0-.3-.2.2-.9 0-1.1-.4-.3-1 .1-1.5.2h-2c-2.6.2-5.2.8-7.7.2l-1-.4h-.6l-.1.4.4.6.1.4q0 .3-.2.5-1.3.5-2.7-.1-.4-.2-.6-.5c-1.1-.5-2.5.2-3.6-.4l-.5-.5.4-.5c.7-2.2 0-4.6.1-7l.1-2.4q.2-.7.2-1.5-.2-1.2-1.1-2-.7-.8-1.5-1.3l-.7-.3 1.5-1 .2-.2 2.4-2 .4-.5.3-.6a4 4 0 0 1 1 1.8l.4 1.4.4.7.9.3h.1l1.4 1q.4.4.6 1a6 6 0 0 1 .4 2.4h-2.2v9.7h.3v-.7l.4-.5.5-.5 1-.2q.5 0 1 .3l1.6.2 2.3.2q.3 0 .3-.4c.3-.4 0-.9.1-1.4l-.1-1.7-.5-1.8v-1s-2 0-2.9-.3q-.8-.1-1.3-.7c-.1-.2 0-.8 0-.8v-1.5l-.5-1.6q-.2-.6-.6-1t-1-.8l-.2-.1.8-.6q1-1 1.3-2.5l.1-2 .2-4.5.8.9.9.3q1-.3 1.7-1l1-1.2c.3-.6.4-1.8.4-2.2l-.2-.2s-.9-.8-1.5-1h-1.5l-1.4-.2-1.4-.4-2.3.2-1.3.2-1.4-.2-1.4-.2-1.5.2h-1.6l-1.3-1.2q-1.1-.5-2.2-.6h-4.5l-.7-.2h-.1l-.9-.3-1-.2-.2-.2-.1-.1v.1l.2.3q.4.4 1 .5l.9.4.9.3 1.6-.1h2.8q1.1 0 2 .6c.5.2.8.8 1.4 1q1 .3 1.8.2l1.5-.2 1.3.2 1.5.2 1.4-.2 2.1-.2q.8.1 1.4.4l1.5.3h1.3c.5 0 1.2.6 1.4.7q0 1-.4 1.9-.3.6-.9 1-.6.7-1.4.9l-.5-.2-1.6-1.8-.2 5.7v2q-.4 1.4-1.3 2.3-.4.5-1 .6l-.7-.2-.3-.5-.3-1.4-.4-1-.7-1 .1-.5c.2-.7 0-2.2 0-2.2s0 1.4-.4 2.1l-.8 1.3-.4.4-2.3 2-.2.1q-.7.8-1.6 1.2t-2 .2q-1.3.1-2.4-.2-.7-.4-1-1.1l-.2-.4.1-1.2 1-1q.6-.5 1.2-1.3.6-1 .7-2.3v-1.8q0-.9.2-1.6l.5-1q.4-.5 1-.8l.2-.1 1-.4.4-.2h.2v-.1h-.7l-1 .2a4 4 0 0 0-1.5 1l-.6 1.2-.1 1.8-.1 1.7q-.1 1.3-.7 2.2l-1.1 1.2q-.6.4-1 1.1v.2l-1.3-.8-1.5-.3 1.3-.4q1.2-.8 2.1-1.9l.7-1q.8-1.2.8-2.3l-.1-.7-.2-.4v1q0 1-.9 2.1l-.7 1q-.8 1-2 1.7c-.6.3-1.8.6-2.3.7h-1.2l-1.6.1q-.8.2-1.4.7c-.3.2-1.3.2-1.5.1-1-.5-1.6-2.2-1.3-3.4q.2-.4 1-1l2.5-2.2q.9-1 1.3-2 .3-.7.3-1.6v-1.2l.3-.5q.7-.6 1.3-.7l.8-.2h.4l-.4-.1h-.8a3 3 0 0 0-1.6.6l-.5.8v1.3a5 5 0 0 1-1.4 3.2q-.4.5-1.2.8l1.5-2q.3-.3.4-.7.3-.8.2-1.6-.3-1-1-1.8-.4-.9-1.2-1.8l.9-.6.7.5.8.3q.4-.2.4-.5.2-.4.1-1zm45.2 1h.6c.7.1 1.5 0 1.8.6q.3.3 0 .6c-2 .8-3.4.8-5.1 1q-3.8.3-7.5.2l-8-.2-1.4-.2.8-.2 7.2-.5 7-.7 2.8-.5zm22.9.5h-.2q-.3 0-.5.2t0 .6q.3.4.7.4.5.2.8.1.2-.1.2-.4v-.6q-.5-.4-1-.3m43.2.4h-.6q-1 0-1.7.3c-.7.2-2 1-2 1l1 .3 1.6.2h2.7l2.7-.1.9-.4-1-.6q-.8-.5-1.8-.6zm-45.5 1h-.1q-.3 0-.3.4 0 .3.3.7.5.4 1.2.3.5 0 .7-.3-.1-.4-.7-.7-.5-.4-1-.5m-58.8 2.6-.8.1-.8.4q-.3 1 .2 1.6c.3.3.8 0 1.1 0l1.1-.3c.5-.3 1.2-1.2 1.2-1.2s-1-.5-1.6-.6zm0 .3h.2c.4 0 1.1.4 1.1.4l-.8.9-.7.2q-.5.1-.8 0-.4-.5-.1-1.1l.5-.3zm38.2.3.3.3.8.6.2.1.5.6.2.4.4.8v-1l-.2-.4-.5-.7-.3-.2-1-.4zm-44 1-.7.3-.2.6q-.3.8-.1 1.2h.7l.7-.5q.4-.3.5-.7l-.2-.7zm17 .3h-.3l-1.2.4q-.4.2-.7.6-.2 1 .6 1.6.6.2 1.1-.3l1-.6c.4-.4 1-1.5 1-1.5zm-.2.4h1s-.3.9-.6 1.2l-.7.4q-.3.3-.8.2-.5-.4-.4-1.1.1-.3.5-.5l.8-.2zm120.7 0q.3 0 .7.3.3.6.2 1.4.2 1.6 0 3.3 0 1.3-.5 2.2-.4.6-1.3.8c-.7.2-3 0-3.2-.1q-.2-.3-.2-.8l.1-1.1.2-1.2q.6-1.3 1.6-2.4l1.2-1.7.8-.6zm-69.6 1.3-.5.1-.2.4v.8l3.7 2.2.3-.3c.2-.2.3-.8.3-.8L379 410m37.9 0 15.6.3c.9 0 0 .6 0 .6h-15.8zm31 .3-.2.1-.2.5-.4.1-.2.7v1l-.7.3h-.4c-.3.3 0 .9-.2 1.2l-.5.7v.8q.4.4.8.1c.3-.2 0-.7.2-1q.2-.5.5-.6l.8-.1v-1l.1-1.2.5-.4v-.6l.4-.1.2-.3-.6-.2zm-2.4.2s-.8 1.1-1.1 1.8c-.4.9-.5 3.2-.7 2.8-.2-.3-1.3-1-2-1.4q-1.1-.8-2.4-1.3-1.5-.4-3-.3l-3.1.1q-1.7.3-3.2 1a16 16 0 0 0-3.5 2.3l-1.5 1.6-20.7.3s-.5-1.5-.9-2a8 8 0 0 0-2-1.9l-2.8-1.4c-.4-.2-1.4-.3-1.4-.3l22.8.2c.2 0-1.3 1.5-1.7 2.5-.2.8.4 1.3.5 1.3.2 0 1 .1 1.5-.6.8-1 1.6-3.2 1.8-3.2l6.8-.2 7-.4q3.6 0 7.2-.3zm-176.4.3 1.3 3.6h3.8l-3 2.5 1 3.6-3.1-2.1-3.2 2.1 1-3.7-3-2.3 3.9-.1zm230.2 0 1.3 3.6 3.9.1-3 2.4 1 3.7-3.2-2.2-3.2 2.2 1.1-3.7-3-2.4 3.8-.1zm-161.4.1h-.3l.1.1.4.1.6.4.7.8.2.4.7 1.7-.2-2-.6-.8-.5-.5-.9-.2zm-14.9.3-.7.3-.3.7q-.2.8 0 1.2.2.1.7-.1l.7-.4.5-.7-.2-.8zm71.3 1.4a11 11 0 0 1 11 9.3h3.7l2-.5 1.2.1q.5 0 1.1.3h1.7v-2.3h-9.7l-.5-1.2h19.9l-.9.7-.5.6v5.6l-3.3 4q.9.9 2.1 1.4l1.8-4v.4l.5 1.4.4.6-.7 2.3q1 .3 2.5.3.5.8 1.5 1.6h-1.7a16 16 0 0 1-5.2-1q-1.9-1-3.3-2.6l-.6-.7-.6-.1-1.3.1-1.6-.1q-.9.1-1.6 0l-.2-.5q0-.4.5-.7l.4-.1h1.6l.6.3.9.1h.6l-.7-1.7v-.1h-3.2c-.6 0-1.4.5-1.7 0v-.3l-.7-.1h-2.4q-.7 0-1.3.3l-1.4.2-.9 2.4 1-.3 1.2-.3 1-.4h1.4q.4 0 .6.2v.5q-.1.4-.7.7c-.5.2-1-.2-1.5 0l-1 .8-.9.4q-.6 0-1-.2-.4 0-.7-.3a11 11 0 0 1-6.2 4.6h.2l1.8-.2h2l.7-.7c.6-.3 1.4 0 2.1 0 .6 0 1.3-.3 1.7 0v.5c-.3.6-1.2.4-1.9.6l-1.3.4-1.9.5c-1 .1-2-.2-3 0l-1.9.4h-2q-1-.1-2-.6h-2l-1.4-.3q-.8 0-1.6.3h-2.5c-.4 0-.8-.5-1.2-.6a7 7 0 0 0-3.5.3l-1.4.6-1-.3q-.4-.4-1-.6c-1-.3-2.2.1-3.3 0-.9-.1-1.6-.6-2.4-.6l-1.5.2-1.8.5h-.9q-.4.3-1 .4-.4 0-.6-.2c-.1-.5.6-.8 1-1q.7-.5 1.6-.6l3.2.1h2q.5 0 .8-.2l-.2-.4-1-.6q-.3-.5-.2-.8.9-.2 1.6 0l1.6.2h2c.5.2-1.3 0-1.8.4l-.3.5q.4.4 1 .5l1.2.5q.6.3 1.3.4l1-.3 1-.3h5.9l1.4.4 2.5.4a11 11 0 0 1-7.5-10.4 11 11 0 0 1 11.1-11.1m41.3.2c6.1 0 11 5 11 11.1A11 11 0 0 1 440 434h1l1.2.3 1.3.2 1.2-.1 1-.5h1.6c.3 0 1 0 1 .3q-.2.4-.9.5-.5 0-.7.2c0 .4.8.2 1.1.2l1.5-.1 2-.3h3c.7 0 1.5-.4 2 0q.2.4 0 .8-.6.5-1.5.5c-2 .3-4-.1-6.1-.2-.8 0-1.6-.4-2.4-.2l-.5.4q-1 .1-2-.1l-1.8-.6h-1.2c-.7.3-1.2 1-2 1l-.8-.5q0-.3-.3-.5c-.5-.3-1 0-1.6-.2l-.3-.1h-.3a11.1 11.1 0 1 1 0-22.2M306.3 414q-.3 0-.5.3l-.4.5v.4l.4.2.2-.3v-.4q.3-.1.4-.4zm89.1.5-.9 6.2q.6 0 1 .4l2.2-6zm-37.3 0v1.3l-.3 1.6-.1.6-.3.5a8 8 0 0 1-2.5 2.3 14 14 0 0 1-8.6 2.3 9 9 0 0 1-4.4-1.8l-1.1-1.5-1.4-2.5s.4 1.4 1 2.7l.3.7-.5 1.4-.5 2.7-.1 2.2v3.3l.2 1-.5.4q-.4.5-.5 1.2v.7l.1.2h.1l.1-.2.2-.5v-.1q.1-.6.4-1l.5-.4 1.2-.4h-1.2v-2.6l-.1-1.6v-2.1l.6-2.6.4-1.2.5.6a9 9 0 0 0 4.6 2q2.6.2 5-.6a14 14 0 0 0 6.7-4.4l.2-.6.2-.6.1-.7.1.2.5 1 2.3 2.7q1 1.3 1.7 2.7.4 1.5.5 3v2.4q.2 1.2 0 2 0 .6-.6 1.3l-.3.8v.1q.2 0 .3-.2l.5-.5.6-1.3q.2-1.1 0-2.2v-2.5q0-1.5-.6-3-.6-1.6-1.7-3t-2.3-2.7l-.3-.5-.5-1.4zm78.6 0-.7 5.6 1 .4 2-5.4zm-44.6.1-1.6.5 2 6 1-.3zm41.5 0-1.7.5 1.9 5.4 1-.4zm24 1.3c-.3 0-.5.6-.6.5l-.7.1s-.6 0-.6.3v.6l.4.2h1q.5 0 .9-.2v-.7zm-79.2.2-1 .9-.8 1.2 5.9 1.6-1.3-1zm50.7.7-1.6 1.7 4.8 3.5.6-.8zm12.6 0-4 4.4.6.8 5-3.5zm-41.2 0-4.1 4.9.5.7 5.2-3.7zm-12.8.1-1.5 2 5 3.6.5-.8zm-69.3.6-.5.3-.3.4v.4q0 .2.4.2l.1-.2.1-.4.4-.5v-.2zm152 1.9h.3l.3.5q.4.3.4.6c0 .3-.5.2-.7.3h-3.5q-1.1 0-2.2.3-1 .3-2 .9l-1 .7-.1.4q.4.3 1 .2c.6 0 1.6-.3 2 .3l-.3.6q-.8.3-1.8.3-1 .3-2 .1-.7-.1-1.2-.4l-1-.3q-1.3.2-2.4.7c-1 .2-2 .7-3 .6q-1.2-.1-2.3-.7c-.5-.2-1.4-.2-1.2-.6h.2q1.6.2 3.3.1c.7 0 1.6.4 2-.1.2-.3-.3-.6-.2-1l.9-.5 1.6.4.8.3.7-.1c.5-.4.2-1.2.7-1.6.8-.5 1.8.2 2.7 0q1-.6 1.7-1.3t1.4-.7l.5.4q1.2.4 2.6.1c.6 0 1.2-.5 1.7-.5m-112.6 0 .3.6 1 1.2a21 21 0 0 1 2.4 3.7l.8 2.4v1.9l-.5.7v1.2h.1l.3-.5v-.5q.4-.2.6-.8v-2l-.8-2.6a13 13 0 0 0-2.6-3.8l-1-1zm59.2.3-.2.4-.1 1.3h2.3l.3-.4-.5-.6-.7-.7zm3.3 0-.2 1v1l.2.7q.1.8.7 1.1.3.1.5-.2.3-.6.2-1.4v-2.2zm-44.5.6v.1l-.2 2 6.2.2v-1.2h.2zm59.5.7a2.3 2.3 0 1 0 0 4.7 2.3 2.3 0 0 0 0-4.7m39.6 0q.6 0 .7.4c.2.4-.4.7-.6 1l-1 .8q-.4.2-.9.1a2 2 0 0 1-1.2-.7q-.2-.2-.2-.5.1-.2.7-.2.8.1 1.6 0l.4-.6zm-30.3.5-6 1.6v.7l6.4.4v-.2q0-1.2-.4-2.5m-50.5 0a2.4 2.4 0 1 0 0 4.9 2.4 2.4 0 0 0 0-4.9m32 0-.3 2.5v.3l6.3-.3v-.9zm-22.8.3-6 1.6v1l6.2.1v-.7zm32 0a1.3 1.3 0 1 1 0 2.7 1.3 1.3 0 0 1 0-2.6m-50.4 0-.2 2v.8l6.2-.2v-1zm84.2.2h.3l.2.4q.2.4 0 .6-.4.3-1 .2t-1-.2-.4-.3c0-.3.6 0 .9-.2l.7-.5zm-75 .4a1.6 1.6 0 1 1 0 3.2 1.6 1.6 0 0 1 0-3.2m41.2 0a.7.7 0 1 0 0 1.4.7.7 0 0 0 0-1.3m-108.7.3v8.8l-.3.7-.6 1.1v1.2l.4-.8q.3-.4.6-.3t.3.6v.6s.7-.7.8-1v-1.6l-.4-.8-.2-.8.1-.7.6.2q.3 0 .4-.3 0-.5-.4-1c-.1-.3-.8-.4-.7-.7v-3.6h.9q.3 0 .5-.4-.1-.4-.6-.7l-.6-.4zm92.9 0-2.8.2v.3l.3 1.8 3-1.2-.4-.8zm-7 .2-1.4.1-1.6.1h-2.7q-.7.3-1.6.2v1.9l1-.1h2.1l2.5.1h2.1q.5-.3 1.1-.4h1.2l-.3-1.6h-.6l-1.7-.3m-18.4.3a.9.9 0 1 0 0 1.7.9.9 0 0 0 0-1.7m-12 .5-6.2.6a10 10 0 0 0 1.2 3.2l5-2.9zm90.2.4q.6 0 1 .3.1.6-.4 1.1-.5.3-1.2.3h-1.8c-.3 0-1 0-1-.5 0-.3.7-.3 1-.5l.8-.4zm-50.6.2-1 .2a17 17 0 0 0-3 2.2l.6 1.2.2.2 4.2-3.6zm-67.4.2h-2.5l.2.7-.2.4-.4.4.3.7v.9l-.2.7c0 .2-.5.5-.5.5v.7h1.6v-.5h.6v-.6l-.1-.7-.4-.6v-.3l1-.2v-.6l.4-.4q.2-.1.3-.4zm83.8.4-.7.9 5.4 4.3a10 10 0 0 0 1.5-2.6zm-137 0 1.2.2 1.1.6q.6.3 1.2.1c.3 0 .5-.6.8-.7h1c.4 0 1.1-.1 1.2.3s-.7.6-1 .9l-1.5.5q-1 .2-2 .1h-3.9c-.4-.1-1.2 0-1.2-.4s1-.3 1.4-.6q.5-.5 1.1-.8zm131.4.1-6 2.6q.6 1.4 1.5 2.6l5.2-4.4zm-156.6.3 1.3 3.6 3.8.1-3 2.4 1 3.7-3.1-2.2-3.2 2.2 1-3.7-3-2.4h3.9zm68 0h-.4l-.2.1-.5.5q-.2.1-.3.4v5.6q0 .4.3.6l3 .1q.4.1.7.6l.7.6.8.1h.7v-2.6q0-.2.3-.5l.5-.5.4-.5v-3.4l-.4-.2-.3-.5h-3zm53.1 0q-.2.6-.8 1.1l4.9 3.7a9 9 0 0 0 1.6-2.4zm95.1 0 1.3 3.6 3.9.2-3 2.3 1 3.7-3.2-2.1-3.2 2.1 1.1-3.7-3-2.3 3.8-.2zm-101 0-5.5 2.4q.6 1.4 1.6 2.4l4.7-3.7zm43 1-3.4 6.1q1.5 1 3.3 1.1l.7-7zm2.4 0-.6.2 1.5 6.9a10 10 0 0 0 2.7-1zm-43.7.7-3 5a9 9 0 0 0 3 1l.8-5.8zm2.5 0-.7.2 1.3 5.8a9 9 0 0 0 2.6-.9zm-77.8.5 2.9.1c.2 0-.3.6-.1.9h1.1q1-.2 1.8.1.2 0 .2.4c-.2.4-.9.2-1.3.3q-.8-.1-1.4.2l-.1.3-.8.5c0 .3.6.5.7.8l.1.3q.4.5 1 .8c.1.1.7.3.5.4-2.6.2-4 .1-5.3 0q-.2 0 0-.3 0-.5-.2-.8c-.4-.3-1.1.2-1.3-.2-.2-.2.2-.5.3-.7v-1c-.2-.3-1 .2-1.2-.2-.2-.2.3-.5.1-.8q-.4-.4-1.3-.4c-.5-.1-1 .2-1.7-.3-.2-.2.4-.3.6-.3h.6zm139.3 1.3 2.4.2q.4 0 .5.4-.2.3-.7.3h-4.6c-.2 0 .4.3.3.5-.2.4-1 .2-1.4.2a30 30 0 0 1-5.2-.2c-.4 0-1.4-.3-1-.5q.5-.2 1.2 0c1.8-.2 3 0 5-.2q-.2-.1-.2-.4c.3-.4 1-.1 1.4-.2zm-151.2 1 1 .5 1 .5c.7.2 1.6-.3 1.9.2l-.2.6-.3.6q-.7.3-1.6.1h-1c-.5.1-.7.7-1.2.8q-.7.2-1.5 0l-1.1-.6q-.6-.1-.8-.5l.3-.6.8-.2h1.3c.3 0 .6.5.9.4.4-.3-.3-1.2 0-1.6zm160.4.6q1.2 0 2 .5.3.3.3.5c-.4.7-1.6.3-2.4.4l-2.5.7q-.9.4-1.9.5l-1.6-.2h-5.3l-.3.5h-1.8q-.3-.3-.7-.4l-4.4-.2c-.5 0-1.3 0-1.3-.4 0-.9 1.6-.7 2.5-.7h4.6l1.6-.2 2.2.2 2.8-.2 2.6-.5zm-56.7.4h.7l3.7.2h2.1c.4 0 .9-.3 1.2 0l.2.7q.2.3.6.4h2l.8.8 1.2.3 1.3.2h1.3l1.3.4 1.1.7q.6.3 1.6.2l.9-.2q.3.3.2.7-.4.7-1.3.7c-.4 0-.7-.6-1.1-.8q-1-.4-2-.4h-1.6l-1 .2-1.2.7-1-.4h-6.1l-4 .3c-.5 0-1.4 0-1.5-.5q.1-.3.7-.3h3.6q.3-.1.2-.5l-.5-.7.2-.9q-.3-.4-.8-.7l-1.4-.2-.4.2v.4l.9.5q.4.1.4.4c0 .3-.6.3-.9.3l-1.8-.3-.9-.5c-.8-.3-1.8 0-2.6-.2l-.9-.3h-1.7c-.2 0-.7 0-.6-.3s.6-.2 1-.3q1.3-.2 2.8 0h1.5q.5.2 1 0 .3-.3.4-.7zm-50.3 1.8q.3 0 .5.2.2.5 0 1l.6 1q.5 0 .7.3 0 .3-.6.4-1.2.1-2.6-.1h-4.8c-.3 0 0-.6.1-.9q.5-.7 1.3-1.1.6-.4 1.3-.5.4-.3.8-.2c.3 0 .4.5.7.6q.6.2 1.1 0l.5-.6zm-12.1 4.4h79.9l.8.2q.8 0 1.5.4 1.1 1 1.3 2 .4 3 0 5.6l2.3 1.4c.1-.3.3-1 .5-1.2q.7-.9 1.5-1.4 1.6-.7 3.4-.6 2 .1 4 .8a31 31 0 0 1 5.1 2c1.4.7 3.9 2.3 3.9 2.3l2.2 1.5-2.7-.1h-.7l-1.2.1-2 1.2-1.2.8.2.8q.4.7.6 1.6v2.3l-.1 1.3-.2 1.9-1.2-1.5-.6-.8q-.5-.6-1.1-1-1.1-.9-2.4-1.2t-2.3-.3q-.2 1-.8 2-.4 1.4-1.3 2.1c-1 .6-2.4.3-3.5 0q-1.5-.6-2.9-1.5l-4-2.9a8 8 0 0 1-2-2.2c-.2-.4-.4-1.2 0-1.4l1-.5h-29.6l.3.6-.1.8.5.4.2.4q.4.3.7.2l.7-.1c.3-.3 0-1 .3-1.3q.4-.5 1-.5l.6.4v.3h.6v.4q0 .4-.4.8l-1 .8v.5q.6.4 1.6.2c.5 0 1.1-.5 1.5-.2q.2.3 0 .7-.2.8-.8 1.5t-1.5 1.4l-.2.8c-.2.6.4 1.4 0 2q-.4.5-1 .5-.9.3-1.7.3l-1.9.1-1 .4H380c-.5 0-.8-.6-1.3-.5-.3 0-.4.5-.7.6a2 2 0 0 1-1.3 0q-.8-.3-1.5-1l-1.7-.7-1.7-.4c-.6 0-1.8.5-2-.1 0-.3.6-.3.8-.5l.5-.8v-.6q-.1-.5-.6-1v-1l.4-.3c.2-.2.7.1.9-.1v-1c0-.3-.4-.6-.3-1q-.1-.6.4-1h1c.5 0 1.2.3 1.6-.1l-.1-.8.4-.8.6-.4H348l1 .5q.4.6 0 1.5-1 1.3-2 2.2l-4 2.8q-1.4 1-2.9 1.5c-1.1.3-2.5.6-3.5 0-.7-.3-1-1.3-1.3-2l-.8-2-2.3.2q-1.2.4-2.4 1.1-.6.5-1 1.2l-.7.7-1.1 1.5-.3-1.8v-1.4q-.2-1.1 0-2.2.1-.9.5-1.7l.2-.8-1.2-.8q-1-.7-2-1.1l-1.2-.2h-3.4l2.2-1.3 3.9-2.4a31 31 0 0 1 5-2 15 15 0 0 1 4-.7q1.8-.1 3.5.5.9.6 1.5 1.4l.5 1.2 2.3-1.3c-.2-1.8-.5-3.8 0-5.6a4 4 0 0 1 1.4-2q.7-.4 1.4-.5h.4zm-27.9 1.2 1.7.1 1.6.4 1 1 .4.3.7-.2q.4-.2.7-.6l.6-.6q.5-.2.8-.1c.4 0 .6.5 1 .6h1.3q.7.2 1.2.6.2.5 0 .8c-.5.5-1.3.1-2 .1l-2.2-.1-.8.1q-.4.4-.9.6a3 3 0 0 1-2 0l-.5-.6-.5-.1q-.4.1-.5.5v.9q-.6.2-1-.1-.6-.2-1-.6l-1.4-.4-1-.3-1.6.2-1.2.4c-.5 0-1.2.4-1.6 0v-.7q.4-.5.9-.6.6-.4 1.3-.5.3-.2.8-.2l.7.4.8-.2.9-.5.8-.5zm26.9.3h-.4l-.8.3-.7 1c-.3 1.8 0 3.6 0 5.3l.5 2.1q.2.7.6 1.2l.8.7H427s.6-.3.8-.6l.6-1.2.5-2.1q.3-2.6 0-5.3l-.7-1-.8-.3h-.7zm97.8.2c.4 0 1.7.8 2 .9 1.2.2 2.3-.3 3.4-.4h4.5c1.8 0 3.7-.6 5.5-.2.7.1 1.7.3 1.8 1 0 .4-.7.7-1.2 1-1.3.4-2.7 0-4.1 0l-5-.3c-1.1 0-2.2.5-3.3.5q-2.3.1-4.5-.1-.7 0-1.2-.2-.6-.5-.6-1.2c.2-.6 1-.5 1.6-.7zm-159.8.7 1.3 3.7h3.9l-3 2.4 1 3.7-3.2-2.1-3.2 2.1 1.1-3.7-3-2.3 3.8-.1zm200.2 0 1.3 3.7 3.8.1-3 2.4 1 3.7-3.1-2.2-3.2 2.2 1-3.7-3-2.4 3.9-.1zm-77 .8q1.4 0 2.3 1t.9 2.5-1 2.5-2.3 1-2.3-1q-1-.9-1-2.5 0-1 .4-1.7l.6-1 .9-.5q.6-.3 1.4-.3m-45.3 0h1.3v2.7h2.7v-2.6h1.3v6.7h-1.3v-3H363v3h-1.3zm8.4 0h5v1.2h-3.7v1.5h3.4v1.1h-3.4v1.8h3.8v1.2H370zm12.4 0h1.3v4.8q.1.4.5.7l.9.2q.5 0 .8-.2l.4-.6v-4.8h1.4v3.5l-.1 1.7a2 2 0 0 1-1.2 1.4l-1.3.2-1.5-.2-.7-.6-.4-.8-.1-1.7zm30.6 0h1.3l2.7 4.5v-4.4h1.3v6.7H417l-2.7-4.4v4.4h-1.2zm-22 .1h1.3l2.7 4.5v-4.5h1.3v6.7H395l-2.7-4.3v4.3h-1.2zm8.4.1h1.4v6.7h-1.4zm-46 0h5.4v1.2h-2v5.5h-1.3v-5.5h-2zm53.4 1q-.8 0-1.3.6t-.5 1.7.5 1.7 1.3.6 1.3-.6q.6-.6.6-1.7t-.5-1.8q-.6-.5-1.4-.5m-72.2 3.5q-1.8 0-3.6.6-2.5.8-4.8 2l-1.8 1q1.4.6 2.4 1.3l1.8 1.2.4.3-.2.6-.4 1.3-.5 1.4v1.4l.9-.8q1.3-.9 2.8-1.3l1.7-.5h.7l1.9-.4h2.5v-6.6l-.1-.2-1-1a6 6 0 0 0-2.7-.3m102.6 0q-1 0-2 .4-.6.3-1 1v6.8h2.5l1.8.3h.7l1.8.6q1.5.4 2.8 1.3l.8.8v-1.5l-.5-1.4-.4-1.3-.2-.5.4-.3 1.8-1.2q1-.8 2.4-1.3l-1.7-1q-2.4-1.2-4.9-2a14 14 0 0 0-4.3-.7m-94.6 1.8-2.7 1.6v4c0 .4 0 2-.6 2.6-.8.6-2.5-.5-3.1.4-.4.4.1 1.2.4 1.7s.8 1 1.3 1q1 0 2-.6 1.1-.4 2.1-1 2-1 3.6-2.5c.5-.4 1.3-.9 1.3-1.5s-1-1-1.5-1.4q-.9-.8-1.6-1.7l-.9-1.8q-.1-.6-.3-.8m87.3 0-.3.9c-.2.3-.5 1.2-1 1.8q-.6.9-1.5 1.6c-.4.5-1.4.8-1.5 1.5 0 .6.8 1 1.3 1.5a20 20 0 0 0 5.7 3.5c.6.2 1.3.7 2 .6q.8-.3 1.3-1c.3-.6.8-1.3.4-1.8-.5-.8-2.3.3-3-.4s-.7-2.2-.7-2.6v-4zm-52 4v.4l.1.4c.3.2.9-.2 1 .1.2.1-.1.3 0 .4l.5-.2q1-.2 1.8.2l.1.6c.3 0 .2-.6.4-.9l.5-1zm5.6 0q0 .5.3 1l1.2.3 1.4-.2q.7 0 1.2-.2c.3-.2.2-1 .5-1 .5.1.2 1 .3 1.5s-.4 1.5.2 1.7q.3-.2.5-.7l.5-1.5v-1zm7.8 0v.6q.5.4 1.2.5.4.3.8.1c.4-.2.1-.8.2-1.3zm-97.8.3 1.3 3.6 3.9.2-3 2.3 1 3.7-3.2-2.1-3.2 2.1 1-3.7-3-2.3 3.9-.2zm180.6 0 1.3 3.7h3.8l-3 2.4 1 3.7-3.1-2.1-3.2 2.1 1-3.7-3-2.3 3.9-.1zm-91.4.7.4 3 .6 3.7.6 2.4v-2.4l-.7-3.8c-.3-1.5-.9-2.9-.9-2.9m-6 .2v.1l.2.3.8.8 2 2.4 1 1.4.9 2.5.6 1.5v.1-.5l-.1-1.2q-.4-1.6-1-2.7l-1-1.4q-1.2-1.4-2.3-2.2l-1-1zm14.2.3s-1 1-1.7 2.3l-.6 1.3q-.5 1.1-.6 2.5v2.6s.4-1.3.5-2.5l.5-2.4.6-1.3c.8-1.2 1.3-2.5 1.3-2.5m-10.4.4.1.3.9 2.1a11 11 0 0 1 1 3c.2 1.5.7 3 .7 3s0-1.5-.3-3l-1-3.2-.8-1.5-.4-.5zm13.6 0-2.6 2q-1 1-1.5 2a7 7 0 0 0-.5 2.6l.1 1.5.4-1.4q0-1.5.5-2.5t1.4-1.8c1.2-1.1 2.2-2.3 2.2-2.3m-8.7.2s-.5 1.6-.5 3.3v.7c0 2 .4 4 .4 4zm1.7 0s-.5 2.1-.5 4.3l.3 3.9.2-2zm10 1s-1.5.7-3 1.7l-1.7 1.7q-.7 1.1-1.1 2.5l-.1.8v.3l.2-.2.3-.7q.5-1.4 1.1-2.4l1.7-1.6zm-24 .1v.1l.3.2 3 2q1 .5 1.7 1.2l.7.7 1.5 2 .6.7.1.2.1.1v-.1l-.2-.2-.4-.9q-.4-1-1.3-2l-.8-.9-1.8-1.3-2.3-1.3zm39.9 1.2h9l.2 1.5h-8.7l-2.1 2.2 1.3 1 2.1-2.1h9v1.7l-8.6-.1-12.3 12.7h-2.4l5.8-5.8-1-1-3.4 3.7h-2.4zm-14.5.9s-1.3.4-2.5 1.1q-1.4 1-2.3 2-.5.4-.6 1l-.1.7v.3l.2-.2.3-.5.5-1q.8-1 2.3-1.9zm-26.8 1 3.6 1.3.6.3q1.1.7 2.3 1.9l1.3.8v.1-.1l-.2-.3-.7-1-2.5-1.8-.6-.3zm38.5 3-3.6 3.9 1 1 3.8-3.8zm-45.8.3 3.3 9.3h33.8l-1.5 2h-31.6l2.7 7.5 2.4 1.6 1.6 1v.2q-.4.2-.8 0-1.8 0-3.4-.5-3.2-1.2-6-3.1l-4.8-3.5v-.4l.4-.1q.3 0 .5.2l8 4-2.4-6.8h-9.4v-.7h-3.6v.7H352v-2.1h14l-3.2-9.1zm-59.2 1.9 1.3 3.6 3.9.1-3 2.4 1 3.7-3.2-2.2-3.2 2.2 1.1-3.7-3-2.4 3.8-.1zm157.2 0 1.3 3.6 3.8.1-3 2.4 1 3.7-3.1-2.2-3.2 2.2 1-3.7-3-2.4 3.9-.1zm-82.6.3h13.5v1H380zm6.3 1.4h1.4l6 .1s0 2 .3 3c.2.6.9 1.7.9 1.7h-.8q-3.2 0-6.5.3l-6.9-.1c-.9 0-2.6-.3-2.6-.3l1.8-4.5 2.1-.1zm5.7.4v1.7l.2.8q.3 1.5.5 1.7V467l-.1-.7q-.4-1.5-.6-1.7m-1.6 0-.2 1.8v.7l.4 1.8.2-1.8v-.7q-.2-1.5-.4-1.7m-2 .2-.1 1.7v.7c0 .9.4 1.8.4 1.8s.2-1 .1-1.8v-.8c0-.8-.4-1.6-.4-1.6m-2 0-.2 1.6v.7l.2 1.7s.3-.9.3-1.7v-.7c0-.8-.3-1.6-.3-1.6m-1.6 0s-.4.9-.5 1.7l-.1.7c-.2.8 0 1.7 0 1.7l.5-1.6v-.8c.2-.8.1-1.6.1-1.6m-3.5.1-.8 1.4-.2.7c-.2.7-.2 1.6-.2 1.6l.7-1.5.2-.6q.4-1.4.3-1.6m1.6.3-.6 1.2-.2.6-.2 1.5q.2-.1.7-1.3l.2-.6q.2-1.2.1-1.4m23.5 4.7h5.7v2h-7.3zm-88.8 2 1.3 3.5 3.9.1-3 2.4 1 3.7-3.2-2.2-3.1 2.2 1-3.7-3-2.4h3.8zm132.8 0 1.3 3.5 3.8.2-3 2.3 1 3.7-3.1-2.1-3.2 2.1 1-3.7-3-2.3 3.9-.2zm-93.7 0v5.3l-.4.8q-.4.3-1 .2t-1-.4l-.1-.7v-5.1zm20.5.4 16.4.2c.3 0 0 .4 0 .6q-.5 1.1-1.3 2.1-1.1 1.5-2.4 2.8-.9 1.3-2 2.4c-.7.5-1.8.5-2.3 1.2-.2.2-.2.8-.2.8l15 .3s-1 1.4-1.7 2q-.9.9-2 1.4l-3 .8q-1.4 0-2.4.2t-2 .4h-1.6q-1-.3-1.7-.3l-1.3.3q-1.4 0-2.6-.5l-1.8-.8-1.8-.2-1.8-.3-1.1-.3-2.3-.4c-.8-.1-2.5-.7-2.5-.7l1.2-1.3h2.9q.5 0 .9-.4.3-.5.3-1v-.6l-.8-.3-1-.4c-.3-.1-.7-.6-.7-.6l3.3-6.9zm30.8.4-1.5 1.9-4.6 4.5q-.6.5-1 1.1-.4.4-.3 1c0 .4.6 1 .6 1l-15-.2 1.3-.8q1.6-1 3-2.3t2-2.7c.8-1 1.8-3.3 1.8-3.3zm-29.4 0-1 1.3-1.9 4.3-.4 1.5s.6-.6.9-1.3l2-4.3c.3-.7.4-1.5.4-1.5m3.5.3s-.8 1-1.2 2.2L378 482l-.7 2.4s.7-1 1.2-2.3l2.8-7zm-2 0s-.7.8-1 1.7l-2.2 5.2-.5 1.8s.6-.8 1-1.7l2.1-5.2c.4-.8.5-1.8.5-1.8m9.7.4v2.2l.5 1.2v-2.1zm-6.9.2-.8 2-1.8 6.7c-.3 1-.3 2.2-.3 2.2s.5-1 .8-2.1l1.8-6.6c.3-1 .3-2.2.3-2.2m5.2 0s-.2 1.1-.1 2.2v2l.4 1.4.2-1.5-.1-2c0-1-.4-2-.4-2m-2 .2s-.3 1-.3 2v2.1c0 1.2.3 2.4.3 2.4s.3-1.2.3-2.4v-2zm-1.8 0s-.3 1-.4 2.2l-.4 6.7.1 2.3s.4-1.1.4-2.3l.4-6.7zm-53.2 7.5 1.3 3.6 3.8.2-3 2.3 1 3.7-3.1-2.1-3.2 2.1 1-3.7-3-2.3 3.9-.2zm105.8 0 1.3 3.7h3.9l-3 2.4 1 3.7-3.2-2.1-3.1 2.1 1-3.7-3-2.3 3.8-.1zm-41.7 1.6.1 1 .2.5c.1.6.6 1.2.6 1.2s0-.7-.2-1.3l-.1-.5q-.4-.8-.6-.9m-6.1.1q-.1.2 0 1.6v.3c.1.8.5 1.7.5 1.7V484zm3 0v1.7q.3 1 .5 1.2v-1.8zm-6.2 0s-.2.8-.1 1.5v.7l.4 1.4.1-1.5v-.7q-.2-1.2-.4-1.3m-11.2.5q-.2 0-.3.4v.9l.4-.5zm-30.3 5.1 1.3 3.7h3.9l-3 2.4 1 3.7-3.2-2.1-3.1 2.1 1-3.7-3-2.3 3.8-.1zm79.2 0 1.3 3.7 3.8.1-3 2.4 1 3.6-3.1-2.1-3.2 2.1 1-3.6-3-2.4 3.9-.1zm-65.4 7 1.3 3.6 3.9.1-3 2.4 1 3.6-3.2-2.1-3.2 2.1 1.1-3.6-3-2.4 3.8-.1zm51.6 0 1.3 3.6 3.8.1-3 2.4 1 3.7-3.1-2.2-3.2 2.2 1-3.7-3-2.4 3.9-.1zm-39 5.7 1.3 3.6 3.9.1-3 2.4 1 3.7-3.2-2.2-3.1 2.2 1-3.7-3-2.4h3.8zm26.4 0 1.3 3.6 3.8.2-3 2.3 1 3.7-3.1-2.2-3.2 2.2 1-3.7-3-2.3 3.9-.2zm-13.2 3.5 1.3 3.6 3.8.1-3 2.4 1 3.7-3.1-2.2-3.2 2.2 1-3.7-3-2.4 3.9-.1zm64 31.6q4.1 0 7.8 1.5 3.2 1.5 5.3 4.1 2.7 3.2 3.7 7.2c1.2 4 1.4 6 1.4 12.5 0 6 0 7.6-1 11.2a16 16 0 0 1-3 5.5 16 16 0 0 1-5.2 4 27 27 0 0 1-8.6 2.1c-2.8-.2-5.8-.1-8.5-1-2.1-.5-4-1.8-6-2.8l-2.6-1.8 4.3-6.3c.1-.1 2.7 1 4.1 1.5 2.4.8 4.7 2 7.2 2.1q3.1.3 6-1a9 9 0 0 0 3.7-3.6c1-1.6 1.2-3.7 1.4-5.4s.3-3.2 0-3.2l-4 1.7c-2.5.8-4.7 1.7-7.9 1.7a19 19 0 0 1-12-4.3q-1.8-1.6-2.8-3.8-1.3-2.4-1.6-5.1-.3-3 1-6 1.3-3.1 3.7-5.6t5.6-3.7q3.9-1.5 8-1.5m-133.1.3h10.9V583h-11zm75.6 0h23v8.3h-16l-.9 5.8h3q3.2.1 6.3 1.3a20 20 0 0 1 6 4 19 19 0 0 1 4 5.3 17 17 0 0 1 1.1 12.6 16 16 0 0 1-3.2 5.7 12 12 0 0 1-4.3 3.2q-3.9 1.6-8.2 1.4-2.7-.1-5.3-1.3a33 33 0 0 1-9.5-6l4.3-5.7c.2 0 2.4 1.5 3.6 2.2 1.7 1 3.4 2.3 5.4 2.6a8 8 0 0 0 4.4-.7 8 8 0 0 0 3.6-3.1 9 9 0 0 0-1.1-10 8 8 0 0 0-4.2-2.6 11 11 0 0 0-5 .4c-.8.2-2.5 1-2.5 1s-9-6.1-9-6.3zm-32.7 0a17 17 0 0 1 10.7 4q1.7 1.6 2.7 3.9.7 2.3.6 4.8-.1 2.9-1.3 5.6c-.3 1-1.3 2.7-1.3 2.7l2 2.1q2 2.5 3 5.3 1 3.5.6 7-.3 3.8-2.2 6.9-2 2.8-5.3 4.6a20 20 0 0 1-7 2 21 21 0 0 1-12.7-2.6 14 14 0 0 1-4.5-4.6q-1.5-3-1.8-6.3t.4-6.3q1-3 3-5.6c.6-1 2.2-3 2.2-3s-1-1.4-1.4-2.3q-1.1-2.7-1.4-5.6 0-2.8 1-5.3 1.3-2.3 3.3-4a15 15 0 0 1 4.7-2.6 14 14 0 0 1 4.7-.7m.4 7.3-2 .1q-2.2.5-3.6 2.1-1.1 1.5-1 3.3.6 1.9 2 3 1.6 1.4 3.5 1.5a6 6 0 0 0 3.5-.7q1.6-1 2.4-2.7a5 5 0 0 0-.2-3.6q-.8-1.6-2.7-2.5zm91.3 1.2h-3c-2 .2-4.2.9-5.6 2.3a7 7 0 0 0-1.9 4.2q.1 2.1 1.4 3.9 1 1.5 2.7 2.3 2 .7 4.1.5 2.6.1 5-.8a7 7 0 0 0 2.9-2.3q.8-1.6.7-3.5.1-1.9-.7-3.5-1-1.6-2.7-2.4a10 10 0 0 0-2.9-.7m-91.1 17.8q-2.6-.1-4.8 1a7 7 0 0 0-3 2.5 7 7 0 0 0-.7 3.9q0 1.8 1 3.2t2.7 2.3a12 12 0 0 0 10 .2 7 7 0 0 0 2.8-2.4 7 7 0 0 0 1-3.7q0-2-1-3.8-1.3-1.5-3.3-2.3-2.2-1-4.7-1" transform="translate(0 -128)" id="path2"/></g></svg>