<svg id="Layer_4" data-name="Layer 4" viewBox="0 0 360 216" width="360" height="216" xmlns="http://www.w3.org/2000/svg"><g id="g11"><path id="polygon1" style="fill:#fff;display:inline" d="m0 87.2 36-20.8 18 10.4 54-31.1L126 56l54-31.1L234 56l18-10.3 54 31.1 18-10.4 36 20.8v62.4H252l-72 41.5-72-41.5H0z"/><path id="polygon2" style="fill:#071d49;display:inline" d="M252 45.7 234 56l-54-31.1L126 56l-18-10.3-54 31.1-18-10.4L0 87.2V0h360v87.2l-36-20.8-18 10.4z"/><path id="polygon8" style="fill:#aa0200;display:inline" d="m108 149.6 72 41.5 72-41.5h108V216H0v-66.4z"/></g><g id="g10" style="display:inline"><g id="g9" style="display:inline"><path id="polygon3" style="fill:#071d49;display:inline" d="m117.6 144 62.4 36 62.4-36V72L180 36l-62.4 36z"/><path d="m180 42.5-56.7 32.8v65.4l56.7 32.8 56.7-32.8V75.3Zm54 96.7-54 31.2-54-31.2V76.8l54-31.1 54 31.1z" id="path3" style="fill:#ffb81d;display:inline"/><g id="g8" style="display:inline"><path d="M199.5 75.6h-39c-.7 0-1.1-1-.6-1.5 5.7-5.4 12.6-9 20-9 7.6 0 14.6 3.6 20.2 9 .6.5.2 1.5-.6 1.5" id="path4" style="fill:#ffb81d"/><path d="M208.5 89.5h-57a1.5 1.5 0 0 1-1.3-2.2q1.7-3.2 3.7-6.1 1.6-2 4-2.1h44.2q2.4.1 4 2 2 3 3.7 6.2c.5 1-.2 2.2-1.3 2.2" id="path5" style="fill:#ffb81d"/><path d="M213.6 103.5h-67.2c-1 0-1.7-1-1.5-1.9l1.8-6.1a4 4 0 0 1 3.4-2.4h59.8q2.6.1 3.4 2.4l1.8 6.1c.2 1-.5 1.9-1.5 1.9" id="path6" style="fill:#ffb81d"/><path d="M216.6 117.4h-73.2q-1.6-.2-1.5-1.7.5-3 1.2-5.8a4 4 0 0 1 3.5-2.9h66.9q2.7.2 3.5 2.9l1.1 5.8q.2 1.5-1.5 1.7" id="path7" style="fill:#ffb81d"/><path d="M187 131.4q-1.4-.1-1.5-1.5a5.4 5.4 0 0 0-5.5-5.5c-3 0-5.5 2.5-5.5 5.5q0 1.4-1.5 1.5h-32q-1.6-.2-1.5-1.7l1-5.8c.2-1.7 1.7-3 3.5-3h72c1.8 0 3.3 1.3 3.6 3l.9 5.8q0 1.5-1.5 1.7z" id="path8" style="fill:#ffb81d"/></g></g><path id="polygon9" style="fill:#fff;display:inline" d="M170.5 147.5h7.3l2.2-6.9 2.2 6.9h7.3l-5.9 4.2 2.3 6.9-5.9-4.3-5.8 4.3 2.2-6.9z"/></g><!-- app4joy -->
</svg>