<svg id="svg2" height="1050" width="1500" y="0.00000000" x="0.00000000" viewBox="0 0 1500 1050" xmlns="http://www.w3.org/2000/svg"><g transform="scale(1 1.05)" id="layer1" fill="#ff9955" stroke="none"><path id="rect3635" d="M0 0h1500v1000H0z" fill="#ff9955" fill-opacity="1" stroke="none"/></g><g id="g3542" transform="translate(496.4 232)"><g id="Layer_1"><path id="polygon3545" d="M1.8 184.5 253.2 1.9l251.4 182.6-96.1 295.6H97.8z" fill="#5087c6"/><g id="g3547"><path d="M407 370.1v-13.7h-7v-4h6v-5.7h4.2v-6.1H406v-6.3h-34.7v17.4h4.8v6.9h8.3v9.1h-3.7v-7h-7.3v-6.1H369v-4.2h-5.6v-21.8h7.7v-4.3h6.9v-5.9s5.7-.6 6.7-3.4c1-2.9-2.3-4.3-2.3-4.3s1-.7 3.6-3.9c2.6-3 4.1-7.2 2.6-14.5-1.6-7.3-8.9-13.5-12.5-12.6s-3.5 5.6-.5 6.2c3 .5 2.7-1 2.7-1s2 1 2.1 5.7c.2 4.5-7.6 8.5-10.8 10-3.3 1.4-3 6.8-3 6.8h-3.3v-5.7H354v-5.9h5.7c2.8 0 4.6-1.7 4.8-3 .1-1.5-1.9-2.8-1.9-2.8s7.4-10 7.4-19.7-3.5-13.2-7.7-13.3c-4.1-.1-3.1 5.3-1.6 5.3 1.6 0 2.3-1.6 2.3-1.6s1.2 1.2 1.3 3.3-2.6 4.7-6.4 8.3-4 10.4-4 10.4h-4.6V278h-5.1v-7h4s4.7-2 4.7-3.7-1.2-3.7-1.2-3.7c.6-4 3-3.6 5.9-11s-2.4-17-6.3-18.1c-3.8-1.2-6.1 5.7-3.7 6.3s3.1-1.5 3.1-1.5 1.6.7 1.8 4-2.9 4.3-6.2 6.7-2.8 6.5-2.8 6.5H338v-6.9h-4.7V244h5.1v-5s3.7-2 6.4-6.1c4.4-6.7 0-16.5-3.1-17.9s-4.7 2.3-3.6 4 2.5 0 2.5 0 .7 1.3.4 4.3-4.6 4.7-6.7 5.4-1.3 6.4-1.3 6.4h-5.2V230h-8v-4.3h3.9v-2.6h4.9v-4s-.8-.1 2.8-2 3.4-6 3.4-9.8-4-8.7-4.8-7.7c-.9 1 .7 2.3.6 5.5-.2 3.3-2.3 4.3-3.8 4.3-1.4 0-1.7 3.9-1.7 3.9h-5.7v-2.9h3.6V207s4.1-3.8 4.1-7.3c0-3.6-.4-8.7-2-8.7-1.5 0-1.8.8-1.5 4.2.2 3.5-3.6 5.8-5.5 5.5s-5.1.3-5.1.3.3-1.5 1.7-1.8c1.4-.2 3.6-3.5 3.3-5.4-.3-1.8-4.4-1.7-4.4-1.7l.1-4.9c.1-2.1-5.1-4.8-5.1-4.8v190H197.7v-190s-5.2 2.7-5 4.8v4.9s-4-.2-4.4 1.7c-.3 1.8 1.9 5.1 3.3 5.4s1.7 1.7 1.7 1.7-3.3-.5-5.1-.3c-1.9.3-5.7-2-5.4-5.4s0-4.3-1.6-4.3-2 5.2-2 8.7c0 3.6 4.1 7.3 4.1 7.3v3.6h3.6v2.9h-5.7s-.3-3.9-1.7-3.9c-1.5 0-3.6-1-3.7-4.3s1.4-4.6.5-5.6-4.8 3.9-4.8 7.8c0 3.8-.2 8 3.4 9.8s2.9 2 2.9 2v4h4.8v2.6h3.9v4.3h-8v5.1h-5.2s.9-5.7-1.3-6.4c-2.1-.7-6.4-2.4-6.7-5.4s.4-4.3.4-4.3 1.3 1.7 2.5 0-.5-5.5-3.6-4c-3.1 1.4-7.5 11.1-3.1 17.8 2.7 4.2 6.4 6.2 6.4 6.2v4.8h5.1v5.9h-4.7v6.8h-5.5s.4-4-3-6.4c-3.2-2.4-6.2-3.4-6-6.7 0-3.3 1.7-4 1.7-4s.7 2 3.1 1.4c2.4-.5.1-7.4-3.7-6.3s-9.1 10.8-6.3 18.2c2.9 7.4 5.3 7 5.9 11 0 0-1.2 2-1.2 3.7s2.7 3.7 4.7 3.7h4v6.9h-5v4.7h-4.6s-.1-6.9-4-10.4c-3.8-3.6-6.6-6.2-6.4-8.3s1.3-3.3 1.3-3.3.7 1.6 2.3 1.6 2.5-5.5-1.6-5.3c-4.1.1-7.7 3.5-7.7 13.3 0 9.7 7.4 19.7 7.4 19.7s-2 1.3-1.8 2.7c0 1.4 2 3.1 4.7 3.1h5.7v5.9H143v5.7h-3.2s.2-5.4-3-6.9c-3.3-1.4-11-5.4-10.9-10s2.1-5.7 2.1-5.7-.2 1.6 2.8 1c3-.5 3-5.3-.6-6.1-3.6-.9-10.9 5.3-12.4 12.6-1.6 7.2 0 11.4 2.5 14.5 2.6 3.2 3.6 3.9 3.6 3.9s-3.3 1.4-2.3 4.3c1 2.8 6.7 3.4 6.7 3.4v5.9h6.9v4.2h7.7v21.9h-5.6v4.1H133v6.2h-7.3v7H122v-9.2h8.3v-6.8h4.8v-17.4h-34.7v6.2H96v6.2h4.2v5.7h6v4h-6.9v13.7H62.8s2.1 7.6 5.8 18.4H72v6.8h6.6s.5 16.3 4.7 31.2c4.5 9.6 9.4 18.4 14.4 24.5a76 76 0 0 0 55.1 27.5c11.6 0 20.6-4.3 20.6-4.3s15 .9 26.1-3.9c3.4-3 8-7.3 8.6-9.9 1-4 .5-7 .5-7l5.4-.7q-1.2-2-3-4.4l-4.3 1s-1-2-4.6-4.7a24 24 0 0 0-11.6-3.6s-1.2-3.6.3-3.6h1.6c5.1-3.3 23-13.1 53.5-13.1h14.3c30.6 0 48.5 9.8 53.6 13l1 .1c1.5 0 .3 3.6.3 3.6s-7.1.2-11.6 3.6a14 14 0 0 0-4.5 4.7l-3.7-.9q-2 2.4-3 4.4l4.8.5s-.5 3.1.5 7.1c.5 2.5 4.7 6.6 8 9.5 11.2 5.2 27 4.3 27 4.3s9 4.3 20.7 4.3 37-5.5 55.1-27.5c5-6.1 10-15 14.4-24.6 4.2-14.8 4.7-31 4.7-31h6.6v-6.9h3.5c3.6-10.8 5.8-18.4 5.8-18.4z" id="path3549" fill="#f2c008"/></g><g id="g3551"><path d="M287 457.1q2-1 3.4-2.6l2.5-3.9c1-1.5 2.6-4 3.2-4.6l4.9-3.5a2.5 2.5 0 0 0 .2-4 2.5 2.5 0 0 0-1.5-4c-.2 0-6-1.1-13.4.5l-.3-.6c-.5-.8-1.2-2.4-.9-3.2a2.5 2.5 0 0 0-4.3-2.5l-5 5.6-.3.2c-.3-.9.6-3.5 1.7-5.2a2.5 2.5 0 0 0-3.2-3.6c-.2 0-4 1.9-6.7 4.3l-2 2.8-.3-1.1c0-.8.3-1.8.4-2.1a2.5 2.5 0 0 0-4-2.6 26 26 0 0 0-4.3 4.8l-1.6-2.6a3 3 0 0 0-2-1.2h-.6q-1.4 0-2.1 1.2l-1.5 2.6c-1-1.7-2.8-3.5-4.3-4.8a2.5 2.5 0 0 0-4 2.6c0 .3.3 1.3.3 2.1l-.3 1.1q-1-1.7-2-2.8a30 30 0 0 0-6.6-4.3 2.5 2.5 0 0 0-3.2 3.6c1 1.7 2 4.3 1.6 5.2l-.3-.2-5-5.6a2.5 2.5 0 0 0-4.3 2.5c.3.8-.3 2.4-1 3.2v.3l-.2.3a33 33 0 0 0-13.8-.3 2.5 2.5 0 0 0-1 3.9q-.5.3-.7.9c-.5 1-.1 2.3.8 3l5 3.5c.5.5 2.1 3.1 3.1 4.6l2.5 3.9q1.4 1.6 3.5 2.6a90 90 0 0 0-13.9 13.8 2.5 2.5 0 0 0 2.3 4c.1 0 2.7-.3 7.5-1.9 2-.7 3.9-.6 6-.6q2.8.3 6.1-.4 2.7-.7 6.3-2.8l.3.3 1.4 1.3c.2.3.5 1.5.6 2.5a2.5 2.5 0 0 0 4.5 1.2c.6-.7 1.5-1.7 2-2l4.6-1.3q1.8 3.2 3.7 6.1.8 1 2.1 1.1h.5q1.4 0 2.1-1l3.7-6.2c1.7.4 4 1 4.6 1.3s1.5 1.4 2 2a2.5 2.5 0 0 0 4.5-1.2c.1-1 .4-2.2.6-2.5l1.4-1.3.3-.3q3.6 2 6.3 2.8 3.4.7 6.2.4c2 0 3.8-.1 6 .6q7.1 2.2 7.4 2a2.5 2.5 0 0 0 2.3-4c-1-1.2-8.9-10.6-13.9-13.9z" id="path3553" fill="#f2c008"/></g><g id="g3555"><path id="polygon3557" d="m260.4 36.7 21-.1-17.2 12.3 6.4 20.1-17.4-11.7-17.5 12.5 6.2-20.7-17-12.5 21.1.1 7.2-20.6z" fill="#f2c008"/><path d="m252.2 16.5 7.2 20.5q.3.6 1 .7h21a1 1 0 0 1-.6-1.9l-17.2 12.3a1 1 0 0 0-.4 1.1l6.5 20.1a1 1 0 0 1 1.5-1l-17.5-11.9a1 1 0 0 0-1.1 0L235 69a1 1 0 0 1 1.6 1l6.1-20.6a1 1 0 0 0-.3-1l-17-12.6a1 1 0 0 1-.6 1.8h21a1 1 0 0 0 1-.6l7.2-20.5a1 1 0 0 1-1 .6 1 1 0 0 1-.9-.6zM246 35.7h-21a1 1 0 0 0-.7 1.7l17 12.5a1 1 0 0 1-.4-1l-6.1 20.6a1 1 0 0 0 1.5 1.1l17.4-12.5a1 1 0 0 1-1.1 0l17.5 11.8a1 1 0 0 0 1.5-1.2l-6.5-20q.2.6-.3 1L282 37.5a1 1 0 0 0-.6-1.9h-21q.7.1.9.8l-7.2-20.6a1 1 0 0 0-1.9 0L245 36.4a1 1 0 0 1 1-.7" id="path3559" fill="#5087c6"/></g><g id="g3561"><path id="polygon3563" d="M212.5 259.6h6.8v67.6h-9.8v9.5h6.3v8.5h74.8v-8.5h6.2v-9.5H287v-67.6h6.8v-20.1h-2.7v-3h-7.3v-6.7h-61.2v6.7h-7.4v3h-2.7z" fill="#f2c008"/><path d="M291.6 345.2v-8.5q-.1 1-1 1h6.2q1 0 1-1v-9.5q0-1-1-1H287q1 0 1 1v-67.6q0 1-1 1h6.8q1 0 1-1v-20.1q0-1-1-1h-2.7q1 0 1 1v-3q0-1-1-1h-7.4q1 0 1 1v-6.7q0-.9-1-1h-61.1a1 1 0 0 0-1 1v6.7q0-1 1-1h-7.4a1 1 0 0 0-1 1v3q.1-1 1-1h-2.7a1 1 0 0 0-1 1v20.1q0 1 1 1h6.8a1 1 0 0 1-1-1v67.6q.1-1 1-1h-9.8a1 1 0 0 0-1 1v9.5q0 1 1 1h6.3a1 1 0 0 1-1-1v8.5q0 .9 1 1h74.8q.9-.1 1-1m-74.8 0v-8.5q-.1-.9-1-1h-6.3q1 .1 1 1v-9.5q0 1-1 1h9.8q1 0 1-1v-67.6q0-.9-1-1h-6.8q.9.1 1 1v-20.1q-.1.9-1 1h2.7q1-.1 1-1v-3q0 .9-1 1h7.4q.9-.1 1-1v-6.7q-.1 1-1 1h61.2a1 1 0 0 1-1-1v6.7q0 .9 1 1h7.3a1 1 0 0 1-1-1v3q.1.9 1 1h2.7a1 1 0 0 1-1-1v20.1q.1-.9 1-1H287a1 1 0 0 0-1 1v67.6q.1.9 1 1h9.8a1 1 0 0 1-1-1v9.5q.1-.9 1-1h-6.2a1 1 0 0 0-1 1v8.5q0-1 1-1h-74.8q.9 0 1 1" id="path3565" fill="#5087c6"/></g><g id="g3567"><path id="polygon3569" d="M259.8 273.6h-13.3v3.8h-4.7v3.7h-5v64.1h32.7v-64.1h-5v-3.7h-4.7z" fill="#f2c008"/><path d="M270.5 345.2v-64q0-1-1-1h-5q1 0 1 1v-3.8q0-1-1-1h-4.7q.9 0 1 1v-3.8q-.1-.9-1-1h-13.3a1 1 0 0 0-1 1v3.8q.1-1 1-1h-4.7a1 1 0 0 0-1 1v3.7q0-.9 1-1h-5a1 1 0 0 0-1 1v64q0 1 1 1h32.7q1 0 1-1m-32.7 0v-64q-.1.9-1 1h5q.9-.1 1-1v-3.8q-.1.9-1 1h4.7q1-.1 1-1v-3.8q0 1-1 1h13.3a1 1 0 0 1-1-1v3.8q0 .9 1 1h4.7a1 1 0 0 1-1-1v3.7q.1 1 1 1h5a1 1 0 0 1-1-1v64q.1-.9 1-1h-32.7q.9.1 1 1" id="path3571" fill="#5087c6"/></g><g id="g3573"><path id="rect3575" d="M220.9 345h64.6v9h-64.6z" fill="#f2c008"/><path d="M285.5 353h-64.7q1 0 1 1v-9q0 1-1 1h64.7a1 1 0 0 1-1-1v9q0-1 1-1m0-9h-64.7a1 1 0 0 0-1 1v9q.1.9 1 1h64.7q.9-.1 1-1v-9q-.1-.9-1-1" id="path3577" fill="#5087c6"/></g><g id="g3579"><path id="rect3581" d="M213.6 353.7h79.1v9h-79.1z" fill="#f2c008"/><path d="M292.7 361.7h-79q.9 0 1 1v-9q-.1 1-1 1h79a1 1 0 0 1-1-1v9q0-1 1-1m0-9h-79a1 1 0 0 0-1 1v9q0 .9 1 1h79q1-.1 1-1v-9q0-.9-1-1" id="path3583" fill="#5087c6"/></g><g id="g3585"><path id="rect3587" d="M206.7 362.4h92.9v9h-92.9z" fill="#f2c008"/><path d="M299.6 370.4h-93q1 0 1 1v-9q0 1-1 1h93a1 1 0 0 1-1-1v9q.1-1 1-1m0-9h-93a1 1 0 0 0-1 1v9q.1.9 1 1h93q1-.1 1-1v-9q0-.9-1-1" id="path3589" fill="#5087c6"/></g><g id="g3591"><g id="g3593"><path d="M276.9 206.1v-5.6c9.7 0 14.8-6 16.6-11.8 2-5.9-1.1-12-3.7-11.2s-.4 4-.4 4c.6 4-2.7 5.5-5.4 5.3-3.4-.1-7.1 3.7-7.1 3.7v-6.6h-47.5v6.6s-3.6-3.8-7-3.7c-2.8.2-6-1.3-5.5-5.3 0 0 2.2-3.2-.4-4-2.5-.9-5.6 5.3-3.7 11.2s6.9 11.8 16.6 11.8v5.6z" id="path3595" fill="#f2c008"/><path d="M277.9 206.1v-5.6q0 1-1 1c8.5 0 15-4.7 17.6-12.5 1.5-4.6.2-9.4-2-11.5q-1.4-1.5-3-1a3 3 0 0 0-1.8 1.7c-.6 1.6.8 3.6 1 3.8l-.2-.4q.2 2-.8 3-1.3 1.3-3.7 1.2c-3.8-.2-7.7 3.8-7.8 4a1 1 0 0 1 1.7.7v-6.6q0-1-1-1h-47.5a1 1 0 0 0-1 1v6.6a1 1 0 0 1 1.8-.7c-.2-.2-4-4.2-7.9-4q-2.4 0-3.7-1.2-1-1-.7-3l-.2.4c.2-.2 1.5-2.2 1-3.8q-.2-1-1.8-1.7-1.6-.5-3.1 1c-2.1 2-3.4 7-2 11.5a17.6 17.6 0 0 0 17.6 12.5 1 1 0 0 1-1-1v5.6q.1 1 1 1H277q.9 0 1-1m-47.5 0v-5.6q0-.9-1-1a16 16 0 0 1-15.7-11.1c-1.3-4.2.1-8.1 1.5-9.5q.3-.5 1-.5.6.3.5.4c.2.5-.3 1.6-.6 2.1l-.2.4c-.3 2.4.5 3.8 1.3 4.6q2 2 5.2 2c2.4-.2 5.4 2.3 6.3 3.3a1 1 0 0 0 1.7-.7v-6.6q0 .9-1 1H277a1 1 0 0 1-1-1v6.6a1 1 0 0 0 1.7.7c1-1 4-3.5 6.3-3.4q3.3.1 5.3-1.9c.7-.8 1.5-2.2 1.2-4.6l-.1-.4c-.4-.5-.9-1.6-.7-2.1l.5-.4q.6 0 1 .5c1.4 1.4 2.8 5.3 1.5 9.5-1 3.3-4.8 11.1-15.7 11.1a1 1 0 0 0-1 1v5.6q0-.9 1-1h-47.5q1 0 1 1" id="path3597" fill="#5087c6"/></g><g id="g3599"><path d="M271.2 183.9v-5c9.7 0 14.7-5 16.6-10 1.9-4.8-1.2-10-3.8-9.3s-.3 3.3-.3 3.3c.5 3.4-2.7 4.7-5.5 4.5-3.4-.1-7 3.1-7 3.1v-5.4h-36v5.4s-3.7-3.2-7.1-3c-2.8 0-6-1.2-5.5-4.6 0 0 2.2-2.6-.3-3.3-2.6-.7-5.6 4.5-3.8 9.4 2 4.9 7 10 16.7 10v4.9z" id="path3601" fill="#f2c008"/><path d="M272.2 183.9v-5q-.1 1-1 1c12.2 0 16.3-7.4 17.5-10.6 1.5-3.7.3-7.5-1.4-9.4q-1.6-1.7-3.5-1.3-1.8.7-1.9 1.6c-.5 1.5.8 3 1 3.4l-.2-.5q.2 1.3-.5 2.1-1.3 1.3-4 1.2c-3.7-.1-7.5 3.2-7.7 3.4a1 1 0 0 1 1.7.7v-5.4q-.1-1-1-1h-36a1 1 0 0 0-1 1v5.4a1 1 0 0 1 1.6-.7c-.1-.2-4-3.5-7.7-3.4q-2.7 0-4-1.2-.6-.7-.5-2.1 0 .3-.2.5c.3-.3 1.5-1.9 1-3.4q-.1-.9-1.8-1.6-1.9-.4-3.6 1.3a9 9 0 0 0-1.4 9.4c1.2 3.2 5.4 10.7 17.6 10.7a1 1 0 0 1-1-1v4.9q0 .9 1 1h36q.9-.1 1-1m-36 0v-5a1 1 0 0 0-1-1c-11 0-14.7-6.5-15.7-9.3a8 8 0 0 1 1-7.3c.3-.3 1-1 1.5-.8l.5.3q0 .6-.6 1.5v-.1l-.3.6q-.2 2.2 1 3.7c1.2 1.3 3.3 2 5.5 2 3-.2 6.4 2.8 6.4 2.8a1 1 0 0 0 1.7-.8V165q-.1 1-1 1h36a1 1 0 0 1-1-1v5.5a1 1 0 0 0 1.6.8s3.4-3 6.4-2.9q3.6.1 5.5-1.9 1.3-1.5 1-3.7l-.2-.5c-.4-.4-.8-1.2-.7-1.5l.5-.3c.6-.1 1.3.5 1.5.8a8 8 0 0 1 1 7.3c-1 2.8-4.7 9.4-15.7 9.4a1 1 0 0 0-1 1v4.9q.1-1 1-1h-36q1 0 1 1z" id="path3603" fill="#5087c6"/></g><g id="g3605"><path d="M267.8 165v-4.7c8.8 0 13.3-5 15-10s-1-10.1-3.4-9.4c-2.3.7-.3 3.4-.3 3.4.5 3.3-2.4 4.6-4.9 4.5-3-.2-6.4 3-6.4 3v-5h-29.3v5s-3.3-3.2-6.4-3c-2.5 0-5.4-1.2-5-4.5 0 0 2-2.7-.2-3.4s-5.1 4.5-3.4 9.4 6.2 10 15 10v4.8z" id="path3607" fill="#f2c008"/><path d="M268.8 165v-4.7a1 1 0 0 1-1 1c7.7 0 13.7-4 16-10.7 1.3-3.8.2-7.8-1.6-9.6q-1.5-1.6-3-1-1.6.6-1.7 1.5c-.5 1.4.6 3 .8 3.4l-.1-.5q0 1.4-.6 2.3-1.2 1.1-3.3 1c-3.5-.1-7 3.3-7.2 3.4a1 1 0 0 1 1.7.7v-5q0-1-1-1h-29.3a1 1 0 0 0-1 1v5a1 1 0 0 1 1.7-.7c-.1-.1-3.7-3.5-7.1-3.3q-2.2 0-3.4-1.1-.8-1-.5-2.3l-.2.5c.2-.3 1.4-2 .9-3.4q-.2-.9-1.7-1.6-1.6-.5-3 1c-1.8 1.9-3 5.9-1.7 9.7 2.3 6.7 8.3 10.7 16 10.7a1 1 0 0 1-1-1v4.8q.1.9 1 1h29.3q1-.1 1-1zm-29.3 0v-4.7a1 1 0 0 0-1-1c-9.8 0-13.1-6.5-14-9.3a8 8 0 0 1 1-7.6c.2-.2.7-.7 1-.5q.3 0 .5.2 0 .6-.6 1.6l-.2.4a5 5 0 0 0 1 4q1.9 1.8 5 1.7c2.1-.1 4.8 2 5.6 2.8a1 1 0 0 0 1.7-.7v-5.2q0 1-1 1h29.3a1 1 0 0 1-1-1v5.2a1 1 0 0 0 1.7.7c.9-.8 3.5-3 5.7-2.8q3.1 0 4.9-1.8c.6-.7 1.3-2 1-3.9l-.2-.4c-.3-.5-.6-1.3-.5-1.6l.3-.2c.4-.2.9.3 1 .5 1.2 1.1 2.3 4.3 1.2 7.6-1 2.8-4.3 9.3-14 9.3a1 1 0 0 0-1 1v4.7q0-.9 1-1h-29.4q.9.1 1 1" id="path3609" fill="#5087c6"/></g><g id="g3611"><path d="M263.5 146.7V143c8.1 0 12.3-4.3 14-8.6 1.5-4.2-1-8.7-3.2-8.1s-.3 2.9-.3 2.9c.4 2.9-2.3 4-4.6 3.9-2.8-.2-5.9 2.6-5.9 2.6v-4.4h-20.7v4.4s-3-2.8-5.9-2.6c-2.3 0-5-1-4.6-4 0 0 1.9-2.2-.2-2.8-2.2-.6-4.7 3.9-3.2 8.1 1.6 4.3 5.8 8.6 14 8.6v3.8z" id="path3613" fill="#f2c008"/><path d="M264.5 146.7V143q0 1-1 1c7.2 0 12.7-3.4 14.8-9.2 1.2-3.3.3-6.7-1.3-8.4q-1.4-1.5-3-1.1-1.5.6-1.7 1.5c-.4 1.3.7 2.7 1 3l-.3-.5q.2 1.1-.4 1.8-1 1-3.1 1c-3.3-.2-6.5 2.8-6.7 2.9a1 1 0 0 1 1.7.7v-4.4q0-1-1-1h-20.7a1 1 0 0 0-1 1v4.4a1 1 0 0 1 1.7-.7c-.1-.1-3.4-3-6.6-3q-2 .1-3.1-1-.6-.6-.5-1.7 0 .3-.2.5c.2-.3 1.3-1.7.9-3q-.2-.9-1.7-1.5-1.5-.4-3 1a9 9 0 0 0-1.3 8.5c2.1 5.8 7.7 9.2 14.8 9.2a1 1 0 0 1-1-1v3.8q.1 1 1 1h20.7q.9 0 1-1zm-20.7 0V143q0-.9-1-1c-9 0-12-5.5-13-8-.9-2.4-.2-5 1-6.3q.5-.6 1-.5.3 0 .3.2c0 .1-.2.8-.5 1.2l-.2.4a4 4 0 0 0 .9 3.4 6 6 0 0 0 4.6 1.7c2-.1 4.5 1.7 5.2 2.4a1 1 0 0 0 1.7-.8v-4.4q0 .9-1 1h20.7a1 1 0 0 1-1-1v4.4a1 1 0 0 0 1.7.8c.7-.7 3.2-2.5 5.2-2.4a6 6 0 0 0 4.6-1.7 4 4 0 0 0 1-3.4l-.2-.4q-.6-.8-.6-1.2l.3-.2q.5 0 1 .5a7 7 0 0 1 1 6.4c-1 2.4-4 8-13 8a1 1 0 0 0-1 1v3.7q.1-.9 1-1h-20.7q1 .1 1 1" id="path3615" fill="#5087c6"/></g><g id="g3617"><path d="M259.6 131.2v-3.4c7.5 0 11.5-3.8 13-7.5 1.4-3.7-1-7.6-3-7s-.3 2.5-.3 2.5c.4 2.5-2 3.4-4.2 3.3-2.7 0-5.5 2.4-5.5 2.4v-4.1h-12.8v4s-2.9-2.4-5.5-2.3c-2.2.1-4.7-.8-4.3-3.3 0 0 1.7-2-.3-2.6-2-.5-4.3 3.4-2.9 7.1 1.5 3.7 5.4 7.5 13 7.5v3.4z" id="path3619" fill="#f2c008"/><path d="M260.6 131.2v-3.4q-.1 1-1 1c9.6 0 12.9-5.7 13.8-8.1 1.2-3 .3-5.8-1-7.3q-1.5-1.5-3-1.1c-1.1.2-1.5.9-1.7 1.3-.4 1.3.7 2.6.9 2.8l-.3-.5q.2.8-.3 1.4-.9 1-2.9.8c-3 0-6 2.5-6.2 2.6a1 1 0 0 1 1.7.8v-4.1q-.1-1-1-1h-12.8a1 1 0 0 0-1 1v4a1 1 0 0 1 1.6-.7c-.1-.1-3.2-2.7-6.2-2.6q-1.9.1-2.9-.8-.5-.5-.3-1.4l-.2.5c.2-.2 1.2-1.5.8-2.8q0-.7-1.6-1.3-1.6-.4-3 1.1a7 7 0 0 0-1.1 7.3c1 2.4 4.3 8.1 13.9 8.1a1 1 0 0 1-1-1v3.4q0 .9 1 1h12.8q.9-.1 1-1m-12.8 0v-3.4q-.1-.9-1-1c-8.4 0-11.2-4.8-12-6.9-.8-2-.3-4.1.7-5.2q.5-.6 1-.5h.2l-.4 1-.3.4q-.3 1.8.8 3 1.6 1.6 4.5 1.5c2.2 0 4.8 2.1 4.8 2.1a1 1 0 0 0 1.7-.7v-4.1q-.1.9-1 1h12.8a1 1 0 0 1-1-1v4a1 1 0 0 0 1.6.8s2.6-2.1 4.8-2q3 0 4.5-1.6 1-1.2.8-3l-.2-.5q-.5-.5-.5-.9v.1l.2-.1q.5 0 1 .5c1 1.1 1.6 3.2.8 5.2-.8 2.1-3.6 7-12 7a1 1 0 0 0-1 1v3.3q0-1 1-1h-12.8q.9 0 1 1" id="path3621" fill="#5087c6"/></g><g id="g3623"><path d="M258 102v6.9s2.5-2.3 5-2.2c1.9 0 4.2-.8 3.8-3.2 0 0-1.6-1.8.2-2.3s4 3.1 2.7 6.6-4.9 7-11.8 7v2.6h-9.5v-2.6c-6.9 0-10.4-3.6-11.7-7-1.4-3.5.8-7.1 2.6-6.6s.2 2.3.2 2.3c-.3 2.4 2 3.3 3.9 3.2 2.4-.1 5 2.2 5 2.2V102z" id="path3625" fill="#f2c008"/><path d="M257 102v6.9a1 1 0 0 0 1.6.7c.6-.5 2.7-2 4.3-1.9q2.6 0 4.1-1.4 1-1.2.8-2.9l-.2-.5-.4-.8-.1.1h.2q.3-.2.8.4a5 5 0 0 1 .6 4.8c-.7 2-3.2 6.4-10.8 6.4a1 1 0 0 0-1 1v2.6q.1-1 1-1h-9.5q.9 0 1 1v-2.6q-.1-1-1-1c-7.6 0-10-4.5-10.8-6.4a5 5 0 0 1 .7-4.8q.3-.5.7-.5l.2.1-.4.7-.2.5q-.3 1.7.7 2.9 1.4 1.5 4.1 1.4c1.7 0 3.7 1.4 4.3 2a1 1 0 0 0 1.7-.8V102q-.1 1-1 1h9.5a1 1 0 0 1-1-1m-9.6 0v6.9a1 1 0 0 1 1.6-.8s-2.9-2.5-5.6-2.4q-1.7 0-2.6-.8-.5-.4-.3-1.2 0 .3-.2.5c.2-.2 1.2-1.5.8-2.7q-.2-.7-1.5-1.3-1.5-.3-2.8 1a7 7 0 0 0-1 7c1.8 4.7 6.5 7.6 12.6 7.6a1 1 0 0 1-1-1v2.6q0 .9 1 1h9.5q1-.1 1-1v-2.6q0 .9-1 1c6.1 0 10.9-2.9 12.7-7.7 1-2.7.2-5.5-1-6.9q-1.4-1.3-2.8-1-1.4.6-1.6 1.3c-.3 1.2.6 2.5.8 2.7l-.2-.5q0 .8-.3 1.2-.8.8-2.5.8c-2.8-.1-5.6 2.3-5.7 2.4a1 1 0 0 1 1.6.8V102q0-.9-1-1h-9.5a1 1 0 0 0-1 1" id="path3627" fill="#5087c6"/></g><g id="g3629"><path d="M258.9 102v-2.3h1.7s-.9.5.6-.2q2-1.2 2-6.8c0-3.6-3.3-5.6-4.9-4.7-1.6 1 1 2.5 1 2.5s.8.4.3 2-3.8 1.1-3.8 1.1 2.2-12.2 2.3-15.4c.2-3.3-3-4.7-3-4.7h-3.8s-3.3 1.4-3.1 4.7c.2 3.2 2.3 15.4 2.3 15.4s-3.2.5-3.7-1c-.6-1.7.1-2 .1-2s2.7-1.7 1.1-2.6-4.8 1.1-4.8 4.7q-.1 5.6 2 6.8c1.4.7.5.2.5.2h1.8v2.3z" id="path3631" fill="#f2c008"/><path d="M259.9 102v-2.3q-.1 1-1 1h1.7a1 1 0 0 1-.5-1.9c-.9.6-.8 1.2-.6 1.6.5.9 1.3.4 2.1 0q2.7-1.1 2.6-7.7a6 6 0 0 0-3-5.3q-1.8-1-3.4-.2-1.2.8-1 1.5c0 1.3 1.6 2.4 2 2.7v-.1l-.2.9c-.1.5-1.7.6-2.6.4a1 1 0 0 1 .8 1.2c0-.5 2.1-12.3 2.3-15.6.2-3.9-3.5-5.6-3.6-5.6l-.4-.1h-4.3c-.1.1-3.8 1.8-3.6 5.7.2 3.3 2.3 15 2.3 15.6a1 1 0 0 1 .9-1.2c-1.1.2-2.5 0-2.7-.4q-.2-.9-.1-1l-.2.2c.5-.3 2.2-1.4 2.1-2.7q.2-.7-1-1.5-1.6-.9-3.5.2a6 6 0 0 0-2.8 5.3q0 6.5 2.5 7.7c.8.4 1.7.9 2.1 0q.6-.7-.6-1.6a1 1 0 0 1-.5 2h1.8a1 1 0 0 1-1-1v2.2q0 1 1 1h11.3q1 0 1-1zm-11.4 0v-2.3q-.1-.9-1-1h-1.8a1 1 0 0 0-.5 1.9h.1q-.6-.4-.2-1.2t1.2-.4l-.7-.4c-.5-.2-1.4-1.4-1.4-5.9 0-1.8 1-3 1.9-3.5q.9-.6 1.4-.3h.1v-.2l-1.2 1s-1.4.8-.6 3.1c.8 2.4 4.5 1.9 4.9 1.8a1 1 0 0 0 .8-1.2s-2.1-12.2-2.3-15.3c-.1-2.5 2.4-3.7 2.5-3.7h-.5 3.9-.4s2.6 1.2 2.4 3.7c-.1 3.1-2.3 15.2-2.3 15.3a1 1 0 0 0 .8 1.2c.5 0 4.1.6 5-1.8.7-2.3-.6-3-.8-3.1-.4-.3-1-.8-1-1v.3q.6-.4 1.5.2a4 4 0 0 1 1.9 3.5c0 4.5-1 5.7-1.5 6l-.6.3q.8-.2 1.1.4.4.8-.2 1.3l.2-.1a1 1 0 0 0-.6-1.9h-1.8a1 1 0 0 0-1 1v2.3q.1-.9 1-1h-11.3q.9.1 1 1" id="path3633" fill="#5087c6"/></g><g id="g3635"><path d="M284.8 229.7v-5.9c10.2 0 15.5-6.5 17.5-12.7 2-6.3-1.2-13-4-12-2.6.8-.3 4.2-.3 4.2.5 4.3-2.9 6-5.7 5.8-3.6-.2-7.5 4-7.5 4v-7h-63.3v7s-3.8-4.2-7.4-4c-3 .1-6.3-1.5-5.8-5.8 0 0 2.4-3.4-.3-4.3s-6 5.8-4 12 7.3 12.8 17.5 12.8v6z" id="path3637" fill="#f2c008"/><path d="M285.8 229.7v-5.9q0 1-1 1c9 0 15.8-5 18.5-13.4 1.5-5 .1-10.2-2.1-12.4q-1.5-1.5-3.2-1a3 3 0 0 0-1.8 1.8c-.6 1.7.8 3.9 1 4.1l-.2-.4q.3 2.1-.8 3.3a5 5 0 0 1-3.9 1.3c-4-.2-8 4-8.2 4.3a1 1 0 0 1 1.7.6v-6.9q0-.9-1-1h-63.3a1 1 0 0 0-1 1v7a1 1 0 0 1 1.8-.7c-.2-.2-4.3-4.5-8.3-4.3a5 5 0 0 1-3.8-1.3q-1.1-1.3-.9-3.3l-.2.4c.2-.2 1.6-2.4 1-4.1q-.1-1-1.8-1.7-1.6-.5-3.2 1c-2.2 2.1-3.6 7.3-2 12.3a18.5 18.5 0 0 0 18.4 13.4 1 1 0 0 1-1-1v6q.1.9 1 1h63.3q.9-.1 1-1zm-63.3 0v-5.9q0-.9-1-1a16.5 16.5 0 0 1-16.5-12c-1.4-4.4 0-8.8 1.5-10.3q.4-.6 1.2-.5.5.2.5.4c.2.7-.4 2-.7 2.4l-.2.4c-.3 2.5.6 4 1.4 5a7 7 0 0 0 5.4 1.9c2.6-.1 5.7 2.6 6.7 3.6a1 1 0 0 0 1.7-.7v-6.9q0 1-1 1h63.3a1 1 0 0 1-1-1v7a1 1 0 0 0 1.7.6c1-1 4.2-3.7 6.7-3.6a7 7 0 0 0 5.4-2c.8-.8 1.7-2.4 1.4-4.9l-.2-.4c-.4-.6-.9-1.8-.7-2.4l.6-.4q.7-.1 1.1.5c1.5 1.5 3 5.9 1.6 10.3-1.2 3.6-5 12-16.6 12a1 1 0 0 0-1 1v6q.1-1 1-1h-63.3q1 0 1 1z" id="path3639" fill="#5087c6"/></g></g><g id="g3641"><g id="g3643"><g id="g3645"><path d="M187.3 113.1c-3.4-3.7-13.1-8.4-16.5-6-3.4 2.3-5.7 13.1-5.7 17.5v.7l-8.3 5a36 36 0 0 0-9.6-7.4s-8.7 3.4-12 10.8c-3 6.4-3.6 11.3-3.7 12.5l-6 4-1.1-1.4c-4.8-4.7-18.2-8-18.2-8-9.8 6.7-9.1 18.1-8.4 21.5.2 1.3 2.1 3.5 4.7 5.8l-3.8 3.4c-4.7-3-12-5.2-12-5.2s-6.8 10.1-7.1 17.2q0 4.1 2.8 7l-2 3.5-10.2-2.8H58s-6.1 1.4-5.8 8.8c.3 6.1 7.3 13.4 12.7 16.7l-1.6.1c-9 1.4-13.4 9.8-13.4 9.8s-3.7 7.7-.4 14.1 16.2 7.7 16.2 7.7L70 247l.7 3.4q-2.1 1.6-2.9 2.8c-2 3.3-8 11-4.7 15.4 3.4 4.4 23.6 3 25.2 1.7a20 20 0 0 0 6.4-13.1c0-6-4.3-14.5-4.3-14.5-3.8 0-8.7 1.7-13 3.8l-.4-2c3-1.2 5.5-2.4 6-3.1 1.3-2 4-8.8 4-12.1 0-3.4-.3-6.1-.3-6.1s-3.8-2-8.7-3.9l.2-1c4.5-.7 9.1-2 11.5-2.8C94 213.8 97 203 97 203s-4.9-4.5-10.8-7l1.6-1.8q3.4 1.5 7.2 1.4c8 0 20.2-10.8 20.2-10.8s-6.8-5-11.5-9l3.6-3.9a18 18 0 0 0 8.5 3.8c5.4 0 15.9-9 15.9-9s-1.4-6.6-3.9-12.2q2.8-1.6 6.1-3.8c2.7 3.1 7.5 6.6 15.6 5.2 13.8-2.4 19.2-11.1 19.2-11.1s-3.8-5.4-8.7-11l7.1-4.6q1.5.9 1.6.8s7.4-1 14.5-1 11.4-4 11.4-4-4-8.1-7.4-11.9z" id="path3647" fill="#0db14b"/></g><g id="g3649"><g id="g3651"><path d="M180.5 104.4s-3.8-5-7.6-3.6-5 6.8-2.3 7.7 7-.1 7-.1-3.3 4.2.8 6c4 1.9 6.2-.3 6.2-.3s-1.1 4.8 1.5 6.4c2.7 1.5 5.3 1 5.3 1s-1.6 6.6 3.7 6.4 8-6.5 5.6-9.3-4.5-3-4.5-3-.5-5.2-3.3-6.4-3.8-.2-3.8-.2-.5-7.4-8.6-4.6" id="path3653" fill="#ffffff"/><path d="M181.3 103.7c-.1-.2-4.3-5.5-8.7-3.8a7 7 0 0 0-4.4 6.3q.1 2.5 2 3.3c3 1 7.4-.1 7.6-.1l-1-1.6c-.2.2-1.9 2.5-1.3 4.8.2.8.8 2 2.5 2.7 4.6 2.2 7.2-.4 7.3-.5l-1.7-.9c0 .2-1.2 5.5 2 7.4 3 1.8 5.9 1.1 6 1l-1.2-1.1c0 .1-.9 4 1 6.2q1.3 1.6 3.7 1.5a8 8 0 0 0 6.9-4.8q1.5-3.6-.6-6.1c-2.6-3-4.9-3.3-5.1-3.3l.9.9c0-.6-.6-6-3.8-7.4-3.4-1.4-4.9 0-5 .1l1.7.6c0-.1-.3-3.5-2.9-5.2q-2.6-1.8-7-.3zm8.5 6s.7-.5 2.7.4c1.9.8 2.6 4.4 2.7 5.7v.8h1s1.6.3 3.7 2.7c.8.9 1 2.5.3 4a6 6 0 0 1-5.1 3.6q-1.5 0-2.2-.8c-1-1.2-.7-3.6-.5-4.5l.3-1.5-1.5.3s-2.3.5-4.6-.8c-1.6-1-1.3-4.1-1-5.3l.7-3.3-2.4 2.4c-.1 0-1.8 1.7-5.1.1q-1.2-.5-1.4-1.4c-.3-1.1.6-2.6 1-3l1.7-2.4-2.8.7a14 14 0 0 1-6.4.2q-.8-.5-.7-1.4a5 5 0 0 1 3-4.5c3-1 6.5 3.2 6.5 3.3l.5.5.7-.2q3.3-1.2 5.2 0c1.8 1.2 2 3.8 2 3.8l.1 2.2z" id="path3655" fill="#5087c6"/></g><g id="g3657"><path d="M147.7 116.6c2.6-2 8.7.2 9.3 3.1.6 3 1.4 4.2 1.4 4.2s7.9-3.4 10.8 2.5 2 9.9 2 9.9 8.4 6.7 4.7 9.8c-3.7 3-10.2 2-12.7-1.6-2.5-3.5-1.9-7.4-1.9-7.4s-5.9 1-8.7-2.5c-2.8-3.4-2.4-6.5-2.4-6.5s-13.5-2.7-2.5-11.5" id="path3659" fill="#ffffff"/><path d="M148.3 117.4q1.7-1.2 4.5-.2t3.2 2.7c.6 3 1.4 4.4 1.5 4.5l.5.8.8-.4c.2-.1 7-3 9.5 2 2.7 5.5 2 9.2 2 9.3l-.2.6.5.4c2 1.6 5.2 4.9 5.2 7q0 .8-.6 1.2a8 8 0 0 1-6 1.5 8 8 0 0 1-5.2-2.9 10 10 0 0 1-1.7-6.7l.2-1.3-1.3.2c-.1 0-5.4.8-7.8-2.1a9 9 0 0 1-2.3-5.8l.1-1-.9-.1c-1.4-.3-5.3-1.5-5.9-3.7q-.5-2.5 3.9-6m.8 10.6c0 .1-.3 3.5 2.8 7.2s9.3 2.9 9.6 2.9l-1.2-1.2c0 .2-.6 4.3 2 8.2 1.4 2 3.9 3.3 6.6 3.7q4.6.6 7.6-2 1.3-1.1 1.3-2.8c0-3.7-5.3-8-6-8.5l.4 1c0-.2 1-4.4-2-10.6-2.8-5.3-9.2-4.2-12.2-3l1.2.5q-.2 0-1.3-3.9c-.4-2-2.5-3.5-4.4-4.1-2-.7-4.7-1-6.5.4q-5.4 4.5-4.5 8c1 3.9 6.8 5.1 7.5 5.3z" id="path3661" fill="#5087c6"/></g><g id="g3663"><path d="M114.3 133.8s-4.5 4.4-3.4 10.7c1.1 6.4 9.6 6 9.6 6s5.8 3.5 5.5 5.2c-.4 1.7 1.8 7.3 3 7.6 1.3.3 4.9.6 4.9.6s9.1 3.7 10.5-.5 1.4-8.3-2.6-10.2-5.3-2.3-5.3-2.3 3.1-5.3-3-8.9c-6-3.5-11.1-3-11.1-3s1.4-8-8-5.2" id="path3665" fill="#ffffff"/><path d="M113.6 133.1c-.2.2-4.8 4.8-3.7 11.6 1 5.7 7.4 7 10.7 6.9l-.6-.2c2.5 1.5 4.9 3.5 5 4.2v-.1c-.4 2 1.8 8.3 3.8 8.7 1.3.4 4.8.7 5 .7h-.3c.7.2 6.6 2.5 9.9 1q1.5-.6 2-2.2c2.3-7.1-.4-10.1-3.2-11.4l-5.3-2.4.5 1.5s3.5-6.2-3.3-10.2a20 20 0 0 0-11.8-3.1l1 1.2c.1-.2.7-3.8-1.6-5.8q-2.5-2.2-7.6-.6h-.3zm9 7s4.8-.5 10.5 2.8c5 3 2.8 7 2.5 7.5l-.5 1 1 .4 5.3 2.3q4.4 2.1 2 9-.1.7-.8 1c-2.2 1-6.8-.5-8.3-1.1h-.2l-.1-.1-4.6-.6c-.8-.5-2.7-5-2.4-6.4.3-2.1-3.6-4.8-6-6.2l-.2-.1h-.3c-.3 0-7.7.2-8.6-5.3-1-5.7 3.1-9.7 3.1-9.8l-.4.3q4.1-1.2 5.8.2c1.4 1.3 1 3.9 1 4l-.2 1.2z" id="path3667" fill="#5087c6"/></g><g id="g3669"><path d="M95.6 159s2-5.8-5.6-4.9c-7.6 1-7.8 10.1-5.9 14.5 1.9 4.3 8 4.8 11 4.8s5.4-.2 5.4-.2-1.2 8.8 3 10.5c4.2 1.8 7 .7 7 .7s3.5 5.2 8.2 2.6 6.2-9.3 2.8-11.2-7.6-1.8-7.6-1.8 1.7-7.8-5.3-10.1-7-.8-7-.8 1.7-7.6-6-4.2" id="path3671" fill="#ffffff"/><path d="M96.5 159.3c0-.1 1-2.7-.6-4.6q-1.6-2.2-6-1.6-4.3.6-6.3 4.1c-2 3.5-1.8 8.6-.4 11.7 2 4.8 8.3 5.5 12 5.5 2.8 0 5.4-.2 5.4-.2l-1-1.1c-.2 1-1.3 9.6 3.5 11.6a11 11 0 0 0 7.7.6l-1.2-.4c1.4 2.1 5.3 5.4 9.6 3 3-1.8 5.1-5.3 5.1-8.5q0-3.1-2.4-4.4a19 19 0 0 0-8-2l1 1.2c.6-3 .2-9.2-6-11.2-5.5-1.9-7-1.4-7.7-1q-.6.5-.6 1.1l2 .2c0-.3.8-3.8-1.2-5.5q-2.1-1.5-6.2.2zm6.1 3.8-.2.6s1-.5 5.9 1.1c6 2 4.7 8.7 4.6 9v1.2h1s4 0 7 1.7c1.2.6 1.4 1.8 1.4 2.7 0 2.2-1.4 5.2-4.1 6.7-3.8 2.2-6.8-2.1-7-2.3l-.4-.7-.7.3c-.1 0-2.5 1-6.2-.6-2.9-1.1-2.7-7.2-2.4-9.5l.2-1.2-1.2.1s-2.5.2-5.4.2-8.5-.6-10-4.2a12 12 0 0 1 .2-10 6 6 0 0 1 4.8-3q3.3-.4 4.3.7c.8 1 .2 2.7.2 2.7l-.7 2.2 2-1q3-1.3 4.2-.4c1 .7.7 2.8.5 3.5l.2-.3z" id="path3673" fill="#5087c6"/></g><g id="g3675"><path d="M92.3 193s8.5-.4 8.4 5.2c-.2 5.5-2.3 7.9-4.8 7.3s-6.4-3.5-6.4-3.5-4.2 1.3-6.2-.4-4.5-6-4.5-6l-5-.5s-2 3-5.7 3-6-4-6-4-2.2 1.7-4.8.7c-2.7-1.1-6.7-8.7 2.5-9.8s.6-6 6-5.7 5.9 2.7 5.9 2.7 4.6-5.5 10.4-1.4c5.7 4.2 4.8 10.6 4.8 10.6z" id="path3677" fill="#ffffff"/><path d="M92.4 194c1.2 0 4.7.2 6.4 1.8q1 1 .9 2.3-.1 4.7-2 6-.7.6-1.6.4c-2.2-.6-6-3.3-6-3.3l-.4-.3-.5.2c-1 .3-4 .8-5.2-.3-1.9-1.6-4.3-5.6-4.3-5.6l-.3-.5H79l-5-.6-.7-.1-.3.5c-.1.1-1.7 2.7-4.8 2.7s-5.1-3.5-5.2-3.6l-.5-1-1 .7a4 4 0 0 1-3.7.5c-1-.4-2.9-2.7-2.6-4.8s2.8-2.8 4.8-3l.8-.1v-.8c0-.2.7-5.1 5-4.9 4.5.3 5 2 5 2l.5 1.9 1.3-1.4c.1-.2 4.1-4.8 9-1.3 5.1 3.8 4.4 9.4 4.4 9.6l-.1.9.8.2L92 194zm-4.5-2.7c0-.3 1-7-5.2-11.5-5.2-3.7-10-.6-11.8 1.6l1.8.5c0-.4-.8-3.3-6.8-3.7-5-.2-6.9 4.3-7.1 6.7l.8-1c-5.1.7-6.3 3.3-6.5 4.9-.4 2.8 1.8 6 3.8 6.9a6 6 0 0 0 5.8-.8l-1.5-.3c.1.2 2.7 4.6 7 4.6s6.3-3.5 6.4-3.6l-1 .5 5.1.6-.7-.5c0 .2 2.6 4.3 4.7 6.1 2.3 2 6.6.8 7.1.7l-.9-.1c.2 0 4.1 2.9 6.7 3.5q1.9.4 3.4-.6 2.5-2 2.7-7.6a5 5 0 0 0-1.5-3.9c-2.6-2.5-7.7-2.3-8-2.3l.4.1-5.4-1.9z" id="path3679" fill="#5087c6"/></g><g id="g3681"><path d="M75.6 215.5s2.6-4.2 8-2.3 10 7.4 8.9 9.6-8 4.8-10.6 3.3a14 14 0 0 1-3.4-2.5s-2.5 3.6-5.3 2.6-7.4-5.7-7.4-5.7-2.8 8.5-9.1 8.8c-6.4.3-10.3-.1-10.7-1.7-.5-1.5-.2-5-.2-5s-3.4-1.3-3.3-4.9 1.4-9.1 5.3-9.5c3.9-.3 6.8 4 6.8 4s2 .4 4.2 0q3.2-.2 3.1 0s-.6-4.1 3.1-4.4 7.6.8 10.6 7.7" id="path3683" fill="#ffffff"/><path d="M76.4 216c.1 0 2.3-3.4 7-1.9 3.7 1.3 7 4.6 8 7q.4.9.2 1.3c-.4.7-2.3 2-4.7 2.7q-3 .8-4.5.1a14 14 0 0 1-3.1-2.3l-.9-1-.7 1.1s-2.1 3-4.1 2.3a27 27 0 0 1-7-5.5l-1.2-1.2-.5 1.6s-2.7 7.9-8.3 8.1c-9.1.5-9.7-1-9.7-1-.3-1-.2-3.8-.1-4.7v-.8l-.7-.2s-2.7-1-2.6-3.9c.2-3 1.2-8.2 4.4-8.5 3.3-.2 5.9 3.5 6 3.5l.1.3h.4c.1.1 2.2.6 4.6.3l2.8-.2 1.3.2-.2-1.3s-.2-1.5.5-2.5q.6-.6 1.7-.7c3.1-.3 6.7.4 9.5 7.1l.8 1.8zM65 206.9q-2 0-3 1.5a6 6 0 0 0-1 4l1.2-1.2q-.1-.1-3.4.2c-2 .3-3.8-.2-3.8-.2l.6.4c-.2-.1-3.4-4.6-7.8-4.3-4.2.4-6 5.6-6.2 10.5a6 6 0 0 0 4 5.7l-.7-1c0 .4-.3 3.8.2 5.5.6 2 4.1 2.8 11.7 2.4 7-.3 10-9.1 10-9.5l-1.6.4c.5.5 4.9 5 7.8 6 3.5 1.1 6.3-2.9 6.4-3h-1.6c.1.1 1 1.1 3.7 2.7 1.8 1.1 4.6.5 6 0 2.4-.6 5.2-2 6-3.6.2-.6.4-1.5-.2-3-1-2.8-4.9-6.5-9.2-8a8 8 0 0 0-9.3 2.7l1.8.1c-3.4-8-8.2-8.6-11.6-8.3" id="path3685" fill="#5087c6"/></g><g id="g3687"><path d="M76.5 241.6s1.6-3.9 6.4-4.5 9.6 1.2 8.2 5.7-5 8.2-6 8.2h-5.5l-4.3-.3s-.7 10-3.5 11.7-6.5.7-6.5.7 1.4 6.2-3 5.8c-4.6-.5-12-5.8-9.4-10.6 2.7-4.8 8.9-7 8.9-7s-3-6.5 2.4-7.9 12.3-1.8 12.3-1.8" id="path3689" fill="#ffffff"/><path d="M77.4 242a7 7 0 0 1 5.6-4c2.9-.3 5.6.3 6.7 1.7q1 1 .4 2.8a16 16 0 0 1-5 7.6h-5.5l-4.3-.4h-1v1c-.3 3.9-1.4 9.8-3 10.8-2.4 1.5-5.7.7-5.7.7l-1.6-.4.4 1.5c.1.8.4 3.2-.5 4.1q0 .5-1.6.5c-2.7-.3-7-2.7-8.4-5.5q-1-2 0-3.6a17 17 0 0 1 8.2-6.5l1-.4-.4-1c-.4-.8-1.2-3.3-.4-4.9q.6-1.2 2.2-1.6c5.3-1.3 12-1.8 12-1.8h.7zm-13.4.5a5 5 0 0 0-3.5 2.6c-1.3 2.8.3 6.5.4 6.7l.5-1.4c-.2.1-6.6 2.4-9.3 7.4q-1.5 2.6 0 5.5c1.9 3.5 6.7 6.2 10 6.6q2.6 0 3.3-1.1c1.7-2 1-5.5 1-5.9l-1.3 1.2c.2 0 4.2 1 7.3-.9s3.8-10.7 3.9-12.4l-1.1 1 4.3.2h5.7c1.7 0 5.5-4.5 6.8-8.9.7-2.3 0-3.8-.7-4.7-1.6-2-4.9-2.8-8.6-2.3a9 9 0 0 0-7.1 5.1l.8-.6c-.2 0-7 .5-12.4 1.9" id="path3691" fill="#5087c6"/></g><g id="g3693"><path d="M92.5 257s4.5-6.4 9.6-3.2 5.3 8 5.3 8-1.4 6.6-5 7.2-7.8.6-7.8.6 8 4.2 8.3 7.5-1.4 11.8-11 10.4-16.5-1.4-15.4-6.7 5.3-6.2 5.3-6.2-6.9-6.7 1.5-9.6c8.4-3 9.3-2.8 9.3-2.8s-3-2.3-.1-5.1" id="path3695" fill="#ffffff"/><path d="M93.3 257.7c.2-.3 4-5.7 8.2-3 4.6 2.9 4.8 6.9 4.9 7v-.2c-.4 1.7-1.8 6.1-4.2 6.5-3.4.6-7.5.6-7.6.6l-.4 2c3 1.6 7.5 4.7 7.7 6.6a10 10 0 0 1-2.7 7.5q-2.5 2.4-7.2 1.8l-4-.5c-5.1-.7-9.2-1.2-10.3-2.9q-.6-.5-.3-2.1c1-4.5 4.3-5.4 4.5-5.4h-.2 2.4l-1.7-1.7c-.8-.8-2.7-3.2-2.3-5.1q.4-1.8 3.5-2.9c7.5-2.6 8.8-2.7 8.9-2.7l2.8-.1-2.2-1.7s-1-.8-1-1.7q0-1 1-1.9zm-.5 3.5c-1-.2-5.9 1.5-9.8 2.8q-4 1.5-4.7 4.4c-.8 3.4 2.6 6.8 2.8 7l.5-1.8c-.2 0-4.9 1.2-6 7q-.6 2.1.5 3.7c1.7 2.3 6 2.9 11.7 3.6l4 .6q5.4.7 8.8-2.4a12 12 0 0 0 3.3-9.1c-.4-3.6-7.4-7.5-8.8-8.2l-.5 1.8c.2 0 4.4 0 8-.6 4-.7 5.6-7.3 5.7-8v-.3c0-.2-.2-5.2-5.7-8.7-4.7-3-9.2 1-11 3.5l.2-.1q-1.7 1.5-1.6 3.4c.1 1.9 1.6 3 1.8 3.2z" id="path3697" fill="#5087c6"/></g></g><g id="g3699"><path d="M92 270.1s3.5 3.2 5.5 3.7 6.1.5 6.1.5-3 3-4.9 3-4 1.7-5.4 1.7H87s5.2 4 7 4 3.6-.8 3.6-.8l-1.2 4.5s17.7.2 26.6-11.9 11.6-35.7 11.6-35.7l6.9 9.9s-3.5-21.5-1-27.4c0 0 7-2.6 5-7.6-4.4-10.2 6-19.3 13.7-11.4 0 0-5.6 4.2-1.2 7.4s9.1-2 8.1-8.6c-1-6.7-5.9-10.6-14.8-10.6s-16 15-16.2 21.7c-.3 6.6-5 19-8.2 23.6s-8 10.4-8 10.4 2.1 1 6-1.5c4-2.5 5-6.6 5-6.6s-4 20.4-10.1 21.9c-6.2 1.5-13.3 2-13.3 2s-1.7 6.6-7.6 6.6h-6.5z" id="path3701" fill="#f2c008"/><path d="M91.4 270.9c.3.3 3.7 3.4 5.8 3.9s6.3.5 6.4.5a1 1 0 0 1-.7-1.7c-1 1.1-3.1 2.7-4.2 2.7q-2 .1-3.5 1-1.2.6-2 .7h-6a1 1 0 0 0-.7 1.8c1.3 1 5.6 4.2 7.5 4.2s4-.8 4-.9a1 1 0 0 1-1.2-1.2l-1.3 4.5a1 1 0 0 0 1 1.2c.7 0 18.3.2 27.4-12.2 9-12.1 11.7-35.2 11.8-36.2a1 1 0 0 1-1.8.5l6.9 9.8a1 1 0 0 0 1.8-.7c-1-5.9-3-22.2-1-26.8l-.7.5c.2 0 4.3-1.6 5.6-4.7q.9-2 0-4.2c-2.3-5.3-.2-9.9 2.8-11.8s6.5-1.4 9.3 1.5a1 1 0 0 1 .1-1.5c-.3.3-3.3 2.6-3.3 5.4q0 2.1 2.1 3.6 3 2.2 6 .4c2.9-1.7 4.3-5.7 3.7-10-1-7.3-6.7-11.4-15.8-11.4-9.8 0-17 16.1-17.2 22.6a60 60 0 0 1-8 23.2c-3.1 4.5-8 10.2-8 10.2a1 1 0 0 0 .3 1.6c.3.1 2.8 1.1 7.1-1.5 4.2-2.7 5.3-7.1 5.4-7.3a1 1 0 0 1-2-.4c-1.5 7.6-5.3 20.1-9.3 21.1-6 1.4-13.1 2-13.2 2a1 1 0 0 0-.9.7c0 .2-1.6 5.9-6.6 5.9h-6.5a1 1 0 0 0-.9.6l-.5 1.3q-.2.6.2 1zm1.1-1H99c5.2 0 7.9-4.8 8.6-7.4a1 1 0 0 1-1 .8c.4 0 7.4-.6 13.5-2 6.6-1.6 10.5-20.6 10.9-22.8a1 1 0 0 0-2-.4s-1 3.9-4.5 6c-3.3 2.2-5.2 1.5-5.2 1.5q.4 0 .6.7 0 .5-.2.8s5-5.7 8.2-10.4c3.4-5 8-17.4 8.3-24.2.2-6 7-20.7 15.2-20.7q12.3.1 13.8 9.7c.6 4-1 7-2.7 8q-1.8 1-3.8-.3-1.3-1-1.3-2c0-1.5 1.8-3.2 2.5-3.8a1 1 0 0 0 .1-1.5c-4.2-4.3-8.8-3.8-11.8-1.8a11.6 11.6 0 0 0-3.6 14.3q.6 1.4 0 2.7c-1 2.3-4.3 3.6-4.4 3.6l-.5.5c-2.6 6.1.7 27 .9 28a1 1 0 0 1 1.8-.8l-6.9-9.9a1 1 0 0 0-1.8.5c0 .2-2.8 23.5-11.4 35.2-8.5 11.6-25.6 11.5-25.8 11.5a1 1 0 0 1 1 1.2l1.2-4.4a1 1 0 0 0-1.3-1.2s-1.9.7-3.4.7c-.8 0-3.9-2-6.3-3.8a1 1 0 0 1-.6 1.8h6.2q1.3-.1 2.7-.8a7 7 0 0 1 2.7-1c2.3 0 5.3-2.8 5.6-3.2a1 1 0 0 0-.7-1.7s-4 0-5.9-.4c-1.2-.3-3.7-2.3-5-3.5q.5.5.3 1.1l.5-1.2a1 1 0 0 1-1 .6" id="path3703" fill="#5087c6"/></g></g><g id="g3705"><g id="g3707"><path d="M411 272.8c6.1 0 16.2-.3 20.4-1.1a27 27 0 0 0 17.2-10c4-5.7 8-16.6 8-16.6l-6.9 3.7c-3.7 2-4.5 6.3-4.5 6.3s-.9-3.2.8-6.3 6.9-3.4 9.8-11.2c2.8-7.7-1.2-28.8-1.2-28.8s-2.3 8.5-5.4 12.3c-3.2 3.7-4.3 12.3-4.3 12.3s-1.2-8 .8-12.3 6.6-13.2 7.2-23.2-7.4-29-7.4-29 0 7.5-2.6 12.7-2 14.3-2.6 18.6a19 19 0 0 0 .6 7.7s-.9-.6-2.6-4.3.9-12-1.1-26-11.8-16.3-13.8-17c-2-.5-4.8-6.8-4.8-6.8s-1.2 4.3.3 6.6c1.4 2.3.2 5.4.2 11.5s6.3 12.8 6.3 12.8-8.8-7.4-9.7-10.3c-.9-2.8.3-2.8-1.1-12.3s-15-14-17-16.9-4-7.4-4-7.4-2.5 9.5-1.4 12.9 7.2 8.3 9.8 10.6 3.4 5.4 3.4 5.4-13.7-9.7-16-13.2c-2.3-3.4 0-9.1-1.2-14.8S376 126.4 372 121.5s-10.5-8.9-10.5-8.9 1.4 2 4.2 4.6c3 2.6 4.3 8.3 5.5 12.9 1.1 4.6 5.7 13.4 5.7 13.4l-9.7-6.8c-3.5-2.3-3.2-6.6-4.9-14.3s-12.9-14-16.6-16-6-5.5-6-5.5 3.4 10.9 6.6 13.7c3.1 2.9 6.9 11.8 6.9 11.8s-2.3-5.2-9.5-11.2a45 45 0 0 0-18-9.1c-2.9-.6-8.3-7.8-8.3-7.8-2 4.9 2 12.6 4.9 16a64 64 0 0 0 8.5 7.8s-2.2-1.5-4.2-1.5l-16 .6s4.2 7.5 10.5 10.6c6.3 3.2 10.3.9 15.2.9s13.4 2.3 16.9 4.8c3.4 2.6 12 6.3 12 6.3l-4.3.3s-6.3-2-13.2-6.3-14.9-2-14.9-2 3.5 5.7 4.6 7.2c1.2 1.4 7.5 5.1 12.6 6.3 5.2 1.1 18.3 0 23.8 2.5a72 72 0 0 1 13.1 9.8s-4.3-.9-7.4-3.2a44 44 0 0 0-17.8-6c-8-1.1-11.1.9-11.1.9s9.1 7.7 10.3 8.3c1.1.5 8.3 4 11.7 4.8 3.4.9 13.5 2.3 17.7 2.6a20 20 0 0 1 8.7 4.2 40 40 0 0 0-15-1c-4.2.2-11.7-1-11.7-1s4.6 3.2 6.6 4.4c2 1.1 10.3 8.3 17.5 9.7s16.3 0 24.3 5.7 9.4 17.8 9.4 17.8-3.7-9-10.3-15-24.6-4-24.6-4 2.6 2.6 4.9 7c2.3 4.2 9.4 8.8 14.8 11.4a51 51 0 0 1 20 18.6c3.8 7.7-2.8 25.7-2.8 25.7s.6-14.6-2-24.6-17.7-15.7-17.7-15.7 2.5 7.4 2.5 10.6 1.5 14.3 5.5 20.6 5.4 12.3 2.8 17.1c-1.8 3.5-11.7 6.7-17.1 8.2-2.2-.5-3.7-2-4.6-3.3 4.2-3 12.7-10 13.2-16.8.6-8.9-2.6-18.9-2.6-18.9s-7.6 16.2-10.2 20.2a40 40 0 0 0-3.4 12.2c-2.4-.2-7.4-.7-11.8-1.8-6.2-1.5-10.1-22-10.1-22s1 4.2 4.9 6.7 6.2 1.5 6.2 1.5-5-5.7-8.2-10.4c-3.2-4.6-7.9-17-8.1-23.6s-7.4-21.7-16.3-21.7-13.8 4-14.7 10.6c-1 6.6 3.6 11.8 8 8.6s-1.1-7.4-1.1-7.4c7.6-7.9 18 1.2 13.7 11.4-2 5 5 7.6 5 7.6 2.4 6-1 27.3-1 27.3l6.9-9.8s2.7 23.6 11.6 35.7q1.5 2 3 3.5c2 5.5 6.5 14.8 15.2 17 12.6 3.2 33-2.4 33-2.4s-12.8.5-18.3-2.5-9-6-12.6-6.8c-3.6-.9-10.6-8.1-13.4-9.2l10.8 4.4a30 30 0 0 0 19.9 6.7c18 0 28.5-11.5 28.5-11.5s-23.8.2-32.4 1.3a43 43 0 0 1-14.2-1s4.1 0 6.1-.5q1-.1 2-1z" id="path3709" fill="#f2c008"/><path d="M411.1 273.8c7-.1 16.4-.4 20.5-1.1a28 28 0 0 0 17.8-10.5 93 93 0 0 0 8.2-16.8 1 1 0 0 0-1.5-1.2l-6.8 3.7a11 11 0 0 0-5.1 7 1 1 0 0 1 2 0s-.8-2.9.7-5.6q.8-1.4 2.7-2.5a17 17 0 0 0 7.1-8.8c3-7.9-1-28.6-1.1-29.4a1 1 0 0 0-2-.1s-2.2 8.4-5.2 12a31 31 0 0 0-4.5 12.7 1 1 0 0 1 2 0s-1.1-7.8.8-11.7l.5-1.2c2.1-4.5 6.2-13 6.7-22.4.6-10-7.2-28.5-7.5-29.3a1 1 0 0 0-2 .4s0 7.3-2.4 12.1c-2 3.9-2.2 9.7-2.4 14.3q0 2.8-.3 4.6c-.6 4.5.6 8 .6 8.2a1 1 0 0 1 1.5-1.1s-.7-.7-2.2-4q-.9-2.2-.4-7.6c.2-4.4.5-10.4-.6-18-1-6.6-4.2-14.9-14.3-17.7h-.2c-1-.3-3-3.5-4.2-6.4a1 1 0 0 0-1.9.2c-.1.5-1.2 4.8.4 7.3.8 1.2.6 3 .4 5.5l-.3 5.4c0 6.4 6.3 13.3 6.6 13.6a1 1 0 0 1 1.4-1.4c-3.4-2.8-8.9-8-9.4-9.9a8 8 0 0 1-.3-2.8c0-1.5 0-4-.8-9.3-1.1-7-8.3-11.5-13-14.4-1.9-1.2-3.6-2.2-4-3a52 52 0 0 1-4-7.3 1 1 0 0 0-1.9.2c-.3 1-2.6 9.9-1.4 13.5 1 3.3 5.8 7.3 8.9 10l1.1 1c2.3 2 3.1 5 3.1 5a1 1 0 0 1 1.6-1.1c-3.8-2.7-14-10.2-15.8-13q-1.3-2.5-.7-6.9c0-2.3.3-5-.3-7.5-.8-4-5.6-8-10.3-12a51 51 0 0 1-6.2-5.6c-4-5-10.5-9-10.8-9.1a1 1 0 0 0-1.4 1.4c.1.1 1.6 2.1 4.5 4.8 2.6 2.3 4 7.9 5.1 12.3A90 90 0 0 0 376 144a1 1 0 0 1 1.5-1.3l-9.8-6.9c-2.2-1.4-2.6-4-3.4-8.3l-1-5.4c-1.6-7-10.2-12.9-17.1-16.6a17 17 0 0 1-5.6-5.1 1 1 0 0 0-1.8.8c.1.5 3.5 11.2 6.8 14.2a43 43 0 0 1 6.6 11.4 1 1 0 0 1 1.9-.8 46 46 0 0 0-28.2-20.9c-1.8-.4-5.7-4.7-7.7-7.4a1 1 0 0 0-1.7.2c-2.3 5.6 2.4 14 5 17a64 64 0 0 0 8.7 8 1 1 0 0 1 1.2-1.7c-.1 0-2.6-1.6-4.8-1.6l-16.1.6a1 1 0 0 0-.8 1.5 31 31 0 0 0 11 11c4.7 2.4 8.2 1.8 11.6 1.3q2-.3 4-.3c4.5 0 13 2.1 16.3 4.6a84 84 0 0 0 12.2 6.4 1 1 0 0 1 .3-1.9l-4.3.3h.4s-6.3-2-13-6.1a21 21 0 0 0-15.6-2.2 1 1 0 0 0-.6 1.5c.1.3 3.5 5.8 4.6 7.3a32 32 0 0 0 13.2 6.6c2.1.5 5.4.6 9 .7 5.3.2 11.4.3 14.5 1.8a70 70 0 0 1 13 9.6 1 1 0 0 1 .8-1.7s-4.1-.9-7-3a45 45 0 0 0-18.2-6.2c-8.3-1.2-11.7 1-11.9 1a1 1 0 0 0 0 1.6 182 182 0 0 0 10.4 8.4c.1 0 8.1 4 12 5a156 156 0 0 0 17.9 2.6q3 .2 8 4a1 1 0 0 1 1-1.8 41 41 0 0 0-15.3-1c-4.1.2-11.4-.9-11.5-1a1 1 0 0 0-.7 1.9c.1.1 4.6 3.2 6.6 4.3l2.1 1.5c3.5 2.5 9.9 7.2 15.7 8.4q3.2.6 6.8.8c5.7.4 11.7.9 17 4.7 7.6 5.4 9.1 17 9.1 17a1 1 0 0 1 2-.4c-.2-.4-4-9.2-10.6-15.3-6.9-6.2-24.6-4.3-25.4-4.2a1 1 0 0 0-.6 1.7s2.5 2.5 4.7 6.6c2.4 4.6 9.8 9.3 15.3 11.9a51 51 0 0 1 19.6 18.1c3.5 7.3-2.9 24.8-3 25a1 1 0 0 1 2 .4c0-.6.6-14.9-2-25-2.7-10.3-17.7-16.1-18.4-16.4a1 1 0 0 0-1.3 1.3s2.5 7.3 2.5 10.3 1.4 14.5 5.6 21.1q6.3 9.8 2.9 16.2c-1.2 2.2-7.4 5-16.6 7.7h.5q-2.4-.6-4-3 .5.8-.3 1.4c5-3.5 13.2-10.5 13.7-17.5.6-9-2.5-18.9-2.6-19.3a1 1 0 0 0-1.9-.1c0 .1-7.6 16.1-10.1 20a40 40 0 0 0-3.6 12.7q.2-1 1-.9c-2.4-.2-7.2-.7-11.6-1.8-4-1-7.9-13.5-9.3-21.1a1 1 0 0 1-2 .4c0 .2 1.1 4.6 5.4 7.3 4.2 2.6 6.8 1.6 7 1.5a1 1 0 0 0 .4-1.6s-5-5.7-8-10.2a60 60 0 0 1-8-23.2c-.2-6.5-7.4-22.6-17.3-22.6-9 0-14.6 4-15.7 11.4-.7 4.3.8 8.3 3.6 10q3 1.7 6-.4 2.2-1.5 2.2-3.6c0-2.8-3-5.1-3.4-5.4a1 1 0 0 1 .2 1.5c2.8-3 6.3-3.5 9.3-1.5s5 6.5 2.8 11.8q-.9 2.2 0 4.2c1.3 3.1 5.4 4.7 5.5 4.7l-.5-.5c1.9 4.6-.1 20.9-1 26.8a1 1 0 0 0 1.7.7l7-9.8a1 1 0 0 1-1.9-.5c.1 1 2.8 24 11.8 36.2l2.9 3.3c2 5.5 6.7 15.2 15.9 17.5 12.6 3.3 32.6-2 33.5-2.3a1 1 0 0 0-.3-2 49 49 0 0 1-17.8-2.4l-5.4-3.2q-4-2.7-7.4-3.7a26 26 0 0 1-7.7-5.2q-3.6-2.9-5.6-4a1 1 0 0 0-.8 2l10.9 4.4-.3-.2a31 31 0 0 0 20.5 6.9 41 41 0 0 0 29.2-11.8 1 1 0 0 0-.7-1.7c-1 0-24 .2-32.5 1.3a42 42 0 0 1-13.4-.6q.4.4.2 1a1 1 0 0 1-1 .6c.2 0 4.4 0 6.4-.5q1-.2 2.4-1.2-.2.3-.5.3zm-2.3-1c-1.9.5-6 .5-6 .5a1 1 0 0 0-.7 1.7l.6.3c2.9.7 8.6 1.7 14.6 1 8.3-1.1 32-1.3 32.2-1.3a1 1 0 0 1-.7-1.7 40 40 0 0 1-27.8 11.2 29 29 0 0 1-19.5-6.6l-10.8-4.4q.8.4.6 1.3a1 1 0 0 1-1.3.5c1 .4 3 2 5 3.7 3 2.4 6.2 5 8.5 5.5q3 .9 6.9 3.5l5.4 3.3c5.7 3 18.3 2.6 18.8 2.6a1 1 0 0 1-.3-2c-.2.1-20.3 5.5-32.4 2.4-8.3-2.1-12.7-11.1-14.5-16.3l-.3-.4-3-3.4c-8.5-11.7-11.3-35-11.3-35.2a1 1 0 0 0-1.8-.5l-7 9.9a1 1 0 0 1 1.9.7c.1-.9 3.5-21.8 1-27.9l-.7-.5s-3.4-1.4-4.4-3.7q-.4-1.2 0-2.7c2.7-6 .2-11.7-3.5-14.2-3-2-7.7-2.5-11.9 1.8a1 1 0 0 0 .2 1.5c.7.5 2.5 2.3 2.5 3.8q0 1-1.3 2-2 1.4-3.8.3c-1.8-1-3.3-4-2.8-8q1.7-9.6 13.8-9.7c8.3 0 15 14.7 15.3 20.7.3 6.8 4.9 19.1 8.3 24.2 3.2 4.7 8.2 10.4 8.2 10.4a1 1 0 0 1 .4-1.5s-2 .7-5.3-1.4a11 11 0 0 1-4.5-6.2 1 1 0 0 0-1.9.5c.4 2.2 4.3 21.2 10.8 22.7a91 91 0 0 0 12 2q.9 0 1-1a36 36 0 0 1 3.4-11.7c2.5-4.1 10-19.7 10.2-20.4a1 1 0 0 1-1.8-.1c0 .1 3.1 10 2.5 18.6-.5 6.4-9.1 13.3-12.8 16a1 1 0 0 0-.3 1.3q2.1 3 5.2 3.8h.5c7.1-2 16-5.1 17.8-8.7q4-7.4-2.9-18.2a48 48 0 0 1-5.2-20c0-3.3-2.6-10.6-2.7-11a1 1 0 0 1-1.3 1.3c.2 0 14.7 5.7 17.1 15 2.6 9.8 2 24.2 2 24.4a1 1 0 0 0 2 .4c.2-.8 6.6-18.5 2.8-26.6a52 52 0 0 0-20.5-19c-5.7-2.7-12.4-7.2-14.4-11-2.4-4.4-5-7-5-7.1a1 1 0 0 1-.7 1.7c.2 0 17.7-2 23.8 3.7 6.4 5.8 10 14.5 10 14.5a1 1 0 0 0 2-.5c0-.5-1.6-12.5-9.8-18.4-6-4.2-12.4-4.7-18.1-5.1q-3.6-.2-6.6-.8c-5.4-1-11.6-5.6-14.9-8l-2.3-1.6c-2-1.1-6.5-4.2-6.5-4.2a1 1 0 0 1-.7 1.8c.3 0 7.6 1.1 12 .8a40 40 0 0 1 14.4 1 1 1 0 0 0 1-1.7 21 21 0 0 0-9.2-4.4c-4.4-.3-14.3-1.7-17.5-2.6a85 85 0 0 1-11.6-4.7c-.7-.4-5.7-4.5-10-8.2a1 1 0 0 1-.2 1.6s3-1.8 10.5-.7a42 42 0 0 1 17.3 5.8c3.3 2.4 7.6 3.3 7.8 3.3a1 1 0 0 0 .9-1.7c-.3-.3-8-7.3-13.4-9.9-3.5-1.6-9.8-1.8-15.4-2-3.4-.1-6.7-.2-8.6-.6-5-1.1-11-4.8-12-6s-4.5-7-4.5-7a1 1 0 0 1-.6 1.5c.1 0 7.7-2.1 14 1.9a65 65 0 0 0 13.8 6.4l4.3-.3a1 1 0 0 0 .4-1.9c-.1 0-8.5-3.7-11.8-6.2-3.8-2.8-12.7-5-17.5-5q-2.3 0-4.3.4c-3.2.4-6.3.9-10.4-1.2-6-3-10.2-10.1-10.2-10.2a1 1 0 0 1-.8 1.5l16-.6a9 9 0 0 1 3.7 1.3 1 1 0 0 0 1.1-1.6s-5.6-4.3-8.4-7.6c-2.9-3.5-6.4-10.7-4.7-15a1 1 0 0 1-1.7.2c1 1.3 5.8 7.5 8.9 8.1 3.1.7 10.9 3.3 17.6 9s9.1 10.7 9.1 10.8l.3.3a1 1 0 0 0 1.6-1.1c-.2-.4-3.9-9.1-7.1-12.1a44 44 0 0 1-6.3-13.3 1 1 0 0 1-1.8.9c0 .1 2.5 3.6 6.3 5.7 9.3 5 15 10.5 16.1 15.4q.7 3 1 5.2c.9 4.7 1.4 7.8 4.3 9.7l9.7 6.8a1 1 0 0 0 1.5-1.2c0-.1-4.5-8.8-5.7-13.3-1.1-4.7-2.6-10.6-5.7-13.3a31 31 0 0 1-4.1-4.4 1 1 0 0 1-1.4 1.4c.1 0 6.5 4 10.4 8.6q2.4 2.9 6.4 6c4.2 3.5 9 7.5 9.7 10.8q.5 3.5.1 7c-.1 3-.3 6 1.2 8.2 2.3 3.5 15.7 13 16.2 13.4a1 1 0 0 0 1.6-1c0-.2-1-3.5-3.8-6l-1.1-1a32 32 0 0 1-8.3-9.1c-.9-2.6.7-9.8 1.4-12.3a1 1 0 0 1-1.8.1c0 .2 2 4.7 4 7.6q1.2 1.4 4.7 3.5c4.7 2.9 11.1 6.9 12 13 .9 5.2.9 7.5.8 9 0 1.2 0 2 .4 3.4 1 3 9.2 10 10 10.8a1 1 0 0 0 1.5-1.5s-6-6.6-6-12.2q0-3 .2-5.3c.2-2.8.4-4.9-.7-6.6-1-1.6-.5-4.7-.2-5.8a1 1 0 0 1-1.8.1c.7 1.6 3.2 6.8 5.5 7.5h.2q10.8 3 12.8 16c1 7.5.8 13.4.6 17.7-.2 3.9-.3 6.7.6 8.6 1.7 3.7 2.7 4.6 3 4.7a1 1 0 0 0 1.4-1.1s-1-3.3-.5-7.3l.3-4.8c.2-4.5.4-10 2.2-13.5a34 34 0 0 0 2.7-13 1 1 0 0 1-2 .4c.1.2 8 18.8 7.4 28.4-.5 9-4.4 17.3-6.5 21.7l-.6 1.1c-2 4.5-1 12.6-1 12.9a1 1 0 0 0 2 0c0-.1 1.2-8.4 4.1-11.8a42 42 0 0 0 5.7-12.7 1 1 0 0 1-2 0c0 .1 4 21 1.2 28.3-1.7 4.6-4.2 6.3-6.3 7.9a10 10 0 0 0-3.4 3.1c-1.8 3.5-1 7-.9 7a1 1 0 0 0 2 0s.8-3.9 4-5.6l6.9-3.7a1 1 0 0 1-1.4-1.3c0 .1-4 10.8-8 16.4a26 26 0 0 1-16.4 9.6 176 176 0 0 1-20.8 1.3z" id="path3711" fill="#5087c6"/></g><g id="g3713"><g id="g3715"><path d="M350.3 131s6.9 1.8 11.5 7a1 1 0 1 0 1.4-1.4 27 27 0 0 0-12.5-7.5 1 1 0 0 0-1.2.8q-.1.8.8 1.2z" id="path3717" fill="#5087c6"/></g><g id="g3719"><path d="M378.8 150q1.4.5 2.4 2.2l1.2 1.5q2.2 2.4 5.3 3.4a1 1 0 1 0 .6-2 10 10 0 0 1-5.5-4c-.8-1.2-1.8-2.6-3.4-3a1 1 0 0 0-.6 2" id="path3721" fill="#5087c6"/></g><g id="g3723"><path d="M409.2 176.7c1.9 3 5.3 6.8 8.3 8.3a1 1 0 0 0 1-1.7 25 25 0 0 1-7.7-7.7 1 1 0 1 0-1.7 1" id="path3725" fill="#5087c6"/></g><g id="g3727"><path d="m429.4 194.9 1 2c1.6 2.6 3 5 2.4 8a1 1 0 0 0 2 .4c.6-3.8-1-6.7-2.6-9.5l-1-1.9a1 1 0 1 0-1.9 1z" id="path3729" fill="#5087c6"/></g><g id="g3731"><path d="M437.4 225.2a21 21 0 0 1 3.4 12.6c0 1 .2 3.2-.2 3.6a1 1 0 0 0 1.1 1.7c1.4-1 1.2-3.3 1.1-5.4v-1.3a23 23 0 0 0-3.6-12 1 1 0 1 0-1.8.8" id="path3733" fill="#5087c6"/></g><g id="g3735"><path d="M437.8 261.4a17 17 0 0 1-10.3 3 1 1 0 0 1 .9 1.4c.8-2 4.4-6 6.2-7.3a1 1 0 0 0-1.1-1.7 28 28 0 0 0-7 8.1 1 1 0 0 0 1 1.5c4.5.2 7.4-1 11.3-3.3q.7-.6.4-1.4a1 1 0 0 0-1.4-.3" id="path3737" fill="#5087c6"/></g></g></g></g><g id="g3739"><g id="g3741"><g id="g3743"><path d="M189.7 386.8h-17v-7.4h17zm4-7.4a4 4 0 0 0-4-4h-17a4 4 0 0 0-4 4v7.4a4 4 0 0 0 4 4h17a4 4 0 0 0 4-4z" id="path3745" fill="#ed1a3a"/></g></g><g id="g3747"><g id="g3749"><path d="M225.7 386.8h-17v-7.4h17zm4-7.4a4 4 0 0 0-4-4h-17a4 4 0 0 0-4 4v7.4a4 4 0 0 0 4 4h17a4 4 0 0 0 4-4z" id="path3751" fill="#ed1a3a"/></g></g><g id="g3753"><g id="g3755"><path d="M189 385h20a2 2 0 0 0 0-4h-20a2 2 0 0 0 0 4" id="path3757" fill="#ed1a3a"/></g></g><g id="g3759"><g id="g3761"><path d="M261.7 386.8h-17v-7.4h17zm4-7.4a4 4 0 0 0-4-4h-17a4 4 0 0 0-4 4v7.4a4 4 0 0 0 4 4h17a4 4 0 0 0 4-4z" id="path3763" fill="#ed1a3a"/></g></g><g id="g3765"><g id="g3767"><path d="M225 385h20a2 2 0 0 0 0-4h-20a2 2 0 0 0 0 4" id="path3769" fill="#ed1a3a"/></g></g><g id="g3771"><g id="g3773"><path d="M297.7 386.8h-17v-7.4h17zm4-7.4a4 4 0 0 0-4-4h-17a4 4 0 0 0-4 4v7.4a4 4 0 0 0 4 4h17a4 4 0 0 0 4-4z" id="path3775" fill="#ed1a3a"/></g></g><g id="g3777"><g id="g3779"><path d="M261 385h20a2 2 0 0 0 0-4h-20a2 2 0 0 0 0 4" id="path3781" fill="#ed1a3a"/></g></g><g id="g3783"><g id="g3785"><path d="M333.7 386.8h-17v-7.4h17zm4-7.4a4 4 0 0 0-4-4h-17a4 4 0 0 0-4 4v7.4a4 4 0 0 0 4 4h17a4 4 0 0 0 4-4z" id="path3787" fill="#ed1a3a"/></g></g><g id="g3789"><g id="g3791"><path d="M297 385h20a2 2 0 0 0 0-4h-20a2 2 0 0 0 0 4" id="path3793" fill="#ed1a3a"/></g></g></g><g id="g3795"><g id="g3797"><g id="g3799"><g id="g3801"><g id="g3803"><path d="M95.8 386.8H78.7v-7.4h17zm4-7.4a4 4 0 0 0-4.1-4h-17a4 4 0 0 0-4 4v7.4a4 4 0 0 0 4 4h17a4 4 0 0 0 4-4z" id="path3805" fill="#ed1a3a"/></g></g><g id="g3807"><g id="g3809"><path d="M132.3 386.8h-17.1v-7.4h17zm4-7.4a4 4 0 0 0-4.1-4h-17a4 4 0 0 0-4 4v7.4a4 4 0 0 0 4 4h17a4 4 0 0 0 4-4z" id="path3811" fill="#ed1a3a"/></g></g><g id="g3813"><g id="g3815"><path d="M95.5 385h20a2 2 0 0 0 0-4h-20a2 2 0 0 0 0 4" id="path3817" fill="#ed1a3a"/></g></g></g><g id="g3819"><path d="M79 381H66l1.4 4H79a2 2 0 0 0 0-4" id="path3821" fill="#ed1a3a"/></g></g><g id="g3823"><g id="g3825"><g id="g3827"><g id="g3829"><path d="M410.6 379.4h17v7.4h-17zm-4 7.4a4 4 0 0 0 4 4h17a4 4 0 0 0 4-4v-7.4a4 4 0 0 0-4-4h-17a4 4 0 0 0-4 4z" id="path3831" fill="#ed1a3a"/></g></g><g id="g3833"><g id="g3835"><path d="M374 379.4h17.1v7.4h-17zm-4 7.4a4 4 0 0 0 4.1 4h17a4 4 0 0 0 4-4v-7.4a4 4 0 0 0-4-4h-17a4 4 0 0 0-4 4z" id="path3837" fill="#ed1a3a"/></g></g><g id="g3839"><g id="g3841"><path d="M410.9 385h-20a2 2 0 0 1 0-4h20a2 2 0 0 1 0 4" id="path3843" fill="#ed1a3a"/></g></g></g><g id="g3845"><path d="M427.4 381h12.9l-1.3 4h-11.6a2 2 0 1 1 0-4" id="path3847" fill="#ed1a3a"/></g></g></g><g id="g3849"><g id="g3851"><g id="g3853"><g id="g3855"><path d="M150.3 472.8a25 25 0 0 0-8-7.7 35 35 0 0 0-13.5-.5c-1-2.3-3.3-7.5-6.8-9.9-3.1-2-7.5-1.3-10.1-.6 0-2.1-.4-5.4-2-8.4-2-3.6-6.6-4.4-9.4-4.6.6-2 1.1-4.8.4-7.7-1-3.6-5.2-5.6-7.9-6.4 1.4-2.1 3-5.7 1.7-8.8a16 16 0 0 0-6.4-6.4c1.5-1.7 3.7-4.8 3.6-8-.3-4.3-4.9-6.5-6.8-7.3v-.2l-.1-.4h-3v.5c0 1.7 1.8 41.1 27.3 61 22.7 17.7 41.3 18.6 43.6 18.7v-3zm-65-72.9c1.6.8 3.5 2.1 3.6 4a9 9 0 0 1-2.2 5.2q-1-5.8-1.3-9.1m5.6 24.8q-1.6-5-2.8-9.4c1.5 1 3.2 2.5 3.8 4 .7 1.6 0 3.7-1 5.4m7 14.8a77 77 0 0 1-4.8-9.3c2 .8 4.4 2.1 4.9 4q.6 2.9-.2 5.3m3 4.6c2.2.2 5.1 1 6.3 3q1.5 3.1 1.6 6-4.4-4.2-8-9m12.6 12.7c2.2-.6 5-.8 6.9.4 2.2 1.5 4 4.9 5 7.1q-5.6-3-11.9-7.5m18 10.5c3.4-.2 7.7-.3 9.5.5 1.6.7 3.4 2.6 4.9 4.3q-5.6-1-14.3-4.8" id="path3857" fill="#5087c6"/></g><g id="g3859"><path d="m141.4 397.8 23.8 25.1s-12.3 2.1-19.9-5.2c-7-6.9-3.9-19.9-3.9-19.9" id="path3861" fill="#5087c6"/></g><g id="g3863"><path d="m135.6 406.3-18.4 7.4q1 3.6 2.6 7.7l16.5-10.7zm2 8.5L123 427.7q1.8 2.8 4.1 5.2l13-13q-1.6-2.2-2.7-5.1m-5.3 22.6q4.4 3 9 4.7L147 425q-1.9-1-3.8-2.4zm33.1-9.7s-2 .5-5 .5l1.2 17.6c5 .2 8.4-.2 8.4-.2zM148 444.1q3.7.9 7 1.2l1.5-17.4q-2.7-.3-5.8-1.3zm-12.6-45.8-20.1 1.8s0 2.7.6 6.8l19.5-4.5z" id="path3865" fill="#5087c6"/></g></g><g id="g3867"><path d="m174.5 457.3-2.8 6.5q2.8-2.5 6.7-5.1zm-.9 10c2.3.4 5.8 1 9.4 1.3l-.8-6.6zm30-17.3a14 14 0 0 0-15.2-6.3q-4 .7-7 3.7c3.5 1 9 3 11.4 5q6.5-1.8 10.8-2.4m1.6 6-.4-2q-4.2.5-9.5 1.9c1.6 3.6 1.9 8.3 1.6 10v.3c5.2-2.6 9-6.8 8.3-10.2m-17.7-2 1-.3a65 65 0 0 0-9.1-4.1 37 37 0 0 0-3.8 5.5l6.1 1.5q2.8-1.6 5.8-2.6m.1 5-2.7 1.4c.3 1.8.5 3.7.5 4.7v3.6a24 24 0 0 0 7.8-1c.1-2.6.3-7.7-1.2-10.7q-2.3.8-4.4 2" id="path3869" fill="#5087c6"/></g></g><g id="g3871"><g id="g3873"><g id="g3875"><path d="M353.4 473v3c2.3 0 20.9-1 43.5-18.6 25.5-19.9 27.3-59.3 27.4-61v-.5h-3v.6c-2 .8-6.6 3-6.8 7.2-.2 3.3 2 6.4 3.5 8.1-2 1.3-5.2 3.5-6.4 6.4-1.2 3.1.4 6.7 1.7 8.8-2.7.8-6.9 2.8-7.8 6.4-.8 2.9-.2 5.8.4 7.7-2.8.2-7.4 1-9.4 4.6-1.6 3-2 6.3-2 8.4-2.7-.7-7-1.5-10.2.6a23 23 0 0 0-6.7 9.9 35 35 0 0 0-13.5.5 25 25 0 0 0-8 7.7zm66.2-64c-1.1-1.4-2.2-3.3-2.1-5.1 0-1.9 2-3.2 3.5-4q-.4 3.5-1.4 9.1m-5.2 10.3c.7-1.5 2.3-3 3.8-4q-1 4.5-2.8 9.4c-.9-1.7-1.6-3.8-1-5.4m-6 14.8c.4-1.8 2.8-3.1 4.9-4a77 77 0 0 1-4.8 9.4q-.7-2.4-.1-5.4m-11 19c.2-1.7.6-4 1.7-6s4.1-2.8 6.4-3q-3.5 4.8-8 9M381 464.2c1-2.2 2.8-5.6 5-7 1.9-1.3 4.7-1 6.9-.5q-6.2 4.5-11.9 7.5m-20.5 7.8c1.5-1.7 3.3-3.6 4.9-4.3 1.9-.8 6.1-.7 9.5-.5q-8.8 3.8-14.4 4.8" id="path3877" fill="#5087c6"/></g><g id="g3879"><path d="M364.9 397.8 341 423s12.4 2.1 20-5.2c7-6.9 3.8-19.9 3.8-19.9" id="path3881" fill="#5087c6"/></g><g id="g3883"><path d="m370 410.7 16.5 10.7q1.7-4 2.7-7.7l-18.5-7.4zm-4 9.2 13.1 13q2.4-2.4 4.1-5.2l-14.4-13a17 17 0 0 1-2.8 5.2m-2.8 2.7q-1.9 1.4-3.7 2.4l5.5 17.1q4.7-1.8 9-4.7zm-26.9 23s3.4.4 8.5.2l1.2-17.6c-3 0-5-.5-5-.5zm19.4-19q-3 1-5.8 1.3l1.5 17.4q3.5-.3 7-1.2zm15.3-24.2 19.6 4.5c.5-4 .6-6.8.6-6.8l-20.1-1.8z" id="path3885" fill="#5087c6"/></g></g><g id="g3887"><path d="M328 458.7q3.8 2.6 6.6 5-1-2.6-2.8-6.5zm-4 3.3-.6 6.6c3.5-.3 7-.9 9.3-1.4zm-10.5-9.6c2.5-2 7.9-4 11.4-5q-3-3-7-3.7c-9.6-1.7-14 4.2-15.2 6.3q4.3.6 10.8 2.4m-4 13.8v-.3c-.4-1.7 0-6.4 1.5-10q-5.3-1.4-9.5-2 0 1-.4 2c-.6 3.5 3 7.7 8.4 10.3m15.1-9.6 6-1.5q-1.5-2.9-3.6-5.5a70 70 0 0 0-9.1 4.1l1 .3q2.8 1 5.7 2.6m-10.3.4c-1.5 3-1.3 8.2-1.1 10.7l1.1.4q3 .7 6.6.6v-3.6c0-1 .3-3 .5-4.7l-2.7-1.5-4.4-2" id="path3889" fill="#5087c6"/></g></g></g><g id="g3891"><g id="g3893"><path d="M253 476s-6.6-9.8-5.7-12.6 4.8-1 4.8-1l1 5 1.2-5s4-1.7 4.8 1-5.7 12.6-5.7 12.6z" id="path3895" fill="#ed1a3a"/></g><g id="g3897"><path d="M248.1 456.8s-4.3-4-4.6-8.8a35 35 0 0 0-6.2-16.1c-2.4-2.2-6-4-6-4s3 5 1.7 7.8.9 12.5 4.7 16.2c3.7 3.8 7.8 5.2 10.4 4.9" id="path3899" fill="#ed1a3a"/></g><g id="g3901"><path d="M236.8 455.7s-2.4-.2-6.4-5.3c-3.9-5.1-3.2-11.1-10.4-12.9-7.2-1.7-12.9-.5-12.9-.5s10.3 2.8 11.9 8.6 6.3 10.5 9.4 11c3 .5 8.4-.9 8.4-.9" id="path3903" fill="#ed1a3a"/></g><g id="g3905"><path d="M241 461.4s-9.9 7.2-14.2 8.2-7.7-.5-12.3 1q-7 2.2-7 2c0-.2 9.7-11.9 14.2-14s17.7 1.6 19.4 2.8" id="path3907" fill="#ed1a3a"/></g><g id="g3909"><path d="m243.3 462.2 2.6.2s-.9 3.3-.4 4.6c.5 1.4 1.2 1.8 1.2 1.8s-4 .8-5.3 1.5c-1.4.7-2.9 2.7-2.9 2.7s-.3-3-1.2-3.9l-1.7-1.5s7.2-4.3 7.7-5.4" id="path3911" fill="#ed1a3a"/></g><g id="g3913"><path d="M223.6 430.3s4.1 4.8 5.3 5.9l2 1.7s0 4.1 1.4 7.7 5.5 8 5.5 8-5.8-1.8-9.4-9.9l-2.2-5-3.8-2.9s2-3 1.2-5.5" id="path3915" fill="#ed1a3a"/></g><g id="g3917"><path d="M206.8 440.5s9.6 1.8 10.6 4.6 2.6 8 5.2 9.8l2.5 1.7s-5.5-1.4-7.2-3.6-4.6-7.7-6.1-9z" id="path3919" fill="#ed1a3a"/></g><g id="g3921"><path d="M242.5 436.3s1.3-3.2 1.3-4.6-.5-3-.5-3 4.3 4 4.5 5.8l.1 2.4-3 6.5s-1.2-5.4-2.4-7z" id="path3923" fill="#ed1a3a"/></g><g id="g3925"><path d="M253.8 458s7.2-2.8 6.7-10-7-17.5-7-17.5h-.6s-6.5 10.3-7 17.5 6.7 10 6.7 10z" id="path3927" fill="#ed1a3a"/></g><g id="g3929"><path d="M258.2 456.8s4.3-4 4.7-8.8c.3-4.8 3.7-13.9 6.1-16.1s6-4 6-4-3 5-1.7 7.8-.8 12.5-4.6 16.2c-3.8 3.8-7.9 5.2-10.5 4.9" id="path3931" fill="#ed1a3a"/></g><g id="g3933"><path d="M269.5 455.7s2.4-.2 6.4-5.3 3.2-11.1 10.4-12.9c7.2-1.7 13-.5 13-.5s-10.4 2.8-12 8.6-6.3 10.5-9.4 11c-3 .5-8.4-.9-8.4-.9" id="path3935" fill="#ed1a3a"/></g><g id="g3937"><path d="M265.3 461.4s9.9 7.2 14.2 8.2 7.7-.5 12.3 1q7 2.2 7 2c0-.2-9.7-11.9-14.2-14s-17.6 1.6-19.3 2.8" id="path3939" fill="#ed1a3a"/></g><g id="g3941"><path d="m263 462.2-2.5.2s.8 3.3.3 4.6c-.5 1.4-1.2 1.8-1.2 1.8s4 .8 5.3 1.5c1.4.7 3 2.7 3 2.7s.3-3 1.1-3.9l1.7-1.5s-7.2-4.3-7.7-5.4" id="path3943" fill="#ed1a3a"/></g><g id="g3945"><path d="M282.8 430.3s-4.2 4.8-5.4 5.9l-2 1.7s0 4.1-1.4 7.7-5.5 8-5.5 8 5.8-1.8 9.4-9.9l2.3-5 3.8-2.9s-2.1-3-1.2-5.5" id="path3947" fill="#ed1a3a"/></g><g id="g3949"><path d="M299.6 440.5s-9.7 1.8-10.7 4.6-2.6 8-5.1 9.8l-2.6 1.7s5.5-1.4 7.2-3.6 4.6-7.7 6.2-9z" id="path3951" fill="#ed1a3a"/></g><g id="g3953"><path d="M263.9 436.3s-1.4-3.2-1.4-4.6.5-3 .5-3-4.3 4-4.4 5.8l-.2 2.4 3 6.5s1.3-5.4 2.5-7z" id="path3955" fill="#ed1a3a"/></g></g><g id="g3957"><path d="M255.1 426.5c46.4 0 61.5 15 61.5 15s19-12.1 37.6-30.2c18.5-18 25.3-37 25.3-37h-34.1s-11.2 18-21 26.3-14.1 10.7-14.1 10.7-18.6-12.2-53.2-12.2h-7.8c-34.7 0-53.2 12.2-53.2 12.2s-4.4-2.4-14.2-10.7-21-26.3-21-26.3h-34.1s6.8 19 25.4 37 37.5 30.3 37.5 30.3 15.2-15.1 61.5-15.1z" id="path3959" fill="#ffffff"/><path d="M255.1 427.5c45.4 0 60.6 14.6 60.8 14.8q.5.5 1.2.1c.2-.1 19.4-12.4 37.8-30.3 18.5-18 25.5-37.3 25.6-37.5a1 1 0 0 0-1-1.3h-34.1a1 1 0 0 0-.9.4c0 .2-11.2 18-20.7 26.1s-14 10.6-14 10.7a1 1 0 0 1 1 0c-.8-.5-19.2-12.4-53.7-12.4h-7.8c-34.6 0-53 11.9-53.8 12.4a1 1 0 0 1 1 0s-4.4-2.6-14-10.7c-9.4-8-20.6-25.9-20.7-26a1 1 0 0 0-.8-.5h-34.2a1 1 0 0 0-1 1.3c.1.2 7.2 19.4 25.7 37.5a267 267 0 0 0 37.7 30.3q.7.4 1.3-.1c.1-.2 15.4-14.8 60.7-14.8zm-3.9-2c-46.2 0-61.5 14.7-62.2 15.4a1 1 0 0 1 1.3-.2c-.2 0-19.2-12.3-37.4-30a110 110 0 0 1-25.2-36.8 1 1 0 0 1-.9 1.4h34.1a1 1 0 0 1-.8-.5c.5.7 11.4 18.3 21.2 26.6 9.7 8.2 14.1 10.7 14.3 10.8q.5.3 1 0c.2-.1 18.8-12 52.7-12h7.8c33.9 0 52.4 11.9 52.6 12q.5.3 1 0c.2 0 4.6-2.6 14.3-10.8s20.8-25.9 21.2-26.6a1 1 0 0 1-.8.5h34.1a1 1 0 0 1-1-1.4c0 .2-6.9 19-25 36.7a270 270 0 0 1-37.4 30.1 1 1 0 0 1 1.2.2c-.6-.7-16-15.4-62.2-15.4z" id="path3961" fill="#5087c6"/></g><g id="g3963"><path d="M99.2 479.6 3.2 184l-.6 1.6L254 3.1h-1.7l251.4 182.6-.6-1.6-96 295.5 1.4-1H97.8zm310.8 1L506 185l.3-1-.8-.7L254 .6l-.8-.6-1 .6L1 183.3l-1 .6.4 1 96 295.6.4 1h313z" id="path3965" fill="#0054a6"/></g><g id="g3967"><g id="g3969"><path d="m145 395 11.4-11.5 4.5 4.5q1.5 1.3 1.3 3 0 1.6-1.3 2.7-.7.7-1.5 1-1.2.5-2.3.1.4 1.1.4 2 0 1.4-1.3 2.7-1.5 1.4-3.3 1.5-2 0-3.6-1.6l-4.4-4.3zm6.7-4-4 4.1 2.9 3q1 1 2.1 1a3 3 0 0 0 2.1-1q1-1.1.8-2.4-.2-1-1.2-2zm4.8-4.8-3.6 3.6 2.5 2.5q1 1 2 1 1 .3 2-.8.8-.9.7-1.8 0-1-1.1-2z" id="path3971" fill="#231f20"/></g><g id="g3973"><path d="m164.2 407.5-4.1-4-4.4 2.3-1.5-1.5 15.4-7.7 1.5 1.5-7.8 15.2-1.5-1.5zm-2.3-5 3.1 3 3.6-6.5z" id="path3975" fill="#231f20"/></g><g id="g3977"><path d="m178.1 405-10 10.3 5 5-1.3 1.5-6.5-6.5 11.5-11.6z" id="path3979" fill="#231f20"/></g><g id="g3981"><path d="m187 413.8-11.6 11.6-1.3-1.4 11.4-11.5z" id="path3983" fill="#231f20"/></g></g><g id="g3985"><g id="g3987"><path d="m321.7 424.8 1.3-1.3.8.8q1 1 1.9 1 .8.2 1.5-.6 1-.9.7-1.8 0-.9-1-1.8l-8.4-8.6 1.4-1.4 8.3 8.6q1.8 1.8 1.7 3.6a4 4 0 0 1-1.3 2.7q-1.5 1.5-3.4 1.2-1.4-.2-2.4-1.3z" id="path3989" fill="#231f20"/></g><g id="g3991"><path d="m336.5 411-4 4 2.1 4.5-1.4 1.4-7.5-15.4 1.6-1.6 15 8.1-1.4 1.5zm-5 2.2 3.2-3-6.5-3.7z" id="path3993" fill="#231f20"/></g><g id="g3995"><path d="m344.2 401.1 4.5 4.7-1.3 1.4-4.6-4.7-10.7-3.2 1.6-1.6 8.4 2.7-2.4-8.4 1.6-1.6z" id="path3997" fill="#231f20"/></g><g id="g3999"><path d="m357 391.2-4 4 2.2 4.4-1.4 1.4-7.5-15.5 1.6-1.5 15 8.1-1.5 1.5zm-5 2.1 3.2-3-6.5-3.7z" id="path4001" fill="#231f20"/></g></g><g id="g4003"><g id="g4005"><path d="m213.4 425.5-3-16 5.6-1q2.8-.6 4.8 1.2 2 1.9 2.7 5.4.6 3.1-.2 5.7-1 3-4.3 3.6zm-.8-14.5 2.4 12.3 3.7-.7q1.8-.4 2.6-2.2t.2-4.8-2-4.3-3.4-1z" id="path4007" fill="#231f20"/></g><g id="g4009"><path d="m236 422.1-2 .2-4.8-16 2.1-.2 3.5 13 2.4-13.4 2.2-.1 4 13 1.9-13.4 2.1-.1-2.7 16.5-2 .1-4.2-13.3z" id="path4011" fill="#231f20"/></g><g id="g4013"><path d="m256.8 405.3-.3 16.3h-2l.3-16.3z" id="path4015" fill="#231f20"/></g><g id="g4017"><path d="m266.5 415-.6 7-2-.2 1.3-16.3 6.5.5a4 4 0 0 1 3 1.6q1 1.3.9 3.3a5 5 0 0 1-1.2 3.2q-1.3 1.5-3.5 1.3zm.5-7.4-.4 5.6 3.8.3q1.5.1 2.2-.5.9-.6 1-2.2 0-1.5-.7-2.2a3 3 0 0 0-2-.7z" id="path4019" fill="#231f20"/></g><g id="g4021"><path d="m289.7 420.1-5.7-1-2.2 4.4-2-.3 8.1-15.1 2.2.3 2.3 17-2.1-.4zm-4.7-2.8 4.3.8-.8-7.4z" id="path4023" fill="#231f20"/></g></g><g id="g4025"><g id="g4027"><g id="g4029"><path d="M279 243.6c-2.2-3.7-7.4-2.6-8.6-2l-.7.2q.6-2.6.6-5.6s-1.5.8-3.2 2.6a5 5 0 0 0-3.2-2.9c-2.2-.6-6.6-.5-6.6-.5s.2-.3-.6-1.5c-.7-1-3-1.5-3-1.5h-1.2s-2.4.5-3 1.5c-.9 1.2-.7 1.5-.7 1.5s-4.3 0-6.5.5c-1.7.5-2.7 2-3.1 2.7-1.6-1.6-3-2.4-3-2.4q0 3 .6 5.6l-1-.2c-1-.6-6.2-1.7-8.4 2s-3.2 11.3 1.6 13.6 7.3-.8 7.3-2.3-.2-6.1-2.8-6c-2.6.3-2.4 1.2-2.2 2.3s1.2 1.3 1.2 1.3-3.3-.4-1.8-3.3c1.5-3 5.8-1.1 6.7.5s0 6 1 7.6c1.2 1.7 5 2 5.7 3s.3 6.1 2.4 6.1l5 1.7h3l5.4-1.7c2 0 1.6-5.2 2.4-6 .7-1 4.4-1.4 5.5-3 1.2-1.7.2-6 1.2-7.7.9-1.6 5.1-3.5 6.6-.5s-1.8 3.3-1.8 3.3 1-.2 1.3-1.3c.2-1.1.4-2-2.2-2.2s-2.8 4.4-2.8 6c0 1.4 2.4 4.4 7.2 2.2s4-9.9 1.7-13.6" id="path4031" fill="#f2c008"/><path d="M279.8 243c-2.5-4.2-8.4-3-9.8-2.3h-.5a1 1 0 0 1 1.2 1.3q.6-3 .6-5.8a1 1 0 0 0-1.4-1c-.1.1-1.8 1-3.5 2.9a1 1 0 0 1 1.6.2c-.4-.8-1.6-2.8-3.8-3.4-2.4-.6-6.7-.5-6.9-.5a1 1 0 0 1 .9 1.5q.4-.8-.6-2.5c-1-1.4-3.3-2-3.7-2h-1.6c-.5 0-2.8.6-3.7 2q-1.1 1.6-.6 2.5a1 1 0 0 1 .9-1.5c-.2 0-4.6 0-6.9.5-2 .6-3.2 2.2-3.7 3.2a1 1 0 0 1 1.6-.3c-1.7-1.7-3.3-2.5-3.3-2.5a1 1 0 0 0-1.5.9q0 2.8.7 5.8a1 1 0 0 1 1.1-1.2l-.6-.1c-1.4-.8-7.2-2-9.8 2.4a15 15 0 0 0-1.5 10.7q1 3 3.6 4.3c3.4 1.5 5.6.7 6.7 0q1.9-1.3 2-3.2c0-2-.3-4.8-1.8-6.2q-.8-.8-2-.7-2.2 0-3 1-.6 1.3-.2 2.3c.2 1.5 1.4 2 2 2.2a1 1 0 0 1 .4-2q-.8 0-1.3-.6-.2-.7.2-1.3.5-1 1.6-1c1.4 0 3 1 3.3 1.6s.4 2 .4 3.1c0 1.7 0 3.5.8 4.6.8 1.2 2.5 1.8 4 2.3l1.6.7.3 1.7c.3 2 .7 4.8 2.9 4.8h-.3l5 1.7h3.7l5.3-1.7h-.3c2.1 0 2.5-2.8 2.8-4.8.1-.6.2-1.5.4-1.7l1.6-.7c1.5-.5 3.1-1 4-2.3.7-1.1.7-2.9.8-4.6 0-1.2 0-2.5.3-3 .4-.8 1.9-1.7 3.3-1.7q1.2 0 1.6 1 .4.7.2 1.3c-.2.4-1 .6-1.2.6a1 1 0 0 1 .2 2c.7-.1 2-.7 2.2-2.1 0-.8.2-1.6-.3-2.3q-.8-1-2.9-1.1-1.2 0-2.1.7c-1.4 1.4-1.7 4.1-1.7 6.2q.1 1.9 2 3.2c1 .7 3.2 1.5 6.6 0q2.7-1.3 3.6-4.3c1.1-3.6.1-8-1.5-10.7zm-3 13.3q-2.8 1.3-4.6.1-1.2-.9-1.1-1.5 0-3.6 1-4.7.3-.2.7-.2 1.6.2 1.4.3l-.1.7q-.2.6-.5.5a1 1 0 0 0-.8 1.2c0 .5.6.9 1 .8.3 0 2.1-.3 2.9-1.7.3-.6.6-1.6-.2-3q-1-2.2-3.4-2.2a6 6 0 0 0-5 2.6q-.8 1.6-.6 4.1c0 1.3 0 2.9-.5 3.5s-1.8 1.2-3 1.6q-1.7.5-2.5 1.3-.6.7-.7 2.6c-.4 2.6-.7 3.1-1 3.1h-.2l-5.3 1.8h.3-3 .3l-5.1-1.7h-.3c-.2 0-.5-.6-1-3.2q0-1.8-.7-2.6t-2.5-1.3c-1.1-.4-2.5-1-3-1.6s-.4-2.2-.4-3.5q.2-2.4-.6-4c-.8-1.4-3-2.7-5.1-2.7q-2.3 0-3.4 2.1-.8 2.2-.2 3.1c.8 1.4 2.6 1.7 2.8 1.7a1 1 0 0 0 .3-2q-.2.1-.5-.4v-.8s.2-.2 1.4-.3l.6.2q1 1 1 4.7.1.6-1 1.5-1.9 1.2-4.8-.2-1.8-.8-2.5-3c-1-3 0-6.9 1.3-9 2-3.3 6.7-2 7.3-1.7l1.1.3a1 1 0 0 0 1.2-1.2q-.6-2.7-.7-5.5a1 1 0 0 1-1.5 1s1.4.7 2.9 2.2a1 1 0 0 0 1.5-.2c.3-.6 1.2-1.9 2.5-2.2 2-.6 6.3-.5 6.3-.5a1 1 0 0 0 1-1.5v.4l.5-.8c.3-.5 1.6-1 2.4-1.1h-.2 1.2-.2c.8.1 2.1.6 2.4 1l.5 1v-.5a1 1 0 0 0 1 1.5s4.2 0 6.3.5c1.4.4 2.3 1.9 2.5 2.3a1 1 0 0 0 1.6.3c1.6-1.6 3-2.5 3-2.5a1 1 0 0 1-1.4-.9q-.1 2.8-.7 5.5a1 1 0 0 0 1.2 1.2l1-.3c.6-.3 5.3-1.6 7.2 1.6 1.3 2.2 2.2 6.1 1.3 9a5 5 0 0 1-2.6 3.2" id="path4033" fill="#5087c6"/></g><g id="g4035"><g id="g4037"><ellipse cx="246.17999" cy="247.21001" ry="2.9449999" rx="3.1500001" id="ellipse4039" fill="#f2c008"/><path d="M250.3 247.2q0-1.6-1.2-2.8a4 4 0 0 0-3-1.1 4 4 0 0 0-4 4 4 4 0 0 0 4 3.9q1.8 0 3-1.2t1.2-2.8m-4.1 2c-1.2 0-2.2-1-2.2-2s1-2 2.2-2q.9 0 1.5.7.6.5.6 1.3t-.6 1.4-1.5.6" id="path4041" fill="#5087c6"/></g><g id="g4043"><path d="M241.8 241.7s1.6-2 4.2-1c2.7 1 5.2 2.8 4.7 4.2-.5 1.3-2.1.9-4.5 0-2.3-1-5-.7-5-.7s-.3-1.7.6-2.6" id="path4045" fill="#f2c008"/><path d="M242.6 242.3c0-.2 1.2-1.4 3.1-.7 2.1.8 3.6 2 4 2.7v.4c-.6.2-2.5-.5-3.1-.8-2.6-1-5.4-.7-5.5-.7q.9 0 1 .8c0-.5 0-1.3.4-1.6zm-1.3 2.9s2.5-.2 4.6.6q3 1.3 4.5.7.8-.2 1.2-1.3.3-.6-.1-1.7c-.8-1.7-3.2-3-5.1-3.8a5 5 0 0 0-5.3 1.2c-1.2 1.2-1 3.2-1 3.4q.3.8 1.2.8z" id="path4047" fill="#5087c6"/></g><g id="g4049"><ellipse cx="260.14999" cy="247.21001" ry="2.9449999" rx="3.1500001" id="ellipse4051" fill="#f2c008"/><path d="M258 247.2c0-1 1-2 2.2-2q.8 0 1.5.7.6.5.6 1.3t-.6 1.4-1.5.6q-2-.2-2.2-2m2.2 4q1.5 0 2.9-1.2a4 4 0 0 0 0-5.6 4 4 0 0 0-3-1.1 4 4 0 0 0-4.1 4 4 4 0 0 0 4.2 3.8z" id="path4053" fill="#5087c6"/></g><g id="g4055"><path d="M256 252.6v1c0 .5 2.2 0 2.5-1 .4-1-1-2.8-2.4-2.8s-.5-1.6-.1-3.1c.3-1.6-1.5-2-1.5-2h-2.6s-1.9.4-1.5 2c.3 1.5 1 3.1-.2 3.1-1.3 0-2.8 1.7-2.4 2.8s2.6 1.5 2.6 1v-1s.8 1.2 2.8 1.2 2.7-1.2 2.7-1.2" id="path4057" fill="#f2c008"/><path d="M255 252.6v1q0 .8 1 1.2c1 .2 3-.5 3.5-1.9q.3-1.1-.5-2.4c-.6-.8-1.6-1.7-2.9-1.7l.3.3.3-1.3.2-.9q.2-1-.3-1.9a3 3 0 0 0-2.1-1.2h-2.8c-.2 0-1.4.3-2 1.2q-.6.8-.3 2l.2.8q.4.9.3 1.3l.3-.3c-1.2 0-2.3 1-2.9 1.7q-.8 1.3-.5 2.4c.5 1.4 2.6 2 3.5 1.9q1-.3 1-1.2v-1a1 1 0 0 1-1.7.6c0 .1 1.2 1.6 3.6 1.6s3.5-1.5 3.6-1.7a1 1 0 0 1-1.9-.5zm-1.8.2c-1.4 0-2-.8-2-.8a1 1 0 0 0-1.1-.4 1 1 0 0 0-.7 1v1q.2-.8.6-.8c-.3 0-1.2-.3-1.3-.6l.4-.7q.5-.7 1-.7 1.3 0 1.5-.6c.6-.8.3-1.8 0-3l-.3-.7v-.4q.4-.3.7-.3h-.1 2.6-.2q.3 0 .7.3v.4l-.2.8q-.8 1.6 0 2.9.2.5 1.3.6.5 0 1.2.7.4.6.3.8c-.1.2-1 .6-1.3.5q.4 0 .6.8v-1a1 1 0 0 0-1.8-.5s-.5.6-1.9.6z" id="path4059" fill="#5087c6"/></g><g id="g4061"><path d="M264.5 241.7s-1.5-2-4.2-1-5.1 2.8-4.6 4.2c.5 1.3 2 .9 4.4 0s5-.7 5-.7.3-1.7-.6-2.6" id="path4063" fill="#f2c008"/><path d="M265.3 241a5 5 0 0 0-5.4-1.3c-1.8.7-4.3 2.1-5 3.8q-.5 1-.2 1.7.5 1.1 1.2 1.3 1.4.6 4.6-.7c2-.8 4.5-.6 4.6-.6q.9 0 1-.9c0-.2.3-2.2-.9-3.4zm0 2.2c-.2 0-3-.3-5.6.7-.6.3-2.5 1-3 .8l-.1-.2v-.2a8 8 0 0 1 4-2.7 3 3 0 0 1 3.3.8c.3.3.3 1.1.3 1.6q.1-.9 1-.8z" id="path4065" fill="#5087c6"/></g></g><g id="g4067"><ellipse cx="253.25999" cy="239.03" ry="3.2379999" rx="2.296" id="ellipse4069" fill="#f2c008"/><path d="M254.6 239q-.2 2.1-1.3 2.3c-1.1.2-1.3-1-1.3-2.3s.7-2.2 1.3-2.2 1.3 1 1.3 2.2m-1.3-4.2c-1.9 0-3.3 1.9-3.3 4.2s1.4 4.3 3.3 4.3 3.3-1.9 3.3-4.3c0-2.3-1.5-4.2-3.3-4.2" id="path4071" fill="#5087c6"/></g></g><g id="g4073"><path d="M264.3 251.6c-3.1.8-3.9 4.6-3.9 4.6l-.3 1-.5.2c-.6-1.4-2.2-.4-2.2.4v.3h-.5q-.2-.4-.7-.5h-.7q-.6.1-.8.8h-.1q-.3-.6-.8-.7h-1.2q-.5 0-.7.7h-.3q-.1-.7-.8-.8h-.7q-.4 0-.7.5l-.5-.1v-.2c0-.8-1.4-1.7-2-.6l-.8-.4-.2-.6s-.7-3.8-3.9-4.6c-3.1-.7-4 3.9-4 3.9s3-4.1 4.2 0l1.7 4.8s.9 0 1.6-.6l.8.6c-.7 3.3-4 7-4 7s2.3 0 4.7-2q1.5-1.6 1.8-3.9l.5.2q.2.8.8.9h.7q.4 0 .7-.4h.3q.1 1 .8 1.1h1.2q.7-.1.8-1h.3q.2.3.6.3h.7q.6 0 .8-.8l.6-.2q.3 2.3 1.7 3.7c2.4 2 4.6 2 4.6 2s-3.1-3.5-3.9-6.8l1-.6c.6.5 1.5.5 1.5.5l1.6-4.8c1.3-4.1 4.3 0 4.3 0s-.9-4.7-4-4z" id="path4075" fill="#f2c008"/><path d="M264 250.7c-3.7.9-4.5 5.2-4.6 5.4v-.2l-.2 1q0-.4.4-.6l-.4.2a1 1 0 0 1 1.3.5q-1-1.6-2.3-1.3c-1 .2-1.8 1.2-1.8 2v.3q.1-.7.8-.9l-.4.1q.7 0 1 .6-.5-1.1-1.6-1.2h-.7q-1.3.1-1.8 1.6.2-.6 1-.8h-.2q.8 0 1 .7-.5-1.3-1.7-1.4h-1.2q-1.1.1-1.7 1.4a1 1 0 0 1 1-.7h-.2q.7 0 .9.8-.4-1.6-1.8-1.6h-.7q-1 0-1.6 1a1 1 0 0 1 1.1-.5h-.5q.8.1.8.8v-.2q-.1-1.4-1.7-2a2 2 0 0 0-2.2 1 1 1 0 0 1 1.3-.4l-.6-.3q.3.2.3.5l-.1-.4c0-.2-1-4.5-4.6-5.4q-1.6-.4-2.8.4c-1.9 1.2-2.5 3.9-2.6 4.2a1 1 0 0 0 1.8.8c.6-.8 1.5-1.5 1.9-1.4q.1-.1.6 1c1.3 4.1 1.7 5 1.8 5q.3.8 1 .6s1.2 0 2.1-.8a1 1 0 0 1-1.2 0l.9.6a1 1 0 0 1-.5-1c-.6 3-3.6 6.5-3.7 6.5h.1a1 1 0 0 0 .7 1.7s2.6 0 5.3-2.3q1.5-1.4 2-4.4a1 1 0 0 1-1.3.8l.6.2a1 1 0 0 1-.7-.8q.4 1.6 1.8 1.7h.7q.9 0 1.5-.9a1 1 0 0 1-1 .5h.4a1 1 0 0 1-.9-.9c0 1.1.9 2 1.8 2h1.2q1.6-.1 1.8-2 0 .8-.9 1h.3a1 1 0 0 1-1-.5q.7.8 1.5.8h.7q1.3 0 1.8-1.5-.2.5-.7.7l.6-.2a1 1 0 0 1-1.3-.8q.5 3 2 4.3a9 9 0 0 0 5.3 2.3 1 1 0 0 0 .8-1.7s-3-3.4-3.7-6.4q.1.6-.5 1l1-.6a1 1 0 0 1-1.2 0c1 .6 2 .7 2 .7a1 1 0 0 0 1-.5c0-.1.5-1 1.8-5q.3-1.2.7-1.1c.4-.1 1.3.6 1.8 1.4a1 1 0 0 0 1.8-.8c0-.3-.7-3-2.5-4.2q-1.3-.7-2.8-.4zm5.2 4.2c-.3-.4-2-2.5-3.8-2.2q-1.6.2-2.2 2.5l-1.7 4.7a1 1 0 0 1 1-.6l-1-.3a1 1 0 0 0-1.2 0l-.8.6a1 1 0 0 0-.5 1 20 20 0 0 0 4.2 7.3 1 1 0 0 1 .7-1.6s-1.9 0-4-1.8q-1-1-1.3-3.1a1 1 0 0 0-1.4-.8l-.5.1a1 1 0 0 0-.7.8h.2-.7.2a1 1 0 0 0-1-.4h-.1q-.9.1-1 1v.2h.2-1.2.3l-.1-.2a1 1 0 0 0-.9-1h-.3a1 1 0 0 0-1 .5l.2-.1h-.7.2a1 1 0 0 0-.7-.8l-.5-.2a1 1 0 0 0-1.3.8q-.4 2.3-1.4 3.2a7 7 0 0 1-4 1.8q.6 0 .9.5t-.2 1.1c.2-.1 3.4-3.9 4.2-7.4q.1-.6-.4-1l-.8-.6a1 1 0 0 0-1.2 0q-.8.4-1.1.4.7 0 1 .6l-1.6-4.7q-.8-2.3-2.3-2.5c-1.9-.3-3.5 1.8-3.8 2.2a1 1 0 0 1 1.8.8 6 6 0 0 1 1.6-3q.6-.3 1.3-.1c2.5.6 3.1 3.8 3.1 3.8v.2l.2.4q0 .3.4.6l.9.5q.7.4 1.3-.4l.2.2v-.1.3q0 .7.8.9h.5a1 1 0 0 0 1.1-.4h-.2.7-.2q.3.8 1 .8h.2a1 1 0 0 0 1-.7h-.2 1.2-.2q.2.7 1 .7h.2q.7 0 .9-.7v-.2l-.2.1h.7-.2q.4.6 1 .6l.6-.1q.8-.2.8-1v-.2l.2-.2v.1a1 1 0 0 0 1.4.5q.4 0 .7-.3.4-.2.4-.6l.3-1s.7-3.2 3.1-3.8q.8-.1 1.3.2c1 .6 1.5 2.3 1.6 2.9q0-.9.6-1.1.8-.4 1.2.3" id="path4077" fill="#5087c6"/></g></g></g></g><!-- app4joy --></svg>