<svg id="svg2" height="1050" width="1500" y="0.00000000" x="0.00000000" viewBox="0 0 1500 1050" xmlns="http://www.w3.org/2000/svg"><g transform="scale(1 1.05)" id="layer1" stroke="none"><path id="rect3635" d="M0 0h1500v1000H0z" fill="#ffffff" fill-opacity="1" stroke="none"/></g><g id="g4825" transform="matrix(1.47637 0 0 1.5092 503.3 214.2)"><g id="g4827"><path id="path4829" d="m168 417.3.8-.2s47.5-21.3 80.5-39.7 85.7-52 85.7-52V.7H1v324.7s52.7 33.5 85.7 52c33 18.4 80.5 39.7 80.5 39.7z" fill="#034ea2"/><g id="g4831"><path id="path4833" d="M167.8 405.4v-5.6c.4-.2 44.2-20 74.4-37s76.6-47 78.3-48l5 2.7c-1.7 1.1-50.5 32.5-80.9 49.7a1147 1147 0 0 1-74.9 37.3z" fill="#ffffff"/></g><g id="g4835"><path id="path4837" d="m167.8 405.4-1-.7-.5-.2a1166 1166 0 0 1-75-37.3 1860 1860 0 0 1-80.6-49.8l4.9-2.7c1.5 1.1 48 31 78.2 48.1a1132 1132 0 0 0 74 37v5z" fill="#7da7d9"/></g><g id="g4839"><path id="polygon4841" d="M15.6 14.1v300.6l-2.1 1.2-2.9 1.5V9.1h314.8v5z" fill="#001c54"/></g><g id="g4843"><path id="polygon4845" d="m325.4 317.5-5-2.7V14.1l5-5z" fill="#002e6e"/></g></g><g id="g4847"><path id="path4849" d="M243 185.4a75 75 0 1 0-150 0 75 75 0 0 0 150 0" fill="#a2dadb"/></g><g id="g4851"><circle id="circle4853" r="58.803001" cy="177.131" cx="160.53799" fill="#a2dadb"/><circle id="circle4855" r="56.577999" cy="176.26601" cx="159.252" fill="#a7dcdc"/><circle id="circle4857" r="54.353001" cy="175.39999" cx="157.966" fill="#abddde"/><circle id="circle4859" r="52.127998" cy="174.535" cx="156.67999" fill="#afdfdf"/><circle id="circle4861" r="49.903" cy="173.66901" cx="155.39301" fill="#b3e0e0"/><circle id="circle4863" r="47.678001" cy="172.804" cx="154.10699" fill="#b7e2e2"/><circle id="circle4865" r="45.452999" cy="171.938" cx="152.821" fill="#bbe3e3"/><circle id="circle4867" r="43.228001" cy="171.073" cx="151.535" fill="#bfe5e5"/><circle id="circle4869" r="41.001999" cy="170.20799" cx="150.24899" fill="#c3e6e6"/><circle id="circle4871" r="38.778" cy="169.342" cx="148.963" fill="#c7e8e8"/><circle id="circle4873" r="36.551998" cy="168.47701" cx="147.67599" fill="#cbeae9"/><circle id="circle4875" r="34.327999" cy="167.61099" cx="146.39" fill="#d0ebeb"/><circle id="circle4877" r="32.102001" cy="166.746" cx="145.104" fill="#d4edec"/><circle id="circle4879" r="29.877001" cy="165.88" cx="143.817" fill="#d8eeee"/><circle id="circle4881" r="27.652" cy="165.015" cx="142.53101" fill="#dcf0ef"/><circle id="circle4883" r="25.427" cy="164.149" cx="141.245" fill="#e0f2f1"/><circle id="circle4885" r="23.202" cy="163.284" cx="139.959" fill="#e4f3f3"/><circle id="circle4887" r="20.976999" cy="162.418" cx="138.673" fill="#e8f5f4"/><circle id="circle4889" r="18.752001" cy="161.55299" cx="137.386" fill="#ecf7f6"/><circle id="circle4891" r="16.527" cy="160.688" cx="136.10001" fill="#f0f8f8"/><circle id="circle4893" r="14.302" cy="159.82201" cx="134.814" fill="#f4fafa"/><circle id="circle4895" r="12.077" cy="158.957" cx="133.528" fill="#f9fcfc"/><circle id="circle4897" r="9.8520002" cy="158.091" cx="132.242" fill="#ffffff"/></g><g id="g4899"><path id="path4901" d="M168 261.5a76.1 76.1 0 1 1 .2-152.3 76.1 76.1 0 0 1-.2 152.3m0-150.1a74.1 74.1 0 1 0 .2 148.2 74.1 74.1 0 0 0-.2-148.2"/></g><g id="g4903" fill="#0db14b"><path id="path4905" d="M176.7 210.8s-.9-.2-1.4-.5c-.6-.2-1.7-1.2-1.7-1.2l-1.1-.4c-.4-.1-1.6-.3-2-1.8-.4-1.4.2-2.7.2-2.7l1.9-4.4.1-.3.8-2.4.8-1.6 1-1c.5-.3 1.1-1.4 1.1-1.4l2.8-2.1h1s1.5 0 1.6-.3c0-.3-.9-.5-.9-.5l-1.7-.4-2.2-.3-1.8-.6s-1.9-.3-2.2-.5-3.2-.1-3.2-.1-3-.6-3.7-1.1q-1.3-1-2.4-1.4c-.6-.2-1.1.3-1.5.3s-2-.8-2-.8-2-1-2.9-1.7c-.8-.8-2.3-3.8-2.6-4.1-.2-.4-.5-.3-.9-1.4l-.2-.5-.3-2.2-.3-.6-.4-2.8-.1-.2-.6-.8c-.3-.5 0-.7 0-.9q0-.2-.6-.9l-.2-.8v-1.3c.3-.7-.2-3.1-.2-3.1v-2.5c0-1.4.9-1.3 1-2.2.1-.8-1.3-2-1.3-2l-1-1.8-1-1.4-.7-1.2-.5-.4-.6-.7-.5-1.3q-.2 0-.8-.7t-1-2.4c0-1 1.2-1.1 1.3-1.5s-.8-.8-.8-.8l-1.5-1.3-1-.6s-2.1 0-2.6-.5.4-1 .2-1.8-1.5.3-1.5.3-1 .6-3.1.8c-2.1.1-4-.2-4.3-.4-.4-.2-.5.2-.5.2l.3 1 .3 1.5 1.7 3.1c.5.5 0 1.1 0 1.1l-.4.5.3 2 1.3 1.3.6.8 1 1.2q.3.3-.5.7-.7 0-1-.5l-.2-.2-1.5-.7-1.3-.1c-.5 0-1.4-.5-1.7-.8l-1-.3c-.3 0-.3-.8-.5-1.3q-.5-.5-1.1-.8c-.4-.4 0-.5 0-.5l1.8.1c.7 0 2.4-2.3 2.4-2.8s-1.5-.9-2-1-1.7.1-2.3-.2c-.4-.2-.4-1.1-.4-1.5q-.2-.6-.7-1-.2-.3 0-1c.1-.5-.5-.7-.9-.7-.3 0-1.5 1.5-2.1 2s-1.6-.2-2.4-.1-1.7 1-2 1.3c-.2.2-.8-.2-1.2 0-.5.2-.7 1-.8 1.4q-.3.4-1 .8t-.9 1l.7.7c.5.4-.5.2-.7.2q-.4 0-.5.5l.4.4 1 1 1.3.8.5.1.4.6s.8 0 1 .3c.1.1-.8.5-1 .5l-.5-.7q-.4-.3-.5-.1v1q-.1.4-.5.6l-1.7 2-1.6 1.3-1.7 1.2H110l-1 1c-.3.3-1 0-1.6.2q-.6.2-1 .8-.7.6-1.3.8l.2 5.6 1-.1h1l2.9-.2.6.9.6 1c.2.6 1.2 1.1 1.2 1.1l.1.5h.4l.5-.6h1v-.4h.5l.8.3c.4.2.7-.2.7-.2l1.2-.3q0 .2.8.4c.4.1.8-.5.8-.5l1-1q.7-.2 1.6 0 .5 0 .8-.4.8-.2 1-.1l.1-.6s-.9-.6-1-1.6.7-1.4 1.3-1.6 1.6-.1 1.6-.1l-.8.5s-1.4.2-1.7 1c-.3.7.8 1.5.8 1.5l.2.4-.1.4v.3l.6.4 1.1 1.5h1s.6-.3 1-.3l1 .3h3.1l1.2 1c0 .2.9 1.3.9 1.3l.2 1v2.4l.6 1 1 2q0 .8-.7 1.6-.3.9-.1 1l.7.7v.3s.6 1.2 1 1.6 1.3 0 1.3 0l.8.6s1.8 1.2 2 2q.3.8.2 1.3l-.2 1-.9 1-.4 1-.8 1.2v1l-.1 1q0 .5.5 1.3c.4.6.7 2 .7 2.2l.2 1q0 .4.7.9l1 2 .2.3.7.6.7.2.9.2h2c1.3.2 1.6.4 2.4.8q1 .6 1.5 1.1c.3.3 1 .1 1 .1l1.5.7 1.1.5q1.2 0 3 1c1.2.8 2.2 2.3 2.7 2.5s3.2.1 3.2.1l1 1.5q1.1 1.3 1.8 1.3c.4.2.4 1.3.3 2 0 .8 1 1.5 1.6 1.6.7 0 1.2-.6 1.2-.6l.7-.2.4-.7h.8l.5.3c.2.2 1 0 1 0l.9.2h3.3c.8-.1.5-1.3.5-1.3l-.1-.4-.3-.7v-.4s.6-.2.6-.5z"/><path id="path4907" d="M185 208.4q-.1-.6-.7-.9c-.3-.2-2-.5-2-.5l-.8-.7c-.3-.4-.8-1.1-1-1.1-.3 0-.9.4-.9.4l-.6.5-.4.5-1.5.7-.4.1s-.7.6-.6 1.4q.1 1.2 1 1.5l1.3.5 1.7.8 1.6.6 1.5.1s1 0 1-.4c-.2-.4-.8-1-.5-1.6.2-.6 1.2-1.5 1.2-1.9"/><path id="path4909" d="M176.7 205.1s-.4.6-.3.7c0 0 .3.5.5.3l.4-1-.1-.5h-.3z"/><path id="path4911" d="m189.8 198.2-.4-.1h-.8l-.2-.8s-.7-.2-.8-.1l-.6 1-1.2 1v.9l.8.5h1.3s1.2.6 1.4.5q.4-.3.5-.7t0-.8z"/><path id="path4913" d="M200.4 199.9v.6h-.2l-.6-1-.5.3h-.3l-2.5.7s-1 .5-1 .8q.2.5 0 .6l-.8.2v.9l1.5 1 .4.5.5.2s.2.4.5.3l1.3-.8 1.3-.7.3-1.6.7-1.4v-.6z"/><path id="path4915" d="M195.9 200q.8 0 1.3-.3l1-.2-.2-1h-1.8v.4h.8v.3h-.7l-.9.3q0 .3.5.4"/><path id="path4919" d="m198.6 204.7-.4.6c-.1 0-.7.5-.6.7l.7.5.1.6.4.2 1-1 .1-1.8h-.5z"/><path id="path4921" d="m237 199.5-.4-2-.4-1-.9-1q-.1-.4-.3-.5l-.8-.3-1.7-1.8h-.6c-.2 0-.6.4-.7 0 0-.2.1-1.4-.4-1.6-.4-.1-1.4 0-1.5-.4-.2-.3-.6-1.3-.8-1.3s-.6.4-1.1.1l-1-.5c-.2 0-.9.7-.9 1l.2 1s-.2.5-.3.3l-.6-1.3-.6-.5v-1l-.5-.5h-.5l-1-.1s-.6-.5-1.3-.4c-.7.2-1.4 1-1.4 1s-.4-.9-.8-1c-.3-.2-1.5-.4-1.5-.4l-1-.2v-.3l.3-.2s-.1-.5-.5-.5-1 .8-1 .8l-.7.3-1.6.4h-.5s-.4-.5-1-.5-1 .6-1.2.6l-1-.1c-.3 0-1.4.2-1.2 1.3.2 1 .4 1.4 0 2.8q-.8 2-.9 1.9v.4l.8.3-.3 1-.2 1.6s-.4 1-.8 1.2l-1 .3s-.4 0-.2.4l.4 1.4s-.4 2.3-.6 2.4l-1.1.5-1 1-.1.5 1.9.1.7-.4.3.2-.5 1v1l-.7 1-.2.5-.4.4.2.5s.5 0 .6 1 0 1 .6 2.2q1.2 1.7 1.4 1.5s.8 1.2.4 1.8-2.1.8-2 2.3 2 2 3.1 1 2.6-1.8 3-1.8 1.4.4 1.7.3l.8-.5 2-.8.8-.8.1-.9s.4-.7.3-1c0-.2-1.1-1-1.1-1s-.3-.6.2-.7l1.1-.6.4-.6.7.1.6 1.2.7.7-.5.9 1.2.2s0 .5.2.6l.7.1s0 .6.2.8c.2.1 1 1 1 1.2.1.2-.1 2.1.2 3l.5 1.3s0 1 .4.8c.5-.3.5-1 .5-1s1-1 2.1-.7q1.7.6 2 .3.3-.4.1-.8c0-.1-.9-2 0-2.5s1.2 0 1.8 0l.9-.3s.5.2.7 0c.3-.4.8-1 1-1 0 0 .9-.1.8-.5-.2-.4-1.3 0-1.3-.4 0-.3.8-.5.8-1.1s-.3-1.1.2-1.5q.8-.4.7-1.3c0-.7-.5-1.4-.5-1.4s.5-1.8.9-2.2q.7-.6.9-1.1l.2-1.2c0-.1.6-.9 1-1.2q.9-.4 1-1c.2-.3-.2-2.6-.2-2.8"/><path id="path4923" d="m203 217-.4-.3-.6.4.2 1.8s.2.4.4.3l.3-.6s.5-.3.5-.7-.4-.8-.4-.8"/></g><g id="g4927"><g id="g4929"><path id="path4931" d="M133.7 287.6h-.2c-.2 0-19.3-6.4-39.1-24.7a102 102 0 0 1-26.7-39 .7.7 0 1 1 1.5-.4 99 99 0 0 0 26.2 38.3c19.5 18 38.3 24.3 38.5 24.4a.7.7 0 0 1-.2 1.4"/></g><g id="g4933"><path id="path4935" d="M69.3 211.2s1.9 5.4 1.3 8.5-1.9 4.7-1.9 4.7-2.6-2-2-6.5c.5-4.5 2.6-6.7 2.6-6.7" fill="#ffdd00"/><path id="path4937" d="m68.7 225.2-.4-.2c-.1 0-3-2.3-2.4-7.2a13 13 0 0 1 2.8-7.1q.3-.3.7-.3.4.2.6.5c0 .3 2 5.7 1.4 9-.6 3.1-2 5-2 5q-.3.3-.7.3m.3-12.3q-1 1.5-1.6 5.1a7 7 0 0 0 1.2 5.2q.7-1.1 1.3-3.6c.3-2-.4-5-.9-6.7"/></g><g id="g4939"><path id="path4941" d="M62.1 217.5s2.6.3 4.2 3l2.9 4.8s-2.6 1.3-5.2-1.4c-2.5-2.6-1.9-6.4-1.9-6.4" fill="#ffdd00"/><path id="path4943" d="M67.7 226.4q-1.6.2-4.2-2a9 9 0 0 1-2.1-7q.1-.7.8-.6c.1 0 3 .3 4.7 3.2l3 5a1 1 0 0 1-.4 1s-.8.4-1.8.4m-4.9-8a7 7 0 0 0 1.8 5 4 4 0 0 0 3.4 1.5l-2.4-4.1c-.8-1.5-2-2-2.8-2.4"/></g><g id="g4945"><path id="path4947" d="M76.5 217s.3 3.8-2.1 5.7c-2.5 1.9-5.4 3.2-5.4 3.2s1-3 2.9-6c1.8-3.1 4.6-2.9 4.6-2.9" fill="#ffdd00"/><path id="path4949" d="m69 226.7-.5-.2-.2-.8c0-.1 1-3.1 3-6.2 2-3.6 5.3-3.2 5.3-3.2q.6 0 .7.7c0 .1.2 4.1-2.5 6.3a30 30 0 0 1-5.8 3.4m6.8-8.9c-1 .2-2.3.7-3.3 2.4q-1.4 2.3-2 4.1 1.6-.8 3.4-2.2c1.5-1.2 1.8-3.2 1.9-4.3"/></g><g id="g4951"><path id="path4953" d="M62.6 225.3s2.5.3 4.4 1.8 4.1 3.6 4.1 3.6-2 1.2-4.9.5c-2.8-.8-3.6-5.9-3.6-5.9" fill="#ffdd00"/><path id="path4955" d="m68 232.1-2-.2c-3.3-.9-4-6.2-4.1-6.5l.2-.6q.2-.3.6-.2c.1 0 2.7.3 4.8 1.9s4 3.5 4.1 3.6a1 1 0 0 1-.1 1.2s-1.4.8-3.5.8m-4.4-5.8c.4 1.5 1.3 3.7 2.8 4.1q2 .4 3.3 0l-3.1-2.7q-1.7-1.2-3-1.4"/></g><g id="g4957"><path id="path4959" d="M79.9 224.5s-.4 4.5-2.5 6a15 15 0 0 1-5.3 1.6s0-3.2 3-5.4c2.8-2 4.8-2.2 4.8-2.2" fill="#ffdd00"/><path id="path4961" d="M72.1 232.8a1 1 0 0 1-.7-.7c0-.2 0-3.6 3.4-6 2.7-2 4.9-2.3 5-2.3a.7.7 0 0 1 .8.8c0 .2-.4 4.8-2.8 6.4a14 14 0 0 1-5.7 1.8m6.9-7.3q-1.2.4-3.4 1.8a7 7 0 0 0-2.6 3.9c1-.2 2.7-.6 4-1.4 1.1-.8 1.7-2.9 2-4.3"/></g><g id="g4963"><path id="path4965" d="M83.7 229s.2 5.3-2.2 7.1c-2.3 2-5.8 2.6-5.8 2.6s-.4-3.7 2.9-6.6c2.8-2.5 5.1-3 5.1-3" fill="#ffdd00"/><path id="path4967" d="M75.7 239.4a1 1 0 0 1-.8-.7c0-.1-.4-4 3.2-7.2 3-2.6 5.4-3.1 5.5-3.2l.6.2q.3.2.3.6c0 .2 0 5.5-2.5 7.6a16 16 0 0 1-6.3 2.7m7.2-9.2q-1.3.4-3.8 2.5a8 8 0 0 0-2.7 5c1.2-.3 3.2-1 4.7-2.1 1.3-1.1 1.7-3.8 1.8-5.5"/></g><g id="g4969"><path id="path4971" d="M64.2 233.6s2.2 4.7 5.1 5.4c3 .6 6.4-.4 6.4-.4s-1.3-3.4-5.6-4.6c-3.6-1-5.9-.4-5.9-.4" fill="#ffdd00"/><path id="path4973" d="M71.5 240q-1.3 0-2.3-.3c-3.3-.7-5.6-5.5-5.7-5.8a1 1 0 0 1 .5-1l2-.2q2 0 4.3.6c4.6 1.3 6 5 6 5a1 1 0 0 1-.4 1c-.1 0-2.1.6-4.4.6m-6.1-5.8c.8 1.5 2.4 3.7 4 4q1 .3 2 .2l3.2-.3c-.6-1-2-2.6-4.7-3.3a15 15 0 0 0-4.5-.6"/></g><g id="g4975"><path id="path4977" d="M65.5 242.7s4.2 4 7.3 3.7 6-2.3 6-2.3-2.6-3-7.3-2.8c-4 .1-6 1.4-6 1.4" fill="#ffdd00"/><path id="path4979" d="M72.5 247.2c-3.4 0-7.3-3.8-7.5-4a.7.7 0 0 1 .1-1.1c.1 0 2.2-1.4 6.4-1.6 5-.2 7.8 3 7.9 3.1a.7.7 0 0 1-.1 1.1 15 15 0 0 1-6.8 2.5m-5.6-4.3c1.4 1.2 3.7 2.8 5.6 2.8h.2c2-.2 3.9-1.1 4.9-1.7-1-.8-3.1-2-6-2a15 15 0 0 0-4.7.9"/></g><g id="g4981"><path id="path4983" d="M69.6 248.6s4.2 4 7.3 3.7 6-2.3 6-2.3-2.6-3-7.3-2.8c-4 .1-6 1.4-6 1.4" fill="#ffdd00"/><path id="path4985" d="M76.6 253c-3.4 0-7.3-3.7-7.5-3.9a.7.7 0 0 1 .1-1.2c.1 0 2.2-1.3 6.4-1.5 5-.2 7.8 3 7.9 3a.7.7 0 0 1-.1 1.2 15 15 0 0 1-6.8 2.5m-5.6-4.2c1.4 1.2 4 3 5.8 2.8 2-.2 3.9-1.1 4.9-1.7-1-.8-3.1-2.1-6-2a15 15 0 0 0-4.7.9"/></g><g id="g4987"><path id="path4989" d="M73.6 256s4.9 3.8 8.2 3c3.3-.6 6.2-3.2 6.2-3.2s-3.2-2.9-8.2-2c-4.3.6-6.2 2.2-6.2 2.2" fill="#ffdd00"/><path id="path4991" d="M81 260c-3.5 0-7.7-3.3-8-3.4a.7.7 0 0 1 0-1.2 15 15 0 0 1 8.5-2.6 11 11 0 0 1 7 2.5 1 1 0 0 1 0 1c-.1.2-3 2.8-6.6 3.5zm-6-4c1.3 1 3.8 2.4 6 2.4h.6c2.2-.5 4.1-1.8 5.2-2.6a10 10 0 0 0-7-1.4q-3.5.7-4.9 1.6"/></g><g id="g4993"><path id="path4995" d="M78.2 262.6s5.4 3 8.6 1.9 5.7-4.2 5.7-4.2-3.6-2.4-8.4-.9a14 14 0 0 0-5.9 3.2" fill="#ffdd00"/><path id="path4997" d="M85.2 265.5a18 18 0 0 1-7.3-2.3 1 1 0 0 1-.2-1.1 15 15 0 0 1 9.6-4c3.3 0 5.5 1.6 5.6 1.6a1 1 0 0 1 .2 1.1c-.1.1-2.7 3.2-6 4.4q-.8.3-2 .3m-5.6-3c1.3.5 3.6 1.5 5.6 1.5q.8 0 1.4-.3c2-.7 3.8-2.3 4.7-3.2a10 10 0 0 0-7-.4 16 16 0 0 0-4.7 2.3"/></g><g id="g4999"><path id="path5001" d="M83.3 268s5.6 3.2 9 2c3.3-1.2 5.9-4.3 5.9-4.3s-3.8-2.5-8.8-1c-4.3 1.4-6.1 3.4-6.1 3.4" fill="#ffdd00"/><path id="path5003" d="M90.5 271c-3.4 0-7.4-2.2-7.6-2.3a1 1 0 0 1-.2-1.2 15 15 0 0 1 10-4c3.5 0 5.8 1.5 5.9 1.6a1 1 0 0 1 .1 1 14 14 0 0 1-6.2 4.6q-1 .3-2 .3m-5.9-3.1c1.4.6 3.8 1.6 5.9 1.6q.8 0 1.5-.2c2.2-.8 4-2.4 5-3.4a10 10 0 0 0-7.4-.4q-3.6 1.3-5 2.4"/></g><g id="g5005"><path id="path5007" d="M89.3 274.2s6 2.5 9 1c3.2-1.7 5.5-5 5.5-5s-4-2.1-8.9 0c-4 1.9-5.6 4-5.6 4" fill="#ffdd00"/><path id="path5009" d="M95.7 276.4c-3.1 0-6.6-1.5-6.7-1.5l-.5-.5q0-.4.2-.7a15 15 0 0 1 10.7-5.2c2.8 0 4.6 1 4.7 1a.7.7 0 0 1 .3 1.1 16 16 0 0 1-5.7 5.2q-1.2.6-3 .6m-5.1-2.5c1.2.4 3.3 1 5.1 1q1.5 0 2.3-.5c2.1-1 3.8-2.8 4.6-3.9a10 10 0 0 0-7.4.4q-3.4 1.6-4.6 3"/></g><g id="g5011"><path id="path5013" d="M95.5 278.5s6 2.5 9.2.9 5.4-5 5.4-5-4-2-8.9.1c-4.1 1.8-5.7 4-5.7 4" fill="#ffdd00"/><path id="path5015" d="M102 280.7c-3.1 0-6.6-1.5-6.8-1.6a1 1 0 0 1-.3-1 15 15 0 0 1 10.8-5.3c2.8 0 4.6 1 4.7 1a1 1 0 0 1 .3 1 17 17 0 0 1-5.7 5.3q-1.2.5-3 .5m-5-2.6c1.2.5 3.2 1 5.1 1q1.5 0 2.3-.4c2-1 3.7-2.9 4.6-4a10 10 0 0 0-7.4.5q-3.6 1.7-4.6 3"/></g><g id="g5017"><path id="path5019" d="M102 283.8s6.3 1.8 9.2-.2c3-2 4.7-5.5 4.7-5.5s-4.2-1.6-8.7 1.1a15 15 0 0 0-5.2 4.6" fill="#ffdd00"/><path id="path5021" d="M107.2 285.3c-2.7 0-5.3-.7-5.4-.7a1 1 0 0 1-.4-1.1 15 15 0 0 1 5.4-5 12 12 0 0 1 9.4-1.1 1 1 0 0 1 .4 1c0 .2-2 3.8-5 5.9a8 8 0 0 1-4.4 1m-3.9-2q1.6.5 3.9.5 2.4 0 3.6-.8c1.9-1.3 3.3-3.3 4-4.4a10 10 0 0 0-7.2 1.3 17 17 0 0 0-4.3 3.5"/></g><g id="g5023"><path id="path5025" d="M108.8 288.9s6.4 1 9-1.3c2.8-2.3 4.1-6.1 4.1-6.1s-4.4-1-8.5 2.2c-3.6 2.7-4.6 5.2-4.6 5.2" fill="#ffdd00"/><path id="path5027" d="M112 289.8c-1.8 0-3.3-.2-3.3-.2a1 1 0 0 1-.6-1c0-.1 1.1-2.7 4.8-5.5 2.7-2 5.4-2.5 7.2-2.5l2 .2a1 1 0 0 1 .5 1c0 .1-1.4 4-4.3 6.4q-2 1.6-6.3 1.6m-2-1.6 2 .1q3.8 0 5.4-1.3c1.7-1.5 2.9-3.7 3.4-4.9a10 10 0 0 0-7 2.2q-3 2.5-3.8 4"/></g><g id="g5029"><path id="path5031" d="M115.4 292.3s6.4 1 9-1.2c2.8-2.3 4.1-6.1 4.1-6.1s-4.3-1-8.5 2.1c-3.6 2.8-4.6 5.2-4.6 5.2" fill="#ffdd00"/><path id="path5033" d="M118.6 293.3c-1.8 0-3.2-.2-3.3-.2a1 1 0 0 1-.6-1c0-.2 1.2-2.7 4.8-5.6a12 12 0 0 1 7.2-2.4l2 .1a1 1 0 0 1 .5 1c0 .2-1.4 4-4.2 6.4q-2 1.7-6.4 1.7m-2-1.6 2 .1q3.8 0 5.4-1.3a13 13 0 0 0 3.5-5c-1.5 0-4.3.1-7 2.2q-3 2.5-3.9 4"/></g><g id="g5035"><path id="path5037" d="M87 234.4s.2 5.2-2.1 7c-2.4 2-5.9 2.6-5.9 2.6s-.4-3.6 3-6.6c2.8-2.5 5-3 5-3" fill="#ffdd00"/><path id="path5039" d="M79 244.7a1 1 0 0 1-.7-.6c0-.2-.5-4 3.1-7.2 3-2.6 5.4-3.2 5.5-3.2l.6.1.3.6c0 .2.1 5.6-2.5 7.7a16 16 0 0 1-6.3 2.6m7.3-9.2q-1.4.4-3.9 2.5a8 8 0 0 0-2.6 5c1.1-.3 3.1-1 4.6-2.1 1.3-1 1.8-3.7 1.9-5.4"/></g><g id="g5041"><path id="path5043" d="M88.7 238.3s1.7 5 0 7.4a15 15 0 0 1-4.9 4.2s-1.4-3.4.9-7.2c2-3.2 4-4.4 4-4.4" fill="#ffdd00"/><path id="path5045" d="M83.8 250.6h-.2l-.5-.4c0-.2-1.5-3.8 1-7.9 2-3.3 4.2-4.6 4.2-4.6h.7q.4 0 .4.4c.1.2 1.8 5.3-.1 8-1.8 2.7-5 4.4-5.1 4.4zm4.5-11q-1.2.8-3 3.5a8 8 0 0 0-1 5.6c1-.6 2.7-1.8 3.8-3.4 1-1.4.6-4 .2-5.7"/></g><g id="g5047"><path id="path5049" d="M92.2 242.6s2.2 5 .7 7.8a16 16 0 0 1-4.7 4.8s-1.9-3.3.2-7.5c1.8-3.6 3.8-5 3.8-5" fill="#ffdd00"/><path id="path5051" d="M88.2 256H88l-.4-.4c-.1-.2-2-3.7.2-8.3 1.8-3.7 3.9-5.2 4-5.3a1 1 0 0 1 1 .3c.2.2 2.4 5.4.8 8.5-1.6 2.9-4.8 5-5 5zm3.7-12q-1.2 1-2.8 4a8 8 0 0 0-.5 6c1-.7 2.7-2.2 3.7-4 .8-1.6.2-4.4-.4-6"/></g><g id="g5053"><path id="path5055" d="M96.5 247s2.4 5.1.8 8-5 5-5 5-1.9-3.4.3-7.8c1.8-3.8 4-5.3 4-5.3" fill="#ffdd00"/><path id="path5057" d="m92.4 260.8-.7-.4c0-.1-2-3.9.2-8.6 2-3.9 4.1-5.4 4.2-5.5a1 1 0 0 1 1.1.3c.1.2 2.5 5.6.7 8.8-1.6 3-5 5.2-5.1 5.3zm3.8-12.6q-1.2 1-3 4.3a8 8 0 0 0-.5 6.4 15 15 0 0 0 4-4.2c.9-1.8.2-4.7-.5-6.5"/></g><g id="g5059"><path id="path5061" d="M101.1 251.8s2.8 5 1.5 8c-1.4 3-4.5 5.4-4.5 5.4s-2.2-3.3-.4-7.9c1.5-3.9 3.4-5.5 3.4-5.5" fill="#ffdd00"/><path id="path5063" d="m98.1 266-.6-.4a10 10 0 0 1-.5-8.5c1.5-4 3.5-5.8 3.6-6h.7q.3 0 .5.3c.1.2 3 5.3 1.5 8.7a18 18 0 0 1-4.7 5.7zm2.8-13c-.6.8-1.7 2.3-2.5 4.6a8 8 0 0 0 0 6.4 15 15 0 0 0 3.5-4.5c.8-1.8-.2-4.7-1-6.5"/></g><g id="g5065"><path id="path5067" d="M106.5 256.2s2.8 5 1.5 8c-1.4 3-4.5 5.4-4.5 5.4s-2.2-3.3-.4-7.9c1.5-3.9 3.4-5.5 3.4-5.5" fill="#ffdd00"/><path id="path5069" d="m103.5 270.4-.6-.4a10 10 0 0 1-.5-8.5c1.5-4 3.6-5.8 3.6-6h.7q.3 0 .5.3c.1.2 3 5.3 1.5 8.7a18 18 0 0 1-4.7 5.7zm2.8-13c-.6.9-1.7 2.3-2.5 4.6a8 8 0 0 0 0 6.4 15 15 0 0 0 3.5-4.5c.8-1.8-.2-4.7-1-6.4"/></g><g id="g5071"><path id="path5073" d="M110.4 260.6s3.6 4.5 2.9 7.7a17 17 0 0 1-3.5 6.1s-2.8-2.8-1.8-7.6a15 15 0 0 1 2.4-6.2" fill="#ffdd00"/><path id="path5075" d="M109.8 275.2q-.3 0-.5-.2c-.1-.2-3-3.2-2-8.4.8-4.2 2.5-6.3 2.5-6.4l.6-.3.6.3c.1.2 3.8 4.7 3 8.3a17 17 0 0 1-3.6 6.4q-.1.3-.6.3m.7-13.2q-1 1.3-1.8 4.9c-.6 3 .5 5.3 1.1 6.3.8-1 2.2-3 2.7-5.1s-1-4.6-2-6.1"/></g><g id="g5077"><path id="path5079" d="M116.2 264.2s3.6 4.4 2.8 7.7a17 17 0 0 1-3.4 6.1s-2.8-2.8-1.9-7.7c.8-4 2.5-6 2.5-6" fill="#ffdd00"/><path id="path5081" d="m115.6 278.8-.6-.3s-3-3.2-2-8.3c.8-4.3 2.5-6.4 2.6-6.5l.6-.2q.3 0 .5.3c.2.1 3.9 4.7 3 8.2s-3.5 6.4-3.6 6.5q-.2.3-.5.3m.6-13.3q-1 1.4-1.7 5a9 9 0 0 0 1 6.3c.9-1 2.3-3 2.8-5.1s-1-4.6-2.1-6.2"/></g><g id="g5083"><path id="path5085" d="M122.6 267s3.6 4.4 2.7 7.8c-1 3.4-3.8 6.5-3.8 6.5s-2.8-2.8-1.6-7.9c1-4.2 2.7-6.4 2.7-6.4" fill="#ffdd00"/><path id="path5087" d="m121.5 282-.5-.1c-.2-.2-3.1-3.2-1.9-8.6a17 17 0 0 1 3-6.8l.5-.2q.5 0 .6.2c.2.2 3.9 4.8 2.8 8.5-1 3.5-3.8 6.7-4 6.8q-.1.3-.5.3m1.2-13.7a18 18 0 0 0-2.1 5.3c-.8 3.3.3 5.5 1 6.5.8-1 2.4-3.3 3-5.5.5-2-.9-4.7-2-6.3"/></g><g id="g5089"><path id="path5091" d="M128 270.7s4.2 3.8 3.9 7.2-2.7 7-2.7 7-3.2-2.2-3-7.4c.3-4.4 1.7-6.8 1.7-6.8" fill="#ffdd00"/><path id="path5093" d="m129.2 285.7-.4-.1a9 9 0 0 1-3.3-8.2 17 17 0 0 1 1.8-7 1 1 0 0 1 1.1-.3c.2.2 4.6 4 4.2 7.9-.4 3.6-2.7 7.2-2.8 7.4zm-1-13.7q-.7 1.5-1.2 5.5a8 8 0 0 0 2 6.3c.7-1.2 1.9-3.6 2.1-6 .2-2.2-1.8-4.6-3-5.8"/></g></g><g id="g5095"><g id="g5097"><circle id="circle5099" r="4.3119998" cy="275.71899" cx="211.812" fill="#0db14b"/><path id="path5101" d="M211.8 281a5.3 5.3 0 1 1 0-10.6 5.3 5.3 0 0 1 0 10.6m0-8.6a3.3 3.3 0 1 0 0 6.6 3.3 3.3 0 0 0 0-6.6" fill="#ffffff"/></g><g id="g5103"><circle id="circle5105" r="4.3119998" cy="287.12399" cx="216.319" fill="#ed1c24"/><path id="path5107" d="M216.3 292.4a5.3 5.3 0 1 1 0-10.6 5.3 5.3 0 0 1 0 10.6m0-8.6a3.3 3.3 0 1 0 0 6.6 3.3 3.3 0 0 0 0-6.6" fill="#ffffff"/></g><g id="g5109"><circle id="circle5111" r="4.3119998" cy="283.013" cx="225.467" fill="#ed1c24"/><path id="path5113" d="M225.5 288.3a5.3 5.3 0 1 1 0-10.6 5.3 5.3 0 0 1 0 10.6m0-8.6a3.3 3.3 0 1 0 0 6.6 3.3 3.3 0 0 0 0-6.6" fill="#ffffff"/></g><g id="g5115"><circle id="circle5117" r="4.3119998" cy="277.70901" cx="234.614" fill="#ed1c24"/><path id="path5119" d="M234.6 283a5.3 5.3 0 1 1 0-10.6 5.3 5.3 0 0 1 0 10.6m0-8.6a3.3 3.3 0 1 0 0 6.6 3.3 3.3 0 0 0 0-6.6" fill="#ffffff"/></g><g id="g5121"><circle id="circle5123" r="4.3119998" cy="271.47699" cx="242.438" fill="#ed1c24"/><path id="path5125" d="M242.4 276.8a5.3 5.3 0 1 1 0-10.6 5.3 5.3 0 0 1 0 10.6m0-8.6a3.3 3.3 0 1 0 0 6.6 3.3 3.3 0 0 0 0-6.6" fill="#ffffff"/></g><g id="g5127"><circle id="circle5129" r="4.3119998" cy="264.715" cx="250.79201" fill="#ed1c24"/><path id="path5131" d="M250.8 270a5.3 5.3 0 1 1 0-10.6 5.3 5.3 0 0 1 0 10.6m0-8.6a3.3 3.3 0 1 0 0 6.6 3.3 3.3 0 0 0 0-6.6" fill="#ffffff"/></g><g id="g5133"><circle id="circle5135" r="4.3119998" cy="257.82199" cx="257.022" fill="#ed1c24"/><path id="path5137" d="M257 263.1a5.3 5.3 0 1 1 0-10.6 5.3 5.3 0 0 1 0 10.6m0-8.6a3.3 3.3 0 1 0 0 6.6 3.3 3.3 0 0 0 0-6.6" fill="#ffffff"/></g><g id="g5139"><circle id="circle5141" r="4.3119998" cy="251.724" cx="262.98901" fill="#ed1c24"/><path id="path5143" d="M263 257a5.3 5.3 0 1 1 0-10.6 5.3 5.3 0 0 1 0 10.6m0-8.6a3.3 3.3 0 1 0 0 6.6 3.3 3.3 0 0 0 0-6.6" fill="#ffffff"/></g><g id="g5145"><circle id="circle5147" r="4.3130002" cy="244.036" cx="266.96799" fill="#ed1c24"/><path id="path5149" d="M267 249.3a5.3 5.3 0 1 1 0-10.6 5.3 5.3 0 0 1 0 10.6m0-8.6a3.3 3.3 0 1 0 0 6.7 3.3 3.3 0 0 0 0-6.7" fill="#ffffff"/></g><g id="g5151"><circle id="circle5153" r="4.3119998" cy="236.742" cx="271.20901" fill="#ed1c24"/><path id="path5155" d="M271.2 242a5.3 5.3 0 1 1 0-10.6 5.3 5.3 0 0 1 0 10.7m0-8.6a3.3 3.3 0 1 0 0 6.7 3.3 3.3 0 0 0 0-6.7" fill="#ffffff"/></g><g id="g5157"><circle id="circle5159" r="4.3119998" cy="228.258" cx="275.58301" fill="#ed1c24"/><path id="path5161" d="M275.6 233.6a5.3 5.3 0 1 1 0-10.7 5.3 5.3 0 0 1 0 10.7m0-8.7a3.3 3.3 0 1 0 0 6.7 3.3 3.3 0 0 0 0-6.7" fill="#ffffff"/></g><g id="g5163"><circle id="circle5165" r="4.3119998" cy="219.239" cx="276.776" fill="#ed1c24"/><path id="path5167" d="M276.8 224.6a5.3 5.3 0 1 1 0-10.7 5.3 5.3 0 0 1 0 10.7m0-8.7a3.3 3.3 0 1 0 0 6.7 3.3 3.3 0 0 0 0-6.7" fill="#ffffff"/></g><g id="g5169"><circle id="circle5171" r="4.3119998" cy="271.34601" cx="219.767" fill="#0db14b"/><path id="path5173" d="M219.8 276.7a5.3 5.3 0 1 1 0-10.7 5.3 5.3 0 0 1 0 10.7m0-8.7a3.3 3.3 0 1 0 0 6.7 3.3 3.3 0 0 0 0-6.7" fill="#ffffff"/></g><g id="g5175"><circle id="circle5177" r="4.3119998" cy="266.70401" cx="227.724" fill="#0db14b"/><path id="path5179" d="M227.7 272a5.3 5.3 0 1 1 0-10.6 5.3 5.3 0 0 1 0 10.6m0-8.6a3.3 3.3 0 1 0 0 6.6 3.3 3.3 0 0 0 0-6.6" fill="#ffffff"/></g><g id="g5181"><circle id="circle5183" r="4.3119998" cy="261.00201" cx="234.752" fill="#0db14b"/><path id="path5185" d="M234.8 266.3a5.3 5.3 0 1 1 0-10.6 5.3 5.3 0 0 1 0 10.6m0-8.6a3.3 3.3 0 1 0 0 6.6 3.3 3.3 0 0 0 0-6.6" fill="#ffffff"/></g><g id="g5187"><circle id="circle5189" r="4.3119998" cy="255.036" cx="242.177" fill="#0db14b"/><path id="path5191" d="M242.2 260.3a5.3 5.3 0 1 1 0-10.6 5.3 5.3 0 0 1 0 10.6m0-8.6a3.3 3.3 0 1 0 0 6.7 3.3 3.3 0 0 0 0-6.7" fill="#ffffff"/></g><g id="g5193"><circle id="circle5195" r="4.3119998" cy="248.142" cx="247.612" fill="#0db14b"/><path id="path5197" d="M247.6 253.5a5.3 5.3 0 1 1 0-10.7 5.3 5.3 0 0 1 0 10.7m0-8.7a3.3 3.3 0 1 0 0 6.7 3.3 3.3 0 0 0 0-6.7" fill="#ffffff"/></g><g id="g5199"><circle id="circle5201" r="4.3119998" cy="240.98" cx="252.386" fill="#0db14b"/><path id="path5203" d="M252.4 246.3a5.3 5.3 0 1 1 0-10.6 5.3 5.3 0 0 1 0 10.6m0-8.6a3.3 3.3 0 1 0 0 6.6 3.3 3.3 0 0 0 0-6.6" fill="#ffffff"/></g><g id="g5205"><circle id="circle5207" r="4.3119998" cy="233.821" cx="256.62701" fill="#0db14b"/><path id="path5209" d="M256.6 239.1a5.3 5.3 0 1 1 0-10.6 5.3 5.3 0 0 1 0 10.6m0-8.6a3.3 3.3 0 1 0 0 6.6 3.3 3.3 0 0 0 0-6.6" fill="#ffffff"/></g><g id="g5211"><circle id="circle5213" r="4.3119998" cy="225.864" cx="261.53299" fill="#0db14b"/><path id="path5215" d="M261.5 231.2a5.3 5.3 0 1 1 0-10.7 5.3 5.3 0 0 1 0 10.7m0-8.6a3.3 3.3 0 1 0 0 6.6 3.3 3.3 0 0 0 0-6.6" fill="#ffffff"/></g><g id="g5217"><circle id="circle5219" r="4.3119998" cy="217.24899" cx="263.655" fill="#0db14b"/><path id="path5221" d="M263.7 222.6a5.3 5.3 0 1 1 0-10.7 5.3 5.3 0 0 1 0 10.7m0-8.7a3.3 3.3 0 1 0 0 6.7 3.3 3.3 0 0 0 0-6.7" fill="#ffffff"/></g><g id="g5223"><circle id="circle5225" r="4.3119998" cy="284.33701" cx="208.75999" fill="#f7941e"/><path id="path5227" d="M208.8 289.7a5.3 5.3 0 1 1 0-10.7 5.3 5.3 0 0 1 0 10.6m0-8.7a3.3 3.3 0 1 0 0 6.7 3.3 3.3 0 0 0 0-6.7" fill="#ffffff"/></g><g id="g5229"><circle id="circle5231" r="4.3119998" cy="210.52901" cx="271.276" fill="#f7941e"/><path id="path5233" d="M271.3 215.8a5.3 5.3 0 1 1 0-10.6 5.3 5.3 0 0 1 0 10.6m0-8.6a3.3 3.3 0 1 0 0 6.7 3.3 3.3 0 0 0 0-6.7" fill="#ffffff"/></g><g id="g5235"><circle id="circle5237" r="4.3119998" cy="218.66299" cx="270.38901" fill="#f7941e"/><path id="path5239" d="M270.4 224a5.3 5.3 0 1 1 0-10.7 5.3 5.3 0 0 1 0 10.7m0-8.7a3.3 3.3 0 1 0 0 6.7 3.3 3.3 0 0 0 0-6.7" fill="#ffffff"/></g><g id="g5241"><circle id="circle5243" r="4.3119998" cy="226.883" cx="268.26999" fill="#f7941e"/><path id="path5245" d="M268.3 232.2a5.3 5.3 0 1 1 0-10.6 5.3 5.3 0 0 1 0 10.6m0-8.6a3.3 3.3 0 1 0 0 6.6 3.3 3.3 0 0 0 0-6.6" fill="#ffffff"/></g><g id="g5247"><circle id="circle5249" r="4.3119998" cy="234.347" cx="264.72" fill="#f7941e"/><path id="path5251" d="M264.7 239.7a5.3 5.3 0 1 1 0-10.7 5.3 5.3 0 0 1 0 10.7m0-8.7a3.3 3.3 0 1 0 0 6.7 3.3 3.3 0 0 0 0-6.7" fill="#ffffff"/></g><g id="g5253"><circle id="circle5255" r="4.3119998" cy="242.436" cx="260.741" fill="#f7941e"/><path id="path5257" d="M260.7 247.7a5.3 5.3 0 1 1 0-10.6 5.3 5.3 0 0 1 0 10.6m0-8.6a3.3 3.3 0 1 0 0 6.7 3.3 3.3 0 0 0 0-6.7" fill="#ffffff"/></g><g id="g5259"><circle id="circle5261" r="4.3119998" cy="249.599" cx="255.30299" fill="#f7941e"/><path id="path5263" d="M255.3 255a5.3 5.3 0 1 1 0-10.7 5.3 5.3 0 0 1 0 10.6m0-8.7a3.3 3.3 0 1 0 0 6.6 3.3 3.3 0 0 0 0-6.6" fill="#ffffff"/></g><g id="g5265"><circle id="circle5267" r="4.3119998" cy="256.56" cx="249.272" fill="#f7941e"/><path id="path5269" d="M249.3 261.9a5.3 5.3 0 1 1 0-10.7 5.3 5.3 0 0 1 0 10.7m0-8.7a3.3 3.3 0 1 0 0 6.7 3.3 3.3 0 0 0 0-6.7" fill="#ffffff"/></g><g id="g5271"><circle id="circle5273" r="4.3119998" cy="263.388" cx="242.707" fill="#f7941e"/><path id="path5275" d="M242.7 268.7a5.3 5.3 0 1 1 0-10.6 5.3 5.3 0 0 1 0 10.6m0-8.6a3.3 3.3 0 1 0 0 6.6 3.3 3.3 0 0 0 0-6.6" fill="#ffffff"/></g><g id="g5277"><circle id="circle5279" r="4.3119998" cy="269.75201" cx="235.146" fill="#f7941e"/><path id="path5281" d="M235.1 275a5.3 5.3 0 1 1 0-10.6 5.3 5.3 0 0 1 0 10.7m0-8.6a3.3 3.3 0 1 0 0 6.7 3.3 3.3 0 0 0 0-6.7" fill="#ffffff"/></g><g id="g5283"><circle id="circle5285" r="4.3119998" cy="275.056" cx="227.05701" fill="#f7941e"/><path id="path5287" d="M227 280.4a5.3 5.3 0 1 1 0-10.7 5.3 5.3 0 0 1 0 10.7m0-8.7a3.3 3.3 0 1 0 0 6.7 3.3 3.3 0 0 0 0-6.7" fill="#ffffff"/></g><g id="g5289"><circle id="circle5291" r="4.3119998" cy="280.35901" cx="218.04201" fill="#f7941e"/><path id="path5293" d="M218 285.7a5.3 5.3 0 1 1 0-10.7 5.3 5.3 0 0 1 0 10.7m0-8.7a3.3 3.3 0 1 0 0 6.7 3.3 3.3 0 0 0 0-6.7" fill="#ffffff"/></g></g><g id="g5295"><g id="g5297"><g id="g5299"><path id="polygon5301" d="m60.9 315.9-7.3 11.8 62.9.1v-23.1l-62.9-.1z" fill="#f7941e"/><path id="path5303" d="m117.5 328.8-65.7-.1 8-12.7-8-12.4 65.7.1zm-62-2.1h60v-21h-60l6.6 10.2z" fill="#ffdd00"/></g><g id="g5305"><path id="polygon5307" d="M116.4 316.9H60.9v-2h55.5z" fill="#ffdd00"/></g><g id="g5309"><path id="polygon5311" d="M116.4 311.4H57.6v-2h58.8z" fill="#ffdd00"/></g><g id="g5313"><path id="polygon5315" d="M116.4 323.2h-59v-2h59z" fill="#ffdd00"/></g></g><g id="g5317"><path id="polygon5319" d="M116.5 304.7v23.1L84 334.1V311z" fill="#ca6c18"/><path id="path5321" d="m84.2 335-1.2-1v-23l.8-1 32.6-6.3 1.1 1v23l-.8 1zm.8-23.2v21l30.5-5.9v-21z" fill="#ffdd00"/></g><g id="g5323"><g id="g5325"><g id="g5327"><path id="polygon5329" d="m273.1 315.9 7.3 11.8-62.9.1v-23.1l62.9-.1z" fill="#f7941e"/><path id="path5331" d="M216.5 328.8v-25l65.8-.2-8 12.4 8 12.7zm2-23v21l60.1-.1-6.7-10.8 6.7-10.3z" fill="#ffdd00"/></g><g id="g5333"><path id="polygon5335" d="M273.1 316.9h-55.4v-2h55.4z" fill="#ffdd00"/></g><g id="g5337"><path id="polygon5339" d="M276.4 311.4h-58.7v-2h58.7z" fill="#ffdd00"/></g><g id="g5341"><path id="polygon5343" d="M276.6 323.2h-58.9v-2h58.9z" fill="#ffdd00"/></g></g><g id="g5345"><path id="polygon5347" d="M217.5 304.7v23.1l32.5 6.3V311z" fill="#ca6c18"/><path id="path5349" d="m249.9 335-32.6-6.3-.8-1v-23l1.2-1 32.5 6.3.8 1v23zm-31.4-8 30.5 5.8v-21l-30.5-5.9z" fill="#ffdd00"/></g><g id="g5351"><path id="path5353" d="M166.2 346s23.2.8 47.3-3a188 188 0 0 0 36.6-9v-23s-12.5 5-36.6 9c-24 3.8-47.3 3.1-47.3 3.1h1.7s-23.3.7-47.4-3.1c-24-4-36.5-9-36.5-9v23s12.4 5 36.5 9c24.1 3.8 47.4 3 47.4 3z" fill="#ffffff"/><path id="path5355" d="M170.8 347.1h-7.6c-8.5 0-25.4-.4-42.8-3.2a178 178 0 0 1-36.8-9l-.6-.9v-23l1.3-.9c.2 0 12.7 5 36.4 8.9a280 280 0 0 0 45.5 3.1h4.7c8.4 0 25.2-.3 42.4-3.1 23.7-3.8 36.3-8.8 36.4-8.9l1.4 1v23l-.6.8c-.2 0-12.9 5.1-36.8 9a283 283 0 0 1-42.9 3.2m-3-2h3c8.5 0 25.3-.4 42.5-3.2 20.8-3.3 33-7.5 35.8-8.6v-20.8c-3.9 1.4-16 5.3-35.4 8.4a282 282 0 0 1-50.5 3.3c-8.5 0-25.4-.4-42.8-3.3-19.5-3-31.6-7-35.4-8.4v20.8c2.8 1 15 5.3 35.7 8.6a280 280 0 0 0 45.5 3.2z" fill="#ffdd00"/></g></g></g><g id="g5357"><g id="g5359"><path id="path5361" d="M179.9 302.7c4.5-2.7 6-11.4 6-11.4h9c2-2.1 3-5.8 3-5.8h-63.3s1 3.7 3 5.8h9s1.5 8.7 6 11.4z" fill="#bacad3"/><path id="path5363" d="M179.9 303.7h-27.3l-.5-.2c-4-2.4-5.8-8.9-6.3-11.2h-8.2l-.7-.3a15 15 0 0 1-3.3-6.3 1 1 0 0 1 1-1.2h63.2a1 1 0 0 1 1 1.2c0 .1-1 4-3.2 6.3l-.8.3h-8.1c-.5 2.3-2.3 8.8-6.3 11.2zm-27-2h26.7c3.8-2.6 5.3-10.5 5.3-10.6q.1-.8 1-.8h8.5c1-1.2 1.7-2.8 2-3.8H136c.3 1 1 2.6 2 3.8h8.6q.8 0 1 .8c0 .1 1.4 8 5.3 10.6"/></g><path id="polygon5365" d="M194.3 288.3h-55.6l-.6-1.1h56.7z" fill="#ffffff"/><path id="path5367" d="M149.1 290.7h34.5l-.3.8h-28.6s.8 5.5 2.5 6.5q2.9 1.3 7 1.2h16.5l-1.3 1.5h-25.3s-3-2.3-4-5.5q-1.2-4.6-1-4.5" fill="#6b7b84"/></g><g id="g5369"><path id="path5371" d="m94 329.2 2 .3q0 1 .4 1.8.4.6 1.3.9 1 .2 1.6-.1t.8-1v-.7q-.1-.3-.7-.6l-1.5-1q-1.4-.8-2-1.7-.6-1.1-.3-2.4.2-.8.9-1.5t1.5-.8q1-.1 2 .1 2 .5 2.7 1.7t.3 2.7l-2-.4q0-.9-.2-1.4-.5-.5-1.2-.7-.9-.3-1.5 0-.4.2-.5.6l.1.8q.3.5 1.7 1.2l2 1.4q.5.6.8 1.4.1.8-.1 1.9t-1 1.6a3 3 0 0 1-1.6 1l-2.3-.2q-2-.6-2.7-1.8t-.4-3.1"/><path id="path5373" d="m103.4 335.4 2.2-11.3 7.6 1.5-.4 2-5.5-1.2-.5 2.5 5 1-.3 2-5-1-.7 3 5.7 1.1-.4 2z"/><path id="path5375" d="m113.1 337.3 1.8-11.4 4.3.7q1.7.3 2.4.7t1 1.2.2 1.9q-.3 1.2-1 2-.9.7-2.2.7l1 1.2.8 2 1 2.4-2.5-.4-1.1-2.7-.9-1.8q-.2-.5-.5-.6l-1-.3h-.5l-.7 4.7zm3.1-6.3 1.5.3q1.5.2 2 .1.3 0 .6-.4.2-.2.3-.8l-.1-1-.7-.5-1.5-.3-1.6-.2z"/><path id="path5377" d="m125 327.4 2 .3-.7 6.1-.1 2q0 .6.5 1.2t1.3.5q.8.1 1.4-.2.4-.3.6-1l.3-1.9.8-6.3 2 .3-.6 6-.5 2.8q-.3.9-.8 1.4t-1.3.8-2 .1q-1.5 0-2.3-.6a3 3 0 0 1-1.5-2.5l.1-2.9z"/><path id="path5379" d="m133.9 340 .9-11.5 3.1.3 1.3 8 2.4-7.7 3.1.2-.8 11.5-2-.2.7-9-2.7 8.9-2-.2-1.4-9.2-.7 9z"/><path id="path5381" d="m145.8 340.9.6-11.5 3.3.1 2.5.3q.8.3 1.4 1.2.6 1 .5 2.3 0 1-.4 1.7a3 3 0 0 1-2 1.6H148l-.2 4.4zm2.6-9.5-.2 3.3h2.8l.7-.6.3-.9q0-.6-.3-1t-.8-.6l-1.5-.1z"/><path id="path5383" d="M155.6 329.8h2.1l-.1 6.3v1.9q.2.7.6 1.1.6.5 1.4.5t1.4-.4q.4-.4.5-1l.1-2 .2-6.3h2v6q0 2.2-.3 3-.2.9-.6 1.4-.5.6-1.3 1-.8.3-2 .3-1.5 0-2.2-.5a3 3 0 0 1-1.8-2.3l-.1-2.9z"/><path id="path5385" d="m165.9 341.5-.1-11.5h2l4.3 7.6v-7.7h1.9v11.5h-2l-4.3-7.5.1 7.5z"/><path id="path5387" d="m179.4 337.5 2-.3q.3 1.1.9 1.6t1.5.5 1.5-.6.5-1.1q0-.4-.3-.7t-.7-.4l-1.7-.5q-1.8-.4-2.4-1-1-.9-1.1-2.2-.1-1 .4-1.7.3-.8 1.2-1.2.8-.5 2-.5 2-.1 3 .8t1.1 2.4l-2 .3q-.3-.9-.7-1.3-.4-.3-1.3-.3t-1.4.5q-.3.3-.3.7t.3.7l2 .7q1.5.3 2.3.7t1.2 1q.4.9.5 1.9t-.4 1.9a3 3 0 0 1-1.4 1.3q-.9.5-2.2.5-2 .1-3-.8a5 5 0 0 1-1.5-2.9"/><path id="path5389" d="m189.7 340.7-1-11.4 7.7-.7.2 2-5.6.4.2 2.6 5.2-.4.1 1.9-5.1.4.2 3.1 5.8-.4.1 1.9z"/><path id="path5391" d="m198.1 328.5 4.1-.5 1.9-.1q.6 0 1.1.3a3 3 0 0 1 1.4 2.2q0 .8-.2 1.5-.3.8-1 1.1 1 .3 1.6 1t.7 1.6l-.1 1.5-.8 1.3q-.5.5-1.3.7l-2.5.4-3.5.4zm2.3 1.6.4 2.7 1.3-.2 1.5-.2q.6-.1.8-.5t.2-1-.4-.8q-.2-.3-.8-.3l-1.8.2zm.6 4.6.3 3 2-.2 1.4-.2q.4-.2.7-.6t.1-1q0-.5-.3-.8t-.7-.5h-1.8z"/><path id="path5393" d="m219.3 337-2.2.4-1.3-2.4-4 .7-.5 2.7-2.2.4 2.1-12 2.2-.4zm-4.5-3.8-2-4-.8 4.5z"/><path id="path5395" d="m220.8 336.8-2.4-11.2 2-.4 2 9.2 5.1-1 .4 1.8z"/><path id="path5397" d="m238.8 332.3-2.2.6-1.6-2.3-4 1.2v2.7l-2.2.6.8-12.2 2.1-.6zm-5-3.3-2.4-3.8-.2 4.5z"/><path id="path5399" d="m240.2 331.8-3.8-10.9 2-.7 3.8 10.9z"/></g><g id="g5401" fill="#ffffff"><path id="path5403" d="M47.6 197.8v-4.4l5.4-.1-5.5-4.6v-5.9l5.4 5.2 8.9-5.6v5.5l-5.8 3 2.4 2.3H62v4.4z"/><path id="path5405" d="m47.7 179.9 1.2-11.8 3 .3-.7 7.4 2.2.2.7-6.9 3 .3-.7 6.9 2.8.3.8-7.6 3.2.3-1.2 12z"/><path id="path5407" d="M49.5 164.2 51 157q.5-2.2 1.9-3.3 1.3-.9 3.4-.4t3 2q1 1.5.4 4.1l-.5 2.4 5.2 1.2-1 4.3zm7-3 .2-1q.2-1.3-.1-2-.4-.5-1-.7l-1.2.2q-.6.2-.8 1.6l-.3 1.2z"/><path id="path5409" d="m56.5 139.8 1.5-4.2 8 3q1.2.6 2.1 1.3t1.4 1.9q.6 1 .5 2 0 1.5-.6 3.1l-1 2.1-1.3 1.7a5 5 0 0 1-3.5 1.3q-1.5 0-2.4-.4l-8-3 1.5-4.2 8.2 3q1 .6 2 .1.8-.3 1.2-1.4.5-1 0-2-.3-.8-1.5-1.2z"/><path id="path5411" d="m60.2 131.4 2.2-3.9 9.4 5.5 3.5-6 3 1.8-5.7 9.8z"/><path id="path5413" d="m83 119.2-3.2 4 1.4 2-2.8 3.5-7.8-13.1 3-3.8 14.6 4.7-3 3.7zm-3-1.2-5-2 3 4.5z"/><path id="path5415" d="m85 99.5 3.2-3.1 6 6 1.4 2q.5 1.2.5 2.3a5 5 0 0 1-.4 2.1 9 9 0 0 1-2 2.6q-.6.7-1.7 1.5l-1.8 1a5 5 0 0 1-3.8-.3l-2-1.4-6-6.1 3.1-3.2 6.2 6.3q.8.8 1.7.8t1.8-.8.8-1.7-.8-1.8z"/><path id="path5417" d="m105.2 98.2-4 3 .9 2.3-3.6 2.8L94 91.6l3.9-3 13 8.2-3.7 2.8zm-2.6-2-4.4-3 1.9 5z"/><path id="path5419" d="m104.7 83.8 3.6-2 8.6 4.2-3.9-7 3.6-2 7.1 12.5-3.6 2-8.6-4.1 4 6.8-3.7 2z"/><path id="path5421" d="m130.9 71 8-2.3q2-.6 3.3 0T144 71q.3 1.2-.2 2.3-.3.8-1.2 1.4 1.6 0 2.6.6t1.3 2a4 4 0 0 1-1 3.8q-.3.4-1.4 1l-1.8.7-7.4 2.1zm5.8 4.2 1.9-.6q1-.3 1.3-.7.3-.5 0-1.1 0-.6-.6-.8t-1.4 0l-2 .6zm1.6 5.4 2.2-.6q1-.4 1.4-.9t.2-1.2q-.2-.6-.7-.8-.6-.2-1.7 0l-2.2.7z"/><path id="path5423" d="m157.5 77.1-5 .8-.3 2.4-4.5.7 3.2-15 4.8-.7 7.5 13.3-4.6.7zm-1.3-3-2.4-4.8-.8 5.4z"/><path id="path5425" d="m164 64.3 4.1-.1 5.5 7.9v-8h4.1l.2 14.3h-4.1l-5.6-7.7.2 7.9h-4.2z"/><path id="path5427" d="m188.3 74.7.5-3 6.8 1.2-1 6a14 14 0 0 1-3.8 1.2 12 12 0 0 1-7.6-1.7 6 6 0 0 1-2-3 9 9 0 0 1-.2-4q.4-2.4 1.6-3.9 1.4-1.5 3.3-2.1 1.5-.5 4 0 2.3.3 3.4 1 1 .6 1.7 1.7.6 1 .8 2.4h-4.4q0-.8-.7-1.3-.5-.6-1.5-.7a3 3 0 0 0-2.4.6q-1 .8-1.4 3-.5 2.3.3 3.4a3 3 0 0 0 2.2 1.4h1.4q.7 0 1.7-.4l.2-1.3z"/><path id="path5429" d="m201.1 68 4.2 1.6-1.9 5 6.2-3.4 5.6 2-6.8 3.3 2 10.3-5-1.9-.9-6.6-3 1.5-1.2 3.3-4.1-1.6z"/><path id="path5431" d="m220.1 89.5-4.4-2.4-1.7 1.7-4-2.2 11.7-10 4.2 2.4-2.2 15.2-4-2.2zm.7-3.1L222 81l-4 3.7z"/><path id="path5433" d="m241.7 89.6 6.3 5.5q1.5 1.3 1.7 2.8.2 1.6-.8 2.7-.8 1-2 1.1-.9.1-1.8-.3.9 1.3.9 2.5t-1 2.2a4 4 0 0 1-3.7 1.3q-.7 0-1.6-.7l-1.6-1.2-5.8-5zm-4 11.5 1.7 1.5q.8.7 1.5.7t1-.5q.6-.5.4-1 0-.8-1-1.4l-1.7-1.5zm3.7-4.3 1.5 1.3q.8.7 1.3.7t1-.6.3-1q0-.4-.8-1.2l-1.5-1.2z"/><path id="path5435" d="m254.3 100.8 8 8.8-2.2 2-5-5.4-1.8 1.5 4.7 5.1-2.1 2-4.7-5-2.1 1.8 5.2 5.7-2.4 2.2-8.2-9z"/><path id="path5437" d="m264.7 112.5 2.7 3.6-8.7 6.5 4 5.5-2.8 2.1-6.7-9z"/><path id="path5439" d="m273.1 124.4 2.3 3.8-12.2 7.5-2.3-3.8z"/><path id="path5441" d="m277.5 131.3 5.4 12.4-3.3 1.4-1.8-4.2-10 4.4-1.7-4.1 10-4.3-1.9-4.2z"/><path id="path5443" d="m286.2 156.6 1 4.3-8.3 2q-1.2.3-2.4.1-1.2 0-2.3-.7a5 5 0 0 1-1.5-1.5 9 9 0 0 1-1.2-2.9l-.4-2.3.1-2.1a5 5 0 0 1 2.3-3q1.2-.9 2.3-1l8.3-2 1 4.3-8.5 2q-1.1.3-1.7 1-.5.8-.2 2t1 1.6q.9.5 2 .2z"/><path id="path5445" d="m287.9 165.6.3 4.1-7.5 6 8-.6.2 4.2-14.3 1-.3-4.1 7.4-6-7.8.6-.3-4.1z"/><path id="path5447" d="m279.4 190.4 3 .2-.4 6.8-6.1-.3q-1.2-2.1-1.6-3.6a12 12 0 0 1 .8-7.8 6 6 0 0 1 2.7-2.3q1.8-.7 4-.7 2.5.1 4 1.2 1.8 1.2 2.5 3 .6 1.5.5 4a11 11 0 0 1-.6 3.5q-.6 1.2-1.5 2a6 6 0 0 1-2.3 1l-.6-4.4q.9-.2 1.3-.8t.6-1.6a3 3 0 0 0-1-2.4q-.9-1-3-1-2.4-.2-3.5.7a3 3 0 0 0-1.1 2.4l.1 1.4.7 1.6h1.3z"/></g><g id="g5449" fill="#ffffff"><path id="path5451" d="M97.2 28.5h9.5q3 0 4.6 1.4 1.6 1.5 1.6 4.2 0 2.9-1.7 4.4t-5.1 1.6H103v6.8h-5.8zm5.8 7.8h1.3q1.8 0 2.4-.5t.6-1.5q0-.8-.5-1.5-.7-.6-2.2-.6H103z"/><path id="path5453" d="M116 47V28.4h9.5q2.5 0 4 .4 1.4.5 2.3 1.7t.8 3q0 1.5-.6 2.6t-1.8 1.9l-2 .7q1 .3 1.4.7.4.1 1 1l.8 1L134 47h-6.4l-3-5.6-1.1-1.4q-.6-.5-1.4-.5h-.5V47zm5.7-11h2.4l1.5-.3q.6 0 1-.6.3-.5.3-1 0-1-.6-1.4-.5-.5-2.1-.5h-2.5z"/><path id="path5455" d="M134.8 37.7q0-4.5 2.5-7t7-2.5q4.7 0 7.1 2.4 2.5 2.5 2.5 7 0 3.2-1 5.3a8 8 0 0 1-3.2 3.2q-2 1.2-5.1 1.2-3.2 0-5.2-1A8 8 0 0 1 136 43q-1.3-2.1-1.3-5.4m5.7 0q0 2.8 1 4t2.9 1.3 2.8-1.2 1-4.3q0-2.6-1-3.8a4 4 0 0 0-2.9-1.2q-1.6 0-2.8 1.2-1 1.3-1 4"/><path id="path5457" d="M154 28.5h6l4.2 13.3 4.1-13.3h5.8l-6.9 18.4h-6.1z"/><path id="path5459" d="M176.2 28.5h5.7v18.4h-5.7z"/><path id="path5461" d="M186 28.5h5.4l7 10.2V28.5h5.3v18.4h-5.4l-6.9-10.1v10.1H186z"/><path id="path5463" d="m206.5 40.8 5.4-.3q.3 1.3.8 2a3 3 0 0 0 2.5 1.1q1.2 0 1.9-.6t.6-1.3-.6-1.3-3-1q-3.6-.8-5.3-2.3-1.5-1.5-1.6-3.5 0-1.5.8-2.7t2.5-2 4.6-.8q3.5 0 5.3 1.4 1.9 1.2 2.3 4.2l-5.4.3q-.3-1.4-1-1.8-.6-.6-1.8-.6-1 0-1.5.4t-.5 1q0 .5.4.8t2 .7q3.6.8 5.3 1.6 1.5 1 2.3 2 .8 1.4.8 2.8 0 1.8-1 3.3t-2.8 2.3-4.4.8q-4.7 0-6.5-1.9a7 7 0 0 1-2-4.6"/><path id="path5465" d="M226.4 28.5h5.7v18.4h-5.7z"/></g></g><!-- app4joy --></svg>