<svg viewBox="0 0 2286 1600" id="svg245" width="2286" height="1600" xmlns="http://www.w3.org/2000/svg"><g id="g246"><path id="rect1" d="M0 0h2286v1600H0z" fill="#13652f"/></g><g id="g245"><path d="m1640.7 1054.5-84.2-52.2c1.2-47.4-16.3-103.5 61.2-115.8-30.6 24.8-27.7 50.4-22.5 63.2 12-32 35-48.1 66.6-49.4-17.7 16.9-38.7 27.6-33 87 1.7 17.4 38.1 48.3 12 67.2Zm-881.4 0 84.2-52.2c-1.2-47.4 16.3-103.5-61.2-115.8 30.6 24.8 27.7 50.4 22.5 63.2-12-32-35-48.1-66.6-49.4 17.7 16.9 38.7 27.6 33 87-1.7 17.4-38.1 48.3-12 67.2Z" transform="translate(-57)" style="isolation:isolate" id="path1" fill="#fbea26" stroke="#968f1d" stroke-miterlimit="36.43996975005575" stroke-width="1.1409445307994013px" opacity="0.9980000257492065"/><path d="m772 1014.7 67.4-42.7c-7.4 10.3 11.8 15.7 4.1 30.3l-84.2 52.2c4.6-2.9 11.2-9.3 8.4-14.4-8.7-15.4 4.4-25.4 4.4-25.4Z" transform="translate(-57)" style="isolation:isolate" id="path2" fill="#e8db00" stroke="#968f1d" stroke-miterlimit="36.43996975005575" stroke-width="1.1409445307994013px" opacity="0.9980000257492065"/><path d="M839.4 972c25 11.3 5.9 73.2 20.8 90.3l-68.3 46.9c-12.2 7-15.3-25.5-15-55.4.2-16 9.4-26.2-4.9-39Z" transform="translate(-57)" style="isolation:isolate" id="path3" fill="#fbea26" stroke="#968f1d" stroke-miterlimit="36.43996975005575" stroke-width="1.1409445307994013px" opacity="0.9980000257492065"/><path d="M861.8 996.5c-20.7 14.2 13.6 54.3-1.6 65.8l-68.3 46.9c17.2-20.1-23-42.6 1.6-65.8Z" transform="translate(-57)" style="isolation:isolate" id="path4" fill="#e8db00" stroke="#968f1d" stroke-miterlimit="36.43996975005575" stroke-width="1.1409445307994013px" opacity="0.9980000257492065"/><path d="m1628 1014.7-67.4-42.7c7.4 10.3-11.8 15.7-4.1 30.3l84.2 52.2c-4.6-2.9-11.2-9.3-8.4-14.4 8.7-15.4-4.4-25.4-4.4-25.4Z" transform="translate(-57)" style="isolation:isolate" id="path5" fill="#e8db00" stroke="#968f1d" stroke-miterlimit="36.43996975005575" stroke-width="1.1409445307994013px" opacity="0.9980000257492065"/><path d="M1560.6 972c-25 11.3-5.9 73.2-20.8 90.3l68.3 46.9c12.2 7 15.3-25.5 15-55.4-.2-16-9.4-26.2 4.9-39Z" transform="translate(-57)" style="isolation:isolate" id="path6" fill="#fbea26" stroke="#968f1d" stroke-miterlimit="36.43996975005575" stroke-width="1.1409445307994013px" opacity="0.9980000257492065"/><path d="M1538.2 996.5c20.7 14.2-13.6 54.3 1.6 65.8l68.3 46.9c-17.2-20.1 23-42.6-1.6-65.8Z" transform="translate(-57)" style="isolation:isolate" id="path7" fill="#e8db00" stroke="#968f1d" stroke-miterlimit="36.43996975005575" stroke-width="1.1409445307994013px" opacity="0.9980000257492065"/><path d="M872.1 993.8a28 28 0 0 0-10.3 2.7l-68.3 46.9a24 24 0 0 1 21.5 10.7c66.3 133.2 213 232.5 385 232.5s318.7-99.3 385-232.5a24 24 0 0 1 21.5-10.7l-68.3-46.9c-16.6-7.4-20.7 1.6-26.4 7.9-46.9 104.7-171.1 194.8-311.8 194.9-140.7-.1-265-90.2-311.8-195-4.2-4.6-7.6-10.9-16-10.6Z" transform="translate(-57)" style="isolation:isolate" id="path8" fill="#fbea26" stroke="#968f1d" stroke-linejoin="round" stroke-width="1.1409445307994013px" opacity="0.9950000047683716"/><path d="m926.3 1098.8 16.4 15.3-4.4 4.7-1.5-1.4a6 6 0 0 0-2-1.4l-1.2.1a8 8 0 0 0-2 1.7l-17.3 18.6-1.7 2a2 2 0 0 0 0 1.3 4 4 0 0 0 1.3 1.7l1.7 1.6-4.3 4.7-16.4-15.3 4.4-4.7 1.3 1.3 2 1.5a2 2 0 0 0 1.3 0 7 7 0 0 0 1.8-1.6l17.5-18.7a8 8 0 0 0 1.7-2.2 2 2 0 0 0 0-1.4 6 6 0 0 0-1.5-1.7l-1.4-1.4Zm33.1 31.2 16.8 12.3-10 27.3 23.2-17.8 17 12.4-3.7 5.2-1.8-1.4a3 3 0 0 0-2.6-.8 4 4 0 0 0-2.2 1.9l-15.4 21.1-1 1.8a2 2 0 0 0 0 1.3 4 4 0 0 0 1.4 1.4l2 1.5-3.7 5.2-17.9-13 3.8-5.2 1.4 1a7 7 0 0 0 2.2 1.3 2 2 0 0 0 1.3-.1 6 6 0 0 0 1.6-1.7l16.6-22.8L957 1185l-5.2-3.8 13-36.1-16.5 22.5-.6 1.4.3 1.3 1.5 1.4 1.8 1.3-3.7 5.1-15.2-11 3.7-5.2 1.5 1.1a7 7 0 0 0 2.1 1.2 2 2 0 0 0 1.4-.2 7 7 0 0 0 1.7-1.9l15.1-20.8 1.2-2a2 2 0 0 0 0-1.4 4 4 0 0 0-1.4-1.3l-2-1.5Zm79.5 50.7 9.4 4.3-2.1 38a9 9 0 0 0 .3 4 6 6 0 0 0 2.7 2l-2.6 5.7-19.8-9 2.6-5.8 1.2.5a5 5 0 0 0 2.5.7 1.4 1.4 0 0 0 1.2-.8l.4-2.5.5-4.4-12.7-5.8-3.5 3.5-1.3 1.6v1a2 2 0 0 0 .8 1.1l2.8 1.4-2.6 5.8-16.2-7.4 2.6-5.8a8 8 0 0 0 2.4.8 3 3 0 0 0 1.6-.3l2-1.5Zm-11.5 22 8.3 3.8 1.2-13.4Zm55.3-4.2 18.1 4.4 6.7 29.3 3.9-16 .4-2.5a2 2 0 0 0-.6-1.3 5 5 0 0 0-2-.8l-2.2-.6 1.5-6.2 18.4 4.6-1.5 6.2-2-.5a5 5 0 0 0-2.3-.2 2 2 0 0 0-1.2.7 8 8 0 0 0-.9 2.6l-8.5 34.4-9.1-2.2-8.5-37-5.7 23-.3 2.6.6 1a5 5 0 0 0 2.1 1l2.1.5-1.5 6.1-18.5-4.5 1.5-6.2 2 .5a6 6 0 0 0 2.2.3 2 2 0 0 0 1.2-.8 5 5 0 0 0 .8-1.9l6.3-25.6a5 5 0 0 0 .2-2.2 2 2 0 0 0-.6-1.2 4 4 0 0 0-1.7-.8l-2.4-.5Zm109.2 16.4 4.4-.1.5 1.5 25.9-.9.5-1.5 4.4-.2 6.2 16-6 2.3-3.2-5.2a14 14 0 0 0-4.1-3.6 7 7 0 0 0-3.4-1 1 1 0 0 0-1.1.5 3 3 0 0 0-.3 1.7l1 26.4.2 3 .6.9 1 .4h3.8l.2 6.3-22.4.7-.2-6.3h1.3a9 9 0 0 0 2.9-.4 2 2 0 0 0 1-1 9 9 0 0 0 .1-3l-.9-27-.3-1.4-1.1-.3a8 8 0 0 0-3.8 1.4 13 13 0 0 0-3.6 3.8l-2.6 5.2-6.1-1.9Zm77-5.5 10.2-1.9 20.1 32.3a9 9 0 0 0 2.6 3 6 6 0 0 0 3.3.1l1.2 6.2-21.4 4-1.2-6.2 1.3-.3a5 5 0 0 0 2.4-.9 1 1 0 0 0 .5-1.3l-1-2.3-2.2-3.8-13.7 2.6-.8 4.9-.2 2 .5.8 1.4.4 3-.4 1.2 6.2-17.4 3.3-1.2-6.2a8 8 0 0 0 2.4-.8l1-1a8 8 0 0 0 .8-2.5Zm3.2 24.6 9-1.7-6.7-11.6Zm77.2 1.8a22 22 0 0 1-14.2-1.7q-8.1-3.9-11.7-13.2-3.8-9.8.2-18.4 4-8.7 14.3-12.7t19-.2 12.5 13.5a25 25 0 0 1 1.7 11.2 21 21 0 0 1-3.2 9.9 24 24 0 0 1-8.1 7.6 5 5 0 0 0 3.5 3.3 8 8 0 0 0 5-.3 15 15 0 0 0 3.9-2.2 15 15 0 0 0 3.1-3.3l5 4.1a28 28 0 0 1-5.4 5.6 26 26 0 0 1-6.5 3.7 20 20 0 0 1-8.5 1.4 12 12 0 0 1-6.8-2.7 14 14 0 0 1-3.8-5.6m-8.5-39.3a10 10 0 0 0-6.4 6.7q-1.9 6 1 13.3 2.7 7.2 7.8 10.2a10.7 10.7 0 0 0 15.4-6q1.7-5.6-1-12.9a23 23 0 0 0-4.8-8 12 12 0 0 0-6-3.6 10 10 0 0 0-6 .3m35.6-22 16.9-11.2 3.5 5.4-2 1.4a2 2 0 0 0 0 2l1.5 1.5 18.2 16.5-4.8-17-5.5-4.7-.7-.5a4 4 0 0 0-2.3-1.2 4 4 0 0 0-2.5.7l-3.5-5.3 16-10.5 3.5 5.3-1.3.8q-1.4 1-1.6 1.5a2 2 0 0 0 .2 1.6l1.8 1.8 16.2 14.8-7-20.8-1-2.6a1 1 0 0 0-1-.7 4 4 0 0 0-2.2.9l-1.4.9-3.5-5.3 14.6-9.6 3.5 5.3a7 7 0 0 0-2 1.8 3 3 0 0 0-.5 1.7 15 15 0 0 0 .7 3.5l10.6 34.6-8.3 5.4-14.6-12.4 5.4 18.5-8.7 5.7-28-23.8a11 11 0 0 0-2.5-1.8 3 3 0 0 0-1.8-.1 7 7 0 0 0-2.4 1.2Zm79-58.8 7.7-6.9 34 17a9 9 0 0 0 3.9 1.2 6 6 0 0 0 2.8-1.7l4.3 4.7-16.1 14.6-4.3-4.7 1-1a5 5 0 0 0 1.6-2 1 1 0 0 0-.3-1.3l-2.1-1.4-3.8-2.2-10.4 9.4 1.9 4.6.9 1.8a1 1 0 0 0 1 .5l1.3-.4 2.3-2 4.3 4.7-13.1 12-4.3-4.7a8 8 0 0 0 1.7-2l.3-1.4-.6-2.4Zm15.7 19.3 6.8-6.2-11.9-6.3Z" transform="translate(-57)" style="isolation:isolate" id="path9" fill="#010101" opacity="0.9980000257492065"/><path d="M883 328h634v156.8h-141.7c-32.2-85.2-129.7-13.8-175.3-60.6-45.6 46.8-143-24.6-175.2 60.6H883z" transform="translate(-57)" style="isolation:isolate" id="path10" fill="#fff" opacity="0.9950000047683716"/><path d="M919.1 359v-9.4h36.4q8.4 0 13.2 2a16 16 0 0 1 7.3 6 15 15 0 0 1 2.6 8.4 15 15 0 0 1-1.4 6.3 16 16 0 0 1-3.9 5.3 20 20 0 0 1-6.7 3.8 27 27 0 0 1 6.9 2.7 15 15 0 0 1 5.4 5.7 16 16 0 0 1 2 8 17 17 0 0 1-3 10 19 19 0 0 1-8.7 6.9q-5.6 2.3-16.5 2.3h-33.6v-9.3h2.6a9 9 0 0 0 3.4-.4 3 3 0 0 0 1.2-1.3 12 12 0 0 0 .4-3.9v-37.6a12 12 0 0 0-.4-3.8 3 3 0 0 0-1.2-1.3 8 8 0 0 0-3.4-.5Zm23.5 17.9h7a25 25 0 0 0 8.1-1 8 8 0 0 0 4-2.9 9 9 0 0 0 0-9 7 7 0 0 0-3.5-2.7q-2.4-.8-8.6-.8h-7Zm0 10v14.5l.2 3.6a2 2 0 0 0 .8 1 10 10 0 0 0 2.9.3h4.6a25 25 0 0 0 6.8-.8 9 9 0 0 0 4.6-3.4 10 10 0 0 0 1.9-6 9 9 0 0 0-1.4-5 8 8 0 0 0-4-3.2 23 23 0 0 0-8.1-1Zm99.3-37.3h14.4l19.2 52q1.6 4.2 2.8 5.2t4.5.9v9.3h-30.3v-9.3h1.8a7 7 0 0 0 3.6-.8 2 2 0 0 0 1-1.7 15 15 0 0 0-.9-3.6l-1.9-6.1h-19.5l-2.4 6.8-.7 2.9a2 2 0 0 0 .5 1.4 3 3 0 0 0 1.7.9l4.4.2v9.3h-24.8v-9.3a10 10 0 0 0 3.5-.5 4 4 0 0 0 1.8-1.3 12 12 0 0 0 1.6-3.2Zm-2 36.3h12.9l-6.3-18.6Zm78.5-36.3h26l18.8 39.3v-24a13 13 0 0 0-.3-3.9 3 3 0 0 0-1.3-1.6 7 7 0 0 0-3-.5h-3.1v-9.3h26.4v9.3h-2.9a7 7 0 0 0-3.2.6 3 3 0 0 0-1.3 1.4 13 13 0 0 0-.3 4V417H1161l-23.8-49.7v34.8a13 13 0 0 0 .3 3.8 3 3 0 0 0 1.3 1.3 7 7 0 0 0 3.1.5h3v9.3h-26.5v-9.3h2.8a9 9 0 0 0 3.1-.4 3 3 0 0 0 1.4-1.4 7 7 0 0 0 .5-3V364a8 8 0 0 0-.5-3.2 3 3 0 0 0-1.2-1.5 5 5 0 0 0-2.6-.5h-3.5Zm106-2.3h6l.7 2.3h36.1l.8-2.3h6l8 23.6-8.5 3.2a69 69 0 0 0-4-7.7 20 20 0 0 0-5.7-5.6 9 9 0 0 0-4.7-1.5 2 2 0 0 0-1.5.6 5 5 0 0 0-.4 2.5V401a23 23 0 0 0 .2 4.3 3 3 0 0 0 .8 1.5 3 3 0 0 0 1.5.6l5.1.2v9.3h-31.2v-9.3h2a13 13 0 0 0 4-.4 3 3 0 0 0 1.3-1.4 13 13 0 0 0 .4-4.4v-39.6a4 4 0 0 0-.3-2.2 2 2 0 0 0-1.6-.4 10 10 0 0 0-5.3 1.9 18 18 0 0 0-5.3 5.3 85 85 0 0 0-3.9 7.6l-8.4-3.2Zm93.3 2.3h53.4l7.3 21.3-8.3 3.1a29 29 0 0 0-5-8.4 13 13 0 0 0-6.2-4.2 27 27 0 0 0-8-1h-9.7v16.8h3.2a14 14 0 0 0 4.9-.5 4 4 0 0 0 1.8-1.8 13 13 0 0 0 .6-4.7v-2.6h8.1v28.5h-8.1v-2.9a10 10 0 0 0-.7-4.3 4 4 0 0 0-1.8-1.8 17 17 0 0 0-5.1-.5h-2.9v15.5a11 11 0 0 0 .2 3 2 2 0 0 0 1 .8 9 9 0 0 0 2.8.3h5.4a26 26 0 0 0 10.1-1.8 20 20 0 0 0 7.4-5.8 29 29 0 0 0 5-9.7l8.4 3-8.4 25.1h-55.4v-9.3h1.6a13 13 0 0 0 4.3-.5 3 3 0 0 0 1.6-1.7 20 20 0 0 0 .2-4v-36.8a12 12 0 0 0-.4-4 3 3 0 0 0-1.2-1.3 7 7 0 0 0-3.3-.5h-2.8Zm99.7 0h26l18.8 39.3v-24a13 13 0 0 0-.4-3.9 3 3 0 0 0-1.2-1.6 7 7 0 0 0-3-.5h-3.2v-9.3h26.5v9.3h-3a7 7 0 0 0-3.1.6 3 3 0 0 0-1.3 1.4 13 13 0 0 0-.4 4V417H1460l-23.7-49.7v34.8a13 13 0 0 0 .3 3.8 3 3 0 0 0 1.2 1.3 7 7 0 0 0 3.2.5h3v9.3h-26.6v-9.3h2.8a9 9 0 0 0 3.1-.4 3 3 0 0 0 1.4-1.4 7 7 0 0 0 .5-3V364a8 8 0 0 0-.4-3.2 3 3 0 0 0-1.3-1.5 5 5 0 0 0-2.6-.5h-3.5Z" transform="translate(-57)" style="isolation:isolate" id="path11" fill="#e5252b" opacity="0.9980000257492065"/><path d="M868.4 313.4v171.4h-.1v432c0 136.3 152.6 282.4 331.7 282.4s331.6-146 331.6-282.4l.1-432h-.1V313.4ZM883 328h634v156.8h-141.7c-32.2-85.3-129.7-13.8-175.3-60.6-45.6 46.8-143-24.7-175.2 60.6H883Zm317 115c12.6 8.4 27 12 41 13 18 1.4 36-.6 52.3-1.2s30.8.1 41.7 4.7 19.5 12 26.4 30.4a15 15 0 0 0 13.9 9.6H1517l-.2 417.2c0 62.7-35.6 130-93.6 181.2s-137.6 86.4-223.2 86.4-165.1-35-223.1-86.4-93.7-118.5-93.7-181.2l-.1-417.2h141.7a15 15 0 0 0 13.8-9.6c7-18.3 15.5-25.8 26.4-30.4s25.4-5.4 41.8-4.7 34.2 2.6 52.2 1.3a86 86 0 0 0 41-13Z" transform="translate(-57)" style="isolation:isolate" id="path12" fill="#fbea26" stroke="#968f1d" stroke-linejoin="round" stroke-width="1.7404191172223022px" opacity="0.9950000047683716"/><path d="M1200 443.1c12.6 8.4 27 12 41 13 18 1.4 35.9-.6 52.3-1.2s30.8.1 41.7 4.7 19.5 12 26.4 30.4a15 15 0 0 0 13.9 9.6H1517l-.2 417.2c0 62.7-35.6 130-93.6 181.2s-137.7 86.4-223.2 86.4-165.1-35-223.1-86.4-93.7-118.5-93.7-181.2l-.1-417.2h141.7a15 15 0 0 0 13.8-9.6c7-18.3 15.5-25.8 26.4-30.4s25.4-5.4 41.8-4.7 34.2 2.6 52.2 1.3a86 86 0 0 0 41-13Z" transform="translate(-57)" style="isolation:isolate" id="path13" fill="#059758" stroke="#968f1d" stroke-linejoin="round" stroke-width="1.7404191172223022px" opacity="0.9950000047683716"/><path d="m1200 458.4-5 15.3h-16l13 9.5-5 15.3 13-9.5 13 9.5-5-15.3 13-9.5h-16Z" transform="translate(-57)" style="isolation:isolate" id="path14" fill="#fbea26" opacity="0.9950000047683716"/><path d="M1200 458.4v22.2l-5-6.9h-16l21 6.9-8 2.6-5 15.3 13-18v8.5l13 9.5-13-18 8 2.7 13-9.5-21 6.9 5-6.9Z" transform="translate(-57)" style="isolation:isolate" id="path15" fill="#e8db00" opacity="0.9950000047683716"/><path d="M982.3 732c1.6-24-3-39.6-24.4-45.7-.7 17.7 1.8 32.2 24.4 45.8Z" transform="translate(-57)" id="path16" fill="#ffe108" stroke="#b19d10" stroke-width="0.2645829916000366px"/><path d="M972 710.1c-6.5-13-2.3-18.4 2.7-13.9 0 0-9.3-7.8-16.8-9.9a62 62 0 0 0 1.6 19.2c.2-6.2 4.5-7.1 12.5 4.6" transform="translate(-57)" id="path17" fill="#14130d"/><path d="M962.3 704.6c10.8 2.8 12.1 13.4 16.5 21.4-6.2-6.5-14.6-11.4-16.5-21.4" transform="translate(-57)" id="path18" fill="#ffed69"/><path d="m981.5 731.3 11.8 15.1" transform="translate(-57)" id="path19" fill="none" stroke="#b19d10" stroke-miterlimit="15.118106977122915"/><path d="M997.2 747c19-14.4 28-28.6 20.6-50.3-13.7 11-23 22.6-20.6 50.3Z" transform="translate(-57)" id="path20" fill="#ffe108" stroke="#b19d10" stroke-width="0.2645829916000366px"/><path d="M1008 724c6-13.9 12.4-14 11.8-6.8 0 0 .6-12.9-2-20.5q-8.1 6.1-13.5 13.9c4.8-4 8-1 3.6 13.5" transform="translate(-57)" id="path21" fill="#14130d"/><path d="M1006.6 712.4c4 10.8-3.3 18.8-6.8 27.8 1.4-9.5.3-19.7 6.8-27.8" transform="translate(-57)" id="path22" fill="#ffed69"/><path d="M1035.8 825.9c15-21.2 19.8-39 5-59-10.8 15.9-16.7 31-5 59Z" transform="translate(-57)" id="path23" fill="#ffe108" stroke="#b19d10" stroke-miterlimit="15.118106842041016"/><path d="M1039.4 798.5c1.8-16.5 8.4-18.6 10.1-11 0 0-3.5-13.6-8.8-20.6a69 69 0 0 0-9.5 18.8c3.7-5.6 8-3.5 8.2 12.8" transform="translate(-57)" id="path24" fill="#14130d"/><path d="M1034.2 786.9c7.6 9.9 2.8 20.6 2 31-1.6-10.3-6-20.5-2-31" transform="translate(-57)" id="path25" fill="#ffed69"/><path d="M1023.6 823.2c-9-24.3-21-38.3-46-37.3 7.1 17.8 16.3 31.2 46 37.3Z" transform="translate(-57)" id="path26" fill="#ffe108" stroke="#b19d10" stroke-miterlimit="15.118106615375819"/><path d="M1003 804.8c-12.6-10.8-10.7-17.5-3.4-14.6 0 0-13.2-4.7-22-4.3 2.7 6.8 5.8 13 10.2 18.5-2.6-6.3 1.6-8.6 15.2.4" transform="translate(-57)" id="path27" fill="#14130d"/><path d="M990.4 802.6c12.5-.8 18.6 9.2 26.9 15.7-9.5-4.4-20.4-6.4-26.9-15.7" transform="translate(-57)" id="path28" fill="#ffed69"/><path d="M1015.9 792.5c15-19.2 20-35.2 5-53.3-10.8 14.4-16.8 28-5 53.3Z" transform="translate(-57)" id="path29" fill="#ffe108" stroke="#b19d10" stroke-width="0.2645829916000366px"/><path d="M1019.5 767.8c1.8-15 8.5-16.9 10.2-10 0 0-3.6-12.2-8.9-18.6-4.1 5.5-7.6 11-9.5 17 3.7-5.1 8-3.2 8.2 11.6" transform="translate(-57)" id="path30" fill="#010101"/><path d="M1014.2 757.2c7.7 9 2.9 18.7 2.1 28-1.6-9.2-6.2-18.4-2-28" transform="translate(-57)" id="path31" fill="#ffed69"/><path d="M994.3 774.1c-4.6-23.6-13.2-37.6-35.3-38 3.8 17.4 10 30.7 35.3 38Z" transform="translate(-57)" id="path32" fill="#ffe108" stroke="#b19d10" stroke-width="0.2645829916000366px"/><path d="M978.8 755.5c-9.7-10.9-7-17.1-1-14 0 0-11-5.2-18.8-5.3a62 62 0 0 0 6.4 18.1c-1.4-6 2.6-8 13.4 1.2" transform="translate(-57)" id="path33" fill="#14130d"/><path d="M968 752.7c11.1 0 15 9.8 21.4 16.4-7.7-4.7-17-7.2-21.4-16.4" transform="translate(-57)" id="path34" fill="#ffed69"/><path d="m993.4 773.6 11.5 8" transform="translate(-57)" id="path35" fill="none" stroke="#b19d10" stroke-miterlimit="15.118106842041016"/><path d="M983 684.2c6.9-23 5.8-39.4-13.7-50-4.6 17.1-5.3 31.8 13.7 50Z" transform="translate(-57)" id="path36" fill="#ffe108" stroke="#b19d10" stroke-width="0.2645829916000366px"/><path d="M977.9 660.5c-3.5-14.1 1.7-18.4 5.6-13 0 0-7.3-9.6-14.2-13.3a62 62 0 0 0-2.7 19c1.6-6 6-5.9 11.3 7.3" transform="translate(-57)" id="path37" fill="#14130d"/><path d="M969.6 653c9.9 5.2 8.8 15.8 11.4 24.5-4.7-7.7-11.8-14.3-11.4-24.4" transform="translate(-57)" id="path38" fill="#ffed69"/><path d="m982.5 683.3 6.4 12.5" transform="translate(-57)" id="path39" fill="none" stroke="#b19d10" stroke-miterlimit="15.118107158426854"/><path d="M993.8 640.3c12-20.8 14.7-37-1.8-51.8-8.4 15.6-12.5 29.8 1.8 51.8Z" transform="translate(-57)" id="path40" fill="#ffe108" stroke="#b19d10" stroke-width="0.2645829916000366px"/><path d="M994.3 616.1c-.2-14.5 6-17.5 8.4-11.3 0 0-4.9-11-10.7-16.3a62 62 0 0 0-7 18c2.9-5.5 7.2-4.5 9.3 9.6" transform="translate(-57)" id="path41" fill="#14130d"/><path d="M988 607c8.4 7.2 5 17.3 5.4 26.4-2.7-8.6-8.1-16.6-5.4-26.5" transform="translate(-57)" id="path42" fill="#ffed69"/><path d="M993.5 639.3 997 653" transform="translate(-57)" id="path43" fill="none" stroke="#b19d10" stroke-miterlimit="15.118107246205522"/><path d="M1012.1 603.3c15.5-18.4 21-33.8 7.5-51.3-11.1 13.9-17.6 27-7.5 51.3Z" transform="translate(-57)" id="path44" fill="#ffe108" stroke="#b19d10" stroke-width="0.2645829916000366px"/><path d="M1016.9 579.6c2.4-14.4 9-16.2 10.3-9.7 0 0-2.8-11.7-7.6-17.9a62 62 0 0 0-10.1 16.4c3.8-4.9 7.9-3 7.4 11.2" transform="translate(-57)" id="path45" fill="#14130d"/><path d="M1012.3 569.4c7 8.6 1.8 18 .6 27-1.1-9-5-17.8-.6-27" transform="translate(-57)" id="path46" fill="#ffed69"/><path d="m1012 602.3.9 14" transform="translate(-57)" id="path47" fill="none" stroke="#b19d10" stroke-miterlimit="15.118106929374534"/><path d="M1037.6 569.5c19.4-14.1 28.4-27.8 19.4-48-14.1 10.8-23.5 22-19.4 48Z" transform="translate(-57)" id="path48" fill="#ffe108" stroke="#b19d10" stroke-width="0.2645829916000366px"/><path d="M1047.8 547.6c5.8-13.4 12.6-13.6 12.3-6.9 0 0 0-12.1-3.1-19.2a62 62 0 0 0-13.7 13.5c4.9-3.9 8.4-1.1 4.5 12.6" transform="translate(-57)" id="path49" fill="#14130d"/><path d="M1045.8 536.6c4.8 10-2.5 17.9-5.8 26.4 1-9-.7-18.5 5.8-26.4" transform="translate(-57)" id="path50" fill="#ffed69"/><path d="m1037.7 568.5-2.5 13.8" transform="translate(-57)" id="path51" fill="none" stroke="#b19d10" stroke-miterlimit="15.118107086325987"/><path d="M1070.8 539.4c18.5-9 28.2-20 24-41.8-13.5 7-23.1 15.5-24 41.8Z" transform="translate(-57)" id="path52" fill="#ffe108" stroke="#b19d10" stroke-width="0.2645829916000366px"/><path d="M1083 520.6c7-11.5 12.6-10 11.3-3.5 0 0 2-11.8.5-19.5a48 48 0 0 0-13.6 9.7c4.7-2.5 7.1 1 1.7 13.3" transform="translate(-57)" id="path53" fill="#14130d"/><path d="M1083 509.5c2.3 11-5 16.7-9 24.2 2.2-8.5 2.3-18.2 9-24.2" transform="translate(-57)" id="path54" fill="#ffed69"/><path d="m1071.1 538.4-4.3 12.8" transform="translate(-57)" id="path55" fill="none" stroke="#b19d10" stroke-width="0.2645829916000366px"/><path d="M990.4 702c23.1-6.5 37-16.8 38.2-41-17 5.4-30.2 13-38.2 41Z" transform="translate(-57)" id="path56" fill="#ffe108" stroke="#b19d10" stroke-width="0.2645829916000366px"/><path d="M1009 684c11-11.3 17-8.9 13.8-2.1 0 0 5.4-12.3 5.8-20.8a62 62 0 0 0-17.9 8.2c6-2 7.8 2.3-1.7 14.6" transform="translate(-57)" id="path57" fill="#14130d"/><path d="M1012.1 672c-.3 12-10 17-16.7 24.4 4.9-8.7 7.6-19 16.7-24.4" transform="translate(-57)" id="path58" fill="#ffed69"/><path d="M994.8 656.6c24-.3 40.2-6.6 47.6-29.6-17.9.7-32.6 4.6-47.6 29.6Z" transform="translate(-57)" id="path59" fill="#ffe108" stroke="#b19d10" stroke-width="0.2645829916000366px"/><path d="M1017.5 644c13.6-8 18.7-4.1 13.8 1.5 0 0 8.5-10.4 11-18.5-6.8.2-13.2 1-19.4 3.3 6.3-.4 7 4.2-5.4 13.6" transform="translate(-57)" id="path60" fill="#14130d"/><path d="M1023.6 633.2c-3.5 11.6-14.2 14-22.5 19.3 7-7.2 12.3-16.4 22.5-19.3" transform="translate(-57)" id="path61" fill="#ffed69"/><path d="M1011.5 619.7c23.9 3 40.7-1 51.2-22.8-17.7-1.7-32.9.1-51.2 22.8Z" transform="translate(-57)" id="path62" fill="#ffe108" stroke="#b19d10" stroke-width="0.2645829916000366px"/><path d="M1035.8 610.3c14.5-6 19-1.4 13.4 3.5 0 0 9.8-9.2 13.5-16.9-6.8-.7-13.3-.8-19.7.6 6.3.5 6.3 5.1-7.2 12.8" transform="translate(-57)" id="path63" fill="#14130d"/><path d="M1043.3 600.5c-5 11-16 11.8-25 16 7.9-6.2 14.5-14.6 25-16" transform="translate(-57)" id="path64" fill="#ffed69"/><path d="M1042 585.5c21.5 6.8 36.8 6 47-11.9-16-4.6-29.7-5.4-47 12Z" transform="translate(-57)" id="path65" fill="#ffe108" stroke="#b19d10" stroke-width="0.2645829916000366px"/><path d="M1064.2 581.1c13.3-3 17.3 2 12 5.5 0 0 9.2-6.7 12.8-13a60 60 0 0 0-17.8-2.8c5.6 1.6 5.5 5.7-7 10.3" transform="translate(-57)" id="path66" fill="#14130d"/><path d="M1071.4 573.6c-5 9-14.9 8-23.1 10.2 7.3-4.2 13.5-10.7 23-10.2" transform="translate(-57)" id="path67" fill="#ffed69"/><path d="m1042.9 585-6.6.3" transform="translate(-57)" id="path68" fill="none" stroke="#b19d10" stroke-width="0.2645829916000366px"/><path d="M1068.7 556.6c21.4 8.4 37 9 49.2-7.5-15.9-5.9-29.8-7.9-49.2 7.5Z" transform="translate(-57)" id="path69" fill="#ffe108" stroke="#b19d10" stroke-width="0.2645829916000366px"/><path d="M1091.9 554.2c13.8-1.8 17.4 3.4 11.8 6.3 0 0 10-5.6 14.2-11.4-6.1-2.3-12-4-18-4.3 5.7 2 5.1 6-8 9.4" transform="translate(-57)" id="path70" fill="#14130d"/><path d="M1099.9 547.5c-6 8.4-16 6.4-24.6 7.9 7.9-3.4 14.9-9.2 24.6-7.9" transform="translate(-57)" id="path71" fill="#ffed69"/><path d="m1069.7 556.2-6.8-.4" transform="translate(-57)" id="path72" fill="none" stroke="#b19d10" stroke-width="0.2645829916000366px"/><path d="M1093.4 537c23.5 4.3 39.7 1.7 48.7-17.3-17.4-2.7-32-2-48.7 17.4Z" transform="translate(-57)" id="path73" fill="#ffe108" stroke="#b19d10" stroke-width="0.2645829916000366px"/><path d="M1116.6 530c13.8-4.5 18.5 0 13.3 4 0 0 9-7.6 12.2-14.3a66 66 0 0 0-19.2-.7c6.2.9 6.4 5-6.3 11" transform="translate(-57)" id="path74" fill="#14130d"/><path d="M1123.4 521.7c-4.3 9.7-15 9.7-23.5 12.9 7.3-5 13.3-12.2 23.5-12.9" transform="translate(-57)" id="path75" fill="#ffed69"/><path d="M1094.8 530.6c-79 43.6-106.4 113.9-106.3 176.6 0 31.4 6.9 61 17.6 84.5s25.2 41.4 41.1 49l2.4-5c-14-6.7-28-23.4-38.4-46.3s-17-51.6-17.1-82.2c-.1-61 26.2-129 103.4-171.7Z" transform="translate(-57)" id="path76" fill="#89272a" stroke="#5c1b1d" stroke-miterlimit="15.118106842041016" stroke-width="0.5000011568069738px"/><path d="M1255 546.4c-11.4-6.8-9.1-11.2-8.8-16q-5.1-6 .1-12.6c-2.8-9.6 8-13.4 8.3-12.8 0-5 4.9-8 7.8-6.2 6.4-9 15.7-.2 15.7 2.3 6.8 22.1-.2 37.5-23 45.3Z" transform="translate(-57)" id="path77" fill="#fff" stroke="#dcdcdc" stroke-width="0.2645829916000366px"/><path d="M1255 546.4c-11.4-6.8-3.4-9.3-3.1-14.1-3.5-3.9-2.3-10.4 1.2-14.9-3-9.6 5.8-9.2 6-8.5.1-5 4.3-9.2 7.2-7.4 6.3-8.9 11.8-2.9 11.8-.4 6.8 22.1-.2 37.5-23 45.3" transform="translate(-57)" id="path78" fill="#dcdcdc"/><path d="m1286 537.1 11.9 11.1 2-3-12.2-10.4c-4.7-8.4 0-28.2-9.6-33.7-1.5 4-5 7.3-3.7 12.3-3.6-2.7-6.8-2.5-10-2a19 19 0 0 0 4 10.6 15 15 0 0 0-13.2 1.2c2.7 4 5.3 8.7 8.7 10.3-4.8 2.6-6.5 8-8.8 12.9 9.7 1.7 23.8-12.7 31-9.3Z" transform="translate(-57)" id="path79" fill="#9e282c" stroke="#7a1e22" stroke-width="0.2645829916000366px"/><path d="M1263.7 540c17.8-.4 21.5-16.5 16.2-31.6-1.7 3.6-4.8 6.3-4.1 11.6-1.5-2.4-4.5-3.1-7.2-4.2.6 4 1.7 7.7 4.4 10.8-3.4-3-7.2-1.7-11-.8 2.1 2.7 3.5 6.6 7.2 6.3q-3.6 2.1-5.5 8" transform="translate(-57)" id="path80" fill="#b33031"/><path d="M1289.3 558.3c-10.2-8.7-7.1-12.7-6-17.4q-4-6.6 2.3-12.3c-1.1-10 10.2-11.9 10.4-11.2 1-4.9 6.2-7 8.7-4.8 7.8-7.6 15.5 2.6 15.1 5 2.8 23-6.7 37-30.5 40.7Z" transform="translate(-57)" id="path81" fill="#fff" stroke="#dcdcdc" stroke-width="0.2645829916000366px"/><path d="M1289.3 558.3c-10.2-8.7-1.8-9.8-.7-14.5-2.8-4.4-.4-10.6 3.7-14.4-1.2-10 7.3-8 7.5-7.4 1-4.9 5.7-8.3 8.2-6 7.9-7.7 12.2-.8 11.8 1.7 2.8 22.9-6.7 36.9-30.5 40.6" transform="translate(-57)" id="path82" fill="#dcdcdc"/><path d="m1321.4 554.5 9.8 13 2.5-2.6-10.3-12.4c-3.2-9.1 4.8-27.8-3.6-34.8-2.2 3.6-6.1 6.2-5.8 11.4-3-3.3-6.3-3.7-9.5-3.7a19 19 0 0 0 2 11.2 15 15 0 0 0-13-1.2c2 4.5 3.7 9.6 6.8 11.7-5.2 1.7-7.9 6.8-11 11.2 9.3 3.3 25.7-8.4 32-3.8Z" transform="translate(-57)" id="path83" fill="#9e282c" stroke="#7a1e22" stroke-width="0.2645829916000366px"/><path d="M1298.9 553.5c17.6 2.6 24-12.6 21.4-28.4-2.3 3.3-5.8 5.4-6 10.8-1-2.7-4-3.9-6.4-5.4-.1 4 .4 7.9 2.5 11.4-2.9-3.6-6.8-3-10.7-2.7 1.6 3 2.3 7 6 7.5q-3.8 1.4-6.8 6.8" transform="translate(-57)" id="path84" fill="#b33031"/><path d="M1318.7 585.7c-11.3-9.6-7.5-13.6-6-18.5q-4.2-7.1 3.6-12.8c-.7-10.5 12.6-11.8 12.8-11 1.4-5.2 7.7-7.2 10.5-4.6 9.6-7.6 17.9 3.6 17.3 6.1 1.8 24.2-10.3 38.4-38.2 40.8Z" transform="translate(-57)" id="path85" fill="#fff" stroke="#dcdcdc" stroke-width="0.2645829916000366px"/><path d="M1318.7 585.7c-11.3-9.6-1.5-10.3 0-15.1-2.9-4.8.3-11.2 5.3-15-.7-10.5 9-8 9.2-7.3 1.5-5 7.3-8.3 10-5.8 9.7-7.6 14.3-.1 13.7 2.4 1.8 24.2-10.3 38.4-38.2 40.8" transform="translate(-57)" id="path86" fill="#dcdcdc"/><path d="m1356.3 583.7 10.6 14.1 3-2.5-11.1-13.7c-3.1-9.6 7.4-28.8-2-36.7-2.8 3.7-7.5 6.3-7.5 11.7-3.3-3.7-7-4.2-10.7-4.4a19 19 0 0 0 1.6 11.8 19 19 0 0 0-15.3-2c2.1 4.8 3.8 10.3 7.3 12.7-6.2 1.5-9.6 6.6-13.5 11 10.5 4.1 30.4-7.2 37.6-2Z" transform="translate(-57)" id="path87" fill="#9e282c" stroke="#7a1e22" stroke-width="0.2645829916000366px"/><path d="M1330.1 581.3c20.4 3.8 28.9-11.8 26.9-28.5-3 3.3-7.2 5.3-7.8 11-1-3-4.3-4.4-7-6-.4 4-.1 8.2 2 12-3-4-7.7-3.5-12.2-3.4 1.7 3.2 2.2 7.5 6.5 8.1q-4.5 1.4-8.4 6.8" transform="translate(-57)" id="path88" fill="#b33031"/><path d="M1347 615.7c-9.5-12.2-4.9-15.8-2.4-20.7q-2.8-8.3 6-12.9c1.3-11.2 15-10.2 15-9.4 2.5-5.1 9.2-6 11.5-2.9 11.2-6.2 17.4 7.1 16.3 9.7-2.8 26-17.7 38.7-46.4 36.2Z" transform="translate(-57)" id="path89" fill="#fff" stroke="#dcdcdc" stroke-width="0.2645829916000366px"/><path d="M1347 615.7c-9.5-12.2.5-11.2 3-16-2-5.6 2.4-11.8 8.2-14.8 1.3-11.3 10.7-6.9 10.7-6 2.4-5.2 8.9-7.6 11.2-4.4 11.2-6.3 14.4 2.4 13.3 5-2.8 26-17.7 38.7-46.4 36.2" transform="translate(-57)" id="path90" fill="#dcdcdc"/><path d="m1385.4 620.4 7.9 17 3.6-2.2-8.6-16.5c-1.3-10.8 13-29.2 5-39.2-3.5 3.4-8.8 5.2-9.8 11-2.7-4.5-6.3-5.7-10-6.7a21 21 0 0 0-.6 12.8 19 19 0 0 0-15-4.8c1.1 5.4 1.8 11.5 4.9 14.7-6.6.5-11 5.3-15.8 9.2 9.9 6.3 32.1-2.1 38.4 4.7Z" transform="translate(-57)" id="path91" fill="#9e282c" stroke="#7a1e22" stroke-width="0.2645829916000366px"/><path d="M1359.4 613.2c19.8 7.6 31.4-7.3 32.6-25.4-3.6 3-8.3 4.3-10 10.2-.4-3.2-3.5-5.3-6-7.6a22 22 0 0 0-.1 13.1c-2.3-4.7-7.1-5.1-11.7-5.9 1 3.7.8 8.4 5 9.9q-4.9.5-9.8 5.7" transform="translate(-57)" id="path92" fill="#b33031"/><path d="M1366.4 652.2c-5.8-15 0-17.1 4-21.2q-.5-9 9.9-10.8c4.7-10.8 18-5.5 17.9-4.7 4-4.3 11-3.2 12.3.7 13.1-2.8 15.3 12.3 13.4 14.5-10.7 24.8-29.5 32.8-57.5 21.5Z" transform="translate(-57)" id="path93" fill="#fff" stroke="#dcdcdc" stroke-width="0.2645829916000366px"/><path d="M1366.4 652.2c-5.8-15 3.9-10.9 7.9-15-.3-6 6-10.8 12.7-12 4.8-10.7 12.8-3.5 12.6-2.7 4-4.3 11.2-4.7 12.5-.8 13.1-2.8 13.7 6.8 11.8 9-10.7 24.8-29.5 32.8-57.5 21.5" transform="translate(-57)" id="path94" fill="#dcdcdc"/><path d="m1403.4 668.6 2.9 19.2 4.3-1-3.7-19c2-11 21.9-24.7 17-37-4.6 2.2-10.4 2.4-13.2 7.7-1.3-5.2-4.6-7.6-8-9.6a21 21 0 0 0-4.5 12.4 20 20 0 0 0-13.6-9.4c-.5 5.8-1.7 12 .4 16-6.7-1.5-12.5 1.9-18.6 4.3 8 9.2 32.9 7.8 37 16.4Z" transform="translate(-57)" id="path95" fill="#9e282c" stroke="#7a1e22" stroke-width="0.2645829916000366px"/><path d="M1379.7 653.5c17.5 13.7 33.6 2.5 40.2-15-4.4 2-9.5 1.7-13 7 .5-3.3-1.9-6.3-3.6-9.4-2.6 4-4.4 8.1-4.2 13-.9-5.5-5.6-7.3-10-9.5 0 4-1.7 8.6 2 11.3q-5-1-11.4 2.6" transform="translate(-57)" id="path96" fill="#b33031"/><path d="M1374.2 695.7c-1.8-17.2 4.8-17.7 10.1-20.7q2.2-9.5 13.5-8.2c8-9.7 20.4-.4 20 .4 5.4-3.3 12.4-.1 12.7 4.2 14.4 1 12.4 17.1 9.7 18.9-18.2 22.3-40 25-66 5.4Z" transform="translate(-57)" id="path97" fill="#fff" stroke="#dcdcdc" stroke-miterlimit="15.118106999663814"/><path d="M1374.2 695.7c-1.8-17.2 7.1-10.1 12.5-13 1.4-6.5 9.3-9.5 16.7-8.8 8-9.7 14.3 0 13.8.9 5.4-3.3 13-1.6 13.4 2.8 14.4 1 12.3 11 9.6 12.7-18.2 22.3-40 25-66 5.4" transform="translate(-57)" id="path98" fill="#dcdcdc"/><path d="m1408.1 723.3-2.5 20.5 4.7.2 1.6-20.5c5.3-10.8 30-19.2 28.3-33.2-5.4 1-11.5-.6-16 4.1.2-5.7-2.5-9-5.5-12.2a22 22 0 0 0-8.3 11.5 21 21 0 0 0-11.4-13.6c-2.2 5.8-5.2 11.8-4.2 16.6-6.5-3.6-13.6-1.8-20.6-1 5.7 11.7 32 17.5 33.9 27.6Z" transform="translate(-57)" id="path99" fill="#9e282c" stroke="#7a1e22" stroke-miterlimit="15.118106999663814"/><path d="M1387.6 700.8c14.4 19.2 34.4 12.4 46.3-3.7-5.2.7-10.4-1-15.6 3.4 1.5-3.2-.1-7-1-10.7-3.8 3.3-7 7-8.2 12.1.7-5.8-3.7-9-7.6-12.6-1.2 4.1-4.3 8.3-1.1 12.2q-5-2.5-12.8-.7" transform="translate(-57)" id="path100" fill="#b33031"/><path d="M1371.4 740.7c4.2-16.7 10.5-14.9 16.6-15.9q5.3-8 15.4-3.1c10.9-6.4 19.4 6.6 18.7 7.2 6.2-1.2 11.6 4.2 10.5 8.4 13.2 5.8 5.7 20.3 2.7 21-24.8 14.7-46.3 9.9-63.9-17.6Z" transform="translate(-57)" id="path101" fill="#fff" stroke="#dcdcdc" stroke-miterlimit="15.118106569781148"/><path d="M1371.4 740.7c4.2-16.7 10.2-7 16.2-8 3.5-5.5 12-5.6 18.7-2.4 10.8-6.3 13.4 5 12.7 5.6 6.2-1.3 12.7 3 11.5 7.2 13.3 5.8 7.8 14.5 4.8 15.2-24.8 14.7-46.3 9.9-63.9-17.6" transform="translate(-57)" id="path102" fill="#dcdcdc"/><path d="m1393.8 778.3-9.4 18.4 4.4 1.8 8.4-18.7c8.7-8.3 34.7-7.7 38-21.5-5.4-1-10.6-4.5-16.3-1.5 2-5.4.6-9.5-1.1-13.5a22 22 0 0 0-11.7 8 21 21 0 0 0-6.1-16.7c-4 4.7-8.9 9.3-9.6 14.1-5-5.5-12.2-6.2-19-8 1.3 13 24 27.5 22.4 37.6Z" transform="translate(-57)" id="path103" fill="#9e282c" stroke="#7a1e22" stroke-miterlimit="15.118106569781148"/><path d="M1382.2 750.2c7 22.9 28 23.4 44.8 12.4-5.1-1.2-9.5-4.5-15.8-2.2 2.5-2.5 2.2-6.6 2.6-10.4a24 24 0 0 0-11.7 8.6c2.6-5.3-.4-9.8-3-14.5-2.5 3.5-6.8 6.3-5.1 11.1q-3.9-4-11.8-5" transform="translate(-57)" id="path104" fill="#b33031"/><path d="M1352 785.4c8.6-15 14.2-11.6 20.3-10.9q7.3-6.4 15.8 1.1c12-3.1 16.8 11.7 16 12 6.3.5 10 7.2 7.8 10.9 11.2 9.2.1 21.1-3 21-27.9 7.5-47.2-3-56.8-34.1Z" transform="translate(-57)" id="path105" fill="#fff" stroke="#dcdcdc" stroke-miterlimit="15.118106842041016"/><path d="M1352 785.4c8.6-15 11.7-4 17.8-3.4 4.9-4.3 13-2.2 18.7 2.7 12.1-3.2 11.5 8.4 10.7 8.8 6.3.4 11.5 6.3 9.2 10 11.2 9.2 3.6 16.1.4 16-27.8 7.5-47.1-3-56.7-34.1" transform="translate(-57)" id="path106" fill="#dcdcdc"/><path d="m1363.5 827.6-14 15.2 3.7 3 13.3-15.9c10.5-5.6 35.4 2 42.3-10.4-5-2.4-9-7.2-15.3-6 3.4-4.6 3.1-8.9 2.5-13.1a22 22 0 0 0-13.4 4.5 21 21 0 0 0-1.4-17.7c-5 3.4-11 6.5-13 11-3.2-6.7-10-9.3-16.1-12.8-2.3 12.9 15.7 32.9 11.4 42.2Z" transform="translate(-57)" id="path107" fill="#9e282c" stroke="#7a1e22" stroke-miterlimit="15.118106842041016"/><path d="M1360 797.4c.5 24 20.7 30 39.7 24-4.6-2.5-7.9-7-14.6-6.3 3-1.8 4-5.9 5.3-9.4-5 .5-9.7 1.7-13.6 5.1 4-4.3 2.3-9.5 1-14.7-3.3 2.7-8.2 4.2-7.9 9.3-1.6-3.4-5.2-6-10-8" transform="translate(-57)" id="path108" fill="#b33031"/><path d="M1200 755.1c-88.2 0-56.5 85.5-93.7 94.8-25.8-.9-19.5-67.6-76.3-2.7-57.4 56.8-133.5 79-135.3 102.5h610.6c-1.8-23.4-77.9-45.7-135.2-102.5-56.8-64.9-50.6 1.8-76.3 2.7-37.2-9.3-5.6-94.8-93.8-94.8" transform="translate(-57)" style="isolation:isolate" id="path109" fill="#010101" opacity="0.9980000257492065"/><path d="M949.7 942.1h500.6a215 215 0 0 1-12.6 35c-41 89.2-136.8 143-237.7 142.7-101 .3-196.8-53.5-237.8-142.7a215 215 0 0 1-8.5-21.5q-2.2-6.7-4-13.5" transform="translate(-57)" style="isolation:isolate" id="path110" fill="#2e3488" opacity="0.9980000257492065"/><path d="M1052.7 985.4c-7.3 0-12.6 2.6-17.6 4.7a44 44 0 0 1-19.3 4c-8.8 0-12.4-2.5-18.4-5.1s-17.3-4.7-30.4-2l1.8 8.8c11.7-2.3 19.8-.8 25 1.5s11.3 5.9 22 5.9a55 55 0 0 0 22.8-4.8c5.4-2.2 8.8-4 14.1-4 9.1 0 16.5 2.4 23.5 5s13.6 5.4 21.2 5.4 13-2.9 17.7-5.1 9.1-4.2 16.5-4 11.4 2.4 16.7 4.8a48 48 0 0 0 21.8 5.2h.2c10.3-.4 15.3-3 18.5-5s4-3.1 11.1-3.1 8 1 11.2 3 8.2 4.7 18.5 5.1h.2c10 0 16.5-2.7 21.8-5.2s9.3-4.5 16.7-4.7 11.7 1.6 16.5 3.9 10.2 5.1 17.7 5.1 14.2-2.9 21.2-5.5 14.4-4.9 23.5-4.9c5.2 0 8.7 1.8 14 4a55 55 0 0 0 22.9 4.8c10.7 0 16.8-3.6 22-5.9s13.4-3.8 25.1-1.5l1.8-8.9c-13.1-2.6-24.7-.5-30.6 2s-9.5 5.2-18.4 5.2a45 45 0 0 1-19.3-4c-5-2.1-10.2-4.7-17.5-4.7-10.7 0-19.4 2.8-26.6 5.4s-13 5-18.1 5-8.8-2-13.8-4.3-11.6-5.1-20.7-4.8-15 3.2-20.2 5.6-9.6 4.3-18 4.3c-8.9-.4-10.9-1.8-13.8-3.6s-7.4-4.5-16-4.5-13.1 2.6-16 4.5-5 3.2-14 3.6c-8.3 0-12.8-2-17.9-4.3s-11-5.3-20.2-5.6-15.6 2.4-20.7 4.8-8.6 4.2-13.8 4.2c-5 0-10.9-2.3-18.1-4.9s-15.9-5.5-26.6-5.4" transform="translate(-57)" style="isolation:isolate" id="path111" fill="#fff" opacity="0.9990000128746033"/><path d="M1159.2 1042.2c-10.6 0-17.4 4.2-22.7 7.4s-9.3 5.6-18.8 5.6a39 39 0 0 1-19.9-4.8c-5.2-2.6-11-6.1-19.7-6.3-19 2-34.1 10-53 14.4l5.6 10.5c16.2-1.5 31.1-13 47.1-13 5.7 0 9 2.1 14.7 5a53 53 0 0 0 25.2 6c11.9 0 19.4-4 24.9-7.3s8.8-5.7 16.6-5.7 11.5 2.5 17.4 5.8a49 49 0 0 0 51.6 0c5.9-3.3 9.6-5.8 17.4-5.8s11 2.3 16.6 5.7 13 7.3 24.9 7.3a53 53 0 0 0 25.1-6c5.7-2.9 9-5 14.7-5 15.4 2 27.5 8.2 42.3 13l5.6-10.5c-16-4.3-32.3-14.5-48.2-14.4-8.6.2-14.5 3.7-19.7 6.3a39 39 0 0 1-19.8 4.8c-9.5 0-13.6-2.4-18.9-5.6s-12-7.4-22.6-7.4-17.6 4.2-23.3 7.4-10.2 5.8-20 5.8-14.2-2.6-19.9-5.8-12.6-7.4-23.2-7.4m-47.5 35.8c-21.4 0-33.7 6-48.6 8.7l2 11.6c16.8-3 27.4-8.5 46.6-8.5 6.4 0 8 1.4 12.7 3.7s11.7 5 24.3 5 18.4-2.7 23.8-4.8 11.6-4 29.8-4 24.5 2 30 4 11 4.8 23.7 4.8 19.6-2.6 24.3-5 6.3-3.7 12.7-3.7c19.2 0 29.8 5.5 46.5 8.5l2.1-11.6c-15-2.7-27.2-8.7-48.6-8.7-8.7 0-13.9 3-17.9 5s-8 3.7-19.1 3.7-13.5-1.7-19.6-4-14.8-4.8-34-4.8-28 2.5-34.1 4.8-8.4 4-19.6 4-15-1.8-19.1-3.8-9.2-5-18-5" transform="translate(-57)" style="isolation:isolate" id="path112" fill="#fff" opacity="0.9980000257492065"/><path d="M983.4 944.1a68 68 0 0 0-21.6 3.2c-4.5 1.4-6.4 2.2-13 2.2v12.3a56 56 0 0 0 18.6-3.2c4-1.3 7.1-2.2 16-2.2s12 1 16 2.2a57 57 0 0 0 37.3 0c4-1.3 7-2.2 16-2.2s12 1 16 2.2a57 57 0 0 0 37.2 0c4.1-1.3 7.2-2.2 16-2.2s12 1 16.1 2.2a56 56 0 0 0 18.6 3.2c8.9 0 15-1.6 21.1-3a123 123 0 0 1 49.3 0c6 1.3 12.2 3 21 3a56 56 0 0 0 18.7-3.2c4-1.3 7.1-2.2 16-2.2s12 1 16 2.2a57 57 0 0 0 37.3 0c4-1.3 7-2.2 16-2.2s12 1 16 2.2a57 57 0 0 0 37.2 0c4.1-1.3 7.2-2.2 16.1-2.2s12 1 16 2.2a56 56 0 0 0 18.7 3.2v-12.3c-6.7 0-8.5-.8-13-2.2a76 76 0 0 0-43.4 0c-4.5 1.4-6.3 2.2-13 2.2s-8.4-.8-12.9-2.2a76 76 0 0 0-43.3 0c-4.5 1.4-6.4 2.2-13 2.2s-8.5-.8-13-2.2a76 76 0 0 0-43.3 0c-4.5 1.4-6.4 2.2-13 2.2s-10.6-1-17.1-2.5a142 142 0 0 0-57.2 0c-6.5 1.4-10.5 2.5-17.1 2.5s-8.5-.8-13-2.2a76 76 0 0 0-43.4 0c-4.5 1.4-6.3 2.2-13 2.2s-8.4-.8-12.9-2.2a76 76 0 0 0-43.3 0c-4.5 1.4-6.4 2.2-13 2.2s-8.5-.8-13-2.2a67 67 0 0 0-21.6-3.2Z" transform="translate(-57)" style="isolation:isolate" id="path113" fill="#fff" opacity="0.9960039854049683"/><path d="m949.7 942.1-45 6.3 16.7 46.5 18.6-5.4 10.6 19.7-16.3 9.9 30.4 40.5 16-9.7 16.3 16.3-12.5 13.5 41.6 31.4 12.4-13.4 20.6 11.7-8 16 49.7 20 7.8-16 23.4 6.3-2.7 17.1 53.8 6.8 2.6-16.9 14.2.3 14.3-.3 2.7 17 53.7-6.9-2.7-17.1 23.4-6.2 7.9 15.8 49.6-19.9-8-16 20.6-11.7 12.5 13.4 41.6-31.4-12.5-13.5 16.2-16.3 16 9.7 30.4-40.5-16.3-9.9 10.6-19.7 18.6 5.4 16.8-46.5-45-6.3a215 215 0 0 1-12.6 35c-41 89.2-136.8 143-237.7 142.7-101 .3-196.8-53.5-237.8-142.7a215 215 0 0 1-12.5-35Z" transform="translate(-57)" style="isolation:isolate" id="path114" fill="#a8a8a8" stroke="#797c7c" stroke-miterlimit="36.43996975005575" stroke-width="1.5787161955397973px" opacity="0.9980000257492065"/><path d="m1150 659.8-21.3 250.7h142.6L1250 659.8z" transform="translate(-57)" style="isolation:isolate" id="path115" fill="#fff" stroke="#d3d3d3" stroke-linecap="round" stroke-miterlimit="15.118106842041016" fill-rule="evenodd" opacity="0.9950000047683716"/><path d="M1058.4 910.6h283.2v12.7h-283.2Z" transform="translate(-57)" style="isolation:isolate" id="path116" fill="#fff" stroke="#d3d3d3" stroke-linecap="round" stroke-miterlimit="15.118106842041016" stroke-width="0.8802139566333693px" fill-rule="evenodd" opacity="0.9950000047683716"/><path d="M1072.5 923.1h255V936h-255Z" transform="translate(-57)" style="isolation:isolate" id="path117" fill="#fff" stroke="#d3d3d3" stroke-linecap="round" stroke-miterlimit="15.118106842041016" stroke-width="0.8379890970985997px" fill-rule="evenodd" opacity="0.9950000047683716"/><path d="m1182.3 659.8-15.6 242.8" transform="translate(-57)" id="path118" fill="#fff" stroke="#d3d3d3" stroke-miterlimit="15.118106842041016"/><path d="m1217.7 659.8 15.6 242.8" transform="translate(-57)" id="path119" fill="#fff" stroke="#d3d3d3" stroke-miterlimit="15.118106842041016"/><path d="m1179.2 707 7-10.3 6.9 10.4" transform="translate(-57)" style="isolation:isolate" id="path120" fill="none" stroke="#d3d3d3" stroke-linecap="round" stroke-miterlimit="15.118106842041016" stroke-width="0.4087558057668659px" opacity="0.9950000047683716"/><path d="m1193 707 7-10.3 7 10.4" transform="translate(-57)" style="isolation:isolate" id="path121" fill="none" stroke="#d3d3d3" stroke-linecap="round" stroke-miterlimit="15.118106842041016" stroke-width="0.4087558057668659px" opacity="0.9950000047683716"/><path d="m1207 707 6.8-10.3 7 10.4" transform="translate(-57)" style="isolation:isolate" id="path122" fill="none" stroke="#d3d3d3" stroke-linecap="round" stroke-miterlimit="15.118106842041016" stroke-width="0.4087558057668659px" opacity="0.9950000047683716"/><path d="m1220.8 707 5.5-10.3 5.6 10.4" transform="translate(-57)" style="isolation:isolate" id="path123" fill="none" stroke="#d3d3d3" stroke-linecap="round" stroke-miterlimit="15.118106842041016" stroke-width="0.3668318041290135px" opacity="0.9950000047683716"/><path d="m1231.9 707 5.6-10.3 5.5 10.4" transform="translate(-57)" style="isolation:isolate" id="path124" fill="none" stroke="#d3d3d3" stroke-linecap="round" stroke-miterlimit="15.118106842041016" stroke-width="0.3668318041290135px" opacity="0.9950000047683716"/><path d="m1243 707 5.6-10.3 5.6 10.4" transform="translate(-57)" style="isolation:isolate" id="path125" fill="none" stroke="#d3d3d3" stroke-linecap="round" stroke-miterlimit="15.118106842041016" stroke-width="0.3668318041290135px" opacity="0.9950000047683716"/><path d="m1145.8 707 5.6-10.3 5.6 10.4" transform="translate(-57)" style="isolation:isolate" id="path126" fill="none" stroke="#d3d3d3" stroke-linecap="round" stroke-miterlimit="15.118106842041016" stroke-width="0.3668318041290135px" opacity="0.9950000047683716"/><path d="m1157 707 5.5-10.3 5.6 10.4" transform="translate(-57)" style="isolation:isolate" id="path127" fill="none" stroke="#d3d3d3" stroke-linecap="round" stroke-miterlimit="15.118106842041016" stroke-width="0.3668318041290135px" opacity="0.9950000047683716"/><path d="m1168.1 707 5.6-10.3 5.5 10.4" transform="translate(-57)" style="isolation:isolate" id="path128" fill="none" stroke="#d3d3d3" stroke-linecap="round" stroke-miterlimit="15.118106842041016" stroke-width="0.3668318041290135px" opacity="0.9950000047683716"/><path d="M1147.7 686h104.6l-2.2-26.2h-100.2Z" transform="translate(-57)" id="path129" fill="#fff" stroke="#d3d3d3" stroke-miterlimit="15.118106842041016" stroke-width="0.5000011568069738px"/><path d="M1148 682.9h104" transform="translate(-57)" id="path130" fill="#fff" stroke="#d3d3d3" stroke-miterlimit="15.118106842041016" stroke-width="0.5000011568069738px"/><path d="M1251.8 680h-103.6" transform="translate(-57)" id="path131" fill="#fff" stroke="#d3d3d3" stroke-miterlimit="15.118106842041016" stroke-width="0.5000011568069738px"/><path d="M1251.6 677.6h-103.2" transform="translate(-57)" id="path132" fill="#fff" stroke="#d3d3d3" stroke-miterlimit="15.118106842041016" stroke-width="0.5000011568069738px"/><path d="M1251.4 675.6h-102.8" transform="translate(-57)" id="path133" fill="#fff" stroke="#d3d3d3" stroke-miterlimit="15.118106842041016"/><path d="M1148.9 672.1H1251" transform="translate(-57)" id="path134" fill="#fff" stroke="#d3d3d3" stroke-miterlimit="15.118106842041016" stroke-width="0.5000011568069738px"/><path d="M1250.9 669.2H1149" transform="translate(-57)" id="path135" fill="#fff" stroke="#d3d3d3" stroke-miterlimit="15.118106842041016" stroke-width="0.5000011568069738px"/><path d="M1149.4 665.8h101.2" transform="translate(-57)" id="path136" fill="#fff" stroke="#d3d3d3" stroke-miterlimit="15.118106842041016" stroke-width="0.5000011568069738px"/><path d="M1250.3 662.4h-100.6" transform="translate(-57)" id="path137" fill="#fff" stroke="#d3d3d3" stroke-miterlimit="15.118106842041016" stroke-width="0.5000011568069738px"/><path d="M1135.7 635.4v12l14.2 12.4h100.2l14.2-12.4v-12z" transform="translate(-57)" id="path138" fill="#fff" stroke="#d3d3d3"/><path d="M1253 657.2h-106" transform="translate(-57)" id="path139" fill="#fff" stroke="#d3d3d3" stroke-miterlimit="15.118106842041016" stroke-width="0.5000011568069738px"/><path d="M1255.8 654.8h-111.6" transform="translate(-57)" id="path140" fill="#fff" stroke="#d3d3d3" stroke-miterlimit="15.118106842041016" stroke-width="0.5000011568069738px"/><path d="M1141.4 652.3h117.3" transform="translate(-57)" id="path141" fill="#fff" stroke="#d3d3d3" stroke-miterlimit="15.118106842041016" stroke-width="0.5000011568069738px"/><path d="M1134.2 902.6h42.4v-62c-9.1-6.9-18.1-15.9-27.8-9.1l-.2 3.5c7.5-1.9 8.4 1.9 9.5 5.3-1.8 1.6-2.5-1.4-6 7-3-1.3-4.2-3.6-12-2.6l-.1 6c9.2-.2 10.8 7.1 6.5 9.3-2.2 4 1.1 3.2 2.2 4.4v38.4" transform="translate(-57)" style="isolation:isolate" id="path142" fill="#fff" stroke="#d3d3d3" stroke-miterlimit="15.118106842041016" stroke-width="0.24566922717207262px" opacity="0.9980000257492065"/><path d="M1159.4 863.5h33.4v39.1h-33.4Z" transform="translate(-57)" style="isolation:isolate" id="path143" fill="#fff" stroke="#d3d3d3" stroke-miterlimit="15.118106842041016" stroke-width="0.7333264243889062px" opacity="0.9990000128746033"/><path d="M1159.5 857h33.3v6.5h-33.3Z" transform="translate(-57)" style="isolation:isolate" id="path144" fill="#fff" stroke="#d3d3d3" stroke-miterlimit="15.118106842041016" stroke-width="0.7333264243889062px" opacity="0.9990000128746033"/><path d="M1159.5 852.8h33.3v4.2h-33.3Z" transform="translate(-57)" style="isolation:isolate" id="path145" fill="#fff" stroke="#d3d3d3" stroke-miterlimit="15.118106842041016" stroke-width="0.7333264243889062px" opacity="0.9990000128746033"/><path d="M1192.8 852.8v-7.6h-27c-4.1 1.2-5.8 4-6.3 7.6Z" transform="translate(-57)" style="isolation:isolate" id="path146" fill="#fff" stroke="#d3d3d3" stroke-miterlimit="15.118106842041016" stroke-width="0.7333264243889062px" opacity="0.9990000128746033"/><path d="M1192.8 845.2v-7.6h-22.4q-5.8 2-6.2 7.6Z" transform="translate(-57)" style="isolation:isolate" id="path147" fill="#fff" stroke="#d3d3d3" stroke-miterlimit="15.118106842041016" stroke-width="0.7333264243889062px" opacity="0.9990000128746033"/><path d="M1192.8 837.6V830h-18.2c-4 1.2-5.7 4-6.2 7.6Z" transform="translate(-57)" style="isolation:isolate" id="path148" fill="#fff" stroke="#d3d3d3" stroke-miterlimit="15.118106842041016" stroke-width="0.7333264243889062px" opacity="0.9990000128746033"/><path d="M1192.8 830v-7.6h-13.2c-4 1.2-5.8 4-6.2 7.6Z" transform="translate(-57)" style="isolation:isolate" id="path149" fill="#fff" stroke="#d3d3d3" stroke-miterlimit="15.118106842041016" stroke-width="0.7333264243889062px" opacity="0.9990000128746033"/><path d="M1192.8 822.4v-5.6h-9q-4 1.6-4.2 5.6Z" transform="translate(-57)" style="isolation:isolate" id="path150" fill="#fff" stroke="#d3d3d3" stroke-miterlimit="15.118106842041016" stroke-width="0.7333264243889062px" opacity="0.9990000128746033"/><path d="M1165.5 869.5v27.1h21.4v-27Z" transform="translate(-57)" style="isolation:isolate" id="path151" fill="#fff" stroke="#d3d3d3" stroke-miterlimit="15.118106842041016" stroke-width="0.7333264243889062px" opacity="0.9990000128746033"/><path d="M1171.7 875.8v14.6h9v-14.6Z" transform="translate(-57)" style="isolation:isolate" id="path152" fill="#fff" stroke="#d3d3d3" stroke-miterlimit="15.118106842041016" stroke-width="0.7333264243889062px" opacity="0.9990000128746033"/><path style="isolation:isolate" id="rect152" d="M1022.3 902.6h113.6v7.9h-113.6z" fill="#fff" stroke="#d3d3d3" stroke-linecap="round" stroke-miterlimit="15.118106842041016" stroke-width="0.7062347959161457px" opacity="0.9950000047683716"/><path d="M1265.8 902.6h-42.4v-62c9.1-6.9 18.1-15.9 27.8-9.1l.2 3.5c-7.5-1.9-8.4 1.9-9.5 5.3 1.8 1.6 2.5-1.4 6 7 3-1.3 4.2-3.6 12-2.6l.1 6c-9.2-.2-10.8 7.1-6.5 9.3 2.2 4-1.1 3.2-2.2 4.4v38.4" transform="translate(-57)" style="isolation:isolate" id="path153" fill="#fff" stroke="#d3d3d3" stroke-miterlimit="15.118106842041016" stroke-width="0.24566922717207262px" opacity="0.9980000257492065"/><path d="M1240.6 863.5h-33.4v39.1h33.4Z" transform="translate(-57)" style="isolation:isolate" id="path154" fill="#fff" stroke="#d3d3d3" stroke-miterlimit="15.118106842041016" stroke-width="0.7333264243889062px" opacity="0.9990000128746033"/><path d="M1240.5 857h-33.3v6.5h33.3Z" transform="translate(-57)" style="isolation:isolate" id="path155" fill="#fff" stroke="#d3d3d3" stroke-miterlimit="15.118106842041016" stroke-width="0.7333264243889062px" opacity="0.9990000128746033"/><path d="M1240.5 852.8h-33.3v4.2h33.3Z" transform="translate(-57)" style="isolation:isolate" id="path156" fill="#fff" stroke="#d3d3d3" stroke-miterlimit="15.118106842041016" stroke-width="0.7333264243889062px" opacity="0.9990000128746033"/><path d="M1207.2 852.8v-7.6h27c4.1 1.2 5.8 4 6.3 7.6Z" transform="translate(-57)" style="isolation:isolate" id="path157" fill="#fff" stroke="#d3d3d3" stroke-miterlimit="15.118106842041016" stroke-width="0.7333264243889062px" opacity="0.9990000128746033"/><path d="M1207.2 845.2v-7.6h22.4q5.8 2 6.2 7.6Z" transform="translate(-57)" style="isolation:isolate" id="path158" fill="#fff" stroke="#d3d3d3" stroke-miterlimit="15.118106842041016" stroke-width="0.7333264243889062px" opacity="0.9990000128746033"/><path d="M1207.2 837.6V830h18.2c4 1.2 5.7 4 6.2 7.6Z" transform="translate(-57)" style="isolation:isolate" id="path159" fill="#fff" stroke="#d3d3d3" stroke-miterlimit="15.118106842041016" stroke-width="0.7333264243889062px" opacity="0.9990000128746033"/><path d="M1207.2 830v-7.6h13.2c4 1.2 5.8 4 6.2 7.6Z" transform="translate(-57)" style="isolation:isolate" id="path160" fill="#fff" stroke="#d3d3d3" stroke-miterlimit="15.118106842041016" stroke-width="0.7333264243889062px" opacity="0.9990000128746033"/><path d="M1207.2 822.4v-5.6h9q4 1.6 4.2 5.6Z" transform="translate(-57)" style="isolation:isolate" id="path161" fill="#fff" stroke="#d3d3d3" stroke-miterlimit="15.118106842041016" stroke-width="0.7333264243889062px" opacity="0.9990000128746033"/><path d="M1234.5 869.5v27.1H1213v-27Z" transform="translate(-57)" style="isolation:isolate" id="path162" fill="#fff" stroke="#d3d3d3" stroke-miterlimit="15.118106842041016" stroke-width="0.7333264243889062px" opacity="0.9990000128746033"/><path d="M1228.3 875.8v14.6h-9v-14.6Z" transform="translate(-57)" style="isolation:isolate" id="path163" fill="#fff" stroke="#d3d3d3" stroke-miterlimit="15.118106842041016" stroke-width="0.7333264243889062px" opacity="0.9990000128746033"/><path style="isolation:isolate" id="rect163" d="M1150.1 902.6h113.6v7.9h-113.6z" fill="#fff" stroke="#d3d3d3" stroke-linecap="round" stroke-miterlimit="15.118106842041016" stroke-width="0.7062347959161457px" opacity="0.9950000047683716"/><path style="isolation:isolate" id="rect164" d="M1078.7 643.6h128.6v3.8h-128.6z" fill="#fff" stroke="#d3d3d3" stroke-linecap="round" stroke-miterlimit="3.779526710510254" opacity="0.9950000047683716"/><path d="m1180.6 686 1.7-26.2-14.2-16.2v-8.2" transform="translate(-57)" id="path164" fill="none" stroke="#d3d3d3" stroke-miterlimit="15.118106842041016"/><path d="m1219.4 686-1.7-26.2 14.2-16.2v-8.2" transform="translate(-57)" id="path165" fill="none" stroke="#d3d3d3" stroke-miterlimit="15.118106842041016"/><path style="isolation:isolate" id="rect165" d="M1111.6 614.8h31.4v20.6h-31.4z" fill="#fff" stroke="#d3d3d3" stroke-linecap="round" stroke-miterlimit="15.118106842041016" stroke-width="0.987722558067702px" opacity="0.9890300035476685"/><path style="isolation:isolate" id="rect166" d="M1085.4 614.8h26.2v20.6h-26.2z" fill="#fff" stroke="#d3d3d3" stroke-linecap="round" stroke-miterlimit="15.118106842041016" opacity="0.9890300035476685"/><path style="isolation:isolate" id="rect167" d="M1089.9 614.8h3v20.6h-3z" fill="none" stroke="#d3d3d3" stroke-linecap="round" stroke-miterlimit="15.118106842041016" stroke-width="0.4860811568972281px" opacity="0.9890300035476685"/><path style="isolation:isolate" id="rect168" d="M1092.9 614.8h2.9v20.6h-2.9z" fill="none" stroke="#d3d3d3" stroke-linecap="round" stroke-miterlimit="15.118106842041016" stroke-width="0.4860811568972281px" opacity="0.9890300035476685"/><path style="isolation:isolate" id="rect169" d="M1095.8 614.8h3v20.6h-3z" fill="none" stroke="#d3d3d3" stroke-linecap="round" stroke-miterlimit="15.118106842041016" stroke-width="0.4860811568972281px" opacity="0.9890300035476685"/><path style="isolation:isolate" id="rect170" d="M1098.8 614.8h3v20.6h-3z" fill="none" stroke="#d3d3d3" stroke-linecap="round" stroke-miterlimit="15.118106842041016" stroke-width="0.4860811568972281px" opacity="0.9890300035476685"/><path style="isolation:isolate" id="rect171" d="M1101.8 614.8h2.9v20.6h-2.9z" fill="none" stroke="#d3d3d3" stroke-linecap="round" stroke-miterlimit="15.118106842041016" stroke-width="0.4860811568972281px" opacity="0.9890300035476685"/><path style="isolation:isolate" id="rect172" d="M1104.7 614.8h3v20.6h-3z" fill="none" stroke="#d3d3d3" stroke-linecap="round" stroke-miterlimit="15.118106842041016" stroke-width="0.4860811568972281px" opacity="0.9890300035476685"/><path style="isolation:isolate" id="rect173" d="M1089.9 614.8h3v20.6h-3z" fill="none" stroke="#d3d3d3" stroke-linecap="round" stroke-miterlimit="15.118106842041016" stroke-width="0.4860811568972281px" opacity="0.9890300035476685"/><path style="isolation:isolate" id="rect174" d="M1092.9 614.8h2.9v20.6h-2.9z" fill="none" stroke="#d3d3d3" stroke-linecap="round" stroke-miterlimit="15.118106842041016" stroke-width="0.4860811568972281px" opacity="0.9890300035476685"/><path style="isolation:isolate" id="rect175" d="M1095.8 614.8h3v20.6h-3z" fill="none" stroke="#d3d3d3" stroke-linecap="round" stroke-miterlimit="15.118106842041016" stroke-width="0.4860811568972281px" opacity="0.9890300035476685"/><path style="isolation:isolate" id="rect176" d="M1098.8 614.8h3v20.6h-3z" fill="none" stroke="#d3d3d3" stroke-linecap="round" stroke-miterlimit="15.118106842041016" stroke-width="0.4860811568972281px" opacity="0.9890300035476685"/><path style="isolation:isolate" id="rect177" d="M1101.8 614.8h2.9v20.6h-2.9z" fill="none" stroke="#d3d3d3" stroke-linecap="round" stroke-miterlimit="15.118106842041016" stroke-width="0.4860811568972281px" opacity="0.9890300035476685"/><path style="isolation:isolate" id="rect178" d="M1104.7 614.8h3v20.6h-3z" fill="none" stroke="#d3d3d3" stroke-linecap="round" stroke-miterlimit="15.118106842041016" stroke-width="0.4860811568972281px" opacity="0.9890300035476685"/><path style="isolation:isolate" id="rect179" d="M1115.2 614.3h3v21h-3z" fill="none" stroke="#d3d3d3" stroke-linecap="round" stroke-miterlimit="15.118106842041016" stroke-width="0.5163589392079331px" opacity="0.9890300035476685"/><path style="isolation:isolate" id="rect180" d="M1118.2 614.3h2.9v21h-2.9z" fill="none" stroke="#d3d3d3" stroke-linecap="round" stroke-miterlimit="15.118106842041016" stroke-width="0.5163627126034953px" opacity="0.9890300035476685"/><path style="isolation:isolate" id="rect181" d="M1121.1 614.3h3v21h-3z" fill="none" stroke="#d3d3d3" stroke-linecap="round" stroke-miterlimit="15.118106842041016" stroke-width="0.5163627126034953px" opacity="0.9890300035476685"/><path style="isolation:isolate" id="rect182" d="M1124.1 614.3h2.9v21h-2.9z" fill="none" stroke="#d3d3d3" stroke-linecap="round" stroke-miterlimit="15.118106842041016" stroke-width="0.5163627126034953px" opacity="0.9890300035476685"/><path style="isolation:isolate" id="rect183" d="M1127 614.3h3v21h-3z" fill="none" stroke="#d3d3d3" stroke-linecap="round" stroke-miterlimit="15.118106842041016" stroke-width="0.5163627126034953px" opacity="0.9890300035476685"/><path style="isolation:isolate" id="rect184" d="M1130 614.3h2.9v21h-2.9z" fill="none" stroke="#d3d3d3" stroke-linecap="round" stroke-miterlimit="15.118106842041016" stroke-width="0.5163627126034953px" opacity="0.9890300035476685"/><path style="isolation:isolate" id="rect185" d="M1132.9 614.3h3v21h-3z" fill="none" stroke="#d3d3d3" stroke-linecap="round" stroke-miterlimit="15.118106842041016" stroke-width="0.5163627126034953px" opacity="0.9890300035476685"/><path style="isolation:isolate" id="rect186" d="M1135.9 614.3h2.9v21h-2.9z" fill="none" stroke="#d3d3d3" stroke-linecap="round" stroke-miterlimit="15.118106842041016" stroke-width="0.5163627126034953px" opacity="0.9890300035476685"/><path style="isolation:isolate" id="rect187" d="M1143 614.8h31.4v20.6H1143z" fill="#fff" stroke="#d3d3d3" stroke-linecap="round" stroke-miterlimit="15.118106842041016" stroke-width="0.987722558067702px" opacity="0.9890300035476685"/><path style="isolation:isolate" id="rect188" d="M1174.4 614.8h26.2v20.6h-26.2z" fill="#fff" stroke="#d3d3d3" stroke-linecap="round" stroke-miterlimit="15.118106842041016" opacity="0.9890300035476685"/><path style="isolation:isolate" id="rect189" d="M1193.1 614.8h3v20.6h-3z" fill="none" stroke="#d3d3d3" stroke-linecap="round" stroke-miterlimit="15.118106842041016" stroke-width="0.4860811568972281px" opacity="0.9890300035476685"/><path style="isolation:isolate" id="rect190" d="M1190.2 614.8h2.9v20.6h-2.9z" fill="none" stroke="#d3d3d3" stroke-linecap="round" stroke-miterlimit="15.118106842041016" stroke-width="0.4860811568972281px" opacity="0.9890300035476685"/><path style="isolation:isolate" id="rect191" d="M1187.2 614.8h3v20.6h-3z" fill="none" stroke="#d3d3d3" stroke-linecap="round" stroke-miterlimit="15.118106842041016" stroke-width="0.4860811568972281px" opacity="0.9890300035476685"/><path style="isolation:isolate" id="rect192" d="M1184.2 614.8h3v20.6h-3z" fill="none" stroke="#d3d3d3" stroke-linecap="round" stroke-miterlimit="15.118106842041016" stroke-width="0.4860811568972281px" opacity="0.9890300035476685"/><path style="isolation:isolate" id="rect193" d="M1181.3 614.8h2.9v20.6h-2.9z" fill="none" stroke="#d3d3d3" stroke-linecap="round" stroke-miterlimit="15.118106842041016" stroke-width="0.4860811568972281px" opacity="0.9890300035476685"/><path style="isolation:isolate" id="rect194" d="M1178.3 614.8h3v20.6h-3z" fill="none" stroke="#d3d3d3" stroke-linecap="round" stroke-miterlimit="15.118106842041016" stroke-width="0.4860811568972281px" opacity="0.9890300035476685"/><path style="isolation:isolate" id="rect195" d="M1193.1 614.8h3v20.6h-3z" fill="none" stroke="#d3d3d3" stroke-linecap="round" stroke-miterlimit="15.118106842041016" stroke-width="0.4860811568972281px" opacity="0.9890300035476685"/><path style="isolation:isolate" id="rect196" d="M1190.2 614.8h2.9v20.6h-2.9z" fill="none" stroke="#d3d3d3" stroke-linecap="round" stroke-miterlimit="15.118106842041016" stroke-width="0.4860811568972281px" opacity="0.9890300035476685"/><path style="isolation:isolate" id="rect197" d="M1187.2 614.8h3v20.6h-3z" fill="none" stroke="#d3d3d3" stroke-linecap="round" stroke-miterlimit="15.118106842041016" stroke-width="0.4860811568972281px" opacity="0.9890300035476685"/><path style="isolation:isolate" id="rect198" d="M1184.2 614.8h3v20.6h-3z" fill="none" stroke="#d3d3d3" stroke-linecap="round" stroke-miterlimit="15.118106842041016" stroke-width="0.4860811568972281px" opacity="0.9890300035476685"/><path style="isolation:isolate" id="rect199" d="M1181.3 614.8h2.9v20.6h-2.9z" fill="none" stroke="#d3d3d3" stroke-linecap="round" stroke-miterlimit="15.118106842041016" stroke-width="0.4860811568972281px" opacity="0.9890300035476685"/><path style="isolation:isolate" id="rect200" d="M1178.3 614.8h3v20.6h-3z" fill="none" stroke="#d3d3d3" stroke-linecap="round" stroke-miterlimit="15.118106842041016" stroke-width="0.4860811568972281px" opacity="0.9890300035476685"/><path style="isolation:isolate" id="rect201" d="M1167.8 614.3h3v21h-3z" fill="none" stroke="#d3d3d3" stroke-linecap="round" stroke-miterlimit="15.118106842041016" stroke-width="0.5163589392079331px" opacity="0.9890300035476685"/><path style="isolation:isolate" id="rect202" d="M1164.9 614.3h2.9v21h-2.9z" fill="none" stroke="#d3d3d3" stroke-linecap="round" stroke-miterlimit="15.118106842041016" stroke-width="0.5163627126034953px" opacity="0.9890300035476685"/><path style="isolation:isolate" id="rect203" d="M1161.9 614.3h3v21h-3z" fill="none" stroke="#d3d3d3" stroke-linecap="round" stroke-miterlimit="15.118106842041016" stroke-width="0.5163627126034953px" opacity="0.9890300035476685"/><path style="isolation:isolate" id="rect204" d="M1159 614.3h2.9v21h-2.9z" fill="none" stroke="#d3d3d3" stroke-linecap="round" stroke-miterlimit="15.118106842041016" stroke-width="0.5163627126034953px" opacity="0.9890300035476685"/><path style="isolation:isolate" id="rect205" d="M1156 614.3h3v21h-3z" fill="none" stroke="#d3d3d3" stroke-linecap="round" stroke-miterlimit="15.118106842041016" stroke-width="0.5163627126034953px" opacity="0.9890300035476685"/><path style="isolation:isolate" id="rect206" d="M1153.1 614.3h2.9v21h-2.9z" fill="none" stroke="#d3d3d3" stroke-linecap="round" stroke-miterlimit="15.118106842041016" stroke-width="0.5163627126034953px" opacity="0.9890300035476685"/><path style="isolation:isolate" id="rect207" d="M1150.1 614.3h3v21h-3z" fill="none" stroke="#d3d3d3" stroke-linecap="round" stroke-miterlimit="15.118106842041016" stroke-width="0.5163627126034953px" opacity="0.9890300035476685"/><path style="isolation:isolate" id="rect208" d="M1147.2 614.3h2.9v21h-2.9z" fill="none" stroke="#d3d3d3" stroke-linecap="round" stroke-miterlimit="15.118106842041016" stroke-width="0.5163627126034953px" opacity="0.9890300035476685"/><path d="M1167.4 602.1c-5.5 3.3-9.2 7.2-9.4 12.2h84c-.2-5-4-9-9.4-12.2z" transform="translate(-57)" id="path208" fill="#fff" stroke="#d3d3d3" stroke-miterlimit="15.118106842041016"/><path d="M1157.4 584c0 9.6 10 10.5 10 18.1h65.2c0-7.6 10-8.5 10-18z" transform="translate(-57)" id="path209" fill="#fff" stroke="#d3d3d3" stroke-miterlimit="15.118106842041016"/><path style="isolation:isolate" id="rect209" d="M1100.2 574.4h24.5v9.7h-24.5z" fill="#fff" stroke="#d3d3d3" stroke-linecap="round" stroke-miterlimit="15.118106842041016" opacity="0.9940000176429749"/><path style="isolation:isolate" id="rect210" d="M1103.1 574.5h2.7v9.6h-2.7z" fill="none" stroke="#d3d3d3" stroke-linecap="round" stroke-miterlimit="15.118106842041016" stroke-width="0.5691476167368563px" opacity="0.9940000176429749"/><path style="isolation:isolate" id="rect211" d="M1105.8 574.5h2.7v9.6h-2.7z" fill="none" stroke="#d3d3d3" stroke-linecap="round" stroke-miterlimit="15.118106842041016" stroke-width="0.5691476167368563px" opacity="0.9940000176429749"/><path style="isolation:isolate" id="rect212" d="M1108.5 574.5h2.7v9.6h-2.7z" fill="none" stroke="#d3d3d3" stroke-linecap="round" stroke-miterlimit="15.118106842041016" stroke-width="0.5691476167368563px" opacity="0.9940000176429749"/><path style="isolation:isolate" id="rect213" d="M1111.2 574.5h2.8v9.6h-2.8z" fill="none" stroke="#d3d3d3" stroke-linecap="round" stroke-miterlimit="15.118106842041016" stroke-width="0.5691476167368563px" opacity="0.9940000176429749"/><path style="isolation:isolate" id="rect214" d="M1113.8 574.5h2.7v9.6h-2.7z" fill="none" stroke="#d3d3d3" stroke-linecap="round" stroke-miterlimit="15.118106842041016" stroke-width="0.5691476167368563px" opacity="0.9940000176429749"/><path style="isolation:isolate" id="rect215" d="M1116.5 574.5h2.7v9.6h-2.7z" fill="none" stroke="#d3d3d3" stroke-linecap="round" stroke-miterlimit="15.118106842041016" stroke-width="0.5691476167368563px" opacity="0.9940000176429749"/><path style="isolation:isolate" id="rect216" d="M1119.2 574.5h2.7v9.6h-2.7z" fill="none" stroke="#d3d3d3" stroke-linecap="round" stroke-miterlimit="15.118106842041016" stroke-width="0.5691476167368563px" opacity="0.9940000176429749"/><path style="isolation:isolate" id="rect217" d="M1161.3 574.4h24.5v9.7h-24.5z" fill="#fff" stroke="#d3d3d3" stroke-linecap="round" stroke-miterlimit="15.118106842041016" opacity="0.9940000176429749"/><path style="isolation:isolate" id="rect218" d="M1164.2 574.5h2.7v9.6h-2.7z" fill="none" stroke="#d3d3d3" stroke-linecap="round" stroke-miterlimit="15.118106842041016" stroke-width="0.5691476167368563px" opacity="0.9940000176429749"/><path style="isolation:isolate" id="rect219" d="M1166.9 574.5h2.8v9.6h-2.8z" fill="none" stroke="#d3d3d3" stroke-linecap="round" stroke-miterlimit="15.118106842041016" stroke-width="0.5691476167368563px" opacity="0.9940000176429749"/><path style="isolation:isolate" id="rect220" d="M1169.7 574.5h2.7v9.6h-2.7z" fill="none" stroke="#d3d3d3" stroke-linecap="round" stroke-miterlimit="15.118106842041016" stroke-width="0.5691476167368563px" opacity="0.9940000176429749"/><path style="isolation:isolate" id="rect221" d="M1172.4 574.5h2.7v9.6h-2.7z" fill="none" stroke="#d3d3d3" stroke-linecap="round" stroke-miterlimit="15.118106842041016" stroke-width="0.5691476167368563px" opacity="0.9940000176429749"/><path style="isolation:isolate" id="rect222" d="M1174.9 574.5h2.7v9.6h-2.7z" fill="none" stroke="#d3d3d3" stroke-linecap="round" stroke-miterlimit="15.118106842041016" stroke-width="0.5691476167368563px" opacity="0.9940000176429749"/><path style="isolation:isolate" id="rect223" d="M1177.6 574.5h2.7v9.6h-2.7z" fill="none" stroke="#d3d3d3" stroke-linecap="round" stroke-miterlimit="15.118106842041016" stroke-width="0.5691476167368563px" opacity="0.9940000176429749"/><path style="isolation:isolate" id="rect224" d="M1180.3 574.5h2.7v9.6h-2.7z" fill="none" stroke="#d3d3d3" stroke-linecap="round" stroke-miterlimit="15.118106842041016" stroke-width="0.5691476167368563px" opacity="0.9940000176429749"/><path style="isolation:isolate" id="rect225" d="M1124.7 574.4h36.6v9.7h-36.6z" fill="#fff" stroke="#d3d3d3" stroke-linecap="round" stroke-miterlimit="15.118106842041016" opacity="0.9940000176429749"/><path style="isolation:isolate" id="rect226" d="M1129 574.4h2.5v9.7h-2.5z" fill="none" stroke="#d3d3d3" stroke-linecap="round" stroke-miterlimit="15.118106842041016" stroke-width="0.4962972029869519px" opacity="0.9940000176429749"/><path style="isolation:isolate" id="rect227" d="M1131.5 574.4h2.6v9.7h-2.6z" fill="none" stroke="#d3d3d3" stroke-linecap="round" stroke-miterlimit="15.118106842041016" stroke-width="0.4962972029869519px" opacity="0.9940000176429749"/><path style="isolation:isolate" id="rect228" d="M1134.1 574.4h2.6v9.7h-2.6z" fill="none" stroke="#d3d3d3" stroke-linecap="round" stroke-miterlimit="15.118106842041016" stroke-width="0.4962972029869519px" opacity="0.9940000176429749"/><path style="isolation:isolate" id="rect229" d="M1136.7 574.4h2.6v9.7h-2.6z" fill="none" stroke="#d3d3d3" stroke-linecap="round" stroke-miterlimit="15.118106842041016" stroke-width="0.4962972029869519px" opacity="0.9940000176429749"/><path style="isolation:isolate" id="rect230" d="M1139.3 574.4h2.5v9.7h-2.5z" fill="none" stroke="#d3d3d3" stroke-linecap="round" stroke-miterlimit="15.118106842041016" stroke-width="0.4962972029869519px" opacity="0.9940000176429749"/><path style="isolation:isolate" id="rect231" d="M1141.8 574.4h2.6v9.7h-2.6z" fill="none" stroke="#d3d3d3" stroke-linecap="round" stroke-miterlimit="15.118106842041016" stroke-width="0.4962972029869519px" opacity="0.9940000176429749"/><path style="isolation:isolate" id="rect232" d="M1144.4 574.4h2.6v9.7h-2.6z" fill="none" stroke="#d3d3d3" stroke-linecap="round" stroke-miterlimit="15.118106842041016" stroke-width="0.4962972029869519px" opacity="0.9940000176429749"/><path style="isolation:isolate" id="rect233" d="M1147 574.4h2.5v9.7h-2.5z" fill="none" stroke="#d3d3d3" stroke-linecap="round" stroke-miterlimit="15.118106842041016" stroke-width="0.4962972029869519px" opacity="0.9940000176429749"/><path style="isolation:isolate" id="rect234" d="M1149.5 574.4h2.6v9.7h-2.6z" fill="none" stroke="#d3d3d3" stroke-linecap="round" stroke-miterlimit="15.118106842041016" stroke-width="0.4962972029869519px" opacity="0.9940000176429749"/><path style="isolation:isolate" id="rect235" d="M1152.1 574.4h2.6v9.7h-2.6z" fill="none" stroke="#d3d3d3" stroke-linecap="round" stroke-miterlimit="15.118106842041016" stroke-width="0.4962972029869519px" opacity="0.9940000176429749"/><path style="isolation:isolate" id="rect236" d="M1154.7 574.4h2.6v9.7h-2.6z" fill="none" stroke="#d3d3d3" stroke-linecap="round" stroke-miterlimit="15.118106842041016" stroke-width="0.4962972029869519px" opacity="0.9940000176429749"/><path d="M1193.1 537c-3-4.4-1.8-9.2-.5-14l.7 4c1.7-1.7 2.2-7 2.5-13l1.5 4c1.4-1.1 2.1-5.5 2.7-10 .7 3.8 1.2 7.4 3 10.2 0 0 1.3-3.3 1-3s1.8 12.5 2.4 11.5V523c.4 4.6 5 9.2.4 13.8Z" transform="translate(-57)" id="path236" fill="#e52521" stroke="#bd1818" stroke-miterlimit="15.118106842041016" stroke-width="0.399998655776308px"/><path d="M1187.2 560.6c-8 2.1-10.8 9.7-11.5 13.8h48.6c-.7-4.1-3.5-11.7-11.5-13.8z" transform="translate(-57)" id="path237" fill="#fff" stroke="#d3d3d3"/><path d="M1191.4 543c-9.3 6-7.1 13.8-4.2 17.6h25.6c3-3.8 5-11.7-4.2-17.7z" transform="translate(-57)" id="path238" fill="#fff" stroke="#d3d3d3"/><path d="M1191 537v6h18v-6Z" transform="translate(-57)" style="isolation:isolate" id="path239" fill="#fff" stroke="#d3d3d3" stroke-linecap="round" fill-rule="evenodd" opacity="0.9940000176429749"/><path d="m1200 910.5-187.2 128h374.4Z" transform="translate(-57)" style="isolation:isolate" id="path240" fill="#a8a8a8" stroke="#bdbebe" stroke-miterlimit="36.43996975005575" stroke-width="0.5921494867184914px" opacity="0.9980000257492065"/><path d="M1063.7 1014h19.5l116.8-99.2Z" transform="translate(-57)" style="isolation:isolate" id="path241" fill="#fff" opacity="0.9980000257492065"/><path d="M1194.5 949v.1l-3 .1c-8.2 1-7.5 7.6-14.8 8.6-1.4-2.3-2.6-4.6-5.8-6.7.7 3.3 1.8 6.9-.9 7.7-1.5-2.5-3.8-3.5-6-4.6.3 1.9-1.3 2.3 2.2 6.8-1.7.2-3.4-1.7-5.4 0s-.4 6.6-6.4 11.6c.5-5.2-2.3-8.8-3-13-3.9 5-2.2 9.3-1.5 13.8a5 5 0 0 0-3 3.4c-.4 3.2.6 6.1 1.4 9.1 32.3.8 28.6-14 31.6-17.3 2.5 3.6 2 11-5.6 15.2 2.8 3.2 3.2 4.4 8.4 2.8 3 3.9 6.9 7.3 9.1 11.7 1.2 2.2 1 4.4.8 6.7l4.2 1.6-.3 2.9c-9.6-4.1-6 1.2-8 2.5q5.7-1 9 1c2.5 2.2 6.4 1.4 11.1-1.3l-1.1-2.6c-2.2-5-1.5-9.2-1.1-13.6-2.4.1-2 .6-6.7 1l2 13.1c.2 1-1.5 1.3-1.9.3l-2.7-10.7c-2.3-5-3.5-9.5-7-14.8a45 45 0 0 1 8.4 10.5 21 21 0 0 1 8.5-2.5c1.6-14.9 10-11.1 4.8-28.5 9.2 9.6 5.1 11.3-.2 20.7-1.3 2.3-.7 5.4-1 9.3l13.3-3.8c2.7 1.9 6.9 6.6 2.3 13.9 2.7 0 4 1.4 5.7 2.2 1.3-4.1 3.8-7.7.5-13.7l-3.8-2.7c4.9-7.9 5.3-15.2 6.2-22.7 1.3-.8 2.3-1 2.5.7-2.8 18.9-3.2 19.5-5.7 21.5l8.5 3.2-3 1.4-1.4 9.8 3.5 1 .3 2.8c-5 2.4-7-.8-9.2-1.4-3 2.6-5 .6-7.3 0l-2.1 3c4 .8 6.7 1.8 10.4-.3 2.6 5.2 6.1 2.1 11.6 1.4l-1.6-6.2c3.8-2.8 4.6-8.8 4.5-15.5.6-3.5.4-7.3 2.2-10.2l1.6-2.4 2.6 9c.7-27.8-15.6-32.4-22.3-31.6-11.2 1-15.5.2-25.4-1-4-.6-3.8-3.1-10-3.2m-9.3 12.1a1 1 0 0 1 1 .4c6.2 10.5.2 16.9-1 18.2-.5.5-1.5.5-.6-.5 4.7-5.4 3.7-11 .5-17q-.5-1 .1-1m-21.4 8.8a22 22 0 0 1 4.2.6c-2.4 5.4-3.3 4.8-8.7 3.9 0-3.6 2-4.4 4.5-4.5m-.7 1.4" transform="translate(-57)" style="isolation:isolate" id="path242" fill="#010101" opacity="0.9980000257492065"/><path d="M1336.3 1014h-19.5L1200 914.8Z" transform="translate(-57)" style="isolation:isolate" id="path243" fill="#fff" opacity="0.9980000257492065"/><circle cx="999.8433" cy="1026.3918" r="6.8264" style="isolation:isolate" id="circle243" fill="#f5e836" stroke="#8e891f" stroke-linejoin="round" stroke-width="0.7544403486814591px" opacity="0.9950000047683716"/><circle cx="1142.9795" cy="1026.3918" r="6.8264" style="isolation:isolate" id="circle244" fill="#f5e836" stroke="#8e891f" stroke-linejoin="round" stroke-width="0.7544403486814591px" opacity="0.9950000047683716"/><circle cx="1286.1157" cy="1026.3918" r="6.8264" style="isolation:isolate" id="circle245" fill="#f5e836" stroke="#8e891f" stroke-linejoin="round" stroke-width="0.7544403486814591px" opacity="0.9950000047683716"/></g><!-- app4joy --></svg>