<svg viewBox="0 0 2286 1600" id="svg600" width="2286" height="1600" xmlns:xlink="http://www.w3.org/1999/xlink" xmlns="http://www.w3.org/2000/svg"><defs id="defs38"><path id="I" d="M78.8 74.7c1.2 2.3.2 5.5-2.5 7.5-.3-2.9 0-5.5 2.5-7.5"/><path id="J" d="M72.9 85.5c1 2.4-.3 5.4-3.1 7.2-.2-2.9.3-5.5 3-7.2"/><path id="K" d="M18 77.8c-4.4-1-6-3.7-6.2-6.5 3 1.5 5.5 3.8 6.1 6.5"/><path id="L" d="m-26 53-1.7 1.4L-26 56"/><path id="M" d="m-10.2 53 1.7 1.4-1.7 1.5"/><path id="N" d="M17 61.3c-.5 0-.6-1.3 0-1.8q-.4-1 1-1.4c-.3-.9 1.1-.6 1.1-.2.8-.2 1.1.3 1.2.5 1.1.4 1 1.3.7 1.9l-1.4 2.5z"/><path id="O" d="M17 60.7c.1-.4 0-1 .5-1-.7-1 .3-1.3.7-1-.1-.7.9-.6 1-.2.4-.5.9 0 .9.4.6-.3 1.3 1.1.3 1.6l-.8-1q-.4.4-.5 1l-.9-.8-.3 1.2c-.8-.2-.4-.3-1-.2"/><path id="P" d="M16.3 71.3c-.5 0-1-1.2-.5-1.8-.3-.6-.1-1.4.6-1.6-.3-.8 1-.9 1.2-.6q.9-.3 1.2.3c1.1.1 1.2 1 1 1.7l-.8 2.9z"/><path id="Q" d="M15.8 71q.7 0 1.5.3V70q.5.5 1 .6.4-.7.2-1 .5 0 .8.6c.6-.4.5-1 .6-1.5.3 1.5 1.7 2.2.2 5-1-.4-2.7.3-4.3-2.7"/><path id="R" d="M16 70.6c.1-.4-.2-1 .4-1.1-.9-.8 0-1.3.4-1-.2-.7.7-.9 1-.5.2-.6.8-.3.9.1.5-.4 1.4.9.6 1.6l-1-.7q-.2.3-.3 1l-1-.6v1.2z"/><path id="S" d="M27.6 80.6c.4.3.8.9 1.1.8v-2.5l.7 1.2a9 9 0 0 1 .7-3.5l1.5 3.1.7-.7c-.4 1 .1 2 .3 2.9l.5-.9c.3 2.5.9 4.3-.5 9.7-2.5-3.1-4.8-6.3-5-10.1"/><path id="T" d="M30 84.5q1.4 2.3 2 4.5c0-1.4-.4-2.8.1-4.1l-.5.3a7 7 0 0 1-.4-3.6l-.4.5q-.4-1.3-.3-2.5-.4 1.2-.2 2.6l-.5-.2q.9 1.4 1.2 3.3z"/><path id="U" d="M70.7 72.2c.4.7.8 1.3.3 2.7z"/><path id="V" d="M73.1 67.8c.5.6 1 1.1.6 2.6z"/><path id="W" d="M64.6 32c.5-.2 1-.4 2 .3z"/><linearGradient id="A" x1="-23.126" y1="34.377" x2="-20.246" y2="34.403" xlink:href="#F"><stop offset="0" stop-color="#edff84" id="stop4-1"/><stop offset="1" stop-color="#ff8953" id="stop6"/></linearGradient><linearGradient id="B" x1="-21.47" y1="32.771" x2="-19.821" y2="33.137" xlink:href="#F"><stop offset="0" stop-color="#ec4a00" id="stop9-8"/><stop offset="1" stop-color="#ff6018" id="stop11"/></linearGradient><linearGradient id="C" x1="319.526" y1="166.521" x2="322.69" y2="166.521" gradientTransform="matrix(.30206 .22583 -.35487 .43644 -54.5 -79.5)" xlink:href="#F"><stop offset="0" stop-color="#241205" id="stop14-0"/><stop offset=".5" stop-color="#8b4513" id="stop16"/><stop offset="1" stop-color="#241205" id="stop18"/></linearGradient><linearGradient id="D" x1="131.104" y1="130.319" x2="132.925" y2="132.14" xlink:href="#F" gradientTransform="matrix(.71805 -.08524 .0889 .68854 -113.1 -25.6)"><stop offset="0" stop-color="#be5e1a" id="stop21-9"/><stop offset=".505" stop-color="#e9965b" id="stop23"/><stop offset="1" stop-color="#be5e1a" id="stop25"/></linearGradient><linearGradient id="E" x1="184.73" y1="-2.487" x2="187.553" y2="-2.487" xlink:href="#F" gradientTransform="matrix(.5706 .4266 -.44488 .54714 -113.1 -25.6)"><stop offset="0" stop-color="#ebc3a8" stop-opacity=".5" id="stop28-9"/><stop offset=".525" stop-color="#fff" stop-opacity=".502" id="stop30"/><stop offset="1" stop-color="#ebc3a8" stop-opacity=".5" id="stop32"/></linearGradient><linearGradient id="F" gradientUnits="userSpaceOnUse"/><linearGradient id="H" x1="121.034" y1="80.967" x2="117.903" y2="86.817" gradientUnits="userSpaceOnUse"><stop offset="0" stop-color="#355d32" id="stop41"/><stop offset="1" stop-color="#41723d" id="stop43"/></linearGradient><radialGradient id="G" cx="105" cy="222.903" fx="105" fy="222.903" r="39.68" gradientTransform="matrix(1 0 0 1.20614 -57.5 -206)" gradientUnits="userSpaceOnUse" spreadMethod="pad"><stop offset="0" stop-color="#7bd26c" id="stop36"/><stop offset="1" stop-color="#48af36" id="stop38"/></radialGradient></defs><g id="g1"><path id="rect40" d="M0 0h2286v1600H0z" fill="#ffd018"/></g><g id="g1991" transform="translate(777.5 316.2)scale(7.69688)"><g stroke="#000000" stroke-width="1.086" id="g67"><path d="M15.8.6C12 5.3 7.5 9.6.5 10.6l.7 49C4 97 34.9 125.1 47.5 125.1S90.9 97 93.8 59.5l.6-48.9c-7-1-11.5-5.3-15.2-10a98 98 0 0 1-31.7 6.3A95 95 0 0 1 15.8.6Z" id="path63" fill="#fff" opacity=".999"/><path d="M16.6 3.6a26 26 0 0 1-13.4 9l.5 46.7a83 83 0 0 0 33.1 58.8c4.5 3 8.5 4.5 10.7 4.5S53.7 121 58 118a83 83 0 0 0 33-58.7l.7-46.8a26 26 0 0 1-13.4-9 98 98 0 0 1-30.9 5.8c-9.5 0-20.3-2-30.9-5.8Z" fill="#d20000" opacity="0.99" id="path65"/></g><path d="M36.9 18.9c-4.2 8.4-7.3 5.9-18.4 13.2C-6.7 49 20.7 84.8 30.9 97.3l-3.6 6.2a40 40 0 0 0 20.2 6.9c9.8-.8 16-4 20.2-6.9L64 97.3C74.3 84.8 101.7 48.9 76.5 32 65.4 24.8 62.3 27.3 58 19c-1.3-2.9-6.9-3.6-10.6-3.6s-9.3 1-10.6 3.6" fill="url(#G)" id="path69"/><path d="m30.7 98.1-2.9 5.7c6 3.4 12.8 5.4 19.6 5.4Q58 109 67 103.8L64.2 98a35.3 38 0 0 1-16.8 4.6A35.3 38 0 0 1 30.7 98z" opacity="0.99" stroke="#dadada" stroke-width="0.545" id="path71" fill="#fff" fill-rule="evenodd" stroke-linejoin="round"/><path d="m30.8 103.3 1.3-3.1.6.2-1.3 3.2zm1.6-.4.6.2v.5q.2.3.5.4h.5q.2 0 .2-.2v-.2l-.1-.3-.5-.3-.5-.6q-.2-.4 0-.8l.2-.4q.2-.2.5-.2l.6.1q.6.3.8.7t0 .8l-.6-.2v-.4q-.1-.2-.4-.3-.2-.1-.4 0l-.2.1v.2l.5.5.6.5q.2.2.2.5v.5l-.4.5q-.2.2-.5.2l-.7-.2q-.6-.2-.8-.6t0-1m3 2.4.8-3.4 2.3.7-.1.6-1.7-.5-.2.7 1.6.5-.2.6-1.5-.5-.3.9 1.7.5-.1.6zm3.1 1 .7-3.5.6.1.9 2.6.4-2.3.6.2-.6 3.4-.7-.2-.9-2.5-.4 2.3zm5 .9.3-3.5h1l.4 2.4.7-2.3h1l-.2 3.6h-.6l.2-2.8-.8 2.7h-.7l-.5-2.9-.1 2.8zm4-3.3h.7v1.8l.1.6q0 .2.2.3.2.2.5.1h.4l.1-.4v-2.6h.6v2.8l-.1.4-.4.3-.6.1h-.7l-.4-.3-.2-.4-.1-.9zm3.8 3.2-.4-3.4h.6l.3 2.8 1.7-.3v.6zm5.8-1h-.7l-.4-.6-1.3.3v.8l-.7.2.5-3.7.7-.2zm-1.4-1.1-.7-1.2-.2 1.3zm2 .8-.9-3.3.6-.2 2 1.8-.7-2.2.6-.2 1 3.3-.7.2-1.9-1.7.7 2.1zm4.4-3-.2-.5 1.3-.6.5 1.3-.4.6-.7.5q-.5.2-.9.1-.4 0-.7-.3-.4-.3-.5-.8l-.2-1q0-.5.4-.8.2-.3.6-.5.6-.3 1-.2.4.2.7.6l-.6.3-.4-.2h-.5q-.4.2-.5.6v.9q.3.6.6.7.4.2.8 0 .2 0 .3-.2l.3-.3-.2-.4z" opacity="0.997" id="path73"/><g fill="#ffde00" stroke="#a07843" stroke-width="0.6" id="g141" stroke-linejoin="round" fill-opacity="1"><path d="m43.2 111.3-8 4c2.3 2.2 5.4.1 8-1.2 2.5-1.1 4.5-1.3 7-2-2.3-.6-3.9-2-7-.8z" id="path75"/><path d="m39.1 109 2.8.2c2.2 6.3 12.3 3 11 .2l3.3-.5c0 3.8-3.5 6.5-8.4 6.5-2.8 0-7.7-2-8.7-6.3z" id="path77"/><path d="M47.8 112.8c3.8 1.2 6.8 6 11.6 3-5.6-1.1-6-2.4-8.5-3.7-1.7-.3-2.3.3-3.1.7zM37.8 18q.8-3.6 4.3-3c-.9 1.8-2 3-4.2 3zm3.7-1.1c1-2.5 2.6-2.9 4.7-2.2-1 1.5-2.5 2.6-4.7 2.2zm4.1-.8c1.4-2.2 3-2.3 5-1.2-1.4 1.3-3 2-5 1.2z" id="path79"/><path d="M49.8 15.9q2.5-2.9 5.1-.6c-1.5 1.1-3.1 1.7-5 .6z" id="path81"/><path d="M53.9 16.2c2.4-1 4 0 5.1 2-2 .2-3.8 0-5.1-2z" id="path83"/><path d="M56 18.2q4.6-.1 5.2 3.8c-2.4-.5-4.3-1.4-5.1-3.8zm2.7 3.9q4.5-.6 5.4 3.1c-2.3-.2-4.4-.8-5.4-3.1z" id="path85"/><path d="M62.5 25.7c2.9-1.2 4.8-.3 6 1.8-2.3.3-4.5.2-6-1.8zm4.7 2.4c2.2-.9 5.1-.2 7 1.8-2.7.3-5.3.2-7-1.8zm4.7 2.3c2.3-.7 5.1.3 6.8 2.4-2.8 0-5.3-.3-6.8-2.4zm4.4 2.7a8 8 0 0 1 7.1 4.5c-3-.6-5.8-1.7-7-4.5z" id="path87"/><path d="M80.2 37.1c2.4-.1 5 1.8 6.2 4.6-2.7-.6-5.1-1.8-6.2-4.6z" id="path89"/><path d="M83.3 40.5c2.4.6 4.3 3.2 4.4 6.3-2.4-1.5-4.2-3.3-4.4-6.3z" id="path91"/><path d="M85.2 45c2.1 1.3 3.2 4.3 2.6 7.3-2-2-3.3-4.3-2.6-7.3zm.2 4.7c2 1.5 2.7 4.6 1.7 7.5-1.6-2.3-2.7-4.7-1.7-7.5z" id="path93"/><path d="M85.5 54.8c1.7 1.7 2 5 .7 7.7-1.3-2.5-2-5-.7-7.7zm-.7 5c1.6 2 1.5 5.2-.2 7.7-1-2.6-1.5-5.2.2-7.7zm-1.4 4.6c1.4 2.1 1 5.3-1 7.7-.7-2.7-.9-5.3 1-7.7zm-2 5.6c1.3 2.2.6 5.4-1.9 7.7-.6-2.8-.5-5.5 1.9-7.7z" id="path95"/><use xlink:href="#I" id="use97" x="0" y="0" width="100%" height="100%"/><use xlink:href="#I" x="-2.925" y="5.7490001" id="use99" width="100%" height="100%"/><use xlink:href="#J" id="use101" x="0" y="0" width="100%" height="100%"/><use xlink:href="#J" x="-3.4690001" y="3.767" id="use103" width="100%" height="100%"/><path d="M65.5 93.5a6 6 0 0 0-2.5 4.6q2-.4 3.2 0c-.1-1.6.2-3.2-.7-4.6zm-2.7 4.7c5.8-1.2 5.5 2.6 5.9 3.7-4.6-.7-5-2.2-6-3.7z" id="path105"/><path d="M64.8 101c1.6 1.5 1.2 3.4 1 5.2 1.8-.5 3.8-1.9 3-4zM35.3 22.7c2.3-1 2.7-3.5 2.3-6.4-2.2 1-2.5 3.4-2.3 6.4zm-3 3c3.3-.4 3.1-2.8 2.7-5.4-1.6 1-2 3.3-2.7 5.4zm-5.2 3c3.5-.6 5-2.4 5.4-4.7-1.7.8-3.3 1.2-5.4 4.8z" id="path107"/><path d="M23.3 30.3c1.6-3.5 3.5-3.7 5.4-3.9-1.4 2.2-2.8 4.2-5.4 4zM19.2 33c.8-3.3 2.8-4.4 4.9-4.6-1.2 2.3-2.9 4.2-5 4.6z" id="path109"/><path d="M15.7 35.8c.4-3.3 2.4-4.6 4.4-5-1 2.3-2.4 4.4-4.4 5zm-3.4 4c0-3.3 1.6-5 3.5-5.7-.5 2.5-1.6 4.8-3.5 5.8z" id="path111"/><path d="M10.3 45c-1.2-3.7.2-6 2.2-7.4.2 3-.4 5.8-2.2 7.5z" id="path113"/><path d="M9 50.1c-1.9-3.5-.9-6 .8-7.7.7 2.9.6 5.8-.9 7.7zM8.7 56c-2.5-3-2-5.7-.8-7.7 1.3 2.6 1.9 5.5.8 7.7z" id="path115"/><path d="M10.5 61.6c-3.3-2.2-3.6-5-2.9-7.2 2 2.2 3.3 4.8 2.9 7.2z" id="path117"/><path d="M12 67c-3.5-2-4-4.6-3.6-7 2.2 2 3.7 4.5 3.5 7zm3 5.9c-4.3-1.5-5.4-4.4-5.4-7.3 2.8 1.9 5 4.4 5.3 7.3z" id="path119"/><use xlink:href="#K" id="use121" x="0" y="0" width="100%" height="100%"/><use xlink:href="#K" x="3.2349999" y="5.2940001" id="use123" width="100%" height="100%"/><use xlink:href="#K" x="6.3969998" y="10.294" id="use125" width="100%" height="100%"/><path d="M27 91.9c-4-.8-5.3-3-5.5-5.3 2.7 1.2 5 3 5.5 5.3z" id="path127"/><path d="M30.9 95.8c-4-.4-5.6-2.5-6-4.7 2.7 1 5.2 2.5 6 4.7z" id="path129"/><path d="M27 94.7c.2.9.3 1.7 1.4 2.8q1.3.8 2.9 1.5c.2-1 .7-1.6-1-3.3z" id="path131"/><path d="M28.2 97.8a4 4 0 0 0-1.2 2.8s1.8 1.3 2 1c0-.2 2-2.4 2-2.4z" id="path133"/><path d="M27 100.7q-2.1 2-.8 3.8c1.3 1 5.6-.6 5.1-.3s-3.6-1-2.4-2.5zm.5 4.7c5.4-1.7 5.7.9 8.4 1.4-3.5.6-7.1 1.4-8.4-1.4zm4.7 2.6c5.8-2.3 6.3.5 9.3.8-3.7 1-7.6 2.2-9.3-.8z" id="path135"/><path d="M37.6 110.1c6-3.3 7.2-.6 10.7-.8-4 1.5-8.2 3.4-10.7.8zm7.3 1c3.7 1.3 6-.3 8.2-2.3-2.7.1-5.3 0-8.2 2.3z" id="path137"/><path d="M50.4 111.5c2.3-3.4 5.2-3.4 8-4.2-1 2.1-3 3.8-8 4.2zm6.7-1.6c1.2-1.5.9-3 5.4-4.6-.6 3.5-2.9 4.2-5.4 4.6zm4.7-1.4c0-2.7 2.5-4.4 4.3-5.2-.5 3.5-2.9 4.5-4.3 5.2z" id="path139"/></g><g transform="translate(65.6)" id="g307"><path d="m-38.3 36.4 10 .8c1.5.2 2.4 0 4 2.3 2 3.4 4.2 1.7 6.2 2.5v6l-6 1.1c-.6 0-1.5.1-1-.8-1.2.1-2.7.5-2.2-.7-1.2-.3-2.6-.5-1.3-1.1-2.7-.2-1.8-.6-1.3-1.1-.7-.3-2.3-.3-1-1-.5-.4-1.9-.6-.7-1.3-1 0-1.8-.4-1-1q-2-.8-1.6-1.3c-1 0-1.4-.9-1-1.4q-2-.3-1.8-1.7-1.2-.4-1.4-1.3z" stroke="#808080" id="path143" stroke-width=".208"/><g fill="#808080" id="g149"><path d="M-25.1 48.2v.2l1.8-.6zm-2.2-.7v.2l2.3-.9zm-1.3-1.1v.2l2.6-1zm-1.3-1.1v.2l2.7-.6zm-1-1v.2l2.8-.7zm-.7-1.3v.2l2.8-.4zm-1-1v.2l3-.2zm-1.6-1.2h3.7z" id="path145"/><path d="M-34.2 40.7v.2h3.7zm-1-1.4v.2h3.7z" id="path147"/></g><path d="m-37 37.7 5.8.3q-.3.6 1 1c-.6.7.4 1.4 1.2 1.6-.7.8.7 1.6 1.3 1.6-.5.8.4 1.2 1 1.3 0 .4 0 .8 1.2.8-.2 1.2 1 .9 1.5.8-.7.4.2 1.2 1 1 .2 1 .9.8 1.5.7" fill="none" stroke="#696969" id="path151" stroke-width=".208"/><path d="M-30.2 39v.1l3 .3zm1.2 1.5v.2h2.5zm1.2 1.6v.2l2.4-.3zm1.2 1.3v.2l2-.5zm1 .8v.2l1.7-.2zm1.5.8v.2l2-.3zm1 1v.2l1.6-.3z" fill="#808080" id="path153"/><path d="m2.2 36.4-10 .8c-1.6.2-2.5 0-4.1 2.3-2 3.4-4.1 1.7-6.2 2.5v6l6 1.1c.6 0 1.5.1 1-.8 1.2.1 2.7.5 2.2-.7 1.2-.3 2.6-.5 1.3-1.1 2.7-.2 1.8-.6 1.3-1.1.7-.3 2.3-.3 1-1 .5-.3 1.9-.6.7-1.3 1 0 1.8-.4 1-1q2-.8 1.6-1.3c1 0 1.4-.9 1-1.4q2-.3 1.8-1.7 1.2-.4 1.4-1.3z" stroke="#808080" id="path155" stroke-width=".208"/><g fill="#808080" id="g161"><path d="m-11 48.2-.1.2-1.8-.6zm2.2-.7-.1.2-2.3-.9zm1.2-1.1v.2l-2.6-1zm1.3-1.1v.2l-2.7-.6zm1-1v.2l-2.8-.7zm.7-1.3v.2l-2.8-.4zm1-1v.2l-3-.2zm1.6-1.2h-3.7z" id="path157"/><path d="M-2 40.7v.2h-3.7zm1-1.4v.2h-3.7z" id="path159"/></g><path d="M.8 37.7-5 38q.3.6-1 1c.6.7-.4 1.4-1.2 1.6.7.8-.7 1.6-1.2 1.6.4.8-.5 1.2-1.2 1.3.1.4.1.8-1 .8 0 1.2-1 .9-1.5.8.6.4-.3 1.2-1 1-.3 1-1 .8-1.6.7" fill="none" stroke="#696969" id="path163" stroke-width=".208"/><path d="M-6 39v.1l-3 .3zm-1.2 1.5v.2h-2.5ZM-8.4 42v.2l-2.4-.3zm-1.2 1.3v.2l-2-.5zm-1 .8v.2l-1.7-.2zm-1.5.8v.2l-2-.3zm-1 1v.2l-1.6-.3z" fill="#808080" id="path165"/><path d="M-18.5 32.5h-.3c-1.6 1-1.7 2.3-1.5 3.6q1 .3 1 1.5-2.3 4.6-2.2 9.6h6.8a21 21 0 0 0-2.3-9.6c1.3-2 .2-5-1.5-5z" stroke="#808080" id="path167" stroke-width=".265"/><path d="M-25.5 35.6c2-1.4 3.5-1.1 5.2-.5.7.2.5 1-.2.9-3.7-1-3.9-.7-5-.4" fill="#edff84" id="path169"/><path d="M-25.4 35.4q2.6-2.7 5.2-1.3c.5.3.3 1.2-.5.8a5 5 0 0 0-4.7.5" fill="url(#A)" id="path171"/><path d="M-22.4 30.7c-.2 2.7 1.3 3 2.5 3.5.6.2 1.7-.7 1.3-1.7q-3.2-.2-3.8-1.8" fill="url(#B)" id="path173"/><g id="g181" fill-rule="evenodd"><path d="M-18.4 35.2a.4.4 0 1 1-1 0 .4.4 0 1 1 1 0" id="path175" fill="#fff" opacity=".995"/><path d="M-18.6 35.2a.3.3 0 0 1-.6 0 .3.3 0 1 1 .6 0" fill="#3d3d3d" id="path177" opacity=".995"/><path d="m-18.7 35.2-.2.2-.2-.2.2-.2z" id="path179" opacity=".995"/></g><path d="M-19.1 34.4q.9-.3 1.1-1.4c1.6 1.4 1 2.1.9 3q-.6-1.6-2-1.6" fill="#171717" id="path183"/><path d="M-36.6 45.5c.1 4.1 1.9 6.3 4.2 9.4l21.8 24.4 1.1-1.2z" id="path185" stroke-width=".265" stroke="#acacac" fill="#dcdcdc"/><path d="M-35.7 47.4c0 .7 2 2.7 2.5 3.5l22.8 27-.5.3-20.6-22.9a18 18 0 0 1-4.2-7.9" id="path187" fill="#fff"/><path d="m-10.4 77.9-22.8-27c-.6-.8-2.5-2.8-2.5-3.5" fill="none" id="path189" stroke-width=".265" stroke="#acacac"/><path d="M-6.6 82c.3.2 2.8-.6 2.1-4v.7q-.3-1.6-1.1-2.8c0 1 .2 1.2 0 2.9l-.4-1 .1 1.1q-.3-.3-.3-1c-.3.3-.2 1.4 0 2.5q0 .6-.6.8-.3.5.2.8" id="path191"/><path d="m-8.8 79.2-1.3 1q1.6 1.5 2.5 3c-.7.4-1.9 1-1.8 1.2.6.7 2 0 2.7-.8 0 0 .7.2.8.1.4-.4.2-1.3.3-1.6-1 .2-2.2-2-3.2-3z" fill="#4e270b" stroke="#391c08" id="path193" stroke-width=".265"/><path d="m-8.8 79.8-.3.4c1 .9 2.1 1.8 2.4 3-.2-.7.4-1-2.1-3.4" fill="#6e3710" id="path195"/><path d="M-9.7 77.8-11 79c-.9 1.3.7 1.8 1.1 1.5l1.6-1c1-.8-.1-2.3-1.4-1.7z" fill="#4e270b" stroke="#391c08" id="path197" stroke-width=".265"/><path d="M-10.3 79c.7-1 1.4-1.4 2-.3q-1-.4-2 .3" fill="#6e3710" id="path199"/><g id="g209" fill-rule="evenodd"><path d="m-4.7 50.1 1 .8-25.7 31.5-1-.6z" fill="url(#C)" stroke="#000000" stroke-width="0.176" id="path201" opacity=".995"/><path d="M-5 49.8v.1l-3.3 4 1.6 1.2 3.3-4zm0 .3 1.4 1-3.1 3.8-1.4-1z" id="path203" opacity=".995"/><path d="m-5 50 1.5 1-3.2 4-1.5-1.1z" fill="url(#D)" id="path205" opacity=".995"/><path d="m-5.3 50.3 1.5 1.1-2.6 3.2-1.5-1.1z" fill="url(#E)" id="path207" opacity=".995"/></g><path d="m.7 44.5-5.3 3.8-.4 1.6.8.6.7.5 1.6-.7z" stroke-width="0.096" id="path211" stroke="#acacac" fill="#dcdcdc"/><path d="M.4 44.8-4 48.7l-.5 1.3.4.3.4.4 1.2-1z" id="path213" fill="#fff"/><path d="m0 45.3-4.1 5" stroke-width="0.154" fill="none" id="path215" stroke="#acacac"/><g id="g221" fill-rule="evenodd"><path d="m-18.1 45.7-9.6 6.3v28.7l9.6 6.2z" id="path217" fill="#fff" opacity=".998"/><path d="m-18.1 45.7 9.6 6.3v28.7l-9.6 6.2z" id="path219" opacity=".998" fill="#dcdcdc"/></g><g fill="none" id="g271"><g stroke="#dbdbdb" id="g245"><g id="g241" stroke-width=".167"><use xlink:href="#L" id="use223" x="0" y="0" width="100%" height="100%"/><use xlink:href="#L" y="2.9419999" id="use225" x="0" width="100%" height="100%"/><use xlink:href="#L" y="6.0089998" id="use227" x="0" width="100%" height="100%"/><use xlink:href="#L" y="8.9510002" id="use229" x="0" width="100%" height="100%"/><use xlink:href="#L" y="11.893" id="use231" x="0" width="100%" height="100%"/><use xlink:href="#L" y="14.835" id="use233" x="0" width="100%" height="100%"/><use xlink:href="#L" y="17.903" id="use235" x="0" width="100%" height="100%"/><use xlink:href="#L" y="20.844999" id="use237" x="0" width="100%" height="100%"/><use xlink:href="#L" y="23.787001" id="use239" x="0" width="100%" height="100%"/></g><path d="m-26 53 .3-2.4 2 .8.4-2.3 2 .8.4-2.3 2 .8.8-2.7m-8 34 .4 2.3 2-.8.3 2.3 2-.8.4 2.3 2-.8.8 2.7" id="path243" stroke-width=".172"/></g><g stroke="#c6c6c6" id="g265" stroke-width=".167"><use xlink:href="#M" id="use247" x="0" y="0" width="100%" height="100%"/><use xlink:href="#M" y="2.9419999" id="use249" x="0" width="100%" height="100%"/><use xlink:href="#M" y="6.0100002" id="use251" x="0" width="100%" height="100%"/><use xlink:href="#M" y="8.9519997" id="use253" x="0" width="100%" height="100%"/><use xlink:href="#M" y="11.894" id="use255" x="0" width="100%" height="100%"/><use xlink:href="#M" y="14.836" id="use257" x="0" width="100%" height="100%"/><use xlink:href="#M" y="17.903" id="use259" x="0" width="100%" height="100%"/><use xlink:href="#M" y="20.844999" id="use261" x="0" width="100%" height="100%"/><use xlink:href="#M" y="23.788" id="use263" x="0" width="100%" height="100%"/></g><path d="m-10.2 53-.3-2.4-2 .8-.4-2.3-2 .8-.4-2.3-2 .8-.8-2.7m8 34-.4 2.3-2-.8-.3 2.3-2-.8-.4 2.3-2-.8-.8 2.7" stroke="#c6c6c6" id="path267" stroke-width=".172"/><path d="m-18.1 45.7-9.6 6.3v28.7l9.6 6.2 9.6-6.2V52Z" stroke-width="0.324" id="path269" opacity=".998" stroke="#acacac"/></g><g id="g277" fill-rule="evenodd"><path d="m-18.1 47.9 8 5v26.8l-8 5z" fill="#da251d" id="path273" opacity=".998"/><path d="m-18.1 47.9-7.9 5v26.8l7.9 5z" fill="#e5453d" id="path275" opacity=".998"/></g><path d="M-18.1 49.1v5.5c-1.3-.6-.5-2-.6-3.5-2.8 1.8-1.4 4.3-2.6 4.7-3.4-4 1.7-4 3.2-6.7" id="path279" fill="#fff"/><path d="M-18.1 49.1v5.5c1.3-.6.5-2 .6-3.5 2.8 1.8 1.4 4.3 2.6 4.7 3.4-4-1.7-4-3.2-6.7" id="path281" fill="#eee"/><path d="M-24.8 58.6c-.4-1.2 1.9-1.8.4.6-2.5 4.3 3 3.5 1.6 1-.3 1.7-2.5 1.5-.7-.8 1-1.4.4-2.5-.4-2.6-1-.1-2.1.8-1 1.8" id="path283" fill="#fff" opacity=".999"/><path d="M-11.4 58.6c.4-1.2-1.9-1.8-.4.6 2.5 4.3-3 3.5-1.6 1 .3 1.7 2.5 1.5.7-.8-1-1.4-.4-2.5.4-2.6 1-.1 2.1.8 1 1.8" id="path285" fill="#eee" opacity=".999"/><path d="M-20.9 59.3c1.2-1.5 2.3 1.1.2 1-3-.1-.8-5.3 2.6-2.3v7q-.6-.6-.7-1.8l-2.4 2.1a4 4 0 0 1 2.6-3.2c0-1.4 0-4-1.6-4-.7 0-1.1.9-.7 1.2" id="path287" fill="#fff" opacity=".998"/><path d="M-15.3 59.3c-1.2-1.5-2.3 1.1-.2 1 3-.1.8-5.3-2.6-2.3v7q.6-.6.7-1.8l2.4 2.1a4 4 0 0 0-2.6-3.2c0-1.4 0-4 1.6-4 .7 0 1.1.9.7 1.2" fill="#f7f7f7" id="path289" opacity=".998"/><path d="m-18.1 68.2-1 .1.4 1 .6-.1z" id="path291" fill="#fff"/><path d="M-18.1 68.2v1h.4c1-.1.7-1.1 0-1z" id="path293" fill="#eee"/><path d="M-18.1 72v1.2c-1.2-.2-1.6.2-2.3.3 2-.9.8-2.3 1-3.5l.8.2c0 .7-.6 1.6.5 1.8m-4.4-6c.3 1 1 1.6.8 2.7-3.8 1-.8 3.8.2 3.5 1.4-.7.3-1.7-.7-1-1.4-1.2.5-2.8 2-1.5q-.3-2.3-2.3-3.7" id="path295" fill="#fff"/><path d="M-18.1 72v1.2q.6 0 1-.2.8 1.2 2 1c-1-.9-.7-1-1-1.4 1 .2 2.4-.2 4.4-2.5-1.3-.6-1.6-1.3-1.8-2l-.8.9c.3.3.3.8 1.1.9-.6.9-1 1.9-3 1.7l-.5-1.5q-.9.2-1 .5c.7.1.9 1.6-.4 1.4m1.9-2.5h.8c.1-2.3 1-3 1.7-3.8-1 .9-2 .4-2.5 3.8" id="path297" fill="#eee"/><path d="M-22.6 75c-4.7 4.2 1.6 5 2.2 6.3 0 .2 0 1.3.6 1.4s.5-2.2-.5-2.7c-2.3-1.3-3.8-1.5-2.3-5" id="path299" fill="#fff" opacity=".998"/><path d="M-13.6 75c4.7 4.2-1.6 5-2.2 6.3 0 .2 0 1.3-.6 1.4s-.5-2.2.5-2.7c2.4-1.3 3.8-1.5 2.3-5" id="path301" opacity=".998" fill="#eee"/><path d="M-22.4 77.5c1.5 2.3 2.7-1.2 3.7-2-1 .2-2.4 1.5-3.7 2m4.3-1c-1.2 2.3-.2 3.5 0 5z" id="path303" fill="#fff" opacity=".995"/><path d="M-13.8 77.5c-1.5 2.3-2.7-1.2-3.7-2 1 .2 2.4 1.5 3.7 2m-4.3-1c1.2 2.3.2 3.5 0 5z" id="path305" opacity=".995" fill="#eee"/></g><g id="g1536"><path d="M43.3 88.4c-1.3.1-4 .4-4 1.2 0 1.1 5.7 1.4 8.2 1.4s8.1-.3 8.1-1.4c0-.8-2.6-1-3.9-1.2l-4.2.5z" fill="#343434" stroke="#a9a9a9" id="path309" stroke-width=".051"/><path d="M53 88.9a5.5.8 0 0 1-5.5.8A5.5.8 0 0 1 42 89a5.5.8 0 0 1 5.5-.8 5.5.8 0 0 1 5.5.8" opacity="0.991" fill="#2d2d2d" id="path311" fill-rule="evenodd"/><path d="M49.5 88.7c-.7.4-3.3.3-4 0 0-2 4-2 4 0z" fill="#191919" opacity="0.996" stroke="#c0c0c0" id="path313" stroke-width=".051"/><path d="M47 87.5c-1 .4-.8.6-1 1 .6-.4 1-.9 2.7-.6-.5-.2-.7-.5-1.7-.4" fill="#282828" opacity="0.996" id="path315"/><path d="M39.3 89.6c0 1.7 1.6 4.2 2.8 5.5 2.2.6 3.7.4 5.4.6 1.7-.2 3.2 0 5.4-.6 1.2-1.3 2.7-3.8 2.7-5.5 0 1.1-5.6 1.4-8.1 1.4s-8.2-.3-8.2-1.4z" fill="#202020" stroke="#a9a9a9" id="path317" stroke-width=".051"/><path d="M40.2 90.7a6 6 0 0 0 2 3.7c1.5.1 3.4 0 5.9-1.2q-1.7.5-3-.1 2.9-.1 5.3-.7h-3.9q3.1-.4 5.5-1.2c-3.7.3-7.7 1-11.8-.5" fill="#1c1c1c" id="path319"/><path d="M45.5 95c2.4-.1 3.8 0 7.2-.6l2-3c-1.7.5-3.2 1.4-5.2 1.6q1.2.2 2.2-.1c-1.4.8-2.4.8-3.6 1q1 .1 3-.1-2.6.8-5.6 1.2" fill="#292929" id="path321"/></g><path d="M41.2 22.3 45 25" id="path323" fill="#ffeba3"/><path d="m49.1 22.3-1.6-4.6-1.6 4.5h-4.7L45 25l-1.4 4.6 3.9-2.8 3.9 2.7-1.5-4.5 3.9-2.8z" id="path325" fill="#fff"/><path fill="#a07843" d="M43.6 30a.3.3 0 0 1-.3-.4l1.3-4.5-3.6-2.6a.3.3 0 0 1 .2-.5h4.5l1.5-4.4.3-.2q.2 0 .2.2l1.6 4.4h4.5a.3.3 0 0 1 .1.5L50.3 25l1.3 4.2v.2a.3.3 0 0 1-.4.2l-3.7-2.5-3.7 2.7zM42 22.4l3.1 2.3q.2 0 .1.3l-1.1 4 3.2-2.3h.3l3.3 2.2-1.2-3.7v-.3l3.2-2.3h-3.8q-.2 0-.3-.2l-1.3-3.8-1.3 3.8-.3.2z" id="path327"/><path d="M47.5 17.7v6.5l1.6-2z" id="path329" fill="#f5c742"/><g id="g335" fill="#ffeba3"><path d="M41.2 22.3 45 25l2.5-.8z" id="path331"/><path d="M47.5 24.2v-6.5l-1.6 4.5z" id="path333"/></g><path d="M45.9 22.3h-4.7l6.3 2z" id="path337" fill="#f5c742"/><path d="M53.8 22.2H49l-1.6 2z" id="path339" fill="#ffeba3"/><path d="m47.5 24.2 2.4.8 3.9-2.8z" id="path341" fill="#f5c742"/><path d="m50 25-2.5-.8 3.9 5.3z" id="path343" fill="#ffeba3"/><path d="m47.5 26.8 3.9 2.7-4-5.3zm0-2.6L45 25l-1.4 4.6z" id="path345" fill="#f5c742"/><path d="m47.5 24.2-3.9 5.4 3.9-2.8z" id="path347" fill="#ffeba3"/><g id="g1527"><g id="g353" stroke-width=".202"><path d="M25.5 30.6c-.2-.4.7-1 1.3-.9q.8-.7 1.6 0c.6-.5 1 .6.8.7q.6.7.1 1c.2 1-.6 1.3-1.2 1.3l-2.6.3Z" id="path349" fill="#e9e9e9" stroke="#bdbdbd"/><path d="M25.6 30.2q.2.5.1 1.2l1.1-.4q-.3.6-.2 1 .7 0 1-.2 0 .4-.4.8.8.3 1.5 0c-1.2.7-1.4 2-4.2 1.7 0-1-1-2 1-4.2z" id="path351" fill="#41723d" stroke="#3a6737"/></g><path d="M26 30.2c.3 0 .7-.4 1 0 .4-1 1-.4 1 0 .5-.4 1 .3.7.6q.7.2.1.7c.5.3-.3 1.4-1.1 1l.3-1h-1l.3-.9-1.1.3c-.3-.5 0-.4-.2-.7" id="path355" fill="#fff"/><g id="g361" stroke-width=".202"><path d="M20.8 33.6c-.3-.4.5-1.1 1.2-1.1q.6-.8 1.6-.2c.5-.6 1 .4.8.6.6.3.4.8.3 1 .3.8-.4 1.3-1 1.4l-2.6.6z" id="path357" fill="#e9e9e9" stroke="#bdbdbd"/><path d="M20.8 33.1q.4.6.4 1.2l1-.5q-.2.5 0 1 .6 0 .8-.4.1.4-.2 1 .8 0 1.5-.2c-1.2.8-1.1 2-4 2.1 0-1-1.2-1.8.5-4.2z" id="path359" fill="#41723d" stroke="#3a6737"/></g><path d="M21.2 33.1c.4-.1.7-.5 1-.2.3-1 1-.5 1 0 .5-.6 1 0 .8.4q.8.2.2.7c.6.2-.1 1.4-1 1l.2-1q-.4 0-.9.3l.1-1-1 .5c-.4-.5-.1-.4-.4-.7" id="path363" fill="#fff"/><g id="g369" stroke-width=".213"><path d="M18 38c-.3-.3.5-1.2 1.2-1.1q.6-.9 1.5-.3c.6-.6 1.1.5 1 .7.5.3.3.9.2 1 .3 1-.4 1.5-1 1.6l-2.6.7z" id="path365" fill="#e9e9e9" stroke="#bdbdbd"/><path d="M18 37.5q.4.6.3 1.3l1-.5v1c.6 0 .6-.2.9-.3q.1.4-.2 1 .8.2 1.4-.2c-1 .9-1 2.2-4 2.4 0-1.1-1.2-2 .6-4.7z" id="path367" fill="#41723d" stroke="#3a6737"/></g><path d="M18.4 37.6c.3-.2.6-.7 1-.3.3-1 1-.6 1 0 .5-.6 1 .1.8.5q.7 0 .2.7c.6.2-.1 1.5-1 1.2l.2-1h-1l.2-1-1 .6c-.4-.6-.1-.4-.4-.7" id="path371" fill="#fff"/><g id="g377" stroke-width=".213"><path d="M14.4 43.7c-.3-.3.3-1.3 1-1.4q.5-1 1.5-.5c.4-.7 1.2.2 1 .5q.8.5.5 1c.5.8-.1 1.5-.7 1.7l-2.4 1.2z" id="path373" fill="#e9e9e9" stroke="#bdbdbd"/><path d="M14.4 43.2q.5.6.6 1.3.3-.5.9-.8l.1 1c.6 0 .6-.3.8-.5 0 .3.3.6 0 1q.9 0 1.4-.5c-1 1.1-.6 2.5-3.4 3.2-.3-1-1.6-1.8-.4-4.7z" id="path375" fill="#41723d" stroke="#3a6737"/></g><path d="M14.8 43.2c.3-.2.5-.8 1-.5 0-1 .8-.7 1-.3.3-.6 1 0 .8.4.5-.2.6.4.3.7.6.1.2 1.5-.7 1.4v-1.1q-.5 0-.9.3l-.1-1-1 .7c-.4-.5 0-.4-.4-.6" id="path379" fill="#fff"/><g id="g385" stroke-width=".213"><path d="M15.3 49.8c-.4-.2 0-1.4.6-1.6q0-1.2 1.2-1c.1-.8 1.2-.1 1 .2q1 .2.8.8c.8.6.4 1.4 0 1.8l-2 1.8z" id="path381" fill="#e9e9e9" stroke="#bdbdbd"/><path d="M15.1 49.3q.6.3 1 1 0-.6.6-1 0 .6.4 1c.6-.3.5-.5.6-.8q.4.3.3 1 .8-.2 1.2-.9c-.5 1.3.1 2.5-2.3 4-.6-.9-2.1-1.2-1.8-4.3z" id="path383" fill="#41723d" stroke="#3a6737"/></g><path d="M15.5 49.2c.2-.4.2-1 .8-.8-.3-1 .6-1 .8-.5.1-.7 1-.3 1 0 .4-.3.6.3.5.6.6 0 .6 1.4-.3 1.5l-.4-1q-.4.2-.7.6l-.4-1-.7 1c-.6-.3-.2-.3-.6-.4" id="path387" fill="#fff"/><g stroke-width="0.221" id="g393"><path d="M15.5 56c-.5-.2-.4-1.4.2-1.8q-.2-1 1-1.2c0-.8 1.2-.3 1.2 0 .7-.1 1 .4 1 .6 1 .5.8 1.4.4 1.9l-1.6 2.1z" id="path389" fill="#e9e9e9" stroke="#bdbdbd"/><path d="M15.2 55.5q.7.3 1.2.8 0-.7.4-1 .2.4.8.7c.5-.3.3-.5.4-.8q.4.3.6.9.7-.4 1-1.1c-.2 1.4.8 2.4-1.4 4.4-.9-.8-2.5-.8-3-3.9z" id="path391" fill="#41723d" stroke="#3a6737"/></g><path d="M15.5 55.3c.2-.4 0-1 .6-1-.5-.8.4-1 .8-.6 0-.7 1-.5 1 0 .4-.5.8 0 .7.4.6-.2 1 1.2.1 1.5l-.6-1q-.4.3-.6.8l-.7-.9-.5 1.1c-.7-.2-.3-.3-.8-.3" id="path395" fill="#fff"/><g id="g401" stroke-width=".236"><use xlink:href="#N" id="use397" x="0" y="0" width="100%" height="100%" fill="#e9e9e9" stroke="#bdbdbd"/><path d="M16.7 61q.8 0 1.4.6 0-.7.3-1.2.3.5.9.8c.5-.5.2-.7.3-1q.5.2.7.8.7-.5 1-1.3c-.1 1.5 1.1 2.5-.9 4.9-1-.7-2.7-.4-3.7-3.7z" id="path399" fill="#41723d" stroke="#3a6737"/></g><use xlink:href="#O" id="use403" x="0" y="0" width="100%" height="100%" fill="#fff"/><g id="g409" stroke-width=".236"><use xlink:href="#N" x="2.2880001" y="5.408" id="use405" width="100%" height="100%" fill="#e9e9e9" stroke="#bdbdbd"/><path d="M19 66.3q.8.2 1.4.7 0-.7.2-1.2l1 .8c.4-.5.2-.7.3-1q.5.2.7.8.7-.5 1-1.3c-.1 1.6 1.1 2.5-1 4.9-.9-.7-2.6-.4-3.6-3.7z" id="path407" fill="#41723d" stroke="#3a6737"/></g><use xlink:href="#O" x="2.2869999" y="5.408" id="use411" width="100%" height="100%" fill="#fff"/><g id="g417" stroke-width=".242"><path d="M21.6 71.3c-.5 0-.8-1.2-.2-1.8q-.5-1 .9-1.4c-.3-.9 1.2-.7 1.2-.3.8-.3 1.2.2 1.3.4 1.2.3 1.2 1.2.8 1.8l-1.2 2.7z" id="path413" fill="#e9e9e9" stroke="#bdbdbd"/><path d="M21.2 71q.7 0 1.5.5-.1-.6.2-1.2.4.5 1 .7c.5-.5.2-.6.3-1 .3.3.7.3.8.8q.8-.6.9-1.3c0 1.5 1.4 2.3-.6 4.9-1-.6-2.8-.3-4.1-3.4z" id="path415" fill="#41723d" stroke="#3a6737"/></g><path d="M21.5 70.7c0-.4-.2-1 .4-1.1-.8-.8.2-1.2.7-.9-.2-.7.9-.7 1-.3.4-.5 1-.1 1 .3.6-.3 1.4 1 .4 1.6l-.9-.9q-.3.3-.5 1l-1-.8c0 .7 0 .6-.2 1.2-.8 0-.4-.2-1-.1" id="path419" fill="#fff"/><g id="g425" stroke-width=".242"><path d="M24.9 77.7c-.6 0-1-1.2-.4-1.8q-.5-1 .7-1.5c-.3-.8 1.2-.8 1.2-.5q1.2-.2 1.3.4 1.6.5 1 1.7l-1 2.7z" id="path421" fill="#e9e9e9" stroke="#bdbdbd"/><path d="M24.4 77.4q.7-.1 1.6.4-.2-.7 0-1.3.5.5 1.1.6.4-.6.2-1 .5.2.9.7.7-.6.7-1.4c.2 1.5 1.7 2.2 0 5-1.2-.6-3 0-4.5-3z" id="path423" fill="#41723d" stroke="#3a6737"/></g><path d="M24.7 77c0-.4-.3-1 .3-1-.8-.8.1-1.3.6-1-.2-.7.8-.8 1-.4.3-.6.9-.2 1 .2.6-.4 1.5 1 .6 1.5l-1-.7q-.4.3-.4.9l-1-.6-.2 1.2c-.8 0-.4-.2-1 0" id="path427" fill="#fff"/><g id="g433" stroke-width=".215"><path d="M11.2 49.2c-.4-.3 0-1.3.6-1.5q.2-1 1.4-.8c.2-.8 1.2 0 1 .3.8.1.9.7.8.9.8.7.3 1.5-.2 1.8l-2.1 1.5z" id="path429" fill="#e9e9e9" stroke="#bdbdbd"/><path d="M11 48.7q.6.4 1 1.1 0-.5.6-.9.1.6.5 1c.5-.2.4-.4.6-.6q.3.3.3 1 .8-.2 1.3-.8c-.7 1.2 0 2.5-2.7 3.6-.6-1-2.1-1.4-1.6-4.4z" id="path431" fill="#41723d" stroke="#3a6737"/></g><path d="M11.4 48.6c.2-.3.3-.8.8-.6-.2-1 .7-.9 1-.5.1-.6 1-.1.9.3.5-.3.7.3.6.6.6 0 .5 1.4-.5 1.4l-.3-1q-.4 0-.7.5l-.4-1-.8.8c-.6-.4-.2-.3-.6-.5" id="path435" fill="#fff"/><g id="g441" stroke-width=".215"><path d="M10.8 55.7c-.5 0-.5-1.2 0-1.6q0-1 1.1-1.1c0-.8 1.2-.4 1.2-.1q1 0 1 .6c1 .4.7 1.3.3 1.8l-1.5 2z" id="path437" fill="#e9e9e9" stroke="#bdbdbd"/><path d="M10.4 55.4q.8.1 1.2.7 0-.6.4-1 .3.5.8.7c.5-.3.3-.5.4-.8q.4.3.5.8.8-.4 1-1c-.2 1.3.8 2.3-1.4 4.2-.8-.7-2.4-.6-2.9-3.6z" id="path439" fill="#41723d" stroke="#3a6737"/></g><path d="M10.8 55.1c.1-.3 0-.8.6-.8-.6-1 .4-1 .7-.7 0-.7.9-.5 1-.1q.6-.4.7.4c.6-.2 1 1.2 0 1.5q0-.4-.6-1l-.5.8-.7-.8-.5 1z" id="path443" fill="#fff"/><g id="g449" stroke-width=".215"><path d="M12.1 60.5c-.5 0-.5-1.2 0-1.6q-.3-1 1-1.3c-.2-.8 1-.5 1-.2.7-.2 1 .3 1 .5q1.3.8.6 1.8l-1.3 2.2z" id="path445" fill="#e9e9e9" stroke="#bdbdbd"/><path d="M11.8 60.2q.7 0 1.2.6 0-.7.3-1.1.4.5.8.7c.5-.4.3-.6.4-.9q.4.3.6.8.7-.4.9-1.2c-.1 1.4 1 2.3-1 4.4-.9-.6-2.5-.4-3.2-3.3z" id="path447" fill="#41723d" stroke="#3a6737"/></g><path d="M12 60c.2-.5 0-1 .6-1-.6-.8.3-1.1.7-.8-.1-.6.8-.6 1-.2q.6-.4.7.4c.5-.3 1 1 .2 1.4l-.7-.8-.5.8-.8-.8-.4 1.1c-.6-.1-.3-.2-.7-.2" id="path451" fill="#fff"/><g id="g457" stroke-width=".236"><path d="M13.9 66c-.5 0-.7-1.3-.2-1.9q-.4-1 .9-1.5c-.2-.8 1.2-.6 1.2-.3.7-.3 1 .2 1.1.4q1.5.8.8 2l-1.2 2.6z" id="path453" fill="#e9e9e9" stroke="#bdbdbd"/><path d="M13.5 65.6q.8 0 1.4.5l.2-1.2q.4.5 1 .7.4-.7.2-1 .5.2.8.8c.6-.3.6-.9.8-1.4 0 1.6 1.3 2.4-.6 5-1-.6-2.7-.2-3.8-3.4z" id="path455" fill="#41723d" stroke="#3a6737"/></g><path d="M13.8 65.3q-.2-.8.5-1.1c-.8-.9.2-1.2.6-1-.2-.7.8-.7 1-.2.3-.6.8-.2.9.3.5-.4 1.2 1 .3 1.6l-.8-.9q-.3.3-.5 1l-.9-.8-.2 1.2c-.8 0-.5-.2-1-.1" id="path459" fill="#fff"/><g id="g465" stroke-width=".236"><use xlink:href="#P" id="use461" x="0" y="0" width="100%" height="100%" fill="#e9e9e9" stroke="#bdbdbd"/><use xlink:href="#Q" id="use463" x="0" y="0" width="100%" height="100%" fill="#41723d" stroke="#3a6737"/></g><use xlink:href="#R" id="use467" x="0" y="0" width="100%" height="100%" fill="#fff"/><g id="g473" stroke-width=".236"><use xlink:href="#P" x="3.4319999" y="5.4590001" id="use469" width="100%" height="100%" fill="#e9e9e9" stroke="#bdbdbd"/><use xlink:href="#Q" x="3.4319999" y="5.4590001" id="use471" width="100%" height="100%" fill="#41723d" stroke="#3a6737"/></g><use xlink:href="#R" x="3.4319999" y="5.46" id="use475" width="100%" height="100%" fill="#fff"/><g id="g481" stroke-width=".265"><path d="M23.3 83c-.5.1-1.1-1.2-.7-2q-.8-1 .4-2c-.5-.8 1-1 1.1-.7.7-.5 1.2-.1 1.4.1 1.2 0 1.5 1.1 1.4 1.9l-.4 3.3z" id="path477" fill="#e9e9e9" stroke="#bdbdbd"/><path d="m22.8 82.7 1.6.2q-.3-.7-.1-1.5.5.5 1.2.5c.3-.7 0-.8 0-1.2.3.2.7.1 1 .7q.6-.9.4-1.8c.5 1.7 2.1 2.2 1 5.7-1.3-.4-3 .6-5.1-2.6z" id="path479" fill="#41723d" stroke="#3a6737"/></g><path d="M23 82.3c0-.5-.4-1 .1-1.4-1-.7-.2-1.4.4-1.2-.4-.8.7-1 1-.7.1-.7.8-.4 1 0 .4-.5 1.6.9.9 1.8l-1.2-.7q-.2.4-.2 1.1l-1.2-.5.1 1.5z" id="path483" fill="#fff"/><path d="M33.6 92.1c-2.4-1.1-3.8-.5-7.2-3.5l.8-.3q-1.3-.7-1.7-1.4h.8a7 7 0 0 1-1.3-3.1c.7.4.7 1 2.1 1q-.2-.5.2-.8l.5.9c.7-.5.6-.5.8-.8q.6 1.3 1.4 1.9v-.8c1.8 2 3.4 4.1 3.6 7z" id="path485" fill="#41723d" stroke-width=".185" stroke="#376134"/><path d="M28.8 89c.4-.2 2 .4 3.9.9-1.1 0-3.4-3.5-3.1-3.5.2.7.2 1.3 1 2.2q-1.7-1.2-2-2.5l.2 1.5-2.3-2 1.9 2.2-1.3-.3 2.7 1.3z" id="path487" fill="#376134"/><use xlink:href="#S" id="use489" x="0" y="0" width="100%" height="100%" fill="#41723d" stroke-width=".185" stroke="#376134"/><use xlink:href="#T" id="use491" x="0" y="0" width="100%" height="100%" fill="#376134"/><use xlink:href="#S" x="3.6400001" y="4.375" id="use493" width="100%" height="100%" fill="#41723d" stroke-width=".185" stroke="#376134"/><use xlink:href="#T" x="3.6400001" y="4.375" id="use495" width="100%" height="100%" fill="#376134"/><path d="m29.5 90.2 1.8.2-.1-.2c1.5 0 2.2.8 3.4 1.7l.4-.4c1.2 2.2 4.4 4.4 7.5 5.3 4 .5 4.5.9 13 1.5l-1.6 2-15-3.6c-3.4-.1-6.1-1.8-8.8-3.6h.7c-.3-.2-1.5-.7-1.9-1.6h.6z" id="path497" fill="#41723d" stroke-width=".185" stroke="#376134"/><path d="M31.7 93.1c2 .3 3.7 1.4 5.5 2.4-.7-.8-1.8-1.6-1.8-2.4l-.2.6a6 6 0 0 1-2.8-2.2l.4.9-2.2-1.2 1.7 1.2-1.4-.3 2.1 1z" id="path499" fill="#376134"/></g><g id="g1552"><path d="M64.3 27.8c.4.5 0 1.3 1 2 1.2.7 1.4.8 1.7 1.3-1.7-1.4-2.7-1-4-1.1 1 .5 1.3 1.5 3.5 1.3l1.6 1.2-1-.3q-.7-.8-1.7-.7l-1.8.2c1 .7 2.1 1.5 3.6 1l1.5.3q.6.2 1 1l-.7-.2c-1.4-1.5-2.9-.7-4.4-.6 1.4.8 2.6 1.8 4.4 1.2l1.3.2q.5.7 1.4 1.2l-.5-.2c-1.3-1.4-3-.9-4.4-1 1.3.9 2.5 1.9 4.3 1.5l1.7.4 1.1 1.2.1.1.4.3-1.4-.5c-1.2-1.6-3-1.2-4.6-1.4 1.3 1 2.6 2.2 4.6 2 .4 0 1.5.5 2.3.8l1.2 1.6-1-.5c-1-1.8-2.9-1.6-4.4-2 1.1 1.2 2.2 2.6 4.2 2.6q.6.1 1.7.8l1.1 2v.3l-1.3-1c-.7-1.9-2.5-2-4-2.7 1 1.4 1.8 3 3.8 3.3l1.6 1.2q.1.6 1 1.6l.1 1q-.8-.6-1-1c-.5-2-2.3-2.4-3.7-3.3.7 1.5 1.4 3.1 3.3 3.8.4.2 1 1 1.6 1.5l.1.6v1.4l-.7-1c-.2-2-2-2.6-3.3-3.7.6 1.6 1.1 3.3 3 4.2l1 1.2q-.2 1 0 1.6l.4.9-.8-1.1c-.1-2-1.8-2.7-3-3.8.5 1.6.8 3.3 2.6 4.2l1.3 1.8a6 6 0 0 1-.4 2.5q-.6-1-.8-1.7c.2-2-1.4-3-2.4-4.3.2 1.7.3 3.4 1.9 4.7l1 2h-.1v.2q.3 2.1-.1 3.6-.5-1.2-.6-2c.6-2.2-1-3.6-1.9-5.3 0 2-.2 4 1.3 5.7.3.5.6 1.8.9 2.7l-1 2q-.3-1.1-.2-1.7c.8-2-.6-3.5-1.3-5.2-.2 1.8-.8 3.5.5 5.2l.8 2-.2.3-1.1 2.7q-.2-1.2 0-1.8c1-1.9-.3-3.5-.8-5.2-.4 1.7-1.1 3.3 0 5.2l.6 2.2-.5.7-.6 1-.1-1.6c.9-1.7-.4-3.1-1-4.6-.3 1.6-1 3 .3 4.7l.6 1.8L74 72v-1c.9-1.7-.4-3.1-1-4.6-.3 1.6-1 3 .3 4.7l.5 1.4v.3q-.3 1.2-1.2 2.2v-1.5c1-1.7 0-3.2-.6-4.7-.4 1.5-1.2 3-.1 4.7l.5 1.7v.1q-.7.6-1.2 1.4v-1.1c1.1-1.7 0-3.2-.5-4.7-.5 1.5-1.2 2.9-.2 4.6l.5 1.6-.7 1.5v-1c.8-1.7-.5-3-1.1-4.5-.3 1.6-.9 3 .3 4.6l.6 1.4-1 2.5-.1.2v-1.3c1.2-1.8-.2-3.4-.7-5-.6 1.6-1.4 3-.1 5l.6 1.8-.6 1-1.2 2 .3-1c2-2.5.2-4 0-5.6-.4 1.9-1.2 3-.8 6.2q0 .9-.4 1.8l-.2.3-1.1 1.6.1-.3c1.7-2 1-3.9 1.4-5.5-.6 1.2-1.6 2-1.7 3.8q-.5 2.5-1.6 4-1 1.2-2 2l1.2-1.6c2-1.7 1.6-3.6 2.2-5.2-.8 1.2-1.9 1.8-2.2 3.5-1 2.2-1.7 3.7-3.2 4.5l.3.7a19 19 0 0 0 6.4-6l.8-1.1 2.3-3.8c1.1-1.4 1.2-1.5 3.9-2.6 2-1 1.9-2.3 2.8-3.1q-3 .3-4.6 2.7L69.7 82l1-2.5c.6-.6 1.1-.8 3-1.4 2-.5 2-1.8 2.9-2.4q-2.9.1-4.4 2l-1.2 1 1-1.7c1-1 1.1-1 3.4-1.6 1.9-.5 1.9-1.6 2.7-2.2q-2.6 0-4.1 1.8l-.7.5 1-1.6c.5-.7.9-.9 2.7-1.6s1.6-1.9 2.4-2.5c-1.8.3-3 .6-3.9 2l-1 1.3.8-2c.5-.5 1-.7 2.7-1.3s1.7-1.7 2.5-2.3c-1.8.2-2.8.6-3.8 2l-.7.5.3-.6.8-1.2q.6-.6 2.8-1.5c2-1 1.8-2.2 2.7-3-2 .5-3.2 1-4.2 2.6l-.8.8.4-1c.6-.9 1-1.2 3-2.4 2-1 1.6-2.3 2.4-3.1-2 .6-3 1.3-3.9 3l-.5.5.7-1.7q.5-.7 2.1-1.8c1.8-1.4 1.3-2.6 2-3.5-2 .9-2.9 1.7-3.5 3.5l-.2.3v-1.2c.4-.6.9-1.1 2.2-2.4 1.6-1.6 1-2.6 1.6-3.7-1.8 1.1-2.6 2-3 3.8l-.8 1.4v-.9l.6-1.7q.4-.6 1.7-1.8c1.4-1.5.9-2.6 1.4-3.6a6 6 0 0 0-2.8 3.7l-.1.4V54l1.5-2.4c1.2-1.7.6-2.6 1-3.7-1.5 1.3-2.1 2.3-2.3 4l-.4 1.3-.3-.8v-.6h.1v-.3c.2-.6.5-1.1 1.5-2.5 1.1-1.6.4-2.5.7-3.5-1.4 1.3-2 2.2-2 4l-.2.6-.1-1.2.9-2.1c.9-1.8 0-2.6.3-3.6-1.2 1.4-1.6 2.4-1.5 4.1v.1-.3l-.2-.7c0-.6 0-1 .6-2.6s-.4-2.1-.4-3c-1 1.4-1.2 2.3-.7 3.7v.9q-.5-.7-.5-1.2v-.9l.3-1.6c.5-1.7-.6-2.1-.7-3q-.8 1.4-.7 2.7l-.1-.3v-2c.2-1.5-.7-1.8-.9-2.6q-.8 2 .1 3.4v.1l-.5-.9q-.2-.4-.2-1.8c-.1-1.5-1-1.6-1.4-2.3-.2 1.3-.1 2 .5 3l-.5-.5c-.2-.4-.2-.8-.4-2-.1-1.6-1-1.6-1.4-2.4-.2 1.5 0 2.3.8 3.3l.2.2-.9-.8q-.2-.4-.4-1.7c-.4-1.5-1.3-1.4-1.7-2q-.1 2 1.1 3l.1.1-.6-.4-.5-.7h-.2c-.3-.4-.4-.7-.5-2 0-1-.7-1.1-1-1.7q-.2 1.6.6 2.5l.1.3-1-.8-.4-1.2c-.3-1.1-1-1-1.4-1.6q0 1.4.7 2.2l-.4-.3-1.3-2q-.5-1.4-2-1.7zM72.8 40zm-4.4-3.9zM80 51.5v.5z" stroke="#a07843" id="path501" fill="#f5c742" stroke-width=".167"/><g id="g521" fill="#ffeba3"><path d="M62.3 90.5q1.4-1.4 1.4-3c-.4.9-.8 2.2-1.4 3m4.9-6.8c1.1-1.1.6-2.4.1-3.2q.2 1.5-.1 3.2M65 87.4c.8-.8.9-2.2.9-3-.2.8-.5 2.2-.9 3M68.3 77c.4.7 1 1.3.4 2.8q0-1.3-.4-2.8m1-2.4c.5.5 1 1 .6 2.5z" id="path503"/><use xlink:href="#U" id="use505" x="0" y="0" width="100%" height="100%"/><use xlink:href="#U" x="1.352" y="-2.0669999" id="use507" width="100%" height="100%"/><use xlink:href="#V" id="use509" x="0" y="0" width="100%" height="100%"/><use xlink:href="#V" x="1.005" y="-2.698" id="use511" width="100%" height="100%"/><path d="M75.7 62.3c.3.7.8 1.4.3 3zm.9-3.1c.5.6 1 1.2.7 2.8zm.5-3.5c.5.7 1.1 1.2 1 3zm0-3.5c.5.5 1 1 1.2 2.5zm-.2-2.6c.6.3 1.3.6 1.7 2.1zm-.5-3c.7.3 1.3.6 1.8 2zm-1-2.7c.8.2 1.4.4 2 1.8zm-1.6-3c.7.2 1.4.3 2.3 1.6zm-1.2-2.2c.7 0 1.4 0 2.3 1.3q-1-.8-2.3-1.3m-3-2c.8-.1 1.5-.3 2.7.7zM68 35c.7 0 1.3-.3 2.5.6q-1.2-.4-2.5-.6m-2.1-1.5c.6-.2 1.2-.5 2.4.3z" id="path513"/><use xlink:href="#W" id="use515" x="0" y="0" width="100%" height="100%"/><path d="M71.3 80.8c1.9-.1 2.4-1.1 3-2.1q-1.3 1.1-3 2.1m1.3-3c1.6 0 2.2-.8 2.8-1.6zm1.6-2.7c1.6 0 2.2-.7 2.7-1.4q-1.2.8-2.7 1.4m1.6-3c1.5-.1 2-1 2.5-1.7zm1-2.4c1.5-.2 2-1 2.5-1.7zm1.6-3.1a4 4 0 0 0 2.9-2.1zm1.2-2.8c1.7-.5 2.2-1.5 2.6-2.4zm.8-3c1.7-.7 2-1.7 2.3-2.8q-1 1.5-2.3 2.8m.5-3.1c1.6-1 1.8-2 2-3q-.8 1.5-2 3m.2-3C82.6 54 82.7 53 83 52q-.7 1.4-1.8 2.8m.1-2.5c1.3-1 1.3-2.1 1.4-3.1q-.5 1.5-1.4 3m-.4-2.6c1.3-1 1.2-2 1.2-3zm-.5-2.2c1-1.1.9-2 .8-3zm-.7-2.9c.8-1.1.5-2 .2-2.7zm-1.3-2c.8-1.2.4-2 0-2.7zM77.1 40c.5-1.2 0-1.8-.4-2.4zm-1.5-1.7q.3-1.7-.7-2.3.5 1 .7 2.3m-1.6-2c.2-1.2-.4-1.7-.9-2.2zm-1.7-1.2q-.1-1.8-1.1-2.2.7 1 1 2.2M70 32.9q.2-1.3-.5-1.8zm-1.6-1q-.1-1.3-1-1.6zm-2.4-2c-1-.3-1-1-1.3-1.5z" id="path517"/><use xlink:href="#W" x="-0.47799999" y="-1.406" id="use519" width="100%" height="100%"/></g><g id="g527" stroke-width=".185" stroke="#376134"><path d="M120.8 79.4c.2.5-1.4 3.2-1.8 3.8a129 129 0 0 1-8.1 12.4c-7.2.9-14.1 2.2-18.4 2.5l1.7 2.1 17.3-3.9 1.3-.1c2.5-.7 5-1.6 6.7-4 2-2.3 4-5.7 5.5-7.2l3.9-3.6c-3.7 2-5.2 4.2-8 7.9-1.7 2.2-4.2 5.7-8.4 6v-.2c2.5-.7 4.9-1.6 6.6-4 1.9-2.2 3.6-5.5 5.6-7l5.5-5.3c-3.8 3.2-7.3 5.6-9.6 9.4-1.7 2.2-3.3 5.5-7.4 5.8 2.4-3.3 4.5-7.4 6.8-10.7l1-2 .1-1.8z" fill="url(#H)" transform="translate(-54.8)" id="path523"/><path d="M60.9 83.6c1.2-1.6 1.8-4.1 3.3-5.7 1-1 1.9-.3 2.3.5.3.6-.2 3.2-.3 3-.3-1.6-.5-3.9-2.4-2-.7.6-1 2.7-2.9 4.2zm3-1.8c-1.4 3.8-5.5 3.1-5.3 10.3l1-1.4c-.5-4.5 4.5-6.3 4.3-8.9z" id="path525" fill="#41723d"/></g></g></g><!-- app4joy --></svg>