<svg viewBox="0 0 2286 1600" id="svg244" width="2286" height="1600" xmlns:xlink="http://www.w3.org/1999/xlink" xmlns="http://www.w3.org/2000/svg"><defs id="defs248"><path id="D" d="m6.1 19 1.3-.3q.1 1 .5 1.6.3.5.9.5t1-.5.3-1q0-.4-.2-.7l-.4-.4-1-.5q-1.1-.4-1.5-1-.6-1-.6-2.2 0-.8.2-1.5t.8-1.1 1.3-.4q1.2 0 1.8.9t.7 2.4H9.9q-.1-.8-.4-1.1-.2-.4-.8-.4t-.9.4q-.2.2-.2.7l.2.6q.2.3 1.2.7t1.4.8.7 1 .3 1.8T11 21t-1 1.2q-.5.4-1.3.4-1.2 0-1.9-1T6.1 19"/><path id="E" d="M30.3 22.4H29l-.6-2.4h-2.5l-.6 2.4h-1.4l2.6-10.7h1.3zM28 18.2l-.9-4-.8 4z"/><path id="F" d="M25.9 127c5.3 0 7 1.1 7.5 2.6-2-1.5-4.9-1.9-7.5-2.5"/><path id="G" d="M34.3 120c1.2 2 3.2 2.8 3 6.8-.7-3.3-2-4.7-3-6.8"/><path id="H" d="M330.1 195.9c10-.3 9.8.8 13.4 4l2 .3-2.1-.2c-6.3 2.8-9.8-.7-13.3-4.1"/><path id="I" d="M330.1 195.9h.8c9.2-.2 9 1 12.6 4l2.2.8-2.3-.7c-6 2.6-9.4-.3-12.7-3.5-.2-.2-2.6-1-2.8-1.1z"/><path id="J" d="M324.2 143.7c-5.4-12.2 15.1-24.7 24.5-8.9l-.5 1.4-3 1q-10.4-5.6-16.8 3.6c-2.4 2.6-3.5 2.7-4.2 3"/><path id="K" d="M324 143.2c3.8-8.3 10.3-17.2 24.2-7"/><path id="L" d="m323.6 141.7 1.6-1 .3 2.6m-2.2-3.2 2.7-.7m-2.7-.4 3-.2m-.3.6.5 3.2m-3-5h3.6l.1 4.4m-3.4-5.5 4.3-.2-.1 5m-3.7-6h4.6l.2 4.7m-4.2-5.9 5 .3v4.5m-4-6.1 4.8 1 .3 4m-3.9-6.4 4.8 1.6-.2 4.3"/><path id="M" d="m328.1 130.5 4.9 2-.5 4.2"/><path id="N" d="m333.3 136.3 1-4.3m-5-2.3 5 2.3m-3.2-3.3 3.7 3.2"/><path id="O" d="m332.3 128.2 3.4 3.5-2 4.3"/><path id="P" d="m334.6 135.7 2.5-4-3.7-3.9"/><path id="Q" d="m335 127.5 3.7 4.3-3.3 3.6"/><path id="R" d="m336.8 135.2 3-3.2-3.3-4.6"/><path id="S" d="m338.2 127.5 2.8 4.8-3 2.8"/><path id="T" d="m338.7 135.1 3.6-2.3-2.7-5.1"/><path id="U" d="m341.3 128.2 2.3 5.2-4 1.8"/><path id="V" d="m340.6 135.4 4-1.5-1.8-5"/><path id="W" d="m344.5 130 1 4.4-3.7 1.3m4-4.6 1 4.2-3.9.8"/><path id="X" d="M332.6 154.6c-1.1.8-2.3 8-5.5 1.8-2.3-13.8 11.2-20 14.2-19.8h5l2.7 2.3-2.5 2.8c-4 .5-10 4-14 13"/><path id="Y" d="M349 138.9c-13.6.5-19.6 9-20.2 19.8"/><path id="Z" d="m327.1 156.4 2.2-1.5 1.3 3.2m.6-.9-1.5-4.2-2.8 2m0-1.6 3.3-2.1 1.6 4.6m-4.9-4.2 3.8-1.5 1.7 4.6m-5.3-4.3 4.2-1.7 1.8 4.6m-5.6-4.8 4.6-1.2 1.4 5.2m-5.5-5.3 4.8-1 1.2 5.5m-5.3-6.1 4.9-.3 1 5.4m-5-6.4 5-.1.7 5.4m-5-6.4 5.6-.1.2 5.3m-4.7-6.4 5.7.2-.3 5.4m-3.9-7 5.2 1-.2 4.8m-3.3-7.1 4.7 1.7-.5 4.5m-2.9-7 4.5 2-.6 4.2m-2.7-6.9 4.4 2.3-.7 3.9m-2.3-6.8 4.1 2.5-.9 3.7m-2-6.6 3.8 2.7-.7 3.3m-1.5-6.3 3.6 2.7-.9 3m-.8-5.7 2.6 2.7-.7 2.7"/><path id="a" d="M356.2 135.2a2 2 0 1 1-4 0 2 2 0 0 1 4 0"/><path id="b" d="M971 612.6s5.5-2.9 13.5-2.9c13 0 19 12.3 8.9 47-9.6 32.7-32.7 45.4-32.7 45.4l-14.4-.4s-20.6 2.9-41.2-43c-16-35.7-6.3-45.5 4.5-46.7 11.3-1.3 15.4 2.6 15.4 2.6s-2.2-21.2 22.8-21.2c28.7 0 23.3 19.2 23.3 19.2"/><path id="c" d="M938.6 694.1s-10.3-7.7-23.5-29c-4.3-7-9.5-22.3-9.5-22.3l19.2 8.7 13.4-15.7 12.2 14.4 13.2-12.4 11 13.7 15.5-5.5s-2.8 16.8-9 27c-6.5 10.4-17.8 21.1-17.8 21.1z"/><path id="d" d="m923.5 645.2-18.9-7.3s-5-12.5 1-19c6.3-7 22.8.5 22.8.5s-.7-21 19.6-22c22.6-1 19.2 20.3 19.2 20.3s16.3-6.5 24-.2c4.7 4-.2 23.7-.2 23.7l-15.3 4-11.4-13.7-13.2 11.5-13.2-12.8z"/><path id="e" d="M941.9 1000.4s-11.4-8.7-26.1-32.6a171 171 0 0 1-10.5-24.9l21.3 9.7 14.9-17.5 13.4 16 14.7-13.8 12.2 15.3 17-6s-3 18.7-9.9 30c-7.1 11.8-19.7 23.8-19.7 23.8z"/><path id="f" d="M922 1157.5s-9-11.2-17.1-38c-2.7-8.7-4-26.8-4-26.8l18.2 14.8 18.8-13.3 9 19 17.6-9.8 8 17.9 18.1-1.6s-7.6 17.4-17.1 26.6c-10 9.6-25 18-25 18z"/><path id="g" d="m919.5 1100.3-18.2-13.1s-1.8-15 6.3-20.4c8.8-5.9 24.3 7 24.3 7s5.2-23.1 27.2-18.5c24.5 5 15 27.3 15 27.3s19.3-2.5 25.7 6.5c4 5.6-6.8 25.6-6.8 25.6l-17.5.1-8.4-18-17.4 8.7L939 1088z"/><linearGradient id="A" gradientUnits="userSpaceOnUse"><stop offset="0" stop-color="#67582e" id="stop4"/><stop offset="1" stop-color="#9a8445" id="stop6"/></linearGradient><linearGradient xlink:href="#A" id="B" x1="346.522" y1="177.985" x2="351.459" y2="178.032"/><linearGradient xlink:href="#A" id="C" x1="346.02" y1="158.691" x2="351.605" y2="158.691"/></defs><g id="g1"><path id="rect2" d="M0 0h2286v1600H0z" fill="#fff"/></g><style id="style2"><![CDATA[.k{stroke-width:.346}]]></style><g id="g1519" transform="translate(835.8 315)scale(6.20964)"><g id="g53" fill-rule="evenodd"><path d="M3.7 33.3h91.5v79.3a20 20 0 0 1-4.4 13.3q-4.4 5.3-12 9.5c-9 5.1-20.4 9.3-29.3 16-9-6.7-20.2-10.9-29.3-16q-7.6-4.2-12-9.5a20 20 0 0 1-4.5-13.3z" fill="#0000cd" id="path43" opacity=".994"/><path d="M95.2 33.3v79.3a20 20 0 0 1-4.4 13.3q-4.4 5.3-12 9.5c-9 5.1-20.4 9.3-29.3 16-9-6.7-20.2-10.9-29.3-16l-4.7-3z" fill="#ffd700" id="path45" opacity=".994"/><path d="M3.7 3.7h91.5V30H3.7Z" id="path47" fill="#fff" opacity=".999"/><path d="M.2.2v112.4c-.3 25.5 32.5 29 49.3 43.1 16.8-14 49.5-17.6 49.2-43.1V.2H49.5Zm3.5 3.5h91.5V30H3.7Zm0 29.6h91.5v79.3a20 20 0 0 1-4.4 13.3q-4.4 5.3-12 9.5c-9 5.1-20.4 9.3-29.3 16-9-6.7-20.2-10.9-29.3-16q-7.6-4.2-12-9.5a20 20 0 0 1-4.5-13.3z" stroke="#696969" stroke-width="0.415" fill="#d3d3d3" id="path49" opacity=".994"/><path d="M1.2 1.2v111.4q.1 9 5 14.9t12.7 10c10 5.7 22 10 30.6 17 8.6-7 20.6-11.3 30.5-17q7.8-4.1 12.8-10 4.8-5.8 5-15V1.3H49.4Zm2.5 1.5h91.5q1 .1 1 1V30q0 .9-1 1H3.7a1 1 0 0 1-1-1V3.7q.1-.9 1-1m0 29.6h91.5q1 .1 1 1v79.3a21 21 0 0 1-4.6 14 42 42 0 0 1-12.3 9.6c-9.2 5.3-20.5 9.4-29.2 16a1 1 0 0 1-1.2 0c-8.7-6.6-20-10.7-29.2-16a42 42 0 0 1-12.3-9.7 21 21 0 0 1-4.7-13.9V33.3q.1-.9 1-1" id="path51" fill="#fff"/></g><g id="g1295"><path d="m38.3 112.2-2.6 2 .8 1 1.8-1.4 2.2 1.7 2.3-1.7 2.2 1.7 2.2-1.7 2.3 1.7 2.2-1.7 2.2 1.7 2.3-1.7 2.2 1.7 2.3-1.7 1.8 1.4.8-1-2.6-2-2.3 1.7-2.2-1.7-2.3 1.7-2.2-1.7-2.2 1.7-2.3-1.7-2.2 1.7-2.2-1.7-2.3 1.7zm4.5 8.4-2.7 2 .8 1 1.9-1.4L45 124l2.2-1.8 2.3 1.8 2.2-1.8L54 124l2.3-1.8 1.8 1.5.8-1-2.6-2.1-2.3 1.7-2.2-1.7-2.2 1.7-2.3-1.7-2.2 1.7z" fill-opacity="0.996" stroke-opacity="0.996" fill="#4269aa" stroke="#2d4773" stroke-width="0.315" id="path55" opacity=".998"/></g><g fill="#ed3237" id="g73" opacity=".999"><use xlink:href="#D" id="use57" x="0" y="0" width="100%" height="100%"/><path d="M12.5 11.7h1.3v7.6q.1.6.4 1t.9.4.8-.3.4-1v-7.7h1.3V20l-.5 1.4-.7.9q-.5.3-1.3.3-1 0-1.4-.4-.5-.3-.7-.9l-.4-1.2-.1-2.7zM19 22.4V11.8h1.3v8.8h3.3v1.8z" id="path59"/><use xlink:href="#E" id="use61" x="0" y="0" width="100%" height="100%"/><path d="M31.4 22.4 30 11.7h1.3l1 7.4 1.2-7.4H35l1.2 7.5 1-7.5h1.3l-1.6 10.7h-1.4l-1.3-8-1.2 8zm7.6 0V11.7h4.8v1.8h-3.5V16h3.3v1.8h-3.3v2.9H44v1.8z" id="path63"/><use xlink:href="#D" x="38.599998" id="use65" y="0" width="100%" height="100%"/><path d="M51 22.4V11.7h1.3v10.7Zm6.5 0v-8.9h-1.9v-1.8h5.2v1.8h-2v8.9zm4.1 0V11.7h4.8v1.8h-3.5V16h3.2v1.8H63v2.9h3.6v1.8zm6 0V11.7H69l2.6 7.1v-7.1h1.3v10.7h-1.4l-2.6-7v7zm9.5-4v-1.7H80v4.2q-.4.7-1.1 1.2t-1.6.5-1.8-.7q-.7-.7-1.1-2T74 17q0-1.7.4-3t1.3-2q.6-.5 1.5-.5 1.2 0 1.9.9t.9 2.3l-1.3.4q-.2-.8-.5-1.3-.4-.4-1-.4-.8 0-1.3.9t-.5 2.6q0 2 .5 2.9.5 1 1.3 1 .4 0 .8-.3l.7-.7v-1.3z" id="path67"/><use xlink:href="#E" x="56.650002" id="use69" y="0" width="100%" height="100%"/><path d="M87.7 22.4V11.7H89v4.2h2.5v-4.2h1.3v10.7h-1.3v-4.7H89v4.7z" id="path71"/></g><g id="g81" fill-rule="evenodd"><path d="m49.5 35.5-1.7 5.3h-5.6l4.5 3.3-1.7 5.3 4.5-3.3 4.5 3.3-1.7-5.3 4.5-3.3h-5.6z" fill="#a07843" id="path75" opacity=".999"/><path d="M49.5 36.5 48 41.1h-4.8L47 44l-1.5 4.6 3.9-2.9 3.9 2.9-1.5-4.6 3.9-2.9H51z" id="path77" fill="#f5c742" opacity=".999"/><path d="M49.5 36.5 48 41.1l1.5 2-6.3-2L47 44l2.4-.8-4 5.4 4-2.9v-2.5l3.9 5.4-1.5-4.6-2.4-.8 6.3-2H51l-1.5 2Z" id="path79" fill="#ffeba3" opacity=".999"/></g><g id="g1287"><g id="g87" stroke="#a07843"><path d="m37.8 130.3-6.3-5.3-7.4-7.5-5-8 .2-1.5c-1-2.4-2.2-4.5-1.4-8.8-1-2.7-1.8-5.5-1.5-8.7v-9.7l-.3-9.8 1-1.5-.7-8.6.4-9.5" id="path83" stroke-width=".565" fill="none"/><path d="M23.3 126.2c10.6-.4 9.7.8 13.4 4l2 .1h-2.2c-6.2 2.8-9.7-.7-13.2-4z" id="path85" fill="#f5c742" stroke-width=".665"/></g><use xlink:href="#F" id="use89" x="0" y="0" width="100%" height="100%" fill="#ffeba3"/><path d="m38.8 130.7 2.9 2.2-.4-2c-8.2-3.8-8.2-9.3-8-13.8 4.8 5.3 5.3 6.4 5.5 13.6z" id="path91" fill="#f5c742" stroke="#a07843" stroke-width=".565"/><use xlink:href="#G" id="use93" x="0" y="0" width="100%" height="100%" fill="#ffeba3"/><g transform="rotate(13 517.9 -1220.4)" id="g99"><path d="M330.1 195.9c10-.3 9.8.8 13.4 4l4 .3-4.1-.2c-6.3 2.8-9.8-.7-13.3-4.1z" id="path95" fill="#f5c742" stroke="#a07843" stroke-width=".665"/><use xlink:href="#F" x="306.858" y="69.694" id="use97" width="100%" height="100%" fill="#ffeba3"/></g><g transform="matrix(.80522 .30866 -.25742 .96549 -203.7 -182.2)" id="g105"><path d="M330.1 195.9c10-.3 9.8.8 13.4 4l4.3.2h-4.4c-6.3 2.7-9.8-.8-13.3-4.2z" id="path101" fill="#f5c742" stroke="#a07843" stroke-width=".665"/><use xlink:href="#F" x="306.858" y="69.694" id="use103" width="100%" height="100%" fill="#ffeba3"/></g><g transform="matrix(.72069 .47355 -.45774 .8882 -137.2 -230.7)" id="g111"><path d="m327.6 194.5 3 1.4c9.5-.3 8 .6 11.6 3.8l2 .3-2.2-.2c-6 2.7-8.2-.3-11.6-3.6z" id="path107" fill="#f5c742" stroke="#a07843" stroke-width=".665"/><use xlink:href="#F" x="306.858" y="69.694" id="use109" width="100%" height="100%" fill="#ffeba3"/></g><g transform="matrix(.64479 .57262 -.58115 .81283 -89 -259)" id="g117"><use xlink:href="#H" id="use113" x="0" y="0" width="100%" height="100%" fill="#f5c742" stroke="#a07843" stroke-width=".665"/><use xlink:href="#F" x="306.858" y="69.694" id="use115" width="100%" height="100%" fill="#ffeba3"/></g><g transform="matrix(.59422 .62494 -.6476 .76095 -59.4 -276.2)" id="g123"><use xlink:href="#H" id="use119" x="0" y="0" width="100%" height="100%" fill="#f5c742" stroke="#a07843" stroke-width=".665"/><use xlink:href="#F" x="306.858" y="69.694" id="use121" width="100%" height="100%" fill="#ffeba3"/></g><g transform="matrix(.59422 .62494 -.6476 .76095 -59.2 -286)" id="g129"><path d="m327.3 194.6 3.2 1.3c9.6-.3 9.4.9 13 4l2 .3-2.1-.2c-6.1 2.7-9.6-.5-13-3.9z" id="path125" fill="#f5c742" stroke="#a07843" stroke-width=".665"/><use xlink:href="#F" x="306.858" y="69.694" id="use127" width="100%" height="100%" fill="#ffeba3"/></g><g transform="matrix(.59422 .62494 -.6476 .76095 -59.3 -297.3)" id="g135"><path d="m329 195.4 1.6.5c9.5-.3 9.3.9 13 4l2 .3-2.2-.2c-6.1 2.7-9.6-.5-13-3.8z" id="path131" fill="#f5c742" stroke="#a07843" stroke-width=".665"/><use xlink:href="#F" x="306.858" y="69.694" id="use133" width="100%" height="100%" fill="#ffeba3"/></g><g transform="matrix(.59422 .62494 -.6476 .76095 -59.2 -307.2)" id="g141"><path d="m327.5 194 3 1.9c9.6-.3 9.4.9 13 4l2 .3-2.1-.2c-6 2.7-9.5-.5-13-3.8z" id="path137" fill="#f5c742" stroke="#a07843" stroke-width=".665"/><use xlink:href="#F" x="306.858" y="69.694" id="use139" width="100%" height="100%" fill="#ffeba3"/></g><g transform="matrix(1.0077 .14348 -.1581 .87445 -285.2 -100.7)" id="g147"><path d="M349 203.4q-2.8-1.8-3.8-4c-3.6-2.2-5.2-7.5-5-12.1l-.9-3.3 1.3 3.2c4.1 4.7 4.8 6 5 12a15 15 0 0 0 3.4 4.2z" id="path143" fill="#f5c742" stroke="#a07843" stroke-width=".565"/><use xlink:href="#G" x="306.858" y="69.694" id="use145" width="100%" height="100%" fill="#ffeba3"/></g><g transform="matrix(.9532 .357 -.3426 .81993 -236 -170.3)" id="g153"><path d="M348.3 202.4c-2-1.2-2.2-1.5-3.1-3-3.6-2.2-5.2-7.5-5-12.1l-.9-3.3 1.3 3.2c4.1 4.7 4.8 6 5 12a8 8 0 0 0 2.7 3.2z" id="path149" fill="#f5c742" stroke="#a07843" stroke-width=".565"/><use xlink:href="#G" x="306.858" y="69.694" id="use151" width="100%" height="100%" fill="#ffeba3"/></g><g transform="matrix(.79185 .63954 -.58383 .66993 -136.8 -247.6)" id="g159"><path d="M346.2 202c-.6-2-.1-1.3-1-2.8-6.6-4.3-4.3-7.8-5.6-13.4 4.6 6.5 6.1 7.6 6 13.2 0 .4 0 .8.6 3z" id="path155" fill="#f5c742" stroke="#a07843" stroke-width=".565"/><use xlink:href="#G" x="306.858" y="69.694" id="use157" width="100%" height="100%" fill="#ffeba3"/></g><g transform="matrix(.78736 .64505 -.58849 .66584 -135.6 -257.6)" id="g165"><path d="M345.5 201.1c-.4-1 .2-.3-.8-1.8-3.6-2.2-4.7-7.4-4.5-12l-.9-3.3 1.3 3.2c4.1 4.7 4.2 6 4.4 12 .6 1.3.7 1 .5 2z" id="path161" fill="#f5c742" stroke="#a07843" stroke-width=".565"/><use xlink:href="#G" x="306.858" y="69.694" id="use163" width="100%" height="100%" fill="#ffeba3"/></g><g transform="matrix(-.06766 .8597 -.9989 .0276 240.3 -211.5)" id="g171"><use xlink:href="#I" id="use167" x="0" y="0" width="100%" height="100%" fill="#f5c742" stroke="#a07843" stroke-width=".665"/><use xlink:href="#F" x="306.858" y="69.694" id="use169" width="100%" height="100%" fill="#ffeba3"/></g><g transform="rotate(94.5 222 .7)scale(.86235 .99366)skewX(7)" id="g177"><use xlink:href="#I" id="use173" x="0" y="0" width="100%" height="100%" fill="#f5c742" stroke="#a07843" stroke-width=".665"/><use xlink:href="#F" x="306.858" y="69.694" id="use175" width="100%" height="100%" fill="#ffeba3"/></g><g transform="matrix(-.06766 .8597 -.9989 .0276 240.7 -232.5)" id="g183"><use xlink:href="#I" id="use179" x="0" y="0" width="100%" height="100%" fill="#f5c742" stroke="#a07843" stroke-width=".665"/><use xlink:href="#F" x="306.858" y="69.694" id="use181" width="100%" height="100%" fill="#ffeba3"/></g><g transform="matrix(-.06784 .85967 -.99886 .02671 240.6 -241.5)" id="g189"><use xlink:href="#I" id="use185" x="0" y="0" width="100%" height="100%" fill="#f5c742" stroke="#a07843" stroke-width=".665"/><use xlink:href="#F" x="306.858" y="69.694" id="use187" width="100%" height="100%" fill="#ffeba3"/></g><g transform="matrix(.2726 .81812 -.90944 .41393 105 -313.2)" id="g195"><path d="M331 195.9c9.1-.2 9 1 12.5 4l2.2.8-2.3-.7c-6 2.6-9.4-.3-12.7-3.5l-1.5-.7z" id="path191" fill="#f5c742" stroke="#a07843" stroke-width=".665"/><use xlink:href="#F" x="306.858" y="69.694" id="use193" width="100%" height="100%" fill="#ffeba3"/></g></g><g transform="translate(-299.5 -69.7)" id="g313"><g id="g281" stroke-width=".291" stroke="#14471e"><g id="g201" fill="#268437"><path d="M349.8 133.8c-.3-3-1.6-5.6-1.4-9 .6-2.1.5-4.2.8-6.2.2 2.8-.2 5.5 1.2 8.4.1 3.8 0 5.4-.6 6.8z" id="path197"/><use xlink:href="#J" id="use199" x="0" y="0" width="100%" height="100%"/></g><g id="g229" fill="none"><use xlink:href="#K" id="use203" x="0" y="0" width="100%" height="100%"/><use xlink:href="#L" id="use205" x="0" y="0" width="100%" height="100%"/><use xlink:href="#M" id="use207" x="0" y="0" width="100%" height="100%"/><use xlink:href="#N" id="use209" x="0" y="0" width="100%" height="100%"/><use xlink:href="#O" id="use211" x="0" y="0" width="100%" height="100%"/><use xlink:href="#P" id="use213" x="0" y="0" width="100%" height="100%"/><use xlink:href="#Q" id="use215" x="0" y="0" width="100%" height="100%"/><use xlink:href="#R" id="use217" x="0" y="0" width="100%" height="100%"/><use xlink:href="#S" id="use219" x="0" y="0" width="100%" height="100%"/><use xlink:href="#T" id="use221" x="0" y="0" width="100%" height="100%"/><use xlink:href="#U" id="use223" x="0" y="0" width="100%" height="100%"/><use xlink:href="#V" id="use225" x="0" y="0" width="100%" height="100%"/><use xlink:href="#W" id="use227" x="0" y="0" width="100%" height="100%"/></g><g transform="matrix(-1 0 0 1 698 0)" id="g261"><use xlink:href="#J" id="use231" x="0" y="0" width="100%" height="100%" fill="#268437"/><g id="g259" fill="none"><use xlink:href="#K" id="use233" x="0" y="0" width="100%" height="100%"/><use xlink:href="#L" id="use235" x="0" y="0" width="100%" height="100%"/><use xlink:href="#M" id="use237" x="0" y="0" width="100%" height="100%"/><use xlink:href="#N" id="use239" x="0" y="0" width="100%" height="100%"/><use xlink:href="#O" id="use241" x="0" y="0" width="100%" height="100%"/><use xlink:href="#P" id="use243" x="0" y="0" width="100%" height="100%"/><use xlink:href="#Q" id="use245" x="0" y="0" width="100%" height="100%"/><use xlink:href="#R" id="use247" x="0" y="0" width="100%" height="100%"/><use xlink:href="#S" id="use249" x="0" y="0" width="100%" height="100%"/><use xlink:href="#T" id="use251" x="0" y="0" width="100%" height="100%"/><use xlink:href="#U" id="use253" x="0" y="0" width="100%" height="100%"/><use xlink:href="#V" id="use255" x="0" y="0" width="100%" height="100%"/><use xlink:href="#W" id="use257" x="0" y="0" width="100%" height="100%"/></g></g><use xlink:href="#X" id="use263" x="0" y="0" width="100%" height="100%" fill="#268437"/><g id="g269" fill="none"><use xlink:href="#Y" id="use265" x="0" y="0" width="100%" height="100%"/><use xlink:href="#Z" id="use267" x="0" y="0" width="100%" height="100%"/></g><g transform="matrix(-1 0 0 1 700.4 0)" id="g279"><use xlink:href="#X" x="0.28400001" id="use271" y="0" width="100%" height="100%" fill="#268437"/><g id="g277" fill="none"><use xlink:href="#Y" x="0.28400001" id="use273" y="0" width="100%" height="100%"/><use xlink:href="#Z" x="0.28400001" id="use275" y="0" width="100%" height="100%"/></g></g></g><g stroke="#3b321b" stroke-width="0.5" id="g289"><path d="M346.2 176.8h5.3c1.5.6 1.8 1.7 2.3 2.6h-9.3q.6-1.5 1.7-2.6z" fill="url(#B)" id="path283"/><path d="m346.2 176.8 1.2-30.6c0-1.2.2-1.6.4-2.4-.6-1.1-.3-2.1-.4-3.2h3.4l.7 36.2z" fill="url(#C)" id="path285"/><path d="M347.8 143.8h2.3m-2.2 6.8h2.3m-1.8 2.5h2.6m-2 2.6h-2m1.6 2.6h2.5m-1.8 2.6h-2.5m1.9 3.4h2.5m-2.5 2.9h-2.2m2.3 3.3h2.5m-2.7 3.2h-2.3" stroke-linecap="round" id="path287" fill="none"/></g><g id="g311" fill-rule="evenodd"><path d="M346.8 136a1.7 1.7 0 1 1-3.4 0 1.7 1.7 0 1 1 3.4 0z" stroke-width="0.3" id="path291" opacity=".998" stroke="#14471e" stroke-linejoin="bevel" fill="#369029" fill-opacity="1"/><path d="M346.2 136a.5.5 0 0 1-1 0 .5.5 0 0 1 1 0" id="path293" opacity=".998" fill="#45b734" fill-opacity="1"/><path d="M352.1 134.4a2.4 2.4 0 0 1-2.4 2.5 2.4 2.4 0 0 1-2.4-2.5 2.4 2.4 0 0 1 2.4-2.4 2.4 2.4 0 0 1 2.4 2.4z" stroke-width="0.426" id="path295" opacity=".998" stroke="#14471e" stroke-linejoin="bevel" fill="#369029" fill-opacity="1"/><path d="M351.3 134.2a.7.7 0 1 1-1.4 0 .7.7 0 1 1 1.4 0" id="path297" opacity=".998" fill="#45b734" fill-opacity="1"/><path id="use299" d="M356.2 135.2a2 2 0 1 1-4 0 2 2 0 0 1 4 0z" opacity="0.998" fill="#369029" fill-opacity="1" stroke="#14471e" stroke-width="0.346" stroke-linejoin="bevel" paint-order="markers fill stroke"/><path d="M355.5 135a.6.6 0 1 1-1.1 0 .6.6 0 1 1 1.1 0" id="path301" opacity=".998" fill="#45b734" fill-opacity="1"/><path d="M354.6 139.7a2.2 2.2 0 1 1-4.5 0 2.2 2.2 0 0 1 4.5 0z" stroke-width="0.396" id="path303" opacity=".998" stroke="#14471e" stroke-linejoin="bevel" fill="#369029" fill-opacity="1"/><path d="M353.8 139.5a.6.6 0 1 1-1.3 0 .6.6 0 1 1 1.3 0" id="path305" opacity=".998" fill="#45b734" fill-opacity="1"/><path id="use307" d="M350 139.3a2 2 0 1 1-3.9 0 2 2 0 0 1 4 0z" opacity="0.998" fill="#369029" fill-opacity="1" stroke="#14471e" stroke-width="0.346" stroke-linejoin="bevel" paint-order="markers fill stroke"/><path d="M349.4 139.2a.6.6 0 1 1-1.2 0 .6.6 0 1 1 1.2 0" id="path309" opacity=".998" fill="#45b734" fill-opacity="1"/></g></g><g transform="translate(-1.5 .2)scale(.09145)" id="g393"><path d="M968.1 474.5s5.2-3 12.7-3c12.3 0 18 13 8.4 49.8-9 34.7-30.9 48.1-30.9 48.1l-13.5-.3s-19.4 3-38.8-45.7c-15-37.9-6-48.2 4.2-49.6 10.7-1.3 14.5 2.8 14.5 2.8s-2-22.5 21.5-22.5c27 0 22 20.4 22 20.4" id="path315" fill="#113e34"/><path d="M937.6 561s-9.8-8.2-22.2-30.9c-4-7.3-9-23.6-9-23.6l18.2 9.3 12.6-16.7 11.4 15.3 12.5-13.2 10.4 14.6L986 510s-2.5 17.8-8.4 28.5c-6.1 11.2-16.8 22.5-16.8 22.5z" id="path317" fill="#268437"/><path d="m923.3 509.1-17.7-7.7s-4.7-13.4.8-20.3c6-7.5 21.5.6 21.5.6s-.6-22.3 18.5-23.4c21.3-1.1 18.1 21.5 18.1 21.5s15.4-6.8 22.5 0c4.5 4.1-.1 25-.1 25l-14.4 4.3-10.7-14.5-12.5 12-12.4-13.4z" id="path319" fill="#fff"/><path d="M969.2 544.7s5.4-3.2 13.5-3.2c13 0 19 13.6 8.8 51.7-9.6 36-32.7 50-32.7 50l-14.4-.4s-20.5 3.1-41.1-47.4c-16-39.3-6.4-50 4.4-51.4 11.4-1.4 15.4 3 15.4 3s-2.2-23.4 22.8-23.4c28.7 0 23.3 21.1 23.3 21.1" id="path321" fill="#113e34"/><path d="M936.7 634.4s-10.3-8.5-23.5-32c-4.2-7.6-9.5-24.5-9.5-24.5l19.2 9.6 13.5-17.3 12 15.9 13.3-13.7 11 15 15.5-6s-2.7 18.6-9 29.7a136 136 0 0 1-17.8 23.3z" id="path323" fill="#268437"/><path d="m921.7 580.6-19-8s-4.9-13.9 1-21c6.4-7.8 22.8.6 22.8.6s-.7-23.2 19.6-24.3c22.6-1.1 19.3 22.4 19.3 22.4s16.2-7.2 23.9-.2c4.7 4.4-.2 26-.2 26l-15.2 4.5-11.4-15-13.3 12.5-13.2-14z" id="path325" fill="#fff"/><use xlink:href="#b" id="use327" x="0" y="0" width="100%" height="100%" fill="#113e34"/><use xlink:href="#c" id="use329" x="0" y="0" width="100%" height="100%" fill="#268437"/><use xlink:href="#d" id="use331" x="0" y="0" width="100%" height="100%" fill="#fff"/><use xlink:href="#b" y="65.403999" id="use333" x="0" width="100%" height="100%" fill="#113e34"/><use xlink:href="#c" y="65.404999" id="use335" x="0" width="100%" height="100%" fill="#268437"/><use xlink:href="#d" y="65.404999" id="use337" x="0" width="100%" height="100%" fill="#fff"/><use xlink:href="#b" y="139.20399" id="use339" x="0" width="100%" height="100%" fill="#113e34"/><use xlink:href="#c" y="139.20399" id="use341" x="0" width="100%" height="100%" fill="#268437"/><use xlink:href="#d" y="139.20399" id="use343" x="0" width="100%" height="100%" fill="#fff"/><path d="M975.4 829.9s5.9-3.3 14.6-3.3c14 0 20.4 13.6 9.5 52a85 85 0 0 1-35.4 50l-15.4-.3s-22.3 3.1-44.5-47.6c-17.3-39.4-6.9-50.2 4.8-51.5 12.3-1.5 16.6 2.9 16.6 2.9s-2.3-23.5 24.7-23.5c31 0 25 21.3 25 21.3" id="path345" fill="#113e34"/><path d="M940.3 919.9s-11-8.6-25.4-32.2c-4.6-7.5-10.3-24.5-10.3-24.5l20.8 9.6 14.5-17.3 13.1 15.8 14.3-13.7 12 15.2 16.6-6s-3 18.5-9.7 29.7c-7 11.6-19.2 23.4-19.2 23.4z" id="path347" fill="#268437"/><path d="m924 865.9-20.3-8.1s-5.4-13.9 1-21c6.8-7.9 24.6.6 24.6.6s-.8-23.3 21.1-24.4c24.5-1.2 20.8 22.4 20.8 22.4s17.6-7.2 25.9-.1c5.1 4.4-.2 26-.2 26l-16.5 4.6-12.3-15.2-14.3 12.6-14.3-14z" id="path349" fill="#fff"/><path d="M977.8 909.1s6-3.2 15-3.2c14.4 0 21 13.8 9.8 52.6-10.6 36.6-36.3 50.8-36.3 50.8l-15.9-.4s-22.8 3.2-45.6-48.2c-17.7-40-7-50.9 4.9-52.3 12.6-1.4 17 3 17 3s-2.3-23.8 25.3-23.8c31.8 0 25.8 21.5 25.8 21.5" id="path351" fill="#113e34"/><use xlink:href="#e" id="use353" x="0" y="0" width="100%" height="100%" fill="#268437"/><path d="m925.2 945.6-21-8.1s-5.4-14.1 1-21.4c7.1-7.9 25.4.6 25.4.6s-.8-23.5 21.6-24.6c25.1-1.2 21.4 22.7 21.4 22.7s18-7.3 26.5-.2c5.3 4.5-.2 26.5-.2 26.5l-16.9 4.5-12.6-15.3-14.7 12.8-14.6-14.3z" id="path355" fill="#fff"/><path d="M977.8 989.3s6-3.3 15-3.3c14.4 0 21 13.8 9.8 52.6-10.6 36.6-36.3 50.8-36.3 50.8l-15.9-.4s-22.8 3.2-45.6-48.2c-17.7-40-7-50.8 4.9-52.2 12.6-1.5 17 3 17 3s-2.3-23.8 25.3-23.8c31.8 0 25.8 21.5 25.8 21.5" id="path357" fill="#113e34"/><use xlink:href="#e" y="80.140999" id="use359" x="0" width="100%" height="100%" fill="#268437"/><path d="m925.2 1025.8-21-8.2s-5.4-14 1-21.3c7.1-8 25.4.6 25.4.6s-.8-23.6 21.6-24.7c25.1-1.2 21.4 22.7 21.4 22.7s18-7.2 26.5-.1c5.3 4.4-.2 26.4-.2 26.4l-16.9 4.6-12.6-15.4-14.7 12.8-14.6-14.2z" id="path361" fill="#fff"/><path d="M979.6 1078.2s6.7-1.7 15.3.6c14 3.6 16.9 18.6-3.7 53.3-19.4 32.8-47.8 40.1-47.8 40.1L928 1168s-22.9-2.6-32.1-58c-7.2-43.2 5.9-51.1 17.8-49.4 12.6 1.7 15.8 7 15.8 7s3.6-23.5 30.4-16.6c30.8 8 19.6 27.3 19.6 27.3" id="path363" fill="#113e34"/><use xlink:href="#f" id="use365" x="0" y="0" width="100%" height="100%" fill="#268437"/><use xlink:href="#g" id="use367" x="0" y="0" width="100%" height="100%" fill="#fff"/><path d="M969.5 1157.7s6.7-1.6 15.3.6c14 3.6 16.9 18.6-3.7 53.4a87 87 0 0 1-47.8 40l-15.3-4.3s-22.9-2.6-32.1-58c-7.2-43.2 5.9-51 17.8-49.4 12.6 1.7 15.8 7.1 15.8 7.1s3.6-23.6 30.4-16.7c30.8 8 19.6 27.3 19.6 27.3" id="path369" fill="#113e34"/><use xlink:href="#f" x="-10.09" y="79.535004" id="use371" width="100%" height="100%" fill="#268437"/><use xlink:href="#g" x="-10.09" y="79.535004" id="use373" width="100%" height="100%" fill="#fff"/><path d="M943.6 1235s6.8 1.2 13.7 6.8c11.3 9 7.9 23.9-25 47.2-31.2 22-60 17.2-60 17.2L860 1296s-19.8-11.7-5.6-66.1c11-42.3 26.1-44.2 36.3-37.9 10.8 6.8 11.6 13 11.6 13s12.9-20.1 34.6-2.9c24.8 19.8 6.7 33 6.7 33" id="path375" fill="#113e34"/><path d="M858.6 1284s-3.5-13.9 0-41.7c1-9 7.2-26 7.2-26l10.6 20.8 22.6-4.4.5 21 20.1-1.8v19.6l17.2 6s-14 12.7-26.6 17.3a142 142 0 0 1-30.2 6.2z" id="path377" fill="#268437"/><path d="m879.7 1230.8-11.3-19.4s4.5-14.5 14-16.1c10.6-1.8 19.5 16.2 19.5 16.2s14-19 32.3-5.8c20.4 14.7 2.6 31 2.6 31s18.6 5.7 20.8 16.5c1.4 6.8-16.6 20.6-16.6 20.6l-16-7-.4-19.9-19.4 1-2.6-20.4z" id="path379" fill="#fff"/><path d="M897.7 1299.9s6.7 1.3 13.6 7c11 9.3 7.3 24.1-26.3 46.7-31.6 21.3-60.3 15.7-60.3 15.7l-12-10.5s-19.6-12.1-4-66.2c12-42 27.1-43.6 37.2-37 10.6 7 11.2 13.3 11.2 13.3s13.4-19.8 34.6-2c24.4 20.3 6 33 6 33" id="path381" fill="#113e34"/><path d="M811.6 1346.8s-3.2-14 .9-41.7c1.3-9 7.9-25.8 7.9-25.8l10.1 21.1 22.7-4v21l20.1-1.2-.5 19.6 17 6.3s-14.3 12.5-26.9 16.7c-13 4.4-30.3 5.6-30.3 5.6z" id="path383" fill="#268437"/><path d="m833.9 1294.1-10.8-19.7s4.8-14.3 14.4-15.7c10.6-1.5 19 16.7 19 16.7s14.6-18.6 32.5-5c20 15.1 1.8 31 1.8 31s18.6 6 20.5 17c1.2 6.8-17.2 20.2-17.2 20.2l-15.8-7.4.1-19.9-19.4.4-2.1-20.3z" id="path385" fill="#fff"/><path d="M647 1429.3s56.8-22.2 81.6-61.7c6.4-10.1 18.2-28.6 33.8-57.1 6.6-12 20.7-13.3 29.8-9.2 7.7 3.6 11 12 11 12s18.2-5.9 33 9.3c18.8 19.1 5.2 35 5.2 35s18.3 6 16.5 28c-1.9 21.8-39.8 34.8-49.9 37.7-21.1 6-69.3 13-103 14.8-35.4 2-53.8 11.6-53.8 11.6z" id="path387" fill="#113e34"/><path d="m770 1346.7-6.4-23.8s5.2-15.5 16.7-17.6c15.6-2.9 19.5 15.8 19.5 15.8s18.8-4.2 31 6.7c15.9 14.3 2.4 31.3 2.4 31.3s20.6 8.7 17.7 28.6c-2.4 16-33.5 23.4-33.5 23.4l-18.2-13 11-20.1-22.6-7 7.6-20z" id="path389" fill="#fff"/><path d="M653 1433.6s17.1-6.5 36.2-18.9a159 159 0 0 0 31.6-26c10-11.1 38.9-58.5 38.9-58.5l5.4 22 22.8 3-7.6 19.3 22.2 6.8-10 17.6 19.5 14.3s-25.5 7.7-36.5 9.7c-14.7 2.8-47.4 4-75.4 7.6-25.5 3.4-45.6 11.6-45.6 11.6z" id="path391" fill="#268437"/></g><g id="g1292"><path d="M49.5 130.8s-1.3-2.4-4.5-2.4c-2.4 0-3.7 1.2-4 2.4-1.8 5.4 4 6.6 4 6.6s0 .5-2 1.3c-2.5.9-4.4.5-4.4.5l1.8 1.4-1.8 1s2.8 1.3 6.4 0a8 8 0 0 0 4.5-3.2s1.8 2.3 4.6 3.2c3.5 1.2 6.3 0 6.3 0l-1.8-1 1.8-2.2s-1.8.8-3.4.4c-2-.5-3-1.4-3-1.4s5.8-1 4-6.6c-.4-1.3-2.2-2.4-4-2.4-3.2 0-4.5 2.4-4.5 2.4" fill="#a07843" id="path395"/><path d="M49.5 132.2S48.2 129 45 129c-1.1 0-2.8.5-3.4 1.7-2.2 4.9 4.5 6.4 4.5 6.4s-.6 1.2-2.7 2c-2.4 1-3.2.5-3.2.5l1.6.8-2 1s1.5.6 5-.5c3.3-1 4.7-3.8 4.7-3.8s1.8 2.7 4.5 3.8c3 1.2 5.4.5 5.4.5l-1.7-1 1.3-1.3s-1 .5-2.6.1c-2.7-.6-3.5-2.1-3.5-2.1s6.3-1.3 4.4-6.2c-.3-.8-1.7-1.9-3.4-1.9-3.2 0-4.4 3-4.4 3" id="path397" fill="#f5c742"/><path d="M47 135.7s1.6-2.4-.2-4.1q-1.7-1.5-3.1-.4c-1 1-.7 2.7.9 3.5 1.6 1 2.5 1 2.5 1m4.9 0s-1.6-2.4.2-4.1c1-1 2.4-1.1 3.2-.4 1 1 .7 2.7-1 3.5-1.6 1-2.4 1-2.4 1" id="path399"/></g></g><!-- app4joy --></svg>