<svg id="svg2" height="1050" width="1500" y="0.00000000" x="0.00000000" viewBox="0 0 1500 1050" xmlns="http://www.w3.org/2000/svg"><g transform="scale(1 1.05)" id="layer1" fill="#466700" stroke="none"><path id="rect3635" d="M0 0h1500v1000H0z" fill="#466700" fill-opacity="1" stroke="none"/></g><g transform="matrix(.80257 0 0 .6399 450 164.8)" id="g1"><path stroke-miterlimit="4" d="M106.4 252.7C104 424.9 52.1 828.5 375 981.2c298.8-158.8 268.8-448.1 271.4-724.5-62.9-30.2-78.6-59-96-121.6-69.7-64.3-234.7-82.6-350.1-2.5-15 69.1-48.7 104.8-93.9 120Z" id="path9938" fill="#3f7300" stroke="#000000" stroke-width="3.7" stroke-linecap="butt" stroke-linejoin="miter" stroke-dasharray="none"/><path stroke-miterlimit="4" d="m376.8 392.5 2.6 283.7 43.1-63-1-158.2z" id="path10072" fill="#fceb66" stroke="#000000" stroke-width="2.6" stroke-linecap="butt" stroke-linejoin="miter" stroke-dasharray="none"/><path d="m375.6 390.5 45.2 66 1.9 155.8-44.6 64.2z" id="path10064" fill-opacity="0"/><path stroke-miterlimit="4" d="m375.4 392.7 2 283.7-46.6-63.4 2.5-157z" id="path10062" fill="#e4474a" stroke="#000000" stroke-width="2.6" stroke-linecap="butt" stroke-linejoin="miter" stroke-dasharray="none"/><path stroke-miterlimit="4" d="m376.5 98.2 10.6 53h41.5l-32.4 33.9 12.1 49.5-31.8-33.9-33.8 34.9 11.1-52.5-28.3-31.4 36.9 1z" id="path9944" fill="#fceb66" stroke="#000000" stroke-width="2.6" stroke-linecap="butt" stroke-linejoin="miter" stroke-dasharray="none"/><path stroke-miterlimit="4" d="M227.4 763.5c-6.8 6.4-38 11-42.4-24a43 43 0 0 1 16-37c17.6-10 23.5-2.4 22.4-3.5C288 784 358 779.8 381 779.5c11.8 1.3 86.6-4 145.4-80.5 23.2-9.6 37.6 22.2 38.5 28 4 14.3-8.3 36.3-18.5 40-15.8 5.8-25.5-6.5-25.5-6.5-30 34.7-68.8 63-136 70-46.8 2.1-105.7-14.8-157.4-67z" id="path9950" fill="#fff0f0" stroke="#000000" stroke-width="2.6" stroke-linecap="butt" stroke-linejoin="miter" stroke-dasharray="none"/><path d="m251.4 745.6 2.4 2-2 2.4q3.9-1.6 6 .3c1.3 1.3 1.4 2 1.8 3l-3 1.8c-1-2.8-3.4-3.6-5.5-2.6-2.8 1.5-7 7.5-10.4 11.2l-2.7-2.1z" id="path4183" fill="#000000"/><path d="m265.6 758.6 3 2.2-8 11c-2 3-.8 4.9.5 5.9.9.7 4.5 3.3 8-.9l7.4-10.3 2.8 2-12 16.8-2.6-1.8 1.7-2.4c-2.6 1-5.3.9-8.4-1.8-1.3-1.8-3.6-3.7-1-8.3z" id="path4185" fill="#000000"/><path d="m288.8 767 3.1 1.4-4.4 9.4c2-1 4.4-1.3 7.8.5 3 2.2 4.2 5 2.6 8.4l-6.2 13.3-3.2-1.6 5.9-12.3c.4-1.5 1.5-4.1-1.9-5.7-.5-.2-4-2.2-7.1 1.8l-5.8 12-3.2-1.5z" id="path4922" fill="#000000"/><path d="m309 783.7 3.3 1.4-5.1 12.5c-1.5 3.3.2 5 1.7 5.6 1 .5 5.1 2.2 7.5-2.6l5-11.8 3.2 1.3-8 19.1-2.8-1.1 1.1-2.8c-2.4 1.6-5 2-8.6.2-1.7-1.4-4.4-2.7-3-7.9z" id="path4924" fill="#000000"/><path d="m335 786.8-.6 3.8 3.4.5.7-3.8z" id="path4926" fill="#000000"/><path d="m333.7 794.5 3.6.6-3.4 20.3-3.4-.4z" id="path4928" fill="#000000"/><path d="m355.5 804.9-.3 3.4 10.8.6.3-3.6z" id="path4930" fill="#000000"/><path d="M384.7 795.6h3.2v3q1.9-3.6 4.7-3.4c1.9.1 2.4.7 3.4 1.1l-1.2 3.3c-2.6-1.5-5-.6-5.9 1.5-1.2 3-.7 10.2-1 15.3h-3.4z" id="path4932" fill="#000000"/><path d="M415 792.3q-1.4 0-3.2.5c-7.3 2.4-7.2 5.5-7.4 8.6l3.4-.4c.2-2 .2-4 3.9-5.1s6-.1 6.6 3.6c-2 1.5-6 2.5-9.4 4.4-5 4.1-2.2 9-.6 10 3.3 2 9.5 1 13-4.2q.3 1.1 1.3 2.2l3.4-1c-.3-.2-2-3.2-2-3.7l-3.3-11.6q-1.4-3.5-5.7-3.3m4 9.9c2.4 7-2 8.4-3.6 9.2-2.5 1-5.5.5-5.6-2.8 0-3.1 6.1-4.1 9.2-6.4" id="path4934" fill="#000000"/><path d="m424 781.6 3.3-1.3 3.7 9.8c.7-2.3 2.2-4.2 5.8-5.3q5.7-1 7.9 4l5.2 13.7-3.4 1.2-4.8-12.8c-.7-1.3-1.9-4-5.4-2.7-.5.3-4.4 1.5-3.6 6.5l4.6 12.5-3.3 1.2z" id="path4938" fill="#000000"/><path d="M461 773q-1.5.5-3 1.5c-6 4.7-4.9 7.6-4 10.6l3-1.6c-.4-1.9-1.1-3.7 2-6q4.6-3.6 7.4 1c-1.3 2.1-4.7 4.5-7.3 7.4-3.3 5.6.9 9.2 2.8 9.5 3.8 1 9.3-2.1 10.8-8.2q.7.9 2 1.7l2.8-2.2c-.3 0-3-2.4-3.1-2.8l-7-9.8q-2.5-2.8-6.5-1.1m7 7.9c4.6 5.8 1 8.6-.3 9.9-2 1.7-5 2.3-6.2-.8-1-3 4.4-5.9 6.5-9.1" id="path4943" fill="#000000"/><path d="m488.3 753-3 2.2 4.6 17c-4.8-4.3-9.6-6.8-14.4-10.3l-2.9 2 18.2 12.6 1 3.2c-.2 2.5-1.8 3.5-3.5 4.4l2.1 2.4c2.6-.8 4.5-2.4 4.4-6.5z" id="path4945" fill="#000000"/><path d="m494.7 749.1 2.7-2.4 9.2 9.9c2.5 2.7 4.7 1.8 6 .8.8-.8 4-3.8.7-8l-8.7-9.4 2.6-2.4 14 15.3-2.3 2-2-2.1c.4 2.8-.2 5.4-3.5 7.9-2 1-4.3 2.8-8.3-.7z" id="path4947" fill="#000000"/><path stroke-miterlimit="4" d="m376.1 390.5 45 64.9v157L378.3 678l-47.1-65 2.1-157.6z" id="path10048" fill="none" stroke="#000000" stroke-width="2.6" stroke-linecap="butt" stroke-linejoin="miter" stroke-dasharray="none"/><path stroke-miterlimit="4" d="M349 432.6c13 17.6 7.1 38.4 10 57.8 7.4 26.1 27.2 27.6 34.3.7l2.8-43.6c1.8-10 6.5-8.8 10-12" id="path10050" fill="none" stroke="#000000" stroke-width="2.6" stroke-linecap="butt" stroke-linejoin="miter" stroke-dasharray="none"/><path stroke-miterlimit="4" d="M376.1 432.6c-5.5-.7-7.8 22.6-7.8 27.8.3 12.5 6.6 21.8 10 22.1 5.3.3 8.2-16.2 7.8-24.3-1-8.2-3.5-18.4-10-25.6z" id="path10052" fill="none" stroke="#000000" stroke-width="2.6" stroke-linecap="butt" stroke-linejoin="miter" stroke-dasharray="none"/><path stroke-miterlimit="4" d="M334 454c14.2 25.8 18.4 58.3 17 53.1l5.7 38.3c4.1 15.2 12.8 22 19.7 29" id="path10054" fill="none" stroke="#000000" stroke-width="2.6" stroke-linecap="butt" stroke-linejoin="miter" stroke-dasharray="none"/><path stroke-miterlimit="4" d="m333.2 518.7 43.9 113.4" id="path10056" fill="none" stroke="#000000" stroke-width="2.6" stroke-linecap="round" stroke-linejoin="miter" stroke-dasharray="none"/><path stroke-miterlimit="4" d="M332 565.6c25.2 36 25.7 59.7 22.5 80.5" id="path10058" fill="none" stroke="#000000" stroke-width="2.6" stroke-linecap="butt" stroke-linejoin="miter" stroke-dasharray="none"/><path stroke-miterlimit="4" d="M335.2 593.1c4.4-.8 9.5 8.5 11.5 13 1.7 2 1.2 10.6 0 12-.5.7-9.6-2-12-10.7-2.2-7.3-1.4-13 .5-14.3z" id="path10060" fill="none" stroke="#000000" stroke-width="2.6" stroke-linecap="butt" stroke-linejoin="miter" stroke-dasharray="none"/><path stroke-miterlimit="4" d="M418.4 451.6c-10.4 5.7-14.4 42.3-14.8 46-1 43.3-10 56.5-11.6 59.2-22.7 40.3-11.6 52.2-3.5 68.4 5 5.6 10.1 10.4 15.2 12.8" id="path10066" fill="none" stroke="#000000" stroke-width="2.6" stroke-linecap="butt" stroke-linejoin="miter" stroke-dasharray="none"/><path stroke-miterlimit="4" d="M420.6 486.3c-6.9 6.7-9 26.4-11 46.6-1.6 28.7-12.4 42.6-13.4 46.8-3.8 27 5.2 29.6 5.9 29.8 12.3 3.4 12.2 2.5 18 3.7" id="path10068" fill="none" stroke="#000000" stroke-width="2.6" stroke-linecap="butt" stroke-linejoin="miter" stroke-dasharray="none"/><path stroke-miterlimit="4" d="M416.4 561.1c-6.2 8.5-9.5 14.9-13 21.3-2 5.8 4 11.3 5.6 11.2 2-.2 3.6-1.5 4.8-9.3z" id="path10070" fill="none" stroke="#000000" stroke-width="2.6" stroke-linecap="butt" stroke-linejoin="round" stroke-dasharray="none"/><path stroke-miterlimit="4" d="M377 689.3a184 184 0 0 1 16.6 44.3c3 14.9-23 38.2-29.4.6.3-12.8 2.8-20.5 12.8-44.9z" id="path10074" fill="#fceb66" stroke="#000000" stroke-width="2.6" stroke-linecap="butt" stroke-linejoin="miter" stroke-dasharray="none"/><path stroke-miterlimit="4" d="M419.4 678a141 141 0 0 0-25 38.4c-3.2 9.4 3.7 24.5 8.7 24.3 5.1-.2 14-8.4 15.5-17.4a216 216 0 0 0 .8-45.3z" id="path10076" fill="#fceb66" stroke="#000000" stroke-width="2.6" stroke-linecap="butt" stroke-linejoin="miter" stroke-dasharray="none"/><path stroke-miterlimit="4" d="M446.7 646c6.4 26.2 5.4 46.4 2.7 50.7-4.8 9.4-14.9 19.3-21.5 1.4-1.9-7.7 10.5-41.6 18.8-52.1z" id="path10078" fill="#fceb66" stroke="#000000" stroke-width="2.6" stroke-linecap="butt" stroke-linejoin="miter" stroke-dasharray="none"/><path stroke-miterlimit="4" d="M469.6 606.5a116 116 0 0 1 1.7 44.6c-2.5 10.8-9 16.8-12 16.6-9-1.3-14-12.3-12.3-19.5a219 219 0 0 1 22.6-41.7z" id="path10080" fill="#fceb66" stroke="#000000" stroke-width="2.6" stroke-linecap="butt" stroke-linejoin="miter" stroke-dasharray="none"/><path stroke-miterlimit="4" d="M482.5 564.4c5 11.1 9.6 29.7 10.5 35.7.6 11.1-7 21-9.3 21.2-3.5.2-9.8-3.1-11-11-.3-3 5.7-39.7 9.8-46z" id="path10082" fill="#fceb66" stroke="#000000" stroke-width="2.6" stroke-linecap="butt" stroke-linejoin="miter" stroke-dasharray="none"/><path stroke-miterlimit="4" d="M484.3 523.7c10 5.6 15.4 15.2 20.4 26a25 25 0 0 1-4.7 23.5c-3.3 2.3-11.7 5.3-12.8-4.9a147 147 0 0 0-3-44.6z" id="path10084" fill="#fceb66" stroke="#000000" stroke-width="2.6" stroke-linecap="butt" stroke-linejoin="miter" stroke-dasharray="none"/><path stroke-miterlimit="4" d="M482.4 485.5c15.5-.6 24 19 24 19 1.3 5.7 1.1 9.9 1.4 14.5-.8 7.7-12.8 16.7-17.5 2.9-1.4-10.6 2.8-14.7-8-36.4z" id="path10086" fill="#fceb66" stroke="#000000" stroke-width="2.6" stroke-linecap="butt" stroke-linejoin="miter" stroke-dasharray="none"/><path stroke-miterlimit="4" d="M469.3 448.6c18.5-2.5 25.3 7.3 26.6 11.2 7.8 11.5-5.9 39.2-14.6 12.5-.9-2.3-.4-13.7-12-23.7z" id="path10088" fill="#fceb66" stroke="#000000" stroke-width="2.6" stroke-linecap="butt" stroke-linejoin="miter" stroke-dasharray="none"/><path stroke-miterlimit="4" d="M448.2 420.4c11.3-5 18.4-6.3 24-2.9 4.4 3.1 5.7 6.2 6.6 9.3 4.2 14.7-6.6 25.2-13.9 9.3-5.6-8.3-11.2-15.5-16.7-15.7z" id="path10090" fill="#fceb66" stroke="#000000" stroke-width="2.6" stroke-linecap="butt" stroke-linejoin="miter" stroke-dasharray="none"/><path stroke-miterlimit="4" d="m420.4 614.2 37.3 81.5c8.7 3.1 19.2 9 19.4 12.5a24 24 0 0 1-19.1 8.3l-18.3 31.1c-3 5.7-11.5 7.2-12 .8l12.5-31.6c.5-5.2 3.1-6.8 0-20.6l-30.1-66z" id="path10092" fill="#fff0f0" stroke="#000000" stroke-width="2.6" stroke-linecap="butt" stroke-linejoin="miter" stroke-dasharray="none"/><path stroke-miterlimit="4" d="M433 640.9c7 1.4 7.2 5.3 8.1 9L424.6 661l-.5 4-11 .1v-9.9l7.3.4.2-4.6z" id="path10094" fill="#fff0f0" stroke="#000000" stroke-width="2.6" stroke-linecap="butt" stroke-linejoin="miter" stroke-dasharray="none"/><path stroke-miterlimit="4" d="M444.9 661a51 51 0 0 1 5.2 11.7l-15.7 11.5v4.7l-10.6-4.1c0-1.6.4-5 .3-5.4l3.1-5.3 3.6.4z" id="path10096" fill="#fff0f0" stroke="#000000" stroke-width="2.6" stroke-linecap="butt" stroke-linejoin="miter" stroke-dasharray="none"/><path stroke-miterlimit="4" d="M424.7 661c3.6-2 16-11.3 16.2-10.8 2 3.9 3.7 7.2 4.2 11l-14.4 13.2-3.5-.3-3 5.4c-3.4 0-4.2-.2-7.3-.4l.3-13.7 7-.2z" id="path10098" fill="#fff0f0" stroke="#000000" stroke-width="2.6" stroke-linecap="butt" stroke-linejoin="miter" stroke-dasharray="none"/><path stroke-miterlimit="4" d="M450.2 672.5c5.1 6.1 4.5 9.2 5.2 13l-14.2 7.6H438v5.3h-10.5l3.5-10.5 4.3 1.4-.3-5.2z" id="path10100" fill="#fff0f0" stroke="#000000" stroke-width="2.6" stroke-linecap="butt" stroke-linejoin="miter" stroke-dasharray="none"/><path stroke-miterlimit="4" d="m419.6 650.8 20.4 45.4" id="path10102" fill="none" stroke="#000000" stroke-width="2.6" stroke-linecap="butt" stroke-linejoin="miter" stroke-dasharray="none"/><path stroke-miterlimit="4" d="m345.2 437.8-28.6-47.9 2 33.8 15 30.5z" id="path10104" fill="#fff0f0" stroke="#000000" stroke-width="2.6" stroke-linecap="butt" stroke-linejoin="miter" stroke-dasharray="none"/><path stroke-miterlimit="4" d="M416.7 448.7a39 39 0 0 0 10.7-33.4l18-14.3v33c-13.2.2-18 11.4-24.2 20.7z" id="path10106" fill="#fff0f0" stroke="#000000" stroke-width="2.6" stroke-linecap="butt" stroke-linejoin="miter" stroke-dasharray="none"/><path stroke-miterlimit="4" d="M309.1 644c25.7 33.7 23.7 45.4 24 48-2.7 13.7-13.1 22.4-21 9.1-7-8.5-.6-36.7-3-57.2z" id="path10112" fill="#fff0f0" stroke="#000000" stroke-width="2.6" stroke-linecap="butt" stroke-linejoin="miter" stroke-dasharray="none"/><path stroke-miterlimit="4" d="m342.2 629.1-48.4 103.7c-1 2-5 6-7.4-1.7 0-3 8.1-20 6.5-16.1l44.4-93.6z" id="path10108" fill="#fff0f0" stroke="#000000" stroke-width="2.6" stroke-linecap="butt" stroke-linejoin="miter" stroke-dasharray="none"/><path stroke-miterlimit="4" d="M335.7 673.4s25.7 32.4 25.8 40.7c.4 35.3-16.2 27.8-23.4 9.3-5.3-16.7.8-34.3-2.4-50z" id="path10110" fill="#fff0f0" stroke="#000000" stroke-width="2.6" stroke-linecap="butt" stroke-linejoin="miter" stroke-dasharray="none"/><path stroke-miterlimit="4" d="M287 603.2c13.7 25.4 18.5 33.6 19.5 43 1.7 18.4-13.3 26.6-19 12.2-1.5-3.2-.3-39.6-.5-55.2z" id="path10114" fill="#fff0f0" stroke="#000000" stroke-width="2.6" stroke-linecap="butt" stroke-linejoin="miter" stroke-dasharray="none"/><path stroke-miterlimit="4" d="M273 561.8c7.3 16 11.3 36.3 11 38.8 0 5 .5 9.3-.1 11 .9 3.3-11.7 13.2-18.4 1.3-2-11.8 2.3-30.5 7.4-51.1z" id="path10116" fill="#fff0f0" stroke="#000000" stroke-width="2.6" stroke-linecap="butt" stroke-linejoin="miter" stroke-dasharray="none"/><path stroke-miterlimit="4" d="M272.7 522.6a103 103 0 0 0 0 36.7c-.5 22-14.7 20.5-21.2 7.4-.9-13.8-.5-27.8 21.2-44.1z" id="path10118" fill="#fff0f0" stroke="#000000" stroke-width="2.6" stroke-linecap="butt" stroke-linejoin="miter" stroke-dasharray="none"/><path stroke-miterlimit="4" d="M275.5 483.8c-10.6 3.5-24.9 8.2-26.9 30.7.4 21.3 20 10.7 21.3 2.9 0-10.8-2.5-21.8 5.6-33.6z" id="path10120" fill="#fff0f0" stroke="#000000" stroke-width="2.6" stroke-linecap="butt" stroke-linejoin="miter" stroke-dasharray="none"/><path stroke-miterlimit="4" d="M287.4 450c-20.4-7-27.9 4.2-28.8 24.6 5.8 16.5 15 2.7 16.3 1 3.6-6.8 0-17 12.5-25.6z" id="path10122" fill="#fff0f0" stroke="#000000" stroke-width="2.6" stroke-linecap="butt" stroke-linejoin="miter" stroke-dasharray="none"/><path stroke-miterlimit="4" d="M308.3 420.4c-6.2-3.4-9.7-9.8-25.5-3-4.3 3.1-6.2 9.7-7.4 17.4 1.3 9 11.5 11.2 13.2 8.2 6.1-6.8 9.3-19 19.7-22.6z" id="path10124" fill="#fff0f0" stroke="#000000" stroke-width="2.6" stroke-linecap="butt" stroke-linejoin="miter" stroke-dasharray="none"/><path stroke-miterlimit="4" d="m259.3 403.4 11.6 9.5c-52.2 20.7-71.3 48.4-100 74.1 0-14.2 9.8-57.6 17-81.6h-55c24.3-23 38.1-48.1 78.8-64.6 2.4 53.4 26.1 65 47.6 62.6z" id="path10126" fill="#fceb66" stroke="#000000" stroke-width="2.6" stroke-linecap="butt" stroke-linejoin="miter" stroke-dasharray="none"/><path stroke-miterlimit="4" d="M546.4 338.8a327 327 0 0 1 77.1 67.6h-53.3c14.2 53.2 10.8 54.3 14 80.2-23.9-30.6-70.2-61.8-97.7-75.4l9.5-3.7c7.3 3.4 14.5 7.6 21.8 1.8l9.5-18.2 4.8-19 12.2-14.3z" id="path10128" fill="#fceb66" stroke="#000000" stroke-width="2.6" stroke-linecap="butt" stroke-linejoin="miter" stroke-dasharray="none"/><path d="M210.3 309.3c166.2-83.6 254.5-46.4 331.4 11.8l-25.1 75c-93-47-189.2-30.3-282.2-3.8z" id="path10314" fill="#fceb66"/><path d="m240.6 332.9 2.6-.8 2.9 9.4 6.7-12.4 3.4-.8-5.7 10 11.8 8.9-3.4 1-9.6-7.7-2.1 4.2 1.8 6.7-2.5.6z" id="path3357" fill="#000000"/><path d="m264 323.7-2.5 1 .4 21.4 2.6-1-.2-6.5 7.6-3.1 4.6 4.7 2.7-1.3zm-.5 2.5 7 7.5-6.4 2.5c-.2-3.3 0-7.7-.6-10" id="path4139" fill="#000000"/><path d="m278.3 319.5-2.5.6 4.5 19.6 12.2-2.9-.4-2.2-9.8 2.2z" id="path4143" fill="#000000"/><path d="m290 316.4 3.8 19.6 2.6-.5-3.8-19.7z" id="path4145" fill="#000000"/><path d="m295.2 314.9 3.8-.8 8.8 16 2.6-18 3.5-.6 3.6 19.7-2.5.4-3-16.3-2.8 17.4-2.4.5-8.7-15.8 3 16.8-2.4.4z" id="path4147" fill="#000000"/><path d="m326.9 307.9-2.7.4-4.2 21 2.7-.4 1.2-6.4 8.2-1.4 3.4 5.6 3-.7zm-1 2.3 5.1 8.9-6.8 1c.5-3.2 1.8-7.5 1.6-9.9" id="path4152" fill="#000000"/><path d="m340.2 304.8 2.7-.2 11.3 15.2-.8-15.7 2.5-.1 1 20h-2.7l-11.3-15 .8 15.7h-2.6z" id="path4160" fill="#000000"/><path d="m361 303.4 15.8.7-.2 2.3-6.6-.3-.7 17.7-2.8-.1 1-17.7-6.8-.2c0-1.2.1-1.6.3-2.4" id="path4174" fill="#000000"/><path d="m387 304-2.7-.1-8.6 19.6 2.8.2 2.5-6 8.3.4 2.2 6.1h3zm-1.6 2.1 3.3 9.8-7-.4c1.3-3.1 3.4-7 3.7-9.4" id="path4172" fill="#000000"/><path d="M399 304.5h2.6l10 16.1.5-15.7h2.5L414 325l-2.6-.1-10-16-.5 15.7h-2.6z" id="path4162" fill="#000000"/><path d="m423.4 317.5 7.4 1.4-.5 2.4-7.4-1.2z" id="path4164" fill="#000000"/><path d="m437 308 15.4 3.9-.6 2.2-6.4-1.6-4.3 17.2-2.7-.7 4.5-17.1-6.5-1.6z" id="path4166" fill="#000000"/><path d="m456.5 313.3-5 19.4 2.6.6 5.1-19.4z" id="path4168" fill="#000000"/><path d="m464 315 3.6 1.3-1.1 18.2 11.8-13.8 3.3 1.5-7.6 18.5-2.2-1 6.1-15.4-11.7 13.2-2.2-1 1.1-17.9-6.4 15.8-2.3-1z" id="path4170" fill="#000000"/><path d="m485 323.8 2.4 1-5.1 10.6c-2.5 5-.8 6.2 1.7 7.7 4 2.5 6.5.3 8-4l4.9-9.8 2.4 1.2c-2.2 4.3-5.6 11.6-6.6 12.8 0 .4-3.2 5.9-10.3 1.7-.7-.7-6.2-2.6-2.8-10z" id="path4176" fill="#000000"/><path d="m503.5 333.6-11.8 16 2 1.6 5.4-7.2 3.6 2.8c1.9 2.7.4 7.5.5 11.4l2.6 1.8.5-6.7c0-1.4.3-2.4-.9-4.9 1.5.6 4.5 3 8-1.3 1-2 2.1-5-2.5-8.1zm1 3.1 5.5 4.4c2.2 2 1.8 3.8 1 4.6-.9 1-2.2 2-5 .6l-5.6-4.2z" id="path4178" fill="#000000"/><path stroke-miterlimit="4" d="M475 377.2c21.7-2.2 28.4 19.9 41 32.4-7.3 2-16.2.5-28.4-9-6-4.5-8.4-15.6-12.6-23.4z" id="path10258" fill="#fceb66" stroke="#000000" stroke-width="2.6" stroke-linecap="butt" stroke-linejoin="miter" stroke-dasharray="none"/><path stroke-miterlimit="4" d="m515.3 378-1 30-14.1-18.5z" id="path10260" fill="#fceb66" stroke="#000000" stroke-width="2.6" stroke-linecap="butt" stroke-linejoin="miter" stroke-dasharray="none"/><path stroke-miterlimit="4" d="M515.2 377.7a52 52 0 0 1 13.7-24.5l.2 29c.1 10.8-8.2 18-13.4 27.4L514 406z" id="path10262" fill="#fceb66" stroke="#000000" stroke-width="2.6" stroke-linecap="butt" stroke-linejoin="miter" stroke-dasharray="none"/><path stroke-miterlimit="4" d="M528.5 353.9c1.2-10.1 2-20.3 11-28l5.4 11.6-1 19.9-13.5 16.6z" id="path10264" fill="#fceb66" stroke="#000000" stroke-width="2.6" stroke-linecap="butt" stroke-linejoin="round" stroke-dasharray="none"/><path stroke-miterlimit="4" d="M498.3 282.2c31.9 3 34.1 11.4 38.2 18.1 6.7 15.8 10.3 26.7 10.3 38.5-5.4-23.4-35.6-27-48.5-56.6z" id="path10266" fill="#fceb66" stroke="#000000" stroke-width="2.6" stroke-linecap="butt" stroke-linejoin="miter" stroke-dasharray="none"/><path stroke-miterlimit="4" d="M472.8 269.3c5.8 9.9 11 20.5 18.2 28 8.5 8.3 12.9 5.6 20.4 5.1l-13.1-20c-4-6.9-10.2-12.5-25.5-13z" id="path10268" fill="#fceb66" stroke="#000000" stroke-width="2.5" stroke-linecap="butt" stroke-linejoin="miter" stroke-dasharray="none"/><path stroke-miterlimit="4" d="M444.5 260.7c17-2.1 21.7 2.6 24 5.2l17.4 28.9c-7.1-2.1-13.2-1-22.5-9.5-6.9-6.4-11.8-16-18.9-24.6z" id="path10270" fill="#fceb66" stroke="#000000" stroke-width="2.6" stroke-linecap="butt" stroke-linejoin="miter" stroke-dasharray="none"/><path stroke-miterlimit="4" d="M456.8 279c-6.9.8-13.7 1-20.5-1l-16-22.6c14 0 22.6 1.7 24.2 5.5z" id="path10272" fill="#fceb66" stroke="#000000" stroke-width="2.6" stroke-linecap="butt" stroke-linejoin="round" stroke-dasharray="none"/><path stroke-miterlimit="4" d="M415.8 251.4c-12.3-1.5-22 .4-22 .4 7 8.2 9 19.3 10.8 18.5 7.1 6 22.2 3.6 27.2 4.4z" id="path10274" fill="#fceb66" stroke="#000000" stroke-width="2.6" stroke-linecap="butt" stroke-linejoin="round" stroke-dasharray="none"/><path stroke-miterlimit="4" d="M402.7 269.4c-13.5 1.5-22.6 1.5-22.7 1.5-1-9.3-9.3-13.5-14.2-20 11-5.3 20.3-4 28.7.5z" id="path10276" fill="#fceb66" stroke="#000000" stroke-width="2.6" stroke-linecap="butt" stroke-linejoin="round" stroke-dasharray="none"/><path stroke-miterlimit="4" d="M365.8 250.9c-7.2-6.5-17.3-5.9-26 1.4l14 17.5 25.2.2c1.6-2.1-8.4-12-13.2-19.2z" id="path10278" fill="#fceb66" stroke="#000000" stroke-width="2.6" stroke-linecap="butt" stroke-linejoin="miter" stroke-dasharray="none"/><path stroke-miterlimit="4" d="M340 251.3c-9.4-3.4-18-.3-26.2 5.7 1 4.2 6.3 10 14.4 17q9.5 1.5 23.1-5.2z" id="path10280" fill="#fceb66" stroke="#000000" stroke-width="2.6" stroke-linecap="butt" stroke-linejoin="miter" stroke-dasharray="none"/><path stroke-miterlimit="4" d="M314.3 257.3c-10.8-4-19 1-26.4 8.2l11.6 13.6c12.5 1.7 19.7-1.8 23-9.2z" id="path10282" fill="#fceb66" stroke="#000000" stroke-width="2.6" stroke-linecap="butt" stroke-linejoin="miter" stroke-dasharray="none"/><path stroke-miterlimit="4" d="M288.7 265.5c-10.2-3.4-18.7 2.4-28 11.7 3.9 2.8 7.5 6 10.5 11 13.8 2 20.7-3.6 25.3-11.8z" id="path10284" fill="#fceb66" stroke="#000000" stroke-width="2.6" stroke-linecap="butt" stroke-linejoin="miter" stroke-dasharray="none"/><path stroke-miterlimit="4" d="M260.3 278.7c-11.4-1.8-20.4 3.7-24 13.6 6 2.5 5.8 6.5 7.3 10.1 6 .8 19.8-4.6 26.9-15z" id="path10286" fill="#fceb66" stroke="#000000" stroke-width="2.6" stroke-linecap="butt" stroke-linejoin="miter" stroke-dasharray="none"/><path stroke-miterlimit="4" d="M237.2 293.2c-14.9-4.2-29.1 9.3-31.2 18 3.9 2.1 16.6.2 25 1l12.3-11z" id="path10288" fill="#fceb66" stroke="#000000" stroke-width="2.6" stroke-linecap="butt" stroke-linejoin="miter" stroke-dasharray="none"/><path stroke-miterlimit="4" d="M223.7 312.3c1 3.7-1.2 7.5-4 11.2-1.8-2.1-5.3-7.4-10.7-12.2z" id="path10290" fill="#fceb66" stroke="#000000" stroke-width="2.6" stroke-linecap="butt" stroke-linejoin="miter" stroke-dasharray="none"/><path stroke-miterlimit="4" d="M206.3 310.3c-2.5 5.7 4 22.2 3.7 31.7l18.2 18.5c-2.7-12.5 2-21-8.3-37.7z" id="path10292" fill="#fceb66" stroke="#000000" stroke-width="2.6" stroke-linecap="butt" stroke-linejoin="miter" stroke-dasharray="none"/><path stroke-miterlimit="4" d="M228.9 361.4c4.7 10.5 4.1 14.7 5.5 21.2l-12 .7c-11.8-22.9-8.7-27.5-10.8-38.5z" id="path10294" fill="#fceb66" stroke="#000000" stroke-width="2.6" stroke-linecap="butt" stroke-linejoin="miter" stroke-dasharray="none"/><path stroke-miterlimit="4" d="m234.4 382.4 27.8.2 8.8 10.5c.6 11.6-26 8.8-31.7 7.5-5.5-1.4-18-18-18-18z" id="path10296" fill="#fceb66" stroke="#000000" stroke-width="2.6" stroke-linecap="butt" stroke-linejoin="miter" stroke-dasharray="none"/><path stroke-miterlimit="4" d="M262 382.6c5.8-7 10.2-15.4 24.4-14l11.2 13.8c-4.4 7-11.2 12.2-26 10.7z" id="path10298" fill="#fceb66" stroke="#000000" stroke-width="2.6" stroke-linecap="butt" stroke-linejoin="miter" stroke-dasharray="none"/><path stroke-miterlimit="4" d="M287.8 369.3c10.3-7 19.3-8 27.8-6.3l8.1 15.4c-9.6 2.6-20.3 6.3-25.9 4.2z" id="path10300" fill="#fceb66" stroke="#000000" stroke-width="2.6" stroke-linecap="butt" stroke-linejoin="miter" stroke-dasharray="none"/><path stroke-miterlimit="4" d="M315.6 362.8q9.7-10.3 26-4l8.2 13c.5 8.4-13.8 6.5-25.1 6.6z" id="path10302" fill="#fceb66" stroke="#000000" stroke-width="2.6" stroke-linecap="butt" stroke-linejoin="miter" stroke-dasharray="none"/><path stroke-miterlimit="4" d="M341.7 358.8c8.4-7.8 17-2.5 25.4-2.5l10.5 15.6c-8.3 6.3-16.7 11.4-26.8.7z" id="path10304" fill="#fceb66" stroke="#000000" stroke-width="2.6" stroke-linecap="butt" stroke-linejoin="miter" stroke-dasharray="none"/><path stroke-miterlimit="4" d="M367.8 356.3c10-4.5 17.8-1.1 26 .9l10.8 14.7c-7.2 6.7-15.2 9.7-26.1 1-.3-3.3-4.2-9-10.7-16.6z" id="path10306" fill="#fceb66" stroke="#000000" stroke-width="2.6" stroke-linecap="butt" stroke-linejoin="miter" stroke-dasharray="none"/><path stroke-miterlimit="4" d="M393.9 356.3c8.1-2.3 16.3-3.8 24.5 2.5l12.3 18c-4.5 13.2-15.5 3.9-26.1-4z" id="path10308" fill="#fceb66" stroke="#000000" stroke-width="2.6" stroke-linecap="butt" stroke-linejoin="miter" stroke-dasharray="none"/><path stroke-miterlimit="4" d="M419.5 359.5c10.9-1.1 21.2-.8 27.8 9.1l13 17.3c-9.8 3.7-19.6 1.8-29.4-8.2z" id="path10310" fill="#fceb66" stroke="#000000" stroke-width="2.6" stroke-linecap="butt" stroke-linejoin="miter" stroke-dasharray="none"/><path stroke-miterlimit="4" d="M447.7 368.6c19.1-1 23.1 4.2 27.8 9.1l8.1 19.4c-8-1.7-16.3 2.5-23.7-10.5z" id="path10312" fill="#fceb66" stroke="#000000" stroke-width="2.5" stroke-linecap="butt" stroke-linejoin="miter" stroke-dasharray="none"/></g><!-- app4joy --></svg>