<svg viewBox="0 0 2286 1600" id="svg280" width="2286" height="1600" xmlns="http://www.w3.org/2000/svg"><g id="g281"><path id="rect1" d="M0 0h2286v1600H0z" fill="#fff"/></g><g id="g280"><path d="M885 311.2c-.7 68-91 95-120 95.9 143.5 361.6-25.7 554.1 21.2 635 80.7 139.5 301.4 152.2 413.8 246.7 112.4-94.5 333.1-107.2 413.8-246.7 46.9-80.9-122.3-273.4 21.2-635-29-.8-119.3-28-120-95.9z" transform="translate(-57)" id="path1" fill="#725487" stroke="#41304f" stroke-miterlimit="15.118119239807129" stroke-width="4.781105155522397px"/><path d="M1073.7 402.6c12.2-16.7 18-14 21.5-4.8 17.1-3 14.2 11 6 15.5 11.5 14.4-12.4 15.2-17 11.2Z" transform="translate(-57)" id="path2" fill="#c5c5c4" stroke="#a9a9aa" stroke-miterlimit="15.118119239807129" stroke-width="1.9993712099912244px"/><path d="M1080.6 393.6c-9.1 8.8-18.1 3-18.1 27 2.2 13.2 18.8 7.8 37.8 7.7a30 30 0 0 0-15.2-9.9c3.6-1.6 5.6-5.3 6.7-10.1-3.6-1.8-7.3-3.5-11.3-1.5.8-4 1.5-8 .1-13.1Z" transform="translate(-57)" id="path3" fill="#03933f" stroke="#066830" stroke-miterlimit="15.118119239807129" stroke-width="1.9993712099912244px"/><path d="m1083.6 399.1-.4 4.5c2.8-.4 5.6.4 10.6 3.9.9 4.9-1.5 7-4 10 6 2.4 5.6 3.3 8 4.9 3.7-.8 4.4-4-.3-9.8 9.1-5.1 5.5-13.7-5-11.5-1-6.2-9-8.7-8.9-2" transform="translate(-57)" id="path4" fill="#fcfcfc"/><path d="M1051.2 414c10.4-17.8 16.4-15.7 21-7 16.6-4.6 15.2 9.5 7.5 14.9 12.9 13-10.8 16.4-15.9 12.9Z" transform="translate(-57)" id="path5" fill="#c5c5c4" stroke="#a9a9aa" stroke-miterlimit="15.118111666698772" stroke-width="1.9993702084476739px"/><path d="M1057.2 404.4c-8.2 9.7-17.8 4.8-15.3 28.7 3.5 13 19.5 5.8 38.4 3.7q-7.2-6.7-16.1-8.2c3.3-2 5-5.9 5.6-10.8-3.8-1.3-7.6-2.7-11.4-.2.4-4.1.7-8.2-1.2-13.2Z" transform="translate(-57)" id="path6" fill="#03933f" stroke="#066830" stroke-miterlimit="15.118111666698772" stroke-width="1.9993702084476739px"/><path d="M1060.7 409.5v4.6c2.8-.7 5.7-.2 11 2.7 1.4 4.8-.8 7.2-2.9 10.4 6.1 1.7 5.8 2.7 8.5 4 3.5-1 3.8-4.4-1.4-9.6 8.5-6.1 4-14.3-6-11-1.7-6.1-10-7.7-9.2-1" transform="translate(-57)" id="path7" fill="#fcfcfc"/><path d="M1027.7 432c6.4-19.4 12.8-18.7 19.3-11.3 15.6-8 17.4 5.8 11 12.6 15.8 9.8-7.1 18-13 15.8Z" transform="translate(-57)" id="path8" fill="#c5c5c4" stroke="#a9a9aa" stroke-width="0.5270000100135803px"/><path d="M1031.5 421.4c-6 11-16.6 8.5-8.8 30.9 6.5 11.6 20.8 1.3 39.2-4.8a32 32 0 0 0-18-4.4c3-2.6 3.8-6.7 3.3-11.6-4.1-.4-8.2-.9-11.5 2.3-.5-4-1.1-8-4.2-12.4Z" transform="translate(-57)" id="path9" fill="#03933f" stroke="#066830" stroke-width="0.5270000100135803px"/><path d="m1036.2 425.6 1.1 4.3c2.5-1.2 5.6-1.3 11.5.3 2.5 4.3.9 7-.5 10.6 6.5.3 6.4 1.3 9.4 2 3.3-1.9 2.8-5.1-3.6-9 7.2-7.7.9-14.5-8.6-9.2-3-5.5-11.5-5.2-9.3 1" transform="translate(-57)" id="path10" fill="#fcfcfc"/><path d="M1005 450.5c7-21 14-20.2 21-12.2 16.9-8.8 18.8 6.3 11.8 13.6 17.1 10.6-7.7 19.6-14 17.2Z" transform="translate(-57)" id="path11" fill="#c5c5c4" stroke="#a9a9aa" stroke-width="0.4869999885559082px"/><path d="M1009.2 439c-6.6 12-18 9.2-9.6 33.5 7 12.6 22.5 1.4 42.5-5.2a35 35 0 0 0-19.5-4.7c3.2-2.9 4-7.3 3.5-12.6-4.4-.5-9-1-12.4 2.5-.6-4.4-1.2-8.7-4.5-13.4Z" transform="translate(-57)" id="path12" fill="#03933f" stroke="#066830" stroke-width="0.4869999885559082px"/><path d="m1014.2 443.6 1.2 4.7c2.7-1.4 6-1.5 12.5.2 2.6 4.7 1 7.7-.6 11.5 7 .4 7 1.5 10.2 2.2 3.6-2 3-5.5-3.9-9.7 7.8-8.3 1-15.7-9.3-10-3.2-6-12.5-5.7-10 1" transform="translate(-57)" id="path13" fill="#fcfcfc"/><path d="M987 468c5-21.6 12.1-21.4 19.8-14 16.1-10.1 19.3 4.7 13 12.6 18 9.2-6.1 20.2-12.6 18.3Z" transform="translate(-57)" id="path14" fill="#c5c5c4" stroke="#a9a9aa" stroke-width="0.4869999885559082px"/><path d="M990.1 456.2c-5.5 12.5-17.2 10.6-6.7 34 8 12 22.6-.3 42-8.6q-9.9-4.6-19.9-3.1c3-3.1 3.4-7.6 2.5-12.8-4.5-.1-9-.3-12.2 3.4-1-4.2-2-8.5-5.7-12.9Z" transform="translate(-57)" id="path15" fill="#03933f" stroke="#066830" stroke-width="0.4869999885559082px"/><path d="m995.6 460.2 1.5 4.6c2.6-1.5 5.9-2 12.5-.7 3 4.4 1.6 7.5.4 11.5 7-.3 7 .8 10.3 1.3 3.4-2.3 2.6-5.8-4.6-9.4 7-9-.5-15.7-10.2-9.2-3.7-5.6-13-4.6-10 2" transform="translate(-57)" id="path16" fill="#fcfcfc"/><path d="M970.5 485.7c5.2-21.6 12.2-21.4 19.9-14 16.1-10.1 19.3 4.7 13 12.6 17.9 9.2-6.1 20.2-12.6 18.3Z" transform="translate(-57)" id="path17" fill="#c5c5c4" stroke="#a9a9aa" stroke-width="0.4869999885559082px"/><path d="M973.7 474c-5.5 12.4-17.2 10.5-6.7 34 8 12 22.6-.4 42-8.7a35 35 0 0 0-19.9-3.1c3-3.1 3.4-7.6 2.5-12.8-4.5-.1-9-.2-12.2 3.5-1-4.3-2-8.6-5.7-13Z" transform="translate(-57)" id="path18" fill="#03933f" stroke="#066830" stroke-width="0.4869999885559082px"/><path d="m979.2 478 1.5 4.5c2.6-1.5 5.9-2 12.5-.7 3 4.4 1.5 7.5.4 11.5 7-.2 7 .8 10.2 1.3 3.5-2.3 2.7-5.8-4.6-9.3 7-9-.4-15.8-10-9.3-3.8-5.6-13-4.6-10 2" transform="translate(-57)" id="path19" fill="#fcfcfc"/><path d="M950.2 505c5-23.6 12.6-23.6 21.2-15.8 17.2-11.6 21.2 4.5 14.5 13.4 19.8 9.4-6 22.2-13 20.3Z" transform="translate(-57)" id="path20" fill="#c5c5c4" stroke="#a9a9aa" stroke-width="0.44600000977516174px"/><path d="M953.3 492.1c-5.6 13.8-18.3 12.2-6.2 37.5 9.1 12.9 24.5-1.2 45.3-10.8a37 37 0 0 0-21.6-2.8c3-3.5 3.4-8.4 2.2-14-4.9 0-9.8 0-13.1 4a30 30 0 0 0-6.6-13.9Z" transform="translate(-57)" id="path21" fill="#03933f" stroke="#066830" stroke-width="0.44600000977516174px"/><path d="m959.4 496.4 1.8 5c2.8-1.8 6.3-2.4 13.5-1.3 3.5 4.8 2 8.2.8 12.5 7.7-.4 7.7.7 11.2 1.1 3.7-2.5 2.8-6.3-5.2-10 7.3-10-1-17.2-11.3-9.7-4.3-6-14.3-4.6-10.8 2.4" transform="translate(-57)" id="path22" fill="#fcfcfc"/><path d="M931.3 528.1c3.4-24 11-24.4 20.1-17.1 16.5-12.7 21.4 3.1 15.3 12.4 20.4 8.2-4.6 22.6-11.8 21.2Z" transform="translate(-57)" id="path23" fill="#c5c5c4" stroke="#a9a9aa" stroke-width="0.44600000977516174px"/><path d="M933.6 515c-4.7 14.1-17.6 13.3-4 37.8 10 12.3 24.5-2.7 44.6-13.6a37 37 0 0 0-21.7-1.5c2.8-3.6 2.9-8.5 1.3-14.1-4.8.3-9.7.6-12.8 5-1.4-4.6-3-9.1-7.4-13.6Z" transform="translate(-57)" id="path24" fill="#03933f" stroke="#066830" stroke-width="0.44600000977516174px"/><path d="m939.9 518.9 2.1 4.8c2.7-2 6.2-2.7 13.4-2 3.8 4.5 2.5 8 1.6 12.4 7.6-.9 7.7.2 11.3.4 3.5-2.8 2.3-6.5-6-9.7 6.8-10.4-2-17-11.8-9-4.6-5.7-14.5-3.7-10.6 3" transform="translate(-57)" id="path25" fill="#fcfcfc"/><path d="M914.7 556.5c1.3-24.2 8.9-25.3 18.5-18.8 15.3-14 21.6 1.2 16.3 11 21 6.3-2.5 22.9-9.8 22Z" transform="translate(-57)" id="path26" fill="#c5c5c4" stroke="#a9a9aa" stroke-width="0.44600000977516174px"/><path d="M915.8 543.3c-3.5 14.4-16.4 14.7-.6 38 11 11.3 24-5 43.2-17.5q-11.4-3.1-21.8.4c2.5-3.9 2.1-8.8.1-14.2-4.8.7-9.7 1.5-12.3 6a30 30 0 0 0-8.6-12.7Z" transform="translate(-57)" id="path27" fill="#03933f" stroke="#066830" stroke-width="0.44600000977516174px"/><path d="m922.4 546.5 2.6 4.7c2.5-2.2 5.9-3.3 13.1-3.3 4.2 4.2 3.2 7.9 2.7 12.3 7.5-1.6 7.7-.5 11.3-.6 3.2-3 1.7-6.7-6.8-9.1 5.8-11-3.5-16.9-12.6-8-5-5.3-14.8-2.4-10.3 4" transform="translate(-57)" id="path28" fill="#fcfcfc"/><path d="M898 589.5c-3.1-26 5-28.7 17-23.6 14.1-17.8 24-2.6 20 8.8 24.4 2.9 1.5 24.9-6.7 25.4Z" transform="translate(-57)" id="path29" fill="#c5c5c4" stroke="#a9a9aa" stroke-width="0.4050000011920929px"/><path d="M896.8 575.1c-1.1 16.1-15.2 18.8 6.5 40.6 14.3 10.1 25.7-9.6 44.3-26.6a43 43 0 0 0-24 4.6c2.1-4.7.8-9.8-2.5-15.2-5.2 1.6-10.4 3.3-12.4 8.7a33 33 0 0 0-12-12Z" transform="translate(-57)" id="path30" fill="#03933f" stroke="#066830" stroke-width="0.4050000011920929px"/><path d="m904.7 577.4 3.7 4.5c2.3-2.8 5.9-4.6 13.9-6 5.4 3.8 5 7.9 5.3 12.7 8-3 8.4-2 12.3-2.7 3-3.9.6-7.4-9.2-8.5 4.3-12.8-7-17.4-15.4-6.2-6.6-4.7-16.8.2-10.6 6.2" transform="translate(-57)" id="path31" fill="#fcfcfc"/><path d="M886.5 619.7c-4.8-28 4.2-31.2 17.7-26.2 15-19.8 26.7-3.8 22.8 8.7 27.3 2 2.9 26.8-6.2 27.7Z" transform="translate(-57)" id="path32" fill="#c5c5c4" stroke="#a9a9aa" stroke-width="0.36899998784065247px"/><path d="M884.4 604.2c-.4 17.4-16 21 9.3 43.7 16.4 10.3 28.1-11.5 48.1-30.6a49 49 0 0 0-26.5 5.8c2-5 .3-10.6-3.6-16.3-5.7 2-11.4 4-13.5 10a37 37 0 0 0-13.8-12.6Z" transform="translate(-57)" id="path33" fill="#03933f" stroke="#066830" stroke-width="0.36899998784065247px"/><path d="m893.3 606.4 4.3 4.6c2.5-3 6.4-5.1 15.3-7 6.1 3.9 5.9 8.3 6.5 13.5 8.7-3.7 9.3-2.4 13.6-3.4 3.1-4.4.3-8.1-10.7-8.9 4.2-14-8.7-18.4-17.5-6-7.6-4.8-18.7.9-11.5 7.2" transform="translate(-57)" id="path34" fill="#fcfcfc"/><path d="M872.3 651c-12.4-26.3-2.5-30.8 14.7-28.1 12.9-21.7 30.6-8 29 4.7 32.9-2.3 10 25.6-.6 27.9Z" transform="translate(-57)" id="path35" fill="#c5c5c4" stroke="#a9a9aa" stroke-width="0.33899998664855957px"/><path d="M866.1 636.4c3.7 17-14 22.9 21.5 40.8 21.9 7.4 28.5-16.6 47.6-38.4a58 58 0 0 0-28 11c1.3-5.3-2.1-10.3-8.1-15.2-6.3 2.8-12.6 5.7-13.6 11.8-5.1-4-10.4-7.8-19.4-10Z" transform="translate(-57)" id="path36" fill="#03933f" stroke="#066830" stroke-width="0.33899998664855957px"/><path d="m877.2 637 6.3 4c2.1-3.5 6.2-6.1 16.3-9.3 8.2 2.7 9 7 11 12 9.4-5 10.4-3.9 15.2-5.5 2.7-4.7-1.6-8-14.7-6.9 1.5-14.2-14.8-16.5-22.2-3-10.1-3.5-21.9 3.8-11.9 8.8" transform="translate(-57)" id="path37" fill="#fcfcfc"/><path d="M869.9 688.8c-18.7-24.4-10.3-30.3 7-30.3 7.1-23.5 27.7-12.6 29.4.2 31.2-7.3 16 24 6.3 27.8Z" transform="translate(-57)" id="path38" fill="#c5c5c4" stroke="#a9a9aa" stroke-width="0.33899998664855957px"/><path d="M860.1 675.1c7.9 16.3-7.7 25 31.1 37.3 23 4 25.7-20.2 38.6-44.7q-16.5 4.4-26.5 14.4c-.1-5.4-4.7-9.9-11.7-13.9-5.4 3.9-10.7 7.7-10.2 13.9a54 54 0 0 0-21.3-7Z" transform="translate(-57)" id="path39" fill="#03933f" stroke="#066830" stroke-width="0.33899998664855957px"/><path d="m871 674.1 7 2.9c1.3-3.8 4.6-7 13.6-11.7 8.6 1.4 10.4 5.6 13.6 10.2 8-6.3 9-5.4 13.4-7.8 1.3-5-3.5-7.6-16-4.5-2.1-14.4-18.5-14.1-22.2.4-10.7-2-20.3 7.1-9.4 10.5" transform="translate(-57)" id="path40" fill="#fcfcfc"/><path d="M867 720c-18.7-24.2-10.3-30.2 7-30.2 7.1-23.4 27.7-12.6 29.4.3 31.2-7.4 16 23.8 6.3 27.7Z" transform="translate(-57)" id="path41" fill="#c5c5c4" stroke="#a9a9aa" stroke-width="0.33899998664855957px"/><path d="M857.2 706.5c7.9 16.3-7.7 24.8 31.1 37.2 23 4 25.7-20.2 38.6-44.7-10.9 3-20 7.6-26.4 14.4-.2-5.4-4.8-9.9-11.8-13.8-5.3 3.8-10.7 7.6-10.1 13.8-6-3-12-6.1-21.3-7Z" transform="translate(-57)" id="path42" fill="#03933f" stroke="#066830" stroke-width="0.33899998664855957px"/><path d="m868.2 705.4 7 2.9c1.2-3.8 4.5-7 13.5-11.6 8.6 1.4 10.5 5.5 13.6 10.2 8-6.4 9.1-5.5 13.4-7.9 1.4-5-3.5-7.6-16-4.5-2.1-14.4-18.5-14.1-22.2.4-10.7-1.9-20.2 7.1-9.3 10.5" transform="translate(-57)" id="path43" fill="#fcfcfc"/><path d="M865.5 756.7c-18.6-24.3-10.2-30.3 7.1-30.2 7-23.5 27.7-12.7 29.3.2 31.2-7.4 16 23.8 6.4 27.8Z" transform="translate(-57)" id="path44" fill="#c5c5c4" stroke="#a9a9aa" stroke-width="0.33899998664855957px"/><path d="M855.8 743c7.9 16.4-7.8 25 31 37.3 23.1 4 25.7-20.2 38.7-44.7-10.9 3-20 7.6-26.5 14.5-.2-5.4-4.7-10-11.7-14-5.4 4-10.7 7.7-10.2 14a51 51 0 0 0-21.3-7Z" transform="translate(-57)" id="path45" fill="#03933f" stroke="#066830" stroke-width="0.33899998664855957px"/><path d="m866.7 742 7 2.9c1.3-3.7 4.6-7 13.5-11.6 8.7 1.4 10.5 5.5 13.6 10.2 8-6.4 9.2-5.4 13.4-7.8 1.4-5.1-3.5-7.6-16-4.6-2-14.3-18.4-14.1-22.1.4-10.8-1.9-20.3 7.2-9.4 10.5" transform="translate(-57)" id="path46" fill="#fcfcfc"/><path d="M867.1 796.8c-23-20.2-16-27.7 1-31 2.2-24.5 24.6-18 28.8-5.7 29-13.3 20.4 20.3 11.7 26Z" transform="translate(-57)" id="path47" fill="#c5c5c4" stroke="#a9a9aa" stroke-width="0.33899998664855957px"/><path d="M854.9 785.4c11 14.4-2.7 25.9 37.8 30.3 23.4-.6 21.2-24.9 29-51.5-10 5.1-18 11.5-23 19.4-1.3-5.2-6.7-8.7-14.3-11.2-4.5 4.8-9 9.6-7.3 15.5-6.4-1.8-13-3.6-22.2-2.5Z" transform="translate(-57)" id="path48" fill="#03933f" stroke="#066830" stroke-width="0.33899998664855957px"/><path d="m865.4 782.2 7.4 1.4c.5-4 3-7.7 11-14 8.7-.4 11.3 3.3 15.3 7.2 6.5-7.8 7.9-7 11.6-10.3.3-5.2-5-6.7-16.6-1.3-4.9-13.6-20.9-10.2-21.6 4.8-11 .3-18.5 11-7.1 12.2" transform="translate(-57)" id="path49" fill="#fcfcfc"/><path d="M868.5 836.4c-23.2-20-16.2-27.6.7-31 2.1-24.5 24.5-18.1 28.8-5.9 29-13.6 20.6 20.1 12 26Z" transform="translate(-57)" id="path50" fill="#c5c5c4" stroke="#a9a9aa" stroke-width="0.33899998664855957px"/><path d="M856.2 825c11 14.4-2.5 26 38.1 30.1 23.3-.8 21-25 28.6-51.7-10 5.2-18 11.6-23 19.6-1.2-5.2-6.6-8.7-14.3-11.1-4.5 4.8-8.9 9.7-7.1 15.6a53 53 0 0 0-22.3-2.4Z" transform="translate(-57)" id="path51" fill="#03933f" stroke="#066830" stroke-width="0.33899998664855957px"/><path d="m866.7 821.8 7.4 1.4c.5-4 3-7.8 10.9-14.2 8.7-.4 11.4 3.3 15.4 7.2 6.4-7.9 7.8-7.2 11.5-10.4.3-5.3-5-6.7-16.6-1.2-5-13.6-21-10-21.6 5-11 .3-18.4 11.1-7 12.2" transform="translate(-57)" id="path52" fill="#fcfcfc"/><path d="M873.5 870.2c-24.2-20.8-16.9-28.7.8-32.3 2.1-25.5 25.4-18.9 29.9-6 30.1-14.2 21.3 20.9 12.4 27Z" transform="translate(-57)" id="path53" fill="#c5c5c4" stroke="#a9a9aa" stroke-width="0.32499998807907104px"/><path d="M860.7 858.5c11.5 14.9-2.6 27 39.6 31.3 24.3-.9 21.8-26.1 29.8-54a59 59 0 0 0-24 20.5c-1.3-5.5-6.8-9-14.8-11.6-4.7 5-9.3 10-7.4 16.3a55 55 0 0 0-23.2-2.5Z" transform="translate(-57)" id="path54" fill="#03933f" stroke="#066830" stroke-width="0.32499998807907104px"/><path d="m871.6 855 7.7 1.5c.5-4.1 3.2-8.1 11.3-14.8 9.1-.4 11.9 3.4 16 7.5 6.7-8.2 8.2-7.5 12-10.8.3-5.5-5.2-7-17.2-1.2-5.3-14.3-21.9-10.5-22.5 5.1-11.4.4-19.1 11.6-7.3 12.7" transform="translate(-57)" id="path55" fill="#fcfcfc"/><path d="M877.9 901.5c-26.4-20.7-18.5-28.6.8-32.3 2.4-25.4 27.8-18.8 32.6-6 33-14.2 23.4 20.9 13.6 27Z" transform="translate(-57)" id="path56" fill="#c5c5c4" stroke="#a9a9aa" stroke-width="0.31200000643730164px"/><path d="M910.7 920.8c22.7-3 20.6-27.1 28.9-53.6a63 63 0 0 0-26 20.4c-1.5-5.4-7.6-9-16.4-11.6-5 5-10 10.1-8 16.3a65 65 0 0 0-25.3-2.5c11.6 13.8-.8 25.3 34.4 30.2l18.8 43.8 11.8-5.3Z" transform="translate(-57)" id="path57" fill="#03933f" stroke="#066830" stroke-width="0.31200000643730164px"/><path d="m875.8 886.4 8.4 1.4c.6-4.1 3.5-8 12.3-14.8 10-.4 13 3.5 17.5 7.5 7.3-8.2 8.9-7.4 13-10.8.4-5.5-5.6-7-18.7-1.2-5.7-14.2-23.9-10.4-24.6 5.2-12.4.3-20.8 11.6-8 12.7" transform="translate(-57)" id="path58" fill="#fcfcfc"/><path d="M1474 871.8c3.2 14.7-8.9 43 22 42.3-1.1-14.7-3.8-29.2-22-42.3Z" transform="translate(-57)" id="path59" fill="#fbdb05" stroke="#b9a10b" stroke-miterlimit="15.118119239807129" stroke-width="1.0015753455706147px"/><path d="M1478.3 880.1c10 7.5 10.1 16 10.4 24.5-6.5-7.2-11-15-10.4-24.5" transform="translate(-57)" id="path60" fill="#ffed71"/><path d="M1499.3 914.3c12.5-23.5 28.4-29.7 43-36-9.6 15.7-6.5 44-43 36Z" transform="translate(-57)" id="path61" fill="#fbdb05" stroke="#b9a10b" stroke-miterlimit="15.118119239807129" stroke-width="1.0015753455706147px"/><path d="M1513.6 904.3c14.6 1 15.9-11.6 21.8-19.4-8 4.8-16.9 8-21.8 19.4" transform="translate(-57)" id="path62" fill="#ffed71"/><path d="M1480.7 842.7c4 14.5-6.8 43.4 24 41.2-1.8-14.6-5.1-29-24-41.2Z" transform="translate(-57)" id="path63" fill="#fbdb05" stroke="#b9a10b" stroke-miterlimit="15.118120991617358" stroke-width="1.0015754616280361px"/><path d="M1485.4 850.8c10.4 7 11 15.5 11.6 24-6.9-7-11.6-14.6-11.6-24" transform="translate(-57)" id="path64" fill="#ffed71"/><path d="M1483.2 810c4.3 15.8-5.8 41 26.3 44.7-2-15.8-5.6-31.4-26.3-44.6Z" transform="translate(-57)" id="path65" fill="#fbdb05" stroke="#b9a10b" stroke-width="0.26499998569488525px"/><path d="M1488.4 818.8c11.3 7.7 11.9 16.8 12.6 26-7.5-7.5-12.7-15.8-12.6-26" transform="translate(-57)" id="path66" fill="#ffed71"/><path d="M1486.1 778.3c4.3 15.7-6.3 46.4 26.3 44.6-2-15.8-5.7-31.4-26.3-44.6Z" transform="translate(-57)" id="path67" fill="#fbdb05" stroke="#b9a10b" stroke-width="0.26499998569488525px"/><path d="M1491.3 787c11.3 7.7 11.9 16.8 12.6 26-7.5-7.5-12.7-15.8-12.6-26" transform="translate(-57)" id="path68" fill="#ffed71"/><path d="M1489.6 751c4.9 15.3-5.2 33.7 29 43-2.5-15.4-6.7-30.5-29-43Z" transform="translate(-57)" id="path69" fill="#fbdb05" stroke="#b9a10b" stroke-width="0.26499998569488525px"/><path d="M1495.3 759.5c12.2 7.2 13 16 14 25-8.2-7.1-13.9-15.1-14-25" transform="translate(-57)" id="path70" fill="#ffed71"/><path d="M1486.6 716.2c6.4 16.1-2.5 45.7 33.1 47a70 70 0 0 0-33-47Z" transform="translate(-57)" id="path71" fill="#fbdb05" stroke="#b9a10b" stroke-width="0.26499998569488525px"/><path d="M1493.1 725.5c13 8.8 14.6 17.9 16.5 27-8.9-8.1-15.4-17-16.5-27" transform="translate(-57)" id="path72" fill="#ffed71"/><path d="M1484.3 685.7c3.2 14.6-.8 35 33.2 42a66 66 0 0 0-33.2-42Z" transform="translate(-57)" id="path73" fill="#fbdb05" stroke="#b9a10b" stroke-width="0.26499998569488525px"/><path d="M1490.8 694c12.4 7.4 14.5 15.8 16.7 24.3-8.6-7.1-15-15-16.7-24.4" transform="translate(-57)" id="path74" fill="#ffed71"/><path d="M1479.6 661.7c2.8 12.6 5.2 32.4 36 32.6-6.5-12.4-14.9-22.3-36-32.6Z" transform="translate(-57)" id="path75" fill="#fbdb05" stroke="#b9a10b" stroke-width="0.26499998569488525px"/><path d="M1486.7 668.1c12 4.8 15.2 12 18.5 19.3-8.7-5-15.6-11-18.5-19.3" transform="translate(-57)" id="path76" fill="#ffed71"/><path d="M1473.4 634c2.7 12.6 5.1 32.3 35.8 32.6-6.3-12.5-14.7-22.3-35.8-32.6Z" transform="translate(-57)" id="path77" fill="#fbdb05" stroke="#b9a10b" stroke-width="0.26499998569488525px"/><path d="M1480.4 640.4c12 4.8 15.2 12 18.6 19.3-8.8-5-15.7-11-18.6-19.3" transform="translate(-57)" id="path78" fill="#ffed71"/><path d="M1462.7 606.5c3.6 12.4 7.2 32 38 30.2-7.2-12-16.2-21.3-38-30.2Z" transform="translate(-57)" id="path79" fill="#fbdb05" stroke="#b9a10b" stroke-width="0.26499998569488525px"/><path d="M1470.2 612.5c12.3 4 16 11 19.7 18-9-4.5-16.3-10-19.7-18" transform="translate(-57)" id="path80" fill="#ffed71"/><path d="M1452.4 575.7c3.5 12.4 7.2 32 37.9 30.2-7.2-12-16.2-21.3-38-30.2Z" transform="translate(-57)" id="path81" fill="#fbdb05" stroke="#b9a10b" stroke-width="0.26499998569488525px"/><path d="M1459.8 581.6c12.4 4 16 11 19.8 18-9-4.4-16.4-10-19.8-18" transform="translate(-57)" id="path82" fill="#ffed71"/><path d="M1436.8 550.4c5 11.5 11.3 29.8 38.6 23.1-8.3-10.4-17.8-18-38.6-23Z" transform="translate(-57)" id="path83" fill="#fbdb05" stroke="#b9a10b" stroke-width="0.26499998569488525px"/><path d="M1444.3 555c11.7 1.8 16 8 20.5 14.2-8.8-2.8-16.2-7-20.5-14.2" transform="translate(-57)" id="path84" fill="#ffed71"/><path d="M1419.6 525.1c5.7 11.2 13 29.2 39.9 21-8.8-10-18.7-17-39.9-21Z" transform="translate(-57)" id="path85" fill="#fbdb05" stroke="#b9a10b" stroke-width="0.26499998569488525px"/><path d="M1427.4 529.3c11.8 1.2 16.5 7.2 21.3 13.1-9-2.4-16.6-6.2-21.3-13.1" transform="translate(-57)" id="path86" fill="#ffed71"/><path d="M1405.9 504.6c5.4 9.4 12.2 24.6 37.6 17.7-8.3-8.4-17.6-14.4-37.6-17.7Z" transform="translate(-57)" id="path87" fill="#fbdb05" stroke="#b9a10b" stroke-width="0.26499998569488525px"/><path d="M1413.3 508.1c11.1 1 15.5 6 20 11-8.4-2-15.6-5.1-20-11" transform="translate(-57)" id="path88" fill="#ffed71"/><path d="M1387.1 485.2c6 9 14 23.6 38.9 14.9-9-7.8-18.7-13-38.9-15Z" transform="translate(-57)" id="path89" fill="#fbdb05" stroke="#b9a10b" stroke-width="0.26499998569488525px"/><path d="M1394.7 488.1c11.2.2 16 5 20.8 9.6-8.5-1.4-16-4-20.8-9.6" transform="translate(-57)" id="path90" fill="#ffed71"/><path d="M1366.8 465.7c6.7 8.5 15.7 22.5 39.9 12-9.5-7.1-19.6-11.6-39.9-12Z" transform="translate(-57)" id="path91" fill="#fbdb05" stroke="#b9a10b" stroke-width="0.26499998569488525px"/><path d="M1374.7 468c11.1-.6 16.2 3.8 21.4 8-8.6-.7-16.2-2.8-21.4-8" transform="translate(-57)" id="path92" fill="#ffed71"/><path d="M1343.6 451.1c7.9 7.4 19 19.8 41.2 5.5-10.5-5.5-21.2-8.3-41.2-5.5Z" transform="translate(-57)" id="path93" fill="#fbdb05" stroke="#b9a10b" stroke-width="0.26499998569488525px"/><path d="M1351.6 452.2c11-2.4 16.7 1.1 22.5 4.5-8.6.7-16.5-.2-22.5-4.5" transform="translate(-57)" id="path94" fill="#ffed71"/><path d="M1321.8 435.6c8.6 6.6 20.7 18 41.6 1.9-11-4.6-21.9-6.5-41.6-1.9Z" transform="translate(-57)" id="path95" fill="#fbdb05" stroke="#b9a10b" stroke-width="0.26499998569488525px"/><path d="M1330 436c10.7-3.4 16.7-.4 22.8 2.5-8.6 1.4-16.5 1.2-22.8-2.5" transform="translate(-57)" id="path96" fill="#ffed71"/><path d="M1301.1 415.7c7.4 8 17.6 21.1 40.8 8.5-10-6.3-20.6-9.9-40.8-8.5Z" transform="translate(-57)" id="path97" fill="#fbdb05" stroke="#b9a10b" stroke-width="0.26499998569488525px"/><path d="M1309.1 417.4c11.1-1.6 16.6 2.3 22.1 6.1-8.7 0-16.4-1.4-22-6" transform="translate(-57)" id="path98" fill="#ffed71"/><path d="M1508.2 877.6c10-24.6 25.3-32.3 39.3-40-8.1 16.6-2.2 44.4-39.3 40Z" transform="translate(-57)" id="path99" fill="#fbdb05" stroke="#b9a10b" stroke-miterlimit="15.118125151833171" stroke-width="1.0015757372423189px"/><path d="M1521.3 866.3c14.7-.5 14.7-13 19.8-21.4-7.5 5.5-16 9.5-19.8 21.4" transform="translate(-57)" id="path100" fill="#ffed71"/><path d="M1516 842c5-24.3 18.4-34.1 30.7-43.6-4.7 16.5 6.5 40.8-30.8 43.6Z" transform="translate(-57)" id="path101" fill="#fbdb05" stroke="#b9a10b" stroke-width="0.26499998569488525px"/><path d="M1526.6 829.3c14.4-3.2 11.9-14.6 15.2-23.2-6.2 6.5-13.8 11.6-15.2 23.2" transform="translate(-57)" id="path102" fill="#ffed71"/><path d="M1519.5 806.2c3.4-24.5 16.2-35.3 27.7-45.6-3.5 16.8 9.4 40.3-27.7 45.6Z" transform="translate(-57)" id="path103" fill="#fbdb05" stroke="#b9a10b" stroke-width="0.26499998569488525px"/><path d="M1529.3 792.8c14.1-4.1 10.9-15.4 13.6-24.2-5.8 6.9-13 12.5-13.6 24.2" transform="translate(-57)" id="path104" fill="#ffed71"/><path d="M1521.4 770.4c2.9-24.6 15.4-35.6 26.7-46.2-3.2 16.8 10.2 40-26.7 46.2Z" transform="translate(-57)" id="path105" fill="#fbdb05" stroke="#b9a10b" stroke-width="0.26499998569488525px"/><path d="M1531 756.7c14-4.4 10.4-15.6 13-24.4-5.7 7-12.7 12.8-13 24.4" transform="translate(-57)" id="path106" fill="#ffed71"/><path d="M1520.5 737.5c.6-22.4 12-33.4 22.2-43.9-2 15.5 10.6 35-22.2 43.9Z" transform="translate(-57)" id="path107" fill="#fbdb05" stroke="#b9a10b" stroke-width="0.26499998569488525px"/><path d="M1528.6 724.4c13.4-5.1 9-15 10.7-23.1-5 6.8-11.4 12.6-10.7 23.1" transform="translate(-57)" id="path108" fill="#ffed71"/><path d="M1516.8 709c.7-22.4 12-33.3 22.3-43.8-2 15.5 10.5 35.1-22.3 43.8Z" transform="translate(-57)" id="path109" fill="#fbdb05" stroke="#b9a10b" stroke-width="0.26499998569488525px"/><path d="M1525 696c13.4-5.1 9-15 10.8-23.1-5 6.8-11.5 12.5-10.8 23" transform="translate(-57)" id="path110" fill="#ffed71"/><path d="M1511.2 682.2c-1.2-22.4 9.3-34.2 18.7-45.5-.8 15.6 13.3 34.1-18.7 45.5Z" transform="translate(-57)" id="path111" fill="#fbdb05" stroke="#b9a10b" stroke-width="0.26499998569488525px"/><path d="M1518.3 668.5c13-6.2 7.7-15.6 8.9-23.9-4.5 7.2-10.4 13.4-8.9 23.9" transform="translate(-57)" id="path112" fill="#ffed71"/><path d="M1505.8 651.2c-2.8-22.4 6.8-34.2 15.3-45.4.4 15.5 15.9 34-15.3 45.4Z" transform="translate(-57)" id="path113" fill="#fbdb05" stroke="#b9a10b" stroke-width="0.26499998569488525px"/><path d="M1512 637.5c12.4-6.1 6.5-15.6 7-23.8-3.9 7.1-9.4 13.4-7 23.8" transform="translate(-57)" id="path114" fill="#ffed71"/><path d="M1496.8 624.6c-4.3-22.2 4.5-34.6 12.2-46.4 1.4 15.5 18 33-12.2 46.4Z" transform="translate(-57)" id="path115" fill="#fbdb05" stroke="#b9a10b" stroke-width="0.26499998569488525px"/><path d="M1502 610.5c12-7 5.5-16 5.4-24.3-3.4 7.4-8.4 14-5.5 24.3" transform="translate(-57)" id="path116" fill="#ffed71"/><path d="M1487.4 601.2c-4.2-21.7 3.4-34 10.2-45.6 1.5 15.1 16.7 32-10.2 45.6Z" transform="translate(-57)" id="path117" fill="#fbdb05" stroke="#b9a10b" stroke-width="0.26499998569488525px"/><path d="M1491.8 587.3c10.7-7 4.7-15.7 4.5-23.9-3 7.3-7.4 13.9-4.5 23.9" transform="translate(-57)" id="path118" fill="#ffed71"/><path d="M1477.8 577.5c-3.6-20.8 2.8-32.7 8.5-43.9 1.2 14.6 14 30.8-8.5 44Z" transform="translate(-57)" id="path119" fill="#fbdb05" stroke="#b9a10b" stroke-width="0.26499998569488525px"/><path d="M1481.4 564.2c9-6.8 4-15.2 3.8-23-2.4 7-6.2 13.3-3.8 23" transform="translate(-57)" id="path120" fill="#ffed71"/><path d="M1464.8 559.1c-3.5-20.8 2.9-32.7 8.5-43.9 1.3 14.6 14 30.8-8.5 44Z" transform="translate(-57)" id="path121" fill="#fbdb05" stroke="#b9a10b" stroke-width="0.26499998569488525px"/><path d="M1468.5 545.8c9-6.8 4-15.2 3.8-23-2.5 7-6.2 13.3-3.8 23" transform="translate(-57)" id="path122" fill="#ffed71"/><path d="M1455.4 541.6c-5.6-20.4-.7-32.8 3.6-44.6 2.7 14.4 16.6 29.2-3.7 44.6Z" transform="translate(-57)" id="path123" fill="#fbdb05" stroke="#b9a10b" stroke-width="0.26499998569488525px"/><path d="M1457.5 528c7.9-7.7 2.2-15.6 1.2-23.3-1.6 7.2-4.5 13.9-1.2 23.2" transform="translate(-57)" id="path124" fill="#ffed71"/><path d="M1445 526c-7.7-19.8-3.5-32.7 0-44.7 4.2 14 20.3 27.6 0 44.6Z" transform="translate(-57)" id="path125" fill="#fbdb05" stroke="#b9a10b" stroke-width="0.26499998569488525px"/><path d="M1446 512.2c7.8-8.4 1.1-15.6-.6-23.3-1 7.3-3.6 14.2.7 23.3" transform="translate(-57)" id="path126" fill="#ffed71"/><path d="M1434.3 510.3c-9-18.2-6.7-30.9-4.9-42.9 5.3 13 21.3 24.2 5 42.9Z" transform="translate(-57)" id="path127" fill="#fbdb05" stroke="#b9a10b" stroke-width="0.26499998569488525px"/><path d="M1433.8 497c6-8.9-.8-15.1-3.2-22.3-.2 7.2-1.7 14 3.2 22.2" transform="translate(-57)" id="path128" fill="#ffed71"/><path d="M1420.4 493.2c-10.1-17.6-8.5-30.4-7.3-42.5 6 12.7 22.6 23 7.3 42.5Z" transform="translate(-57)" id="path129" fill="#fbdb05" stroke="#b9a10b" stroke-width="0.26499998569488525px"/><path d="M1419.1 480c5.6-9.2-1.6-15-4.4-22 .2 7-1 14 4.4 22" transform="translate(-57)" id="path130" fill="#ffed71"/><path d="M1405 477.8c-10-16-8.5-27.7-7.3-38.6 6 11.5 22.5 20.8 7.3 38.6Z" transform="translate(-57)" id="path131" fill="#fbdb05" stroke="#b9a10b" stroke-width="0.26499998569488525px"/><path d="M1403.7 465.7c5.5-8.3-1.7-13.6-4.4-20 .2 6.5-.9 12.8 4.4 20" transform="translate(-57)" id="path132" fill="#ffed71"/><path d="M1390 460.5c-8.5-13-7.1-22.5-6.1-31.5 5 9.4 19 17 6.1 31.5Z" transform="translate(-57)" id="path133" fill="#fbdb05" stroke="#b9a10b" stroke-width="0.26499998569488525px"/><path d="M1389 450.7c4.6-6.8-1.5-11.2-3.8-16.3.2 5.3-.7 10.4 3.7 16.3" transform="translate(-57)" id="path134" fill="#ffed71"/><path d="M1375.2 446.6c-8.5-12-7.2-20.7-6.2-29 5 8.7 19 15.7 6.2 29Z" transform="translate(-57)" id="path135" fill="#fbdb05" stroke="#b9a10b" stroke-width="0.26499998569488525px"/><path d="M1374.1 437.6c4.7-6.3-1.4-10.2-3.7-15 .2 4.9-.8 9.6 3.7 15" transform="translate(-57)" id="path136" fill="#ffed71"/><path d="M1358.6 434.6c-10.5-10.2-10.8-19-11.4-27.3 6.6 7.6 21.7 11.9 11.4 27.3Z" transform="translate(-57)" id="path137" fill="#fbdb05" stroke="#b9a10b" stroke-width="0.26499998569488525px"/><path d="M1356 426c3.4-7-3.3-9.8-6.5-14 1 4.7 1 9.5 6.4 14" transform="translate(-57)" id="path138" fill="#ffed71"/><path d="M1341.4 421.7c-11.9-8.7-13.3-17.4-15-25.5 7.6 6.6 23 8.8 15 25.5Z" transform="translate(-57)" id="path139" fill="#fbdb05" stroke="#b9a10b" stroke-width="0.26499998569488525px"/><path d="M1337.5 413.4c2.5-7.3-4.5-9.2-8.2-13 1.7 4.6 2.3 9.4 8.2 13" transform="translate(-57)" id="path140" fill="#ffed71"/><path d="M1331.6 414.3c-14-3.2-30.5-2.8-38-24.4 11.6 2.4 24.5 4.5 38 24.4Z" transform="translate(-57)" id="path141" fill="#fbdb05" stroke="#b9a10b" stroke-width="0.26499998569488525px"/><path d="M1322 407.5c-7-8.8-13.6-9.7-20.2-10.8 6.3 6 12.9 10.3 20.2 10.8" transform="translate(-57)" id="path142" fill="#ffed71"/><path d="m1478.5 952.7 11 4.9c120.8-328.9-107.2-521-160-545.3l-1.4 1.3c123.5 77.8 259.3 271.3 150.4 539.1Z" transform="translate(-57)" id="path143" fill="#fbdb05" stroke="#b9a10b" stroke-miterlimit="15.118119239807129" stroke-width="1.0015753455706147px"/><path d="M945 960.1a15.6 15.6 0 0 0-21.2-7l-3.4 1.8a16.3 16.3 0 0 0-6.8 21.8l12.9 25.7a15.6 15.6 0 0 0 21.2 7l3.4-1.8a16.3 16.3 0 0 0 6.8-21.7Zm-8.4 4.5 12.9 25.7a6.3 6.3 0 0 1-2.7 8.6l-3.4 1.8a6 6 0 0 1-8.4-2.8l-13-25.7a6 6 0 0 1 2.8-8.6l3.3-1.8a6 6 0 0 1 8.5 2.8Z" transform="translate(-57)" style="isolation:isolate" id="path144" fill="#fff" stroke="#cfcece" stroke-miterlimit="15.118119239807129" stroke-width="1.6138591765850236px" fill-rule="evenodd" opacity="0.9950000047683716"/><path d="M974.7 1007.3a15.5 15.5 0 0 0-22.1-3.2l-3 2.3a16.3 16.3 0 0 0-3.1 22.6l17 23.1a15.5 15.5 0 0 0 22 3.2l3-2.4a16.3 16.3 0 0 0 3.2-22.6Zm-7.6 5.8 17 23a6.3 6.3 0 0 1-1 8.9l-.2.2-3 2.3a6 6 0 0 1-8.8-1.3l-17-23a6.3 6.3 0 0 1 1.2-9l3-2.3a6 6 0 0 1 8.8 1.2Z" transform="translate(-57)" style="isolation:isolate" id="path145" fill="#fff" stroke="#cfcece" stroke-miterlimit="15.118119239807129" stroke-width="1.6138591765850236px" fill-rule="evenodd" opacity="0.9950000047683716"/><path d="m943.6 988.8 22.4 27.5a4.6 4.6 0 0 1-.6 6.4 4.4 4.4 0 0 1-6.3-.5l-22.4-27.5a4.6 4.6 0 0 1 .6-6.4 4.4 4.4 0 0 1 6.3.5Z" transform="translate(-57)" style="isolation:isolate" id="path146" fill="#fff" stroke="#cfcece" stroke-miterlimit="15.118119239807129" stroke-width="1.224567662028818px" fill-rule="evenodd" opacity="0.9950000047683716"/><path d="M1010.2 1047.6a15.5 15.5 0 0 0-22.2 1.3l-2.6 3a16.4 16.4 0 0 0 1.3 22.7l21.1 19.3a15.5 15.5 0 0 0 22.3-1.4l2.5-2.9a16.4 16.4 0 0 0-1.3-22.7Zm-6.3 7.3 21.1 19.2a6.3 6.3 0 0 1 .7 8.9l-.2.2-2.5 2.9a6 6 0 0 1-8.8.5l-21.2-19.3a6.3 6.3 0 0 1-.5-9l2.6-2.9a6 6 0 0 1 8.8-.5Z" transform="translate(-57)" style="isolation:isolate" id="path147" fill="#fff" stroke="#cfcece" stroke-miterlimit="15.118119239807129" stroke-width="1.6138591765850236px" fill-rule="evenodd" opacity="0.9950000047683716"/><path d="m978.1 1035.8 26.6 23a4.6 4.6 0 0 1 .6 6.5 4.4 4.4 0 0 1-6.4.6l-26.6-23.1a4.6 4.6 0 0 1-.5-6.5 4.4 4.4 0 0 1 6.3-.5Z" transform="translate(-57)" style="isolation:isolate" id="path148" fill="#fff" stroke="#cfcece" stroke-miterlimit="15.118119239807129" stroke-width="1.224567662028818px" fill-rule="evenodd" opacity="0.9950000047683716"/><path d="M1059.7 1084.3a15.5 15.5 0 0 0-21.9 4.7l-2 3.3a16.3 16.3 0 0 0 4.6 22.3l23.7 15.8a15.5 15.5 0 0 0 21.8-4.7l2-3.3a16.3 16.3 0 0 0-4.6-22.3Zm-5.2 8.2 23.7 15.7a6.3 6.3 0 0 1 1.8 8.9l-2 3.3a6 6 0 0 1-8.7 1.8l-23.7-15.8a6.3 6.3 0 0 1-1.9-8.8l2.1-3.3a6 6 0 0 1 8.7-1.8Z" transform="translate(-57)" style="isolation:isolate" id="path149" fill="#fff" stroke="#cfcece" stroke-miterlimit="15.118119239807129" stroke-width="1.6138591765850236px" fill-rule="evenodd" opacity="0.9950000047683716"/><path d="M1105.7 1110.4a15.7 15.7 0 0 0-19.1 11.7l-1 3.7a16 16 0 0 0 11.5 19.6l27.4 7a15.7 15.7 0 0 0 19.1-11.6l1-3.8a16 16 0 0 0-11.5-19.6Zm-2.3 9.4 27.4 7a6 6 0 0 1 4.5 7.8l-1 3.8a6 6 0 0 1-7.5 4.6l-27.4-7a6 6 0 0 1-4.5-7.8l.9-3.8a6 6 0 0 1 7.6-4.6Z" transform="translate(-57)" style="isolation:isolate" id="path150" fill="#fff" stroke="#cfcece" stroke-miterlimit="15.118119239807129" stroke-width="1.6138591765850236px" fill-rule="evenodd" opacity="0.9950000047683716"/><path d="m1072.4 1110 32.7 12.4a4.6 4.6 0 0 1 2.7 5.9 4.4 4.4 0 0 1-5.8 2.7l-32.7-12.5a4.6 4.6 0 0 1-2.7-5.9 4.4 4.4 0 0 1 5.8-2.7Z" transform="translate(-57)" style="isolation:isolate" id="path151" fill="#fff" stroke="#cfcece" stroke-miterlimit="15.118119239807129" stroke-width="1.224567662028818px" fill-rule="evenodd" opacity="0.9950000047683716"/><path d="M1162 1123.8a16 16 0 0 0-17.5 14.2l-.4 3.9a16 16 0 0 0 14 17.8l28 3.2a16 16 0 0 0 17.4-14.2l.5-3.9a16 16 0 0 0-14-17.8Zm-1.1 9.6 28 3.3a6 6 0 0 1 5.6 7l-.4 3.9a6 6 0 0 1-7 5.6l-28-3.2a6 6 0 0 1-5.5-7l.4-4a6 6 0 0 1 7-5.6Z" transform="translate(-57)" style="isolation:isolate" id="path152" fill="#fff" stroke="#cfcece" stroke-miterlimit="15.118119239807129" stroke-width="1.6138591765850236px" fill-rule="evenodd" opacity="0.9950000047683716"/><path d="m1126.4 1129.6 34.3 6.5a4.6 4.6 0 0 1 3.6 5.3 4.5 4.5 0 0 1-5.2 3.7l-34.4-6.5a4.6 4.6 0 0 1-3.6-5.4 4.5 4.5 0 0 1 5.3-3.6Z" transform="translate(-57)" style="isolation:isolate" id="path153" fill="#fff" stroke="#cfcece" stroke-miterlimit="15.118119239807129" stroke-width="1.224567662028818px" fill-rule="evenodd" opacity="0.9950000047683716"/><path d="M1463 960.1a15.6 15.6 0 0 1 21.2-7l3.4 1.8a16.3 16.3 0 0 1 6.9 21.8l-13 25.7a15.6 15.6 0 0 1-21.2 7l-3.4-1.8a16.3 16.3 0 0 1-6.8-21.7Zm8.5 4.5-13 25.7a6.3 6.3 0 0 0 2.8 8.6l3.4 1.8a6 6 0 0 0 8.4-2.8l12.9-25.7a6 6 0 0 0-2.7-8.6l-3.4-1.8a6 6 0 0 0-8.4 2.8Z" transform="translate(-57)" style="isolation:isolate" id="path154" fill="#fff" stroke="#cfcece" stroke-miterlimit="15.118119239807129" stroke-width="1.6138591765850236px" fill-rule="evenodd" opacity="0.9950000047683716"/><path d="M1433.4 1007.3a15.5 15.5 0 0 1 22-3.2l3 2.3a16.3 16.3 0 0 1 3.2 22.6l-17 23.1a15.5 15.5 0 0 1-22.1 3.2l-3-2.4a16.3 16.3 0 0 1-3.1-22.6Zm7.6 5.8-17 23a6.3 6.3 0 0 0 1 8.9l.2.2 3 2.3a6 6 0 0 0 8.8-1.3l17-23a6.3 6.3 0 0 0-1.2-9l-3-2.3a6 6 0 0 0-8.8 1.2Z" transform="translate(-57)" style="isolation:isolate" id="path155" fill="#fff" stroke="#cfcece" stroke-miterlimit="15.118119239807129" stroke-width="1.6138591765850236px" fill-rule="evenodd" opacity="0.9950000047683716"/><path d="m1464.4 988.8-22.4 27.5a4.6 4.6 0 0 0 .6 6.4 4.4 4.4 0 0 0 6.3-.5l22.4-27.5a4.6 4.6 0 0 0-.6-6.4 4.4 4.4 0 0 0-6.3.5Z" transform="translate(-57)" style="isolation:isolate" id="path156" fill="#fff" stroke="#cfcece" stroke-miterlimit="15.118119239807129" stroke-width="1.224567662028818px" fill-rule="evenodd" opacity="0.9950000047683716"/><path d="M1397.8 1047.6a15.5 15.5 0 0 1 22.3 1.3l2.5 3a16.4 16.4 0 0 1-1.3 22.7l-21.1 19.3a15.5 15.5 0 0 1-22.3-1.4l-2.5-2.9a16.4 16.4 0 0 1 1.3-22.7Zm6.3 7.3-21 19.2a6.3 6.3 0 0 0-.8 8.9l.2.2 2.5 2.9a6 6 0 0 0 8.9.5l21-19.3a6.3 6.3 0 0 0 .6-9l-2.5-2.9a6 6 0 0 0-8.9-.5Z" transform="translate(-57)" style="isolation:isolate" id="path157" fill="#fff" stroke="#cfcece" stroke-miterlimit="15.118119239807129" stroke-width="1.6138591765850236px" fill-rule="evenodd" opacity="0.9950000047683716"/><path d="m1430 1035.8-26.7 23a4.6 4.6 0 0 0-.5 6.5 4.4 4.4 0 0 0 6.3.6l26.6-23.1a4.6 4.6 0 0 0 .6-6.5 4.4 4.4 0 0 0-6.4-.5Z" transform="translate(-57)" style="isolation:isolate" id="path158" fill="#fff" stroke="#cfcece" stroke-miterlimit="15.118119239807129" stroke-width="1.224567662028818px" fill-rule="evenodd" opacity="0.9950000047683716"/><path d="M1348.4 1084.3a15.5 15.5 0 0 1 21.8 4.7l2 3.3a16.3 16.3 0 0 1-4.6 22.3l-23.6 15.8a15.5 15.5 0 0 1-21.8-4.7l-2.1-3.3a16.3 16.3 0 0 1 4.6-22.3Zm5.2 8.2-23.7 15.7a6.3 6.3 0 0 0-1.9 8.9l2.1 3.3a6 6 0 0 0 8.7 1.8l23.7-15.8a6.3 6.3 0 0 0 1.8-8.8l-2-3.3a6 6 0 0 0-8.7-1.8Z" transform="translate(-57)" style="isolation:isolate" id="path159" fill="#fff" stroke="#cfcece" stroke-miterlimit="15.118119239807129" stroke-width="1.6138591765850236px" fill-rule="evenodd" opacity="0.9950000047683716"/><path d="M1302.3 1110.4a15.7 15.7 0 0 1 19.2 11.7l.9 3.7a16 16 0 0 1-11.4 19.6l-27.4 7a15.7 15.7 0 0 1-19.2-11.6l-.9-3.8a16 16 0 0 1 11.4-19.6Zm2.4 9.4-27.4 7a6 6 0 0 0-4.6 7.8l1 3.8a6 6 0 0 0 7.5 4.6l27.4-7a6 6 0 0 0 4.6-7.8l-1-3.8a6 6 0 0 0-7.5-4.6Z" transform="translate(-57)" style="isolation:isolate" id="path160" fill="#fff" stroke="#cfcece" stroke-miterlimit="15.118119239807129" stroke-width="1.6138591765850236px" fill-rule="evenodd" opacity="0.9950000047683716"/><path d="m1335.7 1110-32.8 12.4a4.6 4.6 0 0 0-2.6 5.9 4.4 4.4 0 0 0 5.7 2.7l32.8-12.5a4.6 4.6 0 0 0 2.6-5.9 4.4 4.4 0 0 0-5.7-2.7Z" transform="translate(-57)" style="isolation:isolate" id="path161" fill="#fff" stroke="#cfcece" stroke-miterlimit="15.118119239807129" stroke-width="1.224567662028818px" fill-rule="evenodd" opacity="0.9950000047683716"/><path d="M1246 1123.8a16 16 0 0 1 17.5 14.2l.4 3.9a16 16 0 0 1-13.9 17.8l-28 3.2a16 16 0 0 1-17.5-14.2l-.4-3.9a16 16 0 0 1 13.9-17.8Zm1.1 9.6-28 3.3a6 6 0 0 0-5.6 7l.4 3.9a6 6 0 0 0 7 5.6l28-3.2a6 6 0 0 0 5.6-7l-.5-4a6 6 0 0 0-6.9-5.6Z" transform="translate(-57)" style="isolation:isolate" id="path162" fill="#fff" stroke="#cfcece" stroke-miterlimit="15.118119239807129" stroke-width="1.6138591765850236px" fill-rule="evenodd" opacity="0.9950000047683716"/><path d="m1281.7 1129.6-34.4 6.5a4.6 4.6 0 0 0-3.6 5.3 4.5 4.5 0 0 0 5.3 3.7l34.3-6.5a4.6 4.6 0 0 0 3.6-5.4 4.5 4.5 0 0 0-5.2-3.6Zm-97 11.5 35-.5a4.6 4.6 0 0 1 0 9.1l-34.9.5a4.6 4.6 0 0 1-.1-9.1Zm-165.7-66.2 30.6 17.3a4.6 4.6 0 0 1 1.7 6.3 4.4 4.4 0 0 1-6 1.8l-30.6-17.4a4.6 4.6 0 0 1-1.8-6.2 4.4 4.4 0 0 1 6.1-1.8Zm370 0-30.6 17.3a4.6 4.6 0 0 0-1.7 6.3 4.4 4.4 0 0 0 6 1.8l30.6-17.4a4.6 4.6 0 0 0 1.8-6.2 4.4 4.4 0 0 0-6.1-1.8Z" transform="translate(-57)" style="isolation:isolate" id="path163" fill="#fff" stroke="#cfcece" stroke-miterlimit="15.118119239807129" stroke-width="1.224567662028818px" fill-rule="evenodd" opacity="0.9950000047683716"/><path d="M1472.4 940c1-16.7 8.3-4.2 10.5-3.4a49 49 0 0 0 2.6 26c-2.5 5.3-8.7 4.8-10.8.4 1.3-8.7-1.1-15.5-2.3-23Z" transform="translate(-57)" id="path164" fill="#fbdb05" stroke="#b9a10b" stroke-miterlimit="15.118119239807129" stroke-width="1.0015753455706147px"/><path d="M925 968.2c-5.6-15.6-5.1-24.4-2.4-30.6 10-10.5 12.4.8 8 4.2l2.2 22.5c3 3-4.4 9.8-7.8 3.9Z" transform="translate(-57)" id="path165" fill="#03933f" stroke="#066830" stroke-miterlimit="15.118119239807129" stroke-width="1.9993712099912244px"/><path d="m1200 344.6-14 43h-45l36.4 26.5-14 42.9 36.6-26.5 36.5 26.5-14-43 36.6-26.5h-45.2Z" transform="translate(-57)" style="isolation:isolate" id="path166" fill="#b9a10b" fill-rule="evenodd" opacity="0.9950000047683716"/><path d="m1200 356-11.5 35.4h-37.1l30 21.8-11.4 35.3 30-21.8 30 21.8-11.4-35.3 30-21.8h-37.1Z" transform="translate(-57)" style="isolation:isolate" id="path167" fill="#fbdb05" fill-rule="evenodd" opacity="0.9950000047683716"/><path d="m1200 356-11.5 35.4 11.5 17-48.6-17 30 21.8 18.6-4.8-30 40.1 30-21.8v-18.3l30 40.1-11.4-35.3-18.6-6 48.6-15.8h-37.1l-11.5 15.8Z" transform="translate(-57)" style="isolation:isolate" id="path168" fill="#ffed71" fill-rule="evenodd" opacity="0.9950000047683716"/><path d="m1009.5 697 8.5 175.8c-17.9 24.2-54.7.6-28.5-17.3-10.7 5-34.9-1-16.8-22.9-33.6 10.9-26.5-26.5-4.8-19-4.3-2.5-10-5.2-24.6-9.5-22.6-28.4 15.2-39.6 16.8-17.1l9.2 10.2c4-4.6-5.1-14.2-11-21-9.7-11.6-33-7.8-21-32.1 1.4-3 19.1-10 23.6 16l13.1 15.3c-8.9-27-16.4-30.7-24.5-43-7.2 3-30.6-16.3-14.3-33.3 12-4 28-.5 25.9 24.5l15.7 33.4c-.5-20.4-7.6-37.6-18.8-55.2-6-9.5-16.6-18.3-18.7-26.5-14.1-58.8 54.5-32.6 26.6-3.5 10 40.9 18.7 37 22.8 69.5-4.4-40.2-26.4-125.7-20.1-129.4 17-83.2 80-29.3 40.9-13-34.3 47-.9 95.7 0 98.2Z" transform="translate(-57)" id="path169" fill="#e87944" stroke="#b54a18" stroke-miterlimit="15.118119239807129" stroke-width="3.2692933216526967px"/><path d="M1001.1 578c-5.3.8-15.6 7.3-21.5 36.1l-1 2.6a87 87 0 0 0 1 9.8l3.6 20.6a88 88 0 0 1 17.2-54.8 11 11 0 0 1 4.8-3.7c4.2-1.8 5.2-3.4 5.5-4s.3-1-.1-2c-1-2.2-5-5.3-9.5-4.6m-23 39.8-.2.2zm-23 33.7c-2.6-.7-3.6-.4-4.7 1s-3.3 7.2-.2 20a38 38 0 0 0 5.6 8.4l2 2.5c-1-3.2-1.9-5.1-2.8-9a11 11 0 0 1 2.8-10.3c4.8-5 4-6.5 3.3-8s-3.3-4-6-4.6m33.1 23.6c4.5 23 9.7 47.6 11.6 65a11.2 11.2 0 0 1-12.3 12.3l.4 4.3a11 11 0 0 1-5.4 9.9c.8 1.9 1.5 3.2 2.2 5.3a11 11 0 0 1-6 13.7 20 20 0 0 1 2.3 4.9c.9 3.8.3 9.9-3.3 14L976 806a11 11 0 0 1-.7 15.8 11.2 11.2 0 0 1 5.9 18c-2.8 3.4-2.9 4.5-3.1 5.2 1.9.3 6 .7 6.7.4a11.2 11.2 0 0 1 11 19.4c-4.7 3.1-4.3 4.5-4.3 4.3a4 4 0 0 0 1.5 1.4c2.9 1.8 8.3 2 13.4-2.7l-8.1-167.6-.4-.7q-2-3.6-3.8-7.4c-2-4.2-4-10.8-6-17Zm-46.4 34.6c-.2.7-1 1.6-1 2.2a9 9 0 0 0 1.9 4.9 17 17 0 0 0 4.8 4.4c1.3.7 2-.8-2.2 1a11 11 0 0 1 4.5-.9c.4-8.4-1.4-10.7-2.7-11.5-.8-.6-3.2-.2-5.3 0m4.3 42.8-1 3c0-.3-.9-1 .5 0l2.6 1.1q-1.4-3.8-2.1-4.1m2.6 33.7c.1 0-.5 0-.9.2s-.4-.1-.5.8 1.4 4.2 3.8 8c1 .3 1.1.5 2 .7l-1.4-1.4a11 11 0 0 1-2.8-6.8c-.2-2.4-.3-1.5-.2-1.5" transform="translate(-57)" id="path170" fill="#ef9e79"/><path d="m1390.5 697-8.5 175.8c17.9 24.2 54.7.6 28.5-17.3 10.7 5 34.9-1 16.8-22.9 33.6 10.9 26.5-26.5 4.8-19 4.3-2.5 10-5.2 24.6-9.5 22.5-28.4-15.2-39.6-16.8-17.1l-9.2 10.2c-4-4.6 5-14.2 11-21 9.7-11.6 33-7.8 21-32.1-1.4-3-19.1-10-23.6 16l-13.1 15.3c8.8-27 16.4-30.7 24.5-43 7.2 3 30.5-16.3 14.3-33.3-12-4-28-.5-25.9 24.5l-15.7 33.4c.5-20.4 7.6-37.6 18.8-55.2 6-9.5 16.6-18.3 18.7-26.5 14.1-58.8-54.5-32.6-26.6-3.5-10 40.9-18.7 37-22.8 69.5 4.4-40.2 26.4-125.7 20.1-129.4-17-83.2-80-29.3-40.9-13 34.3 47 .9 95.7 0 98.2Z" transform="translate(-57)" id="path171" fill="#e87944" stroke="#b54a18" stroke-miterlimit="15.118119239807129" stroke-width="3.2692933216526967px"/><path d="M1398.9 578c5.3.8 15.6 7.3 21.5 36.1l1 2.6a88 88 0 0 1-1 9.8l-3.6 20.6a88 88 0 0 0-17.2-54.8 11 11 0 0 0-4.8-3.7c-4.2-1.8-5.2-3.4-5.5-4s-.4-1 .1-2c1-2.2 5-5.3 9.5-4.6m23 39.8.2.2zm23 33.7c2.6-.7 3.6-.4 4.7 1s3.3 7.2.2 20a38 38 0 0 1-5.6 8.4l-2 2.5c1-3.2 1.9-5.1 2.8-9a11 11 0 0 0-2.8-10.3c-4.8-5-4-6.5-3.3-8s3.3-4 6-4.6m-33.1 23.6c-4.6 23-9.7 47.6-11.6 65a11.2 11.2 0 0 0 12.3 12.3c0 1.4-.4 2.8-.4 4.3a11 11 0 0 0 5.4 9.9c-.8 1.9-1.5 3.2-2.2 5.3a11 11 0 0 0 6 13.6 20 20 0 0 0-2.3 5 17 17 0 0 0 3.3 14l1.5 1.5a11 11 0 0 0 .7 15.8 11.2 11.2 0 0 0-5.8 18c2.8 3.4 2.9 4.5 3.1 5.2-2 .3-6 .7-6.7.4a11.2 11.2 0 0 0-11 19.4c4.7 3.1 4.3 4.5 4.3 4.3a4 4 0 0 1-1.5 1.4c-2.9 1.7-8.3 1.9-13.4-2.7l8.1-167.6.4-.7q2-3.6 3.8-7.4c2-4.2 4-10.8 6-17m46.4 34.6c.2.7 1 1.6 1 2.2a9 9 0 0 1-1.9 4.9 17 17 0 0 1-4.8 4.4c-1.4.7-2-.8 2.2 1a11 11 0 0 0-4.5-.9c-.4-8.4 1.4-10.7 2.6-11.5.9-.6 3.3-.2 5.4 0m-4.3 42.8 1 3c0-.3.9-1-.5 0l-2.6 1.1q1.4-3.9 2-4.1m-2.6 33.7c-.1 0 .5 0 .9.2s.4-.1.4.8c.1.8-1.4 4.2-3.7 8-1 .3-1.1.5-2 .7l1.4-1.4a11 11 0 0 0 2.8-6.8c.2-2.4.3-1.5.2-1.5" transform="translate(-57)" id="path172" fill="#ef9e79"/><ellipse cx="1143" cy="769.9573" rx="198.5106" ry="276.6463" style="isolation:isolate" id="ellipse172" fill="#fff" stroke="#010101" stroke-miterlimit="15.118119239807129" stroke-width="2.1694501145167635px" opacity="0.9990000128746033"/><g id="g211" opacity="0.996999979019165"><path d="M1199 886.6v30c-172.4-40.3-145.8-201.5-95.8-243.7l6.2 4.1c-92.8 127.3 34 219.3 89.6 209.6Z" transform="translate(-57)" id="path173" fill="#dd954d" stroke="#8d3a14" stroke-miterlimit="15.118119239807129" stroke-width="0.9788982333930534px"/><path d="m1194 890.7-.7 9c-191.8-53-103.6-214.6-89.6-222.9a130.5 130.5 0 0 0 90.3 214" transform="translate(-57)" id="path174" fill="#f9cea6"/><path d="m1116.6 853.5-11.6 14.7m-11.7-13.4 12.8-12m-9.3-12-13 9.7m-8.6-18 12.6-7.4m-19.2-15 12.4-2.4m-15-16.5 11.4-.3m-11.6-17.6 10.6.5m-8.7-18.8 10.4 1.2m-6.9-17.5 10.3 2.8m-6-16.2 10.5 3.3m-3.7-18.3 10.3 3.7m-3.6-15 10.5 2.7" transform="translate(-57)" id="path175" fill="none" stroke="#8d3a14" stroke-miterlimit="15.118119239807129" stroke-width="1.0015753455706147px"/><path d="M1194.6 738c-3-5.5-11.5-4.8-3-25.3l-7 12.6 4.9-22.3-6 17 4.3-22.6-6.6 15.7 2.6-18.3-6.7 15.4 4.3-17.2-6.6 11.2 4.5-13-6.2 11 5.6-20.4-8.3 18.8 6.4-23-7.7 17.1 5.4-20.4-9 19.7 5-21.4-7.3 16.8 3.6-16.2-5.7 14.5 2.7-15.7-6 11.7 3.7-18-7.7 14.4 4.8-17.1-8.1 14.5 3.5-15.6-7.5 14.3 1.6-15.2-5.7 11.4-.7-12.6-4 11-.8-13.2-4.6 13.7-1.2-10.3-17.5 9 3.4-8.4c41.9-31.3 88 6.8 77.6 76.4Z" transform="translate(-57)" id="path176" fill="#019042" stroke="#094927" stroke-width="0.26499998569488525px"/><path d="M1195 722.5c.2-49.3-32.8-80.9-65.9-66 56.3-11.5 61.5 50.5 66 66" transform="translate(-57)" id="path177" fill="#76b949"/><path d="M1121.6 769.3c1-6.4 2.3-12.8 17.6-26.6l-10.7 8.2 14-17.3-14.2 13.6 14-17.6-11.8 10.4 10.8-14.8-11.6 10.3 11.2-13-9.4 6.4 9.2-9.2-9.2 6.7 13.6-15.2-14.2 12.4 15.3-17-13 11.1 13.4-15.3-15.1 12.9 13.7-16.4-12.7 11.2 10.3-12.6-10.6 10 9.5-12.5-9.3 7.3 11.3-14.1-11.7 9 11.4-12.9-12 8.8 10-12-11.5 9 8.7-12.8-9 7.3 6-11.6-7.8 7.8 6.2-12-9.5 9.7 4.6-9.7-14.5-.8 6.2-5.7c46.7-11 55.1 62.2.8 107Z" transform="translate(-57)" id="path178" fill="#019042" stroke="#094927" stroke-width="0.26499998569488525px"/><path d="M1138.5 748.3c30.3-47.1 17.9-81-8.2-84.5 37.3 18.2 21.6 58.2 8.2 84.5" transform="translate(-57)" id="path179" fill="#76b949"/><path d="M1025.6 737c4.6-5.2 9.1-10.6 10-33.5l2.3 13.5 3-22.6.6 17.8 3-20.2v15.6l4.3-17.8-1 15 3.6-16.4v12.5l2.4-14.2 1.2 9.6 3-19.3v14.3l3-18.4-.2 14.5 3.4-17.6.8 13.9 3-15-1.2 14 4.2-12.8-.2 8.6 3-9.4 1.1 5 3.3-11.3 1 9.8 2.4-12.2 2.2 10.5 2-10.8 1.4 10.1 3.8-10.2.8 8.6 4.9-8.9v8.2l4.8-9.7v9.2l13.4-3.2c-23.9-48.7-90.1-5.4-89.3 72.8Z" transform="translate(-57)" id="path180" fill="#019042" stroke="#094927" stroke-miterlimit="15.118119239807129" stroke-width="1.0015753455706147px"/><path d="M1031.3 708c18.2-58.6 55.5-70.5 77-49.8-41.9-20.7-64.4 20-77 49.8" transform="translate(-57)" id="path181" fill="#76b949"/><path d="M1026.6 631.6c5.5.7 11.1 1.3 27-11.6l-8.2 10 16.6-11-11.8 11.3 15-9.7-10.6 9.4 14-7-10.6 8.1 12.7-6.7-8.5 7.5 10.6-6.5-6 6.8 14.3-9-9.6 8.4 13.8-8.2-10 8.4 13.4-7.7-9 9 11.5-6.3-10 7.3 10.4-4.2-5.9 5 7.7-3-2.9 3.9 9-4-6.1 6.8 9.2-5.3-6.1 8 8.2-4.6-6.3 7.2 8.6-2.9-5.5 5.8 8.1-1.1-5.5 4.9 8.6-1.8-6.2 5.5 8 9.5c22.7-49.3-35.3-79.6-88-32.2Z" transform="translate(-57)" id="path182" fill="#019042" stroke="#094927" stroke-width="0.26499998569488525px"/><path d="M1048.7 619c47.6-19.5 71.7 5 67 35.6-4-47.8-41.4-42.6-67-35.6" transform="translate(-57)" id="path183" fill="#76b949"/><path d="M1116.6 661.9c5.2-51.3 45-47 67-69.1l-17.9 24-15.5 1.7 13.5 1.5-15.9 2 10.2 1.6-15.3 2 12.3.4-15.4 3 9.7 1.1-10.2 1.7 7.7 1.2-9.9 2 6.6 2-9.2 2 6.9.8-9.6 2 7.7.4-8.7 2 7.5 2-10.7 1.6 6.4.7Z" transform="translate(-57)" id="path184" fill="#019042" stroke="#094927" stroke-miterlimit="15.118119239807129" stroke-width="1.0015753455706147px"/><path d="M1121.6 646.6c15.3-35.2 33.8-29.5 46.3-38.8-18.3 10.2-36 21-46.3 38.8" transform="translate(-57)" id="path185" fill="#76b949"/><circle cx="1055.7118" cy="661.1464" r="6.0438" style="isolation:isolate" id="circle185" fill="#be7314" stroke="#8d3a14" stroke-miterlimit="1.3968084423877016" stroke-width="0.6802456954576066px" opacity="0.9990000128746033"/><ellipse cx="1056.3412" cy="660.982" rx="4.8076" ry="4.7643" style="isolation:isolate" id="ellipse185" fill="#f49523" opacity="0.9990000128746033"/><ellipse cx="1057.9467" cy="659.2757" rx="1.5023" ry="1.4887" style="isolation:isolate" id="ellipse186" fill="#ffd260" opacity="0.9990000128746033"/><circle cx="1048.9664" cy="669.2168" r="6.0438" style="isolation:isolate" id="circle186" fill="#be7314" stroke="#8d3a14" stroke-miterlimit="1.3968084423877016" stroke-width="0.6802456954576066px" opacity="0.9990000128746033"/><ellipse cx="1049.5958" cy="669.0524" rx="4.8076" ry="4.7643" style="isolation:isolate" id="ellipse187" fill="#f49523" opacity="0.9990000128746033"/><ellipse cx="1051.2013" cy="667.3461" rx="1.5023" ry="1.4887" style="isolation:isolate" id="ellipse188" fill="#ffd260" opacity="0.9990000128746033"/><circle cx="1062.3368" cy="670.7827" r="6.0438" style="isolation:isolate" id="circle188" fill="#be7314" stroke="#8d3a14" stroke-miterlimit="1.3968084423877016" stroke-width="0.6802456954576066px" opacity="0.9990000128746033"/><ellipse cx="1062.9662" cy="670.6183" rx="4.8076" ry="4.7643" style="isolation:isolate" id="ellipse189" fill="#f49523" opacity="0.9990000128746033"/><ellipse cx="1064.5717" cy="668.912" rx="1.5023" ry="1.4887" style="isolation:isolate" id="ellipse190" fill="#ffd260" opacity="0.9990000128746033"/><circle cx="1055.5914" cy="678.6122" r="6.0438" style="isolation:isolate" id="circle190" fill="#be7314" stroke="#8d3a14" stroke-miterlimit="1.3968084423877016" stroke-width="0.6802456954576066px" opacity="0.9990000128746033"/><ellipse cx="1056.2208" cy="678.4478" rx="4.8076" ry="4.7643" style="isolation:isolate" id="ellipse191" fill="#f49523" opacity="0.9990000128746033"/><ellipse cx="1057.8263" cy="676.7415" rx="1.5023" ry="1.4887" style="isolation:isolate" id="ellipse192" fill="#ffd260" opacity="0.9990000128746033"/><path d="M1201 886.6v30c172.4-40.3 145.7-201.5 95.8-243.7l-6.2 4.1c92.8 127.3-34 219.3-89.6 209.6Z" transform="translate(-57)" id="path192" fill="#dd954d" stroke="#8d3a14" stroke-miterlimit="15.118119239807129" stroke-width="0.9788982333930534px"/><path d="m1206 890.7.7 9c191.8-53 103.6-214.6 89.6-222.9a130.5 130.5 0 0 1-90.3 214" transform="translate(-57)" id="path193" fill="#f9cea6"/><path d="m1283.4 853.5 11.6 14.7m11.7-13.4-12.8-12m9.2-12 13.1 9.7m8.6-18-12.6-7.4m19.2-15-12.4-2.4m15-16.5-11.4-.3m11.6-17.6-10.6.5m8.7-18.8-10.4 1.2m6.9-17.5-10.3 2.8m6-16.2-10.5 3.3m3.7-18.3-10.3 3.7m3.6-15-10.5 2.7" transform="translate(-57)" id="path194" fill="none" stroke="#8d3a14" stroke-miterlimit="15.118119239807129" stroke-width="1.0015753455706147px"/><path d="M1205.4 738c3-5.5 11.5-4.8 3-25.3l7 12.6-5-22.3 6.2 17-4.4-22.6 6.6 15.7-2.6-18.3 6.7 15.4-4.3-17.2 6.6 11.2-4.5-13 6.2 11-5.6-20.4 8.3 18.8-6.4-23 7.7 17.1-5.5-20.4 9 19.7-5-21.4 7.4 16.8-3.6-16.2 5.7 14.5-2.7-15.7 6 11.7-3.7-18 7.7 14.4-4.8-17.1 8.1 14.5-3.5-15.6 7.5 14.3-1.6-15.2 5.7 11.4.7-12.6 4 11 .8-13.2 4.6 13.7 1.2-10.3 17.5 9-3.4-8.4c-41.9-31.3-88 6.8-77.6 76.4Z" transform="translate(-57)" id="path195" fill="#019042" stroke="#094927" stroke-width="0.26499998569488525px"/><path d="M1205 722.5c-.3-49.3 32.8-80.9 65.9-66-56.3-11.5-61.5 50.5-66 66" transform="translate(-57)" id="path196" fill="#76b949"/><path d="M1278.4 769.3c-1-6.4-2.3-12.8-17.6-26.6l10.7 8.2-14-17.3 14.2 13.6-14-17.6 11.8 10.4-10.8-14.8 11.6 10.3-11.2-13 9.4 6.4-9.2-9.2 9.2 6.7-13.6-15.2 14.2 12.4-15.3-17 13 11.1-13.4-15.3 15.1 12.9-13.7-16.4 12.7 11.2-10.3-12.6 10.6 10-9.5-12.5 9.3 7.3-11.3-14.1 11.7 9-11.4-12.9 12 8.8-10-12 11.5 9-8.7-12.8 9 7.3-6-11.6 7.8 7.8-6.2-12 9.5 9.7-4.6-9.7 14.5-.8-6.2-5.7c-46.7-11-55.1 62.2-.8 107Z" transform="translate(-57)" id="path197" fill="#019042" stroke="#094927" stroke-width="0.26499998569488525px"/><path d="M1261.5 748.3c-30.3-47.1-17.9-81 8.2-84.5-37.3 18.2-21.6 58.2-8.2 84.5" transform="translate(-57)" id="path198" fill="#76b949"/><path d="M1374.4 737c-4.6-5.2-9.1-10.6-10-33.5l-2.3 13.5-3-22.6-.6 17.8-3-20.2v15.6l-4.3-17.8 1 15-3.6-16.4v12.5l-2.4-14.2-1.2 9.6-3-19.3v14.3l-3-18.4.2 14.5-3.4-17.6-.8 13.9-3-15 1.2 14-4.2-12.8.2 8.6-3-9.4-1.1 5-3.3-11.3-1 9.8-2.4-12.2-2.2 10.5-2-10.8-1.4 10.1-3.8-10.2-.8 8.6-4.9-8.9v8.2l-4.8-9.7v9.2l-13.4-3.2c23.9-48.7 90.1-5.4 89.3 72.8Z" transform="translate(-57)" id="path199" fill="#019042" stroke="#094927" stroke-miterlimit="15.118119239807129" stroke-width="1.0015753455706147px"/><path d="M1368.7 708c-18.2-58.6-55.5-70.5-77-49.8 41.9-20.7 64.4 20 77 49.8" transform="translate(-57)" id="path200" fill="#76b949"/><path d="M1373.4 631.6c-5.5.7-11.1 1.3-27-11.6l8.2 10-16.6-11 11.8 11.2-15-9.6 10.6 9.4-14-7 10.6 8.1-12.7-6.7 8.5 7.5-10.7-6.5 6 6.8-14.3-9 9.7 8.4-13.8-8.2 10 8.4-13.5-7.7 9 9-11.4-6.3 10 7.3-10.4-4.2 5.9 5-7.7-3 2.9 3.9-9-4 6.1 6.8-9.2-5.3 6.1 8-8.2-4.6 6.3 7.2-8.6-2.9 5.5 5.8-8.1-1.1 5.5 4.9-8.6-1.8 6.2 5.5-8 9.5c-22.7-49.3 35.3-79.6 88-32.2Z" transform="translate(-57)" id="path201" fill="#019042" stroke="#094927" stroke-width="0.26499998569488525px"/><path d="M1351.3 619c-47.6-19.5-71.7 5-67 35.6 4-47.8 41.4-42.6 67-35.6" transform="translate(-57)" id="path202" fill="#76b949"/><path d="M1283.4 661.9c-5.2-51.3-45-47-67-69.1l17.9 24 15.5 1.7-13.5 1.6 15.9 1.8-10.2 1.7 15.3 2-12.3.4 15.4 3-9.8 1.1 10.3 1.7-7.7 1.2 9.9 2-6.7 2 9.2 2-6.8.8 9.6 2-7.7.4 8.7 2-7.5 2 10.7 1.6-6.4.7Z" transform="translate(-57)" id="path203" fill="#019042" stroke="#094927" stroke-miterlimit="15.118119239807129" stroke-width="1.0015753455706147px"/><path d="M1278.4 646.6c-15.3-35.2-33.8-29.5-46.3-38.8 18.3 10.2 36 21 46.3 38.8" transform="translate(-57)" id="path204" fill="#76b949"/><circle cx="1230.285" cy="661.1464" r="6.0438" style="isolation:isolate" id="circle204" fill="#be7314" stroke="#8d3a14" stroke-miterlimit="1.3968084423877016" stroke-width="0.6802456954576066px" opacity="0.9990000128746033"/><ellipse cx="1229.6556" cy="660.982" rx="4.8076" ry="4.7643" style="isolation:isolate" id="ellipse204" fill="#f49523" opacity="0.9990000128746033"/><ellipse cx="1228.05" cy="659.2757" rx="1.5023" ry="1.4887" style="isolation:isolate" id="ellipse205" fill="#ffd260" opacity="0.9990000128746033"/><circle cx="1237.0303" cy="669.2168" r="6.0438" style="isolation:isolate" id="circle205" fill="#be7314" stroke="#8d3a14" stroke-miterlimit="1.3968084423877016" stroke-width="0.6802456954576066px" opacity="0.9990000128746033"/><ellipse cx="1236.4009" cy="669.0524" rx="4.8076" ry="4.7643" style="isolation:isolate" id="ellipse206" fill="#f49523" opacity="0.9990000128746033"/><ellipse cx="1234.7954" cy="667.3461" rx="1.5023" ry="1.4887" style="isolation:isolate" id="ellipse207" fill="#ffd260" opacity="0.9990000128746033"/><circle cx="1223.66" cy="670.7827" r="6.0438" style="isolation:isolate" id="circle207" fill="#be7314" stroke="#8d3a14" stroke-miterlimit="1.3968084423877016" stroke-width="0.6802456954576066px" opacity="0.9990000128746033"/><ellipse cx="1223.0306" cy="670.6183" rx="4.8076" ry="4.7643" style="isolation:isolate" id="ellipse208" fill="#f49523" opacity="0.9990000128746033"/><ellipse cx="1221.4251" cy="668.912" rx="1.5023" ry="1.4887" style="isolation:isolate" id="ellipse209" fill="#ffd260" opacity="0.9990000128746033"/><circle cx="1230.4054" cy="678.6123" r="6.0438" style="isolation:isolate" id="circle209" fill="#be7314" stroke="#8d3a14" stroke-miterlimit="1.3968084423877016" stroke-width="0.6802456954576066px" opacity="0.9990000128746033"/><ellipse cx="1229.776" cy="678.4479" rx="4.8076" ry="4.7643" style="isolation:isolate" id="ellipse210" fill="#f49523" opacity="0.9990000128746033"/><ellipse cx="1228.1705" cy="676.7415" rx="1.5023" ry="1.4887" style="isolation:isolate" id="ellipse211" fill="#ffd260" opacity="0.9990000128746033"/></g><path d="m1200 765-41.5 11-13-6.4-31 9.2v13.3l21.8 15.3-25 120.3 88.7 20.1 88.7-20-25-120.4 21.8-15.3v-13.3l-31-9.2-13 6.5Z" transform="translate(-57)" id="path211" fill="#bab3d6" stroke="#7769ad" stroke-miterlimit="15.118119239807129" stroke-width="1.9011035737034376px"/><path d="M1158.5 776v161.6m25-161.5v161.5m16.5-166V942m41.5-166v161.6m-25-161.5v161.5" transform="translate(-57)" id="path212" fill="none" stroke="#7769ad" stroke-miterlimit="15.118119239807129" stroke-width="1.9011035737034376px"/><path d="M1291 919h-14.5v16h14.5Z" transform="translate(-57)" style="isolation:isolate" id="path213" fill="#bab3d6" stroke="#7769ad" stroke-miterlimit="15.118119239807129" stroke-width="1.133858988041041px" fill-rule="evenodd" opacity="0.996999979019165"/><path d="M1280.7 921.7h-14.4v15.9h14.4Z" transform="translate(-57)" style="isolation:isolate" id="path214" fill="#bab3d6" stroke="#7769ad" stroke-miterlimit="15.118119239807129" stroke-width="1.133858988041041px" fill-rule="evenodd" opacity="0.996999979019165"/><path d="M1269.8 924.8h-14.4v15.8h14.4Z" transform="translate(-57)" style="isolation:isolate" id="path215" fill="#bab3d6" stroke="#7769ad" stroke-miterlimit="15.118119239807129" stroke-width="1.133858988041041px" fill-rule="evenodd" opacity="0.996999979019165"/><path d="M1258.4 927.6h-14.5v15.9h14.5Z" transform="translate(-57)" style="isolation:isolate" id="path216" fill="#bab3d6" stroke="#7769ad" stroke-miterlimit="15.118119239807129" stroke-width="1.133858988041041px" fill-rule="evenodd" opacity="0.996999979019165"/><path d="M1247.8 929.6h-14.5v15.8h14.5Z" transform="translate(-57)" style="isolation:isolate" id="path217" fill="#bab3d6" stroke="#7769ad" stroke-miterlimit="15.118119239807129" stroke-width="1.133858988041041px" fill-rule="evenodd" opacity="0.996999979019165"/><path d="M1235.5 931.5H1221v15.8h14.5Z" transform="translate(-57)" style="isolation:isolate" id="path218" fill="#bab3d6" stroke="#7769ad" stroke-miterlimit="15.118119239807129" stroke-width="1.133858988041041px" fill-rule="evenodd" opacity="0.996999979019165"/><path d="M1224.4 934.6h-14.5v15.9h14.5ZM1109 919h14.5v16H1109Z" transform="translate(-57)" style="isolation:isolate" id="path219" fill="#bab3d6" stroke="#7769ad" stroke-miterlimit="15.118119239807129" stroke-width="1.133858988041041px" fill-rule="evenodd" opacity="0.996999979019165"/><path d="M1119.3 921.7h14.4v15.9h-14.4Z" transform="translate(-57)" style="isolation:isolate" id="path220" fill="#bab3d6" stroke="#7769ad" stroke-miterlimit="15.118119239807129" stroke-width="1.133858988041041px" fill-rule="evenodd" opacity="0.996999979019165"/><path d="M1130.2 924.8h14.4v15.8h-14.4Z" transform="translate(-57)" style="isolation:isolate" id="path221" fill="#bab3d6" stroke="#7769ad" stroke-miterlimit="15.118119239807129" stroke-width="1.133858988041041px" fill-rule="evenodd" opacity="0.996999979019165"/><path d="M1141.6 927.6h14.5v15.9h-14.5Z" transform="translate(-57)" style="isolation:isolate" id="path222" fill="#bab3d6" stroke="#7769ad" stroke-miterlimit="15.118119239807129" stroke-width="1.133858988041041px" fill-rule="evenodd" opacity="0.996999979019165"/><path d="M1152.2 929.6h14.5v15.8h-14.5Z" transform="translate(-57)" style="isolation:isolate" id="path223" fill="#bab3d6" stroke="#7769ad" stroke-miterlimit="15.118119239807129" stroke-width="1.133858988041041px" fill-rule="evenodd" opacity="0.996999979019165"/><path d="M1164.5 931.5h14.5v15.8h-14.5Z" transform="translate(-57)" style="isolation:isolate" id="path224" fill="#bab3d6" stroke="#7769ad" stroke-miterlimit="15.118119239807129" stroke-width="1.133858988041041px" fill-rule="evenodd" opacity="0.996999979019165"/><path d="M1175.6 934.6h14.5v15.9h-14.5Z" transform="translate(-57)" style="isolation:isolate" id="path225" fill="#bab3d6" stroke="#7769ad" stroke-miterlimit="15.118119239807129" stroke-width="1.133858988041041px" fill-rule="evenodd" opacity="0.996999979019165"/><path d="M1186.8 936.7h13.2v15.5h-13.2Z" transform="translate(-57)" style="isolation:isolate" id="path226" fill="#bab3d6" stroke="#7769ad" stroke-miterlimit="15.118119239807129" stroke-width="1.133858988041041px" fill-rule="evenodd" opacity="0.996999979019165"/><path d="M1200 936.7h13.2v15.5H1200Z" transform="translate(-57)" style="isolation:isolate" id="path227" fill="#bab3d6" stroke="#7769ad" stroke-miterlimit="15.118119239807129" stroke-width="1.133858988041041px" fill-rule="evenodd" opacity="0.996999979019165"/><path d="M1191.6 940.7h16.8v14.2h-16.8Z" transform="translate(-57)" style="isolation:isolate" id="path228" fill="#bab3d6" stroke="#7769ad" stroke-miterlimit="15.118119239807129" stroke-width="1.133858988041041px" fill-rule="evenodd" opacity="0.996999979019165"/><path d="M1116 890.4h31v15.4h-31Z" transform="translate(-57)" style="isolation:isolate" id="path229" fill="#bab3d6" stroke="#7769ad" stroke-miterlimit="15.118119239807129" stroke-width="1.133858988041041px" fill-rule="evenodd" opacity="0.996999979019165"/><path d="M1137.8 893.3h31v15.4h-31Z" transform="translate(-57)" style="isolation:isolate" id="path230" fill="#bab3d6" stroke="#7769ad" stroke-miterlimit="15.118119239807129" stroke-width="1.133858988041041px" fill-rule="evenodd" opacity="0.996999979019165"/><path d="M1160.5 896.4h31v15.4h-31Zm123.5-6h-31v15.4h31Z" transform="translate(-57)" style="isolation:isolate" id="path231" fill="#bab3d6" stroke="#7769ad" stroke-miterlimit="15.118119239807129" stroke-width="1.133858988041041px" fill-rule="evenodd" opacity="0.996999979019165"/><path d="M1262.2 893.3h-31v15.4h31Z" transform="translate(-57)" style="isolation:isolate" id="path232" fill="#bab3d6" stroke="#7769ad" stroke-miterlimit="15.118119239807129" stroke-width="1.133858988041041px" fill-rule="evenodd" opacity="0.996999979019165"/><path d="M1239.5 896.4h-31v15.4h31Z" transform="translate(-57)" style="isolation:isolate" id="path233" fill="#bab3d6" stroke="#7769ad" stroke-miterlimit="15.118119239807129" stroke-width="1.133858988041041px" fill-rule="evenodd" opacity="0.996999979019165"/><path d="M1184.5 898.6h31V914h-31Z" transform="translate(-57)" style="isolation:isolate" id="path234" fill="#bab3d6" stroke="#7769ad" stroke-miterlimit="15.118119239807129" stroke-width="1.133858988041041px" fill-rule="evenodd" opacity="0.996999979019165"/><path d="M1189.2 909.3h21.6v11h-21.6Z" transform="translate(-57)" style="isolation:isolate" id="path235" fill="#bab3d6" stroke="#7769ad" stroke-miterlimit="15.118119239807129" stroke-width="1.133858988041041px" fill-rule="evenodd" opacity="0.996999979019165"/><path d="M1121.6 863.4h20.3V878h-20.3Z" transform="translate(-57)" style="isolation:isolate" id="path236" fill="#bab3d6" stroke="#7769ad" stroke-miterlimit="15.118119239807129" stroke-width="1.133858988041041px" fill-rule="evenodd" opacity="0.996999979019165"/><path d="M1139 861h20.3v14.7H1139Z" transform="translate(-57)" style="isolation:isolate" id="path237" fill="#bab3d6" stroke="#7769ad" stroke-miterlimit="15.118119239807129" stroke-width="1.133858988041041px" fill-rule="evenodd" opacity="0.996999979019165"/><path d="M1156.2 859h20.3v14.6h-20.3Zm-27.2-24.4h21.2V848H1129Z" transform="translate(-57)" style="isolation:isolate" id="path238" fill="#bab3d6" stroke="#7769ad" stroke-miterlimit="15.118119239807129" stroke-width="1.133858988041041px" fill-rule="evenodd" opacity="0.996999979019165"/><path d="M1140.8 832h21.2v13.3h-21.2Z" transform="translate(-57)" style="isolation:isolate" id="path239" fill="#bab3d6" stroke="#7769ad" stroke-miterlimit="15.118119239807129" stroke-width="1.133858988041041px" fill-rule="evenodd" opacity="0.996999979019165"/><path d="M1153.5 829.6h21.2v13.3h-21.2Z" transform="translate(-57)" style="isolation:isolate" id="path240" fill="#bab3d6" stroke="#7769ad" stroke-miterlimit="15.118119239807129" stroke-width="1.133858988041041px" fill-rule="evenodd" opacity="0.996999979019165"/><path d="M1165.2 827h21.2v13.4h-21.2Z" transform="translate(-57)" style="isolation:isolate" id="path241" fill="#bab3d6" stroke="#7769ad" stroke-miterlimit="15.118119239807129" stroke-width="1.133858988041041px" fill-rule="evenodd" opacity="0.996999979019165"/><path d="M1178.5 824.4h21.2v13.4h-21.2Zm92.5 10.2h-21.2V848h21.2Z" transform="translate(-57)" style="isolation:isolate" id="path242" fill="#bab3d6" stroke="#7769ad" stroke-miterlimit="15.118119239807129" stroke-width="1.133858988041041px" fill-rule="evenodd" opacity="0.996999979019165"/><path d="M1259.2 832H1238v13.3h21.2Z" transform="translate(-57)" style="isolation:isolate" id="path243" fill="#bab3d6" stroke="#7769ad" stroke-miterlimit="15.118119239807129" stroke-width="1.133858988041041px" fill-rule="evenodd" opacity="0.996999979019165"/><path d="M1246.5 829.6h-21.2v13.3h21.2Z" transform="translate(-57)" style="isolation:isolate" id="path244" fill="#bab3d6" stroke="#7769ad" stroke-miterlimit="15.118119239807129" stroke-width="1.133858988041041px" fill-rule="evenodd" opacity="0.996999979019165"/><path d="M1234.8 827h-21.2v13.4h21.2Z" transform="translate(-57)" style="isolation:isolate" id="path245" fill="#bab3d6" stroke="#7769ad" stroke-miterlimit="15.118119239807129" stroke-width="1.133858988041041px" fill-rule="evenodd" opacity="0.996999979019165"/><path d="M1221.5 824.4h-21.2v13.4h21.2Z" transform="translate(-57)" style="isolation:isolate" id="path246" fill="#bab3d6" stroke="#7769ad" stroke-miterlimit="15.118119239807129" stroke-width="1.133858988041041px" fill-rule="evenodd" opacity="0.996999979019165"/><path d="M1189.4 820.2h21.2v13.4h-21.2Z" transform="translate(-57)" style="isolation:isolate" id="path247" fill="#bab3d6" stroke="#7769ad" stroke-miterlimit="15.118119239807129" stroke-width="1.133858988041041px" fill-rule="evenodd" opacity="0.996999979019165"/><path d="M1133.5 803.9h19.9v13.4h-19.9Z" transform="translate(-57)" style="isolation:isolate" id="path248" fill="#bab3d6" stroke="#7769ad" stroke-miterlimit="15.118119239807129" stroke-width="1.0998432071359332px" fill-rule="evenodd" opacity="0.996999979019165"/><path d="M1144.6 801.2h19.8v13.4h-19.8Z" transform="translate(-57)" style="isolation:isolate" id="path249" fill="#bab3d6" stroke="#7769ad" stroke-miterlimit="15.118119239807129" stroke-width="1.0998432071359332px" fill-rule="evenodd" opacity="0.996999979019165"/><path d="M1156.4 798.8h19.9v13.4h-19.9Z" transform="translate(-57)" style="isolation:isolate" id="path250" fill="#bab3d6" stroke="#7769ad" stroke-miterlimit="15.118119239807129" stroke-width="1.0998432071359332px" fill-rule="evenodd" opacity="0.996999979019165"/><path d="M1167.4 796.2h19.9v13.4h-19.9Z" transform="translate(-57)" style="isolation:isolate" id="path251" fill="#bab3d6" stroke="#7769ad" stroke-miterlimit="15.118119239807129" stroke-width="1.0998432071359332px" fill-rule="evenodd" opacity="0.996999979019165"/><path d="M1179.9 793.7h19.8V807H1180Zm86.6 10.2h-19.9v13.4h19.9Z" transform="translate(-57)" style="isolation:isolate" id="path252" fill="#bab3d6" stroke="#7769ad" stroke-miterlimit="15.118119239807129" stroke-width="1.0998432071359332px" fill-rule="evenodd" opacity="0.996999979019165"/><path d="M1255.4 801.2h-19.8v13.4h19.8Z" transform="translate(-57)" style="isolation:isolate" id="path253" fill="#bab3d6" stroke="#7769ad" stroke-miterlimit="15.118119239807129" stroke-width="1.0998432071359332px" fill-rule="evenodd" opacity="0.996999979019165"/><path d="M1243.6 798.8h-19.9v13.4h19.9Z" transform="translate(-57)" style="isolation:isolate" id="path254" fill="#bab3d6" stroke="#7769ad" stroke-miterlimit="15.118119239807129" stroke-width="1.0998432071359332px" fill-rule="evenodd" opacity="0.996999979019165"/><path d="M1232.6 796.2h-19.9v13.4h19.9Z" transform="translate(-57)" style="isolation:isolate" id="path255" fill="#bab3d6" stroke="#7769ad" stroke-miterlimit="15.118119239807129" stroke-width="1.0998432071359332px" fill-rule="evenodd" opacity="0.996999979019165"/><path d="M1220.1 793.7h-19.8V807h19.8Z" transform="translate(-57)" style="isolation:isolate" id="path256" fill="#bab3d6" stroke="#7769ad" stroke-miterlimit="15.118119239807129" stroke-width="1.0998432071359332px" fill-rule="evenodd" opacity="0.996999979019165"/><path d="M1190 789.4h20v13.4h-20Z" transform="translate(-57)" style="isolation:isolate" id="path257" fill="#bab3d6" stroke="#7769ad" stroke-miterlimit="15.118119239807129" stroke-width="1.0998432071359332px" fill-rule="evenodd" opacity="0.996999979019165"/><path d="M1108.2 779h20.6v14.5h-20.6Z" transform="translate(-57)" style="isolation:isolate" id="path258" fill="#bab3d6" stroke="#7769ad" stroke-miterlimit="15.118119239807129" stroke-width="1.133858988041041px" fill-rule="evenodd" opacity="0.996999979019165"/><path d="M1122.2 773.7h20.6v14.5h-20.6Z" transform="translate(-57)" style="isolation:isolate" id="path259" fill="#bab3d6" stroke="#7769ad" stroke-miterlimit="15.118119239807129" stroke-width="1.133858988041041px" fill-rule="evenodd" opacity="0.996999979019165"/><path d="M1135.1 769.6h10.3l10.3 5v9.4h-20.6Zm34.7-6.8h19.5v15h-19.5Z" transform="translate(-57)" style="isolation:isolate" id="path260" fill="#bab3d6" stroke="#7769ad" stroke-miterlimit="15.118119239807129" stroke-width="1.133858988041041px" fill-rule="evenodd" opacity="0.996999979019165"/><path d="M1181 758.9h19.5v15h-19.4Zm49.1 3.9h-19.4v15h19.5Z" transform="translate(-57)" style="isolation:isolate" id="path261" fill="#bab3d6" stroke="#7769ad" stroke-miterlimit="15.118119239807129" stroke-width="1.133858988041041px" fill-rule="evenodd" opacity="0.996999979019165"/><path d="M1219 758.9h-19.5v15h19.4Z" transform="translate(-57)" style="isolation:isolate" id="path262" fill="#bab3d6" stroke="#7769ad" stroke-miterlimit="15.118119239807129" stroke-width="1.133858988041041px" fill-rule="evenodd" opacity="0.996999979019165"/><path d="M1188 755.7V771h23.9v-15.3z" transform="translate(-57)" style="isolation:isolate" id="path263" fill="#bab3d6" stroke="#7769ad" stroke-miterlimit="15.118119239807129" stroke-width="0.8957485780246692px" fill-rule="evenodd" opacity="0.996999979019165"/><path d="M1291.8 779h-20.6v14.5h20.6Z" transform="translate(-57)" style="isolation:isolate" id="path264" fill="#bab3d6" stroke="#7769ad" stroke-miterlimit="15.118119239807129" stroke-width="1.133858988041041px" fill-rule="evenodd" opacity="0.996999979019165"/><path d="M1277.8 773.7h-20.6v14.5h20.6Z" transform="translate(-57)" style="isolation:isolate" id="path265" fill="#bab3d6" stroke="#7769ad" stroke-miterlimit="15.118119239807129" stroke-width="1.133858988041041px" fill-rule="evenodd" opacity="0.996999979019165"/><path d="M1264.9 769.6h-10.3l-10.3 5v9.4h20.6Zm13.5 93.8H1258V878h20.3Z" transform="translate(-57)" style="isolation:isolate" id="path266" fill="#bab3d6" stroke="#7769ad" stroke-miterlimit="15.118119239807129" stroke-width="1.133858988041041px" fill-rule="evenodd" opacity="0.996999979019165"/><path d="M1261 861h-20.3v14.7h20.3Z" transform="translate(-57)" style="isolation:isolate" id="path267" fill="#bab3d6" stroke="#7769ad" stroke-miterlimit="15.118119239807129" stroke-width="1.133858988041041px" fill-rule="evenodd" opacity="0.996999979019165"/><path d="M1243.8 859h-20.3v14.6h20.3Z" transform="translate(-57)" style="isolation:isolate" id="path268" fill="#bab3d6" stroke="#7769ad" stroke-miterlimit="15.118119239807129" stroke-width="1.133858988041041px" fill-rule="evenodd" opacity="0.996999979019165"/><ellipse cx="1143" cy="863.7466" rx="31.1951" ry="39.7511" style="isolation:isolate" id="ellipse268" fill="#fff" stroke="#939393" stroke-miterlimit="15.118119239807129" stroke-width="1.9011035737034376px" opacity="0.996999979019165"/><path d="M1200 824c-17.3 0-31.2 17.8-31.2 39.7a49 49 0 0 0 3.5 18.3 28 28 0 0 0 7.9-2.1 30 30 0 0 0 6.3-3.7 55 55 0 0 0 5.5-4.9l5.2-5.4 5.8-5.3a44 44 0 0 1 6.8-4.7 41 41 0 0 1 8.6-3.6 51 51 0 0 1 11-1.8c-4.4-15.9-16.2-26.5-29.4-26.5Z" transform="translate(-57)" style="isolation:isolate" id="path269" fill="#e52521" stroke="#c71617" stroke-miterlimit="15.118119239807129" stroke-width="1.9011035737034376px" fill-rule="evenodd" opacity="0.996999979019165"/><path d="m1126 988.8-3.6 14.3h62.9c4.7-7 9.7-8.4 14.7-10.1-18.5-26.6-48.7 7.7-74-4.2Z" transform="translate(-57)" id="path270" fill="#c0c0bf" stroke="#010101" stroke-miterlimit="15.118119239807129" stroke-width="1.0015753455706147px"/><path d="m1274 988.8 3.6 14.3h-62.9c-4.7-7-9.7-8.4-14.7-10.1 18.5-26.6 48.7 7.7 74-4.2Z" transform="translate(-57)" id="path271" fill="#c0c0bf" stroke="#010101" stroke-miterlimit="15.118119239807129" stroke-width="1.0015753455706147px"/><path d="m1126 988.8 25.5-20.3c16 2.4 31.2-16.5 48.5-1.5v26c-18.5-26.6-48.7 7.7-74-4.2Z" transform="translate(-57)" id="path272" fill="#fff" stroke="#010101" stroke-miterlimit="15.118119239807129" stroke-width="1.0015753455706147px"/><path d="m1274 988.8-25.5-20.3c-16 2.4-31.2-16.5-48.5-1.5v26c18.5-26.6 48.7 7.7 74-4.2Z" transform="translate(-57)" id="path273" fill="#fff" stroke="#010101" stroke-miterlimit="15.118119239807129" stroke-width="1.0015753455706147px"/><path d="M1203.5 981.7c17.2-6.8 33.3 5.7 54.8 4.3m-54.7-10.8c16.9-8.7 28.2 5.8 49 3.6m-49.1-8.7c18-8.2 30 2.4 45 3.6m-52 8c-17.2-6.8-33.3 5.7-54.8 4.3m54.7-10.8c-16.9-8.7-28.3 5.8-49 3.6m49.1-8.7c-18-8.2-30 2.4-45 3.6" transform="translate(-57)" id="path274" fill="none" stroke="#010101" stroke-miterlimit="15.118119239807129" stroke-width="1.0015753455706147px"/><path d="M946 941.6c22.2 34 34.4 71 75.5 99l33-47c-32.1-15-49-49.6-65.4-84.7-3.1 15.6-1.8 32-1.4 48.1Z" transform="translate(-57)" id="path275" fill="#e52521" stroke="#a71916" stroke-width="0.800000011920929px"/><path d="M1007.1 1005.6c-6 8.6 17.7 21 14.4 35l33-47-17.8-33Z" transform="translate(-57)" id="path276" fill="#ae1917" fill-opacity="0.796999990940094" stroke="#a71916" stroke-width="0.800000011920929px"/><path d="M1454 941.6c-22.2 34-34.4 71-75.5 99l-33-47c32.1-15 49-49.5 65.4-84.6 3.1 15.5 1.8 31.9 1.4 48Z" transform="translate(-57)" id="path277" fill="#e52521" stroke="#a71916" stroke-width="0.800000011920929px"/><path d="M1392.9 1005.6c6 8.6-17.7 21.1-14.4 35l-33-47 17.8-33Z" transform="translate(-57)" id="path278" fill="#ae1917" fill-opacity="0.796999990940094" stroke="#a71916" stroke-width="0.800000011920929px"/><path d="M1363.3 960.6c-30 40.7-70.3 71.7-114.2 85.5a167 167 0 0 1-51.8 7.6c-61.9-.9-120.2-37.9-160.6-93l-4.5 6.7-10.4 15.8-14.7 22.4c49 62.6 117.3 104.1 189.6 105.2 74.4 1 145.6-40.8 196.2-105.1l-14.8-22.5z" transform="translate(-57)" style="isolation:isolate" id="path279" fill="#e52521" stroke="#a71916" stroke-width="0.800000011920929px" fill-rule="evenodd" opacity="0.9990000128746033"/><path d="m1015.6 1004.2 21.6-27.5 6.2 6.8a30 30 0 0 1 4.2 5.4 10 10 0 0 1 .6 5.8 14 14 0 0 1-3 6.6 12 12 0 0 1-5 4 7 7 0 0 1-4.6.2q-2-.8-5.5-4.6l-2.5-2.8-8.2 10.4Zm21.8-18.6-6.2 7.8 2.2 2.3a13 13 0 0 0 3.1 2.9 3 3 0 0 0 2.3.1 5 5 0 0 0 2.3-1.7 6 6 0 0 0 1.3-3 5 5 0 0 0-.3-2.5 18 18 0 0 0-2.9-3.8Zm-4 38 19.6-29.5 8.7 8a17 17 0 0 1 4.3 5.3 9 9 0 0 1 .5 4.9 13 13 0 0 1-2.2 5.6 10 10 0 0 1-5.1 4.2 7 7 0 0 1-5.8-1 18 18 0 0 1 .6 4.5 51 51 0 0 1-.8 7l-1.3 8.1-5-4.5 1.3-9.3.7-6.4a5 5 0 0 0-.4-2.3 8 8 0 0 0-1.9-2.3l-.9-.8-8.1 12.4Zm15.5-13.2 3 2.8a20 20 0 0 0 3.8 3 3 3 0 0 0 2 0 5 5 0 0 0 2-1.9 6 6 0 0 0 1-2.7 4 4 0 0 0-.4-2.4 22 22 0 0 0-3.2-3.3l-3.3-3Zm12.9 16a26 26 0 0 1 6.4-8.3 11 11 0 0 1 6.7-2.7 10 10 0 0 1 6.5 2.4 14 14 0 0 1 5.3 10q.7 6.6-3.5 14.4-4.3 8-9.9 10-4.9 2-9.6-1.6a13 13 0 0 1-5.4-9.6q-.7-6.9 3.5-14.7m4.7 3.2q-3 5.4-2.7 9.5a8 8 0 0 0 2.9 6 5 5 0 0 0 5.7.6q3.2-1.5 6.3-7t2.7-9.5a8 8 0 0 0-3-6 5 5 0 0 0-5.8-.6q-3.1 1.4-6.1 7m17.7 34.3 6.2-38.4 5 3-4.8 28.4 16.4-21.4 5 3-22.8 28.5Zm15.7 9 12.6-34.4 4.8 2.5-12.6 34.4Zm9.4 5 10.6-35.4 4.8 2 3 28 7-23.7 4.6 1.9-10.6 35.4-5-2-2.9-27.3-6.9 23.1Zm26-2.2 5 .8q-.6 7.2 4.1 8.6a5 5 0 0 0 4-.4 5 5 0 0 0 2-5.4 4 4 0 0 0-1.1-1.8l-4.2-3.3a17 17 0 0 1-4.3-3.9 11 11 0 0 1-1.6-4.3 14 14 0 0 1 0-5 12 12 0 0 1 2.3-5.1 8 8 0 0 1 4-2.7 10 10 0 0 1 5.2.2 10 10 0 0 1 6.3 5q2 3.5 1 8.9l-5.2-1.2a8 8 0 0 0-.6-4.5 5 5 0 0 0-3-2.1 5 5 0 0 0-3.3.1 3 3 0 0 0-1.6 2.2 4 4 0 0 0 .4 2.8 15 15 0 0 0 4.2 3.6 20 20 0 0 1 5 4.4 10 10 0 0 1 1.8 4.5 16 16 0 0 1-.2 5.9 12 12 0 0 1-4.1 7.3q-3.2 2.5-8.4 1-9.3-2.7-7.8-15.6m22.2 18.6 5.4-37 5.2 1-5.4 37Zm32.8-9.6.3-6.3 11.3.6-.6 15a14 14 0 0 1-5 3.8 13 13 0 0 1-6.3 1.4 11 11 0 0 1-6.8-2.6 15 15 0 0 1-4.4-7 30 30 0 0 1-1.3-10.6 29 29 0 0 1 2.2-10.5 15 15 0 0 1 4.7-6.3 10 10 0 0 1 6.8-1.8 10 10 0 0 1 7.3 3.2q2.7 3 3.3 8.4l-5.2 1.1a9 9 0 0 0-2-4.5 5 5 0 0 0-3.7-1.8 6 6 0 0 0-5.5 2.9q-2.2 3-2.5 9.2-.2 6.8 1.9 10.5a6 6 0 0 0 5.1 3.3 7 7 0 0 0 3.2-.7 10 10 0 0 0 3-2.2l.2-4.7Zm13.4-4a32 32 0 0 1 1-11.3 15 15 0 0 1 4-6.8 11 11 0 0 1 6.3-2.8 10 10 0 0 1 9.4 4.3q3.9 4.7 4.5 14t-2.8 15a11 11 0 0 1-8.5 5.5 10 10 0 0 1-9.2-3.8q-4-5-4.7-14.2m5.4-.8q.4 6.4 2.7 9.5t5.4 2.7q3-.2 4.9-3.6 1.8-3.4 1.4-10t-2.7-9.5a6 6 0 0 0-5.3-2.7 6 6 0 0 0-5 3.6q-1.8 3.4-1.4 10m25 16.1-6-37 11-2.4q4-1 6-.4a7 7 0 0 1 3.5 2.8 13 13 0 0 1 2.1 5.6 13 13 0 0 1-.6 7.4 9 9 0 0 1-4.4 4.5 13 13 0 0 1 3.2 2.4 42 42 0 0 1 4 5.3l4.2 6.5-6.1 1.4-5-7.1-3.7-4.8a4 4 0 0 0-1.8-1.2 6 6 0 0 0-2.6.2l-1.1.2 2.5 15.4Zm1.7-22.5 3.9-.9a18 18 0 0 0 4.4-1.3 3 3 0 0 0 1.3-1.9 7 7 0 0 0 .1-3 6 6 0 0 0-1-2.7 3 3 0 0 0-2-1.2 18 18 0 0 0-4.1.7l-4 1Zm18.5-1a32 32 0 0 1-1.2-11.2 17 17 0 0 1 2.6-7.7 12 12 0 0 1 5.7-4.4 10 10 0 0 1 10 1.7q4.6 3.6 6.9 12.5t.1 15.4a12 12 0 0 1-7.3 7.6 10 10 0 0 1-9.7-1.4q-4.8-3.7-7.1-12.6m5-2.2q1.7 6.2 4.5 8.6a6 6 0 0 0 5.7 1.3q3-1.1 4.1-5 1.1-3.7-.5-10t-4.3-8.6a5 5 0 0 0-5.8-1.2 7 7 0 0 0-4.2 4.8q-1 3.8.6 10m27.6 9.2-12.5-34.6 4.7-2.4 18 18.1-8.2-23 4.4-2.3 12.5 34.5-4.8 2.5-17.8-17.7 8.2 22.6Zm29-15.9-12.4-27.5-6.8 4.3-2.5-5.6 18.2-11.6 2.5 5.6-6.8 4.3 12.5 27.6Zm31.8-22.7-4.8 3.6-5.8-5.7-8.7 6.7 2 8.5-4.6 3.6-8.7-38 4.7-3.7Zm-15-6.3-9.3-9.5 3.4 14Zm17.3 4.1-19.1-29.6 4.1-3.8 16 24.6 10.3-9.4 3.2 5Zm6.1-28.9a28 28 0 0 1-5-9.5 18 18 0 0 1-.5-8.3 14 14 0 0 1 3.6-6.8q4.2-4.5 9.6-3.5 5.5.9 10.8 7.8 5.4 7 5.7 13.8a14 14 0 0 1-4 10.6q-4 4.5-9.1 3.7-5.8-1-11-7.8m3.9-4.5q3.7 4.8 7 5.5a6 6 0 0 0 5.7-1.7 8 8 0 0 0 2-6.5q-.4-4-4.2-8.9-3.7-4.8-7-5.5a6 6 0 0 0-5.5 1.8 8 8 0 0 0-2.1 6.5q.3 4 4 8.8" transform="translate(-57)" id="path280" fill="#fff"/></g><!-- app4joy --></svg>