<svg id="svg2" height="1050" width="1500" y="0.00000000" x="0.00000000" viewBox="0 0 1500 1050" xmlns="http://www.w3.org/2000/svg"><g transform="scale(1 1.05)" id="layer1" fill="#217844" stroke="none"><path id="rect3635" d="M0 0h1500v1000H0Z" fill="#217844" fill-opacity="1" stroke="none"/></g><g id="g6178" transform="matrix(6.09614 0 0 5.97188 446 227.6)"><path d="M16.6 1.3h67l6.1 6.2V47c0 17.8-13.2 32-39.7 47.3C22.7 78.5 10.3 64.1 10.3 47V7.5Z" id="path2421" fill="#01cafe" fill-rule="evenodd" stroke="none"/><path d="M50 75.7q-11.2 0-22 2.1c.5 2.6 0 3.6 2.6 3.1 13.2-2.4 27.6-2.2 40.4.4l.7-3.5A111 111 0 0 0 50 75.7Z" id="path2500" fill="#3388aa" fill-rule="evenodd" stroke="#005588" stroke-width="0.5" stroke-linecap="butt" stroke-linejoin="miter"/><path d="M83 1.9H17.3l-6.4 5.4V51c6 0 8 4.9 11 5.9 10.8 3.3 12.6-1.5 22.3.6-2.9 3.6 2.5 12-2 14.1-.6.3-1.4 1-.7 2-2 .6-4.8 1.6-3.6 2.9 2.4 2.4 6.4 2.5 12 2.5 5.7 0 9.7-.1 12-2.5 1.3-1.3-1.6-2.3-3.5-3 .7-.9-.1-1.6-.8-1.9-4.5-2.2 1-10.5-2-14.1 9.7-2 11.6 2.7 22.3-.6 3.1-1 4.8-6 11.1-6V7.4Z" id="path2478" fill="#ffff00" fill-rule="evenodd" stroke="#000000" stroke-width="0.5" stroke-linecap="butt" stroke-linejoin="miter"/><path d="M49.8 4.1c-1.3 4.8-21.4 7.4-8.3 20.5h16.7c13.9-14-7.1-15.7-8.4-20.5Z" id="path2420" fill="#ffffff" fill-rule="evenodd" stroke="#000000" stroke-width="0.5" stroke-linecap="butt" stroke-linejoin="miter"/><path d="M35.8 24.6h30c3.3 0 3.5 8 0 8h-30c-3.8 0-3.7-8 0-8z" id="path2422" fill="#ffffff" fill-rule="evenodd" stroke="#000000" stroke-width="0.5" stroke-linecap="butt" stroke-linejoin="miter"/><path d="M29.8 32.4h41.9c3.3 0 3.4 8 0 8H29.8c-3.7 0-3.6-8 0-8z" id="path2424" fill="#ffffff" fill-rule="evenodd" stroke="#000000" stroke-width="0.445848px" stroke-linecap="butt" stroke-linejoin="miter"/><path d="M33.5 40.2v-3.6h3.1v3.6m2.3 0v-3.6h3v3.6m2.3 0v-3.6h3.1v3.6m5 0v-3.6h3v3.6m2.3 0v-3.6h3.1v3.6m2.2 0v-3.6h3.2v3.6" id="path2426" fill="none" stroke="#000000" stroke-width="0.5" stroke-linecap="butt" stroke-linejoin="miter"/><path id="rect2446" d="M22.7 41.1h10.9v2.4H22.7Z" fill="#01cafe" stroke="#000000" stroke-width="0.5"/><path id="rect2448" d="M34.6 41.1h10.9v2.4H34.6Z" fill="#01cafe" stroke="#000000" stroke-width="0.5"/><path id="rect2450" d="M46.6 41.1h7.2v2.4h-7.2z" fill="#01cafe" stroke="#000000" stroke-width="0.5"/><path id="rect2452" d="M54.8 41.1h10.9v2.4H54.8Z" fill="#01cafe" stroke="#000000" stroke-width="0.5"/><path id="rect2454" d="M66.7 41.1h10.9v2.4H66.7Z" fill="#01cafe" stroke="#000000" stroke-width="0.5"/><path id="rect2456" d="M24.3 44.2h10.1v3.2H24.3Z" fill="#01cafe" stroke="#000000" stroke-width="0.5"/><path id="rect2458" d="M35.3 44.2h8.5v3.2h-8.5z" fill="#01cafe" stroke="#000000" stroke-width="0.5"/><path id="rect2460" d="M44.7 44.2H55v3.2H44.7Z" fill="#01cafe" stroke="#000000" stroke-width="0.5"/><path id="rect2464" d="M65.3 44.2h10.1v3.2H65.3Z" fill="#01cafe" stroke="#000000" stroke-width="0.5"/><path id="rect2466" d="M12 44.2h11.4v3.2H12Z" fill="#01cafe" stroke="#000000" stroke-width="0.5"/><path id="rect2468" d="M76.3 44.2h11.6v3.2H76.3Z" fill="#01cafe" stroke="#000000" stroke-width="0.5"/><path id="rect2470" d="M55.9 44.2h8.5v3.2h-8.5z" fill="#01cafe" stroke="#000000" stroke-width="0.5"/><path d="M50 80.2q-9.2 0-18 1.7c.4 2.9.6 2.8 3.2 2.3a90 90 0 0 1 31.8.5l.6-2.8A92 92 0 0 0 50 80.2Z" id="path3278" fill="#3388aa" fill-rule="evenodd" stroke="#005588" stroke-width="0.5" stroke-linecap="butt" stroke-linejoin="miter"/><path d="M49.9 84.6q-6.5 0-12.9 1.2l.4 2c8-1.6 17-1.5 24.8 0l.4-2q-6.1-1.2-12.7-1.2Z" id="path3280" fill="#3388aa" fill-rule="evenodd" stroke="#005588" stroke-width="0.5" stroke-linecap="butt" stroke-linejoin="miter"/><path d="m45.5 90.4 4.5 3 4.6-3c-3-1-6-1-9.1 0z" id="path3282" fill="#3388aa" fill-rule="evenodd" stroke="#005588" stroke-width="0.5" stroke-linecap="butt" stroke-linejoin="miter"/><path d="M11.3 48h77.3v1.4c-5.2 0-9.5 1-12.7 4l-2.5-3.3-3.2 3.4-2.7-3.4-3.2 3.4-3.2-3.4-3.2 3.4-3.2-3.4-4.6 3.4-4.5-3.4-3.2 3.4-3.2-3.4-3.2 3.4-3.2-3.4-2.7 3.4L27 50l-2 3.4c-3.3-3.3-8.1-4.3-13.6-4.3Z" id="path2388" fill="#ff0000" fill-rule="evenodd" stroke="none"/><g transform="translate(-5.3 -6.2)scale(.44585)" id="g2488"><path d="M136.5 164.7a13 13 0 1 1-26 0 13 13 0 1 1 26 0z" transform="translate(-7.4 -1.7)" id="path2416" fill="#808000" stroke="#000000" stroke-width="1.12146"/><path d="M136.5 164.7a13 13 0 1 1-26 0 13 13 0 1 1 26 0z" transform="translate(8.6 -1.7)" id="path2418" fill="#808000" stroke="#000000" stroke-width="1.12146"/><path d="M139 164.7a15.6 15.6 0 1 1-31 0 15.6 15.6 0 1 1 31 0z" transform="translate(.6 -1.7)" id="path2414" fill="#808000" stroke="#000000" stroke-width="1.12146"/><path d="M134 164.7a10.5 10.5 0 1 1-21 0 10.5 10.5 0 1 1 21 0" transform="translate(.6 -1.7)" id="path2412" fill="#ffff00" stroke="none"/><path d="M129.5 164.4a4.6 4.6 0 1 1-9.2 0 4.6 4.6 0 1 1 9.2 0" transform="translate(-.8 -1.4)" id="path2410" fill="#ff0000" stroke="none"/></g><path d="M41.4 73.7a16 16 0 0 0 17 0m-15.6-2.4c4.8 3 9.7 3.4 14 0" id="path2495" fill="none" stroke="#000000" stroke-width="0.5" stroke-linecap="butt" stroke-linejoin="miter"/><g transform="translate(-6 -6.2)scale(.44585)" id="g3334" fill="#ffff00" fill-rule="evenodd" stroke="#000000" stroke-linecap="butt" stroke-linejoin="miter"><path d="M237 194.4c-8.5 6-18.2 9.5-28.3 11.9 0-8-2.8-9.2-8.1-9.1v-8.4c0-3.3-12.3 1.5-12.3-1.5 0-5.7 29.2 4.4 42.8-9.6a29 29 0 0 1-11 15.9c9.4 2.7 11.7.9 17 .8z" id="path3284" stroke-width="1.12146"/><path d="M200.6 188.8c0-3.3-12.3 1.5-12.3-1.5v17.2c0 1.7-.1 4.2 5.1 2.8v-11.1c0-2.7 7.2-4 7.2-7.4z" id="path3290" stroke-width="1px"/><path d="M200.6 197.2v-8.4c0 3.4-7 4.7-7 7 0 2.4 3.5 1.4 7 1.4z" id="path3296" stroke-width="1.12146"/><path d="M193.4 195.9c0 2.2 3.5 1.3 7.2 1.3 3.6 0 3.9 10.2 0 11.5-1.8 2-7.2 1-7.2-1.3z" id="path3298" stroke-width="1.12146"/><path d="M13.8 194.4c8.5 6 18.2 9.5 28.3 11.9 0-8 2.8-9.2 8.1-9.1v-8.4c0-3.3 12.3 1.5 12.3-1.5 0-5.7-29.1 4.4-42.8-9.6a29 29 0 0 0 11.1 15.9c-9.5 2.7-11.8.9-17 .8z" id="path3313" stroke-width="1.12146"/><path d="M50.2 188.8c0-3.3 12.3 1.5 12.3-1.5v17.2c0 1.7.2 4.2-5.1 2.8v-11.1c0-2.7-7.2-4-7.2-7.4z" id="path3315" stroke-width="1.12146"/><path d="M50.2 197.2v-8.4c0 3.4 7 4.7 7 7 0 2.4-3.4 1.4-7 1.4z" id="path3317" stroke-width="1px"/><path d="M125.4 246.7c-18.8 0-45.3-3.3-79.3-22.3-5-2.7-4-8.6-4-18.1 0-8 2.8-9.2 8.1-9.1-16 16 52.5 32.5 75.2 32.5s91.1-16.6 75.2-32.5c5.3-.1 8.1 1 8.1 9 0 9.6 1 15.5-4 18.2a157 157 0 0 1-79.3 22.3z" id="path3286" stroke-width="1.12146"/><path d="M57.4 195.9c0 2.2-3.5 1.3-7.2 1.3-3.6 0-3.9 10.2 0 11.5 1.8 2 7.2 1 7.2-1.3z" id="path3321" stroke-width="1.12146"/></g><path d="m15.9 91 .3.2v.8l.4.3.4.2h.3l.3-.3V92l-.1-.3-.4-.5-.5-.4-.1-.5.1-.4.3-.3h.5l.5.1.5.4.2.5-.1.6-.4-.2v-.5q0-.3-.3-.4l-.5-.2a.4.4 0 0 0-.4.5l.4.5.5.6.2.5v.4l-.4.4H17l-.5-.1-.6-.5-.2-.6zm2 2.5 1.5-2.9 2 1.1-.2.3-1.6-.8-.5.8 1.5.9-.1.3-1.5-.8-.5 1 1.7.8-.2.4zm2.6 1.3 1.3-2.9 1 .6.4.2q.3 0 .3.3l.1.4v.4l-.6.5q-.3.1-.9-.1l-.7-.4-.5 1.2Zm1-1.3.8.3q.3.3.5.2t.3-.4l.1-.3-.2-.3-.3-.2-.7-.3Zm4.6.4.4.2-.7 1.7-.4.7-.5.2h-.7l-.6-.5-.2-.6.2-.8.7-1.7.3.2L24 95l-.2.6.1.4.4.3h.7q.2 0 .4-.7zm2.2 3.1.4.3q-.3.4-.7.6h-.8l-.7-.6q-.3-.3-.3-.7a2 2 0 0 1 .6-1.6l.7-.4.7.1.7.5.2.8h-.4q0-.4-.2-.6 0-.3-.4-.3h-.6l-.5.2-.3.6v.7l.1.5.4.4h.7q.2 0 .4-.5m3.4-1h.3l-.5 1.8q0 .5-.3.7l-.5.4H30l-.6-.5-.3-.5.1-.8.5-1.8.4.2-.5 1.7v1l.5.2h.6q.3 0 .4-.7zm0 3.3.8-3h.4l-.3 1.6 1.8-1.2.5.2-1.5.9.8 2.2-.5-.2L33 98l-.6.3-.2 1.1zm4 0 .3.1v.5l.4.2h.2q.2 0 .2-.2l.1-.3.4-2.2h.4l-.4 2.2q0 .5-.2.6l-.3.3h-.5q-.4 0-.6-.4zm1.8 1.4 1.6-3 .4.1.8 3.4-.5-.1-.2-1-1.2-.2-.5.9zm1-1.2 1 .2-.1-1-.1-.6-.3.6zm2.1 1.7.3-3.2h.6l.5 2.4.1.5.2-.5 1-2.1h.5l-.3 3.2h-.4l.3-2.7-1.2 2.6H42l-.6-2.9-.3 2.7zm3.5.4.2-3.2h1.2l.5.2.3.3.1.4-.4.7.4.3v.9l-.3.3-.3.1H44m.5-1.9h1.3l.1-.3V99l-.2-.2h-.5l-.6-.1zm0 1.5h1.2l.2-.2v-.6l-.2-.2h-1.2zm2.5.5v-3.2h.4v3.2zm2.1-1h.4l.1.4.3.2.5.1h.4l.3-.3v-.5l-.3-.2-.6-.1-.6-.2-.3-.3-.1-.4a1 1 0 0 1 .5-.8l.5-.1h.6l.5.4.1.5H51l-.2-.4-.5-.1-.6.1-.1.4.1.2.6.2.7.2.4.4.1.4-.1.5q0 .2-.4.3l-.6.2-.7-.1-.4-.4zm3 1-.2-3.2 2.2-.2v.4l-1.8.1.1 1 1.7-.1v.4h-1.7v1.2l2-.2v.4zm2.8-.2-.3-3.2h.6l1 2q0 .4.2.5v-.5L57 98h.6l.3 3.1h-.4l-.2-2.6-.6 2.8h-.4l-1.2-2.6.3 2.7zm3.6-.5-.5-3 1.1-.2h.6l.3.2.2.4-.3.8q.3 0 .5.2l.2.4-.2.8-.3.2-.5.1zm0-1.9h.7l.4-.2q.2 0 .2-.2v-.5l-.3-.1h-1.1zm.3 1.5.8-.1h.2l.2-.2.2-.2v-.3l-.1-.3-.3-.1h-.5l-.7.1zm2.6 0-.6-3.2h.4l.6 3zm1-.3-.6-3.1.4-.1.6 2.7 1.4-.3.1.4zm2-.4.4-3.4.4-.2 2 2.8-.4.1-.6-.8-1.2.3-.1 1zm.6-1.5 1-.3-.5-.8-.4-.6v.7zm2.5.6-.9-3 .4-.2 2.3 2-.7-2.4.3-.2 1 3.1-.5.1-2.2-1.9.7 2.4zm4-1.3-1-3 .4-.2 1 2.7 1.3-.5.2.3zm3-4.6.4-.2.7 1.8.2.7-.2.6-.6.4-.7.2-.6-.3-.3-.7-.7-1.7.4-.2.6 1.7.3.6.4.2.4-.1q.5-.2.5-.5v-.8zm2.2 2.5-1.3-2.9 1.3-.6.6-.1h.4l.3.5v.6q0 .3-.4.5h.3l.4.3.8.6-.4.2-.6-.4-.5-.3-.3-.1H77l-.4.3.6 1.3zm-.3-1.8.8-.3.3-.3.2-.2v-.3q-.1-.3-.4-.3H77l-.8.5zm2.8.7L79 91l.4-.2 2.5 2.3-.5.2-.7-.7-1.1.6v1zm.2-1.6 1-.5-.7-.6-.5-.5.1.6zm2.7.1-1.5-2.8.4-.2.6 1.1 1.4-.7-.6-1.2.3-.2 1.5 2.8-.4.2-.7-1.3-1.4.8.7 1.3z" id="text3345" fill="#000000" stroke="none"/><path d="M16.6 1.3h67l6.1 6.2V47c0 17.8-13.2 32-39.7 47.3C22.7 78.5 10.3 64.1 10.3 47V7.5Z" id="path2384" fill="none" stroke="#808000" stroke-width="2.5" stroke-linecap="butt" stroke-linejoin="miter"/><g transform="translate(96.9 -4.7)scale(.44585)" id="keris" fill-rule="evenodd"><path d="M-106.4 91.9q.5 8.2-1.8 16.2c-3.1 11.7 3.3 21.3-6.3 34.8h20.6c-8-10.8-6.5-25-7.4-37.6a27 27 0 0 0-5-13.4z" id="path2423" fill="#01cafe" stroke="#000000" stroke-width="1.12146" stroke-linecap="butt" stroke-linejoin="miter"/><path d="M-109.5 140.6c3.4-7.3 4-15.4 5-23.3.7 8.5.7 13.4 5.5 23.3h-3.2l-2.4-7.8-2.5 7.8z" id="path2425" fill="#000000" stroke="none"/><path d="M-106.6 142.9v10c0 3.3-2.6 1.6-2.6 3.7 0 6.6 7.7 6.6 7.7 0V143Z" id="path2431" fill="#ee9900" stroke="#000000" stroke-width="1.12146" stroke-linecap="butt" stroke-linejoin="miter"/></g></g><!-- app4joy --></svg>