<svg viewBox="0 0 2286 1600" id="svg236" width="2286" height="1600" xmlns:xlink="http://www.w3.org/1999/xlink" xmlns="http://www.w3.org/2000/svg"><defs id="defs2"><linearGradient id="a" x1="1344.3804" y1="683.7647" x2="1283.9013" y2="683.7647" gradientTransform="matrix(1 0 0 -1 0 1602)" gradientUnits="userSpaceOnUse"><stop offset="0" stop-color="#fff" id="stop1"/><stop offset="1" stop-color="#cac9c9" id="stop2"/></linearGradient><linearGradient id="b" x1="1055.592" y1="683.5373" x2="1116.0712" y2="683.5373" xlink:href="#a"/></defs><g id="g237"><path id="rect2" d="M0 0h2286v1600H0z" fill="#0d9542"/></g><g id="g236"><path d="M1200 320.5c-224.2-1.2-354.4 85.1-420.8 126.7-51.5 463.5 175.7 715.5 420.8 832.4 245.1-117 472.3-368.9 420.8-832.4-66.4-41.6-196.6-127.9-420.8-126.7Z" transform="translate(-57)" id="path2" fill="#cec969" stroke="#b9b33d"/><path d="M1199.9 350.7c-205-1-322.6 70.9-391.7 114.3-43.3 434.7 163 666.7 391.8 780.6 228.7-113.9 435-345.9 391.8-780.6-69.1-43.5-186.7-115.4-391.7-114.3z" transform="translate(-57)" id="path3" fill="#24a849" stroke="#b9b33d"/><path d="M1200 434.5c168.7 0 305.2 136.5 305.2 305.2s-136.5 305.2-305.2 305.2-305.2-136.5-305.2-305.2 136.5-305.2 305.2-305.2" transform="translate(-57)" style="isolation:isolate" id="path4" fill="#da271e" fill-rule="evenodd" opacity="0.9990000128746033"/><path d="M1200 412.5c-180.6 0-327.2 146.6-327.2 327.2s146.6 327.2 327.2 327.2 327.2-146.6 327.2-327.2-146.6-327.2-327.2-327.2Zm0 22c168.7 0 305.2 136.5 305.2 305.2s-136.5 305.2-305.2 305.2-305.2-136.5-305.2-305.2 136.5-305.2 305.2-305.2Z" transform="translate(-57)" style="isolation:isolate" id="path5" fill="#cec969" stroke="#b9b33d" stroke-miterlimit="4.134523868560791" stroke-width="1.0336309671401978px" fill-rule="evenodd" opacity="0.9990000128746033"/><path d="M1200 420a319.7 319.7 0 1 0 .1 639.4 319.7 319.7 0 0 0-.1-639.3m0 7a312.7 312.7 0 1 1 0 625.4 312.7 312.7 0 0 1 0-625.5" transform="translate(-57)" style="isolation:isolate" id="path6" fill="#e3e0a9" fill-rule="evenodd" opacity="0.9990000128746033"/><path d="M989.9 829.9c40.2-24.7 69.2 18.6 101 27.9-30.9-7.7-40.2 31.2-101-28Z" transform="translate(-57)" id="path7" fill="#f7e926" stroke="#c3bb00" stroke-width="0.5px"/><path d="M1008 832.7a231 231 0 0 0 83 25.1" transform="translate(-57)" id="path8" fill="none" stroke="#c3bb00" stroke-width="0.20000000298023224px"/><path d="M997 830.3c31.9-11.2 49.6 11.7 72.5 22.2-23.5-8-45.4-17-72.5-22.2" transform="translate(-57)" id="path9" fill="#f8ed74"/><path d="M1026.1 829a73 73 0 0 0 28.1 21.9" transform="translate(-57)" id="path10" fill="none" stroke="#c3bb00" stroke-width="0.20000000298023224px"/><path d="M1023.5 849c17.6 3.5 20 1.3 27 .8" transform="translate(-57)" id="path11" fill="none" stroke="#c3bb00" stroke-width="0.20000000298023224px"/><path d="M1070 761c40.7 24 16.1 69.9 22.9 102.4-7.7-31-46.5-20.8-23-102.3Z" transform="translate(-57)" id="path12" fill="#f7e926" stroke="#c3bb00" stroke-width="0.5000000083846318px"/><path d="M1076 778.3a229 229 0 0 0 17 85.1" transform="translate(-57)" id="path13" fill="none" stroke="#c3bb00" stroke-width="0.200000006334085px"/><path d="M1073 767.6c24.8 22.8 13 49.2 14.5 74.3-4-24.4-6.4-48-14.6-74.3" transform="translate(-57)" id="path14" fill="#f8ed74"/><path d="M1087.7 792.7a73 73 0 0 0-6 35" transform="translate(-57)" id="path15" fill="none" stroke="#c3bb00" stroke-width="0.200000006334085px"/><path d="M1069 799.8c5.1 17.1 8.2 18.2 12 24.2" transform="translate(-57)" id="path16" fill="none" stroke="#c3bb00" stroke-width="0.200000006334085px"/><path d="M956.5 779.8c43.7-17.8 65.3 29.5 95.3 43.9-29.3-12.7-44.8 24.3-95.3-43.9Z" transform="translate(-57)" id="path17" fill="#f7e926" stroke="#c3bb00" stroke-width="0.5000000042961581px"/><path d="M973.9 785.5c32.2 23.1 55.8 32 77.9 38.2" transform="translate(-57)" id="path18" fill="none" stroke="#c3bb00" stroke-width="0.2000000046986955px"/><path d="M963.5 781.4c33.3-5.9 47 19.5 68 33.5-22-11.5-42-24-68-33.5" transform="translate(-57)" id="path19" fill="#f8ed74"/><path d="M992.4 784.9a73 73 0 0 0 24.3 26" transform="translate(-57)" id="path20" fill="none" stroke="#c3bb00" stroke-width="0.2000000046986955px"/><path d="M986.7 804.1c16.8 6.3 19.4 4.5 26.5 5.2" transform="translate(-57)" id="path21" fill="none" stroke="#c3bb00" stroke-width="0.2000000046986955px"/><path d="M1036.7 683.5c30.7 36-9.9 69.6-15.3 101.7 3.9-31-37.5-35.1 15.3-101.7Z" transform="translate(-57)" id="path22" fill="#f7e926" stroke="#c3bb00" stroke-width="0.5px"/><path d="M1036.2 701.4a215 215 0 0 0-14.8 83.8" transform="translate(-57)" id="path23" fill="none" stroke="#c3bb00" stroke-width="0.20000000298023224px"/><path d="M1037.2 690.5c15.8 29.6-5.4 49.7-13.1 73.2 5-23.8 11.3-46.2 13-73.2" transform="translate(-57)" id="path24" fill="#f8ed74"/><path d="M1042.3 718.6a71 71 0 0 0-18.6 30" transform="translate(-57)" id="path25" fill="none" stroke="#c3bb00" stroke-width="0.20000000298023224px"/><path d="M1021.5 718.6c-1.2 17.5 1.3 19.6 2.8 26.4" transform="translate(-57)" id="path26" fill="none" stroke="#c3bb00" stroke-width="0.20000000298023224px"/><path d="M1054.8 722c32.8 35.6-3.2 71.4-5.5 104.4.9-31.9-39.2-34.5 5.5-104.4Z" transform="translate(-57)" id="path27" fill="#f7e926" stroke="#c3bb00" stroke-width="0.5px"/><path d="M1056 740.3c-9.6 38-9 63.2-6.7 86" transform="translate(-57)" id="path28" fill="none" stroke="#c3bb00" stroke-width="0.20000000298023224px"/><path d="M1055.9 729.2c17.8 29.5-.7 50.8-6 75 2.6-24.3 6.7-47.4 6-75" transform="translate(-57)" id="path29" fill="#f8ed74"/><path d="M1063.4 757.6a69 69 0 0 0-15.2 31.4" transform="translate(-57)" id="path30" fill="none" stroke="#c3bb00" stroke-width="0.20000000298023224px"/><path d="M1043.4 758.4c.4 18 3 19.9 5 26.8" transform="translate(-57)" id="path31" fill="none" stroke="#c3bb00" stroke-width="0.20000000298023224px"/><path d="M937.2 732.2c42.2-16.1 55.6 29.7 83.5 45.3-27.3-13.8-38 24.9-83.5-45.3Z" transform="translate(-57)" id="path32" fill="#f7e926" stroke="#c3bb00" stroke-width="0.5px"/><path d="M953.5 738.5c29.7 24.4 46.3 31.7 67 38.8" transform="translate(-57)" id="path33" fill="none" stroke="#c3bb00" stroke-width="0.20000000298023224px"/><path d="M943.8 734c31.8-4.5 44 21.4 63.3 36.3-20.4-12.4-39-25.7-63.3-36.2" transform="translate(-57)" id="path34" fill="#f8ed74"/><path d="M971.1 738.7a72 72 0 0 0 22 27" transform="translate(-57)" id="path35" fill="none" stroke="#c3bb00" stroke-width="0.20000000298023224px"/><path d="M965 757.7c15.7 7 18.3 5.2 25 6.2" transform="translate(-57)" id="path36" fill="none" stroke="#c3bb00" stroke-width="0.20000000298023224px"/><path d="M942.7 664c46 5.4 31 56.4 55.6 78.6-14.2-11-56.1 5.3-55.6-78.7Z" transform="translate(-57)" id="path37" fill="#f7e926" stroke="#c3bb00" stroke-width="0.5px"/><path d="M953.3 677.2c12 35.8 26.2 46.8 40.2 62.9" transform="translate(-57)" id="path38" fill="none" stroke="#c3bb00" stroke-width="0.20000000298023224px"/><path d="M947.4 668.7c30.4 10.8 26.2 39.7 34.5 62-10.6-20.6-19.4-41.2-34.5-62" transform="translate(-57)" id="path39" fill="#f8ed74"/><path d="M968.6 685.6c-2.3 12.7 2.7 24.5 5.9 32.9m-22.2-18.8c9.8 13.6 14.6 11.7 19.9 15.7" transform="translate(-57)" id="path40" fill="none" stroke="#c3bb00" stroke-width="0.20000000298023224px"/><path d="M1030.5 655.6c7.2 46.8-24.2 60-36.5 88 11-27.5-12.4-47.8 36.5-88Z" transform="translate(-57)" id="path41" fill="#f7e926" stroke="#c3bb00" stroke-width="0.5px"/><path d="M1025.2 672.2c-18.2 28.8-23.9 49.8-30.1 71" transform="translate(-57)" id="path42" fill="none" stroke="#c3bb00" stroke-width="0.20000000298023224px"/><path d="M1028.8 662.4c.5 34.4-17.2 44.4-28.4 63.2 9.7-20.3 19.7-38.6 28.4-63.2" transform="translate(-57)" id="path43" fill="#f8ed74"/><path d="M1023.7 691c-8 3.9-15 13.1-19.2 20.3" transform="translate(-57)" id="path44" fill="none" stroke="#c3bb00" stroke-width="0.20000000298023224px"/><path d="M1011.9 682.2c-5.7 15.9-4.9 18.9-6 25.9" transform="translate(-57)" id="path45" fill="none" stroke="#c3bb00" stroke-width="0.20000000298023224px"/><path d="M1049.4 614.8c-16 52.8-46.8 48.1-68.6 69.3 20.2-21.7 9.6-65 68.6-69.3Z" transform="translate(-57)" id="path46" fill="#f7e926" stroke="#c3bb00" stroke-width="0.5px"/><path d="M1037.1 628.2a268 268 0 0 0-56.3 56" transform="translate(-57)" id="path47" fill="none" stroke="#c3bb00" stroke-width="0.20000000298023224px"/><path d="M1044 620.3c-11.9 32.3-32 35.2-49.2 48.7 16.3-15.4 32.2-28.9 49.2-48.7" transform="translate(-57)" id="path48" fill="#f8ed74"/><path d="M1029 645.1c-8.8.8-18.8 7-25.3 12" transform="translate(-57)" id="path49" fill="none" stroke="#c3bb00" stroke-width="0.20000000298023224px"/><path d="M1021.1 632.7c-11 12.8-11.3 15.9-14.9 22" transform="translate(-57)" id="path50" fill="none" stroke="#c3bb00" stroke-width="0.20000000298023224px"/><path d="M963.5 594.9c47 27.7 14.8 73.4 20.8 107.6-7.3-32.6-54.1-25-20.8-107.6Z" transform="translate(-57)" id="path51" fill="#f7e926" stroke="#c3bb00" stroke-width="0.5px"/><path d="M969.6 613.2c-1.2 41 6 66.6 14.7 89.3" transform="translate(-57)" id="path52" fill="none" stroke="#c3bb00" stroke-width="0.20000000298023224px"/><path d="M966.6 601.9c28.2 25.4 12.5 51.9 12.6 78-3.3-25.6-4.6-50.1-12.6-78" transform="translate(-57)" id="path53" fill="#f8ed74"/><path d="M982.6 628.9a67 67 0 0 0-9.4 35.9" transform="translate(-57)" id="path54" fill="none" stroke="#c3bb00" stroke-width="0.20000000298023224px"/><path d="M959.8 634.9c5 18.1 8.7 19.4 12.7 26" transform="translate(-57)" id="path55" fill="none" stroke="#c3bb00" stroke-width="0.20000000298023224px"/><path d="M1067.4 577.5c-20 42.9-55.1 36.8-80.8 53.2 24.5-16.8 17.8-46.9 80.8-53.2Z" transform="translate(-57)" id="path56" fill="#f7e926" stroke="#c3bb00" stroke-width="0.5px"/><path d="M1055.9 584.8a268 268 0 0 0-67.2 42.4" transform="translate(-57)" id="path57" fill="none" stroke="#c3bb00" stroke-width="0.20000000298023224px"/><path d="M1064.3 578.6c-18.6 29-38.9 27.4-58.6 36.9 19.2-11.5 37.7-21.3 58.6-36.9" transform="translate(-57)" id="path58" fill="#f8ed74"/><path d="M1044.2 599.6a54 54 0 0 0-27.2 6.3" transform="translate(-57)" id="path59" fill="none" stroke="#c3bb00" stroke-width="0.20000000298023224px"/><path d="M1039.3 585.7c-13.6 10-14.5 13-19.3 18.2" transform="translate(-57)" id="path60" fill="none" stroke="#c3bb00" stroke-width="0.20000000298023224px"/><path d="M1007.6 532.1c27 42.3-13.5 73.7-20.5 107.6 5.5-33-33.5-42.2 20.5-107.6Z" transform="translate(-57)" id="path61" fill="#f7e926" stroke="#c3bb00" stroke-width="0.5px"/><path d="M1006.1 551.3a252 252 0 0 0-19 88.4" transform="translate(-57)" id="path62" fill="none" stroke="#c3bb00" stroke-width="0.20000000298023224px"/><path d="M1007.7 539.7c13.2 33.6-8 52.8-16.8 77.1 6.1-25 13.5-48.3 16.8-77" transform="translate(-57)" id="path63" fill="#f8ed74"/><path d="M1010.9 570.5a72 72 0 0 0-19.5 30.2" transform="translate(-57)" id="path64" fill="none" stroke="#c3bb00" stroke-width="0.20000000298023224px"/><path d="M991.1 568c-2.2 18.8.1 21.2 1 28.7" transform="translate(-57)" id="path65" fill="none" stroke="#c3bb00" stroke-width="0.20000000298023224px"/><path d="M1062 484.6c15.8 41.6-27.7 59.8-41.3 87.2 12-26.9-21.6-43 41.4-87.2Z" transform="translate(-57)" id="path66" fill="#f7e926" stroke="#c3bb00" stroke-width="0.5px"/><path d="M1056.7 500.6c-21.6 29-30 50.8-36 71.2" transform="translate(-57)" id="path67" fill="none" stroke="#c3bb00" stroke-width="0.20000000298023224px"/><path d="M1060.5 491c5 31.4-18.4 43.2-31.5 62.1 10.8-20 22.5-38.2 31.5-62" transform="translate(-57)" id="path68" fill="#f8ed74"/><path d="M1057 518a64 64 0 0 0-24.1 21.5" transform="translate(-57)" id="path69" fill="none" stroke="#c3bb00" stroke-width="0.20000000298023224px"/><path d="M1039.5 511.7c-6 15.5-4.4 18-5.1 24.6" transform="translate(-57)" id="path70" fill="none" stroke="#c3bb00" stroke-width="0.20000000298023224px"/><path d="M1106.6 537.6c-27.5 42.4-60.9 28.7-89 41.4 27-13.3 26-47.2 89-41.4Z" transform="translate(-57)" id="path71" fill="#f7e926" stroke="#c3bb00" stroke-width="0.5px"/><path d="M1094 543.2c-33 8.8-54.5 20.3-73.7 32.4" transform="translate(-57)" id="path72" fill="none" stroke="#c3bb00" stroke-width="0.20000000298023224px"/><path d="M1103.4 538.2c-23.6 27.6-43.2 21.8-64.3 28.1 21-8.5 41-15.4 64.3-28" transform="translate(-57)" id="path73" fill="#f8ed74"/><path d="M1079.8 556.8a49 49 0 0 0-27.9 1.4" transform="translate(-57)" id="path74" fill="none" stroke="#c3bb00" stroke-width="0.20000000298023224px"/><path d="M1077.5 540.8c-15.2 8.2-16.6 11.3-22.3 16" transform="translate(-57)" id="path75" fill="none" stroke="#c3bb00" stroke-width="0.20000000298023224px"/><path d="M1143 510.1c-32 37-60.6 17.8-88.6 25.3 27-8.3 31.6-42 88.7-25.3Z" transform="translate(-57)" id="path76" fill="#f7e926" stroke="#c3bb00" stroke-width="0.5px"/><path d="M1130.5 513.4c-31.8 3-53.3 10.6-73 19.1" transform="translate(-57)" id="path77" fill="none" stroke="#c3bb00" stroke-width="0.20000000298023224px"/><path d="M1140 510.1c-26.2 23.1-43.3 14-63.7 16.6 20.7-4.8 40.2-8 63.7-16.6" transform="translate(-57)" id="path78" fill="#f8ed74"/><path d="M1115.3 524.4a43 43 0 0 0-25.9-3.5" transform="translate(-57)" id="path79" fill="none" stroke="#c3bb00" stroke-width="0.20000000298023224px"/><path d="M1115.8 508.2c-15.3 5.5-17.1 8.2-23.1 11.8" transform="translate(-57)" id="path80" fill="none" stroke="#c3bb00" stroke-width="0.20000000298023224px"/><path d="M1116 458.8c2.2 45.6-37.2 50.2-54.8 73 16.2-22.8-6.7-48.7 54.8-73Z" transform="translate(-57)" id="path81" fill="#f7e926" stroke="#c3bb00" stroke-width="0.5px"/><path d="M1107.7 472.8a204 204 0 0 0-46.5 59" transform="translate(-57)" id="path82" fill="none" stroke="#c3bb00" stroke-width="0.20000000298023224px"/><path d="M1113 464.7c-3.7 32.2-25.4 36.7-40.6 51.2 13.7-16.2 27.5-30.6 40.7-51.2" transform="translate(-57)" id="path83" fill="#f8ed74"/><path d="M1103.6 490c-9.6 1.5-19 8.2-24.7 13.7" transform="translate(-57)" id="path84" fill="none" stroke="#c3bb00" stroke-width="0.20000000298023224px"/><path d="M1091.1 478.5c-8.6 13.4-8 16.4-10.2 22.6" transform="translate(-57)" id="path85" fill="none" stroke="#c3bb00" stroke-width="0.20000000298023224px"/><path d="M1171.3 476c-28.2 40.1-58.6 23.9-85.6 34.3 26-11.1 27-45 85.6-34.4Z" transform="translate(-57)" id="path86" fill="#f7e926" stroke="#c3bb00" stroke-width="0.5px"/><path d="M1159.1 480.5c-31.3 6.3-52 16.1-70.7 26.6" transform="translate(-57)" id="path87" fill="none" stroke="#c3bb00" stroke-width="0.20000000298023224px"/><path d="M1168.2 476.3c-23.6 25.6-41.6 18.4-61.7 23 20.1-6.9 39.1-12.1 61.7-23" transform="translate(-57)" id="path88" fill="#f8ed74"/><path d="M1145.1 493a43 43 0 0 0-26.1-.8" transform="translate(-57)" id="path89" fill="none" stroke="#c3bb00" stroke-width="0.20000000298023224px"/><path d="M1143.9 476.9c-14.7 7-16.2 10-21.8 14" transform="translate(-57)" id="path90" fill="none" stroke="#c3bb00" stroke-width="0.20000000298023224px"/><path d="M1092.2 506.4c-60 41.9-91.7 81.8-104.4 124.3s-6.4 83.3 8.9 118.8 39.3 65.7 62.4 87.7a241 241 0 0 0 32.7 26.4 76 76 0 0 0 24.7 12l1.5-8.1a73 73 0 0 1-21.7-10.7 233 233 0 0 1-31.5-25.6c-22.4-21.4-45.9-50.9-60.6-85s-20.6-72.7-8.5-113.1 39.8-83.8 98.8-125Z" transform="translate(-57)" id="path91" fill="#f7e926" stroke="#c3bb00" stroke-width="0.5px"/><path d="M1354.4 596c20.8 9.8 29.3 15.6 46.4 8.6l5 13c-30.7 7.8-39.5-10.8-51.4-21.5Z" transform="translate(-57)" id="path92" fill="#24a849" stroke="#047a35" stroke-width="0.16599999368190765px"/><path d="M1362.3 602.2c14.8 3 20.2 13.6 40.7 5.4l1 2.8c-28.5 7.5-26.4-4.8-41.7-8.2" transform="translate(-57)" id="path93" fill="#44ae51"/><path d="M1337.8 835.9c20.2 5.8 63.4.2 93.8-25.7-1 26.2-62 51.7-101.3 36.4Z" transform="translate(-57)" id="path94" fill="#24a849" stroke="#047a35" stroke-width="0.15000000596046448px"/><path d="M1336.2 837.8c31.2 11 80.4-13.3 90.4-21.8-27.5 25-76 33.8-92 24.7Z" transform="translate(-57)" id="path95" fill="#44ae51"/><path d="M1314.2 768c1.8 30 7.6 55 23.6 67.9l-7.5 10.7c-25-26.5-18.8-59.1-16-78.5Z" transform="translate(-57)" id="path96" fill="#24a849" stroke="#047a35" stroke-width="0.15000000596046448px"/><path d="M1313.9 785.7c7 17.5 3.3 36.5 22.3 52.1l-1.5 3c-23.5-24.4-14-36.7-20.8-55" transform="translate(-57)" id="path97" fill="#44ae51"/><path d="M1350.7 820.3c23.9.2 48.2-4.6 86.2-24-5.3 26.7-69 50.2-99.1 39.6Z" transform="translate(-57)" id="path98" fill="#24a849" stroke="#047a35" stroke-width="0.15000000596046448px"/><path d="M1347.9 823.7c33.3 7 74.2-12.3 84.3-20.8-27.5 25-68.7 31.6-88 25.2Z" transform="translate(-57)" id="path99" fill="#44ae51"/><path d="M1362 805.4c16.3 2.8 50-1.7 90-33.8-6.2 34.6-71.2 55.6-101.3 48.7Z" transform="translate(-57)" id="path100" fill="#24a849" stroke="#047a35" stroke-width="0.15000000596046448px"/><path d="M1360.8 807c29.6 6.8 67.8-13 87.4-29.1-27.5 28.4-71.8 38-91 33.8Z" transform="translate(-57)" id="path101" fill="#44ae51"/><path d="M1373 788.3c14.9 3 45-1.6 81.6-35.9-.2 35-64.5 59.6-92 52.2Z" transform="translate(-57)" id="path102" fill="#24a849" stroke="#047a35" stroke-width="0.15199999511241913px"/><path d="M1370 792.6c27.1 7.3 63.1-16.3 81-33.4-25.1 30.3-66.7 42.9-84.3 38.5Z" transform="translate(-57)" id="path103" fill="#44ae51"/><path d="M1383.4 771.7c14 2.3 41.1-5.8 75.4-43.9-.2 36.7-60.2 66.6-86 60.5Z" transform="translate(-57)" id="path104" fill="#24a849" stroke="#047a35" stroke-width="0.15399999916553497px"/><path d="M1380.2 775.9c25.3 6 58.5-21.8 75.3-40.8-23.6 33.2-62 49.8-78.4 46.3Z" transform="translate(-57)" id="path105" fill="#44ae51"/><path d="M1391.4 758c12.8 1.5 34.6-9.5 70.5-45.9-.1 24.6-53.8 63-77.4 59Z" transform="translate(-57)" id="path106" fill="#24a849" stroke="#047a35" stroke-width="0.19599999487400055px"/><path d="M1390.2 761.7c25.2-5.3 48.6-20.3 68.7-44.7-13 25.3-56.5 50.7-71.6 48.4Z" transform="translate(-57)" id="path107" fill="#44ae51"/><path d="M1397.3 744.7c11.6 1.6 31.2-10.1 63.6-49.2-.2 26.4-48.5 67.6-69.8 63.2Z" transform="translate(-57)" id="path108" fill="#24a849" stroke="#047a35" stroke-width="0.19900000095367432px"/><path d="M1396.2 748.7c22.7-5.7 43.8-21.8 62-48-11.8 27.2-51 54.5-64.5 52Z" transform="translate(-57)" id="path109" fill="#44ae51"/><path d="M1402.8 728.5c10.4 1.7 28.1-10.2 57.4-49.6-.2 26.6-43.8 68.2-63 63.8Z" transform="translate(-57)" id="path110" fill="#24a849" stroke="#047a35" stroke-width="0.20900000631809235px"/><path d="M1401.8 732.5c20.5-5.7 39.5-22 56-48.3-10.7 27.4-46 55-58.3 52.4Z" transform="translate(-57)" id="path111" fill="#44ae51"/><path d="M1409.7 710.4c8.9 1.7 23.9-10.4 48.7-50.6-.1 27.2-37.2 69.6-53.4 65Z" transform="translate(-57)" id="path112" fill="#24a849" stroke="#047a35" stroke-width="0.2240000069141388px"/><path d="M1408.9 714.5c17.4-5.8 33.5-22.4 47.4-49.3-9 28-39 56-49.4 53.4Z" transform="translate(-57)" id="path113" fill="#44ae51"/><path d="M1411.7 695.6c8 .6 21.5-11.5 43.9-49.1-.1 23.8-33.5 64.5-48.2 62.2Z" transform="translate(-57)" id="path114" fill="#24a849" stroke="#047a35" stroke-width="0.2529999911785126px"/><path d="M1411 699.3c15.6-6.9 30.2-23 42.7-47.9-8 25.4-35.2 52.9-44.5 51.6Z" transform="translate(-57)" id="path115" fill="#44ae51"/><path d="M1413.6 678.3c6.8 1.5 25.3-17.8 36.8-47.3 6.4 26.8-27.8 65-40.3 60.8Z" transform="translate(-57)" id="path116" fill="#24a849" stroke="#047a35" stroke-width="0.26499998569488525px"/><path d="M1413 682.1c13.3-5.5 26.4-20.2 36.7-45.4-6.5 26.2-30.2 51.7-38.2 49.3Z" transform="translate(-57)" id="path117" fill="#44ae51"/><path d="M1416 661c7 .2 21.8-18.4 28-44.5 11 21.3-16.1 57.8-29.1 56.1Z" transform="translate(-57)" id="path118" fill="#24a849" stroke="#047a35" stroke-width="0.28999999165534973px"/><path d="M1416 664.2c12.2-6.4 22.5-20.5 28.4-42.8-2 22.5-20.9 47-29.1 46.2Z" transform="translate(-57)" id="path119" fill="#44ae51"/><path d="M1413 650.3c6.3.3 19.7-16.5 25.3-40 9.8 19.2-14.5 52-26.2 50.5Z" transform="translate(-57)" id="path120" fill="#24a849" stroke="#047a35" stroke-width="0.32199999690055847px"/><path d="M1413.1 653.2c10.9-5.8 20.2-18.4 25.5-38.5-1.8 20.3-18.8 42.3-26.2 41.6Z" transform="translate(-57)" id="path121" fill="#44ae51"/><path d="M1411.3 638.8c5.7.3 17.9-15.3 23-37.2 8.8 17.8-13.3 48.4-23.9 47Z" transform="translate(-57)" id="path122" fill="#24a849" stroke="#047a35" stroke-width="0.35100001096725464px"/><path d="M1411.4 641.5c9.8-5.4 18.3-17.2 23.1-35.8-1.6 18.9-17 39.4-23.8 38.7Z" transform="translate(-57)" id="path123" fill="#44ae51"/><path d="M1410.4 627c5.6-1 14.1-18.8 14.4-41.2 12.5 15.5-2.5 50-13.2 51Z" transform="translate(-57)" id="path124" fill="#24a849" stroke="#047a35" stroke-width="0.35100001096725464px"/><path d="M1411 629.7c8.5-7.4 14.2-20.7 15-40 2.4 18.8-8.2 42.2-15 43Z" transform="translate(-57)" id="path125" fill="#44ae51"/><path d="M1406.1 619.5c4.9-1 12.3-18.3 12.5-40.1 10.9 15-2.1 48.7-11.4 49.6Z" transform="translate(-57)" id="path126" fill="#24a849" stroke="#047a35" stroke-width="0.38100001215934753px"/><path d="M1406.7 622.1c7.3-7.2 12.3-20.2 12.9-39 2.1 18.4-7 41-13 41.8Z" transform="translate(-57)" id="path127" fill="#44ae51"/><path d="M1403.5 608.6c4.3-1.7 8.2-18.3 4.7-37.6 12.6 11.4 6.3 43.4-2.1 45.8Z" transform="translate(-57)" id="path128" fill="#24a849" stroke="#047a35" stroke-width="0.41600000858306885px"/><path d="M1404.4 610.8c5.6-7.6 8-20 5.4-36.6 5 15.8.4 37.4-4.9 39Z" transform="translate(-57)" id="path129" fill="#44ae51"/><path d="M1322.8 758c1.7 29.9 7.6 55 23.5 67.8l-7.5 10.7c-25-26.5-18.7-59.1-16-78.5Z" transform="translate(-57)" id="path130" fill="#24a849" stroke="#047a35" stroke-width="0.15000000596046448px"/><path d="M1322.4 775.6c7 17.5 3.3 36.5 22.3 52.1l-1.4 3c-23.6-24.4-14-36.7-20.9-55" transform="translate(-57)" id="path131" fill="#44ae51"/><path d="M1366.7 650.7c12.5 22.2 24.4 38 44 44l-5.2 11c-32.3-14.7-34.8-38-38.8-55Z" transform="translate(-57)" id="path132" fill="#24a849" stroke="#047a35" stroke-width="0.1550000011920929px"/><path d="M1370 661.1c11.4 12.5 16.1 28.2 39.5 35.7l-.8 2.8c-30.2-13.4-27.2-25.2-38.7-38.5" transform="translate(-57)" id="path133" fill="#44ae51"/><path d="M1366.5 657.8c9 24.4 21.8 43 41.4 49l-5.2 11.1c-32.2-14.8-34.3-43.1-36.2-60.1Z" transform="translate(-57)" id="path134" fill="#24a849" stroke="#047a35" stroke-width="0.1550000011920929px"/><path d="M1369.2 672.4c11.4 12.5 14.1 29 37.5 36.5l-.8 2.8c-30.1-13.3-25.2-26-36.7-39.3" transform="translate(-57)" id="path135" fill="#44ae51"/><path d="M1362.9 698.2c1.8 29.9 8.1 52.6 24.1 65.5l-8 13c-25-26.5-18.8-59.1-16.1-78.5Z" transform="translate(-57)" id="path136" fill="#24a849" stroke="#047a35" stroke-width="0.15000000596046448px"/><path d="M1362.5 715.8c7 17.5 3 35.2 22 50.8l-2.2 3.3c-23.5-24.3-12.8-35.7-19.8-54" transform="translate(-57)" id="path137" fill="#44ae51"/><path d="M1339.7 734c1.7 30 7.6 55 23.5 67.8l-7.5 10.7c-25-26.5-18.7-59.1-16-78.5Z" transform="translate(-57)" id="path138" fill="#24a849" stroke="#047a35" stroke-width="0.15000000596046448px"/><path d="M1339.3 751.7c7 17.4 3.3 36.4 22.3 52l-1.4 3c-23.6-24.3-14-36.7-20.9-55" transform="translate(-57)" id="path139" fill="#44ae51"/><path d="M1331.4 747.4c1.7 29.9 7.5 55 23.5 67.8l-7.5 10.7c-25-26.5-18.7-59.1-16-78.5Z" transform="translate(-57)" id="path140" fill="#24a849" stroke="#047a35" stroke-width="0.15000000596046448px"/><path d="M1331 765c7 17.5 3.3 36.5 22.3 52.1l-1.5 3c-23.5-24.4-13.9-36.7-20.8-55" transform="translate(-57)" id="path141" fill="#44ae51"/><path d="M1355.3 711.6c1.8 29.9 7.6 54.9 23.6 67.7l-7.5 10.8c-25-26.6-18.8-59.2-16-78.5Z" transform="translate(-57)" id="path142" fill="#24a849" stroke="#047a35" stroke-width="0.15000000596046448px"/><path d="M1355 729.2c7 17.5 3.3 36.5 22.3 52.1l-1.5 3c-23.5-24.4-13.9-36.8-20.8-55" transform="translate(-57)" id="path143" fill="#44ae51"/><path d="M1347.8 723.7c1.7 29.9 7.5 55 23.5 67.8l-7.5 10.7c-25-26.5-18.7-59.2-16-78.5Z" transform="translate(-57)" id="path144" fill="#24a849" stroke="#047a35" stroke-width="0.15000000596046448px"/><path d="M1347.4 741.3c7 17.5 3.3 36.5 22.3 52.1l-1.5 3c-23.5-24.4-13.9-36.7-20.8-55" transform="translate(-57)" id="path145" fill="#44ae51"/><path d="M1367.4 668c6.9 25.1 17.8 44 36.8 51.7l-6.1 10.7c-31-17.5-30.3-45.3-30.7-62.4Z" transform="translate(-57)" id="path146" fill="#24a849" stroke="#047a35" stroke-width="0.1550000011920929px"/><path d="M1370.3 683.5c10.2 13.4 9.9 28.8 32.5 38.2l-1 2.8c-29-15.9-21.2-26.8-31.5-41" transform="translate(-57)" id="path147" fill="#44ae51"/><path d="M1367.5 679.6c4.5 25.6 14 45.4 32.1 54.8l-7 10c-29.2-20.2-26.3-47.8-25-64.8Z" transform="translate(-57)" id="path148" fill="#24a849" stroke="#047a35" stroke-width="0.1550000011920929px"/><path d="M1368 693.4c7.3 17 8.4 31.4 30 42.9l-1.2 2.6c-27.3-18.5-22.8-29.3-28.8-45.5" transform="translate(-57)" id="path149" fill="#44ae51"/><path d="M1366.6 691.4c3 25.9 11.1 47.4 28.8 57.7l-7.6 9.7c-28-21.7-23.3-50.4-21.3-67.4Z" transform="translate(-57)" id="path150" fill="#24a849" stroke="#047a35" stroke-width="0.30000001192092896px"/><path d="M1366.6 707c5.7 14.5 6.1 31.3 27.2 43.9l-1.5 2.6c-26.3-19.9-21-31.4-25.7-46.6" transform="translate(-57)" id="path151" fill="#44ae51"/><path d="M1366 644.9c16.4 19.4 29.5 32 49.9 34.3l-3 11.9c-34.5-8.5-39.9-30.4-47-46.2Z" transform="translate(-57)" id="path152" fill="#24a849" stroke="#047a35" stroke-width="0.1550000011920929px"/><path d="M1371.2 654.5c11.8 12.8 19.3 24.1 43.6 27l-.3 3c-32-7.5-32.2-18-43.3-30" transform="translate(-57)" id="path153" fill="#44ae51"/><path d="M1367.3 641c19.3 16.5 29.3 24.5 49.8 23.4l-1 12.3c-35.4-2.8-39.3-21.2-48.8-35.7Z" transform="translate(-57)" id="path154" fill="#24a849" stroke="#047a35" stroke-width="0.1550000011920929px"/><path d="M1374 649.7c15 7.8 17.4 20 42 19l.2 3c-33-2.3-26.9-13.5-42.2-22" transform="translate(-57)" id="path155" fill="#44ae51"/><path d="M1364 632.5c21 14.4 31.7 21.1 52 17.9l.2 12.3c-35.4 1-41.2-16.8-52.3-30.2Z" transform="translate(-57)" id="path156" fill="#24a849" stroke="#047a35" stroke-width="0.1550000011920929px"/><path d="M1371.5 640.4c15.7 6.2 19.5 18 43.8 14.4l.5 2.9c-33 1.4-28.1-10.5-44.3-17.3" transform="translate(-57)" id="path157" fill="#44ae51"/><path d="M1362.5 620.8c21 14.3 30.2 23.4 50.4 20.1l1.9 10c-35.5 1-41.3-16.7-52.3-30.1Z" transform="translate(-57)" id="path158" fill="#24a849" stroke="#047a35" stroke-width="0.1550000011920929px"/><path d="M1370 628.6c15.8 6.2 19.6 18 43.9 14.4l.5 3c-33 1.3-28.1-10.6-44.3-17.4" transform="translate(-57)" id="path159" fill="#44ae51"/><path d="M1356.2 603.3c21.3 12.2 29.9 19 49 14.3l4 13.6c-34 3.8-41.4-15.8-53-28Z" transform="translate(-57)" id="path160" fill="#24a849" stroke="#047a35" stroke-width="0.1599999964237213px"/><path d="M1364 610.3c15.7 4.8 20.3 16 43.3 10.5l.7 2.8c-31.5 4-27.8-8-44-13.3" transform="translate(-57)" id="path161" fill="#44ae51"/><path d="M1359.6 609.8c21.4 13.8 29.7 23.7 49.8 20l2.8 11.7c-35.5 2-41.2-18.5-52.6-31.7Z" transform="translate(-57)" id="path162" fill="#24a849" stroke="#047a35" stroke-width="0.1550000011920929px"/><path d="M1365.8 616.8c15.9 5.8 19.4 19.3 43.6 15l.6 3c-33 2.1-27.8-11.6-44.2-18" transform="translate(-57)" id="path163" fill="#44ae51"/><path d="M1349.8 587.2c21.3 8.6 30.2 13.9 46.8 6l5.8 12.7c-30.2 9.4-40-8.6-52.6-18.7Z" transform="translate(-57)" id="path164" fill="#24a849" stroke="#047a35" stroke-width="0.16599999368190765px"/><path d="M1358.1 592.8c15 2.1 20.9 12.5 40.9 3.2l1.1 2.7c-28 9.1-26.5-3.3-42-5.9" transform="translate(-57)" id="path165" fill="#44ae51"/><path d="M1347 577.9c19.1 7.6 27.1 12.3 42 5.2l5.2 11.4c-27.1 8.3-36-7.7-47.3-16.6Z" transform="translate(-57)" id="path166" fill="#24a849" stroke="#047a35" stroke-width="0.1860000044107437px"/><path d="M1354.4 582.9c13.4 1.8 18.8 11 36.8 2.8l1 2.4c-25.2 8-23.9-3-37.8-5.2" transform="translate(-57)" id="path167" fill="#44ae51"/><path d="M1341.8 570.3c19 6.3 27.1 10.3 41.3 2.7l5.6 10.6c-26 9.5-35.4-5.3-47-13.3Z" transform="translate(-57)" id="path168" fill="#24a849" stroke="#047a35" stroke-width="0.19300000369548798px"/><path d="M1349.3 574.7c13.2 1 19 9.5 36 .7l1.1 2.2c-24 9.1-23.4-1.5-37-2.9" transform="translate(-57)" id="path169" fill="#44ae51"/><path d="M1335.9 560.7c17.9 6 25.4 10 38.7 2.4l5.3 10.5c-24.4 9.8-33.3-5-44-13Z" transform="translate(-57)" id="path170" fill="#24a849" stroke="#047a35" stroke-width="0.19900000095367432px"/><path d="M1343 565c12.3 1 17.6 9.4 33.7.4l1 2.2c-22.6 9.4-22-1.2-34.8-2.6" transform="translate(-57)" id="path171" fill="#44ae51"/><path d="M1326.1 550.2c18 5.6 25.7 9.4 38.8 1.3l5.6 10.4c-24.1 10.4-33.4-4.1-44.4-11.7Z" transform="translate(-57)" id="path172" fill="#24a849" stroke="#047a35" stroke-width="0.19900000095367432px"/><path d="M1333.3 554.3c12.4.6 18 9 33.7-.5l1.1 2.2c-22.3 10-22-.7-34.8-1.7" transform="translate(-57)" id="path173" fill="#44ae51"/><path d="M1319.2 541.6c18 5.6 23.2 10.5 36.3 2.4l8.6 8.4c-24 10.4-34-3.2-45-10.8Z" transform="translate(-57)" id="path174" fill="#24a849" stroke="#047a35" stroke-width="0.19900000095367432px"/><path d="M1326.4 545.8c12.3.6 15.5 10 31.2.5l2.1 2.2c-22.3 10-20.5-1.8-33.3-2.7" transform="translate(-57)" id="path175" fill="#44ae51"/><path d="M1309.7 532.4c18 5.6 23.3 10.4 36.3 2.4l8.7 8.3c-24.1 10.4-34-3.2-45-10.7Z" transform="translate(-57)" id="path176" fill="#24a849" stroke="#047a35" stroke-width="0.19900000095367432px"/><path d="M1316.9 536.5c12.4.6 15.5 10 31.3.5l2 2.2c-22.2 10-20.5-1.7-33.3-2.7" transform="translate(-57)" id="path177" fill="#44ae51"/><path d="M1297.4 522.6c18 5.5 23.2 10.4 36.3 2.3l8.7 8.4c-24.1 10.4-34-3.2-45-10.7Z" transform="translate(-57)" id="path178" fill="#24a849" stroke="#047a35" stroke-width="0.19900000095367432px"/><path d="M1304.6 526.7c12.4.6 15.5 10 31.3.5l2 2.2c-22.3 10-20.5-1.7-33.3-2.7" transform="translate(-57)" id="path179" fill="#44ae51"/><path d="M1286.6 512.1c17.1 5.2 22 9.3 34.8 3.4l10.4 8.2c-10.5 12.2-35-5.1-45.2-11.6Z" transform="translate(-57)" id="path180" fill="#24a849" stroke="#047a35" stroke-width="0.22699999809265137px"/><path d="M1293.3 515.7c12 1 14.6 8.6 30 1.7l2 1.8c-21.8 7.1-19.6-2.2-32-3.5" transform="translate(-57)" id="path181" fill="#44ae51"/><path d="M1277.8 500.7c16.6 7 21 11.6 34.3 7.1l7.3 7.9c-24.2 4.7-32-7.4-41.6-15Z" transform="translate(-57)" id="path182" fill="#24a849" stroke="#047a35" stroke-width="0.22699999809265137px"/><path d="M1284.2 505c11.7 2.3 13.6 10.1 29.7 5l1.7 2c-22.4 4.7-19.3-4.4-31.4-7" transform="translate(-57)" id="path183" fill="#44ae51"/><path d="M1397.8 600.4c4.3-1.7 8.2-18.3 4.7-37.6 12.6 11.4 6.2 43.4-2.1 45.8Z" transform="translate(-57)" id="path184" fill="#24a849" stroke="#047a35" stroke-width="0.41600000858306885px"/><path d="M1398.7 602.6c5.6-7.7 8-20 5.4-36.6 5 15.8.4 37.4-4.9 39Z" transform="translate(-57)" id="path185" fill="#44ae51"/><path d="M1393.1 591.1c4.2-1.7 7.2-18.3 2.6-37.6 13.2 11.4 8.7 43.4.4 45.8Z" transform="translate(-57)" id="path186" fill="#24a849" stroke="#047a35" stroke-width="0.41600000858306885px"/><path d="M1394.2 593.3c5.1-7.7 6.8-20 3.2-36.6 6 15.8 2.6 37.4-2.6 39Z" transform="translate(-57)" id="path187" fill="#44ae51"/><path d="M1386.9 581.5c4.1-1.5 5.9-16.5 0-33.8 14 10.2 11.7 39 3.6 41.2Z" transform="translate(-57)" id="path188" fill="#24a849" stroke="#047a35" stroke-width="0.43700000643730164px"/><path d="M1388.1 583.5c4.6-6.9 5.5-18 .8-33 7 14.2 5 33.8 0 35.3Z" transform="translate(-57)" id="path189" fill="#44ae51"/><path d="M1381.2 573.3c3.9-2 4.1-17-3.6-33.7 15 8.7 15.7 37.6 7.9 40.6Z" transform="translate(-57)" id="path190" fill="#24a849" stroke="#047a35" stroke-width="0.43700000643730164px"/><path d="M1382.6 575.1c3.9-7.3 3.5-18.4-2.7-32.9 8.5 13.4 8.6 33 3.7 35Z" transform="translate(-57)" id="path191" fill="#44ae51"/><path d="M1375.8 562.2a52 52 0 0 0-6-30.2c12.5 7 15.4 28.1 11.6 36.9Z" transform="translate(-57)" id="path192" fill="#24a849" stroke="#047a35" stroke-width="0.43700000643730164px"/><path d="M1377.3 562.7c1.2-7.7 1.2-13.7-5.2-28 8.6 13.2 7.2 18.3 6.3 30.2Z" transform="translate(-57)" id="path193" fill="#44ae51"/><path d="M1366.9 553a52 52 0 0 0-6-30.3c12.5 7.1 15.4 28.1 11.6 37Z" transform="translate(-57)" id="path194" fill="#24a849" stroke="#047a35" stroke-width="0.43700000643730164px"/><path d="M1368.4 553.4c1.2-7.7 1.2-13.7-5.2-28 8.6 13.2 7.2 18.3 6.2 30.2Z" transform="translate(-57)" id="path195" fill="#44ae51"/><path d="M1360.3 546.2c1.4-5.8-6.1-23-12.1-35.7 12.5 7 21.5 33.6 17.7 42.3Z" transform="translate(-57)" id="path196" fill="#24a849" stroke="#047a35" stroke-width="0.43700000643730164px"/><path d="M1361.8 546.7c1.2-7.8-2.3-16.6-8.8-31 8.7 13.4 10.8 21.2 9.8 33.1Z" transform="translate(-57)" id="path197" fill="#44ae51"/><path d="M1352 537.5c.3-4.8 2.4-11-3-20.7 7.2 7 11.3 20.3 10.2 28.3Z" transform="translate(-57)" id="path198" fill="#24a849" stroke="#047a35" stroke-width="0.5320000052452087px"/><path d="M1353.4 538.3c1.1-5.9 2.5-8.5-3.1-19.5 7.6 10.2 4.9 12 4 21.2Z" transform="translate(-57)" id="path199" fill="#44ae51"/><path d="M1345.8 531.4c.8-5.8-8.4-22.2-15.7-34.2 13.2 5.8 24.8 31.2 21.9 40.3Z" transform="translate(-57)" id="path200" fill="#24a849" stroke="#047a35" stroke-width="0.43700000643730164px"/><path d="M1347.3 531.8c.4-7.8-4-16.2-11.8-29.9 10 12.4 12.8 20 13 32Z" transform="translate(-57)" id="path201" fill="#44ae51"/><path d="M1338.7 527.3c.6-6-9.5-21.8-17.4-33.4 13.5 5 26.4 29.8 24 39.1Z" transform="translate(-57)" id="path202" fill="#24a849" stroke="#047a35" stroke-width="0.43700000643730164px"/><path d="M1340.3 527.5c0-7.8-4.8-16-13.4-29.2 10.6 11.9 13.9 19.3 14.8 31.2Z" transform="translate(-57)" id="path203" fill="#44ae51"/><path d="M1327.6 518.3c0-6-11.3-21-20.2-31.8 13.8 4 28.8 27.5 27.1 37Z" transform="translate(-57)" id="path204" fill="#24a849" stroke="#047a35" stroke-width="0.43700000643730164px"/><path d="M1329.1 518.4c-.6-7.8-6.1-15.5-15.7-28 11.5 11 15.4 18 17.3 29.9Z" transform="translate(-57)" id="path205" fill="#44ae51"/><path d="M1252 483.7c22.3 3.4 12 4 66.2 20.6-14.9 3.5-31.6 4.4-66.3-20.6Z" transform="translate(-57)" id="path206" fill="#24a849" stroke="#047a35" stroke-width="0.15000000596046448px"/><path d="M1260.8 487.3c4.3 0 19.3 7 49 16.4-22.4-2.2-34-10.2-49-16.4" transform="translate(-57)" id="path207" fill="#44ae51"/><path d="M1309.6 509c-3.8-6.5-14.7-17-23.4-24.8 12 1.5 27.1 16.8 31.4 27.2Z" transform="translate(-57)" id="path208" fill="#24a849" stroke="#047a35" stroke-width="0.43700000643730164px"/><path d="M1311.6 509.3c-2.7-6.5-9-12.8-18.9-22a48 48 0 0 1 19.9 21.7Z" transform="translate(-57)" id="path209" fill="#44ae51"/><path d="M1317.3 513.5c-2.8-7-12-19-19.3-28.2 11.7 3.4 24.2 20.8 26.7 31.8Z" transform="translate(-57)" id="path210" fill="#24a849" stroke="#047a35" stroke-width="0.43700000643730164px"/><path d="M1319.1 514c-1.6-6.7-6.9-14-15.2-24.7a48 48 0 0 1 16.3 24.6Z" transform="translate(-57)" id="path211" fill="#44ae51"/><path d="m1292.4 864.2 24.7 11.6c80.3-91.3 102.8-161.4 99.8-215-2.8-48.7-22.6-82.2-56.5-115.5-8.8-8.6-22.3-21-32.2-27.9a138 138 0 0 0-16.9-10l-2.3.9c16 9.3 34.3 23 49.6 40.5 26.8 30.7 51.7 64.3 50.8 112.7-1 54-25 120-117 202.7Z" transform="translate(-57)" id="path212" fill="#24a849" stroke="#047a35" stroke-width="0.15000000596046448px"/><path d="M1311.1 858.9c47.4-56.3 196.3-216.3 5.6-347 123.7 88 137.7 186 .5 351Z" transform="translate(-57)" id="path213" fill="#44ae51"/><path d="M1387.6 917c-17.9.1-27.9 1-35.3 2.1 9.2 12.1 10.2 27 14.2 40.7-28.9-22.2-55.5-32.7-80.6-35l7.8-48.1c42.1 5.1 67.5 23.1 93.9 40.3Z" transform="translate(-57)" id="path214" stroke="#a6a6a6" fill="url(#a)"/><path d="M1012.4 917.2c17.9.2 27.8 1 35.3 2.2-9.2 12-10.2 26.8-14.3 40.6 29-22.2 55.6-32.7 80.7-35l-7.9-48.1c-42 5.2-67.4 23.2-93.8 40.3Z" transform="translate(-57)" id="path215" stroke="#a6a6a6" fill="url(#b)"/><path d="m1067 868.4 39.2 8.5 7.9 48.2c.8-8.3-32.8-5-31.8-10.2Zm266-.2-39.3 8.5-7.8 48.1c-.8-8.2 32.8-4.8 31.8-10.1Z" transform="translate(-57)" id="path216" fill="#bfbebf" stroke="#a6a6a6" stroke-miterlimit="2"/><path d="M1200 844c-35.9 1.7-87.2 7.1-133 24.4l15.3 46.5c31.6-12.2 78.3-18.3 117.7-19.2 39.4.9 86.1 7 117.7 19.2l15.3-46.5c-45.8-17.3-97.1-22.7-133-24.5Z" transform="translate(-57)" id="path217" fill="#fff" stroke="#a6a6a6"/><path d="m1091 893 4-1.6a9 9 0 0 0 2.4 3.5 8 8 0 0 0 3.9 1.5 13 13 0 0 0 5-.5 12 12 0 0 0 4-2 6 6 0 0 0 2.2-2.7 5 5 0 0 0 .1-3 4 4 0 0 0-1.6-2.3 7 7 0 0 0-3.4-1l-6 .1a30 30 0 0 1-6.8-.1 9 9 0 0 1-4.2-2 8 8 0 0 1-2.3-3.5 8 8 0 0 1 0-4.9 9 9 0 0 1 3-4.3 16 16 0 0 1 5.5-2.8 16 16 0 0 1 6.5-.8 9 9 0 0 1 5.1 2.1 10 10 0 0 1 3 4.5l-3.9 1.5a7 7 0 0 0-3.5-3.9 9 9 0 0 0-6 .2q-3.7 1.1-5 3a4 4 0 0 0-.8 3.9 4 4 0 0 0 2.1 2.4q1.5.7 7 .4a43 43 0 0 1 7.5-.1 10 10 0 0 1 5 2 8 8 0 0 1 2.7 4 9 9 0 0 1 0 5.2 10 10 0 0 1-3.1 4.7 15 15 0 0 1-5.7 3 19 19 0 0 1-7.6 1 11 11 0 0 1-5.6-2.4 11 11 0 0 1-3.4-5.2m34.9 1.6-6.3-32.3 4.3-.8 6.3 32.2Zm17.5-3.2-12.3-31.7 4.4-.5 7.4 20.9q1.2 3.3 2.1 6.5l.8-6.2 3.8-22.7 5.2-.6 6.5 16a88 88 0 0 1 3.8 11.3l.9-7.3 2.8-21.6 4.3-.5-5.3 33.7-4.2.5-9.6-24.2-1.5-3.7-.5 4-4.2 25.6Zm32.2-3.3 11.8-33.1 4.7-.1 14.2 32.5-5 .1-4-9.8-13.7.3-3.4 10Zm9.1-13.7 11.2-.3-3.7-9q-1.6-4-2.5-6.7a42 42 0 0 1-1.6 6.3Zm25 13.2 1.2-32.9 4.4.2-1.1 29 16.2.6-.2 3.9Zm26.4 1.3 2.7-32.8 4.4.4-2.7 32.8Zm12 .7 5-32.5 6.4 1 4.2 24.2.8 5 2.5-4.9 11.3-21.4 5.8.9-5 32.5-4.2-.7 4.2-27.2-13.6 25.8-3.9-.6-5.1-29.1-4.3 27.7Zm34.5 5.2L1304 867l4.5 1.3 3.4 35.4-4.7-1.5-.8-10.6-13.2-4-6.3 8.5Zm13-10.2 10.6 3.2-.7-9.7q-.3-4.4-.2-7.2a42 42 0 0 1-3.5 5.5Z" transform="translate(-57)" id="path218" fill="#010101"/><path d="M1200 455.5a3 3 0 0 0-2.7 1.8c-4.4 10.7-15.2 19-19.8 31-2.3 6-2.8 13 .2 21s9.3 17 20.2 28.2a3 3 0 0 0 4.1 0 85 85 0 0 0 20.3-28.3c3-8 2.5-15 .2-21-4.6-12-15.4-20.2-19.8-31a3 3 0 0 0-2.7-1.7" transform="translate(-57)" id="path219" fill="#a99a15"/><path d="M1200 535.4c-43-43.8-9.7-53.6 0-77Z" transform="translate(-57)" id="path220" fill="#fee929"/><path d="M1200 535.4c43-43.8 9.7-53.6 0-77Z" transform="translate(-57)" id="path221" fill="#c3b101"/><path d="M1192 550.2h16v42.5h-16Z" transform="translate(-57)" style="isolation:isolate" id="path222" fill="#fee929" stroke="#a99a15" stroke-miterlimit="2" stroke-width="0.699999988079071px" fill-rule="evenodd" opacity="0.9980000257492065"/><path d="m1118 550 10 2.5-3.1 13c23.7-18.1 48-32 75.1-24.2v-11.7a98 98 0 0 0-82 20.5Z" transform="translate(-57)" id="path223" fill="#fee929" stroke="#a99a15"/><circle cx="1143" cy="536.5061" r="16.0568" style="isolation:isolate" id="circle223" fill="#fee929" stroke="#a99a15" stroke-width="0.699999988079071px" opacity="0.9990000128746033"/><path d="M1200 564.2c-36.8 3.2-73.3 8.1-106.4 32.8 33.4 79.4 31.3 135.5 19.8 185.4a249 249 0 0 1-10 28.8c27.1 18.6 69.8 23.7 96.6 23.7s69.5-5.1 96.6-23.7a249 249 0 0 1-10-28.8c-11.5-50-13.6-106 19.8-185.4-33-24.7-69.6-29.6-106.4-32.8Z" transform="translate(-57)" id="path224" fill="#fff" stroke="#a8a8a8"/><path d="m1119.9 695 1.3 13 .2 22.8-1 11.5h159.1l-1-11.4.3-22.8 1-11.1-25.3-25.4a7.5 7.5 0 0 0-11.7 1.4l-11.2 18.5a6.7 6.7 0 0 1-11 .8l-16.2-20a7 7 0 0 0-11.4.5l-12.8 19a7.4 7.4 0 0 1-11.6.7l-18-20.5a8 8 0 0 0-12.3.3Z" transform="translate(-57)" id="path225" fill="#0f9842" stroke="#14853a"/><path d="M1141.8 690.3a2.8 2.8 0 0 0-2.3 4l5 9.6-9.8 5a2.8 2.8 0 1 0 2.6 4.9l9.6-5c30.6 83.6 99.7 30 101.1 7-18.3 9.5-70.3 33.9-96.2-9.5l9.7-5a2.8 2.8 0 1 0-2.5-4.8l-9.7 5-5-9.7a3 3 0 0 0-2.5-1.6Z" transform="translate(-57)" id="path226" fill="#fff" stroke="#a3a3a2" stroke-width="0.4000000059604645px"/><path d="M1154.7 722.2c31.1 52.3 77 17.6 84.5 8.5-27 17.7-65.2 21-84.5-8.6" transform="translate(-57)" id="path227" fill="#e3e3e2"/><g id="g231" opacity="0.996999979019165" fill-rule="evenodd"><path d="M1197.6 669.2c-14.4-3.2-25-22.6-25-45.4s10.6-42.1 25-45.3c-27.5 1.8-48.7 21.6-48.7 45.3s21.2 43.5 48.7 45.4Z" transform="translate(-57)" id="path228" fill="#e52521" stroke="#c81517" stroke-miterlimit="2.666670083999634" stroke-width="0.30000001192092896px"/><path d="M1172.7 594.4c-9 8.1-14.5 18.4-14.5 29.4s5.6 21.4 14.6 29.4a78 78 0 0 1 0-58.8" transform="translate(-57)" id="path229" fill="#e84342"/><path d="M1202.4 669.2c14.4-3.2 25-22.6 25-45.4s-10.6-42.1-25-45.3c27.5 1.8 48.7 21.6 48.7 45.3s-21.2 43.5-48.7 45.4Z" transform="translate(-57)" id="path230" fill="#e52521" stroke="#c81517" stroke-miterlimit="2.666670083999634" stroke-width="0.30000001192092896px"/><path d="M1227.2 594.4c9 8.1 14.6 18.4 14.6 29.4s-5.6 21.4-14.6 29.4a78 78 0 0 0 0-58.8" transform="translate(-57)" id="path231" fill="#e84342"/></g><path d="m1200 608.5-1.9.1h-3.4V638c1.4 5.4 2.6 6.6 5.3 10.3 2.7-3.7 4-4.9 5.3-10.3v-29.5h-3.4z" transform="translate(-57)" id="path232" fill="#e6302d" stroke="#c81517" stroke-miterlimit="3.333329916000366" stroke-width="0.30000001192092896px"/><path d="M1200 589.3c-8.2 0-7 6.5-11.8 7.6-7.5 1.7-6.7 19.8 11.8 14.8 19.7 4.7 19.3-13 11.8-14.8-4.8-1-3.6-7.6-11.8-7.6Z" transform="translate(-57)" id="path233" fill="#e6302d" stroke="#c81517" stroke-miterlimit="3.333329916000366" stroke-width="0.30000001192092896px"/><path d="m1191.6 598 9.4 2.6c-2.4 1.8-4.8 3.6-3.1 9.4-5.9-.3-15.4-3-6.3-12m15.8-.5-2.2 2.2c4.2-.2 6.7 1.8 9.7 3-2-1.7.3-2.8-7.5-5.2m-15.3-1.3c2.3-2.3 4-5.4 7.9-5.4a18 18 0 0 1 4.9 5.2l-4.9 1.8c-3 .6-6-.8-7.9-1.6m4.5 18c-2 26 1.5 28.6 3.4 31.4-2-8.6-1.6-20-1.3-31.3Z" transform="translate(-57)" id="path234" fill="#e84342"/><path d="m1142.3 771.3 4.3-9.1a5 5 0 0 1 6.3-1.7l7 3a7 7 0 0 0 6.7-.6l1-.7a11 11 0 0 1 11.3-1l2.8 1.4a11 11 0 0 0 8.8.3l5-2.1a5 5 0 0 1 5.5.8l1.4 1.3a7 7 0 0 0 7.5 1.2l6.3-2.6a9 9 0 0 1 8.5 1.1l1.5 1.1a7 7 0 0 0 7 .6l5.1-2.7a7 7 0 0 1 8.1.9l3.1 2.9c-6.6.9-10.7 5.8-16 8.8a12 12 0 0 1-12.4 0l-2.4-1.5a4 4 0 0 0-4.6.4l-1.9 1.8a6 6 0 0 1-6.5.8l-5-2.7a5 5 0 0 0-6 .8l-.3.3a4 4 0 0 1-4.8.6l-2.6-1.5a13 13 0 0 0-13.2 0l-6.2 3.7a6 6 0 0 1-7.5-1.6l-3.4-4.7a7.3 7.3 0 0 0-9.5-2.1Z" transform="translate(-57)" style="isolation:isolate" id="path235" fill="#f7e926" opacity="0.9980000257492065"/><path d="M1113.4 782.4a249 249 0 0 1-10 28.8c27.1 18.6 69.8 23.7 96.6 23.7s69.5-5.1 96.6-23.7a249 249 0 0 1-10-28.8c-28.6 18-62 20.1-86.6 20.1s-58-2.1-86.6-20Zm9.2 12Zm154.8 0Zm-135.9 9.2Zm117 0Zm-94 5.1Zm71 0Zm-47.3 1.8Zm23.5 0Z" transform="translate(-57)" id="path236" fill="#f7e926" stroke="#c3bb00"/></g><!-- app4joy --></svg>