<svg viewBox="0 0 2286 1600" id="svg218" height="1600" xmlns="http://www.w3.org/2000/svg"><defs id="defs10"><radialGradient id="a" cx="511.5461" cy="1385.0448" r="12.0468" gradientTransform="matrix(3.7795 0 0 -3.7795 -790.4 6051.8)" gradientUnits="userSpaceOnUse"><stop offset="0" stop-color="#fff" id="stop1"/><stop offset="0.121" stop-color="#fff" id="stop2"/><stop offset="0.212" stop-color="#f4e600" stop-opacity="0.898" id="stop3"/><stop offset="0.306" stop-color="#f19b49" id="stop4"/><stop offset="0.373" stop-color="#b8683c" id="stop5"/><stop offset="0.457" stop-color="#905545" id="stop6"/><stop offset="0.581" stop-color="#b8683c" id="stop7"/><stop offset="0.738" stop-color="#e4d70d" stop-opacity="0.9" id="stop8"/><stop offset="0.861" stop-color="#86bd2f" id="stop9"/><stop offset="1" stop-color="#03933f" stop-opacity="0.9" id="stop10"/></radialGradient></defs><g id="g220"><path d="M0 0h2286v1600H0z" fill="#1f2347" id="path10"/></g><g id="g219"><path d="M874.6 329.8c0 23.8-10.7 96.2-105.3 167.1 59.2 149.5-57.5 267-28 454 41 260.7 257 192.8 401.7 319.3 144.7-126.5 360.6-58.6 401.7-319.3 29.5-187-87.2-304.5-28-454-94.6-70.9-105.3-143.3-105.3-167.1l-268.4.9Z" fill="#da271e" id="path11"/><path d="M894.5 352c-6 36-28.2 94.7-99 152.4 24.5 75 9.5 143.6-7.6 210.9-18.2 71.9-38.6 143.8-24.7 232.2 19.5 124.2 74.6 162.8 148.4 192.9 69.3 28.2 156.5 43.1 231.4 101.2 74.9-58 162-73 231.4-101.2 73.8-30 128.9-68.7 148.4-192.9 14-88.4-6.5-160.3-24.7-232.2-17-67.3-32-135.8-7.6-210.9-70.8-57.7-93-116.4-99-152.4l-248.4.8h-.2Z" fill="#fff" id="path12"/><path d="M909.6 370.6c-9.8 38-34.7 89.7-92.8 140.2 20.7 75.4 5.4 144.9-10.8 209-18.3 72.3-37.7 140.7-24.4 224.8 18.7 119 66 149.7 137 178.6 63.5 25.8 148.1 40.8 224.4 95.3 76.2-54.5 160.8-69.5 224.3-95.3 71-29 118.4-59.6 137.1-178.6 13.3-84-6-152.5-24.4-224.8-16.2-64.1-31.5-133.6-10.8-209-58-50.5-83-102.2-92.8-140.2l-233.3.8h-.2Z" fill="#03933f" id="path13"/><g opacity="0.9990000128746033" id="g15"><path d="m993.1 973.8 16 .3c2.3-31.8-86.1-147.5-53.4-247.4 9-27.3 29.7-52.3 57-79.8 9.6-9.8 18.8-20.2 30-31 14.7-14.2 12.9-27.5 10.1-43.9-4.5-30-22.4-51.7-9.8-93.9-11.8 17.2-41.2 28.1-29.5 76 14 56.7 18.7 56 6.8 74-4.2-17.3 1.4-25.7-16-57.4-9.7-17.4-7-31.8-10-47.6-8.7 14.5-32 29.5-8.2 75.6 15.8 30.5 15.5 50.3 1 62 4.8-22.7-7.3-39.5-12.9-52.2-6-13.6-12-15-14.5-45.5-6.2 14.6-26.4 23.2-3 70.3 8.2 16.7 22.4 30.6 9.8 57-2.9-17-15-32.4-23.3-46.1-14.7-24.2-9.9-31.4-13-42.4-14.1 15.7-21.2 32.6-3.6 63.6 9.4 16.5 28.6 30.4 17.6 54.3-1-15.2-15.4-26.9-26.1-40.5-9.8-12.3-11.8-24.5-15.8-36.6-7.6 16.3-25.6 31.8 7.2 65.2 14.3 14.6 28.8 29 27.4 44-9-9-12.8-17-32.7-27.5-12.3-6.5-19-19-26.3-30.7-3.6 15.5-13.2 35.6 17.2 58.5 15.3 11.5 34.7 19.2 39.9 41-10-7.6-20.6-13.7-36.3-19.8A62 62 0 0 1 864 740c3.5 20.9-.1 43.2 25.6 60 19.3 12.7 55.5 14.8 57 38.5-11.5-7.3-24.7-13-43.5-16.5-27.7-5-33.2-19.1-41-22.7 5.4 22.1 10 42.5 46.9 51.6 19.3 4.7 44.4 5.5 51.6 30.7-11.3-7.7-24-13-42.1-12.8-22.2.3-33.7-9.6-42-15.7 14.6 34.1 29.8 32.1 45 37.7 48 6.6 42 13.4 51.9 25.6-11.7-5-24-12.2-45.7-11a57 57 0 0 1-34.8-7.3c7 14.3 13.7 27.5 42 30 28.2 2.5 58.5 16.7 58.2 45.7Z" fill="#e7c220" stroke="#996214" stroke-miterlimit="15.118109703063965" stroke-width="2.1014172270992617px" id="path14"/><path d="M1042.2 603c1.2-28.4-25.1-67.2-9-106.2-8.3 39.5 26.3 70.2 9 106.2m-30.1 33.4c-4-36.4-32.9-66-21.3-104.4-3.6 40.2 34.3 66.7 21.3 104.4M978.5 662c2.4-27.8-32.3-54.4-21-88.6-3.6 34 33.8 56.6 21 88.6m-21.7 37.2c-5.8-27.7-38-50.9-29.6-86.2-.2 34.3 39.2 53 29.6 86.2m-15.4 33.3C929 697.2 897.7 687.3 901 651c4.8 34 41 46.5 40.3 81.6m-4.3 36.7c-16.7-26-53.7-32.4-59.6-68.8 13.2 31.6 51.4 34.7 59.5 68.8m2.7 42.8c-23.3-23-58.8-21.7-71.5-56.4 19 28.6 57.1 24.4 71.5 56.4m10.2 39.2c-27.7-15-62-9.5-81.4-40.8 24.4 24.1 60.9 12.3 81.4 40.8m14.5 41.5c-25.4-20.8-58-3.5-81.7-31.8 27.5 20.5 54.5-.8 81.7 31.8m19.1 38.6c-26.4-19.5-58.2-.5-83.2-27.6 28.5 19.1 54.3-3.5 83.2 27.6" fill="#ffea6d" id="path15"/></g><g opacity="0.9990000128746033" id="g17"><path d="m1294.9 973.8-16 .3c-2.3-31.8 86.1-147.5 53.4-247.4-9-27.3-29.7-52.3-57-79.8-9.6-9.8-18.8-20.2-30-31-14.7-14.2-12.9-27.5-10.1-43.9 4.5-30 22.4-51.7 9.8-93.9 11.8 17.2 41.2 28.1 29.5 76-14 56.7-18.7 56-6.8 74 4.2-17.3-1.4-25.7 16-57.4 9.7-17.4 7-31.8 10-47.6 8.7 14.5 32 29.5 8.2 75.6-15.8 30.5-15.5 50.3-1 62-4.8-22.7 7.3-39.5 12.9-52.2 6-13.6 12-15 14.5-45.5 6.2 14.6 26.4 23.2 3 70.3-8.2 16.7-22.4 30.6-9.8 57 2.9-17 15-32.4 23.3-46.1 14.7-24.2 9.9-31.4 13-42.4 14.1 15.7 21.2 32.6 3.6 63.6-9.4 16.5-28.6 30.4-17.6 54.3 1-15.2 15.4-26.9 26.1-40.5 9.8-12.3 11.8-24.5 15.8-36.6 7.6 16.3 25.6 31.8-7.2 65.2-14.3 14.6-28.8 29-27.4 44 9-9 12.8-17 32.7-27.5 12.3-6.5 19-19 26.3-30.7 3.6 15.5 13.2 35.6-17.2 58.5-15.3 11.5-34.7 19.2-39.9 41 10-7.6 20.6-13.7 36.3-19.8A62 62 0 0 0 1424 740c-3.5 20.9.1 43.2-25.6 60-19.3 12.7-55.5 14.8-57 38.5 11.5-7.3 24.7-13 43.5-16.5 27.7-5 33.2-19.1 41-22.7-5.4 22.1-10 42.5-46.9 51.6-19.3 4.7-44.4 5.5-51.6 30.7 11.3-7.7 24-13 42.1-12.8 22.2.3 33.7-9.6 42-15.7-14.6 34.1-29.8 32.1-45 37.7-48 6.6-42 13.4-51.9 25.6 11.7-5 24-12.2 45.7-11a57 57 0 0 0 34.8-7.3c-7 14.3-13.7 27.5-42 30-28.2 2.5-58.5 16.7-58.2 45.7Z" fill="#e7c220" stroke="#996214" stroke-miterlimit="15.118109703063965" stroke-width="2.1014172270992617px" id="path16"/><path d="M1245.8 603c-1.2-28.4 25.1-67.2 9-106.2 8.3 39.5-26.3 70.2-9 106.2m30.1 33.4c4-36.4 32.9-66 21.3-104.4 3.6 40.2-34.3 66.7-21.3 104.4m33.6 25.6c-2.4-27.8 32.3-54.4 21-88.6 3.6 34-33.8 56.6-21 88.6m21.7 37.2c5.8-27.7 38-50.9 29.6-86.2.2 34.3-39.2 53-29.6 86.2m15.4 33.3c12.3-35.3 43.7-45.2 40.3-81.6-4.8 34-41 46.5-40.3 81.6m4.4 36.8c16.7-26 53.7-32.4 59.6-68.8-13.2 31.6-51.4 34.7-59.5 68.8m-2.7 42.8c23.3-23 58.8-21.7 71.5-56.4-19 28.6-57.1 24.4-71.5 56.4m-10.2 39.2c27.7-15 62-9.5 81.4-40.8-24.4 24.1-60.9 12.3-81.4 40.8m-14.5 41.5c25.4-20.8 58-3.5 81.7-31.8-27.5 20.5-54.5-.8-81.7 31.8m-19.1 38.6c26.4-19.5 58.2-.5 83.2-27.6-28.5 19.1-54.3-3.5-83.2 27.6" fill="#ffea6d" id="path17"/></g><path d="M905.5 942.7c9.5 2.3 19.2 86 139.2 121 11.3 2.8 19.2-14.2 25.4-14.5 6.7-.3 13.1 6.4 19.9 9.5 5.9 1.4 9.6-10.2 15-10.2 8 .4 12.9 7.2 19.2 7.5 9.6.4 10-8.8 18.8-8.8s9.2 9.2 18.8 8.8c6.3-.3 11.2-7.1 19.1-7.5 5.5 0 9.2 11.6 15.1 10.2 6.8-3 13.2-9.8 20-9.5 6.1.3 14 17.3 25.3 14.6 120-35.1 129.7-118.8 139.2-121-43 6.9-36.3 19.5-43 26.8-2.4 2-6.9-1-10.3-1.5-3.7 6.8 1.4 14-14.5 13.4-8-4.6-12.4-13.6-23.8-14H997.1c-11.4.4-15.9 9.4-23.8 14-16 .6-10.8-6.6-14.5-13.4-3.4.5-8 3.5-10.3 1.5-6.7-7.3 0-20-43-26.9Z" fill="#dbdbdb" stroke="#737373" stroke-miterlimit="15.118109703063965" stroke-width="2.3017323050179783px" id="path18"/><path d="M997.6 984.5c-1.3 0-.9-.2-3 1.6s-5.9 6-12.7 10a17 17 0 0 1-8 2.3 39 39 0 0 1-13.3-1.8c17.3 18.3 43.6 37 85.8 49.8l1.3-1q2.1-2.3 6.2-6c4-3.7 6.3-6.6 15.4-7s15.4 3.3 19.6 6l.3.1.9-.9a22 22 0 0 1 14.9-6h.9c8.6.4 14.7 4.2 18 6.1l.4.3c3.3-2.7 9.8-7.7 18.7-7.7s15.4 5 18.7 7.7l.4-.3c3.3-2 9.4-5.7 18-6l1-.1a22 22 0 0 1 14.8 6c.5.4.5.6.9 1l.3-.3a32 32 0 0 1 19.6-6c9 .5 12.7 4.7 15.5 7s4.6 4.6 6.1 6l1.3 1.1c42.2-12.9 68.5-31.5 85.8-49.8a39 39 0 0 1-13.3 1.8 17 17 0 0 1-8-2.3c-6.8-4-10.4-8.3-12.6-10s-1.8-1.6-3.1-1.6H1143Z" fill="#fff" id="path19"/><path d="M1012.5 1024.1V1007h4.5l2.7 11.7 2.6-11.7h4.5v17.2h-2.8v-13.5l-3 13.5h-2.8l-3-13.5v13.5Zm30.6 0h-3.2l-1.3-3.9h-6l-1.2 4h-3.1l5.7-17.3h3.2Zm-5.5-6.8-2-6.4-2 6.4Zm7.1 6.8V1007h6.3a9 9 0 0 1 3.4.5 4 4 0 0 1 1.8 1.6 6 6 0 0 1 .6 2.7 5 5 0 0 1-1 3.2 5 5 0 0 1-2.9 1.6l1.6 1.5 1.7 2.8 1.8 3.3h-3.6l-2.1-3.7-1.6-2.6-.9-.7-1.5-.2h-.6v7.2Zm3-10h2.2l2.7-.1.8-.8.3-1.3a2 2 0 0 0-.4-1.3 2 2 0 0 0-1.1-.7h-4.5Zm11.8 10V1007h3v17.2Zm5.8 0V1007h4.5l2.7 11.7 2.6-11.7h4.5v17.2h-2.8v-13.5l-2.9 13.5h-2.9l-2.9-13.5v13.5Zm16.7-8.5a13 13 0 0 1 .7-4.4 8 8 0 0 1 1.3-2.4 6 6 0 0 1 2-1.5 7 7 0 0 1 3.1-.7 7 7 0 0 1 5.3 2.4 12 12 0 0 1 0 13 7 7 0 0 1-10.5 0 10 10 0 0 1-2-6.4m3-.1a7 7 0 0 0 1.2 4.4 4 4 0 0 0 3 1.5 4 4 0 0 0 2.9-1.4 7 7 0 0 0 1.1-4.5 7 7 0 0 0-1-4.5 3.7 3.7 0 0 0-6 0 7 7 0 0 0-1.1 4.5m13.6 8.6V1007h3v17.2Zm11.6 0V1007h2.9l6 11.5V1007h2.8v17.2h-3l-6-11.2v11.2Zm21.8-6.3v-3h6.4v7a8 8 0 0 1-2.7 1.8 9 9 0 0 1-3.6.8 7 7 0 0 1-4-1.1 7 7 0 0 1-2.7-3.3 12 12 0 0 1-.8-4.6 11 11 0 0 1 1-4.7 7 7 0 0 1 2.8-3.2 7 7 0 0 1 3.5-.9 6 6 0 0 1 4.3 1.4 6 6 0 0 1 2 3.7l-3 .6a4 4 0 0 0-1.2-2 3 3 0 0 0-2.1-.7 4 4 0 0 0-3.1 1.4 7 7 0 0 0-1.2 4.3 8 8 0 0 0 1.2 4.6 4 4 0 0 0 3 1.5 5 5 0 0 0 2-.4l1.6-1v-2.2Zm8.5-2.2a13 13 0 0 1 .7-4.4 8 8 0 0 1 1.4-2.4 6 6 0 0 1 2-1.5 7 7 0 0 1 3.1-.7 7 7 0 0 1 5.2 2.4 12 12 0 0 1 0 13 7 7 0 0 1-10.4 0 10 10 0 0 1-2-6.4m3.1-.1a7 7 0 0 0 1.2 4.4 4 4 0 0 0 3 1.5 4 4 0 0 0 2.9-1.4 7 7 0 0 0 1.1-4.5 7 7 0 0 0-1.1-4.5 3.7 3.7 0 0 0-6 0 7 7 0 0 0-1 4.5m13.6 8.6V1007h2.9l6 11.5V1007h2.8v17.2h-3l-6-11.2v11.2Zm14.8 0V1007h11v3h-8v3.7h7.5v3h-7.5v4.6h8.3v3Zm19.6 0V1007h10.1v3h-7.1v4h6.2v3h-6.2v7.2Zm12.6-17.2h3v12.2a2.7 2.7 0 0 0 3 2.3 3 3 0 0 0 1.9-.6 3 3 0 0 0 .8-1.4v-12.5h3v9l-.2 4.4a5 5 0 0 1-.9 2.2 5 5 0 0 1-1.7 1.4 7 7 0 0 1-2.8.5 7 7 0 0 1-3.3-.5 5 5 0 0 1-1.7-1.5 5 5 0 0 1-.8-2l-.3-4.3Zm18.3 17.2v-14.3h-4.4v-2.9h11.7v3h-4.4v14.2Zm9.2-17.2h3v9.3l.1 2.9a2.7 2.7 0 0 0 3 2.3 3 3 0 0 0 1.8-.6 3 3 0 0 0 .8-1.4l.1-3v-9.5h3v9l-.2 4.4a5 5 0 0 1-1 2.2 5 5 0 0 1-1.6 1.4 7 7 0 0 1-2.9.5 7 7 0 0 1-3.2-.5 5 5 0 0 1-1.7-1.5 5 5 0 0 1-.9-2l-.3-4.3Zm15 17.2V1007h6.3a9 9 0 0 1 3.4.5 4 4 0 0 1 1.7 1.6 6 6 0 0 1 .7 2.7 5 5 0 0 1-1 3.2 5 5 0 0 1-3 1.6l1.7 1.5 1.7 2.8 1.8 3.3h-3.6l-2.1-3.7-1.6-2.6-1-.7-1.4-.2h-.6v7.2Zm3-10h2.2l2.7-.1.8-.8.3-1.3a2 2 0 0 0-.4-1.3 2 2 0 0 0-1.1-.7h-4.5Zm11.9-7.2h3v12.2a2.7 2.7 0 0 0 3 2.3 3 3 0 0 0 1.9-.6 3 3 0 0 0 .8-1.4v-12.5h3v9l-.2 4.4a5 5 0 0 1-.9 2.2 5 5 0 0 1-1.7 1.4 7 7 0 0 1-2.8.5 7 7 0 0 1-3.3-.5 5 5 0 0 1-1.7-1.5 5 5 0 0 1-.8-2l-.3-4.3Z" fill="#da271e" id="path20"/><path d="M1143 607c-44.3 1.8-289.3 103.4-101.5 363.5h203c187.8-260-57.2-361.7-101.5-363.5" fill="#47bab8" fill-rule="evenodd" id="path21"/><path d="M1311 759H975c-10.9 54 3 123.7 66.5 211.5h203c63.4-87.8 77.4-157.5 66.5-211.4" fill="#2e2868" id="path22"/><path d="m1200 434.4-11.4 35h-36.8l29.8 21.6-11.4 35 29.8-21.7 29.8 21.6-11.4-35 29.8-21.6h-36.8Z" transform="translate(-57)" style="isolation:isolate" fill="#996214" fill-rule="evenodd" opacity="0.9810000061988831" id="path23"/><path d="m1200 441-9.9 30.4h-32l26 18.8-10 30.4 26-18.8 25.8 18.8-9.9-30.4 25.9-18.8h-32Z" transform="translate(-57)" style="isolation:isolate" fill="#e7c220" fill-rule="evenodd" opacity="0.9810000061988831" id="path24"/><path d="m1143 441-9.9 30.4 9.9 13.6-41.9-13.6 25.9 18.8 16-5.2-25.9 35.6 25.9-18.8V485l25.9 35.6-9.9-30.4-16-5.2 41.9-13.6h-32L1143 485Z" fill="#fce7d8" fill-rule="evenodd" id="path25"/><path d="m1143 441-9.9 30.4 9.9 13.6-41.9-13.6 25.9 18.8 16-5.2-25.9 35.6 25.9-18.8V485l25.9 35.6-9.9-30.4-16-5.2 41.9-13.6h-32L1143 485Z" fill="#ffea6d" fill-rule="evenodd" id="path26"/><path d="M1085.8 1095.7v42.7h-13.3v-28a41 41 0 0 1-6.3 3.5 53 53 0 0 1-7.6 2.6v-9.6a34 34 0 0 0 10.5-4.6 19 19 0 0 0 5.8-6.6Zm15 33.3 13-1.5a6 6 0 0 0 1.8 3.4 5 5 0 0 0 3 1 6 6 0 0 0 5-2.8q1.3-2 2-8.8a16 16 0 0 1-5 3.1 17 17 0 0 1-16.5-3 13 13 0 0 1-4.3-10.1 14 14 0 0 1 2.2-7.7 14 14 0 0 1 6.1-5.1 24 24 0 0 1 9.9-1.8q7.1 0 11.4 2.2a16 16 0 0 1 6.9 6.8q2.6 4.7 2.6 12.5 0 11.3-5.4 16.6t-15 5.3a28 28 0 0 1-9-1.1 14 14 0 0 1-5.4-3.5 15 15 0 0 1-3.4-5.5m24.3-18.8a7 7 0 0 0-2-5.3 6 6 0 0 0-4.7-2 6 6 0 0 0-4.4 1.8 7 7 0 0 0-1.7 5.3 8 8 0 0 0 1.8 5.3 6 6 0 0 0 4.5 1.9 6 6 0 0 0 4.6-1.8 7 7 0 0 0 1.9-5.2m20 18.8 13.1-1.5a6 6 0 0 0 1.8 3.4 5 5 0 0 0 3 1 6 6 0 0 0 5-2.8q1.3-2 1.9-8.8a16 16 0 0 1-4.9 3.1 17 17 0 0 1-16.5-3 13 13 0 0 1-4.4-10.1 14 14 0 0 1 2.2-7.7 14 14 0 0 1 6.2-5.1 24 24 0 0 1 9.8-1.8q7.2 0 11.5 2.2a16 16 0 0 1 6.9 6.8q2.5 4.7 2.5 12.5 0 11.3-5.4 16.6t-15 5.3a28 28 0 0 1-9-1.1 14 14 0 0 1-5.4-3.5 15 15 0 0 1-3.3-5.5m24.3-18.8a7 7 0 0 0-2-5.3 6 6 0 0 0-4.7-2 6 6 0 0 0-4.3 1.8 7 7 0 0 0-1.8 5.3 8 8 0 0 0 1.8 5.3 6 6 0 0 0 4.5 1.9 6 6 0 0 0 4.7-1.8 7 7 0 0 0 1.8-5.2m20 18.8 13-1.5a6 6 0 0 0 1.8 3.4 5 5 0 0 0 3 1 6 6 0 0 0 5-2.8q1.3-2 2-8.8a16 16 0 0 1-5 3.1 17 17 0 0 1-16.5-3 13 13 0 0 1-4.3-10.1 14 14 0 0 1 2.2-7.7 14 14 0 0 1 6.2-5.1 24 24 0 0 1 9.8-1.8q7.1 0 11.4 2.2a16 16 0 0 1 7 6.8q2.5 4.7 2.5 12.5 0 11.3-5.4 16.6t-15 5.3a28 28 0 0 1-9-1.1 14 14 0 0 1-5.4-3.5 15 15 0 0 1-3.3-5.5m24.3-18.8a7 7 0 0 0-2-5.3 6 6 0 0 0-4.7-2 6 6 0 0 0-4.4 1.8 7 7 0 0 0-1.7 5.3 8 8 0 0 0 1.8 5.3 6 6 0 0 0 4.5 1.9 6 6 0 0 0 4.6-1.8 7 7 0 0 0 1.9-5.2" fill="#fff" id="path27"/><circle cx="1143.0023" cy="817.0007" r="45.5311" style="isolation:isolate" opacity="0.9940000176429749" fill="url(#a)" id="circle27"/><path d="M1196.2 821.8h7.6v46.4h-7.6Z" transform="translate(-57)" style="isolation:isolate" fill="#fff" fill-rule="evenodd" opacity="0.9929999709129333" id="path28"/><path d="m1147.7 868.2 11.3 112h82l11.3-112z" transform="translate(-57)" style="isolation:isolate" fill="#fff" fill-rule="evenodd" opacity="0.9990000128746033" id="path29"/><path d="m1090.7 868.2 11.3 112h5.3l-1.4-13.8v-6.7h4v20h3.8v-20h4v20h3.8v-20h4v20h3.8v-20h4v20h3.8v-20h4v20h3.8v-20h4v20h3.9v-20h3.9v20h3.9v-20h3.9v20h3.9v-20h3.9v20h3.9v-20h3.9v6.7l-1.4 13.8h5.3l2-20.5h.5v-4.4l8.8-87h-5.3l-1.8 17.3-14.1 17.4-11.4-17.4 1-17.4h-5.3l-1 17.4L1143 903l-14.4-17.4-1-17.4h-5.3l1 17.4-11.4 17.4-14.2-17.4-1.7-17.4Z" fill="#da271e" id="path30"/><path d="M1011.5 759h260.8c-31.7-8.9-75.3-57.9-126.8-39.1-52.3-24.9-76.6 33.8-134 39.2Z" fill="#fff" stroke="#808181" stroke-miterlimit="15.118109703063965" stroke-width="1.0015747137614142px" id="path31"/><path d="M1145.1 691.2c-7.3 1.1-47.2 52.6-92 80.7h181.6c-40.8-16.7-68-83.2-89.6-80.7Z" fill="#fff" stroke="#808181" stroke-miterlimit="15.118109703063965" stroke-width="0.9902361648251699px" id="path32"/><path d="M1145.1 691.2c-3 .5-12 10-23.7 21.8l3 2.8a21 21 0 0 0 3.9 2.9 8 8 0 0 0 4 1 10 10 0 0 0 4.2-1.8l3.3-3a26 26 0 0 1 3.5-3.2 12 12 0 0 1 4.7-2l3.9.1 3 .6a15 15 0 0 1 4.6 2.4l3.7 3a18 18 0 0 0 4.1 2.7h1.7l1.9-.6a22 22 0 0 0 4-2.7l.3-.2c-11.3-14-21.2-24.8-30-23.8Z" fill="#fff" stroke="#808181" stroke-miterlimit="15.118109703063965" stroke-width="0.9902361648251699px" id="path33"/><path d="M1194.2 879.4h-102.4l-.6-5.7h103.6Z" fill="#010101" id="path34"/><path d="M1060.9 786.6a3 3 0 0 1 .4-1.9 2.4 2.4 0 0 1 3.7-.2h.1a4 4 0 0 1 .8 4.4 2 2 0 0 1-1.8 1 3 3 0 0 1-2-.9 4 4 0 0 1-1.2-2.4" fill="#9b751c" id="path35"/><path d="M1065.6 787a3 3 0 0 0-.9-1.9 2 2 0 0 0-2.8 0v.2a3 3 0 0 0 .6 3.2 2 2 0 0 0 1.5.6 2 2 0 0 0 1.3-.7 2 2 0 0 0 .3-1.4" fill="#d5da2f" id="path36"/><path d="M1057.7 786a3 3 0 0 1 .4-2 2.4 2.4 0 0 1 3.8-.2v.1a4 4 0 0 1 .8 4.3 2 2 0 0 1-1.7 1 3 3 0 0 1-2.1-.8 4 4 0 0 1-1.2-2.5" fill="#9b751c" id="path37"/><path d="M1062.4 786.3a3 3 0 0 0-.8-1.8 2 2 0 0 0-2.8 0 3 3 0 0 0 .5 3.3 2 2 0 0 0 1.5.6 2 2 0 0 0 1.3-.7 2 2 0 0 0 .3-1.4" fill="#d5da2f" id="path38"/><path d="M1061.5 789.5a3 3 0 0 1 .5-2 2.4 2.4 0 0 1 3.7-.2v.1a4 4 0 0 1 .8 4.3 2 2 0 0 1-1.7 1 3 3 0 0 1-2-.8 4 4 0 0 1-1.3-2.4" fill="#9b751c" id="path39"/><path d="M1066.3 789.8a3 3 0 0 0-1-1.8 2 2 0 0 0-2.7 0v.1a3 3 0 0 0 .5 3.2 2 2 0 0 0 1.6.6 2 2 0 0 0 1.3-.7 2 2 0 0 0 .3-1.4" fill="#d5da2f" id="path40"/><path d="M1059.1 789.1a3 3 0 0 1 .4-1.9 2.4 2.4 0 0 1 3.8-.2 4 4 0 0 1 .8 4.4 2 2 0 0 1-1.7 1 3 3 0 0 1-2.1-.8 4 4 0 0 1-1.2-2.5" fill="#9b751c" id="path41"/><path d="M1063.8 789.5a3 3 0 0 0-.9-1.8 2 2 0 0 0-2.7 0 3 3 0 0 0 .5 3.3 2 2 0 0 0 1.5.6 2 2 0 0 0 1.3-.7 2 2 0 0 0 .3-1.4" fill="#d5da2f" id="path42"/><path d="M1048.4 811.5a14 14 0 0 1 .6-5.4l.1-1.3.3-3c.4-2.6.8-3.6 2.6-5.5a43 43 0 0 0 5.2-6.7v-.3a42 42 0 0 0-2-6.2.4.4 0 0 1 .6-.4l1.6 1.7a9 9 0 0 1 1.1 2.6l.4 1 .9-2q.3-.5.7.2l.5 4.5 3.9-.5.4.3v.4l-1.7 1.6 1 .1a6 6 0 0 1 2.5.7l1.8 1.4.2.4a.3.3 0 0 1-.4.3 18 18 0 0 0-5.9-.7 46 46 0 0 0-4.4 7.4 7 7 0 0 1-4 4.3 9 9 0 0 1-2.5 1l-1 .3a3 3 0 0 0-.7 2.6l.5 2.3-.1.4-1.2 1-.3.1-.3-.3z" fill="#8d3a14" id="path43"/><path d="m1058 789.4-.1.5a43 43 0 0 1-5.4 7 8 8 0 0 0-2.5 5.1l-.2 3-.1 1.5a13 13 0 0 0-.6 5l.2 1.5.6-.5-.4-2.3q-.1-2.2.9-3.1l1.2-.5a8 8 0 0 0 2.4-1 7 7 0 0 0 3.7-3.9 45 45 0 0 1 4.6-7.7c.6-.4 3.1 0 5 .3l-.5-.4-2.2-.5q-2-.1-2-1l.4-.5 1-.8-3.2.4-.2-.1-.3-.4-.4-3.5-.4 1.2c0 .1-.1.6-.5.6q-.6 0-1.2-2.1l-.9-2.3-.4-.5a28 28 0 0 1 1.4 5Z" fill="#915b26" id="path44"/><path d="m1058.3 791.7-4.2 8c-1.7 3-3.1 3.8-3.1 3.8a13 13 0 0 1 2.5-6.3Z" fill="#d78e55" id="path45"/><path d="M1046.5 806a3 3 0 0 1 .4-1.9 2.4 2.4 0 0 1 3.7-.4 4 4 0 0 1 1 4.3 2 2 0 0 1-1.7 1 3 3 0 0 1-2-.6 4 4 0 0 1-1.4-2.4" fill="#9b751c" id="path46"/><path d="M1051.3 806.1a3 3 0 0 0-1-1.7 2 2 0 0 0-2.8.1v.1a3 3 0 0 0 .7 3.2 2 2 0 0 0 1.6.5 2 2 0 0 0 1.2-.8 2 2 0 0 0 .3-1.4" fill="#d5da2f" id="path47"/><path d="M1043.3 805.5a3 3 0 0 1 .4-2 2.4 2.4 0 0 1 3.7-.3h.1a4 4 0 0 1 1 4.3 2 2 0 0 1-1.8 1 3 3 0 0 1-2-.6 4 4 0 0 1-1.4-2.4" fill="#9b751c" id="path48"/><path d="M1048.1 805.6a3 3 0 0 0-1-1.8 2 2 0 0 0-2.7.2 3 3 0 0 0 .6 3.3 2 2 0 0 0 1.6.5 2 2 0 0 0 1.2-.8 2 2 0 0 0 .3-1.4" fill="#d5da2f" id="path49"/><path d="M1047.3 808.8a3 3 0 0 1 .4-1.9 2.4 2.4 0 0 1 3.7-.4v.1a4 4 0 0 1 1 4.3 2 2 0 0 1-1.7 1 3 3 0 0 1-2-.7 4 4 0 0 1-1.4-2.4" fill="#9b751c" id="path50"/><path d="M1052 809a3 3 0 0 0-.9-1.8 2 2 0 0 0-2.7.2 3 3 0 0 0 .6 3.2 2 2 0 0 0 1.6.6 2 2 0 0 0 1.2-.8 2 2 0 0 0 .3-1.4" fill="#d5da2f" id="path51"/><path d="M1044.9 808.6a3 3 0 0 1 .3-1.9 2.4 2.4 0 0 1 3.7-.4h.1a4 4 0 0 1 1 4.3 2 2 0 0 1-1.7 1 3 3 0 0 1-2.1-.6 4 4 0 0 1-1.3-2.4" fill="#9b751c" id="path52"/><path d="M1049.6 808.7a3 3 0 0 0-1-1.8 2 2 0 0 0-2.7.2 3 3 0 0 0 .7 3.3 2 2 0 0 0 1.5.5 2 2 0 0 0 1.3-.8 2 2 0 0 0 .2-1.4" fill="#d5da2f" id="path53"/><path d="M1035.3 831.5a14 14 0 0 1 .3-5.5v-1.3l.1-3a9 9 0 0 1 2.4-5.6 43 43 0 0 0 4.9-7v-.2a42 42 0 0 0-2.2-6.2.3.3 0 0 1 .5-.4l1.6 1.6a9 9 0 0 1 1.3 2.6l.4 1 .8-2.1q.4-.4.7.2l.7 4.5 3.9-.7.4.3v.4l-1.5 1.6 1 .1a6 6 0 0 1 2.5.6l1.8 1.3.2.4-.3.3a18 18 0 0 0-6-.4 46 46 0 0 0-4 7.6 7 7 0 0 1-3.8 4.4 9 9 0 0 1-2.5 1.1l-1 .5a3 3 0 0 0-.5 2.5l.6 2.4-.1.3-1.2 1.2h-.3l-.2-.3z" fill="#8d3a14" id="path54"/><path d="M1043.7 808.9v.6a43 43 0 0 1-5 7.2 8 8 0 0 0-2.3 5.2v2.9l-.1 1.6a13 13 0 0 0-.3 5l.2 1.5.6-.5-.5-2.3q-.3-2.3.7-3.1l1.3-.6 2.3-1a7 7 0 0 0 3.5-4.2 45 45 0 0 1 4.2-7.8c.5-.5 3.1-.3 5 0l-.5-.4-2.2-.4q-2-.1-2-.8l.3-.6.9-.8-3 .5-.4-.1-.2-.4-.6-3.5-.4 1.2c0 .2 0 .7-.4.6q-.6 0-1.3-2l-1-2.3-.4-.4a28 28 0 0 1 1.6 4.9" fill="#915b26" id="path55"/><path d="m1044.2 811.2-3.8 8.2c-1.6 3-3 3.9-3 3.9a13 13 0 0 1 2.2-6.3Z" fill="#d78e55" id="path56"/><path d="M1035.7 827a3 3 0 0 1 0-2 2.4 2.4 0 0 1 3.6-1l.1.1a4 4 0 0 1 1.7 4 2 2 0 0 1-1.5 1.4 3 3 0 0 1-2.2-.4 4 4 0 0 1-1.7-2" fill="#9b751c" id="path57"/><path d="M1040.4 826.4a3 3 0 0 0-1.2-1.6 2 2 0 0 0-2.7.6 3 3 0 0 0 1.2 3.1 2 2 0 0 0 1.6.3 2 2 0 0 0 1-1 2 2 0 0 0 .1-1.4" fill="#d5da2f" id="path58"/><path d="M1032.5 827a3 3 0 0 1 0-1.9 2.4 2.4 0 0 1 3.6-1h.1a4 4 0 0 1 1.7 4.1 2 2 0 0 1-1.6 1.3 3 3 0 0 1-2.1-.3 4 4 0 0 1-1.7-2.2" fill="#9b751c" id="path59"/><path d="M1037.2 826.4a3 3 0 0 0-1.3-1.6 2 2 0 0 0-2.7.6 3 3 0 0 0 1.2 3.1 2 2 0 0 0 1.7.3 2 2 0 0 0 1-1 2 2 0 0 0 .1-1.4" fill="#d5da2f" id="path60"/><path d="M1037 829.7a3 3 0 0 1 0-2 2.4 2.4 0 0 1 3.6-1h.1a4 4 0 0 1 1.6 4.1 2 2 0 0 1-1.5 1.4 3 3 0 0 1-2.1-.4 4 4 0 0 1-1.7-2.1" fill="#9b751c" id="path61"/><path d="M1041.7 829a3 3 0 0 0-1.3-1.6 2 2 0 0 0-2.7.7 3 3 0 0 0 1.2 3 2 2 0 0 0 1.6.3 2 2 0 0 0 1.2-1 2 2 0 0 0 0-1.4" fill="#d5da2f" id="path62"/><path d="M1034.5 829.8a3 3 0 0 1 0-1.9 2.4 2.4 0 0 1 3.6-1h.2a4 4 0 0 1 1.6 4.1 2 2 0 0 1-1.5 1.3 3 3 0 0 1-2.2-.3 4 4 0 0 1-1.7-2.2" fill="#9b751c" id="path63"/><path d="M1039.2 829.2a3 3 0 0 0-1.2-1.6 2 2 0 0 0-2.7.6v.1a3 3 0 0 0 1.2 3 2 2 0 0 0 1.6.3 2 2 0 0 0 1.1-1 2 2 0 0 0 0-1.4" fill="#d5da2f" id="path64"/><path d="M1028.8 854a14 14 0 0 1-.6-5.4l-.1-1.3-.5-3c0-2.6 0-3.7 1.5-6a43 43 0 0 0 3.6-7.6v-.3a42 42 0 0 0-3.2-5.7.3.3 0 0 1 .5-.4l1.8 1.3a9 9 0 0 1 1.7 2.3l.6 1 .4-2.3q.3-.4.7 0l1.5 4.4 3.7-1.3.4.2.1.4-1.2 1.8h1a6 6 0 0 1 2.5.2l2 1 .3.3-.3.3a18 18 0 0 0-5.9.6 46 46 0 0 0-2.8 8.2 7 7 0 0 1-3 5l-2.2 1.5-1 .6a3 3 0 0 0 0 2.6l1 2.2v.4l-1 1.3h-.4l-.3-.2z" fill="#8d3a14" id="path65"/><path d="M1033.4 830.3v.6a43 43 0 0 1-3.7 8 8 8 0 0 0-1.3 5.4l.4 3 .2 1.5a13 13 0 0 0 .5 5l.5 1.5.5-.7-1-2.1q-.6-2.3.3-3.2l1.1-.8 2.1-1.4a7 7 0 0 0 2.8-4.7 45 45 0 0 1 2.9-8.4c.4-.6 3-.8 4.9-.8l-.6-.3h-2.2q-2 .1-2.2-.5l.3-.6.8-1-3 1h-.3l-.3-.4-1.1-3.3-.2 1.2c0 .2 0 .7-.3.7q-.6 0-1.6-1.8l-1.4-2-.5-.4a28 28 0 0 1 2.4 4.5" fill="#915b26" id="path66"/><path d="m1034.3 832.5-2.4 8.7c-1 3.3-2.3 4.4-2.3 4.4a13 13 0 0 1 1.1-6.6Z" fill="#d78e55" id="path67"/><path d="M1028.8 847.1a3 3 0 0 1-.4-1.9 2.4 2.4 0 0 1 3.2-1.8h.1a4 4 0 0 1 2.6 3.6 2 2 0 0 1-1.2 1.6 3 3 0 0 1-2.2.2 4 4 0 0 1-2.1-1.7" fill="#9b751c" id="path68"/><path d="M1033.2 845.4a3 3 0 0 0-1.6-1.3 2 2 0 0 0-2.5 1.3 3 3 0 0 0 2 2.7 2 2 0 0 0 1.6-.1 2 2 0 0 0 .8-1.2 2 2 0 0 0-.3-1.4" fill="#d5da2f" id="path69"/><path d="M1025.6 848a3 3 0 0 1-.4-2 2.4 2.4 0 0 1 3.3-1.8 4 4 0 0 1 2.6 3.6 2 2 0 0 1-1.1 1.6 3 3 0 0 1-2.2.2 4 4 0 0 1-2.2-1.7" fill="#9b751c" id="path70"/><path d="M1030 846.2a3 3 0 0 0-1.5-1.3 2 2 0 0 0-2.5 1.3 3 3 0 0 0 2 2.7 2 2 0 0 0 1.5-.1 2 2 0 0 0 .9-1.2 2 2 0 0 0-.3-1.4" fill="#d5da2f" id="path71"/><path d="M1030.6 849.4a3 3 0 0 1-.4-1.9 2.4 2.4 0 0 1 3.2-1.8h.2a4 4 0 0 1 2.5 3.5 2 2 0 0 1-1.1 1.7 3 3 0 0 1-2.2.2 4 4 0 0 1-2.2-1.7" fill="#9b751c" id="path72"/><path d="M1035 847.6a3 3 0 0 0-1.5-1.2 2 2 0 0 0-2.5 1.3 3 3 0 0 0 2 2.7 2 2 0 0 0 1.5-.1 2 2 0 0 0 .9-1.3 2 2 0 0 0-.3-1.4" fill="#d5da2f" id="path73"/><path d="M1028.3 850.2a3 3 0 0 1-.4-2 2.4 2.4 0 0 1 3.2-1.8h.1a4 4 0 0 1 2.6 3.6 2 2 0 0 1-1.2 1.7 3 3 0 0 1-2.2.1 4 4 0 0 1-2.1-1.6" fill="#9b751c" id="path74"/><path d="M1032.7 848.4a3 3 0 0 0-1.6-1.2 2 2 0 0 0-2.4 1.2 3 3 0 0 0 1.9 2.7 2 2 0 0 0 1.6 0 2 2 0 0 0 .8-1.3 2 2 0 0 0-.3-1.4" fill="#d5da2f" id="path75"/><path d="M1028.5 875a14 14 0 0 1-1.8-5.2l-.5-1.2-1.1-2.8c-.7-2.5-.9-3.6 0-6a43 43 0 0 0 1.7-8.4l-.1-.2a42 42 0 0 0-4.5-4.8.3.3 0 0 1 .3-.6l2.2.9a9 9 0 0 1 2.1 1.8l.8.8V847q.2-.5.6 0l2.5 3.7 3.3-2h.4l.2.4-.8 2 1-.2a6 6 0 0 1 2.5-.5l2.2.5.4.3a.3.3 0 0 1-.2.4 18 18 0 0 0-5.6 2 46 46 0 0 0-.8 8.6 7 7 0 0 1-1.6 5.5 9 9 0 0 1-1.9 2l-.8.8a3 3 0 0 0 .6 2.6l1.4 1.9.1.4-.6 1.4-.3.2-.3-.1z" fill="#8d3a14" id="path76"/><path d="m1027.3 850.9.2.5a43 43 0 0 1-1.7 8.7 8 8 0 0 0 0 5.6l1.1 2.7.6 1.5a13 13 0 0 0 1.7 4.8l.8 1.2.3-.7-1.4-1.9q-1.1-2-.6-3.2l1-1 1.7-1.9a7 7 0 0 0 1.6-5.1 45 45 0 0 1 .7-9c.3-.6 2.8-1.4 4.6-1.9h-.6l-2.2.4q-1.8.7-2.2 0l.1-.6.5-1.1-2.6 1.6h-.3l-.4-.2-1.9-3 .2 1.3q.1.4-.2.7-.6.3-2-1.4l-1.8-1.6-.6-.2a28 28 0 0 1 3.4 3.8" fill="#915b26" id="path77"/><path d="m1028.7 852.8-.2 9c-.3 3.5-1.2 4.8-1.2 4.8a13 13 0 0 1-.5-6.7Z" fill="#d78e55" id="path78"/><path d="M1026.6 874.9a3 3 0 0 1-.8-1.8 2.4 2.4 0 0 1 2.7-2.5h.2a4 4 0 0 1 3.2 3 2 2 0 0 1-.7 1.8 3 3 0 0 1-2.2.7 4 4 0 0 1-2.4-1.2" fill="#9b751c" id="path79"/><path d="M1030.5 872.2a3 3 0 0 0-1.8-.9 2 2 0 0 0-2.1 1.8 3 3 0 0 0 2.4 2.3 2 2 0 0 0 1.6-.5 2 2 0 0 0 .5-1.4 2 2 0 0 0-.6-1.3" fill="#d5da2f" id="path80"/><path d="M1023.7 876.3a3 3 0 0 1-.8-1.7 2.4 2.4 0 0 1 2.8-2.5 4 4 0 0 1 3.3 3 2 2 0 0 1-.7 1.8 3 3 0 0 1-2.2.6 4 4 0 0 1-2.4-1.2" fill="#9b751c" id="path81"/><path d="M1027.6 873.7a3 3 0 0 0-1.8-1 2 2 0 0 0-2.1 1.8v.1a3 3 0 0 0 2.4 2.2 2 2 0 0 0 1.6-.5 2 2 0 0 0 .6-1.3 2 2 0 0 0-.7-1.3" fill="#d5da2f" id="path82"/><path d="M1028.9 876.7a3 3 0 0 1-.8-1.7 2.4 2.4 0 0 1 2.7-2.5h.2a4 4 0 0 1 3.2 2.9 2 2 0 0 1-.7 1.9 3 3 0 0 1-2.2.6 4 4 0 0 1-2.4-1.2" fill="#9b751c" id="path83"/><path d="M1032.8 874a3 3 0 0 0-1.8-.8 2 2 0 0 0-2.1 1.7v.1a3 3 0 0 0 2.4 2.2 2 2 0 0 0 1.6-.5 2 2 0 0 0 .5-1.3 2 2 0 0 0-.6-1.3" fill="#d5da2f" id="path84"/><path d="M1026.8 878a3 3 0 0 1-.8-1.8 2.4 2.4 0 0 1 2.7-2.5h.1a4 4 0 0 1 3.3 3 2 2 0 0 1-.8 1.8 3 3 0 0 1-2 .6 4 4 0 0 1-2.5-1.2" fill="#9b751c" id="path85"/><path d="M1030.7 875.3a3 3 0 0 0-1.8-.9 1.8 1.8 0 0 0-2.2 1.8 3 3 0 0 0 2.5 2.2 2 2 0 0 0 1.5-.4 2 2 0 0 0 .6-1.4 2 2 0 0 0-.6-1.3" fill="#d5da2f" id="path86"/><path d="M1032.2 902.1a14 14 0 0 1-2.8-4.6l-.8-1-1.7-2.6c-1.2-2.3-1.6-3.3-1.3-5.9a43 43 0 0 0 0-8.5l-.2-.2a42 42 0 0 0-5.4-3.7.4.4 0 0 1 .2-.7l2.3.4a9 9 0 0 1 2.5 1.4l1 .6-.7-2.3q.1-.5.7-.2l3.2 3.2 2.8-2.7.4-.1.3.4-.3 2.2.9-.5a6 6 0 0 1 2.4-1h2.2l.4.2-.1.4a18 18 0 0 0-5 3.1 46 46 0 0 0 1 8.6 7 7 0 0 1-.4 5.8 9 9 0 0 1-1.4 2.3l-.6 1c-.2.8.5 1.7 1 2.4l1.9 1.5.2.4-.3 1.5-.3.3h-.4z" fill="#8d3a14" id="path87"/><path d="m1026 878.9.3.5a43 43 0 0 1 .1 8.8 8 8 0 0 0 1.2 5.5l1.6 2.4 1 1.3a13 13 0 0 0 2.6 4.4l1 1 .2-.8-1.7-1.5q-1.6-1.7-1.3-3l.7-1.2a8 8 0 0 0 1.3-2.2 7 7 0 0 0 .5-5.4 45 45 0 0 1-1.2-8.9c.2-.7 2.4-2 4-2.8h-.5l-2 .9q-1.7 1-2.2.5v-.6l.2-1.3-2.2 2.2-.3.1-.4-.1-2.5-2.5.4 1.2c0 .1.3.5 0 .7q-.5.4-2.2-1l-2.2-1.1-.6-.1a28 28 0 0 1 4.2 3" fill="#915b26" id="path88"/><path d="m1027.7 880.5 1.7 8.8c.5 3.4-.2 5-.2 5a13 13 0 0 1-1.8-6.5Z" fill="#d78e55" id="path89"/><path d="M1027.2 898.3a3 3 0 0 1-1.2-1.7 2.7 2.7 0 0 1 2.2-3.4h.1a3.5 3.5 0 0 1 3.8 2.4 3 3 0 0 1-.4 2.2 3 3 0 0 1-1.9 1.2 3 3 0 0 1-2.6-.7" fill="#9b751c" id="path90"/><path d="M1030.5 894.4a3 3 0 0 0-2-.5 2 2 0 0 0-1.7 2.4v.1a3 3 0 0 0 2.8 1.9 2 2 0 0 0 1.5-.9 2 2 0 0 0 .2-1.6 2 2 0 0 0-.8-1.4" fill="#d5da2f" id="path91"/><path d="M1024.6 900.6a3 3 0 0 1-1.1-1.8 2.7 2.7 0 0 1 2.2-3.4h.1a3.5 3.5 0 0 1 3.8 2.5 3 3 0 0 1-.4 2.2 3 3 0 0 1-2 1.2 3 3 0 0 1-2.6-.7" fill="#9b751c" id="path92"/><path d="M1028 896.7a3 3 0 0 0-2-.5 2 2 0 0 0-1.8 2.4 3 3 0 0 0 2.9 2 2 2 0 0 0 1.4-1 2 2 0 0 0 .3-1.6 2 2 0 0 0-.8-1.3" fill="#d5da2f" id="path93"/><path d="M1029.8 899.8a3 3 0 0 1-1.2-1.7 2.7 2.7 0 0 1 2.2-3.5h.2a3.5 3.5 0 0 1 3.8 2.5 3 3 0 0 1-.4 2.2 3 3 0 0 1-2 1.2 3 3 0 0 1-2.6-.7" fill="#9b751c" id="path94"/><path d="M1033.1 896a3 3 0 0 0-2-.6 2 2 0 0 0-1.7 2.4v.1a3 3 0 0 0 2.9 1.9 2 2 0 0 0 1.4-.9 2 2 0 0 0 .3-1.7 2 2 0 0 0-.9-1.3" fill="#d5da2f" id="path95"/><path d="M1028 901.7a3 3 0 0 1-1.2-1.8 2.7 2.7 0 0 1 2.2-3.4h.1a3.5 3.5 0 0 1 3.8 2.5 3 3 0 0 1-.4 2.2 3 3 0 0 1-1.9 1.2 3 3 0 0 1-2.6-.7" fill="#9b751c" id="path96"/><path d="M1031.3 897.8a3 3 0 0 0-2-.5 2 2 0 0 0-1.7 2.4 3 3 0 0 0 2.8 2 2 2 0 0 0 1.5-1 2 2 0 0 0 .2-1.6 2 2 0 0 0-.8-1.3" fill="#d5da2f" id="path97"/><path d="M1038.3 927.3a15 15 0 0 1-3.8-4.5l-1-1-2.1-2.5a10 10 0 0 1-2.5-6.2 54 54 0 0 0-1.8-9.5l-.2-.1c-1.3-1-6-2.9-6-2.9l-.3-.4.3-.3 2.3-.2a8 8 0 0 1 2.8 1l1 .4-1-2.3a.4.4 0 0 1 .6-.4l3.8 2.8 2.1-3.7a.4.4 0 0 1 .5-.2l.3.3.1 2.5.8-.7a6 6 0 0 1 2.1-1.6l2.2-.6a.4.4 0 0 1 .5.2l-.1.5c-2 1.8-4.3 4-4.3 4.6a57 57 0 0 0 2.9 9.3 9 9 0 0 1 .7 6.5 11 11 0 0 1-.9 2.9l-.4 1.2a4 4 0 0 0 1.6 2.4l2 1.3.3.4v1.8l-.1.3h-.4z" fill="#8d3a14" id="path98"/><path d="m1027.4 902.9.4.4a54 54 0 0 1 2 9.8 9 9 0 0 0 2.2 5.8l2.1 2.3 1.1 1.3a14 14 0 0 0 3.6 4.2l1.2.9v-1l-2-1.2a4 4 0 0 1-1.9-3l.5-1.5a10 10 0 0 0 .8-2.8 9 9 0 0 0-.7-6 56 56 0 0 1-2.9-9.6c0-.8 2-2.8 3.4-4.1l-.6.1-1.8 1.5q-1.5 1.6-2 1.1l-.2-.8V899l-1.7 3-.3.2-.4-.1-3-2.2.7 1.2c0 .2.4.6.1.9q-.4.4-2.4-.6l-2.3-.8h-.6a26 26 0 0 1 4.7 2.4Z" fill="#915b26" id="path99"/><path d="m1029.4 904.2 3.5 9.5c1.1 3.7.8 5.5.8 5.5a15 15 0 0 1-3.1-6.7Z" fill="#d78e55" id="path100"/><path d="M1034 919.3a3 3 0 0 1-1.3-1.6 2.7 2.7 0 0 1 1.8-3.6h.1a3.5 3.5 0 0 1 4 2 3 3 0 0 1 0 2.2 3 3 0 0 1-1.8 1.4 3 3 0 0 1-2.7-.4" fill="#9b751c" id="path101"/><path d="M1037 915a3 3 0 0 0-2.1-.2 2 2 0 0 0-1.4 2.6 3 3 0 0 0 3 1.6 2 2 0 0 0 1.3-1 2 2 0 0 0 .1-1.7 2 2 0 0 0-1-1.2" fill="#d5da2f" id="path102"/><path d="M1031.8 921.8a3 3 0 0 1-1.3-1.6 2.7 2.7 0 0 1 1.8-3.6 3.5 3.5 0 0 1 4.1 2 3 3 0 0 1 0 2.3 3 3 0 0 1-1.9 1.4 3 3 0 0 1-2.7-.5" fill="#9b751c" id="path103"/><path d="M1034.7 917.6a3 3 0 0 0-2-.3 2 2 0 0 0-1.5 2.6v.1a3 3 0 0 0 3 1.5 2 2 0 0 0 1.4-1 2 2 0 0 0 0-1.7 2 2 0 0 0-1-1.2" fill="#d5da2f" id="path104"/><path d="M1036.8 920.5a3 3 0 0 1-1.3-1.6 2.7 2.7 0 0 1 1.8-3.7h.1a3.5 3.5 0 0 1 4 2 3 3 0 0 1 0 2.3 3 3 0 0 1-1.9 1.4 3 3 0 0 1-2.7-.4" fill="#9b751c" id="path105"/><path d="M1039.7 916.3a3 3 0 0 0-2-.4 2 2 0 0 0-1.5 2.7 3 3 0 0 0 3.1 1.6 2 2 0 0 0 1.3-1 2 2 0 0 0 .1-1.7 2 2 0 0 0-1-1.2" fill="#d5da2f" id="path106"/><path d="M1035.2 922.6a3 3 0 0 1-1.3-1.7 2.7 2.7 0 0 1 1.8-3.6h.1a3.5 3.5 0 0 1 4 2 3 3 0 0 1 0 2.3 3 3 0 0 1-1.9 1.4 3 3 0 0 1-2.7-.4" fill="#9b751c" id="path107"/><path d="M1038.1 918.3a3 3 0 0 0-2-.3 2 2 0 0 0-1.5 2.6v.1a3 3 0 0 0 3 1.5 2 2 0 0 0 1.4-1 2 2 0 0 0 .1-1.7 2 2 0 0 0-1-1.2" fill="#d5da2f" id="path108"/><path d="M1048.4 946.8a15 15 0 0 1-4.2-4l-1-1-2.6-2a10 10 0 0 1-3.1-6 54 54 0 0 0-3-9.2l-.1-.1c-1.4-.9-6.3-2.2-6.3-2.2a.4.4 0 0 1-.4-.4l.4-.3 2.2-.4a8 8 0 0 1 2.8.6l1.1.3-1.3-2.2a.4.4 0 0 1 .6-.5l4 2.4 1.8-4 .4-.2.4.3.4 2.5.7-.8a6 6 0 0 1 2-1.9l2-.8a.4.4 0 0 1 .5.2v.4a20 20 0 0 0-3.8 5.1 57 57 0 0 0 4 9 9 9 0 0 1 1.4 6.3 11 11 0 0 1-.5 3l-.3 1.2a4 4 0 0 0 1.8 2.2l2.3 1 .2.4.3 1.8-.2.3-.3.1z" fill="#8d3a14" id="path109"/><path d="m1034.8 923.8.5.4a54 54 0 0 1 3 9.5 9 9 0 0 0 3 5.5l2.3 2 1.2 1.2a14 14 0 0 0 4 3.8l1.4.7-.1-.9-2.2-1a4 4 0 0 1-2.2-2.8l.3-1.6.5-2.8a9 9 0 0 0-1.4-6 56 56 0 0 1-4-9.1c0-.8 1.6-3 2.9-4.5l-.6.2-1.6 1.7c-.9 1-1.3 1.7-1.8 1.3l-.3-.7-.2-1.4-1.3 3.1-.3.2h-.4l-3.2-1.8.8 1.1q.3.3.2.8-.4.5-2.4-.2l-2.4-.6-.6.1a26 26 0 0 1 4.9 1.8" fill="#915b26" id="path110"/><path d="m1037 925 4.5 9c1.6 3.4 1.5 5.3 1.5 5.3a15 15 0 0 1-4-6.3Z" fill="#d78e55" id="path111"/><path d="M1042.7 940a3 3 0 0 1-1.7-1.3 2.7 2.7 0 0 1 1-4 3.5 3.5 0 0 1 4.4 1 3 3 0 0 1 .5 2.2 3 3 0 0 1-1.5 1.8 3 3 0 0 1-2.7.2" fill="#9b751c" id="path112"/><path d="M1044.5 935.1a3 3 0 0 0-2 .2 2 2 0 0 0-.8 3 3 3 0 0 0 3.3.7 2 2 0 0 0 1-1.3 2 2 0 0 0-.2-1.6 2 2 0 0 0-1.3-1" fill="#d5da2f" id="path113"/><path d="M1041.1 943a3 3 0 0 1-1.7-1.3 2.7 2.7 0 0 1 1-4 3.5 3.5 0 0 1 4.4 1 3 3 0 0 1 .5 2.2 3 3 0 0 1-1.5 1.8 3 3 0 0 1-2.7.2" fill="#9b751c" id="path114"/><path d="M1042.9 938.2a3 3 0 0 0-2 .1 2 2 0 0 0-.8 3 3 3 0 0 0 3.3.7 2 2 0 0 0 1-1.3 2 2 0 0 0-.2-1.6 2 2 0 0 0-1.3-1" fill="#d5da2f" id="path115"/><path d="M1045.7 940.4a3 3 0 0 1-1.7-1.2 2.7 2.7 0 0 1 .9-4h.1a3.5 3.5 0 0 1 4.4 1 3 3 0 0 1 .4 2.2 3 3 0 0 1-1.4 1.8 3 3 0 0 1-2.7.2" fill="#9b751c" id="path116"/><path d="M1047.5 935.6a3 3 0 0 0-2 .2 2 2 0 0 0-.8 2.9 3 3 0 0 0 3.3.8 2 2 0 0 0 1-1.3 2 2 0 0 0-.3-1.6 2 2 0 0 0-1.2-1" fill="#d5da2f" id="path117"/><path d="M1044.6 942.8a3 3 0 0 1-1.7-1.2 2.7 2.7 0 0 1 1-4 3.5 3.5 0 0 1 4.5 1 3 3 0 0 1 .4 2.2 3 3 0 0 1-1.4 1.8 3 3 0 0 1-2.8.2" fill="#9b751c" id="path118"/><path d="M1046.4 938a3 3 0 0 0-2 .2 2 2 0 0 0-.8 2.9 3 3 0 0 0 3.3.8 2 2 0 0 0 1-1.3 2 2 0 0 0-.2-1.6 2 2 0 0 0-1.3-1" fill="#d5da2f" id="path119"/><path d="M1063.2 963.2a15 15 0 0 1-5.1-2.8l-1.2-.7a14 14 0 0 1-3-1.5 10 10 0 0 1-4.4-5 54 54 0 0 0-5-8.2l-.3-.1c-1.5-.6-6.6-.6-6.6-.6l-.4-.3a.4.4 0 0 1 .2-.5l2.1-.9a8 8 0 0 1 2.9 0h1.1l-1.7-1.8a.4.4 0 0 1 .4-.6l4.5 1.3.8-4.2.3-.3.4.2 1 2.3.5-1a6 6 0 0 1 1.4-2.3l1.9-1.2h.5v.5a19 19 0 0 0-2.4 5.8 57 57 0 0 0 6 7.7 9 9 0 0 1 2.9 5.8 11 11 0 0 1 .2 3v1.4a4 4 0 0 0 2.3 1.7l2.4.5.4.2.6 1.7v.4l-.4.1z" fill="#8d3a14" id="path120"/><path d="m1044.5 944.1.6.3a54 54 0 0 1 5.1 8.5 9 9 0 0 0 4.2 4.7l2.8 1.4 1.5.8a14 14 0 0 0 4.7 2.7l1.5.4-.3-.8-2.4-.5a4 4 0 0 1-2.7-2.2l-.2-1.6-.1-2.8a9 9 0 0 0-2.8-5.5 56 56 0 0 1-6-8c-.3-.7.8-3.2 1.7-5l-.5.4-1.2 2q-.7 1.9-1.5 1.7l-.4-.6-.5-1.4-.5 3.4-.2.2-.5.1-3.5-1 1 1q.5 0 .4.7 0 .5-2.4.3h-2.5l-.5.2a26 26 0 0 1 5.2.6" fill="#915b26" id="path121"/><path d="m1046.9 944.7 6.5 7.7a12 12 0 0 1 2.7 4.9 15 15 0 0 1-5.3-5.2Z" fill="#d78e55" id="path122"/><path d="M1191.8 983.5c5 4.2 10.4 8 6.3 18.9 7.5-6.6 17-13.1 7.1-20.2 11.2-1.5 17.4 1.3 8.8 16.7 9.2-1.2 18.7-9.5 7.7-19.6 5.5 0 15.7-3.6 10.4 19.2 8.6-4.5 14.5-11 8.8-21.8 12.9-2.5 14 12 6 18.7 12.5 2.3 21.7-14.1 10.4-19.7 8.6 0 19.3 9.8 6.4 23.4 4.1-.9 42-11.2-1.2-28.4a159 159 0 0 0-70.7 12.8Z" fill="#03933f" stroke="#057333" stroke-miterlimit="15.118109703063965" stroke-width="1.0015747137614142px" id="path123"/><path d="M1200.6 982.8c8.7 3.2 7 8.1 1 13.8 2.2-5.2 4.5-10.4-1-13.8m17.5-3.8c4.3 4 9.7 7.4 2.4 16 2.7-6.3 2.2-11.8-2.4-16m-11.5.4c26-6.8 39.6-6.7 54.2-7a476 476 0 0 0-54.2 7m31-2.5c4.3 7 2.3 12.6-2.2 17.6 2.8-5.7 4-11.6 2.2-17.6m14.6-2.2c7.4 4.2 10.1 9.4 4.7 16.4 2.9-8.1-.9-12.3-4.7-16.4m10.9-1.1c5.3 2.6 28.3 9.4 7.3 21.6 4-2.9 14.4-11.5-7.3-21.6" fill="#41ad54" id="path124"/><path d="M1094.1 983.5c-4.8 4.2-10.3 8-6.2 18.9-7.5-6.6-17-13.1-7.1-20.2-11.2-1.5-17.4 1.3-8.8 16.7-9.2-1.2-18.7-9.5-7.7-19.6-5.5 0-15.7-3.6-10.4 19.2-8.6-4.5-14.5-11-8.8-21.8-12.9-2.5-14 12-6 18.7-12.5 2.3-21.7-14.1-10.4-19.7-8.6 0-19.3 9.8-6.4 23.4-4.1-.9-42-11.2 1.2-28.4a159 159 0 0 1 70.6 12.8Z" fill="#03933f" stroke="#057333" stroke-miterlimit="15.118109703063965" stroke-width="1.0015747137614142px" id="path125"/><path d="M1085.4 982.8c-8.7 3.2-7 8.1-1 13.8-2.2-5.2-4.5-10.4 1-13.8m-17.5-3.8c-4.3 4-9.7 7.4-2.4 16-2.7-6.3-2.2-11.8 2.4-16m11.5.4c-26-6.8-39.6-6.7-54.2-7a476 476 0 0 1 54.2 7m-31-2.5c-4.3 7-2.3 12.6 2.2 17.6-2.8-5.7-4-11.6-2.2-17.6m-14.6-2.2c-7.4 4.2-10.1 9.4-4.7 16.4-2.9-8.1.9-12.3 4.7-16.4m-10.9-1.1c-5.3 2.6-28.3 9.4-7.3 21.6-4-2.9-14.4-11.5 7.3-21.6" fill="#41ad54" id="path126"/><path d="M1217.5 974.8a10 10 0 0 1-5.4 4 12 12 0 0 1-3.3.8c-7.1 7.2-30.4 15.6-42.3 11.6-10.5-2.7-9.6-9.4 1.8-9.3 13.1.8 27.7.8 37.8-4.8a11 11 0 0 1 .8-2.9 9 9 0 0 1 4.1-5Z" fill="#8d3a14" id="path127"/><path d="m1208.7 978.8-.5.2c-3.3 3.4-11 7.3-19 9.8s-16.8 3.5-22.4 1.6a14 14 0 0 1-5.5-2.4q-1.6-1.4-1.3-2.3.3-1.3 2-2a16 16 0 0 1 6.3-1c13.1.9 27.9.9 38.2-4.8l.4-.6a16 16 0 0 1 2.3-5.6l5.4 5a22 22 0 0 1-5.9 2.1" fill="#925a25" id="path128"/><path d="M1205.7 980c-4.7 3.9-29.9 10.4-42 6.4 9.7 5 28.4 3 42-6.4" fill="#d78e55" id="path129"/><path d="M1211.8 785.7v.2a3 3 0 0 1-2 1 9 9 0 0 1-6.3-2c-3.2-2.4-4.7-5.8-3.3-7.7a3 3 0 0 1 2-1 9 9 0 0 1 6.3 2c3 2.3 4.5 5.6 3.3 7.5" fill="#8d3a14" id="path130"/><path d="M1208.3 778.4c3.1 2.3 4.5 5.6 3.2 7.3s-4.8 1.3-7.9-1-4.5-5.6-3.2-7.3 4.9-1.3 8 1" fill="#ca2538" fill-rule="evenodd" id="path131"/><path d="M1204.1 779.2c1.2 1.2 1.5 2.6.9 3.2s-2 .3-3.2-.9-1.5-2.6-.8-3.2 2-.2 3.1 1" fill="#ea536f" id="path132"/><path d="m1202 778.7 4.2 2.7c1.1.4 3.7 2.6 3.4 3s-2.8-1.8-3.7-2.5Zm-.1-1.1a10 10 0 0 1 3 1c1.3.7 1.6 1.2 2.4 1.6a6 6 0 0 1 2 2q0 .3-.8-.4l-2.1-1.7-2.4-1.8zm3 4.6a10 10 0 0 0 2.7 2l1.8 1.1q0 .3-.7 0l-1.8-1zm3.5-2.4s2.1 1.7 2.2 3.2c.1 1.4.5.7.6.5a5 5 0 0 0-2.8-3.7m-7.4-1a13 13 0 0 0 1.9 3.1l1.5 1.3 2 1.7c.8.6.3.6-.4.3l-2-1.6-1.9-2.4Z" fill="#010101" id="path133"/><path d="M1216.7 776.8a11.5 11.5 0 0 1 .6 15.1c1.8 2.6 3.4 7.5 2.6 7.5 0 0-2.5-3.8-5.1-5.2a11.5 11.5 0 0 1-16.5-15.2l12.4 8.4-7.6-12.9a11.5 11.5 0 0 1 13.6 2.3Z" fill="#ea8527" stroke="#903d14" stroke-miterlimit="12.041481675693552" stroke-width="0.46961779504137974px" fill-rule="evenodd" id="path134"/><path d="M1199 781.1a10.1 10.1 0 1 0 6-5.8l7 11.4a1.4 1.4 0 0 1-2 1.8Z" fill="#f9c393" stroke="#903d14" stroke-miterlimit="12.041481675693552" stroke-width="0.46961779504137974px" fill-rule="evenodd" id="path135"/><path d="M1200.3 784.1a8 8 0 0 0 2 6.3 8.4 8.4 0 1 0 12.1-11.5 8 8 0 0 0-6.4-2.2l5.4 9.1a3.1 3.1 0 0 1-4.4 4.2Z" fill="#fce6d8" fill-rule="evenodd" id="path136"/><path d="m1226.8 802.6-.2.2a4 4 0 0 1-2.5.7 11 11 0 0 1-6.7-3.4c-3.1-3-4-7-2-8.6a4 4 0 0 1 2.5-.8 11 11 0 0 1 6.6 3.4c3 3 4 6.8 2.3 8.5" fill="#8d3a14" id="path137"/><path d="M1224.3 794.3c3 3 4 6.7 2.1 8.3s-5.8.4-8.8-2.6-4-6.7-2-8.3 5.7-.4 8.7 2.6" fill="#ca2538" fill-rule="evenodd" id="path138"/><path d="M1219.3 794.3c1 1.4 1.2 3 .4 3.6s-2.4-.2-3.5-1.6-1.1-3-.3-3.6 2.4.2 3.5 1.6" fill="#ea536f" id="path139"/><path d="m1217 793.3 4.3 3.7c1.1.7 3.6 3.5 3.2 3.8s-2.8-2.4-3.7-3.3Zm0-1.1a12 12 0 0 1 3.4 1.5c1.3 1 1.6 1.7 2.4 2.3a7 7 0 0 1 1.8 2.4q0 .4-.8-.6c-.8-1-1.5-1.4-2-2.1l-2.4-2.4zm2.6 5.3a11 11 0 0 0 2.6 2.8q2 1.2 1.9 1.4-.2.3-.8-.1l-2-1.5zm4.4-1.7s2.2 2.2 2 3.8c-.2 1.4.4.8.5.5a5 5 0 0 0-2.5-4.4m-8.2-2.5a13 13 0 0 0 1.5 3.6l1.5 1.6 2 2.2c.7.7.1.7-.5.2l-2-2-1.7-2.9Z" fill="#010101" id="path140"/><path d="M1234.2 794.2a11.6 11.6 0 0 1-2.6 16c1.6 3 2.4 8.4 1.5 8.3 0 0-2-4.5-4.8-6.4-6.7 2.7-14.6-.2-17.5-6.4a12 12 0 0 1 2-12.7l12.4 11.1-6.1-15a14 14 0 0 1 15 5.1Z" fill="#ea8527" stroke="#903d14" stroke-width="0.15600000321865082px" fill-rule="evenodd" id="path141"/><path d="M1213 795.3a10 10 0 0 0 .2 11.4 12.3 12.3 0 0 0 16.2 3.2c5.4-3.3 7-9.9 3.4-14.9a12 12 0 0 0-11.5-4.7l5.3 13.3a1.4 1.4 0 0 1-.9 1.9 2 2 0 0 1-1.7-.3Z" fill="#f9c393" stroke="#903d14" stroke-width="0.15600000321865082px" fill-rule="evenodd" id="path142"/><path d="M1214 798.7a8 8 0 0 0 .8 7 10 10 0 0 0 13.5 2.6 8.5 8.5 0 0 0 2.8-12.3q-2.6-3.3-6.8-3.6l4.2 10.6a3.2 3.2 0 0 1-2.1 4.2 4 4 0 0 1-3.8-.7Z" fill="#fce6d8" fill-rule="evenodd" id="path143"/><path d="m1240 822.1-.2.2a4 4 0 0 1-2.5.5 10 10 0 0 1-6-3.8c-2.6-3.3-3-7-1-8.5a4 4 0 0 1 2.5-.5 10 10 0 0 1 6 3.8c2.5 3.1 3 6.8 1.2 8.3" fill="#8d3a14" id="path144"/><path d="M1238.5 814c2.6 3 3 6.7 1.2 8s-5.5 0-8-3.2-3.2-6.8-1.3-8.1 5.5 0 8.1 3.2" fill="#ca2538" fill-rule="evenodd" id="path145"/><path d="M1233.8 813.5c.8 1.5.8 3 0 3.5s-2.3-.4-3.1-1.8-.9-3 0-3.5 2.3.4 3.1 1.8" fill="#ea536f" id="path146"/><path d="m1231.7 812.4 3.7 3.9c1 .7 3 3.6 2.7 4s-2.5-2.6-3.2-3.6Zm.2-1.1a12 12 0 0 1 3 1.8c1.1 1 1.3 1.7 2 2.3a6 6 0 0 1 1.5 2.5q-.1.4-.8-.6l-1.7-2.2-2-2.5zm1.9 5.4a11 11 0 0 0 2.1 2.8q1.9 1.4 1.6 1.6-.4.3-.7-.2c-.3-.5-1.3-1.1-1.6-1.6zm4.3-1.4s1.8 2.3 1.4 3.9c-.3 1.3.4.8.5.6a5 5 0 0 0-1.9-4.5m-7.5-3a12 12 0 0 0 1 3.6l1.2 1.6 1.7 2.3c.6.8 0 .7-.5.2a12 12 0 0 1-3-5Z" fill="#010101" id="path147"/><path d="M1247.9 814.7a11.3 11.3 0 0 1-4 15.1c1.1 3 1.3 8.3.5 8.1 0 .1-1.5-4.4-3.9-6.5a13 13 0 0 1-16-7.7 11 11 0 0 1 3.2-12l10.6 11.8-4.2-15a13 13 0 0 1 13.8 6.2Z" fill="#ea8527" stroke="#903d14" stroke-width="0.15600000321865082px" fill-rule="evenodd" id="path148"/><path d="M1227.8 814a10 10 0 0 0-1.1 11 11.6 11.6 0 0 0 15 4.4c5.5-2.7 7.7-9 4.8-14a11 11 0 0 0-10.5-5.5l3.8 13.2a1.4 1.4 0 0 1-1.1 1.7 2 2 0 0 1-1.5-.4Z" fill="#f9c393" stroke="#903d14" stroke-width="0.15600000321865082px" fill-rule="evenodd" id="path149"/><path d="M1228.3 817.3a8 8 0 0 0 0 6.8 9.5 9.5 0 0 0 12.5 3.7 8.3 8.3 0 0 0 4-11.6q-2.1-3.3-6.1-4l3 10.5a3.2 3.2 0 0 1-2.5 3.9 4 4 0 0 1-3.5-1Z" fill="#fce6d8" fill-rule="evenodd" id="path150"/><path d="m1250.5 844.8-.2.1a3 3 0 0 1-2.3.4 9 9 0 0 1-5.4-4.4c-2.2-3.5-2.5-7.6-.5-9a3 3 0 0 1 2.4-.3c1.8.4 3.9 2 5.3 4.3 2.2 3.5 2.5 7.4.7 8.9" fill="#8d3a14" id="path151"/><path d="M1249.6 836c2.2 3.5 2.5 7.4.6 8.7s-5.2-.5-7.4-4-2.4-7.2-.5-8.5 5.1.4 7.3 3.9" fill="#ca2538" fill-rule="evenodd" id="path152"/><path d="M1245.2 835.4c.7 1.6.6 3.2-.2 3.6s-2.1-.5-2.8-2.1-.6-3.2.3-3.6 2 .5 2.7 2" fill="#ea536f" id="path153"/><path d="m1243.4 834 3.1 4.3c1 .9 2.7 4 2.3 4.3s-2.2-2.8-2.8-3.8Zm.2-1.1a11 11 0 0 1 2.6 2c1 1.3 1.2 2 1.8 2.7a7 7 0 0 1 1.2 2.6q-.2.5-.6-.6-.7-1.5-1.5-2.5l-1.6-2.7zm1.4 5.8a11 11 0 0 0 1.9 3q1.5 1.7 1.3 1.8-.3.2-.6-.3c-.3-.5-1.2-1.2-1.5-1.7zm4.2-1.2s1.5 2.6 1 4.1c-.3 1.4.3.9.4.7a6 6 0 0 0-1.4-4.8m-7-3.6a14 14 0 0 0 .9 3.8l1 1.8 1.4 2.5c.5.8 0 .7-.5.1l-1.5-2.4-1-3Z" fill="#010101" id="path154"/><path d="M1258.3 837.5a13 13 0 0 1-4.7 15.6c1 3.2.7 8.7 0 8.5 0 0-1.1-4.8-3.2-7.1a12 12 0 0 1-14.5-9 13 13 0 0 1 3.7-12.4l9.2 13-3-15.9a12 12 0 0 1 12.5 7.3Z" fill="#ea8527" stroke="#903d14" stroke-width="0.15600000321865082px" fill-rule="evenodd" id="path155"/><path d="M1239.5 835.5a11 11 0 0 0-1.7 11.4 10.3 10.3 0 0 0 13.8 5.5 11 11 0 0 0 5.4-14.3 10 10 0 0 0-9.5-6.4l2.7 14a1.5 1.5 0 0 1-1.1 1.8 1.4 1.4 0 0 1-1.4-.6Z" fill="#f9c393" stroke="#903d14" stroke-width="0.15600000321865082px" fill-rule="evenodd" id="path156"/><path d="M1239.8 839a9 9 0 0 0-.3 7.1 8.5 8.5 0 0 0 11.4 4.6 9 9 0 0 0 4.5-11.9 8 8 0 0 0-5.5-4.6l2.1 11.2a3.4 3.4 0 0 1-2.6 4 3 3 0 0 1-3.2-1.3Z" fill="#fce6d8" fill-rule="evenodd" id="path157"/><path d="m1255 870-.1.2a3 3 0 0 1-2.4-.2c-1.7-.7-3.3-2.8-4.2-5.3-1.5-4-1-7.9 1.3-8.8a3 3 0 0 1 2.3.1c1.7.8 3.4 2.9 4.3 5.4 1.4 3.8 1 7.6-1.1 8.7" fill="#8d3a14" id="path158"/><path d="M1256 861.5c1.4 3.8.9 7.6-1.2 8.4s-4.9-1.5-6.3-5.3-.9-7.6 1.2-8.4 4.8 1.5 6.3 5.3" fill="#ca2538" fill-rule="evenodd" id="path159"/><path d="M1251.9 859.9c.3 1.6-.1 3.2-1 3.4s-1.9-1-2.2-2.6 0-3.2 1-3.4 1.9 1 2.2 2.6" fill="#ea536f" id="path160"/><path d="m1250.4 858.2 2.1 4.8c.8 1 1.8 4.5 1.4 4.6s-1.5-3.1-2-4.3Zm.4-1a11 11 0 0 1 2.1 2.5c.8 1.4.7 2.1 1.2 2.9a7 7 0 0 1 .7 2.8q-.2.4-.5-.7l-1-2.7-1-3zm.2 5.8a11 11 0 0 0 1.2 3.4q1.1 1.8 1 2-.3.3-.6-.4c-.3-.7-.9-1.5-1-2zm4.2-.2s1 2.8.3 4.2c-.7 1.2 0 .9.2.7a6 6 0 0 0-.5-4.9m-5.8-5a14 14 0 0 0 0 3.8l.5 2 .9 2.7c.4 1-.1.7-.5 0l-.9-2.6-.4-3.1Z" fill="#010101" id="path161"/><path d="M1264 864.8a12 12 0 0 1-7.6 14c.2 3.2-1 8.6-1.7 8.2 0 0-.2-4.9-1.7-7.6a12 12 0 0 1-12.1-11.8 12 12 0 0 1 6-11.1l6.3 14.5.3-16a12 12 0 0 1 10.6 9.8Z" fill="#ea8527" stroke="#903d14" stroke-width="0.15600000321865082px" fill-rule="evenodd" id="path162"/><path d="M1246.4 858.7a11 11 0 0 0-4 10.6 10.3 10.3 0 0 0 12.2 8.4 10.7 10.7 0 0 0 8-12.6 10 10 0 0 0-7.7-8.3l-.3 14.2a1.4 1.4 0 0 1-1.4 1.4 1.4 1.4 0 0 1-1.3-.8Z" fill="#f9c393" stroke="#903d14" stroke-width="0.15600000321865082px" fill-rule="evenodd" id="path163"/><path d="M1246 862.2a9 9 0 0 0-1.8 6.8 8.5 8.5 0 0 0 10 7 9 9 0 0 0 6.8-10.6 8 8 0 0 0-4.4-5.6l-.2 11.2a3.2 3.2 0 0 1-3.3 3.3 3 3 0 0 1-2.8-2Z" fill="#fce6d8" fill-rule="evenodd" id="path164"/><path d="M1255.3 895.7h-.2a3 3 0 0 1-2.4-.7c-1.6-1.2-2.9-3.8-3.3-6.7-.6-4.5.9-8.5 3.4-9a3 3 0 0 1 2.4.8c1.6 1.2 2.8 3.8 3.2 6.7.7 4.4-.7 8.3-3.1 8.9" fill="#8d3a14" id="path165"/><path d="M1258.2 886.9c.6 4.3-.8 8.2-3.1 8.5s-4.8-2.8-5.4-7.2.8-8.2 3.1-8.5 4.7 2.8 5.4 7.2" fill="#ca2538" fill-rule="evenodd" id="path166"/><path d="M1254.3 884.1c0 1.9-.8 3.4-1.8 3.4s-1.8-1.5-1.8-3.3.8-3.4 1.8-3.4 1.8 1.5 1.8 3.3" fill="#ea536f" id="path167"/><path d="m1253 882 1.3 5.6c.5 1.3.8 5.1.3 5.2s-.9-3.7-1-5Zm.8-1a12 12 0 0 1 1.6 3.2c.5 1.7.3 2.4.6 3.3a7 7 0 0 1 0 3.2c0 .4-.3-.3-.3-1l-.4-3-.4-3.4zm-1.1 6.2a13 13 0 0 0 .4 3.9q.9 2.2.6 2.3-.5.2-.5-.6c0-.8-.6-1.7-.7-2.3zm4.4.8s.4 3.2-.7 4.5c-1 1.2-.1 1 0 .8a6 6 0 0 0 .7-5.3m-5-6.7a15 15 0 0 0-.9 4l.2 2.3.3 3c.2 1.1-.3.7-.5 0l-.4-3 .4-3.5Z" fill="#010101" id="path168"/><path d="M1265.9 892.3a13 13 0 0 1-11.1 12.8c-.6 3.6-3 8.9-3.7 8.3 0 0 1-5.1 0-8.4a13 13 0 0 1-10-15.4 13 13 0 0 1 8.8-10.3l3.3 16.9 3.8-16.8a13 13 0 0 1 8.9 12.9Z" fill="#ea8527" stroke="#903d14" stroke-width="0.15600000321865082px" fill-rule="evenodd" id="path169"/><path d="M1248.8 881.6a12 12 0 0 0-6.5 10.2c0 6.4 4.7 11.7 10.8 11.8s11.2-5 11.3-11.3a12 12 0 0 0-6.4-10.6l-3.4 14.8a1.5 1.5 0 0 1-1.8 1.2 2 2 0 0 1-1.1-1.2Z" fill="#f9c393" stroke="#903d14" stroke-width="0.15600000321865082px" fill-rule="evenodd" id="path170"/><path d="M1247.6 885a9.2 9.2 0 1 0 11.6.2l-2.7 11.8a3.4 3.4 0 0 1-4.1 2.6 4 4 0 0 1-2.6-2.7Z" fill="#fce6d8" fill-rule="evenodd" id="path171"/><path d="M1247.7 922h-.3a4 4 0 0 1-2.3-1.6c-1.3-1.7-1.7-4.7-1-7.6.9-4.6 3.9-7.9 6.7-7.4a4 4 0 0 1 2.3 1.6c1.3 1.8 1.7 4.7 1.1 7.6-.9 4.4-3.8 7.7-6.5 7.4" fill="#8d3a14" id="path172"/><path d="M1253.9 914.6c-.9 4.4-3.8 7.6-6.4 7s-4-4.3-3.2-8.7 3.8-7.6 6.4-7.2 4.1 4.4 3.2 8.9" fill="#ca2538" fill-rule="evenodd" id="path173"/><path d="M1250.7 910.6c-.6 1.7-2 2.9-3.1 2.5s-1.4-2-.7-3.8 2-2.9 3.1-2.5 1.4 2 .7 3.8" fill="#ea536f" id="path174"/><path d="M1250.2 908a42 42 0 0 0-.7 5.9c0 1.4-1 5.2-1.6 5.1s.5-3.9.8-5.2Zm1.1-.7a11 11 0 0 1 .6 3.7c0 1.8-.6 2.4-.6 3.4a7 7 0 0 1-1 3c-.3.4-.3-.3 0-1s.3-2 .6-3l.8-3.4zm-3.4 5.6a12 12 0 0 0-1 3.9q.1 2.4-.1 2.4-.4 0-.4-.7c0-.7 0-1.9.2-2.5zm4.5 2.4s-.8 3.2-2.4 4c-1.4.8-.5 1-.2.8a6 6 0 0 0 2.6-4.8m-3-8.2a15 15 0 0 0-2.4 3.5l-.6 2.2-.8 3.1c-.2 1-.5.5-.5-.3l.7-3 1.6-3.1Z" fill="#010101" id="path175"/><path d="M1260.2 922.5a14.4 14.4 0 0 1-16.5 8.4c-1.8 3.2-6.5 7.4-6.9 6.6 0 0 2.9-4.6 3-8a13 13 0 0 1-5.2-18.4 15 15 0 0 1 13.2-6.7l-2.6 17.3 10.2-14.7a13 13 0 0 1 4.8 15.5Z" fill="#ea8527" stroke="#903d14" stroke-width="0.15600000321865082px" fill-rule="evenodd" id="path176"/><path d="M1245.8 906.1a12 12 0 0 0-10.6 7.5c-2.5 6.2.8 13 7.3 15.3s13.7-.8 16.1-7a11 11 0 0 0-3-12.4l-9 13a2 2 0 0 1-2.3.5 2 2 0 0 1-.8-1.5Z" fill="#f9c393" stroke="#903d14" stroke-width="0.15600000321865082px" fill-rule="evenodd" id="path177"/><path d="M1243.2 909c-2.6 1-5 2.6-6 5.3-2 5.2.6 10.7 6 12.7a10.5 10.5 0 0 0 13.4-5.8c1.1-2.8.4-5.5-1-7.9l-7.2 10.4a4 4 0 0 1-5.3 1 4 4 0 0 1-1.7-3.5Z" fill="#fce6d8" fill-rule="evenodd" id="path178"/><path d="M1236.2 946.5h-.3a4 4 0 0 1-2.2-1.8 11 11 0 0 1-.4-7.7c1.3-4.5 4.5-7.6 7.3-7a4 4 0 0 1 2.2 1.8c1 1.9 1.2 4.8.4 7.8-1.2 4.3-4.3 7.4-7 7" fill="#8d3a14" id="path179"/><path d="M1243 939.5c-1.3 4.3-4.4 7.4-7 6.7s-3.7-4.8-2.4-9.1 4.3-7.4 6.9-6.7 3.6 4.7 2.4 9" fill="#ca2538" fill-rule="evenodd" id="path180"/><path d="M1240 935.2c-.7 1.8-2.2 2.8-3.2 2.4s-1.2-2.2-.4-4 2.3-2.7 3.3-2.3 1.2 2.2.4 4" fill="#ea536f" id="path181"/><path d="M1239.8 932.7a43 43 0 0 0-1.2 5.8c0 1.4-1.4 5.1-2 5s.8-3.9 1.2-5.1Zm1.1-.7a12 12 0 0 1 .3 3.8c-.2 1.7-.7 2.3-.8 3.4a7 7 0 0 1-1.3 3c-.3.3-.3-.4 0-1s.6-2.2 1-3.1l1-3.4zm-3.8 5.4a12 12 0 0 0-1.2 3.8q-.1 2.5-.4 2.5-.5 0-.3-.8c.2-.8.2-1.9.3-2.5zm4.2 2.7s-1 3.2-2.6 4c-1.5.6-.6.8-.3.7a6 6 0 0 0 3-4.7m-2.2-8.5a15 15 0 0 0-2.7 3.4l-.8 2.2-1 3c-.2 1-.5.5-.5-.3l1-3 1.8-3Z" fill="#010101" id="path182"/><path d="M1248.5 948a14 14 0 0 1-17 7.2c-2 3-7 7-7.3 6.2 0 0 3.2-4.5 3.6-8a13.3 13.3 0 0 1-3.7-18.9 14 14 0 0 1 13.6-5.7l-4 17.2 11.3-14a13 13 0 0 1 3.5 16Z" fill="#ea8527" stroke="#903d14" stroke-width="0.15600000321865082px" fill-rule="evenodd" id="path183"/><path d="M1235.6 930.4a12 12 0 0 0-11.1 6.8 11.7 11.7 0 0 0 6 15.9 12.6 12.6 0 0 0 16.5-5.8 12 12 0 0 0-2-12.8l-10 12.5a2 2 0 0 1-2.3.3 2 2 0 0 1-.6-1.6Z" fill="#f9c393" stroke="#903d14" stroke-width="0.15600000321865082px" fill-rule="evenodd" id="path184"/><path d="M1232.7 933.2a9.4 9.4 0 0 0-1.3 18 10.4 10.4 0 0 0 13.7-4.8c1.3-2.7.8-5.5-.4-8l-8 9.9a4 4 0 0 1-5.3.6 4 4 0 0 1-1.4-3.6Z" fill="#fce6d8" fill-rule="evenodd" id="path185"/><path d="M1219.3 967.6h-.2a4 4 0 0 1-1.9-2.3c-.7-2.1-.3-5.3 1.1-8.2 2.2-4.5 6-7.1 8.7-5.8a4 4 0 0 1 1.8 2.2c.8 2.1.4 5.3-1 8.2-2.1 4.3-5.9 7-8.5 6" fill="#8d3a14" id="path186"/><path d="M1227.5 961.5c-2.1 4.4-5.8 7-8.3 5.7s-2.7-5.6-.6-10 5.8-6.8 8.2-5.7 2.8 5.7.7 10" fill="#ca2538" fill-rule="evenodd" id="path187"/><path d="M1225.5 956.6c-1.2 1.6-2.8 2.4-3.8 1.8s-.8-2.5.4-4.1 2.8-2.5 3.7-1.9.8 2.5-.3 4.2" fill="#ea536f" id="path188"/><path d="M1225.7 953.8a47 47 0 0 0-2.4 5.8c-.3 1.5-2.4 5.2-2.9 5s1.5-4 2.2-5.2Zm1.3-.5a13 13 0 0 1-.5 4c-.5 1.8-1.2 2.4-1.5 3.4a8 8 0 0 1-1.9 2.9c-.4.3-.1-.5.3-1s1-2.2 1.5-3l1.7-3.4zm-5 5a13 13 0 0 0-1.9 3.7q-.6 2.7-.9 2.5-.5-.2-.1-.8c.4-.6.5-2 .8-2.6zm3.8 3.6s-1.6 3.1-3.5 3.6c-1.6.4-.7.8-.4.7a7 7 0 0 0 3.9-4.3m-.6-9.3a16 16 0 0 0-3.4 3l-1.2 2.2-1.6 3c-.5 1-.7.4-.4-.5l1.5-3 2.4-2.8Z" fill="#010101" id="path189"/><path d="M1288.5 971.4a14.4 14.4 0 0 1-22 1.9 14.4 14.4 0 0 1 14.8-24l-7.3 17.4 14-12.6a14.4 14.4 0 0 1 .5 17.3Z" transform="translate(-57)" style="isolation:isolate" fill="#ea8527" stroke="#903d14" stroke-miterlimit="15.118109880684942" stroke-width="0.5896062975116919px" fill-rule="evenodd" opacity="0.9990000128746033" id="path190"/><path d="M1221.9 950.7a12.7 12.7 0 1 0 8.7 6l-12.4 11.2a1.7 1.7 0 0 1-2.8-2Z" fill="#f9c393" stroke="#903d14" stroke-miterlimit="15.118109880684942" stroke-width="0.5896062975116919px" fill-rule="evenodd" id="path191"/><path d="M1218.5 953a10 10 0 0 0-7.3 4 10.5 10.5 0 0 0 17.1 12.2 10 10 0 0 0 1.2-8.5l-9.9 8.9a4 4 0 0 1-6.2-4.5Z" fill="#fce6d8" fill-rule="evenodd" id="path192"/><path d="M1058.4 963.3a3 3 0 0 1-1.9-.9 2.7 2.7 0 0 1 0-4l.1-.1a3.5 3.5 0 0 1 4.6 0 3 3 0 0 1 .9 2.1 3 3 0 0 1-1 2 3 3 0 0 1-2.7.9" fill="#9b751c" id="path193"/><path d="M1059.2 958.2a3 3 0 0 0-2 .6 2 2 0 0 0-.1 3v.1a3 3 0 0 0 3.4 0 2 2 0 0 0 .7-1.5 2 2 0 0 0-.6-1.5 2 2 0 0 0-1.4-.7" fill="#d5da2f" id="path194"/><path d="M1057.5 966.6a3 3 0 0 1-1.9-.9 2.7 2.7 0 0 1 0-4l.1-.1a3.5 3.5 0 0 1 4.6 0 3 3 0 0 1 .8 2.1 3 3 0 0 1-1 2 3 3 0 0 1-2.6.9" fill="#9b751c" id="path195"/><path d="M1058.2 961.5a3 3 0 0 0-2 .6 2 2 0 0 0 0 3 3 3 0 0 0 3.4.1 2 2 0 0 0 .7-1.5 2 2 0 0 0-.6-1.5 2 2 0 0 0-1.5-.7" fill="#d5da2f" id="path196"/><path d="M1061.5 963.1a3 3 0 0 1-2-.8 2.7 2.7 0 0 1 0-4l.2-.2a3.5 3.5 0 0 1 4.5.1 3 3 0 0 1 .9 2 3 3 0 0 1-1 2.1 3 3 0 0 1-2.6.8" fill="#9b751c" id="path197"/><path d="M1062.2 958a3 3 0 0 0-2 .7 2 2 0 0 0-.1 3 3 3 0 0 0 3.4 0 2 2 0 0 0 .8-1.4 2 2 0 0 0-.7-1.6 2 2 0 0 0-1.4-.6" fill="#d5da2f" id="path198"/><path d="M1061 965.7a3 3 0 0 1-2-.9 2.7 2.7 0 0 1 0-4l.1-.1a3.5 3.5 0 0 1 4.6 0 3 3 0 0 1 .8 2.1 3 3 0 0 1-1 2.1 3 3 0 0 1-2.6.8" fill="#9b751c" id="path199"/><path d="M1061.6 960.7a3 3 0 0 0-2 .6 2 2 0 0 0 0 3 3 3 0 0 0 3.4 0 2 2 0 0 0 .7-1.5 2 2 0 0 0-.6-1.5 2 2 0 0 0-1.5-.6" fill="#d5da2f" id="path200"/><path d="M1067.6 956.2h-.2l-1.5 1.7a6 6 0 0 0-1 2.5l-.2 1-1.5-2h-.4l-.3.3.2 4.3-4.7-.4a.4.4 0 0 0-.3.7l2.1 1.4-1.1.2a8 8 0 0 0-2.8.7l-1.9 1.3-.1.5.4.2s5-1 6.7-.8h.2a54 54 0 0 1 6.7 7 10 10 0 0 0 5.4 4 12 12 0 0 0 3.3.8c7.2 7.2 30.4 15.6 42.3 11.6 10.5-2.7 9.6-9.4-1.8-9.3-13.1.8-27.7.8-37.8-4.8a11 11 0 0 0-.8-2.9 9 9 0 0 0-4.1-5 56 56 0 0 1-7.5-6.4c-.2-.4.4-3.6 1.2-6.2l-.2-.4z" fill="#8d3a14" id="path201"/><path d="m1066.9 958-.4.5-.7 2.1-.3 1a.8.8 0 0 1-1.5.3l-.6-.8.1 2.8a.8.8 0 0 1-.9 1l-3-.3.6.4a.8.8 0 0 1-.3 1.5l-1 .2h-.1l-2.4.6-.3.1.8-.1a18 18 0 0 1 4.2-.4l.3.1.2.1 1.3 1.1 1.9 1.9 3.7 4.2a10 10 0 0 0 5 3.7h.1a11 11 0 0 0 3.1.8l.5.2a52 52 0 0 0 19 9.8 41 41 0 0 0 22.5 1.6 14 14 0 0 0 5.4-2.4q1.6-1.5 1.3-2.3c-.3-.8-.7-1.4-2-2a16 16 0 0 0-6.3-1c-13.1.9-27.8.9-38.2-4.8l-.4-.6a10 10 0 0 0-.8-2.8 8 8 0 0 0-3.8-4.7l-4.5-3.6-2-1.7-1.1-1.2-.2-.7v-.7l.2-1.5z" fill="#925a25" id="path202"/><path d="m1063.5 967 8 6.2c3 2.5 3.7 4.2 3.7 4.2a15 15 0 0 1-6.3-4Zm16.2 13c4.8 3.9 29.9 10.4 42 6.4-9.6 5-28.3 3-42-6.4" fill="#d78e55" id="path203"/><g opacity="0.9990000128746033" id="g218"><path d="m1140.5 941-16-5.1 6.9-2.1 14.1 4.6Z" fill="#b36f2f" id="path204"/><path d="m1124.5 935.9.3-5.5 6.8-2-.2 5.4Z" fill="#885424" id="path205"/><path d="m1124.8 930.4-8.3-2.2 6.7 10.6 19.4 5.1 9.4-6-11-3.4.7 5.1-17.2-3.7Z" fill="#ce8641" id="path206"/><path d="M1110.8 937.5c1 2.2 2 3.7 1.5 6-12.2 4.2-21.8 10.3-26.6 18.4-2 0-10.6-3.2-10.8-7a92 92 0 0 1 35.9-17.4Z" fill="#996c14" stroke="#5b4114" stroke-width="0.26499998569488525px" id="path207"/><path d="M1075.7 954.9a3 3 0 0 0 .8 1.6l4.1-3a84 84 0 0 1 27.3-14.1 97 97 0 0 0-30.7 14.4z" fill="#eaba5e" id="path208"/><path d="M1113.5 936.4a21 21 0 0 1 2.2 6.3l94.7-26.3-11.5-4.2-8-3Z" fill="#4d4d4d" stroke="#434342" stroke-width="0.47600001096725464px" id="path209"/><path d="m1115.7 939.7 79.1-25 10.9 2-89.6 24.5Z" fill="#7c7c7c" id="path210"/><path d="M1113.2 935.8c2 3.3 2.4 5.9 3 8.6l-1.6.6-.7-1.5-1.5.2a12 12 0 0 0-2.4-6.6Z" fill="#4d4d4d" stroke="#434342" stroke-width="0.4230000078678131px" id="path211"/><path d="M1111.8 937c1.6 1.8 2.1 4.6 3.3 7-.3-1.2-.4-4.6-2.3-7.3Z" fill="#7c7c7c" id="path212"/><path d="m1078.2 917.8 1.4 5.8c47.2 1.3 80.7 15.4 112.5 31.1l3.9-3.2a408 408 0 0 0-117.8-33.7" fill="#352212" id="path213"/><path d="M1078.2 917.8a17 17 0 0 1 .2-6.7c51.2 10.7 81.9 23.4 120.9 35.5a12 12 0 0 1-3.3 5 408 408 0 0 0-117.8-33.8" fill="#4f3114" id="path214"/><path d="M1082.6 907.1a10 10 0 0 0-4.2 4c51.2 10.7 81.9 23.4 120.9 35.5-1 2 .9-2.6-.4-6.4-33.5-8-60.3-15-116.3-33" fill="#6c421b" id="path215"/><path d="M1082.6 907.1c-1.6.9 2.3-1.5 5-1.6 56.7 22 84.3 26 109.7 30.5a15 15 0 0 1 1.6 4.2c-33.5-8-60.3-15-116.3-33" fill="#543317" id="path216"/><path d="m1150.6 938.8-8 5.1 12.8-3.7-1-2Z" fill="#885424" id="path217"/><path d="m1081.8 925.6-2.2-2c47.2 1.3 80.7 15.4 112.5 31.1l-1.3 1.6c-36-17.1-68.1-30.8-109-30.7" fill="#ce8641" id="path218"/></g></g><!-- app4joy --></svg>