<svg viewBox="0 0 2286 1600" id="svg169" width="2286" height="1600" xmlns:xlink="http://www.w3.org/1999/xlink" xmlns="http://www.w3.org/2000/svg"><defs id="defs5"><linearGradient id="a" x1="911.6004" y1="453.6518" x2="974.0817" y2="451.4385" gradientTransform="matrix(.9847 0 0 -.9847 .7 1586.2)" gradientUnits="userSpaceOnUse"><stop offset="0" stop-color="#f7e926" id="stop1"/><stop offset="1" stop-color="#dfd602" id="stop2"/></linearGradient><linearGradient id="b" x1="-1033.2429" y1="453.6552" x2="-970.7616" y2="451.4418" gradientTransform="translate(484.1 1586.2)scale(-.9847)" xlink:href="#a"/><linearGradient id="c" x1="912.1173" y1="393.0343" x2="1523.6413" y2="393.0343" gradientTransform="matrix(.9847 0 0 -.9847 .7 1586.2)" gradientUnits="userSpaceOnUse"><stop offset="0" stop-color="#f7e926" id="stop3"/><stop offset="0.5" stop-color="#f9ee75" id="stop4"/><stop offset="1" stop-color="#f7e926" id="stop5"/></linearGradient></defs><g id="g170"><path id="rect5" d="M0 0h2286v1600H0z" fill="#fff"/></g><g id="g169"><path d="m828.4 1069.5 40.4 57.8-40.4 57.9h125.3a29.3 29.3 0 0 1 29.3 29.3v-29.3h3.9v-.2H983v-89.4c0-12.7-17.9-26-29.3-26Z" transform="translate(-57)" style="isolation:isolate" id="path5" stroke="#ada716" stroke-miterlimit="8.314955271698238" stroke-width="1.7725103316379105px" fill-rule="evenodd" opacity="0.9810000061988831" fill="url(#a)"/><path d="m1571.6 1069.5-40.4 57.8 40.4 57.8h-125.3a29.3 29.3 0 0 0-29.3 29.4V1185h-3.9v-.1h3.9v-89.4c0-12.7 17.9-26 29.3-26Z" transform="translate(-57)" style="isolation:isolate" id="path6" stroke="#ada716" stroke-miterlimit="8.314955271698238" stroke-width="1.7725103316379105px" fill-rule="evenodd" opacity="0.9810000061988831" fill="url(#b)"/><path d="M900.3 1194.9c43.8 37.1 82.8 24.4 82.8 16.7m0 0v-116c-33.7 26.8-67.3-1.6-74.4-1.6-4.8 0-8.2 2.7-8.2 7.3l-.2 93.6m599.4 0c-43.8 37.1-82.8 24.4-82.8 16.7m0 0v-116c33.7 26.8 67.3-1.6 74.4-1.6 4.8 0 8.2 2.7 8.2 7.3l.2 93.6" transform="translate(-57)" style="isolation:isolate" id="path7" fill="#ccc407" stroke="#ada716" stroke-linecap="round" stroke-miterlimit="8.314955271698238" stroke-width="1.7990539612431888px" fill-rule="evenodd" opacity="0.9810000061988831"/><path d="m900.5 1101.3-.2 93.6c25 67 171 105 299.7 102 128.8 3 274.8-35 299.7-102l-.2-93.6c-63.3 101-271.8 101.3-299.5 101.3s-236.2-.2-299.5-101.3Z" transform="translate(-57)" id="path8" stroke="#ada716" stroke-miterlimit="8.314955271698238" stroke-width="1.7725103316379105px" fill="url(#c)"/><path d="m1184.4 1272.9 3.5-23.3 3.5-23.5c0-.3 1-.6 2.1-.6h2.1l3.4 22 3.7 23.9c.3 1.6.2 1.7-2 1.7h-2.1l-.5-4c-.7-7-.6-6.8-4.5-6.8l-3.5.2-.8 5.2-.7 5-2.1.3zm11.3-20.6-1.2-7.9-1-6c-.2.2-2 13.5-2 14.8q0 .9 2.2.9c2.2 0 2.3-.1 2-1.8m9-3v-23.8h3.9v19h7v-19h3.7v47.6h-3.8v-20.3h-7v20.3h-3.8Zm25.6.2.1-23.6 4.8-.2c5.8-.2 7.8.9 9 5.1 1 3.8.8 11.8-.4 14.6-1 2.3-.9 2.5.4 5 1.2 2.3 1.4 3.7 1.4 9 0 6.8-.8 10.1-2.8 12.3-1.2 1.3-2 1.4-7 1.4h-5.7Zm10.5 14.5c1.3-1.5 1.6-6.3.5-8.8-1-2.3-1.1-2.4-3.9-2.4h-2.8v12h2.7c1.6 0 3.1-.3 3.5-.8m-.5-20.4c1-1.3 1-7.5 0-8.8a5 5 0 0 0-3.3-1h-2.5v10.8h2.5a5 5 0 0 0 3.3-1m-72.3 5V1225h3.5l3.5 14.7 3.4 14.7.2-14.7.2-14.7h3.8v47.7l-2-.2-2.1-.2-3.3-13.7-3.6-14.6c-.2-.5-.4 5.7-.4 13.8v14.8h-3.2Zm81.1.2V1225l4.9-.4c9-.8 8.5-1 8.5 3.7v4.1h-3.4c-6.1 0-6.2 0-6.2 5.9v5l4.5-.3 4.4-.4v8l-4.4.5-4.5.5v12.7l5.1-.4 5-.4v8l-4.2.5-7 .4h-2.7zm-87.7 21-.8-5.4-.4-3.3h-7.3l-.4 3c-1 7.1-1 7.1-3 7.1-1.5 0-1.8-.3-1.8-1.4 0-.8 1.5-11.3 3.4-23.3l3.3-22 2-.1c1.7-.2 2 0 2.3 1.3l3.6 22.4 3.5 22.3c.2 1.3 0 1.4-1.9 1.4s-2.2-.2-2.5-2m-2.6-18.1-1-7.1a34 34 0 0 0-1.2-6.5c-.3-.3-.8 2.2-1.3 5.7l-1 7.6c-.4 1.3-.2 1.4 2.2 1.4 2.2 0 2.6-.2 2.3-1m107.5-4.2v-23.7l1.4-.4a33 33 0 0 1 5.6-.4c4.7 0 5.6.6 7 4.7a43 43 0 0 1 0 16 11 11 0 0 1-2.4 4.1c-1.3 1.3-1.4 1.5-.5 3.2a84 84 0 0 1 3.1 10.1c2.3 8.8 2.3 9.2-1 8.7-1.3-.2-1.7-1-3.5-7.7-2.6-9.6-3.2-11.2-4.7-11.2-1.1 0-1.2.6-1.2 9.8 0 8.3-.2 9.8-1 10.1-2.9 1.1-2.8 1.8-2.8-23.3m7.5-4.8c2.8-.8 3.2-1.5 3.2-5.9 0-5.2-.2-5.6-3.8-5.6h-3.1v6c0 6.6 0 6.6 3.7 5.5m-130.7 27.4c-1-.2-1.2-1.6-1.2-16l-.1-15.6-1.6 15.3-2 15.6a2 2 0 0 1-1.8.1c-1.7-.4-1.7-.3-3.4-18.6l-1.5-14.9c-.1-.4-.3 7-.3 16.4 0 15.3-.1 17-1 16.6l-1.6-.3c-.3 0-.6-9.8-.6-23.9V1221l2.7.4 2.8.6 1.5 15c1.7 16.6 1.9 16.6 3.4.3 1.5-15.4 1.4-15 3.5-15 4.1 0 3.9-1.5 3.9 24.5l-.8 23.7zm145-1.1c-1.8-1.2-3.4-5.3-4-10.3-.4-3.6-.4-4.1.7-4.7q2.8-1.4 3 2c0 4 2.6 6.7 4.9 5.2 1.7-1 2.7-6.7 1.7-9.3-.2-.6-2-2-3.8-3.2a15 15 0 0 1-4.3-4c-3.7-7.1-1.5-22.1 3.3-23.4q3.4-.9 5.4.9c1.4 1.3 3 6.6 3 10.1 0 2.6-.1 2.7-1.8 2.7s-2-.2-2.3-2.4c-.7-4.4-3.9-5.1-5.5-1.3-1.3 3.2-.1 5.6 4 8.3 4.8 3.2 5.9 6 5.9 15.1 0 5-.3 7.5-1.2 9.7-1.9 4.9-5.8 6.9-9 4.6m-167-6.2c-.5-2.9-1.2-5.4-1.6-5.7a11 11 0 0 0-3.6-.5h-3l-.4 3.7c-.7 6-1 6.5-3 6.5q-1.8 0-1.8-1c0-1 6.2-42.4 6.7-44.5q.2-1.6 2.2-1.5c2 .1 2 .4 2.2 1.5l3.5 22.6 3.5 22.7c.3 1.3 0 1.4-1.8 1.4h-2.1Zm-3.1-21.6c-.6-4-1.2-7.4-1.4-7.4s-.8 2.8-1.2 6.2l-1.1 7.2q-.6 1.2 2 1.3l2.6.2zm181.9 26.5 3.5-24 3.5-24.1c0-.2 1-.4 2.2-.4s2.2.3 2.2.7l3.5 23 3.3 22.3-2 .4c-1.8.2-2 0-2.4-3-1.3-7.9-.8-7.1-4.2-6.8a11 11 0 0 0-3.7 1c-.4.3-1 2.7-1.2 5.3-.4 4.3-.6 4.8-2 5.4q-2.6 1-2.7.2m11.4-20.8c0-1.4-2.4-15.3-2.5-14.7l-1 7c-1.3 8.9-1.3 8.5 1.3 8.5q2.2 0 2.2-.7m-223 15.7q-4.1-4.3-5.3-17.5c-1.2-12.7 1-24.6 5.1-28 2.3-2 2.5-2 5.3-.8 2.4 1 3.9 3.4 5.2 8.3 1.5 5.6 1 7.2-2.3 7.3-.2 0-.8-1.4-1.2-3.1a10 10 0 0 0-1.7-3.9c-1.5-1.2-3.6-.4-5 2-1.2 2-1.3 3.2-1.3 12.6s.1 10.8 1.4 13.4q2.5 5.5 5.6 2.4c1.3-1.2 1.6-2 1.6-4.7 0-3.2-.1-3.4-2-3.7s-1.9-.5-1.9-4.4v-4l3 .4 4.2.6c1 0 1 .9 1 9.2 0 10.2-.3 11.6-3.7 14.5q-4.2 3.6-8-.6m234.4-.5c-2-3.4-2.5-8.3-2.5-27.1v-17.6l1.4-.3 2-.4c.2 0 .4 7.7.4 17.2 0 18.5.5 21.6 2.9 22a3 3 0 0 0 2.5-1.2c1.2-1.3 1.3-2.6 1.4-20.3l.7-19 1.9-.4 1.4-.4-.2 20.5c-.2 22.2-.5 24.2-3.6 27.3a5 5 0 0 1-4.4 1.8c-2.2 0-2.7-.3-3.9-2.2m-245.8-1c-1-.4-1.7-2.7-4.4-14.4l-3.5-15.1c-.3-.7-.6 5.3-.6 13.4v14.6l-1.6-.3-1.6-.3v-23.7l1.1-23.7a4 4 0 0 1 1.8.5c.4.2 2.3 7.3 4.2 15.7l3.4 15.2.1-14.8c.2-15.5.2-15.4 3-14.3.9.3 1 3 1 24 0 25.1 0 24.4-2.9 23.2m261.8-23.3.2-24 1.7-.2 1.8-.2v9.3c0 8.3.1 9.3 1 9l3.5-.8 2.5-.4v-9.4c0-10 0-10.1 3.2-10.1 1.2 0 1.2.7 1.2 23.4v23.5l-1.6.6a4 4 0 0 1-2.3.3 50 50 0 0 1-.5-10.4v-10l-3.4.8-3.3.7-.2 10.6c-.1 8.5-.3 10.6-1 10.6l-2 .3c-.8.4-1-1.8-.8-23.6m-279 20.2a16 16 0 0 1-1.6-5.8l-.8-5.3-3.2-.8-3.6-.9c-.2 0-.6 1.4-.8 3-.9 6.4-1.1 7.2-2.2 7.1-3 0-3 .2.6-23.7l3.5-22.5h1.7a3 3 0 0 1 2.1.6c.5.8 7.2 45 7.3 47.4 0 1.5-1.5 2-3 1Zm-4.7-27.4-1.4-8s-.6 2.4-1 5.7l-1.2 7.5c-.3 1.8-.3 1.7 4 2.3q.8.2-.4-7.5m309 1V1208l2.6-.6a9 9 0 0 1 3-.5l1.6 14 1.7 14c.2.1.7-3.4 1-7.8l1.6-15.3.7-7 2.3-.7 2.7-.7c.3 0 .5 10.7.5 23.8l-.6 23.8-1.6.4c-.9.3-1-1.4-1-16.3l-.3-16.1c-.2.3-1 8-1.8 17l-1.8 16.6-2 .6c-1.5.4-1.7.3-1.7-1l-1.5-15.5-1.5-14v16l-.2 16-1.4.3-1.9.4c-.2 0-.5-10.6-.5-23.7m-330.4 20c-4-4-6-11.7-6-24.8q-.2-21 6-23.1c3.6-1.2 7.5 3.7 8.9 11.3.6 3.6.6 4.4-.2 4.9-2 1.2-2.8.6-3.6-2.8s-2.7-5.7-4.2-5.1c-.5.2-1.4 1.5-2 3a72 72 0 0 0-.3 23.6c.8 3.4 2.8 6.2 4 5.8s3-4.4 3-6.8v-2.1l2 1.8c1.8 1.8 1.9 2 1.5 5.3a18 18 0 0 1-3.3 9c-1.4 1.6-4 1.5-5.8 0m350.3-4 6.7-46.8c0-.5 3.9-2 4.1-1.7.3.3 7.3 45 7.1 45.2l-2.2.6-2 .4-.4-4c-.6-5.8-.8-6-4.4-5-1.6.5-3.2 1.3-3.5 1.9a26 26 0 0 0-1 5.6c-.4 4.7-1.2 5.8-3.7 5.8q-1.2.2-.7-2m10.7-20c.2-.4 0-4-.7-8.1l-1.2-7.6-.7 5-1.2 8.6-.4 3.4 1.8-.5a7 7 0 0 0 2.4-.9m-373.3 20.6a72 72 0 0 1-4.5-16.3l-3.5-15.6v14.7l-.1 14.7-1.8-.4-1.7-.5-.2-23.4.4-23.9c.2-.2 1.2-.1 2 .3 1.5.7 1.9 2 5 17l3.6 16 .2-15 .7-15c2.6 0 2.6-.4 2.6 24.5s0 25-2.7 22.9m-15.8-5.7c-2-.6-2.2-1.2-2.8-6.2l-.7-4.5c-.3-1-6.3-3.6-7-3a27 27 0 0 0-1 5l-.6 4.5-2-.3-2-.6 3.2-21.7 3.5-22.4q-.1-1 2-.5l2.1.6c.3.3 7.3 48.8 7.2 49.2q-.3.4-2 0m-5-21.2-1-8.5-1.2-7.9-1 6.7c-1.5 8.7-1.5 8.8.2 9.5q2.8 1 3 .2m403.4-1.8v-23.7l4.4-1.4c8.3-2.5 9.7-1.2 10 9.3.3 7-.3 10.4-2.5 13.6-1.4 2.1-1.4 2.2-.4 4.4 1.4 3 5 16.4 4.5 16.8l-2.4.6-1.9.4-1.8-6.5c-2.5-9-3.2-10.6-4.8-10.6-1.3 0-1.3.3-1.3 9.8v9.9l-1.6.6-2 .6s-.2-10.7-.2-23.8m10-8.3c.8-1.7 1-7.1.4-8.8-.5-1.1-1-1.2-4.2-.3l-2.4.7v11.9l2.8-1a6 6 0 0 0 3.5-2.5m10 21-4-43 1.9-1c1.7-.6 1.7-.6 2 2l1.4 14.7 1.2 12.2 1.6-15.7 2.2-16.4a7 7 0 0 1 2.3-1l1.6-.4 1.4 14.5 1.6 14.6c.1 0 .7-6.2 1.3-14 1.4-18.3 1.3-18 3.3-18.5l1.8-.2c.2.3-4 47.6-4.4 48.5-.2.6-3.4 1.8-3.8 1.3l-1.6-14-1.8-15.2c-.2-.6-1.1 6-2 15l-1.6 17a4 4 0 0 1-2.2 1.6c-1.8.7-1.9.7-2.2-2m-446.4.5c-1-.3-1-2-1-24v-23.9l1.5.4 5.1 2c3 1.3 3.7 2 4.8 4.5 2 4.4 2.8 12.5 2 17.8-1.2 6.7-3 8.3-8 6.9l-1.7-.5v8.6c0 9 0 9-2.7 8.2m8-25.7q1.6-7.5-1.4-10.7c-3.4-3.3-3.9-2.7-3.9 4.8 0 7 0 7 3.6 7.2a1.5 1.5 0 0 0 1.8-1.3m-14.2 22c-1.4-.7-1.8-2-4-10.9-2.2-9.5-3.5-12.9-4.9-12.9-.3 0-.6 4-.6 9.6 0 10-.2 10.5-2.7 8.7-1-.8-1-2.8-1-24.4l.2-23.6 5.4 2.7c5 2.4 5.6 2.9 7 5.7 1.2 2.6 1.6 4.4 1.8 9.9.3 8.6-.7 11.8-4.2 13l.9 2.6a164 164 0 0 1 4.7 19.7c0 1-.5 1-2.6 0m-2.5-34.6c0-4.3-.9-6-3.8-7.5l-2.8-1.3a24 24 0 0 0-.4 6v6l2.7.9c2.4.8 2.8.8 3.5-.1a9 9 0 0 0 .8-4m473.8 31.3c0-.6 1.4-12.1 3.2-25.5l4.6-25.5a5 5 0 0 1 2-1.2c.5 0 2.2 8.4 4.3 21.1l3.5 21.1-1.3 1.1c-2.2 1.8-2.8 1.3-3.3-2.2-.8-5.8-.9-5.9-4.5-3.6l-3.3 2.1c0 .1-.5 2.7-.8 5.8-.6 4.3-1 6-2 6.8a5 5 0 0 1-1.8 1.1q-.6-.1-.6-1.1m9-23.2 1.8-1.4-1.1-7.3-1.2-7.3-.8 6.4-1.2 8.7c-.4 2.7 0 3 2.6 1m-503.9 14.3-6.2-3.4v-47.6l6.5 3.5 6.5 3.5.2 4.2.2 4.3-4.8-2.6-4.8-2.7v10.5l4.3 2.3 4.3 2.2.2 4c0 2.1 0 3.9-.3 3.9l-4.5-2.2-4-2.1v12.9l4.8 2.5 4.7 2.5v4c0 2.2-.2 4-.4 3.9zm514.6-25.2v-24l1.6-1.2 1.5-1.2v9c0 4.8.3 8.8.5 8.8a16 16 0 0 0 3.5-2.3l3-2.3V1160l1.7-1.4 1.8-1.4.2 23.7.1 23.7-1.7 1.4-1.8 1.4-.3-10-.3-10.2-3.3 2.6-3.4 2.6v10.3c0 10 0 10.2-1.6 11.7l-1.5 1.5zm-533.6 12.2-5-3.3v-23.6l.5-23.7a55 55 0 0 1 10 7.6c3.3 4 4.6 16.7 2 20.6-1 1.4-.9 1.8.4 4.6 2 4.1 2.1 16.7.3 19.4a4 4 0 0 1-2.2 1.7c-.6 0-3.3-1.5-6-3.3m5.6-7.2a20 20 0 0 0 0-5.2c-.3-3.3-.6-3.8-3.3-6.3a15 15 0 0 0-3.5-2.7c-.3 0-.6 2.7-.6 6v6l2.7 2c3.4 2.3 4.2 2.3 4.7.2m-.6-20.9a17 17 0 0 0 0-4.6c-.3-2.5-.7-3.3-3-5.3a16 16 0 0 0-3.3-2.4c-.3 0-.5 2.3-.5 5.2v5.3l2.7 1.7c3.3 2.1 3.5 2.1 4 .1" transform="translate(-57)" id="path9" fill="#010101"/><path d="m1011 302.9-167.8 114v419.2c24.7 253.5 332 346.8 356.8 360.8 24.8-14 332-107.3 356.8-360.8V417L1389 302.9z" transform="translate(-57)" id="path10" fill="#77b830" stroke="#518230" stroke-miterlimit="15.1181001663208" stroke-width="3.0009429947521937px"/><path d="m1028 358.5-129.2 87.9v386.3c11 104.2 79.1 176.4 154.1 227.7a697 697 0 0 0 107.1 59.2q23.3 10.3 39.4 16.6l.6.3.6-.3c10.6-4.3 24-9.7 39.4-16.6a697 697 0 0 0 107-59.2c75-51.3 143.3-123.5 154.2-227.7V446.4l-129.3-88z" transform="translate(-57)" id="path11" fill="#124488" stroke="#518230" stroke-miterlimit="15.1181001663208" stroke-width="3.0009429947521937px"/><path d="M1017.1 864c25.7-12.6 48.7-10 69.2 6.7-19.5 5.3-34.4 20.7-69.2-6.6Z" transform="translate(-57)" id="path12" fill="#e9c321" stroke="#9a6314" stroke-miterlimit="15.1181001663208" stroke-width="1.8897625207901px"/><path d="M1030 864a46 46 0 0 1 41.8 2.4c-12.6 1-25 4.5-41.8-2.3" transform="translate(-57)" id="path13" fill="#ffec96"/><path d="M1089.6 871.9c10.5-36.3-3.6-49.2-17.9-67.4-6 19.7-10.7 39.5 18 67.4Z" transform="translate(-57)" id="path14" fill="#e9c321" stroke="#9a6314" stroke-miterlimit="15.1181001663208" stroke-width="1.8897625207901px"/><path d="M1081.6 855c-11.5-18.5-8-24.8-8.3-34.4 7.2 8.4 10.6 19.4 8.3 34.4" transform="translate(-57)" id="path15" fill="#ffec96"/><path d="M985.3 829.8c27.5-8 49.7-1.3 66.9 18.9-20.2 1.7-37.5 14.2-67-18.9Z" transform="translate(-57)" id="path16" fill="#e9c321" stroke="#9a6314" stroke-miterlimit="15.118099775156997" stroke-width="1.8897624718946247px"/><path d="M998 832c15.7-3.4 29 .7 40.6 9.8-12.5-1.2-25.3 0-40.7-9.7" transform="translate(-57)" id="path17" fill="#ffec96"/><path d="M1054 846c16-31.6 5-45.8-5.3-65-9 17.2-17 34.7 5.3 65Z" transform="translate(-57)" id="path18" fill="#e9c321" stroke="#9a6314" stroke-width="0.5px"/><path d="M1049.3 829.2c-7.6-18.9-3.2-24.2-2-33 5.5 8.9 6.7 19.6 2 33" transform="translate(-57)" id="path19" fill="#ffec96"/><path d="M962.3 792.6q42.5-5.4 63.4 28.6c-20.2-1.3-39.3 8.5-63.4-28.6Z" transform="translate(-57)" id="path20" fill="#e9c321" stroke="#9a6314" stroke-miterlimit="15.118100409309207" stroke-width="1.8897625511636509px"/><path d="M974.5 796.7c16-1 28.7 5 38.8 15.8-12.2-3.2-25-3.9-38.8-15.8" transform="translate(-57)" id="path21" fill="#ffec96"/><path d="M1022.5 813.9c19-25.7 11-39.6 4.3-57.8-10.6 13.9-20.1 28.2-4.3 57.8Z" transform="translate(-57)" id="path22" fill="#e9c321" stroke="#9a6314" stroke-width="0.5px"/><path d="M1020.7 798.4c-4.3-17.5.4-21.6 2.8-29.2 3.7 8.5 3.3 18.1-2.9 29.2" transform="translate(-57)" id="path23" fill="#ffec96"/><path d="M949 758.4c27.5-1.9 47 9.4 59 33-19.3-2.6-38.1 6-59-33Z" transform="translate(-57)" id="path24" fill="#e9c321" stroke="#9a6314" stroke-width="0.5px"/><path d="M960.5 763.4a44 44 0 0 1 36.2 18.4c-11.5-4-23.8-5.5-36.2-18.4" transform="translate(-57)" id="path25" fill="#ffec96"/><path d="M1004.8 781.7c20.6-24.5 13.5-38.9 8-57.4-11.5 13.2-22 26.8-8 57.4Z" transform="translate(-57)" id="path26" fill="#e9c321" stroke="#9a6314" stroke-width="0.5px"/><path d="M1003.9 766.1c-3.1-17.8 1.8-21.5 4.7-29 3.1 8.8 2.1 18.3-4.7 29" transform="translate(-57)" id="path27" fill="#ffec96"/><path d="M939 714.7q41 5.6 51.4 44c-18.4-6.4-38.6-1.7-51.3-44Z" transform="translate(-57)" id="path28" fill="#e9c321" stroke="#9a6314" stroke-width="0.5px"/><path d="M949.3 721.9a44 44 0 0 1 31.9 25.2c-10.5-6.2-22.3-10.1-31.9-25.2" transform="translate(-57)" id="path29" fill="#ffec96"/><path d="M985.7 740.5c26.3-17.4 23.3-32.4 22.8-51-14.5 9.3-28.2 19.3-22.8 51Z" transform="translate(-57)" id="path30" fill="#e9c321" stroke="#9a6314" stroke-width="0.5px"/><path d="M989 726c1.6-17.3 7.4-19.5 12.1-25.6.7 8.8-2.7 17.4-12.2 25.5" transform="translate(-57)" id="path31" fill="#ffec96"/><path d="M939.7 670q38.5 14.4 40.3 54.3C963.4 714 942.7 714 939.7 670Z" transform="translate(-57)" id="path32" fill="#e9c321" stroke="#9a6314" stroke-width="0.5px"/><path d="M948 679.2a44 44 0 0 1 25.6 31.6c-9-8.3-19.5-14.7-25.6-31.6" transform="translate(-57)" id="path33" fill="#ffec96"/><path d="M948.3 622.4c22.9 15.4 31.4 36.2 26.4 62.3-13.6-14-33.8-18.7-26.4-62.3Z" transform="translate(-57)" id="path34" fill="#e9c321" stroke="#9a6314" stroke-width="0.5px"/><path d="M954.3 633.4a44 44 0 0 1 17.4 36.7c-6.7-10.2-15.5-19-17.4-36.7" transform="translate(-57)" id="path35" fill="#ffec96"/><path d="M965.4 580.2a57 57 0 0 1 13 66.3c-10.6-16.4-29.3-25.2-13-66.3Z" transform="translate(-57)" id="path36" fill="#e9c321" stroke="#9a6314" stroke-width="0.5px"/><path d="M969 592.1a44 44 0 0 1 9.3 39.5c-4.4-11.3-11.2-21.7-9.4-39.5" transform="translate(-57)" id="path37" fill="#ffec96"/><path d="M987.9 539a57 57 0 0 1 1.1 67.6c-7.4-18-24.3-30-1.1-67.6Z" transform="translate(-57)" id="path38" fill="#e9c321" stroke="#9a6314" stroke-width="0.5px"/><path d="M989.3 551.4c8 13.3 7.8 27 2.4 40.5-2.4-12-7.3-23.3-2.4-40.5" transform="translate(-57)" id="path39" fill="#ffec96"/><path d="M1014.3 504.5a56.5 56.5 0 0 1-6.6 67.2c-5.3-18.7-20.8-32.5 6.6-67.2Z" transform="translate(-57)" id="path40" fill="#e9c321" stroke="#9a6314" stroke-width="0.5px"/><path d="M1014.3 517a44 44 0 0 1-2.3 40.5c-1-12.2-4.5-24 2.3-40.6" transform="translate(-57)" id="path41" fill="#ffec96"/><path d="M1045.8 482q13.5 34.3-11.6 59.5c-3-17.2-15.5-30.8 11.6-59.5Z" transform="translate(-57)" id="path42" fill="#e9c321" stroke="#9a6314" stroke-width="0.5px"/><path d="M1044.7 493.1a40 40 0 0 1-5.5 36c.2-10.9-2-21.8 5.5-36" transform="translate(-57)" id="path43" fill="#ffec96"/><path d="M1084.4 459.6c5.5 24-1.7 42.9-20.7 57-.4-17.5-10.5-33 20.7-57Z" transform="translate(-57)" id="path44" fill="#e9c321" stroke="#9a6314" stroke-width="0.5px"/><path d="M1081.7 470.4a40 40 0 0 1-11.1 34.7c1.8-10.7 1.5-21.8 11-34.7" transform="translate(-57)" id="path45" fill="#ffec96"/><path d="M1137.8 466.5c-9.7 25.6-29.6 39.4-53.9 40 10.1-16.3 13.4-38.2 54-40Z" transform="translate(-57)" id="path46" fill="#e9c321" stroke="#9a6314" stroke-width="0.5px"/><path d="M1126.4 475.8a42 42 0 0 1-30 24.6c8-8.7 14.3-19 30-24.6" transform="translate(-57)" id="path47" fill="#ffec96"/><path d="M980 700.1c24.5-10.6 25.2-25.6 28.7-43.3-13.5 5.5-26.4 12-28.8 43.3Z" transform="translate(-57)" id="path48" fill="#e9c321" stroke="#9a6314" stroke-width="0.5px"/><path d="M985.6 687c4.9-16 10-16.8 15-21.5a29 29 0 0 1-15 21.5" transform="translate(-57)" id="path49" fill="#ffec96"/><path d="M978.3 661c29.5-7.9 32-23 37.8-40.6-16.2 4-31.9 9-37.8 40.6Z" transform="translate(-57)" id="path50" fill="#e9c321" stroke="#9a6314" stroke-width="0.5px"/><path d="M986.2 648.3c7.3-15.7 13.3-15.9 19.6-20.1-2.4 8.5-8.4 15.5-19.6 20" transform="translate(-57)" id="path51" fill="#ffec96"/><path d="M986 618.5c31.5-1.6 37-15.4 46.7-30.7-17.2.6-34 2.1-46.7 30.7Z" transform="translate(-57)" id="path52" fill="#e9c321" stroke="#9a6314" stroke-width="0.5px"/><path d="M996.6 608.1c10.8-13.3 16.8-12.3 24-15-4.1 7.6-11.6 12.9-24 15" transform="translate(-57)" id="path53" fill="#ffec96"/><path d="M1004 583.2c31.3 3.2 38.9-9.6 50.7-23.3-17-2-34-3-50.8 23.3Z" transform="translate(-57)" id="path54" fill="#e9c321" stroke="#9a6314" stroke-width="0.5px"/><path d="M1016 574.6c12.6-11.5 18.4-9.7 26-11.3-5.3 6.9-13.5 11-26 11.3" transform="translate(-57)" id="path55" fill="#ffec96"/><path d="M1028.9 548.7c30 9.4 40-1.6 54.4-12.7-16.3-5.4-32.7-9.7-54.4 12.7Z" transform="translate(-57)" id="path56" fill="#e9c321" stroke="#9a6314" stroke-width="0.5px"/><path d="M1042.4 542.7c14.7-8.8 20-5.8 27.7-5.9-6.5 5.7-15.4 8-27.7 5.9" transform="translate(-57)" id="path57" fill="#ffec96"/><path d="M1064.6 520.9c28.4 13.5 39.9 4 55.7-5-15.5-7.6-31.1-14.2-55.7 5Z" transform="translate(-57)" id="path58" fill="#e9c321" stroke="#9a6314" stroke-width="0.5px"/><path d="M1078.8 516.7c15.8-6.6 20.6-2.9 28.3-1.8-7.3 4.7-16.4 5.8-28.3 1.8" transform="translate(-57)" id="path59" fill="#ffec96"/><path d="M1085.5 502C974.3 562.7 959 677 986.6 749c7 18.2 14.5 42.1 36.3 68.7s58.1 55.9 122.5 85.5l2.1-4.6c-63.9-29.4-99.4-58.2-120.7-84s-28.4-49-35.5-67.5C964.7 677.4 979 566 1088 506.6Z" transform="translate(-57)" id="path60" fill="#e9c321" stroke="#9a6314" stroke-miterlimit="15.1181001663208" stroke-width="1.8897625207901px"/><path d="M1288 505.3c-24.4 3.2-39.8-6.8-29.8-18.4-8.9-18.4 9.5-29.3 20.2-23.4 3.3-11.2 19.5-12.1 25.5 7l1.2 18.4Z" transform="translate(-57)" id="path61" fill="#fff" stroke="#b9b9b9" stroke-width="0.26499998569488525px"/><path d="m1302.6 500.6 1.3-30c-4.2-4.4-20.2-8.3-17.6 7.2-9-7.9-19.4.7-13 10.8-12 7-1.8 15.4 3 17.2Z" transform="translate(-57)" id="path62" fill="#b9b9b9"/><path d="M1274.4 506.5c8.8 1.8 18 1.4 27.5 0l7.6-1.6c-5-5.8 1-26.9-5.4-33-.3 12.9-6.2 10-13.7 2.3 14 27.8-10.2 2.1-15.3 3.1 24 23 8 16 .2 16.3 6.7 3.5 17.3 7.4-1 12.9Z" transform="translate(-57)" id="path63" fill="#03933f" stroke="#066930" stroke-width="0.30000001192092896px"/><path d="M1285.5 504c6.8.3 14 .6 17.1-3.4 2.6-3.3 1.7-10.2 2.5-15.7-3.7 2.5-5.6 1.9-6.9.4-1.6 2.4-1.8 6.5-6 6.3.7 4.5-1.3 5.9-4.6 5.7 1.5 1.8 1.8 3.8-2 6.7" transform="translate(-57)" id="path64" fill="#23a84c"/><path d="M1335 541.2c-29 1.8-46.3-11.2-33.6-24-8.9-22.5 13.7-34 25.9-26.1 4.7-13 24-12.8 29.3 10.3V523Z" transform="translate(-57)" id="path65" fill="#fff" stroke="#b9b9b9" stroke-width="0.26499998569488525px"/><path d="m1352.6 536.7 4-35.3c-4.5-5.4-26.2-9-27.8.4-4.6-3.1-18.9 3.7-13 16.5-12.7 4.9-2.5 20.6 3 23.2Z" transform="translate(-57)" id="path66" fill="#b9b9b9"/><path d="M1318.8 541.5a91 91 0 0 0 32.4 2.1l9.2-1.2c-5.5-7.3 3.4-31.6-3.6-39.5-1.5 15.3-8.1 11.4-16.4 1.7 14.1 34-12.1 1.8-18.3 2.5 26.4 29 8 19.5-1 19.3 7.5 4.6 19.7 10.1-2.3 15Z" transform="translate(-57)" id="path67" fill="#03933f" stroke="#066930" stroke-width="0.30000001192092896px"/><path d="M1332.1 539.4c8 1 16.4 1.8 20.5-2.7 3.3-3.6 2.8-11.9 4.3-18.3-4.6 2.7-6.8 1.8-8.2 0-2.1 2.7-2.6 7.5-7.7 6.9.6 5.4-2 6.9-5.9 6.4 1.7 2.2 1.8 4.6-3 7.7" transform="translate(-57)" id="path68" fill="#23a84c"/><path d="M1372 578.6c-29.1-3-44-18.7-29.3-29.3-5.2-23.5 19-31.1 29.7-21.4 6.8-12 25.7-8.7 27.3 15l-3.7 21.4Z" transform="translate(-57)" id="path69" fill="#fff" stroke="#b9b9b9" stroke-width="0.26499998569488525px"/><path d="M1355.8 576.2c-7.3-2.5-4.3-14.9 7.7-21.6-12.3-11 4.9-23.1 17-12.8 6.1-12.7 16-4.6 19.2 1L1390 577Z" transform="translate(-57)" id="path70" fill="#b9b9b9"/><path d="M1355.8 576.2a91 91 0 0 0 31.6 7.4l9.3.3c-4.2-8.1 8.5-30.6 3-39.5-4 14.8-10 9.9-16.5-1 8.3 35.8-12.3-.2-18.5-.5 21.3 32.8 4.7 20.4-4.2 18.7 6.7 5.9 17.8 13.3-4.7 14.6Z" transform="translate(-57)" id="path71" fill="#03933f" stroke="#066930" stroke-width="0.30000001192092896px"/><path d="M1369.3 576.3c7.8 2.3 16 4.5 20.7.7 3.8-3 4.7-11.3 7.2-17.3-5 1.9-7 .7-8-1.4-2.7 2.4-4 7-8.8 5.5-.4 5.5-3 6.5-6.8 5.4 1.2 2.4 1 4.8-4.3 7.1" transform="translate(-57)" id="path72" fill="#23a84c"/><path d="M1398.9 621c-27.2-10.6-37.3-29.7-20.3-36 1.4-24 26.7-24.9 34.4-12.7 9.8-9.7 27.1-1.4 22.2 21.8l-9.3 19.7Z" transform="translate(-57)" id="path73" fill="#fff" stroke="#b9b9b9" stroke-width="0.26499998569488525px"/><path d="m1416.6 624.4 18.6-30.3c-.4-15.7-16.3-19.5-22.6-9.3-11-11.1-25.2-1.2-21.5 7.3-13.5-.9-8.6 18.2-4.7 22.8Z" transform="translate(-57)" id="path74" fill="#b9b9b9"/><path d="M1384 614.4c8 7 17.9 11.8 28.4 15.7l8.9 2.7c-1.8-8.9 16.5-27.2 13.4-37.2-7.8 13.2-12.1 6.8-15.5-5.4-1.6 36.7-11.8-3.5-17.7-5.5 11.7 37.4-1 21-9 17 4.8 7.4 13.5 17.5-8.5 12.7Z" transform="translate(-57)" id="path75" fill="#03933f" stroke="#066930" stroke-width="0.30000001192092896px"/><path d="M1397 618.2c6.8 4.2 14 8.6 19.6 6.2 4.6-1.9 7.7-9.6 11.7-14.8-5.4.5-7-1.1-7.4-3.5-3.1 1.6-5.6 5.7-10 3-1.7 5.2-4.6 5.5-8 3.4.6 2.6-.3 4.9-6 5.7" transform="translate(-57)" id="path76" fill="#23a84c"/><path d="M1414.3 668.7c-25.2-14.7-32.4-35.1-14.6-38.7 5-23.6 30.1-20.6 36-7.3 11-8.2 27 2.6 18.6 24.8l-12.1 18Z" transform="translate(-57)" id="path77" fill="#fff" stroke="#b9b9b9" stroke-width="0.26499998569488525px"/><path d="m1431.4 674.7 23-27.2c2-14.9-16.8-22-23.5-15-2-5.2-17.7-7.5-20 6.4-13.2-3-13.4 15.8-10.3 21Z" transform="translate(-57)" id="path78" fill="#b9b9b9"/><path d="M1400.6 659.9c7 8 16 14.3 25.8 19.8l8.3 4c-.5-9 20.4-24.4 19-34.8-9.8 11.9-13.2 5-14.6-7.6-7.2 36-11.1-5.3-16.7-8.1 6 38.7-4 20.6-11.5 15.3 3.7 8.1 10.8 19.4-10.3 11.4Z" transform="translate(-57)" id="path79" fill="#03933f" stroke="#066930" stroke-width="0.30000001192092896px"/><path d="M1412.9 665.6c6.1 5.2 12.6 10.6 18.5 9.1 4.8-1.2 9-8.3 13.7-12.9-5.3-.3-6.6-2.2-6.7-4.5-3.4 1-6.4 4.7-10.3 1.4-2.6 4.9-5.5 4.7-8.4 2.1 0 2.7-1.1 4.8-6.8 4.8" transform="translate(-57)" id="path80" fill="#23a84c"/><path d="M1407.7 714c-16.4-24.3-14-45.8 3.6-41.3 14.8-19 36.1-5.4 35.6 9 13.5-2.4 23.1 14.2 6 30.6l-18.8 11Z" transform="translate(-57)" id="path81" fill="#fff" stroke="#b9b9b9" stroke-width="0.26499998569488525px"/><path d="m1420.4 726.8 32.5-14.5c7.7-10.7-2.8-24.8-11.8-21.5.2-12.1-15.4-16.7-23.5-5.1-10.6-8.4-19 8.3-18.4 14.4Z" transform="translate(-57)" id="path82" fill="#b9b9b9"/><path d="M1399.2 700c2.7 10.3 8 19.8 14.5 29l5.8 7.3c3.5-8.4 29-13 32.2-23-14 6.4-14-1.3-9.8-13.3-22.1 29.3-7.7-9.6-11.5-14.5-11.5 37.4-12.7 16.7-17 8.8-.3 8.9 1.2 22.1-14.2 5.7Z" transform="translate(-57)" id="path83" fill="#03933f" stroke="#066930" stroke-width="0.30000001192092896px"/><path d="M1407.7 710.5c3.3 7.4 6.8 15 12.7 16.3 4.8 1 11.7-3.6 18-5.7-4.7-2.6-5-4.8-4.1-7-3.5-.5-7.9 1.5-10-3.2-4.4 3.3-6.8 1.9-8.4-1.8-1 2.6-3 4-8.2 1.4" transform="translate(-57)" id="path84" fill="#23a84c"/><path d="M1397.4 764c-13.4-26.2-8-47.4 9.2-40.9 17.5-17.4 37.4-1.3 35 13.2 14-1 21.5 16.9 2 31.3l-20.6 8.8Z" transform="translate(-57)" id="path85" fill="#fff" stroke="#b9b9b9" stroke-width="0.26499998569488525px"/><path d="m1410.1 775.3 33.4-7.7c3.3-6.4-2-27.9-11.5-25.6 1.1-5.4-11-15.8-20.8-5.2-9.6-9.7-20.4 6.2-20.6 12.3Z" transform="translate(-57)" id="path86" fill="#b9b9b9"/><path d="M1390.6 749.1a90 90 0 0 0 10.9 30.8l4.9 8c4.7-8 31.2-9.9 35.7-19.5-15 4.9-14-2.9-8.1-14.4-26.4 26.9-6.5-10.5-9.7-15.9-16.8 36.2-15.1 15.3-18.6 6.9-1.3 8.9-1.6 22.3-15.1 4.1Z" transform="translate(-57)" id="path87" fill="#03933f" stroke="#066930" stroke-width="0.30000001192092896px"/><path d="M1397.9 760.5c2.3 7.8 4.8 16 10.7 17.8 4.8 1.6 12.4-2.2 19-3.5-4.4-3.2-4.5-5.5-3.2-7.6-3.5-.8-8.2.7-9.6-4.3-5 2.8-7.3 1-8.4-2.7-1.5 2.4-3.7 3.5-8.5.3" transform="translate(-57)" id="path88" fill="#23a84c"/><path d="M1374.3 808c-9.8-27.6-1.7-48 14.5-39.3 19.7-14.9 37.3 3.7 32.9 17.7 14 1 19.2 19.6-2.1 31.3l-21.6 6Z" transform="translate(-57)" id="path89" fill="#fff" stroke="#b9b9b9" stroke-miterlimit="15.1181001663208" stroke-width="0.94488126039505px"/><path d="m1386 819.5 32-1.2c4.2-5.8 3.3-28.5-6.5-27.4 1.8-5.3-8.8-17.2-19.9-8-8.3-10.8-21 3.5-22 9.5Z" transform="translate(-57)" id="path90" fill="#b9b9b9"/><path d="M1369.5 792.4a90 90 0 0 0 6.8 32l3.8 8.5c5.7-7.3 32.2-5.6 38-14.6-15.5 2.9-13.5-4.7-6.2-15.3-29.7 23.1-5.1-11.3-7.5-17-21.4 33.6-17 13.2-19.3 4.3-2.6 8.6-4.6 22-15.6 2.1Z" transform="translate(-57)" id="path91" fill="#03933f" stroke="#066930" stroke-width="0.30000001192092896px"/><path d="M1375.3 804.7c1.2 8 2.6 16.4 8.2 19 4.5 2.2 12.6-.5 19.3-1-4-3.7-3.7-6-2.2-7.8-3.3-1.4-8.2-.5-9-5.6-5.2 2-7.3 0-7.9-3.9-1.7 2.2-4 3-8.4-.7" transform="translate(-57)" id="path92" fill="#23a84c"/><path d="M1334.1 841.6c2.3-31.5 18.7-48.4 30.5-33.1 25-6.8 34 18.7 23.9 30.8 13 6.7 10 27.3-15.2 30.2l-23.1-2.8Z" transform="translate(-57)" id="path93" fill="#fff" stroke="#b9b9b9" stroke-miterlimit="15.1181001663208" stroke-width="1.0015740819522136px"/><path d="M1337 824.3c2.4-8.1 16.4-11 24 1.6 9.5-7.7 26.2 7.2 18.6 16.8 14.8 8.3-.3 23.1-6.3 26.8-39.6-2.1-42.7-25.4-36.3-45.3" transform="translate(-57)" id="path94" fill="#b9b9b9"/><path d="M1336.2 824.1a100 100 0 0 0-7 34.4l-76.9 35.3 2.8 6.2 74-31.5c8.6-5 33.2 7.5 42.5 1-16-3.5-10.9-10.1.6-17.7-38.1 10.9-.2-13.2 0-20-34.6 24.8-21.8 6.3-20.3-3.5-6 7.6-13.6 20-15.7-4.2Z" transform="translate(-57)" id="path95" fill="#03933f" stroke="#066930" stroke-miterlimit="15.1181001663208" stroke-width="1.1338575575295096px"/><path d="M1336.5 838.6c-2.2 8.5-4.4 17.4-.2 22.3 3.4 4 12.3 4.5 18.8 6.8-2.1-5.3-1-7.4 1.3-8.7-2.6-2.7-7.6-3.8-6.2-9.1-6-.1-7-3-6-7.1-2.6 1.5-5.2 1.3-7.7-4.2" transform="translate(-57)" id="path96" fill="#23a84c"/><path d="M1162.9 899.7c-70.8-78.3-157.2-260 37.1-402 35.3 100.7 77.3 194.6 151.9 255-39 21.7-82 68.7-129.6 143.4Z" transform="translate(-57)" id="path97" fill="#ccdde7" stroke="#808386" stroke-miterlimit="15.1181001663208" stroke-width="1.5987391223250214px"/><path d="M1164 894.5c-62.4-80-138.5-238.3 30.3-376.3l5.7 8c24.5 92.1 59.3 168 123.4 226.3l-.5.6c-33.3 20.9-61.9 64.5-99 133.1a25 25 0 0 1-5.2 5.4c-3.8 0-54.7 3-54.7 3" transform="translate(-57)" id="path98" fill="#d9e5ec"/><path d="M1164.6 891.9c-58.2-80.7-129.3-227.5 26.8-363.5l6 4.7c19.6 90.7 51 160.7 111.8 219.3l-.3.6c-31.3 20.8-53.5 64-86.5 132q-1.5 2-5.4 4.3z" transform="translate(-57)" id="path99" fill="#e0ebf1"/><path d="M1165.1 889.3c-54-81.5-119.9-216.7 23.4-350.6l6.3 1.3c14.7 89.3 42.9 153.3 100.2 212.3l-.2.6c-29.1 20.6-45 63.5-73.9 130.9q-1.2 1.5-5.7 3.3c-7.7.2-50.1 2.2-50.1 2.2" transform="translate(-57)" id="path100" fill="#e5eef4"/><path d="M1165.7 886.7c-49.7-82.4-110.6-205.9 20-337.8l6.5-2c9.8 87.8 34.7 146 88.5 205.3l.1.7c-27 20.4-36.7 63-61.4 129.7q-.9 1-6 2.2z" transform="translate(-57)" id="path101" fill="#ecf2f6"/><path d="M1166.2 884c-45.5-83-101.2-195 16.6-324.9l6.9-5.2c4.9 86.3 26.4 138.5 76.8 198.3l.3.6c-25 20.3-28.3 62.4-49 128.5-.2.4-2.6.8-6.2 1.3z" transform="translate(-57)" id="path102" fill="#f5f9fa"/><path d="M1166.7 881.4c-41.2-83.9-91.8-184.1 13.2-312l7.2-8.6c0 84.9 18.2 131.1 65.2 191.3l.4.6c-22.9 20.2-19.9 62-36.4 127.4z" transform="translate(-57)" id="path103" fill="#fff"/><path d="M1095.3 889.3c24 36 73.8 33.3 90.3 33.6 4.4 4 2.7 12.5 2.2 20h24.4c-.5-7.5-2.2-16 2.2-20 16.6-.3 66.3 2.3 90.4-33.6-25 16.6-31-8.7-64.8 12.4-22.6-11.6-29-11-40-11.6-11 .5-17.4 0-40 11.6-33.8-21-39.7 4.2-64.7-12.4Z" transform="translate(-57)" id="path104" fill="#da271e" stroke="#a11e18" stroke-miterlimit="15.1181001663208" stroke-width="1.5987391223250214px"/><path d="M1114.9 901.2c19 .5 34-3 42.9 6.8a57 57 0 0 1-42.9-6.8m47.7 6.5c43.8-25.2 66.6-5.2 75-2.2-46.8-7.8-52-1.4-75 2.2m40.1 34h4.7c-.2-9.4 1-17.7 7.8-22.8-9.7 4-11 13.4-12.5 22.7m17.7-22.7c31.5 2.1 53.7-10.2 75.5-22.9a230 230 0 0 1-75.5 23m21.5-12c16.1-6 30.2-6.6 44.9-8.8-15 3-19.1-6.9-44.8 8.8" transform="translate(-57)" id="path105" fill="#e8554d"/><path d="M974.4 847.6c.8 22.3 22 38.2 42.7 54.3 13.7 11.1 22.5 40.3 37.6 51.5 19.4 7.5 194.2 8.2 306.7 6 32.7-17.2 28.3-64.7 56.2-90.5-14-2.6-19.8 16.2-41 13.7-10.8 60.5-130.9 53.1-176.6 56-48 3-186.4-20.3-188.3-69.7-22-7-25.3-14.2-37.3-21.3Z" transform="translate(-57)" id="path106" fill="#e9c321" stroke="#9a6314" stroke-miterlimit="15.1181001663208" stroke-width="1.5987391223250214px"/><path d="m1200 423.6-9.7 30h-31.5l25.5 18.4-9.8 30 25.5-18.5 25.5 18.5-9.7-30 25.4-18.5h-31.5Z" transform="translate(-57)" style="isolation:isolate" id="path107" fill="#9a6314" fill-rule="evenodd" opacity="0.9810000061988831"/><path d="m1200 429.2-8.5 26h-27.4l22.2 16.2-8.5 26 22.2-16 22.2 16-8.5-26 22.2-16.1h-27.4Z" transform="translate(-57)" style="isolation:isolate" id="path108" fill="#e9c321" fill-rule="evenodd" opacity="0.9810000061988831"/><path d="m1200 429.2-8.5 26 8.5 11.7-35.9-11.6 22.2 16 13.7-4.4-22.2 30.5 22.2-16v-14.5l22.2 30.5-8.5-26-13.7-4.5 35.9-11.6h-27.4l-8.5 11.6Z" transform="translate(-57)" id="path109" fill="#ffea6d" fill-rule="evenodd"/><path d="m1200 429.2-8.5 26 8.5 11.7-35.9-11.6 22.2 16 13.7-4.4-22.2 30.5 22.2-16v-14.5l22.2 30.5-8.5-26-13.7-4.5 35.9-11.6h-27.4l-8.5 11.6Z" transform="translate(-57)" id="path110" fill="#ffea6d" fill-rule="evenodd"/><path d="M981.3 859.6c6.8 7.9 12.5 16.1 26.4 21-.6-2.6-2.9-5.2-.9-7.8-9.5-.9-17.1-8.3-25.5-13.2m53 45.9c105.3 77.6 313.9 31 320.3 16.3-57 19.9-211.3 42-320.4-16.3m346-15.4a127 127 0 0 1-26.9 65.7c33.8-23.1 34.4-59.8 52-77.7-8.9 6-17.2 16-25 12" transform="translate(-57)" id="path111" fill="#ffec96"/><path d="M1137.8 786.7c8.7 19.9 114.9 16.3 117-.2-45.6-13.4-32.7-31.1-33.8-43-.9-9.5-9.1-17.9-9.7-27.2-.5-8.8 6.8-18 6.2-27.3s-7.7-17.3-9-26.8c-1-7.7 4.1-15.6 2.4-24.6s-5.4-19.3-5.4-28.8c0-7.7 3.8-17.4 2.6-23.8-5.1-26.8-12.3-58.1-8.3-85.3-9.5 24-14.3 42.1-9.2 80.6 1.2 9.5-3.3 22.9-3.6 32-.4 10 0 21.8.3 29s-5.5 18.3-6.3 24.2c-1.2 8.3 5.5 14.3 4.8 23.1 0 0-6 12-7.1 22.5s7 35.6-2.2 46.6c-8.4 10-17 20.7-38.7 29Z" transform="translate(-57)" id="path112" fill="#e9c321" stroke="#9a6314" stroke-miterlimit="15.1181001663208" stroke-width="1.0015740819522136px"/><path d="M1200.8 763.8h-3.7a90 90 0 0 1-22.2 35.4l11 .6c-6 37.8 16.7 48 7.3 54-6.1 3-22.4-2.5-28.3.2 17.7 6.6 2.4 30.8 36 32.7 14 1 26-20.3 25.5-33.4-.8-21.7-25.5-26.2-18.6-53.5l16-2c-8.5-3.1-24-33.3-23-34m-13.5 101.7" transform="translate(-57)" id="path113" fill="#010101"/><path d="M1188.6 800h6.8a68 68 0 0 0 1.9 38.8c-7-7.6-12.3-13.8-8.7-38.8m14.4 19c-4 11.6 9.7 24.4 9.6 36.4a27 27 0 0 1-19.2 24.3c6.2 2.2 22.8-1.4 28.4-20.4 4.4-15-12-27.4-18.8-40.3m-29.2 37.5c5.5 1.7 7.2 4.3 8.3 7 13 1.1 18.2-7.2 17.4-13.8-.1 4.4-11.2 11-25.7 6.8m7-59.6c8.7-8.5 13-19.2 18-29.7-2.2 10-2 20.6-7.8 29.6Zm25-17.5c.8 8.6-6.1 11.8-3.5 17.2l7.6-.3c4.3-7.3-.5-7.3-4.1-17" transform="translate(-57)" id="path114" fill="#242424"/><path d="M1199 763.8c1.3-5.2 1.2-12.3 1.4-18.8.2-13.6-7.4-22.2-6.4-39 .8-13 5.8-19 5.2-26.4-.7-10.3-3.5-15-3-29.4.7-15.6 4.3-25.8 4.7-39 .7-23.5-7.4-37-7.5-58.6 0-22 2.5-29.7 4.8-47" transform="translate(-57)" id="path115" fill="none" stroke="#9a6314" stroke-miterlimit="15.1181001663208" stroke-width="1.3795266762211327px"/><path d="M1150.8 786.7c7.7 4.7 13.8 4.7 20 4.8 9-9 20-20.5 22.9-36.7 3.3-13.7-4.9-28.8-5.2-43.5-.3-10.7 6.3-18.7 6.3-28.6 0-7.7-6-13.9-5.3-22.3 2.5-8.3 5.2-14.2 4-31.3-.8-14 .3-28.9.8-43.3-1.4 14-4.8 28.4-2.9 43.3a63 63 0 0 1-4.5 30.8c-1.8 6.8 4.2 13.6 4.5 22.5.3 8-6.5 18.6-8 27.7-2.6 15.6 6.4 28.2 4.2 43.1-1.8 12.1-11.7 23.8-36.8 33.6m52.2-162.5c3.9 9 5.4 11 5.5 16.6.1 9.2-3.5 12-3 22.6.3 8 6.3 12 5.9 24.9-.4 11.2-5.8 17.7-5 27.4 1.3 13.4 8.3 18.5 9.7 29.1 1 9-4 17.2 1.8 24.4 7 8.7 12.5 9 26 18.9l-17.8 4.3a59 59 0 0 1-18.7-21.8c-4-7.7-2.8-17-2.2-25.1 1-11.4-5.5-18.2-6-29.9-.4-10.4 4-17.6 4.9-27.3.9-10.4-2.4-16-3-24.4-.7-8.1 4.3-14.8 4-22.6 0-5.7 0-9.6-2.1-17.1m-6.1-83.9c-1.2 17 3.7 34 6.6 50.7.8-17.2-3.6-34.1-6.6-50.7" transform="translate(-57)" id="path116" fill="#ffec96"/><path d="m1402 460.2 4 2.6-6.7 11.2-1.8 3.5a4 4 0 0 0 0 2.8 5 5 0 0 0 2 2.5 5 5 0 0 0 3 1 3 3 0 0 0 2.1-1.1l2.2-3.4 6.8-11.4 3.9 2.6-6.4 10.8a32 32 0 0 1-3.4 5 6 6 0 0 1-2.7 1.8 7 7 0 0 1-3.3.2 12 12 0 0 1-4-1.9 13 13 0 0 1-4-3.4 8 8 0 0 1-1.1-3.3 7 7 0 0 1 .2-3 30 30 0 0 1 2.7-5.5Z" transform="translate(-57)" id="path117" fill="#fff"/><path d="m1301 414.9-14.8 20.8 4.8 1.4 3.2-4.8 8.8 2.6.5 5.9 4.8 1.4-2.6-26Zm.9 6.1.7 9.6-6-1.8Zm48 11.5-9.2 22.2 4.2 2 3.9-9.2.8.4 2 1.2a4 4 0 0 1 1 1.5l.8 4.3 1 6.3 5.1 2.3-.7-5.5-1-4.7a11 11 0 0 0-1.4-3 7 7 0 0 0 5 0 6 6 0 0 0 3-3.5 7 7 0 0 0 .6-4 6 6 0 0 0-1.5-3.2 16 16 0 0 0-4.7-2.9Zm2.7 5.8 3.3 1.5 3 1.5a3 3 0 0 1 1.3 1.7 3 3 0 0 1-.2 2 3 3 0 0 1-1.1 1.5 2 2 0 0 1-1.6.4 17 17 0 0 1-4-1.5l-3-1.5Zm33.8 12.7-18.8 16.8 4.3 2.5 4.2-4 8 4.7-.7 5.9 4.4 2.5 3-26Zm-.4 6.2-1.3 9.5-5.5-3.2Z" transform="translate(-57)" id="path118" fill="#fff"/><path d="m1361.6 464.8 10-21.8 4.2 2.2-10 21.7Z" transform="translate(-57)" id="path119" fill="#fff"/><path d="m1310.7 443.1 7.5-23 4.2 1.6 3.9 18.6 5-15.3 4 1.5-7.4 22.9-4.4-1.6-3.9-18.2-4.8 15Z" transform="translate(-57)" id="path120" fill="#fff"/><path d="m1270.8 407.3 4.5 1-2.6 12.9-.7 4a4 4 0 0 0 .9 2.6 5 5 0 0 0 2.8 1.6 4 4 0 0 0 3-.2 3 3 0 0 0 1.7-1.8l1-4 2.7-13 4.5 1-2.5 12.4a34 34 0 0 1-1.6 6 7 7 0 0 1-5 4 11 11 0 0 1-4.5-.3 12 12 0 0 1-4.7-1.9 8 8 0 0 1-2.2-2.6 7 7 0 0 1-.7-3 31 31 0 0 1 .8-6Z" transform="translate(-57)" id="path121" fill="#fff"/><path d="m1186.5 399.5-7.5.1.4 24.3h4.6l-.1-9.2h3a25 25 0 0 0 4.8-.5 7 7 0 0 0 4.2-3.6 8 8 0 0 0 .8-3.8 8 8 0 0 0-1.4-4.6 6 6 0 0 0-3.3-2.4 26 26 0 0 0-5.5-.3m-.6 4.2h3.4a3 3 0 0 1 1.8 1.1 3 3 0 0 1 .8 2.2 3 3 0 0 1-.5 1.9 3 3 0 0 1-1.4 1.2 11 11 0 0 1-3.7.4h-2.5v-6.8Zm67.3.5-12.4 22.5 4.9.8 2.7-5.1 9 1.5 1.2 5.7 5 .9-5.6-25.5Zm1.5 6 1.8 9.4-6.1-1Z" transform="translate(-57)" id="path122" fill="#fff"/><path d="m1223.9 425 2.2-24 4.6.5-1.9 19.9 11.5 1.2-.4 4Z" transform="translate(-57)" id="path123" fill="#fff"/><path d="m1201.7 399.5 4.6.2-.6 13.1v4a4 4 0 0 0 1.3 2.5 5 5 0 0 0 3 1 5 5 0 0 0 3-.6 3 3 0 0 0 1.3-2l.4-4.2.6-13.4 4.6.2-.5 12.7a35 35 0 0 1-.7 6.2 7 7 0 0 1-4.2 4.8 11 11 0 0 1-4.5.5 12 12 0 0 1-5-1 7 7 0 0 1-2.5-2.2 7 7 0 0 1-1.2-2.7 32 32 0 0 1-.2-6.2Z" transform="translate(-57)" id="path124" fill="#fff"/><path d="m1158 425.3-1.5-24.2 17-1.2.2 4-12.3 1 .3 5.4 11.5-.9.3 4-11.5 1 .4 6.5 12.8-1 .3 4.2Z" transform="translate(-57)" id="path125" fill="#fff"/><path d="m1135.2 428.3-2.9-24.1 4.6-.6 1.3 10.7 8-12 6.1-.8-7.4 10.5 10.8 13.5-6 .8-7.6-10.5-3.2 4.6.9 7.2Z" transform="translate(-57)" id="path126" fill="#fff"/><path d="m1117.5 431.7-4.3-23.8 4.5-1 4.4 23.8Z" transform="translate(-57)" id="path127" fill="#fff"/><path d="m1094 429.2 4.3-1.5a6 6 0 0 0 2.4 3 5 5 0 0 0 3.5.3 5 5 0 0 0 3-1.8 3 3 0 0 0 .6-2.6 2 2 0 0 0-.8-1.3 4 4 0 0 0-1.8-.6l-3.8-.1a12 12 0 0 1-5.6-1.1 6 6 0 0 1-3.1-4.2 7 7 0 0 1 2.4-6.7 11 11 0 0 1 4.2-2q4.2-1 6.8.4a7 7 0 0 1 3.4 4.7l-4.5 1.3a4 4 0 0 0-1.8-2.3 4 4 0 0 0-3 0 5 5 0 0 0-3 1.5 2 2 0 0 0 .7 3 12 12 0 0 0 4.5.5 21 21 0 0 1 5.2.5 6 6 0 0 1 3 1.8 7 7 0 0 1 1.7 3.5 8 8 0 0 1-.2 4 7 7 0 0 1-2.4 3.4 13 13 0 0 1-4.7 2.1q-4.2 1-7-.4a9 9 0 0 1-4-5.4" transform="translate(-57)" id="path128" fill="#fff"/><path d="m1074.8 443.4-6.6-23.2 4.3-1.4 13.4 12.7-4.4-15.5 4.1-1.3 6.6 23.2-4.5 1.4-13-12.3 4.2 15.1Z" transform="translate(-57)" id="path129" fill="#fff"/><path d="m1066.2 446.6-7.5-23 4.4-1.5 7.5 23Z" transform="translate(-57)" id="path130" fill="#fff"/><path d="m1051.8 452.3-15.9-19.4 4.7-2 11.5 14.5-.9-18.9 4.6-1.8.6 25.7Z" transform="translate(-57)" id="path131" fill="#fff"/><path d="M1028.7 437.2a11 11 0 0 0-5.5 1.3 13 13 0 0 0-4.1 3 10 10 0 0 0-1.8 3.4 12 12 0 0 0-.7 4 16 16 0 0 0 1.6 6q2.2 5.3 6.3 7a10 10 0 0 0 8.7-.7 11 11 0 0 0 6-6.5q1.4-4.4-1-9.7-2.3-5.4-6.3-7a9 9 0 0 0-3.2-.8m-1.3 4.4a5 5 0 0 1 2.4.5q2.4 1.1 4 4.9t1 6.5a6 6 0 0 1-3.3 4 6 6 0 0 1-5 0q-2.5-1-4-4.8-1.7-3.8-1-6.5a6 6 0 0 1 3.4-4 6 6 0 0 1 2.5-.6" transform="translate(-57)" id="path132" fill="#fff"/><path d="M1007 448.5h-1a16 16 0 0 0-5 2.1l-8.5 5 10.9 21.3 4-2.4-4.5-8.9.8-.4a7 7 0 0 1 2.2-1 3 3 0 0 1 1.7.2l3.7 2 5.3 3 4.9-2.9-4.6-2.7a25 25 0 0 0-4.1-2.2 10 10 0 0 0-3-.5 8 8 0 0 0 3-4.3 7 7 0 0 0-.8-4.7 7 7 0 0 0-2.6-2.9 5 5 0 0 0-2.5-.7m-1.4 4.7 1 .2a3 3 0 0 1 1.4 1.4 3 3 0 0 1 .4 1.8 3 3 0 0 1-.7 1.6 17 17 0 0 1-3.5 2.3l-3 1.7-2.8-5.4 3.2-1.8 3-1.6z" transform="translate(-57)" id="path133" fill="#fff"/><path d="m986.3 460.8-2 .3a26 26 0 0 0-4.8 2.7L973 468l12 20.6 4-2.5-4.6-7.8 2.6-1.7a26 26 0 0 0 4-3 7 7 0 0 0 1.9-5.4 8 8 0 0 0-1.2-3.6 7 7 0 0 0-3.5-3.3zm-1.3 4.9 1 .1a3 3 0 0 1 1.7 1.5 3 3 0 0 1 .5 1.9 3 3 0 0 1-.6 1.8 12 12 0 0 1-3 2.3l-2.1 1.4-3.4-5.8 1.9-1.2 3-1.8z" transform="translate(-57)" id="path134" fill="#fff"/><path d="M1047.3 313.2a18 18 0 0 0 0 36.2h64.7a18 18 0 1 0 0-36.2Zm0 8.7h64.7a9.4 9.4 0 1 1 0 18.7h-64.7a9.4 9.4 0 0 1 0-18.7m158.3-8.7a18 18 0 0 0 0 36.2h64.7a18 18 0 1 0 0-36.2Zm0 8.7h64.7a9.4 9.4 0 0 1 0 18.7h-64.7a9.4 9.4 0 0 1 0-18.7" transform="translate(-57)" style="isolation:isolate" id="path135" fill="#010101" fill-rule="evenodd" opacity="0.9800000190734863"/><path d="M1112.4 324.4h88.5a6.4 6.4 0 0 1 6.4 6.4 6.4 6.4 0 0 1-6.4 6.4h-88.5a6.4 6.4 0 0 1-6.3-6.4 6.4 6.4 0 0 1 6.3-6.4" transform="translate(-57)" style="isolation:isolate" id="path136" fill="#010101" fill-rule="evenodd" opacity="0.9800000190734863"/><path d="M1276.5 324.4h88.4a6.4 6.4 0 0 1 6.4 6.4 6.4 6.4 0 0 1-6.4 6.4h-88.4a6.4 6.4 0 0 1-6.4-6.4 6.4 6.4 0 0 1 6.4-6.4" transform="translate(-57)" style="isolation:isolate" id="path137" fill="#010101" fill-rule="evenodd" opacity="0.9800000190734863"/><path d="M912.4 384a18 18 0 0 0 20.8 29.7l52.9-37.2a18 18 0 1 0-20.8-29.6Zm5 7.2 52.9-37.2a9.4 9.4 0 1 1 10.8 15.3l-53 37.2a9.4 9.4 0 0 1-10.7-15.3" transform="translate(-57)" style="isolation:isolate" id="path138" fill="#010101" fill-rule="evenodd" opacity="0.9800000190734863"/><path d="m867 446.9 48.5-50.1a6.4 6.4 0 0 1 9-.2 6.4 6.4 0 0 1 .2 9l-48.5 50.1a6.4 6.4 0 0 1-9 .1 6.4 6.4 0 0 1-.1-9" transform="translate(-57)" style="isolation:isolate" id="path139" fill="#010101" fill-rule="evenodd" opacity="0.9800000190734863"/><path d="m973.8 354.7 62.4-31.1a6.4 6.4 0 0 1 8.5 2.8 6.4 6.4 0 0 1-2.9 8.6l-62.3 31a6.4 6.4 0 0 1-8.5-2.8 6.4 6.4 0 0 1 2.8-8.5" transform="translate(-57)" style="isolation:isolate" id="path140" fill="#010101" fill-rule="evenodd" opacity="0.9800000190734863"/><path d="M889.3 455.6a18 18 0 0 0-36.2 0v64.7a18 18 0 1 0 36.2 0Zm-8.7 0v64.7a9.4 9.4 0 0 1-18.8 0v-64.7a9.4 9.4 0 0 1 18.8 0" transform="translate(-57)" style="isolation:isolate" id="path141" fill="#010101" fill-rule="evenodd" opacity="0.9800000190734863"/><rect x="808.2674" y="516.5729" width="12.724" height="101.1828" rx="6.362" style="isolation:isolate" id="rect141" fill="#010101" opacity="0.9800000190734863"/><path d="M889.3 613.4a18 18 0 0 0-36.2 0V678a18 18 0 1 0 36.2 0Zm-8.7 0V678a9.4 9.4 0 1 1-18.8 0v-64.7a9.4 9.4 0 0 1 18.8 0" transform="translate(-57)" id="path142" fill="#010101" fill-rule="evenodd"/><rect x="808.2674" y="674.34" width="12.724" height="101.1828" rx="6.362" style="isolation:isolate" id="rect142" fill="#010101" opacity="0.9800000190734863"/><path d="M889.3 777.8a18 18 0 0 0-36.2 0v64.7a18 18 0 1 0 36.2 0Zm-8.7 0v64.7a9.4 9.4 0 0 1-18.8 0v-64.7a9.4 9.4 0 0 1 18.8 0" transform="translate(-57)" id="path143" fill="#010101" fill-rule="evenodd"/><path d="m877.7 845.3 26.5 84.4a6.4 6.4 0 0 1-4.1 8 6.4 6.4 0 0 1-8-4.2l-26.6-84.3a6.4 6.4 0 0 1 4.2-8 6.4 6.4 0 0 1 8 4.1" transform="translate(-57)" style="isolation:isolate" id="path144" fill="#010101" fill-rule="evenodd" opacity="0.9800000190734863"/><path d="M913.8 925.8a18 18 0 0 0-30.5 19.4l34.6 54.6a18 18 0 1 0 30.6-19.3Zm-7.3 4.7 34.6 54.6a9.4 9.4 0 0 1-15.8 10l-34.6-54.6a9.4 9.4 0 0 1 15.8-10" transform="translate(-57)" style="isolation:isolate" id="path145" fill="#010101" fill-rule="evenodd" opacity="0.9800000190734863"/><path d="m943 990.2 62.9 62.2a6.4 6.4 0 0 1 0 9 6.4 6.4 0 0 1-9 0L934 999.3a6.4 6.4 0 0 1 0-9 6.4 6.4 0 0 1 9 0" transform="translate(-57)" style="isolation:isolate" id="path146" fill="#010101" fill-rule="evenodd" opacity="0.9800000190734863"/><path d="M1016.3 1043.3a18 18 0 0 0-21.7 29l51.8 38.8a18 18 0 1 0 21.6-29Zm-5.3 7 51.8 38.8a9.4 9.4 0 1 1-11.2 15l-51.8-38.8a9.4 9.4 0 0 1 11.2-15" transform="translate(-57)" style="isolation:isolate" id="path147" fill="#010101" fill-rule="evenodd" opacity="0.9800000190734863"/><path d="m1058.2 1093.6 77 43.5a6.4 6.4 0 0 1 2.5 8.7 6.4 6.4 0 0 1-8.7 2.4l-77-43.5a6.4 6.4 0 0 1-2.4-8.6 6.4 6.4 0 0 1 8.6-2.5" transform="translate(-57)" style="isolation:isolate" id="path148" fill="#010101" fill-rule="evenodd" opacity="0.9800000190734863"/><path d="M1139.5 1125.8a18 18 0 0 0-13 33.8l60.4 23.2a18 18 0 1 0 13-33.8Zm-3.1 8.2 60.4 23.1a9.4 9.4 0 0 1-6.7 17.5l-60.4-23.2a9.4 9.4 0 0 1 6.7-17.4" transform="translate(-57)" style="isolation:isolate" id="path149" fill="#010101" fill-rule="evenodd" opacity="0.9800000190734863"/><path d="m1192.6 1163.4 81.4-34.8a6.4 6.4 0 0 1 8.3 3.3 6.4 6.4 0 0 1-3.3 8.4l-81.3 34.8a6.4 6.4 0 0 1-8.4-3.4 6.4 6.4 0 0 1 3.3-8.3" transform="translate(-57)" style="isolation:isolate" id="path150" fill="#010101" fill-rule="evenodd" opacity="0.9800000190734863"/><path d="M1264.2 1119.8a18 18 0 0 0 17.9 31.5l56.2-32a18 18 0 1 0-17.8-31.4Zm4.3 7.6 56.3-31.9a9.4 9.4 0 0 1 9.2 16.3l-56.2 31.9a9.4 9.4 0 0 1-9.3-16.3" transform="translate(-57)" style="isolation:isolate" id="path151" fill="#010101" fill-rule="evenodd" opacity="0.9800000190734863"/><path d="m1330.1 1095.5 73.1-49.7a6.4 6.4 0 0 1 8.9 1.6 6.4 6.4 0 0 1-1.7 8.9l-73.1 49.7a6.4 6.4 0 0 1-8.9-1.7 6.4 6.4 0 0 1 1.7-8.8" transform="translate(-57)" style="isolation:isolate" id="path152" fill="#010101" fill-rule="evenodd" opacity="0.9800000190734863"/><path d="M1395.8 1038.2a18 18 0 0 0 26.1 25l44.8-46.6a18 18 0 1 0-26-25Zm6.3 6 44.9-46.6a9.4 9.4 0 0 1 13.4 13l-44.8 46.6a9.4 9.4 0 0 1-13.5-13" transform="translate(-57)" style="isolation:isolate" id="path153" fill="#010101" fill-rule="evenodd" opacity="0.9800000190734863"/><path d="m1451 995.2 49.7-73.2a6.4 6.4 0 0 1 8.8-1.7 6.4 6.4 0 0 1 1.7 8.8l-49.6 73.2a6.4 6.4 0 0 1-8.8 1.7 6.4 6.4 0 0 1-1.7-8.8" transform="translate(-57)" style="isolation:isolate" id="path154" fill="#010101" fill-rule="evenodd" opacity="0.9800000190734863"/><path d="M1492 918.6a18 18 0 0 0 35.3 8.2l14.7-63a18 18 0 1 0-35.3-8.2Zm8.6 2 14.6-63a9.4 9.4 0 0 1 18.3 4.2l-14.7 63a9.4 9.4 0 0 1-18.2-4.2" transform="translate(-57)" style="isolation:isolate" id="path155" fill="#010101" fill-rule="evenodd" opacity="0.9800000190734863"/><path d="M1546.6 542a18 18 0 0 0-36.1 0v64.6a18 18 0 1 0 36.1 0Zm-8.7 0v64.6a9.4 9.4 0 1 1-18.7 0V542a9.4 9.4 0 0 1 18.7 0" transform="translate(-57)" id="path156" fill="#010101" fill-rule="evenodd"/><path d="M1535.4 609.3v88.4a6.4 6.4 0 0 1-6.4 6.4 6.4 6.4 0 0 1-6.4-6.4v-88.4a6.4 6.4 0 0 1 6.4-6.4 6.4 6.4 0 0 1 6.4 6.4" transform="translate(-57)" style="isolation:isolate" id="path157" fill="#010101" fill-rule="evenodd" opacity="0.9800000190734863"/><path d="M1546.6 699.7a18 18 0 0 0-36.1 0v64.7a18 18 0 1 0 36.1 0Zm-8.7 0v64.7a9.4 9.4 0 1 1-18.7 0v-64.7a9.4 9.4 0 0 1 18.7 0" transform="translate(-57)" id="path158" fill="#010101" fill-rule="evenodd"/><path d="M1535.4 767v88.5a6.4 6.4 0 0 1-6.4 6.4 6.4 6.4 0 0 1-6.4-6.4v-88.4a6.4 6.4 0 0 1 6.4-6.4 6.4 6.4 0 0 1 6.4 6.4" transform="translate(-57)" style="isolation:isolate" id="path159" fill="#010101" fill-rule="evenodd" opacity="0.9800000190734863"/><path d="M1535.4 436.6V525a6.4 6.4 0 0 1-6.4 6.4 6.4 6.4 0 0 1-6.4-6.4v-88.4a6.4 6.4 0 0 1 6.4-6.4 6.4 6.4 0 0 1 6.4 6.4" transform="translate(-57)" style="isolation:isolate" id="path160" fill="#010101" fill-rule="evenodd" opacity="0.9800000190734863"/><path d="M1433.9 346a18 18 0 0 1-19.3 30.6l-49.7-31a18 18 0 1 1 19.3-30.5Zm-4.7 7.4-49.6-31a9.4 9.4 0 0 0-10 15.9l49.6 31a9.4 9.4 0 0 0 10-15.9m45.4 63.5a18 18 0 0 1 20.7-29.6l41 28.3a18 18 0 1 1-20.7 29.6Zm5-7.1 41 28.3a9.4 9.4 0 0 0 11-15.2l-.2-.1-41-28.4a9.3 9.3 0 0 0-13 2.2l-.1.1a9 9 0 0 0 2.3 13" transform="translate(-57)" style="isolation:isolate" id="path161" fill="#010101" fill-rule="evenodd" opacity="0.9800000190734863"/><path d="M1456.4 347.7h.3a5.3 5.3 0 0 1 5.3 5.3v58.2a5.3 5.3 0 0 1-5.3 5.3h-.3a5.3 5.3 0 0 1-5.3-5.3V353a5.3 5.3 0 0 1 5.3-5.3" transform="rotate(-57.6 1428 434)" style="isolation:isolate" id="path162" fill="#010101" opacity="0.9800000190734863"/><path d="M1276 1063.6q-1.2-.7-2.5-1.2l-4.7-1.4a26 26 0 0 0-10.5 0l-4.8 1.4a74 74 0 0 0-8.2 3.8 67 67 0 0 1-7 3.3 17 17 0 0 1-13 0 67 67 0 0 1-7-3.3 74 74 0 0 0-8.3-3.8l-4.7-1.4a26 26 0 0 0-10.5 0l-4.8 1.4a74 74 0 0 0-8.2 3.8 67 67 0 0 1-7 3.3 17 17 0 0 1-13 0 67 67 0 0 1-7-3.3 74 74 0 0 0-8.3-3.8l-4.8-1.4a26 26 0 0 0-10.5 0l-4.7 1.4q-1.4.5-2.5 1.2 19.2 10.3 36.6 18.6 1.1.4 2.4.6a27 27 0 0 0 10.5 0l4.8-1.3a73 73 0 0 0 8.3-3.9 67 67 0 0 1 7-3.2 17 17 0 0 1 12.8 0 67 67 0 0 1 7 3.2 73 73 0 0 0 8.3 3.9l4.8 1.3a27 27 0 0 0 10.5 0q1.3-.2 2.4-.6a712 712 0 0 0 36.6-18.6" transform="translate(-57)" id="path163" fill="#fff"/><path d="m1295.9 1052.2-.6.2a19 19 0 0 1-6.6-1.3 66 66 0 0 1-7-3.3 74 74 0 0 0-8.2-3.8l-4.7-1.4a26 26 0 0 0-10.5 0l-4.8 1.4a74 74 0 0 0-8.2 3.8 66 66 0 0 1-7 3.3 17 17 0 0 1-13 0 66 66 0 0 1-7-3.3 74 74 0 0 0-8.3-3.8l-4.7-1.4a26 26 0 0 0-10.5 0l-4.8 1.4a74 74 0 0 0-8.2 3.8 66 66 0 0 1-7 3.3 17 17 0 0 1-13 0 66 66 0 0 1-7-3.3 74 74 0 0 0-8.3-3.8l-4.8-1.4a26 26 0 0 0-10.5 0l-4.7 1.4a74 74 0 0 0-8.3 3.8 66 66 0 0 1-7 3.3 19 19 0 0 1-6.5 1.3l-.6-.2q7.7 4.6 15.3 8.7 2-.7 3.7-1.7a67 67 0 0 1 7-3.2 17 17 0 0 1 12.8 0 67 67 0 0 1 7 3.2 73 73 0 0 0 8.3 3.9l4.8 1.3a27 27 0 0 0 10.5 0l4.8-1.3a73 73 0 0 0 8.3-3.9 67 67 0 0 1 7-3.2 17 17 0 0 1 12.8 0 67 67 0 0 1 7 3.2 73 73 0 0 0 8.3 3.9l4.8 1.3a26 26 0 0 0 10.5 0l4.8-1.3a73 73 0 0 0 8.3-3.9 67 67 0 0 1 7-3.2 17 17 0 0 1 12.8 0 67 67 0 0 1 7 3.2l3.7 1.7q7.5-4.1 15.3-8.7" transform="translate(-57)" id="path164" fill="#fff"/><path d="m1336.6 1025.5-4.3-1.3a26 26 0 0 0-10.5 0l-4.8 1.4a74 74 0 0 0-8.2 3.8 67 67 0 0 1-7 3.3 17 17 0 0 1-13 0 67 67 0 0 1-7-3.3 74 74 0 0 0-8.3-3.8l-4.7-1.4a26 26 0 0 0-10.5 0l-4.8 1.4a74 74 0 0 0-8.2 3.8 67 67 0 0 1-7 3.3 17 17 0 0 1-13 0 67 67 0 0 1-7-3.3 74 74 0 0 0-8.3-3.8l-4.7-1.4a26 26 0 0 0-10.5 0l-4.8 1.4a74 74 0 0 0-8.2 3.8 67 67 0 0 1-7 3.3 17 17 0 0 1-13 0 67 67 0 0 1-7-3.3 74 74 0 0 0-8.3-3.8l-4.8-1.4a26 26 0 0 0-10.5 0l-4.7 1.4a74 74 0 0 0-8.3 3.8 67 67 0 0 1-7 3.3 17 17 0 0 1-13 0 67 67 0 0 1-7-3.3 74 74 0 0 0-8.2-3.8l-4.8-1.4a26 26 0 0 0-10.5 0l-4.3 1.3 10.7 7.7q5.3 3.6 10.7 7l1.6.6a73 73 0 0 0 8.3 3.9l4.7 1.3a27 27 0 0 0 10.6 0l4.8-1.3a73 73 0 0 0 8.3-3.9 68 68 0 0 1 7-3.2 16 16 0 0 1 12.8 0 68 68 0 0 1 7 3.2 73 73 0 0 0 8.3 3.9l4.8 1.3a27 27 0 0 0 10.5 0l4.8-1.3a73 73 0 0 0 8.3-3.9 68 68 0 0 1 7-3.2 16 16 0 0 1 12.8 0 68 68 0 0 1 7 3.2 73 73 0 0 0 8.3 3.9l4.8 1.3a27 27 0 0 0 10.5 0l4.8-1.3a73 73 0 0 0 8.3-3.9 68 68 0 0 1 7-3.2 16 16 0 0 1 12.8 0 68 68 0 0 1 7 3.2 73 73 0 0 0 8.3 3.9l4.8 1.3a27 27 0 0 0 10.6 0l4.7-1.3a73 73 0 0 0 8.3-3.9l1.6-.7q5.4-3.3 10.7-6.9z" transform="translate(-57)" id="path165" fill="#fff"/><path d="M1352 1014.1a67 67 0 0 1-6.7-3 74 74 0 0 0-8.3-4l-4.7-1.3a26 26 0 0 0-10.5 0l-4.8 1.4a74 74 0 0 0-8.2 3.8 66 66 0 0 1-7 3.3 17 17 0 0 1-13 0 66 66 0 0 1-7-3.3 74 74 0 0 0-8.3-3.8l-4.7-1.4a26 26 0 0 0-10.5 0l-4.8 1.4a74 74 0 0 0-8.2 3.8 66 66 0 0 1-7 3.3 17 17 0 0 1-13 0 66 66 0 0 1-7-3.3 74 74 0 0 0-8.3-3.8l-4.7-1.4a26 26 0 0 0-10.5 0l-4.8 1.4a74 74 0 0 0-8.2 3.8 66 66 0 0 1-7 3.3 17 17 0 0 1-13 0 66 66 0 0 1-7-3.3 74 74 0 0 0-8.3-3.8l-4.8-1.4a26 26 0 0 0-10.5 0l-4.7 1.4a74 74 0 0 0-8.3 3.8 66 66 0 0 1-7 3.3 17 17 0 0 1-13 0 66 66 0 0 1-7-3.3 74 74 0 0 0-8.2-3.8l-4.8-1.4a26 26 0 0 0-10.5 0l-4.7 1.4a74 74 0 0 0-8.3 3.8 67 67 0 0 1-6.7 3.1q5.6 4.4 11.4 8.4h.2a67 67 0 0 1 7-3.3 17 17 0 0 1 12.8 0 67 67 0 0 1 7 3.2 73 73 0 0 0 8.3 3.9l4.7 1.3a27 27 0 0 0 10.6 0l4.8-1.3a73 73 0 0 0 8.3-3.9 67 67 0 0 1 7-3.2 17 17 0 0 1 12.8 0 67 67 0 0 1 7 3.2 73 73 0 0 0 8.3 3.9l4.8 1.3a27 27 0 0 0 10.5 0l4.8-1.3a73 73 0 0 0 8.3-3.9 67 67 0 0 1 7-3.2 17 17 0 0 1 12.8 0 67 67 0 0 1 7 3.2 73 73 0 0 0 8.3 3.9l4.8 1.3a27 27 0 0 0 10.5 0l4.8-1.3a73 73 0 0 0 8.3-3.9 67 67 0 0 1 7-3.2 17 17 0 0 1 12.8 0 67 67 0 0 1 7 3.2 73 73 0 0 0 8.3 3.9l4.8 1.3a27 27 0 0 0 10.6 0l4.7-1.3a73 73 0 0 0 8.3-3.9 67 67 0 0 1 7-3.2 17 17 0 0 1 12.9 0 67 67 0 0 1 7 3.2l.1.1q5.8-4.1 11.4-8.4" transform="translate(-57)" id="path166" fill="#fff"/><path d="M1381.6 988.5q-.6 0-1 .3a74 74 0 0 0-8.3 3.8 66 66 0 0 1-7 3.3 17 17 0 0 1-13 0 66 66 0 0 1-7-3.3 74 74 0 0 0-8.3-3.8l-4.7-1.4a26 26 0 0 0-10.5 0l-4.8 1.4a74 74 0 0 0-8.2 3.8 66 66 0 0 1-7 3.3 17 17 0 0 1-13 0 66 66 0 0 1-7-3.3 74 74 0 0 0-8.3-3.8l-4.7-1.4a26 26 0 0 0-10.5 0l-4.8 1.4a74 74 0 0 0-8.2 3.8 66 66 0 0 1-7 3.3 17 17 0 0 1-13 0 66 66 0 0 1-7-3.3 74 74 0 0 0-8.3-3.8l-4.7-1.4a26 26 0 0 0-10.5 0l-4.8 1.4a74 74 0 0 0-8.2 3.8 66 66 0 0 1-7 3.3 17 17 0 0 1-13 0 66 66 0 0 1-7-3.3 74 74 0 0 0-8.3-3.8l-4.8-1.4a26 26 0 0 0-10.5 0l-4.7 1.4a74 74 0 0 0-8.3 3.8 66 66 0 0 1-7 3.3 17 17 0 0 1-13 0 66 66 0 0 1-7-3.3 74 74 0 0 0-8.2-3.8l-4.8-1.4a26 26 0 0 0-10.5 0l-4.7 1.4a74 74 0 0 0-8.3 3.8 66 66 0 0 1-7 3.3 17 17 0 0 1-13 0 66 66 0 0 1-7-3.3 74 74 0 0 0-8.2-3.8l-1-.3q11.5 11 24 21.1l4-.4 4.8-1.3a73 73 0 0 0 8.3-3.9 68 68 0 0 1 7-3.2 16 16 0 0 1 12.8 0 68 68 0 0 1 7 3.2 73 73 0 0 0 8.3 3.9l4.7 1.3a26 26 0 0 0 10.6 0l4.8-1.3a73 73 0 0 0 8.3-3.9 68 68 0 0 1 7-3.2 16 16 0 0 1 12.8 0 68 68 0 0 1 7 3.2 73 73 0 0 0 8.3 3.9l4.8 1.3a26 26 0 0 0 10.5 0l4.8-1.3a73 73 0 0 0 8.3-3.9 68 68 0 0 1 7-3.2 16 16 0 0 1 12.8 0 68 68 0 0 1 7 3.2 73 73 0 0 0 8.3 3.9l4.8 1.3a26 26 0 0 0 10.5 0l4.8-1.3a73 73 0 0 0 8.3-3.9 68 68 0 0 1 7-3.2 16 16 0 0 1 12.8 0 68 68 0 0 1 7 3.2 73 73 0 0 0 8.3 3.9l4.8 1.3a26 26 0 0 0 10.6 0l4.7-1.3a73 73 0 0 0 8.3-3.9 68 68 0 0 1 7-3.2 16 16 0 0 1 12.9 0 68 68 0 0 1 7 3.2 73 73 0 0 0 8.2 3.9l4.8 1.3 4 .4q12.5-10.1 24-21.1" transform="translate(-57)" id="path167" fill="#fff"/><path d="m1399.8 970.2-4-1.2a26 26 0 0 0-10.5 0l-4.8 1.4a74 74 0 0 0-8.2 3.8 67 67 0 0 1-7 3.2 17 17 0 0 1-13 0 67 67 0 0 1-7-3.2 74 74 0 0 0-8.3-3.8l-4.7-1.4a26 26 0 0 0-10.5 0l-4.8 1.4a74 74 0 0 0-8.2 3.8 67 67 0 0 1-7 3.2 17 17 0 0 1-13 0 67 67 0 0 1-7-3.2 74 74 0 0 0-8.3-3.8l-4.7-1.4a26 26 0 0 0-10.5 0l-4.8 1.4a74 74 0 0 0-8.2 3.8 67 67 0 0 1-7 3.2 17 17 0 0 1-13 0 67 67 0 0 1-7-3.2 74 74 0 0 0-8.3-3.8l-4.7-1.4a26 26 0 0 0-10.5 0l-4.8 1.4a74 74 0 0 0-8.2 3.8 67 67 0 0 1-7 3.2 17 17 0 0 1-13 0 67 67 0 0 1-7-3.2 74 74 0 0 0-8.3-3.8l-4.8-1.4a26 26 0 0 0-10.5 0l-4.7 1.4a74 74 0 0 0-8.3 3.8 67 67 0 0 1-7 3.2 17 17 0 0 1-13 0 67 67 0 0 1-7-3.2 74 74 0 0 0-8.2-3.8l-4.8-1.4a26 26 0 0 0-10.5 0l-4.7 1.4a74 74 0 0 0-8.3 3.8 67 67 0 0 1-7 3.2 17 17 0 0 1-13 0 67 67 0 0 1-7-3.2 74 74 0 0 0-8.2-3.8l-4.8-1.4a26 26 0 0 0-10.5 0l-4 1.2q5.4 5.7 11.1 11.3a20 20 0 0 1 4.6.9 67 67 0 0 1 7 3.2 73 73 0 0 0 8.2 3.9l4.8 1.3a27 27 0 0 0 10.6 0l4.8-1.3a73 73 0 0 0 8.3-3.9 67 67 0 0 1 7-3.2 17 17 0 0 1 12.8 0 67 67 0 0 1 7 3.2 73 73 0 0 0 8.3 3.9l4.7 1.3a26 26 0 0 0 10.6 0l4.8-1.3a73 73 0 0 0 8.3-3.9 67 67 0 0 1 7-3.2 17 17 0 0 1 12.8 0 67 67 0 0 1 7 3.2 73 73 0 0 0 8.3 3.9l4.8 1.3a26 26 0 0 0 10.5 0l4.8-1.3a73 73 0 0 0 8.3-3.9 67 67 0 0 1 7-3.2 17 17 0 0 1 12.8 0 67 67 0 0 1 7 3.2 73 73 0 0 0 8.3 3.9l4.8 1.3a27 27 0 0 0 10.5 0l4.8-1.3a73 73 0 0 0 8.3-3.9 67 67 0 0 1 7-3.2 17 17 0 0 1 12.8 0 67 67 0 0 1 7 3.2 73 73 0 0 0 8.3 3.9l4.8 1.3a26 26 0 0 0 10.6 0l4.7-1.3a73 73 0 0 0 8.3-3.9 67 67 0 0 1 7-3.2 17 17 0 0 1 12.9 0 67 67 0 0 1 7 3.2 73 73 0 0 0 8.2 3.9l4.8 1.3a26 26 0 0 0 10.6 0l4.8-1.3a73 73 0 0 0 8.2-3.9 67 67 0 0 1 7-3.2 20 20 0 0 1 4.6-1q5.7-5.5 11-11.2" transform="translate(-57)" id="path168" fill="#fff"/><path d="m1411.1 956.9-2.3-1.1a74 74 0 0 0-8.3-3.8l-4.7-1.4a26 26 0 0 0-10.5 0l-4.8 1.4a74 74 0 0 0-8.2 3.8 66 66 0 0 1-7 3.2 17 17 0 0 1-13 0 66 66 0 0 1-7-3.2 74 74 0 0 0-8.3-3.8l-4.7-1.4a26 26 0 0 0-10.5 0l-4.8 1.4a74 74 0 0 0-8.2 3.8 66 66 0 0 1-7 3.2 17 17 0 0 1-13 0 66 66 0 0 1-7-3.2 74 74 0 0 0-8.3-3.8l-4.7-1.4a26 26 0 0 0-10.5 0l-4.8 1.4a74 74 0 0 0-8.2 3.8 66 66 0 0 1-7 3.2 17 17 0 0 1-13 0 66 66 0 0 1-7-3.2 74 74 0 0 0-8.3-3.8l-4.7-1.4a26 26 0 0 0-10.5 0l-4.8 1.4a74 74 0 0 0-8.2 3.8 66 66 0 0 1-7 3.2 17 17 0 0 1-13 0 66 66 0 0 1-7-3.2 74 74 0 0 0-8.3-3.8l-4.8-1.4a26 26 0 0 0-10.5 0l-4.7 1.4a74 74 0 0 0-8.3 3.8 66 66 0 0 1-7 3.2 17 17 0 0 1-13 0 66 66 0 0 1-7-3.2 74 74 0 0 0-8.2-3.8l-4.8-1.4a26 26 0 0 0-10.5 0l-4.7 1.4a74 74 0 0 0-8.3 3.8 66 66 0 0 1-7 3.2 17 17 0 0 1-13 0 66 66 0 0 1-7-3.2 74 74 0 0 0-8.2-3.8l-4.8-1.4a26 26 0 0 0-10.5 0l-4.7 1.4a74 74 0 0 0-8.3 3.8l-2.3 1q4 5 8.3 9.9l5.8-2.7a17 17 0 0 1 12.9 0 67 67 0 0 1 7 3.2 73 73 0 0 0 8.3 3.8l4.7 1.4a27 27 0 0 0 10.6 0l4.8-1.4a73 73 0 0 0 8.3-3.8 67 67 0 0 1 7-3.2 17 17 0 0 1 12.8 0 67 67 0 0 1 7 3.2 73 73 0 0 0 8.3 3.8l4.7 1.4a27 27 0 0 0 10.6 0l4.8-1.4a73 73 0 0 0 8.3-3.8 67 67 0 0 1 7-3.2 17 17 0 0 1 12.8 0 67 67 0 0 1 7 3.2 73 73 0 0 0 8.3 3.8l4.8 1.4a27 27 0 0 0 10.5 0l4.8-1.4a73 73 0 0 0 8.3-3.8 67 67 0 0 1 7-3.2 17 17 0 0 1 12.8 0 67 67 0 0 1 7 3.2 73 73 0 0 0 8.3 3.8l4.8 1.4a27 27 0 0 0 10.5 0l4.8-1.4a73 73 0 0 0 8.3-3.8 67 67 0 0 1 7-3.2 17 17 0 0 1 12.8 0 67 67 0 0 1 7 3.2 73 73 0 0 0 8.3 3.8l4.8 1.4a27 27 0 0 0 10.6 0l4.7-1.4a73 73 0 0 0 8.3-3.8 67 67 0 0 1 7-3.2 17 17 0 0 1 12.9 0 67 67 0 0 1 7 3.2 73 73 0 0 0 8.2 3.8l4.8 1.4a27 27 0 0 0 10.6 0l4.8-1.4a73 73 0 0 0 8.2-3.8 67 67 0 0 1 7-3.2 17 17 0 0 1 12.9 0l5.8 2.7q4.3-4.8 8.3-9.8" transform="translate(-57)" id="path169" fill="#fff"/></g><!-- app4joy --></svg>