<svg id="svg2" width="1500" height="1050" viewBox="0 0 1500 1050" xmlns="http://www.w3.org/2000/svg"><defs id="defs3"><linearGradient id="SVGID_1_-1" x1="120.78" x2="120.78" y1="252.21" y2="213.33" gradientUnits="userSpaceOnUse"><stop id="stop15670" stop-color="#636466" offset="0"/><stop id="stop15672" stop-color="#656668" offset=".0085"/><stop id="stop15674" stop-color="#838588" offset=".1621"/><stop id="stop15676" stop-color="#9B9DA0" offset=".3132"/><stop id="stop15678" stop-color="#ADAFB2" offset=".459"/><stop id="stop15680" stop-color="#B8BABC" offset=".5974"/><stop id="stop15682" stop-color="#BCBEC0" offset=".7204"/><stop id="stop15684" stop-color="#DCDDDE" offset="1"/></linearGradient><linearGradient id="SVGID_2_" x1="232.91" x2="232.91" y1="252.21" y2="213.33" gradientUnits="userSpaceOnUse"><stop id="stop15699" stop-color="#636466" offset="0"/><stop id="stop15701" stop-color="#656668" offset=".0085"/><stop id="stop15703" stop-color="#838588" offset=".1621"/><stop id="stop15705" stop-color="#9B9DA0" offset=".3132"/><stop id="stop15707" stop-color="#ADAFB2" offset=".459"/><stop id="stop15709" stop-color="#B8BABC" offset=".5974"/><stop id="stop15711" stop-color="#BCBEC0" offset=".7204"/><stop id="stop15713" stop-color="#DCDDDE" offset="1"/></linearGradient></defs><g id="layer1" transform="scale(1 1.05)" fill="#80b3ff"><path id="rect3635" d="M0 0h1500v1000H0z"/><path id="rect1" d="M0 0h1500v1000H0z"/></g><g id="g16097" transform="matrix(1.1984 0 0 1.1885 538.9 262.7)"><path id="path15451" d="M91.6 143.1c.4-.1 11-9.7 19.4-18.2s11.7-12.1 17.5-13 10.4.7 10.4.7l17.6-21.3a66 66 0 0 1 14.4-12.8c2.5-1 3.7 0 5.3.8s14.8 12.4 21.7 20.4c5.8 6.8 22.9 22.3 22.9 22.3s2.5-3.2 7.5-2 18.1 10 25.3 17.1 9.4 8.8 10.4 9.1c1 .4-2.7 1.1-4.7 0s-12.6-13.2-18-16.8-13.4-8.1-15.6-7-4 4.3-5.2 4-1.6-1-1.6-1-21.3-23-34.5-34.7c-3.4-3.1-11.5-9.4-13.6-9.2-3.4.5-14.8 13.3-18 17.5s-13.1 16-13.7 17.7c0 0-5.8-3.8-12.7.4S112 128.4 108 132.9s-8.7 9.7-11 10.6-5.4-.4-5.4-.4" fill="#5d6f7a"/><path id="path15453" d="M83.8 154.5s11.8-6.6 19.4-3.7 13.1 8.3 13.1 8.3 4.7-7.8 14.9-7 14 4.7 14 4.7 13.7-21.4 34-18.1 29.8 18.2 29.8 18.2 7.3-7 15.5-5.2 13 7 13 7 9.4-9.7 18-8.9c8.7.9 14.8 5.5 14.8 5.5l-2 1.5s-8.8-5.2-14.3-4.3c-5.5.8-11.6 5.1-13.5 7.5s-2.6 2.9-2.6 2.9-8.1-9.6-17-7.8-13 5.9-13 5.9-13.3-19.6-29.8-20-32.5 19.7-32.5 19.7-9.3-7.5-16.6-5.5-13 8.8-13 8.8-8.4-11.2-16-11-13 2.7-14 2.7c-.8 0-2.2-1.2-2.2-1.2" fill="#5d6f7a"/><g id="g15455"><g id="g15457"><path id="path15459" d="M251 55.2a6 6 0 0 0-9.2-4.6 6 6 0 0 0-9.8-3c-5.7-4.6-11-6.7-13.1-4.7-2 1.8-.6 6.8 3.1 12.4a5.9 5.9 0 0 0 3.9 11q-.8 1.4-.8 3.1a5.9 5.9 0 0 0 11.8.5c4 2.4 7.3 3.2 8.8 1.7 1.8-1.6 1-5.7-1.8-10.4q.7.2 1.5.1a6 6 0 0 0 5.6-6.1z" fill="#c3d4dd" stroke="#636466" stroke-linejoin="round"/><path id="path15461" d="M223.7 79.6s-.9-4.3 2.5-5.5 6.7-.7 6.7-.7-1.2-5.6 2.2-7.6 6.9.6 6.9.6-1.4-5.4 1-7.2 5-1.5 5-1.5 1.2-7.4 7.5-5.7c0 0-3.1 3.6-.6 7.5s6.8 11.5 5.7 17.3-7 11.3-14.2 9.8-14.2-9.6-17.6-9.5a7 7 0 0 0-5 2.5" fill="#009042" stroke="#064926" stroke-linecap="round" stroke-linejoin="round"/><path id="path15463" d="M220.1 44.7c.1-.6 5.1-.4 7.8 2.4s4 3 4 3 3-3 5.2-2c2 1.1 3.5 4.4 3.5 4.4s3.3-2.5 5.1-.7q3 2.7 0 2.9c-2 .1-2.6-.2-3.4 1.1s-1.5 2.4-2.6 2.2-2.3 1.2-2.5 2-.6 1.7-1.2 1.8-1.3-.9-2.7.3-3.4 2.5-3.3 3.5-2-1.4-.4-3 3-3 1.9-3.1-2.3.2-3.5.3-6 1-5.6-.8 2-2.5 3.1-3.1 3.1-1.8 3.3-2.2-2.3-1-4.4-2.5-1.5-3.4-1.7-4.3c-.3-.8-2.6-2.2-2.6-2.2" fill="#ffffff"/></g><g id="g15465"><path id="path15467" d="M254 86.5s-4.8-9.7-1.6-11.4 9.9 1.6 9.9 1.6.1-7 3-7.3 6.2 7.3 6.2 7.3 3.5-5.3 6.6-5.1 2.6 14 .9 18.9-10.6 9.2-14.3 9.6-12.4-.4-14-1-1.5-1.3-1.5-2.2 5.7-3.8 5.7-3.8-9.2-2.2-8.6-4.7 7.6-1.9 7.6-1.9z" fill="#c3d4dd" stroke="#636466" stroke-linejoin="round"/><path id="path15469" d="M269.7 92.4s-.3-5.3 2.2-6.3 7.3-1 7.3-1 1.7-6.5 5.9-7c.6 3-1.2 8.3-.7 13.8s-.2 13-3.7 14.8-14.5.5-17.9-.4-8.3-2-10.8-.7c0 0 3.2-4.9 6.3-5.8s4.1-.8 4.1-.8-2.6-2-.6-4.7 8-2 8-2" fill="#009042" stroke="#064926" stroke-linecap="round" stroke-linejoin="round"/><path id="path15471" d="M253.5 77.3c1-1.2 4.2-1.4 6.4.1s4.2 3.3 4.2 3.3-.5-3.2 0-5l1.1-4 1.8 7.2c.3 1.5 1.8 2.9 2.1 2.7s3-2.7 4.2-4.6 3.6-3.3 4-3.4-1.4 5-1.8 7 .1 2 .1 2-4.3.5-6.2 2.3-3 4.3-3 4.3-4.5 1.3-6 3.2-.7 2.8-3.2 3.7-6.3 1.2-6.1 1 4.4-2.4 6-3.6 1.7-2.5 1.7-2.5-4.2-1.7-6.3-1.8-3.8-.8-3.8-.8 1.5-1 5-.7l5.3.5s-2-1.4-3-3.3.6-2.9.3-3.9c-.4-1-2.8-3.7-2.8-3.7" fill="#ffffff"/></g><g id="g15473"><path id="path15475" d="M274.5 108s-3.2-12 .8-13.3 10.8 4 10.8 4 1.7-8 5.1-7.7 5.4 9.6 5.4 9.6 5.2-5.2 8.6-4.4c3.5.9 0 16.6-3 21.7s-14 8.3-18.3 8-14-3.2-15.8-4.2-1.3-1.8-1.2-2.8 7.4-3.1 7.4-3.1-10-4.5-8.9-7.2 9.1-.6 9.1-.6z" fill="#c3d4dd" stroke="#636466" stroke-linejoin="round"/><path id="path15477" d="M291.3 118.1s.8-6 3.8-6.7c3-.6 8.5.6 8.5.6s3.3-7.2 8.2-6.8c0 3.5-3 9.1-3.8 15.6s-3 14.8-7.3 16-16.6-2.6-20.3-4.3c-3.6-1.8-9-4.2-12.2-3.2 0 0 4.8-4.8 8.4-5.2s5 0 5 0-2.7-3 .2-5.5 9.5-.5 9.5-.5" fill="#009042" stroke="#064926" stroke-linecap="round" stroke-linejoin="round"/><path id="path15479" d="M276 97.4c1.4-1 5.1-.7 7.3 1.6s4 4.7 4 4.7.2-3.8 1.2-5.8l2-4.3.6 8.6c0 1.9 1.4 3.7 1.8 3.5s4-2.4 5.7-4.3 4.9-3 5.3-3-2.6 5.4-3.5 7.5-.4 2.4-.4 2.4-5-.5-7.5 1.3c-2.4 1.7-4.4 4.2-4.4 4.2s-5.4.5-7.4 2.3-1.5 3-4.5 3.6-7.5 0-7.2-.1 5.6-1.9 7.7-3 2.4-2.4 2.4-2.4-4.4-2.9-6.7-3.4-4.2-1.8-4.2-1.8 1.9-.8 5.7.3l6 1.8s-1.8-2-2.6-4.5 1.3-3.1 1-4.3-2.3-4.9-2.3-4.9" fill="#ffffff"/></g><g id="g15481"><path id="path15483" d="M294.4 134.4s.2-12.5 4.4-12.6 9.3 6.8 9.3 6.8 3.8-7.2 7-6 2.5 10.8 2.5 10.8 6.4-3.6 9.5-1.9-4.6 16-9 20-15.6 4-19.7 2.6-12.6-7-14-8.4-.8-2.1-.3-3 7.9-1 7.9-1-8.4-7-6.5-9.4 8.8 2 8.8 2z" fill="#c3d4dd" stroke="#636466" stroke-linejoin="round"/><path id="path15485" d="M307.7 148.7s2.4-5.6 5.5-5.4 8 3 8 3 5.1-6 9.8-4.3c-1 3.3-5.5 7.9-8 13.9s-7 13.4-11.5 13.3-15.2-7-18.2-9.7-7.6-6.5-10.9-6.5c0 0 5.9-3.3 9.5-2.6s4.7 1.3 4.7 1.3-1.6-3.5 1.9-5.2c3.5-1.6 9.1 2.2 9.1 2.2" fill="#009042" stroke="#064926" stroke-linecap="round" stroke-linejoin="round"/><path id="path15487" d="M298.7 124.6c1.6-.7 5.1.7 6.7 3.5s2.5 5.6 2.5 5.6 1.2-3.6 2.7-5.3l3.2-3.5-2 8.5c-.4 1.8.4 3.8.9 3.8s4.4-1.2 6.7-2.5 5.4-1.6 5.8-1.5c.4 0-4 4.5-5.4 6.3s-1 2.2-1 2.2-4.7-1.9-7.5-.9-5.5 2.8-5.5 2.8-5.3-1-7.7.3-2.3 2.4-5.4 2.1-7.1-2-6.8-2 5.9-.3 8.2-.7c2.2-.5 3-1.7 3-1.7s-3.5-4-5.6-5.2-3.5-2.8-3.5-2.8 2-.3 5.5 1.8 5.2 3.4 5.2 3.4-1.2-2.5-1.3-5c0-2.6 2.1-2.7 2.3-3.9 0-1.2-1-5.3-1-5.3" fill="#ffffff"/></g><g id="g15489"><path id="path15491" d="M302.5 165.2s3.4-12.4 8-11.5c4.6.8 8.4 9 8.4 9s5.9-6.4 9-4.4c3.2 2 0 11.4 0 11.4s7.9-2.1 10.8.3-9 15-14.7 18-18 .4-22-2-12-10-13-11.7-.4-2.3.3-3.2 8.8 1 8.8 1-7.3-9.1-4.6-11c2.6-1.8 9 4.1 9 4.1z" fill="#c3d4dd" stroke="#636466" stroke-linejoin="round"/><path id="path15493" d="M313.3 182.2s4-5.5 7.4-4.4 7.9 5.1 7.9 5.1 7-5.1 11.6-2c-1.9 3.3-8 7-12.1 12.9-4.2 5.9-10.9 12.7-15.8 11.6s-14.7-11.6-17.3-15.2-6.5-9-10-9.7c0 0 7.1-2 10.9-.4s4.7 2.5 4.7 2.5-.9-4.2 3.3-5c4.2-1 9.4 4.6 9.4 4.6" fill="#009042" stroke="#064926" stroke-linecap="round" stroke-linejoin="round"/><path id="path15495" d="M309.7 156.4c2-.3 5.3 2 6.3 5.1s1.4 6.3 1.4 6.3 2.1-3.4 4.2-4.7l4.3-2.8s-3.2 6.4-4.2 8-.6 4-.1 4 5.1-.2 7.9-1c2.7-.7 6.3-.2 6.7 0 .4.1-5.4 3.5-7.4 5s-1.7 2-1.7 2-4.6-3-8-2.6-6.5 1.5-6.5 1.5-5.5-2.3-8.4-1.6-3.1 2-6.4 1a24 24 0 0 1-6.8-3.8 99 99 0 0 0 9 1.3c2.5.1 3.6-1 3.6-1s-2.7-4.9-4.6-6.5c-2-1.6-3.2-3.7-3.2-3.7s2.4.2 5.5 3.2l4.8 4.5s-.7-2.7-.1-5.2c.6-2.6 3-2.2 3.4-3.4s.3-5.6.3-5.6" fill="#ffffff"/></g><g id="g15497"><path id="path15499" d="M300.2 200.4s6.4-12.2 11-10.3c4.7 2 6.7 11.3 6.7 11.3s7.6-5.2 10.5-2.4-2.7 12-2.7 12 8.7-.5 11.2 2.8-12.9 13.4-19.6 15.3-18.9-3.8-22.5-7.2-10.1-13.1-10.8-15.2.1-2.5 1-3.2 9 3 9 3-5.5-11.2-2.3-12.5 8.5 6.4 8.5 6.4z" fill="#c3d4dd" stroke="#636466" stroke-linejoin="round"/><path id="path15501" d="M307.5 220.6s5.5-4.8 8.7-3 7.1 7.3 7.1 7.3 8.6-3.8 12.6.5c-2.7 3-9.9 5.6-15.6 10.7-5.7 5.2-14.3 10.8-19.2 8.5s-12.6-15.5-14.5-19.9-4.8-10.8-8.3-12.4c0 0 8-.6 11.5 2 3.6 2.7 4.4 3.8 4.4 3.8s0-4.6 4.6-4.6 8.7 7 8.7 7" fill="#009042" stroke="#064926" stroke-linecap="round" stroke-linejoin="round"/><path id="path15503" d="M309.7 192.9c2.1 0 5.2 3.2 5.4 6.7s0 6.8 0 6.8 3-3 5.5-3.9l5.2-1.9s-4.9 6-6.3 7.5-1.5 4-1 4.1 5.4 1 8.4.8 6.7 1.2 7 1.5-6.4 2.5-8.9 3.6c-2.4 1-2.2 1.6-2.2 1.6s-4-4.1-7.6-4.6-7.3.1-7.3.1-5.1-3.6-8.4-3.6-3.7 1.3-6.8-.5-6.6-5.6-6.3-5.5c.3.2 6.4 2.7 9 3.4s4.1-.2 4.1-.2-1.7-5.7-3.4-7.8-2.3-4.6-2.3-4.6 2.3.7 5 4.6l3.9 5.9s0-3 1.1-5.6 3.6-1.6 4.3-2.7c.8-1.2 1.6-5.8 1.6-5.8" fill="#ffffff"/></g><g id="g15505"><path id="path15507" d="M285.2 234.8s11.8-10.1 15.8-6.1 2.2 14.6 2.2 14.6 10.2-2.2 12 1.9-7.8 11.4-7.8 11.4 9.3 3.2 10.5 7.7-19.1 8.7-27 7.8c-7.7-.8-18.1-11.9-20.5-17s-5-18-5-20.5 1.3-2.6 2.5-3 8.2 7 8.2 7-1-14 2.8-14c3.9-.1 6.3 10.2 6.3 10.2z" fill="#c3d4dd" stroke="#636466" stroke-linejoin="round"/><path id="path15509" d="M284.3 259s7.8-2.6 10.4.6c2.5 3.3 4.4 10.6 4.4 10.6s10.5-.3 13 5.8c-4.2 2.1-12.8 1.7-21 4.7s-19.5 5.3-23.6.8-6.8-21.5-6.9-27-.4-13.3-3.4-16.4c0 0 8.5 2.7 11.2 7s3 5.7 3 5.7 2-4.8 6.7-2.8c4.9 2 6.2 11 6.2 11" fill="#009042" stroke="#064926" stroke-linecap="round" stroke-linejoin="round"/><path id="path15511" d="M298.3 231c2.1 1 4 5.5 2.8 9.3s-2.9 7.1-2.9 7.1 4.5-1.8 7.4-1.8l6.2.2-9.6 5.2c-2 1-3.4 3.5-2.9 3.9s5.3 3.3 8.5 4.4c3.3 1 6.5 4 6.8 4.5s-7.9-.2-10.9 0-3 .8-3 .8-2.5-6.1-6-8c-3.6-2-7.7-3-7.7-3s-4-6-7.3-7.3-4.5-.2-7-3.4c-2.4-3.3-4.5-8.7-4.3-8.4s5.7 5.5 8.1 7.4c2.5 1.8 4.4 1.5 4.4 1.5s.6-6.7-.3-9.7-.6-5.8-.6-5.8 2.2 1.8 3.3 6.9q1.8 7.7 1.7 7.8c0 .1 1.2-3.2 3.5-5.3 2.3-2.2 4.4-.2 5.7-1s4-5.4 4-5.4" fill="#ffffff"/></g><g id="g15513"><path id="path15515" d="M266.6 269.4s12.9-3.9 14.8 1.4c2 5.4-3.3 12.6-3.3 12.6s9.4 4 9.3 8.4-11.9 7-11.9 7 7 6.9 6.3 11.4-21-.2-27.8-4.2-11.4-18.5-11.4-24.1 2.3-19 3.5-21.3 4.2-5.7 5.5-5.5 4.5 8.3 4.5 8.3 4.2-9.6 7.7-8 2.8 14 2.8 14z" fill="#c3d4dd" stroke="#636466" stroke-linejoin="round"/><path id="path15517" d="M253.5 291.3s8.2.9 9.1 5-.4 11.4-.4 11.4 9.7 4.1 9.3 10.7c-4.7.2-12.3-3.8-21-4.5s-19.9-3.5-21.7-9.3 3-22.4 5.1-27.3 5.2-12.3 3.8-16.4c0 0 6.6 6.1 7.2 11s.4 6.5.4 6.5 3.8-3.5 7.3.3 1 12.6 1 12.6" fill="#009042" stroke="#064926" stroke-linecap="round" stroke-linejoin="round"/><path id="path15519" d="M278 271.7c1.5 1.8 1.3 6.8-1.3 9.7-2.7 2.9-5.7 5.2-5.7 5.2s4.8.2 7.4 1.5l5.6 2.8s-8.6.6-11 .6c-2.2 0-4.4 1.8-4.1 2.4s3.3 5.2 5.8 7.6 4.2 6.4 4.2 6.9-7-3.5-9.8-4.6-3-.5-3-.5.2-6.7-2.2-10-5.7-5.8-5.7-5.8-1-7-3.5-9.7-4-2-4.9-6 1.2-13.3 1.3-13 1.3 8.1 2.7 10.8l3.2 6s3.4-5.8 3.8-8.8c.5-3 1.5-6.4 1.5-6.4s1.7 3.4.6 8.5l-1.8 7.8s2.4-2.4 5.4-3.3 4 1.5 5.6 1.4c3.5-.2 6-3 6-3" fill="#ffffff"/></g></g><g id="g15521"><g id="g15523" fill="#e8b909" stroke="#8e4a02" stroke-linecap="round" stroke-linejoin="round" stroke-width="2"><g id="g15525"><path id="path15527" d="M108.4 61c3.6-4.4 12.2-6.5 16.4-11.6 3-3.7 4.7-9.8 6.2-8.3s-2.7 19.6-6.6 26c-4.4 7-12.3 10-15.3 14.1s-9.2 15-17.4 19.5-13.7 4.9-16 8c0 0 1-3.9 7.2-6.3s12.7-6.6 18-14.2c5.2-7.5 4-15.3 4.2-18.5s.4-5.2 3.3-8.6"/><path id="path15529" d="M98 63c1.4-2.5 3.6-7 5.4-7s-1.7 5.8-2.2 8.3-2.5 21.3-7.2 24.9-19 15.4-21 24.7-10 17.9-13.4 20.9-4.7 2.6-4.7 2.6l11.2-12.6c3.4-3.6 4.7-9.8 6.2-14.7s6.2-9.4 7.6-14.3-1.7-12 4.9-19.8C91.4 68 96 66.2 98 63"/><path id="path15531" d="M71.3 81.3c1.2-2.6 4.4-5.9 6.3-6 1.9-.3-2.3 3.3-1.7 7 .4 2.6-1 21.4-5.3 25.5s-13.8 17.6-14.5 27-5.2 15.1-8.2 18.5a22 22 0 0 0-4.4 8.3c-.4 1.4-1-5.6-1-5.6s6.3-7.2 8-9.4c3-4 3.5-10.4 4.4-15.4l2.5-15.1c.8-5-3.5-12.8 2-21.5s10.5-10 12-13.3"/><path id="path15533" d="M44 106.4c.5-2.8 2.7-6.8 4.5-7.5s-1.3 3.9.3 7.4c1 2.3 5.1 21.4 2.2 26.5s-9 20-7.2 29.3-1 15.2-3 19.3-4 3.6-4 3.6 3.1-6.1 4.1-8.7c1.8-4.6 1.2-12.3.8-17.4s-1-10.2-1.7-15.2-6.8-11.4-3.7-21.2 7.3-12.4 7.8-16"/><path id="path15535" d="M25.5 138.4c-.6-3.5.5-9 2.3-10.6s0 5 3.1 8.6c2.1 2.3 12.7 22.4 11.1 29.5s-2 25.5 3.8 35.7 5.8 13.2 5 18.8S48 223 48 223s.6-4.5.8-8c.3-6.1-4.2-9-6.8-14.9-2.5-5.8-4.1-10.5-6.9-16.2-2.7-5.7-12.3-10.8-12.5-23.6s3.8-17.4 3-22"/><path id="path15537" d="M11.7 163s-3 22.2 4.1 34 20.1 16 29.6 24.7a90 90 0 0 1 16.7 28l5.8 4.6-4.7-9.2s-7.6-18.3-13.4-23.6-14.3-9.3-14.8-13.2-3-16.9-6-23.4-13.4-13-13.6-15.5c-.3-2.5-.7-7.6-3.7-6.5"/><path id="path15539" d="M9.4 204.4s4.5 22 15.2 30.7 25.1 10.8 37 16S86 276.2 86 276.2l4.5 3-5-7.7s-12.6-19-19.8-22.1-17.5-6.4-19.2-10c-1.8-3.5-8.5-15-13.5-20s-17-7.8-18-10.1-3.2-7-5.6-4.9"/><path id="path15541" d="M17 237.7s13 23.3 28 29.4 30 11 45.3 12.6c15.2 1.7 27.3 16.2 27.3 16.2l6.2 2 3 2s-23.3-21.7-32.6-22.7-19.7-9.5-23-12.9-15.8-11.5-23.2-15.5-20.9-5.3-22.9-7.5-6-6.8-8-3.6"/><path id="path15543" d="M39.3 273.6s14 18.4 27.5 20.4 26.7 2.9 39.7.7 35.1 15.3 35.1 15.3l6.7 1-8.4-6.6s-22.5-14.4-30.4-13-17.9-4-21-6.4-15-6.8-21.7-8.7-18.2.2-20.2-1.4-6-4.8-7.3-1.3"/><path id="path15545" d="M63.3 301.7s16.5 16.2 30.2 16.1 26.9-1 39.4-5.2c12.6-4 37.6 8.6 37.6 8.6l5.4-.6-8.5-3.3s-24.4-11-32-8.4-18.3-1.3-21.8-3.2-15.7-4.5-22.7-5.4-18 3-20.2 1.6-6.7-3.8-7.4-.2"/></g><g id="g15547"><path id="path15549" d="M51.9 142s-3.3-12 4.4-21.6 19.8-12.5 23.4-16.6 8-15.7 20-15.7 13-1.4 15.2-3.3c5-4.4 7.7-5 7.7-5s-5.9 9.2-7.5 10-7 11.5-17.5 14.3-17.1 3.3-17.1 3.3S64 114 59.8 119.5s-5.5 9.6-5.5 15.7-2.4 6.9-2.4 6.9"/><path id="path15551" d="M58 134.9s-.2-11 10.6-14.6 14.6-2.7 18.4-5.6a38 38 0 0 1 10-6.4s-2 4-4 6.2-4.8 4.4-5 6-8.8 14-16.2 15.9c-7.4 1.7-13.7 2-13.7 2s-11.4 5.5-15 22.9c-1.7 8.8-.7 17-.7 17l-2 .6s-1.3-17 .7-22.2c1.9-5.1 3.3-14.7 16.8-21.8"/><path id="path15553" d="M76.3 137.1s-4.8 5.3-9.8 8.3-14.3 6-18.6 14.7-3.8 11.6-3.8 11.6-5.4 8-8.9 16-2.2 21.2 2.5 26 8.9 7.9 8.9 7.9l.4-4.9s-11-4-11-13.3 3.6-20.4 9.5-24c6-3.8 12.6-4.6 21-16.2s5.6-14.1 7.8-17.5 2.4-7.1 2-8.6"/><path id="path15555" d="M68.3 164.9s-1.6 8-5.5 10.3c-3.8 2.4-15 14.5-15.3 21.4S46 214.3 46 214.3s-5 11.7-2.8 19.2 11.4 12.1 15.8 14.6 6.4 5.2 6.4 5.2l-1.2-6.2s-5.3-2.2-9.2-5-10.3-8.1-9-13.6 6.5-14.8 6.5-14.8 13.2-9.4 14.8-19.7 1.5-15.6 2.5-17.8 1-7 .7-8.8c-.2-2-2.3-2.5-2.3-2.5"/><path id="path15557" d="M69.2 196.8s0 10.6-1.5 12.5-10.6 18-8.7 27.5 9 23 9.9 28 7.4 11.7 15 15.7 14.2 6.5 14.2 6.5l-.1-4s-6.7-1.6-9.5-3.2-13.7-7-15.8-14.5c-2-7.4-2-11.8-1.3-14s8.4-21.6 5.4-31-4.5-7.4-4.2-12.6-.3-6.9-.3-7.6c0-2.6-3.1-3.4-3.1-3.4"/><path id="path15559" d="M82.8 225.7s1.7 6.5.2 9.7c-1.4 3.3-4.7 25.9 1.2 33 6 7 10.7 11.5 10.7 11.5s4.7 16.4 12.5 22 13.3 6.8 18.6 8.4 18.7 3 18.7 3l-6.7-4.6s-13.8-1.3-17.2-2.6-13.4-7-15.6-13.8l-4.6-13.6s2.5-9.1.2-19.3c-2.4-10.2-8.4-17.9-10.2-22.3s-3.6-6-3.6-6-.8-6-4.2-5.4"/><path id="path15561" d="M101.7 245.8s4 8.7 4 12.8 3.6 22.2 10.6 30.8c7 8.5 14.6 10.7 17.7 16.3s11 7.4 11 7.4l.2-3.5s-8.1-4.1-9-8.3-2.8-20.7-8.5-29.8-10.8-8.6-15.4-15.4-6-8-7-9.6c-.8-1.4-3.6-.7-3.6-.7"/></g></g><g id="g15563" fill="#e8b909" stroke="#8e4a02" stroke-linecap="round" stroke-linejoin="round" stroke-width=".5"><g id="g15565"><path id="path15567" d="M108.4 61c3.6-4.4 12.2-6.5 16.4-11.6 3-3.7 4.7-9.8 6.2-8.3s-2.7 19.6-6.6 26c-4.4 7-12.3 10-15.3 14.1s-9.2 15-17.4 19.5-13.7 4.9-16 8c0 0 1-3.9 7.2-6.3s12.7-6.6 18-14.2c5.2-7.5 4-15.3 4.2-18.5s.4-5.2 3.3-8.6"/><path id="path15569" d="M98 63c1.4-2.5 3.6-7 5.4-7s-1.7 5.8-2.2 8.3-2.5 21.3-7.2 24.9-19 15.4-21 24.7-10 17.9-13.4 20.9-4.7 2.6-4.7 2.6l11.2-12.6c3.4-3.6 4.7-9.8 6.2-14.7s6.2-9.4 7.6-14.3-1.7-12 4.9-19.8C91.4 68 96 66.2 98 63"/><path id="path15571" d="M71.3 81.3c1.2-2.6 4.4-5.9 6.3-6 1.9-.3-2.3 3.3-1.7 7 .4 2.6-1 21.4-5.3 25.5s-13.8 17.6-14.5 27-5.2 15.1-8.2 18.5a22 22 0 0 0-4.4 8.3c-.4 1.4-1-5.6-1-5.6s6.3-7.2 8-9.4c3-4 3.5-10.4 4.4-15.4l2.5-15.1c.8-5-3.5-12.8 2-21.5s10.5-10 12-13.3"/><path id="path15573" d="M44 106.4c.5-2.8 2.7-6.8 4.5-7.5s-1.3 3.9.3 7.4c1 2.3 5.1 21.4 2.2 26.5s-9 20-7.2 29.3-1 15.2-3 19.3-4 3.6-4 3.6 3.1-6.1 4.1-8.7c1.8-4.6 1.2-12.3.8-17.4s-1-10.2-1.7-15.2-6.8-11.4-3.7-21.2 7.3-12.4 7.8-16"/><path id="path15575" d="M25.5 138.4c-.6-3.5.5-9 2.3-10.6s0 5 3.1 8.6c2.1 2.3 12.7 22.4 11.1 29.5s-2 25.5 3.8 35.7 5.8 13.2 5 18.8S48 223 48 223s.6-4.5.8-8c.3-6.1-4.2-9-6.8-14.9-2.5-5.8-4.1-10.5-6.9-16.2-2.7-5.7-12.3-10.8-12.5-23.6s3.8-17.4 3-22"/><path id="path15577" d="M11.7 163s-3 22.2 4.1 34 20.1 16 29.6 24.7a90 90 0 0 1 16.7 28l5.8 4.6-4.7-9.2s-7.6-18.3-13.4-23.6-14.3-9.3-14.8-13.2-3-16.9-6-23.4-13.4-13-13.6-15.5c-.3-2.5-.7-7.6-3.7-6.5"/><path id="path15579" d="M9.4 204.4s4.5 22 15.2 30.7 25.1 10.8 37 16S86 276.2 86 276.2l4.5 3-5-7.7s-12.6-19-19.8-22.1-17.5-6.4-19.2-10c-1.8-3.5-8.5-15-13.5-20s-17-7.8-18-10.1-3.2-7-5.6-4.9"/><path id="path15581" d="M17 237.7s13 23.3 28 29.4 30 11 45.3 12.6c15.2 1.7 27.3 16.2 27.3 16.2l6.2 2 3 2s-23.3-21.7-32.6-22.7-19.7-9.5-23-12.9-15.8-11.5-23.2-15.5-20.9-5.3-22.9-7.5-6-6.8-8-3.6"/><path id="path15583" d="M39.3 273.6s14 18.4 27.5 20.4 26.7 2.9 39.7.7 35.1 15.3 35.1 15.3l6.7 1-8.4-6.6s-22.5-14.4-30.4-13-17.9-4-21-6.4-15-6.8-21.7-8.7-18.2.2-20.2-1.4-6-4.8-7.3-1.3"/><path id="path15585" d="M63.3 301.7s16.5 16.2 30.2 16.1 26.9-1 39.4-5.2c12.6-4 37.6 8.6 37.6 8.6l5.4-.6-8.5-3.3s-24.4-11-32-8.4-18.3-1.3-21.8-3.2-15.7-4.5-22.7-5.4-18 3-20.2 1.6-6.7-3.8-7.4-.2"/></g><g id="g15587"><path id="path15589" d="M51.9 142s-3.3-12 4.4-21.6 19.8-12.5 23.4-16.6 8-15.7 20-15.7 13-1.4 15.2-3.3c5-4.4 7.7-5 7.7-5s-5.9 9.2-7.5 10-7 11.5-17.5 14.3-17.1 3.3-17.1 3.3S64 114 59.8 119.5s-5.5 9.6-5.5 15.7-2.4 6.9-2.4 6.9"/><path id="path15591" d="M58 134.9s-.2-11 10.6-14.6 14.6-2.7 18.4-5.6a38 38 0 0 1 10-6.4s-2 4-4 6.2-4.8 4.4-5 6-8.8 14-16.2 15.9c-7.4 1.7-13.7 2-13.7 2s-11.4 5.5-15 22.9c-1.7 8.8-.7 17-.7 17l-2 .6s-1.3-17 .7-22.2c1.9-5.1 3.3-14.7 16.8-21.8"/><path id="path15593" d="M76.3 137.1s-4.8 5.3-9.8 8.3-14.3 6-18.6 14.7-3.8 11.6-3.8 11.6-5.4 8-8.9 16-2.2 21.2 2.5 26 8.9 7.9 8.9 7.9l.4-4.9s-11-4-11-13.3 3.6-20.4 9.5-24c6-3.8 12.6-4.6 21-16.2s5.6-14.1 7.8-17.5 2.4-7.1 2-8.6"/><path id="path15595" d="M68.3 164.9s-1.6 8-5.5 10.3c-3.8 2.4-15 14.5-15.3 21.4S46 214.3 46 214.3s-5 11.7-2.8 19.2 11.4 12.1 15.8 14.6 6.4 5.2 6.4 5.2l-1.2-6.2s-5.3-2.2-9.2-5-10.3-8.1-9-13.6 6.5-14.8 6.5-14.8 13.2-9.4 14.8-19.7 1.5-15.6 2.5-17.8 1-7 .7-8.8c-.2-2-2.3-2.5-2.3-2.5"/><path id="path15597" d="M69.2 196.8s0 10.6-1.5 12.5-10.6 18-8.7 27.5 9 23 9.9 28 7.4 11.7 15 15.7 14.2 6.5 14.2 6.5l-.1-4s-6.7-1.6-9.5-3.2-13.7-7-15.8-14.5c-2-7.4-2-11.8-1.3-14s8.4-21.6 5.4-31-4.5-7.4-4.2-12.6-.3-6.9-.3-7.6c0-2.6-3.1-3.4-3.1-3.4"/><path id="path15599" d="M82.8 225.7s1.7 6.5.2 9.7c-1.4 3.3-4.7 25.9 1.2 33 6 7 10.7 11.5 10.7 11.5s4.7 16.4 12.5 22 13.3 6.8 18.6 8.4 18.7 3 18.7 3l-6.7-4.6s-13.8-1.3-17.2-2.6-13.4-7-15.6-13.8l-4.6-13.6s2.5-9.1.2-19.3c-2.4-10.2-8.4-17.9-10.2-22.3s-3.6-6-3.6-6-.8-6-4.2-5.4"/><path id="path15601" d="M101.7 245.8s4 8.7 4 12.8 3.6 22.2 10.6 30.8c7 8.5 14.6 10.7 17.7 16.3s11 7.4 11 7.4l.2-3.5s-8.1-4.1-9-8.3-2.8-20.7-8.5-29.8-10.8-8.6-15.4-15.4-6-8-7-9.6c-.8-1.4-3.6-.7-3.6-.7"/></g></g><path id="path15603" d="M125 52s-9.1 7-11.3 7.5-6.5 2-6.5 8 .2 9.1.2 9.1l1-2.5.8 1.3s1-7 6-11S125 52 125 52" fill="#ffe85e"/><path id="path15605" d="M97.5 66.3S90 73 87.2 76s-3.9 4-4 7.5-1 9.1-1 9.1l1.4-2.6.8 1.4s2.2-9.5 5.2-12c3.1-2.5 5.6-6 6.7-8s1.2-5.1 1.2-5.1" fill="#ffe85e"/><path id="path15607" d="M83.6 102.4s5.1-10.8 12.2-11.8 14.5-1.3 14.5-1.3-3 3.3-7.7 5-6.8.5-10.5 2.5c-1.2.7-6.6 6.2-6.6 6.2l.3-1.4z" fill="#ffe85e"/><path id="path15609" d="M73 83S60 94.4 59.3 98.9s-.2 10.7-.2 10.7l1.4-5 1 2.5s3-9.6 4.7-12.2 3-3.2 3-3.2l.9 5.8s2.7-4.3 2.6-7S73 83 73 83" fill="#ffe85e"/><path id="path15611" d="M85.7 118s-17 2.6-20 6-5.8 9-5.8 9l3.8-3.5-.5 2.6s7.7-6.5 10.5-7.8 4.2-1.2 4.2-1.2l-2.3 5.5s4.6-2.2 6-4.6c1.3-2.4 4.1-6 4.1-6" fill="#ffe85e"/><path id="path15613" d="M45.2 109.7s-8.6 14.9-7.9 19.4 3.4 10 3.4 10l-.3-5 1.6 2s-.2-10 .6-13c.7-3.1 1.7-4.1 1.7-4.1l2.8 5.2s1.2-5 .1-7.5-2-7-2-7" fill="#ffe85e"/><path id="path15615" d="M28.5 142.2s-5.7 14-3.4 22.6c1.3 4.8 6 10.1 6 10.1l-1.6-5.4 2.3 1.8S29 160.5 29 157s.8-4.7.8-4.7l4.2 5s0-5.6-1.7-8.2-3.9-7-3.9-7" fill="#ffe85e"/><path id="path15617" d="M15.7 173.3s11.8 9.4 14 18c1.2 5-.3 11.9-.3 11.9l-1.3-5.6-1 2.7s-3-10.7-4.7-13.7-3-3.7-3-3.7l-1.2 6.5s-2.8-5-2.5-8 0-8 0-8" fill="#ffe85e"/><path id="path15619" d="M16.1 212.9s13 2.4 19 11.2c3.3 5 8.6 15.2 8.6 15.2l-4.4-4.4v3.6s-7.5-11-10.5-13.6-4.8-2.8-4.8-2.8l1.4 8s-5-4.3-6-8a87 87 0 0 0-3.3-9.2" fill="#ffe85e"/><path id="path15621" d="M29.7 247s13.2-1.4 21.3 5.5c4.5 3.8 16 11.4 16 11.4l-6-.7 4.1 4.7s-16.3-11.2-20-12.9-5.3-1.4-5.3-1.4l3.6 7.3s-6-2.7-8-6-5.7-8-5.7-8" fill="#ffe85e"/><path id="path15623" d="M51.9 278.8s12.7-3.8 22 1.3a221 221 0 0 0 17.8 8.2l-5.9.4 4.9 4s-18.2-8-22-9-5.6-.3-5.6-.3l4.9 6.5s-6.4-1.6-9-4.4-7.1-6.7-7.1-6.7" fill="#ffe85e"/><path id="path15625" d="M75.9 305.5s11.8-6 21.8-2.4c5.7 2 19 5 19 5l-5.7 1.4 5.4 3s-19.2-4.7-23.2-5-5.5.6-5.5.6l5.9 5.6s-6.6-.5-9.5-2.8a83 83 0 0 0-8.2-5.4" fill="#ffe85e"/><path id="path15627" d="M70.1 145.7s-17 7.9-19.2 12.4a56 56 0 0 0-3.6 11.2l3-4.8.2 3s6.3-9.2 8.9-11.5c2.5-2.2 4-2.5 4-2.5l-1 6.5s4.3-3.7 5-6.7 2.7-7.6 2.7-7.6" fill="#ffe85e"/><path id="path15629" d="M65.2 175.8s-14 12.3-15 17.3-.2 11.8-.2 11.8l1.6-5.5 1 2.8s3.3-10.6 5.2-13.5 3.2-3.5 3.2-3.5l.9 6.5s3-4.8 2.9-7.9c-.2-3 .4-8 .4-8" fill="#ffe85e"/><path id="path15631" d="M69.6 209.8s-10.1 19-9 24.8 4.4 12.9 4.4 12.9l-.5-6.6 2.1 2.6s-.6-12.8.2-16.7 2-5.2 2-5.2l3.7 6.7s1.3-6.4 0-9.7c-1.5-3.2-2.9-8.8-2.9-8.8" fill="#ffe85e"/><path id="path15633" d="M85.8 234.6s-4.6 21.1-2 26.3 7.9 11.2 7.9 11.2l-2.3-6.1 2.7 1.9s-4-12.2-4.3-16.2.5-5.5.5-5.5l5.3 5.4s-.4-6.5-2.7-9.3c-2.2-2.7-5-7.7-5-7.7" fill="#ffe85e"/><path id="path15635" d="M106.7 257.5s3.4 21.3 7.7 25.2 11.4 7.6 11.4 7.6l-4.4-4.9 3.3.8s-8.3-9.9-10-13.5-1.5-5.3-1.5-5.3l7 3.1s-2.8-5.9-6-7.7-7.5-5.3-7.5-5.3" fill="#ffe85e"/></g><path id="polygon15637" fill="#d3a809" d="m195.3 11.3-14.1 10.2 2.1 6.4h6.6z"/><path id="polygon15639" fill="#d3a809" d="m153.8 11.3 5.4 16.6h6.6l2.1-6.4z"/><path id="polygon15641" fill="#d3a809" d="m188.7 44.6 2 6.2h17.4l-14-10.2z"/><path id="polygon15643" fill="#d3a809" d="m174.5 75.2 5.4-16.5-5.4-3.9-5.3 3.9z"/><path id="polygon15645" fill="#d3a809" d="M140.9 50.8h17.5l2-6.2-5.5-4z"/><g id="g15647"><path id="polygon15649" fill="#28903b" d="M174.3 333.7v-49.3h-49.9v4.3h10.3v30.2h-16.2v27.5H146v-12.7z"/><path id="polygon15651" fill="#ffd400" d="M235.1 346.4v-27.5h-16.2v-30.2h10.3v-4.3h-49.9v49.3h28.3v12.7z"/><path id="path15653" d="M229.2 275.2h-10.3V242h2.5a11.7 11.7 0 1 0-11.7-11.7v.5l.2 2.6h-13.3l-.4-2.4q-.2-1.7-1-2.4-1.2-1.2-3.4-1.3a5.4 5.4 0 0 0-5.2 4.2l-.5 1.9h-17.5l-.5-2a5.4 5.4 0 0 0-5.3-4.1 5.4 5.4 0 0 0-5.2 4.2l-.5 1.9h-13.4l.2-2.9v-.2a11.7 11.7 0 1 0-11.7 11.7h2.5v33.3h-10.3v4.2h104.8z" fill="#0072bc"/><g id="g15655" stroke="#636466" stroke-linecap="round" stroke-linejoin="round"><path id="polygon15657" fill="#8c8c8c" d="M122.2 301.2v12.6h-8.7l-7.5 4.7v40.4h0l7.5-7.5h0v-37.5h16.2v-20.1l-7.6 7.4z"/><path id="polygon15659" fill="#636466" d="M151 351.4h-37.5l-7.5 7.5h52.5v-.1z"/><path id="polygon15661" fill="#636466" d="M151 338.7v.2l7.5 7.4v-.1h36.7l7.4-7.4v-.1z"/><path id="polygon15663" fill="#8c8c8c" d="M158.5 358.8v-12.5l-7.5-7.4v12.5z"/><path id="polygon15665" fill="#636466" d="M111.9 301.2h10.2l7.6-7.4v-.1h-10.3v-.1z"/><path id="path15667" d="M119.4 270.2h10.3v-23.5q0 0 0 0l-7.6 5.5h.1v18h-3l-7.3 5.6v25.4l7.5-7.6z" fill="#8c8c8c"/><path id="path15686" d="M115.6 230.2a16.7 16.7 0 0 1 17.9-16.5l-4.4-.4c-11.6 0-21 9.2-21 20.4 0 10.3 5 15.2 14 18.5l7.6-5.5c-8-1.2-14.1-8.1-14.1-16.5" fill="url(#SVGID_1_-1)"/><path id="polygon15688" fill="#8c8c8c" d="M240.1 313.9v37.5l7.6 7.5v-40.4zh-8.7v-12.5l-7.6-7.6h0V314z"/><path id="polygon15690" fill="#636466" d="m202.6 351.4-7.4 7.6h52.5l-7.6-7.5h0z"/><path id="polygon15692" fill="#636466" d="M231.5 301.3v-.1h10.2l-7.5-7.5h0-10.3z"/><path id="polygon15694" fill="#8c8c8c" d="m195.2 358.9 7.4-7.6v-12.5l-7.4 7.4z"/><path id="path15696" d="M241.8 301.2v-25.4l-7.3-5.6h-3v-18h0l-7.6-5.5q0 0 0 0v23.5h10.3v23.5z" fill="#8c8c8c"/><path id="path15715" d="M231.6 252.2c9-3.3 14-8.2 14-18.5 0-11.2-9.4-20.4-21-20.4q-2.3 0-4.4.3h1.2a16.7 16.7 0 0 1 2.5 33.1l7.6 5.5z" fill="url(#SVGID_2_)"/></g><g id="g15717"><g id="g15719" stroke-linecap="round" stroke-linejoin="round" stroke="#8e4a02"><path id="path15725" d="M207.5 312.9q1.7-2.6 1.8-5.7l3.2-1a13 13 0 0 0-2.2-6.5l-3.2 1a10 10 0 0 0-4.6-3.3V294a13 13 0 0 0-6.8 0v3.2q-2.9 1.1-4.7 3.4l-3.2-1a13 13 0 0 0-2.2 6.4l3.2 1q0 3.3 1.8 5.8l-1.9 2.7a13 13 0 0 0 5.5 4l2-2.7q1.2.3 2.9.4s2-.2 2.9-.4l1.9 2.6a13 13 0 0 0 5.5-4zq0 0 0 0m-8.4 1a6.9 6.9 0 1 1 0-13.7 6.9 6.9 0 0 1 0 13.7" fill="#dd954d"/><path id="path15727" d="M207.5 312.9q1.7-2.6 1.8-5.7l3.2-1a13 13 0 0 0-2.2-6.5l-3.2 1a10 10 0 0 0-4.6-3.3V294a13 13 0 0 0-6.8 0v3.2q-2.9 1.1-4.7 3.4l-3.2-1a13 13 0 0 0-2.2 6.4l3.2 1q0 3.3 1.8 5.8l-1.9 2.7a13 13 0 0 0 5.5 4l2-2.7q1.2.3 2.9.4s2-.2 2.9-.4l1.9 2.6a13 13 0 0 0 5.5-4zq0 0 0 0m-8.4 1a6.9 6.9 0 1 1 0-13.7 6.9 6.9 0 0 1 0 13.7" fill="#d3a809" stroke-width=".5"/></g><g id="g15729"><g id="g15731" fill="#915a26" stroke="#8e4a02" stroke-linecap="round" stroke-linejoin="round"><path id="path15733" d="M230.1 338.7c-.5 0-3.5-.4-9.8-5.1a50 50 0 0 1-13.1-20.5c-2-4.8-6.8-9.2-6.8-9.2l1.2-1.3c.3.1 5.9 5.6 8.3 11.5a39 39 0 0 0 11.6 16.8c5.7 4.3 7.6 4.2 7.7 4.3z"/><path id="path15735" d="M230.1 338.7c-.5 0-3.5-.4-9.8-5.1a50 50 0 0 1-13.1-20.5c-2-4.8-6.8-9.2-6.8-9.2l1.2-1.3c.3.1 5.9 5.6 8.3 11.5a39 39 0 0 0 11.6 16.8c5.7 4.3 7.6 4.2 7.7 4.3z" stroke-width=".5"/></g><g id="g15737"><g id="g15741"><path id="path15743" d="M193 312.1q-1.4-.2-1.9-1.2l-.6 1.2c-.3 1.6 2.5 2.6 3.3 1.1l.6-1z" fill="#bcbec0"/><path id="path15745" d="M203.4 302.9c-.3-.3-.7 0-.7 0l-2.1 2.3-2.8.4c-2.6.4-5.5 3.3-6.7 5.3q.6 1 1.8 1.2h1.5c.7-1.4 1.9-3.2 3.4-4.3 1.8-1.4 3.7-1 3.7-1l2.8-2.4c.1-.5-.6-1.3-.9-1.5" fill="#666666"/></g><path id="path15747" d="M203.4 302.9c-.3-.3-.7 0-.7 0l-2.1 2.3q0 0 0 0h0l-2.8.4c-2.6.4-5.5 3.3-6.7 5.3l-.6 1.2c-.3 1.6 2.5 2.6 3.3 1.1l.6-1c.7-1.5 1.9-3.3 3.4-4.4 1.8-1.4 3.7-1 3.7-1l2.8-2.4c.1-.5-.6-1.3-.9-1.5" fill="none" stroke="#636466" stroke-linecap="round" stroke-linejoin="round"/></g></g></g><g id="g15749"><g id="g15751"><g id="g15753"><g id="g15755"><path id="path15757" d="M162.5 294.5q0 0 0 0c-.1 0-1.6-.2-2.7-.8l-1.2-.6c-.4.5-1.3.4-1.6.3q-1 0-1-.6l-.3-.4-2.6.7c-.2 0-.5.2-1.6-.7l-1.2.7h-.4l-1.6-.3-.7.3q-.9.1-1.2-.2l-.2-.1h-.4c0 .2-.5.6-3 .5l-.2-.1-.2-.1q0 .3-.7.5-1 .1-1.7-.7h-.2l-.3.2c0 .1-.2.4-1.4.4a.5.5 0 0 1 0-1h.7q.3-.6 1-.7t.8.4q.5.4.8.4h.2q-.1-.3.4-.6t1.1.3h1.9q0-.3.3-.4.7-.3 1.3 0h.2l.5.2.6-.3h.4l1.7.4 1.2-.8h.6l1 .7 3-.7h.4l.7 1h1l.4-.3q.6-.1 2 .7l2.3.7a.5.5 0 0 1 0 1" fill="#9cb227" stroke="#064926" stroke-linecap="round" stroke-linejoin="round" stroke-width=".5"/></g><g id="g15759"><path id="path15761" d="M140.2 313.7h-.2a.5.5 0 0 1-.3-.7c.3-.5.8-1.3 1.7-1.2q1-.1 1.4-.4 0-.4.4-.7.5-.4 1.6.5l.7.3.2-.1.4-.5.7-.5q.3 0 .8.3 1 .7 1.5.3c.8-1.2 1.5-1.5 2.9-1.3q.5.2.8-.5l.6-.8a.5.5 0 0 1 .8.7l-.6.7q-.3 1-1.8 1c-1-.2-1.3-.1-2 .7-.7 1.2-2.1.4-2.7 0h-.1q0 0 0 0l-.6.6q-.9 1-2.2-.2l-.5-.2-.2.4c-.4.4-1.4.7-2.1.7q0 0 0 0c-.4 0-.7.6-.7.6q-.2.3-.5.3" fill="#9cb227" stroke="#064926" stroke-linecap="round" stroke-linejoin="round" stroke-width=".5"/></g><g id="g15763"><path id="path15765" d="m139.7 297.5-.5-.4c0-.2 0-1 .5-1.3q.3-.2 1 0h.1c.8.4.9.4 1.2 0q.5-.9 1.2-1 .4 0 .7.4l.2.2.4.3.2-.4c.3-.5 1-1.4 2.1-.8l.9.6.3.3.1-.2c.4-.4 1.5-1.8 2.5-1.2l.1.1q0 0 0 0l.3-.2c.7-.5 1.3 0 1.8.3l.8.4q.4 0 .7-.4t.6-.5q.9-.1 1.2.7l.2.2a.5.5 0 0 1-.2 1q-.5-.1-.8-.7l-.2-.2v.1c-.4.4-.8.9-1.7.7q-.7-.1-1.1-.5-.6-.4-.8-.3l-.2.2q-.4.4-1 0h-.3s-.4 0-1.1 1l-.8.5q-.7-.1-1-.5l-.8-.5q-.3-.4-.8.5l-.3.4-.7.4q-.8-.1-1.1-.7l-.2-.1-.5.5c-.8 1-1.5.7-2.3.4h-.1l-.1-.1v.3z" fill="#9cb227" stroke="#064926" stroke-linecap="round" stroke-linejoin="round" stroke-width=".5"/></g></g><path id="path15767" d="M158 292.7s3.9-.8 5.2-.5 1.5-1 2.1-.8 3.4 5.2 4.1 9.3 1 9.1-3 13c-4.1 3.8-6.2 3.8-9.7 7.5s-7.4 8.2-7.4 8.2 3.5-5.4 5.3-7.6 3.2-3.4 3.2-3.4l-3 .8 3.4-2h-2.4l5.1-1.7-3.4.2 4.7-1.8-3-.3 2.1-6.3c1.2-3.6 2-3 .4-5.3s-2-7-2-7z" fill="#9cb227" stroke="#064926" stroke-linecap="round" stroke-linejoin="round" stroke-width=".5"/><path id="path15769" d="M155 313.7s-6 4-9.2 5.4-7.2 2.5-10 7-6.7 8.6-6.7 8.6 3.8-5.7 4.8-8 3.6-4.7 6.2-6l4-2-4.7.9 4.6-1.8s-3.8.2-3.4 0l4.3-1.5s-3 0-2.7-.1l5.2-1.8-2.4-.8 4.9-.6c1.3 0 .3 0 2.2-1.5s5-5.3 5-5.3.4 4.8-2.2 7.5" fill="#9cb227" stroke="#064926" stroke-linecap="round" stroke-linejoin="round" stroke-width=".5"/><path id="path15771" d="M154.8 296s-7.1 0-10.8 2c-3.6 1.8-5.4 4.6-5.4 4.6l4.6-2.4-.4 1.9 3.1-2.7v1.9l2.5-2 .2 1 2.9-1.3c.6-.3 3.3-3 3.3-3" fill="#9cb227" stroke="#064926" stroke-linecap="round" stroke-linejoin="round" stroke-width=".5"/></g><g id="g15773"><g id="g15775"><g id="g15777"><g id="g15779"><path id="path15781" d="M160 300c-.4-1.2-2.2 2.5-5.7 1.7s-5.5-4.4-5.5-4.4 2.7-3.9 6.7-4.3c3.9-.5 5 2.3 5.1 3.6 0 0-.2 1.4.2 2.6s-.7 3-.6 3.5.6 1 .6 1-1 .5-1.3-.6c-.3-1-.3-1.4.4-3.1" fill="#b76e11" stroke="#8d3803" stroke-linecap="round" stroke-linejoin="round" stroke-width=".5"/><path id="path15783" d="M159.5 295.1s-2.2-2.3-4.9-1.2c-2.6 1.1-4.4 3-4.4 3s1.9 3.3 4.8 2.7c2.9-.7 4.1-2.4 4.5-4.5" fill="#f7941e"/><path id="path15785" d="M153.4 295.8s.5-.9 2-1.4c1.4-.4 2.2.5 2.2.5s-1.1 2.2-4.2.9" fill="#ffd15e"/></g></g></g><g id="g15787"><g id="g15789"><g id="g15791"><path id="path15793" d="M156 308.6c-.5-1.2-1.7 3.4-5.7 3.3s-7-3.7-7-3.7 2-5 6.3-6.3c4.2-1.4 6.2 1.5 6.5 2.8 0 0 0 1.6.8 2.9.7 1.2-.1 3.4.1 4s.9 1 .9 1-1 .7-1.6-.4-.6-1.5-.2-3.6" fill="#b76e11" stroke="#8d3803" stroke-linecap="round" stroke-linejoin="round" stroke-width=".5"/><path id="path15795" d="M154.5 303.4s-2.9-2.1-5.6-.3-4.2 4.4-4.2 4.4 2.8 3.2 5.9 1.8c3-1.4 4-3.5 4-6" fill="#f7941e"/><path id="path15797" d="M148 305.5s.3-1.1 1.8-2 2.6 0 2.6 0-.7 2.7-4.5 2" fill="#ffd15e"/></g></g></g><g id="g15799"><g id="g15801"><g id="g15803"><path id="path15805" d="M164 306.6c-1-.5.9 4-2.1 6.4-3 2.2-7.3 1.3-7.3 1.3s-1.3-4.8 1-8.2c2.3-3.5 5.4-2.5 6.4-1.7 0 0 .2 1 1.5 1.5z" fill="#b76e11" stroke="#8d3803" stroke-linecap="round" stroke-linejoin="round" stroke-width=".5"/><path id="path15807" d="M160 304.3s-3.3.1-4.2 3c-.9 3-.5 5.7-.5 5.7s3.9.7 5.3-2.1q2-4.1-.5-6.6" fill="#f7941e"/><path id="path15809" d="M156.5 309.7s-.4-1 .3-2.5 1.9-1.6 1.9-1.6 1 2.4-2.2 4" fill="#ffd15e"/></g></g></g><g id="g15811"><g id="g15813"><g id="g15815"><path id="path15817" d="M165.4 302.5c-.5-1.1-1.7 3.1-5.4 3-3.8 0-6.5-3.4-6.5-3.4s1.9-4.6 5.9-5.9c4-1.2 5.7 1.4 6 2.7 0 0 .1 1.5.8 2.6s-.1 3.2 0 3.8c.3.6 1 .9 1 .9s-1 .6-1.6-.4c-.5-1-.5-1.4-.2-3.3" fill="#b76e11" stroke="#8d3803" stroke-linecap="round" stroke-linejoin="round" stroke-width=".5"/><path id="path15819" d="M164 297.6s-2.8-2-5.3-.2c-2.5 1.7-3.9 4-3.9 4s2.6 3 5.5 1.7c2.8-1.3 3.7-3.2 3.7-5.5" fill="#f7941e"/><path id="path15821" d="M157.8 299.6s.4-1 1.8-1.8 2.4 0 2.4 0-.7 2.5-4.2 1.8" fill="#ffd15e"/></g></g></g></g></g><g id="g15823"><path id="path15825" d="M139.6 236.3h17.9s.2-5.6 3.9-5.6c4.8 0 4.5 5.6 4.5 5.6l21 .2s-.3-5.7 4.7-5.7c3.7 0 3.9 5.6 3.9 5.6h18c-2.4-11.6 6-15.1 13.6-15.5h1.2q-3-2.2-7-2.3c-6.5 0-11.7 5.2-11.7 11.6v.5l.1 2.6h-13.2l-.4-2.4q-.2-1.7-1-2.4-1.2-1.2-3.4-1.3a5.4 5.4 0 0 0-5.3 4.2l-.4 1.9h-17.6l-.4-2a5.4 5.4 0 0 0-5.3-4.1 5.4 5.4 0 0 0-5.2 4.2l-.5 1.9h-13.4l.1-2.9v-.2a11.7 11.7 0 0 0-18.6-9.2h1.2c7.3.2 15.7 3.7 13.3 15.3" fill="#636466" stroke="#636466" stroke-linecap="round" stroke-linejoin="round"/></g><path id="rect15827" fill="#636466" stroke="#636466" stroke-linecap="round" stroke-linejoin="round" d="M124.3 284.3h104.6v1.7H124.3z"/><path id="polygon15829" fill="#636466" stroke="#636466" stroke-linecap="round" stroke-linejoin="round" d="M124.3 276.8v-1.7h10.2l-2.9 1.7z"/><path id="polygon15831" fill="#636466" stroke="#636466" stroke-linecap="round" stroke-linejoin="round" d="M229 276.8v-1.7h-10.2l2.9 1.7z"/><path id="polygon15833" fill="#636466" stroke="#636466" stroke-linecap="round" stroke-linejoin="round" d="M118.5 320.5v-1.6h16l-2.9 1.6z"/><path id="polygon15835" fill="#8c8c8c" stroke="#636466" stroke-linecap="round" stroke-linejoin="round" d="M144.4 346.5h1.6v-12.7l-1.6 2.9z"/><path id="polygon15837" fill="#8c8c8c" stroke="#636466" stroke-linecap="round" stroke-linejoin="round" d="M172.7 333.8h1.6v-49.4l-1.6 1.7z"/><path id="polygon15839" fill="#8c8c8c" stroke="#636466" stroke-linecap="round" stroke-linejoin="round" d="M180.9 333.8h-1.7v-49.4l1.7 1.7z"/><path id="polygon15841" fill="#8c8c8c" stroke="#636466" stroke-linecap="round" stroke-linejoin="round" d="M209.3 346.5h-1.6v-12.7l1.6 2.9z"/><path id="polygon15843" fill="#636466" stroke="#636466" stroke-linecap="round" stroke-linejoin="round" d="M235.2 320.5v-1.6h-16.4l2.9 1.6z"/><g id="g15845"><path id="path15847" d="M223.9 314v-20.3h10.3v-23.5h-10.3v-23.5a16.7 16.7 0 1 0-19-18.4h-4.1q-.6-1.9-2-3.3a10 10 0 0 0-7-2.8c-4.2 0-7.8 2.4-9.5 6.1h-10c-1.6-3.7-5.3-6.1-9.5-6.1s-7.8 2.4-9.4 6.1h-4.7a16.7 16.7 0 1 0-19 18.4v23.5h-10.3v23.5h10.3V314h-16.2v37.5H151v-12.7h51.6v12.7h37.5V314zm-99.5-38.8h10.3V242h-2.5a11.7 11.7 0 1 1 11.7-11.7v.2l-.2 2.9h13.4l.5-2c.6-2.4 2.7-4.1 5.2-4.1s4.7 1.7 5.3 4.2l.5 1.9H186l.5-2a5.4 5.4 0 0 1 5.2-4.1q2 0 3.4 1.3.8.7 1 2.4l.4 2.4h13.3l-.1-2.6v-.5a11.7 11.7 0 1 1 11.6 11.7h-2.5v33.3h10.3v4.2H124.4zm49.9 58.5H146v12.7h-27.5V319h16.2v-30.2h-10.3v-4.3h49.9zm60.8 12.7h-27.5v-12.7h-28.3v-49.3h49.9v4.3h-10.3V319H235z" fill="#ffffff" stroke="#636466" stroke-linejoin="round"/></g><g id="g15849"><path id="polygon15851" fill="#91672f" d="m197 267.6 3.3-3.7-.3-1.9.9-.3-.2-.6L187 260v.8l1.9.1.5 7.4z"/><g id="g15853"><path id="path15855" d="M178 235.7s2 3.5 4.7 5.2c2.6 1.6 6 3 6 3s-4.1.2-6 1.6c-1.7 1.4-3.3 3.9-3.3 3.9s.3-4.4 0-7c-.1-2.6-1.4-6.7-1.4-6.7" fill="#ffffff"/><path id="path15857" d="M188.7 244.2s.2 6.2 2 10.3c1.8 4 5.2 9 5.2 9s-4.3-1.5-9-1.3-6.4 2.2-6.4 2.2.2-7-.3-9.5-1.3-4.8-1.3-4.8 1.6.3 4.4-1.3c2.8-1.5 5.4-4.6 5.4-4.6" fill="#ffffff"/><path id="polygon15859" fill="#9b6e33" d="m177.6 235.3.5.1 2.1 32.2-.9-.4z"/><path id="polygon15861" fill="#9b6e33" d="m188.8 243.8.3.3-10.4 6.5v-.8z"/><path id="polygon15863" fill="#9b6e33" d="m196.1 263.2.1.4-16.6 1.3-.2-1z"/></g><g id="g15865"><path id="path15867" d="M163 234.2s2.1 3.6 4.8 5.3 6 3 6 3-4.1.2-6 1.6c-1.7 1.3-3.3 3.9-3.3 3.9s.3-4.4 0-7c-.2-2.7-1.4-6.8-1.4-6.8" fill="#ffffff"/><path id="path15869" d="M173.8 242.8s.2 6.2 2 10.2 5.2 9 5.2 9-4.3-1.5-9-1.2c-4.6.2-6.4 2.1-6.4 2.1s.2-6.9-.3-9.4-1.3-4.8-1.3-4.8 1.6.3 4.4-1.3c2.8-1.5 5.4-4.6 5.4-4.6" fill="#ffffff"/><path id="polygon15871" fill="#9b6e33" d="m162.7 233.8.5.2 2 32.2-.8-.4z"/><path id="polygon15873" fill="#9b6e33" d="m173.8 242.4.3.3-10.3 6.5v-.8z"/><path id="polygon15875" fill="#9b6e33" d="m181.1 261.8.2.4-16.6 1.3-.2-1z"/></g><g id="g15877"><path id="path15879" d="M141 258.7s2.7-.2 6.4-1.4 7.8-3.5 7.8-3.5-3.9 3.7-3.6 5.6 2.1 3.6 2.1 3.6-3.7-3-6-3.5-6.7-.8-6.7-.8" fill="#ffffff"/><path id="path15881" d="M153.8 256s2.4-.4 3.6-1c1.2-.8 2.6-2.7 2.6-2.7s-3.3 5.3-3 7.3 2.2 4.8 2.2 4.8-3.7-3-5.3-3.5l-1.7-.8s-.4-1.1.1-2c.7-1.3 1.5-2.1 1.5-2.1" fill="#ffffff"/><path id="path15883" d="M158.7 255.6s1.7-.7 2.7-1.6c.7-.7 2.1-4.4 2.1-4.4s-2 7.6-1.5 10 2.5 5.6 2.5 5.6-3.6-3.2-5-3.6c-1.4-.5-1.6-.8-1.6-.8s-.7-1.4-.4-2.6c.3-1.1 1.2-2.6 1.2-2.6" fill="#ffffff"/><path id="path15885" d="M155.8 253.5s2-.6 4.3-2c2.6-1.6 3.4-2.4 3.4-2.4s-.8 1.1-3 2.5c-2.1 1.4-4.7 2-4.7 2" fill="#9b6e33"/></g><path id="path15887" d="m159.4 271.1 1.8.9c2 1 4 2 6.2 2 2 0 3.5-1 5.1-1.9 1.8-1 3.7-2 6.2-2s4.5 1 6.3 2a11 11 0 0 0 5.3 1.9c1.9 0 3-.8 4.4-1.8s3.2-2.1 6-2.2c2.2-3 3.6-8.3 3.6-8.3l-6.2 1.8-1.5 2.2s-8 .7-20.7.5c-18.3-.3-36-7.8-36-7.8l.2.6 13 5.2s5 4.6 6.2 7" fill="#ba8440"/><path id="path15889" d="M156.6 265.5s5 1.8 13.5 2.8c10.7 1.3 30.9-1.4 30.9-1.4s-21.2 3-30.6 1.9c-14.3-1.6-13.8-3.3-13.8-3.3" fill="#eea852"/><path id="path15891" d="M158.8 268s6.3 1.8 14.5 2.7c10.5 1 26-1.5 26-1.5s-16.3 2.8-25.5 2c-13.8-1.3-15-3.2-15-3.2" fill="#eea852"/><g id="g15893"><g id="g15895"><path id="path15897" d="M190.3 275.8c-2.5 0-4.4-1-6.2-2.1q-2.6-1.6-5.4-1.8-2.8.1-5.2 1.8c-1.7 1-3.6 2-6.1 2-2.6 0-4.9-1-7.1-2.1q-2.7-1.6-5.1-1.7c-3.4 0-6.4 2-6.4 2.1a1 1 0 0 1-1.4-.2 1 1 0 0 1 .2-1.2c.2-.1 3.6-2.6 7.6-2.6 2 0 4 1 6 2s4 2 6.2 2c2 0 3.5-1 5.1-1.9 1.8-1 3.7-2 6.2-2s4.5 1 6.3 2a11 11 0 0 0 5.3 1.9c1.9 0 3-.8 4.4-1.8s3.2-2.2 6-2.2c5.1 0 8 2.5 8.1 2.6q.7.7.1 1.3a1 1 0 0 1-1.4 0s-2.5-2-6.8-2c-2.2 0-3.5.9-4.9 1.8s-3 2-5.5 2" fill="#ffffff"/></g></g></g></g><g id="g15899" fill="#4bb857" stroke="#2e7537" stroke-linecap="round" stroke-linejoin="round"><g id="g15901"><path id="polygon15903" d="M81.5 196.9h21.4l13.6-8.3H99.2z"/><path id="polygon15905" d="M128.3 181.4h-13.9l-15.2 7.2h17.3z"/><path id="polygon15907" d="m97.7 181.4-19.1 7.2h20.6l15.2-7.2z"/><path id="polygon15909" d="m141.4 196.9 6.6-8.3h-15.3l-10 8.3z"/><path id="polygon15911" d="M153.6 181.4h-12.2l-8.7 7.2H148z"/><path id="polygon15913" d="M141.4 181.4h-13.1l-11.8 7.2h16.2z"/><path id="polygon15915" d="m116.5 188.6-13.6 8.3h19.8l10-8.3z"/><path id="polygon15917" d="m156.8 196.9 3.6-8.3H148l-6.6 8.3z"/><path id="polygon15919" d="M84 208.3h24.7l14-11.4h-19.8z"/><path id="polygon15921" d="M108.7 208.3h23.6l9.1-11.4h-18.7z"/><path id="polygon15923" d="m151.8 208.3 5-11.4h-15.4l-9.1 11.4z"/></g><g id="g15925"><path id="polygon15927" d="M271.4 196.9h-21.3l-13.6-8.3h17.3z"/><path id="polygon15929" d="M224.7 181.4h13.9l15.2 7.2h-17.3z"/><path id="polygon15931" d="m255.3 181.4 19.1 7.2h-20.6l-15.2-7.2z"/><path id="polygon15933" d="m211.6 196.9-6.6-8.3h15.3l10 8.3z"/><path id="polygon15935" d="M199.4 181.4h12.2l8.7 7.2H205z"/><path id="polygon15937" d="M211.6 181.4h13.1l11.8 7.2h-16.2z"/><path id="polygon15939" d="m236.5 188.6 13.6 8.3h-19.8l-10-8.3z"/><path id="polygon15941" d="m196.2 196.9-3.6-8.3H205l6.6 8.3z"/><path id="polygon15943" d="M269 208.3h-24.7l-14-11.4h19.8z"/><path id="polygon15945" d="M244.3 208.3h-23.6l-9.1-11.4h18.7z"/><path id="polygon15947" d="m201.2 208.3-5-11.4h15.4l9.1 11.4z"/></g></g><g id="g15949"><path id="path15951" d="M168.7 192.7h12.7s-.4 3.2-.4 4.5c0 2.2.8 6.3 4.7 7.4s12.5.1 14.2 5.2 2 7.3 2 7.3h-15c-5 0-11.4-1.2-14.6-10.8a78 78 0 0 1-3.6-13.6" fill="#915a26" stroke="#8e4a02" stroke-linecap="round" stroke-linejoin="round" stroke-width=".75"/><path id="path15953" d="M172 193.4s1.1 12.3 7.6 17.2 19.6 5.4 19.6 5.4l-14.6-.1c-4.3 0-8.7-3.2-11.1-8.9s-3.6-13.6-3.6-13.6z" fill="#7c3f00"/><path id="path15955" d="M179 193.5s-.8 9.1 3.7 11.6c5 2.7 12.1.7 14.4 3.8s2 6 2 6-2.2-5-4.4-5.4-11.5-.9-14.2-3.3-3.8-8.6-3.5-12.7z" fill="#dd954d"/><path id="path15957" d="M184.4 190c0 2-1.6 3.5-3.6 3.5h-12.7c-2 0-3.5-1.5-3.5-3.5v0c0-2 1.5-3.5 3.5-3.5h12.7c2 0 3.6 1.6 3.6 3.5" fill="#dd954d" stroke="#905501" stroke-linecap="round" stroke-linejoin="round" stroke-width=".75"/><g id="g15959"><g id="g15961"><path id="path15963" d="M171.6 178.6c3-2.8 4.3-5.6 1.5-13.3-2.9-7.6 1.2-12.5 5.4-22.7 4.2-10.3-2.4-24-3.4-32.5a241 241 0 0 1-.9-22.9l-.1-.5s-5.3 20.4-6.3 49.4.4 52.4.4 52.4h2.6c-.6-3.5-1-8.2.8-9.9" fill="#bacad3"/><path id="path15965" d="M174.2 87.2c0 5.3.1 16.6.9 23 1 8.4 7.6 22 3.4 32.4-4.2 10.2-8.3 15-5.5 22.7s1.7 10.5-1.4 13.3c-1.8 1.7-1.4 6.4-.8 9.9l9.5-.2s-.8-2.4-1.4-8.9 4.6-22.3 5.8-41.7c1.2-18-9-46.4-10.5-50.5" fill="#ffffff"/></g><path id="path15967" d="M168.4 188.5s-1.4-23.4-.4-52.4 6.3-49.4 6.3-49.4 11.9 31.7 10.7 51-6.5 35.3-5.9 41.7 1.4 9 1.4 9z" fill="none" stroke="#636466" stroke-linecap="round" stroke-linejoin="round"/></g><path id="path15969" d="M182.6 190.6q0 .7-.9.8h-14.2a.8.8 0 0 1 0-1.7h14.2q.8 0 .9.9" fill="#ffd830"/></g><path id="path15971" d="m39.8 310.3.8 32.1-22.1-1.5s33.2 46.8 64 58.6l16.8-27.8S81 361 65.6 345.7s-25.8-35.4-25.8-35.4" fill="#d71920" stroke="#8b0304" stroke-linecap="round" stroke-linejoin="round" stroke-width="1.5"/><g id="g15973"><g id="g15975"><path id="polygon15977" fill="#b11116" stroke="#8b0304" stroke-linecap="round" stroke-linejoin="round" stroke-width="1.5" d="M82.3 400.2 99 371.8l-15.9-24.5L63 374.1z"/></g></g><path id="path15979" d="m313.9 310.3-.8 32.1 22.2-1.5s-33.2 46.8-64.1 58.6l-16.7-27.8s18.2-10.8 33.7-26 25.7-35.4 25.7-35.4" fill="#d71920" stroke="#8b0304" stroke-linecap="round" stroke-linejoin="round" stroke-width="1.5"/><path id="polygon15981" fill="#b11116" stroke="#8b0304" stroke-linecap="round" stroke-linejoin="round" stroke-width="1.5" d="m271.5 400.2-16.8-28.4 15.9-24.5 20.1 26.8z"/><path id="path15983" d="M178.8 415.2c9.8 0 29.6-2.3 54.6-9.2s57.3-32 57.3-32l-20.1-26.7s-34.7 34.5-93.3 34.5h-.8c-58.7 0-93.4-34.5-93.4-34.5L63 374s32.4 25 57.4 31.9 44.7 9.2 54.5 9.2z" fill="#d71920" stroke="#8b0304" stroke-linecap="round" stroke-linejoin="round" stroke-width="1.5"/><g id="g15985" fill="#ffffff"><path id="path15987" d="m81.7 371.1 2.3 1.1q-.7 1.5-.5 2.6.2 1 1.2 1.6t2 .5c1-.2 1-.5 1.4-1q.3-.5.3-1t-.4-1l-1.4-1.8a7 7 0 0 1-1.6-3q-.3-1.8.7-3.4a5 5 0 0 1 1.8-1.7q1-.6 2.2-.5t2.5.8q2.1 1.4 2.4 3.2t-.9 3.7l-2.3-1.3q.6-1.1.4-1.9t-1.1-1.3q-1-.7-1.8-.5-.6 0-1 .6-.2.6-.1 1 0 .8 1.4 2.3c1.4 1.5 1.5 1.9 1.8 2.5q.4 1 .3 2.2a6 6 0 0 1-1 2.5q-.8 1.2-2 1.9c-1.2.7-1.6.7-2.4.6a6 6 0 0 1-2.7-1q-2-1.4-2.5-3.3c-.5-1.9.1-2.7 1-4.4"/><path id="path15989" d="m98 368.3 2.4 1.2-4.2 8-1.2 2.4q-.5.9 0 1.8c.4.9.5 1 1.2 1.4q1 .5 1.7.2.8-.1 1.3-.9l1.4-2.4 4.3-8 2.3 1.2-4 7.6q-1.5 2.7-2.2 3.6a4 4 0 0 1-3.7 2q-1 0-2.4-.8-1.7-.9-2.2-1.8-.7-1.1-.7-2l.2-2q.4-1.2 1.7-3.7z"/><path id="path15991" d="m102.7 389.3 6.6-15 2.4 1-5.5 12.5 6 2.6-1.1 2.6z"/><path id="path15993" d="m124.5 397.9-2.6-1 .1-3.9-4.9-1.7-2.2 3.1-2.7-1 10.4-13.7 2.6 1zm-2.3-7.8.3-6.3-3.7 5.1z"/><path id="path15995" d="m127.5 398.8 1.2-16.8 2.6.7-1 11.5 5.2-10.4 3 .8-.7 11.7 4.8-10.6 2.6.6-7.2 15.2-2.7-.7.6-12.6-5.6 11.3z"/><path id="path15997" d="m143.4 402.6 2.6-16.3 9.5 1.6-.4 2.7-7-1-.5 3.5 6.4 1-.4 2.8-6.5-1-.7 4.4 7.2 1.1-.5 2.8z"/><path id="path15999" d="M156 399.1h2.5q0 1.5.7 2.4t1.9.9 2-.5c.7-.5.6-1 .7-1.6q0-.6-.2-1t-.9-.8l-2-.9a7 7 0 0 1-2.8-1.8q-1.1-1.5-1-3.4 0-1.3.8-2.3.6-1 1.7-1.5t2.6-.4q2.4.2 3.6 1.6 1 1.4 1 3.8l-2.6-.1q0-1.3-.6-1.9t-1.6-.7q-1.2 0-1.9.5-.4.3-.5 1t.4 1q.4.6 2.3 1.3t2.7 1.4q.9.6 1.3 1.8.5 1 .3 2.6 0 1.4-.8 2.6-.7 1.2-2 1.7c-1.2.5-1.7.5-2.8.4q-2.4-.2-3.7-1.8a7 7 0 0 1-1.2-4.3"/><path id="path16001" d="m168.7 405.3.4-16.4h2.6l-.3 16.5z"/><path id="path16003" d="m189 399.5 2.5-.6q.4 1.7 1.2 2.3.8.8 2 .6t1.8-.9.5-1.7q0-.5-.4-1-.3-.3-1-.5l-2.2-.5a7 7 0 0 1-3-1.3 5 5 0 0 1-1.6-3.2q-.1-1.2.3-2.4t1.4-1.8 2.5-.9q2.4-.2 3.8 1t1.7 3.5l-2.6.4q-.3-1.2-1-1.7-.5-.6-1.6-.4-1.2 0-1.8.8-.3.3-.3 1t.5 1q.6.5 2.6.8c2 .3 2.2.6 2.9.9q1 .4 1.6 1.5c.6 1.1.7 1.5.8 2.6q.2 1.4-.3 2.7c-.5 1.3-.9 1.5-1.6 2a6 6 0 0 1-2.7.9q-2.5.2-4-1a7 7 0 0 1-2-4"/><path id="path16005" d="m203 403.3-2.9-16.2 9.5-1.7.5 2.8-7 1.2.7 3.6 6.4-1.1.5 2.7-6.4 1.1.8 4.4 7.1-1.2.5 2.7z"/><path id="path16007" d="m215.6 401-3.9-15.9 2.6-.6 3.2 13.1 6.4-1.5.6 2.7z"/><path id="path16009" d="m238.2 394.4-2.7 1-2.3-3.3-4.9 1.6.1 4-2.6.8-.3-17.2 2.7-.9zm-6.6-4.7-3.6-5.2.2 6.3z"/><path id="path16011" d="m241.6 393-5.1-12.7-3.6 1.5-1-2.6 9.5-3.9 1 2.6-3.5 1.5L244 392z"/><path id="path16013" d="m259.1 385-2.5 1.3-2.7-2.9-4.7 2.3.7 3.8-2.5 1.3-2.7-17 2.5-1.3zm-7.2-3.7-4.3-4.7 1.1 6.2z"/><path id="path16015" d="m261.2 383.8-8.7-14 2.2-1.4L265 375l-5.8-9.4 2.1-1.3 8.7 14-2.2 1.4-10.2-6.3 5.7 9z"/></g><g id="g16017"><path id="path16019" d="M140.3 369s4.6-4.8 5.6-5c1-.1 3.8 2.9 5.2 4.7s3.4 3.6 3 3.8-1.4.2-1.4.2l-6.3-5.4s-2.8 2.2-3.4 2.5l-.5.3z"/><path id="path16021" d="M153 365.7h3.6c.8 0 3 1.8 3 2.7s2.5 4 2.5 4-.7.8-1.1.8-3.4-5.5-3.4-5.5h-2.3c-1.1 0-2.2-2-2.2-2"/><path id="path16023" d="M161.2 366.4s1 0 1.9.9 2.5 3.2 2.5 3.2 3.2-3 4-3.4 3.3 1 3.3 1l2.8.1s1.6.2 2.7 1.9c.4.6 4.2 4 3.8 4.5s-1.3.4-1.3.4l-5.6-5.6-3-.2-1.5.4-4.2 4.1s-1.3-.1-1.4-.5z"/><path id="path16025" d="M167.7 365q.2.1 0 .4l-1 1h-.6l-1-1v-.4l1-1h.5z"/><path id="path16027" d="M194.8 375.2v.4l-1.1 1h-.5l-1-1v-.4l1-1h.5z"/><path id="path16029" d="M198.3 364.8q.3.2 0 .5l-1 .9h-.5l-1.1-1v-.4l1-1h.6z"/><path id="path16031" d="M180 369.7s2.8-3 4.4-2.4 4 3.7 4.7 3.7 2.1-.5 2.1-1-.8-2.7-1.6-3.6-2.3-2.6-1.9-3c.4-.2 1.5-.3 2 .2s4.1 6.5 4.1 7.7-3.4 2.8-4.6 2.8-4.3-4.2-4.8-4.5-2.8.8-3 1h-1z"/><path id="path16033" d="M195.6 370s3.7-3.4 4.7-3c1 .2 5 4.1 6 3.6s1.6-1.2 1.6-1.2 1.3 2 1 2.5-1.6 1.6-2.2 1.6-2.2-1-2.2-1l-2.9-2.4s-1.6 1.4-2.9 1.8c-1.2.3-3-1.9-3-1.9"/><path id="path16035" d="M204.7 367s2.4-1.6 3.5-1.9 3 1.3 3.7 1.7 2.3 2 2.3 2-1 1.2-1.6.8-3.3-2.8-3.7-2.7-1.3.9-2 1c-.5.1-1.7.2-2.2-1"/></g><g id="g16037"><path id="polygon16039" fill="#d3a809" d="M174.6 12v27.6l6.9-8.3z"/><path id="polygon16041" fill="#f2c24b" d="M164 43v.1l10.6-3.5-26.5-8.3z"/><g id="g16043"><path id="polygon16045" fill="#f2c24b" d="m174.6 12-6.7 19.3 6.7 8.3z"/><path id="polygon16047" fill="#d3a809" d="m148 31.3 26.5 8.3-6.7-8.3z"/></g><g id="g16049"><path id="polygon16051" fill="#f2c24b" d="m181.5 31.3-6.9 8.3 26.7-8.3z"/><path id="polygon16053" fill="#d3a809" d="m174.6 39.6 10.5 3.3 16.2-11.6z"/></g><g id="g16055"><path id="polygon16057" fill="#f2c24b" d="m174.6 39.6 16.5 22.2-6-18.9z"/><path id="polygon16059" fill="#d3a809" d="m174.7 50.7 16.4 11.2v-.1l-16.5-22.2z"/></g><g id="g16061"><path id="polygon16063" fill="#d3a809" d="m158.2 62.6.1-.1 16.3-22.9-10.6 3.5z"/><path id="polygon16065" fill="#f2c24b" d="M174.6 50.8V39.6l-16.3 22.9z"/></g></g><path id="polygon16067" fill="#f2c24b" d="m183.3 27.9 12-16.6-14.1 10.2z"/><path id="polyline16069" fill="#f2c24b" d="m153.8 11.3 5.4 16.6h6.6"/><path id="polygon16071" fill="#f2c24b" d="m188.7 44.6 19.4 6.2-14-10.2z"/><path id="polygon16073" fill="#f2c24b" d="M174.5 54.8v20.4l5.4-16.5z"/><path id="polygon16075" fill="#f2c24b" d="m160.4 44.6-19.5 6.2h17.5z"/><g id="g16077" fill="none" stroke="#8e4a02" stroke-linecap="round" stroke-linejoin="round"><path id="polygon16079" d="m195.3 11.3-14.1 10.2 2.1 6.4h6.6z"/><path id="polygon16081" d="m174.5 75.2 5.4-16.5-5.4-3.9-5.3 3.9z"/><path id="polygon16083" d="M148 31.3 164 43v.1l-5.8 19.5.1-.1 16.3-11.7.1-.1 16.4 11.2v-.1l-6-18.9h0l16.2-11.6h0-19.8 0l-6.8-19.4-.1.1-6.7 19.3h0z"/><path id="polygon16085" d="m167.9 21.5-14.1-10.2 5.4 16.6h6.6z"/><path id="polygon16087" d="M190.7 50.8h17.4l-14-10.2-5.4 4z"/><path id="polygon16089" d="m154.9 40.6-14 10.2h17.5l2-6.2z"/></g></g><!-- app4joy --></svg>