<svg id="svg2" width="1500" height="1050" viewBox="0 0 1500 1050" xmlns="http://www.w3.org/2000/svg"><g id="layer1" transform="scale(1 1.05)" fill="#10c288"><path id="rect3635" fill="#10c288" d="M0 0h1500v1000H0z"/></g><g id="g18433" transform="matrix(1.1801 0 0 1.175 515.7 235.7)"><path id="path18435" d="M198.6 495c136-32 188-146 188-234V69c-37-18-50-59-50-59h-277s-13 41-50 59v192c0 88 52 202 188 234z" fill="#50b848"/><g id="g18437" fill="#e9c31e" stroke="#9a6104" stroke-linecap="round" stroke-linejoin="round" stroke-width="1.5"><g id="g18439"><path id="path18441" d="M287.3 244c-12-32.1-36.3-46-36.3-46 1-16.2 22-23.7 33.3-20.2 11.3 3.4 22.8 21.5 29.7 34.6 6.9 13 24 13 24 13h0s-13 11.2-9.7 25.5 6.5 35.6.2 45.6-27.2 18.1-38.5 6.5c0 0 9.3-26.4-2.7-58.7z"/><path id="path18443" d="M287 243c-3.6-9.5-12.2-22-12.2-22s6-10.8 15.6-11.6 19.5 8.2 24.1 14.3 12 5.7 12 5.7l.1.4s-5.8 4.5-5.3 12.1c.4 7.7-1.2 21-9 26.6s-19.3 1.4-19.3 1.4-1.7-15.1-5.3-24.7z"/></g><g id="g18445"><path id="path18447" d="M198.6 183.1a93 93 0 0 1 56 18c14.7-6.6 14.4-29 7.2-38.4S233.7 149 219.1 147s-20.6-18-20.6-18h0s-6 16-20.6 18-35.6 6.3-42.7 15.7-7.5 31.8 7.3 38.4c0 0 21.5-18 55.9-18z"/><path id="path18449" d="M199.7 183c10.1 0 25 3.7 25 3.7s7.9-9.3 5.3-18.6-14.4-15.4-21.8-17.6-9.5-9.2-9.5-9.2h-.4s-2.2 7-9.5 9.2-19.3 8.4-21.8 17.6 5.4 18.6 5.4 18.6 14.8-3.6 25-3.6z"/></g><g id="g18451"><path id="path18453" d="M109 244c12-32.2 36.3-46.1 36.3-46.1-1-16.2-22.1-23.7-33.4-20.2-11.3 3.4-22.8 21.5-29.7 34.6-6.9 13-24 13-24 13h0s13 11.2 9.7 25.5-6.4 35.7-.1 45.6 27.2 18.1 38.5 6.5c0 0-9.4-26.4 2.6-58.7z"/><path id="path18455" d="M109.3 243c3.6-9.5 12.1-22 12.1-22s-6-10.8-15.5-11.6-19.5 8.2-24.2 14.3-12 5.7-12 5.7v.4s5.7 4.5 5.3 12.1c-.5 7.7 1.2 21 9 26.6s19.2 1.4 19.2 1.4 1.8-15.1 5.3-24.7z"/></g><g id="g18457"><path id="path18459" d="M142.4 354c-27.7-20.5-34.3-47.8-34.3-47.8-15.8-3.5-28.9 14.7-28.7 26.5s14.4 27.8 25 38 5.8 26.7 5.8 26.7h0s14.3-9.3 27.2-2.1c13 7.1 32.5 16 43.8 12.8 11.3-3.3 25-21.1 17-35.2 0 0-28 1.6-55.7-18.8z"/><path id="path18461" d="M141.5 353.3c-8.2-6-18-17.8-18-17.8s-11.9 2.8-15.3 11.8 2.4 21 7 27.1 2.1 13.1 2.1 13.1l.4.2s6-4.3 13.1-1.7c7.2 2.6 20.5 4.7 28-1.2s6.8-18.2 6.8-18.2-14-5.8-22.3-11.9z"/></g><g id="g18463"><path id="path18465" d="M253.9 354c27.7-20.5 34.3-47.8 34.3-47.8 15.7-3.5 28.8 14.7 28.6 26.5s-14.3 27.8-25 38-5.7 26.7-5.7 26.7h-.1s-14.3-9.3-27.2-2.1c-12.9 7.1-32.4 16-43.7 12.8-11.4-3.3-25-21.1-17-35.2 0 0 28 1.6 55.6-18.8z"/><path id="path18467" d="M254.8 353.3c8.1-6 17.8-17.8 17.8-17.8s12 2.8 15.5 11.8c3.4 8.9-2.5 21-7 27.1s-2.2 13.1-2.2 13.1l-.3.2s-6-4.3-13.2-1.7-20.5 4.7-28-1.2-6.7-18.2-6.7-18.2 14-5.8 22.2-11.9z"/></g><g id="g18469"><g id="g18471"><g id="g18473"><g id="g18475"><circle id="circle18477" cx="184.61" cy="183.26" r="13.793"/><circle id="circle18479" cx="184.61" cy="183.26" r="8.099"/></g><g id="g18481"><circle id="circle18483" cx="161.97" cy="189.52" r="13.793"/><circle id="circle18485" cx="161.97" cy="189.52" r="8.099"/></g><g id="g18487"><circle id="circle18489" cx="142.3" cy="200.24" r="13.793"/><circle id="circle18491" cx="142.3" cy="200.24" r="8.099"/></g><g id="g18493"><circle id="circle18495" cx="127.11" cy="215.14" r="13.793"/><circle id="circle18497" cx="127.11" cy="215.14" r="8.099"/></g><g id="g18499"><circle id="circle18501" cx="114.6" cy="234.2" r="13.793"/><circle id="circle18503" cx="114.6" cy="234.2" r="8.099"/></g><g id="g18505"><circle id="circle18507" cx="106.55" cy="254.46" r="13.793"/><circle id="circle18509" cx="106.55" cy="254.46" r="8.099"/></g><g id="g18511"><circle id="circle18513" cx="103.87" cy="277.11" r="13.793"/><circle id="circle18515" cx="103.87" cy="277.11" r="8.099"/></g></g><g id="g18517"><g id="g18519"><circle id="circle18521" cx="105.93" cy="299.48" r="13.792"/><circle id="circle18523" cx="105.93" cy="299.48" r="8.099"/></g><g id="g18525"><circle id="circle18527" cx="114.11" cy="321.5" r="13.793"/><circle id="circle18529" cx="114.11" cy="321.5" r="8.099"/></g><g id="g18531"><circle id="circle18533" cx="126.5" cy="340.16" r="13.793"/><circle id="circle18535" cx="126.5" cy="340.16" r="8.099"/></g><g id="g18537"><circle id="circle18539" cx="142.65" cy="354.01" r="13.792"/><circle id="circle18541" cx="142.65" cy="354.01" r="8.099"/></g><g id="g18543"><circle id="circle18545" cx="162.72" cy="364.83" r="13.792"/><circle id="circle18547" cx="162.72" cy="364.83" r="8.099"/></g><g id="g18549"><circle id="circle18551" cx="183.6" cy="371.1" r="13.793"/><circle id="circle18553" cx="183.6" cy="371.1" r="8.099"/></g></g></g><g id="g18555"><g id="g18557"><g id="g18559"><circle id="circle18561" cx="212.02" cy="371.1" r="13.793"/><circle id="circle18563" cx="212.02" cy="371.1" r="8.099"/></g><g id="g18565"><circle id="circle18567" cx="234.66" cy="364.84" r="13.793"/><circle id="circle18569" cx="234.66" cy="364.84" r="8.099"/></g><g id="g18571"><circle id="circle18573" cx="254.32" cy="354.12" r="13.793"/><circle id="circle18575" cx="254.32" cy="354.12" r="8.099"/></g><g id="g18577"><circle id="circle18579" cx="269.52" cy="339.22" r="13.793"/><circle id="circle18581" cx="269.52" cy="339.22" r="8.099"/></g><g id="g18583"><circle id="circle18585" cx="282.03" cy="320.16" r="13.793"/><circle id="circle18587" cx="282.03" cy="320.16" r="8.099"/></g><g id="g18589"><circle id="circle18591" cx="290.07" cy="299.9" r="13.793"/><circle id="circle18593" cx="290.07" cy="299.9" r="8.099"/></g><g id="g18595"><circle id="circle18597" cx="292.75" cy="277.25" r="13.793"/><circle id="circle18599" cx="292.75" cy="277.25" r="8.099"/></g></g><g id="g18601"><g id="g18603"><circle id="circle18605" cx="290.7" cy="254.88" r="13.792"/><circle id="circle18607" cx="290.7" cy="254.88" r="8.099"/></g><g id="g18609"><circle id="circle18611" cx="282.51" cy="232.86" r="13.793"/><circle id="circle18613" cx="282.51" cy="232.86" r="8.099"/></g><g id="g18615"><circle id="circle18617" cx="270.13" cy="214.2" r="13.793"/><circle id="circle18619" cx="270.13" cy="214.2" r="8.099"/></g><g id="g18621"><circle id="circle18623" cx="253.98" cy="200.35" r="13.792"/><circle id="circle18625" cx="253.98" cy="200.35" r="8.099"/></g><g id="g18627"><circle id="circle18629" cx="233.9" cy="189.53" r="13.792"/><circle id="circle18631" cx="233.9" cy="189.53" r="8.099"/></g><g id="g18633"><circle id="circle18635" cx="213.03" cy="183.26" r="13.793"/><circle id="circle18637" cx="213.03" cy="183.26" r="8.099"/></g></g></g></g></g><path id="path18639" d="M354.7 88.7c12.7 0 15.4-2.5 15.4-8.2s-6.7-9.5-6.7-9.5c1.9 1.7 1.7 4.6-.7 6.5s-8.6-1.4-8.6-1.4 5.2-.7 5.2-6.2-4.8-7.2-4.8-7.2.6 1 .7 3.4-1 5-3.7 5-4.8-3.5-4.8-3.5 2.4.6 3.4-.7 1.4-4.4-.1-7.6-5.7-3-5.7-3 .7.7.9 2.6-1.9 4-5 2.2-1.1-8.9-2.2-11.7-6.3-3.6-6.3-3.6 1.3 3.3.3 4.7-4.4.7-6-2 2.5-5.6-.4-9.7-7.2-4-7.2-4 .7-.3 2.3 2.1-.9 6.5-4 4-15.3-15.4-15.3-15.4.6-1.9-.8-6.6-9.3-4.2-9.3-4.2 2 1.4 3 4.4-2 3.6-2 3.6H265s1.9-1.6-.4-4.6-7.2-2.8-7.2-2.8 2.3 2.3 2.4 4.4c0 1.5-1.7 3-4.3 3h-22s1.8-2.9-.5-5-8.9-2.4-8.9-2.4 4 3.4 2.9 5.3-3.4 2-3.4 2h-19.7s-1.6-2.5-3-3-2.7-3.5-2.7-3.5-1.3 3.1-2.7 3.6-3 3-3 3h-19.6s-2.3 0-3.4-2 2.8-5.4 2.8-5.4-6.6.3-9 2.4-.3 5-.3 5h-22.1c-2.6 0-4.3-1.5-4.2-3 0-2 2.3-4.4 2.3-4.4s-5-.2-7.2 2.8-.4 4.6-.4 4.6H104s-2.7-.6-1.9-3.6 3-4.4 3-4.4-8-.4-9.4 4.2-.8 6.6-.8 6.6-12.2 12.8-15.3 15.4-5.5-1.6-4-4 2.3-2.1 2.3-2.1-4.4-.1-7.2 4 1.4 7-.3 9.7-5 3.4-6 2 .2-4.7.2-4.7-5 .7-6.2 3.6S59 59.3 56 61s-5-.4-5-2.2 1-2.6 1-2.6-4.2-.3-5.7 3-1.2 6.3-.2 7.6 3.4.7 3.4.7-2.1 3.6-4.8 3.6-3.8-2.7-3.7-5.1.7-3.4.7-3.4-4.8 1.7-4.8 7.2 5.3 6.2 5.3 6.2-6.3 3.4-8.7 1.4-2.5-4.8-.7-6.5c0 0-6.6 3.8-6.6 9.5s2.6 8.2 15.4 8.2z" fill="#ffffff"/><g id="g18641" fill="#f15b5b"><path id="rect18643" d="M169.2 40.8H227v5.7h-57.8z"/><path id="rect18645" d="M172.3 33.6H224v4.5h-51.7z"/><g id="g18647"><g id="g18649"><path id="rect18651" d="M84.5 40.8h39.2v5.7H84.5z"/><path id="rect18653" d="M125.8 40.8h40.7v5.7h-40.7z"/><path id="rect18655" d="M91 33.6h39.1v4.5H91z"/><path id="rect18657" d="M132.5 33.6H169v4.5h-36.5z"/><path id="rect18659" d="M97.9 26.5h38.5v5.2H97.9z"/><path id="rect18661" d="M139.2 26.5h35.2v5.2h-35.2z"/></g><g id="g18663"><path id="rect18665" d="M272.6 40.8h39.1v5.7h-39.1z"/><path id="rect18667" d="M229.8 40.8h40.6v5.7h-40.6z"/><path id="rect18669" d="M266.1 33.6h39.2v4.5h-39.2z"/><path id="rect18671" d="M227.3 33.6h36.5v4.5h-36.5z"/><path id="rect18673" d="M259.9 26.5h38.5v5.2h-38.5z"/><path id="rect18675" d="M221.8 26.5H257v5.2h-35.2z"/></g></g><path id="rect18677" d="M177.7 26.5h40.8v5.2h-40.8z"/><g id="g18679"><g id="g18681"><path id="rect18683" d="M45.5 77.2h43.9v6.3H45.5z"/><path id="rect18685" d="M92.1 77.2h49v6.3h-49z"/><path id="rect18687" d="M144 77.2h52.4v6.3H144z"/><path id="rect18689" d="M54.5 68.8H100v5.5H54.5z"/><path id="rect18691" d="M102.7 68.8h45.4v5.5h-45.4z"/><path id="rect18693" d="M151 68.8h45.4v5.5H151z"/><path id="rect18695" d="M64.1 61.7h42.1v4.5H64.1z"/><path id="rect18697" d="M108.8 61.7h43.5v4.5h-43.5z"/><path id="rect18699" d="M154.5 61.7h41.9v4.5h-41.9z"/><path id="rect18701" d="M69.9 55.4h43.2v4.1H69.9z"/><path id="rect18703" d="M115.5 55.4h43.3v4.1h-43.3z"/><path id="rect18705" d="M161.4 55.4h35v4.1h-35z"/><path id="rect18707" d="M77 49.1h41.8v4.1H77z"/><path id="rect18709" d="M121.6 49.1h40.3v4.1h-40.3z"/><path id="rect18711" d="M165.7 49.1h30.7v4.1h-30.7z"/></g><g id="g18713"><path id="rect18715" d="M306.9 77.2h43.9v6.3h-43.9z"/><path id="rect18717" d="M255.1 77.2h49.1v6.3h-49.1z"/><path id="rect18719" d="M199.9 77.2h52.3v6.3h-52.3z"/><path id="rect18721" d="M296.3 68.8h45.4v5.5h-45.4z"/><path id="rect18723" d="M248.1 68.8h45.5v5.5h-45.5z"/><path id="rect18725" d="M199.9 68.8h45.4v5.5h-45.4z"/><path id="rect18727" d="M290.1 61.7h42v4.5h-42z"/><path id="rect18729" d="M244 61.7h43.5v4.5H244z"/><path id="rect18731" d="M199.9 61.7h41.8v4.5h-41.8z"/><path id="rect18733" d="M283.1 55.4h43.3v4.1h-43.3z"/><path id="rect18735" d="M237.5 55.4h43.3v4.1h-43.3z"/><path id="rect18737" d="M199.9 55.4h34.9v4.1h-34.9z"/><path id="rect18739" d="M277.5 49.1h41.7v4.1h-41.7z"/><path id="rect18741" d="M234.3 49.1h40.3v4.1h-40.3z"/><path id="rect18743" d="M199.9 49.1h30.6v4.1h-30.6z"/></g></g></g><circle id="circle18745" cx="198.12" cy="277.44" r="94.314" fill="#ffffff"/><path id="path18747" d="M105 291.8h186s2.4-18 .5-24.3c0 0-19.7.6-37-6.8S216.7 243.4 212 240s-4.4-5.5-8.4-4-5.7 5.4-8.5 4.4-4.8-4.2-8.4-3.6-5.9 5.3-18.2 9.7-24.7 9.9-30.8 12-21.3 10-25 10.4-8.8 1.4-8.8 1.4-.2 16.5 1 21.4" fill="#39bb9d"/><g id="g18749"><path id="path18751" d="M180.6 243.3s3.5-6 7-6 4.7 4.2 9 3.5 4.4-4.7 8.7-4.4 10.7 8 10.7 8v-21h-35.4z" fill="#ffffff"/><path id="path18753" d="M180.6 235.3s3.5-6 7-6 4.7 4.1 9 3.5 4.4-4.8 8.7-4.4 10.7 8 10.7 8v-13h-35.4z" fill="#ed1c24"/></g><g id="g18755" fill="#ffffff" stroke="#000000" stroke-linecap="round" stroke-linejoin="round" stroke-width="2"><path id="path18757" d="M171.1 207.5h7.8v-8.7a3.9 3.9 0 1 0-7.8 0z"/><path id="path18759" d="m229.4 274-3.4-66.5h-10.3v8.8h0v-5a3.9 3.9 0 0 0-7.9 0v5h-19.4v-5a3.9 3.9 0 1 0-7.8 0v5h0v-8.8h-10.4l-3.4 66.6h-63s-.1 3.9.3 9.3a78 78 0 0 0 4.5 22.6h1.1v-4.4c0-4.6 4-8.4 9-8.4h9.3c5 0 9 3.8 9 8.4v4.4h9.4v-4.4c0-4.6 4-8.4 9-8.4h9.3c5 0 9 3.8 9 8.4v4.4h6.9v-82.7h35V306h7v-4.4c0-4.6 4-8.4 9-8.4h9.2c5 0 9 3.8 9 8.4v4.4h9.4v-4.4c0-4.6 4-8.4 9-8.4h9.3c5 0 9 3.8 9 8.4v4.4h1.1a78 78 0 0 0 4.5-22.6c.5-5.4.1-9.3.1-9.3z"/><path id="path18761" d="M217.4 207.5h7.7v-8.7a3.9 3.9 0 0 0-7.7 0z"/></g><g id="g18763" stroke="#000000"><g id="g18765"><path id="polygon18767" fill="#ffffff" d="M170.2 207.5h10.4v66.6h-13.7z"/><g id="g18769"><path id="path18771" d="M104 283.4a78 78 0 0 0 4.6 22.6h1.1v-4.4c0-4.6 4-8.4 9-8.4h9.3c5 0 9 3.8 9 8.4v4.4h9.4v-4.4c0-4.6 4-8.4 9-8.4h9.3c5 0 9 3.8 9 8.4v4.4h6.9v-22.6z" fill="#ffffff"/><path id="path18773" d="M180.6 274h-76.7s-.2 4 .2 9.4h76.5z" fill="#ed1c24"/></g><path id="line18775" fill="none" d="M114.6 274v9.4"/><path id="line18777" fill="none" d="M127.2 274v9.4"/><path id="line18779" fill="none" d="M139.7 274v9.4"/><path id="line18781" fill="none" d="M152.3 274v9.4"/><path id="line18783" fill="none" d="M164.8 274v9.4"/><path id="path18785" d="M178.9 207.5v-8.7a3.9 3.9 0 1 0-7.8 0v8.7z" fill="#ffffff"/><path id="line18787" fill="none" d="M171.1 201h7.8"/><path id="line18789" fill="none" d="M171.1 205.4h7.8"/><path id="line18791" fill="none" d="M170 210h10.5"/><path id="line18793" fill="none" d="M169.5 222.8h11"/><path id="line18795" fill="none" d="M169 233.7h11.5"/><path id="line18797" fill="none" d="M168.4 244.6h12.1"/><path id="line18799" fill="none" d="M167.8 255.4h12.7"/><path id="line18801" fill="none" d="M167.3 266h13.2"/><g id="g18803" fill="#ffffff"><path id="path18805" d="M188.4 216.3v-5a3.9 3.9 0 1 0-7.8 0v5z"/><path id="rect18807" d="M180.6 216.3h17.5v7h-17.5z"/></g></g><g id="g18809"><path id="polygon18811" fill="#ffffff" d="M226.1 207.5h-10.4v66.6h13.7z"/><g id="g18813"><path id="path18815" d="M292.2 283.4a78 78 0 0 1-4.5 22.6h-1.2v-4.4c0-4.6-4-8.4-9-8.4h-9.2c-5 0-9 3.8-9 8.4v4.4h-9.5v-4.4c0-4.6-4-8.4-9-8.4h-9.2c-5 0-9 3.8-9 8.4v4.4h-7v-22.6z" fill="#ffffff"/><path id="path18817" d="M215.7 274h76.5s.4 4 0 9.4h-76.5z" fill="#ed1c24"/></g><path id="line18819" fill="none" d="M281.7 274v9.4"/><path id="line18821" fill="none" d="M269.1 274v9.4"/><path id="line18823" fill="none" d="M256.5 274v9.4"/><path id="line18825" fill="none" d="M244 274v9.4"/><path id="line18827" fill="none" d="M231.4 274v9.4"/><path id="path18829" d="M217.4 207.5v-8.7a3.9 3.9 0 1 1 7.7 0v8.7z" fill="#ffffff"/><path id="line18831" fill="none" d="M225.2 201h-7.9"/><path id="line18833" fill="none" d="M225.2 205.4h-7.9"/><path id="line18835" fill="none" d="M226.2 210h-10.4"/><path id="line18837" fill="none" d="M226.7 222.8h-10.9"/><path id="line18839" fill="none" d="M227.2 233.7h-11.4"/><path id="line18841" fill="none" d="M227.8 244.6h-12"/><path id="line18843" fill="none" d="M228.4 255.4h-12.6"/><path id="line18845" fill="none" d="M229 266h-13.2"/><g id="g18847" fill="#ffffff"><path id="path18849" d="M207.8 216.3v-5a3.9 3.9 0 1 1 7.8 0v5z"/><path id="rect18851" d="M198.1 216.3h17.6v7h-17.6z"/></g></g></g><g id="g18853" fill="#5da9dd"><path id="path18855" d="M112.3 312s-1.8-7.9-.1-12 6.7-1.5 9.4-1c0 0 5.4.6 7.7 0s4.8-.4 5.5 1.2.7 6.7.7 6.7l3 2.9s-.3 2.8-1.8 4.1-1.3 2.9-2.7 3.8-2.7 2.3-1.6 5.8 1 5.7-.7 9-3.1 3.3-4.7 3-5.7-4.2-8.7-9.5-5.6-10.5-6-14"/><path id="path18857" d="M147.4 303c0-.4.3-4.2 3-5.5s3.7 1.9 8.2 0 9.6-2.2 11.8 1.1 2.2 6.7 1.8 10.1-2.6 9-5.8 11.4-4.9 3.2-7.8 2.9-5.1.2-7-2.9-3.2-6.3-5.6-6.2-5 .3-4.3 2.1 3.2 3 0 3.5-6-1.3-5.4-2.5 3.3-3.6 3.3-5.1.7-3.8 3.5-4 4.7.4 4.3-5"/><path id="path18859" d="M174.2 307.7s3.4.7 5.6-.2 3-1.3 3.4.8-.9 7.2-2.8 8-3.4 1.9-4.7.9-3.5-3.7-3-5.8.5-2.7 1.5-3.7"/><path id="path18861" d="M182.2 303.7c-1.2-1.7-1.6-6.2 0-7.6s7.4.5 11.3.5 7.2-1.4 9-1.4 3 .7 5.6.7 6.2.2 6.2 3.2-2 5-3.6 7-4 5.7-3 8.4 4.9 7 3.2 7.6-3.5-2-7.7-2.5-8.5 1.6-11.7 2-7.3-.7-8.4-2.4.3-4.4 1-7.8-.7-6-1.9-7.7"/><path id="path18863" d="M211 308s3-1.5 5.7-.3 5 3.8 5.1 6.9-.4 4.5-3 4.8-6.6 0-8.1-1.8-2.3-3.2-1.6-6 .6-2.4 2-3.6"/><path id="path18865" d="M222.3 310.4c-.4-1.6-2.1-1.8-.6-3s2-1 1.8-2.4-1.7-6.8 1.6-7 7.1-.2 10.7-.6 10.4-.6 11.7 1.6 1.2 4.4 1 6.5-.8 6.3-1.7 7.6-5.2 4.1-5.2 6.6-5-1.3-6.4.3-4.6 5.5-8 2.3-3.7-8.7-4.1-10z"/><path id="path18867" d="M259.7 305.8c-.1-.4-.7-4.4.7-6.2s3.8-4 7.5-3.7 9.7 1 11.7 1 5.3 2.2 5.2 5.3 0 8.3-1.4 11.5-4.3 5.9-6 6.4-2.7 1.3-2.7 3.3-.4 4.6-2.8 4-2.5-3.2-5.4-6.6-7.6-7-7.6-9 1.3-3.4.8-6"/><path id="path18869" d="M249.5 308.2c.6-.7 5.6-1.1 7.1-.4s2.8 4.8 1.4 7.5-.4 4.3-2.7 4.5-5.4 0-6.2-1.5-2-3.7-1.3-5.2 1-4 1.7-5"/><path id="path18871" d="M264.6 322.8c1.8-.7 7 4.3 7 7.8s-1 6-3.6 5.3-5.2-3.7-5.2-5.9-.5-6.4 1.8-7.2"/><path id="path18873" d="M244.8 322.6c1.2-1.2 10-2 12.3-1.2s6.6 13.3 5.8 17.9-7.4 12-9.3 12.2-6.2-.1-5.5-3.8 4-8.6.2-10.8-6.8-11-3.6-14.3"/><path id="path18875" d="M134.5 323c1.3-1.3 5-3.5 9.3-1.1s7.4 9.4 6.9 15.1-2.8 10.8-5.6 11.7-11.7-4.4-13.5-7.2-2.3-4.8-.2-6.8 3.8-3 3.4-6.2-1.4-4.3-.3-5.4"/><path id="path18877" d="M157.6 324.4c3.3.3 10 .9 10.6 4.5s-6.9 10.7-6.5 17.2 1.5 12.3 0 14-3.7 1-5.7.2-9.6-5.8-8.2-10.6 4.6-7.5 4-13.6-1.3-8.8.3-10 3-2 5.5-1.7"/><path id="path18879" d="M176.2 318.5c1.7 0 8.2 1.5 11 6.6s-6.4 16.7-5.1 24.5c1.2 7.4 1.4 15.8-1 17.3s-9.2 0-11.4-3.1-8-10.4-7-17.7 5.2-12.3 6.8-15.2 1.7-6.6 2.2-8.6 1.5-3.8 4.5-3.8"/><path id="path18881" d="M202.8 321c-3.4-.6-11.1 4-15 12.2s-4.3 11.5-3.5 19 4.3 15.7 10 17.5 12-.7 15-8.2 1.7-13.3-1.6-19-3.6-6.7-.7-11.7 2.5-8.6-4.2-9.8"/><path id="path18883" d="M214.8 321.4c4.6-1.8 12.2 7.3 14 13.5s-1 26.7-5.7 29.7-10 5.6-11.8 3.8-2.7-4.1-1.1-6.8 6-11.2 1.6-18-5-10-3-14.5 2.3-6.1 6-7.7"/><path id="path18885" d="M231.2 325s-4 1.6-3.2 5 3 7.8 2.5 11.7-1.4 16.2.6 18.6 8.5.8 12.1-3.6 4.8-11.5 5.5-13.8-1.7-5.7-3.3-7.6-2.6-8.6-3.4-10-4-4.7-6.2-3.5-4.1 2.4-4.6 3.1"/></g><g id="g18887" fill="#ffffff"><path id="path18889" d="m92.8 424.3 10-15 7.2 4.8q2.5 1.7 2.8 3.8.3 1.7-.7 3.1a4 4 0 0 1-2.2 1.8q-.6.2-1.7 0 1 1.5.8 2.8 0 1.2-1 2.4a5 5 0 0 1-5.4 2.2q-1.4-.3-3.5-1.7zm7.4-4.6-2.7 4 3.8 2.5q1.2.8 2.2.7t1.7-1.3q.6-.9.3-1.8-.4-.8-1.3-1.5zm3.8-5.8-2.1 3.3 3.6 2.4q1 .6 1.8.7 1 0 1.5-.9t.3-1.6a4 4 0 0 0-1.5-1.5z"/><path id="path18891" d="m129 424.4-1.4 2.9-8.5-4.2-1.7 3.3 7.8 3.9-1.4 2.8-7.8-3.8-2 4.2 8.9 4.4-1.4 2.8-12.3-6 8-16.1z"/><path id="path18893" d="m125.4 442.3 6-16.9 8.6 3a6 6 0 0 1 3.2 2.5q1.3 2 .4 4.2-.5 1.4-1.6 2.3-1 1-2.4.8 1 1 1.1 1.8.3 1-.5 3.3l-.8 2.6q-.1.7.3 1l-.1.5-4-1.4a11 11 0 0 1 .9-3.6q.7-1.8.5-2.6-.3-.9-2.1-1.5l-3.7-1.3-2.3 6.6zm6.8-8.2 4.2 1.5q1.5.5 2.2.2.9-.3 1.3-1.6.3-.7.1-1.6-.3-1-1.7-1.4l-4.4-1.6z"/><path id="path18895" d="m144 442.9 3.5.8q-.3 1 .2 2 .6 1.2 2.8 1.7a6 6 0 0 0 2.6.2 2 2 0 0 0 1.6-1.5q.2-1-.5-1.7l-2.2-1.3-1.7-.9q-2.7-1.3-3.5-2.2-1.4-1.7-.8-4.2.5-2 2-3.1 2.3-1.6 6-.7 3.6.9 4.9 3.3 1 2 .5 4l-3.5-.8a3 3 0 0 0-.2-1.8q-.6-1.2-2.7-1.7-1.2-.3-2.2 0t-1.4 1.3q-.1.9.3 1.6l1.2.7 4 2q2 1.2 2.8 2.2 1.1 1.5.6 3.7-.6 2.6-2.7 3.7a8 8 0 0 1-5.6.3q-4.2-1-5.6-3.5a6 6 0 0 1-.4-4.1"/><path id="path18897" d="m165.2 449.3-1.8 3.5-4-.6 9-16.9 4.2.6 3.8 18.7-4-.6-.7-3.8zm1.4-3 4.5.7-1.2-7.4z"/><path id="path18899" d="m188 440.4-.7 14.8-3.7-.2.7-14.8-5.4-.3.2-3.1 14.5.7-.1 3.2z"/><path id="path18901" d="m209.6 437 .4 11.7q0 3.4-1.8 5.2-1.9 1.6-5.4 1.8-1.5 0-2.8-.3a6 6 0 0 1-3-1.7q-1.4-1.5-1.5-4.3l-.4-11.9 3.8-.1.4 11.6q0 1.8 1 2.7a3 3 0 0 0 2.3.8q2 0 2.8-1 .8-.8.7-2.5l-.3-11.8z"/><path id="path18903" d="m227.3 438 2.3 14.5-3.7.6-2.4-14.5-5.3.8-.5-3.1 14.4-2.4.5 3.2z"/><path id="path18905" d="m246.4 430.3.8 3-9.2 2.4 1 3.7 8.4-2.2.8 3-8.5 2.3 1.2 4.5 9.6-2.5.8 3-13.2 3.5-4.5-17.4z"/><path id="path18907" d="m260.9 437-1.1-2.8 7-2.6 3.4 9-2.3.9-1.2-2-1.1 2.4q-1.1 1.5-3.1 2.2-3.2 1.2-6.2-.2a10 10 0 0 1-4.9-5.7 10 10 0 0 1-.3-6.9q1.1-3.6 5.1-5 3.6-1.4 6.4-.3 2.4 1 3.2 3l-3.5 1.4q-.3-.8-1.5-1.3a4 4 0 0 0-3.3 0 5 5 0 0 0-2.8 2.6q-.7 2.2.3 5.2 1.3 3.1 3.3 4a5 5 0 0 0 3.8 0q1-.5 1.8-1.4 1.2-1.5.9-4z"/><path id="path18909" d="m279 416 5.4 10.3q1.6 3.1.7 5.5-1 2.3-4 4l-2.8 1q-1.8.2-3.3-.3a6 6 0 0 1-3.3-3.2l-5.5-10.6 3.4-1.7 5.4 10.3q.8 1.5 2 2c1.2.4 1.6.1 2.5-.3q1.6-1 2-2 .3-1.4-.4-2.7l-5.5-10.5z"/><path id="path18911" d="m295.8 416.6-5.8 4 4.6 6.6-3 2.2-10.3-14.7 3-2.2 4 5.6 5.7-4-4-5.6 3.1-2.2 10.3 14.7-3 2.2z"/></g><g id="g18913" fill="#ffffff"><path id="path18915" d="M31.5 119.5h4.6q0 1.7.8 3 1.3 1.6 4 1.6 2.1 0 3.3-.7 1.6-.9 1.6-3 0-1.5-1.2-2.4l-3-1.2-2.4-.7q-3.8-1-5-2.2-2.4-2-2.3-6.2 0-3.2 1.6-5.6 2.3-3.2 7.2-3.2 4.7 0 7.1 3.3a10 10 0 0 1 1.9 6H45q0-1.8-.8-2.7-1-1.7-3.9-1.7-1.6 0-2.6.7-1.4.9-1.4 2.7 0 1.5.9 2.3.4.4 1.6.7l5.6 1.8q2.8.9 4.2 2.2 1.8 2 1.8 5.5 0 4.3-2.3 6.7a9 9 0 0 1-6.8 2.7q-5.6 0-8-3.4a10 10 0 0 1-1.8-6.2"/><path id="path18917" d="M72.4 99.6v18.7q0 5.5-2.5 8.2-2.4 2.6-6.9 2.6a10 10 0 0 1-3.7-.6 8 8 0 0 1-3.6-2.9q-1.8-2.5-1.8-7v-19h5v18.7q0 2.8 1 4.3 1.2 1.5 3 1.4 2.4 0 3.5-1.4 1.1-1.5 1.1-4v-19z"/><path id="path18919" d="M99.2 99.6v28.7h-4.5v-24l-4.3 24h-4.7l-4.2-24-.1 24h-4.5V99.6h7l4.2 22.7 4.2-22.7z"/><path id="path18921" d="m108.7 122.4-1.6 6H102l8.2-28.8h5.6l8 28.7h-5.2l-1.5-5.9zm1.2-5h5.9l-2.9-11.3z"/><path id="path18923" d="M136.7 104.7v23.6h-4.8v-23.6h-7v-5h18.7v5z"/><path id="path18925" d="M163.4 99.6v5h-12.2v6.1h11.2v5.1h-11.2v7.5h12.7v5h-17.4V99.6z"/><path id="path18927" d="M167.8 128.3V99.6h11.6q3.2 0 5 1.9a9 9 0 0 1 2.2 6.2q0 2.4-1 4.3a5 5 0 0 1-2.5 2.6q1.6.9 2.2 2 .7 1.5.7 5.2l.1 4.4q.1 1 1 1.4v.7h-5.4a21 21 0 0 1-.5-5.8q0-3.3-.5-4.2-.8-1.2-3.2-1.2h-5v11.2zm4.7-16h5.6q2 0 2.8-1c.8-1 1-1.6 1-3q0-1.5-.7-2.4-.8-1.3-2.7-1.3h-6z"/><path id="path18929" d="m195.8 122.4-1.6 6H189l8.2-28.8h5.6l8 28.7h-5.2l-1.5-5.9zm1.2-5h5.9l-2.9-11.3z"/><path id="path18931" d="M221.7 119.5h4.6q0 1.7.9 3 1.2 1.6 4 1.6 2 0 3.2-.7 1.5-.9 1.6-3 0-1.5-1.2-2.4l-3-1.2-2.4-.7q-3.8-1-5-2.2-2.3-2-2.3-6.2 0-3.2 1.6-5.6 2.3-3.2 7.2-3.2 4.7 0 7.1 3.3a10 10 0 0 1 1.9 6h-4.7q0-1.8-.8-2.7-1-1.7-3.9-1.7-1.6 0-2.6.7-1.4.9-1.4 2.7 0 1.5.9 2.3.4.4 1.6.7l5.6 1.8q2.9.9 4.2 2.2 1.8 2 1.8 5.5 0 4.3-2.3 6.7a9 9 0 0 1-6.8 2.7q-5.6 0-8-3.4a10 10 0 0 1-1.8-6.2"/><path id="path18933" d="M261.1 99.6v5H249v6.1h11.2v5.1H249v7.5h12.8v5h-17.5V99.6z"/><path id="path18935" d="M270.4 99.6v23.5h11.4v5.2h-16.2V99.6z"/><path id="path18937" d="m290 122.4-1.6 6h-5l8.2-28.8h5.5l8 28.7H300l-1.5-5.9zm1.3-5h5.8l-2.8-11.3z"/><path id="path18939" d="M316.3 104.7v23.6h-4.8v-23.6h-7v-5h18.7v5z"/><path id="path18941" d="m328 122.4-1.6 6h-5l8.2-28.8h5.5l8 28.7H338l-1.5-5.9zm1.3-5h5.8l-2.8-11.3z"/><path id="path18943" d="M360.3 99.6h4.4v28.7H360l-9.3-20.4-.1 20.4H346V99.6h5l9.2 20z"/></g><circle id="circle18945" cx="198.12" cy="277.44" r="94.314" fill="none" stroke="#9a6104" stroke-linecap="round" stroke-linejoin="round" stroke-width="2"/></g><!-- app4joy --></svg>