<svg id="svg2" height="1050" width="1500" y="0.00000000" x="0.00000000" viewBox="0 0 1500 1050" xmlns="http://www.w3.org/2000/svg"><g transform="scale(1 1.05)" id="layer1" fill="#3771c8" stroke="none"><path id="rect3635" d="M0 0h1500v1000H0z" fill="#3771c8" fill-opacity="1" stroke="none"/></g><g id="g3847" transform="matrix(1.0482 0 0 1.10133 515.9 273)"><g id="g3849"><path id="polygon3851" d="M99.9 403.8H346l76-234.1L222.9 25.1 23.8 169.7z" fill="#ffffff"/><path id="path3853" d="M346.3 404.3H99.5L23.2 169.5l.3-.2L223 24.4l.3.3 199.4 144.8-.1.4zm-246-1h245.3l75.8-233.4L223 25.7 24.4 169.9Z"/></g><g id="g3855"><g id="g3857"><path id="polygon3859" d="M422 169.8 222.9 25.1 23.8 169.7l.2.4 198.6 64.2z" fill="#fff200"/></g><g id="g3861"><path id="polygon3863" d="m24 170.1 75.9 233.6 122.4-169.5z" fill="#d1b555"/></g><g id="g3865"><path id="polygon3867" d="M222.3 234.2 99.9 403.7v.1H346l.1-.4z" fill="#00ab4e"/></g><g id="g3869"><path id="polygon3871" d="m222.6 234.3-.3-.1 123.8 169.2L422 169.8z"/></g></g><g id="g3873"><path id="path3875" d="m311.7 238-2.8-1v-1.2a9.5 9.5 0 0 0 2.2-17.6 10 10 0 0 0-4.8-1.1l-.2-1a9.5 9.5 0 0 0-5.5-18h-.5l-.3-.8a9.5 9.5 0 0 0-10-16.1l-.7-1a9.5 9.5 0 0 0-8.8-15.5q-2.6.5-4.5 2l-1.1-1a9.5 9.5 0 0 0-16.1-10l-.3.4-.8-.3a9.5 9.5 0 0 0-18.5-4.5h-1.2a9.5 9.5 0 0 0-17.1-4.9q-1.5 2.1-1.9 4.7h-1a9.5 9.5 0 0 0-18.5 2.8v.5l-1 .2a9.5 9.5 0 0 0-17.4 7.5l-1 .6a9.5 9.5 0 0 0-15.2 11.3l-1.6 1.4a9.5 9.5 0 0 0-11.5 15l-.6 1.2a9.5 9.5 0 0 0-8 17.2l-.3.8a9.5 9.5 0 0 0-5.3 18.1l.5.2-.2.7a9.5 9.5 0 0 0-.3 19h.4l.1.9a9.5 9.5 0 0 0 5.1 18.3l.5 1.1a9.5 9.5 0 0 0 9 16.7l.6.8a9.5 9.5 0 0 0 11.5 14.9l.4-.2.6.6a9.5 9.5 0 0 0 15 11.7l1 .6a9.5 9.5 0 0 0 13.7 11.4q2.3-1.4 3.6-3.5l1.3.5a9.5 9.5 0 0 0 18.6 3.7l.2-.5h.9a9.5 9.5 0 0 0 18.8-2.3l1.2-.3a9.5 9.5 0 0 0 17.8-6.5l.8-.5a9.5 9.5 0 0 0 16.5-9.2l-.2-.4.8-.5a9.5 9.5 0 0 0 13.6-13.2l.8-1a9.5 9.5 0 0 0 10.3-15.8l.2-.3a9.5 9.5 0 0 0 6.9-17.5l-.4-.2.2-1a9.5 9.5 0 0 0 4.5-17.8" fill="#ffffff"/><path id="path3877" d="M229.2 333.6a11 11 0 0 1-9.8-6 11 11 0 0 1-12.8 5.4 11 11 0 0 1-7.9-9.4 11 11 0 0 1-8 3.5 11 11 0 0 1-11-12l-.7.4a11 11 0 0 1-15.9-13 11 11 0 0 1-12.8-5.2 11 11 0 0 1 0-10.6h-2.9a11 11 0 0 1-6.7-18.3h-.8a11 11 0 0 1-5-20 11 11 0 0 1-.2-20.6 11 11 0 0 1-3.3-13.3 11 11 0 0 1 8.5-6.4 11 11 0 0 1 9-18.5l-.4-.7a11 11 0 0 1 14.2-15.4 11 11 0 0 1 10.1-15.4q3.4 0 6.2 2v-1a11 11 0 0 1 19-7.5 11 11 0 0 1 20-3.6 11 11 0 0 1 10.3-6.9 11 11 0 0 1 10.4 7.4l.5-.7a11 11 0 0 1 15.4-2.2 11 11 0 0 1 4.4 7.5 11 11 0 0 1 13.8-.5 11 11 0 0 1 4 11.7 11 11 0 0 1 15.8 8.3 11 11 0 0 1-1 6.4l2.5-.3a11 11 0 0 1 8.7 17.8 11 11 0 0 1 10 9.4 11 11 0 0 1-3.6 10 11 11 0 0 1 2.5 20.5 11 11 0 0 1 6 6.9 11 11 0 0 1-7.6 13.8 11 11 0 0 1 2.5 13.6 11 11 0 0 1-9 5.7q.7 1 1 2a11 11 0 0 1-12.8 14.6l.3.8a11 11 0 0 1-6.4 14.2q-4.5 1.5-8.7-.4a11 11 0 0 1-17.5 10.4q0 1.5-.5 2.8a11 11 0 0 1-19 4l-.2.8a11 11 0 0 1-10.6 8M219 323.1h1q1 .2 1.3 1.2a8 8 0 0 0 15.9-2q0-1.1 1.1-1.5l1.2-.3q1.1-.2 1.8.8a8 8 0 0 0 15-5.5q-.4-1.1.7-1.7l.9-.4q1-.5 1.8.4a8 8 0 0 0 9.2 2.6 8 8 0 0 0 4.7-10.3l-.1-.2v-.2q-.5-1.1.4-1.8l.8-.6q1-.5 1.8.1a8 8 0 0 0 8.1 1.5 8 8 0 0 0 4.7-10.4l-1.2-2.1q-.7-1 0-1.9l.7-1q.9-.8 1.9-.4a8 8 0 0 0 8.7-13.4q-.9-.7-.4-1.8l.1-.2q.6-1 1.8-.8l2 .3a8 8 0 0 0 3.6-15.2h-.2q-1-.7-.8-1.8l.2-1q.4-1 1.5-1a8 8 0 0 0 1.5-16q-1.1-.2-1.3-1.4V236q0-1.2 1.1-1.5a8 8 0 0 0 1.9-14.9 8 8 0 0 0-3.8-1h-.3q-1 0-1.5-1l-.2-1q-.2-1.1.8-1.7a8 8 0 0 0 4.5-8.4 8 8 0 0 0-9-6.8h-.5q-1.2.2-1.6-.8l-.4-.9q-.3-1 .5-1.8a8 8 0 0 0-8.4-13.6q-1 .5-1.8-.4l-.8-1q-.6-.9 0-1.9a8 8 0 0 0-11.2-11.3q-.9.6-1.9 0l-1-1q-1-.7-.5-1.8a8 8 0 0 0-7-11.7 8 8 0 0 0-6.5 3.3l-.1.1-.2.2q-.7 1-1.8.5l-.8-.3q-1-.6-1-1.6a8 8 0 0 0-15.5-3.8q-.4 1.1-1.5 1l-1.3-.1q-1.2-.1-1.3-1.3a8 8 0 0 0-14.4-4 8 8 0 0 0-1.6 3.8q-.1 1.1-1.3 1.4h-1q-1.1.1-1.5-1a8 8 0 0 0-13.4-3.3 8 8 0 0 0-2.3 5.6v.4q0 1.2-1.2 1.5l-.9.3q-1 .1-1.6-.8a8 8 0 0 0-14.7 6.3q.3 1.1-.7 1.8l-1 .6q-1.2.6-2-.3a8 8 0 0 0-13.9 5.4 8 8 0 0 0 1.2 4.1q.4 1.1-.3 2l-1.6 1.3q-.8.7-1.8.2a8 8 0 0 0-9.7 12.7q.9.8.3 1.8l-.6 1.1q-.7 1-1.8.7a8 8 0 0 0-6.7 14.4q.9.7.6 1.8l-.3 1q-.6 1-1.6.9a8 8 0 0 0-8.4 4.6 8 8 0 0 0 4 10.7h.2l.1.1q1 .6 1 1.7l-.2.7q-.2 1.1-1.3 1.2a8 8 0 0 0-.3 16h.4q1.2.1 1.3 1.3l.1 1q.1 1-1 1.5a8 8 0 0 0 4.3 15.4q1.1 0 1.7.9l.5 1.2q.4 1-.5 1.8a8 8 0 0 0 3.4 14.5 8 8 0 0 0 4.2-.5q1-.4 1.8.5l.5.8q.6 1-.1 1.9a8 8 0 0 0 9.7 12.6l.1-.1.2-.1q1-.6 1.9.2l.6.7q.7.9.2 1.8a8 8 0 0 0 12.6 9.8q.8-.8 1.8-.2l1.1.6q1 .7.7 1.8a8 8 0 0 0 14.5 6.6q.5-1 1.8-.6l1.3.5q1.1.4 1 1.5a8 8 0 0 0 8 9 8 8 0 0 0 7.7-5.9v-.3q.5-1.1 1.6-1.2" fill="#9a6104"/></g><g id="g3879"><g id="g3881"><path id="path3883" d="M358.3 420.8H87.5L3.8 163.2 223 4.1l219 159.1Zm-258.4-17h246l76.1-234L223 25 23.7 169.7Z" fill="#ccdde7"/><path id="path3885" d="M358.3 421.8H87.5a1 1 0 0 1-1-.7L3 163.5a1 1 0 0 1 .4-1l219-159.3a1 1 0 0 1 1.2 0l219 159.2q.6.5.5 1.1l-83.7 257.6a1 1 0 0 1-1 .7m-270-2h269.3l83.2-256.2L223 5.3 5 163.6Zm257.7-15H99.9a1 1 0 0 1-1-.7L23 170a1 1 0 0 1 .3-1.2l199-144.5a1 1 0 0 1 1.2 0l199.1 144.6q.6.5.4 1.1l-76 234a1 1 0 0 1-1 .8m-245.4-2h244.6L420.8 170 223 26.3 25 170.1Z" fill="#808285"/></g></g><g id="g3887"><g id="g3889"><g id="g3891"><g id="g3893"><g id="g3895"><path id="path3897" d="M182.4 169.1a9.5 9.5 0 1 0-19.1 0 9.5 9.5 0 0 0 19 0m-14.8 0a5.3 5.3 0 1 1 10.5 0 5.3 5.3 0 0 1-10.5 0" fill="#e9c31e"/><path id="path3899" d="M172.8 179.4a10.3 10.3 0 0 1 0-20.6 10.3 10.3 0 0 1 0 20.6m0-19a8.7 8.7 0 0 0-8.7 8.7 8.8 8.8 0 1 0 8.7-8.8m0 14.7a6 6 0 1 1 0-12 6 6 0 0 1 0 12m0-10.5a4.5 4.5 0 1 0 0 9 4.5 4.5 0 0 0 0-9" fill="#9a6104"/></g><g id="g3901"><path id="path3903" d="M199.5 159.2a9.5 9.5 0 1 0-19 0 9.5 9.5 0 0 0 19 0m-14.7 0a5.3 5.3 0 1 1 10.5 0 5.3 5.3 0 0 1-10.5 0" fill="#e9c31e"/><path id="path3905" d="M190 169.4a10.3 10.3 0 0 1 0-20.5 10.3 10.3 0 0 1 0 20.5m0-19a8.7 8.7 0 0 0-8.8 8.8 8.8 8.8 0 1 0 8.8-8.8m0 14.8a6 6 0 1 1 0-12 6 6 0 0 1 0 12m0-10.5a4.5 4.5 0 1 0 0 9 4.5 4.5 0 0 0 0-9" fill="#9a6104"/></g><g id="g3907"><path id="path3909" d="M218.3 154a9.5 9.5 0 1 0-19 0 9.5 9.5 0 0 0 19 0m-14.8 0a5.3 5.3 0 1 1 10.5 0 5.3 5.3 0 0 1-10.5 0" fill="#e9c31e"/><path id="path3911" d="M208.8 164.2a10.3 10.3 0 0 1 0-20.5 10.3 10.3 0 0 1 0 20.5m0-19a8.7 8.7 0 0 0-8.8 8.7 8.8 8.8 0 1 0 8.8-8.7m0 14.7a6 6 0 1 1 0-12 6 6 0 0 1 0 12m0-10.5a4.5 4.5 0 1 0 0 9 4.5 4.5 0 0 0 0-9" fill="#9a6104"/></g><g id="g3913"><path id="path3915" d="M178.1 168.5c-.8.6-2 .3-2.5-.6l-.2-.4c-.5-.8-.3-2 .6-2.5l8.8-5.2q1.5-.8 2.5.6l.3.4c.5.8.2 2-.7 2.5z" fill="#e9c31e"/><path id="path3917" d="M177.2 169.6q-1.6 0-2.2-1.3l-.3-.4a2.6 2.6 0 0 1 1-3.5l8.7-5.3c1.2-.7 2.9-.3 3.6.9l.2.4a2.6 2.6 0 0 1-.9 3.5l-8.8 5.3q-.6.3-1.3.4m8.6-9.4-.6.2-8.8 5.3a1 1 0 0 0-.4 1.4l.3.4q.6.8 1.5.4l8.7-5.3a1 1 0 0 0 .4-1.5l-.2-.3a1 1 0 0 0-1-.6" fill="#9a6104"/></g><g id="g3919"><path id="path3921" d="M195.2 159.6c-1 .3-2-.3-2.2-1.3l-.1-.4q-.3-1.7 1.3-2.3l10-2.4q1.7-.3 2.2 1.3l.1.4q.2 1.7-1.3 2.3z" fill="#e9c31e"/><path id="path3923" d="M194.8 160.4q-2-.1-2.5-2l-.2-.3a2.6 2.6 0 0 1 2-3.2l9.9-2.5c1.3-.3 2.8.6 3.1 2l.1.4a2.6 2.6 0 0 1-1.9 3.1l-10 2.5zm9.8-6.5h-.3l-10 2.5-.6.5-.1.8.1.4q.4 1 1.3.8l10-2.5q.4 0 .6-.5.2-.3.2-.8l-.1-.4a1 1 0 0 0-1.1-.8" fill="#9a6104"/></g></g><g id="g3925"><g id="g3927"><path id="path3929" d="M236 157.8a9.5 9.5 0 1 0-15.3-11.4 9.5 9.5 0 0 0 15.2 11.4m-12-8.8a5.3 5.3 0 1 1 8.5 6.3 5.3 5.3 0 0 1-8.4-6.3" fill="#e9c31e"/><path id="path3931" d="M228.3 162.4q-3.4 0-6.1-2a10.3 10.3 0 1 1 6.1 2m0-19a8.8 8.8 0 0 0 0 17.5q4.4-.1 7-3.5a8.7 8.7 0 0 0-1.8-12.3 9 9 0 0 0-5.2-1.7m0 14.7a6 6 0 1 1 0-12 6 6 0 0 1 0 12m0-10.5q-2.3 0-3.6 1.8a4.5 4.5 0 1 0 3.6-1.8" fill="#9a6104"/></g><g id="g3933"><path id="path3935" d="M255.7 160.1a9.5 9.5 0 1 0-15.3-11.4 9.5 9.5 0 0 0 15.3 11.4m-11.9-8.8a5.3 5.3 0 1 1 8.4 6.3 5.3 5.3 0 0 1-8.4-6.3" fill="#e9c31e"/><path id="path3937" d="M248 164.7a10 10 0 0 1-10-8.7 10.2 10.2 0 0 1 10.1-11.7 10 10 0 0 1 10.2 8.8q.6 4.2-2 7.6a10 10 0 0 1-8.2 4.1m0-19a8.7 8.7 0 0 0-5.3 15.8 8.7 8.7 0 0 0 12.3-1.8 8.7 8.7 0 0 0-1.7-12.3 9 9 0 0 0-5.3-1.7m0 14.7a6 6 0 1 1 0-12 6 6 0 0 1 0 12m0-10.5q-2.2 0-3.6 1.8a4.5 4.5 0 1 0 3.6-1.8" fill="#9a6104"/></g><g id="g3939"><path id="path3941" d="M273.8 167.2a9.5 9.5 0 1 0-15.2-11.4 9.5 9.5 0 0 0 15.2 11.4m-11.8-8.9a5.3 5.3 0 1 1 8.4 6.3 5.3 5.3 0 0 1-8.4-6.3" fill="#e9c31e"/><path id="path3943" d="M266.2 171.7q-3.4 0-6.1-2a10.3 10.3 0 1 1 6.1 2m0-19a8.8 8.8 0 1 0 0 17.5 8.8 8.8 0 0 0 0-17.5m0 14.8a6 6 0 0 1-6-5.2 6 6 0 0 1 9.5-5.7 6 6 0 0 1-3.5 10.9m0-10.6q-2.2 0-3.6 1.9a4.5 4.5 0 0 0 1 6.3q1 .9 2.6.9 2.3 0 3.6-1.8a4.5 4.5 0 0 0-3.6-7.3" fill="#9a6104"/></g><g id="g3945"><path id="path3947" d="M213.7 155.6q-1.7 0-2-1.6v-.5q.1-1.7 1.7-2l10.2-.8q1.7 0 2 1.6v.5q-.1 1.7-1.7 2z" fill="#e9c31e"/><path id="path3949" d="M213.6 156.4q-2.3-.1-2.6-2.4v-.4a2.6 2.6 0 0 1 2.3-2.8l10.2-.9c1.4-.1 2.7 1 2.8 2.4v.4a2.6 2.6 0 0 1-2.3 2.8l-10.2.9zm10.1-5-10.3.9a1 1 0 0 0-1 1.2v.4q.2.9 1.2 1l10.3-.9a1 1 0 0 0 1-1.2v-.4q-.2-1-1.2-1" fill="#9a6104"/></g><g id="g3951"><path id="path3953" d="M232.9 154.8c-1 0-1.7-1-1.6-2v-.4q.3-1.6 2-1.6l10.2 1q1.7.3 1.7 2v.4q-.4 1.7-2.1 1.7z" fill="#e9c31e"/><path id="path3955" d="M243.3 156.7h-.3l-10.2-1.1a2.6 2.6 0 0 1-2.3-2.8v-.5a2.6 2.6 0 0 1 2.9-2.3l10.2 1a2.6 2.6 0 0 1 2.3 2.9v.4a2.6 2.6 0 0 1-2.6 2.3m-10.2-5.2a1 1 0 0 0-1 1l-.1.4a1 1 0 0 0 1 1.2l10.2 1a1 1 0 0 0 1.2-1v-.4a1 1 0 0 0-1-1.2l-10.2-1" fill="#9a6104"/></g><g id="g3957"><path id="path3959" d="M252 158q-1.6-.9-1-2.5v-.4q1-1.5 2.5-1l9.4 4c1 .4 1.4 1.5 1 2.4l-.1.4c-.4 1-1.5 1.4-2.4 1z" fill="#e9c31e"/><path id="path3961" d="m262 162.8-1-.2-9.4-4c-1.3-.5-2-2-1.4-3.4l.2-.4c.5-1.3 2-2 3.4-1.4l9.4 4a2.6 2.6 0 0 1 1.4 3.4l-.1.4q-.8 1.5-2.4 1.6m-9.2-8a1 1 0 0 0-1 .6l-.2.4a1 1 0 0 0 .6 1.4l9.5 4q.9.3 1.4-.6l.1-.4v-.8l-.5-.6-9.5-4z" fill="#9a6104"/></g></g></g><g id="g3963"><g id="g3965"><g id="g3967"><path id="path3969" d="M283.1 183.6a9.5 9.5 0 1 0-2.8-18.9 9.5 9.5 0 0 0 2.8 18.9M281 169a5.3 5.3 0 1 1 1.5 10.4A5.3 5.3 0 0 1 281 169" fill="#e9c31e"/><path id="path3971" d="M281.7 184.4c-5 0-9.4-3.7-10.1-8.7a10.3 10.3 0 1 1 10.1 8.7m0-19h-1.2a8.8 8.8 0 0 0 1.2 17.5h1.3a8.7 8.7 0 0 0 7.4-10 9 9 0 0 0-8.7-7.5m0 14.8a6 6 0 1 1 0-12 6 6 0 0 1 0 12m0-10.6-.6.1a4.5 4.5 0 0 0 1.3 9 4.5 4.5 0 0 0-.7-9" fill="#9a6104"/></g><g id="g3973"><path id="path3975" d="M295.5 199.1a9.5 9.5 0 1 0-2.8-18.8 9.5 9.5 0 0 0 2.8 18.8m-2.2-14.6a5.3 5.3 0 1 1 1.5 10.4 5.3 5.3 0 0 1-1.5-10.4" fill="#e9c31e"/><path id="path3977" d="M294 181h-1.2a8.8 8.8 0 0 0 1.3 17.5l1.3-.1a8.8 8.8 0 0 0-1.3-17.5m0 14.7a6 6 0 1 1 0-12 6 6 0 0 1 0 12m0-10.5h-.6a4.5 4.5 0 1 0 .7 0" fill="#9a6104"/></g><g id="g3979"><path id="path3981" d="M303.4 217a9.5 9.5 0 1 0-2.8-18.9 9.5 9.5 0 0 0 2.8 18.9m-2.2-14.7a5.3 5.3 0 1 1 1.5 10.4 5.3 5.3 0 0 1-1.5-10.4" fill="#e9c31e"/><path id="path3983" d="M302 217.8a10.3 10.3 0 0 1-8.3-16.4 10 10 0 0 1 8.3-4.1 10.3 10.3 0 0 1 8.2 16.4 10 10 0 0 1-8.2 4.1m0-19h-1.3a8.7 8.7 0 0 0-7.4 10 9 9 0 0 0 8.7 7.5h1.3a8.7 8.7 0 0 0 7.4-10 9 9 0 0 0-8.7-7.5m0 14.7a6 6 0 0 1-4.8-9.6 6 6 0 0 1 10.8 2.7 6 6 0 0 1-6 7m0-10.5a5 5 0 0 0-3.6 1.8q-1.1 1.5-.9 3.4a4.5 4.5 0 1 0 4.5-5.2" fill="#9a6104"/></g><g id="g3985"><path id="path3987" d="M269 166.3c-.8-.6-1-1.8-.3-2.6l.3-.3q1.2-1.2 2.6-.2l7.8 6.6c.8.6 1 1.8.3 2.6l-.3.3q-1.2 1.2-2.6.2z" fill="#e9c31e"/><path id="path3989" d="M278 174.1q-1 0-1.7-.6l-7.8-6.6a2.6 2.6 0 0 1-.4-3.6l.3-.4c1-1 2.6-1.2 3.7-.3l7.8 6.6a2.6 2.6 0 0 1 .3 3.6l-.2.4q-.9 1-2 1m-7.6-10.6a1 1 0 0 0-.8.4l-.3.3a1 1 0 0 0 .1 1.6l7.9 6.6q.8.5 1.5-.2l.3-.3a1 1 0 0 0-.1-1.5l-7.9-6.6z" fill="#9a6104"/></g><g id="g3991"><path id="path3993" d="M283 179.3c-.6-.8-.5-2 .3-2.6l.4-.2c.8-.7 2-.6 2.6.2l6.4 8c.7.7.6 1.9-.2 2.5l-.4.3c-.7.7-1.9.6-2.5-.2z" fill="#e9c31e"/><path id="path3995" d="M291 188.7q-1.2 0-2-1l-6.5-7.9c-1-1.1-.7-2.7.4-3.6l.3-.3c1-.9 2.8-.7 3.6.3l6.5 8q.8.8.6 1.9 0 1-1 1.7l-.3.3q-.6.6-1.6.6m-6.2-11.9-.7.2-.3.3a1 1 0 0 0-.1 1.6l6.4 7.9q.7.7 1.6.1l.3-.2a1 1 0 0 0 .2-1.6l-6.5-7.9a1 1 0 0 0-.9-.4" fill="#9a6104"/></g><g id="g3997"><path id="path3999" d="M294.4 195q-.5-1.6 1-2.5l.4-.1c.9-.4 2 0 2.4 1l3.9 9.4q.4 1.7-1 2.4l-.5.2c-.9.4-2 0-2.4-1z" fill="#e9c31e"/><path id="path4001" d="M300 206.3q-1.7 0-2.4-1.6l-4-9.5c-.5-1.3.2-2.8 1.5-3.4l.4-.1q.4-.2 1-.2 1.7 0 2.4 1.6l3.8 9.5c.6 1.3 0 2.8-1.4 3.3l-.4.2zm-3.5-13.3h-.5l-.4.2a1 1 0 0 0-.5 1.4l3.8 9.5q.6.9 1.5.6l.4-.2q.8-.4.6-1.4l-4-9.5a1 1 0 0 0-1-.6" fill="#9a6104"/></g></g><g id="g4003"><g id="g4005"><path id="path4007" d="M302 235a9.5 9.5 0 1 0 9.1-16.8 9.5 9.5 0 0 0-9 16.8m7-13a5.3 5.3 0 1 1-5 9.2 5.3 5.3 0 0 1 5-9.2" fill="#e9c31e"/><path id="path4009" d="M306.6 236.9a10.3 10.3 0 1 1 0-20.6 10.3 10.3 0 0 1 0 20.6m0-19.1a8.8 8.8 0 1 0 0 17.6 8.8 8.8 0 0 0 0-17.6m0 14.8a6 6 0 1 1 0-12 6 6 0 0 1 0 12m0-10.5a4.5 4.5 0 1 0 0 9 4.5 4.5 0 0 0 0-9" fill="#9a6104"/></g><g id="g4011"><path id="path4013" d="M302.7 254.8a9.5 9.5 0 1 0 9-16.7 9.5 9.5 0 0 0-9 16.7m7-13a5.3 5.3 0 1 1-5 9.3 5.3 5.3 0 0 1 5-9.3" fill="#e9c31e"/><path id="path4015" d="M307.2 256.7a10.3 10.3 0 1 1 0-20.6 10.3 10.3 0 0 1 0 20.6m0-19a8.8 8.8 0 1 0 0 17.5 8.8 8.8 0 0 0 0-17.5m0 14.7a6 6 0 1 1 0-12 6 6 0 0 1 0 12m0-10.5a4.5 4.5 0 1 0 0 9 4.5 4.5 0 0 0 0-9" fill="#9a6104"/></g><g id="g4017"><path id="path4019" d="M298.3 273.8a9.5 9.5 0 1 0 9-16.7 9.5 9.5 0 0 0-9 16.7m7-13a5.3 5.3 0 1 1-5 9.3 5.3 5.3 0 0 1 5-9.3" fill="#e9c31e"/><path id="path4021" d="M302.9 275.7a10.3 10.3 0 1 1 0-20.6 10.3 10.3 0 0 1 0 20.6m0-19a8.8 8.8 0 0 0 0 17.5 8.8 8.8 0 0 0 0-17.5m0 14.7a6 6 0 1 1 0-12 6 6 0 0 1 0 12m0-10.5a4.5 4.5 0 1 0 0 9 4.5 4.5 0 0 0 0-9" fill="#9a6104"/></g><g id="g4023"><path id="path4025" d="M301 212.7c-.2-1 .4-2 1.4-2.2l.4-.1q1.7-.3 2.2 1.3l2.4 10c.2 1-.4 2-1.4 2.2l-.4.1q-1.7.2-2.2-1.4z" fill="#e9c31e"/><path id="path4027" d="M305.2 224.8q-2-.1-2.6-2l-2.3-10a2.6 2.6 0 0 1 2-3l.3-.2a2.6 2.6 0 0 1 3.1 2l2.4 10a2.6 2.6 0 0 1-2 3l-.3.1zm-2-13.7h-.6a1 1 0 0 0-.9 1.4l2.4 10q.3 1 1.3.8l.4-.1a1 1 0 0 0 .8-1.3l-2.3-10a1 1 0 0 0-1-.8" fill="#9a6104"/></g><g id="g4029"><path id="path4031" d="M304.6 231.5c0-1 .7-1.9 1.7-1.9h.5q1.6.1 1.9 1.7l.4 10.3q-.1 1.6-1.7 1.9h-.5q-1.6-.1-1.9-1.7z" fill="#e9c31e"/><path id="path4033" d="M306.9 244.3a2.6 2.6 0 0 1-2.6-2.5l-.5-10.2c0-1.5 1-2.7 2.5-2.7h.6c1.3 0 2.5 1 2.5 2.4l.5 10.2c0 1.5-1 2.7-2.5 2.7zm0-14h-.5a1 1 0 0 0-1 1.2l.4 10.2q.1 1 1 1v.8l.1-.7h.4q1-.1 1-1.2l-.4-10.2q-.1-1-1-1" fill="#9a6104"/></g><g id="g4035"><path id="path4037" d="M304.3 250.8q.5-1.6 2.2-1.3h.5q1.6.6 1.3 2.3l-2.6 10q-.5 1.6-2.2 1.2h-.4q-1.6-.6-1.4-2.3z" fill="#e9c31e"/><path id="path4039" d="m304 263.9-.7-.1-.4-.1a2.6 2.6 0 0 1-1.9-3.2l2.6-10a2.6 2.6 0 0 1 3.1-1.8l.4.1c1.4.4 2.3 1.8 1.9 3.2l-2.5 10q-.6 1.7-2.6 1.9m2-13.8a1 1 0 0 0-1 .9l-2.5 9.9v.8l.7.5.5.1a1 1 0 0 0 1.3-.8l2.5-9.9a1 1 0 0 0-.7-1.3l-.5-.1z" fill="#9a6104"/></g></g></g></g><g id="g4041"><g id="g4043"><g id="g4045"><g id="g4047"><path id="path4049" d="M285.4 285.6a9.5 9.5 0 1 0 17.9-6.7 9.5 9.5 0 0 0-17.9 6.7m13.9-5.2a5.3 5.3 0 1 1-9.9 3.7 5.3 5.3 0 0 1 9.9-3.7" fill="#e9c31e"/><path id="path4051" d="M294.3 273.5q-1.5 0-3 .6a8.8 8.8 0 0 0 3 17 8.7 8.7 0 0 0 8.3-12 9 9 0 0 0-8.3-5.6m0 14.8a6 6 0 0 1-5.4-8.5 6 6 0 0 1 5.4-3.5 6 6 0 0 1 5.5 8.5 6 6 0 0 1-5.5 3.5m0-10.5a4.5 4.5 0 0 0-4.2 6 4.5 4.5 0 0 0 5.8 2.7 4.5 4.5 0 0 0 2.7-5.8q-1.2-2.9-4.3-3" fill="#9a6104"/></g><g id="g4053"><path id="path4055" d="M272.9 301a9.5 9.5 0 1 0 17.8-6.7 9.5 9.5 0 0 0-17.8 6.7m13.8-5.2a5.3 5.3 0 1 1-9.8 3.7 5.3 5.3 0 0 1 9.8-3.7" fill="#e9c31e"/><path id="path4057" d="M281.8 288.9a8.7 8.7 0 0 0-8.2 11.9 8.7 8.7 0 1 0 16.4-6.2 9 9 0 0 0-8.2-5.7m0 14.8a6 6 0 1 1 0-12 6 6 0 0 1 0 12m0-10.5a4.5 4.5 0 1 0 0 9 4.5 4.5 0 0 0 0-9" fill="#9a6104"/></g><g id="g4059"><path id="path4061" d="M257.2 312.6a9.5 9.5 0 1 0 17.8-6.8 9.5 9.5 0 0 0-17.8 6.8m13.8-5.3a5.3 5.3 0 1 1-9.8 3.7 5.3 5.3 0 0 1 9.8-3.7" fill="#e9c31e"/><path id="path4063" d="M266 300.5a8.7 8.7 0 0 0-8.1 11.8 8.7 8.7 0 1 0 16.4-6.2 9 9 0 0 0-8.2-5.7m0 14.7a6 6 0 0 1-5.4-8.5 6 6 0 0 1 5.5-3.5 6 6 0 0 1 5.5 8.5 6 6 0 0 1-5.5 3.5m0-10.5a4.5 4.5 0 1 0 0 9 4.5 4.5 0 0 0 0-9" fill="#9a6104"/></g><g id="g4065"><path id="path4067" d="M299.3 268.1c.4-.9 1.5-1.2 2.4-.8l.4.2c1 .5 1.3 1.6.8 2.5l-4.8 9.1c-.4.9-1.5 1.2-2.4.8l-.4-.2a2 2 0 0 1-.8-2.5z" fill="#e9c31e"/><path id="path4069" d="M296.5 280.8q-.6 0-1.2-.3l-.4-.2a2.6 2.6 0 0 1-1-3.5l4.7-9a2.6 2.6 0 0 1 3.5-1.1l.4.2c1.2.6 1.7 2.2 1 3.5l-4.7 9q-.7 1.4-2.3 1.4m4.4-13a1 1 0 0 0-1 .7l-4.7 9a1 1 0 0 0 .5 1.5l.3.2q.9.3 1.5-.4l4.7-9.1a1 1 0 0 0-.4-1.5l-.4-.2z" fill="#9a6104"/></g><g id="g4071"><path id="path4073" d="M289.6 284.7c.6-.8 1.8-1 2.6-.3l.3.3c.8.6 1 1.8.3 2.5l-6.4 8q-1.1 1.3-2.5.4l-.4-.3c-.8-.6-1-1.8-.3-2.6z" fill="#e9c31e"/><path id="path4075" d="M285 296.7q-1 0-1.6-.5l-.4-.3a2.6 2.6 0 0 1-.4-3.6l6.4-8c.8-1.2 2.6-1.3 3.6-.5l.4.3a2.6 2.6 0 0 1 .4 3.6l-6.4 8q-.8 1-2 1m6-12a1 1 0 0 0-.8.5l-6.4 8-.2.8q0 .4.4.7l.3.3q.9.6 1.6-.2l6.3-8a1 1 0 0 0-.2-1.5l-.3-.3z" fill="#9a6104"/></g><g id="g4077"><path id="path4079" d="M276.8 299c.8-.5 2-.3 2.5.5l.3.4c.5.8.3 2-.5 2.5l-8.4 5.9q-1.5.7-2.6-.5l-.2-.4c-.6-.8-.4-2 .4-2.5z" fill="#e9c31e"/><path id="path4081" d="M269.6 309.3q-1.3 0-2.1-1l-.3-.4a2.6 2.6 0 0 1 .7-3.6l8.4-5.9c1.2-.7 2.8-.4 3.6.7l.3.3c.8 1.2.5 2.8-.7 3.7l-8.4 5.8q-.7.4-1.5.4m8.2-9.8-.6.2-8.5 5.8a1 1 0 0 0-.2 1.5l.2.4q.7.7 1.5.2l8.5-5.8q.8-.6.2-1.5l-.2-.4a1 1 0 0 0-.9-.4" fill="#9a6104"/></g></g><g id="g4083"><g id="g4085"><path id="path4087" d="M239.3 315.1a9.5 9.5 0 1 0 18.3 5.3 9.5 9.5 0 0 0-18.3-5.3m14.2 4.1a5.3 5.3 0 1 1-10.1-2.9 5.3 5.3 0 0 1 10.1 3" fill="#e9c31e"/><path id="path4089" d="M248.5 328a10.3 10.3 0 0 1-10-13 10.3 10.3 0 0 1 19-2.2q2 3.7.8 7.8a10 10 0 0 1-9.8 7.4m0-19a8.8 8.8 0 0 0-7.7 13 9 9 0 0 0 7.7 4.5 8.8 8.8 0 0 0 7.6-13 9 9 0 0 0-7.7-4.5m0 14.8a6 6 0 0 1-5.8-7.7 6 6 0 0 1 7.4-4.1 6 6 0 0 1-1.7 11.8m0-10.5c-2 0-3.8 1.3-4.4 3.2a4.5 4.5 0 1 0 4.3-3.2" fill="#9a6104"/></g><g id="g4091"><path id="path4093" d="M220 320a9.5 9.5 0 1 0 18.3 5.2A9.5 9.5 0 0 0 220 320m14.2 4a5.3 5.3 0 1 1-10-2.9 5.3 5.3 0 0 1 10 3" fill="#e9c31e"/><path id="path4095" d="M229.2 332.9a10.3 10.3 0 0 1-9.9-13.2 10.3 10.3 0 0 1 12.7-7 10 10 0 0 1 7 12.7 10 10 0 0 1-9.8 7.5m0-19a8.8 8.8 0 0 0-7.7 13 9 9 0 0 0 7.7 4.5 8.8 8.8 0 0 0 7.7-13 9 9 0 0 0-7.7-4.6m0 14.7-1.7-.2a6 6 0 1 1 1.7.2m0-10.5c-2 0-3.8 1.3-4.4 3.2a4.5 4.5 0 1 0 4.4-3.2" fill="#9a6104"/></g><g id="g4097"><path id="path4099" d="M200.5 319.8a9.5 9.5 0 1 0 18.3 5.3 9.5 9.5 0 0 0-18.3-5.3m14.2 4a5.3 5.3 0 1 1-10-2.8 5.3 5.3 0 0 1 10 2.9" fill="#e9c31e"/><path id="path4101" d="M209.7 332.7a10.3 10.3 0 1 1 2.8-20.1 10.3 10.3 0 0 1-2.8 20.1m0-19a8.8 8.8 0 0 0-7.7 13 9 9 0 0 0 7.7 4.5c3.9 0 7.4-2.6 8.4-6.3a8.8 8.8 0 0 0-8.4-11.2m0 14.7a6 6 0 0 1-5.3-3 6 6 0 0 1 7-8.7 6 6 0 0 1 4 7.4 6 6 0 0 1-5.7 4.3m0-10.5a4.5 4.5 0 0 0-4 6.7 5 5 0 0 0 4 2.3 4.5 4.5 0 0 0 4-6.7 5 5 0 0 0-4-2.3" fill="#9a6104"/></g><g id="g4103"><path id="path4105" d="M260.8 309.3q1.6-.5 2.5 1l.2.3q.5 1.6-.9 2.5l-9.2 4.4q-1.6.5-2.5-.9l-.2-.4c-.4-.9 0-2 1-2.4z" fill="#e9c31e"/><path id="path4107" d="M252.6 318.4q-1.7 0-2.3-1.5l-.2-.3a2.6 2.6 0 0 1 1.2-3.5l9.2-4.4c1.3-.6 2.9 0 3.5 1.2l.2.4a2.6 2.6 0 0 1-1.2 3.4l-9.3 4.5zm9-8.5-.4.1-9.3 4.5a1 1 0 0 0-.5 1.4l.2.4q.6.9 1.5.5l9.2-4.4q.4-.2.6-.6a1 1 0 0 0 0-.9l-.3-.4a1 1 0 0 0-1-.6" fill="#9a6104"/></g><g id="g4109"><path id="path4111" d="M243.2 316.9c1-.3 2 .3 2.2 1.3l.1.4q.3 1.7-1.3 2.2l-9.9 2.7c-1 .2-2-.4-2.2-1.4l-.1-.4q-.3-1.7 1.3-2.2z" fill="#e9c31e"/><path id="path4113" d="M233.9 324.3q-2-.1-2.5-2l-.1-.4a2.6 2.6 0 0 1 1.8-3.1l9.9-2.7c1.4-.3 2.8.5 3.2 1.9v.4c.4 1.4-.4 2.8-1.8 3.2l-9.9 2.6zm9.8-6.8h-.3l-10 2.7a1 1 0 0 0-.7 1.3l.1.5q.4.9 1.3.7l10-2.6q.9-.3.7-1.3v-.5a1 1 0 0 0-1.1-.8" fill="#9a6104"/></g><g id="g4115"><path id="path4117" d="M224.3 320.7q1.7.2 1.8 1.9v.4c0 1-1 1.8-2 1.8l-10.2-.4q-1.7-.2-1.7-1.9v-.4q.2-1.7 1.9-1.8z" fill="#e9c31e"/><path id="path4119" d="m224.2 325.6-10.3-.4a2.6 2.6 0 0 1-2.5-2.7v-.4a2.6 2.6 0 0 1 2.7-2.5l10.2.3c1.5 0 2.6 1.3 2.5 2.7v.5c0 1.4-1.2 2.5-2.6 2.5M214 321a1 1 0 0 0-1 1v.4a1 1 0 0 0 1 1.2l10.2.4v.7-.7q1-.1 1.1-1.1v-.4a1 1 0 0 0-1-1.2z" fill="#9a6104"/></g></g></g><g id="g4121"><g id="g4123"><g id="g4125"><path id="path4127" d="M186 307.7a9.5 9.5 0 1 0 9.3 16.7 9.5 9.5 0 0 0-9.2-16.7m7.2 13a5.3 5.3 0 1 1-5-9.3 5.3 5.3 0 0 1 5 9.2" fill="#e9c31e"/><path id="path4129" d="M190.7 326.3a10.3 10.3 0 1 1 0-20.6 10.3 10.3 0 0 1 0 20.6m0-19a8.8 8.8 0 1 0 0 17.5 8.8 8.8 0 0 0 0-17.5m0 14.7a6 6 0 1 1 0-12 6 6 0 0 1 0 12m0-10.5a4.5 4.5 0 1 0 0 9 4.5 4.5 0 0 0 0-9" fill="#9a6104"/></g><g id="g4131"><path id="path4133" d="M169 297.5a9.5 9.5 0 1 0 9.3 16.7 9.5 9.5 0 0 0-9.3-16.7m7.2 13a5.3 5.3 0 1 1-5.1-9.3 5.3 5.3 0 0 1 5 9.2" fill="#e9c31e"/><path id="path4135" d="M173.6 316.1a10.3 10.3 0 1 1 0-20.6 10.3 10.3 0 0 1 0 20.6m0-19a8.8 8.8 0 0 0 0 17.5 8.8 8.8 0 0 0 0-17.5m0 14.7a6 6 0 1 1 0-12 6 6 0 0 1 0 12m0-10.5a4.5 4.5 0 1 0 0 9 4.5 4.5 0 0 0 0-9" fill="#9a6104"/></g><g id="g4137"><path id="path4139" d="M155.3 283.6a9.5 9.5 0 1 0 9.3 16.7 9.5 9.5 0 0 0-9.3-16.7m7.2 13a5.3 5.3 0 1 1-5.1-9.2 5.3 5.3 0 0 1 5.1 9.2" fill="#e9c31e"/><path id="path4141" d="M160 302.2a10.3 10.3 0 1 1 0-20.5 10.3 10.3 0 0 1 0 20.5m0-19a8.8 8.8 0 0 0 0 17.5 8.8 8.8 0 0 0 0-17.5m0 14.8a6 6 0 1 1 0-12 6 6 0 0 1 0 12m0-10.5a4.5 4.5 0 1 0 0 9 4.5 4.5 0 0 0 0-9" fill="#9a6104"/></g><g id="g4143"><path id="path4145" d="M205.4 318.8q1.6.8 1.1 2.4l-.1.4c-.3 1-1.4 1.5-2.4 1.1l-9.6-3.4c-1-.3-1.5-1.4-1.2-2.3l.2-.4c.3-1 1.4-1.5 2.3-1.2z" fill="#e9c31e"/><path id="path4147" d="m204.7 323.6-.9-.2-9.7-3.4a2.6 2.6 0 0 1-1.6-3.3l.2-.4c.4-1.3 2-2 3.3-1.6l9.7 3.4c1.3.5 2 2 1.5 3.3l-.1.4q-.7 1.6-2.4 1.8M195 316a1 1 0 0 0-1 .7l-.1.4a1 1 0 0 0 .6 1.4l9.7 3.4q1 .3 1.4-.7l.1-.4a1 1 0 0 0-.6-1.4l-9.7-3.4z" fill="#9a6104"/></g><g id="g4149"><path id="path4151" d="M187.6 311.7c.9.5 1.2 1.6.7 2.5l-.2.4q-1 1.3-2.6.6l-8.8-5.1a2 2 0 0 1-.7-2.5l.2-.4c.5-.9 1.7-1.2 2.5-.7z" fill="#e9c31e"/><path id="path4153" d="M186.5 316.2q-.8 0-1.3-.3l-8.9-5.2a2.6 2.6 0 0 1-1-3.5l.3-.4a3 3 0 0 1 3.5-1l8.9 5.2a2.6 2.6 0 0 1 1 3.6l-.3.3q-.8 1.3-2.2 1.3m-8.7-9.2a1 1 0 0 0-1 .6l-.1.4a1 1 0 0 0 .3 1.5l9 5q.8.5 1.4-.3l.2-.4q.3-.3.1-.8l-.5-.7-8.8-5.1z" fill="#9a6104"/></g><g id="g4155"><path id="path4157" d="M171.5 301c.7.8.7 2 0 2.7l-.4.3c-.7.7-1.9.6-2.6-.1l-7-7.5c-.7-.8-.6-2 .1-2.6l.3-.3c.8-.7 2-.7 2.6 0z" fill="#e9c31e"/><path id="path4159" d="M169.9 305.2q-1 0-2-.8l-7-7.5c-.9-1-.8-2.7.2-3.7l.3-.3c1-1 2.8-.8 3.7.2l7 7.5q.7.8.7 1.8t-.8 1.8l-.4.3q-.6.7-1.7.7m-6.7-11.5-.7.3-.4.3a1 1 0 0 0 0 1.6l7 7.5q.7.6 1.5 0l.3-.3a1 1 0 0 0 0-1.5l-7-7.5z" fill="#9a6104"/></g></g><g id="g4161"><g id="g4163"><path id="path4165" d="M150.2 266.3a9.5 9.5 0 1 0-2.6 18.9 9.5 9.5 0 0 0 2.6-18.9m-2 14.7a5.3 5.3 0 1 1 1.4-10.4 5.3 5.3 0 0 1-1.4 10.4" fill="#e9c31e"/><path id="path4167" d="M149 286a10.2 10.2 0 0 1-10.3-11.6 10.3 10.3 0 0 1 20.4 2.8c-.7 5-5 8.9-10.2 8.9m-.1-19a8.8 8.8 0 0 0 0 17.6 8.8 8.8 0 0 0 7-14.1 9 9 0 0 0-7-3.5m0 14.8a6 6 0 0 1-6-6.8 6 6 0 0 1 10.8-2.9 6 6 0 0 1-4.8 9.7m0-10.5a4.5 4.5 0 0 0-.6 9 4.5 4.5 0 0 0 4.2-7.3 5 5 0 0 0-3.6-1.7" fill="#9a6104"/></g><g id="g4169"><path id="path4171" d="M142.6 248a9.5 9.5 0 1 0-2.5 18.8 9.5 9.5 0 0 0 2.5-18.8m-2 14.6a5.3 5.3 0 1 1 1.4-10.4 5.3 5.3 0 0 1-1.4 10.4" fill="#e9c31e"/><path id="path4173" d="M141.4 267.7a10.3 10.3 0 1 1 0-20.6 10.3 10.3 0 0 1 0 20.6m0-19a8.8 8.8 0 0 0 0 17.5 8.8 8.8 0 0 0 0-17.6m0 14.7a6 6 0 0 1-4.8-2.4 6 6 0 1 1 10.7-2.8 6 6 0 0 1-6 5.2m0-10.5a4.5 4.5 0 0 0-.7 9 4.5 4.5 0 1 0 .6-9" fill="#9a6104"/></g><g id="g4175"><path id="path4177" d="M140 228.7a9.5 9.5 0 1 0-2.6 18.8 9.5 9.5 0 0 0 2.5-18.8m-2 14.6a5.3 5.3 0 1 1 1.4-10.4 5.3 5.3 0 0 1-1.4 10.4" fill="#e9c31e"/><path id="path4179" d="M138.7 248.4a10.3 10.3 0 1 1 0-20.5 10.3 10.3 0 0 1 0 20.5m0-19a8.8 8.8 0 0 0-1.2 17.4h1.2a8.8 8.8 0 0 0 7-14 9 9 0 0 0-7-3.5m0 14.7a6 6 0 0 1-6-6.8 6 6 0 0 1 12 1.6 6 6 0 0 1-6 5.2m0-10.5a4.5 4.5 0 0 0-.6 9 4.5 4.5 0 0 0 4.2-7.2 5 5 0 0 0-3.6-1.8" fill="#9a6104"/></g><g id="g4181"><path id="path4183" d="M159 286.8q.9 1.5-.5 2.6l-.3.2q-1.5.9-2.6-.5l-5.7-8.5c-.6-.8-.3-2 .5-2.5l.4-.3c.8-.5 2-.3 2.5.5z" fill="#e9c31e"/><path id="path4185" d="M157.1 290.7q-1.3 0-2.1-1.2l-5.7-8.5a2.6 2.6 0 0 1 .7-3.6l.3-.2c1.2-.8 2.9-.4 3.6.7l5.8 8.5a2.6 2.6 0 0 1-.7 3.6l-.4.2q-.7.5-1.5.5m-5.3-12.4-.6.1-.4.3-.4.7q-.1.5.1.8l5.7 8.5q.7.8 1.6.3l.3-.2a1 1 0 0 0 .3-1.6l-5.7-8.5a1 1 0 0 0-1-.4" fill="#9a6104"/></g><g id="g4187"><path id="path4189" d="M149 270.4q.6 1.6-1 2.5l-.3.1q-1.7.5-2.4-1l-4-9.4c-.5-.9 0-2 .9-2.4l.4-.1q1.7-.5 2.4 1z" fill="#e9c31e"/><path id="path4191" d="M147 274q-1.7-.1-2.4-1.6l-4-9.5c-.6-1.3 0-2.8 1.3-3.4l.4-.1c1.3-.6 2.9 0 3.4 1.3l4 9.4c.6 1.4 0 2.9-1.3 3.4l-.4.2q-.5.3-1 .2m-3.7-13.3h-.4l-.4.2a1 1 0 0 0-.6 1.4l4 9.5q.6.8 1.5.5l.4-.1q.8-.6.6-1.5l-4-9.4a1 1 0 0 0-1-.6" fill="#9a6104"/></g><g id="g4193"><path id="path4195" d="M142.5 252.3c.1 1-.6 2-1.6 2l-.5.1q-1.7 0-2-1.6l-1.1-10.2c-.1-1 .6-2 1.6-2h.5q1.7-.1 2 1.5z" fill="#e9c31e"/><path id="path4197" d="M140.2 255.2q-2.2-.2-2.5-2.3l-1.1-10.2c-.2-1.4.8-2.7 2.2-2.9h.8q2.2.2 2.5 2.3l1.2 10.1c.1 1.5-1 2.7-2.3 2.9zm-.6-14h-.2l-.4.1a1 1 0 0 0-1 1.2l1.2 10.2q.2 1 1.2 1h.4q1-.4 1-1.3l-1.2-10.2q-.1-.9-1-1" fill="#9a6104"/></g></g></g></g><g id="g4199"><path id="path4201" d="M145.4 210.4a9.5 9.5 0 1 0-8 17.3 9.5 9.5 0 0 0 8-17.3m-6.2 13.4a5.3 5.3 0 1 1 4.4-9.5 5.3 5.3 0 0 1-4.4 9.5" fill="#e9c31e"/><path id="path4203" d="M141.4 229.3q-2.3 0-4.3-.9a10 10 0 0 1-5-13.6 10.3 10.3 0 0 1 13.6-5 10.3 10.3 0 0 1-4.3 19.5m0-19a8.8 8.8 0 0 0-3.6 16.7q1.7.8 3.6.8a8.8 8.8 0 0 0 0-17.5m0 14.8a6 6 0 1 1 0-12 6 6 0 0 1 0 12m0-10.6c-1.7 0-3.4 1-4 2.7a4.5 4.5 0 1 0 4-2.7" fill="#9a6104"/></g><g id="g4205"><path id="path4207" d="M141 233.8c-.2 1-1.2 1.6-2.2 1.4h-.4a2 2 0 0 1-1.5-2.2l2-10c0-1 1-1.7 2-1.5h.5q1.6.5 1.5 2.2z" fill="#e9c31e"/><path id="path4209" d="M139.2 236h-1a2.6 2.6 0 0 1-2-3.1l1.9-10a2.6 2.6 0 0 1 3-2.2l.4.1a2.6 2.6 0 0 1 2 3l-1.8 10.1a3 3 0 0 1-2.5 2.1m1.4-13.8a1 1 0 0 0-1 .9l-2 10a1 1 0 0 0 1 1.3l.4.1a1 1 0 0 0 1.2-.9l2-10a1 1 0 0 0-1-1.3h-.4z" fill="#9a6104"/></g><g id="g4211"><g id="g4213"><path id="path4215" d="M156.3 196a9.5 9.5 0 1 0-16.7 9.1 9.5 9.5 0 0 0 16.7-9.1m-13 7a5.3 5.3 0 1 1 9.2-5 5.3 5.3 0 0 1-9.2 5" fill="#e9c31e"/><path id="path4217" d="M148 210.8a10.3 10.3 0 1 1-.1-20.5 10.3 10.3 0 0 1 0 20.5m-.1-19a8.8 8.8 0 0 0 0 17.5 8.8 8.8 0 0 0 0-17.5m0 14.8a6 6 0 1 1 0-12 6 6 0 0 1 0 12m0-10.5a4.5 4.5 0 1 0 0 9 4.5 4.5 0 0 0 0-9" fill="#9a6104"/></g><g id="g4219"><path id="path4221" d="M166.6 179a9.5 9.5 0 1 0-16.8 9.1 9.5 9.5 0 0 0 16.8-9.1m-13 7a5.3 5.3 0 1 1 9.2-5 5.3 5.3 0 0 1-9.2 5" fill="#e9c31e"/><path id="path4223" d="M158.2 193.8a10.3 10.3 0 1 1 0-20.5 10.3 10.3 0 0 1 0 20.5m0-19a8.8 8.8 0 1 0 0 17.6 8.8 8.8 0 0 0 0-17.6m0 14.8a6 6 0 1 1 0-12 6 6 0 0 1 0 12m0-10.5a4.5 4.5 0 0 0-4 6.6 4.5 4.5 0 1 0 4-6.6" fill="#9a6104"/></g><g id="g4225"><path id="path4227" d="M145 215.3c-.3 1-1.4 1.4-2.3 1h-.4c-1-.4-1.5-1.5-1.2-2.4l3.5-9.7c.3-1 1.4-1.4 2.3-1h.5c1 .4 1.4 1.5 1 2.4z" fill="#e9c31e"/><path id="path4229" d="m143.3 217.2-.9-.1-.4-.2a2.6 2.6 0 0 1-1.6-3.3l3.5-9.6c.4-1.3 2-2 3.3-1.6l.4.2c1.3.4 2 2 1.6 3.3l-3.5 9.6q-.6 1.6-2.4 1.7m3-13.4a1 1 0 0 0-1 .7l-3.5 9.6a1 1 0 0 0 .7 1.4l.4.2q1 .3 1.4-.7l3.5-9.6a1 1 0 0 0-.7-1.4l-.4-.2z" fill="#9a6104"/></g><g id="g4231"><path id="path4233" d="M152.3 197.5c-.5.9-1.7 1.2-2.5.7l-.4-.3a2 2 0 0 1-.7-2.5l5.2-8.8c.5-.9 1.7-1.2 2.5-.7l.4.3q1.4 1 .7 2.5z" fill="#e9c31e"/><path id="path4235" d="M150.7 199.2q-.8 0-1.3-.4l-.4-.2a2.6 2.6 0 0 1-1-3.6l5.3-8.8a3 3 0 0 1 3.5-1l.4.3c1.2.7 1.6 2.3 1 3.5l-5.3 8.9q-.7 1.3-2.2 1.3m4.8-12.8a1 1 0 0 0-1 .6l-5.1 8.8a1 1 0 0 0 .4 1.5l.3.2q.9.4 1.5-.4l5.2-8.8a1 1 0 0 0-.4-1.5l-.3-.2z" fill="#9a6104"/></g></g><g id="g4237"><path id="path4239" d="M163.4 180.6c-.7.7-1.9.6-2.6-.1l-.3-.3c-.6-.8-.6-2 .2-2.6l7.7-6.8c.7-.7 1.9-.7 2.5.1l.3.3c.7.8.6 2-.1 2.6z" fill="#e9c31e"/><path id="path4241" d="M162.2 181.9q-1 0-2-1l-.2-.2a2.6 2.6 0 0 1 .2-3.7l7.7-6.8c1-1 2.7-.8 3.6.2l.3.3a2.6 2.6 0 0 1-.2 3.7l-7.7 6.8q-.6.7-1.7.7m7.4-10.9-.8.3-7.6 6.8a1 1 0 0 0-.1 1.6l.3.3q.8.7 1.5 0l7.7-6.7.4-.8q0-.5-.3-.8l-.3-.3a1 1 0 0 0-.8-.4" fill="#9a6104"/></g></g><g id="g4243"><g id="g4245"><path id="path4247" d="M224.1 301.4s2.8 2 5 2 8.1-3.1 9.9-7.7c1.7-4.6.2-7-2.2-8.5-2.4-1.6-.2-7 0-10.3s1.5-3.7 3.7-8.5 7.2-17.7 7.2-17.7.2-1.1 3.3-1.3 7.6-1.3 12-4c4.4-2.6 11.3-7.6 11.3-7.6s-5-3.3-10.4-5.2-10.7-1.1-14.7-.7-4.3-.9-4.3-.9c0-2.8-1.1-4.3-1.8-6.7s2-52.7-1-53c-3.1-.1-6.6 33-8 36.4-1.3 3.2-1.3 8-4.1 8s-5.2.7-5.2.7H221s-2.4-.7-5.3-.7c-2.8 0-2.8-4.8-4.1-8s-4.8-36.5-7.9-36.3c-3 .2-.4 50.5-1 52.9s-1.8 3.9-1.8 6.7c0 0-.5 1.3-4.4.9s-9.2-1.3-14.6.7-10.5 5.2-10.5 5.2 7 5 11.4 7.6c4.3 2.7 9 3.8 12 4s3.2 1.3 3.2 1.3 5 12.9 7.3 17.7c2.1 4.8 3.4 5.2 3.7 8.5.2 3.3 2.4 8.7 0 10.3-2.4 1.5-4 3.9-2.2 8.5s7.6 7.6 9.8 7.6 5-2 5-2z"/></g><g id="g4249"><path id="path4251" d="M221 297.6s-1.5-2.2-4.4-3.7c-2.8-1.4-5.8-2.7-5.3-.7.4 1.9 1.6 5 4.5 5.2 3 .1 5.2-.8 5.2-.8" fill="#ffffff"/></g><g id="g4253"><path id="path4255" d="M200.4 241.9s-1.4-5.6-6.9-5.9-9.8 2.7-9.8 2.7 3.6 5.2 8.9 5.7 7.8-2.5 7.8-2.5" fill="#ffffff"/></g><g id="g4257"><path id="path4259" d="M224.9 297.6s1.5-2.2 4.3-3.7c2.8-1.4 5.8-2.7 5.4-.7-.5 1.9-1.6 5-4.6 5.2a13 13 0 0 1-5.1-.8" fill="#ffffff"/></g><g id="g4261"><path id="path4263" d="M223 272.7s2 1.6 2 4.6-1.9 5.6-1.9 5.6h-.4s-1.9-2.6-1.9-5.6 2-4.6 2-4.6z" fill="#ffffff"/></g><g id="g4265"><path id="path4267" d="M245.4 241.9s1.4-5.6 7-5.9 9.7 2.7 9.7 2.7-3.5 5.2-8.8 5.7-7.9-2.5-7.9-2.5" fill="#ffffff"/></g><g id="g4269"><path id="path4271" d="M223.5 253.6c.6-.7 1-4 1.5-7.5s2.9-5.6 5.1-5.4 3.2 2.7 2.7 5.5a22 22 0 0 1-4.4 9.8c-2.4 3-1.5 10-1.5 10s.8 0 2-1.4q1.8-2.1 2.2-5.9c.2-2.5 4-3.7 4-3.7s.2 2.9-.4 5.7-2.4 3.2-3.9 4c-1.5.6-1.4 2.5-1.4 2.5l2.4-.3c1.6-.3 5-1.5 6-6.3.9-4.9-1.8-8.8 1.2-15.6 3.1-6.7.2-13-4.3-14.5s-8.9 2-9.4 3c-.6.8-1.8 1.2-1.8 1.2h-1.2s-1.2-.4-1.7-1.3-4.9-4.4-9.4-3-7.5 7.9-4.4 14.6c3 6.8.4 10.7 1.3 15.5s4.3 6.1 6 6.4q2.3.4 2.4.3s0-1.9-1.5-2.6-3.3-1-3.9-3.9c-.6-2.8-.4-5.7-.4-5.7s3.9 1.2 4 3.7q.4 3.8 2.3 6c1.1 1.3 2 1.4 2 1.4s.9-7-1.6-10c-2.4-3-4-7-4.4-9.9-.4-2.8.5-5.3 2.7-5.5s4.6 1.9 5.2 5.4c.5 3.5.8 6.8 1.4 7.5z" fill="#ffffff"/></g></g><g id="g4273"><g id="g4275"><g id="g4277"><path id="path4279" d="M373.2 254.7s-4.4 1-10 3.9c2.9-3 6.1-6.3 8.6-9.1 6-6.7 5.1-22.2 5.1-22.2s-4.8 2-10.3 6.5q3-4.7 5.4-9.5c4-8-1-22.8-1-22.8s-4 3.1-8 8.6a98 98 0 0 0 4.2-15.7c1.5-9.4-7.9-22.4-7.9-22.4s-3.2 5-5.6 12.6q-.6-3.8-1.6-7.7c-2.9-10.3-17.1-18.7-17.1-18.7s-1 9.5 1.6 21c2 9 12.1 16.3 16.3 19l1.4 5a48 48 0 0 0-15.5-9.4s.3 8.3 4.2 17.7c2.7 6.4 10.4 11.6 15.1 14.3q.2 3.5.8 6.7c-3.3-8.7-16.4-15.5-16.4-15.5s-.9 8.2 1.7 18c1.7 6.6 8.7 11.9 13.3 14.8q-1 5.4-1.2 9.9l-.2-2.3c-1.4-9.2-13.7-18.6-13.7-18.6s-2.2 8-1.3 18.2c.5 6.2 5.8 12.2 9.8 16q-.9 2.7-1.4 5.4c-2-8.6-11.4-17.2-11.4-17.2s-3 7.7-3.1 18a50 50 0 0 0 7.2 21l-1.7 6-2.5 2.7.9-4.5c1.3-9.3-7.8-21.7-7.8-21.7s-4.4 7-6.5 17c-1.5 7.3 3.6 16.2 6.4 20.5l-1.1 2.6a45 45 0 0 0-6.5 6q1.8-3 2.5-5.6c2.4-9-5.4-22.4-5.4-22.4s-5.1 6.5-8.2 16.3q-.8 2.3-1.3 5.1c-2-5-5.2-9.6-5.2-9.6s-11.5 17.1-13.1 28.4-8 17.1-21.5 21.7c-17.1 5.7-24.8 3.5-46.7 4.6-21.9 1.2-48 16.9-48 16.9s-.1 1.6 1 3.1c1.1 1.6 8.1 2 8.1 2s5.1-2.3 17.4-9c13.3-7.2 22.1-8.6 41.5-8.6 19.5 0 36.2-7.9 40-9.9q6-3 31.2-3.4c16.7-.2 24.4-14.9 24.4-14.9s-6.2-2.6-12.8-3.6l9.6-2.9c9.7-2.7 18.1-18 18.1-18l-5.4-.4c7.9-4.4 13.5-18.2 13.5-18.2s-3-.2-7.4.4l3-1.7c8-5.1 11.5-21 11.5-21s-7.3.8-15.6 5l9.8-7.4c7-5.6 8.8-21 8.8-21m-59.4 87-1 .5 2.3-2.5zm-4.3-4-.1 6.5c-5.4 3.5-10 7.7-10 7.7s6.2-7.5 10.1-14.1" fill="#e9c31e"/><path id="path4281" d="M185.6 390.9c-3-.2-8-.8-9.3-2.7-1.5-2-1.2-4-1.2-4.2q0-.8.7-1.1c1-.7 26.6-16 48.7-17q9.4-.5 16-.5c11 0 18.3-.1 30.2-4.2 13.5-4.5 19-10 20.5-20.4 1.6-11.5 12.9-28.3 13.3-29q.5-.7 1.3-.7t1.2.6c.1.1 1.8 2.6 3.6 6q0-.6.3-1.1a58 58 0 0 1 8.4-16.7 1.5 1.5 0 0 1 2.5.2l1 2q0-1.4.4-2.7a56 56 0 0 1 6.6-17.5 1.5 1.5 0 0 1 2.5 0q.2 0 1.8 2.7-.7-3-.6-5.5a58 58 0 0 1 3.2-18.5 1.5 1.5 0 0 1 2.4-.5l1.6 1.5q-1-2.3-1.1-4.5a58 58 0 0 1 1.4-18.7 1.5 1.5 0 0 1 2.3-.8l.3.2q-.6-1-.8-2.3a58 58 0 0 1-1.8-18.7 1.5 1.5 0 0 1 2.2-1.2l.7.4a19 19 0 0 1-2.3-3.9c-4-9.6-4.3-17.9-4.3-18.2a1.5 1.5 0 0 1 2-1.5c.2.1 4.3 1.5 8.7 4.1-4.9-3.7-11.2-9.7-12.9-17a74 74 0 0 1-1.6-21.4 1.5 1.5 0 0 1 2.3-1.2c.6.4 14.7 8.8 17.8 19.6l.6 2.4c2-4.7 3.8-7.5 3.9-7.7q.4-.7 1.2-.7t1.3.7c.4.5 9.7 13.6 8 23.5q-.6 4.3-2 8.8l3.4-3.2a1.5 1.5 0 0 1 2.4.7c.2.7 5.2 15.4 1 24l-2 3.5q4.5-2.5 5-2.6a1.5 1.5 0 0 1 2 1.3c0 .7.9 16.2-5.4 23.3l-3.5 3.7 3.3-1q.8-.2 1.4.3.5.7.5 1.3c-.1.7-2 16.2-9.4 22l-1.2 1c3.4-1 5.7-1.2 5.9-1.3a1.5 1.5 0 0 1 1.6 1.8c-.1.7-3.1 14.2-10.2 20.6h1.8a1.5 1.5 0 0 1 1.3 2 52 52 0 0 1-10.7 16.5l1.5.2a1.5 1.5 0 0 1 1 2.2c-.3.7-8.9 15.8-19 18.7l-4 1.2c4 1 7.2 2.4 7.4 2.4a1.5 1.5 0 0 1 .7 2.1c-.3.6-8.3 15.5-25.7 15.7-20.7.3-28 2-30.5 3.2a95 95 0 0 1-40.7 10.1c-19 0-27.5 1.2-40.8 8.4a351 351 0 0 1-18 9.3m-7.5-5.9q0 .7.6 1.5c.5.5 3.6 1.1 6.6 1.3 1.4-.6 6.6-3.2 17-8.8 13.7-7.5 23-8.8 42.2-8.8a91 91 0 0 0 39.3-9.7q6-3.2 31.9-3.6c12.5-.1 19.8-9 22.2-12.6-2.3-.8-6.5-2.2-10.8-2.9a1.5 1.5 0 0 1-.3-2.9l9.7-3c7-1.9 13.4-11.1 16-15.2l-3-.2a1.5 1.5 0 0 1-.6-2.8c5.5-3.1 10-11.5 11.9-15.4q-2 0-5 .4a1.5 1.5 0 0 1-.8-2.8l2.9-1.7c5.6-3.6 9-13.4 10.2-17.9a55 55 0 0 0-12.8 4.6 1.5 1.5 0 0 1-1.6-2.6q5.8-4.2 9.8-7.4c4.9-3.9 7-13.4 7.8-17.7q-2.7.8-7.4 3a1.5 1.5 0 0 1-1.7-2.3q5.3-5.4 8.5-9c4.2-4.7 4.8-14.4 4.8-18.8a51 51 0 0 0-8 5.2 1.5 1.5 0 0 1-2.2-2q3.4-5.2 5.4-9.3c2.7-5.6.7-15.1-.5-19.4a51 51 0 0 0-6 6.8 1.5 1.5 0 0 1-2.6-1.4 107 107 0 0 0 4.1-15.4c1-6.6-3.8-15.5-6.3-19.3q-1.9 3.2-4.3 10.1-.4 1.1-1.5 1-1.1 0-1.4-1.2-.6-4-1.5-7.5c-2-7.3-10.4-13.7-14.3-16.4-.2 3.5 0 10.3 1.7 18 1.9 8.4 11.5 15.4 15.6 18q.5.3.6.9l1.5 4.9a1.5 1.5 0 0 1-2.5 1.5 43 43 0 0 0-12.8-8 59 59 0 0 0 4 14.8c2.4 6 10 11 14.3 13.5q.8.4.8 1.2 0 3 .7 6.5a1.5 1.5 0 0 1-2.8.8c-2.3-6-10-11.3-13.6-13.5-.1 3 0 8.8 1.8 15.2 1.5 6.1 8.5 11.3 12.6 13.8q.8.7.6 1.6-.8 4.4-1 9.7-.3 1.2-1.6 1.4-1.3-.1-1.5-1.4l-.2-2.2c-1-6.4-7.9-13.1-11.2-16a55 55 0 0 0-.8 15.3c.5 5.6 5.3 11.3 9.3 15q.6.7.4 1.5l-1.4 5.3a1.5 1.5 0 0 1-3 0 36 36 0 0 0-9.1-14.7c-.9 3-2.2 8.5-2.3 15.1s4.3 15.5 7 20.3q.3.6 0 1.2c-1 3.2-1.5 5.7-1.5 6q-.1.5-.5.8-1.2 1-2.4 2.5a1.5 1.5 0 0 1-2.6-1.4l.9-4.3c1-6.5-3.8-14.9-6.2-18.6a57 57 0 0 0-5.1 14.4c-1.4 7 3.8 15.9 6.1 19.4q.5.7.1 1.5l-1.5 3.1q-3 2.2-6.3 5.8a1.5 1.5 0 0 1-2.4-1.7q1.8-3 2.4-5.2c1.6-6.4-2.2-15.2-4.2-19.2a58 58 0 0 0-7.8 18.8 1.5 1.5 0 0 1-2.9.3c-1.1-3-2.7-5.7-3.8-7.5a84 84 0 0 0-11.6 26c-1.7 11.5-8 17.9-22.5 22.8-12.4 4.2-19.8 4.2-31.1 4.3q-6.6 0-16 .4c-19.2 1-42.1 13.7-46.5 16.2m149.7-67q.1 2.4-.2 4.7l1-.8.7-1.5zm12.5-18 .1.7.1-.4zm14.2-50.3 1.1 1.9.2-1zm-55 103.7a1.5 1.5 0 0 1-1.2-2.5s6.1-7.4 10-13.9a1.5 1.5 0 0 1 2.7.8l-.1 6.4q0 .8-.7 1.2a72 72 0 0 0-9.7 7.6zm8.4-10.3-.3.5.3-.2zm4.9.6a1.5 1.5 0 0 1-1.1-2.5l2.3-2.5a1.5 1.5 0 0 1 2.3 1.9l-1.9 2.4-1 .5z" fill="#9a6104"/></g><g id="g4283"><g id="g4285"><g id="g4287"><path id="path4289" d="M335 158.2s14.2 8.4 17.1 18.7c3 10.4 2.6 22.3 2.6 22.3s-15.5-8.5-18-20c-2.7-11.5-1.7-21-1.7-21" fill="#e9c31e"/><path id="path4291" d="m354.7 200-.4-.1c-.6-.4-15.8-8.9-18.4-20.5a74 74 0 0 1-1.6-21.3.7.7 0 0 1 1-.5c.7.3 14.6 8.6 17.5 19.1a88 88 0 0 1 2.6 22.5 1 1 0 0 1-.7.8m-19-40.5c-.2 3-.4 10.7 1.6 19.5 2.1 9.3 13.1 16.7 16.7 19a85 85 0 0 0-2.6-20.9c-2.3-8.3-12.4-15.4-15.7-17.6" fill="#9a6104"/></g><g id="g4293"><path id="path4295" d="M340 165.6s7.6 4.9 9.2 10.7 2.6 14 2.6 14-4-7.7-7.6-12.7-4.2-12-4.2-12" fill="#ffe96b"/></g></g><g id="g4297"><g id="g4299"><path id="path4301" d="M359.3 172s9.4 13 7.9 22.4-6.5 22.4-6.5 22.4-10.5-17.4-8.2-27.6a56 56 0 0 1 6.8-17.2" fill="#e9c31e"/><path id="path4303" d="m360.7 217.6-.7-.4c-.4-.7-10.5-17.8-8.3-28.2a56 56 0 0 1 7-17.4.7.7 0 0 1 1.3 0c.3.5 9.5 13.4 8 23-1.6 9.3-6.6 22.3-6.6 22.5zm-1.3-44.2a57 57 0 0 0-6.2 16c-1.8 8 5 21.4 7.3 25.6 1.4-3.6 4.8-13.3 6-20.7 1.2-7.5-5-17.8-7.1-20.9" fill="#9a6104"/></g><g id="g4305"><path id="path4307" d="M360.9 180.1s4.8 7.2 4 12.5a93 93 0 0 1-3.3 12.2s-.5-7.9-1.7-13.4 1-11.3 1-11.3" fill="#ffe96b"/></g></g><g id="g4309"><g id="g4311"><path id="path4313" d="M338.8 193.8s14.5 5.2 18.6 13.6a62 62 0 0 1 4.6 20.5s-15-7-19-16.4-4.2-17.7-4.2-17.7" fill="#e9c31e"/><path id="path4315" d="M362 228.6h-.3c-.6-.3-15.4-7.2-19.4-16.8a57 57 0 0 1-4.3-18 .7.7 0 0 1 1-.7c.6.2 15 5.4 19 14a62 62 0 0 1 4.8 20.7.7.7 0 0 1-.8.8M339.6 195c.2 2.5 1.1 9 4.1 16.2 3.2 7.6 14 13.6 17.5 15.4a58 58 0 0 0-4.5-18.9c-3.2-6.7-13.7-11.4-17-12.7" fill="#9a6104"/></g><g id="g4317"><path id="path4319" d="M344.5 199.5s7.8 3 10 7.7A90 90 0 0 1 359 219s-4.9-6-8.9-9.8-5.5-9.6-5.5-9.6" fill="#ffe96b"/></g></g><g id="g4321"><g id="g4323"><path id="path4325" d="M371 201.5s5 14.7 1 22.8c-4 8-10.9 17.6-10.9 17.6s-6-18.5-1.2-27c4.9-8.5 11-13.4 11-13.4" fill="#e9c31e"/><path id="path4327" d="m361.1 242.6-.7-.5c-.2-.8-6-19-1.1-27.6 4.8-8.5 11-13.4 11.2-13.6a1 1 0 0 1 1.2.4c.2.6 5 15 1 23.3-4 8-10.9 17.6-11 17.7q-.2.3-.6.3m9.5-39.8c-1.9 1.7-6.4 6-10 12.5-3.9 6.7-.5 20.4.8 24.9 2-2.9 6.9-10 10-16.3s.2-17.6-.8-21" fill="#9a6104"/></g><g id="g4329"><path id="path4331" d="M369.5 207.7s2.4 8.1.2 12.6c-2.3 4.5-6.3 10-6.3 10s1.6-7.3 2-12.7c.5-5.4 4-9.9 4-9.9" fill="#ffe96b"/></g></g><g id="g4333"><g id="g4335"><path id="path4337" d="M342.5 217s13.7 7 16.5 16c3 8.9 2.7 19.2 2.7 19.2s-15-7.2-17.5-17.1c-2.6-9.9-1.7-18.1-1.7-18.1" fill="#e9c31e"/><path id="path4339" d="m361.7 253-.3-.1c-.6-.3-15.3-7.5-18-17.6-2.5-10-1.7-18-1.7-18.4a.7.7 0 0 1 1.1-.6c.6.3 14 7.4 17 16.5a68 68 0 0 1 2.7 19.4 1 1 0 0 1-.8.8m-18.6-34.8c0 2.6-.1 9.2 1.8 16.7 2.1 8 12.6 14.2 16 16 0-2.9-.3-10.8-2.6-17.7-2.3-7-12-13.2-15.2-15" fill="#9a6104"/></g><g id="g4341"><path id="path4343" d="M347.3 223.3s7.4 4.2 9 9.2 2.6 12 2.6 12-4-6.6-7.4-10.9-4.2-10.3-4.2-10.3" fill="#ffe96b"/></g></g><g id="g4345"><g id="g4347"><path id="path4349" d="M377 227.3s.8 15.5-5.2 22.2-15.6 16-15.6 16-.4-21.4 6.5-28.3 14.2-10 14.2-10" fill="#e9c31e"/><path id="path4351" d="M356.2 266.3a1 1 0 0 1-.8-.7c0-.9-.3-22 6.8-29 7-6.8 14.1-9.9 14.4-10a1 1 0 0 1 1 .6c.1.7 1 16-5.2 22.8a413 413 0 0 1-16.2 16.3m20-37.8c-2.2 1-7.7 4-13 9.2-5.5 5.5-6.2 20.8-6.3 26.1 2.8-2.8 9.8-9.7 14.4-14.8 4.8-5.4 5-17 5-20.5" fill="#9a6104"/></g><g id="g4353"><path id="path4355" d="M360 249.9s1.3-8.4 5.2-11.5 10-6.2 10-6.2-4.6 5.8-7.3 10.5a21 21 0 0 1-7.9 7.2" fill="#ffe96b"/></g></g><g id="g4357"><g id="g4359"><path id="path4361" d="M342.4 238.8s12.3 9.4 13.7 18.6a68 68 0 0 1-.7 19.4s-13.5-9.6-14.3-19.8 1.3-18.2 1.3-18.2" fill="#e9c31e"/><path id="path4363" d="m355.4 277.6-.4-.2c-.6-.4-13.8-10-14.7-20.4a57 57 0 0 1 1.4-18.4 1 1 0 0 1 1.2-.4c.5.4 12.5 9.7 13.9 19.1 1.3 9.3-.5 19.2-.6 19.7a1 1 0 0 1-.8.6M343 240.2a58 58 0 0 0-1 16.7c.6 8.2 10 16.2 13 18.6a66 66 0 0 0 .4-18c-1-7.4-9.6-15-12.4-17.3" fill="#9a6104"/></g><g id="g4365"><path id="path4367" d="M346.2 246s6.5 5.2 7.2 10.4.5 12.4.5 12.4-2.7-7.2-5.4-12-2.3-10.9-2.3-10.9" fill="#ffe96b"/></g></g><g id="g4369"><g id="g4371"><path id="path4373" d="M373.2 254.7s-1.8 15.4-8.8 21S348 288 348 288s1.5-20.4 9.5-26 15.7-7.3 15.7-7.3" fill="#e9c31e"/><path id="path4375" d="M348 288.7h-.3a1 1 0 0 1-.4-.8c0-.8 1.5-20.8 9.7-26.5 8-5.6 15.7-7.4 16-7.5q.4 0 .7.2l.2.6c0 .7-1.9 15.9-9 21.6-7 5.5-16.4 12.2-16.4 12.3zm24.3-33c-2.4.7-8.3 2.7-14.4 7-6.3 4.4-8.4 18.8-9 23.7 2.9-2 9.7-7 15-11.3 5.6-4.5 7.8-15.8 8.4-19.4" fill="#9a6104"/></g><g id="g4377"><path id="path4379" d="M352.7 274s2.6-8 7-10.4c4.5-2.3 11-4.4 11-4.4s-5.6 5-9 9.1-9 5.7-9 5.7" fill="#ffe96b"/></g></g><g id="g4381"><g id="g4383"><path id="path4385" d="M338.1 261.2s11.3 10.5 11.7 19.8-5 23.7-5 23.7-10-15.4-9.8-25.6 3.1-18 3.1-18" fill="#e9c31e"/><path id="path4387" d="m344.9 305.4-.7-.3c-.4-.7-10.1-15.7-10-26a57 57 0 0 1 3.2-18.2 1 1 0 0 1 1.2-.3c.5.5 11.6 10.8 12 20.4.4 9.4-4.8 23.3-5 24zm-6.5-42.9a59 59 0 0 0-2.7 16.6c-.1 8.2 6.6 20 9 23.9a72 72 0 0 0 4.4-22c-.3-7.4-8-15.8-10.7-18.5" fill="#9a6104"/></g><g id="g4389"><path id="path4391" d="M341.1 268.6s6 6 6.2 11.2-.7 12.3-.7 12.3-2-7.4-4.2-12.5-1.3-11-1.3-11" fill="#ffe96b"/></g></g><g id="g4393"><g id="g4395"><path id="path4397" d="M370.2 278s-3.5 16-11.5 21c-8 5.2-18.2 7.4-18.2 7.4s3.3-17.3 12.3-22.3 17.4-6 17.4-6" fill="#e9c31e"/><path id="path4399" d="M340.5 307.1a.7.7 0 0 1-.7-.9c0-.7 3.4-17.7 12.6-22.8a54 54 0 0 1 17.7-6.1 1 1 0 0 1 .8.9c-.2.6-3.6 16.3-11.8 21.5a65 65 0 0 1-18.6 7.4m28.7-28.2c-2.6.5-9.1 2-16 5.8-7.3 4-10.8 16.8-11.7 20.7 2.8-.8 10.5-3 16.8-7s10-15.8 10.9-19.5" fill="#9a6104"/></g><g id="g4401"><path id="path4403" d="M346.5 296.1s3.6-8 8.5-10c5-2.1 12-3.6 12-3.6s-6.4 4.6-10.5 8.6-10 5-10 5" fill="#ffe96b"/></g></g><g id="g4405"><g id="g4407"><path id="path4409" d="M331 282.7s9.2 12.4 7.9 21.7c-1.4 9.2-6 18.4-6 18.4s-10.3-13-8.3-23 6.5-17 6.5-17" fill="#e9c31e"/><path id="path4411" d="m332.8 323.6-.6-.3c-.4-.6-10.4-13.5-8.3-23.7 2-10 6.3-17 6.5-17.3l.6-.3q.4 0 .7.3c.3.5 9.3 12.7 8 22.2a68 68 0 0 1-6.2 18.7zm-1.7-39.5a58 58 0 0 0-5.7 15.8c-1.7 8 5 18.3 7.3 21.5a66 66 0 0 0 5.4-17.1c1.1-7.4-5-17.1-7-20.2" fill="#9a6104"/></g><g id="g4413"><path id="path4415" d="M332.6 290.6s4.8 6.9 4 12c-.8 5.3-3 12.1-3 12.1s-.6-7.7-1.8-13c-1.2-5.5.8-11.1.8-11.1" fill="#ffe96b"/></g></g><g id="g4417"><g id="g4419"><path id="path4421" d="M363 300.4s-6.1 15.3-14.7 18.9-18.6 3.9-18.6 3.9 6.3-16.7 15.8-20 17.6-2.8 17.6-2.8" fill="#e9c31e"/><path id="path4423" d="M329.7 324a1 1 0 0 1-.7-1c.3-.8 6.5-17.1 16.2-20.5a52 52 0 0 1 18-2.9 1 1 0 0 1 .6 1c-.3.7-6.4 15.7-15.2 19.4a60 60 0 0 1-18.9 4m32.3-23c-2.5 0-9 .3-16.2 2.8-7.7 2.7-13.3 14.8-14.8 18.5 2.8-.2 10.5-1 17.2-3.8 6.9-2.9 12.3-14 13.9-17.5z" fill="#9a6104"/></g><g id="g4425"><path id="path4427" d="M337.3 314s4.9-7.3 10-8.4 12-1.3 12-1.3-7 3.4-11.5 6.6-10.5 3.2-10.5 3.2" fill="#ffe96b"/></g></g><g id="g4429"><g id="g4431"><path id="path4433" d="M320.5 300.8s7.8 13.4 5.4 22.4-16.5 22.4-16.5 22.4-.2-18.8 2.9-28.5a57 57 0 0 1 8.2-16.3" fill="#e9c31e"/><path id="path4435" d="M309.4 346.3h-.3l-.5-.7c0-.8-.1-19 3-28.8a57 57 0 0 1 8.3-16.4q.3-.3.7-.3l.6.3c.3.6 7.9 13.8 5.5 23s-16.2 22.2-16.8 22.7zm11-44a56 56 0 0 0-7.4 15 114 114 0 0 0-2.9 26.5c3.5-3.5 13.3-13.6 15.1-20.8 1.9-7.2-3-17.5-4.8-20.8" fill="#9a6104"/></g><g id="g4437"><path id="path4439" d="M320.5 306.3s4 7.4 2.7 12.5-4.3 11.6-4.3 11.6.2-7.7-.4-13.2 2-10.9 2-10.9" fill="#ffe96b"/></g></g><g id="g4441"><g id="g4443"><path id="path4445" d="M355 319s-8.4 15.3-18.1 18c-9.6 2.7-25.2 8.1-25.2 8.1s13.3-22.8 24-25.2 19.3-.8 19.3-.8" fill="#e9c31e"/><path id="path4447" d="M311.7 345.9a.8.8 0 0 1-.7-1.2c.6-1 13.6-23.1 24.5-25.5a59 59 0 0 1 19.6-.8 1 1 0 0 1 .6 1c-.4.7-8.8 15.6-18.6 18.3-9.5 2.7-25 8-25.2 8.1zm36.3-26.5q-6.3 0-12.2 1.3c-8.5 1.8-19 17.7-22.4 23 4.5-1.5 15.8-5.3 23.3-7.4 7.9-2.2 15-13.3 17.1-16.6q-1.8-.2-5.8-.3" fill="#9a6104"/></g><g id="g4449"><path id="path4451" d="M325.5 330.3s6.2-7.2 11.8-7.7 13.2 0 13.2 0-8 2.8-13.3 5.6-11.7 2-11.7 2" fill="#ffe96b"/></g></g><g id="g4453"><path id="path4455" d="M305.8 312.6s8.8 12.4 6.5 19.4a92 92 0 0 1-12.8 19.9s10.8-10.2 19.2-12 21.4 3.6 21.4 3.6-7.7 14.7-24.4 15q-25.2.3-31.2 3.3c-3.8 2-20.5 9.9-40 9.9-19.4 0-28.2 1.4-41.5 8.6-12.3 6.7-17.4 9-17.4 9s-7-.4-8.1-2c-1.1-1.5-1-3.1-1-3.1s26.1-15.7 48-16.9c22-1.1 29.6 1.1 46.7-4.6 13.5-4.6 19.9-10.4 21.5-21.7s13-28.4 13-28.4" fill="#e9c31e"/><path id="path4457" d="M185.6 390.1c-1.8 0-7.5-.6-8.7-2.3a6 6 0 0 1-1-3.7q0-.4.3-.6c.3-.1 26.4-15.8 48.3-17l16-.3c11.1-.1 18.4-.2 30.5-4.2 13.8-4.7 19.4-10.4 21-21 1.5-11.4 12.7-28.1 13.2-28.8a1 1 0 0 1 1.2 0c.4.5 9 12.8 6.6 20a63 63 0 0 1-8.6 14.6c3.9-3 9.3-6.6 14.1-7.6a19 19 0 0 1 4-.4 56 56 0 0 1 18.3 4.5v.6c-.1.1-8.1 15-25 15.3-21 .3-28.3 2-30.9 3.3a94 94 0 0 1-40.4 10c-19 0-27.7 1.2-41.1 8.5a357 357 0 0 1-17.8 9.1m-8.3-5.5q-.1.9.8 2.3c.6.8 4.2 1.5 7.4 1.7 1-.5 6.3-3 17.2-9 13.5-7.3 22.7-8.6 41.8-8.6 20.6 0 37.8-8.8 39.7-9.8q6-3.2 31.5-3.5c14-.2 21.5-10.9 23.3-13.8-2.4-1-10-3.6-16.5-3.6q-2 0-3.7.3a56 56 0 0 0-18.8 11.8.7.7 0 0 1-1.1-1c0-.1 10.5-12.8 12.7-19.6 1.8-5.5-3.9-14.9-5.8-17.9a88 88 0 0 0-12.4 27.2c-1.5 11.3-7.7 17.5-22 22.3a85 85 0 0 1-30.8 4.3q-6.7-.1-16 .4c-20.2 1-44.1 14.7-47.3 16.5" fill="#9a6104"/></g><g id="g4459"><path id="path4461" d="M305.8 318.4s2.5 10.7-.2 15.2-8.9 9.5-8.9 9.5-.2-8.8 2.8-13.6c2.9-4.7 6.3-11 6.3-11" fill="#ffe96b"/></g><g id="g4463"><path id="path4465" d="M306.5 349.4s8-6.6 14-6.6c5.8 0 12.2 1.6 12.2 1.6s-7.7 8.6-26.2 5" fill="#ffe96b"/></g></g></g><g id="g4467"><g id="g4469"><g id="g4471"><path id="path4473" d="M278.9 384.2s-26-15.7-48-16.9c-21.9-1.1-34.7-.3-51-5.6-13.6-4.5-25.6-8.8-23.7-20 .4-2.5.1-5.9-.6-7.4l-2.7-4.7-1.3 3.7c-.5-2-1.5-4.3-3.4-4-3.2.5-3.9 1.4-3.9 1.4s-1.1-5.4-4.5-4c.2-5.6.7-11.3.2-12.3-.6-1.6-2.5-3.6-2.5-3.6l-3.4 3.6c-.4-1.7-1.2-3.3-2.8-3.2-3.3.1-4 1-4 1s-.5-5-3.5-4.7c.5-5.5 1.2-11.3.8-12.3a20 20 0 0 0-2.3-4l-3.5 3.3c-.4-1.7-1-3.4-2.6-3.5-3.2-.3-4 .5-4 .5s0-2-1-3.5c1.4-6 3.8-13.7 3.5-15-.3-1.7-1.5-4.2-1.5-4.2l-3.7 2.3c0-1.6-.4-3.4-1.9-3.8-2.8-.9-3.6-.3-3.6-.3s.3-3.8-1.5-5c2-4.1 4.1-8 4.1-9 .1-1.5-.5-4.1-.5-4.1l-3.8 1.3c.3-1.5.3-3.2-.8-3.9-2.4-1.4-3.2-1.1-3.2-1.1s.7-2.2.2-3.8c3.2-4.5 7.3-9.8 7.6-11 .3-1.5 0-4.1 0-4.1l-3.8.7c.5-1.5.8-3.1-.3-4-2-1.8-3-1.6-3-1.6s1.3-2.5.8-4.3c3.8-3.7 8.8-8.2 9.2-9.3.6-1.4.8-4 .8-4H106c.8-1.3 1.3-2.8.4-3.8-1.7-2-2.5-2-2.5-2s2.8-3.8.5-5.5l-.7-.5c4.5-2.4 10.2-5 10.8-6 1-1 1.8-3.3 1.8-3.3l-3.5-1c1-1 2-2.3 1.5-3.4-1-2.4-1.8-2.6-1.8-2.6s3.7-2.7 2-5-3.9-.8-3.9-.8 1-4-1.5-5.7c-2.6-1.7-5.6.8-5.6.8s.8-3.4-2.3-4c-3.1-.4-6 2.8-6 2.8s-2-2.2-4.2-1.4c-2.4.9-1.8 4-1.8 4s-3.7-.1-3.4 3.7l-3-1s.6.5 1 4c.2 3.4-1 5.6.1 10.3q.7 2.3 2.1 4.2c-1.9 1.3-3 3.6-3 3.6s-2.5-1.6-4.6 0c-2 1.5-.5 4.5-.5 4.5s-3.8.9-2.4 4.6c-1.6-.1-3.2 0-3.2 0s.7.2 2 3.6.7 6 3.3 10.3l.6.9c-1 1.5-1.5 3.2-1.5 3.2s-3-1.3-4.8.7.3 4.7.3 4.7-3.7 1.6-1.6 5.2c-1.7 0-3.2.4-3.2.4s.7.2 2.7 3.4 1.7 5.9 5.1 10l1 .9-.5 2s-3.1-.7-4.6 1.6 1 4.6 1 4.6-3.4 2.1-.7 5.3c-1.7.4-3.1 1-3.1 1s.7 0 3.2 3c2.4 2.8 2.7 5.4 6.7 8.9l1.8 1.2v2s-3.4 0-4.5 2.8c-1 2.7 2.2 4.5 2.2 4.5s-3.1 3.2.5 5.8c-1.7.8-3.1 1.8-3.1 1.8s.8-.1 4 2.2 4.2 5 8.9 7.4c-.9 2.8 0 5.8 0 5.8s-3.6.8-4.3 3.8 3 4.2 3 4.2-2.7 4 1.6 5.9l-3 2.6s.9-.4 4.7 1.3 5.3 4.3 11 5.7q1 .3 2 .3c-.7.3-3.6 1.6-4.1 4.4-.6 3.1 3.3 3.8 3.3 3.8s-2.7 4.3 1.7 5.7l-3 3s1-.4 5 .8c3.9 1.2 5.4 3.6 11.4 4.4h3q-1.7 1.1-2.2 3.7c-.2 3.2 3.7 3.5 3.7 3.5s-2 4.3 2 5.3l-.6.7c-1.3 1.6-1.6 1.7-1.6 1.7s2.1.8 3.7 1.2c1.7.5 8.2-.2 8.2-.2 16.7.3 23.5-5.5 27.3-3.5s30.7 9.9 50.1 9.9 28.3 1.4 41.6 8.6c12.3 6.7 17.4 9 17.4 9s7-.4 8.1-2c1.1-1.5.9-3.1.9-3.1" fill="#00ab4e"/><path id="path4475" d="M269.9 390.9q-.4 0-.7-.2a351 351 0 0 1-17.4-9c-13.3-7.3-21.9-8.5-40.9-8.5-19.8 0-46.8-8-50.8-10-1-.7-3.2-.1-6.3.8-4.5 1.2-10.7 3-20.2 2.8a79 79 0 0 1-8.7.2l-3.8-1.3a1.5 1.5 0 0 1-.2-2.7l.5-.5q-.9-.8-1.2-1.6a5 5 0 0 1-.3-3.2c-1.8-.7-3.5-2.2-3.3-4.7q0-1 .6-2.1c-4-.5-6.3-1.8-8.2-2.8a18 18 0 0 0-7.6-2.5 1.5 1.5 0 0 1-1.6-2.4l1.6-1.7q-1-.8-1.2-1.7a5 5 0 0 1 0-3.4c-1.7-.8-3.3-2.5-2.8-5q.5-2.1 1.8-3.3c-3-1-4.7-2.2-6.3-3.3a20 20 0 0 0-7.3-3.4 1.5 1.5 0 0 1-1.4-2.5l1.6-1.4q-1-1-1.2-2-.5-1.9.1-3.3c-1.5-1-3-2.6-2.5-5.2a7 7 0 0 1 4-4.5q-.2-1.6 0-4c-2.4-1.5-3.8-3-5-4.3q-1.3-1.5-3-2.6a12 12 0 0 0-3.2-2 1.5 1.5 0 0 1-.8-2.7l1.6-1q-.8-1.3-.8-2.2 0-1.7.6-2.8c-1.3-1.3-2.4-3.2-1.5-5.5s2.9-3 4.3-3.4l-1.2-.9c-2.7-2.3-3.8-4.3-4.9-6q-.8-1.6-2-3.1a12 12 0 0 0-2.5-2.5 1.5 1.5 0 0 1 0-2.8l1.4-.5q-.4-1.3-.3-2.2a5 5 0 0 1 1.2-2.4c-.9-1.4-1.5-3.4-.2-5.3q1.5-2.2 4.6-2.2l-.4-.5c-2.3-2.7-3-4.9-3.8-6.8a19 19 0 0 0-3.6-6.1 1.5 1.5 0 0 1 .3-2.8l1.6-.3q-.2-1.3 0-2.2a5 5 0 0 1 1.6-2.2c-.7-1.5-1-3.6.6-5.2q1.5-1.5 3.9-1.6h1l.7-1.3v-.1c-1.8-3-2.2-5.2-2.6-7.1a19 19 0 0 0-2.4-6.5 1.5 1.5 0 0 1 .9-2.7h1.4q0-1.2.5-2 .8-1.3 1.8-1.8c-.4-1.6-.3-3.6 1.5-5q1.4-1 3-1 1 0 2 .4.5-1 1.5-2-1.2-1.8-1.6-3.5c-.7-3.2-.5-5.4-.3-7.3q.2-1.5.1-3.3a12 12 0 0 0-.5-3.2 1.5 1.5 0 0 1 1.6-2.3l1.2.3a4 4 0 0 1 3.2-2.9c0-1.5.7-3.3 2.7-4q.9-.4 1.6-.4 2 .2 3.2 1c1.1-.9 3-2.2 5.3-2.2h1a4 4 0 0 1 3.4 3q1-.4 2.2-.4 1.6 0 2.8.8c2 1.3 2.4 3.4 2.4 5 1 .1 2.3.5 3.4 2q.9 1.2.7 2.7-.5 2-1.8 3.2.6.6 1 1.9.7 1-.2 3.2l1.3.3a1.5 1.5 0 0 1 1 2c0 .3-1 2.6-2 3.8-.6.8-2.4 1.8-7 4.1l-2.4 1.3.5 1.3q.1 2.1-.8 3.7l1.6 1.7q1 .9.6 3.3h1.6q.6 0 1.1.4t.4 1.2c0 .3-.3 2.8-.9 4.3a30 30 0 0 1-5.7 6.2l-3.3 3.1q0 1.5-.4 2.9l2 1.4c.7.5 1.4 1.6 1.2 3.2l1.6-.3a1.5 1.5 0 0 1 1.9 1.4c0 .3.2 2.9-.2 4.5-.2 1-1.4 2.8-4.7 7.3l-2.7 3.7v2.3q1 .3 2.2 1t1.7 3l1.5-.5a1.5 1.5 0 0 1 2 1c.1.3.7 2.9.6 4.6 0 1-1 3-3.5 8l-.3.6c.8 1 1 2.5 1.2 3.6q1 0 2.6.6 1.6.3 2.5 2.8l1.7-1.1a1.5 1.5 0 0 1 2.2.5c.1.3 1.4 2.8 1.7 4.6.2 1-.4 3.4-1.9 9.1l-1.5 6 .6 1.7h2.9q1.7-.1 3.2 2.3l1.7-1.6a1.5 1.5 0 0 1 2.2.2c.2.2 2 2.5 2.6 4.3.4 1 .2 3.5-.4 9.8l-.2 1.8c1.6.6 2.5 2.2 3 3.8l3-.4c.9 0 2.2.3 3.2 2l1.8-2q.5-.4 1-.4h.1q.6 0 1.1.5c.2.2 2 2.3 2.8 4a34 34 0 0 1 0 11.1c2 .3 3.2 2.1 3.8 3.6a14 14 0 0 1 3.3-.7q1.5-.1 3 1.5v-.1a1.5 1.5 0 0 1 2.7-.3c0 .1 2 3.1 2.7 4.7 1 2 1.2 5.8.8 8.3-1.6 9.6 8.3 13.7 22.6 18.3 12.7 4.2 23.3 4.6 38 5.1l12.7.5c22 1.2 47.6 16.4 48.7 17.1q.6.4.7 1c0 .3.3 2.3-1.2 4.3-1.3 1.9-6.4 2.5-9.2 2.7zm-111-31q1.5 0 2.6.6c3.7 2 30.4 9.7 49.4 9.7 19.3 0 28.6 1.3 42.3 8.8 10.3 5.6 15.6 8.2 17 8.8 3-.2 6-.8 6.6-1.4q.5-.8.6-1.4c-4.4-2.5-27.3-15.2-46.5-16.2l-12.7-.5a130 130 0 0 1-38.8-5.2c-12.6-4.1-26.9-8.8-24.7-21.7.4-2.3 0-5.3-.5-6.4l-1-1.9-.2.7q-.5 1-1.5 1t-1.4-1.2q-.9-2.9-1.6-2.8c-2.2.3-2.9.8-3 .9a1.5 1.5 0 0 1-2.6-.7c-.3-1-1.1-3-2-3h-.6q-.8.3-1.4-.1-.7-.5-.7-1.3l.2-3c.2-3.5.5-7.8.2-8.7l-1.1-1.8-2.4 2.4q-.7.6-1.5.4-.8-.3-1-1.1c-.2-1-.7-2.1-1.2-2.1-2.2 0-3 .5-3 .6a1.5 1.5 0 0 1-2.6-1c0-1-.7-3.3-1.8-3.3q-.7.1-1.2-.4t-.5-1.2l.3-3.2c.4-3.4.8-7.7.6-8.6q-.4-1-1.2-2l-2.3 2a1.5 1.5 0 0 1-2.4-.9c-.1-.5-.5-2.2-1.2-2.2a7 7 0 0 0-3 .1 1.5 1.5 0 0 1-2.4-1c0-.5-.2-2-.8-2.9q-.3-.5-.1-1l1.6-6.6c.9-3.2 1.9-7.1 1.8-8q-.1-.8-.7-2-1 .7-2.3 1.3a1.5 1.5 0 0 1-2.2-1.3q0-2-.8-2.4a6 6 0 0 0-2.6-.4 1.5 1.5 0 0 1-2.1-1.5c0-1.1-.1-3.1-.9-3.6q-1-.9-.5-2l.8-1.6c1.4-2.6 3.1-6 3.2-6.7l-.1-2-2.3.7q-.8.2-1.4-.3-.6-.7-.4-1.4.2-2-.2-2.3-2-1.1-2.1-1a1.5 1.5 0 0 1-1.7-1.9c.1-.4.5-2 .2-3q-.2-.6.2-1.2l3-4.3c1.8-2.4 4-5.4 4.3-6.1l.1-2-2.3.3q-.8.1-1.3-.5t-.2-1.5q.6-1.9.2-2.3a6 6 0 0 0-2-1.2 1.5 1.5 0 0 1-1.4-2.2c.3-.6 1-2.2.7-3.2q-.2-.8.3-1.4l3.9-3.8c2-2 4.7-4.5 5-5.1l.5-1.8h-2.2a1.5 1.5 0 0 1-1.2-2.3q1-1.8.6-2.1a6 6 0 0 0-1.6-1.5 1.5 1.5 0 0 1-1-2.4c.4-.6 1.2-2 1.1-3l-.3-.4-.4-.3a1.5 1.5 0 0 1-.1-2.7l4.4-2.3c2.4-1.2 5.5-2.8 6-3.3q.5-.6.8-1.4l-1.9-.7a1.5 1.5 0 0 1-.5-2.5q1.4-1.3 1.1-1.7l-1-1.7a1.5 1.5 0 0 1-.3-2.6c.5-.4 1.7-1.5 1.8-2.4l-.1-.5q-.8-.7-1.1-.6l-.8.2q-.9.4-1.6-.1t-.6-1.6s.7-3-1-4l-1-.4c-1.2 0-2.4.8-2.7 1a1.5 1.5 0 0 1-2.5-1.4c0-.3.2-1.2-.2-1.7q0-.2-.9-.5h-.4c-1.8 0-3.6 1.7-4.2 2.3q-.4.5-1.1.5-.6 0-1.1-.5c-.3-.4-1.6-1.4-2.6-1-1.1.4-.8 2.4-.8 2.4a1.5 1.5 0 0 1-1.6 1.7q-.6 0-1.5.6-.4.5-.3 1.5a1.5 1.5 0 0 1-2 1.5H85l.1 1.4q.1 2.2-.1 4c-.2 1.8-.4 3.5.3 6.2q.3 1.5 1.9 3.6a1.5 1.5 0 0 1-.4 2.1c-1.5 1.1-2.5 3-2.5 3a1.5 1.5 0 0 1-2.1.7s-1-.5-1.9-.5q-.6 0-1.1.3c-1 .8-.1 2.7-.1 2.7a1.5 1.5 0 0 1-1 2.1c-.2 0-1 .4-1.4 1q-.2.6.1 1.7a1.5 1.5 0 0 1-1.5 2H75l.6 1.6q.8 2.1 1 3.9a17 17 0 0 0 2.7 6.9q.6.8 0 1.7a9 9 0 0 0-1.3 2.8 1.5 1.5 0 0 1-2 1l-1.5-.3q-1 0-1.6.6c-1 1 .4 2.8.4 2.8a1.5 1.5 0 0 1-.6 2.3q-.7.1-1.3 1.3-.2.6.4 1.7a1.5 1.5 0 0 1-1.2 2.3h-.4l1 1.5q1.2 2 1.8 3.9c.7 1.8 1.4 3.6 3.3 5.9l.8.7q.7.7.4 1.6l-.4 1.8a1.5 1.5 0 0 1-1.9 1.3h-.8q-1.5 0-2.2.9c-.7 1.1.8 2.7.9 2.7a1.5 1.5 0 0 1-.3 2.3c-.2.2-.9.8-1 1.5q0 .7.7 1.7a1.5 1.5 0 0 1-.8 2.4h-.4l1.2 1.4q1.5 1.8 2.3 3.5c1 1.7 2 3.4 4.2 5.3l1.6 1q.9.6.8 1.5v1.8a1.5 1.5 0 0 1-1.5 1.7s-2.4 0-3.1 1.7c-.6 1.5 1.4 2.7 1.5 2.7a1.5 1.5 0 0 1 .3 2.4 3 3 0 0 0-.8 1.9q0 .7 1.2 1.6a1.5 1.5 0 0 1-.2 2.5l-.6.3 1.7 1.2q2 1.5 3.3 3a19 19 0 0 0 5.3 4.3q1 .5.8 1.8c-.7 2.2 0 4.8 0 4.9a1.5 1.5 0 0 1-1 1.9s-2.8.6-3.3 2.7c-.3 1.6 2 2.4 2 2.4a1.5 1.5 0 0 1 .9 2.3 3 3 0 0 0-.6 2.3q.3.8 1.5 1.3a1.5 1.5 0 0 1 .3 2.6l-.7.5 2 .8q2.5 1.1 4 2.4c2 1.3 3.6 2.5 7 3.3l1.6.2a1.5 1.5 0 0 1 .5 3c-.5.1-2.9 1.1-3.3 3.2-.3 1.6 2 2 2.1 2a1.5 1.5 0 0 1 1 2.3c-.2.4-.8 1.6-.4 2.4q.2.7 1.4 1a1.5 1.5 0 0 1 .5 2.6l-.7.7 2 .5q2.5.8 4.2 2c2 1 3.7 2 7 2.4h2.7q1-.1 1.5.8t-.4 1.8q-1.5 1.2-1.6 2.7c-.1 1.7 2.2 1.9 2.3 1.9a1.5 1.5 0 0 1 1.2 2.1c-.2.4-.6 1.7-.2 2.4q-.1.4 1.3.9a1.5 1.5 0 0 1 .8 2.4l-.6.7 1.3.5h1.7c2.4 0 6-.3 6-.3h.1c9.1.1 15.1-1.5 19.5-2.7q3.5-1.1 5.9-1.2" fill="#005a24"/></g><g id="g4477"><path id="path4481" d="m121.6 365.8-1-.3a1.5 1.5 0 0 1 1.7-2.5 1.5 1.5 0 0 1-.7 2.8" fill="#005a24"/></g></g><g id="g4483"><g id="g4485"><g id="g4487"><path id="path4489" d="M110.4 183.4s5-2.8 3.9-5.1c-1-2.4-1.8-2.6-1.8-2.6s3.7-2.7 2-5-3.9-.8-3.9-.8 1-4-1.5-5.7c-2.6-1.7-5.6.8-5.6.8s.8-3.4-2.3-4c-3.1-.4-6 2.8-6 2.8s-2-2.2-4.2-1.4c-2.4.9-1.8 4-1.8 4s-4.4-.2-3.2 4.8a32 32 0 0 0 6.9 14.4c3.1 3 12.6 4 17.5-2.2" fill="#ccdde7"/><path id="path4491" d="M100.3 188.4c-3.2 0-6.2-1-7.8-2.4a33 33 0 0 1-7-14.7q-.6-2.5.5-4c.8-1 2-1.3 2.7-1.3-.1-1.4.2-3.4 2-4l1.3-.3a5 5 0 0 1 3.2 1.4c1-.9 3.4-3 6-2.5q1.5.2 2.3 1.3.6 1.1.6 2.1 1.1-.8 3-1a4 4 0 0 1 2.3.8c2 1.3 2 4 1.9 5.3l.9-.1c.7 0 1.7.2 2.7 1.4q.6 1 .5 2c-.2 1.4-1.4 2.6-2.1 3.3q.6.5 1.4 2.4c1.2 2.6-3.1 5.2-4 5.7-2.3 3-6.1 4.6-10.4 4.6M89.2 167c-.4 0-1.7.1-2.4 1q-.9 1-.3 3.2a31 31 0 0 0 6.7 14.1c1.4 1.4 4.2 2.2 7.1 2.2a12 12 0 0 0 9.9-4.4c1.2-.7 4.3-3 3.6-4.5-.8-2-1.5-2.3-1.5-2.3l-.3-.4q0-.3.2-.5s2-1.5 2.2-3q0-.7-.3-1.3-.8-1-2-1l-1.2.3a.5.5 0 0 1-.7-.5s.9-3.7-1.4-5.2a3 3 0 0 0-1.7-.5c-1.7 0-3.3 1.3-3.3 1.3a.5.5 0 0 1-.8-.5s.3-1.4-.4-2.4q-.5-.7-1.5-1c-2.8-.4-5.5 2.6-5.5 2.6l-.4.2-.4-.2s-1.2-1.4-2.8-1.4l-.9.2c-1.9.7-1.4 3.3-1.4 3.5l-.1.4z" fill="#808285"/></g><g id="g4493"><path id="path4495" d="M93.7 201.4s2.4-4.7 6.6-7.4c4-2.6 13.4-6.8 14.2-8 1-1 1.8-3.3 1.8-3.3s-2.3-.6-3.8-1.2c-1.4-.5-4.7.1-4.7.1l-2-5.2c-.8-1.6-1.5-4.2-1.5-4.2s-1.2 1.3-2.4 1.7-4 2.7-4 2.7-.3-2.3-1.5-3.4-2.2-3.7-2.2-3.7-.2 1.2-2.5 2c-2.4 1-2.4 1.6-2.4 1.6s-.5-1.4-2.3-2.4-4-1.7-4-1.7.5.5.8 4c.3 3.4-1 5.6.2 10.3s7.2 8.7 6.5 12.2c-.7 3.6-.4 7.1-.4 7.1s1.7 2.8 3.7-1.3" fill="#00ab4e"/><path id="path4497" d="M91.4 204.4c-1.3 0-2-1.2-2-1.3l-.2-.3c0-.2-.3-3.7.5-7.3.3-1.6-1.2-3.5-2.8-5.5-1.5-1.9-3.2-4-3.7-6.4-.8-3-.6-5-.4-7a18 18 0 0 0-.5-7 .8.8 0 0 1 .8-1.2s2.5.6 4.3 1.6q1.4 1 2 1.8l2-1c1.8-.6 2-1.4 2-1.4q0-.6.7-.7.5 0 .8.5c.2.7 1.2 2.6 2 3.5q1.1 1.2 1.5 2.6c1-.7 2.4-1.8 3.3-2.1s1.8-1.2 2-1.5a.7.7 0 0 1 1.3.3s.7 2.5 1.4 4l1.9 4.8 2.6-.3q1.2 0 2 .3c1.3.6 3.6 1.2 3.6 1.2a1 1 0 0 1 .5 1s-1 2.4-1.9 3.5q-.8 1-6.7 4c-2.7 1.3-5.8 3-7.7 4.2-4 2.5-6.3 7-6.4 7q-1.2 2.7-3 2.7m-.7-2q.3.4.7.5c.1 0 .8-.2 1.6-1.9.1-.2 2.6-4.9 6.8-7.6a81 81 0 0 1 8-4.3c2.5-1.3 5.7-3 6.2-3.5s1-1.7 1.3-2.4l-3-1-1.4-.2-3 .3a1 1 0 0 1-.8-.4l-2-5.2-1.2-3.2q-.7.7-1.8 1.1c-.8.3-2.6 1.7-3.6 2.6a.7.7 0 0 1-1.3-.4c0-.6-.5-2.3-1.3-3q-1.1-1.2-1.8-2.8-.7.7-2.2 1.3l-2 1q0 .5-.6.6a1 1 0 0 1-.8-.6 4 4 0 0 0-1.8-2q-1.3-.7-2.6-1a21 21 0 0 1 .2 6.5c-.1 1.8-.3 3.6.3 6.5.5 2 2 4 3.5 5.8 1.8 2.3 3.5 4.4 3 6.7-.6 3-.4 5.9-.4 6.7" fill="#005a24"/></g><g id="g4499"><path id="path4501" d="M113.1 179.3s.2-1-.8-1.4-1.3-1.3-1.3-1.3 3-4.3 2-5c-.8-.7-3 .1-3 .1s0-5.6-1.6-6.1c-1.5-.6-4.3 1-4.3 1s-1.4 1-1.6.5.4-3-.7-3.8-3 0-3.3.4c-.4.6-3 2.3-3.2 2a4 4 0 0 0-3-1.8c-1.5 0-1.7 1.9-1.6 2.8.2 1-.3 1.3-.3 1.3s-2.2 0-2 .7c.4.9 2 1.4 2.4 1 .5-.2 1.2-1.5 1.2-1.5s1.9 0 2.4-.6q1-.9 1.1-.7s1.6 4.9 3 4.4 3.2-3 3.6-2.4 1.7 2.2 3.4 1.2c1.8-1 4 2.4 4 2.4s-1.5 1.8-.9 3.3 1.4 1.8 1.4 1.8 0 1 .8 1.5 2.1.7 2.3.2" fill="#ffffff"/></g></g><g id="g4503"><g id="g4505"><path id="path4507" d="M104.1 206.3s4-4.2 2.3-6.3-2.5-2-2.5-2 2.8-3.8.5-5.5c-2.4-1.8-4 .2-4 .2s-.2-4.2-3.3-5.2-5.4 2.5-5.4 2.5-.2-3.7-3.5-3.3-5.1 4.5-5.1 4.5-2.6-1.6-4.7 0c-2 1.5-.5 4.5-.5 4.5s-4.5 1-1.9 5.7a33 33 0 0 0 11.2 12.3c4 2 13.9.2 17-7.4" fill="#ccdde7"/><path id="path4509" d="M91 215q-2.4 0-4-.8a34 34 0 0 1-11.4-12.5q-1.4-2.5-.6-4.3a4 4 0 0 1 2.2-2c-.5-1.3-.7-3.4 1-4.7q1-.7 2.2-.7 1.6 0 2.5.6c.6-1.2 2.4-4 5.3-4.4 2.3-.3 3.4 1.3 3.8 2.6.8-.8 2.2-2 4-2l1.2.2c2.5.8 3.3 3.4 3.5 4.8q.6-.5 1.8-.5 1.1 0 2.2.8 1 .6 1 1.8c.3 1.4-.5 3-1 3.8q.8.4 2.1 2c2 2.3-1.6 6.2-2.2 6.9-2.4 5.8-8.7 8.4-13.6 8.4m-10.6-24q-1 0-1.7.5c-1.7 1.3-.4 4-.4 4a.5.5 0 0 1-.3.7s-1.6.4-2.1 1.6q-.6 1.3.6 3.4a33 33 0 0 0 11 12.1q1.3.6 3.5.7c4.6 0 10.5-2.5 12.7-7.9v-.2c1.1-1 3.5-4.1 2.4-5.6-1.5-1.7-2.2-1.8-2.2-1.8q-.3 0-.5-.3v-.5s1.6-2 1.4-3.7q0-.7-.7-1.1-.9-.6-1.6-.6c-1 0-1.8.8-1.8.8q-.2.2-.6.1l-.3-.4s-.2-4-2.9-4.8l-1-.2c-2.1 0-3.7 2.4-3.8 2.5l-.5.2-.4-.5s-.3-3-3-2.8c-2.8.4-4.6 4.2-4.7 4.3l-.7.2s-1.1-.7-2.4-.7" fill="#808285"/></g><g id="g4511"><path id="path4513" d="M92.7 229.2s1-5.3 4.4-9.2c3.4-4 11.4-10.8 12-12.2s.7-4 .7-4-2.5.2-4.1 0c-1.6-.1-4.7 1.5-4.7 1.5l-3.7-4.6c-1.1-1.4-2.6-3.8-2.6-3.8s-.8 1.7-2 2.5c-1 .8-3 3.8-3 3.8s-1.1-2.1-2.6-2.9-3.4-3-3.4-3 .3 1.2-1.9 2.8c-2 1.6-2 2.2-2 2.2s-.8-1.3-2.9-1.7c-2-.5-4.6-.4-4.6-.4s.7.3 2 3.7.7 6 3.3 10.3c2.6 4.5 9.8 6.5 10.1 10.3.4 3.8 1.7 7.2 1.7 7.2s2.5 2.2 3.3-2.5" fill="#00ab4e"/><path id="path4515" d="M90.7 233a3 3 0 0 1-1.8-.7l-.2-.3c0-.2-1.4-3.6-1.7-7.4-.2-1.7-2.2-3.2-4.4-4.7-2-1.5-4.4-3.1-5.6-5.3-1.7-2.8-2-4.9-2.4-6.9q-.3-1.7-1-3.5a10 10 0 0 0-1.7-3.3.8.8 0 0 1 .4-1.4s2.6-.1 4.8.3a6 6 0 0 1 2.6 1.2l1.7-1.5c1.6-1.3 1.6-2.1 1.6-2.1q-.1-.6.4-.8t.9.2c.5.6 2 2.3 3.1 2.8q1.5 1 2.3 2.2c.7-1 1.8-2.5 2.6-3s1.5-1.8 1.7-2.2a.7.7 0 0 1 1.3-.1s1.5 2.4 2.6 3.7c1 1 2.5 3.2 3.3 4.2 1-.5 3.2-1.5 4.5-1.3h4q.4 0 .7.2l.2.6c0 .1-.3 2.7-.9 4.1q-.5 1.2-5.5 6c-2.4 2.2-5 4.7-6.5 6.5a22 22 0 0 0-4.3 8.9c-.5 3-1.7 3.6-2.7 3.6m-.7-1.7.7.2q.8 0 1.3-2.4c0-.2 1-5.6 4.5-9.6 1.6-1.9 4.3-4.4 6.6-6.6s5-4.8 5.2-5.4q.5-1.4.7-2.9h-3.4c-1.2-.1-3.5 1-4.3 1.4q-.5.2-1-.3l-5.6-7.4q-.6 1-1.5 1.7c-.7.5-2.2 2.5-3 3.6a1 1 0 0 1-1.2 0c-.3-.6-1.2-2-2.3-2.6-1-.5-2-1.5-2.6-2.2q-.5.8-1.8 1.9c-1.3 1-1.6 1.5-1.7 1.6a.8.8 0 0 1-1.3.4s-.8-1-2.5-1.4l-3-.3a22 22 0 0 1 2.2 6.4 18 18 0 0 0 2.3 6.5c1 1.9 3.1 3.3 5.1 4.8 2.5 1.7 4.8 3.4 5 5.7.3 3.2 1.4 6 1.6 6.9" fill="#005a24"/></g><g id="g4517"><path id="path4519" d="M105.6 201.4s-.1-1-1.2-1.2-1.7-.8-1.7-.8 1.6-5.3.5-5.7c-1-.4-3 1-3 1s-1.7-5.5-3.4-5.6-4 2.3-4 2.3-1 1.4-1.4 1c-.4-.5-.6-3.2-2-3.6s-3 .8-3.1 1.4-2.2 3.1-2.5 2.8c-.4-.2-2-1.3-3.5-.8-1.6.5-1.3 2.4-.8 3.3.4 1 0 1.4 0 1.4s-2.2.6-1.7 1.3 2.3.7 2.6.3.8-2 .8-2 1.8-.4 2.2-1.2q.8-1.2 1-1.1c.2.1 3 4.4 4.2 3.5s2.2-4 2.9-3.4 2.3 1.7 3.8.2c1.4-1.6 4.6 1.2 4.6 1.2s-1 2.2.1 3.5c1 1.3 2 1.5 2 1.5s.2 1 1.2 1.2 2.3 0 2.4-.5" fill="#ffffff"/></g></g><g id="g4521"><g id="g4523"><path id="path4525" d="M100.8 229.8s3.4-5 1.2-6.8c-2-1.8-3-1.6-3-1.6s2.3-4.4-.4-5.7a3 3 0 0 0-4.1 1s-1-4.3-4.3-4.8-5 3.5-5 3.5-.9-3.6-4-2.6c-3.3 1-4.5 5.5-4.5 5.5s-3-1.3-4.8.7.3 4.7.3 4.7-4.4 1.9-.8 6.2c3.5 4.2 9 9.2 13.5 10.5s14.1-2.3 16-10.6" fill="#ccdde7"/><path id="path4527" d="M87 241.2q-1.3 0-2.2-.3A35 35 0 0 1 71 230.2q-2-2.3-1.4-4.2t1.9-2.5c-.8-1.2-1.4-3.3 0-4.9q1.2-1.2 3.2-1.2l1.7.2c.4-1.2 1.7-4.5 4.6-5.3l1.2-.2c1.7 0 2.6 1.2 3.1 2.2.8-1.3 2.4-3.2 5-2.9 2.7.4 4 2.9 4.4 4.3q.7-.9 2.3-1 .9 0 1.8.5t1.5 1.7c.4 1.4-.1 3.2-.5 4.1a8 8 0 0 1 2.6 1.6c2.3 2-.6 6.6-1.1 7.4-1.7 7.6-9.6 11.2-14.4 11.2m-12.3-22.8q-1.5 0-2.4 1c-1.5 1.5.2 3.9.3 4a.5.5 0 0 1-.2.8s-1.6.6-1.9 2q-.3 1.5 1.2 3.4c3.6 4.2 9 9 13.4 10.3q.7.3 1.8.3c4.7 0 12-3.7 13.4-10.5l.1-.2c.9-1.3 2.8-4.9 1.3-6.1-1.7-1.5-2.5-1.5-2.6-1.5l-.4-.2v-.5s1.1-2.4.6-4q-.3-.7-1-1t-1.3-.4c-1.4 0-2 1.1-2 1.1l-.6.3-.4-.4s-.9-4-3.8-4.4c-3-.3-4.5 3.2-4.5 3.2q-.1.4-.5.3l-.4-.3c0-.1-.7-2.5-2.6-2.5l-1 .1c-2.9 1-4 5.2-4 5.2a.5.5 0 0 1-.7.3q-.1-.2-1.8-.3" fill="#808285"/></g><g id="g4529"><path id="path4531" d="M93.3 255.2s.1-5.7 2.8-10.2c2.7-4.6 9.7-13 10-14.6s0-4.1 0-4.1-2.5.6-4.2.7c-1.6.1-4.5 2.4-4.5 2.4s-3-2.9-4.5-4c-1.5-1.3-3.4-3.5-3.4-3.5s-.5 1.9-1.5 2.9-2.5 4.5-2.5 4.5-1.5-2-3.1-2.5a15 15 0 0 1-4-2.5s.5 1.2-1.4 3.2-1.6 2.6-1.6 2.6-1.1-1.2-3.3-1.3c-2.2 0-4.7.5-4.7.5s.7.2 2.7 3.4 1.7 5.9 5.1 10c3.5 4 11.2 4.8 12.2 8.6s3 7 3 7 3 1.8 2.9-3" fill="#00ab4e"/><path id="path4533" d="M91.5 259.4q-1.2-.2-1.5-.5l-.2-.2c-.1-.1-2.1-3.4-3.1-7.2-.5-1.7-2.9-2.8-5.4-4-2.3-1.1-5-2.4-6.6-4.4-2.2-2.6-3-4.6-3.7-6.6l-1.6-3.4c-1.5-2.5-2.2-3-2.3-3a.8.8 0 0 1 .1-1.5c.1 0 2.7-.6 5-.5q1.9.1 2.8.8.4-.8 1.5-2c1.4-1.5 1.2-2.4 1.2-2.4q-.2-.5.3-.9.4-.2.9.1c.6.5 2.4 2 3.7 2.3a7 7 0 0 1 2.7 2c.6-1.3 1.4-3 2.2-3.8a7 7 0 0 0 1.3-2.5.7.7 0 0 1 1.3-.3s1.9 2.2 3.3 3.3l4 3.7c1-.7 3-2 4.5-2.2 1.5 0 4-.6 4.1-.6h.6l.3.6c0 .1.2 2.8-.1 4.4q-.3 1.3-4.6 7a80 80 0 0 0-5.4 7.8 23 23 0 0 0-2.7 9.8q0 2.5-1 3.6-.7.6-1.6.6m-.6-1.7.6.2q.3 0 .5-.2.5-.1.5-2.5c0-.2.2-6 3-10.6 1.3-2.2 3.5-5.2 5.5-8 1.9-2.5 4.2-5.7 4.3-6.3q.3-1.6.2-3.1l-3.5.5c-1 .1-3.1 1.4-4.1 2.2q-.5.4-1 0l-4.5-4q-1.5-1.2-2.6-2.6-.4 1-1.3 2c-.7.7-1.9 3.3-2.3 4.3a1 1 0 0 1-1.3.1 7 7 0 0 0-2.8-2.2c-1-.3-2.2-1.2-3-1.8q-.4 1-1.5 2.3-1.6 1.9-1.4 2a.8.8 0 0 1-1.3.6s-1-1-2.8-1q-1.6 0-3.1.2l1.7 2.5q1.1 2 1.7 3.7c.7 1.9 1.4 3.8 3.4 6.2a18 18 0 0 0 6.2 4c2.8 1.3 5.5 2.5 6.1 4.9a31 31 0 0 0 2.8 6.6" fill="#005a24"/></g><g id="g4535"><path id="path4537" d="M101.4 224.6s-.3-1.1-1.4-1c-1.2 0-2-.6-2-.6s.8-5.6-.3-5.8-3 1.6-3 1.6-2.7-5.4-4.4-5.2-3.7 3-3.7 3-.8 1.7-1.3 1.3-1-3.1-2.5-3.3-3 1.4-3 2-1.7 3.6-2.1 3.4-2.1-1-3.7-.2c-1.5.7-.8 2.6-.2 3.5s.3 1.3.3 1.3-2.2 1-1.5 1.7 2.4.3 2.7-.1.4-2.2.4-2.2 1.8-.8 2-1.7q.6-1.3.8-1.2s3.8 4 5 2.8c1-1.2 1.5-4.5 2.3-4s2.7 1.3 3.9-.5 4.8.4 4.8.4-.4 2.4.9 3.6c1.3 1 2.2 1 2.2 1s.4 1 1.5 1c1 .1 2.3-.3 2.3-.8" fill="#ffffff"/></g></g><g id="g4539"><g id="g4541"><path id="path4543" d="M101.4 253.2s2.5-5.4 0-6.9c-2.3-1.4-3.1-1-3.1-1s1.5-4.8-1.4-5.7-3.9 1.7-3.9 1.7-1.6-4.1-5-4c-3.3 0-4.3 4.2-4.3 4.2s-1.5-3.5-4.5-2-3.5 6.2-3.5 6.2-3.1-.8-4.6 1.5 1 4.6 1 4.6-4 2.5.2 6.2a35 35 0 0 0 15 8.2c4.7.6 13.6-4.5 14-13" fill="#ccdde7"/><path id="path4545" d="M88.1 266.8h-.8a35 35 0 0 1-15.3-8.4q-2.3-2-2.1-4c0-1.3 1-2.2 1.5-2.7-1-1-1.9-3-.7-4.8 1.3-1.9 3.5-2 4.6-1.8.2-1.3 1-4.7 3.7-6q.7-.4 1.6-.4c1.5 0 2.4.9 3 1.7.6-1.4 1.9-3.5 4.4-3.6h.2c2.6 0 4.2 2.2 4.9 3.4q.6-1.1 2.6-1.3l1.4.3q1.1.3 1.6 1.4c.7 1.3.5 3.1.2 4.1a8 8 0 0 1 2.8 1.2c2.6 1.5.6 6.5.1 7.4-.4 8.1-8.5 13.5-13.7 13.5M74.5 246q-1.6-.2-3 1.3c-1.2 1.9 1 4 1 4l.1.4q0 .3-.2.4s-1.4 1-1.5 2.3q0 1.5 1.7 3.1a34 34 0 0 0 15.5 8.2c4.8 0 12.4-5 12.8-12.6v-.2c.6-1.4 2-5.3.3-6.3-2-1.2-2.8-1-2.8-1l-.5-.1-.1-.5s.8-2.6 0-4q-.3-.7-1-1l-1-.2a2.4 2.4 0 0 0-2.3 1.6q-.1.2-.5.3l-.4-.3s-1.5-3.7-4.4-3.7h-.1c-3 0-3.9 3.8-4 3.8a.5.5 0 0 1-.9.1s-.9-2-2.6-2q-.6 0-1.2.3c-2.7 1.3-3.2 5.7-3.2 5.7l-.2.4h-.4z" fill="#808285"/></g><g id="g4547"><path id="path4549" d="M98 279.5s-.8-5.6 1.1-10.6 7.5-14.4 7.5-15.9c.1-1.5-.5-4.1-.5-4.1s-2.5 1-4.1 1.4-4 3-4 3l-5.2-3.2c-1.6-1-3.9-2.8-3.9-2.8s-.2 1.8-1 3-1.7 4.9-1.7 4.9-1.8-1.8-3.5-2a15 15 0 0 1-4.3-1.9s.6 1.1-1 3.4c-1.4 2.3-1 2.9-1 2.9s-1.4-1-3.5-.7c-2.2.2-4.6 1.2-4.6 1.2s.7 0 3.2 3c2.4 2.8 2.7 5.4 6.7 8.9 4 3.4 11.7 3 13.3 6.6s4.1 6.4 4.1 6.4 3.2 1.3 2.4-3.5" fill="#00ab4e"/><path id="path4551" d="M96.5 284q-1-.1-1.2-.3l-.2-.2c-.1-.1-2.6-3-4.3-6.6-.7-1.6-3.2-2.4-5.9-3.1-2.4-.7-5.2-1.6-7.2-3.3-2.6-2.2-3.7-4-4.7-5.9q-.8-1.5-2.1-3.1c-2-2.3-2.7-2.6-2.8-2.7a.8.8 0 0 1-.1-1.4s2.6-1 4.8-1.3q1.8-.2 3 .3.2-.7 1-2.1c1.2-1.8.9-2.6.9-2.6a1 1 0 0 1 .1-1q.5-.3 1 0c.6.4 2.7 1.5 4 1.7a7 7 0 0 1 3 1.4c.3-1.2.9-3 1.5-4a7 7 0 0 0 .9-2.6.7.7 0 0 1 1.2-.5s2.2 1.8 3.8 2.7l4.6 3c.8-.9 2.6-2.5 4-2.9 1.6-.3 4-1.3 4-1.3a1 1 0 0 1 1 .5c0 .1.6 2.7.6 4.3q-.1 1.4-3.4 7.7l-4.2 8.5c-1.8 4.7-1 10.1-1 10.2q.3 2.6-.6 3.8-.6.7-1.7.7m-.4-1.6h.4q.5 0 .6-.2c.1-.2.5-.8.2-2.6 0-.2-.9-5.9 1.1-11 1-2.3 2.7-5.6 4.2-8.6a57 57 0 0 0 3.3-7q0-1.6-.4-3l-3.3 1c-1 .2-2.8 1.9-3.7 2.8q-.5.4-1 .1l-5-3.2-3-2.1q-.3 1.1-1 2.1c-.6.9-1.3 3.6-1.6 4.6a.7.7 0 0 1-1.2.4 7 7 0 0 0-3.1-1.8c-1.1-.1-2.5-.8-3.4-1.2q-.1.9-1 2.4c-1 1.5-1.1 2.1-1.1 2.2a.7.7 0 0 1-1.2.9s-1.1-.8-3-.6q-1.6.2-3 .7a22 22 0 0 1 4.4 5.6c1 1.7 2 3.5 4.4 5.5a18 18 0 0 0 6.7 3c3 .8 5.8 1.6 6.8 3.8 1.3 3 3.3 5.5 3.9 6.2" fill="#005a24"/></g><g id="g4553"><path id="path4555" d="M101.1 248s-.4-1-1.6-.8c-1 .3-2-.3-2-.3s0-5.6-1.3-5.7c-1.2 0-2.7 2.1-2.7 2.1s-3.5-4.9-5.2-4.4c-1.6.5-3.1 3.6-3.1 3.6s-.5 1.8-1 1.5-1.6-3-3.1-2.9-2.7 1.8-2.6 2.5c0 .6-1.1 3.8-1.5 3.6-.5-.2-2.3-.6-3.7.4s-.4 2.7.3 3.5c.8.7.5 1.3.5 1.3s-2 1.3-1.2 1.8 2.5 0 2.7-.5 0-2.2 0-2.2 1.7-1 1.8-2c0-1 .5-1.4.5-1.4s4.4 3.4 5.4 2 .8-4.6 1.6-4.3c.8.4 3 .9 3.8-1 .9-2 4.9-.5 4.9-.5s-.1 2.5 1.4 3.4c1.4 1 2.4.7 2.4.7s.5 1 1.5.8c1.1 0 2.3-.7 2.2-1.3" fill="#ffffff"/></g></g><g id="g4557"><g id="g4559"><path id="path4561" d="M109.1 274.5s1.4-6.3-1.5-7.2-3.6-.3-3.6-.3.5-5.3-2.8-5.5-3.8 2.7-3.8 2.7-2.7-3.9-6.2-2.9-3.6 5.6-3.6 5.6-2.4-3.3-5.3-1c-2.9 2.4-2.3 7.4-2.3 7.4s-3.4 0-4.5 2.7c-1 2.7 2.2 4.5 2.2 4.5s-3.7 3.8 1.6 6.5 13 5.3 18 4.7 13.4-8.2 11.8-17.2" fill="#ccdde7"/><path id="path4563" d="M95.8 292.3c-5.3 0-12.3-2.6-16.7-4.9Q76.3 286 76 284c-.2-1.4.5-2.6 1-3.3-1.3-.8-2.8-2.6-2-4.8 1-2.3 3.4-2.9 4.5-3 0-1.4 0-5.2 2.5-7.2q1.2-1 2.4-1 1.9.2 2.8 1.2c.3-1.6 1.1-4.2 3.9-5l1.3-.1c2.2 0 4 1.5 4.9 2.5.5-1.1 1.6-2.3 4-2.2a3 3 0 0 1 2 1c1 1.3 1.2 3.3 1.2 4.3q1.2 0 3.3.5c3.1 1 2 6.9 1.8 7.7q1 6-3 11.5c-2.6 3.4-6.3 5.9-9.2 6.2zm-11.4-26.7q-.9 0-1.8.8c-2.6 2-2 6.8-2 6.8a.5.5 0 0 1-.6.6s-3.1 0-4 2.4c-1 2.2 1.9 3.9 2 3.9l.2.4-.2.4s-1.3 1.3-1 2.9q.2 1.6 2.5 2.8a41 41 0 0 0 16.3 4.7h1.5c2.6-.4 6.1-2.8 8.5-5.9a14 14 0 0 0 2.9-11c.3-1.6.8-6-1.2-6.6-2.7-.9-3.3-.4-3.3-.4h-.5l-.2-.5s.2-2.9-1-4.2a2 2 0 0 0-1.3-.7 3 3 0 0 0-3.3 2.3q0 .3-.3.4-.4 0-.6-.2s-2-2.8-4.6-2.8l-1 .1c-3.2.9-3.3 5-3.3 5a.5.5 0 0 1-1 .4s-1.1-1.6-2.7-1.6" fill="#808285"/></g><g id="g4565"><path id="path4567" d="M111.8 302.8s-2.2-5.6-1.3-11.3c1-5.6 4.5-17 4.2-18.5-.3-1.7-1.6-4.2-1.6-4.2s-2.3 1.7-4 2.5c-1.6.8-3.6 4.2-3.6 4.2s-4.3-1.5-6.2-2c-2-.7-4.8-2-4.8-2s.2 2-.4 3.5c-.6 1.4-.7 5.5-.7 5.5s-2.3-1.4-4.2-1.2-5-.8-5-.8 1 1-.1 3.7c-1 2.8-.6 3.3-.6 3.3s-1.6-.7-3.8.2c-2.3.8-4.6 2.4-4.6 2.4s.8-.1 4 2.2 4.2 5.1 9.3 7.7 13.2.1 15.8 3.4 6 5.7 6 5.7 3.6.6 1.6-4.3" fill="#00ab4e"/><path id="path4569" d="M110.4 307.9h-.4l-.3-.2c-.2 0-3.5-2.5-6-5.8-1.3-1.5-4.1-1.6-7.1-1.7-2.8-.2-6-.3-8.5-1.5a21 21 0 0 1-6.4-5q-1.3-1.5-3-2.7c-2.6-2-3.5-2.1-3.6-2.1a.7.7 0 0 1-.4-1.4s2.4-1.7 4.7-2.6a7 7 0 0 1 3.3-.4q0-.9.7-2.5c.8-2.2.3-3 .2-3a1 1 0 0 1 0-1q.3-.3.8-.2s3 1 4.8.7q2 .1 3.5.8c.1-1.4.3-3.6.7-4.6.5-1 .4-2.6.3-3.1a.7.7 0 0 1 1.1-.8l4.7 2 5.7 1.8c.7-1 2.2-3.2 3.6-4l4-2.4a1 1 0 0 1 1 .3 21 21 0 0 1 1.6 4.3q.2 1.5-1.8 8.8c-.9 3.5-2 7.4-2.4 10a24 24 0 0 0 1.3 11q1.2 2.8.2 4.2-.6 1-2.3 1m0-1.5q.6.1 1-.4.6-.8-.3-2.9c-.1-.2-2.3-6-1.3-11.7.4-2.7 1.4-6.6 2.4-10.1.8-3.4 1.9-7.5 1.8-8.2l-1.2-3.2c-.8.6-2.2 1.5-3.3 2-1.2.7-2.8 3.1-3.4 4q-.2.5-.8.3s-4.3-1.5-6.2-2q-2.1-.7-3.8-1.5 0 1.2-.5 2.5a24 24 0 0 0-.6 5.3 1 1 0 0 1-1.1.6s-2.1-1.2-3.8-1q-2-.1-4-.5.1 1-.5 2.9c-.7 1.8-.6 2.5-.6 2.6a.8.8 0 0 1-1 1.1l-1.3-.2q-1 0-2 .4l-3.1 1.5 2.8 1.8q1.9 1.5 3.2 3c1.4 1.5 3 3 6 4.6 2.2 1.1 5 1.2 7.8 1.4 3.4 0 6.6.2 8.2 2.3 2.1 2.7 4.9 4.9 5.6 5.4" fill="#005a24"/></g><g id="g4571"><path id="path4573" d="M107.7 269s-.8-.8-2-.3c-1 .6-2 .3-2 .3s-1.6-5.9-2.9-5.6c-1.3.2-2.3 2.8-2.3 2.8s-5-4.2-6.6-3.3c-1.7 1-2.5 4.6-2.5 4.6s-.1 2-.8 1.8c-.6-.2-2.4-2.7-3.9-2.2s-2.4 2.6-2.2 3.3-.2 4.2-.7 4.1c-.5 0-2.6 0-3.9 1.4s.3 3 1.2 3.5c1 .6.9 1.2.9 1.2s-1.8 2-.9 2.3 2.6-.6 2.7-1.3l-.4-2.2s1.5-1.6 1.3-2.6.3-1.5.3-1.5 5.5 2.3 6.2.7c.6-1.7-.2-5.1.7-5 1 .2 3.3.2 3.7-2 .5-2.4 5.1-1.8 5.1-1.8s.6 2.7 2.3 3.3c1.8.5 2.8 0 2.8 0s.7.9 1.8.5 2.3-1.3 2-2" fill="#ffffff"/></g></g><g id="g4575"><g id="g4577"><path id="path4579" d="M119 298s.4-6.8-2.8-7-4 .5-4 .5-.3-5.6-3.8-5c-3.6.5-3.5 3.6-3.5 3.6s-3.5-3.3-7.1-1.5-2.9 6.5-2.9 6.5-3.1-2.7-5.7.3c-2.7 3.1-1.2 8-1.2 8s-3.6 1-4.3 4 3 4.1 3 4.1-3.2 4.7 2.9 6.3 14.6 2.5 19.8.7c5.3-1.7 12.8-11.5 9.6-20.4" fill="#ccdde7"/><path id="path4581" d="M102.2 320c-4 0-8.6-.6-12.7-1.7q-3.2-.8-3.9-2.8c-.5-1.5 0-3 .4-3.7-1.4-.7-3.3-2.2-2.8-4.6.6-2.6 3.1-3.7 4.2-4-.3-1.4-1-5.4 1.4-8q1.4-1.7 3.2-1.7 1.5 0 2.3.7c0-1.6.5-4.6 3.3-6q1.1-.7 2.4-.7c2 0 3.6 1 4.5 1.7.3-1 1.2-2.8 3.8-3.2 3.2-.5 4.1 3.1 4.4 4.7q.8-.4 3.5-.2c3.5.2 3.3 6.6 3.3 7.5 1.6 4.7.3 9.2-1.1 12-2 4.3-5.7 8-8.8 9q-3 1-7.4 1M92 294.5q-1.4 0-2.5 1.3c-2.4 2.8-1 7.5-1 7.5v.4q-.1.2-.4.3s-3.3.8-4 3.4c-.5 2.6 2.7 3.6 2.8 3.7a.5.5 0 0 1 .3.7s-1.2 1.8-.7 3.3q.6 1.6 3.2 2.2c4.1 1.1 8.7 1.7 12.5 1.7q4.3 0 7-1c3-1 6.4-4.4 8.3-8.4a15 15 0 0 0 1-11.5c0-1.8-.1-6.5-2.4-6.6-2.7-.3-3.5.3-3.5.3q-.3.3-.5.2l-.4-.5s-.3-5-3.3-4.5-3 3-3 3.1q0 .3-.3.5l-.6-.1s-2-2-4.5-2q-1 0-2 .5c-3.2 1.7-2.6 6-2.6 6a.5.5 0 0 1-.8.5s-1.2-1-2.6-1" fill="#808285"/></g><g id="g4583"><path id="path4585" d="M126.6 326.7s-3.3-5.4-3.3-11.4 1.9-18.5 1.3-20.1a20 20 0 0 0-2.4-4s-2.2 2.3-3.8 3.5-3 5.3-3 5.3l-7-.8c-2.2-.1-5.4-.9-5.4-.9s.6 2 .2 3.7c-.4 1.6.2 5.8.2 5.8s-2.7-.9-4.6-.2c-2 .6-5.5.3-5.5.3s1.2.8.5 3.9 0 3.5 0 3.5-1.8-.3-4 1-4.5 3.7-4.5 3.7.9-.4 4.7 1.3 5.3 4.3 11 5.8c5.9 1.4 14-3 17.3-.1 3.3 2.8 7.3 4.5 7.3 4.5s4-.3 1-4.8" fill="#00ab4e"/><path id="path4587" d="M125.5 332.2h-.2a32 32 0 0 1-7.5-4.7q-.9-.7-2.8-.7-2.1 0-5 .6-3 .6-6.1.7-1.6 0-3-.3c-3.7-1-5.7-2.3-7.6-3.7a20 20 0 0 0-7.8-3.4q-.5.1-.9-.3a1 1 0 0 1 .1-1c.1 0 2.4-2.3 4.6-3.7a8 8 0 0 1 3.5-1.2q0-1 .3-2.9c.5-2.4-.2-3.1-.2-3.1a1 1 0 0 1-.3-.9q.2-.5.8-.4h1.9q2.1 0 3.2-.3a9 9 0 0 1 4 0c-.1-1.5-.3-3.9 0-5.1s0-2.7-.2-3.3a1 1 0 0 1 .9-.9s3.2.7 5.2.9c1.8 0 5.1.5 6.4.6.5-1.2 1.8-3.9 3.2-5s3.7-3.4 3.7-3.4a1 1 0 0 1 1.1.1c.1.1 1.9 2.4 2.5 4.1q.4 1.5-.4 9.5c-.4 3.8-.8 8.1-.8 10.9 0 5.7 3.1 11 3.1 11q1.8 2.6 1 4.4c-.7 1.4-2.5 1.5-2.6 1.5m-10.5-7q2.6 0 3.8 1.2c2.8 2.4 6 4 6.9 4.3q.6 0 1.1-.7.4-.9-.8-3a25 25 0 0 1-3.4-11.7c0-2.9.4-7.2.8-11 .3-3.6.8-8.2.5-8.9l-1.7-3-3.3 3c-1.2.8-2.5 3.8-2.9 4.8q-.2.5-.8.5s-4.7-.6-6.9-.7c-1.4-.1-3.2-.5-4.3-.7v2.9a23 23 0 0 0 .2 5.5q0 .4-.3.7t-.7.1s-1.4-.4-2.8-.4q-.8 0-1.4.2a13 13 0 0 1-4.4.4 7 7 0 0 1 0 3.3c-.5 2-.3 2.7-.2 2.8a.8.8 0 0 1-.7 1.2c-.1 0-1.7-.2-3.6 1q-1.8 1.2-3.1 2.4a23 23 0 0 1 7.2 3.5c1.8 1.3 3.6 2.6 7 3.4q1.2.3 2.7.3 3 0 6-.7a31 31 0 0 1 5.1-.6" fill="#005a24"/></g><g id="g4589"><path id="path4591" d="M116.5 292.8s-1-.8-2 0c-1.2.9-2.3.8-2.3.8s-2.6-5.7-3.9-5.1c-1.3.5-2 3.5-2 3.5s-5.9-3.3-7.5-1.9-1.9 5.3-1.9 5.3.3 2-.5 2c-.7 0-3-2.2-4.5-1.3-1.5.8-2 3.2-1.8 3.8.4.7.5 4.4 0 4.5s-2.8.5-3.9 2.3c-1 1.7.8 3 1.9 3.3 1.1.4 1.1 1.1 1.1 1.1s-1.6 2.4-.5 2.5c1 .2 2.6-1.2 2.6-1.9l-.8-2.2s1.3-2 1-3 0-1.6 0-1.6 6.2 1.1 6.6-.7-1-5.2 0-5.3 3.5-.6 3.6-3c0-2.5 5-3 5-3s1 2.7 3 2.9 3-.5 3-.5.9.6 2 0c1-.7 2.1-2 1.8-2.5" fill="#ffffff"/></g></g><g id="g4593"><g id="g4595"><path id="path4597" d="M134.4 318s.2-7-3-6.8c-3.4.1-4 1-4 1s-.6-5.5-4.2-4.6-3.4 4.2-3.4 4.2-3.7-3-7.3-.7-2.7 7-2.7 7-3.2-2.5-5.8 1c-2.6 3.3-.9 8.2-.9 8.2s-3.7 1.3-4.2 4.4 3.3 3.8 3.3 3.8-3.2 5.1 3 6 15 .7 20.3-1.7c5.2-2.4 12.5-13.2 9-21.8" fill="#ccdde7"/><path id="path4599" d="M112.5 342.5q-3.8 0-7.3-.5-3-.4-4-2.3c-.7-1.4-.2-3 .2-3.8-1.5-.5-3.5-1.8-3-4.3.5-2.7 3-4.1 4.1-4.6-.3-1.3-1.1-5.3 1.1-8.3q1.5-2 3.7-2a5 5 0 0 1 2 .4c-.1-1.5.2-4.7 3-6.5q1.5-.9 3.1-.9c1.7 0 3.2.7 4 1.2.2-1.1 1-3 3.7-3.7l1-.2c2.4 0 3.3 3 3.6 4.4q.8-.5 3.6-.7h.1q1 0 1.8.8c1.7 1.7 1.7 5.7 1.7 6.4 3.6 8.8-3.9 20-9.2 22.3a33 33 0 0 1-13.2 2.3m-5.2-24.8q-1.6 0-2.9 1.6c-2.4 3.2-.8 7.8-.8 7.8l-.3.6s-3.4 1.3-4 4c-.4 2.7 2.8 3.3 3 3.3a.5.5 0 0 1 .3.8s-1.2 2-.5 3.5q.6 1.4 3.2 1.7 3.5.5 7.2.5a32 32 0 0 0 12.8-2.2c5-2.3 12.1-12.8 8.7-21v-.3c0-1.2-.2-4.5-1.5-5.8q-.5-.5-1-.5c-3 .1-3.8.8-3.8.8q-.2.3-.5.2l-.4-.4s-.4-4.3-2.8-4.3l-.7.1c-3 .9-3 3.5-3 3.7l-.3.4h-.5s-1.9-1.5-4-1.5q-1.5 0-2.7.8c-3.2 2-2.5 6.4-2.5 6.4a.5.5 0 0 1-.8.5s-1-.7-2.2-.7" fill="#808285"/></g><g id="g4601"><path id="path4603" d="M143.2 345.9s-3.5-5-3.7-11c-.2-6.2 1.2-19 .5-20.5s-2.5-3.6-2.5-3.6l-3.7 4c-1.6 1.4-3 5.6-3 5.6h-7c-2.3.2-5.6-.2-5.6-.2s.7 2 .3 3.7c-.3 1.6.5 5.8.5 5.8s-2.8-.5-4.8.4-5.5 1-5.5 1 1.2.6.7 3.8 0 3.6 0 3.6-1.8-.2-4 1.5-4.4 4.2-4.4 4.2.9-.4 4.8.8c4 1.2 5.5 3.6 11.5 4.4s14.1-4.6 17.6-2.2c3.4 2.4 7.5 3.6 7.5 3.6s4-.8.8-5" fill="#00ab4e"/><path id="path4605" d="M142.4 351.6h-.3c-.1-.1-4.2-1.3-7.7-3.8q-.6-.5-1.9-.5-2.5.1-6 1.3a29 29 0 0 1-9.3 1.5 19 19 0 0 1-7.8-2.7q-1.7-1-3.8-1.7c-3.6-1.1-4.4-.8-4.4-.8q-.4.2-.9-.2-.2-.5.1-1c0-.1 2.3-2.6 4.5-4.3q2.2-1.4 3.5-1.6l.2-3c.4-2.5-.3-3.1-.3-3.1a1 1 0 0 1-.4-.8q.2-.6.8-.6s3.4-.1 5.2-1q1.3-.5 3.1-.5h1a19 19 0 0 1-.2-5c.3-1.5-.3-3.3-.3-3.3a.7.7 0 0 1 .8-1s3.2.3 5.4.2h6.5a17 17 0 0 1 3-5.5c1.5-1.4 3.7-4 3.7-4l.6-.2.6.3s2 2.2 2.6 3.8q.5 1.4 0 9.7c-.3 3.8-.6 8.2-.5 11a22 22 0 0 0 3.7 10.6q1.8 2.4 1.1 4.2c-.6 1.6-2.4 2-2.5 2zm-9.9-5.8q1.6 0 2.8.8a27 27 0 0 0 7 3.4q.8 0 1.3-1t-1-2.7c-.1-.2-3.6-5.2-3.9-11.5 0-2.8.2-7.2.4-11.1.3-3.7.5-8.3.3-9q-.8-1.6-2-2.8c-.7.9-2 2.4-3.1 3.4s-2.4 4.2-2.8 5.3q-.2.5-.7.5l-7 .1-4.6-.1q.3 1.3 0 3a25 25 0 0 0 .5 5.5 1 1 0 0 1-.9.9l-1.8-.2q-1.5 0-2.5.5c-1.3.5-3.2.8-4.5 1q.5.9.1 3.3-.4 2.8-.1 2.8a.7.7 0 0 1-.6 1.3c-.3 0-1.8 0-3.6 1.4q-1.8 1.4-3.1 2.9 1.3.1 3.3.8 2.5.7 4 1.8c2 1 3.9 2 7.4 2.5l1.1.1c2.4 0 5-.8 7.6-1.5q3.6-1.2 6.4-1.4" fill="#005a24"/></g><g id="g4607"><path id="path4609" d="M131.7 313s-1-.7-2 .3c-1.2 1-2.3 1-2.3 1s-2.8-5.4-4.2-4.6c-1.3.7-1.9 3.7-1.9 3.7s-6.1-2.5-7.7-1c-1.6 1.7-1.7 5.6-1.7 5.6s.3 2.1-.4 2.1c-.8 0-3.1-1.8-4.7-.8-1.5 1-2 3.5-1.6 4.1s.6 4.4 0 4.5c-.5.2-2.7.9-3.8 2.8s.9 3 2 3.2 1.2.9 1.2.9-1.5 2.6-.4 2.6 2.6-1.6 2.6-2.2-1-2.2-1-2.2 1.3-2.1 1-3.1 0-1.7 0-1.7 6.3.4 6.6-1.5c.4-1.9-1.3-5-.2-5.2 1-.2 3.5-1 3.5-3.6 0-2.5 5.1-3.5 5.1-3.5s1.1 2.5 3.1 2.4c2 0 3-.8 3-.8s1 .5 2-.3c1.1-.8 2.2-2.2 1.8-2.7" fill="#ffffff"/></g></g><g id="g4611"><g id="g4613"><path id="path4615" d="M152 335.8s-.6-7-3.8-6.5-3.9 1.4-3.9 1.4-1.1-5.4-4.5-4c-3.5 1.3-3 4.4-3 4.4s-4-2.6-7.3 0c-3.3 2.7-2 7.3-2 7.3s-3.4-2.1-5.6 1.6c-2.2 3.6 0 8.3 0 8.3s-3.6 1.6-3.8 4.8 3.7 3.5 3.7 3.5-2.6 5.4 3.7 5.6 15-.9 19.9-3.8c5-3 11-14.5 6.6-22.6" fill="#ccdde7"/><path id="path4617" d="M127 362.7h-1.5q-3.1 0-4.3-1.9c-.8-1.3-.4-3-.1-3.8-1.6-.3-3.7-1.4-3.5-4 .2-2.7 2.6-4.4 3.6-5-.5-1.3-1.7-5 .2-8.3 1.2-2 2.8-2.4 4-2.4l1.5.2c-.2-1.5-.3-4.7 2.3-6.7q1.6-1.3 3.7-1.3 2.2.1 3.4.8c.1-1.2.7-3.1 3.3-4.1l1.2-.3c2.3 0 3.4 2.6 3.8 4q.8-.6 3.5-1c3.5-.6 4.3 5.6 4.4 6.7 4.5 8.4-1.8 20.2-6.8 23.2a41 41 0 0 1-18.7 3.9m-1.7-24.4q-1.8 0-3 2c-2 3.3 0 7.7 0 7.7l-.2.7s-3.3 1.6-3.5 4.4c-.2 2.7 3 3 3.2 3a.5.5 0 0 1 .4.7s-1 2-.1 3.5q.8 1.3 3.4 1.4a47 47 0 0 0 19.6-3.8c4.8-2.8 10.8-14 6.5-21.9v-.2c-.2-1.7-1-6.3-3.3-6-2.9.4-3.5 1.2-3.6 1.2q-.1.3-.5.2l-.3-.4s-.9-3.9-3-3.9l-1 .2c-3 1.2-2.6 3.9-2.6 4l-.2.4h-.6s-1.6-1-3.6-1q-1.7 0-3 1c-3 2.4-1.9 6.7-1.9 6.7a.5.5 0 0 1-.7.6s-.9-.5-2-.5" fill="#808285"/></g><g id="g4619"><path id="path4621" d="M148.8 331s-1-.5-2 .6-2.2 1.3-2.2 1.3-3.4-5.1-4.6-4.3c-1.3.9-1.5 4-1.5 4s-6.3-2-7.8-.2c-1.4 1.8-1 5.7-1 5.7s.4 2-.3 2.2c-.7 0-3.3-1.5-4.7-.3s-1.6 3.6-1.2 4.2 1 4.3.5 4.5-2.6 1.1-3.5 3.1 1.2 2.9 2.4 3 1.2.8 1.2.8-1.2 2.7-.1 2.6c1 0 2.4-1.8 2.4-2.5-.1-.7-1.2-2-1.2-2s1-2.3.6-3.2-.3-1.7-.3-1.7 6.4-.3 6.5-2.2c.2-1.9-1.8-4.9-.7-5.2 1-.3 3.4-1.4 3.1-3.9s4.7-4 4.7-4 1.3 2.3 3.3 2 2.9-1 2.9-1 1 .4 2-.6 2-2.4 1.5-2.8" fill="#ffffff"/></g></g><g id="g4623"><path id="path4625" d="M156.2 341.7c-1.9 11.2 10 15.5 23.7 20 16.3 5.3 29.1 4.5 51 5.6 22 1.2 48 16.9 48 16.9s.2 1.6-.9 3.1c-1.1 1.6-8.1 2-8.1 2s-5.1-2.3-17.4-9c-13.3-7.2-22.1-8.6-41.6-8.6a166 166 0 0 1-50-9.9c-3.9-2-10.7 3.8-27.4 3.5 0 0-6.5.7-8.2.2l-3.7-1.2s0 .2 1.6-1.6c1.6-2 3.2-4.1 5.1-4.1s3.5-1.2 3.5-1.2-2.2-2-1.4-4c.8-1.8 0-4.7 0-4.7s2.5.4 3.6.3l3.9-.1s-1-3.7-.9-4.7l.4-4.2s2.6 1.3 4.3 1.2h4.4s2.7-3.5 3.6-4.2c.9-.6 3.2-7.4 3.2-7.4s1.9 3.1 2.7 4.7c.7 1.5 1 5 .6 7.4" fill="#00ab4e"/><path id="path4627" d="M269.9 390.1h-.3c-.1 0-5.3-2.5-17.5-9.1-13.4-7.3-22-8.5-41.2-8.5-19.7 0-46.5-8-50.4-10q-2-.8-6.9.7c-4.5 1.3-10.7 3-20 2.9a76 76 0 0 1-8.5.1l-3.8-1.2-.4-.4a.7.7 0 0 1 .5-1l1.2-1.4.4-.4c1.5-1.9 3.2-4 5.3-4q1.4 0 2.4-.6c-.7-.9-1.6-2.4-1-4s0-4.2 0-4.3a1 1 0 0 1 .8-.9s2.4.3 3.5.2h3a14 14 0 0 1-.7-4l.3-4.2a1 1 0 0 1 1-.6c.8.3 2.8 1.2 4 1h4.1a36 36 0 0 1 3.6-4c.4-.4 1.9-4 3-7a.7.7 0 0 1 1.3-.1s1.9 3 2.6 4.6c.9 1.7 1.2 5.2.7 7.9-1.7 10.2 8.5 14.4 23.2 19.2 12.8 4.1 23.4 4.5 38.1 5l12.8.6c21.8 1.1 48 16.8 48.3 17q.3 0 .3.5s.3 1.9-1 3.7c-1.2 1.7-7 2.2-8.7 2.3m-111-29.5q1.3 0 2.3.6c3.7 2 30.6 9.8 49.7 9.8s28.3 1.3 42 8.7c10.8 5.9 16.1 8.4 17.1 9 3.2-.3 6.8-1 7.4-1.8q.9-1.4.8-2.3c-3.2-1.8-27.2-15.5-47.3-16.5q-6.8-.4-12.7-.5c-14.8-.6-25.6-1-38.6-5.2-12.3-4-26.2-8.6-24.1-20.9a14 14 0 0 0-.6-6.9l-1.8-3.2a22 22 0 0 1-3 6.2l-3.4 4.1q-.3.3-.7.3h-4.3c-1.1 0-2.7-.5-3.7-.9l-.2 3.2c-.1.6.4 2.9.8 4.4a.7.7 0 0 1-.7.9l-3.8.1-2.8-.1c.2 1.1.3 2.8-.2 4.2-.6 1.3 1.2 3 1.2 3a1 1 0 0 1 0 1.2c-.1 0-1.9 1.3-4 1.3-1.4 0-2.9 1.8-4.2 3.4l-.3.4-.8 1 2.5.7 1.9.1c2.5 0 6-.3 6-.3h1a63 63 0 0 0 18.8-2.8q3.4-1.1 5.7-1.2" fill="#005a24"/></g></g></g></g><g id="g4629"><g id="g4631"><path id="path4633" d="m120 157 2.8-3.5 1.3 1q1 .7 1.7.8.8 0 1.5-.8.5-.7.2-1.4a3 3 0 0 0-1-1.3 3 3 0 0 0-2.3-.7l-2.2.6-2.4.8-2.3.3q-1.1 0-2.3-.4t-2.2-1.3q-2.6-2-3-4.3a6 6 0 0 1 1.5-4.6q2-2.4 4.6-2.5 2.4 0 5.2 2.2l-2.8 3.5q-1.2-1-1.8-1.1-1.2-.5-1.8.4-1 1.4 0 2.3l.4.2q.7.5 1.3.5l1.6-.1 2.9-1q1.5-.6 2.5-.6 1.3-.1 2.6.2 1.2.5 2.9 1.7 2.7 2.1 3 4.4.6 2.4-1.4 4.8-2 2.5-4.3 2.8t-4.2-1.3z" fill="#c5351c"/></g><g id="g4635"><path id="path4637" d="m130.3 146.3-12-11.8 3.4-3.5 12.5 12.3 1.3.8q.8 0 1.4-.6t.4-1.4-.8-1.3L124 128.6l3.4-3.5 12 11.8q2.3 2.3 2.6 4.5.2 2.6-2.2 5-2.2 2.4-4.6 2.4-2.6 0-5-2.5" fill="#c5351c"/></g><g id="g4639"><path id="path4641" d="m153.8 133.5-8.5 6.9-14.6-18 3.8-3.2 11.7 14.5 4.7-3.8z" fill="#c5351c"/></g><g id="g4643"><path id="path4645" d="m158 130.7-4.2 2.7-8.7-22 5-3.3 16.4 17.2-4.2 2.6-3-3.4-3.3 2zm-1.3-9.4-6.8-8 4.4 9.5z" fill="#c5351c"/></g><g id="g4647"><path id="path4649" d="m168.6 98.7 8.3 14.1-5.1-15.5 4.3-2 6.2 22.7-5 2.3-8-14.4 5 15.7-5 2.2-12.6-19.9 4.4-1.9 8 14.4v-.1l-4.8-15.7z" fill="#c5351c"/></g><g id="g4651"><path id="path4653" d="m197.5 113.6-11.1 3-6.3-22.3 10.9-3 1.2 4.4-6 1.7 1 4.2 6-1.7 1.2 4.5-5.9 1.6 1.4 4.9 6.4-1.8z" fill="#c5351c"/></g><g id="g4655"><path id="path4657" d="m197.2 105.7 4.5-.8.2 1.7q.2 1 .7 1.7.6.6 1.7.4.8-.1 1-.8.4-.7.2-1.8a3 3 0 0 0-1.2-2l-2-1-2.3-1-2-1.4q-.8-.8-1.3-1.9t-.8-2.5q-.4-3.2.8-5a6 6 0 0 1 4.2-2.5q3-.5 5 1.3 1.8 1.8 2.4 5.1l-4.5.8q-.2-1.5-.5-2.1-.7-1.1-1.6-1-1.7.3-1.5 1.8v.4q.3.8.7 1.3l1.3.9 5 2.5q1 .8 1.7 2t1 3.2q.6 3.3-.8 5.3t-4.3 2.6q-3.1.5-5-1a6 6 0 0 1-2.2-3.8z" fill="#c5351c"/></g><g id="g4659"><path id="path4661" d="m217.7 110.8-5 .4-1.9-23.2 5-.4z" fill="#c5351c"/></g><g id="g4663"><path id="path4665" d="m226.8 91.8.3-4.6 12.7.6-.2 4.6-4-.2-.9 18.6-4.9-.2.9-18.6z" fill="#c5351c"/></g><g id="g4667"><path id="path4669" d="m251.4 113-11.4-2 3.6-23 11.1 1.8-.7 4.6-6.3-1-.6 4.3 6 1-.7 4.5-6-1-.8 5 6.6 1z" fill="#c5351c"/></g><g id="g4671"><path id="path4673" d="M260.8 115.5v-13.6h-.1l-3.2 12.6-4.5-1.2 6.4-22.4 4.9 1.4v13.5l3.3-12.6 4.4 1.3-6.4 22.4z" fill="#c5351c"/></g><g id="g4675"><path id="path4677" d="m279.2 122.7-3-1.3.6-2a5 5 0 0 1-2.4 1.2 5 5 0 0 1-2.6-.6q-2.7-1.1-3-3.6-.5-2.2 1-5.4l3.7-8.7q1.6-3.5 3.7-4.5 2.3-1 5.3.3t4 3.5q.8 2.2-.5 5.4l-.7 1.6-4.5-2 .5-1.2q.6-1.5.6-2.1 0-.9-.8-1.2-1-.5-1.6-.1t-1.1 1.5l-4.6 10.6q-.5.9-.2 1.6 0 .6 1 1t1.7-.3l1-1.7.8-1.7-1.6-.7 1.7-3.9 6 2.7z" fill="#c5351c"/></g><g id="g4679"><path id="path4681" d="m292 130.2-2.9-1.7 1-1.9a5 5 0 0 1-2.6.9 5 5 0 0 1-2.5-.9q-2.6-1.5-2.6-4 0-2.2 1.7-5.1l5-8.2q1.8-3.3 4.2-4 2.2-.8 5.2 1 2.8 1.6 3.4 4 .6 2.2-1.2 5.2l-.9 1.5-4.2-2.5.7-1.1 1-2q0-.8-.8-1.4t-1.6-.3q-.6.3-1.3 1.4l-5.9 9.9q-.5.8-.4 1.5 0 .8.9 1.2 1 .5 1.7 0l1.3-1.7 1-1.6-1.6-.9 2.2-3.5 5.7 3.4z" fill="#c5351c"/></g><g id="g4683"><path id="path4685" d="m296.6 133.7-3.9-3 18-15.5 4.6 3.7-10.8 21-3.9-3 2.3-4-3-2.4zm8.4-4.3 5.4-9-7.6 7.2z" fill="#c5351c"/></g><g id="g4687"><path id="path4689" d="m315 137.5-6.5 6.5-3.5-3.5 16.6-16.4 5 5.1q2.2 2.3 2.2 4.3 0 2.2-2.5 4.5-1.5 1.5-2.6 2-1.5.5-3 0 .6 1 .4 2a3 3 0 0 1-.9 1.8l-4.9 5.5q-.2.4-.2.9l-.3.2-3.7-3.8.4-.6q0-.3.3-.5l1.6-1.6.3-.3.3-.3 1.7-1.8q.7-.8.9-1.5.1-.8-.4-1.3zm7-7-4 4 1.2 1.3q.7.7 1.5.4t1.8-1.2q1.4-1.4 1.1-2.3 0-.7-1.5-2.1" fill="#c5351c"/></g><g id="g4691"><path id="path4693" d="m317.8 154.3-3-4 21.3-10.3 3.6 4.7-15.8 17.7-3-4 3.2-3.3-2.3-3zm9.3-2 7.5-7.4-9.2 5z" fill="#c5351c"/></g></g><g id="g4695"><g id="g4697"><path id="path4699" d="M355.9 416.7H90.4L8.4 164 223 8.1 438 164Zm-259-9h252.5l78-240.1L223 19.2 19 167.6Z" fill="#ffffff"/></g></g></g><!-- app4joy --></svg>