<svg viewBox="0 0 2285.7143 1600" id="svg254" width="2285.7143" height="1600" xmlns="http://www.w3.org/2000/svg"><defs id="defs258"><path id="B" d="M27.4 132.6c2.9 2 5.2 4.4 5 8.9-3.2-1.6-5.2-4.2-5-9"/><path id="C" d="M28.4 134.7q0 1.9 2.7 4.4c-.2-1.7-.5-3.3-2.7-4.4"/><path id="D" d="M-126.9 159.3c3.2 2 5.6 4.8 5.4 9.6-3.4-1.7-5.6-4.5-5.4-9.6"/><path id="E" d="M-125.8 161.6q.2 2 2.9 4.7c-.2-1.8-.5-3.6-2.9-4.7"/><path id="F" d="m97.2 184.2 7.5 10.2-6.9-11.7z"/><path id="G" d="m99.5 183 5.2 11.4-6.9-11.7z"/><path id="H" d="M52.5 129h2.8v25h-5.7v-25z"/><path id="I" d="M128 129h-2.8v25h5.6v-25z"/><path id="J" d="M269.3 130.3h1.3v7.7H268v-7.7z"/><path id="K" d="m87.7 85.9-1.5 4.4 1.5 2-6.1-2 3.8 2.8 2.3-.8-3.8 5.2 3.8-2.7v-2.5l3.8 5.2-1.5-4.4-2.3-.8 6.1-2h-4.7l-1.4 2z"/></defs><g id="g1"><path id="rect2" d="M0 0h2285.7v1600H0z" fill="#ffd018"/></g><style id="style2"><![CDATA[.S{fill:#ffeb95}.U{stroke-width:.365}.W{stroke-width:.338}.g{stroke-width:.974}]]></style><g id="g1439" transform="translate(801.8 324)scale(3.77953)"><g id="g1402"><path d="M.8.8v151.3c1 24 16.8 69.9 89.4 99 72.7-29.1 88.5-75 89.5-99V.8H90.2Z" fill="#e9c21e" stroke="#996005" id="path4-8" opacity=".996" fill-rule="evenodd" stroke-width="1.6" stroke-linejoin="bevel"/><path d="M10.3 10.3v141.5c.8 20 13.3 61 80 89 66.6-28 79-69 79.9-89V10.3h-80Z" fill="#da251d" stroke="#996105" id="path6-7" opacity=".996" fill-rule="evenodd" stroke-width="1.6" stroke-linejoin="bevel"/></g><g id="g1457"><path d="M143.6 90.1v4.7l-3.9-3.2v5.3l3.9 3.3v50.5h9.7V90z" stroke="#996105" stroke-width="1.071" stroke-opacity="0.996" opacity="0.995" id="path10-3" fill="#e9c31e" fill-rule="evenodd"/><g stroke="#996005" stroke-width="0.368" id="g22" fill="none"><path d="M148.5 150.7v-18.2l4.8-5m-4.8 8 4.8-4.9" id="path14-3"/><path d="m148.5 138.6 4.8-5m-4.8 8 4.8-4.8" id="path16-9"/><path d="m148.5 144.7 4.8-4.9m-4.8-7.3v-12.3l-5-5" id="path18-9"/><path d="m148.5 123.2-5-4.9m5 8-5-4.9m5 8-5-5" id="path20-5"/></g></g><g stroke="#797979" id="g126" fill="#fff" stroke-width=".265"><path d="m30.8 164.6-2.9 13 7.8 2.5 2.7-13.8z" id="path114-1"/><path d="m29 165.3 7.3 2 1.7-12.2-7.6-1.5z" id="path116-8" opacity=".999"/><path d="m27 151.3 6.9 4.5L47.2 145v-10Z" id="path118-1"/><path d="m149.7 164.6 2.8 13-7.7 2.5-2.7-13.8z" id="path120-7" opacity=".999"/><path d="m151.5 165.3-7.4 2-1.7-12.2 7.6-1.5z" id="path122-4" opacity=".999"/><path d="m153.5 151.3-7 4.5-13.2-10.7v-10z" id="path124-5" opacity=".999"/></g><g fill="#008102" id="g132" fill-rule="evenodd"><path d="M40.7 26v124.7c.2 3.7 1 12.5 7.2 22.5 6.4 10 18.2 21.5 40 32.6q2.3 1.2 4.7 0c21.8-11 33.6-22.6 40-32.6s7-18.8 7.1-22.5V26Z" id="path128-4" opacity=".996"/><path d="m82.8 174.7-3 .3 3 .2 7.4.1h7.4l3-.3-3-.3h-7.4z" opacity="0.994" id="path130-8"/></g><g stroke="#797979" id="g168" stroke-width=".265"><path d="m27.2 72.3.8 17.5 8.6.1.2-13c-1.7-2-3.2-4.2-9.6-4.6Z" id="path134-5" fill="#fff"/><path d="m27.2 72.3-3.1 3.3 9.2 4.8c.6-2.2 2-3 3.5-3.6-1.7-2-3.2-4-9.6-4.5z" id="path136-2" fill="#a5a5a5"/><path d="M32.9 59a47 47 0 0 0-8.8 16.6l9.2 4.8c-.2-3.8 4-14.4 7.9-17.1-1.6-1.9-4.3-5.6-8.3-4.4Z" id="path138-4" fill="#fff"/><path d="M32.9 59c-2.2.2-3.2-1.7-5.9-1.7l7.6 7.6c2.7-1.9 4 .3 6.6-1.6-1.6-1.9-4.3-5.6-8.3-4.4z" id="path140-4" fill="#a5a5a5"/><path d="m153.2 72.3-.8 17.5-8.5.1-.3-13c1.8-2 3.2-4.2 9.6-4.6z" id="path142-2" fill="#fff"/><path d="m153.2 72.3 3.2 3.3-9.2 4.8c-.7-2.2-2-3-3.6-3.6 1.8-2 3.2-4 9.6-4.5z" id="path144-4" fill="#a5a5a5"/><path d="M147.6 59c4.2 5 7.3 11.5 8.8 16.6l-9.2 4.8c.2-3.8-4.1-14.4-8-17.1 1.7-1.9 4.4-5.6 8.4-4.4z" id="path146-9" fill="#fff"/><path d="M147.6 59c2.1.2 3.1-1.7 5.8-1.7l-7.6 7.6c-2.6-1.9-3.9.3-6.5-1.6 1.6-1.9 4.3-5.6 8.3-4.4z" id="path148-4" fill="#a5a5a5"/><path d="m153.4 57.3-7.6 7.6q-4.3-11-13.3-17c-.5-3.7 2.6-6.8 5.4-8.3a60 60 0 0 1 15.5 17.7z" id="path150-8" fill="#fff"/><path d="m142.5 37.2-4.9 9.9c-2.2-1.1-2 1.2-5.1.9-.5-3.8 2.6-7 5.4-8.4 1.2.9 2.3-1.6 4.6-2.4z" id="path152-7" fill="#a5a5a5"/><path d="m142.5 37.2-4.9 9.9a84 84 0 0 0-30.2-13l1.9-11.4q17.5 5 33.2 14.5z" id="path154-0" fill="#fff"/><path d="m109.3 22.7 6.1-3-2.7 10-5.3 4.4z" id="path156-3" fill="#a5a5a5"/><path d="m27 57.3 7.6 7.6q4.4-11 13.4-17c.5-3.7-2.7-6.8-5.5-8.3A60 60 0 0 0 27 57.3Z" id="path158-0" fill="#fff"/><path d="m38 37.2 4.9 9.9c2.1-1.1 2 1.2 5.1.9.5-3.8-2.7-7-5.5-8.4-1.2.9-2.3-1.6-4.5-2.4z" id="path160-3" fill="#a5a5a5"/><path d="m38 37.2 4.9 9.9a84 84 0 0 1 30.2-13l-2-11.4A141 141 0 0 0 38 37.2Z" id="path162-2" fill="#fff"/><path d="m71.2 22.7-6.2-3 2.8 10L73 34z" id="path164-7" fill="#a5a5a5"/><path d="M90.2 15.4c-8.3.5-16.6 1.5-25.2 4.3l2.8 10a70 70 0 0 1 44.9 0l2.7-10C107 17 98.5 16 90.2 15.4z" id="path166-5" fill="#fff"/></g><g id="g1387"><g id="g1321"><path d="m75.8 188 14.4 15-10.1-14.7z" id="path170-3" fill="#dcdcdc"/><path d="m80 188.3 10.2.2v14.4z" id="path172-0" fill="silver"/><path d="m90.2 188.5 10.2-.2L90.2 203z" fill="#f5f5f5" id="path174-7"/><path d="m100.4 188.3 4.2-.3-14.4 15z" fill="#d3d3d3" id="path176-0"/><path d="m75.8 188 4-6.7.3 7z" id="path178-7" fill="silver"/><path d="m79.8 181.3.3 7 2.7-6.7z" id="path180-5" fill="#dcdcdc"/><path d="m82.8 181.6-2.7 6.7 10.1.2z" fill="#d3d3d3" id="path182-2"/><path d="m82.8 181.6 7.4 6.9v-6.8z" fill="#f5f5f5" id="path184-9"/><path d="m104.6 188-4-6.7-.2 7z" fill="#a9a9a9" id="path186-4"/><path d="m100.7 181.3-.3 7-2.8-6.7z" id="path188-7" fill="silver"/><path d="m97.6 181.6 2.8 6.7-10.2.2z" fill="#a9a9a9" id="path190-2"/><path d="m97.6 181.6-7.4 6.9v-6.8z" id="path192-9" fill="#dcdcdc"/></g><g id="g1347"><g transform="rotate(-24.6 96.2 252)scale(.92577)" id="g198"><path id="use194" d="m97.2 184.2 7.5 10.2-6.9-11.7z" fill="#c0c0c0"/><path id="use196" d="m99.5 183 5.2 11.4-6.9-11.7z" fill="#ffffff"/></g><g transform="rotate(-18.5 -37.2 352.7)scale(1.16406)" id="g204"><path id="use200" d="m97.2 184.2 7.5 10.2-6.9-11.7z" fill="#c0c0c0"/><path id="use202" d="m99.5 183 5.2 11.4-6.9-11.7z" fill="#ffffff"/></g><g transform="rotate(-8 -341 569.6)scale(1.24535)" id="g210"><path id="use206" d="m97.2 184.2 7.5 10.2-6.9-11.7z" fill="#c0c0c0"/><path id="use208" d="m99.5 183 5.2 11.4-6.9-11.7z" fill="#ffffff"/></g><g transform="rotate(9.6 545 -73.2)scale(1.29661)" id="g216"><path id="use212" d="m97.2 184.2 7.5 10.2-6.9-11.7z" fill="#c0c0c0"/><path id="use214" d="m99.5 183 5.2 11.4-6.9-11.7z" fill="#ffffff"/></g><g transform="rotate(24.6 -6 665.4)scale(-.92577 .92577)" id="g222"><path id="use218" d="m97.2 184.2 7.5 10.2-6.9-11.7z" fill="#c0c0c0"/><path id="use220" d="m99.5 183 5.2 11.4-6.9-11.7z" fill="#ffffff"/></g><g transform="rotate(18.5 127.4 906)scale(-1.16406 1.16406)" id="g228"><path id="use224" d="m97.2 184.2 7.5 10.2-6.9-11.7z" fill="#c0c0c0"/><path id="use226" d="m99.5 183 5.2 11.4-6.9-11.7z" fill="#ffffff"/></g><g transform="rotate(8 431.2 1856)scale(-1.24535 1.24535)" id="g234"><path id="use230" d="m97.2 184.2 7.5 10.2-6.9-11.7z" fill="#c0c0c0"/><path id="use232" d="m99.5 183 5.2 11.4-6.9-11.7z" fill="#ffffff"/></g><g transform="rotate(170.4 96.4 -38.3)scale(1.29661 -1.29661)" id="g240"><path id="use236" d="m97.2 184.2 7.5 10.2-6.9-11.7z" fill="#c0c0c0"/><path id="use238" d="m99.5 183 5.2 11.4-6.9-11.7z" fill="#ffffff"/></g></g></g><g id="g1449"><path id="use24" d="M27.4 132.6c2.9 2 5.2 4.4 5 8.9-3.2-1.6-5.2-4.2-5-9z" fill="#e9c31e" stroke="#9a6104" stroke-width="0.338"/><path id="use26" d="M28.4 134.7q0 1.9 2.7 4.4c-.2-1.7-.5-3.3-2.7-4.4" fill="#ffeb95"/><g transform="matrix(-.92622 0 0 .92622 -79.8 -15.8)" id="g32"><path id="use28" d="M-126.9 159.3c3.2 2 5.6 4.8 5.4 9.6-3.4-1.7-5.6-4.5-5.4-9.6z" fill="#e9c31e" stroke="#9a6104" stroke-width="0.365"/><path id="use30" d="M-125.8 161.6q.2 2 2.9 4.7c-.2-1.8-.5-3.6-2.9-4.7" fill="#ffeb95"/></g><path id="use34" d="M27.2 126.3c3 1.9 5.2 4.4 5 8.8-3.1-1.5-5.2-4.2-5-8.8z" fill="#e9c31e" stroke="#9a6104" stroke-width="0.338"/><path id="use36" d="M28.2 128.4q.2 1.8 2.7 4.3c-.2-1.6-.4-3.3-2.7-4.3" fill="#ffeb95"/><g transform="matrix(-.92622 0 0 .92622 -80 -22.2)" id="g42"><path id="use38" d="M-126.9 159.3c3.2 2 5.6 4.8 5.4 9.6-3.4-1.7-5.6-4.5-5.4-9.6z" fill="#e9c31e" stroke="#9a6104" stroke-width="0.365"/><path id="use40" d="M-125.8 161.6q.2 2 2.9 4.7c-.2-1.8-.5-3.6-2.9-4.7" fill="#ffeb95"/></g><path id="use44" d="M27.2 120c3 2 5.2 4.4 5 8.9-3.1-1.6-5.2-4.2-5-8.9z" fill="#e9c31e" stroke="#9a6104" stroke-width="0.338"/><path id="use46" d="M28.2 122.1q.2 1.9 2.7 4.4c-.2-1.7-.4-3.3-2.7-4.4" fill="#ffeb95"/><g transform="matrix(-.92622 0 0 .92622 -80 -28.4)" id="g52"><path id="use48" d="M-126.9 159.3c3.2 2 5.6 4.8 5.4 9.6-3.4-1.7-5.6-4.5-5.4-9.6z" fill="#e9c31e" stroke="#9a6104" stroke-width="0.365"/><path id="use50" d="M-125.8 161.6q.2 2 2.9 4.7c-.2-1.8-.5-3.6-2.9-4.7" fill="#ffeb95"/></g><path id="use54" d="M27.2 113.7c3 2 5.2 4.4 5 8.9-3.1-1.6-5.2-4.2-5-9z" fill="#e9c31e" stroke="#9a6104" stroke-width="0.338"/><path id="use56" d="M28.2 115.8q.2 1.9 2.7 4.4c-.2-1.7-.4-3.3-2.7-4.4" fill="#ffeb95"/><g transform="matrix(-.92622 0 0 .92622 -80 -34.7)" id="g62"><path id="use58" d="M-126.9 159.3c3.2 2 5.6 4.8 5.4 9.6-3.4-1.7-5.6-4.5-5.4-9.6z" fill="#e9c31e" stroke="#9a6104" stroke-width="0.365"/><path id="use60" d="M-125.8 161.6q.2 2 2.9 4.7c-.2-1.8-.5-3.6-2.9-4.7" fill="#ffeb95"/></g><path id="use64" d="M27.2 107c3 2 5.2 4.5 5 9-3.1-1.6-5.2-4.2-5-9z" fill="#e9c31e" stroke="#9a6104" stroke-width="0.338"/><path id="use66" d="M28.2 109.2q.2 1.9 2.7 4.4c-.2-1.7-.4-3.3-2.7-4.4" fill="#ffeb95"/><g transform="matrix(-.92622 0 0 .92622 -80 -41.4)" id="g72"><path id="use68" d="M-126.9 159.3c3.2 2 5.6 4.8 5.4 9.6-3.4-1.7-5.6-4.5-5.4-9.6z" fill="#e9c31e" stroke="#9a6104" stroke-width="0.365"/><path id="use70" d="M-125.8 161.6q.2 2 2.9 4.7c-.2-1.8-.5-3.6-2.9-4.7" fill="#ffeb95"/></g><path id="use74" d="M27.2 100.6c3 2 5.2 4.4 5 8.9-3.1-1.6-5.2-4.2-5-8.9z" fill="#e9c31e" stroke="#9a6104" stroke-width="0.338"/><path id="use76" d="M28.2 102.7q.2 2 2.7 4.4c-.2-1.7-.4-3.3-2.7-4.4" fill="#ffeb95"/><g transform="matrix(-.92622 0 0 .92622 -80 -47.8)" id="g82"><path id="use78" d="M-126.9 159.3c3.2 2 5.6 4.8 5.4 9.6-3.4-1.7-5.6-4.5-5.4-9.6z" fill="#e9c31e" stroke="#9a6104" stroke-width="0.365"/><path id="use80" d="M-125.8 161.6q.2 2 2.9 4.7c-.2-1.8-.5-3.6-2.9-4.7" fill="#ffeb95"/></g><path id="use84" d="M27.2 94.4c3 2 5.2 4.4 5 8.9-3.1-1.6-5.2-4.2-5-8.9z" fill="#e9c31e" stroke="#9a6104" stroke-width="0.338"/><path id="use86" d="M28.2 96.5q.2 1.9 2.7 4.4c-.2-1.7-.4-3.3-2.7-4.4" fill="#ffeb95"/><g transform="matrix(-.92622 0 0 .92622 -80 -54)" id="g92"><path id="use88" d="M-126.9 159.3c3.2 2 5.6 4.8 5.4 9.6-3.4-1.7-5.6-4.5-5.4-9.6z" fill="#e9c31e" stroke="#9a6104" stroke-width="0.365"/><path id="use90" d="M-125.8 161.6q.2 2 2.9 4.7c-.2-1.8-.5-3.6-2.9-4.7" fill="#ffeb95"/></g><g transform="rotate(152.3 -71.5 -11)scale(.92622 -.92622)" id="g98"><path id="use94" d="M-126.9 159.3c3.2 2 5.6 4.8 5.4 9.6-3.4-1.7-5.6-4.5-5.4-9.6z" fill="#e9c31e" stroke="#9a6104" stroke-width="0.365"/><path id="use96" d="M-125.8 161.6q.2 2 2.9 4.7c-.2-1.8-.5-3.6-2.9-4.7" fill="#ffeb95"/></g><g id="g104" fill="#e9c31e" stroke="#9a6104"><path d="M32.4 98.3V149" stroke-width="0.618" id="path100-7"/><path id="use102" d="M27.4 138.9c2.9 2 5.2 4.4 5 8.9-3.2-1.6-5.2-4.2-5-9z" stroke-width="0.338"/></g><path id="use106" d="M28.4 141q0 2 2.7 4.3c-.2-1.6-.5-3.2-2.7-4.3" fill="#ffeb95"/><g transform="matrix(-.92622 0 0 .92622 -79.8 -9.6)" id="g112"><path id="use108" d="M-126.9 159.3c3.2 2 5.6 4.8 5.4 9.6-3.4-1.7-5.6-4.5-5.4-9.6z" fill="#e9c31e" stroke="#9a6104" stroke-width="0.365"/><path id="use110" d="M-125.8 161.6q.2 2 2.9 4.7c-.2-1.8-.5-3.6-2.9-4.7" fill="#ffeb95"/></g></g><g id="g1652"><path d="M74 43.5c-1.8 2-6.4 2.3-4 6l2.4 2.5v31l-22.2 25.4-5-5.4v10.1h4v9.3l-3.3-2.2v8.7h3.7v25h22.7v6.7h35.9V154h22.6v-25h3.7v-8.7l-3.3 2.2V113h4v-10l-5 5.3L108 83V52l2.5-2.6c2.3-3.6-2.2-4-4-5.9l-1.2 9.2v41H75.2v-41Z" id="path242-4" fill="#fff" stroke="#000" stroke-width=".921"/><path d="m72.4 93.5-21.8 20.6v9.2l-3.8-2.5v7h25.6Zm-14.9 21h2.6v8h-2.6zm3.3 0h2.5v8h-2.5Zm3.2 0h2.6v8H64Zm-16.6 8 4.3 4.6h-4.3Z" id="path244-8"/><path d="M72.4 83v7.3L50 112.6" id="path246-2" fill="none" stroke="#000" stroke-width=".921"/><path d="M46.6 104.5v7h.8v-6.1z" id="path248-0"/><g id="g258" fill="none" stroke="#000" stroke-width=".921" stroke-linejoin="round"><path id="use250" d="M52.5 129h2.8v25h-5.7v-25z" opacity="0.996"/><path id="use252" d="M58.1 129h2.8v25h-5.6v-25z" opacity="0.996"/><path id="use254" d="M63.7 129h2.9v25h-5.7v-25z" opacity="0.996"/><path id="use256" d="M69.4 129h2.8v25h-5.6v-25z" opacity="0.996"/></g><path d="m108 93.5 21.9 20.6v9.2l3.7-2.5v7H108zm15 21h-2.6v8h2.5zm-3.3 0H117v8h2.6zm-3.3 0H114v8h2.5zm16.7 8-4.4 4.6h4.4z" id="path260"/><path d="M108 83v7.3l22.5 22.3" id="path262" fill="none" stroke="#000" stroke-width=".921"/><path d="M133.9 104.5v7h-.8v-6.1z" id="path264"/><g id="g274" fill="none" stroke="#000" stroke-width=".921" stroke-linejoin="round"><path id="use266" d="M128 129h-2.8v25h5.6v-25z" opacity="0.996"/><path id="use268" d="M122.4 129h-2.9v25h5.7v-25z" opacity="0.996"/><path id="use270" d="M116.7 129H114v25h5.6v-25z" opacity="0.996"/><path id="use272" d="M111 129h-2.7v25h5.6v-25z" opacity="0.996"/></g><path d="M74 43.5c-1.8 2-6.4 2.3-4 6l2.4 2.5 1.4 1.4v56.8h32.9V53.4L108 52l2.5-2.6c2.3-3.6-2.2-4-4-5.9a6 6 0 0 1-5.7 4.9H79.7q-4.7-.4-5.8-4.9" id="path276"/><g transform="matrix(1.03543 0 0 1.16844 -205.4 -23.3)" stroke-width="0.837" id="g296" fill="none" stroke="#000" stroke-linejoin="round"><path id="use278" d="M269.3 130.3h1.3v7.7H268v-7.7z" opacity="0.996"/><path id="use280" d="M271.8 130.3h1.3v7.7h-2.5v-7.7z" opacity="0.996"/><path id="use282" d="M274.4 130.3h1.2v7.7h-2.5v-7.7z" opacity="0.996"/><path id="use284" d="M276.9 130.3h1.2v7.7h-2.5v-7.7z" opacity="0.996"/><path id="use286" d="M294 130.3h1.3v7.7h-2.5v-7.7z" opacity="0.996"/><path id="use288" d="M296.6 130.3h1.2v7.7h-2.5v-7.7z" opacity="0.996"/><path id="use290" d="M299 130.3h1.3v7.7h-2.5v-7.7z" opacity="0.996"/><path id="use292" d="M301.6 130.3h1.3v7.7h-2.6v-7.7z" opacity="0.996"/><path d="M285.5 130.3h7.3v7.7H278v-7.7z" id="path294" opacity=".996"/></g><g id="g302" fill="none" stroke="#000" stroke-width=".921"><path d="M97.8 133.5a7.6 2.6 0 0 1-7.6 2.5 7.6 2.6 0 0 1-7.6-2.5 7.6 2.6 0 0 1 7.6-2.6 7.6 2.6 0 0 1 7.6 2.6z" id="path298" opacity=".996" stroke-linejoin="round"/><path d="M77.4 138v22.6" id="path300"/></g><path d="M73.8 111.4v17.5h32.9v-17.5l-2.1 2.2-2-2.2-2.1 2.2-2-2.2-2.1 2.2-2-2.2-2.1 2.2-2-2.2-2.1 2.2-2-2.2-2.1 2.2-2-2.2-2.1 2.2-2.1-2.2-2 2.2zm10 7h6v9.2h-6zm6.9 0h5.9v9.2h-6z" id="path304"/><path d="m82.6 138-3 22.6M103 138v22.6M97.8 138l3 22.6M94 138l3 22.6M86.4 138l-3 22.6m2-14.5H95m-10.3 4h10.8M84.3 154h11.8" id="path306" fill="none" stroke="#000" stroke-width=".921"/></g><g transform="translate(-47.6 -96.9)scale(1.57171)" id="g318" fill-rule="evenodd"><path d="M87.7 84.9 86 90h-5.3l4.3 3.2-1.7 5 4.4-3 4.3 3-1.6-5 4.3-3.2h-5.3z" fill="#9a6104" id="path308" opacity=".981"/><path d="m87.7 85.9-1.5 4.4h-4.6l3.8 2.8-1.5 4.4 3.8-2.7 3.8 2.7-1.5-4.4 3.8-2.8h-4.7z" id="path310" fill="#e9c31e" opacity=".981"/><g fill="#ffe96b" id="g316"><path id="use312" d="m87.7 85.9-1.5 4.4 1.5 2-6.1-2 3.8 2.8 2.3-.8-3.8 5.2 3.8-2.7v-2.5l3.8 5.2-1.5-4.4-2.3-.8 6.1-2h-4.7l-1.4 2z" opacity="0.981"/><path id="use314" d="m87.7 85.9-1.5 4.4 1.5 2-6.1-2 3.8 2.8 2.3-.8-3.8 5.2 3.8-2.7v-2.5l3.8 5.2-1.5-4.4-2.3-.8 6.1-2h-4.7l-1.4 2z" opacity="0.981"/></g></g><path d="m34.7 195.3 3.7-6.6 1.1 1-2.6 4.5 4.4-2.8 1.3 1.2-2.6 4.6 4.3-3 1.1 1.1-6.3 4.1-1.1-1 2.7-5-4.8 3zm11.2 9.4-1.3-1 .5-1.7-2.3-1.8-1.5 1-1.3-1 6.7-4 1.3.9zm-.4-4 .8-2.8-2.4 1.6zm7.2-.4 1.3.8-2.5 3.9q-.5.8-.9 1-.5.5-1.2.5t-1.5-.4q-.9-.6-1-1.4-.2-.9.4-1.9l1.3.7q-.4.5-.4.8 0 .5.4.7.5.3.8.2.3-.2.8-1zm4.5 10.8-1.4-.7.2-1.8-2.6-1.3-1.3 1.1-1.4-.7 6-5.1 1.3.7zm-1-3.8.3-2.9-2.1 2zm4.5 2.7 1.4.4q-.1.7.1 1.2t1 .6 1 .1.6-.5v-.5q0-.2-.4-.4l-1-.8q-1-.6-1.3-1.2-.4-.8 0-1.6.1-.5.6-.9.4-.3 1-.4.7 0 1.5.3 1.3.5 1.8 1.3t0 1.7l-1.3-.4-.1-1q-.2-.3-.8-.5t-1 0q-.3 0-.4.3v.5q.2.3 1.1.9t1.3 1 .5 1-.1 1.2-.7 1-1.2.4-1.6-.3q-1.3-.5-1.8-1.3t-.2-2m12.3 6.4-1.5-.4-.2-1.8-2.8-.7-1 1.4-1.6-.4 4.7-6.3 1.5.4zm-1.9-3.5-.1-3-1.7 2.4zm2.7 3.7 1.1-7.2 2.2.3.5 5.1 2.1-4.7 2.2.4-1.2 7.2-1.3-.2 1-5.7-2.5 5.4-1.4-.2-.5-5.9-.9 5.7zm8.4 1.2.5-7.3 2.4.2q1.3 0 1.7.2.6.2 1 .8t.3 1.4q0 .7-.3 1.2t-.7.6-.7.3q-.6.1-1.6 0h-1l-.1 2.7zm1.9-6-.2 2.1h2q.3 0 .5-.3t.2-.5q0-.4-.2-.7t-.5-.4l-1.1-.1zm10.7 6.3h-1.6l-.6-1.6h-3l-.5 1.7h-1.6l2.7-7.4h1.6zm-2.7-2.9-1-2.7-1 2.8zm3.5 2.7-.6-7.2 1.4-.2.6 7.3zm5.7-.5-1.4-7.2 1.5-.3.6 3.2 2.3-3.8 2-.3-2.2 3.3 3.7 3.8-2 .4-2.5-3-1 1.4.4 2.2zm13.5-3.3-1.5.4-1-1.4-2.9.8-.1 1.8-1.5.4.7-7.8 1.5-.4zm-3.4-2-1.7-2.4-.2 3zm4.2 1.7-2.7-6.8 2.2-.9q1.3-.5 1.7-.5.6 0 1.2.3t1 1.2q.2.6.1 1.1 0 .5-.3.9t-.6.6q-.4.3-1.4.6l-.9.4 1 2.6zm-.9-6.2.8 2 .7-.4q.9-.3 1-.5.3-.2.4-.5v-.6l-.5-.5q-.3-.2-.7 0l-1 .3zm4-2.9 1.2-.6 1.8 3.5q.4.9.6 1 .3.4.7.5.5.1 1-.2.6-.2.8-.6.1-.4 0-.8 0-.3-.5-1l-1.8-3.7 1.3-.7 1.7 3.5.8 1.7v1q-.1.5-.5 1t-1.2.7q-1 .5-1.5.5l-1-.1q-.5-.2-.8-.6l-1-1.6zm11.2 2.3-3.2-5.1-1.9 1-.6-1 5-3 .6 1-1.9 1.2 3.2 5.1zm3.8-2.4-4.2-6 1.2-.9 4.2 6zm2.4-1.7-4.6-5.7 1.1-.9 5.4 2-3-3.9 1-.8 4.6 5.7-1.2 1-5.3-2 3 3.8zm6.2-9-.9-.8 2.3-2.3 2 2.1q0 .7-.3 1.5-.4.9-1 1.5-.9.8-1.8 1-1 .3-2 0t-1.6-1.1-1-1.8 0-2q.2-.7 1-1.4 1-1 1.9-1.1 1-.1 1.8.4l-.9 1.3q-.4-.3-1-.2t-1 .5q-.6.7-.6 1.5t.8 1.7q1 1 1.8 1t1.6-.6l.5-.8.3-.9-.7-.6z" id="path324" fill="#ffffff"/></g><!-- app4joy --></svg>