<svg id="svg2" width="1500" height="1050" viewBox="0 0 1500 1050" xmlns="http://www.w3.org/2000/svg"><g id="layer1" transform="scale(1 1.05)" fill="#ffce00"><path id="rect3635" fill="#ffce00" d="M0 0h1500v1000H0z"/></g><g id="g21393" transform="matrix(1.1047 0 0 1.0726 564 268.4)"><g id="g20389"><path id="polygon20391" fill="#21409a" d="M5 395.5V5.5h324.3v390l-162.1 77.4z"/></g><g id="g20393"><g id="g20395"><path id="polygon20397" fill="#e9c31e" d="m149.4 87.7 6.2-20.7-17.1-13.1 21.5-.5 7.2-20.3 7.2 20.3 21.5.5L178.8 67l6.1 20.7-17.7-12.2z"/><path id="path20399" d="M149.4 89a1.3 1.3 0 0 1-1.2-1.6l6-19.9L137.6 55a1.2 1.2 0 0 1 .7-2.2l20.7-.5 6.9-19.5a1.3 1.3 0 0 1 2.4 0l6.8 19.5 20.7.5a1.2 1.2 0 0 1 .8 2.2l-16.5 12.6 6 19.9a1.3 1.3 0 0 1-2 1.3l-17-11.7-17 11.7q-.4.3-.8.3M142 55l14.4 11q.6.5.4 1.3l-5.2 17.3 14.9-10.3q.7-.4 1.4 0l14.8 10.3-5.1-17.3q-.2-.8.4-1.4L192.3 55l-18-.4q-.8 0-1.1-.9l-6-17-6 17q-.3.8-1.1.9z" fill="#9a6104"/></g></g><g id="g20401"><g id="g20403"><g id="g20405"><path id="path20407" d="M260 212H74.4c.5 53.4 45.8 78.5 45.8 78.5l-9.4 24.7s25 14.8 50 17.2h13c25-2.4 50-17.2 50-17.2l-9.4-24.7s45.2-25.1 45.8-78.4" fill="#0db14b"/></g><g id="g20409"><path id="path20411" d="M258.8 212a584 584 0 0 1-57-36.8c-15.6-13-29.9-34.4-31.4-34.4s-3.4 3.9-3.4 3.9-1.5 1-2-.9-4.2-2.8-4.2-1.5-7.5 15.2-30.3 32.9a575 575 0 0 1-56.2 36.5v.4z" fill="#21409a"/></g><g id="g20413"><g id="g20415"><path id="path20417" d="m171.5 146.4.2-4.5q-1-1-1.3-1c-1.5 0-3.4 3.8-3.4 3.8s-1.5 1-2-.9c-.2-1.4-2.3-2.2-3.4-2l.3 2.2" fill="none"/></g><g id="g20419"><path id="path20421" d="m143.8 115.8-11.6 7.7c-18 11.8-57.9 33.3-57.9 87.6v.6a575 575 0 0 0 56.2-36.5c22.8-17.7 30.3-31.6 30.3-32.9q0-.5.8-.6a123 123 0 0 0-3.8-18.6c-1.5-4.7-8.5-6.6-14-7.3" fill="#6dcff6"/></g><g id="g20423"><path id="path20425" d="m202.2 123.5-9.6-6.3c-5-.4-12-.5-15.4 1.9-3.8 2.8-5.1 15.8-5.5 22.8 4 4.5 16.6 22 30 33.3a584 584 0 0 0 57.1 36.9h1.3v-1c0-54.3-40-75.8-58-87.6" fill="#6dcff6"/></g><g id="g20427"><path id="path20429" d="M177.2 119c3.3-2.3 10.5-2.2 15.4-1.8-12.2-8.3-21.7-15.3-23.3-16q-2.2-.8-4.3 0c-1.4.7-10 6.9-21.2 14.6 5.5.7 12.5 2.6 14 7.3 2 5.9 3.2 14.5 3.8 18.6 1.1 0 3.2.7 3.5 2.1.4 2 1.9.9 1.9.9s2-3.9 3.4-3.9q.3 0 1.3 1.1c.4-7 1.7-20 5.5-22.8" fill="#ffffff"/></g></g><g id="g20431"><g id="g20433"><path id="path20435" d="M258.8 215.6H74.3c-.8-2-1.5-2.7-1.5-3.5v-.3q0-.8.8-1.4a575 575 0 0 0 56-36.4c21.9-17 29.2-30.2 29.7-31.8 0-1 .9-2 2.5-2 1.5 0 3.7 1 4.5 2.6 1-1.6 2.4-3.5 4.1-3.5 1.2 0 1.9.8 7 7.2 5.7 7.1 15.3 19.2 25.3 27.5a591 591 0 0 0 56.8 36.8q1 .6.7 1.7c-.3 1-.2 1.6-1 1.6zm-179.5-5h174a521 521 0 0 1-52.5-34.3 202 202 0 0 1-25.8-28c-1.9-2.3-3.8-4.8-4.8-5.7a12 12 0 0 0-1.9 2.7q0 .4-.4.6c-.2.1-1 .6-1.8.6-.4 0-2-.2-2.5-2.4 0-.3-.8-.7-1.5-.9-1.5 4-10 17.2-30.7 33.2a549 549 0 0 1-52.1 34.2" fill="#ffffff"/></g></g><g id="g20437"><g id="g20439"><path id="path20441" d="M173.6 335.4h-13.1c-25.5-2.4-50.3-17-51.4-17.7a3 3 0 0 1-1.2-3.6l8.5-22.3c-4-2.6-12.7-8.7-21.5-18.8a93 93 0 0 1-23.6-61.9c0-52.3 36-75.3 55.4-87.6l3.8-2.5c9.2-6 17.6-11.8 23.7-16.1 6.4-4.5 8.6-6 9.6-6.4 2-.9 4.6-1 6.7 0 1.1.5 3.4 2 9.9 6.6a878 878 0 0 0 27.3 18.4C227 135.8 263 158.8 263 211a93 93 0 0 1-23.6 62c-8.8 10-17.5 16.1-21.5 18.7l8.5 22.3a3 3 0 0 1-1.3 3.6 142 142 0 0 1-51.6 17.7m-12.7-6h12.6a135 135 0 0 0 46.5-15.6l-8.5-22.2a3 3 0 0 1 1.4-3.7c.4-.2 44.2-25.3 44.2-76.8 0-49-33-70-52.6-82.6l-4-2.5a1090 1090 0 0 1-32.4-22q-.9-.3-1.8 0c-.8.4-4.6 3-8.6 5.8a901 901 0 0 1-23.9 16.2l-3.9 2.5C110.1 141 77.2 161.9 77.2 211c0 51.5 43.8 76.6 44.2 76.8a3 3 0 0 1 1.4 3.7l-8.5 22.2a135 135 0 0 0 46.5 15.6" fill="#ffffff"/></g></g></g><g id="g20443"><g id="g20445"><path id="path20447" d="m228 316.8-1.1-3.1a7 7 0 0 0-8.7-4.2l-7.7 2.7a7 7 0 0 0-4.5 7.4l-3 .9a7 7 0 0 0-7-3.9l-8 1a7 7 0 0 0-6 6.3l-4.1.2a7 7 0 0 0-6.7-5.6H163a7 7 0 0 0-6.7 5.6l-3.9-.2a7 7 0 0 0-6-6.3l-8.1-1c-3-.4-5.8 1.3-7 3.9l-2.9-.9a7 7 0 0 0-4.5-7.4l-7.7-2.7a7 7 0 0 0-8.7 4.2l-1.1 3a7 7 0 0 0 4.2 8.7l7.7 2.8a7 7 0 0 0 8.5-3.6l3.5 1v.2a7 7 0 0 0 6 7.6l8.1 1a7 7 0 0 0 7.5-5.3l4.3.3c.4 3.4 3.3 6 6.8 6h8.2c3.5 0 6.3-2.6 6.7-6l4.6-.3c.8 3.4 4 5.7 7.5 5.3l8.1-1a7 7 0 0 0 6-7.6v-.2l3.5-1a7 7 0 0 0 8.4 3.6l7.8-2.8a7 7 0 0 0 4.2-8.6m-108 6.4-7.7-2.7a1.6 1.6 0 0 1-1-2l1-3q.8-1.6 2.1-1l7.8 2.6q.8.3 1 1.1a2.6 2.6 0 0 0-1.6 4.8q-.7.5-1.5.2m25 6-8.1-1q-1-.2-1.4-1.1 2.1 0 2.7-2c.4-1.3-.3-2.6-1.6-3q.5-.4 1-.3l8.2 1q.8.1 1.2.8a2.6 2.6 0 0 0-.5 5q-.6.7-1.5.6m26.2 1H163q-.8 0-1.4-.8 1.4-.6 1.6-2.2 0-1.9-1.7-2.6.5-.8 1.5-.9h8.2q1 0 1.4 1a2.6 2.6 0 0 0 0 4.7q-.5.7-1.4.8m26.3-2-8.2 1q-.8 0-1.4-.6a2.6 2.6 0 0 0-.6-5q.4-.6 1.3-.8l8.1-1q.6 0 1 .2a2.6 2.6 0 0 0 1.1 5q-.3 1-1.3 1.2m24.6-7.7-7.8 2.7q-.8.3-1.5-.2a2.6 2.6 0 0 0-1.6-4.8q.2-.8 1-1l7.7-2.8q1.5-.3 2 1l1.1 3q.4 1.6-1 2.1" fill="#ed1a3b"/><path id="path20449" d="M171.2 336.4H163a8 8 0 0 1-7.7-6l-2.7-.2a8 8 0 0 1-8.3 5.2l-8.2-1a8 8 0 0 1-6.8-8l-2-.6a8 8 0 0 1-9.3 3.3l-7.8-2.7a8 8 0 0 1-4.7-10l1-3a8 8 0 0 1 10-4.8l7.7 2.7a8 8 0 0 1 5.3 7.6l1.3.4a8 8 0 0 1 7.6-3.7l8.2 1c3.4.4 6 3 6.7 6.3l2.2.2c1-3.3 4-5.6 7.5-5.6h8.2c3.5 0 6.5 2.3 7.5 5.6l2.4-.2a8 8 0 0 1 6.7-6.3l8.1-1c3.1-.4 6 1.1 7.6 3.7l1.4-.4c-.1-3.4 2-6.5 5.2-7.6l7.8-2.7a8 8 0 0 1 10 4.8l1 3a8 8 0 0 1-4.8 10l-7.7 2.7a8 8 0 0 1-9.3-3.3l-2 .6c.1 4-2.8 7.5-6.8 8l-8.2 1a8 8 0 0 1-8.3-5.2l-3 .1c-.8 3.5-4 6-7.6 6m-19.3-8.3 4.4.3q.7 0 .9.9c.3 2.9 2.8 5 5.8 5h8.2c3 0 5.4-2.1 5.8-5q0-.8.9-.9l4.5-.3q.9 0 1 .8a6 6 0 0 0 6.4 4.5l8.2-1a6 6 0 0 0 5-6.5v-.2q0-.7.8-1l3.5-1q.8-.3 1.2.5a6 6 0 0 0 7.2 3l7.8-2.7c3-1 4.6-4.4 3.5-7.4l-1-3a6 6 0 0 0-7.5-3.6l-7.7 2.7a6 6 0 0 0-3.9 6.3q.1.9-.7 1l-2.9 1q-.8 0-1.1-.6a6 6 0 0 0-6-3.3l-8.2 1a6 6 0 0 0-5 5.4q-.1.8-1 .9l-4 .2a1 1 0 0 1-1.1-.8 6 6 0 0 0-5.7-4.8H163c-2.9 0-5.3 2-5.8 4.8q-.1.8-1 .8l-3.8-.2a1 1 0 0 1-1-1c-.2-2.7-2.3-5-5-5.3l-8.2-1c-2.5-.3-5 1-6 3.3a1 1 0 0 1-1.2.5l-2.9-.8a1 1 0 0 1-.7-1.1 6 6 0 0 0-3.8-6.3l-7.8-2.7q-.9-.4-1.9-.4a6 6 0 0 0-5.5 4l-1 3c-1.1 3 .5 6.3 3.5 7.4l7.8 2.7q.9.3 1.9.3a6 6 0 0 0 5.3-3.3 1 1 0 0 1 1.1-.6l3.6 1q.8.4.7 1.1v.2a6 6 0 0 0 5 6.5l8.2 1a6 6 0 0 0 6.4-4.5 1 1 0 0 1 1-.8m19.3 3H163q-1.5 0-2.2-1.1a1 1 0 0 1 .4-1.5q1-.3 1-1.4t-1-1.6a1 1 0 0 1-.6-1.3q.8-1.5 2.4-1.5h8.2q1.6 0 2.4 1.6.3.8-.5 1.3a1.6 1.6 0 0 0 0 2.9 1 1 0 0 1 .3 1.4q-.7 1.3-2.2 1.3m-7.7-2h7.3q-.6-.8-.6-1.8-.1-1.5.8-2.6h-7.6a4 4 0 0 1 .1 4.5m25.6 1.1q-1.2 0-2-1a1 1 0 0 1 .4-1.5 1.6 1.6 0 0 0-.3-3.1 1 1 0 0 1-.7-1.5q.6-1.1 2-1.3l8-1q1 0 1.7.3a1 1 0 0 1-.1 1.8q-1.3.6-1 2 .4 1.1 1.5 1.2h.2q.5 0 .8.3.4.4.2 1-.6 1.6-2.2 1.8l-8.1 1zm.4-6.5a4 4 0 0 1 .5 4.4l6.4-.8a4 4 0 0 1-1-4.3zm-44.3 6.5h-.3l-8.2-1q-1.6-.3-2.1-1.8a1 1 0 0 1 1-1.3h.1q1.2 0 1.6-1.2.3-1.4-1-2a1 1 0 0 1-.2-1.8q.8-.4 1.7-.3l8.1 1q1.4.2 2 1.3a1 1 0 0 1-.7 1.5 1.6 1.6 0 0 0-.3 3 1 1 0 0 1 .3 1.6q-.8 1-2 1m-7.3-2.9 6.5.8a4 4 0 0 1 .5-4.4l-5.9-.7a4 4 0 0 1-1 4.3m75.9-3q-1 0-1.7-.6a1 1 0 0 1 .1-1.6q.9-.6.6-1.7t-1.5-1.2a1 1 0 0 1-1-.4 1 1 0 0 1 0-.9q.3-1.2 1.5-1.7l7.8-2.7.9-.2q1.7 0 2.4 1.8l1 3a2.6 2.6 0 0 1-1.5 3.4l-7.8 2.7zm-.5-6.5a4 4 0 0 1 1.4 4.2l7-2.4q.3 0 .4-.3v-.5l-1-3a1 1 0 0 0-.8-.4zm-92.7 6.5-.9-.1-7.7-2.7a2.6 2.6 0 0 1-1.6-3.3l1-3.1c.5-1.3 2-2 3.4-1.6l7.7 2.7q1.2.6 1.7 1.7l-.2 1-.8.3q-1.3 0-1.7 1.2-.2 1 .7 1.7a1 1 0 0 1 0 1.6q-.7.6-1.6.6m-6.7-9q-.5 0-.6.5l-1 3v.5l.3.3 7 2.4a4 4 0 0 1 1.5-4.2l-7-2.4z" fill="#790000"/></g><g id="g20451"><g id="g20453"><g id="g20455"><path id="path20457" d="M171.2 335.4H163c-3.8 0-6.9-3-6.9-6.8v-3.3c0-3.7 3.1-6.8 6.9-6.8h8.2c3.7 0 6.8 3 6.8 6.8v3.3c0 3.7-3 6.8-6.8 6.8m-8.2-11.7q-1.5.1-1.6 1.6v3.3q.1 1.5 1.6 1.6h8.2q1.5-.1 1.6-1.6v-3.3q-.1-1.5-1.6-1.6z" fill="#ed1a3b"/><path id="path20459" d="M171.2 335.9H163c-4 0-7.4-3.3-7.4-7.3v-3.3c0-4 3.3-7.3 7.4-7.3h8.2c4 0 7.3 3.3 7.3 7.3v3.3c0 4-3.3 7.3-7.3 7.3M163 319a6.3 6.3 0 0 0-6.4 6.3v3.3c0 3.5 2.9 6.3 6.4 6.3h8.2c3.5 0 6.3-2.8 6.3-6.3v-3.3c0-3.5-2.8-6.3-6.3-6.3zm8.2 11.7H163c-1.2 0-2.1-1-2.1-2.1v-3.3q.2-1.8 2-2h8.3q1.8.2 2 2v3.3q-.2 1.8-2 2m-8.2-6.5q-1 .1-1.1 1.1v3.3q.1 1 1 1h8.3q1 0 1-1v-3.3q0-1-1-1z" fill="#790000"/></g></g><g id="g20461"><g id="g20463"><path id="path20465" d="m198.1 333.4-8.1 1a7 7 0 0 1-7.6-6l-.4-3.2a7 7 0 0 1 6-7.6l8-1a7 7 0 0 1 7.7 6l.4 3.2a7 7 0 0 1-6 7.6m-9.5-10.6c-1 0-1.6.9-1.4 1.8l.4 3.2c0 .9.9 1.5 1.7 1.4l8.2-1c.9-.1 1.5-1 1.4-1.8l-.4-3.2c-.1-.9-1-1.5-1.8-1.4z" fill="#ed1a3b"/><path id="path20467" d="M189.1 335a7.3 7.3 0 0 1-7.2-6.5l-.4-3.2a7.3 7.3 0 0 1 6.4-8.2l8.1-1c4-.5 7.7 2.4 8.2 6.4l.4 3.2c.5 4-2.4 7.7-6.4 8.2l-8.2 1zm7.8-18-.8.1-8.1 1q-2.6.3-4.2 2.4c-1.6 2-1.5 3-1.3 4.6l.4 3.3a6.3 6.3 0 0 0 7 5.5l8.2-1a6.4 6.4 0 0 0 5.5-7l-.4-3.3a6.3 6.3 0 0 0-6.3-5.5m-7.8 12.7c-1 0-2-.8-2-1.9l-.4-3.2q-.2-.7.4-1.5c.6-.8.8-.7 1.4-.8l8.2-1c1.1-.2 2.2.7 2.3 1.8l.4 3.2q0 2-1.8 2.4l-8.2 1zm7.8-7.4h-.1l-8.2 1a1 1 0 0 0-1 1.2l.5 3.2q.2 1 1.2 1l8.1-1q1-.2 1-1.2l-.4-3.3q-.1-.9-1-1" fill="#790000"/></g></g><g id="g20469"><path id="path20471" d="M189.5 326q-.2 2.4-2.4 2.8l-13.2.9a2.6 2.6 0 1 1-.3-5.3l13.1-.8c1.5-.1 2.7 1 2.8 2.4" fill="#ed1a3b"/><path id="path20473" d="M173.8 330.2a3.1 3.1 0 0 1-.2-6.3l13-.8a3.1 3.1 0 0 1 2.6 5.1q-.8 1-2.1 1.1l-13.1.9zm13-6.1-13.2.8a2 2 0 0 0-2 2.3c.1 1 1 2 2.2 2h.1l13.1-.9a2 2 0 0 0 2-2.2c0-1.2-1-2-2.1-2" fill="#790000"/></g><g id="g20475"><g id="g20477"><path id="path20479" d="m223.8 325.4-7.8 2.8a7 7 0 0 1-8.7-4.2l-1-3a7 7 0 0 1 4.2-8.8l7.7-2.7c3.6-1.2 7.5.6 8.7 4.2l1 3a7 7 0 0 1-4.1 8.7m-11.6-8.3q-1.4.6-1 2l1 3.1q.8 1.4 2.1 1l7.8-2.7q1.3-.6 1-2l-1.1-3a1.6 1.6 0 0 0-2-1z" fill="#ed1a3b"/><path id="path20481" d="M213.8 329c-3.1 0-5.9-2-7-4.9l-1-3a7.3 7.3 0 0 1 4.5-9.4l7.8-2.7a7.3 7.3 0 0 1 9.3 4.5l1 3c1.4 3.9-.6 8-4.4 9.4l-7.8 2.7q-1.2.4-2.4.4m6.7-19.4q-1 0-2.1.4l-7.8 2.7a6.3 6.3 0 0 0-3.9 8l1.1 3.1a6.3 6.3 0 0 0 8 3.9l7.8-2.7c3.3-1.2 5-4.8 3.9-8l-1-3.1a6 6 0 0 0-6-4.3m-6.7 14.2q-1.5 0-2-1.4l-1-3c-.5-1.1.1-2.3 1.2-2.7l7.8-2.7c1-.4 2.3.2 2.7 1.3l1 3a2 2 0 0 1 0 1.6 2 2 0 0 1-1.3 1l-7.7 2.8zm6.7-9-.4.1-7.7 2.7q-1 .5-.7 1.4l1 3a1 1 0 0 0 1.4.8l7.8-2.8q.5 0 .6-.5a1 1 0 0 0 0-.9l-1-3q-.3-.8-1-.8" fill="#790000"/></g></g><g id="g20483"><path id="path20485" d="M213.8 320.1c.4 1.4-.4 2.8-1.8 3.2l-12.6 3.7a2.6 2.6 0 1 1-1.5-5l12.7-3.7c1.3-.4 2.8.4 3.2 1.8" fill="#ed1a3b"/><path id="path20487" d="M198.6 327.6c-1.3 0-2.6-1-3-2.3-.4-1.7.5-3.4 2.2-3.9l12.6-3.6a3.1 3.1 0 0 1 3.6 4.5q-.6 1.2-1.9 1.5l-12.6 3.6zm12.7-8.9h-.6l-12.6 3.7a2 2 0 0 0-1.5 2.6 2 2 0 0 0 2.6 1.5l12.7-3.6a2 2 0 0 0 1.4-2.7q-.4-1.4-2-1.5" fill="#790000"/></g><g id="g20489"><g id="g20491"><path id="path20493" d="M136.2 333.4a7 7 0 0 1-5.9-7.6l.4-3.3a7 7 0 0 1 7.6-5.9l8.2 1a7 7 0 0 1 5.9 7.6l-.4 3.2a7 7 0 0 1-7.6 6zm9.6-10.6-8.1-1q-1.6 0-1.8 1.4l-.4 3.2q0 1.5 1.4 1.8l8.1 1q1.6 0 1.8-1.4l.4-3.2q0-1.6-1.4-1.8" fill="#ed1a3b"/><path id="path20495" d="m145.2 335-.9-.1-8.1-1a7.3 7.3 0 0 1-6.4-8.2l.4-3.2c.5-4 4.1-6.9 8.2-6.4l8.1 1c4 .5 6.9 4.2 6.4 8.2l-.4 3.2a7.3 7.3 0 0 1-7.3 6.4m-7.7-18a6.3 6.3 0 0 0-6.3 5.6l-.4 3.2a6.3 6.3 0 0 0 5.5 7l8.2 1c3.5.5 6.6-2 7-5.4l.4-3.3c.4-3.4-2-6.6-5.5-7l-8.2-1zm7.7 12.7h-.2l-8.2-1a2 2 0 0 1-1.8-2.4l.4-3.2c.1-1.1 1.2-2 2.3-1.8l8.2 1c1.1.1 2 1.2 1.8 2.3l-.4 3.2q-.3 1.8-2 1.9m-7.7-7.4q-1 0-1.1 1l-.4 3.2.2.8.7.4 8.2 1q1 0 1.2-1l.4-3.2q0-1-1-1.2z" fill="#790000"/></g></g><g id="g20497"><path id="path20499" d="M144.9 326c-.1 1.5 1 2.7 2.4 2.8l13.1.9a2.6 2.6 0 1 0 .4-5.3l-13.1-.8c-1.5-.1-2.7 1-2.8 2.4" fill="#ed1a3b"/><path id="path20501" d="M160.6 330.2h-.2l-13.1-.9a3 3 0 0 1-3-3.3c.2-1.7 1.7-3 3.4-3l13.1 1a3 3 0 0 1 3 3.2c-.2 1.7-1.6 3-3.2 3m-13.1-6.1a2.1 2.1 0 0 0-.2 4.2l13.3.9a2.1 2.1 0 0 0 .1-4.3z" fill="#790000"/></g><g id="g20503"><g id="g20505"><path id="path20507" d="M110.6 325.4a7 7 0 0 1-4.2-8.6l1-3.1a7 7 0 0 1 8.8-4.2l7.7 2.7a7 7 0 0 1 4.2 8.7l-1 3a7 7 0 0 1-8.8 4.3zm11.6-8.3-7.8-2.7q-1.4-.3-2 1l-1 3q-.5 1.6.9 2.1l7.8 2.7q1.4.4 2-1l1-3q.5-1.5-1-2" fill="#ed1a3b"/><path id="path20509" d="M120.6 329q-1.2 0-2.4-.4l-7.8-2.7a7.3 7.3 0 0 1-4.5-9.3l1-3a7.3 7.3 0 0 1 9.4-4.6l7.8 2.7a7.3 7.3 0 0 1 4.5 9.4l-1.1 3c-1 3-3.8 5-7 5m-6.7-19.4c-2.7 0-5 1.7-6 4.3l-1 3a6.3 6.3 0 0 0 3.8 8l7.8 2.8a6.3 6.3 0 0 0 8-3.9l1.1-3a6.3 6.3 0 0 0-3.9-8.1L116 310q-1-.4-2-.4m6.7 14.2-.7-.1-7.8-2.7a2 2 0 0 1-1.3-2.7l1.1-3a2 2 0 0 1 2.7-1.3l7.8 2.7c1 .4 1.6 1.6 1.2 2.7l-1 3q-.5 1.4-2 1.4m-6.7-9q-.8 0-1 .8l-1.1 3v.9q.1.5.7.5l7.7 2.8q1 .2 1.4-.7l1.1-3q.3-1-.7-1.5l-7.7-2.7z" fill="#790000"/></g></g><g id="g20511"><path id="path20513" d="M120.6 320.1c-.4 1.4.4 2.8 1.8 3.2L135 327a2.6 2.6 0 1 0 1.5-5l-12.7-3.7c-1.4-.4-2.8.4-3.2 1.8" fill="#ed1a3b"/><path id="path20515" d="M135.7 327.6q-.5 0-.8-.2l-12.7-3.6a3.1 3.1 0 0 1 1.8-6l12.6 3.6a3.1 3.1 0 0 1-.9 6.2m-12.6-8.9q-1.6 0-2 1.5-.4 2 1.4 2.7l12.6 3.6h.6q1.6 0 2-1.5a2 2 0 0 0-1.4-2.6l-12.6-3.6z" fill="#790000"/></g></g></g><g id="g20517"><g id="g20519"><g id="g20521"><path id="path20523" d="M239.3 251.8h-.5l-4.4-2q-1.4-.5-3.5-.9c-2.3-.5-5.2-1-9.2-2.9-5-2.2-9.5-6-13.1-9q-1.8-1.6-3.3-2.6c-1.8-1.4-5-1.7-8-2q-4.2-.3-7.7-1.6a54 54 0 0 1-10.5-8l-1.3-1.4h-3.2l-2.3.6c-2.3.7-6.1 1.8-12.5 3.1q-2.7.6-5.2.6c-4.2 0-7.1-1.2-9.5-2.1q-2.5-1.2-4.6-1.3l-4.4.2-6.4.1q-5.9 0-8.2-1-1.4-.5-3-.5-2.5 0-3.7.6l.7 1.3a99 99 0 0 0 9 8c1.9 1.8 3.4 1.8 5 1.8h1.2c2.8.2 3.6 1.3 4.7 2.7v.2c1.3 1.7 1 5.8.8 7.5q-.1 1.2-1.5 1.3c-.2 0-2.3 0-5.4-1.5a25 25 0 0 1-7.6-6.2l-.1-.1-5.3-5.2a142 142 0 0 1-9.9-9.9 4 4 0 0 1-.4-4.2q2-3.6 8.8-3.8c5-.1 13.4-1.5 17.4-2.2q-.8-1.6-1.7-4.5a132 132 0 0 1-1.2-25.7l-.8-.2q-.8-.3-2.8-.3h-4c-2 0-3.3-.2-4.9-1.6l-3-2.6q-.6-.4-.6-1.2c0-.4.1-2.3 3.4-3.8q1.4-.6 3-.6l2 .1q2 .4 3.7 0c2.5-.5 5.7-2 6.8-2.4q.8-1.2 3.5-3.7l2.7-2.6a36 36 0 0 0 6.4-15.3c.3-3 .5-5.6 2.6-5.6l.8.1c1.3.6 2 3.1 2.2 6.2q.3-.8.8-1.4a2 2 0 0 1 2.3-.5c1.7.9 3 7.2 2 13.3-.7 4-3.4 7-5.9 9 1.8.6 3 2.4 3 2.7q.5.8 0 1.7c-.9 1-3 3.3-4.9 3.3q-.7 0-1.2-.4l-1.2-.2h-.5l-.1.9c-.4 2.6-1 11.2 0 16q1.5 8.4 14.7 10.8 2.7.6 5 .5c3.9 0 6.7-1 9.8-2.1q3-1.3 6.8-2.1a19 19 0 0 1 13.1 2l2.3-2a7 7 0 0 1 4.6-1.4c1.9 0 3.6.4 3.7.5a1.5 1.5 0 0 1 .3 2.8c-.7.3-2.5 1.4-3 2.7-.5 2-2.5 3-4 3.2l-.9 2.6c-.2.9.7 6 3.8 10.1a18 18 0 0 0 9.4 6.6c2.3.4 3.2 2.8 4 4.9l.8 2c.5 1 2.4 3.1 8.5 6.6 2.7 1.6 5.2 2.1 6.4 2.4h.4l1.8.2q2 0 4.1.4c2.8.7 4.2 5.6 4.5 7.1a1.5 1.5 0 0 1-1.4 1.9m-58-31a51 51 0 0 0 9.6 7.3q2.7 1 6.7 1.3c3.5.3 7 .7 9.5 2.6l3.4 2.7c3.4 3 7.7 6.5 12.4 8.6a38 38 0 0 0 8.6 2.7 19 19 0 0 1 5.3 1.7q-.7-1.6-1.2-2l-3.7-.3q-1.3 0-2.2-.2h-.4c-1.3-.4-4.2-1-7.3-2.8q-8.3-4.7-9.8-8l-.8-2.2c-.5-1.3-1-2.9-1.7-3-2.5-.4-7.7-2.9-11.3-7.7-3.5-4.7-5-11-4.1-13.1.4-1 .7-2.5.8-3q.2-1.1 1.4-1.2c.6 0 2.3-.3 2.6-1.3a6 6 0 0 1 1.2-2q-1.5 0-2 .6-2.8 2.4-2.7 2.6a1.5 1.5 0 0 1-2.2.3 16 16 0 0 0-12-2.3q-3.4.8-6.3 2c-3.2 1.1-6.4 2.3-10.8 2.3q-2.7 0-5.6-.5-15-3-17.1-13.2c-1.2-6.2 0-16.9 0-17l.2-2q0-1 1.2-1.3s1-.2 2.2-.2q1.5 0 2.5.5.7-.2 1.6-1.2-.7-.7-1.3-.8h-3.2a1.5 1.5 0 0 1-.6-2.9s7.3-3.4 8.2-9.2v-.4q-.7 2.8-3 5c-3.9 3.6-8.4 6-8.5 6.1a1.5 1.5 0 0 1-1.8-2.4s7-6.6 7.9-12.3q.4-3 .4-5.3a37 37 0 0 1-7 15.1l-2.7 2.7q-2.8 2.5-3.3 3.5l-.7.5c-.1.1-4.4 2.1-7.8 2.9q-2.4.4-4.6 0l-1.7-.1-1.7.3-1.3.8 2.2 1.9c.8.7 1.3.9 3 .9l4-.1q2.3 0 3.6.4l2 .6q1 .4 1 1.5c-.2 5.7-.4 21.4 1 25.7 1.3 4.2 2 5.3 2.2 5.5a1.5 1.5 0 0 1-.7 2.6c-.5 0-13.2 2.5-20 2.6-3.9 0-5.7 1.2-6.2 2.1q-.2.5.1 1.1l3.5 3.7q-1-2-.2-3.4c.8-1.4 4.3-2 6.4-2q2.3 0 4.1.8 1.8.7 7.1.7l10.8-.3q3 .1 5.7 1.5a22 22 0 0 0 13 1.4q9.1-2 12.2-3 2.3-.9 3.2-.8h.4l-1.6-2a1.5 1.5 0 0 1 2.4-2zm-58.7 12.7 1.1 1 .2.3c2.4 2.5 4 4.2 6.7 5.5q1.6.7 2.8 1c0-1.8 0-3.4-.3-3.8l-.1-.2c-1-1.2-1.1-1.4-2.5-1.5h-1c-1.8 0-4.2 0-6.9-2.3m27.6-80.4q0 1-.3 2-.5 2.7-2 5.3c1.8-2 2.2-5 2.3-7.3" fill="#9a6104"/></g></g><g id="g20525"><g id="g20527"><path id="path20529" d="M133 169.8s-4.1 2-7.4 2.7-5.8-.8-8.4.3-2.5 2.5-2.5 2.5l3.1 2.7c1.1 1.1 2 1.3 4 1.3s5.3-.4 7.2.2l1.9.6s-.7 20.8 1 26.3 2.7 6.1 2.7 6.1-13 2.5-19.8 2.6-8.8 3.4-7.2 5.6 12.5 12.2 15 15 4.4 4.5 7.3 6 4.8 1.3 4.8 1.3.6-5-.4-6.4-1.6-2.2-3.7-2.3-4.3.4-7.1-2-8.2-7.1-9.2-8.4-1.3-2.5-1-3 5.1-2.2 8.8-.7 13.6.6 18.4.6 8.7 5 19 2.9 13.8-3.8 15.1-3.8h3.4l-3.4-4.5 5.5 6.4s5.8 5.5 10.1 7.6 12.1.8 16 3.8 9.5 8.5 16 11.5 10 2.5 12.9 3.8l4.2 1.8s-1.3-5.5-3.4-6-4.8-.3-5.9-.6-4-.7-7.3-2.6-8-4.8-9.1-7.4-1.7-5.6-3.6-6-7-2.5-10.4-7.1-4.6-10.3-4-11.6 1-3.3 1-3.3 3.3-.1 4-2.3 3.6-3.7 3.6-3.7-4.8-1.2-7 .6-2.9 3-2.9 3-5.4-4.2-13.1-2.6-11.6 5.7-22.2 3.7-14.9-6.6-16-12-.2-14.5 0-16.5l.3-2s2.6-.6 3.9.2 4-2.5 4-2.5-1.3-2.4-3.2-2.4h-3.2s8-3.6 9-10.3-.6-11.5-1.1-11.8-1.2.6-1 2.6.6 8.8-3.2 12.3-8.4 6-8.4 6 7.3-6.9 8.4-13.1-.2-11.6-1-12-1 1.4-1.3 4.2-3.3 12.6-6.9 16.2-5.5 5.3-6.2 6.5" fill="#e9c31e"/><path id="path20531" d="M239.3 251h-.2l-4.3-1.8q-1.6-.7-3.7-1c-2.3-.5-5.1-1-9.1-2.9-5-2.2-9.4-5.9-13-8.8l-3.3-2.7c-2-1.5-5.2-1.9-8.3-2.2q-4.2-.1-7.5-1.5c-4.4-2.2-10-7.6-10.3-7.8l-1.4-1.7h-3.6q-.6 0-2.5.7c-2.3.7-6.1 1.8-12.5 3q-2.6.6-5 .6c-4 0-6.8-1-9.3-2q-2.5-1.2-4.8-1.3l-4.4.1-6.4.2q-5.7 0-8-1-1.4-.6-3.2-.6c-2.3 0-4.1.7-4.5 1 0 .2 0 1 1 2.1a94 94 0 0 0 9 8.3c2.1 1.8 3.8 1.8 5.6 1.9h1c2.5.1 3.2 1 4.2 2.4v.1c1.2 1.6.8 6.1.7 7q-.1.6-.8.7s-2 0-5.1-1.5-4.8-3.4-7.3-6l-.2-.2-5.3-5.1c-4-4-8.7-8.4-9.8-9.8q-1.2-1.8-.3-3.5c1-2 4-3.3 8-3.4 5.6 0 15.3-1.7 18.6-2.3-.5-1-1.2-2.5-2.1-5.4a138 138 0 0 1-1.1-26l-1.3-.4a11 11 0 0 0-3-.3l-2.4.1h-1.7c-1.9 0-3-.2-4.4-1.4l-3.1-2.7-.3-.6c0-.2.1-1.8 3-3.1q1.2-.6 2.7-.6l2 .2q1.9.2 3.8 0a41 41 0 0 0 7.2-2.6q.8-1.2 3.5-3.7l2.7-2.7a36 36 0 0 0 6.7-15.7c.2-3 .5-5 1.8-5l.5.1c1.5.7 2.4 6.8 1.4 12.8-.6 3.3-2.7 6.8-4.8 9.4q1.8-1.3 3.6-2.9c3.4-3.1 3-9.4 2.9-11.5v-.2q-.1-2.1.7-3 .7-.7 1.4-.3c1 .5 2.7 5.8 1.6 12.5-.7 4.6-4.4 7.8-7 9.5h.4c2.3 0 3.9 2.6 4 2.7l-.1.8c-.5.5-2.6 3-4.3 3q-.5 0-.8-.2a3 3 0 0 0-1.6-.3H144l-.2 1.5c-.3 2.6-1 11.3 0 16.3q1.7 8.8 15.4 11.4 2.7.5 5 .5c4 0 7-1 10.1-2.2q3-1.3 6.8-2a19 19 0 0 1 13 2.2l2.7-2.5q1.5-1 4-1.1c1.9 0 3.5.4 3.6.4a.7.7 0 0 1 .1 1.4s-2.6 1.3-3.2 3.2-3 2.6-4.1 2.8c-.2.7-.5 2-.9 2.9s.6 6.4 4 10.9a18 18 0 0 0 9.8 6.8c1.9.4 2.6 2.3 3.4 4.4l.8 2q1.3 2.8 8.8 7c2.9 1.7 5.4 2.2 6.7 2.5h.4q.6.2 1.9.3 1.8-.1 4 .4c2.4.5 3.7 5.5 4 6.5a.7.7 0 0 1-.8 1m-64.7-36.3q.4 0 .6.2l5.5 6.4s5.7 5.4 9.9 7.4q2.8 1.3 7 1.4c3.3.4 6.7.7 9 2.5l3.4 2.7c3.5 3 7.8 6.5 12.6 8.7 3.8 1.7 6.6 2.3 8.8 2.7q2.2.4 4 1.1l2.8 1.3c-.6-1.9-1.6-3.9-2.5-4q-2-.4-3.7-.5l-2.1-.1-.4-.1c-1.3-.3-4-.9-7.1-2.6q-8.1-4.6-9.5-7.7l-.8-2.1c-.7-1.8-1.2-3.3-2.3-3.5A20 20 0 0 1 199 221c-3.4-4.6-4.8-10.6-4-12.3.5-1.2.8-3.1.8-3.1q.2-.6.7-.7s2.8 0 3.4-1.8a7 7 0 0 1 2.2-3H201q-2.2 0-3.1.8-2.9 2.6-2.8 2.8a1 1 0 0 1-1.1.1 17 17 0 0 0-12.5-2.4q-3.7.8-6.6 2a28 28 0 0 1-10.5 2.3q-2.6 0-5.4-.6-14.6-2.7-16.6-12.5c-1.2-6.2 0-16.7 0-16.8l.3-2q0-.5.5-.6s1-.3 2.1-.3q1.5 0 2.4.6c.6 0 1.8-1 2.7-2-.5-.6-1.4-1.5-2.3-1.5h-3.2a.7.7 0 0 1-.3-1.5c.1 0 7.6-3.5 8.6-9.7.8-5.1 0-9-.6-10.5l-.1 1.4v.2c.2 2.5.6 9-3.4 12.7-4 3.5-8.3 6-8.5 6a.7.7 0 0 1-.9-1.1s7.1-6.8 8.1-12.7c.9-5 .2-9.3-.3-10.8l-.4 3.2c-.3 3-3.4 12.9-7.2 16.7l-2.7 2.6a26 26 0 0 0-3.7 4c-.2 0-4.3 2-7.7 2.7q-2.2.4-4.3 0a7 7 0 0 0-3.8.3q-1.9 1-2 1.5l2.7 2.4c1 1 1.7 1.1 3.4 1.1h4q2.3 0 3.5.3l1.9.6q.5.2.5.7c0 .2-.7 20.7 1 26 1.6 5 2.4 5.8 2.5 5.8q.3.3.3.8t-.6.5c-.6.1-13.2 2.5-20 2.6-4.1.1-6.2 1.4-6.8 2.6q-.4 1 .2 1.9c1 1.3 5.8 5.9 9.6 9.6l5.4 5.2.2.2a23 23 0 0 0 6.9 5.6q2.6 1.3 3.8 1.3c.1-2 .1-4.5-.4-5.2l-.1-.1c-1-1.3-1.3-1.7-3-1.8h-1c-2 0-4 0-6.6-2.3l-1.7-1.5c-3.7-3.2-6.8-6-7.6-7q-1.7-2.5-1-3.9c.5-.8 3.3-1.6 5.8-1.6q2.1 0 3.9.8 2 .8 7.3.8l6.4-.2 4.4-.1q2.7.2 5.4 1.4a22 22 0 0 0 13.4 1.4c6.3-1.3 10-2.4 12.3-3q2.3-.8 3-.8h2L174 216a.7.7 0 0 1 .6-1.2" fill="#9a6104"/></g><g id="g20533"><path id="path20535" d="M120.7 216.4s7.2-1 11.3-1 8.7.4 8.4.8-4.8 1.8-9 1.5-10.7-1.3-10.7-1.3" fill="#ffe96b"/></g><g id="g20537"><path id="path20539" d="M128.2 235.9c0-.3 2.3-.6 3.3 1.2s1.2 3 .9 2.8-4.4-1.2-4.2-4" fill="#ffe96b"/></g><g id="g20541"><path id="path20543" d="M138.7 196c.3 0 3.7 11.3 13.8 12.4s15 .2 16.3-.6 6.2-2.9 11-2.1 5.3-.4 6.7 2.5 3.4 5.1 1.9 5.3-1.7-.8-4-2-7.2-4.1-12-1.8-11.9 4.5-16.8 4-10.9-4.4-13-7.2-4.8-9.8-3.9-10.4" fill="#ffe96b"/></g><g id="g20545"><path id="path20547" d="M195.2 221.2s2.3 5 8.2 6.5 6 1.8 6.7 3 1 2.6-.8 1.3-4.8-2.6-7.3-3.9-6.9-3-6.8-6.9" fill="#ffe96b"/></g><g id="g20549"><path id="path20551" d="M119.6 174s-2.7.7.9 1.5 4.8.2 8.3.6 6.2 1.4 6.9 1.1-4-4-2.9-4.5 4.6-2.4 4.8-2.8 2.1-3.5 2-3.7-2.9 3.8-7.4 5.6-11.7 3-12.6 2.2" fill="#ffe96b"/></g><g id="g20553"><path id="path20555" d="M139 173.3s-1.9-1.3-4-.6-2 1.1-2 1.1.2 1 2.5 1 3.5-1.6 3.5-1.6" fill="#9a6104"/></g></g></g></g><g id="g20557"><g id="g20559"><g id="g20561"><g id="g20563"><path id="path20565" d="M297.3 249.5s7.7.2 13-4.5c5.5-4.7 5.8-13.5 5.8-13.5s-9 3.5-13.6 8.2-5.2 9.8-5.2 9.8" fill="#e9c31e"/><path id="path20567" d="M297.5 251h-.3a1.5 1.5 0 0 1-1.4-1.7c0-.2.8-5.7 5.6-10.7a48 48 0 0 1 14.2-8.5 1.5 1.5 0 0 1 2 1.5c0 .4-.4 9.5-6.2 14.6a23 23 0 0 1-14 4.8m16.8-17a39 39 0 0 0-10.7 6.7 19 19 0 0 0-4.4 7.2c2.5-.2 6.8-1 10.2-4 3.2-2.8 4.4-7.2 5-10" fill="#9a6104"/></g><g id="g20569"><path id="path20571" d="M290.2 269s8 1.4 14.3-2.6 8-13 8-13-9.8 2.2-15.3 6.3-7 9.2-7 9.2" fill="#e9c31e"/><path id="path20573" d="m293.8 270.7-3.8-.3a1.5 1.5 0 0 1-1.2-2c0-.1 1.7-5.6 7.5-10a50 50 0 0 1 15.9-6.5q.8-.1 1.4.4t.4 1.4c0 .4-2 9.7-8.7 14-4 2.5-8.4 3-11.5 3m-1.4-3c2.6 0 7.3 0 11.3-2.6a19 19 0 0 0 6.7-9.6c-3.2.9-8.8 2.7-12.3 5.4-3.1 2.3-4.8 5-5.7 6.7" fill="#9a6104"/></g><g id="g20575"><path id="path20577" d="M283.4 282.3a157 157 0 0 0 17.8-52c1.7-.2 7.4-1 11.3-5 4.6-4.8 4.3-13 4.3-13s-8.1 4-12 8.6a19 19 0 0 0-2.9 4.6 229 229 0 0 0 1.5-15c1.1-.4 7.1-2.2 10.4-7.2 3.6-5.5 1.8-13.4 1.8-13.4s-7.2 5.3-10.1 10.6q-1.5 3-2 5.5a113 113 0 0 0-.7-12.8s6.2-3 8.5-8.9c2.3-5.8-1-13-1-13s-5.6 6.5-7.3 12q-1 3.3-.8 5.6a112 112 0 0 0-2.9-13.3s5.6-3.6 7.2-9.5c1.5-5.9-2.5-12.3-2.5-12.3s-4.7 6.8-5.7 12.3q-.5 4 .1 6.5-2.3-7.2-5.4-14a17 17 0 0 0 4.9-10.2c.4-6.1-4.4-11.8-4.4-11.8s-3.2 7.5-3.1 13q0 2.8.6 4.8-3.1-6.3-7-12c1-1.5 3.3-5.5 3-10.3-.2-6-6-9-6-9s-1.4 5.6-.7 11.1q.2 2 .8 3.7-3.8-5.3-7.7-10c.8-1.8 2.4-5.7 1.8-10-.9-6-6.8-8.3-6.8-8.3s-.8 5.5.3 10.9q.4 1.8 1 3.2-4.2-4.6-8.4-8.7a18 18 0 0 0 1-10.8c-1.6-5.8-7.7-7.3-7.7-7.3s-.2 5.5 1.6 10.7q1 3 2.3 4.8-6.1-5.7-11.6-9.8a18 18 0 0 0-.8-10.9c-2.4-5.4-8.8-6-8.8-6s.8 5.5 3.3 10.4q1.2 2.2 2.6 3.7-6-4.3-11.1-7.3c.1-1.7.3-6.3-2.1-10.3-3-5.2-9.4-5-9.4-5s1.3 5.4 4.4 9.9q1.1 1.5 2.2 2.6c-4.6-2.4-7.9-3.9-8.9-4.3a11 11 0 0 0-5.9-6.4c-5.1-2.2-14.3-.1-14.3-.1s4.8 6.4 9.6 8c3.2 1.2 7.1.6 9.3.1l.3.1s4 1.7 10.2 5a54 54 0 0 0-10.1-.6c-7 .2-11.4 2.7-11.4 2.7s5.8 4 13.5 4c5.6.2 9.3-2.8 11-4.4q5.9 3.5 13.2 8.8c-2.6-.7-6.5-1.7-10.6-2-7-.5-11.6 1.4-11.6 1.4s5.2 4.6 12.9 5.6c5.8.8 9.9-2 11.5-3.3q5.6 4.3 11.8 10.1a56 56 0 0 0-9.7-3.5c-6.9-1.7-11.7-.5-11.7-.5s4.5 5.4 11.8 7.6c5.6 1.7 10.1-.3 12-1.4q5.4 5.3 10.8 11.7a56 56 0 0 0-10.6-5.5c-6.7-2.4-11.6-1.8-11.6-1.8s3.8 5.9 10.9 8.9c5.9 2.5 10.9.5 12.4-.2q4.7 5.5 9 12a56 56 0 0 0-9.5-6c-6.5-3-11.6-2.9-11.6-2.9s3.3 6.3 10.2 10.1c5.4 3 10.3 1.7 12.3 1q3.6 6 6.8 12.3a49 49 0 0 0-8-6c-6.6-3.8-12.7-3-12.7-3s2 5.3 9 9.8c5 3.3 10.7 3 13.4 2.6q2.6 6 4.7 12.3a50 50 0 0 0-7-6.8c-6.2-4.9-12.8-5-12.8-5s1.2 5.4 7.7 11c4.5 4 10.4 4.8 13.3 5a111 111 0 0 1 2.9 13.2 52 52 0 0 0-6.6-8.2c-5.7-5.8-12.2-4.7-12.2-4.7s.3 3.7 6.2 10.3c4.2 4.7 10 6.2 13.1 6.7q.7 6 .7 12.5c-.9-2.4-2.2-5.5-4.2-8.4-4.3-6.3-11.7-6-11.7-6s-1 3.8 3.3 10.9c3.2 5.4 9.6 7.4 12.5 8a119 119 0 0 1-1.5 15.5c-.4-2.6-1.2-6.1-2.7-9.6-3-7.1-10.4-8.2-10.4-8.2s-1.7 3.5 1.1 11.4c2.3 6.2 8.7 9.5 11.3 10.6q-1.3 7.5-3 14.3a41 41 0 0 0-2.2-9.5c-2.7-7.5-10-9-10-9s-1.7 3.5.7 11.7c1.8 6.1 7.6 9.8 10.3 11.2q-2.3 8.1-5.1 15a43 43 0 0 0-.7-10.6c-1.6-8-8.8-10.7-8.8-10.7s-2.4 3.3-1.2 12c.9 6.8 6.4 11.6 9 13.4a120 120 0 0 1-8.2 15.2c.6-3 1.2-7.6.8-12.5-.7-8.6-7.9-12.3-7.9-12.3s-2.9 3.1-2.7 12.4c.1 7.5 5.7 13.2 8 15.3q-6.4 9-13 16c1.1-3 2.7-8.2 3-14 .3-8.8-6.6-13.5-6.6-13.5s-3.3 2.8-4.3 12.3c-.8 7.9 4.5 14.7 6.4 16.8q-7.1 7-13.6 12.6c1.5-2.9 3.8-7.9 5-13.6 1.7-9.3-4.8-15.2-4.8-15.2s-4 2.4-6.5 12.2c-2 8.1 2.5 16 4.1 18.6-9.2 8-19.5 16.7-23.1 25.8-2.2 5.5.8 5.7 3.1 5.7s4.6-3.7 4.6-3.7c3-9.2 8.8-16.2 18.5-24.8l.7-.6a22 22 0 0 0 14.4 2.6c8.4-1.7 14.2-11.1 14.2-11.1s-11.3-2-18.9.2l-1.2.4 7.2-7.4c2.6 1 8.4 2.5 14 .5 7.6-2.8 11.7-12.4 11.7-12.4s-10.8-.2-17.6 2.9l-1 .5q3.3-4.5 6.6-9.5c1.7.4 8.6 1.9 14.7-1 7-3.5 10-12.7 10-12.7s-10.6 1.1-16.8 4.7a22 22 0 0 0-5 4" fill="#e9c31e"/><path id="path20579" d="M227.3 351.2c-1.3 0-3.6 0-4.8-1.8q-1.4-1.9.3-6c3.5-8.9 13-17 22-25l.6-.5a25.5 25.5 0 0 1 3.5-31.8q1-.5 1.8.2c.3.2 7 6.6 5.2 16.5q-.8 4.3-2.2 7.6l7.3-6.9a24 24 0 0 1-1-30.2q.9-.6 1.8 0c.4.2 7.6 5.2 7.2 14.8q-.2 4.3-1 8 4-4.9 7.6-10a23.5 23.5 0 0 1-4.4-28.8q.8-.8 1.8-.4c.3.2 8 4.2 8.7 13.6q.3 3 0 5.6 2.1-3.7 4-7.7a22.4 22.4 0 0 1-7.2-26.8q.7-1 1.8-.5c.3 0 8 3 9.8 11.8l.5 3.2 2-6.5c-3.3-2-8.2-5.7-10-11.6-2.5-8.5-.7-12.4-.5-12.8q.6-1 1.7-.7a16 16 0 0 1 11 9.8l1 2.8 1.1-6.1a21 21 0 0 1-11-11c-2.9-8.2-1.3-12.1-1-12.5q.4-1 1.5-.9a16 16 0 0 1 12.4 11.2l.5-6.2c-3.7-1-9.3-3.3-12.3-8.4-4.4-7.5-3.5-11.6-3.4-12q.3-1 1.3-1.1h.4q.9-.1 4 .5a20 20 0 0 1-3.3-2.9c-6-6.8-6.5-10.8-6.6-11.2q0-1.3 1.3-1.6h1.5c2.5 0 7.5.6 12 5.1l2.8 3.1-1.3-5.6c-3.4-.3-8.8-1.4-13.2-5.2-6.7-5.9-8.1-11.7-8.2-12a1.5 1.5 0 0 1 1.5-1.8l1.5.1-.6-.3a25 25 0 0 1-9.6-10.5 1.5 1.5 0 0 1 1.2-2l1.8-.1a24 24 0 0 1 14.5 5l-2.9-5a17 17 0 0 1-12.3-1.5 29 29 0 0 1-10.9-10.7 1.5 1.5 0 0 1 .9-2l-.4-.2a28 28 0 0 1-11.6-9.5 1.5 1.5 0 0 1 .8-2.2l-.5-.2a28 28 0 0 1-12.6-8 1.5 1.5 0 0 1 .3-2.2l-1.2-.1c-8-1-13.5-5.8-13.7-6a1.5 1.5 0 0 1 .4-2.5 27 27 0 0 1 12.3-1.5l3.5.4-6-3.8a17 17 0 0 1-11 4h-.3c-8 0-14-4.1-14.3-4.3a1.5 1.5 0 0 1 .2-2.5 29 29 0 0 1 14.6-3l-3.1-1.3q-2 .4-4.8.5t-4.8-.8c-5.2-1.7-10-8.3-10.3-8.6a1.5 1.5 0 0 1 .9-2.3c.2 0 4-.9 8.3-.9q4.2 0 7 1.2c3.7 1.6 5.5 4.6 6.4 6.6l2.9 1.3c-2.2-4-3.2-7.8-3.3-8a1.5 1.5 0 0 1 1.4-1.9h.2c.7 0 7.3.2 10.6 5.7a19 19 0 0 1 2.3 10.3l4.7 2.9a38 38 0 0 1-2.4-8.7 1.5 1.5 0 0 1 1.6-1.7c.3 0 7.2.7 10 7 1.9 4.2 1.5 8.6 1.1 10.8l5.7 4.6c-1.4-4.9-1.2-9.5-1.2-9.8a1.5 1.5 0 0 1 1.8-1.4c.3.1 7 1.9 8.8 8.4 1.2 4.5.1 8.7-.6 10.8l3.8 3.8c-.6-4.6 0-8.8 0-9a1.5 1.5 0 0 1 2-1.2c.3.1 6.8 2.7 7.8 9.4.6 4.1-.6 7.8-1.6 10l3.5 4.4c-.2-4.8.8-9 .9-9.2a1.5 1.5 0 0 1 2-1c.4.2 6.7 3.3 7 10.2.3 4.5-1.5 8.4-2.6 10.4l3 5.1c.7-5.3 3.1-11.2 3.2-11.5a1.5 1.5 0 0 1 2.6-.4c.2.3 5.1 6.2 4.7 12.9a19 19 0 0 1-4.6 10.4l2.4 5.7a44 44 0 0 1 5.6-11.6q.4-.7 1.3-.7t1.2.7c.2.3 4.3 7 2.6 13.5a19 19 0 0 1-6.9 9.7q.7 2.4 1.2 4.9a47 47 0 0 1 7-10.7 1.5 1.5 0 0 1 2.5.3c.1.4 3.5 7.8 1 14.2-2 5-6.4 8-8.3 9.2l.4 4.7a47 47 0 0 1 9.9-10.1 1.5 1.5 0 0 1 2.3.8c.1.4 2 8.6-2 14.6-3 4.5-7.8 6.6-10.1 7.4q-.1 3.8-.6 7.7c4.2-4.5 11.5-8 11.9-8.2a1.5 1.5 0 0 1 2.1 1.3c0 .3.3 8.9-4.8 14-3.6 3.7-8.5 5-11 5.4Q298 257 288 276.8a54 54 0 0 1 16.9-4.7q.8 0 1.3.6t.3 1.4c-.1.4-3.2 9.8-10.8 13.5q-4 2-9 2a28 28 0 0 1-5.6-.6l-3.1 4.5a58 58 0 0 1 14.4-1.6 1.5 1.5 0 0 1 1.4 2c-.2.5-4.5 10.3-12.6 13.3q-3 1-6.5 1-4.6-.1-7.6-1.1l-2.9 3q2.5-.3 5.5-.3c5.4 0 10 .8 10.2.8a1.5 1.5 0 0 1 1 2.3c-.2.4-6.3 10-15.2 11.8l-3.8.4c-4.4 0-8.3-1.5-10.7-2.7a55 55 0 0 0-18.1 24.4c-.3.5-2.8 4.4-5.9 4.4m21.3-33.7q.4 1-.3 1.8l-1.5 1.3c-8.8 7.7-18 15.7-21.2 24-1 2.4-.6 3-.6 3.1.3.4 1.7.4 2.3.4 1 0 2.5-1.7 3.2-2.7a59 59 0 0 1 19-25.3l.6-.6q.7-.6 1.7-.2c1.9 1 5.8 2.8 10.2 2.8q1.7 0 3.2-.4c5.4-1 9.8-5.7 11.9-8.5q-2.9-.4-7.3-.4a32 32 0 0 0-9.7 1.3 1.5 1.5 0 0 1-1.5-2.4l7-7.4q.7-.6 1.7-.4c1.7.6 4.4 1.4 7.5 1.4q3 0 5.5-1c4.8-1.7 8.1-6.5 9.7-9.4a43 43 0 0 0-15.4 3.2 1.5 1.5 0 0 1-2-2.2q3.6-4.6 6.6-9.4.6-1 1.6-.7 1.5.5 5.9.7 4.5 0 7.8-1.6c4.3-2.1 7-6.7 8.3-9.4a44 44 0 0 0-13.6 4.1q-2.6 1.6-4.7 3.7a1.5 1.5 0 0 1-2.4-1.8l.4-.5-1.8 3a1.5 1.5 0 0 1-2.8-1.2c.6-2.9 1.2-7.3.8-12-.4-5.8-4-9-6-10.4-.7 1.4-1.7 4.7-1.6 10.3.1 6.8 5.2 12.2 7.4 14.2q.9.9.3 1.9-5.6 8.4-13 16.2-.6.5-1.2.4 0 .7-.5 1.2a259 259 0 0 1-13.6 12.8q-.9.6-1.9.1m1-28a25 25 0 0 0-5 10.5 23 23 0 0 0 3.4 16.4l.1-.9c1.7-3 3.8-7.8 4.8-13.2a16 16 0 0 0-3.3-12.8m11.6-12.9c-1 1.4-2.4 4.6-3 10.4-.7 6.2 3 11.8 5 14.5 1-2.7 2.6-7.8 2.8-13.5.3-6-3-9.8-4.8-11.4m19.3-32.1a22 22 0 0 0-.5 9.9c.9 6.2 6.2 10.7 8.4 12.3q.4.4.6 1l1-2.7a1.5 1.5 0 0 1-2.2-1.3q.3-5.4-.7-10.2c-1-5.2-4.7-7.9-6.6-9m4-16.7c-.3 1.5-.4 4.6 1 9.3 1.7 5.7 7.3 9.2 9.6 10.4q.4.3.6.7l.7-2.5-1 .2q-1.1-.1-1.3-1.3a39 39 0 0 0-2-9.2 13 13 0 0 0-7.6-7.6m2.8-17.9a20 20 0 0 0 1.5 9c2 5.7 8 8.8 10.4 9.8q.5.2.7.7.5-.5 1.1-.6a18 18 0 0 0 10.4-4.6 16 16 0 0 0 3.8-9.3 36 36 0 0 0-9.3 7q-1.6 1.9-2.6 4.2a1.5 1.5 0 0 1-2.6.3q-.4 1-1.4 1-1.3 0-1.5-1.3-.8-5-2.6-9.2c-2-4.6-5.8-6.3-7.9-7m-.8-16.8c0 1.5.6 4.4 3 8.5 3 5 9.2 6.8 11.7 7.4q.6.2.9.7.3-.6 1-.7c1-.3 6.5-2 9.4-6.6 2.1-3 2.2-7.1 2-9.7a34 34 0 0 0-7.7 8.5q-1.3 2.4-1.8 5a1.5 1.5 0 0 1-2.8.5 1.5 1.5 0 0 1-2.7-.3q-1.6-4.5-4-8c-2.8-4-7-5-9-5.3m8.7.5q1.5 1.2 2.7 3l1.3 2-.4-4q-1.6-.3-3.6-1m-12.3-15.8a28 28 0 0 0 5.3 7.9 21 21 0 0 0 12.2 6.2q.6 0 .9.4a1.5 1.5 0 0 1 1.8-1c1.7-1 5.3-3.5 6.8-7.5 1.3-3.3.6-7 0-9.4a34 34 0 0 0-5.5 9.4q-.7 2.6-.7 5.1a1.5 1.5 0 0 1-2.7 1 1.5 1.5 0 0 1-2.6.2q-3-4.5-6.3-8a14 14 0 0 0-9.2-4.3m-4.8-16c1 2 2.8 5.1 6.3 8.2 4.3 3.7 9.6 4.4 12.5 4.5q.5 0 .9.4 0-.5.5-.8-1 0-1.3-1l-.2-.4q-.1.3-.5.5-1 .4-1.9-.3a48 48 0 0 0-6.7-6.6 23 23 0 0 0-9.6-4.5m25.8-5a33 33 0 0 0-4 9.6q-.6 3 0 6 0 .6-.3 1.1c1.6-1.3 4.5-4 5.4-7.8a14 14 0 0 0-1.1-8.8m-18.5 4.5a26 26 0 0 1 6.4 4.6l-1.9-4.6zM271 148.7c1.2 1.8 3.5 4.6 7.3 7 3.3 2.2 7 2.7 9.4 2.7l3-.2.9.1.4-.7c.6-.7 4-4.4 4.4-9.4.2-3.2-1.3-6.4-2.5-8.4-.9 2.6-2 6.6-2 9.9q0 2.2.6 4.3a1.5 1.5 0 0 1-1.8 1.9 1.5 1.5 0 0 1-2.5 1.4 48 48 0 0 0-7.8-5.8 21 21 0 0 0-9.4-2.8m-8.1-14a26 26 0 0 0 8 6.9 14 14 0 0 0 9.3 1.4h-.1c-2.2-1.7-5.6-4-9.3-5.9q-4.9-2.1-8-2.5m19.5 7.7h.2l.2-.8c1-1.4 3-5 2.8-9.4a9 9 0 0 0-3.6-6.5c-.3 2-.6 5.2-.2 8.3q.2 1.8.7 3.5a1.5 1.5 0 0 1-1.3 2l1 1.4q.4.8 0 1.5zm-15.2-9.9a34 34 0 0 1 8 3.5l-3.6-4.5q-1.6.7-4.4 1m-15.4-10c1.7 1.8 4.6 4.4 8.4 6a13 13 0 0 0 9.2.6 54 54 0 0 0-9.7-4.9q-5-1.6-7.9-1.7m18.4 2.6 1.8 2.1c.7-1.4 2.3-5.1 1.7-9.2-.4-3-2.5-5-4-6-.1 2-.1 5.1.5 8.2q.3 1.5 1 3a1.5 1.5 0 0 1-1 2m-15-5.2a33 33 0 0 1 8.8 2.8l-4.2-4.2a17 17 0 0 1-4.5 1.4m-15.6-8.4c1.9 1.7 5 3.9 9 5a14 14 0 0 0 10.7-1.2l.5-.2.2-.6c.5-1.2 2-5.5.8-9.9-.8-3-3-4.6-4.7-5.5.1 2 .5 5.1 1.5 8q.7 2.3 2.2 4.4a1.5 1.5 0 0 1-.7 2.3 1.5 1.5 0 0 1-2 2c-2.3-1-5.8-2.5-9.5-3.4a30 30 0 0 0-8-.9m1.6-3a33 33 0 0 1 9.4 1.6l-4.7-3.9q-1.7 1.3-4.7 2.3m-16.3-6a25 25 0 0 0 11.5 3.7c3.1 0 5.6-1 7.2-2l-.3-.1a53 53 0 0 0-12.7-2q-3.5 0-5.7.5M244 101l.6.4q.7.7.6 1.6l.3-.1v-.7c.3-1.2 1.1-5.6-.8-9.9a9 9 0 0 0-5.5-4.6c.5 2 1.3 5 2.8 7.7q1 1.8 2.3 3.4a1.5 1.5 0 0 1-.3 2.2m-34.5-6.6c2.2 1 5.8 2.3 10 2.4h.2c5 0 8.2-2.5 9.6-4q.6-.6 1.3-.5c.1-1.6.3-5.7-2-9.4a9 9 0 0 0-6-4c.8 2 2 4.8 3.7 7.4l2 2.4a1.5 1.5 0 0 1 0 2.2 1.5 1.5 0 0 1-1 2.7 54 54 0 0 0-9.8-.6q-5.2.2-8 1.4m-8.6-14.5a20 20 0 0 0 7.2 5.6q1.7.6 3.9.6 2.9 0 4.7-.6c-.6-1.5-2-3.9-4.9-5a15 15 0 0 0-5.7-1q-3 0-5.2.4" fill="#9a6104"/></g></g><g id="g20581"><g id="g20583"><g id="g20585"><g id="g20587"><path id="path20589" d="M206 94.2s4.4-2.5 11.4-2.7 13.9 1.4 13.9 1.4-4.1 5.5-11.8 5.4-13.5-4.1-13.5-4.1" fill="#e9c31e"/><path id="path20591" d="M219.7 99h-.3c-7.8-.1-13.6-4-13.8-4.2a.7.7 0 0 1 0-1.3c.2 0 4.6-2.5 11.8-2.8 7-.2 13.8 1.4 14 1.5a.7.7 0 0 1 .5 1.1c-.2.3-4.4 5.7-12.2 5.7m-12.1-4.8c2 1.2 6.5 3.2 11.9 3.3h.2c5.2 0 8.6-2.7 10.1-4.2a54 54 0 0 0-12.4-1 29 29 0 0 0-9.8 2" fill="#9a6104"/></g><g id="g20593"><path id="path20595" d="M211.3 94s3.3-1.1 6.1-1c3.3.1 7 1 7 1s-7.2 2.3-13.2 0" fill="#ffe96b"/></g></g><g id="g20597"><g id="g20599"><path id="path20601" d="M232 93.2s-3.9-1.6-7-6.1c-3-4.5-4.4-9.9-4.4-9.9s6.4-.2 9.4 5c3 5.1 2 11 2 11" fill="#e9c31e"/><path id="path20603" d="M232 94h-.3c-.2-.1-4-1.8-7.3-6.5a34 34 0 0 1-4.5-10.1.7.7 0 0 1 .7-1c.8 0 7 .2 10 5.4a19 19 0 0 1 2.1 11.6 1 1 0 0 1-.7.6m-10.4-16a34 34 0 0 0 4 8.7c2.1 3 4.5 4.6 5.8 5.4.1-2 0-6-2-9.5-2.1-3.6-6-4.4-7.8-4.6" fill="#9a6104"/></g><g id="g20605"><path id="path20607" d="M230 87.8s-2.3-1.6-3.4-3.6l-2.5-4.5s5.5 3 5.9 8" fill="#ffe96b"/></g></g></g><g id="g20609"><g id="g20611"><g id="g20613"><path id="path20615" d="M221.5 102s4.6-2 11.6-1.4 13.6 3 13.6 3-4.7 5-12.3 4-13-5.6-13-5.6" fill="#e9c31e"/><path id="path20617" d="m236.4 108.5-2.1-.1c-7.8-1-13.1-5.6-13.3-5.8a.7.7 0 0 1 .2-1.3 26 26 0 0 1 12-1.4c7 .5 13.5 2.9 13.8 3a1 1 0 0 1 .3 1.2c-.2.2-4.2 4.4-11 4.4m-13.4-6.2a26 26 0 0 0 13.4 4.7c4.3 0 7.4-2 8.9-3.1a56 56 0 0 0-14.7-2.6q-5.2.1-7.6 1" fill="#9a6104"/></g><g id="g20619"><path id="path20621" d="M226.7 102.5s3.5-.8 6.2-.3c3.3.5 7 1.6 7 1.6s-7.6 1.6-13.2-1.3" fill="#ffe96b"/></g></g><g id="g20623"><g id="g20625"><path id="path20627" d="M246.9 103s-3.7-2-6.2-7c-2.6-4.8-3.3-10.3-3.3-10.3s6.3.6 8.7 6c2.5 5.5.8 11.3.8 11.3" fill="#e9c31e"/><path id="path20629" d="m246.9 103.7-.4-.1c-.2 0-3.9-2.2-6.5-7.2s-3.4-10.3-3.4-10.6a.7.7 0 0 1 .8-.8c.3 0 6.8.6 9.4 6.4 2.5 5.7.9 11.5.8 11.8zm-8.6-17c.3 1.7 1.2 5.6 3 9a18 18 0 0 0 5 6 17 17 0 0 0-.9-9.7c-1.6-3.7-5.4-5-7.1-5.4" fill="#9a6104"/></g><g id="g20631"><path id="path20633" d="M245.5 97.3s-2.1-1.9-3-3.9l-2-4.8s5.1 3.6 5 8.7" fill="#ffe96b"/></g></g></g><g id="g20635"><g id="g20637"><g id="g20639"><path id="path20641" d="M236.3 110.4s4.8-1.2 11.7.5 13 5.1 13 5.1-5.5 4.2-12.9 2a27 27 0 0 1-11.8-7.6" fill="#e9c31e"/><path id="path20643" d="M252.5 119.4q-2.4 0-4.6-.7c-7.5-2.2-12-7.6-12.2-7.8a.7.7 0 0 1 .4-1.2s1.8-.4 4.5-.4q3.7 0 7.6.9c6.9 1.7 12.9 5 13.1 5.2a.7.7 0 0 1 .1 1.2c-.1.1-3.7 2.8-9 2.8m-14.7-8.5c1.6 1.6 5.4 4.8 10.5 6.4a14 14 0 0 0 11.2-1.2c-2.1-1-6.7-3.3-11.7-4.5a30 30 0 0 0-10-.7" fill="#9a6104"/></g><g id="g20645"><path id="path20647" d="M241.4 111.7s3.5-.2 6.2.7c3.2 1 6.5 2.8 6.5 2.8s-7.7.3-12.7-3.5" fill="#ffe96b"/></g></g><g id="g20649"><g id="g20651"><path id="path20653" d="M261.2 115.4s-3.3-2.6-5-7.8-1.6-10.7-1.6-10.7 6.1 1.5 7.7 7.3a18 18 0 0 1-1.1 11.2" fill="#e9c31e"/><path id="path20655" d="m261.2 116.2-.5-.2c-.1-.1-3.4-2.8-5.2-8.1a36 36 0 0 1-1.7-11 1 1 0 0 1 1-.7c.2 0 6.6 1.7 8.2 7.8s-1 11.5-1.1 11.7zm-5.9-18.3c0 1.9.3 5.8 1.6 9.5a18 18 0 0 0 4 6.7 17 17 0 0 0 .6-9.7c-1-4-4.5-5.8-6.2-6.5" fill="#9a6104"/></g><g id="g20657"><path id="path20659" d="M260.8 109.6s-1.9-2.2-2.3-4.3l-1.2-5.1s4.4 4.4 3.5 9.4" fill="#ffe96b"/></g></g></g><g id="g20661"><g id="g20663"><g id="g20665"><path id="path20667" d="M248.7 121s5-.6 11.6 1.8c6.6 2.5 12.2 6.6 12.2 6.6s-5.8 3.5-13 .5c-7-3-10.8-9-10.8-9" fill="#e9c31e"/><path id="path20669" d="M265.5 131.9q-3.2 0-6.2-1.3c-7.2-3.1-11-9-11.3-9.2a.8.8 0 0 1 .6-1.2h1.6c1.9 0 5.7.2 10.3 2a58 58 0 0 1 12.5 6.6 1 1 0 0 1 0 1.2c-.2.1-3.2 1.9-7.5 1.9m-15.4-10.2c1.5 1.8 4.8 5.4 9.8 7.5a14 14 0 0 0 11.2 0c-2-1.2-6.3-3.9-11.1-5.7a29 29 0 0 0-9.8-1.8" fill="#9a6104"/></g><g id="g20671"><path id="path20673" d="M253.6 122.9s3.5.2 6 1.3c3.1 1.4 6.3 3.6 6.3 3.6s-7.7-.6-12.3-5" fill="#ffe96b"/></g></g><g id="g20675"><g id="g20677"><path id="path20679" d="M272.9 128.8s-3-3-4.2-8.3c-1.1-5.4-.3-10.9-.3-10.9s6 2.3 6.8 8.2c.8 6-2.3 11-2.3 11" fill="#e9c31e"/><path id="path20681" d="m272.9 129.6-.6-.3c-.1 0-3.1-3.1-4.3-8.7a36 36 0 0 1-.4-11 .7.7 0 0 1 1-.7c.3.1 6.4 2.5 7.3 8.8 1 6.1-2.3 11.3-2.4 11.5zm-3.9-18.8c-.1 1.8-.3 5.7.5 9.5a18 18 0 0 0 3.2 7.2 17 17 0 0 0 1.7-9.6c-.5-4-3.8-6.3-5.4-7.1" fill="#9a6104"/></g><g id="g20683"><path id="path20685" d="M273 123s-1.5-2.4-1.7-4.6l-.6-5.2s3.9 4.9 2.4 9.8" fill="#ffe96b"/></g></g></g><g id="g20687"><g id="g20689"><g id="g20691"><path id="path20693" d="M259.9 132.8s5-.1 11.6 3c6.4 3 11.8 7.8 11.8 7.8s-6.3 3-13.2-.7-10.2-10-10.2-10" fill="#e9c31e"/><path id="path20695" d="M277.4 145.5q-4 0-7.7-2a28 28 0 0 1-10.5-10.3 1 1 0 0 1 .7-1.1c1 0 5.8.1 11.9 3a59 59 0 0 1 12 8 1 1 0 0 1-.2 1.2s-2.6 1.2-6.2 1.2m-16.1-11.8c1.3 2 4.3 5.9 9.2 8.5a14 14 0 0 0 11.3 1.2c-1.8-1.5-6-4.7-10.7-7-4.3-2-8-2.6-9.8-2.7" fill="#9a6104"/></g><g id="g20697"><path id="path20699" d="M264.7 135.2s3.5.5 6 2c3 1.7 6 4.1 6 4.1s-7.8-1.2-12-6.1" fill="#ffe96b"/></g></g><g id="g20701"><g id="g20703"><path id="path20705" d="M283.7 143s-2.8-3.2-3.4-8.8c-.7-5.5.6-11 .6-11s5.9 2.8 6.2 8.9c.3 6-3.4 11-3.4 11" fill="#e9c31e"/><path id="path20707" d="m283.7 143.8-.6-.3c-.1-.1-2.9-3.5-3.6-9.2-.6-5.6.6-11 .7-11.3a.7.7 0 0 1 1-.5c.3.1 6.3 3.1 6.6 9.6a19 19 0 0 1-3.5 11.4zm-2.2-19.4c-.4 1.8-1 5.8-.5 9.7.5 3.7 1.8 6.3 2.6 7.6 1-1.6 3-5.3 2.7-9.6-.2-4.1-3.3-6.7-4.8-7.7" fill="#9a6104"/></g><g id="g20709"><path id="path20711" d="M284.4 137.2s-1.3-2.6-1.4-4.8V127s3.4 5.2 1.4 10" fill="#ffe96b"/></g></g></g><g id="g20713"><g id="g20715"><g id="g20717"><path id="path20719" d="M268.5 147.3s6.1-1 12.7 3a51 51 0 0 1 11.2 9s-8 2.2-15-2.3c-6.8-4.5-8.9-9.7-8.9-9.7" fill="#e9c31e"/><path id="path20721" d="M287.7 160.6a19 19 0 0 1-10.6-3c-7-4.5-9.2-9.8-9.3-10a1 1 0 0 1 .6-1l1.7-.2c2.3 0 6.8.4 11.5 3.2 6.6 3.8 11.2 9 11.4 9.2a.7.7 0 0 1-.4 1.3s-2 .5-5 .5m-18-12.7a25 25 0 0 0 8.2 8.5 18 18 0 0 0 9.8 2.7l3.3-.2a51 51 0 0 0-10.2-8c-4.7-2.8-9.2-3-11.1-3" fill="#9a6104"/></g><g id="g20723"><path id="path20725" d="M273.6 149.4s3.7 1 6.2 2.6c3 2 5.8 4.8 5.8 4.8s-8-2-12-7.4" fill="#ffe96b"/></g></g><g id="g20727"><g id="g20729"><path id="path20731" d="M292.9 158.8s-2.5-3.5-2.5-9.1 3.1-13 3.1-13 4.8 5.6 4.4 11.7-5 10.4-5 10.4" fill="#e9c31e"/><path id="path20733" d="m292.9 159.6-.6-.3c-.1-.2-2.7-3.9-2.7-9.6s3-13 3.2-13.4a.7.7 0 0 1 1.3-.2c.2.3 5 6 4.5 12.3s-5 10.8-5.2 11zm.8-21.5c-.9 2.4-2.6 7.5-2.6 11.6 0 3.7 1.2 6.6 2 7.9 1.2-1.5 3.7-5 4-9.3.3-4.2-2-8.3-3.4-10.2" fill="#9a6104"/></g><g id="g20735"><path id="path20737" d="M293.2 150.7s-.8-2.8-.3-5l1.2-5.2s2.4 6-.9 10.2" fill="#ffe96b"/></g></g></g><g id="g20739"><g id="g20741"><g id="g20743"><path id="path20745" d="M275.8 160s6.6.2 12.8 5.1 10.2 11 10.2 11-9 .7-15.3-5a23 23 0 0 1-7.7-11" fill="#e9c31e"/><path id="path20747" d="M297.7 176.8a23 23 0 0 1-14.7-5 24 24 0 0 1-8-11.6 1 1 0 0 1 .8-1c.3 0 7 .3 13.3 5.3 6.2 5 10.1 10.9 10.3 11.1a.8.8 0 0 1-.6 1.2zm-20.8-16a22 22 0 0 0 20.4 14.5 52 52 0 0 0-9.2-9.6 24 24 0 0 0-11.2-4.8" fill="#9a6104"/></g><g id="g20749"><path id="path20751" d="M280.8 163s3.7 1.6 6 3.7c2.7 2.5 5.3 5.7 5.3 5.7s-8.2-3.5-11.3-9.4" fill="#ffe96b"/></g></g><g id="g20753"><g id="g20755"><path id="path20757" d="M299.3 175.6s-2-4-1-9.5 5.7-12.3 5.7-12.3 4 6.4 2.5 12.3c-1.6 6-7.2 9.5-7.2 9.5" fill="#e9c31e"/><path id="path20759" d="m299.3 176.3-.6-.4a16 16 0 0 1-1-9.9c1-5.6 5.5-12.3 5.7-12.6q.3-.3.7-.3l.6.3c.1.3 4.1 6.8 2.5 13a19 19 0 0 1-7.5 9.8zm4.7-21c-1.3 2-4.2 7-5 11-.6 3.8.2 6.8.7 8.1a17 17 0 0 0 6-8.5c1.2-4.1-.7-8.6-1.7-10.6" fill="#9a6104"/></g><g id="g20761"><path id="path20763" d="M301.2 166.8s-.2-2.9.8-5l2.3-4.7s1.2 6.3-3 9.7" fill="#ffe96b"/></g></g></g><g id="g20765"><g id="g20767"><g id="g20769"><path id="path20771" d="M281 176.4s6.4-1 12.1 4.7c5.8 5.8 9.1 12.5 9.1 12.5s-9.2-.3-15-7c-6-6.5-6.3-10.2-6.3-10.2" fill="#e9c31e"/><path id="path20773" d="M302.2 194.3c-.4 0-9.6-.4-15.6-7.1s-6.4-10.6-6.4-10.8q0-.6.6-.7l1.4-.1c2.4 0 7.1.6 11.5 5a54 54 0 0 1 9.2 12.6 1 1 0 0 1-.7 1.1m-20.3-17.2c.4 1.3 1.6 4.5 5.8 9.1a22 22 0 0 0 13.2 6.5 54 54 0 0 0-8.3-11A15 15 0 0 0 282 177" fill="#9a6104"/></g><g id="g20775"><path id="path20777" d="M286 179s3 .5 5.1 3c2.5 2.9 4.7 6.5 4.7 6.5s-7.2-3-9.7-9.4" fill="#ffe96b"/></g></g><g id="g20779"><g id="g20781"><path id="path20783" d="M302.9 193.2s-1.6-4.3 0-9.8c1.8-5.6 7.4-12 7.4-12s3.4 7 1 13c-2.3 5.8-8.4 8.8-8.4 8.8" fill="#e9c31e"/><path id="path20785" d="M302.9 194a1 1 0 0 1-.8-.6c0-.1-1.6-4.5.2-10.3 1.7-5.6 7.2-12 7.5-12.2q.2-.3.6-.3t.6.5c.2.3 3.4 7.4 1 13.5a19 19 0 0 1-9.1 9.3m7.2-21.2c-1.6 2-5.1 6.7-6.4 10.8-1.2 3.8-.7 7-.4 8.5 1.7-1 5.6-3.7 7.3-8s.3-9.1-.5-11.3" fill="#9a6104"/></g><g id="g20787"><path id="path20789" d="M306 185.2s-.1-3 1-5l2.5-5s1 6.7-3.5 10" fill="#ffe96b"/></g></g></g><g id="g20791"><g id="g20793"><g id="g20795"><path id="path20797" d="M285 191.6s7.4-.4 11.7 6c4.3 6.2 5.7 13.2 5.7 13.2s-10-1.3-14.1-8.4c-4.2-7.1-3.3-10.8-3.3-10.8" fill="#e9c31e"/><path id="path20799" d="M302.4 211.5h-.1c-.5 0-10.3-1.4-14.7-8.7s-3.3-11.3-3.3-11.4q.1-.5.7-.6h.3c1.3 0 8 .3 12 6.3a41 41 0 0 1 5.8 13.5 1 1 0 0 1-.7 1m-16.7-19.2a18.4 18.4 0 0 0 15.7 17.5c-.6-2.1-2.2-7.2-5.3-11.9a13 13 0 0 0-10.4-5.6" fill="#9a6104"/></g><g id="g20801"><path id="path20803" d="M290 194.6s3 .8 4.5 3.4c1.8 3.1 3 7 3 7s-6.9-3.7-7.5-10.4" fill="#ffe96b"/></g></g><g id="g20805"><g id="g20807"><path id="path20809" d="M303.2 210.5s-.6-4.8 2.3-10c3-5.3 10-10.7 10-10.7s2 8-1.7 13.5c-3.6 5.5-10.6 7.1-10.6 7.1" fill="#e9c31e"/><path id="path20811" d="M303.2 211.2a1 1 0 0 1-.7-.6c0-.2-.7-5 2.4-10.5s10-10.6 10.2-10.9h.7q.5 0 .5.5c0 .3 1.9 8.3-1.9 14a20 20 0 0 1-11.2 7.5m11.9-20c-2 1.7-6.8 5.7-9 9.6-2 3.7-2.2 7.1-2.2 8.7a19 19 0 0 0 9.3-6.6c2.6-4 2.2-9.3 1.9-11.7" fill="#9a6104"/></g><g id="g20813"><path id="path20815" d="M307.4 202.2s.8-3 2.6-4.8l4.1-4s-1.1 7-6.7 8.8" fill="#ffe96b"/></g></g></g><g id="g20817"><g id="g20819"><g id="g20821"><path id="path20823" d="M286.2 208.1s7.4 1 10.4 8.2c3 7 3 14.2 3 14.2s-9.5-3.2-12.3-11c-2.8-7.9-1.1-11.4-1.1-11.4" fill="#e9c31e"/><path id="path20825" d="M299.7 231.3h-.3c-.4-.2-9.9-3.5-12.8-11.6-2.8-8-1.1-11.7-1-11.9q.1-.5.7-.4a15 15 0 0 1 11 8.6 41 41 0 0 1 3.1 14.5 1 1 0 0 1-.7.8m-13-22.3a18.6 18.6 0 0 0 12.2 20.4c-.2-2.3-.7-7.6-3-12.8a14 14 0 0 0-9.2-7.6" fill="#9a6104"/></g><g id="g20827"><path id="path20829" d="M290 211.6s3 1.4 3.9 4.3c1 3.4 2.3 7 2.3 7s-6.9-4.6-6.1-11.3" fill="#ffe96b"/></g></g><g id="g20831"><g id="g20833"><path id="path20835" d="M300.6 230.4s.3-4.8 4.2-9.5 12-8.6 12-8.6.3 8.2-4.3 13c-4.7 4.7-11.9 5-11.9 5" fill="#e9c31e"/><path id="path20837" d="M300.6 231.1a1 1 0 0 1-.7-.8c0-.2.3-5 4.3-9.9a44 44 0 0 1 12.3-8.8 1 1 0 0 1 1 .7c0 .3.3 8.6-4.5 13.5s-12 5.3-12.3 5.3m15.5-17.5a40 40 0 0 0-10.7 7.8 18 18 0 0 0-4 8.1 18 18 0 0 0 10.5-4.7c3.4-3.5 4-8.9 4.2-11.2" fill="#9a6104"/></g><g id="g20839"><path id="path20841" d="M306.5 223.6s1.1-3 3-4.4l4.6-3.6s-1.8 6.8-7.6 8" fill="#ffe96b"/></g></g></g><g id="g20843"><g id="g20845"><g id="g20847"><path id="path20849" d="M283.5 226s7.2 1.4 10 8.9c2.6 7.4 2.3 14.6 2.3 14.6s-9.3-3.8-11.7-12-.6-11.6-.6-11.6" fill="#e9c31e"/><path id="path20851" d="M295.8 250.3h-.3c-.4-.2-9.6-4.1-12.1-12.5s-.7-12-.6-12.2q.3-.5.8-.4a15 15 0 0 1 10.5 9.4 43 43 0 0 1 2.5 15 1 1 0 0 1-.8.7M284 226.8a19.6 19.6 0 0 0 11 21.6c0-2.4-.3-7.8-2.3-13.3-2-5.7-7-7.7-8.7-8.3" fill="#9a6104"/></g><g id="g20853"><path id="path20855" d="M287.2 229.8s2.7 1.5 3.5 4.5l2 7.3s-6.6-5-5.5-11.8" fill="#ffe96b"/></g></g><g id="g20857"><g id="g20859"><path id="path20861" d="M297.3 249.5s.6-5.1 5.2-9.8a47 47 0 0 1 13.6-8.2s-.3 8.8-5.7 13.5-13.1 4.5-13.1 4.5" fill="#e9c31e"/><path id="path20863" d="M297.5 250.2h-.3a1 1 0 0 1-.7-.8c0-.2.8-5.4 5.5-10.2a47 47 0 0 1 13.8-8.4.7.7 0 0 1 1 .7c0 .4-.4 9.2-6 14-5 4.5-12 4.7-13.3 4.7m17.8-17.5c-2.6 1-8.8 4-12.2 7.5a19 19 0 0 0-5 8.5c2.2 0 7.7-.7 11.8-4.2 4-3.5 5-9.3 5.4-11.8" fill="#9a6104"/></g><g id="g20865"><path id="path20867" d="M304 242.8s1.6-3.1 3.8-4.6l5.2-3.4s-2.6 7.1-9 8" fill="#ffe96b"/></g></g></g><g id="g20869"><g id="g20871"><g id="g20873"><path id="path20875" d="M279.8 242.5s7.2 2.7 8.8 10.7.1 15.5.1 15.5-9-5.3-10.1-14.1c-1.2-8.8 1.2-12.1 1.2-12.1" fill="#e9c31e"/><path id="path20877" d="m288.7 269.5-.3-.1c-.4-.2-9.3-5.7-10.6-14.7s1.2-12.5 1.3-12.7q.4-.3 1-.2c.2 0 7.6 3 9.2 11.3 1.7 8.1.2 15.5.2 15.8a1 1 0 0 1-.8.6m-8.6-26a20.4 20.4 0 0 0 8 24c.4-2.4 1-8.1-.2-14.1a15 15 0 0 0-7.8-10" fill="#9a6104"/></g><g id="g20879"><path id="path20881" d="M283 247s2.6 2 3 5.2l.8 8s-6-6.4-3.9-13.2" fill="#ffe96b"/></g></g><g id="g20883"><g id="g20885"><path id="path20887" d="M290.2 269s1.5-5.2 7-9.3 15.3-6.3 15.3-6.3-1.7 9-8 13-14.3 2.5-14.3 2.5" fill="#e9c31e"/><path id="path20889" d="m293.8 270-3.7-.3a.7.7 0 0 1-.6-1c0-.2 1.7-5.4 7.3-9.6a49 49 0 0 1 15.5-6.5q.5 0 .7.2.3.3.2.7c0 .4-1.8 9.4-8.3 13.5a21 21 0 0 1-11 3m-2.5-1.7c2.2.2 8 .5 12.8-2.5 4.6-3 6.7-8.9 7.4-11.4-2.8.7-9.7 2.8-13.8 5.9a20 20 0 0 0-6.4 8" fill="#9a6104"/></g><g id="g20891"><path id="path20893" d="M298.3 263s2-2.8 4.5-4l6-2.7s-3.8 6.9-10.5 6.8" fill="#ffe96b"/></g></g></g><g id="g20895"><g id="g20897"><g id="g20899"><path id="path20901" d="M272.3 258.3s7.2 3.7 8 12.3c.6 8.6-1.8 16.2-1.8 16.2s-8.7-6.7-9-16c-.1-9.4 2.8-12.5 2.8-12.5" fill="#e9c31e"/><path id="path20903" d="m278.5 287.5-.5-.1c-.3-.3-9-7-9.2-16.6s2.8-12.9 3-13q.3-.4.8-.2c.4.2 7.6 4 8.4 13a47 47 0 0 1-1.8 16.4zm-6-28.2a21 21 0 0 0 5.6 26.2c.6-2.4 2-8.4 1.4-14.9a15 15 0 0 0-7-11.3" fill="#9a6104"/></g><g id="g20905"><path id="path20907" d="M275 263.4s2.6 2.4 2.5 5.8v8.3s-5.5-7.3-2.4-14.1" fill="#ffe96b"/></g></g><g id="g20909"><g id="g20911"><path id="path20913" d="M280 287.1s2.2-5.2 8.4-8.8 16.8-4.7 16.8-4.7-3 9.2-10 12.6-15.2 1-15.2 1" fill="#e9c31e"/><path id="path20915" d="M286.7 288.8c-3.9 0-6.8-1-6.9-1a1 1 0 0 1-.4-1c0-.2 2.3-5.4 8.6-9.1a52 52 0 0 1 17-4.8q.5 0 .7.3.3.2.2.7c-.2.3-3.1 9.5-10.4 13a20 20 0 0 1-8.8 1.9m-5.6-2.2q1.8.6 5.6.7 4.6 0 8.2-1.7c5.2-2.6 8.1-8.6 9.1-11-2.9.3-10.4 1.6-15.2 4.4a21 21 0 0 0-7.7 7.6" fill="#9a6104"/></g><g id="g20917"><path id="path20919" d="M289.2 282s2.5-2.8 5.2-3.7l6.5-2.1s-4.8 6.8-11.7 5.8" fill="#ffe96b"/></g></g></g><g id="g20921"><g id="g20923"><g id="g20925"><path id="path20927" d="M261 274.5s6.9 4.7 6.5 13.5a48 48 0 0 1-3.8 16.3s-8-8-7-17.5 4.3-12.3 4.3-12.3" fill="#e9c31e"/><path id="path20929" d="M263.7 305q-.3 0-.5-.2c-.3-.3-8.3-8.3-7.3-18s4.5-12.8 4.6-12.9q.4-.3 1 0c.2.2 7.1 5 6.8 14.1a48 48 0 0 1-3.9 16.6zm-2.6-29.5c-.9 1.1-3 4.4-3.7 11.4-.7 7.3 4.1 13.8 6 16 1-2.3 3.1-8.2 3.4-15s-4.2-11.1-5.7-12.4" fill="#9a6104"/></g><g id="g20931"><path id="path20933" d="M263.2 280s2.2 2.8 1.8 6.3l-1.1 8.5s-4.7-8.2-.7-14.8" fill="#ffe96b"/></g></g><g id="g20935"><g id="g20937"><path id="path20939" d="M265.3 304.7s2.8-5.3 9.6-8.4 17.6-3 17.6-3-4.1 9.7-11.7 12.5c-7.6 2.7-15.5-1-15.5-1" fill="#e9c31e"/><path id="path20941" d="M274.8 307.5a25 25 0 0 1-9.9-2.1 1 1 0 0 1-.3-1c.1-.3 3-5.7 10-8.8a48 48 0 0 1 18-3 1 1 0 0 1 .6 1c-.2.5-4.4 10-12.2 12.9q-2.9 1-6.2 1m-8.5-3.1a24 24 0 0 0 8.5 1.6q3 0 5.7-1c5.8-2 9.5-8.3 10.8-10.9-2.8 0-10.8.4-16 2.8a22 22 0 0 0-9 7.5" fill="#9a6104"/></g><g id="g20943"><path id="path20945" d="M275.2 300.4s2.9-2.7 5.8-3.4l6.9-1.4s-5.7 6.7-12.7 4.8" fill="#ffe96b"/></g></g></g><g id="g20947"><g id="g20949"><g id="g20951"><path id="path20953" d="M249.7 287.4s6.5 6 4.7 15.2S248 319 248 319s-7.2-9.5-4.7-19.4c2.6-9.8 6.5-12.2 6.5-12.2" fill="#e9c31e"/><path id="path20955" d="m247.9 319.8-.6-.3c-.3-.4-7.4-10-4.8-20s6.6-12.7 6.8-12.8q.5-.2 1 .1c.2.3 6.7 6.4 4.8 15.9a51 51 0 0 1-6.6 16.7q-.2.3-.6.4m1.7-31.4c-1 1-3.7 4-5.6 11.4-2 7.6 2.2 15.2 3.9 17.8 1.3-2.2 4.4-8.2 5.8-15.2a17 17 0 0 0-4-14" fill="#9a6104"/></g><g id="g20957"><path id="path20959" d="M251.1 293.5s2 3.3.9 6.8l-2.5 8.8s-3.6-9.3 1.6-15.6" fill="#ffe96b"/></g></g><g id="g20961"><g id="g20963"><path id="path20965" d="M249.4 319.7s3.9-5.2 11.4-7.4c7.6-2.1 19-.2 19-.2s-5.9 9.4-14.3 11.1-16-3.5-16-3.5" fill="#e9c31e"/><path id="path20967" d="M262 324.3c-7 0-12.8-3.8-13-4a1 1 0 0 1-.2-1c.2-.3 4.1-5.4 11.8-7.7q3.8-1 9.2-1c5.3 0 9.9.7 10 .8a1 1 0 0 1 .6 1c-.3.5-6.1 9.8-14.7 11.6zm-11.4-4.8c1.7 1 6.2 3.3 11.5 3.3l3.3-.3c6.4-1.3 11.3-7.4 13-9.8a55 55 0 0 0-8.6-.6q-5.2 0-8.7 1c-5.7 1.6-9.3 5-10.5 6.4" fill="#9a6104"/></g><g id="g20969"><path id="path20971" d="M260.5 316.7s3.5-2.4 6.6-2.6l7.4-.4s-7 6.1-14 3" fill="#ffe96b"/></g></g></g><g id="g20973"><g id="g20975"><path id="path20977" d="M231.9 346c3-9.2 8.8-16.2 18.5-24.8 18.9-16.7 44.8-41.7 52.2-100.2 7.5-59.7-31.7-99.8-55.7-118.4a132 132 0 0 0-29-17.3 1 1 0 0 0-.6 1.9s13.3 5.3 28.4 17c23.7 18.3 61.7 58 54.3 116.7-7.3 57.7-32.6 79.5-51.1 95.9-9.6 8.5-20.9 17.6-24.7 27.2-2.2 5.5.8 5.7 3.1 5.7s4.6-3.7 4.6-3.7" fill="#e9c31e"/><path id="path20979" d="M227.3 350.4c-1.3 0-3.2 0-4.1-1.4q-1.2-1.7.3-5.3c3.5-8.7 12.8-16.9 21.8-24.8l3-2.7.7-.5c18.2-16.1 43-38.1 50.2-95 7.5-58.7-30.6-97.9-54-116A130 130 0 0 0 217 87.8a2 2 0 0 1-1-2.2c.3-.9 1.4-1.4 2.3-1 .1 0 13.7 5.5 29 17.4 24.2 18.7 63.6 59 56 119.1-7.1 56.4-30.8 81.5-52.4 100.7a56 56 0 0 0-18.4 24.6c-.2.4-2.5 4-5.2 4M217.6 86l-.2.1.1.3c.2.1 13.5 5.4 28.6 17.2 23.7 18.2 62.1 57.8 54.6 117.4-7.2 57.3-32.4 79.6-50.7 95.8l-.6.6-3.1 2.7c-8.9 7.7-18 15.8-21.4 24.2-1 2.4-.8 3.4-.5 3.9q.9.9 3 .7c1.5 0 3.2-2.2 3.8-3.2 3.4-10 10-17.3 18.7-25 21.4-19 44.8-43.9 52-99.8 7.4-59.3-31.6-99.2-55.4-117.7A132 132 0 0 0 217.6 86" fill="#9a6104"/></g></g><g id="g20981"><path id="path20983" d="M198.1 78.9s9.2-2 14.3.1 6.3 7.6 6.3 7.6-6.3 2-11 .3-9.6-8-9.6-8" fill="#e9c31e"/><path id="path20985" d="M212 88.3a14 14 0 0 1-4.6-.7 27 27 0 0 1-9.9-8.3 1 1 0 0 1 .5-1.2c.1 0 4-.8 8-.8q4.2 0 6.7 1a12 12 0 0 1 6.7 8.1q0 .7-.5.9c-.1 0-3.3 1-6.9 1m-12.5-9a24 24 0 0 0 8.4 7q1.8.5 4.1.5c2.4 0 4.7-.5 5.7-.8-.4-1.4-2-4.7-5.6-6.3q-2.2-1-6-1c-2.7 0-5.2.4-6.6.7" fill="#9a6104"/></g><g id="g20987"><path id="path20989" d="M202.2 80.1s5.3-.5 8.2.2 4 4.2 4 4.2-10.6-2.2-12.2-4.4" fill="#ffe96b"/></g></g></g><g id="g20991"><g id="g20993"><path id="path20995" d="M130.7 82.8c-.3-1.7-1.8-4.2-2.9-4.7q-1.7-1-3.6-.8c-2 .2-2.5 1-3.6-.2s-3-3.1-5-2-3 3-3.4 3.6l-.8.8V77c-2.6 5.6-2.2 2-5.5 6.1a9 9 0 0 0-1.9 4.2c-1-1-2.5-1.8-4-1a9 9 0 0 0-3.3 3.6l-.8.8c.1-1.4-.1-2.6-.1-2.6-2.5 5.6-2.1 2-5.4 6.1a9 9 0 0 0-2 6.3 7 7 0 0 0-3.6 0c-1.2.3-2.4 1.5-3.8.4-1.5-1-3.8-2.7-5.7-1.1a10 10 0 0 0-2.8 4.3l-.7 1c-.2-1.4-.6-2.6-.6-2.6-1.6 6.3-1.8 2.4-4.6 7.4a10 10 0 0 0-.7 7.7l-1 .3c-1.2.6-2.2 2-4 1.1s-4.6-2.1-6.4-.2c-1.7 2-2.1 4.3-2.3 5l-.5 1.1c-.5-1.5-1.2-2.7-1.2-2.7-.6 6.9-1.5 2.9-3.6 8.5q-1.4 4.4.3 7.5-1 .3-2 1c-1.2 1-1.9 2.6-3.9 2.1s-5.2-1-6.5 1.3c-1.3 2.4-1.2 4.9-1.2 5.6l-.2 1.3c-.9-1.4-1.9-2.4-1.9-2.4 1 7-.9 3.2-1.6 9.4q-.4 4.6 2 7.4l-.4.3c-.9 1.3-1 3-3.1 3.2-2 .2-5.3.5-5.8 3.1-.6 2.7.3 5 .5 5.7l.1 1.4c-1.2-1.2-2.4-1.9-2.4-1.9 3 6.5 0 3.4 1.1 9.5a10 10 0 0 0 3.4 6l-1 .3c-2 .4-5.2 1-5.5 3.7s.8 5 1.1 5.6l.3 1.4c-1.3-1-2.7-1.6-2.7-1.6 3.7 6.2.4 3.3 2.1 9.3.9 3.1 2.8 5 4.8 6.1-.3 1.5.1 3.3-1.7 4.2s-4.7 2.4-4.2 5.1 2.2 4.6 2.6 5.1l.7 1.3-3-.8c5.3 4.9 1.3 3.1 4.7 8.4 2 3.2 4.7 4.3 7.4 4.7q0 1.5-1.4 2.4c-2 1-5 2.9-4.4 5.8s2.6 4.8 3 5.4l.8 1.3-3.3-.7c6 5 1.6 3.3 5.5 9 2.7 3.8 6.4 4.7 9.7 4.8.3 1.3.6 2.5-.7 3.6-1.8 1.5-4.5 4-3 6.8 1.3 2.7 3.8 4.3 4.5 4.8h-2.3c7.3 4.4 2.3 3.2 7.5 8.4 3.8 3.8 8 4 11.7 3.7.4 1 .6 2-.3 3.3-1.5 2-3.8 5-1.7 7.7 2 2.6 5 3.7 5.9 4l.6.4-5 1s2.7 2 5 2.2 5 1.3 6 2 2.5 3.4 8.2 4.2 11 .3 11 .3 4.2.7 11.7 8.3c7.3 7.5 8.9 10.6 10.4 15 1.2 3.6 2.5 4.4 5.6 5 1.8.4 3.8-3.2.9-7.4-5.2-7.3-17.7-20.2-19.6-22.1s-3-5.5-1.4-7.4 5-5.6 3.3-10.3-4.7-7.6-5.8-9.2-1.5-3.7-1.5-3.7l-.8 1c-1-2.3-2.4-4.7-4.8-5-4.5-.7-9 1.4-9 1.4l-3-1 .2-.3c1.6-2.7.1-5.5-.6-8.5s.8-8 .8-8l-2.3 2.4c-.3-2.4-1.2-5.7-3.7-6.6-4-1.5-8.6-.4-8.6-.4s-1.9-1-3.4-2l1.2-1.6c2-2.3 1.1-5.2 1-8.1-.2-3 2-7.5 2-7.5l-1.6 1.4c0-2-.4-4-2-5.1-3.2-2.2-7.7-2-7.7-2s-2-1.6-3.1-3.1l1.7-2.2c1.9-2 1.2-4.7 1.2-7.4s2.2-6.8 2.2-6.8l-1.6 1.2c.1-1.8-.2-3.7-1.5-4.7-3-2.1-7.1-2.1-7.1-2.1l-.5-.5 2.8-2c2.4-1.4 2.5-4.1 3.2-6.7s4-5.8 4-5.8l-1.8.6c.6-1.6 1-3.6-.1-4.9-2.2-2.8-6.1-4-6.1-4q1.1-.9 2.5-1.5c2.5-1.2 2.9-3.9 3.9-6.4s4.5-5.4 4.5-5.4l-1.9.5c.8-1.6 1.3-3.5.4-5-2-3-5.7-4.5-5.7-4.5l-.3-.5q1.8-.7 3.8-1c2.7-.3 3.9-2.8 5.5-4.9 1.7-2 6-3.8 6-3.8l-2-.1c1.2-1.3 2.3-3 1.8-4.6-.9-3.5-4-6.1-4-6.1l-.3-2c1.6-1 3.7-1 5.6-.8 2.7.2 4.3-1.8 6.3-3.4s6.4-2.3 6.4-2.3l-1.8-.5c1.4-1 2.7-2.3 2.7-4-.2-3.4-2.6-6.5-2.6-6.5s.2-1.8.6-3.3q1.8 0 3.8.5c2.3.6 4-1.1 6.1-2.3 2-1.3 6-1.3 6-1.3l-1.4-.7c1.4-.7 2.8-1.8 3-3.3.4-3.3-1.3-6.6-1.3-6.6l.2-.7.7-.5c2-1.7 4.4-.9 6.4 0s4-.3 6-1c2.1-.9 5.8-.2 5.8-.2l-1.2-1c1.4-.4 2.8-1.1 3.3-2.5.9-3 0-6.2 0-6.2l.2-.7 1.5.5c2 1 4-.3 6-1 2-.9 5.8-.2 5.8-.2l-1.3-1c1.4-.4 2.8-1.1 3.3-2.5 1-3 0-6.2 0-6.2s1-2.7 2.1-3.6c1-1 1.9-3.2 1.5-4.8" fill="#00ab4e"/><path id="path20997" d="M116.2 354.2h-.6c-3.4-.8-5.3-1.9-6.8-6.2-1.2-3.8-2.6-6.7-10-14.3-6.1-6.4-10-7.7-10.8-8a55 55 0 0 1-11-.2c-5.1-.7-7.2-2.8-8.4-4l-.5-.4c-.9-.7-3.4-1.7-5.3-1.8a12 12 0 0 1-5.7-2.6 1.5 1.5 0 0 1 .7-2.6l.7-.2q-1.6-.9-3.2-2.8c-2.8-3.5.4-7.7 1.7-9.5q.4-.4.4-.8H56q-6.2 0-10.4-4.2a12 12 0 0 1-3.2-4.8c-.2-.8-.3-1.3-4-3.5a1.5 1.5 0 0 1-.4-2q-1.4-1.4-2.4-3.3c-2-4 1.8-7.2 3.4-8.6q.6-.4.5-1-6.4-.7-9.7-5.5c-1.8-2.6-2-3.8-2.2-5 0-.7-.1-1.2-3-3.7a1.5 1.5 0 0 1 .8-2.6 12 12 0 0 1-1.9-4.2c-1-4 3.2-6.3 5.1-7.4q-4.2-1.2-6.5-5a10 10 0 0 1-1.8-4.7c0-.6 0-1-2.6-3.4a1.5 1.5 0 0 1 .7-2.6q-1-1.5-1.5-3.8c-.7-3.8 3.3-5.9 5-6.7.6-.3.7-.6.8-1.8v-.3a11 11 0 0 1-4.6-6.5c-.8-2.7-.6-4-.4-5 .1-.6.2-1-1.5-4a1.5 1.5 0 0 1 1.4-2.2 11 11 0 0 1-.4-4c.4-3 3.1-4.2 5.2-4.7q-1.5-2-2-4.9c-.6-2.8-.3-4 0-5 .2-.6.4-1-1.1-4.1a1.5 1.5 0 0 1 1.7-2.1 11 11 0 0 1 0-4c.8-3.9 5.3-4.2 7.2-4.4q.7.1 1.3-1.3l.4-.8q-2.1-3.4-1.6-7.5c.3-2.8 1-3.9 1.6-4.8.3-.5.5-.8 0-4.2a1.5 1.5 0 0 1 2.3-1.6 11 11 0 0 1 1.2-3.8c.6-1.2 2-2.5 4.7-2.5q1.9 0 3.4.5.7.2 1.6-.9l2.1-1.6q-1.2-3.6.2-7.3c1-2.5 1.7-3.4 2.5-4 .4-.5.7-.7 1-4a1.5 1.5 0 0 1 2.5-1q.5-1.6 2-3.3 1.2-1.5 3.4-1.5 2.6.2 4.6 1.4h.5q.5 0 1.2-.5l1-.5q-.9-4 1.1-7.5a9 9 0 0 1 3-3.6c.4-.3.7-.5 1.5-3.5a1.5 1.5 0 0 1 2.4-.8q.7-1.3 2.2-2.7a4 4 0 0 1 2.7-1c1.8 0 3.4 1 4.8 2l.3.2 1-.3 1.2-.5q1.2-.3 2.5-.3.3-3 2.3-5.4a8 8 0 0 1 3.3-2.8c.4-.2.7-.3 2-3q.4-1 1.5-.8.4 0 .9.4.9-1.2 2.4-2a4 4 0 0 1 3.8-.2q.7-1.5 1.6-2.7a8 8 0 0 1 3.4-2.8c.4-.2.7-.4 1.9-3a1.5 1.5 0 0 1 2.4-.4q.9-1.2 2.4-2a4 4 0 0 1 2-.6c2.2 0 4 1.8 4.8 2.8l.4.1.8-.1 1.2-.3q2.2-.2 4.5 1c1.7.8 3.3 3.9 3.7 5.7a7 7 0 0 1-2 6.2 11 11 0 0 0-1.6 2.6c.3 1.2.8 4 0 6.5q-.4 1.3-2.1 2.6v1q-.5 1-1.7 1s-1.3-.3-2.8-.3a7 7 0 0 0-3.4.8q-1.7.9-3.8 1-.8 0-1.5-.2.5 2.3-.3 5.2-.3 1.3-2 2.6v1q-.6 1-1.7 1s-1.4-.3-2.8-.3q-1.8 0-2.2.3l-1.2.5q-1.8.9-3.9 1-1 .1-2-.4-1.6-.8-3.3-1-.8 0-1.7.7l-.1.1c.5 1.3 1.4 4 1 6.8a5 5 0 0 1-1.7 3q.4.5.3 1.2-.4 1-1.5 1.1c-1 0-4 .2-5.3 1l-1.2.8a8 8 0 0 1-4.8 1.9q-.7 0-1.3-.2l-2.2-.4-.2 1.4c.7 1.1 2.4 3.9 2.4 7a5 5 0 0 1-1.3 3.4 1.5 1.5 0 0 1-.8 2.5c-1.1.2-4.3.9-5.7 2l-1.1 1c-1.6 1.3-3.5 3-6.2 2.7h-1.8q-1.2 0-2.1.2v.3c1 1 3.4 3.4 4.2 6.5q.4 1.8-.6 3.8a1.5 1.5 0 0 1-.1 2.7c-1.1.4-4.2 1.9-5.4 3.3l-1 1.3c-1.2 1.8-2.7 3.8-5.5 4.2l-.4.1c1.2.9 2.7 2 3.6 3.7q1.1 1.6.6 3.7a1.5 1.5 0 0 1 .7 2.7c-1 .7-3.5 3-4.2 4.8l-.5 1.4c-.7 2.1-1.5 4.5-4 5.7a13 13 0 0 1 4 3.3q1.3 1.5 1 3.7a1.5 1.5 0 0 1 1 2.6c-1 .8-3.2 3.3-3.7 5.1l-.4 1.5c-.5 2.2-1 4.7-3.5 6.1q2.4.5 4.8 2 1.5 1.2 2 3.4.8-.2 1.3.3.8.8.3 1.9c-.5 1-2 4.1-2 6v1.6c.2 2.2.4 4.7-1.6 6.8l-.9 1.1 1.8 1.7c1.4 0 5.1.3 8 2.3q1.8 1.2 2.3 3.5a1.5 1.5 0 0 1 1.8 2.1 18 18 0 0 0-2 6.7l.2 1.7c.3 2.4.5 5.1-1.4 7.5l-.2.2 1.4.9q1.3-.3 3.7-.4 3 0 5.3 1 2.8 1 4 4.8l.3-.4a1.5 1.5 0 0 1 2.5 1.5 18 18 0 0 0-.7 7.2l.4 1.7c.7 2.1 1.3 4.4.5 6.7l.9.2a20 20 0 0 1 9.3-1.3q3 .5 5.1 4h.8q.8.4 1 1.2s.4 1.8 1.3 3.2l1 1.4c1.4 1.8 3.5 4.3 4.9 8 2 5.4-1.6 9.6-3.3 11.6l-.2.3c-1 1-.4 3.7 1.2 5.3.2.2 14 14.3 19.8 22.4 2.2 3 2 6 1.2 7.7q-1.1 2-3 2m-28-31.4h.2c.5 0 5 1 12.6 8.8 7.2 7.4 9.1 10.7 10.7 15.5 1 3.1 2 3.5 4.4 4q.3 0 .5-.7c.2-.5.5-2-1-4.3-5-7-17.3-19.8-19.5-22-2.4-2.4-3.6-6.8-1.4-9.4l.2-.2c2.1-2.5 4-5.2 2.8-8.6s-3-5.5-4.4-7.2l-1.2-1.7-1-2-.4-.1q-.8 0-1.1-.9c-.7-1.7-2-3.8-3.6-4l-1.7-.2c-3.4 0-6.4 1.5-6.5 1.5q-.5.2-1 0s-1.6-.3-3.2-1a1.5 1.5 0 0 1-.8-2.1l.3-.4c.9-1.5.5-3-.2-5.5l-.5-1.9a13 13 0 0 1-.1-4.4h-.5q-.9-.4-1-1.3c-.2-1.7-.9-4.7-2.7-5.4a12 12 0 0 0-4.2-.7c-2 0-3.5.4-3.5.4l-1-.1c-.1 0-2.1-1-3.7-2.2q-1-1-.3-2 .4-.8 1.3-1.8 1.3-1.8.7-5.2l-.1-1.8q0-2.6 1-5-.6-.6-.6-1.3c0-1.3-.2-3-1.2-3.7-2.5-1.7-6-1.8-6.7-1.8h-.2q-.6 0-1-.3a20 20 0 0 1-3.4-3.4q-.6-1 0-1.8l1.8-2.3c1-1.1 1-2.5.9-4.7V230q0-2.2 1-4.6-.5-.5-.5-1c0-1.3 0-2.9-1-3.5a12 12 0 0 0-6.1-1.8q-.6 0-1-.4l-.5-.5a1.5 1.5 0 0 1 0-2.2q1.5-1.3 3-2.1c1.3-.8 1.7-2.1 2.2-4.2l.4-1.7q.8-2.2 2.3-4-.3-.6 0-1.3c.3-1 .7-2.6 0-3.5a12 12 0 0 0-5.4-3.5q-.5 0-.8-.6v-.1q-.7-1.2.4-2 1.4-1 2.7-1.6c1.4-.6 1.9-1.9 2.6-4l.6-1.5q1-2.2 2.6-3.9v-1.2c.6-1 1-2.5.5-3.5-1.6-2.5-5-4-5-4q-.5-.2-.8-.7l-.2-.5a1.5 1.5 0 0 1 .8-2q2-.8 4-1c1.5-.2 2.4-1.3 3.7-3l1-1.4q1.5-1.8 3.7-2.9 0-.6.3-1.1c.9-1 1.8-2.2 1.5-3.2-.8-3-3.6-5.3-3.6-5.3q-.5-.4-.5-1l-.3-2.2q0-1 .8-1.4 1.7-1 4.4-1l2 .1c1.5.1 2.4-.7 4-2l1.3-1q1.7-1.4 4-2 0-.5.6-1c.8-.5 2-1.5 2-2.6 0-2.8-2.1-5.6-2.1-5.7q-.5-.3-.3-1s.1-2 .5-3.6q.4-1 1.3-1 2.3-.2 4.3.4c1.3.3 2.4-.4 3.8-1.3l1.3-.8c1-.7 2.6-1 3.9-1.2q.1-.6.7-.9 1.7-.7 2.2-2.1c.3-2.8-1-5.7-1-5.7q-.4-.5-.2-1l.2-.8q0-.4.5-.7l.6-.6q1.5-1.3 3.7-1.3 2.3.2 4.3 1.2 1.6.5 3.6-.6l1.3-.6a10 10 0 0 1 3.8-.5q.3-.5.8-.6c.8-.2 2-.7 2.3-1.6.8-2.4 0-5.3 0-5.3v-1l.4-.8q.6-1 1.9-.8l1.5.7q1.5.5 3.6-.7l1.3-.5a10 10 0 0 1 3.7-.5q.3-.5.9-.6c.7-.2 2-.7 2.3-1.6.7-2.4 0-5.3 0-5.3q-.3-.5 0-1c.2-.5 1.3-3 2.5-4.2.7-.6 1.3-2.2 1-3.3a8 8 0 0 0-2-3.7q-1.5-.7-2.9-.6l-.7.2-1.6.2q-1.5 0-2.5-1c-.6-.7-1.8-2-2.7-2l-.5.2c-1.4.9-2.3 2.3-2.7 2.9l-.1.2-.6.7-.4.4a2 2 0 0 1-1.7.3q-.7.8-1.5 1.1c-.5.2-1 .4-2.2 2q-1.3 1.5-1.6 3.5a1.5 1.5 0 0 1-2.5.8q-1.2-1-1.7-.9l-.5.2c-1.5.8-2.3 2.2-2.7 2.8l-.1.2-.6.7-.4.4a2 2 0 0 1-1.7.3q-.7.8-1.6 1.1c-.4.2-1 .4-2.1 2a7 7 0 0 0-1.7 5.2 1.5 1.5 0 0 1-1.9 1.5q-1.5-.3-2.8 0l-.7.3q-1 .5-2.3.6-1.1 0-2.1-.7c-.7-.5-2-1.5-3-1.5q-.5 0-.8.3c-1.4 1.2-2 2.9-2.3 3.6l-.1.2-.5.8-.3.5a2 2 0 0 1-1.7.6 4 4 0 0 1-1.5 1.5c-.4.3-1 .6-2 2.5a8 8 0 0 0-.5 6.6 1.5 1.5 0 0 1-1 1.9l-.8.2-.8.5c-.7.4-1.6 1-2.8 1a4 4 0 0 1-1.8-.4 9 9 0 0 0-3.3-1.1q-.8 0-1.2.5a9 9 0 0 0-2 4v.3q0 .4-.4 1l-.3.5a2 2 0 0 1-1.7.8q-.4 1.2-1.3 1.9c-.4.3-1 .8-1.7 2.9q-1.2 3.2.3 6.4a1.5 1.5 0 0 1-.9 2l-1.6.8-.7.7c-.7.8-1.8 1.8-3.4 1.8l-1-.1-2.8-.4q-1.9.1-2 1c-1 1.7-1 3.7-1 4.5v.3l-.2 1-.2.6a1.5 1.5 0 0 1-1.5 1.2q-.2 1.4-.9 2.2c-.4.6-.8 1.1-1 3.5q-.5 3.4 1.6 6.3.7.9 0 1.8l-.2.2v.1l-.6.9c-.5 1-1.4 2.7-3.7 2.9q-3.9.1-4.5 2c-.4 2 .2 3.8.4 4.6l.1.3.2 1v.6a1.5 1.5 0 0 1-1.1 1.6q.2 1.4-.2 2.4c-.2.6-.4 1.3 0 3.6q.6 3 2.8 5a1.5 1.5 0 0 1-.1 2.4l-1.5.6c-2.5.5-4.1 1-4.3 2.4-.2 2 .6 3.8.9 4.6l.1.3.2 1 .1.6a1.5 1.5 0 0 1-1 1.7q.5 1.3.1 2.4c-.1.6-.3 1.3.4 3.5q1 3.5 4 5.2a1.5 1.5 0 0 1 .8 1.8l-.1 1c-.2 1.1-.3 3-2.4 4q-3.6 1.6-3.5 3.6c.4 2 1.7 3.5 2.2 4.2l.2.2.5 1 .3.5a1.5 1.5 0 0 1-.4 1.9q.7 1.2.7 2.3c0 .6 0 1.3 1.3 3.3a9 9 0 0 0 6.5 4q1.3.4 1.2 1.7a4 4 0 0 1-2.2 3.5c-2.4 1.4-4 2.6-3.7 4.1.5 2.3 2 3.9 2.6 4.6l.2.2.6 1 .3.6a1.5 1.5 0 0 1-.4 2q.8 1.3 1 2.4c0 .7 0 1.5 1.6 3.7 2 2.8 4.5 4.1 8.5 4.2q1.2.2 1.4 1.2c.3 1.4.7 3.4-1.2 5-2.2 2-3.5 3.5-2.7 5 1 2.2 3 3.6 3.9 4.2l.2.1q1 .7.5 1.8c1.7 1.2 2 2 2.4 3.2.2.7.5 1.5 2.5 3.5q3.2 3.4 8.2 3.4l2.2-.1q1.1 0 1.6.9c.3.8 1 2.8-.5 4.8-1.9 2.5-2.9 4.4-1.7 5.8 1.6 2 4 3 5 3.5l.3.2q.4 0 .9.5a1.5 1.5 0 0 1-.6 2.7h-.1l-.5.1h.3c2.6.2 5.6 1.5 6.9 2.4l.8.8c1 1 2.6 2.5 6.7 3q3.3.5 6.9.5l3.7-.1z" fill="#005a24"/></g><g id="g20999"><g id="g21001"><g id="g21003"><g id="g21005"><path id="path21007" d="M120.7 100.5s5.5-.2 6.4-3.1c1-3 0-6.2 0-6.2s1.1-2.7 2.1-3.6c1-1 1.9-3.2 1.5-4.8-.3-1.7-1.8-4.2-2.9-4.7q-1.7-1-3.6-.8c-2 .2-2.5 1-3.6-.2s-3-3-5-2c-2 1.2-3 3-3.4 3.6-.3.5-3.8 3.3-3.3 6.7s.4 15.7 11.8 15" fill="#ccdde7"/><path id="path21009" d="M119.8 101c-10 0-11-10-11.3-14.4l-.1-1.1c-.4-3.1 2-5.6 3-6.7l.4-.4.1-.2a10 10 0 0 1 3.4-3.5 3 3 0 0 1 1.5-.4c1.6 0 3 1.3 4.1 2.5q.9.8 2.2.2l1-.2q2-.1 4 .8c1.2.7 2.8 3.3 3.1 5 .4 2-.5 4.3-1.6 5.3-.8.7-1.7 2.5-2 3.3.2.8.8 3.7 0 6.3-1 3.2-6.6 3.4-6.9 3.5zm-3-25.7-1 .3a9 9 0 0 0-3 3.2l-.1.1-.5.6c-1 1-3.2 3.2-2.9 5.9l.2 1.1c.4 4.5 1.3 14 11.2 13.5 0 0 5.1-.2 6-2.8.8-2.7-.1-5.9-.1-5.9V91a12 12 0 0 1 2.3-3.8 5 5 0 0 0 1.3-4.3c-.3-1.6-1.7-4-2.6-4.4q-1.6-.8-3.4-.7l-.9.2-1.3.2q-1 0-1.8-.8c-.7-.7-2-2.1-3.4-2.1" fill="#808285"/></g><g id="g21011"><path id="path21013" d="M129.8 82.7s-.1 1.5-1 1.3-1-.8-1.5-1-2 0-2.2-.4-1.3-1.6-2-1.5c-.6 0-1.8-1.3-2-.9 0 .5-1.4 3.6-2.7 3.1l-3.3-1c-.7-.3-2.2 1-1.5-.8s1-1.5 1.2-3.2c0-1.7 1.3-1.5 2-1.3.9.2 1.5-.4 2.2.4.7 1 1.7 1.7 2.1 1.6l3.4-.3c1-.1 2.4-.5 3.2.4s2 2.8 2 3.6" fill="#ffffff"/></g><g id="g21015"><path id="path21017" d="M126 96.2s-1-2-2.4-2.4c-1.2-.6-2.6-.4-2.6-.4s-1 .2-1-.3c.2-.5 1.1-.6 1.1-1.8s.7-1 .9-1.8 1-1.2 1-1.2 2 .8 2.5 1.3 1 5 .4 6.6" fill="#ffffff"/></g></g><g id="g21019"><path id="path21021" d="M111.3 77s.5 2.9-.4 5c-1 2 .2 2.4.2 2.4s2-.2 3.6.7c1.5 1 5.4 1.5 5.4 1.5s-2 2.7-1.9 4.2a5 5 0 0 1-1.3 3.6l-1.2 1.3s2.3-.5 3.7.8 5.7 4.4 5.7 4.4-3.7-.7-5.8.1-4 2-6 1.1-4.5-1.8-6.5 0c-2 1.7-4.8 4.1-5.3 2.3s-.7-2.6 2.1-4.3 2.4-2.9 1.5-5.8c-1-2.9-2.5-7.1.8-11.3 3.3-4.1 2.9-.5 5.4-6" fill="#00ab4e"/><path id="path21023" d="M102.3 105.8q-1.2 0-1.5-1.2c-.6-2-.8-3.2 2.4-5.2 2.3-1.3 2.1-1.9 1.3-4.5l-.2-.7c-1-3-2.4-7.4 1-11.7 1.6-2 2.5-2.3 3-2.6.7-.2 1-.4 2.4-3.3a.7.7 0 0 1 1.4.2c0 .1.5 3.2-.5 5.5q-.5 1.1-.3 1.3c.8 0 2.5 0 3.8.9a25 25 0 0 0 5.2 1.4 1 1 0 0 1 .4 1.2c-.7 1-1.8 2.7-1.7 3.6q0 2.6-1.5 4.2 1.3.1 2.4 1c1.3 1.2 5.6 4.3 5.6 4.4q.4.3.3.9s-.5.5-.8.4c0 0-1.4-.2-3-.2q-1.5 0-2.4.3l-1.3.5q-1.7.9-3.5 1-1 0-1.8-.4a9 9 0 0 0-3.5-1q-1.2 0-2.2.8l-.4.3c-2 1.7-3.4 3-4.6 3m8.4-26c-.6 1-1.1 1.2-1.7 1.5-.5.2-1.2.5-2.5 2.2-2.9 3.6-1.7 7.4-.8 10.2l.2.8c.9 2.6 1.4 4.2-1.9 6.2-2.3 1.4-2.2 1.8-1.8 3.5v.1c.8 0 2.7-1.6 3.8-2.5l.3-.3q1.5-1.2 3.2-1.2 2.2.2 4 1.1c1.3.6 2.7 0 4.3-.6l1.2-.5a9 9 0 0 1 3.5-.4c-1.3-1-2.9-2.2-3.6-2.9-1.1-1-3-.6-3-.6a.8.8 0 0 1-.8-1.2l1.3-1.3q1-1.1 1-3.1c0-1.1.8-2.7 1.5-3.6-1.3-.3-3.5-.8-4.6-1.4a6 6 0 0 0-3.1-.7h-.3q-.3 0-1-.9-.3-1 .3-2.6z" fill="#005a24"/></g></g><g id="g21025"><g id="g21027"><g id="g21029"><path id="path21031" d="M105.2 111.6s5.4-.2 6.4-3.1c.9-3 0-6.2 0-6.2s1-2.7 2.1-3.6c1-1 1.9-3.1 1.5-4.8s-1.8-4.2-3-4.7q-1.7-1-3.6-.8c-1.9.2-2.4 1-3.6-.2-1.1-1.2-3-3-5-2a9 9 0 0 0-3.3 3.6c-.3.5-3.8 3.3-3.4 6.7.5 3.5.4 15.7 11.9 15" fill="#ccdde7"/><path id="path21033" d="M104.3 112.1c-10 0-11-10-11.4-14.4v-1.1c-.5-3 2-5.6 3-6.7l.4-.4.1-.2a10 10 0 0 1 3.4-3.5 3 3 0 0 1 1.5-.4c1.6 0 3 1.3 4 2.5q1 .8 2.2.2l1-.2q2-.1 4 .8c1.3.7 2.8 3.4 3.2 5.1.4 2-.5 4.2-1.7 5.2-.7.7-1.6 2.5-2 3.3.2.8.9 3.7 0 6.3-1 3.3-6.6 3.5-6.8 3.5zm-3-25.7-1 .3a9 9 0 0 0-3 3.2l-.2.2-.4.5c-1 1-3.2 3.3-2.9 5.9l.1 1.1c.4 4.5 1.3 14 11.2 13.5.1 0 5.2-.2 6-2.8.9-2.7 0-5.8 0-5.9v-.3c0-.1 1.2-2.8 2.3-3.8.9-.8 1.6-2.8 1.3-4.3-.3-1.6-1.7-3.9-2.6-4.4q-1.8-.8-3.4-.7l-1 .2-1.3.2q-1 0-1.7-.7c-.7-.8-2-2.2-3.4-2.2" fill="#808285"/></g><g id="g21035"><path id="path21037" d="M114.3 93.8s-.2 1.5-1 1.3c-1-.2-1-.8-1.6-1s-2 0-2.2-.4-1.2-1.6-1.9-1.5c-.7 0-1.8-1.3-2-.8s-1.4 3.5-2.8 3q-2-.5-3.2-1c-.8-.2-2.3 1-1.5-.8s1-1.4 1.1-3.2c.1-1.7 1.4-1.5 2.2-1.3.7.2 1.3-.4 2 .5.8.8 1.7 1.6 2.2 1.5l3.4-.3c1-.1 2.4-.5 3.2.4s2 2.9 2 3.6" fill="#ffffff"/></g><g id="g21039"><path id="path21041" d="M110.4 107.3s-1-1.9-2.3-2.4-2.6-.4-2.6-.4-1.1.2-1-.3 1.1-.6 1-1.8c0-1.2.7-1 1-1.8.1-.8 1-1.1 1-1.1s2 .7 2.4 1.2c.5.6 1 5 .5 6.6" fill="#ffffff"/></g></g><g id="g21043"><path id="path21045" d="M95.8 88s.5 3-.4 5c-1 2.1.2 2.5.2 2.5s2-.2 3.6.7c1.5 1 5.4 1.5 5.4 1.5s-2 2.7-2 4.2a5 5 0 0 1-1.2 3.7l-1.3 1.2s2.4-.5 3.7.8 5.7 4.4 5.7 4.4-3.7-.7-5.7.1c-2.1.8-4 2-6 1.1s-4.5-1.7-6.5 0-4.8 4.2-5.3 2.3c-.5-1.8-.8-2.6 2-4.3s2.5-2.8 1.6-5.8c-1-2.9-2.5-7.1.8-11.3 3.3-4.1 2.9-.5 5.4-6" fill="#00ab4e"/><path id="path21047" d="M86.7 117q-1 0-1.4-1.2c-.6-2.1-.8-3.3 2.4-5.3 2.2-1.3 2-1.9 1.3-4.5l-.3-.7c-1-3-2.3-7.4 1.1-11.6 1.6-2 2.4-2.4 3-2.6s1-.5 2.3-3.4a.8.8 0 0 1 1.4.2c0 .2.6 3.2-.4 5.5q-.5 1.2-.3 1.3c.8 0 2.4 0 3.8.9 1.1.7 4 1.2 5.1 1.4a1 1 0 0 1 .5 1.2c-.7 1-1.8 2.8-1.8 3.6q0 2.7-1.4 4.2 1.2.1 2.3 1l5.7 4.4q.5.4.2.9s-.4.5-.8.4c0 0-1.4-.2-2.9-.2q-1.5 0-2.5.3l-1.2.5q-1.7.9-3.6 1-.9 0-1.8-.4a9 9 0 0 0-3.5-1q-1.2 0-2.1.8l-.4.3c-2 1.7-3.5 3-4.7 3m8.4-26q-.8 1.2-1.7 1.4c-.5.2-1.1.5-2.4 2.2-3 3.6-1.7 7.5-.9 10.2l.3.8c.8 2.6 1.3 4.2-2 6.2-2.3 1.5-2.2 1.9-1.7 3.5v.1c.8 0 2.6-1.6 3.7-2.5l.4-.3q1.4-1.2 3.2-1.2 2.2.1 4 1.2c1.3.5 2.7 0 4.2-.7l1.3-.5a9 9 0 0 1 3.4-.4l-3.6-2.9c-1-1-3-.5-3-.5a.8.8 0 0 1-.7-1.3l1.3-1.3q1-1.1 1-3.1c0-1.1.8-2.6 1.4-3.6-1.3-.3-3.4-.8-4.5-1.4a6 6 0 0 0-3.2-.7h-.2c-.1 0-.7-.2-1-.9q-.5-1 .3-2.5z" fill="#005a24"/></g></g><g id="g21049"><g id="g21051"><g id="g21053"><path id="path21055" d="M85.5 125.4s5.7-1.2 6.2-4.4-1.3-6.6-1.3-6.6.8-3 1.7-4.2 1.4-3.6.7-5.3-2.7-4-4-4.4a7 7 0 0 0-4-.2c-1.2.4-2.4 1.6-3.8.5-1.5-1-3.8-2.7-5.7-1.1a10 10 0 0 0-2.8 4.3c-.3.6-3.4 4.2-2.3 7.8 1 3.5 3.4 16.5 15.3 13.6" fill="#ccdde7"/><path id="path21057" d="M82.3 126.3c-8.6 0-11.2-9.3-12.3-13.2q0-.7-.3-1.2c-1-3.2 1.1-6.3 2-7.6l.3-.5.1-.2c.4-.8 1.1-2.8 3-4.3q.8-.8 2-.8c1.5 0 3 1 4.2 1.9q1 .7 2.3-.1l1-.4a8 8 0 0 1 4.4 0c1.4.5 3.5 3 4.2 4.8.8 1.9.3 4.5-.7 5.8-.7.9-1.3 3-1.5 3.9a13 13 0 0 1 1.2 6.6c-.5 3.6-6.3 4.8-6.6 4.9q-1.7.4-3.3.4M77 99.5q-.8 0-1.4.6c-1.6 1.3-2.3 3.1-2.7 3.9v.2l-.4.7c-.9 1.2-2.8 4-2 6.7l.4 1.2c1.1 4 3.4 12.5 11.3 12.5q1.5 0 3-.4c.2 0 5.5-1.1 5.9-4 .4-3-1.2-6.2-1.2-6.3v-.3c0-.1.7-3.1 1.7-4.4.8-1 1.2-3.3.6-4.8a10 10 0 0 0-3.6-4.2 7 7 0 0 0-3.8 0l-.9.3q-.7.5-1.8.5-.7 0-1.5-.5c-.9-.6-2.3-1.7-3.6-1.7" fill="#808285"/></g><g id="g21059"><path id="path21061" d="M91.8 105s.1 1.6-.9 1.6-1.1-.8-1.8-.9-2 .5-2.3 0c-.4-.4-1.7-1.4-2.4-1.2s-2.2-1-2.2-.5-.9 4-2.4 3.8l-3.6-.4c-.8-.2-2.2 1.3-1.7-.7s.8-1.7.6-3.5 1.1-1.9 2-1.8 1.3-.7 2.3 0c1 .8 2 1.5 2.5 1.3l3.5-1c1-.3 2.4-1 3.5-.1 1 .8 2.6 2.6 2.8 3.4" fill="#ffffff"/></g><g id="g21063"><path id="path21065" d="M90.2 120s-1.4-1.9-2.9-2.2c-1.4-.3-2.8 0-2.8 0s-1.1.5-1 0c0-.6 1-.9.7-2.1-.2-1.3.5-1.2.6-2 0-1 1-1.5 1-1.5s2.2.4 2.7.9 2 5 1.7 6.8" fill="#ffffff"/></g></g><g id="g21067"><path id="path21069" d="M71.2 102.4s1 3 .5 5.3c-.6 2.4.7 2.5.7 2.5s2.1-.5 4 .2 6 .5 6 .5-1.7 3.2-1.4 4.7.2 3-.6 4.2l-1.1 1.6s2.4-1 4 0c1.7 1.1 6.9 3.6 6.9 3.6s-4 0-6 1.3c-2.1 1.2-3.9 2.9-6.2 2.3s-5-1-6.8 1.1c-1.9 2.2-4.3 5.3-5.2 3.5s-1.3-2.6 1.4-5 2-3.4.5-6.3c-1.5-3-4-7.1-1.3-12.1s3-1 4.6-7.4" fill="#00ab4e"/><path id="path21071" d="M66.8 134.5q-.7.2-1.5-1c-1-2-1.3-3.2 1.6-5.9 2.2-1.9 1.9-2.4.5-5l-.4-.8c-1.5-2.9-3.8-7.2-1-12.4 1.3-2.3 2-2.9 2.7-3.3.6-.4 1-.6 1.8-4q0-.4.7-.5.5 0 .7.5c0 .1 1.2 3.3.5 5.8v1.5l1.8-.1q1.4 0 2.4.3a18 18 0 0 0 5.7.6.7.7 0 0 1 .7 1c-.6 1.2-1.4 3.4-1.2 4.3a6 6 0 0 1-.8 4.7h.4q1.5 0 2.3.6l6.8 3.6a.7.7 0 0 1-.3 1.4s-3.8 0-5.7 1.1l-1.2.8c-1.3.8-2.7 1.7-4.4 1.7l-1.1-.1q-1.5-.4-3-.5-2 0-3 1.4l-.4.4c-2 2.3-3.3 3.9-4.6 3.9m4.3-29.2q-.7 1.7-1.6 2c-.5.4-1.1.8-2.2 2.8-2.4 4.5-.4 8.3 1 11l.4.8c1.4 2.6 2.2 4.2-.8 6.9-2.2 2-2 2.4-1.2 4v.2c.8 0 2.7-2.3 3.6-3.4l.3-.4q1.5-2 4.2-1.9 1.8.1 3.4.5c1.4.4 2.8-.4 4.3-1.4l1.2-.8q1.7-1 3.7-1.1L83 122q-.7-.4-1.6-.4-1.7.1-1.8.3a.7.7 0 0 1-1-1l1.2-1.7q1-1.3.5-3.5c-.2-1.2.4-3 .9-4.1-1.6 0-3.9-.2-5.2-.6q-.7-.3-1.8-.3l-1.7.2h-.2q-.3.1-1.1-.7-.6-1-.2-2.7.3-1.2 0-2.3" fill="#005a24"/></g></g><g id="g21073"><g id="g21075"><g id="g21077"><path id="path21079" d="M70.2 143.6s6-2.2 6-5.6c-.2-3.4-2.5-6.6-2.5-6.6s.2-3.2 1-4.6.8-4-.2-5.6-3.7-3.7-5.1-4-3.1 0-4.4.6-2.3 2-4.1 1.1-4.6-2.1-6.3-.2-2.2 4.3-2.4 5c-.1.6-3 4.9-1 8.3 1.7 3.5 6.6 16.5 19 11.6" fill="#ccdde7"/><path id="path21081" d="M65 145.2c-8 0-12-8-13.8-11.8l-.5-1.1c-1.7-3.1 0-6.7.8-8.2l.2-.6.1-.2c.2-1 .7-3.1 2.4-5q1-1 2.7-1.1c1.4 0 3 .7 4.2 1.3q1.4.4 2.6-.5l1-.6q2.2-.9 4.7-.6c1.7.2 4.4 2.4 5.5 4.1 1.2 1.8 1 4.7.2 6.1-.6 1-.8 3.3-1 4.3.6.7 2.5 3.5 2.6 6.7 0 3.7-6 6-6.3 6a15 15 0 0 1-5.4 1.2m-8.1-27q-1.2 0-2 .8a9 9 0 0 0-2.1 4.5v.3l-.4.7c-.7 1.4-2.3 4.6-.8 7.3l.5 1.2c1.8 3.6 5.5 11.2 12.9 11.2a14 14 0 0 0 5-1c.1 0 5.7-2.2 5.7-5.2-.1-3.2-2.4-6.2-2.4-6.3q-.2 0-.1-.3c0-.1.2-3.4 1-4.8.7-1.3.8-3.6-.1-5.1-1-1.6-3.6-3.6-4.8-3.7q-2.3-.3-4.1.5l-1 .5q-.9.8-2.2.9l-1.3-.3c-1-.5-2.5-1.2-3.8-1.2" fill="#808285"/></g><g id="g21083"><path id="path21085" d="M73.4 121.5s.4 1.6-.6 1.7-1.4-.5-2.1-.6-2.2.9-2.6.5c-.5-.4-2-1.2-2.8-.9s-2.5-.7-2.5-.2c0 .6-.2 4.3-2 4.4H57c-1 0-2.2 1.8-2-.3.2-2.2.5-1.9 0-3.7s.9-2.2 1.8-2.2c1-.1 1.4-1 2.6-.3s2.5 1 3 .9l3.6-1.6c1.1-.5 2.5-1.5 3.8-.8s3.3 2.3 3.7 3" fill="#ffffff"/></g><g id="g21087"><path id="path21089" d="M74.4 137.1s-1.9-1.6-3.5-1.7-3 .6-3 .6-1.2.6-1.3 0c0-.5 1-1 .5-2.3s.3-1.3.2-2.2.8-1.6.8-1.6 2.5 0 3.2.5 3 4.9 3 6.7" fill="#ffffff"/></g></g><g id="g21091"><path id="path21093" d="M50.5 122.1s1.8 3 1.5 5.5c-.2 2.5 1.2 2.5 1.2 2.5s2.3-1 4.3-.5 6.7-.4 6.7-.4-1.2 3.5-.6 5q1 2.4 0 4.4l-.8 1.8s2.4-1.4 4.4-.5 8 2.5 8 2.5-4.3.7-6.3 2.3-3.6 3.6-6.3 3.4-5.6-.3-7.2 2.3-3.7 6.2-5 4.5-1.9-2.5.7-5.4 1.5-4-.7-6.6c-2.1-2.8-5.6-6.7-3.5-12.3s3-1.6 3.6-8.5" fill="#00ab4e"/><path id="path21095" d="M51.2 156q-.7.2-1.4-.7c-1.5-2-2-3.1.7-6.3 2-2.3 1.6-2.9-.4-5.3l-.6-.7c-2.1-2.8-5.4-7-3.3-12.7 1-2.6 1.7-3.3 2.3-3.8s1-.9 1.3-4.4a.8.8 0 0 1 1.4-.3c0 .1 1.8 3.2 1.6 5.9q0 1.5.3 1.6c.5-.2 1.9-.6 3.3-.6l1.3.1 1.3.1c2.1 0 5-.5 5-.5a.7.7 0 0 1 .9 1c-.4 1.3-1 3.6-.6 4.6a6 6 0 0 1 0 5q1.6-.3 3.2.2c2 .8 8 2.5 8 2.5a.8.8 0 0 1-.1 1.5s-4.2.6-6 2l-1.2 1c-1.6 1.4-3.2 2.9-5.7 2.7l-1.8-.1q-3.5 0-4.7 2l-.3.5c-1.7 2.8-3 4.8-4.5 4.8m-.3-31c-.3 1.6-.7 2-1.4 2.6-.5.4-1 1-1.9 3.2-1.8 5 1 8.6 3.1 11.2l.6.7c2 2.5 3.1 4 .3 7.3-2 2.4-1.8 2.8-.6 4.4l.2.2c.7 0 2.4-2.8 3.3-4.1l.2-.5c1.6-2.4 4.2-2.7 6-2.7h2c1.8.2 3-.9 4.5-2.2l1.2-1a12 12 0 0 1 4-1.8l-6.6-2c-1.4 0-2.7.8-2.7.8a.8.8 0 0 1-1-1l.9-1.8q.8-1.6 0-3.8c-.5-1.2-.2-3.1.1-4.4a24 24 0 0 1-6.7.1c-1.5 0-2.9.6-3 .6h-.2q-.4.2-1.3-.6t-.6-2.6a7 7 0 0 0-.4-2.7" fill="#005a24"/></g></g><g id="g21097"><g id="g21099"><g id="g21101"><path id="path21103" d="M56.7 164s5.6-3.6 4.6-7c-.9-3.5-4-6.1-4-6.1s-.6-3.3-.1-5c.4-1.5-.1-4.2-1.6-5.6-1.4-1.4-4.6-2.9-6-2.7a9 9 0 0 0-4.4 1.5c-1.2 1-1.9 2.6-3.9 2.1s-5.2-1-6.5 1.3c-1.3 2.4-1.2 4.9-1.2 5.6s-1.8 5.7.9 8.8c2.7 3 10.6 15.1 22.2 7.2" fill="#ccdde7"/><path id="path21105" d="M49 167.2c-6.7 0-11.5-5.8-14-9l-.9-1c-2.4-2.8-1.5-6.8-1-8.5v-.9c0-1 0-3.3 1.3-5.5q1-2 3.8-2 1.8 0 3.2.4c1.2.3 1.8-.3 2.6-1l1-1a9 9 0 0 1 4.5-1.6c1.7-.2 5 1.4 6.5 2.9a7 7 0 0 1 1.7 6.1c-.4 1.3-.1 3.8 0 4.5.7.6 3.3 3 4.1 6.2 1 3.8-4.6 7.5-4.9 7.7a14 14 0 0 1-8 2.7m-10.8-25.9q-2.1 0-3 1.4c-1 2-1 4.2-1 5.1v.3l-.2.8c-.4 1.6-1.2 5.3.9 7.6l.8 1.1c2.5 3 7 8.6 13.3 8.6q3.6 0 7.4-2.5s5.3-3.5 4.4-6.6c-.8-3.3-3.9-5.8-3.9-5.8l-.2-.3c0-.2-.5-3.5 0-5.2.4-1.4 0-3.8-1.4-5.1-1.4-1.4-4.4-2.8-5.7-2.6q-2.4.3-4 1.4l-1 .8c-.6.7-1.4 1.5-2.6 1.5h-.8q-1.5-.5-3-.5" fill="#808285"/></g><g id="g21107"><path id="path21109" d="M54.6 140.8s.8 1.6-.2 2-1.5-.3-2.3-.1-2 1.3-2.5 1c-.5-.2-2.4-.7-3-.2s-2.8-.1-2.6.4.8 4.4-1 4.9l-4 1c-1 .2-1.7 2.4-2 .1s0-2-1-3.7.4-2.4 1.4-2.7 1.2-1.3 2.5-1 2.8.6 3.3.3c.4-.4 2.2-1.8 3.3-2.5 1-.8 2.1-2 3.6-1.7s4 1.6 4.5 2.2" fill="#ffffff"/></g><g id="g21111"><path id="path21113" d="M59.3 156.5s-2.3-1.2-4-.9c-1.6.3-3 1.3-3 1.3s-1 .9-1.1.3c-.2-.5.7-1.2 0-2.4-1-1.2 0-1.4-.3-2.3s.4-1.8.4-1.8 2.5-.6 3.3-.3 4.3 4.3 4.7 6.1" fill="#ffffff"/></g></g><g id="g21115"><path id="path21117" d="M31.6 147s2.4 2.6 2.8 5.2 1.7 2.2 1.7 2.2 2.1-1.5 4.3-1.6c2.2 0 6.7-2 6.7-2s-.4 4 .6 5.3q1.6 2.3 1.1 4.5l-.5 2s2.1-2 4.4-1.6c2.2.3 8.8.7 8.8.7s-4.3 1.7-6 3.8c-1.6 2.1-2.8 4.6-5.5 5s-5.8 1-6.8 4-2.3 7.2-4 5.7c-1.7-1.4-2.5-2-.6-5.6s.6-4.3-2.2-6.6-7.3-5.4-6.5-11.6 2.6-2.3 1.7-9.4" fill="#00ab4e"/><path id="path21119" d="M39.9 181.3q-.6 0-1.2-.5c-2-1.7-2.8-2.7-.8-6.6 1.5-2.8.9-3.3-1.6-5.3l-.8-.6c-2.8-2.3-7.2-5.7-6.4-12 .4-2.9 1-3.8 1.5-4.4s.7-1.1.2-4.8a.7.7 0 0 1 1.3-.7c.1.2 2.6 2.8 3 5.7q.3 1.5.8 1.6c.6-.4 2.5-1.5 4.5-1.6 2 0 6.3-2 6.4-2q.4 0 .7.2t.3.6c-.1 1.4 0 4 .5 4.8a6 6 0 0 1 1.2 5v.2q1.3-.8 3.3-.6c2.2.3 8.7.6 8.7.6a.8.8 0 0 1 .3 1.5S57.7 164 56 166l-1 1.2c-1.2 1.8-2.5 3.6-5 4-2.7.4-5.3 1-6.2 3.5l-.2.6c-1 3-2 6-3.8 6m-7.3-31.7c0 1.8-.3 2.4-.8 3.1-.4.6-.9 1.3-1.2 3.8-.7 5.5 3 8.5 5.8 10.6l.8.6c2.5 2 4 3.3 2 7.2-1.6 3-1.2 3.4.5 4.7l.2.2c.7 0 2-3.6 2.4-5l.2-.5c1.1-3.4 4.4-4.1 7.4-4.6 1.8-.3 2.9-1.7 4-3.3l1-1.4q1.6-1.6 3.7-2.7l-6-.6c-2-.2-3.8 1.5-3.8 1.5q-.4.4-.9 0l-.3-.7.5-2.1q.5-1.8-1-3.8c-.8-1.1-.9-3.3-.8-4.6a23 23 0 0 1-5.9 1.6c-1.9 0-3.8 1.4-3.8 1.4l-.3.1H36c-.6 0-2-.2-2.4-2.8q-.1-1.6-1-2.7" fill="#005a24"/></g></g><g id="g21121"><g id="g21123"><g id="g21125"><path id="path21127" d="M49.8 184.6s4.3-5.1 2.4-8.1c-2-3-5.7-4.6-5.7-4.6s-1.5-3-1.5-4.7-1.4-4-3.2-5-5.2-1.4-6.6-.8a9 9 0 0 0-3.7 2.8c-.9 1.2-1 3-3.1 3.1-2 .2-5.3.5-5.8 3.1-.6 2.7.3 5 .5 5.7s-.1 6 3.4 8.2 14.6 11.3 23.3.3" fill="#ccdde7"/><path id="path21129" d="M40 190.4c-5.2 0-10-3.2-12.7-5l-1-.7c-3.2-2-3.5-6-3.6-7.8v-.6l-.2-.3c-.3-1-1-3.2-.4-5.7.6-3 4.3-3.3 6.3-3.5 1.2 0 1.6-.9 2-1.8l.7-1.1a9 9 0 0 1 3.9-3c1.5-.6 5.1-.1 7 .9s3.4 3.6 3.5 5.3c0 1.2.9 3.4 1.3 4.4.8.3 4 1.9 5.8 4.7 2 3.3-2.2 8.5-2.4 8.7a13 13 0 0 1-10.3 5.5m-3.1-28.8q-1.3 0-1.5.2a8 8 0 0 0-3.5 2.6l-.5 1c-.6 1-1.2 2.3-3 2.4-2.3.2-4.9.6-5.3 2.7-.5 2.3.1 4.3.4 5.2v.3l.2.8c0 1.6.4 5.4 3 7l1.2.8c2.7 1.8 7.2 4.8 12 4.8q5.4 0 9.5-5.1s4-4.9 2.3-7.6a13 13 0 0 0-5.4-4.4l-.3-.2a16 16 0 0 1-1.5-5c0-1.4-1.2-3.6-2.9-4.4a12 12 0 0 0-4.7-1" fill="#808285"/></g><g id="g21131"><path id="path21133" d="M41 163s1.3 1.3.4 2-1.6.1-2.2.5-1.5 1.9-2.1 1.8c-.6-.2-2.5 0-3 .6s-2.7.7-2.3 1.2c.3.5 2 4 .5 4.9l-3.5 2.2c-1 .5-1 2.7-2 .7s-.5-2-2-3.3c-1.5-1.4-.3-2.4.5-3s.7-1.6 2.1-1.6 2.9-.3 3.2-.8L33 165c.8-1 1.5-2.6 3-2.7 1.6 0 4.2.3 5 .8" fill="#ffffff"/></g><g id="g21135"><path id="path21137" d="M50.1 176.6s-2.5-.4-4 .3c-1.6.8-2.5 2.1-2.5 2.1s-.7 1.2-1 .7.3-1.4-.8-2.3c-1.2-1-.4-1.4-1-2.1s-.1-2-.1-2 2.3-1.2 3-1.2c1 0 5.4 2.9 6.4 4.5" fill="#ffffff"/></g></g><g id="g21139"><path id="path21141" d="M20.8 175.6s3 1.8 4.2 4.2c1.1 2.4 2.3 1.6 2.3 1.6s1.6-2 3.7-2.8 5.7-3.8 5.7-3.8.8 3.8 2.2 4.9q2.2 1.6 2.4 3.9v2s1.5-2.4 3.8-2.8 8.6-1.9 8.6-1.9-3.6 3-4.5 5.4c-1 2.5-1.4 5.2-4 6.4-2.4 1.2-5.1 2.7-5.2 5.8-.1 3.2 0 7.5-2.1 6.7-2.1-1-3-1.3-2.3-5.2s-.7-4.3-4-5.6c-3.4-1.4-8.6-3.1-9.7-9.3-1-6 1.9-3-1.1-9.5" fill="#00ab4e"/><path id="path21143" d="m38.4 206-.8-.1c-2.4-1-3.6-1.7-2.7-6 .5-3.2-.2-3.5-3.2-4.7l-.9-.3c-3.4-1.3-8.5-3.3-9.6-9.6-.5-2.9-.2-4 0-4.7s.5-1.2-1.1-4.6a.8.8 0 0 1 1-1c.2 0 3.4 1.9 4.6 4.5q.7 1.4 1.2 1.3c.4-.6 2-2.2 3.8-2.9a23 23 0 0 0 5.6-3.7 1 1 0 0 1 1.2.4c.3 1.4 1 3.8 1.9 4.5a6 6 0 0 1 2.6 4.5v.1q1-1.2 3-1.6a86 86 0 0 0 8.5-2q.6 0 .9.5.1.5-.2.9s-3.4 2.8-4.4 5l-.5 1.6c-.7 2-1.4 4.2-3.7 5.3s-4.8 2.5-4.9 5.2v.5c0 3.4-.2 7-2.3 7m-15.9-28.2c.6 1.8.5 2.4.2 3.3-.2.6-.5 1.4 0 4 1 5.4 5.4 7.1 8.7 8.4l.9.3c3 1.2 4.8 2 4 6.3-.6 3.3-.1 3.5 1.8 4.4h.3c.7 0 .8-4 .8-5.4v-.6c.1-3.5 3-5.2 5.8-6.5 1.7-.8 2.2-2.5 2.9-4.4l.6-1.6q1-2 2.6-3.7c-2 .5-4.6 1.1-6 1.3-1.8.3-3 2.4-3 2.5a.8.8 0 0 1-1.5-.3l-.1-2.2q-.1-1.9-2-3.3c-1.1-.9-1.8-2.9-2.2-4.2a23 23 0 0 1-5 3.3c-2 .6-3.4 2.4-3.4 2.5l-.2.1c-.2.2-2 1.1-3.4-1.9a8 8 0 0 0-1.8-2.3" fill="#005a24"/></g></g><g id="g21145"><g id="g21147"><g id="g21149"><path id="path21151" d="M47.3 206.6s3.8-5.5 1.6-8.4c-2.2-2.8-6.1-4-6.1-4s-1.8-2.9-2-4.5a6 6 0 0 0-3.6-4.6c-1.9-.8-5.4-1-6.7-.2a9 9 0 0 0-3.4 3.1c-.7 1.3-.8 3-2.8 3.4s-5.2 1-5.5 3.7.8 5 1.1 5.6c.3.7.5 6 4.2 7.8s15.7 9.8 23.2-2" fill="#ccdde7"/><path id="path21153" d="M36.8 213.4c-4.7 0-9.1-2.4-11.8-3.8l-1.1-.7c-3.3-1.6-4-5.6-4.3-7.4l-.2-.6v-.2c-.4-1-1.3-3-1-5.6.3-3.2 3.9-3.8 5.8-4.2q1.6-.4 2-2l.5-1.2q1.1-1.9 3.6-3.3 1.4-.6 2.9-.5 2.4 0 4.2.7a7 7 0 0 1 3.9 5c.1 1.3 1.4 3.6 1.8 4.2.8.3 4.2 1.5 6.2 4.1 2.4 3.1-1.4 8.7-1.6 9q-4.1 6.5-10.9 6.5m-3.6-28.5q-1.7 0-2.5.4a8 8 0 0 0-3.1 3l-.5 1c-.4 1-1 2.3-2.7 2.6-2.3.4-4.8 1-5 3.3s.5 4.3.9 5.1v.2q.2.2.2.9c.3 1.5 1 5.3 3.8 6.7l1.2.6a25 25 0 0 0 11.3 3.7q6.2 0 10.1-6.1s3.5-5.3 1.6-7.8c-2-2.7-5.8-3.8-5.9-3.8l-.3-.2c0-.2-1.8-3-2-4.8a6 6 0 0 0-3.3-4.2q-1.6-.6-3.8-.6" fill="#808285"/></g><g id="g21155"><path id="path21157" d="M36.4 186s1.4 1 .6 1.8c-.8.7-1.5.4-2.1.8s-1.3 2-2 2c-.6-.1-2.4.2-2.8.9s-2.6 1-2.3 1.4c.4.5 2.5 3.7 1 4.8l-3.2 2.5c-.9.6-.8 2.9-2 1-1.1-2-.6-2-2.2-3.2s-.6-2.3.2-3c.7-.6.6-1.6 2-1.8s2.7-.6 3-1l2.1-3.6c.6-1.1 1.2-2.7 2.8-3a12 12 0 0 1 5 .3" fill="#ffffff"/></g><g id="g21159"><path id="path21161" d="M46.9 198.6s-2.6-.2-4 .7c-1.5 1-2.3 2.3-2.3 2.3s-.6 1.2-1 .8c-.3-.5.2-1.5-1-2.3s-.5-1.3-1.1-2-.3-1.8-.3-1.8 2.1-1.5 3-1.6c.7 0 5.5 2.3 6.7 3.9" fill="#ffffff"/></g></g><g id="g21163"><path id="path21165" d="M17.5 200.5s3.3 1.4 4.7 3.7c1.3 2.2 2.5 1.4 2.5 1.4s1.3-2.2 3.3-3.1c2-1 5.4-4.4 5.4-4.4s1.1 3.7 2.6 4.6q2.3 1.5 2.7 3.7l.4 2s1.1-2.6 3.3-3.1 8.5-2.8 8.5-2.8-3.3 3.3-4 5.8c-.8 2.6-1 5.3-3.3 6.8-2.4 1.4-4.9 3.2-4.7 6.3s.7 7.5-1.5 6.8c-2.1-.7-3-1-2.7-5s-1-4.1-4.6-5.1-8.8-2.3-10.5-8.3 1.6-3.1-2-9.3" fill="#00ab4e"/><path id="path21167" d="M37.9 229h-.7c-2.4-.8-3.6-1.4-3.3-5.8.3-3.2-.4-3.4-3.5-4.3l-1-.3c-3.5-1-8.8-2.4-10.5-8.6-.8-2.8-.5-3.8-.4-4.6.2-.8.3-1.3-1.6-4.5a.7.7 0 0 1 1-1.1s3.5 1.6 5 4c.6 1.1 1 1.2 1.2 1.2.4-.6 1.8-2.4 3.6-3.2 1.5-.7 4.2-3.3 5.1-4.2a.8.8 0 0 1 1.3.3c.4 1.3 1.4 3.6 2.3 4.2q2.6 1.6 3 4.2v.1q1-1.2 2.9-1.9c2.1-.5 8.2-2.7 8.3-2.7a.8.8 0 0 1 .8 1.2s-3.2 3.2-3.8 5.5l-.4 1.6c-.5 2-1 4.3-3.2 5.6-2.3 1.4-4.5 3-4.3 5.6v.6c.2 3.2.3 5.5-.6 6.6q-.6.5-1.2.5m-18.4-26.5c.8 1.7.7 2.3.5 3.2-.2.7-.3 1.5.3 4 1.5 5.3 6.2 6.6 9.6 7.5l.9.3c3.1.8 5 1.4 4.6 5.8-.3 3.4.2 3.5 2.2 4.2h.4c.6-.7.3-3.7.2-5.5v-.6c-.3-3.5 2.5-5.4 5-7 1.7-1 2-2.7 2.5-4.7l.4-1.6q.8-2 2.3-4c-2 .7-4.5 1.6-5.8 1.9-1.8.5-2.9 2.8-2.9 2.8q-.2.5-.7.4a1 1 0 0 1-.7-.6l-.3-2.1q-.3-1.8-2.4-3.2c-1.1-.7-2-2.6-2.5-3.9a23 23 0 0 1-4.8 3.8c-1.8.8-3 2.7-3 2.8l-.2.2q0 .2-1 .3-1.5 0-2.6-2a8 8 0 0 0-2-2" fill="#005a24"/></g></g><g id="g21169"><g id="g21171"><g id="g21173"><path id="path21175" d="M49.3 228s2-6.3-1-8.4c-2.9-2.1-7-2.1-7-2.1s-2.5-2.3-3.2-3.9a6 6 0 0 0-4.8-3.4c-2-.1-5.5.7-6.5 1.8a9 9 0 0 0-2.4 4c-.3 1.4.2 3.2-1.7 4-1.8 1-4.7 2.6-4.2 5.2.5 2.7 2.2 4.6 2.6 5.1.5.6 2.2 5.6 6.3 6.3s18 5 21.9-8.5" fill="#ccdde7"/><path id="path21177" d="M36 238.3a37 37 0 0 1-7.4-1l-1.3-.2c-3.6-.6-5.5-4.3-6.3-5.9l-.3-.5-.1-.2c-.7-.8-2.2-2.6-2.6-5.2-.6-3 2.7-4.8 4.5-5.7q1.3-.8 1.3-2.5l.1-1.2q.6-2.3 2.5-4.3c1.3-1.2 4.9-2 7-1.9a7 7 0 0 1 5.2 3.8c.4 1 2.1 2.8 2.9 3.5.9 0 4.5.2 7.2 2.2 3.1 2.3 1.1 8.8 1 9q-2.9 10-13.6 10.1m-3.3-27.6c-2 0-4.7.8-5.6 1.6a9 9 0 0 0-2.2 3.8l-.1 1.1c-.1 1.2-.3 2.5-1.9 3.3-2 1.1-4.3 2.5-4 4.6.5 2.3 1.9 4 2.4 4.7l.2.2.4.8c.7 1.4 2.4 4.8 5.6 5.3l1.3.3c1.8.4 4.5 1 7.3 1q10 0 12.7-9.5s1.9-6-.7-8c-2.8-2-6.8-2-6.8-2H41c-.1-.2-2.7-2.4-3.4-4-.5-1.4-2.5-3-4.3-3.2z" fill="#808285"/></g><g id="g21179"><path id="path21181" d="M32.8 211.3s1.7.7 1.1 1.6-1.3.8-1.8 1.4-.7 2.4-1.3 2.5c-.6 0-2.3 1-2.5 1.7-.2.8-2.3 1.7-1.8 2s3.4 3 2.4 4.3l-2.4 3.4c-.7.8 0 3-1.7 1.5s-1.2-1.7-3-2.4c-2-.7-1.3-2.1-.7-3 .5-.8 0-1.7 1.4-2.3s2.5-1.3 2.6-1.9l1-4c.3-1.3.4-3 1.8-3.7a13 13 0 0 1 5-1.1" fill="#ffffff"/></g><g id="g21183"><path id="path21185" d="M46.5 220.5s-2.5.5-3.6 1.8-1.6 3-1.6 3-.2 1.3-.7 1-.2-1.5-1.6-1.9-.9-1.1-1.7-1.6-.8-1.7-.8-1.7 1.6-2 2.4-2.4 6 .7 7.6 1.8" fill="#ffffff"/></g></g><g id="g21187"><path id="path21189" d="M18.8 230.8s3.5.4 5.5 2.2 2.8.6 2.8.6.7-2.4 2.3-3.9c1.7-1.5 4-5.8 4-5.8s2.2 3.2 3.8 3.7q2.6.7 3.7 2.8l1 1.9c0-.1.3-2.9 2.3-4s7.3-5.2 7.3-5.2-2.2 4.1-2.2 6.8.7 5.4-1.2 7.4c-1.8 2.1-3.8 4.6-2.7 7.5s2.8 7 .6 7c-2.3 0-3.3 0-4.1-4s-2.3-3.7-6-3.7c-3.6 0-9 .4-12.4-4.9s.6-3.5-4.7-8.4" fill="#00ab4e"/><path id="path21191" d="M46 252.6c-2.6 0-4-.3-4.9-4.6-.6-3-1.3-3.1-3.7-3.1h-3.2c-4 0-8.4-.6-11.4-5.3-1.5-2.5-1.6-3.6-1.7-4.4s0-1.3-2.8-3.9a.7.7 0 0 1 .6-1.3c.1 0 3.8.5 6 2.5 1 1 1.4.8 1.5.7.3-.6 1-2.7 2.5-4 1.3-1.2 3.2-4.5 3.8-5.6a.7.7 0 0 1 1.3-.1c.8 1.2 2.4 3.1 3.4 3.4a6 6 0 0 1 4.3 3.3q.5-1.6 2.1-2.6c2-1.1 7.2-5 7.3-5a.8.8 0 0 1 1 .9s-2 4-2 6.4v1.6c.2 2.2.3 4.5-1.4 6.3-1.8 2-3.5 4.2-2.6 6.8l.2.5c1.2 3.2 2 5.5 1.2 6.7q-.4.7-1.5.8m-8.6-9.2c3 0 4.4.6 5.2 4.3.7 3.3 1.2 3.3 3.3 3.4v.7-.7l.3-.1c.5-.7-.7-3.8-1.3-5.4l-.2-.5c-1.2-3.3.8-6 2.9-8.3 1.3-1.4 1.2-3.2 1-5.2v-1.7q.1-2.2 1-4.5l-5 3.5c-1.7 1-2 3.5-2 3.5a.8.8 0 0 1-1.4.2l-1-1.9q-.8-1.7-3.2-2.4c-1.3-.3-2.7-2-3.6-3a25 25 0 0 1-3.5 5 9 9 0 0 0-2 3.5l-.2.3s-.5.7-1.5.7q-1 0-2.4-1.2a8 8 0 0 0-2.6-1.4c1.2 1.3 1.4 2 1.4 3 0 .6.1 1.5 1.5 3.6 2.6 4 6.4 4.6 10.1 4.6z" fill="#005a24"/></g></g><g id="g21193"><g id="g21195"><g id="g21197"><path id="path21199" d="M58.6 253.8s2-7-1.3-9.2-7.8-2-7.8-2-2.8-2.3-3.6-4c-.8-1.6-3.2-3.4-5.4-3.5s-5.9 1-7 2.2a10 10 0 0 0-2.4 4.5c-.3 1.6.3 3.4-1.6 4.5-2 1-5 2.9-4.4 5.8s2.6 4.8 3 5.4c.6.6 2.7 6 7.2 6.6s19.7 4.6 23.3-10.3" fill="#ccdde7"/><path id="path21201" d="M43.7 265.5a43 43 0 0 1-8.5-1c-4-.4-6.1-4.4-7-6l-.4-.7-.2-.2c-.7-.8-2.4-2.7-3-5.4-.8-3.3 2.7-5.3 4.6-6.3 1.2-.7 1.2-1.6 1.3-2.8l.1-1.4q.7-2.5 2.5-4.7c1.3-1.4 5.2-2.5 7.4-2.4 2.5.1 5 2 5.8 3.8a16 16 0 0 0 3.4 3.7c1 0 4.9.1 7.9 2 3.5 2.4 1.6 9.5 1.5 9.8q-2.8 11.6-15.4 11.6m-3.5-29.9c-2.2 0-5.4 1-6.3 2a9 9 0 0 0-2.3 4.3l-.1 1.2c0 1.3-.1 2.7-1.8 3.6-1.6 1-4.7 2.7-4.1 5.3.5 2.4 2 4.2 2.8 5l.2.2.4.7c.9 1.6 2.9 5.2 6.3 5.7l1.5.2q2.8.6 7 .7 11.8 0 14.4-10.8s1.7-6.7-1.2-8.7a14 14 0 0 0-7.2-1.9h-.6c-.1-.2-3-2.5-3.8-4.3a7 7 0 0 0-5.2-3.2" fill="#808285"/></g><g id="g21203"><path id="path21205" d="M40 236.3s1.9.7 1.3 1.7-1.4 1-2 1.6c-.4.7-.6 2.6-1.2 2.7s-2.5 1.2-2.7 2c-.1.9-2.3 2-1.8 2.3.6.3 3.9 3 2.8 4.6l-2.5 3.8c-.7.9.2 3.2-1.7 1.6-2-1.5-1.4-1.7-3.5-2.4-2-.7-1.4-2.3-.8-3.2s0-1.9 1.4-2.6c1.4-.6 2.7-1.6 2.8-2.2l.9-4.4c.3-1.4.3-3.2 1.8-4s4.3-1.6 5.2-1.5" fill="#ffffff"/></g><g id="g21207"><path id="path21209" d="M55.3 245.7s-2.7.7-3.9 2.2S50 251 50 251s-.2 1.5-.7 1.2c-.6-.3-.3-1.6-1.8-2-1.6-.3-1-1.1-2-1.6-.8-.6-1-1.8-1-1.8s1.8-2.3 2.6-2.7 6.6.4 8.3 1.6" fill="#ffffff"/></g></g><g id="g21211"><path id="path21213" d="M25.6 258s4 .4 6.2 2.3 3 .5 3 .5.7-2.7 2.4-4.4c1.7-1.6 4-6.4 4-6.4s2.5 3.4 4.4 3.8a6 6 0 0 1 4 2.9l1.2 2s.2-3.1 2.3-4.5 7.8-5.9 7.8-5.9-2.3 4.6-2.1 7.5 1 5.8-1 8.1-4 5-2.6 8.2 3.4 7.6.9 7.6-3.6.1-4.6-4.1c-1-4.3-2.6-4-6.6-3.8s-10 .8-13.8-4.8.5-3.8-5.5-9" fill="#00ab4e"/><path id="path21215" d="M55.3 280.5c-2.3 0-3.5-.7-4.5-4.7-.8-3-1.6-3.3-3.5-3.3h-1.8l-1 .1-2.9.1c-3.2 0-7.8-.5-11.1-5.2-1.8-2.6-2-3.8-2-4.7-.1-.9-.2-1.5-3.3-4.1a.8.8 0 0 1 .5-1.4c.2 0 4.2.4 6.5 2.4q1.3 1 1.6.8h.3c.2-.7 1-3 2.5-4.6 1.7-1.5 3.9-6.2 3.9-6.2a1 1 0 0 1 1.3-.2c.9 1.3 2.8 3.3 4 3.6a7 7 0 0 1 4.7 3.5 6 6 0 0 1 2.2-3c2-1.3 7.6-5.8 7.7-5.8a.8.8 0 0 1 1.1.9s-2.1 4.4-2 7l.2 1.8c.2 2.4.4 4.8-1.3 6.9-2 2.3-3.7 4.7-2.5 7.5l.2.5c1.5 3.4 2.4 6 1.6 7.3q-.3.6-1.6.8zm-8-9.5c2.9 0 4 1 5 4.4.8 3.6 1.6 3.6 3 3.6h.7l.4-.1c.5-.8-.9-4.1-1.6-5.9l-.3-.6c-1.5-3.5.6-6.5 2.7-9 1.4-1.6 1.2-3.5 1-5.8l-.2-1.8c0-1.5.5-3.5 1-5l-5.5 4c-1.7 1.2-2 4-2 4a.8.8 0 0 1-1.4.3l-1.1-2q-1-2-3.6-2.5c-1.5-.4-3.1-2.1-4-3.2-.9 1.5-2.4 4.3-3.7 5.6a9 9 0 0 0-2.3 4.2c0 .1-.5.8-1.6.8q-1.1 0-2.5-1.1-1.5-1.2-3.2-1.6c1.6 1.6 1.7 2.3 1.9 3.3 0 .8.2 1.7 1.7 4 2.9 4 6.8 4.6 10 4.6l2.6-.1h1z" fill="#005a24"/></g></g><g id="g21217"><g id="g21219"><g id="g21221"><path id="path21223" d="M72.5 277s.1-7.6-3.9-9-8.6-.5-8.6-.5-3.6-1.7-4.8-3.2-4.2-2.8-6.5-2.5-5.9 2.3-6.7 3.7q-1.4 2.4-1.4 5c0 2.7 1.2 3.5-.5 5-1.8 1.5-4.5 4-3 6.8 1.4 2.8 4 4.4 4.6 4.9s4.3 5.5 9 5.1c4.9-.3 21.9.6 21.8-15.3" fill="#ccdde7"/><path id="path21225" d="M50.3 292.9c-4 0-7-3.4-8.4-4.8l-.5-.5-.2-.2c-1-.7-3.3-2.2-4.6-4.9-1.7-3.2 1.5-5.9 3.2-7.4 1-.9.8-1.8.6-3l-.3-1.5q0-2.7 1.4-5.3c1-1.7 4.7-3.6 7.1-4s5.5.9 7 2.6c1 1.3 3.8 2.8 4.5 3.1l3.8-.4q2.7 0 5 .8c4.2 1.7 4 9.3 4 9.6.2 14.9-14.3 15.5-20.5 15.8zm-.8-30.6h-.7c-2.3.4-5.7 2.2-6.4 3.5a9 9 0 0 0-1.3 4.7l.2 1.3c.3 1.3.6 2.8-.9 4.1-2 1.8-4.1 3.9-3 6.2 1.3 2.4 3.4 3.9 4.3 4.5l.3.2.7.6c1.2 1.4 4.3 4.7 8 4.4h1.7c6.4-.3 19.7-.9 19.6-14.8 0-.1 0-7.3-3.5-8.6a13 13 0 0 0-4.6-.8c-2.1 0-3.7.4-3.8.4h-.3a20 20 0 0 1-5-3.4 8 8 0 0 0-5.3-2.3" fill="#808285"/></g><g id="g21227"><path id="path21229" d="M48.5 263.2s2 .2 1.8 1.4c-.4 1.2-1.3 1.3-1.6 2s0 2.8-.7 3c-.6.4-2.2 1.8-2.2 2.7s-2 2.4-1.3 2.6 4.8 2.3 4 4.1q-.8 2.8-1.5 4.4c-.5 1 1 3.2-1.4 2s-1.9-1.4-4.2-1.7-2-2-1.7-3-.5-2 .8-3 2.3-2.2 2.3-2.8l-.2-4.7c-.1-1.4-.6-3.4.8-4.5 1.4-1 4-2.5 5-2.6" fill="#ffffff"/></g><g id="g21231"><path id="path21233" d="M66.9 269.4s-2.7 1.3-3.5 3c-.8 1.8-.7 3.6-.7 3.6s.2 1.6-.5 1.3c-.7-.2-.7-1.5-2.4-1.5s-1.4-1-2.4-1.4-1.5-1.6-1.5-1.6 1.1-2.6 1.9-3.2 7-1 9.1-.2" fill="#ffffff"/></g></g><g id="g21235"><path id="path21237" d="M39.3 287s4.2-.1 6.9 1.5 3.3 0 3.3 0 .2-2.8 1.7-4.8 3-7.2 3-7.2 3.3 3.2 5.3 3.4q3.1.3 4.9 2.3c1.8 2 1.5 2 1.5 2s-.3-3.3 1.7-5 7-7.1 7-7.1-1.5 5-.8 8 2.2 5.8.6 8.5c-1.6 2.6-3.2 5.7-1.2 8.8s5 7.3 2.4 7.7-3.7.6-5.7-3.6-3.5-3.8-7.6-3c-4.2.8-10.3 2.2-15.5-3s-.2-4-7.5-8.4" fill="#00ab4e"/><path id="path21239" d="M73.8 306c-2 0-3.1-1-4.6-4.2-1.1-2.6-2-3-3.3-3q-1.1 0-3 .4l-1 .2q-2.7.6-5.8.7a13 13 0 0 1-9.8-4c-2.4-2.5-2.8-3.7-3-4.6s-.5-1.5-4.4-3.8a.8.8 0 0 1 .4-1.4h.5c1.3 0 4.5.1 6.8 1.5 1.6 1 2 .6 2.2.5 0-.7.4-3.2 1.8-5s2.8-7 2.8-7a.8.8 0 0 1 1.3-.3c.8.8 3.4 3 4.9 3.1a8 8 0 0 1 5.7 3 6 6 0 0 1 1.8-3.5c1.9-1.6 6.9-7 7-7a.7.7 0 0 1 1.2.7s-1.4 4.8-.8 7.6l.5 1.8c.7 2.3 1.5 4.8 0 7.2-1.6 2.6-3 5.4-1.2 8.1l.4.5c2.2 3.3 3.7 5.8 3 7.3q-.2.7-1.5 1-1 .3-2 .3m-8-8.8c2.2 0 3.5 1.1 4.8 4 1.4 3.1 2.3 3.4 3.2 3.4l1.6-.2q.4 0 .4-.2c.4-.9-1.7-4.1-2.9-5.8l-.3-.6c-2.3-3.4-.6-6.7 1.1-9.6 1.1-1.9.6-3.8-.1-6.1l-.5-1.9a15 15 0 0 1 .1-5.6l-5.1 5.2c-1.7 1.4-1.4 4.3-1.4 4.3q0 .5-.5.8t-.9-.2l-1.5-2a6 6 0 0 0-4.4-2c-1.6-.2-3.7-1.8-4.9-2.8a25 25 0 0 1-2.7 6.3 9 9 0 0 0-1.5 4.4l-.1.3q-.3.8-1.9 1a5 5 0 0 1-2.5-.8q-1.7-1-3.7-1.2c2 1.4 2.3 2.2 2.6 3.2.2.8.5 1.7 2.6 3.9q3.6 3.6 8.8 3.6 3-.1 5.5-.7l1-.2q2-.5 3.3-.5" fill="#005a24"/></g></g><g id="g21241"><g id="g21243"><path id="path21245" d="M92.1 297s-1.5-7.8-6-8.5-9 1.4-9 1.4-4-1-5.7-2.3-4.9-2-7.2-1.2c-2.3 1-5.6 3.6-6.2 5.3q-.8 2.8-.3 5.5c.5 1.8 2 3.3.5 5.3s-3.8 5.1-1.7 7.7 5 3.7 5.9 4c.8.4 5.6 4.8 10.5 3.4s22.7-4.1 19.2-20.6" fill="#ccdde7"/><path id="path21247" d="M71 318.4c-3.5 0-6.7-2.2-8.2-3.3l-.6-.4-.3-.1c-1.1-.5-3.8-1.7-5.8-4.1-2.4-3 .3-6.4 1.7-8.3 1-1.2.5-2.2 0-3.4l-.6-1.5q-.6-2.7.3-5.7c.7-2 4.1-4.7 6.5-5.6a9 9 0 0 1 7.8 1.2c1.3 1 4.6 2 5.3 2.2a19 19 0 0 1 9.2-1.4c4.7.7 6.2 8.6 6.3 9 3.3 15.4-11.6 19-18 20.7l-1.5.4zm-4.5-31.8q-1.2 0-2.1.3c-2.4.9-5.4 3.5-6 5a10 10 0 0 0-.2 5.2l.5 1.3c.6 1.3 1.2 2.7 0 4.4-1.8 2.3-3.6 5-1.8 7 1.8 2.3 4.3 3.4 5.4 3.8l.3.2q.3 0 .8.5c1.4 1 4.4 3.1 7.6 3.1q.9 0 1.8-.3l1.6-.4c6.6-1.6 20.3-5 17.2-19.6 0 0-1.4-7.5-5.5-8.1l-1.8-.2c-3.6 0-6.9 1.6-7 1.6h-.2a21 21 0 0 1-6-2.4c-1-.9-2.9-1.4-4.6-1.4" fill="#808285"/></g><g id="g21249"><path id="path21251" d="M64.3 287.9s2.2-.2 2.1 1.1-1 1.5-1.2 2.5.6 2.8 0 3.2-2 2.2-1.8 3.2c.3 1-1.5 3-.7 3s5.4 1.3 5 3.4l-.6 4.9c-.3 1.2 1.7 3-1 2.4-2.7-.8-2.3-1.2-4.8-1-2.5.3-2.5-1.6-2.4-2.7s-1-2 .2-3.2c1-1.3 2-2.8 1.8-3.5l-1.3-4.8c-.3-1.4-1.2-3.3 0-4.8 1.1-1.4 3.6-3.5 4.7-3.7" fill="#ffffff"/></g><g id="g21253"><path id="path21255" d="M84.7 290.4s-2.5 2-3 4c-.5 1.9 0 3.8 0 3.8s.6 1.5-.2 1.4c-.7 0-1-1.4-2.8-1-1.8.2-1.6-.8-2.8-1-1.2 0-2-1.3-2-1.3s.7-3 1.4-3.8 7-2.5 9.4-2" fill="#ffffff"/></g></g><g id="g21257"><path id="path21259" d="M70 312.9s-3.8 1.2-7 1.8l-5 .9s2.7 2 5 2.2 5 1.3 6 2 2.5 3.4 8.2 4.2 11 .3 11 .3 4.2.7 11.7 8.3c7.3 7.5 8.9 10.6 10.4 15 1.2 3.6 2.5 4.4 5.6 5 1.8.4 3.8-3.2.9-7.4-5.2-7.3-17.7-20.2-19.6-22.1s-3-5.5-1.4-7.4 5-5.6 3.3-10.3-4.7-7.6-5.8-9.2-1.4-3.7-1.4-3.7-4.8 4.5-5 9l-.7 8.9-3-2.2-2.1 5s-1.3-4.7-2.7-6.2l-4.7-5s-2.5 3-2.7 5.3-1 5.6-1 5.6" fill="#00ab4e"/><path id="path21261" d="M116.2 353.4h-.4c-3.3-.7-5-1.6-6.2-5.6-1.5-4.5-3.3-7.5-10.3-14.7-6.6-6.7-10.6-8-11.2-8a53 53 0 0 1-11-.4c-4.8-.6-6.9-2.6-8-3.7l-.6-.6c-1-.7-3.6-1.8-5.6-1.9a12 12 0 0 1-5.3-2.4.8.8 0 0 1 .3-1.3l4.9-.9c2.6-.4 5.5-1.3 6.6-1.6.2-1 .8-3.3.9-5 .2-2.6 2.7-5.7 2.8-5.8l.6-.3q.3 0 .5.3c.2.1 3.5 3.5 4.8 5 .8 1 1.7 3 2.2 4.6l1.4-3.2a1 1 0 0 1 1.1-.3l1.9 1.4.5-7.5c.3-4.8 5-9.3 5.2-9.5q.3-.3.8-.2.3 0 .5.6s.4 2 1.4 3.4l1 1.5a28 28 0 0 1 4.8 7.8c1.8 5-1.4 8.8-3.2 10.8l-.2.3c-1.3 1.5-.4 4.7 1.3 6.3a253 253 0 0 1 19.7 22.3c2 2.8 1.9 5.4 1.1 7q-.9 1.6-2.3 1.6m-28-29.9c.3 0 4.7.8 12.2 8.6 7.2 7.3 9 10.5 10.6 15.2 1 3.3 2.2 4 5 4.6q.7 0 1.2-.8c.6-1.2.6-3.2-1-5.4-5-7.1-17.3-19.9-19.6-22-2.1-2.3-3.2-6.2-1.3-8.5l.2-.2c1.6-2 4.4-5.3 2.9-9.4a27 27 0 0 0-4.5-7.4q-.8-.9-1.2-1.6-.9-1.4-1.2-2.6c-1.3 1.5-3.7 4.5-4 7.6l-.5 8.8a.7.7 0 0 1-1.2.6l-2.2-1.7-1.8 4.2q-.3.5-.8.4l-.6-.5c-.4-1.3-1.5-4.8-2.5-6l-4.1-4.3c-.8 1-2 2.9-2 4.2a35 35 0 0 1-1 5.8q-.1.3-.6.5c-.1 0-3.9 1.2-7.1 1.8l-3 .6c.8.4 1.9 1 2.9 1 2.4.2 5.3 1.4 6.4 2.2l.8.7c1 1 2.7 2.8 7.1 3.3q3.3.4 7 .4z" fill="#005a24"/></g></g></g></g><g id="g21263"><g id="g21265"><g id="g21267"><path id="path21269" d="M303 343c-8-3.6-14-3.6-14-3.6s4.6-10.3 23-24.2c0 0-30.9 5.6-41.7 14.9a40 40 0 0 0-4 4l-7-6.8s-22.2 21.4-46 28.6c-23.6 7-45.6 7.4-45.6 7.4h-1s-22-.3-45.7-7.4-46-28.6-46-28.6l-6.9 6.9a40 40 0 0 0-4-4.1c-10.8-9.3-41.8-15-41.8-15 18.4 14 23.2 24.3 23.2 24.3s-6 0-14.1 3.6l-20.6 9.2s15 1 28.4 5.2a61 61 0 0 1 24.6 18l6.6-7.6a157 157 0 0 0 40.8 21.2c31.7 10 55.6 9.7 55.6 9.7h.8s23.8.3 55.6-9.7a157 157 0 0 0 40.8-21.2l6.6 7.6s11.3-14 24.6-18c13.3-4.2 28.4-5.2 28.4-5.2z" fill="#ccdde7"/><path id="path21271" d="M168 400.2h-1.6c-2.5 0-25.7-.3-55.6-9.8q-18.8-5.9-40.2-20.6l-5.7 6.5q-.5.6-1.1.6t-1.2-.6a61 61 0 0 0-23.9-17.5c-13-4-27.9-5-28-5a1.5 1.5 0 0 1-.5-3l20.6-9.2c5.2-2.4 9.6-3.2 12.2-3.6a88 88 0 0 0-21.6-21.6 1.5 1.5 0 0 1 1.2-2.7C24 314 54 319.5 65 329l3.2 3 5.7-5.7q1-.9 2.1 0c.2.1 22.3 21.2 45.4 28.1 23.2 7 45 7.4 45.2 7.4h1.1c.2 0 22-.4 45.3-7.4 23-7 45.1-28 45.4-28.2.5-.5 1.5-.5 2 0l5.8 5.8q1.5-1.7 3.1-3c11-9.5 41.2-15 42.5-15.3a1.5 1.5 0 0 1 1.1 2.7 88 88 0 0 0-21.5 21.7c2.6.3 7 1.1 12.2 3.5l20.6 9.2a1.5 1.5 0 0 1-.5 3c-.2 0-15 1-28 5a61 61 0 0 0-24 17.5q-.5.5-1.1.6t-1.2-.6l-5.7-6.5a154 154 0 0 1-40.1 20.6 197 197 0 0 1-55.7 9.7m-.4-3h.3c2.5 0 25.3-.3 54.8-9.6q18.8-6 40.4-21 1.1-.6 2 .2l5.5 6.3a60 60 0 0 1 24.1-17.2c8.5-2.6 17.5-4 23.1-4.6l-15.4-7a37 37 0 0 0-13.5-3.4 1.5 1.5 0 0 1-1.4-2.2c.2-.4 4.2-8.8 18.6-20.7-9.5 2.1-27.3 6.8-34.8 13.2a39 39 0 0 0-4 4 1.5 1.5 0 0 1-2.1 0l-5.8-5.8a134 134 0 0 1-45.6 27.9 192 192 0 0 1-46 7.5h-1.2c-.2 0-22.4-.4-46-7.5A134 134 0 0 1 75 329.4l-5.8 5.8q-.5.5-1.1.4t-1.1-.5a38 38 0 0 0-4-3.9c-7.4-6.4-25.2-11-34.7-13.2a69 69 0 0 1 18.5 20.7 1.5 1.5 0 0 1-1.3 2.2c-.1 0-5.9 0-13.5 3.4l-15.5 7c5.7.6 14.7 2 23.1 4.6a61 61 0 0 1 24.2 17.2l5.5-6.3q.8-.8 2-.2 21.4 15 40.4 21c29.5 9.3 52.2 9.5 54.7 9.5z" fill="#808285"/></g><g id="g21273"><g id="g21275"><path id="path21277" d="M22.3 315.2s31 5.6 41.8 14.9 16.5 26 16.5 26l-16.8 19.3s-11.3-14-24.6-18a140 140 0 0 0-28.4-5.2l20.6-9.2c8-3.6 14-3.6 14-3.6s-4.7-10.3-23-24.2" fill="#ccdde7"/><path id="path21279" d="m63.8 375.9-.4-.2A62 62 0 0 0 39 357.8c-13-4-28.1-5-28.2-5a.5.5 0 0 1-.2-1l20.6-9.3a41 41 0 0 1 13.5-3.6A82 82 0 0 0 22 315.6l-.1-.6q.1-.3.5-.3c1.3.2 31.2 5.8 42 15S81 355.7 81 356v.5l-17 19.3zm-51-24c4.4.4 16 1.8 26.5 5a62 62 0 0 1 24.5 17.7L80.1 356a68 68 0 0 0-16.4-25.5c-9-7.7-32.2-13-39.4-14.4 17 13.1 21.4 22.6 21.6 23a.5.5 0 0 1-.4.8c-.1 0-6 0-14 3.5z" fill="#808285"/></g><g id="g21281"><path id="path21283" d="M50.2 352s5.2 6.4 8.2 11.4 5.4 12 5.4 12L80.6 356s-1.6-10.3-3-16.6C76 333 75 327.3 75 327.3z" fill="#8c99a1"/><path id="path21285" d="m63.8 375.9-.5-.4s-2.4-6.9-5.3-11.8c-3-5-8.1-11.4-8.2-11.5v-.6L74.7 327l.5-.2.4.4s1 5.7 2.5 12.2c1.4 6.3 3.1 16.5 3.1 16.6v.4l-17 19.3zm-12.9-24c1.1 1.5 5.4 6.9 8 11.3a76 76 0 0 1 5 11.2l16.2-18.5c-.2-1.5-1.8-10.6-3-16.3-1.2-5-2-9.4-2.4-11.3z" fill="#808285"/></g><g id="g21287"><path id="path21289" d="M31.3 318.7s14.6 2.8 22.2 7.2 10.2 7.2 10.2 7.2l-19.1 18.6s-10.1-4-18.8-3.5c0 0 5.7-3.5 12.4-5.6s10.7-2.4 10.7-2.4-1.2-9.3-17.6-21.5" fill="#ffffff"/></g><g id="g21291"><path id="path21293" d="M312 315.2s-30.9 5.6-41.7 14.9-16.6 26-16.6 26l16.9 19.3s11.3-14 24.6-18c13.3-4.2 28.4-5.2 28.4-5.2L303 343c-8-3.6-14-3.6-14-3.6s4.6-10.3 23-24.2" fill="#ccdde7"/><path id="path21295" d="m270.6 375.9-.4-.2-16.9-19.3v-.5c0-.2 5.9-17 16.7-26.2s40.7-14.8 42-15q.3 0 .5.3l-.2.6a82 82 0 0 0-22.6 23.3c2 .1 7 .7 13.5 3.6l20.6 9.3a.5.5 0 0 1-.2 1c-.1 0-15.2 1-28.3 5a62 62 0 0 0-24.7 18m-16.3-20 16.3 18.7a62 62 0 0 1 24.4-17.7c10.5-3.2 22.1-4.6 26.6-5l-18.8-8.5a38 38 0 0 0-13.9-3.5q-.3 0-.4-.3v-.5c.1-.4 4.6-9.9 21.5-23-7.1 1.5-30.4 6.7-39.4 14.4a69 69 0 0 0-16.3 25.5" fill="#808285"/></g><g id="g21297"><path id="path21299" d="M284.1 352s-5.1 6.4-8.1 11.4-5.4 12-5.4 12L253.7 356s1.7-10.3 3.2-16.6c1.5-6.5 2.5-12.2 2.5-12.2z" fill="#8c99a1"/><path id="path21301" d="m270.6 375.9-.4-.2-16.9-19.3v-.4a317 317 0 0 1 5.6-28.8q0-.3.3-.4.3 0 .5.2l24.8 24.6q.3.3 0 .6c0 .1-5.2 6.5-8 11.5a81 81 0 0 0-5.8 12.2zm-16.3-20 16 18.5a96 96 0 0 1 5.2-11.2c2.6-4.4 6.8-9.8 8-11.2l-23.8-23.7-2.4 11.3c-1.3 5.7-2.8 14.8-3 16.3" fill="#808285"/></g><g id="g21303"><path id="path21305" d="M167.6 398.7s23.8.3 55.6-9.7c31.7-10 61-37 61-37l-24.8-24.7s-22.3 21.4-46 28.6c-23.7 7-45.7 7.4-45.7 7.4h-1s-22-.3-45.7-7.4-46-28.6-46-28.6L50.2 352s29.3 27.1 61 37.1 55.6 9.6 55.6 9.6z" fill="#ccdde7"/><path id="path21307" d="M168 399.2h-1.6a199 199 0 0 1-55.3-9.7c-31.5-10-61-37-61.2-37.2v-.7L74.6 327q.4-.3.7 0c.2.2 22.5 21.4 45.8 28.4 23.4 7 45.3 7.4 45.5 7.4h1.1c.3 0 22.2-.4 45.5-7.4s45.6-28.2 45.8-28.4q.4-.3.7 0l24.8 24.6v.7c-.3.3-29.7 27.3-61.2 37.2a199 199 0 0 1-55.4 9.6m-.4-1h.3c2.5 0 25.4-.3 55.1-9.7 29.3-9.2 56.8-33.4 60.4-36.6l-24-23.9c-3 2.8-24 21.7-45.9 28.3a188 188 0 0 1-45.7 7.5h-1.2c-.2 0-22.3-.4-45.8-7.5C99 349.7 78 330.8 75 328l-24 24c3.5 3.1 31 27.3 60.4 36.5 29.6 9.4 52.5 9.7 55 9.7z" fill="#808285"/></g><g id="g21309"><path id="path21311" d="M303 318.7s-14.6 2.8-22.1 7.2-10.2 7.2-10.2 7.2l19 18.6s10.2-4 18.8-3.5c0 0-5.6-3.5-12.3-5.6s-10.7-2.4-10.7-2.4 1.2-9.3 17.6-21.5" fill="#ffffff"/></g><g id="g21313"><path id="path21315" d="M167.6 366.3s30-2 49.3-9.4a112 112 0 0 0 42.7-27.2l17.2 18.1s-17.7 20.6-52 33C193 392 167.3 392 167.3 392h-.2s-25.8 0-57.5-11.4c-34.4-12.3-52-32.9-52-32.9l17.2-18s13.6 16 42.6 27.1c19.3 7.5 49.4 9.4 49.4 9.4z" fill="#ffffff"/></g></g></g><g id="g21317"><g id="g21319"><path id="path21321" d="m81.7 349.7 1.8-2.5 2.3 1.6-9.1 12.8-2.4-1.6 1.5-5.9 2-6.2-.2.2-.8 1.2-3 4.8-.8 1.3-1.8 2.4L69 356l9-12.8 2.4 1.7-1.5 6q-.7 2.7-2 6.2l2.4-3.8z"/></g><g id="g21323"><path id="path21325" d="m87.9 362.7 5.5-9.2 2.4 1.4-5.6 9.4q-1.5 2.4-2.9 2.8-1.5.6-3.8-.8-2.3-1.5-2.6-3t1.1-3.9l5.7-9.4 2.4 1.5-5.6 9.2q-1 1.5-.8 2.3t1 1.3q1 .6 1.9 0 .6-.4 1.3-1.6"/></g><g id="g21327"><path id="path21329" d="m103 364-2.3-1.2v-.2q.8-1.5.6-2-.1-.7-.8-1t-1.2-.3q-.4.2-.9.9a2 2 0 0 0-.2 1.4q0 .4.6 1.3l1 1.9 1 2q.2 1 .1 1.7 0 .8-.5 1.8-1 1.9-2.7 2.4-1.6.5-3.5-.5-2.1-1-2.6-2.7-.3-1.5.7-3.6l.5-1 2.5 1.2-.5 1.1q-.6 1-.5 1.8.1.6 1 1.1 1.5.7 2.3-.8l.3-1.2-.3-1.2-1-2q-1.2-2-1.3-3.3t.4-2.4q2-3.7 5.8-1.8 2 1 2.5 2.6.4 1.5-1 4"/></g><g id="g21331"><path id="path21333" d="m102.8 376-2.7-1.2 9.4-13.1 3.5 1.4-3 15.8-2.8-1.1.9-4-3-1.3zm6-9.2-2.4 3.8 2.2 1 1-4.5.6-2.1.3-1-.5.9-.6 1z"/></g><g id="g21335"><path id="path21337" d="m120 368.3.6-2.2 9 2.8-.7 2.2-3.1-1-4 12.8-2.7-.8 4-12.8z"/></g><g id="g21339"><path id="path21341" d="m134.6 386.3-7.6-1.9 3.7-15.3 7.6 1.9-.5 2.2-5-1.2-.9 3.9 4.6 1.1-.6 2.2-4.5-1-1.1 4.6 4.9 1.2z"/></g><g id="g21343"><path id="path21345" d="m146 375.5.6-3 2.7.4-2.5 15.5-2.9-.5-1.2-5.8q-.6-2.7-1-6.5v.2l-.2 1.5-.6 5.6-.2 1.5-.5 3-2.7-.5 2.5-15.5 2.8.4 1.3 6q.6 2.8 1 6.5l.4-4.4z"/></g><g id="g21347"><path id="path21349" d="m150.5 382 .2-2.3q.3-3.6 1.2-5 1.2-1.8 4.2-1.6 2 .1 3 1t1.4 2.8v1.9l-2.7-.2q0-1.5-.2-2.1-.3-1-1.6-1t-1.9 1q-.3.7-.4 2.2l-.4 5v2.1q.5 1.3 1.7 1.4 1 0 1.7-1 .5-.8.7-2.6v-.4l-2-.1.2-2.3 4.7.3-.7 8.5-2-.2v-1.8q-.4 1.1-1.2 1.6t-1.6.4q-2.1-.2-3.2-1.2-1-.9-1.1-2.7z"/></g><g id="g21351"><path id="path21353" d="M162.8 382.8v-2.2q0-3.6.6-5 1-2 4.2-2 1.8 0 3 .6 1.2.8 1.7 2.7v.7l.1 1.2h-2.7a5 5 0 0 0-.4-2q-.4-.9-1.7-.9t-1.7 1.2q-.3.8-.3 2.2v5q0 1.5.4 2.2.5 1.2 1.7 1.2t1.6-1.1q.4-1 .4-2.8v-.3h-1.9v-2.3h4.6l.1 8.4h-2l-.1-1.8q-.4 1.2-1.2 1.7-.6.5-1.4.5-2.2 0-3.3-.9a4 4 0 0 1-1.4-2.5q-.3-1.3-.3-3.8"/></g><g id="g21355"><path id="path21357" d="m177.9 389.3-3 .3 2.2-16 3.8-.3 4.7 15.4-3 .2-1-3.9-3.3.3zm1-10.9-.4 4.5 2.4-.2-1.1-4.3-.5-2.2-.2-1v1z"/></g><g id="g21359"><path id="path21361" d="m190 381.1-.6.1 1.2 6.7-2.8.5-2.6-15.6 5.3-.8a5 5 0 0 1 3 .3q1.4.8 1.8 2.7v2.5q-.5 1.2-1.7 1.6 1.2 0 1.8.7t.8 1.8l.1.7.6 2.8q.3 1.1.7 1.4v.2l-3 .5-.5-1.7-.3-1.5-.1-.6-.4-1.5q-.3-.9-.9-1h-1l-1 .2zm-1.6-6.4.7 4.2 2.1-.3q.8 0 1.1-.8.4-.6.2-1.7t-.8-1.6q-.4-.3-1.3-.2z"/></g><g id="g21363"><path id="path21365" d="m202.3 385.7-3 .7-.2-16.1 3.7-1 7 14.5-2.9.7-1.7-3.7-3.1.8zm-.6-11 .2 4.6 2.4-.6-1.8-4.2-.8-2-.4-1 .1 1z"/></g><g id="g21367"><path id="path21369" d="m221.5 380-4.6 1.6-5.3-14.8 4.2-1.5q1-.4 1.7-.4 1-.1 1.7.4l1 1a7 7 0 0 1 1 3.3q0 1-1 1.8 1.2-.2 2 .5.8.8 1.4 2.3l.4 1.9q.1 1.5-.5 2.4t-2 1.5m-5.1-8.2.7-.2 1-.5q.3-.2.4-.6v-.7l-.3-1q-.3-.9-.7-1.2t-1.3 0l-1.2.5zm2.3 6.7 1.2-.4.5-.2q.3 0 .4-.3.4-.5.4-1.1l-.3-1.3q-.4-1.2-1-1.6-.6-.3-1.8 0l-1 .4z"/></g><g id="g21371"><path id="path21373" d="M229.6 376.8 227 378l-3-15.8 3.4-1.6 9.4 13-2.7 1.3-2.3-3.4-3 1.3zm-2.5-10.7 1 4.5 2.3-1-2.5-3.8-1.2-1.9-.5-.9.3 1z"/></g><g id="g21375"><path id="path21377" d="m238.4 365.2-.5.2 3.2 6-2.5 1.3-7.3-13.9 4.7-2.4a5 5 0 0 1 3-.8q1.5.3 2.5 2.1.7 1.4.7 2.4 0 1.2-1 2 1.2-.3 2 .1t1.3 1.5l.3.6 1.4 2.5q.7 1 1.1 1l.2.3-2.7 1.4q-.6-.4-1.1-1.5l-.7-1.3-.4-.6-.8-1.3q-.6-.6-1.1-.5-.7 0-1 .3l-1 .4zm-3.6-5.6 2 3.8 2-1q.6-.4.8-1 .1-.7-.4-1.8-.6-1-1.2-1.3-.6 0-1.3.3z"/></g><g id="g21379"><path id="path21381" d="m251.5 365.7-2.5 1.5-5.3-15.2 3.2-2 11.2 11.6-2.6 1.5-2.7-3-2.8 1.8zm-4-10.3 1.7 4.3 2-1.3-3-3.4-1.4-1.7-.6-.8.4 1 .5 1z"/></g><g id="g21383"><path id="path21385" d="m251.2 350-1.4-1.9 7.5-5.4 1.4 1.9-2.6 1.9 7.8 10.8-2.2 1.7-7.9-10.9z"/></g></g></g></g><!-- app4joy --></svg>