<svg id="svg2" width="1500" height="1050" viewBox="0 0 1500 1050" xmlns="http://www.w3.org/2000/svg"><defs id="defs3"><linearGradient id="SVGID_1_" x1="5.5913" x2="329.18" y1="227.77" y2="227.77" gradientUnits="userSpaceOnUse"><stop id="stop9137" stop-color="#448D46" offset="0"/><stop id="stop9139" stop-color="#70BA70" offset=".3515"/><stop id="stop9141" stop-color="#70BA70" offset=".6727"/><stop id="stop9143" stop-color="#448D46" offset="1"/></linearGradient><linearGradient id="SVGID_2_" x1="122" x2="212.77" y1="228.85" y2="228.85" gradientUnits="userSpaceOnUse"><stop id="stop9164" stop-color="#A38876" offset="0"/><stop id="stop9166" stop-color="#EAD8CF" offset=".2061"/><stop id="stop9168" stop-color="#FFFFFF" offset=".497"/><stop id="stop9170" stop-color="#EAD8CF" offset=".7636"/><stop id="stop9172" stop-color="#A38876" offset="1"/></linearGradient></defs><g id="g1" transform="scale(1 1.05)" fill="#217844"><path id="rect3635" fill="#217844" d="M0 0h1500v1000H0z"/></g><g id="g2" transform="matrix(1.5151 0 0 1.4132 496.9 210.6)"><path id="path9145" d="M167.4 449.3c17.8-15.6 65.4-20.6 100.2-41.5s61.6-65.1 61.6-85.8V71.4c-25-2.5-70.5-40.7-85.8-65.2a265 265 0 0 1-74.9 9h-2.3a265 265 0 0 1-74.8-9C76 30.7 30.7 69 5.6 71.4V322c0 20.7 26.7 65 61.5 85.8s82.4 26 100.2 41.5z" fill="url(#SVGID_1_)"/><path id="path9147" d="M167.4 449.3c17.8-15.6 65.4-20.6 100.2-41.5s61.6-65.1 61.6-85.8V71.4c-25-2.5-70.5-40.7-85.8-65.2a265 265 0 0 1-74.9 9h-2.3a265 265 0 0 1-74.8-9C76 30.7 30.7 69 5.6 71.4V322c0 20.7 26.7 65 61.5 85.8s82.4 26 100.2 41.5z" fill="none" stroke="#000000" stroke-width="5"/><g id="g9149"><path id="rect9151" fill="#bacad3" stroke="#000000" stroke-linecap="round" stroke-linejoin="round" d="M211.7 221.3h66.9v7.6h-66.9z"/><path id="rect9153" fill="#ffffff" d="M212 223h66.4v1.5H212z"/></g><g id="g9155"><path id="rect9157" fill="#bacad3" stroke="#000000" stroke-linecap="round" stroke-linejoin="round" d="M61.2 221.3H122v7.6H61.2z"/><path id="rect9159" fill="#ffffff" d="M61.5 223h60.3v1.5H61.5z"/></g><g id="g9161"><path id="polygon9174" fill="url(#SVGID_2_)" stroke="#000000" stroke-linecap="round" stroke-linejoin="round" d="M167.4 328.6 122 295.4V162.3l45.4-33.2 45.4 33.2v133.1z"/><path id="path9176" d="M126 293.1V164.4l41.8-32.2 42.3 30.7v55.2s-2.3-2.8-2.3-7.6v-43.4l-40-29.2-39.6 31.3v120c0 2.4-2.2 4-2.2 4" fill="#ffffff"/><g id="g9178"><path id="path9180" d="M207.8 227.5v62l-39.6 31.3-32.1-23.5q-1.6-.8-4.4-1.7a10 10 0 0 0-5.6.3l42.1 30.6 41.9-32.3v-70.7s-2.3 1.6-2.3 4" fill="#a38876"/></g></g><path id="rect9182" fill="#bfa218" stroke="#7d4e00" stroke-linecap="round" stroke-linejoin="round" stroke-width="1.5" d="M151.3 113.4h32.2v7.5h-32.2z"/><path id="path9184" d="M167 115.4s-16.7.4-26-6c-10-7-13.1-11.5-12-21.4s2.3-9.3 1-12.7-2.6-5.7-.6-8.7 2.7-3.8.7-6.9-2-4.9-1-6.6-.9-3.6.6-6.3 2.1-2.7 2.1-2.7-1.7 4.4-.3 6.8 2 4.6 1.6 5.7-.4 1.2 1.3 3 1.7 5.2 1.5 7.1-1 2 .4 3.6 3.7 4.8 3.5 6 3-2.7 1.1-6.7-3.6-4.9-2.6-8.7 3.7-3.8 1.6-7.5-3.6-5.2-1.4-8.6l3.7-5.8s-.3 4.7-.7 5.8-.3 2.2 1.6 4.6 3.4 5.6 2 8.2-1.1 4.2 1.8 7.1 2.6 3.9 2.6 3.9 3.7-2 2.8-6.3-3.7-7.1-3.6-9.8 4.2-4.8 3.2-8-2-5.2-.8-6.8 2-3.4 2.1-4.7c0 0 1.7 2.5 1.5 4.3s-.7 4.3 1.7 7 1.3 6 1.1 7.7 2.4 3.9 2.2 9-.7 6-.7 6 3-.6 3.3-7.4-.4-6.4 1.2-10 3-4.9 1.5-9-2-4.7-.2-7.4 2.5-8 2.5-8 2.3 3.5 1.7 5.5-2.2 4 .2 7.2 3.3 7.4 3.1 10.7-1.4 5.6.7 8.2 3.4 4.5 3.3 7-.6 4.8-.6 4.8 4.3-6.5 4.1-11.2-2.6-5.6-1.8-10.4 3.6-4.8 3.8-8.1-.4-6.7-.4-6.7 3.8 4.5 3.7 8.8-1.9 6.8-.3 10.8 3.5 6 3 10.4-2.6 9-2.6 9l5.8-7.5c2.2-2.8 1.7-4.8.7-7.7s-2.3-5 .2-8 2.2-7 2.2-7 2.5 4.3 1.6 6.9-2 5.3-.7 7.4 3.2 5.3 2.1 8.8-2.5 4.7-2.3 7 .6 3.3.6 3.3l3.7-4.8c1.6-2 2-3.5 1.7-6.1s-.8-4.3 1-6.7 2.2-3 2.2-5.2-1.2-5.3-1.2-5.3 4 4.2 3.6 7.5-2.3 6-1.3 9.3 1.3 6.5 1 9.5-2.3 5.4-.8 10.7c.9 3-.7 14.8-7.1 21s-10 11.1-31.1 11.1" fill="#ed1c24" stroke="#981b1e" stroke-linecap="round" stroke-linejoin="round" stroke-width="1.5"/><g id="g9186" fill="#f7966b"><path id="path9188" d="M171.5 105.5s-1.9-1.3-.4-4.9 1.6-7.6 1.4-7.8 1 2.3 1.7 4.9.2 5.6.2 5.6.3-3.3 2.2-5.8 3.4-7.3 3.4-7.3.5 4-.3 6.8-2.2 5.8-2.2 5.8 5.1-6 7.3-9.8 4.4-4.8 4.4-9.2l.1-4.7s2.1 8.8-.6 14-4 5.7-4.5 7.7l-1.1 4.7s3.5-5.4 6.1-8 4.1-5.5 4.4-7.4.3-6 .3-6 3 6.6 2.8 9.6-1.9 7.1-1.9 7.1 5.5-6.8 6.6-10.5-1.4-5.8-.7-9.4 2-5.3 2.5-9 0-5.1 0-7.8l.2-5.4s-1.6 1-1.6 6.5-1.6 7.9-3.8 9.1-3.3.6-2.2 3.8 2.5 4.8 2.5 8.4-.3 5.3-.3 5.3-3.1-7.2-3.7-9.4-2.6-4.7-2.5-7.3-.7-6.3 1.6-8.8 3.2-3.8 1.6-6.9-2.7-4.8-2.5-7 1.6-5.1 1.6-5.1-2.6 2.6-2.4 5.9 3 7.7.3 11.5-6.8 6.3-8 9-5.4 8.7-5.4 8.7-1.3-2.5.1-5.4 1.7-4 1.7-6.3-.3-4.3-.3-4.3-2.5 5.4-5.7 8.3-3.7 5.3-3.4 8.6 1 6 1 6-5.8-2.9-5-9.1 4.2-10 4.4-14.3-2.5-9.8-1.3-13.4 1.5-6.3.6-8.3-1.4-3.6-1.4-3.6 1.2 7.7-.7 11.3.7 9.1-.9 13.6-3.8 4.6-4.5 8.6-1.5 5.7-.8 10l1 6.5s-5.4-5.9-5.6-9.7-.5-5.4.8-7.7 3-3.4 3.7-5.8.8-3.8.8-3.8-2.6 4.4-5 7-5.4 6.5-4.3 11 3.5 7.3 3.5 7.3-5-2.7-6-5.4-.4-5.8-.4-5.8-3 3-1.4 8.5 2.4 4.8 6.7 7.8 5.6 4.5 6.4 6.5l1.3 3.7s1.8-2 .5-5-4.8-6.2-4.8-6.2 6 .8 7.1 4-.6 3.7 1.2 6.2 3.6 2.3 3.6 2.3"/><path id="path9190" d="M167.8 30.3s-2.6 3.8-1.7 6.3 1 6.2 1 6.2-2.4-4-2.4-6.8 2.7-4.9 3.1-5.7"/><path id="path9192" d="M152.2 57s2.4 4.8 1.3 9.8-1.5 5.3-4.6 9-4.7 2.8-4.5 6.3.8 5.5.8 5.5-4-4.8-1.3-10.3 4.7-5.5 6.5-8.1S154 66 152.2 57"/><path id="path9194" d="M145 55.5s-1.8 3.6-1.1 5.7 3 3.2 3 5.8-1.2 4.2-1.2 4.2.6-3.9-1.3-6.3-3-4.5-2.3-6.5 1.1-2.8 1-4.6-1.7-5-1.7-5 3.7 3.1 3.6 6.7"/><path id="path9196" d="M153.3 37.2s-1 2.4.3 4 3.4 4.2 3.3 6.7-1.6 2.8-.8 4.6 2 5.7 2 5.7-4.4-3-3.8-7 1.3-4.2.2-6.6-3.4-4.1-1.2-7.4"/><path id="path9198" d="M153.1 44.8s.9 2.5-.3 4.7-1.6 2-1.5 4l.2 2.7s-2.4-1.8-1.7-4 2.3-2.8 2.6-4.4z"/><path id="path9200" d="m130.2 48.8 1 4.3c.2 1.3-.6 2.3-.6 3.3s.8 4 .8 4-2.4-3.8-1.8-6 .8-3.8.6-5.6"/><path id="path9202" d="M132.2 56.1s0 2.6 1.1 3.8 2 3 1.3 6.1-.9 3.3 0 5.7 1.3 2 .7 5.4-.7 5.4 0 6.5l1.7 2.6s-4.3-2-3.6-6.5.3-6.5-.5-7.7-1.8-4.8-.5-7 .8-4 .2-5-.4-3.9-.4-3.9"/><path id="path9204" d="M140.8 84.5s-1.9 4.5.1 8.1 4 6 4 6-6.3-2.5-6.2-7.2 2-7 2-7"/><path id="path9206" d="M133 86.5s-1.8 4.7 4.5 11.3 10.9 9.6 10.9 9.6-9.7-4-13.6-9.7-1.7-11.2-1.7-11.2"/><path id="path9208" d="M182.9 37.4s1.8 3 .5 6-4 3.5-2.6 7 1 6 .4 7.9l-.8 2.7s.6-2.7-.1-5.7-2.5-5.3-1.6-8.3 3-3.4 3.4-5 .8-4.6.8-4.6"/><path id="path9210" d="M183.5 46.8s0 4.4 1 7.1 2.3 5.2.8 9.3l-2.2 5.6s2-8 1.2-10.9-1.6-7-1.6-8.5.8-2.6.8-2.6"/></g><path id="path9212" d="M81 368.5s7.7 3.8 18.5 4.8 17.7.3 17.7.3l-1.4 23.1s-10.7.8-22.1-.8-17.7-5.6-17.7-5.6 7.2-1.1 15-7c-8.6-6.5-10-14.8-10-14.8z" fill="#ffffff" stroke="#000000"/><path id="polygon9214" fill="#bacad3" stroke="#000000" stroke-linecap="round" stroke-linejoin="round" d="m119.3 396.6-10.1 9.9-8-21.6 16-11.3z"/><path id="path9216" d="M257.2 368.5s-7.6 3.8-18.4 4.8-17.7.3-17.7.3l1.3 23.1s10.8.8 22.2-.8 17.6-5.6 17.6-5.6-7.1-1.1-14.9-7a25 25 0 0 0 9.9-14.8z" fill="#ffffff" stroke="#000000"/><path id="polygon9218" fill="#bacad3" stroke="#000000" stroke-linecap="round" stroke-linejoin="round" d="m219 396.6 10.1 9.9 8-21.6-16-11.3z"/><path id="path9220" d="M171.6 395.5c34.6 0 57.5 11 57.5 11l8-21.6s-26.1-12.3-65.8-12.3H167c-39.7 0-65.9 12.3-65.9 12.3l8 21.6s23-11 57.6-11z" fill="#ffffff" stroke="#000000"/><g id="g9222"><g id="g9224"><path id="path9226" d="M106 76.5S84 93.8 69.8 114 53 157 53 178.5v63.3c0 19.6 5.7 49.7 28.2 74.9a113 113 0 0 0 81.6 36.7" fill="none" stroke="#9a6104" stroke-linecap="round" stroke-linejoin="round" stroke-width="4"/></g><g id="g9228"><path id="path9230" d="M122.4 66s-2.5 5.3-7.8 8.3-10.5 4-10.5 4 .8-5.1 6.7-9.2 11.6-3 11.6-3" fill="#e9c31e" stroke="#9a6104" stroke-linecap="round" stroke-linejoin="round"/><path id="path9232" d="M119.6 67.4s-5.1 2.3-8.3 4.5c-3.1 2.3-5.2 4.6-5.2 4.6s.6-3.3 5.5-6.6 8-2.5 8-2.5" fill="#ffeb95"/></g><g id="g9234"><g id="g9236"><path id="path9238" d="M105.1 60s2 5.6.3 11.4-4.8 10.2-4.8 10.2-3-4.2-1.6-11.3c1.3-7 6.1-10.2 6.1-10.2" fill="#e9c31e" stroke="#9a6104" stroke-linecap="round" stroke-linejoin="round"/><path id="path9240" d="M104 63s-2 5.2-2.6 9-.6 7-.6 7-1.8-2.9-.6-8.7S104 63 104 63" fill="#ffeb95"/></g><g id="g9242"><path id="path9244" d="M122.6 82.5s-5 2.8-11.1 2.1-10.8-3-10.8-3 3.6-3.5 10.8-3.4 11.1 4.3 11.1 4.3" fill="#e9c31e" stroke="#9a6104" stroke-linecap="round" stroke-linejoin="round"/><path id="path9246" d="M119.6 82s-5.5-1.2-9.4-1.2-6.9.6-6.9.6 2.5-2.3 8.4-2c5.8.1 7.8 2.5 7.8 2.5" fill="#ffeb95"/></g></g><g id="g9248"><g id="g9250"><path id="path9252" d="M96 67.4s1.9 5.5.2 11.3S91.4 89 91.4 89s-2.8-4.2-1.5-11.3 6-10.2 6-10.2" fill="#e9c31e" stroke="#9a6104" stroke-linecap="round" stroke-linejoin="round"/><path id="path9254" d="M95 70.3s-2.1 5.2-2.8 9-.6 7-.6 7-1.8-3-.6-8.7 4-7.3 4-7.3" fill="#ffeb95"/></g><g id="g9256"><path id="path9258" d="M113.5 89.8s-5.1 2.8-11.1 2.1-10.9-3-10.9-3 3.7-3.5 10.9-3.5a16 16 0 0 1 11.1 4.4" fill="#e9c31e" stroke="#9a6104" stroke-linecap="round" stroke-linejoin="round"/><path id="path9260" d="M110.4 89.2s-5.4-1.1-9.3-1.1-7 .6-7 .6 2.6-2.3 8.4-2.1 8 2.6 8 2.6" fill="#ffeb95"/></g></g><g id="g9262"><g id="g9264"><path id="path9266" d="M84 76.7s2.7 5.1 2 11.1-3.2 10.8-3.2 10.8-3.5-3.7-3.3-10.9 4.4-11 4.4-11" fill="#e9c31e" stroke="#9a6104" stroke-linecap="round" stroke-linejoin="round"/><path id="path9268" d="M83.4 79.7S82.2 85.2 82 89c0 3.9.5 7 .5 7s-2.2-2.5-2-8.4 2.8-7.9 2.8-7.9" fill="#ffeb95"/></g><g id="g9270"><path id="path9272" d="M104.8 96s-4.7 3.6-10.7 4c-6 .2-11.2-1.4-11.2-1.4s3-4 10.2-5c7.1-1.1 11.7 2.4 11.7 2.4" fill="#e9c31e" stroke="#9a6104" stroke-linecap="round" stroke-linejoin="round"/><path id="path9274" d="M101.6 96s-5.5-.3-9.4.3-6.7 1.7-6.7 1.7 2-2.7 8-3.4c5.8-.7 8.1 1.4 8.1 1.4" fill="#ffeb95"/></g></g><g id="g9276"><g id="g9278"><path id="path9280" d="M75.6 85.7s2.7 5.1 2 11.2-3.1 10.7-3.1 10.7-3.5-3.7-3.3-10.9 4.4-11 4.4-11" fill="#e9c31e" stroke="#9a6104" stroke-linecap="round" stroke-linejoin="round"/><path id="path9282" d="M75 88.8s-1.2 5.4-1.2 9.3c0 3.8.5 6.9.5 6.9s-2.3-2.5-2-8.4 2.7-7.8 2.7-7.8" fill="#ffeb95"/></g><g id="g9284"><path id="path9286" d="M96.4 105s-4.6 3.6-10.7 4c-6 .2-11.1-1.3-11.1-1.3s3-4.1 10.2-5.2 11.6 2.5 11.6 2.5" fill="#e9c31e" stroke="#9a6104" stroke-linecap="round" stroke-linejoin="round"/><path id="path9288" d="M93.3 105s-5.6-.3-9.4.3-6.7 1.7-6.7 1.7 2-2.6 7.9-3.3c5.8-.8 8.2 1.3 8.2 1.3" fill="#ffeb95"/></g></g><g id="g9290"><g id="g9292"><path id="path9294" d="M66 95.5s3.2 4.9 3.1 11-2 11-2 11-3.8-3.3-4.4-10.5 3.2-11.5 3.2-11.5" fill="#e9c31e" stroke="#9a6104" stroke-linecap="round" stroke-linejoin="round"/><path id="path9296" d="M65.7 98.7s-.7 5.5-.3 9.3 1.2 6.9 1.2 6.9-2.5-2.3-2.8-8.1c-.3-6 1.9-8.1 1.9-8.1" fill="#ffeb95"/></g><g id="g9298"><path id="path9300" d="M88.7 112.6s-4.3 4-10.3 5-11.2 0-11.2 0 2.6-4.5 9.6-6.3 11.9 1.3 11.9 1.3" fill="#e9c31e" stroke="#9a6104" stroke-linecap="round" stroke-linejoin="round"/><path id="path9302" d="M85.5 112.9s-5.5.3-9.3 1.3c-3.7 1-6.5 2.4-6.5 2.4s1.8-2.9 7.5-4.2 8.3.5 8.3.5" fill="#ffeb95"/></g></g><g id="g9304"><g id="g9306"><path id="path9308" d="M56.6 107.2s4.2 5 4.9 11.7-.8 12.4-.8 12.4-4.7-3.1-6.3-11c-1.5-7.8 2.2-13 2.2-13" fill="#e9c31e" stroke="#9a6104" stroke-linecap="round" stroke-linejoin="round"/><path id="path9310" d="M56.7 110.7s0 6.2.9 10.4 2.2 7.4 2.2 7.4-3-2.2-4.1-8.6c-1.1-6.5 1-9.2 1-9.2" fill="#ffeb95"/></g><g id="g9312"><path id="path9314" d="M82.1 120.2s-3.3 5.5-9.4 8.3-12 3.2-12 3.2 1.4-5.4 8.4-9.4 13-2.2 13-2.2" fill="#e9c31e" stroke="#9a6104" stroke-linecap="round" stroke-linejoin="round"/><path id="path9316" d="M78.9 121.4s-5.9 2-9.6 4.1c-3.7 2.2-6.3 4.5-6.3 4.5s1.1-3.6 6.9-6.7c5.7-3 9-2 9-2" fill="#ffeb95"/></g></g><g id="g9318"><g id="g9320"><path id="path9322" d="M48.3 123s5 4.2 6.6 10.8c1.7 6.5 1.2 12.4 1.2 12.4s-5.2-2.4-7.9-10 .1-13.2.1-13.2" fill="#e9c31e" stroke="#9a6104" stroke-linecap="round" stroke-linejoin="round"/><path id="path9324" d="M49 126.4s1 6.1 2.4 10.1 3.4 7 3.4 7-3.4-1.7-5.5-7.9c-2-6.2-.3-9.2-.3-9.2" fill="#ffeb95"/></g><g id="g9326"><path id="path9328" d="M75.6 131.9s-2.5 6-8.1 9.7c-5.7 3.7-11.5 5-11.5 5s.7-5.6 7-10.6 12.5-4.1 12.5-4.1" fill="#e9c31e" stroke="#9a6104" stroke-linecap="round" stroke-linejoin="round"/><path id="path9330" d="M72.5 133.6s-5.5 2.8-8.8 5.5-5.5 5.4-5.5 5.4.5-3.7 5.7-7.6c5.2-4 8.6-3.3 8.6-3.3" fill="#ffeb95"/></g></g><g id="g9332"><g id="g9334"><path id="path9336" d="M44.3 137.4s5.3 3.8 7.7 10.8c2.3 7 2.3 13.8 2.3 13.8s-5.4-1.8-8.8-9.7-1.2-14.9-1.2-14.9" fill="#e9c31e" stroke="#9a6104" stroke-linecap="round" stroke-linejoin="round"/><path id="path9338" d="M45.3 141.1s1.5 6.7 3.4 11c2 4.1 4 7.1 4 7.1s-3.5-1.3-6.2-7.8-1.2-10.3-1.2-10.3" fill="#ffeb95"/></g><g id="g9340"><path id="path9342" d="M72.5 142.4s-1.9 7.2-7.2 12.3-11 7.7-11 7.7.1-6.4 6-13.1c5.7-6.7 12.2-6.9 12.2-6.9" fill="#e9c31e" stroke="#9a6104" stroke-linecap="round" stroke-linejoin="round"/><path id="path9344" d="M69.6 144.9s-5.2 4.2-8.3 7.8-5 7-5 7 .1-4.2 5-9.6c4.8-5.4 8.3-5.2 8.3-5.2" fill="#ffeb95"/></g></g><g id="g9346"><g id="g9348"><path id="path9350" d="M41.1 152.8s5.6 3.6 8.5 10.4a48 48 0 0 1 3.5 13.4s-5.5-1.6-9.6-9.2c-4.1-7.7-2.4-14.6-2.4-14.6" fill="#e9c31e" stroke="#9a6104" stroke-linecap="round" stroke-linejoin="round"/><path id="path9352" d="M42.4 156.4s2 6.5 4.3 10.6 4.6 7 4.6 7-3.6-1.2-6.8-7.6-2.1-10-2.1-10" fill="#ffeb95"/></g><g id="g9354"><path id="path9356" d="M69.5 156.8s-1.2 7.1-6.1 12.3-10.3 8-10.3 8-.4-6.4 4.8-13.1a17 17 0 0 1 11.6-7.2" fill="#e9c31e" stroke="#9a6104" stroke-linecap="round" stroke-linejoin="round"/><path id="path9358" d="M66.9 159.3s-4.9 4.3-7.7 8c-2.7 3.6-4.4 7-4.4 7s-.2-4.2 4.2-9.6 7.9-5.4 7.9-5.4" fill="#ffeb95"/></g></g><g id="g9360"><g id="g9362"><path id="path9364" d="M39.5 169.4s5.8 3.1 9.2 9.7 4.4 13 4.4 13-5.6-1.1-10.2-8.4c-4.7-7.4-3.4-14.3-3.4-14.3" fill="#e9c31e" stroke="#9a6104" stroke-linecap="round" stroke-linejoin="round"/><path id="path9366" d="M41 172.8s2.6 6.4 5 10.3c2.6 3.9 5.2 6.5 5.2 6.5s-3.7-.8-7.4-7c-3.6-6-2.8-9.8-2.8-9.8" fill="#ffeb95"/></g><g id="g9368"><path id="path9370" d="M68 171.2s-.7 7.2-5.1 12.8c-4.5 5.5-9.7 8.6-9.7 8.6s-.9-6.3 3.8-13.4 11-8 11-8" fill="#e9c31e" stroke="#9a6104" stroke-linecap="round" stroke-linejoin="round"/><path id="path9372" d="M65.6 174s-4.5 4.5-7 8.4-3.9 7.3-3.9 7.3-.5-4.1 3.5-9.8 7.4-6 7.4-6" fill="#ffeb95"/></g></g><g id="g9374"><g id="g9376"><path id="path9378" d="M39.3 185.2s5.8 3.1 9.2 9.7 4.4 13 4.4 13-5.6-1-10.2-8.4c-4.7-7.4-3.5-14.3-3.5-14.3" fill="#e9c31e" stroke="#9a6104" stroke-linecap="round" stroke-linejoin="round"/><path id="path9380" d="M40.8 188.7s2.6 6.3 5 10.2c2.6 3.9 5.2 6.6 5.2 6.6s-3.7-1-7.4-7c-3.6-6-2.8-9.8-2.8-9.8" fill="#ffeb95"/></g><g id="g9382"><path id="path9384" d="M67.9 187s-.8 7.2-5.2 12.8-9.7 8.6-9.7 8.6-.9-6.2 3.8-13.4c4.7-7 11-8 11-8" fill="#e9c31e" stroke="#9a6104" stroke-linecap="round" stroke-linejoin="round"/><path id="path9386" d="M65.4 189.8s-4.5 4.6-7 8.4-3.9 7.4-3.9 7.4-.5-4.2 3.5-9.9 7.4-6 7.4-6" fill="#ffeb95"/></g></g><g id="g9388"><g id="g9390"><path id="path9392" d="M38.7 201.3s6 2.9 9.6 9.3a48 48 0 0 1 5 13s-5.7-1-10.6-8.2c-5-7.1-4-14.2-4-14.2" fill="#e9c31e" stroke="#9a6104" stroke-linecap="round" stroke-linejoin="round"/><path id="path9394" d="M40.4 204.7s2.8 6.2 5.5 10c2.6 3.8 5.3 6.4 5.3 6.4s-3.7-.8-7.6-6.7-3.2-9.7-3.2-9.7" fill="#ffeb95"/></g><g id="g9396"><path id="path9398" d="M67.4 202s-.5 7.3-4.7 13-9.4 9-9.4 9-1-6.3 3.4-13.5a17 17 0 0 1 10.7-8.4" fill="#e9c31e" stroke="#9a6104" stroke-linecap="round" stroke-linejoin="round"/><path id="path9400" d="M65 204.9s-4.3 4.7-6.6 8.7c-2.4 4-3.7 7.5-3.7 7.5s-.6-4.2 3.1-10c3.8-5.9 7.3-6.2 7.3-6.2" fill="#ffeb95"/></g></g><g id="g9402"><g id="g9404"><path id="path9406" d="M38.8 216.6s6 3 9.6 9.3a48 48 0 0 1 5 13s-5.7-1-10.6-8.1-4-14.2-4-14.2" fill="#e9c31e" stroke="#9a6104" stroke-linecap="round" stroke-linejoin="round"/><path id="path9408" d="M40.5 220s2.8 6.2 5.5 10c2.6 3.8 5.3 6.4 5.3 6.4s-3.7-.7-7.6-6.7c-4-6-3.2-9.7-3.2-9.7" fill="#ffeb95"/></g><g id="g9410"><path id="path9412" d="M67.5 217.4s-.5 7.2-4.7 13c-4.3 5.6-9.4 8.9-9.4 8.9s-1-6.2 3.4-13.5a17 17 0 0 1 10.7-8.4" fill="#e9c31e" stroke="#9a6104" stroke-linecap="round" stroke-linejoin="round"/><path id="path9414" d="M65.1 220.2s-4.3 4.8-6.7 8.7c-2.3 4-3.6 7.5-3.6 7.5s-.6-4.1 3.1-10c3.8-5.8 7.2-6.2 7.2-6.2" fill="#ffeb95"/></g></g><g id="g9416"><g id="g9418"><path id="path9420" d="M38.8 232s6 2.8 9.8 9.2 5.1 12.8 5.1 12.8-5.6-.8-10.7-7.9-4.2-14-4.2-14" fill="#e9c31e" stroke="#9a6104" stroke-linecap="round" stroke-linejoin="round"/><path id="path9422" d="M40.5 235.4s3 6.2 5.7 10 5.4 6.2 5.4 6.2-3.7-.7-7.7-6.5-3.4-9.7-3.4-9.7" fill="#ffeb95"/></g><g id="g9424"><path id="path9426" d="M67.5 232.3s-.3 7.2-4.5 13c-4 5.8-9.1 9.1-9.1 9.1s-1.3-6.2 3-13.5a17 17 0 0 1 10.6-8.6" fill="#e9c31e" stroke="#9a6104" stroke-linecap="round" stroke-linejoin="round"/><path id="path9428" d="M65.2 235s-4.3 5-6.5 9-3.5 7.5-3.5 7.5-.7-4.1 2.9-10 7-6.4 7-6.4" fill="#ffeb95"/></g></g><g id="g9430"><g id="g9432"><path id="path9434" d="M39 249.4s6.4 2 11 7.7 6.7 12 6.7 12-5.7 0-11.6-6.3c-6-6.4-6-13.4-6-13.4" fill="#e9c31e" stroke="#9a6104" stroke-linecap="round" stroke-linejoin="round"/><path id="path9436" d="M41.2 252.5s3.7 5.7 7 9c3.2 3.4 6.1 5.6 6.1 5.6s-3.7-.2-8.5-5.5-4.6-9.1-4.6-9.1" fill="#ffeb95"/></g><g id="g9438"><path id="path9440" d="M67.5 245.8s.6 7.2-2.7 13.5-7.9 10.3-7.9 10.3-2-6 1.2-13.9 9.4-9.9 9.4-9.9" fill="#e9c31e" stroke="#9a6104" stroke-linecap="round" stroke-linejoin="round"/><path id="path9442" d="M65.6 249s-3.6 5.3-5.3 9.6-2.5 7.9-2.5 7.9-1.2-4 1.6-10.3 6.2-7.3 6.2-7.3" fill="#ffeb95"/></g></g><g id="g9444"><g id="g9446"><path id="path9448" d="M41 267.1s6.7 1.4 12.3 7.3c5.6 5.8 9 12.4 9 12.4s-5.7.7-12.8-5.6c-7-6.2-8.4-14-8.4-14" fill="#e9c31e" stroke="#9a6104" stroke-linecap="round" stroke-linejoin="round"/><path id="path9450" d="M43.8 270.3s4.7 6 8.5 9.2c3.8 3.3 7.2 5.3 7.2 5.3s-3.8.3-9.5-5c-5.6-5.2-6.2-9.5-6.2-9.5" fill="#ffeb95"/></g><g id="g9452"><path id="path9454" d="M68.7 259.6s2 7.9-.2 15.3-6 12.4-6 12.4-3.1-6.4-1.3-15.5 7.5-12.2 7.5-12.2" fill="#e9c31e" stroke="#9a6104" stroke-linecap="round" stroke-linejoin="round"/><path id="path9456" d="M67.4 263.3s-2.6 6.4-3.5 11.4-1 9-1 9-2-4.2-.3-11.6 4.8-8.8 4.8-8.8" fill="#ffeb95"/></g></g><g id="g9458"><g id="g9460"><path id="path9462" d="M47.4 287.6s6.8.3 13.2 5.2c6.5 4.8 10.9 10.8 10.9 10.8s-5.5 1.6-13.5-3.5-10.6-12.5-10.6-12.5" fill="#e9c31e" stroke="#9a6104" stroke-linecap="round" stroke-linejoin="round"/><path id="path9464" d="M50.6 290.3s5.6 5 9.9 7.7 8 4 8 4-3.8 1-10.2-3.3c-6.5-4.3-7.7-8.4-7.7-8.4" fill="#ffeb95"/></g><g id="g9466"><path id="path9468" d="M73.5 275.7s3.1 7.4 2.2 15-4 13.3-4 13.3-4-5.8-3.7-15.1 5.5-13.2 5.5-13.2" fill="#e9c31e" stroke="#9a6104" stroke-linecap="round" stroke-linejoin="round"/><path id="path9470" d="M72.7 279.5s-1.5 6.8-1.6 11.8.5 9.2.5 9.2-2.6-3.9-2.2-11.5 3.3-9.5 3.3-9.5" fill="#ffeb95"/></g></g><g id="g9472"><g id="g9474"><path id="path9476" d="M56.8 305.2s6.8-.5 13.8 3.6 12 9.5 12 9.5-5.3 2.2-13.8-1.9-12-11.2-12-11.2" fill="#e9c31e" stroke="#9a6104" stroke-linecap="round" stroke-linejoin="round"/><path id="path9478" d="M60.3 307.5S66.4 312 71 314s8.4 3.1 8.4 3.1-3.6 1.3-10.5-2.1-8.6-7.5-8.6-7.5" fill="#ffeb95"/></g><g id="g9480"><path id="path9482" d="M81.3 290.3s4 7 4 14.7c0 7.8-2.3 13.6-2.3 13.6s-4.8-5.2-5.6-14.5 3.9-13.8 3.9-13.8" fill="#e9c31e" stroke="#9a6104" stroke-linecap="round" stroke-linejoin="round"/><path id="path9484" d="M81 294.2s-.7 6.9-.2 11.9 1.5 9 1.5 9-3-3.5-3.5-11c-.5-7.7 2.2-10 2.2-10" fill="#ffeb95"/></g></g><g id="g9486"><g id="g9488"><path id="path9490" d="M66.7 322s6.5-1.8 14.2.8a56 56 0 0 1 13.7 6.8s-4.7 3.3-13.9 1-14-8.6-14-8.6" fill="#e9c31e" stroke="#9a6104" stroke-linecap="round" stroke-linejoin="round"/><path id="path9492" d="M70.6 323.6s6.9 3 11.8 4.2c5 1.1 8.8 1.4 8.8 1.4s-3.2 2-10.7 0-10-5.6-10-5.6" fill="#ffeb95"/></g><g id="g9494"><path id="path9496" d="M87.7 302.5s5.3 6 6.9 13.6c1.5 7.6.4 13.8.4 13.8s-5.7-4.2-8.3-13.1c-2.7-9 1-14.3 1-14.3" fill="#e9c31e" stroke="#9a6104" stroke-linecap="round" stroke-linejoin="round"/><path id="path9498" d="M88.2 306.4s.7 6.9 2.2 11.7c1.4 4.8 3.3 8.5 3.3 8.5s-3.7-2.8-5.7-10.1c-2-7.4.2-10.1.2-10.1" fill="#ffeb95"/></g></g><g id="g9500"><g id="g9502"><path id="path9504" d="M78.3 333.8s6.3-2.6 14.2-1c7.9 1.8 14.4 5.3 14.4 5.3s-4.4 3.8-13.7 2.6a27 27 0 0 1-15-7" fill="#e9c31e" stroke="#9a6104" stroke-linecap="round" stroke-linejoin="round"/><path id="path9506" d="M82.3 334.9s7.2 2.2 12.3 2.8c5 .6 8.9.3 8.9.3s-3 2.4-10.6 1.2c-7.7-1.1-10.6-4.3-10.6-4.3" fill="#ffeb95"/></g><g id="g9508"><path id="path9510" d="M97 312s6 5.4 8.3 12.7c2.4 7.4 2 13.7 2 13.7s-6.1-3.5-9.7-12.2c-3.7-8.6-.7-14.2-.7-14.2" fill="#e9c31e" stroke="#9a6104" stroke-linecap="round" stroke-linejoin="round"/><path id="path9512" d="M97.9 315.8s1.5 6.7 3.5 11.3 4.3 8.2 4.3 8.2-4-2.5-6.9-9.5c-2.7-7-1-10-1-10" fill="#ffeb95"/></g></g><g id="g9514"><g id="g9516"><path id="path9518" d="M94.2 345.1s5.9-3.5 14-3 15 3.2 15 3.2-3.8 4.3-13.2 4.5c-9.5.2-15.8-4.7-15.8-4.7" fill="#e9c31e" stroke="#9a6104" stroke-linecap="round" stroke-linejoin="round"/><path id="path9520" d="M98.4 345.6s7.4 1.2 12.5 1c5 0 8.8-.9 8.8-.9s-2.5 2.8-10.3 2.7c-7.7 0-11-2.8-11-2.8" fill="#ffeb95"/></g><g id="g9522"><path id="path9524" d="M109.5 320.8s6.7 4.5 10.1 11.5 4 13.2 4 13.2-6.6-2.6-11.4-10.6-2.7-14-2.7-14" fill="#e9c31e" stroke="#9a6104" stroke-linecap="round" stroke-linejoin="round"/><path id="path9526" d="M111 324.5s2.4 6.5 5 10.7c2.7 4.3 5.5 7.4 5.5 7.4s-4.3-1.8-8.1-8.4c-3.8-6.5-2.4-9.7-2.4-9.7" fill="#ffeb95"/></g></g><g id="g9528"><g id="g9530"><path id="path9532" d="M109.7 354.2s5.4-4.2 13.5-4.6c8-.5 15.3 1.2 15.3 1.2s-3.2 4.8-12.6 6.1a27 27 0 0 1-16.2-2.7" fill="#e9c31e" stroke="#9a6104" stroke-linecap="round" stroke-linejoin="round"/><path id="path9534" d="M114 354.2s7.5.2 12.5-.5c5-.8 8.6-2 8.6-2s-2.2 3-9.9 4c-7.6.8-11.3-1.5-11.3-1.5" fill="#ffeb95"/></g><g id="g9536"><path id="path9538" d="M121.9 328.2s7.2 3.7 11.5 10.1a44 44 0 0 1 5.6 12.6s-6.9-1.7-12.7-9c-5.8-7.4-4.4-13.7-4.4-13.7" fill="#e9c31e" stroke="#9a6104" stroke-linecap="round" stroke-linejoin="round"/><path id="path9540" d="M123.8 331.6s3.2 6.2 6.4 10c3.2 4 6.3 6.7 6.3 6.7s-4.5-1.2-9-7.3c-4.7-6-3.7-9.4-3.7-9.4" fill="#ffeb95"/></g></g><g id="g9542"><path id="path9544" d="M106 76.5S84 93.8 69.8 114 53 157 53 178.5v63.3c0 19.6 5.7 49.7 28.2 74.9a113 113 0 0 0 81.6 36.7" fill="none" stroke="#e9c31e" stroke-linecap="round" stroke-linejoin="round" stroke-width="2"/></g></g><g id="g9546"><g id="g9548"><path id="path9550" d="M217.6 76.6s-2.9.3-4.4-2.2c-1.4-2.5.8-4.5.8-4.5s-2.4-2-1-4.1c1.4-2.2 3.8-1.4 3.8-1.4s-1.7-2.6.7-3.7 2.9-.2 2.9-.2-.1-2.5 3.8-1.4 5.3 3.9 4.9 5.4a16 16 0 0 1-4.2 7.3c-2.8 2.6-5.4 4.5-7.3 4.8" fill="#ccdde7" stroke="#808285" stroke-linecap="round" stroke-linejoin="round"/><path id="path9552" d="M236.9 84.8s-2.3-3.5-5.6-5c-4.3 2.9-6 2.2-9.5.6l-7.3-3.2s2.6-.7 3.6-1.2c1.1-.6 2.7-.7 2.7-.7l-1-1.6-1.3-2.2s.2-.2 1.6-.2h2.9l-1.5-2.1-.8-2 3.2.4c.9 0 1.9.8 1.9.8l-.6-2.5-.7-1.8 2.5 1.5c.7.3 1.6 1 1.6 1s-.3-1.6.2-2.3.1-2.9-.2-3.5q-.3-.8-.1-.9c.2 0 5.7 10.7 5.8 13.2s-1.1 4.7-1.1 4.7 1.6 1.1 3.3 3.2l2.6 3.6z" fill="#00ab4e" stroke="#005a24" stroke-linecap="round" stroke-linejoin="round"/><path id="path9554" d="M214.3 71.1c-1-.2-.9 2.5 0 3.4q1.6 1.5 2.7.8c.8-.5.3-1.6.3-1.6s-1.3.2-1.6-1c-.4-1.3-1-1.5-1.4-1.6" fill="#ffffff"/><path id="path9556" d="M216.2 70c-.1-.1-1.9 0-2.6-1.6s.3-3.1 1.1-2.8c.9.2 1 1.4 2 1.9s1.8 1.3 1.4 1.6c-.4.2-1.4 1.1-1.9.9" fill="#ffffff"/><path id="path9558" d="M218 64.5c-.3 0-1.6-2.1-1-2.5s.8.6 1.6.8q1.4 0 1.5.9c.2.7-1 1.5-2.2.8" fill="#ffffff"/><path id="path9560" d="M223.3 62.5c-.4-.2-1.7-1.6-1.5-2.3q.5-1.2 1.7-.4 1.6 1.2 1.3 1.6c0 .4-.4 1.7-1.5 1" fill="#ffffff"/><path id="path9562" d="M218 68.9q-.8.5-1.3 1.5-.2.7.1 1.4" fill="none" stroke="#808285" stroke-linecap="round" stroke-linejoin="round"/><path id="path9564" d="M218.2 66.8q.1-1.5 1.7-1.7" fill="none" stroke="#808285" stroke-linecap="round" stroke-linejoin="round"/><path id="path9566" d="M221.3 63.4q.3-.7 1-1 .5 0 .9.4" fill="none" stroke="#808285" stroke-linecap="round" stroke-linejoin="round"/><path id="path9568" d="M220.4 60.4c.2.7.8 2 1.6 2.2" fill="none" stroke="#808285" stroke-linecap="round" stroke-linejoin="round"/><path id="path9570" d="M216.6 64.4c.2.3.9.4 1.2.6q.5.3.7.7" fill="none" stroke="#808285" stroke-linecap="round" stroke-linejoin="round"/><path id="path9572" d="M214 70.2q.8-.4 1.7-.1.7-.1 1 .5" fill="none" stroke="#808285" stroke-linecap="round" stroke-linejoin="round"/></g><g id="g9574"><path id="path9576" d="M230.1 85.7s-2.9.4-4.4-2.2.7-4.6.7-4.6-2.4-2-1-4.3 4-1.4 4-1.4-1.8-2.7.7-3.8c2.4-1.2 3-.2 3-.2s-.2-2.6 3.8-1.5 5.5 4 5.1 5.6-1.5 4.7-4.3 7.5q-4.5 4.2-7.6 5" fill="#ccdde7" stroke="#808285" stroke-linecap="round" stroke-linejoin="round"/><path id="path9578" d="M250 94.2s-2.3-3.6-5.7-5.1c-4.4 2.9-6.1 2.2-9.8.6-3.6-1.5-7.5-3.4-7.5-3.4s2.6-.6 3.7-1.2 2.7-.7 2.7-.7l-1-1.6-1.3-2.3s.2-.2 1.7-.2h3s-1.2-1.4-1.6-2.2l-.9-2.1 3.3.4c1 .1 2 1 2 1l-.6-2.7-.7-1.8 4.2 2.5s-.3-1.6.2-2.4.1-3-.2-3.5q-.3-1-.1-1c.2 0 6 11 6 13.6s-1.2 4.9-1.2 4.9 1.7 1.2 3.5 3.3l2.7 3.7z" fill="#00ab4e" stroke="#005a24" stroke-linecap="round" stroke-linejoin="round"/><path id="path9580" d="M226.8 80.1c-1-.3-1 2.5 0 3.5q1.5 1.5 2.8.8c.7-.5.3-1.6.3-1.6s-1.3.2-1.7-1.1-1-1.5-1.4-1.6" fill="#ffffff"/><path id="path9582" d="M228.8 79c-.2-.2-2 0-2.7-1.7-.8-1.8.3-3.2 1.1-3 .9.4 1 1.6 2 2 1 .6 1.8 1.5 1.5 1.7-.4.3-1.4 1.2-2 1" fill="#ffffff"/><path id="path9584" d="M230.5 73.3c-.2-.1-1.6-2.2-1-2.6s.9.6 1.7.8c1 .2 1.4.2 1.6 1 .1.6-1 1.5-2.3.8" fill="#ffffff"/><path id="path9586" d="M236 71.2c-.4-.2-1.8-1.6-1.5-2.3q.4-1.3 1.8-.4 1.3 1.1 1.3 1.6c0 .5-.4 1.7-1.6 1.1" fill="#ffffff"/><path id="path9588" d="M230.7 77.8q-1 .6-1.4 1.5c-.3.6 0 1 0 1.5" fill="none" stroke="#808285" stroke-linecap="round" stroke-linejoin="round"/><path id="path9590" d="M230.7 75.6q.2-1.5 1.9-1.7" fill="none" stroke="#808285" stroke-linecap="round" stroke-linejoin="round"/><path id="path9592" d="M234 72.2q.3-.8 1-1 .5 0 1 .4" fill="none" stroke="#808285" stroke-linecap="round" stroke-linejoin="round"/><path id="path9594" d="M233 69c.3.8.8 2.2 1.6 2.3" fill="none" stroke="#808285" stroke-linecap="round" stroke-linejoin="round"/><path id="path9596" d="M229.1 73.1q.7.5 1.3.7.5.3.7.8" fill="none" stroke="#808285" stroke-linecap="round" stroke-linejoin="round"/><path id="path9598" d="M226.4 79.1q.9-.3 1.8 0 .7-.1 1 .4" fill="none" stroke="#808285" stroke-linecap="round" stroke-linejoin="round"/></g><g id="g9600"><path id="path9602" d="M241 94.7s-3 .2-4.3-2.6c-1.4-2.7 1-4.5 1-4.5s-2.2-2.2-.6-4.3 4-1.1 4-1.1-1.5-2.9 1-3.8c2.6-1 3 0 3 0s.2-2.6 4-1.1 5.2 4.4 4.6 6c-.5 1.6-1.9 4.5-4.9 7-3 2.6-5.9 4.2-7.9 4.4" fill="#ccdde7" stroke="#808285" stroke-linecap="round" stroke-linejoin="round"/><path id="path9604" d="M260.1 104.7s-2-3.8-5.3-5.5c-4.7 2.5-6.3 1.7-9.8-.2l-7.2-4s2.6-.4 3.8-.9 2.7-.4 2.7-.4l-.9-1.8-1.1-2.3s.3-.2 1.7 0l3 .2s-1-1.5-1.4-2.4l-.7-2.1 3.2.7c1 .1 2 1 2 1l-.4-2.7-.6-1.8 4 2.9s-.2-1.7.4-2.4.3-3 0-3.5q-.2-1 0-1c.2 0 5 11.5 5 14s-1.6 4.7-1.6 4.7 1.6 1.4 3.1 3.7l2.4 3.8z" fill="#00ab4e" stroke="#005a24" stroke-linecap="round" stroke-linejoin="round"/><path id="path9606" d="M238 88.9c-1-.4-1 2.4-.2 3.4q1.4 1.6 2.7 1c.8-.4.4-1.6.4-1.6s-1.3.2-1.6-1.2-1-1.5-1.2-1.6" fill="#ffffff"/><path id="path9608" d="M240.1 87.8c-.2-.1-2 0-2.6-1.9-.5-1.7.6-3 1.4-2.7s1 1.5 1.8 2.1c1 .6 1.8 1.5 1.4 1.8-.4.2-1.5 1-2 .7" fill="#ffffff"/><path id="path9610" d="M242.3 82.4c-.2-.2-1.4-2.3-.8-2.7.7-.3.8.7 1.7 1q1.2 0 1.4 1c.1.7-1.1 1.5-2.3.7" fill="#ffffff"/><path id="path9612" d="M248 80.7c-.4-.2-1.7-1.8-1.4-2.5s1-1 1.8-.2q1.3 1.2 1.2 1.7c-.1.4-.5 1.7-1.7 1" fill="#ffffff"/><path id="path9614" d="M242 86.9q-.8.4-1.4 1.4-.3.8 0 1.5" fill="none" stroke="#808285" stroke-linecap="round" stroke-linejoin="round"/><path id="path9616" d="M242.3 84.7q.3-1.5 2-1.6" fill="none" stroke="#808285" stroke-linecap="round" stroke-linejoin="round"/><path id="path9618" d="M245.8 81.5q.4-.7 1.1-.9.5 0 1 .4" fill="none" stroke="#808285" stroke-linecap="round" stroke-linejoin="round"/><path id="path9620" d="M245.1 78.4c.2.7.7 2.1 1.5 2.3" fill="none" stroke="#808285" stroke-linecap="round" stroke-linejoin="round"/><path id="path9622" d="M241 82c.1.5.8.6 1.1.9q.5.3.7.8" fill="none" stroke="#808285" stroke-linecap="round" stroke-linejoin="round"/><path id="path9624" d="M237.7 87.8q1-.2 1.8.1c.5.1.7 0 1 .6" fill="none" stroke="#808285" stroke-linecap="round" stroke-linejoin="round"/></g><g id="g9626"><path id="path9628" d="M251.6 106.5s-3-.2-4-3.3 1.8-4.5 1.8-4.5-2-2.7 0-4.7 4.3-.5 4.3-.5-1.1-3.2 1.7-3.8 3 .5 3 .5.6-2.7 4.4-.6 4.7 5.4 4 7c-1 1.5-2.8 4.4-6.3 6.6q-5.4 3.5-8.9 3.3" fill="#ccdde7" stroke="#808285" stroke-linecap="round" stroke-linejoin="round"/><path id="path9630" d="M270.1 119.9s-1.6-4.3-4.7-6.7c-5.2 2-6.8 1-10.2-1.5l-7-5.3s3 0 4.2-.4 3 0 3 0l-.7-2-.9-2.6s.3-.1 1.8.2l3 .7s-.8-1.7-1-2.6l-.4-2.4 3.2 1.2c1 .3 1.9 1.4 1.9 1.4V97l-.3-2 3.7 3.6s0-1.7.8-2.4c.7-.7.8-3 .6-3.7v-1c.2 0 3.6 12.7 3.1 15.3s-2.3 4.7-2.3 4.7 1.4 1.7 2.7 4.3l2 4.4z" fill="#00ab4e" stroke="#005a24" stroke-linecap="round" stroke-linejoin="round"/><path id="path9632" d="M249.5 100c-1-.5-1.6 2.4-.8 3.6q1.2 1.9 2.7 1.5c.9-.4.6-1.7.6-1.7s-1.4 0-1.4-1.5c-.1-1.4-.8-1.7-1.1-1.9" fill="#ffffff"/><path id="path9634" d="M251.8 99.2c-.2-.1-2-.4-2.4-2.3-.3-2 1-3.2 1.9-2.7s.7 1.8 1.5 2.5c.9.8 1.6 1.9 1.2 2s-1.7 1-2.2.5" fill="#ffffff"/><path id="path9636" d="M254.9 93.9c-.2-.2-1.1-2.6-.4-2.9s.7.8 1.6 1.2q1.3.3 1.3 1.3c0 .8-1.4 1.4-2.5.4" fill="#ffffff"/><path id="path9638" d="M261 93c-.3-.3-1.4-2.1-1-2.8q.8-1.2 2 0 1 1.5 1 2c-.3.4-.9 1.7-2 .8" fill="#ffffff"/><path id="path9640" d="M254 98.5q-1 .4-1.8 1.3-.3.8-.2 1.5" fill="none" stroke="#808285" stroke-linecap="round" stroke-linejoin="round"/><path id="path9642" d="M254.6 96.3q.5-1.5 2.3-1.4" fill="none" stroke="#808285" stroke-linecap="round" stroke-linejoin="round"/><path id="path9644" d="M258.7 93.5c.5-.3.7-.9 1.3-.8q.5.1.9.6" fill="none" stroke="#808285" stroke-linecap="round" stroke-linejoin="round"/><path id="path9646" d="M258.4 90.1c.2.8.4 2.4 1.2 2.7" fill="none" stroke="#808285" stroke-linecap="round" stroke-linejoin="round"/><path id="path9648" d="M253.5 93.4q.4.6 1.2 1 .4.4.5.9" fill="none" stroke="#808285" stroke-linecap="round" stroke-linejoin="round"/><path id="path9650" d="M249.3 98.9q1-.2 2 .3.6.1.8.8" fill="none" stroke="#808285" stroke-linecap="round" stroke-linejoin="round"/></g><g id="g9652"><path id="path9654" d="M260.6 120.1s-3.2-.8-3.7-4 2.6-4.5 2.6-4.5-1.7-3 .6-4.8c2.4-1.7 4.6.2 4.6.2s-.7-3.5 2.3-3.7 3.1 1 3.1 1 1-2.8 4.6 0c3.7 2.8 4 6.3 3 7.8a19 19 0 0 1-7.4 6c-4 1.6-7.6 2.5-9.7 2" fill="#ccdde7" stroke="#808285" stroke-linecap="round" stroke-linejoin="round"/><path id="path9656" d="M277.7 136.8s-1-4.7-3.9-7.6c-5.7 1.2-7.2-.2-10.3-3.2s-6.4-6.5-6.4-6.5 3 .4 4.3.2c1.4-.2 3.1.4 3.1.4l-.4-2.1-.5-2.9 1.8.5 3 1.2s-.5-1.9-.6-2.9v-2.5l3.1 1.8c1 .4 1.7 1.7 1.7 1.7l.5-3v-2.1s1.4 2 2 2.6l1.2 1.7s.4-1.8 1.2-2.4c.9-.6 1.3-3 1.2-3.7s.3-1 .3-1 1.7 13.7.8 16.3c-1 2.6-3.2 4.5-3.2 4.5s1.3 2 2.2 4.8c1 3 1.3 4.9 1.3 4.9z" fill="#00ab4e" stroke="#005a24" stroke-linecap="round" stroke-linejoin="round"/><path id="path9658" d="M259.4 113c-1-.7-2 2.3-1.4 3.6q.9 2.2 2.5 2c1-.2 1-1.6 1-1.6s-1.5-.3-1.3-1.8q-.2-2-.8-2.2" fill="#ffffff"/><path id="path9660" d="M261.9 112.6c-.2-.2-2-.7-2.2-2.8 0-2 1.6-3.1 2.4-2.5s.4 2 1.2 2.8c.8 1 1.4 2.2.9 2.3s-2 .7-2.3.2" fill="#ffffff"/><path id="path9662" d="M265.9 107.5c-.2-.2-.8-2.9 0-3s.6 1 1.5 1.4q1.3.6 1.2 1.6c-.1.8-1.7 1.2-2.7 0" fill="#ffffff"/><path id="path9664" d="M272.4 107.5c-.3-.3-1.2-2.4-.7-3q1-1 2 .3 1 1.7.7 2.2c-.2.3-1 1.6-2 .5" fill="#ffffff"/><path id="path9666" d="M264.3 112.2q-1.3.1-2 1-.6.7-.6 1.6" fill="none" stroke="#808285" stroke-linecap="round" stroke-linejoin="round"/><path id="path9668" d="M265.2 110q.9-1.6 2.6-1" fill="none" stroke="#808285" stroke-linecap="round" stroke-linejoin="round"/><path id="path9670" d="M269.9 107.7c.5-.3.8-.8 1.4-.6q.6.2.8.8" fill="none" stroke="#808285" stroke-linecap="round" stroke-linejoin="round"/><path id="path9672" d="M270.1 104.2c0 .8 0 2.5.8 3" fill="none" stroke="#808285" stroke-linecap="round" stroke-linejoin="round"/><path id="path9674" d="M264.5 106.8c.1.5.8.8 1 1.2q.5.4.5 1" fill="none" stroke="#808285" stroke-linecap="round" stroke-linejoin="round"/><path id="path9676" d="M259.4 111.9q1 0 1.8.6c.5.2.7.2.8.9" fill="none" stroke="#808285" stroke-linecap="round" stroke-linejoin="round"/></g><g id="g9678"><path id="path9680" d="M267.7 135.2s-3-1.3-3-4.7c.1-3.3 3.5-3.8 3.5-3.8s-1.2-3.4 1.5-4.6c2.6-1.3 4.5 1 4.5 1s0-3.6 3-3.3c2.9.4 2.8 1.6 2.8 1.6s1.4-2.5 4.5.9c3 3.4 2.8 7 1.5 8.2a18 18 0 0 1-8.4 4.4c-4.2 1-7.9 1.2-10 .3" fill="#ccdde7" stroke="#808285" stroke-linecap="round" stroke-linejoin="round"/><path id="path9682" d="M281.4 154.7s-.1-4.8-2.4-8.1c-5.9.1-7-1.5-9.5-5l-5.1-7.6s2.8.9 4.2 1 3 .9 3 .9l-.1-2.1v-3s.4 0 1.8.9l2.7 1.7s-.2-2 0-3c0-1 .3-2.4.3-2.4l2.8 2.3c.8.6 1.4 2 1.4 2l1-2.8.3-2.1 1.6 2.9.9 1.9s.7-1.7 1.6-2.1 1.8-2.7 1.8-3.5.5-1 .5-1-.9 13.8-2.3 16.2-3.9 4-3.9 4 1 2 1.3 5l.4 5z" fill="#00ab4e" stroke="#005a24" stroke-linecap="round" stroke-linejoin="round"/><path id="path9684" d="M267.8 128c-.8-.8-2.4 1.8-2 3.3q.6 2.3 2 2.4c1 0 1.3-1.4 1.3-1.4s-1.3-.6-1-2c.5-1.4 0-2-.3-2.3" fill="#ffffff"/><path id="path9686" d="M270.3 128c0-.2-1.9-1-1.5-3 .3-2.1 2-2.9 2.7-2.1.6.7 0 2 .7 3s1 2.4.4 2.4-2 .3-2.3-.3" fill="#ffffff"/><path id="path9688" d="M275.2 123.8c-.1-.2-.2-3 .6-3s.4 1 1.2 1.7 1.1 1 .9 1.8c-.3.7-2 .9-2.7-.5" fill="#ffffff"/><path id="path9690" d="M281.6 125c-.3-.4-.7-2.5 0-3s1.5-.5 1.8.6q.7 1.8.3 2.3c-.3.3-1.3 1.4-2.1.1" fill="#ffffff"/><path id="path9692" d="M272.8 128q-1.3 0-2.2.7c-.6.4-.6 1-.8 1.5" fill="none" stroke="#808285" stroke-linecap="round" stroke-linejoin="round"/><path id="path9694" d="M274 126.1q1.2-1.3 2.8-.6" fill="none" stroke="#808285" stroke-linecap="round" stroke-linejoin="round"/><path id="path9696" d="M279.1 124.8c.6-.2 1-.7 1.5-.4q.5.4.7.9" fill="none" stroke="#808285" stroke-linecap="round" stroke-linejoin="round"/><path id="path9698" d="M280 121.3c-.1.9-.4 2.5.2 3" fill="none" stroke="#808285" stroke-linecap="round" stroke-linejoin="round"/><path id="path9700" d="M274 122.9c0 .4.6 1 .8 1.3q.3.6.3 1.1" fill="none" stroke="#808285" stroke-linecap="round" stroke-linejoin="round"/><path id="path9702" d="M268 126.9q1 .1 1.7 1c.4.3.7.3.6 1" fill="none" stroke="#808285" stroke-linecap="round" stroke-linejoin="round"/></g><g id="g9704"><path id="path9706" d="M271.6 152.7s-2.7-1.9-2-5.1c.6-3.3 4-3.3 4-3.3s-.5-3.4 2.3-4.2 4.2 1.7 4.2 1.7.7-3.5 3.5-2.6c2.9.9 2.6 2 2.6 2s1.8-2.2 4.3 1.7c2.4 3.9 1.5 7.3 0 8.4-1.6 1-4.7 2.7-9 2.8-4.4.2-8-.2-9.9-1.4" fill="#ccdde7" stroke="#808285" stroke-linecap="round" stroke-linejoin="round"/><path id="path9708" d="M281.7 174.3s.7-4.7-1-8.5c-5.7-.8-6.6-2.6-8.4-6.6l-3.7-8.3s2.6 1.4 4 1.7 2.7 1.4 2.7 1.4l.3-2 .6-3s.4.1 1.5 1.2l2.5 2.2s0-2 .4-3l.8-2.4 2.3 2.8c.7.8 1 2.2 1 2.2l1.5-2.6.8-2 1.5 5.2s1-1.5 2-1.8c1-.2 2.2-2.3 2.4-3s.6-1 .6-1-3.3 13.5-5 15.6c-1.9 2.1-4.6 3.1-4.6 3.1s.5 2.3.3 5.3l-.5 5z" fill="#00ab4e" stroke="#005a24" stroke-linecap="round" stroke-linejoin="round"/><path id="path9710" d="M273 145.6c-.6-1-2.6 1.4-2.6 2.9q.1 2.3 1.7 2.7c1 .2 1.5-1.1 1.5-1.1s-1.3-.8-.6-2.2c.6-1.3.2-2 0-2.3" fill="#ffffff"/><path id="path9712" d="M275.5 146c0-.1-1.7-1.3-1-3.3s2.6-2.3 3-1.5c.6.9-.2 2 .2 3.1s.5 2.5 0 2.4c-.5 0-2 0-2.2-.6" fill="#ffffff"/><path id="path9714" d="M281 142.8c0-.3.4-3 1.1-2.9s.3 1.2.9 2q1 .9.6 1.8c-.4.7-2 .6-2.6-1" fill="#ffffff"/><path id="path9716" d="M287.1 145.1c-.2-.4-.2-2.7.5-3 .7-.5 1.6-.2 1.7 1q.3 1.8-.1 2.3c-.3.2-1.6 1-2-.3" fill="#ffffff"/><path id="path9718" d="M277.9 146.6q-1.1-.3-2.3.2-.7.5-1 1.3" fill="none" stroke="#808285" stroke-linecap="round" stroke-linejoin="round"/><path id="path9720" d="M279.5 144.8q1.3-1 2.8 0" fill="none" stroke="#808285" stroke-linecap="round" stroke-linejoin="round"/><path id="path9722" d="M284.7 144.4c.6 0 1-.5 1.6 0q.5.3.5 1" fill="none" stroke="#808285" stroke-linecap="round" stroke-linejoin="round"/><path id="path9724" d="M286.2 141.2c-.3.8-.9 2.3-.3 3" fill="none" stroke="#808285" stroke-linecap="round" stroke-linejoin="round"/><path id="path9726" d="M280 141.6c0 .5.5 1 .6 1.5v1.1" fill="none" stroke="#808285" stroke-linecap="round" stroke-linejoin="round"/><path id="path9728" d="M273.4 144.5q1 .4 1.6 1.3.5.4.4 1" fill="none" stroke="#808285" stroke-linecap="round" stroke-linejoin="round"/></g><g id="g9730"><path id="path9732" d="M273 172.3s-2.6-1.9-2-5.1c.7-3.3 4-3.3 4-3.3s-.5-3.4 2.4-4.2c2.8-.8 4.2 1.7 4.2 1.7s.6-3.5 3.5-2.6c2.8.9 2.5 2 2.5 2s1.9-2.2 4.3 1.7 1.6 7.3 0 8.4c-1.5 1-4.7 2.7-9 2.8-4.3.2-8-.2-9.8-1.4" fill="#ccdde7" stroke="#808285" stroke-linecap="round" stroke-linejoin="round"/><path id="path9734" d="M283.1 193.9s.8-4.7-.9-8.5c-5.8-.8-6.7-2.6-8.5-6.6l-3.7-8.3s2.7 1.4 4 1.7c1.4.3 2.7 1.4 2.7 1.4l.4-2 .6-3s.3.1 1.5 1.2l2.4 2.2s.1-2 .4-3l.8-2.4 2.4 2.8c.7.8 1 2.2 1 2.2l1.5-2.6.7-2 1.5 5.2s1-1.5 2-1.8c1-.2 2.3-2.3 2.4-3l.6-1c.1 0-3.2 13.5-5 15.6s-4.6 3.1-4.6 3.1.5 2.3.4 5.3l-.5 5z" fill="#00ab4e" stroke="#005a24" stroke-linecap="round" stroke-linejoin="round"/><path id="path9736" d="M274.5 165.2c-.7-1-2.7 1.4-2.6 2.9q.1 2.3 1.7 2.7c1 .2 1.4-1.2 1.4-1.2s-1.2-.7-.6-2 .3-2 0-2.4" fill="#ffffff"/><path id="path9738" d="M277 165.7c-.1-.2-1.7-1.4-1-3.4s2.5-2.3 3-1.5c.5.9-.3 2 .2 3.1s.5 2.5 0 2.4c-.5 0-2 0-2.3-.6" fill="#ffffff"/><path id="path9740" d="M282.5 162.4c-.1-.3.3-3 1-2.9.9.2.3 1.2 1 2 .5.7 1 1.1.5 1.8s-2 .6-2.5-1" fill="#ffffff"/><path id="path9742" d="M288.6 164.7c-.2-.4-.3-2.7.4-3 .8-.5 1.7-.2 1.8 1q.3 1.8-.1 2.3c-.4.2-1.6 1-2.1-.3" fill="#ffffff"/><path id="path9744" d="M279.3 166.2q-1.2-.3-2.2.2-.8.5-1 1.3" fill="none" stroke="#808285" stroke-linecap="round" stroke-linejoin="round"/><path id="path9746" d="M281 164.4q1.3-1 2.8 0" fill="none" stroke="#808285" stroke-linecap="round" stroke-linejoin="round"/><path id="path9748" d="M286.2 164c.6 0 1-.5 1.5 0q.5.3.5 1" fill="none" stroke="#808285" stroke-linecap="round" stroke-linejoin="round"/><path id="path9750" d="M287.7 160.8c-.3.8-1 2.3-.3 3" fill="none" stroke="#808285" stroke-linecap="round" stroke-linejoin="round"/><path id="path9752" d="M281.5 161.2q.1.7.6 1.5v1.1" fill="none" stroke="#808285" stroke-linecap="round" stroke-linejoin="round"/><path id="path9754" d="M274.9 164.1q.9.4 1.5 1.3.6.4.4 1" fill="none" stroke="#808285" stroke-linecap="round" stroke-linejoin="round"/></g><g id="g9756"><path id="path9758" d="M272.8 191.4s-2.7-2-2-5.2c.6-3.3 4-3.3 4-3.3s-.5-3.5 2.4-4.3c2.8-.8 4.3 1.8 4.3 1.8s.6-3.6 3.5-2.7c2.9 1 2.5 2 2.5 2s2-2.2 4.4 1.8c2.5 3.9 1.6 7.4 0 8.4s-4.8 2.7-9.1 3c-4.4.1-8.1-.3-10-1.6" fill="#ccdde7" stroke="#808285" stroke-linecap="round" stroke-linejoin="round"/><path id="path9760" d="M283 213.3s.8-4.8-1-8.6c-5.8-.9-6.7-2.7-8.5-6.7-1.9-4-3.7-8.5-3.7-8.5s2.6 1.4 4 1.8c1.3.3 2.7 1.4 2.7 1.4l.4-2.1.6-2.9s.3 0 1.5 1.1l2.5 2.2s0-2 .4-3l.8-2.3 2.4 2.8c.7.8 1 2.2 1 2.2l1.5-2.6.8-2s.6 2.4 1 3.1c.3.8.5 2.1.5 2.1s1-1.6 2-1.8c1-.3 2.3-2.4 2.4-3.1q.5-1 .7-1c.2 0-3.4 13.7-5.2 15.8s-4.6 3.2-4.6 3.2.6 2.3.4 5.3l-.5 5.1z" fill="#00ab4e" stroke="#005a24" stroke-linecap="round" stroke-linejoin="round"/><path id="path9762" d="M274.2 184.2c-.6-1-2.7 1.4-2.6 2.9q.1 2.4 1.7 2.7c1 .2 1.5-1.1 1.5-1.1s-1.3-.8-.6-2.2c.6-1.3.2-2 0-2.3" fill="#ffffff"/><path id="path9764" d="M276.8 184.7c-.1-.2-1.7-1.4-1-3.4s2.6-2.4 3-1.5c.5.8-.2 2 .2 3 .4 1.2.5 2.6 0 2.6-.5-.1-2-.1-2.3-.7" fill="#ffffff"/><path id="path9766" d="M282.4 181.3c-.1-.2.3-3 1-2.8.9.1.3 1 1 1.9q1 1 .5 1.9c-.4.7-2 .5-2.5-1" fill="#ffffff"/><path id="path9768" d="M288.5 183.7c-.2-.5-.2-2.7.5-3.1s1.6-.2 1.8 1q.3 1.9-.2 2.3c-.3.3-1.5 1.2-2-.2" fill="#ffffff"/><path id="path9770" d="M279.2 185.2q-1.2-.3-2.3.2-.8.5-1 1.3" fill="none" stroke="#808285" stroke-linecap="round" stroke-linejoin="round"/><path id="path9772" d="M280.8 183.4q1.4-1 2.9 0" fill="none" stroke="#808285" stroke-linecap="round" stroke-linejoin="round"/><path id="path9774" d="M286.1 183c.6-.1 1-.5 1.6 0q.4.2.5.9" fill="none" stroke="#808285" stroke-linecap="round" stroke-linejoin="round"/><path id="path9776" d="M287.6 179.7c-.3.8-.9 2.4-.3 3" fill="none" stroke="#808285" stroke-linecap="round" stroke-linejoin="round"/><path id="path9778" d="M281.4 180.2c-.1.4.4 1 .5 1.5q.3.5 0 1.1" fill="none" stroke="#808285" stroke-linecap="round" stroke-linejoin="round"/><path id="path9780" d="M274.6 183.1q1.1.4 1.6 1.3c.3.4.6.5.4 1.1" fill="none" stroke="#808285" stroke-linecap="round" stroke-linejoin="round"/></g><g id="g9782"><path id="path9784" d="M273.5 212.6s-2.7-1.8-2-5.1 4-3.3 4-3.3-.5-3.5 2.4-4.3c2.8-.8 4.3 1.8 4.3 1.8s.6-3.6 3.5-2.7 2.6 2 2.6 2 1.9-2.2 4.3 1.8c2.5 3.9 1.6 7.4 0 8.4a19 19 0 0 1-9.1 3q-6.8.3-10-1.6" fill="#ccdde7" stroke="#808285" stroke-linecap="round" stroke-linejoin="round"/><path id="path9786" d="M283.8 234.5s.7-4.8-1-8.5c-5.9-.9-6.7-2.7-8.6-6.8l-3.7-8.4s2.6 1.4 4 1.8c1.4.3 2.8 1.4 2.8 1.4l.3-2.1.6-3 1.6 1.2 2.4 2.2s.1-2 .4-3l.8-2.4 2.4 2.9c.8.8 1 2.2 1 2.2l1.5-2.6.8-2 1 3.1.5 2s1-1.5 2-1.7c1-.3 2.3-2.4 2.5-3.1.1-.7.6-1 .6-1s-3.3 13.7-5.1 15.8-4.6 3.2-4.6 3.2.5 2.3.3 5.3l-.5 5.1z" fill="#00ab4e" stroke="#005a24" stroke-linecap="round" stroke-linejoin="round"/><path id="path9788" d="M275 205.5c-.7-1-2.7 1.4-2.7 2.9q.1 2.4 1.8 2.7c1 .2 1.4-1.1 1.4-1.1s-1.2-.8-.6-2.2c.7-1.3.3-2 0-2.3" fill="#ffffff"/><path id="path9790" d="M277.5 206c0-.3-1.7-1.5-1-3.4.7-2 2.6-2.4 3-1.6.6.9-.2 2 .2 3.2.5 1.1.5 2.5 0 2.4-.5 0-2 0-2.2-.6" fill="#ffffff"/><path id="path9792" d="M283 202.6c0-.2.4-3 1.2-2.9s.3 1.2.9 2q1 1 .6 1.9c-.4.7-2 .5-2.6-1" fill="#ffffff"/><path id="path9794" d="M289.3 205c-.2-.5-.3-2.7.4-3.1.8-.4 1.7-.2 1.8 1q.3 1.9-.1 2.3c-.4.2-1.6 1.2-2.1-.2" fill="#ffffff"/><path id="path9796" d="M279.9 206.5q-1.2-.3-2.3.2-.8.5-1 1.3" fill="none" stroke="#808285" stroke-linecap="round" stroke-linejoin="round"/><path id="path9798" d="M281.6 204.7q1.3-1 2.8 0" fill="none" stroke="#808285" stroke-linecap="round" stroke-linejoin="round"/><path id="path9800" d="M286.8 204.3c.6-.1 1-.5 1.6-.1q.5.3.5 1" fill="none" stroke="#808285" stroke-linecap="round" stroke-linejoin="round"/><path id="path9802" d="M288.3 201c-.3.8-.9 2.4-.3 3" fill="none" stroke="#808285" stroke-linecap="round" stroke-linejoin="round"/><path id="path9804" d="M282 201.5c0 .4.5 1 .6 1.5q.3.5 0 1.1" fill="none" stroke="#808285" stroke-linecap="round" stroke-linejoin="round"/><path id="path9806" d="M275.4 204.4q.9.4 1.5 1.3c.4.4.6.4.4 1" fill="none" stroke="#808285" stroke-linecap="round" stroke-linejoin="round"/></g><g id="g9808"><path id="path9810" d="M273.8 233.1s-2.5-2.1-1.5-5.4c1-3.2 4.4-2.8 4.4-2.8s-.1-3.5 2.8-4 4 2.2 4 2.2 1-3.4 3.8-2.2 2.4 2.3 2.4 2.3 2.1-2 4.1 2.2.8 7.5-.9 8.4c-1.7.8-5 2.2-9.4 1.9s-8-1.2-9.7-2.6" fill="#ccdde7" stroke="#808285" stroke-linecap="round" stroke-linejoin="round"/><path id="path9812" d="M281.5 256s1.3-4.7 0-8.6c-5.7-1.5-6.4-3.5-7.8-7.6L271 231s2.5 1.7 3.8 2.1c1.4.5 2.6 1.8 2.6 1.8l.6-2 1-2.9 1.3 1.3 2.2 2.4s.3-2 .7-2.8l1.1-2.4 2.1 3.1c.6.9.8 2.3.8 2.3l1.7-2.4 1-2 1 5.4s1.1-1.4 2.2-1.6c1 0 2.5-2 2.7-2.8q.6-1 .7-.8c.1.2-4.7 13.2-6.8 15-2 2-4.9 2.7-4.9 2.7s.3 2.3-.2 5.4l-1.1 5z" fill="#00ab4e" stroke="#005a24" stroke-linecap="round" stroke-linejoin="round"/><path id="path9814" d="M276 226.2c-.6-1-2.9 1-3 2.6q0 2.3 1.4 2.9c1 .3 1.6-1 1.6-1s-1.1-1-.3-2.2.4-2 .2-2.3" fill="#ffffff"/><path id="path9816" d="M278.4 226.9c0-.2-1.5-1.6-.6-3.5s2.8-2 3.2-1.2c.4 1-.5 2-.2 3.2.3 1.1.3 2.5-.2 2.4-.5 0-2-.3-2.2-.9" fill="#ffffff"/><path id="path9818" d="M284.4 224.2c-.1-.3.6-3 1.4-2.7s.1 1.1.6 2q1 1 .4 2c-.5.6-2 .3-2.4-1.3" fill="#ffffff"/><path id="path9820" d="M290.2 227.2c-.1-.5 0-2.7.8-3s1.7 0 1.7 1.2q.1 1.9-.4 2.3c-.4.2-1.7 1-2-.5" fill="#ffffff"/><path id="path9822" d="M280.8 227.7q-1.2-.5-2.3 0-.9.3-1.2 1.1" fill="none" stroke="#808285" stroke-linecap="round" stroke-linejoin="round"/><path id="path9824" d="M282.6 226.1q1.5-1 2.8.2" fill="none" stroke="#808285" stroke-linecap="round" stroke-linejoin="round"/><path id="path9826" d="M287.9 226.2c.6 0 1-.3 1.6.1q.4.5.4 1" fill="none" stroke="#808285" stroke-linecap="round" stroke-linejoin="round"/><path id="path9828" d="M289.7 223.1c-.3.8-1.1 2.3-.6 3" fill="none" stroke="#808285" stroke-linecap="round" stroke-linejoin="round"/><path id="path9830" d="M283.5 223c-.1.4.3 1 .4 1.5l-.1 1.1" fill="none" stroke="#808285" stroke-linecap="round" stroke-linejoin="round"/><path id="path9832" d="M276.5 225.1q1 .6 1.4 1.4c.3.5.5.6.3 1.2" fill="none" stroke="#808285" stroke-linecap="round" stroke-linejoin="round"/></g><g id="g9834"><path id="path9836" d="M271.6 254s-2.3-2.3-1-5.4 4.6-2.4 4.6-2.4.2-3.6 3.2-3.8 3.8 2.6 3.8 2.6 1.4-3.4 4-2c2.7 1.5 2.1 2.6 2.1 2.6s2.3-1.8 4 2.5c1.6 4.4 0 7.6-1.7 8.3s-5.2 1.7-9.5 1c-4.4-.6-7.9-1.8-9.5-3.4" fill="#ccdde7" stroke="#808285" stroke-linecap="round" stroke-linejoin="round"/><path id="path9838" d="M277.3 277.5s1.7-4.5.8-8.6c-5.6-2-6.1-4-7.1-8.2l-2-9s2.3 1.9 3.6 2.4 2.4 2 2.4 2 0-.5.8-2l1.1-2.7s.3.1 1.3 1.4l2 2.6s.5-1.9 1-2.8l1.2-2.2 1.8 3.2c.6 1 .6 2.4.6 2.4l2-2.3 1-1.8.4 3.3c.2.8.2 2.2.2 2.2s1.3-1.4 2.3-1.4 2.7-2 3-2.6q.6-.9.8-.7c.2.2-6 12.6-8.1 14.4-2.2 1.7-5.2 2.2-5.2 2.2s0 2.3-.7 5.3l-1.5 4.9z" fill="#00ab4e" stroke="#005a24" stroke-linecap="round" stroke-linejoin="round"/><path id="path9840" d="M274.4 247.3c-.4-1-3 .9-3.1 2.3q-.4 2.4 1.1 3c1 .4 1.7-.8 1.7-.8s-1.1-1-.2-2.2.6-2 .5-2.3" fill="#ffffff"/><path id="path9842" d="M276.8 248.3c0-.3-1.4-1.8-.3-3.6s3-1.8 3.3-.8-.7 1.9-.5 3 0 2.6-.4 2.5-2-.5-2.1-1.1" fill="#ffffff"/><path id="path9844" d="M283 246c-.1-.2.8-2.8 1.6-2.5s0 1.2.5 2q.8 1.3.2 2c-.6.7-2.1.2-2.4-1.4" fill="#ffffff"/><path id="path9846" d="M288.5 249.6c0-.5.3-2.7 1-3q1.5-.3 1.6 1.4 0 1.9-.6 2.3c-.3.1-1.7.8-2-.7" fill="#ffffff"/><path id="path9848" d="M279 249.2q-1-.5-2.2-.2-1 .3-1.3 1" fill="none" stroke="#808285" stroke-linecap="round" stroke-linejoin="round"/><path id="path9850" d="M281 247.8q1.6-.7 2.8.5" fill="none" stroke="#808285" stroke-linecap="round" stroke-linejoin="round"/><path id="path9852" d="M286.3 248.4c.6 0 1.1-.2 1.5.3q.4.5.3 1" fill="none" stroke="#808285" stroke-linecap="round" stroke-linejoin="round"/><path id="path9854" d="M288.4 245.5c-.5.8-1.3 2.2-1 3" fill="none" stroke="#808285" stroke-linecap="round" stroke-linejoin="round"/><path id="path9856" d="M282.2 244.7c-.2.5.2 1.2.2 1.6q.1.6-.2 1.2" fill="none" stroke="#808285" stroke-linecap="round" stroke-linejoin="round"/><path id="path9858" d="M275 246.3q1 .6 1.3 1.6c.3.4.5.5.2 1.2" fill="none" stroke="#808285" stroke-linecap="round" stroke-linejoin="round"/></g><g id="g9860"><path id="path9862" d="M268.7 274.4s-1.6-3 .5-5.7 5.2-1.1 5.2-1.1 1.1-3.5 4-3c3 .7 3.2 3.6 3.2 3.6s2.2-3 4.5-.8c2.2 2.1 1.4 3 1.4 3s2.7-1.1 3.2 3.6-1.9 7.5-3.8 7.7-5.6.4-9.7-1.4-7.3-4-8.5-5.9" fill="#ccdde7" stroke="#808285" stroke-linecap="round" stroke-linejoin="round"/><path id="path9864" d="M268.2 299.1s2.9-4 3-8.3c-5-3.4-5-5.5-4.8-10 0-4.5.4-9.5.4-9.5s1.7 2.6 2.9 3.5c1 .9 1.8 2.6 1.8 2.6s.3-.6 1.3-1.8l1.9-2.4.9 1.7 1.2 3.1s1-1.7 1.7-2.5l1.9-1.8s.6 2.6 1 3.6a7 7 0 0 1-.2 2.5l2.6-1.7 1.6-1.5s-.5 2.5-.5 3.4l-.5 2.1s1.7-1 2.7-.8c1 .3 3.2-1.1 3.6-1.7q.9-.7 1-.5c.1.2-9.2 11-11.8 12-2.6 1.2-5.7.9-5.7.9s-.5 2.3-2 5l-2.8 4.5z" fill="#00ab4e" stroke="#005a24" stroke-linecap="round" stroke-linejoin="round"/><path id="path9866" d="M273.3 268.5c-.2-1.2-3.1 0-3.8 1.5q-1 2.2.4 3.3c.8.6 1.9-.4 1.9-.4s-.8-1.3.4-2.3 1.1-1.7 1-2.1" fill="#ffffff"/><path id="path9868" d="M275.4 270c0-.2-1-2 .6-3.5 1.5-1.5 3.5-1 3.5 0s-1.1 1.7-1.3 3c0 1.2-.6 2.5-1 2.2s-2-1-1.8-1.6" fill="#ffffff"/><path id="path9870" d="M282 269.5c0-.2 1.7-2.6 2.4-2 .6.4-.3 1-.1 2q.5 1.5-.3 2c-.7.5-2.2-.3-2-2" fill="#ffffff"/><path id="path9872" d="M286.6 274.5c0-.5 1-2.6 1.9-2.6.8-.1 1.5.6 1.1 1.7q-.6 1.8-1.2 2c-.4.1-2 .4-1.8-1.1" fill="#ffffff"/><path id="path9874" d="M277.4 271.6q-1-.8-2.2-.8-1 .1-1.6.7" fill="none" stroke="#808285" stroke-linecap="round" stroke-linejoin="round"/><path id="path9876" d="M279.7 270.8q1.7-.4 2.6 1.2" fill="none" stroke="#808285" stroke-linecap="round" stroke-linejoin="round"/><path id="path9878" d="M284.7 272.7c.6.2 1.2 0 1.5.7v1.1" fill="none" stroke="#808285" stroke-linecap="round" stroke-linejoin="round"/><path id="path9880" d="M287.6 270.4c-.7.6-2 1.8-1.7 2.7" fill="none" stroke="#808285" stroke-linecap="round" stroke-linejoin="round"/><path id="path9882" d="m281.6 268-.1 1.6q0 .6-.5 1.1" fill="none" stroke="#808285" stroke-linecap="round" stroke-linejoin="round"/><path id="path9884" d="M274.2 267.7q.6.7.8 1.8c.1.6.3.7-.1 1.3" fill="none" stroke="#808285" stroke-linecap="round" stroke-linejoin="round"/></g><g id="g9886"><path id="path9888" d="M260 293.4s-1.5-3.1 1-5.8c2.3-2.7 5.4-.8 5.4-.8s1.4-3.5 4.4-2.7 3 4 3 4 2.5-3 4.6-.6c2.2 2.3 1.3 3.2 1.3 3.2s3-1 3 3.9c.2 5-2.4 7.6-4.4 7.7s-5.9 0-10-2.2-7.2-4.5-8.3-6.7" fill="#ccdde7" stroke="#808285" stroke-linecap="round" stroke-linejoin="round"/><path id="path9890" d="M257.7 319s3.2-4 3.7-8.4c-5-4-4.7-6.1-4.3-10.8l1.1-9.7s1.7 2.7 2.8 3.8 1.7 2.8 1.7 2.8l1.5-1.8 2-2.3s.3.2.9 1.8l1 3.4s1.2-1.8 2-2.5l2-1.8.7 3.9c.3 1-.3 2.5-.3 2.5l2.8-1.6 1.8-1.4-.8 3.4c-.1.9-.6 2.2-.6 2.2s1.7-.9 2.8-.6 3.4-1 3.9-1.5 1-.5 1-.5-10.3 10.7-13 11.7c-2.8 1-6 .4-6 .4s-.7 2.3-2.5 5l-3.2 4.5z" fill="#00ab4e" stroke="#005a24" stroke-linecap="round" stroke-linejoin="round"/><path id="path9892" d="M265.1 287.7c0-1.3-3.2-.2-3.9 1.2-.8 1.4-.7 2.8.1 3.4s2-.2 2-.2-.7-1.4.6-2.3 1.3-1.7 1.2-2.2" fill="#ffffff"/><path id="path9894" d="M267.2 289.4c0-.2-.8-2.2.9-3.6 1.7-1.5 3.7-.8 3.7.2 0 1.1-1.4 1.7-1.6 3s-.9 2.6-1.3 2.3-1.8-1.2-1.7-1.9" fill="#ffffff"/><path id="path9896" d="M274.1 289.4c0-.3 2-2.6 2.6-2 .6.5-.4 1.1-.2 2.1 0 1 .2 1.7-.5 2.1-.8.5-2.2-.6-1.9-2.2" fill="#ffffff"/><path id="path9898" d="M278.5 294.8c0-.5 1.2-2.6 2.1-2.6s1.6.8 1 2c-.4 1-.9 2-1.3 2s-2 .2-1.8-1.4" fill="#ffffff"/><path id="path9900" d="M269.2 291.2a4 4 0 0 0-2.3-1q-.9 0-1.6.6" fill="none" stroke="#808285" stroke-linecap="round" stroke-linejoin="round"/><path id="path9902" d="M271.6 290.5q1.8-.4 2.6 1.4" fill="none" stroke="#808285" stroke-linecap="round" stroke-linejoin="round"/><path id="path9904" d="M276.7 292.9c.6.2 1.2 0 1.4.7q.2.7 0 1.2" fill="none" stroke="#808285" stroke-linecap="round" stroke-linejoin="round"/><path id="path9906" d="M279.8 290.7c-.7.6-2 1.7-2 2.6" fill="none" stroke="#808285" stroke-linecap="round" stroke-linejoin="round"/><path id="path9908" d="M273.8 287.8q-.3.7-.3 1.6 0 .6-.6 1.1" fill="none" stroke="#808285" stroke-linecap="round" stroke-linejoin="round"/><path id="path9910" d="M266.1 286.9c.6.5.6 1.3.8 2 0 .5.2.7-.3 1.2" fill="none" stroke="#808285" stroke-linecap="round" stroke-linejoin="round"/></g><g id="g9912"><path id="path9914" d="M247 309.8s-.7-3.4 2.2-5.5 5.5.3 5.5.3 2.1-3.1 4.9-1.7 2 4.5 2 4.5 3.1-2.3 4.7.4c1.7 2.8.6 3.5.6 3.5s3-.4 2.2 4.4c-.9 4.8-4 7-6 6.6-2-.3-5.7-1.3-9.3-4.2s-6.1-6-6.7-8.3" fill="#ccdde7" stroke="#808285" stroke-linecap="round" stroke-linejoin="round"/><path id="path9916" d="M239.4 334.2s4-3.2 5.4-7.3c-4-5-3.3-7-2-11.4l3.2-9.3s1 3 1.9 4.2 1.1 3.1 1.1 3.1l1.8-1.4 2.5-1.8s.2.3.5 2l.3 3.4s1.5-1.4 2.4-2l2.4-1.3-.1 4c0 1-.9 2.4-.9 2.4l3-1 2.1-1s-1.2 2.3-1.5 3.2l-1 2s1.9-.6 2.9 0 3.4-.3 4-.7q1.1-.4 1.2-.3a81 81 0 0 1-15.2 8.7c-3 .4-5.9-.8-5.9-.8s-1.2 2.1-3.6 4.4q-3.8 3.6-4 3.6z" fill="#00ab4e" stroke="#005a24" stroke-linecap="round" stroke-linejoin="round"/><path id="path9918" d="M253.3 305.2c.2-1.2-3.1-.8-4.1.4s-1.3 2.6-.7 3.4 2 .2 2 .2-.4-1.6 1-2.2c1.6-.5 1.7-1.4 1.8-1.8" fill="#ffffff"/><path id="path9920" d="M255 307.4c0-.2-.4-2.3 1.6-3.4 1.9-1 3.7 0 3.5 1s-1.7 1.4-2.1 2.6-1.4 2.3-1.8 2c-.3-.5-1.6-1.6-1.3-2.2" fill="#ffffff"/><path id="path9922" d="M261.7 308.8c.1-.3 2.4-2.1 3-1.5.5.7-.7 1.1-.7 2.1q0 1.6-1 2c-.8.2-2-1-1.3-2.6" fill="#ffffff"/><path id="path9924" d="M264.8 315c.2-.5 1.8-2.3 2.6-2 .9.1 1.4 1 .7 2q-1.2 1.7-1.8 1.7c-.4 0-2-.2-1.5-1.7" fill="#ffffff"/><path id="path9926" d="M256.5 309.5a4 4 0 0 0-2-1.5q-1-.1-1.7.3" fill="none" stroke="#808285" stroke-linecap="round" stroke-linejoin="round"/><path id="path9928" d="M259 309.3q1.8 0 2.3 2" fill="none" stroke="#808285" stroke-linecap="round" stroke-linejoin="round"/><path id="path9930" d="M263.5 312.7c.5.4 1.1.4 1.2 1.1q0 .7-.3 1.2" fill="none" stroke="#808285" stroke-linecap="round" stroke-linejoin="round"/><path id="path9932" d="M267 311.2c-.8.5-2.4 1.3-2.5 2.2" fill="none" stroke="#808285" stroke-linecap="round" stroke-linejoin="round"/><path id="path9934" d="M261.8 307.1c-.4.4-.5 1.2-.7 1.6q-.2.6-.8 1" fill="none" stroke="#808285" stroke-linecap="round" stroke-linejoin="round"/><path id="path9936" d="M254.4 304.7q.5 1 .3 2 .2.8-.5 1.2" fill="none" stroke="#808285" stroke-linecap="round" stroke-linejoin="round"/></g><g id="g9938"><path id="path9940" d="M231.4 323.9s.2-3.6 3.8-4.9c3.5-1.2 5.4 2 5.4 2s3-2.4 5.4-.1.7 5 .7 5 3.8-1.3 4.6 2-.6 3.5-.6 3.5 3.2.6.9 5.2c-2.4 4.5-6.2 5.6-8 4.7-2-.9-5.4-3-8-7-2.7-4.1-4.3-8-4.2-10.4" fill="#ccdde7" stroke="#808285" stroke-linecap="round" stroke-linejoin="round"/><path id="path9942" d="M216.2 346s5-2 7.7-5.7c-2.5-6.1-1.2-8 1.5-12l6-8.4s.1 3.4.6 4.9.2 3.4.2 3.4.5-.3 2.2-.8l3.1-1.1s.1.4-.2 2.1l-.7 3.6s2-1 3-1.3l2.8-.6-1.3 4c-.4 1-1.6 2.1-1.6 2.1h3.3l2.4-.5s-2 2-2.5 2.8-1.6 1.7-1.6 1.7 2 0 2.8.9 3.6.8 4.4.6c.7-.3 1.2 0 1.2 0s-14.9 4.5-18 4-5.6-2.6-5.6-2.6-1.8 1.8-4.9 3.3l-5.1 2.4z" fill="#00ab4e" stroke="#005a24" stroke-linecap="round" stroke-linejoin="round"/><path id="path9944" d="M239 321.2c.6-1.1-2.8-1.8-4.2-.9q-2.3 1.6-1.7 3.2c.4 1 2 .8 2 .8s0-1.7 1.6-1.8 2.1-1 2.3-1.3" fill="#ffffff"/><path id="path9946" d="M240 323.9c.2-.2.4-2.4 2.6-2.9s3.8 1.2 3.3 2.1-2.1.9-3 2c-.8 1-2 1.8-2.3 1.3s-1.1-2-.6-2.5" fill="#ffffff"/><path id="path9948" d="M246.3 327.4c.2-.3 3-1.4 3.4-.6.3.9-1 .9-1.3 2-.4 1-.6 1.5-1.5 1.6-1 0-1.7-1.7-.6-3" fill="#ffffff"/><path id="path9950" d="M247.6 334.6c.3-.4 2.4-1.8 3.2-1.3s1 1.5 0 2.3q-1.7 1.2-2.3 1.1c-.4-.2-2-.8-1-2.1" fill="#ffffff"/><path id="path9952" d="M240.9 326.5q-.5-1.3-1.5-2t-1.9-.4" fill="none" stroke="#808285" stroke-linecap="round" stroke-linejoin="round"/><path id="path9954" d="M243.5 327q1.8.8 1.7 2.7" fill="none" stroke="#808285" stroke-linecap="round" stroke-linejoin="round"/><path id="path9956" d="M246.9 331.9q.8.6 1 1.4-.2.6-.7 1" fill="none" stroke="#808285" stroke-linecap="round" stroke-linejoin="round"/><path id="path9958" d="M250.9 331.4c-1 .2-2.8.5-3.2 1.5" fill="none" stroke="#808285" stroke-linecap="round" stroke-linejoin="round"/><path id="path9960" d="M246.9 325.7q-.7.6-1.1 1.4a2 2 0 0 1-1.1.7" fill="none" stroke="#808285" stroke-linecap="round" stroke-linejoin="round"/><path id="path9962" d="M240.3 321q.1 1.2-.3 2.2c-.2.6-.2.8-.9 1" fill="none" stroke="#808285" stroke-linecap="round" stroke-linejoin="round"/></g><g id="g9964"><path id="path9966" d="M212 334.7s1.4-3.6 5.4-3.7 4.8 3.8 4.8 3.8 4-1.5 5.7 1.6-1 5.4-1 5.4 4.3-.2 4 3.4-1.7 3.5-1.7 3.5 3.1 1.6-.8 5.5-8.1 3.8-9.7 2.3-4.5-4.8-5.9-9.8-1.8-9.4-.9-12" fill="#ccdde7" stroke="#808285" stroke-linecap="round" stroke-linejoin="round"/><path id="path9968" d="M189.3 352.4s5.7-.4 9.6-3.4c-.5-7 1.4-8.5 5.5-11.7s8.8-6.6 8.8-6.6-1 3.5-1 5.1-.9 3.6-.9 3.6l2.6-.1 3.5-.1s0 .4-.9 2l-1.9 3.5s2.3-.4 3.5-.3l3 .3-2.6 3.5c-.7 1-2.3 1.8-2.3 1.8l3.4 1 2.6.3-3.4 2-2.3 1.2s2.1.8 2.7 1.9 3.3 2 4.2 2 1.2.5 1.2.5-16.6-.3-19.6-1.8-4.9-4.5-4.9-4.5-2.5 1.2-6 1.8c-3.8.6-6.1.8-6.1.8z" fill="#00ab4e" stroke="#005a24" stroke-linecap="round" stroke-linejoin="round"/><path id="path9970" d="M220.6 334.5c1-1-2.3-2.8-4-2.3s-2.9 1.5-2.8 2.7 1.7 1.4 1.7 1.4.6-1.6 2.4-1.2 2.4-.3 2.7-.6" fill="#ffffff"/><path id="path9972" d="M220.7 337.5c.3-.1 1.2-2.3 3.7-2s3.4 2.4 2.6 3.2-2.4.2-3.6 1-2.8 1.2-2.9.6-.4-2.4.2-2.8" fill="#ffffff"/><path id="path9974" d="M226 343.2c.4-.2 3.7-.5 3.7.5s-1.2.6-2 1.5q-.8 1.5-2 1.2c-1-.3-1.2-2.2.4-3.2" fill="#ffffff"/><path id="path9976" d="M225 350.9c.4-.3 3-1 3.7-.3s.6 1.9-.7 2.4-2.4.8-2.8.4-1.7-1.5-.2-2.5" fill="#ffffff"/><path id="path9978" d="M220.8 340.5q0-1.5-.9-2.6c-.5-.7-1.1-.7-1.8-.9" fill="none" stroke="#808285" stroke-linecap="round" stroke-linejoin="round"/><path id="path9980" d="M223.3 342q1.6 1.2.8 3.2" fill="none" stroke="#808285" stroke-linecap="round" stroke-linejoin="round"/><path id="path9982" d="M225.2 348c.2.6.8 1 .5 1.7q-.4.7-1 .9" fill="none" stroke="#808285" stroke-linecap="round" stroke-linejoin="round"/><path id="path9984" d="M229.4 348.8c-1-.2-3-.4-3.7.4" fill="none" stroke="#808285" stroke-linecap="round" stroke-linejoin="round"/><path id="path9986" d="M227.2 341.7c-.6 0-1.2.7-1.6 1q-.6.4-1.4.4" fill="none" stroke="#808285" stroke-linecap="round" stroke-linejoin="round"/><path id="path9988" d="M222 334.7q-.2 1.3-1 2.1c-.5.5-.5.8-1.3.8" fill="none" stroke="#808285" stroke-linecap="round" stroke-linejoin="round"/></g></g><g id="g9990"><g id="g9992" stroke="#000000" stroke-linecap="round" stroke-linejoin="round"><g id="g9994"><path id="path9996" d="M165.5 353s-.9 2.3-5.1 7-7 6-7 6 .6-.7-3.2-1-6.9-.6-7.2-1.7 1-1.6 2.3-2 6.6-2.7 10.5-5.3 6-4.2 6-4.2 3.3.7 3.7 1.2" fill="#ccdde7"/><path id="path9998" d="M144.9 352.7s1.2 3.2 9.8 2.9 11.6-1.6 11.6-1.6-8.2-4.7-14-4.6-7.4 3.3-7.4 3.3" fill="#839097"/><path id="path10000" d="M166.4 346s-9.2-9.8-16.2-9.8-10 3.5-8 6.9 2.1 4.9 2 6.4-.3 3 .7 3.2 4.2-2.4 9-1.2 12.4 2.5 12.4 2.5z" fill="#ccdde7"/></g><g id="g10002"><path id="path10004" d="M172.5 353s.9 2.3 5 7 7 6 7 6-.6-.7 3.2-1 7-.6 7.2-1.7-1-1.6-2.2-2-6.7-2.7-10.6-5.3-5.9-4.2-5.9-4.2-3.3.7-3.7 1.2" fill="#ccdde7"/><path id="path10006" d="M193 352.7s-1.2 3.2-9.7 2.9-11.7-1.6-11.7-1.6 8.2-4.7 14.1-4.6c5.9 0 7.4 3.3 7.4 3.3" fill="#839097"/><path id="path10008" d="M171.6 346s9.1-9.8 16.2-9.8 10 3.5 8 6.9c-2 3.3-2.2 4.9-2 6.4s.2 3-.7 3.2-4.2-2.4-9-1.2-12.4 2.5-12.4 2.5z" fill="#ccdde7"/></g></g><path id="path10010" d="M173 353.2c0 1.5-1.3 2.8-2.9 2.8h-2.3a3 3 0 0 1-2.8-2.8v-6.9c0-1.5 1.2-2.8 2.8-2.8h2.3c1.6 0 2.9 1.3 2.9 2.8z" fill="#ccdde7" stroke="#000000" stroke-linecap="round" stroke-linejoin="round"/><path id="path10012" d="M163.2 344.7s-7.2-6.5-12-6.7-9 1.8-7.3 3.3 1.8 1.5 3.4 2.7 1.8 1.7 1 2.3-2.6 2.8.2 2.7 6.8-1.1 8.7-.8 5.6 2.9 5.6 2.9l-3.4-3.4 3.8.4-4.2-2.5s3.4-1.4 4.1-.9" fill="#ffffff"/><path id="path10014" d="M171.5 345.6s-4.8-2.3-5 .1-1 5.8.6 6.3 3 .2 3.2-.6-2.5-5 1.2-5.8" fill="#ffffff"/><path id="path10016" d="M193.1 339.3s-3-2.6-8-1-9.8 6.7-9.8 6.7l4.8-1.4s-3.3 3.3-3.7 3.4l3.8-.4-4.6 3.8s9.2-3.4 11.7-3.4 4.5.5 4.2-1.3-2.6-3.2-1.4-3.6 4.5.4 3-2.8" fill="#ffffff"/><path id="path10018" d="M158.8 357.3s-4.1 5-5.4 5.7-6.7 1-7.1.3 1.4-1 2.5-1.6l8.7-5s2.8-.2 1.3.6" fill="#ffffff"/><path id="path10020" d="M178.7 356.6s10.9 4.3 11.4 5.2-2.8 1.7-4 1.2-3.6-1-4.3-1.9-5.3-3-3-4.5" fill="#ffffff"/></g><g id="g10022"><path id="path10024" d="M224.4 275s3.1-.2 3.8.8.6 2.3 3.9 2.3 5.2-1.2 7.8-1 3.5.7 3.5.7l-2 1h2.6l-3 1.7 4.8.2 6.8-.3s-5.8 2.3-8 3.4-5.6 1.5-5.6 1.5l3.7.7s-3 .3-7 .1-7.2-1.8-9.5-4.7-3.6-6-1.8-6.4"/><path id="path10026" d="M203 252.9s5 3.2 5.5 5 2 2.3 2 2.3 4.2 3 9 7 6 2.9 6 4.7.2 3-.3 3.4-.5 2-2.3 1.3-2.8-1.5-3-1-1 3.6-6.6 5.1-10.4.3-10.7-1 .5-2.3.5-2.3 4.3 0 7.2-2 3.1-4.2 3.1-4.2l-6.7-6.7s-1.8-2.1-2.8-2.1-2.8.8-4-1.8-1-3.5-1-3.5z" fill="#725120" stroke="#4a3613" stroke-linecap="round" stroke-linejoin="round"/><g id="g10028"><path id="path10030" d="M93.2 177.7 200 258.4s1-.3 2.5-2 1.4-5 1.4-5-53.5-50.6-67.8-62.2-29.9-16.5-42.9-11.5" fill="#bacad3" stroke="#000000" stroke-linecap="round" stroke-linejoin="round"/><path id="path10032" d="m198.7 252.9-87.3-71s-3.6-1.9-8.7-1l-4.2-2.9s9.4-2.2 20.1 2.2c8.4 3.4 15 8.2 25.9 18.1s53.7 50.5 53.7 50.5z" fill="#ffffff"/><path id="path10034" d="m198.7 252.9-83.8-68.2c-3-2.2-7-4-12.2-3.7" fill="none" stroke="#000000" stroke-linecap="round" stroke-linejoin="round"/></g><path id="path10036" d="m209 261 11.4 10s.1 2-.8 2-1.4.8-1.4.8-1 2.8-3.7 3.6-5.2.6-5.2.6 5.6-3.6 6.2-4.8.5-3.2.5-3.2l-7-7s-1.4-1 0-2" fill="#bb7d2b"/></g><g id="g10038"><g id="g10040"><path id="path10042" d="M228.7 172.3s-6.8 11.3-10.4 13.5-7.4 7.3-8.8 10-2.7 6.5-7.4 9.4-9.2 6.2-11.6 10.5-3.5 8.8-9.5 12.5-9.5 4.8-11.7 7.7-5.2 13-11.5 20-8.3 4.5-9.2 9.5-1.6 12.2-1.6 12.2L123.4 252s.3-2 1-2 24.6-7.4 29.2-14 4.4-11.2 9-14 13.2-5.3 17.3-9.4 3.7-8.5 7.2-11.7 8.7-4.2 12.8-8 5.2-8.3 8.6-10 5.3-1.8 7.8-3.5 7.3-5.6 8.7-6.1 3.7-1 3.7-1" fill="#bacad3" stroke="#000000" stroke-linecap="round" stroke-linejoin="round"/><path id="path10044" d="M224.3 175.5s-4 6-7.5 7.6-6 1.5-6 1.5l5.2-3.2c3.6-2.2 8.3-6 8.3-6" fill="#ffffff"/><path id="path10046" d="M201.2 198.6s-2.4 2.7-5.2 3.7-5.8 3.2-5.8 3.2-2.5-3.7 1.9-5.8 6.6-1.7 8.3-4.5 1.2 1.8.8 3.4" fill="#ffffff"/><path id="path10048" d="M186.3 210.4s-3.7 8-5.8 9.3-4.9 2.6-4.9 2.6-10.2 6-12.9 10.3-5.7 11-10.1 12-5.9 5-9.9 7.4c-3 1.8-6 3-6 3s6-8.6 13.5-13.5 9-10 10.3-13 8.7-8 12-9.3 7.7-3.7 9-5 4.8-3.8 4.8-3.8" fill="#ffffff"/><path id="path10050" d="M156.6 249.9s-3.9 7.8-9.3 12.8c-1.5 1.3-.5 7.4-1 8s-2-1.1-4.4-4.1-6-6.3-6-6.3 2.4 2.4 6.6-.2 6-6.4 6-6.4-1.1 3.6-2.3 5.2c-1.3 2-3.8 4.3-3.1 3.6 1.2-1.4 9.8-8.8 13.5-12.6" fill="#ffffff"/><path id="path10052" d="M213 185.3s-3.1 2.6-5.2 5.3-4.4 8.5-9.1 10.8-6 .9-9 6.1-3.4 11.4-8.3 13.3-11.2 3-15.1 8.4-4.4 8.9-9.3 14.8-18.2 15-18.2 15" fill="none" stroke="#000000" stroke-linecap="round" stroke-linejoin="round"/><path id="path10054" d="M131.4 251.5s5.4-.7 10-3.4" fill="none" stroke="#000000" stroke-linecap="round" stroke-linejoin="round"/><path id="path10056" d="M136 255.5s7.9-2.4 12.8-8.6" fill="none" stroke="#000000" stroke-linecap="round" stroke-linejoin="round"/><path id="path10058" d="M143 262.5s5.1-3 9-7.7 5-6.4 5-6.4" fill="#bacad3" stroke="#000000" stroke-linecap="round" stroke-linejoin="round"/></g><g id="g10060"><g id="g10062"><g id="g10064" stroke-linecap="round" stroke-linejoin="round"><path id="path10066" d="m129.1 267.2-2.5.2c-2.1.2-10.4 5-11.8 11.2s4 11.9 7.8 12.9 8.7-1.7 9-5.3-4.5-3.3-4.5-3.3-2-.3-2.8-1.8 2.7-4.1 5.2-5.6a8 8 0 0 0 3.2-4.4z" fill="#725120" stroke="#4a3613"/><path id="path10068" d="M138.5 268.2s-1.9-1.8-3.5-4-4.4-3-6-1.1a3 3 0 0 0-.6 3.4c1 1 2.9 2.9 4.3 4.6q0 0 0 0s3 1.4 4.9 0 1-2.9 1-2.9" fill="#e9c31e" stroke="#9a6104"/></g><path id="path10070" d="M127.5 268.6c1.1.1 3 1.7 1 2.5s-9.9 3.8-10.5 8.2 2.4 9.3 6.4 9 4.9-1.4 4.9-1.4-1.6 3.3-5.3 3.3-8.5-4-8.3-10.6 10.3-11.3 11.8-11" fill="#bb7d2b"/><path id="path10072" d="M125 278.9s-3.7 1.8-3.7 0" fill="none" stroke="#4a3613" stroke-linecap="round" stroke-linejoin="round"/><path id="path10074" d="M125.3 282s-1-1-1.8 0-.4 2-.4 2-2-2-1-2.6" fill="none" stroke="#4a3613" stroke-linecap="round" stroke-linejoin="round"/></g><circle id="circle10076" cx="130.14" cy="263.92" r=".827" fill="#ffffff" stroke="#9a6104" stroke-linecap="round" stroke-linejoin="round"/><circle id="circle10078" cx="131.84" cy="265.62" r=".827" fill="#ffffff" stroke="#9a6104" stroke-linecap="round" stroke-linejoin="round"/><circle id="circle10080" cx="133.4" cy="267.21" r=".827" fill="#ffffff" stroke="#9a6104" stroke-linecap="round" stroke-linejoin="round"/><circle id="circle10082" cx="134.96" cy="268.82" r=".827" fill="#ffffff" stroke="#9a6104" stroke-linecap="round" stroke-linejoin="round"/><circle id="circle10084" cx="136.44" cy="270.3" r=".827" fill="#ffffff" stroke="#9a6104" stroke-linecap="round" stroke-linejoin="round"/></g></g><g id="g10086"><g id="g10088"><path id="path10090" d="m124.1 395 .2-.1 1.3-.4.2-.2-.8-1-1.4-1.7-2 .6-2.2.6-.4 3.2q0 .3 1.2 0h.2l.2-.1q.3 0 .4.2v.3l-.1.1h-.3l-1.7.5-2.6.7h-.4v-.5l.4-.2 1-.4.2-.2.2-.8.9-4.8.5-2.7.5-2.7.3-1.7q0-.6.2-.7l.3-.1h.3l.4.2 1.8 2 3.5 4 1.9 2.3 1 1.2.6.6.3.1h.6l.8-.2h.4l.1.3-.1.4h-.4l-3.6.9-3.7 1q-.3 0-.4-.3v-.3zm-3.9-8-.4 1.9-.4 3 1-.1 2.8-.9-1.4-1.8z"/><path id="path10092" d="m146.3 379.5-1.2 1.2-2.6 3.2.3.2 2 1.4 6 4.5h1.6l.2.1q0 .6-.2.6h-.2l-4 .5-3 .5h-.2l-.2-.2q0-.6.2-.6h.6l.8-.3v-.1l-4.8-3.4-1.8-1.2.3 1.8.6 3.6.5.1 1.3-.1h.2v.7h-.1l-.9.1h-.5l-1.7.3-1.3.2-1.5.2-1.1.2-.5.2h-.2v-.4q0-.4.2-.5h.7l.8-.2.1-.4v-.2l-1.1-8-.2-1.4-.1-.8v-.2l-.3-.6h-.4l-.9.1h-.4l-.2-.1v-.4l.3-.1 4.3-.5.9-.2 1.1-.1.8-.1h.3q.2-.1.2.2l-.1.3-1 .2h-.5l-.3.2v1.5l.3 2 .2 1.2.1.7.3-.3 5-5.8.2-.1-.2-.1h-.7l-.4.1h-.3l-.2-.2q0-.4.2-.4h.2l.6-.1.7-.1 1.7-.3 1.3-.1h.6v.5l-.8.1-.8.2-.4.3z"/><path id="path10094" d="m181.8 390 .2.1 1.3.1.2-.1-.4-1.3-.7-2-2.2-.2H178l-1.4 2.8q0 .3 1 .4h.6l.2.4v.3h-.5l-1.7-.2-2.8-.2q-.3 0-.3-.2l.1-.4h1.5l.4-.2.4-.7 2.4-4.3 1.4-2.3 1.4-2.4.9-1.5.3-.6h.7l.2.5 1 2.5 2 5 1 2.7.7 1.5.3.7.2.2.6.2.8.1h.4v.4q0 .3-.3.3h-.4l-3.6-.5-3.8-.3q-.3 0-.3-.4v-.3zm-1.1-8.6-1 1.6-1.4 2.7 1 .2 3 .1-.8-2.2z"/><path id="path10096" d="M201.1 381v.2l1.3 2.4 1.7 2.8.5-.5 1.5-1.4.7-.7 1.5-1.3.2-.2-.3-.3h-.7l-.3-.1-.5-.1q-.5 0-.3-.4 0-.4.3-.4h.1l2.9.7 2.3.3h.1q.2 0 .2.5l-.2.2-1.5-.2-.4-.1h-.1l-.4.1-.3.3-1.3 1.3-7.5 7.3-1.7 1h-2.6q-1.2-.3-1.9-.8t-.5-1.2q0-.4.6-.7t1.6 0l.8.2 1 .7.6.3 1-.1.9-.8.9-.9-6-9.2q-.3-.2-1.5-.4-.4 0-.4-.4t.4-.3h.2l4.9 1 3.5.5.7.1q.5 0 .3.4 0 .4-.3.3h-.3l-.8-.2z"/><path id="path10098" d="M215 395.6h.2l1.3.3.2-.1-.1-1.3-.4-2.1-2.1-.5-2.3-.5-1.8 2.6q0 .3 1 .6h.3l.2.1.2.4-.1.3h-.5l-1.7-.6-2.6-.5h-.1l-.2-.3q0-.3.2-.4h.5l1 .2.3-.1.5-.6 3.1-3.8 1.8-2.1 1.7-2.2 1-1.4.5-.4h.4l.3.1.2.5a58 58 0 0 1 1.7 7.8l.6 2.8.4 1.6.2.8.2.2.5.3.8.2.4.2v.3q-.1.3-.4.3l-.4-.1-3.5-1-3.7-1q-.3 0-.2-.4l.1-.3zm.3-8.8-1.2 1.4-1.8 2.5 1 .3 2.9.6-.5-2.3z"/></g><path id="path10100" d="M169.5 389.7v-.7l-.2-1v-2.2q.1-.2-.4-.1l-.2.2-.5.8-1.2 1.8q-.4.5-1.2.8l-.5.2.1-1.2c-.7-.2-1 .3-1 .3l-.2 1a4 4 0 0 1-2.3-.8 4 4 0 0 1-1.5-1.8q-.5-1.1-.5-3 0-3.5.8-5t3-1.6a4 4 0 0 1 3 1.1l.8 1 1 1.6q.5 0 .5-.2v-2.3l-.1-.7v-1h-.1l-.3-.2-.2.2q-.7.6-1 .6h-.1l-1.1-.4q-1.3-.4-3-.4-3.4 0-5.7 2.1a6 6 0 0 0 0 9.3 9 9 0 0 0 5 2.3h1.5c-.5 1.3-2.4.8-3.5 1.3s-1 1.4-1 1.4l.3.4s.2-1.1.9-1c.4 0 2.2 1 3.5-.3q.7-.8 1-2l.6-.1q1-.3 2-1l.7.4.5.5h.5z"/></g></g><!-- app4joy --></svg>