<svg id="svg60" width="2286" height="1600" viewBox="0 0 2286 1600" xmlns="http://www.w3.org/2000/svg"><g id="g62"><path id="rect1" fill="#0d9542" d="M0 0h2286v1600H0z"/></g><g id="g61"><path id="path2" transform="translate(-57)" d="m793 313.4 814 .1-90.2 870.9-318.9 87.5-315.2-90.5z" fill="#fff" stroke="#010101" stroke-width="5.857px"/><path id="path3" transform="translate(-57)" d="m820.1 445.4 758.3-3.3 8.2-112.7-779.6 3.3z" fill="none" stroke="#fff" stroke-width="8.3671px"/><path id="rect3" fill="#fff" stroke="#fff" stroke-width=".74493px" d="M1088.3 685.2h99v20.6h-99z"/><path id="path4" transform="translate(-57)" d="M889.6 1042.5a34 34 0 0 0 18.5 5c10.9-.2 26.1-14.5 46.7-16.8s54.4 19.1 74.3 17.2 37.7-17.6 57.7-16.2 33.4 18.8 60.2 16.5 27.5-13.2 52.7-12.4 31.6 16.7 57.4 14.8 34.8-14.7 55.1-13.5 25.6 16.3 55.1 15.8 35-16 66.2-13.8 35.9 11.7 50 13.8 21.2-3.5 19.6-3.7l-1.4 15.8c-6.5 3-5.2 3.4-18.1 4.7-19.4-1.2-24.1-12.6-52.8-13.8-26.3-1.1-35.7 13.4-64.5 13.8-31.1-2.6-30-14-55-14.8-31.7 2.3-29.8 13.6-57.8 15.1-26.9-2.4-33.2-16-54.5-14.7-20.3-.6-30.3 11-50.4 11.7-27 1-36.5-16-59.4-16.1-20-1.1-34.3 13.9-57.5 14.1-29.2-2.4-46.1-15.3-69.2-16.5-29 1.4-31.7 8.1-48.7 14.5-15.9 3.8-15.1-.8-22.8-4z" fill="#479951" fill-rule="evenodd" stroke="#479951" stroke-width=".76065px"/><path id="path5" transform="translate(-57)" d="M829.3 337h-16l11.4 96.8h3z" fill="#e62d35" fill-rule="evenodd" stroke="#e62d35" stroke-miterlimit="3.0426" stroke-width=".7659px"/><path id="path6" transform="translate(-57)" d="M1570.5 337h16l-11.4 97h-3z" fill="#e62d35" fill-rule="evenodd" stroke="#e62d35" stroke-miterlimit="3.0426" stroke-width=".76622px"/><path id="rect6" fill="#e62d35" stroke="#e62d35" stroke-miterlimit="3.0426" stroke-width="8.4108px" d="M778.2 343.8h729.9v83.3H778.2z"/><path id="path7" transform="translate(-57)" d="M882.2 970.7s9 11 28.5 4 22.4-13.5 43-15.8 54.5 19.1 74.3 17.2 37.7-17.6 57.7-16.1 33.4 18.7 60.2 16.4 27.5-13.2 52.7-12.4 29.4 15 57.5 14.8 26-13.7 55-13.5 33.3 13.8 55.1 15.8 35.5-15.9 66.2-13.8 29.8 9.7 50 13.8 31-6.4 31-6.4l-2 17.2c-6.5 2.9-10 5.4-22.9 6.7-19.4-1.3-30.1-13.3-58.8-14.5-26.3-1.1-35.7 13.4-64.5 13.8-31.1-2.6-30-14-55-14.8-31.6 2.3-29.8 13.6-57.8 15.1-26.9-2.4-33.2-16-54.5-14.7-20.3-.6-30.3 11-50.4 11.7-27 1-36.4-16-59.4-16.1-20-1.1-34.3 13.9-57.5 14.1-29.2-2.4-46-15.3-69.2-16.5-29 1.4-31.6 8.1-48.7 14.5-15.9 3.8-20.8-1.8-28.5-5z" fill="#479951" fill-rule="evenodd" stroke="#479951" stroke-width=".76065px"/><path id="path8" transform="translate(-57)" d="m912.7 1060.4 584.9 7-74.6-21.8-63.5 15.1-56.4-14.4-57.5 11.7-48-12.7-49 12.4-67.9-18.1-53 14-76.7-12.3z" fill="#479951" fill-rule="evenodd" stroke="#479951" stroke-width=".76065px"/><path id="path9" transform="translate(-57)" d="M885.4 1006.1s7.6 11 27.2 4 22.4-13.5 43-15.8 54.4 19.1 74.2 17.2 37.7-17.6 57.8-16.2 33.3 18.8 60.1 16.5 27.5-13.2 52.8-12.4 31.6 16.7 57.4 14.8 34.7-14.7 55.1-13.5 25.6 16.3 55 15.8 35-16 66.3-13.8 35.9 11.7 50 13.8 25.2-5.5 23.5-5.7l-2.3 18.5c-6.5 2.9-8.2 2.7-21.2 4-19.4-1.3-24-12.6-52.7-13.8-26.3-1.1-35.7 13.4-64.5 13.8-31.2-2.6-30-14-55.1-14.8-31.6 2.3-29.8 13.6-57.8 15.1-26.8-2.4-33.2-16-54.4-14.7-20.4-.6-30.4 11-50.4 11.7-27 1-36.5-16-59.5-16.1-20-1.1-34.2 13.9-57.4 14.1-29.3-2.4-46.1-15.3-69.2-16.5-29 1.4-31.7 8.1-48.7 14.5-16 3.8-19.2-1.5-26.9-4.7z" fill="#479951" fill-rule="evenodd" stroke="#479951" stroke-width=".76065px"/><path id="path10" transform="translate(-57)" d="m890.6 1055.7 14.3 108.6 291.4 84.6 295.6-80.7 10-105.4" fill="#479951" fill-rule="evenodd" stroke="#479951" stroke-width=".76065px"/><path id="path11" transform="translate(-57)" d="M879.3 957.4c34.5 13.8 39.5-10.6 69.6-14.2 25-1.5 39 13.4 73 16.8 19.7-.7 33.6-13.7 59-15.9 22.2.6 24.2 12.7 60.8 16.2 24-1.9 29-11 54.3-15.2 32.7 1.6 26.1 13.6 56.3 16.8 23 1 29.6-14 53-13 27.9 1 37.4 14.6 60.7 16.1 24.7 1.6 35.4-13.8 65.6-15.2 27.6 2.5 40 15.4 57.6 16 10.1 1.4 17.2-2.7 23.8-7.6l59.2-508.2-741.1 2z" fill="#479951" fill-rule="evenodd" stroke="#479951" stroke-width=".76065px"/><path id="rect11" fill="#f4e601" stroke="#010101" stroke-width=".76065px" d="M1267.9 1078.9h55.1v30.9h-55.1z"/><path id="path12" transform="translate(-57)" d="M799.5 318.6H1601l-2.2 16.2-797.5-.1z" fill="#fff" fill-rule="evenodd" stroke="#fff" stroke-width=".70488px"/><g id="g23" font-family="Arial-BoldMT, Arial" font-size="82.643px" font-weight="700" style="isolation:isolate" transform="matrix(.8846 0 0 1 804.5 412.3)"><text id="text17" fill="#f3e730" style="isolation:isolate">SUM<tspan id="tspan12" x="183.6471" y="0" letter-spacing="-.074218em">A</tspan><tspan id="tspan13" x="237.1956" y="0">TER</tspan><tspan id="tspan14" x="402.4827" y="0" letter-spacing="-.037109em">A</tspan><tspan id="tspan15" x="459.0981" y="0" letter-spacing="-1.3358e-5em" xml:space="preserve"> BAR</tspan><tspan id="tspan16" x="661.1056" y="0" letter-spacing="-.074218em">A</tspan><tspan id="tspan17" x="714.6541" y="0">T</tspan></text><text id="text23" fill="none" stroke="#f3e730" style="isolation:isolate">SUM<tspan id="tspan18" x="183.6471" y="0" letter-spacing="-.074218em">A</tspan><tspan id="tspan19" x="237.1956" y="0">TER</tspan><tspan id="tspan20" x="402.4827" y="0" letter-spacing="-.037109em">A</tspan><tspan id="tspan21" x="459.0981" y="0" letter-spacing="-1.3358e-5em" xml:space="preserve"> BAR</tspan><tspan id="tspan22" x="661.1056" y="0" letter-spacing="-.074218em">A</tspan><tspan id="tspan23" x="714.6541" y="0">T</tspan></text></g><path id="path23" transform="translate(-57)" d="M943.2 816.8c15 6.2 30.1 6.8 45.1 24.7l7.5 63.6c26.7 2.7 46.2 9.2 60 23.8l278.9 3.8c17.2-14.6 38-20.9 60.3-24.2l11-64.6c10.8-12.3 29-19.6 44.6-27.1z" fill="#010101" fill-rule="evenodd" stroke="#010101" stroke-width=".76065px"/><path id="path24" transform="translate(-57)" d="M924.2 555c15.5 65.3 39.8 106 97 126.4l3.7 135-79.3.4-6.2-121.2z" fill="#010101" fill-rule="evenodd" stroke="#010101" stroke-width=".76065px"/><path id="rect24" fill="#010101" stroke="#010101" stroke-width=".76065px" d="M885.3 683.8h503.9v133.1H885.3z"/><path id="rect25" fill="#fff" stroke="#fff" stroke-miterlimit="3.0426" stroke-width=".76065px" d="M1088.6 684h101.7v17.6h-101.7z"/><path id="path25" transform="translate(-57)" d="M1195 573.3c-15 55.1-31.5 89.4-49 111.7l101.3-.5c-20.7-21.4-38.9-57-52.3-111.2z" fill="#fff" fill-rule="evenodd" stroke="#fff" stroke-miterlimit="3.0426" stroke-width=".76065px"/><path id="path26" transform="translate(-57)" d="M1016.3 558c12.8 51.4 24.3 101.8 129.7 126.3l-125 1.3z" fill="#010101" fill-rule="evenodd" stroke="#010101" stroke-width=".76065px"/><path id="path27" transform="translate(-57)" d="M1376.8 557.9c-12.8 51.4-24.3 101.8-129.7 126.3l125 1.4z" fill="#010101" fill-rule="evenodd" stroke="#010101" stroke-width=".76065px"/><path id="path28" transform="translate(-57)" d="m1155 716.6 85-.1c5.8 18.2 21.8 29 40.1 38.9l-166.3-.2c18.3-10.5 32.9-22.9 41.2-38.6z" fill="#fff" fill-rule="evenodd" stroke="#fff" stroke-width=".76065px"/><path id="path29" transform="translate(-57)" d="M1130 771h133.5c9.8 15 23.8 27.8 40.7 39.1h-213.9c14.6-11.4 29.4-22.7 39.7-39.2z" fill="#fff" fill-rule="evenodd" stroke="#fff" stroke-width=".76065px"/><path id="path30" transform="translate(-57)" d="m993 825.1 401.8-.3-7.6 77c-24 3.2-46.3 9-61.4 23l-263.3-1.2c-15.9-15.3-36.7-23.3-59.7-28z" fill="#d41216" fill-rule="evenodd" stroke="#ad1917" stroke-width=".76065px"/><path id="path31" transform="translate(-57)" d="m1002 833.9 5.2 35 80 .3.1-35.7z" fill="#010101" fill-rule="evenodd" stroke="#010101" stroke-width=".80806px"/><path id="path32" transform="translate(-57)" d="m1385.7 833.8-4 36-80 .4-.6-36.3z" fill="#010101" fill-rule="evenodd" stroke="#010101" stroke-width=".80715px"/><path id="rect32" transform="rotate(-89.7 1166.6 880.1)" fill="#010101" stroke="#010101" stroke-width=".79136px" d="M1177.1 754.1h36v194.8h-36z"/><path id="path33" transform="translate(-57)" d="m1009 878 1.5 11.7c20.6 4.1 41 11.8 56.3 26.5h22.3l-.3-38.3z" fill="#010101" fill-rule="evenodd" stroke="#010101" stroke-width=".76065px"/><path id="rect33" transform="rotate(-89.7 1166.5 926)" fill="#010101" stroke="#010101" stroke-width=".81066px" d="M1176.1 799.9h37.8v194.8h-37.8z"/><path id="path34" transform="translate(-57)" d="m1381.3 879.5-1 14.2c-20.5 4.2-40.3 8-55.7 22.8l-22.3-.2-.1-36.6z" fill="#010101" fill-rule="evenodd" stroke="#010101" stroke-width=".76065px"/><path id="path35" transform="translate(-57)" d="M1472.4 555.3c-15.5 65.3-39.8 105.9-97 126.3l-3.7 135 79.3.4 6.2-121.1z" fill="#010101" fill-rule="evenodd" stroke="#010101" stroke-width=".76065px"/><path id="rect35" fill="#eae32c" stroke="#010101" stroke-width=".76065px" d="M950.8 1074.5h53.7v33.9h-53.7z"/><path id="path36" transform="translate(-57)" d="m1060.8 1070.1.7 34.4" fill="none" stroke="#010101" stroke-width="3.6699px"/><path id="path37" transform="translate(-57)" d="M1018.7 1105.4V1084c12 1.4 25.7 4.4 39.6-6.2 2.8-3.8 7.9-16-15.3-20.5a157 157 0 0 0-46.3.6 31 31 0 0 0-23.9 24c-.3 6.6-.8 10 .4 16.5 14.6 2.5 28.8 8 45.5 7z" fill="#f3e730" fill-rule="evenodd" stroke="#010101" stroke-linejoin="round" stroke-width="3.4229px"/><path id="path38" transform="translate(-57)" d="M972.6 1097.5c0 19.3-.9 55.7 2.2 60.1 9.8 14.4 27 21.2 54 21.2 60.3-5.8 127.7-25.9 159.7-27.2 37.5-2.1 108 31 175 33.6 30.8-1.3 40.5-11.4 49.7-21.9l.7-72.9c-10.5 8-20.8 24.6-51 22.2-72-5.4-106.7-29.5-170-34.2-63.3 3-82.8 16.5-123.2 24.8-32 7.5-67 3-97-5.7z" fill="#eae32c" fill-rule="evenodd" stroke="#010101" stroke-width="3.4229px"/><path id="path39" transform="translate(-57)" d="m1220.8 512.3-13.4 12.6 3.5 17.4-17-8-16.7 8.5 3-17.5-14-12.2 18.9-2.8 8.1-16 8.7 15.7z" fill="#f3e730" stroke="#f8e92a" stroke-width="11px"/><path id="path40" transform="translate(-57)" d="m1366.4 1112.9.9-24.5a50 50 0 0 1-39.7-8.8c-3-3.8-8.2-13.2 15-17.7 18.4-2.2 33-1.4 45.8 1 14.4 3.8 23.2 10.9 26 22.3.2 6.6.3 4.9-.8 11.5-14.5 9.1-18 16.2-47.2 16.2z" fill="#f3e730" fill-rule="evenodd" stroke="#010101" stroke-linejoin="round" stroke-width="3.4229px"/><path id="path41" transform="translate(-57)" d="m1324.6 1072.9.6 34.4" fill="#eae32c" fill-rule="evenodd" stroke="#010101" stroke-width="3.3515px"/><g id="g42" font-family="Arial-BoldMT, Arial" font-size="53.749px" font-weight="700" style="isolation:isolate" transform="rotate(-.5 142300.8 -113534)"><text id="text41" fill="#e73331" style="isolation:isolate">T</text><text id="text42" fill="none" stroke="#e73331" style="isolation:isolate">T</text></g><g id="g44" font-family="Arial-BoldMT, Arial" font-size="53.749px" font-weight="700" style="isolation:isolate" transform="rotate(-1.5 44371.8 -36219.1)"><text id="text43" fill="#e73331" style="isolation:isolate">U</text><text id="text44" fill="none" stroke="#e73331" style="isolation:isolate">U</text></g><g id="g46" font-family="Arial-BoldMT, Arial" font-size="53.749px" font-weight="700" letter-spacing="-.03711em" style="isolation:isolate" transform="rotate(-4.5 15140.4 -12274.2)"><text id="text45" fill="#e73331" style="isolation:isolate">A</text><text id="text46" fill="none" stroke="#e73331" style="isolation:isolate">A</text></g><g id="g48" font-family="Arial-BoldMT, Arial" font-size="53.749px" font-weight="700" style="isolation:isolate" transform="rotate(-6.1 11253.2 -9287.6)"><text id="text47" fill="#e73331" style="isolation:isolate">H</text><text id="text48" fill="none" stroke="#e73331" style="isolation:isolate">H</text></g><g id="g50" font-family="Arial-BoldMT, Arial" font-size="53.749px" font-weight="700" style="isolation:isolate" transform="translate(1111.1 1136.2)"><text id="text49" fill="#e73331" style="isolation:isolate">S</text><text id="text50" fill="none" stroke="#e73331" style="isolation:isolate">S</text></g><g id="g52" font-family="Arial-BoldMT, Arial" font-size="53.749px" font-weight="700" letter-spacing="-.037101em" style="isolation:isolate" transform="rotate(6.7 -9108.5 10318.2)"><text id="text51" fill="#e73331" style="isolation:isolate">A</text><text id="text52" fill="none" stroke="#e73331" style="isolation:isolate">A</text></g><g id="g54" font-family="Arial-BoldMT, Arial" font-size="53.749px" font-weight="700" style="isolation:isolate" transform="rotate(13.5 -4246.8 5577.9)"><text id="text53" fill="#e73331" style="isolation:isolate">K</text><text id="text54" fill="none" stroke="#e73331" style="isolation:isolate">K</text></g><g id="g56" font-family="Arial-BoldMT, Arial" font-size="53.749px" font-weight="700" letter-spacing="-.037101em" style="isolation:isolate" transform="rotate(12.9 -4500.2 5995.8)"><text id="text55" fill="#e73331" style="isolation:isolate">A</text><text id="text56" fill="none" stroke="#e73331" style="isolation:isolate">A</text></g><g id="g58" font-family="Arial-BoldMT, Arial" font-size="53.749px" font-weight="700" style="isolation:isolate" transform="rotate(8.3 -7380.9 9275.3)"><text id="text57" fill="#e73331" style="isolation:isolate">T</text><text id="text58" fill="none" stroke="#e73331" style="isolation:isolate">T</text></g><g id="g60" font-family="Arial-BoldMT, Arial" font-size="53.749px" font-weight="700" style="isolation:isolate" transform="translate(1294.4 1166.6)"><text id="text59" fill="#e73331" style="isolation:isolate">O</text><text id="text60" fill="none" stroke="#e73331" style="isolation:isolate">O</text></g></g><!-- app4joy --></svg>