<svg id="Flag" width="1500" height="1050" viewBox="0 0 1500 1e3" xml:space="preserve" xmlns="http://www.w3.org/2000/svg" xmlns:xlink="http://www.w3.org/1999/xlink"><style id="style1" type="text/css">.st5{clip-path:url(#SVGID_00000033334186736227225260000010392798567746134915_);fill:#006F23}.st6{clip-path:url(#SVGID_00000072973419359737970770000011045869537437786286_)}.st9{clip-path:url(#SVGID_00000009571859378051912680000011963013881644530105_)}.st12{clip-path:url(#SVGID_00000157300890385384819690000017352589931415566999_)}.st18{clip-path:url(#SVGID_00000124153711540249988050000015069115787981208203_)}</style><g id="g88"><path id="Base" d="M0 0h1500v1000H0z" fill="#01652F"/></g><g id="g87"><path id="path1" d="M949.7 563a22 22 0 0 0-12.2-14.7c.1 4.3-.8 9.6-4.6 13.1-1.3 1.3-3.3 2.7-13 5.3q-8.3 2.2-13.7 3c-21.9 87-83.5 149.6-156.2 149.6s-134.3-62.7-156.2-149.6q-5.5-1-13.6-3c-9.8-2.6-11.8-4-13-5.3-3.8-3.5-4.7-8.8-4.7-13.1-1.2.6-10.1 5-12.2 14.8-1.3 6.3-2 12.5 4.3 18.3 4.8 4.5 25-.2 22.6.7-19.5 8-15.1 19.8 5.3 11.3l-10.1 5.4a7 7 0 0 0-3.3 8.6c31.8 86.7 100.8 146.8 181 146.8s149-60 180.9-146.7a7 7 0 0 0-3.2-8.6l-10.2-5.4c20.5 8.6 24.8-3.4 5.3-11.3-2.5-1 17.9 3.8 22.7-.7 6.2-6 5.6-12.1 4.2-18.4z" stroke="#000000" stroke-width="11" stroke-miterlimit="10"/><path id="path2" d="M949.7 563a22 22 0 0 0-12.2-14.7c.1 4.3-.8 9.6-4.6 13.1-1.3 1.3-3.3 2.7-13 5.3q-8.3 2.2-13.7 3c-21.9 87-83.5 149.6-156.2 149.6s-134.3-62.7-156.2-149.6q-5.5-1-13.6-3c-9.8-2.6-11.8-4-13-5.3-3.8-3.5-4.7-8.8-4.7-13.1-1.2.6-10.1 5-12.2 14.8-.5 2-3.4 12.6 4.3 18.3 5.3 3.9 17.8 2.3 22.6.7-20.1 9.6-14 18.6 5.3 11.3 0 0-13.1 6.2-13.7 10.4-.8 5.7 4.9 15.4 6 18.3q4.4 9.8 9.2 19c35.7 68.2 96.7 113 166 113s130.2-44.8 166-113q5-9.2 9.1-19c1.3-2.9 6.8-12.6 6.1-18.3-.6-4.2-13.7-10.4-13.7-10.4 19.3 7.3 25.4-1.7 5.3-11.3 4.8 1.6 17.3 3.2 22.7-.7 7.6-5.7 4.7-16.3 4.2-18.3" fill="#FBE600"/><g id="g22"><ellipse id="ellipse2" cx="750" cy="500" rx="199.65" ry="254.19" fill="none"/><path id="path3" d="m588.4 618.8 3.1-1.4 3.6 8.2-7.5 3.3q-1.6-.7-3.6-2.6a14 14 0 0 1-2.8-4.2q-1.5-3-1-5.7.1-2.7 2-4.9 1.8-2.1 4.5-3.3 3-1.3 5.8-1a9 9 0 0 1 5 2q1.8 1.4 3 4.1a10 10 0 0 1 1 6.2 8 8 0 0 1-3 4.3l-2.3-3.5a5 5 0 0 0 1.5-2.4q.3-1.5-.4-3.2a6 6 0 0 0-3.3-3.3q-2.2-.7-5.3.6-3.4 1.5-4.4 3.7c-1 2.2-.7 3 0 4.6q.5 1.3 1.5 2.2t2 1.6l2.3-1z"/><path id="path4" d="m588 635.9 18.1-10 7.3 13.5-3 1.6-5.3-9.8-4 2.2 5 9-3.1 1.7-5-9-4.9 2.7 5.5 10.1-3 1.7z"/><path id="path5" d="m598.8 655 17-11.6 3.5 5.1-9.5 11 13.7-4.9 3.5 5.2-17 11.6-2.2-3.3 13.4-9.1-15.7 5.7-2.3-3.3 11.1-12.5-13.4 9.2z"/><path id="path6" d="m626.4 691.1-3-3.4 2.3-4.5-5.3-6.2-4.6 1.7-2.9-3.3 20.9-7.3 2.8 3.3zm1.2-11.2 3.9-7.1-7.6 2.9z"/><path id="path7" d="m630 694.7 14-15 3.1 2.9-5.6 5.9 6 5.6 5.6-6 3 3-14.1 14.8-3-2.8 6.1-6.6-6-5.6-6.1 6.6z"/><path id="path8" d="m656 717 11.2-17.3 7.3 4.8q2.7 1.7 3.8 3c1 1.3 1 1.8 1 3q0 1.7-1.1 3.2-1.4 2-3.2 2.4a6 6 0 0 1-4.5-.6l1 2.7.1 4.1v4.8l-4.2-2.8-.1-5.4q0-2.8-.2-3.7 0-.8-.6-1.4t-1.7-1.3l-.7-.5-4.7 7.3zm9.9-7.7 2.6 1.6q2.5 1.6 3.3 1.8h1.5q.7-.4 1.2-1 .6-1 .5-1.8t-1-1.6q-.3-.4-2.4-1.8l-2.7-1.7z"/><path id="path9" d="m676 729.1 9.4-18.3 3.7 2-9.5 18.3z"/><path id="path10" d="m685.6 734.1 7.6-19 6.2 2.4 4.4 2q1.5 1.1 2 3c.5 2 .3 2.6-.3 4.2q-.6 1.7-1.8 2.7c-1.2 1-1.6 1-2.4 1.2q-1.4.4-2.3.1-1.5-.3-4.1-1.3l-2.6-1-2.9 7.2zm10.2-14.3-2.2 5.4 2.1.9q2.3.9 3.2 1 .8 0 1.5-.5.9-.6 1-1.3.4-1 .2-2c-.2-1-.6-1.1-1.3-1.5q-.6-.4-2.7-1.2z"/><path id="path11" d="m722.3 745.9-4.3-1.1-.6-5-8-2-2.9 4-4.2-1 12.8-18 4.3 1.1zm-5.4-9.8-.8-8-4.6 6.6z"/><path id="path12" d="m727.7 746.6 1.9-20.5 4 .3-.7 8.1 8.1.8.8-8 4.1.3-2 20.5-4-.4.8-9-8.2-.7-.7 9z"/><path id="path13" d="m762.2 747.8-2.8-20.4 8.7-1.1q3.2-.5 4.8-.1c1.6.4 1.9.8 2.6 1.6s1.1 2 1.3 3.2q.4 2.4-.9 4-1.2 1.7-3.7 2.4l2.4 1.4q1 .8 2.8 3l3 3.7-5 .7-3.5-4q-1.8-2.2-2.6-2.8a3 3 0 0 0-1.4-.7l-2.1.1-.9.1 1.2 8.6zm2.6-12.4 3-.4q3-.4 3.7-.8.6-.4 1-1 .5-.8.2-1.6-.2-1-.8-1.6-.8-.7-1.7-.6l-3 .4-3.2.4z"/><path id="path14" d="m785.8 744-5.8-19.8 14.7-4.3 1 3.3-10.7 3.2 1.3 4.3 10-2.9 1 3.4-10 2.8 1.5 5.4 11.1-3.2 1 3.3z"/><path id="path15" d="m807 737.3-8.5-18.9 6.1-2.7q3.5-1.6 4.6-1.7 1.9-.3 3.5.6c1.6.9 2.1 1.6 2.7 3.1q.9 1.7.7 3.2a6 6 0 0 1-2.3 4.3q-1.2.9-3.9 2l-2.4 1.2 3.1 7zm-3.2-17.3 2.3 5.3 2.1-1q2.2-1 2.9-1.6t.8-1.5q0-.8-.3-1.7-.5-1-1.4-1.4c-.9-.4-1.2-.3-2-.1q-.6.1-2.7 1.1z"/><path id="path16" d="m827 727.8-10.8-17.6 13-8 1.9 3-9.5 5.8 2.3 4 8.8-5.5 1.9 3-8.9 5.4 3 4.8 9.8-6 1.8 3z"/><path id="path17" d="m845.6 715.8-12.8-16.2 3.2-2.6 5.1 6.4 6.4-5-5-6.4 3.1-2.7 12.9 16.2-3.3 2.6-5.5-7-6.4 5 5.6 7z"/><path id="path18" d="M871.4 693.4 856 679.6l5.9-6.6q2.3-2.4 3.5-3.2 1.5-.7 3.1-.4t3 1.5q1.8 1.4 2 3.5.2 2-1.3 4.3 1.5-.5 2.8-.5l4 .4 4.8.8-3.3 3.7-5.4-.8-3.7-.4q-.8 0-1.5.4-.6.3-1.6 1.4l-.5.6 6.4 5.8zm-6.1-11.1 2-2.3q2.1-2.2 2.3-3 .4-1 .1-1.4-.3-.7-.9-1.3t-1.6-.7c-1 0-1.1.1-1.7.6l-2 2.2-2.2 2.4z"/><path id="path19" d="m897.7 660.5-2.6 3.6-4.9-1.3-4.8 6.7 2.8 4-2.6 3.6-12-18.5 2.7-3.6zm-11 1.4-8-2.2 4.6 6.7z"/><path id="path20" d="m900.4 656.3-17.8-10.6 3.4-5.7q2-3.3 2.8-4.1 1.4-1.4 3.3-1.5 2-.2 4 1 1.7 1 2.4 2.2a6 6 0 0 1 .6 4.9q-.5 1.5-1.9 3.8l-1.4 2.4 6.7 4zM887.8 644l5 3 1.2-2a10 10 0 0 0 1.4-3l-.2-1.6a3 3 0 0 0-1.1-1.2q-1-.6-2-.4c-1 .2-1.2.5-1.6 1q-.5.5-1.7 2.5z"/><path id="path21" d="m911 637.4-18.2-9.4 1.9-3.7 18.3 9.5z"/><path id="path22" d="m915.9 628-19-8.3 1.7-3.8 7.4 3.2 3.2-7.5-7.4-3.2 1.7-3.9 19 8.2-1.7 3.9-8.3-3.6-3.3 7.5 8.3 3.6z"/></g><ellipse id="ellipse22" cx="750" cy="500" rx="164.74" ry="219.28" fill="#FBE600" stroke="#000000" stroke-width="7" stroke-miterlimit="10"/><g id="g86"><g id="g23"><defs id="defs22"><ellipse id="SVGID_00000096750808351876695890000010263879194498579869_" cx="750" cy="500" rx="151.66" ry="206.19"/></defs><clipPath id="SVGID_00000010285317302277574030000005067837564914916016_"><use id="use22" xlink:href="#SVGID_00000096750808351876695890000010263879194498579869_"/></clipPath><path id="rect22" clip-path="url(#SVGID_00000010285317302277574030000005067837564914916016_)" fill="#006F23" d="M598.4 293.9h303.3v429.3H598.4z"/></g><g id="g40"><defs id="defs23"><ellipse id="SVGID_00000060724194552964281560000003477970990874249644_" cx="750" cy="500" rx="151.66" ry="206.19"/></defs><clipPath id="SVGID_00000127748810375612721550000010427773647465093284_"><use id="use23" xlink:href="#SVGID_00000060724194552964281560000003477970990874249644_"/></clipPath><g id="g39" clip-path="url(#SVGID_00000127748810375612721550000010427773647465093284_)"><path id="rect23" d="M598.4 586.3h303.2V736H598.4z" fill="#021EAA"/><path id="rect24" d="M797.1 680.5h23.6v23.6h-23.6z" fill="#FFFFFF"/><path id="rect25" d="M750 680.5h23.6v23.6H750z" fill="#FFFFFF"/><path id="rect26" d="M820.7 657h23.5v23.5h-23.5z" fill="#FFFFFF"/><path id="rect27" d="M773.6 657h23.5v23.5h-23.5z" fill="#FFFFFF"/><path id="rect28" d="M844.2 633.4h23.6V657h-23.6z" fill="#FFFFFF"/><path id="rect29" d="M797.1 633.4h23.6V657h-23.6z" fill="#FFFFFF"/><path id="rect30" d="M750 633.4h23.6V657H750z" fill="#FFFFFF"/><path id="rect31" d="M820.7 609.9h23.5v23.5h-23.5z" fill="#FFFFFF"/><path id="rect32" d="M773.6 609.9h23.5v23.5h-23.5z" fill="#FFFFFF"/><path id="rect33" d="M844.2 586.3h23.6v23.6h-23.6z" fill="#FFFFFF"/><path id="rect34" d="M797.1 586.3h23.6v23.6h-23.6z" fill="#FFFFFF"/><path id="rect35" d="M750 586.3h23.6v23.6H750z" fill="#FFFFFF"/><path id="path35" d="M750 677.7q-12.9 4.7-25.3 4c-11.4-.5-14-4-25.3-4-12.1 0-13.1 4-25.3 4-12.1 0-13.1-4-25.3-4-11.4 0-13.9 3.5-25.3 4q-12.4.7-25.3-4v-23q12.9 4.8 25.3 4.2c11.4-.6 14-4.1 25.3-4.1 12.2 0 13 4 25.3 4s13-4 25.3-4c11.3 0 13.9 3.5 25.3 4q12.4.7 25.3-4z" fill="#FFFFFF"/><path id="path36" d="M750 630.6q-12.9 4.6-25.3 4c-11.4-.5-14-4-25.3-4-12.1 0-13.1 4-25.3 4-12.1 0-13.1-4-25.3-4-11.4 0-13.9 3.5-25.3 4q-12.4.6-25.3-4v-23q12.9 4.8 25.3 4.2c11.4-.6 14-4.1 25.3-4.1 12.2 0 13 4 25.3 4s13-4 25.3-4c11.3 0 13.9 3.5 25.3 4q12.4.6 25.3-4z" fill="#FFFFFF"/><path id="path37" d="M754.4 736h5.2c0-5.9-1-8.9-1.8-11.7-1-2.7-1.7-5.2-1.7-10.2s.8-7.6 1.7-10.3c1-2.8 1.8-5.9 1.8-11.7 0-6-1-9-1.8-11.8-1-2.6-1.7-5.2-1.7-10.2s.8-7.6 1.7-10.2c1-3 1.8-6 1.8-11.8s-1-9-1.8-11.8c-1-2.6-1.7-5.1-1.7-10.2s.8-7.6 1.7-10.2c1-2.9 1.8-6 1.8-11.8 0-6-1-8.9-1.8-11.8a28 28 0 0 1-1.7-10.2H751c0 6 1 9 1.8 11.8.9 2.6 1.7 5.1 1.7 10.2s-.8 7.6-1.7 10.2c-1 2.9-1.8 6-1.8 11.8s1 8.9 1.8 11.8c.9 2.6 1.7 5.1 1.7 10.2s-.8 7.6-1.7 10.2a33 33 0 0 0-1.8 11.8c0 6 1 8.9 1.8 11.8.9 2.6 1.7 5.1 1.7 10.2s-.8 7.6-1.7 10.2c-1 2.9-1.8 6-1.8 11.8s1 8.9 1.8 11.7a28 28 0 0 1 1.7 10.2" fill="#021EAA"/><path id="path38" d="M749.1 736h5.3c0-5.9-1-8.9-1.9-11.7S751 719 751 714s.8-7.6 1.6-10.3c1-2.8 1.9-5.9 1.9-11.7 0-6-1-9-1.9-11.8-.8-2.6-1.6-5.2-1.6-10.2s.8-7.6 1.6-10.2c1-3 1.9-6 1.9-11.8s-1-9-1.9-11.8c-.8-2.6-1.6-5.1-1.6-10.2s.8-7.6 1.6-10.2c1-2.9 1.9-6 1.9-11.8 0-6-1-8.9-1.9-11.8A28 28 0 0 1 751 582h-5.3c0 6 1 9 1.9 11.8.8 2.6 1.6 5.1 1.6 10.2s-.8 7.6-1.6 10.2c-1 2.9-1.9 6-1.9 11.8s1 8.9 1.9 11.8c.8 2.6 1.6 5.1 1.6 10.2s-.8 7.6-1.6 10.2a33 33 0 0 0-1.9 11.8c0 6 1 8.9 1.9 11.8.8 2.6 1.6 5.1 1.6 10.2s-.8 7.6-1.6 10.2c-1 2.9-1.9 6-1.9 11.8s1 8.9 1.9 11.7A28 28 0 0 1 749 736" fill="#FFFFFF"/><path id="path39" d="M743.9 736h5.2c0-5.9-1-8.9-1.8-11.7s-1.7-5.2-1.7-10.2.8-7.6 1.7-10.3c1-2.8 1.8-5.9 1.8-11.7 0-6-1-9-1.8-11.8-.9-2.6-1.7-5.2-1.7-10.2s.8-7.6 1.7-10.2c1-3 1.8-6 1.8-11.8s-1-9-1.8-11.8c-.9-2.6-1.7-5.1-1.7-10.2s.8-7.6 1.7-10.2c1-2.9 1.8-6 1.8-11.8 0-6-1-8.9-1.8-11.8a28 28 0 0 1-1.7-10.2h-5.2c0 6 1 9 1.8 11.8.9 2.6 1.7 5.1 1.7 10.2s-.8 7.6-1.7 10.2c-1 2.9-1.8 6-1.8 11.8s1 8.9 1.8 11.8c.9 2.6 1.7 5.1 1.7 10.2s-.8 7.6-1.7 10.2a33 33 0 0 0-1.8 11.8c0 6 1 8.9 1.8 11.8.9 2.6 1.7 5.1 1.7 10.2s-.8 7.6-1.7 10.2c-1 2.9-1.8 6-1.8 11.8s1 8.9 1.8 11.7A28 28 0 0 1 744 736" fill="#021EAA"/><path id="rect39" d="M867.8 609.9h23.6v23.5h-23.6z" fill="#FFFFFF"/></g></g><g id="g42"><defs id="defs40"><ellipse id="SVGID_00000114068199813124698500000017021715486385532805_" cx="750" cy="500" rx="151.66" ry="206.19"/></defs><clipPath id="SVGID_00000135656458345893149090000005354282360735900808_"><use id="use40" xlink:href="#SVGID_00000114068199813124698500000017021715486385532805_"/></clipPath><g id="g41" clip-path="url(#SVGID_00000135656458345893149090000005354282360735900808_)"><path id="polygon40" d="M879.3 542.9h-62.2l-10.6 17.7-30.6-39.6h-51.8l-30.6 39.6-10.6-17.7h-62.2l-20.2 43.4h299z"/><path id="path40" d="m787.3 418.4-2-1.6 1.2-2.4c1-2.4.2-3.8-1-4.8q-1.6-1.4-1.8-1.3c-.2.1.9-.8 1.3-2.6.3-1 .2-3-.7-4-1.1-1.1-2.8-1.6-2.8-1.6s.9-1 1.3-2.7c.5-1.6 0-3.8-1.4-4.7s-3.8-1.3-3.8-1.3 2-2.1 2-4.2c0-1.4-.4-4.2-4.5-5.4-2.2-.7-4.8.6-7 0-3.5-1-21.5-14.3-21.2-32.2q0-3 1-7a35 35 0 0 0-17.7 20.6 32 32 0 0 0 2.1 17.8 21 21 0 0 0-3.8 9q0 2.2 1.3 5.8.8 2 1.8 3.3c8.8 10.9 18.8 20.9 26.5 32.5 1.2 1.7 3 5.9 2.9 11.4a24 24 0 0 1-2.9 11 23 23 0 0 1-6.3 7.8c-3 2.5-6 4.6-7.9 4.2-1-.2-2.2-1.4-4-2s-3.5-.7-4.6-.7c0 0-1.9-.3-3 1-.9 1-.8 2.2-.8 2.4.2 1 .7 3.7 3.1 5.9 3.6 3.2 8.3 1.8 8.6 2.3.6 1.1-2 2.3-3 4q-1.1 2-1.5 3.6a5 5 0 0 0-.6 2.8q.1 1.8.6 2.5.6 1.4 2.7 3.3c1.7 1.4 4.6 1.3 4.5 2.2 0 .3-2.4.2-4 2a5 5 0 0 0-1 4q.1 1.6 1.6 4.5c1.2 2 2.8 3 3.6 3.6h8.2a21 21 0 0 0 4.7-8.5 43 43 0 0 0-1.5-20.2c-1.5-2.6-3.4-3.4-3.3-4.6.2-1.3 2-1 4-2 9.8-5 14.4-13.7 18.3-21.6a82 82 0 0 0 7.9-22.8 9 9 0 0 0 2.7-2.4c2-2 1.7-5.5.2-6.9zm-17-30.5a3 3 0 1 1 6.2 0c0 1.7-1.3 3-3 3s-3.2-1.3-3.2-3zm3.1 9.1c0-1.7 1.4-3 3.1-3s3.1 1.3 3.1 3-1.3 3.1-3 3.1-3.2-1.4-3.2-3zm2.4 8.2c0-1.7 1.4-3 3.1-3s3.1 1.3 3.1 3-1.4 3.1-3 3.1-3.2-1.4-3.2-3zm1.7 8.4a3 3 0 1 1 6.2 0c0 1.7-1.3 3.1-3 3.1s-3.2-1.4-3.2-3.1zm4 11.4c-1.7 0-3-1.4-3-3.1s1.3-3.1 3-3.1 3.2 1.4 3.2 3.1-1.4 3-3.1 3z" fill="#FFFFFF" stroke="#000000" stroke-width="0.75" stroke-miterlimit="10"/><path id="path41" d="M754.3 507.4H746c-2 8-3.1 15.3-3.7 20.4-.5 5.4-.6 9.8 1.7 14 1 1.7 2.7 2.5 2.7 3.6 0 .5-3.3 3.5-2.6 8a10 10 0 0 0 4.6 6.6q.3.5 1.7.6c1.1.1 1.8-.5 2-.6a20 20 0 0 0 4.8-12.9q.5-6 .6-13.4a136 136 0 0 0-1.5-19.7c-.6-2.5-1.4-5-2.1-6.6z" fill="#D81F00" stroke="#000000" stroke-width="0.75" stroke-miterlimit="10"/></g></g><g id="g66"><defs id="defs42"><ellipse id="SVGID_00000155824996223567625310000014495495792418686909_" cx="750" cy="500" rx="151.66" ry="206.19"/></defs><clipPath id="SVGID_00000088120916467668528540000012789949393665102231_"><use id="use42" xlink:href="#SVGID_00000155824996223567625310000014495495792418686909_"/></clipPath><g id="g65" clip-path="url(#SVGID_00000088120916467668528540000012789949393665102231_)"><path id="path42" d="M779.7 530c46-28.2 70.8-77.1 62.7-122.5A112 112 0 0 0 803 343" fill="none" stroke="#000000" stroke-width="2.5" stroke-miterlimit="10"/><g id="g44"><path id="path43" d="M810.6 350.5c-.2.7-1 2.5-2.4 3.3-1.5 1-3.8.4-5.5 0-1.4-.3-1.6-1.2-2.8-1.3-1.7-.2-3.5-.7-6.5-1.1q.6-1.3 2.2-2.9c1.9-1.5 4-1.4 4-2.2 0-.5-1.4-1.6-2.2-2.4-1.1-1-1.5-2-2.6-5.6l-1.8-5.5q3.4 1 5.5 1.8c3.7 1.2 4.5 1.5 5.6 2.6.8.8 1.9 2.1 2.4 2.1.8 0 .7-2 2.2-3.9q1.5-1.6 2.9-2.2c.4 3 .9 4.8 1 6.5.2 1.2 1.1 1.4 1.4 2.8.3 1.7 1 4 0 5.6a6 6 0 0 1-3.4 2.3z" fill="#FBE600" stroke="#000000" stroke-miterlimit="10"/><path id="path44" d="M810.2 339.5a24 24 0 0 1 0 10.4m-10.5-10.3 10.4 10.3m-10.5.1a24 24 0 0 0 10.5 0" fill="none" stroke="#767676" stroke-linecap="round" stroke-miterlimit="10"/></g><g id="g46"><path id="path45" d="M827.2 351.6a5 5 0 0 0-6-4c-2 .5-2.8 2-3 2.3a6 6 0 0 0-3.9-1.6c-2.2 0-3.7 1-4.2 1.3s-1.2 1.2-1.5 2.6c-.5 2 .2 3.4.4 3.8-.3 0-2 .1-3.1 1.4-1.3 1.6-1 4.2.7 6 .6.3 7.2 3 13.6-.9 6-3.5 7-10 7-10.9z" fill="#FFFFFF" stroke="#000000" stroke-miterlimit="10"/><path id="path46" d="M805 365q1.8 1.5 5.2 3.4c3.4 1.8 5.6 3 8.5 3a12 12 0 0 0 6.9-2.7c2.9-1.9 3.8-4 4.3-5 .8-2.1.5-4.2 0-8.2l-.7-5q-1.2.6-2.8 2c-1.9 1.9-2.6 4-3 5.2a40 40 0 0 0-9.4-4.4l.1 4.6q.4 3.2 1 5.4-1-.3-3-.5-3.1-.5-5.1.5-1 .3-2 1.8z" fill="#006F23" stroke="#000000" stroke-miterlimit="10"/></g><g id="g48"><path id="path47" d="M840.9 368.4c0-.4 0-2.4-1.5-4a5 5 0 0 0-4-1.5 5 5 0 0 0-3.6 2c-.3-.5-1.6-2-3.7-2.6-2.3-.5-4.2.3-4.7.4-.4.3-1.5 1.1-2.1 2.6-1 1.8-.5 3.5-.4 4-.3-.1-2.2-.3-3.6.9-1.6 1.3-1.8 4.1-.4 6.4.6.5 6.9 4.6 14.4 2 7-2.7 9.3-9.4 9.6-10.2z" fill="#FFFFFF" stroke="#000000" stroke-miterlimit="10"/><path id="path48" d="M814.8 378q1.6 1.9 4.8 4.5c3.2 2.6 5.3 4.3 8.3 4.9 1.3.2 4.1.4 7.8-1.4 3.4-1.3 5-3.4 5.5-4.4 1.3-2 1.5-4.3 1.8-8.6q.3-3.5.1-5.5-1.4.4-3.3 1.6a12 12 0 0 0-4.1 4.8 46 46 0 0 0-9-6.5 30 30 0 0 0-1 10.6q-1-.5-3-1c-2.3-.6-3.8-1-5.5-.5q-1 .2-2.4 1.6z" fill="#006F23" stroke="#000000" stroke-miterlimit="10"/></g><g id="g50"><path id="path49" d="M849.6 386.9a5 5 0 0 0-.6-4c-.1-.3-1.2-2-3.3-2.4-1.9-.2-3.3.8-3.6 1a6 6 0 0 0-2.8-3.2 7 7 0 0 0-4.4-.6q-1 .2-2.6 1.7a6 6 0 0 0-1.3 3.6 4 4 0 0 0-3.5 0c-1.7.9-2.6 3.3-2 5.8.5.5 5.4 5.8 12.8 5 7.2-.6 10.8-6.3 11.3-6.9z" fill="#FFFFFF" stroke="#000000" stroke-miterlimit="10"/><path id="path50" d="M823.6 389.6q1 2 3.3 5.2c2.4 3.1 3.9 5 6.5 6.3 1 .4 3.6 1.4 7.4.5 3.4-.5 5.2-2 6-2.8 1.8-1.6 2.4-3.6 3.7-7.5l1.3-5q-1.3.2-3.4.8c-2.5.9-4.1 2.5-5 3.4a44 44 0 0 0-6.6-8 26 26 0 0 0-3.2 9.4l-2.6-1.6c-2-1-3.3-1.8-4.9-1.7q-1 .2-2.5 1z" fill="#006F23" stroke="#000000" stroke-miterlimit="10"/></g><g id="g52"><path id="path51" d="M853.3 403.7c.1-.3.8-2.1-.1-4.1a5 5 0 0 0-3.3-2.6 5 5 0 0 0-3.7.6c-.2-.5-.8-2.2-2.7-3.5s-3.9-1-4.4-1-1.7.5-2.8 1.7a6 6 0 0 0-1.5 3.5c-.4-.1-2-1-3.6-.2-1.9.8-3 3.2-2.4 5.7.4.5 5 6.4 12.6 6.2 7.3-.2 11.4-5.7 12-6.3z" fill="#FFFFFF" stroke="#000000" stroke-miterlimit="10"/><path id="path52" d="M826.4 404.4q.8 2.2 3 5.7c2 3.4 3.4 5.5 6 7a12 12 0 0 0 7.6 1.1c3.5-.2 5.6-1.5 6.5-2.3 1.9-1.5 2.7-3.5 4.3-7.4q1.3-3 1.8-4.9-1.5 0-3.6.5c-2.7.7-4.4 2.2-5.3 3.1a39 39 0 0 0-6.3-8.9l-2.3 4.2q-1.2 3-1.9 5.3l-2.4-1.8c-2-1.4-3.2-2.2-5-2.2q-.7-.2-2.4.6z" fill="#006F23" stroke="#000000" stroke-miterlimit="10"/></g><g id="g54"><path id="path53" d="M843 435.2a7 7 0 0 1-4.7.8c-2-.5-3.4-2.8-4.5-4.5-.9-1.3-.3-2.2-1.2-3.3-1.3-1.6-2.3-3.4-4.4-6.2q1.5-.6 4.1-.5c2.8.2 4.4 2 5 1.4.4-.5.2-2.5.2-3.7 0-1.8.4-2.8 2.5-6.8q1-2.5 3-5.8l3 5.8c2 4 2.5 5 2.5 6.8 0 1.2-.2 3.2.2 3.7.6.6 2.2-1.2 5-1.4q2.5-.1 4 .5c-2 2.8-3 4.6-4.3 6.2-1 1-.3 2-1.2 3.3-1.1 1.7-2.5 4-4.5 4.5a7 7 0 0 1-4.6-.8z" fill="#FBE600" stroke="#000000" stroke-miterlimit="10"/><path id="path54" d="M851.6 426a28 28 0 0 1-8.6 8.4m0-18.6v18.6m-8.6-8.5a28 28 0 0 0 8.6 8.5" fill="none" stroke="#767676" stroke-linecap="round" stroke-miterlimit="10"/></g><g id="g56"><path id="path55" d="M854.7 448.4c.3-.3 1.8-1.6 1.9-4 0-.4 0-2.6-1.7-4.2a5 5 0 0 0-3.9-1.2c.1-.7.4-2.6-.8-4.7-1.1-2.1-3.1-3-3.6-3.1s-2-.4-3.5 0a6 6 0 0 0-3.2 2.7 5 5 0 0 0-3.2-2c-2.1-.3-4.5 1.4-5.2 4.1.1.7 1.4 8.4 8.9 12.2 6.8 3.6 13.5.6 14.3.2z" fill="#FFFFFF" stroke="#000000" stroke-miterlimit="10"/><path id="path56" d="M829 435.6q-.5 2.4 0 6.8c.3 4.3.4 7 2.1 9.6.8 1.1 2.6 3.4 6.6 5 3.4 1.6 6 1.2 7.2 1 2.5-.5 4.2-2 7.8-4.8q2.7-2.2 4.2-3.8-1.3-.7-3.5-1.3c-3-.6-5.3 0-6.6.3a43 43 0 0 0-1.5-11.5q-2 1-4.2 2.7a29 29 0 0 0-4.4 4.1l-1.3-3c-1.2-2.2-2-3.6-3.6-4.4q-.9-.6-2.9-.7z" fill="#006F23" stroke="#000000" stroke-miterlimit="10"/></g><g id="g58"><path id="path57" d="M849.7 469.6c.3-.1 2.3-1.2 2.8-3.5.1-.4.6-2.6-.8-4.6a5 5 0 0 0-3.6-2.2c.3-.5 1-2.5.2-4.8-.7-2.4-2.5-3.7-3-4s-1.7-.8-3.5-.6c-2.1.1-3.4 1.5-3.8 1.8-.2-.3-1-2.2-2.8-2.7-2.1-.8-4.8.5-6.2 3 0 .9-.4 9 6.2 14.3a17 17 0 0 0 14.5 3.3z" fill="#FFFFFF" stroke="#000000" stroke-miterlimit="10"/><path id="path58" d="M826.6 451q-.7 2.5-1.5 6.8c-.6 4.4-1 7.3.1 10.2.4 1.3 1.8 4 5.5 6.5a12 12 0 0 0 7.1 2.7c2.6 0 4.8-1 8.9-3.2q3.2-1.6 5-2.8-1-1.3-3.2-2.2a14 14 0 0 0-6.7-1.2 45 45 0 0 0 1-11.9q-2.2.7-4.9 1.8-3.2 1.6-5.4 3.2 0-1.3-.7-3.3c-.7-2.5-1.1-4-2.6-5.3q-.5-.7-2.6-1.3z" fill="#006F23" stroke="#000000" stroke-miterlimit="10"/></g><g id="g60"><path id="path59" d="M840.2 490.7a6 6 0 0 0 3.7-3c.2-.4 1.2-2.5.2-4.9-1-2.1-2.9-2.8-3.2-3 .3-.5 1.5-2.3 1.3-4.8a7 7 0 0 0-2.1-4.8 6 6 0 0 0-3.5-1.4c-2.2-.3-3.9.7-4.3 1-.1-.4-.5-2.4-2.3-3.4-2-1.2-5-.6-7 1.8-.2.8-2.4 9 3 15.9a19 19 0 0 0 14.2 6.6z" fill="#FFFFFF" stroke="#000000" stroke-miterlimit="10"/><path id="path60" d="M821 466.5q-1.3 2.3-3.2 6.6c-1.6 4.4-2.6 7-2.1 10.5.2 1.4.9 4.5 4.2 7.8 2.6 3 5.3 4 6.6 4.2 2.7.7 5 0 9.8-1.1q3.7-1 5.8-1.8-1-1.4-2.9-3a14 14 0 0 0-6.5-2.6q1.3-2.4 2.2-5.8 1.1-3.3 1.6-6.2a33 33 0 0 0-11.6 2.8v-3.6c-.2-2.6-.2-4.4-1.4-6q-.7-.7-2.5-1.8z" fill="#006F23" stroke="#000000" stroke-miterlimit="10"/></g><g id="g62"><path id="path61" d="M828.1 511.8a6 6 0 0 0 5.3-7.4 6 6 0 0 0-2.8-3.7 7.6 7.6 0 0 0 .9-10 6 6 0 0 0-3.2-2c-2.2-.7-4.1 0-4.7.2 0-.4 0-2.6-1.7-4-1.8-1.6-5-1.5-7.5.5-.3.8-4 8.8.4 17a19 19 0 0 0 13.3 9.4z" fill="#FFFFFF" stroke="#000000" stroke-miterlimit="10"/><path id="path62" d="M812.6 483.5a48 48 0 0 0-4.4 6.3c-2.4 4.2-4 6.8-4 10.4 0 1.5 0 4.8 2.8 8.8 2.1 3.6 4.7 5 6 5.5 2.6 1 5.2 1 10.2.6l6.3-.8q-.8-1.6-2.5-3.5a15 15 0 0 0-6.2-4 42 42 0 0 0 5.9-11.5 37 37 0 0 0-12.4.8q.4-1.5.6-3.7c.4-2.8.6-4.7-.4-6.4q0-1.1-1.9-2.5z" fill="#006F23" stroke="#000000" stroke-miterlimit="10"/></g><g id="g64"><path id="path63" d="M807.8 500.7c-5 1.7-6.2 2.1-7.8 3.7-1 1-2.5 2.9-3.3 2.9-1 0-.9-2.9-3-5.4a13 13 0 0 0-3.9-3c-.6 4.1-1.3 6.5-1.5 9-.2 1.6-1.5 1.9-1.8 3.7-.5 2.4-1.3 5.5 0 7.7 1 1.9 3.6 2.9 4.6 3.1l.1.2c.3 1 1.3 3.5 3.2 4.6 2.1 1.3 5.3.5 7.6 0 1.9-.4 2.2-1.7 3.8-1.8 2.5-.3 4.8-1 9-1.6q-.8-1.6-3-3.9c-2.6-2-5.4-1.9-5.4-3 0-.7 1.8-2.2 2.9-3.3 1.5-1.5 2-2.7 3.6-7.8q1.2-3 2.4-7.5z" fill="#FBE600" stroke="#000000" stroke-miterlimit="10"/><path id="path64" d="M806.2 522a33 33 0 0 1-14.4-.2m16-16-16 16m-.1-14.4a33 33 0 0 0 .1 14.4" fill="none" stroke="#767676" stroke-linecap="round" stroke-miterlimit="10"/></g></g></g><g id="g84"><defs id="defs66"><ellipse id="SVGID_00000129917444076042006780000013931127853815382948_" cx="750" cy="500" rx="151.66" ry="206.19"/></defs><clipPath id="SVGID_00000099630811085235586830000008608396459732569738_"><use id="use66" xlink:href="#SVGID_00000129917444076042006780000013931127853815382948_"/></clipPath><g id="g83" clip-path="url(#SVGID_00000099630811085235586830000008608396459732569738_)"><path id="path66" d="M697.1 342.9a111 111 0 0 0-39.4 64.6c-8.1 45.5 16.6 94.3 62.7 122.5" fill="none" stroke="#000000" stroke-width="2.5" stroke-miterlimit="10"/><path id="path67" d="M697.4 512.4q2.3-2.6 5-6.9 3.3-6.1 4-10.4a32 32 0 0 0-2.1-14.2 36 36 0 0 0-5.2-9.8q0 2.7-1.8 7.3c-1.1 2.4-2 3.3-3.4 5.9-.8 1.6-2 4.3-2.7 7.7a21 21 0 0 0 6.2 20.4z" fill="#FBE600" stroke="#000000" stroke-width="0.75" stroke-miterlimit="10"/><path id="path68" d="M652.3 492a25 25 0 0 0 17 13.4q3.3.4 9.2-1.1 4.6-1.7 7-3.5a34 34 0 0 0-16.6-10q-2-.4-5.4.2c-2.5.5-3.5 1.2-5.8 1.4q-1.7.4-5.4-.4z" fill="#FBE600" stroke="#000000" stroke-width="0.75" stroke-miterlimit="10"/><path id="path69" d="M677 487.8a38 38 0 0 0 11.7-14.7 36 36 0 0 0-2.3-24q-.7 2.8-3 6.7c-1.5 2-2.5 2.7-4.3 5a32 32 0 0 0-4 6.7 20 20 0 0 0 1.9 20.3z" fill="#FBE600" stroke="#000000" stroke-width="0.75" stroke-miterlimit="10"/><path id="path70" d="M645.4 471.3c.7 1.7 1.8 4.5 4 7.1a21 21 0 0 0 9.1 6.4q2.8.8 8 0 4.3-.7 6.4-2.1-1.5-2.4-4.6-5.3a24 24 0 0 0-8.5-5.1q-1.6-.5-4.7-.4c-2.2 0-3.2.6-5.1.5q-1.6 0-4.6-1.1z" fill="#FBE600" stroke="#000000" stroke-width="0.75" stroke-miterlimit="10"/><path id="path71" d="M663.3 462a36 36 0 0 0 14-11.6c1.5-2.6 3-7.2 3.2-13q.3-6.4-1-10.2c-.7 1.4-2 3.6-4.1 5.6-1.8 1.7-3 2.2-5 4q-2 1.7-5 5.6a19 19 0 0 0-2 19.6z" fill="#FBE600" stroke="#000000" stroke-width="0.75" stroke-miterlimit="10"/><path id="path72" d="M639.4 446.8a23 23 0 0 0 9.6 16.5q2.5 1.6 7.8 2.1a21 21 0 0 0 7-.5q-.9-2.7-3.2-6.3c-2.3-3.5-5-6-7-7.3q-1.5-1-4.5-1.6c-2.2-.5-3.2-.3-5.2-.8a13 13 0 0 1-4.5-2.1z" fill="#FBE600" stroke="#000000" stroke-width="0.75" stroke-miterlimit="10"/><path id="path73" d="M657.2 435.6a37 37 0 0 0 7.3-2.5 27 27 0 0 0 8.2-5.5 33 33 0 0 0 7.1-21.3 20 20 0 0 1-5 4.4c-2 1.1-3.1 1.3-5.4 2.6q-2.3 1.2-6 4.2a19 19 0 0 0-6.2 18z" fill="#FBE600" stroke="#000000" stroke-width="0.75" stroke-miterlimit="10"/><path id="path74" d="M638.4 424.3a20 20 0 0 0 .7 8 20 20 0 0 0 5.2 9.2q2.1 2 6.9 3.4 4 1 6.5.8-.4-2.7-1.8-6.4a22 22 0 0 0-5.3-8q-1.2-1.1-4-2.3c-1.9-.9-3-.8-4.6-1.6q-1.4-.9-3.6-3z" fill="#FBE600" stroke="#000000" stroke-width="0.75" stroke-miterlimit="10"/><path id="path75" d="M642 402.7a19 19 0 0 0-1.4 7.8c.1 4.9 1.8 8.6 3 10.2q1.5 2.4 5.8 5 3.7 2 6.2 2.3a27 27 0 0 0-3.3-15.8q-.9-1.4-3.3-3.1c-1.7-1.3-2.7-1.6-4-2.7q-1.6-1.1-3-3.7z" fill="#FBE600" stroke="#000000" stroke-width="0.75" stroke-miterlimit="10"/><path id="path76" d="M649.5 381.5c-.8 1.4-2.1 3.9-2.7 7a18 18 0 0 0 .7 10q1 2.6 4.5 5.8 3.1 2.6 5.3 3.4.8-2.4 1.1-6.2.2-5.9-1.1-9-.6-1.6-2.4-3.7c-1.4-1.6-2.2-2-3.3-3.4q-1.2-1.1-2-4z" fill="#FBE600" stroke="#000000" stroke-width="0.75" stroke-miterlimit="10"/><path id="path77" d="M658.7 406.9a30 30 0 0 0 14.8-4 28 28 0 0 0 10-17q-1.8 1.5-5.3 2.8c-2 .7-2.9.7-5 1.3q-2.3.5-6 2.5a17 17 0 0 0-6.4 6.4 16 16 0 0 0-2 8z" fill="#FBE600" stroke="#000000" stroke-width="0.75" stroke-miterlimit="10"/><path id="path78" d="M660.9 364q-2 1.6-4 5.7a18 18 0 0 0-1.4 9.2q.4 2.5 2.8 6.2 2.3 3 4 4.2a27 27 0 0 0 2.4-5.5q1.4-5.2.9-8.4a11 11 0 0 0-1.4-3.7c-.9-1.6-1.6-2.2-2.3-3.7-.4-1-1-2.2-1-4z" fill="#FBE600" stroke="#000000" stroke-width="0.75" stroke-miterlimit="10"/><path id="path79" d="M667.1 381.7q2.5.7 6.4.6 5.2-.2 8.3-1.4c2.2-1 5.3-3.1 8.4-6.7q3.1-4.2 4.3-7-1.7.9-5.3 1.5c-2 .2-3 0-5.1 0q-2.2.2-6 1.3a16 16 0 0 0-7.4 4.5 16 16 0 0 0-3.6 7.2z" fill="#FBE600" stroke="#000000" stroke-width="0.75" stroke-miterlimit="10"/><path id="path80" d="M672.5 347c-1.3.9-3.2 2.6-4.8 5.2-2.3 3.7-3 7.3-2.8 9q0 2.5 2 6.7a21 21 0 0 0 3.4 4.8 24 24 0 0 0 5.1-13.6q0-1.5-.8-3.9c-.7-1.8-1.3-2.4-1.8-4q-.4-1.5-.3-4.3z" fill="#FBE600" stroke="#000000" stroke-width="0.75" stroke-miterlimit="10"/><path id="path81" d="M683.5 358.3q2.2 1.1 5.6 2.1 4.7 1.1 7.8.9a26 26 0 0 0 15-9.2q-1.8.4-5.2.1c-1.8-.3-2.7-.8-4.6-1.2a22 22 0 0 0-5.8-.5 14 14 0 0 0-7.8 2.4c-3 1.7-4.4 4.2-5 5.4z" fill="#FBE600" stroke="#000000" stroke-width="0.75" stroke-miterlimit="10"/><path id="path82" d="M691.7 333.2a18 18 0 0 0-11.2 11.2q-.7 2.3 0 6.7c.4 2.4 1.3 4.2 1.9 5.5q1.9-1.3 4.4-4c2.3-2.6 3.8-5.3 4.2-7.1q.4-1.5.3-4c0-1.8-.4-2.6-.4-4.3q-.1-1.5.8-4z" fill="#FBE600" stroke="#000000" stroke-width="0.75" stroke-miterlimit="10"/><path id="path83" d="M715.3 334.5q-2.5-1.1-7.8-1.3-4.1 0-6.3 1.2a16 16 0 0 0-5.6 4.6 24 24 0 0 0-4.3 8.6 24 24 0 0 0 19.3-7.7q3-3 4.7-5.4z" fill="#FBE600" stroke="#000000" stroke-width="0.75" stroke-miterlimit="10"/></g></g><g id="g85"><ellipse id="SVGID_1_" cx="750" cy="500" rx="151.66" ry="206.19" fill="none" stroke="#000000" stroke-width="7" stroke-miterlimit="10"/></g></g></g><!-- app4joy --></svg>