<svg id="svg81" width="1500" height="1050" viewBox="0 0 1500 1050" xmlns="http://www.w3.org/2000/svg"><defs id="defs2"><radialGradient id="a" cx="183.35" cy="278.83" r="166.27" gradientUnits="userSpaceOnUse"><stop id="stop1" stop-color="#fff" offset=".3152"/><stop id="stop2" stop-color="#71cfeb" offset="1"/></radialGradient></defs><g id="g2"><path id="path2" transform="scale(1 1.05)" d="M0 0h1500v1000H0z" fill="#fff"/></g><g id="g81" transform="matrix(1.3792 0 0 1.2245 497.6 213.4)"><path id="path3" d="M341.7 332V100c0-22.2 20.2-33.4 20.2-33.4L308.2 4H58.5L4.8 66.6S25 77.8 25 100.1v232c0 24.3 19.9 69.8 73.1 95.8s79.7 28 85 52.3h.4C189 456 215.2 454 268.3 428l-7.6 3.7 1.1 3.4a70 70 0 0 0 11.8 21.2l.4.5c-17.2 12.8-45.9 26.7-90.7 26.7s-73.6-13.9-90.8-26.7l.4-.5a70 70 0 0 0 12.5-23.4l.4-1.2s-20-9-33.9-19.6c-12.9-9.8-24.6-23.9-24.6-23.9a322 322 0 0 0 5.2 34.9s-11.7-2-18.8-2.6-15.6-3.1-15.6-3.1 16.2 20.1 30.3 29.5l8.3 5.3-12.2 11.7s28.1 27 63.6 41.2 74.8 12.8 74.8 12.8h.7s39.3 1.4 74.8-12.8 63.6-41.2 63.6-41.2l-12.2-11.7 8.3-5.3c14-9.4 30.3-29.5 30.3-29.5s-8.6 2.5-15.6 3.1-18.8 2.6-18.8 2.6 2.1-9 3.5-19.4q2-15.5 1.8-15.5c-.2 0-11.8 14-24.7 23.9q-5.7 4.3-11.8 7.9c42.6-26.5 58.9-65.9 58.9-88z" fill="#fff" stroke="#000" stroke-width="4"/><path id="path4" d="M105.8 431.7s-20-9-33.9-19.6c-12.9-9.8-24.7-23.9-24.7-23.9a322 322 0 0 0 5.3 34.9s-11.7-2-18.8-2.6-15.6-3.1-15.6-3.1 16.2 20.1 30.3 29.5 35.3 21 35.3 21 17.4-19.2 22-36.2z" fill="#fd0" stroke="#000" stroke-width="2"/><path id="path5" d="M72.1 437.3s9.2-.5 17.4-1.7 16.3-4 16.3-4-3.7 14-13.1 25c0 0-15.9-11-20.6-19.3zm188.6-5.6s20-9 33.9-19.6c12.9-9.8 24.7-23.9 24.7-23.9s-.4 5.1-1.8 15.5S314 423 314 423s11.7-2 18.8-2.6c7-.6 15.6-3.1 15.6-3.1s-16.2 20.1-30.3 29.5-35.2 21-35.2 21-17.5-19.2-22.2-36.2z" fill="#fd0" stroke="#000" stroke-width="2"/><path id="path6" d="M294.4 437.3s-9.2-.5-17.4-1.7-16.3-4-16.3-4 3.8 14 13.1 25c0 0 15.9-11 20.6-19.3z" fill="#fd0" stroke="#000" stroke-width="2"/><path id="path7" d="M183.6 517.9s39.3 1.4 74.8-12.8 63.6-41.2 63.6-41.2l-27.6-26.6c-7.4 8.7-37.4 46.2-111.1 46.2-73.8 0-103.8-37.5-111.2-46.2L44.5 464s28.1 27 63.6 41.2 74.8 12.8 74.8 12.8z" fill="#fd0" stroke="#000" stroke-width="2"/><path id="path8" d="M341.7 332V100" fill="#fff" stroke="#000" stroke-width="2"/><path id="path9" d="M105.8 431.7s-20-9-33.9-19.6c-12.9-9.8-24.7-23.9-24.7-23.9a322 322 0 0 0 5.3 34.9s-11.7-2-18.8-2.6-15.6-3.1-15.6-3.1 16.2 20.1 30.3 29.5 35.3 21 35.3 21 17.4-19.2 22-36.2z" fill="#fd0" stroke="#000" stroke-width="2"/><path id="path10" d="M72.1 437.3s9.2-.5 17.4-1.7 16.3-4 16.3-4-3.7 14-13.1 25c0 0-15.9-11-20.6-19.3z" fill="#bd9806" stroke="#000" stroke-width="2"/><path id="path11" d="M260.7 431.7s20-9 33.9-19.6c12.9-9.8 24.7-23.9 24.7-23.9s-.4 5.1-1.8 15.5S314 423 314 423s11.7-2 18.8-2.6c7-.6 15.6-3.1 15.6-3.1s-16.2 20.1-30.3 29.5-35.2 21-35.2 21-17.5-19.2-22.2-36.2z" fill="#fd0" stroke="#000" stroke-width="2"/><path id="path12" d="M294.4 437.3s-9.2-.5-17.4-1.7-16.3-4-16.3-4 3.8 14 13.1 25c0 0 15.9-11 20.6-19.3z" fill="#bd9806" stroke="#000" stroke-width="2"/><path id="path13" d="M183.6 517.9s39.3 1.4 74.8-12.8 63.6-41.2 63.6-41.2l-27.6-26.6c-7.4 8.7-37.4 46.2-111.1 46.2-73.8 0-103.8-37.5-111.2-46.2L44.5 464s28.1 27 63.6 41.2 74.8 12.8 74.8 12.8z" fill="#fd0" stroke="#000" stroke-width="2"/><path id="path14" d="M183.5 480.2c5.4-24.3 31.8-26.3 85-52.3s73.2-71.5 73.2-95.8V100c0-22.3 20.2-33.5 20.2-33.5L308.2 4H58.5L4.8 66.6S25 77.8 25 100.1v232c0 24.3 19.9 69.8 73.1 95.8s79.7 28 85 52.3z" fill="#fff" stroke="#000" stroke-width="2"/><circle id="circle14" cx="183.35" cy="277.31" r="86.924" fill="#0db14b"/><circle id="circle15" cx="183.35" cy="277.31" r="86.924" fill="none" stroke="#000" stroke-width=".7"/><circle id="circle16" cx="183.17" cy="284.6" r="79.044" fill="#0db14b"/><ellipse id="ellipse16" cx="183.18" cy="285.94" rx="78.053" ry="77.55" fill="#1cb24d"/><ellipse id="ellipse17" cx="183.18" cy="287.27" rx="77.061" ry="76.056" fill="#26b34e"/><ellipse id="ellipse18" cx="183.19" cy="288.61" rx="76.069" ry="74.563" fill="#2db450"/><ellipse id="ellipse19" cx="183.19" cy="289.95" rx="75.077" ry="73.069" fill="#34b452"/><ellipse id="ellipse20" cx="183.2" cy="291.29" rx="74.086" ry="71.575" fill="#3ab555"/><ellipse id="ellipse21" cx="183.21" cy="292.63" rx="73.094" ry="70.082" fill="#3fb657"/><ellipse id="ellipse22" cx="183.21" cy="293.97" rx="72.102" ry="68.587" fill="#44b759"/><ellipse id="ellipse23" cx="183.22" cy="295.31" rx="71.111" ry="67.093" fill="#49b85c"/><ellipse id="ellipse24" cx="183.23" cy="296.65" rx="70.119" ry="65.6" fill="#4db85e"/><ellipse id="ellipse25" cx="183.23" cy="297.99" rx="69.127" ry="64.106" fill="#51b961"/><ellipse id="ellipse26" cx="183.24" cy="299.33" rx="68.135" ry="62.612" fill="#54ba64"/><ellipse id="ellipse27" cx="183.24" cy="300.67" rx="67.144" ry="61.118" fill="#58bb66"/><ellipse id="ellipse28" cx="183.25" cy="302" rx="66.152" ry="59.625" fill="#5bbc69"/><ellipse id="ellipse29" cx="183.26" cy="303.34" rx="65.16" ry="58.131" fill="#5fbd6c"/><ellipse id="ellipse30" cx="183.26" cy="304.68" rx="64.168" ry="56.637" fill="#62be6f"/><ellipse id="ellipse31" cx="183.27" cy="306.02" rx="63.177" ry="55.144" fill="#65bf72"/><ellipse id="ellipse32" cx="183.27" cy="307.36" rx="62.186" ry="53.649" fill="#68c075"/><ellipse id="ellipse33" cx="183.28" cy="308.7" rx="61.194" ry="52.155" fill="#6cc178"/><ellipse id="ellipse34" cx="183.29" cy="310.04" rx="60.202" ry="50.662" fill="#6fc27b"/><ellipse id="ellipse35" cx="183.29" cy="311.38" rx="59.21" ry="49.168" fill="#72c27d"/><ellipse id="ellipse36" cx="183.3" cy="312.72" rx="58.219" ry="47.674" fill="#74c380"/><ellipse id="ellipse37" cx="183.3" cy="314.06" rx="57.227" ry="46.18" fill="#77c483"/><ellipse id="ellipse38" cx="183.31" cy="315.4" rx="56.235" ry="44.686" fill="#7ac586"/><ellipse id="ellipse39" cx="183.32" cy="316.73" rx="55.243" ry="43.192" fill="#7dc688"/><ellipse id="ellipse40" cx="183.32" cy="318.07" rx="54.252" ry="41.698" fill="#80c78b"/><ellipse id="ellipse41" cx="183.33" cy="319.41" rx="53.26" ry="40.205" fill="#82c88d"/><ellipse id="ellipse42" cx="183.33" cy="320.75" rx="52.268" ry="38.712" fill="#85c990"/><ellipse id="ellipse43" cx="183.34" cy="322.09" rx="51.277" ry="37.218" fill="#88ca93"/><ellipse id="ellipse44" cx="183.35" cy="323.43" rx="50.285" ry="35.724" fill="#8bcb95"/><ellipse id="ellipse45" cx="183.35" cy="324.77" rx="49.293" ry="34.23" fill="#8dcc98"/><ellipse id="ellipse46" cx="183.36" cy="326.11" rx="48.301" ry="32.736" fill="#90cd9a"/><ellipse id="ellipse47" cx="183.37" cy="327.45" rx="47.31" ry="31.242" fill="#93cf9d"/><path id="path47" d="M182.6 96.8h-148v235.7c0 54.5 61 87.5 94.5 100s50.4 20.6 54 28.4h.4c3.8-7.8 20.7-16.1 54.1-28.5s94.6-45.4 94.6-99.9V96.8zm87.7 180.5a87 87 0 1 1-87.7-86.9h.8a87 87 0 0 1 86.9 87" fill="url(#a)"/><g id="g48"><path id="path48" d="M183.4 190.4a87 87 0 0 1 78.3 49.2h70.5V96.8H182.6v93.6zm78.3 49.2a87 87 0 1 1-156.7 0H34.5v92.9c0 54.5 61.1 87.5 94.6 100s50.4 20.6 54 28.4h.4c3.7-7.8 20.7-16.1 54.1-28.5s94.6-45.4 94.6-99.9v-92.9zm-79-49.2V96.8H34.4v142.8H105a87 87 0 0 1 77.6-49.2z" fill="none" stroke="#000" stroke-width="2"/></g><path id="path49" d="M183.5 460.9c3.8-7.8 20.7-16.1 54.1-28.5s94.6-45.4 94.6-99.9V96.8H34.5v235.7c0 54.5 61.1 87.5 94.6 100s50.4 20.6 54 28.4z" fill="none" stroke="#000" stroke-width="2"/><path id="path50" d="M273 176.9s8.8 2.8 12.4-.2 4.7-6.9 4.7-6.9 10.7 3.2 13.1-1.9-4-9.6-4-9.6 8.6-5 6-14.3-11.3-7.5-11.3-7.5 5.3-6.5-1-11.3-11.3 1.3-11.3 1.3 1.9-12.2-8.8-12.2H270c-10.6 0-8.8 12.2-8.8 12.2s-5-6.2-11.3-1.3-.9 11.3-.9 11.3-8.9-1.8-11.4 7.5 6 14.3 6 14.3-6.4 4.6-4 9.6 13.2 2 13.2 2 1.2 3.8 4.7 6.8 12.3.2 12.3.2z" fill="#00904c"/><path id="path51" d="M333.7 89.3A43 43 0 0 1 349.8 65L304 10.9H62.5l-45.8 54s12.4 8.3 16.1 24.4z" fill="#fd0" stroke="#000" stroke-width="2"/><path id="path52" d="m182.8 136.7 16 10.7-6-18.4 15.7-11.3-19.2.1-6.7-18.8v.1L176 118h-19.3l.1.1 15.5 11.3-5.5 19z" fill="#fff" stroke="#000" stroke-width="2"/><g id="g53"><path id="path53" d="M137 393a34 34 0 0 0-6-26.3c1.9 3.7 3.6 10.8 1.1 23.8l-2.6-1.6c2.2-17.3-8.2-30-8.2-30s6 9.5 3 26.7l-2.5-2 .3-9.3c.1-10.3-6.7-20.6-6.7-20.6s2.8 8 3.6 14.8c.5 5.1-.9 9.7-1.6 11.6l-5-4.5a47 47 0 0 0 1.4-11.3c0-7.8-4-16.8-4-16.8s.6 4.4 1 12.5c.3 5.8-1.3 10-2.4 11.9l-4.2-4.3a41 41 0 0 0 1.7-10c.5-7.3-3.2-19.3-3.2-19.3s1.6 8.6 1 15.7c-.4 5.6-2.1 9-2.8 10.2l-3.3-3.5c.5-1.3 2-5 2.3-10.7.4-7.3-4-18.8-4-18.8s1.5 8.3 1.5 16.1c0 6.4-2.1 9.3-2.9 10.1q-3-3.4-5.8-7.2a29 29 0 0 0 3.8-10.9c.7-6.5-3.7-18.6-3.7-18.6s1.2 7 1 16.8c0 6.5-2 8.8-3.3 9.6l-4-6.3c.8-1.2 3-5 3.6-10.5.7-6.7-2.4-17.5-2.4-17.5s.5 7.3.3 14.5a13 13 0 0 1-3.8 9.5l-4-7.8c1-1 3.3-3.8 3.8-9.4.7-7.2-2.1-23-2.1-23s.3 3.2.2 14.3c-.1 8.6-2.7 12.3-3.9 13.6l-3-7.5c.9-1 2.4-3 3-6.3 1-4.9-.5-24.8-.5-24.8s-.2 9-1.2 17.8c-.7 6.1-2.1 8.2-3 9l-3-9.5 2.3-4.2c2-4 .3-26.6.3-26.6s-.1 7.1-.8 14.1a41 41 0 0 1-3 12.1q-1.8-6.9-2.5-10.4c.6-1.4 2.5-6 3.6-11.2 1.3-6.4 2.2-19.6 2.2-19.6s-2.7 7-3.3 13.4-3 14.5-3 14.5-2.2-.5-5.3-7.7-4-17.8-4-17.8-.5 8.4 1.2 16a25 25 0 0 0 8.4 12.8q.6 5 1.6 9.9c-1-.8-2.7-2.3-5.6-5.7-4.8-5.6-8.2-19-8.2-19s2 12.4 5.3 19.2c2.7 5.2 7.5 8.8 9.5 10.1l2.6 9.3a38 38 0 0 1-6.7-6.3c-5.6-6.4-10-17.6-10-17.6s2.3 10 8.3 19.2c4.5 6.9 8.5 9 10.2 9.7q1.4 3.7 3 7.3c-1.3-.6-3.7-2-8.2-6-7.4-6.3-12.7-18-12.7-18s3 12.3 11.3 20.4c5.8 5.7 9.8 7.5 11.6 8l4 7.9c-1.6-.6-5-2-10-5.2-7-4.5-14.8-15.8-14.8-15.8s7.5 14 14.4 19c5 3.7 10.3 5.4 12.7 6l3.8 6.2-8.2-3.3c-8.9-3.5-20.9-17.2-20.9-17.2S68.1 344 75 347.5a41 41 0 0 0 12.7 4q2 3 4 5.6-4.2-.8-12.7-4c-8.9-3.6-18.4-13.8-18.4-13.8S69 352 79 356.5c6.5 3 12.4 4.1 15.7 4.5l2.3 2.8c-4.3-1-11.6-2.6-17.6-4.3a35 35 0 0 1-15.2-10c2.3 6.4 13.3 13 21.3 15.7 5.7 2 12.7 3.3 16 4l3.7 4q-4.5 0-15.7-1.8c-12-2-21.6-11.2-21.6-11.2s5.3 11.2 23 15.5a60 60 0 0 0 19.4 2.6l3.6 3.4c-2.4.3-6.3.5-12.6.4-13.2-.3-27.5-8-27.5-8s11 10 23.4 11.9c8.8 1.2 17.5.7 21.7.3l3.2 2.6c-17.9 4.9-41.2-3.4-41.2-3.4s20.6 14.4 46 7l2.4 1.8c-18.7 8-43 .2-43 .2s25.4 13.2 47.5 2.7q2.5 1.6 4.6 2.5c18.8 8.6 46.9 6.5 46.9 6.5v-4.8a108 108 0 0 1-48.2-8.4" fill="#00904c"/></g><g id="g54"><path id="path54" d="M313.4 301.8s-5.9 18.6-20.4 25q2-4.3 3.7-8.8c12.1-3.5 17-28.7 17-28.7s-5.1 19.2-15.4 24.1c1-3 2-6 2.8-9.2 12.1-2.3 12.4-31.2 12.4-31.2s-1 21.8-11.4 26.8q1-5.2 1.8-10.8c9.6-5.6 7-30 7-30s-.5 10-1.4 14.4a59 59 0 0 1-5.3 12.5v-.6.7s-2-.3-4.4-5.5-2.3-21.2-2.3-21.2-3.9 23.8 6 29.5q-.6 4-2.5 10.9c-6.3-5.9-5.8-24.2-5.8-24.2s-5 19.2 4.6 28.2q-1.3 4.7-3.3 10c-8-5-5.9-26.7-5.9-26.7s-6.5 21.3 4.5 30.6q-1.8 4.6-4 9.5c-8.5-6.7-5.1-28.2-5.1-28.2s-8.3 18.4 3.4 31.8q-2.4 5.1-5.4 10.1c-9.3-5.4-4.2-29.5-4.2-29.5s-10 20 2 33q-3 4.8-6.6 9.3c-8.3-9.1-2.2-31.9-2.2-31.9s-9.1 22.8-.7 35.4a91 91 0 0 1-6.9 7.3c-8.4-6.3.8-31.7.8-31.7s-13.2 20.3-3.5 34.5l-7.2 7.2c-9-9-1.5-28.4-1.5-28.4s-10.9 18-1.8 31.4a122 122 0 0 1-8.3 6.8c-6.4-9 3.4-30.9 3.4-30.9s-14.2 18.7-7.3 33.8a80 80 0 0 1-8 4.7c-5.3-13.7 6.8-30.8 6.8-30.8s-15.7 13-11.5 33a108 108 0 0 1-45.4 7.4v4.8s27.5 2 46.3-6.5l3-1.5c28.2 7.6 48.4-4 48.4-4s-19.5 6.6-43 .6q3.4-2.3 7.2-5.3c26 4.2 47-11.4 47-11.4s-13.5 7.9-42.5 7.6l7-6.4c23.4.8 42.1-16 42.1-16s-16 11.2-38 12l6.2-6.8c21.5-1.3 38.1-22.2 38.1-22.2s-16.3 17-35 18.5q3-3.3 5.6-7c17.3-1 29.2-19 32.6-24.8a43 43 0 0 1-29.6 20.8l6-9.1c17.1-2.9 27-26.8 27-26.8s-8.5 17-24.4 22.7l5-9.4c14.8-2.7 22.5-29.4 22.5-29.4m-6.5 31.2 1-1.8z" fill="#00904c"/></g><path id="path55" d="M271.6 129.7s2.7 2.8 3 5.7 0 6 0 6 2-3.3 4.2-4.6 4.9-1.5 4.9-1.5-6.5 5.7-7.1 9.5l-1 6.2s3.7-5 7.9-6 5.5-1.1 5.5-1.1-7.3 3.6-10 7.7-2.4 11.3-2.4 11.3 2.6-5.5 8.6-6.4 8 0 8 0-6.8.4-11 6.1-5.5 7.8-5.5 14v12.1c0 1.7 1.4 6.2 5.8 6.2s6.3-1.7 9 1 2.8 4.7 2.8 4.7-5.3-2.8-8-2.7-5.7 0-8.4 1.2-5.1 1.1-5.1 1.1H270s-2.4 0-5.1-1.1-5.9-1.1-8.5-1.2-7.9 2.7-7.9 2.7.2-2.1 2.8-4.7 4.7-1 9-1 5.8-4.5 5.8-6.2v-12c0-6.3-1.4-8.3-5.6-14s-11-6.2-11-6.2 2.2-.9 8.1 0 8.6 6.4 8.6 6.4.3-7.1-2.4-11.3-10-7.7-10-7.7 1.4 0 5.5 1 7.8 6.1 7.8 6.1l-1-6.2c-.6-3.7-7-9.5-7-9.5s2.8.2 4.9 1.5 4.2 4.5 4.2 4.5-.3-3.1 0-6 3-5.6 3-5.6z" fill="#6d593b" stroke="#000" stroke-linecap="round" stroke-width=".7"/><path id="path56" d="M121.5 116.4s-1.7 6-9 9S101 131 101 131l5.3.4c3 .3 4.8-.4 4.8-.4s-6.3 1-9.3 5.2-4.3 5.2-10 5.2-11.7 1-11.7 1 .8-.9-1.2-2.9-5.5-8.8-3.2-13.4 5.7-8.3 10.8-9.2 10.6-1.3 12-5c1.8 4.9-4.8 8-4.8 8s7.1-3.4 12-4.2 6.4-.6 6.4-.6-3.8 1-5.8 3.5c0 0 3.2.6 7 .4s8.3-2.7 8.3-2.7" fill="#ed1a3b" stroke="#000" stroke-linecap="round" stroke-linejoin="round" stroke-width=".7"/><path id="path57" d="M101.7 122.2s-.3 3.5-3.9 5.8c-3.6 2.4-5.8 4.4-5.8 4.4l3-.4c1.6-.1 2.5-.6 2.5-.6s-3.3 1.1-4.5 3.8-1.8 3.2-5 3.8c-3 .6-6.2 1.8-6.2 1.8s.3-.5-1-1.4-3.9-4.3-3.1-7 2.2-5.1 5-6.2c2.6-1 5.6-1.8 6-4 1.5 2.5-1.8 5-1.8 5s3.5-2.7 6-3.7 3.5-1 3.5-1-2 1-2.8 2.5c0 0 1.9 0 4-.5s4.1-2.3 4.1-2.3" fill="#f7941e"/><path id="path58" d="M92.1 127s.3 2.2-1.5 4.1c-1.9 2-3 3.5-3 3.5l1.8-.7 1.5-.7c0-.1-1.9 1.1-2.2 3-.4 1.7-.7 2.1-2.5 3s-4.4 1.7-4.4 1.7 0-1-1-1.3c-.8-.4-1.6-2-1.5-3.7 0-1.8.3-2.8 1.8-3.8s3.2-1.9 3.1-3.2c1.3 1.3-.4 3.2-.4 3.2s1.8-2.1 3.2-3 2-1.1 2-1.1-1 .8-1.4 1.9c0 0 1.1-.3 2.3-.9 1.2-.5 2.2-2 2.2-2" fill="#ffc20e"/><path id="path59" d="m96.4 219.5-3.9-56 3.9-4.2v-2h-4.2l-12.4-13.5h-.6l-12.4 13.6h-4.1v1.9l3.8 4.2-3.8 56h-1.9v2.7H71v-1.5l8.6-8.6 8.4 8.4v1.7h10.2v-2.7zm-25.6-23.2.9-13.5 6.2 6.3zm8.9-5.5 7.7 7.8H72zm-6.9-10.4h13.7l-6.8 7zm1.6-3 5.1-5.1 5.1 5zm6.9-6.8 5-5 .6 10.6zm-1.8-1.8-6.2-6.2h12.4zm-1.7 1.8-5.7 5.6.7-10.6zm8.8 31-7 7-7-7zm-5.2-12.5 6-6 .8 12.8zm-1.9-39.5 5.8 7.5H73.7zm-10.3 69.5 1.1-16.3 7.6 7.6zM88.7 203l1 15.9-8.4-8.5z"/><g id="g60"><path id="path60" d="m77 470.6 1.8 3a8 8 0 0 1-4.7 1.7 7 7 0 0 1-4.4-1.7q-2.7-2.2-2.8-5.4c-.1-3.2.7-4.4 2.5-6.6q2.9-3.4 6-4 3.3-.6 6.1 1.7a7 7 0 0 1 2.7 4.7q.2 1.6-.7 3.7l-3.2-1.5q.6-1.3.4-2.5t-1.3-2.1q-1.4-1.1-3.3-.8t-3.8 2.8q-2.1 2.7-2.1 4.5 0 1.9 1.4 3 1 1 2.4.8c1.4-.2 1.9-.5 3-1.3m2.4 9.6 10-14.8 2.8 1.9-10 14.8zm7.6 5.1 8.6-15.7 3 1.7.2 13.8 5.8-10.5 2.8 1.6-8.6 15.6-3-1.6-.4-13.6-5.7 10.2zm20.3 10.8 5.8-13.7-4.6-2 1.1-2.8 12.5 5.3-1.2 2.8-4.6-2-5.9 13.7zm24 8.8-3.6-1.2-.2-4.3-6.4-2.1-2.6 3.4-3.5-1.1 11.9-15 3.4 1.2zm-3.9-8.7-.1-7-4.3 5.6zm6.7 9.4 3.8-17.5 3.3.7-1.6 7.8 8.4-6.3 4.5 1-7.7 5.4 4.3 12.1-4.4-1-2.7-9.1-3.4 2.3-1.1 5.3zm19.9-14.2 3.4.4-1.2 9.6-.2 3q0 1.2.8 1.9t2.2 1q1.4.1 2.3-.4t1-1.5.5-3l1.2-9.8 3.4.4-1 9.4q-.5 3.1-.9 4.4t-1.3 2.1-2.1 1.3c-1.2.4-2 .3-3.4.1q-2.4-.3-3.6-1c-1.2-.7-1.3-1.1-1.7-1.8a5 5 0 0 1-.8-2l.2-4.6zm28.1 20-.6-18h3.3l7.4 11.7-.4-12 3.2-.1.6 17.9-3.5.1-7.2-11.4.4 11.6zm19.1-.8L199 493l12.5-1.6.4 3-9 1.2.4 4 8.5-1.2.3 3-8.4 1.1.6 4.8 9.4-1.1.4 3zm22.9-10-.7-3 7.2-1.6 1.6 7q-.8 1.3-2.6 2.6-1.8 1.2-3.9 1.7-2.6.6-4.8-.1a6 6 0 0 1-3.6-2.7q-1.5-1.8-2-4.4-.8-2.7 0-5c.7-2.4 1.1-3 2.4-4q1.3-1.3 3.7-1.8 3-.7 5.2.3c2.2 1 2.4 1.7 3 3.2l-3.1 1.4q-.7-1.2-1.8-1.7a4 4 0 0 0-2.6-.2q-2.2.4-3.1 2.3-1 1.7-.3 4.6.6 3 2.3 4.4 1.7 1.2 3.8.7 1-.2 2-.9t1.6-1.5l-.5-2.2zm13.5 3.2-5.8-17 12-4 1 2.9-8.7 3 1.2 3.7 8.1-2.8 1 2.9-8 2.8 1.5 4.6 9-3.1 1 2.9zm16-5.6-7.5-16.3 6.6-3q2.4-1.2 3.8-1.2t2.5.7c1.2.7 1.4 1.3 1.8 2.3q.9 1.8.4 3.4c-.5 1.6-1.1 2.1-2.4 3q1.4 0 2.3.6 1 .4 3 1.8l3.4 2.3-3.8 1.7-3.8-2.5-2.8-1.6-1.2-.3q-.6 0-1.7.6l-.6.3 3.1 6.7zm-1.2-10.8 2.3-1.1q2.3-1 2.7-1.5l.6-1q0-.7-.3-1.5-.4-.8-1-1a2 2 0 0 0-1.5-.2l-2.3 1-2.4 1.1zm18.9 2.3-8.8-15.7 3-1.6 8.8 15.6zm7.6-4.4-10-14.9 3-1.9 4.3 6.6 1.4-10.4 3.8-2.6-1.4 9.3 11.7 5.4-3.7 2.4-8.6-4.3-.6 4 3 4.5zm4.5-23.8 2.6-2.2 6.4 7.3 2 2.1a3 3 0 0 0 2 .7q1 0 2.2-1 1-1 1.2-2t-.3-1.7l-2-2.4-6.4-7.4 2.5-2.3 6.2 7q2.1 2.5 2.8 3.7t.7 2.4-.5 2.4-2.1 2.5a9 9 0 0 1-3.2 2q-1.3.4-2.5.2a5 5 0 0 1-2-.9q-1.3-1-3.3-3.2z"/></g><g id="g61"><path id="path61" d="M65.7 68V34.3h7.6q4.4 0 5.7.5 2 .8 3.4 3.3 1.3 2.6 1.3 6.6 0 3-.7 5.2a9 9 0 0 1-2 3.3q-1.3 1.2-2.5 1.6-1.7.5-5 .5h-3V68zm4.8-28v9.6H73q2.7 0 3.7-.6c1-.6 1.1-.9 1.5-1.6s.5-1.7.5-2.6q0-2-.7-3a3 3 0 0 0-2-1.6q-.7-.2-3.3-.2zm36 28h-5.2l-2-7.7h-9.5l-2 7.7h-5L92 34.3h5zm-8.8-13.4-3.3-12.4-3.1 12.4zM109 68V34.3h7.6q4.4 0 5.6.5 2 .8 3.4 3.3 1.5 2.6 1.4 6.6 0 3-.8 5.2a9 9 0 0 1-2 3.3q-1.2 1.2-2.4 1.6-1.7.5-5 .5h-3V68zm4.7-28v9.6h2.6q2.8 0 3.8-.6c1-.6 1.1-.9 1.5-1.6s.5-1.7.5-2.6q0-2-.8-3a3 3 0 0 0-1.9-1.6L116 40zm17.2-5.7h4.7v18.2q0 4.4.2 5.7.3 2 1.5 3.3c1.2 1.3 1.8 1.2 3.1 1.2q2.1 0 3-1.2c1-1.2 1.2-1.7 1.3-2.9l.2-5.7V34.3h4.8V52q0 6-.4 8.5t-1.5 4.3c-1 1.8-1.6 2-2.7 2.7q-1.8 1-4.6 1-3.4 0-5-1c-1.7-1-2.1-1.8-2.8-3s-1.1-2.4-1.4-3.7a58 58 0 0 1-.4-8.5zm45 33.7h-5.2l-2-7.7h-9.4l-2 7.7h-5l9.1-33.7h5zm-8.8-13.4L164 42.2l-3.2 12.4zm28.4-20.3h9.4q2.9 0 4.2.3 1.3.4 2.4 1.4 1.2 1.1 1.8 2.8.8 1.8.8 4 0 2.4-1 4.3a7 7 0 0 1-2.3 3q2.1.9 3.3 3 1 2.3 1.1 5.1 0 2.3-.7 4.5a9 9 0 0 1-2 3.4q-1.4 1.3-3.2 1.6-1.2.2-5.8.3h-8zm4.8 5.6v7.8h3l3.5-.1q1.2-.3 2-1.2.6-1 .6-2.7 0-1.5-.6-2.5t-1.7-1.2zm0 13.4v9h4.4q2.6 0 3.2-.2 1-.3 1.7-1.4t.7-2.8q0-1.5-.5-2.6-.5-1-1.5-1.5c-1-.5-2-.5-4.2-.5zM240.5 68h-5.2l-2-7.7h-9.5L222 68h-5l9.1-33.7h5zm-8.8-13.4-3.2-12.4-3.2 12.4zM243 68V34.3h10q3.8 0 5.5 1 1.7.8 2.8 3.1a13 13 0 0 1 1 5.3q0 3.9-1.6 6.3a7 7 0 0 1-4.6 3.1q1.5 1.3 2.5 2.8a41 41 0 0 1 2.7 5.5l2.9 6.6h-5.7l-3.4-7.4-2.5-5a4 4 0 0 0-1.5-1.3q-.8-.4-2.4-.4h-1v14zm4.8-19.5h3.5q3.4 0 4.3-.4.8-.3 1.3-1.4t.5-2.5q0-1.7-.7-2.8t-1.7-1.3h-7.2zM288 68h-5.2l-2-7.7h-9.4l-2 7.7h-5l9.1-33.7h5zm-8.8-13.4L276 42.2l-3.2 12.4zM293.4 68V40h-7v-5.7h18.7V40h-7v28z"/></g><path id="path62" d="M174.9 392.7c-14-5.4-21 13.7-14 19.5s12.7 1.7 12.7 1.7-.2 8.5-4.5 9-5 .4-5-1.6c0 0 4.4-2 1.1-3.7s-6.9.2-7.3 5.4c0 0-1.3-1.3-3.1-.8s-1.1 3.4-1.1 3.4-3.2-1.7-6.7 0-4.7 5.2-4.7 5.2 6.3-1.7 10.6-.8 10.8 3 18.4-2.4 6.4-7.4 9.5-13c0 0 8-16.6-6-22zm-3.4 18a5.5 5.5 0 1 1 0-11.1 5.5 5.5 0 0 1 0 11z" fill="#fff" stroke="#000" stroke-width=".7"/><path id="path63" d="M185.7 414.6c3.2 5.6 1.8 7.6 9.5 13s14.1 3.4 18.4 2.4 10.6.8 10.6.8-1.1-3.6-4.7-5.2-6.7 0-6.7 0 .8-2.8-1-3.4-3.2.8-3.2.8c-.4-5.2-4-7.1-7.3-5.4s1.1 3.7 1.1 3.7c0 2-.7 2.2-5 1.7s-4.5-9.1-4.5-9.1 5.6 4 12.7-1.7 0-25-14-19.5c-14 5.3-6 21.9-6 21.9zm3.8-9.5a5.5 5.5 0 1 1 11 0 5.5 5.5 0 0 1-11 0z" fill="#fff" stroke="#000" stroke-width=".7"/><path id="path64" d="M174.4 400.8s-2.4-1.2-8.2 3.7-9.3 10-13 9.8-4.2-1.8-4.2-1.8 3.5 1 4-1.8-3.2-4.6-5.7-3.2-3.7 3.5-3.7 3.5-.4-3.2-2.7-3.2-1.4 2.8-1.4 2.8-2-1.6-6.7-.5-7.2 5.5-7.2 5.5 4.3-2.4 8-.8 8.5 7.6 17.3 6.4 13.8-11.1 17.2-13.5 6.5-3 8.5-.5c0 0 1.5-3.9-2.2-6.4m17.7 0s2.4-1.2 8.2 3.7 9.3 10 13 9.8 4.2-1.8 4.2-1.8-3.4 1-4-1.8 3.2-4.6 5.7-3.2 3.7 3.5 3.7 3.5.4-3.2 2.7-3.2c2.3.1 1.4 2.8 1.4 2.8s2-1.6 6.7-.5 7.2 5.5 7.2 5.5-4.3-2.4-8-.8-8.5 7.6-17.3 6.4-13.8-11.1-17.2-13.5-6.5-3-8.4-.5c0 0-1.6-3.9 2-6.4" fill="#00904c"/><circle id="circle64" cx="183.35" cy="277.31" r="86.924" fill="none" stroke="#000" stroke-width="3"/><g id="g67"><path id="path65" d="M290.2 192.3s1.3-3.8 5.7-3.8 11.6 6.8 7.9 12.6-10.3 3.1-13.6 3.2l2-2.1s-2.6-.3-7 .8-12.5 2.1-16 3.6-4.6 2.6-4.6 2.6 0 .7.6.8 1.2.8 1.2.8-1.6.7.2 1.5 4.7 1.7 7.3 3.8 2.6 2.3 5.3 2.4 3.8-.4 3.8-.4 4.2 3.5 9.2 2l6.3-2s-1.8-2-5.3-2h-4.7s5.2-.4 9-.3 10.3-1.6 13.5-9.9-7.5-16.3-7-20.8 2.2-7.1 4.9-9.1 4.3-2.4 4.3-2.4-5.3-2.4-9.2 2.3-3.5 8.7-3.5 8.7-2.8-2.8-7.4-.2-3 7.9-3 7.9" fill="#dcddde" stroke="#000" stroke-linecap="round" stroke-linejoin="round" stroke-width=".7"/><path id="path66" d="M283.2 207.6s3.7 1.9 3 5.3-3.2 5.2-3.2 5.2" fill="none" stroke="#000" stroke-linecap="round" stroke-linejoin="round" stroke-width=".7"/><circle id="circle66" cx="274.87" cy="209.74" r="1.352" fill="#fff" stroke="#000" stroke-linecap="round" stroke-linejoin="round" stroke-width=".7"/><path id="path67" d="M288 208.3c.2-1 .2-1.2 6-1.4s9.3-.2 11.5-5 .2-8.7-2.9-12.7c0 0 8.3 6.3 4.3 14.5-2.8 5.7-10.8 5.1-13.3 4.9z" fill="#fff"/></g><g id="g80"><path id="path68" d="M146.5 242.3c4.8-.8 12-6.8 15.1-9.6s8.2-6.3 12.2-5.2c3.1 1 6 1.4 7 1.6l-.1-.1v-1.9c0-1.9-1-4.4-2.9-9s-5-9-8.2-9.3-15.6-6.8-19.2-6.8-7 3.4-10.2 10.3 1.6 28.5 1.6 28.5c.5 1 1.8 2 4.7 1.5" fill="#b08453"/><path id="path69" d="M241.3 303.9c-19-.4-29.5 9.5-36.9 10.5-7.1.9-15-3.2-15.5-3.4-.1 2-.5 8.8.3 13.2 1 5.3 5.9 8 11.4 14s4.6 16.8 1.1 20.5-13 2.1-18.7-2.5-11.3-18-13.7-29.2 10.5-30.7 10.8-35.8-4.3-6-6.7-3.7-5.7 2.7-7.8 3.4-5.2 6.9-6.1 9.5-2.8 10.2-4.7 11.5-3.6-.2-4.7-1l-.8-.5c-.3.5-3.5 7.3-1.3 24.1a64 64 0 0 0 10.7 26.2A87 87 0 0 0 265.4 306c-6.2-1-14.7-2-24-2.1"/><path id="path70" d="M154.8 312c1.9-1.4 3.8-8.9 4.7-11.6s4-8.7 6.1-9.5 5.3-1.1 7.8-3.4 7-1.4 6.6 3.7-13.1 24.5-10.7 35.8 8 24.5 13.7 29.2 15.3 6.2 18.7 2.5c3.5-3.7 4.5-14.6-1-20.6s-10.5-8.6-11.5-13.9c-.8-4.4-.5-11.2-.3-13.2 0 0-1-3.5-1.2-8.6a45 45 0 0 1 6.5-21.5c3.8-5.1 2-10.6 2-10.6v-.2l-2.1-4.9q-1.4-3.4-5-1.6c-2.4 1.3-6.4 6.8-9.5 8.2s-3.2-3.1-10.2-3.7c-5.6-.5-8 4.4-8.7 6.3l.4.2s-1.7 5.3-2.3 9.7-9.5 14.7-12.2 19.2 2.7 6.9 2.7 6.9q.3 0 .8.5c1 .8 2.9 2.4 4.7 1" fill="#ed1a3b"/><path id="path71" d="M180.9 229c-1.1 0-4-.6-7.1-1.5-4-1.1-9 2.4-12.2 5.2a54 54 0 0 1-13 9l-2 .6c-3 .5-4.3-.5-4.9-1.5-1.2 1-5.7 4.7-9.1 9.3-4 5.3-3.3 10.7-3.3 10.7s3.3-1.2 9.5-4.4 12.8-2 12.8-2l.1.2a24 24 0 0 1 6 5.2c1 2 1.7 8.6.7 10.5-.7 1.5 1.4 3.4 2.3 4 .7-1.8 3-6.6 8.7-6.2 7 .6 7 5 10.2 3.7s7-7 9.5-8.2q3.6-1.7 5 1.6 1 2.6 2.2 4.9c.2-1.2 1.5-7.7 1.7-20.4.1-13.2-15.2-19.8-17.1-20.6" fill="#00a0d8"/><path id="path72" d="M165 255c2-1.3.9-4-1.2-4.3s-9.4 1.2-9.4 1.2l7.6-.6c3.1-.2 4.7-1.9 3.8-3s-2.4-4-8.5-3.1c-6.6 1-5.3.8-8.3 1.9s-3.6.5-3.1-.4.4 0 2.6-1.6c1.5-1 .1-2.5.1-3.4l-2 .6c-3 .5-4.3-.5-4.8-1.5-1.3 1-5.8 4.7-9.2 9.3-4 5.3-3.3 10.7-3.3 10.7s3.3-1.2 9.5-4.4 12.8-2 12.8-2l.1.2h2.5c2.3 0 9 1.9 10.8.5" fill="#bea860"/><path id="path73" d="M165 255c2-1.3 0-3-2-3.3s-8.6.2-8.6.2 3.1-1.3 6.2-1.4 6.1-1 5.2-2.3-5.4-1.9-11.7-.2-12.5 2.6-15.5 3.7-2.1-1.1-.4-3.8 5.8-3.3 8.4-3.6c1.8-.3 2-1.7 2-2.6l-2 .6c-3 .5-4.3-.5-4.8-1.5-1.3 1-5.8 4.7-9.2 9.3-4 5.3-3.3 10.7-3.3 10.7s3.3-1.2 9.5-4.4 12.8-2 12.8-2l.1.2h2.5c2.3 0 9 1.9 10.8.5" fill="#ffe17f"/><circle id="circle73" cx="172.47" cy="241.61" r="4.901" fill="#bd9806" stroke="#000" stroke-width=".7"/><path id="path74" d="M241.3 303.9c-19-.4-29.5 9.5-36.9 10.5-7.1.9-15-3.2-15.5-3.4 0 0-1-3.5-1.2-8.6a45 45 0 0 1 6.5-21.5c3.8-5.1 2-10.6 2-10.6l.1-.3c.2-1 1.5-7.6 1.7-20.3.1-13.2-15.2-19.8-17.1-20.6l-.2-.1v-1.9c0-1.9-1-4.4-2.9-9s-5-9-8.2-9.3-15.6-6.8-19.2-6.8-7 3.4-10.2 10.3c-3.2 6.8 1.6 28.2 1.6 28.5-1.2 1-5.8 4.7-9.2 9.3-4 5.3-3.3 10.6-3.3 10.6s3.3-1.1 9.5-4.3 12.8-2 12.8-2l.2.2a24 24 0 0 1 5.9 5.2c1.1 2 1.7 8.5.7 10.4-.7 1.6 1.4 3.5 2.3 4.1l.4.3s-1.7 5.3-2.3 9.7-9.5 14.7-12.2 19.2 2.7 6.9 2.7 6.9c-.3.5-3.5 7.3-1.3 24.1a64 64 0 0 0 10.7 26.2A87 87 0 0 0 265.4 306c-6.2-1-14.7-2-24-2.1z" fill="none" stroke="#000" stroke-width="1.5"/><path id="path75" d="M146.5 242.3c4.8-.8 12-6.8 15.1-9.6s8.2-6.3 12.2-5.2c3.1 1 6 1.4 7 1.6l-.1-.1v-1.9c0-1.9-1-4.4-2.9-9s-5-9-8.2-9.3-15.6-6.8-19.2-6.8-7 3.4-10.2 10.3 1.6 28.5 1.6 28.5c.5 1 1.8 2 4.7 1.5zm8.3 69.6c1.9-1.3 3.8-8.8 4.7-11.5s4-8.7 6.1-9.5 5.3-1.1 7.8-3.4 7-1.4 6.7 3.7-13.2 24.5-10.8 35.8 8 24.5 13.7 29.2 15.3 6.2 18.7 2.5c3.5-3.7 4.5-14.6-1-20.6s-10.5-8.6-11.5-13.9c-.8-4.4-.4-11.2-.3-13.2 0 0-1-3.5-1.2-8.6a45 45 0 0 1 6.5-21.5c3.8-5.1 2-10.6 2-10.6l.1-.2c-.7-1.4-1.6-3.3-2.2-4.9q-1.4-3.4-5-1.6c-2.4 1.3-6.4 6.8-9.5 8.2s-3.2-3.1-10.2-3.7c-5.6-.5-8 4.4-8.7 6.2l.4.3s-1.7 5.3-2.3 9.7-9.5 14.7-12.2 19.2 2.7 6.9 2.7 6.9q.3 0 .8.5c1 .8 2.9 2.4 4.7 1z" fill="none" stroke="#000" stroke-width=".7"/><path id="path76" d="M144.5 239.8s-4-16.7-3.6-22.4 5-13.2 8.3-13.7 5 1.5 10.3 3.7 9.3 2.3 8.2 2.7-6 .4-8-.7-5-5.4-10.1-2-6.3 9-4.6 15 2.3 10.2 1.3 13.4.6 5.1-1.8 4" fill="#e1c09f"/><path id="path77" d="M155 241s9-12 16-12.5 17.8 2.8 20 10.6 2.7 10.8-2.7 6.8-10-10.7-15.8-10.3-5.7 1.7-8.6 4.3-8.7 1.6-8.9 1.1m26.7 9.5c4.1-2.2 7.3 2.2 6.1 6s-1.4 5.7-4.6 7.4c-3.3 1.7-6.3 1.5-5.8.2s-1.9-10.3 4.3-13.6" fill="#53bee1"/><path id="path78" d="M171.9 271.5c0-.3-5-1.7-7 1.3s-1.7 7.2-4.3 13.3-12.2 16.6-11.4 18 1.2 2.4 3 .9 7.3-15.8 8.7-17.7 1.5-13.2 7-13 4.2-1.5 4-2.8m20.4-6.3c-.6-.6-3.7.5-6 3.3s-5.2 5.5-4.3 6.8 2.5 1.8 3.3.5 3.4-3.6 5.4-2.9 5-4.7 1.6-7.7m-10.8 41c-.3 0-6.7 26.3 3.7 33.6s16.7 9.1 15.1 3.6-13.4-5.7-16.4-15.4-2.4-21.8-2.4-21.8" fill="#f27179"/><path id="path79" d="M140.4 255.4s7.9-3 16.8-4c5-.5 5.6-.4 5.6-.4" fill="none" stroke="#000" stroke-linecap="round" stroke-linejoin="round" stroke-width=".7"/><ellipse id="ellipse79" cx="172.44" cy="243.55" rx="3.787" ry="2.498" fill="#fd0"/><circle id="circle79" cx="172.53" cy="241.67" r="1.782" stroke="#000" stroke-width=".7"/><ellipse id="ellipse80" transform="rotate(-19.5 147.2 246.4)" cx="147.26" cy="246.46" rx="1.782" ry=".963"/><circle id="circle80" cx="174.18" cy="239.82" r="1.582" fill="#fff"/></g></g><!-- app4joy --></svg>