<svg width="479.99581" height="320.00117" viewBox="0 0 479.99581 320.00117" id="svg2" xmlns="http://www.w3.org/2000/svg"><g id="g3"><path id="rect2987" style="fill:#008000;fill-opacity:1;stroke:none" d="M0 0h480v320H0z"/><path id="rect2987-1" style="fill:#005bbb;fill-opacity:1;stroke:none" d="M0 0h480v42.7H0z"/><path id="rect2987-1-4" style="fill:#ffd500;fill-opacity:1;stroke:none" d="M0 32h480v10.7H0z"/><path id="rect2987-1-0" style="fill:#005bbb;fill-opacity:1;stroke:none" d="M0 277.3h480V320H0z"/><path id="rect2987-1-4-9" style="fill:#ffd500;fill-opacity:1;stroke:none" d="M0 277.3h480V288H0z"/></g><g id="g4145"><path d="M190.8 110.4a14.5 14.5 0 1 1 0 29 14.5 14.5 0 0 1 0-29" id="path2996" style="fill:#ffffff;fill-rule:evenodd;stroke:none"/><path d="M289.2 110.4a14.5 14.5 0 1 0 0 29 14.5 14.5 0 0 0 0-29" id="path2998" style="fill:#ffffff;fill-rule:evenodd;stroke:none"/><path d="m266.7 131 .9 25.3c.2 6.2-3 11.3-7 11.4-4 .2-7.5-4.7-7.7-10.9l-1-24.7z" id="path3002" style="fill:none;stroke:#000000;stroke-width:0.80000287;stroke-miterlimit:4;stroke-dasharray:none"/><path d="m281.3 128.2 1 25.2c.1 6.1-3 11.2-7 11.4-4.1.1-7.6-4.8-7.8-11l-.9-24.6z" id="path3004" style="fill:none;stroke:#000000;stroke-width:0.80000287;stroke-miterlimit:4;stroke-dasharray:none"/><path d="m198.6 128.2-.8 25.2c-.2 6.1 2.9 11.2 7 11.4 4 .1 7.5-4.8 7.7-11l.9-24.6z" id="path3008" style="fill:#ffffff;fill-rule:evenodd;stroke:#000000;stroke-width:0.80000287;stroke-miterlimit:4;stroke-dasharray:none"/><path d="m213.3 131-.9 25.3c-.2 6.2 3 11.3 7 11.4 4 .2 7.5-4.7 7.7-10.9l.9-24.7z" id="path3010" style="fill:#ffffff;fill-rule:evenodd;stroke:#000000;stroke-width:0.80000287;stroke-miterlimit:4;stroke-dasharray:none"/><path d="m281.3 128.2 1 25.2c.1 6.1-3 11.2-7 11.4-4.1.1-7.6-4.8-7.8-11l-.9-24.6z" id="path3012" style="fill:#ffffff;fill-rule:evenodd;stroke:#000000;stroke-width:0.80000287;stroke-miterlimit:4;stroke-dasharray:none"/><path d="m266.7 131 .9 25.3c.2 6.2-3 11.3-7 11.4-4 .2-7.5-4.7-7.7-10.9l-1-24.7z" id="path3014" style="fill:#ffffff;fill-rule:evenodd;stroke:#000000;stroke-width:0.80000287;stroke-miterlimit:4;stroke-dasharray:none"/><path d="M225 138.4c-10 .4-20.3-3-27.3-10.4l5-6.3c5.5 6.4 14 9.2 22.3 8.8z" id="path3018" style="fill:#ffffff;fill-rule:evenodd;stroke:#000000;stroke-width:0.80000287;stroke-miterlimit:4;stroke-dasharray:none"/><path d="M205.3 118.6a23 23 0 0 0 19.7 7.9v8c-9.4.4-18.6-2.8-24.8-9.7z" id="path3020" style="fill:#ffffff;fill-rule:evenodd;stroke:#000000;stroke-width:0.80000287;stroke-miterlimit:4;stroke-dasharray:none"/><path d="M255 138.4c10 .4 20.3-3 27.3-10.4l-5-6.3c-5.5 6.4-14 9.2-22.3 8.8z" id="path3022" style="fill:#ffffff;fill-rule:evenodd;stroke:#000000;stroke-width:0.80000287;stroke-miterlimit:4;stroke-dasharray:none"/><path d="M274.7 118.6a23 23 0 0 1-19.7 7.9v8c9.4.4 18.6-2.8 24.8-9.7z" id="path3024" style="fill:#ffffff;fill-rule:evenodd;stroke:#000000;stroke-width:0.80000287;stroke-miterlimit:4;stroke-dasharray:none"/><path d="M240 77c5 0 9 4 9 9q-.2 5.7 0 11.2a45 45 0 0 0 2.5 13.9c4.9 8.2 8 21.6 8 36.6 0 25-8.7 54.5-19.5 54.5s-19.5-34.2-19.5-54.5c0-13.2 2.3-25 7.7-36.8a47 47 0 0 0 5.3-16.2c0-3.5-2.5-4.7-2.5-8.6 0-5 4-9 9-9z" id="path3026" style="fill:#ffffff;fill-rule:evenodd;stroke:#000000;stroke-width:0.80000287;stroke-miterlimit:4;stroke-dasharray:none"/><path d="M254.6 181.8 236 200.5m-6.1-89.8-2.7 2.6m16.4-2.6-21.9 21.9m31.7-18-32.8 32.8m36.3-22.7-35.4 35.5m37.5-23.8-35.5 35.5m36.1-22.4-33.2 33.2m32-18.4-28.2 28.2m-3.9-9.9 18 18m6-90 2.4 2.5m-16-2.4 21.8 21.9m-31.8-18 33 32.8m-36.4-22.6 35.6 35.6m-37.7-24 36 35.9m-36.6-22.8 33.7 33.7M222 164.7l28.2 28.2" id="path3028" style="fill:none;stroke:#000000;stroke-width:0.80000287;stroke-miterlimit:4;stroke-dasharray:none"/><path d="M234.8 90a4.3 4.3 0 0 0-7.4 1.4q-.8-1.3-.8-3c0-2.9 2.2-5.3 5-5.6 2.5.6 4.7 3.9 3.2 7.2z" id="path3030" style="fill:#ffffff;fill-rule:evenodd;stroke:#000000;stroke-width:0.80000287;stroke-miterlimit:4;stroke-dasharray:none"/><path d="M239 82.1a2 2 0 1 1 0 4 2 2 0 0 1 0-4z" id="path3032" style="fill:none;stroke:#000000;stroke-width:0.80000287;stroke-miterlimit:4;stroke-dasharray:none"/><path d="M235.5 84.4c1.3-2.8 4-3.2 6.9-2.1" id="path3034" style="fill:none;stroke:#000000;stroke-width:0.80000287;stroke-miterlimit:4;stroke-dasharray:none"/><path d="M251.5 108.8a2.4 2.4 0 0 1 0 4.7h-23a2.4 2.4 0 0 1 0-4.7z" id="path3036" style="fill:#ffffff;fill-rule:evenodd;stroke:#000000;stroke-width:0.80000287;stroke-miterlimit:4;stroke-dasharray:none"/><path d="m249.2 192 13.4 47a52 52 0 0 1-22.6 4.3c-9.2 0-17.4-1.7-22.6-4.4l13.4-47z" id="path3040" style="fill:#ffffff;fill-rule:evenodd;stroke:#000000;stroke-width:0.80000287;stroke-miterlimit:4;stroke-dasharray:none"/><path d="m244.6 192 7.1 50.3M240 192v51.3m-4.6-51.3-7.2 50.3" id="path3042" style="fill:none;stroke:#000000;stroke-width:0.80000287;stroke-miterlimit:4;stroke-dasharray:none"/><path d="M228.8 191.6a3 3 0 0 1 3-2.9h16.5c1.6 0 2.9 1.3 2.9 2.9 0 6.5-22.4 6.5-22.4 0z" id="path3044" style="fill:#ffffff;fill-rule:evenodd;stroke:#000000;stroke-width:0.80000287;stroke-miterlimit:4;stroke-dasharray:none"/><path d="M199 227.9c-3-.7-7 2.1-5.1 7 .6-2.6 2.6-4.4 5-4.3zm1.5 9.5c-2.7 1.5-3.8 6.3.8 8.7-1.3-2.4-1-5 1-6.6zm9 4.4c-1.4 2.6.2 7.3 5.4 6.8-2.3-1.3-3.5-3.7-2.7-6zm10.4-14.6c3 0 6.3 3.8 3.3 8 0-2.7-1.5-4.9-3.9-5.3z" id="path3046" style="fill:#ffffff;fill-rule:evenodd;stroke:#000000;stroke-width:0.80000287;stroke-miterlimit:4;stroke-dasharray:none"/><path d="M281 227.9c3-.7 7 2.1 5.1 7-.6-2.6-2.6-4.4-5-4.3zm-1.5 9.5c2.7 1.5 3.8 6.3-.8 8.7 1.3-2.4 1-5-1-6.6zm-9.1 4.4c1.5 2.6-.1 7.3-5.3 6.8 2.3-1.3 3.5-3.7 2.7-6zm-10.3-14.6c-3 0-6.3 3.8-3.3 8 0-2.7 1.5-4.9 3.9-5.3z" id="path3048" style="fill:#ffffff;fill-rule:evenodd;stroke:#000000;stroke-width:0.80000287;stroke-miterlimit:4;stroke-dasharray:none"/><path d="M199 238.7c1 0 2.1.5 2.4 1.9 4.2 1.3 2.4-3.8 3.9-5.7l1.3-1.8c1.4-1.7 2.3-.7 2.4.7l.2 4.1c0 2.3-2.8 4.2 0 6q1.5-.5 2.9.1c2.2-2.4-.3-3.8-.4-6.2l-.3-7.2c-.1-2.3 1.4-2.6 3-2l2.3 1c1.2 2.5 3 2.8 3.9.7-.3-1 .1-2.2 1.1-2.6q-.8-1.6-2.8-1.6c-1.7-.1-2.5.7-4 0-2.5-1-2.6-2-1.6-4.4l4.4-10.3-3.5-1.2-3.6 11c-1.4 3.3-2.2 5.4-6.4 5.6-2.4.1-2.1-.4-4.4-1.2-2-.7-4.1-.3-4 2.8q1.3.4 1.6 2.4c2.5 3 2.6-1.2 4.9-1.3l1.6-.1c1.1 0 1.9.7.8 2l-2.4 3.1c-1.3 1.6-4.2 1.6-3.3 4.2z" id="path3050" style="fill:#ffffff;fill-rule:evenodd;stroke:#000000;stroke-width:0.80000287;stroke-miterlimit:4;stroke-dasharray:none"/><path d="M281 238.7c-1 0-2.1.5-2.4 1.9-4.2 1.3-2.4-3.8-3.9-5.7l-1.3-1.8c-1.4-1.7-2.3-.7-2.4.7l-.2 4.1c0 2.3 2.8 4.2 0 6q-1.5-.5-2.9.1c-2.2-2.4.3-3.8.4-6.2l.3-7.2c.1-2.3-1.4-2.6-3-2l-2.3 1c-1.2 2.5-3 2.8-3.9.7.3-1-.1-2.2-1.1-2.6.4-1.2 1.6-1.5 2.8-1.6 1.7-.1 2.5.7 4 0 2.5-1 2.6-2 1.6-4.4l-4.4-10.3 3.5-1.2 3.6 11c1.4 3.3 2.2 5.4 6.4 5.6 2.4.1 2.1-.4 4.4-1.2 2-.7 4.1-.3 4 2.8q-1.2.4-1.6 2.4c-2.5 3-2.6-1.2-4.9-1.3l-1.6-.1c-1.1 0-1.9.7-.8 2l2.4 3.1c1.2 1.6 4.2 1.6 3.3 4.2z" id="path3052" style="fill:#ffffff;fill-rule:evenodd;stroke:#000000;stroke-width:0.80000287;stroke-miterlimit:4;stroke-dasharray:none"/><path d="M227.5 176.9c2.9 1 3.4 7.2 1.1 13.9-2 5.5-6.2 9.9-7.8 15.6-1 4-1.4 9.6.6 13.3-3.1.5-6.1-3.3-6-6.4-2 2-5.6 1.8-7.2-1 3.7-.8 6.4-3.9 7.4-7.5 1.6-5.7.5-12 2.4-17.7 2.3-6.6 6.6-11.2 9.5-10.2z" id="path3054" style="fill:#ffffff;fill-rule:evenodd;stroke:#000000;stroke-width:0.80000287;stroke-miterlimit:4;stroke-dasharray:none"/><path d="M252.5 176.9c-2.9 1-3.4 7.2-1.1 13.9 1.9 5.5 6.2 9.9 7.8 15.6 1 4 1.4 9.6-.6 13.3 3.1.5 6.1-3.3 6-6.4 2 2 5.5 1.8 7.2-1-3.7-.8-6.4-3.9-7.4-7.5-1.6-5.7-.5-12-2.5-17.7-2.2-6.6-6.5-11.2-9.4-10.2z" id="path3056" style="fill:#ffffff;fill-rule:evenodd;stroke:#000000;stroke-width:0.80000287;stroke-miterlimit:4;stroke-dasharray:none"/><path d="M178.9 222.1c-.2 5.8-5 10.3-10.8 10a1 1 0 0 1-1-1q.1-1 1-1a3 3 0 0 0 2.6-3.1l3-83.3.5-15.4c.5-6.8.9-15 6.7-19.5a16 16 0 0 1 21 1.6c3.5 3.6 4.8 8.7 3.9 13.5-.8 4.3-3.5 8.2-8 9.2-3.8.7-7.9-.7-10-4.2a9 9 0 0 1-.5-9.2 4 4 0 0 1 7 3.7q-.4 1 .6 1.7a2 2 0 0 0 1.8 0q1.1-1.1 1.4-3 .4-3.5-2-6.2c-3-3.2-7.8-3-10.6 0-3 3.2-3 8.7-3.4 12.7l-.5 15z" id="path3060" style="fill:#ffffff;fill-rule:evenodd;stroke:#000000;stroke-width:0.80000287;stroke-miterlimit:4;stroke-dasharray:none"/><path d="M301.1 222.1c.2 5.8 5 10.3 10.8 10q1 0 1-1-.1-1-1-1a3 3 0 0 1-2.6-3.1l-3-83.3-.5-15.4c-.5-6.8-.9-15-6.7-19.5a16 16 0 0 0-21 1.6 15 15 0 0 0-3.9 13.5c.8 4.3 3.5 8.2 8 9.2 3.8.7 7.9-.7 10-4.2a9 9 0 0 0 .5-9.2 4 4 0 1 0-7 3.7q.4 1-.6 1.7a2 2 0 0 1-1.8 0q-1.1-1.1-1.4-3-.5-3.5 2-6.2c3-3.2 7.8-3 10.6 0 3 3.2 3 8.7 3.4 12.7l.5 15z" id="path3062" style="fill:#ffffff;fill-rule:evenodd;stroke:#000000;stroke-width:0.80000287;stroke-miterlimit:4;stroke-dasharray:none"/><path d="M190.1 210.4c-.2 5.8-5 10.3-10.7 10a1 1 0 0 1-1-1q.1-1 1-1a3 3 0 0 0 2.6-3.1l2.5-71.8 8 .3z" id="path3064" style="fill:#ffffff;fill-rule:evenodd;stroke:#000000;stroke-width:0.80000287;stroke-miterlimit:4;stroke-dasharray:none"/><path d="M289.9 210.4c.2 5.8 5 10.3 10.7 10q1 0 1-1-.1-1-1-1a3 3 0 0 1-2.6-3.1l-2.5-71.8-8 .3z" id="path3066" style="fill:#ffffff;fill-rule:evenodd;stroke:#000000;stroke-width:0.80000287;stroke-miterlimit:4;stroke-dasharray:none"/><path d="M201.6 194.3c-.2 5.7-5 10.2-10.8 10a1 1 0 0 1-1-1q.1-1.1 1-1a3 3 0 0 0 2.6-3.2l2.1-59.4 8 .3z" id="path3068" style="fill:#ffffff;fill-rule:evenodd;stroke:#000000;stroke-width:0.80000287;stroke-miterlimit:4;stroke-dasharray:none"/><path d="M278.4 194.3c.2 5.7 5 10.2 10.8 10q1 0 1-1-.1-1.1-1-1a3 3 0 0 1-2.6-3.2l-2.1-59.4-8 .3z" id="path3070" style="fill:#ffffff;fill-rule:evenodd;stroke:#000000;stroke-width:0.80000287;stroke-miterlimit:4;stroke-dasharray:none"/><path d="M190.1 210.4c-.2 5.8-5 10.3-10.7 10a1 1 0 0 1-1-1q.1-1 1-1a3 3 0 0 0 2.6-3.1l2.5-71.8 8 .3z" id="path3072" style="fill:none;stroke:#000000;stroke-width:0.80000287;stroke-miterlimit:4;stroke-dasharray:none"/><path d="M203.2 139.8a3 3 0 0 1 0 5.9h-29a3 3 0 0 1 0-6z" id="path3076" style="fill:#ffffff;fill-rule:evenodd;stroke:#000000;stroke-width:0.80000287;stroke-miterlimit:4;stroke-dasharray:none"/><path d="M203.2 133.8a3 3 0 0 1 0 6h-29a3 3 0 0 1 0-6z" id="path3078" style="fill:#ffffff;fill-rule:evenodd;stroke:#000000;stroke-width:0.80000287;stroke-miterlimit:4;stroke-dasharray:none"/><path d="M276.8 133.8a3 3 0 0 0 0 6h29a3 3 0 0 0 0-6z" id="path3080" style="fill:#ffffff;fill-rule:evenodd;stroke:#000000;stroke-width:0.80000287;stroke-miterlimit:4;stroke-dasharray:none"/><path d="M276.8 139.8a3 3 0 0 0 0 5.9h29a3 3 0 0 0 0-6z" id="path3082" style="fill:#ffffff;fill-rule:evenodd;stroke:#000000;stroke-width:0.80000287;stroke-miterlimit:4;stroke-dasharray:none"/></g><!-- app4joy --></svg>