<svg id="svg257" width="795" height="530" viewBox="0 0 795 530" xmlns:xlink="http://www.w3.org/1999/xlink" xmlns="http://www.w3.org/2000/svg"><g id="g1"><path id="rect2" fill="white" d="M0 0h795v530H0z"/><path id="rect4" fill="#009933" d="M317 0h478v212H317z"/><path id="rect6" fill="#009933" d="M0 317h795v212H0z"/></g><g id="g255" transform="translate(27)"><g transform="translate(-.4)" id="right_part"><path id="path8" d="M169.5 227.6q.4-3.7-.3-7.2c-1.2-4.7-5-4.2-8-2.9l-1.9 6c.3 2.8.2 6.4-.7 9-.5 2.1 1.2 4.1 2.7 4.5 7.5 1.4 15 4.1 19.5 8.3 1.1 1.3.5 4-1.1 5.9-1.5 1.9-2.5 4.8-1.2 6.8 1.8-3 5-1.6 6.3 1.3 3.9-2.6 2.9-5.9 1.9-10-.5-2.1.5-4.8 2.4-5.2 3.4-.4 5.1 2.1 7.2 4.1 2 1.9 4.8 3.5 7.4 2.4-1.3-2.3-1.3-5.7 1.6-7.5-.3-1.8-2.1-2.7-3.6-2.4-3 .9-7.3.7-9.1-1.2s4.6-5.9 7.2-5.6 5.3 0 5.8-2.6c-2.3-2.6-2.3-4-1.7-7l-.6-.4c-2-1.7-4.1.9-5.4 3.4a21 21 0 0 1-6.1 6.1q-2.9 1.7 0 0 3.7-2.7 6-6.2a9 9 0 0 1 3.4-4c-1.5-1.3-1.1-3.9-.5-5.4-2.4-2.1-5.7 0-5.6 3.2-.2 3.8-2.6 7.4-5.5 9.9a10 10 0 0 1-5.5 4 27 27 0 0 1-14.4-7.4z" style="fill:#ff0000;stroke:#990000"/><g id="g24" style="fill:none;stroke:black"><path id="path10" d="M178.2 165.6c-2.7-6.8-4.9-14.3-6.3-20.7"/><path id="path12" d="M209 69c4.4-8 7.6-14.2 11.3-21.8"/><path id="path14" d="M217.2 146.4c-8.4-6.3-15.5-11.3-22.8-17.6"/><path id="path16" d="M234.1 97.9c-7.5 1.1-15.8 1.9-22.1 2.4"/><path id="path18" d="M228.4 123.8c-9.2-2.6-15.4-4.6-23.9-7.5"/><path id="path20" d="M198.2 160.8a165 165 0 0 1-12.9-21.3"/><path id="path22" d="M231.4 71.4c-5.9 4.1-12.3 8-18 11.4"/></g><path id="path26" d="M169.9 27.8c-.6 1.9-2.9 1.5-3.1-.2q-.6.3-1.2-.2c-1.4 2-3.9 1.4-4-1.6 0-3 3-4 4.4-2.3.5-1.8-.6-3.2-2.4-3.3-.7 0-1.4.6-1.6 1 .1-2-.8-3.3-1.9-5.2-1.1 1.8-2 3.1-2 5.2-.1-.4-.6-1-1.6-1-1.9.1-3 1.5-2.4 3.3 1.5-2.1 4.5 0 4.4 2.3 0 2.4-2.9 3.5-4.2 1.5q-.4.4-1 .2c-.6 1.6-2.6 2.8-3.2.2-.2-1.6 0-4.3 2-3.8-.3-1.1-1.2-2.3-2.4-2.2-1 .2-1.7 1.2-1.7 2.2q-1-2.6-3.3-2.6 3 5.4 3.8 10.9a42 42 0 0 1 23.2 0c.4-4.3 1.7-7.3 3.8-10.9q-2.4-.1-3.1 2.6-.4-2-2-2.2-1.9.2-2.3 2.2c1.8-.1 2.6 2.2 2 3.9z" style="fill:#ffcc00;stroke:#996600"/><path id="path28" d="M171.6 37.6v-5.2a41 41 0 0 0-23.1 0v5.2a39 39 0 0 1 22.8-.1z" style="fill:#ffcc00;stroke:#996600"/><path id="path30" d="M187 53.6q-.7 0-1.2 1c-1.2 2.6-6.2 5.2-7.5 2.6-.5-1.1-1-1.5-1.8-2.2a8 8 0 0 0-5-1.6c-2.9-.1-4.8 2.4-5.4 4.8l2.5-1c2.5-2.9 6.3.6 7.9 2.9 3.5 5.5 10.2-.8 10.4-6.6z" style="fill:#ff0000;stroke:#990000"/><path id="path32" d="M172.2 40.6q0-1.8-.9-3.1a35 35 0 0 0-21.9 0c-2.2.9-4.8 1.4-7 .3-.3 3 2 3.6 3.9 4-1.9 5-2.8 9.8-2.8 15.5 3.1-.4 5-3.4 6.6-5.5a13 13 0 0 0-2.5 9.7 10 10 0 0 0 6.4-5c-1.1 2.5-1.6 6.6-.5 8.8q-1.3 3.9.2 7.6a19 19 0 0 0 6.6-4.6l.1 4c.1 3.8.4 5.7 2.9 6.2-1.8-6.9-1-11.6 3.5-14.2a9 9 0 0 1 .3-12.8c3.2-3.1 4.7-4.6 4-8.5l1-2.3z" style="fill:black;stroke:#666666"/><path id="path34" d="M176.5 43.4c-.3-2.2-2.5-2.7-4.3-2.8l-1 2.3c.3 1.7.3 2.6-.3 4.2-.7 1.5-2.2 3-3.6 4.3-4.9 4.6-3.6 9.2-.2 13.1 2.2-3.3 6.4-4 9.3-.8-.1-5.2-5.5-8.4-10-5.4.2-2.4 1.6-4.4 4.2-4.8 1.5-1.4 3.8-1.5 5-.8 2.8-1.7 6-.6 7 1.8 1.6-4.9.9-9.4-6-11.1z" style="fill:#ffcc00;stroke:#996600"/><g id="g186" style="fill:black;stroke:#666666"><path id="path36" d="m187.4 126.3 2.4 14.6-3.6-1q3.7 5 7.4 9.2c12.7 16.1 29.3 28.1 41 22.3a233 233 0 0 1-39.4-42.3c-3.2-.7-5-1.2-7.8-2.7z"/><path id="path38" d="M198.2 69.4c4.1-2.3 6.8-2.5 10.8-1 1.9-5.2 3.6-10.9 4.9-15.9 4.1-15.1 1.6-29.9-6.2-37.8a119 119 0 0 1-4.8 37.9c.8 6-2.1 12.1-4.7 16.7z"/><path id="path40" d="M201.2 46.2a72 72 0 0 1-17.1 29.1c-4 7.2-5.2 10.3-1.4 16.8 1.4 2.1 2.3 5.3 1 7.2-7.9 9.3-19.2 4.8-22.6-5.3l.1 16.7c19.8 10.5 39.7-7.7 30.9-32.3 9-11.5 13.5-22.1 9-32.2z"/><path id="path42" d="m192.2 78.4.1.4c2-.4 7-2.4 12 1.2 3.8-2.5 4.1-7.6 4.7-11.6a11 11 0 0 0-10.7.9c-2.3 3.5-4 5.7-6.1 9.1z"/><path id="path44" d="M192.3 78.9a46 46 0 0 1 2.1 9.3c4.8-1.3 7.2-4.3 9.9-8.2-3.4-2.3-8.6-2.9-12-1.1z"/><path id="path46" d="M210.2 65c-2.1 9.5-2.9 13.3-5.9 15 3.1-.1 5.6.3 8 2l7-6.7c10.4-11.7 21.5-23.5 18.2-39.9a238 238 0 0 1-27.3 29.7z"/><path id="path48" d="M153.4 25c-1.5.3-1 2.8.2 2.6 1.4-.3 1-2.8-.2-2.6z" style="fill:#ffcc00;stroke:#996600"/><path id="path50" d="M166.3 27.8c1.2.1 1.5-2.7.2-2.8s-1.7 2.6-.2 2.8z" style="fill:#ffcc00;stroke:#996600"/><path id="path52" d="M138.8 77.3q-2 .2-3.8-.3a55 55 0 0 0-2.5 14.3l17.6-.1c-1.8-2.5-3-6.1-2.3-10-1.6 3.6-5.2 7.3-8.4 8.2-1.8-4.3-1.1-8.5-.6-12z"/><path id="path54" d="M138.8 77.3c0-4 1.3-8.1 3-11.4-1.4.8-2.3.6-3.2.2-1.2 5.4-3.4 6.9-6 8.1 1.6 3.3 3.5 3.1 6.2 3.1z"/><path id="path56" d="M138.8 77.3c4.3-.5 7-4.1 9-7.1a13 13 0 0 1-.1-8.5c-1.5 3.3-3.9 3.7-6 4.3a27 27 0 0 0-3 11.3z"/><path id="path58" d="M136.2 59.4c-1.6 2.5 1.8 9.1 5.7 6.5-.7-3.4.7-6.4 1.2-8.8q-.8 0-1.6-.3c-1.4 1.5-4 3.9-5.3 2.6z"/><path id="path60" d="m168 43.4-1.1-.7c-1 4.3-5.1 3.5-4.8-.1q-2 .8-3.7 1c1.1 6.1 8.3 7.1 9.6-.2z" style="fill:#ffcc00"/><path id="path62" d="M143.2 57.1c.2-5.1.4-7.5 2-12.1-3.5 5.7-5 5.6-7.5 4-.5 4.6.9 7.8 5.5 8.1z"/><path id="path64" d="M148.5 54.3a8 8 0 0 1-5.2 2.8c-1.2 2.7-2 5.9-1.5 8.8 2.6-.4 5.2-2.1 5.8-4.4q-.6-4 1-7.2z"/><path id="path66" d="M147.6 62.1c-.7 3.1-.7 5.4.2 8.1q4.4-1.1 5.6-4.8-1.2-3.7-.2-7c-1.4 2.1-3.5 2.9-5.7 3.7z"/><path id="path68" d="M153.2 66.2c-1.3 2.2-3.4 3.2-5.5 4.1-.9 3.6-.8 7.5.1 10.9 2.9-2.3 4.5-5.2 6-8.4-.8-2.5-1.2-4.3-.6-6.6z"/><path id="path70" d="m160.5 72.2-.2-3.8c-2.3 2-4.2 3.3-6.5 4.5-.9 2.9.3 7.2 2.1 9.5 1.9-2 2.8-3.9 3.7-6.4-.1-1.4.5-2.6.9-3.7z"/><path id="path72" d="M147.8 70.2c-2.7 4.5-5.2 6.3-9 7.3-.8 4-.8 8.4.7 11.9 3.9-1.6 6.5-4.6 8.3-8.1a20 20 0 0 1 0-11.1z"/><path id="path74" d="M165.1 86.5c-3.8-2.4-6.1-5.1-5.7-9.9-.9 2.6-1.8 4.1-3.5 5.6 2.3 5 4.7 6.4 9.3 4.3z"/><path id="path76" d="M160.4 87.4c-2.6-1-3.6-2.6-4.5-5q-1.4 5.5-3.9 8.8h7.3c.7-.5 1.1-2.6 1.1-3.8z"/><path id="path78" d="M156 82.4a13 13 0 0 1-2.3-9.6 18 18 0 0 1-5.9 8.6q-.6 6 2.4 9.9h2.1c2.1-2.5 2.9-5.7 3.8-8.8z"/><path id="path80" d="m166.4 112.8-5-1.9c.1 11.3 0 11.1-.1 21.2l1 2 5.7-11.9a21 21 0 0 1-1.6-9.4z"/><path id="path82" d="M166.4 112.8a20 20 0 0 0 9.7 18.5c1.9-5.8 3.3-12.1 1.9-18.1-3.9.8-8.3.6-11.5-.4z"/><path id="path84" d="m168 122.2-5.7 12c1.6 3.9 8 9.8 11 11.7l2.6-14.5c-4-3.4-5.7-4.7-7.9-9.2z"/><path id="path86" d="M161.3 132c-.6 14.7-.5 14.7-.6 23.4.2 12.6 8.9 23.1 17.2 25.8a213 213 0 0 1-6.2-36.5 35 35 0 0 1-10.4-12.8z"/><path id="path88" d="M204.3 80c-2.3 3.5-6.1 7.8-9.9 8.2 4.1-.3 8.2-.5 11.8 3.8 4.2-.7 6.8-4.4 8.6-7.7a12 12 0 0 0-10.5-4.3z"/><path id="path90" d="M213.5 82.8q.7.6 1.2 1.4-3.1 6-8.5 7.7c5 3.1 4.2 2.6 6.8 6.4 3.6-1.3 7.5-2.7 10.7-4.1 11.9-4.9 27.6-14.5 28-28.3a258 258 0 0 1-38.2 16.9z"/><path id="path92" d="M206.1 92c-2.6-3.8-8.1-4.7-11.7-3.8 0 2.9 0 6.2-.9 8.8 4.6-.1 9.6-1.3 12.6-5z"/><path id="path94" d="M193.5 97c3.8.5 7.9 2.8 8.9 6.7q7 .3 10.9-5a15 15 0 0 0-7.1-6.7 16 16 0 0 1-12.7 5z"/><path id="path96" d="M202.4 103.7c-1.5-4.4-5-6-8.9-6.7q-1 3.4-2.7 6.3 6.5 2.7 11.6.5z"/><path id="path98" d="M202.7 103.7c3.3 4.3 3.3 4.9 6.1 10.4l-1.5 1 7.1.7c19.6 1.3 33.8-.9 40.4-13.7-15.1 1.3-30.7.6-43.3-1.3-2.4 2-5.5 2.5-8.8 2.9z"/><path id="path100" d="M202.5 103.7a14 14 0 0 1-11.6-.4c3.1 3.1 5 7.6 5.4 11.8 3.8 1.6 8.5 2.5 12.5-1.1-2-4.3-3.7-7.1-6.2-10.3z"/><path id="path102" d="m178 113.2.1.5a17 17 0 0 0 10 12.7c.7-6.8 1.1-10.4-2.8-16.7a25 25 0 0 1-7.3 3.5z"/><path id="path104" d="M175.9 131.3c2.3 5 8.7 8.6 14.2 9.6l-2.1-14.6c-4.7-2.7-8.3-5.6-10-12.5 1.3 8.7-.6 13.2-2.1 17.6z"/><path id="path106" d="M190.8 103.2a25 25 0 0 1-5.6 6.5c3.3 3.4 6.7 5.1 11 5.4-.6-5.7-2.4-8.3-5.4-11.8z"/><path id="path108" d="M188 126.3c4 2.9 9 3 13 2.5l-4.8-13.8c-4.2-.2-8.5-2-11-5.4 4.4 7 3.5 11.6 2.8 16.7z"/><path id="path110" d="m196.4 129 9.8 5.8c13.7 6.5 33.6 17 45.9 4.6a231 231 0 0 1-48.9-23.1 13 13 0 0 1-6.8-1l4.2 13.4-4.3.2z"/><path id="path112" d="m186.5 140-1.2-.6 1.1 2.3 1.2 2.3-.6-2z"/><path id="path114" d="m176 131.4-2.2 11.8c8.2 26.7 17.5 52.1 35 52.8-9-17.6-17.5-37.3-22.3-56-4.3-1.5-8.7-4.3-10.5-8.6Z"/><path id="path116" d="M174.2 193.3c-1.2-9-4.2-11.3-11.9-12.1l2.4 4.4c4 .2 7.1 3.8 9.5 7.8z"/><path id="path118" d="M170.3 203.6c0 3.2.5 7.1 2.6 9 .5-4.4 1.7-6.8 2.2-10 .5-3.6.6-6.4-.8-9.2-.8 4.6-1.9 6.9-3.9 10.3z"/><path id="path120" d="M172.8 212.6c-1.9-2.3-2.4-5.2-2.6-9-.3 4.9-1.5 8.7-3.3 12.7 1.3 5.7 5.7 6 9.3 4.5-3.3-.1-3.5-4.9-3.4-8.2z"/><path id="path122" d="M209.8 221.5c-1.1-2.3-3.1-5.4-5.3-5.5q-2.7 0-3.8 1.8c-1.2 1.8-1 4.4.5 5.4a2 2 0 0 1 1.5.1c.5-1.7 1.6-3.6 3.3-3.6s2.6.8 3.8 1.9z" style="fill:#ffcc00;stroke:#996600"/><path id="path124" d="M204 224.1c-1.1 3-.5 5 1.7 7.2.7-1.5 1.3-2.6 2.9-2.6 1.9.1 2.7 2.4 3.6 4.1 0-6.6-2.1-10.4-8.2-8.7z" style="fill:#ffcc00;stroke:#996600"/><path id="path126" d="M170.3 203.6q3-4.6 3.9-10.3c-3.6-5.6-5.5-7-9.5-7.8 2.1 1.4 3.5 4.4 3 8.2-.5 3.5-.3 7.2 2.6 9.9z"/><path id="path128" d="M153.2 179.8c-1.6-1-2.2-3.3-2.2-5.2a40 40 0 0 1-5.4 13.2c4.1 2.2 7.3 2 11.3.7-.4-4.2-1.9-7.5-3.8-8.7z"/><path id="path130" d="M153.2 179.8c3.3 2.9 7.5 4.5 11.6 5.6l-2.3-4.2c-3.3-1.5-6.1-2.2-9.3-1.4z"/><path id="path132" d="m145.5 187.8 3.7 5.6c2.9 3 5.5 4.6 8.9 6.2 1.5-5.3.8-8.1-1-10.6l-.1-.6a14 14 0 0 1-11.5-.6z"/><path id="path134" d="m149.2 193.3-3.7-5.6a41 41 0 0 1-5.3 14.9c1.1 3.6 3.9 5.2 6.8 6.7 3-6.8 3.5-10.1 2.2-16.1z"/><path id="path136" d="M145.5 187.8a12 12 0 0 1-5.5-6.2l-1.3.6c-.4 3.2-1.4 7.1-2.6 9.8.9 3.8 2.4 7.8 4.2 10.9 2.7-5.5 4.3-9.8 5.1-15z"/><path id="path138" d="M140.1 181.6c1.4 3 2.9 4.7 5.4 6.2q3.8-5.5 5-12c-6.6 3.5-6.5 3.5-10.4 5.8z"/><path id="path140" d="M167.4 195.4c.6-3.9.7-7.7-2.8-10-4-1.2-7.8-2.5-10.8-5.1a13 13 0 0 1 3.1 8c2.6 3.7 7.1 5.6 10.5 7.1z"/><path id="path142" d="M158.2 199.5a26 26 0 0 1-9-6.2c1.1 3.7.8 7 .2 10.2 2.9-.3 5.3 2.8 7.1 4.8z"/><path id="path144" d="M167.4 195.4a28 28 0 0 1-10.2-6.5c2.2 3.3 1.9 7.1 1 10.8q.8 5.3 5.2 7.4c2-4.1 3.3-7.7 3.9-11.7z"/><path id="path146" d="m138.8 182-7 1.4c.6 4 2.6 6.3 4.3 8.4 1.5-2.6 2.1-6.7 2.7-9.8z"/><path id="path148" d="M132 184a16 16 0 0 1-4.1 7.7l.2 1.6.2 1.6.4 1.6.2.8.3.8.6 1.4.7 1.4.8 1.4.5 1.4c2.5-2.7 3.9-7.3 4.4-11.6-2.6-3-3.4-5-4.2-8.1Z"/><path id="path150" d="M131.9 203.8c.4 5.6 2.3 8.6 4.9 11.1q3-6 3.5-12.4c-2-4-3.4-7-4.2-10.8-.4 6-2.1 8.5-4.2 12z"/><path id="path152" d="M131.8 224.5h.1q3.7-3.2 4.9-9.5c-2.9-2.6-4.2-6.9-4.9-10.6-.9 3.8-1.8 8.1-4.9 10.5.3 4.5 2.5 7.6 4.8 9.6z"/><path id="path154" d="M136.9 215a18 18 0 0 1-5.1 9.5c1.2 4.9 3.3 7.1 5.6 9.2a17 17 0 0 0 2.5-13.2 10 10 0 0 1-3-5.5z"/><path id="path156" d="M136.8 215c.7 3.2 3.1 6.1 5.6 6.7 0-6.5 2.3-11.1 4.8-12.2-3.1-1.3-6-3.9-6.9-7-.3 4.8-1.8 9-3.4 12.5z"/><path id="path158" d="M137.4 233.7c1.3 2.2 8.1 7.1 13.3 3.8a21 21 0 0 1-8.3-15.8 5 5 0 0 1-2.5-1.3c1.1 5.4-.3 9.6-2.5 13.3z"/><path id="path160" d="M131.8 224.3c-.9 3.9-2.7 7.3-5.5 9.3l2.4 8.3 3.2 6.3 3.1-6.3 2.4-8.3a16 16 0 0 1-5.7-9.3z"/><path id="path162" d="m137.4 233.6 1.8 8.1-1.8-8.1-2.4 8.3c1 4.2 3.8 7.7 6.1 10.8a30 30 0 0 0 1.2-15.2 16 16 0 0 1-4.2-3z"/><path id="path164" d="M135 242c-.8 1.6-1.1 2.4-3.2 6.3v6.4a35 35 0 0 0 8.8 14.4q1.4-8.6.4-16.4a28 28 0 0 1-6-10.7z"/><path id="path166" d="M163.5 207.3c-.4 3.4-.2 5.2-2.1 9.2-1.4 3.8.7 8.1 3.8 10.4a31 31 0 0 0 1.6-10.6 22 22 0 0 1-3.3-9z"/><path id="path168" d="M161.2 217.6c1.7-3.6 2-6.7 2.4-10.2-2.8-1.7-5.1-4-5.3-7.8l-1.7 8.8c.7 3.5 2.6 6.8 4.6 9.2z"/><path id="path170" d="M166.8 216.3c2.4-4.5 3-8.3 3.5-12.7-2.7-2.2-2.9-5.5-2.8-8.1-1 4.2-2 8.1-3.9 11.2.3 3.4 1.6 7 3.2 9.6z"/><path id="path172" d="m156.5 208.3-1.2 10.6a10 10 0 0 1-4 7c3.2 1 5.1 1.5 7.4-1.9 1.2-2 1.8-4.5 2.3-6.5a21 21 0 0 1-4.5-9.2z"/><path id="path174" d="m155.3 218.9 1.2-10.6c-2.6-2.9-4.4-5.1-7-4.8-.8 2.4-1.3 4-2.3 6.2 4.7-1.2 8.2 0 8.1 9.2z"/><path id="path176" d="M142.3 237.6c2.6 3.8 3.5 6.4 5 9.9l6.5 6.2 7 3.7a36 36 0 0 0-11.4-19c-3 .5-4.1.2-7.1-.8z"/><path id="path178" d="M142.2 237.3c1.4 7.8-.2 11.4-.9 15.4q1 7.5 7 11.5c1.3-9.6.5-16.9-6.1-26.9z"/><path id="path180" d="M141.1 252.7c.8 6.1.1 11.1-.5 16.4l.2 2.1c1.5 5.8 4 11.2 9 15.2 2.1-9.5 1.9-15.9-1.6-22.2a19 19 0 0 1-7-11.6z"/><path id="path182" d="M147.2 247.4a44 44 0 0 1 1 16.8 65 65 0 0 1 8.7 11.6c1.6-6.9 1.5-16.9-3-22.3-2.7-2.7-3.8-3.9-6.7-6.2z"/><path id="path184" d="M140.8 269.1a41 41 0 0 1-8.9-14.4v30.8-30.9a38 38 0 0 1-8.9 14.6c-1.7 16 1.4 22.1 9.2 32.2 8-10.5 10.8-17 8.6-32.2z"/></g><path id="path188" d="M205.4 243c-3.3 2.1-2.9 5-1.6 7.5 1.8-2.1 5 0 5.8 1.9 1-4.9 1.4-7.4-4.2-9.4z" style="fill:#ffcc00;stroke:#996600"/><path id="path190" d="M184.7 259.4c-2.1-3.9-4.5-3.7-6.3-1.4-1.5 5.9 2.5 8.4 7.6 9-3.9-2.4-4.6-6.2-1.3-7.7z" style="fill:#ffcc00;stroke:#996600"/><g id="g244" style="fill:none;stroke:#666666"><path id="path192" d="M219 65.2c-4.5 4.9-7.9 8.1-12.4 12.4"/><path id="path194" d="M202.8 67.3c3.1-5.4 4.8-9.5 6.2-14.6"/><path id="path196" d="M192.3 78.8q6-2 10.4-5.5"/><path id="path198" d="M153.8 42.3c2.4 2.9 9.4.2 11.5-1.3"/><path id="path200" d="M157.8 62.7a6 6 0 0 1-3.9 2.5"/><path id="path202" d="M163.6 37.7c1.4 3.4 5.9 8.2 7.5 5.2"/><path id="path204" d="M164.7 138.1q.6 4.6 1.4 9.1"/><path id="path206" d="m206.2 98.2-7.3-1.7"/><path id="path208" d="M223.4 108.5a201 201 0 0 1-17.8-1"/><path id="path210" d="M225 85.6c-5.6 2.6-11.6 4.9-17 6.8"/><path id="path212" d="M196.9 87.3c4.4-.4 7.3-1 11.2-2.2"/><path id="path214" d="M178.7 117.3a48 48 0 0 0 4 12.8"/><path id="path216" d="M200.7 110a23 23 0 0 1-8.6-5.2"/><path id="path218" d="M192.9 121.4a41 41 0 0 1-5.9-8.3"/><path id="path220" d="M207.2 153.1c-7.3-7-13-13.4-18.2-20.8"/><path id="path222" d="M199 122.6a195 195 0 0 0 21.9 11"/><path id="path224" d="m168 122.6 2.5 12"/><path id="path226" d="M189.4 167a187 187 0 0 1-11.7-32.6"/><path id="path228" d="m131.9 285.4-.1-28.8"/><path id="path230" d="m144.1 238.4 6.1 6.9"/><path id="path232" d="m136.9 255-1.9-12.5"/><path id="path236" d="m139.2 241.8-1.8-8.1"/><path id="path238" d="m142.7 246.2 1.9 6.8"/><path id="path240" d="m153.2 260.4-5.4-11.5"/><path id="path242" d="m146 273.1-4.2-17.3"/></g></g><use id="use247" transform="matrix(-1 0 0 1 263 0)" xlink:href="#right_part"/><path id="path249" d="M102 90c-1 0-2 1-2 2v52a31.5 40 0 0 0 63 0V92c0-1-1-2-2-2z" style="fill:#ffcc00;stroke:#996600;stroke-width:0.5"/><path id="path251" d="M161.5 91.5h-60v54a30 37 0 0 0 60 0z" style="fill:#1059d3"/><path id="path1279-9" style="color:#000000;font-style:normal;font-variant:normal;font-weight:normal;font-stretch:normal;font-size:medium;line-height:normal;font-family:sans-serif;font-variant-ligatures:normal;font-variant-position:normal;font-variant-caps:normal;font-variant-numeric:normal;font-variant-alternates:normal;font-variant-east-asian:normal;font-feature-settings:normal;font-variation-settings:normal;text-indent:0;text-align:start;text-decoration:none;text-decoration-line:none;text-decoration-style:solid;text-decoration-color:#000000;letter-spacing:normal;word-spacing:normal;text-transform:none;writing-mode:lr-tb;direction:ltr;text-orientation:mixed;dominant-baseline:auto;baseline-shift:baseline;text-anchor:start;white-space:normal;shape-padding:0;shape-margin:0;inline-size:0;clip-rule:nonzero;display:inline;overflow:visible;visibility:visible;opacity:1;isolation:auto;mix-blend-mode:normal;color-interpolation:sRGB;color-interpolation-filters:linearRGB;solid-color:#000000;solid-opacity:1;vector-effect:none;fill:#ffcc00;fill-opacity:1;fill-rule:nonzero;stroke:none;stroke-width:2.51039;stroke-linecap:butt;stroke-linejoin:miter;stroke-miterlimit:4;stroke-dasharray:none;stroke-dashoffset:0;stroke-opacity:1;color-rendering:auto;image-rendering:auto;shape-rendering:auto;text-rendering:auto;stop-color:#000000;stop-opacity:1" d="m131.5 95.2-5.5 8.3 3.8 5.8h-3.6v7.5h4v19.6h-3.8a32 32 0 0 0-3.6-13.6c-2.2-4-5.4-6.8-9.2-7l2.3 3.2v24.4a2.5 2.5 0 1 0 2.5 2.5h5.4l6.4 9.4v8.2h-6a2.5 2.5 0 1 0 0 2.5h6v8.1a2.5 2.5 0 1 0 2.6 0V166h6a2.5 2.5 0 1 0 0-2.5h-6v-8.2l6.4-9.4h5.4a2.5 2.5 0 1 0 2.5-2.5V119l2.3-3.2c-3.8.2-7 3-9.2 7a32 32 0 0 0-3.6 13.6h-3.8v-19.6h4v-7.5h-3.6l3.8-5.8zm0 4.5 2.5 3.8-2.5 3.7-2.5-3.7zm-2.8 12h5.6v2.6h-5.6zm-10.3 9.3q1.2 1.2 2.2 3 2.8 5 3.2 12.4a2.5 2.5 0 1 0 2.5 2.5h4v4.5h-11.9zm26.2 0v22.4h-11.8v-4.5h3.9a2.5 2.5 0 1 0 2.5-2.5q.5-7.5 3.2-12.4 1-1.8 2.2-3m-17.8 25h9.4l-4.7 6.7Z"/></g><!-- app4joy --></svg>