<svg width="900" height="600" id="svg5" viewBox="0 0 900 600" xmlns:xlink="http://www.w3.org/1999/xlink" xmlns="http://www.w3.org/2000/svg"><g id="g9"><path d="M0 0h900v600H0" fill="#73b1ff" id="path1" style="display:inline"/></g><g id="g10"><path id="R" style="fill:#ffcc33" d="M450 300 186.9 0h62.6zL302.1 0h46.1zL390.3 0h40zL0 270.5v-60zL0 147.2V78.1zL0 0h107.9z"/><use transform="matrix(-1 0 0 1 900 0)" xlink:href="#R" id="use1" style="fill:#ffcc33"/></g><g id="g11"><circle cx="450" cy="300" r="180" id="circle1" style="fill:#ffcc33"/></g><g id="g8" style="fill:#ffcc33"><path d="M0 300h900v300H0" fill="#000000" id="path2" style="display:inline"/></g><g id="g6" style="fill:#ffcc33"><use transform="matrix(.46162 0 0 .44944 242.3 312)" xlink:href="#L" id="use2"/><use transform="matrix(.6695 0 0 .61781 148.7 231.3)" xlink:href="#L" id="use3"/><use transform="matrix(.82416 0 0 .8089 79.1 138)" xlink:href="#L" id="use4"/><use transform="matrix(.93428 0 0 .94269 29.6 59)" xlink:href="#L" id="use5"/><path id="L" d="M627.5 330c-36.6-6.3-104.1-10.3-177.5-10.3-73.2 0-140.9 4-177.5 10.4 36.6 6.4 104.1 10.3 177.5 10.4 73.2 0 140.9-4 177.5-10.4"/></g><!-- app4joy --></svg>