<svg width="1200" height="800" viewBox="0 0 1200 800" id="svg1" xmlns="http://www.w3.org/2000/svg"><g id="g3143"><g id="g3139"><path d="M1200 800h-100V0h100z" fill="#ffff00" id="Polosa_3_"/><path d="M1100 800h-100V0h100z" fill="#006699" id="Polosa_2_"/></g><path id="Polosa_4_" fill="#ffffff" d="M1000 800H200V0h800z"/><g id="g3135"><path d="M200 800H100V0h100z" id="Polosa_1_"/><path d="M100 800H0V0h100z" fill="#cc0000" id="Polosa"/></g></g><g id="g3101"><g id="g3071"><path d="m556.5 127.5-4 23.4s9.2 9 7.9 19.4-7.8 14.4-7.8 14.4-5.2 29.8-11.7 45.4-20.8 36.4-20.8 36.4l14.3 3.9s-27.3 37.7-33.8 59.8-5.1 62.3 10.4 94.8c15.6 32.4 94.9 80.5 124.7 107.8 30 27.3 18.2 55.8 18.2 55.8.3.7 11.3.5 16.4-.7s14.7-8.5 14.7-8.5 3.6 9.9 10.5 18.8 18.9 15 18.9 15 .2-27-.2-32.2 5.5-15.1 11.2-15.3c5.8-.3 9.4 7.5 12.2 9.6s8.2 1.1 8.7-.3c.4-1.3-1.2-10.3 0-12.6s6.4-5.2 6.4-7c0-2-2-4.2-2-4.2l-57.5-77.9c5.5 7.1 67.2 88.5 86.7 110.2 0 0 13.7 21.3 30 36.3 16 15 27.4 14.2 35 11.7 4.1-1.3 1.2-8 1.2-8L724.4 480.2c-36.2-52.9 73.3 89.7 132.8 133.9a54 54 0 0 0 34.4 3.9c3.3-.7-.9-12-.9-12-48.8-47-110.5-102.9-152.9-142.2l138 122.1s8.3 6.2 22.5 6.7 19.1-7.1 19.1-7.1c.8-1.3-.8-3-3-4.9L742 444.4c.8.4 3.1 1 9.3-1.1 8.3-2.8 9.2-9.3 9.2-9.3s-7.3-8.6-10-10-8.8-15.6-9.3-17.5c-.4-1.8-14.1-7.9-22.4-7-4.4.5-8.8 5.2-11.9 9.4l-4.2 6.8s1.6-3.3 4.2-6.8l6.7-10.7s16.3.5 19.5-.9 2.4-14.5 2.4-15.7c.8 2 16.3.5 21.3-7 2.3-3.6 1.4-14 1.4-14s12.2-2.3 18.6-8.3 3.5-24.8 3.5-24.8 9.2-7.4 12.9-12c3.6-4.5-2.5-20.3-2.5-20.3s6.6-8.1 8-14c1.3-6-6-15.7-6-15.7s9-5.5 10.7-15.6c1.9-10.1-10.5-18.5-10.5-18.5s8.7-9.4 6.7-22c-1.3-8.3-17.5-13.7-17.5-13.7s6.7-10.6 7-24.3c0-11-21-16-21-16s-2-14.3-1.6-19c.5-4.5-6.4-8.2-6.4-8.2s-2.3 3.7-3.7 9.2-14.3 19.2-32.2 42.2-18.3 37.3-19.7 46 7.3 55 7.3 55-3.2 6-16.5 15.7-34 15.2-34 15.2l11.7-4.9-7.4-23.2 20.8-9.1s-9.1-2.6-14.3-13-5.2-45.5-3.9-68.9c1.3-23.3-14.3-62.3-14.3-62.3zm38.6 11.3a15.5 15.5 0 0 1 0 31 15.5 15.5 0 1 1 0-31zm-.2 10.5a5.6 5.6 0 0 0-5.7 5.5c0 3 2.5 5.4 5.7 5.4 3.1 0 5.7-2.4 5.7-5.4s-2.6-5.5-5.7-5.5z" stroke="#ffffff" fill="#373535" id="path2453"/><g id="g3063" fill="#373535" stroke="#ffffff"><path id="path2459" d="M560 168.7c1-4.8-2.3-12.1-9-17.7-20.6-.5-37.9 3.3-55.5 8.7 20.7 2.6 44.3 4.2 64.5 9z"/><path id="path2461" d="M559.5 170.8a19 19 0 0 1-7 13.5c-15.3-.7-31.4-1.7-42.3-7.3 21-1.8 32-3.7 49.3-6.2z"/></g><g id="g3028" fill="#373535" stroke="#ffffff"><path id="path2476" d="M788.3 173a143 143 0 0 0 44.6-35c31.4-40 53-76.3 30.2-88.5-36.5 37.1-85.1 88.4-96.8 93.8l1.3 12.7c11.3 2.2 20.6 9.9 20.7 17z"/><path id="path2591" d="m788.4 173.3 45.4-31.3 58.2-34.7s11.1-8.7 12 5.3-10.2 37.7-45.4 61.2a375 375 0 0 1-60.7 33.8 35 35 0 0 0-16-11.8c3.1-7.4 6.4-14.4 6.5-22.5z"/><path id="path2593" d="M799.5 208.8c4-1.9 99.8-50.3 99.8-50.3s12-4.1 14 4.1c1.9 7.3-17.6 32.7-42.7 51.8-12.1 9.3-67.7 29.1-67.7 29.1L792.5 232c6.6-9.4 7.7-14 7-23.2z"/><path id="path2595" d="M803.8 245c19-9 76.2-35.5 104.8-34.4 6.7 4.3 6.3 13.2 6.3 13.2-27.9 27.4-72.2 43.6-118.8 47.5l-4.1-5.8c7.5-5.9 11.1-12 11.8-20.5z"/><path id="path2597" d="M796.4 272.5c3.3 0 41.9.3 58.5-1.3 19-1.7 38-6.7 42.8-4.6 4.8 2-.2 21.6-8.7 25-32.5 12.7-56 15.4-96.4 15.2 1-6.7-2.5-8.4-5.1-11a19 19 0 0 0 9-23.3z"/><path id="path2599" d="M794.2 307c1.8 5.4 49.6-3.1 74 7.3.6 8.4-2.8 17-30 25.6l-60.8 1.7c1.5-3.6 2.6-7.6.5-15.9 8.1-1.5 16.4-11 16.3-18.6z"/><path id="path2601" d="M780 342.1c29.9 2.3 46.6 13.2 66.9 21.9-1 7.2-3.9 13.5-11.6 17.3-21.4 1-43.5-3-65-9l-14-6.4 1.2-7.7c13.4-.4 19.3-7.1 22.5-16z"/><path id="path2605" d="M756.8 367.5s50.4 31.5 44.3 41.8c-10.9 18.6-70-14.2-70-14.2l1.2-15.4c12.6 1.3 20.5-3.2 24.5-12.2z"/></g><path d="M506 415.3c-14.8-38.3-7.6-77.4 7.7-116.9a33 33 0 0 1-24.5-18.2 115 115 0 0 0-17.8-109 198 198 0 0 1-34-40.6l-.5 24.6c-29 4-33.5 19.3-20 42.7-15.8 10.2-15 21.4-9.1 32.8-9.2 11-16 22.4 2.3 35.9-12 8.5-10.7 19.2.4 31.4-3.6 13-7.8 26 14.6 33.2 1.5 11.5-11 26.4 18.1 31.3.1 13.6 5 23.3 25.5 20q1 20.5 20 19.1c.6 9.2 4.6 15.4 17.3 13.7z" id="path2607" style="fill:#373535;stroke:#ffffff"/><g id="g3048"><path style="fill:#373535;stroke:#ffffff" id="path2609" d="M434.6 154.3s1.1-17.8 0-15.5c-4 8-93.8-88.7-93.7-89.5-8.7 1.2-15 5.4-13.6 18.6 4.2 26 22.9 57.2 82.6 102.8 6.4-9.7 15.8-12.4 24.7-16.4z"/><path style="fill:#373535;stroke:#ffffff" id="path2611" d="M418.2 197.5c-7.6-7.3-8.6-17-9-26.8L305.8 101c-5.6 3-11.8 5.2-10 19 53.1 61.6 82.7 77.5 109.6 88.3 3.4-5 8-8 12.7-11z"/><path style="fill:#373535;stroke:#ffffff" id="path2613" d="m398.2 243.9 9.1-13.2c-2.8-6.6-5.7-13.1-1.5-21C395 202.4 303.4 155 287 154.5c-6.4 23.7 49.9 62 49.9 62z"/><path style="fill:#373535;stroke:#ffffff" id="path2615" d="M398.2 243.4 336 218.6c-20.8-5-49-14.2-53.1-6.6-4.3 7.7 19 33.3 40.9 42.2l43 17.4 36 1.8 8.2-7.3c-9.4-4.4-14-11.8-12.8-22.7z"/><path style="fill:#373535;stroke:#ffffff" id="path2617" d="M408.2 310.5q-1.1-6 3.2-13.9c-9-3.3-10.6-12-10-22.3L296 271.6c1.8 18.9 31.4 35.3 112.2 38.9z"/><path style="fill:#373535;stroke:#ffffff" id="path2619" d="m406 312-31.4-.4a190 190 0 0 1-52.3 6.4c10.8 42.8 73.3 26.3 101.4 25l2.3-11.8a27 27 0 0 1-20-19.1z"/><path style="fill:#373535;stroke:#ffffff" id="path2621" d="M422.8 344.8c-.5-2.7-67.3 20-68.8 23 2.4 31.5 48.3 16.1 92 8l-2.8-13.7q-18.8-.7-20.4-17.3z"/><path style="fill:#373535;stroke:#ffffff" id="path2623" d="M445 375.5c-1.7-2.7-55.4 32-49 37.3 17.5 10.6 37.5 9.2 75-17.5l-2.8-12.8q-16.5 2-23.3-7z"/><path style="fill:#373535;stroke:#ffffff" id="path2625" d="M470 395.7c-18.3 18.2-24.8 26.2-28 42.4 21 11.8 39.5-6.1 58.2-20.9-4.9-4.2-12-5.8-12-15.6-6.4 1.5-12.2-2.7-18.1-5.9z"/></g><g id="g3059" fill="#373535" stroke="#ffffff"><path id="path2627" d="M640.4 582.2c1.3-15.3 4.7-23 11.4-29.8-12.1-19-32-33.4-52.8-48.7 3.2 20.5 1.4 38.4-14 51.6 0 0 31-1.3 31-.4.7 3.2 12.5 23.1 24.4 27.3z"/><path id="path2633" d="M612.8 551c-1.8 1.8-23.9 4-25 2l-48.3 63.7-60.4-11c-20.9-.6-25.1 6.9-29.3 12.9 9.5 2 20 9.2 28-1.3 7.1 1.4 18.8.8 20.2 7l22.9 2.3-68.2 5.5c-10.3 6.1-8.7 14.8-11.6 22.5 8.3-2.3 16.6-4.2 25.8-.6-2.7-6.1 1.8-8.3 10.3-8.4l30.8.6 18.7-14.1c-14.7 14.4-29 29-47 39.2-3.1 6.5-4.7 13.2.7 20.6 5-3.7 8.7-8.8 21.2-5.1 1.7-7.8 3.4-16 5.1-18.7q18.7-12.9 38.6-25.7c26.3-4.7 45.3 1.5 66.9 3.8 1.6-8-10.3-13.5-18-18.3l-38-4.8c14-18 43.3-40.3 65-60.4-3.5-2.7-7.4-4.8-8.4-11.6z"/></g><path d="M696.4 599.3c-7-7-9.3-13-12.2-19.3-5.2 3.3-9.5 7-17 8.7a942 942 0 0 0-36.7 82.6l-69.1-4.5c-15.2-.8-19.5 7-22.8 15.5 7.2 1.3 14 3.3 22.8 2.2 1.2-3.7.5-8.1 11.6-7.7a61 61 0 0 0 39.5 2.2l-61 16.1c-15.2 6.5-14 17.3-17.1 27 15.1-8.5 27.4.1 31.8-18.3l35.4-5.5 22.5-11.5-22.9 13.1c-5.4 14.4-17.4 25-28.6 36l12 14.8 3.5-9.3c13.6 2.3 12.3-8 16-12.5-.8-16.2 24.9-19.1 39.3-27.7l50.4-3.5 17.7 1.3c-3-10-10.8-18.8-22.5-17.7-11.5 0-25.2-.5-40.2-1.3 14.7-29.3 29.6-58.1 47.6-80.7z" stroke="#ffffff" fill="#373535" id="path2635"/></g><g id="g3067" stroke="#000000"><path d="M595 76.3c-5.6-.2-9.4 7.4-9.3 11.8 0 4 3.2 4.6 7 4.9 4 .2 2 4.1 2 4.1s-4.7 9.1-16 8.5c-9.3-.5-14.2-7.2-14.7-10s9-2.9 9-2.9l.4-5.2s-3.5-1.9-4.3-4.8c-.7-3-5.6-2.6-6.8 0s-7.6-4.1-7.6-4.1l-14-.5-.8 9.5s.4-3.6 11.5 14.3 5.8 23.7 5.8 23.7l98 2.1s-4.8-6 7-23.4 11.6-14.4 11.6-14.4l.2-8.9-14-.1s-6.8 6.4-7.9 3.7c-1-2.6-6-3.2-6.8-.3-.9 3-4.5 4.7-4.5 4.7l.2 5.2s9.6.5 8.9 3.3-5.8 9.2-15 9.3c-11.4.2-15.7-9.2-15.7-9.2s-2-4 2-4 7-.6 7.3-4.6c.3-4.4-3.2-12.2-8.7-12.1-6 0-7.6-12-7.6-12l-10.5-.2s-3 10.6-6.8 11.6z" fill="#fff215" id="path2465"/><path d="m655.3 118.6-97-2.1" fill="none" id="path2470"/></g></g><!-- app4joy --></svg>