<svg height="591" viewBox="0 0 886 591" width="886" id="svg198" xmlns:xlink="http://www.w3.org/1999/xlink" xmlns="http://www.w3.org/2000/svg"><defs id="defs9"><linearGradient id="a"><stop stop-color="#008bd2" stop-opacity=".12109" offset="0" id="stop1"/><stop stop-color="#008bd2" offset=".25" id="stop2"/><stop stop-color="#bfe9ff" offset=".5" id="stop3"/><stop stop-color="#008bd2" offset=".75" id="stop4"/><stop stop-color="#008bd2" stop-opacity=".1235" offset="1" id="stop5"/></linearGradient><linearGradient id="j" y2="570.86" xlink:href="#a" gradientUnits="userSpaceOnUse" x2="336.48" y1="570.86" x1="257.31"/><linearGradient id="i" y2="581.1" xlink:href="#a" gradientUnits="userSpaceOnUse" x2="315.76" gradientTransform="translate(171.4 -64.5)scale(.86592)" y1="581.1" x1="266.21"/><linearGradient id="h" y2="581.1" xlink:href="#a" gradientUnits="userSpaceOnUse" x2="327.92" y1="581.1" x1="278.05"/><linearGradient id="g" y2="284.45" gradientUnits="userSpaceOnUse" x2="327.73" y1="284.45" x1="265.9"><stop stop-color="#fff" offset="0" id="stop6"/><stop stop-color="#bae0ff" offset=".5" id="stop7"/><stop stop-color="#fff" offset=".5" id="stop8"/><stop stop-color="#bae1ff" offset="1" id="stop9"/></linearGradient><linearGradient id="f" y2="372.99" xlink:href="#a" gradientUnits="userSpaceOnUse" x2="431.94" y1="372.99" x1="392.01"/><linearGradient id="e" y2="436.93" xlink:href="#a" gradientUnits="userSpaceOnUse" x2="432.31" y1="436.93" x1="393.53"/><linearGradient id="d" y2="495.9" xlink:href="#a" gradientUnits="userSpaceOnUse" x2="433.32" y1="495.9" x1="398.82"/><linearGradient id="c" y2="574.02" xlink:href="#a" gradientUnits="userSpaceOnUse" x2="408.5" y1="516.48" x1="408.5"/><linearGradient id="b" y2="557.71" xlink:href="#a" gradientUnits="userSpaceOnUse" x2="324.23" y1="538.24" x1="324.23"/></defs><g id="g200"><path fill-rule="evenodd" fill="#903" id="rect9" d="M0 0h886v591H0z"/></g><g id="g199"><use xlink:href="#k" transform="matrix(-1 0 0 1 857.2 0)" height="841.89" width="595.28" y="0" x="0" id="use9"/><use xlink:href="#l" transform="matrix(-1 0 0 1 857.2 0)" height="841.89" width="595.28" y="0" x="0" id="use10"/><path d="m501.2 381.9-.7 1.8-1 1.7-1 1.5-1 1.4h-.1l-2 1.8-2.1 1.5-1.2.7-1.2.5-2.7 1-1.5.4-1.4.3-1 .1H447l-2.5.3-2.3.6-2 .9-1 .5-1 .6-2.3 1.8-3.1 3.2-3.2 3.9-.2.3-.3-.3-4-5-1.4-1.3-1.3-1.2-2.5-1.8-1-.5-1-.5-1-.5q-.5 0-1.1-.3l-1.6-.4-2.4-.3h-37.4l-1.4-.2-1.5-.3-1.3-.4-1.4-.5-1.3-.5-1.2-.6-1.2-.7-1-.8h-.1l-2-1.7-1.8-2-1-1.5-.9-1.7-.7-1.8-.6-2-.4-1.6-.3-1.6-.2-1.8-.2-1.8V217.4h147V373l-.4 3.6-.7 3.2zm-.6-.2.6-2 .4-1.5.3-1.6.2-1.7.1-1.8V218H356.6v155l.3 3.5.3 1.6q0 .7.4 1.6l.6 1.9.7 1.8.9 1.6 1 1.4 1.6 2 1 .8 1 .8 2.2 1.4 1.2.6 1.2.5 1.3.5 1.4.4q.8 0 1.4.3l1.4.2h37.3l1.3.1 1.2.2 1.6.4q.6 0 1.2.4l1.1.4 1 .5 1 .6 2.5 1.8 2.8 2.6 3.9 4.7 1.3-1.7 4.7-5.1 1.2-1 1.3-.9 1-.6 1-.6 1-.4 1.1-.5 2.4-.6 1.3-.2h38.6l.9-.2 1.4-.3 1.4-.4 3.8-1.5 1.2-.6 1-.7 1-.8 1-.8 1-1 1-1.3 1-1.4.9-1.7z" id="path10"/><g clip-rule="evenodd" id="g53"><path fill="url(#i)" d="M424.2 435.1c-16.4 2.5-22.2 4.4-22.3 6 0 3.8 14.9-2.3 22.3-6" id="path11"/><g id="l" clip-rule="evenodd" transform="translate(171.4 -64.5)scale(.86592)"><path d="M297 555h3.6l3.8.2 3.8-5.4a55 55 0 0 1 14.7-12.5c2-.9 6.3-2.6 7.6.2a22 22 0 0 1 6.4.5l1.7.4q3-1.8 6.3-2.2a6 6 0 0 1 4 1.2l.7.7 1.4-.8 1-.1.8.2.7.5q.5.8.7 1.6 1.4-1.4 3.2-2.6 1.9-1 4-1c1.9 0 3 .6 3.3 2.7q0 .9-.3 1.7 1.6-.6 2.8.5 1.8-2.2 3.8-4.1l1-.8q1.1-.9 2.6-1.2h.8c1.5.3 2 .9 2.8 2.3l.2.3 4-3.1q-.5-2.5-.6-5c.3-2.2 1-5.4 3.6-5.6l.6.3 4-6.7q-1-3.3-1-6.8l.6-1.3q.5-.9 1.4-.9l-.1-.3c-1-3-2-6.7-.4-9.7q1.4-2 3.5-2.5a6 6 0 0 1-1.6-3c-.3-2.6.7-4.7 2.1-6.8q-2.2-6-3.3-12.5c-.3-2.6-.5-5.4 1-7.7v-.7h-.1l-1-.6-.3-1 .2-2.7q.8-1.6 2-3l-.4-7.9-.5.1-.8-.3-.3-.6c-.7-2-.1-4 .5-6l2.2-3.2-.9-1.2-.2-.8.2-1q.6-1.4 2-2.3a70 70 0 0 1-4.5-10.6c-.7-2.7-1.5-5.7-.3-8.4q1-2 3.2-2.4-1-3.2-1.1-6.6v-1.2c-.3 0-.6-.6-.7-.9q-.8-2-1.2-4 .2-3.2 2-5.8l-.8-5.4-1-.4-.5-.7q-.5-1.2-.6-2.5v-1c1-4.3 4.2-7.5 7.2-10.4l-2-2a20 20 0 0 1-5.5-11q-.1-3.5 3.2-4.5h.7c-2.8-3.4-5.6-7.6-5.3-12.1q.5-3.5 3.7-4.8v-3.6c.2-2.4.5-4.5 2-6.4l.4-.6q1-.8 2.4-.9c1.7.2 2.6 1.1 3.6 2.5l.4.7c1 2.2 1.1 4 1 6.4v.9c1.4-.2 3-.2 4.1.8q-.1-3.4 2.2-5.6l1.2-1q-.7-4.1-1-8.3c0-2.7.2-5.5 2-7.6q2.4-1.7 5-.9l.4-1.6.8-2.3 1-2 1-1.5 1.2-1.3 1.3-.9 1.2-.5 1.3-.1 1.2.3 1 .8.6 1.2.3 1.4v1.8l-.5 2-1.4 3.4 1.4.3 1 .6 1 .7.6 1 .3 1 .1 1-.1 1.2q-.5 1.8-1.5 3.5l-.8 1.2-2.9 3q.7.4 1.3 1l.4 1 .1 1.1q1.7-1.3 3.8-2a7 7 0 0 1 4.9 0l.5.3a4 4 0 0 1 1.7 3.4l-.1.7c-.5 2-1.4 3.3-2.7 4.8l-.8.8.8.4q1 1.5 1.4 3.3c.3 2.7-.5 4.3-2.3 6.2l.6 4.7.3-.5 1.3.2c1.9 4.4-.2 9.1-2.8 12.6l.4.3.6 1.3c.3 2.5-.2 5 .5 7.5q1.5-.3 2.5 1a11 11 0 0 1 1.7 5.4q.5 7-.9 13.7 1.3 1.5 1.2 3.6v.9q-.6 2.6-2 4.9.4.3.6.8.4 1.9-.1 3.6-1.2 2.8-3.3 4.9l.5 5.5 1 .2.3.6q.2 2.2-.2 4-.3 3-2.2 5.5c1 1.6.8 3.5.7 5.2l-.4 3.6q1.5-.2 2.6 1c1.4 1.9 1 4.5.7 6.7l-2.8 12.2q1.9 0 3.6 1 1.3.8 1.6 2.3c0 2.9-2.3 4.5-4.4 6l-1.6.9.3 1q1.2 0 2 .8 1.1 1.4 1 3.2l-.2 1q-.5 2-2 3.7v.2q-.1 2.6.5 5.2l1-.1.5.7q.5 1.4.5 2.7c-.1 3.6-1.9 6.8-4.3 9.3l.2 8q.7 0 1.3.3c1.6 1 2 2.6 2.2 4.4q.3 7.5-3.3 14c1.4 1 1.2 3 1 4.5l-.2 1 .7.2 1 .4.7.8.3 1v1.3l-.3 1.2-.6 1.4q-1.2 2-2.8 3.8.7.3 1.2.8l.5.7.3.8v.9l-.7 1.6a29 29 0 0 1-7.6 6.4q.4 1.5 0 2.8l-.4.8a7 7 0 0 1-2 1.8l-1 .5a27 27 0 0 1-8 1.4h-1.8v2.2q-.4 2.7-1.4 5.3-.4.7-1 1l-1-.5-5.8 4.6v-.1l-1.1 1.3v.2a15 15 0 0 1-2.6 5.2l-.6.4h-.9l-.5-.5-.1.5-.6.9-.9.5h-1l-1.2-.3a21 21 0 0 1-5-3.4q-.3.8-.8 1.4l-.8.6-1 .1-1.7-.5q-2.9-1.8-5-4.7l-.6-1a5 5 0 0 1-2.5 2.5l-1 .3h-1q-1 0-2-.4a9 9 0 0 1-3.7-3.2l-.8 1.4c2.4 1.6 5.1 3.2 6.6 6l.2.8v.9l-.2.9q-.6 1-1.6 1.8.7 2 1 4v1.3l-.2 1.1-.4 1-.6.8-.9.6-1 .2-1-.2-.9-.4-1-.6a13 13 0 0 1-2.7-3.8l-1 .9-1 .6-1.2.3h-1.2l-1-.4q-1.6-1-2.8-2.3l-.7-1q-.8-1.7-1.3-3.3l-.5.4a4 4 0 0 1-1.9.8q-2.5-.2-4.1-2.3-3.3-3.7-5.6-8.3c-.5-1-.2-1-1.1-.3l-.9-.3q-.9-.9-1.4-2 .3 1.4-.7 2.6-.9.5-1.6 0-.1 1.8-1.3 3.2l-.5.6c-1 1.2-2 2-2.2 3.8l.1 2.3q1 1.3.2 2.6l-.4.6q-2.1 1.5-4.6 2.1l-2.4.3a35 35 0 0 1-6.7-.3q-4.1-.7-8-2.2-5.4-2.4-10.4-5.6l-3.5-2.4" id="path12"/><g fill="#fd0" id="g16"><path d="M404 367c-.3-11.3-7.1-21.1-6-28.5 1 8 3.6 12.8 5.4 17.5 0-2.7.7-8 2.3-8.5.9-5.5 0-9-5.7-7.5 2.2-12-9-16.6-7.7.5-5.2 1.4-5.6 8.3 2.8 17.2-8.6-1.5-5.6 8.8 2.2 15.9q2.6-4.1 6.6-6.7" id="path13"/><path d="M411.4 361c.5-6.7 8.9-14.6 17.8-23.9-10.5 8-18.8 15.7-19.6 25.4l-3.8 3q-2.4-.6-.2-3.3c-1.4-12.4 1.4-16.6 6.5-16.1 3-9 6.6-12.8 10.8-9.3 8-9.5 18.4-3.6 6.7 5.7 1 1.3 1.4 3.5 1 4.5q-.4 1.2-3 2.8c-5 3-11.7 9-16.2 11.2" id="path14"/><path d="M423 335.8c2.3-3.7 0-5-2-4.8 7-5.2 9.6-13 1.5-13.3 7.6-13.8-4.6-14.9-7.2-.2-5.7-2.2-8.3 1.7-5.7 16-3.2 2.1-5 4.6-2 11.8.7 1.4 2.7-.2 3.5 0 .1-1 1.1-3.7 2.2-4.3-1.7-9.5 1.6-18 6.2-26.1-2.9 7.6-6.2 16.6-4.7 23.9 2.3-4.6 4.4-5.8 8.2-3" id="path15"/><path d="M432.4 342.6c1.8 3 1.7 5.9-1.5 8.5-22 15.5-35.9 25.6-39.2 34q-.2 1.6.2 3c-1.4.5-2-2-1.5-4.1 1.7-4.9 5.1-7.4 9.8-12 7.6-7 19-15.2 29.8-23a4 4 0 0 0 1.3-4.3c-1.3-3.1-.3-2.8 1-2" id="path16"/></g><path fill="url(#f)" d="m431.2 352 .7 5a24 24 0 0 1-6.5 11.9c-8 8.4-17.4 13.6-27.5 20.8a52 52 0 0 0-4.8 4.4l-1-7c1-3.3 3.1-4.4 5.4-7q8.6-9.4 19.7-17.6c5.3-3.3 9.6-8 14-10.6" id="path17"/><g fill="#fd0" id="g22"><path d="M433 358.3q.7-3.9 1.1 1.3c-.2 4.3-2.9 8-6 11.4-9.2 9.3-21.5 16.9-32.3 24.8q-3.2 2.4-2.5 5.2c-.3 5.4-1.1 4-2.2-.7q.2-3.6 2.9-6.1c7.5-6.3 15.4-10.4 19.7-13.5a71 71 0 0 0 16-15.7q2.1-3.1 3.3-6.7" id="path18"/><path d="M430.6 411.7c5.5-6.1 7.6-11 4.7-13.8 2-9 1.7-21.6-2.8-19.2-1.5-2.8-.3-8.2-1.2-9.3q-.4-.2-1.1.4a44 44 0 0 1-10 9.8c-2 1.4 0 3.7 2.3 6.8-2.2-.6-5 .4-4.2 4 2.2 2.1 3.4 3.5 3.7 7.2 2.3-.9 5.2 1.8 7.6 6.7.6-9.3-.6-18-2.5-26.7a66 66 0 0 1 3.7 29.9c.6 1.2-2.2 4.2-.2 4.2" id="path19"/><path d="M424.6 416.7c1.7-5.6-4.7-13.6-12.4-21.8 5.9 7.8 10.9 15.2 10.5 23.4l-4.4 3.2c-5-5.7-11-11.5-4.3-15-2.1-.6-3.4-1.7-3.4-4.3.6-2.3-2-6-3.6-6.2.6-2.4 0-4.4-.3-6.5 1.4-2.4 3.8-1.6 7 3.6 2.9-2.5 5.3-3.9 7.4 6.2 5-3 7.2 4 6.6 14.2z" id="path20"/><path d="M407.6 428.9q5.9-14.7-1.6-13.6c4.3-9.8 4.7-16.3-.6-16.4 1-3.9.8-5.9-.2-7.5l-7.8 5.4c-.2 1 .4 1.7.5 2.7-4.1 1-6.6 4.8-3.5 14.4-5.6.3-5.8 6.4 1.6 21q-3.8 2.4-1.5 4.4 1.6-3 4.3-4.4c-4.7-10.3-.5-22 2-33.5-1.6 13-5.3 28.6 0 31.6z" id="path21"/><path d="M433.7 409.1c1.1-2.2 2-1.5 1.6 1.5q-1.3 3.7-5 6.4-13.4 10.1-28.4 19.7-5 3.2-7.4 8.5c-2.8 7.3-3.6 2.3-2.2-1.7 2.1-3.3 4.5-6.4 8.3-8.8q16-10.8 30.2-21.5c1.3-1 2-2.5 2.9-4" id="path22"/></g><path fill="url(#e)" d="M431.9 417.3q.5 3.3.4 6.6c-.9 2.2-1.9 4.4-3.9 7.2q-8 7.8-17.2 13.8c-5.8 3.5-11.6 7-17.4 11.7l-.3-7.8q2.3-6.6 8-10.5l22.5-14.8q4.5-2.8 7.9-6.2" id="path23"/><g fill="#fd0" id="g26"><path d="M432.4 424.7q2-4.8.9 2.7c-1 3.6-3.4 6.2-6 8.8-9.4 8.8-19.6 15.3-29.8 22a22 22 0 0 0-3.8 3.8c-1.3 2.1-2.4 3.4-1.8-1q1.2-2.6 3-3.8 10.2-7.4 20.6-14.4 13.4-8.2 17-18" id="path24"/><path d="M431.4 432.7c1.1 1.6.5 4.4 0 9.3 6.6-1.7 2.7 8.8.6 18.7-1.7-.3-2.4 1-4 1.5 2-7.2 1.6-14.4-2-22.5q2.8 11.7.8 21.4c-2-.8-5.5-1.4-7.7 1.4-4-7.6-4.2-14.2 1.8-14.1-2.5-3-2.5-3.5-1-4 4-3 8.4-7.6 11.5-11.7" id="path25"/><path d="M416.7 458.4c-1.6-1.7-3-2.4-4.4-2.9-.5-.1-1.4-.2-.2 2 2.3-.3 3.2 1 4.3 2.3q.5-.1.3-1.4" id="path26"/></g><path fill="#008bd2" d="M412.3 457.4q4.1.3 6.4 5.3a18 18 0 0 0-6 7.5q0-4.3-2.4-5.7 2-3.4 2-7" id="path27"/><g fill="#fd0" id="g30"><path d="M411.8 469.8q.5-4.1-2.9-4.1c3.9-11.8 2.2-14.4-1.9-12.9l-9.2 6.3q-.9 1.6-.4 5.7c-7.5-.8-6.6 8-1.8 21.3q-4.3 6-.6 9.2.3-7 4.6-9.7c-2.6-7.3 2.2-17.1 4.2-28.4-.3 9.5-5 22.2-2 28 1.4-8.5 4.2-14.5 10-15.4" id="path28"/><path d="M428.2 467.6c-9 3.9-17.3 9.4-24 18.5-4.2-1.2 3-18.2 9.6-15 5.5-7.9 10.7-12.7 14-6.9 3.4-5.6 17.4-1 3 6.3 3 5.7-1.7 8-9.8 8.9 5.7 3.7-5.4 8.4-14.5 16 0-.3-1-.6-1.8-.2.3-1.8.5-5.9.4-7a54 54 0 0 1 23.1-20.6" id="path29"/><path d="M432.5 474.6c1.8 3.5-10.6 10.8-25.4 21.5l.9 1.7c12.4-7.6 22.7-13 26-20.2 1.8-4.7-3-6-1.5-3" id="path30"/></g><path fill="url(#d)" d="M432.2 481.4q-.2 3.4 1.1 6c-.7 7.3-9.8 14.7-23.2 23a4 4 0 0 0-2.6-3.1 13 13 0 0 0 .4-8.7 123 123 0 0 0 24.3-17.3" id="path31"/><g fill="#fd0" id="g37"><path d="M433.6 488.4q.6-3 1.2.7c.1 1.9-.9 5.7-3.9 8.8-5.4 6-12 10.7-19 14.9-1.2.5-2.3-1.4-1-2 8.7-5 18.7-12.5 21.2-17.9q1.1-1.9 1.5-4.5" id="path32"/><path d="M431.7 530.7c.4-2.5.6-4.7-1.2-4.9 5.2-8.5 4.6-20.1.2-17.8l-.2-8q-5.7 5.7-12.5 10.3l.1 1.5c-4.5-1.2-5 5.4 2.4 13.9-2 .7-2 2-1.2 3.8.8.6 2.8 2 2.7 4l1.7-.4a86 86 0 0 0 1.9-25.8c1.1 10 1.8 19.6-.8 25.5q1.2.5 1.4 1.4c1.5-2.5 3.5-3.1 5.5-3.5" id="path33"/><path d="M397.5 520.3c-1.3-9.1 2.2-17.4 1.8-26.4-.8 10.6-5 18.4-3.4 26.2-1.7-.6-2.3-3.7-2.3-8-4-8.6-4.6-14.8 1.7-15.8 1.3-11.3 10-14.5 8.5.6 4.2-1.2 4 4.5 2.7 12.1q4.4 1 3.4 6.5c-5.6-5.2-12.2-4.8-7.4 7.3-2.4 1.8-2.5 2.4-.7 5.6l2.6 4.7q0 1.8-1.7.9-2-4.1-4.5-7.8a29 29 0 0 1-.7-6" id="path34"/><path d="m410.3 547.6-5.5-10.6q-.9-3 1.2-2.6c-.3-2.5-8.2-8.7-1-10.8-7.8-12 2.8-14.4 5.4-2.4 2-5.1 6-3.2 7 9.6 3.4.2 8.1 6.4-4.2 19.3q1.7 2.4-1.5 3.2l-.9-3.1c5.4-9 3.5-19-3.4-29.6 4.7 10.2 7.4 19.7 3 27" id="path35"/><path d="M429.9 541.4c9.6-9.4 2-13-4.4-5.2q-2-4.4-4.3-.1c-.4 4.7-2.2 9.3-7.3 13.5v2.3c5.4-2.2 10-8.6 14.9-14.2-5.7 8.7-11.5 15.5-17.5 18l.9 2.8q14.4 0 12-6.7c7.8-5 11.4-9 5.7-10.4" id="path36"/><path d="M392 510.2q-1.2-2.2-2 .4c-.3 6.3 4.2 16.4 12 29q6 10 7.4 22.2-.5 10.3 1.8-.2a49 49 0 0 0-7-24.2c-6.3-9.4-11.8-18.6-12.2-27.2" id="path37"/></g><path fill="url(#c)" d="M390.3 518.5c1.4 6.9 7.4 14 11.8 23 3.7 7.9 7.5 15.3 6.1 25.3l-6.3 4.7a85 85 0 0 0-9.4-23c-5.2-8.8-7.7-17-6.3-23.1z" id="path38"/><g fill="#fd0" id="g45"><path d="M359.9 546c3-3.8 5.7-6.8 7.2-3.7 7.1-9 9.6-7.6 10.8-3.5l2.7-1.9q.8 3.8 2.9 6.9-.9.9-2.7.7c6.2 4.5-.2 6.4-8.3 7.9q5.6 6.4-12.1 7.3 1 .8-.2 2a20 20 0 0 0-8.9-1.6q.5-2.6 2-4 5.3-2 7.9-6a67 67 0 0 1 19.2-9.2c-6.5 1.8-12.3 2.2-19 6.5-.7-.3-1.6-.3-1.5-1.4" id="path39"/><path d="M388.7 555q2.2 3 4.2 6.4c-1.3.8-3.6.3-5.6.5q-1.5-.8-1-2.3c-.9-1.7-1.4-2-3-3q3 0 5.4-1.5" id="path40"/><path d="M374.7 554.8c7.4.6 11.3 2.6 10 7 8.2 2.7 12.4 5.7 7.7 9.2 5.8 5.4 5.9 14-4.8 3.9 0 7.1-7.2.2-9.4-4.6-1 7-9 4.7-10.2-1.7q-2.5-5-7-6.7l.4-1.7c2.6 1.2 6.3.4 10.3-1 5.4 1.2 11.9 5.4 20.4 14.9a42 42 0 0 0-18.6-16.4q2.8-1.5 1.2-2.9" id="path41"/><path d="M384.6 528.3q2.2 13.5 9.4 24.9a61 61 0 0 1 6.8 20.1c-1.5 4.8-4.4 8.5-2.4-1.5a55 55 0 0 0-9-21.8 45 45 0 0 1-6.5-18.2c-1-5 2-8.2 2.6-7 .3.6-1.3 2-1 3.5" id="path42"/><path d="M323.3 558a80 80 0 0 0 13-11c1.9-2.1 3.9-3.5 6.5 0 6.4-8.7 10.9-12.2 10.8-4.8 4-8 17.8-7.5 4.7 4.4 7.9 2.8-4.4 8.7-9 8.9 5.4 3.8-3.7 10.6-13.9 9.4l-6.4-4.4c13.6-3.8 21.3-10.7 29-17.5a72 72 0 0 1-32 16.2z" id="path43"/><path d="M349.6 561c7.6-1.5 22.8 8 16.3 12.4 5 3.3 10.5 6.6 5.5 10 3.9 9-2.6 12-6.4 2.4-4.3 7.3-10.8-1.8-9.6-7-3.3 10.9-11.3-4-13.4-9.2-.7 6-2.7-2.3-4.2-3.5 4 0 5.8.7 8.9-1.6 9.5 3.3 17 11.3 23 22.3-10.7-20.3-16.2-21.5-21.3-24 .1-.5 1.1-1.2 1.2-1.7" id="path44"/><path d="m347.1 540.5 1.6-1.9c-2.3-2.5-6-1.5-10.2 1a269 269 0 0 1-20.3 17.8l2.6.4a309 309 0 0 0 19.2-16.6c2.7-1.6 5.2-2.3 7.1-.7" id="path45"/></g><path fill="url(#b)" d="M337.6 539.2a17 17 0 0 0-13.2 1c-7 4.5-11.7 9.6-15.5 15l8.4 2a142 142 0 0 0 20.3-18" id="path46"/><path fill="#fd0" d="M329.7 538.2q-2.6.2-5.4 1.5a56 56 0 0 0-16.5 15.3h-2.1q6-9.4 15.9-16c4.8-2.7 8-2.6 8.1-.8" id="path47"/><path fill="#fd0" d="m384.1 547.4 3.5 5.4a10 10 0 0 1-7 2.4c-3.4-.4-2.8-2.4-1-3.4q5.1.2 4.5-4.4" id="path48"/></g><g transform="translate(171.4 -64.5)scale(.86592)" id="g52"><path fill="url(#h)" d="M302.2 577c18.8 2.8 25.6 5 25.7 6.9 0 4.3-17.2-2.7-25.7-7" id="path49"/><path fill="#fd0" d="M257.9 570.6c9.2-9.2 23.6-11.4 37.6-11.7 15.2 0 31.2 3.5 40.5 13 1.7 3.2 2.7-.1 1.8-1.4q-13.5-13.6-42.2-14.7c-22.8 1-33.7 6.2-39.1 13.2-1.1 1.2-.5 5.8 1.4 1.6" id="path50"/><path fill="url(#j)" d="M259 570.5a57 57 0 0 1 37.4-10.4c14.3.5 27.3 3 37.8 11.4 4.4 3.6-5 5-2.7 9.7-8.8-6.3-21.5-7.3-34.6-7.6a59 59 0 0 0-34.7 8c.8-5.2-6.3-5.5-3.1-11.1" id="path51"/><path fill="#fd0" d="m294 576.9 2.6.4c-8.7 5.8-18 11.9-30.4 10.1-7.4-2.2-4-3.9-2.8-5.6a67 67 0 0 1 32.5-7.6c12 .1 23.7 1.2 34.9 7.3 1.1 2.2 4.3 4.7-2.3 6a47 47 0 0 1-31.8-10.6l2.5-.2c11.9 9.6 32.4 10.8 31.1 7.7 3.2.7-11.2-8.8-33.2-8-17.3.2-34.2 5.3-32.7 8.3 4.5 4.5 19.6-2 29.6-7.8" id="path52"/></g></g><g id="k" transform="translate(171.4 -64.5)scale(.86592)"><use xlink:href="#m" transform="rotate(21 322.5 377.4)" height="341.78" width="282.094" y="0" x="0" id="use53"/><g id="m" transform="rotate(-20.6 321.4 378.8)" clip-rule="evenodd"><path d="m410.5 295.3-.2-2.2q-2.1-.4-4.2-.4l-.2-2.3c-6.5-.5-12.4 1.9-18.8 2.3l1 2.3c2.8-.4 5.3-1.3 8.2-1.9l1 2.4c2.4-.3 7.1-1 9.7-.5h-.6c-1.4 0-5 .6-6.4.7l1 2.4q6.8-1.4 13.1.2l-.2-2.5zm-14.2-2.2c2-.5 6.4-.8 8.5-.5zm17.6 11.3 2.5.3-.3-2.4c-6.9-.7-15.2.2-21.5.5l1 2.4c5.5-.5 13.5-1.2 18.3-.8m-16.3-5.5 1 2.4a53 53 0 0 1 15.4-.1l1.3.1-.2-2.3a93 93 0 0 0-17.5 0" id="path53"/><path d="m397.5 305.6.4 1.7c4.3-.5 12-.3 17 .6l-.1-1.6c-5.5-.7-11.6-1-17.3-.7z" stroke="#000" stroke-width=".80839" fill="#fd0" id="path54"/><path d="m396.2 302.7.4.9c4.3-.6 14.4-1.5 19.5-.6v-.9c-5.9-.6-14.1.2-19.9.6" transform="translate(-.6 .8)" fill="#fd0" id="path55"/><path fill="#fd0" d="m398.7 299.6.4 1c4.3-.6 10.3-1 15.4 0v-1c-4.9-.7-11-.3-15.8 0" id="path56"/><path fill="#fd0" d="m401 296.3.4 1c4.9-.8 7-.8 12 0l-.2-.9c-4.9-.7-7-1-12.1 0" id="path57"/><path d="m397.9 293 .3.8c4.1-.4 6.6-.7 12 0v-.9c-3.6-.7-9.6-.1-12.3 0" transform="translate(-.6 .8)" fill="#fd0" id="path58"/><path d="m388.6 292.5.4.9c4.4-.6 11.8-3.2 17-2.2l-.2-1c-5.5-.5-9.8 1.5-17.2 2.3" transform="translate(-.6 .8)" fill="#fd0" id="path59"/><path d="m384.6 292.2.5 1.2a48 48 0 0 1 20.4-4.4l-.5-1.6a50 50 0 0 0-20.4 4.8z" stroke="#000" stroke-width=".80839" fill="#fd0" id="path60"/></g><g clip-rule="evenodd" id="g74"><path d="m342 283.4.3-.7.6-.9.7-.9.8-.9.9-.9 2.5-2.4.6 1.5v-.3l.4-1 .4-1 .6-1 .6-1 .7-.8.8-.8 1-.8 2.6-2 .8 2.8.1 1v.9l.9-.6 1-.6 1-.5 1.3-.3 1.2-.3 1.4-.1h3.1l3.6.4-1.3 3.1-.6 1.3-.6 1.2-.7 1-.8 1-.8.8-.8.7-.3.2.7.1 1 .2 1 .3 2.8.9-1.5 2.3-.5.6-.5.6-.5.6-.5.4-.6.5-.5.4-.5.3-.6.3-.6.2-.5.2-.6.2-.6.1-.5.1-2.6 2-1.3 1-1.3.7-1.2.5-1.1.4-1.1.3 3.6 1-3.5 2.8-1.3 1-1.3.6-1.2.6-1.1.4-1.1.3-1 .1h-3.8l-.7-.1h-.7l-.7-.1h-.6l-1.6.1-1-2-.3-1.2-.4-1-.2-1.1-.2-1-.1-1v-1l.2-1 .2-.9.4-1 .4-.8.6-1 .7-.8.8-.9.9-1zm7.2 4-.1-.4-.2.5z" id="path61"/><path d="m357.7 309 .3-.7.5-1 .7-1.1.8-1 .8-.9 1-.8 1-.8 1.2-.7 1.2-.6 3.2-1.4v1-.1l.7-1 .8-1 .9-.9 1-.8 1-.8 1.1-.7 1.2-.6 3.2-1.5.2 2.8.5-.8.7-.9.8-.8.8-.8 1-.7 1-.6 1-.5 1-.4 3-1 .2 2.8v2l-.1.5.7-.7 1-.6 1-.5 1-.3 1.1-.2 1.2-.1h1.2l1.3.3 1.4.4 1.4.5 1.4.6 3.3 1.6-2.3 2.5-1 1-1 .8-1 .8-1 .6-1.1.5-1.1.4h-.2l.6.4.5.3.5.4.5.3.5.4 1.9 1.6-2.2 1.6-.8.4-.7.4-.7.4-.7.3-.7.3-.7.2-.7.2-.8.1-.7.2h-3.8.2l-2.5 1.7-.7.5-.8.4-.7.4-.7.3-.7.3-.7.3-.7.3-.7.2-.7.1-.6.2h-.7l-.6.1H376l2 1.6-2.5 1.6-.8.5-.7.4-.7.4-.8.3-.7.3-.7.3-.7.3-.6.2-.7.1-.7.2h-.6l-.7.2h-.6l.5.3.5.3.5.3.5.4.5.4 1.8 1.6-2.2 1.5-.7.5-.7.4-.7.4-.7.3-.8.2-.7.3-.7.2-.7.1-.7.1h-.7l-.7.1h-2.1l-.7-.1-.7-.1-.6-.1-.7-.2-.7-.2-.6-.2-.7-.2-.6-.2-.7-.2-.6-.3-.6-.2-.7-.3-.6-.3-.6-.3-.6-.3-.7-.3-1.5-.7.2-2.3.1-1.4.3-1.3.3-1.2.3-1.2.5-1 .5-1.1.7-1 .7-1 .7-.7.9-.8.9-.7 1-.6 1-.5 1.2-.5zm1.6 10.6-.5-.4-.5-.3-.4-.3-.5-.3v-.1h-.1l-.5.8-.5.6zm8.3-7.4-.2-.3-1-.6v.2l-.6.8.6-.1zm8.6-6.3v-.6l-.5.7zm10.4-5-.6-.3-.4.4z" id="path62"/><g fill="#fd0" id="g72"><path d="M387.3 299.7c2.1-5.7 6.6-7.3 14.7-3-5 5.8-9.9 6.3-14.7 3" id="path63"/><path d="M397.8 306.1c-4.6-4.2-10.4-4.2-16.5-3 3.8-2.8 6.3-6.3 5.7-11.2q-9 2.4-9.3 13.4c6.5 3 13 6 20.1.8" id="path64"/><path d="M368.5 324.7c-4.6-4.3-10.4-4.2-16.5-3 3.8-2.9 6.2-6.4 5.6-11.2q-9 2.4-9.3 13.3c6.6 3.1 13.1 6 20.2.9" id="path65"/><path d="M377 295.8c.5 5-1.2 9.3-6.2 13 5-2.1 10-2.4 14.6 1.5-8 5.3-13.1 3.7-17.6.2-.3-6.8 2.3-12 9.2-14.7" id="path66"/><path d="M367 302.1q1 7.5-6.1 13c5-2.1 10-2.3 14.5 1.5-7.9 5.4-13 3.7-17.5.2-.3-6.8 2.3-11.9 9.2-14.7" id="path67"/><path d="M355.2 281.5c0-6 3.6-9.2 12.6-8-2.6 7.2-7 9.3-12.6 8" id="path68"/><path d="M367.2 283.8c-5.2-1.8-9-1.4-14.7 1.4 1.5-4.5 3.4-9.5 2.1-13.3-5 3.6-6.3 8.3-4 15.2 7.2.6 11.8 4 16.6-3.3" id="path69"/><path d="M347.3 279.2c1.7 4.5 1 6-1.1 11.2 4-2.6 7-2.2 12.6-.7-7 6-11 3-14.6 3.5-2.7-6.2-2.4-9 3-14" id="path70"/><path d="M341.4 285.9c1.7 4.4 1 6-1.1 11.2 4-2.6 7-2.3 12.6-.8-7 6-11 3-14.6 3.6-2.7-6.2-2.4-9 3-14" id="path71"/><path d="M328 308.6c1.8 4.4 1.1 6-1 11.2 4-2.6 7-2.2 12.6-.7-7 6-11 3-14.6 3.5-2.6-6.2-2.4-9 3-14" id="path72"/></g><path d="M328.4 307h.1l.8 2 .2.9.2.7.2.7v.7l.1.7v1.4l-.2.6-.1.7-.2.7-.3.7-.3.8v.1l.7-.2.7-.3.8-.1.8-.1h3.2l.9.2.9.2 1 .2.6.2 1.5 2.2-1 .8-1.4 1-1.2.6-1.1.5-1.1.4-1.1.3-1 .2h-2.8l-.8-.1h-.8l-.7-.1h-2.6l-.8-1.8-.4-1-.3-1-.3-1-.1-1-.1-1v-1l.1-.8.3-1 .3-.8.5-.9.5-.8.7-.9.8-.9.8-.9z" id="path73"/><path fill="#fd0" d="m339.3 319 .2.2c-6.9 5.8-10.9 2.9-14.5 3.4-2.7-6.2-2.4-9 3-14 1.8 4.4 1.1 6-1 11.2 4-2.6 6.9-2.2 12.3-.8" id="path74"/></g></g><g fill-rule="evenodd" clip-rule="evenodd" transform="translate(171.4 -64.5)scale(.86592)" id="g79"><path d="m234 335.7.2-.7v-.6l.2-.6.1-.6.1-.6.2-.6.1-.6.2-.6.1-.6.2-.6.1-.6.2-.5v-.2l-8-6.4 3.7-8.4 9.6 2.2.1-.2.2-.4.2-.4.3-.4.2-.3.2-.4.2-.4.3-.4-6.4-8.4 5.8-7.2 9 4.8.4-.4.4-.4.4-.4.4-.4.5-.5.4-.4.4-.4.5-.4.4-.4.2-.1-4.6-8 6.6-6.4 9.4 6.4.4-.2.9-.5 1-.4.8-.5 1-.4.9-.4 1-.4.9-.4 1-.4 1-.4.9-.3 1-.3 1-.4 1-.2 1-.3 1-.3 1-.2 1-.3 1-.2 1-.2 1-.2 1.1-.2 1-.1 1.1-.1 1-.2h1.2l1-.1h1.1l1-.1h6.3l1 .1 1 .1 1 .1 1 .1 1 .2 1 .1 1 .2 1 .2 1 .2 1 .2 1 .2.9.2 1 .3.9.3 1 .2.9.3.9.3 1 .4.8.3 1 .4.8.3 1 .4.8.4 1 .4.8.4.8.5.4.1 9.8-6.7 6.6 6.5-4.7 8 .2.1.4.4.5.4.4.4.5.4.4.4.4.4.5.4.4.4.4.4 9-4.8 5.8 7.2-6.2 8.1.2.3.3.4.2.4.2.3.2.4.3.4.2.3.1.3 9.9-2.4 3.7 8.5-8 6.3v.2l.3.7.2.6.2.7.2.6.1.7.2.6.2.7.1.6.2.7.1.6.1.7.2.7v.6l.2.7.1.7.1.6.1.7v.7l.2.7v.7l.1.7v.6l.1.7v1.4l.1.7v5.4l-.3 3.2-.4 3.2-.6 3.2-.7 3-.8 3-1 3-1.2 3-1.3 2.8-1.4 2.7-1.5 2.7-1.7 2.6-1.8 2.5-1.9 2.4-2 2.3-2.1 2.3-2.2 2-2.3 2-2.5 2-2.5 1.8-2.6 1.6-2.6 1.6-2.8 1.4-2.8 1.3-3 1.1-2.9 1-3 .9-3.1.7-3.1.6-3.2.4-3.3.2h-6.5l-3.3-.2-3.2-.4-3.1-.6-3-.7-3.1-.9-3-1-2.9-1.1-2.8-1.3-2.8-1.4-2.6-1.6-2.6-1.6-2.5-1.8-2.4-2-2.4-2-2.2-2-2.1-2.3-2-2.3-2-2.4-1.7-2.5-1.7-2.6-1.5-2.7-1.4-2.7-1.3-2.9-1.1-2.9-1-3-1-3-.6-3-.6-3.2-.4-3.2-.2-3.2-.1-3.3v-3.8l.1-.6v-.7l.1-.6v-.6l.1-.6.1-.7v-.6l.2-.6v-.6l.2-.6zm63 55.2h-2.2l-2.3-.2-2.2-.3-2.2-.4-2.2-.5-2-.6-2.2-.7-2-.8-2-.9-1.9-1-1.9-1-1.8-1.2-1.7-1.3-1.7-1.3-1.6-1.4-1.6-1.5-1.4-1.5-1.4-1.7-1.4-1.6-1.2-1.8-1.2-1.8-1-1.9-1-1.9-1-2-.7-2-.7-2-.6-2.2-.5-2.1-.4-2.2-.3-2.2-.2-2.3V344l.2-2.2.3-2.3.4-2.2.5-2.1.6-2.1.7-2.1.8-2 .9-2 1-2 1-1.8 1.2-1.8 1.2-1.7 1.4-1.7 1.4-1.7 1.4-1.5 1.6-1.5 1.6-1.4 1.7-1.3 1.7-1.3 1.8-1.1 2-1 1.8-1 2-1 2-.8 2.1-.7 2.1-.6 2.2-.5 2.2-.4 2.2-.3 2.3-.1h4.5l2.3.1 2.2.3 2.2.4 2.2.5 2 .6 2.2.7 2 .8 2 1 1.9 1 1.8 1 1.9 1.1 1.7 1.3 1.7 1.3 1.6 1.4 1.6 1.5 1.4 1.5 1.4 1.7 1.4 1.7 1.2 1.7 1.2 1.8 1 1.9 1 1.9 1 2 .7 2 .7 2 .6 2.2.5 2.1.4 2.2.3 2.3.2 2.2v4.6l-.2 2.3-.3 2.2-.4 2.2-.5 2.1-.6 2.1-.7 2.1-.8 2-.9 2-1 2-1 1.8-1.2 1.8-1.2 1.8-1.4 1.7-1.4 1.6-1.4 1.5-1.6 1.5-1.6 1.4-1.7 1.3-1.7 1.3-1.9 1.1-1.8 1.1-2 1-2 .9-2 .8-2 .7-2.1.6-2.2.5-2.2.4-2.2.3-2.3.2z" id="path75"/><path fill="#cec8ea" d="m239.5 370.6-1-2.9-1-2.8-1-3-.6-3-.6-3.1-.4-3.1-.2-3.2V342l.1-.6v-.7l.1-.6v-.6l.1-.6.1-.6.1-.6v-.6l.2-.6v-.6l.2-.6v-.6l.2-.6.1-.6.2-.6v-.6l.2-.5.2-.6.1-.6.2-.6.1-.6.2-.5.2-.6.1-.5-8-6.3 2.8-6.3 9.5 2.2.3-.4.2-.4.2-.4.2-.4.2-.3.2-.4.2-.4.3-.4.2-.3.2-.4.2-.4.4-.5-6.3-8.2 4.3-5.5 9 4.8.2-.3.4-.4.4-.5.4-.4.4-.4.4-.4.5-.4.4-.4.4-.4.4-.4.5-.4.4-.3.7-.6-4.7-8 5-4.8 9.1 6.2.3-.1.9-.5.9-.5.9-.4.8-.5 1-.4.9-.4.9-.4 1-.4.9-.3 1-.4.9-.3 1-.4.9-.3 1-.3 1-.2 1-.3 1-.2.9-.3 1-.2 1-.2 1-.2 1-.1 1-.2h1.1l1-.2 1-.1h1.1l1-.1h1.1l1-.1h4.2l1 .1h1l1 .2h.9l1 .2 1 .1 1 .2.9.1 1 .2.9.2 1 .2.9.2 1 .2.9.3.9.3.9.2 1 .3.8.3 1 .4.8.3.9.3.9.4.9.3.8.4.9.4.8.4.9.5.8.4.3.1 9.6-6.5 4.9 4.8-4.7 8.1.6.6.5.4.4.3.4.4.5.4.4.4.4.4.5.4.4.3.4.4.4.5.7.6 9-4.7 4.3 5.5-6.1 8 .3.4.2.4.2.3.2.4.3.3.2.4.2.4.2.3.2.4.3.3.2.4.2.4 9.7-2.3 2.9 6.3-8 6.3.2.6.2.6.2.6.2.6.2.7.2.6.1.6.2.7.2.6.1.6.2.7v.6l.2.7.1.6.2.7v.6l.2.7v.7l.2.6v.7l.1.7v.6l.2.7v1.3l.1.7v6.6l-.2 3.2-.4 3.1-.6 3-.7 3-.8 3-1 3-1.1 2.8-1.3 2.8-1.4 2.6-1.5 2.7-1.6 2.5-1.7 2.4-1.9 2.4-2 2.3-2 2.1-2.2 2.1-2.3 2-2.3 1.8-2.5 1.8-2.5 1.6-2.6 1.5-2.7 1.4-2.8 1.2-2.8 1.2-3 1-2.9.8-3 .7-3 .5-3.2.4-3.1.3h-6.4l-3.2-.3-3.1-.4-3.1-.5-3-.7-3-.9-2.9-1-2.8-1-2.8-1.3-2.7-1.4-2.6-1.5-2.5-1.6-2.5-1.8-2.3-1.8-2.3-2-2.2-2-2-2.2-2-2.3-1.9-2.4-1.7-2.4-1.6-2.5-1.5-2.7-1.4-2.6zm57.6 20.3h-2.3l-2.3-.2-2.2-.3-2.2-.4-2.2-.5-2-.6-2.2-.7-2-.8-2-.9-1.9-1-1.9-1-1.8-1.2-1.7-1.3-1.7-1.3-1.6-1.4-1.6-1.5-1.4-1.5-1.4-1.7-1.4-1.6-1.2-1.8-1.2-1.8-1-1.9-1-1.9-1-2-.7-2-.7-2-.6-2.2-.5-2.1-.4-2.2-.3-2.2-.2-2.3V344l.2-2.2.3-2.3.4-2.2.5-2.1.6-2.1.7-2.1.8-2 .9-2 1-2 1-1.8 1.2-1.8 1.2-1.7 1.4-1.7 1.4-1.7 1.4-1.5 1.6-1.5 1.6-1.4 1.7-1.3 1.7-1.3 1.8-1.1 2-1 1.8-1 2-1 2-.8 2.1-.7 2.1-.6 2.2-.5 2.2-.4 2.2-.3 2.3-.1h4.5l2.3.1 2.2.3 2.2.4 2.2.5 2 .6 2.2.7 2 .8 2 1 1.9 1 1.8 1 1.9 1.1 1.7 1.3 1.7 1.3 1.6 1.4 1.6 1.5 1.4 1.5 1.4 1.7 1.4 1.7 1.2 1.7 1.2 1.8 1 1.9 1 1.9 1 2 .7 2 .7 2 .6 2.2.5 2.1.4 2.2.3 2.3.2 2.2v4.6l-.2 2.3-.3 2.2-.4 2.2-.5 2.1-.6 2.1-.7 2.1-.8 2-.9 2-1 2-1 1.8-1.2 1.8-1.2 1.8-1.4 1.7-1.4 1.6-1.4 1.5-1.6 1.5-1.6 1.4-1.7 1.3-1.7 1.3-1.9 1.1-1.8 1.1-2 1-2 .9-2 .8-2 .7-2.1.6-2.2.5-2.2.4-2.2.3-2.3.1z" id="path76"/><path d="m297 398.2-2.6-.1-2.6-.2-2.6-.3-2.6-.5-2.5-.6-2.4-.7-2.4-.8-2.4-1-2.3-1-2.2-1.1-2.2-1.3-2.1-1.3-2-1.5-2-1.5-1.9-1.6-1.8-1.8-1.7-1.8-1.6-1.9-1.6-1.9-1.4-2-1.4-2.1-1.2-2.2-1.2-2.2-1-2.3-1-2.4-.7-2.4-.7-2.5-.6-2.5-.5-2.5-.3-2.6-.2-2.6v-5.4l.2-2.6.3-2.6.5-2.5.6-2.5.7-2.5.8-2.4.9-2.3 1-2.3 1.2-2.3 1.2-2.1 1.4-2.1 1.4-2 1.6-2 1.6-2 1.7-1.7 1.8-1.7 2-1.7 1.9-1.5 2-1.5 2.1-1.3 2.2-1.3 2.2-1.1 2.3-1 2.4-1 2.4-.8 2.4-.7 2.5-.6 2.6-.4 2.6-.4 2.6-.2h5.3l2.6.2 2.6.4 2.6.4 2.5.6 2.4.7 2.4.8 2.4 1 2.3 1 2.2 1.1 2.2 1.3 2.1 1.3 2 1.5 2 1.5 1.9 1.7 1.8 1.7 1.7 1.8 1.6 1.9 1.6 2 1.4 2 1.4 2 1.2 2.2 1.2 2.3 1 2.3 1 2.3.7 2.4.7 2.5.6 2.5.5 2.5.3 2.6.2 2.6v5.4l-.2 2.6-.3 2.6-.5 2.5-.6 2.5-.7 2.5-.8 2.4-.9 2.4-1 2.2-1.2 2.3-1.2 2.2-1.4 2-1.4 2-1.6 2-1.6 2-1.7 1.7-1.8 1.7-2 1.7-1.9 1.5-2 1.5-2.1 1.3-2.2 1.3-2.2 1.1-2.3 1-2.4 1-2.4.8-2.4.7-2.5.6-2.6.4-2.6.4-2.6.2zm0-10.4h-2l-2.2-.2-2-.3-2-.4-2.1-.4-2-.6-1.9-.6-1.9-.8-1.8-.8-1.8-1-1.7-1-1.7-1-1.6-1.2-1.6-1.2-1.5-1.3-1.5-1.4-1.3-1.4-1.3-1.5-1.3-1.6-1.1-1.6-1.1-1.7-1-1.7-1-1.8-.8-1.9-.7-1.9-.7-1.9-.5-2-.5-2-.4-2-.2-2-.2-2.2v-4.2l.2-2.1.2-2 .4-2.1.5-2 .5-2 .7-2 .7-1.8.9-1.8.9-1.8 1-1.8 1-1.7 1.2-1.6 1.3-1.5 1.3-1.6 1.3-1.4 1.5-1.4 1.5-1.3 1.6-1.2 1.6-1.2 1.7-1 1.7-1 1.8-1 1.8-.8 2-.7 1.8-.7 2-.6 2-.4 2-.4 2.1-.3 2.1-.1h4.2l2.2.1 2 .3 2 .4 2 .4 2 .6 2 .7 1.9.7 1.8.8 1.8 1 1.7 1 1.7 1 1.6 1.2 1.6 1.2 1.5 1.3 1.5 1.4 1.3 1.4 1.3 1.6 1.3 1.5 1.1 1.6 1.1 1.7 1 1.8 1 1.8.8 1.8.7 1.9.7 1.9.5 2 .5 2 .3 2 .3 2 .2 2.2v4.2l-.2 2.1-.3 2.1-.3 2-.5 2-.5 2-.7 2-.7 1.8-.9 1.9-.9 1.8-1 1.7-1 1.7-1.2 1.6-1.3 1.6-1.3 1.5-1.3 1.4-1.5 1.4-1.5 1.3-1.6 1.2-1.6 1.2-1.7 1-1.7 1-1.8 1-1.8.8-2 .8-1.8.6-2 .6-2 .4-2 .4-2.1.3-2.1.1z" id="path77"/><path d="M297 290.3a56.1 56.1 0 0 1 0 112 56.1 56.1 0 0 1 0-112m0 2.6a53.5 53.5 0 0 1 0 106.8 53.5 53.5 0 0 1 0-106.8" id="path78"/><path fill="#cec8ea" d="M297 396.3a50 50 0 0 1 0-100 50 50 0 0 1 0 100m0-6.9a43.2 43.2 0 0 1 0-86.2 43.2 43.2 0 0 1 0 86.2" id="path79"/></g><g fill-rule="evenodd" transform="translate(306.5 152.8)scale(.86592)" id="g83"><path d="m101 9.8-.2-1.2h1.2l38.2-.4 38.4-.5h1.2l-.1 1.2q-.4 4.2.5 5 .8.6 2 .6l1.2.2-.4 1.2-14 52.4-.2.6-.7.1c-7 1.2-10.5 0-13.4-1-2-.8-3.7-1.4-6.2-.4q.4 1.4-.7 2.4c-1 1-3.3 1.4-5.6 1.4s-4.5-.6-5.4-1.6q-1-.9-.6-2.1-2.4-.4-5.6.8c-3.8 1.2-8.7 2.8-16.8 1.3l-.6-.1-.2-.6-7.2-25.4L98 16.4l-.3-1.1 1.2-.2q1.4-.2 2-1.3.5-1.4.2-4" id="path80"/><g clip-rule="evenodd" transform="translate(-156 -250.9)" id="g82"><path id="polygon80" d="m334.9 263.4-.4 1.8-.5 1.7-.4 1.7-.4 1.8-.4 1.7-.4 1.8-.5 1.7-.4 1.8-.4 1.7-.4 1.8-.4 1.7-.4 1.8-.4 1.7-.5 1.8-.4 1.7-.4 1.8-.4 1.7-.4 1.8-.4 1.7-.4 1.8-.4 1.7-.5 1.8-.4 1.7-.4 1.7-.4 1.8-.4 1.7-.5 1.8-.4 1.7-.4 1.8-.6 2.3-1.6.5-1 .2-.9.1-1 .1h-.8l-.9-.1-.8-.1-.8-.1-.7-.2-.8-.2-.7-.3-.6-.3-.7-.2-.6-.3-.6-.3-.7-.2-.5-.3-.6-.2-.6-.2-.6-.1-.6-.1-.5-.1h-1.2l-.7.1-.6.1-.7.2-.7.3-.8.4-.8.5-.8.5-.7.6-2-.9v-7.4l-.1-1.8v-9.5l-.1-1.8v-9.4l-.1-1.9v-9.4l-.1-1.9v-9.4l-.1-1.9v-6.3l2.1-1.2 1.6-.8 1.5-.6 1.5-.5 1.4-.4 1.4-.3 1.4-.2 1.3-.2h1.3l1.3.1 1.2.1 1.2.2 1.2.3 1.2.3 1.1.3 1.1.4 1.1.4 1 .5 1.1.4 1 .5 1.1.5 1 .5 1 .4 1 .5 1.1.4 1 .4 1.1.4 1 .3 1.1.3 1.1.2 1.1.2 2.3.2-.7 3z"/><path id="polygon81" d="m257.9 264.3.5 1.7.4 1.7.5 1.8.4 1.7.5 1.7.4 1.8.5 1.7.4 1.7.5 1.8.4 1.7.5 1.7.4 1.8.4 1.7.5 1.7.4 1.8.5 1.7.4 1.7.5 1.8.4 1.7.4 1.7.5 1.8.4 1.7.5 1.7.4 1.8.5 1.7.4 1.7.5 1.8.5 1.7.4 1.8.6 2.3 1.7.5 1.1.2 1 .2h1l1 .1.9-.1.9-.1.8-.2.8-.2.8-.2.8-.3.7-.3.7-.3.7-.3.7-.3.6-.3.7-.2.6-.3.6-.2.6-.2.7-.1.6-.1.6-.1h.7l.6.1.7.1.8.2.7.3.8.3.9.5.9.6 1.6 1.1 1.1-.9-.1-2.3v-5.7l-.1-1.8v-5.7l-.1-1.9v-5.6l-.1-1.9v-5.6l-.1-1.9v-5.7l-.1-1.9v-5.6l-.1-1.9v-5.6l-.1-1.9-.1-6.3-2.2-1.2-1.6-.9-1.6-.6-1.5-.6-1.5-.4-1.5-.3-1.4-.1-1.3-.1h-1.3l-1.3.2-1.2.2-1.2.3-1.2.4-1.1.4-1.1.4-1.1.5-1.1.6-1.1.5-1 .6-1 .5-1.1.6-1 .5-1.1.5-1.1.5-1 .4-1.1.4-1.1.4-1.2.2-1.2.3-1.2.1-1.2.1-2.8-.1.9 3.1z"/><path fill="url(#g)" d="m296.9 304.6-.6 10.4c-8.7-6.2-15 5.1-23.8 1-4.5-18.5-10-36.9-14.4-55.3 14.4.4 20.4-14.9 37.9-5.6l.6 9.8h.6l.5-9.4c15.8-9.5 26 3.5 37 4.4l-13.5 55.8c-12 2.6-12.5-7.8-23.7.2z" id="path81"/><path d="M258 264.4a3.4 3.4 0 0 1-3 2.6l15 52.7c14 2.5 18.4-4.5 23.8-1.6-4.1 4 13.1 4.3 9-.1 7.3-3.6 8 3.1 21 .9l14.2-52.4c-1.2-.2-2.7-.3-3.3-2.5l-12.5 52.4-1.6.5c-3.3.7-6 .4-9-.9q-2-.7-3.7-1.5c-4-1.3-7 .2-10 2.8q-2.4-1.8-5-2.8a9 9 0 0 0-6 .3q-3 1.4-6.2 2.5-3.7 1-7.5 0l-1.7-.4c-4.7-17.5-8.9-35-13.5-52.5" id="path82"/></g><path d="M53.7 72.1h174.6v182.5q-.6 12-6.5 18.6-6.3 7.2-17 8.6h-43.4c-4.5.1-8.1 2.1-11.2 4.8-3.2 2.8-5.9 6.4-8.4 9.7l-.8 1-.8-1c-2.5-3.3-5.1-6.9-8.3-9.7-3-2.7-6.7-4.7-11.3-4.8H77.3c-7-1-13-3.8-17-8.6a30 30 0 0 1-6.6-18.6z" id="path83"/></g><g clip-rule="evenodd" transform="translate(171.4 -64.5)scale(.86592)" id="g198"><path fill-rule="evenodd" fill="#fd0" d="M210.8 324h172.6v181.4c-.7 16-9.6 24.4-22.7 26.3h-43.3c-9.6.3-15.3 8.3-20.3 14.9-5.1-6.6-10.8-14.6-20.4-15h-43.2c-13.2-1.8-22.1-10.2-22.7-26.2z" id="path84"/><path d="M217.6 330.4h159v170.2a38 38 0 0 1-.5 9.6c-1.5 9.5-7 15.3-19.8 14.6h-40a22 22 0 0 0-19.2 10.6 23 23 0 0 0-20-10.6H238c-12.7.7-18.3-5-19.8-14.6q-.8-4.2-.5-9.7z" id="path85"/><path fill="#009640" d="M375.6 501v5.5l-.1 1.1-.7 4.1-.4 1.6-.5 1.5-.6 1.4-.7 1.2-.8 1.2-1 1-1 1-.6.4-.6.4-.6.4-.7.3-.7.3-.7.3-.8.2-.8.3-1.7.3-2 .2-2 .1h-42.9a33 33 0 0 0-6.7 1l-4 1.8-1.4.7-1.9 1.3-1.2 1-1.2 1.2-2.2 2.8a22 22 0 0 0-2.9-3.4l-1.2-1-1.3-1-1.4-1a31 31 0 0 0-6.3-2.5l-4.2-.8-2.6-.1h-43.6l-2-.3-1.7-.3-.8-.3-.8-.2-.7-.3-.7-.3-.7-.3-.6-.4-.6-.4-.6-.4-.5-.5-.5-.5-1-1-.8-1.2-.7-1.2-.6-1.4-.5-1.5-.4-1.6a47 47 0 0 1-.8-10.7V331.4h157z" id="path86"/><path id="polygon86" d="m248.8 500.1-.4-.4-.3-.3-.2.1-2.2-1-1.1-.6-1-.7-.9-.8-.7-1.2-.2-1.5.2-.6-.2-.1-.7-.5-.6-.6-.4-.6-.6-.7-.6-1-.3-1.1-.1-1.1.2-1.1.4-1.1.6-.9.3-.3-.8-.9-.2-1.3-.1-.8-.1-.8v-1.5l.1-.7.2-.7.2-.7.3-.6.5-.7.4-.5.6-.5.7-.4.4-.2-.1-.2-.1-.9v-1.7l.1-.9.3-.8.3-.8.5-.7.5-.7.6-.6.7-.5.7-.5.8-.3.8-.3.4-.1.1-.6.2-.7.3-.7.3-.6.4-.7.4-.6.6-.6.7-.5.8-.4.8-.2.9-.2h.7l.2-.5.4-.8.3-.7.5-.7.4-.7.5-.6.6-.5.6-.5.7-.4.7-.3.7-.2.8-.2h.8l1.1.1.4-.5.4-.6.5-.6.5-.5.5-.5.6-.4.5-.4.6-.3.7-.3.7-.1h.8l.8.2.3.1.2-.3.5-.7.5-.6.5-.6.6-.5.6-.5.7-.5.7-.4.7-.3.7-.3.7-.2.8-.1.8-.1h.9v-.1l.3-.7.6-.9 1.3-.7 1.3.1.6-.7.6-.1v-1l1.9-.4.3-.1.3-.1.3-.2.3-.1.1-.1.2-.3.1-1 .5-1.1.7-.8.8-.6.9-.4 2.5-.7.2.2.2-.1v-.1l.2-.8.3-.9.6-.8.7-.6.8-.5.8-.3 3.1-.7.3 1.4v-.1l1.3-1.2-.2-1.3-.3-1.3-.2-1.3-.2-1.3-.2-1.2v-2.4l.1-1.2.3-1.1.5-1.2.9-1 1.2-.7 1.2-.5 1-.1-.1-.1-.1-.6v-.5l-.1-.6-.1-.5v-.6l-.1-.6v-.5l-.1-.6v-2.8l.1-.6v-.5l.1-.6.2-1.1-.3.2-1 .5-1 .4-1 .1-1.1-.5-.2-.3-.9.2-.8.1-.7.2-.6.1-.6.1h-.7l-1-.5-.4-1 .1-.8.2-.6.2-.6.3-.6.4-.8v-.2l-.5-.1-.6-1.6.4-1.2.6-1 .8-1 .9-1 .5-.5v-.4l.1-.6.1-.6-.2-.2-.2-.3-.3-.2-.3-.2-.3-.3-.4-.1-.3-.2-.4-.2-.4-.2-.3-.1-.5-.2-.4-.1-.4-.1-.5-.1-.4-.1-6.4-1.5 7.5-1.8 1.3-.3 1.1-.2.9-.1.8-.1.7.1.7.2.5.2.5.3.3.2.3.3h.1l.3-.3-.2-.1-.4-.3-.4-.2-.4-.3-.4-.3-.4-.4-.3-.3-.4-.3-.3-.3-.4-.4-.3-.3-.2-.3-.5-.4-.4-1.3.8-1 .6-.3-5.7-2.5 7.2-.6 1.3-.1h1.1l1-.1h.9l.8-.1h.8l.7.1h.2l-.7-1-.6-1.1-.5-1-.5-1-.3-.8-.3-.8-.2-.8-.2-.6-.1-.5v-.1l-.3.3-.4.4-.8.7-2 1.9-1-2.9-.3-.8-.2-.9v-1.1l.6-1.1 1.1-.8 1.3-.2h1l.4-.1.9-.2h.9l.9.2.9.5.9.7.7.8.6-.2h1.2l1.1.5.8.8.6.9.4 1.2.3.6.2-.3 1.3-.5.6-.1v-.1l-.1-.7.1-.7.4-.8.8-.4.7-.1-.3-1-.3-1-.2-.9.1-.9.5-1 .5-.2.1-.5v-.3l.1-1.4 1.2-.2.2-.1.5-.1.8.2.6.7.1.2.6.2.6.6.3.5.3.5.2.4.2.4.2.5.2.3.2.1.1.1.9-.3 1 .6.1.1-.1-.1v-2.2l.2-.9.8-2.6 2.3 1.6.7.7.7.6.5.8.4.5.3-.3.4-.4.4-.3.4-.2.3-.3.3-.2.2-.2.3-.2.2-.3.2-.4.2-.4 1.7-4.9 1.5 4.8.1.6.2.5.2.5.1.3v-.1l.3-.7.2-.7.3-.7.4-.8.3-.7.4-.8.3-.7 3.6-6.9-.5 7.8v2.4l.1.6.1.7.1.6.1.6.1.7v.7l.6-.5.6-.4.7-.4.7-.3 2.1-.5.5 2 .1.6v.5l.8-.6.9-.6.9-.7 1-.6 1-.6 1-.6 6-3.4-3.3 5.3-.3.5-.3.4-.3.5-.3.5-.6 1-.3.5-.3.5-.3.4-.2.4 2-.3v3.9l-.2.7-.1.3 2.1-.8-1 2.7.5-.2.7-.1h3.8l.9.1 2.9.3-1 2.4-.3.7-.3.6-.4.6-.3.6-.5.6-.4.6-.7.8v.2l.9.6.7.4.6.5.5.5.6.5.5.6.4.5.4.6.4.7.2.6.3.7.1.8.1.7v.8l-.1.8-.8 4.5-2.1-3.5h-.1v-.1h-.1l-.2-.1h-.5l.2.3.2.5.1.5.1.5.1.5v.9l.1.4v.4l.1.3.1.3v.3l.1.2.2.2 3 3.8-4.8-1.4.1.4.1.4.1.4.4 3.3-1.7-1v.1l-.1.7-.3.8-.5.6-.9.8.1.3.1.6v2.2l-.1.6-.1.5-.1.5-.1.5-.3 1.3-1.1.4v.8l-.1 1.4-.3.2.6 1.3-.4 1.3-.1.5-.2.5-.2.5-.2.5-.2.5-.2.5-.3.5-.2.4-.3.5-.3.4-.3.5-.4.4-.3.4-.4.4-2 1.9-.2.6-.4.8-.3.7-.4.8-.4.7-.4.6-.4.7-.5.6-.5.6-.5.6-.5.6-.6.6-.5.5-.6.5-.6.5-.6.5-.6.4-.6.5-1.8 1.2-.2.6-.5 1.1-.5 1.1-.6 1.1-.6 1-.7 1-.7.9-.7 1-.8.8-.9.9-.9.8-.9.7-.9.8-1 .6-1.1.7-1 .6-3.3 1.7-.3.5-.7.9-.7.8-.7.8-.8.7-.9.7-.9.6-2.8 1.5-1.4-1.9-.4.1-.4.1-.4.1-.4.1-.4.1h-.4l-.4.1-.3.1-.2.4-.4.4-.3.3-.8.7v1.1l-2 .3-.2.1-.1.1v.1l-1.6 1.1-.8.3-.7.2-.8.1-.7.1h-.9l-.8.1h-1.7l-.9.1h-.9l-.8.1-.7.1h-.5l-.6.6-.6.5-.5.5-.6.4-.7.4-.7.4-.7.4-.8.3-.8.2-.8.2-.9.1h-.9l-.9-.1-1-.1-1-.3-.6-.2-.5.7-1 .6-.6.3-.7.2-.6.2-.7.2-.6.1-.6.1H280l-.6-.1-.6-.1-.5-.1-.6-.2-.5-.2h-.1l-.2.3-1 .5-.4.3-.5.2-.4.2-.5.1-.4.2-.5.1-.4.1-.5.1h-.5l-.4.1h-.5l-.5-.1h-.4l-.5-.1-.5-.1-.3.2-.4.4-.5.3-.5.3-.4.3-.5.3-.5.2-.5.2-.5.2-.5.1-.5.1-.5.1h-.7l-.6.7-.7.6-.7.5-.8.4-.9.3-1 .2-.1.4-.6.8-.7.8-.8.5-.6.3v.3l-.2.7-.2.7-.3.7-.3.6-.4.6-.5.6-.1.9-.2.9-.4.8-.1.2v.1l.5 1 .3 1 .2.1.6.6 1-1.1 1.4-.9 1.9-.3 1.8.9 1 1.4.6 1.4 1.1 5.1-.6-.1.1.2-.3 1.4-.3.8-.3.7-.5.7-.5.6-.6.6-.7.5-2 1.1-1.1-.8-1.1.2-.8.1-.7.1h-.7l-.7-.1h-.6l-.7-.2-.5-.2-.6-.3-.5-.3z"/><path id="polygon87" d="m239.3 360-.3.5-.1.4-.1.5.1.5.1.5.3.4.3.4.3.3.4.2v.1l-.1.2-.4.6-.3.8-.1.8.2.9.4.7.7.7.7.5.8.3.8.1h.6l-.1.5.1.5.3.5.5.4.5.1h.3l-.1.1v.9l.3.5.5.4.4.1 87.7 125-.1.2v1.1l.2.5.3.4.4.4.4.3.5.3.5.1.5.1.6-.1.5-.1.5-.3.4-.3.4-.4.2-.4.2-.5.1-.6-.1-.5-.2-.6-.2-.4-.4-.4-.4-.3-.5-.3-.5-.1-.6-.1h-.1l-86.8-127.3-.1-.1-.5-.4-.4-.1.1-.3.1-.5-.1-.5-.3-.6-.5-.3-.1-.1.2-.7.1-.9-.1-.8-.2-.8-.5-.8-.6-.6-.7-.4-.7-.3h-.8l-.7.2-.2.1-.1-.3-.1-.4-.2-.5-.3-.4-.4-.3-.4-.2-.5-.1-.5-.1-.5.1-.5.1-.4.2-.3.3z"/><path d="m255 378-.1.5.4 1 .8.7 1 .4.8.1h1l1-.1 1-.4.8-.5.7-.6.4-.8v-.3h.1l.5-.1.5-.3.4-.3.3-.5.3-.5v-.6h.7l.5-.1.6-.1.5-.3.5-.2.5-.5.4-.6.1-.6.7-.1.7-.3.6-.2.6-.4.5-.4.5-.6.3-.8h1.5l.7-.2.6-.2.9-.5.6-.6.4-.8v-.9.1h.6l.9.2 1.6-.6 1.2-.4 1-.4.8-.4.7-.3.6-.4.5-.4.5-.6.2-.9-.3-.9-.5-.5-.4-.4-.5-.2-.5-.2-.5-.1-1-.3-.8.3-.4.1h-.5l-.5.1h-2.2l-.6-.2h-.6l-.6-.2-.7-.1-.7-.2-.4-.1-.1-1.2-.8-.9-1-.4-1-.1H269l-1.5-.2-1.5-.2-1.5-.2-1.4-.1-1.4-.1-1.2-.1h-3.2l-1 .2-.9.2-.8.4-.7.4-.6.7-.4.8v.6l-.2.5v.5l-.2.6v1.7l.1.6.2.5.1.5.2.5.3.5.2.5.4.5.3.5.1.1-.2.5-.4.4-.4.4-.4.2-.5.2-.7.2-3.2.2 2.2 3.5.3.4.3.5.3.5.3.5 1 1.7.5-.3.1.4.5.6zm-4 1 .4-.2-1-1.7-1.9-2.9-1.6-2.6-1.6 3-.3.4-.4.4-.4.3-.4.2-.5.1h-.6v-.2l-.6-1-.6-.9-.8-.7-.9-.7-1-.5-1-.4-1-.3-.5-.2h-1l-.8.3-.7.4-.6.6-.6.7-.5.8-.4.8-.5 1-.4 1-.5 1.2-.4 1.3-.5 1.3-.4 1.4-.4 1.5-.4 1.4-.5 1-.4 1-.3 1v1l.4 1 1 .7v.5l-.2.7-.1.6-.2.7-.1.6-.2.5-.2.6-.2.5-.2.5-.2.5-.2.4-.3.4-.2.3-.6.7-.2.9v2.1l.3.7.7.6.9.2.7-.2.6-.2.6-.4.6-.5.7-.6.7-.7.8-.9 1.2-1.2.2-.9.2-.4.6.3h1l.8-.4.7-.5.5-.5.4-.5.3-.6.3-.6v-.2l.8.1.7-.2.6-.3.5-.3.6-.5.4-.5.4-.5.5.2.7-.1.6-.3.5-.3.4-.4.4-.5.3-.5.2-.4.5.1h1.1l.5-.3.4-.3.4-.4h1.1l.8-.3.8-.6.7-.7.5-.8.4-.9.3-.9v-1l-.3-1-.7-.8-.5-.2-.1-.9-.3-.6z" id="path87"/><path d="m275.9 416.8-.5.6-.2.5v1.7l-2.9.2h-6.7l-1.2-.2-1.3-.1-1.2-.2-1.1-.2-1.1-.2-1.1-.3-1.1-.3-1-.3-1-.4-1-.4-1-.4-.8-.5-1-.5-.7-.5-.8-.6-.8-.6-.7-.7-.7-.7-.7-.7-.6-.7-.6-.8-.5-.8-.5-.9-.4-.8-.5-1-.2-.5-.5-.6-.3-.5-.2-.6-.1-.5-.1-.6v-.5l-.2-.5v-.8h-.2l-.7-.1-.8-.3-.7-.6-.4-.8-.1-.9.1-.7.6-1.4 1-.2h.4l.2-.1.2-.1.3-.1.3-.1.4-.2.4-.2.5-.3.5-.2.6-.4.6-.3.7-.4.7-.5.8-.5.7-.4.6-.4.7-.2h.8l1 .2h.2l.4-.6 1-.3.4-.1.5-.1h1.6l.6.1.4.2h.4l.5.3.5.4.4.7v.9l-.2.6-.4.5-.6.5-.3.2v.4l-.5.8-.3.5-.3.4-.3.5-.3.4-.3.5-.3.4-.4.5-.3.4-.4.5-.5.4-.4.5-.5.4-.5.4-.2.2.2.7.3.7.4.7.4.6.4.6.5.6.6.5.6.5.6.4.7.5.7.3.8.4.8.3.8.3.8.3.9.2.9.2.9.2 1 .2.9.1 1 .1.9.1 1 .1.9.1h1.9l.9.1h4.5l.8 1.9v1.2l-.5 1zm4.5-.5.2-1.1.5-1 .6-.8.7-.7 1.2-.5.9.4.6.2.6.3.7.3.8.3.8.3.8.4.9.3.9.5 1 .5.9.5.9.5 1 .6.9.7 1 .7.8.8.9.8.9.9.8 1 .7 1 .7 1 .7 1.3.6 1.2.5 1.3.4 1.4.3 1.5.2 1.6.2 1.6v3.5l-.3 1.9-.3 2-.4 2-.5 1.7-.3 1.6-.3 1.5-.2 1.4-.2 1.4v1.3l-.1 1.2v2.2l.2 1 .2 1 .2.9.3.8.3.8.3.7.4.7.4.6.5.6.4.5.5.5.6.4.6.4.6.4.6.4.7.3.7.3.7.2.8.3.8.2.8.1.5.1 1.8.3.4.5.2.3.3.3.4.4.3.4.5.6.3.5v1.7l-.2.3v.3l-.6 1.1-2.3-.3-1.2-.1-1.3-.3-1.1-.2-1.2-.3-1.1-.3-1-.4-1.1-.5-1-.4-1-.6-.9-.5-.9-.7-.8-.7-.8-.8-.7-.8-.6-.9-.6-1-.5-1-.5-1-.3-1.1-.4-1.2-.2-1.3-.2-1.3-.1-1.4V452l.2-1.7.2-1.7.3-1.9.4-1.9.4-2 .2-1.4.1-1.5v-2.7l-.1-1.3-.2-1.2-.3-1.2-.3-1.2-.4-1-.5-1-.5-1-.5-1-.6-.9-.6-.8-.7-.8-.7-.8-.7-.7-.7-.6-.7-.6-.7-.6-.8-.5-.7-.5-.8-.4-.7-.4-.7-.4-.6-.3-.7-.2-.6-.2-.5-.2-.5-.1-.5-.1-1-.1-1-1.5zm44.6 54.9.5.3.5.3.6.4.6.3.5.4.6.4.6.4.5.5.6.5.6.4.6.6.6.5.7.6.6.5.6.6.7.7.6.6.7.7.6.7.7.8.7.7.9 1 .3 1.2v1.8l-1 .9-1 .1-.8-.2-.6-.3-.8-.5-.5-.8-.5-.5-.4-.5-.4-.5-.5-.5-.4-.5-.4-.4-.5-.5-.4-.4-.5-.5-.4-.4-.5-.4-.5-.4-.4-.4-.5-.4-.5-.4-.5-.3-.4-.4-.5-.3-.5-.4-.5-.3-.5-.3-.5-.3-.5-.3-.5-.3-.5-.3-.5-.3-.6-.3-.5-.2-.5-.3-.5-.2-1-.5-.2-.4-.3-.2-.2-.1-.2-.3-.3-.3-.4-.7v-1l.5-.5.3-.2v-1.3l2.2.6.5.2.5.1.5.2.5.2.6.3.5.2.5.2.5.3z" id="path88"/><path id="polygon88" d="m272.5 425.7.1-1.7.1-1.8.3-1.8.5-1.9.5-2 .7-2 .8-2.2.6-.9.5-.7.4-.8.4-.8.4-.8.4-.9.3-.9.3-.9.3-1 .3-.9.2-1 .2-.9.1-1 .1-1 .1-.9V396l-.1-.9-.2-.9-.1-.9-.2-.8-.3-.9-.3-.7-.3-.8-.4-.7-.5-.7-.4-.6-.6-.6-.5-.5-.2-.1-.3.2-.4.4-.6.3-.5.2-.6.2-.6.2-.7.1-.6.1-.7.1-.8.1h-2.8l-.2-.2-1.2.4h-.5l-.7-.1-.7-.4-.4-.8-.1-.6.1-.6.1-.4.1-.4.1-.5.3-.5.2-.5.4-.4.3-.4.3-.3.6-.6.3-.1.1-.2v-.1l-.2-.9.2-.9.5-.6.6-.5.6-.4.7-.4.8-.4.8-.4.7-.3.6-.4.6-.3.5-.3.4-.3.4-.2.4-.3.3-.2.2-.2.2-.2.2-.1.1-.1.1-.1.6-.9 1.6.3.7.3.7.5.5.7.1.9-.2.8-.3.7v.2l.7.5.8.6.8.8.7 1 .1.6.3.3.6.6.5.6.5.7.5.8.5.7.5.8.4.9.4.9.4.9.3.9.3 1 .3 1 .2 1 .2 1.1.1 1.1.1 1.2v2.4l-.1 1.3-.1 1.3-.2 1.3-.2 1.4-.3 1.4-.4 1.4-.4 1.5-.5 1.5-.6 1.6-.6 1.6-.8 1.6-.7 1.7-.9 1.6-.6 1.4-.5 1.4-.3 1.4-.3 1.2-.2 1.2-.1 1.2v2.2l.2 1 .2 1 .2.9.4.9.3.9.5.8.5.8.6.7.6.7.6.7.7.6.7.6.8.6.8.5.9.5.8.5.9.4.9.4.9.4 1 .3.9.3 1 .3.9.2.5-.3.8.6.7.1v.4l3.5 2.9v-2.7l2.8.5 1 .3 1 .2.9.3 1 .3.9.4.9.4.9.4.8.4.8.5.8.5.8.6.7.6.7.7.6.6.6.8.6.7.5.8.5.9.5.9.4.9.3 1 .4 1 .2 1.1.2 1.1.2 1.2.1 1.2.1 1.2v2.6l-.1 1.4-.1 1.4-.1 1.1-.1 1.1-.1 1-.1 1-.1 1v.9l-.1.9v1.9l.1.8v.9l.1.8.1.8.1.8.1.8.1.7.1.7.2.7.2.7.2.7.2.6.2.6.3.6.3.6.2.6.3.5.3.5.4.5.3.5.4.5.4.4.5.6.3.5.2.5.2.6v1l-.8.9-1 .2-.8-.1-.8-.3-.6-.4-.4-.3-.5-.3-.4-.3-.4-.4-.4-.4-.4-.5-.4-.5-.4-.5-.3-.6-.3-.5-.3-.7-.3-.6-.3-.8-.2-.7-.3-.8-.2-.8-.2-.9-.2-.9-.1-1-.2-1-.1-1.1-.1-1.2-.1-1.1v-1.3l-.1-1.3V473l.1-1.5v-1.6l.1-1.6.1-1.7.1-1.2v-3l-.1-.9-.1-.9-.2-.8-.2-.8-.2-.7-.2-.7-.3-.7-.3-.6-.4-.6-.4-.5-.3-.6-.5-.5-.4-.4-.5-.5-.5-.4-.5-.4-.6-.4-.5-.4-.6-.3-.6-.4-.7-.3-.6-.3-.7-.3-.7-.3-.7-.3-.7-.2-.7-.3-1.8-.6v-2.4l-3.4-.8.1.4.1.6.1.5.1.4.1.4v.5l-.5 3.2-2-2.1h-.8l-1.5-.3-1.5-.2-1.4-.4-1.4-.4-1.4-.5-1.4-.5-1.3-.6-1.3-.7-1.2-.8-1.2-.8-1.1-.8-1.1-1-1-1-.9-1.1-.9-1.1-.8-1.2-.7-1.3-.6-1.3-.5-1.4-.5-1.5-.3-1.5-.2-1.6-.2-1.6z"/><g fill="#e30613" id="g92"><path d="M321.1 399.3c-4.5 0-8.2-3.4-8.2-7.5s3.7-7.4 8.2-7.4 8.2 3.4 8.2 7.4-3.7 7.4-8.2 7.4" id="path89"/><path d="M332.5 381.7c-3.2 0-5.7-2.4-5.7-5.4s2.5-5.4 5.7-5.4c3.1 0 5.7 2.4 5.7 5.4s-2.6 5.4-5.7 5.4" id="path90"/><path d="M314 379.1c2-.7 3.8-1.6 3-4q-1.5-4.9-4-3.6c-1.6 2.4-.6 5 1 7.6" id="path91"/><path d="M335 389.7c-2.8-1-2.4 1.6-4.4 1.6q.7 4.5-4 7.8c3 2.3 6 3.9 9.4-.4 1.3-2-1.7-5.9-1-9" id="path92"/></g><path fill="#fd0" d="M337.3 414.2q-1-.1-1.2-1.1c-.2-1 .6-1.2 1.2-1.2s1.3.5 1.3 1.2-.6 1.1-1.3 1.1" id="path93"/><path fill="#fd0" d="M335.9 413.6c-3-3.6-4.6-8.2-6.2-2.6-2.6 2.6 1.3 2.8 6.2 2.6" id="path94"/><path fill="#e30613" d="M356.2 378a7 7 0 0 1 2.3 6.5l-.6.8q1 1 .2 2-1.1-2-2-.3 1 1.1.7 2.7-1.5-2.4-2.9-1.7l-.1 3.1q-1.6-.9-1.8-2.9l-1.7 1.7q2.4.7 4.2 3 .4-1.4 1.2-2l1.3.2.6-1.4c.4 0 .4.3.8.3 0-.6.3-1.4.1-1.8q.7-1.1 1.6.2.6-3.7-.2-7.2c-1.2-2.4-2.5-2.9-3.7-3.1" id="path95"/><path fill="#e30613" d="M353.8 386.3c2.4 0 2.5-1.6 2.5-3.6s-1.2-6.2-2.7-4.5-4.9 3.3-4.9 5.3 2.6 2.8 5 2.8" id="path96"/><path d="M352.1 384c.9 0 1.9-1.3 2-2 .1-.8-1.4-3.2-1.3-1s-.9 1-2 1.2c-1 .1.5 1.9 1.3 1.9" id="path97"/><path fill="#79ac2b" d="M360.8 382.5c2.9 3.8-.5 6.2.9 7.4q3-.6 3.6 1c.9-3.7-1.1-6.3-4.5-8.4" id="path98"/><g fill="#ad4582" id="g109"><path d="M353.9 396q-1.3-.1-1.4-1.5.1-1.4 1.4-1.5c1.3 0 1.4.7 1.4 1.5q-.1 1.4-1.4 1.5" id="path99"/><path d="M350 396.1q-1.2-.1-1.3-1 .1-1 1.3-1.1 1.3.1 1.4 1-.1 1-1.4 1.1" id="path100"/><path d="M345.7 398q-1.6 0-1.8-1c-.2-1 .8-1.2 1.7-1.2s1.8.5 1.8 1.1-.8 1.2-1.7 1.2" id="path101"/><path d="M350.2 399.3q-1.3 0-1.4-1 .1-.8 1.3-.9 1.3.1 1.4 1-.1.9-1.4 1" id="path102"/><path d="M351 402.4q-1.1 0-1.2-1c-.1-1 .5-1 1.2-1s1.2.5 1.2 1-.5 1-1.2 1" id="path103"/><path d="M347 401.5q-1.1 0-1.2-.9 0-.7 1.2-.8c1.2-.1 1.1.4 1.1.8q-.1.9-1.1 1" id="path104"/><path d="M354 399.6q-1.3-.1-1.4-1.4.1-1.2 1.3-1.3 1.3.1 1.4 1.3-.2 1.3-1.4 1.4" id="path105"/><path d="M356.3 396.7q-.7 0-.8-.7 0-.9.8-.7 1.1.2 1 .7-.3.7-1 .7" id="path106"/><path d="M357.5 400q-1.2 0-1.3-1.2.1-1 1.3-1.1c1.2-.1 1.2.5 1.2 1.1q0 1.1-1.2 1.2" id="path107"/><path d="M354 402.2q-1-.1-1.1-1c-.1-1 .5-1.1 1.2-1.1s1.1.4 1.1 1-.5 1.1-1.1 1.1" id="path108"/><path d="M353.2 405.1q-1.2 0-1.3-1.2c-.1-1.2.6-1.2 1.3-1.2s1.4.5 1.4 1.2-.6 1.2-1.4 1.2" id="path109"/></g><path fill="#fd0" d="M356.8 408.8q-2.3-.3-3.2 2.8c.4 1.8 1 3.2 3.1 2z" id="path110"/><path fill="#fd0" d="M355.3 406.2c-1.1-.8-2.4-.6-3.7-.2q.3 4.1 1.5 3.7c2.8-2.4 3.1-3.3 2.2-3.5" id="path111"/><g fill="#79ac2b" id="g135"><path d="M325.7 373.4q.5-5-.9-2.5c0-2.6-.3-5-1.5-5.5q-1.6.8-2.7-1.6c-.6-1-1-2.7-2-1.5 0-1.9-.5-1.3-1-1.3q0 1.3-.2 2.5c-.9-.4-1.5-.3-.1 3.3.8.9.5 1.6 0 2.2-2.9-1.4-3.3-.2 2 6.8-1.9 1-.9 1.8 6.4 2.2-.6-.4.2-1.7-1.6-2-2-.2-3.6-2.2-5-4q2.5 1.8 5.4 2.3c-2-3-4.4-5.8-5.4-9.5 1.6 3.2 4.1 5.9 6.6 8.6" id="path112"/><path d="M328 370.5a6 6 0 0 1-2.5-4.3h.7c-.1-1.7-.6-3.3.1-5.2q2.5 1.8 3.9 5.2c.8-4.2 3.5-2.5 4.7-6.7 1.5 4.8 2.6 5.2-.3 10.3-.6-1-.4-3.8.5-6.5-1 2-2.3 4.7-3.4 6.3-2.4.2-2-3-3.3-4.1q1.3 2.8-.3 5" id="path113"/><path d="M320 379.1q-1.4-3-5.1 1.5.6 1.7 2.1 3c7.2-.4 9.1-1.6 7.5-3.1l-3.5 1q2.5-1.5 1.1-2l-4.7 1.8q-.8-1.1 2.6-2.2" id="path114"/><path d="M315.2 384.7q-3.2-6.1-4.7-13-1.4-5.2-4-2.8c-2-3-3.5-3.2-5-2.4-3.9-.5-2.9 1.7-2.2 3.7l3.1-3c2.7 2.4-.4 7.3 12.8 17.5" id="path115"/><path d="M297.5 379c10.9-.8 8-1.2 15.4 5.7.2 1.3.2 2.6-1.7 3.3a19 19 0 0 0-7.3-3.2q-.9 0-.4 1.9-3.4-1.5-5.7-4.3-1.2-.8 2.8-.7-1-2.1-3.1-2.7" id="path116"/><path d="M305.5 386.3c2 .9 3.9 1.6 6 3.3q-.6 1.5 0 3c-3.2.2-5.6-1.2-6-6.3" id="path117"/><path d="m305 387.5-.2 2.3q-1.8-.5-2.7-1.9.8-.7 3-.4" id="path118"/><path d="M292.1 388.4c9-2.2 5 .2 10.8 1.3a6 6 0 0 1-4.1 2c-1.6-2-4.1-2.7-6.7-3.3" id="path119"/><path d="M307.6 392.3c-7.3-1.7-9.2-.3-8.6 2.4-2.9 2.8-5 5.2-1.5 4.6-2.6 6.5-3.4 5 3.3 4 0 1.5 1 1.5 5-1.5-.6 6 7.1.8 6.8-6.3-3.1.8-6.2 2.7-9.2 4.8q.3-1.7 5.3-5.2-4.1 1-8.2 3.7 1.8-3 6.5-4.8-3-.4-5.8 1.6c.3-1.6 3.2-2.5 6.4-3.3" id="path120"/><path d="M313.8 398.6q.9 1.1 2.8 1.5-1.8 1.8-.8 4.3.6-2.9 3-3.4c-.8 8.7 1.1 10.5 3.1 12-2.5-3.7-2.5-7.7-1.3-12 2 1.3 4 2.6 4.8 7q.7-3.6-.6-7.7c5 2.2 8.4 5.7 3 7.2q1 5.7-2.5 3.8.7 3.7-2.5 8.7a12 12 0 0 0-3.8-6.5c-.4 4.7-2 .3-3.5-3.5-1.4 2.5-1.9.2-1.9-4.2-3.7 3.3-1.8-1.8.2-7.3" id="path121"/><path d="M351.3 387.3a11 11 0 0 0-6.2-2.8l1.7-1.3c-4.1-2.1-8.6-1.1-13.1 1.3 2.8-.1 5.7-.4 8 .8q-2.9-.3-6.3.3c2.4.7 5 1.2 6.2 2.5-2.5-.8-4-.6-7.2-.3 3.6 1 1.3 2.7 2.8 4 2.5-.4 5-.6 7.3.3.2-.9-.3-1.3-.4-2 5.6.7 3.8-2.2 7.2-2.8" id="path122"/><path d="M337.3 396.4c6.1.3 7.6 2.2 6.9 4.8-7 .5-7.9-1.8-7-4.8" id="path123"/><path d="M342.8 413.7v-.1q1.1-2.9-.8-5.7 1.5-1 3 0c-.6-3.3-2-6-6-5.9l-1 1c-.2-1.5-1.6-1.7-3.2-1.8-1.7.9-3.1 1.8-2.7 3.6q1.1-.8 1.8-.2-.4 4 1.7 6.3.7-2.2 2-2.4c.2 2.6 3.6 1.9 5.2 5.2" id="path124"/><path d="M337.2 392.7q-2 3.3 5.3 3l.1-2c5.3 1.6 6.2-1.4 8.7-1q-.8-2.2-3.2-2.5c-.8 2.8-5.2 3.1-10.9 2.5" id="path125"/><path d="M337.9 371.2q-2-5.4 3.1-15c-.6 7.4 2.5 7-1.4 19-.9-2.6-1.5-5.5-.5-10.7a8 8 0 0 0-1.2 6.7" id="path126"/><path d="M342 371.5q1.8-3.2.6-5.1 1.6-3 4-3.3.5 2.2-.2 4.5-2.4.9-4.4 3.9" id="path127"/><path d="M340.8 380.7c0-8.5 6-14.5 14.8-19.3l-4.8 7.8c-1.3-1.7-3.5.5-6.1 4.5a10 10 0 0 0-4 7" id="path128"/><path d="M346 376.5c1.8-2 3.7-4 5.8-5q-1.6 1.4-2.4 3.8 5.1-.7 4.8-6.6c-7 1-9 3.9-8.3 7.8" id="path129"/><path d="M354.9 373.7c-4 1.4-8 4-12 6.4q3.1-1.7 5.9-2.4c-2.8 1.6-3.9 2.8-4.2 3.8l3 1.3a34 34 0 0 0 7.3-9.1" id="path130"/><path d="M363.1 375.2c-5-.4-8.5-.3-6.9 1.8l5-.1q-3.7 1-.8 2.8 1.8-2 2.7-4.5" id="path131"/><path d="M363.4 397.6c-2-2.1.2-5.6-3.5-7.8l-.5 2.3-1.5-1.1q-1.5 1-2.2 2.5l1.4.6.4-1.8c.3 2 .8 3.8 2 3.4.7-6.3.8 1.4 4 2" id="path132"/><path d="M357.8 396.4c1.8.9 3.5 2 3.7 4.3l-2.3-1.4c1 2 1.4 3.7 0 4.7a5 5 0 0 0-2.4-3.4c1.6-1 2.3-2.2 1-4.2" id="path133"/><path d="M358 410.8c.8-2.7 1-5.6-1-9q-2.4-.6-1.9 1.8c2.2 1.8 2.5 4.5 3 7.1" id="path134"/><path d="M352 411.8q-.6-5.1-3.8-9.7c-1-.3-3 .3-3 1.6 3 5 5.6 8.7 6.9 8" id="path135"/></g><g fill="#fd0" id="g158"><path d="M345.3 409.2q-.2 4.7 3.4 2.6-1.3-3.2-3.4-2.6" id="path136"/><path d="m352.3 422.4.2-7.1q2.3-2 3.3.9-.8 3.7-3.5 6.2" id="path137"/><path d="M351.4 413.5c-2.2-.3-5-1-5.5.4l.7 3.8q-3-3.7-4.7-2c1.6 6 .8 12.5-.1 19.2 6.4-4.1 10.5-10.4 9.6-21.4" id="path138"/><path d="M340.1 415.6c3.8 18-1.2 28.7-12.3 34.2 1-12.8 1.7-25.5-1.4-34.2l1.8-1.5c3.8 1.1 7.7 2 12 1.5" id="path139"/><path d="M324.8 420.1c4.6 18.7 3.8 31.7-5.2 36.3l-4.3-6.3c3-13.5-10.9-29.6-8.6-44.6l3.3-.6v4.5l1 1 1-1.4 2 6 1.3-2 2.4 5.3 1-1.8 4.3 7.7z" id="path140"/><path d="M313.8 448.6c3.2-7.9-5-20.9-7.6-31.3-10-1.2.8 14.5-3.6 26 4.3 1 8.4 2.3 11.1 5.3" id="path141"/><path d="M310.6 458.3q2.4-.6 2-3.4c-1.5-2-3.3-3-5.2-3.9q-1.7-.5-1 2z" id="path142"/><path d="M297 432.2q.4 1.8.8 6.8l-3-4.3q0-2.2 2.2-2.5" id="path143"/><path d="m294.2 441.7-3.2-5q-3.3.8-1.2 3.5z" id="path144"/><path d="m302.3 452.8 5 8q-1.5.4-4.2.2c-1.4-3.2-2.3-6.2-.8-8.2" id="path145"/><path d="M296 449c-.6 6-.6 11 .9 13.5-2.6 2.3-5.4 4.2-10 2.5a29 29 0 0 0 3-16.8z" id="path146"/><path d="M288.6 447.7c.5 6.7-.4 13-4.2 18.6a7 7 0 0 1-7.1.2c4.5-4.4 2-23.3 4-22.6q2.1 2 7.3 3.8" id="path147"/><path d="M278.2 446.4c.9 8 .5 15.5-3 21.2q-3 1.8-5.5 1c1-6.2 1-11.4.8-16.5q3-6 7.7-5.7" id="path148"/><path d="M269 451.5q.4 8.3-.5 16.7-3.5 3.3-5.8 3 1.1-7.6.4-15.4 3.9-6 5.9-4.3" id="path149"/><path d="M261.6 455.2a51 51 0 0 1 .1 15.7q-1.6 2.7-3.9 3c0-4.4-1.3-8.3-2.2-12.3q1.8-6.9 6-6.4" id="path150"/><path d="M256.2 473.8c.5-3.6-.4-8-1.5-12.4-3.7-.6-4.6 2.3-5 5.7q1.2 6.3 3.8 10.1 2.6-.5 2.7-3.4" id="path151"/><path d="M248.8 466.9c.4 4.1 1 8.2 3.9 11.6q.3 1.6-1.2 3.3a19 19 0 0 1-6.6-7.3q-2-6.2 3.9-7.6" id="path152"/><path d="M244.2 475.7c1.7 2.8 3.4 5.4 6.1 6.5q1.3 1.7-.5 3.5c-3.6.6-6.2-1-8.3-3.6q-1.3-5.9 2.7-6.5" id="path153"/><path d="M249.8 487q2 1.4 0 3.1c-3 1.6-5.8 2.6-7.9-.3q-2-2.3.2-4.6 4 2.2 7.7 1.8" id="path154"/><path d="M250.9 490.3q2.2-.4 1.6 2.4c-.9 2.2-2.7 3.2-4.6 4.1q-5.1-2-3-3.7c2.3-.3 4.6-.8 6-2.8" id="path155"/><path d="M253 493.1q1.9-1.5 2.6 1.7.1 2-.3 4c-4 .9-5-.2-5.6-1.6q3-1.7 3.4-4.1" id="path156"/><path d="M256 493c.2 2.5.1 5.5 1.4 6.1a4 4 0 0 0 2.5-3.3q-1-3.4-3.8-2.8" id="path157"/><path d="M259.8 492.5q-1.2-6.3-4.9-.7z" id="path158"/></g><path d="M320 386.6q.3-1.3 2.2-1.1c.6.6 1.4 1.2 3.3 1.9 1.3 1.1-1.9.2-5.6-.8" id="path159"/><path d="M334 372.6q-.4-.8-1.5-1.1c-.5-.2-2.1 1.2-4 2.8-.8 1.6 2.7-1.5 5.6-1.7" id="path160"/><g fill="#cec8ea" id="g165"><path d="M250 402.5c2.9-1.7 4.2-4.2 5.8-6.5q-.2-2.1 1-1.5 1.1-.9-.4-1.3t-3.1.1q-.8 1.1-2 1.6 0-2-2.5-.2c-4.5 2.9-6.3 3.6-7.4 3.7q-1 2.2 1.7 2c1.4-.4.6 4.4 2.1 5.2q5.5 14.3 28.5 12.6c.2-1.1.9-3 1.1-3.6l.6-1.1h-1.2c-9.7 0-22.1-.8-24.2-11m-.8-4.3q-1-.1-1-1.1c0-1 .4-1 1-1s1 .4 1 1-.4 1-1 1" id="path161"/><path fill-rule="evenodd" d="M275.6 384.8c-.5 2-3.4 2.6-7.7 2.5q-1.8-1.2-1.8.2-1.5.5-1-1 .4-1.6 1.8-2.7c.8 0 .8-1.3 1.5-1.7q-1.7-1.1 1.1-2.4c4.8-2.3 6.3-3.5 7-4.4q2.4.3.8 2.4c-1 1 3.5 2.8 3.4 4.6 5.7 5.7 9.8 16.8.3 34.8-7 15.8 4 23.6 14 26l2.7.8-1.1 3.8c-14.8-1.2-27-11.7-21.2-31 1.1-3.5 3.1-6 4.4-9.5 3-8 2.6-18.3-4.2-22.4M271 383a1 1 0 0 1-1-1q0-1.1 1-1.2c1 0 1 .5 1 1.1q0 1-1 1" id="path162"/><path d="m282.3 417.7 1.6-3.8c6 2.5 23 7.6 17.6 29.3-5 18.6 2.4 24.3 12 25.4l1.6.2c0 .3-.2 3 0 3.4-13.5-1.5-21.1-7.7-16-29a21.6 21.6 0 0 0-16.8-25.5" id="path163"/><path d="M302.6 444.4c10.7 2 17.6 8 16 23q-2.3 17.6 4.8 24.8c.6 1 1 1.9-1 1.1-4.2-2.3-7.2-8.2-6-26.6 1.2-12.5-5.4-16.6-13.2-19.2l-1.3-.4z" id="path164"/><path d="M320 470.6c4.7 1.4 10.2 5 17.3 13.3.7 2-.1 2-1.6 1a40 40 0 0 0-16-12.4z" id="path165"/></g><path fill="#fd0" d="M336.7 500.8q-1.7-.2-1.8-1.7c-.1-1.5.8-1.7 1.8-1.7s1.9.8 1.9 1.7q-.1 1.6-1.9 1.7" id="path166"/><g stroke="#000" stroke-width=".24945" stroke-miterlimit="2.6131" fill="#cec8ea" id="g180"><path d="M282.3 362.1c-2.7 1-6.3.2-10.1-.9q2-2.6-3.2-2c-8.7-1.4-14.7-1.6-14.6 1.2q-1.2 4 1.8 6.9-1.2 3.6-5 3.7l2.4 3.8a15 15 0 0 0 7.8-12.4c5.5 1.6 11 3.1 17.2 3.7 7.7-2.4 6.3-3.3 3.7-4z" id="path167"/><path d="M266.9 365.4q-2.5-1.2-5.1-1.4c-.2 4.8-3 9.6-7 11.4q.3 2 1.7.6c4.1-2 8-4.4 10.4-10.6z" id="path168"/><path d="M261.9 376.8q-1.5 0-1.6-1.2.1-1 1.6-1t1.6 1q-.1 1.4-1.6 1.2z" id="path169"/><path d="M265 374.3q-2.2 0-2.4-1.2c-.2-1.2 1-1 2.3-1s2.4.4 2.4 1-1 1.2-2.4 1.2z" id="path170"/><path d="M268 372c-1.3 0-2.5-.9-2.5-1.5s.8-1.7 2-1.7c1.4 0 3.6 1 3.6 1.5 0 .7-1.8 1.6-3.1 1.6z" id="path171"/><path d="M274.8 368.8c-1.9.9-8-.3-7.6-1.7.6-1.4 1-2.2 2.2-1.7s6 1 6 1.4 1.3 1-.6 2z" id="path172"/><path d="M260.3 378.9c-2 .9-4.4.3-3.9-1.1s.9-2.2 2.1-1.7c1.2.4 2.3.4 2.4.8 0 .3 1.3 1-.6 2z" id="path173"/><path d="M226.8 398.6c2-2 2.7-5.6 3.3-9.5q-3.2.8-.5-3.7c2.2-8.5 4.5-14 6.9-12.7q4 .7 5.2 4.7 3.8.6 5.3-2.9l2.4 3.8a14 14 0 0 1-14 1.6 89 89 0 0 1-3.6 17.1c-5.2 5.8-5.4 4.3-5 1.6z" id="path174"/><path d="M235.9 386.2q0-2.9.7-5.3c4.4 2 9.7 1.6 12.9-1.2q1.6 1-.2 1.8c-3.4 2.8-7 5.3-13.4 4.7z" id="path175"/><path d="M247.8 386.7q.5-1.4-.3-2-1-.2-1.7 1-.4 1.3.4 2 1 .3 1.6-1z" id="path176"/><path d="M244.4 388.3q.8-2 0-2.6-1-.3-2 1.6c-.5 1.2-.5 2.4 0 2.6q1 .3 2-1.6z" id="path177"/><path d="M241.2 390c.5-1.1.3-2.6-.3-2.9s-1.8 0-2.3 1.2c-.6 1.1-.6 3.6 0 3.8s2-.9 2.6-2z" id="path178"/><path d="M235.7 394.8c1.5-1.3 3-7.4 1.5-7.6-1.4-.1-2.3-.1-2.3 1.2-.1 1.3-1.6 5.9-1.3 6 .3.3.5 1.7 2 .4z" id="path179"/><path d="M250.3 386.1c1.6-1.3 2-3.8.6-4-1.5 0-2.3 0-2.3 1.2-.1 1.3-.6 2.3-.3 2.5s.5 1.6 2 .3z" id="path180"/></g><g fill="#fd0" id="g185"><g stroke="#000" stroke-width=".24945" stroke-miterlimit="2.6131" id="g184"><path d="M241.3 363q-1.3-.1-1.5-1.6c-.2-1.5.7-1.5 1.5-1.5s1.5.7 1.5 1.5-.7 1.6-1.5 1.6z" id="path181"/><path d="M245.8 367.7c1.6-1.3 2-3.5 1-5s-2.7-1-4.3.3c-1.6 1.2-2.8 2.8-1.7 4.2s3.3 1.7 5 .5z" id="path182"/><path d="M246.9 369.5q-1.7 1.3-2.3.8c-.4-.4 0-1.4 1-2.2s2-1.2 2.3-.8q.4.8-1 2.2z" id="path183"/><path d="M248.1 371.6q-1.4 1.1-2 .7c-.6-.4.1-1.2.9-2q1.4-1.1 2-.7.5.7-.9 2z" id="path184"/></g><path d="m247 372.8 27.5 39h1.8l.6-1.2-27.1-39.8a4 4 0 0 1-2.7 2m34 48.4 14.5 20.6 2.4.8.1-1-15.2-22.4-1.1-.1zm20.4 29 11.8 16.7 2.2.8v-.5l-12.7-18.7-1-.3zm18.2 25.9 15.3 21.8.6-1.3-15-22-1-.5z" id="path185"/></g><g fill="#a99ed6" id="g197"><path d="M296.2 289.7H295l1.2 1.7c13 0 23.7-3 23.7-6.7s-10.6-6.9-23.7-7h-.6l-1.3 1.8h1.9c11.8 0 21.4 2.4 21.4 5.2s-9.7 5-21.5 5" id="path186"/><path d="M296.2 288a3.2 3.2 0 0 1 0-6.5 3.2 3.2 0 0 1 0 6.4" id="path187"/><path d="M288.3 282.9c-5.2-7-7.8-13-6.1-14.5 1.6-1.4 6.3 1.4 11.8 6.5l1-1.3c-6.3-5.9-12.2-8.9-14.3-7-2.4 2 .5 9.6 6.7 17.8z" id="path188"/><path d="m304.6 280.6-.7 1.4 1.1 1.4 1.4-2.5-1-.2z" id="path189"/><path d="m297.2 292.1 1.2 1.1.9-1.1z" id="path190"/><path d="m300.5 287.4-1 1.5h2l.4-.5 1.4-2.1-1.1-1.5z" id="path191"/><path d="M285 288.9c-6.2-1-10.2-2.6-10.2-4.5 0-1.7 3.5-3.2 8.9-4v-.1l-1-1.4c-6.1 1.2-10.2 3.2-10.2 5.5 0 2.5 4.7 4.8 11.7 6v-.1zm2-9 3.5-.3.9-1.3.3-.5-5.6.5z" id="path192"/><path d="m290.5 289.5-2.3-.2-.8 1.5q2.2.4 4.7.5z" id="path193"/><path d="M300.5 272a2.5 2.5 0 0 1-2.5-2.5c0-1.4 1.1-2.6 2.5-2.6s2.6 1.2 2.6 2.6-1.2 2.5-2.6 2.5" id="path194"/><path d="M303.6 268.4q3.1-2.4 4.6-1.6c1.6 1 .6 5.3-2 10.9l1.5.2h.1c3-6.4 3.8-11.6 1.7-13q-2.1-1.3-6.8 2.2h.1l.2.3.2.3.2.2.1.3z" id="path195"/><path d="M295.2 294.5c-4.9 5.7-9.3 9-11 7.8-2.3-1.6 1.2-10.8 7.8-20.6a78 78 0 0 1 7.3-9.2l-.3-.2-.3-.1-.2-.2-.5-.5q-3.8 3.9-7.4 9.2c-7.4 10.9-10.8 21.4-7.7 23.5 2.4 1.6 7.8-2 13.5-8.6l-1-1z" id="path196"/><path d="M300 281.2q3.3 3.8 5.7 7.3h.7l1.2-.2a76 76 0 0 0-6-8h-2.4zm-1.4-4.1-1.3-1.4-1 1.3zm9 14.3c2.8 4.6 4 8.3 2.6 9.4-2 1.8-10.1-4-17.8-12.9l-2-2.4-.1.2-.9 1.4 1.7 2c8.5 9.8 17.8 15.9 20.7 13.4 1.7-1.5.6-6-2.5-11.4h-.5l-.2.1z" id="path197"/></g></g></g><!-- app4joy --></svg>