<svg width="600" height="400" id="svg2" viewBox="0 0 600 400" xmlns="http://www.w3.org/2000/svg"><g id="g1"><path id="rect5751" style="fill:#005bbb;fill-opacity:1;stroke:none" d="M0 0h600v400H0z"/><path id="rect5753" style="fill:#ffffff;fill-opacity:1;stroke:none" d="M0 100h600v200H0z"/></g><g transform="translate(14.7 104.8)scale(.50074)" id="g5175"><path d="M211 380c0-12.4 5.7-25.5 20.3-25.5h43.1c19 0 36.8-16 36.8-35v-39.7c9.7 0 21.6-13.2 21.6-22.5v-94.8c-11 0-21.4-2.2-27.5-12-5-8.2-4-18 .3-26.1q1.5-2.6 3.7-4.3a12 12 0 0 0-1.8 6.3 12 12 0 0 0 14.4 11.6c5.9-1 9.6-6 10.6-11.6 2-11.2-4.7-19.6-12.3-26.5a69 69 0 0 1-20.5-38.2h-57.9v-26h-77.5v26h-57.9A69 69 0 0 1 85.8 100c-7.5 7-14.3 15.3-12.2 26.5 1 5.6 4.7 10.5 10.6 11.6 7.2 1.3 14.4-3.9 14.4-11.6a12 12 0 0 0-1.9-6.3q2.4 1.6 3.7 4.2a26 26 0 0 1 .3 26.1c-6 10-16.5 12.1-27.4 12.1v94.8c0 9.3 11.9 22.5 21.6 22.5v39.6c0 19.1 17.9 35 36.7 35h43.2c14.6 0 20.4 13.2 20.4 25.7z" id="path3791" style="fill:#005bbb;fill-opacity:1;fill-rule:evenodd;stroke:none"/><path d="M192.7 74.7h-1.6c.7-4.7 5.5-8.4 11.5-8.4h.9c5.9 0 10.8 3.7 11.5 8.4h-1.7l.8 1.8h1v14.8h-.9v3.4h22.6v-5.8h-1.9V62.7h1.7l1.7-2.2H236v-6.8h2.6l1.5-2.7h-3.3q0-2.7-1.9-4.6c-.9-1-1.9-1.9-1.7-3.3l.6-2-.7-1h-60.2l-.7 1 .6 2c.2 1.4-.8 2.4-1.7 3.3q-1.8 1.9-1.8 4.6h-3.4l1.5 2.7h2.7v6.8h-2.4l1.7 2.2h1.7V89h-1.8v5.8h22.5v-3l-.8-.4V76.5h1z" id="path3795" style="fill:#ffd500;fill-opacity:1;fill-rule:evenodd;stroke:#000000;stroke-width:0.81811273"/><path d="M199.1 59.6h7.8l-1.4 7.5h-5z" id="path3799" style="fill:#000000;fill-rule:evenodd;stroke:none"/><path d="m237.5 52.6.7-1.6h-70.4l.8 1.6z" id="path3801" style="fill:#000000;fill-rule:evenodd;stroke:none"/><path d="M214 50.4c0-2.1 1-3.4 1.8-4.5 1-1.3 1.8-2 1-4h-.4c.5 1.5 0 2.4-1 3.5-1.2 1.2-2.6 2.5-2.6 5z" id="path3803" style="fill:#000000;fill-rule:evenodd;stroke:none"/><path d="M226.8 49.7V44h.7v5.7h3.6V44h.7v6.4h-13.6V44h.7v5.7h3.6V44h.7v5.7z" id="path3805" style="fill:#000000;fill-rule:evenodd;stroke:none"/><path d="m179.2 89.8 1 1.1v1l-1.9-.7h-4l-1.8.8v-1l1-1.2-.2-26.3-1-1.4h5.9l1 1.3zM178 63.6h-3.5v26h3.5z" id="path3807" style="fill:#000000;fill-rule:evenodd;stroke:none"/><path d="M192.8 61.8h-2.2v7.6a15 15 0 0 1 9.6-5.5l-.2-.4a23 23 0 0 0-7.2 1.4z" id="path3809" style="fill:#000000;fill-rule:evenodd;stroke:none"/><path d="M192 50.4c0-2.1-.9-3.4-1.7-4.5-1.1-1.3-1.9-2-1.1-4h.5c-.6 1.5 0 2.4 1 3.5 1.1 1.2 2.6 2.5 2.5 5z" id="path3811" style="fill:#000000;fill-rule:evenodd;stroke:none"/><path d="m231.5 41.3-.4 1H175l-.5-1z" id="path3813" style="fill:#000000;fill-rule:evenodd;stroke:none"/><path d="M177.3 59h3.5v.9h-3.5zm5.7 0h3.5v.9H183zm5.7 0h3.6v.9h-3.6zm5.8 0h3.5v.9h-3.5zm5.7 0h3.5v.9h-3.5zm5.7 0h3.6v.9h-3.6zm5.8 0h3.5v.9h-3.5zm5.7 0h3.6v.9h-3.6zm5.8 0h3.5v.9h-3.5zm5.7 0h3.5v.9H229zm-57.4 0h3.5v.9h-3.5z" id="path3815" style="fill:#000000;fill-rule:evenodd;stroke:none"/><path d="M212.7 50.4v-5.7h-19.4v5.7h-.6V44h20.7v6.4z" id="path3817" style="fill:#000000;fill-rule:evenodd;stroke:none"/><path d="M227 59h-2.6v-6.8h2.6zm-4.6 0H220v-6.8h2.5zm-4.5 0h-2.6v-6.8h2.6zm-4.6 0h-2.5v-6.8h2.5zm-4.6 0h-2.5v-6.8h2.5zm22.8 0H229v-6.8h2.5zm-52.4 0h2.5v-6.8h-2.5zm4.5 0h2.6v-6.8h-2.6zm4.6 0h2.5v-6.8h-2.5zm4.5 0h2.6v-6.8h-2.6zm4.6 0h2.5v-6.8h-2.5zm-22.8 0h2.6v-6.8h-2.6zm27.2 0h2.6v-6.8h-2.6z" id="path3819" style="fill:#000000;fill-rule:evenodd;stroke:none"/><path d="M179.2 49.7V44h-.7v5.7H175V44h-.7v6.4h13.6V44h-.6v5.7h-3.7V44h-.7v5.7z" id="path3821" style="fill:#000000;fill-rule:evenodd;stroke:none"/><path d="m183.2 89.8-1 1.1v1l2-.7h3.9l1.8.8v-1l-1-1.2.2-26.3 1-1.4h-5.8l-1 1.3zm1.4-26.2h3.4v26h-3.4z" id="path3823" style="fill:#000000;fill-rule:evenodd;stroke:none"/><path d="m222.8 89.8 1 1.1v1l-1.9-.7h-4l-1.8.8v-1l1-1.2-.2-26.3-1-1.4h5.9l1 1.3zm-1.3-26.2H218v26h3.5z" id="path3825" style="fill:#000000;fill-rule:evenodd;stroke:none"/><path d="m226.8 89.8-1 1.1v1l2-.7h3.9l1.8.8v-1l-1-1.2.2-26.3 1-1.4h-5.8l-1 1.3zm1.4-26.2h3.4v26h-3.4z" id="path3827" style="fill:#000000;fill-rule:evenodd;stroke:none"/><path d="M213.3 61.8h2v7.6A15 15 0 0 0 206 64l.2-.4c2.3.1 5.2.6 7.2 1.4z" id="path3829" style="fill:#000000;fill-rule:evenodd;stroke:none"/><path d="m199.8 60.2 1.2 6.3h4l1.2-6.3zm3.6 5 .4-4.2h.6l-.4 4.3zm-1.3.1-.4-4.2h.5l.5 4.2z" id="path3831" style="fill:#ffd500;fill-opacity:1;fill-rule:evenodd;stroke:none"/><path d="M145 .7h27.3q4 6 7.5 12.2h11.4V.7h22.6V13h11.4q3.4-6.2 7.5-12.2H260q-11.4 14.8-18.6 30.4h-77.8Q156.3 15.6 145 .7z" id="path3833" style="fill:#ffd500;fill-opacity:1;fill-rule:evenodd;stroke:#aa8800;stroke-width:1;stroke-miterlimit:4;stroke-opacity:1;stroke-dasharray:none"/><path d="M203.5 114.5a8.1 8.1 0 1 1 0 16.3 8.1 8.1 0 0 1 0-16.3" id="path3835" style="fill:none;stroke:none"/><path d="M210 115.6a10 10 0 1 1-14 14 10 10 0 0 1 14-14m-11.5 2.5a6.4 6.4 0 1 0 9 9 6.4 6.4 0 0 0-9-9" id="path3837" style="fill:#ffd500;fill-opacity:1;fill-rule:evenodd;stroke:none"/><path d="M103 90.6a68 68 0 0 1-5.1 6.9c-4.5 5-10.3 9-14.4 14.2s-6.3 12.1.8 18.6" id="path3839" style="fill:none;stroke:none"/><path d="M109 126q2.7 6 2.7 13a31 31 0 0 1-30.5 31.4v84.4a17 17 0 0 0 17 17h4.6v46c0 16 13 28.8 28.9 28.8h43c14.9 0 26.9 12 26.9 26.8" id="path3841" style="fill:none;stroke:none"/><path d="M163.5 69.6h-51a73 73 0 0 1-12.2 24.9" id="path3843" style="fill:none;stroke:none"/><path d="M203 361.7a31 31 0 0 0-28.2-18.9h-43.2c-13.6 0-25-11.3-25-25V268h-8.3C91 268 85 262 85 254.8V174a35 35 0 0 0 23.3-55.4c-4.7-6.3-12.7-10.8-20.6-8 3-3.2 6.7-6 9-8 8.7-7.8 14.7-17 18.6-29.1h45.8v-7.7h-51.5a71 71 0 0 1-16 32.1c-4 4.3-8.7 7.7-12.2 12.3-4 5.6-6.2 15.3-1.3 21.1 4.6 5.4 14.7 2.7 14.3-5.2-.2-3.6-2.8-7.2-7.5-7.2q-3.3.1-5.5 2.3c0-2.2 1.1-4.4 3.1-5.6 2.4-1.5 5.8-1.8 8.8-1.3 4.4.8 8.4 4 10.7 8.1 11.8 22.2-3 44.2-26.7 44.2v88.2a21 21 0 0 0 20.9 20.9h.7v42.1c0 18 14.7 32.6 32.6 32.6h43.2c14 0 24.4 12.1 24.4 25.6h7.6a25 25 0 0 1 24.5-25.6h43.1c18 0 32.7-14.7 32.7-32.6v-42.1h.7a21 21 0 0 0 20.9-20.9v-88.2c-23.7 0-38.6-22-26.7-44.2 2.2-4 6.3-7.3 10.7-8 3-.6 6.4-.3 8.8 1.2 2 1.2 3.2 3.4 3.1 5.6a8 8 0 0 0-5.5-2.3c-4.7 0-7.3 3.6-7.5 7.2-.5 7.9 9.7 10.6 14.3 5.2 5-5.8 2.8-15.5-1.3-21-3.5-4.7-8.3-8.1-12.2-12.4a71 71 0 0 1-16-32h-51.5v7.6h45.8a64 64 0 0 0 18.6 29.1c2.3 2 5.9 4.8 9 8-7.9-2.8-16 1.7-20.6 8A35 35 0 0 0 321 174v80.8c0 7.2-5.9 13.2-13.2 13.2h-8.4v49.8c0 13.7-11.3 25-25 25h-43a31 31 0 0 0-28.4 19" id="path3845" style="fill:#ffd500;fill-opacity:1;fill-rule:evenodd;stroke:none"/><path d="M266.3 302.7h-6.2c-13 0-17.5-9.1-11.5-24.2l9.5-24c7-17.5 17.6-18.7 34.7-17.6a128 128 0 0 0-13.5-60l-38.1 95.5c-6 15.1-11 18.1-22.9 18.1h-30.5c-12 0-16.9-3-23-18.1l-38-95.6a128 128 0 0 0-13.6 60.1c17.2-1 27.8 0 34.8 17.5l9.5 24c6 15.2 1.5 24.3-11.5 24.3h-6.2v11h48.5c4.5 0 9.2 1 10.1 9.4h9.3c1-8.4 5.6-9.4 10-9.4h48.6zm-5 3a2.5 2.5 0 1 0 0 5 2.5 2.5 0 0 0 0-5m18.3-112c-2.1 0-3.8 1-3.8 2.4s1.7 2.5 3.8 2.5 3.7-1.1 3.7-2.5-1.7-2.4-3.7-2.4m-153 0c2 0 3.7 1 3.7 2.4s-1.7 2.5-3.8 2.5-3.8-1.1-3.8-2.5 1.7-2.4 3.8-2.4m18.1 112a2.5 2.5 0 1 1 0 5 2.5 2.5 0 0 1 0-5" id="path3847" style="fill:#ffd500;fill-opacity:1;fill-rule:evenodd;stroke:none"/><path d="M205.6 271.4c4.2 3.2 12.8 4.5 19.4-8 2.2-4.2 3.2-8 6.6-12.3-9.4 5.2-16-2-22.2 7 1-5.6.4-9.5-1-12.9-1.3-3.3-3.4-5.8-5.3-10.6-1.9 4.8-4 7.3-5.3 10.6a23 23 0 0 0-1 13c-6.1-9-12.8-2-22.2-7.1 3.4 4.3 4.4 8 6.6 12.3 6.7 12.5 15.2 11.2 19.5 8v11.4h4.9z" id="path3849" style="fill:#ffd500;fill-opacity:1;fill-rule:evenodd;stroke:none"/><path d="M168 230.2c3.2 3.1 6.7 4.2 10 4.8 3.7.7 7.4.8 10.1 3.8 7.4 7.9-3 15.5-11 9-4.5-3.7-8.5-10-9.1-17.6m29.2-18c-.8 6.3-3.4 10.5-5.3 14.4-1.5 3-3.1 6-2.8 9.7.5 6.1 6.4 9.8 10 3.3 1.7-2.8 3-6.3 3-9.7 0-5.7-1.7-13.3-5-17.8m-35.7 1c3.3 3.2 6.7 4.2 10 4.8 3.7.8 7.4.8 10.2 3.8 7.3 8-3 15.5-11 9-4.5-3.7-8.6-10-9.2-17.6m29.2-18c-.8 6.4-3.3 10.6-5.3 14.5-1.5 3-3 6-2.8 9.7.5 6.1 6.4 9.8 10.1 3.3 1.6-2.8 3-6.3 3-9.7 0-5.7-1.8-13.3-5-17.8m-6.4-16.9c-.8 6.4-3.4 10.6-5.3 14.5-1.5 3-3 6-2.8 9.7.5 6.1 6.4 9.8 10.1 3.3 1.6-2.8 2.9-6.3 3-9.7 0-5.7-1.8-13.3-5-17.8m-29.2 18a19 19 0 0 0 9.9 4.8c3.8.7 7.4.8 10.2 3.8 7.3 7.8-3 15.4-11 9-4.5-3.7-8.6-10-9.1-17.6m-6.5-17c3.2 3.1 6.7 4.2 10 4.8 3.7.7 7.4.8 10.1 3.8 7.4 7.9-3 15.5-11 9-4.5-3.7-8.6-10-9.1-17.6m29.2-17.9c-.7 6.4-3.3 10.6-5.2 14.5-1.5 3-3.1 6-2.8 9.7.4 6.1 6.4 9.8 10 3.3 1.7-2.8 3-6.2 3-9.7 0-5.7-1.7-13.3-5-17.8m-6.4-16.9c-.8 6.4-3.4 10.6-5.3 14.5-1.5 3-3 6-2.8 9.7.5 6.1 6.4 9.8 10.1 3.3 1.6-2.8 3-6.2 3-9.7 0-5.7-1.8-13.3-5-17.8M142 162.2c3.3 3.1 6.7 4.2 10 4.8 3.7.7 7.4.8 10.2 3.8 7.3 7.9-3.1 15.5-11 9-4.5-3.7-8.6-10-9.2-17.6m10.2-20.2a94 94 0 0 0-.8 16.4c1 17 19.2 2 12.3-7.2-3-4-7.9-7-11.5-9.2m-5.8 20.4-23.2-60.7 2.3-1.3L149 162l.2 1.8zm2-10L128 98.9l2.2-1.3 18.6 48.7q-.4 3-.4 6.2m1.4-11.4-17-45 2.1-1.4 17 44.5-1.4-.6zm5.9 0-18.3-47.9 2.3-1.3 19.6 51.5q-1.8-1.3-3.6-2.3m8.3 6.7-21.8-57.4 2.2-1.4 23.1 60.7-.6 1.6q-1.3-1.8-2.9-3.5m4.7-3.1L147 87.5l2.2-1.3 20.3 53-.6 5zM139.3 159l-20.7-54.5 2.2-1.3 21 55.2z" id="path3851" style="fill:#ffd500;fill-opacity:1;fill-rule:evenodd;stroke:none"/><path d="m144.3 253.6-26 59.4 13.7-12.8 16.5-36-3.4-8.6zm59.4-121.3h-6.5l-14.4 33.1q1.8 4.8 2.3 9.8 1.5 1.8 2.5 3.7l10.2-22.2h3.1V179h5.5v-22.3h3.1l10.2 22.2q1.1-2 2.5-3.7.6-5 2.4-9.8L210 132.3zm-44 85.8-6.9 15.9 4.5 11.1 7.6-16.6a28 28 0 0 1-5.1-10.4m82.8 10.4 6.9 15.1 4.4-11.1-6.2-14.4q-1.7 6-5.1 10.4m15.7 34.2 17.1 37.5L289 313l-26.5-60.8q-.8 1.5-1.5 3.4z" id="path3853" style="fill:#ffd500;fill-opacity:1;fill-rule:evenodd;stroke:none"/><path d="M239.4 230.2a18 18 0 0 1-10 4.8c-3.7.7-7.4.8-10.2 3.8-7.3 7.9 3 15.5 11 9 4.5-3.7 8.6-10 9.2-17.6m-29.2-18c.8 6.3 3.4 10.5 5.3 14.4 1.5 3 3 6 2.8 9.7-.5 6.1-6.4 9.8-10.1 3.3a21 21 0 0 1-3-9.7c0-5.7 1.8-13.3 5-17.8m35.6 1a18 18 0 0 1-9.9 4.8c-3.8.8-7.4.8-10.2 3.8-7.4 8 3 15.5 11 9 4.5-3.7 8.6-10 9.1-17.6m-29.2-18c.8 6.4 3.4 10.6 5.3 14.5 1.5 3 3 6 2.8 9.7-.5 6.1-6.4 9.8-10 3.3a21 21 0 0 1-3-9.7c0-5.7 1.7-13.3 5-17.8m6.5-16.9c.8 6.4 3.3 10.6 5.3 14.5 1.5 3 3 6 2.7 9.7-.4 6.1-6.3 9.8-10 3.3a21 21 0 0 1-3-9.7c0-5.7 1.8-13.3 5-17.8m29.2 18a18 18 0 0 1-10 4.8c-3.7.7-7.4.8-10.1 3.8-7.4 7.8 3 15.4 11 9 4.4-3.7 8.5-10 9-17.6m6.5-17a18 18 0 0 1-10 4.8c-3.7.7-7.4.8-10.2 3.8-7.3 7.9 3 15.5 11 9 4.5-3.7 8.6-10 9.2-17.6m-29.3-17.9c.8 6.4 3.4 10.6 5.3 14.5 1.5 3 3 6 2.8 9.7-.5 6.1-6.4 9.8-10.1 3.3a21 21 0 0 1-3-9.7c0-5.7 1.8-13.3 5-17.8m6.5-16.9c.7 6.4 3.3 10.6 5.2 14.5 1.5 3 3.1 6 2.8 9.7-.4 6.1-6.4 9.8-10 3.3a21 21 0 0 1-3-9.7c0-5.7 1.7-13.3 5-17.8m29.2 17.8a18 18 0 0 1-9.9 4.8c-3.8.7-7.4.8-10.2 3.8-7.4 7.9 3 15.5 11 9 4.5-3.7 8.6-10 9.1-17.6M255.1 142q1 7.6.8 16.4c-1 17-19.3 2-12.3-7.2 3-4 7.8-7 11.5-9.2m5.8 20.4 23.1-60.7-2.2-1.3-23.5 61.5-.2 1.8zm-2-10 20.4-53.6-2.2-1.3-18.6 48.7q.4 3 .4 6.2m-1.5-11.4 17.1-45-2.2-1.4-17 44.5 1.5-.6zm-5.8 0 18.2-47.9-2.2-1.3-19.6 51.5zm-8.4 6.7 21.9-57.4-2.2-1.4-23.2 60.7.7 1.6q1.3-1.8 2.8-3.5m-4.7-3.1 21.8-57.2-2.2-1.3-20.2 53 .6 5zM268 159l20.8-54.5-2.3-1.3-21 55.2z" id="path3855" style="fill:#ffd500;fill-opacity:1;fill-rule:evenodd;stroke:none"/><path d="M203 363.1V376" id="path3979" style="fill:none;stroke:none"/></g><!-- app4joy --></svg>