<svg height="400" width="600" id="svg1" xmlns="http://www.w3.org/2000/svg"><path id="left" fill="#0057B7" d="M0 0h600v400H0z"/><path id="right" fill="#E0004D" d="M300 0h300v400H300z"/><path id="path3038" fill="#000000" d="m239.2 177.7.2-7h.7a108 108 0 0 1 29 6.6c18.7 7.5 28.8 20.7 30.9 38 2-17.3 12.2-30.5 31-38q13.9-5.3 28.9-6.5l.7-.1.2 7h2.2v6.2h1.7l.1 6.8h2l.4 7.4c-16.9-1.7-43.9-1.4-50.5 18.4q-2.4 7.5-.1 15.8a46 46 0 0 0 18.5 25.2q2.2 1.5 1.9 3.5-.2 1-.8 2t-1.6 1.6a6 6 0 0 1-6.7.6 44 44 0 0 1-23-19q-4.1-7.4-4.9-15.8-.8 8.5-4.8 15.9a44 44 0 0 1-23.1 19 6 6 0 0 1-6.7-.7q-1-.7-1.6-1.6t-.8-2q-.4-2 1.8-3.5a47 47 0 0 0 18.6-25.2q2.3-8.4-.1-15.8c-6.6-19.8-33.6-20.1-50.5-18.4l.4-7.3 2-.1V184l1.8-.1v-6.2z"/><path id="path3040" fill="#000000" d="M300 113.2a22.3 22.3 0 1 1 0 44.6 22.3 22.3 0 0 1 0-44.6m-20.4 9.4L264.3 100l22 14.7a16 16 0 0 1-1.4-11c.7-4.4.6-7.1-2.1-11.4 5.6 2 6.4 5.7 7.6 10.4.9 3.1 1.8 6.6 4.3 9.4l5.3-27 5.1 26a16 16 0 0 1 6.8-8.6 15 15 0 0 0 6.6-9.7c2.5 5.3.4 8.5-2 12.8a23 23 0 0 0-3.7 9.6l22.8-15.2-14.7 22a16 16 0 0 1 10.9-1.4c4.5.6 7.2.5 11.5-2.2-2 5.6-5.7 6.4-10.4 7.7a22 22 0 0 0-9.4 4.2l26.9 5.3-26 5.1a16 16 0 0 1 8.7 6.8c2.8 3.6 4.7 5.5 9.7 6.6-5.4 2.5-8.6.5-12.8-2a23 23 0 0 0-9.7-3.6l15.3 22.7-22-14.7a16 16 0 0 1 1.4 11c-.6 4.4-.5 7.1 2.2 11.4-5.6-2-6.4-5.7-7.7-10.4a23 23 0 0 0-4.2-9.4l-5.3 27-5.1-26a16 16 0 0 1-6.8 8.6c-3.6 2.8-5.5 4.8-6.6 9.7-2.5-5.3-.5-8.5 2-12.8a23 23 0 0 0 3.6-9.6l-22.8 15 14.8-22a16 16 0 0 1-11 1.4c-4.5-.6-7.2-.5-11.5 2.2 2-5.6 5.8-6.4 10.4-7.7a23 23 0 0 0 9.5-4.2l-27-5.3 26-5.1a16 16 0 0 1-8.7-6.8c-2.7-3.6-4.7-5.5-9.6-6.6 5.3-2.5 8.5-.5 12.7 2 3 1.6 6 3.4 9.7 3.6"/><path id="path3042" fill="#ffd700" d="M300 113.2a22.3 22.3 0 1 1 0 44.6 22.3 22.3 0 0 1 0-44.6"/><path id="path3044" fill="#ffd700" d="m283 242.5-.8.9-1 .9-.8.9-.8.9-.8.9-.7.8-.4.5-.3.4-.3.4-.2.5-.3.4-.2.4-.2.4-.1.3-.2.4v.3l-.1.4v1.1l.2.3.2.2.2.2.2.2.3.2h.4l.3.2h.9l.3-.2.3-.1.2-.2.2-.3.3-.2.2-.3.2-.3.3-.4.2-.4.2-.4.2-.4.1-.5.2-.5.2-.5.1-.5.3-1 .3-1.2.2-1.1.2-1.2.2-1.2z"/><path id="path3046" fill="#ffd700" d="m290.4 250.5-1.2.3-1.2.2-1.1.3-1.1.3-1.1.3-1 .4-.5.2-.4.2-.5.2-.4.2-.4.2-.4.2-.3.2-.3.2-.3.2-.2.2-.3.3-.1.2-.2.3v.2l-.2.3v.8l.2.2.2.3.2.3.2.2.2.2.3.1.2.1h1.5l.4-.2.3-.1.4-.2.3-.2.4-.3.4-.2.3-.3.4-.3.4-.3.3-.4.8-.7.8-.7.8-.8.7-.9.7-.8z"/><path id="path3048" fill="#008000" d="m273.7 252.3-1 .6-1 .5-1 .6-1 .6-1 .6-.9.6-.4.3-.4.3-.3.3-.4.3-.3.3-.3.3-.3.3-.2.2-.2.3-.2.3-.1.3-.1.2-.1.3v.8l.1.2.2.2.1.3.3.2.2.2.3.1.3.1h.3l.2.1h.6l.3-.2.3-.1.3-.2.3-.2.3-.2.2-.3.3-.3.3-.3.3-.3.2-.4.3-.4.3-.4.3-.4.5-.9.5-.9.5-1 .5-1 .5-1z"/><path id="path3050" fill="#008000" d="m280 260.5-1.1-.2h-1.2l-1.2-.2h-4.3l-.5.1h-.5l-.4.2h-.4l-.4.2h-.4l-.3.2-.3.1-.3.2-.2.2-.3.2-.1.2-.2.2v.2l-.1.3v.9l.1.3.2.3.2.2.2.2.2.2.2.1.3.1.3.1h1.7l.4-.2h.5l.4-.2.4-.2.5-.1.4-.2.5-.2 1-.5 1-.5.9-.5 1-.6 1-.5z"/><path id="path3052" fill="#008000" d="m297 236.6-1 .7-.9.7-1 .8-.8.7-.8.8-.8.7-.4.4-.3.4-.3.3-.3.4-.3.3-.2.4-.2.3-.2.4-.2.3v.3l-.2.3v1.4l.2.2.2.2.2.2.2.2.3.1.3.2h1.2l.2-.2.3-.1.3-.2.2-.2.3-.3.2-.3.2-.3.3-.3.2-.4.2-.4.3-.4.2-.4.2-.5.2-.4.3-1 .4-1 .4-1 .3-1.2.3-1z"/><path id="path3054" fill="#008000" d="m286.6 232.7-.5 1.1-.4 1.2-.4 1-.3 1.2-.3 1-.3 1v.6l-.2.5v.5l-.1.4v2.4l.1.3.1.2.1.3.2.2.2.2.2.2.2.1.3.1h1.2l.3-.1.3-.2.2-.1.2-.2.1-.3.2-.2.1-.3.1-.3v-.4l.2-.4v-2.1l-.1-.5v-.5l-.1-.5-.2-1-.2-1-.3-1.1-.3-1.1-.3-1.1z"/><path id="path3056" fill="#008000" d="m286.4 218.6-.1 1.4-.1 1.3v1.4l-.1 1.3v3.1l.1.6.1.5.1.5.1.5.1.5.1.5.2.4.1.4.2.3.2.3.2.3.2.3.3.1.2.2.3.1h1.3l.4-.2.3-.1.3-.2.2-.3.2-.2.1-.3.1-.3.1-.4V229l-.1-.4-.1-.5-.2-.4-.1-.5-.2-.5-.2-.5-.2-.5-.3-.6-.5-1-.6-1.2-.7-1-.6-1.1-.7-1.1z"/><path id="path3058" fill="#008000" d="m298.8 221-.7 1-.7 1-.6.9-.7 1-.6 1-.5.9-.2.4-.2.5-.2.4-.2.4-.2.4-.1.4-.1.4-.1.4v.4l-.1.3v.9l.1.3.2.2.1.2.2.2.2.1.3.2h.3l.3.1h.9l.3-.1.2-.2.2-.2.3-.2.2-.2.1-.3.2-.3.2-.4.1-.3.1-.4.1-.4.2-.5v-.4l.1-.5.1-.5v-.5l.2-1z"/><path id="path3060" fill="#008000" d="m295.7 205.3-.4 1.3-.3 1.3-.4 1.3-.3 1.3-.2 1.2-.2 1.2-.1.6v.6l-.1.5v2.4l.1.5.1.3.1.4.2.3.1.2.2.3.2.2.3.2h.3l.3.2h1.1l.3-.2.3-.1.3-.2.2-.2.2-.2.2-.3.2-.3v-.4l.2-.3v-2.8l-.1-.5-.1-.6-.1-.5-.2-.6-.3-1.1-.3-1.2-.4-1.3-.4-1.1-.5-1.2z"/><path id="path3062" fill="#008000" d="m281.3 207 .5 1.3.5 1.3.5 1.3.6 1.2.5 1.1.6 1 .3.6.3.5.3.4.3.5.3.4.4.3.3.4.3.3.3.3.3.2.3.2.3.2.3.1h.3l.3.1h.3l.3-.1.3-.1.3-.2.3-.3.2-.2.2-.3.2-.3.1-.3v-1.3l-.2-.4-.1-.3-.2-.4-.3-.4-.3-.3-.3-.4-.3-.3-.3-.4-.4-.4-.4-.3-.5-.4-.4-.4-1-.7-1-.7-1-.7-1.1-.7-1.1-.7z"/><path id="path3064" fill="#008000" d="m281.7 197.1.5 1.3.5 1.2.6 1.3.5 1.2.6 1.1.6 1.1.3.5.3.5.3.4.3.5.3.4.3.4.3.3.3.3.3.3.3.2.3.2.4.2.3.1h.3l.3.1h.6l.2-.2.3-.2.3-.2.3-.3.2-.3.1-.3.1-.3v-.3l.1-.4v-.3l-.1-.3-.1-.4-.2-.3-.2-.4-.2-.3-.3-.4-.3-.3-.3-.4-.4-.4-.4-.3-.4-.4-.4-.4-.5-.3-1-.8-1-.7-1-.7-1.1-.7-1.1-.6z"/><path id="path3066" fill="#ffd700" d="M310.4 168.2c1 3.6 1.8 6.9 4.7 8.7a15 15 0 0 1-1-9.7c.5-3.4 1-7-2-11.7l-2.5 1.3c4.1 5 1.2 6.8 2.4 10.5-1.5-1.8-.4-6-4-9.8l-2.3.6a23 23 0 0 1 4.7 10.1m-26.2-2.2c-1.8 3.2-3.5 6.1-2.8 9.5 1.4-4 3.8-5.7 6.2-7.6 2.7-2 5.5-4.2 6.8-9.7l-2.6-.8c-.7 6.4-4 5.6-5.8 9 .2-2.2 4-4.4 4-9.8l-2-1c-.2 4-2 7.3-3.8 10.4m-17-20.1c-3.5 1-6.8 1.8-8.6 4.7 3.7-1.8 6.7-1.4 9.7-1 3.4.5 6.9 1 11.7-2l-1.3-2.4c-5 4-6.8 1.1-10.5 2.3 1.8-1.5 6-.3 9.8-4l-.7-2.3a23 23 0 0 1-10 4.7m2.3-26.2c-3.2-1.8-6.2-3.5-9.5-2.8 4 1.4 5.7 3.8 7.5 6.2a15 15 0 0 0 9.8 6.8l.8-2.6c-6.5-.7-5.6-4-9-5.8 2.2.2 4.4 4 9.7 4l1.1-2c-4-.2-7.3-2-10.4-3.8m20-17c-.9-3.5-1.8-6.8-4.6-8.6 1.7 3.7 1.3 6.7 1 9.7-.6 3.4-1 7 2 11.7l2.4-1.3c-4-5-1.1-6.8-2.3-10.5 1.4 1.8.3 6 4 9.8l2.3-.6c-2.8-3-3.8-6.7-4.7-10.1m26.3 2.3c1.8-3.2 3.5-6.2 2.8-9.5a15 15 0 0 1-6.2 7.6 15 15 0 0 0-6.9 9.7l2.7.8c.7-6.4 4-5.6 5.8-9-.3 2.2-4 4.4-4.1 9.8l2 1a23 23 0 0 1 3.9-10.4m16.9 20.1c3.6-1 6.9-1.9 8.7-4.7a15 15 0 0 1-9.7 1c-3.4-.5-7-1-11.8 2q.8 1.2 1.3 2.4c5.1-4 6.9-1.1 10.6-2.3-1.8 1.5-6 .3-9.9 4l.7 2.3a23 23 0 0 1 10-4.7m-2.2 26.2c3.2 1.8 6.1 3.5 9.5 2.8a15 15 0 0 1-7.6-6.2c-2-2.8-4.2-5.6-9.7-6.8l-.9 2.6c6.5.7 5.7 4 9.1 5.8-2.2-.2-4.5-4-9.8-4.1l-1 2a23 23 0 0 1 10.4 3.9M277 131l-23 4.5 23 4.5q-.4-1.8-.4-3.6l-9-.9 9-.9q0-1.8.4-3.6m3.5 17.5-13 19.4 19.4-13-2.9-2.3-6.9 5.7 5.7-7q-1.3-1.2-2.3-2.8m14.9 9.9 4.5 23 4.5-23q-1.8.3-3.7.4l-.8 9-.9-9q-1.9 0-3.6-.4m17.5-3.5 19.4 13-13-19.4-2.3 2.9 5.7 6.9-7-5.7q-1.2 1.2-2.8 2.3m9.9-14.9 23-4.5-23-4.5q.4 1.8.4 3.6l8.9.9-8.9.9q0 1.8-.4 3.6m-3.5-17.5 13-19.4-19.4 13 2.9 2.3 6.9-5.7-5.7 7q1.2 1.3 2.3 2.8m-14.9-9.9-4.5-23-4.5 23q1.7-.4 3.6-.4l.9-9 .8 9q2 0 3.7.4m-17.5 3.5-19.5-13 13 19.4q1.1-1.5 2.4-2.9l-5.7-6.9 6.9 5.7z"/><path id="path3068" fill="#000000" d="M295.4 142.6c3.7-9.7-.5-16.6-4.9-17-2.6-.4-5.5 1.4-6.3 6.6l-2.9-2.3c1.6-4 5.6-6.3 9.3-6.1 5.1.3 9.7 5.4 6.9 17.3h5c-2.9-12 1.8-17 6.9-17.3 3.7-.2 7.7 2 9.2 6l-2.8 2.4c-.9-5.2-3.8-7-6.3-6.7-4.4.5-8.6 7.4-4.9 17.1z"/><path id="path3070" fill="#000000" d="M306.6 148.6c.7-.2 1.4-.4 2-1.6l-1 .4a4 4 0 0 1-4-1.2q-.7-.5-1.2-.6-.7.1-1 1.1c-.4.6-.8 1.4-1.4 1.4s-1-.8-1.4-1.4q-.4-1-1-1t-1.2.5c-.7.7-1.9 1.6-4 1.2l-1-.4c.5 1.2 1.3 1.4 2 1.6l2.2.5q.6 1.3 1.8 2a3 3 0 0 0 2.6-.4 3 3 0 0 0 2.6.3q1.2-.5 1.8-1.9zm-1.7-.5q-2 .4-3.9.5.7-.7 1-1.4l.5-.7.5.4q.6.7 1.9 1.2m-6 .5q-2 0-3.8-.5 1.2-.5 1.9-1.2l.5-.4.4.7zm-2.2.7q3.3.5 6.6 0-.4.6-1 .9-1.3.3-2.3-.6-1 .9-2.3.6-.6-.3-1-1"/><path id="path3072" fill="#000000" d="M292.7 132.3q-.1 1.4-1.1 2 1.9-.5 3-2-1-1.4-2.9-1.9 1 .7 1 2m-4.7 0q0-1 .8-1.8-1.5.6-2.5 1.8 1 1.5 2.7 1.9-1-.7-1-1.9m7.7 0a6.1 6.1 0 0 1-10.5 0 6.1 6.1 0 0 1 10.5 0m-6.5.2a.5.5 0 1 0 1 0 .5.5 0 0 0-1 0m21.6-2q1.8.4 2.9 1.8-1.2 1.5-3.1 2a2.3 2.3 0 0 0 .2-3.9m-2.8 3.7q-1.6-.5-2.7-1.9 1-1.2 2.5-1.8a2.3 2.3 0 0 0 .2 3.7m1.5-4.8a6 6 0 0 0-5.3 3 6.1 6.1 0 0 0 10.6 0q-1.7-2.9-5.3-3m-.8 2.6a.5.5 0 1 1 0 1 .5.5 0 1 1 0-1"/><path id="path3074" fill="#ffd700" d="M291.6 210.3a1.6 1.6 0 1 1 0 3.2 1.6 1.6 0 0 1 0-3.2m1.3 10.8a1.6 1.6 0 1 1 0 3.2 1.6 1.6 0 0 1 0-3.2m-1.6 13.5a1.6 1.6 0 1 1 0 3.2 1.6 1.6 0 0 1 0-3.2m-6.2 12.6a1.6 1.6 0 1 1 0 3.1 1.6 1.6 0 0 1 0-3.1m-9.2 8.4a1.6 1.6 0 1 1 0 3.2 1.6 1.6 0 0 1 0-3.2m5.8-58.5a31 31 0 0 0 5.4 10.2c1.1 1.2 2.6 2 4 .8 1.3-1.4.7-2.8-.4-4.3-2.3-2.9-5.9-4.8-9-6.7m1.4 45.5a33 33 0 0 0-6.5 7.4c-.8 1.4-1.6 3.4.3 4.4s3.3-1 4-2.6q1.8-4.4 2.2-9.2m7.2 8c-3 .6-6.5 1.2-9.2 2.9-1.4.8-2.7 2.2-1.3 3.7 1 1.1 2.3.8 3.5 0 2.8-1.5 5-4.2 7-6.7m-16.6 1.7c-2.8 1.5-5.8 3-8 5.3-1 1-2 2.4-.5 3.6 1.3 1 2.6.4 3.6-.7 2.3-2.3 3.6-5.4 5-8.2m6.3 8.2c-3-.4-6.5-.8-9.6 0-1.7.4-3 1.1-2.6 2.8.5 1.7 2.4 1.7 3.8 1.3 2.9-.7 6-2.6 8.4-4.1m17-23.9c-2.4 1.8-5.1 3.7-6.9 6.3-1 1.4-2 3.3.1 4.2 1.5.7 2.7-.6 3.5-1.7 1.7-2.7 2.4-5.7 3.3-8.8m-10.4-3.8a34 34 0 0 0-2.5 8.9c-.2 1.5 0 3.6 2 3.6 1.9-.1 2.3-1.7 2.3-3.3 0-3.1-1-6.3-1.8-9.2m-.2-14.2c-.3 3.5-.6 7.2.1 10.6.4 2.1 1.3 4 3.4 3.4s2-2.6 1.5-4.5a36 36 0 0 0-5-9.5m12.4 2.4c-1.8 2.5-3.7 5-4.8 8-.5 1.5-1 3.4 1 4 1.8.5 2.7-1 3.1-2.6q1-4.5.7-9.4m-3-15.7a37 37 0 0 0-2.1 10.4c0 1.7.3 4.1 2.6 3.9 2.1-.2 2.4-2.2 2.3-4-.2-3.5-1.6-7-2.9-10.3m-14.5 1.8c1.3 3.3 2.7 7 5 9.8 1.3 1.4 2.7 2.5 4.3 1.1 1.4-1.2.7-2.9-.4-4.2-2.2-2.9-5.8-4.9-9-6.7"/><path id="path3076" fill="#ffd700" d="m240.7 172.2-.2 5.4c20.8.5 42.7 5.3 53.3 24.7-1-8.3-9.7-15.5-17.3-20q-3.6-2-7.9-3.7-13.6-5.2-27.9-6.4m47.5 25.4c-11.6-14.7-31.8-18.8-49.9-18.6v4.7a83 83 0 0 1 49.9 13.9m-51.6-12.3-.1 5.3c16 .2 34.7 1 47 13.2-7.4-15.5-31.2-19.2-47-18.5m14.8 7.3q-8.7-.8-17-.5l-.1 4.5c14.5-1.3 36-.7 45.2 9.2-7.2-12-25-13-28.1-13.2"/><path id="path3078" fill="#ffd700" d="m359.3 172.2.2 5.4c-20.8.5-42.7 5.3-53.3 24.7 1-8.3 9.7-15.5 17.3-20q3.6-2 7.9-3.7 13.6-5.2 27.9-6.4m-47.5 25.4c11.6-14.7 31.8-18.8 49.9-18.6v4.7a83 83 0 0 0-49.9 13.9m51.6-12.3.1 5.3c-16 .2-34.7 1-47 13.2 7.4-15.5 31.2-19.2 47-18.5m-14.8 7.3q8.7-.8 17-.5l.1 4.5c-14.5-1.3-36-.7-45.2 9.2 7.2-12 25-13 28.1-13.2"/><path id="path3080" fill="#ffd700" d="M308.5 210.3a1.6 1.6 0 1 0 0 3.2 1.6 1.6 0 0 0 0-3.2m-1.4 10.8a1.6 1.6 0 1 0 0 3.2 1.6 1.6 0 0 0 0-3.2m1.6 13.5a1.6 1.6 0 1 0 0 3.2 1.6 1.6 0 0 0 0-3.2m6.2 12.6a1.6 1.6 0 1 0 0 3.1 1.6 1.6 0 0 0 0-3.1m9.2 8.4a1.6 1.6 0 1 0 0 3.2 1.6 1.6 0 0 0 0-3.2m-5.8-58.5a31 31 0 0 1-5.4 10.2c-1.1 1.2-2.6 2-4 .8-1.3-1.4-.7-2.8.4-4.3 2.3-2.9 5.9-4.8 9-6.7m-1.4 45.5q3.8 3.2 6.5 7.4c.8 1.4 1.6 3.4-.3 4.4s-3.3-1-4-2.6a33 33 0 0 1-2.2-9.2m-7.2 8c3 .6 6.5 1.2 9.2 2.9 1.4.8 2.7 2.2 1.3 3.7-1 1.1-2.3.8-3.5 0-2.8-1.5-5-4.2-7-6.7m16.6 1.7c2.8 1.5 5.8 3 8 5.3 1 1 2 2.4.5 3.6-1.3 1-2.6.4-3.6-.7-2.3-2.3-3.6-5.4-5-8.2m-6.3 8.2c3-.4 6.5-.8 9.6 0 1.7.4 3 1.1 2.6 2.8-.5 1.7-2.4 1.7-3.8 1.3a32 32 0 0 1-8.4-4.1m-17-23.9c2.4 1.8 5.1 3.7 6.9 6.3 1 1.4 2 3.3-.1 4.2-1.5.7-2.7-.6-3.5-1.7-1.7-2.7-2.4-5.7-3.3-8.8m10.4-3.8q2 4.2 2.5 8.9c.2 1.5 0 3.6-2 3.6-1.9-.1-2.3-1.7-2.3-3.3 0-3.1 1-6.3 1.8-9.2m.2-14.2c.3 3.5.6 7.2-.1 10.6-.4 2.1-1.3 4-3.4 3.4s-2-2.6-1.5-4.5c1-3.4 3-6.5 5-9.5m-12.4 2.4c1.8 2.5 3.7 5 4.8 8 .5 1.5 1 3.4-1 4-1.8.5-2.7-1-3.1-2.6q-1-4.5-.7-9.4m3-15.7c1.1 3.4 2.1 6.8 2.1 10.4 0 1.7-.3 4.1-2.6 3.9-2.1-.2-2.4-2.2-2.3-4a33 33 0 0 1 2.9-10.3m14.5 1.8c-1.3 3.3-2.7 7-5 9.8-1.3 1.4-2.7 2.5-4.3 1.1-1.4-1.2-.7-2.9.4-4.2 2.2-2.9 5.8-4.9 9-6.7"/><path id="path3883" d="M202.5 74.7v134.5a97.6 97.6 0 0 0 195 0V74.7zm5 5h185v129.5a92.5 92.5 0 1 1-185 0z" stroke="#000000" stroke-miterlimit="4" stroke-dasharray="none" stroke-width="1" fill="#ffd700"/><!-- app4joy --></svg>