<svg id="svg2" height="283.465" width="425.1963" viewBox="0 0 425.1963 283.465" xmlns="http://www.w3.org/2000/svg"><g id="g2"><path id="path4" d="M0 0h425.2v283.5H0z" fill="gold"/><path id="path6" d="M0 0h212.6v283.5H0z" fill="#C42C48"/></g><g id="g1"><path id="path8" fill="black" d="m96.8 175-12.5 51.2c-7.5-11.9-9.5-21.7-3.3-28.8.9.6 2.6 1.3 3.5 2 4.9-12 9.3-22.5 12.3-24.3m20.9 0 12.4 51.6c7.5-11.9 8.7-24 2.6-31l-4 3c-4.9-12-8-21.7-11-23.5m12.4-38c-7.3 14.5-4.7 29.7 12.2 45.8 4-15 1.6-30.2-12.2-45.8m-47 .6C90.7 155 88.7 169 71.6 183c-2-17.1-.7-31.3 11.6-45.2m51.8-69a89 89 0 0 1 55.7 83.7 89 89 0 0 1-57.4 84.4l.4 3.5c-4.3 1.2-8 1.7-12.4 3 .3 2.4 0 5.6.2 8q-14.5 2.2-29.2.4l1.2-8.5-11-2.1v-3.7a89 89 0 0 1-59-85A89 89 0 0 1 80.7 68c11.5-4-4.1-29-12.8-9.4-11.3-16-2-31.6 19.3-27.6 15.4-9.7 30.3-4.5 36.7 4.5C129.3 43 127.7 58 131 66c.5 1.1 2.7 2.2 3.8 2.6m-34.4-34a2.7 2.7 0 1 1 0 5.4 2.7 2.7 0 0 1 0-5.3" fill-rule="evenodd"/><path id="path10" d="m100.7 189.4-5.3 60.2 24-.4-6.3-59-6.2 12.2zm-73-47.9c4.2-27.3 31.7-53.3 51.8-53.4 4.2-.2 1.9 22.2-9.4 36-3-3.1-4.1-10.3-4.7-18.6q-7.5 16.4-15.7 24.3c-3-4.6-2.4-10.5-5.4-12.2-3.6 5.9-11.3 20.2-16.7 23.9m38.2-89.7c-4.2-13.9 6-20.8 16.2-19 10.3 1.6 11.4 10.2 18.2 10.8 6.9.7 6.7-5 5.8-8 1.2-.8 2.2-.7 3.3-1-11.4-2.1-11.6 1-16 1.5s-5.2-4.4-2.7-5.6c8.5-4.1 23.5-3.4 30.7 4.6 5.7 6.3 3.8 19.7 5.8 30.4.5 3 2 2.7 4.7 4 36.1 16.2 49 37.7 54.1 60.8C171.2 95 134 81.9 130.6 87.5c-3.5 5.5 1 26.5 13.2 38.5 3.2-2.7 5.3-7.5 5.6-13 4.2 7.2 9.1 14 15 19.2q3.2-6.1 4.5-12.7c5 11.9 17.7 20.4 18 30.4-3.6-8.3-12.3-13.3-16.8-23.4-2 3.2-2.4 9.4-3.7 14.1-3.7-7-11-10.3-16.4-21.1-2.2 4.3-1.7 10.6-2.4 15.6L132 114q-3 10-3.3 22c-1.7 2.7-2.6 8-3.9 14.9-.2-5.3-.5-12-1.4-16.4-5.1 25.3 7.9 37.1 18.7 49.8l-3.4 5.2c14 19.2 23.7-5.6 34 .5q-3 2-2.4 5.8-10-.9-15.8 5.2c5-2 9-2.7 11-1q-1.9 2.1-1.2 6c-7-2.5-12.5-1.7-17 .8 5.8-.5 10.5.1 13 3.3q-4.3 1-4.8 3.4c-9-5-14.7.7-18.2 13.9-.8-1-1.8-1.8-4.3-1.5 7-13.5 7.6-24.4.5-32l-3.7 2.3c-6-17.5-10.3-22-15-27.2l17 69.5-11.2 2.3-6.8-54.6-6.7 13-7.1-14c-2.3 18.4-4.4 37.5-6.6 55.9l-9.2-1.3c-2.7-3 9.1-43.6 15.8-70.8-10.4 7.4-11.6 18.3-15.5 28-1.1 0-2.4-1-3.5-1.7-7.8 6.2-6.7 17.5 1.7 32q-3.2-1-5.2 2c-3.9-10.2-6.8-22.2-18.7-14.9-.7-1.7-1.6-3.2-4.3-2.8 1.6-3 5-4.8 12-4.4-3.1-2.6-8.4-3.1-16.8-.4q1.5-3.6-1-5.8 5.6-1.2 11 0-4.5-5.4-15.7-4.8c.7-3.5-.7-4.6-2.4-5.2 5-5.5 23.9 17.3 32.5-1.5l-2-5.2c17.3-12.6 20.7-30 19.2-49.3a69 69 0 0 0-1.9 16.5c-3.6-10.2-5.7-25.7-7.6-37.2A53 53 0 0 1 66.3 134c-.3-10.8-1.8-14.4-3.8-14.8.6 2.3-6.2 8-15.3 21.5a48 48 0 0 0-3.8-16.7c-1.3 8.6-10.4 16.6-15.8 25.8-.7-8.3 9.8-16 17-31.2 1.6 4.1 3 9.8 4.5 14 5.5-6.2 11.4-14.8 15.2-22.6.8 4.2 1.7 11 5.4 16.8 12.6-13.7 16.8-36.4 12-40.2-13-5.7-44.2 19-52.7 42.6a76 76 0 0 1 34.7-50.5C72 73 90.2 70 87.9 61c-1.3-5-3.8-9.7-12.2-11.9 5.3-1.8 9.4.4 13.8 3.6s6.3-1.8 3.2-4c-3.1-2.1-17.4-9.7-26.8 3M89.3 38c.9 6.3 12.3 8.5 5.4 17.5C98.3 46.8 87 44 89.3 38m3.6 54c4.5 8.7 7.5 10.7 13.7 15.2 7.7-6.6 10.2-8.5 14.3-15.6-6.6 6.7-10 9.1-14.3 11.3a47 47 0 0 1-13.7-11m-6-8.2a51 51 0 0 0 19.7 26.2 51 51 0 0 0 19.5-26.6 62 62 0 0 1-19.5 17.8C96.8 96 92.1 89.9 87 83.8M75.4 47.1c3.7-1.7 14.6.3 17 3 2.5 2.6-.8 3.3-2.5 1.5s-5.7-4.8-14.5-4.5m21.4-10.6c-.5.2-1.3-.1-1.4.8-.3 4.4 5.1 6.7 8.2 4.6 1.6-1.1 2.6-3.4 1.8-7.1-.6.1-2-.2-1.7.4 1.8 6.1-6.2 7.8-7 1.3m90 104.6c-4.2-27.3-32.6-53-52.7-53-4.3-.2-3 21.6 10.2 35.9 3-3.2 4.3-10 4-18.5a67 67 0 0 0 15.5 24.3c3-4.6 4.2-10.8 5.2-14.6a77 77 0 0 0 17.9 26M133 118.7a72 72 0 0 0-2.2 17.5c14.3 15.4 20.9 32.5 10 52.6a51 51 0 0 0 7.4 6.8c17.3-18.8 11.5-49.2-15.2-76.9m17.5 3.5c-.5 1.3-1 3.6-1 13 17.2 32.2 9 48.3 1.3 60.6 21.5-6.4 24.5-24.7 17.4-49-2.8-9.5-10.2-12-17.7-24.6m20 7.2q-2 5.6-2.6 12.7c8.3 15.2 8.2 34.8-3.3 47.3 6-2.4 11.3-3.2 12.6 7.1 11.8-25.3 10.5-38.5 9.6-45-5.7-11.3-12.1-12.9-16.3-22.1m-34 99.8q-.7-2.2-3.7-1.6-2.1 5.5 4.3 6-2.1-2.1-.6-4.4m20.2-14.5c.2-1.9 2.8-3.4 4.2-3.2 1.3 3.5.2 6.4-2.4 8 .7-2-.3-3.9-1.8-4.9m8.9-8.7c-1-1.6 0-4.3 1.3-5 3 2 3.3 5 2 7.8q-.7-3-3.3-2.8m6.1-10.3c-.4-1.8.8-4.1 2.2-4.3q3.7 4.3.7 7.8-.1-2.9-2.9-3.5m-11.4 2.7c11.7-3.4 16.5-1.7 11.2 7.5-1.5-7-6.3-7.4-11.3-7.5m-8.3 7.7c5.2-.6 10.3-.2 15.5 2.6.7 1.6-1.5 4.3-5 7.5.2-7.5-4.2-10-10.5-10m-14.7 26.3q0-3.6 2.6-5c2-11 6-17.9 17.6-10.4.8 3-6.8 9.5-13.5 12.9-2.6 1.3-4.7 2.8-6.7 2.5M80.9 118.7a72 72 0 0 1 2.2 17.5 49.5 49.5 0 0 0-10.7 54c-2.2 2.5-4 3.4-6.7 5.4-11.5-12.5-12.2-31.6-4-50 4.2-9.4 11.2-14 19.2-26.9m-17.6 3a36 36 0 0 1 1.8 13.7c-17.3 32.3-9.8 48.1-2 60.4-21.5-6.4-24.5-24.7-17.4-49 2.8-9.5 10-12.7 17.6-25.2m-20 7.7A51 51 0 0 1 46 142c-8.3 15.2-8.2 34.8 3.3 47.3-6-2.4-12.3-.6-11.7 8.2-11.8-25.4-11.3-38-10.3-44.6 5.7-11.3 12-14.4 16-23.6m35.1 100.4q.9-2.1 3.7-1.6 2.2 5.5-4.2 6 2-2.1.5-4.4m-20.3-14.3c-.2-1.8-2.8-3.3-4.2-3-1.3 3.4-.2 6.3 2.4 7.9-.7-2 .3-3.9 1.8-4.9m-9.3-8.8c1-1.6 0-4.3-1.3-5-3.1 2.1-3.3 5-2.1 7.9q.8-3 3.4-2.9m-5.9-10.4c.4-1.8-.8-4.1-2.2-4.3q-3.6 4.3-.7 7.8.2-2.9 3-3.5m11.8 2.7c-11.7-3.4-16.5-1.7-11.2 7.5 1.5-7 6.3-7.4 11.2-7.5m8 7.6c-5.2-.7-10.4-.2-15.6 2.5-.6 1.6 1.6 4.3 5 7.6-.1-7.6 4.2-10 10.6-10.1M77.3 233q0-3.6-2.5-5c-2-11-6-17.9-17.6-10.4-.8 3 6.8 9.5 13.5 12.9 2.6 1.3 4.6 2.8 6.6 2.5" fill="#ffd700" style="display:inline"/></g><!-- app4joy --></svg>