<svg viewBox="0 0 900 600" id="svg55" height="600" width="900" xmlns="http://www.w3.org/2000/svg"><g id="g57"><path d="M0 0h900v600H0z" id="path1" style="fill:#d4af35"/><path fill="#205aa9" d="M18.1 19.6H882v560.8H18.1z" id="path2"/></g><linearGradient id="A" x1="469.64" x2="469.64" y1="106.63" y2="130.78" gradientUnits="userSpaceOnUse"><stop offset="0" stop-color="#7e5827" id="stop48"/><stop offset="1" stop-color="#010101" id="stop49"/></linearGradient><g id="g56"><g id="g25" style="fill-rule:evenodd"><g stroke-width=".33" id="g4" style="stroke:#010101;stroke-miterlimit:1.3032"><path fill="#d5af31" d="M471.7 83.2c-25.4-.1-39.3 18.7-40 39.2-.5 22 10.3 33.8 25.8 37.8.5-2 .6-4 .7-7.1-22.9-5.8-13.5-50.4 11.6-50.3 22.2 0 35.6 41.8 11.2 50.5q0 4.5 1 7.3c16.7-3.8 27.4-16.3 27.6-38a38.4 38.4 0 0 0-37.9-39.4z" id="path3"/><path d="M471.1 86.5c20.2 0 36 16.9 36 37.3s-16.4 35.6-36.6 35.6-36-13.1-36-36a36.6 36.6 0 0 1 36.6-36.9z" id="path4" style="fill:#fed500"/></g><path d="M452.8 169.1c5.7-4 6.6-7.5 7-13.7a17 17 0 0 0 19.5.9c.6 7 2.6 10.1 8 12.4-.8 6.4-33 6.7-34.5.4m98.9 97.5c0-1 0-7.6 1.5-7.6 3.6.2 1.6 25.2 1.8 29.6.3 4.3-.3 5.5-3.7 5.5-7.4.1-3-21.9-4.6-34.6-.2-2.2 1.9-1.4 2.4-1 1.7 1.3 1.1 22.5 1.7 22.6 1 .3 1-11.3.9-14.5" id="path5" style="fill:#fff"/><g id="g7" style="stroke:#010101"><path d="M510.5 168.5 521 155c-12.6-30.2-1.8-81.6 32.3-65.2 56 30 30.7 162 32.3 208 1.6 45 5.1 94 15.3 129.6-3-1.3-9-.4-10.2-.4.9 11.5 5.3 22.5 7 30.3-12.9-.2-24.5-17.3-29.6-30.2l-4.5 4.2-.8-5.2 5.2-4.8c-11.1-25.2-19.1-40.9-24.3-132.6 10.1-15.1 13-32.8 10.1-64-2.4-26.8-7.9-57.3-43.5-56.2z" id="path6" style="fill:#d4af35"/><path d="M564.7 245.8c-1.9.3-.5-12.6-1-24l-3.9.7c.7 26.2-2.8 42.8 5.1 41.7 7-1 4.8-9.7 5.4-43.5l-4 .8c-.4 13 1.2 23.8-1.6 24.3z" id="path7" style="fill:#fff"/></g><path d="M401 218.9c-49.4 52.1-30 18.9-51 40.1-6.3 6.5-1.8 13.6 5.4 19.3 8.5 6.8 12.4.3 15.7-6.2 4-2 5.6-4.8 6.6-8.7 7-4.2 12.8-6.6 21.4-13.5-.2 10.3-5 98.4-6.5 109.2a215 215 0 0 0 26.6 82.2l7.1 7.4a542 542 0 0 0 1.5 26.2c2 21.4-21.7 15.5-22.2 41.8 32.2-3.4 22-8.7 40-19.5 13.7-8.3 1-12.9 5.4-34.4 9.9 5 25 6 31.7 5.2.3 7-8.1 17.2 4.2 23.7 7.7 4.1 10 23 36.1 18.8.7-21.2-20.7-14-21.6-46.6 9.4-2 46-22.3 67.3-42.3-12.7-27-18.3-41.2-24.4-132.8 12.2-20.5 12.6-38.9 10.8-64-11.8-95.8-73.2-29.6-74.2-71.6 24.5-8.6 11.1-50.2-11-50.2-25.2-.2-34.2 44.4-11.5 50.1-.6 37.5-39.6-19.3-57.3 65.7" id="path8" style="fill:#010101"/><g id="g10" style="fill:#fff;stroke:#010101"><path d="M539.6 179.5a75 75 0 0 1 6.4 9.5c8.7.7 2.6-24-3.4-53.1l-1.9 5c4 23.2 6.2 33 3.3 33.7-1.6.3-3-16.2-5.3-30l-2.7 8.5c3.8 22.7 3.6 26.4 3.6 26.4zm5-47.5c7.5 27.4 11.6 44 17 40.7 9.7-6.2-.1-33.7-12.6-51.5l-1.7 3.8c4 8.8 13.4 32.1 10.6 33.6-1.4.8-6.6-18-11.8-30.8z" id="path9" style="stroke-linejoin:round"/><path d="M567.6 320.7c-6.5.8-7.3-15.2-8.1-50l3.3-.7c.6 8.8-.5 27.2 2 27 2.8-.3 1.7-11.5 1.4-27.6l3.7-.9c.5 33.8 4.2 51.3-2.3 52.2zm-14 9.5c-1.7 0-1.5-18.4-2.5-25.8l-3.5.5c3.5 43.8 3.1 50.8 8 50.6 6.3-.4 4.4-7 1.3-51.8l-3.5.3c.6 8.9 2.6 26.2.1 26.2zm3.8 55.5 6 19.8c3.4-1.7 3.2-6-4.7-45l-3.8.8c2.6 13 5.4 23.6 2.5 24.4zM550 276.1c1-2.4 2.2-7.4 3.5-10.9 1.8 23.3 2.2 33.1-2.8 34-5.4.8-4.5-5.6-5.3-12.9l2.4-5.3c.8 2.1.4 7 1.7 6.3 1.7-.9.9-9 .5-11.2z" id="path10"/></g><path d="M427 220.8s0 1.7 2.3 2c-.5 15.6 2.5 27.2-.2 35.6-4.6 14.3-9 28.8-15.5 109.8-.6 7.3 7 9.3 9.5 10.6 2.4 20.5 5 14.7 5 20-.2 2.7-2.6-2.6-1.9 47.6L420 440c-14.2-25-23-54.3-25.9-80.4 3.8-48.2 5.2-81.8 6.5-110.8q11.5-7.4 20.4-15c3-5.9 4.9-8.9 6-13" id="path11" style="fill:#9b1b2c"/><g id="g19" style="stroke:#010101;stroke-miterlimit:1.798;stroke-width:.08"><path d="M453.9 413.8c2.5 16.5-18 26.4-26 19.9-1-14.7.6-28.3.6-28.3 14.5-3.8-1.3 2.3-3.3-26.2 9.6 3 16.6 3 27.8 3 3.2 14.2-9.4 21.2.9 31.6z" id="path12" style="fill:#fed8ae"/><path d="m427.8 436.4.4 20.5c8.5 6.2 18.4-.1 21.1-4.3.1-10.8 4.6-18.8 3.6-25.4-3.2 5.2-15 14.9-25 9.2z" id="path13" style="fill:#fff"/><path d="M449.3 455a17 17 0 0 1-21.1 4.6c.5 6.7 1.1 13.8 1.1 19.9 5 2.6 16-2.1 18.5-6 .2-6.6 1.6-11.8 1.5-18.5z" id="path14" style="fill:#fed8ae"/><path d="M448 476.3c-3.6 2.8-7.2 6.9-19 5.8-3.1 14-20 13.8-21.8 32 27-1.2 22.6-11.7 36.2-18.3 10.2-5 5.7-10.4 4.7-19.5z" id="path15" style="fill:#fff"/><path d="M499.6 379.6a95 95 0 0 1-27.7 2.4c-1.7 18.7 6 15.6 4.3 22.5-4.8 20.3 16.8 24 24.4 13.7 1.3-7.8.8-16-1-38.6zm-4.6 20.1c.8 2.1-5 13-8.9.9 2.1 1 7 0 9-.9z" id="path16" style="fill:#fed8ae"/><path d="M476.6 419.6c-.4 6.9-.6 10.5.4 17.8 2 15.8 17.9 13.6 23.8 7l-.4-23.7c-2.4 5.2-17.6 8.4-23.8-1.1z" id="path17" style="fill:#fff"/><path d="M483.9 465.7c-1.6-6.1-2.5-9-3.3-17.2 6.8 4.3 12.6 4.2 20.2-1.5a132 132 0 0 1-1.2 18.8c-4.6 4-10.1 3.3-15.7-.2z" id="path18" style="fill:#fed8ae"/><path d="M499.8 468.1c2.9 29.2 22.6 25 21.4 40.2-22.7 3.3-25.6-14.1-33.4-18.3-11.7-6.3-3.4-12.7-3.8-21.8 6.3 3.9 11 3.1 15.8 0z" id="path19" style="fill:#fff"/></g><g id="g21" style="fill:#fff"><path d="M450.8 177.9c-1.5 1.3-3.2 2-6.8 2 .1 7.1-.9 16.3-2.7 21.8.7 3.5-.4 5.7-2.6 17.8-.6 3-1.8 3.6-7.8 3.2l.8 28.7c28.1 0 16.6 5.5 50.7 5.6a141 141 0 0 1-1.7-18.5c-3.5 1-6.8 3.1-11.5 3.1-13.8 0-26.3-9.9-26.3-24a24.7 24.7 0 0 1 24.8-25.1c5 0 9 1.6 9 1.6-7.3-4.8-14.7-10.6-25.9-16.2m32.1 81.4 1.5 6.4c-29.2 5-23-6.8-53.7-6.5l1-5.2c24 0 21 5.3 51.2 5.3m-52.8 1.8-1.9 8.2c8.3-1.3 18 8.4 26.7 16 8.3 7 30 3.6 34.4-5-2.2-3.6-3.8-9.8-4.5-12.4-35.2 4.7-18.4-6.3-54.8-6.8m41.8 29.4c-7 1-11.8-.8-16.8-2.6-3 23.3-3.8 36-5 68-.2 4 23.2 3.3 23 0zm-33.6-15.8s-10.2-7.5-11.2-1.6a633 633 0 0 0-9.8 75.5c-.6 2.8 13.1 7.4 13.4 4.4 3-42.6 7.6-78.3 7.6-78.3m10 88.7c-3.5 1.8-11 1.7-16-1.4-.4 4.8-.4 8.2-.6 14.8-1.4 3.5 16.3 4.1 16.6 2.1zm25.6-72.9c4.2-.5 10-2.7 13-5.2 0 0 7.3 49 8.4 70.3.3 3.2-19.2 4.4-19.8.4zm14.5-6.5 1.6-2.1c3.4 7.9 9 14.3 13.6 18.1l6 51.4c.5 2.6-11.9 6.6-12.5 4-1.7-21-8.8-71.4-8.8-71.4M430 361.4c-8-.7-11.2-4.8-13.3-9.4a196 196 0 0 0-1.2 18.4c0 3 14 9.9 14 6.3zm43 2.2c-2 4.7-20.6 5.1-22.8-.6q-.2 8 .5 15c.3 3.4 23 3 22.9.5zm2.7.4c2.2 3.3 20.7 2.2 20.8-1 1.1 5.7 1 7.4 1.9 13.5 1.2 1.7-16 5-22.1 2.4-.6-5.3-.4-9.3-.6-14.9m22.7-2c2.8 1.8 11.7-3.4 11.8-6.8.8 4 1.8 10 2 14-2.5 2.7-6.7 6.8-11.8 7zm-45.1-75.4c-2.3-1.8-7-8-13.5-11q-4.5 35-6.9 78c-.2 3 14.8 5.6 15 1.4 1.2-28.4 2.7-49.2 5.4-68.4m13.4-78.8c2.2 0 4.3-2.3 3.8-6.2-.5-3.7-2.5-6.9-3.8-7.2-1.4.4-3.3 3.6-3.8 7.2-.3 4 1.6 6.2 3.8 6.2m-9.3 9.5c0-2.3-2.2-4.4-6-3.8-3.7.4-6.8 2.5-7.1 3.8.4 1.4 3.5 3.4 7 3.8 3.9.4 6-1.6 6-3.8m9.3 9.5c-2.2 0-4.2 2.2-3.8 6.2.5 3.7 2.5 6.9 3.8 7.2 1.4-.4 3.3-3.7 3.8-7.2.4-4-1.6-6.2-3.8-6.2m9.3-9.5c0 2.2 1.8 4.3 5 3.8l.7-7.7s-5.4-1.4-5.7 3.9m-16-6.8c1.6-1.5 1.6-4.6-1.6-7-3-2.3-6.5-3-7.7-2.4-.7 1.3.2 5 2.4 7.8 2.5 3.1 5.5 3.2 7 1.6zm0 13.5c-1.5-1.5-4.5-1.5-6.9 1.7-2.2 3-3 6.7-2.3 7.8 1.3.8 5-.1 7.7-2.4 3-2.5 3.2-5.6 1.6-7.1zm13.7.4c-1.3 1.8-1.4 4.6 1.7 7q2.7 2 5.2 2.5V226c0 .1-3.4-6.3-6.9-1.6m-.4-13.9c1.6 1.6 4.5 1.5 7-1.7 2.2-3 3-6.7 2.3-7.8-1.3-.7-5 .2-7.7 2.4-3 2.5-3.2 5.5-1.6 7.2zm-15.1-14.1c1.6-.7 3.2-1 3.6 1s-.4 4.2-1.3 4.7c-1.1.3-3-.8-4.1-2.3-1-1.8.2-2.8 1.8-3.4m-12 29.6c-.7-1.7-1-3.3 1-3.7s4.1.5 4.6 1.3c.2 1.2-.7 3.2-2.3 4.2-1.7 1-2.7-.2-3.3-1.8m29.1 12.6c-1.5.7-3.1.9-3.6-1.1-.3-2 .5-4.1 1.3-4.7 1.1-.2 3.1.8 4.2 2.4 1 1.8-.3 2.7-1.8 3.4" id="path20"/><path d="M446.3 208.6c.7-1.6 1.6-3 3.3-1.8 1.7 1 2.6 3.2 2.4 4.1-.6 1-2.7 1.8-4.5 1.4-2.2-.5-1.8-2-1.2-3.7m12.3 29.6c-1.6-.7-3-1.6-1.8-3.4 1-1.7 3.2-2.6 4.1-2.4 1 .7 1.7 2.8 1.3 4.7s-2 1.8-3.6 1m16.7-41.8c1.6.7 3 1.6 1.8 3.4-1 1.6-3.1 2.6-4.1 2.3-1-.6-1.7-2.8-1.3-4.6.5-2.1 2-1.8 3.6-1.1" id="path21"/></g><path stroke-miterlimit="10" stroke-width=".03" d="M355.7 261.5c-5.8 4.3-7 1.1-2.3-3.3 4.7-4.3 7.6-6 15-5 10.8-10.3 23.5-21.7 33.6-32.6 1-1.3 1.2-4 1.6-5 .7 1.2 9.5 3.7 10.6 1.6.2 2.4 9.4 3.9 10.8 3.1-1.4 4.7-2.7 7-5.2 11.4-12.9 10.5-37.6 28.5-42.9 29.5-2.5 6.3-4.5 8.2-6.6 7.9-4.1-.4-8.2-8.5-14.6-7.6z" id="path22" style="stroke:#010101;fill:#fed8ae"/><path d="M482 237.5c.4 31.7 12.2 65.1 37.7 66.7 14.2.9 37-20.8 35-65.8-1.9-42.4-11.8-67.2-36.1-68.7-27-1.6-39.1 38.2-36.7 67.8m36.2-59.4c14.8 0 26.8 26.2 26.8 58.6s-12 58.5-26.8 58.5-26.8-26.2-26.8-58.5 12-58.6 26.8-58.6" id="path23" style="fill:#fed500"/><path d="M469.6 115.7c12.8 0 14.8 10 13.4 21.4-1.3 10.8-5 19-13.3 18.8-7.4-.2-12.1-8-13.8-18.8-1.9-11.7 1.5-21.4 13.7-21.4z" id="path24" style="stroke:#010101;fill:#fed8ae;stroke-miterlimit:1.798;stroke-width:.08"/><path d="M472.3 130.3c1.7-1.6 3-2.2 3.8-2.8a4 4 0 0 1 5 .3c0 .7-2 .2-2.6.3-2.3.4-3.6 1.6-6.2 2.2m-9-1.6c1.5.8 2.8 1.8 4.7 1.2-2.6-2.1-8.2-3.6-10.5-1.8 3 .5 3.2-.1 5.8.6" id="path25" style="fill:#010101"/></g><g id="g28" style="fill:#010101"><path d="M473.6 146.8c-1 1.9-5.5 2.5-7.5.1a3.3 3.3 0 0 1 4-1.4q2.4-.6 3.5 1.3m-5.4-15.1v-.9q.3-.4.5 0h.1c1 1.5 0 5.8-.3 7.4v.2l-.2 1.2a1 1 0 0 0 .4.9q.3.3.1.8c0 .3-1-.8-1-1.4v-2c.3-1.4 1.2-5.3.4-6.2m9 2.1-1.2-.1q-.4 0-.6-.3l-.5-.2q-1-.6-1.1-1.4l.2-.4.4-.3q1-1 2.8-.8h1l.6.2q1.4.3 1.9 1.2l-.1.2-.4.4a5 5 0 0 1-3 1.5m-1.5.5 1.4.2a6 6 0 0 0 3.5-1.6l.3-.5.3-.4v-.3q-.7-1.3-2.4-1.8l-.7-.2H477q-2.1 0-3.3.8-.3.1-.5.5-.3 0-.4.6v.4a3 3 0 0 0 1.5 1.8l.6.4zm1.5-4.7" id="path26"/><path d="M476.9 130q-1.8.1-1.9 2c0 1 .9 2 1.9 2s1.8-1 1.8-2q-.2-1.9-1.8-2" id="path27" style="fill-rule:evenodd"/><path d="m462.7 133.8 1.2-.1.6-.3q.4 0 .5-.2 1-.6 1.1-1.3l-.2-.3-.4-.4q-1-.7-3-.7h-1.7q-1.4.4-1.8 1.3v.3l.4.3q1.4 1.1 3.3 1.4m1.3.5-1.3.1a6 6 0 0 1-3.5-1.5l-.4-.4q-.2-.2-.2-.5v-.3q.6-1.3 2.3-1.7l.8-.1q.4 0 .7-.2h.4q2.1 0 3.3.9l.5.5.4.5v.4q-.3 1-1.5 1.8l-.6.4zm-1.3-4.6" id="path28"/></g><path d="M454.9 382.2h15c-.2 22.3 5.2 15 4.9 35.9-.7 29.5 4 28.4 7.4 47.8a64 64 0 0 1-31.6-5c-.7-20.3 9.7-39.3 3-51.2-5.5-9.9 2.9-6.5 1.3-27.5m46.4 79.7c11.7-2.2 50.5-26.6 65.5-41C549 379.5 548.5 359 543.2 291c-14.1 18-27.3 17-38 10 0 0 5.1 46.5 8.6 66.7.9 5.2-12.4 10.9-12.4 10.9.4 22.3 3.6 11.6 0 83.3" id="path29" style="fill:#9b1b2c"/><g id="g31" style="fill:#fff"><path d="m516.5 168.3 10.7-10.4c-21.6-68.6 35.4-96.8 55.4-2.5 6.8 32.2.2 76-.4 130.3-.5 46 6.6 102.6 14.5 136.6l-4.2.1c-15.4-78.8-20-109.8-18-189.4 1.4-58-5-104.1-27.6-117.9-6.3-3.8-11.4 18.7-14 36.1-2 14 2.7 18.4 4.1 25.6a32 32 0 0 0-20.5-8.5z" id="path30" style="stroke:#010101;fill-rule:evenodd"/><path d="M475.4 217c0 4.7-3.6 8.4-8 8.4s-7.8-3.7-7.8-8.4 3.6-8.4 7.9-8.4 7.9 3.9 7.9 8.4" id="path31"/></g><path d="M451 170.4c1.8 1.3 2 4.2.8 6.5 3 1.9 19.5 9.9 33.3 22 4.5-12.6 11-23.7 22.3-28.8-6.2-.1-15.3 1.4-20-.4-1.8 5.1-34 4-36.5.7m-41 24.3c5.9-13.6 14-24.7 29.2-24.7-4.5 2.5-2.7 8.8 3 9.8.2 6.7-.5 15-2.1 20-1.4-1.8-8-3.4-10.4-.4-.4-3-8.5-4.5-11-1.3-1.2-3-5-4.3-8.8-3.4" id="path32" style="fill:#9b1b2c"/><path d="m434.8 200.5 1.4.2a4 4 0 0 1 3.2 4.7l-2 11.8a4 4 0 0 1-4.6 3.2l-1.5-.3a4 4 0 0 1-3.2-4.7l2-11.7c.4-2.2 2.4-3.7 4.6-3.2m-11.2-1.5 1.6.4a4 4 0 0 1 3 4.7l-2.6 10.8a4 4 0 0 1-4.8 3.1l-1.6-.3a4 4 0 0 1-3-4.7l2.6-10.9a4.3 4.3 0 0 1 4.8-3m-10.6-2 1 .2a4 4 0 0 1 2.8 4.8l-2.8 10.8a4 4 0 0 1-4.8 2.9l-1-.3a4 4 0 0 1-2.8-4.8l2.8-10.9c.5-2 2.6-3.4 4.8-2.8" id="path33" style="fill:#fff"/><g id="g38" style="stroke:#010101"><path d="M358 263.2c0 1.3-1.7 3.7-3.8 5.6-2.2 1.7-4 2.2-4.2 1 0-1.3 1.6-3.7 3.7-5.6s4.1-2.3 4.2-1zm4 2c.3 1.4-1.7 4.5-4.4 6.8-2.8 2.5-5.1 3.3-5.4 2-.2-1.4 1.8-4.5 4.5-6.8 2.7-2.5 5-3.3 5.3-2zm2.5 4.3c.1 1.4-1.5 4-3.8 6s-4.2 2.4-4.5 1c-.1-1.3 1.5-3.9 3.8-5.9 2.4-1.8 4.4-2.4 4.5-1zm4 2.6c.2 1.3-1.4 3.7-3.7 5.6-2.2 1.8-4 2.3-4.3 1.2-.1-1.2 1.5-3.7 3.7-5.5 2.3-1.9 4.2-2.4 4.4-1.3z" id="path34" style="fill:#fed8ae;stroke-miterlimit:1.798;stroke-width:.08"/><path d="m424.7 158.1 8.7 10.4c-10.4 2.7-23.1 7.7-32.4 50.4a402 402 0 0 1-24.3 24c-6 5-9.4 8.6-16.7 8-8 5.5-14.4 10.6-13 16.6l-5.7 2.3-8.2-14 8.3-6.2c-6-4.6-9.3-14.7-9.5-22.3a46 46 0 0 1-16.5-34.2c-10.5-8.4-16.1-26.7-16.4-49 14.3 10.3 25.7 23.5 28.5 41 10 8.6 15.5 14.6 18 33.8 7 4.8 9 10.8 10.4 20.6l2.4-1.7C329 65 449.8 46 424.7 158z" id="path35" style="fill:#d4af35"/><g id="g37" style="fill-rule:evenodd"><path d="M391.8 193.3c-1 12.5-.7 35.7-.7 35.7 4.1-4.3 6.8-6.6 9.7-10l1.6-7.1c-.3-6.3-.1-12.8-.6-17.3l-3.5-.5c-.5 9.4 1.4 20.6-1.5 19.6-2.2-.7-1.6-20-1.6-20s-2.3-.4-3.4-.4zm-7.6-21c6 .8 7.7-11 15.7-40.2l-2.2-4.7c-8.6 21.4-10.1 33.5-12 29.3-1.5-3.6 7-23 9.5-32.8l-2-4c-7.6 8.8-23 50.8-9 52.4zm14.4 17c6.1 1.8 12-23.5 12-35.3l-3.5-9c-1.7 16.7-3.7 30-6 29-3.2-1.2 2.3-15.4 3.8-33l-2.1-4.6c-8.7 39-15.2 49.6-4.2 52.9z" id="path36" style="fill:#fff;stroke-linejoin:round"/><path d="m341.9 267.2-6.2-10.4 27.8-20 5.4 9.3c-5.5 4.4-4.5 3-9.5 2.2-2.8 2-15.6 8.7-14.5 17.8z" stroke-width=".33" id="path37" style="fill:#fed500;stroke-miterlimit:1.3032"/></g></g><path d="M451 174c0 2.5-2.8 4.6-6.2 4.6s-6.4-2-6.4-4.7 2.9-4.7 6.4-4.7 6.2 2.2 6.2 4.7" id="path38" style="fill:#fed500"/><g id="g48" style="stroke:#010101"><g id="g40" style="fill:#fff"><path d="m428.5 169.7-9.8-8.7c20.2-100.2-78.3-89-56.3 73.3l1-.7 7.4 12.7c-3.5-93.5 13.3-129.5 26.3-131.6 5.5-1 15.5 33 16 38.5 1.9 20.5-7.4 26.5-7 46.3 4.3-12.4 8.3-22.8 22.4-29.8z" id="path39"/><path d="M377.6 174.2c-2.5 28-5 39.1 3 40.1 7 1 5.5-5 7.3-37l-3.4-1.3c-1.9 16-1.7 23.6-4.3 22.8-2-.7.7-15.5.8-23.5zm-3 43c-.4 8.1-.9 17.1-.4 27.6 6-5.2 8-7.1 12.9-11.8 0-5.7 0-8.4-.7-14.2l-3.9-.4c-.3 5.3 1.1 18.9-1.9 19.6-2.2.5-1.6-6-2-20.2z" id="path40" style="fill-rule:evenodd;stroke-linejoin:round"/></g><path d="M361 281.4c2.6-.1 4.8.7 10.1-9a13 13 0 0 0 6.6-9c7-4.4 10.9-5.5 21.6-13.8l-4 109.8c1.3 17.2 4.4 34.8 4.4 34.8l-17 39c-1.2-1.4-2.5-2.8-3.9-5.1-6.3 11.8-13 23.8-29.5 29.9l4.3-32c-3-.1-5.3.7-7.7 1.5A484 484 0 0 0 361 281.4z" id="path41" style="fill:#d4af35"/><g id="g43" style="fill:#fff"><path d="M377.8 269c-1.8 50-4.4 49 2.5 49.5 8.1.8 5-7.2 8.1-56.8l-3.8 2.8c-1.8 23-.5 27.7-2.8 28.7-2.1.9-1-6.3-.5-26.9zm1 77c1.9-.1 1.4-6 2.2-21l3.7.1c-1.2 32.4-2.3 47-8.5 46.3-6.8-.9-3-20-1-47l3.4.3c-1.4 16.5-1.9 21.4.2 21.3zm9.6 51.8c1.9-1.3 5-22.4 5-22.4l2 9.2c-4.2 22.5-10.2 40.3-14.4 36.8-2.7-2.2 1.8-16.4 7.7-62.5l2.8 1.5c-.1 11.4-6.8 40.3-3 37.4zM367.6 417c2 1.2 6.6-21.5 9.7-39.2l3.2.5c-2.4 21.6-8.4 54.2-18.9 66.5-6.8 7.7-1.2-33 9-67.8l3.5.5c-4.8 25-8.9 38.1-6.5 39.5z" id="path42" style="fill-rule:evenodd"/><path d="M365 288q3.4 2.4 6.3 2.2c-3.6 46.8-3.6 85-16.6 132l-4.7.3c10.2-40.5 14.4-81.3 15-134.6zm28.5 42.2c-2.6-.4-1.7-3.2-1.1-21.8l-2.5-.8c-2.2 41.2-2.2 46.9 1.5 47.5.6 0 1.9-20 2.1-25zm2.6-48.3c-2.6 0-1.5-9.5-1-24.7l-2.8 2c-1.7 36.8-3.1 43.3 1.8 43.7 1.2.1 1-2.9 2-21z" id="path43"/></g><path d="M363.6 283.9c8-4.2 5.4-6.1 9-9.2 1.4 11.5 1.5 18-9 9.2z" id="path44" style="fill:#fed500"/><path d="m562 177.9-4.4 1.6c.5 21.2.5 36.8 7.2 36.4 7.4-.5 6-4.7 3.7-40l-3.6 1c.3 8.5 1.5 22-1 21.8-1.5-.2-1.5-12.3-2-20.8z" id="path45" style="fill:#fff;fill-rule:evenodd"/><g stroke-width=".69" id="g47"><path fill="#96995f" d="M510.8 181.7c-7.5 4.2-16.3 21.3-17.9 44.6l19.6 2zm14.7-.5-2 47 20-1.8c-1.8-24-9.5-38.4-18-45.2zm-2 57.3L525 292c10.7-7 18.4-26.4 18.8-51.7zm-31 1.9c1.2 25.3 7.8 43.2 18 50.9l2-52.8z" id="path46"/><path d="m492.8 227.4 20.6 1.7-1.6-48c3.3-2.8 8.8-2.7 12.7-.4l-1.8 48.4 21.2-1.7c.1 3.3.3 9 0 11.5l-21.4-1.4 1.6 54.8c-4.3 3.2-10.5 1.3-13-.7l2.2-54.2-21 1.7c.2-11 .4-9.7.5-11.7z" id="path47" style="fill:#fed500"/></g><path d="M459.7 153c6.3 7.1 14.8 6.9 19.6 0 .5 7.6 1.4 12 7.2 16-6 3.5-30.4 3-36.4 0 6-.9 9.2-4.6 9.6-16z" id="path48" style="fill:#fed8ae;stroke-miterlimit:1.798;stroke-width:.08"/></g><path fill="url(#A)" d="M448.6 130.8c2.7-32.7 39-31.3 42-.8l-4.7.1c1.2-23.3-34.4-23.6-32.4.6z" id="path49"/><path d="M418.8 352.6c2.7 3.9 5.6 6.2 11.3 6.6.4-1 .2-1.6 0-2.6-6.7-.1-8.3-2.5-11.3-4m90.7 1.9c-2.7 3.8-5.2 5.6-11 6q-.5-1-.5-2.5c6.8-.2 8.5-1.9 11.5-3.5m-76.7 2.1c4 2.8 9.9 4.2 15.2 1.7q0 1.5-.2 2.9c-3.8 2-11.2 1.3-15.1-1.8-.3-1.3 0-2 0-2.8m17.5 2.2c4 3.9 16.6 2.9 22.7.3q.5 1.4 0 2.8c-5.6 4.2-18.4 4.5-22.7-.7-.4-1.6-.1-1.6 0-2.4m25.6.5c5.9 2.5 15.3 2 19.6-1 .4.8 1 1.3.5 3a21 21 0 0 1-19.9.8q-.6-1.1-.2-2.8" id="path50" style="fill:#fff"/><g id="g55" style="fill-rule:evenodd"><path d="M462.8 130.1q-1.8.2-1.9 2c0 1 .9 2 1.9 2s1.8-.9 1.8-2-.8-2-1.8-2" id="path51" style="fill:#010101"/><g id="g54" style="stroke:#010101"><g id="g53" style="fill:#fff"><path d="M569 346.7c-1.9-.1-1.4-6-2.2-21l-3.7.1c1.2 32.4 2 45.9 8.2 45.1 6.8-.8 3.4-18.9 1.3-45.8l-3.4.3c1.3 16.5 1.9 21.4-.2 21.3zm10.1 69c-2 1.2-6.7-21.6-9.7-39.2l-3.2.5c2.4 21.6 8.3 54.2 18.8 66.4 6.8 7.8 1.3-33-8.8-67.8l-3.6.5c5 25 9 38 6.5 39.5z" id="path52"/><path d="M554 193.8c1 12.5.7 35.7.7 35.7-.3-4.2-2.1-20.6-4.2-28.5 0-3.4-.2-6.7-.2-6.7s2.8-.5 3.7-.5z" id="path53" style="stroke-linejoin:round"/></g><path d="M315 163c13 11.7 9.6 39.5 14.2 26.9 20.6 16.6 9.8 44.3 17.2 32.6 4.6 4 7.3 11.7 7.6 18.7l-9.9 7c-7.3-5-9.8-19.3-10.7-29.7-.3 9.3-15.1-4.2-15.9-31.1-6 1.9-11.3-11.6-12-16.4 9.8 7.5-5.4-7.7-4-22.6-.1.1 9.6 11 13.6 14.7z" id="path54" style="fill:#fed500"/></g></g></g><!-- app4joy --></svg>