<svg id="svg2993" height="400" width="600" viewBox="0 0 600 400" xmlns="http://www.w3.org/2000/svg"><g id="layer3" style="display:inline"><path style="fill:#2f2f92;fill-rule:evenodd;stroke:none" d="M0 400V0h600v400Z" id="path3573-8"/></g><g id="stars" style="display:inline"><g style="fill-rule:evenodd" id="g3575" transform="translate(-29.7 -251.3)scale(1.28283)"><g id="g3577"><path style="fill:#c09f60;stroke:none" d="m162 245.9 1.3 3.9h4.2l-3.4 2.4 1.3 4-3.3-2.5-3.4 2.4 1.3-3.9-3.3-2.4h4.1z" id="path3579"/><path style="fill:#c09f60;stroke:none" d="m149.9 247.1 2 3.6 4-.8-2.7 3 2 3.6-3.8-1.7-2.7 3 .4-4-3.7-1.8 4-.8z" id="path3581"/><path style="fill:#c09f60;stroke:none" d="m138.2 250.8 2.7 3 3.8-1.6-2.1 3.6 2.7 3-4-.8-2.2 3.5-.3-4-4-1 3.7-1.6z" id="path3583"/><path style="fill:#c09f60;stroke:none" d="m127.4 256.7 3.3 2.5 3.4-2.3-1.3 3.9 3.2 2.4h-4l-1.4 3.8-1.2-3.9h-4.1l3.3-2.4z" id="path3585"/><path style="fill:#c09f60;stroke:none" d="m118.1 264.7 3.8 1.8 2.8-3-.5 4 3.7 1.9-4 .7-.6 4-2-3.5-4 .7 2.8-3z" id="path3587"/><path style="fill:#c09f60;stroke:none" d="m110.6 274.4 4 1 2.2-3.5.3 4.1 4 1-3.8 1.6.3 4-2.7-3-3.8 1.5 2.2-3.5z" id="path3589"/><path style="fill:#c09f60;stroke:none" d="m105.2 285.4 4.1.2 1.5-3.9 1 4 4.2.2-3.4 2.2 1 4-3.1-2.5-3.5 2.2 1.5-3.8z" id="path3591"/><path style="fill:#c09f60;stroke:none" d="m102.2 297.3 4-.7.6-4 2 3.6 4-.6-2.9 2.9 1.9 3.6-3.7-1.8-2.9 3 .6-4.2z" id="path3593"/><path style="fill:#c09f60;stroke:none" d="m101.5 309.5 3.9-1.4-.2-4.1 2.6 3.2 3.8-1.5-2.2 3.4 2.5 3.2-4-1-2.2 3.4-.2-4z" id="path3595"/><path style="fill:#c09f60;stroke:none" d="m103.4 321.7 3.5-2.3-1-4 3.1 2.7 3.5-2.2-1.5 3.8 3.2 2.6-4.2-.2-1.5 3.8-1-4z" id="path3597"/><path style="fill:#c09f60;stroke:none" d="m107.7 333.2 3-3-1.9-3.6 3.6 2 3-3-.7 4.1 3.6 2-4 .5-.8 4-1.8-3.6z" id="path3599"/><path style="fill:#c09f60;stroke:none" d="m114.1 343.6 2.4-3.4-2.6-3.3 4 1.2 2.3-3.4.1 4 4 1.2-3.9 1.4.1 4.1-2.5-3.2z" id="path3601"/><path style="fill:#c09f60;stroke:none" d="m122.6 352.5 1.6-3.8-3.2-2.7 4.2.3 1.5-3.8 1 4 4.1.3-3.5 2.2 1 4-3.2-2.7z" id="path3603"/><path style="fill:#c09f60;stroke:none" d="m132.7 359.5.7-4-3.6-2 4.1-.6.8-4 1.8 3.7 4-.5-3 2.8 1.8 3.8-3.6-2z" id="path3605"/><path style="fill:#c09f60;stroke:none" d="m144 364.3-.1-4.1-4-1.3 4-1.3v-4l2.4 3.2 3.9-1.3-2.4 3.4 2.4 3.3-3.9-1.3z" id="path3607"/><path style="fill:#c09f60;stroke:none" d="m156 366.8-1-4-4-.5 3.5-2-.8-4 3 2.7 3.6-2.1-1.7 3.8 3.1 2.7-4.1-.4Z" id="path3609"/><path style="fill:#c09f60;stroke:none" d="m168.2 366.8.9-4 4-.5-3.5-2 .9-4-3 2.7-3.7-2.1 1.7 3.8-3 2.7 4-.4z" id="path3611"/></g><g id="g3613"><path style="fill:#ffffff;stroke:none" d="m174.3 247.1-2 3.6-4.1-.8 2.8 3-2 3.6 3.7-1.7 2.8 3-.5-4 3.8-1.8-4-.8z" id="path3615"/><path style="fill:#ffffff;stroke:none" d="m186 250.8-2.7 3-3.8-1.6 2 3.6-2.6 3 4-.8 2 3.5.5-4 4-1-3.8-1.6z" id="path3617"/><path style="fill:#ffffff;stroke:none" d="m196.7 256.7-3.3 2.5-3.4-2.3 1.4 3.9-3.3 2.4h4.1l1.4 3.8 1.2-3.9h4l-3.3-2.4z" id="path3619"/><path style="fill:#ffffff;stroke:none" d="m206 264.7-3.7 1.8-2.9-3 .6 4-3.7 1.9 4 .7.6 4 2-3.5 4 .7-2.9-3z" id="path3621"/><path style="fill:#ffffff;stroke:none" d="m213.5 274.4-4 1-2.2-3.5-.3 4.1-4 1 3.9 1.6-.3 4 2.6-3 3.8 1.5-2.1-3.5z" id="path3623"/><path style="fill:#ffffff;stroke:none" d="m219 285.4-4.2.2-1.4-3.9-1.2 4-4 .2 3.4 2.2-1.2 4 3.3-2.5 3.4 2.2-1.4-3.8z" id="path3625"/><path style="fill:#ffffff;stroke:none" d="m222 297.3-4-.7-.7-4-1.9 3.6-4-.6 2.8 2.9-1.9 3.6 3.7-1.8 3 3-.7-4.2z" id="path3627"/><path style="fill:#ffffff;stroke:none" d="m220.7 321.7-3.4-2.3 1-4-3.2 2.7-3.5-2.2 1.6 3.8-3.2 2.6 4-.2 1.6 3.8 1-4z" id="path3629"/><path style="fill:#ffffff;stroke:none" d="m216.5 333.2-3-3 1.8-3.6-3.6 2-3-3 .8 4.1-3.7 2 4 .5.8 4 1.8-3.6z" id="path3631"/><path style="fill:#ffffff;stroke:none" d="m210 343.6-2.3-3.4 2.5-3.3-4 1.2-2.3-3.4-.1 4-4 1.2 4 1.4-.2 4.1 2.5-3.2z" id="path3633"/><path style="fill:#ffffff;stroke:none" d="m201.5 352.5-1.5-3.8 3-2.7-4 .3-1.6-3.8-1 4-4 .3 3.5 2.2-1 4 3.1-2.7z" id="path3635"/><path style="fill:#ffffff;stroke:none" d="m191.5 359.5-.8-4 3.6-2-4-.6-.9-4-1.7 3.7-4.1-.5 3 2.8-1.7 3.8 3.6-2z" id="path3637"/><path style="fill:#ffffff;stroke:none" d="M180.2 364.3v-4.1l4-1.3-4-1.3.1-4-2.4 3.2-4-1.3 2.4 3.4-2.4 3.3 4-1.3z" id="path3639"/><path style="fill:#ffffff;stroke:none" d="m222.6 309.5-3.8-1.4.2-4.1-2.6 3.2-3.9-1.5 2.3 3.4-2.6 3.2 4-1 2.2 3.4.2-4z" id="path3641"/></g></g></g><g id="shield" style="display:inline"><path id="path3645" d="M224.2 154.8V96.6h-92v58.2a46 46 0 0 0 92 0" style="fill:#ffffff;fill-rule:evenodd;stroke:none"/><g id="g3537" transform="translate(-55.3 72.2)scale(.57167)"><g id="g15734" style="display:inline" transform="translate(274.4 80)scale(.53637)"><path id="path13762" d="M250.1 85.2a140 140 0 0 0 102.7 130c23.1-25 37.2-58.3 37.2-95v-35Z" style="fill:#00923d;fill-rule:evenodd;stroke:#000000;stroke-width:0"/><path id="path13766" d="M344.8 223.3a139.5 139.5 0 0 1-189.6 0 150 150 0 0 0 94.8-89.1 151 151 0 0 0 94.8 89z" style="fill:#005bb9;fill-rule:evenodd;stroke:#000000;stroke-width:0"/><path id="path13770" d="M249.9 85.2a140 140 0 0 1-102.7 130 139 139 0 0 1-37.2-95v-35Z" style="fill:#da231d;fill-rule:evenodd;stroke:#000000;stroke-width:0"/><path id="path13774" d="M390 75.2v-135H255v135Z" style="fill:#da231d;fill-rule:evenodd;stroke:#000000;stroke-width:0"/><path id="path13778" d="M245-59.8H110v135h135z" style="fill:#00923d;fill-rule:evenodd;stroke:#000000;stroke-width:0"/></g><g id="g8899" style="display:inline" transform="translate(274.4 80)scale(.53637)"><path id="path3464-7" d="m215.8 17.6.3.2q.3.3.7.3a16 16 0 0 0 4.8.7q.6 0 1 .4t.7 1.1l-.1 1.5q-.4 1-1.4 1.8l-6.8 5.7.4.5c1 .5.7 1.3.3 2.3l-.2.7-2.4 11.6v.2q-.4.9 0 2.2c.2 2 .4 4-3 4.5h-.3l-.7-.3-.7.6v.6c.2.9.3 1.6-.6 2.4l-.3.1h-.6l-.8.7h-.2a16 16 0 0 1-7 0l-.3-.6v-.2L202 51c.6-1.2 2-1.8 3.2-2.3l2-1q.5-1 .7-1.8l.3-1.5-.3-.3-.5-.5q-1.5-1.6-2.4-2.9l-.7-1c-1.5-1.9-3.3-4.2-1.7-6.2h.1v-.1l2.4-1.9 1-.7q-.6-.8-1.6-1.6l-4.6-3.5c-2.3-1.6-3-3-3.9-4.5a8 8 0 0 0-3.8-4l-4.5 1.4q-5.4 1.3-10.9 1.2-5.3 0-11.4-.8l-2 .3-2.4.2c0 2.6-.2 6.2-.4 8.7l-.1 1.6.3 3.4.4 3v.3l-.5 1.7-.4 1.7v5l-.3 5.4-.2.3-.3.2-1 1.7-.4.2h-1l-1.6 1 1 .9.4.4q.3.4 0 .7l-1.4 1-1.6.7c-3 1-6.8 1.2-9.1.1a.5.5 0 0 1-.2-.8l3.4-3.3 2.2-2 .3-.2h1.2c3.6-3.4 3.6-5.7 3.5-9.5v-2q-.5-.6-.6-1.7l-.1-.5-.2-.7-.3-1.5-.5-6-1.9-5.5q-1-3.5-2.5-6.4c-2.3.1-3.4-.7-4.6-1.6l-.6.3-1.1.1c-1.9 0-4.2-1-5.3-1.6l-8.2-4.7-5-3-2.5-.2q-.9 1.4-1 3.5 0 1.2-.3 2.3V14l.1.2q.3.5.3 1l-.2.4-1.2.6-.3.1v.4l.2.3q.4.5 1.3.5.7 0 1.4.4h.3l.3.1a10 10 0 0 1 1.8 2.2q2.1 3.3.6 7-.2.3-.7.2l-2.2-1.4q-1.4-1.1-2.8-1.7l-.4-.1-.3-.2q-.6-.7-.8-1.3l-1.6-2.5q-1.1-1.5-1.8-3.1c-.7-1.6 0-3.3.7-4.9l.6-1.7q.4-1.5.4-3.4 0-2 .5-3.9l.3-.3q.8-.4 1.5-1 1.2-1.3 2.4-1.5 3.5-.3 7.3.4 3 .5 5.8.6c-.7-1.2-1-2.8.4-6.8l.2-.3.2-.3 1.5-3 .1-.2q.8-1.7 2.1-3l.4-.3q1.2-.8 2-2.2.6-1.5.8-3.3a37 37 0 0 0 .4-6l.7-3q-2 .3-4-.3l-1.9-.4-4.2 1.3q-1 1.6-2 2-1.1.4-2.4.2h-.4l-.6-.1-1.2-.1h-.4c-.8 0-1.5 0-2-1v-.2l.2-1q.1-.5-.3-1.1l-.2-.4v-.6c-.2-1.3-.3-3.5 2.3-3.8l3.4-3.6 2.5-2.7-.1-.9q0-.6.3-1 .5-.5 1.1-.6l1-.5h.1l1.3-1.3.2-.2c-1.3.1-2.9-.3-3.3-2q1.4 1.3 3.5.4-.7-.4-.8-1.1.5.1.8 0l-.7-.6-.7.2c.8-1.2 1.3-2 2.5-2.6l1.3-.4.2-1.2.2-1.6a.5.5 0 0 1 .7-.5h.2l.2.1q.7.3.8 1.9l.1.3.1-.5c.2-.7.3-1.4-.5-2.1-.4-.4-.1-1 .3-1a8 8 0 0 1 5.2 3.5q2 .2 4 1.5 1.3.8 2.2 1.8 1.5.7 3 1.7l2.4 1.5q.5.5 1.3.2.6 1.2-.4 2l1.1 1.4.7 1.2 2.2 1.6.2 1.7.4 1q.6 1.2.8 2.6.4.4.9.5 1.1.1 1.2 1.3c.8.7 1.1 3 1.3 4.7l.6 2.7c.5 1.3 1 1.2 1.6.6q.9-.9 1.6-2c.4 1.5.5 2.3-.4 3.8q1.4-.1 2-1.1.8 2-1 3c.9.6 1.8.9 2.8 0 .5 3-1.9 2.7-3.8 1.7l-.4 1q-.9.4-.1 1.5.8 1 1.2 2l2 1q3.7 1.3 8.4 1.3 4.9 0 9.5-.9l1.4-.2c5.1-.8 10-1.6 15.4-.7q2 .3 3.7 1.2l2.9 1.4.1-.4 1.3-2.8a20 20 0 0 1 2.8-3.9c3-3 7-5.1 11.8-4.1q1.7.3 3 1 1.2.9 2.1 2.3 1.2 2 2 4.3c1 2.2 1.9 4.4 3 5.4a.5.5 0 0 1-.5.9q-1.2-.1-1.9-.5.3 1.5.2 3.4c0 2.2 0 4.7.7 6.1a.5.5 0 0 1-.6.7q-1-.3-1.4-.7l-.5 5a20 20 0 0 0 .4 6.5q.3 3 1.8 5.5 1.6 2.5 5.3 4a.5.5 0 0 1-.1 1c-1.8.5-4.1-.4-6-1.8s-3.6-3-4-4.2l.3 3a.5.5 0 0 1-1 .4 13 13 0 0 1-1.8-2.8q-.9-1.6-1.3-3.3a29 29 0 0 1-1.1-7V5.8q.2-2.5 0-4.8l-.4-.6-.2 1a.5.5 0 0 1-1 0c-.4-1.7-.1-3.4 0-4.8l.2-.7q0-.9-.2-1.4-.2-.6-.8-1.2L226-7a7 7 0 0 0-4.4-1.4 6 6 0 0 0-4.4 1.8l1.6 2c1.4 2.1 2.3 4.8 2.4 7.2a18 18 0 0 1-.3 4.5 18 18 0 0 1-5.2 9.8zm-17 .4v-.1" style="fill:#000000;fill-rule:evenodd;stroke:none"/><path id="path3466-1" d="M221.5 19.8a17 17 0 0 1-5-.7l-.8-.4-.8-.4-.2-.4v-1.2l.2-.4a17 17 0 0 0 5.3-13.6 14 14 0 0 0-3.1-7.8l-1-1-.1-.7a7 7 0 0 1 5.6-2.6 8 8 0 0 1 5.6 2q.8.8 1.1 1.6.3.7.2 1.9l-.1.8-.3 2.7.4-.1q.9 0 1.3 1.2l.1.2q.2 2.4 0 5v2.5a20 20 0 0 0 1 6.8 18 18 0 0 0 2 4.4q-.2-1.7.2-2.4l.1-.2q.6-.5 1.5.7v.2c.4 1 1.9 2.5 3.6 3.7q1.5 1.1 3.1 1.5-2.3-1.3-3.6-3.3a13 13 0 0 1-2-6q-.7-2.9-.4-6.6t.6-6.6l.3-.4q.4-.1.7.2l.6 1q-.4-2.4-.4-5.3.1-3-.4-4.6v-.4q.2-.5.7-.2.3.1.5.4l.7.6q-1.2-2-2.2-4.6-.8-2.3-2-4.2a5 5 0 0 0-1.8-1.9q-1-.6-2.6-.9c-4.4-1-8.1 1-10.8 3.8a17 17 0 0 0-2.7 3.7l-1.2 2.7-.4.9a.5.5 0 0 1-.7.3L211-10q-1.7-.8-3.5-1c-5.1-1-10-.2-15 .6l-1.4.2q-4.8.8-9.7.9-5 0-8.8-1.4-2-.8-3.5-2c-3-1-5.6-7.3-8.2-13.8q-2.1-5.6-4.4-10c-.9-1.5-1.7-2.3-2.8-3.4l-.2-.2-2.2-2.4a10 10 0 0 0-4.7-3.7q0 .9-.4 1.6h-.3c-1.2-2.5-1.2-3-1.2-4.6 0-1.2-1.2-2.1-2-2.7a5 5 0 0 1 1.6 4.1q-.2 1.4.6 2.2c.2.1.9.7.9 1h-.4q0-.4-.6-.6-1.6-.8-1.4-2.6c.5-2-.7-3.6-1.7-4.5q.2.9-.1 1.8.4.8.4 1.4 0 .8.3 1.4l.9 1.2-1.5.6c-.6.4-.7.9-1.6 1.2l.4-1.2-.8.5h-.2q-.7.5-1.2 1.1c-.2.4-.7 1.3-.4 3q-1-.6-1-2l-.4.4-.7 1.8-.2-.8-1.3 1.3q1.4.1 2.4-1c-1 1.9-8.3 7.4-7.9 9.4l2.4-2.1q-1.8 3.6-4 3c-.2-.7.4-1.5 1-2 2.3-2.5 3-3.4 5.1-5.4.5-.4.2-1.1 0-1.7l-.7.3-.1.4.2.9-.1.5-2.7 2.9-4 3.9q-.7 0-1 .4c0 .7 0 1.8-.6 2.1v.2l.3.7q.6.8.3 1.7-.4 1.1.8 1h.4l2.3.2a4 4 0 0 0 1.8-.1q.8-.2 1.5-1.4c.4-.6.5-.6 1.4-.9l3.6-1 .2-.1q1.1 0 2.2.4c1.5.4 3 .7 4.2-.1q.3-.2.5-.1.4 0 .3.6l-.3 1.2-.3.8q-.3 1-.3 2l-.2 2.3q0 1.7-.3 3.7-.1 2-1 3.7a7 7 0 0 1-2.1 2.5l-.4.3a9 9 0 0 0-1.9 2.6l-.1.3-1.5 2.9-.2.3-.1.3c-1.2 3.2-1.1 4.6-.7 5.6l1 2.1a20 20 0 0 0 4.7 6.7c1.5 1.2 2.2 2.7 3.1 4.2q.8 1 1.8 1.4c1 .8 2 1.4 3.9 1.3q.5 0 .6.2 1.8 3 2.8 7 .8 2.5 2 5.5l.4 6.1v.5l.3-.2h.8q1.7-.7 1.7-1.8.4 0 .7.2c-1-1.5-1.1-3.4-1.2-4.9l-.6-.8.3-4.1q.7.3.7 1.6c-.4.5-.4 1.4 0 1.8l.4-.1q.6-2.1.2-4.3c-.3-1.2-.6-2.4.2-3.3l.5.1q0 2 .3 4c.3 3.7-.6 3.4-.7 5.2q0 1.5.4 3v.5q0 .8-.3 1.4.4.2.7-.2 1 1.8.2 3.6-.7 0-.9-.7l-.6-.9c-.5.3-1.5.6-1.6 1.1.2.4.7 1.2.6 1.6q0 .4-.4.3t-.8-.4q0-.6-.4-1l.2 1q0 .6.4 1v.3q.3-.5.5-.5h.3v.2q0 1.4.2 2.7c.2 1.8.4 3.6-.2 5.4q.3-.3 1-.4c.6-1 .6-4.5.6-5.1a28 28 0 0 0-.7-5c.1.2.7.8.8.7q.3-.4.5.1v.6l.2 2v-.5l.4-2 .4-1.6-.3-3-.3-3.4V28c.2-2.5.5-6.4.5-8.9v-1l.9.3c1.8-1.1 4.3-2.7 3.7-5l-1.5-.1c2.9-.9 3.3-1.7 4.6-4.1q-.5 3-1.7 6l-.3.5-.6.5-2.7 2h.8l2.2-.3q6.2.8 11.4.8t10.6-1.2l4.7-1.3a57 57 0 0 0 8.5-3.9l.2-.1c1.5-3 1.3-5.7 1.1-8.3l-.2-5 .7 1 1.3 5.8q.6 1 .2 2.3c1.4-2.3 3-4.8 3-7.5 0-3.7-2-5.5-4.8-7.3 2.6.5 4.8 1.4 6.1 4.2q.7 1.3.8 2.7.2 3.9-2 7 0-1-.2-1.8l-.3.1q.4 1.5-.6 2.7a28 28 0 0 0-6.2 9v.7c.3 1.5 4.6 3.8 8.5 5l4 .7h.3l.1.2q.6.4.6 1t-.5 1.1q-2.2 2.5-4.5 4.4l-.7.7-.6.5-1.2.9q-.7.3-2.3 1.7c-1 1.5.4 3.4 1.7 5l.7 1 2.3 2.8.5.5.4.4 1.6 1.6 1-3v-.2q.4-1.2.3-2.7-.3-.6-1.3-1-1.3-.4-1.7-1.4l-1-.1q-.7-.2-.7-1.2v-.5h.6l.2-.1-.1-.5v-.2l.1-.2 1.3-1.1 4.6-4.1 7.3-6.2q.7-.5 1-1.7.2-1.3-.7-1.3m-70.8 32.4-4.8 4.5a13 13 0 0 0 9.7-1.4q-1.5-.8-2.5-1.7-1.1-1.1-2.4-1.4m-30.2-28.5 2.4 1.5 1.5 1q1-2.8-.7-5.5l-1.4-1.7-.1.4a6 6 0 0 1-1.7 4.3m2.8-22.4H121q-1 .3-2 1.3l-1.2 1v1.1h1.5c0 .7 0 .6.6 1.1-.8.3-2.4.8-2.7 1.8l-.1.6-.4 2.6-.7 1.8-.4 1q.7 0 1.3.5-.8.6-1.1 1.5.2 1 .6 1.8l-.4.6 1 1.6 1.7 2.8q0 .4.6.8c1.5-1.2 1.6-2.7 1.8-4v-.5l-.7-.2q-1 0-2-.9l-.3-.7V16q.3-.6.8-.7c1.5-.6.5-.4.4-1.2v-1.9q.4-1.1.4-2.2c.2-1.6.4-3.3 1.5-4.3h1.5l1.6.1h.1q2.1 1.4 5.3 3l8.2 4.8a10 10 0 0 0 4.8 1.5h.7q-.7-.8-1.3-2-.6-1.4-2.3-3-2.6-2.3-4-5c-.8-.3-2-1-2.3-1.2h-.3q.7.7.4 1.6l.8.3q1 .1 1.4.7l.3.3c-1 .5-3.2 0-3.7-1.5v-.6l-.2-.1q0 1.4-.3 1.8c-.6.7-2.5.2-3.4 0 1-.3 1.9-.2 2.3-.8q.2-.3.1-1-.6 0-1-.6c.7-.7 1.5-.6 2.3-.9L132 3l-4-.2V4c-1-.5-4.5-1.4-6.6-1.1q-.7-.6.2-.8l3 .3q-1-.2-2-.7zm91 28.7-4.3 3.8h-.1q.4 1.3.4 3v.3l.7.4q1.4.5 1.9 1.8v1l1.6-7.7.3-.8.2-1-.2-.2zm-2 13.7-1 2.6a.5.5 0 0 1-.8.2l-.5-.4-1-.9-.1 1-.8 1.9-.1.1q-1 .9-2.3 1.3c-1.2.5-2.4 1-2.8 1.9l-.1.2q-1 .6-1.7 1.7l-1.1 1.3a15 15 0 0 0 5.7-.1l.4-.4q.1-.5.5-.5h.5l.2.1q.3-.6.1-1.3v-1l.1-.3 1.1-1 .5-.2 1 .4c2.3-.4 2-1.9 1.9-3.3q-.3-1.5.2-2.9zM207 30l.6-.5 4.3-4.3.2-.3v-.3h-.7v-.1h-.1l-1-.2a22 22 0 0 1-4.5-1.3q-2.8-1-4.8-2.5l-1.5-1.2q-.6-.6-.8-1.3v-1.7h.1V16h.1v-.3l.1-.1v-.2h.1v-.2l.1-.2.5-.9V14h-.2l-.1.1h-.2v.1l-4.4 2h-.1v.1h-.1l-.4.1-.4.2h-.1l-.2.1c2 1.2 2.7 2.6 3.4 4 .8 1.2 1.5 2.6 3.5 4A72 72 0 0 1 207 30m-49 21 1-1.4.1-2a1 1 0 0 1-1 .3l-.4.2q.8.7.8 1.8l-.9 1zm-5.4 1 .9.6q.4-.9 1.4-1.3t1.9-.5q.7-.5.4-1.6-.7-.2-1-.5v.2c-.9 1.4-2.1 2.8-3.6 3m-5.9-99.2c2.7.9 4 2.4 5.3 4l2 2.4c4.2 4 5.7 8.7 7.8 14 2.4 5.9 4.6 11.6 7 12.9-.6-.7-1-2.3.3-2.7l.3-1a3 3 0 0 1-1-1.4c.6.4 1.5 1.6 2.5 1-.5-.2-1.2-.4-.9-1.1l.8-.7q-1.5.3-2.3-.6.9-.2 1.1-1.4c-.7.8-1.7 1.3-2.5.2q-1-1.8-1.3-4c0-1-.3-4-1.1-4.1q.2-1-.7-1.1-1-.3-1.6-1-.1-1.5-.8-2.8-.5-1-.6-2.5l-1.7-1.2q-.7-.7-1-1.6-1-1.5-2.3-2.6c.3.2 1.5.2 1.6-.4-.7-.1-2.1-1-3.3-1.7l-3.2-1.8a12 12 0 0 0-5-3q.7 1 .6 2.2m-6.1-.1c-.7-.9-1.6-1.6-2.9-1h.4l-.7.6v.7q.6.8.5 1.5 1.3-1 2.7-1.8m.1-1v.9l.3-.3zm-1.1-1.5-.3-.8-.2 1z" style="fill:#c09f60;fill-rule:evenodd;stroke:none"/><path id="path3468-7" d="m159.9-10-2.7.6c-.8.2-.7.6-1.2 1q-.6.8-1.7 1.7-1.8 1.3-2.5 2.4c1.8-.1 3.3-1.4 4.7-2.7 1.9-1.5 2.7-2.2 5.1-2.6-1.8 1-2.8 2-4 3.3a9 9 0 0 1-5.2 3.1c-2.1.7-2.3 1.2-2.3 1.5q-.7 1.4-2.2 2-.5-.4-.4-1.1c.2-1 1.5-2.4 2.3-3.2.6-1.5 2-3 3.3-4.1l2-1.5c.8-.5 4.6-2 4.8-.5m-16.5-18.8c-1.4-.4-3.4-1.7-3.4-3.4q0 1.3.3 2.5h-3.7q-1.6.6-3.5 2c.5-.3 4-1.3 4.1-1.4 2.2 0 4.8 1.4 6.2.3m-13-1.8v-.2q0-.3.2-.4c.5 0 .7 1.1.7 1.4a3 3 0 0 1-1.4 2.7q-1.6.8-2.8-.4 1.2.4 2.2-.2-.6.4-1.5-.3-.6.1-1-.4t0-1.2q.5-1.1 1.8-1.3 1-.1 1.7.3m6-6.4c.4 0 1.2-.4 1.6-.6l1.7.1q1 0 1.3-1h1l-.9-.9-3-1.9q-.9 0-1.2.9-.3.7 0 1.5l-.8.5q-.5.4-.3.9 0 .5.6.5m1.8-.4c1.4.5 1.7.4 3.4-.3a6 6 0 0 1-3.4 1.5c-.4-.7-.7-.8 0-1.2m23.7 14.7.6.5 1.8 4 .4 1.7v.1l-.2.3-.3.3c-.4.4-1.8 2.1-2.5 1.8-.4-.1-.4-.8-.4-1.2-2 0-4.2.9-6.1 1.8l-.2-.4 1-.6a16 16 0 0 1 6.3-1.6c.5-.5.9-1.2.3-1.7l-.3-.2q-.8-.5-1.8-.7zm-10.3.6-.2-.8c2-.5 2.4-2.1 2-3.9-.5-2.9-2.3-5.4-3.8-7.6l.7-1 .2.2q4.6 6.6 4.8 14.6v.1c-.8 1.1 0 2.3.8 3.1l-.4.2h-.3l-.3.1-3.6 1.1c1.4-2.2.6-3.8 0-6.1m-10.8 9.8c2.3-1.2 2.7-7.1 2.8-9.3s.1-4 1-6l1.3-.6-.6 1.2.9 1 .6-.3-.2.6q-1.1 2.4-2 5a23 23 0 0 0-.8 11.4h-.5c-.7 0-.8 1-1 1.9l-.8 3.9h-.5q.1-2.2.4-4.2c.1-1.8.4-3.2-.6-4.6M136 2.1c-1.5-2.1-1.4-2.9-.8-5.6q0 1.9.9 2.4v.2q-.2 1.5 0 3m0 .2 1.2 1-.4-1.9 1.5 2.7a12 12 0 0 0 1.4 4.2 26 26 0 0 1-3.7-6m8.5.9c.2.9 0 1.2 1 1.3q-1.4 2.6.3 6l-.9.3.7 1.8q-.8-.5-1.5-.7l.2-1.4c-1.8-1.8-.5-5.4.2-7.3m5.4 12.1 1.2-.3v2.8zm16.3-17 1.3-.4.3.3c1.2-2.7 1.7-5.2.3-8 3.1 1.3 2 6.4-.3 8 .5.4 1.2 1 1.2 1.5q-.2 1-1.3 1.8l-.1-2.3q-.5-.5-1.4-1m-11 31.3h1.1l.4 5v.2l-.8.5c-1.2-1-.7-4.2-.7-5.7m61.3-29 1 .4c1.7 1.5 1.1 4.9-.2 6.1l-.3-.4-.2-3.2q-.8 1.1-1.4 2.8l-.4 1.5V8c-2.7 1.8-5 3.3-8.5 3 4.4-1 9-4.9 10-10.4" style="fill:#000000;fill-rule:evenodd;stroke:none"/><path id="path3470-7" d="M130.5-29.7q-.7-1-1.8-.7-1.3.1-1.6 1.3h1.2l.4.2.8-.1h.8l.2-.3v.7q.5-.7.3-1.7zm9.3-9-2-1q1.3-.4 2.5.7 0 .7-.6.9l-.4-.2zm-1-1.5q-.7.5-1.5 0 0-.7 1-.3z" style="fill:#c09f60;fill-rule:evenodd;stroke:none"/></g><g transform="translate(275.4 78.4)scale(.53637)" id="g8746" style="display:inline"><path id="path3474-7" d="M353.6 104.6a4 4 0 0 0 .2-4.6 3.3 3.3 0 0 0-4-1.4l-.8-.8h.4l-1.7-1.8h.3l-2.6-1.3.2-.2-3 .2.2-.4-3 .8-.4-.1.3-.4-2.4-.2.2-.5-2.5.5v-.5c-1 .6-2.5 1-3.4 2a10 10 0 0 0-2.2 3.9c-5.1 2.5-4.4 10.4-.4 13.8l-.8 3 .6-.1-.7 2.7.6-.2-.4 2.7.6-.3v1.9l.4-.2v1.1l-.3-.5q-.4-.5-1-.8l-.4-.1-.3-.2q-1-.7-2-.4-.7.2-.8 1-1 .4-.9 1.6-.7.7-.4 1.6l-.3.6c-.2.8.6 1.5 1.3 1.8l.7.3.2.8q.3 1 1.2 1.9l.4.3-.2.3h-.1l-2 2.8h.7l-2.5 3 1.2-.1-1.5 3.2.8-.2-1.2 3 .6-.2-1.8 2.7h.5l-2.6 2.1.7.2-2.3 1.6-.7.6.6.1q-1 .6-1.4 1.7v.2l-.4.5-.8.7-.2.6-.2 1.4-.2.9q-.3 1.1.6 1.8c.2.4.6 1.2 1.4 1q.6.5 1.5-.1.6.3 1.4-.3.5-.7.3-1.4v-.6q.3 0 .6-.4l.5-.5q.5 0 .8-.3v.6l1.2-1.2v.3l.9-.7-.6 3-.2.7.4-.1-1 2.8-.3.7h.2l-2.3 3.4h.6l-2.6 3.7h.9l-.8 4.7.8-.5 1 5 .6-.7 1.7 4.3.4-.9 2.4 3 .3-.6 2 1.6h-.4l-.7.5h-.2c-.7.2-1.6.1-2.2.7l-.2.1-.7.2q-1 .6-.7 1.6.3.6.8.7c0 1 1 1.2 1.7 1 .2.3.8.8 1.5.6h.4l.5.4c.8.4 2 0 2.5-.6.2-.1.8-.2.8 0q.4.4 1 .5h.7q.5 1 1.8.8.9.8 2.1.7a2 2 0 0 0 1.3-.6q.6-.3 1.3-.1l2.1.2q1.1.2 1.6-.7 1.8.5 3.7.6 6.3 1 12.6.5l.4-.3 2.4.3q1.4-.2 2.1 1 1 .5 1.7 0c.3-.3.5-1 .6-.9l.5.2v-1.7h.5l-.7-1.2.6-.2-1-1 .4-.2q-.6-.5-1-1.1-1.6-1.7-3.6-2.6l.4-2.9.6.4-.3-4.1.7.3-.9-4 .7.3-1.1-3.4.3.2-.3-3 .5.5-.3-3.4.3.3v-2.6l.3.4v-3l.4.3.3-2.8.4.6.4-3.4.5.8.2-3.6.4.4v-4l.6.6-.5-3.7.5.3-.6-3.8.6.3-1-4.3.5.3-1.1-4.3.7.3-1.5-3.5.7.1-1.7-3.2h.7l-2.3-3h.5l-1.8-3 .4.1-1.4-2.8-.3-.9.5.2-.7-2.5.5.1-.9-2.7.6.1-1-2.2h.7l-1.4-2.4h.6l-1.8-2.6.7-.1-1.6-1.6.6-.3z" style="fill:#000000;fill-rule:evenodd;stroke:none"/><path id="path3476-3" d="M330 113.1q-3-2.2-3-6-.2-2.4.7-4c1.2-2.4 3.3-3 5.7-3q-1-.8-2.8-.6a9 9 0 0 1 1.4-2.6l2-1.5v.2l2.2-.7-.1.2 2 .2-.2.3 1.3.2 1.6.5-.5-.5.9-.1 1.4-.2-.1.3 2.6-.1h.2l-.2.2 2.3 1.3h-.3l1.3 1.8h-.5l1 1.2-.1 1q.9-.9 1.8-1c1.2-.4 2 .4 2.2 1.5q.1 1.8-1.4 2.6l1.7 1.7h-.4l1.7 2.4h-.5l1.3 2.3-.5-.1 1 2.2h-.4l.8 2.6-.4-.1.6 2.2-.5-.2.8 2.6.7 1.5h-.6l2 3h-.7l2.3 3h-.4l1.6 3h-.5l1.2 2.9-.4-.2 1.2 4.3-.6-.2 1 4.3-.3-.2.5 3.2-.4-.3.4 3.4-.4-.4v4.1l-.3-.2-.1 2.6-.3-.5-.4 3.4-.4-.6-.4 3.3-.5-.6v3l-.5-.5v3l-.4-.4.2 3.2-.5-.5.4 3.6-.7-.4 1.1 3.8-.5-.2 1 4-.5-.3.2 3.7-.3-.2-.6 5h.3c1.7.7 2.6 1.5 3.7 2.9l-.3.1.8.9h-.2l.5 1h-.3l.4 1.2v.2q-.4.2-.6.7-.2.6-.8.5-1-1.3-2.5-1.3l-3-.3-.4.4a70 70 0 0 1-15.9-1.2q-.4-.1-.6-.7l-.9.5.3.4q.5.7-.3.6-1 0-2-.3h-1.3l-.4.1-.4.3-.7.4c-1 0-1.3-.6-1.9-.7l-1-.1q-.4-.3-.6-.8l-.8.1q-.4 0-.6-.3l-.1-.1c-.5-.4-1.6-.4-2 .1l-1 .6q-.6 0-.8-.6h-.2q.2-.2-1 0h-.3q-.5-.3-.7-.8s-.8.5-.8.2q-.6-.1-.2-.8l-.6-.1q-.8-.3 0-.8l.6-.2.8-.4 1.4-.3q.5-.1.7-.4l1-.2h1.2l-2.3-3.3v1.1l-1.9-1.6-.1.4-2.4-3-.2.4-1.6-4-.2.4-1-4.2-.2.1.7-4h-.3l2.7-3.7h-.7l2.7-3.8-.9.2 1.4-3.9-.6.3.7-3.3.3-1.2-1.4 1.1-.2-.4-1.2 1.2-.2-.3q-.5.7-1.3 1c-.5.2-.5.2-.9.6l-.1.2-.8.7-.1.9q0 .6-.3 1-.5-.2-.7-.5-.2.4-.6.6l-.7-.2q-.3.1-.6-.2l-.2-.4a1 1 0 0 1-.5-1q0-.5.3-1.1V155l1-1 .3-.5.2-.3q.4-1 1.5-1.6l.4-.2.8-.6-.7-.1 3.1-2.2-1-.2 3.2-2.6h-1.3l2.1-3-1 .2h-.1l1.2-3.2-.7.2 1.4-2.9-.6.1 2.3-2.8h-.8l1-1.3 1.6 1.5h-.5l2 2.2h-.6l2.1 2.7h-.6l1.9 2.5h-.6l2.2 2.5-.7.2 2.3 1.7-.8.2 3 1.5-.7.4 3.1.7-.6.6 3.3.1-1.7 2.7h.7l-1.4 3h.8l-1.2 2.9.8-.2-.5 2h-3l.6.7-4.6 1.9 1 .3-3.4 3.3.7.2-2.3 4.2h.6l-2 4.2 1-.2-.2 4.2.6-.1.9 4.3.6-.5 1.6 4.2.5-.7 2.3 3.6.4-1 2.7 1.4-.4-1.6-.6.2-2.2-1v.2l-2.2-3.3-.3.3-1.4-3.6-.4.3-.8-3.9-.4.1.3-4.1h-.5l1.7-3.6h-.5l2.2-4.1-.3-.1 3.4-3.3h-.1l3.6-1.4-.2-.3h1.6l.5-.6.6-1.3-.4.1.6-2.1-.6.1 1.2-2.9-.7.1 1.1-2.6h-.4l1.3-2.1-.4-.7h-2l.4-.3-2.8-.7.2-.1-2.4-1.2.4-.2-2.2-1.6h.3l-1.9-2.2h.5l-1.8-2.3h.6l-2-2.7.7.1-2.3-2.6.8-.1-2.4-2.1.7-.2-1.8-1.3-.3-.3q-.6-.7-1-1.5 0-.8-.5-1.2l-.9-.4c-.2-.1-.8-.5-.8-1q.1-.3.6-.4-.4-.4-.4-1 .3-.4.7-.5c0-.3-.3-.7 0-1q.2-.3.8-.4v-.6q0-.4.6-.2l.9.3.3.2.5.3q.7 0 .7.7l.1.3q0 .5.5.7l1.8 2.5.2-.7 1.7 2.1v-.7l2.4 2.2v-.8l2.3 1.8v-.8l2.6 1.4v-.8l2.3.7-.1-.7 2.7.5-.3-.5 2.6.4-.2-.3 2.2.8-.1-.5 1.7 1 .4-.8-3.4-1.8.2.7-2.9-1 .5.8-2.4-.5.2.5-2.3-.4.1.6-2.2-.7v.5l-2.5-1.3v.4l-2.2-1.7v.5l-2.3-2.1v.4l-1.5-1.9-.1.6-.7-.8q.6-1.5.6-3.1l-.6.1.1-2-.4.1.4-2.4-.5.1.6-2.6-.5.1z" style="fill:#c09f60;fill-rule:evenodd;stroke:none"/><path id="path3478-3" d="M323.6 122.3c0 .2 1 .5 1.8.8.9.2 1-.4 0-.8-.8-.3-1.8-.2-1.8 0m1.9 2-.2.3q-1 .3-1.8-.3c-.7-.2-1.7-.4-1.8-.7 0-.3 1.3-.5 2.3-.4.4.1 1.6.6 1.5 1.1m-.6 1.7-.2.2c-.8.4-1.4-.1-2.1-.4q-1.5-.2-1.6-.5c0-.3 1.1-.5 2.3-.4.5 0 1.8.5 1.6 1m-.4 1.4-.2.3q-.6.3-1.1 0-.4 0-.7-.3c-.7-.2-1.4-.1-1.4-.5 0-.3 1-.5 2-.4.3 0 1.5.4 1.4 1m2.2-2.7q-.1-.5-.7-.8c-.4 0 0 .4-.3.6s-.6.5 0 .5q.9 0 1-.3m-1.3 1.3q-.2-.4.1-.4.6 0 .8.7-.1.5-.5.5c-.4.1-1.3 0-1-.3q.7-.1.6-.5m-1.5 0q0 .2.6.6.5.5 1.4.5c.5 0 .3-.4.6-.3.3 0 0 .5.4.7q.5 0 .7.7 0 .2-.2 0t-.6-.3l-.5-.2-.7-.1c-.1-.2-1.5-.8-2-.6zm2.5-.6c.5 0 .4-.3.7-.2.2.2 0 .5.2.7s.7.5.6.9q-.1.2-.2 0t-.5-.5l-.5-.2-.6-.3q-.7-.8-1.8-.4v-.8c0 .3 1 .4 1.2.4l1 .4m.7-1.3c.5 0 .4-.3.6-.1.3.1 0 .4.2.7s.6.6.4 1v-.1l-.6-.6-.4-.3-.6-.3-.5-.5q-.7-.2-1.2-.1l.2-.8c0 .3.8.5 1 .6z" style="fill:#000000;fill-rule:evenodd;stroke:none"/><path id="path3480-5" d="M317.5 158c.5-.2 1 .7 1 1v.8q.6 1 .4 1.5c-.3.2-1-.6-1.4-1.5-.2-.3-.5-1.6 0-1.8m-1.4.2c.5 0 .9.7 1 1l.1 1.1c.2 1 .6 1.5.4 1.7q-.6.1-1.5-1.9c-.2-.3-.5-1.7 0-1.9m-1.2 0q.5.2.7.6.3.5.3 1.2c.1.8.6 1.7.3 1.9s-1.1-.8-1.5-1.8c-.1-.3-.3-1.7.2-1.8m-.2 2.2q.2-.3-.2-2-.7-1.2-.7.4.4 1.5 1 1.6" style="fill:#2c2c2b;fill-rule:evenodd;stroke:none"/><path id="path3482-9" d="M316 154.4s-.9.6-1 1.1q.1.7.4.2.1-.5.7-1 .4-.4-.1-.3m-1.2 2.8c-.2 0-.2.8 0 .9.1.1.7-1 0-1m1 .3q-.1.5.2.6.6 0 .7-.5.2-.6-.4-.5-.4 0-.5.4m1.4-2.7c-.2 0-1 .5-1.1.8q-.3.4.2.6h.5l.6-.7c0-.2.3-.7-.2-.7m1 .7-.8.8q-.4.7.2 1 .4 0 .7-.3c.1-.1.3-.6.5-.7.2-.2.7-1.6-.6-.8m-3.6 3.2-.1-.6.2-.8.2-.4v-1.2q0-.7.7-1.2-.9.3-.8 1.2l-.1.8-.2.2q-.2 0-.1.1.3.2.1.3-.5.6.1 1.6m1.2.8q-.5-.6-.6-1.4v-.7l.3-1.2.2-.8c.1-.3.8-.6 1-.6q-.5.3-.8.8l-.1.6q0 .7-.2 1.3l-.2.6zm1.5-.2-.2-1v-1.7q.5-1 1.1-1.4c-.7.1-1.3 1-1.3 1.2l-.3.4.3.5v.8q-.1.8.4 1.2" style="fill:#2c2c2b;fill-rule:evenodd;stroke:none"/><path id="path3484-9" d="M333.3 191.1c.1-.2.6-.7 1-.5v.1c.2.3.3 1 0 1.2l-.5.5c-.2.3-.2 1.2-.5 1.2s-.3-1.7 0-2.5m-2-.5c.1-.2.6-.7.9-.5v.1c.2.3.2 1 0 1.2q-.3 0-.5.3c-.2.3-.3 1.2-.5 1.1s-.3-1.6.1-2.2m-1.7-.6c.1-.2.7-.7 1-.5v.1c.2.3.2 1 0 1.2q-.4 0-.6.4c-.2.3-.3 1.1-.5 1.1s-.3-1.7.1-2.3m-3.5 0c.1-.1.6-.6.8-.5l.2.1c.1.3.2 1 0 1.2l-.5.4c-.1.3-.2 1.2-.4 1.2s-.4-1.6 0-2.3m-2-.3q.3-.5.8-.5l.1.1c.2.2.3.9 0 1l-.4.4c-.2.3-.2 1.1-.4 1.1s-.4-1.4 0-2m-1.7-.7q.3-.5.9-.4c.2.3.2 1 0 1.1l-.6.3c-.2.3-.3 1-.5 1s-.2-1.4.2-2m-1-1c.1-.1.7-.5.9-.3s.2 1 0 1.1q-.4 0-.6.3c-.2.3-.4 1-.6 1s-.1-.7-.1-1q0-.7.4-1m6.7 1.3q.4-.5 1-.4v.2c.2.2.1.9-.2 1l-.5.3c-.2.3-.4 1-.6 1s-.2-1.5.3-2.1" style="fill:#000000;fill-rule:evenodd;stroke:none"/><path id="path3486-8" d="M326 190.5q-.2-1.1.5-1.7.2-.7 1.2-.8-1-.3-1.5.5c-.9.3-.9 1.2-.9 2zm5.2.4q.2-1.4 1.2-1.6.5-.9 1.5-.3c-.4-.7-1.3-.7-1.8-.1-1 0-1.3 1-1.5 1.8zm1.7.7q0-1.4 1.1-1.7.4-.9 1.5-.4c-.4-.6-1.3-.5-1.8 0-1 0-1.2 1.1-1.3 2zm-3.4-1.4q.2-1.3 1.2-1.5.7-.8 1.5-.3c-.2-.7-1.2-.7-1.7-.1-1 0-1.3 1-1.5 1.7zm-7.1-1.3q.1-.9.8-1 .3-.5 1-.3-.6-.4-1.1 0c-.7 0-1 .8-1 1.2zm1.6 1q-.1-1 .7-1.5.2-.7 1.2-.7-1-.4-1.5.4c-.9.2-.9 1-1 1.8zm4.4.6q-.4-1.2.5-1.9 0-1 1.2-.8c-.6-.5-1.4 0-1.6.6-.9.4-1 1.8-.6 2.4z" style="fill:#000000;fill-rule:evenodd;stroke:none"/><path id="path3488-1" d="m339.3 100.5-.3.3-.3-1q.9-1.2 2.5-1.3 1 0 1.8.9l.8.7v1l-.6-.3c-.8 2-3.4 1.8-3.9-.3" style="fill:#000000;fill-rule:evenodd;stroke:none"/><path id="path3490-8" d="M347.4 101.2c1-.5 1.4-1.7 2.5-2.2l.4 1q-1 .6-1.4 1.5 1.9.9 3.4 2.4c.8.7.4 1.7-.3 1-1.6-1.6-3.6-3.3-5.9-2.6-1 .3-.3-1.1 1.3-1.1m-2 26.5v-.6l-.3-1.8.5.2-.5-2.8h.4l-.9-3 .6.2-1-3.2.4.2-1.1-2.5h.4l-1.7-3h.4l-2.4-2.9h.4l-2.1-1.8h.3l-2.2-1.4.3-.3-2-.8a4 4 0 0 0-1.9 0q-1.2.2-1.2.8.2.3-.3.8l-1.1 1a3 3 0 0 0 .1 1.6q.4.9 1.2 1 1.4.2 2.4-.7l.2 1.1q-1 .8-2.6.7-.8 0-1.4-.6c-.7-.5-.6-.5-1.3 0q-1 .5-2.2.2v-1c.5 0 1.1.3 1.8-.3q.7-1 .7-2.2-.6-.5-1-1.1.1-.6-.4-1l-1.3-.2.4-1.7q1-.2 1.9.2c.8.3 1.1.4 2 .2q1-.3 1.9-.2a8 8 0 0 1 3.6.9l2 1-.4.4 3 1.8-.8.2 2.6 2.2h-.8l2.5 3h-.8l1.7 3.1h-.6l1.3 2.8-.6-.2 1 3.3-.6-.2.8 3-.6-.3.6 3-.5-.2v1.6zM328.7 104q.6.6.6 1.4l.6.5v-.2l.3-.2.4-.3a1 1 0 0 1 .3-1 3 3 0 0 1-2.2-.2" style="fill:#000000;fill-rule:evenodd;stroke:none"/><path style="fill:#000000;fill-rule:evenodd;stroke:none" d="M363.1 144v2.6L362 144z" id="path3494-6"/><path style="fill:#000000;fill-rule:evenodd;stroke:none" d="m361.6 150-.3 1.8-.8-1.6z" id="path3496-6"/><path style="fill:#000000;fill-rule:evenodd;stroke:none" d="m363 146.6-.2 2-1-1.7z" id="path3498-0"/><path style="fill:#000000;fill-rule:evenodd;stroke:none" d="M363 149.4v2.7l-1.1-2.5z" id="path3500-3"/><path style="fill:#000000;fill-rule:evenodd;stroke:none" d="m362.9 151-.3 1.5-.3 1.4-.6-2.9z" id="path3502-8"/><path style="fill:#000000;fill-rule:evenodd;stroke:none" d="m362.2 149-.3 2.6-.4-1.3-.4-1.2z" id="path3504-0"/><path style="fill:#000000;fill-rule:evenodd;stroke:none" d="m362.4 152.3-.8 3-.3-3z" id="path3506-1"/><path style="fill:#000000;fill-rule:evenodd;stroke:none" d="m360.6 154-.6 2.2-.6-2.1z" id="path3508-2"/><path style="fill:#000000;fill-rule:evenodd;stroke:none" d="m361.3 153-.7 2.4-.5-2.5z" id="path3510-5"/><path style="fill:#000000;fill-rule:evenodd;stroke:none" d="m361 156.7-.8 2.5-.3-2.6z" id="path3512-0"/><path style="fill:#000000;fill-rule:evenodd;stroke:none" d="m361.6 154.5-.6 3.6-.5-3.6z" id="path3514-9"/><path style="fill:#000000;fill-rule:evenodd;stroke:none" d="m360.5 157.1-1 3.2-.2-3.3z" id="path3516-4"/><path style="fill:#000000;fill-rule:evenodd;stroke:none" d="m359.7 154.2-.5 2.2-.7-2.1z" id="path3518-7"/><path style="fill:#000000;fill-rule:evenodd;stroke:none" d="m359.7 157.5-1 3.4-.1-3.5z" id="path3520-8"/><path style="fill:#000000;fill-rule:evenodd;stroke:none" d="m359 159.2-1.2 2.4V159z" id="path3522-3"/><path style="fill:#000000;fill-rule:evenodd;stroke:none" d="m358.8 156.9-1 2.5-.2-2.7z" id="path3524-5"/><path style="fill:#000000;fill-rule:evenodd;stroke:none" d="m358.1 160.7-1.2 1.6.1-2z" id="path3526-1"/><path style="fill:#000000;fill-rule:evenodd;stroke:none" d="m357 161.8-1.2 1.4.2-2z" id="path3528-2"/><path style="fill:#000000;fill-rule:evenodd;stroke:none" d="m348.6 106 1 3.4-2-3z" id="path3530-0"/><path style="fill:#000000;fill-rule:evenodd;stroke:none" d="m346.2 106.5.6 2.6-1.6-2z" id="path3532-1"/><path style="fill:#000000;fill-rule:evenodd;stroke:none" d="m347.5 106.3.4 2.3-1.4-1.8z" id="path3534-6"/><path style="fill:#000000;fill-rule:evenodd;stroke:none" d="m344.7 106.3.8 2.7-1.8-2.1z" id="path3536-4"/><path style="fill:#000000;fill-rule:evenodd;stroke:none" d="m343.9 107.2.2.8.1.9-1.3-1.1z" id="path3538-0"/><path style="fill:#000000;fill-rule:evenodd;stroke:none" d="m342.5 107.3.8 2.4-1.8-1.9z" id="path3540-6"/><path style="fill:#000000;fill-rule:evenodd;stroke:none" d="m350 106.3.6 2.6-1.7-2.1z" id="path3542-1"/><path style="fill:#000000;fill-rule:evenodd;stroke:none" d="m352.5 105.8.4 2.2-1.4-1.7z" id="path3544-8"/><path style="fill:#000000;fill-rule:evenodd;stroke:none" d="m351.3 105.9.6 2.7-1.7-2.2z" id="path3546-9"/><path style="fill:#000000;fill-rule:evenodd;stroke:none" d="m337.8 132.6-1.4-2.3 2.3 1.5z" id="path3548-8"/><path style="fill:#000000;fill-rule:evenodd;stroke:none" d="m340.6 133-.5-1.4 1.4.7z" id="path3550-4"/><path style="fill:#000000;fill-rule:evenodd;stroke:none" d="m345.8 133.2-1.8-1.8 2.4.9z" id="path3552-1"/><path style="fill:#000000;fill-rule:evenodd;stroke:none" d="m347 133.3-1-2.2 2 1.5z" id="path3554-4"/><path style="fill:#000000;fill-rule:evenodd;stroke:none" d="m348.5 134.7-.4-2.2 1.4 1.7z" id="path3556-3"/><path style="fill:#000000;fill-rule:evenodd;stroke:none" d="m349.1 133.7-.2-1.5 1.2 1z" id="path3558-9"/><path style="fill:#000000;fill-rule:evenodd;stroke:none" d="m351.4 137.1-1.3-1.7 2 .8z" id="path3560-8"/><path style="fill:#000000;fill-rule:evenodd;stroke:none" d="m338.9 134.6-2.1-1.7 2.6.6z" id="path3562-8"/><path style="fill:#000000;fill-rule:evenodd;stroke:none" d="M341.1 134.8 339 133l2.8.8z" id="path3564-0"/><path style="fill:#000000;fill-rule:evenodd;stroke:none" d="m343.5 133-1.4-1.6 2 .7z" id="path3566-8"/><path style="fill:#000000;fill-rule:evenodd;stroke:none" d="m344 134.5-2-1.6 2.5.5z" id="path3568-7"/><path style="fill:#000000;fill-rule:evenodd;stroke:none" d="m345.9 134.3-.7-.8-.6-.7 2 .6z" id="path3570-7"/><path style="fill:#000000;fill-rule:evenodd;stroke:none" d="m347.2 134.6-.5-1.3 1.3.5z" id="path3572-8"/><path style="fill:#000000;fill-rule:evenodd;stroke:none" d="m349.7 136.8-1.3-1.7 2 .8z" id="path3574-3"/><path style="fill:#000000;fill-rule:evenodd;stroke:none" d="m347.3 136.2-.6-1.6 1.5.9z" id="path3576-8"/><path style="fill:#000000;fill-rule:evenodd;stroke:none" d="m345.5 135.3-.4-1 1.1.1z" id="path3578-3"/><path style="fill:#000000;fill-rule:evenodd;stroke:none" d="m345 136-2-1.5 2.4.4z" id="path3580-7"/><path style="fill:#000000;fill-rule:evenodd;stroke:none" d="m342.4 136.4-1.7-1.3 2.2.3z" id="path3582-1"/><path style="fill:#000000;fill-rule:evenodd;stroke:none" d="M345.2 137.2 344 136l1.7.3z" id="path3584-0"/><path style="fill:#000000;fill-rule:evenodd;stroke:none" d="m346.9 137.8-.3-.7-.3-.8.7.4.7.4z" id="path3586-7"/><path style="fill:#000000;fill-rule:evenodd;stroke:none" d="m349.1 138.6-1.2-1.8 2 1z" id="path3588-3"/><path style="fill:#000000;fill-rule:evenodd;stroke:none" d="m350.4 138.4-1-1.4 1.6.4z" id="path3590-4"/><path style="fill:#000000;fill-rule:evenodd;stroke:none" d="m351.4 140-.7-.6-.8-.7 1 .2 1 .1z" id="path3592-9"/><path style="fill:#000000;fill-rule:evenodd;stroke:none" d="m349.4 139.8-.8-1.2 1.5.2z" id="path3594-6"/><path style="fill:#000000;fill-rule:evenodd;stroke:none" d="m348.3 140.1-1.2-1.4 1.8.4z" id="path3596-5"/><path style="fill:#000000;fill-rule:evenodd;stroke:none" d="m351.5 141.3-2-1.3 2.4.2z" id="path3598-1"/><path style="fill:#000000;fill-rule:evenodd;stroke:none" d="m352 142.2-2.6-1 2.8-.1z" id="path3600-0"/><path style="fill:#000000;fill-rule:evenodd;stroke:none" d="m332.9 172.1-1.6 3.5.5-3.8z" id="path3602-9"/><path style="fill:#000000;fill-rule:evenodd;stroke:none" d="m332.3 172-1 3.6" id="path3604-9"/><path style="fill:#000000;fill-rule:evenodd;stroke:none" d="m331.3 174.3-.7 3.8-.4-3.8z" id="path3606-6"/><path style="fill:#000000;fill-rule:evenodd;stroke:none" d="m334.7 169.4-1.5 2.5.4-2.9z" id="path3608-8"/><path style="fill:#000000;fill-rule:evenodd;stroke:none" d="m333.4 173.7-1.4 2.9.1-1.6.2-1.6z" id="path3610-3"/><path style="fill:#000000;fill-rule:evenodd;stroke:none" d="m333.4 177.8-.6 3.2-.5-3.2z" id="path3612-4"/><path style="fill:#000000;fill-rule:evenodd;stroke:none" d="m337 186.2-.3 2-1-1.8z" id="path3614-8"/><path style="fill:#000000;fill-rule:evenodd;stroke:none" d="m335.7 184.3-.2 1.2-.2 1.2-.7-2.3z" id="path3616-4"/><path style="fill:#000000;fill-rule:evenodd;stroke:none" d="m334.6 182.8-.5 2.3-.3-1.2-.3-1.1z" id="path3618-9"/><path style="fill:#000000;fill-rule:evenodd;stroke:none" d="m333.4 182.5-.5 2.1-.7-2z" id="path3620-9"/><path style="fill:#000000;fill-rule:evenodd;stroke:none" d="m332.3 179-.4 2.8-.7-2.7z" id="path3622-2"/><path style="fill:#000000;fill-rule:evenodd;stroke:none" d="m335.3 166.8-1.8 1.8.8-2.4z" id="path3624-5"/><path style="fill:#000000;fill-rule:evenodd;stroke:none" d="m334.2 166.6-2.3 2.2 1.3-3z" id="path3626-5"/><path style="fill:#000000;fill-rule:evenodd;stroke:none" d="m333.4 168.6-1.7 2.7.3-1.5.3-1.6z" id="path3628-3"/><path style="fill:#000000;fill-rule:evenodd;stroke:none" d="m336.3 167-1.6 1 .6-1.7z" id="path3630-3"/><path style="fill:#000000;fill-rule:evenodd;stroke:none" d="m338.8 162.2-2 .3 1.6-1.3z" id="path3632-3"/><path style="fill:#000000;fill-rule:evenodd;stroke:none" d="M339.2 163.2h-1.8l1.3-1.1z" id="path3634-7"/><path style="fill:#000000;fill-rule:evenodd;stroke:none" d="m333.8 138.4-3.5-2.5 4 1.5z" id="path3636-4"/><path style="fill:#000000;fill-rule:evenodd;stroke:none" d="m334.7 140.1-3.8-2.4 4.3 1.4z" id="path3638-3"/><path style="fill:#000000;fill-rule:evenodd;stroke:none" d="m335.7 141.4-3.8-2.1 4.2 1z" id="path3640-8"/><path style="fill:#000000;fill-rule:evenodd;stroke:none" d="m334.2 135.4-3-1.4 3.3.2z" id="path3642-0"/><path style="fill:#000000;fill-rule:evenodd;stroke:none" d="M331.5 136.1 329 134l3 1.2z" id="path3644-8"/><path style="fill:#000000;fill-rule:evenodd;stroke:none" d="M336.3 137.3 333 136l3.4.2z" id="path3646-8"/><path style="fill:#000000;fill-rule:evenodd;stroke:none" d="m336.3 142.8-3.5-1.9 3.9.8z" id="path3648-0"/><path style="fill:#000000;fill-rule:evenodd;stroke:none" d="m337.5 144-1.6-.7-1.6-.6 3.4.2z" id="path3650-6"/><path style="fill:#000000;fill-rule:evenodd;stroke:none" d="m339 144.9-3.9-1 4-.2z" id="path3652-8"/><path style="fill:#000000;fill-rule:evenodd;stroke:none" d="m340 145.8-4.1-.7 4.2-.5z" id="path3654-1"/><path style="fill:#000000;fill-rule:evenodd;stroke:none" d="M341.3 146.7H337l4.2-1.2z" id="path3656-9"/><path style="fill:#000000;fill-rule:evenodd;stroke:none" d="m343.2 147.5-3.4.4 3-1.5z" id="path3658-8"/><path style="fill:#000000;fill-rule:evenodd;stroke:none" d="m344.5 148.2-2.8.5 2.4-1.6z" id="path3660-9"/><path style="fill:#000000;fill-rule:evenodd;stroke:none" d="M347.4 146h-3.7l3.5-1.2z" id="path3662-7"/><path style="fill:#000000;fill-rule:evenodd;stroke:none" d="m346.7 144.5-5.4-.1 5.3-1z" id="path3664-2"/><path style="fill:#000000;fill-rule:evenodd;stroke:none" d="m344.5 143.6-5-.5 5-.7z" id="path3666-2"/><path style="fill:#000000;fill-rule:evenodd;stroke:none" d="m342.5 142.3-4.4-.9 4.5-.2z" id="path3668-8"/><path style="fill:#000000;fill-rule:evenodd;stroke:none" d="m340 141-3.2-1.1 3.4-.1z" id="path3670-2"/><path style="fill:#000000;fill-rule:evenodd;stroke:none" d="m338.6 139.4-3-1.4 3.3.3z" id="path3672-8"/><path style="fill:#000000;fill-rule:evenodd;stroke:none" d="m350.2 126.2-2.7 2.4 1.8-3.1z" id="path3674-9"/><path style="fill:#000000;fill-rule:evenodd;stroke:none" d="m347.2 128-2.7 1.3 2-2.2z" id="path3676-0"/><path style="fill:#000000;fill-rule:evenodd;stroke:none" d="m345.6 130-2.6.8 2-1.9z" id="path3678-7"/><path style="fill:#000000;fill-rule:evenodd;stroke:none" d="m348.5 127.8-2.4 1 1.6-2z" id="path3680-8"/><path style="fill:#000000;fill-rule:evenodd;stroke:none" d="m346 128.1-2.5 1.2 1.8-2.1z" id="path3682-1"/><path style="fill:#000000;fill-rule:evenodd;stroke:none" d="m343.2 130.1-2.5.6 2-1.6z" id="path3684-5"/><path style="fill:#000000;fill-rule:evenodd;stroke:none" d="m346.7 130.1-2.3 1 1.6-2z" id="path3686-8"/><path style="fill:#000000;fill-rule:evenodd;stroke:none" d="m358.7 146.9-.4 2-.8-2z" id="path3688-6"/><path style="fill:#000000;fill-rule:evenodd;stroke:none" d="m357.6 141.5.2 3.1-1.3-2.8z" id="path3690-1"/><path style="fill:#000000;fill-rule:evenodd;stroke:none" d="m358.3 148.2-.7 2.2-.4-2.2z" id="path3692-2"/><path style="fill:#000000;fill-rule:evenodd;stroke:none" d="m357.7 149.2-.8 3-.2-1.6-.2-1.4z" id="path3694-4"/><path style="fill:#000000;fill-rule:evenodd;stroke:none" d="m359 145.4-.4 2-.8-1.9z" id="path3696-2"/><path style="fill:#000000;fill-rule:evenodd;stroke:none" d="m359.4 143.6-.2 1-.2 1.1-.7-2z" id="path3698-5"/><path style="fill:#000000;fill-rule:evenodd;stroke:none" d="m359.8 142.5-.2.8-.1.8-.4-.7-.4-.7z" id="path3700-8"/><path style="fill:#000000;fill-rule:evenodd;stroke:none" d="m356.7 150.8-.6 2.7-.5-2.8z" id="path3702-6"/><path style="fill:#000000;fill-rule:evenodd;stroke:none" d="m356.2 147.1-.1 2.7-1-2.5z" id="path3704-2"/><path style="fill:#000000;fill-rule:evenodd;stroke:none" d="m355.8 149-.3 1.6-.8-1.3z" id="path3706-6"/><path style="fill:#000000;fill-rule:evenodd;stroke:none" d="m359 136.2.3 3.1-1.4-2.8z" id="path3708-5"/><path style="fill:#000000;fill-rule:evenodd;stroke:none" d="M359 138.4v2.7l-1.2-2.5z" id="path3710-3"/><path style="fill:#000000;fill-rule:evenodd;stroke:none" d="m358.5 141.4-.1 3-1-2.8z" id="path3712-9"/><path style="fill:#000000;fill-rule:evenodd;stroke:none" d="m357.9 145-.5 1.9-.7-1.8z" id="path3714-2"/><path style="fill:#000000;fill-rule:evenodd;stroke:none" d="m356.8 147.6-.2 2.3-1-2.1z" id="path3716-4"/><path style="fill:#000000;fill-rule:evenodd;stroke:none" d="m355 152.7-.6 1.3-.6 1.3v-2.9z" id="path3718-6"/><path style="fill:#000000;fill-rule:evenodd;stroke:none" d="m354.1 153.5-1.2 3 .1-3.2z" id="path3720-1"/><path style="fill:#000000;fill-rule:evenodd;stroke:none" d="m353.3 154.3-1.4 2.7.3-3z" id="path3722-8"/><path style="fill:#000000;fill-rule:evenodd;stroke:none" d="m352.1 156-1.2 1.5.2-1.9z" id="path3724-2"/><path style="fill:#000000;fill-rule:evenodd;stroke:none" d="m355.5 151.3-.7 2.2-.5-2.2z" id="path3726-1"/><path style="fill:#000000;fill-rule:evenodd;stroke:none" d="m356.1 151.9-.9 3-.2-3.2z" id="path3728-1"/><path style="fill:#000000;fill-rule:evenodd;stroke:none" d="M356.3 119v1.8l.2 1.9-1.4-3.5z" id="path3730-9"/><path style="fill:#000000;fill-rule:evenodd;stroke:none" d="M356.3 121.4v1.4l-.1 1.5-1-2.7z" id="path3732-7"/><path style="fill:#000000;fill-rule:evenodd;stroke:none" d="m356 123.2-.3 2.4-.4-1.1-.5-1.2z" id="path3734-6"/><path style="fill:#000000;fill-rule:evenodd;stroke:none" d="m355.7 124.6-.4 2.5-.7-2.5z" id="path3736-2"/><path style="fill:#000000;fill-rule:evenodd;stroke:none" d="m355.2 126.4-.5 2.2-.6-2.2z" id="path3738-9"/><path style="fill:#000000;fill-rule:evenodd;stroke:none" d="m354 126.6-.6 2.6-.5-2.6z" id="path3740-5"/><path style="fill:#000000;fill-rule:evenodd;stroke:none" d="m354.7 125-.3 1-.2 1-.7-2z" id="path3742-2"/><path style="fill:#000000;fill-rule:evenodd;stroke:none" d="m354.7 128-.6 1.6-.5-1.6z" id="path3744-0"/><path style="fill:#000000;fill-rule:evenodd;stroke:none" d="m356.7 115.8.1 2.2-1.2-1.8z" id="path3746-0"/><path style="fill:#000000;fill-rule:evenodd;stroke:none" d="m356.7 117.9.1 1.5.1 1.6-.6-1.4-.7-1.4z" id="path3748-3"/><path style="fill:#000000;fill-rule:evenodd;stroke:none" d="m359.4 183.6-1.6 1.9.6-2.4z" id="path3750-9"/><path style="fill:#000000;fill-rule:evenodd;stroke:none" d="m358.9 185.4-1.7 2.1.6-2.6z" id="path3752-1"/><path style="fill:#000000;fill-rule:evenodd;stroke:none" d="m358 185-1.1 1.5-1 1.6 1-3.7z" id="path3754-8"/><path style="fill:#000000;fill-rule:evenodd;stroke:none" d="m356.2 186.4-1.6 2 .6-2.5z" id="path3756-1"/><path style="fill:#000000;fill-rule:evenodd;stroke:none" d="m357.4 183.5-1.3 2 .2-2.3z" id="path3758-9"/><path style="fill:#000000;fill-rule:evenodd;stroke:none" d="m355.9 183.8-1.3 1.6.2-2z" id="path3760-5"/><path style="fill:#000000;fill-rule:evenodd;stroke:none" d="m355 186.5-1.7 2.1.6-2.6z" id="path3762-3"/><path style="fill:#000000;fill-rule:evenodd;stroke:none" d="m354.7 184.5-1.6 2.8.5-3.1z" id="path3764-2"/><path style="fill:#000000;fill-rule:evenodd;stroke:none" d="m353.4 185.9-1.5 1.7.4-2.2z" id="path3766-5"/><path style="fill:#000000;fill-rule:evenodd;stroke:none" d="m351.9 186.6-.6.6-.6.5v-.8l.2-.8z" id="path3768-2"/><path style="fill:#000000;fill-rule:evenodd;stroke:none" d="m344 189.4 1 2.3-1.9-1.6z" id="path3770-5"/><path style="fill:#000000;fill-rule:evenodd;stroke:none" d="m345.6 189.3.8 2.4-1.8-1.8z" id="path3772-8"/><path style="fill:#000000;fill-rule:evenodd;stroke:none" d="m336.7 164.4-3 1.4 2.3-2.4z" id="path3774-6"/><path style="fill:#000000;fill-rule:evenodd;stroke:none" d="m337.4 165.2-1.5 1 .6-1.7z" id="path3776-7"/></g></g><path style="fill:#ffffff;fill-rule:evenodd;stroke:none" d="M199.6 148.7v-27.6h-42.9v27.6a21.5 21.5 0 0 0 43 0" id="path3975"/><path style="fill:#c09f60;fill-rule:evenodd;stroke:none" d="M196.6 148.7v-24.5h-36.8v24.5a18.4 18.4 0 0 0 36.8 0" id="path3977"/><g style="fill-rule:evenodd" id="g3979" transform="translate(-29.7 -251.3)scale(1.28283)"><path style="fill:#000000;stroke:none" d="M156.5 311.8h9.6v9.6h-9.6z" id="path3981"/><path style="fill:#000000;stroke:none" d="M156.8 310.3c-1-.7-1.4-2-.9-3s1.7-1.3 2-2c.3-.9-.2-1.7-.3-2.5q-.2-1.4.8-2.3.7-.4 1.3-1 .2-.8-.1-1.4 0-1 .6-1.9l.2 2 .7 1 .2 1c1-.7 1.3-.8 1-1.8 0-.8-.3-1.1.2-2 0 1 .6 1.3 1.2 2.1q.7 1 .2 2c1.4-.5 1.4-1.3 1.5-2.1q0-1.5 1.1-2-.5 1.4.4 2.5c0-1 .9-1.1 1.6-1.5s.8-.6.8-1.3q.8 1.4-.2 2.4-.6.5-.5 1.7c.7-.7 1.8-.5 2.6-1 1-.3 1.3-1.3 1.6-2.2.3 1.3.5 2.6-.3 3.7q-.8 1-2 1.8l-.9.7q-.5.4-.5 1.3a3 3 0 0 1-1.5 2.5q-.9.4-1 1.5t-.8 1.8z" id="path3983"/><path style="fill:#da231d;stroke:none" d="m162.4 304 1-1.4q.4 1.4-.2 2.7.7-.5 1.6-.8.7-.1.9-1c.2-1 .5-1.3 1.3-1.8-.4.8-.5 1-.3 1.9q.2.7 0 1.6-.3.7-.8 1t-1 .8c-.4.6-.2 1.3-.3 2l-.6 1h1.7q.7-.5.7-1.5c0-1 .5-1.2 1.1-1.7q1.3-.7 1.3-2.3 0-1 .7-1.5l1-.7q1-.7 1.8-1.7.8-1.3.4-2.7-.6 1.4-1.4 1.6c-.8.4-1.9.2-2.6 1q-1.2 1.3-.9 3h-.2q-.3-1.7.8-3c-.3-1.2.2-1.7.5-2.1q.6-.5.5-1.4-.3.5-.8.7c-.8.3-1.5.5-1.4 1.5v1.5q-.4.7-1.2 1c-.6.3-1.3.6-1 2.2h-.3c-.3-1.7.5-2 1.2-2.5q.8-.2 1-.9.2-.4 0-1.1-1-1-.8-2.5-.6.7-.5 1.5c0 .7 0 1.4-1 2q-.9.4-1.6 1-1.1 1-.6 2.5m-4.3 6c-1-1.4-.5-2 .1-2.7l1-1.7c.2 1 .6 1.2.9 1.9 0-2 .9-2.5 1.7-3.1l.4-.3q-.7-2.3 1.4-3.5.5-1.1 0-1.8l-1.1-1.5.1 1c.2 1.2 0 1.3-1.3 2.1q-.7.5-1 1.2-.1 1 .3 1.8a2 2 0 0 1-.2 1.7l-.2-.1q.5-.7.2-1.5c-.2-.7-.6-1.2-.3-2q.3-.6 1-1.1l-.2-1.1-.7-1-.2-1.2-.2 1c0 .5.4.9 0 1.5-.2.6-.8.7-1.2 1.1q-1 .8-.8 2c.2.9.6 1.7.3 2.6-.4 1-1.5 1.1-2 2q-.5 1.6.7 2.8zm6-2.5-.2-.8-.8.6c-.8.5-1.5 1-1.3 2.8h2l.5-1.2q.2-.7-.1-1.4m-2 .2.8-.6 1.3-1c-.1.6-.1.8.2 1.5l.4-.8q.4-.5 1-.7 1.1-1 .7-2.5-.2-.6 0-1.2l-.2.2-.4.9q-.3 1-1 1.3-1.2.2-2 1l-.2.5q-.4.6-.5 1.4m-.6 2.4q0-1.5.4-2 0-1.3.8-2.5.8-.8.6-2.3-.7.8-1.3 1.2c-1 .7-1.9 1.4-1.7 3.8h-.2q-.3-1-1-2l-.7 1.1c-.6.7-1 1.2 0 2.7z" id="path3985"/><path style="fill:#000000;stroke:none" d="M166 309.7v2.2h-9.5v-2.2z" id="path3987"/><path style="fill:#da231d;stroke:none" d="M165.8 311.8V310h-9v1.8z" id="path3989"/><path style="fill:#000000;stroke:none" d="M169.6 305.2h5v2.8h-5zm2.9-.5v.3h-.9v-.3q.5-.3.9 0m.1 3.5.2 5.7c-.2.6-1.3.6-1.5 0l.2-5.7z" id="path3991"/><path style="fill:#000000;stroke:none" d="M149.5 305.3h4.8v2.7h-4.8zm2.8-.5v.3h-.8v-.3q.4-.3.8 0m.1 3.4.2 5.6c-.2.6-1.2.6-1.4 0l.2-5.6z" id="path3993"/></g><path style="fill:#fff500;fill-rule:evenodd;stroke:none" d="m155.6 191.4 7.5 1.3.7-1-7.4-2.6.7-1.5 7.8 2.9 1-1-7.3-4.4 1-1.4 7.6 4.8 1-.7-6.7-6.3 1.2-1.1 7 6.5.9-.4-5.5-8 1.4-.9 5.6 8.3 1-.4-3.7-9.3 1.5-.5 3.8 9.5 1-.2-1.3-10.2 1.6-.2 1.4 10.2h1.2l1.2-10.2 1.6.2-1.2 10.1 1 .2 3.4-9.7 1.6.5-3.4 9.5 1.3.4 5.4-8.3 1.4.8-5.3 8 1.1.6 7-6.5 1.2 1-6.7 6.4 1 .7 7.6-4.8 1 1.4-7.3 4.5 1 .9 7.8-3 .6 1.6-7.3 2.7.7.9 7.4-1.3q-2.2 1.3-4.5 2.4l-2 .4.2.4a43 43 0 0 1-32.5 0l.3-.4-2-.4q-2.4-1-4.6-2.4" id="path3973"/></g><!-- app4joy --></svg>