<svg width="600" height="400" id="svg2" viewBox="0 0 600 400" xmlns="http://www.w3.org/2000/svg"><g id="layer1"><path id="rect5240" style="color:#000000;clip-rule:nonzero;display:inline;overflow:visible;visibility:visible;opacity:1;isolation:auto;mix-blend-mode:normal;color-interpolation:sRGB;color-interpolation-filters:linearRGB;solid-color:#000000;solid-opacity:1;fill:#005BB2;fill-opacity:1;fill-rule:nonzero;stroke:none;stroke-width:1.5;stroke-linecap:butt;stroke-linejoin:miter;stroke-miterlimit:4;stroke-dasharray:none;stroke-dashoffset:0;stroke-opacity:1;marker:none;paint-order:stroke;color-rendering:auto;image-rendering:auto;shape-rendering:auto;text-rendering:auto" d="M0 0h600v400H0z"/></g><g style="display:inline" id="layer2"><g transform="translate(-93.9 -300)scale(1.28494)" id="g564"><path id="path566" style="fill:#FFD500;fill-rule:evenodd;stroke:#8a7258;stroke-width:0.85039997;stroke-linecap:butt;stroke-linejoin:miter;stroke-dasharray:none" d="M398.4 309.6c-1 4.8 2 10.6-8.7 7.8a23 23 0 0 0-42 16.3 55 55 0 0 0 10.2 30.2c-4.3 5.8-8.6 14.6-3.7 21.6 6 8.5 17.3 5.6 25.3 9.2 5.8 2.6 10 7.4 10.6 13.8 1.5 18-13.1 16.1-23.5 9.2v7.8c16.5 3.7 29.5 4.8 29.5-17.4q-.2-5.7-2.3-10.6c-4.7-12-16.7-20-25.3-29 9.2-8 12.7 1 12 6.9 5.8-9.2 3.6-17-9.7-15.6 2.5-4.3 7.2-20.6-11.5-13.4 8.2.8 10.9 6.9 2.7 13.4-9.3-9.4-11-19.7-9.5-32.6 2.6-22.4 38-22.5 29.9 1-3.4 10-9.1 1.3-9.8-4.8-4.3 6.2 1 21.4 11.5 13.4 0 2.3-1.4 5.2 1.4 6.6 3 1.4 4.3 5 .5 11.8 6.2-1.8 7.3-4.4 6.9-8.3 2 .1 1.8 1.5 2 3.7.5-1.1 2.6-9 .3-13.4 2.5-.9 2.6 1.9 2.7 4.2 2.4-6.6 3.9-12.2-2.8-15.7 10.3 0 10.6-8 3.3-16zm-32.7 63c7.5 8.5 17.1 12.4 23.6 24.6-9.6-9.7-14-6.6-17.3-9.5 4.2 1.2 4-3 .6-5.7-.5-.5-9-4.6-7-9.4z"/><path id="path568" style="fill:#FFD500;fill-rule:evenodd;stroke:#8a7258;stroke-width:0.85039997;stroke-linecap:butt;stroke-linejoin:miter;stroke-dasharray:none" d="m299.3 286.7 31.1 8.3c1.8-6.3 4.7-8.7 10.6-11.5-1.7-3.2-3.3-2.9-5.8-2.1-2.1-1-4.3-2.5-6.4 2.1 1.1 0 4 .4 2.6 2.1-1.9 2.3-5 2-7.4.8-3.5-2-3.2-8 .9-3.6 0-1.2.8-2.6.6-3.7q-.2-1.4-1.4-2.3c-.7-.6-1.4-.3-2-1.1-1-1.3-.4-2.2-2.2-3.9-2.2 0-2.7 1.5-4.4 2.2-1.6.6-4.5-.4-4.9 2.7l-.2 2c5.8-1.5 2.5 4.6-2.6 3.8-4-.7-7.6-7-1.5-4 .2-3.4.7-5.4-3.6-5.6-2.2-1.5-3-3-7.2-.8 3 5.1 5.5 8.6 3.8 14.6z"/><path id="path570" style="fill:#FFD500;fill-rule:evenodd;stroke:#8a7258;stroke-width:0.85039997;stroke-linecap:butt;stroke-linejoin:miter;stroke-dasharray:none" d="M343.3 326c-8-6-4.3-19.8-12.9-31.1v.1l-30.9-8.3-2.9 1c-2.4 1-3 2.6-4.5 3.5-4.2 2.8-8.6 2.4-12.7 4.5-2.3 1.2-1.9 12.6-1 14.5s4 4.6 6.8 5.3q.3-.9 1-1.9 0 1.3.2 2.2h.5c2-.3 4.9-1.8 6.6-2.8 12-7.5 13.4 8.5 3.8 7.2-2.3-.3-6-2.6-8.3-3l-2.4-.8.3 1c-1 .2-1.3.3-2.4 0l.3-.8-.6.5c-1.2 1.3-1.9 9.4-.7 11 1.8 2.6 8-1.5 12.4.3-5.3 2-13.3 1.3-18 4.6 2.1-.5 4 0 3.2 1.4s-6.4-.8-9.5 3.3c4-1.7 4.6-1 6.5-1-8.7 4.6-13.1 12.5-16.3 21.5-2.3 6.4-5.3 20.3-13.5 20.7 2 1 4.5 1.7 7.6-1 .3 1.6-1.4 4.5-5.2 4.4 2 2.7 5.6.4 5.6.5.6 2.3-.2 5 .6 8.5-6.8 4-14 8.5-17.2 8.6-8.2.2-7.7-.1-12-6.2-2-2.7-3.8-5.6-7.3-6.6h-1c3.4 3.2-3 6.6-5.2 7.7v.2c2.9 1.2 1.1 7 .4 9l-.7-.5v.6c4 .5 2 7 1.2 9.2l-1-.7v.4c1.9 7 10.7 1.1 14.2-.3 4.6-2 16.4-.8 8 5.5 6.2-1.6 6.5-5.2 10.6-7.3s4.6 3.4 0 3.8c5.3 3.7 6.2-2.9 8.8-4s5.6 3.3-1.4 6.1c7 2.3 8.6-4.6 9.5-5.2-.7 1.7-3.2 9.5 8 6-7.1 1-3.9-8.8.3-6 2.2 1.5 2 4.7 5.2 6.6 7 4 14.9 5.5 22.8 5.5 32 0 26.9 6.5 30 37 .7 6.7 12 13.6 6.2 20a7.5 7.5 0 0 0 5.5-7.3c2.7 2.1 1 5.8.2 8.6 5-2.9 5-9.9 4.3-12 4.5 2.7 4.2 10.8 2.4 13.4 3.7-1.7 4.8-4.8 4.1-7.3 6.9.7-.2 19.3-5.8 21-3.8 1.3-8.6-1-12.4.4q-2 .9-2.8 1.7c2 .2 2.7 4.2 3 5.7l1-.7c3-1.7 4 3.7 4.3 5.4h-1l.6.6q.6-.6 1.3-1c3.1-1.7 4.1 3.6 4.4 5.4h-.2l1 .5q2.8 1.4 5 0c1.4-.9 2.3-3.7 3-4.8 2.6-4 6.7-7.6 8.4-.1 5-3.6.9-9.6 1.6-11.6 1.4-4 6 .9 4.5 3.8 4.3-5-1.2-6.9-.3-10.4 1.1 1.3 2 3.7 5.6 1.9-5.6-2.2-4-10.3-3.6-14.7.3-2.6 4.3-13.3 3.1-15.1-2.6-4-11.6 4.6-11.4-7.3.2-7.3 3.5-13.9 4.2-21 1.9-20.3 1-26.7-17-38-5.1-3.2-34.5-17.2-25.3-22.1 1-.6 2.2.6 2 3.8 2.3-2 .5-6.8 1.3-8.3.8.4 1.3 1 1.4 3.2.6-1.5.8-5 .5-7.5.7 1.5 1 2.2 1.4 4.4.5-2 .6-5.8-.2-9 1.3 3.8 4.3 3.8 6.6 3.1-5.3-2.2-4-13.4-3.8-15.2 1.7 2.9 5 3.7 6.5 3.1-3-1.4-4.8-4.8-4.8-12.4 1.2 2 2.4 3.7 4.8 3.5-2.5-1.9-4.4-6-3-11 0 1.6.9 3.8 3.4 4a9 9 0 0 1-2.3-5.1c.4.6 1.4 2.2 3.4 2.2-2.2-1.8-3.3-5.5-2.5-8.9q2 1.6 4.6.4zm-8.5 179h-.2z"/><path id="path572" style="fill:#57574d;fill-rule:evenodd;stroke:#57574d;stroke-width:0.21600001;stroke-linecap:butt;stroke-linejoin:miter;stroke-dasharray:none" d="M214.2 394.8c-.6-3.8-2.7-4-6.4-4.3 1.7-3.8 8.2-6.7 11.6-3.5s-3 6.7-5.2 7.8z"/><path id="path574" style="fill:#57574d;fill-rule:evenodd;stroke:#57574d;stroke-width:0.21600001;stroke-linecap:butt;stroke-linejoin:miter;stroke-dasharray:none" d="M225.4 307.5c-1-2.8-6.1-3.8-9-3.3.6-3.2 8.6-5.5 11.7-3.6 3.3 2-1.2 5.7-2.7 7z"/><path id="path576" style="fill:#57574d;fill-rule:evenodd;stroke:#57574d;stroke-width:0.21600001;stroke-linecap:butt;stroke-linejoin:miter;stroke-dasharray:none" d="M226.1 318c-1.8-2.4-7.4-3-10-1.8-.3-3.2 6.7-7.7 10.2-6.8 3.7 1 1 7-.2 8.6z"/><path id="path578" style="fill:#57574d;fill-rule:evenodd;stroke:#57574d;stroke-width:0.21600001;stroke-linecap:butt;stroke-linejoin:miter;stroke-dasharray:none" d="M227 327.6c-1.8-2.4-7.4-3-10-1.8-.4-3.2 6.6-7.7 10.2-6.8s.9 7-.2 8.6z"/><path id="path580" style="fill:#57574d;fill-rule:evenodd;stroke:#57574d;stroke-width:0.21600001;stroke-linecap:butt;stroke-linejoin:miter;stroke-dasharray:none" d="M334.8 505c-2.8-.5-6 1-7 3.6-2.2-2-.3-7.4 2.6-9 3.1-1.8 4.1 3.6 4.4 5.3z"/><path id="path582" style="fill:#57574d;fill-rule:evenodd;stroke:#57574d;stroke-width:0.21600001;stroke-linecap:butt;stroke-linejoin:miter;stroke-dasharray:none" d="M254.3 483.9a6.5 6.5 0 0 0-6.4-4.5c.8-3 6.5-3.7 9.3-1.8 3 2-1.4 5.2-2.9 6.3z"/><path id="path584" style="fill:#57574d;fill-rule:evenodd;stroke:#57574d;stroke-width:0.21600001;stroke-linecap:butt;stroke-linejoin:miter;stroke-dasharray:none" d="M257.3 492.1c-2.6-1.2-6-.6-7.7 1.5-1.6-2.6 1.8-7.2 5.1-8 3.5-.7 2.8 4.7 2.6 6.5z"/><path id="path586" style="fill:#57574d;fill-rule:evenodd;stroke:#57574d;stroke-width:0.21600001;stroke-linecap:butt;stroke-linejoin:miter;stroke-dasharray:none" d="M264.4 500.8a7 7 0 0 0-6.8 3.8c-2.3-2-.5-7.4 2.4-9.1 3-1.8 4.1 3.6 4.4 5.3z"/><path id="path588" style="fill:#57574d;fill-rule:evenodd;stroke:#57574d;stroke-width:0.21600001;stroke-linecap:butt;stroke-linejoin:miter;stroke-dasharray:none" d="M280 499.2c-2.9.4-5.3 2.8-5.5 5.5-2.8-1.2-2.7-7-.3-9.4 2.4-2.6 5 2.3 5.7 3.9z"/><path id="path590" style="fill:#57574d;fill-rule:evenodd;stroke:#57574d;stroke-width:0.21600001;stroke-linecap:butt;stroke-linejoin:miter;stroke-dasharray:none" d="M340 509.6c-2.7-.4-5.8 1.2-6.8 3.7-2.3-2-.4-7.4 2.5-9 3.1-1.8 4.1 3.6 4.4 5.3z"/><path id="path592" style="fill:#57574d;fill-rule:evenodd;stroke:#57574d;stroke-width:0.21600001;stroke-linecap:butt;stroke-linejoin:miter;stroke-dasharray:none" d="M345.4 514.6c-2.8-.5-6 1.1-7 3.6-2.2-2-.3-7.4 2.6-9 3.1-1.7 4.1 3.6 4.4 5.4z"/><path id="path594" style="fill:#57574d;fill-rule:evenodd;stroke:#57574d;stroke-width:0.21600001;stroke-linecap:butt;stroke-linejoin:miter;stroke-dasharray:none" d="M214.6 404c-3-2.3-4.8-1-7.5 1.4-1.5-3.8 1-10.5 5.7-10.6 4.8-.2 2.6 6.9 1.8 9.2z"/><path id="path596" style="fill:#57574d;fill-rule:evenodd;stroke:#57574d;stroke-width:0.21600001;stroke-linecap:butt;stroke-linejoin:miter;stroke-dasharray:none" d="M215.1 413.3c-3-2.3-4.8-1-7.6 1.4-1.5-3.8 1.1-10.5 5.7-10.6 4.8-.2 2.7 6.9 2 9.2z"/><path id="path598" style="fill:#FFD500;fill-rule:evenodd;stroke:#8a7258;stroke-width:0.85039997;stroke-linecap:butt;stroke-linejoin:miter;stroke-dasharray:none" d="M265.8 349c-3.5-1.9-3.5-2.7-4.9-7.7-6-12-18.8-24.7-22.3-32.5-3.5-7.7-6-7.5-9.3-6.8.4 2-2.7 4.6-3.9 5.5v1.8l.9.1c3.7 1 1 7-.2 8.6l-1-.9q.3 1 .8 1.5v.3l1.3.1c3.6 1 .9 7-.2 8.6l-1-1q.7 2.1 2.6 2.8c2.6.7 3.8.4 5.3-2.4 4.4 3 4 8.7-2.6 5 1.4 3.4 6.7 2.3 9 4.2s2 4.3-3.8 3.4c1.6 1.5 3.7 1.5 5 1.3-.4 2.3-.8 4.7-5 2 .7 4.3 3.6 3.8 7.4 3.8-.1 3-1.5 4.5-4.3 2.2.4 3.7 6.5 3.5 6.5 8.7v5.6c0 .8 4 5 4 5l3.3 2.4 2.8 2.3c2.7-4.7 4.2-11 5.6-14.7q1.6-4.9 4-9.2z"/><path id="path600" style="fill:#d3a839;fill-rule:evenodd;stroke:#8a7258;stroke-width:0.85039997;stroke-linecap:butt;stroke-linejoin:miter;stroke-dasharray:none;fill-opacity:1" d="M302.2 423.7c-14.5 5.6-20 25.9-31.4 26 1.8 2 4.2 1.7 6.3 1.7.4 0-1 2.6-6 1.4 4.3 4.5 9.1 1.2 9.1 1.6-.3 5.4-1.6 8.8-4.6 13.3 6-4 6-6.7 6.6-5.6 1.7 3.3 1.1 5.5 3.7 8.7 3 3.7 2.5 4.5-1.5 7.4-4.6 3.4-8.3 7-14.4 6-4.8-.7-7.2-8.1-12-5.7.9 2-2.4 4.5-3.7 5.4l-.1-.5.2 2.4.3-.1c3.5-.8 2.8 4.6 2.6 6.4l-.8-.3 2 3.7.4.8 1.1-.8c3-1.8 4.1 3.6 4.4 5.3l-2.2.1c1.1.9 2.7 1 6 1q2.2-.1 4.2-1c-.1-2 .5-4.3 1.8-5.6 2.4-2.6 5 2.3 5.7 3.9q-.7 0-1.5.4h1.4c1.7 0 2 .6 2.8-.1 2.2-2-.5-4.5 1.2-6.6 2-2.6 4 .8 2.1 2.6 2.7-.7 1.4-5.4 3.4-6.2 2-.9 2.6 2.9 1.3 4.6 2.5-2 3-5.5 4.2-6.8s5.6-4.2 7.7-6c3-2.3 6.5-3.3 4.6-7.6-1-2.1-4.8-4.6-4.7-7 .2-5.2 5.3-6.7 9-9 3-1.7 13-5.2 17.7-9.2-1.4-19.4-1.8-24.3-27-24.6z"/><path id="path602" style="fill:#a65b45;fill-rule:evenodd;stroke:#8a7258;stroke-width:0.85039997;stroke-linecap:butt;stroke-linejoin:miter;stroke-dasharray:none" d="M362 359.8q-2.4 1.9-4 4"/><path id="path604" style="fill:#a65b45;fill-rule:evenodd;stroke:#8a7258;stroke-width:0.85039997;stroke-linecap:butt;stroke-linejoin:miter;stroke-dasharray:none" d="M365.6 372.7q1.5-3 2.9-4.2"/><g id="g606"><path id="path608" style="fill:#8a7258;fill-rule:evenodd" d="M362.8 366.5c-4.6 3.8-3.6 9.2-.8 15-11-3.2-3.5-13.6.8-15"/><path id="path610" style="fill:#8a7258;fill-rule:evenodd" d="M385.5 334.7c2-4.6 3.7-7.2 2.4-11 1.8 1.4 2.7 1.8 5.6 2-4.2.8-5.1 4.3-8 9"/><path id="path656" style="fill:#fdd5a5;fill-rule:evenodd;stroke:#8a7258;stroke-opacity:1" d="M302 319c-3.2 0-7.2-4.7-11.6-4.4a14 14 0 0 1-4 1.2l.2.6 2.4.7c2.2.5 6 2.8 8.3 3.1q3 .3 4.7-1.2zm-16.8-3.5-.7-.2c-9.4 1.5-15.6 4-18.3 2.2-6-4-.1-12.5-4.6-12-3.4.4-3.5 12 2.2 14.8 6.2 3.2 13.2-.4 19.8-1.7l.6-1.5.6-.5q0-.6.4-1zm1.4 1z"/><path id="path612" style="fill:#FFD500;fill-rule:evenodd" d="M286.2 313.6c-.8 1.4-1.2 2.2-1.7 3.7 1.1.4 1.3.3 2.4 0a8 8 0 0 1-.7-3.7"/><path id="path614" style="fill:#8a7258;fill-rule:evenodd" d="M309.5 295.8c-3-1.4-2-1.3-4.3-3.3-3.8-3.3-6.2-1.6-9.6.5 4.5 1.8 2.7 2.8 6 3.5a17 17 0 0 0 8-.7"/><path id="path616" style="fill:#8a7258;fill-rule:evenodd" d="M290.1 299.5c-1.5-1.1-5-4-7.1-2.8-1 .6-2.7 2-2.3 3.2.2.5 10.2.1 9.4-.4"/><path id="path618" style="fill:#8a7258;fill-rule:evenodd" d="M304.8 344.9a20 20 0 0 0 2.4 16.7c4.5-3.7 7.2-12 8.2-16.6 1.8 4.6.4 7.3 3.6 11.6a64 64 0 0 0 6.3-18.4c4.2 2.7 4.9 4.5 4.6 10.5 2.6-6 1.6-10.5 1.2-17.1l1.9 2.5c0-7.2-.6-8.6-4.7-14.6 1.9 5.9 1 10.7 0 15.6l-4.2-4.6c-.4 5.2-1 12-3.6 16.5-3.2-1.8-3.8-7.8-4.7-12-2.2 7.2-4.2 14.5-8.4 20-2-3.2-1.9-6.4-2.6-10.1"/><path id="path620" style="fill:#8a7258;fill-rule:evenodd" d="M298.3 328.5c7.4.1 10-4 10.2-11.8-.9 9.4-6.4 10.6-10.2 11.8"/><path id="path622" style="fill:#8a7258;fill-rule:evenodd" d="M321.2 306.9c1 3.8 1.7 6.7.4 10.5a7 7 0 0 0-.9-3c-.4 2.5-1.5 3.8-3 6l.2-2.1a8 8 0 0 1-2.7 3.4q.6-.9.3-1.9c-1.6 1.8-2.4 2-5.8 3.2 6.5-4.6 9.2-8.3 11.5-16.1"/><path id="path624" style="fill:#8a7258;fill-rule:evenodd" d="M281.6 360.4c-2.6 4-3.8 12 .8 15.2-.3-4.5-.4-7.5 1.4-9.2-1.3 4.7-1 17 5.4 18.4-4.1-3.8-.7-11.6.2-12.9-1.5 6.1-.2 15 6 18 1.2-1.3 3.2-6.8 4.1-8.9.9 4.8 3.2 12 4.4 13.3 3.2-5.4 5.7-9 6-15.6 1 .7 2.7 8 1.5 11.8a29 29 0 0 0 6.5-18.2c1.2 3.5 1.7 6.7.4 8.7 4.3-1.8 4.3-10.6 3.2-14.5 2.3.8 2 4.5 2 6.3 5-3 1-14.6.8-16.5 1 .3 3 1.5 5 3.9a8 8 0 0 0-4.8-9c1.8 1.4 3.8 4.5 3.9 6.3a11 11 0 0 0-5.5-3.2c.5 4 3 11.4 1.6 15.7a5 5 0 0 0-4-5.5c.7 3.2 1.3 11.1-.5 13.5.4-2.6-.7-7.3-2.5-9.4a42 42 0 0 1-4.7 17.5c.5-3-1.1-8.6-4-11.5-.2 5.5-.1 9-4.7 14.8a31 31 0 0 1-3.1-16.8c-1.5 2.8-2.6 9.7-6.2 15.2-4.6-3-5.4-11.7-4-19.2-2.4 2.6-5.9 10.2-3.9 13.3-4-3.1-2.6-15.7-.7-19.4-2.6 2.2-5.3 4-5 8.7-2-1.5 0-8.7.4-10.8"/><path id="path626" style="fill:#8a7258;fill-rule:evenodd" d="M293 341.1c-3.6 4.2-9.7 8.9-7.4 14.9 0-1.7.1-2.8 1.4-4-.5 2.2.1 3.5 2.2 5.3-2.7-3.8.7-9.7 3.8-16.2"/><path id="path628" style="fill:#8a7258;fill-rule:evenodd" d="M231.3 401.2c-12.3-5-5.5-8.3-16.8-6.4 11.5 1.4 2.6 3.5 16.8 6.4"/><path id="path630" style="fill:#8a7258;fill-rule:evenodd" d="M228.4 407.3c-9.5-2.7-4.7-5.7-13-3.3 8.7 0 2.2 2.3 13 3.3"/><path id="path632" style="fill:#8a7258;fill-rule:evenodd" d="M273.3 348.5c-3.8 3.1-6 8.7-.8 14.7-6-2.6-7.7-11.9.8-14.7"/><path id="path634" style="fill:#8a7258;fill-rule:evenodd" d="M270.1 366q-.6 4.6-.5 8 .6-2.6 3.3-5.4c-3 6-1.7 12.4 6.7 13a8 8 0 0 1-7.5-.4q2.3 2.7 8 4.7c-12 2.9-19.8-5.5-10-19.8"/><path id="path636" style="fill:#8a7258;fill-rule:evenodd" d="M277.6 400.4c-13.8 3.6-16.1-.7-26 1.1q3 .3 3.3 2.6c-5.8-.1-11 2.9-16.5 1.7 4.6 5.2 14.3 0 14.3.9 0 1.6 0 2.3-.7 3.8 2.6-1 10.9-7.3 8.7 1.6 1.2-.7 2.5-5.6 4.5-5.2s1.4 3.3.8 4.7c3.9-4.6 6.4-8.1 11.6-11.2"/><path id="path638" style="fill:#8a7258;fill-rule:evenodd" d="M269.2 411.5q1.2-.9 3 .1c2 1.5 1.8 4.7 5 6.6 7 4 15 5.5 22.9 5.5 26 0 27.5 4.3 28.8 22.1.5-2.4.5-6.6.5-7.2 0-17.4-17.6-17.7-30.4-17.7-.2 0 6.8-.5-1-5.7-2.7-1.7-7.6-.5-2.9 2.2-2.9 1-8-6.3-9.6-3.2-.8 1.6 2.3 1.4 3.3 1.6-2.5.3-7 1-7.9-2.6-2.4-9.5 17.1-1.9 14.9-17-2.3 8-6.3 8.3-15 9.4-5.4.7-7 3.2-11.5 5.9"/><path id="path640" style="fill:#8a7258;fill-rule:evenodd" d="m329 448.4 1 12.2c.5 4.7 6.2 9.5 7.6 14.2l-.1-.7c-7.5-16.4-6.7-27.4-4.9-44.7.5-4.7 4.8-4.2 4.4-4.4-5.5-1.7-7.6-4.5-9.6-10 3.7 10.8 3.6 21 1.7 33.4"/><path id="path642" style="fill:#8a7258;fill-rule:evenodd" d="M333.6 448.6c1.9 12.6 19 26.4 31.7 21-8.8 1.5-12-3.4-11.5-3.2 4.3 1.6 5.8 1.3 10-.6-3.2 0-6 1.8-9.1-2.3 1.4.4 3.4 1 6-.7-4.2 0-7.3-1.3-8.9-5.7-1 13.4-13.7.2-18.2-8.5"/><path id="path644" style="fill:#8a7258;fill-rule:evenodd" d="M363.5 475.6c.7 12.2-2.7 19.4-7 22.9-4.2 3.3-12.3 3.2-16.3 10.7 5.5-6.5 18.3-4.3 22.7-14a33 33 0 0 0 .6-19.6"/><path id="path646" style="fill:#8a7258;fill-rule:evenodd" d="M345.4 499.8c-5.3-.2-7.4-1-10.2 4 3.2-3.3 4.7-3.3 10.2-4"/><path id="path648" style="fill:#8a7258;fill-rule:evenodd" d="M241.3 322.7c-6.3 0-8.4-5.4-14.2-5.6 6.6-1 6 2.3 14.2 5.6"/><path id="path650" style="fill:#8a7258;fill-rule:evenodd" d="M240 316.4c-6.1-1.1-7.2-6.8-13-8.1 6.8.2 5.6 3.4 13 8"/><path id="path652" style="fill:#8a7258;fill-rule:evenodd" d="M248 337.3s1.5 3.4 1.7 4.3c1.6 9.7.7 13.8 9 21.2-8.7-11.2-6.2-19-8.3-22z"/><path id="path654" style="fill:#8a7258;fill-rule:evenodd" d="M318 415.9c-9.1-2.5-11.7-4.8-14-14-1.6 14 15.2 14.3 14 14"/><path id="path658" style="fill:#8a7258;fill-rule:evenodd" d="M327.5 442.6c-11.3 9.2-18.6 10.4-35.3 6.4 15.5 7.5 24.5 7.5 35.3-6.4"/><path id="path660" style="fill:#8a7258;fill-rule:evenodd" d="M272 488.6c-6.8 2.3-8.8-4.3-16.1-4 6.3-2.9 9 4.9 16 4"/><path id="path662" style="fill:#8a7258;fill-rule:evenodd" d="M276 491.6c-5.5 4.6-9.6-1-16.4 2 5-5 10 1.4 16.4-2"/><path id="path664" style="fill:#8a7258;fill-rule:evenodd" d="M282.4 486.6c8.6-3.7 10.3-11 16.5-9.6-6.1.3-6.6 6.3-16.5 9.6"/><path id="path666" style="fill:#8a7258;fill-rule:evenodd" d="M317.6 299.4c5.6-5.6 6 .3 13-.5 1.2 0-4.6 7.9-13 .5"/></g><path id="path668" style="fill:#FFD500;fill-rule:evenodd;stroke:#8a7258;stroke-opacity:1" d="M312 424.2v.9c.2 3.7 3 3 5.8 3.9 4.5 1.3 5.8 3.6 5.8 8.2 0 3 2.3 3.6 4.9 3.8-1.1-11-3.6-15.4-16.4-16.8z"/></g></g><!-- app4joy --></svg>