<svg width="600" height="400" viewBox="0 0 600 400" id="Layer_1" xml:space="preserve" xmlns="http://www.w3.org/2000/svg"><g id="g1"><path id="rect4832" style="fill:#ffffff;fill-opacity:1;stroke:none" d="M0 0h600v400H0z"/><path id="rect4062" style="fill:#005bbb;fill-opacity:1;stroke:none" d="M0 0h400v400H0z"/><path id="rect4834" style="fill:#ffd500;fill-opacity:1;stroke:none" d="M0 0h200v400H0z"/></g><g transform="translate(185 127.4)scale(.5019)" id="g4836"><path d="M382.4-49.4H75.6v234.6a153.4 153.4 0 0 0 306.8 0z" id="path3708" style="fill:#ffd500;fill-opacity:1;fill-rule:evenodd;stroke:#000000;stroke-width:0.5;stroke-miterlimit:4;stroke-opacity:1;stroke-dasharray:none"/><path d="M373.8 185.2a144.8 144.8 0 0 1-289.6 0v-226h289.6z" id="path3710" style="fill:#d40000;fill-opacity:1;fill-rule:evenodd;stroke:#000000;stroke-width:0.5;stroke-miterlimit:4;stroke-opacity:1;stroke-dasharray:none"/><path d="M135.5 13.2h187v169.4a93.5 93.5 0 0 1-187 0z" id="path3712" style="fill:#ffd500;fill-opacity:1;fill-rule:evenodd;stroke:#000000;stroke-width:0.5;stroke-miterlimit:4;stroke-opacity:1;stroke-dasharray:none"/><path d="M317.7 182.6a88.7 88.7 0 0 1-177.4 0V18h177.4z" id="path3714" style="fill:#005bbb;fill-opacity:1;fill-rule:evenodd;stroke:#000000;stroke-width:0.5;stroke-miterlimit:4;stroke-opacity:1;stroke-dasharray:none"/><g transform="translate(-52.6 -221.7)scale(.945)" id="g3716" style="fill-rule:evenodd;stroke:#000000;stroke-width:0.52909601;stroke-miterlimit:4;stroke-opacity:1;stroke-dasharray:none"><path d="M298 281.3a18.7 18.7 0 1 1 0 37.5 18.7 18.7 0 0 1 0-37.5zm0 4a14.7 14.7 0 1 1 0 29.5 14.7 14.7 0 0 1 0-29.5z" id="path3718" style="fill:#ffffff;stroke:#000000;stroke-width:0.52909601;stroke-miterlimit:4;stroke-opacity:1;stroke-dasharray:none"/><path d="M293.9 308.4h8.1v17h-8z" id="path3720" style="fill:#ffffff;stroke:#000000;stroke-width:0.52909601;stroke-miterlimit:4;stroke-opacity:1;stroke-dasharray:none"/><path d="M252.5 425a19 19 0 0 0 20.3 10.7c9.5-1.3 20-12.1 20-21.8h7c0 13.2-13.2 27.6-26.5 28.4a27 27 0 0 1-25.2-13.7l-4.6 6.2a81 81 0 0 1-2-29.8q6 10.8 16 17.5z" id="path3722" style="fill:#ffffff;stroke:#000000;stroke-width:0.52909601;stroke-miterlimit:4;stroke-opacity:1;stroke-dasharray:none"/><path d="M343.3 425a19 19 0 0 1-20.2 10.7c-9.5-1.3-20-12.1-20-21.8h-7c0 13.2 13.2 27.6 26.5 28.4a27 27 0 0 0 25.1-13.7l4.7 6.2a81 81 0 0 0 2-29.8q-6 10.8-16 17.5z" id="path3724" style="fill:#ffffff;stroke:#000000;stroke-width:0.52909601;stroke-miterlimit:4;stroke-opacity:1;stroke-dasharray:none"/><path d="m303.9 422.4 5.2-99.9v-.1h-22.3v.1l5.2 99.9a52 52 0 0 1-1.5 15.4c-3.4 12.6-12.2 23-26.8 25a29 29 0 0 1-8.9-.1c-7.4-1.3-14-5.4-18.5-11.2l7-4.5h.1l-.1-.2a53 53 0 0 1-19.8-19.5l-.1-.3v.3a53 53 0 0 0-.7 9.8c0 9.1 1.4 19.7 3.2 26.7v.3l.2-.2 4.9-6.8a40 40 0 0 0 33.3 14.6 36 36 0 0 0 12.4-3.2 42 42 0 0 0 21.2-23 43 43 0 0 0 6 10.7 39 39 0 0 0 27.7 15.5 38 38 0 0 0 10.7-.7 40 40 0 0 0 22.6-14l5 6.9v.2l.1-.3a75 75 0 0 0 1.9-9.5c1.3-9 1.7-19.7.6-27v-.3l-.1.3a53 53 0 0 1-19.7 19.5l-.2.1.1.1 7 4.5a29 29 0 0 1-27.4 11.3 33 33 0 0 1-14.5-5.8c-10-7.6-14.5-21.2-13.8-34.6z" id="path3726" style="fill:#ffffff;stroke:#000000;stroke-width:0.52909601;stroke-miterlimit:4;stroke-opacity:1;stroke-dasharray:none"/></g><g transform="translate(-52.6 -221.7)scale(.945)" id="g3728" style="fill:#ffd500;fill-opacity:1;fill-rule:evenodd;stroke:#000000;stroke-width:0.52909601;stroke-miterlimit:4;stroke-opacity:1;stroke-dasharray:none"><path d="M160.6 378c2.4 2.2 5.7 3.6 9 4v-28.3l-12.3-1.3V349h11.2a5 5 0 0 1-1-8 5.1 5.1 0 1 1 6.4 8H185v3.4l-12.3 1.3v28.2a14 14 0 0 0 8.8-4h-.2l-2-.6q4.6-2.1 7.3-8c1.1 4.2.7 8.7-2 11.8l-1-1.7c-7 8.6-18.6 7.6-25 0l-1.1 1.7a13 13 0 0 1-2-11.8c1.9 4 4 6.5 7.2 8l-1.7.5zm8.5-35.4a3 3 0 0 0 0 4c1.2 1.2 3.2 1 4.3-.2a2.9 2.9 0 0 0-4.3-3.8z" id="path3730" style="fill:#ffd500;fill-opacity:1;stroke:#000000;stroke-width:0.52909601;stroke-miterlimit:4;stroke-opacity:1;stroke-dasharray:none"/><path d="M160.6 246.9c2.4 2.2 5.7 3.6 9 4v-28.3l-12.3-1.3v-3.4h11.2l-1-.8a5.1 5.1 0 1 1 6.4.8H185v3.4l-12.3 1.3v28.3a14 14 0 0 0 8.8-4h-.2l-2-.7q4.6-2.1 7.3-8c1.1 4.2.7 8.7-2 11.8l-1-1.7c-7 8.6-18.6 7.6-25 0l-1.1 1.7a13 13 0 0 1-2-11.8c1.9 4 4 6.6 7.2 8l-1.7.6zm8.5-35.4a3 3 0 0 0 0 4c1.2 1.3 3.2 1.1 4.3-.2a2.9 2.9 0 0 0-4.3-3.8z" id="path3732" style="fill:#ffd500;fill-opacity:1;stroke:#000000;stroke-width:0.52909601;stroke-miterlimit:4;stroke-opacity:1;stroke-dasharray:none"/><path d="M179 501.4c2.3 2.2 5.6 3.6 9 4V477l-12.4-1.3v-3.4h11.2l-1-.8a5.1 5.1 0 1 1 6.4.8h11.1v3.4L191 477v28.3a14 14 0 0 0 8.8-4h-.2l-2-.7q4.6-2.1 7.3-8c1.2 4.2.7 8.7-2 11.8l-1-1.7c-7 8.6-18.6 7.6-25 0l-1.1 1.7a13 13 0 0 1-2-11.8c1.9 4 4 6.5 7.2 8l-1.7.5zm8.4-35.4a3 3 0 0 0 0 4 3 3 0 0 0 4.3-.2 2.9 2.9 0 0 0-4.3-3.8z" id="path3734" style="fill:#ffd500;fill-opacity:1;stroke:#000000;stroke-width:0.52909601;stroke-miterlimit:4;stroke-opacity:1;stroke-dasharray:none"/><path d="M414.4 378c2.4 2.2 5.7 3.6 9 4v-28.3l-12.3-1.3V349h11.2a5 5 0 0 1-1-8 5.1 5.1 0 1 1 6.4 8h11.1v3.4l-12.3 1.3v28.2a14 14 0 0 0 8.8-4h-.2l-2-.6q4.6-2.1 7.3-8c1.2 4.2.7 8.7-2 11.8l-1-1.7c-7 8.6-18.6 7.6-25 0l-1.1 1.7a13 13 0 0 1-2-11.8c1.9 4 4 6.5 7.2 8l-1.7.5zm8.5-35.4a3 3 0 0 0 0 4c1.2 1.2 3.2 1 4.3-.2a2.9 2.9 0 0 0-4.3-3.8z" id="path3736" style="fill:#ffd500;fill-opacity:1;stroke:#000000;stroke-width:0.52909601;stroke-miterlimit:4;stroke-opacity:1;stroke-dasharray:none"/><path d="M414.4 246.9c2.4 2.2 5.7 3.6 9 4v-28.3l-12.3-1.3v-3.4h11.2l-1-.8a5.1 5.1 0 1 1 6.4.8h11.1v3.4l-12.3 1.3v28.3a14 14 0 0 0 8.8-4h-.2l-2-.7q4.6-2.1 7.3-8c1.2 4.2.7 8.7-2 11.8l-1-1.7c-7 8.6-18.6 7.6-25 0l-1.1 1.7a13 13 0 0 1-2-11.8c1.9 4 4 6.6 7.2 8l-1.7.6zm8.5-35.4a3 3 0 0 0 0 4c1.2 1.3 3.2 1.1 4.3-.2a2.9 2.9 0 0 0-4.3-3.8z" id="path3738" style="fill:#ffd500;fill-opacity:1;stroke:#000000;stroke-width:0.52909601;stroke-miterlimit:4;stroke-opacity:1;stroke-dasharray:none"/><path d="M396.1 501.4q3.8 3.4 9 4V477l-12.3-1.3v-3.4H404a5.1 5.1 0 1 1 5.4 0h11.1v3.4l-12.3 1.3v28.3a14 14 0 0 0 8.8-4h-.2l-2-.7q4.6-2.1 7.3-8c1.1 4.2.7 8.7-2 11.8l-1-1.7c-7 8.6-18.6 7.6-25 0l-1.1 1.7a13 13 0 0 1-2-11.8c1.9 4 4 6.5 7.2 8l-1.7.5zm8.5-35.4a3 3 0 0 0 0 4 3 3 0 0 0 4.3-.2 2.9 2.9 0 0 0-4.3-3.8z" id="path3740" style="fill:#ffd500;fill-opacity:1;stroke:#000000;stroke-width:0.52909601;stroke-miterlimit:4;stroke-opacity:1;stroke-dasharray:none"/></g><g transform="translate(0 -50)" id="g14166" style="fill:#ffd500;fill-opacity:1"><path d="M231.5 365.8c2 0 3.5 2 3.5 4.2 0 2.4-1.6 4.3-3.5 4.3s-3.4-2-3.4-4.3 1.5-4.2 3.4-4.2z" id="path3742" style="fill:#ffd500;fill-opacity:1;fill-rule:evenodd;stroke:#000000;stroke-width:0.5;stroke-miterlimit:4;stroke-opacity:1;stroke-dasharray:none"/><path d="M241 342.2c1.8-.7 3.9.7 4.7 3s0 4.6-1.7 5.2c-1.8.7-4-.6-4.8-3-.8-2.2 0-4.6 1.8-5.2z" id="path3746" style="fill:#ffd500;fill-opacity:1;fill-rule:evenodd;stroke:#000000;stroke-width:0.5;stroke-miterlimit:4;stroke-opacity:1;stroke-dasharray:none"/><path d="M234 361.8c1.8-.7 4 .6 4.8 3 .8 2.2 0 4.6-1.8 5.2s-3.9-.7-4.7-3 0-4.6 1.7-5.2z" id="path3748" style="fill:#ffd500;fill-opacity:1;fill-rule:evenodd;stroke:#000000;stroke-width:0.5;stroke-miterlimit:4;stroke-opacity:1;stroke-dasharray:none"/><path d="M236.6 355c1.8-.7 4 .6 4.8 2.9s0 4.6-1.8 5.3c-1.7.6-3.9-.7-4.7-3s0-4.6 1.7-5.3z" id="path3750" style="fill:#ffd500;fill-opacity:1;fill-rule:evenodd;stroke:#000000;stroke-width:0.5;stroke-miterlimit:4;stroke-opacity:1;stroke-dasharray:none"/><path d="M236.8 348.6c1.7-.6 3.9.7 4.7 3s0 4.6-1.7 5.3c-1.8.6-4-.7-4.8-3s0-4.6 1.8-5.3z" id="path3752" style="fill:#ffd500;fill-opacity:1;fill-rule:evenodd;stroke:#000000;stroke-width:0.5;stroke-miterlimit:4;stroke-opacity:1;stroke-dasharray:none"/><path d="M222 342.6c-1.8-.7-3.9.7-4.7 3s0 4.6 1.7 5.2c1.8.7 4-.6 4.8-3 .8-2.2 0-4.6-1.8-5.2z" id="path3754" style="fill:#ffd500;fill-opacity:1;fill-rule:evenodd;stroke:#000000;stroke-width:0.5;stroke-miterlimit:4;stroke-opacity:1;stroke-dasharray:none"/><path d="M229 362.2c-1.8-.7-4 .6-4.8 3-.8 2.2 0 4.6 1.8 5.2s3.9-.7 4.7-3 0-4.6-1.7-5.2z" id="path3756" style="fill:#ffd500;fill-opacity:1;fill-rule:evenodd;stroke:#000000;stroke-width:0.5;stroke-miterlimit:4;stroke-opacity:1;stroke-dasharray:none"/><path d="M226.4 355.3c-1.8-.6-4 .7-4.8 3s0 4.6 1.8 5.3c1.8.6 3.9-.7 4.7-3s0-4.6-1.7-5.3z" id="path3758" style="fill:#ffd500;fill-opacity:1;fill-rule:evenodd;stroke:#000000;stroke-width:0.5;stroke-miterlimit:4;stroke-opacity:1;stroke-dasharray:none"/><path d="M226.3 349c-1.8-.6-4 .7-4.8 3s0 4.6 1.8 5.3c1.7.6 3.9-.7 4.7-3s0-4.6-1.7-5.3z" id="path3760" style="fill:#ffd500;fill-opacity:1;fill-rule:evenodd;stroke:#000000;stroke-width:0.5;stroke-miterlimit:4;stroke-opacity:1;stroke-dasharray:none"/><path d="M228.6 343c-1.8-.7-4 .7-4.7 3-.9 2.2-.1 4.6 1.7 5.2s3.9-.6 4.7-3c.9-2.2 0-4.6-1.7-5.2z" id="path3762" style="fill:#ffd500;fill-opacity:1;fill-rule:evenodd;stroke:#000000;stroke-width:0.5;stroke-miterlimit:4;stroke-opacity:1;stroke-dasharray:none"/><path d="M234.4 342.6c1.8-.7 4 .7 4.8 3s0 4.6-1.8 5.2-3.9-.6-4.7-3c-.8-2.2 0-4.6 1.7-5.2z" id="path3764" style="fill:#ffd500;fill-opacity:1;fill-rule:evenodd;stroke:#000000;stroke-width:0.5;stroke-miterlimit:4;stroke-opacity:1;stroke-dasharray:none"/><path d="M231.5 356.6c2 0 3.5 2 3.5 4.4s-1.6 4.4-3.5 4.4-3.4-2-3.4-4.4 1.5-4.4 3.4-4.4z" id="path3766" style="fill:#ffd500;fill-opacity:1;fill-rule:evenodd;stroke:#000000;stroke-width:0.5;stroke-miterlimit:4;stroke-opacity:1;stroke-dasharray:none"/><path d="M231.5 348.5c2 0 3.5 2 3.5 4.4s-1.6 4.4-3.5 4.4-3.4-2-3.4-4.4 1.5-4.4 3.4-4.4z" id="path3768" style="fill:#ffd500;fill-opacity:1;fill-rule:evenodd;stroke:#000000;stroke-width:0.5;stroke-miterlimit:4;stroke-opacity:1;stroke-dasharray:none"/><path d="M235.1 331q-3-1.4-4.8-.4c-2 1-2 4.8-3.2 7.2q1.7.3 3-.8c2.8-2 2.4-.3 1.5 2.1-.7 1.8 0 3.8-1 6.3 6.2.2 8.7-2.8 8.2-7-.4-2.9 1.5-2.6 1.4-.3 0 4 2.3 6.5 5.8 7.2 3.2.6 5.6 1.2 7.4 3.1 1.5-6 .8-10.8-3.9-12.8q-2.9-1.2.4-1.4a13 13 0 0 1 5.5 1.2c-1-4.2-4.4-6.5-9.8-6-5.8.7-5.6.2-1-2.4-.4-1.6-12-1.7-9.5 4z" id="path3770" style="fill:#ffd500;fill-opacity:1;fill-rule:evenodd;stroke:#000000;stroke-width:0.5;stroke-miterlimit:4;stroke-opacity:1;stroke-dasharray:none"/><path d="M228.3 331q3-1.4 4.9-.4c2 1 2 4.8 3.2 7.2-1 .2-2.3-.1-3.1-.8-2.8-2-2.4-.3-1.5 2.1.7 1.8 0 3.8 1 6.3-6.2.2-8.7-2.8-8.1-7 .3-2.9-1.5-2.6-1.5-.3 0 4-2.3 6.5-5.8 7.2-3.2.6-5.6 1.2-7.4 3.1-1.5-6-.8-10.8 3.9-12.8q2.9-1.2-.4-1.4a13 13 0 0 0-5.5 1.2c1.1-4.2 4.4-6.5 9.8-6 5.8.7 5.6.2 1-2.4.4-1.6 12.1-1.7 9.5 4z" id="path3772" style="fill:#ffd500;fill-opacity:1;fill-rule:evenodd;stroke:#000000;stroke-width:0.5;stroke-miterlimit:4;stroke-opacity:1;stroke-dasharray:none"/></g><g transform="translate(-52.6 -221.7)scale(.945)" id="g3774" style="fill:#ffd500;fill-opacity:1;fill-rule:evenodd;stroke:#000000;stroke-width:0.52909601;stroke-miterlimit:4;stroke-opacity:1;stroke-dasharray:none"><g id="g3776" style="fill:#ffd500;fill-opacity:1;stroke:#000000;stroke-width:0.52909601;stroke-miterlimit:4;stroke-opacity:1;stroke-dasharray:none"><path d="M298.4 195.6V214h-.9v-18.4zm4.7 2.9-.4 11.7h-.8l.4-11.7zm-2.4-1.5-.2 15.1h-.8l.2-15zm-7 1.5.3 11.7h-.8l-.4-11.7zm2.3-1.5.2 15.1h-.9l-.2-15z" id="path3778" style="fill:#ffd500;fill-opacity:1;stroke:#000000;stroke-width:0.52909601;stroke-miterlimit:4;stroke-opacity:1;stroke-dasharray:none"/><g id="g3780" style="fill:#ffd500;fill-opacity:1;stroke:#000000;stroke-width:0.52909601;stroke-miterlimit:4;stroke-opacity:1;stroke-dasharray:none"><path d="M302.7 209.3c-1.9 1.3-5.1 2.6-4.7 5.1.2 1.5 2.5 1.4 4-1a6 6 0 0 0 .7-4.1z" id="path3782" style="fill:#ffd500;fill-opacity:1;stroke:#000000;stroke-width:0.52909601;stroke-miterlimit:4;stroke-opacity:1;stroke-dasharray:none"/><path d="M302.7 213.3c-1.9 1.3-5.1 2.7-4.7 5.2.2 1.4 2.5 1.4 4-1.1a6 6 0 0 0 .7-4z" id="path3784" style="fill:#ffd500;fill-opacity:1;stroke:#000000;stroke-width:0.52909601;stroke-miterlimit:4;stroke-opacity:1;stroke-dasharray:none"/><path d="M302.7 217.4c-1.9 1.3-5.1 2.6-4.7 5.1.2 1.5 2.5 1.4 4-1a6 6 0 0 0 .7-4.1z" id="path3786" style="fill:#ffd500;fill-opacity:1;stroke:#000000;stroke-width:0.52909601;stroke-miterlimit:4;stroke-opacity:1;stroke-dasharray:none"/><path d="M302.7 221.5c-1.9 1.2-5.1 2.6-4.7 5.1.2 1.4 2.5 1.4 4-1.1a6 6 0 0 0 .7-4z" id="path3788" style="fill:#ffd500;fill-opacity:1;stroke:#000000;stroke-width:0.52909601;stroke-miterlimit:4;stroke-opacity:1;stroke-dasharray:none"/><path d="M302.7 225.5c-1.9 1.3-5.1 2.6-4.7 5.2.2 1.4 2.5 1.4 4-1.1a6 6 0 0 0 .7-4z" id="path3790" style="fill:#ffd500;fill-opacity:1;stroke:#000000;stroke-width:0.52909601;stroke-miterlimit:4;stroke-opacity:1;stroke-dasharray:none"/><path d="M302.7 229.6c-1.9 1.3-5.1 2.6-4.7 5.1.2 1.5 2.5 1.4 4-1a6 6 0 0 0 .7-4.1z" id="path3792" style="fill:#ffd500;fill-opacity:1;stroke:#000000;stroke-width:0.52909601;stroke-miterlimit:4;stroke-opacity:1;stroke-dasharray:none"/><path d="M302.7 233.6c-1.9 1.3-5.1 2.7-4.7 5.2.2 1.4 2.5 1.4 4-1.1a6 6 0 0 0 .7-4z" id="path3794" style="fill:#ffd500;fill-opacity:1;stroke:#000000;stroke-width:0.52909601;stroke-miterlimit:4;stroke-opacity:1;stroke-dasharray:none"/><path d="M302.7 237.7c-1.9 1.3-5.1 2.6-4.7 5.1.2 1.5 2.5 1.4 4-1a6 6 0 0 0 .7-4.1z" id="path3796" style="fill:#ffd500;fill-opacity:1;stroke:#000000;stroke-width:0.52909601;stroke-miterlimit:4;stroke-opacity:1;stroke-dasharray:none"/></g><g id="g3798" style="fill:#ffd500;fill-opacity:1;stroke:#000000;stroke-width:0.52909601;stroke-miterlimit:4;stroke-opacity:1;stroke-dasharray:none"><path d="M293.2 209.3c1.8 1.3 5.1 2.6 4.7 5.1-.2 1.5-2.5 1.4-4-1a6 6 0 0 1-.7-4.1z" id="path3800" style="fill:#ffd500;fill-opacity:1;stroke:#000000;stroke-width:0.52909601;stroke-miterlimit:4;stroke-opacity:1;stroke-dasharray:none"/><path d="M293.2 213.3c1.8 1.3 5.1 2.7 4.7 5.2-.2 1.4-2.5 1.4-4-1.1a6 6 0 0 1-.7-4z" id="path3802" style="fill:#ffd500;fill-opacity:1;stroke:#000000;stroke-width:0.52909601;stroke-miterlimit:4;stroke-opacity:1;stroke-dasharray:none"/><path d="M293.2 217.4c1.8 1.3 5.1 2.6 4.7 5.1-.2 1.5-2.5 1.4-4-1a6 6 0 0 1-.7-4.1z" id="path3804" style="fill:#ffd500;fill-opacity:1;stroke:#000000;stroke-width:0.52909601;stroke-miterlimit:4;stroke-opacity:1;stroke-dasharray:none"/><path d="M293.2 221.5c1.8 1.2 5.1 2.6 4.7 5.1-.2 1.4-2.5 1.4-4-1.1a6 6 0 0 1-.7-4z" id="path3806" style="fill:#ffd500;fill-opacity:1;stroke:#000000;stroke-width:0.52909601;stroke-miterlimit:4;stroke-opacity:1;stroke-dasharray:none"/><path d="M293.2 225.5c1.8 1.3 5.1 2.6 4.7 5.2-.2 1.4-2.5 1.4-4-1.1a6 6 0 0 1-.7-4z" id="path3808" style="fill:#ffd500;fill-opacity:1;stroke:#000000;stroke-width:0.52909601;stroke-miterlimit:4;stroke-opacity:1;stroke-dasharray:none"/><path d="M293.2 229.6c1.8 1.3 5.1 2.6 4.7 5.1-.2 1.5-2.5 1.4-4-1a6 6 0 0 1-.7-4.1z" id="path3810" style="fill:#ffd500;fill-opacity:1;stroke:#000000;stroke-width:0.52909601;stroke-miterlimit:4;stroke-opacity:1;stroke-dasharray:none"/><path d="M293.2 233.6c1.8 1.3 5.1 2.7 4.7 5.2-.2 1.4-2.5 1.4-4-1.1a6 6 0 0 1-.7-4z" id="path3812" style="fill:#ffd500;fill-opacity:1;stroke:#000000;stroke-width:0.52909601;stroke-miterlimit:4;stroke-opacity:1;stroke-dasharray:none"/><path d="M293.2 237.7c1.8 1.3 5.1 2.6 4.7 5.1-.2 1.5-2.5 1.4-4-1a6 6 0 0 1-.7-4.1z" id="path3814" style="fill:#ffd500;fill-opacity:1;stroke:#000000;stroke-width:0.52909601;stroke-miterlimit:4;stroke-opacity:1;stroke-dasharray:none"/></g></g><g id="g3816" style="fill:#ffd500;fill-opacity:1;stroke:#000000;stroke-width:0.52909601;stroke-miterlimit:4;stroke-opacity:1;stroke-dasharray:none"><path d="m280.8 206.2 1.4 15.5h-.9l-1.4-15.4zm4.9 2 .5 10h-.9l-.5-9.9zm-2.5-1 1 12.7h-.9l-1-12.6zm-7 1.8 1.4 9.8h-.8l-1.4-9.8zm2.3-1.4 1.4 12.6-.9.1-1.3-12.6z" id="path3818" style="fill:#ffd500;fill-opacity:1;stroke:#000000;stroke-width:0.52909601;stroke-miterlimit:4;stroke-opacity:1;stroke-dasharray:none"/><path d="M276.7 217.5c2 1.1 5.3 2.1 5.2 4.7-.1 1.4-2.4 1.6-4.2-.7a6 6 0 0 1-1-4z" id="path3820" style="fill:#ffd500;fill-opacity:1;stroke:#000000;stroke-width:0.52909601;stroke-miterlimit:4;stroke-opacity:1;stroke-dasharray:none"/><path d="M277 222.2c2 .8 5.5 1.4 5.6 4 .1 1.4-2 1.9-4.1-.2a6 6 0 0 1-1.6-3.8z" id="path3822" style="fill:#ffd500;fill-opacity:1;stroke:#000000;stroke-width:0.52909601;stroke-miterlimit:4;stroke-opacity:1;stroke-dasharray:none"/><path d="M277.8 226.8c2.2.6 5.7.8 6.1 3.4.3 1.4-2 2-4.2.2a6 6 0 0 1-1.9-3.6z" id="path3824" style="fill:#ffd500;fill-opacity:1;stroke:#000000;stroke-width:0.52909601;stroke-miterlimit:4;stroke-opacity:1;stroke-dasharray:none"/><path d="M278.9 231.4c2.2.3 5.7 0 6.5 2.5.4 1.4-1.7 2.4-4.1.8a6 6 0 0 1-2.4-3.3z" id="path3826" style="fill:#ffd500;fill-opacity:1;stroke:#000000;stroke-width:0.52909601;stroke-miterlimit:4;stroke-opacity:1;stroke-dasharray:none"/><path d="M280.4 235.4c2.2.1 5.7-.4 6.7 2 .5 1.3-1.4 2.4-4 1a6 6 0 0 1-2.7-3z" id="path3828" style="fill:#ffd500;fill-opacity:1;stroke:#000000;stroke-width:0.52909601;stroke-miterlimit:4;stroke-opacity:1;stroke-dasharray:none"/><path d="M282.3 239.3c2.2 0 5.6-.8 6.7 1.5.7 1.3-1.2 2.6-3.9 1.4a6 6 0 0 1-2.8-2.9z" id="path3830" style="fill:#ffd500;fill-opacity:1;stroke:#000000;stroke-width:0.52909601;stroke-miterlimit:4;stroke-opacity:1;stroke-dasharray:none"/><path d="M285.8 216.3c-1.6 1.6-4.6 3.5-3.7 5.9.5 1.4 2.7 1 3.8-1.8a6 6 0 0 0-.1-4.1z" id="path3832" style="fill:#ffd500;fill-opacity:1;stroke:#000000;stroke-width:0.52909601;stroke-miterlimit:4;stroke-opacity:1;stroke-dasharray:none"/><path d="M286.7 220.5c-1.6 1.5-4.7 3.3-4 5.7.5 1.4 2.8 1 4-1.6a6 6 0 0 0 0-4.1z" id="path3834" style="fill:#ffd500;fill-opacity:1;stroke:#000000;stroke-width:0.52909601;stroke-miterlimit:4;stroke-opacity:1;stroke-dasharray:none"/><path d="M288 224.4c-1.7 1.5-4.8 3.2-4 5.7.4 1.4 2.7 1 3.8-1.7a6 6 0 0 0 .1-4z" id="path3836" style="fill:#ffd500;fill-opacity:1;stroke:#000000;stroke-width:0.52909601;stroke-miterlimit:4;stroke-opacity:1;stroke-dasharray:none"/><path d="M289 227.8c-1.5 1.6-4.5 3.6-3.5 6 .5 1.3 2.7.8 3.7-2a6 6 0 0 0-.2-4z" id="path3838" style="fill:#ffd500;fill-opacity:1;stroke:#000000;stroke-width:0.52909601;stroke-miterlimit:4;stroke-opacity:1;stroke-dasharray:none"/><path d="M290.3 231.2c-1.4 1.7-4.2 4-3.1 6.2.6 1.3 2.8.7 3.6-2.2a6 6 0 0 0-.5-4z" id="path3840" style="fill:#ffd500;fill-opacity:1;stroke:#000000;stroke-width:0.52909601;stroke-miterlimit:4;stroke-opacity:1;stroke-dasharray:none"/><path d="M291.7 234.6c-1.2 1.8-3.8 4.2-2.5 6.4.7 1.3 2.9.4 3.4-2.5a6 6 0 0 0-.9-4z" id="path3842" style="fill:#ffd500;fill-opacity:1;stroke:#000000;stroke-width:0.52909601;stroke-miterlimit:4;stroke-opacity:1;stroke-dasharray:none"/></g><g id="g3844" style="fill:#ffd500;fill-opacity:1;stroke:#000000;stroke-width:0.52909601;stroke-miterlimit:4;stroke-opacity:1;stroke-dasharray:none"><path d="m315.1 206.2-1.4 15.5h.8l1.5-15.4zm-4.9 2-.5 10h.8l.6-9.9zm2.5-1-1 12.7h.8l1-12.6zm7 1.8-1.4 9.8h.8l1.4-9.8zm-2.3-1.4-1.4 12.6.8.1 1.4-12.6z" id="path3846" style="fill:#ffd500;fill-opacity:1;stroke:#000000;stroke-width:0.52909601;stroke-miterlimit:4;stroke-opacity:1;stroke-dasharray:none"/><path d="M319.2 217.5c-2 1.1-5.4 2.1-5.2 4.7.1 1.4 2.4 1.6 4.2-.7a6 6 0 0 0 1-4z" id="path3848" style="fill:#ffd500;fill-opacity:1;stroke:#000000;stroke-width:0.52909601;stroke-miterlimit:4;stroke-opacity:1;stroke-dasharray:none"/><path d="M319 222.2c-2.1.8-5.6 1.4-5.8 4 0 1.4 2.2 1.9 4.2-.2a6 6 0 0 0 1.6-3.8z" id="path3850" style="fill:#ffd500;fill-opacity:1;stroke:#000000;stroke-width:0.52909601;stroke-miterlimit:4;stroke-opacity:1;stroke-dasharray:none"/><path d="M318 226.8c-2 .6-5.6.8-6 3.4-.3 1.4 2 2.1 4.1.2a6 6 0 0 0 2-3.6z" id="path3852" style="fill:#ffd500;fill-opacity:1;stroke:#000000;stroke-width:0.52909601;stroke-miterlimit:4;stroke-opacity:1;stroke-dasharray:none"/><path d="M317 231.4c-2.2.3-5.7 0-6.5 2.5-.4 1.4 1.6 2.4 4.1.8a6 6 0 0 0 2.4-3.3z" id="path3854" style="fill:#ffd500;fill-opacity:1;stroke:#000000;stroke-width:0.52909601;stroke-miterlimit:4;stroke-opacity:1;stroke-dasharray:none"/><path d="M315.5 235.4c-2.2.1-5.7-.4-6.7 2-.6 1.3 1.4 2.4 4 1a6 6 0 0 0 2.7-3z" id="path3856" style="fill:#ffd500;fill-opacity:1;stroke:#000000;stroke-width:0.52909601;stroke-miterlimit:4;stroke-opacity:1;stroke-dasharray:none"/><path d="M313.6 239.3c-2.2 0-5.6-.8-6.8 1.5-.6 1.3 1.3 2.6 4 1.4a6 6 0 0 0 2.8-2.9z" id="path3858" style="fill:#ffd500;fill-opacity:1;stroke:#000000;stroke-width:0.52909601;stroke-miterlimit:4;stroke-opacity:1;stroke-dasharray:none"/><path d="M310 216.3c1.6 1.6 4.6 3.5 3.8 5.9-.5 1.4-2.8 1-3.8-1.8a6 6 0 0 1 0-4.1z" id="path3860" style="fill:#ffd500;fill-opacity:1;stroke:#000000;stroke-width:0.52909601;stroke-miterlimit:4;stroke-opacity:1;stroke-dasharray:none"/><path d="M309.2 220.5c1.6 1.5 4.7 3.3 4 5.7-.5 1.4-2.8 1-4-1.6a6 6 0 0 1 0-4.1z" id="path3862" style="fill:#ffd500;fill-opacity:1;stroke:#000000;stroke-width:0.52909601;stroke-miterlimit:4;stroke-opacity:1;stroke-dasharray:none"/><path d="M308 224.4c1.6 1.5 4.7 3.2 3.9 5.7-.4 1.4-2.7 1-3.9-1.7a6 6 0 0 1 0-4z" id="path3864" style="fill:#ffd500;fill-opacity:1;stroke:#000000;stroke-width:0.52909601;stroke-miterlimit:4;stroke-opacity:1;stroke-dasharray:none"/><path d="M307 227.8c1.4 1.6 4.4 3.6 3.4 6-.5 1.3-2.7.8-3.7-2a6 6 0 0 1 .2-4z" id="path3866" style="fill:#ffd500;fill-opacity:1;stroke:#000000;stroke-width:0.52909601;stroke-miterlimit:4;stroke-opacity:1;stroke-dasharray:none"/><path d="M305.6 231.2c1.4 1.7 4.2 4 3.1 6.2-.6 1.4-2.8.7-3.6-2.2a6 6 0 0 1 .5-4z" id="path3868" style="fill:#ffd500;fill-opacity:1;stroke:#000000;stroke-width:0.52909601;stroke-miterlimit:4;stroke-opacity:1;stroke-dasharray:none"/><path d="M304.2 234.6c1.2 1.8 3.8 4.2 2.5 6.4-.8 1.3-2.9.4-3.4-2.5a6 6 0 0 1 .9-4z" id="path3870" style="fill:#ffd500;fill-opacity:1;stroke:#000000;stroke-width:0.52909601;stroke-miterlimit:4;stroke-opacity:1;stroke-dasharray:none"/></g></g></g><!-- app4joy --></svg>