<svg width="441.09208" height="294.06121" viewBox="0 0 441.09208 294.06121" id="svg2" xmlns="http://www.w3.org/2000/svg"><g id="g1"><path id="rect3043" style="fill:#ffffff;fill-opacity:1;stroke:none" d="M0 0h441.1v294.1H0z"/><path id="rect3817" style="fill:#ffd500;fill-opacity:1;stroke:none" d="M0 73.5h441.1v147H0z"/><path id="rect3819" style="fill:#005bbb;fill-opacity:1;stroke:none" d="M0 122.5h441.1v49H0z"/></g><g id="g4032" style="stroke-width:0.7351535;stroke-miterlimit:4;stroke-dasharray:none"><path d="m281.4 68.2 9-1c4.8-1 8.7 4.8 8 8.4-1.9 4.3-3.3 7.3-3.3 12V103l11.4 17.6a106 106 0 0 0 1 38L289.8 169c-11 8.6-4.7 24.2 7.9 25.5 0 7.3-2.9 13.4-9.9 17.8-7.8 4.9-15.2 8.4-21.4 15.7-1.4 8.6-7 12.7-13.5 13.3-2.7 12-21.6 8-32.4 20.3-10.7-12.2-29.6-8.3-32.3-20.3-6.5-.6-12.1-4.7-13.5-13.3-6.2-7.3-13.6-10.8-21.4-15.7-7-4.4-10-10.5-9.9-17.8 12.6-1.3 19-16.9 8-25.5l-17.8-10.2a106 106 0 0 0 1-38.1L146 103V87.7c0-4.8-1.4-7.8-3.2-12.1-.8-3.6 3.1-9.4 7.8-8.5l9.1 1.1z" id="path3027" style="fill:#ffd300;fill-rule:evenodd;stroke:#800000;stroke-width:0.7351535;stroke-miterlimit:4;stroke-dasharray:none"/><path d="m268.1 229.1-1-3.4c4.7-8.5 12.7-9.7 19.4-15.2q8.2-6.7 7.8-15a15.4 15.4 0 0 1-11.7-15.2c0-6.7 4-12.4 9.6-14.6v3.3a11.8 11.8 0 0 0 7.4 22.2 22 22 0 0 1-11 23.5c-8.1 4.4-15.1 5.4-20.5 14.4z" id="path3029" style="fill:#ffd300;fill-rule:evenodd;stroke:#800000;stroke-width:0.7351535;stroke-miterlimit:4;stroke-dasharray:none"/><path d="M290 59.2c3.5 0 4.4 2 4.4 4.2 0 6.6-11 6.9-15.1 6.9h-50.5v-4.4h50.5c6.5 0 7.2-6.7 10.7-6.7z" id="path3031" style="fill:#ffd300;fill-rule:evenodd;stroke:#800000;stroke-width:0.7351535;stroke-miterlimit:4;stroke-dasharray:none"/><path d="M277.1 85.1a4 4 0 1 1 0 8 4 4 0 0 1 0-8z" id="path3033" style="fill:#ffd300;fill-rule:evenodd;stroke:#800000;stroke-width:0.7351535;stroke-miterlimit:4;stroke-dasharray:none"/><path d="M306 75.7c0-2.4-2-4.3-4.3-4.3-6.5 0-8.7 8.1-8.7 15.1v42.2h3.7V86.5c0-8 9.2-4.9 9.2-10.8z" id="path3035" style="fill:#ffd300;fill-rule:evenodd;stroke:#800000;stroke-width:0.7351535;stroke-miterlimit:4;stroke-dasharray:none"/><path d="M297 101.3c19.7 0 16.9 30-3.8 30-9 0-16.3-5.9-17.5-13.5 5.2 7.4 12.4 8.7 17.2 2.9a10.1 10.1 0 0 1 4.1-19.4z" id="path3037" style="fill:#ffd300;fill-rule:evenodd;stroke:#800000;stroke-width:0.7351535;stroke-miterlimit:4;stroke-dasharray:none"/><path d="M296.8 174c19.7 0 17.1-29.5-3.9-28.9-8.9.3-19.2 9-19 23 2.5-8.2 9.6-12.3 14.5-10a10.1 10.1 0 0 0 8.4 15.8z" id="path3039" style="fill:#ffd300;fill-rule:evenodd;stroke:#800000;stroke-width:0.7351535;stroke-miterlimit:4;stroke-dasharray:none"/><path d="M220.5 264a38 38 0 0 0-20.8-11.1c-8.2-1.4-13.5-5-14.5-12l5.2.2c1 3.7 4.1 6.3 10.1 8.1 7.9 2.4 13.8 3.8 20 10 6.3-6.2 12.2-7.6 20.1-10 6.1-1.8 9.2-4.5 10.1-8.3h5.2c-1 7-6.3 10.6-14.5 12a36 36 0 0 0-20.9 11.2z" id="path3041" style="fill:#ffd300;fill-rule:evenodd;stroke:#800000;stroke-width:0.7351535;stroke-miterlimit:4;stroke-dasharray:none"/><path d="m173 229.1 1-3.4c-4.7-8.5-12.7-9.7-19.4-15.2q-8.2-6.7-7.8-15a15.4 15.4 0 0 0 11.7-15.2c0-6.7-4-12.4-9.6-14.6v3.3a11.8 11.8 0 0 1-7.4 22.2 22 22 0 0 0 11 23.5c8.1 4.4 15.1 5.4 20.5 14.4z" id="path3043" style="fill:#ffd300;fill-rule:evenodd;stroke:#800000;stroke-width:0.7351535;stroke-miterlimit:4;stroke-dasharray:none"/><path d="M259 230.4q-1.7 1.4-4 1.5a6 6 0 0 1-5.7-5.8c-.6-13 20.3-12.3 21 2.4.5 9.5-9.6 14.5-19.3 14.5-12 0-21.7-8.7-21.7-19.4q0-4.8 2.4-9c-.7 2-2 4.1-2 6.2 0 9.9 9.3 17.9 20 18.7 3.3.3 6.7-.3 9-2.4 2.8-2.5 2-5.7.2-6.7z" id="path3045" style="fill:#ffd300;fill-rule:evenodd;stroke:#800000;stroke-width:0.7351535;stroke-miterlimit:4;stroke-dasharray:none"/><path d="M216.4 241.8c1.5-1.4 3.2-3.3 4.1-5.5q1.6 3.3 4.2 5.5-2.3 2.5-4.2 5.5a37 37 0 0 0-4.1-5.5z" id="path3047" style="fill:#ffd300;fill-rule:evenodd;stroke:#800000;stroke-width:0.7351535;stroke-miterlimit:4;stroke-dasharray:none"/><path d="M144.3 174c-19.7 0-17.1-29.5 3.9-28.9 8.9.3 19.2 9 19 23-2.5-8.2-9.7-12.3-14.5-10a10.1 10.1 0 0 1-8.4 15.8z" id="path3049" style="fill:#ffd300;fill-rule:evenodd;stroke:#800000;stroke-width:0.7351535;stroke-miterlimit:4;stroke-dasharray:none"/><path d="M182.2 230.4q1.6 1.4 3.9 1.5c3.1 0 5.6-2.6 5.7-5.8.6-13-20.3-12.3-21 2.4-.5 9.5 9.6 14.5 19.3 14.5 12 0 21.7-8.7 21.7-19.4q0-4.8-2.4-9c.7 2 2 4.1 2 6.2 0 9.9-9.3 17.9-20 18.7-3.3.3-6.7-.3-9-2.4-2.8-2.5-2.1-5.7-.2-6.7z" id="path3051" style="fill:#ffd300;fill-rule:evenodd;stroke:#800000;stroke-width:0.7351535;stroke-miterlimit:4;stroke-dasharray:none"/><path d="M135.1 75.7c0-2.4 2-4.3 4.3-4.3 6.5 0 8.7 8.1 8.7 15.1v42.2h-3.8V86.5c0-8-9.2-4.9-9.2-10.8z" id="path3053" style="fill:#ffd300;fill-rule:evenodd;stroke:#800000;stroke-width:0.7351535;stroke-miterlimit:4;stroke-dasharray:none"/><path d="M151 59.2c-3.4 0-4.3 2-4.3 4.2 0 6.6 11 6.9 15.1 6.9h50.5v-4.4h-50.5c-6.5 0-7.2-6.7-10.7-6.7z" id="path3055" style="fill:#ffd300;fill-rule:evenodd;stroke:#800000;stroke-width:0.7351535;stroke-miterlimit:4;stroke-dasharray:none"/><path d="M164 85.1a4 4 0 1 0 0 8 4 4 0 0 0 0-8z" id="path3057" style="fill:#ffd300;fill-rule:evenodd;stroke:#800000;stroke-width:0.7351535;stroke-miterlimit:4;stroke-dasharray:none"/><path d="M144 101.3c-19.6 0-16.8 30 4 30 8.8 0 16.2-5.9 17.4-13.5-5.2 7.4-12.4 8.7-17.2 2.9a10.1 10.1 0 0 0-4.1-19.4z" id="path3059" style="fill:#ffd300;fill-rule:evenodd;stroke:#800000;stroke-width:0.7351535;stroke-miterlimit:4;stroke-dasharray:none"/><path d="M227.1 84.7c-4-12.3 7-14.6 15.9-7a19.6 19.6 0 0 1 6.3-27h-57.5c8.4 5.5 12.6 16 6.3 27 8.8-7.6 20-5.3 15.9 7z" id="path3061" style="fill:#ffd300;fill-rule:evenodd;stroke:#800000;stroke-width:0.7351535;stroke-miterlimit:4;stroke-dasharray:none"/><path d="M251.7 76q.7 1.2.7 2.6c0 2.9-2.3 5.2-5.1 5.2-6.8 0-9.6-10.4-9.6-15.5 0-9.7 9.2-23.6 19.9-23.6 5.8 0 11.7 5 11.7 11.2 0 5.6-2.5 11.1-9.2 11.1a9 9 0 0 1-8-4.7 8 8 0 0 0-9.7 7.7c0 3.3 2.5 8.2 6.9 8 1 0 2.2-.8 2.4-2z" id="path3063" style="fill:#ffd300;fill-rule:evenodd;stroke:#800000;stroke-width:0.7351535;stroke-miterlimit:4;stroke-dasharray:none"/><path d="M235 83.7q0 2.3-1.8 3.5a6 6 0 0 1-4.2 1.2c-8.3-.8-7.9-13.1-1-16 4.2-1.7 9.6-.6 11.4 4.5-3.8-4.2-10.9-1.6-10.6 2.8 2.8-1.3 6.2.7 6.2 4z" id="path3067" style="fill:#ffd300;fill-rule:evenodd;stroke:#800000;stroke-width:0.7351535;stroke-miterlimit:4;stroke-dasharray:none"/><path d="M189.4 76q-.7 1.2-.7 2.6c0 2.9 2.3 5.2 5.1 5.2 6.8 0 9.6-10.4 9.6-15.5 0-9.7-9.2-23.6-19.9-23.6-5.8 0-11.7 5-11.7 11.2 0 5.6 2.5 11.1 9.2 11.1 3.4 0 6.4-1.9 8-4.7a8 8 0 0 1 9.7 7.7c0 3.3-2.5 8.2-6.9 8-1 0-2.2-.8-2.4-2z" id="path3069" style="fill:#ffd300;fill-rule:evenodd;stroke:#800000;stroke-width:0.7351535;stroke-miterlimit:4;stroke-dasharray:none"/><path d="M206 83.7q.1 2.3 1.9 3.5 2 1.4 4.2 1.2c8.3-.8 7.9-13.1 1-16-4.2-1.7-9.6-.6-11.4 4.5 3.8-4.2 10.9-1.6 10.6 2.8a4.4 4.4 0 0 0-6.2 4z" id="path3071" style="fill:#ffd300;fill-rule:evenodd;stroke:#800000;stroke-width:0.7351535;stroke-miterlimit:4;stroke-dasharray:none"/><path d="M235.9 47.6H234a6 6 0 0 0-3.2-4l1.2-10.2a16 16 0 0 1 4-8.4zM222 63h3.5q-1 3.8-3.5 6.5zm-6.6 0h3.5v6.5q-2.6-2.7-3.5-6.5zm9.9-6.8q.5 1.8.5 3.8H222c0-2 1.4-3.6 3.3-3.8zm-9.7 0c1.9.2 3.3 1.8 3.3 3.8h-3.8q0-2 .5-3.8zm18.4-5.4h1.8V60h-7q0-2.4-.5-4.5l1.4-.4a6 6 0 0 0 4.3-4.3zm-28.9 0h1.8a6 6 0 0 0 4.3 4.3l1.4.4q-.6 2.2-.6 4.5h-6.9zm15.3-5a35 35 0 0 0 3.4 7.6 7 7 0 0 0-3.4 2.2q-1.3-1.5-3.3-2.2a35 35 0 0 0 3.3-7.6zM205.2 25a16 16 0 0 1 3.7 8.4l1.3 10.3a6 6 0 0 0-3.2 4h-1.8zm15.3-11a9 9 0 0 0-2.2 6c0 5.2.7 10.3.7 15.4.1 4.7-1.3 9.2-3 13.6l-1.9 3.5-1.8-.4a3 3 0 0 1 .6-6h.7L212 33.8a19 19 0 0 0-10-15.1V63h10.3q1.3 6.4 6.3 10.3 1.1.8 1.8 2 .7-1.2 2-2 4.8-3.9 6.2-10.3h10.2V18.6a19 19 0 0 0-9.9 15l-1.5 12.6.7-.1a3 3 0 0 1 .6 6l-1.8.4L225 49a35 35 0 0 1-3-13.6c0-5.1.7-10.2.7-15.3q0-3.7-2.3-6.1z" id="path4025" style="fill:#ffd500;fill-opacity:1;stroke:#800000;stroke-width:0.7351535;stroke-miterlimit:4;stroke-dasharray:none"/></g><g id="g4028"><path d="M277.2 167.3v-78H163.8v78a56.7 56.7 0 0 0 113.4 0z" id="path3075" style="fill:#d20000;fill-rule:evenodd;stroke:#800000;stroke-width:1.47030699;stroke-miterlimit:4;stroke-dasharray:none"/><path d="m228 143.3 8-29.2h-30.8l7.8 29.2-29.2-7.8v30.8l29.2-7.9-7.8 29.3h30.7l-7.8-29.3 29.2 7.9v-30.8z" id="path3077" style="fill:#ffffff;fill-rule:evenodd;stroke:none"/></g><!-- app4joy --></svg>