<svg xmlns="http://www.w3.org/2000/svg" id="svg2" xml:space="preserve" height="400" width="600" y="0px" x="0px" viewBox="0 0 600 400"><g id="g41"><path id="rect3597" fill="#77B5FE" style="fill:#76c5f0;fill-opacity:1" d="M0 0h600v400H0z"/></g><g id="g4621" transform="translate(216.5 97.4)scale(.78132)"><g id="Layer_5"><path id="path4512" fill="#ffd700" d="M106.9 268c-4.3-14.2-13.7-24.9-23-24.9H27a26 26 0 0 1-25.6-26.5V1.1h211.2v215.5a26 26 0 0 1-25.6 26.5h-57c-9 0-18.5 10.7-23 24.9"/><path id="path4514" fill="#77B5FE" d="M8.3 8v208.6c0 11.1 8 19.5 18.6 19.5h57c12.4 0 19 8 23 16.7 4.1-8.6 10.8-16.7 23-16.7h57c10.6 0 18.6-8.4 18.6-19.5V8.1z" style="fill:#76c5f0;fill-opacity:1"/></g><g id="Layer_2"><path id="path4517" fill="#ffd700" stroke="#404040" d="m120.4 54.4-4.6-8.5h-7.2l-3.5 8.6a29 29 0 0 0-22.6 28.3v10.7h60.7V82.8a29 29 0 0 0-22.8-28.4z"/><path id="path4519" fill="#FFF" stroke="#404040" d="M144.8 100.2a2 2 0 0 1-2 2H83.2a2 2 0 0 1-2-2v-4.4c0-1.1 1-2 2-2h59.6a2 2 0 0 1 2 2z" style="fill:#c3c3c1;fill-opacity:1"/><path id="path4521" stroke-linejoin="round" d="M115.5 87a4.9 4.9 0 0 0-1-8.6c1.1-1.1 2.4-2.3 2.8-2.3-.6 0-4.5-4-4.5-4.4a16 16 0 0 1-4.5 4.4c.4 0 1.7 1.2 2.8 2.3a4.9 4.9 0 0 0-1 8.6 11 11 0 0 0-8.1 10.5v4.6h21.6v-4.6c0-5-3.4-9.3-8-10.5" stroke="#404040" stroke-linecap="round" fill="#FFF" style="fill:#c3c3c1;fill-opacity:1"/><g id="use4523" transform="matrix(1 0 0 -1 84.8 98)"><path id="path1" fill="#404040" d="M1.6 0a1.6 1.6 0 1 0-3.2 0 1.6 1.6 0 0 0 3.2 0"/></g><g id="use4525" transform="matrix(1 0 0 -1 91.6 98)"><path id="path2" fill="#404040" d="M1.6 0a1.6 1.6 0 1 0-3.2 0 1.6 1.6 0 0 0 3.2 0"/></g><g id="use4527" transform="matrix(1 0 0 -1 98.5 98)"><path id="path3" fill="#404040" d="M1.6 0a1.6 1.6 0 1 0-3.2 0 1.6 1.6 0 0 0 3.2 0"/></g><g id="use4529" transform="matrix(1 0 0 -1 127.3 98)"><path id="path4" fill="#404040" d="M1.6 0a1.6 1.6 0 1 0-3.2 0 1.6 1.6 0 0 0 3.2 0"/></g><g id="use4531" transform="matrix(1 0 0 -1 134.2 98)"><path id="path5" fill="#404040" d="M1.6 0a1.6 1.6 0 1 0-3.2 0 1.6 1.6 0 0 0 3.2 0"/></g><g id="use4533" transform="matrix(1 0 0 -1 141.2 98)"><path id="path6" fill="#404040" d="M1.6 0a1.6 1.6 0 1 0-3.2 0 1.6 1.6 0 0 0 3.2 0"/></g><g id="use4535" transform="matrix(1 0 0 -1 112.9 76)"><path id="path7" fill="#404040" d="M1.6 0a1.6 1.6 0 1 0-3.2 0 1.6 1.6 0 0 0 3.2 0"/></g><g id="use4537" transform="matrix(1.4651 0 0 -1.4651 108.5 96.7)"><path id="path8" fill="#404040" d="M1.6 0a1.6 1.6 0 1 0-3.2 0 1.6 1.6 0 0 0 3.2 0"/></g><g id="use4539" transform="matrix(1.4651 0 0 -1.4651 117.1 96.7)"><path id="path9" fill="#404040" d="M1.6 0a1.6 1.6 0 1 0-3.2 0 1.6 1.6 0 0 0 3.2 0"/></g><g id="use4541" transform="matrix(1 0 0 -1 140.4 77)"><path id="path10" d="M.7-4.2c-1.7 2.5-4.1 4-5.4 4 1.3 0 3 1.9 3.5 4.4Q1 2.6 3.2.2 2-2.5.7-4.3" style="fill:#c3c3c1;fill-opacity:1"/><path id="path11" d="M2.8-11.7c.8 1.9-.4 5.1-2.1 7.5Q2-2.4 3.2.1c2-4.2 2.3-7.7-.4-11.8" style="fill:#c3c3c1;fill-opacity:1"/><path id="path12" d="M-3 11.7C1.2 9.5 3.2 6 3.2.1q-2.3 2.5-4.4 4c.7 2.6-.2 5.8-1.8 7.6" style="fill:#c3c3c1;fill-opacity:1"/><path id="path13" d="M2.5 3.7c-.6-.1-.7-1.8-.4-3.8.4-2 1.2-3.4 1.7-3.3 1.2.2 1.8 2 1.5 4-.4 1.9-1.6 3.3-2.8 3.1" style="fill:#c3c3c1;fill-opacity:1"/></g><g id="use4543" transform="rotate(180 42.8 38.5)"><path id="path14" d="M.7-4.2c-1.7 2.5-4.1 4-5.4 4 1.3 0 3 1.9 3.5 4.4Q1 2.6 3.2.2 2-2.5.7-4.3" style="fill:#c3c3c1;fill-opacity:1"/><path id="path15" d="M2.8-11.7c.8 1.9-.4 5.1-2.1 7.5Q2-2.4 3.2.1c2-4.2 2.3-7.7-.4-11.8" style="fill:#c3c3c1;fill-opacity:1"/><path id="path16" d="M-3 11.7C1.2 9.5 3.2 6 3.2.1q-2.3 2.5-4.4 4c.7 2.6-.2 5.8-1.8 7.6" style="fill:#c3c3c1;fill-opacity:1"/><path id="path17" d="M2.5 3.7c-.6-.1-.7-1.8-.4-3.8.4-2 1.2-3.4 1.7-3.3 1.2.2 1.8 2 1.5 4-.4 1.9-1.6 3.3-2.8 3.1" style="fill:#c3c3c1;fill-opacity:1"/></g><g id="g4545"><path id="path4547" fill="#FFF" stroke="#404040" d="M112.6 27.8c0 3-6 26.5-12.6 27.8 0 0 6.5.4 8.3-2.2.4-1.6-.6-1.4-.6-3.6 1.7 0 3 .5 3 .5s.5.9.1 1.4-1.3 1.5-1.3 2.3 3 3 3 4.7c0-1.6 3.2-4 3.2-4.7s-1-1.9-1.3-2.3.1-1.5.1-1.5 1.3-.4 3-.4c0 2.2-1 2-.7 3.6 1.9 2.6 8.4 2.2 8.4 2.2-6.6-1.3-12.6-24.8-12.6-27.8z" style="fill:#c3c3c2;fill-opacity:1"/><g id="g4549"><path id="path4551" fill="#ffd700" stroke="#404040" d="M112.6 27.8c0 1-.8 4.6-2 8.9h4c-1.3-4.3-2-7.8-2-8.9z"/></g><circle id="circle4553" stroke="#404040" cy="26.938" cx="112.69" r="1.5" fill="#fcfcfc" style="fill:#c3c3c1;fill-opacity:1"/></g></g><g id="Layer_3"><path id="path4556" fill="#ffd700" stroke="#404040" d="M162.8 171.8v.2a3.2 3.2 0 1 0 6.4-.5 3.2 3.2 0 1 0 0-6.5v-.4a3.2 3.2 0 1 0-6.4 0v.2h-25.3v-25.2h.2a3.2 3.2 0 1 0-.5-6.5 3.2 3.2 0 1 0-6.5 0h-.4a3.2 3.2 0 1 0 0 6.5h.2v25.2h-25.2v-.2a3.2 3.2 0 1 0-6.5.6 3.2 3.2 0 1 0 0 6.5v.3a3.2 3.2 0 1 0 6.5 0v-.2h25.2v24.3h-.2a3.2 3.2 0 1 0 .6 6.4 3.2 3.2 0 1 0 6.5 0h.3a3.2 3.2 0 1 0 0-6.4h-.2v-24.3z"/></g><g id="Layer_4"><path id="path4559" stroke-linejoin="round" d="M70.2 198.8c10 19.2 33.3 20 42.4 20q-.5-2.5 1.2-3.6c-31.3 0-43.6-16.4-43.6-16.4z" stroke="#404040" fill="#ffd700"/><path id="polygon4561" stroke="#404040" fill="#ffd700" d="m87.9 119.8 22.4-6.7-20.3 7.8 25.6-6.1-26.2 7.9 30.1-4.8-27.9 5.9 27.5-3.7-25.8 4.5 23.8-1.5-25.5 2.2-10.7 2.3z"/><g id="g4563"><g id="use4565" transform="matrix(-.5952 -.4493 .4447 -.6991 89.7 126)"><path id="path18" fill="#ffd700" stroke="#404040" d="M-8.2 5a15 15 0 0 1 6.6-7.8c3.4-2 7-2.8 9.9-2.4a15 15 0 0 1-6.6 7.8c-3.4 2-6.1 1-9.9 2.4z"/></g><g id="use4567" transform="matrix(-.6105 -.4284 .4202 -.7141 83.5 129.6)"><path id="path19" fill="#ffd700" stroke="#404040" d="M-8.2 5a15 15 0 0 1 6.6-7.8c3.4-2 7-2.8 9.9-2.4a15 15 0 0 1-6.6 7.8c-3.4 2-6.1 1-9.9 2.4z"/></g><g id="use4569" transform="matrix(-.6796 -.3073 .2799 -.7798 77.8 133.4)"><path id="path20" fill="#ffd700" stroke="#404040" d="M-8.2 5a15 15 0 0 1 6.6-7.8c3.4-2 7-2.8 9.9-2.4a15 15 0 0 1-6.6 7.8c-3.4 2-6.1 1-9.9 2.4z"/></g><g id="use4571" transform="rotate(189.2 42.7 65.6)scale(.8985)"><path id="path21" fill="#ffd700" stroke="#404040" d="M-8.2 5a15 15 0 0 1 6.6-7.8c3.4-2 7-2.8 9.9-2.4a15 15 0 0 1-6.6 7.8c-3.4 2-6.1 1-9.9 2.4z"/></g><g id="use4573" transform="rotate(178.1 33.4 72.5)scale(.8984)"><path id="path22" fill="#ffd700" stroke="#404040" d="M-8.2 5a15 15 0 0 1 6.6-7.8c3.4-2 7-2.8 9.9-2.4a15 15 0 0 1-6.6 7.8c-3.4 2-6.1 1-9.9 2.4z"/></g><g id="use4575" transform="rotate(168.5 25.5 78.3)scale(.8984)"><path id="path23" fill="#ffd700" stroke="#404040" d="M-8.2 5a15 15 0 0 1 6.6-7.8c3.4-2 7-2.8 9.9-2.4a15 15 0 0 1-6.6 7.8c-3.4 2-6.1 1-9.9 2.4z"/></g><g id="use4577" transform="rotate(157.4 16.2 85)scale(.8984)"><path id="path24" fill="#ffd700" stroke="#404040" d="M-8.2 5a15 15 0 0 1 6.6-7.8c3.4-2 7-2.8 9.9-2.4a15 15 0 0 1-6.6 7.8c-3.4 2-6.1 1-9.9 2.4z"/></g><g id="use4579" transform="rotate(146.8 7 92)scale(.8984)"><path id="path25" fill="#ffd700" stroke="#404040" d="M-8.2 5a15 15 0 0 1 6.6-7.8c3.4-2 7-2.8 9.9-2.4a15 15 0 0 1-6.6 7.8c-3.4 2-6.1 1-9.9 2.4z"/></g><g id="use4581" transform="rotate(137.2 -1.6 98.9)"><path id="path26" fill="#ffd700" stroke="#404040" d="M-8.2 5a15 15 0 0 1 6.6-7.8c3.4-2 7-2.8 9.9-2.4a15 15 0 0 1-6.6 7.8c-3.4 2-6.1 1-9.9 2.4z"/></g><g id="use4583" transform="rotate(132.7 -6 104.6)"><path id="path27" fill="#ffd700" stroke="#404040" d="M-8.2 5a15 15 0 0 1 6.6-7.8c3.4-2 7-2.8 9.9-2.4a15 15 0 0 1-6.6 7.8c-3.4 2-6.1 1-9.9 2.4z"/></g><g id="use4585" transform="rotate(126.5 -12.4 111)"><path id="path28" fill="#ffd700" stroke="#404040" d="M-8.2 5a15 15 0 0 1 6.6-7.8c3.4-2 7-2.8 9.9-2.4a15 15 0 0 1-6.6 7.8c-3.4 2-6.1 1-9.9 2.4z"/></g><g id="use4587" transform="rotate(122.3 -17.1 117.1)"><path id="path29" fill="#ffd700" stroke="#404040" d="M-8.2 5a15 15 0 0 1 6.6-7.8c3.4-2 7-2.8 9.9-2.4a15 15 0 0 1-6.6 7.8c-3.4 2-6.1 1-9.9 2.4z"/></g></g><g id="g4589"><g id="use4591" transform="matrix(-.0528 .6069 .7324 .0271 88.4 120.5)"><path id="path30" fill="#ffd700" stroke="#404040" d="M-8.2 5a15 15 0 0 1 6.6-7.8c3.4-2 7-2.8 9.9-2.4a15 15 0 0 1-6.6 7.8c-3.4 2-6.1 1-9.9 2.4z"/></g><g id="use4593" transform="matrix(-.0228 .7836 .8333 .0215 80.9 123.8)"><path id="path31" fill="#ffd700" stroke="#404040" d="M-8.2 5a15 15 0 0 1 6.6-7.8c3.4-2 7-2.8 9.9-2.4a15 15 0 0 1-6.6 7.8c-3.4 2-6.1 1-9.9 2.4z"/></g><g id="use4595" transform="rotate(258.5 89.2 33)scale(-.8334 .8347)"><path id="path32" fill="#ffd700" stroke="#404040" d="M-8.2 5a15 15 0 0 1 6.6-7.8c3.4-2 7-2.8 9.9-2.4a15 15 0 0 1-6.6 7.8c-3.4 2-6.1 1-9.9 2.4z"/></g><g id="use4597" transform="matrix(.2286 .8433 .8074 -.2388 69 131.4)"><path id="path33" fill="#ffd700" stroke="#404040" d="M-8.2 5a15 15 0 0 1 6.6-7.8c3.4-2 7-2.8 9.9-2.4a15 15 0 0 1-6.6 7.8c-3.4 2-6.1 1-9.9 2.4z"/></g><g id="use4599" transform="matrix(.458 .8316 .9825 -.4043 63.7 138.2)"><path id="path34" fill="#ffd700" stroke="#404040" d="M-8.2 5a15 15 0 0 1 6.6-7.8c3.4-2 7-2.8 9.9-2.4a15 15 0 0 1-6.6 7.8c-3.4 2-6.1 1-9.9 2.4z"/></g><g id="use4601" transform="matrix(.6127 .72 .7903 -.5582 58.8 146)"><path id="path35" fill="#ffd700" stroke="#404040" d="M-8.2 5a15 15 0 0 1 6.6-7.8c3.4-2 7-2.8 9.9-2.4a15 15 0 0 1-6.6 7.8c-3.4 2-6.1 1-9.9 2.4z"/></g><g id="use4603" transform="rotate(220 56.2 66.8)scale(-1 1)"><path id="path36" fill="#ffd700" stroke="#404040" d="M-8.2 5a15 15 0 0 1 6.6-7.8c3.4-2 7-2.8 9.9-2.4a15 15 0 0 1-6.6 7.8c-3.4 2-6.1 1-9.9 2.4z"/></g><g id="use4605" transform="rotate(30.8 -269.6 182)scale(1 -1)"><path id="path37" fill="#ffd700" stroke="#404040" d="M-8.2 5a15 15 0 0 1 6.6-7.8c3.4-2 7-2.8 9.9-2.4a15 15 0 0 1-6.6 7.8c-3.4 2-6.1 1-9.9 2.4z"/></g><g id="use4607" transform="rotate(201.1 44.2 81.3)scale(-1 1)"><path id="path38" fill="#ffd700" stroke="#404040" d="M-8.2 5a15 15 0 0 1 6.6-7.8c3.4-2 7-2.8 9.9-2.4a15 15 0 0 1-6.6 7.8c-3.4 2-6.1 1-9.9 2.4z"/></g><g id="use4609" transform="rotate(10.6 -951.5 401)scale(1 -1)"><path id="path39" fill="#ffd700" stroke="#404040" d="M-8.2 5a15 15 0 0 1 6.6-7.8c3.4-2 7-2.8 9.9-2.4a15 15 0 0 1-6.6 7.8c-3.4 2-6.1 1-9.9 2.4z"/></g><g id="use4611" transform="rotate(187.5 37 93.3)scale(-1 1)"><path id="path40" fill="#ffd700" stroke="#404040" d="M-8.2 5a15 15 0 0 1 6.6-7.8c3.4-2 7-2.8 9.9-2.4a15 15 0 0 1-6.6 7.8c-3.4 2-6.1 1-9.9 2.4z"/></g><g id="use4613" transform="matrix(1 0 0 -1 65.6 199)"><path id="path41" fill="#ffd700" stroke="#404040" d="M-8.2 5a15 15 0 0 1 6.6-7.8c3.4-2 7-2.8 9.9-2.4a15 15 0 0 1-6.6 7.8c-3.4 2-6.1 1-9.9 2.4z"/></g></g></g></g><!-- app4joy --></svg>