<svg id="Ternopol" x="0px" y="0px" width="525" height="350" viewBox="301.55 197.89 525 350" xml:space="preserve" xmlns="http://www.w3.org/2000/svg"><defs id="defs147"><radialGradient id="SVGID_41_" cx="565.04492" cy="314.83109" r="27.6831" gradientUnits="userSpaceOnUse"><stop offset="0.2418" style="stop-color:#FCF332" id="stop124"/><stop offset="0.8681" style="stop-color:#FCBF18" id="stop125"/><stop offset="1" style="stop-color:#946E0E" id="stop126"/></radialGradient><radialGradient id="SVGID_42_" cx="528.54388" cy="393.06451" r="76.301903" gradientUnits="userSpaceOnUse"><stop offset="0" style="stop-color:#FCF332" id="stop127"/><stop offset="0.5714" style="stop-color:#FCBF18" id="stop128"/><stop offset="1" style="stop-color:#946E0E" id="stop129"/></radialGradient><radialGradient id="SVGID_43_" cx="614.26562" cy="402.22461" r="59.143299" gradientUnits="userSpaceOnUse"><stop offset="0" style="stop-color:#FCF332" id="stop130"/><stop offset="0.7692" style="stop-color:#FCC119" id="stop131"/><stop offset="1" style="stop-color:#C99513" id="stop132"/></radialGradient><radialGradient id="SVGID_44_" cx="617.28809" cy="430.94629" r="9.9731998" gradientUnits="userSpaceOnUse"><stop offset="0" style="stop-color:#F5EA2F" id="stop133"/><stop offset="0.3407" style="stop-color:#FCBF18" id="stop134"/><stop offset="1" style="stop-color:#946E0E" id="stop135"/></radialGradient><radialGradient id="SVGID_45_" cx="616.93262" cy="404.80371" r="12.8651" gradientUnits="userSpaceOnUse"><stop offset="0" style="stop-color:#F5EA2F" id="stop136"/><stop offset="0.3407" style="stop-color:#FCBF18" id="stop137"/><stop offset="1" style="stop-color:#946E0E" id="stop138"/></radialGradient><radialGradient id="SVGID_46_" cx="644.49799" cy="406.4043" r="21.358" gradientUnits="userSpaceOnUse"><stop offset="0" style="stop-color:#F5EA2F" id="stop139"/><stop offset="0.3407" style="stop-color:#FCBF18" id="stop140"/><stop offset="1" style="stop-color:#946E0E" id="stop141"/></radialGradient><radialGradient id="SVGID_47_" cx="618.35553" cy="380.4375" r="14.3445" gradientUnits="userSpaceOnUse"><stop offset="0" style="stop-color:#F5EA2F" id="stop142"/><stop offset="0.3407" style="stop-color:#FCBF18" id="stop143"/><stop offset="1" style="stop-color:#946E0E" id="stop144"/></radialGradient><radialGradient id="SVGID_48_" cx="623.69141" cy="400.97949" r="41.2868" gradientUnits="userSpaceOnUse"><stop offset="0" style="stop-color:#F5EA2F" id="stop145"/><stop offset="0.3407" style="stop-color:#FCBF18" id="stop146"/><stop offset="1" style="stop-color:#946E0E" id="stop147"/></radialGradient><linearGradient id="SVGID_1_" gradientUnits="userSpaceOnUse" x1="467.36429" y1="402.22461" x2="620.48932" y2="402.22461"><stop offset="0.2418" style="stop-color:#FCF332" id="stop1"/><stop offset="0.8681" style="stop-color:#FCBF18" id="stop2"/><stop offset="1" style="stop-color:#946E0E" id="stop3"/></linearGradient><linearGradient id="SVGID_2_" gradientUnits="userSpaceOnUse" x1="549.12939" y1="437.14651" x2="574.33862" y2="437.14651"><stop offset="0.2418" style="stop-color:#FCF332" id="stop4"/><stop offset="0.8681" style="stop-color:#FCBF18" id="stop5"/><stop offset="1" style="stop-color:#946E0E" id="stop6"/></linearGradient><linearGradient id="SVGID_37_" gradientUnits="userSpaceOnUse" x1="572.64838" y1="434.5361" x2="546.32788" y2="434.5361"><stop offset="0.2418" style="stop-color:#FCF332" id="stop112"/><stop offset="0.8681" style="stop-color:#FCBF18" id="stop113"/><stop offset="1" style="stop-color:#946E0E" id="stop114"/></linearGradient><linearGradient id="SVGID_39_" gradientUnits="userSpaceOnUse" x1="522.82758" y1="342.5947" x2="611.04242" y2="371.0513"><stop offset="0.2418" style="stop-color:#FCF332" id="stop118"/><stop offset="0.8681" style="stop-color:#FCBF18" id="stop119"/><stop offset="1" style="stop-color:#946E0E" id="stop120"/></linearGradient><linearGradient id="SVGID_40_" gradientUnits="userSpaceOnUse" x1="549.30957" y1="334.37399" x2="573.05103" y2="334.1073"><stop offset="0.2418" style="stop-color:#FCF332" id="stop121"/><stop offset="0.8681" style="stop-color:#FCBF18" id="stop122"/><stop offset="1" style="stop-color:#946E0E" id="stop123"/></linearGradient></defs><g id="g148"><path fill="#0000fe" id="rect1" d="M302 198.5h525v350H302z"/></g><g id="g147"><path fill="url(#SVGID_1_)" stroke="#8a6a00" id="rect3" style="display:inline;fill:url(#SVGID_1_)" d="M469.5 394h137.6v16.5H469.5z"/><path opacity="0.8" fill="#b39f7d" id="polygon3" d="M469.5 395.6v14.9h137.7v-1.7h-136v-13.2h136V394H469.5z"/><path fill="url(#SVGID_2_)" stroke="#8a6a00" id="polygon6" style="fill:url(#SVGID_2_)" d="M550 356.9h23.7v142.6l-11.9 17.9-11.8-17.9z"/><g id="g40"><g id="g9"><linearGradient id="SVGID_3_" gradientUnits="userSpaceOnUse" x1="630.34473" y1="253.9819" x2="627.41028" y2="288.39471"><stop offset="0.0275" style="stop-color:#F7FCF8" id="stop7"/><stop offset="0.5714" style="stop-color:#F0E9A6" id="stop8"/><stop offset="1" style="stop-color:#F0EBE1" id="stop9"/></linearGradient><path fill="url(#SVGID_3_)" stroke="#868a87" stroke-width="0.75" d="M606.4 276h11.4a12 12 0 0 1 23.8 0H653l-2.8-2.9v-23l2.8-2.8h-46.7l2.8 2.8v23z" id="path9" style="fill:url(#SVGID_3_)"/></g><path opacity="0.32" fill="#d3bd94" id="polygon9" d="M609 247.1h-2.3l1.2 1.2 1.6 1.6v23.5l-2.8 2.8h2.3l2.8-2.8v-23.5l-1.5-1.6z"/><path fill="#d3bd94" id="polygon10" d="M650.4 247h2.3l-1.3 1.2-1.5 1.6v23.5l2.8 2.8h-2.3l-2.9-2.8v-23.5l1.6-1.6z"/><path fill="#d3bd94" d="m635.2 266 .6-1.3s7.2 3.1 7.2 11.2h-1.4s-.5-6.4-6.4-10" id="path10"/><linearGradient id="SVGID_4_" gradientUnits="userSpaceOnUse" x1="629.69342" y1="227.0459" x2="629.69342" y2="254.2562"><stop offset="0.2418" style="stop-color:#FCF332" id="stop10"/><stop offset="0.8681" style="stop-color:#FCBF18" id="stop11"/><stop offset="1" style="stop-color:#946E0E" id="stop12"/></linearGradient><path fill="url(#SVGID_4_)" stroke="#8a6a00" id="polygon12" style="fill:url(#SVGID_4_)" d="M621.7 226.1v9.8h-2v-9.8h-16v21.2h52v-21.2h-16v9.8h-2v-9.8z"/><linearGradient id="SVGID_5_" gradientUnits="userSpaceOnUse" x1="629.66211" y1="273.0195" x2="629.66211" y2="297.91791"><stop offset="0.2418" style="stop-color:#FCF332" id="stop13"/><stop offset="0.8681" style="stop-color:#FCBF18" id="stop14"/><stop offset="1" style="stop-color:#946E0E" id="stop15"/></linearGradient><path fill="url(#SVGID_5_)" stroke="#8a6a00" d="M641.6 276a12 12 0 0 0-23.8 0h-14.1v21h23v-20.6a3 3 0 0 1 6-.6V297h23v-21h-14z" id="path15" style="fill:url(#SVGID_5_)"/><linearGradient id="SVGID_6_" gradientUnits="userSpaceOnUse" x1="629.69342" y1="244.77541" x2="629.69342" y2="222.6478"><stop offset="0.2418" style="stop-color:#FCF332" id="stop16"/><stop offset="0.8681" style="stop-color:#FCBF18" id="stop17"/><stop offset="1" style="stop-color:#946E0E" id="stop18"/></linearGradient><path fill="url(#SVGID_6_)" id="polygon18" style="fill:url(#SVGID_6_)" d="M624.1 227.9v10.9h-6.7v-10.9H606v17.7h47.4v-17.7H642v10.9h-6.4v-10.9z"/><path fill="#b39f7d" id="polygon19" d="m655.7 226.1-2.3 1.8v17.7l2.3 1.7z"/><path fill="#b39f7d" id="polygon20" d="m655.6 275.9-1.9 2.5v16.5l1.9 2.2z"/><linearGradient id="SVGID_7_" gradientUnits="userSpaceOnUse" x1="623.89362" y1="232.7153" x2="618.55841" y2="232.44859"><stop offset="0" style="stop-color:#F7E7C3" id="stop20"/><stop offset="0.4888" style="stop-color:#F4E0AD" id="stop21"/><stop offset="1" style="stop-color:#D3BD94" id="stop22"/></linearGradient><path fill="url(#SVGID_7_)" id="polygon22" style="fill:url(#SVGID_7_)" d="M617.4 238.8h6.7l-2.4-2.9h-2v-9.8l-2.3 1.8z"/><linearGradient id="SVGID_8_" gradientUnits="userSpaceOnUse" x1="628.80078" y1="284.48489" x2="625.14203" y2="284.30191"><stop offset="0" style="stop-color:#F7E7C3" id="stop23"/><stop offset="0.4888" style="stop-color:#F4E0AD" id="stop24"/><stop offset="1" style="stop-color:#D3BD94" id="stop25"/></linearGradient><path fill="url(#SVGID_8_)" d="M626.7 277.8s-.5-4.3 3-4.3v-1.8c-5.8 0-5.1 6.6-5.1 6.6V297h2z" id="path25" style="fill:url(#SVGID_8_)"/><linearGradient id="SVGID_9_" gradientUnits="userSpaceOnUse" x1="-328.90091" y1="284.48489" x2="-332.5593" y2="284.30191" gradientTransform="matrix(-1 0 0 1 301.7 0)"><stop offset="0" style="stop-color:#F7E7C3" id="stop26"/><stop offset="0.4888" style="stop-color:#F4E0AD" id="stop27"/><stop offset="1" style="stop-color:#D3BD94" id="stop28"/></linearGradient><path opacity="0.56" fill="url(#SVGID_9_)" d="M632.7 277.8s.5-4.3-3-4.3v-1.8c5.8 0 5.1 6.6 5.1 6.6V297h-2z" id="path28" style="fill:url(#SVGID_9_)"/><linearGradient id="SVGID_10_" gradientUnits="userSpaceOnUse" x1="642.7207" y1="232.4482" x2="635.78583" y2="232.4482"><stop offset="0" style="stop-color:#F7E7C3" id="stop29"/><stop offset="0.4888" style="stop-color:#F4E0AD" id="stop30"/><stop offset="1" style="stop-color:#D3BD94" id="stop31"/></linearGradient><path fill="url(#SVGID_10_)" id="polygon31" style="fill:url(#SVGID_10_)" d="M635.4 238.8h6.7l-2.4-2.9h-2v-9.8l-2.3 1.8z"/><linearGradient id="SVGID_11_" gradientUnits="userSpaceOnUse" x1="615.15527" y1="293.73831" x2="615.15527" y2="275.06439"><stop offset="0.2418" style="stop-color:#FCF332" id="stop32"/><stop offset="0.8681" style="stop-color:#FCBF18" id="stop33"/><stop offset="1" style="stop-color:#946E0E" id="stop34"/></linearGradient><path fill="url(#SVGID_11_)" id="rect34" style="fill:url(#SVGID_11_)" d="M605.7 278.3h18.9v16.6h-18.9z"/><linearGradient id="SVGID_12_" gradientUnits="userSpaceOnUse" x1="644.23242" y1="293.73831" x2="644.23242" y2="275.06439"><stop offset="0.2418" style="stop-color:#FCF332" id="stop35"/><stop offset="0.8681" style="stop-color:#FCBF18" id="stop36"/><stop offset="1" style="stop-color:#946E0E" id="stop37"/></linearGradient><path fill="url(#SVGID_12_)" id="rect37" style="fill:url(#SVGID_12_)" d="M634.8 278.3h18.9v16.6h-18.9z"/><linearGradient id="SVGID_13_" gradientUnits="userSpaceOnUse" x1="629.6377" y1="259.68121" x2="629.6377" y2="274.26389"><stop offset="0.2418" style="stop-color:#FCF332" id="stop38"/><stop offset="0.8681" style="stop-color:#FCBF18" id="stop39"/><stop offset="1" style="stop-color:#946E0E" id="stop40"/></linearGradient><path fill="url(#SVGID_13_)" stroke="#8a6a00" id="polygon40" style="fill:url(#SVGID_13_)" d="M636.9 262.6v-3.2h-14.5v3.2l5.7 11.3h3.1z"/></g><g id="g74"><g id="g43"><linearGradient id="SVGID_14_" gradientUnits="userSpaceOnUse" x1="563.07281" y1="253.9819" x2="560.13831" y2="288.39471"><stop offset="0.0275" style="stop-color:#F7FCF8" id="stop41"/><stop offset="0.5714" style="stop-color:#F0E9A6" id="stop42"/><stop offset="1" style="stop-color:#F0EBE1" id="stop43"/></linearGradient><path fill="url(#SVGID_14_)" stroke="#868a87" stroke-width="0.75" d="M539 276h11.5a12 12 0 0 1 23.8 0h11.5l-2.8-3v-23l2.8-2.8H539l2.8 2.8v23z" id="path43" style="fill:url(#SVGID_14_)"/></g><path opacity="0.32" fill="#d3bd94" id="polygon43" d="M541.8 247.1h-2.4l1.3 1.2 1.5 1.6v23.5l-2.8 2.8h2.4l2.8-2.8v-23.5l-1.6-1.6z"/><path fill="#d3bd94" id="polygon44" d="M583.1 247h2.3l-1.2 1.2-1.6 1.6v23.5l2.8 2.8h-2.3l-2.8-2.8v-23.5l1.5-1.6z"/><path fill="#d3bd94" d="m568 266 .6-1.3s7 3.1 7 11.2h-1.2s-.5-6.4-6.4-10" id="path44"/><linearGradient id="SVGID_15_" gradientUnits="userSpaceOnUse" x1="562.42139" y1="227.0459" x2="562.42139" y2="254.2562"><stop offset="0.2418" style="stop-color:#FCF332" id="stop44"/><stop offset="0.8681" style="stop-color:#FCBF18" id="stop45"/><stop offset="1" style="stop-color:#946E0E" id="stop46"/></linearGradient><path fill="url(#SVGID_15_)" stroke="#8a6a00" id="polygon46" style="fill:url(#SVGID_15_)" d="M554.4 226.1v9.8h-2v-9.8h-16v21.2h52v-21.2h-16v9.8h-2v-9.8z"/><linearGradient id="SVGID_16_" gradientUnits="userSpaceOnUse" x1="562.39008" y1="273.0195" x2="562.39008" y2="297.91791"><stop offset="0.2418" style="stop-color:#FCF332" id="stop47"/><stop offset="0.8681" style="stop-color:#FCBF18" id="stop48"/><stop offset="1" style="stop-color:#946E0E" id="stop49"/></linearGradient><path fill="url(#SVGID_16_)" stroke="#8a6a00" d="M574.4 276a12 12 0 0 0-24 0h-14v21h23v-20.6a3 3 0 0 1 6-.6V297h23v-21z" id="path49" style="fill:url(#SVGID_16_)"/><linearGradient id="SVGID_17_" gradientUnits="userSpaceOnUse" x1="562.42139" y1="244.77541" x2="562.42139" y2="222.6478"><stop offset="0.2418" style="stop-color:#FCF332" id="stop50"/><stop offset="0.8681" style="stop-color:#FCBF18" id="stop51"/><stop offset="1" style="stop-color:#946E0E" id="stop52"/></linearGradient><path fill="url(#SVGID_17_)" id="polygon52" style="fill:url(#SVGID_17_)" d="M556.8 227.9v10.9h-6.6v-10.9h-11.5v17.7h47.5v-17.7h-11.5v10.9h-6.4v-10.9z"/><path fill="#b39f7d" id="polygon53" d="m588.4 226.1-2.2 1.8v17.7l2.2 1.7z"/><path fill="#b39f7d" id="polygon54" d="m588.4 275.9-2 2.5v16.5l2 2.2z"/><linearGradient id="SVGID_18_" gradientUnits="userSpaceOnUse" x1="556.62207" y1="232.7153" x2="551.28693" y2="232.44859"><stop offset="0" style="stop-color:#F7E7C3" id="stop54"/><stop offset="0.4888" style="stop-color:#F4E0AD" id="stop55"/><stop offset="1" style="stop-color:#D3BD94" id="stop56"/></linearGradient><path fill="url(#SVGID_18_)" id="polygon56" style="fill:url(#SVGID_18_)" d="M550.2 238.8h6.6l-2.4-2.9h-2v-9.8l-2.2 1.8z"/><linearGradient id="SVGID_19_" gradientUnits="userSpaceOnUse" x1="561.52832" y1="284.48489" x2="557.87018" y2="284.302"><stop offset="0" style="stop-color:#F7E7C3" id="stop57"/><stop offset="0.4888" style="stop-color:#F4E0AD" id="stop58"/><stop offset="1" style="stop-color:#D3BD94" id="stop59"/></linearGradient><path fill="url(#SVGID_19_)" d="M559.4 277.8s-.5-4.3 3-4.3v-1.8c-5.8 0-5 6.6-5 6.6V297h2z" id="path59" style="fill:url(#SVGID_19_)"/><linearGradient id="SVGID_20_" gradientUnits="userSpaceOnUse" x1="-261.62891" y1="284.48489" x2="-265.28809" y2="284.30191" gradientTransform="matrix(-1 0 0 1 301.7 0)"><stop offset="0" style="stop-color:#F7E7C3" id="stop60"/><stop offset="0.4888" style="stop-color:#F4E0AD" id="stop61"/><stop offset="1" style="stop-color:#D3BD94" id="stop62"/></linearGradient><path opacity="0.56" fill="url(#SVGID_20_)" d="M565.5 277.8s.4-4.3-3-4.3v-1.8c5.7 0 5 6.6 5 6.6V297h-2z" id="path62" style="fill:url(#SVGID_20_)"/><linearGradient id="SVGID_21_" gradientUnits="userSpaceOnUse" x1="575.44922" y1="232.4482" x2="568.51221" y2="232.4482"><stop offset="0" style="stop-color:#F7E7C3" id="stop63"/><stop offset="0.4888" style="stop-color:#F4E0AD" id="stop64"/><stop offset="1" style="stop-color:#D3BD94" id="stop65"/></linearGradient><path fill="url(#SVGID_21_)" id="polygon65" style="fill:url(#SVGID_21_)" d="M568.2 238.8h6.6l-2.4-2.9h-2v-9.8l-2.2 1.8z"/><linearGradient id="SVGID_22_" gradientUnits="userSpaceOnUse" x1="547.8833" y1="293.73831" x2="547.8833" y2="275.06439"><stop offset="0.2418" style="stop-color:#FCF332" id="stop66"/><stop offset="0.8681" style="stop-color:#FCBF18" id="stop67"/><stop offset="1" style="stop-color:#946E0E" id="stop68"/></linearGradient><path fill="url(#SVGID_22_)" id="rect68" style="fill:url(#SVGID_22_)" d="M538.5 278.3h18.8v16.6h-18.8z"/><linearGradient id="SVGID_23_" gradientUnits="userSpaceOnUse" x1="576.96002" y1="293.73831" x2="576.96002" y2="275.06439"><stop offset="0.2418" style="stop-color:#FCF332" id="stop69"/><stop offset="0.8681" style="stop-color:#FCBF18" id="stop70"/><stop offset="1" style="stop-color:#946E0E" id="stop71"/></linearGradient><path fill="url(#SVGID_23_)" id="rect71" style="fill:url(#SVGID_23_)" d="M567.5 278.3h18.9v16.6h-18.9z"/><linearGradient id="SVGID_24_" gradientUnits="userSpaceOnUse" x1="562.36572" y1="259.68121" x2="562.36572" y2="274.26389"><stop offset="0.2418" style="stop-color:#FCF332" id="stop72"/><stop offset="0.8681" style="stop-color:#FCBF18" id="stop73"/><stop offset="1" style="stop-color:#946E0E" id="stop74"/></linearGradient><path fill="url(#SVGID_24_)" stroke="#8a6a00" id="polygon74" style="fill:url(#SVGID_24_)" d="M569.6 262.6v-3.2h-14.5v3.2l5.7 11.3h3.1z"/></g><g id="g108"><g id="g77"><linearGradient id="SVGID_25_" gradientUnits="userSpaceOnUse" x1="495.80029" y1="253.9819" x2="492.86581" y2="288.3952"><stop offset="0.0275" style="stop-color:#F7FCF8" id="stop75"/><stop offset="0.5714" style="stop-color:#F0E9A6" id="stop76"/><stop offset="1" style="stop-color:#F0EBE1" id="stop77"/></linearGradient><path fill="url(#SVGID_25_)" stroke="#868a87" stroke-width="0.75" d="M471.8 276h11.4a12 12 0 0 1 23.9 0h11.4l-2.8-2.9v-23l2.8-2.8h-46.7l2.8 2.8v23z" id="path77" style="fill:url(#SVGID_25_)"/></g><path opacity="0.32" fill="#d3bd94" id="polygon77" d="M474.5 247.1h-2.4l1.3 1.2 1.5 1.6v23.5l-2.8 2.8h2.4l2.8-2.8v-23.5l-1.6-1.6z"/><path fill="#d3bd94" id="polygon78" d="M515.8 247h2.3l-1.2 1.2-1.6 1.6v23.5l2.8 2.8h-2.3l-2.8-2.8v-23.5l1.6-1.6z"/><path fill="#d3bd94" d="m500.7 266 .6-1.3s7.1 3.1 7.1 11.2h-1.3s-.5-6.4-6.4-10" id="path78"/><linearGradient id="SVGID_26_" gradientUnits="userSpaceOnUse" x1="495.1489" y1="227.0459" x2="495.1489" y2="254.2562"><stop offset="0.2418" style="stop-color:#FCF332" id="stop78"/><stop offset="0.8681" style="stop-color:#FCBF18" id="stop79"/><stop offset="1" style="stop-color:#946E0E" id="stop80"/></linearGradient><path fill="url(#SVGID_26_)" stroke="#8a6a00" id="polygon80" style="fill:url(#SVGID_26_)" d="M487.2 226.1v9.8h-2v-9.8h-16.1v21.2h52.1v-21.2h-16v9.8h-2v-9.8z"/><linearGradient id="SVGID_27_" gradientUnits="userSpaceOnUse" x1="495.11871" y1="273.0195" x2="495.11871" y2="297.91791"><stop offset="0.2418" style="stop-color:#FCF332" id="stop81"/><stop offset="0.8681" style="stop-color:#FCBF18" id="stop82"/><stop offset="1" style="stop-color:#946E0E" id="stop83"/></linearGradient><path fill="url(#SVGID_27_)" stroke="#8a6a00" d="M507 276a12 12 0 0 0-23.8 0h-14v21h23v-20.6a3 3 0 0 1 6-.6V297H521v-21z" id="path83" style="fill:url(#SVGID_27_)"/><linearGradient id="SVGID_28_" gradientUnits="userSpaceOnUse" x1="495.1489" y1="244.77541" x2="495.1489" y2="222.6478"><stop offset="0.2418" style="stop-color:#FCF332" id="stop84"/><stop offset="0.8681" style="stop-color:#FCBF18" id="stop85"/><stop offset="1" style="stop-color:#946E0E" id="stop86"/></linearGradient><path fill="url(#SVGID_28_)" id="polygon86" style="fill:url(#SVGID_28_)" d="M489.5 227.9v10.9h-6.6v-10.9h-11.5v17.7h47.5v-17.7h-11.5v10.9H501v-10.9z"/><path fill="#b39f7d" id="polygon87" d="m521.2 226.1-2.3 1.8v17.7l2.3 1.7z"/><path fill="#b39f7d" id="polygon88" d="m521.1 275.9-2 2.5v16.5l2 2.2z"/><linearGradient id="SVGID_29_" gradientUnits="userSpaceOnUse" x1="489.34961" y1="232.7153" x2="484.0145" y2="232.44859"><stop offset="0" style="stop-color:#F7E7C3" id="stop88"/><stop offset="0.4888" style="stop-color:#F4E0AD" id="stop89"/><stop offset="1" style="stop-color:#D3BD94" id="stop90"/></linearGradient><path fill="url(#SVGID_29_)" id="polygon90" style="fill:url(#SVGID_29_)" d="M482.9 238.8h6.6l-2.3-2.9h-2v-9.8l-2.3 1.8z"/><linearGradient id="SVGID_30_" gradientUnits="userSpaceOnUse" x1="494.25589" y1="284.48489" x2="490.59781" y2="284.302"><stop offset="0" style="stop-color:#F7E7C3" id="stop91"/><stop offset="0.4888" style="stop-color:#F4E0AD" id="stop92"/><stop offset="1" style="stop-color:#D3BD94" id="stop93"/></linearGradient><path fill="url(#SVGID_30_)" d="M492.1 277.8s-.5-4.3 3-4.3v-1.8c-5.8 0-5 6.6-5 6.6V297h2z" id="path93" style="fill:url(#SVGID_30_)"/><linearGradient id="SVGID_31_" gradientUnits="userSpaceOnUse" x1="-194.3569" y1="284.48489" x2="-198.0157" y2="284.30191" gradientTransform="matrix(-1 0 0 1 301.7 0)"><stop offset="0" style="stop-color:#F7E7C3" id="stop94"/><stop offset="0.4888" style="stop-color:#F4E0AD" id="stop95"/><stop offset="1" style="stop-color:#D3BD94" id="stop96"/></linearGradient><path opacity="0.56" fill="url(#SVGID_31_)" d="M498.2 277.8s.5-4.3-3-4.3v-1.8c5.8 0 5 6.6 5 6.6V297h-2z" id="path96" style="fill:url(#SVGID_31_)"/><linearGradient id="SVGID_32_" gradientUnits="userSpaceOnUse" x1="508.1763" y1="232.4482" x2="501.2403" y2="232.4482"><stop offset="0" style="stop-color:#F7E7C3" id="stop97"/><stop offset="0.4888" style="stop-color:#F4E0AD" id="stop98"/><stop offset="1" style="stop-color:#D3BD94" id="stop99"/></linearGradient><path fill="url(#SVGID_32_)" id="polygon99" style="fill:url(#SVGID_32_)" d="M500.9 238.8h6.7l-2.4-2.9h-2v-9.8l-2.3 1.8z"/><linearGradient id="SVGID_33_" gradientUnits="userSpaceOnUse" x1="480.6113" y1="293.73831" x2="480.6113" y2="275.06439"><stop offset="0.2418" style="stop-color:#FCF332" id="stop100"/><stop offset="0.8681" style="stop-color:#FCBF18" id="stop101"/><stop offset="1" style="stop-color:#946E0E" id="stop102"/></linearGradient><path fill="url(#SVGID_33_)" id="rect102" style="fill:url(#SVGID_33_)" d="M471.2 278.3H490v16.6h-18.8z"/><linearGradient id="SVGID_34_" gradientUnits="userSpaceOnUse" x1="509.68799" y1="293.73831" x2="509.68799" y2="275.06439"><stop offset="0.2418" style="stop-color:#FCF332" id="stop103"/><stop offset="0.8681" style="stop-color:#FCBF18" id="stop104"/><stop offset="1" style="stop-color:#946E0E" id="stop105"/></linearGradient><path fill="url(#SVGID_34_)" id="rect105" style="fill:url(#SVGID_34_)" d="M500.3 278.3h18.8v16.6h-18.8z"/><linearGradient id="SVGID_35_" gradientUnits="userSpaceOnUse" x1="495.09329" y1="259.68121" x2="495.09329" y2="274.26389"><stop offset="0.2418" style="stop-color:#FCF332" id="stop106"/><stop offset="0.8681" style="stop-color:#FCBF18" id="stop107"/><stop offset="1" style="stop-color:#946E0E" id="stop108"/></linearGradient><path fill="url(#SVGID_35_)" stroke="#8a6a00" id="polygon108" style="fill:url(#SVGID_35_)" d="M502.3 262.6v-3.2h-14.4v3.2l5.6 11.3h3.2z"/></g><path fill="url(#SVGID_37_)" id="polygon114" style="fill:url(#SVGID_37_)" d="M570.8 356.9h-17.9v141.8l8.9 13.5 9-13.5z"/><path fill="url(#SVGID_39_)" stroke="#8a6a00" d="M527.4 363.3s14.7-6.4 33.9-6.4 35.9 6.9 35.9 6.9v-16.4h-69.8Z" id="path120" style="fill:url(#SVGID_39_)"/><path fill="url(#SVGID_40_)" stroke="#8a6a00" id="rect123" style="fill:url(#SVGID_40_)" d="M554.7 320.9h14.9v26.7h-14.9z"/><path fill="url(#SVGID_41_)" stroke="#8a6a00" d="M575.6 320.9a13.8 13.8 0 0 0-27.5 0z" id="path126" style="fill:url(#SVGID_41_)"/><path opacity="0.4" fill="#946f2a" d="M561.8 309.2c6 0 11 5 11.8 11.7h2a13.8 13.8 0 0 0-27.5 0h2c.9-6.6 5.8-11.7 11.7-11.7" id="path127"/><path fill="#b39f7d" id="polygon127" d="m527.4 347.4 1.6 1.6h66.5l1.7-1.6z"/><path fill="url(#SVGID_42_)" stroke="#8a6a00" d="m505.3 423.5 1.7 1.8v5.5h5.8v3.8H508v8.9h20.2v-27.3s-7.8-5.9-7.8-14.8 3.7-10.3 3.7-10.3H486s3.8 1.4 3.8 10.3-7.8 14.9-7.8 14.9v27.2h20v-8.9h-4.9v-3.8h5.8v-5.5l1.8-1.8z" id="path129" style="fill:url(#SVGID_42_)"/><path fill="#b39f7d" d="M487.6 392.6h35q1.1-1.4 1.5-1.4H486s.8.3 1.6 1.4" id="path130"/><path fill="url(#SVGID_43_)" stroke="#8a6a00" d="m639.6 424.1 21.9-21.9-21.9-21.9-11 11-3.6-3.7 11-11-22-21.8-21.8 21.9 11 11-14.6 14.5 14.6 14.6-11 11 21.9 21.8 21.9-21.9-11-11 3.7-3.6zm-.2-27.2 5.4 5.3-5.4 5.4-5.3-5.4zM614.1 433l-5.3-5.4 5.3-5.3 5.3 5.3zm0-25.5-5.3-5.4 5.3-5.3 5.3 5.3zm0-25.6-5.3-5.3 5.3-5.3 5.3 5.3z" id="path132" style="fill:url(#SVGID_43_)"/><path opacity="0.4" fill="url(#SVGID_44_)" d="m622 428.8 1-1-7.1-7.2-1.8-1.8-7.1 7.2-1.8 1.7 7.4 7.5 1.5 1.5zm-8-6.4 5.4 5.3-5.3 5.4-5.4-5.3z" id="path135" style="fill:url(#SVGID_44_)"/><path opacity="0.4" fill="url(#SVGID_45_)" d="m622 403.3 1-1-7.1-7.2-1.8-1.8-7.1 7.1-1.8 1.8 7.4 7.4 1.5 1.6zm-8-6.4 5.4 5.3-5.3 5.4-5.3-5.4z" id="path138" style="fill:url(#SVGID_45_)"/><path opacity="0.4" fill="url(#SVGID_46_)" d="m647.3 403.3 1-1-7-7.2-1.9-1.8-7.1 7.1-1.8 1.8 7.4 7.4 1.6 1.6zm-7.9-6.4 5.4 5.3-5.4 5.4-5.3-5.4z" id="path141" style="fill:url(#SVGID_46_)"/><path opacity="0.4" fill="url(#SVGID_47_)" d="m622 377.8 1-1.1-7.1-7.1-1.8-1.8-7.1 7.1-1.8 1.8 7.4 7.4 1.5 1.5zm-8-6.4 5.4 5.3-5.3 5.3-5.3-5.3z" id="path144" style="fill:url(#SVGID_47_)"/><path opacity="0.4" fill="url(#SVGID_48_)" d="m659.7 404 1.8-1.8-21.9-21.9-1.8 1.8-9.1 9.2-3.7-3.7 9.2-9.1 1.8-1.8-1.8-1.8-18.3-18.3-1.8-1.8-1.8 1.8L594 375l-1.8 1.8 1.8 1.8 9.2 9.1-12.8 12.8-1.8 1.8 1.8 1.8 12.8 12.8-11 11 20.1 20 1.8 1.8 21.9-21.9-1.8-1.8-9.2-9.1 3.7-3.6 9.1 9 1.8 1.9 1.8-1.8zm-20 16.5-10.1-10-1-1-1.6 1.8h-.1l-3.7 3.7-1.7 1.8 1.7 1.8 9.2 9.1L614 446l-18.3-18.3 11-10.9h-.1l-14.5-14.6 12.8-12.8 1.7-1.8-10.9-10.9 18.3-18.3 18.3 18.3-10 10-1 1 7.3 7.2 1.8-1.8 9.1-9.2 18.3 18.3z" id="path147" style="fill:url(#SVGID_48_)"/><path opacity="0.4" fill="#946f2a" id="polygon147" d="m507 422.8-.7-.8h-1.6v.1h-.9l-.8.7-1.7 1.8v4.5h-5.8v7.3h4.8v7.1h1.8v-8.9h-4.9v-3.7h5.8v-5.6l1.5-1.4h.8v-.1h.2l1.5 1.5v5.5h5.8v3.8h-4.9v8.9h1.8v-7.1h4.9V429h-5.8v-4.4z"/></g><!-- app4joy --></svg>