<svg width="1200" height="800" id="svg35" viewBox="0 0 1200 800" xmlns="http://www.w3.org/2000/svg"><g id="g36"><path fill="#2475b1" d="M0 0h1200v800H0z" id="path1"/><path fill="#fdcc00" d="M0 400h1200v400H0z" id="path2"/></g><g id="g35" transform="translate(64.6 31)scale(.5833)"><path d="m244.2 1.3-.1 2.3zH1.3V529q1.1 42.6 58.4 42.3h147.8q24.9.9 36.6 21.1a41 41 0 0 1 36.7-21h147.8q57 .2 58.2-42.5V1.3z" fill="#ffffff" id="path3"/><path d="m142.5 347 .8-2.6q.5-.6 1.1-.6t.6.8q.2 1.8 1.7 1.8.9 0 1.3-.4.6-.7.6-1.4 0-1.2-.8-1.9-1-.6-2-.6-1.5 0-2.3.5-.8.7-1.4 1.7-.6 1.1-1 3t-1 2.5-1 .8h-2.5v-5.4q0-1.5.4-2t1.8-.4h.4v-.5h-9.6v.5h.4q1.4 0 1.8.6t.4 2V358q0 1.5-.5 2t-2.1.4v.5h9.7v-.5q-1.5 0-2.1-.3-.5-.5-.5-1.8V352q.9 0 1.2.3.3.1 1 1.4l3.8 7h6.2v-.4q-.9 0-1.5-.3l-1-1.2-2-3.3-1.6-3-.8-.8q-.5-.4-1.4-.6.7-.7 1-1.5zm-28.5-4q2 0 3.7 1.4a7 7 0 0 1 2.3 3.9h.5v-6.4h-.5q-.1.7-.4 1t-.8.3l-1.6-.5q-2.1-.8-4.1-.8-2.7 0-5 1.3a10 10 0 0 0-3.8 3.7 10 10 0 0 0-1.4 5q0 2.6 1.3 4.7 1.2 2.3 3.5 3.5a13 13 0 0 0 9.3.4q1.6-.8 3.2-2.3v-1.6a12 12 0 0 1-3.1 2.6q-1.4.8-3.2.8-2.2 0-3.4-1.1a6 6 0 0 1-2-3.1 16 16 0 0 1 .2-9.1 6 6 0 0 1 2-2.6q1.6-1 3.3-1m-12 17.7v-.5q-.8 0-1.4-.3l-1-1.2-2-3.3-1.6-3-.8-.8q-.5-.4-1.4-.6.7-.7 1-1.5l.8-2.6q.6-1.8 1-2.5t1-.7.6.9q.2 1.8 1.7 1.8.9 0 1.3-.5.6-.6.6-1.3 0-1.1-.8-2-1-.6-2-.6-1.5 0-2.3.6t-1.4 1.6q-.6 1.1-1 3t-1 2.5-1 .8h-2.5v-5.4q0-1.4.4-2 .5-.4 1.8-.4h.4v-.5h-9.7v.5h.4q1.5 0 1.8.6t.4 2V358q0 1.5-.5 2-.5.3-2 .4v.5h9.7v-.5q-1.5 0-2.1-.3-.5-.5-.5-1.8V352q.9 0 1.2.3.3.1 1 1.4l3.8 7zm-26.5-14.2H75a8 8 0 0 1-1 3.3q-.8 1-2.6 1h-.3v-7.4H73q2 0 2.8.2 1.4.4 2 1.3.8.9 1.2 2.9h.5v-5.5H64v.5h.6q.8-.1 1.4.4.4.1.5.7v13.8l-.1 1.7-.5.6q-.4.3-1.3.3H64v.5h16l.8-6h-.5a7 7 0 0 1-2.2 3.8 7 7 0 0 1-4.2 1.2h-1.1l-1.1-.2q-.4-.2-.5-.6l-.1-2V352a4 4 0 0 1 2 .4q.7.3 1.2 1.3t.7 2.6h.5zm-13-3.7v-.5h-15v.5q1.4 0 2 .3.4 0 .7.7v5.5a42 42 0 0 1-.2 5.8 6 6 0 0 1-1.3 3.2q-.9 1.2-1.8 1.2-.6 0-.7-1-.2-1.9-1.7-2-.9 0-1.3.7a2 2 0 0 0-.5 1.4q0 1 .8 1.7t2 .7q1.5 0 2.7-.8 1.3-.7 2-2.4.9-1.7 1-3.5l.2-5.3v-5.5h4.4V358q0 1.2-.2 1.5t-.7.6q-.4.3-1.5.2v.5h9.3v-.5a4 4 0 0 1-2-.4q-.4-.5-.4-2v-13q-.1-1.1.4-1.6t1.9-.5m-30-1h-.1l-6.7 14.9a9 9 0 0 1-1.6 2.8 3 3 0 0 1-1.6.8v.5h6.2v-.5q-1.5 0-2-.3-.5-.4-.5-1.2-.1-.5.4-1.4l.8-2H34l-.4-1H28l2.8-6.2 2.8 6.3.4 1 1 2.4.4 1v.5q0 .4-.2.6-.4.3-1.5.3h-.4v.5h9v-.5q-.9 0-1.3-.5a7 7 0 0 1-1.6-2.7zm41.5-32.1q-1.5-1-3.1-1l-.3 1q.4 0 .9.3.6.6.9 1.8.6 2.1.6 4.6l-.1 2.7q-1 .4-1.4.4-1 0-1.6-1-1-1.3-1-5.1 0-2.2.6-3.1.4-.6 1-.6l.4-1q-1.5 0-3 1-1.3.8-2.1 2.3-.7 1.4-.7 3.4 0 2.5 1.4 4 1.3 1.6 3.5 1.6l1.2-.1 1.5-.6q-.4 2-1.3 3.4-1 1.5-2.5 2.5t-4 1.5v.4a15 15 0 0 0 6.7-1.7q2.7-1.7 4.2-4.3 1.4-2.7 1.4-5.7 0-2.2-1-4-.7-1.7-2.2-2.7m-13.6.3a4 4 0 0 0-3.1-1.2q-1.9 0-3.5 1.2-1.5 1.1-2.5 3.4l.5.2q1.4-2.1 3.3-2.1 1.2 0 2 .9.9.6.9 1.9 0 .7-.5 1.6t-1 1.2q-.6.4-2.2.8v.5q2.6.6 3.9 2.2a6 6 0 0 1 1.3 3.5 3 3 0 0 1-.8 2q-.6.8-1.7.8t-2.5-1.1l-1.5-1.2-1-.2q-.4 0-1 .5-.4.4-.4 1 0 .9.8 1.4 1.1.9 3.4.8a8 8 0 0 0 5.7-2q2-2 2-5 0-1.6-.8-2.8a7 7 0 0 0-2.4-2 5 5 0 0 0 1.8-1.6q.6-1 .6-2 0-1.6-1.3-2.7m-14.4-.3q-1.5-1-3.1-1l-.3 1q.4 0 .9.3.6.6.9 1.8.6 2.1.6 4.6l-.1 2.7q-1 .4-1.4.4-1 0-1.6-1-1-1.3-1-5.1 0-2.2.6-3.1.4-.6 1-.6l.4-1q-1.5 0-3 1-1.3.8-2.1 2.3-.7 1.4-.7 3.4 0 2.5 1.4 4 1.3 1.6 3.5 1.6l1.2-.1 1.5-.6q-.4 2-1.3 3.4-1 1.5-2.5 2.5t-4 1.5v.4a15 15 0 0 0 6.7-1.7q2.7-1.7 4.2-4.3 1.4-2.7 1.4-5.7 0-2.2-1-4-.7-1.6-2.2-2.7m-14.7-1H31l-6.8 3.2.3.5q1-.4 1.7-.4l.7.2q.4.2.5.6V324l-.1 2.2q-.1.5-.6.7l-1.7.3h-.5v.5h9.7v-.5h-.4q-1 0-1.5-.3t-.7-.7l-.1-2.2zm116.7-29.5q0-1.7.5-2.1.3-.6 1.7-.5h.6v-.5h-10v.5h.7q1.3 0 1.6.5t.4 2l-6.5 10.3v-10.2q0-1.5.4-2.1.5-.5 1.8-.5h.5v-.5h-9.9v.5h.6q1.4-.1 1.8.5.3.5.3 2v12.3q0 1.6-.4 2.2-.5.5-1.7.5h-.5v.5h9.9v-.5h-.6q-1.5 0-1.8-.6t-.3-2l6.4-10.1v10q0 1.6-.4 2.2-.5.5-1.7.5h-.5v.5h9.9v-.5h-.6q-1.5 0-1.7-.5-.5-.4-.5-2.2zm-37.3-1.7v15.7q-.2.4-.6.6-.4.3-1.3.3h-.6v.5h9.7v-.5h-.6l-1.2-.2q-.6-.3-.7-.7l-.1-1.7v-5.8h6.5v5.8l-.1 1.7q-.2.4-.6.6-.4.3-1.3.3h-.6v.5h9.7v-.5h-.6l-1.2-.2q-.6-.3-.7-.7l-.1-1.7v-14q.3-.5.7-.6.4-.3 1.3-.3h.6v-.5h-9.7v.5h.6q.7 0 1.3.3.5 0 .6.6v7h-6.4v-7q.3-.5.7-.6.4-.3 1.3-.3h.6v-.5h-9.7v.5h.6q.9 0 1.3.3.5 0 .6.6m-11.1-7q-.8 0-1.3.7-.5.5-.5 1.3t.5 1.2q.6.6 1.3.6t1.3-.6q.5-.4.5-1.2t-.5-1.3q-.5-.6-1.3-.6m-2.3 5.5v.5h.6q.8 0 1.2.3.5 0 .6.6l.2 1.8v12.2q0 1.3-.2 1.7l-.5.6q-.4.3-1.3.3h-.6v.5h9.7v-.5h-.6l-1.3-.2q-.4-.3-.6-.7l-.1-1.7v-14q.3-.4.7-.6.4-.3 1.3-.3h.6v-.5zm7.4-5.5q-.8 0-1.3.6t-.5 1.3q0 .8.5 1.2.6.6 1.3.6t1.3-.6q.6-.4.5-1.2t-.5-1.3q-.5-.6-1.3-.6m-17.8 5h-.3l-6.6 14.9-1.6 2.8q-.7.6-1.7.8v.5H83v-.5q-1.5 0-1.8-.3-.6-.4-.6-1.2 0-.5.3-1.4l.8-2h6.6l-.5-1h-5.6L85 282l2.8 6.3.5 1 1 2.4.4 1v.5q0 .4-.3.6-.3.3-1.5.3h-.3v.5h8.9v-.5q-.8 0-1.3-.5-.7-.4-1.6-2.7zm-20.8 1.8q.3.3.2 1.8v12q0 1.5-.2 2l-.6.6-1.8.2v.5h9.5v-.5q-1.4 0-1.8-.2l-.6-.6q-.3-.5-.2-2v-14.1h.5q1.7 0 2.7.9.9 1 .9 3 0 2.2-1 3-.7 1.1-2.4 1h-.7v1q3 0 4.5-.2 2-.6 3-1.7 1.2-1.5 1.2-3.1 0-2.2-1.8-3.6-1.7-1.4-5.7-1.4H64v.5q1.3 0 1.8.2t.6.7M62 280q.6-.6.6-1.3 0-1.1-.8-2-.9-.6-2.1-.6-1.5 0-2.2.6-1 .6-1.4 1.6-.6 1.1-1 3t-1 2.5q-.5.7-1.1.8h-2.4v-5.4q-.1-1.5.4-2t1.8-.4h.4v-.5h-9.7v.5h.4q1.4 0 1.8.6t.4 2V292q0 1.5-.5 2t-2.1.4v.5h9.7v-.5q-1.5 0-2.1-.3-.5-.5-.5-1.8V286q.9 0 1.2.3.3.1 1 1.4l3.8 7h6.2v-.4q-.9 0-1.5-.3l-1-1.2-2-3.3-1.6-3-.8-.8q-.5-.4-1.4-.6.7-.7 1-1.5l.9-2.6.9-2.5q.5-.7 1-.7.7 0 .7.9.1 1.8 1.7 1.8.9 0 1.3-.5m-31.8-1.6-.3-.8q0-.9 1.6-.8h.4v-.5h-9.3v.5a3 3 0 0 1 1.8.5q.8.5 1.5 2l6.6 12-.2.6q-.9 1.8-2 1.8-.6 0-.8-1.2-.2-1-.5-1.3t-1.1-.4-1.3.5q-.6.6-.5 1.3 0 1 .7 1.8.8.9 2.3.8t2.3-.6q1-.6 2.4-3.3l5.7-11.3q1-1.9 1.6-2.5t1.6-.7v-.5h-6.2v.5q1.7 0 2 .3.6.3.6.8t-.8 2l-3.5 7zm196-40.6q-.7 0-1.2.6t-.5 1.3.5 1.2q.5.6 1.3.6.7 0 1.3-.6.5-.4.5-1.2t-.5-1.3-1.3-.6m.3 6.3q.6-.3 1.3-.3h.6v-.5h-9.7v.5h.7q.8 0 1.2.3.5 0 .6.6v15.7q-.2.4-.6.6-.4.3-1.2.3h-.7v.5h9.7v-.5h-.6l-1.2-.2q-.5-.3-.6-.7l-.2-1.7v-12.2q0-1.4.2-1.8.1-.5.5-.6m-5.4-6.3q-.8 0-1.3.6t-.6 1.3.6 1.2q.5.6 1.3.6t1.2-.6q.6-.4.6-1.2t-.5-1.3-1.3-.6m-6 20.9a10 10 0 0 0 2-6.2q0-4.1-2.7-7a10 10 0 0 0-7.2-2.5l.2.9a4 4 0 0 1 2.4.8q1 .7 1.7 2.5t.7 5.5q0 3.1-.6 5-.7 2-2 2.8-.8.7-2.3.7-2.1 0-3.2-1.6-1.7-2.2-1.7-7 0-4 1-6.1 1.5-2.6 4-2.6l-.2-1q-4.2 0-7 2.7a9 9 0 0 0-2.7 6.9q0 3.7 2 6.4a10 10 0 0 0 7.9 3.3q5 0 7.7-3.5m-19.5-15q-.7-.6-2.1-.6t-2.2.6-1.4 1.6l-1 3q-.4 1.8-1 2.5-.4.7-1 .8h-2.5v-5.4q0-1.4.5-2 .5-.4 1.8-.4h.3v-.5h-9.7v.5h.4q1.5 0 1.9.6t.3 2V259q0 1.5-.4 2a5 5 0 0 1-2.2.4v.5h9.7v-.5q-1.5 0-2-.3-.6-.5-.6-1.8V253q.9 0 1.3.3.3.1.9 1.4l3.8 7h6.2v-.4q-.8 0-1.4-.3-.6-.4-1.1-1.2l-2-3.3-1.5-3q-.3-.5-1-.8-.3-.4-1.2-.6a4 4 0 0 0 1-1.5l.9-2.6q.4-1.8.9-2.5t1-.7.7.9q0 1.8 1.7 1.8.7 0 1.3-.5.5-.6.5-1.3 0-1.2-.8-2m-29.7 2.6q0-1.4.2-1.7l.6-.6 1.8-.2v-.5H159v.5q1.8 0 2.2.5.3.3.4 2.4V259q0 1.4-.5 1.9t-2.2.4v.5h9.9a13 13 0 0 0 4-.5q1.4-.6 2.3-1.7t.9-2.8q0-2.3-1.8-3.7-1.7-1.5-5.7-1.4H166v1.2q1.8 0 2.6.3 1 .3 1.7 1.3t.7 2.6-.8 2.7-2.4 1q-1 0-1.4-.4-.3-.6-.4-2zm-10.8-2.1-1.6-.5q-2.1-.8-4.1-.8-2.7 0-5 1.3a10 10 0 0 0-3.8 3.7 10 10 0 0 0-1.4 5q0 2.6 1.3 4.7 1.2 2.3 3.5 3.5a13 13 0 0 0 9.3.4q1.6-.8 3.2-2.3v-1.6a12 12 0 0 1-3.1 2.6q-1.4.8-3.2.8-2.1 0-3.4-1.1a6 6 0 0 1-2-3.1 16 16 0 0 1 .2-9.1 6 6 0 0 1 2-2.6q1.6-1 3.3-1 2 0 3.7 1.3a7 7 0 0 1 2.3 3.9h.5v-6.4h-.5q-.1.7-.4 1t-.8.3m-21 .4q1 .5 1.5 1.2.6.8 1 2.5h.5v-5h-16.7v5h.6q.3-2 1.5-3.2.8-.7 2.7-.7h1.3v14.3l-.1 1.7q-.2.5-.6.6-.4.3-1.3.3h-.6v.5h9.7v-.5h-.6l-1.3-.2q-.5-.3-.6-.7l-.1-1.7v-14.3h1.3q1.3 0 1.9.2m-22.2-1.7h-.2l-6.7 14.8a9 9 0 0 1-1.6 2.8 3 3 0 0 1-1.6.8v.5h6.2v-.5q-1.5 0-2-.3-.5-.4-.5-1.2-.1-.5.4-1.4l.8-2h6.5l-.4-1h-5.6l2.8-6.2 2.8 6.3.4 1 1 2.4.4 1v.5q0 .4-.2.6-.4.3-1.5.3h-.4v.5h9v-.5q-.9 0-1.3-.5a7 7 0 0 1-1.6-2.7zm-13.5 3.6q-.1-1.6.4-2.2.5-.5 1.7-.5h.5v-.5H80.6v.5h.6q1.3-.1 1.7.5.3.4.3 2.2v12q0 1.9-.4 2.4-.3.4-1.6.4h-.6v.5h9.7v-.5h-.5q-1.2 0-1.7-.4t-.4-2.3v-14.1h6.5v14q0 1.8-.3 2.2-.3.6-1.7.6h-.6v.5h9.7v-.5h-.4q-1.4 0-1.7-.4-.6-.5-.5-2.3zm-21.2-1.8q-1.8-1.4-5.7-1.4h-8.1v.5l1.7.2.7.7.2 1.8v12l-.2 2-.7.6-1.7.2v.5H73v-.5l-1.7-.2-.7-.6-.2-2v-14.1h.6q1.7 0 2.7.9.9 1 .9 3 0 2.2-1 3-.8 1.1-2.5 1h-.7v1q3 0 4.5-.2 2-.6 3-1.7 1.3-1.5 1.2-3.1 0-2.2-1.7-3.6m-14.8 17v-.4q-.9 0-1.3-.5a7 7 0 0 1-1.6-2.7L53 242.9h-.2l-6.7 14.8a9 9 0 0 1-1.6 2.8 3 3 0 0 1-1.6.8v.5h6.2v-.5q-1.5 0-2-.3-.5-.4-.5-1.2-.1-.5.4-1.4l.8-2h6.5l-.4-1h-5.6l2.8-6.2 2.8 6.3.4 1 1 2.4.4 1v.5q0 .4-.2.6-.4.3-1.5.3h-.4v.5zm-20.6-16q0-1.2-.8-2-.8-.6-2.1-.6t-2.2.6-1.4 1.6l-1 3q-.4 1.9-1 2.5-.4.7-1 .8H30v-5.4q0-1.5.5-2t1.8-.4h.3v-.5H23v.5h.4q1.5 0 1.9.6t.3 2V259q0 1.5-.4 2a5 5 0 0 1-2.2.4v.5h9.7v-.5q-1.5 0-2-.3-.6-.5-.6-1.8V253q.9 0 1.3.3.3.1.9 1.4l3.8 7h6.2v-.4q-.8 0-1.4-.3-.6-.4-1.1-1.2l-2-3.3-1.5-3q-.3-.5-1-.8-.3-.4-1.2-.6a4 4 0 0 0 1-1.5l.9-2.6q.5-1.8.9-2.5t1-.7.7.9q0 1.8 1.7 1.8.7 0 1.3-.5.5-.6.5-1.3m34.4-35.4v.5q1.8-.1 2.2.5.6.4.5 2V226q0 1.4-.4 1.9-.5.3-2.3.4v.5h10q2.5 0 4-.5 1.4-.6 2.3-1.7t.9-2.8q0-2.3-1.8-3.7t-5.8-1.4h-2.4v1.2q1.6 0 2.6.3.8.3 1.6 1.3t.8 2.6a4 4 0 0 1-1 2.7q-.6 1.1-2.3 1-1 0-1.3-.4-.4-.6-.4-2v-14H87q1.6 0 2.6.4.8.4 1.4 1.2.8 1 .9 2.3h.5v-5zm-16.8 0v.5l1.7.2.7.7.2 1.8v12l-.2 2-.7.6-1.7.2v.5H69v-.5l-1.7-.2-.7-.6-.2-2v-14.1h.6q1.7 0 2.7.9.9 1 .9 3 0 2.2-1 3-.8 1.1-2.5 1h-.7v1q3 0 4.5-.2 2-.6 3-1.7 1.3-1.5 1.2-3.1 0-2.2-1.7-3.6-1.8-1.4-5.7-1.4zm-3.3 0H40.8v.5h.7q.9-.1 1.4.4.3.1.5.7v13.8l-.1 1.7q-.1.5-.6.6-.5.3-1.2.3h-.7v.5h16l.9-6h-.5a7 7 0 0 1-2.3 3.8q-1.5 1.2-4.1 1.2h-1.1l-1.2-.2q-.3-.2-.5-.6l-.1-2v-5q1.4-.1 2 .4.7.3 1.3 1.3l.5 2.6h.6v-9.7h-.5a6 6 0 0 1-1 3.3q-.8 1-2.5 1h-.4v-7.4h1.9q2.1 0 2.9.2 1.2.4 2 1.3.6.8 1 2.9h.6zm-17 0H23v.5h.6q1.3 0 1.7.5t.3 1.8v12.8q0 1.5-.4 2t-1.6.4H23v.5h9.7v-.5h-.5q-1.2 0-1.6-.4-.6-.5-.5-2v-14.4h3.8q2.1 0 2.9.2t1.2 1q.6.8.9 2.6h.5z" id="path4"/><path d="M1.3 529q1.1 42.7 58.4 42.4h147.8q24.9.9 36.6 21.1V1.3H1.3z" fill="#2475b1" id="path5"/><g fill="#fdcc00" id="g6"><path d="M244 327.3v-81.6H1.4v81.6zm0-163V82.7H1.3v81.6zM1.3 408.6v81.2H244v-81.2z" id="path6"/></g><path d="M440.8 33.5q-6 0-11.9-.3-3.6-.3-7 .4.3-6.9-3.7-10.2-7.8 1.7-11.5 6.8-2.3-1.2-4.5-2l-3.8-1.2a38 38 0 0 0-15.7-.1l-1.6 8.2q-3.1 6 1.3 10 1 1 2.6.5 4.8-1.6 4.5-4.6 2.8 1.5 6.3 1.8 1.2.6-1.7 4.8-2.2 3-5.2 3.5-8.1 1.5-15-5a14 14 0 0 0 3-10l4.2-1 1.6-8.3q-7.5 1.6-15.1 1-1.2 2.5-1.2 4.3l-6.5-.6q-5.5-.1-10.6.5-6 .7-13.3.4 1 5.4 2.6 10.2-1.5 7.2.4 13 1.6 4.9 7.3 8 0 9 6.5 13.4 1.5.7 3.2 1-1.3-6 1.1-10.9h2.3q1.4 3 3.9 5.2a21 21 0 0 0 6.4 4 35 35 0 0 1 11.8 8l1 1.2q-3.7-.7-7.4-1.8-3.5-1-6.8-1.1-4.5-.4-9.2.3l-14.6 2.3q-8.3 1.5-15.8-.7-8-2.5-10.6-8.8 1 8.2 7.1 13 6.5 5.2 14.3 5.8 9 .8 14.7-2.2l6-1.4q6.2-.9 12 .6t11.3 6.2q-1.5 2-4.6 1.5l-13-2a13 13 0 0 1-5.7-6.3l-6 1.4q-1.1 2.9-1.5 6.8.5 7.2 8 6a32 32 0 0 1 13.5 4.2q4 2.1 8.4 3-4.1 5.2-6.9 12.4l-6 15.2-4.6 10a146 146 0 0 0-11 18.6l-5 10q-2.7 4.8-5 10a70 70 0 0 1-11.9 17.5 54 54 0 0 1-18 11.4q-2 .8-4.5.8h-24.8l-11.7-.5q-6-.2-9 3.3l-.2.3q-6.6-.1-8.9 4.6-.8 1.4-1 2.7 1.8-2 6.3-.6l-1.3 1.2a20 20 0 0 0-5.7 8.2q-4 3.1-3.5 10v2q3-3.8 7.3-6.2l.9-.6q-.4 3.4 3.1 4 1.5 1.4 1.5 3.8a15 15 0 0 0-4.4 7 9 9 0 0 0-.6 3.5v2.5q3.8-2 7.3-5.7 2.9.2 5 1.3l.3.2.7.4-1 1.2a11 11 0 0 0-1.9 8.4q2.6-4 6.5-6.6h.2q5.4.8 10.7 0 2.9-.7 4-4 .3-2.5 3.8-1.6a22 22 0 0 1 9.2-4.8v1q4.1.7 8.5.6 5.5 0 10 2a30 30 0 0 0 10 2.8q3 .4 6 .5-.7 6.5-4.4 9.8-3.4 3-7.5 6t-7.7 7.3a16 16 0 0 0-3.9 10 58 58 0 0 0 0 11.2q2.9-4.2 7-6.8l-.3-.3h.6q-.5 2.9-.5 5a57 57 0 0 0 0 13.4 38 38 0 0 1 6.3-6.3l1.1-.3q.2 5.1 1.2 8.6 3-5.2 6.6-8.5l.8-.2 1-.5q.2 0 .3-.2a5 5 0 0 0 2.2-2.7 6 6 0 0 0 2.3 3.3q-1.4 5.3 2.5 8 .8-3.8 1.2-6.8l2.3-.2q5.6-.5 4.7-8-.8-6.7 3.2-9.5l3.7-2.6-5.5-8.3v-.2.2l5.5 8.3q1.5 2.4 2.5 5.1 2 5 1.6 11.3a424 424 0 0 1-1.5 23.3q-.9 6-.7 12v11.7l.1 6.1h.4l-.4.7q-2 4.6-4.7 9.1l-5.7 9.2a82 82 0 0 0-5 9.8 81 81 0 0 0-3.9 10.5l-3.1 10.4q-1.9 5.7-3.5 11.3t-2.4 11.5l-1.5 11.5q-1 5.6-1.1 11.7-.5 6-.5 12t-.5 11.8a156 156 0 0 0-.5 12v5.6a59 59 0 0 1-9.9 1.6H318a17 17 0 0 0-4.7-5.7l-5-4.2-2.5-2a13 13 0 0 0-9.9-3h-2.5q3 1.5 5 4.6-2.4 3-1.4 8.2v.1q-.3-.3-.7-.3-5-1.5-10.3.7a21 21 0 0 0-6 3.8q4.8-.2 9.8.4l.8.1h-.8q-1 7.5 2.1 11l-.5.3-1.6 1.3a29 29 0 0 0-5.5 6.1l-3.4 6.1q2.3-3.1 8.8-2.6-.6 5.7 5 5.3l-1 1q-3.9 4.5-5.2 9 1.8-3.3 6.4-3.6 1.9 4.8 8.3 4.4 3.8-.1 6.5-2.3l.8-.7 9 1.4 1.6.4q2.9.5 5.2 1.4 2.3.6 4.7.7a94 94 0 0 0 20-1.8q4.2-.9 7.6-4.2t6.6-9.5a44 44 0 0 0 5-22.6v-28.5l8.4-4.6q4.7-2.6 9-5.4l8.4-5.3a60 60 0 0 0 13.7-13.2q.7 5.1 2.2 8.4l4 10q2 4.7 5 9.5 2.2 3.8 5.5 8.5 3 4.6 6.7 8.2 3 3 3.5 7.5t0 8.6q-3-1-5.6-2.2-2.2-1.2-.9-2a19 19 0 0 0-4.6-5.8l-7.5-6.3a13 13 0 0 0-9.9-3l-2.5.1q3 1.5 4.8 4.6-2.3 3-1.2 8.2v.1l-.7-.3q-5-1.5-10.3.7a21 21 0 0 0-6.2 4q5-.4 10 .2l.8.1h-.8q-1 7.6 2.1 11l-.5.4-1.6 1.2q-3.3 2.7-5.5 6.1l-3.5 6.1q2.4-3.1 8.8-2.6-.6 5.7 5 5.3l-.9 1q-4 4.5-5.2 9 1.7-3.3 6.3-3.6 2 4.8 8.3 4.4 3.8-.1 6.6-2.3l.7-.7q-.1.3-.5.5a50 50 0 0 1 12 .1q5 1.2 10.6 1l10.8-.4a26 26 0 0 0 9.9-2.3q4-2.1 5.6-6.9a36 36 0 0 0 1.8-11.4q0-6-1-11.4-.9-5.7-1.1-11.5a57 57 0 0 0-1.9-11.7q-1.5-5.2-3.4-10.5a54 54 0 0 1-4.8-22.2l.2-11.2q.2-5.8.8-11.3l.5-1.9q1.6-5.6 1.5-11.6l-.8-12.5 1.5.1q3.2 0 5.5-3 3.5-4 1.7-10l-1.1-3.6a88 88 0 0 1-3.4-10.3q-1-4.5-1-9.4 3.7-19.2 4.8-38.6 2.6-52.2-13-106.3v-.8q1-11.1 1.6-21.6.5-14.8.7-29.8 0-14.9-6.6-32.9-6.8-18-8.1-27.3t-5.7-22Q435.3 75 435.3 59l1.5-1.5q3-3.1 3.8-7.5 2-8.3.2-16.5" fill="#d90000" id="path7"/><g fill="none" stroke="#ffffff" stroke-linecap="round" stroke-linejoin="round" id="g8"><path d="M437.4 369.9q2 4.1 2 10-.1 6.3-1.8 11.6-1.6 5-3 10.3.3-2-.7-2.6a37 37 0 0 0-8.1-5.8q.5 1.3.6 3 .6 6-.6 11.6-1 6-4.3 8.7a31 31 0 0 0-6.4 7.3q-2.5 4-4.7 8.7 0-1-.4-2-2.3-3.4-4.5-9l.4 2.6q.3 3-.4 5.7-1.9 6-5.4 8a18 18 0 0 0-7.3 7.4 26 26 0 0 0-.6-5.6q-1-5.1-4-9.6 0 2.2.3 4.5 1 6.9-3.7 10l-8.4 5.6a11 11 0 0 0-5 8.2M434.7 49q-4.6 5.2-10 10.2m-44.1 181.9q-4.4 3-8.3 6.7a13 13 0 0 1-9.5 3 130 130 0 0 0-10.6-.4 15 15 0 0 0 2.9-9.5q-2 4.3-5.8 6.4-2 1-4.1 1.4-5.2.8-10.6 1.4a8 8 0 0 1 2.4-2.5q4.5-3.6 3.5-10.2-1 4.4-5 6.2l-4.8 2.8a18 18 0 0 1-9.4 2.4q1.4-.4 2-2 2.3-4.5 2.3-10.5m46-45.2q-2.6 1.7-6.8 1.4-5-.6-10.2-.6 3.3-.2 5.5-2.6 3.7-4.7 7.3-8.1-1.1.9-2.9.9l-9-.2 1-.4q2.3-1.4 3.8-3.4a62 62 0 0 0 6.3-9.2q3-5 5.6-10.1 2.3-4.4 5.5-9.8l2.2-3.6m19.6-38.5q4.8 3.2 4 10.8 7.5-2 7.8-11.7.4-9.3-3.2-15.3 7.2 3.5 9.1 12.2 2.5-3.6 3.5-7.8 1.7-7.8-2.5-11.3a27 27 0 0 1-8.5-12.5l2.5 1.9A30 30 0 0 1 423 83.5q1.5-2.1 1.7-4.7.2-10-6-14-6.7-4-5.8-14m27 428.6q0-3-1.2-5.3l-6.2-9.2a55 55 0 0 1-4.8-9.2 7 7 0 0 0-3.3 5.8 69 69 0 0 1-4.7-8.5 24 24 0 0 1-2.4-12.1m45.3 83.4q-3.9.4-6.9-1.1a14 14 0 0 1-7-7.3q-.1 4.4-1 7.8-1.2-2.7-3.2-4.6a14 14 0 0 1-3.3-11M339.3 467a70 70 0 0 1 1.7-18.3q1.5-5.2 5-8.5-4.5 0-6.7 3.8.7-1.8.7-4.3a14 14 0 0 1 .7-6.1 111 111 0 0 1 4-10.3m-21 87.8q0-3.6.4-7.4.6-5.5 5.1-8.3.3 4.6 3 8.3l3.6 4.6" id="path8"/></g><path d="M385.2 45.6q4.5-1.6 4.3-4.7a15 15 0 0 1-5.7-7l-2.6 1q-3.3 6.3 1.2 10.1 1 1 2.7.5" id="path9"/><g fill="none" stroke="#ffffff" stroke-linecap="round" stroke-linejoin="round" id="g34"><path d="M326.6 290.3q-.7 5.9-5.8 6m63-262.3-2.6 1-4.3 1m0 0q-1.1.4-2.2.5-8.4 1-8.2-4.3m40.3-2q-2.2-1.2-4.5-2l-3.8-1.2a38 38 0 0 0-15.7-.1q-7.4 1.6-15.2.9-1 2.6-1.1 4.4m0 0-6.6-.6q-5.4-.2-10.5.5-6.1.7-13.3.4.8 5.4 2.5 10.2m83.3-9.1q-4.2.8-8 3.3a8 8 0 0 0-3-4.2 25 25 0 0 0-4.1-2.5" id="path10"/><path d="M421.9 33.6q.4-7-3.6-10.3-7.8 1.7-11.6 6.8m-17.8 1q-2.4 1.6-5 2.8m17.5 9-5.5-.2q-3.6-.3-6.3-1.8a14 14 0 0 1-5.8-7m53 4.5-3 .5q-7.2 2-8.6 11.5a53 53 0 0 0 .3 16.9q5.5-3.8 9.7-8.3m-63.4-10.8L374 46a14 14 0 0 0 3-10m-20 31q-3.5-.2-8.9-2.6l-1.8-1" id="path11"/><path d="M346.4 63.6q-.2 9 6.5 13.4 1.3.7 3.2 1-1.4-6 1-10.8" id="path12"/><path d="M357.2 67.2h2.2q1.4 2.9 3.9 5.2a21 21 0 0 0 6.4 4 35 35 0 0 1 11.8 7.9l1 1.2" id="path13"/><path d="M382.6 85.5q-3.8-.7-7.6-1.8-3.2-1-6.6-1.1-4.6-.4-9.3.3l-14.6 2.3q-8.3 1.5-15.8-.7-8-2.5-10.6-8.8 1 8.2 7.1 13 6.5 5.2 14.3 5.8 9 .8 14.7-2.2" id="path14"/><path d="M383.5 97.8A28 28 0 0 0 360 91m5.8 6.3 13 2q3.3.4 4.6-1.5m-30.9 1.4q.6 7.2 8 5.9a32 32 0 0 1 13.6 4.2q4 2.1 8.4 3m-28.4-20q-1.1 3-1.5 6.9m0 0q3.3-4 10.7-2.5l2.6.6m-.9 52.6q1.8-2.4 4.7-7.2 2.9-4.7 5.8-6.7 3-2 8-2.7" id="path15"/><path d="M382.6 112.3q-4.1 5.2-6.9 12.4l-6 15.2-4.6 10m.8-52.7a13 13 0 0 1-5.7-6.3m39.2 16q-2.6 5.4-9.8 5.8-3.9 0-7-.5M360 91q-.6-1.6-1-3.6a10 10 0 0 0-4.8 5m29.2 5.5q2.4-8.4-1-12.3M457.8 222v-.8q1-11.1 1.6-21.6.6-14.9.8-29.8 0-15-6.7-33t-8.1-27.3q-1.1-9.3-5.6-22T435.3 59m-96.6-16.3q-1.6 7.2.4 13 1.5 4.9 7.3 8m18.8 86.2a146 146 0 0 0-11 18.6l-5 10q-2.7 4.9-5.1 10.1a70 70 0 0 1-11.8 17.5 54 54 0 0 1-18 11.4q-2.1.8-4.6.8H285l-11.8-.5q-6-.2-9 3.3l-.2.3m0 0q-6.4-.1-8.8 4.6-.8 1.4-1.1 2.7 2-2 6.4-.6m0 0-1.4 1.2a20 20 0 0 0-5.6 8.2m7.8 9.1 2-4.9a14 14 0 0 1 7.5-6.5m-17.3 2.3q-4.1 3.1-3.6 10v2q3-3.8 7.3-6.2l.9-.6m0 0q-.3 3.4 3.2 4" id="path16"/><path d="M253.5 237.5q2.1-.7 4.1 1.2 2.2 2.4.4 4m4.6 7.8a15 15 0 0 0-4.3 7 9 9 0 0 0-.6 3.4v2.6q3.8-2 7.3-5.8" id="path17"/><path d="M261.3 246.6q1.4 1.5 1.3 3.9m37.8 2.5q1.1 0 2 .3 4.3.7 8.7.6 5.5-.1 9.8 1.9a30 30 0 0 0 10 2.9q3 .4 6 .5m12.7 3.2h-1.8a52 52 0 0 0 3.3-6.2 18 18 0 0 1-9.4 3H337m-11.6-22.8-3.3 4.3q-3 4.2-8.3 6.6l-8.4 3.9q-1.6.8-2.8 1l-2.2.8m38.2 30v-2.2q2-.6 4 .9 2.2 1.5 2.9 4.3" id="path18"/><path d="M340 265.5q0 1-.3 2-1.2 3.4-2.5 6-3.1 5.2 1.4 9.4m-1.7-23.7q-.4 6.4-4.2 9.7-3.6 3.1-7.6 6-4 3.1-7.7 7.4a16 16 0 0 0-3.4 7m-39.2-26.8q5.4 1 10.7 0 2.9-.4 4-4 .3-2.3 3.8-1.4a22 22 0 0 1 7.1-4.2m-30 6.4.6.3-1 1.2" id="path19"/><path d="M274.9 262.6q4.9-3.3-.7-4.9-3.1-.7-3.8 1.6m0 0-.3-.3m0 0q.2-5 2.6-8.4 2-2.6 1.6-2.7m-11.7 2.6q2.8.4 3.4 2.9.6 2.4-1 4.3m0 0q2.9.3 5 1.4" id="path20"/><path d="M270 260.9a11 11 0 0 0-1.8 8.4q2.6-4.2 6.5-6.7h.2m-4.8-1.8q0-1 .2-1.6m-.2-.2v1.8m59.5 46-1.2 1-.6.3m-1.2.3 1.1-.2m2-1.5q.5-1 .8-2.3 1-4.6 2.4-8.7m8.5 1.2q-2 .5-1.5 3.8.3 2.3 0 4m-3.6 3.4-.8.1q-3.4 1.1-5.9-1.4" id="path21"/><path d="M327.8 308.2q0 5 1.1 8.5 3-5.1 6.7-8.4l.7-.3m0 0 1-.4.4-.3a5 5 0 0 0 2.2-2.6m0 0a6 6 0 0 0 2.3 3.3m-15.5.5q-1.8.2-3.6-1.2-2.6-2-2.8-6m.6-5h-.6q-5.8 0-6.4-7" id="path22"/><path d="M314 289.3q-.4 1.2-.5 3a58 58 0 0 0 0 11.1 24 24 0 0 1 7.3-7m0 0q-.5 2.7-.5 4.8m0 0a57 57 0 0 0 0 13.5 38 38 0 0 1 6.3-6.3M435.2 59l1.4-1.5q3-3.2 4-7.5 1.9-8.3.1-16.5-6 0-11.8-.3-3.7-.2-7 .4M338.4 283q.1 5.1 3.4 8.1 1.4.9 3.4 1.5.6-3.9.1-6.6m-84.9-58q1.4-4.2 3.4-6.6m-3.4 6.6a19 19 0 0 1 6.7-3.6m190.4-2.4-.6 6.1-.2 1q-.8 6.7-2.5 12m-56.2-5.5q0 1-.8 1.7a36 36 0 0 0-5.7 8.4 27 27 0 0 1-7 8.3 42 42 0 0 1-8.2 5.2 21 21 0 0 1-7.7 2.5q-5.2.7-10.6.7h-8.6m4.6 18q-.8-1.3-1.3-3l-.9-2.7q-1.8-5.7-2.4-12.3m4.6 18 .1.2q1 2.1 2.7 4.2 1.6 2 2.8 4.1" id="path23"/><path d="M345.5 286a12 12 0 0 0 8.6-5.5v-.1m5.6 8.5q1.5 2.4 2.6 5 1.8 5.1 1.5 11.4a424 424 0 0 1-1.4 23.3q-.9 5.9-.7 11.9V359M346 309l2.3-.1q5.6-.6 4.7-8-.8-6.7 3.2-9.5l3.7-2.6m-17.6 19q-1.5 5.4 2.5 8 .8-3.6 1.2-6.7M462.8 403h1.3q3.3 0 5.6-3 3.5-4 1.7-10l-1.1-3.5a88 88 0 0 1-3.4-10.3q-1-4.6-1-9.4 3.7-19.2 4.8-38.6 2.6-52.2-13-106.3" id="path24"/><path d="M345.9 309.2a7 7 0 0 1-3.7-1.3m7.6-269q-6.5-1.5-11.1 3.7m114 352.3q1.2-3.4 1.2-7.4l-.2-11.8m9 27.4q-.9-.1-2-.5-4.6-1.5-8-7.6" id="path25"/><path d="M409.7 443.9q.2-.7.7-1.5a17 17 0 0 0 9.6-3.1 81 81 0 0 0 15.6-14.2q2.9-4 5.5-8.5 2.5-4.1 4.9-8.8l5.4-10 1.3-2.8m8.8 34 .6-1.8q1.5-5.6 1.4-11.6t-.7-12.5m-101-44q0-.4.3-.7 2.5-5.3 25.9-27.4m-26.2 28q-2.1 4.6-4.8 9.2-3 4.6-5.6 9.2a82 82 0 0 0-5 9.8 81 81 0 0 0-4 10.5l-3.1 10.4-3.4 11.3q-1.8 5.7-2.5 11.5l-1.5 11.5q-1 5.6-1.1 11.7-.4 6-.4 12-.2 6-.6 11.8a156 156 0 0 0-.4 11.9v2.7l-.1 2.9a59 59 0 0 1-9.8 1.7h-1.6m91.8-53.2q.7 5.1 2.2 8.4l4 10q2 4.6 4.9 9.5 2.2 3.8 5.5 8.5 3 4.6 6.8 8.2 3 3 3.4 7.5.6 4.5 0 8.6m-66.3-32.2 8.3-4.6q4.7-2.6 9-5.4l8.4-5.3a60 60 0 0 0 13.7-13.2M365.8 474q1.5-.3 3.2-1.1l1.1-.6" id="path26"/><path d="m310.5 535 9 1.4 1.5.4q3 .5 5.3 1.4 2.1.6 4.6.7a94 94 0 0 0 20-1.7q4.2-1.1 7.6-4.3 3.4-3.3 6.6-9.5a44 44 0 0 0 5-22.6v-28.5m50.3 18.1-2.4-2.2a13 13 0 0 0-10-3l-2.4.1q3 1.5 4.7 4.6m26.3 14.7q-3-1-5.7-2.3-2.1-1-.8-2a19 19 0 0 0-4.7-5.8l-5-4" id="path27"/><path d="M420.5 490.5q-3 3.2-9 1.7-.4-1.1-1.1-2.2m-8.4 12.8.8.1q5.4 1 6.4-4.6v-.2m0 0q4.3 1.4 7.9 3.6.7 3.8 5.5 2.9m-13.4-6.5-.7-.1q-5-1.6-10.3.7a21 21 0 0 0-6.2 3.9q5-.4 10 .2m8.4-12.8q-2.3 3-1.2 8.2m-7.2 4.7q-1 7.8 2 11m-2.2 11.3q1.3 0 2.4-1.5 3-4.9-2.2-8.1" id="path28"/><path d="M402 515.6q-3.3 2.6-5.6 6l-3.4 6.1q2.2-3.1 8.7-2.6m2.4-11.2-.6.4-1.5 1.2m2-1.6q3.7-2.3 9-2.3 2.6 2.2 7.1 1.6m-.3 12.2-5.3.8a14 14 0 0 0-6.2 2.8m0 0-1.6 1.4m0 0-.9 1q-4 4.5-5.2 9 1.7-3.3 6.3-3.6m-5.1-11.7q-.7 5.7 5 5.3m50-91.6q.9-1.2 1.2-2 2-3.6 3.5-7.8" id="path29"/><path d="M422 538.8a50 50 0 0 1 12 0q5 1.3 10.7 1l10.8-.3a26 26 0 0 0 9.8-2.3q4-2 5.7-7a36 36 0 0 0 1.7-11.3q0-6-1-11.4-.8-5.7-1.1-11.5a57 57 0 0 0-1.8-11.7q-1.6-5.2-3.5-10.5a54 54 0 0 1-4.8-22.2l.3-11.2q0-5.9.7-11.3" id="path30"/><path d="m436.6 504.6-.4 2.3m-128-19.7q-1.1-1.2-2.4-2.2a13 13 0 0 0-10-3l-2.4.1q3 1.5 4.9 4.6m-1.4 8.3q-.2-.3-.6-.3-5-1.5-10.4.8a21 21 0 0 0-6 3.7q4.8-.2 9.8.5m8.5-13q-2.4 3-1.3 8.3m0 0q-.9 5.7-6.4 4.8l-.8-.2m20.7 1.7q-4.8.8-5.5-2.8a28 28 0 0 0-8-3.6" id="path31"/><path d="M308.3 487.2q-2.8 3.3-9 1.8-.4-1.3-1-2.3m-8.6 13q-.9 7.5 2.2 11m0 0-.5.3-1.6 1.3m0 0a29 29 0 0 0-5.6 6.1l-3.3 6.1q2.3-3.1 8.8-2.6" id="path32"/><path d="M289.8 512.4q5.1 3.3 2.1 8-.8 1.5-2.2 1.6m6.4 3.8a15 15 0 0 1 6.3-2.7l5.4-.9m-11.7 3.5q3.9.2 3.6 4.6-.2 3.3-2.8 3.4-1-.3-2 0" id="path33"/><path d="m294.6 527.3 1.5-1.5m12-15.7q-4.6.3-7.4-1.7-5.2.1-8.8 2.3m-2.2 11.2q-.6 5.7 4.9 5.3m0 0-1 1q-3.7 4.5-5.1 9 1.8-3.3 6.4-3.6m23-36.6a17 17 0 0 0-4.6-5.7l-5-4.2m9.5 10q.7.8 1 2m-24 34.5q2 4.8 8.4 4.4 3.8-.1 6.5-2.3l.8-.7m115.3-1.4q-1.2 2.8-3.2 4.6l-.5.5m-13.7-9.7q3.8.1 3.6 4.6-.3 3.2-3 3.2h-2m0 0q2 4.8 8.3 4.4 3.8-.1 6.6-2.3l.2-.2m-108.5-8.4a12 12 0 0 1-3.1 4.7" id="path34"/></g><path d="M244.2 1.3h242.7V529q-1.1 42.6-58.3 42.3H280.7a41 41 0 0 0-36.6 21.1 41 41 0 0 0-36.6-21H59.7q-57.2.2-58.4-42.5V1.3H244v2.3z" fill="none" stroke="#ffffff" stroke-linecap="round" stroke-linejoin="round" stroke-width="4.557" id="path35"/></g><!-- app4joy --></svg>