<svg width="900" height="600" overflow="visible" viewBox="0 0 900 600" id="svg44" xmlns:xlink="http://www.w3.org/1999/xlink" xmlns="http://www.w3.org/2000/svg"><g id="g45"><path style="fill-rule:evenodd;fill:#1059d3" id="rect1" d="M0 0h900v600H0z"/><path style="fill-rule:evenodd;fill:#f00" id="rect2" d="M0 61.1h900V120H0z"/><path style="fill-rule:evenodd;fill:#f00" id="rect3" d="M0 480h900v58.9H0z"/></g><g transform="translate(-1875.5 265.6)scale(1.6168)" style="stroke:#916a09" id="g42"><use transform="rotate(22.4 1313.9 21.3)" style="fill:#ffd500;stroke-width:.8;stroke:#916a09" xlink:href="#a" id="use3"/><path id="a" d="M1302.8-45.6q-3-1.8-1.9-4.5 1-2.9-1.6-4-3-1.4-1.8-5.5.5-2-1-3-3-2.5-1.2-9.4-4.3 6.8-2.1 9.4a6 6 0 0 1 1 5.7q-1 3 1 5.5 2 2.6 1.3 5c-.6 1.7.6 3.4 1.4 4.6 4.1 5.8 3.8 15.6 2.7 20.3l11.3-2.3c-.7-3-1.7-7.3-3.8-11.6-1-2.3-2.4-3.8-2.4-5.7q0-2.8-2.9-4.5z" fill="#ffd500" style="fill:#ffd500;stroke-width:.8;stroke:#916a09"/><use transform="rotate(-22.6 1313.9 21.3)" style="fill:#ffd500;stroke-width:.8;stroke:#916a09" xlink:href="#a" id="use4"/><use transform="rotate(-45 1313.9 21.3)" style="fill:#ffd500;stroke-width:.8;stroke:#916a09" xlink:href="#a" id="use5"/><use transform="rotate(-67.6 1313.9 21.3)" style="fill:#ffd500;stroke-width:.8;stroke:#916a09" xlink:href="#a" id="use6"/><use transform="rotate(270 1313.9 21.3)" style="fill:#ffd500;stroke-width:.8;stroke:#916a09" xlink:href="#a" id="use7"/><use transform="rotate(225 1313.9 21.3)" style="fill:#ffd500;stroke-width:.8;stroke:#916a09" xlink:href="#a" id="use8"/><use transform="rotate(202.4 1313.9 21.3)" style="fill:#ffd500;stroke-width:.8;stroke:#916a09" xlink:href="#a" id="use9"/><use transform="rotate(180 1313.9 21.3)" style="fill:#ffd500;stroke-width:.8;stroke:#916a09" xlink:href="#a" id="use10"/><use transform="rotate(157.4 1313.9 21.3)" style="fill:#ffd500;stroke-width:.8;stroke:#916a09" xlink:href="#a" id="use11"/><use transform="rotate(247.4 1313.9 21.3)" style="fill:#ffd500;stroke-width:.8;stroke:#916a09" xlink:href="#a" id="use12"/><use transform="rotate(135 1313.9 21.3)" style="fill:#ffd500;stroke-width:.8;stroke:#916a09" xlink:href="#a" id="use13"/><use transform="rotate(112.5 1313.9 21.3)" style="fill:#ffd500;stroke-width:.8;stroke:#916a09" xlink:href="#a" id="use14"/><use transform="rotate(90 1313.9 21.3)" style="fill:#ffd500;stroke-width:.8;stroke:#916a09" xlink:href="#a" id="use15"/><use transform="rotate(67.5 1313.9 21.3)" style="fill:#ffd500;stroke-width:.8;stroke:#916a09" xlink:href="#a" id="use16"/><use transform="rotate(44.9 1313.9 21.3)" style="fill:#ffd500;stroke-width:.8;stroke:#916a09" xlink:href="#a" id="use17"/><path id="b" d="M1313.9-73.8c-21.7 18.8 4.7 35-4.7 49.7l11.9.7c1.2-4.4.3-10.4-.7-14.6-2.4-10.5-12.6-19.5-6.5-35.8" style="fill-rule:evenodd;fill:#ffd500;stroke-linecap:round;stroke-linejoin:round;stroke-miterlimit:5;stroke-width:.8;stroke:#916a09"/><use transform="rotate(22.4 1313.9 21.3)" style="fill:#ffd500;stroke-width:.8;stroke:#916a09" xlink:href="#b" id="use18"/><use transform="rotate(-22.6 1313.9 21.3)" style="fill:#ffd500;stroke-width:.8;stroke:#916a09" xlink:href="#b" id="use19"/><use transform="rotate(-45 1313.9 21.3)" style="fill:#ffd500;stroke-width:.8;stroke:#916a09" xlink:href="#b" id="use20"/><use transform="rotate(-67.6 1313.9 21.3)" style="fill:#ffd500;stroke-width:.8;stroke:#916a09" xlink:href="#b" id="use21"/><use transform="rotate(270 1313.9 21.3)" style="fill:#ffd500;stroke-width:.8;stroke:#916a09" xlink:href="#b" id="use22"/><use transform="rotate(247.4 1313.9 21.3)" style="fill:#ffd500;stroke-width:.8;stroke:#916a09" xlink:href="#b" id="use23"/><use transform="rotate(225 1313.9 21.3)" style="fill:#ffd500;stroke-width:.8;stroke:#916a09" xlink:href="#b" id="use24"/><use transform="rotate(202.4 1313.9 21.3)" style="fill:#ffd500;stroke-width:.8;stroke:#916a09" xlink:href="#b" id="use25"/><use transform="rotate(180 1313.9 21.3)" style="fill:#ffd500;stroke-width:.8;stroke:#916a09" xlink:href="#b" id="use26"/><use transform="rotate(157.4 1313.9 21.3)" style="fill:#ffd500;stroke-width:.8;stroke:#916a09" xlink:href="#b" id="use27"/><use transform="rotate(135 1313.9 21.3)" style="fill:#ffd500;stroke-width:.8;stroke:#916a09" xlink:href="#b" id="use28"/><use transform="rotate(112.5 1313.9 21.3)" style="fill:#ffd500;stroke-width:.8;stroke:#916a09" xlink:href="#b" id="use29"/><use transform="rotate(90 1313.9 21.3)" style="fill:#ffd500;stroke-width:.8;stroke:#916a09" xlink:href="#b" id="use30"/><use transform="rotate(67.5 1313.9 21.3)" style="fill:#ffd500;stroke-width:.8;stroke:#916a09" xlink:href="#b" id="use31"/><use transform="rotate(45 1313.9 21.3)" style="fill:#ffd500;stroke-width:.8;stroke:#916a09" xlink:href="#b" id="use32"/><circle cx="1313.9" cy="21.293" r="45.235" style="fill-rule:evenodd;fill:#ffd500;stroke-linecap:round;stroke-linejoin:round;stroke-miterlimit:5;stroke:#916a09" id="circle32"/><g transform="translate(1188.3 -103.5)" style="stroke:#916a09" id="g41"><use transform="matrix(-1 0 0 1 251.3 0)" style="stroke:#916a09" xlink:href="#c" id="use33"/><g id="c" style="stroke:#916a09"><path d="M120.4 114.9c2.3 7.4 1.7 14 .5 20.6.8 2 2.8 4 4.7 4" style="fill:none;stroke-linecap:round;stroke-linejoin:round;stroke-miterlimit:5;stroke:#916a09" id="path33"/><path d="M96 118c4.2.7 7.5-3.2 12.8-3.4 4-.1 7.2 2.4 8.5 6.9-3.6 1.9-4.6 2.9-9.4 2.9-3.8 0-7-5-9.2-6.6" style="fill:none;stroke-linecap:round;stroke-linejoin:round;stroke-miterlimit:5;stroke:#916a09" id="path34"/><circle cx="108.93" cy="118.89" r="4.2777" style="fill:none;stroke-linecap:round;stroke-linejoin:round;stroke-miterlimit:5;stroke:#916a09" id="circle34"/><circle cx="108.93" cy="118.89" r="1.095" style="fill:none;stroke-linecap:round;stroke-linejoin:round;stroke-miterlimit:5;stroke:#916a09" id="circle35"/><path d="M96 112.7c3.1-5.7 20.4-10.2 25.4-1.1-7.8 1.1-6.4-3.4-13-3-4.1.3-7.5 1-12.5 4.1" style="fill:none;stroke-linecap:round;stroke-linejoin:round;stroke-miterlimit:5;stroke:#916a09" id="path35"/><path d="M122.7 138.2c-8 .4-4.4-6.3-1-7.6" style="fill:none;stroke-linecap:round;stroke-linejoin:round;stroke-miterlimit:5;stroke:#916a09" id="path36"/><path d="M114.5 149.3c3.8-.5 6.5-3.9 11.2-3.9" style="fill:none;stroke-linecap:round;stroke-linejoin:round;stroke-miterlimit:5;stroke:#916a09" id="path37"/><path d="M116.8 148.8c1.3 3 1.5 4.6 8.9 4.6" style="fill:none;stroke-linecap:round;stroke-linejoin:round;stroke-miterlimit:5;stroke:#916a09" id="path38"/><path d="M121 159.4a6 6 0 0 1 4.7-2.5" style="fill:none;stroke-linecap:round;stroke-linejoin:round;stroke-miterlimit:5;stroke:#916a09" id="path39"/><path d="m116.8 148.7 8.9.7" style="fill:none;stroke-linecap:round;stroke-linejoin:round;stroke-miterlimit:5;stroke:#916a09" id="path40"/></g><path transform="translate(0 -.5)" d="M126.9 140c0 2.6.4 6.2-1.2 6.8-1.7-.6-1.2-4.2-1.3-6.8" style="fill:none;stroke-linecap:round;stroke-linejoin:round;stroke-miterlimit:5;stroke:#916a09" id="path41"/></g></g><g transform="translate(18.3 74)scale(.88348)" id="g44"><path d="M589 93.7c37.2 16.8 64.2 92.2 83.3 137v15.7h-15.7c-44.9-19-120.2-46-137-83.2v185.4c16.8-37.2 92.1-64.2 137-83.2h15.7V281c-19 44.9-46.1 120.2-83.2 137.1h185.3c-37.1-16.9-64.2-92.2-83.2-137v-15.7h15.7c44.8 19 120.2 46 137 83.2V163.2c-16.8 37.2-92.2 64.2-137 83.2h-15.7v-15.6c19-44.9 46-120.2 83.2-137.1z" style="fill-rule:evenodd;fill:#fff;stroke-linejoin:round;stroke-miterlimit:5;stroke-width:3;stroke:#999" id="path42"/><path d="M601.4 166.8v103.7c0 74.2 58 89.9 80.3 89.9 22.4 0 80.4-15.7 80.4-90V166.9z" style="fill-rule:evenodd;fill:#1059d3;stroke-linejoin:round;stroke-miterlimit:5;stroke-width:3;stroke:#000" id="path43"/><path d="M684.8 197.4a57 57 0 0 0-56.8 56.8 57 57 0 0 0 56.8 56.7 57 57 0 0 0 50.7-31.5 41 41 0 0 1-32 15.6 41 41 0 0 1-40.8-40.9 41 41 0 0 1 40.8-40.8 41 41 0 0 1 32 15.4 57 57 0 0 0-50.8-31.3z" style="fill-rule:evenodd;fill:#fff;stroke-linejoin:round;stroke-miterlimit:5;stroke-width:3;stroke:#999" id="path44"/></g><!-- app4joy --></svg>