<svg height="400" width="600" id="svg43" viewBox="0 0 600 400" xmlns:xlink="http://www.w3.org/1999/xlink" xmlns="http://www.w3.org/2000/svg"><g id="g45"><path fill="#e51662" id="rect1" d="M0 0h600v400H0z"/></g><g id="g44" style="display:inline"><path fill="#1b1918" d="M377.3 316.5h-57.9c-3.7.3-8 1.6-9.6 2.5l-.4 14.6c15.6-2.2 30.2-8.6 44.9-14.7l1.8 1 4-1.6 18.7 13.4 6.7-2.1c1.6-.5 4-1.8 5.5-2.9l-9.7-11q-1.9.7-4 .8M309.7 22a34 34 0 0 1 9.4 4.2q.9-.1 1.8.2 1-.4 2-.3 1.4.3 2.7 1.5a5 5 0 0 1 1.4 2.8l-.1 1.5.4 1.8q2.5 3.3 4 7.2a5 5 0 0 1 2.3 2.4q1.2.5 2 1.6 1.3 1.5 1.3 3.8 0 2.4-1.3 4-.6.8-1.6 1.3l-.4.8a6 6 0 0 1-1.4 1.8q-1.1 4.4-3.4 8 .1 1-.2 2l-.2.7q.2.7.1 1.6a5 5 0 0 1-1.4 2.8q-1.2 1.2-2.8 1.4-1 0-1.8-.3l-1.6.3a34 34 0 0 1-8 4.3V80c-2.2.5-3.3.6-5 2q-2.9 2.5-1.9 6.4c.6 2.2 2.8 3 4.9 3.6l1 .1v1.8c0 1.3-3.3 3-4.1 4l-.1.2h14c.8-.8 1.6-1.6 1.6-2 .3-3.1-1.9-3.4-4.1-4.8-1.8-1.1-2-6.6.7-10.7 6.3-10 16-14 27.3-16 7.5-1.3 23-.4 28.6 5.4 7.4 7.6-.1 12.9-3.4 20l-1.4 3c9.8 1.4 10.1-2.2 18.2-10.9 5.1-5.4 15-10.5 22.8-8.2l1-3c1.7-5 3-8.8 10-9.6q2.3-.2 4.3 0c2.5.1 4.9.3 7-1q1.8-1 2-2 0-1-.7-2.6a9 9 0 0 1-1-3.6q0-1.7 1-2.9 1-.9 2.7-1.3 2-.2 4.7.3h.2l1.7.5.2-1.1.2-1q.8-3 2.8-3.3 1.7-.2 3.2.9 1.5 1 2 2.7.4 1.9-1.7 3.5-1.4.7-2.4.6h-.5q-.4 0 0 .9l.9 3.4c.8 3.8-.6 5.4-2.8 5.8a16 16 0 0 1-6-.5l-1-.2h-.4l-.5.2c-.9.7-1.4 2.3-1.7 3.4q-.6 3-.2 6.3c.3 3.7.6 7.2-2.3 10.4l-2.1 2a10 10 0 0 1-6 2.5q1.5 2.3 2.6 5.3c5.3 12.7-2.2 14.7-2.6 23.9-.4 8.1 4 7 9.7 7 8.8.2 6.2 7.2 1.3 11.1 1-3.2 4-7-1.3-7.6-7.2-.9-8 2.3-14.2-2.4-4.5 7.6-8.8 14-11 20.6a86 86 0 0 0 21.5-6.7c3.7-1.7 5.8-3.6 8-4.8 3-1.7 7.5-4.6 10.8-2.3 3.8 2.8 3.5 6.8 2.4 11-2 7.7-6.6 14.7-13.2 19.2-6 4.2-11.5 4.4-17.3 5.2a17 17 0 0 0-6.8 6.8c3.2 5.2 5.4 8.3 3.5 16.1-.4-7.3-2.2-9.5-5.2-12.8q-.6 1.5-.7 2.9a18 18 0 0 0 5.5 15.8l5.5-.2h.8q2.5-5 4.6-9.9l15.2-21.5c2-2.6 4.9-3.1 7.6-2.3a10 10 0 0 1 5.5 4c1.4 2.2 1.6 5-.4 7.6a417 417 0 0 1-18.3 20.8l-.1.6 1.2.3c.9.3 1.1.4 1.6.4q.4 0 1-.6c.3-.4.6-1.4 1.2-1.7 2.3-.8 4.3 2 3.6 4q-.6 1.4-1.7 2.7c3.5 1.5 6.6 2.9 9.6 5.2.9-2.1 2.1-1.9 3.6-.5 1.2 1.2 1.6 2.3 3.5 2.1q1 0 1.6-.7c1.4-2 5-2.2 4.1 1.4q-.4 1.5-1.9 2.5c-.8.8-2.5 1-3 2s.2 2.1.5 2.9c.4.8 1.3.9 1.6 1.5q.3 1-.4 2c-.3.7-1.4.1-1.5 1.7s.4 5.6.9 7.1 2.1.3 2 1.3c0 1-1.7 2.2-2.4 3-.6 1-.7 1.8-1.6 2.2s-2.4.3-3.2 0-1-1-1.6-1.4a73 73 0 0 1-11.6 16 49 49 0 0 1 4.6 13.3c1.5 10.3-6.2 17-14.7 21-6.5 3-10.2-1.2-14.8-5.3-5.7-5.2-6.8-1.2-10.8-3.4.3-.5-.1-.6 1-1.6a40 40 0 0 1 18.2-8l4.9 3.2c-.4-4.4-2.2-6.1-5-8.3a89 89 0 0 1-36.1 5.2v7.9a40 40 0 0 1 25.3 27.3 38 38 0 0 1-2.8 30.5l2.4 2.5 2.9 3.6 1.5 3-1 1.8.9.8.2 2-2 3.1.2.9 2.6.4 1.3 1c-.5 5.5-1.6 6.2-7.2 6.7l-1.5-1.5.1-2.1-1.5-1-3.9 1.6-3.3-2.2c-3 0-5.5-5.9-5.4-5.9-13.1 9-30.3 6.9-43.8.3-16.7 6.8-33 13.4-50.5 15.8l-.1 4.8v3.1l.9.8.9 1.6.4 1.5v7.8l-.9.4-.4 1.8.7 2 .2 1.7-1.8 1.3-1.8 1.8-2 2.5-2.3 1.6-3.5.8-3.7-.5-3-1.1-1.6-2.7-2-3.1-1.8-.9.1-2.8v-2.4l-1.2-1 .2-1.3v-7l1.2-2 2-1 .2-6.9a151 151 0 0 1-62-18.7c-11.6 6.3-27.8 8.2-38.6 1.2q-2.6-1.6-4.7-3.4l-10 10.3c-6 3.7-9.8-4.6-7.2-8.9l9.2-9.9c-17.1-24.6 3.8-58 26.4-65.4v-3.2c-13.5.5-25-.6-35.2-4.5-2.8 2.2-4.3 3.9-4.7 8.3l4.8-3.3c7 1.6 12.4 3.4 18.2 8.2 1.2 1 .7 1 1 1.5-4 2.2-5-1.7-10.8 3.4-4.5 4-8.2 8.4-14.7 5.3-8.5-4-16.3-10.7-14.7-21 .7-4.9 2.5-9 4.5-13.3q-6.2-6.2-11.6-16c-.5.5-.7 1.2-1.5 1.4a5 5 0 0 1-3.2 0c-1-.3-1-1.2-1.7-2-.7-1-2.3-2.1-2.4-3.2 0-1 1.5.2 2-1.3s1-5.5 1-7c-.1-1.6-1.2-1.1-1.5-1.7q-.7-1-.4-2c.2-.7 1.2-.8 1.5-1.6s1-1.9.5-2.8c-.5-1-2.1-1.3-3-2q-1.3-1.2-1.9-2.5c-.9-3.7 2.7-3.4 4.2-1.4q.6.6 1.5.7c2 .2 2.4-1 3.6-2.2 1.4-1.4 2.6-1.6 3.5.5 3-2.3 6.2-3.7 9.6-5.2-.5-.9-1.3-1.8-1.6-2.6-.7-2 1.3-5 3.5-4 .7.2 1 1.2 1.3 1.6q.4.6 1 .6.4 0 1.5-.4l1.3-.3v-.2l-.1-.3-6.4-7.2c-4.8-5.4-9.6-10.8-12-13.7a6 6 0 0 1-.3-7.6q1-1.4 2.3-2.4 1.5-1.1 3-1.6c2.8-.8 5.8-.3 7.7 2.4l16 22.4.9 1.3-.7-.1 2.3 4.7 1.4 3h.7l5.5.3c4.4-4.6 6.3-8.5 5.6-15.9-.5-4.3-5.2-11.3-9.2-13-5.8-.7-11.3-1-17.4-5.1a34 34 0 0 1-13.1-19.2c-1.2-4.3-1.5-8.3 2.4-11 3.2-2.4 7.8.6 10.7 2.2 2.3 1.2 4.4 3.2 8 4.8a81 81 0 0 0 26.8 7.3c4.4.4 7.3 0 10.2-1.8V113l-1-1.3-1-1.2a10 10 0 0 1-6.7 1.2q-2.2-.5-3.6-1.9a7 7 0 0 1-2-3.6q-.7-2.9 1-6.3a14 14 0 0 0-8.7.9l-.6.2-.4-.5L173 92c-6 2-11.1.3-14.4-3a14 14 0 0 1-3.6-6q-1-3.2 0-6.5c1-3.7 4.4-6.9 10.6-8l.4-3.6-2.4-1.1-1-.4.6-.8 1.8-3 .6-2q-1.8.4-3-.2-1.2-.5-1.8-1.6-.5-1-.4-2.2 0-2.2 1.4-3.7 1.8-1.9 4-2.5 1.5-.3 2.9 0a4 4 0 0 1 2.3 2q.7 1.3.8 3.5c2 .2 2.7-.1 5-1.2l1.2-.7v4l3.5 1q.2-1.4.6-2.6a10 10 0 0 1 4-4.9q2.9-1.6 6.2-1.6 2.3 0 4.3.8a16 16 0 0 1 8.5 8.9q1.3 3.4 0 7-.7 2.3-2.5 4.2l2.9 3.3q1.4 1.9 3.3 3.8l.5.5-.3.5a18 18 0 0 0-2.5 7.7q3.4-1 6.6.3 2.3 1 3.8 2.6 1.5 1.8 2 4.1.5 3-1.5 6l.9 1.1.3.4h11c.5-3.8.3-4.5-1.4-8.1-3.3-7-10.8-12.4-3.4-20 5.7-5.8 21.1-6.7 28.6-5.3 11.3 2 21 5.9 27.3 16 2.6 4 2.5 9.5.7 10.7-2.2 1.4-4.4 1.6-4.1 4.8 0 .4.8 1.2 1.5 2h14.6c-1.6-2.9-5.3-1.4-5.1-5.8q-.1-.5.2-.8c2.2-1.5 5.5 1.1 5.9-5.6.4-7-5.3-3.3-7.4-5.6-.7-.6-.2-2.2 0-3.2q-3.7-1.5-6.9-4l-1.5-.2q-.9.5-1.9.3a5 5 0 0 1-2.8-1.5 5 5 0 0 1-1.4-2.7l.1-1.6-.2-.6q-.3-1.2-.2-2.1a28 28 0 0 1-3.3-8q-.8-.6-1.5-1.8l-.3-.9q-1-.4-1.7-1.3-1.2-1.6-1.2-3.9t1.2-3.9q.8-1 2-1.5a5 5 0 0 1 2.4-2.5q1.5-3.9 3.9-7a5 5 0 0 1 .5-2q-.2-.7-.2-1.5c.1-.5 1-2.4 1.5-2.8q1.3-1.2 2.7-1.4 1 0 1.9.3 1-.3 1.8-.2a34 34 0 0 1 9.5-4.2q.4-1.8 2.7-3v-.8q0-2.2 1.9-3.6a8 8 0 0 1 4.4-1.4q2.7.1 4.5 1.4 1.9 1.5 2 3.6l-.1.8q2.2 1.3 2.7 3zm-60.1 76h4.4c.2-1.5.1-2.1 1.6-2.8 2.5-1.2 4.9-1.2 5.9-2.7 3-4.4-1.2-11-8-16.4-3.9-3-12.4-7.1-12.7 1.2-.2 6.6 7.2 11.3 8.6 17.6zm160.2 57.8q.6 4 2.8 8.7 4.4-4.2 9.6-8c4.7-3.4 10.7-6 15.8-8.9-2.7-1.5-4.2-2.8-7.6-1.8q-2.6 1-5.8 2.8c-3.7 2-7.2 4.4-11 6q-2 .8-3.8 1.2m-.4 12.3a44 44 0 0 1-6.5-11.4l-3.6-.1a54 54 0 0 0 .5 15.4c.7 4.1 2.2 8.2 2.6 12l.5 5.1q.3.4.3.8c-.1 1-.3 2.1 1.2 2.5a23 23 0 0 1 1.1-18.1q1.6-3.4 3.8-6.2zm-10 21.1c-.5-2.2-1.4-3.8-2.2-6l-2.8-8v18.6c1.4.5 3.5-2.8 5-4.6M371.2 98l4.2-1.4q-1.8.1-4.2.8zm-18.7-6a23 23 0 0 0-8-.3c4.5-2 7.4-2.8 9.7-2.8 2.6-3.5 5.9-7.6 5.7-11.5-.3-8.3-8.8-4.2-12.6-1.2-6.8 5.4-11.1 12-8 16.4 1 1.5 3.3 1.5 5.8 2.7 1.6.7 1.5 1.3 1.6 2.7h4.5l.2-3c0-.6.6-1.9 1-3m48.1 220.6c3.4-9.2 4.2-20.6-2.7-25.7-1.1-.8-2.6 0-3.5 0 0 1.2.9 13.2-1.2 17.7zm-123 4.2h-47l3.6 1.7 2.1-.3c19.4 10 32.8 14.9 53.7 16.1 0 0 .2-12.3.4-13.5 0 0-7-3.8-12.9-4m-48.6 0h-7q-5.1-.4-9-2.4-1.8-1-3.3-2.3l-11 11.4q4.5 3.8 10.7 5.3c2.5.5 2.5-2.2 3-4a47 47 0 0 0 16.6-8m-37.8-2.9 12-13q-.4-3-.4-6.2h-.1V284l-7 .8c-1 .1-1.8-.6-3 1.2a28 28 0 0 0-1.5 28m11.5-125.1v-32.3a36 36 0 0 1-18-1.8c-3.9-1.6-7.3-4-11-6-2-1-4.2-2.3-5.9-2.8-3.3-1-4.8.3-7.6 1.8 5.2 2.9 11.2 5.5 15.9 9a49 49 0 0 1 16.6 17.7 23 23 0 0 1 1.2 18c1.4-.3 1.3-1.5 1.2-2.4s1.3-2 2.5-1.6c1.4.4 1.4 1.8 2 1.6z" id="path1"/><g id="left_part"><path style="fill:#009ee0;stroke:#009ee0;stroke-width:0.1;stroke-linecap:butt;stroke-linejoin:miter;stroke-dasharray:none" d="M161.8 267.7a24 24 0 0 0 2.9 10.5c1.4 1.8 5.2-.5 6.6-1.7 2.3-1.8 5.6-6.6 8.8-6.5l3.6.1c-4.1-2.3-11.5-7.9-16.4-5.9-1.7.7-3.4 2.7-5.5 3.5zm2-11.1-11.1-7.1c-3.1 3.4-4 6.7-4.4 11.2-.8 9.2 6.5 14.2 13.7 17.7-.8-3.7-2.2-7.7-2.2-11.5a16 16 0 0 1 4-10.3z" id="path2"/><path style="fill:#ffcb00" d="M202.7 239.4H196c-.8 2.4-1.8 4.3-4.8 4-2.8-.2-4.5-1.9-6.2-3.8q-11.3-.6-22.6-2.3c-1.9 1.6-3 2.6-5.6 2.2-3.4-.5-3.6-2-4.3-5q-3.4-.6-6.6-1.9a30 30 0 0 0 9.8 15.6c13 10.9 30.8 11 47 11zm-36.3-56-4-5.7a17 17 0 0 0-2.9 5.6q-.9 3-1.2 6.9l.5.5.8-4.7q.4-1.9 2.4-2.6 2.2-1 4.4 0m-4.8-6.7-3.7-5.2c-3 4-3.4 8.3-3.9 13.8l3.2 3.6q.4-3.1 1.2-6 .8-3.2 3.2-6.2m-4.4-6.3-3.4-4.8q-2.7 3-3.5 6.3c-.8 2.3-1 4.8-1.4 7.7l3.9 4.3v.1c.6-5.3 1.2-9.4 4.4-13.6m-4.2-5.9-1.5-2a5 5 0 0 0-2.2-1.8q-2.8 3-4 6.1-1 3.3-1.4 7 1.8 2.2 4 4.5.2-3.7 1.2-6.8 1-3.6 3.9-7m-5-4.2q-1.4 0-2.7.3a9 9 0 0 0-4.7 3.5 5 5 0 0 0 .3 6.1l2 2.4q.3-3.2 1.3-6.2 1.2-3 3.7-6zm37.7 49c-.7 4.3-2.7 4.2-7.7 2.2 1.5 1.7 5.7 5 8.2 3 1.6-1.3 0-3.8-.5-5.3M159.8 192l2.3 1.4 5.4 3.6c5.4 3.7 5.6 5 6.3 8.6l1.1 5a10 10 0 0 0 3.4 4.6q1.7 1.3 3.6 1.8 1.8.6 3.5 0 1.6-.3 2.8-1.8l1-1.6q.8-2.4-.2-4.5-1.2-2.3-3.2-3.9l-3-1.8-.6-.2c-1.4-.6-3.2-1.3-4.3-2-4.2-2.3-6.1-6.5-8-10.7q-1.3-2.9-2.9-5.6l-.7-.2q-1.5-.7-2.7-.5l-.5.1-.6.2q-1.4.6-1.7 1.7v.6l1 2.1q1.4 2.1 3 4l-3-2.2q-1-.6-1.5-1.4zm40.4 1.3q-.7-.2-1.3-.6c-.8-.7-.7-1.6-.9-2.6q0-1.3-1.2-.9c-2.6 1.3 1.7 6.4 3.4 4m-45.8 3.3q-.7-.4-1.1-.9c-.7-.9-.3-1.7-.3-2.7 0-.8 0-1.4-1-1.2-2.8.7.2 6.6 2.4 4.8m2.1-.4q.7-.1 1.1-.5c.6-.5.3-1 .3-1.6 0-.5 0-.8 1-.7 2.8.4-.2 4-2.4 2.9m-1.1-1.5q.4 0 .4.4v1.3q0 .3-.3.4h-.1a.4.4 0 0 1-.4-.4v-1.3q0-.3.4-.4m30.6 35.6h-1.3v7.6c.3 0 .5.3.7 0q.4-.3.6-1.2l.2-2.5zm1.2.8 1.3.8-.2 6.8q-.7-.5-1-1.3t-.3-2zm3-2.7 1.5-.7q.4-.2.5.3l-.5.7-1.6.6q-.4.2-.5-.2.1-.5.5-.7m-.2 4.7 1.5-.7q.5-.1.5.2 0 .5-.5.8l-1.5.6q-.5.2-.5-.2t.5-.7m0 1.6 1.5-.6q.5-.2.5.2t-.5.7l-1.5.7q-.5.1-.5-.3t.5-.7m0 1.8 1.5-.7q.5-.2.5.3t-.5.7l-1.5.6q-.5.2-.5-.2t.5-.7m0 2 1.5-.8q.5 0 .5.3 0 .5-.5.7l-1.5.7q-.5.1-.5-.3t.5-.7m-2.7 1.2c1.4.5 3.2 2.5 4.7 1.5 1.1-.7 1-1.6 1.2-2.8q.1.6.4 1 .7.4 1-.5l.1-.7c0 5.2-4.2 5-7.4 2.3-.2-.1-.5-1 0-.8m8.3-9.1h-.7v7.8h.7zm-3.7-5.2q1.2-1.1 1.5-2.3c.9-4 2.8-2.4 2-.2a5 5 0 0 1-1.2 1.8q-.7.8-1.8 1.4c-1.4.5-2.6 1.2-3.8.3q-1-.6-1.8-1.7-.7-1.3-1-2.5c0-1.1 1.4-1 1.8-.2s.4 2.2 1.1 3.1c1 1.1 2.4 1 3.2.3m-39.7 1.2q1.4 1.9 3 3.3l.1 4.5c0 .9-.1 1.8.6 2.5s2.1.6 2.8.1c.9-.6.8-1.2 1-2.2v-4l1-1.4.1 2.6.4.6h.6l.3-.5v-3.9a281 281 0 0 0 15.4 2l-.2 2.2v1q.1.5.5.5l.7-.2v-1l.2-2.5h4.6v7.8a141 141 0 0 1-22-2.6l-1.2 1 .5.7c-1.2 1-2.1 1.5-3.8 1.2-1-.1-2.9-1-2.8-2.2l.1-3.2V231c.3-2-1-2.4-1.1-1l-.2 3h-.6zm50.4-30.8a107 107 0 0 0-10-1.3 29 29 0 0 1-6.7 9.3 14 14 0 0 1 4.2 4.8 7 7 0 0 1-1 7.3q-1.4 1.9-3.3 2.4-2.1.6-4.3 0-2-.7-4-2.1-2.5-2-3.7-5c-2.6 1-5.8 1.8-10.6 3a76 76 0 0 1-8.2-13.5q7.7-.7 12.6-2l-3.6-2.5q-5.6 1-10.6 2.7c-3.8 1.2-7.5 3.4-9.3 4.3-1.7.8-.9.3-1.2.8s0 1.1-.6 1.9l-2.3 2.6c-.6.5-1 0-1.2.5-3 4 9.4 10.8 12.4 11.6l.3-1.7.8-2c1.4-1.6 3.6-1.2 4.2.6q0 .7.4 1.2c.3.3.9.2 1.3.5s.8 1.3 1.3 1.1.2-1.4.7-1.7c2-1.4 4.8.9 3.6 3.5l-.7 1.5q10.8 1.6 21.8 2-.8-1.3-1-2.4c-.4-2.4 3.3-4 5-2.4q.4.5.4 1c0 .4-.3.9 0 1.1q.8.5 1.6 0c.5-.3.8-1.4 1.2-2q.6-.9 1.4-1.1c3-1.2 4.4 1.7 3.3 4.1l-.5 1.3c1.5 0 4 0 6.4-.7zm-28.3.4q2-1 3-1.7l-4 .3zm-38.8 8.6q1 0 1 1t-1 1-1-1 1-1m2.9 21.5c-2 .6-2.8.5-4.4-.3q-.7-.2-.6.4c.8 2.5 5-.1 5 0m11.3-.5 1.2.5v6.6l-1.2-.4zm-2.5-1.2 1 .4v6.6l-1-.4zm-2.4-1.2 1 .4v6.4l-1-.4zm-2.2-1.6.8.4v6.3l-.8-.4zm-2-1.9.6.4v6l-.6-.3zm-1.8-1.4.5.4v6l-.5-.4zm18.1 17 1.6-.6q.4-.1.5.3-.1.4-.5.7l-1.6.6q-.3.2-.4-.2 0-.5.4-.7M135 224.2l1.6-.7q.3-.1.4.3 0 .5-.4.7l-1.6.7q-.4 0-.5-.3.1-.5.5-.7m22 9.5 1.5-.6q.4-.2.5.2-.1.5-.5.7l-1.6.7q-.3.1-.4-.3 0-.4.4-.7m-22-11.5 1.6-.6q.3-.2.4.2 0 .5-.4.7l-1.6.7q-.4.1-.5-.3zm22 9.8 1.5-.7q.4-.2.5.3-.1.4-.5.7l-1.6.7q-.3 0-.4-.3 0-.5.4-.7m-22-11.5 1.6-.7q.3-.2.4.3 0 .5-.4.7l-1.6.7q-.4 0-.5-.3.1-.5.5-.7m22 5 1.5-.6q.4-.2.5.2-.1.5-.5.7l-1.6.7q-.3.2-.4-.3zm0 1.6 1.5-.6q.4-.2.5.2-.1.5-.5.7l-1.6.7q-.3.1-.4-.3zm0 3.2 1.5-.7q.4 0 .5.3-.1.5-.5.7l-1.6.7q-.3.1-.4-.3 0-.5.4-.7m-22-13 1.6-.7q.3-.2.4.2 0 .5-.4.7l-1.6.7q-.4.1-.5-.3l.5-.7m0-6.8 1.6-.7q.3 0 .4.3 0 .5-.4.7l-1.6.7q-.4.1-.5-.3.1-.4.5-.7m0 1.7 1.6-.7q.3 0 .4.3 0 .5-.4.7l-1.6.7q-.4.2-.5-.3.1-.5.5-.7m0 1.6 1.6-.7q.3-.1.4.3 0 .5-.4.7l-1.6.7q-.4 0-.5-.3.1-.5.5-.7m0 5 1.6-.6q.3-.2.4.2 0 .5-.4.7l-1.6.7q-.4.1-.5-.3.1-.4.5-.7m23.1 4.6q1.5-.7 2-1.8c2-3.7 3.4-1.6 2.1.4q-.6.8-1.7 1.4-1 .6-2 .8-2.5.4-3.9-1.4-.7-.8-1.2-2.1c-.3-.8-.4-2-.3-2.6.2-1.2 1.5-.7 1.8.2.2 1-.7 2.2-.2 3.3.6 1.3 2.5 2.3 3.4 1.8M134 207.7q-1.4-1-1.8-2c-1.4-4-3.3-2.3-2.2 0q.4.8 1.5 1.6a6 6 0 0 0 2.1 1.2q2.4.7 4.3-.7.9-.8 1.6-2a6 6 0 0 0 .8-2.4c0-1.2-1.5-1-2-.1s.4 2.3-.3 3.3c-.8 1.1-3 1.8-4 1.1m-.4 5.7c-.5.4-2 1-1 1.8 1.3 1 3.6.8 5.1.9 4.5 3.7 9.7 7.5 16 9 .2 2.5 1.4 4.7 4.5 4 1-.2 2-1.6 2.6-2.3q8.5 1.5 17 1.8c3.3.2 7-.1 8.8.1q.4.9.8 1.3l1.6 1c1.8.5 4.5.1 5-2.1q4-.1 8.3-.7v-2.4a27 27 0 0 1-9.6 1.2c0 1.2.1 2-.9 2.8a2 2 0 0 1-2.1.4c-.9-.5-1.7-2-1.9-3h-3.7c-2.1 0-5.6 0-8.9-.2s-7.2-.5-10.7-1l-4.9-.7q0 1-.2 1.9-.8 1.2-2.3 1.2c-2.6-.2-2.3-2-2.3-4-2.1-1-4.7-1.8-6.4-2.7-4.1-2-7.5-4.9-11-7.9-.7 2.2-4.1 1.7-4 .6zm63.4 16.8 5.3-.5v8.7h-5.2z" id="path3"/><path style="fill:#009ee0;stroke:#009ee0;stroke-width:0.1;stroke-linecap:butt;stroke-linejoin:miter;stroke-dasharray:none" d="M181.5 193.4c3.8-5.5 6-11 4-18-1-3.4-2.6-5.8-4.5-8.7 3.1 2.4 6.4 4.6 8.6 8 4.4 6.4 4 11.7 2 18-.9 2.3-2.9 6.3-7 10.2l-1.4-.6-.6-.3-4.1-1.8a12 12 0 0 1-3.1-2.5c4.8-2.2 6.2-4.3 6.1-4.3zm-24.4-36.6c-5.8-6.4-11.8-12.7-11.7-22 0-4.8 4-5.2 7.4-3.6 6.5 3.3 11.8 7 18.9 9.2a90 90 0 0 0 22.8 4.8c3 .2 5.3-.1 8.2-.9v9.6q-4 1-8.1.8c-7.4-.8-13.6-5.1-20.1-8.3l-5-2.1q-10.6-4-13.3 7c-.5 2.4 0 3.4 1 5.5zm29.2 10.7a93 93 0 0 0-27.3-18.1c-1.1 5-1.3 8.2 4 10.9 5.5 2.8 13 1 17.9 4zm-12.9 42.2q-4.5 1.7-10.6 2.5c-2-3.1-5-8.4-6-10.2q7.5-.8 12.4-2.2c2.7 2.2 2.9 3.5 3.4 6z" id="path4"/></g><use xlink:href="#left_part" transform="matrix(-1 0 0 1 598 0)" id="use4"/><g id="left_part2"><path style="fill:#009ee0;stroke:#008bd0;stroke-width:0.1" d="M241 71.6c-4.4-.4-16-3.1-17 4.2-.9 6.7 7.1 12.3 8 18.7l.6 3.4h15.3q0-1.2-.3-2.3c-1.8-9-12.6-13.5-6.7-24zm-13.1-2.2a37 37 0 0 1 21.6-3.6c10.9 1.4 25 5.8 30.3 16.3 2.5 5 1.8 6.7-2.2 9.8-3 2.4-3.3 3.3-1.3 6h-20.5q0-.3.5-.7c2.3-1.4 7.8-2.2 8.2-6.2 1.3-15.4-24.3-25.1-36.6-21.6z" id="path5"/></g><use xlink:href="#left_part2" transform="matrix(-1 0 0 1 600 0)" id="use5"/><g style="fill:#1b1918;fill-rule:evenodd" id="g43"><path style="fill:#009ee0" d="M394.4 271.9c10.4 3.4 18.2 12.5 23.7 24.4-5.1-4.7-10.3-9.6-17.4-11l-6.3-1.2zm-191.7-5.2c-12.4 4.4-26.4 17.6-28.6 31 8.6-10.7 15.8-14.9 28.6-16.1zm26.7 50.8c-3 4.9-10.4 7.2-15.4 9a124 124 0 0 0 103.5 28.1c16-3 30-9.3 44.6-15.8 5.4-2.4 8.4-5.1 14.4-6.4l-11-7.7c-2.5-1.8-2.3-2.5-3.4-3.1q-1.6-.9-2.7-.6c-.7 0-.7.8-1.2 1H357l-2-.6c-.6 0-.4-.1-1.9.6-8.5 3.6-16.7 7-25.6 9.6a110 110 0 0 1-34 5.1 105 105 0 0 1-47.1-11.4c-3.8-2-6.8-4.2-8.6-5.1s-1.5-.2-2.1-.2-1 .5-1.6.4-1.7-1-2-1.2c-.5-.2-2-2.7-2.6-1.7zM190 315c-2.3-4.2-3.3-6-3.5-10.8a48 48 0 0 1 3.1-17.5c-17.2 10.6-21.5 23.7-12.2 41.4zm28.5 27.1a12 12 0 0 1-2.2-5.2c-.3-1.1-.2-2.4-.6-3.4-.5-1.6-1.7-3.2-2.6-4.6l12.6 9.9zM198 325l-12 12.2c10 7.8 18.5 6.7 30.4 5.5q-1.6-3.4-2.5-7c-.3-1-.2-2-.6-2.9-.5-.9-1-2-2-2.4-1-.5-2.3.1-3.7-.2q-5.5-1.5-9.6-5.2m176.3 21.6c-1.3-2.3-2-3.6-.6-6.2l3-5.8c-6.3-.4-9.5 5.4-14.8 6.2 1.5 1.7 8.3 6 12.4 5.8m28.7-6.3-3.3 2.2-5.7 2.4-9 2-5.6.4-3.3-1.8-1.4-2.4.6-2 1.7-3.2 2.5-4.9 4.7-1.3s4.2-1.4 4.4-1.6l3.2-1.9zm11.2-12.5-11.7-13c3.1-9.3 4.7-17.4-1.5-27.3 19.1 7.6 23.5 22.8 13.2 40.3" id="path6"/><path style="fill:#e51662" d="m377.1 314.5 1.5-.3a17 17 0 0 0 13-12.4l.7-3.2V100H204.7v193.5q0 4 .6 7t2.4 6q2.7 4 6.2 6 3.5 1.8 8.2 2h55.4a25 25 0 0 1 21.1 12.1 24 24 0 0 1 17.1-11.6q1.9-.4 3.8-.4h55.8z" id="path14"/><path d="M326.1 162.6q.8 0 1.2-.5c1-1-.4-4.3-.8-5.4l3.2.8h1c.3.1.8.9 1.3.6 3.1-1.5 4.6.3 1.3 2.9v1.6l-2.5 1.3.3 1.2 2.4 1.1.6.3-.3.5-.5 1.3 27.3 24.3.5.5-.1.1q.2 1-.5 2.6c-.4 1.1-1.4 3-2 4.2s-1 2-2 3c-1 .8-3.3 2-3.9 2.3-.7.4-3.2 1.1-3.7 1.3s-3.8.4-4.2.2l-2-1.4-.5.2-2.3 1.7q-.8.9-1.5 1.2c-.5 0-.2-.7-.7-1-.5-.2-1.5.1-2.2-.5s-1.2-2-1.7-2.7-.8-1.3-1.6-1.6-2.3.1-3-.1-.6-.7-1.2-1.2-1.7-1.6-2.5-2-1.8.1-2.4 0c-.6 0-.6-.4-1-.6l-.2 3.5c0 .5.8.6 1 1.2q.5.9.9 2.4l.6 3.3.8 3.5q.6 1.6 1.7 2.9c.7.8 1.3 1.8 2.1 1.7s.5-1.6.4-2.1q0-.6-.5-1l-1.3-.4q-.7-.4-1.2-1-.5-.4-.4-1 .1-.8 1-1.2.6-.6 1.4-.4c.4.2.7 1 .9 1.3s-.1.5.2 1 1 2 2 2.2c1 .1 2.4-1 3.3-1.5 1-.5 1.5-1.1 2.4-1.8s1.9-1.8 3-2.4q1.8-1 3.7-1.1 1.6-.3 3.2 0l2.9 1.1q1 .6 1.3 1 .4.8.2 1.3c0 .3-.4 0-.6 0-.2.3-.3.3-.3.9l.3 2.6c0 .8.3 1.7.1 2.4s-1.2.9-1.4 1.4q-.3 1 0 1.7a6 6 0 0 0 1.3 1.8c.5.5 1.4.9 1.8 1.5q.6 1 .7 2.1a7 7 0 0 1 0 2.4q-.3.9-1 1.3-.6.8-1.7 1.5l-1.7.5-.1-2c-.1-1.3-.6-3-.7-4l.2-2.1c-.2-.5-.7-.2-.8-.6q-.2-.6 0-1.3c0-.4.5-.6.2-1.2s-1.3-1.3-1.7-2q-.5-1.4-.5-2.5-.3-1-.1-1.8c.1-.5 1-.7 1-1q0-.5-.6-.4h-1.5a97 97 0 0 0-7.4 6.5c-.9 1-.5 1-.5 1.4q0 .4.4.8l1 .9 1.4.8q.4.5.4 1.3 0 .7-.6 1.3-.4.5-1.2 0-.6-.6-1.1-1.4l-1-1.5q-.6-.4-1.1 0c-.5.2-1.2.9-1.7 1.3l-1.8 1.3q-.9.9-1.5 1.8-.3.8-.2 1.4l.6 1v1.2c0 .5.4.6.6 1.4l.4 2.9c.2 1.4.5 3.6 1 5.6q.6 3.2 1.4 6.2c.5 2 1.4 3.8 1.7 5.3.3 1.4-.2 2.5-.1 3.3 0 .8.4.8.6 1.3s.7.9.7 1.4c0 .6-.6 1-.8 1.6s-.6.9-.7 2v4.5l.8 7.9c.3 1.5.6.6.7 1.1.5 2.4-.8 4-1.3 6.1a4 4 0 0 0 0 1.8c0 .6.6 1.3.6 1.8s-.6.3-.6.6.4-.3.6.8.4 4.6.7 5.8.7.8.9 1.2l.5 1.3 1 1 4.7 2.8 1.3 1.3q.5.6 1.2.7t1.6-.1c1.4-.6 1.6-1.4 3.1-1.4.6 1.8 1.1 2.9.2 4.7a4 4 0 0 1-1.9 1.7q-1.2.6-3.3 1c-1.4.2-2.3.5-5.2.1-3-.3-10.1-1.4-12.4-2-2.3-.4-.8-.5-1-1l.2-1.3c0-.6.1-1.6.3-2.2l.6-1.7.6-2.4c0-.8.3-1-.4-2.3a50 50 0 0 0-8.6-10.8c-1.3-1.2-2.1-1.2-2.8-1.8s-.2-1.1-1-1.6-2.4-.5-3.3-.9c-.9-.3-1-.6-2-1.2l-3.8-2q-1.5-.9-2.5-2-1-1.3-1.4-3h-1.6l-2.3 3.6c-1 1.5-2.5 2.8-3.4 4-.9 1.4-1 2.5-2 3.9-.8 1.4-2.7 3.2-3.4 4.5s-.2 2.1-.6 3.1l-1.6 2.8a15 15 0 0 0-1 4l.3 4.4q.2 1.7 0 2.5c-.1.7 0 1-.8 1.2-.7.2-2 0-3 .1s-1.4.4-2.5.6c-1 .2-2.6.3-3.8.6-3.8 1-11.6.2-11.7-5.4q0-.8.6-1.2 2.7.9 4.5 0c.6-.4 1.2-1.2 1.7-1.5l1.7-.8c1.8-1 4.6-4.3 4-6.4-.2-1-1.6-3.5-1.9-4.4s.5-.7.2-1.5-1.5-2.5-1.9-3.3q-.3-1-.1-1.4c0-.5.5-.9.4-1.6s-.9-1.4-1.2-2.5l-.8-3.8c-.3-1.9-.8-6.5-1.2-7.8-2.5.8-27 4.6-34.1-3.8-1.5-1.6-.5-5.1 1.9-4.6.7.2 1.3 1 2.4 1.4a45 45 0 0 0 24.3.2l-3.8-2.7c.6-4.2 3.8-14.3 4.9-19 1-4.8 1-6.3 1.4-9.4l-1-.4c-.8-.4-2.2.1-2.8 0s-.3-.5-.7-.7c-.4 0-.7.3-1.4 0l-2.5-1.4q-.9-.4-1.5-1c-.4-.3-.7-1.1-1-1.4s-.3.4-.8 0c-.5-.3-1.5-1.7-2-2-.5-.5-.5 0-1 0-.3-.2-1-.4-1.2-.9q-.2-.8.4-1.6.3-.5.9-1t1.2-1.5c.3-.6.2-1.4.5-2.2.3-.7 1-1.6 1-2.2s-.7-.2-1-.6l-1-1.4.2-1.5.7-1.8q.4-.4.9-.5 1 0 1-1c0-.7-1.5-1.6-1.5-2.5s.8-1.4 1.5-1c.8.4 1.1 2.2 1.7 2.8s1.2.4 1.8.6l1.5.5q.4.5.3 1v1.5q.1.5.7.3l1.3-1 2.3-.2c.7 0 1 .6 1.6.7s.8 1.2 2.3 0 3.8-4.6 5.8-6.9l-2.3.3c-1.3.1-2.6 1.4-3.5 1.6-1 .2-.7-.4-1.6-.6l-4-.4c-1-.2-1.4-.6-2-.7-.5-.2-.7.2-1.1 0s-.7-1-.8-1.2-5.8-2.3-6.7-2.7c-1-.3-3.6-.9-4.1-1.5-1.7-2.3-3.4-4.3-4.5-7-.5-1.3-1.4-2.9-1.4-4.5 0-4.1 2.8-6.1 5.2-9 1-1 1.2-1.7 1.9-2.3s1-1 2-1.3c1.2-.5 3.4-.8 4.6-1.2l2.2-1a34 34 0 0 1-8.2-11 44 44 0 0 1-3-15l-.1-.7h1.3V136q-.6-1-1-3.2l-18-8.8h-.2v-.3l-1.2-2.4-7.9-3.6-.6-.3.3-.6 1.5-3 .3-.5.5.3 49.7 23.9q0-2 .4-4.2.4-3 1.5-5.1.6-1 1.3-1.3l.5-.3.8-1q1.3-1.5 3.2-2.7.7-.4 1.3-.5l.6-.2 1.2-.6q2.2-1.2 4.7-1.6 3.6-.7 7 1.1a9 9 0 0 1 2.4 2q.6.8 1.3 1.2a5 5 0 0 1 2.6 3.7l.1.1q.5.6.8 1.3l.4.8.4.4c.6.6 1.1 1.1 1.2 3.2v1.1c1.6-1.4 3-1.5 5.6-1l1.8.6c-4.8-1.2-6.5 4.2-8.1 3.5q-.3-.1-.8.7a13 13 0 0 1 .2 3.7q-.2 2.3-.8 4.6a18 18 0 0 1-1.6 4zm-47.9-23 1.5.7-.2-.8-.3-1.2-.1-.2zm79.3 56.5-.2.2zM347 199l-13.3-18.1c.5 3.7.5 7.6 1.3 11.1.2 1.2.3 1.3.6 1.7.4.4.8.3 1.3.6l1.6 1.3c.4.4.4.8.8 1 .4.3.7 0 1.6.4s2.1 1.7 2.8 2.7h.5a7 7 0 0 0 2.5-.5zm-60.2-48-11.6-5.7q-1 .4-2.3.4h-1.3c-1.1 2.6-.5 5.3-1.9 7.8l-.9-.5c-.5-.3-1.2.2-1.8-.1s-1.6-1.2-1.8-2q0-1.2 1-2.3 1.4-2.8 3.6-3.2l1.8-1 .7-.5-17.2-8.4q-1.7 1-2.7 1.2v3.6h1l.1.5c.6 6 1.3 10.2 3 13.8 1.5 3.6 4.1 6.5 8.5 9.8q.9 0 2.1-.8c1.4-1 2.9-3.7 4.8-4.9 2-1.2 4.8-1.4 6.4-2 1.7-.8 2.4-1.6 3.5-2 1-.2 1.9.4 2.6.2s.1-2.7 2-2.7l.3.1zm-11.7 26.6 4 2.8c.6.5.3 2 .5 2.3.2.4 1.7 2.4 1.5 2.8l-1.1 2c-1.3 2.4-1.5 4.4-4.5 4.5-.8 0-2-.4-2.6-.4-1.9-.2-1.6 0-3.3-1.3 1.5-3 5-6.5 3-9.6l-.6-1z" id="path15"/><path style="fill:#ffcb00" d="M344.4 201h1.5q.7 0 1.1-.3.4-.5.2-.8c-.5-.6-1.1.7-3.6.6q-.8 0-1.6.3-.8.6-1.4 1.4c-1 1.6.5 1.2 1.3 1.5 1 .4 1.6 1.6 2.6 2q.9.4 2.2.3t2.5-.5l1.6-.5h1.8c.5-.2 1.3-1.5 1.4-2 .2-1 .7-3.9.5-4.7q-.6 0-.8 1c-.3 1 0 2-.4 3.2q-.5 1.1-1 1.7c-.4.4-.6.2-.8.2q-.4.1-.4-.4l.5-1.8q.1-1.3.5-2.8l.5-2.2c-.4.2-.8.2-1 1.5q-.6 2-1.3 3.1l-.7 1.8-.6 1.6c-.4.4-1.3 0-1.3-.5q0-.6.3-1.3.6-.8 1-1.9l.9-2 .3-1.5q-.2-.5-.6 0l-.2 1.9c-.2.5-.2.4-.7.9l-2.2 1.9q-.9 1-1.3 1.7c-1 .7-1.2-1.8-1.4-2.2-.3-.6-1.7-.1-1-1 .4-.6 1-.3 1.6-.3" id="path25"/><path style="fill:#ffcb00" d="M357.1 198.4c0 1.8-.3 3.7-2 5.2q-1 .4-.2-1c1-1 1.6-2.9 2.2-4.2" id="path26"/><g style="fill:#ffcb00" id="g39"><path d="M300.2 154.8q.1-.5-.4-.8c-1.3-.6-3 .8-5 0-1.1-.4-1-1.4 0-1.4l3 .3.7-.3 1-.5q.9-.3 1.4-.7c.3-.3 0-.7 0-1q-.3-.3-.7-.3c-.4 0-1.1.4-1.5.3q-.5 0-.5-.4t.3-.9l.7-.3q.6-.2 1 0l.7.5v-.6l-1.9-.2q-1 0-2 .7c-2.2 1.5-2.4 4-5.4 3.3l-2.2-.4c0 .5-.3.9.2 1.6a10 10 0 0 0 2.6 2.3q1.5 1 3.5 1.5l3.4.4zm-3.6 4.6c-2.9-.1-4.7-1.2-7.3-2.1 1.4 1.8 3.5 4.4 4.6 5.5 1.1-.3 2.1-2.3 2.7-3.4m1.1 3.6-2.6 3.9c-3-1-5.3-5.2-8-7.9-1.5.2-3.1-1.2-4.7-1.9l-2.2 2q2.7 1 2.3 2.3c-3.7-1.5-4-1.6-7.8-.2-2.8-.5-3.3.4-5.6 2.2v2.1c-1.9.3-3.3.1-4.5 1.7.4 1 4 .7 3.6 1.7-.6 1.2-1.8.6-4.2-.3-2.4 1.6-3.2 1-6 1.6 4.8.3 4.8 1.2 6 2.2-2.5-.5-5.1-1-7.5.2 2.8 0 5.8-1 6.5 3-7.2-3.1-8.5-.6-10.5 3.5l-1.3-.6q0 2-1.1 2.1v3.4q-.8.4-2.3-1c.2 2 1.7 4.6 3.1 6q3.2 1 3.1 2-1.3.7-2.8.1c2.5 4.3 8.4 3.6 10.8 3.6l-.5 1.5 1 .2 5.7-5.4c-2.6-2.5-2.3-2.2-5.3-.2q-1.8-.1-2.2-1.3l.1-.9c2.5.4 4.4-2 7.1-.8 2.4-1 3-3.4 3.2-6-1.3-3.5-7.4-4.3-7.5-8.2.5-2 4.2 2 6 1.2q0 .8-.8 1.5c4.3-.7 1.9-4.8 4.6-6.2.6 2.4 0 4.4-.9 6.5 4-1.9 6.5-6.5 7.6-11.2 1.5 3.4-.8 6.3-1.7 9.4 1.6-1.6 3-2 4.8-2.8l1.1 1.3c-1.1 1.2-2.3 2.5-4.4 2.9l.7 1.4q-1-.2-1.7.7c2.4.6 3 1 3.2 1.8-1.6 3.5 3 4.6 2 6.9H283l.1.9c1.9-.2 2.8-.3 4.3-1.2 3-.2 4.6 3 7.5 3 .6 0 11.3.1 10.4-1.5-.2-.4-1.6 1-1.8.3 0-.8 1.5-1.6 1.4-2.4 0-.9-1.5-1-1.7-1.7-.3-.6.7-1.2.6-1.7s-1.1-.3-1.3-1c-.1-.5.6-1.4.5-2 0-.8-.8-1.2-.7-1.7 0-.6 1.4-.8 1.2-2.2 0-1.5-1-3.9-2-5.6l-1.3-.2v-3l-1-.3q.2-2-1.4-3.7zm-36.4 14.3c6 .1 2.5 1.5 3.4 2.2 3.9-.1 4.8 4 1.8 4.8-3 .9-1.2-.8-8.2-.5 1.2-2.6 6.9.7 8.6-2.5-1.4-1.8-5.3.1-3.3-2.7zm-3.3 9.2c-3.2-.4-4.9.2-6.3-.6.6-1.1 2.3-2.5 2.1-3.7s-1.5 1.8-2.2 2.3c-.4.3-1.6-.3-1.8.5 0 .8 0 2 1.6 2.3s4-.3 6.6-.8m7.7-14.7q.5 0 .6.5t-.6.5q-.6-.1-.7-.5t.7-.5m5.3 20.6c-.7.7-1.6 1.7-2.2 2-.5.4-.3-.4-.9.1s-2 2.2-2.4 3q-.4 1 .6 1.2c1.9.5 2.5-1.7 4.6.2.8-2.2 1.4-3.5 2.7-5.6q-.7.4-1.3.5-1 .1-1.1-.4zm5.5 4.4c.4-2 .7-2.3 2.4-3.6.4-.2 1.4-1.3 1.4-1.3 1-4.4 9.6-4 11.7-1.5-2 0-3.3-2-5.2-.5 1 1.7 4.3 1.8 5.3 5.5-.7-.6-5.9-5.5-5.2-2 2.3.8 3.6 1.8 4.8 4 0 .1-3-3.3-4.6-2.8-.6 1.2 1.6 1.8 3 3.2-1.5-.6-2-.7-3.6-.4q-4.6.8-6.2-1.2c-.6-.6-3.1.4-3.8.6m-4.3 2c.8-1.6 1.7-2.8 2.7-4.6-1.6.7-3.7 5.7-2.7 4.6m24.1-1.4c1-1 2.6-1.3 1.5-2.7q2.3-1.4 4.4-3.8c.6 1.4.7 1.4 4-.4-3.3 2.3-5.1 6-9.9 6.9M294 192c1-1.1 3.7-1.2 5.7-.8-1 1-3 3.8-5.7 2.2q1.6 0 2.5-.4c.5-.3.5-1.8-2.5-1m17.7-1.5q-1.5.4-3 0c-2.2 2.4-5.7 4-8 6.2 1.5.9 3.7-2.7 5.3-2l.2.7q.5 0 1-.4v-.6zm6.9 1.8c.3-.4-4.5-1.3-5.4-1.2-.8 0 2 .1 1.3.8-.8.7-3.7.8-4.2 2 2 .1 2.7.3 3 .7q0 .8-1.3 1c-.7 0-1.9-.7-2.6-.7-.6 0-1.8 1-.2 1.3 1.5.4 5.3 0 7.3.4 2 .3 2.2.6 3.7 1.2-.5-.7-5.6-4.7-4-4.3q.6 0 1.3.7.4-1.4 1-2zM306.2 248c4 10.7-6.3 22.6-9 25.7 1-2.5 0-2.2-1.2-.8-1.5 2-1.9 5.4-5.1 5.7.3-1.7 4.3-4.5 3.8-6.4-4.2 1.4-6 10.4-12.6 8.6-1-1.2.6-4.4-2.1-4-1.7-2.8-2.2-6.6-3.3-10 6.7 7 12.7 5 9.4 3.2 1.4-.8 2.5-2.2 2.3-3-2.2-.4-4.4 4.2-7.4 1 3.4-.8-.7-2.2-2-4.3 13 2.4 19.8 1 25.1-3.2-.3-2.9 1.2-7 2.1-12.5m-63.7 10.5q-5-3-4.3.3c1.4-1.6 1.6-.8 1.5 1.2l1.4 1c.4-.8-.6-1.6 1.4-2.5m1 2.9 1-.8-.4-.7zm5.3 1.9h-2l2 .9zm36.7 36 .6 3.7c-1.2 0-2-.2-3.7 0-1.7.4-4 2.2-6.2 1.8-2.3-.3-5-1.6-6.6-3.7 2.1.1 2.1-2.4 4.3-2.5s5.5 2.8 6.9 3c1.3 0 3.1-1.6 4.7-2.3m-6.9 2.4c0-.5-.7-.4-1-.4l-1 .4c-.4 0-.6-.4-.9-.3s-.7.7-1 .8c-.4 0-.4-.3-.8-.4-.4 0-1.4-.4-1.6 0s.7.9 1 1q.5.2.9 0l.6-.3c.2 0-.2.4.3.4s2 .3 2.6 0q1-.4 1-1.2m12.1-18.8c-1.1.3-2.7 1.2-3.6-.1-3 .5-6 .6-9-.5 2.2 7 7 3.8 7.6 2.3 2.3.5 4 .4 5-1.8m-2.2 3.8c-6.4.4-.6 2.4-6.6 1.2.1 2-2 .7-3.3-.4.8 2.7 4 1.6 4.7 4.1l-3.9-.4c4.3 4.6 5 1.2 5.7 3.3-1.6 1.5-3.5.6-6 0 2.9 1.7-1.6 2.2-2.4 2.1 3.6 3.4 6.9 6 8.8-2.5a14 14 0 0 0 3-7.4M273 261.9c-.5 2.2.8 3 1 4.5.3 1.5-.1 2.8.5 3.6 1 1.3 1.4 2.2 0 2.2l.8 3.8c3.2-1.5-.6 4.2 5.3 4.4-.5-2.5-1.4-1.1-2-2.2-.9-1.6-1.4-4-2.1-6.2-1.5-4.5-1.5-10-3.5-10.2m76.9 39c-2.2.6-4.6 3.6-7 4.8 3.9-1 6.4-.7 7-4.8m-9.3-2c-2.7 2.3-5 5.4-10 1.3-3.7.2 1.8 3-1.7 3 2.2.6 4.8.9 7 0 1.7 2.2 2.2 1.5 3.3 2.2 2.1-1 4.5-1.4 6.5-3.1-1.1-1.5-2.2-3-5-3.4zm-.7 4c-.5-.1-.4-.7-.8-.7q-1 0-1.6.4-.6.3-.2.8h1l1.6.6h1.7q.6-.2.8-.5.1-.4-.5-.6zm-5.3-23.3c-6.4 6-7.1 1.5-9.8 4.6 3.6-1 4.6 1.6 1 1.5-.4 2.6 2.8 1.8 2 4.2q.9 1.5 2.2 1.3c1.5-.2 2.2 1.6-.4 1.5.6.7-.1 2.7 1.7 3.1s3 2.2 0 1.7c-.9 2.7 4.3 4.5 6.5 1.6-.2-2.4-2.8-.2-1-3.5-1.4-1.5-3.3-1.6-1.6-4-.3-1.3-.5-3.1-1.7-4-2 0 .3-1.3.4-2 1-5-2.2-2.4.7-6m.6-21.3c-7.3 6.6-16.7 5.9-25 1.3 6.8 6.2 21.6 5.7 25-1.3m-30.2 12c1.2 2.6 3.2 4 6.1 5.4l.6-1c3.8.5-.2 3.3 8.4 3.5-2.7-1.4-4.5-3.7-7.5-3.8-2-1.3-5-2.8-7.6-4m27.2-6.5c-2.4.8-3 1-12 2.3 6.4.5 4.8 3 .6 2 2.2 1.7 4 1.2 3.8 2.9q-.2.6-2.8-.2c-2.7-1-5.8-4-9.1-4.8.7 1 1.3 2 4.8 3.8-3.3 2.4-5.8-2.4-9.8-9.6.8 7-1.4 4.2-2.4 4.2-2 3.1 2.8 4.8 4.3 7.2 1.2.3 2 1.2 3 1.4 5.2.8 8.3 2.3 5.2 2.3.5 2.2 5.4.7 4.9 2.5 1.6.3 2.8-1.1 4.3-1.7-1.7-3.2 3-2.9 3.3-.8-3.4 3.6-7.2 4.2-11.4 5.3 7.7 4.6 8.6-.5 10-1.5.3 1.4 1.5 2 2.2 2 1.3-.3 2.4-2.4 3.5-3.4.5.2.3.7.4 1a3 3 0 0 0 .3-3c-.5-.4-2 2.8-1.6-1.3-2.5.3.7-2.8-.6-6-.2-1.3-3.3 2.4-3.8 1.7-.9-1.4 4.2-4.3 2.9-6.3M317 204c-2-1.7-5-4.9-6.1-5.2l-1.6-.6c1.6 1.4 2.9 3 4.7 4zm-57.3 0c-.3 0-.5.8-.9.8-.3 0-.5-.7-.8-.5s.2.7 0 1.1-1.2.9-1.4 1.2q-.4.4 0 .5c.1.1 0 .5.5 0 .7-.4 2.5-2 3-2.5s-.1-.6-.4-.6m1.5 14.8 9.4-2.8c0 3.2-.8 5.4-2 8.4h-.9c-.3-.4 0-1.1-.5-1.1l-3.8-.1c.2-1.6 1.7-1.6 3.1-2.7.8-.6.8-.7.6-1.5l-2 .5c-1.7.2-2.4 0-4-.7zm-2.6-1.3c-1.7-.8-2-1.4-3 .2zm-1.8-3.1c1.1 0 2 .3 3.4-.1 4.2-1.4 6.6-3.4 7.6-7.6 4 1 5.9 4.8 1.3 6.7-1 .4-3.3.9-4.1 1.2-3.6 1.3-4.9 1.6-6.5.2-.5-.4-.9 1.2-1.1.8zm.7-2c3.7-.2 4.3-.8 5.8-2 1.5-1 2.3-3 2.8-4 .5 3.9-5 6.4-8.6 6.9zm6.4-4.5c-1-.3-1.7.2-2.4.6q-1.2.6-1.6 1.7 1.3 0 2.2-.5t1.8-1.8m-6.7-.2c.5.1.7 0 2.2-.8 1.4-.9 1-1.7 1.8-1.7s.3 1 0 1.5c-.5.8-1.8 1.5-2.7 1.7q-1 .3-1.7.2c-.3-.1-.1-.9.4-.8zm28.4-7.8c-1 .3-4 3.2-6 .7-1.9 1.6-2 3-2.8 5.3.1-.3 1.5-2.7 1.8-2.1 1 1.5-2.1 4.2-2.5 6q2.6-1.9 5-4.2l2.8-3c.8-1 2.8-3 1.7-2.7m20.2-1.4-12.4.2-1.5 1.3-2.2.3a84 84 0 0 1-16 14.8l-9.5 37 4.2 2.4c.5-6.7.2-13.4 1.5-20.1q.6 0 1 .2l-.4 8.4c.8-8 1.8-16 4.3-24l.9.3c-3 12.4-4 24.8-5.3 37.2 3.4 2.4 7.3 3.3 11 4.7q-5.2-.2-10.2-2.3c8.2 6.6 28.6 4.4 30.8 1.5-.2-7.9-5.3-11.7-8.3-15 8-14 14.2-33 12-46.9zm.8 16.4q.1 20.8-3.8 40.5c-1.9-3.5-3.8-7.7-7.5-10.4a98 98 0 0 0 11.3-30m1.2-4c.4 13.8-1.6 31.4.9 44.5.6-7.3 4.4-9 7.6-9.1-4.3-9.8-6.5-23.6-8.5-35.4m-.4-11.9c24.6 11.2 22.2 42.5 27 58.1-6.8 6.4-17.6 5.7-24.5.6.2-6.7 3.3-9.5 8-10.3a210 210 0 0 1-10.5-48.4m20.7 13.2q.5 0 .5.3t-.5.4q-.3 0-.4-.4 0-.3.4-.3m21.5 18c-.2-1.4-1-6.5.2-6.5 1.3 0 1 3.5 1.4 5.2-.5-.2-.6-2.8-1.3-2.5-1 .1.5 3-.3 3.8m.4-18.8c.8-.6-2-2.6-3-2-.6.5 2.3 2.5 3 2m-1.7 7c.9-.4 1.2-3.1 1-3.9-.5-.3-2-.2-2.2.2-.2 1.4.4 3.3 1.2 3.8m0-2.9q.4 0 .4.4 0 .3-.3.4a.4.4 0 0 1-.4-.4q0-.3.4-.3m-8-1c-.1-1 0-1.3-.9-1.7 2.6-2 5.2-3.8 8.4-1.4-1.6 0-3-.2-4.5.6q.3-1.4-1.3-.8c-.4.1-1.7 1.4.2 1.4zm-2.9-.1q1.5-.3 1.8 1l-3.5 3.5V218l1.5-1.7zm-8.2 9.8 3.4-1.7-3.3 2.9zm5.7-7.7c-2.6.2-2.8-.2-4.1-.9 1.8 3.5-.5 4-1.4 5.7 2-1.3 3.2-3.2 6.8.4-3.1-4-1.4-3.5-1.3-5.2m13.8-4.2q.4 0 .4.4 0 .3-.4.4a.4.4 0 0 1-.4-.4q0-.3.4-.4M338 223.5q.3 0 .4.4 0 .5-.4.5a.4.4 0 0 1-.5-.5q0-.3.5-.4m-25.9-24.7 9 7.3q-.1-1.6-.7-3c-.4-1-1.3-2-1.8-2.4-.5-.5-.7-.2-1-.4s-.7-1-1.2-1zm-44 59.2q-8.2 2.3-16.7 1.8c-.6 1.4-1.3 1.6-2.2 2.2q1.3.7 1.6 2a48 48 0 0 0 20.3-2.4zm-18.4 2-5.3-1.2q2.5 1.8-.1 3.6l1.6 1.3.4-.7-.5-1c.7-1.6 1.6-1.7 3.9-2m81.9-76.5-2.4-2H328c-3.1-1.1-4.4-2-6.8.5-1.8 1.2-1.8 1.8-1.8 3.8.5 1.8 1.1 3.1.2 4.8 1.7 2.3 2.1 3 1.7 5.9 3 2 4 1.7 7.7 1.6l.4.4.1 1c.9-1.1 1-1.3 2-.3v.7c-.9 0-1.6 0-1.6 1 5 0 4.5.5 6.2 5.4 2 1.2 3.5.1 4.6-1.3l-2-.9c-.5.6-.3 1.4-.3 2.2h-.5c-1.7-2-1.1-2.7.7-4.2l1.8-1.4 1-1 .1-.6q-.9 0-1.7-.3l-1.8.8c-1.5.8-2.5 2-3.6.6l.3-.8 1.7-.8.7-.6c-.8-.1-1.3.1-1.4-.8.8-.3 1-.3 1.8-.2-1.5-1.7-3.8-2.3-5.5-4l1.3-.9-1-1.4c-2-1.2-3-2.2-5.2-1.8-1.6 2.7 0 .3-1.6 2.3h2.1l.4 1.2c.2 3.4-1 3.1-1.5-.1-2.7.3-2.8 0-2.2-2.8l1.3-1.5c-1.6 1-3 1.2-2.5-.2.7-2.4 6.7-.4 9.4 0-2-3.6-6.4-3.4-10.8-2.3-1.8-1.5-1.1-1.8.6-3l3.2-.2v.9l1-.4.8-.4.4.4c1.6-1.3 2.3-.3 4 .7zM306.8 161c.3 1.9.5 4.9-.5 5s-1.7-.3-4-2.7c1.9 7.5 4 9.1 5.8 26l1.1-.8c11.4 3.8 5.2-2.4 8-6l-1.1-.1c0-2.3 0-5.8-1.2-8.3-1.5-3-2.6-5.8-2.3-8.9q1.3 0 1.9 1c-.9 1.3-.4 2.8.6 4 .2-.8-.1-2 .4-2.4q1.1 0 1.3 1.4c-.9 4 .7 8.6 1.8 12.3l.4-2.2c5.3-1.2 7.3-.8 11 1.4l.3-.6c-3.1-1.5-3.5-3.2.2-1.6-2.9-2.7-6.7-1.6-8.5-3-.3-2.3-2.3-4.5-3.4-6.7-3-4-7.3-5.4-11.8-7.8m21.7 14.8c-2-2-3.9-5.7-6.5-3.5 1 .8 2 2 3.2 2.5zm-28-18.8c-.3.2-.3.8 0 1 1 1.1 2 2.5 3.4 2.6.1-.1.3-1 .3-1.8zm1.2 3.4s-1.9-1.4-1.4-.7c.2.2 1 .7 1 .9q.4 0 .4-.2m3.8 1.7c-.4 1.4-2.3-.6-3.2-1.4l-.2.3 3.5 3zm-5.5-.8 1.2 3.6c0 .2-1.3 1.2-1.3 1.2l.5.6 1.5-1c-.5-1.7-.7-3.1-1.9-4.4m-6.5 2.7q.6.8 1 .5c1.4-1.4 2.3-3.4 3.3-4.6a30 30 0 0 1-3 5.2q-.3.2-.7 0a2 2 0 0 1-.7-1.1m3.5-22.8c-.2-1-.4-2.3-1-3-1.1-1.4-4 .3-5.2-.4l-1.4 3.5h-1l.3.5q0 .3.4 0c.5-.3 1.5-1.4 2-1.8s1.2-1 1.7-.8l1.1.4c-.8.4-2 1-2.5 1.7l-.8 1 .8.9.6-.8q.5-.4.7 0c.4 1.1.9 1.5 2.6-.5.4-.6 1-.5 1.7-.8zm6.8-5.2q.6-.8.6-2c-.1-1.9-.6-1.7-1.4-3l-1-1.8a10 10 0 0 0-4.5-2.4c-4.2-.9-8.8 1.1-12 4.2-4.1 4-4.2 8-3.4 10.7q.6 1.4 1.2 2.1l.3.4q.2-3 2-6.4a14 14 0 0 1 8.3-6.2q3.8-1 6.3.4t3.6 4m-4.3 9.8c1.3-2 .1-3.2-.7-5.2-1.2-2.8 2-4.2 2-4.2-4.8-7.1-14.4.2-14.9 7.3.1.5.6 0 .9.1q.4.3.6.8.2.7-.3 1c-.7.4-1.9-1.3-2.5-.7-.8.7 2.1 1 2.3 1.2.4.2.5.8.8.8.7 0 1.5-2 2.2 0 .4 1 0 2.2.4 3q.3.7 1 .6c2.9.2 3.4-2.7 4.2-3.5 2.2.2 1-2.2 2.7-2 .8 0 .9 0 1.3.8m0-20.3 1.2 1c-3.7-2-8-1.6-11.6.2a17 17 0 0 0-4.6 3.3 13 13 0 0 0-4.1 7.4l-.4-.6q-.9-4-.6-6.5.3-1.7 1.5-3.6l-.4 2q0 .7.8.8.7 0 .9-.7.3-2.5 1.3-4 1-1.4 2.6-2 1.6-.5 3.4-.2 3.2.4 6 2.4.6.3 1.1-.2.4-.7-.2-1.2-2.2-1.5-4.8-2.3 2.3 0 4.3 1.1c.4.2 3.3 2.8 3.6 3.1m-21.2 11.3a8 8 0 0 0-2 3.8q-.2 1.2-.8 2.4-.4.7-1 1c1-1.1 1-2.3 1-4.3v-1.1q0-2.4.4-5 .4-2.7 1.4-4.7.3-.5.7-.7l.4-.2-.6 2q-.4 2.8.5 6.8m-9.5 10.8c-2.2.4-2.3 2.3-1.5 4.2zm33-9.2.1-.1-1.2-.2q-1 .6-.7 1.8.5-1 1.8-1.5m-1.8 1.7q.3 1 1.2 2.7l1 2.2-.3.7 1.3 1.5q.7-2.7 1-5c-1 .2-1.5-.2-2.5-1.3-.4-.4-1.3-.4-1.7-.8" id="path32"/><path d="m331 161.8 1.4-1-1.5-2.1q1.4.3 1.7 2c.2 1 0 1-.8 1.1zm-77.3-6.3c1.7 3.8 4.2 7.2 8.3 11l1.7-1.6a25 25 0 0 1-8.4-9.8 44 44 0 0 1-3-13.6h-1.6c.5 5.9 1.3 10.2 3 14m-.3-20.2c.3-.8-2.6-1.4-2.6-1.4.8.9 2.2 2.4 2.6 1.4m104 59.2 1.9-1.5-26.6-23.6h-.2zm-112.9-69.7-1.9 3.2 3 1.6 2-3.4zm88 42.3-31.1-15-.4.6-.1.5 30.4 14.2.8.4zm-52-25-2.7-1.4v.3l-.4 1.2 4.4 2-1-1.7zm-6.4-3.2-.5-.2-.7 1.3 1.1.6zm-5.2-2.5-20.2-9.7-.9 1.6 20.3 9.5zm-25.5-12.2-19-9.2-1 1.9 19 9zm-11.4-2 .4.9 9 4.4.5-.6zm14.8 7.9 20.1 9.8.6-1-20.3-9.5zm24.8 12.1 1.7.9.6-1.2-1.6-.8zm4.6 2.3 10.8 5.2v-.9q-.4.3-1-.1l-.3-.5-.3-.3-.8-.3q-.9 0-1.5-1l-.4-.6-5.7-2.7-.2.4zm71.8 53.7-14.4-19.5h-.1l-10.3-10-16.7-9.4-6.2-3 .4-1.8 28.5 13.4 27.3 27.4-1.9 1.6c-1.7-1.8-2.5-.3-3.6.6-.3.3-.3-.9-.8-.8s-2 1.3-2.2 1.5M270 137l-2 3.5 2.5 1.2 2-3.5zm59 22.6c-.7-.2-1.3-1-1.3-1.5 0-1.8 3.6 2 1.3 1.5" id="path33"/><path style="fill:#000000;stroke:#000000;stroke-width:1.5;paint-order:stroke" d="m232.6 328.4.4-.7q1.2.9 1.6.8.6 0 1-.8l.3-.3.5-1q.1-.6-.5-1-.5-.3-1-.2t-.7.7l-.2.2v.2h-.3l-.2-.1-.5-.4-.8-.4h-.1v-.3q.8-1 2.2-.9a5 5 0 0 1 2 .8 4 4 0 0 1 1.5 1.8q.3 1-.2 1.8t-1.5.9l-1.3-.3h-.1l-.2.2q.2 0 .6.4.5.7.5 1.1a2 2 0 0 1-.2 1.7 2.4 2.4 0 0 1-3.4.6l-.5-.5-1-1-.2-.4h-.5l-.4.4v.2l-.2.2h-.4q0-.3-.2-.3l-.2-.1-.3-.1h-.2l-.1-.4.3-.5q.3-.6.9-.8.6 0 1 .2.3.1.5.5l.6.8.4.5.4.3q.4.3 1 0l.7-.8.1-.2.2-.2v-.2q.4-.6.2-1 0-.5-.6-.8zm9 .5-.9-.4.3-.5 3.3 1.9-.2.5-1-.5-1.6 7.8.7.4-.3.4-3.2-1.7.3-.5.8.5.7-3.2q-.9 1-2.1 1.7-1.4.8-2.3.3-.5-.4-.6-.8-.2-.5.1-1.2t1-1.1q.7-.6 1.5-1l1.6-1 .9-.4.8-.8zm-.8 3.5.4-2-1.1.6-.8.5-.9.6-1 1-.1.2v.6l.3.3q.6.3 1.7-.5.9-.6 1.5-1.3zm7.5.3-3 6.9.7.3-.2.5-3.4-1.5.2-.5 1 .4 3-6.9-1-.4.3-.5 7.8 3.5-.2.5-1-.5-3 7 1 .3-.3.5-3.4-1.5.2-.5.8.4 3-7zm9.2 2.7.2.3.1.3.3.5.5 1 .6 1.5q.2.9-.2 1.8a3 3 0 0 1-.8 1.4q-.4.5-1.3.8l-2.6 1-.3-.2-.6-1-.6-1.1-.4-1.4.2-1.6q.5-1.2 1.7-2 .7-.6 2-1l.4-.1h.2l.3-.2zm-1.3 1.3q-.6-.1-1.2.2a2 2 0 0 0-.9 1l.1 1.3.7 2 .5 1v.6q.6 0 1.1-.3t.9-.7v-.2l.1-.2-.3-1.5-.4-1.2-.4-1.1zm6 6.3-.7 2.7.9.2-.1.5-3.8-1 .1-.5 1 .3 1.2-4.3.2-1 .3-.8q.5-.8 1.5-1 .8-.4 1.8 0 1.5.2 2 1.2.7.9.4 1.9-.4 1-1 1.4-.8.6-1.7.3l-.4-.2-.5-.3-.2-.2zm.1-.7 1-.8.4.3h.6q.4-.4.6-1.2.3-.9.2-1.4t-.7-.7q-.8-.2-1.3 1l-.3 1.2zm5.1 4.9 1.7-7.3-1-.3.2-.5 3.8 1-.2.4-.9-.2-1.7 7.3 1 .3-.1.5-3.9-1 .1-.4zm6.5-2.1.1-.7q1.5.3 1.9 0t.6-1.1v-1.6a1 1 0 0 0-.7-.6q-.7 0-1 .2t-.5.9v.4l-.2.2h-.2l-.7-.2h-.9v-.2a2 2 0 0 1 1.5-1.7q.9-.4 2.1-.1 1.3.2 2.1.9.8.8.7 1.8t-1 1.3l-1.4.3-.1.1v.2l.6.3 1 .6q.6.7.4 1.7 0 1-1 1.5a3 3 0 0 1-2.4.2l-1.3-.5-.4-.2-.4.1-.2.6v.4l-.2.2h-.3q0-.2-.2-.2h-.8l-.2-.1v-.7q.2-.6.6-1t1-.3l.6.2.8.5.7.3h.4q.6.2.9-.3l.4-1v-.8q0-.6-.3-1-.3-.3-.9-.4zm9.6-3.3v.5h-1l-.3 2.9 1.3.9 1.2.4h.7q.3 0 .4.2l.1.6-.2 2.4q0 .6-.2.7h-.6l-6-.4v-.5h1l.6-7.4-1-.1v-.6zm-1.7 8h1.7q.4-.1.4-.6l.1-1.4v-.8l-.5-.3q-.4 0-.7-.3l-.7-.5zm7.8-3.8h.5l.2-.3.2-.4.2-.5 1-1.8q.7-.9 1.5-.8h.6l.5.2-.3.7v1h-.3l-.4-.2-.4-.1h-.3q-.6 0-2 2.4a5 5 0 0 1 2.3 1.1q1 1.2 1 3.1h.8v.5h-3.4v-.5h.5q0-1.7-.3-2.6-.5-1-1.9-1.3v3.9h.7v.5l-3.7-.1v-.5h1l.2-7.5h-1v-.6h3.7v.6h-.8zm8.4-3.4h-1v-.5l3.9-.2v.6h-1l2.5 7.6h.9v.5l-3.6.1v-.5h.8l-1-3.2a7 7 0 0 1-.9 2.6q-.8 1.4-1.8 1.4-.6 0-1-.3-.4-.4-.4-1l.2-1.6.7-1.6 1-1.7.5-.8q.3-.5.3-1.1zm1.1 3.3-.6-1.9-.6 1-.5.9-.5 1-.3 1.3v.3q0 .3.3.5h.4q.7 0 1.3-1.2.5-1 .5-2zm11.2-5h.2l.3.3.5.4 2.2 1.5q.6.8.7 1.7v1.7l-.7 1.3-1.1 1.5q-.5.6-.8.7h-.3l-1-.7-1.1-.7q-.7-.4-1-1-.5-.7-.7-1.5-.1-1.2.5-2.6.4-.9 1.3-1.7l.3-.4.1-.1.3-.3zm-.6 1.7q-.6.2-1 .8l-.2 1.2q0 .6.7 1.2.4.5 1.6 1.3l.9.7.3.5.9-.8.3-1v-.5l-1-1.2-1-.8-.9-.7zm4.4-2 4.2-.9 1-.3.8-.3h.3l.1.4v2.2q0 .3-.3.3t-.3-.2l-.1-.2q-.6-1-1-1.2H317l.7 3q.4.4 1.3.5h1.4l.6-.2h.6l.3.7.5 2.3v.7l-.6.3-6 1.3v-.5l1-.2-1.6-7.4-1 .2zm4.5 7.3 1.5-.3q.3 0 .3-.3v-.7l-.3-1.3-.1-.4-.6-.2-1.6-.7zm8.5-2.2.8-.2-1.5-2.6-1-2-.5-1-.2.5-.2.8-.2 1.4v1.7l.4 1h.3l.3.1.3 1v.4h-.3l-.2.1h-.5l-.2.2h-.4q-.3.2-.4 0l-.2-.2v-.4l-.2-1.4.3-2.2.5-1.7.2-1.4v-.8l-.1-.2h-.4l-.7.2-.2-.5 4-1v.5l-.6.2a28 28 0 0 0 3.1 6l.4.8 1-.2v.5l-3.4.9zm4.2-9.4-.8.3-.2-.5 3.6-1.2.1.4-.9.4 4.7 6.5.7-.2.3.4-3.5 1.2-.2-.4.9-.3-2-2.8q.2 1.5 0 2.8-.5 1.5-1.4 1.8h-1q-.5-.2-.8-.9l-.2-1.5.2-1.8.4-1.8.3-1v-1q0-.3-.2-.4zm2 2.9-1.1-1.7-.3 1.2-.2 1-.1 1v1.4l.1.3q.2.3.4.3h.4q.8-.1.9-1.5zm11.1-5-3 1.2-.2-.5.5-.2q-.4-1-1-1.5-.5-.2-1 0t-.8.8q-.2.9.4 2.2.2.7.6 1.3l.8 1.3 1 1.6v.7h.3q.6-.4 1-1.4l-.2-2.2-.1-.3-.6.2-.1-.4 3-1.2.2.5-.5.2q.5 1.4-.4 2.9a4 4 0 0 1-2.7 2.1h-.4v-.1l-.4-.7-1.2-1-1.6-1.1-.5-1a4 4 0 0 1 0-3q.6-1.5 2.1-2 1.6-.4 2.8 0 .8.5 1.3 1.4l.5-.2zm5.5 3-3-7-.4.3q-.7.3-.8.5v2.1l-.1.3q-.2.2-.4 0l-.2-.3-.2-.5-.3-.4-.5-.4-.3-.4v-.3q0-.2.3-.3l.7-.2.9-.3.4-.1 3.3-1.5.5-.1.8-.4.6-.5h.4l.3.2v1.7l.2.5.1.3q0 .3-.2.3t-.4-.2l-.5-.5q-.5-.8-1-.9h-.6l-.3.2-.5.2 3 7 1-.4.1.4-3.6 1.5-.2-.4zm6.2-11.4.2.4-1 .4 1.2 2.8q.6.3 1.6.2.8 0 1.3-.3l.4-.2h.7l.3.4 1 2.2q.2.5 0 .8l-.4.3-5.6 2.4-.2-.5 1-.4-3-7-1 .5-.1-.5zm2.2 7.8 1-.5q.4 0 .5-.3.3-.2 0-.6l-.5-1.4-.1-.3-.2-.3h-1.4l-.8-.1z" id="path34"/><path d="m295.8 386.8 2.3.8q1.2.3 2.2.1l3.3-.9-1 2q-.6.9-1.5 1.4t-2 .2c-.7-.1-1.2-.7-1.8-.8l-2.1-.3-1.5-1.9.7-.6zm87.9-71.7 20.8 24.2 2 1zm32 22 3.4 3.3-.6.4zm1-2.2 3.3 3.4-.7.3zm1.1-2.5 3.3 3.3-.6.4zm2.6 19 1.9-.9 1.3-1.6.7-1.4-1 2.8-1.5 1zm2-3.8-2.8-1.4-.8.5.4 3.7 1.7-.9zm-11.2-6 3.3-2.7 2.6 2.7-.3 1-1.5.3-1 1v.8zm1.6-5.1-23.6-26.2q-1 1.3-2.4 2.2l16.8 19.1.2 1.2-1-.4-17.3-19 22.9 26.1c2.7.4 4.6-2.9 4.5-3zm1-1.2-23.3-26.5-.6.7zm-8.3-12.6-10-10.9-.6.6 10 10.8zm-200.9-17.5-37.3 38.3 2.8-4.1 33.8-36.1zM173 346.5l34.7-36.5.9 1-27.6 28.4zm-4 .6 37.4-38.8.5.8-36.8 38.2zm-.9-1.3 1.2-2.5 35.6-37.5.8 1.6zm138.6-22.5h.7v10.6h-.7zm-14.8 47.1h-.6v-11.1h.6zm4.6-43.2.3 2h.7v-.2l.2.2 1 1.8.8-1.8q2.4-4.6 6.2-7.6l-.4 12.5q-4.5.4-9.3.3h-1l.2-9 .5.7zm8 31.7-.3 12.6-1.3-.3v-4.9h-.8l-.1 1-.5 1.2v1.3l.2 1.7-1.8.9-1.8-.3-1.4-.5-.2-12.3zm-9.5.5v1.3l.2 10.8H294v-4.9l.6-4-.2-3.3zm-2-36.5v11.4h-.5v-11.8zm-1 50 2.1 1.2 3 .2 4-.3 3.8-1 .3 6.2-.4-4.2-.6-.9-.9 1.4v5.3l-2.8.4H298l-2.7-.7-1.6-.5v-4.7l-.4-1-.8.9v3.7h-.7zm-3.8-2.6 2.7 2-.9.5v2.8l-.7-.1v-3.3l-.6-1-.8.1s.5-.7.3-1m14.7 14-1-1.1h-4.1l-1.3-.5-.9 1.5-.3 1h5.3z" id="path35"/><path d="M349.9 90.3c8.4-1.5 18.3 5 21.7 4.6 2-.2 3.6 0 5.3-.5 6-1.8 9.1-7.1 13.3-11.4 6.4-6.6 12.2-9.2 21-7.2l-3.5 1.2-1 .7.6 1c.7-.4 1-.8 2.1-1 4.8-.7 9.5.3 13.1 3.6q1.7 1.6 2.7 3.3c.7 1.2 1.5 2.7 1.7 3.6.3.8-.5.6-.5 1.2q.1.8.7 2c1.3 2.5 2 3.6 2 6.7a27 27 0 0 1-3.2 12.5c.7-3.7 1.8-7.6 1.8-11.5-.1-3.4-1-7.2-2.5-10.4q-1-2.1-2.3-3.5c-1.3-1.5-3.8-3.4-5.9-3.4h-2.6c3.3 1.6 6.5 3.5 8.5 6.7a23 23 0 0 1 2.6 15.4l-.8 4.6c0-1.8.7-3.7.3-5.5l-.7-3.7-.7 5.3c-.3 1.9-.2 3.6-.7 5.9q-.8 3.3-2.3 7.4c-1 2.8-2.5 6.5-4 9.5l-4.3 8.7-4 7.8c-.8 2.1-1.2 3.3-1.5 5-1.1 6.9 2.4 13.1 5.1 19.2-4.8-5.6-9-10.3-8.8-18.2l.1-7 .6 2.4 1.4-6c-.1 2-.6 4.1-.4 6.2l.6 4.4q.4-3.7 1-7c.5-2.4 1.2-4.2 2-6.6 1.9-6.2 4.1-10.4 7-16.1a41 41 0 0 0 5.1-23 93 93 0 0 1-6.6 20.5c-3 7-6.7 13.5-9.6 20.5l-3 5.1-.2-1.2-1.4.5q0 1.9-.3 4a65 65 0 0 0-1.5 21.1q.7 4.1 1.5 7.6l1.4 7c.3 2.2 1 4.2.7 6.3l-.5 4.3-1-6.2a59 59 0 0 0-3.7-9.5q-.8-1.5-2-3v-43a15 15 0 0 0 4.3-8.4q-2 2.2-4.2 4.3V98h-5.6l.7-2 1-2.4-2.5 2.3-1.4 2.1h-1.7l.3-.4.7-2.3-2.3 2.5-.2.2h-8.3v-.4l1-1-.8-1.1-2.3.7c-1 .1-2.6.2-3.9 0-3.7-.4-9.7-5.7-19.2-5.8zm93-40.6q-2.5-.5-4.3-.3a3 3 0 0 0-1.7.8q-.6.6-.6 1.7t.8 2.9q1 2 .8 3.7l-.5 1.2q.2-.4.6-.6a3 3 0 0 1 2.1-.5l1 .2c1.7.4 3.8.8 5.3.5 1.3-.3 2-1.2 1.6-3.8l-1-3.3c-.6-2.1-.6-2.3 1.2-3h1q.6.1 1.6-.4 1-.8.8-1.8a3 3 0 0 0-1.2-1.7q-1-.6-2-.5t-1.4 2l-.2 1q-.2 1.5-1 2c-.6.5-1.3.3-3 0zm-28.3 21.5-.9 2.6h.1l1.8-1.6-.8-1.5zm.7 3.5.4.2 1.2.7-.7-1.8zm3.6 2.1 1.6 1 .6-.4-.5-2.4-1.8 1.5zm4.2 3 .6.6 1.4-1-.2-2.6-2 1.3zm1.7 1.8.4.4v-.6zm2 1.7q1 0 2-.5v-3.4l-2 1zm3.7-1.4 2-1.6.2-.1-.1-2-2.1.6zm3.8-3.5.3-.6h-.4zm1-2.4.2-2.3-1.8.2.4 2.3 1.1-.2m.2-4-.1-1.8v-.5l-2.8.3.2.5.6 1.8zm-.3-4v-2.4l-4.4.5 1.2 2.4zm.3-4v-.6q.5-1.6 1.5-3.2-.6.7-1.7 1.3c-2.2 1.3-4 1.4-6.4 1.8l1 1.3q2.4-.4 5.6-.6m-13-1.1q-1 0-1.7.3l.5.6.5-.2 1-.4zm-3.2 1q-1.2.6-1.9 1.4l.3.4 2-1.2zm9.7 2.6-1.7.5 1.1 2.2 1.9-.4zm-3.3 1-1.7.7 1 2.2h.1l1.7-.7zm-3.1 1.5-2 1.3.8 2 2.1-1.2zm-3.4 2.3-1.6 1.3.7 2.1 1.8-1.4-.2-.5zm-2.4-.3 1.6-1.2-1.1-1.8-1.5 1.2zm3-2.2 2-1.3-1-1.6-2.1 1.2zm3.4-2 1.6-.7-1-1.5-1.4.5-.2.1zm3.2-1.3 1.7-.5-1-1.3-1.6.4zm-3.8 10.8 2-1.2-.5-2.2v-.2l-2 1.3zm4.1 2.3 2-1-.3-2.4-2 .8zm-.5-4.3 1-.4 1-.3-.8-2.3-1.6.6-.3.1.2.4zm4.2 2.8 2-.5-.3-2.4-2 .5zm-.7-4 2-.5-.5-1.5-.2-.8-2 .5.3.9zm-25.3 5-3.5 1.6-3.1 3.6zm-2.6 62.4 2.3-4.2 3.5-7.5 3.6-7.2c1-2.1 2.2-3.4 2.4-5.4l.5-3.7-2.1 5.8c-.8 1.8-1.9 3.1-2.7 4.7a126 126 0 0 0-6.3 13.7zm-3.7-5.4 2.4-6.3 1.2-2.4 1.6-3-2.8 3.6q-1 1.6-1.4 3c-.4.8-1.2 1.5-1.1 2.4zm29.7-12-1.3-2q-.6-1.4-.8-3l-.3-4.3-.8 2.8c-.3.9-1 2.1-1.1 2.9s-.4.9 0 1.4a5 5 0 0 0 2 1.3z" id="path36"/><path d="M306 92.8h-9.3l.3 1.4-.1 1-1.2-.3-.7-1.7-1-1 .5 2.2 1.2 1.3 3.5 1.3 3.9-.2 3-.5 1.5-1.6.6-1.6-.9-.2-1.2 2-1.6 1.8-.2-1zM295 91l1-1.5.3-2.2.8-.6.2-3.5.5 3.5.8-2 1.2-1.7 1-.3.9 1 .6 2 .7 1.6.3 1.6.5.7.7-.4v-1.5l1.2 2.2.3 1.5z" id="path37"/><path d="m198 76-.1-.3-.3.2.2.3zm18.6 22-.8-1-.4-.5.4-.6a7 7 0 0 0 1.6-5.2 7 7 0 0 0-1.6-3.3q-1.3-1.5-3.2-2.2-3.1-1.4-6.5.3l-1.3.6v-1.4q.3-3 .8-5.1.5-1.9 1.8-4.2l-3-3.4q-1.5-2-3.4-3.8l-.5-.6.5-.6q2-2 2.8-4.1 1-3 0-6a14 14 0 0 0-7.6-8q-1.8-.6-3.7-.6-3 0-5.3 1.4a8 8 0 0 0-3.9 6.3v2l.3.9q.5.8 1.8 1.2l-.5 1.5q-2-.6-2.8-1.9-.5-.9-.5-2.3l-4.3-1.2-2.8 1.2a13 13 0 0 0-6.7 7l-.3 4q1.9.2 2.9 1 1.2 1.2 1.4 3l-1.6.3q-.2-1.4-.9-2t-2.7-.7c-5.9.8-9 3.6-10 6.9a10 10 0 0 0 .2 5.5 12 12 0 0 0 3 5c3 3.1 7.8 4.7 13.2 2.6l.6-.3.3.5 6.7 8.5c4-1.5 5.7-1.3 10-.7h.2l1.2.2-.6 1a8 8 0 0 0-1.5 6.3 6 6 0 0 0 4.4 4.3q2.8.7 6.1-1.4l.6-.3.5.5 1.2 1.4v-6l-5.1-6-.3.2c-3.2 2-4.2 4-4.1 5.7q.2 1.7 1.7 2.6 1.6 1 3.2.4c1-.4 2-1.6 2-3.7l1.7.1q-.5 4.4-3.1 5.1-2.4.9-4.6-.5a5 5 0 0 1-2.6-4c0-1.8.9-4 3.7-6.3l-.3-.1c-5-2.6-6.5-3.4-12.3-1.6l-.6.2-.3-.4-7-8.7a13 13 0 0 1-8 1.5q-2.9-.6-5.2-2.5a8 8 0 0 1-2.6-5v-2q.3-1.4 1-2.4 1.2-1.6 2.9-2.4t3.5-.5l.7.2.2-3.6.9 4.1q1 .7 1.5 1.6.9 1.4.8 2.6a4 4 0 0 1-.7 2.2q-.3.6-.8.9l-.3.1.2.5h.9l1.4-1 2.5-2.2-.9 2.2.6-.6 2.7-2.5-1.3 3.4-.1.2.7-.7 1-1 .3 1 .8-.7.4-.4.5.2 2.3.8 1.3.6-1.1.8-1.4 1.2q-1.6 1.4-3.3 2.5l2.9 3.6q0-.7.6-1.4l.5-.4c-.9-.8-1.9-2-.5-3.3.9-.9 2-2 3.4-.6l.5.5q.7-.8 1.6-1.1l-3.9-4.6h-.1l-.5-.1q-.3 0-.8.6l-.5.5-1-1.3.4-.4.2-.2h-.9l-.7.5-.5.5-1-1.3q-1.1.2-3.3 1.3l-.7-1.5c2.3-1.1 3.7-1.7 5-1.7q1.1 0 2.2.4l-3.1-3.7-.3.7v.1l-.2.2-4.6 3.6-1-1.3 4.4-3.5.1-.4v-.4l-.4-.3-.7-.2.2-1.4-4.5-5.3-.5-.6.6-.5 6.6-5.6.6-.5.6.6 4 4.8.4.4h1.8v.7l.2.4.4.1h.5l4.2-3.7 1.1 1.3-4.4 3.8-.1.1h-.2q-.6.3-1 .2l3.4 4q-.3-1.4 0-2.4c.2-1.4 1-2.6 2.5-4.7l1.3 1q-1.4 1.9-2 3l.2-.1 1 1.3-.5.4-.7.6v.5l-.1.4.3-.2.4-.3 1 1.2-.5.5-.7.6v.8l3.9 4.6q0-.4.6-1l.6-.5c-.8-1-1.2-1.9-.1-3 .9-.9 2-2 3.4-.6l.6.8q.8-.9 2-.9l-2.8-3.3q-1.4 1.5-3.2 2.8l-1.3 1.2-1.1 1-.3-1.5-.4-2.4-.1-.5.4-.3 1-.7-1-.5 1.1-.8.9-.5h-.2l-3.7.8 3-2.3.7-.4-2.3.4 2.5-2 1.4-1.2v-.9l-.3-.3-.2.2q-.4.5-1 .7a4 4 0 0 1-2.3.3q-1.3-.2-2.4-1.2-.8-.7-1.3-1.9l-3.9-1.6 3.5.5v-.8q0-1.7 1.1-3.3t3-2.3q1.1-.6 2.5-.6l1.9.3q3 1 4.5 3.5a11 11 0 0 1 1.4 5.6q0 1.8-.6 3.5-.9 2.4-2.2 4l7.2 8.5.3.4-.2.5c-2.8 5.5-2.4 7-.8 12.4l.1.4q4.1-3.4 7-2.5a5 5 0 0 1 3.4 3.3q.8 2.4-.4 4.5-1.2 2.3-5 2.2l.8 1zm-20.9-18 2.4 2.8q-.3-1 .5-1.6l.7-.5q-.6 0-1-.3-.2 0-.5-.3l-.6-.7q-.7.5-1.5.6m5.8 6.8 1.8 2.2q-.9-3-1.2-5l-.3 1.8zm.7-4.9q.1-2.2 1.9-5.5l-1.7-2q-.1 1.4-1.3 2.2.7.8.7 1.6-.2 1.6-1.7 2.3a2 2 0 0 1 2 1.4zm-4.9-8q0-.4-.7-1c-.4-.5-1.1.3-1.4.6q-.2.4.4 1.2 1.2.6 1.7-.8m-1.7 2.4-.9.7c-.3.4.2 1.5 1 1.5 1 0 .8-.6 1-1.2q-.2-.9-1.1-1m2.6 1.7c-.1.5.4 1.2 1 1.2q.8.1 1.1-1 0-.4-.7-1c-.4-.5-1.3.3-1.4.8m1.4-2.5q1.2.1 1.4-1 0-.4-.7-1.1c-.4-.4-1.1.4-1.4.6-.3.3 0 1.2.7 1.5M181 92.2l1.6 2a17 17 0 0 1 5.8-.9l-.8-.7a2 2 0 0 1-.2-1.3c-.7.8-2 1.4-3 .8l-.4-.4-.4-.4q-1.1 1.3-2.6 1zm9.5 1.5q2.1.6 5.1 2.3l.4.2-2.2-2.6zm0-4-2.7-3.1q-.2.8-.8 1.3 1 1 1 2v.2q0-.2.4-.5 1-.6 2 0m-6.7-1.8-.3-.3-.3.3.3.3zm1.3-.8h.6q.7-.1.7-1 0-.4-.7-1c-.4-.5-1 .3-1.3.5-.3.4 0 1.3.7 1.5m1.4 2.7q0-.4-.7-1c-.4-.5-1.1.3-1.4.6s.2 1.5 1 1.5q.8 0 1-1.1m-5.2-2.7h.6q.7-.1.7-1 0-.4-.7-1c-.4-.5-1 .3-1.3.6s0 1.2.7 1.4m1.4 2.7q0-.4-.7-1c-.4-.5-1 .3-1.3.6s.1 1.5.9 1.5q.8 0 1.1-1.1M195.1 60l.4-.1 1.4-.4-.3-2q0-1.5.4-3l.3-1a6 6 0 0 0-3.8-1.5q-1 0-1.9.4-1.3.6-2.2 1.8-.8 1-.8 2.3 0 .6.2 1.1l1.2.2.2-.5.7-.9q1-1 2.4 1.1l.5.7.3-1.2q0-.5-.2-.9l-.5-.4q-.6-.1-1.9.3l-.6-1.6q2-.7 3-.3 1 .5 1.4 1.2.4.8.4 1.7 0 1.5-.8 2.8zm-4.5-.4.7.3q.8 0 1.3-.2.3 0 .5-.3l-1-.8q-.3.9-1.5 1M168 82.1q-1.5.6-2.8.3-1 0-1.6-.6t-1-1.6q-.2-1.2.9-3l1.4.9q-.7 1.2-.6 1.8l.3.6.9.3h1.2l-.6-.6q-1.8-1.8-.7-2.6.5-.4 1-.5l.6-.2v-1.2l-1-.4q-1.2-.2-2.5.4t-2.1 1.8q-.6.9-.8 1.8a5 5 0 0 0 .8 4l1-.1q1.6 0 3 .2 1 .1 2 .6l.6-1.3.2-.4zm0-1.8.4-.4q.3-.5.4-1.3l-.1-.7q-.3 1-1.4 1.3zm37.4 11.1 4.2 5 .2-1.2q3 .3 4-1.3.8-1.5.2-3.2-.6-1.6-2.3-2.2c-1.5-.4-3.7.3-6.3 3zm-5.7-31.7-.2-2.2a5 5 0 0 1-.8 2.7l.1.4-.7.3-1.6.4v.7l3-.7q.3-.7.2-1.6m-.2 2-2.3 1.7-.7.5.6-.1 1.8-.4zm-6.3 8.3q3-2.2 4.8-5l-.3.2-3 2.2.9.5-1.1.7-1.7 1.2.1.4zM165 86.2a9 9 0 0 0 3.8.8l1.2-3h-.7l-.7 1.4-.4.7-.4-.2a5 5 0 0 1-2.8.3m4.2.8 1.7-.3.7-1.7.2-.5-.5.5zm3.6-.9q3-1.3 5.7-3.8l.3-.2-.5-.2-1.4 1.4-1 1-.3-1-2.6 2.6zm3.8-31.3V54l-1.7 1.4zm-3.2-.2-2.3-.2-.8-.1v-.8q.1-2.2-.5-3.3t-1.4-1.2q-.8-.3-2 0-1.6.5-3.2 2a4 4 0 0 0-1 2.6q0 .8.4 1.4.3.6.9.9 1 .4 3-.2l1.4-.5-.2 1.4-.8 3.2zm-7.6 8.2.8.5 1.1-2zm37 38.7v-3.6h6l-4.8-5.8-5.3 4.5zm.1-10.6-.4-.6-5.4 4.5.5.6zm-1.5-1.8-1.7-2-5.3 4.5 1.7 2zm-2.7-3.2L191 77l-5.3 4.5 7.4 8.8zm-8.5-10-.3-.4-5.3 4.5.2.3zm-1.4-1.7-.4-.5-5.4 4.5.5.6zm-1.5-1.7-.5-.7-5.4 4.5.6.7zm-1.6-2-5.8-6.8-5.4 4.5 5.9 6.9zm-6.9-8-.3-.4-5.3 4.5.3.4zm-1.3-1.6-1.4-1.6-5.3 4.5 1.3 1.6z" id="path38"/><path d="m198 76-.1-.3-.3.2.2.3zm-6.9 15.8c-.6.2-2 .2-2 0-.3-.2 0-.9.3-.7.4.2 1.5.5 1.7.7m9.4-7.5v-2.1c-.2-.2-1 0-.8.3.2.5.6 1.6.8 1.8m16.2 13.6-.8-.9-.5-.5.4-.6a7 7 0 0 0 1.6-5.2 7 7 0 0 0-1.6-3.3q-1.3-1.5-3.2-2.2-3.1-1.4-6.5.3l-1.3.6v-1.4q.3-3 .8-5.1.5-1.9 1.8-4.2l-3-3.4q-1.5-2-3.4-3.8l-.5-.6.5-.6q2-2 2.8-4.1 1-3 0-6a14 14 0 0 0-7.6-8q-1.8-.6-3.7-.6-3 0-5.3 1.4a8 8 0 0 0-3.9 6.3v2l.3.9q.5.8 1.8 1.2l-.5 1.5q-2-.6-2.8-1.9-.5-.9-.5-2.3l-4.3-1.2-2.8 1.2a13 13 0 0 0-6.7 7l-.3 4q1.9.2 2.9 1 1.2 1.2 1.4 3l-1.6.3q-.2-1.4-.9-2t-2.7-.7c-5.9.8-9 3.6-10 6.9a10 10 0 0 0 .2 5.5 12 12 0 0 0 3 5c3 3.1 7.8 4.7 13.2 2.6l.6-.3.3.5 6.7 8.5c4-1.5 5.7-1.3 10-.7h.2l1.2.2-.6 1a8 8 0 0 0-1.5 6.3 6 6 0 0 0 4.4 4.3q2.8.7 6.1-1.4l.6-.3.5.5 1.2 1.4v-6l-5.1-6-.3.2c-3.2 2-4.2 4-4.1 5.7q.2 1.7 1.7 2.6 1.6 1 3.2.4c1-.4 2-1.6 2-3.7l1.7.1c-.2 3-1.5 4.5-3.1 5.1q-2.4.9-4.6-.5a5 5 0 0 1-2.6-4c0-1.8.9-4 3.7-6.3l-.3-.1c-5-2.6-6.5-3.4-12.3-1.6l-.6.2-.3-.4-7-8.7a13 13 0 0 1-8 1.5q-2.9-.6-5.2-2.5a8 8 0 0 1-2.6-5v-2q.3-1.4 1-2.4 1.2-1.6 2.9-2.4t3.5-.5l.7.2.2-3.6.9 4.1q1 .7 1.5 1.6.8 1.4.8 2.6a4 4 0 0 1-.7 2.2q-.3.6-.8.9l-.3.1.2.5h.9l1.4-1 2.5-2.2-.9 2.2.6-.6 2.7-2.5-1.3 3.4-.1.2.7-.7 1-1 .3 1 .8-.7.4-.4.5.2 2.3.8 1.3.6-1.1.8-1.4 1.2q-1.6 1.4-3.3 2.5l2.9 3.6q0-.7.6-1.4l.5-.4c-.9-.8-1.9-2-.5-3.3.9-.9 2-2 3.4-.6l.5.5q.7-.8 1.6-1.1l-3.9-4.6h-.1l-.5-.1q-.3 0-.8.6l-.5.5-1-1.3.4-.4.2-.2h-.9l-.7.5-.5.5-1-1.3q-1.1.2-3.3 1.3l-.7-1.5c2.3-1.1 3.7-1.7 5-1.7q1.1 0 2.2.4l-3.1-3.7-.3.7v.1l-.2.2-4.6 3.6-1-1.3 4.4-3.5.1-.4v-.4l-.4-.3-.7-.2.2-1.4-4.5-5.3-.5-.6.6-.5 6.6-5.6.6-.5.6.6 4 4.8.4.4h1.8v.7l.2.4.4.1h.5l4.2-3.7 1.1 1.3-4.4 3.8-.1.1h-.2q-.6.3-1 .2l3.4 4q-.3-1.4 0-2.4c.2-1.4 1-2.6 2.5-4.7l1.3 1q-1.4 1.9-2 3l.2-.1 1 1.3-.5.4-.7.6v.5l-.1.4.3-.2.4-.3 1 1.2-.5.5-.7.6v.8l3.9 4.6q0-.4.6-1l.6-.5c-.8-1-1.2-1.9-.1-3 .9-.9 2-2 3.4-.6q.5.4.6.8.8-.9 2-.9l-2.8-3.3q-1.4 1.5-3.2 2.8l-1.3 1.2-1.1 1-.3-1.5-.4-2.4-.1-.5.4-.3 1-.7-1-.5 1.1-.8.9-.5h-.2l-3.7.8 3-2.3.7-.4-2.3.4 2.5-2 1.4-1.2v-.9l-.3-.3-.2.2q-.4.5-1 .7a4 4 0 0 1-2.3.3q-1.3-.2-2.4-1.2-.8-.7-1.3-1.9l-3.9-1.6 3.5.5v-.8q0-1.7 1.1-3.3t3-2.3q1.1-.6 2.5-.6l1.9.3q3 1 4.5 3.5a11 11 0 0 1 1.4 5.6q0 1.8-.6 3.5-.9 2.4-2.2 4l7.2 8.5.3.4-.2.5c-2.8 5.5-2.4 7-.8 12.4l.1.4q4.1-3.4 7-2.5a5 5 0 0 1 3.4 3.3q.8 2.4-.4 4.5-1.2 2.3-5 2.2l.8 1zm-21-18 2.4 2.9q-.2-1 .5-1.6l.7-.5q-.6 0-1-.3-.2 0-.5-.3l-.6-.7q-.7.5-1.5.6zm5.8 7 1.8 2q-1-2.9-1.1-5l-.4 1.9zm.7-5q.1-2.2 1.9-5.5l-1.7-2q-.1 1.4-1.3 2.2.7.8.7 1.6-.2 1.6-1.7 2.3a2 2 0 0 1 2 1.4zm-4.9-8q0-.4-.7-1c-.4-.5-1.1.3-1.4.6q-.2.4.4 1.2 1.2.6 1.7-.8m-1.7 2.4-.9.7c-.3.4.2 1.5 1 1.5 1 0 .8-.6 1-1.2q-.2-.9-1.1-1m2.6 1.7c-.1.5.4 1.2 1 1.2q.8.1 1.1-1 0-.4-.7-1c-.4-.5-1.3.3-1.4.8m1.4-2.5q1.1.1 1.4-1 0-.4-.7-1.1c-.4-.4-1.1.4-1.4.6-.3.3 0 1.2.7 1.5M181 92.2l1.6 2a17 17 0 0 1 5.8-.9l-.8-.7a2 2 0 0 1-.2-1.3c-.7.8-2 1.4-3 .8l-.4-.4-.4-.4q-1.1 1.3-2.6 1zm9.5 1.5q2.1.6 5.1 2.3l.4.2-2.2-2.6zm0-4-2.7-3.1q-.2.8-.8 1.3 1 1 1 2v.2q0-.2.4-.5 1-.6 2 0m-6.7-1.8-.3-.3-.3.3.3.3zm1.3-.8h.6q.6-.1.7-1 0-.4-.7-1c-.4-.5-1 .3-1.3.5-.3.4 0 1.3.7 1.5m1.4 2.7q0-.4-.7-1c-.4-.5-1.1.3-1.4.6s.2 1.5 1 1.5q.8 0 1-1.1m-5.2-2.7h.6q.6-.1.7-1 0-.4-.7-1c-.4-.5-1 .3-1.3.6s0 1.2.7 1.4m1.4 2.7q0-.4-.7-1c-.4-.5-1 .3-1.3.6s.2 1.5.9 1.5q.8 0 1.1-1.1M195.1 60l.4-.1 1.4-.4-.3-2q0-1.5.4-3l.3-1a6 6 0 0 0-3.8-1.5q-1 0-1.9.4-1.3.6-2.2 1.8-.8 1-.8 2.3 0 .6.2 1.1l1.2.2.2-.5.7-.9q1-1 2.4 1.1l.5.7.3-1.2q0-.5-.2-.9l-.5-.4q-.6-.1-1.9.3l-.6-1.6q2-.7 3-.3 1 .5 1.5 1.2.3.8.3 1.7 0 1.5-.8 2.8zm-4.5-.4.7.3q.8 0 1.4-.2l.4-.3-1-.8q-.2.9-1.5 1M168 82.1q-1.5.6-2.8.3-1 0-1.6-.6t-1-1.6q-.2-1.2.9-3l1.4.9q-.7 1.2-.6 1.8l.3.6.9.3h1.2l-.6-.6q-1.8-1.8-.7-2.6.5-.4 1-.5l.6-.2v-1.2l-1-.4q-1.2-.2-2.5.4t-2.1 1.8q-.6.9-.8 1.8a5 5 0 0 0 .8 4l1-.1q1.6 0 3 .2 1 .1 2 .6l.6-1.3.2-.4zm0-1.8.4-.4q.4-.5.4-1.3l-.1-.7q-.3 1-1.4 1.3zm37.4 11.1 4.2 5 .2-1.2q3 .3 4-1.3.8-1.5.2-3.2-.6-1.6-2.3-2.2c-1.5-.4-3.7.3-6.3 3zm-5.7-31.7-.2-2.2a5 5 0 0 1-.8 2.7l.1.4-.7.3-1.6.4v.7l3-.7q.3-.7.3-1.6zm-.2 2-2.3 1.7-.7.5.6-.1 1.8-.4zm-6.3 8.3q3-2.2 4.8-5l-.3.2-3 2.2.9.5-1.1.7-1.7 1.2.1.4zM165 86.2a9 9 0 0 0 3.8.8l1.2-3h-.7l-.7 1.4-.4.7-.4-.2a5 5 0 0 1-2.8.3m4.2.8 1.8-.3.6-1.7.2-.5-.5.5zm3.6-.9q3-1.3 5.7-3.8l.3-.2-.5-.2-1.4 1.4-1 1-.3-1-2.6 2.6zm3.8-31.3V54l-1.7 1.4zm-3.2-.2-2.3-.2-.8-.1v-.8q.1-2.2-.5-3.3t-1.4-1.2q-.8-.3-2 0-1.6.5-3.2 2a4 4 0 0 0-1 2.6q0 .8.4 1.4.3.6.9.9 1 .4 3-.2l1.4-.5-.2 1.4-.8 3.2zm-7.6 8.2.8.5 1.1-2zm37 38.7v-3.6h6l-4.8-5.8-5.3 4.5zm.1-10.6-.4-.6-5.4 4.5.5.6zm-1.5-1.8-1.7-2-5.3 4.5 1.7 2zm-2.7-3.2L191 77l-5.3 4.5 7.4 8.8zm-8.5-10-.3-.4-5.3 4.5.3.3zm-1.4-1.7-.4-.5-5.4 4.5.5.6zm-1.5-1.7-.5-.7-5.3 4.5.5.7zm-1.6-2-5.8-6.8-5.4 4.5 5.9 6.9zm-6.9-8-.3-.4-5.3 4.5.3.4zm-1.3-1.6-1.4-1.6-5.3 4.5 1.3 1.6z" id="path39"/></g><path style="fill:#009ee0" d="M321.1 28q-.5.5-.4 1.5t1 2q1 .8 2 1 .8 0 1.4-.5t.5-1.5-1-2q-1-.8-2-1-.7 0-1.5.5M304 17.4c-.8-1.1-1.6-1.7-3.6-1.3 1-1.3 3.6-1.2 3.6 1.3m-26.7 51.8c-.6-.9-1.1-1.3-2.6-1 .8-1 2.6-.8 2.6 1M302 68c-1-.2-1.7 0-2.6 1.5 0-1.6 1.3-3.1 2.6-1.5m20.4-38c.6.8 1.1 1.2 2.6 1-.8 1-2.6.8-2.6-1m9.3 18q-.6 1.8 1.6 3.4c-1.7.2-3.4-1.7-1.6-3.4M301 42.6a5 5 0 0 0-5 5 5 5 0 0 0 5 5 5 5 0 0 0 5-5 5 5 0 0 0-5-5m3.2-13.3q0-1.1-.9-1.9t-2-.8-2 .8-.8 2 .8 1.9 2 .8 2-.8.9-2m0 39.4q0-1.2-.9-2-.8-.7-2-.7t-2 .8-.8 1.9q0 1 .8 2 .8.7 2 .7t2-.8.9-1.9m-3.7-54a6 6 0 0 0-3.6 1q-1.3 1.1-1.3 2.5v.2q2.3-.8 5-.8 2.5 0 4.9.8v-.2q-.1-1.5-1.4-2.4a6 6 0 0 0-3.6-1.1M280.1 28q-.7-.6-1.5-.4-1 0-2 1t-1 2 .4 1.4q.7.6 1.5.4 1 0 2-1 1.3-1.3 1-2.7l-.2-.4zm-11.3 16.6q-1.3 0-2 1.1a5 5 0 0 0-1 3 5 5 0 0 0 1 3q.7 1 2 1.1 1.1 0 2-1.1a5 5 0 0 0 1-3 5 5 0 0 0-1-3q-.8-1-2-1.1m9.8 26.6q.5-.7.4-1.5-.1-1-1-2t-2-1q-.7-.1-1.5.4-.5.7-.4 1.5.1 1 1 2t2 1q.8.1 1.5-.4m44 0q.7.5 1.5.4 1-.1 2-1t1-2-.4-1.5q-.7-.5-1.5-.4-1 .1-2 1t-1 2 .4 1.5m9.8-26.6q-1.2 0-2 1.1a5 5 0 0 0-1 3 5 5 0 0 0 1 3q.8 1 2 1.1 1.2 0 2-1.1a5 5 0 0 0 1-3 5 5 0 0 0-1-3q-.8-1-2-1.1" id="path40"/><path style="fill:#ffcb00" d="M273.9 65.8q-.3-1 .2-1.5t2-.1a8 8 0 0 1 3 2q2 2 2.3 3.8 0 .7-.3 1.3-.4.3-1 .3s.9-2-.3-3.7q-1.3-1.8-3-2.5c-1.7-.6-3 .4-3 .4zm26.7-46.7q-3.4 0-5.6 1.2-1 .6-1.7 1.3a33 33 0 0 1 7.3-.7 35 35 0 0 1 7.3.7q-.6-.8-1.7-1.3-2.2-1.1-5.6-1.2m.5 22a6.5 6.5 0 0 1 6.5 6.5 6.5 6.5 0 0 1-6.5 6.5 6.5 6.5 0 0 1-6.4-6.5 6.5 6.5 0 0 1 6.4-6.4m6.5-9.6q-.1 2-2 3.3a8 8 0 0 1-4.4 1.2 8 8 0 0 1-4.4-1.2q-1.9-1.3-2-3.3.1-2 2-3.2l.6-.4a4 4 0 0 1 4-2.7 4.4 4.4 0 0 1 4.2 3q1.9 1.3 2 3.3m-1.5 35q0-1.2-1.3-2-1.4-1-3.6-1t-3.6 1q-1.2.8-1.3 2 0 1 .9 1.7 0-1.5 1.2-2.5 1.3-1.1 3-1.2 1.9 0 3 1.2 1 .9 1.3 2.1.5-.6.5-1.3zm1.5 0q-.1 2-2 3.3-.3 1.1-1.1 1.9-1.3 1.1-3 1.2a4 4 0 0 1-4.1-2.7l-.6-.4q-1.9-1.3-2-3.3.1-1.9 2-3.2a8 8 0 0 1 4.4-1.2 8 8 0 0 1 4.4 1.2q1.9 1.3 2 3.2m-1.5-35a2 2 0 0 0-.4-1.3q-.3 1.4-1.2 2.1-1.3 1.3-3 1.3-1.9 0-3-1.3a4 4 0 0 1-1.3-2.5q-1 .8-1 1.7.1 1.2 1.4 2 1.5 1 3.6 1 2.2 0 3.6-1 1.3-.8 1.4-2zm-5 7a9 9 0 0 1 9 9v.1a9 9 0 0 1-9 9v.1a9 9 0 0 1-9-9 9 9 0 0 1 9-9m0 1.5q-3.2.1-5.3 2.3a7.6 7.6 0 0 0 5.4 13q3.2-.1 5.3-2.3a7.6 7.6 0 0 0 0-10.7 8 8 0 0 0-5.4-2.3m17.5-12q-.6.5-.1 1.8a8 8 0 0 0 2 3.2l1.8 1.4q2.2 1.2 3.3.5.5-.5.2-1.5-1 .6-2.3.5a5 5 0 0 1-2.8-1.4 5 5 0 0 1-1.5-2.8q-.1-1.2.4-2.1-.6 0-1 .3zm-18-5.7c-5.3 0-10 3.1-13.6 8.1s-5.7 12.1-5.7 19.8S283.5 65 287 70s8.3 8.1 13.6 8.1 10-3 13.6-8 5.7-12.1 5.7-19.9-2.2-14.7-5.7-19.8c-3.5-5-8.3-8-13.6-8m-8.4 1q-4.6 1.3-8.5 3.6 1 1.3.4 3.4a11 11 0 0 1-4.5 5.4c-2 1.1-4 1.3-5 .2l-.3-.3q-1.6 2.4-2.7 5 1.8.5 3 2.7 1.3 2.3 1.3 5.7t-1.3 5.8q-1.4 2.5-3.5 2.7h-.4q1 3 2.5 5.6 1.3-.9 3.3-.3t3.7 2.4c1.7 1.7 2.7 3.8 2.6 5.3l-.1 1q-.2.5-.6.8l-.1.1q4.6 3.2 10.2 4.7a22 22 0 0 1-6.4-6.2c-3.7-5.3-6-12.6-6-20.7s2.3-15.3 6-20.6q2.8-4 6.4-6.2zM309 77.2q5.7-1.5 10.2-4.6l-.1-.2q-.4-.3-.6-.8l-.2-1c0-1.5 1-3.6 2.7-5.3q1.9-1.8 3.7-2.4 2-.6 3.3.4 1.6-2.7 2.5-5.7h-.4q-2.1 0-3.5-2.7-1.2-2.3-1.3-5.7 0-3.5 1.3-5.8 1.2-2.3 3-2.6a27 27 0 0 0-2.7-5.1l-.3.3c-1 1.1-3 1-5-.2l-2.1-1.7a10 10 0 0 1-2.4-3.7q-.6-2.1.5-3.4a32 32 0 0 0-8.5-3.5q3.6 2.3 6.3 6.2c3.7 5.3 6 12.6 6 20.7s-2.3 15.3-6 20.6q-2.8 4-6.3 6.2zM282.6 28q-.4-.3-1-.3l.3.8q.4 2.1-1.4 4-1.2 1.4-2.8 1.5-1.3.2-2.3-.5-.2 1 .2 1.5 1 .8 3.3-.5l1.8-1.4q1.5-1.6 2-3.2.5-1.2 0-1.9m-11.5 14.2q-1 0-1.7 1 1.5.5 2.6 1.7 1.1 1.5 1.2 4 0 2.2-1.2 3.8t-3 1.7q1 1.6 2 1.7 1.4 0 2.3-1.9 1-2 1-5 0-3.1-1-5.2-1-1.7-2.2-1.8m49 29.2q.4.5 1 .3-.4-.9-.3-2.1.2-1.6 1.4-2.8 1.3-1.2 2.8-1.4 1.3-.2 2.3.5.2-1-.2-1.5-.6-.6-2-.1a8 8 0 0 0-3.1 2q-2.3 2.3-2.2 4.3v.5zm10-29.2q-1.2 0-2.2 1.8-1 2-1.1 5.1 0 3 1 5.1 1 1.9 2.3 1.9t2.1-1.7a4 4 0 0 1-3-1.7q-1.3-1.7-1.3-4t1.2-3.9q1-1.2 2.6-1.6-.8-1-1.7-1.1z" id="path41"/><path d="M269.5 48q.6 1.9-1.6 3.4c1.7.2 3.4-1.7 1.6-3.4M302 30c-1 .3-1.7.1-2.6-1.5 0 1.7 1.3 3.2 2.6 1.6m21.9 39.2c.6-.9 1.1-1.3 2.6-1-.8-1-2.6-.8-2.6 1m-20.2-21c-.8 1.1-1.6 1.6-3.6 1.3 1.1 1.3 3.6 1.1 3.6-1.3M279 30c-.6.8-1.2 1.2-2.7 1 .8 1 2.7.8 2.7-1" id="path42"/><path style="fill:#ffcb00;stroke:none;stroke-width:1.5;paint-order:stroke" d="m232.6 328.4.4-.7q1.2.9 1.6.8.6 0 1-.8l.3-.3.5-1q.1-.6-.5-1-.5-.3-1-.2t-.7.7l-.2.2v.2h-.3l-.2-.1-.5-.4-.8-.4h-.1v-.3q.8-1 2.2-.9a5 5 0 0 1 2 .8 4 4 0 0 1 1.5 1.8q.3 1-.2 1.8t-1.5.9l-1.3-.3h-.1l-.2.2q.2 0 .6.4.5.7.5 1.1a2 2 0 0 1-.2 1.7 2.4 2.4 0 0 1-3.4.6l-.5-.5-1-1-.2-.4h-.5l-.4.4v.2l-.2.2h-.4q0-.3-.2-.3l-.2-.1-.3-.1h-.2l-.1-.4.3-.5q.3-.6.9-.8.6 0 1 .2.3.1.5.5l.6.8.4.5.4.3q.4.3 1 0l.7-.8.1-.2.2-.2v-.2q.4-.6.2-1 0-.5-.6-.8zm9 .5-.9-.4.3-.5 3.3 1.9-.2.5-1-.5-1.6 7.8.7.4-.3.4-3.2-1.7.3-.5.8.5.7-3.2q-.9 1-2.1 1.7-1.4.8-2.3.3-.5-.4-.6-.8-.2-.5.1-1.2t1-1.1q.7-.6 1.5-1l1.6-1 .9-.4.8-.8zm-.8 3.5.4-2-1.1.6-.8.5-.9.6-1 1-.1.2v.6l.3.3q.6.3 1.7-.5.9-.6 1.5-1.3m7.5.3-3 6.9.7.3-.2.5-3.4-1.5.2-.5 1 .4 3-6.9-1-.4.3-.5 7.8 3.5-.2.5-1-.5-3 7 1 .3-.3.5-3.4-1.5.2-.5.8.4 3-7zm9.2 2.7.2.3.1.3.3.5.5 1 .6 1.5q.2.9-.2 1.8a3 3 0 0 1-.8 1.4q-.4.5-1.3.8l-2.6 1-.3-.2-.6-1-.6-1.1-.4-1.4.2-1.6q.5-1.2 1.7-2 .7-.6 2-1l.4-.1h.2l.3-.2zm-1.3 1.3q-.6-.1-1.2.2a2 2 0 0 0-.9 1l.1 1.3.7 2 .5 1v.6q.6 0 1.1-.3t.9-.7v-.2l.1-.2-.3-1.5-.4-1.2-.4-1.1zm6 6.3-.7 2.7.9.2-.1.5-3.8-1 .1-.5 1 .3 1.2-4.3.2-1 .3-.8q.5-.8 1.5-1 .8-.4 1.8 0 1.5.2 2 1.2.7.9.4 1.9-.4 1-1 1.4-.8.6-1.7.3l-.4-.2-.5-.3-.2-.2zm.1-.7 1-.8.4.3h.6q.4-.4.6-1.2.3-.9.2-1.4t-.7-.7q-.8-.2-1.3 1l-.3 1.2zm5.1 4.9 1.7-7.3-1-.3.2-.5 3.8 1-.2.4-.9-.2-1.7 7.3 1 .3-.1.5-3.9-1 .1-.4zm6.5-2.1.1-.7q1.5.3 1.9 0t.6-1.1v-1.6a1 1 0 0 0-.7-.6q-.7 0-1 .2t-.5.9v.4l-.2.2h-.2l-.7-.2h-.9v-.2a2 2 0 0 1 1.5-1.7q.9-.4 2.1-.1 1.3.2 2.1.9.8.8.7 1.8t-1 1.3l-1.4.3-.1.1v.2l.6.3 1 .6q.6.7.4 1.7 0 1-1 1.5a3 3 0 0 1-2.4.2l-1.3-.5-.4-.2-.4.1-.2.6v.4l-.2.2h-.3q0-.2-.2-.2h-.8l-.2-.1v-.7q.2-.6.6-1t1-.3l.6.2.8.5.7.3h.4q.6.2.9-.3l.4-1v-.8q0-.6-.3-1-.3-.3-.9-.4zm9.6-3.3v.5h-1l-.3 2.9 1.3.9 1.2.4h.7q.3 0 .4.2l.1.6-.2 2.4q0 .6-.2.7h-.6l-6-.4v-.5h1l.6-7.4-1-.1v-.6zm-1.7 8h1.7q.4-.1.4-.6l.1-1.4v-.8l-.5-.3q-.4 0-.7-.3l-.7-.5zm7.8-3.8h.5l.2-.3.2-.4.2-.5 1-1.8q.7-.9 1.5-.8h.6l.5.2-.3.7v1h-.3l-.4-.2-.4-.1h-.3q-.6 0-2 2.4a5 5 0 0 1 2.3 1.1q1 1.2 1 3.1h.8v.5h-3.4v-.5h.5q0-1.7-.3-2.6-.5-1-1.9-1.3v3.9h.7v.5l-3.7-.1v-.5h1l.2-7.5h-1v-.6h3.7v.6h-.8zm8.4-3.4h-1v-.5l3.9-.2v.6h-1l2.5 7.6h.9v.5l-3.6.1v-.5h.8l-1-3.2a7 7 0 0 1-.9 2.6q-.8 1.4-1.8 1.4-.6 0-1-.3-.4-.4-.4-1l.2-1.6.7-1.6 1-1.7.5-.8q.3-.5.3-1.1zm1.1 3.3-.6-1.9-.6 1-.5.9-.5 1-.3 1.3v.3q0 .3.3.5h.4q.7 0 1.3-1.2.5-1 .5-2m11.2-5h.2l.3.3.5.4 2.2 1.5q.6.8.7 1.7v1.7l-.7 1.3-1.1 1.5q-.5.6-.8.7h-.3l-1-.7-1.1-.7q-.7-.4-1-1-.5-.7-.7-1.5-.1-1.2.5-2.6.4-.9 1.3-1.7l.3-.4.1-.1.3-.3zm-.6 1.7q-.6.2-1 .8l-.2 1.2q0 .6.7 1.2.4.5 1.6 1.3l.9.7.3.5.9-.8.3-1v-.5l-1-1.2-1-.8-.9-.7zm4.4-2 4.2-.9 1-.3.8-.3h.3l.1.4v2.2q0 .3-.3.3t-.3-.2l-.1-.2q-.6-1-1-1.2H317l.7 3q.4.4 1.3.5h1.4l.6-.2h.6l.3.7.5 2.3v.7l-.6.3-6 1.3v-.5l1-.2-1.6-7.4-1 .2zm4.5 7.3 1.5-.3q.3 0 .3-.3v-.7l-.3-1.3-.1-.4-.6-.2-1.6-.7zm8.5-2.2.8-.2-1.5-2.6-1-2-.5-1-.2.5-.2.8-.2 1.4v1.7l.4 1h.3l.3.1.3 1v.4h-.3l-.2.1h-.5l-.2.2h-.4q-.3.2-.4 0l-.2-.2v-.4l-.2-1.4.3-2.2.5-1.7.2-1.4v-.8l-.1-.2h-.4l-.7.2-.2-.5 4-1v.5l-.6.2a28 28 0 0 0 3.1 6l.4.8 1-.2v.5l-3.4.9zm4.2-9.4-.8.3-.2-.5 3.6-1.2.1.4-.9.4 4.7 6.5.7-.2.3.4-3.5 1.2-.2-.4.9-.3-2-2.8q.2 1.5 0 2.8-.5 1.5-1.4 1.8h-1q-.5-.2-.8-.9l-.2-1.5.2-1.8.4-1.8.3-1v-1q0-.3-.2-.4m2 2.9-1.1-1.7-.3 1.2-.2 1-.1 1v1.4l.1.3q.2.3.4.3h.4q.8-.1.9-1.5zm11.1-5-3 1.2-.2-.5.5-.2q-.4-1-1-1.5-.5-.2-1 0t-.8.8q-.2.9.4 2.2.2.7.6 1.3l.8 1.3 1 1.6v.7h.3q.6-.4 1-1.4l-.2-2.2-.1-.3-.6.2-.1-.4 3-1.2.2.5-.5.2q.5 1.4-.4 2.9a4 4 0 0 1-2.7 2.1h-.4v-.1l-.4-.7-1.2-1-1.6-1.1-.5-1a4 4 0 0 1 0-3q.6-1.5 2.1-2 1.6-.4 2.8 0 .8.5 1.3 1.4l.5-.2zm5.5 3-3-7-.4.3q-.7.3-.8.5v2.1l-.1.3q-.2.2-.4 0l-.2-.3-.2-.5-.3-.4-.5-.4-.3-.4v-.3q0-.2.3-.3l.7-.2.9-.3.4-.1 3.3-1.5.5-.1.8-.4.6-.5h.4l.3.2v1.7l.2.5.1.3q0 .3-.2.3t-.4-.2l-.5-.5q-.5-.8-1-.9h-.6l-.3.2-.5.2 3 7 1-.4.1.4-3.6 1.5-.2-.4zm6.2-11.4.2.4-1 .4 1.2 2.8q.6.3 1.6.2.8 0 1.3-.3l.4-.2h.7l.3.4 1 2.2q.2.5 0 .8l-.4.3-5.6 2.4-.2-.5 1-.4-3-7-1 .5-.1-.5zm2.2 7.8 1-.5q.4 0 .5-.3.3-.2 0-.6l-.5-1.4-.1-.3-.2-.3h-1.4l-.8-.1z" id="path43"/></g></g><!-- app4joy --></svg>