<svg width="800" height="533.33331" id="svg9754" viewBox="0 0 800 533.33331" xmlns="http://www.w3.org/2000/svg"><g id="g9614" transform="matrix(4.44444 0 0 4.44397 866.7 589.4)"><path style="opacity:1;fill:#ee161f;fill-opacity:1;stroke:#ffffff;stroke-width:0;stroke-miterlimit:4;stroke-dasharray:none;stroke-opacity:1" id="rect2899" d="M-195-132.6h180v120h-180z"/><path d="M-110-132.6v55h-85v10h85v55h10v-55h85v-10h-85v-55z" style="display:inline;opacity:1;fill:#fff215;fill-opacity:1;stroke:#ffffff;stroke-width:0;stroke-miterlimit:4;stroke-dasharray:none;stroke-opacity:1" id="rect3786"/><path d="M311.1 146.8v146.6a89 89 0 0 0 89 89 89 89 0 0 0 88.8-89V146.8Z" style="fill:#00aef5;fill-opacity:1;stroke:#000000;stroke-width:0;stroke-miterlimit:4;stroke-dasharray:none;stroke-opacity:1" id="path5726" transform="matrix(.225 0 0 .22502 -195 -132.6)"/></g><g transform="matrix(.44747 0 0 .44742 326.7 -542)" id="g9386"><g transform="translate(-208.7 -195.8)" style="opacity:1" id="g4693"><g transform="matrix(-1 0 0 1 598.7 1713.3)" id="g4675"><g id="g4677"><path d="M79 191.6h18.7v37.9H79.1Zm18.6 0h39v37.9h-39zm39 .2h15.2v37.6h-15.1zm-57.5-21h38.7v21H79.1Zm39 0h33.6v21H118Zm-39-35h20.3v35H79.1Zm20.2 0h37.4v34.8H99.3Zm37.4.2h15v34.7h-15zM79 99.7h38v36.1H79Zm38 0h34.4V136H117Z" style="opacity:1;fill:#ffffff;fill-opacity:1;stroke:#000000;stroke-width:0.9375;stroke-miterlimit:4;stroke-opacity:1" id="path4679"/><g id="g4681"><path style="opacity:1;fill:#000000;fill-opacity:1;stroke:#000000;stroke-width:0;stroke-miterlimit:4;stroke-dasharray:none;stroke-opacity:1" id="rect4683" d="M88.4 117.2h15.5v38H88.4Z"/><path style="opacity:1;fill:#000000;fill-opacity:1;stroke:#000000;stroke-width:0;stroke-miterlimit:4;stroke-dasharray:none;stroke-opacity:1" id="rect4685" d="M107.7 117.2h15.5v38h-15.5z"/><path style="opacity:1;fill:#000000;fill-opacity:1;stroke:#000000;stroke-width:0;stroke-miterlimit:4;stroke-dasharray:none;stroke-opacity:1" id="rect4687" d="M127.2 117.2h15.6v38h-15.6z"/></g></g><path style="opacity:1;fill:#ffffff;fill-opacity:1;stroke:#000000;stroke-width:0.9375;stroke-linejoin:round;stroke-miterlimit:4;stroke-dasharray:none;stroke-opacity:1" id="rect4689" d="M76.9 95.7h77v6.9h-77z"/><path d="M72.3 69v31h86.2V69h-12.1v15h-11V69h-14v15h-11V69H96.7v15h-11V69Z" style="opacity:1;fill:#ffffff;fill-opacity:1;stroke:#000000;stroke-width:0.9375;stroke-linejoin:round;stroke-miterlimit:4;stroke-dasharray:none;stroke-opacity:1" id="path4691"/></g><g transform="translate(147.1 1712.5)" id="g34793"><g id="g33001"><path d="M79 191.6h18.7v37.9H79.1Zm18.6 0h39v37.9h-39zm39 .2h15.2v37.6h-15.1zm-57.5-21h38.7v21H79.1Zm39 0h33.6v21H118Zm-39-35h20.3v35H79.1Zm20.2 0h37.4v34.8H99.3Zm37.4.2h15v34.7h-15zM79 99.7h38v36.1H79Zm38 0h34.4V136H117Z" style="opacity:1;fill:#ffffff;fill-opacity:1;stroke:#000000;stroke-width:0.9375;stroke-miterlimit:4;stroke-opacity:1" id="rect30290"/><g id="g32996"><path style="opacity:1;fill:#000000;fill-opacity:1;stroke:#000000;stroke-width:0;stroke-miterlimit:4;stroke-dasharray:none;stroke-opacity:1" id="rect32095" d="M88.4 117.2h15.5v38H88.4Z"/><path style="opacity:1;fill:#000000;fill-opacity:1;stroke:#000000;stroke-width:0;stroke-miterlimit:4;stroke-dasharray:none;stroke-opacity:1" id="rect32982" d="M107.7 117.2h15.5v38h-15.5z"/><path style="opacity:1;fill:#000000;fill-opacity:1;stroke:#000000;stroke-width:0;stroke-miterlimit:4;stroke-dasharray:none;stroke-opacity:1" id="rect32986" d="M127.2 117.2h15.6v38h-15.6z"/></g></g><path style="opacity:1;fill:#ffffff;fill-opacity:1;stroke:#000000;stroke-width:0.9375;stroke-linejoin:round;stroke-miterlimit:4;stroke-dasharray:none;stroke-opacity:1" id="rect34791" d="M76.9 95.7h77v6.9h-77z"/><path d="M72.3 69v31h86.2V69h-12.1v15h-11V69h-14v15h-11V69H96.7v15h-11V69Z" style="opacity:1;fill:#ffffff;fill-opacity:1;stroke:#000000;stroke-width:0.9375;stroke-linejoin:round;stroke-miterlimit:4;stroke-dasharray:none;stroke-opacity:1" id="rect33008"/></g><g id="g4668"><path d="M331 1897.4h16v48h-16zm16 0h25.5v48H347Zm25.4 0H402v48h-29.5zm29.5-.1h14v48h-14zm-71-21h26.8v21h-26.8zm26.6 0H390v21.1h-32.4zm32.4 0h25.8v21.2H390Zm-59-37.5h13v37.4h-13zm13 .1h28.5v37.3H344Zm28.4-.2h32v37.7h-32zm-41.6-60H344v60.1h-13.3zm13.3.1h28v60.3h-28zm28.2 0H404v60h-31.8zm31.9 0h11.6v59.9h-11.6zm0 59.8h11.7v37.7H404Z" style="opacity:1;fill:#ffffff;fill-opacity:1;stroke:#000000;stroke-width:0.9375;stroke-linejoin:round;stroke-miterlimit:4;stroke-opacity:1" id="rect1947"/><path d="M319.7 1755.3v35.6h107v-35.7H411v14.5h-14.5v-14.5h-16.3v14.5h-14.5v-14.5h-16.3v14.5h-14.5v-14.5z" style="opacity:1;fill:#ffffff;fill-opacity:1;stroke:#000000;stroke-width:0.9375;stroke-linejoin:round;stroke-miterlimit:4;stroke-dasharray:none;stroke-opacity:1" id="rect2881"/><path style="opacity:1;fill:#000000;fill-opacity:1;stroke:#000000;stroke-width:0;stroke-linejoin:miter;stroke-miterlimit:4;stroke-dasharray:none;stroke-opacity:1" id="rect3777" d="M344.6 1812.4h14.5v47.6h-14.5z"/><path style="opacity:1;fill:#000000;fill-opacity:1;stroke:#000000;stroke-width:0;stroke-linejoin:miter;stroke-miterlimit:4;stroke-dasharray:none;stroke-opacity:1" id="rect4664" d="M366.2 1812.4h14.5v47.6h-14.5z"/><path style="opacity:1;fill:#000000;fill-opacity:1;stroke:#000000;stroke-width:0;stroke-linejoin:miter;stroke-miterlimit:4;stroke-dasharray:none;stroke-opacity:1" id="rect4666" d="M387.8 1812.4h14.5v47.6h-14.5z"/></g><g transform="translate(144 1706.7)" id="g30283"><path d="M371.1 280.2V302H394v-22 .2zm0 0H394v-.2h-23zm-80.7 21.7v-21.7zm20-21.7h44.3zm-20 0V302H371v-21.8zm-20.8 0h20.8zm-167.3 0h44.3-44.2zm64.4 0h20.7zm0 21.7v-21.7V302Zm0 0v-21.7H85.9V302h80.8zm47-21.6h-47v21.6h24a42 42 0 0 1 8.4-12.2 42 42 0 0 1 13.5-9zm.2 0h-26.5zm30.4 0h25.3zm23 21.6h23v-21.7h-46l1.2.4a42 42 0 0 1 21.9 21.3zm103.9 73.4v25.3zm0 0v25.3h22.7v-25.3zm0-21.8h22.7v-25.3h-22.7zm-16.6 0v21.8H394v-21.8zm.3-51.4v26h39v-26zm-87.5 0q.4.4.6 1a42 42 0 0 1 2.5 8q.6 2 1 4.2v12.9H355V302Zm-165.2 0v26h84.4v-12.8q.3-2.2 1-4.2a42 42 0 0 1 2.5-8q.2-.6.6-1zm-39 26h39v-26h-39zm0 25.4H86v-25.3H63.3Zm0 21.8h39.2v-21.8H63.3Zm22.6 0v25.3zm-22.5 25.3h22.5v-25.3H63.3Zm123.3 0H63.3v42h123.3zm0-25.3H85.8v25.3h100.8zm0 0h-84.2zm-84.2-21.9v21.9h84.2v-21.9zm0 0h84.2zm84.2-25.2H63.2 86v25.3h16.5v21.8H63.3h39.1v-21.9H86v-25.2zm0 0H86v25.2h100.6zm85 25.1h83v.1h16.5v-25.2h-99.6zm0 .1h83zm0 21.9h83v-21.8h-83zm0 0h83zm0 25.3h99.6v-25.3h-99.6Zm122.3-144.8V302h-22.8v-21.8V302h-80.7v-.1h-23v.1H394v26.1H271.5h99.6v25.3h-16.5 16.6v-25.2h22.7v47.1h-39.3H394v25.3H271.5v42H394V255.8Zm-39.2 0v24.4h16.4v-.2H394v-24.2zm0 0v24.4zm-44.3 0v24.4h44.3v-24.4zm0 0v24.4zm-40.8 0v24.4h40.8v-24.4zm-29 0V279l3.6 1.1h25.4v-24.4zm-24 0v23.6q1.8-.7 4-1.2a43 43 0 0 1 17 0l3 .9v-23.3zm-29.2 0v24.4H214l2.6-.8v-23.6zm-40.8 0v24.4h40.8v-24.4zm0 0v24.4zm-44.2 0v24.4h44.2v-24.4zm0 0v24.4zm-16.5 24.4h16.4v-24.4h-39V280h22.6zm0 0v-.2H63.3v.2zM63.3 302h127.4v-.1h-24v.1H85.9v-21.8V302Zm0 0h22.6v-21.8H63.3Z" style="opacity:1;fill:#ffffff;fill-opacity:1;stroke:#000000;stroke-width:0.9375;stroke-miterlimit:4;stroke-opacity:1" id="path28412"/><path style="opacity:1;fill:#ffffff;fill-opacity:1;stroke:#000000;stroke-width:0.9375;stroke-miterlimit:4;stroke-dasharray:none;stroke-opacity:1" id="rect28471" d="M59.8 239.8H399v17.3H59.8Z"/><path d="M53.2 202.3V247h351.4v-44.7H383v23.5h-13v-23.5h-18.4v23.5h-13v-23.5h-20.4v23.5h-13v-23.5h-20.8v23.5h-13v-23.5H252v23.5h-13v-23.5h-20.4v23.5h-13v-23.5h-18.3v23.5h-13v-23.5H154v23.5h-13v-23.5h-20.4v23.5h-13v-23.5H89.3v23.5h-13v-23.5z" style="opacity:1;fill:#ffffff;fill-opacity:1;stroke:#000000;stroke-width:0.9375;stroke-miterlimit:4;stroke-dasharray:none;stroke-opacity:1" id="rect29358"/></g></g><g id="g9324"><path d="M58.9 1788.7v164.9h51.6v-127.8c-5.8-20-26.4-35.1-51.6-37z" style="opacity:1;fill:#ffffff;fill-opacity:1;stroke:#000000;stroke-width:0.9375;stroke-linejoin:miter;stroke-miterlimit:4;stroke-dasharray:none;stroke-opacity:1" id="rect7510"/><path d="M81.6 1837.1v6.6l-10.1-4-2.7 7 12.8 5v8.5h5.7v-6.2l5.8 2.3v9.4h5.7v-7.1l13 5.2 2.7-7-15.7-6.2v-8h-5.7v5.7l-5.8-2.3v-8.9z" style="opacity:1;fill:#000000;fill-opacity:1;stroke:#000000;stroke-width:0;stroke-linejoin:miter;stroke-miterlimit:4;stroke-dasharray:none;stroke-opacity:1" id="rect7521"/><path d="M81.1 1880.4v6.6l-10-4-2.8 7 12.8 5v8.5h5.7v-6.2l5.9 2.3v9.4h5.7v-7.1l12.9 5.1 2.7-6.9-15.6-6.2v-8h-5.7v5.7l-5.9-2.3v-8.9z" style="opacity:1;fill:#000000;fill-opacity:1;stroke:#000000;stroke-width:0;stroke-linejoin:miter;stroke-miterlimit:4;stroke-dasharray:none;stroke-opacity:1" id="path9322"/></g><path d="M151.7 1779.8a54 54 0 0 0-41.1 43.3v130.5H123v-130.5a42 42 0 0 1 28.7-32.6z" style="opacity:1;fill:#ffffff;fill-opacity:1;stroke:#000000;stroke-width:0.9375;stroke-linejoin:miter;stroke-miterlimit:4;stroke-dasharray:none;stroke-opacity:1" id="path6576"/><g transform="matrix(-1 0 0 1 328 0)" id="g9329"><path d="M58.9 1788.7v164.9h51.6v-127.8c-5.8-20-26.4-35.1-51.6-37z" style="opacity:1;fill:#ffffff;fill-opacity:1;stroke:#000000;stroke-width:0.9375;stroke-linejoin:miter;stroke-miterlimit:4;stroke-dasharray:none;stroke-opacity:1" id="path9331"/><path d="M81.6 1837.1v6.6l-10.1-4-2.7 7 12.8 5v8.5h5.7v-6.2l5.8 2.3v9.4h5.7v-7.1l13 5.2 2.7-7-15.7-6.2v-8h-5.7v5.7l-5.8-2.3v-8.9z" style="opacity:1;fill:#000000;fill-opacity:1;stroke:#000000;stroke-width:0;stroke-linejoin:miter;stroke-miterlimit:4;stroke-dasharray:none;stroke-opacity:1" id="path9333"/><path d="M81.1 1880.4v6.6l-10-4-2.8 7 12.8 5v8.5h5.7v-6.2l5.9 2.3v9.4h5.7v-7.1l12.9 5.1 2.7-6.9-15.6-6.2v-8h-5.7v5.7l-5.9-2.3v-8.9z" style="opacity:1;fill:#000000;fill-opacity:1;stroke:#000000;stroke-width:0;stroke-linejoin:miter;stroke-miterlimit:4;stroke-dasharray:none;stroke-opacity:1" id="path9335"/></g><path d="M176.4 1779.6a54 54 0 0 1 41 43.3h.1v130.7h-12.4v-130.7c-2.9-15.5-14-28-28.7-32.6z" style="opacity:1;fill:#ffffff;fill-opacity:1;stroke:#000000;stroke-width:0.9375;stroke-linejoin:miter;stroke-miterlimit:4;stroke-dasharray:none;stroke-opacity:1" id="path7475"/></g><!-- app4joy --></svg>