<svg viewBox="0 0 1200 800" xml:space="preserve" id="svg42" width="1200" height="800" xmlns="http://www.w3.org/2000/svg"><g id="g43"><path transform="translate(-1.5 136.6)" d="M1.5 663.4h1200v-800H1.5Z" fill="#e40544" fill-rule="evenodd" id="path1"/></g><g transform="translate(282.5 -135.3)scale(1.0789)" id="g42"><path class="st0" d="m391.5 267.7-249-2 2 243.7z" fill="#fff" id="path2"/><path class="st2" d="m445.8 613.1-2-192-218 219.7c6.9 0 16.9 1.8 20.9 2.2a45 45 0 0 1 12.5 2.8c3.2 1.2 6.7-1.6 9.3.1a50 50 0 0 1 17.2 17.4l8.7 11.8 7.8-10.6a105 105 0 0 1 9.5-11.9c2.1-2.2 4.6-4.2 6.6-5.5 1.4-1 10-.7 17.2-2.4 5-1.2 6.5-3.2 16.6-3.1l63.9.5c15.5 0 29.9-13.6 29.8-29" fill="#0077be" id="path3"/><path class="st3" d="M389.3 267.8c-80.6 80.2-163.7 160-244.1 240.5l-3.7 105.8a27 27 0 0 0 27.6 27.4l58.9-1.8L443.7 424l.9-157.5z" fill="#00803d" id="path4"/><path class="st1" d="M298.8 304.1a6.3 6.3 0 0 0-6.3 6.3v.4h.1-.1l1.6 10.9h-3.6l1.6-10.9v-.4c0-3.5-2.8-6.3-6.3-6.3s-6.3 2.8-6.3 6.3q0 1.1 1.2 1.2c1.2.1 1.2-.5 1.2-1.2a3.9 3.9 0 0 1 7.8 0v.1l-1.8 12.2q0 .5.3 1 .5.6.9.4h6.2q.5 0 .9-.4.3-.4.3-1l-1.8-12.3v-.1c0-2.2 1.8-3.9 3.9-3.9s3.9 1.8 3.9 3.9q0 1.1 1.2 1.2c1.2.1 1.2-.5 1.2-1.2a6 6 0 0 0-6.1-6.2" fill="#b39461" id="path5"/><path class="st1" d="M289 310.3q-.6-2-2.9-2.2c-2.3-.2-2.6.9-2.9 2.2a3 3 0 0 0 2.9 2.2c1.4.1 2.5-.9 2.9-2.2" fill="#b39461" id="path6"/><path class="st1" d="M298.6 308.1a3 3 0 0 0-2.9 2.2q.6 2 2.9 2.2c2.3.2 2.6-.9 2.9-2.2a3 3 0 0 0-2.9-2.2" fill="#b39461" id="path7"/><path class="st1" d="M292.3 326.8q-3 .1-3.9 1.9h7.7c-.3-1.1-1.9-1.9-3.8-1.9" fill="#b39461" id="path8"/><path class="st1" d="M292.3 331.8q3.6-.2 4.6-2.3h-9.3c.6 1.3 2.5 2.3 4.7 2.3" fill="#b39461" id="path9"/><path class="st1" d="M137.5 260.2v351a36 36 0 0 0 36.1 36.1h69.9c12.5 0 24.4 6 31.7 16.1l19.1 26.2 19.1-26.2a39 39 0 0 1 31.7-16.1H415a36 36 0 0 0 36.1-36.1v-351zm144 127.6-5.4 5.9-3-6.3 2.2-1.4q1-.7 1.1-1.6l-.2-3.5c0-.9-1.3-1.2-2.4-.5l-3.1 2-4.5-9.3.3-.1q.8-.5.5-1.4l-3.3-6.7q-.5-.8-1.4-.5l-7.8 3.9q-.8.5-.5 1.4l3.3 6.7q.5.8 1.4.5l.8-.4 4.9 9.5-3.8 1.9c-1.2.6-1.6 1.8-.9 2.3l2.9 2q.8.5 2-.1l2.3-1.1 12.5 24.4-5.1 1.1-.5.1c-3.5.4-7.4.8-9.3-1.5a33 33 0 0 1-3-8.5l-1-3.7-.3-1-.6-2.1.6-.1q1-.2.9-1.2l-.5-4q-.2-1-1.2-.9h-.2a34 34 0 0 0-1.5-8.4q-.4-1-1.5-.8c-1.1.2-1 .9-.8 1.5.7 2.1 1.3 5.5 1.4 7.9l-15.3 2.1-.2-.7q-.6-1.3-.7-2.7l-1-9.7q-.6-9.6 3.8-14.2c2.4-2.5 5.9-3.7 9.6-5l2.6-.9a56 56 0 0 0 10.3-5.3l12.9 11.7a15.4 15.4 0 0 0 2.7 18.7m19.4 7.8c-.4-1.1-1.6-2.1-2.9-1.8q-1.4.4-1.9 1.9l-.2.8-.3 1.1c-3.2 12.7-6.6 14.7-6.7 14.8l-.4.3-2.2.6-.7.2-8.4-17.4 6.1-6.7a15.7 15.7 0 0 0 20.9-2.5l9.3 8.5q-.7 0-1.9.6c-3.8 2-7.9 4.8-8 4.9q-1.6 1-2.9 1.5l.1-3.5c.2-2.3.3-2.9.1-3.3m-8.4-9.9c-5.1 0-9.3-4.2-9.3-9.3s4.2-9.3 9.3-9.3 9.3 4.2 9.3 9.3-4.2 9.3-9.3 9.3M241.1 402l15.9-2.1c.3.3.6 1.7.8 2.3l.3 1.1 1 3.5c.9 3.6 2 7.7 3.4 9.5 1.8 2.1 4.4 2.7 7.1 2.7l4.3-.3.5-.1c2.6-.3 8.8-2.1 12.5-3.1l2.3-.6.5-.3c.7-.3 4.6-2.4 8.1-16.4l.3-1 .2-.8.1-.2.2.1-.1 2.4c-.2 4.1-.2 5.3.5 5.9q.4.3.9.4c.5.1 1.1.1 5.1-2.2 0 0 4.2-2.8 7.8-4.8q.8-.4 1-.2c.3.2.8.7 1.5.6s1.3.1 1.4.2l.2.2q-.1.8.6 1.3.6.3 1.2 0l.6.6q0 .2-.7.7-.5.4-.5 1 0 .8.5 1l.7.9-2.3 1.8q-.8.5-.5 1.4l.5 1-.6.6c-5.5 5-11.6 8.6-18 12.4l-4.8 2.8-3.4 1.6a66 66 0 0 1-29.2 6.6c-7.1.5-16.7-4.1-17.4-10.7l-2.5-14.3q-.2-2.8 0-5.5m65.8 17.1-4.7 13.9-5.5 3.3-5.2-8.4 3.4-1.6h.1l4.8-2.9zM280.6 446l-8.2 4.6c-1 .7-2.3 1.8-2.8 3.3q-.5 1.6.4 3.1l.2.2-.7.9q-1 2 .4 3.5.8.7 1.8.7.5.6 1.1.8c1.1.3 2.1-.1 2.6-.4l1.5-.7.4.6q.5.7 1.9.8.7 0 1.9-.4l16.7-6.7.1-.1 12.3 16.1q.3.1.2-.1l-7.5-18.9.2-.2 1.7-1.4c2.8-2.3 5.6-4.7 9-6.1l8.1-5 1.3-.9.8 4.2c0 .1 2.6 13 2.6 22.7 0 8-2.7 8.4-7.2 9l-1.3.2a162 162 0 0 0-12.8 2.3c-5.7 1.3-8.3 3.8-9.6 5.9-1.2-2.1-3.9-4.7-9.6-5.9q-5.4-1.2-12.8-2.3l-1.3-.2c-4.5-.6-7.2-.9-7.2-9a132 132 0 0 1 2.6-22.7l1.7-8.3c6.5-1.1 11.5-3 16.6-5.3l4.2 8.7c-3.8.9-9.2 1.8-10.5 2.6-3.4 2.3 1.2 4.4 1.2 4.4m-18.3-1.9 1.9-7 .1-.6 2.3-.3-1.5 7.4c-.1.5-2.6 13.3-2.6 23.2 0 10.1 4.5 10.7 9.3 11.4l1.3.2q7.4 1 12.7 2.3c8.4 1.9 8.8 6.7 8.8 6.9q.2 1 1.2 1.1h.1q1-.1 1.2-1.1c0-.2.4-5.1 8.8-6.9q5.3-1.1 12.7-2.3l1.3-.2c4.8-.6 9.3-1.2 9.3-11.4 0-9.9-2.5-22.7-2.6-23.2l-1-5.2 1.4-1 1.7 6.4v.3c.1.6 3.1 15.9 3.1 27.3 0 8.9-2.5 9.2-7.9 9.9l-1.6.2q-9 1.3-15.6 2.8a17 17 0 0 0-11.1 7.5 17 17 0 0 0-11.2-7.6q-6.6-1.5-15.6-2.8l-1.6-.2c-5.4-.7-7.9-1-7.9-9.9-.1-11.2 2.9-26.5 3-27.2m58.4-5.3-7.8 4.9a35 35 0 0 0-9.4 6.4l-1.7 1.4q-2.1 1.7-4.7 2.8l-16.7 6.7-1 .3.1-.3c.4-.4.6-1.3.3-1.7q-.8-.7-1.7-.3l-.4.3-1.3.6-1.7.8-.7.3q.2-.8-.4-1.3-.9-.6-1.5.1l-.3.3v-.7q.3-.5 1.2-1.1.7-.5.6-1.3-.2-1-1-.9l-.3-.2a1 1 0 0 1-.1-1.1q.5-1.1 2-2.2l7.3-4.6 4.4-2.3c-4.6-.2-6.2-3.1-2.8-2.9.7 0 3.3-.5 6-1q6.2-1.3 11.5-4.8l3.5-2.2.4-.3 17.1-14.6a15 15 0 0 0 5.5-11.3c-.2-1.7-.3-5.5-.2-6.8l3 .2.2 3.3-1.8 1.4 2.2 2.7 2.6-2.1 2.1 2.6 2.6-2.1 2.1 2.6 2.7-2.2-1.4-1.7.8-3.6 2 .2q.3 1.1.1 2l-1 10q-.7 6.2-5.3 10.6l-5.4 4.9c-4 3.1-11.7 8.2-11.7 8.2m10.8-33.3.7-3.3 2.2.2.2 3.4-1.7 1.4zm4.8.6.7-3.4 2 .2.2 3.5-1.7 1.3zm-9.8-8.9-.6-3.9 18.6 1.5a17 17 0 0 1-.2 3.9zm-1.2-8.6-.2-1.2q-.2-1.1-1.4-1c-1.2.1-1.1.7-1 1.4l1.3 9.3q-.7.1-.9.8l-.2 2.7q0 .9.9 1h.4c-.2 2.1.2 7.1.2 7.1 0 .1-.1 5.8-4.6 9.3l-11 9.4 4-12.2v-.1q2.7-2 5.4-4.4 1-.7 1.4-2 .2-1-.2-1.4l2.4-1.9q.6-.5.3-1.4l-.9-1.6q.5-.5.7-1.4.2-1.2-.5-1.8c-.8-.9-1-1.3-1.7-1.4-.1-.2 0-.8-.7-1.3l-.7-.2 7.4-22.6 8.7 7.7L339 370l-13.8-3.3c-1-.3-2.1.2-2.4 1.2l-8.1 25-8.8-8a16 16 0 0 0 .9-15.4l12.3-13.5a50 50 0 0 0 10.7 5.6l2.6.9c3.8 1.3 7.3 2.5 9.9 5.1q4.6 4.8 4 14.7l-.5 4.6c-.1.8-.5 2.2-.9 3zm-22.4-24a16 16 0 0 0-10.4-3.9q-5.7.1-9.8 3.5l-11.8-10.7q5-4 8.8-8.6 1.4 1.8 3.8 2.4l4.4 1.1v5.1h8.8v-5.1l4.4-1.1a7 7 0 0 0 4.3-3.2q3.6 4.5 8.5 8.4zm-22.8-29.4.6.8q4.5 4.7 11.5 4.7h.1q7 0 11.5-4.7l.7-.8-.4 5.5c-.2 2-1.6 3.7-3.6 4.2l-8.3 2.1-8.3-2.1a5 5 0 0 1-2.8-2.1c-.3-.4-.8-.9-.7-2.6zm25.6-16.5a20 20 0 0 1-4.6 14.6 12 12 0 0 1-8.8 3.5q-5.3 0-8.7-3.5a20 20 0 0 1-4.6-14.6q0-.8-.5-1.4t-1.4-.6h-.5c-.3-.5-1-1.9-1.2-3.9q-.2-2.6.2-3.5 1.4-.4 1.6-1.9l.1-2.2a37 37 0 0 1 30.4 0v2.2a2 2 0 0 0 1.6 1.9 11 11 0 0 1-1 7.4h-.5a2 2 0 0 0-1.4.6q-.7.6-.7 1.4m7.3-10q-.4-2-1.5-2.7v-2q0-1.1-1-1.6a40 40 0 0 0-36.1 0q-1 .6-1 1.6v2c-2.1 1.5-1.9 5.8-1.8 7.2.2 1.9.9 4.7 2.3 6.2a88 88 0 0 1-38-10.9c9.9-6.8 32.1-11.8 56.6-11.8s46.7 5 56.6 11.8a89 89 0 0 1-38.1 10.9q.6-.6 1-1.6 1-2 1.3-4.6 0-2.6-.3-4.5m-37.7 14.7q.4 4.1 2.1 7.5l.3 4.2c-26.7-2.1-47.4-10.4-47.4-19q0-2.7 2.4-5.2c8 6.2 23.2 10.8 42.6 12.5m32 7.5q1.5-3.4 2.1-7.5c19.4-1.8 34.6-6.3 42.6-12.4q2.4 2.5 2.4 5.2c0 8.6-20.7 16.8-47.4 19zm44.6-24.9c-10.5-7.9-33-13.2-59.6-13.2s-49.1 5.3-59.6 13.2q-2.4-2.5-2.5-5.2c0-10.4 29-19.5 62.1-19.5s62.1 9.1 62.1 19.5q0 2.6-2.5 5.2M249 484.6V639q-2.7-.3-5.5-.3h-69.9a27.5 27.5 0 0 1-27.5-27.5V268.8H291a3 3 0 0 0-3.2 3.2v1.9a175 175 0 0 0-34.3 4.3 92 92 0 0 0-16.2 6.1 41 41 0 0 0-5.5 3.7 16 16 0 0 0-3.5 4.3q-1.4 2.7-1.8 5.7l-.1 2.5q0 2.6 1.2 5.1l1.3 1.9.9 1.1q-3.5 3.6-3.5 7.7c0 11.2 21.2 20.6 51.6 22.9l.1 1.6-.1.1a57 57 0 0 1-26.4 19c-3.9 1.4-8 2.8-11.1 5.9q-5.6 5.7-4.9 17.3l1 9.7q.2 1.9.9 3.6h-.3q-1 .2-.9 1.2l.5 4q.2.8.9.9a19 19 0 0 0 .2 5.3l3.4 14.2c.8 7.5 9.8 14.8 17.9 14.9l-5.7 21a84 84 0 0 0-4.4 26.7m19.7 135q0 1.9-.6 3.6-.9 2.8.2 5.3.3.5.1 1.1l-3.3 11.9a3 3 0 0 0-.1 2.3 50 50 0 0 0-11.2-4V512.3c3.7 16.3 8.5 34.4 9.8 39.5q.3 1 .1 2.1l-2.8 14.1a9 9 0 0 0 .1 4l7.6 32.6.1 1.1zm16.9 23.1h-1.8l-1.7.1c-1 .4-1.2.3-1.8.3h-1.8q-1 0-1.7-.2l-2.2-.3h-.6l-1.3.1q-1.7.3-2.7-.2l-.2-.1 3.2-11.6q.6-2.3-.3-4.4-.4-1-.1-1.9.9-2.5.8-5.1v-13.8q0-1.1-.3-2.2l-7.6-32.7q-.3-1 0-2l2.8-14.1q.4-2.1-.1-4.3c-2.2-8.2-13.2-50.1-14.3-63.4q-.5-7 .5-13.4c.7 10.8 6.7 11.6 12 12.3l1.5.2q8.8 1.3 15.2 2.7c7.7 1.7 9.4 7.3 9.8 9.9l-.1.7-6.8 49.8q-.3 1.8.2 3.5l3.5 15a4 4 0 0 1-.1 2.4l-6.1 21.3-.4 2.6-.5 25.8-.2 6.5c-.1 1.6.1 5.6 1.2 7.7l3.2 6.5.1.1q.5.6.5 1.6-.9.6-1.8.6m14.1-4.7a10 10 0 0 0-1.3 3.8c-.2 2.3-5.9 2.4-6.1-.1a7 7 0 0 0-1.2-3.5l-3.1-6.3c-.5-.9-.8-3.7-.7-5.3l.2-6.7.5-25.8.2-1.3 6.1-21.3q.7-2.4.1-4.8l-3.5-15q-.2-1-.1-1.7l4.5-33.2L300 550q.2 1-.1 1.7l-3.5 15q-.5 2.5.1 4.8l6.1 21.3.2 1.4.5 25.7.2 6.7c.1 1.6-.3 4.4-.8 5.4zm21.2 4.7q-1.1.5-2.8.2l-1.3-.1q-2 0-2.8.2l-1.7.2h-1.8c-.6 0-.8 0-1.8-.3q-.4-.2-1.6-.1h-1.8l-2-.4v-.2q0-.7.6-1.6l3.1-6.4c1.1-2.2 1.3-6.1 1.3-7.7l-.2-6.6-.5-25.7q0-1.3-.4-2.7l-6.1-21.3q-.3-1.2-.1-2.4l3.5-15q.4-1.7.2-3.5l-6.8-49.7-.1-.7c.4-2.5 2.1-8.1 9.8-9.8a203 203 0 0 1 15.3-2.7l1.5-.2c5.3-.7 11.3-1.5 12-12.4q1 6.3.5 13.3c-1.1 13.3-12.1 55.1-14.3 63.4a9 9 0 0 0-.1 4.3l2.8 14.1v2l-7.6 32.7q-.3 1-.3 2.2v13.8q0 2.7.8 5.1.3 1-.1 1.9-.9 2.2-.3 4.4c1 3.2 2.8 10.1 3.2 11.6zm16.2-3.2q-5.8 1-11.1 3.3 0-.7-.3-1.4c-.6-2.1-2.3-8.7-3.3-11.9q-.2-.5.1-1.1 1-2.7.2-5.3-.6-1.8-.6-3.6v-13.8l.1-1.1L330 572q.4-2 .1-4l-2.8-14.1a5 5 0 0 1 .1-2.1c1.4-5.1 6.1-23.2 9.8-39.6v127.3zm105.6-28.3a27.5 27.5 0 0 1-27.5 27.5h-69.9l-3.4.2V484.5c.3-12-3.3-23.3-4.5-26.7l-6.4-23.2 2.7-2.1 5.5-5q5.2-5 6.1-12.1l1-9.9q.2-1.2 0-2.2l.8.1q.9 0 1-.9l.2-2.7q0-.9-.9-1l-.7-.1q.3-2 .2-3.9l.7.1q.9 0 1-.9l.2-2.7q0-.9-.9-1l-.7-.1q.6-1.8.8-3l.5-4.6q.7-11-4.7-16.6c-2.9-3-6.9-4.4-10.8-5.7l-2.6-.9a58 58 0 0 1-24-18.2l.1-.5.1-1.8c30.4-2.3 51.6-11.7 51.6-22.9q0-4-3.5-7.7a12 12 0 0 0 3.1-5.2 13 13 0 0 0-.4-8.5 17 17 0 0 0-5.7-7.7q-3-2.2-6.4-3.9a85 85 0 0 0-18.6-6 159 159 0 0 0-24.6-3.1l-5.7-.2V272c0-1.7-1.4-3.2-3.2-3.2h149.1v342.4z" fill="#b39461" id="path10"/><path class="st4" d="M294.1 731.8c-64.4 0-121.2-15.8-154.8-39.8v-20.6c0-5.1 5.5-8.2 9.8-5.6 34.3 20.4 86.5 33.4 145 33.4 58.7 0 111.1-13.1 145.3-33.6a7 7 0 0 1 10.4 5.9v19.9c-33.5 24.3-90.7 40.4-155.7 40.4z" fill="#fff" stroke="#b39461" stroke-miterlimit="10" stroke-width=".9" id="path11"/><g stroke="#000" stroke-width=".4" id="g41"><path d="M161.7 688.5q.1-1.1-.2-2t-1.4-1.2l-1.4-.3q-.6 0-1 .4-.6.4-.8.9l-.6 1.1-.4.9-.5 1.6v1.2l.5.9q.4.4 1 .6l.9.2q.3 0 .7-.3l.5-.6.4-.9.2-.4-1.2-.5.1-.1 3.6 1.5-.1.1-.7-.3-1 2.4-.2-.1-.1-.2-.2-.2-.6-.1h-.6l-.8-.1-.9-.3q-.9-.4-1.5-1-.8-.8-1-1.4-.4-.7-.4-1.6c0-.9 0-1.1.3-1.7q.3-1 1.1-1.4l1.5-.8q.8-.2 1.7-.2c.9 0 1.1.2 1.6.4l.6.3.5.4.4.3.3.2h.2l.2-.1.2.1-.9 2.1z" id="path12"/><path d="m171.4 689.8-.7 1.8-.2-.1v-.5l-.2-.7-.5-.7-.9-.6-1.8-.7-1.3 3.2.7.3.8.2.6-.1.5-.4.5-.6.2.1-1.3 3.3-.2-.1v-.7l-.1-.6-.3-.5q-.2-.3-.6-.4l-.8-.3-1.5 3.8 1.9.7 1 .2.9-.2.8-.5.7-.7.2.1-.9 2.3-7.4-2.9.1-.1 1.1.4 2.8-7.2-1.1-.4.1-.1z" id="path13"/><path d="m175.3 691.2 2.1 6.4 1.8-4.9-1.1-.4.1-.1 2.3.8-.1.1-1.1-.4-2.7 7.4-.3-.1-2.8-8.7-2.4 6.6 1.1.4-.1.1-2.3-.8.1-.1 1.1.4 2.6-7.2-1.1-.4.1-.1z" id="path14"/><path d="m183.4 694.2-.8-.2-.7.1-.7.4-.7.8-.2-.1.6-2 7.4 2.5-.6 2-.2-.1-.1-1-.3-.7-.5-.5-.8-.3-.4-.1-2.4 7.3 1.1.4v.1l-3.9-1.3v-.1l1.1.4 2.4-7.3z" id="path15"/><path d="M193.2 697.2v.1l-1.2-.3-2.3 7.3 1.1.3v.2l-3.9-1.2v-.2l1.1.3 2.3-7.3-1.1-.3v-.2z" id="path16"/><path d="M197.8 698.5v.2l-1.1-.3-1.4 4.9-.2 1v.9l.4.8q.3.3 1 .5l1.1.2.8-.1.6-.4.4-.5.2-.5.1-.4 1.4-5.1-1.1-.3v-.2l2.4.7v.2l-1.1-.3-1.4 5.1-.1.4q0 .3-.3.5l-.4.5-.6.4-.9.1-1.3-.2-1.8-.8-.9-.9-.3-1 .2-1 1.4-5-1.1-.3v-.2z" id="path17"/><path d="m206 700.8.7 6 3.5-4.9 3 .8v.2l-1.1-.3-1.9 7.5 1.1.3v.2l-4-1v-.2l1.1.3 1.9-7.5-4.9 6.8h-.2l-1.1-8.4-1.9 7.5 1.1.3v.2l-2.4-.6v-.2l1.1.3 1.9-7.5-1.1-.3v-.2z" id="path18"/><path d="M223.9 704.9v.2l-1.2-.2 1.3 6.5 3.8-5.5-1.1-.2v-.2l2.3.5v.2l-1.1-.2-5.1 7.3-.4-.1-1.8-8.7-1-.2v-.2z" id="path19"/><path d="m236.4 707.2-.3 1.9h-.2l-.1-.5-.3-.6-.6-.6-1-.4-2-.3-.6 3.4.7.1q.5.1.8 0l.6-.2.4-.5.3-.6h.2l-.6 3.4h-.2l-.1-.7-.2-.6-.4-.4-.7-.3-.8-.1-.7 4 2 .4h1.1l.9-.3.7-.6.5-.8h.2l-.4 2.4-7.9-1.4v-.2l1.1.2 1.3-7.6-1.1-.2v-.2z" id="path20"/><path d="M241.8 708v.2l-1.1-.2-1.1 7.6 2 .3h.8q.5 0 .8-.3l.8-.6.6-1h.2l-.4 2.5-7.8-1.2v-.2l1.1.2 1.1-7.6-1.1-.2v-.2z" id="path21"/><path d="M253 709.7v-.2l7.3.8-.2 1.9h-.2l-.3-.8-.4-.6-.6-.4-.9-.2-1.9-.2-.4 3.6.7.1h.8l.6-.3.4-.5.3-.7h.2l-.4 3.5h-.2l-.1-.6-.3-.6-.5-.4-.7-.2-.8-.1-.4 3.9 1.2.1v.2l-4.1-.4v-.2l1.1.1.8-7.6z" id="path22"/><path d="M261.6 712.7q.5-.7 1.2-1.2.9-.7 1.6-.7l1.7-.2q1 0 1.7.4l1.4.9 1 1.4q.3.8.3 1.8t-.5 1.6q-.6.9-1.1 1.2l-1.5.8q-.9.3-1.8.2-1.1-.1-1.7-.5l-1.4-1a4 4 0 0 1-1.2-3.1q-.2-.9.3-1.6zm1.4 3.8.4 1.3q.3.5.8.7l1.2.3q.9 0 1.5-.2c.6-.2.6-.4.8-.8q.3-.5.4-1.3l.2-1.6.1-1.5-.2-1.3q-.2-.6-.7-.9-.6-.4-1.4-.4-1 0-1.4.2-.6.3-.9.8l-.5 1.2-.2 1.6z" id="path23"/><path d="M271.4 711.3v-.2l1.9.1h2l1 .1q.5 0 1 .4l.7.6q.3.5.2.9t-.3.8l-.6.5-.8.3-.9.1v.1l1.1.3.8.3q.3.1.5.6l.2 1v1.1l.1.7q0 .3.2.3l.3.1.4-.1.3-.2.1.1-.3.2-.3.1-.4.1h-.6l-1.1-.2q-.4-.2-.5-.5l-.2-.6v-1.5l-.2-.8q-.1-.3-.5-.6t-.9-.2h-.8l-.2 4.1 1.1.1v.2l-4.1-.2v-.2l1.1.1.4-7.7zm3.3 3.6.9-.1.5-.3.2-.5.1-.6v-.9l-.2-.6-.5-.4-.8-.2h-.6l-.2 3.5z" id="path24"/><path d="m282.7 711.8-.8.1q-.4 0-.7.3l-.5.6q-.3.4-.4.9h-.2l.1-2.1 7.8.2-.1 2.1h-.2a3 3 0 0 0-.9-1.6l-.6-.3-.8-.1h-.4l-.2 7.7h1.1v.2l-4.1-.1v-.2h1.1l.2-7.7z" id="path25"/><path d="M292.9 711.8v.2h-1.1l-.1 7.7h1.1v.2h-4.1v-.2h1.1l.1-7.7h-1.1v-.2z" id="path26"/><path d="m294.2 717.3.1.4.2.5.3.5.4.5.6.4.5.2.5.1h.4l1.1-.2.7-.5.3-.6.1-.5-.2-.7q-.2-.3-.6-.4l-.8-.3-1-.2-1-.3-.8-.4-.6-.7-.2-1 .2-.9q.2-.4.6-.7l.9-.5 1.2-.2.7.1.6.1.4.1.3.1.2-.1.1-.2h.2v2.1h-.2l-.3-.8-.4-.7-.7-.5-1-.2-.9.1-.6.3-.4.5-.1.5.2.6.6.4.9.3 1 .3 1 .3.9.4.6.6q.3.5.2.9l-.2 1-.7.9q-.5.4-1.1.6-.6.3-1.4.2l-.8-.1-.7-.1-.6-.1-.4-.1-.2.1-.1.2h-.2v-2.5z" id="path27"/><path d="m302.2 717.2.1.4.2.5.3.5.5.5.6.4.5.2.5.1h.4l1.1-.2.7-.5.3-.6.1-.5-.2-.7-.6-.4-.8-.3-1-.2-1-.3-.8-.4-.6-.7-.3-1 .2-.9.6-.8.9-.5 1.2-.2h.7l.6.1.4.1.3.1.2-.1.1-.2h.2l.1 2.1h-.2l-.3-.8-.5-.7-.7-.5-1-.2-.9.2-.6.3-.4.5-.1.5q0 .4.3.6l.6.4.9.3 1 .2 1 .3.9.4.6.6.3.9-.2 1.1-.7.9q-.5.4-1.1.6t-1.4.3h-.8l-.7-.1-.6-.1-.4-.1-.2.1-.1.2h-.2l-.1-2.5z" id="path28"/><path d="M313.6 711.2v.2l-1.1.1.4 7.7 1.1-.1v.2l-4.1.2v-.2l1.1-.1-.4-7.7-1.1.1v-.2z" id="path29"/><path d="m317.5 711 2.6 5.4 1.8-5.7 3.1-.2v.2l-1.1.1.6 7.7 1.1-.1v.2l-4.1.3v-.2l1.1-.1-.6-7.7-2.5 8h-.2l-3.6-7.6.6 7.7 1.1-.1v.2l-2.5.2v-.2l1.1-.1-.6-7.7-1.1.1v-.2z" id="path30"/><path d="m326.6 718.2 2.9-8.5h.3l4.7 7.7 1.1-.1v.2l-4.2.4v-.2l1.2-.1-1.7-2.8-3 .3-1.1 3.1 1.1-.1v.2l-2.3.2v-.2zm1.3-3.4 2.9-.3-1.8-2.9z" id="path31"/><path d="M334.7 709.6v-.2l1.9-.2 1-.1 1-.1h1l1 .2.8.5q.4.3.4.9l-.1.8-.5.6-.7.4-.8.2v.1l1.1.1.9.2.6.5q.3.3.4.9l.2 1.1.2.6.2.3h.4l.4-.2.3-.3.1.1-.2.2-.3.2-.4.2-.6.1q-.7.1-1.1-.1t-.6-.4l-.3-.6-.1-.6-.2-.9-.3-.7-.6-.5-.9-.1-.8.1.5 4 1.1-.1v.2l-4.1.5v-.2l1.1-.1-1-7.6zm3.9 3 .9-.2.4-.4.1-.5v-.6l-.2-.8-.3-.5-.5-.3h-1.1l-.3.1.4 3.4z" id="path32"/><path d="M347.4 707.7v.2l-1.1.2.8 5 .2 1 .4.8.7.5 1.1.1 1.1-.3.7-.5.4-.6.1-.6v-.5l-.1-.4-.8-5.2-1.1.2v-.2l2.5-.4v.2l-1.1.2.8 5.2.1.5v.6l-.2.6-.4.6-.8.5-1.2.3-2 .1q-.7 0-1.2-.5-.5-.3-.6-.8l-.3-1-.8-5.2-1.1.2v-.2z" id="path33"/><path d="m355.9 706.4 3.1 5.1 1.2-5.9 3.1-.6v.2l-1.1.2 1.4 7.6 1.1-.2v.2l-4 .7v-.2l1.1-.2-1.4-7.6-1.6 8.3h-.2l-4.4-7.2 1.4 7.6 1.1-.2v.2l-2.5.4v-.2l1.1-.2-1.4-7.6-1.1.2v-.2z" id="path34"/><path d="M374.5 702.5v.2l-1.1.3 1.7 7.5 1.1-.3v.2l-4 .9v-.2l1.1-.3-1.7-7.5-1.1.3v-.2z" id="path35"/><path d="m377.8 701.9-.8.3-.6.4-.4.7-.2 1h-.2l-.5-2 7.6-1.9.5 2h-.2l-.6-.8q-.3-.4-.6-.4l-.7-.1-.8.1-.4.1 1.8 7.5 1.1-.3v.2l-4 1v-.2l1.1-.3-1.8-7.5z" id="path36"/><path d="m385.9 707.8 1.4-8.8.3-.1 5.9 6.8 1-.3v.2l-4 1.1v-.2l1.1-.3-2.2-2.5-2.9.8-.5 3.3 1.1-.3v.2l-2.3.6v-.2zm.8-3.5 2.8-.8-2.2-2.6z" id="path37"/><path d="M396.5 696.7v.2l-1.1.3 2.2 7.4 2-.6.8-.4.6-.6.4-.9.1-1.2h.2l.7 2.4-7.6 2.3v-.2l1.1-.3-2.2-7.4-1.1.3v-.2z" id="path38"/><path d="M404.9 694.1v.2l-1.1.4 2.4 7.3 1.1-.4v.2l-3.9 1.3v-.1l1.1-.4-2.4-7.3-1.1.4v-.2z" id="path39"/><path d="m408.4 701.2.9-8.9.3-.1 6.4 6.4 1-.3.1.1-4 1.4-.1-.1 1.1-.4-2.4-2.4-2.8 1-.3 3.3 1.1-.4.1.1-2.2.8-.1-.1zm.5-3.6 2.7-.9-2.4-2.4z" id="path40"/><path d="m421.3 688.2.7 1.8-.2.1-.4-.4-.6-.4-.8-.2-1 .2-1.9.7 1.2 3.3.7-.2.7-.4.4-.5.1-.6v-.7l.2-.1 1.2 3.3-.2.1-.4-.5-.5-.4-.6-.2-.7.1-.8.3 1.4 3.8 1.9-.7q.6-.2.9-.5l.6-.7.3-.9v-1l.2-.1.9 2.3-7.5 2.8-.1-.1 1.1-.4-2.7-7.2-1.1.4-.1-.1z" id="path41"/></g></g><!-- app4joy -->
</svg>