<svg width="750" height="500" viewBox="0 0 750 500" id="svg2" xml:space="preserve" xmlns="http://www.w3.org/2000/svg"><g id="g3"><path d="M0 0h750v500H0Z" id="rect4-5" style="fill:#fff;fill-opacity:1"/><path d="M150 0h50v500h-50z" id="rect4" style="fill:#009149;fill-opacity:1"/><path d="M550 0h50v500h-50z" id="rect8" style="fill:#e2001a;fill-opacity:1"/></g><g transform="translate(349.7 100)scale(.49998)" id="g2" style="font-style:normal;font-variant:normal;font-weight:300;font-stretch:normal;font-size:144px;line-height:125%;font-family:&quot;Adobe Song Std L&quot;;-inkscape-font-specification:&quot;Adobe Song Std L Light&quot;;letter-spacing:0;word-spacing:0;fill:#fabb00;fill-opacity:1;stroke:none;stroke-width:1.5;stroke-miterlimit:4;stroke-opacity:1"><path d="M-258.7-125.7v-22.6q0-1 .2-1.5.2-.3.5-.3l4.2-.1q6.3 0 10 2.9 3.8 3 3.9 9.3 0 3.4-1.1 5.9a10 10 0 0 1-7 5.8 25 25 0 0 1-5.9.6zm-12.1 24h19.6v-1.2q-5 0-6.4-1.7t-1.1-6.3V-124q4.9-.2 7.4.4 2.3.4 3.8 2.5a104 104 0 0 0 9.7 14q3.9 4.4 6.9 5.3 3 1 6.6.9l.2-1a17 17 0 0 1-6.8-5 112 112 0 0 1-10.7-13.4l-3.1-5.2a18 18 0 0 0 7.2-5.3q2.4-3.2 2.5-8.3-.3-7.5-5.3-10.1-5-2.7-11.2-2.5h-19v1.2q5 .2 6.3 1.6 1.4 1.5 1.1 6v32.1q.3 4.7-1.2 6.3-1.3 1.6-6.5 1.7z" id="path3894" style="font-size:80px;-inkscape-font-specification:&quot;Adobe Song Std L Light&quot;;fill:#fabb00;fill-opacity:1;stroke:#fabb00;stroke-width:2.00009;stroke-miterlimit:4;stroke-dasharray:none;stroke-opacity:1"/><path d="M-220.8-101.7h37.4l2.9-12.8h-1.4a24 24 0 0 1-4.4 7.9 9 9 0 0 1-5.3 2.6q-3.3.5-7 .4a14 14 0 0 1-7.4-1q-2.5-1-2.5-6.5v-15.6h9.4q4.4-.2 6.3 1 1.8 1 2.7 5.5h1.4v-14.9h-1.4q-.8 4-2.6 5-1.8 1.3-6.4 1.2h-9.4v-18.8q0-1.5.3-1.9.4-.3 2-.3h7.5q7 0 9.4 2.2t3.4 8.4l1.4-.3-.7-12.2H-220v1.1q4.8 0 6.1 1.8 1.4 1.8 1.2 6.8v31.3q.1 4.5-1.3 6.1t-6.8 1.8z" id="path3896" style="font-size:80px;-inkscape-font-specification:&quot;Adobe Song Std L Light&quot;;fill:#fabb00;fill-opacity:1;stroke:#fabb00;stroke-width:2.00009;stroke-miterlimit:4;stroke-dasharray:none;stroke-opacity:1"/><path d="M-122.1-124.2H-141v1.1q6.6.5 8.2 1.8 1.5 1.5 1.4 5v7q0 2.6-.8 3.8a5 5 0 0 1-2.6 1.7q-1.8.6-4.4 1l-5.8.3a24 24 0 0 1-14.1-4 22 22 0 0 1-7.7-9.5 29 29 0 0 1-2.3-11.4q0-11.3 6-17.4 5.8-6.1 17.4-6.3a20 20 0 0 1 10.7 2.3q4.4 2.5 6.4 10l1.3-.2-1.3-11.9a54 54 0 0 0-15.6-2.1 37 37 0 0 0-15 3 25 25 0 0 0-15.6 23.7q.3 11.6 8.3 18.6 8.1 6.9 21.5 7.2 5-.1 9.7-1.2l8.8-2.1q-.5-1.2-.6-3l-.1-3.8v-7.2q-.2-2.6.7-3.7t4.3-1.6z" id="path3898" style="font-size:80px;-inkscape-font-specification:&quot;Adobe Song Std L Light&quot;;fill:#fabb00;fill-opacity:1;stroke:#fabb00;stroke-width:2.00009;stroke-miterlimit:4;stroke-dasharray:none;stroke-opacity:1"/><path d="M-117-101.7h19.3v-1.2q-5 0-6.4-1.7t-1.2-6.3v-31.8q-.2-4.5 1.2-6.2 1.4-1.6 6.4-1.8v-1.1h-19.4v1.1q5 .1 6.4 1.8t1.2 6.2v31.8q.3 4.7-1.2 6.3-1.3 1.6-6.4 1.7z" id="path3900" style="font-size:80px;-inkscape-font-specification:&quot;Adobe Song Std L Light&quot;;fill:#fabb00;fill-opacity:1;stroke:#fabb00;stroke-width:2.00009;stroke-miterlimit:4;stroke-dasharray:none;stroke-opacity:1"/><path d="M-62.7-153q-9 0-15.3 4a26.4 26.4 0 0 0-5.2 41.2 28.7 28.7 0 0 0 38.4-.3q8-7.2 8.2-19.4-.3-11.8-8-18.6a27 27 0 0 0-18.1-7zm-2.3 1.9q9.9 0 16.3 6.7 6.4 6.6 6.7 20.3-.3 10.6-6.2 16.1t-14.4 5.5q-9.9-.1-16.2-7.1t-6.6-18.9q.3-11.5 6.2-17a20 20 0 0 1 14.2-5.6z" id="path3902" style="font-size:80px;-inkscape-font-specification:&quot;Adobe Song Std L Light&quot;;fill:#fabb00;fill-opacity:1;stroke:#fabb00;stroke-width:2.00009;stroke-miterlimit:4;stroke-dasharray:none;stroke-opacity:1"/><path d="M-30.4-101.7h19.9v-1.2q-4-.3-6-1.3a5 5 0 0 1-2.5-3 28 28 0 0 1-.5-5.2l-.2-9.5v-21.3h.1l37 42h.8v-31.2l.1-9q.2-3.2.7-5a5 5 0 0 1 2.2-2.9q1.8-1 5.2-1.4v-1.1H6.5v1.1q6.8 0 8.3 3.5t1.2 14.8v22.8h-.3l-37-42.2H-31v1.1q3.2.3 4.7 1 1.7.8 2.6 2 1 1 1.5 2.2t.3 6.2v17.4q0 6-.2 9.6a28 28 0 0 1-.6 5.3q-.5 1.6-2.3 2.8t-5.3 1.3z" id="path3904" style="font-size:80px;-inkscape-font-specification:&quot;Adobe Song Std L Light&quot;;fill:#fabb00;fill-opacity:1;stroke:#fabb00;stroke-width:2.00009;stroke-miterlimit:4;stroke-dasharray:none;stroke-opacity:1"/><path d="M30.3-101.7h37.4l2.9-12.8h-1.4a24 24 0 0 1-4.5 7.9 9 9 0 0 1-5.2 2.6q-3.3.5-7 .4a14 14 0 0 1-7.4-1q-2.5-1-2.5-6.5v-15.6h9.3q4.5-.2 6.4 1 1.8 1 2.7 5.5h1.3v-14.9H61q-.8 4-2.6 5-1.8 1.3-6.5 1.2h-9.3v-18.8q0-1.5.3-1.9t2-.3h7.4q7 0 9.5 2.2t3.4 8.4l1.4-.3-.7-12.2H31v1.1q4.8 0 6.1 1.8 1.4 1.8 1.1 6.8v31.3q.3 4.5-1.2 6.1t-6.8 1.8z" id="path3906" style="font-size:80px;-inkscape-font-specification:&quot;Adobe Song Std L Light&quot;;fill:#fabb00;fill-opacity:1;stroke:#fabb00;stroke-width:2.00009;stroke-miterlimit:4;stroke-dasharray:none;stroke-opacity:1"/><path d="M104.2-148q0-1.3.2-1.7t.6-.4l1.5-.1h2.6q7.4 0 11.1 3 3.8 3.2 3.8 9.7-.2 7-3.8 10-3.7 3-9.2 3-2.7 0-4.5-.5l-2.3-.7zm-11.8 46.3h20.5v-1.2q-5.9-.2-7.4-1.7c-1.5-1.5-1.4-3-1.3-6.1V-124l6.4 1.8a18 18 0 0 0 15.5-6.3q3-3.6 3.2-9.4-.3-6.6-3.4-9.5-3.3-3-7.3-3.8c-4-.8-5-.7-6.8-.6h-19v1.2q5.1 0 6.2 1.7 1.1 1.4 1 6.2v31.8q0 4.6-1.3 6.3-1.4 1.6-6.3 1.7z" id="path3908" style="font-size:80px;-inkscape-font-specification:&quot;Adobe Song Std L Light&quot;;fill:#fabb00;fill-opacity:1;stroke:#fabb00;stroke-width:2.00009;stroke-miterlimit:4;stroke-dasharray:none;stroke-opacity:1"/><path d="M183.2-131.8a144 144 0 0 1 .8-14.5q.3-1.8 2.2-3 2-1 5.2-1.4v-1.1h-19.7v1.1q4.2.5 6.3 1.5t2.4 3q.4 1.6.5 4.8l.1 9.6v4.2a32 32 0 0 1-3.7 17q-4 6.2-13 6.4-8.1 0-12.7-5t-4.6-15.4v-17.8q0-4.7 1.2-6.5t6.2-1.8v-1.1H135v1.1q5.1.3 6.6 1.8 1.4 1.5 1.2 6.5v20.3q0 6.6 1.6 10.8a16 16 0 0 0 10.8 9.6 25 25 0 0 0 15-.6q3.9-1.5 6.6-4a20 20 0 0 0 5-9q1.3-5.2 1.3-12.7z" id="path3910" style="font-size:80px;-inkscape-font-specification:&quot;Adobe Song Std L Light&quot;;fill:#fabb00;fill-opacity:1;stroke:#fabb00;stroke-width:2.00009;stroke-miterlimit:4;stroke-dasharray:none;stroke-opacity:1"/><path d="M249.4-124.2h-18.7v1.1q6.6.5 8.2 1.8 1.6 1.5 1.3 5v7q0 2.6-.8 3.8t-2.5 1.7a47 47 0 0 1-10.2 1.3 24 24 0 0 1-14.2-4 22 22 0 0 1-7.6-9.5 29 29 0 0 1-2.4-11.4q0-11.3 6-17.4t17.5-6.3a20 20 0 0 1 10.6 2.3q4.4 2.5 6.5 10l1.3-.2-1.4-12a54 54 0 0 0-15.6-2.1 37 37 0 0 0-15 3 25 25 0 0 0-15.6 23.7q.3 11.6 8.4 18.6a33 33 0 0 0 21.4 7.2q5-.1 9.8-1.2l8.8-2.1q-.5-1.2-.6-3-.2-1.7-.1-3.8v-7.2q-.2-2.6.7-3.7t4.2-1.6z" id="path3912" style="font-size:80px;-inkscape-font-specification:&quot;Adobe Song Std L Light&quot;;fill:#fabb00;fill-opacity:1;stroke:#fabb00;stroke-width:2.00009;stroke-miterlimit:4;stroke-dasharray:none;stroke-opacity:1"/><path d="M291-114.2a29 29 0 0 1-4.2 7.7q-1.4 1.4-4.1 2.1t-6.4.7q-6 .3-8-1.1-2.2-1.5-2-7.6v-30.3q-.2-4.5 1.2-6.2 1.4-1.6 6.8-1.8v-1.1h-19.9v1.1q5.2.1 6.5 1.8 1.4 1.7 1.2 6.2v31.4q.1 5-1.1 6.6-1.3 1.8-6.3 1.8v1.2h34.8q.5-3 1.5-6.6l1.4-6z" id="path3914" style="font-size:80px;-inkscape-font-specification:&quot;Adobe Song Std L Light&quot;;fill:#fabb00;fill-opacity:1;stroke:#fabb00;stroke-width:2.00009;stroke-miterlimit:4;stroke-dasharray:none;stroke-opacity:1"/><path d="M296.5-101.7H316v-1.2q-5 0-6.4-1.7t-1.2-6.3v-31.8q-.2-4.5 1.2-6.2 1.4-1.6 6.4-1.8v-1.1h-19.4v1.1q5 .1 6.4 1.8t1.2 6.2v31.8q.2 4.7-1.2 6.3t-6.4 1.7z" id="path3916" style="font-size:80px;-inkscape-font-specification:&quot;Adobe Song Std L Light&quot;;fill:#fabb00;fill-opacity:1;stroke:#fabb00;stroke-width:2.00009;stroke-miterlimit:4;stroke-dasharray:none;stroke-opacity:1"/><path d="M354.2-101.7h18.3v-1.2q-4-.5-5.5-2-1.5-1.4-3.2-5.6a622 622 0 0 1-10.3-27.7l-5.3-14.8-1 .4-17.4 40.7a19 19 0 0 1-3.8 6.8q-1.8 1.6-5.8 2.2v1.2h18.2v-1.2q-3.4-.5-5-1.2t-1.6-2.7q0-1.5 1-4.6a122 122 0 0 1 3.8-10.2H355q2.4 5.7 3.8 9.8 1.6 4.2 1.6 5.9 0 1.4-1.4 2-1.5.7-4.8 1zm-7.6-43.9 7.7 21.5h-16.8a411 411 0 0 1 8.9-21.5z" id="path3918" style="font-size:80px;-inkscape-font-specification:&quot;Adobe Song Std L Light&quot;;fill:#fabb00;fill-opacity:1;stroke:#fabb00;stroke-width:2.00009;stroke-miterlimit:4;stroke-dasharray:none;stroke-opacity:1"/></g><g transform="matrix(.30172 0 0 .30304 287.7 81.1)" id="g1" style="stroke-width:2.93268;stroke-miterlimit:4;stroke-dasharray:none"><path id="path4138-8" d="M578.5 942.5c0 30-24.2 54.2-54.2 54.2H341.4a54 54 0 0 0-54.1 54.2c0-30-24.3-54.2-54.2-54.2H55.7c-30 0-54.2-24.3-54.2-54.2V292.4h577z" style="fill:#008ac9;fill-opacity:1;stroke:#000;stroke-width:2.97638;stroke-linecap:butt;stroke-linejoin:miter;stroke-miterlimit:4;stroke-dasharray:none;stroke-dashoffset:0;stroke-opacity:1"/><path transform="rotate(10.4 3274.1 -7713)scale(1.33403)" d="m1519.2 1027-176.1 32.3-147.5-101.6-32.4-176.2L1264.8 634l176.2-32.4 147.5 101.7 32.4 176.2z" id="path3856-4" style="fill:#e2001a;fill-opacity:1;stroke:#000;stroke-width:2.23112;stroke-linecap:butt;stroke-linejoin:miter;stroke-miterlimit:4;stroke-dasharray:none;stroke-dashoffset:0;stroke-opacity:1"/><path transform="rotate(10.4 1655.4 -5486.4)scale(1.02653)" d="m1519.2 1027-176.1 32.3-147.5-101.6-32.4-176.2L1264.8 634l176.2-32.4 147.5 101.7 32.4 176.2z" id="path3856" style="fill:#fff;stroke:#000;stroke-width:2.89945;stroke-linecap:butt;stroke-linejoin:miter;stroke-miterlimit:4;stroke-dasharray:none;stroke-dashoffset:0;stroke-opacity:1"/><path id="path3900-7" d="M303.9 666.3s-13.1-6-3-24.8c5.9 13.8 3 24.8 3 24.8z" style="fill:#009149;fill-opacity:1;stroke:#000;stroke-width:2.97638;stroke-linecap:butt;stroke-linejoin:miter;stroke-miterlimit:4;stroke-dasharray:none;stroke-opacity:1"/><path id="path3902-4" d="M312 656s-10.2-11.5 1.6-19.7c3 8.5-1.6 19.7-1.6 19.7z" style="fill:#009149;fill-opacity:1;stroke:#000;stroke-width:2.97638;stroke-linecap:butt;stroke-linejoin:miter;stroke-miterlimit:4;stroke-dasharray:none;stroke-opacity:1"/><path id="path3904-0" d="M325.6 656.6s-10.2-.1-19.3 9.2c0 0 6 9.8 19.3-9.2z" style="fill:#009149;fill-opacity:1;stroke:#000;stroke-width:2.97638;stroke-linecap:butt;stroke-linejoin:miter;stroke-miterlimit:4;stroke-dasharray:none;stroke-opacity:1"/><path id="path3906-9" d="M327.6 640.5s-7.4-1-7.9-3.4c0 0 3.9-6.9 8.6-5.4 0 0 1.3 3.8-.6 9.3" style="fill:#009149;fill-opacity:1;stroke:#000;stroke-width:2.97638;stroke-linecap:butt;stroke-linejoin:miter;stroke-miterlimit:4;stroke-dasharray:none;stroke-opacity:1"/><path id="path3908-4" d="M330 674.8s-5.9-8.9.6-18.3c3.7 14.3-.5 18.3-.5 18.3z" style="fill:#009149;fill-opacity:1;stroke:#000;stroke-width:2.97638;stroke-linecap:butt;stroke-linejoin:miter;stroke-miterlimit:4;stroke-dasharray:none;stroke-opacity:1"/><path id="path3910-8" d="M343.7 661.2s-10-11 1.3-21.2c2.9 15.3-1.3 21.2-1.3 21.2z" style="fill:#009149;fill-opacity:1;stroke:#000;stroke-width:2.97638;stroke-linecap:butt;stroke-linejoin:miter;stroke-miterlimit:4;stroke-dasharray:none;stroke-opacity:1"/><path id="path3912-8" d="M333.8 675.7s9.5-8.9 21.6-.2c-13.3 6.3-21.6.2-21.6.2z" style="fill:#009149;fill-opacity:1;stroke:#000;stroke-width:2.97638;stroke-linecap:butt;stroke-linejoin:miter;stroke-miterlimit:4;stroke-dasharray:none;stroke-opacity:1"/><path id="path3914-2" d="M349.3 658.7s.1-8.4 7.4-13.1c2.3 9.2-7.4 13.1-7.4 13.1z" style="fill:#009149;fill-opacity:1;stroke:#000;stroke-width:2.97638;stroke-linecap:butt;stroke-linejoin:miter;stroke-miterlimit:4;stroke-dasharray:none;stroke-opacity:1"/><path id="path3916-4" d="M351 659.6s2.3 8.6 17.9 9.2c-10.7-10-17.9-9.2-17.9-9.2z" style="fill:#009149;fill-opacity:1;stroke:#000;stroke-width:2.97638;stroke-linecap:butt;stroke-linejoin:miter;stroke-miterlimit:4;stroke-dasharray:none;stroke-opacity:1"/><path id="path3918-5" d="M365.3 652.7s-1-13.9 12.3-18.7c-3.2 14.5-12.3 18.7-12.3 18.7z" style="fill:#009149;fill-opacity:1;stroke:#000;stroke-width:2.97638;stroke-linecap:butt;stroke-linejoin:miter;stroke-miterlimit:4;stroke-dasharray:none;stroke-opacity:1"/><path id="path3920" d="M383.6 643.5s-.4-9 12.2-13.6c-.7 13.8-12.2 13.6-12.2 13.6z" style="fill:#009149;fill-opacity:1;stroke:#000;stroke-width:2.97638;stroke-linecap:butt;stroke-linejoin:miter;stroke-miterlimit:4;stroke-dasharray:none;stroke-opacity:1"/><path id="path3922" d="M346.7 692.3s-13.9-.5-18.7-8.6c0 0 9.7-7 18.7 8.6z" style="fill:#009149;fill-opacity:1;stroke:#000;stroke-width:2.97638;stroke-linecap:butt;stroke-linejoin:miter;stroke-miterlimit:4;stroke-dasharray:none;stroke-opacity:1"/><path id="path3924" d="M363.9 685.4s-14.4 6.7-15.6-4.8c0 0 4.1-2 15.6 4.8z" style="fill:#009149;fill-opacity:1;stroke:#000;stroke-width:2.97638;stroke-linecap:butt;stroke-linejoin:miter;stroke-miterlimit:4;stroke-dasharray:none;stroke-opacity:1"/><path id="path3926" d="M362.9 675s9.3 8.8 18.2 1.3c-9.6-7.8-18.2-1.3-18.2-1.3z" style="fill:#009149;fill-opacity:1;stroke:#000;stroke-width:2.97638;stroke-linecap:butt;stroke-linejoin:miter;stroke-miterlimit:4;stroke-dasharray:none;stroke-opacity:1"/><path id="path3928" d="M232.1 689.6s6.4 8.1 16.6-1.3c-7.9-3-16.6 1.3-16.6 1.3z" style="fill:#009149;fill-opacity:1;stroke:#000;stroke-width:2.97638;stroke-linecap:butt;stroke-linejoin:miter;stroke-miterlimit:4;stroke-dasharray:none;stroke-opacity:1"/><path id="path3930" d="M163.8 630.2s1.3 8.8 18.5 16c-8.9-17.9-18.5-16-18.5-16z" style="fill:#009149;fill-opacity:1;stroke:#000;stroke-width:2.97638;stroke-linecap:butt;stroke-linejoin:miter;stroke-miterlimit:4;stroke-dasharray:none;stroke-opacity:1"/><path id="path3932" d="M184 649s-3.9 15.7-15.1 2.7c0 0 10.2 1.7 15.1-2.6z" style="fill:#009149;fill-opacity:1;stroke:#000;stroke-width:2.97638;stroke-linecap:butt;stroke-linejoin:miter;stroke-miterlimit:4;stroke-dasharray:none;stroke-opacity:1"/><path id="path3934" d="M189.8 648s-7.5-6.8-7-9.8c0 0 5.1-10.2 7 9.8z" style="fill:#009149;fill-opacity:1;stroke:#000;stroke-width:2.97638;stroke-linecap:butt;stroke-linejoin:miter;stroke-miterlimit:4;stroke-dasharray:none;stroke-opacity:1"/><path id="path3936" d="M175 684.7s4-11.5 11.2-5.9c-3.8 8.3-11.3 6-11.3 6z" style="fill:#009149;fill-opacity:1;stroke:#000;stroke-width:2.97638;stroke-linecap:butt;stroke-linejoin:miter;stroke-miterlimit:4;stroke-dasharray:none;stroke-opacity:1"/><path id="path3938" d="M217 686.4s1.2-11.5 14.4-10.6c-6.4 10.9-14.4 10.6-14.4 10.6z" style="fill:#009149;fill-opacity:1;stroke:#000;stroke-width:2.97638;stroke-linecap:butt;stroke-linejoin:miter;stroke-miterlimit:4;stroke-dasharray:none;stroke-opacity:1"/><path id="path3940" d="M205.6 652.5s-15.1-9.6-13-19.8c0 0 12.7 2.3 13 19.8z" style="fill:#009149;fill-opacity:1;stroke:#000;stroke-width:2.97638;stroke-linecap:butt;stroke-linejoin:miter;stroke-miterlimit:4;stroke-dasharray:none;stroke-opacity:1"/><path id="path3942" d="M230 668.3s-8.6-4.3-8.3-21c0 0 8.5-1.3 8.3 21z" style="fill:#009149;fill-opacity:1;stroke:#000;stroke-width:2.97638;stroke-linecap:butt;stroke-linejoin:miter;stroke-miterlimit:4;stroke-dasharray:none;stroke-opacity:1"/><path id="path3944" d="M335.2 632s8.5-12.1 24.3-10.3c-8 12-24.3 10.2-24.3 10.2z" style="fill:#009149;fill-opacity:1;stroke:#000;stroke-width:2.97638;stroke-linecap:butt;stroke-linejoin:miter;stroke-miterlimit:4;stroke-dasharray:none;stroke-opacity:1"/><path id="path3946" d="M347.9 612.4s11.4-6.4 19.8.5c-11.6 7.4-19.8-.5-19.8-.5z" style="fill:#009149;fill-opacity:1;stroke:#000;stroke-width:2.97638;stroke-linecap:butt;stroke-linejoin:miter;stroke-miterlimit:4;stroke-dasharray:none;stroke-opacity:1"/><path id="path3948" d="M340 612.3s-9.1-6.4-12.2-21.5c0 0 13.2 2.3 12.3 21.5z" style="fill:#009149;fill-opacity:1;stroke:#000;stroke-width:2.97638;stroke-linecap:butt;stroke-linejoin:miter;stroke-miterlimit:4;stroke-dasharray:none;stroke-opacity:1"/><path id="path3950" d="M338.8 581.3s-10.8 7.4-15-5.3c0 0 4.7-6.5 15 5.3z" style="fill:#009149;fill-opacity:1;stroke:#000;stroke-width:2.97638;stroke-linecap:butt;stroke-linejoin:miter;stroke-miterlimit:4;stroke-dasharray:none;stroke-opacity:1"/><path id="path3952" d="M338.7 576.1s-6.9-2.6-4.6-13.8c0 0 6.3 1 4.6 13.8z" style="fill:#009149;fill-opacity:1;stroke:#000;stroke-width:2.97638;stroke-linecap:butt;stroke-linejoin:miter;stroke-miterlimit:4;stroke-dasharray:none;stroke-opacity:1"/><path id="path3954" d="M365.5 593.8s1-13.7 14.3-17.5c.2 9.8-14.3 17.5-14.3 17.5z" style="fill:#009149;fill-opacity:1;stroke:#000;stroke-width:2.97638;stroke-linecap:butt;stroke-linejoin:miter;stroke-miterlimit:4;stroke-dasharray:none;stroke-opacity:1"/><path id="path3956" d="M358 598.6s-1.7-11 4.4-17c5.5 6.4-4.4 17-4.4 17z" style="fill:#009149;fill-opacity:1;stroke:#000;stroke-width:2.97638;stroke-linecap:butt;stroke-linejoin:miter;stroke-miterlimit:4;stroke-dasharray:none;stroke-opacity:1"/><path id="path3958" d="M193 667.8s10.5-8.8 23.2-6.8c-9.2 13.5-23.1 6.8-23.1 6.8z" style="fill:#009149;fill-opacity:1;stroke:#000;stroke-width:2.97638;stroke-linecap:butt;stroke-linejoin:miter;stroke-miterlimit:4;stroke-dasharray:none;stroke-opacity:1"/><path id="path3960" d="M220.2 675.8s-15 3.1-15.4-6.4c14.2-1.2 15.4 6.4 15.4 6.4z" style="fill:#009149;fill-opacity:1;stroke:#000;stroke-width:2.97638;stroke-linecap:butt;stroke-linejoin:miter;stroke-miterlimit:4;stroke-dasharray:none;stroke-opacity:1"/><path id="path3962" d="M259.5 671.3s-14 .5-20.4-8.8c0 0 16.8-.7 20.4 8.8z" style="fill:#009149;fill-opacity:1;stroke:#000;stroke-width:2.97638;stroke-linecap:butt;stroke-linejoin:miter;stroke-miterlimit:4;stroke-dasharray:none;stroke-opacity:1"/><path id="path3964" d="M243.4 676.5s-5.6-5.4-2.8-11.8c0 0 7 3.7 2.8 11.8z" style="fill:#009149;fill-opacity:1;stroke:#000;stroke-width:2.97638;stroke-linecap:butt;stroke-linejoin:miter;stroke-miterlimit:4;stroke-dasharray:none;stroke-opacity:1"/><path id="path3966" d="M259.6 653.9s-3.4-13.9 5.1-18.2c2.3 13.4-5.1 18.2-5.1 18.2z" style="fill:#009149;fill-opacity:1;stroke:#000;stroke-width:2.97638;stroke-linecap:butt;stroke-linejoin:miter;stroke-miterlimit:4;stroke-dasharray:none;stroke-opacity:1"/><path id="path3968" d="M280.3 661s-9.9-3-10-17.8c0 0 9.5.9 10 17.9z" style="fill:#009149;fill-opacity:1;stroke:#000;stroke-width:2.97638;stroke-linecap:butt;stroke-linejoin:miter;stroke-miterlimit:4;stroke-dasharray:none;stroke-opacity:1"/><path id="path3970" d="M270.6 673.3s-7.2-15.8-.6-22.9c7.6 13.6.6 23 .6 23z" style="fill:#009149;fill-opacity:1;stroke:#000;stroke-width:2.97638;stroke-linecap:butt;stroke-linejoin:miter;stroke-miterlimit:4;stroke-dasharray:none;stroke-opacity:1"/><path id="path3972" d="M284 637.3s-18.2 0-19-7.6c0 0 15-5.4 19 7.6z" style="fill:#009149;fill-opacity:1;stroke:#000;stroke-width:2.97638;stroke-linecap:butt;stroke-linejoin:miter;stroke-miterlimit:4;stroke-dasharray:none;stroke-opacity:1"/><path id="path3974" d="M285.6 616.1s-14.2 1-19.4-10.7c0 0 12.2-2.4 19.4 10.7z" style="fill:#009149;fill-opacity:1;stroke:#000;stroke-width:2.97638;stroke-linecap:butt;stroke-linejoin:miter;stroke-miterlimit:4;stroke-dasharray:none;stroke-opacity:1"/><path id="path3976" d="M255.2 631.3s-12-3.2-12-14.7c0 0 4.4-2.2 12 14.7z" style="fill:#009149;fill-opacity:1;stroke:#000;stroke-width:2.97638;stroke-linecap:butt;stroke-linejoin:miter;stroke-miterlimit:4;stroke-dasharray:none;stroke-opacity:1"/><path id="path3978" d="M255 602.9s-3.9-12.1 7.2-21.7c.8 15.4-7.2 21.7-7.2 21.7z" style="fill:#009149;fill-opacity:1;stroke:#000;stroke-width:2.97638;stroke-linecap:butt;stroke-linejoin:miter;stroke-miterlimit:4;stroke-dasharray:none;stroke-opacity:1"/><path id="path3980" d="M250.8 571.6s-15.5-11.6-4.4-27.9c.1 0 4 5.5 4.4 28z" style="fill:#009149;fill-opacity:1;stroke:#000;stroke-width:2.97638;stroke-linecap:butt;stroke-linejoin:miter;stroke-miterlimit:4;stroke-dasharray:none;stroke-opacity:1"/><path id="path3982" d="M254.3 574.5s-5.7-11.8 3.3-20.2c3.1 12.2-3.3 20.2-3.3 20.2z" style="fill:#009149;fill-opacity:1;stroke:#000;stroke-width:2.97638;stroke-linecap:butt;stroke-linejoin:miter;stroke-miterlimit:4;stroke-dasharray:none;stroke-opacity:1"/><path id="path3984" d="M268.7 550s-17.4-.6-19.9-11.3c0 0 14-2.8 20 11.2z" style="fill:#009149;fill-opacity:1;stroke:#000;stroke-width:2.97638;stroke-linecap:butt;stroke-linejoin:miter;stroke-miterlimit:4;stroke-dasharray:none;stroke-opacity:1"/><path id="path3986" d="M266.2 541.7s-5.7-6.3-7.1-19.8c0 0 13.2 7 7.1 19.8z" style="fill:#009149;fill-opacity:1;stroke:#000;stroke-width:2.97638;stroke-linecap:butt;stroke-linejoin:miter;stroke-miterlimit:4;stroke-dasharray:none;stroke-opacity:1"/><path id="path3988" d="M287 575.5s-9.4-8.8-.3-20.2c0 0 7.3 9 .2 20.2z" style="fill:#009149;fill-opacity:1;stroke:#000;stroke-width:2.97638;stroke-linecap:butt;stroke-linejoin:miter;stroke-miterlimit:4;stroke-dasharray:none;stroke-opacity:1"/><path id="path3990" d="M277.1 565.2s-15.7 3.5-18.4-7.8c0 0 8.5-2.5 18.4 7.8z" style="fill:#009149;fill-opacity:1;stroke:#000;stroke-width:2.97638;stroke-linecap:butt;stroke-linejoin:miter;stroke-miterlimit:4;stroke-dasharray:none;stroke-opacity:1"/><path id="path3992" d="M285 575.5s-17.4-.2-18.3-7c0 0 9.2-5.8 18.3 7z" style="fill:#009149;fill-opacity:1;stroke:#000;stroke-width:2.97638;stroke-linecap:butt;stroke-linejoin:miter;stroke-miterlimit:4;stroke-dasharray:none;stroke-opacity:1"/><path id="path3994" d="M292.9 586.9s-18 6-22.7-10.2c0 0 9.7-1.4 22.7 10.2z" style="fill:#009149;fill-opacity:1;stroke:#000;stroke-width:2.97638;stroke-linecap:butt;stroke-linejoin:miter;stroke-miterlimit:4;stroke-dasharray:none;stroke-opacity:1"/><path id="path3996" d="M256.3 632.5s3.7-8.4 11.9-13c-.6 13-12 13-12 13z" style="fill:#009149;fill-opacity:1;stroke:#000;stroke-width:2.97638;stroke-linecap:butt;stroke-linejoin:miter;stroke-miterlimit:4;stroke-dasharray:none;stroke-opacity:1"/><path id="path3998" d="M239.9 633.9s-7.3-10-3.7-23.1c0 0 7.6 8.6 3.7 23z" style="fill:#009149;fill-opacity:1;stroke:#000;stroke-width:2.97638;stroke-linecap:butt;stroke-linejoin:miter;stroke-miterlimit:4;stroke-dasharray:none;stroke-opacity:1"/><path id="path4000" d="M228.9 629.8s-10.4 9.4-22.2.3c0 0 8.5-4.5 22.2-.3z" style="fill:#009149;fill-opacity:1;stroke:#000;stroke-width:2.97638;stroke-linecap:butt;stroke-linejoin:miter;stroke-miterlimit:4;stroke-dasharray:none;stroke-opacity:1"/><path id="path4002" d="M230.3 627.6s-7-2.4-2.4-11.4c0 0 3.4 2.3 2.4 11.4z" style="fill:#009149;fill-opacity:1;stroke:#000;stroke-width:2.97638;stroke-linecap:butt;stroke-linejoin:miter;stroke-miterlimit:4;stroke-dasharray:none;stroke-opacity:1"/><path id="path4004" d="M222.5 619.9s-9.5-12.4-2.3-23.6c0 0 8.3 12.5 2.3 23.6z" style="fill:#009149;fill-opacity:1;stroke:#000;stroke-width:2.97638;stroke-linecap:butt;stroke-linejoin:miter;stroke-miterlimit:4;stroke-dasharray:none;stroke-opacity:1"/><path id="path4006" d="M246.4 597s-12.3 4.2-10.6 12.5c0 0 8.3.5 10.6-12.5z" style="fill:#009149;fill-opacity:1;stroke:#000;stroke-width:2.97638;stroke-linecap:butt;stroke-linejoin:miter;stroke-miterlimit:4;stroke-dasharray:none;stroke-opacity:1"/><path id="path4008" d="M210.2 576.7s4 12.7 21.1 5.8c-12.7-8.3-21.1-5.8-21.1-5.8z" style="fill:#009149;fill-opacity:1;stroke:#000;stroke-width:2.97638;stroke-linecap:butt;stroke-linejoin:miter;stroke-miterlimit:4;stroke-dasharray:none;stroke-opacity:1"/><path id="path4010" d="M234.8 579.8s-13.5-12.8-4-26.7c0 0 5.2 9.3 4 26.7z" style="fill:#009149;fill-opacity:1;stroke:#000;stroke-width:2.97638;stroke-linecap:butt;stroke-linejoin:miter;stroke-miterlimit:4;stroke-dasharray:none;stroke-opacity:1"/><path id="path4012" d="M222.1 562.7s-12.3-13.3-7.7-22.4c0 0 11.1 9.1 7.7 22.4z" style="fill:#009149;fill-opacity:1;stroke:#000;stroke-width:2.97638;stroke-linecap:butt;stroke-linejoin:miter;stroke-miterlimit:4;stroke-dasharray:none;stroke-opacity:1"/><path id="path4014" d="M223 567.2s-6.7 10.5-13.7 1.7c0 0 3.5-6 13.7-1.7z" style="fill:#009149;fill-opacity:1;stroke:#000;stroke-width:2.97638;stroke-linecap:butt;stroke-linejoin:miter;stroke-miterlimit:4;stroke-dasharray:none;stroke-opacity:1"/><path id="path4016" d="M180.6 610.8s10.6 10.6 28 1.4c-12.5-4.3-28-1.4-28-1.4z" style="fill:#009149;fill-opacity:1;stroke:#000;stroke-width:2.97638;stroke-linecap:butt;stroke-linejoin:miter;stroke-miterlimit:4;stroke-dasharray:none;stroke-opacity:1"/><path id="path4018" d="M205.6 608s-3.8-16.1 1.4-21.7c0 0 6.4 10.4-1.4 21.7z" style="fill:#009149;fill-opacity:1;stroke:#000;stroke-width:2.97638;stroke-linecap:butt;stroke-linejoin:miter;stroke-miterlimit:4;stroke-dasharray:none;stroke-opacity:1"/><path id="path4020" d="M195.4 599s-12.6-5.3-12-20.3c0 0 12 5.6 12 20.3z" style="fill:#009149;fill-opacity:1;stroke:#000;stroke-width:2.97638;stroke-linecap:butt;stroke-linejoin:miter;stroke-miterlimit:4;stroke-dasharray:none;stroke-opacity:1"/><path id="path4022" d="M309.8 622.2s-9.4-3.4.1-9.5c1.4 1.3 0 9.5 0 9.5z" style="fill:#009149;fill-opacity:1;stroke:#000;stroke-width:2.97638;stroke-linecap:butt;stroke-linejoin:miter;stroke-miterlimit:4;stroke-dasharray:none;stroke-opacity:1"/><path id="path4024" d="M316 615.2s-3.3-14.3 6.2-20.3c3.3 7.5-4.7 22-6.3 20.3z" style="fill:#009149;fill-opacity:1;stroke:#000;stroke-width:2.97638;stroke-linecap:butt;stroke-linejoin:miter;stroke-miterlimit:4;stroke-dasharray:none;stroke-opacity:1"/><path id="path4026" d="M302.1 608.5s2-15.1 18.5-22.7c.6 15.6-18.5 22.7-18.5 22.7z" style="fill:#009149;fill-opacity:1;stroke:#000;stroke-width:2.97638;stroke-linecap:butt;stroke-linejoin:miter;stroke-miterlimit:4;stroke-dasharray:none;stroke-opacity:1"/><path id="path4028" d="M296.3 610.5s-15.9-6.3-16.5-10c0 0 17.4-3 16.5 10z" style="fill:#009149;fill-opacity:1;stroke:#000;stroke-width:2.97638;stroke-linecap:butt;stroke-linejoin:miter;stroke-miterlimit:4;stroke-dasharray:none;stroke-opacity:1"/><path id="path4030" d="M296.4 587.2s-6.5-6.5-1.2-16.8c0 0 5.3 5.6 1.2 16.8z" style="fill:#009149;fill-opacity:1;stroke:#000;stroke-width:2.97638;stroke-linecap:butt;stroke-linejoin:miter;stroke-miterlimit:4;stroke-dasharray:none;stroke-opacity:1"/><path id="path4032" d="M307.7 593s-12.5-10.7-4-24c0 0 3.5 4.1 4 24z" style="fill:#009149;fill-opacity:1;stroke:#000;stroke-width:2.97638;stroke-linecap:butt;stroke-linejoin:miter;stroke-miterlimit:4;stroke-dasharray:none;stroke-opacity:1"/><path id="path4034" d="M310.3 576.7s5.5-14 16.4-17.6c-1 14.3-16.4 17.6-16.4 17.6z" style="fill:#009149;fill-opacity:1;stroke:#000;stroke-width:2.97638;stroke-linecap:butt;stroke-linejoin:miter;stroke-miterlimit:4;stroke-dasharray:none;stroke-opacity:1"/><path id="path4036" d="M298.2 550s-3-16.4 5.4-22.9c6 20-5.4 22.9-5.4 22.9z" style="fill:#009149;fill-opacity:1;stroke:#000;stroke-width:2.97638;stroke-linecap:butt;stroke-linejoin:miter;stroke-miterlimit:4;stroke-dasharray:none;stroke-opacity:1"/><path id="path4038" d="M296.3 549.4s-11.9-8.5-6.6-22c0 0 10.6 5.7 6.6 22z" style="fill:#009149;fill-opacity:1;stroke:#000;stroke-width:2.97638;stroke-linecap:butt;stroke-linejoin:miter;stroke-miterlimit:4;stroke-dasharray:none;stroke-opacity:1"/><path id="path4040" d="M280 542.8s3.3 10.9 14.3 5.6c-5.6-9.2-14.4-5.6-14.4-5.6z" style="fill:#009149;fill-opacity:1;stroke:#000;stroke-width:2.97638;stroke-linecap:butt;stroke-linejoin:miter;stroke-miterlimit:4;stroke-dasharray:none;stroke-opacity:1"/><path id="path4042" d="M313.8 547s2.6-9.1 21.7-12.2c-7.5 13.3-21.7 12.1-21.7 12.1z" style="fill:#009149;fill-opacity:1;stroke:#000;stroke-width:2.97638;stroke-linecap:butt;stroke-linejoin:miter;stroke-miterlimit:4;stroke-dasharray:none;stroke-opacity:1"/><path id="path4044" d="M320 533.3s-4.7-14.2 3.8-20.1c8.6 13.4-3.8 20.1-3.8 20.1z" style="fill:#009149;fill-opacity:1;stroke:#000;stroke-width:2.97638;stroke-linecap:butt;stroke-linejoin:miter;stroke-miterlimit:4;stroke-dasharray:none;stroke-opacity:1"/><path id="path3896-5" d="M317 691.6a41 41 0 0 0-16 25c-7.7 33-5 86 .5 109.6 1.8 7.7 11.2 10.8 19.1 13 9.8 2.9 16.4 12.5 17 13 10.8 14.6 13.7 12.9 13.7 12.9-8 1.1-18.9-9.3-18.9-9.3 1 6.5-1.8 9.7-1.8 9.7-8.4-25-34-21.4-34-21.4 32.5 33.6 27.7 37 27.7 37-13.4-13-19-16.6-19-16.6-2.5 1.2-4.4 8.7-4.4 8.7 1-11.4-8.9-23.5-23-34-2.6 10-12.6 25-12.6 25l-2.6-6.5c-22 14.1-13.4 29.5-13.4 29.5s-1.6-5.2-1.6-13.1c.6-6.2 3.1-17.8 17.3-37.4 0 0-4.7-1.7-19.2 13.7 0 0 2.5-5.9.2-10.2 0 0-17.5 3.7-37 29.7 0 0-.8-16.2 33.6-33.6 0 0 28-9 27.7-41.2 0 0 2-71.9-4.2-89.6 0 0-5.1-11.6-18.8-20.6 0 0-14.6-8.5-18.6-15.5 0 0-7.6-8.8-11.2-11.5 0 0 20.2 15.9 23.3 16.5 0 0 6.2.5 11.8 8.4 0 0 11.1 10.4 20.5 11.6 0 0-2.8-13.1-7.3-18.9 0 0-6-4.1-8-14.4 0 0-5-13.3-10.5-18.6 0 0 7.8-4.6 17 21.6 0 0 9.9 15.4 17.8 20 0 0-4.7-41.7 8.2-47.8 0 0-4 27.5 3.6 42.8 0 0 6.1-12.8 11.7-17.7L329 639s-18 19-24.2 34.7l-4.3 10.8s-1 6.8 8.8 5.4c.3-.5 5 .7 15.8-13.2 3.4-4.1 5.5-1.9 13 .3 0 0 5.8 2.8 19.7-2.2-38.3 11.4-40.6 17.2-40.8 16.7z" style="fill:#fabb00;fill-opacity:1;stroke:#000;stroke-width:2.97638;stroke-linecap:butt;stroke-linejoin:miter;stroke-miterlimit:4;stroke-dasharray:none;stroke-opacity:1"/><path id="path4064" d="M315.4 687.1s2.7-4.5 2-9" style="fill:none;stroke:#000;stroke-width:2.97638;stroke-linecap:butt;stroke-linejoin:miter;stroke-miterlimit:4;stroke-dasharray:none;stroke-opacity:1"/><path id="path4066" d="m356 675.4 17.4-5.1" style="fill:none;stroke:#000;stroke-width:2.97638;stroke-linecap:butt;stroke-linejoin:miter;stroke-miterlimit:4;stroke-dasharray:none;stroke-opacity:1"/><path id="path4068" d="M332 673c-1.5 4.2 6.5-13.7 30.1-18.6 2.1-.8 11.4.6 21.4-12" style="fill:none;stroke:#000;stroke-width:2.97638;stroke-linecap:butt;stroke-linejoin:miter;stroke-miterlimit:4;stroke-dasharray:none;stroke-opacity:1"/><path id="path4070" d="m371.6 652.6 6.3 2.8" style="fill:none;stroke:#000;stroke-width:2.97638;stroke-linecap:butt;stroke-linejoin:miter;stroke-miterlimit:4;stroke-dasharray:none;stroke-opacity:1"/><path id="path4072" d="M186.1 678.9s7.6-3.2 21.6-2.5l27-.4" style="fill:none;stroke:#000;stroke-width:2.97638;stroke-linecap:butt;stroke-linejoin:miter;stroke-miterlimit:4;stroke-dasharray:none;stroke-opacity:1"/><path id="path4074" d="m203.7 682 4.8-5.4" style="fill:none;stroke:#000;stroke-width:2.97638;stroke-linecap:butt;stroke-linejoin:miter;stroke-miterlimit:4;stroke-dasharray:none;stroke-opacity:1"/><path id="path4076" d="M182.5 646.3a68 68 0 0 0 23.2 7.7c.3 0 10.4.2 19.5 10.3" style="fill:none;stroke:#000;stroke-width:2.97638;stroke-linecap:butt;stroke-linejoin:miter;stroke-miterlimit:4;stroke-dasharray:none;stroke-opacity:1"/><path id="path4078" d="m212.6 655.7 4.2-7.2" style="fill:none;stroke:#000;stroke-width:2.97638;stroke-linecap:butt;stroke-linejoin:miter;stroke-miterlimit:4;stroke-dasharray:none;stroke-opacity:1"/><path id="path4080" d="m193 658.6 7.9-5.5" style="fill:none;stroke:#000;stroke-width:2.97638;stroke-linecap:butt;stroke-linejoin:miter;stroke-miterlimit:4;stroke-dasharray:none;stroke-opacity:1"/><path id="path4082" d="m252.2 683 3.4-5.6" style="fill:none;stroke:#000;stroke-width:2.97638;stroke-linecap:butt;stroke-linejoin:miter;stroke-miterlimit:4;stroke-dasharray:none;stroke-opacity:1"/><path id="path4084" d="m195.2 599 52.6 43.7" style="fill:none;stroke:#000;stroke-width:2.97638;stroke-linecap:butt;stroke-linejoin:miter;stroke-miterlimit:4;stroke-dasharray:none;stroke-opacity:1"/><path id="path4086" d="M212.3 613.1v-6.6" style="fill:none;stroke:#000;stroke-width:2.97638;stroke-linecap:butt;stroke-linejoin:miter;stroke-miterlimit:4;stroke-dasharray:none;stroke-opacity:1"/><path id="path4088" d="m185.8 601.7 13 .5" style="fill:none;stroke:#000;stroke-width:2.97638;stroke-linecap:butt;stroke-linejoin:miter;stroke-miterlimit:4;stroke-dasharray:none;stroke-opacity:1"/><path id="path4090" d="m206.8 622.2 16-.6" style="fill:none;stroke:#000;stroke-width:2.97638;stroke-linecap:butt;stroke-linejoin:miter;stroke-miterlimit:4;stroke-dasharray:none;stroke-opacity:1"/><path id="path4092" d="m230.7 638.2 11.2-.5" style="fill:none;stroke:#000;stroke-width:2.97638;stroke-linecap:butt;stroke-linejoin:miter;stroke-miterlimit:4;stroke-dasharray:none;stroke-opacity:1"/><path id="path4094" d="m244.2 654 8.6-2.9" style="fill:none;stroke:#000;stroke-width:2.97638;stroke-linecap:butt;stroke-linejoin:miter;stroke-miterlimit:4;stroke-dasharray:none;stroke-opacity:1"/><path id="path4096" d="m255.6 646.7-2-76" style="fill:none;stroke:#000;stroke-width:2.97638;stroke-linecap:butt;stroke-linejoin:miter;stroke-miterlimit:4;stroke-dasharray:none;stroke-opacity:1"/><path id="path4098" d="M254.4 601.6s-25.7-18.5-32-38.5" style="fill:none;stroke:#000;stroke-width:2.97638;stroke-linecap:butt;stroke-linejoin:miter;stroke-miterlimit:4;stroke-dasharray:none;stroke-opacity:1"/><path id="path4100" d="m240 589 2.4-11.3" style="fill:none;stroke:#000;stroke-width:2.97638;stroke-linecap:butt;stroke-linejoin:miter;stroke-miterlimit:4;stroke-dasharray:none;stroke-opacity:1"/><path id="path4102" d="m230 596.3 9.5-7" style="fill:none;stroke:#000;stroke-width:2.97638;stroke-linecap:butt;stroke-linejoin:miter;stroke-miterlimit:4;stroke-dasharray:none;stroke-opacity:1"/><path id="path4104" d="m255.4 615.4 14.3-6.4" style="fill:none;stroke:#000;stroke-width:2.97638;stroke-linecap:butt;stroke-linejoin:miter;stroke-miterlimit:4;stroke-dasharray:none;stroke-opacity:1"/><path id="path4106" d="M289.4 636.7s9.5-25.5 8.8-37.6c0 0 .3-6.4-11.4-22.4L265.6 544" style="fill:none;stroke:#000;stroke-width:2.97638;stroke-linecap:butt;stroke-linejoin:miter;stroke-miterlimit:4;stroke-dasharray:none;stroke-opacity:1"/><path id="path4108" d="m271.2 551.7 1.3-8" style="fill:none;stroke:#000;stroke-width:2.97638;stroke-linecap:butt;stroke-linejoin:miter;stroke-miterlimit:4;stroke-dasharray:none;stroke-opacity:1"/><path id="path4110" d="m289.4 593 8 2.7" style="fill:none;stroke:#000;stroke-width:2.97638;stroke-linecap:butt;stroke-linejoin:miter;stroke-miterlimit:4;stroke-dasharray:none;stroke-opacity:1"/><path id="path4112" d="m295 548.9 14.1 17" style="fill:none;stroke:#000;stroke-width:2.97638;stroke-linecap:butt;stroke-linejoin:miter;stroke-miterlimit:4;stroke-dasharray:none;stroke-opacity:1"/><path id="path4114" d="m308.4 592.8.6-29.2s2.3-16.9 10.9-30.1" style="fill:none;stroke:#000;stroke-width:2.97638;stroke-linecap:butt;stroke-linejoin:miter;stroke-miterlimit:4;stroke-dasharray:none;stroke-opacity:1"/><path id="path4116" d="m315.7 540.2-3.2-6.5" style="fill:none;stroke:#000;stroke-width:2.97638;stroke-linecap:butt;stroke-linejoin:miter;stroke-miterlimit:4;stroke-dasharray:none;stroke-opacity:1"/><path id="path4118" d="m309.1 561.7 7-3.6" style="fill:none;stroke:#000;stroke-width:2.97638;stroke-linecap:butt;stroke-linejoin:miter;stroke-miterlimit:4;stroke-dasharray:none;stroke-opacity:1"/><path id="path4120" d="M324.4 644s11.6-10.8 15-26.7" style="fill:none;stroke:#000;stroke-width:2.97638;stroke-linecap:butt;stroke-linejoin:miter;stroke-miterlimit:4;stroke-dasharray:none;stroke-opacity:1"/><path id="path4122" d="m330 617 8.2 4.7" style="fill:none;stroke:#000;stroke-width:2.97638;stroke-linecap:butt;stroke-linejoin:miter;stroke-miterlimit:4;stroke-dasharray:none;stroke-opacity:1"/><path id="path4124" d="m328.8 640 8.6 2.5" style="fill:none;stroke:#000;stroke-width:2.97638;stroke-linecap:butt;stroke-linejoin:miter;stroke-miterlimit:4;stroke-dasharray:none;stroke-opacity:1"/><path id="path4126" d="M338.3 576.2s7.2 14.7.2 44" style="fill:none;stroke:#000;stroke-width:2.97638;stroke-linecap:butt;stroke-linejoin:miter;stroke-miterlimit:4;stroke-dasharray:none;stroke-opacity:1"/><path id="path4128" d="m338.4 619.7 26.7-26.5" style="fill:none;stroke:#000;stroke-width:2.97638;stroke-linecap:butt;stroke-linejoin:miter;stroke-miterlimit:4;stroke-dasharray:none;stroke-opacity:1"/><path id="path4130" d="m360.5 598.5 7.4 3.7" style="fill:none;stroke:#000;stroke-width:2.97638;stroke-linecap:butt;stroke-linejoin:miter;stroke-miterlimit:4;stroke-dasharray:none;stroke-opacity:1"/><path id="path4132" d="m341.5 588.2 7.3-4.2" style="fill:none;stroke:#000;stroke-width:2.97638;stroke-linecap:butt;stroke-linejoin:miter;stroke-miterlimit:4;stroke-dasharray:none;stroke-opacity:1"/><path id="path4134" d="M289.5 637.2s11.5-1.3 27.2-22" style="fill:none;stroke:#000;stroke-width:2.97638;stroke-linecap:butt;stroke-linejoin:miter;stroke-miterlimit:4;stroke-dasharray:none;stroke-opacity:1"/><path id="path4136" d="M286.4 638.3s-7-14.7.6-21.8" style="fill:none;stroke:#000;stroke-width:2.97638;stroke-linecap:butt;stroke-linejoin:miter;stroke-miterlimit:4;stroke-dasharray:none;stroke-opacity:1"/><path id="rect4668" d="M1.5 292.4h577v127H1.5Z" style="fill:#fabb00;fill-opacity:1;fill-rule:evenodd;stroke:#000;stroke-width:2.97638;stroke-miterlimit:4;stroke-dasharray:none;stroke-opacity:1"/><ellipse transform="matrix(1.12747 0 0 1.10906 -1624 321)" id="path2996" style="fill:#009149;fill-opacity:1;stroke:#000;stroke-width:2.66169;stroke-miterlimit:4;stroke-dasharray:none;stroke-opacity:1" cx="1513.6" cy="30.5" rx="21.3" ry="21.6"/><ellipse transform="matrix(1.12747 0 0 1.10906 -1541 321)" id="path2996-1" style="fill:#009149;fill-opacity:1;stroke:#000;stroke-width:2.66169;stroke-miterlimit:4;stroke-dasharray:none;stroke-opacity:1" cx="1513.6" cy="30.5" rx="21.3" ry="21.6"/><ellipse transform="matrix(1.12747 0 0 1.10906 -1458 321)" id="path2996-1-7" style="fill:#009149;fill-opacity:1;stroke:#000;stroke-width:2.66169;stroke-miterlimit:4;stroke-dasharray:none;stroke-opacity:1" cx="1513.6" cy="30.5" rx="21.3" ry="21.6"/><ellipse transform="matrix(1.12747 0 0 1.10906 -1375 321)" id="path2996-1-7-4" style="fill:#009149;fill-opacity:1;stroke:#000;stroke-width:2.66169;stroke-miterlimit:4;stroke-dasharray:none;stroke-opacity:1" cx="1513.6" cy="30.5" rx="21.3" ry="21.6"/><ellipse transform="matrix(1.12747 0 0 1.10906 -1292 321)" id="path2996-1-7-4-0" style="fill:#009149;fill-opacity:1;stroke:#000;stroke-width:2.66169;stroke-miterlimit:4;stroke-dasharray:none;stroke-opacity:1" cx="1513.6" cy="30.5" rx="21.3" ry="21.6"/><ellipse transform="matrix(1.12747 0 0 1.10906 -1209 321)" id="path2996-1-7-4-0-9" style="fill:#009149;fill-opacity:1;stroke:#000;stroke-width:2.66169;stroke-miterlimit:4;stroke-dasharray:none;stroke-opacity:1" cx="1513.6" cy="30.5" rx="21.3" ry="21.6"/><path id="path5058" d="m82.4 189-11.5-59.6s-6.8-2.2-6.5-10.5c0 0-.1-11.4 27.2-22.4 0 0 108.4-38 215.2-32 0 0 132.4 6 189.7 36.4 0 0 20.3 10.6 19.4 23.6 0 0 1.4 9.7-9.6 16l-7.1 48.5c-139 .7-277.9.1-416.8 0z" style="fill:#fabb00;fill-opacity:1;stroke:#000;stroke-width:2.97638;stroke-linecap:butt;stroke-linejoin:miter;stroke-miterlimit:4;stroke-dasharray:none;stroke-opacity:1"/><ellipse transform="matrix(1.39742 -.13462 .19087 2.40215 -6061.9 -386.4)" id="path4704-3" style="fill:#fabb00;fill-opacity:1;stroke:#000;stroke-width:1.61834;stroke-linecap:butt;stroke-linejoin:miter;stroke-miterlimit:4;stroke-dasharray:none;stroke-dashoffset:0;stroke-opacity:1" cx="4400.1" cy="460.7" rx="17.3" ry="5.6"/><ellipse transform="rotate(-5 -5217.8 55413)scale(1.12369 1.744)" id="path4704" style="fill:#009149;fill-opacity:1;stroke:#000;stroke-width:2.12614;stroke-linecap:butt;stroke-linejoin:miter;stroke-miterlimit:4;stroke-dasharray:none;stroke-dashoffset:0;stroke-opacity:1" cx="4400.1" cy="460.7" rx="17.3" ry="5.6"/><ellipse transform="matrix(1.08959 0 0 1.25957 -4616.6 -446.8)" id="path4763" style="fill:#fabb00;fill-opacity:1;fill-rule:evenodd;stroke:#000;stroke-width:2.54066;stroke-linecap:butt;stroke-linejoin:miter;stroke-miterlimit:4;stroke-dasharray:none;stroke-dashoffset:0;stroke-opacity:1" cx="4351.8" cy="452.9" rx="4.6" ry="4"/><ellipse transform="matrix(1.08959 0 0 1.25957 -4611.6 -417.8)" id="path4763-1" style="fill:#fabb00;fill-opacity:1;fill-rule:evenodd;stroke:#000;stroke-width:2.54066;stroke-linecap:butt;stroke-linejoin:miter;stroke-miterlimit:4;stroke-dasharray:none;stroke-dashoffset:0;stroke-opacity:1" cx="4351.8" cy="452.9" rx="4.6" ry="4"/><ellipse transform="matrix(1.08959 0 0 1.25957 -4521.5 -433.2)" id="path4763-1-6" style="fill:#fabb00;fill-opacity:1;fill-rule:evenodd;stroke:#000;stroke-width:2.54066;stroke-linecap:butt;stroke-linejoin:miter;stroke-miterlimit:4;stroke-dasharray:none;stroke-dashoffset:0;stroke-opacity:1" cx="4351.8" cy="452.9" rx="4.6" ry="4"/><ellipse transform="matrix(1.08959 0 0 1.25957 -4525.6 -466.3)" id="path4763-1-6-8" style="fill:#fabb00;fill-opacity:1;fill-rule:evenodd;stroke:#000;stroke-width:2.54066;stroke-linecap:butt;stroke-linejoin:miter;stroke-miterlimit:4;stroke-dasharray:none;stroke-dashoffset:0;stroke-opacity:1" cx="4351.8" cy="452.9" rx="4.6" ry="4"/><path id="path4852-9" d="m64 161 15.5 12.2 28.8-31-33.3-.8Z" style="fill:#fabb00;fill-opacity:1;stroke:#000;stroke-width:2.97638;stroke-linecap:butt;stroke-linejoin:miter;stroke-miterlimit:4;stroke-dasharray:none;stroke-opacity:1"/><path id="path4852" d="m64 161 12.6 9.7 23-24.9-26.7-.6z" style="fill:#e2001a;fill-opacity:1;stroke:#000;stroke-width:2.97638;stroke-linecap:butt;stroke-linejoin:miter;stroke-miterlimit:4;stroke-dasharray:none;stroke-opacity:1"/><ellipse transform="matrix(-1.39742 -.13462 -.19087 2.40215 6641.5 -386.4)" id="path4704-3-5" style="fill:#fabb00;fill-opacity:1;stroke:#000;stroke-width:1.61834;stroke-linecap:butt;stroke-linejoin:miter;stroke-miterlimit:4;stroke-dasharray:none;stroke-dashoffset:0;stroke-opacity:1" cx="4400.1" cy="460.7" rx="17.3" ry="5.6"/><ellipse transform="rotate(-175 2695 -239)scale(1.12369 -1.744)" id="path4704-4" style="fill:#009149;fill-opacity:1;stroke:#000;stroke-width:2.12614;stroke-linecap:butt;stroke-linejoin:miter;stroke-miterlimit:4;stroke-dasharray:none;stroke-dashoffset:0;stroke-opacity:1" cx="4400.1" cy="460.7" rx="17.3" ry="5.6"/><ellipse transform="matrix(-1.08959 0 0 1.25957 5196.3 -446.8)" id="path4763-3" style="fill:#fabb00;fill-opacity:1;fill-rule:evenodd;stroke:#000;stroke-width:2.54066;stroke-linecap:butt;stroke-linejoin:miter;stroke-miterlimit:4;stroke-dasharray:none;stroke-dashoffset:0;stroke-opacity:1" cx="4351.8" cy="452.9" rx="4.6" ry="4"/><ellipse transform="matrix(-1.08959 0 0 1.25957 5191.2 -417.8)" id="path4763-1-1" style="fill:#fabb00;fill-opacity:1;fill-rule:evenodd;stroke:#000;stroke-width:2.54066;stroke-linecap:butt;stroke-linejoin:miter;stroke-miterlimit:4;stroke-dasharray:none;stroke-dashoffset:0;stroke-opacity:1" cx="4351.8" cy="452.9" rx="4.6" ry="4"/><ellipse transform="matrix(-1.08959 0 0 1.25957 5101.2 -433.2)" id="path4763-1-6-2" style="fill:#fabb00;fill-opacity:1;fill-rule:evenodd;stroke:#000;stroke-width:2.54066;stroke-linecap:butt;stroke-linejoin:miter;stroke-miterlimit:4;stroke-dasharray:none;stroke-dashoffset:0;stroke-opacity:1" cx="4351.8" cy="452.9" rx="4.6" ry="4"/><ellipse transform="matrix(-1.08959 0 0 1.25957 5105.2 -466.3)" id="path4763-1-6-8-3" style="fill:#fabb00;fill-opacity:1;fill-rule:evenodd;stroke:#000;stroke-width:2.54066;stroke-linecap:butt;stroke-linejoin:miter;stroke-miterlimit:4;stroke-dasharray:none;stroke-dashoffset:0;stroke-opacity:1" cx="4351.8" cy="452.9" rx="4.6" ry="4"/><path id="path4852-9-3" d="M515.7 161 500 173.3l-28.7-31 33.3-.8z" style="fill:#fabb00;fill-opacity:1;stroke:#000;stroke-width:2.97638;stroke-linecap:butt;stroke-linejoin:miter;stroke-miterlimit:4;stroke-dasharray:none;stroke-opacity:1"/><path id="path4852-4" d="m515.6 161-12.5 9.7-23-24.9 26.7-.6z" style="fill:#e2001a;fill-opacity:1;stroke:#000;stroke-width:2.97638;stroke-linecap:butt;stroke-linejoin:miter;stroke-miterlimit:4;stroke-dasharray:none;stroke-opacity:1"/><path id="path4958-9" d="m245.5 116.5 43 21.7 40.9-20L287 91.6z" style="fill:#fabb00;fill-opacity:1;stroke:#000;stroke-width:2.97638;stroke-linecap:butt;stroke-linejoin:miter;stroke-miterlimit:4;stroke-dasharray:none;stroke-opacity:1"/><path id="path4958" d="m253.2 116.2 35 18 33.3-16.6-34.5-22z" style="fill:#008ac9;fill-opacity:1;stroke:#000;stroke-width:2.97638;stroke-linecap:butt;stroke-linejoin:miter;stroke-miterlimit:4;stroke-dasharray:none;stroke-opacity:1"/><path id="path5129" d="M70.9 129c0-24.7 292.2-96.3 444.9 2" style="fill:none;stroke:#000;stroke-width:2.97638;stroke-linecap:butt;stroke-linejoin:miter;stroke-miterlimit:4;stroke-dasharray:none;stroke-opacity:1"/><path id="path5129-1" d="M72.1 135.9c0-24.7 288.2-98.9 440.8-.5" style="fill:none;stroke:#000;stroke-width:2.97638;stroke-linecap:butt;stroke-linejoin:miter;stroke-miterlimit:4;stroke-dasharray:none;stroke-opacity:1"/><path id="path5129-9" d="M80.6 179.3c13.4-14.2 229-71.8 420.2-.2" style="fill:none;stroke:#000;stroke-width:2.97638;stroke-linecap:butt;stroke-linejoin:miter;stroke-miterlimit:4;stroke-dasharray:none;stroke-opacity:1"/><path id="path5019-3" d="M503.6 194.5c-30.1 23.7-144.8 36-212.4 36.3-112 .8-226.1-20.8-217.5-42 5.8-14 145.7-39 217.5-38.5 117.9 1 227 32.6 212.4 44.2z" style="fill:#fabb00;fill-opacity:1;fill-rule:evenodd;stroke:#000;stroke-width:2.97638;stroke-linecap:butt;stroke-linejoin:miter;stroke-miterlimit:4;stroke-dasharray:none;stroke-dashoffset:0;stroke-opacity:1"/><path id="path5019" d="M483.5 194.6c-26.9 17-131.9 28.5-192.3 28.8-100.1.5-199.5-15.2-191.7-30.3 5-10 127.6-27.6 191.7-27.3 105.3.7 205.4 20.6 192.3 28.8z" style="fill:#fff;fill-opacity:1;fill-rule:evenodd;stroke:#000;stroke-width:2.97638;stroke-linecap:butt;stroke-linejoin:miter;stroke-miterlimit:4;stroke-dasharray:none;stroke-dashoffset:0;stroke-opacity:1"/><ellipse transform="matrix(.93387 0 0 1.00515 -3767.2 -903.4)" id="path5195" style="fill:#fabb00;fill-opacity:1;fill-rule:evenodd;stroke:none" cx="4344.7" cy="1008.4" rx="5" ry="4.7"/><g id="text5188" style="color:#000;font-style:normal;font-variant:normal;font-weight:400;font-stretch:normal;font-size:34.1466px;line-height:125%;font-family:&quot;Calisto MT&quot;;-inkscape-font-specification:&quot;Calisto MT&quot;;text-indent:0;text-align:start;text-decoration:none;text-decoration-line:none;letter-spacing:0;word-spacing:0;text-transform:none;writing-mode:lr-tb;direction:ltr;baseline-shift:baseline;text-anchor:start;display:inline;overflow:visible;visibility:visible;fill:#fabb00;fill-opacity:1;fill-rule:nonzero;stroke:#000;stroke-width:3.07207;stroke-miterlimit:4;stroke-dasharray:none;stroke-opacity:1;marker:none" transform="matrix(.96685 0 0 .97086 -3746.5 -904.8)"><path id="path5193" style="stroke-width:3.07207;stroke-miterlimit:4;stroke-dasharray:none;marker:none" d="M4164.3 1039.6v-1q2.1.3 5.5.2h6.6q3.6 0 5.3 1.5t1.7 4.3q0 3-2.2 5.2a9 9 0 0 1-6.3 2.1c-1 0-1 0-2.3-.4l.1 8.7q0 .3.3.4c.3.2.1.3 1.9.6l.7.1v1a103 103 0 0 0-11.3 0v-1l1-.2 2.4-.6q.4-.5.4-2V1042q0-1-.3-1.4zm8.3 10.5c1.2.3.9.4 1.7.4 1.9 0 2.4-.5 3.4-1.5a5 5 0 0 0 1.5-3.8q0-2.2-1.4-3.6c-1-.9-1.4-1.3-3.3-1.3-.9 0-.6.1-1.8.3z"/></g></g><!-- app4joy -->
</svg>