<svg width="890" height="593.3" id="svg2" viewBox="0 0 890 593.3" xmlns="http://www.w3.org/2000/svg"><g id="g2"><path style="fill:#2c4878;fill-opacity:1;fill-rule:evenodd;stroke:none" id="rect2988" d="M0 0h890v593.3H0z"/></g><g id="g1"><path style="display:inline;fill:#c5c5c5;fill-opacity:1;stroke:none" d="M581.7 433.1c0 5.1-4.1 9.3-9.3 9.3h-103c-13.6 0-24.7 11-24.7 24.7 0-13.6-11-24.7-24.7-24.7H319a9.3 9.3 0 0 1-9.3-9.3v-314h272z" id="path3788-7-4-1-7"/><path style="display:inline;fill:none;stroke:#2c4878;stroke-width:8;stroke-linecap:butt;stroke-linejoin:miter;stroke-miterlimit:4;stroke-dasharray:none;stroke-dashoffset:0;stroke-opacity:1" d="M581 436.7c0 5.1-4.2 9.3-9.3 9.3h-103c-13.7 0-24.7 11-24.7 24.7a24.7 24.7 0 0 0-24.8-24.7h-101a9.3 9.3 0 0 1-9.2-9.3v-314h272z" id="path3788-7-4-7"/><path id="path4208-9" d="M583 312.4a24 24 0 0 1-15 5.4q-8.8-.2-15.4-5.3a25.5 25.5 0 0 0-29.4 0 25 25 0 0 1-15.3 5.3q-8.7-.2-15.3-5.3a25.5 25.5 0 0 0-29.4 0 25 25 0 0 1-15.3 5.3q-8.7-.2-15.3-5.3a25 25 0 0 0-29.4.1 25 25 0 0 1-15.3 5.2q-8.7-.2-15.4-5.3a26 26 0 0 0-14.6-4.7q-8.3.2-14.7 4.7a25 25 0 0 1-15.3 5.3 24 24 0 0 1-15.6-5.8l-.6 11.4a24 24 0 0 0 16.2 6.4q8.7-.2 15.3-5.2a25 25 0 0 1 29.4-.1 25 25 0 0 0 30.6 0q6.4-4.5 14.7-4.7c8.3-.2 10.5 1.8 14.7 4.7 4.3 3.2 9.5 5.3 15.3 5.3q8.7-.2 15.3-5.3a25 25 0 0 1 29.3 0 25 25 0 0 0 30.7 0 25 25 0 0 1 29.4.1c4.2 3.1 9.5 5.2 15.3 5.2q8.8-.2 15.1-5.4z" style="display:inline;fill:#2c4878;fill-opacity:1;stroke:none"/><path id="path4210-3" d="M583 288.4a24 24 0 0 1-15 5.4q-8.8-.2-15.4-5.3a25.5 25.5 0 0 0-29.4 0 25 25 0 0 1-15.3 5.3q-8.7-.2-15.3-5.3a25.5 25.5 0 0 0-29.4 0 25 25 0 0 1-15.3 5.3q-8.7-.2-15.3-5.3a25 25 0 0 0-29.4.1 25 25 0 0 1-15.3 5.2q-8.7-.2-15.4-5.3a26 26 0 0 0-14.6-4.7q-8.3.2-14.7 4.7a25 25 0 0 1-15.3 5.3 24 24 0 0 1-18.4-8.6l.4 12.4a24 24 0 0 0 18 8.2q8.7-.2 15.3-5.2a25 25 0 0 1 29.4-.1 25 25 0 0 0 30.6 0q6.4-4.5 14.7-4.7c8.3-.2 10.5 1.8 14.7 4.7 4.3 3.2 9.5 5.3 15.3 5.3q8.7-.2 15.3-5.3a25 25 0 0 1 29.3 0 25 25 0 0 0 30.7 0 25 25 0 0 1 29.4.1c4.2 3.1 9.5 5.2 15.3 5.2q8.8-.2 15.1-5.4z" style="display:inline;fill:#2c4878;fill-opacity:1;stroke:none"/><path style="display:inline;fill:#2c4878;fill-opacity:1;stroke:none" d="M583 264.4a24 24 0 0 1-15 5.4q-8.8-.2-15.4-5.3a25.5 25.5 0 0 0-29.4 0 25 25 0 0 1-15.3 5.3q-8.7-.2-15.3-5.3a25.5 25.5 0 0 0-29.4 0 25 25 0 0 1-15.3 5.3q-8.7-.2-15.3-5.3a25 25 0 0 0-29.4.1 25 25 0 0 1-15.3 5.2q-8.7-.2-15.4-5.3a26 26 0 0 0-14.6-4.7q-8.3.2-14.7 4.7a25 25 0 0 1-15.3 5.3c-7 0-13.3-3-17.7-7.9l-.4 11.6a24 24 0 0 0 18.1 8.3c5.7 0 11-2 15.3-5.2a25 25 0 0 1 29.4-.1 25 25 0 0 0 30.6 0q6.4-4.5 14.7-4.7c8.3-.2 10.5 1.8 14.7 4.7 4.3 3.2 9.5 5.3 15.3 5.3q8.7-.2 15.3-5.3a25 25 0 0 1 29.3 0 25 25 0 0 0 30.7 0 25 25 0 0 1 29.4.1c4.2 3.1 9.5 5.2 15.3 5.2q8.8-.1 15.1-5.4z" id="path3786-8-1-7-3-1"/><path style="display:inline;fill:#2c4878;fill-opacity:1;stroke:none" d="M583 240.4a24 24 0 0 1-15 5.4q-8.8-.2-15.4-5.3a25.5 25.5 0 0 0-29.4 0 25 25 0 0 1-15.3 5.3q-8.7-.2-15.3-5.3a25.5 25.5 0 0 0-29.4 0 25 25 0 0 1-15.3 5.3q-8.7-.2-15.3-5.3a25 25 0 0 0-29.4.1 25 25 0 0 1-15.3 5.2q-8.7-.2-15.4-5.3a26 26 0 0 0-14.6-4.7q-8.3.2-14.7 4.7a25 25 0 0 1-15.3 5.3 24 24 0 0 1-18-8.2v12a24 24 0 0 0 18 8.2c5.7 0 11-2 15.3-5.2a25 25 0 0 1 29.4-.1 25 25 0 0 0 30.6 0q6.4-4.5 14.7-4.7c8.3-.2 10.5 1.8 14.7 4.7 4.3 3.2 9.5 5.3 15.3 5.3q8.7-.2 15.3-5.3a25 25 0 0 1 29.3 0 25 25 0 0 0 30.7 0 25 25 0 0 1 29.4.1c4.2 3.1 9.5 5.2 15.3 5.2q8.8-.1 15.1-5.4z" id="path3786-8-1-7-2-3-9"/></g></svg>