<svg width="524.9" height="349" viewBox="-1 -1 524.1 349" id="svg18" xmlns="http://www.w3.org/2000/svg"><g id="g19"><path style="color:#000;font-style:normal;font-variant:normal;font-weight:400;font-stretch:normal;font-size:72.7481px;line-height:125%;font-family:Garamond;-inkscape-font-specification:Garamond;text-indent:0;text-align:start;text-decoration-line:none;letter-spacing:0;word-spacing:0;text-transform:none;writing-mode:lr-tb;direction:ltr;baseline-shift:baseline;text-anchor:start;display:inline;visibility:visible;fill:#0a4fa2;fill-opacity:1;fill-rule:evenodd;stroke:none;stroke-width:1px;marker:none" d="M-1-1.2h524.1v349.4H-1z" id="path1"/></g><g style="color:#000;font-style:normal;font-variant:normal;font-weight:400;font-stretch:normal;font-size:72.7481px;line-height:125%;font-family:Garamond;-inkscape-font-specification:Garamond;text-indent:0;text-align:start;text-decoration-line:none;letter-spacing:0;word-spacing:0;text-transform:none;writing-mode:lr-tb;direction:ltr;baseline-shift:baseline;text-anchor:start;display:inline;visibility:visible;fill:#000;fill-opacity:1;fill-rule:nonzero;stroke:none;stroke-width:1px;marker:none" id="g2"><path d="m581.4-507.6 3.6-.5q.3 0 .5-.7v-.2l.2-6.1v-15.5q0-2.6-.4-3.2t-2-.8l-2-.3v-.8l1-.2h.6l1-.1h1.7l5.7-.1q5 0 6.9.7 2 .8 3 2.6a7 7 0 0 1 1.2 4q0 4-4.2 6.3l-1.1.7 2 4 2.8 4.9 2.3 3.4 1.6 1.1q.9.5 3 .9v.7H601l-3.6-6.8-3.3-6.1-1-1.2q-.5-.2-1.2-.2h-2.4l-.1 3v7.7l.2 1.2q0 .4.6.7l2.4.7 1 .3.1.6-.8.1h-11.8v-.3q0-.2.3-.5zm8.1-14.8h.9q1.5 0 3.6-.4 1.5-.3 2.3-1a5 5 0 0 0 1.5-1.9q.6-1.3.6-2.7t-1-3.3a6 6 0 0 0-2.3-2.2 9 9 0 0 0-4.2-.9l-1.5.1v7.8zm19.8 14.9.3-.2 1.1-.2q1.9 0 2.2-.4t.3-1.3v-15.8l-.1-6.5q0-2.3-.3-2.6-.2-.5-2-.5l-1.2-.2-.2-.4v-.4l.4-.1h.6l2.3.1h16.8l.2.1v6.4h-.4l-.6-1.6q-.3-1.1-1-2.5l-.7-1.2-1-.2h-2.6l-5.2.1h-.5q-1 0-1.2.3a9 9 0 0 0-.3 3.2v8.7h8.6q1-.2 1.1-.5.3-.4.4-2.1t.6-2l.5.1v.9a80 80 0 0 0 0 10l-.2.1h-.1l-.6-2a7 7 0 0 0-1-2.8q-.5-.6-1.7-.6h-4.2q-2.5 0-3.3.2v10.2q0 2.3.2 2.6.3.6 1.4.5h4.7q3.6 0 4.8-.3a4 4 0 0 0 2-1.3q.6-1 1.8-4.1.4-1 .7-1t.4.2a30 30 0 0 0-.8 6.2q0 .8-.3 1.3h-7.9l-5.6.1h-3l-5.3.1v-.3zm53.5-26.7.3 3.4.1 2-.6.2q-1.5-3.5-3.7-5a9 9 0 0 0-5.4-1.7q-3.9 0-6 1-3.3 1.2-5.5 4.6a14 14 0 0 0-2.2 8 14 14 0 0 0 3.1 9q1.5 1.8 3.6 3.2a10 10 0 0 0 6.2 1.6q1.5 0 3-.4 1.6-.3 2.4-1 .9-.6 1.2-1.4t.3-3q0-3.9-.6-4.5t-3.2-.9H654l-.3-.6.1-.3a43 43 0 0 1 7.8-.2l2.3.1h2l1.7.1v.8q-1 .3-1.5.2h-1.4q-.8 0-1.2.5-.2.3-.2 1.7v2.9q0 3-.2 3.8l-.6.9-1.8.9a28 28 0 0 1-16.3.5 14 14 0 0 1-7.8-7.2 15 15 0 0 1 .8-13.7 15 15 0 0 1 6.6-6q3.2-1.5 8.7-1.6 3.9 0 6.3.6 2.4.8 3.8 1.5zm6.6 26.7.8-.3q3-.2 3.5-.8t.4-5.8v-4.9l-.1-2.8v-8.5l-.3-3.6q-.8-.5-2.3-.6l-1.9-.3-.1-.7h12.1v.6l-1.4.3q-1.9.3-2.2.5-.3 0-.4.3l-.2 1.6-.1 2.9v14.1l.1 5.8q0 .7.4 1 .3.4.9.5l1.4.3q1 0 1.4.4v.7h-12Zm15.6-14.2a14 14 0 0 1 2.5-8q1.4-2.2 3.3-3.6a18 18 0 0 1 11-3.3 18 18 0 0 1 9 2.4 15 15 0 0 1 5.7 7 18 18 0 0 1 .3 10 13 13 0 0 1-5.7 7.5 14 14 0 0 1-4.3 2.1q-2.6.9-5.6.8a19 19 0 0 1-9.4-2.4 15 15 0 0 1-6.7-12.5zm16 14a16 16 0 0 0 4-.5 10 10 0 0 0 6.2-4.5 23 23 0 0 0 1-15.1 11 11 0 0 0-6.1-7 12 12 0 0 0-9-.3 9 9 0 0 0-3.2 1.8q-1.4 1-2.4 3a18 18 0 0 0-2.2 8.3 19 19 0 0 0 2.1 8.5 13 13 0 0 0 2.5 3.1 10 10 0 0 0 7.1 2.8zm19.3-27.5v-1a43 43 0 0 0 6-.3l2 2.3 4.4 5.3.6.8 2.4 3 4.2 5 5 6 1.8 2.2v-.4l-.1-3.3v-4.5l-.7-14.4q-.2-.3-1.7-.6l-1.2-.1-1-.1q-.3 0-.4-.4 0-.4.2-.7l1-.2q.8 0 1.5.2l1.5.1 4.6-.2h.3v.7l-1 .2-1 .2-1 .4q-.4.6-.4 1.2l.2 7.2.2 3.3v5.5l.1 11.4-1 .1-6.2-7.3-1.8-2.2-1.8-2.1-8.7-10.6-2.3-2.6v.7l.1 12.3.2 7.5v1.8l.8.2 4.1.8v.9l-.6.1h-.5a57 57 0 0 0-8.6-.1h-.8v-.7l.5-.3 1-.1 1.8-.5.7-.5.2-4.6v-14.7q-.1-4.4-.4-5 0-.5-.5-.8a4 4 0 0 0-2-.8q-1.3 0-1.7-.3zm33 27.7.4-.2 1.1-.2q1.9 0 2.3-.4t.3-1.3v-15.9l-.1-6.5q0-2.3-.3-2.6-.3-.5-2-.5l-1.4-.1-.2-.5v-.4l.4-.1h.7l2.3.1h17.8l.2.1.1.4v1l-.1.8v4.2h-.4l-.6-1.6-1-2.5-.8-1.2-1.2-.1-2.6-.1-5.5.1h-.5q-1 0-1.3.3-.3.6-.3 3.3v8.6l.5.1h8.5q1-.2 1.2-.5.3-.4.5-2.2 0-1.7.6-2l.5.2v.8a76 76 0 0 0 0 10.1l-.2.1h-.1l-.6-2q-.6-2.3-1-2.9-.7-.6-1.9-.6h-1l-2.1.1h-1.3q-2.7 0-3.5.2v10.1q0 2.4.2 2.7.3.6 1.5.5h5a21 21 0 0 0 5-.3q1.2-.3 2-1.3 1-1 2-4.2.5-.9.8-.9l.4.2a29 29 0 0 0-.9 6.2q0 .8-.3 1.3H768l-5.8.1H759l-5.6.1v-.3z" style="color:#000;font-style:normal;font-variant:normal;font-weight:400;font-stretch:normal;font-size:72.7481px;line-height:125%;font-family:Garamond;-inkscape-font-specification:Garamond;text-indent:0;text-align:start;text-decoration:none;text-decoration-line:none;letter-spacing:0;word-spacing:0;text-transform:none;writing-mode:lr-tb;direction:ltr;baseline-shift:baseline;text-anchor:start;display:inline;overflow:visible;visibility:visible;fill:#deb308;fill-opacity:1;fill-rule:nonzero;stroke:#deb308;stroke-width:.505195;stroke-miterlimit:4;stroke-dasharray:none;stroke-opacity:1;marker:none" transform="translate(-418.3 585.3)" id="path2"/></g><g style="color:#000;font-style:normal;font-variant:normal;font-weight:400;font-stretch:normal;font-size:72.7481px;line-height:125%;font-family:Garamond;-inkscape-font-specification:Garamond;text-indent:0;text-align:start;text-decoration-line:none;letter-spacing:0;word-spacing:0;text-transform:none;writing-mode:lr-tb;direction:ltr;baseline-shift:baseline;text-anchor:start;display:inline;visibility:visible;fill:#000;fill-opacity:1;fill-rule:nonzero;stroke:none;stroke-width:1px;marker:none" id="g4"><path d="M598.5-315.2a23 23 0 0 1 .2 4.5h-.8q-1-2.5-3-4a9 9 0 0 0-5.3-1.4q-1.6 0-2.7.4a12 12 0 0 0-7.7 8.8 20 20 0 0 0-.6 4.9q0 4.6 1.4 7.8a9 9 0 0 0 4 4.4 10 10 0 0 0 5 1.3h1l2.4-.4a9 9 0 0 0 4.7-2.9q1-1.2 1.8-2.7h.6v.7l-1.4 5.2-1 .2q-2.5 1-6.8 1a19 19 0 0 1-9-2.1 12 12 0 0 1-6-6.8q-1-2.5-1-5.5a15 15 0 0 1 3-9.3 15 15 0 0 1 8.5-5.6 26 26 0 0 1 9.8.3q2.1.6 2.9 1.2zm1.7 27.2.6-.2h.5l2.5-.3q.8-.5 1.3-1.5a52 52 0 0 0 3.5-8.6l1-2.7 2.1-5.7 3.5-9.4h1.4l3 7.3 3.3 9 1.8 4.7 1.8 5.1.8 1.3.9.2 2.4.7v.7h-11.3l-.5-.2.1-.6.5-.2 2.3-.1 1.4-.2.1-.6q0-.5-.5-2l-.7-2.1-2.4-6.4-1.6-.2h-6l-1.6.2-.4.9-2 6-1.2 3.7.2.6 1.3.3 3 .2.2.4v.3a75 75 0 0 1-8.8 0h-2.5v-.2zm10.5-13h8.4l-.5-1.6-1.6-4.2-2-5-.2-.3a72 72 0 0 0-4.2 11zm21.3 13.5.2-.6 2.8-.6q1-.1 1.2-.5.2-.3.2-2.3l.2-6v-11l-.2-6.7-.8-.4-3-.7v-.7h1.2l2.8.2h3.9l1.5-.1h2.1l-.1 1h-2l-2 .3q-.3.3-.3 1.9v24.2l.1.8h7.2l1.8-.4a9 9 0 0 0 3-3.3l.3-.5 1-2.4h.5l-.2 1.6-.8 6.2-7-.2a141 141 0 0 0-11.6.2zm21.4-.5.5-.1h.5l2.4-.3q.8-.4 1.3-1.5a53 53 0 0 0 3.3-8.6l1-2.7 2-5.8 3.3-9.4h1.3q1 1.8 1.6 4l1.3 3.3 3.2 9 1.7 4.8q1.4 4.2 1.8 5 .4 1 .8 1.3l.8.3 2.3.7v.7h-9.9l-.5-.1h-.5l-.4-.1.1-.6.5-.2 2.2-.1q.9 0 1.3-.3l.1-.5q0-.5-.5-2l-.7-2.1-2.2-6.5-1.5-.1h-5.9l-1.6.1-.3 1-2 6-1 3.7.1.6 1.2.3 2.9.2.2.4v.3a68 68 0 0 1-8.5 0l-2.3-.1v-.5zm10-13h8q0-.7-.4-1.5l-1.5-4.2-2-5-.2-.4a74 74 0 0 0-4 11zm20.9-14.9v-.7l.7-.1 2.2-.1 10.7-.4q4.2 0 6 .5 2.8 1 4.1 2.6a6 6 0 0 1 1.4 3.9q0 3.4-5 5.8l-.2.2q2.6.6 4.3 1.8a8 8 0 0 1 2.5 3q.7 1.3.7 3.3 0 3.5-3.3 6.2a14 14 0 0 1-9 2.7H696l-3.7.1H685v-.2q0-.3.2-.4l.5-.3 3.4-.8q.4-.2.6-.7a23 23 0 0 0 .2-5.7v-4.2q0-6-.2-10.7v-5.2l-5.3-.6zM694-304q1.2.2 2.5.2 5.2 0 7-2.2 2-2.2 1.9-4.4l-.3-2a5 5 0 0 0-3.2-3 16 16 0 0 0-8-.2v3.4l-.1 2.8v1.7l.2 3.3zm5.6 15.8a9 9 0 0 0 4-1 8 8 0 0 0 3.4-3.6q.5-1.5.5-2.6l-.4-2.4q-.4-1.3-1.3-2.4a7 7 0 0 0-2.8-1.8 12 12 0 0 0-4.2-.7l-4.9.2v5.4q0 5.5.3 6.4.1 1 1.3 1.8a9 9 0 0 0 4.1.7zm14.9.2 3.7-.6q.3 0 .5-.7v-.2l.2-6.1v-15.8q0-2.6-.4-3.2-.4-.5-2.1-.8l-1.9-.3-.2-.4v-.4l1.1-.2.6-.1h2.8l5.8-.1q5 0 7 .7 2 .8 3.2 2.6a7 7 0 0 1 1.1 4q0 4.2-4.3 6.5l-1.1.7 2.1 4 2.8 5q1.7 2.8 2.4 3.4t1.5 1.2q1 .5 3.1.8v.7h-8l-3.6-6.8-3.3-6.2-1.1-1.2q-.5-.3-1.2-.3h-2.5v10.9l.1 1.2.7.7q.3.3 2.5.8l.9.2.1.6-.8.2-3.5-.1h-8.5v-.2q0-.2.3-.5zm8.3-15h.9q1.5 0 3.7-.4a6 6 0 0 0 2.3-1 5 5 0 0 0 1.6-2q.6-1.4.6-2.7a7 7 0 0 0-1-3.3 6 6 0 0 0-2.5-2.3 9 9 0 0 0-4.2-.9l-1.5.1-.1 1.8.1 4.3v6.4z" style="color:#000;font-style:normal;font-variant:normal;font-weight:400;font-stretch:normal;font-size:72.7481px;line-height:125%;font-family:Garamond;-inkscape-font-specification:Garamond;text-indent:0;text-align:start;text-decoration:none;text-decoration-line:none;letter-spacing:0;word-spacing:0;text-transform:none;writing-mode:lr-tb;direction:ltr;baseline-shift:baseline;text-anchor:start;display:inline;overflow:visible;visibility:visible;fill:#deb308;fill-opacity:1;fill-rule:nonzero;stroke:#deb308;stroke-width:.505195;stroke-miterlimit:4;stroke-dasharray:none;stroke-opacity:1;marker:none" transform="translate(-418.3 585.3)" id="path3"/><path d="m741.3-287.9 1-.3q3-.2 3.4-.8.5-.6.5-6v-5l-.1-2.8v-8.7l-.3-3.7a6 6 0 0 0-2.4-.6l-1.9-.3-.2-.8h1.7l5.3.2 5.5-.2v.7l-1.4.3q-1.9.3-2.3.5-.3 0-.4.4l-.2 1.5-.1 3v14.4l.1 6q0 .7.4 1 .3.3.9.5l1.4.3q1.1 0 1.4.4l.1.5v.2h-12.3zm14.5-.1.5-.2h1l1.8-.4q.8-.3 1.3-1.4a56 56 0 0 0 3.2-9l1-2.7 2-5.9 3.2-9.7h1.4l1.5 4 1.3 3.5 3.1 9.2 1.7 5 1.7 5.2.8 1.3.8.3 2.2.7.1.4v.3h-10.7l-.4-.2v-.6l.5-.2 2.2-.1q.9 0 1.3-.3l.1-.6-1.2-4.2q-.2-1-2.2-6.6l-1.5-.2h-5.7l-1.6.2-.3 1-1.8 6-1.2 4 .2.6 1.1.3 2.9.2.2.4v.3a64 64 0 0 1-8.3 0h-2.3zm9.9-13.5h7.9l-.5-1.6-1.5-4.2-1.9-5.2-.2-.4a78 78 0 0 0-4 11.4z" style="color:#000;font-style:normal;font-variant:normal;font-weight:400;font-stretch:normal;font-size:72.7481px;line-height:125%;font-family:Garamond;-inkscape-font-specification:Garamond;text-indent:0;text-align:start;text-decoration:none;text-decoration-line:none;letter-spacing:0;word-spacing:0;text-transform:none;writing-mode:lr-tb;direction:ltr;baseline-shift:baseline;text-anchor:start;display:inline;overflow:visible;visibility:visible;fill:#deb308;fill-opacity:1;fill-rule:nonzero;stroke:#deb308;stroke-width:.505195;stroke-miterlimit:4;stroke-dasharray:none;stroke-opacity:1;marker:none" transform="translate(-418.3 585.3)" id="path4"/></g><g style="color:#000;font-style:normal;font-variant:normal;font-weight:400;font-stretch:normal;font-size:72.7481px;line-height:125%;font-family:Garamond;-inkscape-font-specification:Garamond;text-indent:0;text-align:start;text-decoration:none;text-decoration-line:none;letter-spacing:0;word-spacing:0;text-transform:none;writing-mode:lr-tb;direction:ltr;baseline-shift:baseline;text-anchor:start;display:inline;overflow:visible;visibility:visible;fill:#000;fill-opacity:1;fill-rule:nonzero;stroke:none;stroke-width:1px;marker:none" id="g18"><path d="M875.2-412.3c0 92-68 166.6-151.8 166.6s-151.8-74.6-151.8-166.6 68-166.6 151.8-166.6 151.8 74.6 151.8 166.6" style="fill:#d5d6d8;fill-opacity:1" transform="matrix(.49588 0 0 .49576 -97.7 377.2)" id="path5"/><path d="m715.8-566.7 4.4-12.2h6.3l4.5 12.2z" style="fill:#0a4fa2;fill-opacity:1;stroke:none" transform="matrix(.49588 0 0 .49576 -97.7 377.2)" id="path6"/><path d="M723.4-256.2c41.6 0 79-19.6 105-51l-210-210.2c26-31.3 63.4-51 105-51 41.7 0 79.2 19.6 105.2 51L618.3-307.2c26 31.4 63.4 51 105 51z" style="fill:#deb308;fill-opacity:1;stroke:none" transform="matrix(.49588 0 0 .49576 -97.7 377.2)" id="path7"/><path d="M745-443.4v4h-43.3v-4h18.7V-499l-16.7-4.4 9.3-25.7-8.6 1.1 19-51 18.8 51-8.6-1 9.3 25.6-16.7 4.4v55.6z" style="fill:#32b457;fill-opacity:1" transform="matrix(.49588 0 0 .49576 -97.7 377.2)" id="path8"/><path d="m740.9-491.8-17.6 6-17.5-6" style="fill:none;stroke:#32b457;stroke-width:3.05673;stroke-miterlimit:4;stroke-dasharray:none;stroke-opacity:1" transform="matrix(.49588 0 0 .49576 -97.7 377.2)" id="path9"/><path d="m740.9-496.5-17.6 6-17.5-6" style="fill:none;stroke:#32b457;stroke-width:3.05673;stroke-miterlimit:4;stroke-dasharray:none;stroke-opacity:1" transform="matrix(.49588 0 0 .49576 -97.7 377.2)" id="path10"/><path d="m225.1 154.1-4.3 20.8L225 196h-10.3l4.3-21-4.3-20.8z" id="path11"/><path d="M215.8 152.5a1.7 1.7 0 1 1-3.3 0 1.7 1.7 0 0 1 3.3 0m11.8 0a1.7 1.7 0 1 1-3.4 0 1.7 1.7 0 0 1 3.4 0m-11.8 45.2a1.7 1.7 0 1 1-3.3 0 1.7 1.7 0 0 1 3.3 0m11.8 0a1.7 1.7 0 1 1-3.4 0 1.7 1.7 0 0 1 3.4 0M199 170l20.7 4.4L241 170v10.4l-21.3-4.4-20.8 4.4zm0 11a1.7 1.7 0 1 1-3.3 0 1.7 1.7 0 0 1 3.3 0" id="path12"/><path d="M199 169.3a1.7 1.7 0 1 1-3.3 0 1.7 1.7 0 0 1 3.3 0m45.2 11.7a1.7 1.7 0 1 1-3.3 0 1.7 1.7 0 0 1 3.3 0m0-11.7a1.7 1.7 0 1 1-3.3 0 1.7 1.7 0 0 1 3.3 0m55.2-17.9h7v46.8h-7z" id="path13"/><path d="M279.5 171.3h46.9v7h-46.9zm17.4-16.8H309v5.5h-12zm0 35.2H309v5.5h-12z" id="path14"/><path d="M282.6 168.8h5.5v12.1h-5.5zm35.2 0h5.5v12.1h-5.5Z" id="path15"/><path style="fill:#00aeef;fill-opacity:1" d="M697.8-310.7h51.6v45.4s-.3 2.8-3.9 2.8H735s-10.2-2.7-16.5-11c-6.2-8.3-19.6-8.6-20.7-8.6z" transform="matrix(.49588 0 0 .49576 -97.7 377.2)" id="path16"/><path d="M707.8-303v27.1m10.5-27.1v33.7m10.5-33.7v39.8m10.5-39.8v41.8" style="fill:none;stroke:#deb308;stroke-width:3.05673;stroke-miterlimit:4;stroke-dasharray:none;stroke-opacity:1" transform="matrix(.49588 0 0 .49576 -97.7 377.2)" id="path17"/><path style="fill:#00aeef;fill-opacity:1" d="M700.1-315.2s-9.1 0-14.7-5.5-5.4-15-5.4-15h86.8s.1 9.5-5.4 15-14.7 5.5-14.7 5.5zM673.4-350h100.5v10.6H673.4Z" transform="matrix(.49588 0 0 .49576 -97.7 377.2)" id="path18"/></g><!-- app4joy -->
</svg>