<svg viewBox="0 0 700 466.67" xml:space="preserve" id="svg5" width="700" height="466.67" xmlns:xlink="http://www.w3.org/1999/xlink" xmlns="http://www.w3.org/2000/svg"><defs id="defs3"><linearGradient id="b" x1="882.59" x2="886.14" y1="-54.041" y2="-54.041" gradientTransform="rotate(180 620.2 322.6)" gradientUnits="userSpaceOnUse"><stop stop-color="#c89937" offset="0" id="stop1"/><stop stop-color="#cca246" offset=".55" id="stop2"/><stop stop-color="#c3922e" offset="1" id="stop3"/></linearGradient><linearGradient id="e" x1="188.15" x2="411.85" y1="210.97" y2="210.97" gradientUnits="userSpaceOnUse" xlink:href="#b"/><clipPath id="f"><path d="M188.9 73.8v223.9c0 24 22.7 34.3 48.3 35.8 14 .8 31.5 1.9 44.6 3 13 1.3 18.2 10.8 18.2 10.8s5.2-9.5 18.2-10.7c13.2-1.2 30.6-2.3 44.7-3 25.6-1.6 48.2-11.8 48.2-36V73.9z" id="path3"/></clipPath><clipPath id="g"><path id="a" d="M188.9 73.8v223.9c0 24 22.7 34.3 48.3 35.8 14 .8 31.5 1.9 44.6 3 13 1.3 18.2 10.8 18.2 10.8s5.2-9.5 18.2-10.7c13.2-1.2 30.6-2.3 44.7-3 25.6-1.6 48.2-11.8 48.2-36V73.9z"/></clipPath><radialGradient id="d" cx="300" cy="210.57" r="111.11" gradientTransform="matrix(1 0 0 1.2307 0 -48.6)" gradientUnits="userSpaceOnUse" xlink:href="#b"/></defs><path fill="#1b2f8d" id="rect3" d="M0 0h700v466.7H0z"/><g transform="translate(156.6 134)scale(1.5723)" id="g5"><use transform="matrix(.63247 0 0 .64325 -66.9 -72.9)" width="600" height="400" fill="#ffffff" xlink:href="#a" id="use3"/><path transform="matrix(.63247 0 0 .64325 -66.7 -72.9)" d="m137.2 0 318.4 400" clip-path="url(#f)" fill="none" stroke="url(#d)" stroke-width="51.498" id="path4"/><path transform="matrix(.63247 0 0 .64325 -66.9 -72.9)" d="m137.2 0 318.4 400" clip-path="url(#g)" fill="none" stroke="#d20019" stroke-width="45.853" id="path5"/><use transform="matrix(.63247 0 0 .64325 -66.9 -72.9)" width="600" height="400" fill="none" stroke="url(#e)" stroke-width="1.9807" xlink:href="#a" id="use5"/></g></svg>