<svg viewBox="0 0 900 600" xml:space="preserve" id="svg2" width="900" height="600" xmlns="http://www.w3.org/2000/svg"><g id="g5"><path fill="#fff" stroke-width="1.1" id="rect1" d="M0 0h900v600H0z"/></g><g id="g4"><path d="M288.5 103.5h323V179a190 190 0 0 1-69.3 13.1c-22.4.6-56.2-2.2-80.6-9.5a327 327 0 0 0-91.5-15c-29.2-.2-69.8 8-81.6 10.5zm0 323V265.1l312.7 161.4zM636.4 78.6H263.6v372.8h372.8z" fill="#009a49" id="path1" style="stroke-width:1.0709"/></g><g id="g3"><path fill="#f32837" id="rect2" style="stroke-width:1.0709" d="M263.6 459.2h372.7v8.9H263.6z"/></g><g id="g2"><path d="M629.8 512.5a4 4 0 0 0 2.6.8q2.1 0 3-1.3a8 8 0 0 0 1-4.3v-1.5h-1.8v1.5q0 1.5-.2 2t-.7.6q-.3 0-.5-.2l-.2-1v-13.5q0-3.8-1.8-5.7-1.7-2-5.4-2-3.3 0-5.3 1.9a6 6 0 0 0-2 4.5q0 1.7.8 2.6a3 3 0 0 0 2.4.9q1.1 0 2-.7.6-.7.7-1.8a3 3 0 0 0-.6-2q-.7-.6-1.6-.6l-1 .1q.4-1 1.3-1.6t2.1-.6q1.7 0 2.7 1 1 1.1 1 3 0 1.5-.8 2.5-.9 1.2-2.8 2.3l-1.3.6q-2.6 1.3-3.8 2.4-.9.8-1.3 2t-.5 2.8q0 2.9 1.5 4.4a5 5 0 0 0 3.8 1.7q1.6 0 3-.8a7 7 0 0 0 2.2-2.4q.4 1.6 1.5 2.4m-1.7-8.4q0 2.6-.7 3.9t-2.2 1.2q-1 0-1.7-.7-.7-.8-.7-1.8 0-2 2.9-4.4l2.4-2.2zm-22.8-6.6q0-2.8.8-4.2.8-1.3 2.3-1.3 1 0 1.4.7.5.5.5 2v13q0 1.4-.4 1.8-.3.3-1.5.3v2.8h9v-2.8q-1.2 0-1.7-.3-.4-.4-.4-1.7v-12.5a11 11 0 0 0-1.1-5.6q-1.2-1.7-3.7-1.7-1.5 0-3 .9-1.3.8-2.4 2.7v-3h-7v2.9q1.4 0 1.8.3t.4 1.7v14.3a3 3 0 0 1-.4 1.7q-.5.3-1.7.3v2.8h9v-2.8q-1.2 0-1.6-.4-.3-.3-.3-1.6zm-25.4 8.6q-.8 1.3-.8 2.8t.8 2.6 2.3 1.9q-1.8.7-2.6 1.5-.9 1-.9 2 0 2 2.4 3.2 2.3 1.3 6.2 1.3a12 12 0 0 0 7.4-1.9q2.4-1.8 2.5-5.3 0-1.6-.6-2.8t-1.7-2a17 17 0 0 0-4.9-.8l-2-.1q-3.4-.3-4.3-.6-1-.4-1-1.2l.3-.8 1-1q.7.4 1.6.5l1.5.2q3.6 0 5.4-2.3 1.8-2.5 1.8-7 0-2.4-.7-4.1a6 6 0 0 0-2.2-2.7 5 5 0 0 1 1.2-1.7q.6-.6 1.4-.5h.6q-.6.2-.9.6t-.3 1q0 .9.5 1.3t1.3.5a2 2 0 0 0 1.5-.6q.6-.6.6-1.6 0-1.4-1-2.3t-2.4-.8q-1.2 0-2.4.7-1.2.8-2.2 2.3a8 8 0 0 0-2.7-.4 6 6 0 0 0-5 2.5q-1.8 2.6-1.8 6.8 0 2.2.6 4 .5 1.5 2 2.6-1.7 1-2.5 2.2m11.7 8.5h.5q1.2.2 1.6.5t.4 1q0 1.3-1.5 2c-1.5.7-2.5.8-4.3.8q-2.8 0-4.3-.8c-1.5-.8-1.6-1.2-1.6-2.1q0-.7.3-1.2l1-.9q4 .5 7.9.7m-6.4-13q-.6-1.4-.5-4.8 0-3.3.5-4.7.6-1.3 1.8-1.3t1.9 1.3q.5 1.4.5 4.7a16 16 0 0 1-.5 4.7q-.6 1.3-1.9 1.3t-1.8-1.3m-13.5 11q1 .8 2.6.8 2.1 0 3-1.3 1-1.4 1-4.3v-1.5h-1.8v1.5q0 1.5-.2 2-.1.6-.6.6t-.6-.2l-.1-1v-13.5q0-3.8-1.8-5.7t-5.5-2a8 8 0 0 0-5.3 1.9 6 6 0 0 0-2 4.5q0 1.7.8 2.6a3 3 0 0 0 2.4.9q1.2 0 2-.7.7-.7.7-1.8a3 3 0 0 0-.6-2q-.5-.6-1.6-.6l-1 .1a4 4 0 0 1 3.4-2.2q1.7 0 2.7 1 1 1.1 1 3 0 1.5-.8 2.5-.8 1.2-2.8 2.3l-1.3.6q-2.6 1.3-3.7 2.4a6 6 0 0 0-1.4 2q-.4 1.2-.4 2.8 0 2.9 1.4 4.4 1.5 1.7 3.8 1.7 1.7 0 3-.8a7 7 0 0 0 2.2-2.4q.4 1.6 1.5 2.4m-1.7-8.4a8 8 0 0 1-.7 3.9q-.7 1.2-2.2 1.2a2.4 2.4 0 0 1-2.4-2.5q0-2 3-4.4l2.3-2.2zM545.4 489q-1.2-1-3-1-1.6 0-2.8.9a8 8 0 0 0-2.4 2.7v-3h-7v2.9q1.4 0 1.8.3.3.3.4 1.7v14.3a3 3 0 0 1-.4 1.7q-.4.3-1.8.3v2.8h8.9v-2.8q-1 0-1.5-.3-.3-.4-.3-1.7v-10.3q0-2.8.7-4.1.8-1.5 2.3-1.4 1 0 1.5.7t.5 2v13q0 1.5-.4 1.7-.3.4-1.4.4v2.8h8.5v-2.8q-1 0-1.4-.4-.4-.3-.4-1.6v-10.3q0-2.8.7-4.1.8-1.4 2.3-1.4 1 0 1.5.7.5.5.5 2v13q0 1.4-.3 1.7-.4.4-1.5.4v2.8h8.8v-2.8q-1.3 0-1.7-.3-.4-.4-.4-1.7v-12.5a11 11 0 0 0-1.1-5.6q-1.1-1.7-3.6-1.7-1.5 0-3 1-1.4.9-2.4 2.8a5 5 0 0 0-1.6-2.8m-16.6 21.5q1.7-2.7 1.7-9.9 0-7.1-1.7-9.9-1.8-2.7-6-2.7-4.1 0-5.8 2.7t-1.8 10q0 7 1.7 9.8 1.8 2.8 6 2.8c4.2 0 4.7-1 5.9-2.8m-7.8-2q-.5-1.5-.5-7.9 0-6.3.5-7.9.5-1.5 1.9-1.5t1.8 1.5q.5 1.5.5 8 0 6.3-.4 7.8t-2 1.5q-1.3 0-1.8-1.5m-21.7-28h1.6q2.9 0 4 1.3 1 1.3 1 4.6t-1.2 4.7-3.8 1.4h-1.6zm0 15.8h.9q2.3 0 3.2 1.2t1.1 4.4v2.2q.2 5 1.1 7 .6 1.2 1.6 1.8 1 .5 2.6.5 2.5 0 3.7-1.6a11 11 0 0 0 1.1-5.5v-1.5h-2v2.5q0 .9-.2 1.5-.4.6-.9.6-1.1 0-1.3-4.1v-1.4a18 18 0 0 0-1.4-6.4q-1-1.7-3.5-2.3 3-.5 4.5-2.8 1.6-2.4 1.6-6.1 0-4.8-2.5-7-2.4-2.3-7.6-2.3h-10.2v3.5q1.3 0 1.8.6t.6 2v23.4q0 1.4-.6 2t-1.8.6v3.5h10.8V509h-.2q-1.3 0-1.9-.6t-.5-2zm-8 2h-7.1v4h7.1zm-13.7 14.2q1 .8 2.7.8 2 0 3-1.3a8 8 0 0 0 1-4.3v-1.5h-1.9v1.5l-.1 2q-.3.6-.7.6-.5 0-.6-.2l-.1-1v-13.5q0-3.8-1.8-5.7t-5.4-2a8 8 0 0 0-5.4 1.9 6 6 0 0 0-2 4.5q0 1.7.9 2.6a3 3 0 0 0 2.3.9q1.2 0 2-.7.7-.7.7-1.8 0-1.3-.5-2t-1.7-.6l-.9.1a3 3 0 0 1 1.3-1.6q1-.6 2-.6 1.8 0 2.8 1 1 1.1 1 3 0 1.5-.9 2.5a8 8 0 0 1-2.7 2.3l-1.4.6q-2.4 1.3-3.7 2.4a6 6 0 0 0-1.4 2q-.4 1.2-.4 2.8 0 2.9 1.4 4.4 1.4 1.7 3.8 1.7 1.8 0 3-.8a7 7 0 0 0 2.2-2.4q.5 1.6 1.5 2.4m-1.7-8.4a8 8 0 0 1-.7 3.9q-.7 1.2-2.1 1.2-1 0-1.8-.7-.6-.7-.7-1.8 0-2 3-4.4l2.3-2.2zm-17.6-18.3q.8.8 2 .8 1.4 0 2.1-.8.9-.9.8-2.1c-.1-1.2-.2-1.5-.8-2q-.8-.9-2-.9c-1.2 0-1.5.3-2 .9q-1 .9-1 2c0 1.1.3 1.5.9 2m4.8 3H456v2.8q1.4 0 1.7.3t.4 1.7v14.3q0 1.3-.4 1.7t-1.7.3v2.8h9.3v-2.8q-1.4 0-1.8-.3a3 3 0 0 1-.4-1.7zm-10.4-8.5h-7.1v2.8q1.3 0 1.7.3.3.4.4 1.7v22.8a3 3 0 0 1-.4 1.7q-.5.3-1.7.3v2.8h9.2v-2.8q-1.3 0-1.7-.3t-.4-1.7zm-15.6 5.6q.9.8 2.1.8t2-.8q.9-.9.9-2.1c0-1.2-.3-1.5-.9-2q-.8-.9-2-.9-1 0-2 .9t-1 2c0 1.1.4 1.5 1 2m4.8 3h-7.2v2.8q1.4 0 1.8.3.3.3.4 1.7v14.3a3 3 0 0 1-.4 1.7q-.4.3-1.8.3v2.8h9.3v-2.8q-1.3 0-1.7-.3-.4-.4-.4-1.7zm-22.2.3q-1.2-1-3-1-1.6 0-2.8.9a8 8 0 0 0-2.4 2.7v-3h-7v2.9q1.4 0 1.8.3.3.3.3 1.7v14.3q0 1.3-.3 1.7-.4.3-1.8.3v2.8h8.9v-2.8q-1.1 0-1.5-.3-.3-.4-.3-1.7v-10.3q0-2.8.7-4.1.8-1.4 2.3-1.4 1 0 1.5.7t.5 2v13q0 1.5-.4 1.7-.3.4-1.4.4v2.8h8.5v-2.8q-1 0-1.5-.4-.3-.3-.3-1.6v-10.3q0-2.8.7-4.1.8-1.5 2.3-1.4 1 0 1.5.7.5.5.5 2v13q0 1.4-.3 1.7-.4.4-1.5.4v2.8h8.8v-2.8q-1.3 0-1.7-.3-.4-.4-.4-1.7v-12.5a11 11 0 0 0-1.1-5.6q-1.2-1.8-3.6-1.7a5 5 0 0 0-3 1q-1.4.9-2.4 2.8a5 5 0 0 0-1.6-2.8m-16.4 23.6V499h-2.7q0 6-1.6 8-1.5 2-6 2h-1.5v-13h.6q2 0 2.8 1.1.9 1.1.9 3.9v.2h2.5v-14H396v.3q0 2.7-.8 3.9-.9 1-3 1h-.5v-11.9h1q4.5 0 6 1.8 1.5 1.7 1.7 6.4h2.7V477h-19.7v3.5q1.4 0 2 .6.5.6.5 2v23.4q0 1.5-.6 2t-1.9.6v3.5h20.1zM371 495.4q0-2.4.5-3.5.6-1 1.8-1c1.2 0 1.4.3 1.8 1q.5 1 .5 3.5v2.8H371zm9.2 5.7v-2.8q0-2.7-.2-4-.2-1.4-.7-2.4a7 7 0 0 0-2.4-3 6 6 0 0 0-3.5-1 6 6 0 0 0-5.8 3.2q-1.8 3-1.8 9.7 0 6.8 1.8 9.6t6 2.8q3.3 0 5-2.2a11 11 0 0 0 1.6-7.1v-.6H377q0 3.6-.7 5.2-.6 1.5-2.2 1.6-1.7 0-2.4-1.7t-.7-6V501zm-26.5-3.6a9 9 0 0 1 .7-4.2q.9-1.3 2.4-1.3 1 0 1.4.7.5.6.5 2v13q0 1.4-.4 1.8-.4.3-1.5.3v2.8h9v-2.8q-1.4 0-1.7-.3-.4-.4-.4-1.7v-12.5q0-4-1.2-5.6-1.1-1.8-3.6-1.7-1.7 0-3 .9t-2.5 2.7v-3h-6.9v2.9q1.4 0 1.8.3.3.3.4 1.7v14.3a3 3 0 0 1-.4 1.7q-.4.3-1.8.3v2.8h9.1v-2.8q-1.2 0-1.6-.4-.3-.3-.3-1.6zm-9 13q1.7-2.7 1.7-9.9 0-7.1-1.7-9.9-1.7-2.7-6-2.7-4.1 0-5.8 2.7t-1.7 10q0 7 1.7 9.8t5.9 2.8 6-2.8m-7.9-2q-.5-1.5-.5-7.9 0-6.3.5-7.9.5-1.5 2-1.5 1.2 0 1.8 1.5.5 1.5.5 8a36 36 0 0 1-.5 7.8q-.5 1.5-1.9 1.5t-1.9-1.5m-12.7-22.7q.8.8 2 .8 1.4 0 2.1-.8.9-.9.8-2.1c-.1-1.2-.2-1.5-.8-2q-.9-.9-2-.9c-1.1 0-1.5.3-2 .9q-1 .8-1 2c0 1.2.3 1.5.9 2m4.8 3h-7v2.8q1.4 0 1.7.3t.4 1.7v14.3q0 1.3-.4 1.7-.3.3-1.7.3v2.8h9.3v-2.8q-1.4 0-1.8-.3a3 3 0 0 1-.4-1.7zM303.8 506q-.9 1.3-.8 2.8t.7 2.6q.8 1.1 2.3 1.9-1.7.7-2.6 1.5-.9 1-.8 2 0 2 2.3 3.2t6.3 1.3q4.8 0 7.3-1.9t2.5-5.3q0-1.5-.6-2.8t-1.7-2a17 17 0 0 0-4.9-.8l-1.9-.1q-3.4-.3-4.4-.6-1-.5-1-1.2l.4-.8.9-1q.9.4 1.7.5.8.3 1.5.2 3.5 0 5.3-2.3 1.8-2.4 1.8-7 0-2.4-.7-4.1a6 6 0 0 0-2.2-2.7 5 5 0 0 1 1.2-1.7q.8-.6 1.4-.5h.6l-.9.6q-.3.4-.3 1 0 .9.5 1.3t1.3.5a2 2 0 0 0 1.5-.6q.6-.6.6-1.6 0-1.4-1-2.3-.8-.9-2.4-.8-1.2 0-2.4.7-1.1.8-2.2 2.3a8 8 0 0 0-2.6-.4q-3.1 0-5 2.5a11 11 0 0 0-1.9 6.8q0 2.2.6 4 .6 1.5 2 2.6-1.6 1-2.4 2.2m11.6 8.5h.5q1.2.2 1.6.5t.4 1q0 1.3-1.5 2c-1.5.7-2.4.8-4.2.8q-3 0-4.4-.8-1.5-.7-1.5-2.1 0-.7.3-1.2l.9-.9q4.1.5 7.9.7m-6.4-13q-.5-1.4-.5-4.8 0-3.3.5-4.7.6-1.3 1.9-1.3t1.8 1.3.5 4.7-.5 4.7q-.6 1.3-1.8 1.3t-1.9-1.3m-16-6q0-2.5.6-3.6.5-1 1.7-1t1.8 1q.5 1 .5 3.5v2.8H293v-2.8zm9.2 5.6v-2.8q0-2.8-.2-4 0-1.4-.7-2.4a7 7 0 0 0-2.4-3 6 6 0 0 0-3.4-1 6 6 0 0 0-5.8 3.2q-2 3-2 9.7t1.9 9.6q1.8 2.8 6 2.8 3.3 0 5-2.2a11 11 0 0 0 1.6-7.1v-.6H299q0 3.6-.7 5.2t-2.2 1.6q-1.6 0-2.4-1.7t-.7-6V501zM272 480.5h1.6q3 0 3.9 1.3 1 1.3 1 4.6t-1.1 4.7q-1.1 1.5-3.9 1.4H272zm0 15.8h.9q2.3 0 3.2 1.2t1.1 4.4v2.2q.2 5 1.1 7 .6 1.2 1.6 1.8a5 5 0 0 0 2.6.5q2.5 0 3.7-1.6a11 11 0 0 0 1.1-5.5v-1.5h-2v2.5l-.2 1.5q-.4.6-1 .6-.9 0-1.2-4.1v-1.4a18 18 0 0 0-1.4-6.4q-1.1-1.8-3.5-2.3 3-.5 4.5-2.8 1.6-2.4 1.6-6.1 0-4.8-2.5-7-2.4-2.3-7.6-2.3h-10.2v3.5q1.3 0 1.8.6t.6 2v23.4q0 1.4-.6 2t-1.8.6v3.5h10.8V509h-.2q-1.3 0-1.9-.6t-.5-2v-10.2z" fill="#009a49" id="path2" style="stroke-width:1.0709"/></g></svg>