<svg width="3" height="2" viewBox="0 0 3 2" id="svg40" xmlns="http://www.w3.org/2000/svg"><g id="g41"><path fill="#009246" style="fill:#0063e7;fill-opacity:1" d="M0 0h3v2H0z" id="path1"/></g><g style="clip-rule:evenodd;fill-rule:evenodd;stroke-miterlimit:1" id="g40"><path style="fill:#c8c9ca;stroke:#000;stroke-width:.5px" d="M200.5 209.6h23v4.1h-23z" transform="scale(.00706 .00702)" id="path2"/><path style="fill:#bab8be;fill-rule:nonzero;stroke:#000;stroke-width:.5px" d="m251 243-6.4-33h8.3l6.3 33zm-3-1h-9l-3.3-28.4h7" transform="scale(.00706 .00702)" id="path3"/><path style="fill:#f2efec;fill-rule:nonzero;stroke:#000;stroke-width:.5px" d="m251 243-2.9-1-5.4-28.4 2-3.7zm-30.4 0-2.2-1v-28.4l2.2-3.7" transform="scale(.00706 .00702)" id="path4"/><path style="fill:#bab8be;fill-rule:nonzero;stroke:#000;stroke-width:.5px" d="m239 243-3.7-33h-14.7v33zm-63.1-1h9.1l3.2-28.4h-7" transform="scale(.00706 .00702)" id="path5"/><path style="fill:#57605f;fill-rule:nonzero;stroke:#000;stroke-width:.5px" d="m173 243 2.9-1 5.4-28.4-2-3.7z" transform="scale(.00706 .00702)" id="path6"/><path style="fill:#bab8be;fill-rule:nonzero;stroke:#000;stroke-width:.5px" d="m173 243 6.3-33h-8.2l-6.3 33z" transform="scale(.00706 .00702)" id="path7"/><path style="fill:#57605f;fill-rule:nonzero;stroke:#000;stroke-width:.5px;stroke-miterlimit:4" d="m203.4 243 2.2-1v-28.4l-2.2-3.7" transform="scale(.00706 .00702)" id="path8"/><path style="fill:#bab8be;fill-rule:nonzero;stroke:#000;stroke-width:.5px" d="m185 243 3.7-33h14.7v33z" transform="scale(.00706 .00702)" id="path9"/><path style="fill:#c8c9ca;stroke:#000;stroke-width:.5px;stroke-miterlimit:4" d="M205.6 213.6h12.8V242h-12.8z" transform="scale(.00706 .00702)" id="path10"/><path style="fill:none;stroke:#000;stroke-width:.5px;stroke-miterlimit:4" d="M236.7 222.3h-16m16.5 4.2h-16.6m17 4.1h-17m17.5 4.2h-17.5m18 4.1h-18m14.2 4.1v-4m-10.1 4v-4m1.3-.1v-4.1m6 4.1v-4.1m-1.1 0v-4.2m-6.2 4.2v-4.2m1.3 0v-4.1m7.3 0v-4.2m18.7 4.2v-4.2m-1.9 8.3v-4.1m4.9 8.3v-4.2m-2.3 8.3v-4.1m2.3 8.2v-4" transform="scale(.00706 .00702)" id="path11"/><path style="fill:none;stroke:#000;stroke-width:.5px" d="M255.3 222.3H247m9 4.2h-8.2m9 4.1h-8.2m9 4.2h-8.3m9.1 4.1h-8.3" transform="scale(.00706 .00702)" id="path12"/><path style="fill:none;stroke:#000;stroke-width:.5px;stroke-miterlimit:4" d="M235.8 214h-15.2m15.6 4.2h-15.6m6.4 4.1v-4m5 4v-4m1.5-.1v-4.1m-4.7 4.1v-4.1m2.2-.1v-4m17.5 4v-4m2.3 8.2v-4.1m1.6 8.2v-4" transform="scale(.00706 .00702)" id="path13"/><path style="fill:none;stroke:#000;stroke-width:.5px" d="M245.4 214h8.3m.8 4.2h-8.3m-7.7 19.8h8.8m-9.3-4.1h8.5m-8.9-4.1h8.2m-8.7-4h8m-8.5-4.1h7.6m-8-4h7.3" transform="scale(.00706 .00702)" id="path14"/><path style="fill:none;stroke:#000;stroke-width:.5px;stroke-miterlimit:4" d="M242 242v-4m1.5 0v-4.1m-4 0v-4m1.5-.1v-4m-2.7 0v-4m.7-.1v-4m2 0v-4m-53.7 8.6h16m-16.5 4.2h16.6m-17.1 4.1h17m-17.4 4.2h17.5m-18 4.1h18m-14.2 4.1v-4m10.1 4v-4m-1.3-.1v-4.1m-6 4.1v-4.1m1.1 0v-4.2m6.1 4.2v-4.2m-1.3 0v-4.1m-7.2 0v-4.2m-18.7 4.2v-4.2m1.8 8.3v-4.1m-4.8 8.3v-4.2m2.3 8.3v-4.1M169 243v-4" transform="scale(.00706 .00702)" id="path15"/><path style="fill:none;stroke:#000;stroke-width:.5px" d="M168.7 222.3h8.3m-9 4.2h8.2m-9.1 4.1h8.3m-9.1 4.2h8.3m-9 4.1h8.2" transform="scale(.00706 .00702)" id="path16"/><path style="fill:none;stroke:#000;stroke-width:.5px;stroke-miterlimit:4" d="M188.2 214h15.2m-15.7 4.2h15.7m-6.4 4.1v-4m-5 4v-4m-1.6-.1v-4.1m4.7 4.1v-4.1m-2.1-.1v-4m-17.6 4v-4m-2.2 8.2v-4.1m-1.6 8.2v-4" transform="scale(.00706 .00702)" id="path17"/><path style="fill:none;stroke:#000;stroke-width:.5px" d="M178.6 214h-8.3m-.8 4.2h8.3m7.7 19.8h-8.9m9.4-4.1h-8.6m9-4.1h-8.2m8.7-4h-8m8.4-4.1h-7.6m8.1-4h-7.3" transform="scale(.00706 .00702)" id="path18"/><path style="fill:none;stroke:#000;stroke-width:.5px;stroke-miterlimit:4" d="M182 242v-4m-1.5 0v-4.1m3.9 0v-4m-1.4-.1v-4m2.7 0v-4m-.7-.1v-4m-2 0v-4" transform="scale(.00706 .00702)" id="path19"/><path style="fill:none;stroke:#000;stroke-width:.5px" d="M205.6 238h12.8m-12.8-4.1h12.8m-12.8-4.1h12.8m-12.8-4h12.8m-12.8-4.1h12.8m-12.8-4h12.8" transform="scale(.00706 .00702)" id="path20"/><path style="fill:none;stroke:#000;stroke-width:.5px;stroke-miterlimit:4" d="M208.5 242v-4m6.1 4v-4m-2.4 0v-4m-3.9 0v-4.2m6.4 4.2v-4.2m-3.9.2v-4.2m-2.2.1v-4.2m4.8 4.2v-4.2m-2.6.1v-4.1m4 4.1v-4.1m-2.1 0v-4.2m-3.1.2v-4.1m4.9 4.1v-4.1" transform="scale(.00706 .00702)" id="path21"/><path style="fill:#ffce00;fill-rule:nonzero;stroke:#1b1918;stroke-width:.5px;stroke-miterlimit:4" d="M211.7 206.5a2 2 0 0 0-2 .4 2.5 2.5 0 0 1 1.9-3.2l2.8 1.4zm18.1-.1q.8-.1 1.3.2a2 2 0 0 1 .7 2q.6-1.2.6-2.8 0-.7-.3-1.4a2 2 0 0 0-.9-1.1 2 2 0 0 0-2.2.3l-2.2 2.2zm-6.8 8.1a2.4 2.4 0 0 1 1.6 2.5q1.1-.3 1.6-1.2.6-1.1 0-2.3l-2.6-1.4zm-11.4-1.1a3 3 0 0 0-1 2.8 4 4 0 0 0 2.8-.8l.5-2.5zm-5.6-4.2a1.6 1.6 0 0 1 1.6 1.5q0 .6-.3 1a2 2 0 0 0 1.7-1.2q.5-1 0-2.1a3 3 0 0 0-1-1.3h-2.8zm-3.7 5.4a3 3 0 0 1 .8 2.2 2 2 0 0 0 1.5-1.5q.2-.6.1-1.2 0-.7-.4-1.3l-3-.8zm-12.3-.1a6 6 0 0 0-2.9 1.6 4 4 0 0 1 1-3.5l2-.8 1.6.4zm.3-7.5a2 2 0 0 0-2.2.5q-.6.5-.6 1.1-.4-1.7.6-3t2.5-1.5l3.3 1.8z" transform="scale(.00706 .00702)" id="path22"/><path style="fill:#ffce00;fill-rule:nonzero;stroke:#1b1918;stroke-width:.5px;stroke-miterlimit:4" d="m221.3 191.7.2 6.7a9 9 0 0 1-2.8 5l-1.2.6h-1.4l-2.3-.9h-1q-.8 0-1.2.6a2 2 0 0 1 .1 2.8 5 5 0 0 0 4.4.4 3 3 0 0 1-1.1 3l-2.5 1.6a3 3 0 0 0-1 1.9 3 3 0 0 1 1.9 2q1.2-.5 2.2-1.3l2-2 2.3-3 3.2 5.4a3 3 0 0 1 3.2-1q-.1-.8-.7-1.5l-1.4-1.6a5 5 0 0 1-.6-4.3 7 7 0 0 1 2.5.5l1.4.5q.7.3 1.4 0 .6-.1 1-.7-1-.7-1-1.6-.1-.6.1-1.2-.9-.6-2-.4l-1.1.4h-1.3l-.4-.5-.3-.6v-1.2a51 51 0 0 1 1.9-9.9m-15.4-1.8-6.2 7.5a65 65 0 0 1-6.6 6.8q-1 .6-2.2.5c-.9 0-1.6-.6-2.4-.9l-.8-.2h-.8q-.6.3-.8.8.6.4.7 1.2a2 2 0 0 1-1 1.6q0 .9.7 1.1l1.2.3 1.1-.2 1.9-.3q-1 .8-1.7 1.8l-.7.8q-.3.4-.9.7h-1.6l-.8-.1-.8.2a1 1 0 0 0-.5 1.4 2 2 0 0 1 1.8 1v1q.7.3 1.5.2.7-.2 1-.7.6-.4 1-.9 1.6-1.3 3.3-2.3l1.8-1.3q1 1 1.5 2.6 0 .6.3 1.1 0 .6.6 1t1.3.3a2 2 0 0 1 2-1.8l-.2-1q-.2-.4-.7-.8l-.7-.9a2 2 0 0 1-.1-1.8 1.4 1.4 0 0 1 1.6 0l.5.6.6.4h.8a2.4 2.4 0 0 1 1.9-2.2l-.2-.9-.4-.3-.6-.2h-2.3l-.5-.3-.4-.5v-.8l.4-.7q1.6-3 3.5-5.7a21 21 0 0 1 3.6-3.7l4.4-2.8h.2l3.2-2-3.1-5.3zm-49.2-58.1a2 2 0 0 0-1.8 1.2l-.3.8-.2.4q0 .3-.3.3-.3.3-.7.2h-.8l-.8.6-.8.6h-.6q-.2 0-.5-.3l-.8-.7-1-1.3a3 3 0 0 1 3.4-.5 8 8 0 0 1 3.5-2.2" transform="scale(.00706 .00702)" id="path23"/><path style="fill:#ffce00;fill-rule:nonzero;stroke:#1b1918;stroke-width:.5px;stroke-miterlimit:4" d="M165.9 137a2 2 0 0 0 1.3 1.4q.7.3 1.5.2l1.5-.3c2.5-.5 5.2 0 7.3 1.3q2.3 1.3 3 3.6.4 1.2.4 2.6l-.1 2.6q0 1.5.2 2.8l2.6-1.7a29 29 0 0 0 1.2 5c.7 1.4 1.8 2.6 2.4 4q.3 1.5 1 2.8.4.9 1.3 1.4l1.3-1.4a23 23 0 0 1 6.1 11.9q4-.6 7.7 1 2.4 1 4 3 1.1 1.8 1.5 4 .4 1.8-.1 3.5-.3 1-1 1.8-.5.4-.7 1l-.1.5q0 .3.2.5l.3.3h.4l.4.2.3.2.2.4.1.4q0 .4.3.8.2.3.6.4h.8l1.2-1 1.5-1.6a3 3 0 0 0 0 3.3 3 3 0 0 0 2.8 1.7q1.4 0 2.4-1a10 10 0 0 0 6.2 3.6 7 7 0 0 0 1-5.6 2 2 0 0 1 2.5 1q.3.3.4 1l.3 1q.3.8.8 1.3a7 7 0 0 0 2.1-5.8l3 3.4c1-1 1.5-2.6 1.4-4a8 8 0 0 0-1.3-3.6q-.4-.5-.6-1.2v-.6q0-.4.2-.7t.7-.3h.8q1 .2 1.4 1.2.8-1.2.3-2.5-.3-.8-1-1.3a5 5 0 0 1 4.2-3.6 79 79 0 0 1 5.8 12.5l.5 1.9q.3 1 1 1.5.8.5 1.4.5a4 4 0 0 0 2.9-1.3q.8 1.5 2 2.7 1 1 2 1.7a5 5 0 0 0 3.9.5q.9-.5 1.4-1.3a3 3 0 0 0 3-.4 4.2 4.2 0 0 0 6-2 3 3 0 0 0 2.8-.2q.6-.5.9-1.2a3 3 0 0 0 3 0 3 3 0 0 0 1.3-1.7 3 3 0 0 0 2.2-.8q.7-.7 1-1.6a2.4 2.4 0 0 0 2.4-1.5q.3-.9 0-1.8a3.5 3.5 0 0 0 3.2-4q-.1-1-.7-1.6a195 195 0 0 1-50.9-29.5 19 19 0 0 0 5.2-.8 6 6 0 0 0-2.5-5.4q1.1-.5 2.2-.5c2-.2 3.9.3 5.8.2a6 6 0 0 0 2.3-.5q1.1-.6 1.6-1.7.3-1.1-.2-2.1-.9-.2-1.8-.1l-1.6.2q-1 0-1.9-.6l2.3-.6q1.5-.2 3.2 0a12 12 0 0 0 5-.8 7 7 0 0 0 3-2.6 5 5 0 0 0-3.7-2.2q2 0 3.9-.6 1.6-.6 3-1.6 1.7-1.3 2.4-3.4l-1.6-.8 4-2q1.1-.3 2.1-.9a3 3 0 0 0 1.5-1.7q.4-1 0-2-1-.2-2.1-.1l-1.8.2q-1.9.3-3.7-.2a47 47 0 0 0 8.4-4.2q2.7-1.5 4.4-4 .8-1.5.9-3l-2.6-.6a6 6 0 0 1 1.2-2q1-.7 1.8-1.8a3 3 0 0 0-.1-2.6 13 13 0 0 0-4.2.7q2.7-2 5-4.4 2.2-2 3.2-4.6.3-.7.3-1.7 0-.7-.6-1.5l-.8-.4a55 55 0 0 1-10.6 8 42 42 0 0 0 6.2-7.1l3-4.9q.6-.7 1-1.5a3.3 3.3 0 0 0-.4-4.3l-5.6 4.6q2.9-3.5 5-7.2 1.5-2.2 1.8-4.9 0-1.9-1.2-3.6l-1 1q-1.4 1.3-2.3 3a34 34 0 0 1-6.8 6.8l10.3-15.6q.7-1.5.6-3.1a5 5 0 0 0-1.5-3L270 66.9l3.7-5.7q1.3-1.8 2.2-3.6 1-2 1-4 0-2.3-1.2-4.2l-2 2.3-4.6 6-5 5.5a169 169 0 0 0 9.6-15.7 8 8 0 0 0 1-4 5 5 0 0 0-2.5-3.6 224 224 0 0 1-13 18.6q3-6.2 6.2-12.2 2.2-3.7 3.7-7.7.6-1.8.8-3.8.1-1.9-.6-3.7a7 7 0 0 0-3.2-3.3q-7 14.1-15.2 27.5a96 96 0 0 1-15.3 20q-4.6 4.4-9.4 8.3a24 24 0 0 0-6.8 7.7 19 19 0 0 0-1.5 8.3q0 3.5 1.3 6.6a9 9 0 0 0 2.8 3.3l3 2q.9.6 1.2 1.7.2.8 0 1.7l-.5 1.6a17 17 0 0 0-.8 4.3q-2-1.5-3.3-3.5-1.4-2.6-2.1-5.4l-.6-1.4-1-1.1a3 3 0 0 0-1.6-.5V106l-.1-1.7q-.3-.8-1-1.3a2 2 0 0 0-1.8-.3l-.1-2.4q-.2-1.1-.8-2.1a4 4 0 0 0-3.3-1.8l-.6-2-.4-1.3q-.3-.7-.8-1-1-1-2.3-.7.1-1.6-1-2.6a3 3 0 0 0-3-.8 9 9 0 0 0-5.1-6.1l-1.7 3.3q-1.1-3.7-3.6-6.7c-2-2.4-4.6-4.2-6.8-6.3l-1.4-1.3-1.6-.8q-1.4-.4-2.7.4 1.5 2.7 3.3 5.2l2.6 3.6 1.6 2.8-4-4.4q-2.3-2.8-5-5.4-2.6-2.2-5.6-4.2l-1-.6-1-.3a2 2 0 0 0-1.5.6 2 2 0 0 0-.6 1.4l-5.6-3.6q-.7-.3-1.4-.3a3 3 0 0 0-1.6.4l3.5 6a29 29 0 0 0-5.8-5l-4.6-2.7-2.4-1.6q-1.3-.6-2.8-.5-.9.3-1.6.8a65 65 0 0 0 7.4 7.1q-3.6-2.2-7-4.7-2-1.6-4.3-2.6a5 5 0 0 0-3.4-.5 4 4 0 0 0-1.8 1l10.3 10.4a61 61 0 0 0-16.4-10.1q-1.3-.4-2.5 0-1.6.6-2.2 2.2l4.8 3.3c4.7 3 9.4 6 13.6 9.8 4.6 4.1 8.4 9 12.2 13.9q6.8 8.7 14.1 17.2c2.6 3 5.4 6 9 7.4a15 15 0 0 0 9.2.6l2.8-1q1.1 0 2.2.3a9 9 0 0 1 4.3 4 11 11 0 0 1 .4 8q-.2.6-.7.9a2 2 0 0 1-1.3.2l-1.2-.3-2.1-.7-.9-.7q-.3-.4-.4-1-.1-.8.4-1.1.5-.6 1.1-.6-.6-1-1.7-1.3a2 2 0 0 0-2.3 1q-.9-.6-1.9-.7-1.7-.2-3.4 0h-1l-1-.3q-.5-.4-.5-1a2 2 0 0 0 2-1.5q.3-.7 0-1.3l-1.4.4h-2.4q-1-.2-2 0a3 3 0 0 0-1.6 1.1q-2.3-.3-4.7 0l-2.2.3-4.1.1-2 .4q-1.5.7-2 2.2" transform="scale(.00706 .00702)" id="path24"/><path style="fill:#ffce00;fill-rule:nonzero;stroke:#1b1918;stroke-width:.5px;stroke-miterlimit:4" d="M163.1 133.3a6 6 0 0 0-4.5 4 5 5 0 0 0 2.7 0q1.2-.1 2.2-.5 1.2 0 2.4.3a4 4 0 0 1 2.7-2.6l-5.2-4q-.8-.7-1.1-1.6l-.7-2.4q-.6-1-1.6-1.4a6 6 0 0 0-6.6 2.4q-.9 1.3-1 3a2 2 0 0 0 2.5 0l.8-.6 1-.5 1 .2q.5.2.8.9a6 6 0 0 1 4.6 2.8z" transform="scale(.00706 .00702)" id="path25"/><path style="fill:#fefc32;fill-rule:nonzero" d="M207.2 140.6a29 29 0 0 0 19-19.8 33 33 0 0 0 1-9.8 11 11 0 0 1-6.4-8.2q-.4-2-.4-3.9.3-5.3 3.5-9.5a22 22 0 0 1 6.7-6h.1v.2a22 22 0 0 0-6.4 6 17 17 0 0 0-3.3 9.3 15 15 0 0 0 1.7 6.6 10 10 0 0 0 5.4 4.7q.3 0 .4.5a34 34 0 0 1-7.7 21.5 29 29 0 0 1-13.5 8.8l-.2-.2zm-25.9-8.6a18 18 0 0 1 4.1 3 18 18 0 0 1 4.2 3.3l.1-.3q-1.3-2.3-3.4-4.2a19 19 0 0 0-4.9-2h-.1zm-7.4-22.4a10 10 0 0 0 9.4 6.2 20 20 0 0 0 4.3-.6 14 14 0 0 1 4-.6 8 8 0 0 1 6.4 4.1.2.2 0 0 0 .4-.1 8 8 0 0 0-6.7-5q-2.3 0-4.4.4l-.5.1q-1.8.5-3.6.7a9 9 0 0 1-8.9-5.4.3.3 0 0 0-.4.2m56.3 47.7q.5 1.3 1.4 2.5a11 11 0 0 0 2.8 1.5l.1-.3a10 10 0 0 1-2-2.1l-2-1.8-.1-.1a.2.2 0 0 0-.2.3m-2.5 2.7-.3.1a4 4 0 0 0-2.4 2.2v.1q-.2 1.6.7 2.7a.3.3 0 1 0 .5-.2q-.2-1.2.2-2v-.2q.2-1.1 1.3-2h.2a.4.4 0 0 0-.2-.7m-26.5 6.2q1.8 2.3 4.4 3.3l2.4.9h.1q1.2.3 2.1.9 1.6 1.2 1.7 3.3l.3.2q.3 0 .3-.2a5 5 0 0 0-1.8-4l-2.3-1.2q-1.4-.2-2.5-.6a10 10 0 0 1-4.3-3h-.2a.3.3 0 0 0-.2.4m-8.5-13a9 9 0 0 0 2.3 2.2v.2l.5 2.1q.7 2.5 2.2 4.5l.2.1.1-.3a15 15 0 0 1-2.3-6.9s0-.2-.2-.2a8 8 0 0 1-2.5-2h-.1a.2.2 0 0 0-.2.3m-2.1-3.9a3 3 0 0 1-1.3-3l.2-.8q.2-.8 1-1.5v-.2l-.3-.1a4 4 0 0 0-1.7 2.5l.2 1.6q.6 1.2 1.7 2h.1a.2.2 0 0 0 .1-.5m62.1-31.3q2.4-3.6 3.1-7.8a30 30 0 0 0 0-10.2 55 55 0 0 0-5.3-16.2l-.2-.2a.2.2 0 0 0-.2.4 55 55 0 0 1 4.9 26q-.6 4.1-2.7 7.6a.3.3 0 1 0 .4.3zm-13.3-43.4a5 5 0 0 0 3.5 1.1 5 5 0 0 0 2.8-2 .1.1 0 0 0-.3 0q-1.2 1-2.6 1.2h-.3a4 4 0 0 1-3-.5l-.2.1zm-17.5 125.2-2.2 4a3 3 0 0 1-3 1v.2a4 4 0 0 0 3.8-1.3l.8-1.6zm-18.4-.4a10 10 0 0 1-2.8 3.4 3 3 0 0 1-1.2 1 8 8 0 0 1-3.8 1.4v.1h.1q2.2.2 4-1l1.5-.9a10 10 0 0 0 2.2-4M154 129a6 6 0 0 1 2.5-2.5 7 7 0 0 1 4.4.6l-.1.3a6 6 0 0 0-3.8.6 6 6 0 0 0-3 1" transform="scale(.00706 .00702)" id="path26"/><path style="fill-rule:nonzero;stroke:#000;stroke-width:.5px;stroke-miterlimit:4" d="m165.2 125.6.5 2.7q.5 0 1-.4.4-.3.6-.8l-.1-1.1q-.3-.5-.9-.6" transform="scale(.00706 .00702)" id="path27"/><path style="fill:none;stroke:#000;stroke-width:.5px;stroke-miterlimit:4" d="M173.8 127.3a3.5 3.5 0 0 0 3-3q-2.6.3-5.3 0-1.5-.2-3 .1-1.2.3-2.2 1-1.4.3-2.7.2m11.4 3a3 3 0 0 0 2.6 0l1.4-1a5 5 0 0 1 2.3-.9q1 0 2 .4l2 .6 1.6.2q.8 0 1.4.4.8.3 1.2 1.1l-3.7 1.5a19 19 0 0 1 9 8.2q.9 1.4 1 2.7t-1 2.3a4 4 0 0 0-2.4-2c-1-.2-2 0-3-.4q-1.5-.6-2.6-1.6-1.1-1.1-2.4-2a5 5 0 0 0-4-.5m44.6-16.8q-.7 2-1.7 4a34 34 0 0 1-14.1 13.3q-2.2.7-4.5.2" transform="scale(.00706 .00702)" id="path28"/><path style="fill:none;stroke:#000;stroke-width:.5px;stroke-miterlimit:4" d="M214.6 134.7a44 44 0 0 1-17-6.2m-6 6.4q1.6-.7 3.5-.3 1.3.8 2.7 1.2a3.3 3.3 0 0 0 3.7-2 22 22 0 0 1-5.3-3.7m-4.2 15.6a6.6 6.6 0 0 0 5.2 7.4q0 1.8.3 3.6a21 21 0 0 0 7.1 10.5m-1.3-8.1q0 1.2.6 2.2a6 6 0 0 0 1.6 1.8l2 1.4q1.8 1 3.5 2.4" transform="scale(.00706 .00702)" id="path29"/><path style="fill:none;stroke:#000;stroke-width:.5px;stroke-miterlimit:4" d="M213.2 169.3a6 6 0 0 1 .6 6.3q-.8 1.6-2.2 2.5 0-2-1.1-3.8-1.3-1.6-3.3-2.7t-3.7-2.1q-2.4-1.6-4-3.7m-2.2-1.2a16 16 0 0 1-3-4.4m-1.8-.2a12 12 0 0 1-.7-4.7m-2 2.3a25 25 0 0 0-3-7 5 5 0 0 1 4.3 1.7m-7.5-2.8a7 7 0 0 0 2.3-6M216 178a10 10 0 0 0-1.5 7.4m2.3-2.8q.9 1.1 1.3 2.5c.4 1.3.2 2.8.5 4.1q.3 1.3 1.1 2.3m4.1-.2a14 14 0 0 1-4.4-10q.1-4 2-7.5 1.4-2.3 3.2-4.3m.1 8.8a16 16 0 0 0-.3 4.4l.7 1.7q.8 1.3 2.3 1.6m-1.4-11.6a16 16 0 0 0 4.8 6.2l1 .9.5 1q.2.8-.3 1.5t-1.3.6m-.2-19.6q1.2 1.2 1.6 2.9l.3 2.5q.1 1.4.7 2.5.5 1 1.4 1.6l1.7 1.3 2.3 2.2m-22.9-12.7 4 4.6a5 5 0 0 0 1.8-3.3m-16.7-12.4q1.4 2.7 3.7 4.7a11 11 0 0 0 6.5 2.6q4.4 0 7.7-2.9a14 14 0 0 0 3.6-4.4" transform="scale(.00706 .00702)" id="path30"/><path style="fill:none;stroke:#000;stroke-width:.5px;stroke-miterlimit:4" d="M209.4 151.4a5 5 0 0 0 2.7 3.2q2.1.8 4.1-.3a5 5 0 0 0 2.1-5m1.8-2.4 2.4.9 1.3.2q.6 0 1.3-.4.6-.6.8-1.4v-1.6l-.6-1.9m1.7-1.1a7 7 0 0 0 2.4.6l1.5-.2q1-.3 1.3-1 .5-.7.3-1.5 0-.9-.4-1.6l-1.4-2.5m1.5-1.1a6 6 0 0 0 2.5.9h1.3q.8-.3 1.2-.7.6-.8.6-1.7l-.5-1.7q-.5-1-1.4-1.9m-.4-2.4q1.2 1.2 2.9 1.5h1.3q.8 0 1.2-.5t.5-1v-1q-.1-1-.8-1.8a8 8 0 0 0-2.7-2.2m.5-1q1.5.3 2.9.2l1.1-.3 1-.7.2-.8v-1l-1-1.5a8 8 0 0 0-4-2 6 6 0 0 0 2.5-1q1-.6 1.5-1.7a3 3 0 0 0-.2-2.2q-.6-1-1.5-1.6a6 6 0 0 0-2.7-1 9 9 0 0 0 3.7-3.5q.6-1.2.7-2.5 0-.7-.2-1.3-.2-.8-.8-1a2 2 0 0 0-1.3-.7H239a10 10 0 0 0-4.8 3.3 7 7 0 0 0 1.9-3.3q.2-.8.1-1.7a3 3 0 0 0-.6-1.6 3 3 0 0 0-2.2-1 5 5 0 0 0-2.3.5 8 8 0 0 0-3.2 2.8M201.6 144a20 20 0 0 0 3.1 5.2q.6.5 1.2.5.8 0 1.3-.6t.7-1.2q.9-2 .4-4.2m1.7.6a17 17 0 0 0 2.6 2.7q.5.4 1.2.3l.8-.2.6-.6q.6-.7.7-1.6a7 7 0 0 0-1.2-5.5m2 .4a6 6 0 0 0 3 2.2l1.5.2q.8 0 1.4-.5t.8-1.3V139a4 4 0 0 0-2.9-3.2m2.1-.8q1.1 1.4 2.7 2l1.3.2a2 2 0 0 0 1.3-.4q.5-.5.7-1.2v-1.4q-.5-1.6-1.9-2.7" transform="scale(.00706 .00702)" id="path31"/><path style="fill:none;stroke:#000;stroke-width:.5px;stroke-miterlimit:4" d="M225.3 130.4q1.2 1.2 3 1.7l1.2.1q.7 0 1-.4.6-.3.7-.7.3-.5.2-1 0-1-.5-1.9a5 5 0 0 0-3-2.2q1.2.3 2.5.3l1.7-.5a3 3 0 0 0 1.3-1.2q.5-1 .2-2a4 4 0 0 0-.9-1.7 5 5 0 0 0-3.5-1.7q2.1 0 4.2-1l1.5-.9q.7-.6.8-1.5l-.3-1.3-1-1q-.8-.7-2-1m-2.4-.5q1.9-.5 3-2 .6-1 .7-2 .2-1.3-.6-1.9-.5-.5-1.3-.7l-1.4-.1a9 9 0 0 0-3.8.9" transform="scale(.00706 .00702)" id="path32"/><path style="fill:none;stroke:#000;stroke-width:.5px;stroke-miterlimit:4" d="M226.6 106.2q1.5-.9 2.4-2.4.5-.7.6-1.6l-.2-1.6q-.3-.6-1-1l-1.2-.4a5 5 0 0 0-2.3 0m10.6 39.2a2 2 0 0 0 2.4 0 2 2 0 0 0 .7-1.9m2.4-2a3 3 0 0 0 3.1-1.9 3 3 0 0 0-.9-3.2m1.9-1.2q1 .3 2-.2.8-.5 1.2-1.4.5-1 0-2-.3-1-1.4-1.5m.7-4.5q1.2.3 2.2-.3t1.2-1.9q.1-1-.5-1.9t-1.6-1" transform="scale(.00706 .00702)" id="path33"/><path style="fill:none;stroke:#000;stroke-width:.5px;stroke-miterlimit:4" d="M247 113.4a5 5 0 0 0 3.6-.7l1-.9q.3-.5.4-1.1 0-1-.3-1.7-.4-.9-1.2-1.3a8 8 0 0 0-3.4-1.7" transform="scale(.00706 .00702)" id="path34"/><path style="fill:none;stroke:#000;stroke-width:.5px;stroke-miterlimit:4" d="M247.1 106q2 .7 3.8-.4.8-.6 1.4-1.4t.5-1.7a4 4 0 0 0-1.6-3.4 4 4 0 0 0-3.1-.6m-.1 0a8 8 0 0 0 3.3-2.3q.6-.6.9-1.4.1-.7 0-1.6-.5-.8-1.1-1.1a3 3 0 0 0-1.6-.4q-2.6-.3-5 1.3" transform="scale(.00706 .00702)" id="path35"/><path style="fill:none;stroke:#000;stroke-width:.5px;stroke-miterlimit:4" d="M244.5 93a8 8 0 0 0 3.5-3.2q.5-.7.7-1.8.1-1-.4-1.8-.7-.9-1.8-1a5 5 0 0 0-2 .2q-2.1.5-3.9 2" transform="scale(.00706 .00702)" id="path36"/><path style="fill:none;stroke:#000;stroke-width:.5px;stroke-miterlimit:4" d="M240.6 87.4q3.6-2 5.1-5.5.3-.7.4-1.5c.1-.8-.1-1-.4-1.5l-.7-.6q-.4-.3-1-.3-.8-.1-1.8.2c-2.2.6-4.1 2.1-5.9 3.6l-4.8 4.2" transform="scale(.00706 .00702)" id="path37"/><path style="fill:none;stroke:#000;stroke-width:.5px;stroke-miterlimit:4" d="M236.5 81.7q1.3-1.4 1.6-3.3v-1.1q0-.6-.4-1a2 2 0 0 0-1.4-.7q-.7 0-1.5.5M253.7 191a347 347 0 0 0-9.5-16.3m18.8 19.9a33 33 0 0 1-6.2-5.3q-2.7-3-5-6.2-3-4.5-6.3-8.8m20.5 19.9a138 138 0 0 1-19.4-22m25.5 20.1a117 117 0 0 1-24-22.8m27.6 21.3a300 300 0 0 1-27-23.5M280 189a1351 1351 0 0 1-30.5-23m33.6 20.7a590 590 0 0 1-32.6-22.6m35.1 19.3a256 256 0 0 1-34.2-21.2m-21.8-11.5 11.8 12m-5.7-11a19 19 0 0 0 6.5 4.5m-1.6 1.6 5.8 2m-2.2 3.2 3 .4m-2.9 2 1.4 1.6m-6.7-3a5 5 0 0 1 3.3 4.1m-.3 2.4.3 2m-5.8-3.5 2 2m-14-66.5 2.4-2.2m2.1 7.4 2.4-1.7m-1.1 7.7h2.4m-4.4 7.3 3 .7m-4.7 4.1 2 2.1m-4.8 3.1 2 1.1m-6.8 3.7 1.8 1.7m-9 2 1.5 2.2m-8 .3.3 2.1m53.7-87.6a51 51 0 0 1-10 12.5m14.7-7.8a37 37 0 0 1-5 6m11-2.3a58 58 0 0 1-8.1 8.9m7.9 1.7A140 140 0 0 1 253 92.3m21.3-9.9-8.5 8.4m4.3 4.8a68 68 0 0 1-9.2 4.3m12.7.3a50 50 0 0 1-13.6 7.3m15-1.5a23 23 0 0 1-18 6.5m6.8 5.2a8 8 0 0 1-6.8-.8m-1 13.9a35 35 0 0 1-7.3.2m15.1-6.6A51 51 0 0 1 252 126m-5.7 11a10 10 0 0 1-3.9.2m-2.5 4.8a11 11 0 0 1-4.7-.3m3.1-47.9a17 17 0 0 1 6.2-5m-8.5-1.5a33 33 0 0 1 5.4-5m-8.6-1.5 2.1-1.7m7.4-7.1A114 114 0 0 0 267 34m-20 45.2a404 404 0 0 0 24.8-33.7M251.5 82A84 84 0 0 0 275 53m-15.9 29.8A139 139 0 0 0 278 61.3m-20.8 32a141 141 0 0 0 21-21m-14.8 24a54 54 0 0 0 13.8-13m-13.7 20a60 60 0 0 0 14.3-10.1m-16 16.8a24 24 0 0 0 11.9-5.9M263 115.2a35 35 0 0 0 8.7-4.4m-23.3 9.2a18 18 0 0 0 12.2 1.8q2.3-.4 4.5-1m-12.3 7.7a19 19 0 0 0 4.8-.4m-8.2 5.4 4.8-.3m-17.5-29.4 2.9-2.9m-8-1.7 2.1-2.6m3.7 14.2 1.9-.2m-.7 7.4 1.5.4m4 6.1 1.2.4m.7-9.4 1.7.5m.3-5.8 2 .8m-2.8-9h3m-3.6-6.8 2.1-1.2M230 87.8l-2 1.8m-1.6 1.9a5 5 0 0 0-1.8 2m-1.2 3.3a3 3 0 0 0-.2 1.9m-7.2 29.7a10 10 0 0 0 5.1-9.2M174 107.1q0-1.2.3-2.5 0-.7.4-1.2.3-.6.8-1 .8-.5 1.7-.4 1 0 1.7.6a5 5 0 0 1 2 2.2 4 4 0 0 1 1.4-2.9 4 4 0 0 1 3-1q1.2 0 2 1 1 1 .9 2.2l1.2-2q.3-.6.9-1a2 2 0 0 1 1.2-.5q1 0 1.9.6a7 7 0 0 1 2.2 4.7q.7-1.4 1.6-2.6l1.1-1 1.4-.4q.6 0 1 .3l.8.7q.6 1 .8 2 .3 1.8-.4 3.6a4 4 0 0 1 3.2-1.7q.8 0 1.3.5.6.7.7 1.5v1.7l-.2 2 2 .2 1 .6q.6.4.8 1 .2.8 0 1.5l-.7 1.2q-.8 1-2 1.6 1.5.2 2.7.8l1.4 1q.7.7 1 1.7l-.2 1.6q-.2.8-.8 1.5-1 1.3-2.6 2" transform="scale(.00706 .00702)" id="path38"/><path style="fill:none;stroke:#000;stroke-width:.5px;stroke-miterlimit:4" d="M202.6 129.6a10 10 0 0 0 3-1.8q.5-.4.7-1a2 2 0 0 0-.4-2 2 2 0 0 0-2.1-.5l1-1.4q.3-.6.2-1.3 0-.4-.3-.8l-.7-.6a4 4 0 0 0-2-.7q1.6 0 2.6-1 .4-.6.5-1.2.1-.8-.1-1.4a3 3 0 0 0-1.3-1.2l-1.8-.3q-1.6-.1-2.8.4 1.5-1 1.7-2.7.1-1-.4-1.8l-.9-.7-1-.2q-1.2 0-2.1.6-1.5.7-2.4 2a5 5 0 0 0-.4-3.3l-.7-1q-.4-.5-1-.7-1-.1-1.9.2l-1.5 1q-1.2 1.2-2 2.7-.5-1.5-1.5-2.5l-1.2-1-1.4-.3a3 3 0 0 0-1.8.8q-.7.7-1 1.6-.6 1.3-.5 2.5m3.9-2 .5 1.5m7.5-1.7-.1 2.2m7.5 0-1 1.4m5 3.4-1.6.2m9.2 5.4-1.4.4m.4-7.6-1.5.7m-2.9-6.6-1.1 1.5m-4-6.5-1.2 2.2m-6.3-3.7-.1 2m-7.3-1.8.2 2.1m-7.8-.7 1.1 2.2m36.3 9.7a13 13 0 0 0 1.9-7.4m-4.6-1.3a15 15 0 0 0 1.7-4.9m-5.2 2.2a37 37 0 0 0 1-8.5m-5 6 1-11m-5.5 7.7A42 42 0 0 0 201 88m-4.3 8.3a47 47 0 0 0-2.4-11m-.9 13.4a47 47 0 0 0-7.7-16.6m2.3 14a92 92 0 0 0-21-26.9m15.5 28.3a102 102 0 0 0-20.6-25.7m13 27.6A84 84 0 0 0 152 69.8m14.2 27A94 94 0 0 0 146 73.4m21.4 28.8a208 208 0 0 0-27.2-30.1" transform="scale(.00706 .00702)" id="path39"/><path style="fill:none;stroke:#000;stroke-width:.5px;stroke-miterlimit:4" d="M171.2 101.2a87 87 0 0 0-27.8-34m29 21.2A112 112 0 0 0 152.2 67M179 86.5a102 102 0 0 0-14.7-15.9m25.5 13.1a24 24 0 0 0-6.6-9.3m53.3 70.3 2.8 1.1m-23.1-22.1a4 4 0 0 0 2.2-3.6m0-1.4v-1m-21.3-31.4.6 3.3m4.6.8-.1 4m4.1.4-.3 2.3m4.3 1.9-.4 2.7m4 5-.6 2.5m15.7 49.6a21 21 0 0 0 4.6 4.7m-63.3-31.7.8.1a1 1 0 0 0 1-.9v-.6m.7 1.1h1q.3-.2.5-.6v-.7m-1.8 4.7.6.2.6-.3.1-.6q0-.3-.3-.5m1.9-.2a1 1 0 0 0 1.1-.4 1 1 0 0 0 0-.9m1.3-.7h.7q.3 0 .5-.3t.1-.6l-.3-.6m-1.2 5.2a1.4 1.4 0 0 0 1.9-1.4m1-10.4a17 17 0 0 1-5.4-1.3" transform="scale(.00706 .00702)" id="path40"/></g><!-- app4joy -->
</svg>