<svg height="1101.4" width="1648.9" xml:space="preserve" id="svg69" viewBox="0 0 1648.9 1101.4" xmlns:xlink="http://www.w3.org/1999/xlink" xmlns="http://www.w3.org/2000/svg"><g id="g72"><path fill="#54d6ed" style="fill:#0075d0;fill-opacity:1" d="M0 0h1649v1101.4H0z" id="path1"/></g><g style="display:inline" id="g69"><path d="M858.5 99.8a43 34.8 0 0 1-85.8 0 43 34.8 0 1 1 85.8 0zm-278.2 34.8h2.5c23.7 0 42.9-15.6 42.9-34.8S606.5 65 582.7 65h-2.4M975 99.8a43 34.8 0 0 1-85.9 0 43 34.8 0 1 1 85.9 0zm74.6-34.8h-1.1c-23.7 0-43 15.6-43 34.8s19.3 34.8 43 34.8h1.1M742.1 99.8a43 34.8 0 0 1-85.8 0 43 34.8 0 1 1 85.8 0z" stroke-width="5" fill="#fdd212" stroke="#ffb910" id="path2"/><path fill="#fdd212" d="M580.3 104.7h469.3v68.8H580.3z" id="path3"/><path d="M580.3 104.7h469.3m0 68.8H580.3" stroke="#ffb910" stroke-width="11.2" fill="#fdd212" id="path4"/><g fill="#7e3c02" transform="matrix(.7583 .47334 -.7583 .47334 86.5 6.6)" id="g7"><rect rx="7.5" ry="8.2" height="43.3" width="43.7" y="-325" x="559" id="rect4"/><rect rx="7.5" ry="8.2" height="43.3" width="43.7" y="-250.2" x="484.2" id="rect5"/><rect rx="7.5" ry="8.2" height="43.3" width="43.7" y="-401.8" x="635.8" id="rect6"/><rect rx="7.5" ry="8.2" height="43.3" width="43.7" y="-476.2" x="710.2" id="rect7"/></g><path d="M929 796.4s40.7 7.3 57.4-1.4 137.8-119 151.6-161c13.8-42.1 17.4-135.7 17.4-135.7" stroke="#fca900" stroke-width="9.6" fill="none" id="path7"/><g stroke="#fca900" fill="#ffc816" id="g13"><path d="M1002.4 785c19.3-13.6 58.7 9.4 64.3 4.3s1.9-10.8 1.9-10.8 27.7 4.7 30.5-2.8-2.8-9.4-2.8-9.4 20.1-3.3 23.4-14.6c3.3-11.2-4.2-17.8-4.2-17.8s8-8.9.5-14c-7.6-5.2-23 7-23 7s-.5-9.4-8-7.5c-7.5 1.8-16 16.4-16 16.4s-3.7-5.2-9.3-1.9-7.5 22.5-7.5 22.5-7-6.5-12.7-2.3-10.8 20.2-10.8 20.2-9-5.7-15-1-11.3 11.8-11.3 11.8zm133.3-142.2s8.9-14.2 13.3-14.7 12.2 1 12.2 1 6.1-25.1 13.6-29.9 15.8.3 15.8.3 8.8-6.3 16.4-2c7.8 4.6 5.5 29 .8 33.4s-13.9 6.3-13.9 6.3 5.6 5.6 1.1 10.8-24 5.9-24 5.9 5.5 4.4 1 11c-4.4 6.7-57.7 5-57.7 5z" stroke-width="5.5" id="path8"/><path d="M1150.3 560.7s18.9-29.4 32.3-18.2c13.4 11.3-31.2 24.7-31.2 24.7zm1.8-10.4c-4.3-8.6-11.1-20-16.3-15.7-.2-5.4-1.7-9.8-8-9.9-4.9 0-11 5.2-10 12.4.6 3.8 7 8.5 17 12.3-8.7 8.4 14.7 8.6 14.7 8.6z" stroke-width="3.3" id="path9"/><path d="M1152.5 515s-34-45-33.4-54.4c.8-9.5 11.6-11.6 11.6-11.6s-18-26.9-16-37c2.3-10.2 14.6-9.5 14.6-9.5s-2.2-20.3 2.2-23.9c4.3-3.6 9.4.7 9.4.7s8.7-10.8 16.7-5.8 5 17.4 5 17.4 5.9-2.9 10.2 4.4c4.4 7.2.7 20.3.7 20.3s6.6 3.6 7.3 11.6-9.4 25.4-9.4 25.4 9.4 7.3 9.4 16.7-28.3 45.7-28.3 45.7z" stroke-width="3.9" id="path10"/><path d="M1119.1 664s1.1-15.2-5.8-22.4c-6.9-7.3-18.8-12-19.2-18.5s6.2-10.2 6.2-10.2-10.5-5.8-10.2-14.5 6.5-12.3 6.5-12.3-11.6-14.2-8-20c3.7-5.8 11-6.5 11-6.5s-.8-19.2 7.6-21 12.2 22.4 12.2 22.4 9.9-3.6 12 4.8c2.2 8.3-4 18.5-4 18.5s12-3 10.6 8.3c-1.5 11.2-8.4 21.8-8.4 21.8s9.1-.8 5.5 10.1-11.6 33.4-11.6 33.4z" stroke-width="5.5" id="path11"/><path d="M1078.2 709.8s1.6-12-1.9-17.9-8.2-10-8.9-16c-.7-5.8 1.4-13.3 7.5-13.5 6.1-.3 11.3 9.8 9.9 16.2s-2.4 8.4-2.4 8.4 4.2-1.9 4.2 2.3c0 4.3-4.2 18.1-4.2 18.1zm7.5-5c7-5.6 32.2 9.7 33.2-4 1-13.5-15.3-11.9-20.2-7.6-5 4.3-13 11.6-13 11.6z" stroke-width="3.3" id="path12"/><path d="M998.8 784.5c4.3-11-3.6-16.6-10.6-26.6s0-17.2 0-17.2-10.3-12.6-3.3-21c7-8.2 10.6-4.6 10.6-4.6s-6.6-14.2.3-18.9c7-4.6 11-1 11-1s1.6-13.6 13.6-11c12 2.7 13.2 13 10.6 18-2.7 5-6 10.3-6 10.3s9-3.7 9 7.6-14 17.3-14 17.3 8.7-2 7 6-18.2 30.4-18.2 30.4z" stroke-width="5.5" id="path13"/></g><path d="M1140.3 396.8s5.6 1.7 10.3 5.3c2.8 2.3 3.1 7 3.2 8.8-1.1 1-2.7 1.9-3.8 3.3-3.4 4.3-4.8 8-5.8 10.5-4.2-3.6-8.9-7-19.4-5.2 3.4.6 9 2.1 13.4 5.8a49 49 0 0 1 16.3 23.7l-4 6.6c-2.5 4.7-3.8 10-4.4 14.3-2-2.7-6.5-5.2-13.1-5.4 0 0 5.1 2.4 9 6.7a39 39 0 0 1 8.4 14.6c1.4 4.5 1 11.4.8 17-.2 5.4-.7 9.7-.7 9.7l5.4.6s.6-4.4.8-10.2 0-12.8-1.6-18.4a30 30 0 0 0-4.2-8.4 95 95 0 0 1 4.3-17.9 49 49 0 0 1 6.3-12.5 30 30 0 0 1 8.4-7.8c-3.7.3-7.3-.2-11.4 5.4-1.2-4.5-10-14.6-9.4-16.2.7-1.9.7-5.8 3.7-10.1a21 21 0 0 1 8.6-7.4c2.3-1 5.3-.4 5.3-.4a8 8 0 0 0-7.8-1.6c-.6-2.8-3.4-6.5-7-8.3a18 18 0 0 0-11.6-2.5M1112.5 575c-2.4-2.8-8.8-4-12.5-1.3 7.4.2 10.9 4.2 12.8 8.4 1.4 3 1.8 7.6 2.3 11.3.5 4.4-.6 7.1-2 11a36 36 0 0 0-1.8 15.5c-3.3-1.3-5.8-1.8-5.8-1.8 9.9 5.2 12.9 10.2 14.5 13.2a19 19 0 0 1 1.5 6q.4 4.2-.1 8.7c-.6 5.8-1.8 11-1.8 11l5.3 1.2s1.3-5.4 2-11.7c.2-3.2-1.2-6.3-1.6-9.5a21 21 0 0 0-10-15.4c-.2-1.5-1.4-9.9 1-16.3 2.5-6.7 6.3-9.1 13-9.1a13 13 0 0 0-10.2-1.6v-1.8a53 53 0 0 0-3.9-13.6c-.7-1.5-.3-5.5 5.7-6.1-4-2-6.4-.5-8.4 1.9m64.6 35.2c2.7 2.1 5 6.2 4 14.4a28 28 0 0 1-9.4 16.3l-4.8.1c-4.4.4-8 2-10.7 3.4.5-4-.2-5.7-2.1-8.6.2 4.7 0 6.4-1.3 9.5l-1.2 2v.1l-.3.2a30 30 0 0 1-13.2 8.3c-6 2.1-11.5 2.9-11.5 2.9l.5 3.3s5.7-.9 12.1-3.1a32 32 0 0 0 14.7-9.3c1.1-.9 6.2-4.2 13.3-5.4a37 37 0 0 1 9.6-.3c4.2.4 4.5 0 8.7 2.4a12 12 0 0 0-9.4-5.2c2.9-3 7.3-8.6 8.3-16.2q.3-2.7 0-5c1.3-1.3 4.2-3.2 8.2-3.7q4.5-.6 7.8 2.7c.1-4.2-5.5-6-8-6-3.8.2-6.8 1.8-8.7 3.3a9 9 0 0 0-6.6-6.1m-163.5 89c-2 2.6-3 6-3.5 9.1l-.2 1.8c-5.4-3.9-7-5-10.4-4.7 3.7 1 7.8 4.6 11 10 1.2 2 2.3 5.6 2.4 8.8q0 3.5-.3 4.6-2.5 1.5-4.6 4a32 32 0 0 0-5.7 10.5l-1.3 4.5c-.8-1.2-3.6-2.7-6.6-2 3.1 1 4 1.8 6.3 5.2q4 5.6 5.5 11c1 3.3 0 7.5-1.3 10.8a34 34 0 0 1-2.8 5.7l2.7 1.8s1.8-2.6 3.2-6.3 2.7-8.4 1.3-13c-1-3.6-3.4-7.2-5.7-10.2h.2s.5-3 1.6-6.4a42 42 0 0 1 4.6-9.7c3.5-4.6 8.8-7.3 14.3-6.6-2-2.3-5.4-2.6-8.2-1.3v-2.6c0-3.5-.5-7.8-3-10.8l.3-4.7a19 19 0 0 1 2.3-7.6c2.4-3.2 5.7-3.3 8.8-3-4.2-4.1-9.6-.6-11 1.2zm64.8 36.6s3.3 7 .9 14.6c-2.3 7.3-9.5 11-11.2 11.6-1 .3-4.5 0-6 .2-4 .5-7.2 2.6-9.6 4.4l-1.3 1c.1-1.7-1.4-5-3.4-5.1 1 .7 2 2.7 1.4 5.3-.7 3-3.3 7.3-6.2 8.2a84 84 0 0 1-14.7 1c-7.5-.1-14.7-.9-14.7-.9l-.3 3.6s7.2.8 15 1q6 .1 11.3-.4 2.6-.4 4.5-1.6c3.7-2.3 4.2-4.5 6.5-7.5 1.1-1.4 1.6-1.6 4-3.2s6.2-3.2 8.9-3.4c4-.3 11.8.2 19.1 6.7-2-5.8-7.4-7.8-10.7-8.6 5.8-3.3 8.9-8.9 10.8-11.6 1.8-2.6 6-6.4 11.8-6.8 6.2-.4 14.5 3.8 14.5 3.8a19 19 0 0 0-14.8-6.5 17 17 0 0 0-11.3 5 13 13 0 0 0-4.5-10.8" fill="#fca900" id="path14"/><g stroke="#fca900" stroke-width="9.6" fill="none" id="g16"><path d="M538 691.6s.7-11-11-20c-11.5-8.9-15.8 1.4-26.5-11.2S483 629.2 475 624.6c-8-4.7-11.6-27-9.6-42.8 2-16-3-94.2-3-94.2" id="path15"/><path d="M696.5 785s-45 1-64.7-12.1-32.9-38.5-45-48.8c-12.2-10.4-50.7-34.8-50.7-34.8" id="path16"/></g><g stroke="#fca900" fill="#ffc816" id="g20"><path d="M621.5 766.8s-15.7 4.6-28.2 7c-17.6 19.3-33.9 7-33.7-5.3.2-12.9 17.8-25.5 34.2.8l26.1-6" stroke-width="3.3" id="path17"/><path d="M608.7 751.6c-26.6-26.4-39.8-62-42.7-104.6 53.7 47.8 47.8 78.1 48.4 110.3zm-61.4-55.5c-44.2-.2-87.2-17.8-113-54C459.6 632 514 679.2 544 691z" stroke-width="5.5" id="path18"/><path d="M491.2 658c12.8-30.3 17.8-67 9.3-114.9-34.2 44.3-21.3 81.3-8 118.3M464 580.5c-37.3-37.2-60.3-75.3-34.3-116.3 26 61.7 32.4 89.8 37.6 115.9m-5.7-80.8c-15.3-38.1-40-75.4 4.7-118.3a218 218 0 0 1-2.3 120.6" stroke-width="5.5" id="path19"/><path d="M466.6 611.2s-14.4-7.6-25-14.8c-26.1 1.4-29-18.8-20.3-27.4 9.2-9 30.6-5.7 23.8 24.5l22.7 14.2m-1.9-78.2s11.2-12 18.8-22c25.2-7.2 21.4-27.3 10.4-32.5-11.6-5.6-30.8 4.4-14.6 30.8l-17 20.8m77.7 165s-1.5-16.4-4-28.8c11.3-23.6-6.3-34-17.5-29.3-11.9 5-17 26 13.5 31.4l4.3 26.4" stroke-width="3.3" id="path20"/></g><path d="m582 681 15.2 37.8 10.5 26.3 3.5 8.8 1 2.6.1.7.1.1v-.3h3.3l-.1-.5-.1-.3q0-.4-.3-.8l-1-2.7-3.4-8.8-10.5-26.3c-3.4-8.3-10.3-25.8-18.4-36.6zm-125.7-28.3c8 8.7 20.5 17.4 30.4 22.3 18.5 9.2 42 18 61 20l.4-3.3a186 186 0 0 1-59.9-19.6c-11.5-6-22.3-12.8-32-19.4zm35 2.8 3.2-.1c-.7-28-4.7-57 1.6-81.2-11 13.5-5.3 69-4.9 81.3zM432 493.2c-6.5 27 24 72.6 31 86.1l3-1.5c-13.6-26.7-29.3-48.4-34-84.6m29 3.3h3.2c-.4-30.5-10.2-69.1-.5-90.1-14.4 11.6-3.1 75.4-2.8 90z" fill="#fca900" id="path21"/><g transform="translate(86.5 6.6)scale(.89391)" id="g68"><path d="m949 275.2 137 137v269.9L949 819H679L542 682V412.2l137-137z" fill="#055e0a" style="fill:#008a40;fill-opacity:1" id="path22"/><path d="m697.5 319.7-111 111v232.9l111 111h233l111-111v-233l-111-111Z" fill="#fff" id="path23"/><path d="m713 357-89.4 89v202l89.2 89.3h202l89.3-89.2v-202L915 356.8z" fill="#e70000" id="path24"/><path d="M814 410v274.2l137-137z" fill="#0075d0" id="path25"/><path d="M814 410v274.2l-137-137zm0 274.2-135 135L542 682l135-135Zm52 52.1 137.1-137-52-52.1-137.1 137Z" fill="#e70000" id="path26"/><path d="m882.3 616 52 52m-94.5 42 137-137" stroke="#fff" stroke-width="23.8" fill="none" id="path27"/><path d="m677 547.2-135-135 137-137L814 410Zm326.1 52 82.9 82.9-137 137-83-82.8Z" fill="#0075d0" id="path28"/><path d="M921.4 517.5 814 410.1l107.4-107.4Z" fill="#273792" id="path29"/><path d="m921.4 517.5 29.7 29.7 37-37v-196l-39.2-39.1-27.5 27.5z" stroke="#000" stroke-width="2.7" fill="#8a8e01" style="fill:#008a40;fill-opacity:1" id="path30"/><path d="m1086 412.2-98 98v-196z" stroke="#000" stroke-width="2.7" fill="#0075d0" id="path31"/><path fill="#fff" d="M818 494.5a15 15 0 0 0-6.3 1.6c-1.7.7-4.2 5-6.2 6.2-6.3 1.2-6.5 2.2-10.2 4 3.4.5 5 1 7.5 3.3-1.6 1.2-3 2.5-5.7 3.7 1.5.3 2 .1 4.3 0 1.9.3 4.4 0 4.8 2.7q1.2 2.1.3 5.1v.2q-1.7.8-3 2.5-1.9 2.3-3.6 5a64 64 0 0 1-5.1 6.3q-.7.5-1.1.5-1.1 0-1.8-.7a5 5 0 0 1-1.5-2 25 25 0 0 1-1.4-7.3l-.2-6.7c0-2.7-.2-5.4-.6-6.5q-.7-1.7-2.6-3.6a32 32 0 0 0-3.9-3.3c-2.5-1.8-5.6-3-9-2.5-3.7.4-6.8 3-10 6.8-3 3.7-6 8.5-9.4 13.3-6.7 9.7-14.5 19.5-25.3 21.6l-2 .4 1.8 1a22 22 0 0 0 12.3 2.3h.5c3.7-.3 11-1 14.6-1h.2v.2h-.1l-1.1 1.7-1.6 2.7q-1.6 3.2-3.7 6.5c-3.7 5.7-6.7 9-8.5 14.9l-.4 1.8.1.2.1-.1q.4-.1.8-.5l.7-.7c2-2 2.6-2.8 4.7-5.1 3.9-4.1 6.8-7.4 10.3-10h.2v.3l-3.5 8c-1.5 3.8-2.9 6.5-3.2 8.5v.8l.1.2.5-.1 1-.8c2.4-2.1 5-5 7.4-7.7l6.7-7.2h.2v.1c-.5 2.6-1.4 6.4-2.8 9.8l-1 2.6 2.2-1.7c4.5-2.8 8-8.5 11.5-11.7l6.7-5.9c3.2-2.5 5.5-4.8 8.4-7.5l.8-1 .3-.4q.2-.2.5-.1.4.2.5.9l-.1.9-1.2 4.3-2 6.1-.5 3v1.7h-.1v.1h-.1c-3.3 0-6.5 2-7.6 3.2-1.6 1.7-1.7 3.8-1.2 5.9 1.2 4.8 4 8.6 6.5 11.7q1.9 2.3 2.9 3.9l.5 1.2-.1 1-.2.3-.2.2h-.7q-1-.5-2.7-1.7c-2.3-1.5-5.5-3.7-9.4-3.5a12 12 0 0 0-7.8 2.6c-1.6 1.4-2.2 3.2-3 4.6l-.7 1.6 1.7-.6c1-.3 3.5-1 6-1.2l3.1.1q1.3.4 1.6 1 .3.8-.2 2.1-.4 1.5-1.5 3.2c-1.2 2.3-2.8 4.6-2.8 6.8l.1 1.1 1-.4c2.3-1 3.9-2.5 5.2-3.5l1.8-1a2 2 0 0 1 1.9.2l.3.3.2 1.2q0 1.5-.4 3.6l-.6 4q-.2 2.2.8 3.4l.2.2h.4q.8 0 1.3-.5l.8-1.3 1.3-3.2q.6-1.8 1.4-3.3.8-1.6 1.8-2.3.7-.4 1.7-.1t2 1.1l2 1.6q1.1.8 2.4.8h.7v-.7c0-2.1-1.5-4.2-2.4-6.5q-.9-1.7-1-3.3-.2-1.5.7-3a4 4 0 0 1 2.3-1.9q1.3-.2 2.7.3c1.7.9 3.2 3 3.2 6.1q0 2.4-1.7 6-1.6 3.7-3.6 7.5-2.1 3.8-3.3 7.3c-.8 2.2-1.2 4-.4 5.6q.4.8 1.3 1 .8 0 1.5-.4a14 14 0 0 0 3.2-2l1.3-1.3v-.1h.3v.2l-.9 3.5a41 41 0 0 0-.8 7.2q-.1 1 .5 1.6 1.4 1 2.6.3 1.3-.4 2.2-1.5c.4-.4.3-.5.6-.9h.4v.1c.1 1.6.2 3.4.7 6.8a35 35 0 0 0 1.7 6.4 8 8 0 0 0 1.2 2.3q.8 1 2 1c1.2 0 1.5-.4 2-1a8 8 0 0 0 1.2-2.3q1-2.7 1.7-6.4c.6-3.4.6-5.2.7-6.8h.1v-.2h.2v.1h.1l.6 1q1 .9 2.2 1.4 1.4.7 2.6-.3.6-.6.6-1.6v-2q-.2-2.4-1-5.2c-.3-1.8-.5-2.2-.8-3.4v-.3h.2l1.5 1.5a14 14 0 0 0 3.2 2q.8.3 1.5.2a2 2 0 0 0 1.3-.9q.9-2.3-.4-5.6-1.3-3.5-3.3-7.3l-3.7-7.5q-1.6-3.6-1.7-6c0-3 1.5-5.2 3.3-6q1.3-.7 2.7-.4a4 4 0 0 1 2.3 1.8q.9 1.5.7 3.1t-1 3.3l-2.3 6.5-.1.6v.2h.2l.8-.3 1.7-1 2.3-1.3 2-1q1-.3 1.8.1 1 .7 1.7 2.3.9 1.5 1.4 3.3l1.3 3.2.8 1.3q.6.5 1.3.5h.4l.2-.2q1.2-1.3.8-3.3 0-2-.6-4.1-.4-2.1-.4-3.6 0-.8.2-1.2.5-.6 1.1-.6l1.1.1 1.8 1q2 1.1 5 3.1l.8.6.4.3h.1l-.1-.5-.2-1.1q-.7-3-2.5-6.4-1-1.7-1.5-3.2-.5-1.4-.2-2 .3-.8 1.6-1 1.4-.4 3.2-.2c2.4.2 5 .9 6 1.2l1.7.6-.8-1.6c-.7-1.4-1.4-3.2-3-4.6a12 12 0 0 0-7.8-2.6c-3.9-.2-7 2-9.4 3.5q-1.7 1.2-2.7 1.6l-.4.1h-.3l-.2-.2-.2-.3v-1q0-.5.4-1.2 1-1.6 3-4c2.3-3 5.3-6.8 6.4-11.6 1-2.7-2.6-8-3.2-9.3.3 0-6.6-2.3-6-2.2.4 0-.2-1.7.3-3.8.3-1.4-1.6-6.9-.2-5.7 2.3 1.9 6.6 10 6.7 10s2.3 2.4 2.6 2.4q.6 0 1-.4l.3-.8q.2-.7.1-1.8-.1-2-.5-4.8l-.5-4.7v-1.4q0-.4.3-.4h.5l.5.6.8 1.2c.9 1.5 1.8 4 3 6.5 2.3 5.1 5.3 11 10 14.7l.2.3 2.3 1.8-1-2.6a54 54 0 0 1-3-10v-.2h.4c3.5 3.2 9.2 11 13.5 15.2l2.5 2-.4-2.1c-1.3-6-4.5-11.5-7.2-17.4v-.2h.2c3.1 2.7 7.1 6.5 10.8 10.8l6.3 7.3 2 1.9-.7-2.6-.2-.4c-2-7-5.1-13.3-8-18-2.8-4.8-5.5-8-6.3-9.2v-.2h.1v-.1h.1c3.6 0 8.8.6 12.5.7a30 30 0 0 0 13.9-3.4l-1.2-.2c-10.9-2-18.6-12-25.4-21.7-3.3-4.8-6.3-9.6-9.4-13.3s-6.3-6.4-9.9-6.8q-5.3-.4-9 2.5a24 24 0 0 0-6.2 6.8 32 32 0 0 0-3 6l-1 3.7h-.1v.1h-.2l-.6.4q-3.1-3.7-5.3-7.9c-1.3-2.5-.2-2.8 0-4.6 1 .3 5.7.3 6.9 0-6.3-4-6.6-4.6-7.4-6.4l-.6-3.1c-.8-2-2.8-4.4-6.7-5.5a13 13 0 0 0-4.2-.5" id="path32"/><path d="M799.7 481.8s-8.9-15-9-18.2c4.3-.6 8.6 6.6 8.6 6.6s1.7-7.2 3.5-7.7c1.6.2 4.3 6.9 4.3 6.9s1.4-8.3 6.9-11c5.4 2.7 7 11 7 11s2.6-6.7 4.2-7c1.8.6 3.5 7.8 3.5 7.8s4.2-7.2 8.6-6.6c-.1 3.2-9 18.2-9 18.2s-6.5 2.8-14.3 2.8-14.3-2.8-14.3-2.8z" stroke="#000" stroke-width="1.3" fill="#fff" id="path33"/><path d="M828.3 481.8s-4.7-3.4-14.3-3.4-14.3 3.4-14.3 3.4" stroke="#000" stroke-width="1.3" fill="#fff" id="path34"/><path d="M816.7 503.8a1.8 1.8 0 1 1-3.7 0 1.8 1.8 0 1 1 3.7 0" id="path35"/><path d="M817.4 494.3q-3 .4-5.7 1.6-3.1 1.3-4.9 2.8c-1.4 1-1.9 2.6-2.3 3.5a18 18 0 0 0-9.4 3.2l-2 1.4 2.4.4a16 16 0 0 1 6 2c-.8 1-1.8 1.9-4.7 3l-3 1.1 3.2.7h.5q4.4.7 7.4 0a11 11 0 0 1 1.5 7.2q-1.7.7-3 2.5-2 2.3-3.7 5l-3.5 4.8q-1.8 2-2.5 1.9-1 0-1.7-.6-.8-.6-1.4-2c-.8-1.8-1.2-4.5-1.4-7.2-.2-2.4 0-11-.8-13.3-.7-2.2-4-5.2-6.6-7a13 13 0 0 0-9.2-2.5c-3.6.4-6.8 3.1-10 6.9-3 3.7-6.2 8.5-9.5 13.3-6.8 9.7-14.5 19.5-25.2 21.5l-2.5.5 2.3 1.3a22 22 0 0 0 12.4 2.3h.5c3.7-.3 11-1 14.6-1-1.4 1.2-3.7 6.6-6.5 10.9-3.7 5.6-6.7 8.9-8.5 14.8-1.2 4 1 1.5 1.6 1 2-2 2.6-2.9 4.7-5.2a79 79 0 0 1 10.3-9.9l-3.6 8c-1.5 3.8-2.9 6.5-3.2 8.6-.2 1.2.3 1.8 2 .2 2.4-2.1 4.8-5 7.3-7.7s4.9-5.5 6.6-7.2c-.5 2.6-1.3 6.3-2.8 9.7l-1.4 3.3q1.4-1.2 2.9-2c4.6-3 8-8.7 11.5-11.8l6.7-6c3.2-2.5 5.5-4.7 8.4-7.5.7-.6 1-1.6 1.4-1.5q.6.6.3 1.7c-.2 1.4-.7 2.5-1.3 4.1-1 3.4-3 9.6-2.4 11-3.4-.1-6.5 2-7.7 3.2a6 6 0 0 0-1.3 6 32 32 0 0 0 6.5 11.8q1.9 2.3 2.9 3.8t.4 2.1l-.3.5-.5-.1q-.9-.3-2.7-1.6c-2.3-1.6-5.6-3.8-9.5-3.6a12 12 0 0 0-7.8 2.6c-1.7 1.5-2.4 3.3-3.1 4.7l-1 2.1 2.2-.8c1-.3 3.5-1 5.9-1.2a11 11 0 0 1 3.1.2q1.2.3 1.5.8.2.6-.3 1.9-.5 1.5-1.4 3.2c-1.3 2.3-3 4.6-2.9 7l.1 1.3 1.3-.5c2.3-1 3.9-2.5 5.2-3.5q1-.8 1.8-1 .8-.3 1.5.1.3 0 .4.3l.2 1.1q0 1.5-.4 3.6l-.6 4c0 1.4 0 2.6 1 3.5l.2.2h.4q.8 0 1.4-.6l1-1.2 1.2-3.2c.8-2.3 1.9-4.8 3-5.5q.7-.4 1.6-.1t2 1.1l2 1.6q1.1.8 2.5.8h.8v-.9c0-2.2-1.4-4.4-2.4-6.6-1-2.3-1.4-4.3-.2-6.1q2-2.9 4.7-1.5c1.6.8 3.1 2.9 3.1 5.9q-.1 2.3-1.7 6l-3.6 7.4q-2 3.8-3.4 7.3c-.7 2.2-1.1 4.2-.3 5.9q.5.9 1.4 1t1.7-.4a14 14 0 0 0 3.2-2c.7-.7.7-.9 1.4-1.5l-1 3.6a40 40 0 0 0-.8 7.3q0 .9.6 1.6 1.4 1 2.9.4a7 7 0 0 0 2.2-1.6l.7-.9c0 1.6 0 3.4.6 6.8q.6 3.6 1.7 6.5.6 1.4 1.3 2.2.9 1.1 2.1 1.2 1.5 0 2-1.2c.5-1.2 1-1.3 1.4-2.2q1-2.9 1.7-6.5c.6-3.4.6-5.2.7-6.8l.7.9q1 1 2.2 1.6 1.5.6 2.8-.4.7-.7.6-1.6v-2.2q-.1-2.3-.8-5c-.4-2-.6-2.4-1-3.7l1.5 1.4q1.5 1.4 3.2 2.1.7.4 1.6.4a2 2 0 0 0 1.5-1q1-2.6-.4-6t-3.3-7.2l-3.7-7.5q-1.6-3.6-1.7-6c0-3 1.5-5 3.1-5.8s3.6-.5 4.8 1.5c1.2 1.8.6 3.8-.3 6a33 33 0 0 0-2.4 7.6c.3.4 2.1-.7 3-1.2l2.3-1.3 2.1-1q.9-.3 1.4 0c1.3.8 2.3 3.3 3.1 5.6q.6 1.8 1.4 3.2l.8 1.2q.6.6 1.5.6h.3l.4-.2q1.1-1.4.8-3.4-.1-2-.6-4.1-.4-2.2-.3-3.6l.1-1.1c.4-.7 1.5-.6 2-.4l1.7 1q2 1 5 3c.4.3 1.3 1.1 1.5 1 .2 0 0-1.2-.2-1.8q-.7-3-2.5-6.5-1-1.7-1.5-3.2-.4-1.4-.2-1.9t1.4-.8 3.2-.2c2.4.2 5 .9 6 1.2l2 .8-.9-2q-.9-2.4-3.1-4.8a12 12 0 0 0-7.9-2.6c-4-.2-7.1 2-9.4 3.6q-1.9 1.2-2.8 1.5l-.5.2-.2-.5q-.5-.5.3-2 1-1.6 3-4c2.3-3 5.3-6.8 6.5-11.7 1-4-.4-7-2-8.7a8 8 0 0 0-3.2-2.7 9 9 0 0 0-4.1-.8c1-2.5.5-5 .2-7.5q2 4.6 5.7 8.7 1.4 2 3.4 2.6.7 0 1-.5l.4-.9q.2-.7.1-1.8-.1-2-.5-4.7l-.4-4.9c0-.5-.4-1.3.1-1.5s1 1 1.5 1.7l3 6.5a38 38 0 0 0 10.1 14.8l.3.4 2.8 2-1.3-3.2a53 53 0 0 1-3-10c3.6 3.2 9.3 11 13.6 15.2l3 2.4-.6-2.6c-1.3-6-4.4-11.7-7.2-17.5 3 2.7 7 6.5 10.7 10.8l6.3 7.3 2.5 2.3-.9-3.2-.2-.4c-4-14.2-12.7-25-14.2-27.2 3.5 0 8.7.7 12.4.7a29 29 0 0 0 14.5-3.8l-1.8-.2c-10.7-1.9-18.4-11.9-25.1-21.6-3.4-4.8-6.5-9.6-9.6-13.3s-6.4-6.5-10-7-6.6.8-9.2 2.6a24 24 0 0 0-6.2 6.8c-2.7 4.4-3.7 8.6-4 9.8l-5.3-7.8-.1-3.3c2 .8 3.7.7 6 0l3.2-.8-3.2-1q-2.9-.7-4.3-2.5a17 17 0 0 1-3-5q0-.5-.3-1.1c-.8-2.2-2.7-4.5-6.7-5.6l-2.9-.5zm.5 2q1.7 0 3.9.4c3.5.7 4.6 2.7 5.5 4.3l2.8 5.7 1.7 1.7 2.5 1.5c-1 0-1.8-.1-3.2-.6l-2.7-1 .6 5.9c0 1.4 1.7 3 2.7 4.3 1.9 2.5 3.6 5.2 3.6 5.2l1.2 1 .5-1.6s1.6-5.1 4.6-10q2.4-3.7 5.8-6.3a10 10 0 0 1 7.8-2c2.8.3 5.7 2.6 8.7 6.1 3 3.6 6 8.4 9.4 13.2 6.2 9 13.7 18 23.8 21.2q-4.4 1.5-9.1 1.3-1.6 0-4.4-2.1c-2.8-2.1-6-4.4-8.5-7a62 62 0 0 1-7.7-10.8c.7 2.8 3.3 7.4 6.8 11.4 2.7 3.2 6 6 8.5 8.1q-2.4-.4-5-.4-1.4-.1-4-2a47 47 0 0 1-14.4-16.9c2.7 8.5 7.8 13 13.5 18.7q-2.4-.2-5.3-1c-8-2.3-14-13.8-16-17.5A33 33 0 0 0 860 542a57 57 0 0 1-17.8-12 45 45 0 0 0 30.4 17.7c.5.9 8.5 11 13 23.5a92 92 0 0 0-19-17.8c2.8 6.6 6.4 13.6 8.4 19.6-3.7-5-9.3-11-13.7-15l-2-2.5.4 3.2a56 56 0 0 0 2.3 9.2c-3-3.3-5.4-7.7-7.2-11.7a67 67 0 0 0-3.4-6.7c-.8-1.5-2-2.6-3.1-2.3-1.6.3-1.4 1.7-1.4 3l.5 5 .1 4.7v1h-.1c-6.2-6.3-9.6-14.6-14.4-22q2.4 4.7 4.4 9.5c.2 3.8 1.1 8-.3 10.8l-1.4.3q-3.5 1.2-6.7 3.8c-4 3.5-7.1 8.2-8.4 11.7 1.3-1.7 2.8-4.6 5.1-6.7 3.1-3 7-6 10.6-7a9 9 0 0 1 5.6.5 7.6 7.6 0 0 1 4 9.1c-1 4.4-3.6 8-6 11q-2 2.4-3.1 4.3-1.2 2-.4 3.9.4.9 1.3 1.3 1 .2 1.7-.1 1.5-.7 3.3-1.9c2.3-1.5 5-3.3 8.2-3.1 3.5 0 5.4 1 6.7 2q.9 1.1 1.5 2.4l-4-.9a15 15 0 0 0-3.8.3q-1.9.3-2.7 1.9-.6 1.6.1 3.4l1.6 3.3c.8 1.3 1 2.3 1.5 3.5l-2.5-1.6q-1-.8-2.3-1.3a4 4 0 0 0-2.8.2 3 3 0 0 0-1.4 1.2q-.4.9-.4 1.8 0 2 .4 4.1t.6 3.8l-.1 1-.1-.2-1.3-2.9c-.8-2.3-1.7-5.1-3.8-6.5a4 4 0 0 0-3-.4q-1.5.5-2.7 1.4l-1.7 1.2 1.7-4c1-2.3 1.7-5.2.1-7.8-3.4-5.2-2.5-12-2.6-14.2a19 19 0 0 0 0 11.8 6 6 0 0 0-4.6.3c-2.4 1.2-4.2 3.8-4.2 7.5q.1 3 1.9 6.6 1.6 3.7 3.7 7.6 2 3.9 3.2 7 1 3.3.5 4.4l-.8-.1a46 46 0 0 1-6.3-5.4l-1.6 1s1 3.2 1.8 6.7l.8 4.8v1.7l-.1.5q-.2.3-.7.1l-1.6-1.3c-1-1-1.9-2.4-1.9-2.4l-1.6-2.7-.2 3.2s-.2 4.4-1 9q-.6 3.5-1.6 6a5 5 0 0 1-1 1.8q-.4.5-.6.5l-.5-.5q-.6-.6-1-1.8-1-2.5-1.7-6c-.8-4.6-1-9-1-9l-.2-3.2-1.6 2.7s-.8 1.3-1.9 2.4q-.9 1-1.6 1.3-.4.2-.7 0v-2.3q0-2.2.7-4.8l1.9-6.8-1.6-1-3.9 3.7-2.5 1.8-.7.1q-.6-1.2.5-4.3c1.1-3.1 1.9-4.6 3.2-7q2-4 3.6-7.7c1-2.4 2-4.7 2-6.6a8 8 0 0 0-4.3-7.5q-2.2-1-4.4-.3a19 19 0 0 0-.1-11.8c-.1 2.3.7 9-2.7 14.2-1.6 2.6-.9 5.5.1 7.9l1.7 3.9-1.7-1.2a9 9 0 0 0-2.6-1.4 4 4 0 0 0-3 .4c-2.1 1.4-3 4.2-3.9 6.5l-1.2 3q-.3-.2-.3-1 0-1.5.6-3.7.4-2.1.4-4 0-1-.4-1.9a3 3 0 0 0-1.4-1.2 4 4 0 0 0-2.8-.2q-1.3.5-2.3 1.3l-2.5 1.6q.6-1.7 1.6-3.5l1.5-3.3q.8-1.9.2-3.4-.9-1.6-2.8-2a12 12 0 0 0-3.6-.2c-1.7.2-2.8.6-4.1.9q.5-1.3 1.4-2.3 1.8-1.9 6.8-2.1c3.2-.2 6 1.6 8.2 3.1q1.7 1.3 3.2 1.9a2 2 0 0 0 1.7 0q.9-.2 1.3-1.2.9-2-.3-4l-3-4.1c-2.5-3-5.2-6.7-6.3-11q-.6-2.3 1-4.4 1.2-1.2 2.7-2 2.6-1.4 5.6-.5a33 33 0 0 1 16.1 11 26 26 0 0 0-16.5-12.7c-.9-1.9.6-5.6 1.5-8.4 1-3.1 2-6.8 2.1-8s-.4-2.7-1.4-2.9c-1.1-.1-1.6 1.2-2.8 2.3-5.1 4.9-11.8 9.9-15.6 13.6s-7.4 9.2-9.1 10.3c1-3.2 2.5-8 2.8-10.6l.3-3.2q-.9 1.3-2 2.5c-4.3 4-11.4 11.6-15 16.6 2.3-5.5 7-14.6 9.7-21.2a92 92 0 0 0-18.7 17.8c2-4 5.5-8.4 7.6-11.6 3.6-5.3 4.8-9.4 7.3-12.1 4-.2 7.6-2 11.8-4a43 43 0 0 0 16.5-13.5 57 57 0 0 1-17.9 12c4-3.9 7.4-10 8.6-14.8-2 3.7-8 15.2-16.1 17.6q-3 .7-5.3.9c5.7-5.6 10.8-10.2 13.5-18.7-2.8 6-8 12.3-14.4 17a10 10 0 0 1-4 1.9q-2.4 0-5 .4c2.5-2.1 5.9-4.9 8.6-8 3.5-4.1 6-8.7 6.7-11.5a62 62 0 0 1-7.7 10.7c-2.5 2.7-5.6 5-8.4 7.1a10 10 0 0 1-4.5 2.1 21 21 0 0 1-9-1.3c10.1-3.2 17.5-12.2 23.7-21.2 3.4-4.8 6.4-9.6 9.4-13.2q4.5-5.5 8.7-6.2 4.5-.5 8 2c3.5 2.5 3.8 3.2 5.3 5.6s.8 8 1.2 13.5q.3 4.3 1.6 7.7a7 7 0 0 0 1.9 2.8q1.3 1 3 1 2.3-.3 3.9-2.6 1.8-2.1 3.5-4.9 1.8-2.7 3.6-4.9c1.2-1.2 2.3-1.7 3-2.6.7-.6 1-6-1-8.7 1.7-.7 3-1.9 3-1.9-4 1-6.8 1.2-9.5 1 1.5-1 3-2.5 3.6-3.4l.6-.8-.8-.5c-1-.7-3.3-1.3-5.6-2a14 14 0 0 1 6.6-1.9h.4q1.5 0 3.5.9-.2-1.3-2.2-2.2a8 8 0 0 1 2.3-3.2c1.4-1.1 3.7-2 5.3-2.5q2.1-.6 3.9-.7z" id="path36"/><path d="M913 402.8c-4.2-4.2-10.2-4.9-13.6-1.5-2.6 2.6-2.8 6.6-1 10.2l-.1.1v.1c-.6 1-3 4.4-7 8.6-4.3 4.7-10.1 9.5-15.5 10.1a16 16 0 0 1-9-1.2 6 6 0 0 1-3.3-4.5q0-1 .9-2.2l2-2q.9-.1 1.8.5l1.7 1.5.4.4.1-.4s.1 0 0-.2v-.6q.7-2.3-.3-4.1a9 9 0 0 0-3.3-3.2 8 8 0 0 0-4.9-.4q-2.1.4-3.3 1.6-.2.2-.5.1v.1l-.4.6h.6q2.2.4 3.4 1.5v.3c-3.9 2.8-5.6 8-2.6 12.6a11 11 0 0 0 3 2.7 172 172 0 0 1 12.4 7.4l.3-.2h.5v.4l-.3.3a14 14 0 0 1 2 3q1.5 2.2 2.9 4.8t2.6 4.6a11 11 0 0 0 2.7 3.2 9 9 0 0 0 12.4-2.5l.1-.1h.2a6 6 0 0 1 1.6 3.3l.1.6.6-.3v-.1l.2-.5q1.2-1.2 1.6-3.3a8 8 0 0 0-.4-4.9c-.6-1-1.7-2.4-3.2-3.3q-1.8-1-4-.2l-.7-.1h-.2l-.4.2.4.3 1.5 1.8q.6.8.5 1.7v.1l-2 2q-1.2 1-2.2.8-2.7 0-4.5-3.4a16 16 0 0 1-1.2-8.9c.6-5.4 5.4-11.2 10-15.6 4.4-4 8-6.4 8.7-7h.3c3.5 1.6 7.5 1.3 10-1.1q2.4-2.6 2-6.5a13 13 0 0 0-3.6-7.2m-3.4 3.4c2.2 2.2 2.7 5.2 1.2 6.6-1.4 1.5-4.3.8-6.5-1.4s-2.8-5-1.3-6.5c1.4-1.4 4.4-.9 6.6 1.3" fill="#f9a400" id="path37"/><path d="M872.2 438q3.3-.3 7.8-2.4c-1.6 3-2.4 5.2-2.3 7.8" fill="#b07400" id="path38"/><path d="M913.1 402.6c-4.2-4.2-10.4-5-14-1.5-2.5 2.7-2.8 6.8-1 10.5-.6.8-3 4.4-6.9 8.5-4.4 4.7-10.2 9.6-15.4 10.1q-5.6.5-8.8-1.3-3.3-1.7-3.3-4.2 0-.7.9-2a7 7 0 0 1 1.9-2q.8-.2 1.5.4.8.6 1.7 1.6l.7.6c.8-1.9.7-4.5-.1-6a9 9 0 0 0-3.4-3.1 8 8 0 0 0-5-.5c-2.2.4-3.3 1.5-4.7 2.8l1 .2c1.4.4 3.6 1.2 3.4 1.3s-2.2 1.8-3 3.4a10 10 0 0 0 .3 9.6q1 1.3 3.1 2.7t4.8 2.8l4.8 2.4q2.3 1.4 3.2 2.3 1 1 2.3 3.2l2.5 5 2.7 4.6q1.4 2.1 2.7 3.1c3 2 6.6 2 9.4.6 1.6-.8 3.3-3 3.4-3 .3 0 1.1 1.8 1.5 3l.2 1a9 9 0 0 0 2.8-4.5 7 7 0 0 0-.5-5 8 8 0 0 0-3.2-3.4c-2.2-1.2-4-.6-6-.1l.7.6 1.6 1.7q.5.8.3 1.5-.7 1-1.9 2-1.3.8-2 .9-2.5-.2-4.2-3.3a16 16 0 0 1-1.3-8.9c.5-5.2 5.4-11 10-15.4 4.3-4 8-6.5 8.7-7 3.6 1.7 7.7 1.4 10.2-1.1 3.5-3.6 2.7-9.9-1.6-14zm-.8.8c3.9 3.9 4.4 9.4 1.5 12.3-2.2 2.3-6 2.5-9.4.8l-1 .7c-1.4.8-4.5 3-8.4 6.7-4.8 4.4-9.8 10.4-10.4 16.2q-.6 6 1.4 9.5 1.9 3.8 5.2 4.1 1.5-.1 3-1.2 1.5-1.2 2.2-2.5c.5-1 0-1.8-.5-2.6l-.8-1q1.5-.1 2.8.5c1.3.7 2.4 2 2.8 2.8a7 7 0 0 1 .4 4.2 6 6 0 0 1-1.2 2.5 6 6 0 0 0-1.7-3q-.5-.4-.8 0a10 10 0 0 1-4.2 3.6 7 7 0 0 1-2.6.6 9 9 0 0 1-5-1.5q-.9-.7-2.2-2.8l-2.8-4.6-2.6-4.9-.2-.3c0-1.5.4-3.9 1.3-6.1q-1.4 2.6-1.7 5.5l-1.8-2.4h-.1q-1-1.1-2.8-2.2c2-.5 4.2-1.3 5.5-1.9a38 38 0 0 1-6.1 1.5c-.5 0-3.1-1.6-4.8-2.5q-2.6-1.4-4.6-2.7a9 9 0 0 1-3.9-5.4c-.2-1 0-2.7.4-4a9 9 0 0 1 3.7-4.5c.8-.5.4-1.2.1-1.3q-1.4-1.1-3.2-1.5.7-.7 2.3-1.1a6.4 6.4 0 0 1 7 3.2 5 5 0 0 1 .4 2.8l-.9-.8q-1.5-1.2-2.8-.4t-2.2 2.2q-1.2 1.3-1.3 3c0 2 1.7 4 4.1 5.1q3.6 2 9.5 1.4c5.9-.6 11.8-5.6 16.2-10.3 3.6-4 5.9-7.1 6.7-8.4l.8-1.1c-2-3.4-1.8-7.3.5-9.5 3-3 8.4-2.5 12.2 1.3" id="path39"/><path d="M910.9 412.8a5.6 3.7 45 1 1-8-7.9 5.6 3.7 45 1 1 8 8z" stroke="#000" stroke-linecap="square" stroke-width=".7" fill="none" id="path40"/><g id="a"><path d="M591.8 375.7v.2l-.2.6v.2h-.1l-.2-.3-.1-.2h-.1v.1l-.1.6-.2.4v.1h-.1l-.3-.4v-.3h-.2v.1l-.1.4-.3 1v.2h-.1v-.1l-.2-.3v-.2l-.1.1v.3l-.3.8v.2l-.1.1v.1h-.1l-.2-.3v-.2l-.3.8q-.3 1-.5 1.1l-.1.2-.2-.3-.1-.2-.1.3v.6l-.1.2h-.1l-.1-.3-.1-.1v-.1l-.1.2-.2.5-.4 1v.2h-.2l-.1-.3-.1-.2h-.1l-.2.4-.3 1v.2h-.2v.3l.1 1.2.5.6.4.4-1.5 2.6-1.5 2.5.4.3.2.1h.1l.1-.1 2.8-4.5.1-.3h.2q.4.4 1 .4l.8-.2.8-.3.4-.2.1-.1v-.2h.2l.7-.6.1-.1v-.1q0-.3-.3-.5h-.1v-.1h.2q.8 0 1.2-.7l.3-.4v-.3h-.7v-.2l.3-.2q.4-.1 1-1l.5-.3v-.1h-.4l-.1-.2.2-.1.2-.2 1-.7.2-.1h-.1l-.2-.2.2-.3.4-.4.1-.3-.2-.1h-.2l-.3-.2v-.5l.1-1v-.2h-.2v.2h-.1v-.1l-.1-.3-.1-.3v-.1h-.1l-.3.2-.3.2h-.1l-.1-.3v-.3h-.4l-.1.2h-.1v.1h-.1l-.6-1.1v-.2zm-2.4 2.1" fill="#b07400" transform="translate(-1329.5 -1123)scale(3.87528)" id="path41"/><path d="M592.3 374.1v.1l-.2.7-.1.3-.2-.3-.2-.4v-1.8c-.2.4-.2 1.5-.2 1.9v.1q0 .8-.2 1.2l-.2.1-.2-.5-.1-.2c-.1-.6.1-1.5.1-1.7l-.4 1.8-.5 1.5v.3l-.2-.4v-2l-.3 2-.3 1.1-.1.4-.1.1-.2-.3-.1-.3q-.3-.6-.2-1.4v1.6l-.2.8-.5 1.3-.2.3-.2-.4c-.2-.7-.1-1.6-.1-1.8l-.2 1.8v.1l-.2 1-.1-.3-.1-.1v-2c0 .4 0 1.5-.2 2l-.7 1.8q0 .6-.4 0l-.3-1.8v1.6l-.1.4-.5 1.3v.2l-.6-1.6q0 .9.4 1.6v.3q0 .9.2 1.5 0 .3.6.7l.4.5-1.8 3-1.8 3.1.5.4.4.2.2-.2 3.3-5.5.2-.3h.1c.2.2 1 .5 1.3.5l1-.2 1.5-.7q.7-.3 1.4-.2-.7-.4-1.4 0l.2-.2 1-.7.1-.1q1.6-.1 1.9-1a3 3 0 0 1-2 .8l-.3-.5q-.3-.2 0-.2 1 0 1.6-.7l.4-.8q1-.6 1.4-1.3-.8.9-1.4 1h-.3l-.3.1h-.3s.1-.2.4-.3l1.6-1.6q1.2-.2 2-.6l-1.8.4h-.2q-.6-.1-.4-.2l.4-.3 1.3-1q1.3-.1 1.9-.6-1.2.4-1.8.4h-.1l-.2-.1.3-.3.5-.6.1-.2v-.1l1.6-1.1-1.7 1-.5-.2-.3-.1v-.6l.2-1.3a2 2 0 0 1 .8-1.5q-.9.5-1 1.3l-.1.1-.2.2s0-.7-.2-1l.9-1.4q-.6.6-1 1.3l-.4.3-.4.3-.1-.4-.1-.4.4-2c-.2.5-.4 1.5-.7 2l-.4.4q-.1-.6-.7-1.4l.3-1.8c-.3.5-.5 1.4-.4 1.8m.1.5.1.1.3.9v.2l-.2.2-.2.2v-.1l-.1-.4q-.3-.3-.1-.4l.1-.4zm-.7.5.1.3.4 1-.1.2-.2.4-.1.2v-.3l-.2-.3-.2.1-.1.1s0-.5.2-.9zm1.9.4v.2l.1 1.1-.2.2-1 .9-.2.3-.3.1v-.9c.1-.5.2-.6 1-1.3zm-3 .2v.1l.4 1-.1.8-.3.5-.1.2v-.2l-.1-.1-.2.3-.2.4v-.5q0-.6.2-1.1l.2-1zm4.1 0 .2.7v.2l-.5.1-.4.1v-.7l.4-.3zm-3.5.5q0 .3 0 0m4.1.5s-.1 1-.3 1.3q0 .2-.2.2-.5 0-1.1.3l-.4.2v-1.1l-.2.1-.2.1h.1q.2-.4.7-.6l.7-.2.7-.3zm-3.8.4.3 1.3-.2.3-.6.8-.1.2-.2-.7.3-1.2zm-2 .2.3 1v1.1l-.6 1.3-.1-.2-.1-.2v-.4c0-.6.5-2.7.6-2.6zm3.6.8s0 .6-.2 1l-.1.5-.8.8-.7.2h-.5v-.1l.9-1.6zm1.8.3q.9 0 1 .2v.3l-.5.5-.3.3-.3-.1q-1-.3-1.5 0h-.3v-.2l.2-.3q.1-.2.9-.5zm-6.3 0 .1.3.1.3v1.2l-.3.6-.4.7-.2.2v-.6l.1-1 .3-1zm1.7.3a4 4 0 0 1 .3 1.9l-.1.2q-.3 0-.4.4l-.3.4v.3l-.2-.3q-.3-.7.2-1.7zm3.5 1h.3l1.2.4-.8.6-1 .5-.8.2h-.4l.4-.9h-.3l.3-.3.9-.5zm-6.5.7.1.2q.3.2.2.7v.6l.1.2-.2.1-.3.5zm1.6.1.1.1.5 1v1l-.2.4-.3.5-.2.3q0 .2-.3-.3l-.4-.8-.1-.5.7-1.3zm3.2.1h.2l-.1.5-.2.3-.3.2-.6.4q-.4.3-.8.3l-.4.1.4-1.2.2-.3zm-5.6.4.2.3.1.8.1.6v.8l-.2-.4-.1-.4-.1.1-.2.3-.3.5q-.3.5-.2 0c.1-.5 0-.6.2-1.1 0-.4.5-1.5.5-1.5m6 .5h.3l1.2.2-1 1-1 .6h-1v-.2l.5-.8h-.3l.3-.3.6-.3zm-4.8 1 .5.8q.3.6.2 1l-.1.2h-.2v-.3q-.2-.7-.3-.5l-.7.4q-.3.1-.1-.2zm3.2 0q.3-.1 0 .4l-.3.3h-.8l-.4.2-.1.1v-.2l.7-.6zm-5.6 0 .1.3q.2.2.1.6v.5l.2.3-.1.3-.1.3-.4-.3-.4-.3v-.3l.4-1.2zm1.1.8.3 1v.3q-.4.4-.5 1t-.2.2l-.2-.4v-.6a3 3 0 0 1 .6-1.5m4 .1 1 .2 1.6.2-.5.7q-.4.5-1 .5h-1.4l-.2-.1.4-1h-.2l-1.4.3 1-.7zm-2.7.6.1.5.1 1q.1 1-.4 1.2l-.5.3-.4.2-.2.1-1.9 3.1-1.8 3-.5-.3 1.7-3 1.8-2.9v.1l.2.1s0-.2-.2-.3l-.8-.9-.4-.7v-1.1l.8.6q.3.3.6 1.3l.2.5-.2.5q.3-.3.4-.7c0-.3.2-1.3.4-1.7zm2.1.2h.2l-.5 1h-.4l-.5.2h-.3l-.1-.2q-.1-.5.4-.6zm.5 1.2q.6 0 1 .4.2.3 0 .4l-1.3.7h-.3l-1.4-.3h-.3l.2-.6v-.2l.2-.1zm-1.9 1.5h.7l.9.3-1.6.8h-.5q-.5 0-1-.4-.4-.1-.2-.2h.4q.3-.4.7-.5z" transform="translate(-931.4 -863.6)scale(3.1995)" id="path42"/></g><path fill="#fff" d="m1025.1 380.8-4.5 5v.2l1.7 1.8v.2l-26.4 17.2-.2.2v.2l7.6 8.3 7.5 8.3.1.1.2-.1 19.8-24.5h.2l1.7 1.8.1.2v-.1l5.5-4h.1v-.2l-2-2v-.2h-.2l-1.2 1h-.1l-1.6-1.8v-.2l1.1-.9h.2v-.1l-1.9-2h-.2l-1 1h-.2l-.7-1-.8-.8v-.1l1-1h.1v-.2l-1.8-1.9v-.2l-.2.2-1 1h-.1l-1.6-1.8v-.1l1-1v-.1l-.1-.2-1.9-2.1v-.1z" id="path43"/><path d="M987.6 397.5c8.4 8.6 16.8 14.7 25.2 28 0 0 8.4-4.4 11.6-2 10.6 7.5-3.5 21.9 6.1 38.8L987 512z" stroke="#000" stroke-width="1.4" fill="#fff" id="path44"/><path d="M1010.7 440.6q-1.3.6-2.6 1.6s1.8-1 3.2-1.3c.9-.2 2.1-.5 2.6 0s0 2.1-.1 3q-.6 2.1-.7 3.6c0 .4.8.5 1.1.4.9-.3 1.7-1.2 2.5-1 .2.1.3.9.4 1.2v6.7h.9v-4l-.2-3.1q0-1.3-.8-1.5c-.8-.3-1.5.2-2.2.6q-.6.4-1 .3l.7-3c.4-1.7.8-3.6-.1-4-1.2-.5-2.6 0-3.7.5m14.4-60-.2.2-4.4 5-.2.1.2.2 1.6 1.9-26.4 17.2-.3.2.2.2 7.5 8.4 7.5 8.3.2.2.2-.3 20-24.4 1.6 1.8.2.2.2-.1 5.4-4 .2-.1-.2-.2-1.8-2.1-.3-.3-.1.2-1.2.8-1.6-1.7 1-.9.4-.1-.2-.3-1.8-1.9-.2-.2-.2.2-1 1-.8-.9-.7-.8 1-1 .2-.2-.2-.2-1.7-1.9-.2-.2-.2.2-1 1-1.5-1.7 1-1.1.1-.2-.2-.2-1.8-2.1zm0 .9 1.5 1.6-1 1-.1.3.1.2 2 2.1.2.3.2-.2 1-1 1.3 1.4-1 1-.3.2.2.2 1 1 1 1v.3l.3-.2 1-1 1.4 1.5-1.1.9-.3.2.3.2 2 2.2v.2l.3-.2 1.2-.8 1.4 1.6-4.8 3.5-1.7-1.9-8.1-9-.3-.3-1.7-2zm-2.3 6.7 8 8.9-20 24.5-5.3-6q.5-.3 2.1-2.5c1.2-1.6 2.4-3.6 2.5-5.4a11 11 0 0 0-5.7 1.8l-2.8 1.8-5.3-5.8 26.4-17.2zm-13 19.7c0 1.6-1.2 3.5-2.3 5l-2.1 2.6-1.8-2-2-2 2.8-1.8c1.7-1 3.8-1.9 5.5-1.8z" id="path45"/><path d="M1012.5 425c-3 1.3-5.2 5-6.6 9.7a75 75 0 0 0-2.5 16.2c-.6 11-.2 17.6 0 21.3.2-13-.1-25.3 3.4-37.3q2.2-6.9 6.5-9l-.8-1zm-15.3.2q.5.5 1.2.2l1.4-.3q1-.4 1.7-.4c.4.2.4 1 .4 1.6 0 .9-.3 2-.3 2q1-2 .8-3.1.1-.7-.4-1-.6-.5-1.2-.2-.6.1-1.3.5-1 .4-1.8.3-.4-.3 0-1.1l.2-.8q-1 1.5-.7 2.3m-5.2 46.1 3.4-.2c1.5 0 3 0 3.8.8q.6.6.5 1.3 0 1.1-.4 2.6-.4 1.8-.4 3.5 0 .5.2.9.9.9 2 1.5 1.4.6 1.6.5c-1.5-1-2.9-1.8-3-3l.4-3.3.2-2.6q.1-1.2-.6-2-.8-.6-2-.6a16 16 0 0 0-5.7.6m24.3-35.2c1.7-.3 4-.7 5-.1.6.3.7 1.8.6 3 0 1.7-.3 2.4-.7 4.1a10 10 0 0 0 1.2-3.4c.2-1.7.2-3.7-.5-4.3q-.7-.5-1.4-.4c-1.9.3-3.7.8-4.2 1zm-8.1 24.7q-.1 1.4.2 1.8.6.3 1.4-.1l1-.7q.6-.6 1-.5c.3.1.2 1 .2 1.3l-.3 2.8-.7 4.3h.8l.6-4.2.3-3q0-1.3-.3-2-.6-.2-1.2 0l-1 .6c-.4.4-.9 1-1.2.7-.1 0-.2-1-.1-1.4q0-1 .4-2.6c.4-2.2.7-2.7 1.2-4.3a16 16 0 0 0-1.7 4.3zm-13.7-20.1a28 28 0 0 0-5 .7l.2.8 2.8-.5 2-.3 1 .1.5 1.1.2 2.5c0 1.8-.2 3.5-.2 3.5.6-1.7.6-2.3.7-3.5l-.1-2.7-.2-.9q0-.4-.4-.7l-.7-.1z" id="path46"/><path d="m1010.5 401.3.7.8.8 1s2-2.8 2-3.4c-.7-.2-3.5 1.6-3.5 1.6zm10.7-2 .8.9.8.8s2-2.7 1.9-3.3c-.6-.2-3.5 1.6-3.5 1.6z" stroke="#000" stroke-width=".2" fill="none" id="path47"/><path d="M935.2 798.3c1.2-.3 5.1-2.2 5.4-3.6a5 5 0 0 0 4.2-3.2s2 0 3.5-3.9c0 0 3.2-2 3.3-3.2 1.3.2 2.5-2 2.3-3.6 1-.2 3.8-2 3.6-3.6 1.2-.1 3.5-2.2 3.5-2.2 2.6 0 4.2-2.8 4.6-4.2.6-.2.7-2.6 2.3-2-1.4-2.5 1.8-2.5 1.9-2.6.6-2 4.7-1.5 4.3-4.6 1.9 0 3.7-3.5 3.4-5.1 1.5-.3 3.1-3.2 4.6-3-.8-2 1.1-2 .3-2.9 0 0 5-2 4.2-3.3 1.7 0 3-3.5 2.6-5 1 .6 4-2.6 5.3-2.8-.5-1.2 3.4-3.1 2.5-4.5 3.2.3 6.3-7.3 6.3-7.3.9.1 6.7-2.5 6.7-4.3.9-.2 2.3-2.8 3.6-2.6-.5-1.2 3-3.2 3-3.2 3.3.7 3-1.8 3.8-3q3 .2 2.4-3.7c1.7.5 2.7-2.5 4.5-2.2-.3-1.4 1.3-3.7.9-4.8 1.3.1 3.5-2 5.3-1.7-.2-1.7 3.4-2.6 2.9-3.6 1.7 0 7.7-3.1 6-5.5 2.2.1 4.4-4 4.7-5.5 1.7-.1 4.8-2.5 5-3.9 1.3.2 5-2.9 5.2-4.1 1.3-.3 4.3-3.8 3.6-4.6 0 0 2-1.7 1.6-3 1.4-.4 3.4-4 6-3.4.6-1.7 4.2 2.8 6 3.7 5.3 4.1 6.2 5.6 11.5 9.8L949 819c-5.8-7.9-8.1-12.9-13.8-20.8z" stroke="#000" stroke-width="1.6" fill="#8a8e01" style="fill:#008a40;fill-opacity:1" id="path48"/><path fill="#f9a400" d="M998.7 636.8a9 9 0 0 0-3.2 1 27 27 0 0 0-8 7.4 15 15 0 0 0-2.6 12.2 12 12 0 0 0 2.2 4.8q1.5 2 3.5 2.4c2.7.4 5.1-.5 7.4-1q1.6-.4 3.1-.4 1.6.1 2.8 1.2c1.8 1.6 1.9 4 1.5 6q-.8 3-1.1 3.4l-.1.1h-.1v.2h-.3c-1-.3-11.2-3.4-18.6 2a18 18 0 0 0-6.6 8.8c-1.2 3-2.1 6-4.7 8.7-2.7 2.7-7 5-10.9 7.3l-1.5 1h-.5v-.1l-.2-.1v-.1l-.3-1.7-.7-1.8a2 2 0 0 0-1.4-1 2 2 0 0 0-1.5.4l-1.1 1c-.8.8-1.6 1.7-2.9 1.7q-.8 0-1.5-.5-1-.7-1.3-1.4-.5-.8-1.1-1.3t-1.4-.4q-.7 0-1 .7l-.9 1.4-.7 1.3q-.4.5-1 .6c-1 .2-2-.4-3-.9l-1.4-.7q-.5-.3-1.1-.3-.4 0-.6.2l-.6.7-1.3 2-.3.7v.1l-.2.1v.1h-.5v-.2l-.2-.1v-1.8q0-1.6-.4-3l-.4-.9-.7-.5-.8.3-.6.8-1.3 2.6c-1 2-1.9 4.5-3 5.8a15 15 0 0 1-4 3q-2.2 1.3-3.3 2.9c-.7 1-.5 2.5-.4 3.8l.1 1.8q0 .8-.3 1.4l-.3.3-.3.2-1 .3-3 .4-2.5.3q-.6 0-.8.2h-.2l-.1.2v.9q.1.4.8 1l1 .4 1.7.4.2.1v.1l.1.2v.3l-.1.1h-.3l-.5 1.1q.1 1.5 1.4 2.5.8.7 1.2.8v.1l.1.1v.3q-.3.5-.4 1.5 0 .8.3 1.5.4.8 1.6 1.2 1.9.5 3-.7h.5l.1.1.1.2v.2c-.3.8-.5.9-.7 1.7a8 8 0 0 0-.6 3v1.1l.6 1q1 .4 2.5 0 1.5-.1 3-.8c1.5-.5 2-.8 2.7-1.1h.4l.1.2h.1v.3q-.4 1-.8 3.2-.1 1.5.2 2.7.5 1.3 2.2 1.3 1.7-.1 2.8-1.7 1.2-1.6 2-3.4.9-2.9 1-4v-.1l.1-.1.2-.1h.3l.1.2q.5.7 2.3 2.3c1.8 1.6 4.1 3 6.3 2.4q.9-.2 1.3-.7l.2-.1h.5a30 30 0 0 0 5.8 5q1.3 1 2.2 1c1 0 1.8-.6 2.4-1l.7-.7.3-.1.5-.2v.4l.2-.3h.1l.5.1 1.4.9 3.6 2.3 4.5 3.2v.1l.2.1v.2c-.1.4-.5 2.6-.7 5.4v4.5q.3 2 1.3 2.8t2.4.3q1.5-.5 2.8-1.4l2.3-2.3q.9-1.2 1.2-2.2V757l-.4-.5-1.5-.8-.1-.1s-.1 0 0 0h-.2v-.4l.2-.4.4-.6v-.8q-.3-.5-.7-.5h-1.2l-.1-.1-.1-.1v-.5l.3-.3.5-.7v-.7l-.6-.3-.6.1h-.2s-.1 0 0 0h-.3l-.1-.2-.1-.1v-2.7l.3-2.7.4-.5.6-.3q1-.4 1.4-1.2.2-.7 0-1.8l-.7-2.7-1-3v-.2l.2-.2q.6-.5 1.4-.5 1.3 0 3.2.7a27 27 0 0 1 6.9 4.2l1 1 .2.5v.3q0 1.4-1 2.5-1.1 1.2-2.1 2.8a7 7 0 0 0-.7 3.9q.2.8.6 1.2.5.5 1.4.3 1-.3 2.5-1.6 1.7-1.4 3.6-3.3l3.3-3.3 1-1.3q.6-.5.7-.8l.6-1.2q.2-.7 0-1.6l-.6-.5-.2-.3-.3-.2v-.3l.2-.5.3-.4v-.5l-.5-.2-.5-.3h-.6v-.1l-.1-.1-.1-.2v-.8l.2-.6v-.4q-.7-.9-1.5-1h-1.6q-.8.3-1.6.3-.7.1-1.2-.5t-.5-1.5l.2-2q.3-1 .2-2t-1-1.6-2.3-.6h-.1l-.1-.1-.1-.1v-.6h.2l1.6-.3a10 10 0 0 0 4.3-3c1.5-1.6 3.2-4 6.2-7.8a16 16 0 0 0 3.1-6.1l.1-.2.2-.1h.4v.1l.2.1 2.4 5.1q1 1.4 2.5 2 1.4 1 1.6 2.3.1 1.6-.8 4.3a26 26 0 0 1-2.2 4.7 5 5 0 0 0 0 5.6q.6.7 1.2.6.3 0 .7-.4l1.2-1a45 45 0 0 0 6.8-8.1q.6-1.5.7-3.8v-3.1l-.4-.4-.5-.1h-.5l-.4-.3v-.1l-.2-.3.1-.3v-.5l-.2-.4q-.7-.4-1.2-1.2t-.5-2l.1-.5.5-.4 1.4-.8q1.8-.6 3-2.6a9 9 0 0 0 .6-5.6v-.4h.2l.1-.1c3.4-.6 6.1-1.3 9-1.5q3.3.1 3.8.8l.4.5v.4c-.3.2-2.1 2.3-2.9 4.3a8 8 0 0 0-.5 3.6q0 .8.5 1.2l.6.2.6-.2 2-2a87 87 0 0 0 7.4-9v-.6l-.4-.7-.5-.6-.4-.3v-.6l-.1.1-.2-.3q0-.3-.2-.4 0-.2-.5-.2h-1.4q-.3 0-.4-.2v-.1l-.2-.1-.1-.3-.3-.6-.2-.2-.4-.1h-.1l-.2-.1-.1-.1v-2.8l-.2-1.3-.8-.8q-1-.3-1.7.4l-1.4 1.5-.6.7s0 .2-.2.3l-.2.1h-.5l-.2-.2v-.2q-.2-.1-.3-.4c-1.6-3.9-4.2-5.5-6.5-5.6q-2.7.1-3.7 2.6l-.1.2h-.5l-.1-.1-.1-.1c-.5-2.4-.8-4.7-1.9-6.5q-1-1.5-2.9-2.3a10 10 0 0 0-4.4 0h-.3v-.1l-.1-.1-.1-.1v-.4q.4-.6 1.2-4.4c.5-3 .6-6.5-.7-9.4a5 5 0 0 0-3-3 11 11 0 0 0-4.3-.5c-2.2 0-3.2.4-4 .6h-.3l-.2-.1v-.5l1.5-2.2q.8-1.3 1.2-2.4l.1-1q0-.5-.2-.7-.8-.5-1.9-.1l-1.6.7v.1h-.4l-.1-.1-.1-.1v-.4l1.5-1.8.4-1-.1-.7q-1-1.1-2.3-1h-.2l-.2-.2h-.1l-.1-.2v-.4c.8-.8 1.9-1.7 3.4-3.6q1.6-1.9 2.5-3.6l.5-1.5a1 1 0 0 0-.4-1q-.8-.7-2.3-.6zM961 744.5v.4h.2z" id="path49"/><path d="M998.6 636.4q-1.4.2-3.3 1.1a27 27 0 0 0-8 7.4 16 16 0 0 0-2.8 12.6q.6 3 2.2 5a6 6 0 0 0 3.9 2.5c2.8.4 5.2-.5 7.4-1q1.8-.4 3.1-.3 1.4 0 2.6 1c1.6 1.5 1.6 3.6 1.2 5.6-.3 1.8-1 3-1 3.3-1-.3-11.3-3.4-19 2-4 3-5.5 6-6.7 9.1s-2.1 6-4.7 8.6c-2.5 2.7-6.9 5-10.7 7.3a38 38 0 0 0-5.2 3.4 8 8 0 0 0-3 4 6 6 0 0 0 .2 3.5q.6 1.4 1.4 2l1.6 1.3q.5.5.6 1c0 1.2-.4 1.6-.9 2q-.3.4-.8.6-.4.5-.4 1.2.2 1.5 1.1 2.3l.6.7.2.6q-.2.6-.8.9l-.7.4q-.3.4-.4 1 0 1 .3 1.8l.5.9c0-1.2-.7-1.6-.1-2.8l.2-.2.5-.4c.4-.2 1.3-.5 1.5-1.4q0-.8-.3-1.3l-.6-1q-.9-.8-1-1.5l.2-.4.7-.6c.5-.5 1.2-1.3 1.2-2.7q0-1.2-.9-1.9l-1.6-1.3a4 4 0 0 1-1.1-1.6q-.4-.9 0-2.8.5-1.7 2.6-3.5c2.1-1.8 3-2.2 5-3.3 3.8-2.2 8.1-4.5 10.9-7.4 2.7-2.9 3.7-6 5-9a17 17 0 0 1 6.2-8.5c7.4-5.3 18.6-1.9 18.6-1.9h.5v-.1l.2-.1s.8-1.8 1.3-4c.4-2 .3-4.8-1.7-6.6q-1.5-1.2-3.2-1.3a10 10 0 0 0-3.4.4c-2.3.5-4.7 1.3-7.2 1q-1.7-.4-3-2.1-1.5-1.9-2-4.7c-.7-3.7-.2-8.1 2.5-11.6q4.2-5.4 7.7-7.1a8 8 0 0 1 3-1q1.1-.2 1.8.4.2-.1 0 .4 0 .5-.3 1.3-.8 1.5-2.4 3.5c-2 2.4-4.3 4.6-4.3 4.6v.6l.2.3h1.8q1.2 0 1.7.6v.2l-.3.8q-.5 1-1.5 2l-2.6 2.7-.1.7.1.1.2.1h.5l2.8-2 2.2-1h1.2v.2l-.1.8q-.4 1-1.2 2.3c-1 1.6-2.2 3-2.2 3v.6l.1.2.2.1h.3s2.4-.8 5.2-.8q2-.1 4 .6 1.9.6 2.8 2.5c1.2 2.7 1 6.3.6 9.1-.5 2.9-1.4 5-1.4 5v.6h.2v.1h.4q3.3-.5 5 .1 1.5.6 2.4 2c1.2 2 1.6 4.8 2.2 7.4v.2l.1.1v.1l.3.1h.6v-.3l.1-.1c0-2 1.6-3.2 3.6-3.2s4.4 1.5 6 5.1q.3.7.7 1t1 .2q1-.4 1.4-1.3l1.4-1.4q.6-.6 1-.3.4 0 .4.4l.1 1c0 .9-.3 2 0 3q.1.4.4.6c.4 0 .9-.4 1-.2l.8 1.3q.5.3 1.2.2.8-.2 1.1.2c.4.4.1.6.4 1 .3.6 1.2 1.2 1.4 1.6-.7 1-3 3.7-5 6l-2.7 3-2 2-.3.1h-.1l-.3-.7q0-1.7.5-3.4c.7-1.9 3-4.2 3-4.2v-.9l-.7-.8q-.8-1-4.1-1c-4.6.3-8.3 2-14.9 2a9 9 0 0 1-6-1.7q-.9-.8-1.8-1.3a2 2 0 0 0-2.1 0 2 2 0 0 0-1 1l-.3 1.6v3.9c-.2 3-.7 6.7-3.7 10.3s-4.8 6.2-6.2 7.8-2.3 2.3-4 2.8l-9.4 2.2q-.3.1 0 .2c2.8-.2 4.7-.4 6.8-.4q1.9-.2 3.2.8.6.4.7 1.3l-.1 1.7-.3 2q0 1.3.7 2.1.8.8 1.7.7l1.7-.2q.8-.3 1.3-.2.8-.1 1.3.7c.1.6-.2 1.2 0 1.7.1.6 1.3.3 1.5 1 .2.4-.4.6-.3 1.4.2.6.9.9 1 1.4q.1 1.2-.8 2l-1.7 2a78 78 0 0 1-6.7 6.6q-1.7 1.3-2.3 1.5h-.7l-.4-1q-.2-1.7.6-3.4l2-2.8q1-1.1 1.2-2.9l-.4-1.1-1.1-1.2-3.2-2.3-4-2a9 9 0 0 0-3.3-.8 3 3 0 0 0-2.2.9q-.7.8-1.2 1.7l-.8 1.4q-.3.6-.9.6-.5 0-1-.6-.8-.7-1.5-1.8c-1.1-1.5-2.6-3.3-5-3.4-3.4 0-4.3 2-4 2.4l.4-.7q.6-1 3.5-.6c2 .2 3 1.6 4.1 3l1.6 2a3 3 0 0 0 2 .8q1-.3 1.7-1l1-1.6q.3-.8.9-1.4a2 2 0 0 1 1.4-.6q1.1 0 3 .7a25 25 0 0 1 6.8 4.1l.9 1 .2.5q0 1.1-1 2.3-1 1-2 2.9a7 7 0 0 0-.8 4q0 1 .8 1.6.6.6 1.7.3c1.1-.3 1.6-.8 2.7-1.7l3.6-3.2 3.3-3.4 1.1-1.3.7-1 .6-1.1q.3-1-.1-2l-.6-.7-.3-.3.1-.4.3-.6-.1-.7q-.3-.4-.6-.4l-.6-.3h-.5v-.7l.2-.6-.1-.7q-.7-1.1-1.7-1.2t-1.8 0l-1.5.3q-.5 0-.9-.3-.4-.5-.3-1.3l.1-1.9q.3-1 .2-2.1a3 3 0 0 0-1.1-2q-1.2-.7-2.6-.7l2-.4a9 9 0 0 0 4.2-3l6.2-7.7c3-3.9 3.7-7.9 3.8-11l.1-3.8q0-.8.2-1.2 0-.4.4-.5.7-.3 1.2 0l1.6 1.1c1.3 1 3.3 2.2 6.7 2 6.8 0 10.5-1.7 14.9-2q3 .1 3.5.7l.2.4c-.2.2-2.1 2.2-2.9 4.3a9 9 0 0 0-.5 3.8q0 1 .6 1.6.4.3.9.2t.8-.3q.9-.6 2.1-2l3-3.3c1.9-2.3 3.7-4.6 4.4-5.7q.4-.6.1-1.1-.1-.4-.5-.8l-1-.9v-.6l-.3-.6q-.3-.3-.8-.3h-1.1l-.5-.1-.2-.4-.3-.6q-.1-.4-.5-.5h-.6c-.6-.5 0-1.7.1-2.6l-.1-1.5a2 2 0 0 0-1.2-1q-1.2-.4-2 .4t-1.5 1.7l-.9.9-.4-.6c-1.7-4-4.4-5.7-7-5.8a5 5 0 0 0-4 2.8c-.5-2.2-.8-4.7-2-6.5a5 5 0 0 0-3-2.5 12 12 0 0 0-5 0c.2-.4 1-2 1.5-4.6.5-3 .7-6.7-.7-9.7a6 6 0 0 0-3.3-3.2q-2.2-.7-4.5-.6-3 .2-4 .7l1.4-2.1 1.3-2.6.2-1q0-.8-.5-1.2-1-.6-2.2-.2l-1.7.9 1.5-1.9.4-1q0-.6-.2-1.1-1-1.4-2.6-1.2h-.2q1-.9 3.3-3.7 1.6-1.9 2.5-3.6l.6-1.7a2 2 0 0 0-.6-1.4q-1-.7-2.6-.6" id="path50"/><path d="m933.4 695.7-1.1.3-.8 1q-.7 1-1.3 2.6c-1 2-2 4.5-3 5.7q-1.6 1.8-3.9 3c-1.3.9-2.7 1.7-3.4 3s-.5 2.7-.4 4q.3 2-.2 3l-1.3.6-2.8.4q-1.6 0-2.7.3l-1 .1-.3.2-.1.4h-.1v1.2q.3.5 1 1.1c.6.5 1.9.7 3 1h-.3a2 2 0 0 0-.7 1.4c-.1 1.2.7 2.2 1.5 2.8l1.2.9q-.3.3-.4 1.6 0 .9.3 1.8a3 3 0 0 0 1.9 1.3q2.2.4 3.4-.7c-.3.7-.5.8-.8 1.7l-.6 3 .1 1.4q.2.7.9 1.1 1.1.5 2.7.2 1.5-.3 3.1-.9l2.7-1q-.5.8-.8 3-.3 1.6.2 3 .7 1.6 2.6 1.7 2-.2 3.2-1.9a13 13 0 0 0 2-3.6q.9-2.9 1-4 .5.7 2.3 2.5c1.9 1.6 4.3 3 6.7 2.5q1.8-.6 2.3-2a6 6 0 0 0-2-6.4 14 14 0 0 1 1.3 3.7q.1 1.4-.3 2.3-.4 1-1.6 1.3c-1.8.5-4-.8-5.7-2.3l-2.9-3v-.1l-.1-.1h-.4l-.3.2h-.1v.2s-.4 2.5-1.3 4.9q-.6 1.9-1.7 3.2-1 1.3-2.5 1.5-1.2 0-1.5-1t-.2-2.4c.3-2 1-4 1-4h.1v-.5h-.1l-.1-.1-.3-.1h-.2l-3.7 1.5-2.9.9q-1.4.1-2-.2-.3 0-.4-.4v-1q0-1.2.6-2.8c.7-2 1.6-3.8 1.6-3.8v-.6l-.1-.1h-.1l-.2-.2h-.1l-.2.1-.3.3s-.3.7-1 1.3a3 3 0 0 1-3 .6q-1-.2-1.3-.7l-.2-1.2c0-.9.5-1.7.5-1.7v-.6l-.2-.1-1.4-1q-1.1-1-1.1-2 0-.3.2-.5l.6-.3h1.3l.3-.2v-.1l.1-.3v-.2l-.1-.1h-.1l-.3-.2c-2.3 0-3.7-.7-4.4-1.2l-.6-.9v-.3l.6-.1 2.6-.3q1.5 0 3-.4 1.3-.2 2-1c.6-1 .4-2.4.3-3.7q-.3-2 .3-3.4.9-1.3 3-2.6 2.3-1.1 4.2-3.2c1.3-1.4 2.2-3.8 3-5.9l1.4-2.5.5-.7h.5l.3 1 .4 2.7v4.1l.1.2h.1l.2.2h.4l.1-.1v-.1h.2v-.3l1.3-2.7 1.7-2.4.2-.1.9.2 1.3.7q1.4.9 3.3 1a2 2 0 0 0 1.5-1q.5-.5.8-1.4l.7-1.2q.4-.5.8-.5.3-.1.7.3l1 1.3 1.4 1.4a3 3 0 0 0 2 .7c1.6 0 2.6-1 3.3-1.9l1.1-1 1-.3q.5-.1 1 .7l.6 1.6c.3 1.2.3 2.4.3 2.4h1.1s0-1.3-.4-2.6q-.2-1-.8-2c-.6-1-1-1-1.7-1a3 3 0 0 0-1.7.4l-1.2 1q-1 1.4-2.6 1.6a2 2 0 0 1-1.3-.4l-1.2-1.3-1.2-1.5a2 2 0 0 0-1.7-.5q-.9.3-1.3 1t-.9 1.4q-.3.8-.7 1.2-.3.5-.7.5-1.2 0-2.7-.8l-1.4-.8-1.3-.3q-.5 0-.8.3l-.7.8q-.8.9-1.3 2l-.4.8v-1.7q-.1-1.6-.5-3l-.5-1.1q-.3-.5-1-.7z" id="path51"/><path d="M938 705.8a7 7 0 0 1 2.7 2.8c.5.8.6 1 .7 1.7l.2 2.7q0 1.4 1.2 2.4l2.5 2.1c2 1.4 4 3 4.8 4.4a4 4 0 0 1 .3 3.4l-.7 1.3-.1.1-.1.3v.2l.2.2s.5.4.8 1.1.5 1.5-.2 2.5q-.4.6-1 .7l-1.2-.3-1.5-1-.3-.1h-.4v.2l-1.5 1.2q-1.4.8-3 .3l-2-1.7-2.7-3q-1.5-1.6-3-2.5-1.4-1.2-2.9-.9-2.1.7-2.7.6-.8 0-1.5-.4a6 6 0 0 1-2.7-3c.2 2 1 2.8 2.3 3.7q.7.7 1.8.8c1.1.1 1.6-.1 3.2-.6q.5-.2 2 .7l2.7 2.5 2.8 2.9a9 9 0 0 0 2.4 2c1.4.6 2.8 0 3.8-.5l1.4-1.1q.3.4 1.4 1l1.8.3a3 3 0 0 0 1.7-1.1q1.2-2.2.3-3.6-.5-1-.8-1.2l.8-1.3q.6-1.6-.5-4.3c-1-1.7-3.1-3.2-5-4.6l-2.5-2q-.9-1-.8-1.7 0-1.9-.2-3t-1-2c-1.5-2-2.7-2.1-3.6-2.2z" id="path52"/><path stroke-linejoin="round" d="M928.1 724.4c.4-3.6 3.3-2.9 5.5-3.2-1.4 1-3 1.7-3.7 3.5zm13.8-14.5c-3.5.4-2.8 3.3-3.2 5.6 1-1.5 1.4-2.9 3.3-3.7" stroke="#000" stroke-width=".5" id="path53"/><path d="m977.4 734.5-1 .3 1 3.4.7 4.1q-.2.5-1 .8-.4 0-.8.4-.4.3-.7.8a28 28 0 0 0 .1 6.4c.6.2 1.7-.7 2-.2.3.6-1 1.5-1 2-.3.6.5.5.9.5s.9-.1 1.2.2q.4.5 0 1l-.4.7q0 1 .6 1.1l1.1.5q.6.7.3 1.3a5 5 0 0 1-1.2 2.2q-1 1.1-2.4 2.1-1.2 1-2.5 1.4-1.2.4-1.9-.2-.6-.5-1-2.4v-4.3c.3-3 .8-5.7.8-5.7v-.2l-.1-.2-.1-.2-4.9-3.4-3.6-2.3-1.4-.9q-.5-.3-1.1-.3a2 2 0 0 0-1.2.4l-.9.8q-.7.8-1.8.9-.5 0-1.9-.9l-2.7-2.1-3.4-3.2-.8.8 3.4 3.2 2.9 2.2q1.4 1 2.5 1a4 4 0 0 0 2.6-1.1l.8-.6q.3-.3.5-.3l.7.3 1.3.7 3.5 2.3 4.5 3.3c0 .3-.5 2.6-.6 5.4v4.5q.3 2.1 1.4 3.2 1.3.8 2.8.3t3-1.5l2.3-2.4a6 6 0 0 0 1.3-2.3V757q-.1-.6-.5-.9l-1.6-.8s-.1 0 0-.2l.5-.7q.3-.5 0-1.2-.4-.7-1-.7h-1.2l.4-.4.5-.8q.3-.5-.1-1t-1-.5l-.6.1h-.2c0-.8.2-4.5.4-5.2l.1-.3.6-.2q1.1-.2 1.6-1.5.2-.8 0-2l-.6-2.6-1.2-3.5zm43-36.4-1 .3s1 3-.3 5.7c-.6 1.2-1.8 1.8-2.8 2.3l-1.5.7q-.7.4-1 1.5c0 2 1.6 3 2.2 3.5l.1.2q-.2.4.1 1.2.3.6.8.6t.9.2c.4.9 0 2 0 3a14 14 0 0 1-.8 3.5l-4 5.1-2.7 2.9-1 .8-.5.3q-.2 0-.5-.3l-.6-1.3c-.3-1-.2-2.5.5-3.5q1.2-2 2.3-4.8a13 13 0 0 0 .9-4.8q-.3-1.9-2-2.5-1.5-.9-2.2-2c-1-1.7-3.1-6.5-3.1-6.5l-1 .4s2.1 4.8 3.2 6.7c.6 1 1.7 1.6 2.5 2.2q1.3.8 1.5 1.9a23 23 0 0 1-3 8.8q-1.2 2.1-.7 4.4.3 1 .8 1.7.7.8 1.5.8.5-.1 1-.6l1.2-1a47 47 0 0 0 7-8.2q.4-1.6.6-4v-3.2a1 1 0 0 0-.7-.7l-.6-.1h-.5V712l-.5-.6c-.7-.7-1.6-1.4-1.5-2.8q0-.4.4-.6.5-.4 1.4-.7a6 6 0 0 0 3.2-3c1.5-3 .4-6.3.4-6.3zM1004 696s-.5 3.1-2.7 4c-1 .3-3 0-4.7-.4q-1.3-.4-2.5-.4-1.1-.1-2 .5-.8.8-1 2.4l-.1 3.3-.2 3.2v1.2l-.2.5-.4-.2-1.3-1.3-1.7-1.5-.7-.6q-.3-.3-.8-.3a1 1 0 0 0-.8.5l-.4.7-.5 2.2c-.3 1.5-.8 4.1-1.5 4.8-1.8 1.6-4.4 1.6-6.5 2 0 0 1.3.2 2.9 0 1.6 0 3.5-.4 4.5-1.8s1.4-3.2 1.7-4.8l.4-2 .3-.5v.1l.7.5 3.2 3 .9.2q.5 0 .8-.3l.4-1 .1-1.3.1-3.3q0-1.7.3-3.1t.5-1.7 1.3-.3 2.3.4c1.8.4 3.7.9 5.2.3 3-1.1 3.5-4.9 3.5-4.9z" id="path54"/><path d="M959.8 786.6c-.5-2.4.7-3.2 1.2-4.8 1 0 1 1.6 2-.5.7-1.1 1.3-3.8 2.5-3.2 1.1-.2 1-4 2.2-3.3.9-.8 1.3-.8 1.7-1.4m12.8-4.6c-.6-2.6 2.8-1.7 2.7-3.9.7-.8.9-2 2.8-1.4-.5-2.8 1.2-3.4 3.1-4.1.2-1.4 2-.8 1.5-1.7m12.5-16c-1-2.5 3-1.2 2.7-3.3 0-1.3 1.6-1 2-2.2 2.6.8-.2-3.6 1.6-3.3.6.5 1.1-3 3.1-1.7-.8-2.9 2.8-.6 2.2-3.2 0-2.7 3 1 2.4-2.8 2 0 .3-4.5 3.6-3.4.3-2.3 2.7-1.3 3.6-3.1 1.1-1.1 2-2.8 2-3.7m25.3-17.3c-1.3-.2-1.2.9-1.5 2.2-2.5-1.8-.2 4-3.6 1.9-1.3-1 .7 5-2.2 3.1-1 1.7-1.5 2.7-2.6 3.9q-1.3 2.1-3 2.1c-.4.2-2 1.3-2.3 2.2" stroke="#000" stroke-width=".5" fill="none" id="path55"/><g fill="#f9a400" id="g57"><path d="M616.3 368q-.6.5-.3 1.3c.3.8.7 1 1.5 1.6l.7.6v.2l-.1.2h-.3l-.6.3c-1.4.6-3.4 1.4-4.2 1.9-1.5.7-1.7.9-2.5 1.7l-.7.8-.2.4q-.3 1 .2 1.6.3.4 1.4.4 1.2 0 2.8-.4h.1l.2-.1h.2v.2l.1.6v.7l-1.1 1-4.7 4.7-1.6 2.3c-.5 1-.6 1.5-.2 2.7q.2.7.5 1 .4.5.7.5h.2l.1.1.1.1v.9l-.2 1.8q0 1.5.4 2.5t1 1.2l.2.2v1.1q.3 5.2 1.4 7 .6 1 1.2 1 .6.1 1.1-.5l.6-1.2v-.2h.1v-.1h.2v-.1h.1l.1.1.4.4.8 1 2.6 2.4.8.4.5-.1q.6-.3.9-1.3c.3-1 0-1.3-.2-2.1v-.8l.1-.1h.2s.1-.1.2 0h.5l1.3.1.8-.1q.6-.3.4-.7l-.6-1.4-1.4-1.4-2-2-.7-.7h-.1v-.1l.3-3.1.2-4.2.1-1.2v-.1h.1v-.1h.2l.7.3q.7.3.8.5l.2.4v.4l-.2.5-.1.4-.5.9-.1.5q0 .5.3.8a3 3 0 0 0 1.7.8l.5-.1.2-.1h.2l.8.8a8 8 0 0 0 4.9 2.4l1 .2q.7.1 2.2-.6l.3-.2h.4v.1h.1v1.3l-.3 2.7-.2 3.3 1.7-1.6 2-2v-.8l-.1-3v-2.4l.4-.3.3-.3h.2l.1.1.3.9.1.5h.5v-2.4l.5-.6.5-.4h.2v-.1h.4l.2.3.2.4 1.2 3.2v.1l.2-.1.9-1.4.8-1.4.3-.4v-.2l-.1-.3-.5-1-.5-1-.2-.2v-.5l.2-.2q.3 0 .5-.4l1.6-1.5 3.4-3.4 1.3-1.3.1-.1h.2l.2.2 2.8 2 2.2 1.6.2-2.1.1-2v-.5l-.4-.2-1-.8-1-.7-.3-.2v-.1l-.1-.1v-.3l.2-.3.6-.5.4-.5.2-.2h.2v-.1h.5l1.1.3 3.7.7 3.6.8q.6 0 1 .3h.2V377l-3.1-.8-2.4-.6-.8-.1-.2-.1h-.1v-.4h-.2l.1-.1.1-.1.2-.3c.5-.7 1-1.9 1.3-2.4.2-.6.3-2 .2-2.9q-.2-2.1-2.4-4.7l-.5-.6v-.3l.1-.4q.4-.5.1-1.2v-.3l-.4-.3q-1-1-2-.5l-.6.5-1.4.9-1.3.9-.7.5-.2.1h-.2l-.1-.1v-.2l.2-.3 1.7-3.5.6-1.3.2-.6.1-.2.2-.2.4-.3.4-.2h.2l1.5 1.5q4.6 4.5 6.6 5.3l.8.2q.3 0 .5-.3.4-.3 0-1.5l-1.2-2.5v-.5h.3v.1l.7.5c1.4 1.5 3.5 3 4.5 3.4q1.1.4 1.7-.1t.2-1.5q-.3-1.2-1.4-2.8l-.6-.8h-.1v-.3l.1-.1.6-.2 1.8-.8q3.2-1.4 4.6-2.6 1.5-1.2 1.3-2.1l-.2-.6q-.5-.6-1.4-.6h-.5l-.1-.1v-3.9a3 3 0 0 0-.8-1.6 2 2 0 0 0-1.5-.6q-.9 0-1.6.7-.9.7-1.3 2.3c-.4 1-.6 2.1-.8 4.2v.3l-.1.1h-.1l-1 .5-1.8.6-.7.3h-.2l-.6-.6-1-1.1-.6-.6v-.3l.5-.5q1.3-1.5 1.1-2.4.1-.5-.4-.9-.7-.6-1.5-.4-1 0-2.4.9c-.8.4-2 1.3-2.3 1.7l-.3.3h-.6v-.7a4 4 0 0 0-.6-2q-.3-.7-1-.7-.3 0-.7.3l-1.2 1-.8.8-.3.5-.2.2-.1.1h-.2l-.5-.1q-2-.6-2.8-.3c-.9.3-1.5.8-2.7 2l-2.6 3-.5.8-.2.3h-.1l-.2.1h-.2l-.5-.5q-1-1.1-1.7-1.2-.9-.1-1.7.7-.7.6-1.2 1.7l-.6 2.8v.3l-.1.1-.1.1h-.2l-.4-.3q-1.6-1-2.7-.2-.9.6-1.3 3c-.1.9-.3 3.2-.2 4.3v.9l-.1.1h-.5l-.5-.3a6 6 0 0 0-3.3-.4 2 2 0 0 0-1.2 1v.5h-.1l-.1.1h-.6a30 30 0 0 0-5.4-.2q-1.4.3-2 .7zm18.3 48.3q-.2 0-.3.3l.1 1 .7 1.4a15 15 0 0 0 3.6 3.5c3.8 2.6 9.8 4.8 14.6 5.3h.1l.1.1.1.1.1.2v.3s1 1 2.4 1.7l2.2 1q1 .4 2 .1.3 0 .8-.5h.5a38 38 0 0 0 5.5 2.4h1l.5-.3v-.7l-.5-.8-2.1-1.6-2.7-1.3-.1-.2-.2-.2v-.3l1-1.2c.9-.5 1.7-1.7 3-2.3q2-1 3.4-2a13 13 0 0 0 2.6-3.7c.7-1.3 1.6-1.7 1.7-2h.2v-.1h.4l5.3.6.3.1v.1h.1v.5a13 13 0 0 0-4 5q-.9 3 .5 5.7c1.6 3.5 5.4 6.8 8.7 10.1h.1v.5l-.4.8-.7 2.6a8 8 0 0 0 0 3.2q.5 1.6 2 2.5h.2q.3 0 .2-.3l.4-1.3q.4-1.7 1.6-3.7 1.5-2 3-3.3l1.3-1.4q.5-.5.3-1.1-.5-2-2.2-2.6l-1.5-.5h-.1l-.1-.1h-.1v-.2c-.5-2.4-2.2-4-3.9-5.5l-.2-.2v-.3h.2v-.1a8 8 0 0 0 3.1-4.6v-.1l.2-.1h.5q.3 0 0 0l1.4.6q1.6.5 4 .7 2.3.2 4.3-.4a4 4 0 0 0 2.4-2v-.2h.2l.1-.1h.3l.2.2.3.9c.4 1 .8 2.5 1.5 3.2q1.1 1 2.8 1.1c1 .2 2.3.4 3 1q.9.6 1.2 1.1l.3.7v.5l-.2.1h-.1q-1.4.2-3.4 2.4c-.6.7-1.8 1.6-1.8 3 0 .7-.3 1.4.1 2q.6.6 2 .7 1.1 0 2-1l2.1-2.2q1.1-.6 2.4-1 1.4-.4 2-1.5l.9-2q.4-1-.2-2c-1.6-3.2-5-5-7.3-10.2a8 8 0 0 1-.2-6.3q.5-1.4.6-2.4.2-1.1-.7-2.4a4 4 0 0 0-2.3-1.6q-1.6-.4-3.4-.4c-2.4-.1-4.9-.2-6.6-1.4a7 7 0 0 1-2.7-4.8c-.2-1.5.3-3 1.1-3.7l.3-.3h.7l.1.2 1.2 1.3q1.2 1.7 3 3.2 1.8 1.3 3.7 1.4a5 5 0 0 0 3-.4c1.3-.9 1.8-2.5 1.9-3.8q0-1.1-.2-1.9l-.2-.5-.3-.3-.5.1-.6.6q-.4.8-1.9 1.1-.7.1-1.6-.7t-2-1.8l-2.2-1.8q-1.1-.8-2.1-.7-3.2.2-4.6 1.6a5 5 0 0 0-1.4 3.4 15 15 0 0 0 2 7.6q.8 1.4 3.4 2.5c1.5.7 3.3 1.5 4.6 2.5a11 11 0 0 1 3 3.1l.1.4v.5h-.2l-.1.1h-.3l-.4-.2-2.5-1-6.6-2.6a72 72 0 0 0-8.7-2.6h-.5l-.2-.2v-.3c0-.2 0-1.4.7-1.9.5-.3 1.5 0 2 .2 1 .2-1-3-1.3-3.5-.5-.8 1.7 1 2.6 1.4.7.4-2-4.8-2-5.2-.4-1 1-.9 2.2-1 .8 0-1.1-1.9-2.2-3.2-1.2-1.6 1.8-1.5 2.4-1.8 0-1.3-4.4-2-4.3-3 1.2-.2 3.2.2 3-.5-.4-1.7-5.2-1-7.2-3l-2-1.8c-.7-.4-1.5-1.1-2-1.1q-.8 0-1.6 1c-.5.4.2 2.3.1 3.5-1.8.5-2.5.4-4 1.7a16 16 0 0 1-5 3l-2 .8-1.4.5q-1 .6-1 2c.2.8-.1.8.8 1.8s2.5 1.4 4 1.7l2 .3.6.4.2.2v.4h-.1q0 .3-.4.4l-1.4.2c-1 .1-2.3.1-3 .7v.5q0 .3.3.5l2 1c.9.5.7 1.1.6 1.7 0 0 1 .2 1 .7.2.2-.5.7-.3 1s1.3.3 1.6.6c.3.4-.5.8-.4 1.2.2.5 1.2.8 1.3 1.1 0 .2.1.8-.1.8l-1.1-.2c-1 0-2.5-.7-4-.8-1.2-.2-1.7-.5-2.7-1-1.1-.9-2.8-2.4-3.4-4-1-1.4 0-3-1-3.8l-1.2-1.2q-.7-.3-1 0-.9 0-1.1.6-.4.7-.5 1.5t.2 1.1v.1q-.1.5-.6.5c-.5-.2 0-.3-1-.5l-2-.4h-.7c-.3 0-.8.6-.9.7l-.2.4.2.4q0 .5.5 1.1l.6 1 .2.2v.1l-.2.3h-.1v.1l-1.4.5-1.3.7q-.7.4-.7.9v.4l.6.3 1.5.4 1.5.2h.2v.1l.1.1v.6l-1.2 1.1-1.2 1.4-.3.6v.4h.5c.2 0 1 .4 1.4.2.8-.2 1.2-1 2.2-1.4s2-1.1 2.8-1.3h1.2l.5.3 1.8 1 2.9 1.1c.7.3 2.6.6 3.4.9l.2.2q.3.5.3 1c0 .4-1.2.7-1.4 1.2a18 18 0 0 1-6 5.1l-2.4 1q-.6-.1-.8.1l-.6.2c0 .2-.4.2-.4.6-.5-.3 0 0 0 .1q-.2.4-.5.4l-.2.4q-1.1-.2-5.3-2.8c-2.4-1.7-4.5-4.6-7.2-5.6a10 10 0 0 0-5.3-.4l-1.7.6q-.4 0-.6.3" id="path56"/><path d="m657.3 462.3-.2.6q-.3.9-.2 2.2c.2 1.1.5 1.7 1.4 2.8l.6.6-1 1.2-.5.9c-.2.8-.4 1.2 0 2.3q0 .6.4 1c.6.6 1.1 1.3 2.4 2l2.1.4 1.9.1 1.2.1v.4q.1 1.9 1.9 2.1 1.2 0 2.3-1l.4-.2.8.4q3.4 2.4 6.3 3.5 2.3.7 4.4.7h.7l.2.5q.6.8 1.6 1.2 1.4.4 4.2 0l3.8-1 2.4-.9h.2l.1.3.4.6q.6.6 1.3.6 1.3-.1 3.4-1.8l.7-.5 1.4-1.3 1.2-1 .6-.7.8-.8v.7l.8 2c.4.6 1.4 1.7 2 2l1.6.7q.4 0 .6-1.4c.1-1.2.6-3 1-4q.9-2.8 3.4-4.7l.9-.7.4.5q.7.9 1.4 1 1 .5 1.4 0v-2.2c0-1.3.2-1.7 1.2-3.2l1.2-1.4 1-1 1.1-1.1 1.9-1.8q.6.2 1.6 0l1-.2.5-.1.1-.2.6-.3.1-.2.5-.4.3-.4.4-.4.1-.4q.4-.6.4-1.3v-.2q.1-.4 0-.8v-.8l1.8-1.9 1.2-1 2.3-2.1c1.6-1.2 1.9-1.3 3.2-1.3h2.4v-1.4q-.3-.9-1.1-1.4l-.6-.4.8-1a10 10 0 0 1 4.7-3.4c1-.4 2.7-.8 4-1q1.3 0 1.3-.5l-.7-1.5a7 7 0 0 0-2-2.1l-2-.7-.6-.2.7-.7.7-.6 1-1.2 1.3-1.4.5-.7q1.6-2 1.8-3.4 0-.7-.6-1.3l-.6-.4-.3-.2v-.2l.9-2.3c.5-1.6.8-2.4 1-3.9q.5-2.7 0-4.2-.3-1-1.2-1.5l-.4-.3v-.7a14 14 0 0 0-.8-4.3 26 26 0 0 0-3.9-7.2l.3-.3a4 4 0 0 0 1-2.4q-.3-1.6-2.2-1.8h-.4v-1.3l-.2-1.8q0-1.2-.5-2.1c-.6-1.3-1.3-1.8-1.9-2.4l-1-.5c-1-.3-1.5-.2-2.3 0q-.5.1-.9.5l-1.2 1.1-.6-.6c-1.1-1-1.6-1.3-2.7-1.4q-1.4-.2-2.3.1-.6.2-1 .7-.9.8-.7 2.1c0 .7 0 .8.2 1.2l.5.9 1.1 1.6h-.5q-2.1.2-3 1t-.9 2q-.2 1.2.4 2 .1.5.5.8l.3.3h-.5l-.8.2q-1.2.6-2.2 2c-.7.9-.6 1.3-.6 2.5l-.1.6h-.4q-.9 0-1.4.8-.7.7-.7 1.9v2.3l.3.3q.4 1 2.2 1.5l3.3.2h1v.4q0 1 .7 1.8.4.5 1 .6l.8.1.5.1.5.5 1 .9c1.8 1.5 2.2 2 4 4.2l1.2 1.5c-.3.8-.3 1.2-.2 2q.2 1.2.8 2.2l.2.4-1.1 1-1.3 1.3-.8 1-.5-.4-2.3-.8c-1-.2-3.1 0-3.4.2q-.3.3.3 1l1.2 1.9.7 1.3.2.5q.4.5.7 1.7 1 3 .5 5.9c-.2.9-.2.9-.4.9s-.2 0-.6-.5l-.3-.5-1.1-1.6c-1.8-2.1-3-2-4-1.6q-.8.3-.8.8l.3.6c.8 1.2 1.7 2.8 2.1 4 .5 1.5.6 2.4.5 3.9l-.5 2.6v.5l-.2.7H725l-1 .2-1 .5-.9.8-.3.4v.2l-.5.7-.3 1v1.8h-.7l-3.1.5a7 7 0 0 1-3.8-.3 17 17 0 0 1-4-2.1l-.7-.4q-.3 0-.8.9c-.4 1-.5 2.2 1.7 4l1.5 1.2.5.2q.6.4.5.6c0 .2 0 .2-.9.3q-2.9.6-5.8-.4c-.7-.3-1.6-.5-1.8-.7l-.5-.2-1.3-.8-1.8-1.2q-.7-.6-1-.2c-.4.3-.5 2.4-.3 3.4q.4 1.3.9 2.2l.2.6-.7.8-1.5 1.3-1 1-.4-.2q-.9-.6-2.1-.8c-1.2-.2-1.2 0-2 .3l-1.6-1.3a25 25 0 0 1-4.2-3.9l-.9-1-.4-.5-.1-.6-.2-.8q0-.5-.6-.9-.7-.7-1.7-.8h-.4v-1c0-1.2-.1-2.6-.3-3.3q-.4-1.8-1.4-2.2l-.4-.1s-1.7-.2-2.3-.1q-1.2 0-1.9.7t-.8 1.4v.4h-.6c-1.1 0-1.6 0-2.5.6q-1.2 1-1.9 2.4l-.1.7-.1.4-.4-.2-.6-.6q-.9-.5-2.2-.4a3 3 0 0 0-2 1q-.6.9-.8 3l-.2.5-1.6-1.1-.8-.5c-.5-.2-.6-.3-1.2-.3q-1.4 0-2.1.8z" id="path57"/></g><path d="m657.3 462.3-.2.6q-.3.9-.2 2.2c.2 1.1.5 1.7 1.4 2.8l.6.6-1 1.2-.5.9c-.2.8-.4 1.2 0 2.3q0 .6.4 1c.6.6 1.1 1.3 2.4 2l2.1.4 1.9.1 1.2.1v.4q.1 1.9 1.9 2.1 1.2 0 2.3-1l.4-.2.8.4q3.4 2.4 6.3 3.5 2.3.7 4.4.7h.7l.2.5q.6.8 1.6 1.2 1.4.4 4.2 0l3.8-1 2.4-.9h.2l.1.3.4.6q.6.6 1.3.6 1.3-.1 3.4-1.8l.7-.5 1.4-1.3 1.2-1 .6-.7.8-.8v.7l.8 2c.4.6 1.4 1.7 2 2l1.6.7q.4 0 .6-1.4c.1-1.2.6-3 1-4q.9-2.8 3.4-4.7l.9-.7.4.5q.7.9 1.4 1 1 .5 1.4 0v-2.2c0-1.3.2-1.7 1.2-3.2l1.2-1.4 1-1 1.1-1.1 1.9-1.8q.6.2 1.6 0l1-.2.5-.1.1-.2.6-.3.1-.2.5-.4.3-.4.4-.4.1-.4q.4-.6.4-1.3v-.2q.1-.4 0-.8v-.8l1.8-1.9 1.2-1 2.3-2.1c1.6-1.2 1.9-1.3 3.2-1.3h2.4v-1.4q-.3-.9-1.1-1.4l-.6-.4.8-1a10 10 0 0 1 4.7-3.4c1-.4 2.7-.8 4-1q1.3 0 1.3-.5l-.7-1.5a7 7 0 0 0-2-2.1l-2-.7-.6-.2.7-.7.7-.6 1-1.2 1.3-1.4.5-.7q1.6-2 1.8-3.4 0-.7-.6-1.3l-.6-.4-.3-.2v-.2l.9-2.3c.5-1.6.8-2.4 1-3.9q.5-2.7 0-4.2-.3-1-1.2-1.5l-.4-.3v-.7a14 14 0 0 0-.8-4.3 26 26 0 0 0-3.9-7.2l.3-.3a4 4 0 0 0 1-2.4q-.3-1.6-2.2-1.8h-.4v-1.3l-.2-1.8q0-1.2-.5-2.1c-.6-1.3-1.3-1.8-1.9-2.4l-1-.5c-1-.3-1.5-.2-2.3 0q-.5.1-.9.5l-1.2 1.1-.6-.6c-1.1-1-1.6-1.3-2.7-1.4q-1.4-.2-2.3.1-.6.2-1 .7-.9.8-.7 2.1c0 .7 0 .8.2 1.2l.5.9 1.1 1.6h-.5q-2.1.2-3 1t-.9 2q-.2 1.2.4 2 .1.5.5.8l.3.3h-.5l-.8.2q-1.2.6-2.2 2c-.7.9-.6 1.3-.6 2.5l-.1.6h-.4q-.9 0-1.4.8-.7.7-.7 1.9v2.3l.3.3q.4 1 2.2 1.5l3.3.2h1v.4q0 1 .7 1.8.4.5 1 .6l.8.1.5.1.5.5 1 .9c1.8 1.5 2.2 2 4 4.2l1.2 1.5c-.3.8-.3 1.2-.2 2q.2 1.2.8 2.2l.2.4-1.1 1-1.3 1.3-.8 1-.5-.4-2.3-.8c-1-.2-3.1 0-3.4.2q-.3.3.3 1l1.2 1.9.7 1.3.2.5q.4.5.7 1.7 1 3 .5 5.9c-.2.9-.2.9-.4.9s-.2 0-.6-.5l-.3-.5-1.1-1.6c-1.8-2.1-3-2-4-1.6q-.8.3-.8.8l.3.6c.8 1.2 1.7 2.8 2.1 4 .5 1.5.6 2.4.5 3.9l-.5 2.6v.5l-.2.7H725l-1 .2-1 .5-.9.8-.3.4v.2l-.5.7-.3 1v1.8h-.7l-3.1.5a7 7 0 0 1-3.8-.3q-2.1-.7-4-2.1l-.7-.4q-.3 0-.8.9c-.4 1-.5 2.2 1.7 4l1.5 1.2.5.2q.6.4.5.6c0 .2 0 .2-.9.3q-2.9.6-5.8-.4c-.7-.3-1.6-.5-1.8-.7l-.5-.2-1.3-.8-1.8-1.2q-.7-.6-1-.2c-.4.3-.5 2.4-.3 3.4q.4 1.3.9 2.2l.2.6-.7.8-1.5 1.3-1 1-.4-.2q-.9-.6-2.1-.8c-1.2-.2-1.2 0-2 .3l-1.6-1.3a25 25 0 0 1-4.2-3.9l-.9-1-.4-.5-.1-.6-.2-.8q0-.5-.6-.9-.7-.7-1.7-.8h-.4v-1l-.3-3.3q-.4-1.8-1.4-2.2l-.4-.1s-1.7-.2-2.3-.1q-1.2 0-1.9.7t-.8 1.4v.4h-.6c-1.1 0-1.6 0-2.5.7a6 6 0 0 0-1.9 2.3l-.1.7-.1.4-.4-.2-.6-.6q-.9-.5-2.2-.4a3 3 0 0 0-2 1q-.6.9-.8 3l-.2.5-1.6-1.1-.8-.5c-.5-.2-.6-.3-1.2-.3q-1.4 0-2.1.8zm.8.5q0-.2.5-.5.7-.4 1.6-.3.7.1 2.3 1.4c1.7 1.3 4.9 4.1 6.7 6q.2.1.4.8c0 .5-.5 1-.5 1l-1 1c-.3.4-1.1.4-1.4.3l-2.5-1.4q-5.5-3.3-6.2-5.3a6 6 0 0 1-.1-2.3q0-.4.2-.7m71.3-71.3q.4-.6 1.2-.7l2.2.2q2 .6 5.4 6.2l1.4 2.5c0 .2 0 1-.3 1.4l-1.1 1s-.5.5-1 .5c-.3 0-.8-.4-.8-.4-1.8-1.9-4.7-5-6-6.7q-1.2-1.6-1.4-2.4c0-.5.1-1.3.4-1.6m-64 68.4.5-.3q1-.3 1.8-.2a14 14 0 0 1 4 4.3l1.3 1.8.3 1q-.2.7-1.1 1.6-.7.9-1.7 1c-.4 0-.8-.4-.8-.4-1-1-3-3-4.2-4-.9-.8-1-.8-1-1.1v-1.3q.1-1.8.9-2.4m61.6-61.6q.5-.7 2.4-.9h1.3c.3.1.3.2 1 1l4.4 5q-.1 1-1 1.7c-.9.7-1.1 1.2-1.5 1.2q-.6-.1-1-.4l-1.8-1.2q-3.8-2.7-4.4-4-.1-.8.2-1.8zm-68.5 72 .5-.5c.7-.6.8-.6 1.2-.3l4 2.6c.8.5 2 1.1 2.1 1.6q.1.4-.1 1l-.7.6q-.6.3-1.1.3-4 0-5.3-1.5c-1.3-1.5-1.3-2.4-.9-3.4zm78.4-78.4q.5-.6.8-.7 1.7-.7 3.4.9c1.7 1.6 1.5 2.5 1.5 5.2q0 .6-.2 1.1l-.8.7q-.4.4-.8.1c-.5-.2-1.2-1.2-1.7-2l-2.6-4q-.5-.4.4-1.3m-12 12.3 1.1-.6 1.7.2c.5 0 .6.2 1.7 1l2.3 1.7q.6.3.7 1 0 .4-.4 1l-1.6 1.6-.8.6-4.6-1.2-1-.6c-.6-.7-.7-2.3 0-3.5zM671.4 458l1-1c1.2-.6 3-.6 3.6.1l.5 1 1.3 4.5-.7.9-1.6 1.5-1 .5q-.7 0-1-.7l-1.6-2.4c-.8-1-1-1.2-1-1.6q-.4-1-.3-1.7zm5-3.7q1.1-.6 3-.2c.9.2 1 .4 1.3 1.3q.4 1.2.4 3.4l-.1 1.2q-.1.3-.6.7l-1.2.9-.5.2-.3-.5c-.2-1-.8-3-1.1-3.6q-.4-1.2-1.1-1.6l-.4-.2v-.4q0-.8.7-1.2zm44.9-44.8q.3-.6 1.1-.6h.4l.3.3q.4.8 1.5 1.1l4 1.5v.5l-1 1.2-.7.6h-1q-2.5 0-3.6-.3c-.9-.3-1-.5-1.2-1.4q-.4-1.8.2-2.9m-53.2 64 10.6-10.4c2.2-2 2.8-2.3 3.7-2.2q1.3.1 1.6 1.3c0 .5-.3.9-1.6 2.4l-6.5 6.7-7 6.4q-1.4 1-2.1.4-.9-.9-.3-2.1.3-.7 1.6-2.4zm67.3-67.2 5-5q1.8-1.5 2.5-1.7 1.3-.6 2.1.2.6.8-.4 2.1a118 118 0 0 1-13 13.5c-1.5 1.4-2 1.7-2.5 1.6q-1.2-.1-1.3-1.5c0-1 .3-1.6 2.2-3.7zm-63.3 69.6q1-.7 1.4-.8 1 0 1.3.4c2.4 1.5 5.2 3 7 3.4l.6.1-.2.4-.3 1.9v.4h-.5c-2.9-.2-4.9-.9-8-2.8q-1.6-.7-1.9-1.5t.6-1.5m70.8-70.7q.6-.8 1.4-.6.7.4 1.6 1.9c1.8 3.1 2.5 5 2.7 8v.5h-1.4l-1 .3-.3.2-.2-.6c-.4-1.9-1.8-4.6-3.3-7q-.4-.4-.3-1.3 0-.6.8-1.4m-59.5 59.6c.2-.2.6-.8 1-.7l1 .5c1.7 2.1 2.5 3 4.7 4.6l1 .8q0 .2-.5.5l-1.2.8-.7.5-.4-.4q-1.6-1-3.4-2.8c-.8-.7-2-2-2.1-2.6q-.1-.5.6-1.2M731 417l.6-.7q.9-.7 1.3-.6c.6.1 1.9 1.4 2.6 2.2l2.8 3.4.3.4-.4.6-.9 1.3-.4.5-.8-1c-1.7-2.2-2.6-3-4.7-4.8q-.5-.5-.5-1v-.3zm-56 56.2.8-.8q1-1.1 2-1.3c1-.2 2.7 1.6 4.1 2.6l2.7 1.8-1.8 2.5h-.7c-.9-.2-1.4-.3-2.7-1-1.7-.7-4.7-2.6-4.7-3.1q0-.4.3-.7m64.3-64.4q1-1 1.5-1.1a17 17 0 0 1 4 7.5q.3.7 0 .7l-2.4 1.8-1.7-2.7c-1-1.5-2.7-3.7-2.7-4.2s.8-1.4 1.3-2m-59.9 60 1.2-1.1s.5-.6 1-.6 1.3.8 1.3.8l4.7 4.1.3.2-.4.4-1.4 1.3-.8.9-.5-.2-3.3-2.3c-1-.6-2.5-1.7-2.6-2.5zm55-54.9.2-.2c.8-.7 1.7-1.8 2.1-1.7.8.1 2 1.6 2.6 2.5.9 1.2 1.7 2.6 2.2 3.4l.2.5-.8.8-1.3 1.3-.4.5-.3-.3-4-4.7s-.9-.7-.9-1.3q0-.5.3-.8zm7 6a21 21 0 0 1 4.4-3.6q2.4-1.2 3.9 0 .4.4.6 1 .6 1.7-.8 6.4l-1.3 3.6h-.6a18 18 0 0 0-9.2 1.8q-.2.4-.7-.5c-.8-1.4-.8-2.5 0-4.2.8-1.2 2.2-3 3.7-4.5M687 474.5c1.5-1.5 3.2-3 4.4-3.6 1.7-1 2.8-1 4.2-.1q.9.4.6.7a20 20 0 0 0-1.9 9.1v.7l-3.6 1.2q-4.5 1.4-6.4.8c-.5-.1-.5-.1-.9-.6q-1.3-1.4 0-3.8 1-1.9 3.6-4.4m12.6-12.4s.2 0 .3.2c1.7 1.3 4.7 2.6 6.6 3q3.4.7 6.5-.4c.5-.1.5-.1.9.1l.3.3v.6q-.5 2.9.2 5l-.1.6c-.6.3-2 1.6-2.5 2.1a13 13 0 0 0-3 6.5l-.2 1.7q.1.2-.5 0-1.1-.6-1.8-1.7c-1.2-1.7-1.3-4-.6-7.8v-1.1l-1-.7a15 15 0 0 1-3-2.6 7 7 0 0 1-2-3.4c-.2-.8-.3-2.4 0-2.4zm29.5-29.5c0-.2 1.7-.2 2.5 0a7 7 0 0 1 3.3 2c1 1 1.5 1.6 2.6 3.2l.7 1 1.1-.2c3.9-.7 6-.5 7.8.7a5 5 0 0 1 1.7 1.8q.3.5 0 .4l-1.7.3q-4.1.8-6.4 3l-2.2 2.4q0 .3-.6.1-2-.6-5-.2l-.6.1-.2-.4c-.3-.4-.3-.4-.1-.9q1-3 .4-6.5a19 19 0 0 0-3.3-6.8m-20.3 25.7.1.2a13 13 0 0 0 11.2 2.2l1.3-.3.2.4.2.2.6.8h.1l.9.7v.1l-1.9 2a24 24 0 0 0-3.5 3.8c-.7 1.2-.8 1.8-.8 3.5v1.1s-.6-.1-1-.4c-.6-.5-1.2-2-1.3-3.2q-.2-1.5.2-3.4v-1.2c-.1-.2 0 0-1.3-.8-2-1.2-3-1.8-4-3-.8-.7-1-.8-1-1.2q-.3-.6-.1-1.2zm16.6-16.6h.3q.5-.2 1.1 0c.4.2.5.2 1.3 1 1 1.2 1.7 2 3 4.1l.7 1.3 1.2-.1a12 12 0 0 1 3.5-.2c1.2.2 2.6.8 3.2 1.4l.4 1h-1.2c-1.6-.1-2.3 0-3.5.8-1 .7-1.8 1.4-3.8 3.5l-2 2-.1-.1-.6-1-.6-.5-.2-.1-.3-.2-.3-.3.2-1.2q.4-2.4.4-4 0-3-2.6-7.2zm-26.9 28 1.5-1.4.5-.4.6.7a20 20 0 0 0 3.8 3l-.1.6q-.4 2-.4 3.4v.9l-1 1a29 29 0 0 1-6 5q-1.5.8-2-.7c-.8-2.3.2-7.8 2-10.7zm36.4-36.4.4-.3c.6-.8 2.3-2.3 2.9-2.7 2.8-1.8 8.3-2.7 10.6-1.9q1.5.5.7 2a29 29 0 0 1-4.9 5.9l-1 1-1 .1q-1.3 0-3.4.4h-.6l-.6-.7q-1-1.8-2.4-3zM723 456q.3-.5.8-.6l.2-.1.8-.3a4 4 0 0 1 1.8 0l.2.2q.5 0 .8.3l.6.5a4 4 0 0 1 1 1.7v1.3l-.1.8-.4.8-.5.5-.6.6-.8.3-.2.1-.6.1h-1l-.6-.2-.7-.3-1.1-1.1-.4-.6v-.2l-.3-.8v-.5l.3-1.2v-.3z" id="path58"/><path d="m678.3 381-1.1.3q-.6.3-.8.7-.4.7-.4 1.4l.2 2.2c-2.4.2-4 1.8-5.4 3.3v.1c-1.4 1.3-2.1.7-3.7 1.3l-2.1.9q-.9.2-1.5.6-.9.9-.7 2.4c.2 1 0 .9 1 1.9 1 1.2 2.7 1.7 4.2 1.9q1.6-.2 2.5.6c.2.2-1 .3-1.5.3-1 .2-2.3 0-3.2.8q-.3.4-.2 1t.5.8l1.6.8.3.2.4.2v.2l-.2.5q0 .4.2.7t.5.3h.5v.6q-.5.2-.5.7 0 .3.2.5t.6.1h1l-.1.2-.5.6q-.2.4.2.8c.6.4 1.7.2 1.4 1-3.6-.8-1.7-.6-5.4-1.3q-.4 0-1-.3t-1.9-1.1c-.9-.8-1.8-2-2-2.3-.6-1.6-.2-3.3-1-4.5a5 5 0 0 0-1.6-1.6q-.7-.4-1.5 0c-1 .3-1.7 1.3-1.8 1.8q-.2 1 0 1.6l-2-.5c-.6-.2-.5-.2-1.1-.2l-.9.1-.8.6-.3 1v.5l.7 1.2.7 1-1.4.6-1.4.7q-.7.4-.9 1.1 0 .6.3 1 .5.7 1.7 1l1.4.2a5 5 0 0 0-2.2 2.8c0 .2-.2.9 0 1 .8.6 2 .7 2.7.4q1-.4 2.4-1.5c.9-.7 1-.9 1.9-1.1l1.3-.3c.3.1 1.5 1.1 2.3 1.5l3 1.2 3.9 1.3a3 3 0 0 0-1.4 1q-1 1.4-2.6 2.9a18 18 0 0 1-3.5 2.3l-2 1c-.4 0-1.9.5-2.2.8q-.4.6-.4 1.2a27 27 0 0 1-5-3c-2.3-1.6-4.4-4.5-7.3-5.6q-3.1-1-5.5-.5l-2 .6-.6.4-.4.6q-.2.6 0 1.2l.8 1.6a16 16 0 0 0 3.7 3.6c4 2.7 10 4.9 14.8 5.4-.3.3.2.8.6 1.1l2 1.2 2.4 1q1.2.4 2.2.2.6-.2 1-.6l3.1 1.6 2.6.9h1.1q.6-.1.9-.6l-.1-1.1-.6-1q-1-.9-2.2-1.6-1.7-1-2.7-1.4l.8-1a10 10 0 0 1 2.8-2.4c1.3-.6 3-1.4 4-2.2a16 16 0 0 0 2.6-3.8c.7-1.3 2.5-1.2 2.8-1.2h2l2.1.2a13 13 0 0 0-4 5.2q-1 3 .5 6c1.7 3.6 5.4 6.9 8.8 10.1l-.4.7q-.5 1.1-.9 2.8a14 14 0 0 0 .2 3.5q.4 1.6 2.1 2.8l.8-.1.4-.5.4-1.3q.4-1.8 1.5-3.6a24 24 0 0 1 3-3.3l1.3-1.4q.5-.6.4-1.4a4 4 0 0 0-2.5-3l-1.7-.5c-.5-2.6-2.2-4.2-3.9-5.6q2.5-2 3.2-4.9h.1l1.5.7a15 15 0 0 0 8.5.4 5 5 0 0 0 2.7-2.4l.3.8c.3 1.1.8 2.6 1.6 3.5q1.3 1 3 1.2 1.8.2 2.9 1 1.3 1 1.3 1.5c-1 .1-2.7 1.4-3.7 2.4-1.9 2-2 3.1-1.8 5.4 0 .8 1.4 1.2 2.5 1.2q1.4 0 2.4-1.2t2-2.1l2.3-1q1.5-.4 2.2-1.7l1-2a3 3 0 0 0-.2-2.3c-1.8-3.4-5.2-5.2-7.4-10.3-1.1-2.5-.6-4.3-.1-6q.4-1.2.6-2.5a4 4 0 0 0-.8-2.6 5 5 0 0 0-2.6-1.9 13 13 0 0 0-3.5-.4c-2.4-.1-4.8-.1-6.3-1.2a6 6 0 0 1-2.5-4.5q-.1-2.7 1.1-3.5l.1-.1.3.2 1 1.2q1.3 1.6 3.1 3.3a8 8 0 0 0 4 1.5q2 .2 3.3-.6a5 5 0 0 0 2.1-4q0-1.3-.3-2.1 0-.4-.3-.7-.1-.3-.5-.5a1 1 0 0 0-1 .3l-.5.6q-.4.7-1.6 1-.3 0-1.3-.6l-2-1.8-2.3-1.9q-1.1-.8-2.4-.8-3.3.2-4.8 1.8c-1.5 1.6-1.5 2.3-1.6 3.7v1q-.1-.6-.4-1a13 13 0 0 0-3.1-3.7q.6-1 2.3-.5l1 .5-.5-1.2a4 4 0 0 0-2.3-2.2l-1.7-.7c1.2-.4 2.6-.1 3.5-.1l-.7-.7c-1-1.1-2.8-1.5-4-1.9l-2-.3-.8-.4h-.1l-1.3-1.4-2-1.7q-1-.7-1.8-.8m-.5.9h.5l.9.5 1.9 1.6 1.5 1.4.6.6 1 .3 1.9.3 2.2.6a4 4 0 0 0-2.6.6l-.5.4.6.3q1.7 1 3 1.5l1.2.7q-1.6.1-2.5 1.1l-.4.5.4.3q1.5 1.3 2.5 3-1.4-.4-2.4.2l-.3.2.2.4q1.7 2.8 2.6 5.2l-2.5-1.5-1.2-.4.6 1.2 1.6 2 .4.9-.2-.1-2-.3h-.4l-.1.5q-.1 1.6-.6 3h1.2a71 71 0 0 1 8.5 2.5l6.8 2.6 2.4 1 1.2.6h.3l.4-.1q.3-.4.1-.7 0-.5-.5-1.2a11 11 0 0 0-3-3.3q-2.3-1.5-4.9-2.6a9 9 0 0 1-3.2-2.3c-.7-1-2.1-4.9-2-7.3q.3-1.8 1.4-3 1.3-1.2 4.3-1.6.8 0 1.8.7t2.1 1.8l2 1.8q1.1 1 2.2.8 1.6-.5 2.1-1.4l.5-.5.1.1.2.4.2 1.7c-.1 1.2-.6 2.7-1.8 3.5a5 5 0 0 1-2.7.4 7 7 0 0 1-3.5-1.4q-1.5-1.3-2.8-3.1-.6-.9-1.2-1.3l-.6-.3q-.5-.2-.8 0c-1.3.7-1.8 2.6-1.6 4.5a7 7 0 0 0 2.9 5.2c1.9 1.3 4.4 1.2 6.8 1.3q1.8 0 3.2.5 1.5.3 2.2 1.3.7 1.1.5 2.1t-.5 2.3c-.6 1.7-1 3.9.1 6.6 2.4 5.3 5.9 7.3 7.4 10.4q.4.7.1 1.7-.2.9-.8 1.8-.5.8-1.7 1.2-1.3.4-2.5 1.2-1.4 1.1-2.2 2.1t-1.7 1q-1.4 0-1.6-.7c0-2 .3-2.8 1.7-4.2 1-1 1.6-1.7 3-2.2q.6-.2 1.6-.1l-.4-.7s-.5-1.3-2.1-2.6a7 7 0 0 0-3.2-1q-1.6-.4-2.5-1c-.9-.6-1-2-1.4-3l-.5-1.4-.2-.3h-.6q-.5.1-.6.6-.5 1.5-2.3 2a14 14 0 0 1-8-.4l-1.2-.6-.2-.1a9 9 0 0 1-3-3.3c-.3 1.3.9 2.7 1.9 3.6a8 8 0 0 1-3.3 5l-.6.4.5.5c1.9 1.7 3.7 3 4 5.6l.1.3.4.1 1.7.5q1.4.5 1.9 2.3 0 .3-.4.8l-1 1.3q-1.6 1.4-3.1 3.4-1.2 2-1.7 3.8l-.4 1.1a4 4 0 0 1-1.4-2q-.5-1.5-.2-3l.8-2.5.6-1.4c-3.5-3.5-7.5-7-9-10.4a7 7 0 0 1-.5-5.3 13 13 0 0 1 4.3-5.3q1.8-.5 3.8.6c-1.6-1.5-2.9-1.5-4.7-1.6l-2.4-.2c-2-.2-3.4-.3-6.1-1a81 81 0 0 1-9.1-3l-3-1c-.8-.4-1.7-1.1-2-1.3q-.4-.4-1-.3l-1 .2c-.9.2-1.3.6-2.1 1.2q-1.4 1-2.4 1.5c-.3.1-1.5.2-1.7 0q.1-.8.8-1.6l1.9-1.7 1-.8h-1.2s-1.2 0-2.4-.3q-1-.2-1-.8-.1-.5.4-.8t1.3-.6c1-.4 1-.5 1.6-.6l.8-.1-.4-.5-1-1.5-.6-1a1 1 0 0 1 .2-1l.9-.1 1 .2 2.5.6.8.3-.2-.8c0-.6-.2-.8 0-1.8q.2-1 1.1-1.3.8 0 1.2.4.6.4 1 1.3c.5 1.1 0 2.7.8 4a9 9 0 0 0 1.8 2.2 10 10 0 0 0 2.7 1.9l1.4.2c4 .7 3.6 1 6.4 1.4q1.5.3 3 0l1.9-.4c-2.3 0-3.6 0-5.2-.5v-.7q-.3-.7-.8-1c-.2-.1-.7 0-.6-.2s.6-.4.6-.9l-.4-.7-.6-.3c-.3 0-.6.3-.8 0l.3-.5q.2-.4-.2-1l-.5-.3h-.3l.1-.2v-.6q0-.5-.4-.7l-.5-.4h-.3l-1.4-.7q-.4-.2-.3-.4.8-.4 2.6-.6l1.5-.3.6-.3q.3-.3.2-.8t-.4-.7-.7-.3l-2-.5c-1.5-.2-3.1-.6-3.8-1.4-.9-1-.6-.9-.7-1.6q-.2-1.2.3-1.5l1.2-.6 2.1-.7c1.7-.7 2.5 0 4-1.5l2-1.9 1.8-.9 1.6-.2h.6v-.5l-.4-2.8q0-.6.2-1t.6-.5m12.1 14.7q.7 0 1.4.4l1 .5c.2 2.4 1 4.8 1.9 6.4q1.1 1.5 3.7 2.7 2.5 1.1 4.6 2.4 2 1.6 2.8 3l.1.4-.4-.3-2.5-1a192 192 0 0 0-13.2-4.7l-2.3-.4.2-1.5 1.3.1q.5.1 1.2.7l1 1.1-.2-1.5q-.4-1.4-1-2.5l1 .7 1 1.4v-1.8c-.1-2.2-1.7-4.3-2.7-6zm-22.1 18.6 4.4 1.3c1.1.3 1.2 0 2.2.3-.9.2-1.3 1-2 2.1a9 9 0 0 1-2 2.8c-.8.6-2.3 1.6-3.6 2.2a9 9 0 0 0-3 2.3l-1.9 2.7q-.7 1.5-1.9 2l-1.6-.1-4-2.3a4 4 0 0 0 1.6-3.3c0-.8-.5-1-.6-1.2l.1-.4.5-.3c.6-.4 2.6-.9 3.8-1.5q1.8-.9 3.6-2.4c1-.9 2-2.4 2.8-3.2q.6-.7 1.6-1m-29.7.5a9 9 0 0 1 3.9.5c2.5 1 4.6 4 7.1 5.6 3 2 5.6 3.1 6.2 3.3q.1 1.2-1 2.3a34 34 0 0 1-15.3-5.3 13 13 0 0 1-3.4-3.4q-.6-.8-.7-1.3l-.2-.7s.1.1.2 0l.4-.2q.6-.4 1.7-.6zm25 13.2q.9.3 2.7 1.4 1.2.7 1.9 1.4l.5.6v.4h-.9l-2.4-.7-2.8-1.5.7-1q0-.4.3-.6" id="path59"/><path d="M674 389.7a1 1 0 1 1-1.3 1.4 1 1 0 1 1 1.3-1.4m-14.6-8.8-5.2-1-1.4 1.5 2.8 2.2c.2.2.1.5-.1 2.6l-.3 2.4-2.4-1.7-2.8-2-.3-.2-1.3 1.3-3.4 3.5-2.2 2 1.3 3-2.4 4-1.7-4.4-.7.5-.5.5v2.3l-.4.1h-.4l-.3-.7-.2-.8-.3.3-.3.2v6.2l-2 2-2 2 .2-3.8c.1-2 .3-3.8.2-3.9l-.4.2q-1.6.9-2.4.6l-1-.2a8 8 0 0 1-5-2.5l-.7-.7-.2.1q-.6.3-1.5 0-1.3-.7-1.3-1.7c0-.5 0-.6.6-1.5l.2-.8c.1-.7.2-.7-.8-1l-.7-.4v1.2l-.4 4.2-.2 3 .8.8c1.2 1 3 2.9 3.4 3.4q1.2 1.8.1 2.4-.6.3-2.2 0h-.8v.6q.7 2.7-.8 3.7-1 .7-4.2-2.8l-1.2-1.4v.3l-.7 1.3c-.7 1-2 .7-2.7-.6q-1.2-2-1.3-7 0-1-.2-1.1-1.5-.8-1.5-4l.2-2.6h-.3l-.7-.6q-.4-.4-.6-1.1c-.4-1.2-.4-1.8.2-2.9l1.7-2.4c.7-.9 3.3-3.5 4.6-4.6l1.1-1v-1.2h-.3q-3.5 1-4.5 0-.6-.7-.2-1.8c.1-.4.2-.5.9-1.2.8-.8 1.2-1 2.6-1.8l5-2.3-.5-.4c-1.7-1.2-2.2-2.6-1.3-3.3q.7-.6 2.2-.8c1.3 0 3.8 0 5.4.2h.4l.1-.3q.4-.9 1.3-1.3 1.4-.4 3.6.5l.6.1v-5q.9-5 4.5-3l.4.2v-.2l.7-2.9q.5-1.1 1.2-1.8 1.9-1.7 3.8.5.6.8.5.5l3.5-4.2a7 7 0 0 1 2.7-2q1.1-.4 3 .2l.5.2.2-.3 1.1-1.2c1.2-1.1 1.6-1.4 2.1-1.4q1.5 0 1.7 2.8 0 1.1.6.3l2.4-1.8q2.8-1.6 4.1-.3.5.5.6 1 0 1-1.2 2.5l-.5.5.5.6 1.1 1.1.5.6.7-.3 1.7-.6 1-.4.1-.3q.3-2.8.8-4.3a5 5 0 0 1 1.4-2.3c.7-.6 1-.8 1.8-.8q2 0 2.6 2.4v3.5l-.1.3h.4q1 0 1.5.6.3.3.3.7.3 2.2-6 5l-1.8.8-.6.2.6.9q2.4 3.4 1.2 4.5-.6.6-1.9.2c-1-.4-3.1-2-4.6-3.4q-.8-.8-.6-.3a9 9 0 0 1 1.2 2.4q.8 2.6-1.6 2-2.1-.9-6.6-5.4l-1.6-1.5-.3.2-.4.3-1 2.2c-.3 1-1.2 2.8-1.7 3.5l-.3.3.3-.1 4.1-2.8q1.1-.5 2.1.5.4.3.6.8.1.7-.2 1.3l-.2.4.6.7a10 10 0 0 1 2.4 4.8c.1.9 0 2.4-.2 3a13 13 0 0 1-1.6 2.9l3.4.8 3.4.8v5.2zm4.2-3.5-3.2-.8-3.2-.7-.1.2-1.2 1.4-1 1.4 4.7 1 4 1zm-9 8.2.2-1.4-1.3-1-1.3-1.1-1 1-.8 1 4 2.9zM636 399.9v-2.5l-.7.3-.8.6c-.2 0-.2.3-.4 3l-.1 3s.5-.3 1-1l1-1V400zm6.7-4.7.4-.8-.5-1-.5-1.2-.7.6-.6.6.5 1.4.6 1.5.8-1zm8-12.8q5.9-6.6 7.6-10c.3-.6.5-1.4.4-1.4q-.2-.1-1 .2a95 95 0 0 0-23.5 21.6c-2.2 2.9-3.6 5.2-3.5 6q-.1.5.8 0a80 80 0 0 0 19.2-16.4m18-20.5c0-1.3-2.5-4.7-6-8.4l-1.3-1.5-.4-.4-.7.6-2 1.7 3.9 4.1q3.3 3.2 5 4.2t1.6-.3zm-48.6 47v-1c0-1.2-1-3.5-1.9-4.8-.6-.9-2.1-2.3-2.7-2.6l-.6 4.4a35 35 0 0 0 4 4.3q.6.5.9.2zm38.7-39.5c0-.7-.5-1.9-1-2.7l-1.7-2.3c-.2-.1 0-.2-2.8 1.8a139 139 0 0 0-15.6 13.5 99 99 0 0 0-13.2 16.1l2.3 2q1.5.7 2.7 1h.2l.1-.5q.3-1.9 4-6.4c4.6-5.8 12-13.3 17.8-17.8 3.6-2.8 5.5-4 6.8-4l.4-.1zM623.3 405c-.5-1-3.6-4.1-7.2-7q-.9-1-.7.5v1l.5.2a11 11 0 0 1 4 4.6l.4.8.9.2q1.7.3 2.2 0zm51.6-52.6.1-.5q0-.2-.3-.4-.9-.3-4 .4c-1.5.3-6.3 2-6.3 2.1l1.1 1.3 1.3 1.5.1.3 1.2-.5q3.8-1.5 5.6-2.9c.3-.2 1.1-1 1.2-1.3m-12.2 10.4a27 27 0 0 0-5-8.2l-.2-.1-.9.6-1.4 1-.7.5c0 .1.1.3 1.7 1.9q4.9 4.6 6.3 4.8.3 0 .2-.5m10.2-13.3q.4-3.8-1.3-4.3h-.8l-.8.6q-1.3 1.2-1.8 5v.8l.7-.2q2.1-.6 3.5-.8h.4v-.3zm-59.4 57c.4-1 .8-3.7 1-6.2v-5.7l-.5.8c-1 1.8-2.3 3.3-3 3.7q-.2 0-.2.7l.3 4.2q.6 3.1 1.6 3.5.2.1.4-.2.3-.2.4-.7zm10.8-12a96 96 0 0 1 13.5-16.5h-1l-1 .1v-1.4l-3.4 3.4a90 90 0 0 0-10.2 13.7c-.6 1-.6 1.1-.2 1.5q.7.6 1.3.5h.1zm31.8-31.9v-.5c-.3-.3-1-.6-1.3-.5l-4 2.7a126 126 0 0 0-13.8 11.1h1.4v2.2l.4-.3a154 154 0 0 1 16.3-13.5q1.1-.7 1-1.2m-37.1 32 .2-3.8-.3-.4-1-.8-.7-.6-.4.9-.8 1.8-.5 1v3.6l1.3 1.1 1.6 1.3.3.2v-.3zm19-18.7h-1.8v1.8h1l.8-.1zM623.3 390l4.6-6.2 1.1-1.4-.6.1a4 4 0 0 1-2.3 0l-.4-.1-.6.4-.9.7-.4.2-.4 3.2-.6 3.6v.3zm25-25.7 2.2-3.4q.8-1.8.6-2.6-.1-.5-.9-.5-1 0-3 1.2c-.8.7-1 .8-1 1.2q.1.6-.1 2.5l-.2 2q-.1 1 .2 1.4c.2 0 1.1-.5 1.5-.9zm-26 23.1.6-3.2-.5.1q-.9.3-1.6 0l-.7-.4c-.9-.8-1.2-2.4-.7-3.9a12 12 0 0 1 2.2-3.8l.4-.5-1.2.5-4.6 1.8-.9.3v.8c.1 2.6.8 5.8 1.5 7.4a10 10 0 0 0 4.5 4l.5.2zm21.9-19.9q.7-1 .8-2.8l.2-2.3c.3-2.5.3-3.3-.3-3.8q-.4-.5-.8-.2-1.3.8-3.5 5.6a17 17 0 0 0-1.4 5.1l-.3 2.2c0 .2.4.6 1 0zm-11.6 10.9s.6-.6.4-1c-.3-.3-2-.3-3.3-.4-.4 0-1.2 0-1.6.3q-.6.4-1.4 1.5-1.1 1.8-.7 2.5.7 1 3.7-.2c.5-.2.6-.2 1.2-.9zm29.1-29.1q1-1.4.5-1.8-1.5-1.4-5.8 2.4c-1 1-4.3 4.3-5.8 6q-.4.4 0 .9.2.3.9.3c.7 0 .7-.3 1.3-.7q6.9-4.4 9-7.1zM637.4 372c-.3-.5-1.4-1.1-2.3-1.7q-7-4.5-9.3-3.8-.7.2-.7.8t1.2 1.8a39 39 0 0 0 8.2 4.8q1.5.8 2.1.4 1.8-1.4.8-2.3m-2.4 3.3-1.3-.7-5-2.7q-1-.6-1.7-.5-2.5.3-2.4 2 0 .8.5 1.1.5.7 1.6 1 2.4.7 6.7.8l1.5-.3q.3-.3.1-.7m3.4-6.7.5-2.7a15 15 0 0 0-4.8-6.7q-1.5-1-2.2-.5-.4.1-.5.5a6 6 0 0 0-.7 2.2 17 17 0 0 0 0 4.5v.8l.4.2a53 53 0 0 1 6.8 4.1zm-26 27.4q1.6-2.4 3.6-6.7l.6-1.4-.2-.4a13 13 0 0 1-1.3-3.2l-2.9 3.9-2.8 3.8v.9a10 10 0 0 0 0 4.2q.5 1.3 1.2 1zm12.6-14.7q-.2-1.5 1.5-4 .3-.8-.2-1l-2-1.1-.2-.3-1 1q-3 3.3-3 5.5 0 1.4.8 2 1 .7 3.9-1.5l.2-.2zm24.5-25.5 4.4-4.8.8-.8v-.7q.1-2-.5-2.6-.2-.3-.6 0a37 37 0 0 0-8 11l.5.7.5-.2.8-.5c.4-.3.7-.5 2-2.1zm-8.7 5.7 1-1.7c.7-1.2-.6-2.5-1.2-3.7-.4-.8-.6-1-1.2-1.6l-1-.8q-1-.1-1.8 1.1c-.5.9-1 2.5-1 3.8l-.1.5.6.6a18 18 0 0 1 3.3 4.8l.5-1zm5-6.3 4-5.8a5 5 0 0 0-2.4-.3q-2 .6-5.3 5.2l-.8 1 .2.6c.2.3.8 1.6 1.4 1.8q.5 0 1.3-.3c.8-.4 1.2-1.5 1.6-2.2m-34 32 3-4.2v-.4l-.3-1.6-1.5 1.3q-5 4.7-5.6 6.9c0 .4.4 1.8.8 2.1q.3.3.6 0zm10.9-13.3-3.3-1.6c-.3-.2-.3-.1-1.4.2-2.1.8-4.3 1.8-5.7 2.6-1 .7-2 1.6-2.1 2q-.5 1.5 2.6 1a48 48 0 0 0 10.3-4zm3-4.1-1.2-1.4-.1-.3h-1.2c-1.5-.2-4.5-.2-5.3 0q-1.1.1-1.3.5-.2 1 3 2.8l4 2 .1-.4q.1-1.5 2-2.1c.6-.3 0-.9 0-1.1" id="path60"/><path d="m949 275.2 137 137v269.9L949 819H679L542 682V412.2l137-137zm-270 0L1086 682M542 412.2l407 407m0-544L542 682m544-269.9-407 407m187-82.9 137.1-137" stroke="#f9a400" stroke-width="15.1" fill="none" id="path61"/><path d="m672.8 611.2-.2-.8 6.5-2.6v.8zm-6.6 11.8a36 36 0 0 0-3-5 12 12 0 0 0-4.6-3.6q1.5-1.6.5-4.2a3 3 0 0 0-1.2-1.5 2 2 0 0 0-1.9-.1q-1 .3-1 1.4c0 1.1-.1 1-.2 1l-.2-.1q-.6-1.1.2-2.3.7-1.2 1.9-1.6 2.1-1 3.9.1l2.6 2.2q1.3 1.3 2.3 1-1.5.8-2.2 2.9a6 6 0 0 0 0 3.7l7.2-3q1.5-.5.6-2.9a9 9 0 0 0-2.5-3.2q-1.8-1.6-3.6-1.2l8.4-3.5q1.8-.7 2.3-1.4.9-1 .2-2.6l.6-.3 1.2 3q1 2.4 2 3.4l2 1.4q1.3.9 2.2 1.9l.4.7q.2.5-.3 1.4l-.8 1.8q-.4 1.5.3 3.5l-.6.2a6 6 0 0 0-6.5-3.3q4.5-2.8 3-6.9l-6.3 2.6q-1.8.8-1 2.7a9 9 0 0 0 2.4 3 6 6 0 0 0 3.2 1.8l-7.8 3.2q-1.5.7-2.3 1.3-1.1 1-.8 2.3zm-2.5-8.1.1-.7v-.1l6.7-2.8.1.4v.2l.1.1zm18.9 56.9-.6.2a4 4 0 0 0-2.5-2.3 6 6 0 0 0-3.6-.1q1.8-1 2.3-2.9.5-1.7-.3-3.8l-.3-.5-4.2 1.7q-1.5.6-2.1 1.4-.6 1-.1 2.5l-.7.3a6 6 0 0 0-2.4-2.3 5 5 0 0 0-3.2-.7q1.5-2 .6-3.8-.3-1-1.1-1.4-.7-.3-1.6 0-.8.3-.9 1.1v.5q-.3 0-.4-.3-.3-.7.3-1.6a3 3 0 0 1 1.4-1q3-1.2 5.1 2.3l7.6-3q-.6-1-1.1-1-.4-.1-1.5.4l-.4-1 5.5-2.2.4.9-.8.3q-.8.3-.4 1.3l.2.4 1.5-.6q1.4-.6 1.9-1.3t.3-2q1.2 1.6 2.4 2.1 1 .6 3.2.4-1.2 1.1-1.9 2.8-.6 2-.1 3.3-1.6-2-4-1l-2.6 1.1.2.6q.6 1.6 1.8 2 .9.1 2.7-.5l.7-.4.8-.3a6 6 0 0 0 3.5-3.2q.9-2.2 0-4.7a7 7 0 0 0-2.7-3.4 4 4 0 0 0-4-.5q-.7.3-1.5 1l-.8.8h-.1q-.2-.7.6-1.6a4 4 0 0 1 1.5-1.1q2.4-1 5 .8a11 11 0 0 1 3.9 10.2l-.3 2.7q0 1.6 1 3.8v.2l-.6.2q-.8-1.5-2.3-1.4a12 12 0 0 0-5 2.2q-.7.9-.3 2.4m-4.4 50.4-.3-.7q-.7-1.9-1.8-2.8-.5-.5-2-1.2c-1.5-.7-1.7-1-2.2-1.5v3.5q.4.9 2.4 2.1l-.3.6a8 8 0 0 0-6-1.5 5 5 0 0 1-.2-3.7l1.4-2.2q.8-1.2.3-2-.5-1.4-2.8-1.4l-.2-.8q3.2 0 4.1 2.1a12 12 0 0 1 2.7-6.2 12 12 0 0 1 5.1-4.4q3.4-1.5 8.1-.4 4.2 1 7.6 3.2l.2.4v.2h-.4a9 9 0 0 0-7.6-.5l-11 4.5q-4.6 2-3.4 5 .9 2.1 5.1.3l11.8-4.8q2.6-1.2 2-2.5-.5-1.2-2.9-2.2l.3-.5a20 20 0 0 0 9.2 3.2q-1.3 1-1.6 3.1a9 9 0 0 0 .3 3.7l-.7.3q-1.1-2.1-5-.5l-10 4q-2.2 1-1.6 3.3zm-5.8-8-.2-.8 16.8-7 .8.7zm16.6 43.7v-.7l6.4-2.7v.8zm-6.5 11.9a36 36 0 0 0-3-5.1 12 12 0 0 0-4.6-3.5q1.5-1.6.5-4.3a3 3 0 0 0-1.2-1.5 2 2 0 0 0-1.9-.1q-1 .4-1 1.4c0 1-.1 1-.2 1.1q-.2 0-.3-.2-.5-1 .3-2.3.6-1.1 1.9-1.6 2.1-.9 3.9.1.7.4 2.5 2.2 1.4 1.3 2.4 1-1.5.8-2.2 3a6 6 0 0 0 0 3.7l7.1-3q1.5-.6.7-3a9 9 0 0 0-2.5-3.1q-1.8-1.6-3.6-1.3l8.4-3.4q1.7-.7 2.3-1.5.8-1 .2-2.6l.6-.2 1.2 2.9q1 2.4 2 3.4l2 1.4q1.4.9 2.1 2l.5.7q.2.5-.3 1.3l-.8 1.8q-.5 1.5.3 3.5l-.6.3a6 6 0 0 0-6.5-3.3q4.5-2.9 3-7l-6.3 2.6q-1.8.7-1 2.8.7 1.5 2.4 3c1.7 1.5 2.3 1.7 3.2 1.8l-7.8 3.2q-1.5.6-2.3 1.2-1.2 1-.8 2.3zm-2.5-8.2.1-.7 6.7-2.8.1.3v.2l.1.1z" id="path62"/><g stroke-linejoin="round" stroke="#000" stroke-width=".4" fill="none" id="g66"><path d="M673.4 636.3a2.4 2.4 0 1 1-4.7-1.2 2.4 2.4 0 1 1 4.7 1.2zm4.8 2a2.4 2.4 0 1 1-4.7-1.1 2.4 2.4 0 1 1 4.7 1.2z" id="path63"/><path d="M674 641.5a2.4 2.4 0 1 1-4.7-1.2 2.4 2.4 0 1 1 4.7 1.2zm5 42.7a2.4 2.4 0 1 1-4.7-1.2 2.4 2.4 0 1 1 4.8 1.2zm4.9 2.1a2.4 2.4 0 1 1-4.7-1.2 2.4 2.4 0 1 1 4.7 1.2z" id="path64"/><path d="M679.7 689.4a2.4 2.4 0 1 1-4.8-1.2 2.4 2.4 0 1 1 4.8 1.2zm3.9 45a2.4 2.4 0 1 1-4.7-1.1 2.4 2.4 0 1 1 4.7 1.2zm4.8 2.2a2.4 2.4 0 1 1-4.7-1.2 2.4 2.4 0 1 1 4.7 1.2z" id="path65"/><path d="M684.2 739.7a2.4 2.4 0 1 1-4.7-1.2 2.4 2.4 0 1 1 4.7 1.2z" id="path66"/></g><path d="m688.8 559 25 225.3m-46.3 23.3-25.1-225.9m279-279v214.8m66.7-7.4V314.3" stroke="#f9a400" stroke-width="6.1" fill="none" id="path67"/><use xlink:href="#a" y="50.6" id="use67"/><use xlink:href="#a" y="101.4" id="use68"/></g></g><g id="g70"><path style="font-size:192px;font-family:&quot;Tw Cen MT Condensed Extra Bold&quot;;-inkscape-font-specification:&quot;Tw Cen MT Condensed Extra Bold, &quot;;letter-spacing:5px;word-spacing:60px;fill:#fdd212;stroke:#fca900;stroke-width:9" d="M443.7 867.2q-23.9 0-36.4 16.7-12.3 16.5-12.3 48.7 0 31.9 12.4 49.1a41 41 0 0 0 35.4 17.2q20.4 0 32.1-13.9 12-13.9 11.9-38.3v-21h-42.9V950h13.2q-.4 20.3-14.7 20.3-9 0-13-8.8-4-9-4-27.8 0-20.2 3.5-29.2c3.5-9 6.5-9.1 12.3-9.1q5 0 8 2.8 2.9 2.7 6.2 8.7l27.1-11.1q-12-28.5-38.8-28.6zm170.7 0a39 39 0 0 0-33.4 17q-11.9 16.9-11.9 47.1 0 32.8 12 50.3a39 39 0 0 0 34.5 17.3q22 0 33.8-17.3 12-17.5 11.9-49c-.1-31.5-4-37.1-12.1-48.5a40 40 0 0 0-34.8-17zm775 0a39 39 0 0 0-33.5 17q-11.9 16.9-11.9 47.1 0 32.8 12 50.3a39 39 0 0 0 34.5 17.3q22 0 33.8-17.3 12-17.5 11.9-49c-.1-31.5-4-37.1-12.1-48.5a40 40 0 0 0-34.8-17zm-1176.6 3.4v125.2h28.4v-57h.4l23 57h30l-22.7-56.4a30 30 0 0 0 12.9-12.8 38 38 0 0 0 4.4-17.6q0-17.7-11.7-28c-11.7-10.3-18.3-10.4-31.7-10.4zm102.8 0v125.2h57.7v-26.7H344v-22.8h25.3v-26H344v-23h29.1v-26.7zm198 0v125.2h28.5V870.6h-28.4zm173.8 0v125.2h28.4v-55.5l-.8-15.6 35.4 71.1h29.1V870.6h-28.4v58.7l1 13.5-36-72.2zm124 0v125.2h57.7v-26.7h-29.3v-22.8h25.3v-26h-25.3v-23H869v-26.7h-57.5zm197.2 0v125.2h50.9v-29H1037v-96.2zm97.6 0L1073 995.8h29l5-20.9h30l4.7 20.9h29.6L1138 870.6h-32zm78.9 0v26.9h37l-43.2 98.3h83.1v-26.7h-39.7l43.6-98.5zm103.5 0v125.2h28.4V870.6zM241.2 894.8q10 .4 14.4 4 4.5 3.9 4.4 12.5 0 12.9-18.8 13.3zm373.4.8q16.3 0 16.3 36.6 0 22.8-4.3 30.5-4.2 7.8-12.2 7.8-7.5 0-11.3-7.8t-3.9-31q0-36 15.4-36.1zm774.9 0q16.3 0 16.3 36.6 0 22.8-4.3 30.5-4.2 7.8-12.2 7.8-7.5 0-11.3-7.8t-3.9-31q0-36 15.4-36.1zm-268 3.6h.4a549 549 0 0 0 9.6 53.2h-19.4a628 628 0 0 0 9.5-53.2z" id="path69"/></g><!-- app4joy -->
</svg>