<svg id="svg2" x="0px" y="0px" width="900" height="600" viewBox="0 0 900 600" xml:space="preserve" xmlns="http://www.w3.org/2000/svg"><g id="g1" fill-rule="evenodd" clip-rule="evenodd"><path id="rect8128" fill="#FF0000" d="M0 0h900v600H0z"/><path id="rect8130" fill="#009C31" d="M0 0h300v600H0z"/><path id="rect8132" fill="#009CCE" d="M600 0h300v600H600z"/></g><g id="g6" fill-rule="evenodd" clip-rule="evenodd"><path fill="#FFFFFF" d="M311.3 329.9V177q0-4.2.5-7.8.5-3.9 2-7.3 1.3-3.3 3.6-6.5 2.4-3 5.7-6c3.5-2.9 9.9-5.7 18.3-8.3q13-4 31.1-7.1a463 463 0 0 1 116.6-4.8c13.5 1 26.6 2.7 38.4 4.8q18.2 3 31.1 7a57 57 0 0 1 18.3 8.4q3.4 3 5.7 6a29 29 0 0 1 5.6 13.8q.5 3.6.5 7.8v155.6H311.3z" id="path1"/><path fill="#FF0000" id="rect1" d="M443.3 128.3h13.4v203.5h-13.4z"/><path fill="#FF0000" id="rect2" d="M311.5 230.1h276.2v13.3H311.5z"/><path fill="#969696" d="m314.7 338.1 67.2 3.6 2.6.1v4.5a80 80 0 0 0 24.2 57.4 83 83 0 0 0 56.7 23.7h1.7a84 84 0 0 0 56-21.4 81 81 0 0 0 26.3-52.3l.2-2.4h39l-.4 3a137 137 0 0 1-45.7 83.7 139.2 139.2 0 0 1-230.6-97l-.1-3z" id="path2"/><path d="M314 177v153h272V177a38 38 0 0 0-2.3-14q-2.3-6.3-8.5-11.5c-6.5-5.5-24.7-10.9-48.2-15a464 464 0 0 0-154 0c-23.5 4.1-41.7 9.5-48.2 15q-6.2 5.3-8.5 11.4A38 38 0 0 0 314 177m-4 0q-.1-8.5 2.5-15.5 2.8-7.1 9.8-13c7-6 25.9-11.7 50-15.8a468 468 0 0 1 155.4 0c24.2 4.1 43 9.8 50 15.7q7 6 9.8 13 2.6 7.1 2.5 15.6v157H310z" id="path3"/><path fill="#969696" id="polygon3" d="m523.4 263.8-6 12.8-14.1-1.2 8 11.6-8 11.7 14.1-1.2 6.1 12.7 6-12.7 14.1 1.1-8.1-11.6 8.1-11.6-14.1 1.2z"/><path fill="#969696" id="polygon4" d="m376.8 263.8-6 12.8-14.2-1.2 8.1 11.6-8.1 11.7 14.2-1.2 6.1 12.7 5.9-12.7 14.2 1.1-8.1-11.6 8.1-11.6-14.2 1.2z"/><path fill="#969696" id="polygon5" d="m523.4 157.1-6 12.8-14.1-1.2 8 11.6-8 11.7 14.1-1.2 6.1 12.7 6-12.7 14.1 1.1-8.1-11.6 8.1-11.6-14.1 1.2z"/><path fill="#969696" id="polygon6" d="m376.8 157.1-6 12.8-14.2-1.2 8.1 11.6-8.1 11.7 14.2-1.2 6.1 12.7 5.9-12.7 14.2 1.1-8.1-11.6 8.1-11.6-14.2 1.2z"/><path id="rect6" d="M447.7 332.3h4.6v94.3h-4.6z"/><path d="m381.8 344.4-67.2-3.6a136.3 136.3 0 0 0 136.1 129A136.4 136.4 0 0 0 585.5 354h-33.4a83 83 0 0 1-27.2 54 86 86 0 0 1-57.9 22 86 86 0 0 1-60.3-24.5 83 83 0 0 1-25-59.3zm4.1-3v1l-.1 4c0 22 9 42 23.8 56.4a82 82 0 0 0 112.6 2.3 79 79 0 0 0 26-52.2v-2.5h41.7v1.7a140.4 140.4 0 0 1-236.3 82.8 139 139 0 0 1-43-94.2l-.2-3.6z" id="path6"/></g></svg>