<svg id="svg2" width="750" height="500" viewBox="0 0 750 500" xmlns="http://www.w3.org/2000/svg"><g id="g1"><path style="fill:#ffffff;fill-opacity:1;fill-rule:nonzero;stroke:none;stroke-width:3.75;stroke-linecap:round;stroke-linejoin:miter;stroke-miterlimit:4;stroke-dasharray:none;stroke-dashoffset:0;stroke-opacity:1" id="rect2254-4" d="M0 0h750v500H0z"/></g><g id="g2180" transform="translate(251.3 100)scale(1.00167)"><g id="g14361"><path id="path14363" d="M2.5 0v178a121.5 121.5 0 0 0 243 0V0z" style="opacity:1;fill:#ffffff;fill-opacity:1;fill-rule:evenodd;stroke:none;stroke-width:1;stroke-linecap:round;stroke-linejoin:miter;stroke-miterlimit:4;stroke-dasharray:none;stroke-opacity:1"/><path id="path14365" d="M185.7 54.7a25 25 0 0 0-18.3 7.4l-58.6 59 35.4 35.4 16-16v60.2a25 25 0 1 0 50 0v-121a25 25 0 0 0-24.5-25" style="fill:#000000;fill-opacity:1;fill-rule:evenodd;stroke:none;stroke-width:50;stroke-linecap:round;stroke-linejoin:round;stroke-miterlimit:4;stroke-opacity:1"/><path id="path14367" d="M39 84v116.5a26.5 26.5 0 0 0 26.3 26.4 26.5 26.5 0 0 0 26.5-26.4v-9.3a57 57 0 0 0 73.5-7.4l-73.6-73.6V82.3l-10 9.7v13a57 57 0 0 0 0 77.5v18c0 9.2-7.2 16.4-16.4 16.4S49 209.7 49 200.5V92zm45.7 33.3 66 65.9a48 48 0 0 1-5.9 3.3l-33.3-33.3-7 7.1 29.8 29.9-5.4.8-27.6-27.6-7 7.1 19.5 19.6a47.5 47.5 0 0 1-29-72.8m1.3 69.3 1.3 1.2z" style="opacity:1;fill:#000000;fill-opacity:1;fill-rule:evenodd;stroke:none;stroke-width:9.92943;stroke-linecap:round;stroke-linejoin:round;stroke-miterlimit:4;stroke-dasharray:none;stroke-opacity:1"/><circle transform="translate(4.1 7.3)scale(.97095)" id="path14369" style="opacity:1;fill:none;fill-opacity:1;fill-rule:evenodd;stroke:#000000;stroke-width:10.2991;stroke-linecap:round;stroke-linejoin:round;stroke-miterlimit:4;stroke-dasharray:none;stroke-opacity:1" cx="62.927773" cy="74.470734" r="24.20299"/><path id="path14371" d="m41.7 76.7-26.8 23.5h39.5" style="fill:none;fill-rule:evenodd;stroke:#000000;stroke-width:10;stroke-linecap:butt;stroke-linejoin:miter;stroke-miterlimit:4;stroke-dasharray:none;stroke-opacity:1"/></g><g id="g14354"><path style="opacity:1;fill:#036f3a;fill-opacity:1;fill-rule:evenodd;stroke:none;stroke-width:1;stroke-linecap:round;stroke-linejoin:miter;stroke-miterlimit:4;stroke-dasharray:none;stroke-opacity:1" d="M2.5 0v92.8L26 72.2V26.5h196V173c0 55.2-42.8 100-98 100s-98-44.8-98-100v-59H2.5v64a121.5 121.5 0 0 0 243 0V0z" id="rect1873"/><path style="fill:#000000;fill-opacity:1;fill-rule:evenodd;stroke:none;stroke-width:50;stroke-linecap:round;stroke-linejoin:round;stroke-miterlimit:4;stroke-opacity:1" d="M185.7 54.7a25 25 0 0 0-18.3 7.4l-58.6 59 35.4 35.4 16-16v60.2a25 25 0 1 0 50 0v-121a25 25 0 0 0-24.5-25" id="path2770"/><path style="opacity:1;fill:#000000;fill-opacity:1;fill-rule:evenodd;stroke:none;stroke-width:9.92943;stroke-linecap:round;stroke-linejoin:round;stroke-miterlimit:4;stroke-dasharray:none;stroke-opacity:1" d="M39 84v116.5a26.5 26.5 0 0 0 26.3 26.4 26.5 26.5 0 0 0 26.5-26.4v-9.3a57 57 0 0 0 73.5-7.4l-73.6-73.6V82.3l-10 9.7v13a57 57 0 0 0 0 77.5v18c0 9.2-7.2 16.4-16.4 16.4S49 209.7 49 200.5V92zm45.7 33.3 66 65.9a48 48 0 0 1-5.9 3.3l-33.3-33.3-7 7.1 29.8 29.9-5.4.8-27.6-27.6-7 7.1 19.5 19.6a47.5 47.5 0 0 1-29-72.8m1.3 69.3 1.3 1.2z" id="path3644"/><circle style="opacity:1;fill:none;fill-opacity:1;fill-rule:evenodd;stroke:#000000;stroke-width:10.2991;stroke-linecap:round;stroke-linejoin:round;stroke-miterlimit:4;stroke-dasharray:none;stroke-opacity:1" id="path9028" transform="translate(4.1 7.3)scale(.97095)" cx="62.927773" cy="74.470734" r="24.20299"/><path style="fill:none;fill-rule:evenodd;stroke:#000000;stroke-width:10;stroke-linecap:butt;stroke-linejoin:miter;stroke-miterlimit:4;stroke-dasharray:none;stroke-opacity:1" d="m41.7 76.7-26.8 23.5h39.5" id="path9915"/></g></g></svg>