<svg id="svg2" width="750" height="500" viewBox="0 0 750 500" xmlns="http://www.w3.org/2000/svg"><g id="g1"><path style="fill:#0085ce;fill-opacity:1;fill-rule:evenodd;stroke:none" id="rect3837" d="M0 0h750v500H0z"/></g><g transform="matrix(.88563 0 0 .884 629.9 83)" style="font-size:37px;font-style:normal;font-variant:normal;font-weight:400;font-stretch:normal;text-indent:0;text-align:start;text-decoration:none;line-height:125%;letter-spacing:0;word-spacing:0;text-transform:none;direction:ltr;block-progression:tb;writing-mode:lr-tb;text-anchor:start;baseline-shift:baseline;color:#000;fill:#fff;fill-opacity:1;fill-rule:nonzero;stroke:#fbffff;stroke-width:2.26036549;stroke-miterlimit:4;stroke-opacity:1;stroke-dasharray:none;marker:none;visibility:visible;display:inline;overflow:visible;font-family:Arial;-inkscape-font-specification:Arial" id="t2"><path d="m-443 241.2 23.8-11.4 5 10.6q1.7 3.3 1.7 5.2.2 2-1 3.7a7 7 0 0 1-3.1 2.7q-2.6 1.3-5 .4a9 9 0 0 1-4.7-4l-.3 2.5a14 14 0 0 1-2 4.1l-4.5 7.3-1.9-4 3.5-5.6q1.6-2.3 2.2-3.8a8 8 0 0 0 .9-2.4v-1.7l-.8-1.8-1.8-3.7-10.6 5zm14.8-3.2 3.2 6.8q1 2.1 2 3.2a4 4 0 0 0 2.4 1.2q1.3.1 2.5-.4a4 4 0 0 0 2.2-2.6q.4-1.7-.8-4.4l-3.6-7.6z" style="font-size:37px;font-style:normal;font-variant:normal;font-weight:400;font-stretch:normal;fill:#fff;stroke:#fbffff;stroke-width:2.26036549;stroke-miterlimit:4;stroke-opacity:1;stroke-dasharray:none;marker:none;font-family:Harlow Solid Italic;-inkscape-font-specification:Harlow Solid Italic" id="path3890"/><path d="m-427 270.9 22-14.9 10.6 15.9-2.5 1.7-8.8-13-6.7 4.6 8.2 12.2-2.6 1.7-8.2-12.1-7.5 5 9.1 13.5-2.6 1.7z" style="font-size:37px;font-style:normal;font-variant:normal;font-weight:400;font-stretch:normal;fill:#fff;stroke:#fbffff;stroke-width:2.26036549;stroke-miterlimit:4;stroke-opacity:1;stroke-dasharray:none;marker:none;font-family:Harlow Solid Italic;-inkscape-font-specification:Harlow Solid Italic" id="path3892"/><path d="m-392.3 297 2.3-2 7.3 8.6-7.4 6.4q-3.3-.6-5.8-2a16 16 0 0 1-7.8-10.2 11 11 0 0 1 .5-6.8 16 16 0 0 1 10.8-9.3q3.7-1 6.9.4 3.2 1.2 5.7 4.2a13 13 0 0 1 2.7 4.6q.8 2.4.4 4.4t-2 4.4l-2.7-1.9a10 10 0 0 0 1.5-3.2q.2-1.5-.3-3a11 11 0 0 0-5.1-6 8 8 0 0 0-3.3-.9q-1.5 0-3 .4-2.5.9-4.8 2.7a13 13 0 0 0-3.7 4.8 8 8 0 0 0-.4 5 11 11 0 0 0 2.4 4.5q1.5 1.8 3.5 2.8 2.1 1.1 3.6 1.3l3.7-3.2z" style="font-size:37px;font-style:normal;font-variant:normal;font-weight:400;font-stretch:normal;fill:#fff;stroke:#fbffff;stroke-width:2.26036549;stroke-miterlimit:4;stroke-opacity:1;stroke-dasharray:none;marker:none;font-family:Harlow Solid Italic;-inkscape-font-specification:Harlow Solid Italic" id="path3894"/><path d="m-384.2 321 18.6-18.8 2.5 2.4-18.6 18.9z" style="font-size:37px;font-style:normal;font-variant:normal;font-weight:400;font-stretch:normal;fill:#fff;stroke:#fbffff;stroke-width:2.26036549;stroke-miterlimit:4;stroke-opacity:1;stroke-dasharray:none;marker:none;font-family:Harlow Solid Italic;-inkscape-font-specification:Harlow Solid Italic" id="path3896"/><path d="M-362.2 319.1q4-5 9.2-5.8a12 12 0 0 1 9.5 2.9 12 12 0 0 1 4 5.5q1.2 3.2.5 6.6-.8 3.4-3.3 6.5a16 16 0 0 1-5.8 4.6q-3.3 1.4-6.6.8a13 13 0 0 1-10.1-8.3 11 11 0 0 1-.4-6.7 15 15 0 0 1 3-6zm2.8 2.3q-3 3.7-2.8 7.5a9 9 0 0 0 3.3 6.2q3 2.5 6.8 2t7-4.6q2-2.5 2.7-5a8 8 0 0 0-3-9 9 9 0 0 0-6.6-2q-3.7.3-7.4 5z" style="font-size:37px;font-style:normal;font-variant:normal;font-weight:400;font-stretch:normal;fill:#fff;stroke:#fbffff;stroke-width:2.26036549;stroke-miterlimit:4;stroke-opacity:1;stroke-dasharray:none;marker:none;font-family:Harlow Solid Italic;-inkscape-font-specification:Harlow Solid Italic" id="path3898"/><path d="m-337.1 351.4 4.5-26.1 3.5.6 10.2 22.8 3.5-20.5 3.3.6-4.4 26.1-3.6-.6-10.2-22.9-3.5 20.5z" style="font-size:37px;font-style:normal;font-variant:normal;font-weight:400;font-stretch:normal;fill:#fff;stroke:#fbffff;stroke-width:2.26036549;stroke-miterlimit:4;stroke-opacity:1;stroke-dasharray:none;marker:none;font-family:Harlow Solid Italic;-inkscape-font-specification:Harlow Solid Italic" id="path3900"/><path d="m-303 357.4.1-26.5h19.2v3.2h-15.7v8h14.6v3.2h-14.6v9h16.2v3.1z" style="font-size:37px;font-style:normal;font-variant:normal;font-weight:400;font-stretch:normal;fill:#fff;stroke:#fbffff;stroke-width:2.26036549;stroke-miterlimit:4;stroke-opacity:1;stroke-dasharray:none;marker:none;font-family:Harlow Solid Italic;-inkscape-font-specification:Harlow Solid Italic" id="path3902"/><path d="m-251.3 352.8-11.2-24 4.7-2.3L-244 341l2.8 3-.6-4.4-2-19.4 4.3-2 11.2 24-3 1.4-9.5-20 2.4 23.3-2.8 1.3-16.5-17.2 9.5 20.4z" style="font-size:37px;font-style:normal;font-variant:normal;font-weight:400;font-stretch:normal;fill:#fff;stroke:#fbffff;stroke-width:2.26036549;stroke-miterlimit:4;stroke-opacity:1;stroke-dasharray:none;marker:none;font-family:Harlow Solid Italic;-inkscape-font-specification:Harlow Solid Italic" id="path3904"/><path d="M-224.7 324.3q-3-6-1.7-10.8 1.4-5 6.4-7.6 3.2-1.7 6.6-1.5t6.3 2.2a17 17 0 0 1 6.6 12.7 11 11 0 0 1-1.9 6.4 13 13 0 0 1-11.6 6 13 13 0 0 1-6.3-2.3 15 15 0 0 1-4.4-5.1zm3.2-1.7q2.2 4.3 5.8 5.5t7-.6c3.4-1.8 3.8-3 4.5-5.5q.9-3.6-1.5-8.2-1.5-2.9-3.6-4.4a8 8 0 0 0-9.3-.8 9 9 0 0 0-4.5 5.2q-1.2 3.6 1.6 8.8z" style="font-size:37px;font-style:normal;font-variant:normal;font-weight:400;font-stretch:normal;fill:#fff;stroke:#fbffff;stroke-width:2.26036549;stroke-miterlimit:4;stroke-opacity:1;stroke-dasharray:none;marker:none;font-family:Harlow Solid Italic;-inkscape-font-specification:Harlow Solid Italic" id="path3906"/><path d="m-187.9 313.2-19.8-17.6 2.4-2.6 17.4 15.5 8.7-9.7 2.3 2z" style="font-size:37px;font-style:normal;font-variant:normal;font-weight:400;font-stretch:normal;fill:#fff;stroke:#fbffff;stroke-width:2.26036549;stroke-miterlimit:4;stroke-opacity:1;stroke-dasharray:none;marker:none;font-family:Harlow Solid Italic;-inkscape-font-specification:Harlow Solid Italic" id="path3908"/><path d="M-168.4 292.3-190 277l2-2.9 21.7 15.3z" style="font-size:37px;font-style:normal;font-variant:normal;font-weight:400;font-stretch:normal;fill:#fff;stroke:#fbffff;stroke-width:2.26036549;stroke-miterlimit:4;stroke-opacity:1;stroke-dasharray:none;marker:none;font-family:Harlow Solid Italic;-inkscape-font-specification:Harlow Solid Italic" id="path3910"/><path d="m-164.8 276.3 1.4-3a8 8 0 0 0 3.3.5q1.5 0 3.1-1.3 1.6-1.2 2.7-3.2 1-1.8 1.1-3.4t-.3-2.8q-.7-1.1-1.6-1.7-1.2-.6-2.3-.4-1.2 0-2.5 1.3l-3.4 3.5a24 24 0 0 1-3.9 3.7 7 7 0 0 1-3.5 1.3 6 6 0 0 1-3.4-.7 8 8 0 0 1-2.7-2.8 7 7 0 0 1-.7-4.2q.2-2.4 1.5-4.7 1.4-2.6 3.3-4.1a8 8 0 0 1 8.4-.9l-1.4 3.1q-2.3-1-4.2-.2a7 7 0 0 0-3.3 3.4q-1.5 2.8-1.2 4.7.3 1.8 1.8 2.6a3 3 0 0 0 2.5.2 14 14 0 0 0 4.2-3.7 35 35 0 0 1 4.3-4.4 8 8 0 0 1 4-1.7q2-.2 3.8.9 1.9.9 3 3a8 8 0 0 1 .8 4.4 15 15 0 0 1-5.3 9.8q-2.2 1.5-4.6 1.8a9 9 0 0 1-4.9-1z" style="font-size:37px;font-style:normal;font-variant:normal;font-weight:400;font-stretch:normal;fill:#fff;stroke:#fbffff;stroke-width:2.26036549;stroke-miterlimit:4;stroke-opacity:1;stroke-dasharray:none;marker:none;font-family:Harlow Solid Italic;-inkscape-font-specification:Harlow Solid Italic" id="path3912"/><path d="m-141 253.2-24-11.2 8.2-17.4 2.8 1.4-6.6 14.1 7.3 3.5 6.2-13.3 2.9 1.3-6.3 13.3 8.2 3.8 7-14.7 2.7 1.3z" style="font-size:37px;font-style:normal;font-variant:normal;font-weight:400;font-stretch:normal;fill:#fff;stroke:#fbffff;stroke-width:2.26036549;stroke-miterlimit:4;stroke-opacity:1;stroke-dasharray:none;marker:none;font-family:Harlow Solid Italic;-inkscape-font-specification:Harlow Solid Italic" id="path3914"/></g><g id="g3" transform="translate(256.7 100)"><path id="path3049-9" d="M6 7v32.9c0 58.6 13.2 176.6 112.5 207.6 99.3-31 112.5-149 112.5-207.6V7" style="fill:#d71919;fill-opacity:1;stroke:#bebebe;stroke-width:12;stroke-linecap:butt;stroke-linejoin:miter;stroke-miterlimit:4;stroke-opacity:1;stroke-dasharray:none"/><path transform="matrix(.81472 0 0 .81356 150.3 54.6)" d="m-94.8 21.4-17.5-5.8-8.1 16.4-8.2-16.4-17.5 5.8 5.9-17.4-16.5-8.2 16.5-8.2-5.9-17.4 17.5 5.8 8.2-16.4 8.1 16.4 17.5-5.8-5.9 17.4 16.5 8.2-16.5 8.2z" id="path2784-4" style="fill:#bebebe;fill-opacity:1;fill-rule:evenodd;stroke:none"/><path id="path2781-8" d="m203.5 11.2-166.6 159c7 16 15.6 30.3 26.7 41.2L228.8 53.7l-.7-41.8z" style="fill:#bebebe;fill-opacity:1;fill-rule:evenodd;stroke:none"/><path id="rect2986" style="fill:#bebebe;fill-opacity:1;fill-rule:evenodd;stroke:none" d="M0 .5h237v12H0z"/></g></svg>