<svg viewBox="0 0 800 520" xml:space="preserve" id="svg12" width="800" height="520" xmlns="http://www.w3.org/2000/svg"><g id="g13"><path fill="#fff100" d="M0 0h800v519.9H0Z" id="path1" style="display:inline"/><path fill-rule="evenodd" clip-rule="evenodd" fill="#ec1b23" d="M800 520 0 0h800z" id="path2" style="display:inline"/></g><g fill-rule="evenodd" clip-rule="evenodd" id="g12"><path d="M560.7 183q-.2 0-.2.2 0 .8-.7 1.3-.9 1.3-2.2 2.3-1.5 1.2-3.3 2.3l-6.9 4.2q-1.6 1-3 2.5l-2.3 2.5-8 8a85 85 0 0 0-6.6 7.3l-1.5 2q-.5 1-.5 2-.1 4 .6 8.1a79 79 0 0 0 3 11.2l5.2 15a205 205 0 0 1 5.4 18.5q2.2 9 4 18l3 13.5q.5 2.3 1.3 4.6.4 1.3 1.1 2.4l2.9 4.8a53 53 0 0 1 4 9.4q1 3.6-.1 7-.8 2.4-2.1 4.7a23 23 0 0 1-6.1 6.4 18 18 0 0 1-3.5 1.8q-2 .7-4 .8-3 0-5.8-.7-4.2-1-8.2-2.2-2.1-.8-4.2-1.2l-4-.7-6.5-1-5.8-.7-5.4-.8-8.2-1.4q-13-2.2-25.6-6-9-2.5-16.8-7-10-5.5-19.1-12l-9.9-7-.8-.6q-.4-.4-1 0l-2.6 1.6q-.3.2-.2.7t.3.7q.9 2.2 1 4.6 0 1-.4 2l-.4 1.4a4 4 0 0 0 0 2 11 11 0 0 0 1.7 4.1q1.2 1.8 2.8 3.3l2.3 2 .4.6-.1.2h-.3l-2.1-.2H420q-.3 0-.2.3l.1.5q.7 1.2 1.7 2.4a8 8 0 0 0 4.3 2.7 75 75 0 0 1 15.4 5.5l1.5.8q.2.2 0 .4l-1 .4q-1.7.5-3.7.5h-4.9q-1.7 0-3.4.3-1.3 0-2.4.6l-.4.3q-.2.1-.1.4l.3.4q3.7 4 9 5.4a69 69 0 0 0 14.4 1.4l3.1.3 3.8.5A35 35 0 0 1 471 354l6 4.4v.1l-.1.2h-1l-3.5-.2h-.6s-.2.3-.1.4l.2.3.8.6 2.7 1.4 6.4 3a35 35 0 0 1 5.2 3v.4l-.6.2-2 .8a3 3 0 0 0-1.3.9 1 1 0 0 0-.2 1.1q.4.8 1.2 1.2l1.5.6 3.3 1.1 2.6 1.1.1.1-.1.2h-1.2l-5.3.3-.5.1v.2l.1.2.7.4q3.2 1.4 6.6 2.4l5 1.5q.8.1 1.1.4v.3l-.5.2q-3.2.4-6.5.1l-3.6-.3-1.1-.2h-.2v.3q0 .3.3.5l2.7 2.8.7.8q.2.1.3.5h-.6q-.6 0-1.1-.2-5-1.2-9.4-3.4l-1.2-.5-.4-.2-.3.3q.2.8.7 1.5l2.5 3.6.5.7-.1.3h-.8a48 48 0 0 1-11-4l-3.1-1.8-.6-.3-.4.2v.5q0 1 .6 1.8l1.6 2.6v.2h-.4l-1.6-.6a66 66 0 0 1-8.4-5l-.9-.6h-.6l-.1.4v1l.4 2.3v1.4l-.1.4-.4-.2h-.1a22 22 0 0 0-4-3.4l-5-3.4-3-2-3.6-3q-1.7-1.6-3-3.4a12 12 0 0 1-1.7-4l-.1-.5q-.2-.7-.8-1.1l-.6-.4-1.2-1.1a9 9 0 0 1-2.9-4.5l-.4-1.4q-1.1-2.6-3.5-3.9l-.2-.1q-.4 0-.5.2v.2l-.1.4q-.2 4.5-1 8.9l-.6 3.1-.2.7-.1.1q-.3 0-.3-.2l-.4-.9-.7-2a49 49 0 0 0-6.4-12.5q-2.2-3-4.5-5.8l-2.2-2.9-1.3-1.6-1-.7h-1l-.6.5-1.3 1.4-1 1.1-.7.7a.7.7 0 0 1-1.1-.6v-.6l.5-2.3.5-2v-1q0-1.5-1.5-1.5l-2.6.1-3.4.1-1.2-.2q-.6-.2-.8-.7l-.3-.7a35 35 0 0 1-.9-12.2q0-1.7.3-3.4.1-1.4-.7-2.5l-1-1.5-.7-1.2a5 5 0 0 1-.6-4l1-3.8.3-2.4v-.5q0-.7-.8-1l-5.3-2.9a43 43 0 0 1-6.3-4.3c-.6-.5-.8-.5-1.5 0l-1.1.7a149 149 0 0 1-31.6 17.5q-8.5 3.3-17.2 6.1l-7 2.2-.8.3-.2.2.3.3h.2a39 39 0 0 1 14.8 3.1l4.5 2.4 17 10a213 213 0 0 0 20.6 10.3q2.8 1.1 5.7 1.6 1.8.4 3.8.3h2.2l3-.2q4-.3 8-.1 2.7.2 5.2 1.1a9 9 0 0 1 3.7 2.4 7 7 0 0 1 2 4.7q0 2.3-.8 4.5l-.9 2.5-1.5 4a13 13 0 0 0-1.1 4.2q-.2 1.7.4 3.2l1.4 3.6 2 5q1 3 1.4 6.2a20 20 0 0 1-6.3 17l-1 1.2a4 4 0 0 0-1.2 2.1 22 22 0 0 1-2.5 6.5 5 5 0 0 1-2.5 2l-.5.3-.1.3h-1.3l-.5-.5-1-.3q-1.7-.6-2.7-2.1a6 6 0 0 1-1-2.5l-.3-2.8q0-2.3.4-4.3l.6-4.7q.1-1.7-.5-3.3l-1.8-3.8-3.8-8.8q-1.7-3.8-3.8-7.4a14 14 0 0 0-3.2-3.7 26 26 0 0 0-7-4q-4-1.4-7.9-2.2l-9.7-1.7-10.7-1.7a161 161 0 0 1-26.6-6.6q-10.2-3-20.3-6.4l-8.1-2.4q-2.6-.7-5.4-.9a55 55 0 0 1-17.1-2.7q-3.4-1-5.9-3.5a20 20 0 0 1-6-11.6q-.4-2-.2-4 .2-2.6 1.7-4.8a42 42 0 0 1 4.8-5.4l6.7-6 2.3-2.2a290 290 0 0 1 27.5-26.4q7.7-6.5 16.1-12.1a75 75 0 0 1 17.2-8.6q1-.4 1.1-1.2l.4-1 1.5-4.4a49 49 0 0 1 6.6-12.6l.3-.5s-.1-.3-.3-.3h-.7l-2.2.7a47 47 0 0 0-6.4 2.6l-5 2.5-3.4 1.6-2 .7h-.3l-.2-.2.1-.6q.4-1.2 1.2-2.3l2.6-3.7 1.6-2.4a12 12 0 0 0 1.7-3.3q.1-.7-.6-.7h-.4l-3.4.8q-4.4 1.4-8.4 3.5c-1.4.7-1.4.7-2.2 2q-4.6 7.9-8.5 16.2-.1.4-.4.7h-.3l-.2-.3-.1-1.6v-2.1l-.1-1q-.2-.5-.7-.3l-.6.3-1.8 1.7-3.6 3.6a39 39 0 0 1-8.2 6l-.7.3h-.2q-.3 0-.3-.3l1-2q.5-1.4 1.2-2.7l.6-1.5v-.6q0-.3-.4-.2l-1 .5q-5.4 3-10.6 6.3l-.5.2q-.3 0-.4-.2v-.4q-.1-.8.2-1.4l.5-1.7v-1q-.1-.9-.8-.7l-1 .3-6 2.4-4.2 1.8-2.2.8-.2-.4.2-.4q.5-1 1.3-1.7l1.8-2.1.4-1q0-.5-.5-.6l-1 .3-4.6 1.7-3 1q-1.3.6-3 .7h-.4l-.2-.4.3-.4 1-1.3.6-.6q.3-.8-.5-1h-2.6l-6.6.2h-3.2v-.3l7-2.9 5.6-2.3a30 30 0 0 0 6.3-3.6l.7-1q.3-.3-.2-.8l-.7-.3-2.8-.9-2.2-.6q-.8-.1-1.4-.5-.2-.3 0-.6.5 0 .8-.3 5.7-2.2 11.5-3.6.8-.2 1.2-.8l.6-1.5q0-.3-.2-.4l-.4-.2-2.4-.4q-2.7-.3-5.4-.1h-1.6l-.3-.1v-.2q.1-.3.5-.4l4-1.5a96 96 0 0 1 14.2-3.9l.9-.2s.1-.3 0-.4l-.5-.3a31 31 0 0 0-8.1-1.8l-.8-.1-.1-.2v-.1q.8-.4 1.5-.5l3.4-.3 4.6.1q2.9.3 5.7.2l6-.4.7-.1h.1v-.3l-.6-.3-4.3-1.4-2-.7-.5-.1-.1-.2.1-.2q2-.3 4-.2 3.4.2 6.6 1.2l5 1.6 5.9 1.7q4.2 1 8.5 1l1-.1s.2 0 .2-.2l-.1-.4-.9-.5a19 19 0 0 1-6.8-7.6l-.3-.7q0-.3.2-.4h.1l1.2.2a51 51 0 0 0 12.9 1.9q5.8.1 11.6-.1l6.1-.1q3.4 0 6.7.5l10.6 1.8 5.2.8h1q.7.1 1-.5l.5-1.5q.5-1.6 1.4-3.2 3.2-5.7 9.6-7.8 2.7-1 5.5-1.2l2.7-.3q.6 0 .6-.7v-.5l-.6-7a164 164 0 0 1 0-16.5v-.7l1-5 4.5-17.8 1.8-6.7v-.5l-.1-.1q-.4 0-.5.3l-2.1 3.4a63 63 0 0 1-6 7.6 29 29 0 0 1-7.9 6l-5.6 2.9-15.4 7.2a165 165 0 0 0-19 10.4l-2.8 2.1a16 16 0 0 0-4.2 5.4l-2.6 4.9a32 32 0 0 1-4 5.8q-1.4 1.6-3.2 2.5a9 9 0 0 1-3.6 1.4 22 22 0 0 1-7.8-.1q-4.2-1-7.6-3.2a48 48 0 0 1-9-8.7c-.8-1.1-.5-.9-2-1.3a111 111 0 0 1-18.8-6.9q-1.5-.7-2.8-1.6a14 14 0 0 1-6.1-9.5c0-1.3-.4-1.3-1.3-2a21 21 0 0 1-4.3-3.6l-1.6-2.3q-1-1.8-1-3.8.3-1.5 1-2.5 1-1 2-1.6 1.7-.7 3.6-.6 1.8.3 3.4 1.2 2 1 3.8 2.4l6 3.8q2.7 1.6 5.8 2.4 3.7 1 7.4 1.4l5.2.7a75 75 0 0 0 17.2 0q2.3-.5 4.3-1.7a61 61 0 0 0 13.5-10.9l11-11q5.4-5.5 11.1-10.8l19.8-17.8q5.6-5 10.9-10.2 2.2-2.1 3.9-4.7l2.9-4.4a40 40 0 0 1 5.4-6.2 16 16 0 0 1 8.9-4l1.4-.3.2-.3h3.6l.3.3.9.2 1.8.3q3.2.7 6 2.2t4.6 4.3l1.5 2.5q2.4 4.5 4.3 9l3 7.3a186 186 0 0 1 11.8 40.7l.9 7.2a219 219 0 0 1 .3 20l-.3 4.5a131 131 0 0 1-1.3 11.7l-.2 2q0 .5.4.7l1.3.8q5.6 3 8.3 9l.4.9.2.3s.3.1.4 0l.4-.3q1.2-1.3 2-3l1.4-2.7q1.7-3.6 4.8-6.2.9-.7.8-1.8v-2.6l.8-3 1-3.3q.4-1 .5-2c0-1.4 0-1.6-.8-2.6l-.4-.7-1.3-1.8q-1-1.5-1-3.4 0-.6-.5-1.3l-.5-.8a37 37 0 0 1-3-6.3q-1.1-3.4-1.3-7l-.2-2.3a69 69 0 0 1 1.2-12.8l.1-.2.3.3.4 1 .7 1.4q0 .3.4.5.4.4.7 0 .3-.6.2-1.2l.3-7v-2l.3-2 .2-.1h.3l.2.3.7 1q.4.8 1.2 1.1.9.4 1.3-.3l.2-.6.3-1.8a78 78 0 0 0 .4-9.2l.1-.6h.2l.2.5.6 3.6q.4 2.3 1 4.4l.6 1.3.3.4h.1l.3-.2v-.5a21 21 0 0 1 2-8.2l.3-.3h.2l.3.3 1 2.2q.1.6.5 1.2l.4.4h.4l.4-.6.5-1.4q1.6-5.2 2.4-10.5l.2-1.2q.4 0 .4.2l.6 1.6q.9 3.2 1 6.5l.1 4.7q0 .8.5 1.4l.2.3q1.9 2.7 2.6 5.9l.3 1 .2.3h.2l.2-.2a17 17 0 0 0 2.6-5.2q0-.5.3-1l.3.2a60 60 0 0 1 .2 13.9l-.2 2.5v1.9q.4.6.8.4l.4-.3 1.2-1.5q.9-1.3 1.5-2.9l.5-1 .3-.1.2 1.7v6.4a21 21 0 0 1-1 6.1l-.8 2.7-.1.5.2.2h.4l1.7-.7.9-.4.2.3-.2.6a21 21 0 0 1-3 6 16 16 0 0 1-6.6 5.8l-1 .5-.5.7-.4 1.1a7 7 0 0 1-3.1 3.8l-1.3.8-1.5 1c-1 1-1 1.1-1 2.2a48 48 0 0 1-2 13.5v.6l.2.2.6-.5 6.4-5.5a114 114 0 0 0 14-14.5h.1l.2.1v.5q0 1.5-.4 3a81 81 0 0 1-5.7 14.2 35 35 0 0 1-4 6.2l-3 3.5-2.2 2.3a82 82 0 0 1-8 6.6 42 42 0 0 1-7.1 4.3q-.3.2 0 .5l.6.3a36 36 0 0 1 9.9 8.4q4.8 6 7.5 13.3 2.6 7 4.3 14.3l1.5 6.4c.3 1.4.2 1.3 1.5 2a46 46 0 0 1 6.7 3.6 172 172 0 0 1 10.1 6.9l8.7 6.6q.2.4.8.5l.1-.1v-.4l-1.5-2.4a47 47 0 0 1-3.3-7.3q-1-3-1.4-6.3-.3-2.9-.2-5.6l.1-4.8.4-13v-.6q.3-4.4.2-8.8a102 102 0 0 0-1.7-17.6q-.7-3.3-2.8-6.2l-2.6-3.8-2.9-4.4q-1.2-2.2-2-4.6-.6-2-.5-4a8 8 0 0 1 3.3-5.7q1.5-.8 3.1-1.4l3.3-.8 6-1 3.5-.9a10 10 0 0 0 3.6-2.2l5.3-5a74 74 0 0 1 11-8.5q3-1.7 6.5-2.5a15 15 0 0 1 9.5.6c1.5.3 1.2.6 2.8-.4a18 18 0 0 1 7.8-2.6 7 7 0 0 1 4.4 1q1.6.9 2 2.5v.2q.3 1.5.2 3" id="path3"/><path fill="#FFC8A0" d="M429.9 262.4a41 41 0 0 1-26 38q-2 .6-4.3 0a29 29 0 0 1-8.3-3.9 42 42 0 0 1-17.4-36.9q.2-3 1-6 .5-1.4 1.5-2.6l2.7-3.4.5-.6q1-1 2.6-1.4l2.7-.5 3.8-.5 2.7-.5a38 38 0 0 0 9.4-3.6l1.2-.5q.3-.2.6 0l.8.6 2.7 2.1q1.9 1.6 4.2 2.3a27 27 0 0 0 9 1.6c1.2 0 1.3 0 2.3 1l6.6 6.4q.6.7.8 1.6.5 1.9.7 3.8z" id="path4"/><path d="M405.9 264v2.1q0 .5.5.6l1.2.7 1.7 1 3.1 1.4 1 .3q2.2.7 4.3-.1a12 12 0 0 0 3.1-1.8l1-.7q.8-.4 1.5.1.6.7.1 1.4l-.3.4a14 14 0 0 1-6 3.1 7 7 0 0 1-3.5 0q-2-.4-4-1.4l-2.6-1.4-.6-.3-.4.2.2 3q.2.8.6 1.3l1 1.4q.8 1 1.3 2.2.4.9.3 1.9 0 1.3-1.4 1.9l-1.1.3q-1.4.2-2.5 1l-.9.4q-1.5.9-3.2.1l-1-.5a5 5 0 0 0-2-.6l-1.3-.2h-.3c-2.4-.5-2.8-2.5-2.1-3.9a6 6 0 0 1 1.8-2.1q.3-.2.8-.2c1 0 1.3 1 1 1.6l-.7.7-.7 1q0 .3.3.5l.2.1 1 .1q1.8.3 3.3 1l.3.3q1 .4 1.7 0l1-.6q1-.6 2.2-.8.4 0 .7-.2.6 0 .5-.7l-.6-1-1.5-2.2-.6-1q-.5-.8-.6-1.7l-.1-2.4v-8.6q0-1.5 1-2.5a11 11 0 0 1 4-3 16 16 0 0 1 15.2 1.7q.5.5.4 1-.5 1-1.4.8l-1-.4a14 14 0 0 0-10.3-1.7 10 10 0 0 0-4.4 2.4l-.4.4q-.7.7-.7 1.9v1.7zm-17.4-3q1 0 2.1.4a23 23 0 0 1 4.8 2.5c.4.3.5 1.1 0 1.5l-.5.4a15 15 0 0 1-5 1.8h-2q-1.6-.3-2.8-1l-3.4-2.2c-.5-.4-.4-1.3.2-1.7l.8-.3q2-.8 4.3-1.2z" id="path5"/><path d="M415.6 268a18 18 0 0 1-6.7-2.1l-.2-.1q-1-1-.1-1.9l.4-.2q2.5-1.5 5.3-2a15 15 0 0 1 7 1.6l.8.4q.6.7.2 1.6l-.5.4q-2.3 1.6-5 2.2zm-27.8-13q3.5 0 6.6 1.5 1.3.5 2.3 1.5l.3.6q.2.6-.3 1t-1.4.2l-.7-.5a11 11 0 0 0-4.9-1.9q-1.5-.2-3.4 0-3.3.3-5.8 2.5l-.7 1v.7l.2.6.2.5q0 .8-.7 1.2-.8.3-1.4-.4c-1-1.3-1.2-3.2.2-4.6a13 13 0 0 1 7.3-3.8zm-.5 17.6q-1.4 0-3.3-.7l-1.1-.6c-.8-.5-.6-1.5.2-1.9h.7l1 .3a7 7 0 0 0 5.3.1l3.6-1.6 1-.4c.8-.4 1.7.2 1.5 1.1q0 .4-.3.6l-.6.5q-2.2 1.2-4.5 2-1.4.6-3.5.6m14.1 17.4-.8-.3a13 13 0 0 0-3.7-.5h-2a8 8 0 0 1-4.7-2v-.7l.4-.3.5.1.3.4q1.5 2 4.1 1.7 1.4-.1 2.7-.5l.8-.3h1.3q1.3.4 2.5 0 .7-.2 1.6 0l2.4.4q1.3.4 2.7.2 1.6 0 2.7-1.2l.7-.7h.5q.6.4.2 1a9 9 0 0 1-4.9 1.9h-2l-1.6.1-2 .4q-.7.2-1.7.2m.3 5.3-1.5-.2q-2-.3-3.7-1.1l-.8-.4c-.7-.4-.6-1.4.1-1.8q.3-.2.7-.1l1.5.4 2.7.8a4 4 0 0 0 2 0l3.9-1.2q.7-.1 1.2.6.3.8-.4 1.3a19 19 0 0 1-4.2 1.5z" id="path6"/><path fill="#FFC8A0" d="M537.8 181.7q1.5 0 2.7.4l1.6.4 1.9.5q1.9.5 3.5-.6a16 16 0 0 1 6-2.6h2.2q.8.3 1.2.8.5.6.1 1.3l-.8 1.2-2.3 1.9-4.4 2.7-5.1 3.2q-1.5.9-2.5 2.1l-3 3.4-6.1 6a141 141 0 0 0-9.4 10.4l-1 1.8q-.6.8-.6 2a53 53 0 0 0 2.8 18.4l3.9 11.3a275 275 0 0 1 9 30.6l2.8 13.4 2.6 11.7q.4 2.3 1.1 4.4a20 20 0 0 0 2.1 4.7 110 110 0 0 1 5.6 10.8q.5 1.2.7 2.5.6 2.3-.2 4.7a17 17 0 0 1-9 10.3q-1.9 1-4.2.8l-5.4-1-8.7-2.5q-2.6-.8-5.3-1.1l-10.1-1.4-5.8-.9-6.5-1-9-1.6q-10.5-2-20.8-5a81 81 0 0 1-16-6.8 219 219 0 0 1-27.2-17.8l-1-.8q-.3-.3 0-.6l1.4-1q3-2.1 5.5-4.6a31 31 0 0 0 10-19.7q.2-.4.6-.7l1.2-.6q1.1-.5 2.2 0l4.6 1.4 9.9 4 11.2 4.4q3 1 6 1.7 1 .2 2 .1.9 0 1.3-.9l.2-.7q.3-.6.8-.3l1.4.7q2.1 1.1 4.2 2.5 5.7 3.6 11 7.7a543 543 0 0 1 21.5 17q1 .4 2-.2 1-1 .4-2.2l-.8-1q-4.5-4.8-8.2-10.3a61 61 0 0 1-5-8.8 31 31 0 0 1-2.5-8.4 71 71 0 0 1-.1-8.3l.2-7.7.3-20v-2a73 73 0 0 0-2.2-15.3q-.8-2.2-2-4l-3.2-4.7-2.1-3.1q-1.6-2.5-2.6-5.4-.4-1.5-.2-3a4 4 0 0 1 1.5-2.3l1.7-1q1.2-.4 2.6-.6l4.7-.8a32 32 0 0 0 6.8-1.6q2.3-.9 3.9-2.4l5.2-4.9 2.5-2.3q2.5-2.4 5.5-4.5c3-2.1 4.3-2.6 6.7-3.4a16 16 0 0 1 4.5-.8m-106.1 5.6-.4 8-.4 4.9-.2 2.1-.8 6.8-.3 1.2-.2.3-.8-.1a31 31 0 0 0-6.4-.7q-1 0-1.8-.5l-2.2-1.2q-1-.8-2.2-1.3l-1.8-1a9 9 0 0 0-6.7.2l-2.6 1.5c-1.4 1-1 1-2.4.1l-1.9-1a13 13 0 0 0-11-.6 20 20 0 0 0-5.5 3.2s-.3 0-.4-.2l-.1-.6q-.5-5-.6-10v-5.9a35 35 0 0 1 1-8q1.6-7.7 3.8-15.5l7.3-27.3q0-.5.3-1.1v-1q0-1.4-1.6-1.6-1.2-.1-1.8 1l-.6 1.1a143 143 0 0 1-12 21.3l-2.4 3q-1.2 1.7-2.8 3.1-2.1 2.1-4.7 3.6l-8.8 4.4-11.8 5.4a203 203 0 0 0-19.5 10.5q-3 2-5.7 4.4a18 18 0 0 0-3.5 4.6l-3.4 6.4a21 21 0 0 1-4.2 5.4 8 8 0 0 1-4 1.8h-3q-4.7-.1-8.5-2.6a27 27 0 0 1-7.3-6.6l-2-2.5a4 4 0 0 0-2.1-1.4l-4.6-1.2a92 92 0 0 1-16.7-6.7q-1-.7-2-1.7a10 10 0 0 1-3-5.7l-.1-1.7q0-1.4-1.2-1.8l-.5-.3a15 15 0 0 1-5.7-5.2q-.4-.6-.5-1.4-.2-.8.5-1.4t1.7-.5a21 21 0 0 1 4 1.8l3.5 2.4q2.7 1.8 5.5 3.3 2.3 1.4 4.9 2 3 .9 6.3 1.3l9.5 1.2 8 .3a79 79 0 0 0 9.4-.8 13 13 0 0 0 4-1.5 88 88 0 0 0 14.6-11.6l9-9.2a432 432 0 0 1 19.8-18.7 1377 1377 0 0 0 25-23q1.8-2 3.2-4l2.2-3.4a55 55 0 0 1 5.8-7q2.5-2.1 5.9-2.9a19 19 0 0 1 12.6 1.9 9 9 0 0 1 3.5 3.3q2.9 4.7 5 9.8l6.5 16a175 175 0 0 1 9 35.6l.3 3 .3 3.9.3 9zm-40 224.7.5-4.6q.4-2 .4-3.8v-.9q0-1.9-.7-3.6l-4-9.2q-1.2-3-2.6-5.7-1.4-3-3-5.7a19 19 0 0 0-5-5.5 27 27 0 0 0-6.7-3.6q-4-1.5-8.2-2.5l-8.6-1.5-12.5-2a177 177 0 0 1-19.5-4.5q-11.6-3.4-23-7.2l-10.3-3.1a37 37 0 0 0-6-1.4q-2 0-4-.3a51 51 0 0 1-8.6-1q-3-.4-5.7-1.3a12 12 0 0 1-4.5-2.8 16 16 0 0 1-5.1-12.1q0-2.1 1.3-4 1.5-2 3.2-3.6l2.8-2.6 4-3.5a309 309 0 0 1 30.6-29.4q6.9-5.8 14.3-10.9a70 70 0 0 1 14.6-7.8l.6-.1q.4 0 .3.2v.6l-.6 2q-1.4 4.4-2.3 9.2a15 15 0 0 0-.4 4.4q.3.9 1 1 .8.3 1.5.2a64 64 0 0 0 8.2-2.5q4.5-1.7 8.8-3.6l7.7-3.3 7.3-2.9 2-.6a3 3 0 0 1 2.1.1l1.1.6 2.1 1.5q.6.5.7 1.1l.7 3.5q1.6 6.5 5.8 11.7l.6.7v.5l-.3.2-.5.3a153 153 0 0 1-31.6 17.5 495 495 0 0 1-47 14.9 1.7 1.7 0 0 0 .4 3.3l1.6-.1a100 100 0 0 1 25-2 32 32 0 0 1 10.6 2.6l5.5 3 16.5 9.7q6.3 3.6 12.9 7a75 75 0 0 0 13 4.8q2.2.5 4.6.4l5.3-.2q4.2-.3 8.5 0 1.8 0 3.4.6l1.6.8a4 4 0 0 1 2 3.8q0 1.6-.7 3.2a95 95 0 0 0-3.1 8.6 16 16 0 0 0-.5 4.2q0 1.5.6 3l2 4.7 1.1 3q1 2.5 1.5 5.2a16 16 0 0 1-4 13.8l-1.8 2-1 1q-1 1.3-1.4 3a17 17 0 0 1-2.3 5.7q0 .3-.3.4h-.7a2 2 0 0 1-1.3-1l-.3-1.1q-.2-1.2-.2-2.5" id="path7"/><path fill="#EBB432" d="M477 281.2v.9q-.1.3-.5.4h-.4l-2.6-.7-4.3-1.4-.4-.2q-.3-.2-.4-.5l-.2-1.2q-.1-2-.5-4a51 51 0 0 0-7.3-19.6l-.5-1-.4-.3q-.4-.5-1-.3a1 1 0 0 0-.8.9v.5l.6 1a51 51 0 0 1 6.9 17.4q.5 2 .6 4.1l.1 1.4q-.1.3-.5.2l-.5-.1-3.7-1.5-.4-.2-.5-.6-.1-.4a52 52 0 0 0-9.9-25q-.1-.4-.4-.6-.6-.3-1.2 0-.6.5-.5 1l.3.6.4.7a51 51 0 0 1 9 22v.7q-.1.3-.4.2h-.3l-3.2-1.3q-.7-.4-.8-1a50 50 0 0 0-3.4-11.9q-1.3-3-3.4-5.8l-.3-.4v-.5l.5-.8a9 9 0 0 0 1.3-2.8 42 42 0 0 0 .2-6.7l.1-4.3a7 7 0 0 1 1.8-3.9l.7-.6.5-.2.8.1a23 23 0 0 1 7.6 4.4 47 47 0 0 1 11.3 17.2 128 128 0 0 1 6.2 24.1m-141.3-3.4q.3-4.2 1.7-8.2a47 47 0 0 1 5.4-11l.2-.5q.2-1-.9-1.3h-.5l-.5.4-.6.8a47 47 0 0 0-7 18.4v3c-.2 1.2 0 1.2-1.3 1.7l-5.4 1.8-1.1.2q-.5 0-.6-.4l.2-1.4a204 204 0 0 1 6.5-22.7l.3-.7q.3-.4.7-.4h1.5a27 27 0 0 0 13-3.3l1.2-.5h.2v.3q0 .4-.3.8a54 54 0 0 0-6.6 18.4l-.3 3v.6q0 .5-.6.8h-.2l-4 1.7-.5.2q-.4 0-.4-.2l-.1-.5zm114 78.5a36 36 0 0 1-10-1.4h-.3l-.3.8a16 16 0 0 1-4 6.6l-.5.3h-.3l-.2-.2-.2-.3a54 54 0 0 0-6.9-10.4l-5-6-3.8-4.6-.3-.7q0-.6.5-.5l3 1.3 9.8 4.9 5.5 2.7a10 10 0 0 0 5.5 1l3.6-.4q1.7 0 3.5.3 1.3.2 2.2 1l1.3 1.3q1.3 1.5 2 3.2v.8h-.6q-2.3.4-4.5.3m2.8-124.2a8 8 0 0 1-4.5-1.4q-.4-.3 0-.7l.8-.6a302 302 0 0 0 27.2-24l3.7-3.9q.3-.4.8-.7h.2q0 .8-.3 1.4a40 40 0 0 1-6.8 12.3 108 108 0 0 1-14.5 14.7l-2.1 1.4a9 9 0 0 1-4.5 1.5m-99.8-1.3q0 1-.3 1.8 0 .3-.3.5t-.6.3h-1.3l-3.7-.8-6.2-1.2q-3.2-.6-6.5-.5-7.2.3-14.6.1-2.5 0-5-.5a11 11 0 0 1-4.8-2q-1.5-1-2-3v-.3l.3-.3h.5q3.2.8 6.6 1.2l5.4.6q3.1.4 6.4.3l9.7.1 7.4.2a37 37 0 0 1 8 2.1c1 .4 1 .8 1 1.4m48.9-18.5q0 .8-.5 1.4-.6.7-1.6.6l-1.3-.5-1.2-.5q-1-.5-2-.6-1.3-.2-2.2.4l-1.3.8a11 11 0 0 0-2.1 2.2l-2.3 3a35 35 0 0 1-6.3 6.5l-4 3.3-2 1.5q-.7.6-1.7.4-2.1-.3-3-2.2-.3-1 .5-2l.6-.5.8-.6a52 52 0 0 0 14-12.5 23 23 0 0 1 5.1-4.3 8 8 0 0 1 8.4.5q1.5 1 2 2.6zm-47.8 33q0 .9-.4 1.5l-.5.8a21 21 0 0 1-10.7 7l-2.5.5a5 5 0 0 1-2.2-.2q-.6-.2-.7-.8v-1l.3-1.1a27 27 0 0 1 9.9-13l1.7-1q.7-.4 1.3-.5.9-.1 1.4.4l1 1.4a17 17 0 0 1 1.3 5.4zm103.9-54.8h.3a80 80 0 0 0 11.8 0q.5 0 .6.5l-.1.7q-.4 1.4-1.5 2.4l-2.3 1.9-1.5 1-.8.8q-.5.6-.5 1.4l-.2 2.9-.3 4.4q-.3 2.6-1.3 4.8-1.3 2.8-3 5.4l-.4.4h-.5l-.2-.8-1.4-6.7-.2-1.7q-.1-1.5.4-3.1l1.3-3.4 1-3.6a3 3 0 0 0-.4-2l-1.5-2.4-.7-1.3q-.3-.6-.2-1.2l.2-.4zM344 275.4a52 52 0 0 1 7.6-21.5q.8-.8 0-2l.1-.4.6-.5q2-1.8 4-4l.4-.6q.4-.1.6.1v.4q1 3 2.8 5.8l.4.6q.2.4 0 .7a26 26 0 0 0-4 8.6q-1.4 4-2 8l-.1.4c-.2 1-.2 1-1.2 1.4l-1 .5h-.6q-.3.1-.4-.2v-.3a89 89 0 0 1 5.3-18l1.2-2.2.4-.7q.1-.7-.6-1.2-.8-.2-1.3.3l-.8 1.1q-1.4 2.5-2.4 5.2a79 79 0 0 0-4 15.6l-.2 1.3q-.2.5-.6.7l-3.7 1.6q-.4 0-.6-.4v-.3" id="path8"/><path fill="#EBB432" d="m377.7 233.8.6 1q.3.8 1.1 1.1l2 1 .4.4v.2a20 20 0 0 1-4 1.1 21 21 0 0 1-6.7 0q-2.8-.6-5-2.3a7 7 0 0 1-2.8-5.3v-2.4q0-4.2 3.1-7.5a20 20 0 0 1 5-4 13 13 0 0 1 4.6-1.6l2.7-.4h1.5q.6.3.3 1l-.2.1-.4.4-1.7 1.2-4.5 3-1.8 1.1q-1.5 1-2.5 2.2-.8.7-1.3 1.7a5.3 5.3 0 0 0 2 7.3 7 7 0 0 0 2.9.9l3.5-.2zm44.1 126.8-.3-.1-.7-1.1-3.3-6.3a55 55 0 0 0-10.7-14.2 41 41 0 0 1-6.3-11.7q-.4-1.2.2-2.4l.6-1.3q0-.3.4-.4h.2q.4.3.5.8l4 7 1 2q2 3.1 4.8 5.6a33 33 0 0 1 4.7 5.2l2.4 3.2q1.5 2.2 2 5 .5 2.2.6 4.7l.1 1.8v1.6zM300 232.9q2.2.1 3.9.8l1 .5 1 .7a4 4 0 0 0 3.7.2l1-.5q2.2-1.1 4.6-1.2 7.3-.4 14.6-.4h1.3l.2.2v.2l-.4.4-3 1.8q-1.5.8-3.1.8h-3.5q-2 .1-3.8.5-2.2.6-4.2 1.7a47 47 0 0 0-8.4 7.8q-.1.2-.4 0l-.2-1a34 34 0 0 0-5-12.1q0-.3.3-.4h.5m112.7-18q1.6 0 2.8 1 .4.1.7.5l.5.9 1.8 2.8 1.1 1.5q.8.8 1.8 1.4 1.5.8 3.2 1.4l1.2.4a3 3 0 0 1 1.5 1q.9 1 1.3 2.2l.2 1q0 .7-.3 1l-.6.7a24 24 0 0 1-3.7 2.8h-.2q-.3.2-.4 0l-.1-1q0-1.2-.4-2.2a4 4 0 0 0-3.1-3q-1.5-.4-3-.5H415a19 19 0 0 1-5.6-1.5q-.9-.4-1.8-1.1-.5-.4-.4-1.1l.1-.6a13 13 0 0 1 1.6-3l.3-.2h.3q.3 0 .6.4l2 1.4.7.4 1 .2q.4-.1.4-.5l-.1-1-1-2-.9-2-.1-.7q0-.4.5-.6h.3" id="path9"/><path fill="#EBB432" d="m414.6 213.3-1-.1-1.3-.1a3 3 0 0 0-2.2.6 11 11 0 0 0-2.8 3.3l-.7 1.7-1.2 3q-.8 1.5-2 3l-2.2 2.2q-.4.5-1.2.6h-6.3l-.2-.1-.2-.2v-.3q.3 0 .3-.3l.6-.3q3-2.4 5.1-5.5l1.4-2.2a53 53 0 0 1 6-7.7l2.2-1.6q1.2-.7 2.6-.9 2-.1 4 .7l1 .6q.6.6.8 1.4.3 1.3-1 2zm15.7 124.1-3.7-.1q-3-.1-6-.7a10 10 0 0 1-3.6-1.5q-1.8-1.4-3.2-3a7 7 0 0 1-1.7-3.3q-.2-1.5-.1-3v-.4q.2-.7.8-.8l.6-.1h2.2q.5 0 .8.3l.6.9 2.2 2.6q1.6 1.8 4 2.8l13 6-.1.1-.9.1zm15.5-89q0 2-.6 3.9a5 5 0 0 1-1.3 2.2q-1.8 1.6-4 2.7-1.5.6-3 .2a14 14 0 0 1-4.4-2.2l-.4-.4-.1-.7.5-.9.8-1a2 2 0 0 0 .3-2l-1-2.8-.3-1.3v-1.2a1 1 0 0 1 1-.7h.7l1 .5q1.5 1 2.5 2.5.8 1.2.2 2.6l-1 2-.4 1.3q0 .4.3.6l.4.1a5 5 0 0 0 2.6-.4q.5-.1.7-.5 1-1.5 1-3 0-.7-.2-1.3l-.8-2a5 5 0 0 1 0-3.6l.5-1.3q.3-.3.6-.2l.5.4 2.6 2.2q1.2 1.2 1.3 3zM345 235.2l-.2.4-.5.7c-1 1-2 2-3.1 2.8q-.7.6-1.7.8-8.4 2.2-16.2 6l-1.5.6h-.2v-.6q2-2.6 4.3-5 4-4.1 9.2-6.4a9 9 0 0 1 5-.7l2.7.4 1.6.4q.3 0 .4.3zm26.7 14.2q0-1.2.2-2 .4-1.6 1.3-3 1.3-2 3.4-2.9 1.6-.6 3.2-.8l5.6-.9 2.1-.2q1.7-.3 3.1-1.2l2.2-1.3 1.7-1q1.5-.6 2.8.1t2.2 1.6l.3.4v.2l-.7.4-5.1 2.3q-2 .7-4.2 1l-6.7 1-2 .4q-1.6.5-2.9 1.7l-2.4 2.9-1.5 1.8-1 1-.4.3q-.6.1-1-.2l-.1-.6z" id="path10"/><path fill="#EBB432" d="M394.3 230.1h2.2q1.5.1 2.6.9l2.4 1.4 4.5 3.4a177 177 0 0 0 10.6 8c.3.5 0 .2 0 .2h-.7q-2.3-.3-4.5-1-2.1-.7-4-2.1a98 98 0 0 0-10-7.2l-1-.5a7 7 0 0 0-4.2-.4l-2.4.7-3 1q-1.2.5-2.5.6-1.8.2-3-1-.3-.3 0-.6a6 6 0 0 1 2-1.2 20 20 0 0 1 4.1-1.3q3.4-.8 7-.9M362 269.6l.1-.4a36 36 0 0 1 1.4-5.3q.6-2 1.9-3.7 0-.4.3-.7.2-.6-.3-1.1-.5-.4-1-.3l-.5.3-.7 1q-.8 1.3-1.3 2.7a32 32 0 0 0-2 6.2l-.1 1q-.1 1-1.1 1.2-.8 0-1.4.3-.4 0-.4-.3v-.5a49 49 0 0 1 4.6-13.5l.6-.7q.1-.2.5-.1l.4.3q1.6 1.4 3.7 2.2l2.7 1.2.8.4q.2.1.1.4l-.5 1a28 28 0 0 0-3.6 7.6l-.5 1.8-.3 1q-.2.4-.6.3l-2.3-1.3q-.6-.2-.5-1m60-53.4-1.4.1-1.4-.1-.7-.3q-.5-.2-.6-.8l.3-1q.3-.6 1-1a8 8 0 0 1 5.5-1.5 9 9 0 0 1 4.5 1.6q1.7 1 2.6 2.9a17 17 0 0 1 1.2 4.1q.1 2.3-.2 4.4l-.4 1.4-.3.5q-.5.5-1.2 0l-.5-.5a6 6 0 0 1-1.3-3.4v-1.5q0-1.4-.8-2.7-1-1.5-2.8-2-1.7-.2-3.5-.2m22 54.6c-1.7-.2-1.6 0-2-1.6q-.5-3.2-2-6.2l-1.6-2.3-.5-.6q-.6-.5-1.3 0t-.4 1.3l.3.3a18 18 0 0 1 3 6.6l.4 1.7.1 1.2c0 .4-.6.7-1 .5l-.5-.3a19 19 0 0 1-6.4-11.7v-.5q0-.7.7-.6l1.8.3q1.9.4 3.7 0l1.3-.2q.3 0 .4.2 0 .8.7 1.6 1 1.2 1.6 2.5a53 53 0 0 1 2.6 7v.4q0 .3-.3.4zM415.6 310l-.4 1.7q-.2.5-.8 1a1 1 0 0 1-1 .2l-1-.5-1.5-1.3-2.4-2.7-3-4.1-.3-.6q-.1-.3.2-.4l.6-.3q2.1-.6 4-1.8l.4-.1h.6l.8.7a16 16 0 0 1 3.3 5.5l.5 2.3zm2.2-77.3-1.8-.1-1.9-.1a3 3 0 0 0-2.2.9l-1.3 1.3-.7.3q-1.2 0-2.2-.8l-2.2-1.8-.4-.3q-.7-.7 0-1.6l.7-.6a3 3 0 0 1 1.6-.7 16 16 0 0 1 3.8-.7 32 32 0 0 1 8.4 1.7l1.2.7q.5.6 0 1.1-.1.3-.5.5l-1.3.2zm-58.9-3.9q.6 0 1 .6l.4.7.4 1.6q.4 2.2 1.3 4 0 .4-.2.7l-.4.4a14 14 0 0 0-3.3 4.2l-.3.7q-.5 1-.7.8-.4-.4-.4-.9a45 45 0 0 1-1.3-6.5q-.2-2.5 1.2-4.7a2 2 0 0 1 1-1q.6-.6 1.3-.6m80.3-2.3q0 3-.7 6-.2 1-.8 2-.4.5-1 .1t-1-1.1v-1.6q.3-1.3 0-2.6l-.7-1.3a1 1 0 0 1-.2-1q0-.6.3-1 .5-1.7.2-3.4l-.2-2q0-1.2.2-2.2.2-.3.7-.5h.8l.6.7 1 2q.8 3 .8 5.9m15.8-8.3v1.5q0 1.3-1 2.2l-1.6 1.4-5.2 4-.4.2q-.5.3-.7-.2l-.4-2.2q0-.5.3-.8l.8-1 2.4-2.5a56 56 0 0 0 4.8-6.5h.5l.2.7q.4 1.6.3 3.2m-11 15.4.1 1.6q0 .8.8 1.2l.8.6.7.5q.5.3.6.8.3.9 0 1.8-.2.6-.8.6t-1.2-.2q-2.2-.6-4-2l-.6-.7q-.9-1-.5-2.3l.7-2.9a41 41 0 0 0 1.1-6h.4l.2.2a11 11 0 0 1 1.7 4.7q.2 1 0 2.1m6.7 38.7-.2.4h-.6l-1.8-.8-.6-.6-.3-1.2a49 49 0 0 0-2.5-7.2 17 17 0 0 0-2.2-3.7l-.6-.8v-.5l2-1.2.5.1.5.5 1.9 3a44 44 0 0 1 3.9 12m14.4-119.8V151l.2-1.5 1.2-2.8q0-.4.3-.6l.3-.1.4.2.8.5q.7.7 1.1 1.5l.7 1.9 1.1 2.8q.3.8 0 1.4l-1.6 2.5q-.3.3-.7.2l-.6-.2-2.6-1.4a1 1 0 0 1-.5-.8zM261.9 253.4l1.8.1h.5q.4.3.5.6v2.1q0 .4-.4.6l-4.5 3.2q-.3.2-.7.1h-.3l-3.6-.8q-1.1-.2-.7-1.2.3-1 1.3-1.8l3.6-2.5q.9-.6 2-.5zM406.8 316l.1-.7.6-1.7.2-.3.4-.2.3.2q3.6 2.3 6.3 5.3.7.7 1 1.6l.2 1.2q-.1.7-.8.8h-1.5a12 12 0 0 1-5.8-3.6 4 4 0 0 1-1-2.7m16.1-74.3h1.1q.6 0 1 .4l.7.8a30 30 0 0 1 3.8 5.4q1 1.7.4 3.5-.2.3-.5.2l-1-.8-2.9-2.9-5.5-5.4-.5-.5q0-.3.2-.4 1.4-.3 3.2-.3m-152.3 2.5h-1.2q-1.4-.3-1.2-1.6l.1-1a4 4 0 0 1 1-1.8l.8-.5q1.6-1.2 3.5-2 .5-.1.9.1l.6.5 1.8 1.2q.3 0 .6.4l.1.3q0 .3-.4.5-1 1.3-2.6 2.3l-1.7 1.1a2 2 0 0 1-1.7.5zM436 281.2h.9q.3 0 .3.4v.1a13 13 0 0 1-2 3.4l-1 1q-.8.4-1.5.4t-1.4-.2q-2-.6-3.6-1.7l-.8-.6s-.2-.3 0-.4l1-1.6.2-.2h1.8q2.3 0 4.3-.4zm19.5-106.8v2.1q0 .4-.3.7l-2.4 2h-.6l-.5-.8-1-1.8-.1-2.1v-2q0-.6.2-1l1.2-1.9q.4-.3.6-.1l.2.1 2.3 2q.4.3.4.7zm-49.7 136.3q0 .9-.5 1.5t-1.3.4l-1-.6-2-1.7-1.7-1.8-2-1.7-.3-.3v-.5l2.4-1.7q.5-.4.9 0 2.7 1.5 4.7 4.3.5.7.7 1.6v.5m-119.2-78.3h.6l2.3.4.5.2q.2 0 0 .3v.3l-1.5 1.7-.8.5-2.4.5-3.4.7q-1 .3-2 0-1 0-1.7-.4l-.1-.3v-.1l.1-.2 2.1-2.4q.4-.3 1-.4l4.5-.7zM456.4 188l-1.3-.1q-.5 0-1-.6l-.4-.7-.5-2-.1-1.1q-.2-.7.3-1l2.7-2.7h.6l.2.2.5 1.4 2 5 .2.9-.1.3-.5.2-2.6.3m-69.9 40.2q-1 0-1.4-.2-1.5-.7-1-2.2l.3-.6q.9-1.2 2.2-1.8l1.9-.6q2.2-.4 4.6-.4h.5q.3.1.2.4l-.2.3q-1.2 2-3 3.5a7 7 0 0 1-4.1 1.6m4.9-7.1q-.7 0-1.6-.3-1.2-.7-.7-1.9 0-.3.4-.6l.4-.5a10 10 0 0 1 6.3-2q.7 0 1.3.3.3 0 .4.3.4.3.5.7 0 .7-.3 1l-1.1 1.3a10 10 0 0 1-5.6 1.7m80.4-36.5v-2.3q0-.7.6-1.2l4-3.6.6-.3.2.1.2.3v1.3l-.1 2.9a4 4 0 0 1-1 2.2q-1.6 2-3.7 3.5h-.2q-.4.1-.5-.2zm-19.5-21.1v-1.2q0-.6.3-1.2l1.3-2 .1-.3h.5q.9.4 1.8 1.1l.4.8.8 4.1v.5l-.1.5-1.6 2q-.2.3-.6 0l-2.3-1.4-.4-.7-.2-1.4zM297 251.8l-1.4-.1q-.3 0-.4-.5v-.3l-.1-2.7q0-.8.6-1.2l.3-.2 3.6-2.6.6-.4q.3 0 .5.2l.1.3.8 3.4q0 .6-.3 1.1l-2.6 2.7-.7.3zm78.1 33.6q-1.8 0-3.2-.3-1.1-.3-1.9-1l-.9-1.3-1-2.6v-.7q0-.4.5-.4h.3q2.7 1 5.6 1.8l.5.2q.4.2.7.6l1.5 3v.5h-.4zM445 368v.4q-.1.3-.4.4h-.3l-2.7-.2a2 2 0 0 1-1.2-.6l-3-3.2v-.1q-.4-.4-.1-.7l1-1.5.8-.9q.4-.3.7 0 .2 0 .3.2l3.7 2.7.4.2q.3.3.4.7zm-48.4-56.6q0 1-.4 2l-.9 1c-1 1-2.4.9-3.3 0a4 4 0 0 1-1-1.9q-.6-2 .6-3.6.4-.9 1.5-1.2h1.2q1 .3 1.5 1.1.9 1.2.8 2.6m-109.1-54v-1q0-.5.4-.8l.5-.4 2.5-1.8.6-.4h.8q1.7.3 3.4 1h.1q.2.1.1.4l-.2.3-4 3.9q-.4.5-1.2.5l-1.8.1c-1 0-1.2 0-1.2-1.1zm172.6 114h1.2q.8.2 1.2.6l1.5 1.4 1.5 1.7q.4.2.3.5v2.3q0 .5-.6.5l-1.5-.2h-.7q-.6 0-1-.5l-.1-.2-2.8-3q-.5-.5-.5-1.1v-1.6l.2-.3zm20.1 7.4h-1a3 3 0 0 1-1.6-.5l-4-2.8q-.7-.4-.7-1.2V373q0-.5.7-.6h1.6q.6 0 1 .4l.3.3 4 3.1q1 .7 1.2 1.8v.7q.1.3-.2.4zm-7.7-210.3.3-.4.2-.3 2.5-2 .4-.2h.3l.3.8 1 6q.1.7-.4 1l-2.6 1.8-.4.1-.3-.1-.1-.3-.9-4.5-.2-1.3v-.6m-21.5 207.8v.8l-.3.4h-1.4q-.6 0-1-.2l-.6-.5-3.5-2.7-.4-.3q-.6-.6-.6-1.3v-1.1q0-.4.5-.6h2.5l.6.1.8.7 2.5 2.5.5.5q.5.4.4 1zM397.7 322l-.4 1.7q-.2.6-.6 1.1-.6.7-1.6.4l-.9-.5a6 6 0 0 1-1.6-3 4 4 0 0 1 .8-3.7q.6-.8 1.5-.8.6-.1 1 .4l.6.7a9 9 0 0 1 1 2.8zm33.3-42.2h-2v-.7l1.3-2.8s0-.2.2-.2q0-.3.4-.3l1-.1a28 28 0 0 0 5-1q.4-.1.4.1v.1q.3 1.5-.2 2.8-.4 1.1-1.7 1.5l-1 .2q-1.6.4-3.4.3m-138.7-33.9-1.3-.1-.5-.5v-2q0-.5.3-.6l.6-.2 6.5-2.5h.3l.5-.1 1.6.4q.4.3.1.5l-.5.5-5.5 4-.2.2q-.6.5-1.4.4zm-7.9 6.4v-1q0-.5.5-.9l2.8-2.1q.3-.3.7-.3l3 .1q.4 0 .6.5v1q0 .7-.5 1l-.6.5-3.8 2.8-.6.2h-1.6l-.4-.5zm87.3 3.3-.3 1.6q0 .3-.5.2-2.8-.9-5.4-2.3l-1.7-1.4q-1.6-1.7-2.6-3.7a11 11 0 0 1-1.2-3.6 6 6 0 0 1 .4-3.2l.2-.3.3-.2q.2 0 .3.3l.2.5.1 1.7q0 1.4.3 2.6.6 3.4 3.7 5.3 1.7 1 3.8 1.4l1.9.4q.5 0 .5.6m2.5 32 4.7.5q.5 0 .8.5l1.9 2.5q.1.3-.2.5-1 .6-2 .8h-.6a4 4 0 0 1-3.2-.6l-1.4-1.3q-1-1-1.7-2.3l-.2-.2q0-.4.4-.5zM263.4 251H262q-.6-.1-.7-.5v-1.8l.3-.5.4-.4 2.4-2.3a2 2 0 0 1 1.6-.5h.4l.4.4v.9l.2.3h1.2q.6 0 .6.6v.5l-.2.4-.8.8-2.2 1.8-1 .3zm155.4-11.7-2.7-.2q-1.4 0-2.3-1v-.2h.1l.1-.1h.2q3 .2 6.3.1 1.4 0 2.7-.3 2-.5 3.6-1.6a18 18 0 0 0 2.9-2.6l2.2-2.6.7-.7h.2l.2.2v.3q0 .3-.2.5l-.5 1q-1.5 2.7-3.8 4.9-.9.8-2 1.2a48 48 0 0 1-7.8 1.1m-51.6 31.2h.3l.8.6a18 18 0 0 0 3.8 2.2l.4.1q.3.2.5.6l.3.8.7 2.3v.7q.1.2-.2.3h-.3l-3.8-1.5-.8-.4a4 4 0 0 1-1.7-2.1 7 7 0 0 1-.1-3.3zm60.9 20.9-1.5-.3a9 9 0 0 1-2.7-2q-.4-.4-.1-.9l1.2-1.7q.3-.4.8-.1a38 38 0 0 0 6.7 2v.4a6 6 0 0 1-2.6 2.1 4 4 0 0 1-1.8.5m-5 4.6q-.9.1-1.5-.1a7 7 0 0 1-2.3-1.5q-.5-.4 0-1l1.5-1.5c1.1-1 .8-1 2.3-.4l3.7 1.2q.7 0 1.3.3.2.1.1.4v.1q-2.1 1.7-4.5 2.4l-.7.2m-145-35.3h-1q-.6 0-.6-.6l.4-2 .3-.4.5-.2 3.4-1.5q.7-.3 1.6-.2l1.4.2q.7.2.7.9v.4q0 1-.8 1.4l-3.2 1.4q-1.2.7-2.7.6M444 358.3h2q.9 0 1.6.7l2.8 2.3q.5.4.5 1v.2q.3 1.3-1 1l-2.2-.1q-1 0-1.7-.8l-1.3-1.2-2.4-2-.4-.7v-.3l.1-.1zm10 11.9v1.2q0 .3-.4.4h-2l-3.3-2.5-.4-.7.1-2.3q0-.3.5-.5h2.4q.3 0 .5.3l2.4 2.6q.3.3.2.7zm-56.2-54.7q.6-1.3 1.6-2.5.4-.4.9-.1l.4.2q1.4 1 2.1 2.6.9 2-.4 3.9-.6 1-1.8 1-.4.1-.7-.2v-.1l-.1-.3a21 21 0 0 0-2-4.5m65-152.1v3.1q-.1.3-.4.2l-.4-.1-1.3-.9a2 2 0 0 1-.8-1.2l-.1-1-.6-3.4q0-.8.2-1.4l1.1-2.2.2-.3q.2-.3.4 0t.3.5l.8 2q.6 1 .5 2.1zm2.1 2.1-.1-1v-3.9q0-.7.4-1.2l.8-1.2q.3-.3.6 0l1.8 3.3.2.8-.2 5-.1.4h-.5zm-48.6 135.3q-1.2 0-2.4-.5-.5-.2-.8-.8v-.4l.2-.3 2.9-2.4q.4-.5 1.2-.2l4.2 1.5.5.2v.3l-.2.3a12 12 0 0 1-3.7 2zm-143.4-43.2v1q0 .6-.6 1l-4.5 2h-.9q-1 .2-1-1v-.9q0-.7.6-1.2l2.7-2a2 2 0 0 1 1.3-.4l2 .2q.3.1.4.6zm17.5-19.5v-.4q-.1-.7.4-1.2l2.6-2.3 1.3-.6q.7 0 1.2.3l.8.7 1.2 1.8q0 .4-.3.7l-.7.3-4.6 1.6-1 .4h-.4q-.4 0-.4-.3zm73 .9q0-.8 1-.7l1.7.6 3.5 2.2.2.2.2.6a6 6 0 0 1-1.2 3l-.2.2q-.3.3-.6 0l-.6-.3a13 13 0 0 1-3.6-4.3q-.5-.7-.4-1.4m103 129 .8.5q1.4 1.4 3 2.6l.2.4.2.4v1.5q-.1.3-.5.5H468c-1-.2-1-.2-1.7-1l-1.6-1.6q-.4-.5-.6-1.2l-.2-1.5q0-.6.7-.6zm-66.8-34.6q-1.9 0-3.3-.7t-2-2.2a4 4 0 0 1 0-2.3q0-.5.5-.6l2.6-.2q.5 0 .7.5v.2q.6 2 1.8 4l.4.8-.1.4h-.6m73.7 48h-.5q-.6 0-1.3-.3l-3.2-2.1-.3-.8v-1.5q0-.4.6-.6h.6c1.3 0 1.4 0 2.3.6l2.5 2q.6.4.7 1l.1 1.3q0 .4-.4.4zm-186-136.8v.2q0 .8-.7 1.4l-3.2 2.5q-.7.5-1.4.4c-1.2-.1-1.3-.4-1.3-1.3v-.4c0-1.2 0-1.1 1-1.8l2.8-2q1-.6 2.4-.4.3 0 .4.4zM461 356.2l-1.3-.1c-1.3 0-1.1 0-1.8-1l-2-2.7-.2-.5v-.3h.4a14 14 0 0 1 3.5.2l.9.4a7 7 0 0 1 3.1 3.5q.2.4-.3.5zm1-182.4-.3.4-2.2 2.9-.2.1q-.3.2-.4.1l-.2-.4-1.2-4.4q0-.6.2-1l1.3-3 .2-.3q.2-.2.4 0l.2.3 2.1 5.1zm-173.7 65.4v.6l-.4.4-.5.3-5.7 2.6-.5.2q-.6.2-1.3.1l-1-.2q-.2-.1 0-.5l.3-.3 4.5-3.5q.7-.6 1.6-.5l2-.1h.5l.3.2zM475 368.7l.1-1.2q0-.3.3-.3 1-.3 2 0 .4 0 .6.2l3 2.6q.3.3.4.7v1.4q0 .4-.6.4l-2.7-.6q-1.5-.7-2.7-1.6-.4 0-.4-.5zm-15.4-.3h-1.1q-.6 0-1-.4l-2.5-2a1 1 0 0 1-.4-.9v-.7q.1-.4.5-.5h2.6l3.5 2.2.3.7v.4c.1 1.1.1 1.4-1.3 1.3h-.6m-26.4-130.8v-.8q.4-.7 1.2-.7h.5l1 .6a7 7 0 0 1 2.5 4.2l-.2 1.2a1 1 0 0 1-1.2.6q-.7 0-1.2-.5l-1-1a6 6 0 0 1-1.5-2.7zm25 123.9h-2.7q-.6 0-1-.3L452 359l-.2-.1q-.1-.4.1-.5l.5-.1h5.1l.7.3 3 2.4.1.1v.4h-3.1m8.5 2.8 2-.1 1 .2 3 2.2v1.3q0 .3-.4.4H470l-.5-.1-.7-.4-4.5-2.8-.1-.1-.2-.2q0-.3.3-.3h1.2zm-.9-6.1h1.7l.9.3.1.2 3.9 3.2.1.3v.2h-.2l-4.3-.1q-.6 0-1-.4l-3.2-3-.1-.4.1-.2zm4.9-194.5v-2q0-.7.2-1.3l1.3-2.2.3-.6h.4q.6 1 .8 2.2l.1.8v1.3l-.3 2-.1.6q-.2.7-.6 1l-1.5 1q-.3.1-.4-.1v-.5zm-194.8 90.7c0-1.4-.1-1.2.9-2l1.3-1.2q.3-.3.7-.3 1.3 0 2.5.3.4 0 .4.4.3.7.3 1.4 0 .3-.2.4l-.6.5-1.8 1q-1.5.8-3 .7-.5 0-.5-.4zm133.8 73.3-.2 1.2-.2.2h-.3l-.3-.3-.8-1.2-3.1-5.4a1 1 0 0 1 0-1q.3-.5.8-.7h.5l.3.2a9 9 0 0 1 3.3 7m-27.1-30.6-.8-.2q-1.6-.6-2.8-2v-.6l.4-.1 3.8-1.1q.5-.1.8.2l1.8 1.7q.5.5 0 1l-1.4.8q-.6.3-1.8.3M276 245.2h1.6q.6.2.6.6l.1 2.4q0 .3-.5.4h-.9l-2.8-.2q-.8 0-1.4-.2-.6 0-.7-.6l-.1-.3.1-.4q0-.2.2-.2l1.9-1.3q.3-.2.7-.2zm-6.9 8.6h-.8q-.5 0-.6-.5v-.2c-.1-1.3 0-1.4 1-2l2-1q.6-.3 1-.2 1.2 0 2.2.3.4.1.3.5l-.3 1-.5.7-2.1 1q-.7.3-1.6.4zM466.4 185v-1.8q0-.5.3-.7l2-1.4q.6-.2.7.3v.4q.1 2.2-.1 4.3l-.3 1q-.5 1.1-2 1-.4-.1-.5-.5l-.1-2.5m-8.5 193.7h-1q-.7 0-1-.5l-1.2-1.5-.9-1.3-.2-.3q0-.3.3-.4h1q.4 0 .6-.5 0-.5.3-.8t.5 0l.2.2 2.4 4.1.3.6q.1.4-.4.5h-1m-23.4-109.5h.6q.8.2 1 .9.3.8 0 1.4-.4.8-1.1 1.2-1.2.6-2.5.5h-.4q-1-.3-.8-1 0-.8.3-1.6 0-.4.5-.6a4 4 0 0 1 2.4-.8m32-91.3v.4l-.2.2h-.4a8 8 0 0 1-1.8-2.9q-.4-.7-.3-1.5l.3-1.4q.3-1.4.8-2.6 0-.3.2-.3h.4l.2 1.4.5 3.7zm-2.8 5.2v2.7l-.1.6h-.4l-.2-.2q-1.1-1.8-1.8-3.7l-.2-.8q-.2-.8.4-1.5t1.5-.9q.5-.2.7.4v3.4M389 300.8q-1.9 0-3.3-1.3l-.2-.3v-.5l.4-.2 2.3-.9.7.1.4.3 1.7 1.1.3.3q.3.2 0 .6-.7.8-1.8.8zM471.6 177v.4l-1.1 1h-.2l-1.7-5.2 1.3-2 .3.2v.1l1.4 5zm-78.3 128-1-.3a1 1 0 0 1-.6-.9l.3-1q.7-.9 1.5-1.6.3-.2.6 0l2.2 1.3q.4.1.1.6-.7 1-1.9 1.7-.5.3-1.2.2m-21.4-35.7v.5q0 .4-.5.3-1 0-2-.7-.9-.4-1.3-1.3-.3-1.2 1-1.7 1-.1 2.1.1l.5.6zm60.4-27.8v.4q-.4.8-1.1.8l-1-.2a3 3 0 0 1-1.3-2q0-.6.4-1 .6-.6 1.4-.3 1.6.5 1.6 2.3M379 231h-.5l-.4-.8.3-.4q1-1.5 2.8-1.8h.4c.5 0 .8.6.6 1a4 4 0 0 1-3.2 2" id="path11"/><path fill="#EBB432" d="M368.7 249.6q-.1.4-.5.4h-.6q-1.7-1-2.4-3v-.5q.1-.5.5-.4h.4q2 1 2.6 3.2z" id="path12"/></g><!-- app4joy -->
</svg>