<svg height="400" width="600" id="svg11" viewBox="0 0 600 400" xmlns:xlink="http://www.w3.org/1999/xlink" xmlns="http://www.w3.org/2000/svg"><g id="g12"><path d="M0 0h600v400H0z" fill="#0f47af" id="path1"/><path d="M0 0h600v194H0z" fill="#fff" id="path2"/></g><g id="g11"><path d="M201 77v150.8c0 52.5 44.7 98 99 98s99-45.5 99-98V77l-99 .5z" fill="#ffffff" stroke="#000000" stroke-width="1.8" id="path3" style="display:inline"/><g id="b" style="display:inline"><path d="m282.2 82-.6 1.1-.6 1.3-.8 1.7-.6-.8-.6-1.6q0-.8-.6-.5a2 2 0 0 0-1.7 2.6q.3 1.3-.2 1.2c-.5 0-1.4-.9-1.7-1.8q-.5-1.2-1.1.2-.4.8 0 2 .4 1.3.3 1.5c-.4.4-1.5.1-2-.5q-.5-.6-.9-.5c-.5.3-.3 2.4.4 3.5q1.4 2.4-.7 2-.9-.1-1 .1c0 .5 1.8 2.4 2.3 2.4q.4 0 .4.7t-1.2 1c-1.2.4-1.2.5-.6 1.1q.6.8 2 .6h1.6l-.7 1.2-.7 1.4c0 .2 1.7 0 3.2-.4q.5 0 .6.3c0 .6-1.4 1.3-2.5 1.3q-1.5 0 .5 1.7 1.4 1 .7 1.4-.7.6-2.6-.2c-1-.4-.8.8.3 2.2.7 1 .8 1.2.4 1.4-.5.4-2.3.1-2.9-.4-.9-.7-1 1-.2 2.3q1 1.7-1 .9-2.9-1.2-2.7-.2 0 .7.6 1.5c.8 1.1.1 1.6-1.2 1l-1.3-1q-.1-.3-.7-.3c-.6 0-.6 1.3.1 2.1.8.9 0 .8-1-.1q-1.9-1.3-2 .6v1l-.6-.9c-1-1.2-.9-1.5.8-2q2.7-.6.5-1.3-1.9-.8-.1-1.3c1.1-.3 1-1.2-.1-1.2q-1 0-1.4-.3-.6-.3.2-1 1.3-1.5-.4-1.2c-1 .2-2.4-.5-2-1q.1-.2.9-.3c1 0 2.4-1 2.1-1.6q-.2-.3-.9-.4-.7 0-1.4-.6l-.7-.7h1.4q2.8-.2 1-1.1l-1-.5 1.2-.9q1.1-.7 1.2-1t-.3-.2-.8 0c-.6-.2-.6-.6 0-2.2q.3-.5-.5 0c-1.6.8-1.9.5-1.7-1.9l.1-2.1-.9.6c-.8.7-.8.7-1 0a9 9 0 0 0-1-3.1l-.9 1q-1.3 2-1.2 0-.2-3.7-1.8.1c-.6 1.5-1.3 1.7-1 .3q.2-1.8-1-.9c-.4.6-1.1.7-.8.2v-2q-.2-1.9-.5-.9c-.7 1.8-1.4.6-1.4-2v-1.1l-.8 1-.9 1.3c0 .6-.8-.3-1.4-1.6l-.6-1.4-.7 1.5-.6 1.5-1-1.1q-1-1-1.4-1-.2 0 0 1.5.4 2.5-1 .9c-1.2-1.4-1.6-.7-.7 1.1l.6 1h-1.4l-1.4-.2.5 1 2.3 2.2q2.5 2 .1 1.6l-.8-.3.6 1.2q.6 1.2 2 1.4 2.6.5.6 1.2-1 .4-.5.9c.4.5 2.4 1.2 3 1.1q1 0 .4.6-.4.5-1 .5-1.6.2 1.2 1.6 1.7.9 1.3 1.2-.3.4-1.3 0l-1.1-.3c-.3.3.6 2.2 1.1 2.4q.5.2.5.6t-1.5.1q-1.5-.1-1.6 0l1 1.4c1 1.1 1 1.2.4 1.4q-.6.1-1.4-.2c-1.4-.7-1.8.4-.7 1.8q1 1 .2 1.3-1.2 1 .5 1c1.4 0 1.4.7 0 1q-1.1.1-.9.8.1.6-.2.5-.4-.2-.3-1.5c.1-1.6 0-1.7-1.3-.8q-.8.7-1.5.7-.7.1-.2-.8t0-1.4c-.4-.5-.5-.5-1.3 0q-.7.5-1.4.5-1 .1-.4-.7c.4-.7 0-2.1-.5-1.4-.3.4-2.5.5-3.2.1q-.5-.2.3-.9.7-.6.7-1.4.2-1-.9-.4-1 .5-1.3 0t-1-.4q-1 .2.2-1 1.8-2.2-.2-1.6c-1.2.2-3-.7-2-1 .7-.4 1.4-1.3 1.3-1.7q-.2-.3-1.1-.5-1.8-.2-1.9-1.2 0-.2 1 0c1 .2 3.8-.2 3.8-.6q0-.3-1-.7-1.6-1 .6-1 1 0 1.8-.6 1.5-1.3-.4-1.5c-1.1-.3-1.3-1.1-.3-1.5s2-1.8 2-2.7q.1-.8-.4-.2c-.4.4-1.8.5-2 0q-.2-.1.4-1.2a5 5 0 0 0 .7-2.3c0-1.3 0-1.3-.6-.9l-1.3 1c-.6.2-.7.2-.7-1.1 0-1.7-1.6-4.5-1.8-3.2q-.2 2.3-.8 2.2-.2 0-.3-.5c0-.7-2.3-3-2.8-2.7q-.2.2 0 .8c.5.8.5 1.1.1 1.7q-.2.5-1.5-.8-1.2-1-2-1.2h-.6l.6 1.3q1.9 3.8-1 .5L217 84l-.2 2.4q0 2.1-.3 2.3c-.4 0-1.7-1.5-1.7-2q0-.4-.4-.3c-.7.3-.8 2.9-.1 3.9l.4 1c-.3.4-1.3-.3-1.8-1.2q-.5-1-.9-1c-.5 0-.3 3.5.2 4.6q.5.9.4 1.1c-.3.3-2-1-2.2-1.6-.2-1-.7-.5-.7.7 0 1.3.8 3.4 1.5 3.6q.5.2.5.5c0 .4-2 .4-2.2 0q-.2-.4-.6-.4c-.6 0 .1 1.6 1.4 2.9q1.8 2.3-.8.5c-1-.8-1-.7-.4 1.7q.6 1.6 1.4 2.1c1 .6.5 1.1-.8.7-1.1-.5-1.1-.4-.9.4.3 1 1.5 2.3 2.1 2.3q.5 0 .5.4t-1.4.2l-1.4.1c0 .6 1.4 2 2.4 2.4q2.3 1.2-.5 1c-1.3-.2-1.5-.1-1.5.4 0 .8 1.5 2 3 2.3q1 .1 1 .4c0 .7-1 1.1-2 1q-2-.3-.2 1.6a3 3 0 0 0 2.2.9q1.6-.1.7.5-.7.6-1.8.6-2.3 0 0 1.8 1 .9 2 .6.9-.1.9.2c0 .5-1.4 1.1-2.3 1q-.9-.2-.7.3c.1.8 2.2 2.1 3.2 2.1 1.4 0 .8.9-.7 1q-1.1 0-1.2.4l1.3 1.6q1.8 1.8.8 1.8l-1.2-.8c-1.5-1.3-3.7-1.7-2.7-.5l.6 1.3q.4.9-1 .7h-2v.3l1.1.8.5.3q.5.4.5.9t-.3.6l-.2.1-.7 1 1.2.9v.2q.3-.6 1 .2.7.6.1 1.2-.5.8.1 1l1.4-.2c1.2-.6 1.2-.6 1.2.4 0 1.2 1 1 1.7-.3l.4-1 .6.7q1.2 1.2 1.4-.7 0-1 .2-.1.2.6.7.4c.8-.3.5.5-.4 1.3q-.9.7-.4 1.2t-.4.6q-1.2.2-.4 1.5.4 1.2-.5.4c-.3-.5-2.2-.5-2.2 0q0 .3.3.3c.7 0 .4.7-.4 1l-1.2.4-1.4.7 1.5.5q.5.3.5.7l-.2.6v.1l-.6.7.7.2h.4q.6 0 .7 1.2 0 1.3.8.9l1.2-.6c.4-.3 1.1.7 1.1 1.7 0 .8.7.4 1.3-.7l.7-1.2.6.6q1 1.7 1.4-.6c.2-1.6.4-1.7 1.7-.8 1 .7 1 1-.2 1.8q-1.4.6-.5 1 1.2 1.1-.6 1-1.3-.4-.8.7.3 1-.4.6c-1.1-.5-2.9-.7-2.9-.3q0 .3.5.7.3.3.2.5l-1 .9-1 .8v-.1l-.5.5 1.3-.2q.8.3.9 1v.5l.1.2-.2 1.3h1c.4-.3 1.5.8 1.5 1.5q.1 1.4 1.1.3.9-1.2 1.6-.1 1 1.1 1.2-.5.3-1.6 1.1-.7.5.4.6-.8l.5-1.3c.3 0 1.4 1.5 1.4 1.9q.1.2.5-.8c.7-1.6 1.4-1.4 1.1.3q-.3 1.4.3 1.4.6-.1.2.8t.2 1.2q.8.4-.7.2c-1.9-.4-3.1.9-1.5 1.5q1.3.3-.2.5-.8.3-1.4 1c-.5.9-.5 1 .3 1.1q.8.2.8.5l-.6 1.3-.5.9h.1l-.2 1 .9-.3.4-.3q.3 0 .4.7l.1 1 .1.1.7 1.4.5-.6.2-.2q.4 0 .7.3l.7 1v.4l.4 1.2.2-.5v-.3l.3-.3q1-1.2 1.3.1c.2.8.2.8 1.2-.2l.9-.7.1.3q0 .7-1.2 1.3-1.6.9-.6 1 .7.2 1 .6.2.6 0 .5l.4 1 1 .2-.2 1 1.4-.3v1l.3-.3.3-.5q.5-.6 1-.1t.8 0l.6-.4q.5 0 0 .6t-.6 1q0 .6-.5.4l.5.4v.7l1 .2.3.7 1.1.3.7.7.3-.5q-.1-.2.1-.6.3-.9.6 0 .6 1.3 1.7-.6l.7-1-.1 1.6c-.1 1.4 0 1.7.4 1.7q.5 0 1 .6t0 .5l.4.6 1.3.8 1.6.3.4.5v-.8q-.3 0-.3-.4.1-1.9 1.2-1.2.5.5.7-.7.3-1 1-1 1 0 .2-1-.3-.2-.2-.8v-.1h.1q.2 0 .5.6 1 1.6 1.7.9.3-.5 1 0 .3 0 .3.2h.9l.3-.9v-.4q.3-.5.8-.6l.4.2.6.2v-.9q-.3-.2-.5-.7c-.4-.9-.4-.9.8-.7q1.3.4 1.2-.4 0-.8.9-.7h.6l1 .1.1-1v-.1q0-.4.8-.9 1.9-.9.2-1.5-1-.4-.7-1t-.7-1c-1-.2-1.1-.8-.2-.8q.7.1 1.2.8c.7 1.2 2 1.4 2 .5 0-.7.1-.8 1.7-.9h1.4l.8-.1-.2-.7h-.1q-.4-.6 1-1.1c1.3-.6 2.2-1.9 1.4-2.3q-.5-.2.1-1.2c.9-1.5 1.1-3.2.5-3.2q-.6 0-.5-1.3t-.4-.8q-1.2.8-1.3-.4l-.3-1.3q-.3-.6-.9.2-1 1.3-1-1 .1-1.2-.4-1-.5.3-.5-.7v-1l1.1.9c1.9 1.4 2 1.4 1.8.6-.3-1 .4-.9 1.2.3q1.4 2 1.4.1v-.9l.8 1c1 1 2.4 1.2 2 .1q-.2-.8.5-.5c.7.4 2.2.4 3 0q.7 0 .2-.6-.8-.8.3-.9c.7 0 2-1.3 2-2q0-.3-.4-.4-.7.2 0-1c.5-1.1.7-2.8.2-2.8q-.4 0-.6.4-.6.9-1.1-.7c-.4-1.2-1.1-1.4-1.1-.3q-.2 1.2-.8 0-.2-.8-.8.4-.5.9-.7.8l.6-1.5q1.4-2.6 0-2.3-1.3.5 0-1.2 1.2-1.6-.4-1.7c-.7 0-.7 0-.4-.9l.2-.1q.2-.1 1.8 1.6c1.5 1.6 1.8 1.8 2 1.3q.3-.8 1 .4 1.2 2 1.8.2.2-.8 1.1-.8 1-.1 1.7-.5l.3-.2v-.1l.9-.5-.3-.2q-.2.1-.8-.2t.2-1c1.5-1.2 2-3.1.9-3.1q-.7 0-.9-1.2a3 3 0 0 0-.7-1.8c-.6-.6-.7-1.5-.2-1.5q.3 0 .5.4.3.3 1.6.3c1.3 0 1.3 0 1-.7-.5-.8-.5-.8.6-1.2h.4l.7-.3-1-.9 1.4-.9-1-1.4 1.7-1.6-1-.2q-.7.1-.8-.6 0-.6-.3-1.1-.3-.7-1 .3-1.4 1.4-.8 0c.6-1 .5-2.1 0-1.9q-.6.2-1-.3-.4-.3 1-1.8 2.5-2.4.4-2-.8.2-1.2 0 0-.4 1.2-.6 1.3-.2 1.7-.9.9-1.2-.4-1-.8 0-1.5-.5c-.5-.4-.5-.5 1-.8 2.2-.6 3-2.5 1.1-2.5s-2.5-.8-1-1.2c2-.4 3.5-2.6 1.7-2.3a2 2 0 0 1-1.5-.3q-.8-.5 1-.8 1.5-.4 1.9-1.2.9-1.5-1.1-1.4-2-.2-.4-.7c1-.2 2-1.7 1.9-2.8-.1-.8-.1-.9-1.5-.4q-1.2.4-1.5.3-.1-.2.2-.4 1.3-.4 2-2.3l.4-1.4-1.4.3q-2.5.7-1-.9c.8-.8 1.5-2.6 1.5-3.8q.2-.9-.7 0-1.3 1-.7-.5c.5-1 .5-3.5 0-3.5q-.5 0-1 .6-.8 1-.3-.7c.2-.6.3-1.7.1-2.4l-.2-1.3-1 1q-1.9 1.7-1-.6.6-2 0-3-.2-.6-1 .2-1.4 1.6-1.4-.2a3 3 0 0 0-.5-1.6c-.5-.7-1.2-.4-1.2.4s-.7.2-1.2-1.1h-.1l-.7-2.1Zm.7 51q.4 0 1.1 1.3.5.9.2 1c-.3 0-1.4-1.7-1.4-2.2zm1.9 3.2q.3 0 .4.5 0 .3-1 .3-1.1.1-.2-.5.3-.3.7-.3zm1 1 .6.2q1.4.5.5 1.7-.3.6-.8-.1-.8-1.2-1 0-.1.7-.5.7-.6-.1.5-2 .4-.5.7-.5m-49.5 1.2q.3 0 .3.2a16 16 0 0 1-2.4 4.4q-1.5 1.7.4 1.9h1.1l-.8.7-.9.7.8.5q.6.4.5 1.2c-.1.6-.7 1-.7.4q-.1-.5-1-1.7-1.6-2.7.6-5 1-1.1 1.4-2.2.4-1 .7-1.1m20.5 1.7q.3 0 0 .7 0 .8.5 1.2c.7.5.7.5 0 1.2-.8.6-.8.6-.2.8q.7.2.4 1.1l-.1 1.3q0 .3-1 1-1.8.8 0 1.7c1 .6 1.8 2 1.7 3.1q-.1.8.8.7t1 1c0 .7 0 .8.8.4q.8-.4.9-.6 0-.3.4-.3.6.2-.2 2.2-.6.8.8.5 2.3-.4.3 1.6l-1 1.2.9.4 1.2.3q.7 0-.2 1.2-1.2 1.5.7 1.1 1.1 0 1.2.2l.1 1.3q-.2 1 1.2.7 1.3-.2.8.6-.3.8-1.3.3-1-.3-1.2.1-.3.6-.3 0 0-1-1.3.8-.8 1.1-1.1 1.2c-.4 0-.8-2-.5-2.4.4-.6-.7-.3-1.6.4q-1.7 1.4-.7-.4.6-1.1.1-1.4-.4-.5-.8 0c-.6.6-2.3.5-2.3 0q0-.5.5-1t.5-1.2q.1-1-.6-.5-.6.3-1.4 0-1.3-.4-.2-.8c1.7-.9 2-2.3.6-2s-1.8-.5-.8-1.2 1-1.7 0-1.6q-2-.2.3-1.1 2.6-1 1-1.8c-.8-.3-.9-.5-.7-1.5.2-1.1.1-1.2-.9-1.4q-2.1-.5 0-2.5l1.2-.9-.8-.6q-1.5-1.1 0-1 .9.2.5-1.2a4 4 0 0 1 .2-2q.4-.9.6-.9m-12.5 0c.6.3 1.3 3.2 1 3.6l.2 1q.6.4 0 1-.4.8.5 1c.7.4.9.7.9 1.8 0 1.3-.1 1.4-.9 1.4q-1 0-.8.8t-.6.9c-1.1.1-1 1.2.2 2.1q1.9 1.6.2 1.2-.9-.1-.9.2c0 .6 1.1 1.7 1.7 1.7q.3 0 .4.3c0 .4-.9.7-1.4.3q-.5-.2-.7 0-.8.4.6 2c.8 1 .8 1.1.3 1.3q-.7.2-1.3-.1l-.8-.4c-.4 0-.1 1.6.4 2.3q1 1.5-.9.8l-1-.4v1.6q0 1.6-.5 1.5-.5 0-.5-.3c0-.2-1.6-1.1-2-1.1q-.3 0-.1 1c.1 1.7-.7 1.3-1.5-.5q-.7-2-1-.9-.8 1.7-1-.6 0-1.8.8-1c1 .5 1 .4 1-.9q-.1-1.3.8-1.2 1.7 0 .8-1.4c-.5-.7-.5-.8.5-1.2l1-.5-1-1q-2-1.8 0-1.4c1.3.2 2.3-.2 1.7-.7q-1.1-1.5.9-1.1 1.4.3 1-.3c-.2-.5 2.2-3.3 2.8-3.3q.3 0 .8-.6c.4-.5.3-.7-.5-1.4q-1-.7-1.5-.6t-.5-.7.6-1 .2-.6q-.8-1 .1-1 .6 0 .4-.6c-.4-1.4-.6-3-.4-3m33.7 1.6q.3 0 .6.6.4.9.2.8-1-.1-1.1-.8 0-.6.3-.6m-8 1c.4.3.6 3.2.3 3.2q-.4 0-1.8 1.2-1.5 1.4-1.6.6-.2-.6.6-1.3l.6-1-1.2-.5-1-.4 2-1q1.6-.8 2.1-.9zm-43.8 2.3q.3 0-.3 1.7-1.2 2.5-1 0 0-1.3.3-1.3t.7-.2q.1-.2.3-.2m34.5.8q.8 0 .9.9 0 .2-1.2.2-2.2-.1-.3-1zm-19.8 1.1q.5 0 .5.3t-.5.5-.5-.3.5-.5m-9.2 4.1.6.3q.1.2-.4.6-1.7 1.1-1.1-.2.4-.6.9-.7m39.5.1q.8 0 .6.8-.3.6-1.7.3-1.4-.5.5-1zm-39 6.2q.3 0 .3.2l-.3.6q-.4 0-.4-.2t.4-.5z" fill="#da121a" id="path4"/><path d="M249.9 184c-1.5-2.3-1.6-3.5-.8-7.5.6-2.7.7-5.3.2-5.3s-1.2 2.7-1.6 5.1q-.6 3-1.7 4.2c-.8.7-2.8 1.5-3 1.3q-.3-.3-.3-2c-.1-1.5 0-1.8 1.3-3.3q2.5-3 3-5.4.5-2-1.2.7c-1.1 2.2-4.4 5.6-5.5 5.6-2.8.2-2.8.2-3-.6-.1-1.3 1.2-3 2.7-3.5 2.5-.9 5.2-3.1 5.2-4.3q0-.6-1.3.3-2.9 1.7-5.7 2.5-5.2 1.6-7.3-2c-1.4-2.1-.7-4.4 1.7-5.6q1.8-1 1.5.1c-.4 1.9 2.2 3.8 4.7 3.4 1.8-.3 4.7-2 6-3.6a17 17 0 0 0 3-8c.2-2 .1-2.3-.4-2.3-1.3 0-1.6-2.5-.5-3.7.8-.7.8-.9.3-3-.4-2.4-2.6-9-3-9.5s-.9 2.4-.7 4.2q.3 2-1.1 1-1.2-.7-.2 2l.6 1.5c0 .4-1.3.2-2.5-.2q-.5-.2-.7.4l-.7 1.9c-.6 1.3-.6 1.3 0 1q.8-.5.8-.7c0-.5 1.7-1 3-1q1.3 0 2.2.6 1 .8 0 .7-.6.1-1.5.8-.7.8-1.6.9-.8 0-1 .5t-.9.7l-2.2 1.7c-1.4 1.4-1.4 1.6-1.4 3.7 0 1.8-.2 2.3-.9 3a5 5 0 0 0-1 1.8q-.5 2.1-1.5-1.3c-.7-2.2-.7-3 .1-4 .5-.6.9-2 .5-2q-.3 0-1.2 1-1 1-2.4 1.1l-2 .5q-.8.4-.4-.6.4-1.1-.8.3c-2.3 2.7-5.7 2.9-6.4.2-.5-2 1-3.7 2.6-2.6.7.5.8.5 1.2-.1 2.1-2.7 3.1-6.3 3.5-12.7q.5-8-1-2.8c-1.3 4.3-4.5 8.9-6.6 9.4-2.5.6-4.8-1-4-2.9.2-.8.4-.9 1.8-1s1.5 0 2-1.3c1-2.3 2-8.1 2-11.3v-3l-.9 1.8q-2.6 5.4-5.8 6c-1 .3-1.3.1-2.3-1q-2.1-2-.5-3.9 1.2-1.3 2-.2c1.3 1.5 2.4-.6 2.4-4 0-2.4-.5-5-2.3-11a32 32 0 0 1-2-12.4c0-4.3.2-5.5.8-7.5 1.3-4 4.1-7.8 6.7-9.1 1.6-.8 4.5-.9 5-.2q.5.5 1 .6c.5 0 1.9 1.8 2.5 3.3 1 2.7-.5 6.3-3.5 7.8q-1.6.8-1.6 1.3c0 .3.3 1.5.8 2.8a24 24 0 0 0 9.3 10.6 17 17 0 0 0 6.8 3c1.4.3 1.4.3 3-1.8l1.6-2h-1.4q-1.2 0-1.3-.2l1.5-2c3-3.8 3.8-7.4 2.2-10l-1.4-1.9q-.6-.4-.6-.7l-1.2-2.2-1.2-2c0-.8 1.9.5 4.7 3.1q1.6 1.5 1.8 1-.1-.3-1.6-1.9l-2.7-3c-1-1.2-1.3-1.3-3.5-.6q-.8.4-.8-.6c0-1.7 1.9-3 4.1-3 1.5 0 2.5.8 5.6 4.5q1.3 1.7 1.7 1 .4-.3 1.8-.4c1.4 0 1.6.1 4 3 1.5 1.8 2.7 3.3 2.7 3.5q-.1.3-1 .5c-1.1.2-1.1.2-1 1.6q.3 1.4.8 2.2.9 1.1-.6.9-.2 0-.3.6 0 2 2.1 5 1.3 1.7 1.2 2.3-.4.3-1.6.2l-1.4-.2.7.7q.5.8 1 1.2l.8 1.4c.5 1.2.7 1.2 4.3 0q10.4-3.7 13.6-12.7c1.3-4 1.3-4.4-.8-5.2q-3.7-1.2-3.6-5.9c0-2.2 0-2.6 1-3.8a7 7 0 0 1 5-2.7c3.3-.4 6.2 1.5 7.9 5.2 3 7 3.8 14.7 2 21.4a44 44 0 0 0-2 12.8c.2 4.3.4 4.8 1.4 4.3.8-.5 2 .1 2.2 1.2s-.5 2.4-1.9 3c-.9.5-1 .5-2.5-.2-1.9-1-3.4-3.3-4-6-.5-2-.6-2.1-.8-1.2-.6 2.8 0 8.4 1.2 11.6q1.1 3.3 2.1 2c1.4-1.3 3.2 1 2.1 2.8-1 1.7-3.7 1.9-5.7.4-2-1.4-3.8-6.6-4.3-12.2-.2-2.7-.3-3-.5-2a47 47 0 0 0 .2 14.7c1.4 9.3 1.5 9.7 2.3 8.9.5-.5 2-.5 2.6 0 .7.7.5 2.6-.3 3.3-1.3 1.3-4 1.2-5.8-.2-.7-.6-2.7-5.1-2.7-6.1 0-.5-.6-.7-.9-.2 0 .2-.8.4-1.5.6-2.6.4-2.7 1.8-.2 1.8 1.2 0 1.8.3 2.7 1 1 1 2 3 1.5 3.4q-.3 0-1-.4a3 3 0 0 0-2-.4c-.9.2-1.3 0-2.3-.8-1-1-2.1-1.4-2.1-.8l.8 2 .9 1.9-.7 2.2c-.8 2.3-1.7 3-1.7 1.3q0-1-.7-1.7c-.4-.4-.8-1.4-.9-2.2-.4-3.1-.5-3.7-.8-4.5-.4-1.1-1.6-2-2.8-2-1 0-1.6-.5-2.8-2.2q-.6-.8-1.3-.9-1.4-.2-.3-1 .7-.3 3-.1c2 .2 2.2.3 2.7 1.2l.6 1c.2-.2-1-5-1.3-5.5q-.4-.2-1 .3c-.8.8-2.2 1.3-2.5 1l.5-2.3c1-2.7 1-3.3 0-2.8s-1 .5-.8-1.4v-2.8c-.4-1-.5-.7-2.3 3.4-3 6.8-3.3 8.7-1.8 10.2q1.5 1.6 0 3.4c-1 1.1-1 2-.2 5.2q1.3 4.9 3.6 7.1c1.7 1.7 3 2.3 5.5 2.3 3.5 0 5.9-1.7 5.5-4q-.4-1.3.8-1.1c2.1 0 3.8 2 3.8 4.4q.1 3.8-5.4 4.8a6 6 0 0 1-4-.1c-1-.3-2.5-1-3.3-1.6-1.7-1-3-1.5-3-1a28 28 0 0 0 5.2 4.3 6 6 0 0 1 2 2.3q.3 1.2.2 1.5c-.4.3-4 .2-4.6-.2-.4-.2-1.6-1.7-2.7-3.3-2-2.9-2.4-3.5-2.8-3.1-.2.2.3 1 2.9 4.9 1.8 2.7 1.9 2.8 1.6 4.5-.2 2-.5 2-2.3 1.3q-2-1-2.5-4a22 22 0 0 0-2.1-6.2c-.5-.4-.5-.3-.3 1.2l1 5.2c.5 1.9.8 3.8.7 4.3-.2.7-2.1 4-2.3 4zm-18.3-31.7q1.8-.8 1.2-1.2l-1.4-.5c-.9 0-1 0-1.5 1.2l-.2 1.3zm37-4.3q1.4-1.3 2-1.4c1 0 1.3-.8.8-3.3-.3-1.3-.7-5-.9-8.2l-.5-5.9c-.2-.2-.5 4-.6 8.4a21 21 0 0 1-.2 4.5c-.7 0-2.6-5.2-3.3-8.7l-.5-2.4v2.4c0 2-.1 2.3-.5 1.9-.3-.2-1-1.2-1.4-2.2q-1.5-2.9-.4 1c.7 2.7 3 6.9 4.3 7.9.8.6.2 1.5-1 1.5h-1.1l.2 2q.4 3.6 1.2 3.8.4-.1 1.9-1.3m-32.8-1.2c.5-1.1.8-2.2.8-2.3h-2s.5-1.2 1.3-2.4c1.4-2.4 1.8-3.5 2.4-5.7l.6-2q0-.5-.8 1l-1 1.8v-2.9q-.2-2.6-.5-2.8-.3 0-.2.3c0 .1-.2 2-.7 4-.8 3.7-1.7 6-2.3 6-.1 0-.2-1.2 0-2.7.1-1.7 0-3.4-.2-4.2l-.9-4a100 100 0 0 0 .2 15.3q.4.2 1.2 1.4.8 1.3 1.1 1.4.3-.2 1-2.2M246.4 95q-1.2-1.2.2-1 .8.1.9 1 .2 1.3-1 0z" id="path5"/><path d="M267.4 160.9q0-.8.3-1.7c.4-.8.4-1-.4-2.2s-1.2-2.8-.7-3.3c.3-.3 2.3.4 3 1.1q.9.8 2.4.9h1.6l-1-1.1c-.7-.8-1.3-1.1-2.6-1.3-.9 0-1.9-.4-2.2-.7-.5-.5-.4-.6.6-1.5q1.1-1 2.1-1t1.2-.7l.7-1.6q1-1.7-.6-.8-.7.4-1.3.3-.6 0-2 1.5-1.3 1.6-2 1.5-1-.3-2-6.2c-.3-2-2.2-2.6-2.2-.8 0 .9 1 4.8 1.7 6.1.4.8.4 1 0 1.4q-.4.5-1-.4c-1.7-2.3-2-2.6-2.5-2.2q-.6.6-1.3.1l-1.1-.3q-.4.2.3.6t.8.8c0 .8 1.1 1.6 2.2 1.6 2.2 0 4 3 4 6.8 0 1.4 0 1.7.6 1.9q.6.2.7.8 0 1 .6 1.1zm-32.1-1.5q.3-.8.4-2.8c0-2 .2-2.2 1.3-3.3 1.4-1.2 4.6-3.3 5.3-3.3q.5 0 .5-.4t.5-.8q.8-.4-.6-.4c-1 0-1.6.2-2.7 1.1q-3.7 3.2-1.5-1.9c.8-2 .8-2.2.3-2.7l-.5-1q0-.5-.4-.3c-.4.1-1 2.2-1.8 5l-.5 1.4c-.4.7-1.6-.1-2.3-1.6q-.7-1.4-1.7-1.5l-1.8-.5-.9-.3.7.9q.7.8 1 1.7.2 1 1 1.1c1.3.3 2.6 1.2 2.6 1.7q-.2.4-2.3 1.5c-2.2 1-3.9 2.6-3.9 3.6q0 .5.5 0t1.4-.4 2.7-1.4l2-1.4c.5 0 0 2.3-.7 3.8q-.7 1.3-.5 2.7c.2 1.4.2 1.4.9.8q.7-.6 1-1.3m29.9-35.6q11.3-2.8 16.1-7.5c2.7-2.8 3.7-4.3 4.6-7.4 1.3-4.5.6-7.3-3.2-13l-1-1.4.8-.7 1-.6c.5 0 .4-1.2-.1-1.9-.7-1-2.2-.5-2.4.8s-1.1 1.4-1.4.1-1.3-2-2.3-1.4c-1.2.7-.5 2.7 1 2.7.6 0 1.4.6 1.4 1q-.1.3-1.1.5-2 .5-1.4 2c.5 1.4 2.6.7 3.2-1q.3-.7.8-.8c.5 0 2.8 4.8 3.4 7 1.3 5.5-3.2 12-11 16a82 82 0 0 1-12.5 4.5c-1.6.4-1.7.5-1.8 1.5-.1 1.1-.1 1.1 1 .8zm-22.8-.3q-.1-.5-1.4-.7c-4-.6-14-3.5-15.5-4.4l-1.3-1-1.7-1.2c-1.7-1-3.5-3.2-4.6-5.5-.7-1.6-1-2.6-1-5.2-.1-1.7 0-2.2.3-3.6.8-2.6 3-5.8 4.7-6.7q.3 0 .3.7c0 1.6 2.5 2 2.7.3q.1-1-.8-1.4-2.3-1.2.2-1.3 1.4.1 1.7-.8.8-1.6-.9-2.1-1.9-.4-2.1 1.3c-.1 1-1.1 1.3-1.1.3q0-1.2-1.3-1.6-.8-.2-1.3.7c-.7 1-.2 2.1 1 2.4l1 .3-1.2 1.2c-1.9 2-2.8 3.5-3.6 5.7-1.1 3-1.2 4.5-.6 8 .7 4.2 1.8 6.4 4.2 8.6 3.6 3.3 7.9 4.9 16.4 6 4.6.5 6 .5 6 0zm6.2-23.3.9-2.5c.4-1.9.4-2-.4-2.8l-1.8-2.4q-2-3-4.6-2.6c-1.3.1-2.7 1-2.7 1.6q0 .2.9 0c1.4-.7 2.4-.2 4 2.1.8 1.2 2 2.7 2.6 3.3q1.3 1.1.8 1.6-.8 1.2-3.5-1.6-2.9-2.7-1.4-.7c2.6 4.2 4 5.3 5.2 4m5.4-.7q.8-.5-.6-.3-1 .2-1-1.3c0-.8-.6-.8-.9 0-.5 1.4 1.6 2.8 2.6 1.6z" fill="#fcdd09" id="path6"/></g><g id="c"><g fill="#da121a" id="g6"><path id="a" d="M313.8 81.6c-2.6 0-2.9 2.6-4.8 2.6s-1.8-1.2-2.7-1.7c-.6 2.3.7 5 2.5 5 2.2 0 2.3-3 4.2-3 1.2 0 1.3 1.2 1.9 2.6.5 1.2 2 1.9 3.6 2.2-2.4 2-4.3 4.7-5.6 4.7-1.4 0-2.5-2-2.5-2-.7 1-1.2 4.3 1.6 4.3 1.5 0 3-1 3-1a42 42 0 0 0-5.2 18.8c0 2.4-2.2 5.8-4.7 7q.5 1.8 2.6 2c3.6 0 1.8-7.5 5.7-8.7-.8 5-.7 10-.3 16.3.2 4.2-1.7 7.4-4.5 8.7-1 .5.3 2 2.2 2 4.3 0 5-8.2 4.7-14.4l2.3 1v19c0 5.7-.9 7.5-3.6 9.3-1.4.6.6 1.8 2.8 1.8 4.9 0 3.4-10.7 4-19l2.7 1.3-.2 4.5c-.2 2 .9 2.7 1.4 4.1 0 0-.8 5-.8 10.7 0 4.6-1.2 5.8-3.1 6.6-.4.3-.7 1.4 2.6 1.5 4.7 0 3.9-8.3 3.9-13 0-7.8.5-18.7.5-18.7l2.5 1-.2 17.6c0 1.2-1.2 2.3-2.3 2.3q.5 1.3 2.3 1.4c1.8 0 2.4-1.9 2.3-3l.2-17.7 3.1 1.4s.2 1.8 0 3.4c-.2 1.7-1.8 2.6-1.8 2.6 1.1 2.3 2.8 1.7 3.3.9.8-1.4.6-6 .6-6l1.9 1s.1 6.7-.3 10.7c-.3 3.3.5 5 .6 5.2q-.1 3-2.2 5.8c-.6-1.3-2-4-4.5-4-2.2 0-3.4 2.4-3.4 2.4l.4.7s.7-.4 1.6-.4l1.2.3c.5.7 3 3.3 3 3.3s-2-.3-4.3-.3c-2.7 0-4.2 2.7-3.5 5.2q.7-1.6 2.5-1.5c1.6-1.1 4-1.4 5.4-1.4 0 1.2-2.3 2.4-2.8 5a4 4 0 0 0 1.7 4c-1.2.2-2 3-4.2 3.2 0 0 .5.8 2.1.8 3.1 0 4-2.8 5.5-2.8 1.2 0 2.3 2 5.1 2 2.2 0 3.5-1 3.5-1v2.1s-5.5 0-6.4.4c-.8.3-3.6 3.5-3.6 3.5 3.1.3 4-1.4 5.5-1.4a25 25 0 0 0 4.5-.5v1.6a17 17 0 0 0-5.4 5.6c1.2 0 1.9.4 5-1.3a5 5 0 0 1 2.3 2.9h.6c.3-1.5 1-2 1.7-2.6.9.7 3.2.8 5 1.1-1.8-2-2.3-3.3-4.5-4.6v-1.4c2.2.1 2.4 1.7 4 1.7.5 0 .5-.3 1.2-.3 1.6 0 2.7 1 3.7 2.1 1.4-2-.8-4-2.7-4l-2 .1c-1.2 0-1.6-1.7-4-2.4v-2.4c1 .3 2.4 2.9 5 2.9 2.7 0 3.1-2.4 5.3-2.4 1.4 0 3.4 2.1 3.4 2.1.6-1.7 0-4-1.2-5.2a7 7 0 0 0 1.9-1.6c.6-2.5-1.5-5-2.3-6.9 0 0 2 1.3 3.5 1.8l2.2.3q1.1 1.1 2 2.5.7-1.7.3-3.7c-.3-.7-1-2.4-2.8-3q-2.4-.5-4.3-.4 1.5-1.4 2.8-3h2s-.5-2.8-2.8-2.8c-1 0-.8.5-.8.5-1.8-.4-2.6 1.2-3.9 3.7l-3-5s.3-2.5.3-6.6-1.2-8.1-2.3-9.6q.7-.8.9-2.2v-4.1l1.7.8s-.3 2.7-.3 5.3c0 2.3.6 4.9 2.2 4.9 1.2 0 1.9-1.3 1.9-1.3-3.5-.1-2.8-7-1-7 .8 0 1.2 1 1.2 1.7 0 1.4-.1 2.3.1 3.6q.4 1.4 1.4 1.5a39 39 0 0 0-.5 6.8c0 2.5.3 5.3 2.9 5.3 1.1 0 1.6-.7 1.8-1.3q-1.1-.1-1.7-1.4c-1-3.3-.1-6.8.3-10.4-.9-6.2.2-8 1-9.2-.1 3.7.8 5.5 1.7 7l-.3 15.6q0 10.2 5 10.2c1.1 0 1.9-.6 1.9-.6-4.9-2.8-4.4-10.4-4.4-16 0-3.6-.6-14 1.8-17.2l1.2.4c0 4 0 9.8 1 14.6.8 3.9 2.3 7.3 4.6 7.3 1.4 0 2.6-1.2 2.9-2.2-3.8-.4-4.4-5.2-4.4-11l.2-10.3 1.9 2c-.3 2.1-.7 10.1 4.6 10.1q1.9-.2 2.1-2.4c-3.2-1-3.3-4.1-2.5-7-1.6-1.4-2-3.9-2-6q0-5.2.6-10c2.4 0 2 6.9 6 6.9 1.8 0 2.8-2.8 2.8-2.8q-2.9-.2-3.6-2c-1-2.8-.8-5.8-.8-9 0-1.2 0-2.7-.7-3.7-.4-2.3-2.1-5-3.8-6.2a11 11 0 0 0-.3-6.8q.7.3 1.7.3c4.3 0 3-2.7 2.7-2.7-.1 0-1.5 1.5-2.9 1.5q-1.3-.1-2-.5-1-1.8-2.4-3.4l1.8-2.7c1.3-2.3 2.8-4 3.7-4 1.2 0 1 .7 2.2.7 2.2 0 2.1-2.8 1.9-3.2s-1 1.2-2.2 1.2-1.2-1.5-2.8-1.5c-1 0-2.4 1-3.6 4.7q-.9 2.5-2 3.8-2.1-2-4.6-3.6c-2-1.3-4.3-.7-4.5 2.2-.2 2.1.9 3.3 1.9 4.5q.3 2.6 0 5.3a7 7 0 0 1-2.6 3.7c-.8.6-1.4.5-2.7.5-4.1 0-5 2.3-5 4.6 0 3 1.3 6.1 2.3 6.1.7 0 1.9-1.6 1.9-3.5 0-1.7-1.4-2.3-1.4-3.7s1-1.7 2.3-1.7c4.5 0 4.6-2.8 5.5-5 4.5 4 1.2 10.3-3 13a14 14 0 0 1-10.8 1.7q.4-4.7.1-9.3.7-.6 1.5-.7a10 10 0 0 0-1-7.4c2.2-1.2 2.1-3.6 5.2-3.7-2.5-3-6-2.2-8.3-5q1.7-1 2.7-2.4c-3.6 0-3.6-2.8-9-2.8-3.7 0-6.9 3.2-8.7 6a10 10 0 0 0-5.4 1.8 7 7 0 0 0-2.5 5c0 2 1.8 3.4 4.2 3.4 0 0 0-2.2 1.5-3.1 1.5-1 3.8-.2 3.8-.2s1.4-1.3 2.8-1.3q2 .1 2.2 1.9c0 1-1.5 1.6-3 1.6s-2.8.4-3.9 1c-1.8 1.1-1.8 3-1.8 3 1-.8 2-1.9 5.3-1.9a8 8 0 0 0 5-1.5v.7c0 1.8-.6 2.6-3.5 3.5.6.6 1.5.6 1.5 1.6s-3.5 3.8-5.6 5.3c1 2.5 1.1 5.8-4.6 5.8-3 0-8.3-2-11.8-4s-5-4-5-7.4a7 7 0 0 1 3.3-6.2q.3 0 .4-.3c1.4 2.5 2.1 5.9 4.8 5.9 2.8 0 4.5 2.6 4.2 5.7q2.1-1 2.3-5c0-1.9-1.3-2.8-3-2.8-1.5 0-1.7.4-3.2.4-2 0-3.4-2.9-4.7-5 .6-1.2.6-3.2.4-4.7-.3-1.6.2-2.3 1.5-3 1.2-.8 1.3-3.2-1.1-3.2a14 14 0 0 0-7.7 2.9q-1.2-.3-2.2-1c-1.4-1.2-1-2.2-1-3.5s-.9-2.7-2.2-2.7m39.9 73c.5 2.2 2 3.9 3.2 5.8l2.8 5.7c-2.2.3-4.8-.1-6 2-1.3-.2-.3 4.2 1.6 4.8 0-1.2-.1-2.4.3-2.5 1.9-2.2 4.4-1.1 6.2-1.6a20 20 0 0 1 1.8 4.6l-1 1.6c-2.6.2-4.2 2.6-6.4 2.6-1.4 0-3.2-1.1-3.4-2.2-.4-1.4-.6-3.8-.6-9 0-5 .5-10.8 1.5-11.8m-8.8.5c2.6 2.8 2.3 12.5 2.8 18.8.2 1.6-1.3 2.7-2.6 2.7-2.5 0-3-2.7-5.5-2.7-2 0-2 1.6-3.4 2q-.2-1.5 0-3.1c1.3-1.6 1.9-3.7 3-5.2 3.5-.2 5 2 5.9 2.2 0 .4 1.7 2.3 2.5 3.2-.2-1.6 0-3.3-.6-5h-.5c-.3-1.1-1-2-3-3.3a7 7 0 0 0-2.6-.4c1.6-1.8 1.8-3.7 2.4-5.7z"/></g><g stroke="#000" id="g8"><path d="M340.7 99.2q.6-2.8 5.5-3c2.5 0 4.3.2 4.3.2l-3.4 2.5s-1-1.4-2.6-1.4c-2.5 0-2.6 1.5-3.8 1.7z" stroke-width=".2" id="path7"/><path d="M345 91a4 4 0 0 1 1.8-1.6l1.1-.1.8.2q.3 0 .2.4t-.4.4h-1q-.3.5-.3 1.2-1.1.4-2.2-.5z" stroke-width=".1" id="path8"/></g><path d="M340.2 156.9q-.1 3-2.2 5.8c-.6-1.3-2-4-4.5-4-2.2 0-3.4 2.4-3.4 2.4l.4.7s.7-.4 1.6-.4l1.2.3c.5.7 3 3.3 3 3.3s-2-.3-4.3-.3c-2.7 0-4.2 2.7-3.5 5.2q.7-1.6 2.5-1.5c1.6-1.1 4-1.4 5.4-1.4 0 1.2-2.3 2.4-2.8 5a4 4 0 0 0 1.7 4l.2-.1h.6v-3.1c1.4-1.6 2-3.7 3.2-5.2 3.4-.2 5 2 5.8 2.2 0 .4 1.7 2.3 2.5 3.2-.2-1.6 0-3.3-.6-5h-.5c-.3-1.1-1-2-3-3.3a7 7 0 0 0-2.6-.4c1.6-1.8 1.8-3.8 2.4-5.8zm19.3 1.4-2.7 2 2.9 5.8c-2.2.3-4.8-.1-6 2-1.3-.2-.3 4.2 1.6 4.8 0-1.2-.1-2.4.3-2.5 1.9-2.2 4.4-1.1 6.2-1.6a20 20 0 0 1 1.8 4.6l-1 1.6h.2l.7.1h.1v.1h.2l.2.2h.2v.1l.3.1.2.2a7 7 0 0 0 1.9-1.6c.6-2.5-1.5-5-2.3-6.9 0 0 2 1.3 3.5 1.8l2.2.3q1.1 1.1 2 2.5c.4-1 .7-2.5.3-3.7-.3-.7-1-2.4-2.8-3q-2.4-.5-4.3-.4 1.6-1.4 2.8-3h2s-.5-2.8-2.8-2.8c-1 0-.8.5-.8.5-1.8-.4-2.6 1.2-3.9 3.7l-3-5zm-46.4-59a40 40 0 0 0-2.3 7.2c5.8 6.3 14.1 14 30.2 13-14.7-2.2-22.4-8.4-27.9-20.2m72.2 2.9a32 32 0 0 1-25.8 17.2c15 1 23.6-4.8 29.5-10.6a11 11 0 0 0-3.8-6.1v-.5zM342.8 89a10 10 0 0 0-5.4 1.7 7 7 0 0 0-2.5 5c0 2 1.8 3.4 4.2 3.4 0 0 0-2.2 1.5-3.1 1.5-1 3.8-.2 3.8-.2s1.4-1.3 2.8-1.3q2 .1 2.2 1.9c0 1-1.5 1.6-3 1.6q-2.3 0-3.9 1c-1.8 1.1-1.8 3-1.8 3 1-.8 2-1.9 5.3-1.9 3.6 0 6.6-2 6.6-4.7 0-2.4-2.4-4.2-5.4-4.2-2.2 0-4.4-2.3-4.4-2.3z" fill="#fcdd09" id="path9"/><g fill="none" stroke="#000" stroke-width=".2" id="g10"><use xlink:href="#a" id="use9"/><path d="M334.5 159a4 4 0 0 0-1.2 2.7m-2.8 3.3q-.7 1.6.4 3.4m14.1 1.5q1.2-.4 1.6-2m-13 4.3a3 3 0 0 1 2.5.6m17.7-4.6q1 .8 1.7 2.4m11-11.1 1.5 2.3m4.3 6.5q-1.6-.4-2 1.3m-3.8 4.6c-.7-.4-1.2-.8-3-.9m-27.3 2.5-.9.1m27.2-.9c.7 0 1.3 0 2.2.9" id="path10"/></g></g><use x="96.9" xlink:href="#b" y="115.4" id="use10"/><use x="-96.6" xlink:href="#c" y="115.9" id="use11"/><path d="M300 78.5V325m-98.9-131.5h197.2" stroke="#000" stroke-width="1.8" id="path11"/></g></svg>