<svg id="svg2" x="0px" y="0px" width="600" height="400" viewBox="0 0 600 400" xml:space="preserve" xmlns="http://www.w3.org/2000/svg"><g id="g23"><path id="rect2194" fill="#00943A" stroke="#395475" stroke-width="0.6" stroke-linecap="round" d="M.3.3h599.4v399.4H.3z"/></g><g id="g22"><path fill="#FFFFFF" id="polygon1" d="M219.7 79.2v241.6h160.5l.1-241.6z"/><path fill="#A2A4A3" id="rect1" d="M222.2 118.5h23.7V171h-23.7z"/><path fill="#A2A4A3" id="rect2" d="M222.3 228.9h23.6v52.6h-23.6z"/><path fill="#A2A4A3" id="polygon2" d="m245.9 173.7 6.7 19.6-2.3 2.3v8.7l2.2 2.2-6.6 19.8h-23.7v-52.6z"/><path fill="#A2A4A3" id="polygon3" d="M250.3 81.7v12.2l2.2 2.2-6.6 19.8h-23.7V81.7z"/><path fill="#A2A4A3" id="polygon4" d="M289.4 93.9V81.7H271v12.2l-2.2 2.2 6.5 19.8h9.8l6.6-19.8z"/><path fill="#A2A4A3" id="polygon5" d="M329 93.9V81.7h-18.5v12.2l-2.2 2.2 6.6 19.8h9.7l6.6-19.8z"/><path fill="#A2A4A3" id="polygon6" d="M349.7 81.7v12.2l-2.2 2.2 6.6 19.8h23.7V81.7z"/><path fill="#A2A4A3" id="polygon7" d="M245.9 284.1h-23.7v34.2H253v-12.6z"/><path fill="#A2A4A3" id="rect7" d="M275 118.5h10.5V171H275z"/><path fill="#A2A4A3" id="rect8" d="M275 229h10.5v52.5H275z"/><path fill="#A2A4A3" id="polygon8" d="m275 226.3-6.6-19.8 2.6-2.3v-8.7l-2.6-2.2 6.6-19.6h10.3l6.8 19.7-2.7 2.2v8.7l2.7 2.3-6.6 19.7h-5.2z"/><path fill="#A2A4A3" id="polygon9" d="M275 284.1h10.5l6.6 21.6v12.6h-23.7v-12.6z"/><path fill="#A2A4A3" id="rect9" d="M314.6 118.5H325V171h-10.4z"/><path fill="#A2A4A3" id="rect10" d="M314.5 228.9H325v52.6h-10.5z"/><path fill="#A2A4A3" id="polygon10" d="m314.5 226.3-6.6-19.7 2.6-2.3v-8.7l-2.6-2.2 6.7-19.7H325l6.7 19.7-2.7 2.2v8.7l2.7 2.3-6.7 19.7h-5.2z"/><path fill="#A2A4A3" id="polygon11" d="M314.6 284.1H325l7.1 21.6v12.6h-24.2v-12.6z"/><path fill="#C4262E" id="rect11" d="M248.6 118.5h23.7V171h-23.7z"/><path fill="#C4262E" id="rect12" d="M248.6 228.9h23.7v52.6h-23.7z"/><path fill="#C4262E" id="polygon12" d="m248.6 173.7 6.6 20.1-2.6 2.5v7.3l2.6 2.4-6.6 20.3h23.7l-6.7-20.4 2.8-2.4v-7.3l-2.7-2.5 6.6-20z"/><path fill="#C4262E" id="polygon13" d="m272.3 284.1-6.6 21.6v12.6h-10.5v-12.6l-6.6-21.6z"/><path fill="#C4262E" id="rect13" d="M288.1 118.5h23.7V171h-23.7z"/><path fill="#C4262E" id="rect14" d="M288.1 228.9h23.7v52.6h-23.7z"/><path fill="#C4262E" id="polygon14" d="m288.1 173.7 6.6 20.1-2.6 2.5v7.3l2.6 2.4-6.6 20.3h23.7l-6.5-20.3 2.6-2.4v-7.3l-2.6-2.5 6.5-20.1z"/><path fill="#C4262E" id="polygon15" d="m311.8 284.1-6.5 21.6v12.6h-10.6v-12.6l-6.6-21.6z"/><path fill="#C4262E" id="rect15" d="M327.7 118.5h23.7V171h-23.7z"/><path fill="#C4262E" id="rect16" d="M327.7 228.9h23.7v52.6h-23.7z"/><path fill="#C4262E" id="polygon16" d="m327.7 173.7 6.6 20.1-2.6 2.5v7.3l2.6 2.4-6.6 20.3h23.7l-6.6-20.3 2.7-2.4v-7.3l-2.7-2.5 6.6-20.1z"/><path fill="#C4262E" id="polygon17" d="m351.4 284.1-6.6 21.6v12.6h-10.5v-12.6l-6.6-21.6z"/><path fill="#C4262E" id="polygon18" d="M252.6 81.7v10.7l2.6 2.4-6.6 21.1h23.7l-6.6-21.1 2.8-2.4V81.7z"/><path fill="#C4262E" id="polygon19" d="M292.1 81.7v10.7l2.6 2.4-6.6 21.1h23.7l-6.6-21.1 2.8-2.4V81.7z"/><path fill="#C4262E" id="polygon20" d="M331.7 81.7v10.7l2.6 2.4-6.6 21.1h23.7l-6.6-21.1 2.8-2.4V81.7z"/><path fill="#A2A4A3" id="rect20" d="M354.1 228.9h23.7v52.6h-23.7z"/><path fill="#A2A4A3" id="rect21" d="M354.1 118.5h23.7V171h-23.7z"/><path fill="#A2A4A3" id="polygon21" d="m354.1 226.3-6.6-19.7 2.6-2.3v-8.7l-2.6-2.2 6.6-19.7h23.7v52.6z"/><path fill="#A2A4A3" id="polygon22" d="M354.1 284.1h23.6v34.2h-30.2v-12.6z"/></g></svg>