<svg xmlns="http://www.w3.org/2000/svg" xml:space="preserve" id="svg1727" width="1000" height="666.7" x="0" y="0" version="1.0" viewBox="0 0 1000 666.7"><g id="g1"><path id="rect1933" fill="#fcdd09" d="M0 0h1000v666.7H0z"/><path id="rect1935" fill="#da121a" d="M0 518.5h1000v74.1H0z"/><path id="rect1937" fill="#fbea0e" d="M0 444.4h1000v74.1H0z"/><path id="rect1939" fill="#da121a" d="M0 370.4h1000v74.1H0z"/><path id="rect1941" fill="#fbea0e" d="M0 296.3h1000v74.1H0z"/><path id="rect1943" fill="#da121a" d="M0 222.2h1000v74.1H0z"/><path id="rect1945" fill="#fbea0e" d="M0 148.2h1000v74.1H0z"/><path id="rect1947" fill="#da121a" d="M0 74.1h1000v74.1H0z"/></g><g id="g8765"><path id="path3435" d="m222.6 369.1-.1-112.2H322l.3 112.5" style="fill:#eac102;stroke:#000000;stroke-width:0.335892"/><path id="path1763" d="m321.9 369.1-.1-112.2h99l.2 112.5" style="fill:#0071bc;stroke:#000000;stroke-width:0.334909"/><path id="path1765" d="m222.5 368.8 198.5.4s.5 42.2-.8 56.8c-.1 17-21 93.2-100.5 93.2-80.9.4-97-68.7-97.2-97.2v-53.2z" style="fill:#eac102;stroke:#000000;stroke-width:0.3277"/><path id="path1767" d="M321.8 519.1c-18.5.6-35.5-2.3-46.6-8.4-9.1-5-17.7-9.3-25.2-17.8-5.7-6.5-11.4-14-15.5-21.9a116.1 116.1 0 0 1-11.8-44.8c-.5-22.8-.3-48.3-.1-57.4l99.2.2" style="fill:#e3e4e5;stroke:#000000;stroke-width:0.327044"/><path id="path1684" d="M311.2 503.2c-1-.3-.7-2.6 0-2.5 1.8 0 1.5 2.5 1.6 3-.5.2-1 0-1.6-.5z" style="fill:#999999;fill-opacity:1;stroke:#000000;stroke-width:0.374233"/><path id="path1675" d="M302.5 497.1c-.6-.6-2 .5-2.7-.5-.7-1 3.8-6.3 4.2-6.9.6-1.1.3-3.2.5-3.8 1-1.5 2.7-3.4 3.7-4.2 1.4.8 2.6 1.4 3.2 2 .3 1.7-1.8 4.4-2 5-.1 1.6-1.4 2.7-2.5 4.1-1.3 1.5-3.2 2.6-4.4 4.3z" style="fill:#999999;fill-opacity:1;stroke:#000000;stroke-width:0.374233"/><g id="g1661" style="fill:#999999;fill-opacity:1" transform="rotate(6.2 -3483.7 2714.6) scale(.1871)"><path id="path1663" d="M210 335.7a33 33 0 0 1 4.3 11.2c1 4.7 3.5 11.3 10 13 5.4 1.4 10 3.8 11.2 7.9 1.2 4.1 2 9.4 2 9.3l8.3-11.6-.2-9.8c0-6.4-4.8-8-9.6-9.7-4.7-1.8-10-4-11.4-6.6a44 44 0 0 0-7.3-9c-2-1.8-7.4 5.3-7.4 5.3z" style="fill:#999999;fill-opacity:1;stroke:#000000;stroke-width:2"/><path id="path1665" d="M218.6 390.3c4.5 8.2 5 19.4 6.9 27.3 4.2.1 8.9-11.3 14.2-14.8.3-6.1 1.9-14.6 3.6-17.2 8.6-12.5 2.5-19.6 2.5-19.6-8.5 10-8.8 17.2-27.2 24.3z" style="fill:#999999;fill-opacity:1;stroke:#000000;stroke-width:2"/></g><path id="path5136" d="M216.9 216.3c-2.9 0-3 10.4 1.8 10.2 2.4 0 52.3-5 103-5 51.4 0 104 3.7 105 3.6 2.2-.1 4.3-8.8 2.6-9-.3 0-15.2 13-27.6-1.7-12 8.8-16.3 5.7-26.7-.5-11.4 5.2-13.6 8.1-26.4-1.2-13.5 7.8-16 7.2-27-1.1-8.4 8.8-17.8 6.3-25 1.2-13.1 8-18.9 6.9-28.4 1.3-11.8 6.1-13.1 8.4-26 .2-14.2 13.9-24.7 2-25.3 2z" style="fill:#eac102;stroke:#000000;stroke-width:0.26216"/><path id="path1635" d="M218.4 225c-2.9 0-4.3 3.6.5 3.5 2.4-.1 52.5-4.2 103.2-4.2 51.4 0 103.3 4.2 104.4 4.1 2.2-.1 2.2-3.3.6-3.4-.9 0-53-4.8-105.1-4.8-51.1 0-102.2 4.8-103.6 4.8z" style="fill:#eac102;stroke:#000000;stroke-width:0.26216"/><path id="path15218" d="M272.9 286.5c-3.4 0-5.6-2.2-25.2-2.2-12 0-13.8 14.7-8.6 18.2 2 1.3 9.4 3.1 14.8 5.6 4.8 2.2 7.5 5.3 10.4 4.7 4.9-1 6.7-1.3 11.5-.6 8.2 1.2 18.6-1.9 22.7-6.1a46 46 0 0 0-.7-15.6c-.5-1.4-5.6-3.2-7.3-4a29.2 29.2 0 0 0-17.6 0z" style="fill:#008f4c"/><path id="path15324" d="M274 299c.2-.3-2.2 0-4.5 0-1.5 0-1.4 1.6-1.2 2.4.3.8 3.5 1 4.3.8 1.6-.3 1.5-1 2.2-2 .7-.7.4-.6-.9-1.2z" style="fill:#008f4c;stroke:#000000;stroke-width:0.241908"/><path id="path1778" d="m269.5 311.7 4.4-6.7s.9 16.7.9 25.2c0 8.4-1.6 8.8-.2 14.8.4 1.5 1.4 4.3 4.2 5.4 3.9 1.6 10.2 1.7 14 3.6 3.7 1.8 4.3 5.2 3.4 6.2-1.2-1-2.3-2.7-5.2-3.2-2.1-.4-2.6 0-5.3-.2-1 0-1 1.7-.3 4.4-3.8-2.9-7.4-4.4-8.5-4-1 .3.6 4.5.6 6.2-1.2-2.5-3.2-3.7-3.7-3.6-.6 0-1.5 3.8-2 4.3-1-1-1-5.4-1.6-5.4-1 0-1.9.4-5.6 3.4.2-2.6 2-5.6 1-5.6s-4.8 3.3-7.3 4.6c0-2 2.8-4.5 1.8-4.5-.8 0-2.2-.5-4-.2-2.4.4-5.6 1.9-8.9 3 0-1.5 3-4.2 5.3-5.4 2.6-1.2 5.5-.4 9-2.7 3.6-2.3 4.3-5.2 5.6-12.6 1.2-7.4-1.8-6.4-1-14.9.8-8.4 3.4-12.1 3.4-12.1z" style="fill:#784421;stroke:#000000;stroke-width:0.276578"/><path id="path5138" d="M217.5 228.4a99.7 99.7 0 0 0 4.8 24.9c8.6.4 58-3.5 101.1-3.5 51.5 0 96.2 3 97.3 3 2.2-.1 7-24.5 5.3-24.6-.9 0-49.7-4.3-101.8-4.3-51 0-105.2 4.5-106.7 4.5z" style="fill:#eac102;stroke:#000000;stroke-width:0.26216"/><path id="path1781" d="M263.6 237c0-3 2.6-5.3 5.8-5.3 3.2 0 5.8 2.3 5.8 5.3s-2.6 5.4-5.8 5.4c-3.2 0-5.8-2.4-5.8-5.4z" style="fill:#ed1c24;stroke:#000000;stroke-width:0.329076;stroke-linejoin:round"/><path id="path1783" d="M338.9 271.5h12.6l-1.3 13.2 12-3.3v15.8l-12.1-3.3.4 15.5c.3 5.4 1 6 1 6l-3.9-.9-2.4 15.7-2.5-15.8-3.9 1s.7-1 1-6.2c.5-5.3 1.1-15.3 1.1-15.3l-11.6 3.6v-16l10.7 3.1z" style="fill:#e3e4e5;stroke:#000000;stroke-width:0.655399"/><path id="use4298" d="M316.5 235c0-3 2.5-5.3 5.7-5.3s5.8 2.4 5.8 5.3c0 3-2.6 5.4-5.8 5.4a5.5 5.5 0 0 1-5.7-5.4z" style="fill:#ed1c24;stroke:#000000;stroke-width:0.329076;stroke-linejoin:round"/><path id="use4300" d="M368.5 235.7c0-3 2.6-5.3 5.7-5.3 3.2 0 5.8 2.4 5.8 5.3 0 3-2.6 5.4-5.8 5.4-3.1 0-5.7-2.4-5.7-5.4z" style="fill:#ed1c24;stroke:#000000;stroke-width:0.329076;stroke-linejoin:round"/><path id="rect4312" d="M-343.1-38.3h9.1v9.1h-9.1z" style="fill:#008f4c;stroke:#000000;stroke-width:0.262155;stroke-linecap:square" transform="rotate(-141.3)"/><path id="rect5187" d="M-444.6 147.2h9.1v9.1h-9.1z" style="fill:#008f4c;stroke:#000000;stroke-width:0.262154;stroke-linecap:square" transform="rotate(-130.3)"/><path id="rect5189" d="M-411.3 101.4h9.1v9.1h-9.1z" style="fill:#008f4c;stroke:#000000;stroke-width:0.262154;stroke-linecap:square" transform="rotate(-131.3)"/><path id="rect5191" d="M-380.5 33.2h9.1v9.1h-9.1z" style="fill:#008f4c;stroke:#000000;stroke-width:0.262159;stroke-linecap:square" transform="rotate(-135.7)"/><path id="path1600" d="M238 402.8c-.5-1-1-3.8-1.6-5.2-1.6-.5-4.4-.1-6.3-1.2-2.1-1.3.8-4 .6-5l-.7-.7c0-.3.3-1 .5-1.1-.3-.3-.7-1.6.7-1.5.5-.2.6-.5.8-.8l-.7-.4c-1.2-.7-.6-1.3.2-2 .5-.3 2.3-1.7 3.3-2.2.4-.3.5-.4.5-.9 0-.4.4-1 .8-1.3.3-.3 1.6-1.3 1.5-1.6 0-.3.3-.8.4-.9.2 0 .3-.4.4-.5 0-.1.3-.4.5-.4s.6-.3.5-.5c0-.2.6-.9.8-.9.2 0 .6.2 1-.2.3-.5 1.1-1 1.6-1l1-.5s.8-.3 1.3-.2l1.6.2 1.5.3 1 .2 1.9.8s.6 0 1.4.5c.8.5 1.5 1.4 1.9 1.5.3 0 .4.5.4.5s.4.7.8 1l.7.9 1 1.1 1.2 2.1s.5.5.3 1.2l.2 2.8v.6l-.2 1.4-.1.4c-.1.4-.4 1.7-1.2 2 0 .3-.3.6-.8 1.1-.6.5-1.8 1-1.6 1.3l-.4-.1c-.2-.2-.5-.3-.6.1 0 .6 0 .9-.6.9s-1.6.7-1.6 1.2l-1.2.5s-.2.2 0 .6c0 .5-.5 1.5-.5 1.6-.1.1 0 3.2-.2 3.4a53 53 0 0 0-12 .9z" style="fill:#e4d8cc;stroke:#000000;stroke-width:0.26216"/><path id="path1673" d="M246.7 395.1c-1.7-1.4 3.5-4.5 3.6-4 0 .3 3.4 2.6 3.3 2.9-.1.4-1 1-2.8 3.8-.5.4-1.8-1-4.1-2.7z" style="fill:#000000"/><path id="path9583" d="M238.5 377.2c.7-.3.4.1 1-.5.1-.8 0-.4.3-.6 1-.7 2.7-1.7 4-2 1.4-.5 2.7-.1 4.2.2.9.1 2.6.5 4.2 1.5.8.4 1.6.9 2.3 1.6.9.8 1.7 2 2.4 2.8l1.8 3.4c.4.6.1 1.7.1 2.4.1 1.1.4 2.1-.3 3.7-.5 1-.5 1.5-.9 1.6-.4 1.6-2.5 2-3.4 2.6h-.6a16 16 0 0 0-2.1-2.7c-1.6-1.7-2-3.6-4.2-4.3-1.8-2.1-6.9-5.2-9-7-1-1.1-.8-.7-.6-1.3z"/><path id="path1602" d="M240.4 375.9c-.5 0-.9.2-.7.7l.5 1.2s-.8-.8-1.1-.6c-.3.2-1 .4-.6.7.1.3.8 1 .8 1l-1-.7c-.4.3-.7 1 0 1.8l2.7 3.4c.3.5 1.2 1.2 1.7 1.4l2 1.2-1.3-.3c-.2 0 1.7 2 2.1 2.2.5-.4 4.2-1.3 4 2.3-.3.7-.3 1.2-.3 1.2s.7.3.9.7c0 .5.8.9 1.3 1 .4.3 1.2.5 1 .4l1 1c.2.2 1-.6.3-1.7-.3-.7-1.3-2-1.4-2.6a14 14 0 0 0-2-3.2c-.1-.4 0-.6-.5-1l-1.7-1.9c-.4-.5-.8-.7-1.4-1a26 26 0 0 1-4.5-4.5l3.3 3.2c.8.5 1.1.5.1-.9a36 36 0 0 0-4.2-5.5z" style="fill:#999999;fill-opacity:1;stroke:#000000;stroke-width:0.154674"/><path id="path1604" stroke-miterlimit="4.1" d="M247 389.8v.7l-.3.1a1 1 0 0 1-.3.1h-.5l-.1.2-.2.2-.2.3h-.5l-.1-.3v-.2" style="fill:none;stroke:#010101;stroke-width:0.200749;stroke-linecap:round;stroke-miterlimit:4.1"/><path id="path1606" d="M245.8 388.7c.8-.5 4-.2 2.1 1.8-.3.2 0 .4.1.3 2.3-2.5-1.3-2.9-2.1-2.4-.4.2-.1.3 0 .3z"/><path id="path1608" d="M238.7 379.4c1 .5 2 1.2 2.5 2.1.5 1 1.1 1.5 2 2l1.3.7v0" style="fill:none;stroke:#000000;stroke-width:0.211694;stroke-linecap:round"/><path id="path1610" d="M249.9 387.5c1.3 1.6 1.4 2 1.9 2.8l1 1.7.4 1c.2.4-1-2.1-2.4-2.5-.5-.3-.6-.3-.7-1a5 5 0 0 0-1-2.2 128 128 0 0 0-1.6-1.9" style="fill:none;stroke:#000000;stroke-width:0.211694"/><path id="path1612" d="m243.6 392 .5.8c.1.1.3.3.7.2.7-.2 1.7-1.1 2.3-1.3 1 .1 1.7-.2 2-.4" style="fill:none;stroke:#000000;stroke-width:0.209728;stroke-linecap:round"/><path id="path1614" d="M237.4 382.5a7 7 0 0 0 1.7 3c-.2.1-2.1-.7-3-.7 0 0 0-.7.3-1.2.4-.6 1-1 1-1z" style="stroke:#000000;stroke-width:0.224146"/><g id="g1624" style="fill:#999999;fill-opacity:1" transform="rotate(29.1 -494 640.6) scale(.18712)"><g id="g1628" style="fill:#999999;fill-opacity:1"><g id="g1632" style="fill:#999999;fill-opacity:1"><path id="path1634" d="M210 335.7c1.7 3 3.5 6.5 4.3 11.2 1 4.7 3.5 11.3 10 13 5.4 1.4 10 3.8 11.2 7.9 1.2 4 2 9.4 2 9.3l8.3-11.6-.2-9.8c0-6.4-4.9-8-9.6-9.7-4.7-1.8-10-4-11.4-6.6a44.1 44.1 0 0 0-7.3-9c-2-1.8-7.4 5.3-7.4 5.3z" style="fill:#999999;fill-opacity:1;stroke:#000000;stroke-width:2"/><path id="path1636" d="M169.5 434.5c8.4 7.6 20.8 23.2 22.7 31 3.2-6.1 23.8-27 28.5-32.6 13.9-17 20.9-44.7 22.6-47.3C252 373 246 366 246 366c-8.6 10-12 19-23.7 30.7l-15.5 16.6-15.2 10.5z" style="fill:#999999;fill-opacity:1;stroke:#000000;stroke-width:2"/><path id="path1638" d="M166.8 456c-.3 2 8 13.8 12.6 14.1 4.5.3 10.2 1.2 12.3-3.5 0 0 0-4.9-6-14.2-3.2-5-5.6-6.6-5.6-6.6z" style="fill:#999999;fill-opacity:1;stroke:#000000;stroke-width:2"/></g><path id="path1630" d="M256 317.8c-8.7-7.4-22.3.2-35.5 5.2-4 .3-5.6-.3-5.6-.3l1.2 6.5c5.8 6 8.6 2 16.5 5.2 8.1 3.3 30.3 32 27.8 47.4-2.4 15.7-37.3 40.3-46.6 46.9a72.7 72.7 0 0 1 27.1 23.7 104 104 0 0 0 42.2-47.4c1.7-4.4-1-19-1.2-26-.7-23.9-18.7-55.3-25.8-61.2z" style="fill:#999999;fill-opacity:1;stroke:#000000;stroke-width:2"/></g></g><path id="path1640" d="M254.1 393.6c0-.4.3-.3.6 0 .5.9-.6 1.6-1.5 1.5-.5 0-.4-.7.3-.6.6.2.6-.9.6-.9z" style="fill:#999999;fill-opacity:1;stroke:#000000;stroke-width:0.187116"/><path id="path1642" d="m255.4 402.7-.1.3-.4.7-.3.6" style="fill:none;stroke:#000000;stroke-width:0.233912"/><path id="path1644" d="M254.9 402.7v.1l-.1.2-.3.7-.4.6" style="fill:none;stroke:#000000;stroke-width:0.233912"/><path id="path1646" d="m243.6 412.1-.2.4c0 .2-.2.4-.3.5" style="fill:none;stroke:#000000;stroke-width:0.233912"/><path id="path1648" d="m242.9 412.3-.4.7v.2" style="fill:none;stroke:#000000;stroke-width:0.233912"/><path id="path1650" d="m242.2 412.3-.3.8-.3.3" style="fill:none;stroke:#000000;stroke-width:0.233912"/><path id="path1652" d="M241.5 412.5v.2l-.4.7-.4.5" style="fill:none;stroke:#000000;stroke-width:0.233912"/><path id="path1654" d="m240.8 412.9-.3.5c0 .2-.2.3-.3.5 0 .2-.2.3-.3.4l-.1.1" style="fill:none;stroke:#000000;stroke-width:0.233912"/><path id="path1656" d="m255.7 403-.3.5-.2.3" style="fill:none;stroke:#000000;stroke-width:0.233912"/><path id="path1658" d="M255 394.2c.5.3 1.7 1 2.4.8h.7" style="fill:#999999;fill-opacity:1;stroke:#000000;stroke-width:0.355;stroke-miterlimit:4;stroke-dasharray:none"/><path id="path1660" d="M254.9 394.4c.4.5 1.5 1.2 2.2 1.2h.7" style="fill:none;stroke:#000000;stroke-width:0.355;stroke-miterlimit:4;stroke-dasharray:none"/><path id="path1662" d="M254.5 395c0 .5.2.7 0 1.2l-.1.4" style="fill:none;stroke:#000000;stroke-width:0.187116"/><path id="path1664" d="M254 395c.2.6.3.9.1 1.4l-.1.5" style="fill:none;stroke:#000000;stroke-width:0.187116"/><path id="path1666" d="M253.7 395.2c-.3.7-.5 2.2-.3 2.9l.2.6" style="fill:none;stroke:#000000;stroke-width:0.355;stroke-miterlimit:4;stroke-dasharray:none"/><path id="path1668" d="m237.8 412.8-.5-1.1v-.3" style="fill:none;stroke:#000000;stroke-width:0.223753"/><path id="path1670" d="m237.2 412.9-.6-1.2v-.3" style="fill:none;stroke:#000000;stroke-width:0.223753"/><path id="path1672" d="M236.8 413.3a3 3 0 0 1-.7-1.2v-.2" style="fill:none;stroke:#000000;stroke-width:0.253115"/><path id="path1674" d="M258 413c.2-.3.6-.9.7-1.3l.2-.4" style="fill:none;stroke:#000000;stroke-width:0.187116"/><path id="path1676" d="m255.6 395.6.6.5h.2" style="fill:none;stroke:#000000;stroke-width:0.187116"/><path id="path1678" d="M260.3 396.4c.6 1 .8 4 .8 4.3l-.1.4" style="fill:none;stroke:#000000;stroke-width:0.246102"/><path id="path1843" d="M244 190.5c-1.5-.7-2.8-.8-4.9 0a135 135 0 0 0-7.5-8.8c.3-2.9 6.4-7.5 9.3-7.5 3 0 8.7 2.7 10 7.7-2.6 3-6 7-7 8.6z" style="fill:#eac102;stroke:#000000;stroke-width:0.26216"/><path id="path2718" d="M239.2 196.8c2.6 1.3 3 .8 5 0a147 147 0 0 0 7 8.4c-.3 1.6-3.9 6.6-8.5 6.8-2.3 0-8.7-1.8-10-6.7 2.6-3.1 5.5-7 6.5-8.5z" style="fill:#eac102;stroke:#000000;stroke-width:0.26216"/><path id="path2720" d="M244.1 196.6a5 5 0 0 0 0-6c.8-1.2 4.7-6.8 6.8-8.6 1.6.5 4.1 6.3 4 11-.2 2.2 0 8.7-3.6 12.2-2.8-2.7-5.8-7.2-7.2-8.6z" style="fill:#eac102;stroke:#000000;stroke-width:0.26216"/><path id="path2722" d="M239.2 190.5c-.9 1.2-1.8 4-.1 6.2-.8 1.2-4.4 6.6-6.5 8.4-1.6-.4-4.2-6.1-4.2-10.8 0-2.3-.3-8.7 3.2-12.3 3 2.6 6.2 7.2 7.6 8.5z" style="fill:#eac102;stroke:#000000;stroke-width:0.26216"/><path id="path2724" d="M75.5 165.2a7.7 7.4 0 0 1-10-4.1 7.7 7.4 0 0 1 4.3-9.6 7.7 7.4 0 0 1 10 4 7.7 7.4 0 0 1-4.2 9.7" style="fill:#eac102;fill-opacity:1;stroke:#000000;stroke-width:0.4" transform="translate(194.3 90.2) scale(.6554)"/><path id="path2735" d="M297.3 188.4c-1.5-.8-2.8-.8-4.9 0-.8-1.1-5.6-6.8-7.5-8.8.3-2.9 6.3-7.6 9.3-7.5 3 0 8.7 2.7 10 7.6-2.6 3.1-6 7.2-7 8.7z" style="fill:#eac102;stroke:#000000;stroke-width:0.26216"/><path id="path2737" d="M292.5 194.7c2.5 1.3 3 .7 5-.1.7 1.2 5.2 6.5 7 8.5-.3 1.6-3.9 6.6-8.5 6.7-2.3.1-8.7-1.7-10-6.7 2.6-3 5.5-6.8 6.5-8.4z" style="fill:#eac102;stroke:#000000;stroke-width:0.26216"/><path id="path2739" d="M297.4 194.5a5 5 0 0 0 0-6c.8-1.2 4.7-6.8 6.8-8.6 1.6.5 4 6.3 4 11-.2 2.2 0 8.6-3.6 12.2-2.9-2.8-5.8-7.2-7.2-8.6z" style="fill:#eac102;stroke:#000000;stroke-width:0.26216"/><path id="path2741" d="M292.5 188.4c-.9 1.2-1.8 4-.1 6.2-.8 1.2-4.4 6.6-6.5 8.4-1.6-.4-4.2-6.2-4.2-10.8 0-2.3-.4-8.7 3.2-12.3 3 2.6 6.1 7.2 7.6 8.5z" style="fill:#eac102;stroke:#000000;stroke-width:0.26216"/><path id="path2743" d="M75.5 165.2a7.7 7.4 0 0 1-10-4.1 7.7 7.4 0 0 1 4.3-9.6 7.7 7.4 0 0 1 10 4 7.7 7.4 0 0 1-4.2 9.7" style="fill:#eac102;fill-opacity:1;stroke:#000000;stroke-width:0.4" transform="translate(247.6 88) scale(.6554)"/><path id="path2747" d="M351 188.5c-1.4-.8-2.7-1-4.8-.1a117 117 0 0 0-7.1-9.2c.4-2.9 6.6-7.3 9.6-7.1 3 .2 8.5 3 9.6 8l-7.3 8.4z" style="fill:#eac102;stroke:#000000;stroke-width:0.262159"/><path id="path2749" d="M346 194.6c2.5 1.4 3 .9 5 0 .7 1.3 4.9 6.8 6.7 8.9-.4 1.6-4.2 6.4-8.9 6.4-2.2 0-8.6-2.1-9.6-7.2 2.7-3 5.7-6.6 6.8-8.1z" style="fill:#eac102;stroke:#000000;stroke-width:0.262159"/><path id="path2751" d="M351 194.6c.9-1.1 1.7-3.7.1-6 1-1.1 5-6.6 7.3-8.3 1.5.6 3.7 6.5 3.4 11.1-.2 2.3-.2 8.7-4 12-2.8-2.8-5.5-7.4-6.9-8.8z" style="fill:#eac102;stroke:#000000;stroke-width:0.262159"/><path id="path2753" d="M346.3 188.3c-1 1.2-2 4-.4 6.2-.8 1.1-4.7 6.4-6.8 8-1.6-.4-4-6.2-3.7-10.9 0-2.3 0-8.7 3.6-12.2 2.9 2.8 5.9 7.5 7.3 9z" style="fill:#eac102;stroke:#000000;stroke-width:0.262159"/><path id="path2755" d="M75.5 165.2a7.7 7.4 0 0 1-10-4.1 7.7 7.4 0 0 1 4.3-9.6 7.7 7.4 0 0 1 10 4 7.7 7.4 0 0 1-4.2 9.7" style="fill:#eac102;fill-opacity:1;stroke:#000000;stroke-width:0.4" transform="rotate(2.5 -1844.5 7121.4) scale(.6554)"/><path id="path2759" d="M405 190.5c-1.4-.9-2.7-1-4.8-.3-.7-1.3-5-7.3-6.8-9.4.5-3 6.9-7 9.9-6.8 2.9.3 8.4 3.3 9.2 8.4-2.7 2.8-6.4 6.6-7.5 8.1z" style="fill:#eac102;stroke:#000000;stroke-width:0.26216"/><path id="path2761" d="M399.8 196.4c2.4 1.4 2.8 1 5 .3a101 101 0 0 0 6.4 9c-.5 1.6-4.5 6.3-9.1 6-2.3 0-8.6-2.4-9.4-7.4 2.8-2.9 6-6.4 7-7.9z" style="fill:#eac102;stroke:#000000;stroke-width:0.26216"/><path id="path2763" d="M404.7 196.5a5 5 0 0 0 .4-6c1-1 5.3-6.3 7.5-8 1.6.7 3.6 6.6 3 11.3-.2 2.2-.5 8.6-4.4 11.9-2.6-3-5.2-7.7-6.5-9.2z" style="fill:#eac102;stroke:#000000;stroke-width:0.26216"/><path id="path2765" d="M400.3 190.1c-1 1.1-2.2 3.9-.6 6.2-1 1-5 6.2-7.1 7.8-1.6-.5-3.8-6.4-3.4-11 .2-2.3.3-8.8 4.1-12.1 2.8 2.9 5.6 7.7 7 9.1z" style="fill:#eac102;stroke:#000000;stroke-width:0.26216"/><path id="path2767" d="M75.5 165.2a7.7 7.4 0 0 1-10-4.1 7.7 7.4 0 0 1 4.3-9.6 7.7 7.4 0 0 1 10 4 7.7 7.4 0 0 1-4.2 9.7" style="fill:#eac102;fill-opacity:1;stroke:#000000;stroke-width:0.4" transform="rotate(4.5 -932 4699.7) scale(.6554)"/><path id="path5414" d="m264 178.9 6.5-.2c.7 0 4.7.6 6.6 4.3 2 1 2.3 1.2 4.3 3 0 2.5 0 8.6-1.5 12.7-.1.4-1.2 1.5-2.5 1.8-.1 6.3-6.5 12-9.3 12.3-3.2 0-10.5-6.4-9.3-12.6-1.6-.6-2.4-2-2.6-2.9-.6-2.7-2-7.8-1.7-11.4 2-1.8 3-1.4 4.2-2.4 1.8-2.5 3.4-4.6 5.4-4.6z" style="fill:#eac102;stroke:#000000;stroke-width:0.26216"/><path id="path2781" d="M277.3 159.8c-2 1.6-6.2 5.2-6.2 8.1v6.7c.2 2.5 1.4 8.4 1.4 10 0 1.8.3 4 .4 5.8 0 1.8-.5 4-2 5-1.7 1-4.8.7-6-.3-1.4-1-1.7-3.3-2-5-.2-1.6.2-3.2.3-4.9 0-1.7.8-8.2 1.3-10.6.5-2.3.1-4.2.1-6.6 0-2.9-3-5-6.6-7.7a9.6 9.6 0 0 1 4.7-3c1-3 2.9-4.7 5.1-7 2.2 2 4 4.7 4.4 7.2 1.7-.1 3.7 1.3 5 2.3z" style="fill:#eac102;stroke:#000000;stroke-width:0.26216"/><path id="path6289" d="m317.5 177.6 6.5-.1a8 8 0 0 1 6.5 4.3c2 1 2.4 1.1 4.3 3 0 2.4 0 8.5-1.5 12.6-.1.5-1.2 1.5-2.5 1.8 0 6.3-6.5 12-9.3 12.3-3.1 0-10.5-6.3-9.3-12.6-1.6-.6-2.4-2-2.6-2.9-.6-2.7-2-7.8-1.7-11.4 2-1.8 3-1.4 4.3-2.4 1.7-2.5 3.3-4.5 5.3-4.6z" style="fill:#eac102;stroke:#000000;stroke-width:0.26216"/><path id="path5402" d="M330.5 158c-2 1.5-6.2 5.1-6.2 8l.1 6.7c.2 2.5 1.3 8.4 1.3 10.1 0 1.7.4 3.8.4 5.7 0 1.8-.5 4-2 5-1.6 1-4.7.8-6-.2-1.4-1-1.7-3.4-1.9-5-.2-1.7.2-3.2.2-5 0-1.7.9-8.2 1.4-10.5.4-2.4 0-4.3 0-6.6 0-3-3-5.1-6.5-7.8a9.6 9.6 0 0 1 4.7-2.9c.9-3 2.8-4.8 5-7a14 14 0 0 1 4.5 7c1.6 0 3.7 1.4 5 2.4z" style="fill:#eac102;stroke:#000000;stroke-width:0.26216"/><path id="path6291" d="M371.8 179c2.4-.2 4-.2 6.4-.2.7 0 4.6.6 6.6 4.3 2 1 2.3 1.1 4.3 3 0 2.4 0 8.6-1.5 12.6-.2.5-1.3 1.5-2.5 1.9-.1 6.3-6.6 12-9.3 12.3-3.2 0-10.5-6.4-9.3-12.7-1.6-.6-2.4-2-2.6-2.8-.6-2.8-2-7.8-1.8-11.5 2.1-1.7 3-1.4 4.3-2.3 1.7-2.6 3.4-4.6 5.4-4.7z" style="fill:#eac102;stroke:#000000;stroke-width:0.26216"/><path id="path5404" d="M384.1 160.6c-2 1.6-6.2 5.2-6.2 8.1v6.7c.2 2.5 1.4 8.4 1.4 10 0 1.8.3 4 .4 5.8 0 1.8-.5 4-2 5-1.7 1-4.8.7-6-.3-1.4-1-1.7-3.3-2-5-.2-1.6.3-3.2.3-4.9 0-1.7.9-8.2 1.3-10.6.5-2.3.1-4.2.1-6.6 0-2.9-3-5-6.5-7.7a9.6 9.6 0 0 1 4.7-3c.9-3 2.8-4.7 5-7 2.2 2 4 4.7 4.5 7.2 1.6-.1 3.6 1.3 5 2.3z" style="fill:#eac102;stroke:#000000;stroke-width:0.26216"/><path id="path4343" d="M237.2 391h1.4c2 0-.5 0 0 0s1 0 1.4-.2l1.8-.4c-.5.2-1.1.8-1.7.8-1 .2-2 0-3 .1h-1.5z"/><path id="path9585" d="M245.5 373.9c-.5 0-.9 0-1.7.3-.8.1-2.4.8-2.1 1-.4.3 1.2 1.7 1.9 2.4.6.7 2 3 2.3 3.5.3.5 1 2 1.4 2.2l1.5 1.2c-.2 0 1.2 1.5 1.6 1.7.6 1.2.3.7 1.2 2 .9 1.2 1 2.4 1 2.4s1.6 2.8 1.3 2.6c-.2 0 .7.1 1 .4.2.2 1.8-1 2.4-2 .1-.3 1-1 1.4-3a23 23 0 0 0 0-5c-.2-.5-1.5-3.2-2-3.5-.6-.4-1.8-2-2.2-2.4a8.6 8.6 0 0 0-2-1.5c-.5-.3-.7-.5-2.1-1-1.3-.6-2.5-.8-3.2-1z" style="fill:#999999;fill-opacity:1;stroke:#000000;stroke-width:0.0233977"/><path id="path9587" d="M249.5 383.2c.9.7 1.7 1.5 2 2.5.4 1 1 1.7 1.7 2.3l1.1 1v0" style="fill:none;stroke:#000000;stroke-width:0.211694;stroke-linecap:round"/><path id="path9589" d="M244.9 377.5c.9.7 2.6 1 3 2.5.4 1 1 1.7 1.7 2.3l1.2.9v0" style="fill:none;stroke:#000000;stroke-width:0.211694;stroke-linecap:round"/><path id="path9591" d="M244.5 375c.9.7 3.1 1.7 3.5 2.8" style="fill:none;stroke:#000000;stroke-width:0.211694;stroke-linecap:round"/><path id="path9593" d="M251.5 379.1a5 5 0 0 1 1.5 2.4 4 4 0 0 0 1 2.2l1 .9v0" style="fill:none;stroke:#000000;stroke-width:0.180759;stroke-linecap:round"/><path id="path10468" d="M229.5 394c.3 0 1 1.1 1.3 1.4.5.4.6.5 1.2.7 1.7.3 1.7.2 3 .1 1.1 0 1.5.1 2.6-.2a9 9 0 0 0 2.7-1l.9-1c.2-.4 3.3-7.6 3.4-7 0 .3 1 .7.9 1l-3.3 6.9a3 3 0 0 1-.6.5l-1 .8c-.9.6-3.3 1.4-4.2 1.5-2 .2-5.4.5-7.5 0-.2-1.6.6-3.8.6-3.8z" style="fill:#000000"/><path id="path10471" d="M292.3 403.7c-.5-.9-1-3.8-1.6-5.2-1.6-.4-4.4 0-6.3-1.1-2.1-1.4.8-4 .6-5l-.7-.7c0-.4.3-1 .6-1.2-.3-.2-.8-1.5.6-1.5.5-.2.6-.5.8-.8l-.7-.4c-1.2-.6-.6-1.3.2-2 .5-.3 2.3-1.7 3.3-2.2.4-.2.5-.4.5-.8 0-.5.4-1 .8-1.4.3-.3 1.6-1.3 1.5-1.5 0-.3.3-.9.5-1l.3-.4c0-.2.3-.4.5-.4.3 0 .6-.4.6-.6 0-.1.5-.9.7-.8.2 0 .7.1 1-.2a3 3 0 0 1 1.6-1.1l1-.4s.8-.3 1.3-.2l1.6.1 1.5.3s.5 0 1 .3c.4.1 2 .7 1.9.8 0 0 .6 0 1.4.5.8.5 1.5 1.4 1.9 1.4.3 0 .4.6.4.6s.4.6.9.9l.7.9 1 1.2 1 2s.6.6.5 1.3v2.8l.2.6-.2 1.4-.2.4c-.1.3-.4 1.6-1.1 1.9 0 .3-.3.6-.8 1.2-.6.4-1.8 1-1.7 1.2.2.2-.1 0-.4 0-.2-.2-.5-.4-.6 0 0 .6 0 1-.6 1-.6-.1-1.6.7-1.5 1.2l-1.3.5v.6c.1.4-.4 1.5-.5 1.5l-.1 3.4c-3.2-.1-9 .3-12 1z" style="fill:#e4d8cc;stroke:#000000;stroke-width:0.26216"/><path id="path10609" d="M293 378.2c.6-.3.2 0 .8-.6.2-.7 0-.3.4-.6a15 15 0 0 1 4-2c1.3-.5 2.7-.1 4.2.2.8.2 2.6.5 4.2 1.5l2.2 1.6c1 .9 1.8 2 2.5 2.9l1.8 3.3c.3.6 0 1.7.1 2.5 0 1 .4 2-.3 3.6-.5 1-.6 1.5-1 1.6-.3 1.6-2.4 2.1-3.3 2.6h-.6a16 16 0 0 0-2.2-2.6c-1.6-1.8-2-3.6-4-4.3-1.9-2.2-7-5.3-9.1-7.1-1.1-1-.8-.7-.7-1.3z"/><path id="path1671" d="M301.2 395.8c-1.7-1.4 3.5-4.6 3.6-4 0 .3 3.4 2.6 3.3 2.8-.1.4-1 1.1-2.8 3.9-.5.4-1.8-1.1-4.1-2.7z" style="fill:#000000"/><path id="path10603" d="M299.9 374.8c-.6 0-1 0-1.8.3-.7.2-2.4.8-2 1-.4.3 1.2 1.7 1.8 2.4.6.7 2 3 2.4 3.6.3.4 1 1.9 1.4 2.2l1.4 1.1c-.2 0 1.2 1.6 1.6 1.7.6 1.2.3.8 1.3 2 .9 1.3 1 2.4 1 2.4s1.5 2.8 1.3 2.7l.9.3c.2.2 1.9-1 2.4-2 .2-.2 1.1-1 1.4-3 .3-1.7 0-4.7 0-5 0-.5-1.5-3.1-2-3.5-.6-.4-1.8-1.9-2.2-2.4a8.7 8.7 0 0 0-1.9-1.4c-.6-.4-.8-.5-2.1-1-1.3-.7-2.5-.8-3.3-1z" style="fill:#999999;fill-opacity:1;stroke:#000000;stroke-width:0.0233977"/><path id="path10473" d="M294.8 376.8c-.6.1-1 .2-.8.7l.5 1.2s-.8-.8-1.1-.6c-.3.2-.9.5-.6.7l.9 1.1-1.1-.7c-.4.3-.7 1 0 1.7l2.8 3.4c.3.5 1.2 1.2 1.6 1.5l2 1.2-1.3-.3c-.2-.1 1.8 2 2.2 2.1.4-.3 4-1.2 3.9 2.3l-.2 1.2s.7.3.8.8c.1.4.8.8 1.3 1 .5.2 1.3.5 1 .3l1 1c.2.2 1.2-.3.3-1.7-.3-.6-1.3-2-1.3-2.6a14 14 0 0 0-2-3.2c-.2-.4 0-.6-.5-1a9.8 9.8 0 0 1-1.7-1.8c-.5-.5-.9-.7-1.5-1-.5-.4-3.8-3.5-4.5-4.6l3.4 3.2c.7.6 1 .6 0-.8a36 36 0 0 0-4.2-5.5z" style="fill:#999999;fill-opacity:1;stroke:#000000;stroke-width:0.154674"/><path id="path10475" d="M293 380.3c1 .6 2 1.2 2.5 2.1.5 1 1.2 1.5 2 2l1.3.7v0" style="fill:none;stroke:#000000;stroke-width:0.211694;stroke-linecap:round"/><path id="path10477" d="M291.8 383.5c.4 1.2.8 2 1.6 2.9-.1.2-2.1-.7-3-.7 0 0 0-.6.4-1.2.3-.6 1-1 1-1z" style="stroke:#000000;stroke-width:0.224146"/><path id="path4303" d="M313.4 413c-.2 1-1.5-3-.5-3.2 1 .2 1.9 2 1.9 2.6-.8 0-.8-.4-1.4.7z" style="fill:#999999;fill-opacity:1;stroke:#000000;stroke-width:0.3277"/><g id="g10479" style="fill:#999999;fill-opacity:1" transform="matrix(.02669 .1852 -.1852 .02669 358 359.6)"><path id="path10481" d="M240.5 258.4c.1 1.3.5 6.9 0 7a12 12 0 0 0-8.1 3.7c-2.8 2.7-9 7.3-12.5 1-1.8-3.7 2.6-5.4 4.8-5.4 2.3 0 5.8-1.8 9.4-2.7 3.7-.9 5.1-3.2 5.6-2.8z" style="fill:#999999;fill-opacity:1;stroke:#000000;stroke-width:2"/><g id="g10483" style="fill:#999999;fill-opacity:1"><path id="path10485" d="M254.8 272.3c.5-.3 2.9-3.4 1.6-7.3-1.7-2.6 8 2.9 6 5.8-2.6 2-7.8 2-7.6 1.5z" style="fill:#999999;fill-opacity:1;stroke:#000000;stroke-width:2"/><g id="g10487" style="fill:#999999;fill-opacity:1"><path id="path10489" d="M231.6 260c0-.6-.2-6 0-7.2 1.8-.2 7.2-1 8.3.7 4.2 6.4-8 9.5-8.3 8.6z" style="fill:#999999;fill-opacity:1;stroke:#000000;stroke-width:2"/><g id="g10491" style="fill:#999999;fill-opacity:1"><path id="path10493" d="m221.7 272.7 7.7 26.5s4.3 18.8-8.9 23.8c-4 .3-8.4 1.9-8.4 1.9l4.2 4.3c5.9 6 9.4 4.6 14.4 2.5 5-2 5.2-2.2 7.9-3.7 2.6-1.4 6.3-9.7 6.7-12 1.1-6.2 5-18.2 16.5-43.6-2.1-.2-15.7 1.2-16.6 1.2-.4.7-2.5 4.2-5.8 5.6-3.6 1.4-8.8-2.8-3.6-6.2 2.6-1.7 11.1.3 11-4.2-.2-3.9-6-3.5-8.3-3.2-2.4.3-5.6 3-7 4.4-3.4 3.3-8 3.9-9.8 2.7z" style="fill:#999999;fill-opacity:1;stroke:#000000;stroke-width:2"/><g id="g10495" style="fill:#999999;fill-opacity:1"><path id="path10497" d="M214.3 346.9c1 4.7 3.5 11.3 10 13 5.4 1.4 10 3.7 11.2 7.9 1.2 4 2 9.4 2 9.3l8.3-11.6-.2-9.8c0-6.4-4.8-8-9.6-9.7-4.7-1.8-10-4-11.4-6.6a44.3 44.3 0 0 0-7.3-9c-1.1-1-4 1-5.6 2.6-1.4 1.5 1.8 9.2 2.6 13.9z" style="fill:#999999;fill-opacity:1;stroke:#000000;stroke-width:2"/><path id="path10499" d="M227.4 418.4a40.2 40.2 0 0 1 12.3-15.6 48 48 0 0 1 3.6-17.2c8.6-12.5 2.5-19.6 2.5-19.6-8.5 10-12.5 21.7-27.6 25.2a243 243 0 0 1 9.3 27.3z" style="fill:#999999;fill-opacity:1;stroke:#000000;stroke-width:2"/><path id="path10501" d="M204.1 419.6c-.2 2 8.1 8.7 12.7 9 4.5.4 9.7-4.8 10.5-9l-5.6-19.1-14.2 16.6z" style="fill:#999999;fill-opacity:1;stroke:#000000;stroke-width:2"/></g></g></g></g></g><path id="path10505" d="M303.8 384.2c.9.7 1.8 1.4 2.1 2.5.4 1 .9 1.6 1.6 2.2l1.2 1v0" style="fill:none;stroke:#000000;stroke-width:0.211694;stroke-linecap:round"/><path id="path10507" d="M299.2 378.5c1 .6 2.6 1 3.1 2.4a5 5 0 0 0 1.7 2.3l1 1v0" style="fill:none;stroke:#000000;stroke-width:0.211694;stroke-linecap:round"/><path id="path10509" d="M298.8 376c1 .7 3.2 1.7 3.5 2.7" style="fill:none;stroke:#000000;stroke-width:0.211694;stroke-linecap:round"/><path id="path10511" d="M305.8 380a5 5 0 0 1 1.5 2.5 4 4 0 0 0 1.1 2.1l.9 1v0" style="fill:none;stroke:#000000;stroke-width:0.180759;stroke-linecap:round"/><path id="path10513" d="M283.9 394.9c.3 0 1 1.2 1.2 1.4.6.4.6.5 1.2.7 1.7.3 1.7.3 3.1.2 1 0 1.5 0 2.6-.2l2.6-1c.2-.2.7-1 1-1.1.1-.3 3.2-7.5 3.3-7 .1.3 1 .7 1 1l-3.4 6.9a3 3 0 0 1-.6.5l-1 .9a21 21 0 0 1-4.2 1.5c-2 .1-4 1.8-7 0-1.4-1.8.2-3.8.2-3.8z" style="fill:#000000"/><path id="path10515" d="M292.3 470c-.5-.9-1-3.8-1.6-5.2-1.6-.4-4.4 0-6.3-1.1-2.1-1.4.8-4 .6-5l-.7-.7c0-.4.3-1 .6-1.2-.3-.2-.8-1.5.6-1.5.5-.2.6-.5.8-.8l-.7-.4c-1.2-.6-.6-1.3.2-1.9.5-.4 2.3-1.8 3.3-2.3.4-.2.5-.4.5-.8 0-.5.4-1 .8-1.4.3-.3 1.6-1.3 1.5-1.5 0-.3.3-.9.5-1l.3-.4c0-.1.3-.4.5-.4.3 0 .6-.4.6-.6 0-.1.5-.9.7-.8.2 0 .7.1 1-.2a3 3 0 0 1 1.6-1.1l1-.4s.8-.3 1.3-.2l1.6.1 1.5.3s.5 0 1 .3c.4.1 2 .7 1.9.8 0 0 .6 0 1.4.5.8.5 1.5 1.4 1.9 1.4.3 0 .4.6.4.6s.4.6.9.9l.7.9 1 1.2 1 2s.6.6.5 1.3v2.8l.2.6-.2 1.4-.2.4c-.1.3-.4 1.6-1.1 1.9 0 .3-.3.6-.8 1.2-.6.4-1.8 1-1.7 1.2.2.2-.1 0-.4 0-.2-.2-.5-.4-.6 0 0 .6 0 1-.6 1-.6-.1-1.6.7-1.5 1.2l-1.3.5v.6c.1.4-.4 1.5-.5 1.5l-.1 3.4c-3.2-.1-9 .3-12 1z" style="fill:#e4d8cc;stroke:#000000;stroke-width:0.26216"/><path id="path10611" d="M293 444.5c.6-.3.2 0 .8-.6.2-.7 0-.3.4-.6a15 15 0 0 1 4-2c1.3-.5 2.7-.1 4.2.2.8.2 2.6.5 4.2 1.5l2.2 1.6c1 .9 1.8 2 2.5 2.9l1.8 3.3c.3.6 0 1.7.1 2.5 0 1 .4 2-.3 3.6-.5 1-.6 1.5-1 1.6-.3 1.6-2.4 2.1-3.3 2.6h-.6a16 16 0 0 0-2.2-2.6c-1.6-1.8-2-3.6-4-4.3-1.9-2.2-7-5.3-9.1-7.1-1.1-1-.8-.7-.7-1.3z"/><path id="path1667" d="M301.3 462c-1.7-1.4 3.5-4.6 3.6-4 0 .3 3.4 2.6 3.3 2.8-.1.4-1 1-2.7 3.8-.6.5-1.9-1-4.2-2.6z" style="fill:#000000"/><path id="path10618" d="M299.8 441.1c-.5.1-.9.1-1.7.4-.8.1-2.4.7-2.1 1-.4.3 1.2 1.6 1.9 2.4.6.7 2 3 2.3 3.5.3.5 1 2 1.4 2.2l1.5 1.2a7.6 7.6 0 0 0 1.6 1.7c.6 1.2.3.7 1.2 2 .9 1.2 1 2.3 1 2.3s1.6 2.9 1.3 2.7c-.2-.1.7.1 1 .3.2.2 1.8-1 2.4-1.9.1-.3 1-1 1.4-3 .3-1.8 0-4.7 0-5-.2-.5-1.5-3.2-2-3.6-.6-.3-1.8-1.8-2.2-2.3a8.6 8.6 0 0 0-2-1.5c-.5-.3-.7-.5-2.1-1-1.3-.6-2.5-.8-3.2-1z" style="fill:#999999;fill-opacity:1;stroke:#000000;stroke-width:0.0233977"/><path id="path10517" d="M294.8 443.1c-.6.1-1 .2-.8.7l.5 1.2s-.8-.8-1.1-.6c-.3.2-.9.5-.6.7l.9 1.1-1.1-.7c-.4.3-.7 1 0 1.7l2.8 3.4c.3.5 1.2 1.2 1.6 1.5l2 1.2-1.3-.3c-.2-.1 1.8 2 2.2 2.1.4-.3 4-1.2 3.9 2.3l-.2 1.2s.7.3.8.8c.1.4.8.8 1.3 1 .5.2 1.3.5 1 .3-.2-.1.7.9 1 1 .2.3 1.1-.4.3-1.7-.3-.6-1.3-2-1.3-2.6a14 14 0 0 0-2-3.2c-.2-.4 0-.6-.5-1a9.8 9.8 0 0 1-1.7-1.8c-.5-.5-.9-.7-1.5-1-.5-.4-3.8-3.5-4.5-4.6l3.4 3.2c.7.6 1 .6 0-.8-.3-.7-2.4-3.8-4.2-5.5z" style="fill:#999999;fill-opacity:1;stroke:#000000;stroke-width:0.154674"/><path id="path10519" d="M293 446.6c1 .6 2 1.2 2.5 2.1.5 1 1.2 1.5 2 2l1.3.7v0" style="fill:none;stroke:#000000;stroke-width:0.211694;stroke-linecap:round"/><path id="path10521" d="M291.8 449.8c.4 1.2.8 2 1.6 2.9-.1.2-2.1-.7-3-.7 0 0 0-.6.4-1.2.3-.6 1-1 1-1z" style="stroke:#000000;stroke-width:0.224146"/><path id="path10525" d="M314.6 503c-.3 0-1.3 0-1.3-.2 0-.6 0-1-.4-1.6-.4-.6-1-1.9.2-2.3.8-.2 1 .7.8 1l.2 1.9c0 .7.4 1 .3 1.1z" style="fill:#999999;fill-opacity:1;stroke:#000000;stroke-width:0.374233"/><path id="path10529" d="M311.5 505.2c0 .1.5.7 1.3.6.5-.2-.8 1.4-1.3.9-.3-.6 0-1.5 0-1.5z" style="fill:#999999;fill-opacity:1;stroke:#000000;stroke-width:0.374233"/><path id="path10533" d="m314.6 501.4 1.3.2c0 .4 0 1.4-.4 1.6-1.3.5-1.5-1.9-1.3-1.9h.4z" style="fill:#999999;fill-opacity:1;stroke:#000000;stroke-width:0.374233"/><path id="path10537" d="m313 499-5.5.6s-3.4-.3-3.9-1.9c0-.6.5-1.3 0-1.4l-1-.3-1.2-.3c-.3.2 0 2.3.2 3 .2 1 0 1 .2 1.6.2.5 1.6 1.5 2 1.7 1.1.4 3.2 1.5 7.4 4.5.2-.4.4-3 .4-3-.1-.2-.7-.7-.8-1.3-.2-.8.8-1.6 1.2-.5.3.5-.4 2 .4 2.2.7 0 .9-1 1-1.4 0-.5-.4-1.2-.7-1.5-.4-.7-.4-1.6-.1-1.9z" style="fill:#999999;fill-opacity:1;stroke:#000000;stroke-width:0.374233"/><g id="g10539" style="fill:#999999;fill-opacity:1" transform="scale(-.18712 .18712) rotate(-50.9 1709.2 3373.1)"><path id="path10541" d="M209.8 346.9c.9 4.7 5.6 12.8 12.1 14.5 5.3 1.5 12.5 2.3 13.6 6.4 1.2 4.1 2 9.4 2 9.3l8.3-11.6-.2-9.8c0-6.4-4.8-8-9.6-9.7-4.7-1.8-10-4-11.4-6.6-1.5-2.7.5-6.2-1.5-8l-11.9-8.3s-2.3 19-1.4 23.8z" style="fill:#999999;fill-opacity:1;stroke:#000000;stroke-width:2"/><path id="path10543" d="M218.6 390.3c4.5 8.2 5.6 18.7 7.5 26.6a38.3 38.3 0 0 1 13.6-14 48 48 0 0 1 3.6-17.3c8.6-12.5 2.5-19.6 2.5-19.6-8.5 10-8.8 17.2-27.2 24.3z" style="fill:#999999;fill-opacity:1;stroke:#000000;stroke-width:2"/><path id="path10545" d="M210.5 415.6c-.3 2 2.5 9.1 7 9.4 4.6.3 7.2-3.1 8-7.2l-2.2-13.6z" style="fill:#999999;fill-opacity:1;stroke:#000000;stroke-width:2"/></g><path id="path10549" d="M303.8 450.5c.9.7 1.8 1.5 2.1 2.5.4 1 .9 1.6 1.6 2.2l1.2 1v0" style="fill:none;stroke:#000000;stroke-width:0.211694;stroke-linecap:round"/><path id="path10551" d="M299.2 444.8c1 .6 2.6 1 3.1 2.4a5 5 0 0 0 1.7 2.3l1 1v0" style="fill:none;stroke:#000000;stroke-width:0.211694;stroke-linecap:round"/><path id="path10553" d="M298.8 442.3c1 .7 3.2 1.7 3.5 2.7" style="fill:none;stroke:#000000;stroke-width:0.211694;stroke-linecap:round"/><path id="path10555" d="M305.8 446.4a5 5 0 0 1 1.5 2.4 4 4 0 0 0 1.1 2.1l.9 1v0" style="fill:none;stroke:#000000;stroke-width:0.180759;stroke-linecap:round"/><path id="path10557" d="M283.9 461.2c.3 0 1 1.2 1.2 1.4.6.4.6.5 1.2.7 1.7.3 1.7.3 3.1.2 1 0 1.5 0 2.6-.2l2.6-1c.2-.2.7-1 1-1.1.1-.3 3.2-7.5 3.3-7 .1.3 1 .7 1 1l-3.4 7a3 3 0 0 1-.6.4l-1 .9a21 21 0 0 1-4.2 1.5c-2 .1-5.4.5-7.5 0-.1-1.7.7-3.8.7-3.8z" style="fill:#000000"/><path id="path10559" d="M244.5 466.1c-.6-.9-1-3.8-1.7-5.2-1.6-.4-4.3 0-6.2-1.1-2.2-1.4.8-4 .5-5l-.7-.7c0-.4.3-1 .6-1.2-.3-.2-.8-1.5.6-1.5.5-.2.6-.5.8-.8l-.7-.4c-1.1-.6-.6-1.3.2-2 .5-.3 2.3-1.7 3.3-2.2.4-.2.5-.4.6-.8 0-.5.4-1 .7-1.4.3-.3 1.6-1.3 1.6-1.6-.1-.2.3-.8.4-.9l.3-.4c.1-.2.3-.4.6-.4.2 0 .5-.4.5-.6 0-.1.6-.9.8-.8.2 0 .6 0 1-.2.3-.6 1-1 1.5-1.1l1-.4c.1 0 .8-.3 1.3-.2l1.7.1 1.4.3s.6 0 1 .2l2 .8s.6 0 1.3.6c.8.5 1.5 1.4 1.9 1.4.4 0 .4.5.4.5s.4.7.9 1l.7.9 1 1.2 1.1 2s.6.6.4 1.3l.1 2.8.1.6-.2 1.4-.2.4c0 .3-.4 1.6-1.1 1.9 0 .3-.3.6-.8 1.2-.6.4-1.8 1-1.6 1.2.2.2-.2 0-.5 0-.2-.2-.5-.4-.5 0-.1.6 0 1-.7 1-.6-.1-1.5.7-1.5 1.2l-1.3.5v.6c.1.4-.4 1.5-.5 1.5l-.1 3.4c-3.2-.1-9 .3-12 1z" style="fill:#e4d8cc;stroke:#000000;stroke-width:0.26216"/><path id="path3433" d="M253.2 458.4c-1.7-1.4 3.5-4.6 3.6-4 0 .3 3.4 2.6 3.3 2.8-.1.4-1 1-2.8 3.9-.5.4-1.8-1.1-4.1-2.7z" style="fill:#000000"/><path id="path10613" d="M245 440.6c.7-.3.3 0 1-.6.1-.7 0-.3.3-.6a15 15 0 0 1 4-2c1.4-.5 2.7-.1 4.2.2.8.2 2.6.5 4.2 1.5l2.2 1.6c1 .9 1.8 2 2.5 2.9l1.8 3.3c.3.6 0 1.7.1 2.5 0 1 .4 2-.3 3.6-.5 1-.5 1.5-1 1.6-.3 1.6-2.4 2.1-3.3 2.6h-.6a16 16 0 0 0-2.2-2.6c-1.6-1.8-2-3.6-4-4.3-1.9-2.2-7-5.3-9.1-7.1-1.1-1-.8-.7-.6-1.3z"/><path id="path10616" d="m252 437.2-1.7.3c-.8.2-2.4.8-2.1 1-.4.4 1.3 1.7 1.9 2.5.6.7 2 3 2.3 3.5.3.5 1 2 1.5 2.2l1.4 1.2a5.9 5.9 0 0 0 1.6 1.6c.6 1.3.3.8 1.3 2 .8 1.3 1 2.4 1 2.4s1.5 2.9 1.2 2.7c-.2-.1.7.1 1 .3.2.2 1.8-1 2.4-2 .2-.2 1-1 1.4-2.9.3-1.8 0-4.7 0-5-.1-.5-1.5-3.2-2-3.6-.6-.3-1.8-1.8-2.2-2.3a8.6 8.6 0 0 0-2-1.5c-.5-.3-.7-.5-2-1-1.4-.7-2.6-.8-3.3-1z" style="fill:#999999;fill-opacity:1;stroke:#000000;stroke-width:0.0233977"/><path id="path10561" d="M246.9 439.2c-.6.1-1 .2-.8.7l.6 1.2s-.9-.8-1.2-.6c-.3.2-.9.5-.6.7l.9 1.1-1.1-.7c-.4.3-.7 1 0 1.7l2.8 3.4c.3.5 1.2 1.2 1.7 1.5l1.9 1.2-1.2-.3c-.2-.1 1.7 2 2 2.1.5-.3 4.2-1.2 4 2.3l-.2 1.2s.7.3.8.8c.1.4.8.8 1.3 1 .5.2 1.3.5 1 .3l1.2 1c.3.2.9-.6.1-1.7-.2-.6-1.2-2-1.3-2.6a14 14 0 0 0-2-3.2c-.1-.4 0-.6-.5-1a9.8 9.8 0 0 1-1.7-1.8c-.4-.5-.9-.8-1.4-1-.6-.4-4-3.5-4.6-4.6l3.4 3.2c.7.6 1 .6 0-.8a36 36 0 0 0-4.1-5.5z" style="fill:#999999;fill-opacity:1;stroke:#000000;stroke-width:0.154674"/><path id="path10563" d="M245.1 442.7c1 .6 2 1.2 2.5 2.1.6 1 1.2 1.5 2 2l1.3.7v0" style="fill:none;stroke:#000000;stroke-width:0.211694;stroke-linecap:round"/><path id="path10565" d="M243.9 445.9c.4 1.2.8 2 1.7 2.8-.2.3-2.2-.6-3.1-.6 0 0 0-.6.4-1.2.3-.6 1-1 1-1z" style="stroke:#000000;stroke-width:0.224146"/><path id="path10569" d="M246.4 470.7h1.3c.1-.6.2-1 .7-1.6.5-.5 1.3-1.7.1-2.3-.7-.3-1 .5-1 1l-.4 1.7c-.2.7-.6 1-.5 1l-.2.2z" style="fill:#999999;fill-opacity:1;stroke:#000000;stroke-width:0.374233"/><path id="path10573" d="M249.4 472.8c0 .1-.5.7-1.3.6-.5-.2.8 1.4 1.3.9.3-.6.1-1.5 0-1.5z" style="fill:#999999;fill-opacity:1;stroke:#000000;stroke-width:0.374233"/><path id="path10577" d="M246.7 469h-1.4c0 .4-.2 1.4.1 1.6 1.2.8 1.8-1.4 1.7-1.5h-.4z" style="fill:#999999;fill-opacity:1;stroke:#000000;stroke-width:0.374233"/><path id="path1692" d="M250.3 470.8c0-.4 1-2 .2-2.4-1.1-1-2 3-1.8 3.1l1.6-.7z" style="fill:#999999;fill-opacity:1;stroke:#000000;stroke-width:0.374233"/><path id="path10581" d="m248.9 466.8 5 1s3.6.4 4.3-2.1c0-.8.8-3.1.8-3.1l1 1c.5 1.2-.2 1.2-.2 1.6.1.5.5 1.2.2 2.2l-.5 1.5c-.3.6-1.7 1.4-2.2 1.5-1 .3-3.2 1.3-7.8 3.9v-3.1c0-.1.7-.6.9-1.2.2-.7-.7-1.6-1.2-.6-.3.6.2 2.1-.6 2.2-.7 0-.8-1-.8-1.5s.5-1.1.7-1.4c.6-.7.6-1.6.4-1.9z" style="fill:#999999;fill-opacity:1;stroke:#000000;stroke-width:0.374233"/><path id="path1694" d="M261.1 457.3c-1.4.3.8 2-.3 3.2 0 0 1 1.4 1.2 1.3 1.9-.8 0-4.4-.9-4.5z" style="fill:#999999;fill-opacity:1;stroke:#000000;stroke-width:0.374233"/><g id="g10583" style="fill:#999999;fill-opacity:1" transform="rotate(29.1 -612.7 684.7) scale(.18712)"><path id="path10585" d="M210 335.7a33 33 0 0 1 4.3 11.2c1 4.7 3.5 11.3 10 13 5.4 1.4 10 3.8 11.2 7.9 1.2 4 2 9.4 2 9.3l8.3-11.6-.2-9.8c0-6.4-4.8-8-9.6-9.7-4.7-1.8-10-4-11.4-6.6a44.1 44.1 0 0 0-7.3-9c-2-1.8-7.4 5.3-7.4 5.3z" style="fill:#999999;fill-opacity:1;stroke:#000000;stroke-width:2"/><path id="path10587" d="M218.6 390.3c4.5 8.2 5.6 18.7 7.5 26.6a38.3 38.3 0 0 1 13.6-14 49 49 0 0 1 3.6-17.3c8.6-12.5 2.5-19.6 2.5-19.6-8.5 10-8.8 17.2-27.2 24.3z" style="fill:#999999;fill-opacity:1;stroke:#000000;stroke-width:2"/><path id="path10589" d="M210.5 415.6c-.3 2 2.5 9.1 7 9.4 4.6.3 7.2-3.1 8-7.2l-2.2-13.6z" style="fill:#999999;fill-opacity:1;stroke:#000000;stroke-width:2"/></g><path id="path10593" d="M256 446.6c.8.7 1.7 1.4 2 2.5.4 1 .9 1.6 1.7 2.2l1.1 1v0" style="fill:none;stroke:#000000;stroke-width:0.211694;stroke-linecap:round"/><path id="path10595" d="M251.3 440.9c1 .6 2.6 1 3.1 2.4.4 1 1 1.7 1.7 2.3l1.1 1v0" style="fill:none;stroke:#000000;stroke-width:0.211694;stroke-linecap:round"/><path id="path10597" d="M251 438.4c.8.7 3 1.7 3.4 2.7" style="fill:none;stroke:#000000;stroke-width:0.211694;stroke-linecap:round"/><path id="path10599" d="M258 442.5a5 5 0 0 1 1.4 2.4 4 4 0 0 0 1.1 2.1l.9 1v0" style="fill:none;stroke:#000000;stroke-width:0.180759;stroke-linecap:round"/><path id="path10601" d="M236 457.3c.3 0 1 1.2 1.3 1.4.5.4.5.5 1.1.7 1.7.3 1.8.3 3.1.2 1 0 1.5 0 2.6-.2l2.6-1c.2-.2.7-1 1-1.1.1-.3 3.2-7.5 3.4-7 0 .3 1 .7.8 1-.1.3-3 6.6-3.3 6.9a3 3 0 0 1-.6.5l-1 .9a21 21 0 0 1-4.2 1.5c-2 .1-5.4.5-7.5 0-.1-1.7.7-3.8.7-3.8z" style="fill:#000000"/><path id="path10620" d="m298 393 .6.9s.3.2.7.2c.6-.2 1.7-1.2 2.3-1.3 1 0 1.7-.3 2-.5" style="fill:none;stroke:#000000;stroke-width:0.209728;stroke-linecap:round"/><path id="path10622" d="m297.8 459.4.5.8.8.2c.6-.2 1.7-1.2 2.3-1.3 1 0 1.7-.3 2-.5" style="fill:none;stroke:#000000;stroke-width:0.209728;stroke-linecap:round"/><path id="path10624" d="m250.1 455.4.6.9c.1 0 .3.2.7.1.6-.1 1.7-1.1 2.3-1.3 1 .1 1.7-.2 2-.4" style="fill:none;stroke:#000000;stroke-width:0.209728;stroke-linecap:round"/><path id="path10632" stroke-miterlimit="4.1" d="M301.3 390.9v.1l.1.3-.1.3-.2.1a1 1 0 0 1-.3 0l-.3.1h-.2l-.2.2-.2.2-.2.3h-.2l-.3-.1v-.4" style="fill:none;stroke:#010101;stroke-width:0.200749;stroke-linecap:round;stroke-miterlimit:4.1"/><path id="path10634" d="M300.1 389.8c.8-.5 4.1-.3 2.2 1.8-.3.1-.1.4 0 .3 2.3-2.5-1.2-3-2.1-2.4-.4.2 0 .3 0 .3z"/><path id="path10636" stroke-miterlimit="4.1" d="m301.4 457 .1.2v.6l-.3.1a1 1 0 0 1-.3 0l-.3.1h-.2l-.2.2-.2.2-.2.2c0 .1-.1.1-.2 0h-.3v-.4" style="fill:none;stroke:#010101;stroke-width:0.200749;stroke-linecap:round;stroke-miterlimit:4.1"/><path id="path10638" d="M300.3 456c.7-.5 4-.3 2 1.8-.2.1 0 .4.2.3 2.2-2.5-1.3-3-2.2-2.4-.3.2 0 .3 0 .2z"/><path id="path10640" stroke-miterlimit="4.1" d="m253.5 453.4.1.1v.6l-.3.1a1 1 0 0 1-.3 0l-.3.1h-.2l-.2.2-.2.2-.2.3h-.2l-.3-.1v-.4" style="fill:none;stroke:#010101;stroke-width:0.200749;stroke-linecap:round;stroke-miterlimit:4.1"/><path id="path10642" d="M252.4 452.3c.8-.5 4-.3 2 1.8-.2.1 0 .4.2.3 2.2-2.5-1.3-2.9-2.2-2.4-.3.2 0 .3 0 .3z"/><path id="path3400" d="M302.6 407.3c-.2.3-.2 1.2.1 1.3.5.2 1.7 1.8 2.6 1.5 1-.4 4.7-2 4.7-2.8 0-.5 3.5-3.3 4.8-5.7.5-1 1.4-5-.4-6-1.9-1.1-5-1.4-5.1-1-.2.4-.1-.1-1.4 2.7-.8 1.9-3.1 7.5-3.8 8-.8.8-1.3 1.6-1.5 2z" style="fill:#999999;fill-opacity:1;stroke:#000000;stroke-width:0.3277"/><path id="path4298" d="M310.1 397.3c0-.5-.6-1.8-1.2-2.2l-.5-.4" style="fill:none;stroke:#000000;stroke-width:0.255;stroke-miterlimit:4;stroke-dasharray:none"/><path id="path10644" d="M308.6 394.6c0-.5.3-.4.6 0 .5.8-.6 1.6-1.5 1.4-.5 0-.4-.7.3-.6.6.2.6-.9.6-.8z" style="fill:#999999;fill-opacity:1;stroke:#000000;stroke-width:0.187116"/><g id="g1689" style="fill:#999999;fill-opacity:1" transform="rotate(-22.8 1163.4 -403.3) scale(.18712)"><path id="path1691" d="M210 335.7c1.7 3 3.5 6.5 4.3 11.2 1 4.7 3.5 11.3 10 13 5.3 1.4 10 3.8 11.2 7.9 1.2 4.1 2 9.4 2 9.3l8.3-11.6-.2-9.8c0-6.4-4.9-8-9.6-9.7-4.7-1.8-10-4-11.4-6.6a44.3 44.3 0 0 0-7.3-9c-2-1.8-7.4 5.3-7.4 5.3z" style="fill:#999999;fill-opacity:1;stroke:#000000;stroke-width:2"/><path id="path1693" d="M225.5 417.6c4.2 0 8.9-11.3 14.2-14.8a48 48 0 0 1 3.6-17.2c8.6-12.5 2.5-19.6 2.5-19.6-4.6 5.4-28 24.3-30 28.7-4.5 9.4 8.8 19.3 9.7 22.9z" style="fill:#999999;fill-opacity:1;stroke:#000000;stroke-width:2"/></g><path id="path10646" d="M308.5 461c0-.5.3-.4.6 0 .4.8-.6 1.6-1.5 1.4-.5 0-.4-.6.3-.5.6.1.6-1 .6-.9z" style="fill:#999999;fill-opacity:1;stroke:#000000;stroke-width:0.187116"/><path id="path10648" d="M260.7 457c0-.4.3-.3.6.1.4.8-.6 1.6-1.5 1.4-.5 0-.5-.7.2-.5.7.1.7-1 .7-1v.1z" style="fill:#999999;fill-opacity:1;stroke:#000000;stroke-width:0.187116"/><path id="path10650" d="M290.2 392h1.4c2 0-.4 0 0 0 .6-.1 1-.3 1.4-.5l1.8-.6c-.4.3-1 1.2-1.6 1.2-1 .2-2 0-3.1.1h-1.4z"/><path id="path10652" d="M242.9 454.5h1.4c2 0-.5 0 0 0 .5-.1 1-.1 1.4-.3l1.8-.4c-.4.3-1.1.9-1.6.9-1 .1-2.1 0-3.2 0h-1.4z"/><path id="path10654" d="M290.6 459h1.4c2-.1-.5 0 0-.1.5 0 1 0 1.4-.3l1.8-.4c-.5.3-1.1.9-1.7.9H289z"/><path id="path12441" d="m257.8 291.7-2.2-.6c-1-.4-2.3-.3-3.1 0-1 .2-.7 2.2-.7 3 0 1.4 3.2 1.4 4.3 1.4 1.5 0 2 0 2.6-.7.8-.7-.6-2.8-.9-3z" style="fill:#008f4c;stroke:#000000;stroke-width:0.26216"/><path id="path12443" d="M262 299.9c.3-.3-2.2 0-4.5 0-1.4 0-1.3 2-1.1 2.9.2.8 3.5 1 4.2.9 1.6-.4 1.5-1.2 2.3-2.3.6-.9.3-.8-1-1.5z" style="fill:#008f4c;stroke:#000000;stroke-width:0.26216"/><path id="path12449" d="M254.2 291c-.4-.5-.6-1.4-.4-2.2.2-.6.9-.6 1.5-.6 1 0 2.1 0 3.1.2.9.2 2 0 2.6.2.5.1.7.3 1 .8.3.5.2 1.4.2 2.1l-.1 1.6c0 .2-1.5 0-1.7 0h-1.8c-.3-.1-.7-.7-.8-1-.1-.3-.7-.4-1-.6l-1.5-.4c-.3-.2-.7-.2-1.1-.2z" style="fill:#008f4c;stroke:#000000;stroke-width:0.26216"/><path id="path12451" d="M276.2 302a8 8 0 0 0-3 .3c-1.2.3-1.1 1.4-1 2.4.2.7 1.6.7 2 .9.8.1 1.4 0 2 .5.7.5 1.6 1 2.6 1 2 0 1.5-.4 2.3-1.6.2-.4 1.2-.8 1.5-1.2.7-.6 0-1.3-.4-1.6-.4-.5-1.5-.6-2-.7-.6-.2-1.3-.1-2-.1h-2z" style="fill:#008f4c;stroke:#000000;stroke-width:0.26216"/><path id="path12455" d="M294.7 298c-1.1-.3-3.5-.1-5-.1-.8 0-1.4.4-1.4 1 0 1.2.4 1.4 1.5 1.6.9.3 1.5.2 2.2.6.6.3 1.5.3 2.1.3.8 0 1.2-.4 1.7-.9.5-.4 0-1.3-.1-1.7-.1-.6-.4-.7-1-.8z" style="fill:#008f4c;stroke:#000000;stroke-width:0.26216"/><path id="path12457" d="M297 297c-.2-.6-3.4 1.8-5.1.5-.8-.5-.7-1.4-1.5-2-.4-.6.8-1.5 1-1.7l1.6-.7c.4-.3 2-.6 2.5-.5.6.2 1.6 1 2.2 1.4.8.3.3 1.5.3 2.2 0 .3-.7.7-1 .9z" style="fill:#008f4c;stroke:#000000;stroke-width:0.26216"/><path id="path12459" d="M298.4 293.3c0 .2-2.4-1.3-2.8-1.5-.7-.3-.4-1-.2-1.4.4-1 1-1 2.4-1 1.1 0 1.5.4 1.9-.7.4-1 .7-1.1 1.8-1.6h1.9c.8 0 .8 1.3.7 1.8-.3.9-.4 1.3-1 2-.4.3-.8.6-1 1-.3.5-1 .7-1.4.8l-2.3.6z" style="fill:#008f4c;stroke:#000000;stroke-width:0.26216"/><path id="path12461" d="M300.8 293.3c-.6.1 1.2-.6 1.8-.5.6.2 1 .6 1.3 1 .5.4.5 1.2.6 1.7.1.5.6.7.5 1.4-.2.5-1.2.5-1.7.5l-2.5-.1-1.7-.3c-.5-.2-.7-.7-.7-1.3 0-.7-.2-1.3.2-1.9 0 0 2.4-.4 2.2-.5z" style="fill:#008f4c;stroke:#000000;stroke-width:0.26216"/><path id="path12465" d="M298.3 300.9c0-.2 3.4.6 4.2.8.7 0 1.4.5 1.7 1 .4.8-.3 1.6-1 1.6-1.2 0-1.5-.2-2.7-.4-.8-.2-1.5-.3-2.2-.6-1.3-.4-1.1-.4-.8-1.5 0-.3.7-.9.8-1z" style="fill:#008f4c;stroke:#000000;stroke-width:0.26216"/><path id="path13340" d="M267.8 300.6c.3-.3-2.2 0-4.5 0-1.4 0-1.3 2-1 3 .1.9 3.4 1 4.1.9 1.6-.4 1.5-1.3 2.3-2.3.7-1 .3-.9-1-1.6z" style="fill:#008f4c;stroke:#000000;stroke-width:0.265568"/><path id="path13342" d="M262.3 303c.3-.3-2.1 0-4.4 0-1.5 0-1.4 2-1.2 3 .3.8 3.5 1 4.3.8 1.6-.4 1.4-1.2 2.2-2.2.7-.9.3-.8-.9-1.6z" style="fill:#008f4c;stroke:#000000;stroke-width:0.26216"/><path id="path13344" d="M256 305.7c.4-.3-2 0-4.4 0-1.4 0-1.3 2-1.1 3 .2.8 3.5 1 4.2.8 1.6-.4 1.5-1.2 2.3-2.2.6-1 .3-.9-1-1.6z" style="fill:#008f4c;stroke:#000000;stroke-width:0.26216"/><path id="path13346" d="M282.2 291c.3-.3-2.2 0-4.5 0-1.4 0-1.3 2-1 2.9.1.9 3.4 1 4.1.9 1.6-.4 1.5-1.2 2.3-2.3.7-.9.3-.8-1-1.5z" style="fill:#008f4c;stroke:#000000;stroke-width:0.26216"/><path id="path13348" d="M268.7 284.8c.3-.3-2.2 0-4.5 0-1.4 0-1.3 2-1.1 3 .2.8 3.5 1 4.2.8 1.6-.4 1.5-1.2 2.3-2.2.6-.9.3-.8-1-1.6z" style="fill:#008f4c;stroke:#000000;stroke-width:0.26216"/><path id="path13350" d="M294 302.6c.2-.3-2.2 0-4.6 0-1.4 0-1.3 2-1 2.9.1.9 3.4 1 4.2.9 1.5-.4 1.4-1.2 2.2-2.3.7-.8.3-.8-.9-1.5z" style="fill:#008f4c;stroke:#000000;stroke-width:0.26216"/><path id="path13352" d="M237 294.8a5 5 0 0 0-1.9.2c-.6.1-.8.4-1.3.5-.4 0-.7.6-1 .8-.4.4-.5.2.8.7l1.3.5h1.5c.6 0 1.3 0 1.6-.2.6-.3.6-.5.6-1.3s-.2-.9-.7-1.2h-.9z" style="fill:#008f4c;stroke:#000000;stroke-width:0.26216"/><path id="path15100" d="M238.4 296.9a5 5 0 0 0-1.9 0c-.6.2-.8.5-1.3.6-.4 0-.8.6-1 .8-.4.4-.5.2.8.7.6.2 1 .5 1.3.5.5.2.8 0 1.5 0 .5 0 1.2 0 1.6-.2.6-.3.6-.5.6-1.3s-.2-.9-.8-1.1c-.1-.1-.6 0-.8 0z" style="fill:#008f4c;stroke:#000000;stroke-width:0.26216"/><path id="path15102" d="M239.7 299a5 5 0 0 0-1.9.2l-1.2.5c-.5.1-.8.6-1 .8-.5.5-.6.2.7.7l1.3.6h1.5c.6 0 1.3 0 1.6-.3.6-.3.7-.5.7-1.3s-.3-.8-.8-1.1h-.9z" style="fill:#008f4c;stroke:#000000;stroke-width:0.26216"/><path id="path15104" d="M241.6 301.4a5 5 0 0 0-1.9.1l-1.2.5c-.5.2-.8.7-1 .9-.5.4-.6.2.7.7l1.3.5h1.5c.6 0 1.3 0 1.6-.2.6-.3.7-.6.7-1.4 0-.7-.3-.8-.8-1-.2-.2-.7 0-.9 0z" style="fill:#008f4c;stroke:#000000;stroke-width:0.26216"/><path id="path15106" d="M244.5 303.3a5 5 0 0 0-1.8.5c-.6.2-.8.5-1.2.7-.5.1-.7.7-.9 1-.3.4-.4.2 1 .5l1.3.3 1.5-.2 1.5-.5c.6-.4.5-.6.4-1.4-.1-.8-.3-.8-1-1l-.8.1z" style="fill:#008f4c;stroke:#000000;stroke-width:0.26216"/><path id="path15108" d="M300.5 291a5 5 0 0 1 2 0l1.2.6c.5 0 .8.6 1 .8.4.4.5.2-.8.7l-1.3.5h-1.5c-.5 0-1.2 0-1.5-.2-.7-.3-.7-.5-.7-1.3s.2-.9.8-1.2h.8z" style="fill:#008f4c;stroke:#000000;stroke-width:0.26216"/><path id="path15110" d="M238.3 289.5a5 5 0 0 0-2 .1l-1.2.5c-.5.1-.8.6-1 .8-.4.5-.5.2.8.7l1.3.6h1.5c.5 0 1.2 0 1.5-.3.7-.3.7-.5.7-1.3s-.2-.8-.8-1.1h-.8z" style="fill:#008f4c;stroke:#000000;stroke-width:0.26216"/><path id="path15112" d="M240.2 287.3c-.3-.2-1.2-.3-1.9-.2-.6 0-.9.2-1.3.3-.5 0-.9.5-1.1.7-.5.3-.6 0 .7.8l1.1.7c.5.2.8.1 1.5.2.6 0 1.3.1 1.6 0 .7-.2.8-.4.9-1.2 0-.8-.1-.9-.6-1.2l-.9-.1z" style="fill:#008f4c;stroke:#000000;stroke-width:0.26216"/><path id="path15114" d="M243.6 285.4a5 5 0 0 0-1.9-.3l-1.3.1c-.5 0-1 .5-1.2.6-.5.3-.6 0 .6.9l1.1.8 1.5.4c.5 0 1.2.2 1.5.1.7-.2.8-.4 1-1.1.2-.8 0-.9-.5-1.3l-.8-.2z" style="fill:#008f4c;stroke:#000000;stroke-width:0.26216"/><path id="path15116" d="M246.6 305a5 5 0 0 0-1.8.5l-1.1.8c-.4.2-.6.8-.8 1-.3.6-.4.4 1 .5l1.3.2 1.5-.3c.5-.2 1.2-.4 1.4-.6.6-.5.6-.7.4-1.5-.2-.8-.5-.8-1-.9l-.9.2z" style="fill:#008f4c;stroke:#000000;stroke-width:0.26216"/><path id="path15118" d="M247.2 306.9a5 5 0 0 0-1.8.6l-1.1.8c-.5.2-.6.8-.8 1-.3.6-.4.4 1 .5l1.3.2c.5 0 .8-.2 1.5-.4.5 0 1.2-.3 1.4-.6.6-.4.5-.7.3-1.4-.2-.8-.4-.8-1-1l-.8.3z" style="fill:#008f4c;stroke:#000000;stroke-width:0.26216"/><path id="path15120" d="M267 311.6a5 5 0 0 0-1.7.6l-1.2.8c-.4.2-.6.8-.7 1-.3.6-.5.4.9.5l1.4.2c.5 0 .8-.2 1.4-.4a3 3 0 0 0 1.5-.6c.6-.5.5-.7.3-1.4-.2-.8-.4-.8-1-1l-.8.3z" style="fill:#008f4c;stroke:#000000;stroke-width:0.26216"/><path id="path15122" d="M263 311a5 5 0 0 0-1.8.5l-1 .8c-.5.2-.7.8-.8 1-.4.6-.5.4.9.5l1.4.2c.5 0 .7-.2 1.4-.3l1.5-.6c.5-.5.5-.7.3-1.5-.2-.7-.4-.8-1-.9l-.9.2z" style="fill:#008f4c;stroke:#000000;stroke-width:0.26216"/><path id="path15124" d="M259.2 310.2a5 5 0 0 0-1.8.6l-1 .8a2 2 0 0 0-.8 1.1c-.3.5-.5.3.9.5l1.4.2c.5 0 .7-.2 1.4-.4l1.5-.6c.5-.5.5-.7.3-1.5-.2-.7-.4-.7-1-.9l-.9.2z" style="fill:#008f4c;stroke:#000000;stroke-width:0.26216"/><path id="path15126" d="M256.9 308.2a5 5 0 0 0-1.8.6l-1.1.8c-.4.3-.6.8-.8 1.1-.3.5-.4.3 1 .4l1.3.3c.5 0 .8-.2 1.5-.4.5-.1 1.2-.4 1.4-.6.6-.5.6-.7.4-1.5-.2-.7-.5-.7-1-.9l-.9.2z" style="fill:#008f4c;stroke:#000000;stroke-width:0.26216"/><path id="path15128" d="M249.8 307.2a5 5 0 0 0-1.4 1.3c-.3.5-.3.9-.6 1.2-.3.4-.2 1-.2 1.3 0 .6-.3.5 1 0l1.3-.4c.5-.2.7-.5 1.2-1 .4-.3.9-.8 1-1.2.3-.7.2-.8-.3-1.4-.5-.6-.8-.5-1.4-.4l-.6.6z" style="fill:#008f4c;stroke:#000000;stroke-width:0.26216"/><path id="path15132" d="M301.4 300a5 5 0 0 1 1.9 0c.6.2.8.5 1.3.6.5.1.8.6 1 .8.4.5.5.2-.8.7l-1.3.6H302c-.5 0-1.2-.1-1.5-.3-.7-.3-.7-.5-.7-1.3s.2-.8.8-1.1c.1-.1.6 0 .8 0z" style="fill:#008f4c;stroke:#000000;stroke-width:0.26216"/><path id="path15134" d="M301.1 302.7a5 5 0 0 1 1.8.7l1 1c.4.2.6.8.7 1 .3.6.4.4-1 .4-.6 0-1 .2-1.3.1-.5 0-.8-.2-1.5-.4-.5-.2-1.1-.5-1.4-.8-.5-.5-.4-.7-.2-1.4.3-.8.5-.8 1.1-.9l.8.3z" style="fill:#008f4c;stroke:#000000;stroke-width:0.26216"/><path id="path15136" d="M275 311.2a5 5 0 0 1 1.6 1l.9 1c.3.3.4 1 .5 1.2.2.6.3.5-1 .3l-1.4-.1-1.4-.8c-.4-.2-1-.6-1.2-.9-.5-.6-.4-.8 0-1.5s.6-.6 1.2-.6l.8.4z" style="fill:#008f4c;stroke:#000000;stroke-width:0.26216"/><path id="path15138" d="M299.5 305.1a5 5 0 0 1 2 .1l1.2.5c.5.1.8.6 1 .9.4.4.5.2-.8.6l-1.3.6h-1.5c-.5 0-1.2 0-1.5-.2-.7-.4-.7-.6-.7-1.4 0-.7.2-.8.8-1 .1-.2.6 0 .8 0z" style="fill:#008f4c;stroke:#000000;stroke-width:0.26216"/><path id="path15140" d="M296.4 306.2a5 5 0 0 1 1.7.8c.5.3.7.6 1 .9.5.2.6.8.7 1 .3.6.5.4-1 .5h-1.3c-.5 0-.8-.2-1.4-.4-.5-.2-1.2-.5-1.4-.8-.6-.5-.5-.7-.2-1.4.2-.8.4-.8 1-.8l.9.2z" style="fill:#008f4c;stroke:#000000;stroke-width:0.26216"/><path id="path15144" d="M294.1 307.9a5 5 0 0 1 1.8.7c.5.3.6.7 1 .9.4.3.6.8.7 1.1.3.6.4.4-1 .4l-1.4.1c-.5 0-.7-.3-1.4-.5-.5-.2-1.1-.4-1.4-.7-.5-.5-.4-.7-.2-1.5.3-.7.5-.7 1.1-.8l.8.3z" style="fill:#008f4c;stroke:#000000;stroke-width:0.26216"/><path id="path15146" d="M290.1 308.2a6 6 0 0 1 1.8.7l1 1c.4.2.5.8.7 1 .3.6.4.4-1 .4-.6 0-1 .2-1.4.1-.5 0-.7-.2-1.4-.4-.5-.2-1.1-.5-1.4-.8-.5-.5-.5-.7-.2-1.5.3-.7.5-.7 1.1-.8l.8.3z" style="fill:#008f4c;stroke:#000000;stroke-width:0.26216"/><path id="path15148" d="M288 309.9a5 5 0 0 1 1.7.7l1 1c.5.2.6.7.8 1 .2.6.4.4-1 .4l-1.4.1c-.5 0-.8-.2-1.4-.5-.5-.2-1.2-.4-1.4-.7-.5-.5-.5-.7-.2-1.5.2-.7.5-.7 1-.8l.9.3z" style="fill:#008f4c;stroke:#000000;stroke-width:0.26216"/><path id="path15150" d="M279 311.2c.3 0 1.2.4 1.7.8.5.3.7.6 1 .9.4.2.6.8.7 1 .3.6.4.4-1 .5h-1.3c-.5 0-.8-.2-1.5-.4-.5-.2-1.1-.5-1.4-.8-.5-.5-.4-.7-.2-1.4.3-.8.5-.8 1.2-.8l.7.2z" style="fill:#008f4c;stroke:#000000;stroke-width:0.26216"/><path id="path15152" d="M284.4 308.8c.4.2 1 .8 1.3 1.4l.6 1.2c.3.4.2 1 .2 1.3 0 .6.2.5-1 0l-1.4-.5c-.4-.2-.6-.5-1-1-.5-.4-1-1-1-1.2-.3-.7-.2-.9.4-1.5.5-.5.7-.4 1.3-.3.2 0 .5.5.6.6z" style="fill:#008f4c;stroke:#000000;stroke-width:0.26216"/><path id="path15154" d="M282 309.6c.3.2 1 .9 1.3 1.4.3.5.3.9.6 1.3.2.4.1 1 .2 1.3 0 .6.2.4-1 0l-1.4-.5-1.1-1a5 5 0 0 1-1-1.3c-.3-.7-.1-.9.4-1.4.5-.6.8-.5 1.4-.3l.6.5z" style="fill:#008f4c;stroke:#000000;stroke-width:0.26216"/><path id="path15156" d="M302 297.4a5 5 0 0 1 2 .1l1.3.5c.4.1.7.6 1 .9.4.4.5.2-.8.6l-1.3.6h-1.5c-.5 0-1.3 0-1.6-.2-.6-.4-.6-.6-.6-1.4 0-.7.2-.8.7-1 .2-.2.7 0 .9 0z" style="fill:#008f4c;stroke:#000000;stroke-width:0.26216"/><path id="path15158" d="M235.5 292.2a5 5 0 0 0-1.9 0c-.6.2-.8.5-1.3.6-.4.1-.8.6-1 .8-.4.5-.5.2.8.7.6.2 1 .5 1.3.5.5.2.8 0 1.5 0 .5 0 1.2 0 1.5-.2.7-.3.7-.5.7-1.3s-.2-.8-.8-1.1c-.1-.1-.6 0-.8 0z" style="fill:#008f4c;stroke:#000000;stroke-width:0.26216"/><path id="path15160" d="M238.8 292.2a5 5 0 0 0-1.9 0l-1.2.6c-.5.1-.8.6-1 .8-.5.5-.5.2.7.7.7.2 1 .5 1.3.5.5.2.8 0 1.5 0 .6 0 1.3 0 1.6-.2.7-.3.7-.5.7-1.3s-.2-.8-.8-1.1h-.9z" style="fill:#008f4c;stroke:#000000;stroke-width:0.26216"/><path id="path15170" d="M265.4 289.6c.2-.2-1.7 0-3.5 0-1.1 0-1 1.7-.9 2.4.2.7 2.8.9 3.4.7 1.2-.3 1.1-1 1.7-1.8.5-.7.3-.7-.7-1.3z" style="fill:#008f4c;stroke:#000000;stroke-width:0.209597"/><path id="path15162" d="M268.2 290.6c-.4-.1-1.3 0-1.9.1l-1.3.5c-.4.1-.8.6-1 .9-.4.4-.5.2.8.6l1.3.6h1.5c.5 0 1.2 0 1.6-.2.6-.4.6-.6.6-1.4 0-.7-.2-.8-.8-1-.1-.2-.6 0-.8 0z" style="fill:#008f4c;stroke:#000000;stroke-width:0.26216"/><path id="path15164" d="M268 288a5 5 0 0 0-1.8 0l-1.3.5c-.5.2-.8.6-1 .9-.4.4-.5.2.8.6l1.3.6h1.5c.5 0 1.2 0 1.5-.2.7-.3.7-.6.7-1.4 0-.7-.2-.8-.8-1-.1-.2-.6 0-.8 0z" style="fill:#008f4c;stroke:#000000;stroke-width:0.26216"/><path id="path15168" d="M266.6 304.3c.3-.2-1.6 0-3.5 0-1 0-1 1.6-.8 2.4.1.7 2.7.9 3.3.7 1.2-.3 1.1-1 1.7-1.8.6-.7.3-.7-.7-1.3z" style="fill:#008f4c;stroke:#000000;stroke-width:0.209597"/><path id="path15172" d="M264.4 286.7c.2-.2-1.7 0-3.5 0-1.1 0-1 1.7-.9 2.4.2.7 2.8.9 3.4.7 1.2-.3 1.1-1 1.7-1.8.5-.7.3-.7-.7-1.3z" style="fill:#008f4c;stroke:#000000;stroke-width:0.209597"/><path id="path15174" d="M255.6 294.9c.2-.3-1.7 0-3.5 0-1.1 0-1 1.6-.9 2.4.2.7 2.7.8 3.3.7 1.3-.3 1.2-1 1.8-1.8.5-.8.2-.7-.7-1.3z" style="fill:#008f4c;stroke:#000000;stroke-width:0.209597"/><path id="path15176" d="M260 294.7c.3-.3-1.6 0-3.4 0-1.2 0-1.1 1.6-1 2.3.2.7 2.8 1 3.4.8 1.2-.4 1.1-1 1.7-1.9.6-.7.3-.6-.7-1.2z" style="fill:#008f4c;stroke:#000000;stroke-width:0.209597"/><path id="path15178" d="M262.4 292c.2-.3-1.7 0-3.5 0-1.1 0-1 1.6-.9 2.4.2.7 2.8.8 3.3.7 1.3-.3 1.2-1 1.8-1.8.5-.8.2-.7-.7-1.3z" style="fill:#008f4c;stroke:#000000;stroke-width:0.209597"/><path id="path15180" d="M256.7 297.1c.2-.2-1.7 0-3.5 0-1.1 0-1 1.6-.9 2.4.2.7 2.8.9 3.4.7 1.2-.3 1-1 1.7-1.8.5-.7.3-.7-.7-1.3z" style="fill:#008f4c;stroke:#000000;stroke-width:0.209597"/><path id="path15182" d="M251.6 304.4c.2-.3-1.7 0-3.5 0-1.1 0-1 1.6-1 2.3.3.8 2.8 1 3.4.8 1.2-.3 1.2-1 1.8-1.8.5-.8.2-.7-.7-1.3z" style="fill:#008f4c;stroke:#000000;stroke-width:0.209597"/><path id="path15186" d="M298.8 292.2c.3-.3-2.1 0-4.4 0-1.5 0-1.4 2-1.2 3 .3.8 3.5 1 4.3.8 1.5-.4 1.4-1.2 2.2-2.2.7-1 .3-.9-.9-1.6z" style="fill:#008f4c;stroke:#000000;stroke-width:0.26216"/><path id="path15188" d="m251 296.3-1.9.1-1.2.5c-.5.2-.8.7-1 .9-.5.4-.6.2.7.7l1.3.5h1.5c.6 0 1.3 0 1.6-.2.7-.3.7-.5.7-1.3s-.3-.9-.8-1.2h-.9z" style="fill:#008f4c;stroke:#000000;stroke-width:0.26216"/><path id="path15190" d="M244.6 287.4a5 5 0 0 0-1.9 0l-1.2.6c-.5.1-.8.6-1 .8-.5.5-.6.2.7.7l1.3.6h1.5c.6 0 1.3-.1 1.6-.3.6-.3.7-.5.7-1.3s-.3-.8-.8-1.1h-.9z" style="fill:#008f4c;stroke:#000000;stroke-width:0.26216"/><path id="path15192" d="M269.4 310.2a5 5 0 0 0-2 .1l-1.2.5c-.5.2-.8.6-1 .9-.5.4-.5.2.8.6l1.2.6h1.5c.6 0 1.3 0 1.6-.2.7-.3.7-.6.7-1.4 0-.7-.2-.8-.8-1-.2-.2-.7 0-.8 0z" style="fill:#008f4c;stroke:#000000;stroke-width:0.26216"/><path id="path15194" d="M248.8 302.2a5 5 0 0 0-1.9 0l-1.2.6c-.5.1-.8.6-1 .8-.5.5-.6.2.7.7l1.3.6h1.5c.6 0 1.3-.1 1.6-.3.6-.3.7-.5.7-1.3s-.3-.8-.8-1.1h-.9z" style="fill:#008f4c;stroke:#000000;stroke-width:0.26216"/><path id="path15196" d="M271.6 307.7c.2-.3-1.7 0-3.5 0-1.1 0-1 1.6-.9 2.3.2.8 2.7 1 3.3.8 1.3-.3 1.2-1 1.8-1.8.5-.8.2-.7-.7-1.3z" style="fill:#008f4c;stroke:#000000;stroke-width:0.209597"/><path id="path15198" d="M277.9 308c.2-.3-1.7 0-3.5 0-1.1 0-1 1.6-.9 2.4.2.7 2.8.8 3.3.7 1.3-.3 1.2-1 1.8-1.8.5-.8.3-.7-.7-1.3z" style="fill:#008f4c;stroke:#000000;stroke-width:0.209597"/><path id="path15200" d="M278 304.8c.3-.2-1.6 0-3.4 0-1.2 0-1.1 1.7-1 2.4.2.7 2.8.9 3.4.7 1.2-.3 1.1-1 1.7-1.8.6-.7.3-.7-.7-1.3z" style="fill:#008f4c;stroke:#000000;stroke-width:0.209597"/><path id="path15202" d="M273.2 304.8c.2-.2-1.7 0-3.5 0-1.2 0-1.1 1.7-1 2.4.3.7 2.8.9 3.4.7 1.2-.3 1.2-1 1.8-1.8.5-.7.2-.7-.7-1.3z" style="fill:#008f4c;stroke:#000000;stroke-width:0.209597"/><path id="path15204" d="M277.6 281.6c.2-.2-1.7 0-3.5 0-1.1 0-1 1.6-.9 2.4.2.7 2.7.9 3.3.7 1.3-.3 1.2-1 1.8-1.8.5-.7.2-.7-.7-1.3z" style="fill:#008f4c;stroke:#000000;stroke-width:0.209597"/><path id="path15256" d="M282.7 285c.2-.3-1.7 0-3.5 0-1.1 0-1 1.6-.9 2.3.2.7 2.8 1 3.4.8 1.2-.4 1.1-1 1.7-1.9.5-.7.3-.6-.7-1.2z" style="fill:#008f4c;stroke:#000000;stroke-width:0.209597"/><path id="path15206" d="M281.2 283.2c.2-.2-1.7 0-3.5 0-1.1 0-1 1.6-.9 2.4.2.7 2.8.9 3.4.7 1.2-.3 1.1-1 1.7-1.8.5-.7.3-.7-.7-1.3z" style="fill:#008f4c;stroke:#000000;stroke-width:0.209597"/><path id="path15208" d="M286 284.5c.2-.3-1.7 0-3.6 0-1 0-1 1.6-.8 2.3.1.8 2.7 1 3.3.8 1.2-.3 1.1-1 1.7-1.8.6-.8.3-.7-.7-1.3z" style="fill:#008f4c;stroke:#000000;stroke-width:0.209597"/><path id="path15210" d="M263.4 283.4c.2-.3-1.7 0-3.5 0-1.1 0-1 1.6-.9 2.3.2.8 2.7 1 3.3.8 1.3-.4 1.2-1 1.8-1.9.5-.7.2-.6-.7-1.2z" style="fill:#008f4c;stroke:#000000;stroke-width:0.209597"/><path id="path15212" d="M258.2 283c.2-.2-1.7 0-3.5 0-1.1 0-1 1.7-1 2.4.3.7 2.8 1 3.4.8 1.2-.4 1.2-1 1.8-1.9.5-.7.2-.6-.7-1.2z" style="fill:#008f4c;stroke:#000000;stroke-width:0.209597"/><path id="path15214" d="M288.3 307.5c.2-.2-1.7 0-3.5 0-1.1 0-1 1.6-.9 2.4.2.7 2.8.9 3.4.7 1.2-.3 1.1-1 1.7-1.8.5-.7.3-.7-.7-1.3z" style="fill:#008f4c;stroke:#000000;stroke-width:0.209597"/><path id="path15216" d="M254 283.3c.2-.3-2.2 0-4.6 0-1.4 0-1.3 2-1 3 .1.8 3.4 1 4.2.8 1.5-.4 1.4-1.2 2.2-2.2.7-.9.3-.8-.9-1.6z" style="fill:#008f4c;stroke:#000000;stroke-width:0.26216"/><path id="path15220" d="M251.4 293.1c.3-.3-2.2 0-4.5 0-1.4 0-1.3 2-1.1 3 .2.8 3.5 1 4.2.8 1.6-.4 1.5-1.2 2.3-2.2.6-.9.3-.8-1-1.6z" style="fill:#008f4c;stroke:#000000;stroke-width:0.26216"/><path id="path15222" d="M268.3 295c.3-.3-2.2 0-4.5 0-1.4 0-1.3 2-1.1 3 .2.8 3.5 1 4.2.8 1.6-.4 1.5-1.2 2.3-2.2.6-1 .3-.8-1-1.6z" style="fill:#008f4c;stroke:#000000;stroke-width:0.26216"/><path id="path15224" d="M278.2 296.8c.3-.3-2.1 0-4.4 0-1.5 0-1.4 2-1.2 2.9.3.8 3.5 1 4.3.9 1.6-.4 1.4-1.2 2.2-2.3.7-.9.3-.8-.9-1.5z" style="fill:#008f4c;stroke:#000000;stroke-width:0.26216"/><path id="path15226" d="M280 286.7c.3-.3-2.2 0-4.5 0-1.4 0-1.4 2-1.1 2.9.2.8 3.5 1 4.2.9 1.6-.4 1.5-1.3 2.2-2.3.7-.9.4-.8-.8-1.5z" style="fill:#008f4c;stroke:#000000;stroke-width:0.26216"/><path id="path15228" d="M284.8 287.6c.4-.3-2.1 0-4.4 0-1.4 0-1.4 2-1.1 3 .2.8 3.5 1 4.2.8 1.6-.4 1.5-1.2 2.2-2.2.7-1 .4-.9-.9-1.6z" style="fill:#008f4c;stroke:#000000;stroke-width:0.26216"/><path id="path15230" d="M281.4 294.5c.3-.2-2.2 0-4.5 0-1.4 0-1.3 1.7-1.1 2.5.2.7 3.5 1 4.2.7 1.6-.3 1.5-1 2.3-1.9.6-.7.3-.7-1-1.3z" style="fill:#008f4c;stroke:#000000;stroke-width:0.241908"/><path id="path15232" d="M285.8 297.7c.3-.3-2.2 0-4.5 0-1.4 0-1.3 2-1 3 .1.8 3.4 1 4.2.8 1.5-.4 1.4-1.2 2.2-2.2.7-1 .3-.9-.9-1.6z" style="fill:#008f4c;stroke:#000000;stroke-width:0.26216"/><path id="path15234" d="M275.2 284.2a5 5 0 0 1 1.9 0c.6.2.8.5 1.3.6.4.1.7.6 1 .8.4.5.5.2-.8.7l-1.3.6h-1.5c-.5 0-1.2-.1-1.6-.3-.6-.3-.6-.5-.6-1.3s.2-.8.8-1.1c.1-.1.6 0 .8 0z" style="fill:#008f4c;stroke:#000000;stroke-width:0.26216"/><path id="path15236" d="M275.7 289.4a5 5 0 0 1 1.9.1l1.2.5c.5.1.8.6 1 .8.5.5.6.2-.7.7l-1.3.6h-1.5c-.6 0-1.3 0-1.6-.3-.6-.3-.7-.5-.7-1.3s.3-.8.8-1.1h.9z" style="fill:#008f4c;stroke:#000000;stroke-width:0.26216"/><path id="path15238" d="M298 295.9a5 5 0 0 1 2 0l1.2.6c.5 0 .8.6 1 .8.5.4.6.2-.7.7-.6.2-1 .5-1.3.5-.5.2-.8 0-1.5 0-.6 0-1.3 0-1.6-.2-.7-.3-.7-.5-.7-1.3s.3-.9.8-1.1h.9z" style="fill:#008f4c;stroke:#000000;stroke-width:0.26216"/><path id="path15240" d="M294.8 296.6a5 5 0 0 1 2 .1l1.2.5c.5.2.8.7 1 .9.4.4.5.2-.8.7l-1.3.5h-1.5c-.5 0-1.2 0-1.5-.2-.7-.3-.7-.6-.7-1.4 0-.7.2-.8.8-1 .1-.2.6 0 .8 0z" style="fill:#008f4c;stroke:#000000;stroke-width:0.26216"/><path id="path15242" d="M294.6 304.8h1.9c.6.2.8.5 1.3.6.4.1.8.6 1 .8.4.5.5.2-.8.7l-1.3.6h-1.5c-.5 0-1.2-.1-1.6-.3-.6-.3-.6-.5-.6-1.3s.2-.8.8-1.1c.1-.1.6 0 .8 0z" style="fill:#008f4c;stroke:#000000;stroke-width:0.26216"/><path id="path15244" d="M296.2 302.8a5 5 0 0 1 1.9 0l1.2.6c.5.1.8.6 1 .8.5.5.6.2-.7.7l-1.3.6h-1.5c-.6 0-1.3-.1-1.6-.3-.6-.3-.7-.5-.7-1.3s.3-.8.8-1.1h.9z" style="fill:#008f4c;stroke:#000000;stroke-width:0.26216"/><path id="path15246" d="M297.7 298.2a5 5 0 0 1 2 .1l1.2.5c.5.1.8.6 1 .8.4.5.5.2-.8.7l-1.3.6h-1.5c-.5 0-1.2 0-1.5-.2-.7-.4-.7-.6-.7-1.4 0-.8.2-.8.8-1.1h.8z" style="fill:#008f4c;stroke:#000000;stroke-width:0.26216"/><path id="path15248" d="M294.6 300.3a5 5 0 0 1 1.9.1l1.3.5c.4.1.8.6 1 .9.4.4.5.2-.8.6l-1.3.6h-1.5c-.5 0-1.2 0-1.6-.2-.6-.4-.6-.6-.6-1.4 0-.7.2-.8.8-1 .1-.2.6 0 .8 0z" style="fill:#008f4c;stroke:#000000;stroke-width:0.26216"/><path id="path15250" d="M289.8 306.1a5 5 0 0 1 1.9.1l1.3.5c.4.2.8.6 1 .9.4.4.5.2-.8.6l-1.3.6h-1.5c-.5 0-1.2 0-1.6-.2-.6-.4-.6-.6-.6-1.4 0-.7.2-.8.8-1 .1-.2.6 0 .8 0z" style="fill:#008f4c;stroke:#000000;stroke-width:0.26216"/><path id="path15252" d="M296.4 287.3a5 5 0 0 1 1.9 0c.6.2.8.5 1.3.6.4 0 .7.6 1 .8.4.4.5.2-.8.7-.6.2-1 .5-1.3.5-.5.2-.8 0-1.5 0-.5 0-1.2 0-1.6-.2-.6-.3-.6-.5-.6-1.3s.2-.9.7-1.1h.9z" style="fill:#008f4c;stroke:#000000;stroke-width:0.26216"/><path id="path15254" d="M283.2 295.5a5 5 0 0 1 2 .1l1.2.5c.5.1.8.6 1 .9.4.4.5.2-.8.6l-1.3.6h-1.5c-.5 0-1.2 0-1.5-.2-.7-.4-.7-.6-.7-1.4 0-.7.2-.8.8-1 .1-.2.6 0 .8 0z" style="fill:#008f4c;stroke:#000000;stroke-width:0.26216"/><path id="path15258" d="M289 291.4c.3-.2-1.6 0-3.4 0-1.1 0-1 1.6-.9 2.4.2.7 2.7.9 3.3.7 1.2-.3 1.2-1 1.8-1.8.5-.7.2-.7-.7-1.3z" style="fill:#008f4c;stroke:#000000;stroke-width:0.209597"/><path id="path15260" d="M290.7 286.9c.3-.3-1.6 0-3.5 0-1 0-1 1.6-.8 2.3.1.7 2.7 1 3.3.8 1.2-.4 1.1-1 1.7-1.9.6-.7.3-.6-.7-1.2z" style="fill:#008f4c;stroke:#000000;stroke-width:0.209597"/><path id="path15262" d="M294.5 289.6c.3-.2-1.6 0-3.5 0-1 0-1 1.7-.8 2.4.1.7 2.7.9 3.3.7 1.2-.3 1.1-1 1.7-1.8.6-.7.3-.7-.7-1.3z" style="fill:#008f4c;stroke:#000000;stroke-width:0.209597"/><path id="path15264" d="M286.8 303.8c.3-.2-1.6 0-3.5 0-1 0-1 1.6-.8 2.4.1.7 2.7.9 3.3.7 1.2-.3 1.1-1 1.7-1.8.6-.7.3-.7-.7-1.3z" style="fill:#008f4c;stroke:#000000;stroke-width:0.209597"/><path id="path15266" d="M287.5 297.4a5 5 0 0 1 1.9.1l1.2.5c.5.1.8.6 1 .9.5.4.5.2-.7.6l-1.3.6H288c-.6 0-1.3 0-1.6-.2-.7-.4-.7-.6-.7-1.4 0-.7.2-.8.8-1 .2-.2.7 0 .9 0z" style="fill:#008f4c;stroke:#000000;stroke-width:0.26216"/><path id="path15268" d="M283 293.2a5 5 0 0 1 1.9 0c.6.2.8.5 1.3.6.4.1.7.6 1 .8.4.5.5.2-.8.7l-1.3.6h-1.5c-.5 0-1.2-.1-1.6-.3-.6-.3-.6-.5-.6-1.3s.2-.8.8-1.1c.1-.1.6 0 .8 0z" style="fill:#008f4c;stroke:#000000;stroke-width:0.26216"/><path id="path15270" d="M286 289.2a5 5 0 0 1 1.9 0c.6.2.8.5 1.3.6.4 0 .8.6 1 .8.4.4.5.2-.8.7-.6.2-1 .5-1.3.5-.5.2-.8 0-1.5 0-.5 0-1.2 0-1.5-.2-.7-.3-.7-.5-.7-1.3s.2-.9.8-1.1c.1-.1.6 0 .8 0z" style="fill:#008f4c;stroke:#000000;stroke-width:0.26216"/><path id="path15272" d="M288.2 293.8a5 5 0 0 1 2 .2l1.2.5c.5 0 .8.6 1 .8.5.4.5.2-.8.7l-1.2.5c-.5.1-.9 0-1.6 0-.5 0-1.2 0-1.5-.2-.7-.3-.7-.5-.7-1.3s.2-.9.8-1.2h.8z" style="fill:#008f4c;stroke:#000000;stroke-width:0.26216"/><path id="path15274" d="M288.1 285a5 5 0 0 1 2 0l1.2.5c.5.1.8.6 1 .9.4.4.5.2-.8.6l-1.3.6h-1.5c-.5 0-1.2 0-1.5-.2-.7-.4-.7-.6-.7-1.4 0-.7.2-.8.8-1 .2-.2.6 0 .8 0z" style="fill:#008f4c;stroke:#000000;stroke-width:0.26216"/><path id="path15276" d="M293 285.5a5 5 0 0 1 1.8 0l1.3.6c.5.1.8.6 1 .8.4.5.5.2-.8.7-.6.2-1 .5-1.3.5-.4.2-.8 0-1.5 0-.5 0-1.2 0-1.5-.2-.7-.3-.7-.5-.7-1.3s.2-.8.8-1.1c.2-.1.6 0 .8 0z" style="fill:#008f4c;stroke:#000000;stroke-width:0.26216"/><path id="path15278" d="M244 296.5a5 5 0 0 0-2-.3l-1.3.1c-.5 0-1 .4-1.2.6-.5.3-.5 0 .6.8l1.1.9 1.5.3c.5.2 1.2.3 1.6.2.7-.2.7-.4 1-1.1.1-.8 0-1-.6-1.3l-.8-.2z" style="fill:#008f4c;stroke:#000000;stroke-width:0.26216"/><path id="path15280" d="M247.5 284.5a5 5 0 0 0-1.9-.3l-1.4.2c-.4 0-.9.4-1.1.6-.6.3-.6 0 .6.8l1 .8c.5.3.9.2 1.6.4l1.5.2c.7-.2.8-.4 1-1.2.2-.7 0-.9-.5-1.3l-.8-.2z" style="fill:#008f4c;stroke:#000000;stroke-width:0.26216"/><path id="path15282" d="M247.7 299.2a5 5 0 0 0-1.9-.4l-1.3.2c-.5 0-1 .4-1.2.6-.5.3-.5 0 .6.8l1.1.9 1.5.3c.5.2 1.2.3 1.5.2.8-.2.8-.4 1-1.2.2-.7 0-.8-.5-1.2-.1-.2-.6-.2-.8-.2z" style="fill:#008f4c;stroke:#000000;stroke-width:0.26216"/><path id="path15284" d="M253 299a5 5 0 0 0-1.8-.4l-1.4.2c-.5 0-.9.4-1.1.6-.6.3-.6 0 .6.8l1 .9 1.5.3 1.6.2c.7-.2.8-.4 1-1.2.2-.7 0-.9-.5-1.3l-.8-.2z" style="fill:#008f4c;stroke:#000000;stroke-width:0.26216"/><path id="path15286" d="M254.2 302a5 5 0 0 0-1.9-.4l-1.4.2c-.4 0-.9.4-1.1.6-.6.3-.6 0 .6.8l1 .9c.5.2.9.2 1.6.3l1.5.2c.7-.2.8-.4 1-1.2.2-.7 0-.8-.5-1.2-.2-.2-.6-.2-.8-.2z" style="fill:#008f4c;stroke:#000000;stroke-width:0.26216"/><path id="path15288" d="M252.5 289.2a5 5 0 0 0-1.9-.3l-1.3.2c-.5 0-1 .4-1.2.6-.5.3-.5 0 .6.8l1.1.8c.5.3.8.2 1.5.4.5.1 1.2.2 1.5.1.8-.1.8-.3 1-1.1.2-.7 0-.9-.5-1.3l-.8-.2z" style="fill:#008f4c;stroke:#000000;stroke-width:0.26216"/><path id="path15290" d="M253.6 286.7a5 5 0 0 0-1.9-.4l-1.3.2c-.5 0-1 .4-1.2.6-.5.3-.5 0 .6.8l1.1.9 1.5.3c.5.1 1.2.3 1.6.2.7-.2.7-.4 1-1.2.1-.7 0-.8-.6-1.2-.1-.2-.6-.2-.8-.2z" style="fill:#008f4c;stroke:#000000;stroke-width:0.26216"/><path id="path15292" d="M244.5 292.8a5 5 0 0 0-1.9-.3l-1.4.2c-.4 0-.9.4-1.1.5-.6.4-.6.1.6.9l1 .8 1.5.4c.6 0 1.3.2 1.6.1.7-.2.8-.4 1-1.1.2-.8 0-.9-.5-1.3l-.8-.2z" style="fill:#008f4c;stroke:#000000;stroke-width:0.26216"/><path id="path15294" d="M246 295.3a5 5 0 0 0-2-.4l-1.3.2c-.5 0-1 .4-1.2.6-.5.3-.5 0 .6.8l1.1.9 1.5.3c.5.1 1.2.3 1.6.2.7-.2.7-.4 1-1.2.1-.7 0-.8-.6-1.2-.1-.2-.6-.2-.8-.2z" style="fill:#008f4c;stroke:#000000;stroke-width:0.26216"/><path id="path15296" d="M270.6 303a5 5 0 0 0-1.8.3l-1.3.7c-.4.2-.6.7-.8 1-.4.4-.5.2.8.5.6.2 1 .4 1.4.4.5 0 .8 0 1.5-.2.5 0 1.2-.2 1.5-.4.6-.4.6-.6.5-1.4-.1-.7-.3-.8-1-1l-.8.1z" style="fill:#008f4c;stroke:#000000;stroke-width:0.26216"/><path id="path15298" d="M269.6 301.2a5 5 0 0 0-1.9-.4l-1.4.2c-.4 0-.9.4-1.1.6-.6.3-.6 0 .6.8l1 .9c.5.2.9.2 1.6.3.5.2 1.2.3 1.5.2.7-.2.8-.4 1-1.2.2-.7 0-.8-.5-1.2l-.8-.2z" style="fill:#008f4c;stroke:#000000;stroke-width:0.26216"/><path id="path2063" d="M269.2 263v5.7h-7.4v4.2h7.1v20h5.1l.3-20h7.2v-4.2h-7.6l.1-5.7z" style="fill:#ed1c24"/><path id="path15300" d="M259 286.3a5 5 0 0 0-1.9-.3l-1.4.2c-.4 0-.9.4-1.1.6-.6.3-.6 0 .6.8l1 .8c.5.3.9.2 1.6.4.5.1 1.2.2 1.5.1.7-.1.8-.3 1-1.1.2-.7 0-.9-.5-1.3l-.8-.2z" style="fill:#008f4c;stroke:#000000;stroke-width:0.26216"/><path id="path15302" d="M244.7 300.3a5 5 0 0 0-1.9-.4l-1.3.2c-.5 0-1 .4-1.2.6-.5.3-.6 0 .6.8l1.1.9c.4.2.8.2 1.5.3.5.2 1.2.3 1.5.2.8-.2.8-.4 1-1.2.2-.7 0-.8-.5-1.2l-.8-.2z" style="fill:#008f4c;stroke:#000000;stroke-width:0.26216"/><path id="path15304" d="M262.7 307a5 5 0 0 0-1.9.5l-1.1.8c-.4.2-.6.7-.8 1-.4.5-.5.3.9.5l1.3.3c.6 0 .8-.2 1.5-.3l1.5-.5c.6-.5.6-.7.4-1.5-.2-.7-.4-.8-1-1l-.8.2z" style="fill:#008f4c;stroke:#000000;stroke-width:0.26216"/><path id="path15306" d="M266.1 308.8c-.3-.2-1.2-.4-1.8-.4l-1.4.2c-.5 0-1 .4-1.2.6-.5.3-.5 0 .6.8l1.1.9 1.5.3c.5.2 1.2.3 1.6.2.7-.2.7-.4 1-1.2.1-.7 0-.8-.6-1.2-.1-.2-.6-.2-.8-.2z" style="fill:#008f4c;stroke:#000000;stroke-width:0.26216"/><path id="path15308" d="M267.1 298.6a5 5 0 0 0-1.8-.3l-1.4.2c-.5 0-1 .4-1.2.5-.5.4-.5.1.6.9.6.3.8.7 1.1.8.5.3.8.2 1.5.4.5 0 1.2.2 1.6.1.7-.1.7-.3 1-1.1.1-.8 0-.9-.6-1.3l-.8-.2z" style="fill:#008f4c;stroke:#000000;stroke-width:0.26216"/><path id="path15310" d="M261.2 296.6a5 5 0 0 0-1.9-.3l-1.3.1c-.5 0-1 .5-1.2.6-.5.3-.5.1.6.9l1.1.8 1.5.4c.5 0 1.2.2 1.6.1.7-.2.7-.4 1-1.1.1-.8 0-.9-.6-1.3l-.8-.2z" style="fill:#008f4c;stroke:#000000;stroke-width:0.26216"/><path id="path15312" d="M276.1 302.2a5 5 0 0 0 2 .1l1.3-.2c.4 0 .8-.5 1-.7.6-.4.6-.1-.6-.8l-1.2-.8c-.4-.2-.8 0-1.4-.2-.6 0-1.3-.1-1.6 0-.7.2-.8.4-.9 1.2-.1.7 0 .8.6 1.2l.8.2z" style="fill:#008f4c;stroke:#000000;stroke-width:0.26216"/><path id="path15314" d="M266.2 292.5a5 5 0 0 0-1.8-.4l-1.4.2c-.5 0-.9.4-1.2.6-.5.3-.5 0 .6.8l1.1.9 1.5.3c.5.2 1.2.3 1.6.2.7-.2.8-.4 1-1.2.1-.7 0-.8-.6-1.2-.1-.2-.6-.2-.8-.2z" style="fill:#008f4c;stroke:#000000;stroke-width:0.26216"/><path id="path15316" d="M280.1 308.7a5 5 0 0 0 2 .2c.5 0 .8-.3 1.3-.3.4 0 .8-.5 1-.7.6-.3.6-.1-.6-.8l-1.2-.7c-.4-.2-.8-.2-1.4-.3-.6 0-1.3-.1-1.6 0-.7.2-.8.4-.9 1.2-.1.8 0 .9.6 1.2l.8.2z" style="fill:#008f4c;stroke:#000000;stroke-width:0.26216"/><path id="path15318" d="M285.6 303.4a5 5 0 0 0 1.9.2c.6 0 .9-.2 1.3-.3.5 0 .9-.4 1.2-.6.4-.4.5-.1-.7-.8l-1.2-.8c-.5-.2-.8-.1-1.5-.2-.5-.1-1.2-.2-1.6 0-.7.2-.7.4-.8 1.2-.2.7 0 .8.6 1.2l.8.1z" style="fill:#008f4c;stroke:#000000;stroke-width:0.26216"/><path id="path15320" d="M269.8 299a5 5 0 0 0 2 .2c.5 0 .8-.3 1.3-.3s.8-.5 1.1-.7c.5-.4.5-.1-.7-.8l-1.1-.7-1.5-.3c-.5 0-1.3-.1-1.6 0-.7.2-.7.4-.9 1.2 0 .8.1.9.6 1.2l.8.2z" style="fill:#008f4c;stroke:#000000;stroke-width:0.26216"/><path id="path15322" d="M272.9 297.4a5 5 0 0 0 1.9.2c.6 0 .8-.3 1.3-.3s.9-.5 1.1-.7c.5-.3.6 0-.6-.7l-1.2-.8c-.5-.2-.8-.1-1.5-.2-.5-.1-1.2-.2-1.6 0-.7.1-.7.4-.9 1.1 0 .8.1.9.6 1.3l.9.1z" style="fill:#008f4c;stroke:#000000;stroke-width:0.26216"/><path id="path17945" d="M248.7 287a5 5 0 0 0-1.9-.3l-1.3.2c-.5 0-1 .4-1.2.5-.5.3-.5.1.6.9l1.1.8 1.5.4c.5 0 1.2.2 1.6.1.7-.2.7-.4 1-1.1.1-.8 0-.9-.6-1.3l-.8-.2z" style="fill:#008f4c;stroke:#000000;stroke-width:0.26216"/><path id="path17947" d="M243.7 290.3a5 5 0 0 0-1.9-.3l-1.4.2c-.4 0-.8.4-1.1.6-.5.3-.6 0 .6.8l1.1.9c.4.2.8.1 1.5.3l1.5.2c.7-.2.8-.4 1-1.2.2-.7 0-.8-.5-1.3l-.8-.2z" style="fill:#008f4c;stroke:#000000;stroke-width:0.26216"/><path id="path17949" d="M248.6 290.6a5 5 0 0 0-1.9-.4l-1.3.2c-.5 0-1 .4-1.2.6-.5.3-.6 0 .6.8l1.1.9 1.5.3c.5.2 1.2.3 1.5.2.8-.2.8-.4 1-1.2.2-.7 0-.8-.5-1.2-.1-.2-.6-.2-.8-.2z" style="fill:#008f4c;stroke:#000000;stroke-width:0.26216"/><path id="path17951" d="M295.6 290a5 5 0 0 1 1.9 0l1.3.5c.4.2.8.7 1 .9.4.4.5.2-.8.7l-1.3.5h-1.5c-.5 0-1.2 0-1.5-.2-.7-.3-.7-.5-.7-1.3s.2-.9.8-1.2h.8z" style="fill:#008f4c;stroke:#000000;stroke-width:0.26216"/><path id="path15166" d="M274.9 291.3c-1.5.1-1.2-.7-3.2.6-.5.3-.7 1.4-.5 2.3.2.9 3.5 1 4.2.9 1.6-.4 1.5-1.2 2.3-2.2.6-1-1.2-1-2.8-1.6z" style="fill:#008f4c;stroke:#000000;stroke-width:0.26216"/><path id="path17955" d="M274.5 359.7c-1-.6-1-2.1-1-3.8l-.1-3.1-.5-1" style="fill:none;stroke:#2d3235;stroke-width:0.26216"/><path id="path17957" d="M268.7 359c-.3-1.1 2.4-1 2.9-2 .3-.6-.3-2.3-.5-2.9 0-.4-.4-.6-.4-1.3" style="fill:none;stroke:#2d3235;stroke-width:0.3277"/><path id="path21452" d="M269.9 331.5c-1-.6-.9-2.1-.9-3.8 0-1.1 0-2.4-.2-3.2l-.5-.9" style="fill:none;stroke:#2d3235;stroke-width:0.26216"/><path id="path21454" d="M250.5 357.8c.4-1 1.9-1.4 3.5-1.8 1-.2 2.4-.5 3-.9.6-.2.4-.3.8-.6" style="fill:none;stroke:#2d3235;stroke-width:0.26216"/><path id="path21456" d="M272.6 343.3c-1-.6-1-2.1-1-3.8l-.1-3.1-.5-1" style="fill:none;stroke:#2d3235;stroke-width:0.26216"/><path id="path21458" d="M273.5 320.7c-1-.5-1-2-1-3.8l-.1-3c-.2-.7-.3-.5-.5-1" style="fill:none;stroke:#2d3235;stroke-width:0.26216"/><path id="path22337" d="M296 208.8c-3.5 2.7-11.4 8.9-15.2 9-3.8.1-8.6-4-12.5-6.6-6.4 4.3-11 8.2-14 8-3-.1-8.4-5-12-7.6-4.2 3-10.2 9.9-13 9.5-3-.3-5.7-2-10.7-5.7l-2.7 2c1.4.8 9 6.8 13.4 6.6 4.6-.2 9.8-6.1 13.2-8.3 3 1.8 7 6.8 12.3 6.7 3.4 0 9.4-4.8 13.4-7.9 2.5 1.6 10.2 6.8 12.8 6.7 4.6 0 11.7-6.2 15-8.1 2 2.3 9.8 7.1 13 7.1 4 0 9.3-4.5 12.4-7 2.8 3 9.5 7.2 13.5 7.2 3.2 0 11-5.5 13.1-7.1a51 51 0 0 0 12.8 7.5c3.5.3 11.4-4.9 14-6.7 2.4 2.1 10.2 8 13.8 8 3.6 0 11.1-5.2 13-7.4 2.4 2.1 9 9.1 13 9.3 5.2.2 13.2-7.2 15-8l-3.5-.8c-1.8 1-6.7 5.9-11.3 6-2.8 0-11.5-8-13-10.3-1.5 2-10 8.4-13.4 8.4-2.7 0-11.3-6.6-13.3-8.4a42.8 42.8 0 0 1-13.9 6.8c-2.7 0-10.8-6-12.8-8.1-1.7 1.7-10.3 7.6-13.5 7.6-3.2 0-10.4-5.7-13.5-7.8-2.6 1.7-9.1 7.7-12.2 7.6-3.6 0-11-6.2-13.2-8.2z" style="fill:#eac102;stroke:#000000;stroke-width:0.26216"/><path id="path1545" d="M427.2 182c-2.4 0-1.6-1-4.6.1-3.5 1.8-4 5.6-4.2 7.2-1.2 1.5-2 1-2 6.5 0 4 5.1 6.4 6.3 6.8.1 4.2-1 13 4.2 13.7 4.2.5 5-2.3 5.3-5.5 0-3.4.1-11-.5-16-1-7.8-3.2-12.7-4.5-12.8z" style="fill:#eac102;stroke:#000000;stroke-width:0.26216"/><path id="path5406" d="M444.6 154.5c-2 1.6-11 9.4-12 12.8-.7 2.8-1 5.6-1.3 9-.3 2.5.5 8.4.5 10.1l.3 5.7c0 1.8-.6 4-2.1 5-1.7 1-4.8.6-6-.4a6 6 0 0 1-1.8-5c.4-2.5 1.8-4.2 2.3-5.9a47 47 0 0 0 1.9-9.9c-.1-1.5-1.3-3.9-2.6-6.1-2-3.1-4.6-4.2-7.7-8.1 4.7-.6 6.7 0 10-.9 4-1.9 17.2-7.3 18.5-6.3z" style="fill:#eac102;stroke:#000000;stroke-width:0.26216"/><path id="path1543" d="M216.1 182.9c2.4-.1 1.6-1.1 4.7 0 3.4 1.9 4 5.6 4.1 7.3 1.3 1.5 2 .9 2.1 6.5-.1 4-5.2 6.4-6.4 6.7 0 4.3 1 13.1-4.1 13.8-4.3.5-5-2.4-5.4-5.6 0-3.4 0-11 .6-16 1-7.8 3.2-12.7 4.4-12.7z" style="fill:#eac102;stroke:#000000;stroke-width:0.26216"/><path id="path5410" d="M199.7 154.8c2 1.5 10 9.4 10.9 12.7a59 59 0 0 1 1.3 9c.3 2.5-.5 8.5-.5 10.1l-.3 5.7c0 1.9.6 4.8 2.1 5.8 1.7 1 5 .2 6.2-.8 1.3-1 2-3.8 1.6-5.4-.4-2.4-1.8-4.2-2.3-5.8a48 48 0 0 1-1.9-10c.1-1.5 1.2-3.8 2.7-6 1.5-2.5 5.2-3.2 8.3-7-4.8-.6-11-3.3-14.2-6-3.5-2.2-12.5-3.4-13.9-2.3z" style="fill:#eac102;stroke:#000000;stroke-width:0.26216"/><path id="path1637" d="M222.9 252.5c-2.9 0-4.3 4.6.5 4.5 2.3-.1 48.4-3.9 99-3.9 51.5 0 94.8 3.5 97.9 3.5 3.2 0 3.6-4.9.8-5-2.6-.1-47-2.9-99-2.9-51.2 0-97.8 3.8-99.2 3.8z" style="fill:#eac102;stroke:#000000;stroke-width:0.26216"/><path id="path1639" d="M421 241c-.3 1.8-.3 5.9 1.5 6.3 1.7.5 4.6-3.1 5.1-5.5.5-2.3 0-6.3-1.8-6.6-1.9-.4-4.4 4-4.8 5.8z" style="fill:#ed1c24;stroke:#000000;stroke-width:0.26216"/><path id="path3387" d="M223 241.3c.2 1.8 0 5.8-1.8 6.2-1.8.4-4.5-3.4-4.9-5.8-.3-2.3.4-6.3 2.2-6.5 1.9-.3 4.2 4.2 4.4 6z" style="fill:#ed1c24;stroke:#000000;stroke-width:0.26216"/><path id="path2096" d="M333.2 369.2H344v147.2c-3.2.6-7.2 1.6-11 2z" style="fill:#ed1c24"/><path id="path1645" d="M243.8 413.7c-.2.3.2 2 1 2.7.5.6 1 1.3 2.5.9 0 0 .3-.6-.7-3.7z" style="fill:#999999;fill-opacity:1;stroke:#000000;stroke-width:0.374233"/><path id="path1647" d="m255.1 408.7 3.9-.8a8 8 0 0 0 3-2" style="fill:none;stroke:#000000;stroke-width:0.3277"/><path id="path2522" d="M258.4 406.5v.3c-.2.2-.2.4-.3.7l-.4.6" style="fill:none;stroke:#000000;stroke-width:0.233912"/><path id="path2524" d="m259 406.5-.1.1v.2c-.2.2-.2.4-.3.7l-.5.6" style="fill:none;stroke:#000000;stroke-width:0.233912"/><path id="path2526" d="m259.7 406.2-.1.2-.3.7-.4.7" style="fill:none;stroke:#000000;stroke-width:0.233912"/><path id="path2528" d="M249 415.5v.3l-.4.7c0 .2-.2.4-.4.6" style="fill:none;stroke:#000000;stroke-width:0.233912"/><path id="path2530" d="m249.7 415.4-.1.2-.3.7-.4.7" style="fill:none;stroke:#000000;stroke-width:0.233912"/><path id="path2532" d="M245.8 416a3 3 0 0 1-.7-1.2v-.3" style="fill:none;stroke:#000000;stroke-width:0.253115"/><path id="path2525" d="M300.6 408c-.2.3 1-.5 1.4-.3.5.1.8 1.2 1 .5.3-1 2-1.1 2-2 0-.4 3-3 2.8-3.5 0-.2 1.2-7 .5-6.7-.3.2-.4-.3-.9-.2-.5 0-.9 4-2.1 6.9-.8 1.8-2.5 2.8-3.2 3.3-.8.8-1.3 1.6-1.5 2z" style="fill:#999999;fill-opacity:1;stroke:#000000;stroke-width:0.3277"/><path id="path4276" d="M298.4 413v.4l-.3.7-.4.7" style="fill:none;stroke:#000000;stroke-width:0.233912"/><path id="path4278" d="M297.9 413.1v.3l-.4.7-.4.7" style="fill:none;stroke:#000000;stroke-width:0.233912"/><path id="path4280" d="M299 413v.2c0-.2 0-.1-.1.1-.1.3-.1.5-.3.7l-.4.7" style="fill:none;stroke:#000000;stroke-width:0.233912"/><path id="path4282" d="m285.6 409.7.4-.7" style="fill:none;stroke:#000000;stroke-width:0.233912"/><path id="path4284" d="m285.9 410.1.6-1" style="fill:none;stroke:#000000;stroke-width:0.233912"/><path id="path4286" d="m286.4 410 .4-.6" style="fill:none;stroke:#000000;stroke-width:0.233912"/><path id="path4288" d="M303.7 410.3v-.1l-.2-.1-.4-.6-.4-.7" style="fill:none;stroke:#000000;stroke-width:0.233912"/><path id="path4290" d="M304.6 408h-.1c.1-.1 0-.1-.2 0l-.7.3-.8.1" style="fill:none;stroke:#000000;stroke-width:0.233912"/><path id="path4292" d="M308.9 395.8v.2l.3.7.2.8" style="fill:none;stroke:#000000;stroke-width:0.233912"/><path id="path4294" d="m308 396-.1.1v.9l-.3.8" style="fill:none;stroke:#000000;stroke-width:0.233912"/><path id="path4296" d="M311.8 396.5a4 4 0 0 0-2-1.6l-.6-.1" style="fill:none;stroke:#000000;stroke-width:0.255;stroke-miterlimit:4;stroke-dasharray:none"/><path id="path4300" d="M313 399.1a10 10 0 0 1-1.7 4l-.2.3" style="fill:none;stroke:#000000;stroke-width:0.246102"/><path id="path5181" d="M296.2 389.1h.9c1.2 0-.3 0 0 0s.5-.3.8-.4l1-.6c-.2.2-.6 1.2-.9 1.2-.6.2-1.3 0-1.9 0h-.9z"/><path id="path1696" d="m257 471.3-.3.5-.3.5-.3.4-.1.1" style="fill:none;stroke:#000000;stroke-width:0.233912"/><path id="path1698" d="m257.5 471.2-.2.5-.3.5-.4.4v.1" style="fill:none;stroke:#000000;stroke-width:0.233912"/><path id="path1700" d="M260 458.4v1.9" style="fill:none;stroke:#000000;stroke-width:0.233912"/><path id="path1704" d="m260.4 458.5.2.5a333.5 333.5 0 0 1 .4 1.1v.1" style="fill:none;stroke:#000000;stroke-width:0.233912"/><path id="path1706" d="M254.8 468.7h-1.1l-.5-.1h-.2" style="fill:none;stroke:#000000;stroke-width:0.233912"/><path id="path1708" d="m255.3 470-1.4.2h-1.2" style="fill:none;stroke:#000000;stroke-width:0.233912"/><path id="path1710" d="M252.9 473.3c-.2-.3 0-1 0-1.3v-.2" style="fill:none;stroke:#000000;stroke-width:0.223753"/><path id="path1712" d="M253.4 473.2c-.2-.3 0-1 0-1.3l.1-.2" style="fill:none;stroke:#000000;stroke-width:0.223753"/><g id="g3435" style="fill:#999999;fill-opacity:1" transform="scale(-.18712 .18712) rotate(-50.9 1589 3426.4)"><path id="path3437" d="M225 362.6c5.3 1.5 9.4 1 10.5 5.2 1.2 4.1 0 5.3 0 5.2 0 0 7.9-6.4 15.1-8.6 2.3-4.8 1.4-10.7-2.7-15.6-1.5-2.7-29.5 12.2-23 13.8z" style="fill:#999999;fill-opacity:1;stroke:#000000;stroke-width:2"/><path id="path3439" d="M204.3 432.4c2.1 7.1 7.5 4.8 13.7 10 3.3-6.2 10-34.4 11.1-37.6 2.6-6.6 13.2-16 15-18.7 8.5-12.4 1.8-12-.9-16.7-.7-5.2 1.6-7-1.5-6.8-3 .2-24 10-26 12.1-5.8 6.4-6.6 15.4-8.4 25-1.9 10-5 25.6-3 32.7z" style="fill:#999999;fill-opacity:1;stroke:#000000;stroke-width:2"/></g><path id="path1669" d="M305 475.3c.1-.1.6-.7.3-1.4-.4-.4 1.4.3 1.1.9-.4.4-1.4.6-1.3.5z" style="fill:#999999;fill-opacity:1;stroke:#000000;stroke-width:0.374233"/><path id="path1677" d="M301.5 497.5c-.1-.3.2-1 .2-1.6-1.1-.7-2 .7-1.8.8 0 0 1.3.8 1.6.8z" style="fill:#999999;fill-opacity:1;stroke:#000000;stroke-width:0.374233"/><path id="path1683" d="M314 481.7c-1 .4-1.2 1.3-1.3 2.1-.1.8-.3 1.6-1.2 1.9-1-.4-2.6-2.6-2.6-2.6 0-.3.8-1 .7-1.8-.2-1.2.7-1.6 1.5-2 .8-.5 4 2 2.9 2.4z" style="fill:#999999;fill-opacity:1;stroke:#000000;stroke-width:0.374233"/><g id="g1695" style="fill:#999999;fill-opacity:1" transform="matrix(-.18555 .0241 .0241 .18555 348.9 406.7)"><path id="path1697" d="M215.2 339c1 4.8 5.6 13 12.1 14.6 5.3 1.5 6.6 14 7.8 18 1.2 4.2 16-11.8 16-16.3-.2-6.4-5-15.3-9.6-17.1-4.8-1.8-10-4-11.5-6.6-1.5-2.7.6-6.2-1.5-8 0 0-14.2 10.8-13.3 15.5z" style="fill:#999999;fill-opacity:1;stroke:#000000;stroke-width:2"/></g><path id="path1681" d="M313.4 472.9c-.4-.5 1.6-.6 1.6.8 0 1.1-1.4 2-1.3 1.8.2-.6-.1-2.3-.3-2.6z" style="fill:#999999;fill-opacity:1;stroke:#000000;stroke-width:0.374233"/><path id="path1685" d="M309.5 482c0 1-.7 1.3-1 .6-.4-1-.5-.9 0-1 .2 0 .8.2 1 .4z" style="fill:#999999;fill-opacity:1;stroke:#000000;stroke-width:0.374233"/><path id="path4312" d="M321.9 369v150.2" style="fill:none;stroke:#000000;stroke-width:0.3277"/><path id="path2139" d="M266.1 369v51.5h-43.4c.1 4.4 0 7.6.5 12.5H266v72.5c4 2.4 8.1 4.6 12.8 6.9v-79.5h42.9v-12.4h-43V369h-12.6z" style="fill:#ed1c24"/><path id="path5260" d="M355 369.2h10.9v139.3a85 85 0 0 1-10.9 4.7z" style="fill:#ed1c24"/><path id="path5262" d="M376.8 369.3h11v123.4c-2 2-7.2 6.8-11 9.2z" style="fill:#ed1c24"/><path id="path5264" d="M398.7 369.3h10.9V462a98.5 98.5 0 0 1-11 18.1z" style="fill:#ed1c24"/><path id="path5266" d="m309.2 461.8.5.3.5.3.4.5" style="fill:none;stroke:#000000;stroke-width:0.233912"/><path id="path5268" d="m309.3 464.6-.3-.4a69.4 69.4 0 0 0-.3-1.1v-.2" style="fill:none;stroke:#000000;stroke-width:0.233912"/><path id="path5270" d="M286.4 497.4s-.3 0-.5.2a83.5 83.5 0 0 0-1.2.2" style="fill:none;stroke:#000000;stroke-width:0.233912"/><path id="path5272" d="m286.5 497.9-.3.2-.6.2h-.7" style="fill:none;stroke:#000000;stroke-width:0.233912"/><path id="path5274" d="m297 489.4-1.4.8-.6.2h-1.3" style="fill:none;stroke:#000000;stroke-width:0.233912"/><path id="path5276" d="m305 501.6-1.3-.9-.5-.4-.3-.4-.2-.7" style="fill:none;stroke:#000000;stroke-width:0.233912"/><path id="path5278" d="M303.4 479v1.7l-.2.6-.2.5-.5.6" style="fill:none;stroke:#000000;stroke-width:0.233912"/><path id="path5280" d="m306.6 473.6.5-.2c.2 0 .3-.2.5-.3h.6l.1-.1" style="fill:#e3e4e5;stroke:#000000;stroke-width:0.233912"/><path id="path5284" d="m306.6 474.3.5-.3.5-.2.6-.1h.1" style="fill:none;stroke:#000000;stroke-width:0.233912"/></g><!-- app4joy --></svg>