<svg xmlns="http://www.w3.org/2000/svg" id="svg5" width="900" height="600" version="1.1" viewBox="0 0 900 600"><g id="g6"><path id="rect1" fill="#06f" d="M0 0h900v600H0z"/></g><g id="g5" fill="#f7d417"><path id="path1" d="m214.6 311.2 2 4.8-14.8 26.8-4.5 5.1h14.6l-2.4-5.7 2.9-5.1 10.1 9 10-9 2.9 5.1-2.4 5.7h14.7l-4.5-5-15-26.9 2.2-4.8h-15.8zm7.9 7.8 6.4 11.5-6.4 5.7-6.4-5.7 6.4-11.5z"/><path id="path2" d="M272.6 297c2.5 4.8 6.2 8.7 10.5 11.6l-1.7 158.8c-2 .3-15 13.6-15.5 15.8a12 12 0 0 0-.4 3.3c0 7.5 5.7 13.5 13 13.5 3.6 0 7.2-1.7 9.7-4.7a17.2 17.2 0 0 0 23.5 0c2.5 3 6 4.7 9.8 4.7 7.2 0 13-6 13-13.5 0-1-.2-2.2-.4-3.3a102 102 0 0 0-15.5-15.8l-1.7-158.8c4.3-3 8-7 10.5-11.5l88.5-.8c.6 5.5 11.6 20.1 17 20.1 5.8 0 10.5-4.9 10.5-10.9a11 11 0 0 0-4.4-8.8c-2.3-1.8-1.1-5.8 1.9-5.8 1 0 2 .6 2.6 1.5a10.5 10.5 0 0 0 12.4-6.1 15.2 15.2 0 0 0 0-11c-1.7-4-5.4-6.6-9.6-6.6-1 0-1.9.2-2.8.4-1.7 2.8-5.7 1.6-5.7-1.7 0-1 .5-2 1.2-2.5a11 11 0 0 0 4.4-8.9c0-6-4.7-10.8-10.5-10.8-5.4 0-16.4 14.6-17 20l-88.5-.7a32 32 0 0 0-11.7-12.3l-.8-109.3c5-.7 19.2-12.7 19.2-17.9 0-6-4.7-10.8-10.5-10.8-3.3 0-6.4 1.7-8.4 4.5-1.7 2.5-5.5 1.2-5.5-2 0-1 .5-2 1.4-2.6.3-1 .4-2 .4-3 0-4.3-2.4-8.3-6.2-10a12.5 12.5 0 0 0-10.6 0 10.9 10.9 0 0 0-5.9 13c1 .5 1.5 1.6 1.5 2.7 0 1.7-1.4 3.2-3 3.2a3 3 0 0 1-2.5-1.3c-2-2.8-5.2-4.5-8.5-4.5-5.8 0-10.4 4.9-10.4 10.8 0 5.7 14 17.3 19.2 17.9l-.9 109.3c-4.8 3-8.8 7.1-11.6 12.2l-88.5.8c-.6-5.1-12.2-20-17.1-20-5.8 0-10.4 4.8-10.4 10.8a11 11 0 0 0 4.3 8.8c.7.7 1.2 1.6 1.2 2.6 0 1.8-1.3 3.2-3 3.2-1 0-2-.5-2.6-1.5-1-.2-2-.4-2.8-.4-4.2 0-8 2.6-9.6 6.6a13.8 13.8 0 0 0 0 11 10.4 10.4 0 0 0 12.4 6c1.6-2.6 5.6-1.4 5.6 1.8 0 1-.5 2-1.2 2.6a11 11 0 0 0-4.3 8.8c0 6 4.6 10.9 10.4 10.9 4.9 0 16.5-15 17-20l88.6.6z"/><path id="path3" d="M219.6 296.7h5.7v14.5h-5.7z"/><path id="path4" d="M371.2 313.9c1.5 1.2 2.5 3 2.7 5l.2 2.5c0 3.9-1 7.6-2.7 11-2.7 5.3-10 5-12.2-.6-1-2.3-1.4-4.9-1.3-7.5.2-5.6 3.3-10.7 8.1-13.1h-13c.7.7 1 1.5 1 2.5v1a46.5 46.5 0 0 0-1.3 18c.9 6.6 6.4 11.7 13 11.7 5 0 9.7-3.2 11.8-8 2 4.9 6.7 8 11.8 8 6.6 0 12.1-5 13-11.8l.3-6c0-4-.6-8-1.6-12-.3-1.2 0-2.5 1-3.4h-13c4.8 2.5 7.8 7.5 8 13.1v.7c0 2.3-.4 4.6-1.3 6.8a6.6 6.6 0 0 1-12.1.6A24 24 0 0 1 381 319a7 7 0 0 1 2.8-5H371z"/><path id="path5" d="M374.6 296.7h5.8v17.2h-5.8z"/></g><!-- app4joy --></svg>