<svg xmlns="http://www.w3.org/2000/svg" xmlns:xlink="http://www.w3.org/1999/xlink" id="svg76" width="1080" height="720" version="1.1" viewBox="0 0 1080 720"><g id="g77"><path id="rect1" fill="#fcdd09" d="M0 0h1080v720H0z"/><g id="g5" fill="#da121a"><path id="rect2" d="M0 80h1080v80H0z"/><path id="rect3" d="M0 240h1080v80H0z"/><path id="rect4" d="M0 400h1080v80H0z"/><path id="rect5" d="M0 560h1080v80H0z"/></g><path id="rect6" fill="#40104c" d="M0 0h540v360H0z"/></g><g id="g76" fill="#fff" stroke="#40104c" stroke-width="1.4"><path id="rect7" d="M249.9 88.4h40.2v172.3h-40.2z"/><path id="path7" d="M247.3 83.3h45.4l-3 4.8h-39.6l-2.8-4.8z"/><path id="path8" d="M253.3 75h-6.5v8.7h46.5V75h-6.6v3.7h-6.1V75H273v3.7h-6V75h-7.5v3.7h-6.2V75z"/><g id="half"><g id="g21"><path id="rect8" d="M48.2 157.8h40.3v103H48.2z"/><path id="rect9" d="M88.6 113.5h40.2v147.2H88.6z"/><path id="rect10" d="M209.6 157.8h40.3v103h-40.3z"/><path id="rect11" d="M128.9 157.8h40.3v103h-40.3z"/><path id="rect12" d="M169.3 113.5h40.2v147.2h-40.2z"/><path id="path12" d="M43.6 153.5h45v4H47.9l-4.3-4z"/><path id="path13" d="M48.6 145h-6.5v8.6h46.5V145H82v3.7h-6.1V145h-7.5v3.7h-6.1V145h-7.5v3.7h-6.2V145z"/><path id="path14" d="M86 108.7h45.5l-3 4.8H88.8l-2.8-4.8z"/><path id="path15" d="M92 100.5h-6.5v8.6H132v-8.6h-6.6v3.7h-6.1v-3.8h-7.5v3.8h-6.1v-3.8h-7.5v3.8H92v-3.8z"/><path id="path16" d="M209.5 151.5v6.9H250v-7h-40.4z"/><path id="path17" d="M215.2 145h-5.7v8.6H250V145h-5.7v3.7H239V145h-6.5v3.7h-5.3V145h-6.5v3.7h-5.4V145z"/><path id="path18" d="M128.9 151.5v6.9h40.4v-7h-40.4z"/><path id="path19" d="M134.6 145h-5.7v8.6h40.4V145h-5.7v3.7h-5.3V145h-6.6v3.7h-5.3V145H140v3.7h-5.3V145z"/><path id="path20" d="M166.7 108.7H212l-3 4.8h-39.6l-2.8-4.8z"/><path id="path21" d="M172.7 100.5h-6.5v8.6h46.5v-8.6H206v3.7h-6v-3.8h-7.5v3.8h-6.2v-3.8H179v3.8h-6.2v-3.8z"/></g><g id="g36" fill="none"><path id="path22" d="M48.4 216.6H270v14.7H48.4"/><path id="path23" d="m48.4 201.9 221.6-.2v-14.3l-221.6-.2"/><path id="path24" d="M68.4 172.9v14m0 15.2v14.3m0 15V246"/><path id="path25" d="M48.4 246.1H270"/><path id="path26" d="M108.7 113.4v14m0 119.1v14m0-43.8v14m0-87.5v58.4"/><path id="path27" d="M229.7 158.9v43m0 15.2v14.4"/><path id="path28" d="M149 158.9v43m0 15.2v14.4"/><path id="path29" d="M155.8 172.6v14m-13.4-14v14m94-14v14m-13.4-14v14"/><path id="path30" d="M169.4 157.6h40m-120.6 0h39.9"/><path id="path31" d="M189.4 113.4v14m0 119.1v14m0-43.8v14m0-87.5v58.4"/><path id="path32" d="M169.4 142.6h40m-120.6 0h39.9"/><path id="path33" d="M169.4 127.7h40m-120.6 0h39.9"/><path id="path34" d="M250 157.6h20v14.8H48.4"/><path id="path35" d="M250 127.7h20v15h-20"/><path id="path36" d="m250 95.5 20 .4v15.5l-20-.2"/></g><g id="g69" stroke-linejoin="round"><path id="path37" d="m103.2 165.4-4.9-2c1.8-5.2 4.5-9.7 10.4-11.5v6.4"/><path id="path38" d="m103.8 161.4-3.4-2.4"/><path id="path39" d="m106 158.2-2-3.3"/><path id="path40" d="m114.2 165.4 5-2c-1.8-5.2-4.6-9.7-10.5-11.5v6.4"/><path id="path41" d="m113.6 161.4 3.5-2.4"/><path id="path42" d="m111.4 158.2 2-3.3"/><path id="path43" d="m222.8 239-6.2-2.7c2.2-6.5 5.7-12.1 13.1-14.5v8.1"/><path id="path44" d="m223.5 233.8-4.3-3"/><path id="path45" d="m226.4 229.8-2.6-4.2"/><path id="path46" d="m236.7 239 6.2-2.7c-2.2-6.5-5.7-12.1-13.2-14.5v8.1"/><path id="path47" d="m236 233.8 4.3-3"/><path id="path48" d="m233 229.8 2.7-4.2"/><path id="path49" d="m142.2 239-6.2-2.7c2.1-6.5 5.7-12.1 13-14.5v8.1"/><path id="path50" d="m142.9 233.8-4.3-3"/><path id="path51" d="m145.8 229.8-2.7-4.2"/><path id="path52" d="m156 239 6.2-2.7c-2.2-6.5-5.7-12.1-13.1-14.5v8.1"/><path id="path53" d="m155.3 233.8 4.3-3"/><path id="path54" d="m152.4 229.8 2.6-4.2"/><path id="path55" d="m183.9 165.4-5-2c1.8-5.2 4.6-9.7 10.5-11.5v6.4"/><path id="path56" d="M184.5 161.4 181 159"/><path id="path57" d="m186.7 158.2-2-3.3"/><path id="path58" d="m194.9 165.4 4.9-2c-1.7-5.2-4.5-9.7-10.4-11.5v6.4"/><path id="path59" d="m194.3 161.4 3.4-2.4"/><path id="path60" d="m192 158.2 2.1-3.3"/><path id="path61" d="m256 134-4-2c1.4-5 3.7-9.4 8.5-11.3v6.3"/><path id="path62" d="m256.5 130-2.8-2.3"/><path id="path63" d="m258.4 127-1.7-3.3"/><path id="path64" d="m265 134 4-2c-1.4-5-3.7-9.4-8.5-11.3v6.3"/><path id="path65" d="m264.5 130 2.8-2.3"/><path id="path66" d="m262.7 127 1.7-3.3"/><path id="path67" d="m262 220.3-7-3.2c2.5-8 6.5-14.9 15-17.8v10"/><path id="path68" d="m263 214-5-3.7"/><path id="path69" d="m266.2 209-3-5"/></g><g id="g75" fill="#40104c"><path id="path70" d="M108.7 157c-3.3.4-5.3 3.3-6.2 8.1v20.7h12.4V165c-1-4.8-3-7.7-6.2-8z"/><path id="path71" d="M229.7 228.3c-4.2.4-6.6 4.2-7.8 10.2v22.3h15.6v-22.3c-1.2-6-3.6-9.8-7.8-10.2z"/><path id="path72" d="M149 228.3c-4.1.4-6.6 4.2-7.8 10.2v22.3H157v-22.3c-1.2-6-3.7-9.8-7.9-10.2z"/><path id="path73" d="M189.3 157c-3.3.4-5.2 3.3-6.1 8.1v20.7h12.3V165c-1-4.8-2.8-7.7-6.1-8z"/><path id="path74" d="M260.5 125.8c-2.7.3-4.3 3.2-5 8v11.4h10v-11.5c-.7-4.7-2.3-7.6-5-8z"/><path id="path75" d="M270 207.3c-4.8.5-7.6 5-9 12.5v41h17.8z"/></g></g><use xlink:href="#half" id="use75" transform="matrix(-1 0 0 1 540 0)"/></g><!-- app4joy --></svg>