<svg xmlns="http://www.w3.org/2000/svg" id="svg175" width="600" height="400" version="1.1" viewBox="0 0 600 400"><g id="g176"><path id="path1" fill="#fc0" d="M400 0h200v400H400z"/><path id="path2" fill="#0077c8" stroke-width=".9" d="M200 0h200v400H200z"/><path id="path3" fill="#fff" stroke-width=".8" d="M0 0h200v400H0z"/></g><g id="g175" transform="matrix(.17277 0 0 .17818 224.4 136.3)"><g id="g160" transform="matrix(14.063 0 0 14.062 -3003.4 -4700.2)"><path id="path4" fill="#fff" d="M249.7 346zm-8-2.1h-.1zm-2 2.2v-.1zM225 376zm9.6-29.5zm20.2 0zm19.7 27.8c.7-.8 1-1.8 1-2.8-.1-1.3-.5-3.3-2-3.3-.4 0-1 .4-1 .4-.7.5-.6 1.5 0 2 .3.5.3 1.2 0 1.7a1 1 0 0 1-.8.3s-.2-.1-.3-.4a6.2 6.2 0 0 0-2.5-3.7 9.4 9.4 0 0 1-3.7-7.6v-4.8a5 5 0 0 0-3.6-5l-1.5-.2-1.2.3c-.4 0-1-.3-1-.3l-.5-.1h-.3c-.4-.1-.8 0-1 .4-.3.3-.4.8-.4 1.5v.9l-.5-.2a2 2 0 0 0-2 1.6H252l1.4-2.7h.7a.8.8 0 0 0 .7-.8v-.2c.4-.3.6-.7.6-1.2v-.2c.3-.3.6-.7.6-1.2l-.1-.5-.3-.3.2-.6c0-.4-.2-.8-.5-1-.1-.2-.3-.4-.5-.4-.1-.5-.4-1-.8-1.2-.3 0-.5-.1-.8 0-.2-.5-.6-.7-1-.8l-.7.2c0-.2-.2-.3-.2-.3h-1.2l-.4.3-.4-.3h-.1c-.3-.4-.7-.7-1.3-.7l-.5.1c-.3-.2-.6-.3-1-.3v-.7c0-.3-.3-.6-.6-.7 0-.3-.3-.6-.7-.6h-.8c-.3 0-.6.3-.7.6-.3.1-.5.4-.5.7v.7h-.2l-.9.3-.5-.1c-.6 0-1 .3-1.3.8s-.3 0-.5.2c-.1-.2-.2-.3-.4-.3h-1.2l-.2.3-.6-.2c-.5 0-.8.3-1.1.7l-.8.1a2 2 0 0 0-.8 1.2 1.5 1.5 0 0 0-1 1.4l.2.6-.2.3-.1.5c0 .5.2.9.6 1.2l-.1.2c0 .5.3.9.6 1.2v.2a.8.8 0 0 0 .7.8h.7l1.4 2.7h-1.2a2.2 2.2 0 0 0-2-1.6l-.6.2.1-1c0-.9-.2-1.2-.3-1.3-.3-.5-.7-.6-1.1-.6l-.4.1-.5.1-.9.4c-.4-.2-.8-.4-1.2-.4-.5 0-1.4.3-1.4.3a5 5 0 0 0-3.7 5v4.7c0 3-1.4 5.9-3.8 7.6a6.2 6.2 0 0 0-2.4 3.7c0 .3-.3.4-.4.4a1 1 0 0 1-.7-.3c-.2-.3-.3-.5-.3-.8l.3-.9a1.5 1.5 0 0 0 0-2s-.6-.4-1-.4c-.3 0-1 .4-1 .4-1.6 1.5-1.4 4.1 0 5.7a4 4 0 0 0 3.9 1v.4c0 .6-.3 1.1-.9 1.4-.3 0-.5.3-.5.6v.6c0 1 .3 2 .9 2.9l.7 1.6a2 2 0 0 0 1.9 1.7h2.2c.5 0 .8-.4.8-.8a3 3 0 0 0-2.2-2.8c-.2-.3-.4-.7-.4-1 0-.8.4-1.4 1-1.7a4 4 0 0 0 2.1-2.6c.5.1.6.2.6.5 0 .5-.2.5-.3.7 0 .3.2.5.5.7.5.2 1.2 1.4 1.6 2.3a2 2 0 0 0 1.8 1.2h2c.4 0 .8-.3.8-.8a3 3 0 0 0-2.2-2.8c-.4 0-.7-.5-.7-1l.3-.6c.4-.4.6-1 .2-2.3-.4-1.3-1.2-2-2-2.5a13 13 0 0 1 2.3-1.8 6 6 0 0 0 3.2-3.6l.9-1v9.6c0 6.8 10.8 6.8 11.3 6.8.4 0 11.3 0 11.3-6.8v-9.5l.9.9a6 6 0 0 0 3.1 3.6c1 .5 1.7 1.1 2.4 1.8-.8.5-1.8 1.1-2.2 2.4-.4 1.3 0 2 .4 2.4.2.2.3.4.3.7 0 .4-.3.8-.7 1a2.8 2.8 0 0 0-2.2 2.7c0 .4.4.8.8.8h2a2 2 0 0 0 1.8-1.2c.3-.9 1.1-2 1.6-2.3.3-.2.5-.4.5-.6v-.3l-.3-.5c0-.3.1-.4.6-.5.2 1.2 1 2.1 2 2.6.7.3 1 1 1 1.6 0 .4-.1.8-.3 1.1a2.8 2.8 0 0 0-2.3 2.7c0 .5.4.8.8.8h2.3a2 2 0 0 0 2-1.6c0-.6.3-1.1.6-1.6.6-.9.9-1.9.9-3v-.5c0-.3-.3-.5-.6-.7-.5-.2-.8-.7-.8-1.3v-.4c1.3.4 2.8 0 3.9-1zm-47.3-33a4 4 0 0 0 1.9 2l-1 .6c-.4.1-.5.4-.5.7 0 .4.2.7.5.8 1.3.4 7.1.6 10.8-3.2.2-.1.3-.4.3-.7v-.3h-.1a43.6 43.6 0 0 1 11 0v.4c0 .2 0 .5.2.6 3.8 3.8 9.5 3.6 10.9 3.2.3-.1.5-.4.5-.7 0-.4-.2-.7-.5-.8-.5-.2-.8-.4-1-.7a4.2 4.2 0 0 0 2-2.4v-.3a.8.8 0 0 0-1-.7c-.4.2-.7.3-1.1.3-1 0-3.4-.5-4-1.6a3 3 0 0 0-2.5-3 49.6 49.6 0 0 0-17.9 0 3.1 3.1 0 0 0-2.5 3c-.7 1.1-3.1 1.6-4 1.6-.4 0-.8-.1-1-.3a.8.8 0 0 0-1 .2l-.2.5v.3l.2.6z"/><path id="path5" fill="#fc0" d="M237.6 350.5c-.6-.3-1.3-1.4-1.3-2 0-1 1.2-1.8 2.6-1.8l.6-.2.3-1s-3.3-.3-4.2 1.2c-.9 1.6-.4 2.6 0 3.5.3.8 1.2 1.2 1.2 1.2l.8-.9z"/><path id="path6" fill="none" stroke="#000" stroke-width=".4" d="M237.6 350.5c-.6-.3-1.3-1.4-1.3-2 0-1 1.2-1.8 2.6-1.8l.6-.2.3-1s-3.3-.3-4.2 1.2c-.9 1.6-.4 2.6 0 3.5.3.8 1.2 1.2 1.2 1.2l.8-.9z"/><path id="path7" fill="#fc0" d="M241 348a1 1 0 0 1-.3-.8c0-.7.9-1.3 1.9-1.3.4 0 1 0 1.4.2v-1.5s-2.7-.3-3.8 1a2.9 2.9 0 0 0-.4 3.3l1.5-.5-.3-.5z"/><path id="path8" fill="none" stroke="#000" stroke-width=".4" d="M241 348a1 1 0 0 1-.3-.8c0-.7.9-1.3 1.9-1.3.4 0 1 0 1.4.2v-1.5s-2.7-.3-3.8 1a2.9 2.9 0 0 0-.4 3.3l1.5-.5-.3-.5z"/><path id="path9" fill="#fc0" d="M251.8 350.5c.5-.3 1.3-1.4 1.3-2 0-1-1.2-1.8-2.6-1.8l-.6-.2-.3-1s3.3-.3 4.2 1.2c.9 1.6.4 2.6 0 3.5-.3.8-1.2 1.2-1.2 1.2l-.9-.9z"/><path id="path10" fill="none" stroke="#000" stroke-width=".4" d="M251.8 350.5c.5-.3 1.3-1.4 1.3-2 0-1-1.2-1.8-2.6-1.8l-.6-.2-.3-1s3.3-.3 4.2 1.2c.9 1.6.4 2.6 0 3.5-.3.8-1.2 1.2-1.2 1.2l-.9-.9z"/><path id="path11" fill="#fc0" d="M248.3 348c.2-.3.3-.5.3-.8 0-.7-.8-1.3-1.8-1.3-.4 0-1.1 0-1.4.2v-1.5s2.7-.3 3.7 1c1 1.1.8 2.3.7 2.6l-.2.7-1.6-.5.3-.5z"/><path id="path12" fill="none" stroke="#000" stroke-width=".4" d="M248.3 348c.2-.3.3-.5.3-.8 0-.7-.8-1.3-1.8-1.3-.4 0-1.1 0-1.4.2v-1.5s2.7-.3 3.7 1c1 1.1.8 2.3.7 2.6l-.2.7-1.6-.5.3-.5z"/><path id="path13" fill="#da291c" d="M237.3 350.5a10.8 10.8 0 0 1 14.8.1l-2 5.6h-10.8l-2-5.7z"/><path id="path14" fill="none" stroke="#000" stroke-linecap="round" stroke-linejoin="round" stroke-width=".4" d="M237.3 350.5a10.8 10.8 0 0 1 14.8.1l-2 5.6h-10.8l-2-5.7z"/><path id="path15" fill="#ecd21c" d="m246 349.7-1.3-1-1.4 1 .6-4.7h1.6l.6 4.7z"/><path id="path16" fill="#fc0" stroke="#000" stroke-width=".4" d="m246 349.7-1.3-1-1.4 1 .6-4.7h1.6l.6 4.7z"/><path id="path17" fill="#fff" d="M244.8 345.8c-.3-.1-.5 0-.6.3 0 .3.1.6.4.6.3 0 .5 0 .6-.4 0-.2-.1-.5-.4-.5z"/><path id="path18" fill="none" stroke="#000" stroke-width=".2" d="M244.8 345.8c-.3-.1-.5 0-.6.3 0 .3.1.6.4.6.3 0 .5 0 .6-.4 0-.2-.1-.5-.4-.5z"/><path id="path19" fill="#fff" d="M244.8 346.7c-.3-.1-.6.1-.7.5 0 .3.2.6.5.7.3 0 .7-.1.7-.5 0-.3-.1-.7-.5-.7z"/><path id="path20" fill="none" stroke="#000" stroke-width=".2" d="M244.8 346.7c-.3-.1-.6.1-.7.5 0 .3.2.6.5.7.3 0 .7-.1.7-.5 0-.3-.1-.7-.5-.7z"/><path id="path21" fill="#fff" d="M244.9 347.9c-.5-.1-.9.1-1 .6 0 .4.2.8.7 1 .4 0 .8-.3.9-.7 0-.4-.2-.9-.6-1z"/><path id="path22" fill="none" stroke="#000" stroke-width=".2" d="M244.9 347.9c-.5-.1-.9.1-1 .6 0 .4.2.8.7 1 .4 0 .8-.3.9-.7 0-.4-.2-.9-.6-1z"/><path id="path23" fill="#fff" d="M236.3 350.2c0-.5-.3-.8-.7-.8-.5 0-.8.3-.8.8 0 .4.3.7.8.7.4 0 .7-.3.7-.7z"/><path id="path24" fill="none" stroke="#000" stroke-width=".2" d="M236.3 350.2c0-.5-.3-.8-.7-.8-.5 0-.8.3-.8.8 0 .4.3.7.8.7.4 0 .7-.3.7-.7z"/><path id="path25" fill="#fff" d="M240.2 346.8c0-.4-.3-.8-.7-.8-.4 0-.8.4-.8.8s.4.8.8.8.7-.4.7-.8z"/><path id="path26" fill="none" stroke="#000" stroke-width=".2" d="M240.2 346.8c0-.4-.3-.8-.7-.8-.4 0-.8.4-.8.8s.4.8.8.8.7-.4.7-.8z"/><path id="path27" fill="#fff" d="M240.5 348.3c0-.4-.4-.8-.8-.8s-.8.4-.8.8.4.8.8.8.8-.4.8-.8z"/><path id="path28" fill="none" stroke="#000" stroke-width=".2" d="M240.5 348.3c0-.4-.4-.8-.8-.8s-.8.4-.8.8.4.8.8.8.8-.4.8-.8z"/><path id="path29" fill="#fff" d="M235.7 349.1c.2-.4 0-.8-.4-1a.8.8 0 0 0-1 .5c-.1.4 0 .8.4 1 .4.1.9 0 1-.5z"/><path id="path30" fill="none" stroke="#000" stroke-width=".2" d="M235.7 349.1c.2-.4 0-.8-.4-1a.8.8 0 0 0-1 .5c-.1.4 0 .8.4 1 .4.1.9 0 1-.5z"/><path id="path31" fill="#fff" d="M235.8 348c.3-.4.2-.9 0-1.2a.7.7 0 0 0-1.1 0c-.3.4-.3.9 0 1.2.3.3.8.3 1 0z"/><path id="path32" fill="none" stroke="#000" stroke-width=".2" d="M235.8 348c.3-.4.2-.9 0-1.2a.7.7 0 0 0-1.1 0c-.3.4-.3.9 0 1.2.3.3.8.3 1 0z"/><path id="path33" fill="#fff" d="M236.4 347c.4-.2.6-.7.4-1a.7.7 0 0 0-1-.4c-.4.2-.6.6-.4 1 .2.4.6.6 1 .4z"/><path id="path34" fill="none" stroke="#000" stroke-width=".2" d="M236.4 347c.4-.2.6-.7.4-1a.7.7 0 0 0-1-.4c-.4.2-.6.6-.4 1 .2.4.6.6 1 .4z"/><path id="path35" fill="#fff" d="M237.4 346.4c.5 0 .8-.4.8-.8 0-.5-.4-.8-.8-.8-.5 0-.8.4-.8.9 0 .4.4.7.8.7z"/><path id="path36" fill="none" stroke="#000" stroke-width=".2" d="M237.4 346.4c.5 0 .8-.4.8-.8 0-.5-.4-.8-.8-.8-.5 0-.8.4-.8.9 0 .4.4.7.8.7z"/><path id="path37" fill="#fff" d="M238.6 346.1c.4.1.8 0 1-.5 0-.4-.2-.8-.6-1a.8.8 0 0 0-1 .5c0 .4.2.9.6 1z"/><path id="path38" fill="none" stroke="#000" stroke-width=".2" d="M238.6 346.1c.4.1.8 0 1-.5 0-.4-.2-.8-.6-1a.8.8 0 0 0-1 .5c0 .4.2.9.6 1z"/><path id="path39" fill="#fff" d="M239.8 346.1c.3.3.8.2 1 0 .3-.4.3-1 0-1.2a.7.7 0 0 0-1.1.1c-.3.4-.2.8 0 1.1z"/><path id="path40" fill="none" stroke="#000" stroke-width=".2" d="M239.8 346.1c.3.3.8.2 1 0 .3-.4.3-1 0-1.2a.7.7 0 0 0-1.1.1c-.3.4-.2.8 0 1.1z"/><path id="path41" fill="#fff" d="M242.3 344.7c0-.4-.4-.7-.8-.7s-.8.3-.8.7c0 .5.4.8.8.8s.8-.3.8-.8z"/><path id="path42" fill="none" stroke="#000" stroke-width=".2" d="M242.3 344.7c0-.4-.4-.7-.8-.7s-.8.3-.8.7c0 .5.4.8.8.8s.8-.3.8-.8z"/><path id="path43" fill="#fff" d="M243.7 344.6c0-.4-.3-.8-.8-.8-.4 0-.7.4-.7.8s.3.8.7.8c.5 0 .8-.4.8-.8z"/><path id="path44" fill="none" stroke="#000" stroke-width=".2" d="M243.7 344.6c0-.4-.3-.8-.8-.8-.4 0-.7.4-.7.8s.3.8.7.8c.5 0 .8-.4.8-.8z"/><path id="path45" fill="#fff" d="M253.1 350.2c0-.5.3-.8.8-.8.4 0 .7.3.7.8 0 .4-.3.7-.7.7a.8.8 0 0 1-.8-.7z"/><path id="path46" fill="none" stroke="#000" stroke-width=".2" d="M253.1 350.2c0-.5.3-.8.8-.8.4 0 .7.3.7.8 0 .4-.3.7-.7.7a.8.8 0 0 1-.8-.7z"/><path id="path47" fill="#fff" d="M249.2 346.8c0-.4.3-.8.7-.8.5 0 .8.4.8.8s-.3.8-.8.8a.8.8 0 0 1-.7-.8z"/><path id="path48" fill="none" stroke="#000" stroke-width=".2" d="M249.2 346.8c0-.4.3-.8.7-.8.5 0 .8.4.8.8s-.3.8-.8.8a.8.8 0 0 1-.7-.8z"/><path id="path49" fill="#fff" d="M249 348.3c0-.4.3-.8.7-.8.4 0 .8.4.8.8s-.4.8-.8.8a.8.8 0 0 1-.7-.8z"/><path id="path50" fill="none" stroke="#000" stroke-width=".2" d="M249 348.3c0-.4.3-.8.7-.8.4 0 .8.4.8.8s-.4.8-.8.8a.8.8 0 0 1-.7-.8z"/><path id="path51" fill="#fff" d="M253.7 349.1c-.2-.4 0-.8.4-1 .4-.1.9 0 1 .5.2.4 0 .8-.4 1-.4.1-.9 0-1-.5z"/><path id="path52" fill="none" stroke="#000" stroke-width=".2" d="M253.7 349.1c-.2-.4 0-.8.4-1 .4-.1.9 0 1 .5.2.4 0 .8-.4 1-.4.1-.9 0-1-.5z"/><path id="path53" fill="#fff" d="M253.6 348a.8.8 0 0 1 0-1.2c.4-.3.9-.2 1.2 0 .2.4.2.9 0 1.2-.4.3-.9.3-1.2 0z"/><path id="path54" fill="none" stroke="#000" stroke-width=".2" d="M253.6 348a.8.8 0 0 1 0-1.2c.4-.3.9-.2 1.2 0 .2.4.2.9 0 1.2-.4.3-.9.3-1.2 0z"/><path id="path55" fill="#fff" d="M253 347a.8.8 0 0 1-.4-1c.2-.4.7-.6 1-.4.4.2.6.6.4 1-.2.4-.6.6-1 .4z"/><path id="path56" fill="none" stroke="#000" stroke-width=".2" d="M253 347a.8.8 0 0 1-.4-1c.2-.4.7-.6 1-.4.4.2.6.6.4 1-.2.4-.6.6-1 .4z"/><path id="path57" fill="#fff" d="M252 346.4a.8.8 0 0 1-.7-.8c0-.5.3-.8.8-.8.4 0 .7.4.7.9 0 .4-.4.7-.8.7z"/><path id="path58" fill="none" stroke="#000" stroke-width=".2" d="M252 346.4a.8.8 0 0 1-.7-.8c0-.5.3-.8.8-.8.4 0 .7.4.7.9 0 .4-.4.7-.8.7z"/><path id="path59" fill="#fff" d="M250.9 346.1c-.4.1-.9 0-1-.5-.1-.4 0-.8.5-1 .4-.1.8.1 1 .5 0 .4-.1.9-.5 1z"/><path id="path60" fill="none" stroke="#000" stroke-width=".2" d="M250.9 346.1c-.4.1-.9 0-1-.5-.1-.4 0-.8.5-1 .4-.1.8.1 1 .5 0 .4-.1.9-.5 1z"/><path id="path61" fill="#fff" d="M249.6 346.1c-.3.3-.8.2-1 0a.8.8 0 0 1 0-1.2c.4-.3.9-.2 1.1.1.3.4.3.8 0 1.1z"/><path id="path62" fill="none" stroke="#000" stroke-width=".2" d="M249.6 346.1c-.3.3-.8.2-1 0a.8.8 0 0 1 0-1.2c.4-.3.9-.2 1.1.1.3.4.3.8 0 1.1z"/><path id="path63" fill="#fff" d="M247.2 344.7c0-.4.3-.7.7-.7.4 0 .8.3.8.7 0 .5-.4.8-.8.8a.8.8 0 0 1-.7-.8z"/><path id="path64" fill="none" stroke="#000" stroke-width=".2" d="M247.2 344.7c0-.4.3-.7.7-.7.4 0 .8.3.8.7 0 .5-.4.8-.8.8a.8.8 0 0 1-.7-.8z"/><path id="path65" fill="#fff" d="M245.7 344.6c0-.4.4-.8.8-.8s.7.4.7.8-.3.8-.7.8a.8.8 0 0 1-.8-.8z"/><path id="path66" fill="none" stroke="#000" stroke-width=".2" d="M245.7 344.6c0-.4.4-.8.8-.8s.7.4.7.8-.3.8-.7.8a.8.8 0 0 1-.8-.8z"/><path id="path67" d="M253.7 351c-.3-.3-.6-.5-.9-.5a1 1 0 0 0-.4 0l-.2-.1h-.2l-.1.2-.2-.1-.2.1-.6-.1h-.2l-.6-.3v-.2l-.2-.1v-.2l-.1-.2h-.3c0-.3-.1-.5-.3-.6l-.1-.2-.3.1c-.2 0-.3.2-.5.4h-.2l-.1.2h-.4l-.2.2-.6.1h-.2l-.6-.2-.1-.3h-.2l-.1-.2-.1-.2h-.3c0-.2-.2-.4-.4-.5l-.2-.1-.2.1-.4.5h-.3v.2l-.1.2h-.3v.3c-.3 0-.5 0-.7.2h-.8l-.2-.2h-.2l-.1-.1-.1-.2h-.3c0-.2-.3-.3-.4-.4l-.3-.1-.2.2-.2.5-.3.1v.4h-.3v.3c-.2 0-.4.2-.5.3h-.3l-.6.1-.2-.1h-.2l-.2-.1h-.2v.1a1 1 0 0 0-.4 0c-.3 0-.6.2-.9.5l-.3.6h.6s.4 0 .7.3l2 4 .3-.2a14.5 14.5 0 0 1 11.4 0l.3.2 2-4 .7-.3h.6l-.3-.6zm-4.4-.2.4.1-.4.1v.1h-.2l-.2-.1.4-.2zm-.6-.6.1-.3v.4h.1l-.2.4v-.5zm-.7.4c.1 0 .2 0 .3.3h-.2l-.2-.1-.2-.3.3.1zm-2.6-.4v.1h.4l-.3.2h-.5l.4-.3zm-.8-.4.1-.5.1.5h.1l-.2.5-.2-.6h.1zm-1 .4.4.1v-.1l.5.3h-.6l-.3-.2zm-2.3.3v.1l.4-.1-.3.2.1.1h-.4l.2-.3zm-.7-.2v-.4l.1.3v.5l-.2-.4zm-.5.6v-.1l.4.2h-.2l-.3.1-.3-.2h.4zm-2.3 1h-.2l.1-.3.3-.1-.1.3zm14 0h-.3v-.1l-.1-.3.2.2.2.2z"/><path id="path68" fill="#4c86c7" d="M244.4 345.8c-.6-.1-.9-.8-.7-1.4.1-.6.7-.9 1.3-.7.6.2 1 .8.8 1.4a1 1 0 0 1-1.4.7z"/><path id="path69" fill="none" stroke="#000" stroke-width=".2" d="M244.4 345.8c-.6-.1-.9-.8-.7-1.4.1-.6.7-.9 1.3-.7.6.2 1 .8.8 1.4a1 1 0 0 1-1.4.7z"/><path id="path70" fill="#fc0" d="M244.7 352.8c-2.2 0-4.4.5-6.4 1.3l.6 1.2a14.8 14.8 0 0 1 11.6 0l.7-1.2c-2.1-.8-4.3-1.3-6.5-1.3z"/><path id="path71" fill="#ecd21c" d="M253.3 351.2c-.3-.5-.8-.4-1-.2l-.1-.2-.2.5-.3-.4-.2.2a.9.9 0 0 0-.6-.3v.7l-.1.1c0 .3.3.4.6.6l-.5.7a.6.6 0 0 1-.4-.5v-.4l-.1-.3-.4.1c-.1.3-.3.5-.6.5a.7.7 0 0 1-.7-.7l.1-.3h.2c.3 0 .7.2 1 0l-.1-.2c.2 0 .4-.2.5-.4a.9.9 0 0 0-.6-.3v-.2h-.5c.1-.1.2-.3.1-.5h-.2c0-.2 0-.5-.2-.6a1 1 0 0 0-.5.5l-.2-.1v.5l-.4-.2-.1.2h-.7l.3.6-.2.2c.2.3.6.3 1 .3v.3c-.1.3-.4.5-.7.5a.7.7 0 0 1-.6-.6c0-.2-.1-.3-.3-.3-.2 0-.3 0-.3.2-.1.3-.4.5-.6.5a.7.7 0 0 1-.7-.7v-.2h.2c.3 0 .7.1 1-.1l-.1-.2.4-.6a1 1 0 0 0-.7-.1v-.3c-.2 0-.4 0-.5.2v-.6h-.2a1 1 0 0 0-.4-.6 1 1 0 0 0-.4.6h-.2v.6l-.4-.2v.3a1 1 0 0 0-.8.1c.1.2.2.4.5.6l-.1.2c.2.2.6.2 1 .1h.1v.2c0 .4-.3.7-.6.7a.7.7 0 0 1-.7-.5c0-.2-.1-.2-.3-.2-.1 0-.3 0-.3.3s-.3.6-.6.6a.7.7 0 0 1-.7-.4v-.4c.4 0 .8 0 1-.3l-.2-.2.3-.6h-.7v-.2c-.2 0-.3 0-.4.2l-.1-.5h-.2a1 1 0 0 0-.5-.4 1 1 0 0 0-.2.6h-.2v.5h-.3v.2a1 1 0 0 0-.7.3l.5.4v.3c.2.1.6 0 1-.1h.1v.3c0 .4-.2.7-.6.7a.7.7 0 0 1-.6-.5c0-.1-.2-.2-.4-.1 0 0-.2.1-.2.3l.1.3c0 .2-.2.4-.4.5a26 26 0 0 0-.5-.7c.3-.2.6-.3.6-.6h-.2a1 1 0 0 0 0-.8c-.1 0-.4.1-.5.3l-.2-.2-.3.4c0-.2 0-.4-.2-.5l-.2.2c-.1-.2-.6-.3-1 .2 0 0 .6 0 1 .4a4.9 4.9 0 0 1 .4.7l.7 1c0 .2.1.2.2.2.5 0 1-.3 1.1-.7l.6.1c.5 0 .9-.2 1-.6l.9.3c.4 0 .8-.2 1-.6.2.2.5.4.9.4.3 0 .7-.2.9-.5.2.3.6.5 1 .5.3 0 .6-.2.8-.4.2.4.6.6 1 .6.3 0 .6-.1.8-.3.2.4.6.6 1.1.6l.6-.1c.2.4.6.7 1 .7l.3-.1.7-1v-.1c0-.2.3-.4.5-.7.3-.3.9-.4.9-.4z"/><path id="path72" fill="#be0027" d="M247 353.6c0-.2-.2-.4-.4-.4a.4.4 0 0 0 0 .8c.2 0 .4-.2.4-.4z"/><path id="path73" fill="none" stroke="#000" stroke-width=".2" d="M247 353.6c0-.2-.2-.4-.4-.4a.4.4 0 0 0 0 .8c.2 0 .4-.2.4-.4z"/><path id="path74" fill="#be0027" d="M250 354.3a.4.4 0 1 0-.7 0c0 .2.2.3.4.3s.4-.1.4-.3z"/><path id="path75" fill="none" stroke="#000" stroke-width=".2" d="M250 354.3a.4.4 0 1 0-.7 0c0 .2.2.3.4.3s.4-.1.4-.3z"/><path id="path76" fill="#be0027" d="M243.2 353.6c0-.2-.2-.4-.4-.4a.4.4 0 0 0 0 .8c.2 0 .4-.2.4-.4z"/><path id="path77" fill="none" stroke="#000" stroke-width=".2" d="M243.2 353.6c0-.2-.2-.4-.4-.4a.4.4 0 0 0 0 .8c.2 0 .4-.2.4-.4z"/><path id="path78" fill="none" stroke="#000" stroke-width=".2" d="M240.1 354.3a.4.4 0 1 0-.7 0c0 .2.1.3.4.3.2 0 .3-.1.3-.3z"/><path id="path79" fill="#be0027" d="m244.7 353.1-1 .4 1 .4 1.1-.4-1-.4z"/><path id="path80" fill="none" stroke="#000" stroke-width=".2" d="m244.7 353.1-1 .4 1 .4 1.1-.4-1-.4z"/><path id="path81" fill="#be0027" d="m251 354.4-.2.7-.5-.6.7-.1z"/><path id="path82" fill="none" stroke="#000" stroke-width=".2" d="m251 354.4-.2.7-.5-.6.7-.1z"/><path id="path83" fill="#be0027" d="m238.4 354.4.2.7.5-.6-.7-.1z"/><path id="path84" fill="none" stroke="#000" stroke-width=".2" d="m238.4 354.4.2.7.5-.6-.7-.1z"/><path id="path85" fill="#4c86c7" d="M242 353.7c0 .2 0 .4-.3.5l-.7.1c-.2 0-.4 0-.5-.3 0-.2.1-.4.3-.4l.8-.2c.2 0 .4.1.4.3z"/><path id="path86" fill="none" stroke="#000" stroke-width=".2" d="M242 353.7c0 .2 0 .4-.3.5l-.7.1c-.2 0-.4 0-.5-.3 0-.2.1-.4.3-.4l.8-.2c.2 0 .4.1.4.3z"/><path id="path87" fill="#4c86c7" d="M247.4 353.7c0 .2.1.4.3.5l.8.1c.2 0 .4 0 .4-.3 0-.2 0-.4-.3-.4l-.7-.2c-.2 0-.4.1-.5.3z"/><path id="path88" fill="none" stroke="#000" stroke-width=".2" d="M247.4 353.7c0 .2.1.4.3.5l.8.1c.2 0 .4 0 .4-.3 0-.2 0-.4-.3-.4l-.7-.2c-.2 0-.4.1-.5.3z"/><path id="path89" fill="#fff" d="M245 350.3a.4.4 0 1 0-.7 0 .4.4 0 1 0 .8 0z"/><path id="path90" fill="none" stroke="#000" stroke-width=".2" d="M245 350.3a.4.4 0 1 0-.7 0 .4.4 0 1 0 .8 0z"/><path id="path91" fill="#fff" d="M249 350.7c0-.2-.1-.4-.4-.4-.2 0-.3.2-.3.4s.1.4.3.4c.3 0 .4-.2.4-.4z"/><path id="path92" fill="none" stroke="#000" stroke-width=".2" d="M249 350.7c0-.2-.1-.4-.4-.4-.2 0-.3.2-.3.4s.1.4.3.4c.3 0 .4-.2.4-.4z"/><path id="path93" fill="#fff" d="M252.5 352c0-.1-.2-.3-.4-.3a.4.4 0 0 0 0 .8c.2 0 .4-.2.4-.4z"/><path id="path94" fill="none" stroke="#000" stroke-width=".2" d="M252.5 352c0-.1-.2-.3-.4-.3a.4.4 0 0 0 0 .8c.2 0 .4-.2.4-.4z"/><path id="path95" fill="#fff" d="M240.4 350.7a.4.4 0 1 1 .7 0 .4.4 0 1 1-.7 0z"/><path id="path96" fill="none" stroke="#000" stroke-width=".2" d="M240.4 350.7a.4.4 0 1 1 .7 0 .4.4 0 1 1-.7 0z"/><path id="path97" fill="#fff" d="M236.9 352c0-.1.2-.3.4-.3s.4.2.4.4-.2.4-.4.4a.4.4 0 0 1-.4-.4z"/><path id="path98" fill="none" stroke="#000" stroke-width=".2" d="M236.9 352c0-.1.2-.3.4-.3s.4.2.4.4-.2.4-.4.4a.4.4 0 0 1-.4-.4z"/><path id="path99" fill="#fc0" d="M245 344.5v-1.4h.6v-.8h-.5v-.5h-.8v.5h-.4v.8h.4v1.4h-.6v.5h2v-.5z"/><path id="path100" fill="none" stroke="#000" stroke-width=".2" d="M245 344.5v-1.4h.6v-.8h-.5v-.5h-.8v.5h-.4v.8h.4v1.4h-.6v.5h2v-.5z"/><path id="path101" fill="#0077c8" d="M234.2 355.9h21v18.4c0 6-10.5 6-10.5 6s-10.5 0-10.5-6v-18.4z"/><path id="path102" fill="none" stroke="#000" stroke-linecap="round" stroke-linejoin="round" stroke-width=".7" d="M234.2 355.9h21v18.4c0 6-10.5 6-10.5 6s-10.5 0-10.5-6v-18.4z"/><path id="path103" fill="#c88242" d="M225.8 371.3c1 .5 2 1.3 2.6 2.3a1.5 1.5 0 0 1-.2 1.7c-.3.4-.5.8-.5 1.3 0 .8.6 1.5 1.3 1.7a2 2 0 0 1 1.6 2h-2c-.4 0-.8-.2-1-.8a7.5 7.5 0 0 0-2-2.6l.2-.7c0-1.2-.7-1.2-1.8-1.4h-.3s.2-.9.7-1.8c.5-.9 1.4-1.7 1.4-1.7z"/><path id="path104" fill="none" stroke="#000" stroke-linecap="round" stroke-linejoin="round" stroke-width=".4" d="M225.8 371.3c1 .5 2 1.3 2.6 2.3h0a1.5 1.5 0 0 1-.2 1.7h0c-.3.4-.5.8-.5 1.3 0 .8.6 1.5 1.3 1.7h0a2 2 0 0 1 1.6 2h-2c-.4 0-.8-.2-1-.8a7.5 7.5 0 0 0-2-2.6l.2-.7c0-1.2-.7-1.2-1.8-1.4h-.3s.2-.9.7-1.8c.5-.9 1.4-1.7 1.4-1.7z"/><path id="path105" fill="#c88242" d="m230.2 359.2 2.8-4.2c.2-.4.7-.7 1.1-.7.8 0 1.5.7 1.5 1.6H234l-1 2.1-.8 3.2-.4.6v.1"/><path id="path106" fill="none" stroke="#000" stroke-linecap="round" stroke-linejoin="round" stroke-width=".4" d="m230.2 359.2 2.8-4.2h0c.2-.4.7-.7 1.1-.7.8 0 1.5.7 1.5 1.6H234l-1 2.1-.8 3.2-.4.6v.1"/><path id="path107" fill="#c88242" d="M219.6 374a5.4 5.4 0 0 0 0 1.4v.4c0 1-.6 1.8-1.4 2v.5c0 1 .3 1.8.7 2.5.4.6.7 1.3.8 2 .2.7.7 1 1.2 1h2.2c0-1.2-.8-2.1-1.9-2.1-.4-.5-.7-1.1-.7-1.8 0-1 .6-2 1.5-2.3a3 3 0 0 0 1.7-2.8c1-2.8 2.9-5 5.3-6.2 1.8-.8 3-2.8 3-5 0-1.7-.7-3.2-1.9-4.2V357l1.1-.9c.8-.6 1.4-1 1.5-2 .1-.6.5-2.6-.3-2.5-.8.1-2 .6-2 .6-.4-.2-.6-.4-1-.4l-1.4.3c-1.7.4-3 2.1-3 4.1v4.8c0 3.4-1.6 6.5-4.1 8.3-1 .7-1.8 1.8-2.1 3.2-.2.6-.7 1-1.2 1-.4 0-.9-.2-1.2-.6a2 2 0 0 1 0-2.7 1 1 0 0 0 0-1 .6.6 0 0 0-.9 0 3.4 3.4 0 0 0 0 4.6 2.9 2.9 0 0 0 4 .2"/><path id="path108" fill="none" stroke="#000" stroke-linecap="round" stroke-linejoin="round" stroke-width=".4" d="M219.6 374a5.4 5.4 0 0 0 0 1.4h0v.4c0 1-.6 1.8-1.4 2v.5c0 1 .3 1.8.7 2.5 0 0 0 0 0 0 .4.6.7 1.3.8 2 .2.7.7 1 1.2 1h2.2c0-1.2-.8-2.1-1.9-2.1 0 0 0 0 0 0-.4-.5-.7-1.1-.7-1.8 0-1 .6-2 1.5-2.3h0a3 3 0 0 0 1.7-2.8h0c1-2.8 2.9-5 5.3-6.2 0 0 0 0 0 0 1.8-.8 3-2.8 3-5 0-1.7-.7-3.2-1.9-4.2V357l1.1-.9c.8-.6 1.4-1 1.5-2 .1-.6.5-2.6-.3-2.5-.8.1-2 .6-2 .6-.4-.2-.6-.4-1-.4l-1.4.3c-1.7.4-3 2.1-3 4.1v4.8c0 3.4-1.6 6.5-4.1 8.3h0c-1 .7-1.8 1.8-2.1 3.2h0c-.2.6-.7 1-1.2 1-.4 0-.9-.2-1.2-.6a2 2 0 0 1 0-2.7 1 1 0 0 0 0-1 .6.6 0 0 0-.9 0 3.4 3.4 0 0 0 0 4.6 2.9 2.9 0 0 0 4 .2 5.6 5.6 0 0 1 0 0"/><path id="path109" fill="#c88242" d="M226.3 354.8s-.4.9 0 1.8c.3.6 1 1 1.5 1 .4-.5.5-1.2.2-1.9l-.7-1.4"/><path id="path110" fill="none" stroke="#000" stroke-linecap="round" stroke-linejoin="round" stroke-width=".4" d="M226.3 354.8s-.4.9 0 1.8c.3.6 1 1 1.5 1 .4-.5.5-1.2.2-1.9l-.7-1.4"/><path id="path111" d="M229.8 353.5h-.5l.4-.3.1.3z"/><path id="path112" fill="none" stroke="#000" stroke-width=".4" d="M229.8 353.5h-.5l.4-.3.1.3z"/><path id="path113" fill="#c88242" d="M229.8 362.9c1.2.6 2.5 0 3.2-1.2.2-.3 0-1 .2-1.4a1 1 0 0 1 1-.7v3.2l-1 1c-.8.9-1.6 2-2.5 1.7l-3.7-1"/><path id="path114" fill="none" stroke="#000" stroke-linecap="round" stroke-linejoin="round" stroke-width=".4" d="M229.8 362.9c1.2.6 2.5 0 3.2-1.2.2-.3 0-1 .2-1.4h0a1 1 0 0 1 1-.7v3.2l-1 1c-.8.9-1.6 2-2.5 1.7l-3.7-1"/><path id="path115" d="M231.6 351.7c0 .7.5 1.3 1.2 1.3v-.8c0-.4-.1-.5-.4-.5h-.4z"/><path id="path116" fill="none" stroke="#000" stroke-width=".2" d="M231.6 351.7c0 .7.5 1.3 1.2 1.3v-.8c0-.4-.1-.5-.4-.5h-.4z"/><path id="path117" d="M232.8 353.9s-.8.8-1.8 1"/><path id="path118" fill="none" stroke="#000" stroke-linecap="round" stroke-linejoin="round" stroke-width=".4" d="M232.8 353.9s-.8.8-1.8 1"/><path id="path119" fill="#fff" d="m247.9 378-2.5-2.7a1 1 0 0 0-1.5 0l-2.5 2.7z"/><path id="path120" fill="none" stroke="#000" stroke-width=".4" d="m247.9 378-2.5-2.7a1 1 0 0 0-1.5 0l-2.5 2.7z"/><path id="path121" fill="#fff" d="m243.3 361.6-2.5-2.8a1 1 0 0 0-1.6 0l-2.4 2.8h6.5z"/><path id="path122" fill="none" stroke="#000" stroke-width=".4" d="m243.3 361.6-2.5-2.8a1 1 0 0 0-1.6 0l-2.4 2.8h6.5z"/><path id="path123" fill="#fff" d="m252.6 361.6-2.5-2.8a1 1 0 0 0-1.5 0l-2.5 2.8h6.5z"/><path id="path124" fill="none" stroke="#000" stroke-width=".4" d="m252.6 361.6-2.5-2.8a1 1 0 0 0-1.5 0l-2.5 2.8h6.5z"/><path id="path125" fill="#fff" d="m243.3 367-2.5-2.7a1 1 0 0 0-1.6 0l-2.4 2.7h6.5z"/><path id="path126" fill="none" stroke="#000" stroke-width=".4" d="m243.3 367-2.5-2.7a1 1 0 0 0-1.6 0l-2.4 2.7h6.5z"/><path id="path127" fill="#fff" d="m252.6 367-2.5-2.7a1 1 0 0 0-1.5 0L246 367h6.5z"/><path id="path128" fill="none" stroke="#000" stroke-width=".4" d="m252.6 367-2.5-2.7a1 1 0 0 0-1.5 0L246 367h6.5z"/><path id="path129" fill="#fff" d="m243.3 372.5-2.5-2.7a1 1 0 0 0-1.6 0l-2.4 2.7z"/><path id="path130" fill="none" stroke="#000" stroke-width=".4" d="m243.3 372.5-2.5-2.7a1 1 0 0 0-1.6 0l-2.4 2.7z"/><path id="path131" fill="#fff" d="m252.6 372.5-2.5-2.7a1 1 0 0 0-1.5 0l-2.5 2.7z"/><path id="path132" fill="none" stroke="#000" stroke-width=".4" d="m252.6 372.5-2.5-2.7a1 1 0 0 0-1.5 0l-2.5 2.7z"/><path id="path133" fill="#768692" d="M255.3 338.9c.8 1.6 3.8 2 4.8 2 .5 0 1 0 1.4-.2l-.2.4c-.4 1-1.2 1.7-2.2 2 .3 1 1 1.3 1.8 1.6-.9.3-6.5.8-10-3"/><path id="path134" fill="none" stroke="#000" stroke-linecap="round" stroke-linejoin="round" stroke-width=".4" d="M255.3 338.9c.8 1.6 3.8 2 4.8 2 .5 0 1 0 1.4-.2l-.2.4c-.4 1-1.2 1.7-2.2 2 .3 1 1 1.3 1.8 1.6-.9.3-6.5.8-10-3"/><path id="path135" fill="#768692" d="M234 338.9c-.9 1.6-3.8 2-4.8 2-.5 0-1 0-1.4-.2l.2.4c.4 1 1.2 1.7 2.2 2-.3 1-1 1.3-1.8 1.6.8.3 6.4.8 10-3"/><path id="path136" fill="none" stroke="#000" stroke-linecap="round" stroke-linejoin="round" stroke-width=".4" d="M234 338.9c-.9 1.6-3.8 2-4.8 2-.5 0-1 0-1.4-.2l.2.4c.4 1 1.2 1.7 2.2 2-.3 1-1 1.3-1.8 1.6.8.3 6.4.8 10-3"/><path id="path137" fill="#768692" d="m251.4 340.7-.6 1 1.4.4c.7.1 1 0 1.5-.5l1.2-1.7c.3-.3.4-.8.4-1.3 0-1-.8-2-1.9-2.2-2.8-.6-5.7-.8-8.7-.8h-.1c-3 0-6 .2-8.8.8a2.3 2.3 0 0 0-1.5 3.5s.7 1 1.3 1.7c.4.5.8.6 1.5.5l1.4-.4-.6-1-.1-.1-1.1.1c2.5-.4 5.2-.7 7.9-.7h.1c2.7 0 5.3.3 7.9.7l-1.1-.1-.1.1z"/><path id="path138" fill="none" stroke="#000" stroke-linecap="round" stroke-linejoin="round" stroke-width=".4" d="m251.4 340.7-.6 1 1.4.4c.7.1 1 0 1.5-.5l1.2-1.7h0c.3-.3.4-.8.4-1.3 0-1-.8-2-1.9-2.2h0c-2.8-.6-5.7-.8-8.7-.8h-.1c-3 0-6 .2-8.8.8h0a2.3 2.3 0 0 0-1.5 3.5h0l1.3 1.7c.4.5.8.6 1.5.5l1.4-.4-.6-1-.1-.1-1.1.1c2.5-.4 5.2-.7 7.9-.7h.1c2.7 0 5.3.3 7.9.7l-1.1-.1-.1.1z"/><path id="path139" d="M237.8 339.6c-.4.1-.9 0-1-.8-.2-.6.2-1 .6-1.1.5-.1 1 0 1.1.8.1.6-.2 1-.7 1.1zm-.4-1.7c-.2 0-.3.2-.2.8.2.6.4.7.6.7.2 0 .4-.3.2-.9-.1-.6-.3-.6-.6-.6z"/><path id="path140" d="m241.2 339-.5.1c-.6.1-1-.2-1.1-.8-.1-.6.3-1 1-1.1h.3v.4c.1 0 0 0 0 0v.1h-.1v-.2h-.3c-.4 0-.5.3-.5.7.1.4.3.7.8.6h.3l.1.1z"/><path id="path141" d="m243.8 338.8-1.4.1v-.1l.1-.2v-1.3h-.2v-.2l1.4-.1v.4h-.1l-.1-.1h-.6v.4h.7v.2l-.6.1v.6h.6v-.2h.2v.4z"/><path id="path142" d="M247 338.9h-.8v-.2h.1v-.3l-.7-.1-.1.2v.1h.1v.2h-.6v-.1l.1-.2.7-1.6h.5l.5 1.7h.1l.1.1v.1zm-1-1.4v-.3l-.1.3-.2.5h.5l-.2-.5z"/><path id="path143" d="M250.2 337.4h-.2v.1l-.2 1.6h-.3l-.7-1.1-.1-.2-.1 1h.2v.2h-.8v-.2h.2v-.1l.2-1.3v-.1h-.2v-.2h.7l.5 1 .1.2.1-.8v-.1h-.2v-.2h.8v.2z"/><path id="path144" d="M251.9 339.5c-.5 0-.9-.4-.7-1.1.1-.6.6-1 1-.8.5 0 .9.4.8 1.1-.2.6-.7.9-1.1.8zm.3-1.7c-.2 0-.4 0-.5.7-.2.6 0 .7.2.8.3 0 .5 0 .6-.7.1-.6 0-.8-.3-.8z"/><path id="path145" fill="#c09b5a" d="M263.6 371.3c-1 .5-2 1.3-2.6 2.3l-.2.7c0 .4.1.8.4 1 .3.4.5.8.5 1.3 0 .8-.6 1.5-1.3 1.7a2 2 0 0 0-1.6 2h2c.4 0 .8-.2 1-.8.4-.8 1.3-2.2 2-2.6l-.2-.7c0-1.2.7-1.2 1.8-1.4h.3s-.2-.9-.7-1.8c-.5-.9-1.4-1.7-1.4-1.7z"/><path id="path146" fill="none" stroke="#000" stroke-linecap="round" stroke-linejoin="round" stroke-width=".4" d="M263.6 371.3c-1 .5-2 1.3-2.6 2.3h0l-.2.7c0 .4.1.8.4 1h0c.3.4.5.8.5 1.3 0 .8-.6 1.5-1.3 1.7h0a2 2 0 0 0-1.6 2h2c.4 0 .8-.2 1-.8.4-.8 1.3-2.2 2-2.6l-.2-.7c0-1.2.7-1.2 1.8-1.4h.3s-.2-.9-.7-1.8c-.5-.9-1.4-1.7-1.4-1.7z"/><path id="path147" fill="#c09b5a" d="m259.1 359.2-2.7-4.2c-.3-.4-.7-.7-1.2-.7-.8 0-1.4.7-1.4 1.6h1.4l1.2 2.1.7 3.2.4.6v.1"/><path id="path148" fill="#c88242" stroke="#000" stroke-linecap="round" stroke-linejoin="round" stroke-width=".4" d="m259.1 359.2-2.7-4.2h0c-.3-.4-.7-.7-1.2-.7-.8 0-1.4.7-1.4 1.6h1.4l1.2 2.1.7 3.2.4.6v.1"/><path id="path149" fill="#c88242" d="M269.8 374a5.8 5.8 0 0 1 0 1.4v.4c0 1 .5 1.8 1.4 2v.5c0 1-.3 1.8-.8 2.5-.4.6-.6 1.3-.8 2-.1.7-.7 1-1.1 1h-2.3a2 2 0 0 1 2-2.1 2.6 2.6 0 0 0-.8-4.1 3 3 0 0 1-1.8-2.8c-.9-2.8-2.8-5-5.2-6.2-1.8-.8-3-2.8-3-5 0-1.7.7-3.2 1.8-4.2V357l-1-.9c-.8-.6-1.4-1-1.6-2 0-.6-.4-2.6.4-2.5.8.1 2 .6 2 .6.4-.2.5-.4 1-.4l1.4.3c1.7.4 3 2.1 3 4.1v4.8c0 3.4 1.6 6.5 4 8.3a5 5 0 0 1 2.2 3.2c.2.6.7 1 1.1 1 .5 0 1-.2 1.3-.6.7-.7.7-2 0-2.7a.7.7 0 0 1 0-1c.3-.2.6-.2.9 0a3.4 3.4 0 0 1 0 4.6 2.9 2.9 0 0 1-4.1.2"/><path id="path150" fill="none" stroke="#000" stroke-linecap="round" stroke-linejoin="round" stroke-width=".4" d="M269.8 374a5.8 5.8 0 0 1 0 1.4h0v.4c0 1 .5 1.8 1.4 2v.5c0 1-.3 1.8-.8 2.5 0 0 0 0 0 0-.4.6-.6 1.3-.8 2-.1.7-.7 1-1.1 1h-2.3a2 2 0 0 1 2-2.1h0a2.6 2.6 0 0 0-.8-4.1h0a3 3 0 0 1-1.8-2.8h0c-.9-2.8-2.8-5-5.2-6.2h0c-1.8-.8-3-2.8-3-5 0-1.7.7-3.2 1.8-4.2V357l-1-.9c-.8-.6-1.4-1-1.6-2 0-.6-.4-2.6.4-2.5.8.1 2 .6 2 .6.4-.2.5-.4 1-.4l1.4.3c1.7.4 3 2.1 3 4.1v4.8c0 3.4 1.6 6.5 4 8.3h0a5 5 0 0 1 2.2 3.2h0c.2.6.7 1 1.1 1 .5 0 1-.2 1.3-.6.7-.7.7-2 0-2.7a.7.7 0 0 1 0-1c.3-.2.6-.2.9 0a3.4 3.4 0 0 1 0 4.6 2.9 2.9 0 0 1-4.1.2 5.6 5.6 0 0 0 0 0"/><path id="path151" fill="#c88242" d="M263.1 354.8s.3.9 0 1.8c-.4.6-1 1-1.6 1a2 2 0 0 1-.1-1.9l.7-1.4"/><path id="path152" fill="none" stroke="#000" stroke-linecap="round" stroke-linejoin="round" stroke-width=".4" d="M263.1 354.8s.3.9 0 1.8c-.4.6-1 1-1.6 1a2 2 0 0 1-.1-1.9l.7-1.4"/><path id="path153" fill="#c0a151" d="M259.6 353.5h.5l-.4-.3-.1.3z"/><path id="path154" fill="none" stroke="#000" stroke-width=".4" d="M259.6 353.5h.5l-.4-.3-.1.3z"/><path id="path155" fill="#c88242" d="M259.6 362.9c-1.2.6-2.5 0-3.2-1.2-.2-.3-.1-1-.2-1.4a1 1 0 0 0-1-.7v3.2l1 1c.8.9 1.6 2 2.5 1.7l3.6-1"/><path id="path156" fill="none" stroke="#000" stroke-linecap="round" stroke-linejoin="round" stroke-width=".4" d="M259.6 362.9c-1.2.6-2.5 0-3.2-1.2-.2-.3-.1-1-.2-1.4h0a1 1 0 0 0-1-.7v3.2l1 1c.8.9 1.6 2 2.5 1.7l3.6-1"/><path id="path157" d="M257.8 351.7c0 .7-.6 1.3-1.2 1.3v-.9c0-.3 0-.5.4-.4h.4z"/><g id="g159" fill="none" stroke="#000"><path id="path158" stroke-width=".2" d="M257.8 351.7c0 .7-.6 1.3-1.2 1.3v-.8c0-.4 0-.5.4-.5h.4z"/><path id="path159" stroke-linecap="round" stroke-linejoin="round" stroke-width=".4" d="M256.6 353.9s.8.8 1.8 1"/></g></g><g id="g163" fill="#fff"><path id="path160" d="M367.6 285.4a4 4 0 0 1-2.2-1.2c-.7-.7-1-1.4-1.1-2.4a4 4 0 0 1 2.8-4c.5-.2 1.6-.2 2 0a4 4 0 0 1 2.9 3.7 4 4 0 0 1-4.4 4z"/><path id="path161" d="M410.6 275.9a4 4 0 0 1-2.4-5.9 3.8 3.8 0 0 1 7 1 6 6 0 0 1-.1 2.3c-.7 2-2.6 3-4.5 2.6z"/><path id="path162" d="M507.5 285.4a4 4 0 0 1-3.1-2.8 5 5 0 0 1 0-2.1 4 4 0 0 1 2.7-2.7c.4-.2 1.5-.2 2 0 1 .2 2 1 2.5 2 .2.4.4 1.2.4 1.7s-.2 1.3-.4 1.8a4 4 0 0 1-4 2.1z"/><path id="path163" d="m464.2 276-1.6-.7a3.9 3.9 0 0 1 .5-6.7c1.3-.6 2.7-.5 3.9.3a3.9 3.9 0 0 1-2.8 7z"/></g><g id="g164" fill="#c88242"><path id="path164" fill="#c88242" d="M642.1 638.2c3.6-8.6 5.4-10.2 16.5-15.2 11.6-5.2 17.3-10.8 20-19.6 2.4-8.2.8-16.6-4.8-25.8-6.6-10.7-7.1-13.6-3.6-21.5a76.2 76.2 0 0 1 26-26.8l6.5-3.7 5.5 6.4c6.5 7.6 18.1 30.4 17 33.4-.4 1.1-3.6 2.6-7 3.2-13.8 2.6-19.6 10-17.9 22.6.9 6.2.4 7.6-3.2 11a135.2 135.2 0 0 0-20.6 30.2 30.1 30.1 0 0 1-7.5 10.1c-1.7 1-9 1.7-16.2 1.7h-13.2z"/></g><g id="g171" fill="#fc0"><path id="path165" d="M342.6 265.1c-2.8-4.5-3.4-7.2-2.6-11.4.8-4.7.4-6-3-8.2-2-1.4-4.5-2.4-5.3-2.1-2 .5-13.5-4-13.5-5.5 0-2.4 5.7-4.2 11-3.4 3.2.5 5.2 1.8 5.2 3.3 0 1.7.6 2 2 .8 1.1-.8 4.2-2 7-2.7l5.6-1.5c.5-.1 1 2.7 1 6.3.2 4.7-.6 7.1-3 9-3.3 2.6-3.3 2.8-.3 7.8 1.6 2.8 4 5 5.1 5 2.6 0 5.4-6.7 4.6-11-1-5 3.2-5.4 7.3-1 5 5.3 12 5.2 15.4 0 4.4-6.7 2.6-9.9-5.2-9.3-5 .4-7.8-.4-10.8-3-4.2-3.7-4.2-8.1 0-8.1 1.2 0 2.7-1.1 3.2-2.5.6-1.4 2-2.2 3.2-1.7 1.2.5 2.2-.1 2.2-1.3 0-3.4 5-12.4 6.8-12.4 2.5 0 9.4 7 9.5 9.6 0 1.7.5 1.8 2.3.3 1.3-1 2.7-1.3 3.2-.4.5.8 2.8 1.3 5.2 1 4-.4 4.2-.2 3.1 5.5-1.2 6.7-4.5 10-10.2 10-5.3 0-4.3 5.9 1.7 10.3l4.4 3.3 4.4-3.3c2.5-1.8 5-5 5.5-7.2 1.2-4.7 4.5-4.3 8.5 1 5.3 7 17.3 4 17.3-4.2 0-2.2-1-3.1-3.6-3.2-6 0-11-1.8-11-4 0-1.1-1-3-2.4-4-3.7-3.2-3-6.5 1.5-6.5 2.2 0 4.5-.8 5-1.8.7-1 2.6-1.4 4.3-1 2.3.6 3 .1 2.7-1.8-.2-1.5 1.6-4.9 4-7.5l4.4-4.7 4 4.4c2.3 2.4 4.1 5.8 4.1 7.4 0 2.2.9 2.8 3.3 2.2 1.8-.5 3.2 0 3.2 1s1.9 1.8 4 1.8c4.7 0 5.5 3.3 1.7 7-1.4 1.4-2.3 3.4-2 4.6.4 2.2-.6 2.5-9.3 2.8-4.4.1-5.7.9-5.7 3.2 0 8 12.6 11.3 17 4.4 4.2-6.3 7-6.4 9.6-.2 3.4 8 8.3 10.2 13.8 6.2 5.5-4.2 6.6-10.2 1.8-10.2-5 0-9.8-3-8.8-5.5.5-1.3.1-2.8-.8-3.3-1-.6-1.8-2.4-1.8-4 0-2.2 1-2.9 4-2.5 2.3.2 4.5-.2 5-1s2-1 3.3-.5c1.4.6 2.3 0 2.3-1.7 0-1.4 1.2-2.6 2.5-2.6a4 4 0 0 0 3.4-2.4c1.4-3.6 7.1-3.1 7.1.6 0 1.7 1 3.5 2.3 4 1.5.5 2 2.2 1.4 4.5-.6 2.2-.3 3.2.8 2.5.9-.6 2.6 0 3.7 1.4 1 1.3 3 2.4 4.1 2.4 4 0 4.3 3.5.6 7.4-2.8 3-5.4 4-10.5 4-8 0-10.3 3.2-6.4 9.1 3.3 5.1 9.5 5 15.8-.3 5.5-4.6 7.6-3.4 7.7 4.4 0 5.5 4.4 9.5 6.7 6.1 5-7.4 5.1-8.4 1.9-11-2.6-2.1-3-4-2.5-9.5.7-6.3 1-6.7 4-5.2 1.7 1 4.1 1.4 5.3 1 1.2-.5 2.7.3 3.3 1.8 1 2.5 1.2 2.4 3-.5 2.6-4.5 15.7-4 15.7.6 0 1.5-9.9 5.7-13 5.5-1.3 0-3.7.6-5.4 1.5-2.5 1.3-3 2.8-2.2 7.3.7 4.4 0 7.2-3 12-5 8-10.2 8.4-16.7 1.6-4-4.1-5.4-4.6-11-3.9-5.5.8-7.4.2-11.7-3.4-4.1-3.5-5.7-4-8.3-2.6-5.7 3-14 2-18.7-2.4-4-3.7-4.7-3.9-8-1.6-4.7 3.3-10.6 3-16.7-.6-4.4-2.7-5.4-2.8-7.4-.8-3.8 3.7-13.7 4.7-18.1 1.8-3.6-2.4-4.2-2.3-8.4 1.4-5 4.2-11.3 5-17.6 2.1-3.3-1.5-4.5-1.3-7.4 1.6a16.7 16.7 0 0 1-15.7 4.4c-3.1-.8-5 0-7.7 3-2 2.3-5.9 4.6-8.6 5.1-4.5 1-5.5.4-8.7-4.9zm45.8-31.1c1.7-3.8 1.5-4.6-2-7.4-3.3-2.7-4.2-2.8-7.2-.8-6.6 4.4-4.4 12.4 3.3 12.4 2.7 0 4.6-1.4 5.9-4.2zm109.7 2.3c2.7-2.7 2.4-7.1-.6-10.1-3.4-3.4-5-3.3-8.8.6-4.6 4.6-1.6 11.3 5 11.4 1.3 0 3.3-.9 4.4-2zm-55.8-5.5c3-3 3.3-7.4.6-10.1-6.3-6.3-16.2 2.8-10.3 9.4 3.6 4 6.3 4.1 9.7.7z"/><path id="path166" d="M341.9 263.9c-3-5.1-3.7-7.5-2.5-9.7 1.8-3.4-.6-9.3-3.9-9.7-4.4-.6-5.4-.9-11.3-3-3.3-1.3-6-2.9-6-3.6 0-3.9 13.8-5.2 16-1.5 1 1.5 2.8 1.5 8-.4 3.8-1.2 7.1-1.8 7.5-1.3.3.6.6 3.8.6 7.2 0 4.3-.9 6.6-3 7.8-4 2-4 3.3.2 8.7 4.3 5.4 8 3.2 8-4.9 0-7.3 2.6-8.4 8-3.3 5.7 5.5 12.2 5.6 15.7.2 3.9-6 2-9-5.8-9-4.4 0-7.8-1.1-10.6-3.5-5-4.4-5-5.9 0-7.8 2.2-.9 4-2.3 4-3.2s1.2-1.7 2.5-1.7c1.4 0 2.4-1.4 2.4-3.2 0-1.8.6-3.3 1.3-3.3s2-1.8 2.9-4l1.5-4.2 5.3 3.7c2.9 2 5.2 4.5 5.2 5.5s3.1 1.9 6.8 2c3.8.2 7.1.6 7.5 1s.1 3.5-.7 6.9c-1.2 5-2.5 6.5-6.6 7.9-6.8 2.2-7.5 3-5.4 7 4.6 8.7 13.2 7.5 17.3-2.4 1.3-3 2.7-5.5 3-5.5s3 2.2 5.8 4.9c5.7 5.5 11.2 6.2 15.2 1.9 4.8-5.4 3.4-8.4-3.9-8.4-5.4 0-6.8-.7-8-4a12 12 0 0 0-3.2-4.9c-3.3-2-1.8-5.7 2.2-5.7 2.2 0 4.4-.8 5-1.7.5-.9 2.5-1.6 4.2-1.6 1.9 0 2.8-.7 2.2-1.7-.5-1 1.2-4 4-6.8l5-5 4 4.4c2.3 2.4 4.1 5.5 4.1 6.8s1.5 2.3 3.3 2.3c1.8 0 3.2.7 3.2 1.6 0 1 1.9 1.7 4 1.7 4.8 0 5 .8 1.7 8.7-2.3 5.5-3 5.9-9.7 5.9-6 0-7.3.5-7.3 3 0 4 5 8.3 9.5 8.3 2 0 5.8-2.3 8.4-5.2 5.2-5.6 5.5-5.6 9.4 2.3 3.2 6.4 10.1 8 15 3.6 4.2-3.8 4-8.8-.2-8.8-5 0-10-3.2-9-5.7.4-1.3.1-2.7-.7-3.3s-1.6-2.3-1.6-4c0-2.5 1.2-3.3 5.3-3.4h7.3c1.1.2 2-.8 2-2.2 0-1.4 1.2-2.5 2.5-2.5a4 4 0 0 0 3.4-2.4c1.2-3 7.1-3.3 7.1-.2 0 1.2 1 3 2.3 4a5.6 5.6 0 0 1 1.4 5.2c-.6 2.4-.2 3 1.8 2.2 1.5-.6 2.6-.2 2.6.8s1.9 2.5 4.1 3.4c5 1.9 5 2.9.2 8.3-3.2 3.7-4.8 4.2-10.3 3.6-7.5-.9-9.5 1.5-6.4 7.8 2.9 5.7 10 6 15.7.5 5.5-5.2 8.1-4.1 8.1 3.2 0 6.5 4.2 11 6.7 7.3 5-7.5 5.1-8.4 1.7-11-2.8-2.2-3.3-3.8-2.5-8.8 1-5.7 1.4-6 6.2-5.6 2.8.3 6 1.1 7 1.8 1.2.7 2.4.3 2.9-1 1.4-3.6 15.4-2 15.4 1.8 0 1.5-9.9 5.7-13 5.5-1.3-.1-3.7.6-5.4 1.5-2.5 1.3-3 2.8-2.2 7.7.8 4.7.2 7.2-3 12-5.2 7.5-10.6 8-16.8 1.4-3.6-3.8-5.3-4.4-10.9-3.9-5.3.5-7.6-.2-11.7-3.6-4.1-3.5-5.7-4-8.3-2.6-5.1 2.7-13.1 2-18.3-1.7-4-3-5.6-3.2-8.9-1.7-5.5 2.5-9.6 2.3-15.4-.7-4.5-2.3-5.5-2.3-10.4 0-6.3 3-10.5 3.2-16 .7-3.4-1.5-4.7-1.3-8.4 1.6a18.9 18.9 0 0 1-17.7 2c-2.2-.8-5 0-9 2.7a14.7 14.7 0 0 1-11.4 3.2c-4.5-.5-6.8.3-11 4-7.7 6.6-12.3 6-17.2-2.2zm46-29a6.2 6.2 0 0 0 0-6.4c-3-5.8-13-3.3-13 3.2s10 9 13 3.3zm110.2 1.4c2.8-2.9 2.4-7-1.2-10.1-2.5-2.3-3.8-2.5-6.5-1-5.8 3-3.5 13 3.1 13 1.5 0 3.5-.9 4.6-2zm-56.3-5.6c5.1-4.6 2.8-12-3.7-12-3 0-7.9 4.1-7.9 6.6 0 1.8 6 8 7.6 8 .6 0 2.4-1.2 4-2.6z"/><path id="path167" d="M342.3 264.7c-2.4-4-3.5-8-3.3-12.2.4-6-.6-7.4-6.5-8.4-4.6-.8-14.3-5-14.3-6.1 0-4.3 13.6-5.2 16.3-1.1.5.7 4 .3 7.6-1s7-1.9 7.6-1.3 1 3.7 1 7c0 4.5-1 6.9-3.5 8.6l-3.5 2.4 3.6 5c3 4.1 4.1 4.7 6 3.2 1.2-1 2.2-4.3 2.2-7.3 0-7.3 2.4-8.2 8.3-3.2 6 5 10 5.3 14.5.8 5.4-5.4 3.5-8.7-5.2-9.3-5.5-.4-8.5-1.6-11.3-4.6-3.8-4-3.8-4.1-.6-6.4 1.8-1.2 4.1-3 5.2-3.9 1-1 2.7-1.7 3.6-1.7s1.7-1 1.7-2.5c0-2 2.4-6.7 6-11.9.7-1 10.1 7 10.2 8.9 0 1 3.1 1.9 6.8 2 3.8.2 7.1.6 7.5 1s.1 3.5-.7 7c-1.2 4.8-2.5 6.4-6.6 7.8-7.2 2.3-7.7 3.3-4.6 8 2.2 3.4 3.8 4.2 8 3.8 4-.4 5.7-1.7 8-6.6 1.7-3.4 3.6-6.1 4.2-6.1s3.3 2.2 5.9 4.9c5.4 5.6 10.5 6.2 14.6 1.7 4.1-4.7 2-8.2-4.8-8.2-4.7 0-6.1-.8-7.3-4a12 12 0 0 0-3.2-4.9c-2.8-1.7-2-5.7 1.2-5.7 4.1 0 11.6-3.8 11.7-5.8 0-1 2.2-3.9 4.9-6.5l4.9-4.7 4 4.4c2.2 2.3 4 5.4 4 6.8 0 1.4 1.4 2.5 3.2 2.5 1.7 0 3.6.7 4.1 1.6.6 1 2.5 1.7 4.2 1.7 3.8 0 3.9 1 .7 8.7-2.3 5.5-3 5.9-9.7 5.9-8.3 0-9.6 2.6-4 8 4.4 4.6 8.3 4.2 13.7-1.5 2.6-2.7 5.3-4.9 6-4.9s2.5 2.5 3.8 5.5c3.6 8.5 11.9 10.3 16.4 3.4 3-4.7 2.5-5.7-4.7-8-4.1-1.4-5.4-3-6.6-7.9-.8-3.4-1.1-6.5-.7-6.9s3.7-.8 7.5-1c4.4-.2 6.7-1 6.7-2.4 0-1.2 1.2-2.2 2.5-2.2a4 4 0 0 0 3.4-2.4c1.2-3 7.1-3.2 7.1-.2 0 1.2 1 3 2.4 4.2 1.3 1 1.9 3 1.4 4.2-.5 1.3 0 2.3 1 2.3s2.7.8 3.8 1.7c1.1 1 3.4 2.7 5.1 3.9 3 2 3 2.2-.8 7.1-3.3 4.2-5 5-10.4 4.7-5.5-.3-6.6.2-7 3.1-.6 4.1 3.5 8.8 7.8 8.8 1.6 0 5.2-2 8-4.2 5.8-5 8.2-4 8.2 3.2 0 7 3.5 10.2 6.8 6.2 4.9-5.6 5.1-7.2 1.6-10-2.8-2-3.3-3.6-2.5-8.7 1-5.7 1.4-6 6.2-5.5 2.8.2 6 1 7 1.7 1.2.7 2.4.3 2.9-1 1.5-3.9 15.4-2.3 15.4 1.8 0 1.8-8 5.4-13.6 6.1-7 .9-8 2.1-7 8.6.8 4.7.2 7.2-3 12-5.1 7.4-10.5 8-16.9 1.5-3.6-3.6-5.6-4.3-10.8-4-4.8.4-7.8-.5-11.9-3.5-4.1-3.1-6.2-3.7-8.4-2.6-5 2.7-13.8 1.8-18.5-1.8-3.6-3-5-3.2-8.4-1.7-5.7 2.6-10.4 2.3-16.1-1.2-4.9-3-5-3-8.7 0-4.2 3.4-11 4-17 1.3-3.3-1.6-4.7-1.2-8.9 1.8-4.1 3.1-6.2 3.5-13.2 2.7-6.5-.8-9.3-.3-13.8 2.3a19.8 19.8 0 0 1-11.6 2.8c-4.9-.4-7 .4-10.5 4-6.4 6.3-11.7 5.8-16.3-1.6zm43.4-27.7a7.2 7.2 0 0 0 2-9c-2-3.8-9-3.6-11 .5-3.4 6.2 3.2 12.3 9 8.5zm113.3-2.4c2.5-4-.5-8.4-6-9-3.4-.5-4.4.2-5.3 3.6-2 8 7 12.2 11.3 5.4zm-54.8-7c1.3-3.2-2.3-8.9-5.7-8.9-4.8 0-8.9 5.7-6.8 9.5 1 1.8 2.6 3.6 3.8 4 2.6 1 7.6-1.7 8.7-4.5z"/><path id="path168" d="M342.3 264.7c-2.4-4-3.5-8-3.3-12.2.4-6-.6-7.4-6.5-8.4-4.6-.8-14.3-5-14.3-6.1 0-4.3 13.6-5.2 16.3-1.1.5.7 4 .3 7.6-1s7-1.9 7.6-1.3 1 3.7 1 7c0 4.5-1 6.9-3.5 8.6l-3.5 2.4 3.6 5c3 4.1 4.1 4.7 6 3.2 1.2-1 2.2-4.3 2.2-7.3 0-7.3 2.4-8.2 8.3-3.2 6 5 10 5.3 14.5.8 5.4-5.4 3.5-8.7-5.2-9.3-5.5-.4-8.5-1.6-11.3-4.6-3.8-4-3.8-4.1-.6-6.4 1.8-1.2 4.1-3 5.2-3.9 1-1 2.7-1.7 3.6-1.7s1.7-1 1.7-2.5c0-2 2.4-6.7 6-11.9.7-1 10.1 7 10.2 8.9 0 1 3.1 1.9 6.8 2 3.8.2 7.1.6 7.5 1s.1 3.5-.7 7c-1.2 4.8-2.5 6.4-6.6 7.8-7.2 2.3-7.7 3.3-4.6 8 2.2 3.4 3.8 4.2 8 3.8 4-.4 5.7-1.7 8-6.6 1.7-3.4 3.6-6.1 4.2-6.1s3.3 2.2 5.9 4.9c5.4 5.6 10.5 6.2 14.6 1.7 4.1-4.7 2-8.2-4.8-8.2-4.7 0-6.1-.8-7.3-4a12 12 0 0 0-3.2-4.9c-2.8-1.7-2-5.7 1.2-5.7 4.1 0 11.6-3.8 11.7-5.8 0-1 2.2-3.9 4.9-6.5l4.9-4.7 4 4.4c2.2 2.3 4 5.4 4 6.8 0 1.4 1.4 2.5 3.2 2.5 1.7 0 3.6.7 4.1 1.6.6 1 2.5 1.7 4.2 1.7 3.8 0 3.9 1 .7 8.7-2.3 5.5-3 5.9-9.7 5.9-8.3 0-9.6 2.6-4 8 4.4 4.6 8.3 4.2 13.7-1.5 2.6-2.7 5.3-4.9 6-4.9s2.5 2.5 3.8 5.5c3.6 8.5 11.9 10.3 16.4 3.4 3-4.7 2.5-5.7-4.7-8-4.1-1.4-5.4-3-6.6-7.9-.8-3.4-1.1-6.5-.7-6.9s3.7-.8 7.5-1c4.4-.2 6.7-1 6.7-2.4 0-1.2 1.2-2.2 2.5-2.2a4 4 0 0 0 3.4-2.4c1.2-3 7.1-3.2 7.1-.2 0 1.2 1 3 2.4 4.2 1.3 1 1.9 3 1.4 4.2-.5 1.3 0 2.3 1 2.3s2.7.8 3.8 1.7c1.1 1 3.4 2.7 5.1 3.9 3 2 3 2.2-.8 7.1-3.3 4.2-5 5-10.4 4.7-5.5-.3-6.6.2-7 3.1-.6 4.1 3.5 8.8 7.8 8.8 1.6 0 5.2-2 8-4.2 5.8-5 8.2-4 8.2 3.2 0 7 3.5 10.2 6.8 6.2 4.9-5.6 5.1-7.2 1.6-10-2.8-2-3.3-3.6-2.5-8.7 1-5.7 1.4-6 6.2-5.5 2.8.2 6 1 7 1.7 1.2.7 2.4.3 2.9-1 1.5-3.9 15.4-2.3 15.4 1.8 0 1.8-8 5.4-13.6 6.1-7 .9-8 2.1-7 8.6.8 4.7.2 7.2-3 12-5.1 7.4-10.5 8-16.9 1.5-3.6-3.6-5.6-4.3-10.8-4-4.8.4-7.8-.5-11.9-3.5-4.1-3.1-6.2-3.7-8.4-2.6-5 2.7-13.8 1.8-18.5-1.8-3.6-3-5-3.2-8.4-1.7-5.7 2.6-10.4 2.3-16.1-1.2-4.9-3-5-3-8.7 0-4.2 3.4-11 4-17 1.3-3.3-1.6-4.7-1.2-8.9 1.8-4.1 3.1-6.2 3.5-13.2 2.7-6.5-.8-9.3-.3-13.8 2.3a19.8 19.8 0 0 1-11.6 2.8c-4.9-.4-7 .4-10.5 4-6.4 6.3-11.7 5.8-16.3-1.6zm43.4-27.7a7.2 7.2 0 0 0 2-9c-2-3.8-9-3.6-11 .5-3.4 6.2 3.2 12.3 9 8.5zm113.3-2.4c2.5-4-.5-8.4-6-9-3.4-.5-4.4.2-5.3 3.6-2 8 7 12.2 11.3 5.4zm-54.8-7c1.3-3.2-2.3-8.9-5.7-8.9-4.8 0-8.9 5.7-6.8 9.5 1 1.8 2.6 3.6 3.8 4 2.6 1 7.6-1.7 8.7-4.5z"/><path id="path169" d="M342.3 264.7c-2.4-4-3.5-8-3.3-12.2.4-6-.6-7.4-6.5-8.4-4.6-.8-14.3-5-14.3-6.1 0-4.3 13.6-5.2 16.3-1.1.5.7 4 .3 7.6-1s7-1.9 7.6-1.3 1 3.7 1 7c0 4.5-1 6.9-3.5 8.6l-3.5 2.4 3.6 5c3 4.1 4.1 4.7 6 3.2 1.2-1 2.2-4.3 2.2-7.3 0-7.3 2.4-8.2 8.3-3.2 6 5 10 5.3 14.5.8 5.4-5.4 3.5-8.7-5.2-9.3-5.5-.4-8.5-1.6-11.3-4.6-3.8-4-3.8-4.1-.6-6.4 1.8-1.2 4.1-3 5.2-3.9 1-1 2.7-1.7 3.6-1.7s1.7-1 1.7-2.5c0-2 2.4-6.7 6-11.9.7-1 10.1 7 10.2 8.9 0 1 3.1 1.9 6.8 2 3.8.2 7.1.6 7.5 1s.1 3.5-.7 7c-1.2 4.8-2.5 6.4-6.6 7.8-7.2 2.3-7.7 3.3-4.6 8 2.2 3.4 3.8 4.2 8 3.8 4-.4 5.7-1.7 8-6.6 1.7-3.4 3.6-6.1 4.2-6.1s3.3 2.2 5.9 4.9c5.4 5.6 10.5 6.2 14.6 1.7 4.1-4.7 2-8.2-4.8-8.2-4.7 0-6.1-.8-7.3-4a12 12 0 0 0-3.2-4.9c-2.8-1.7-2-5.7 1.2-5.7 4.1 0 11.6-3.8 11.7-5.8 0-1 2.2-3.9 4.9-6.5l4.9-4.7 4 4.4c2.2 2.3 4 5.4 4 6.8 0 1.4 1.4 2.5 3.2 2.5 1.7 0 3.6.7 4.1 1.6.6 1 2.5 1.7 4.2 1.7 3.8 0 3.9 1 .7 8.7-2.3 5.5-3 5.9-9.7 5.9-8.3 0-9.6 2.6-4 8 4.4 4.6 8.3 4.2 13.7-1.5 2.6-2.7 5.3-4.9 6-4.9s2.5 2.5 3.8 5.5c3.6 8.5 11.9 10.3 16.4 3.4 3-4.7 2.5-5.7-4.7-8-4.1-1.4-5.4-3-6.6-7.9-.8-3.4-1.1-6.5-.7-6.9s3.7-.8 7.5-1c4.4-.2 6.7-1 6.7-2.4 0-1.2 1.2-2.2 2.5-2.2a4 4 0 0 0 3.4-2.4c1.2-3 7.1-3.2 7.1-.2 0 1.2 1 3 2.4 4.2 1.3 1 1.9 3 1.4 4.2-.5 1.3 0 2.3 1 2.3s2.7.8 3.8 1.7c1.1 1 3.4 2.7 5.1 3.9 3 2 3 2.2-.8 7.1-3.3 4.2-5 5-10.4 4.7-5.5-.3-6.6.2-7 3.1-.6 4.1 3.5 8.8 7.8 8.8 1.6 0 5.2-2 8-4.2 5.8-5 8.2-4 8.2 3.2 0 7 3.5 10.2 6.8 6.2 4.9-5.6 5.1-7.2 1.6-10-2.8-2-3.3-3.6-2.5-8.7 1-5.7 1.4-6 6.2-5.5 2.8.2 6 1 7 1.7 1.2.7 2.4.3 2.9-1 1.5-3.9 15.4-2.3 15.4 1.8 0 1.8-8 5.4-13.6 6.1-7 .9-8 2.1-7 8.6.8 4.7.2 7.2-3 12-5.1 7.4-10.5 8-16.9 1.5-3.6-3.6-5.6-4.3-10.8-4-4.8.4-7.8-.5-11.9-3.5-4.1-3.1-6.2-3.7-8.4-2.6-5 2.7-13.8 1.8-18.5-1.8-3.6-3-5-3.2-8.4-1.7-5.7 2.6-10.4 2.3-16.1-1.2-4.9-3-5-3-8.7 0-4.2 3.4-11 4-17 1.3-3.3-1.6-4.7-1.2-8.9 1.8-4.1 3.1-6.2 3.5-13.2 2.7-6.5-.8-9.3-.3-13.8 2.3a19.8 19.8 0 0 1-11.6 2.8c-4.9-.4-7 .4-10.5 4-6.4 6.3-11.7 5.8-16.3-1.6zm43.4-27.7a7.2 7.2 0 0 0 2-9c-2-3.8-9-3.6-11 .5-3.4 6.2 3.2 12.3 9 8.5zm113.3-2.4c2.5-4-.5-8.4-6-9-3.4-.5-4.4.2-5.3 3.6-2 8 7 12.2 11.3 5.4zm-54.8-7c1.3-3.2-2.3-8.9-5.7-8.9-4.8 0-8.9 5.7-6.8 9.5 1 1.8 2.6 3.6 3.8 4 2.6 1 7.6-1.7 8.7-4.5z"/><path id="path170" d="M346.8 270.3c-1.4-1-7-9.2-8-11.8-.6-1.4-.6-2 .4-3.8.6-1.2 1-3.1 1-4.3 0-4-4.5-7.5-8.7-6.7-1.4.2-2.6 0-5.5-1.5-2-1-3.8-1.8-4-1.6s-.3 0-.3-.2c0-.3-.8-.8-1.8-1l-2.1-.6c-.6-.3 1.6-2.7 3.4-3.6 1.5-.8 6.8-1.4 6.8-.7 0 .6 1.9.8 3.1.2 1-.4 1.5-.3 2.4.8.7.7 1.3 1.9 1.3 2.6.2 1.8.7 2 1.4.8 1.2-2 3-3.5 3.7-3 1.3.7 2.5.6 5.5-.7 1.7-.8 3.3-1.3 3.7-1.1.6.2.8 1.5.8 5 0 2.7.2 4.9.5 5.2 1.1 1 0 2.8-3.4 5.3l-3.5 2.7c-.7.5 6.8 10.3 8 10.3.4 0 1.6-.9 2.6-1.9 1.8-1.8 1.9-2 2.1-7.2.3-5.7.6-6.3 3.4-6.3 1.1 0 1.9.6 3.6 2.9a15 15 0 0 0 3.8 3.8 12 12 0 0 0 9.8-.4c3-1.9 4-3.8 4-8.7v-4.1l-1.8.3c-1 .2-4.4.5-7.7.7-6 .3-6 .3-6.5-1-.2-.7-.4-1.4-.2-1.6.2-.4-2.5-2.5-3.3-2.4-.6 0-1.8-2.2-1.9-3.4 0-1.3 1.8-2.6 4.4-3.4 2.2-.6 2.7-1.1 3.3-3.1.3-.8.7-1 3-.6 2.2.3 2.6.2 2.6-.5 0-.5-.3-1.1-.6-1.5-.4-.3-.6-1.4-.5-2.3.1-1.3.5-1.8 1.7-2.3 1.2-.4 1.6-.9 1.6-2 0-1.8 1.7-5.8 2.6-6.3.4-.3 1.6.5 3.1 2a21 21 0 0 0 4.6 3.4c2 .8 2.2 1.2 2.3 3 .3 3.5.5 3.7 2.2 2.5 1.9-1.3 2.9-1.4 3.8-.3.5.6 1.8.8 4.9.8 5 0 5.4.4 3.9 4.2-.5 1.3-1 2.9-1 3.4s-.3.9-.5.9-.3.8 0 1.8c.2 1.7 0 2-1.5 3-1 .5-2.6 1.1-3.8 1.3-1 .2-2.1.6-2.3.8-.1.3-.6.4-1 .2s-1.6 0-2.4.4c-1.4.5-1.6.9-1.6 2.9 0 5.6 8 10.7 13 8.2 3-1.6 6.1-5.7 6.1-8 0-.6.4-1.8.8-2.6.7-1.3 1.2-1.6 2.7-1.6 1.5 0 2.1.4 4 2.7 5.2 6.2 7.5 7.4 11.5 6.4s7.7-5.4 6.7-7.8c-.2-.6-.1-.8.2-.6.5.3 1.3-1.8 1.3-3.4 0-.3-2.9-.5-6.3-.5a41 41 0 0 1-8-.6c-1.7-.6-1.8-.8-1.5-2.4.2-1.6 0-2.2-2-4.5-3-3.4-3.2-5-.6-6.1 1-.4 2.5-.8 3.4-.8.9 0 1.7-.2 2-.5.1-.3.5-.4.8-.2.2.1.7-.4 1-1.1.8-1.6.8-1.6 3.7-.6l2.5.8c.2 0 .1-1.5 0-3.4-.5-3.6-.2-4.1 2-4.2.7 0 1.7-1 2.9-2.7 3.5-5.4 3.9-5.5 6-1.4 1.7 3 3 4.1 4.7 4.4 1.3.1 1.3.3 1.2 3.7-.1 2 0 3.6.2 3.6.3 0 1-.3 1.8-.8 1.5-.9 3.7-1 3.7-.2 0 1 2.2 2.6 3.6 2.6 2.4 0 5.5 1 5.8 2 .4 1-1 3.5-3.1 5.8-1.3 1.4-1.5 2-1.2 3.5.3 1.8.2 2-1.4 2.5-1 .3-4.5.6-8 .6h-6.3v2c0 2.8 2.2 7.2 4.3 8.7 1.5 1 2.5 1.3 5.3 1.3 4.2 0 6-1.1 8.9-5.5 1.8-2.8 2.1-3 4.2-3.2 2.2-.2 2.4 0 3.2 1.8l.8 2.4c-.2.9 2 5 3.2 6.2 2.7 2.5 8.2 3 11 1 3.2-2.4 6-7.5 5.2-9.6-.2-.4-1.6-1-3.4-1.4-8-1.5-10-2.6-9.4-5.3.2-1-.2-2.5-1.2-4.8-2-4.5-1.6-5 3.7-5.2 2.3 0 4-.4 4-.6s.5-.8 1-1c.8-.5 1.5-.3 3 .8 1 .8 2 1.3 2.2 1.1.1-.1 0-1-.2-2-.3-.8-.3-1.6 0-1.6s.5-.5.6-1.2c0-.9.6-1.3 2.3-1.6 1.8-.3 2.5-.9 3.6-2.5 2.6-4 4.7-3.3 6.7 2.1 1 2.5 1.4 3.3 2.5 3.5 1.1.3 1.3.6 1 1.8l-.6 3.1-.4 1.8 2.2-.3c2-.4 2.3-.3 2.6.6.6 2 1.1 2.5 2.6 2.5.9 0 1.7.2 1.8.4l2 1.2c2.8 1.4 2.7 2.1-.6 5.6-2 2.1-3 3.6-3 4.5 0 1.3-.1 1.4-2.2 1.4a75 75 0 0 1-7.3-.8c-5.7-.8-6.1-.7-6.6 2.1-1 5.1 3 10.6 8.2 11 4.1.2 4.7 0 8.8-3.8 4-3.7 6-4.6 7-3 .2.3.5 2.8.7 5.6.2 3.6.5 5.1 1.1 5.6.5.3.8.8.8 1 0 .3.6 1 1.4 1.6 1.1.9 1.7 1 2.4.6 1-.7 5-6.2 4.7-6.5-.1-.1.2-.7.8-1.2 1.5-1.6 1.2-2.3-2-4.8-3.6-2.7-4.5-4.3-3.2-5.8.8-.8 1-1.8.9-5v-4.4c0-.7 1.5-.4 5 1.1 1.4.6 2.7.8 4 .6 1.6-.4 2-.2 3.5 1.6l1.7 2 .6-2.1c.8-3 1.8-3.8 3.7-3 .8.2 2 .3 2.5 0 3-1.1 7.5-.1 10.2 2.4 1.6 1.5 1.5 2-.4 2-.8 0-1.6.2-1.6.5s-.2.5-.5.3c-.7-.4-4.7 1.6-6.5 3.3-1 1-1.8 1.3-2.8 1l-2.7-.7c-2-.5-4.2.7-5.8 3-2 3.1-2.2 4.7-.8 8l1.2 2.6-1.7 3c-.9 1.5-1.4 3-1.3 3.1.2.2.1.4-.2.4-.3 0-1.4 1.3-2.6 3a18.5 18.5 0 0 1-3.2 3.7c-3.5 2.3-11.4-2.4-15.4-9.2-.5-.8-.7-.8-2.5-.2l-2 1c0 .2-1.8.4-4.1.3-5.4 0-9.4-1.8-13-5.7l-2.5-2.7-3.4 1.8c-3 1.7-3.7 1.8-7.8 1.8a14 14 0 0 1-12-5l-2.5-2.6-3.7 2a14 14 0 0 1-7.4 2c-5 .4-7-.4-14-5.4-.6-.3-1.4 0-3 1.5a15.2 15.2 0 0 1-19.3 1.6l-3.1-1.9-3 2.8a26.6 26.6 0 0 1-5.8 4c-4 2-8.6 1.7-13.5-.8l-3.5-1.7-3 3c-4.2 4-7 5.3-12.3 5.4-3 0-4.6-.2-6-.9-2.1-1.1-3.2-.9-3.7.7-.6 1.8-4.6 5.7-7.2 7-3.5 1.8-6.3 2.2-7.9 1zm39.1-33c5.8-3.8 3-13-3.9-13-1.6 0-2.4.4-4.5 2.6-2.8 2.7-3.1 4-2 6.8a9 9 0 0 0 3.9 4.5c1.4.6 5 0 6.5-1zm112-.7c1-.9 1.7-2 1.8-2.6 0-.5.3-1.4.5-2 .3-.6.2-1-.1-1.2-.4-.1-.5-.7-.3-1.2.1-.7-.4-1.7-1.9-3.2-1.8-1.8-2.5-2.1-4.4-2.1-7.5 0-10 9.3-3.5 13.3 2.4 1.5 5.9 1 8-1zm-57.4-4.5c2.7-1.1 4-3 4-6.2 0-3-1.2-5-4.3-6.6-3.9-2.1-8.5.6-9.2 5.4-.3 1.6-.2 2.5.2 2.7.3 0 .4.4.3.8-.3.9 1.7 3.5 3.2 4 1.7.8 3.9.7 5.8-.1z"/><path id="path171" d="M346.8 270.3c-1.4-1-7-9.2-8-11.8-.6-1.4-.6-2 .4-3.8.6-1.2 1-3.1 1-4.3 0-4-4.5-7.5-8.7-6.7-1.4.2-2.5 0-5-1.3-1.7-.9-3.3-1.4-3.4-1.2s-.4 0-.4-.3-.9-.8-2-1.2l-2.7-.8c-1-.3 1-2.6 3.3-3.8 1.5-.8 6.7-1.3 6.7-.7 0 .7 1.8.9 3.1.3 1-.4 1.5-.3 2.4.8.7.7 1.3 1.9 1.3 2.6.2 1.8.7 2 1.4.8 1.3-2.1 3-3.6 3.7-3 .9 1 2 .8 5.5-.7 1.6-.8 3.3-1.3 3.7-1.1.6.2.8 1.5.8 5 0 2.7.2 4.9.5 5.2 1.1 1 0 2.8-3.4 5.3l-3.5 2.7c-.7.5 6.8 10.3 8 10.3.4 0 1.6-.9 2.6-1.9 1.8-1.8 1.9-2 2.1-7.2.3-5.7.6-6.3 3.4-6.3 1.1 0 1.9.6 3.6 2.9 2.6 3.6 4.4 4.6 8.5 4.6 2.6 0 3.7-.3 5.3-1.4 2.8-1.8 3.6-3.5 3.7-8.5v-4.2l-1.7.4c-1 .2-4.4.5-7.7.7-6 .3-6 .3-6.5-1-.2-.7-.4-1.4-.2-1.6s-.5-.9-1.4-1.5c-1-.6-1.6-1-1.6-.8 0 1-1.7-1.5-2-2.8-.3-1.9 1-3.1 4.2-4 2.2-.7 2.7-1.2 3.3-3.2.3-.8.7-1 3-.6 2.2.3 2.6.2 2.6-.5 0-.5-.3-1.1-.6-1.5-.4-.3-.6-1.4-.5-2.3.1-1.3.5-1.8 1.7-2.3 1.2-.4 1.6-.9 1.6-2 0-1.8 1.7-5.8 2.6-6.3.4-.3 1.6.5 3.1 2a21 21 0 0 0 4.6 3.4c2 .8 2.2 1.2 2.3 3 .3 3.5.5 3.7 2.2 2.5 1.9-1.3 2.9-1.4 3.8-.3.5.6 1.8.8 4.9.8 5 0 5.4.4 3.9 4.2-.5 1.3-1 2.9-1 3.4s-.3.9-.5.9-.3.8 0 1.8c.2 1.7 0 2-1.4 2.9a19 19 0 0 1-5 1.7c-5.8 1.1-6.2 1.4-6.2 4 0 5.6 8 10.7 13 8.2 3-1.6 6.1-5.7 6.1-8 0-.6.4-1.8.8-2.6.7-1.3 1.2-1.6 2.7-1.6 1.5 0 2.1.4 4 2.7 5.2 6.2 7.5 7.4 11.6 6.4 3.5-1 5.7-3.3 7-7.4 1.6-5.2 2-5-5.2-5-3.5 0-7.1-.2-8-.5-1.7-.6-1.8-.8-1.5-2.4.2-1.6 0-2.2-2-4.5-4-4.4-3-6.2 3.6-7.1 2-.3 2.6-.7 3.1-1.7.7-1.5 1.2-1.5 3.8-.5 1 .5 2 .8 2.3.8V215c-.5-3.6-.2-4.1 2-4.2.7 0 1.7-1 2.9-2.7 3.5-5.4 3.9-5.5 6-1.4 1.7 3 3 4.1 4.7 4.4 1.3.1 1.3.3 1.2 3.7-.1 2 0 3.6.2 3.6.3 0 1-.3 1.8-.8 2-1.1 3.5-1 4.1.5.7 1.4 1.3 1.7 5 2.2 5 .6 5.3 2.5 1.5 6.8-1.9 2.2-2.1 2.7-1.8 4.3.3 1.7.2 1.8-1.4 2.4-1 .3-4.5.6-8 .6h-6.3v2c0 2.8 2.2 7.2 4.3 8.7 1.5 1 2.5 1.3 5.3 1.3 4.2 0 6-1.1 8.9-5.5 1.8-2.8 2.1-3 4.2-3.2 2.2-.2 2.3 0 3.2 1.8l.8 2.4c-.2.9 2 5 3.2 6.2 2.7 2.5 8.2 3 11 1 3.2-2.4 6-7.5 5.2-9.6-.2-.4-1.6-1-3.4-1.4-8-1.5-10-2.6-9.4-5.3.2-1-.2-2.5-1.2-4.8-2-4.5-1.6-5 3.7-5.2 2.3 0 4-.4 4-.6s.5-.8 1-1c.8-.5 1.5-.3 3 .8 1 .8 2 1.3 2.2 1.1.1-.1 0-1-.2-2-.3-.8-.3-1.6 0-1.6s.5-.5.6-1.2c0-.7.6-1.3 1.2-1.3 2.8-.5 3.4-.8 4.7-2.8 2.6-4 4.7-3.3 6.7 2.1 1 2.5 1.4 3.3 2.5 3.5 1.1.3 1.3.6 1 1.8l-.6 3.1-.4 1.8 2.2-.3c2-.4 2.3-.3 2.6.6.6 2 1.1 2.5 2.6 2.5.9 0 1.7.2 1.8.4l2 1.2c2.8 1.4 2.8 2.2-.3 5.3-2.5 2.6-3 3.5-3.2 5.5 0 .9-3.3.9-9.6 0-5.7-1-6.1-.8-6.6 2-1 5.1 3 10.6 8.2 11 4.1.2 4.7 0 8.8-3.8 4-3.7 6-4.6 7-3 .2.3.5 2.8.7 5.5.2 4.2.5 5 1.7 6.7 1.8 2.4 3.3 2.9 4.7 1.6a44 44 0 0 0 5.8-9 11 11 0 0 0-3-2.9c-3.6-2.7-4.5-4.3-3.2-5.8.8-.8 1-1.8.9-5v-4.4c0-.7 1.5-.4 5 1.1 1.4.6 2.7.8 4 .6 1.6-.4 2-.2 3.5 1.6l1.7 2 .6-2.1c.8-3 1.8-3.8 3.7-3 .8.2 2 .3 2.5 0a11 11 0 0 1 10.6 2.7c1.2 1.4 1.1 1.5-1.4 1.9-2.5.4-6.7 2.5-8 4-1.3 1.3-2 1.4-4.4.5-3.4-1.2-7 1.1-8.3 5.3-.6 2-.5 2.5.5 5.2l1.2 2.9-1.8 3.3c-3 5.2-6.6 10-8 10.3-3.3.8-10-3-13-7.5-2-2.9-2-3-6.5-1.6a16.5 16.5 0 0 1-16.6-5.2l-2.5-2.7-3.4 1.8c-3 1.7-3.7 1.8-7.8 1.8a14 14 0 0 1-12-5l-2.5-2.6-3.7 2a14 14 0 0 1-7.4 2c-5 .4-7-.4-14-5.4-.6-.3-1.4 0-3 1.5a15.2 15.2 0 0 1-19.3 1.6l-3.1-1.9-3 2.8a26.6 26.6 0 0 1-5.8 4c-4 2-8.6 1.7-13.5-.8l-3.5-1.7-3 3c-4.2 4-7 5.3-12.3 5.4-3 0-4.6-.2-6-.9-2.1-1.1-3.2-.9-3.7.7-.6 1.8-4.6 5.7-7.2 7-3.5 1.8-6.3 2.2-7.9 1zm39.1-33c5.8-3.8 3-13-3.9-13-1.6 0-2.4.4-4.5 2.6-2.8 2.7-3.1 4-2 6.8a9 9 0 0 0 3.9 4.5c1.4.6 5 0 6.5-1zm112-.7c1-.9 1.7-2 1.8-2.6 0-.5.3-1.4.5-2 .3-.6.2-1-.1-1.2-.4-.1-.5-.7-.3-1.2.1-.7-.4-1.7-1.9-3.2-1.8-1.8-2.5-2.1-4.4-2.1-7.5 0-10 9.3-3.5 13.3 2.4 1.5 5.9 1 8-1zm-57.4-4.5c2.8-1.2 3.8-2.7 3.9-6 .1-2.7 0-3.1-1.6-4.7-3.6-3.5-6.9-3.8-9.9-.8-1.7 1.7-2.9 6.4-1.7 6.8.3 0 .4.4.3.8-.3.9 1.7 3.5 3.2 4 1.7.8 3.9.7 5.8-.1z"/></g><g id="g174" fill="#04a"><path id="path172" d="m393.9 430-6.6-7.4 13.1 14c.3.5.4.8.2.8l-6.7-7.4z"/><path id="path173" d="M346 309.6z"/><path id="path174" d="M345.8 309z"/></g><path id="path175" fill="#00a" d="m579.6 378.1.1-30.7v-19.2l.1 30.7-.1 30.8-.1-11.6z"/></g><!-- app4joy --></svg>