<svg xmlns="http://www.w3.org/2000/svg" id="svg153" width="650" height="500" version="1.0" viewBox="0 0 650 500"><g id="g154"><path id="rect1" fill="#da121a" d="M0 0h650v500H0z"/><path id="rect2" fill="#fff" d="M0 250h325v250H0z"/><path id="rect3" fill="#fff" d="M325 0h325v250H325z"/></g><g id="lion" transform="translate(-837 -1383.4) scale(.9439)"><path id="path3" d="M1027.3 1822.8c-4.5-6.3-14-10.6-11.4-19.7-1.3 0-.8-9-1-9.8l-5.6-3.3.3 5.9-8.7-1.9-.1 8.7-2.4 3 3 6c.1 0 .1 1.8 4 1.7 0 0-.7 2 1.9 5.5-.9 6.7 4.3 9.7 7.2 14.5 3-3.8 5.2-8 12.8-10.6z" style="fill:#742c64;stroke:#192e2e"/><path id="path4" d="M1064.6 1772.8c-3.8-3.2-12.3 2.1-6.5 4-1.2 1.1-.7 2.3 0 3.5l8.8 4.8c-1.2 2-.9 4 1.7 6.3-1 3.1-3.3 2.4-6.2-.7h-5.1c-3.8 1.8-2.7 3.6-1 5.3-3.7 3.9-.6 7.6 4.1 2.5l3.2 3c-.6 6.6-16.9 9.5-10.7.9-9.5-3.4-8.5 4-4.6 10-5 .5-15.5 3-8.7-5.2-11.3 1.1-10.7 9.6-2.7 13.8-7.8 1.5-15.9 1.2-22.5 13-6.7 6-9.7 0-8.6 1.7 2 3 6 10 11.4 1.8-1.8 20-8.2 20.3-8.9 19-.6-1.5 2.4 11 9.4-1.9 4.7 13.5-1 11.5-2.4 12-1.5.7 2.6 7.2 10.1-1.5l5.7-7.5c-7.5 7.2-11.3 24.9-23.3 20.6l-3.5 1.7 1.3 4.4 6 2.4c-5.5-1-8.4 0-7.3 4.3 2.6 4.9 7.1 10.7 7 1.2-.1 6.2 2.9 7.5 5.8 9 4 .8 3.7-6 1-6-.1-3.7 1-6.2 4.3-6.7 3.3 3.8 4.1-.6 5.4-3.2 4.5.5 4.1-1 5-5.3l8.8-2.8c6.5 10.3 18.4 10.5 31 9.5 3.5 1.5 4.3 3 4 4.6-21 8.4-14-11.3-42.3 6.3-1 .3-2 .7-2.9-.8-1.1 2.2-2.3 4 1.5 6.7 1.4 4.2.5 7.7-5.1 9.6 3.8 7.1 7 4.9 10-1.7.8 4.9 4.7 10.5-.7 13.8 2.5 2 5 3.6 7.2.4l-.1 4.9c-14 10.8-14-6.3-16.9-2.9-.8 1.9-1 4.7-3.5 4-5.8 3.3 2.7 5.2 4.5 7.8l-6.9-4.5-3.6.2c.5 1.5 1 3-.2 4.1.2 3-.2 6.4 6 6.5 2.3 1.6 4.4 3.2 4.5 5.6 9.4-.7 8.4-4 11.3-6.3 1.5 7.6 4.7-3.7 7.1-5.9 1.5.6 1.8 3.3 1.1 5.2 4.2-5.8 9.8-12.9 11.8-19.6-1.9-1.4-2.7-3-3.6-6.1-4-12.4 7.2-14.8 21.3-17.8-6.7 5.4-16.7 16.8-10.5 25.8.5 3.1 1.3 6.4-1.7 7.5 3.5 2.5 5.2-1.8 6-4.5 2.1 3.5 9.4 9.2 8.7 13.5.9 1 6.6-2 4.5-7.3 4.4-.8 6.4-2 13-4.2 6 1 13.8 18.5-.2 12.4-1.8-1.5-4-2.1-7.3-.1.6 1.2.6 3-.2 5 0 5.1 7.6-.8 9.2-.5-12.4 4-5.3 1.6-3.8 8.6 3.1 4.6 5.3-2 12.8-6.3l-2.3 2.1.3 8.4c10.4.6 9-10.1 12.5-15.2.9-1.2 2.7-2 3.7-2.8-5.4-.3-10.2-8.3-5.7-12-3.3-3-10.2-5.6-6.4-10.1-5.4-4.7-4.5-6.6-13.6-.7-3.5-2.3-8-4.8-5.3-8.1 7.8-5.6 8.2-11.8 11-17.8 47.4-17.2-24.9-69.2 6.9-72.6.6 5.4-.6 10.9 1.6 16.2 3.7 1.5 6.3 2.2 7.6 5.7l2.7 6.8c-.2-4 2.1-8.7-.3-11.7-2.8-3.4-2.2-6-2.2-8.4 1.7-4.3-.3-6-.7-8-7.2-8.2-10.2-6.4-13.2-5.2-10.5 4.4-10.9 17.6-3.7 28 15.2 22.1 22 41 .1 42.7-6.1-8-22.2-8-26.2-38.6.4-3.7 3-3.7 5-4.5l3-2.3c-8.3-5.1 2.1-20.8 9.4-12-.4-6.2-.9-16.4 2.5-21.7.7-1.4 2.6.8 4 1.7-2-2.3-2.9-16.3 4.8-11.4 2.7-.7 2.4-3.5 1.9-2.6-1.3 2.2-5.3-.6-5.6-8.4-3-6.2-8.7-13.1-13-16.4-3.7-.5-7.1-2.3-11.6 1.3h-3.7l-1.5 1.2c-.3-1.6-2.5-1.7-5-1.5z" style="fill:#742c64;stroke:#192e2e"/><path id="path5" d="M1000.9 1802.5c4 1.5 6.8 3.8 8.6 7" style="fill:none;stroke:#192e2e"/><path id="path6" d="M1009.4 1795.9c-.1 2.7-1.7 5.3 1.2 8" style="fill:none;stroke:#192e2e"/><path id="path7" d="M1076.4 1774.1s3.3 3.5 3.6 9.2" style="fill:none;stroke:#192e2e"/><path id="path8" d="M1076.9 1775.5s-7.6 6 2.6 6.2c1.3-2.3-2.6-6.2-2.6-6.2z" style="fill:#e7e7e7;stroke:#192e2e"/><path id="path9" d="M1059.2 1775a4 4 0 0 0 2.8 3.3" style="fill:none;stroke:#192e2e"/><path id="path10" d="M1089.2 1789.6s4.5 3.2 1.9 7.5" style="fill:none;stroke:#192e2e"/><path id="path11" d="M1071.3 1786c.2 2 3.4 5.7 6 6.7" style="fill:none;stroke:#192e2e"/><path id="path12" d="M1068.4 1819.8c-3.2 6.4 1.1 5.4 3.4 4.6 1.6-.6 1.4 7.6-8 4.6-4.2-3-2.7-8.2-.3-11" style="fill:none;stroke:#192e2e"/><path id="path13" d="M1063.4 1828.7c-.8 9-5 20.6-14.4 11.8 9 1 4.5-10.8 5.6-17.4 0 0-3.6 11.8-12.2 10.7-7.2-1-4.1-8.2-4.2-8.1 0 0 6.4 4 8-.7 1.8-5.2 5.3-9.8 5.3-9.8" style="fill:none;stroke:#192e2e"/><path id="path14" d="M1077.8 1821.1c1 3.3.8 6-2 7.9" style="fill:none;stroke:#192e2e"/><path id="path15" d="M1029.5 1836.3s-5.4 9.6-.5 11.8" style="fill:none;stroke:#192e2e"/><path id="path16" d="M1043.9 1844.3s-.9 8.6 1.6 9c2.5.3-7 2.8-7.1-10" style="fill:none;stroke:#192e2e"/><path id="path17" d="M1114.4 1835.8c.9 1.3.5 3.5 0 3.8" style="fill:none;stroke:#192e2e"/><path id="path18" d="M1076.7 1891.3c3 2.8 0 4.8-.9 5.5" style="fill:none;stroke:#192e2e"/><path id="path19" d="M1073.2 1840.8c0 2 0 4.1 3.5 4.8" style="fill:none;stroke:#192e2e"/><path id="path20" d="M1061.9 1789.7s-3-4.8-11.5-.6c-8.5 4.1-11-2-11-4.8 0-2.9 4.3-3.5 4.3-3.5s-1.8 7.1 6.8 5c8.7-2.2 12 1.3 12 1.3l2.5 5.4z" style="fill:#da121a;stroke:#192e2e"/><path id="path21" d="M1078.4 1777c-.2 0-3.6 3 1.2 2.7" style="fill:#192e2e;stroke:#192e2e"/><path id="path22" d="M1040.2 1877.2c8-3.3 9.5-8.7 7.5-15" style="fill:none;stroke:#192e2e"/><path id="path23" d="m1013 1899.1 4.8 2" style="fill:none;stroke:#192e2e"/><path id="path24" d="M1023.9 1931.6c2.2.3 3.3-1.4 4.2-3.3" style="fill:none;stroke:#192e2e"/><path id="path25" d="M1017.3 1935.3c.7 1.2 2.2 1.9.5 4.3" style="fill:none;stroke:#192e2e"/><path id="path26" d="M1089 1943.8c1.8 1.3 2.1 3 .9 5.2" style="fill:none;stroke:#192e2e"/><path id="path27" d="M1091.8 1952c3.9 1.9 3 3.7 3 5.4" style="fill:none;stroke:#192e2e"/><path id="path28" d="M1106.5 1956.5c2.7-.1 3.6 1.2 4.6 2.4" style="fill:none;stroke:#192e2e"/><path id="path29" d="m1102 1777-2.7.2s-2.7 2-1.4 4c1.4 2 2.4 1.3 3.2.2.7-1 .8-2.5.8-2.5l5.7 1.1-2.5 4.5c-1.3-.2-2.3-1-2.9-.6.2 0-3.8.4-2.3 1.9s6.8.4 6.8.4l2.2 4.8c0-.6-7.7-3-9.3-1.7a66.7 66.7 0 0 0-13.1-17.3l1.5-9 3.4 3.8s-1 1.3-2 2c-.9.8-1.1 2.4.1 2.8 1 .3 2.3.4 2.8-.2.8-1 .7-3 .7-3l3.8-1 .4 4.5-3 .8s-.9 1.2.3 2.8c1.3 1.8 2.9 1.5 3.3.5.4-1 .5-2.3.5-2.3s3.5-.8 4.2-1.3c0 .9-.7 4.8-.5 4.6z" style="fill:#fcdd09;stroke:#192e2e"/><path id="path30" d="M1005 1880.2c-.3-.2-2.7.6-3.7 1.9-.4.5 1.4 1.1 4 2.1 1.3-2 1.5-2.5-.3-4z" style="fill:#da121a;stroke:#192e2e"/><path id="path31" d="m1004.5 1890.3-2 4.8 5 .4c1.4 0-1.2-6.3-3-5.2z" style="fill:#da121a;stroke:#192e2e"/><path id="path32" d="M1013.3 1899.1v4.9l3.8-3c-.6-2.6-2.2-2.3-3.8-1.9z" style="fill:#da121a;stroke:#192e2e"/><path id="path33" d="M1024.1 1931.6s4-1.1 4-3.5c0-3.8.7 1.3-3.4-.9-3.6-2-.8 4.7-.6 4.4z" style="fill:#da121a;stroke:#192e2e"/><path id="path34" d="M1017.2 1939.8c2-1.3.9-2.8 1-4.2-2.2.7-4.4 1.5-4.9 3.6 1.4.4 2.7 1 3.9.6z" style="fill:#da121a;stroke:#192e2e"/><path id="path35" d="M1024.6 1946.7c2.4 1.3 2.7 2.8 3.3 4.2l-4.5.9z" style="fill:#da121a;stroke:#192e2e"/><path id="path36" d="M1089.6 1944c1.3.5 2 5.5 0 5.2a26 26 0 0 1-3.3-.7s2.6-5.9 3.3-4.5z" style="fill:#da121a;stroke:#192e2e"/><path id="path37" d="M1092.4 1952.3c0-1.4 4.6 3.3 3 5.3-1.1 1.4-7.2-1.8-7.2-1.8z" style="fill:#da121a;stroke:#192e2e"/><path id="path38" d="M1105.5 1956c0-.6 6.5 1.2 6.3 3.3-.2 1.5-6.2 2.2-6.2 2.2z" style="fill:#da121a;stroke:#192e2e"/><path id="path39" d="M1010.2 1795.7s2.3.8 4-2.6l-4.8-2.6z" style="fill:#da121a;stroke:#192e2e"/><path id="path40" d="M1001.2 1798.7c4 .3 3.9-1.6 4.3-3.6l-4.8-1z" style="fill:#da121a;stroke:#192e2e"/><path id="path41" d="m998.3 1805.5-3 4.7 5.9.9c-.4-1.7.1-3-2.9-5.6z" style="fill:#da121a;stroke:#192e2e"/><path id="path42" d="M1085.1 1799c1.5 2.2 1 4.4 0 6.5 0 0-6.5 5.8.2 7.8 0 0-6.7 3.2-8-6.6 0 0-6.5 10-12.6 2.2 0 0 5.7-.4 6-5.5" style="fill:none;stroke:#121f1f"/><path id="path43" d="M1025.2 1865.3s-1.4-10.1 2.5-10.5" style="fill:none;stroke:#121f1f"/><path id="path44" d="M1024 1945.8s1.2-1.3 1.9-1.3" style="fill:#da121a;stroke:#000000"/></g><g id="lion-7" transform="translate(-512.1 -1633) scale(.9439)"><path id="path3-5" d="M1027.3 1822.8c-4.5-6.3-14-10.6-11.4-19.7-1.3 0-.8-9-1-9.8l-5.6-3.3.3 5.9-8.7-1.9-.1 8.7-2.4 3 3 6c.1 0 .1 1.8 4 1.7 0 0-.7 2 1.9 5.5-.9 6.7 4.3 9.7 7.2 14.5 3-3.8 5.2-8 12.8-10.6z" style="fill:#742c64;stroke:#192e2e"/><path id="path4-3" d="M1064.6 1772.8c-3.8-3.2-12.3 2.1-6.5 4-1.2 1.1-.7 2.3 0 3.5l8.8 4.8c-1.2 2-.9 4 1.7 6.3-1 3.1-3.3 2.4-6.2-.7h-5.1c-3.8 1.8-2.7 3.6-1 5.3-3.7 3.9-.6 7.6 4.1 2.5l3.2 3c-.6 6.6-16.9 9.5-10.7.9-9.5-3.4-8.5 4-4.6 10-5 .5-15.5 3-8.7-5.2-11.3 1.1-10.7 9.6-2.7 13.8-7.8 1.5-15.9 1.2-22.5 13-6.7 6-9.7 0-8.6 1.7 2 3 6 10 11.4 1.8-1.8 20-8.2 20.3-8.9 19-.6-1.5 2.4 11 9.4-1.9 4.7 13.5-1 11.5-2.4 12-1.5.7 2.6 7.2 10.1-1.5l5.7-7.5c-7.5 7.2-11.3 24.9-23.3 20.6l-3.5 1.7 1.3 4.4 6 2.4c-5.5-1-8.4 0-7.3 4.3 2.6 4.9 7.1 10.7 7 1.2-.1 6.2 2.9 7.5 5.8 9 4 .8 3.7-6 1-6-.1-3.7 1-6.2 4.3-6.7 3.3 3.8 4.1-.6 5.4-3.2 4.5.5 4.1-1 5-5.3l8.8-2.8c6.5 10.3 18.4 10.5 31 9.5 3.5 1.5 4.3 3 4 4.6-21 8.4-14-11.3-42.3 6.3-1 .3-2 .7-2.9-.8-1.1 2.2-2.3 4 1.5 6.7 1.4 4.2.5 7.7-5.1 9.6 3.8 7.1 7 4.9 10-1.7.8 4.9 4.7 10.5-.7 13.8 2.5 2 5 3.6 7.2.4l-.1 4.9c-14 10.8-14-6.3-16.9-2.9-.8 1.9-1 4.7-3.5 4-5.8 3.3 2.7 5.2 4.5 7.8l-6.9-4.5-3.6.2c.5 1.5 1 3-.2 4.1.2 3-.2 6.4 6 6.5 2.3 1.6 4.4 3.2 4.5 5.6 9.4-.7 8.4-4 11.3-6.3 1.5 7.6 4.7-3.7 7.1-5.9 1.5.6 1.8 3.3 1.1 5.2 4.2-5.8 9.8-12.9 11.8-19.6-1.9-1.4-2.7-3-3.6-6.1-4-12.4 7.2-14.8 21.3-17.8-6.7 5.4-16.7 16.8-10.5 25.8.5 3.1 1.3 6.4-1.7 7.5 3.5 2.5 5.2-1.8 6-4.5 2.1 3.5 9.4 9.2 8.7 13.5.9 1 6.6-2 4.5-7.3 4.4-.8 6.4-2 13-4.2 6 1 13.8 18.5-.2 12.4-1.8-1.5-4-2.1-7.3-.1.6 1.2.6 3-.2 5 0 5.1 7.6-.8 9.2-.5-12.4 4-5.3 1.6-3.8 8.6 3.1 4.6 5.3-2 12.8-6.3l-2.3 2.1.3 8.4c10.4.6 9-10.1 12.5-15.2.9-1.2 2.7-2 3.7-2.8-5.4-.3-10.2-8.3-5.7-12-3.3-3-10.2-5.6-6.4-10.1-5.4-4.7-4.5-6.6-13.6-.7-3.5-2.3-8-4.8-5.3-8.1 7.8-5.6 8.2-11.8 11-17.8 47.4-17.2-24.9-69.2 6.9-72.6.6 5.4-.6 10.9 1.6 16.2 3.7 1.5 6.3 2.2 7.6 5.7l2.7 6.8c-.2-4 2.1-8.7-.3-11.7-2.8-3.4-2.2-6-2.2-8.4 1.7-4.3-.3-6-.7-8-7.2-8.2-10.2-6.4-13.2-5.2-10.5 4.4-10.9 17.6-3.7 28 15.2 22.1 22 41 .1 42.7-6.1-8-22.2-8-26.2-38.6.4-3.7 3-3.7 5-4.5l3-2.3c-8.3-5.1 2.1-20.8 9.4-12-.4-6.2-.9-16.4 2.5-21.7.7-1.4 2.6.8 4 1.7-2-2.3-2.9-16.3 4.8-11.4 2.7-.7 2.4-3.5 1.9-2.6-1.3 2.2-5.3-.6-5.6-8.4-3-6.2-8.7-13.1-13-16.4-3.7-.5-7.1-2.3-11.6 1.3h-3.7l-1.5 1.2c-.3-1.6-2.5-1.7-5-1.5z" style="fill:#742c64;stroke:#192e2e"/><path id="path5-5" d="M1000.9 1802.5c4 1.5 6.8 3.8 8.6 7" style="fill:none;stroke:#192e2e"/><path id="path6-6" d="M1009.4 1795.9c-.1 2.7-1.7 5.3 1.2 8" style="fill:none;stroke:#192e2e"/><path id="path7-2" d="M1076.4 1774.1s3.3 3.5 3.6 9.2" style="fill:none;stroke:#192e2e"/><path id="path8-9" d="M1076.9 1775.5s-7.6 6 2.6 6.2c1.3-2.3-2.6-6.2-2.6-6.2z" style="fill:#e7e7e7;stroke:#192e2e"/><path id="path9-1" d="M1059.2 1775a4 4 0 0 0 2.8 3.3" style="fill:none;stroke:#192e2e"/><path id="path10-2" d="M1089.2 1789.6s4.5 3.2 1.9 7.5" style="fill:none;stroke:#192e2e"/><path id="path11-7" d="M1071.3 1786c.2 2 3.4 5.7 6 6.7" style="fill:none;stroke:#192e2e"/><path id="path12-0" d="M1068.4 1819.8c-3.2 6.4 1.1 5.4 3.4 4.6 1.6-.6 1.4 7.6-8 4.6-4.2-3-2.7-8.2-.3-11" style="fill:none;stroke:#192e2e"/><path id="path13-9" d="M1063.4 1828.7c-.8 9-5 20.6-14.4 11.8 9 1 4.5-10.8 5.6-17.4 0 0-3.6 11.8-12.2 10.7-7.2-1-4.1-8.2-4.2-8.1 0 0 6.4 4 8-.7 1.8-5.2 5.3-9.8 5.3-9.8" style="fill:none;stroke:#192e2e"/><path id="path14-3" d="M1077.8 1821.1c1 3.3.8 6-2 7.9" style="fill:none;stroke:#192e2e"/><path id="path15-6" d="M1029.5 1836.3s-5.4 9.6-.5 11.8" style="fill:none;stroke:#192e2e"/><path id="path16-0" d="M1043.9 1844.3s-.9 8.6 1.6 9c2.5.3-7 2.8-7.1-10" style="fill:none;stroke:#192e2e"/><path id="path17-6" d="M1114.4 1835.8c.9 1.3.5 3.5 0 3.8" style="fill:none;stroke:#192e2e"/><path id="path18-2" d="M1076.7 1891.3c3 2.8 0 4.8-.9 5.5" style="fill:none;stroke:#192e2e"/><path id="path19-6" d="M1073.2 1840.8c0 2 0 4.1 3.5 4.8" style="fill:none;stroke:#192e2e"/><path id="path20-1" d="M1061.9 1789.7s-3-4.8-11.5-.6c-8.5 4.1-11-2-11-4.8 0-2.9 4.3-3.5 4.3-3.5s-1.8 7.1 6.8 5c8.7-2.2 12 1.3 12 1.3l2.5 5.4z" style="fill:#da121a;stroke:#192e2e"/><path id="path21-8" d="M1078.4 1777c-.2 0-3.6 3 1.2 2.7" style="fill:#192e2e;stroke:#192e2e"/><path id="path22-7" d="M1040.2 1877.2c8-3.3 9.5-8.7 7.5-15" style="fill:none;stroke:#192e2e"/><path id="path23-9" d="m1013 1899.1 4.8 2" style="fill:none;stroke:#192e2e"/><path id="path24-2" d="M1023.9 1931.6c2.2.3 3.3-1.4 4.2-3.3" style="fill:none;stroke:#192e2e"/><path id="path25-0" d="M1017.3 1935.3c.7 1.2 2.2 1.9.5 4.3" style="fill:none;stroke:#192e2e"/><path id="path26-2" d="M1089 1943.8c1.8 1.3 2.1 3 .9 5.2" style="fill:none;stroke:#192e2e"/><path id="path27-3" d="M1091.8 1952c3.9 1.9 3 3.7 3 5.4" style="fill:none;stroke:#192e2e"/><path id="path28-7" d="M1106.5 1956.5c2.7-.1 3.6 1.2 4.6 2.4" style="fill:none;stroke:#192e2e"/><path id="path29-5" d="m1102 1777-2.7.2s-2.7 2-1.4 4c1.4 2 2.4 1.3 3.2.2.7-1 .8-2.5.8-2.5l5.7 1.1-2.5 4.5c-1.3-.2-2.3-1-2.9-.6.2 0-3.8.4-2.3 1.9s6.8.4 6.8.4l2.2 4.8c0-.6-7.7-3-9.3-1.7a66.7 66.7 0 0 0-13.1-17.3l1.5-9 3.4 3.8s-1 1.3-2 2c-.9.8-1.1 2.4.1 2.8 1 .3 2.3.4 2.8-.2.8-1 .7-3 .7-3l3.8-1 .4 4.5-3 .8s-.9 1.2.3 2.8c1.3 1.8 2.9 1.5 3.3.5.4-1 .5-2.3.5-2.3s3.5-.8 4.2-1.3c0 .9-.7 4.8-.5 4.6z" style="fill:#fcdd09;stroke:#192e2e"/><path id="path30-9" d="M1005 1880.2c-.3-.2-2.7.6-3.7 1.9-.4.5 1.4 1.1 4 2.1 1.3-2 1.5-2.5-.3-4z" style="fill:#da121a;stroke:#192e2e"/><path id="path31-2" d="m1004.5 1890.3-2 4.8 5 .4c1.4 0-1.2-6.3-3-5.2z" style="fill:#da121a;stroke:#192e2e"/><path id="path32-2" d="M1013.3 1899.1v4.9l3.8-3c-.6-2.6-2.2-2.3-3.8-1.9z" style="fill:#da121a;stroke:#192e2e"/><path id="path33-8" d="M1024.1 1931.6s4-1.1 4-3.5c0-3.8.7 1.3-3.4-.9-3.6-2-.8 4.7-.6 4.4z" style="fill:#da121a;stroke:#192e2e"/><path id="path34-9" d="M1017.2 1939.8c2-1.3.9-2.8 1-4.2-2.2.7-4.4 1.5-4.9 3.6 1.4.4 2.7 1 3.9.6z" style="fill:#da121a;stroke:#192e2e"/><path id="path35-7" d="M1024.6 1946.7c2.4 1.3 2.7 2.8 3.3 4.2l-4.5.9z" style="fill:#da121a;stroke:#192e2e"/><path id="path36-3" d="M1089.6 1944c1.3.5 2 5.5 0 5.2a26 26 0 0 1-3.3-.7s2.6-5.9 3.3-4.5z" style="fill:#da121a;stroke:#192e2e"/><path id="path37-6" d="M1092.4 1952.3c0-1.4 4.6 3.3 3 5.3-1.1 1.4-7.2-1.8-7.2-1.8z" style="fill:#da121a;stroke:#192e2e"/><path id="path38-1" d="M1105.5 1956c0-.6 6.5 1.2 6.3 3.3-.2 1.5-6.2 2.2-6.2 2.2z" style="fill:#da121a;stroke:#192e2e"/><path id="path39-2" d="M1010.2 1795.7s2.3.8 4-2.6l-4.8-2.6z" style="fill:#da121a;stroke:#192e2e"/><path id="path40-9" d="M1001.2 1798.7c4 .3 3.9-1.6 4.3-3.6l-4.8-1z" style="fill:#da121a;stroke:#192e2e"/><path id="path41-3" d="m998.3 1805.5-3 4.7 5.9.9c-.4-1.7.1-3-2.9-5.6z" style="fill:#da121a;stroke:#192e2e"/><path id="path42-1" d="M1085.1 1799c1.5 2.2 1 4.4 0 6.5 0 0-6.5 5.8.2 7.8 0 0-6.7 3.2-8-6.6 0 0-6.5 10-12.6 2.2 0 0 5.7-.4 6-5.5" style="fill:none;stroke:#121f1f"/><path id="path43-9" d="M1025.2 1865.3s-1.4-10.1 2.5-10.5" style="fill:none;stroke:#121f1f"/><path id="path44-4" d="M1024 1945.8s1.2-1.3 1.9-1.3" style="fill:#da121a;stroke:#000000"/></g><g id="castle" transform="translate(-836.1 -1405) scale(.9439)"><path id="path45" d="m1041.8 1521.3 31.3.1 6.2 5.5v15l-3.4 2.5-.1 34.4h8.2l.3-17.7-2.3-3.3V1547l4.3-5.3h18.3l4.7 5.5v10.5l-2.7 4.3v21.7l11.8 6.3-.2 16.2-3.8 6v64.4l10 8.6.2 20.8-20.3 13.4H1011l-20.3-13.3v-20.9l9.5-7.6.4-65.2-3.6-6v-16.2l11.2-6.8.1-21.8-3.6-3.7-.2-10.3 5-5.8h19l4.7 5.3v11l-2.8 3.5v17.6l9.2-.1-.2-34.1-3.6-3.4-.3-14z" style="fill:#fcdd09;stroke:#000000"/><path id="path46" d="m1042.3 1719 .2-34.6s14-22.9 30.2.2l.5 34.7" style="fill:none;stroke:#000000"/><path id="path47" d="m990.9 1685.4 20.1 8.2 31.4.1" style="fill:none;stroke:#000000"/><path id="path48" d="m1124 1685.5-20.1 8-31 .3" style="fill:none;stroke:#000000"/><path id="path49" d="m990.8 1692.5 20 9.3h31.3" style="fill:none;stroke:#000000"/><path id="path50" d="m990.6 1699.2 20 11.3 31.2.2" style="fill:none;stroke:#000000"/><path id="path51" d="m1001 1689.6-.3 7.4" style="fill:none;stroke:#000000"/><path id="path52" d="m995.9 1694.8-.2 7.4" style="fill:none;stroke:#000000"/><path id="path53" d="M1005.8 1699v8.5" style="fill:none;stroke:#000000"/><path id="path54" d="m1001 1704.8-.1 7.8" style="fill:none;stroke:#000000"/><path id="path55" d="m997.1 1606.8 18.3-7.3 83.5-.1 19.1 6.8" style="fill:none;stroke:#000000"/><path id="path56" d="m1000.7 1612.3 18.7-5.7 76.7.2 18.3 5.4" style="fill:none;stroke:#000000"/><path id="path57" d="m1000.4 1622.9 18.7-4 77.1.2 18 4" style="fill:none;stroke:#000000"/><path id="path58" d="m1000.6 1634.5 19-2.4h75.7l19 2.3" style="fill:none;stroke:#000000"/><path id="path59" d="m1000 1644.2 19.3 1.5h76.1l19.5-1.5" style="fill:none;stroke:#000000"/><path id="path60" d="m1000.6 1655.3 18.8 3.1 76.5.1 18.5-2.7" style="fill:none;stroke:#000000"/><path id="path61" d="m1000.4 1666.7 19.5 4.2h75.5l19-4.7" style="fill:none;stroke:#000000"/><path id="path62" d="m1000.4 1677.3 18.9 5.8h23.7" style="fill:none;stroke:#000000"/><path id="path63" d="M1071.7 1682.9h23.8l19.5-6.6" style="fill:none;stroke:#000000"/><path id="path64" d="m1008.8 1583 7-4.2" style="fill:none;stroke:#000000"/><path id="path65" d="m1005.2 1557.4 3.9-3.7h18.7l5.2 4.2" style="fill:none;stroke:#000000"/><path id="path66" d="m1008.3 1568.6 4.2-3.2h13.2l4.8 3.4" style="fill:none;stroke:#000000"/><path id="path67" d="m1008.6 1575.9 5.2-4h11.8l5.2 4.3" style="fill:none;stroke:#000000"/><path id="path68" d="m1106 1583.2-6.7-4" style="fill:none;stroke:#000000"/><path id="path69" d="m1041.8 1521.6.3 16 2.7 4.3v36.9" style="fill:none;stroke:#000000"/><path id="path70" d="m1073.1 1521.5-.2 16-2.8 4.3v36.9" style="fill:none;stroke:#000000"/><path id="path71" d="m1036 1541.6 5.6-4.2 31.2.3 6.3 4.3" style="fill:none;stroke:#000000"/><path id="path72" d="m1039.6 1544.9 4.8-2.8 25.8.2 5.6 2.8" style="fill:none;stroke:#000000"/><path id="path73" d="m1039.6 1554.6 4.9-3.1 25.4.3 5.8 3" style="fill:none;stroke:#000000"/><path id="path74" d="m1039.3 1563.4 5.4-2.9 25.3.3 5.7 3" style="fill:none;stroke:#000000"/><path id="path75" d="m1039.7 1572.8 4.4-2.6 26.1.3 5.1 3" style="fill:none;stroke:#000000"/><path id="path76" d="m1106.2 1562-4.9-3.3h-12.6l-4.3 3.7" style="fill:none;stroke:#000000"/><path id="path77" d="m1106.3 1569.2-4.1-3.2H1089l-4.8 3.3" style="fill:none;stroke:#000000"/><path id="path78" d="m1106.1 1576.5-5.2-4h-11.8l-4.9 3.3" style="fill:none;stroke:#000000"/><path id="path79" d="m1124.4 1691.8-20.4 10h-30.5" style="fill:none;stroke:#000000"/><path id="path80" d="M1073.3 1710.4h30.5l20.7-11.5" style="fill:none;stroke:#000000"/><path id="path81" d="M1114.4 1689.6v6.8" style="fill:none;stroke:#000000"/><path id="path82" d="M1109.5 1699.4v7.8" style="fill:none;stroke:#000000"/><path id="path83" d="M1119.4 1694v7.5" style="fill:none;stroke:#000000"/><path id="path84" d="m1114.3 1704.6.2 7.9" style="fill:none;stroke:#000000"/><path id="path85" d="M1088.2 1693.5v8.1" style="fill:none;stroke:#000000"/><path id="path86" d="M1080.7 1701.7v8.7" style="fill:none;stroke:#000000"/><path id="path87" d="M1095.7 1701.7v8.7" style="fill:none;stroke:#000000"/><path id="path88" d="m1088.1 1710.6.1 8.8" style="fill:none;stroke:#000000"/><path id="path89" d="M1025.7 1693.6v8" style="fill:none;stroke:#000000"/><path id="path90" d="M1018.3 1701.6v8.9" style="fill:none;stroke:#000000"/><path id="path91" d="m1034.5 1701.7.1 9" style="fill:none;stroke:#000000"/><path id="path92" d="M1025.9 1710.6v8.5" style="fill:none;stroke:#000000"/><path id="path93" d="m1000.8 1689.3 8.5-9.2" style="fill:none;stroke:#000000"/><path id="path94" d="m1004.4 1678.4-.1-11" style="fill:none;stroke:#000000"/><path id="path95" d="M1014.2 1669.4v11.8" style="fill:none;stroke:#000000"/><path id="path96" d="M1009.7 1668.9v-12.5" style="fill:none;stroke:#000000"/><path id="path97" d="m1004.6 1656 .2-11.7" style="fill:none;stroke:#000000"/><path id="path98" d="m1014.5 1645.4-.1 11.9" style="fill:none;stroke:#000000"/><path id="path99" d="M1009.8 1633v11.7" style="fill:none;stroke:#000000"/><path id="path100" d="m1005 1621.6-.2 12.4" style="fill:none;stroke:#000000"/><path id="path101" d="m1014.5 1620.2.1 12.3" style="fill:none;stroke:#000000"/><path id="path102" d="M1009.5 1609.7v11.1" style="fill:none;stroke:#000000"/><path id="path103" d="m1110 1678.2-.1-11.1" style="fill:none;stroke:#000000"/><path id="path104" d="M1100.5 1669.2v11.7" style="fill:none;stroke:#000000"/><path id="path105" d="M1105.2 1668.6v-11.8" style="fill:none;stroke:#000000"/><path id="path106" d="M1110 1656.3v-12" style="fill:none;stroke:#000000"/><path id="path107" d="m1100.4 1645.1-.1 12.8" style="fill:none;stroke:#000000"/><path id="path108" d="M1105.2 1633v11.7" style="fill:none;stroke:#000000"/><path id="path109" d="M1109.8 1622.2v11.6" style="fill:none;stroke:#000000"/><path id="path110" d="M1100.2 1620v12.6" style="fill:none;stroke:#000000"/><path id="path111" d="M1105.2 1609.5v11" style="fill:none;stroke:#000000"/><path id="path112" d="m1025.5 1693.5 6.8-10.4" style="fill:none;stroke:#000000"/><path id="path113" d="m1082.5 1683 5.9 10.6" style="fill:none;stroke:#000000"/><path id="path114" d="m1105 1679.6 9.1 9.8" style="fill:none;stroke:#000000"/><path id="path115" d="M1038.3 1670.4v12.5" style="fill:none;stroke:#000000"/><path id="path116" d="M1057.5 1670.5v3.4" style="fill:none;stroke:#000000"/><path id="path117" d="M1077.1 1670.6v12.2" style="fill:none;stroke:#000000"/><path id="path118" d="m1069.9 1658.3.1 12" style="fill:none;stroke:#000000"/><path id="path119" d="m1044.8 1658-.2 12.6" style="fill:none;stroke:#000000"/><path id="path120" d="m1056.8 1645.2-.1 12.8" style="fill:none;stroke:#000000"/><path id="path121" d="M1032 1645.2v12.5" style="fill:none;stroke:#000000"/><path id="path122" d="m1070.3 1632.4-.1 12.8" style="fill:none;stroke:#000000"/><path id="path123" d="M1069.9 1606.6v12.2" style="fill:none;stroke:#000000"/><path id="path124" d="M1044.5 1606.2v12.8" style="fill:none;stroke:#000000"/><path id="path125" d="M1057.2 1619.3v12.3" style="fill:none;stroke:#000000"/><path id="path126" d="M1044.6 1632.2v12.9" style="fill:none;stroke:#000000"/><path id="path127" d="M1032.1 1645.4v12.8" style="fill:none;stroke:#000000"/><path id="path128" d="M1083.3 1645.5v13.1" style="fill:none;stroke:#000000"/><path id="path129" d="M1003.2 1586.3v8" style="fill:none;stroke:#000000"/><path id="path130" d="M1009.5 1582.5v9.2" style="fill:none;stroke:#000000"/><path id="path131" d="M1014.5 1541.7v5" style="fill:none;stroke:#000000"/><path id="path132" d="M1019.3 1541.8v4.9" style="fill:none;stroke:#000000"/><path id="path133" d="M1024 1541.9v4.7" style="fill:none;stroke:#000000"/><path id="path134" d="M1090.6 1541.9v4.9" style="fill:none;stroke:#000000"/><path id="path135" d="M1095.7 1542v4.9" style="fill:none;stroke:#000000"/><path id="path136" d="M1100.6 1542v4.9" style="fill:none;stroke:#000000"/><path id="path137" d="m1010.8 1719.1.4-25.4 8.5-10.8-.4-76.4-3.4-6.6v-21.2h10.8v10.3h4l-.2-10.3 10.3.1v10.4h3.8l-.1-10.4h11.2v10.4h3.7l.1-10.4h10.4v10.4h3.7v-10.5l11 .1v10.4h3.6v-10.5l11.2.1v20.1l-3.6 7.7-.1 76.3 8 10.5.4 26" style="fill:none;stroke:#000000"/><path id="path138" d="M1009.6 1541.6v12.1l3.6 4.5.1 21.3" style="fill:none;stroke:#000000"/><path id="path139" d="m1028.3 1541.5.1 12.3-2.4 4.6-.2 20.7" style="fill:none;stroke:#000000"/><path id="path140" d="m1008.4 1561.4 5-3.3h12.6l4.3 3.7" style="fill:none;stroke:#000000"/><path id="path141" d="M1105 1542.1v12.2l-3.6 4.5v21.3" style="fill:none;stroke:#000000"/><path id="path142" d="M1086.3 1542v12.4l2.4 4.6.2 20.7" style="fill:none;stroke:#000000"/><path id="path143" d="m1082.3 1557.6 3.6-3.2 18.7-.1 4.8 3.6" style="fill:none;stroke:#000000"/><path id="path144" d="M1049.6 1521.5v6.6" style="fill:none;stroke:#000000"/><path id="path145" d="m1057 1521.4-.1 6.6" style="fill:none;stroke:#000000"/><path id="path146" d="M1065.1 1521.6v6.8" style="fill:none;stroke:#000000"/><path id="path147" d="M1105.7 1583.1v9" style="fill:none;stroke:#000000"/><path id="path148" d="M1112.1 1586.6v8" style="fill:none;stroke:#000000"/><path id="path149" d="M1054.2 1570.6v-15.1s2.6-7 6.2 0v15.2h-6.2z" style="fill:#0f47af;stroke:#000000"/><path id="path150" d="m1032.9 1645.6-.2-21.9s3.7-10 8.6 0v21.9h-8.4z" style="fill:#0f47af;stroke:#000000"/><path id="path151" d="m1073.8 1645.5-.1-21.9s3.6-10 8.5 0v21.9h-8.4z" style="fill:#0f47af;stroke:#000000"/><path id="path152" d="M1048.1 1686.8s3.4-7.2 9.7-7.4c0 0 5.5-.1 9.2 7v32.8h-19l.1-32.4z" style="fill:#0f47af;stroke:#000000"/></g><g id="castle-4" transform="translate(-511.2 -1155.3) scale(.9439)"><path id="path45-5" d="m1041.8 1521.3 31.3.1 6.2 5.5v15l-3.4 2.5-.1 34.4h8.2l.3-17.7-2.3-3.3V1547l4.3-5.3h18.3l4.7 5.5v10.5l-2.7 4.3v21.7l11.8 6.3-.2 16.2-3.8 6v64.4l10 8.6.2 20.8-20.3 13.4H1011l-20.3-13.3v-20.9l9.5-7.6.4-65.2-3.6-6v-16.2l11.2-6.8.1-21.8-3.6-3.7-.2-10.3 5-5.8h19l4.7 5.3v11l-2.8 3.5v17.6l9.2-.1-.2-34.1-3.6-3.4-.3-14z" style="fill:#fcdd09;stroke:#000000"/><path id="path46-0" d="m1042.3 1719 .2-34.6s14-22.9 30.2.2l.5 34.7" style="fill:none;stroke:#000000"/><path id="path47-3" d="m990.9 1685.4 20.1 8.2 31.4.1" style="fill:none;stroke:#000000"/><path id="path48-6" d="m1124 1685.5-20.1 8-31 .3" style="fill:none;stroke:#000000"/><path id="path49-1" d="m990.8 1692.5 20 9.3h31.3" style="fill:none;stroke:#000000"/><path id="path50-0" d="m990.6 1699.2 20 11.3 31.2.2" style="fill:none;stroke:#000000"/><path id="path51-6" d="m1001 1689.6-.3 7.4" style="fill:none;stroke:#000000"/><path id="path52-3" d="m995.9 1694.8-.2 7.4" style="fill:none;stroke:#000000"/><path id="path53-2" d="M1005.8 1699v8.5" style="fill:none;stroke:#000000"/><path id="path54-0" d="m1001 1704.8-.1 7.8" style="fill:none;stroke:#000000"/><path id="path55-6" d="m997.1 1606.8 18.3-7.3 83.5-.1 19.1 6.8" style="fill:none;stroke:#000000"/><path id="path56-1" d="m1000.7 1612.3 18.7-5.7 76.7.2 18.3 5.4" style="fill:none;stroke:#000000"/><path id="path57-5" d="m1000.4 1622.9 18.7-4 77.1.2 18 4" style="fill:none;stroke:#000000"/><path id="path58-5" d="m1000.6 1634.5 19-2.4h75.7l19 2.3" style="fill:none;stroke:#000000"/><path id="path59-4" d="m1000 1644.2 19.3 1.5h76.1l19.5-1.5" style="fill:none;stroke:#000000"/><path id="path60-7" d="m1000.6 1655.3 18.8 3.1 76.5.1 18.5-2.7" style="fill:none;stroke:#000000"/><path id="path61-6" d="m1000.4 1666.7 19.5 4.2h75.5l19-4.7" style="fill:none;stroke:#000000"/><path id="path62-5" d="m1000.4 1677.3 18.9 5.8h23.7" style="fill:none;stroke:#000000"/><path id="path63-6" d="M1071.7 1682.9h23.8l19.5-6.6" style="fill:none;stroke:#000000"/><path id="path64-9" d="m1008.8 1583 7-4.2" style="fill:none;stroke:#000000"/><path id="path65-3" d="m1005.2 1557.4 3.9-3.7h18.7l5.2 4.2" style="fill:none;stroke:#000000"/><path id="path66-7" d="m1008.3 1568.6 4.2-3.2h13.2l4.8 3.4" style="fill:none;stroke:#000000"/><path id="path67-4" d="m1008.6 1575.9 5.2-4h11.8l5.2 4.3" style="fill:none;stroke:#000000"/><path id="path68-5" d="m1106 1583.2-6.7-4" style="fill:none;stroke:#000000"/><path id="path69-2" d="m1041.8 1521.6.3 16 2.7 4.3v36.9" style="fill:none;stroke:#000000"/><path id="path70-5" d="m1073.1 1521.5-.2 16-2.8 4.3v36.9" style="fill:none;stroke:#000000"/><path id="path71-4" d="m1036 1541.6 5.6-4.2 31.2.3 6.3 4.3" style="fill:none;stroke:#000000"/><path id="path72-7" d="m1039.6 1544.9 4.8-2.8 25.8.2 5.6 2.8" style="fill:none;stroke:#000000"/><path id="path73-4" d="m1039.6 1554.6 4.9-3.1 25.4.3 5.8 3" style="fill:none;stroke:#000000"/><path id="path74-4" d="m1039.3 1563.4 5.4-2.9 25.3.3 5.7 3" style="fill:none;stroke:#000000"/><path id="path75-3" d="m1039.7 1572.8 4.4-2.6 26.1.3 5.1 3" style="fill:none;stroke:#000000"/><path id="path76-0" d="m1106.2 1562-4.9-3.3h-12.6l-4.3 3.7" style="fill:none;stroke:#000000"/><path id="path77-7" d="m1106.3 1569.2-4.1-3.2H1089l-4.8 3.3" style="fill:none;stroke:#000000"/><path id="path78-8" d="m1106.1 1576.5-5.2-4h-11.8l-4.9 3.3" style="fill:none;stroke:#000000"/><path id="path79-6" d="m1124.4 1691.8-20.4 10h-30.5" style="fill:none;stroke:#000000"/><path id="path80-8" d="M1073.3 1710.4h30.5l20.7-11.5" style="fill:none;stroke:#000000"/><path id="path81-8" d="M1114.4 1689.6v6.8" style="fill:none;stroke:#000000"/><path id="path82-4" d="M1109.5 1699.4v7.8" style="fill:none;stroke:#000000"/><path id="path83-3" d="M1119.4 1694v7.5" style="fill:none;stroke:#000000"/><path id="path84-1" d="m1114.3 1704.6.2 7.9" style="fill:none;stroke:#000000"/><path id="path85-4" d="M1088.2 1693.5v8.1" style="fill:none;stroke:#000000"/><path id="path86-9" d="M1080.7 1701.7v8.7" style="fill:none;stroke:#000000"/><path id="path87-2" d="M1095.7 1701.7v8.7" style="fill:none;stroke:#000000"/><path id="path88-0" d="m1088.1 1710.6.1 8.8" style="fill:none;stroke:#000000"/><path id="path89-6" d="M1025.7 1693.6v8" style="fill:none;stroke:#000000"/><path id="path90-8" d="M1018.3 1701.6v8.9" style="fill:none;stroke:#000000"/><path id="path91-9" d="m1034.5 1701.7.1 9" style="fill:none;stroke:#000000"/><path id="path92-2" d="M1025.9 1710.6v8.5" style="fill:none;stroke:#000000"/><path id="path93-6" d="m1000.8 1689.3 8.5-9.2" style="fill:none;stroke:#000000"/><path id="path94-6" d="m1004.4 1678.4-.1-11" style="fill:none;stroke:#000000"/><path id="path95-4" d="M1014.2 1669.4v11.8" style="fill:none;stroke:#000000"/><path id="path96-9" d="M1009.7 1668.9v-12.5" style="fill:none;stroke:#000000"/><path id="path97-5" d="m1004.6 1656 .2-11.7" style="fill:none;stroke:#000000"/><path id="path98-0" d="m1014.5 1645.4-.1 11.9" style="fill:none;stroke:#000000"/><path id="path99-4" d="M1009.8 1633v11.7" style="fill:none;stroke:#000000"/><path id="path100-8" d="m1005 1621.6-.2 12.4" style="fill:none;stroke:#000000"/><path id="path101-7" d="m1014.5 1620.2.1 12.3" style="fill:none;stroke:#000000"/><path id="path102-1" d="M1009.5 1609.7v11.1" style="fill:none;stroke:#000000"/><path id="path103-7" d="m1110 1678.2-.1-11.1" style="fill:none;stroke:#000000"/><path id="path104-2" d="M1100.5 1669.2v11.7" style="fill:none;stroke:#000000"/><path id="path105-7" d="M1105.2 1668.6v-11.8" style="fill:none;stroke:#000000"/><path id="path106-2" d="M1110 1656.3v-12" style="fill:none;stroke:#000000"/><path id="path107-2" d="m1100.4 1645.1-.1 12.8" style="fill:none;stroke:#000000"/><path id="path108-6" d="M1105.2 1633v11.7" style="fill:none;stroke:#000000"/><path id="path109-1" d="M1109.8 1622.2v11.6" style="fill:none;stroke:#000000"/><path id="path110-0" d="M1100.2 1620v12.6" style="fill:none;stroke:#000000"/><path id="path111-6" d="M1105.2 1609.5v11" style="fill:none;stroke:#000000"/><path id="path112-1" d="m1025.5 1693.5 6.8-10.4" style="fill:none;stroke:#000000"/><path id="path113-5" d="m1082.5 1683 5.9 10.6" style="fill:none;stroke:#000000"/><path id="path114-9" d="m1105 1679.6 9.1 9.8" style="fill:none;stroke:#000000"/><path id="path115-4" d="M1038.3 1670.4v12.5" style="fill:none;stroke:#000000"/><path id="path116-9" d="M1057.5 1670.5v3.4" style="fill:none;stroke:#000000"/><path id="path117-0" d="M1077.1 1670.6v12.2" style="fill:none;stroke:#000000"/><path id="path118-9" d="m1069.9 1658.3.1 12" style="fill:none;stroke:#000000"/><path id="path119-1" d="m1044.8 1658-.2 12.6" style="fill:none;stroke:#000000"/><path id="path120-7" d="m1056.8 1645.2-.1 12.8" style="fill:none;stroke:#000000"/><path id="path121-7" d="M1032 1645.2v12.5" style="fill:none;stroke:#000000"/><path id="path122-1" d="m1070.3 1632.4-.1 12.8" style="fill:none;stroke:#000000"/><path id="path123-1" d="M1069.9 1606.6v12.2" style="fill:none;stroke:#000000"/><path id="path124-5" d="M1044.5 1606.2v12.8" style="fill:none;stroke:#000000"/><path id="path125-9" d="M1057.2 1619.3v12.3" style="fill:none;stroke:#000000"/><path id="path126-7" d="M1044.6 1632.2v12.9" style="fill:none;stroke:#000000"/><path id="path127-7" d="M1032.1 1645.4v12.8" style="fill:none;stroke:#000000"/><path id="path128-6" d="M1083.3 1645.5v13.1" style="fill:none;stroke:#000000"/><path id="path129-7" d="M1003.2 1586.3v8" style="fill:none;stroke:#000000"/><path id="path130-3" d="M1009.5 1582.5v9.2" style="fill:none;stroke:#000000"/><path id="path131-6" d="M1014.5 1541.7v5" style="fill:none;stroke:#000000"/><path id="path132-5" d="M1019.3 1541.8v4.9" style="fill:none;stroke:#000000"/><path id="path133-6" d="M1024 1541.9v4.7" style="fill:none;stroke:#000000"/><path id="path134-3" d="M1090.6 1541.9v4.9" style="fill:none;stroke:#000000"/><path id="path135-9" d="M1095.7 1542v4.9" style="fill:none;stroke:#000000"/><path id="path136-4" d="M1100.6 1542v4.9" style="fill:none;stroke:#000000"/><path id="path137-8" d="m1010.8 1719.1.4-25.4 8.5-10.8-.4-76.4-3.4-6.6v-21.2h10.8v10.3h4l-.2-10.3 10.3.1v10.4h3.8l-.1-10.4h11.2v10.4h3.7l.1-10.4h10.4v10.4h3.7v-10.5l11 .1v10.4h3.6v-10.5l11.2.1v20.1l-3.6 7.7-.1 76.3 8 10.5.4 26" style="fill:none;stroke:#000000"/><path id="path138-1" d="M1009.6 1541.6v12.1l3.6 4.5.1 21.3" style="fill:none;stroke:#000000"/><path id="path139-2" d="m1028.3 1541.5.1 12.3-2.4 4.6-.2 20.7" style="fill:none;stroke:#000000"/><path id="path140-9" d="m1008.4 1561.4 5-3.3h12.6l4.3 3.7" style="fill:none;stroke:#000000"/><path id="path141-3" d="M1105 1542.1v12.2l-3.6 4.5v21.3" style="fill:none;stroke:#000000"/><path id="path142-9" d="M1086.3 1542v12.4l2.4 4.6.2 20.7" style="fill:none;stroke:#000000"/><path id="path143-0" d="m1082.3 1557.6 3.6-3.2 18.7-.1 4.8 3.6" style="fill:none;stroke:#000000"/><path id="path144-8" d="M1049.6 1521.5v6.6" style="fill:none;stroke:#000000"/><path id="path145-8" d="m1057 1521.4-.1 6.6" style="fill:none;stroke:#000000"/><path id="path146-5" d="M1065.1 1521.6v6.8" style="fill:none;stroke:#000000"/><path id="path147-0" d="M1105.7 1583.1v9" style="fill:none;stroke:#000000"/><path id="path148-9" d="M1112.1 1586.6v8" style="fill:none;stroke:#000000"/><path id="path149-6" d="M1054.2 1570.6v-15.1s2.6-7 6.2 0v15.2h-6.2z" style="fill:#0f47af;stroke:#000000"/><path id="path150-3" d="m1032.9 1645.6-.2-21.9s3.7-10 8.6 0v21.9z" style="fill:#0f47af;stroke:#000000"/><path id="path151-8" d="m1073.8 1645.5-.1-21.9s3.6-10 8.5 0v21.9z" style="fill:#0f47af;stroke:#000000"/><path id="path152-5" d="M1048.1 1686.8s3.4-7.2 9.7-7.4c0 0 5.5-.1 9.2 7v32.8h-19z" style="fill:#0f47af;stroke:#000000"/></g><!-- app4joy --></svg>