<svg xmlns="http://www.w3.org/2000/svg" id="svg548" width="750" height="500" x="0" y="0" version="1.0" viewBox="0 0 750 500"><defs id="defs549"><style id="style2435" type="text/css">.str0{stroke:#000000;stroke-width:3}.fil1{fill:none}.fil2{fill:#0039F0}.fil0{fill:#FFFF00}</style></defs><g id="g1"><path id="rect171" d="M0 0h375v500H0z" style="font-size:12px;display:inline;fill:#b81626;fill-opacity:1;fill-rule:evenodd;stroke-width:1pt"/><path id="rect2847" d="M375 0h375v500H375z" style="display:inline;fill:#ffffff;fill-opacity:1"/></g><g id="g3195" transform="translate(3.3 1.7)"><path id="path3511" d="M72.8 354.9v-23.5l4-8.7V247l-3-6.4V223l5.8-1.2v-51l-3.1-5.2v-11.8l3-1.1v6.3l3-1.5v-6.1l3.1-1.3h7.8v7.7h6.9V150h7.6v7.5h6.5v-7.7h6.8l3.3 2v6.4l2 1V153l3 1.4V166l-3 5.2v72.5h6.5V241h21.2v-93l-4.3-6.5v-14.9l4-1.6v8l4-2v-7.6l4.2-1.7h10.2v9.6h8.9v-9.8h10.1v9.6h8.6v-9.6h8.7l4.2 2.3v8.2l2.7 1.1v-7.8l4.2 1.8v14.6l-3.8 6.7V241h23v2.7h3.9v-73.9l-3.2-4.7v-12.2l3-1.1v6.5l3.2-1.8v-6l3-1.3h7.8v7.8h6.8v-8h7.6v7.7h6.6V149h6.7l3 1.9v6.6l2.4 1v-6.3l3 1.3V165l-3 5.4v52.9l5.1.3v16.8l-3.6 7.6v74.6l4.2 9.2v23.3l-50 19.8H121.9Z" style="fill:#cab313;fill-opacity:1;fill-rule:evenodd;stroke:#000000;stroke-width:1.23347;stroke-linecap:butt;stroke-linejoin:miter;stroke-miterlimit:4;stroke-dasharray:none;stroke-opacity:1"/><path id="path3513" d="M126.3 216.8h6.6v7.4l8.5-1.7v-8.8h7.6v7.1h5.1v17.6c-11.6-7.2-17-6-27.6.4z" style="fill:#cab313;fill-opacity:1;fill-rule:evenodd;stroke:#000000;stroke-width:1.23347;stroke-linecap:butt;stroke-linejoin:miter;stroke-miterlimit:4;stroke-dasharray:none;stroke-opacity:1"/><path id="path3515" d="M242.7 216.4h-6.3v7.4l-8.2-1.6v-8.8h-7.3v7.1h-5v17.6c11.2-7.2 16.5-6 26.6.4z" style="fill:#cab313;fill-opacity:1;fill-rule:evenodd;stroke:#000000;stroke-width:1.23347;stroke-linecap:butt;stroke-linejoin:miter;stroke-miterlimit:4;stroke-dasharray:none;stroke-opacity:1"/><path id="path3517" d="M98.2 194.6h8.3V186c3.3-4.2 2.6-9.7-4.1-12.9-7.3 3.7-7 9-4.3 12.7z" style="fill:#0f47af;fill-opacity:1;fill-rule:evenodd;stroke:#000000;stroke-width:1.23347;stroke-linecap:butt;stroke-linejoin:miter;stroke-miterlimit:4;stroke-dasharray:none;stroke-opacity:1"/><path id="path3519" d="M179.7 177.8h10.2v-10.6c4.1-5.1 3.2-12-5-15.8-9 4.5-8.8 11-5.4 15.6z" style="fill:#0f47af;fill-opacity:1;fill-rule:evenodd;stroke:#000000;stroke-width:1.23347;stroke-linecap:butt;stroke-linejoin:miter;stroke-miterlimit:4;stroke-dasharray:none;stroke-opacity:1"/><path id="path3521" d="M262.8 194.6h8.3v-8.7c3.3-4.1 2.6-9.7-4.1-12.8-7.3 3.7-7 9-4.3 12.7z" style="fill:#0f47af;fill-opacity:1;fill-rule:evenodd;stroke:#000000;stroke-width:1.23347;stroke-linecap:butt;stroke-linejoin:miter;stroke-miterlimit:4;stroke-dasharray:none;stroke-opacity:1"/><path id="path3523" d="M180 235h10.5v-13.6a14 14 0 0 0-5.2-20.3c-9.2 5.9-8.9 14.1-5.4 20z" style="fill:#0f47af;fill-opacity:1;fill-rule:evenodd;stroke:#000000;stroke-width:1.23347;stroke-linecap:butt;stroke-linejoin:miter;stroke-miterlimit:4;stroke-dasharray:none;stroke-opacity:1"/><path id="path3525" d="m74 240.8 50.3 19.9h121.5l48.8-19.7" style="fill:none;fill-rule:evenodd;stroke:#000000;stroke-width:1.23347;stroke-linecap:butt;stroke-linejoin:miter;stroke-miterlimit:4;stroke-dasharray:none;stroke-opacity:1"/><path id="path3527" d="m77.3 247.6 50.1 20.5h114.7l49.1-20.7" style="fill:none;fill-rule:evenodd;stroke:#000000;stroke-width:1.23347;stroke-linecap:butt;stroke-linejoin:miter;stroke-miterlimit:4;stroke-dasharray:none;stroke-opacity:1"/><path id="path3529" d="m77.4 265 50 20.5" style="fill:none;fill-rule:evenodd;stroke:#000000;stroke-width:1.23347;stroke-linecap:butt;stroke-linejoin:miter;stroke-miterlimit:4;stroke-dasharray:none;stroke-opacity:1"/><path id="path3531" d="M128 285h113.5" style="fill:none;fill-rule:evenodd;stroke:#000000;stroke-width:1.23347;stroke-linecap:butt;stroke-linejoin:miter;stroke-miterlimit:4;stroke-dasharray:none;stroke-opacity:1"/><path id="path3533" d="m241.9 285.6 49.3-20.6" style="fill:none;fill-rule:evenodd;stroke:#000000;stroke-width:1.23347;stroke-linecap:butt;stroke-linejoin:miter;stroke-miterlimit:4;stroke-dasharray:none;stroke-opacity:1"/><path id="path3535" d="m77.3 285.7 50.2 20.5" style="fill:none;fill-rule:evenodd;stroke:#000000;stroke-width:1.23347;stroke-linecap:butt;stroke-linejoin:miter;stroke-miterlimit:4;stroke-dasharray:none;stroke-opacity:1"/><path id="path3537" d="m76.9 304.2 50.7 21.2" style="fill:none;fill-rule:evenodd;stroke:#000000;stroke-width:1.23347;stroke-linecap:butt;stroke-linejoin:miter;stroke-miterlimit:4;stroke-dasharray:none;stroke-opacity:1"/><path id="path3539" d="M128 306.5h113.7l49.5-20.8" style="fill:none;fill-rule:evenodd;stroke:#000000;stroke-width:1.23347;stroke-linecap:butt;stroke-linejoin:miter;stroke-miterlimit:4;stroke-dasharray:none;stroke-opacity:1"/><path id="path3541" d="M127.6 325.7h113.7l50-21.1" style="fill:none;fill-rule:evenodd;stroke:#000000;stroke-width:1.23347;stroke-linecap:butt;stroke-linejoin:miter;stroke-miterlimit:4;stroke-dasharray:none;stroke-opacity:1"/><path id="path3543" d="M172.5 343.4h24.8v-19.6c8.4-15.1 1.9-28.7-12.7-39-17.5 9.7-20.5 25.5-12.4 39.7z" style="fill:#0f47af;fill-opacity:1;fill-rule:evenodd;stroke:#000000;stroke-width:1.23347;stroke-linecap:butt;stroke-linejoin:miter;stroke-miterlimit:4;stroke-dasharray:none;stroke-opacity:1"/><path id="path3545" d="m77 322.5 50.8 21.3h114l49.6-21.4" style="fill:none;fill-rule:evenodd;stroke:#000000;stroke-width:1.23347;stroke-linecap:butt;stroke-linejoin:miter;stroke-miterlimit:4;stroke-dasharray:none;stroke-opacity:1"/><path id="path3547" d="m73 332 49 20.6h123.4l50.1-20.7" style="fill:none;fill-rule:evenodd;stroke:#000000;stroke-width:1.23347;stroke-linecap:butt;stroke-linejoin:miter;stroke-miterlimit:4;stroke-dasharray:none;stroke-opacity:1"/><path id="path3549" d="M124 243.7v17l3.7 7.7v75l-5.9 9V375" style="fill:none;fill-rule:evenodd;stroke:#000000;stroke-width:1.23347;stroke-linecap:butt;stroke-linejoin:miter;stroke-miterlimit:4;stroke-dasharray:none;stroke-opacity:1"/><path id="path3551" d="M245.4 243.5v18.3l-3.7 6.5v75.3l3.8 9.8v21.4" style="fill:none;fill-rule:evenodd;stroke:#000000;stroke-width:1.23347;stroke-linecap:butt;stroke-linejoin:miter;stroke-miterlimit:4;stroke-dasharray:none;stroke-opacity:1"/><path id="path3553" d="m76.5 165.6 9-3h35.8l8 3.1" style="fill:none;fill-rule:evenodd;stroke:#000000;stroke-width:1.23347;stroke-linecap:butt;stroke-linejoin:miter;stroke-miterlimit:4;stroke-dasharray:none;stroke-opacity:1"/><path id="path3555" d="m79.4 170.8 8.8-2.8h29.4l9 3.1" style="fill:none;fill-rule:evenodd;stroke:#000000;stroke-width:1.23347;stroke-linecap:butt;stroke-linejoin:miter;stroke-miterlimit:4;stroke-dasharray:none;stroke-opacity:1"/><path id="path3557" d="m126.8 203-9.4-3.2H88l-8.6 2.9c-1.6.9-1.8 3 0 3.9l8.8-2.5h29.3l9.3 3a3 3 0 0 0-.1-4z" style="fill:#cab313;fill-opacity:1;fill-rule:evenodd;stroke:#000000;stroke-width:1.23347;stroke-linecap:butt;stroke-linejoin:miter;stroke-miterlimit:4;stroke-dasharray:none;stroke-opacity:1"/><path id="path3559" d="M79.3 206.6c-2 1-1.4 3.6 0 4.1l9-3h29.3l8.8 3c1.1-.7 1.7-1.7.1-3.8l-9-2.8H88.2Z" style="fill:#cab313;fill-opacity:1;fill-rule:evenodd;stroke:#000000;stroke-width:1.23347;stroke-linecap:butt;stroke-linejoin:miter;stroke-miterlimit:4;stroke-dasharray:none;stroke-opacity:1"/><path id="path3561" d="M85.8 150.2v12.7l2.5 4.5V239" style="fill:none;fill-rule:evenodd;stroke:#000000;stroke-width:1.23347;stroke-linecap:butt;stroke-linejoin:miter;stroke-miterlimit:4;stroke-dasharray:none;stroke-opacity:1"/><path id="path3563" d="M121 150v13l-3.3 5.2v83.5" style="fill:none;fill-rule:evenodd;stroke:#000000;stroke-width:1.23347;stroke-linecap:butt;stroke-linejoin:miter;stroke-miterlimit:4;stroke-dasharray:none;stroke-opacity:1"/><path id="path3565" d="m242.8 202.4 9.4-3.3h29.2l8.7 3c1.5.8 1.8 2.9 0 3.9l-8.8-2.5h-29.4l-9.3 2.9c-1-1.2-.9-2.7.2-4z" style="fill:#cab313;fill-opacity:1;fill-rule:evenodd;stroke:#000000;stroke-width:1.23347;stroke-linecap:butt;stroke-linejoin:miter;stroke-miterlimit:4;stroke-dasharray:none;stroke-opacity:1"/><path id="path3567" d="M290.2 206c2 1 1.5 3.6 0 4.1l-9-3H252l-8.8 3c-1-.8-1.6-1.8 0-3.8l8.9-2.8h29.3z" style="fill:#cab313;fill-opacity:1;fill-rule:evenodd;stroke:#000000;stroke-width:1.23347;stroke-linecap:butt;stroke-linejoin:miter;stroke-miterlimit:4;stroke-dasharray:none;stroke-opacity:1"/><path id="path3569" d="M283.7 149.5v12.7l-2.5 4.5v71.6" style="fill:none;fill-rule:evenodd;stroke:#000000;stroke-width:1.23347;stroke-linecap:butt;stroke-linejoin:miter;stroke-miterlimit:4;stroke-dasharray:none;stroke-opacity:1"/><path id="path3571" d="M248.6 149.4v12.9l3.3 5.3V251" style="fill:none;fill-rule:evenodd;stroke:#000000;stroke-width:1.23347;stroke-linecap:butt;stroke-linejoin:miter;stroke-miterlimit:4;stroke-dasharray:none;stroke-opacity:1"/><path id="path3573" d="m73.8 223.7 9.2 3.6v9.8l8.5 2.5v-8.8l8.3 3.1v9.9l7.3 2.5v-9.5l9.3 3.7v11l4.6 1.5v-10.7l3 1.4h11.1V254h8.4v-10.5h10v10h8v-10.1h9.9v9.9h8.2v-9.9h12v10.3h8.2v-10.3h9.4v9.6h8.7v-9.5h9.7v9.4h8.7v-9.5h9l3.2-1.4v10.7l3.6-1.3v-10.7l9.6-3.8v9.8l7.3-2.8v-10.1l8.2-3.1v9.1l8.1-2.8v-9.9l9.3-3.5" style="fill:none;fill-rule:evenodd;stroke:#000000;stroke-width:1.23347;stroke-linecap:butt;stroke-linejoin:miter;stroke-miterlimit:4;stroke-dasharray:none;stroke-opacity:1"/><path id="path3575" d="m153.6 188.4 12.3-4.2H204l11.3 3.8c2 1.1 2.3 3.8 0 5l-11.5-3.1h-38.3l-12 3.8c-1.5-1.6-1.3-3.6.1-5.3z" style="fill:#cab313;fill-opacity:1;fill-rule:evenodd;stroke:#000000;stroke-width:1.23347;stroke-linecap:butt;stroke-linejoin:miter;stroke-miterlimit:4;stroke-dasharray:none;stroke-opacity:1"/><path id="path3577" d="M215.5 193.1c2.5 1.3 1.9 4.7 0 5.4l-11.7-4h-38.2l-11.5 4c-1.5-1-2.2-2.4-.1-5l11.7-3.7h38.2z" style="fill:#cab313;fill-opacity:1;fill-rule:evenodd;stroke:#000000;stroke-width:1.23347;stroke-linecap:butt;stroke-linejoin:miter;stroke-miterlimit:4;stroke-dasharray:none;stroke-opacity:1"/><path id="path3579" d="m239.7 164.7 9.6-2.6H284l8.5 2.8" style="fill:none;fill-rule:evenodd;stroke:#000000;stroke-width:1.23347;stroke-linecap:butt;stroke-linejoin:miter;stroke-miterlimit:4;stroke-dasharray:none;stroke-opacity:1"/><path id="path3581" d="m242.6 170 9-2.8h28.6l9.4 3.1" style="fill:none;fill-rule:evenodd;stroke:#000000;stroke-width:1.23347;stroke-linecap:butt;stroke-linejoin:miter;stroke-miterlimit:4;stroke-dasharray:none;stroke-opacity:1"/><path id="path3583" d="M162.1 122v15.6l3.5 6.1v99.9" style="fill:none;fill-rule:evenodd;stroke:#000000;stroke-width:1.23347;stroke-linecap:butt;stroke-linejoin:miter;stroke-miterlimit:4;stroke-dasharray:none;stroke-opacity:1"/><path id="path3585" d="M208.4 122v16l-4.1 6.3v99.1" style="fill:none;fill-rule:evenodd;stroke:#000000;stroke-width:1.23347;stroke-linecap:butt;stroke-linejoin:miter;stroke-miterlimit:4;stroke-dasharray:none;stroke-opacity:1"/><path id="path3587" d="m150.1 141.4 11.7-3.3h46.4l11.2 3.5" style="fill:none;fill-rule:evenodd;stroke:#000000;stroke-width:1.23347;stroke-linecap:butt;stroke-linejoin:miter;stroke-miterlimit:4;stroke-dasharray:none;stroke-opacity:1"/><path id="path3589" d="m153.7 148.2 12.1-3.7h37.8l12.3 4" style="fill:none;fill-rule:evenodd;stroke:#000000;stroke-width:1.23347;stroke-linecap:butt;stroke-linejoin:miter;stroke-miterlimit:4;stroke-dasharray:none;stroke-opacity:1"/><path id="path3591" d="M79.7 221.6v4.6" style="fill:none;fill-rule:evenodd;stroke:#000000;stroke-width:1.23347;stroke-linecap:butt;stroke-linejoin:miter;stroke-miterlimit:4;stroke-dasharray:none;stroke-opacity:1"/><path id="path3593" d="M289.7 223.3v2.1" style="fill:none;fill-rule:evenodd;stroke:#000000;stroke-width:1.23347;stroke-linecap:butt;stroke-linejoin:miter;stroke-miterlimit:4;stroke-dasharray:none;stroke-opacity:1"/><path id="path3595" d="m93 253.9-.1 17.3" style="fill:none;fill-rule:evenodd;stroke:#000000;stroke-width:1.23347;stroke-linecap:butt;stroke-linejoin:miter;stroke-miterlimit:4;stroke-dasharray:none;stroke-opacity:1"/><path id="path3597" d="M104.9 276v20.7" style="fill:none;fill-rule:evenodd;stroke:#000000;stroke-width:1.23347;stroke-linecap:butt;stroke-linejoin:miter;stroke-miterlimit:4;stroke-dasharray:none;stroke-opacity:1"/><path id="path3599" d="M91.9 291.6v19" style="fill:none;fill-rule:evenodd;stroke:#000000;stroke-width:1.23347;stroke-linecap:butt;stroke-linejoin:miter;stroke-miterlimit:4;stroke-dasharray:none;stroke-opacity:1"/><path id="path3601" d="M104.4 315.6v18.1" style="fill:none;fill-rule:evenodd;stroke:#000000;stroke-width:1.23347;stroke-linecap:butt;stroke-linejoin:miter;stroke-miterlimit:4;stroke-dasharray:none;stroke-opacity:1"/><path id="path3603" d="M141.8 268.2v16.7" style="fill:none;fill-rule:evenodd;stroke:#000000;stroke-width:1.23347;stroke-linecap:butt;stroke-linejoin:miter;stroke-miterlimit:4;stroke-dasharray:none;stroke-opacity:1"/><path id="path3605" d="M185 284.3v-16" style="fill:none;fill-rule:evenodd;stroke:#000000;stroke-width:1.23347;stroke-linecap:butt;stroke-linejoin:miter;stroke-miterlimit:4;stroke-dasharray:none;stroke-opacity:1"/><path id="path3607" d="M227.5 268.2v16.4" style="fill:none;fill-rule:evenodd;stroke:#000000;stroke-width:1.23347;stroke-linecap:butt;stroke-linejoin:miter;stroke-miterlimit:4;stroke-dasharray:none;stroke-opacity:1"/><path id="path3609" d="M161.9 284.7v21.8" style="fill:none;fill-rule:evenodd;stroke:#000000;stroke-width:1.23347;stroke-linecap:butt;stroke-linejoin:miter;stroke-miterlimit:4;stroke-dasharray:none;stroke-opacity:1"/><path id="path3611" d="M206.8 284.6v22" style="fill:none;fill-rule:evenodd;stroke:#000000;stroke-width:1.23347;stroke-linecap:butt;stroke-linejoin:miter;stroke-miterlimit:4;stroke-dasharray:none;stroke-opacity:1"/><path id="path3613" d="M227.4 306.5v19.3" style="fill:none;fill-rule:evenodd;stroke:#000000;stroke-width:1.23347;stroke-linecap:butt;stroke-linejoin:miter;stroke-miterlimit:4;stroke-dasharray:none;stroke-opacity:1"/><path id="path3615" d="M141.6 306.5v19.2" style="fill:none;fill-rule:evenodd;stroke:#000000;stroke-width:1.23347;stroke-linecap:butt;stroke-linejoin:miter;stroke-miterlimit:4;stroke-dasharray:none;stroke-opacity:1"/><path id="path3617" d="M162 325.7v18" style="fill:none;fill-rule:evenodd;stroke:#000000;stroke-width:1.23347;stroke-linecap:butt;stroke-linejoin:miter;stroke-miterlimit:4;stroke-dasharray:none;stroke-opacity:1"/><path id="path3619" d="M206.6 325.9v17.9" style="fill:none;fill-rule:evenodd;stroke:#000000;stroke-width:1.23347;stroke-linecap:butt;stroke-linejoin:miter;stroke-miterlimit:4;stroke-dasharray:none;stroke-opacity:1"/><path id="path3621" d="M275.7 254.1v17.2" style="fill:none;fill-rule:evenodd;stroke:#000000;stroke-width:1.23347;stroke-linecap:butt;stroke-linejoin:miter;stroke-miterlimit:4;stroke-dasharray:none;stroke-opacity:1"/><path id="path3623" d="M264 296.6v-20.4" style="fill:none;fill-rule:evenodd;stroke:#000000;stroke-width:1.23347;stroke-linecap:butt;stroke-linejoin:miter;stroke-miterlimit:4;stroke-dasharray:none;stroke-opacity:1"/><path id="path3625" d="M276.6 291.8v18.8" style="fill:none;fill-rule:evenodd;stroke:#000000;stroke-width:1.23347;stroke-linecap:butt;stroke-linejoin:miter;stroke-miterlimit:4;stroke-dasharray:none;stroke-opacity:1"/><path id="path3627" d="M264.3 315.9v18" style="fill:none;fill-rule:evenodd;stroke:#000000;stroke-width:1.23347;stroke-linecap:butt;stroke-linejoin:miter;stroke-miterlimit:4;stroke-dasharray:none;stroke-opacity:1"/><path id="path3629" d="M154.3 240.5v13.1" style="fill:none;fill-rule:evenodd;stroke:#000000;stroke-width:1.23347;stroke-linecap:butt;stroke-linejoin:miter;stroke-miterlimit:4;stroke-dasharray:none;stroke-opacity:1"/><path id="path3631" d="M216 240.8V253" style="fill:none;fill-rule:evenodd;stroke:#000000;stroke-width:1.23347;stroke-linecap:butt;stroke-linejoin:miter;stroke-miterlimit:4;stroke-dasharray:none;stroke-opacity:1"/></g><!-- app4joy --></svg>