<svg width="750" height="500" id="svg3347" viewBox="0 0 750 500" xmlns:xlink="http://www.w3.org/1999/xlink" xmlns="http://www.w3.org/2000/svg"><g id="g3472"><path d="M0 0v500h750V0Z" fill="#ffffff" id="path2659" style="display:inline"/><path d="M0 0h375v500h375Zm750 0v250H0v250z" stroke-width="125" id="path2661" style="display:inline"/></g><g transform="translate(277 125)scale(.27617)" id="g3345" style="display:inline"><symbol id="elm1" viewBox="-41.667 -49.998 83.334 99.997" style="display:inline"><g fill="#ffffff" stroke="#000000" id="g2675"><path d="M-41.2 49.5V-8.3a41.2 41.2 0 0 1 82.4 0v57.8z" fill="#0069af" stroke-width="1.5" id="path2663"/><path d="M-9.4 23.7a10.4 10.4 0 1 0-20.8-.1v.1a10.4 10.4 0 1 0 20.8.2z" id="path2665"/><path d="M30.2 23.7a10.4 10.4 0 1 0-20.8-.1v.1a10.4 10.4 0 1 0 20.8.2z" id="path2667"/><path d="M10.4 3a10.4 10.4 0 1 0-20.8-.2V3a10.4 10.4 0 1 0 20.8 0Z" id="path2669"/><path d="M-9.4-17.8a10.4 10.4 0 1 0-20.8-.1 10.4 10.4 0 1 0 20.8.2z" id="path2671"/><path d="M30.2-17.8A10.4 10.4 0 1 0 9.4-18a10.4 10.4 0 1 0 20.8.2z" id="path2673"/></g></symbol><symbol id="elm2" viewBox="-29.194 -45.015 58.389 90.03"><path d="M22.4 30.3V4.9l-3.8 3.3v23z" fill="#eac102" stroke="#000000" stroke-linecap="round" stroke-linejoin="round" stroke-width="0.5" id="path2678"/><path d="m20.6 30.6 1.9-1.2 2 2-2 1.2z" fill="#eac102" stroke="#000000" stroke-linecap="round" stroke-linejoin="round" stroke-width="0.5" id="path2680"/><path d="m22.4 36.7 2.2-1.6v-3.7l-2.2 1.2z" fill="#eac102" stroke="#000000" stroke-linecap="round" stroke-linejoin="round" stroke-width="0.5" id="path2682"/><path d="M9.6 30.3V4.9l4 3.4v23z" fill="#eac102" stroke="#000000" stroke-linecap="round" stroke-linejoin="round" stroke-width="0.5" id="path2684"/><path d="m11.4 30.6-1.8-1.2-2.1 2 2.1 1.2Z" fill="#eac102" stroke="#000000" stroke-linecap="round" stroke-linejoin="round" stroke-width="0.5" id="path2686"/><path d="M9.6 36.7 7.5 35v-3.7l2.1 1.2z" fill="#eac102" stroke="#000000" stroke-linecap="round" stroke-linejoin="round" stroke-width="0.5" id="path2688"/><path d="m9.6 32.6 1.7-2h9.4l1.7 2z" fill="#eac102" stroke="#000000" stroke-linecap="round" stroke-linejoin="round" stroke-width="0.5" id="path2690"/><path d="M9.6 36.7h2.5v-1.9h2.7v1.9h2.5v-1.9h2.6v1.9h2.5v-4H9.6Z" fill="#eac102" stroke="#000000" stroke-linecap="round" stroke-linejoin="round" stroke-width="0.5" id="path2692"/><path d="M11.4 30.6V6.5h9.3v24zm4.7-4.3c1 0 2-.5 2-2.6v-6h-4s-.2 4-.1 6c0 2 1 2.6 2 2.6" fill="#eac102" stroke="#000000" stroke-linecap="round" stroke-linejoin="round" stroke-width="0.5" id="path2694"/><path d="M6.4 38.4V4.8L2.7 7.7V39z" fill="#eac102" stroke="#000000" stroke-linecap="round" stroke-linejoin="round" stroke-width="0.5" id="path2696"/><path d="m4.6 38.7 1.9-1.2 2 2-2.1 1.2Z" fill="#eac102" stroke="#000000" stroke-linecap="round" stroke-linejoin="round" stroke-width="0.5" id="path2698"/><path d="m6.4 44.8 2.1-1.6v-3.8l-2.1 1.3Z" fill="#eac102" stroke="#000000" stroke-linecap="round" stroke-linejoin="round" stroke-width="0.5" id="path2700"/><path d="M-6.4 38.4V4.9l3.6 3V39z" fill="#eac102" stroke="#000000" stroke-linecap="round" stroke-linejoin="round" stroke-width="0.5" id="path2702"/><path d="m-4.6 38.7-1.9-1.2-2 2 2.1 1.2z" fill="#eac102" stroke="#000000" stroke-linecap="round" stroke-linejoin="round" stroke-width="0.5" id="path2704"/><path d="m-6.4 44.8-2.1-1.6v-3.8l2.1 1.2z" fill="#eac102" stroke="#000000" stroke-linecap="round" stroke-linejoin="round" stroke-width="0.5" id="path2706"/><path d="m-6.4 40.7 1.7-2h9.4l1.7 2z" fill="#eac102" stroke="#000000" stroke-linecap="round" stroke-linejoin="round" stroke-width="0.5" id="path2708"/><path d="M-6.4 44.8H-4v-2h2.7v2h2.5v-2H4v2h2.5v-4H-6.4z" fill="#eac102" stroke="#000000" stroke-linecap="round" stroke-linejoin="round" stroke-width="0.5" id="path2710"/><path d="M-4.6 38.7V6.2h9.2v32.5ZM0 34.3c1 0 2-.5 2-2.6v-6l-4 .1v6c0 1.9 1 2.5 2 2.5" fill="#eac102" stroke="#000000" stroke-linecap="round" stroke-linejoin="round" stroke-width="0.5" id="path2712"/><path d="M-9.6 30.3V4.9l-3.8 3.3v23z" fill="#eac102" stroke="#000000" stroke-linecap="round" stroke-linejoin="round" stroke-width="0.5" id="path2714"/><path d="m-11.4 30.6 1.8-1.2 2.1 2-2.1 1.2z" fill="#eac102" stroke="#000000" stroke-linecap="round" stroke-linejoin="round" stroke-width="0.5" id="path2716"/><path d="m-9.6 36.7 2-1.6v-3.7l-2 1.2z" fill="#eac102" stroke="#000000" stroke-linecap="round" stroke-linejoin="round" stroke-width="0.5" id="path2718"/><path d="M-22.5 30.3V4.9l4 3.4v23z" fill="#eac102" stroke="#000000" stroke-linecap="round" stroke-linejoin="round" stroke-width="0.5" id="path2720"/><path d="m-20.6 30.6-2-1.2-2 2 2.2 1.2z" fill="#eac102" stroke="#000000" stroke-linecap="round" stroke-linejoin="round" stroke-width="0.5" id="path2722"/><path d="m-22.4 36.7-2.2-1.6v-3.7l2.2 1.2z" fill="#eac102" stroke="#000000" stroke-linecap="round" stroke-linejoin="round" stroke-width="0.5" id="path2724"/><path d="m-22.5 32.6 1.8-2h9.3l1.8 2z" fill="#eac102" stroke="#000000" stroke-linecap="round" stroke-linejoin="round" stroke-width="0.5" id="path2726"/><path d="M-22.5 36.7h2.5v-1.9h2.7v1.9h2.5v-1.9h2.6v1.9h2.5v-4h-12.8z" fill="#eac102" stroke="#000000" stroke-linecap="round" stroke-linejoin="round" stroke-width="0.5" id="path2728"/><path d="M-20.7 30.6V6.5h9.3v24zm4.7-4.3c1 0 2-.5 2-2.6v-6h-4l-.1 6c0 2 1 2.6 2 2.6" fill="#eac102" stroke="#000000" stroke-linecap="round" stroke-linejoin="round" stroke-width="0.5" id="path2730"/><path d="m4.7 21 1.7-1.2" fill="none" stroke="#000000" stroke-width="0.5" id="path2732"/><path d="m4.7 24.4 1.7-1" fill="none" stroke="#000000" stroke-width="0.5" id="path2734"/><path d="m4.7 28 1.7-1.1" fill="none" stroke="#000000" stroke-width="0.5" id="path2736"/><path d="m4.7 31.5 1.7-1.1" fill="none" stroke="#000000" stroke-width="0.5" id="path2738"/><path d="m4.7 35 1.7-1.1" fill="none" stroke="#000000" stroke-width="0.5" id="path2740"/><path d="m-4.7 21-1.7-1.2" fill="none" stroke="#000000" stroke-width="0.5" id="path2742"/><path d="m-4.7 24.4-1.7-1" fill="none" stroke="#000000" stroke-width="0.5" id="path2744"/><path d="m-4.7 28-1.7-1.1" fill="none" stroke="#000000" stroke-width="0.5" id="path2746"/><path d="m-4.7 31.5-1.7-1.1" fill="none" stroke="#000000" stroke-width="0.5" id="path2748"/><path d="m-4.7 35-1.7-1.1" fill="none" stroke="#000000" stroke-width="0.5" id="path2750"/><path d="M0 24.6v1.1" fill="#eac102" stroke="#000000" stroke-linecap="round" stroke-linejoin="round" stroke-width="0.5" id="path2752"/><path d="M-4.7 35h9.2" fill="#eac102" stroke="#000000" stroke-linecap="round" stroke-linejoin="round" stroke-width="0.5" id="path2754"/><path d="M2.2 31.5h2.3" fill="#eac102" stroke="#000000" stroke-linecap="round" stroke-linejoin="round" stroke-width="0.5" id="path2756"/><path d="M2.1 27.9h2.3" fill="#eac102" stroke="#000000" stroke-linecap="round" stroke-linejoin="round" stroke-width="0.5" id="path2758"/><path d="M-4.7 24.5h9.2" fill="#eac102" stroke="#000000" stroke-linecap="round" stroke-linejoin="round" stroke-width="0.5" id="path2760"/><path d="M-4.7 21h9.2" fill="#eac102" stroke="#000000" stroke-linecap="round" stroke-linejoin="round" stroke-width="0.5" id="path2762"/><path d="M0 17.7v3.1" fill="#eac102" stroke="#000000" stroke-linecap="round" stroke-linejoin="round" stroke-width="0.5" id="path2764"/><path d="M-1.5 21v3.4" fill="#eac102" stroke="#000000" stroke-linecap="round" stroke-linejoin="round" stroke-width="0.5" id="path2766"/><path d="M1.9 21v3.4" fill="#eac102" stroke="#000000" stroke-linecap="round" stroke-linejoin="round" stroke-width="0.5" id="path2768"/><path d="M-1.5 35.1v3.5" fill="#eac102" stroke="#000000" stroke-linecap="round" stroke-linejoin="round" stroke-width="0.5" id="path2770"/><path d="M1.8 35.1v3.5" fill="#eac102" stroke="#000000" stroke-linecap="round" stroke-linejoin="round" stroke-width="0.5" id="path2772"/><path d="m4.7 17.5 1.7-1" fill="none" stroke="#000000" stroke-width="0.5" id="path2774"/><path d="m-4.7 17.5-1.7-1" fill="none" stroke="#000000" stroke-width="0.5" id="path2776"/><path d="M-4.7 17.6h9.2" fill="#eac102" stroke="#000000" stroke-linecap="round" stroke-linejoin="round" stroke-width="0.5" id="path2778"/><path d="m4.7 14 1.7-1.2" fill="none" stroke="#000000" stroke-width="0.5" id="path2780"/><path d="m-4.7 14-1.7-1.2" fill="none" stroke="#000000" stroke-width="0.5" id="path2782"/><path d="M-4.7 14h9.2" fill="#eac102" stroke="#000000" stroke-linecap="round" stroke-linejoin="round" stroke-width="0.5" id="path2784"/><path d="M-1.5 14v3.4" fill="#eac102" stroke="#000000" stroke-linecap="round" stroke-linejoin="round" stroke-width="0.5" id="path2786"/><path d="M1.9 14v3.4" fill="#eac102" stroke="#000000" stroke-linecap="round" stroke-linejoin="round" stroke-width="0.5" id="path2788"/><path d="M0 6.4v7.4" fill="#eac102" stroke="#000000" stroke-linecap="round" stroke-linejoin="round" stroke-width="0.5" id="path2790"/><path d="M-4.5 31.5h2.3" fill="#eac102" stroke="#000000" stroke-linecap="round" stroke-linejoin="round" stroke-width="0.5" id="path2792"/><path d="M-4.5 27.9h2.3" fill="#eac102" stroke="#000000" stroke-linecap="round" stroke-linejoin="round" stroke-width="0.5" id="path2794"/><path d="M0 34.4v.5" fill="#eac102" stroke="#000000" stroke-linecap="round" stroke-linejoin="round" stroke-width="0.5" id="path2796"/><path d="m20.7 12.8 1.7-1" fill="none" stroke="#000000" stroke-width="0.5" id="path2798"/><path d="m20.7 16.4 1.7-1.2" fill="none" stroke="#000000" stroke-width="0.5" id="path2800"/><path d="m20.7 19.9 1.7-1.1" fill="none" stroke="#000000" stroke-width="0.5" id="path2802"/><path d="m20.7 23.4 1.7-1.1" fill="none" stroke="#000000" stroke-width="0.5" id="path2804"/><path d="m20.7 26.9 1.7-1.1" fill="none" stroke="#000000" stroke-width="0.5" id="path2806"/><path d="m11.4 12.8-1.8-1" fill="none" stroke="#000000" stroke-width="0.5" id="path2808"/><path d="m11.4 16.4-1.8-1.2" fill="none" stroke="#000000" stroke-width="0.5" id="path2810"/><path d="m11.4 19.9-1.8-1.1" fill="none" stroke="#000000" stroke-width="0.5" id="path2812"/><path d="m11.4 23.4-1.8-1.1" fill="none" stroke="#000000" stroke-width="0.5" id="path2814"/><path d="m11.4 26.9-1.8-1.1" fill="none" stroke="#000000" stroke-width="0.5" id="path2816"/><path d="M16 16.6v1" fill="#eac102" stroke="#000000" stroke-linecap="round" stroke-linejoin="round" stroke-width="0.5" id="path2818"/><path d="M11.4 26.9h9.2" fill="#eac102" stroke="#000000" stroke-linecap="round" stroke-linejoin="round" stroke-width="0.5" id="path2820"/><path d="M18.1 23.4h2.3" fill="#eac102" stroke="#000000" stroke-linecap="round" stroke-linejoin="round" stroke-width="0.5" id="path2822"/><path d="M18.3 19.8h2.1" fill="#eac102" stroke="#000000" stroke-linecap="round" stroke-linejoin="round" stroke-width="0.5" id="path2824"/><path d="M11.4 16.4h9.2" fill="#eac102" stroke="#000000" stroke-linecap="round" stroke-linejoin="round" stroke-width="0.5" id="path2826"/><path d="M11.4 12.8h9.2" fill="#eac102" stroke="#000000" stroke-linecap="round" stroke-linejoin="round" stroke-width="0.5" id="path2828"/><path d="M16 6.6v6.2" fill="#eac102" stroke="#000000" stroke-linecap="round" stroke-linejoin="round" stroke-width="0.5" id="path2830"/><path d="M14.5 13v3.3" fill="#eac102" stroke="#000000" stroke-linecap="round" stroke-linejoin="round" stroke-width="0.5" id="path2832"/><path d="M17.9 12.9v3.4" fill="#eac102" stroke="#000000" stroke-linecap="round" stroke-linejoin="round" stroke-width="0.5" id="path2834"/><path d="M14.5 26.8v3.7" fill="#eac102" stroke="#000000" stroke-linecap="round" stroke-linejoin="round" stroke-width="0.5" id="path2836"/><path d="M17.8 26.8v3.7" fill="#eac102" stroke="#000000" stroke-linecap="round" stroke-linejoin="round" stroke-width="0.5" id="path2838"/><path d="M11.6 23.4h2.2" fill="#eac102" stroke="#000000" stroke-linecap="round" stroke-linejoin="round" stroke-width="0.5" id="path2840"/><path d="M11.5 19.8h2.2" fill="#eac102" stroke="#000000" stroke-linecap="round" stroke-linejoin="round" stroke-width="0.5" id="path2842"/><path d="M16 26.3v.5" fill="#eac102" stroke="#000000" stroke-linecap="round" stroke-linejoin="round" stroke-width="0.5" id="path2844"/><path d="m-11.4 12.8 1.8-1" fill="none" stroke="#000000" stroke-width="0.5" id="path2846"/><path d="m-11.4 16.4 1.8-1.2" fill="none" stroke="#000000" stroke-width="0.5" id="path2848"/><path d="m-11.4 19.9 1.8-1.1" fill="none" stroke="#000000" stroke-width="0.5" id="path2850"/><path d="m-11.4 23.4 1.8-1.1" fill="none" stroke="#000000" stroke-width="0.5" id="path2852"/><path d="m-11.4 26.9 1.8-1.1" fill="none" stroke="#000000" stroke-width="0.5" id="path2854"/><path d="m-20.7 12.8-1.8-1" fill="none" stroke="#000000" stroke-width="0.5" id="path2856"/><path d="m-20.7 16.4-1.8-1.2" fill="none" stroke="#000000" stroke-width="0.5" id="path2858"/><path d="m-20.7 19.9-1.8-1.1" fill="none" stroke="#000000" stroke-width="0.5" id="path2860"/><path d="m-20.7 23.4-1.8-1.1" fill="none" stroke="#000000" stroke-width="0.5" id="path2862"/><path d="m-20.7 26.9-1.8-1.1" fill="none" stroke="#000000" stroke-width="0.5" id="path2864"/><path d="M-16.1 16.6v1" fill="#eac102" stroke="#000000" stroke-linecap="round" stroke-linejoin="round" stroke-width="0.5" id="path2866"/><path d="M-20.7 26.9h9.2" fill="#eac102" stroke="#000000" stroke-linecap="round" stroke-linejoin="round" stroke-width="0.5" id="path2868"/><path d="M-14 23.4h2.3" fill="#eac102" stroke="#000000" stroke-linecap="round" stroke-linejoin="round" stroke-width="0.5" id="path2870"/><path d="M-13.8 19.8h2.2" fill="#eac102" stroke="#000000" stroke-linecap="round" stroke-linejoin="round" stroke-width="0.5" id="path2872"/><path d="M-20.7 16.4h9.2" fill="#eac102" stroke="#000000" stroke-linecap="round" stroke-linejoin="round" stroke-width="0.5" id="path2874"/><path d="M-20.7 12.8h9.2" fill="#eac102" stroke="#000000" stroke-linecap="round" stroke-linejoin="round" stroke-width="0.5" id="path2876"/><path d="M-16.1 6.6v6.2" fill="#eac102" stroke="#000000" stroke-linecap="round" stroke-linejoin="round" stroke-width="0.5" id="path2878"/><path d="M-17.6 13v3.3" fill="#eac102" stroke="#000000" stroke-linecap="round" stroke-linejoin="round" stroke-width="0.5" id="path2880"/><path d="M-14.2 12.9v3.4" fill="#eac102" stroke="#000000" stroke-linecap="round" stroke-linejoin="round" stroke-width="0.5" id="path2882"/><path d="M-17.6 26.8v3.7" fill="#eac102" stroke="#000000" stroke-linecap="round" stroke-linejoin="round" stroke-width="0.5" id="path2884"/><path d="m-14.3 26.8.1 3.7" fill="#eac102" stroke="#000000" stroke-linecap="round" stroke-linejoin="round" stroke-width="0.5" id="path2886"/><path d="M-20.5 23.4h2.2" fill="#eac102" stroke="#000000" stroke-linecap="round" stroke-linejoin="round" stroke-width="0.5" id="path2888"/><path d="M-20.6 19.8h2.2" fill="#eac102" stroke="#000000" stroke-linecap="round" stroke-linejoin="round" stroke-width="0.5" id="path2890"/><path d="M-16.1 26.3v.5" fill="#eac102" stroke="#000000" stroke-linecap="round" stroke-linejoin="round" stroke-width="0.5" id="path2892"/><path d="M-13.2-15.9v9.5c0 3.1 1.3 4 2.7 4s2.6-.8 2.7-4V-16z" fill="#0071bc" stroke="#000000" stroke-linecap="round" stroke-linejoin="round" stroke-width="0.5" id="path2894"/><path d="M7.8-15.9v9.5c0 3.1 1.4 4 2.7 4s2.7-.8 2.7-4V-16z" fill="#0071bc" stroke="#000000" stroke-linecap="round" stroke-linejoin="round" stroke-width="0.5" id="path2896"/><path d="M-3.8-44.7v10.1c0 4.5 1.9 5.8 3.8 5.8 2 0 3.8-1.2 3.8-5.9v-10z" fill="#0071bc" stroke="#000000" stroke-linecap="round" stroke-linejoin="round" stroke-width="0.5" id="path2898"/><path d="m-18 17.6-.1 6c0 2 1 2.5 2 2.5 1.1 0 2-.5 2.1-2.6v-5.9z" fill="#0071bc" stroke="#000000" stroke-linecap="round" stroke-linejoin="round" stroke-width="0.5" id="path2900"/><path d="M14 17.6v6c0 2 1 2.5 2 2.5s2-.5 2-2.6v-5.9z" fill="#0071bc" stroke="#000000" stroke-linecap="round" stroke-linejoin="round" stroke-width="0.5" id="path2902"/><path d="M-2 25.7v6c0 2 1 2.5 2 2.5s2-.5 2-2.6v-5.9Z" fill="#0071bc" stroke="#000000" stroke-linecap="round" stroke-linejoin="round" stroke-width="0.5" id="path2904"/><path d="m-18.8 7.7-8.6-2.3 2.5-2.6v-29l-4-4v-9.2l9.1-5.4h16v10.2a11 11 0 0 0 .7 3.8l1 1.4.7.3q.7.3 1.4.3.8 0 1.4-.3a3 3 0 0 0 1.7-1.7l.4-1q.3-1.1.3-2.9v-10h16l9.1 5.3v9.1l-4 4.1v29l2.5 2.6-8.6 2.3zm8-10h.3c1.3-.1 2.6-.9 2.7-4.2v-9.4h-5.4v9.5c0 3 1.1 4 2.4 4m21 0h.3c1.4-.1 2.7-.9 2.7-4.2V-16H7.8v9.5c0 3 1.2 4 2.5 4" fill="#eac102" stroke="#000000" stroke-linecap="round" stroke-linejoin="round" stroke-width="0.5" id="path2906"/><path d="m-29-30.3 9.3-5.2v-9.2" fill="none" stroke="#000000" stroke-width="0.5" id="path2908"/><path d="m-24.8-26.2 9-2.4m-4-6.9 4 6.9" fill="none" stroke="#000000" stroke-width="0.5" id="path2910"/><path d="M-15.8-28.5V4.6" fill="none" stroke="#000000" stroke-width="0.5" id="path2912"/><path d="m-18.7 7.7 2.9-3" fill="none" stroke="#000000" stroke-width="0.5" id="path2914"/><path d="m-24.9 2.8 9.1 1.9" fill="none" stroke="#000000" stroke-width="0.5" id="path2916"/><path d="m29-30.3-9.3-5.2v-9.2" fill="none" stroke="#000000" stroke-width="0.5" id="path2918"/><path d="m24.8-26.2-9-2.4m4-6.9-4 6.9" fill="none" stroke="#000000" stroke-width="0.5" id="path2920"/><path d="M15.8-28.5V4.6" fill="none" stroke="#000000" stroke-width="0.5" id="path2922"/><path d="m18.7 7.7-2.9-3" fill="none" stroke="#000000" stroke-width="0.5" id="path2924"/><path d="m24.9 2.8-9.1 1.9" fill="none" stroke="#000000" stroke-width="0.5" id="path2926"/><path d="M-15.8-28.6h31.6" fill="none" stroke="#000000" stroke-width="0.5" id="path2928"/><path d="M-15.8 4.7h31.6" fill="none" stroke="#000000" stroke-width="0.5" id="path2930"/><path d="M4.7-35.5h15" fill="none" stroke="#000000" stroke-width="0.5" id="path2932"/><path d="M-19.7-35.5h15" fill="none" stroke="#000000" stroke-width="0.5" id="path2934"/><path d="M-.1-26.4c-3.2.1-6.4-1.7-6.5-7.5s.2-10.9.2-10.9h2.6v10.2a11 11 0 0 0 .7 3.8l1 1.3.7.4q.7.3 1.4.3.8 0 1.4-.3l.7-.4.5-.5.5-.8.4-1q.3-1.2.3-2.9v-10h2.4s.2 4.5 0 10.7c0 6.1-3 7.5-6.3 7.6" fill="#eac102" stroke="#000000" stroke-linecap="round" stroke-linejoin="round" stroke-width="0.5" id="path2936"/><path d="m25 12.8-1.4-.4V9.6l2 .5V12z" fill="#eac102" stroke="#000000" stroke-linecap="round" stroke-linejoin="round" stroke-width="0.5" id="path2938"/><path d="m18.6 15.6 3.3-1.5v-2.4l3-1v2l2.6-1V5.5l-9 2z" fill="#eac102" stroke="#000000" stroke-linecap="round" stroke-linejoin="round" stroke-width="0.5" id="path2940"/><path d="m-25 12.8 1.4-.4V9.6l-2 .5V12z" fill="#eac102" stroke="#000000" stroke-linecap="round" stroke-linejoin="round" stroke-width="0.5" id="path2942"/><path d="M-18.6 15.6-22 14v-2.4l-3-1v2l-2.6-1V5.5l9 1.8z" fill="#eac102" stroke="#000000" stroke-linecap="round" stroke-linejoin="round" stroke-width="0.5" id="path2944"/><path d="M-11.1 15.6h-7.6V7.4h37.4v8.2h-7.5v-3.4H3.7v3.4h-7.3v-3.4h-7.5z" fill="#eac102" stroke="#000000" stroke-linecap="round" stroke-linejoin="round" stroke-width="0.5" id="path2946"/><path d="m24.7-2-9 1.1" fill="none" stroke="#000000" stroke-width="0.5" id="path2948"/><path d="m24.7-6.9-8.8.5" fill="none" stroke="#000000" stroke-width="0.5" id="path2950"/><path d="M24.7-11.7 16-12" fill="none" stroke="#000000" stroke-width="0.5" id="path2952"/><path d="m24.7-16.6-9-1" fill="none" stroke="#000000" stroke-width="0.5" id="path2954"/><path d="m24.7-21.4-9-1.7" fill="none" stroke="#000000" stroke-width="0.5" id="path2956"/><path d="m19.8-40 9 5.2" fill="none" stroke="#000000" stroke-width="0.5" id="path2958"/><path d="M20.3 3.7v-5.1" fill="none" stroke="#000000" stroke-width="0.5" id="path2960"/><path d="M20.3-6.7v-5" fill="none" stroke="#000000" stroke-width="0.5" id="path2962"/><path d="M20.3-17v-5.1" fill="none" stroke="#000000" stroke-width="0.5" id="path2964"/><path d="m20.3-27.4 4-5.4" fill="none" stroke="#000000" stroke-width="0.5" id="path2966"/><path d="M24.3-42v4.5" fill="none" stroke="#000000" stroke-width="0.5" id="path2968"/><path d="M17.7-1.1v-5.4" fill="none" stroke="#000000" stroke-width="0.5" id="path2970"/><path d="M23.3-1.9v-4.8" fill="none" stroke="#000000" stroke-width="0.5" id="path2972"/><path d="M17.7-12v-5.2" fill="none" stroke="#000000" stroke-width="0.5" id="path2974"/><path d="M23.3-11.9v-4.8" fill="none" stroke="#000000" stroke-width="0.5" id="path2976"/><path d="M17.7-22.7V-28" fill="none" stroke="#000000" stroke-width="0.5" id="path2978"/><path d="M23.3-21.7v-5" fill="none" stroke="#000000" stroke-width="0.5" id="path2980"/><path d="M21.6-34.4v-4.5" fill="none" stroke="#000000" stroke-width="0.5" id="path2982"/><path d="M27.3-31.2v-4.6" fill="none" stroke="#000000" stroke-width="0.5" id="path2984"/><path d="m-19.8-40-9.1 5.2" fill="none" stroke="#000000" stroke-width="0.5" id="path2986"/><path d="m-24.8-2 9 1.1" fill="none" stroke="#000000" stroke-width="0.5" id="path2988"/><path d="m-24.8-6.9 9 .5" fill="none" stroke="#000000" stroke-width="0.5" id="path2990"/><path d="m-24.8-11.7 9-.3" fill="none" stroke="#000000" stroke-width="0.5" id="path2992"/><path d="m-24.8-16.6 9-1" fill="none" stroke="#000000" stroke-width="0.5" id="path2994"/><path d="m-24.8-21.4 9-1.7" fill="none" stroke="#000000" stroke-width="0.5" id="path2996"/><path d="m-19.8-40-9 5.2" fill="none" stroke="#000000" stroke-width="0.5" id="path2998"/><path d="M-20.3 3.7v-5.1" fill="none" stroke="#000000" stroke-width="0.5" id="path3000"/><path d="M-20.3-6.7v-5" fill="none" stroke="#000000" stroke-width="0.5" id="path3002"/><path d="M-20.3-17v-5.1" fill="none" stroke="#000000" stroke-width="0.5" id="path3004"/><path d="m-20.3-27.4-4-5.4" fill="none" stroke="#000000" stroke-width="0.5" id="path3006"/><path d="M-24.3-42v4.5" fill="none" stroke="#000000" stroke-width="0.5" id="path3008"/><path d="M-17.7-1.1v-5.4" fill="none" stroke="#000000" stroke-width="0.5" id="path3010"/><path d="M-23.3-1.9v-4.8" fill="none" stroke="#000000" stroke-width="0.5" id="path3012"/><path d="M-17.7-12v-5.2" fill="none" stroke="#000000" stroke-width="0.5" id="path3014"/><path d="M-23.3-11.9v-4.8" fill="none" stroke="#000000" stroke-width="0.5" id="path3016"/><path d="M-17.7-22.7V-28" fill="none" stroke="#000000" stroke-width="0.5" id="path3018"/><path d="M-23.3-21.7v-5" fill="none" stroke="#000000" stroke-width="0.5" id="path3020"/><path d="M-21.6-34.4v-4.5" fill="none" stroke="#000000" stroke-width="0.5" id="path3022"/><path d="M-27.3-31.2v-4.6" fill="none" stroke="#000000" stroke-width="0.5" id="path3024"/><path d="M10.4-2.3V-1" fill="none" stroke="#000000" stroke-width="0.5" id="path3026"/><path d="M6.4-40h13.4" fill="none" stroke="#000000" stroke-width="0.5" id="path3028"/><path d="M-16-.9h31.7" fill="none" stroke="#000000" stroke-width="0.5" id="path3030"/><path d="M-7.6-6.4H7.7" fill="none" stroke="#000000" stroke-width="0.5" id="path3032"/><path d="M-7.7-12H7.6" fill="none" stroke="#000000" stroke-width="0.5" id="path3034"/><path d="M-16-17.5h31.7" fill="none" stroke="#000000" stroke-width="0.5" id="path3036"/><path d="M-16-23h31.7" fill="none" stroke="#000000" stroke-width="0.5" id="path3038"/><path d="M-5.4-.8v5.5" fill="none" stroke="#000000" stroke-width="0.5" id="path3040"/><path d="M5.1-.8v5.5" fill="none" stroke="#000000" stroke-width="0.5" id="path3042"/><path d="M-5.4-11.9v5.5" fill="none" stroke="#000000" stroke-width="0.5" id="path3044"/><path d="M5.1-11.9v5.5" fill="none" stroke="#000000" stroke-width="0.5" id="path3046"/><path d="M-5.4-23v5.4" fill="none" stroke="#000000" stroke-width="0.5" id="path3048"/><path d="M5.1-23v5.4" fill="none" stroke="#000000" stroke-width="0.5" id="path3050"/><path d="M-10.6-2.2V-1" fill="none" stroke="#000000" stroke-width="0.5" id="path3052"/><path d="M0-6.3V-1" fill="none" stroke="#000000" stroke-width="0.5" id="path3054"/><path d="M-10.6-17.4v1.4" fill="none" stroke="#000000" stroke-width="0.5" id="path3056"/><path d="M0-17.4v5.4" fill="none" stroke="#000000" stroke-width="0.5" id="path3058"/><path d="M10.4-17.3v1.3" fill="none" stroke="#000000" stroke-width="0.5" id="path3060"/><path d="M-10.6-28.6v5.4" fill="none" stroke="#000000" stroke-width="0.5" id="path3062"/><path d="M0-26.3v3.1" fill="none" stroke="#000000" stroke-width="0.5" id="path3064"/><path d="M10.4-28.6v5.4" fill="none" stroke="#000000" stroke-width="0.5" id="path3066"/><path d="m-12.6-35.3 2 6.7" fill="none" stroke="#000000" stroke-width="0.5" id="path3068"/><path d="m12.3-35.3-2 6.7" fill="none" stroke="#000000" stroke-width="0.5" id="path3070"/><path d="M-12.7-44.8v4.7" fill="none" stroke="#000000" stroke-width="0.5" id="path3072"/><path d="M12.4-44.8v4.7" fill="none" stroke="#000000" stroke-width="0.5" id="path3074"/><path d="M-16.5-40v4.5" fill="none" stroke="#000000" stroke-width="0.5" id="path3076"/><path d="M-10-40v4.5" fill="none" stroke="#000000" stroke-width="0.5" id="path3078"/><path d="M9.6-40v4.5" fill="none" stroke="#000000" stroke-width="0.5" id="path3080"/><path d="M16.2-40v4.5" fill="none" stroke="#000000" stroke-width="0.5" id="path3082"/><path d="M-19.7-40h13" fill="none" stroke="#000000" stroke-width="0.5" id="path3084"/><path d="M13.3-6.4h2.6" fill="none" stroke="#000000" stroke-width="0.5" id="path3086"/><path d="M-15.7-6.4h2.3" fill="none" stroke="#000000" stroke-width="0.5" id="path3088"/><path d="M13.4-12h2.3" fill="none" stroke="#000000" stroke-width="0.5" id="path3090"/><path d="M-15.7-12h2.4" fill="none" stroke="#000000" stroke-width="0.5" id="path3092"/><path d="M-15.3 4.7q.2 2 2.3 2.1c1.2 0 2.2-1 2.2-2.1H-13z" fill="none" stroke="#000000" stroke-width="0.5" id="path3094"/><path d="M-10 4.7c0 1.2 1 2.1 2.2 2.1s2.2-1 2.2-2.1h-2.2z" fill="none" stroke="#000000" stroke-width="0.5" id="path3096"/><path d="M10.8 4.7q.2 2 2.3 2.1c1.2 0 2.2-1 2.2-2.1H13Z" fill="none" stroke="#000000" stroke-width="0.5" id="path3098"/><path d="M5.6 4.7q.2 2 2.2 2.1c1.2 0 2.2-1 2.2-2.1H7.8Z" fill="none" stroke="#000000" stroke-width="0.5" id="path3100"/><path d="M.3 4.7q.2 2 2.3 2.1c1.2 0 2.2-1 2.2-2.1H2.6Z" fill="none" stroke="#000000" stroke-width="0.5" id="path3102"/><path d="M-4.9 4.7q.2 2 2.3 2.1c1.2 0 2.2-1 2.2-2.1h-2.2z" fill="none" stroke="#000000" stroke-width="0.5" id="path3104"/><path d="M-24.2 2.9s-1.8 2 0 2.5c1.6.4 3.4-1.8 3.4-1.8" fill="none" stroke="#000000" stroke-width="0.5" id="path3106"/><path d="M-20.2 3.9s-1.8 2 0 2.4c1.6.5 3.4-1.7 3.4-1.7" fill="none" stroke="#000000" stroke-width="0.5" id="path3108"/><path d="M24.2 2.9s1.8 2 0 2.5c-1.6.4-3.4-1.8-3.4-1.8" fill="none" stroke="#000000" stroke-width="0.5" id="path3110"/><path d="M20.2 3.9s1.8 2 0 2.4c-1.6.5-3.4-1.7-3.4-1.7" fill="none" stroke="#000000" stroke-width="0.5" id="path3112"/><path d="M.1-28.7v2.2" fill="none" stroke="#000000" stroke-width="0.5" id="path3114"/><path d="M-6.4-42.4h2.6" fill="none" stroke="#000000" stroke-width="0.5" id="path3116"/><path d="M-6.4-40h2.6" fill="none" stroke="#000000" stroke-width="0.5" id="path3118"/><path d="M-6.4-33h2.8" fill="none" stroke="#000000" stroke-width="0.5" id="path3120"/><path d="M-6.4-35.4h2.6" fill="none" stroke="#000000" stroke-width="0.5" id="path3122"/><path d="M-6.4-37.7h2.6" fill="none" stroke="#000000" stroke-width="0.5" id="path3124"/><path d="m-1.8-29.6-1.5 2.5" fill="none" stroke="#000000" stroke-width="0.5" id="path3126"/><path d="m-3-31.2-2.8 1.5" fill="none" stroke="#000000" stroke-width="0.5" id="path3128"/><path d="M6.4-42.4H3.8" fill="none" stroke="#000000" stroke-width="0.5" id="path3130"/><path d="M6.4-40H3.8" fill="none" stroke="#000000" stroke-width="0.5" id="path3132"/><path d="M6.4-33H3.8" fill="none" stroke="#000000" stroke-width="0.5" id="path3134"/><path d="M6.4-35.4H3.8" fill="none" stroke="#000000" stroke-width="0.5" id="path3136"/><path d="M6.4-37.7H3.8" fill="none" stroke="#000000" stroke-width="0.5" id="path3138"/><path d="M1.8-29.4 3.3-27" fill="none" stroke="#000000" stroke-width="0.5" id="path3140"/><path d="m3.3-31 2.5 1.3" fill="none" stroke="#000000" stroke-width="0.5" id="path3142"/></symbol><g stroke="#000000" id="g3315"><g fill="#eac102" id="g3157"><path d="M81.3 195.9c10.5 19.3 23 44 32.7 41 2.1-.9 2.8-5.7-.3-21.2l-19-35.1c-2.6-4-10-1-10.5 3.2z" id="path3145"/><path d="m97.4 217.2 3.4-9.5c-7-8.5-17.8-24-29.4-43.1-2.4-4-10.6-1.7-8.7 2.7 15.7 28 26.8 42.6 34.7 49.9z" id="path3147"/><path d="M628.8 195.9c-10.5 19.3-23 44-32.7 41-2.1-.9-2.8-5.7.3-21.2l19-35.1c2.6-4 10-1 10.5 3.2z" id="path3149"/><path d="m609.2 207.8 3.4 9.5c7.9-7.3 19-22 34.8-50 2-4.4-6.3-6.7-8.7-2.7a390 390 0 0 1-29.5 43.2z" id="path3151"/><path d="M1.2 83.3 8 78.6c19.7-4.5 37.2 12 37 19 5-4 9.9-2.6 14.8-2.4-2.9 8.5 0 14.8-3.5 23.8 4.6 1.3 8.1 3 9.1 6.2l4.6-2.6 5.6-.3c1 23.6-7.7 18.4-5.9 27.1l9.4-10.1 10.2 1c5 .8 6.4 6 11.7 6.5-3.8 4.6-6 12.5-9.6 18a12 12 0 0 1-11.8.7c11.8 3.8 15 12.8 19.6 17.6-4.9.3-9.2.7-11.3 1 7.5 9.4 11.8 16.9 19 22.1l-4.3.7-22.2-9.6-18.7-17-23-31.3-.9-49.5C26.1 94.2 28 82 1.2 83.3" stroke-linecap="round" stroke-linejoin="round" id="path3153"/><path d="M.5 83.6c32 3 32 42.7 38.3 66.3l20.5 30.4c12.9 11 21.2 24.7 29.2 26.3 7.8 1.6 7.3-1.3 15.1.3-15.4-6-8.3-20-40.4-28.4 10.4-5 10.4 8.9 31.1 4.9-5.7-12.5-17.9-13.1-23.4-17.8 8.4-2.4 9.4 2.4 15.5.2 6.9-2.4 5.3-11.7 10.7-18-7-2.7-12.8-11-21.6-7-3 2.3-7.5 9.8-12.5 11.5-2.1-10 5-10.9 6.5-16s-1-6.5.4-13.6c-23 7.4-14.3 21-24.8 26.9-.1-14.4 4.5-8.3 13-24-3.2-4.3-5.5-3.5-8.1-4.8 4.2-8 .4-12.9 4.8-24.1-8.4-2.5-11.3 1.5-13.7 4-.8-6.9-19.3-29.4-40.6-17Z" stroke-linejoin="round" id="path3155"/></g><path d="M46.2 110.6c-6.8 13.4-6.1 26.9-5.6 40.3m16.5-7.1c-1.3 6.7-6.2 10.4-11.2 13.9m35.2-4c-12.2.8-13 7.6-31 9.9m3.5 4.3a63 63 0 0 1 23.3 7.2m-18.7 2.4C70 190.1 80 191.3 83.6 197.7" fill="none" id="path3159"/><path d="m57.7 176.8-.3.2c-6 3.5-14.8 1-19.7-5.5s-4-14.6 2-18.1l.4-.2z" fill="#ffffff" id="path3161"/><g fill="#eac102" id="g3169"><path d="m39.8 150.4-3.3 1.8 20.6 27.6 3.3-1.9a137 137 0 0 0-20.6-27.6Z" id="path3163"/><path d="m708.9 83.3-6.9-4.7c-19.6-4.5-37.1 12-37 19-5-4-9.8-2.6-14.7-2.4 2.9 8.5 0 14.8 3.4 23.8-4.5 1.3-8 3-9 6.2l-4.6-2.6-5.6-.3c-1.1 23.6 7.6 18.4 5.9 27.1l-9.4-10.1-10.2 1c-5 .8-6.4 6-11.8 6.5 3.8 4.6 6.1 12.5 9.7 18 4.3 2.7 8.1 2.3 11.8.7-11.9 3.8-15 12.8-19.6 17.6 4.9.3 9.2.7 11.3 1-7.5 9.4-11.8 16.9-19 22.1l4.2.7 22.2-9.6 18.8-17 23-31.3.8-49.5c11.8-5.3 10-17.5 36.7-16.2" stroke-linecap="round" stroke-linejoin="round" id="path3165"/><path d="M709.6 83.6c-32 3-32 42.7-38.3 66.3l-20.5 30.4c-13 11-21.3 24.7-29.3 26.3-7.7 1.6-7.2-1.3-15 .3 15.4-6 8.3-20 40.4-28.4-10.4-5-10.4 8.9-31.2 4.9 5.7-12.5 18-13.2 23.5-17.8-8.5-2.4-9.4 2.4-15.6.2-6.8-2.4-5.2-11.8-10.7-18 7.1-2.7 12.9-11 21.6-7 3 2.3 7.6 9.8 12.6 11.5 2.1-10-5-10.9-6.5-16s.9-6.5-.5-13.6c23 7.4 14.4 21 24.9 26.9 0-14.4-4.5-8.3-13-24 3.2-4.3 5.4-3.5 8.1-4.8-4.2-8-.4-13-4.9-24.1 8.5-2.5 11.4 1.5 13.7 4 .9-6.9 19.4-29.4 40.7-17z" stroke-linejoin="round" id="path3167"/></g><path d="M663.8 110.6c6.9 13.4 6.2 26.9 5.7 40.3m-16.6-7.1c1.4 6.7 6.2 10.4 11.3 13.9m-35.2-4c12.1.8 13 7.6 31 9.9m-3.6 4.3a63 63 0 0 0-23.2 7.2m18.7 2.4c-11.9 12.6-21.8 13.8-25.4 20.2" fill="none" id="path3171"/><path d="m652.4 176.8.3.2c6 3.5 14.8 1 19.7-5.5s4-14.6-2-18.1l-.4-.2z" fill="#ffffff" id="path3173"/><g fill="#eac102" id="g3185"><path d="m670.3 150.4 3.2 1.8-20.6 27.6-3.2-1.9a137 137 0 0 1 20.6-27.6z" id="path3175"/><path d="M355 124.2c-1.7 0-3.5 1.1-3.5 3.2-1.7 20.9-10.3 53.4-42.3 59.3-31.7 5.8-59.7-38.6-60.9-56.2 0-2.7-2-3.7-4.3-3.6-2.4.1-5 1.7-4.3 4 4.7 24.2-.2 54.9-22.2 60.4-21.9 5.4-45.8-20.2-62.8-52.2-1.6-6-10.7-3.7-9 .8 14 33.2 9.3 56.6-.7 61.5-12.2 3.7-37.5-25.6-51.7-51.3-2.4-3.5-11.4-1.7-9.2 2.8 10.3 19.8 20.6 39.6 21 59.7q-1.8-1.7-4.3-5l-3.5 9.6c8.4 7.8 13 7.3 15.3 5.2 4.7-4 4.8-12.6-1.5-31.6 11.5 11.4 29.6 25.5 41.2 17.8 11.6-7.8 12.7-21.8 11.6-38.7 14.2 17.5 35.8 35.5 55.2 31 19.7-4.5 28.2-21.6 30.9-43.5 10.8 19.8 33.1 42.4 60.6 39 26.4-3.4 41.6-32.6 44.4-42.2 2.8 9.6 18 38.8 44.4 42.2 27.5 3.4 49.8-19.2 60.7-39 2.6 21.8 11.2 39 30.8 43.5 19.4 4.5 41-13.5 55.2-31-1 17 0 31 11.7 38.7s29.6-6.4 41-17.8c-6.1 19-6 27.5-1.4 31.6 2.3 2 7 2.6 15.2-5l-3.5-9.6q-2.4 3-4.3 4.8c.5-20.1 10.8-40 21.2-59.7 2-4.5-6.8-6.3-9.2-2.8-14.3 25.8-39.6 55-51.7 51.3-10-4.9-14.7-28.3-.8-61.5 1.7-4.5-7.4-6.8-9-.8-17 32-40.9 57.6-62.8 52.2-22-5.5-26.9-36.2-22.2-60.3 1.2-4.4-8.6-6.2-8.6-.5-1.2 17.6-29.2 62-60.9 56.2-32-6-40.6-38.4-42.2-59.3 0-2.2-1.8-3.2-3.5-3.2z" id="path3177"/><path d="M295.4 70.6S310 68 318 80c7.7 11.8 26.8 10.6 26.8 10.6l-8 26.6-51.9-20c-.4 0 3.2-5 9.8-4.5s10.4 9.2 20.6 5.1z" id="path3179"/><path d="M414.7 70.6S400 68 392.1 80c-7.8 11.8-26.8 10.6-26.8 10.6l8 26.6 51.9-20c.3 0-3.2-5-9.9-4.5-6.6.5-10.4 9.2-20.5 5.1z" id="path3181"/><path d="M355 .6c-9 9.8-18 20.8-18.6 35.2-7.1-7.5-14.3-2.2-21.4-.9 3.6 5-.1 18.4 4.8 27.5-5.2.5-7.6 5.1-10.8 7.9 2.2 8 26.5 9.2 30.7 23.9-26.4-2.7-18-22.1-44.6-23.6-4.3 22.2 12.6 17.8 14 30-8.1 1.5-10.2-6.8-17.2-6.5-9.9.5-14.1 11.5-20.4 15.2 9.6 2.7 13.3 12 23 14.2 5.1 1.2 7.6-8.1 15.7-4-8 11.3-16 8-11.9 24 30.3 2.7 18-18.3 38.1-15.1-30.5 19-13.7 26.3-21.4 41 15.7-6.4 21.4-2 40-15.5 18.7 13.5 24.4 9 40.1 15.6-7.7-14.8 9.1-22-21.4-41.1 20.2-3.1 7.8 17.8 38 15 4.1-15.9-3.8-12.6-11.8-23.8 8.1-4.2 10.6 5.1 15.8 4 9.6-2.3 13.3-11.6 22.9-14.3-6.3-3.7-10.5-14.7-20.4-15.2-7-.3-9 8-17.1 6.4 1.3-12 18.2-7.7 14-29.9-26.6 1.5-18.2 20.9-44.7 23.6 4.2-14.7 28.5-15.9 30.7-24-3.2-2.7-5.5-7.3-10.7-7.8 4.8-9.1 1.1-22.6 4.7-27.5-7.1-1.3-14.3-6.6-21.4 1-.5-14.5-9.6-25.5-18.5-35.3l-.1-.1z" id="path3183"/></g><g stroke-linecap="round" id="g3193"><path d="M355.2 96c-.9-1.7 0-81.4 0-81.4m-4.8 110c-2.4 9.5-10.9 24.8-20.8 30.2m10.4-38.9c-7.9.4-22.5 8.5-28.3 12.3m27-16c-28 2.7-39.4-8.8-48-5.2m49.1-3L325 99.8c-5.2-1.5-8.3-7.9-11.6-11.4m38.1 5.9S351 89 344.7 74c-6-14.5-14-22.2-14-22.2m29 72.6c2.3 9.6 10.8 24.9 20.8 30.3M370 115.9c8 .4 22.6 8.5 28.4 12.3m-27-16c28 2.7 39.4-8.8 48-5.2m-49.1-3 14.9-4.2c5.1-1.5 8.3-7.9 11.6-11.4m-38.1 5.9s.4-5.3 6.6-20.2c6.1-14.5 14-22.2 14-22.2" fill="none" id="path3187"/><path d="M373.9 110c0 9.7-8.2 17.5-18.3 17.5a18 18 0 0 1-18.4-17.4v0a18 18 0 0 1 18.3-17.5c10.1 0 18.4 7.8 18.4 17.4q0 0 0 0" fill="#eac102" stroke-linejoin="round" id="path3189"/><path d="M370.1 110c0 7.7-6.5 13.9-14.5 14s-14.6-6.2-14.7-13.9v0c0-7.7 6.5-13.9 14.6-13.9s14.6 6.2 14.6 13.8q0 0 0 0" fill="#ffffff" stroke-linejoin="round" id="path3191"/></g><g fill="#eac102" id="g3203"><path d="M354.8 194.6c-73.1.7-147 .8-218.9 15.2-16 4.8-39 7.5-45 24.4-2 14.2 16.2 20.2 27.5 24 54 15.4 110.9 16.7 166.8 19 86.9 1.7 174.3 2.4 260.6-9 23.6-4.3 49.5-7 68.9-21.5 11.6-10.7-1.2-25.7-14-28.8-44-16-91.8-17.6-138.2-20.9q-53.8-2.6-107.7-2.4z" id="path3195"/><path d="M355 212a2274 2274 0 0 0-118.2 2.8c-63 3.5-96.7 9.8-114.8 15.5l-4.3 1.4a50 50 0 0 0-14 7.4l-1 1c-1.7 1.7-1.6 2.8-1.6 2.8l13.7 47h480.4l13.8-47s0-1-1.6-2.8l-1-1c-2.2-2-6.3-4.6-14.1-7.4-17-6-50.9-13-119.1-16.9l-16.4-.8q-42.3-2-101.8-2z" id="path3197"/><path d="M468.8 235c0 9.3-7.3 16.9-16.3 17a16.6 16.6 0 0 1-16.6-17c0-9.2 7.2-16.8 16.3-16.9a16.6 16.6 0 0 1 16.6 17" stroke-linecap="round" stroke-linejoin="round" id="path3199"/><path d="M470.2 235c0 9.3-7.1 16.9-16 17a16.4 16.4 0 0 1-16.2-17c0-9.2 7.1-16.8 16-16.9a16.4 16.4 0 0 1 16.2 17" stroke-linecap="round" stroke-linejoin="round" id="path3201"/></g><g stroke-linecap="round" stroke-linejoin="round" id="g3213"><path d="M468.7 235c0 8-6.3 14.6-14.2 14.6-7.8.1-14.2-6.3-14.3-14.4v-.2c0-8 6.3-14.5 14.2-14.6a14.4 14.4 0 0 1 14.3 14.6" fill="#ffffff" id="path3205"/><path d="M241.2 235c0 9.3 7.3 16.9 16.4 17 9 0 16.5-7.5 16.6-16.8v-.2c0-9.2-7.3-16.8-16.4-16.9a16.6 16.6 0 0 0-16.6 17" fill="#eac102" id="path3207"/><path d="M239.9 235c0 9.3 7 16.9 16 17 8.8 0 16.1-7.5 16.2-16.8v-.2c0-9.2-7.1-16.8-16-16.9a16.4 16.4 0 0 0-16.2 17" fill="#eac102" id="path3209"/><path d="M241.4 235c0 8 6.3 14.6 14.1 14.6 7.9.1 14.3-6.3 14.4-14.4v-.2c0-8-6.3-14.5-14.2-14.6s-14.3 6.4-14.3 14.4z" fill="#ffffff" id="path3211"/></g><g fill="none" stroke-linecap="round" stroke-linejoin="round" id="g3221"><path d="m205.8 236.9-26.4-12.6-1.7.3 25.2 12.8z" id="path3215"/><path d="m205.8 236.9-26.4 22-1.7.4 25.2-21.9z" id="path3217"/><path d="M177.7 259.2 154 246.7l23.6-22" id="path3219"/></g><path d="m196.4 238.8-19 16.8-18.6-10.2 18.7-16.5z" fill="#008f4c" stroke-linecap="round" stroke-linejoin="round" id="path3223"/><g fill="none" stroke-linecap="round" stroke-linejoin="round" id="g3241"><path d="m183.6 241.1-10 8.9-9.9-5.4 10-8.7z" id="path3225"/><path d="m177.5 255.5-3.9-5.5" id="path3227"/><path d="m159 245.4 4.8-.8" id="path3229"/><path d="m183.6 241 12.4-2.2" id="path3231"/><path d="m173.6 236 3.9-7" id="path3233"/><path d="m504.2 236.9 26.4-12.6 1.7.3-25.2 12.8z" id="path3235"/><path d="m504.2 236.9 26.4 22 1.7.4-25.2-21.9z" id="path3237"/><path d="m532.3 259.2 23.7-12.5-23.6-22" id="path3239"/></g><path d="m513.6 238.8 19 16.8 18.6-10.2-18.7-16.5z" fill="#008f4c" stroke-linecap="round" stroke-linejoin="round" id="path3243"/><g fill="none" stroke-linecap="round" stroke-linejoin="round" id="g3255"><path d="m526.4 241.1 10 8.9 9.9-5.4-10-8.7z" id="path3245"/><path d="m532.5 255.5 3.9-5.5" id="path3247"/><path d="m551 245.4-4.8-.8" id="path3249"/><path d="m526.4 241-12.4-2.2" id="path3251"/><path d="m536.4 236-4-7" id="path3253"/></g><path d="M338.4 216h33.3c9.6 0 17.4 7.7 17.4 17.1s-7.8 17-17.4 17h-33.3c-9.6 0-17.4-7.6-17.4-17s7.8-17 17.4-17z" fill="#eac102" id="path3257"/><path d="M340 218.4h30c8.6 0 15.7 6.6 15.7 14.7s-7 14.7-15.7 14.7h-30c-8.6 0-15.6-6.6-15.6-14.7s7-14.7 15.7-14.7z" fill="#ed1c24" id="path3259"/><path d="m99.7 208-3.5 7.3 2.7 2.5 2.3-8.6c-.4-.5-1-1.2-1.5-1.1zm510.7 0c-.7 0-.7 0-1.8 1.4l2.7 8.2 2.1-2z" fill="#eac102" id="path3261"/><path d="m114 281.4-.4.2c-7.4 2.2-15.7-3-18.6-11.5s.7-17.3 8-19.5h.5z" fill="#ed1c24" id="path3263"/><g fill="#eac102" id="g3271"><path d="m104.1 247.2-4 1.2 12.3 36.2 4-1.2a151 151 0 0 0-12.3-36.2z" id="path3265"/><path d="M126 234c3.7 0 8.6 6.9 11.2 16s2 17.3-1.2 19.1l-.2.1-.6.2-6.4 1.6-2.8-10a43 43 0 0 1-4.4-15.2l-2.8-10z" stroke-linecap="round" stroke-linejoin="round" id="path3267"/><path d="M117.1 255.1c2.8 9.8 8.2 17 12 16 4-1 5-9.6 2.2-19.3v-.2c-2.8-9.7-8.2-16.9-12.1-16-4 1-4.9 9.6-2.1 19.3z" stroke-linecap="round" stroke-linejoin="round" id="path3269"/></g><path d="M119 238c-13.5 8-6 30.8 9.1 32 9-4.4-.8-34-9.1-32" fill="#ffffff" stroke-linecap="round" stroke-linejoin="round" id="path3273"/><path d="m596 281.4.4.2c7.4 2.2 15.7-3 18.6-11.5s-.7-17.3-8-19.5h-.5z" fill="#ed1c24" id="path3275"/><g fill="#eac102" id="g3283"><path d="m605.9 247.2 4 1.2-12.3 36.2-4-1.2c3.3-14.4 7.6-27.7 12.3-36.2z" id="path3277"/><path d="M584.1 234c-3.8 0-8.7 6.9-11.3 16s-2 17.3 1.3 19.1l.1.1.6.2 6.4 1.6 2.9-10a43 43 0 0 0 4.3-15.2l2.8-10z" stroke-linecap="round" stroke-linejoin="round" id="path3279"/><path d="M592.9 255.1c-2.8 9.8-8.2 17-12 16-4-1-5-9.6-2.2-19.3v-.2c2.8-9.7 8.2-16.9 12.1-16 4 1 4.9 9.6 2.2 19.3z" stroke-linecap="round" stroke-linejoin="round" id="path3281"/></g><path d="M591 238c13.6 8 6 30.8-9.1 32-9-4.4.8-34 9.1-32" fill="#ffffff" stroke-linecap="round" stroke-linejoin="round" id="path3285"/><path d="M133.5 292s47.8-23 221.5-23c173 0 221.5 22.9 221.5 22.9s-40.5 23-221.5 23c-181.6 0-221.5-23-221.5-23Z" fill="#eac102" id="path3287"/><path d="M298.6 317v-50m-10.2 50v-50m-9.7 50v-50m-9.5 50v-50m-8.4 50v-50m-16.4 50v-50m7.8 50v-50m-22.5 50v-50m7.3 50v-50m-27.5 50v-50m6.7 50v-50m6.8 50v-50m-20.5 50v-50m-6.5 50v-50m-7 50v-50m-14.5 50v-50m7.5 50v-50m-14.8 50v-50m-6.7 35v-20m-7.5 20v-20m-7.5 20v-20m-8 20v-20M339 317v-50m-17 50v-50m-12.7 50v-50m102 50v-50m10.2 50v-50m9.5 50v-50m9.6 50v-50m8.4 50v-50m16.4 50v-50m-7.7 50v-50m22.5 50v-50m-7.4 50v-50m27.5 50v-50m-6.5 50v-50m-6.8 50v-50m20.4 50v-50m6.5 50v-50m7.1 50v-50m14.5 50v-50m-7.5 50v-50m14.7 50v-50m6.7 35v-20m7.4 20v-20m7.6 20v-20m8 20v-20m-201.6 35v-50m17.2 50v-50m12.7 50v-50" fill="none" id="path3289"/><path d="M354.7 253.4c-67.4.7-135.5.8-201.7 14.1-14.8 4.4-35.9 6.9-41.4 22.5-1.8 13 14.8 18.6 25.3 22.2 49.7 14 102.2 15.3 153.6 17.5 80.1 1.5 160.7 2 240.2-8.4 21.7-4 45.6-6.5 63.5-19.8 10.7-10-1.1-23.7-12.9-26.6-40.4-14.6-84.5-16.2-127.3-19.2-33-1.7-66.2-2.2-99.3-2.3zm.2 15.7c173 0 221.5 22.9 221.5 22.9S536 314.9 355 314.9c-181.6 0-221.5-23-221.5-23s47.9-22.8 221.5-22.8z" fill="#eac102" id="path3291"/><path d="M547.3 148a38 38 0 0 0 14.5 4.8c-1.2 2.7-3.8 1-4 3.5-.3 2.4-12.1-1-10.3-3.2s-1.6-2.4-.2-5z" fill="#eac102" id="path3293"/><path d="M558 155c-3.3-.4-7-1.6-9.7-3.3" fill="none" id="path3295"/><path d="M159.3 141a38 38 0 0 1-14.5 4.8c1.2 2.7 3.8 1 4 3.4.3 2.5 12.1-.9 10.3-3.1s1.6-2.4.2-5z" fill="#eac102" id="path3297"/><path d="M101.3 100.6c-19.7 26.1 15.9 55 47 41.7 14-15.9-32.2-53-47-41.7" fill="#ffffff" stroke-linecap="round" stroke-linejoin="round" id="path3299"/><path d="M148.6 148c3.3-.5 7-1.6 9.7-3.3" fill="none" id="path3301"/><g fill="#ffffff" stroke-linecap="round" stroke-linejoin="round" id="g3313"><path d="M98 87.9c8.9 15.1 26.3 21.1 39 13.1s15.9-26.8 7.1-42l-.2-.4c-8.7-15.2-26-21.2-38.8-13.2s-15.9 26.8-7.1 42z" id="path3303"/><path d="M186.6 104.1c4.6 16.5-3.8 33-18.8 37-15.1 3.8-31.1-6.4-35.8-22.9l-.1-.4c-4.7-16.5 3.7-33 18.8-36.9 15-3.9 31 6.3 35.7 22.8z" id="path3305"/><path d="M605.6 106.2c22 24.5-11 56-43.1 45.3-15.5-14.6 27.3-55.4 43-45.3" id="path3307"/><path d="M610.8 95.1c-8.7 15.3-26.1 21.2-38.8 13.2s-15.9-26.7-7.2-42l.2-.4c8.8-15.2 26.2-21.1 38.8-13.2 12.7 8 16 26.8 7.2 42z" id="path3309"/><path d="M522.2 111.4c-4.6 16.5 3.8 33 18.8 36.9s31.1-6.4 35.8-22.9l.1-.3c4.7-16.5-3.7-33-18.8-37-15-3.8-31 6.4-35.8 22.9z" id="path3311"/></g></g><path d="M105.6 304v350.2a249.3 249.3 0 0 0 498.5 0V304Z" fill="#ed1c24" stroke="#000000" stroke-width="3" id="path3317"/><path d="M188.9 404.5v233.3a166 166 0 0 0 332 0V404.5Z" fill="#ffffff" stroke="#000000" id="path3319"/><use transform="matrix(1 0 0 -1 148.6 366.8)" x="-29.194" y="-45.014999" width="58.389" height="90.029999" xlink:href="#elm2" id="use3321"/><use transform="matrix(1 0 0 -1 561.4 366.8)" x="-29.194" y="-45.014999" width="58.389" height="90.029999" xlink:href="#elm2" id="use3323"/><use transform="matrix(1 0 0 -1 148.6 592.9)" x="-29.194" y="-45.014999" width="58.389" height="90.029999" xlink:href="#elm2" id="use3325"/><use transform="matrix(1 0 0 -1 561.4 592.9)" x="-29.194" y="-45.014999" width="58.389" height="90.029999" xlink:href="#elm2" id="use3327"/><use transform="matrix(1 0 0 -1 197.9 776.3)" x="-29.194" y="-45.014999" width="58.389" height="90.029999" xlink:href="#elm2" id="use3329"/><use transform="matrix(1 0 0 -1 512.1 776.3)" x="-29.194" y="-45.014999" width="58.389" height="90.029999" xlink:href="#elm2" id="use3331"/><use transform="matrix(1 0 0 -1 355 851.9)" x="-29.194" y="-45.014999" width="58.389" height="90.029999" xlink:href="#elm2" id="use3333"/><use transform="matrix(1 0 0 -1 355 603.3)" x="-41.667" y="-49.998001" width="83.334" height="99.997002" xlink:href="#elm1" id="use3335"/><use transform="matrix(1 0 0 -1 249 603.3)" x="-41.667" y="-49.998001" width="83.334" height="99.997002" xlink:href="#elm1" id="use3337"/><use transform="matrix(1 0 0 -1 461 603.3)" x="-41.667" y="-49.998001" width="83.334" height="99.997002" xlink:href="#elm1" id="use3339"/><use transform="matrix(1 0 0 -1 355 478.4)" x="-41.667" y="-49.998001" width="83.334" height="99.997002" xlink:href="#elm1" id="use3341"/><use transform="matrix(1 0 0 -1 355 728.2)" x="-41.667" y="-49.998001" width="83.334" height="99.997002" xlink:href="#elm1" id="use3343"/></g><!-- app4joy --></svg>