<svg xmlns="http://www.w3.org/2000/svg" xmlns:xlink="http://www.w3.org/1999/xlink" id="svg652" width="750" height="500" version="1.1" viewBox="0 0 750 500"><g id="g653"><path id="rect1" fill="#ffc82e" d="M0 0h750v500H0z"/><path id="rect2" fill="#66bc29" d="M0 0h750v375H0z"/><path id="rect3" fill="#fff" d="M0 0h750v250H0z"/><path id="rect4" fill="#dc291e" d="M0 0h750v125H0z"/></g><g id="g652" transform="translate(0 100)"><g id="g158"><g id="h1"><g id="g13" transform="matrix(.265 0 0 .265 273.7 -1.9)"><g id="g5" fill="#eac102" stroke="#010101" stroke-width="2.5" transform="matrix(-.41158 -.00392 .00086 .39233 1614 -145.8)"><path id="path4" d="M3613.8 1143.3a48 48 0 0 1-14 15.7l-60.2-62.7c6.6-9.4 8.4-14.2 7.8-25-2-41.3-88-94-199-112.6-111-18.5-299.5-119-356.3-99l22-36.4c21.6 1.3 75 34.3 103.2 41a2313 2313 0 0 1 45 16.1c37.3 14 76.3 29.1 113 42a670.6 670.6 0 0 0 76.6 23.3 327 327 0 0 0 22 4.5 448.5 448.5 0 0 1 77.6 20.3 383.1 383.1 0 0 1 62.5 29.6c8.9 5.4 16.9 11 24 16.7a146 146 0 0 1 18.1 17.2 80 80 0 0 1 11.7 17 41.2 41.2 0 0 1 3.3 29 45.7 45.7 0 0 1-6.6 12l49.3 51.3z"/><path id="path5" d="m3613.8 1143.3-49.3-51.3c3.3-4.7 5.4-8.2 6.6-12 1.2-3.7 1.5-7.6 1.3-13-.2-2.6-.6-5.2-1.3-7.9-.8-2.7-2-5.4-3.3-8.2a80 80 0 0 0-11.7-17 146 146 0 0 0-18.2-17.1c-7-5.7-15-11.3-24-16.7a312.4 312.4 0 0 0-29-15.7 430.1 430.1 0 0 0-111.1-34.2 327 327 0 0 1-21.9-4.5c-7.6-1.8-15.7-4-24-6.4-16.6-4.8-34.3-10.6-52.7-17-36.6-12.8-75.6-28-113-41.9a2317 2317 0 0 0-44.9-16.2c88.1 20.7 198.9 60.3 271.2 73.8 118.3 22.1 232 93.3 232.3 165.3 0 14.8-.1 28-7 40z"/></g><path id="path6" fill="#e3e4e5" fill-rule="evenodd" stroke="#000" stroke-linecap="round" stroke-linejoin="round" stroke-width="2.3" d="M2983.2-135.4a24.1 24.1 0 1 1-48.2 0 24.1 24.1 0 0 1 48.2 0z" transform="matrix(.43118 .00432 .00091 .43977 -931.6 211.8)"/><path id="path7" fill="#e3e4e5" fill-rule="evenodd" stroke="#000" stroke-linecap="round" stroke-linejoin="round" stroke-width="2.3" d="M2983.2-135.4a24.1 24.1 0 1 1-48.2 0 24.1 24.1 0 0 1 48.2 0z" transform="matrix(.43118 .00432 .00091 .43977 -961.5 221.6)"/><path id="path8" fill="#e3e4e5" fill-rule="evenodd" stroke="#000" stroke-linecap="round" stroke-linejoin="round" stroke-width="2.3" d="M2983.2-135.4a24.1 24.1 0 1 1-48.2 0 24.1 24.1 0 0 1 48.2 0z" transform="matrix(.43118 .00432 .00091 .43977 -992.7 230.4)"/><path id="path9" fill="#e3e4e5" fill-rule="evenodd" stroke="#000" stroke-linecap="round" stroke-linejoin="round" stroke-width="2.3" d="M2983.2-135.4a24.1 24.1 0 1 1-48.2 0 24.1 24.1 0 0 1 48.2 0z" transform="matrix(.43118 .00432 .00091 .43977 -1025.3 238.5)"/><path id="path10" fill="#e3e4e5" fill-rule="evenodd" stroke="#000" stroke-linecap="round" stroke-linejoin="round" stroke-width="2.3" d="M2983.2-135.4a24.1 24.1 0 1 1-48.2 0 24.1 24.1 0 0 1 48.2 0z" transform="matrix(.43118 .00432 .00091 .43977 -1057.1 246)"/><path id="path11" fill="#e3e4e5" fill-rule="evenodd" stroke="#000" stroke-linecap="round" stroke-linejoin="round" stroke-width="2.3" d="M2983.2-135.4a24.1 24.1 0 1 1-48.2 0 24.1 24.1 0 0 1 48.2 0z" transform="matrix(.43118 .00432 .00091 .43977 -1089.5 255.3)"/><path id="path12" fill="#e3e4e5" fill-rule="evenodd" stroke="#000" stroke-linecap="round" stroke-linejoin="round" stroke-width="2.3" d="M2983.2-135.4a24.1 24.1 0 1 1-48.2 0 24.1 24.1 0 0 1 48.2 0z" transform="matrix(.43118 .00432 .00091 .43977 -1122 269.4)"/><path id="path13" fill="#e3e4e5" fill-rule="evenodd" stroke="#000" stroke-linecap="round" stroke-linejoin="round" stroke-width="2.3" d="M2983.2-135.4a24.1 24.1 0 1 1-48.2 0 24.1 24.1 0 0 1 48.2 0z" transform="matrix(.43118 .00432 .00091 .43977 -1147.4 291.3)"/></g><g id="g22" fill-rule="evenodd" stroke="#000" stroke-width="1.3" transform="matrix(.18632 .00342 -.00199 .22196 303.7 41.3)"><path id="path14" fill="#e3e4e5" stroke-linecap="round" stroke-linejoin="round" d="M345.7 1.4a10.6 10.6 0 1 0 0 21.1 10.5 10.5 0 1 0 0-21.1z"/><path id="path15" fill="#e3e4e5" stroke-linecap="round" stroke-linejoin="round" d="M325.9 14a10.6 10.6 0 1 0 0 21.2 10.6 10.6 0 1 0 0-21.1z"/><path id="path16" fill="#e3e4e5" stroke-linecap="round" stroke-linejoin="round" d="M304.7 26.5a10.6 10.6 0 1 0 0 21.2 10.6 10.6 0 0 0 0-21.2z"/><path id="path17" fill="#e3e4e5" stroke-linecap="round" stroke-linejoin="round" d="M283.7 36.6a10.6 10.6 0 1 0 0 21.1 10.6 10.6 0 0 0 0-21.1z"/><path id="path18" fill="#e3e4e5" stroke-linecap="round" stroke-linejoin="round" d="M262 46.6a10.6 10.6 0 1 0 10.6 10.6c0-5.8-4.7-10.6-10.5-10.6z"/><path id="path19" fill="#e3e4e5" stroke-linecap="round" stroke-linejoin="round" d="M240.4 57.6a10.6 10.6 0 1 0 0 21 10.6 10.6 0 0 0 0-21z"/><path id="path20" fill="#e3e4e5" stroke-linecap="round" stroke-linejoin="round" d="M219.2 70.8a10.6 10.6 0 1 0 10.6 10.6c0-5.9-4.7-10.6-10.6-10.6z"/><path id="path21" fill="#e3e4e5" stroke-linecap="round" stroke-linejoin="round" d="M200.6 90.7a10.6 10.6 0 1 0 0 21.1c5.8 0 10.6-4.7 10.6-10.5 0-5.9-4.8-10.6-10.6-10.6z"/><path id="path22" fill="#eac102" stroke-linecap="butt" d="M371.4-6.8c-6.2 0-12.2 1.9-12.2 5.6-97.3 79.5-146.7 65.6-172.6 117 11.2 15.3 0 38.2 12.2 69l11 1.5c-.5-23.1-3.5-47.6 14-61 8.2-44 73-50.4 147.4-113.4l.2-18.7z"/></g></g><use xlink:href="#h1" id="use22" transform="matrix(-1 0 0 1 750 0)"/><path id="path23" fill="#ed1c24" stroke="#000" stroke-width=".3" d="M374.8 52.9c8.3 0 19.9 2.5 23.7 5a28 28 0 0 0 10.5 4.3c3.5.8 5.5.7 8.5.5 3-.2 8.8 1.8 13.3 5 4.5 3.1 4.3 6.4 6.5 9.8l-16.9 32.3h-90.8l-17-32.3c2.3-3.4 2.4-6.7 6.9-9.9a25.3 25.3 0 0 1 13.2-5 28 28 0 0 0 19-4.8c3.9-2.4 14.8-5 23-5z"/><g id="g26" fill-rule="evenodd" stroke="#000" stroke-linecap="round" stroke-linejoin="round" stroke-width="3.1" transform="translate(123.7 61.5) scale(.08493)"><path id="path24" fill="#0071bc" d="M3026.4-283.1a67.8 67.8 0 1 1-135.7 0 67.8 67.8 0 0 1 135.7 0z"/><path id="path25" fill="#eac102" d="M2949.9-447.7v26.3h-24.7v17.4h24.7v54.6h17.3V-404h24.8v-17.4h-24.8v-26.3H2950z"/><path id="path26" fill="#eac102" d="M2945.9-355.2v49.9c-51 1-59 8.1-60 9.4l-.2-.1v25.5l.2-.1c.3.4 1.8 1.8 6.8 3.4l-.6-2.2-.6-3.6c8.4-2.9 27.7-7.2 67-7.2 39.5 0 58.7 4.3 67 7.2 0 1.2-.3 2.4-.5 3.6l-.6 2.3c5-1.7 6.4-3.1 6.8-3.5l.1.1V-296h0c-1-1.2-9-8.3-60.2-9.3v-49.9H2946z"/></g><use xlink:href="#h2" id="use26" transform="matrix(-1 0 0 1 750 0)"/><g id="h2" transform="matrix(.10896 -.00922 .01009 .11471 54.3 95)"><g id="g28" fill="#eac102" stroke="#010101" stroke-width=".9" transform="matrix(-3.6417 .29042 .34278 1.8476 9955.7 -617)"><path id="path27" d="M2040.5-9.3c.3 5.4.4 12.8-1.8 17-2.8 5.1-2.7 5.5-6.1 9L2017.7-15c2.2-2.3 3.4-.6 3.4-7.2.1-15.8-25-22-47-27.7-27-6.8-61.8-44.2-73-30.8 3.7-7.8 11.6-8.5 21.4-6l.7.3c3.4 2 7.2 4.2 11 6.6l11.7 7.3c4 2.5 8 4.8 11.9 7a97 97 0 0 0 17.1 7c1.8.5 3.6.8 5.3 1A72.3 72.3 0 0 1 2016-44a48.7 48.7 0 0 1 10.8 11.7 20.4 20.4 0 0 1 3.2 12.9c-.8 11.4-1.4 5.2-5.1 8.8l9.8 16.3a20 20 0 0 0 3.4-5.5c.8-2.1 1.5-4.4 2-6.7l.4-2.8z"/><path id="path28" d="m2040.5-9.3-.4 2.8c-.5 2.3-1.2 4.6-2 6.7-.9 2-2 4-3.4 5.5l-10.3-17c5.4 1.3 6.3-9.3 5-14.6-.5-2.2-1.4-4.3-2.6-6.4s-2.8-4.1-4.6-6-3.9-4-6.2-5.7a68.6 68.6 0 0 0-35.8-13.5 34.5 34.5 0 0 1-10.8-2.7 97 97 0 0 1-11.6-5.4c-4-2-8-4.4-12-6.9l-11.6-7.3a269 269 0 0 0-11-6.6l-.7-.4c17.4 4.3 41.1 18.6 59.3 21 27.8 4 63.6 19.4 58.7 56v.5z"/></g><g id="g36" fill="#e3e4e5" fill-rule="evenodd" stroke="#000" stroke-linecap="round" stroke-linejoin="round" stroke-width="2.3"><path id="path29" d="M2983.2-135.4a24.1 24.1 0 1 1-48.2 0 24.1 24.1 0 0 1 48.2 0z" transform="translate(-206.5 -89.8) scale(1.04762)"/><path id="path30" d="M2983.2-135.4a24.1 24.1 0 1 1-48.2 0 24.1 24.1 0 0 1 48.2 0z" transform="translate(-460.5 -23) scale(1.04762)"/><path id="path31" d="M2983.2-135.4a24.1 24.1 0 1 1-48.2 0 24.1 24.1 0 0 1 48.2 0z" transform="translate(-512.7 -6.4) scale(1.04762)"/><path id="path32" d="M2983.2-135.4a24.1 24.1 0 1 1-48.2 0 24.1 24.1 0 0 1 48.2 0z" transform="translate(-553.6 27.9) scale(1.04762)"/><path id="path33" d="M2983.2-135.4a24.1 24.1 0 1 1-48.2 0 24.1 24.1 0 0 1 48.2 0z" transform="translate(-256 -73.3) scale(1.04762)"/><path id="path34" d="M2983.2-135.4a24.1 24.1 0 1 1-48.2 0 24.1 24.1 0 0 1 48.2 0z" transform="translate(-305.4 -56) scale(1.04762)"/><path id="path35" d="M2983.2-135.4a24.1 24.1 0 1 1-48.2 0 24.1 24.1 0 0 1 48.2 0z" transform="translate(-356 -44.7) scale(1.04762)"/><path id="path36" d="M2983.2-135.4a24.1 24.1 0 1 1-48.2 0 24.1 24.1 0 0 1 48.2 0z" transform="translate(-406.7 -34) scale(1.04762)"/></g></g><g id="g38" fill="#eac102" stroke="#000" stroke-width="1" transform="matrix(.25821 0 0 .25508 -114 64.2)"><path id="path37" d="M1883.5-88.1c-4.3 2-7.7 5.1-8.8 9a104 104 0 0 0-2.2 19.5v2.1l-.1 2.6c-.4 14.8-3 28-6.8 36l28.6 21.6 28.3-21.7c-3.8-8-6.5-21-6.8-35.9l-.2-2.6v-2.1c-.1-7.1-.9-13.8-2.1-19.6-1.1-3.8-4.5-7-8.8-9 .3 2.6.7 5 .7 8v34.4c.2 4.8.6 9.3 1.2 13.2.6 4 1.4 7.3 2.4 9.9l-14.8 14-15-14c1-2.6 1.9-6 2.5-9.9.6-4 1-8.4 1-13.2l.2-33v-1.4c0-2.9.4-5.3.7-8z"/><path id="path38" d="M1883.5-88.1c-.3 2.6-.7 5-.7 7.9v1.4l-.1 33a99 99 0 0 1-1.1 13.2c-.6 4-1.5 7.3-2.5 9.9l15 14 14.8-14c-1-2.6-1.8-6-2.4-9.9-.6-4-1-8.4-1.1-13.2l-.1-33v-1.4c0-3-.4-5.4-.7-8a24 24 0 0 0-10.4-2.5c-4 0-7.5 1-10.7 2.6z"/></g><g id="g46" fill="#e3e4e5" fill-rule="evenodd" stroke="#000" stroke-linecap="round" stroke-linejoin="round" stroke-width="2" transform="matrix(.12214 0 0 .1311 13.7 73.4)"><path id="path39" d="M2983.2-135.4a24.1 24.1 0 1 1-48.2 0 24.1 24.1 0 0 1 48.2 0z" transform="translate(-141.6 -91.5) scale(1.04762)"/><path id="path40" d="M2983.2-135.4a24.1 24.1 0 1 1-48.2 0 24.1 24.1 0 0 1 48.2 0z" transform="translate(-141.6 -76.5) scale(1.04762)"/><path id="path41" d="M2983.2-135.4a24.1 24.1 0 1 1-48.2 0 24.1 24.1 0 0 1 48.2 0z" transform="translate(-141.6 -63.6) scale(1.04762)"/><path id="path42" d="M2983.2-135.4a24.1 24.1 0 1 1-48.2 0 24.1 24.1 0 0 1 48.2 0z" transform="translate(-141.6 -55.9) scale(1.04762)"/><path id="path43" d="M2983.2-135.4a24.1 24.1 0 1 1-48.2 0 24.1 24.1 0 0 1 48.2 0z" transform="translate(-141.6 -49.3) scale(1.04762)"/><path id="path44" d="M2983.2-135.4a24.1 24.1 0 1 1-48.2 0 24.1 24.1 0 0 1 48.2 0z" transform="translate(-141.6 -41.2) scale(1.04762)"/><path id="path45" d="M2983.2-135.4a24.1 24.1 0 1 1-48.2 0 24.1 24.1 0 0 1 48.2 0z" transform="translate(-141.6 -27.4) scale(1.04762)"/><path id="path46" d="M2983.2-135.4a24.1 24.1 0 1 1-48.2 0 24.1 24.1 0 0 1 48.2 0z" transform="translate(-141.6 4.4) scale(1.04762)"/></g><g id="g51" fill="#eac102" fill-rule="evenodd" stroke="#000" stroke-linecap="butt" stroke-width="2.6" transform="matrix(.10405 0 0 .09871 67.3 73.8)"><g id="g48"><path id="path47" d="M2417.1 230.1c20.7 40.5 45.4 92.4 64.5 86 4.1-1.7 5.5-11.8-.7-44.4l-37.4-73.6c-5.1-8.4-19.8-2-20.8 6.7l-5.6 25.3z"/><path id="path48" d="m2448.8 275 6.8-20a826.4 826.4 0 0 1-58-90.5c-4.7-8.4-21-3.4-17 5.8 30.8 58.5 52.7 89.2 68.2 104.6z"/></g><g id="g50"><path id="path49" d="M3496.8 230.1c-20.7 40.5-45.4 92.4-64.5 86-4.1-1.7-5.5-11.8.7-44.4l37.4-73.6c5.1-8.4 19.8-2 20.8 6.7l5.6 25.3z"/><path id="path50" d="m3458.1 255.2 6.8 20c15.5-15.3 37.5-46.1 68.5-104.9 3.9-9.2-12.3-14.2-17-5.8-23 40.5-44.5 73-58.3 90.7z"/></g></g><g id="h3" stroke="#000" transform="matrix(.10405 0 0 .09243 67.3 75.1)"><path id="path51" fill="#eac102" fill-rule="evenodd" stroke-linecap="round" stroke-linejoin="round" stroke-width="2.7" d="m2259.2-21.3 13.5-10.7c38.7-10 73.3 26.8 73 42.7 9.7-8.8 19.4-5.8 29-5.3-5.6 19 0 33-6.8 53.3 9 2.8 16 6.8 18 13.8l9-5.9 11-.5c2.1 52.8-15 41.2-11.6 60.7l18.5-22.7 20 2.1c9.9 2 12.7 13.5 23.3 14.8-7.5 10.1-12 28-19 40.2-8.6 6.2-16.1 5.1-23.3 1.5 23.4 8.6 29.5 28.8 38.6 39.6a305 305 0 0 0-22.2 2.1c14.7 21 23.2 38 37.5 49.7l-8.4 1.6-43.9-21.7-37-38-45.3-70.2-1.6-110.9c-23.2-11.8-19.6-39.2-72.3-36.2z"/><path id="path52" fill="#eac102" fill-rule="evenodd" stroke-linecap="butt" stroke-linejoin="round" stroke-width="2.7" d="M2257.8-20.6c63 6.6 63 95.7 75.6 148.4l40.3 68.3c25.5 24.6 42 55.2 57.8 58.9 15.2 3.5 14.2-3 29.7.6-30.4-13.5-16.5-44.7-79.7-63.7 20.4-11.3 20.4 20 61.4 11-11.2-28-35.4-29.4-46.3-39.8 16.7-5.4 18.6 5.3 30.7.4 13.5-5.4 10.4-26.3 21-40.3-14-6.2-25.3-24.6-42.5-15.6-6 5-14.8 21.8-24.8 25.7-4.1-22.4 9.9-24.4 12.9-35.7 2.9-11.3-1.8-14.7.9-30.7-45.4 16.7-28.3 47-49 60.3-.3-32.2 8.8-18.5 25.6-54-6.3-9.3-10.8-7.6-16-10.5 8.3-18 .8-29 9.6-54-16.7-5.6-22.4 3.4-27 9.1-1.7-15.6-38.2-66-80.2-38.4z"/><path id="path53" fill="none" stroke-linecap="butt" stroke-width="1.4" d="M2348 39.8c-13.4 30.1-12 60.2-11.1 90.3m32.6-16c-2.7 15.1-12.2 23.4-22.2 31.3m69.5-9c-24 1.7-25.8 17-61.2 22.2m7 9.7c17.1 3.4 34.1 7 45.8 16m-36.8 5.5c23.4 28.2 43 30.8 50 45.2"/><g id="g55" fill-rule="nonzero" stroke-linecap="butt" stroke-width="2.4" transform="scale(-1.11062 1.11062) rotate(33.3 904.6 -6568.6)"><path id="path54" fill="#e3e4e5" d="M2069.1 730.7h.7c12.7 0 23-12.7 23-28.4s-10.3-28.5-23-28.5h-.7v56.9z"/><path id="path55" fill="#eac102" d="M2066.3 668.7h7v66.6h-7a275.3 275.3 0 0 1 0-66.6z"/></g></g><use xlink:href="#h3" id="use55" transform="matrix(-1 0 0 1 750 0)"/><path id="path56" fill="#eac102" fill-rule="evenodd" stroke="#000" stroke-linecap="butt" stroke-width=".3" d="M375 81.6c-.4 0-.7.3-.7.7-.4 4.3-2.1 11-8.7 12.3-6.5 1.2-12.2-8-12.5-11.7 0-.5-.4-.7-.9-.7s-1 .4-.9.8c1 5 0 11.4-4.5 12.5-4.5 1.2-9.4-4.1-13-10.8-.2-1.2-2-.7-1.7.2 2.8 6.9 1.8 11.7-.2 12.7-2.5.8-7.7-5.3-10.6-10.6-.5-.7-2.3-.3-1.9.6a30 30 0 0 1 4.3 12.4l-.9-1-.7 1.9c1.7 1.6 2.7 1.5 3.2 1 1-.8 1-2.5-.3-6.5 2.3 2.4 6 5.3 8.4 3.7 2.4-1.6 2.6-4.5 2.4-8 2.9 3.6 7.3 7.4 11.3 6.4 4-.9 5.8-4.5 6.3-9 2.3 4.1 6.8 8.8 12.5 8 5.4-.6 8.5-6.6 9.1-8.6.6 2 3.7 8 9.1 8.7 5.7.7 10.2-4 12.5-8 .5 4.4 2.3 8 6.3 9 4 .9 8.4-2.9 11.3-6.5-.2 3.5 0 6.4 2.4 8s6-1.3 8.4-3.7c-1.2 4-1.2 5.7-.3 6.6.5.4 1.5.5 3.1-1l-.7-2-.8 1a30 30 0 0 1 4.3-12.4c.4-1-1.4-1.3-1.9-.6-3 5.3-8.1 11.4-10.6 10.6-2-1-3-5.8-.2-12.7.4-1-1.5-1.4-1.8-.2-3.5 6.7-8.4 12-12.9 10.8-4.5-1.1-5.5-7.5-4.5-12.5.2-.9-1.8-1.2-1.8 0-.3 3.6-6 12.8-12.5 11.6-6.6-1.2-8.3-8-8.7-12.3 0-.4-.3-.7-.7-.7z"/><g id="g61" fill-rule="evenodd" stroke="#000" stroke-width="2.6" transform="matrix(.10405 0 0 .09871 67.3 73.8)"><g id="g58" transform="matrix(1 0 0 1.00579 .8 -1346)"><path id="path57" fill="#e3e4e5" stroke-linecap="round" stroke-linejoin="round" d="M3198.1 1390.4a29.5 29.5 0 1 1-59 0 29.5 29.5 0 0 1 59 0z" transform="translate(5.8 34.3)"/><path id="path58" fill="#eac102" stroke-linecap="butt" d="M3153.9 1446.2c10.8 4 22 5.4 35.2 4.4-.7 7.6-7.8 4.5-6.8 11s-27.3 4.3-24.7-2.5c2.6-7-5-5.3-3.7-12.9z"/></g><g id="g60" transform="matrix(-1 0 0 1.00579 5913 -1346)"><path id="path59" fill="#e3e4e5" stroke-linecap="round" stroke-linejoin="round" d="M3198.1 1390.4a29.5 29.5 0 1 1-59 0 29.5 29.5 0 0 1 59 0z" transform="translate(5.8 34.3)"/><path id="path60" fill="#eac102" stroke-linecap="butt" d="M3153.9 1446.2c10.8 4 22 5.4 35.2 4.4-.7 7.6-7.8 4.5-6.8 11s-27.3 4.3-24.7-2.5c2.6-7-5-5.3-3.7-12.9z"/></g></g><g id="g65" fill-rule="evenodd" stroke="#000" stroke-width="2.6" transform="matrix(.10405 0 0 .09871 67.3 73.8)"><g id="g62" transform="matrix(-.9419 .3354 .32973 .93534 4949.3 -2266.5)"><path id="path61" fill="#e3e4e5" stroke-linecap="round" stroke-linejoin="round" d="M3198.1 1390.4a29.5 29.5 0 1 1-59 0 29.5 29.5 0 0 1 59 0z" transform="translate(5.8 34.3)"/><path id="path62" fill="#eac102" stroke-linecap="butt" d="M3153.9 1446.2c10.8 4 22 5.4 35.2 4.4-.7 7.6-7.8 4.5-6.8 11s-27.3 4.3-24.7-2.5c2.6-7-5-5.3-3.7-12.9z"/></g><g id="g64" transform="matrix(.9419 .3354 -.32973 .93534 964.4 -2266.5)"><path id="path63" fill="#e3e4e5" stroke-linecap="round" stroke-linejoin="round" d="M3198.1 1390.4a29.5 29.5 0 1 1-59 0 29.5 29.5 0 0 1 59 0z" transform="translate(5.8 34.3)"/><path id="path64" fill="#eac102" stroke-linecap="butt" d="M3153.9 1446.2c10.8 4 22 5.4 35.2 4.4-.7 7.6-7.8 4.5-6.8 11s-27.3 4.3-24.7-2.5c2.6-7-5-5.3-3.7-12.9z"/></g></g><g id="g71" stroke="#000" transform="matrix(.1042 0 0 .10682 66.7 70.1)"><path id="path65" fill="#eac102" fill-rule="evenodd" stroke-linecap="butt" stroke-width="2.5" d="M2841.5 4.1s28.9-5.1 44.5 18.2c15.3 23 52.8 20.5 52.8 20.5l-15.9 51.6-102-38.7c-.7 0 6.3-9.7 19.4-8.8s20.5 17.9 40.4 10L2841.4 4z"/><path id="path66" fill="#eac102" fill-rule="evenodd" stroke-linecap="butt" stroke-width="2.5" d="M3076.5 4.1S3047.6-1 3032 22.3c-15.3 23-52.8 20.5-52.8 20.5l15.9 51.6 102-38.7c.7 0-6.3-9.7-19.4-8.8s-20.5 17.9-40.4 10L3076.5 4z"/><path id="path67" fill="#eac102" fill-rule="evenodd" stroke-linecap="butt" stroke-width="2.5" d="M2958.8-131.6c-17.6 19-35.4 40.3-36.4 68.3-14-14.7-28.2-4.4-42.2-1.8 7 9.5-.2 35.6 9.4 53.4-10.3.8-15 9.9-21.1 15.2 4.1 15.6 52 17.8 60.3 46.3-52-5.2-35.6-42.8-88-45.7-8.3 43.1 25 34.6 27.7 58-16 3-20-13-33.8-12.4-19.4 1-27.8 22.2-40.1 29.5 19 5.1 26 23.1 45 27.5 10.3 2.4 15.2-15.8 31.2-7.6-15.7 21.8-31.4 15.4-23.5 46.3 59.6 5.3 35.3-35.3 75-29.3-60 37-27 51-42.1 79.7 31-12.6 42.1-4 78.9-30.3 36.7 26.3 47.8 17.7 78.8 30.3-15-28.6 18-42.7-42.2-79.7 39.8-6 15.5 34.6 75 29.3 8-30.9-7.7-24.5-23.4-46.3 16-8.2 20.9 10 31.2 7.6 19-4.4 26-22.4 45-27.5-12.3-7.3-20.7-28.6-40.1-29.5-13.9-.6-17.8 15.4-33.8 12.5 2.6-23.5 36-15 27.6-58-52.3 2.8-35.8 40.4-88 45.6 8.4-28.5 56.3-30.7 60.4-46.3-6.2-5.3-10.8-14.4-21-15.2 9.5-17.8 2.3-43.9 9.3-53.4-14-2.6-28.1-12.9-42.2 1.8-1-28-18.9-49.3-36.4-68.3l-.3-.2-.2.3z"/><path id="path68" fill="none" stroke-linecap="round" stroke-width="1.3" d="M2959.4 53.4c-1.8-3.3 0-157.8 0-157.8m-9.5 213c-4.7 18.6-21.4 48.2-41 58.8m20.6-75.4c-15.6.8-44.4 16.5-56 23.8m53.2-30.8c-55 5-77.4-17.3-94.4-10.3m96.7-5.8s-13.5-3.9-29.3-8.2c-10.2-2.8-16.4-15.3-22.9-22.1m75 11.4s-.8-10.3-13-39.2c-12-28-27.6-42.9-27.6-42.9m56.9 140.7c4.7 18.6 21.4 48.2 41 58.8M2988.5 92c15.6.8 44.4 16.5 56 23.8M2991.2 85c55 5 77.4-17.3 94.4-10.3m-96.7-5.8s13.5-3.9 29.3-8.2c10.2-2.8 16.4-15.3 22.9-22.1m-75 11.4s.8-10.3 13-39.2c12-28 27.5-42.9 27.5-42.9"/><g id="g70" fill-rule="evenodd" stroke-linecap="round" stroke-linejoin="round"><path id="path69" fill="#eac102" stroke-width="2" d="M2989.9 81.5a27.6 27.6 0 1 1-55.1 0 27.6 27.6 0 0 1 55.1 0z" transform="matrix(1.31145 0 0 1.2234 -925.2 -19)"/><path id="path70" fill="#e3e4e5" stroke-width="2.5" d="M2989.9 81.5a27.6 27.6 0 1 1-55.1 0 27.6 27.6 0 0 1 55.1 0z" transform="matrix(1.04255 0 0 .97231 -128.6 1.4)"/></g></g><path id="path71" fill="#eac102" fill-rule="evenodd" stroke="#000" stroke-linecap="butt" stroke-width=".3" d="M375 96.2c-15 .2-30.2.2-45 3.2-3.2 1-8 1.5-9.2 5-.4 3 3.3 4.2 5.7 5 11 3.2 22.7 3.5 34.2 4 17.8.3 35.7.4 53.4-2 4.9-.8 10.2-1.4 14.2-4.4 2.4-2.2-.3-5.3-2.9-6-9-3.2-18.8-3.6-28.3-4.3a411 411 0 0 0-22.2-.5z"/><path id="path72" fill="#eac102" fill-rule="evenodd" stroke="#000" stroke-linecap="butt" stroke-width=".3" d="M375 99.8a463.7 463.7 0 0 0-24.2.6 102.8 102.8 0 0 0-24.5 3.5 10.2 10.2 0 0 0-2.9 1.5l-.2.2-.3.6 2.8 9.8h98.6l2.8-9.8-.3-.6-.2-.2a8 8 0 0 0-3-1.5 94 94 0 0 0-24.4-3.5 298.5 298.5 0 0 0-24.2-.6z"/><g id="g75" fill-rule="evenodd" stroke="#000" stroke-linecap="round" stroke-linejoin="round" transform="matrix(.10973 0 0 .1041 200 31.4)"><path id="path73" fill="#eac102" stroke-width="1.8" d="M1796.3 707a23 23 0 1 1-46.1 0 23 23 0 0 1 46.1 0z" transform="matrix(1.33459 0 0 1.44733 -589.6 -320.2)"/><path id="path74" fill="#eac102" stroke-width="1.8" d="M1796.3 707a23 23 0 1 1-46.1 0 23 23 0 0 1 46.1 0z" transform="matrix(1.30451 0 0 1.44733 -533 -320.2)"/><path id="path75" fill="#e3e4e5" stroke-width="2.1" d="M1796.3 707a23 23 0 1 1-46.1 0 23 23 0 0 1 46.1 0z" transform="matrix(1.15414 0 0 1.25188 -265.6 -182)"/></g><g id="g78" fill-rule="evenodd" stroke="#000" stroke-linecap="round" stroke-linejoin="round" transform="matrix(-.10973 0 0 .1041 550 31.4)"><path id="path76" fill="#eac102" stroke-width="1.8" d="M1796.3 707a23 23 0 1 1-46.1 0 23 23 0 0 1 46.1 0z" transform="matrix(1.33459 0 0 1.44733 -589.6 -320.2)"/><path id="path77" fill="#eac102" stroke-width="1.8" d="M1796.3 707a23 23 0 1 1-46.1 0 23 23 0 0 1 46.1 0z" transform="matrix(1.30451 0 0 1.44733 -533 -320.2)"/><path id="path78" fill="#e3e4e5" stroke-width="2.1" d="M1796.3 707a23 23 0 1 1-46.1 0 23 23 0 0 1 46.1 0z" transform="matrix(1.15414 0 0 1.25188 -265.6 -182)"/></g><g id="g88" stroke="#000" stroke-linecap="round" stroke-linejoin="round" transform="matrix(-.10735 .0195 0 .1044 546.3 -5)"><path id="path79" fill="none" stroke-width="2.5" d="m1881 701.5 50.4-34.4h3.2l-48 34.3h-5.6z"/><path id="path80" fill="none" stroke-width="2.5" d="m1881 701.5 50.4 34.3h3.2l-48-34.3h-5.6z"/><path id="path81" fill="none" stroke-width="2.5" d="m1934.7 735.7 45.3-33.4-45.2-35"/><g id="g87" transform="translate(2)"><path id="path82" fill="#008f4c" fill-rule="evenodd" stroke-width="2.5" d="m1897 701.8 36.2 26.6 35.6-26.8-35.8-26-36 26.2z"/><path id="path83" fill="none" stroke-width="1.5" d="m1921.4 701.9 19.1 14 18.9-14.1-19-13.8-19 13.9z"/><path id="path84" fill="none" stroke-width="1.5" d="m1933 728.3 7.5-12.4"/><path id="path85" fill="none" stroke-width="1.5" d="m1968.3 701.6-9 .2"/><path id="path86" fill="none" stroke-width="1.5" d="M1921.4 701.8h-23.6"/><path id="path87" fill="none" stroke-width="1.5" d="m1940.5 688.2-7.5-12.7"/></g></g><g id="g97" stroke="#000" stroke-linecap="round" stroke-linejoin="round" transform="matrix(.10735 .0195 0 .1044 203.7 -5)"><path id="path88" fill="none" stroke-width="2.5" d="m1881 701.5 50.4-34.4h3.2l-48 34.3h-5.6z"/><path id="path89" fill="none" stroke-width="2.5" d="m1881 701.5 50.4 34.3h3.2l-48-34.3h-5.6z"/><path id="path90" fill="none" stroke-width="2.5" d="m1934.7 735.7 45.3-33.4-45.2-35"/><g id="g96" transform="translate(2)"><path id="path91" fill="#008f4c" fill-rule="evenodd" stroke-width="2.5" d="m1897 701.8 36.2 26.6 35.6-26.8-35.8-26-36 26.2z"/><path id="path92" fill="none" stroke-width="1.3" d="m1921.4 701.9 19.1 14 18.9-14.1-19-13.8-19 13.9z"/><path id="path93" fill="none" stroke-width="1.3" d="m1933 728.3 7.5-12.4"/><path id="path94" fill="none" stroke-width="1.3" d="m1968.3 701.6-9 .2"/><path id="path95" fill="none" stroke-width="1.3" d="M1921.4 701.8h-23.6"/><path id="path96" fill="none" stroke-width="1.3" d="m1940.5 688.2-7.5-12.7"/></g></g><g id="g98" fill-rule="nonzero" stroke="#000" stroke-linecap="butt" stroke-width="2.5" transform="matrix(.10973 0 0 .1041 200 31)"><rect id="rect97" width="127.3" height="67.8" x="1531.8" y="669.2" fill="#eac102" rx="32.6" ry="33.9"/><rect id="rect98" width="114.5" height="58.6" x="1538.2" y="673.8" fill="#ed1c24" rx="29.3" ry="29.3"/></g><path id="path98" fill="#eac102" fill-rule="evenodd" stroke-opacity="0" d="m322.6 99-.7 1.5.5.5.5-1.8-.3-.2zm104.8 0-.4.3.6 1.7.4-.4-.6-1.6z"/><g id="h4" stroke="#000" transform="matrix(.10405 0 0 .09871 67 72.5)"><path id="path99" fill="#eac102" fill-rule="evenodd" stroke-linecap="butt" stroke-width="2.6" d="m2485.2-95.3 11.5-5c34.6-5.2 51.2 34 54.4 56.1 13.3-4.4 31-9.6 51-4.8-5 21.2-1.3 24.2-9.2 52.1 19.6 3.9 20.2 10.4 25.8 14.3-24 20-59.5 25.7-61.2 50.9l38.6-6.8c18.4-15.2 18.2-45.1 55.2-45.7 3.8 43.7-21 30.6-30.2 62 29.3 2.4 90-2 87.8 7.2-27.1 17.7-25.2 23.3-39.3 33l-9.2.8c-9.2-4.2-14.6-19-28.6-10 0 0 7.7 5.8 29.4 14.7 21 8.7 17.1 31.8 17.1 31.8-31 4.8-43.3-3.6-56.8-11 36.4 26.2 26.4 43 46.9 64.3l-5.2-.4c-41.1 2-62-15.7-89-25 3.5 11-15 30-20.3 41.3h-4l-23-54c-2.9 7.3-7.3 5.5-11.1 7l-24.7-66.3c-16.1-5.5-13.6-17.3-14.7-27.8 3.8.5 3.9-1.3 12.3 2l-11-27.8-2-19.5c4.4 3 12.7 1 11.5 11.5 3 12.1 7.5 21.2 11.5 31.4l13.1-43.7-24.6-75.5 13.9-5.6c-5.3-17.2 21.4-36.6-15.9-51.5z"/><path id="path100" fill="#eac102" fill-rule="evenodd" stroke-linecap="round" stroke-linejoin="round" stroke-width="2.6" d="M2483.5-94.7c35.6-12.8 57.5 21.6 59.3 50C2560-49.6 2577-54 2595-48c-11 24.1-1 37.6-13.2 55.4 21.7 1.8 16.8 6.6 28.5 11-33.1 28.7-62.1 22.7-64.3 53.9 53.5-16.5 32-29.1 57-43.8a85.1 85.1 0 0 1 43.2-12.1c3.9 46.7-25.4 32.1-33.2 61.7 27-3.7 30.5-19 46.7-21.4s31.3 15.4 48.7 26.1c-31.1 12.2-34.4 37.4-49.9 35.2-14.2-1.7-16-12.7-32.9-5.1 15 13.4 40.8 11.4 48 40.6-37.2 12.6-63.2-17-100.2-18 90.8 25.1 57.7 52.8 90.2 72.9-24.9-2.8-45.2 4.4-91.3-22.2 1.3 12.7-15.4 22.6-23.2 38.5-4.8-25.2-29.5-37.7-24.7-77-9.5 1.1 5.4 28.7-10 29.5-13.1-11.2-14-26.4-14.3-36.9-7.6-9.1 2.8 16.6-29-24.2-2.8-4.3 1.7-30.7 5.3-32.7 2.6 6.5 5 13.4 11 13.1a56.2 56.2 0 0 0-10.5-26.3c-3.3-2.1-2.8-20.1-1-31.7 11.3 14 3.3 35.4 22 39-1-35.2-31-24.3-14.2-58-2.2-18-2.8-75.5 9.5-53.2-1-30.3 13-51.7-9.7-61.1z"/><path id="path101" fill="none" stroke-linecap="round" stroke-linejoin="round" stroke-width="1.3" d="M2515.2 74.7c-15.6-89 10.8-115.7-7-158.7m58.4 70.4a120.9 120.9 0 0 0-44.5 88.3m32.6 27.8c43.2 3 63.3-18 108.1-19.1m-111.3 8c34.9-5 43.9-24.5 54.9-39.8m-50.1 59.6c28.7.7 53.2 8.8 66 18.3m-78.7 5.6c28.7 32.7 46.9 30.6 70 44.5m-75.6-45.3c-4.2 25.5 5.8 42.2 8.8 54.8m-31.8-59.6a38 38 0 0 0-6.4 16.7m-4-32.6c-13 5.2-11.5-1.5-26.2 1.6m26.2-21.5c-5.3-.8-10.6-3.4-15.9-12.7m21.5-3.2A470 470 0 0 0 2489.5-4"/><g id="g104" fill-rule="evenodd" stroke-linecap="round" stroke-linejoin="round" transform="matrix(-.748 .5076 .48137 .8832 3520.5 -1419.3)"><path id="path102" fill="#eac102" stroke-width="2" d="M1796.3 707a23 23 0 1 1-46.1 0 23 23 0 0 1 46.1 0z" transform="matrix(1.33459 0 0 1.44733 -589.6 -320.2)"/><path id="path103" fill="#eac102" stroke-width="2" d="M1796.3 707a23 23 0 1 1-46.1 0 23 23 0 0 1 46.1 0z" transform="matrix(1.30451 0 0 1.44733 -533 -320.2)"/><path id="path104" fill="#e3e4e5" stroke-width="2.3" d="M1796.3 707a23 23 0 1 1-46.1 0 23 23 0 0 1 46.1 0z" transform="matrix(1.15414 0 0 1.25188 -265.6 -182)"/></g></g><use xlink:href="#h4" id="use104" transform="matrix(-1 0 0 1 750 0)"/><path id="path105" fill="none" stroke="#000" stroke-linecap="butt" stroke-width=".1" d="M351.5 85.7c.8 0 1.7 0 2.5-.3"/><path id="path106" fill="none" stroke="#000" stroke-linecap="butt" stroke-width=".1" d="M398.5 85.7c-.7 0-1.7 0-2.4-.3"/><path id="path107" fill="none" stroke="#000" stroke-linecap="butt" stroke-width=".1" d="M429.5 90c-.8-.2-1.6-.5-2.2-1"/><path id="path108" fill="none" stroke="#000" stroke-linecap="butt" stroke-width=".1" d="M320.5 90c.7-.2 1.6-.5 2.2-1"/><g id="g120" stroke="#000" transform="matrix(.265 0 0 .25141 103 -53.9)"><g id="g114"><g id="g110" fill-rule="nonzero" stroke-linecap="butt" stroke-width="2.2" transform="matrix(-.44839 .14305 .14305 .44839 1663.1 45)"><path id="path109" fill="#ed1c24" d="M2069.1 730.7h.7c12.7 0 23-12.7 23-28.4s-10.3-28.5-23-28.5h-.7v56.9z"/><path id="path110" fill="#eac102" d="M2066.3 668.7h7v66.6h-7a275.3 275.3 0 0 1 0-66.6z"/></g><g id="g113" fill-rule="evenodd" stroke-linecap="round" stroke-linejoin="round" transform="matrix(-.45462 .12181 .12181 .45462 1690.4 77.3)"><path id="path111" fill="#eac102" stroke-width="2.2" d="M2030.2 670.6c-6 1.7-10.7 15.4-10.7 31.9s4.7 30.1 10.7 31.9h.3l1 .2h10.9v-18.4a78.8 78.8 0 0 0 0-27.4v-18.2h-12.2z"/><path id="path112" fill="#eac102" stroke-width="1.6" d="M2048.4 702.5c0 17.7-2.7 32-6 32-3.4 0-6.1-14.3-6.1-32s2.7-32.1 6-32.1c3.4 0 6.1 14.4 6.1 32z" transform="matrix(1.97872 0 0 .9941 -1999.4 4.3)"/><path id="path113" fill="#e3e4e5" stroke-width="2.2" d="M2043 674.4c25.2 7.8 23.6 49.7 0 58-16.3-3.5-14-57.7 0-58z"/></g></g><g id="g119" transform="matrix(-1 0 0 1 2053 0)"><g id="g115" fill-rule="nonzero" stroke-linecap="butt" stroke-width="2.2" transform="matrix(-.44839 .14305 .14305 .44839 1663.1 45)"><path id="path114" fill="#ed1c24" d="M2069.1 730.7h.7c12.7 0 23-12.7 23-28.4s-10.3-28.5-23-28.5h-.7v56.9z"/><path id="path115" fill="#eac102" d="M2066.3 668.7h7v66.6h-7a275.3 275.3 0 0 1 0-66.6z"/></g><g id="g118" fill-rule="evenodd" stroke-linecap="round" stroke-linejoin="round" transform="matrix(-.45462 .12181 .12181 .45462 1690.4 77.3)"><path id="path116" fill="#eac102" stroke-width="2.2" d="M2030.2 670.6c-6 1.7-10.7 15.4-10.7 31.9s4.7 30.1 10.7 31.9h.3l1 .2h10.9v-18.4a78.8 78.8 0 0 0 0-27.4v-18.2h-12.2z"/><path id="path117" fill="#eac102" stroke-width="1.6" d="M2048.4 702.5c0 17.7-2.7 32-6 32-3.4 0-6.1-14.3-6.1-32s2.7-32.1 6-32.1c3.4 0 6.1 14.4 6.1 32z" transform="matrix(1.97872 0 0 .9941 -1999.4 4.3)"/><path id="path118" fill="#e3e4e5" stroke-width="2.2" d="M2043 674.4c25.2 7.8 23.6 49.7 0 58-16.3-3.5-14-57.7 0-58z"/></g></g></g><g id="g157" stroke="#000" transform="matrix(.24423 0 0 .2317 49.4 48.4)"><path id="path120" fill="#ed1c24" fill-rule="evenodd" stroke-linecap="butt" stroke-width="1.1" d="M1147 293.4s40.2-20.4 186.1-20.4c145.4 0 186.1 20.4 186.1 20.4s-34 20.5-186 20.5c-152.7 0-186.2-20.5-186.2-20.5z"/><g id="g156" fill="none" transform="translate(182 -177.5)"><path id="path121" stroke-width=".6" d="M1103.8 494.7v-47.3"/><path id="path122" stroke-width=".9" d="M1095.2 494.7v-47.3"/><path id="path123" stroke-width="1.1" d="M1087.1 494.7v-47.3"/><path id="path124" stroke-width="1.4" d="M1079.1 494.7v-47.3"/><path id="path125" stroke-width="1.7" d="M1072 494.7v-47.3"/><path id="path126" stroke-width="2" d="m1058.4 492.1-.2-43m6.6 43.6v-45"/><path id="path127" stroke-width="2.3" d="M1045.9 490.2v-39.7m6.4 40.8-.2-42.2"/><path id="path128" stroke-width="2.6" d="M1029 488v-35m5.5 35.5v-36.6m5.7 37.7v-38"/><path id="path129" stroke-width="2.9" d="M1023.1 487.6V454"/><path id="path130" stroke-width="3.2" d="M1017.6 486v-31.5"/><path id="path131" stroke-width="3.4" d="M1011.7 485v-29"/><path id="path132" stroke-width="3.7" d="m999.6 482.5-.2-23.2m6.4 24.4v-26"/><path id="path133" stroke-width="3.9" d="M993.4 480.6v-20.4"/><path id="path134" stroke-width="4.2" d="M987.7 478.9v-17"/><path id="path135" stroke-width="4.5" d="M981.5 476.6v-13.3"/><path id="path136" stroke-width="4.8" d="M975.2 475.5v-9.9"/><path id="path137" stroke-width="5.6" d="M968.4 473.2v-4.8"/><path id="path138" stroke-width=".3" d="M1137.8 492.1v-43.3m-14.5 44.7.2-45.8m-10.7 46.4v-46.7"/><path id="path139" stroke-width=".6" d="M1198.5 494.7v-47.3"/><path id="path140" stroke-width=".9" d="M1207.1 494.7v-47.3"/><path id="path141" stroke-width="1.1" d="M1215.1 494.7v-47.3"/><path id="path142" stroke-width="1.4" d="M1223.1 494.7v-47.3"/><path id="path143" stroke-width="1.7" d="M1230.3 494.7v-47.3"/><path id="path144" stroke-width="2" d="m1243.9 492.1.2-43m-6.6 43.6v-45"/><path id="path145" stroke-width="2.3" d="M1256.4 490.2v-39.7m-6.4 40.8.2-42.2"/><path id="path146" stroke-width="2.6" d="M1273.3 488v-35m-5.5 35.5v-36.6m-5.7 37.7v-38"/><path id="path147" stroke-width="2.9" d="M1279.2 487.6V454"/><path id="path148" stroke-width="3.2" d="M1284.7 486v-31.5"/><path id="path149" stroke-width="3.4" d="M1290.6 485v-29"/><path id="path150" stroke-width="3.7" d="m1302.7 482.5.2-23.2m-6.4 24.4v-26"/><path id="path151" stroke-width="3.9" d="M1308.9 480.6v-20.4"/><path id="path152" stroke-width="4.2" d="M1314.5 478.9v-17"/><path id="path153" stroke-width="4.5" d="M1320.7 476.6v-13.3"/><path id="path154" stroke-width="4.8" d="M1327.1 475.5v-9.9"/><path id="path155" stroke-width="5.6" d="M1333.8 473.2v-4.8"/><path id="path156" stroke-width=".3" d="M1164.5 492.1v-43.3m14.5 44.7-.2-45.8m10.7 46.4v-46.7"/></g><path id="path157" fill="#eac102" fill-rule="evenodd" stroke-linecap="butt" stroke-width="1.1" d="M1332.9 259c-56.6.5-113.9.6-169.5 12.5-12.4 4-30.1 6.2-34.8 20.1-1.5 11.7 12.5 16.6 21.3 19.8 41.7 12.7 85.8 13.7 129 15.7 67.4 1.4 135 1.9 201.9-7.5 18.2-3.6 38.3-5.8 53.3-17.7 9-8.8-1-21.2-10.8-23.7-34-13.2-71-14.5-107-17.2-27.8-1.5-55.6-2-83.4-2zm.2 14c145.4 0 186 20.4 186 20.4s-34 20.5-186 20.5c-152.6 0-186.1-20.5-186.1-20.5s40.2-20.4 186-20.4z"/></g></g><g id="g651"><path id="path158" fill="#ed1c24" fill-rule="evenodd" stroke="#000" stroke-linecap="butt" stroke-width=".3" d="M441 117.6c-43.5 0-88.5.3-132 0-.2 38.9 0 93.1-.1 114.2 0 21 21 34 33.1 34 12.1 0 28.8-1.6 33.2 10.5 3.6-12 19-10.3 33.1-10.4 13.8-.1 32.5-16.8 32.6-34.1 0-17.3.4-80.6.1-114.2z"/><g id="g526" stroke="#000" transform="matrix(.265 0 0 .265 303.2 -6.6)"><g id="g186" fill="#eac102" fill-rule="evenodd" stroke-linecap="round" stroke-linejoin="round" stroke-width="1.5" transform="matrix(.71025 0 0 .65175 192.5 392.6)"><g id="g167"><path id="path159" d="M278.5 337.1v65.3l-9.8-8.3v-59.4l9.8 2.4z"/><path id="path160" d="m273.8 336.4 4.8 3 5.4-5-5.5-3.2-4.7 5.2z"/><path id="path161" d="m278.4 320.6 5.6 4v9.7l-5.6-3v-10.7z"/><path id="path162" d="M245.5 337.1v65.3l10-8.6v-59.4l-10 2.7z"/><path id="path163" d="m250.2 336.4-4.8 3-5.4-5 5.5-3.2 4.7 5.2z"/><path id="path164" d="m245.5 320.6-5.5 4v9.7l5.5-3v-10.7z"/><path id="path165" d="m245.4 331.1 4.5 5.3H274l4.4-5.3h-33z"/><path id="path166" d="M245.5 320.6h6.2v4.9h7v-4.9h6.4v4.9h6.9v-4.9h6.4v10.5h-32.9v-10.5z"/><path id="path167" d="M250 336.4v62h24v-62h-24zm12 11c2.7.1 5.2 1.3 5.3 6.7v15.3h-10.5s-.2-10.4-.1-15.5c0-5 2.7-6.5 5.3-6.5z"/></g><path id="path168" d="M237.2 316.3v86.5l-9.5-7.5v-80.6l9.5 1.6z"/><path id="path169" d="m232.5 315.5 4.8 3 5.4-5-5.5-3.1-4.7 5.1z"/><path id="path170" d="m237.2 299.8 5.5 4v9.7l-5.5-3.1v-10.6z"/><path id="path171" d="M204.2 316.3v86.3l9.2-7.8v-80.4l-9.2 1.9z"/><path id="path172" d="m208.9 315.5-4.8 3-5.4-5 5.5-3.1 4.7 5.1z"/><path id="path173" d="m204.2 299.8-5.5 4v9.7l5.5-3.1v-10.6z"/><path id="path174" d="m204.2 310.3 4.4 5.2h24.2l4.4-5.2h-33z"/><path id="path175" d="M204.2 299.8h6.2v4.8h7v-4.8h6.4v4.8h6.9v-4.8h6.4v10.4h-32.9v-10.4z"/><path id="path176" d="M208.8 315.5v83.6h23.8v-83.6h-23.8zm12 11.3c2.6 0 5 1.3 5.2 6.6v15.2h-10.5s-.2-10.3-.1-15.3c0-5 2.7-6.6 5.3-6.5z"/><g id="g185" transform="translate(-82.6)"><path id="path177" d="M278.5 337.1v65.3l-9.8-8.3v-59.4l9.8 2.4z"/><path id="path178" d="m273.8 336.4 4.8 3 5.4-5-5.5-3.2-4.7 5.2z"/><path id="path179" d="m278.4 320.6 5.6 4v9.7l-5.6-3v-10.7z"/><path id="path180" d="M245.5 337.1v65.3l10-8.6v-59.4l-10 2.7z"/><path id="path181" d="m250.2 336.4-4.8 3-5.4-5 5.5-3.2 4.7 5.2z"/><path id="path182" d="m245.5 320.6-5.5 4v9.7l5.5-3v-10.7z"/><path id="path183" d="m245.4 331.1 4.5 5.3H274l4.4-5.3h-33z"/><path id="path184" d="M245.5 320.6h6.2v4.9h7v-4.9h6.4v4.9h6.9v-4.9h6.4v10.5h-32.9v-10.5z"/><path id="path185" d="M250 336.4v62h24v-62h-24zm12 11c2.7.1 5.2 1.3 5.3 6.7v15.3h-10.5s-.2-10.4-.1-15.5c0-5 2.7-6.5 5.3-6.5z"/></g></g><g id="g267" fill="#eac102" fill-rule="evenodd" stroke-linecap="round" stroke-linejoin="round" stroke-width="1.5" transform="matrix(.71025 0 0 .65175 192.5 392.6)"><g id="g218"><path id="path186" d="m232.7 361.2 4.5 2.8"/><path id="path187" d="m232.7 352.1 4.5 2.9"/><path id="path188" d="m232.7 343 4.5 3"/><path id="path189" d="m232.7 334 4.5 2.9"/><path id="path190" d="m232.7 325 4.5 2.8"/><path id="path191" d="m208.7 361.2-4.5 2.8"/><path id="path192" d="m208.7 352.1-4.5 2.9"/><path id="path193" d="m208.7 343-4.5 3"/><path id="path194" d="m208.7 334-4.5 2.9"/><path id="path195" d="m208.7 325-4.5 2.8"/><path id="path196" d="M220.5 351.8v-3"/><path id="path197" d="M208.7 325.1h23.7"/><path id="path198" d="M226.5 334h5.7"/><path id="path199" d="M226.2 343.3h5.9"/><path id="path200" d="M208.7 352h23.8"/><path id="path201" d="M208.7 361.2h23.8"/><path id="path202" d="M220.7 369.4v-7.9"/><path id="path203" d="M216.7 361v-8.8"/><path id="path204" d="M225.5 361v-8.8"/><path id="path205" d="M216.7 324.7v-9"/><path id="path206" d="m225.3 324.6.2-9"/><path id="path207" d="m232.7 370 4.5 2.8"/><path id="path208" d="m208.7 370-4.5 2.8"/><path id="path209" d="M208.7 369.7h23.8"/><path id="path210" d="m232.7 379.2 4.5 2.8"/><path id="path211" d="m208.7 379.2-4.5 2.8"/><path id="path212" d="M208.7 379.2h23.8"/><path id="path213" d="M216.7 379v-8.8"/><path id="path214" d="M225.5 379v-8.8"/><path id="path215" d="M220.7 398.6v-19"/><path id="path216" d="M209.2 334h5.8"/><path id="path217" d="M209.1 343.3h5.9"/><path id="path218" d="M220.5 326.5v-1.4"/></g><g id="g242"><path id="path219" d="m274 382 4.5 2.9"/><path id="path220" d="m274 373 4.5 2.8"/><path id="path221" d="m274 364 4.5 2.8"/><path id="path222" d="m274 354.9 4.5 2.8"/><path id="path223" d="m274 345.8 4.5 2.9"/><path id="path224" d="m250 382-4.5 2.9"/><path id="path225" d="m250 373-4.5 2.8"/><path id="path226" d="m250 364-4.5 2.8"/><path id="path227" d="m250 354.9-4.5 2.8"/><path id="path228" d="m250 345.8-4.5 2.9"/><path id="path229" d="M261.8 372.3v-2.7"/><path id="path230" d="M250 346h23.7"/><path id="path231" d="M267.4 354.9h5.9"/><path id="path232" d="M267.7 364.2h5.6"/><path id="path233" d="M250 372.8h23.7"/><path id="path234" d="M250 382h23.7"/><path id="path235" d="M261.8 398v-15.8"/><path id="path236" d="M258 381.8V373"/><path id="path237" d="M266.8 381.9V373"/><path id="path238" d="M258 346v-9.5"/><path id="path239" d="m266.6 346 .2-9.5"/><path id="path240" d="M250.5 354.9h5.8"/><path id="path241" d="M250.4 364.2h5.5"/><path id="path242" d="M261.8 347.3v-1.1"/></g><g id="g266" transform="translate(-82.6)"><path id="path243" d="m274 382 4.5 2.9"/><path id="path244" d="m274 373 4.5 2.8"/><path id="path245" d="m274 364 4.5 2.8"/><path id="path246" d="m274 354.9 4.5 2.8"/><path id="path247" d="m274 345.8 4.5 2.9"/><path id="path248" d="m250 382-4.5 2.9"/><path id="path249" d="m250 373-4.5 2.8"/><path id="path250" d="m250 364-4.5 2.8"/><path id="path251" d="m250 354.9-4.5 2.8"/><path id="path252" d="m250 345.8-4.5 2.9"/><path id="path253" d="M261.8 372.3v-2.7"/><path id="path254" d="M250 346h23.7"/><path id="path255" d="M267.4 354.9h5.9"/><path id="path256" d="M267.7 364.2h5.6"/><path id="path257" d="M250 372.8h23.7"/><path id="path258" d="M250 382h23.7"/><path id="path259" d="M261.8 398v-15.8"/><path id="path260" d="M258 381.8V373"/><path id="path261" d="M266.8 381.9V373"/><path id="path262" d="M258 346v-9.5"/><path id="path263" d="m266.6 346 .2-9.5"/><path id="path264" d="M250.5 354.9h5.8"/><path id="path265" d="M250.4 364.2h5.5"/><path id="path266" d="M261.8 347.3v-1.1"/></g></g><path id="path267" fill="#ed1c24" fill-rule="evenodd" stroke-linecap="round" stroke-linejoin="round" stroke-width="1" d="M325 690.9v-16c0-5.1 2.4-6.7 5-6.6s4.8 1.3 4.9 6.8v15.8H325z"/><path id="path268" fill="#ed1c24" fill-rule="evenodd" stroke-linecap="round" stroke-linejoin="round" stroke-width="1" d="m363.6 690.6-.1-16c0-5.1 2.5-6.7 5-6.6s4.9 1.3 5 6.8v15.8h-9.9z"/><path id="path269" fill="#ed1c24" fill-rule="evenodd" stroke-linecap="round" stroke-linejoin="round" stroke-width="1" d="m316.2 633.2-.1-10c0-3.2 1.9-4.2 3.8-4.2s3.6.9 3.7 4.3v10h-7.4z"/><path id="path270" fill="#ed1c24" fill-rule="evenodd" stroke-linecap="round" stroke-linejoin="round" stroke-width="1" d="m375 633.3-.2-10c.1-3.2 2-4.2 3.8-4.2 2 0 3.7.9 3.8 4.3v9.9h-7.5z"/><path id="path271" fill="#ed1c24" fill-rule="evenodd" stroke-linecap="round" stroke-linejoin="round" stroke-width="1" d="M345.5 619.8v-10c0-3.2 1.8-4.2 3.7-4.2 1.9 0 3.7.8 3.7 4.3v9.9h-7.4z"/><path id="path272" fill="#eac102" fill-rule="evenodd" stroke-linecap="round" stroke-linejoin="round" stroke-width="1" d="m314.9 651.2-15.8 3.9 4.7 4.3V708l-7.5 6.9v45.4l16.8 8.9h72.2l16.8-9V715l-7.4-6.9v-48.6l4.6-4.3-15.7-3.9h-68.7zm14.6 16.9h.5c2.5 0 4.8 1.3 5 6.8l-.1 15.8h-9.8s-.2-10.7-.1-16c0-4.8 2.2-6.5 4.5-6.6zm38.5 0h.5c2.5 0 4.8 1.3 5 6.8l-.1 15.8h-9.9v-16c0-4.8 2.2-6.5 4.5-6.6z"/><path id="path273" fill="#eac102" fill-rule="evenodd" stroke-linecap="round" stroke-linejoin="round" stroke-width="1" d="m296.4 714.9 16.7 8.7V739"/><path id="path274" fill="#e3e4e5" fill-rule="evenodd" stroke-linecap="round" stroke-linejoin="round" stroke-width="1" d="m303.8 708 16.6 4m-7.4 11.6 7.4-11.5"/><path id="path275" fill="#e3e4e5" fill-rule="evenodd" stroke-linecap="round" stroke-linejoin="round" stroke-width="1" d="M320.4 712v-55.6"/><path id="path276" fill="#e3e4e5" fill-rule="evenodd" stroke-linecap="round" stroke-linejoin="round" stroke-width="1" d="m315 651.3 5.3 4.9"/><path id="path277" fill="#e3e4e5" fill-rule="evenodd" stroke-linecap="round" stroke-linejoin="round" stroke-width="1" d="m303.8 659.4 16.6-3.2"/><path id="path278" fill="#eac102" fill-rule="evenodd" stroke-linecap="round" stroke-linejoin="round" stroke-width="1" d="m402 714.9-16.7 8.7V739"/><path id="path279" fill="#e3e4e5" fill-rule="evenodd" stroke-linecap="round" stroke-linejoin="round" stroke-width="1" d="m394.6 708-16.5 4m7.3 11.6-7.3-11.5"/><path id="path280" fill="#e3e4e5" fill-rule="evenodd" stroke-linecap="round" stroke-linejoin="round" stroke-width="1" d="M378 712v-55.6"/><path id="path281" fill="#e3e4e5" fill-rule="evenodd" stroke-linecap="round" stroke-linejoin="round" stroke-width="1" d="m383.4 651.3-5.3 4.9"/><path id="path282" fill="#e3e4e5" fill-rule="evenodd" stroke-linecap="round" stroke-linejoin="round" stroke-width="1" d="m394.7 659.4-16.7-3.2"/><path id="path283" fill="#e3e4e5" fill-rule="evenodd" stroke-linecap="round" stroke-linejoin="round" stroke-width="1" d="M320.3 712h57.8"/><path id="path284" fill="#e3e4e5" fill-rule="evenodd" stroke-linecap="round" stroke-linejoin="round" stroke-width="1" d="M320.3 656.2h57.8"/><path id="path285" fill="#e3e4e5" fill-rule="evenodd" stroke-linecap="round" stroke-linejoin="round" stroke-width="1" d="M357.8 723.6H385"/><path id="path286" fill="#e3e4e5" fill-rule="evenodd" stroke-linecap="round" stroke-linejoin="round" stroke-width="1" d="M313.3 723.6h27.3"/><g id="g291" fill="#eac102" stroke-linecap="round" stroke-linejoin="round" stroke-width="1.5" transform="matrix(.71025 0 0 .65175 85 236.1)"><path id="path287" fill-rule="evenodd" d="m436.4 623.8-3.7 1v7.1l5.3-1.4V626l-1.6-2.1z"/><path id="path288" fill-rule="evenodd" d="m420 616.5 8.4 3.8v6.3l8 2.5v-5.3l6.4 2.9v15.9l-23-5.4.1-20.7z"/><path id="path289" fill-rule="evenodd" d="m307.7 623.8 3.7 1v7.1l-5.3-1.4V626l1.6-2.1z"/><path id="path290" fill-rule="evenodd" d="m324.2 616.5-8.5 3.8v6.3l-8 2.5v-5.3l-6.5 2.9v15.9l23-4.8v-21.3z"/><path id="path291" d="M343.5 616.6H324v21h96v-21h-19.2v8.6h-19.3v-8.6h-18.7v8.6h-19.3v-8.6z"/></g><g id="g365" fill="#eac102" fill-rule="evenodd" stroke-linecap="round" stroke-linejoin="round" stroke-width="1.5" transform="matrix(.71025 0 0 .65357 85 234.8)"><g id="g310"><path id="path292" d="m435.6 662-23-3.2"/><path id="path293" d="m435.6 674.4-22.7-1.3"/><path id="path294" d="m435.6 686.8-22.5.6"/><path id="path295" d="m435.7 699.2-23.2 2.5"/><path id="path296" d="m435.5 711.6-23 4.4"/><path id="path297" d="m423 759.7 23.4-13.5"/><path id="path298" d="M424.4 647.2v13"/><path id="path299" d="M424.4 673.8v13"/><path id="path300" d="M424.4 700.6v13"/><path id="path301" d="m424.4 727.3 10.3 13.7"/><path id="path302" d="M434.7 764.8v-11.7"/><path id="path303" d="M417.5 659.6v13.7"/><path id="path304" d="M432 661.5V674"/><path id="path305" d="M417.5 687.4V701"/><path id="path306" d="M432 687.1v12.6"/><path id="path307" d="M417.5 715v13.7"/><path id="path308" d="M432 712.5v12.7"/><path id="path309" d="M427.7 745.1v11.7"/><path id="path310" d="M442.2 737v11.7"/></g><g id="g330"><path id="path311" d="M321 759.8 297.7 746"/><path id="path312" d="m308.2 662 23-3.2"/><path id="path313" d="m308.2 674.4 23.3-1.3"/><path id="path314" d="m308.2 686.8 23 .6"/><path id="path315" d="m308.1 699.2 23.2 2.5"/><path id="path316" d="m308.3 711.6 23 4.4"/><path id="path317" d="m321.1 759.7-23.4-13.5"/><path id="path318" d="M319.7 647.2v13"/><path id="path319" d="M319.7 673.8v13"/><path id="path320" d="M319.7 700.6v13"/><path id="path321" d="M319.7 727.3 309.4 741"/><path id="path322" d="M309.4 764.8v-11.7"/><path id="path323" d="M326.6 659.6v13.7"/><path id="path324" d="M312 661.5V674"/><path id="path325" d="M326.6 687.4V701"/><path id="path326" d="M312 687.1v12.6"/><path id="path327" d="M326.6 715v13.7"/><path id="path328" d="M312 712.5v12.7"/><path id="path329" d="M316.4 745.1v11.7"/><path id="path330" d="M301.9 737v11.7"/></g><g id="g364"><path id="path331" d="M398.7 662.6v-3.4"/><path id="path332" d="M388.5 759.8h34.4"/><path id="path333" d="M331 658.8h81.3"/><path id="path334" d="M352.5 673.1H392"/><path id="path335" d="M352.3 687.4h39.3"/><path id="path336" d="M331 701.7h81.3"/><path id="path337" d="M331 716h81.3"/><path id="path338" d="M358.2 658.8v-14.2"/><path id="path339" d="M385.3 658.8v-14.2"/><path id="path340" d="M358.2 687.3V673"/><path id="path341" d="M385.3 687.3V673"/><path id="path342" d="M358.2 716v-14.2"/><path id="path343" d="M385.3 716v-14.2"/><path id="path344" d="M344.7 662.4v-3.2"/><path id="path345" d="M372 673v-14"/><path id="path346" d="M344.7 701.4v-3.6"/><path id="path347" d="M372 701.5v-13.9"/><path id="path348" d="M398.7 701.1v-3.4"/><path id="path349" d="M344.7 730.1v-13.8"/><path id="path350" d="M372 725.3v-9"/><path id="path351" d="M398.7 730.1v-13.8"/><path id="path352" d="m339.5 747.6 5.3-17.3"/><path id="path353" d="m403.8 747.6-5.2-17.3"/><path id="path354" d="M339.4 771.9v-12"/><path id="path355" d="M403.9 771.9v-12"/><path id="path356" d="M329.6 759.6V748"/><path id="path357" d="M346.5 759.6V748"/><path id="path358" d="M396.9 759.6V748"/><path id="path359" d="M413.8 759.6V748"/><path id="path360" d="M321.2 759.8H355"/><path id="path361" d="M406.3 673.1h6.5"/><path id="path362" d="M331.6 673.1h5.9"/><path id="path363" d="M406.5 687.4h6"/><path id="path364" d="M331.7 687.4h6"/></g></g><g id="g375" fill="none" transform="matrix(.71025 0 0 .65175 192.7 393.3)"><g id="g370" stroke-linecap="round" stroke-linejoin="round" stroke-width="1" transform="matrix(1 0 0 .91638 -.3 33.7)"><path id="path365" d="M1066.7 149.7a3.7 3.7 0 1 1 7.5 0h-3.8z" transform="matrix(1.54348 0 0 1.60748 -1464.8 162.3)"/><path id="path366" d="M1066.7 149.7a3.7 3.7 0 1 1 7.5 0h-3.8z" transform="matrix(1.54348 0 0 1.60748 -1451.4 162.3)"/><path id="path367" d="M1066.7 149.7a3.7 3.7 0 1 1 7.5 0h-3.8z" transform="matrix(1.54348 0 0 1.60748 -1397.7 162.3)"/><path id="path368" d="M1066.7 149.7a3.7 3.7 0 1 1 7.5 0h-3.8z" transform="matrix(1.54348 0 0 1.60748 -1411.2 162.3)"/><path id="path369" d="M1066.7 149.7a3.7 3.7 0 1 1 7.5 0h-3.8z" transform="matrix(1.54348 0 0 1.60748 -1424.6 162.3)"/><path id="path370" d="M1066.7 149.7a3.7 3.7 0 1 1 7.5 0h-3.8z" transform="matrix(1.54348 0 0 1.60748 -1438 162.3)"/></g><g id="g374" stroke-linecap="butt" stroke-width="1.5"><path id="path371" d="M158.5 407.6s-4.7-5.1-.2-6.3c4.3-1.2 8.7 4.5 8.7 4.5"/><path id="path372" d="M168.8 405.1s-4.6-5.2-.2-6.3c4.3-1.2 8.8 4.4 8.8 4.4"/><path id="path373" d="M283 407.6s4.6-5.1.1-6.3c-4.3-1.2-8.7 4.5-8.7 4.5"/><path id="path374" d="M272.6 405.1s4.6-5.2.2-6.3c-4.3-1.2-8.8 4.4-8.8 4.4"/></g></g><path id="path375" fill="#eac102" fill-rule="evenodd" stroke-linecap="round" stroke-linejoin="round" stroke-width="1" d="m385.4 739.2 16.7-8.8"/><path id="path376" fill="#eac102" fill-rule="evenodd" stroke-linecap="round" stroke-linejoin="round" stroke-width="1" d="m385.3 747.9 16.6-8.9"/><path id="path377" fill="#eac102" fill-rule="evenodd" stroke-linecap="round" stroke-linejoin="round" stroke-width="1" d="M393.6 751.2v-7.7"/><path id="path378" fill="#eac102" fill-rule="evenodd" stroke-linecap="round" stroke-linejoin="round" stroke-width="1" d="M385.2 747.2v-7.6"/><path id="path379" fill="#eac102" fill-rule="evenodd" stroke-linecap="round" stroke-linejoin="round" stroke-width="1" d="m312.9 739.5-16.7-8.9"/><path id="path380" fill="#eac102" fill-rule="evenodd" stroke-linecap="round" stroke-linejoin="round" stroke-width="1" d="m313 748-16.6-8.8"/><path id="path381" fill="#eac102" fill-rule="evenodd" stroke-linecap="round" stroke-linejoin="round" stroke-width="1" d="M304.7 751.4v-7.7"/><path id="path382" fill="#eac102" fill-rule="evenodd" stroke-linecap="round" stroke-linejoin="round" stroke-width="1" d="M313.1 747.4v-7.6"/><path id="path383" fill="#eac102" fill-rule="evenodd" stroke-linecap="round" stroke-linejoin="round" stroke-width="1" d="M361.2 739.4h24"/><path id="path384" fill="#eac102" fill-rule="evenodd" stroke-linecap="round" stroke-linejoin="round" stroke-width="1" d="M313.1 739.5h24"/><path id="path385" fill="#eac102" fill-rule="evenodd" stroke-width="1" d="M457 780.5c-36.2-14.9-72.3-20.5-108.4-35.3-35.5 15.6-76.5 21.3-112 36.9a1197 1197 0 0 0 13.2 117c-8.9 2.5 121.3 17.2 191.5 2.5 5.5-9.8 14-46.8 15.6-121.1z"/><path id="path386" fill="#eac102" fill-rule="evenodd" stroke-linecap="butt" stroke-width="1" d="M250 854h204.2"/><path id="path387" fill="none" stroke-linecap="butt" stroke-width="1" d="m278.4 853.6.1 18"/><path id="path388" fill="none" stroke-linecap="butt" stroke-width="1" d="m417.4 853.5.1 18"/><path id="path389" fill="none" stroke-linecap="butt" stroke-width="1" d="M290.4 835.9v17.9"/><path id="path390" fill="none" stroke-linecap="butt" stroke-width="1" d="M303.3 854.4v18"/><path id="path391" fill="none" stroke-linecap="butt" stroke-width="1" d="m325.6 853.8.1 17.9"/><path id="path392" fill="none" stroke-linecap="butt" stroke-width="1" d="m348.5 854 .1 18"/><path id="path393" fill="none" stroke-linecap="butt" stroke-width="1" d="m371 854 .2 18"/><path id="path394" fill="none" stroke-linecap="butt" stroke-width="1" d="M392.6 854.3v18"/><path id="path395" fill="none" stroke-linecap="butt" stroke-width="1" d="M405.5 836v18"/><path id="path396" fill="none" stroke-linecap="butt" stroke-width="1" d="m440 818.3.1 18"/><path id="path397" fill="none" stroke-linecap="butt" stroke-width="1" d="m440.4 854 .1 18"/><path id="path398" fill="none" stroke-linecap="butt" stroke-width="1" d="M428 835.5v18"/><path id="path399" fill="none" stroke-linecap="butt" stroke-width="1" d="m416.8 817.6.1 18"/><path id="path400" fill="#eac102" fill-rule="evenodd" stroke-linecap="butt" stroke-width="1" d="m236.1 890.7 209.6-.7"/><path id="path401" fill="#eac102" fill-rule="evenodd" stroke-linecap="butt" stroke-width="1" d="M234.3 871.6h208"/><path id="path402" fill="#eac102" fill-rule="evenodd" stroke-linecap="butt" stroke-width="1" d="M292.3 890v-18.4"/><path id="path403" fill="#eac102" fill-rule="evenodd" stroke-linecap="butt" stroke-width="1" d="M314.7 890v-18.4"/><path id="path404" fill="#eac102" fill-rule="evenodd" stroke-linecap="butt" stroke-width="1" d="M337 890v-18.4"/><path id="path405" fill="#eac102" fill-rule="evenodd" stroke-linecap="butt" stroke-width="1" d="M359.4 890v-18.4"/><path id="path406" fill="#eac102" fill-rule="evenodd" stroke-linecap="butt" stroke-width="1" d="M381.8 890v-18.4"/><path id="path407" fill="#eac102" fill-rule="evenodd" stroke-linecap="butt" stroke-width="1" d="M292.3 890v-18.4"/><path id="path408" fill="#eac102" fill-rule="evenodd" stroke-linecap="butt" stroke-width="1" d="M314.7 890v-18.4"/><path id="path409" fill="#eac102" fill-rule="evenodd" stroke-linecap="butt" stroke-width="1" d="M337 890v-18.4"/><path id="path410" fill="#eac102" fill-rule="evenodd" stroke-linecap="butt" stroke-width="1" d="M359.4 890v-18.4"/><path id="path411" fill="#eac102" fill-rule="evenodd" stroke-linecap="butt" stroke-width="1" d="M381.8 890v-18.4"/><path id="path412" fill="#eac102" fill-rule="evenodd" stroke-linecap="butt" stroke-width="1" d="M303.5 908.4V890"/><path id="path413" fill="#eac102" fill-rule="evenodd" stroke-linecap="butt" stroke-width="1" d="M325.9 908.4V890"/><path id="path414" fill="#eac102" fill-rule="evenodd" stroke-linecap="butt" stroke-width="1" d="M348.2 908.4V890"/><path id="path415" fill="#eac102" fill-rule="evenodd" stroke-linecap="butt" stroke-width="1" d="M370.6 908.4V890"/><path id="path416" fill="none" stroke-linecap="butt" stroke-width="1" d="m279.2 890.3.1 17.9"/><path id="path417" fill="none" stroke-linecap="butt" stroke-width="1" d="m394.3 890.5.1 17.9"/><path id="path418" fill="none" stroke-linecap="butt" stroke-width="1" d="M428.9 872.7v18"/><path id="path419" fill="none" stroke-linecap="butt" stroke-width="1" d="m416.8 889.9.1 18"/><path id="path420" fill="none" stroke-linecap="butt" stroke-width="1" d="M405.7 872v18"/><g id="g439" stroke-linecap="butt" stroke-width="1.6" transform="matrix(.84438 0 0 .4897 56.5 392.2)"><path id="path421" fill="#eac102" fill-rule="evenodd" d="M238 798.2h215.7"/><path id="path422" fill="#eac102" fill-rule="evenodd" d="M302.6 798.2v-18.4"/><path id="path423" fill="#eac102" fill-rule="evenodd" d="M325 798.2v-18.4"/><path id="path424" fill="#eac102" fill-rule="evenodd" d="M347.3 798.2v-18.4"/><path id="path425" fill="#eac102" fill-rule="evenodd" d="M369.7 798.2v-18.4"/><path id="path426" fill="none" d="M266.4 797.8v17.9"/><path id="path427" fill="none" d="M405.4 797.7v18"/><path id="path428" fill="none" d="M278.3 780v18"/><path id="path429" fill="none" d="m291.2 798.6.1 18"/><path id="path430" fill="none" d="M313.6 798v17.9"/><path id="path431" fill="none" d="m336.4 798.2.1 18"/><path id="path432" fill="none" d="m359 798.2.1 18"/><path id="path433" fill="none" d="M380.5 798.5v17.9"/><path id="path434" fill="none" d="M393.4 780.3v17.9"/><path id="path435" fill="none" d="M428.4 798.2V816"/><path id="path436" fill="none" d="M415.9 779.7v17.9"/><path id="path437" fill="none" d="m243.8 798.3.1 18"/><path id="path438" fill="none" d="m254.3 780.4.1 18"/><path id="path439" fill="#eac102" fill-rule="evenodd" d="M245.4 817.3h208"/></g><g id="g458" stroke-linecap="butt" stroke-width="1.5" transform="matrix(.8697 0 0 .4897 50.5 411)"><path id="path440" fill="#eac102" fill-rule="evenodd" d="M238 798.2h204"/><path id="path441" fill="#eac102" fill-rule="evenodd" d="M302.6 798.2v-18.4"/><path id="path442" fill="#eac102" fill-rule="evenodd" d="M325 798.2v-18.4"/><path id="path443" fill="#eac102" fill-rule="evenodd" d="M347.3 798.2v-18.4"/><path id="path444" fill="#eac102" fill-rule="evenodd" d="M369.7 798.2v-18.4"/><path id="path445" fill="none" d="M266.4 797.8v17.9"/><path id="path446" fill="none" d="M405.4 797.7v18"/><path id="path447" fill="none" d="M278.3 780v18"/><path id="path448" fill="none" d="m291.2 798.6.1 18"/><path id="path449" fill="none" d="M313.6 798v17.9"/><path id="path450" fill="none" d="m336.4 798.2.1 18"/><path id="path451" fill="none" d="m359 798.2.1 18"/><path id="path452" fill="none" d="M380.5 798.5v17.9"/><path id="path453" fill="none" d="M393.4 780.3v17.9"/><path id="path454" fill="none" d="M428.4 798.2V816"/><path id="path455" fill="none" d="M415.9 779.7v17.9"/><path id="path456" fill="none" d="m243.8 798.3.1 18"/><path id="path457" fill="none" d="m254.3 780.4.1 18"/><path id="path458" fill="#eac102" fill-rule="evenodd" d="M245.4 817.3h208"/></g><g id="g477" stroke-linecap="butt" stroke-width="1.6" transform="matrix(.84438 0 0 .4897 56.5 428.9)"><path id="path459" fill="#eac102" fill-rule="evenodd" d="M238 798.2h204"/><path id="path460" fill="#eac102" fill-rule="evenodd" d="M302.6 798.2v-18.4"/><path id="path461" fill="#eac102" fill-rule="evenodd" d="M325 798.2v-18.4"/><path id="path462" fill="#eac102" fill-rule="evenodd" d="M347.3 798.2v-18.4"/><path id="path463" fill="#eac102" fill-rule="evenodd" d="M369.7 798.2v-18.4"/><path id="path464" fill="none" d="M266.4 797.8v17.9"/><path id="path465" fill="none" d="M405.4 797.7v18"/><path id="path466" fill="none" d="M278.3 780v18"/><path id="path467" fill="none" d="m291.2 798.6.1 18"/><path id="path468" fill="none" d="M313.6 798v17.9"/><path id="path469" fill="none" d="m336.4 798.2.1 18"/><path id="path470" fill="none" d="m359 798.2.1 18"/><path id="path471" fill="none" d="M380.5 798.5v17.9"/><path id="path472" fill="none" d="M393.4 780.3v17.9"/><path id="path473" fill="none" d="M428.4 798.2V816"/><path id="path474" fill="none" d="M415.9 779.7v17.9"/><path id="path475" fill="none" d="m243.8 798.3.1 18"/><path id="path476" fill="none" d="m254.3 780.4.1 18"/><path id="path477" fill="#eac102" fill-rule="evenodd" d="M245.4 817.3h208"/></g><g id="g496" stroke-linecap="butt" stroke-width="1.6" transform="matrix(.84438 0 0 .4897 76.9 447.6)"><path id="path478" fill="#eac102" fill-rule="evenodd" d="M238 798.2h204"/><path id="path479" fill="#eac102" fill-rule="evenodd" d="M302.6 798.2v-18.4"/><path id="path480" fill="#eac102" fill-rule="evenodd" d="M325 798.2v-18.4"/><path id="path481" fill="#eac102" fill-rule="evenodd" d="M347.3 798.2v-18.4"/><path id="path482" fill="#eac102" fill-rule="evenodd" d="M369.7 798.2v-18.4"/><path id="path483" fill="none" d="M266.4 797.8v17.9"/><path id="path484" fill="none" d="M405.4 797.7v18"/><path id="path485" fill="none" d="M278.3 780v18"/><path id="path486" fill="none" d="m291.2 798.6.1 18"/><path id="path487" fill="none" d="M313.6 798v17.9"/><path id="path488" fill="none" d="m336.4 798.2.1 18"/><path id="path489" fill="none" d="m359 798.2.1 18"/><path id="path490" fill="none" d="M380.5 798.5v17.9"/><path id="path491" fill="none" d="M393.4 780.3v17.9"/><path id="path492" fill="none" d="M428.4 798.2V816"/><path id="path493" fill="none" d="M415.9 779.7v17.9"/><path id="path494" fill="none" d="m243.8 798.3.1 18"/><path id="path495" fill="none" d="m254.3 780.4.1 18"/><path id="path496" fill="#eac102" fill-rule="evenodd" d="M245.4 817.3h208"/></g><path id="path497" fill="#eac102" fill-rule="evenodd" stroke-linecap="round" stroke-linejoin="round" stroke-width="1" d="M349.7 787c-52.4 33.3-48.6 48.5-46.2 96l96.2.1c-.4-48-.3-69.5-50-96z"/><path id="path498" fill="#ed1c24" fill-rule="evenodd" stroke-linecap="round" stroke-linejoin="round" stroke-width="1" d="M315.8 882.6c-1-38.2-5.4-58.3 35.1-83.2 40.3 25.6 36.5 46.7 37.7 83.6l-72.9-.4z"/><path id="path499" fill="#eac102" fill-rule="evenodd" stroke-linecap="round" stroke-linejoin="round" stroke-width="1" d="M436.6 800c-38.9 33.3-36 48.6-34.3 96.2h71.3c-.3-48-.2-69.6-37-96.2z"/><path id="path500" fill="#ed1c24" fill-rule="evenodd" stroke-linecap="round" stroke-linejoin="round" stroke-width="1" d="M411.4 895.8c-.7-38.3-4-58.5 26-83.4 29.9 25.7 27 46.7 28 83.7l-54-.3z"/><path id="path501" fill="#eac102" fill-rule="evenodd" stroke-linecap="round" stroke-linejoin="round" stroke-width="1" d="M264.8 799c-38.9 33.2-36 48.5-34.3 96.1h71.3c-.3-48-.2-69.6-37-96.2z"/><path id="path502" fill="#ed1c24" fill-rule="evenodd" stroke-linecap="round" stroke-linejoin="round" stroke-width="1" d="M239.6 894.7c-.7-38.3-4-58.5 26-83.4 29.9 25.7 27 46.7 28 83.7l-54-.3z"/><g id="g521" stroke-linecap="butt" stroke-width="1.6" transform="matrix(.84438 0 0 .4897 55 373.4)"><path id="path503" fill="#eac102" fill-rule="evenodd" d="M238 798.2h204"/><path id="path504" fill="#eac102" fill-rule="evenodd" d="M302.6 798.2v-18.4"/><path id="path505" fill="#eac102" fill-rule="evenodd" d="M325 798.2v-18.4"/><path id="path506" fill="#eac102" fill-rule="evenodd" d="M347.5 797.6v-23.4"/><path id="path507" fill="#eac102" fill-rule="evenodd" d="M369.7 798.2v-18.4"/><path id="path508" fill="none" d="M266.4 797.8v17.9"/><path id="path509" fill="none" d="M405.4 797.7v18"/><path id="path510" fill="none" d="M278.3 780v18"/><path id="path511" fill="none" d="m291.2 798.6.1 18"/><path id="path512" fill="none" d="M313.6 798v17.9"/><path id="path513" fill="none" d="m336.4 798.2.1 18"/><path id="path514" fill="none" d="m359 798.2.1 18"/><path id="path515" fill="none" d="M380.5 798.5v17.9"/><path id="path516" fill="none" d="M393.4 780.3v17.9"/><path id="path517" fill="none" d="M428.4 798.2V816"/><path id="path518" fill="none" d="M415.9 779.7v17.9"/><path id="path519" fill="none" d="m243.8 798.3.1 18"/><path id="path520" fill="none" d="m254.3 780.4.1 18"/><path id="path521" fill="#eac102" fill-rule="evenodd" d="M245.4 817.3h208"/></g><path id="path522" fill="none" stroke-linecap="butt" stroke-width="1" d="M433.4 774v8.8"/><path id="path523" fill="#eac102" fill-rule="evenodd" stroke-linecap="round" stroke-linejoin="round" stroke-width="1" d="M349.4 708.3c-21.8 14.3-20.3 20.9-19.3 41.4h40c-.1-20.7 0-30-20.7-41.4z"/><path id="path524" fill="#ed1c24" fill-rule="evenodd" stroke-linecap="round" stroke-linejoin="round" stroke-width="1" d="M335.2 749.5c-.3-16.5-2.2-25.1 14.7-35.9 16.7 11 15.1 20.1 15.6 36l-30.3-.1z"/><path id="path525" fill="#eac102" fill-rule="evenodd" stroke-width="1" d="m455.3 763.7-106.8-26.3-108.8 26.2c.1 9.6.4 9 .8 18l108.2-29.3 106 28.3c.3-8.7.5-7.7.6-16.9z"/><path id="path526" fill="none" stroke-linecap="butt" stroke-width="1" d="M433.6 792.5v8.8"/></g><g id="g532" stroke="#000" transform="matrix(.265 0 0 .265 302.1 1)"><path id="path527" fill="none" stroke-linecap="butt" stroke-width="1" d="m254.8 849.5.1 18"/><path id="path528" fill="#e3e4e5" stroke-width="1" d="M260.4 823.2h-1.1a40.9 40.9 0 0 0-10 1.8l-2.5.9-2.3.9a32.3 32.3 0 0 1-14.4 1.6c-1.2 0-2.4-.2-3.5-.4a97 97 0 0 0 1 5.5H218v119.6h241.4V834.8l2.2.1a27.1 27.1 0 0 1 8.6 2.5l2.3 1a24 24 0 0 0 9.2 1.7c1.5 0 3-.1 4.4-.3h.6c1-3.8 1.8-7.6 2.4-11.4l-3 .4a43.4 43.4 0 0 1-8.2 0 21.2 21.2 0 0 1-5.4-1.5l-2.3-1-2.3-1a24.7 24.7 0 0 0-6.3-1.4 40.1 40.1 0 0 0-12.2.7 20.4 20.4 0 0 0-4.8 1.9l-2.2 1a18.6 18.6 0 0 1-5.7 1.4 32.7 32.7 0 0 1-8.5-.2 29.3 29.3 0 0 1-8.3-2.4 80.5 80.5 0 0 0-4.9-1.7l-3.1-.6a38.3 38.3 0 0 0-8.1-.2 22.2 22.2 0 0 0-8.3 2.4l-2.4 1-2.7 1h-.6v-.3l-3 .4a43.4 43.4 0 0 1-8.1 0 21.2 21.2 0 0 1-5.5-1.5l-2.2-1-2.4-1a24.7 24.7 0 0 0-6.2-1.4 40.1 40.1 0 0 0-12.2.7 20.4 20.4 0 0 0-4.8 2l-2.2 1a18.6 18.6 0 0 1-5.8 1.3 32.7 32.7 0 0 1-8.5-.2 29.3 29.3 0 0 1-8.2-2.3 80.5 80.5 0 0 0-5-1.8l-3.1-.6a38.3 38.3 0 0 0-8-.2 22.2 22.2 0 0 0-8.4 2.4l-2.4 1a25.3 25.3 0 0 1-14 1.6 22.8 22.8 0 0 1-5.7-1.5l-2.4-1.1a46.9 46.9 0 0 0-5.1-1.9 22.5 22.5 0 0 0-6.2-.6z"/><path id="path529" fill="#0071bc" fill-rule="evenodd" stroke-linecap="butt" stroke-width=".7" d="M258.5 821.2a40.2 40.2 0 0 0-10 1.8l-2.4.9-2.4.9a32.3 32.3 0 0 1-14.4 1.7l-3.5-.5c.5 3.9 1.3 7.7 2.3 11.4h1.2a39.8 39.8 0 0 0 11.7-.7l2.7-.9 2.4-.9a77.7 77.7 0 0 1 5-1.7 30 30 0 0 1 7.4-1 30.2 30.2 0 0 1 7.3.7l2.7.8 2.4 1a77.6 77.6 0 0 0 5 2 22.8 22.8 0 0 0 7.2 1 30.6 30.6 0 0 0 7.3-1 24.7 24.7 0 0 0 5-2 47 47 0 0 1 5.1-1.8 29.8 29.8 0 0 1 11.3-.3 28.2 28.2 0 0 1 8 2.3 59.8 59.8 0 0 0 5 1.8c2.8 1.1 5 1.4 8.3 1.4a39 39 0 0 0 9.8-1.8l2.4-1a77.7 77.7 0 0 1 5.1-1.6 30 30 0 0 1 7.3-1 30.2 30.2 0 0 1 7.4.7c1 .2 1.8.5 2.6.8l2.4 1a77.6 77.6 0 0 0 5 2 22.8 22.8 0 0 0 7.3.9 30.6 30.6 0 0 0 7.2-1 24.7 24.7 0 0 0 5-1.9 47 47 0 0 1 5.2-1.8 29.8 29.8 0 0 1 11.3-.3 28.2 28.2 0 0 1 8 2.3 59.8 59.8 0 0 0 5 1.7 29.7 29.7 0 0 0 7.6 1 32.6 32.6 0 0 0 7.4-.7 18.6 18.6 0 0 0 4.7-1.8c.8-.4 1.5-.8 2.3-1a20.4 20.4 0 0 1 5.8-1.6 34.6 34.6 0 0 1 17.5 2.4l2.3 1a24 24 0 0 0 9.2 1.7c1.5 0 3-.1 4.4-.3h.6c1-3.8 1.8-7.6 2.4-11.4l-3 .4a43.4 43.4 0 0 1-8.1 0 21.2 21.2 0 0 1-5.5-1.5l-2.3-1-2.3-1a24.7 24.7 0 0 0-6.3-1.4 40.1 40.1 0 0 0-12.2.7 20.4 20.4 0 0 0-4.8 2l-2.1 1a18.6 18.6 0 0 1-5.8 1.3 32.7 32.7 0 0 1-8.5-.2 29.3 29.3 0 0 1-8.3-2.3 80.5 80.5 0 0 0-4.9-1.8l-3.1-.6a38.3 38.3 0 0 0-8.1-.2 22.2 22.2 0 0 0-8.3 2.4l-2.4 1c-2.6 1.2-3.3 1-5.9 1.4h-4.7a28.9 28.9 0 0 1-6.8-.9l-2.5-.8-2.2-1-2.4-1a24.7 24.7 0 0 0-6.2-1.5 40.1 40.1 0 0 0-12.2.7 20.4 20.4 0 0 0-4.8 2l-2.2 1a18.6 18.6 0 0 1-5.7 1.4 32.7 32.7 0 0 1-8.5-.3 29.3 29.3 0 0 1-8.3-2.3 80.5 80.5 0 0 0-4.9-1.8l-3.2-.6a38.3 38.3 0 0 0-8-.2 22.2 22.2 0 0 0-8.4 2.4l-2.4 1a25.3 25.3 0 0 1-14 1.6 22.8 22.8 0 0 1-5.7-1.5l-2.4-1.1a46.9 46.9 0 0 0-5-1.9 22.5 22.5 0 0 0-6.3-.6h-1.1z"/><path id="path530" fill="#0071bc" fill-rule="evenodd" stroke-linecap="butt" stroke-width=".7" d="M258.5 844.5a40.2 40.2 0 0 0-10 1.8l-2.4 1-2.4.8a32.3 32.3 0 0 1-14.4 1.7l-3.5-.5c.5 3.9 1.3 7.7 2.3 11.4l1.2.1a39.8 39.8 0 0 0 11.7-.8l2.7-.9 2.4-.9a77.7 77.7 0 0 1 5-1.7 30 30 0 0 1 7.4-1 30.2 30.2 0 0 1 7.3.7c1 .3 1.9.5 2.7.9l2.4 1a77.6 77.6 0 0 0 5 2 22.8 22.8 0 0 0 7.2.8 30.6 30.6 0 0 0 7.3-.9 24.7 24.7 0 0 0 5-2 47 47 0 0 1 5.1-1.8l3.2-.5a29.8 29.8 0 0 1 8.1.2 28.2 28.2 0 0 1 8 2.3 59.8 59.8 0 0 0 5 1.8c2.8 1.2 4.8 1.4 8.3 1.4a39 39 0 0 0 9.8-1.8l2.4-.9a77.7 77.7 0 0 1 5.1-1.7 30 30 0 0 1 7.3-1 30.2 30.2 0 0 1 7.4.7c1 .2 1.8.5 2.6.8l2.4 1a77.6 77.6 0 0 0 5 2 22.8 22.8 0 0 0 7.3.9 30.6 30.6 0 0 0 7.2-1 24.7 24.7 0 0 0 5-1.8 47 47 0 0 1 5.2-2l3.2-.5a29.8 29.8 0 0 1 8 .3 28.2 28.2 0 0 1 8.1 2.3 59.8 59.8 0 0 0 5 1.8 29.7 29.7 0 0 0 7.6.9 32.6 32.6 0 0 0 7.4-.7 18.6 18.6 0 0 0 4.7-1.8l2.3-1a20.4 20.4 0 0 1 5.8-1.6 34.6 34.6 0 0 1 17.5 2.4l2.3 1a24 24 0 0 0 9.2 1.7c1.5 0 3-.1 4.4-.3h.6c1-3.8 1.8-7.5 2.4-11.4l-3 .4a43.4 43.4 0 0 1-8.1 0 21.2 21.2 0 0 1-5.5-1.5l-2.3-1-2.3-1a24.7 24.7 0 0 0-6.3-1.4 40.1 40.1 0 0 0-12.2.7 20.4 20.4 0 0 0-4.8 2l-2.1 1a18.6 18.6 0 0 1-5.8 1.3 32.7 32.7 0 0 1-8.5-.2 29.3 29.3 0 0 1-8.3-2.3 80.5 80.5 0 0 0-4.9-1.8l-3.1-.6a38.3 38.3 0 0 0-8.1-.2 22.2 22.2 0 0 0-8.3 2.4l-2.4 1c-2.2 1.2-4 .7-6.3 1.2a43.4 43.4 0 0 1-8 0 21.2 21.2 0 0 1-5.6-1.5l-2.2-1-2.4-1a24.7 24.7 0 0 0-6.2-1.5 40.1 40.1 0 0 0-12.2.7 20.4 20.4 0 0 0-4.8 2l-2.2 1a18.6 18.6 0 0 1-5.7 1.4 32.7 32.7 0 0 1-8.5-.2 29.3 29.3 0 0 1-8.3-2.4 80.5 80.5 0 0 0-4.9-1.7 38.3 38.3 0 0 0-11.2-.8 22.2 22.2 0 0 0-8.4 2.3 25.3 25.3 0 0 1-16.3 2.6 22.8 22.8 0 0 1-5.8-1.5l-2.4-1a46.9 46.9 0 0 0-5-2 22.5 22.5 0 0 0-6.3-.6h-1.1z"/><path id="path531" fill="#0071bc" fill-rule="evenodd" stroke-linecap="butt" stroke-width=".7" d="M256.2 867.8a40.2 40.2 0 0 0-10 1.8l-2.5 1-2.4.8a32.3 32.3 0 0 1-14.3 1.7c-1.2 0-2.4-.3-3.6-.4a108 108 0 0 0 2.4 11.3l1.2.1a39.8 39.8 0 0 0 11.7-.8c1-.2 1.8-.5 2.6-.8l2.4-1a77.7 77.7 0 0 1 5.1-1.6 30 30 0 0 1 7.4-1 30.2 30.2 0 0 1 7.3.6l2.7.9 2.3 1a77.6 77.6 0 0 0 5 2 22.8 22.8 0 0 0 7.3.9 30.6 30.6 0 0 0 7.2-1 24.7 24.7 0 0 0 5.1-1.9 47 47 0 0 1 5-1.9l3.3-.5a29.8 29.8 0 0 1 8 .2 28.2 28.2 0 0 1 8.1 2.4 59.8 59.8 0 0 0 5 1.7c2.8 1.2 4.8 1.5 8.3 1.4a39 39 0 0 0 9.8-1.8l2.4-.9a77.7 77.7 0 0 1 5-1.7 30 30 0 0 1 7.4-1 30.2 30.2 0 0 1 7.3.7c1 .2 1.9.5 2.7.9l2.4 1a77.6 77.6 0 0 0 5 2 22.8 22.8 0 0 0 7.2.8 30.6 30.6 0 0 0 7.3-.9 24.7 24.7 0 0 0 5-2 47 47 0 0 1 5.1-1.8l3.3-.5a29.8 29.8 0 0 1 8 .2 28.2 28.2 0 0 1 8 2.3 59.8 59.8 0 0 0 5 1.8 29.7 29.7 0 0 0 7.6 1 32.6 32.6 0 0 0 7.5-.7 18.6 18.6 0 0 0 4.7-1.9l2.2-1a20.4 20.4 0 0 1 5.9-1.6 34.6 34.6 0 0 1 17.5 2.4l2.2 1a24 24 0 0 0 9.3 1.7c1.4 0 2.9 0 4.3-.2l.7-.1c1-3.7 1.8-7.5 2.3-11.4l-3 .5a43.4 43.4 0 0 1-8 0 21.2 21.2 0 0 1-5.6-1.5l-2.2-1-2.4-1a24.7 24.7 0 0 0-6.2-1.5 40.1 40.1 0 0 0-12.2.7 20.4 20.4 0 0 0-4.8 2l-2.2 1a18.6 18.6 0 0 1-5.7 1.4 32.7 32.7 0 0 1-8.5-.2 29.3 29.3 0 0 1-8.3-2.4 80.5 80.5 0 0 0-4.9-1.7 38.3 38.3 0 0 0-11.2-.8 22.2 22.2 0 0 0-8.4 2.3l-2.4 1c-2.6 1.3-3.6.9-6.2 1.2a43.4 43.4 0 0 1-8.1 0 21.2 21.2 0 0 1-5.5-1.5l-2.3-1-2.3-1a24.7 24.7 0 0 0-6.3-1.4 40.1 40.1 0 0 0-12.2.7 20.4 20.4 0 0 0-4.7 1.9l-2.2 1a18.6 18.6 0 0 1-5.8 1.4 32.7 32.7 0 0 1-8.5-.2 29.3 29.3 0 0 1-8.3-2.4 80.5 80.5 0 0 0-4.8-1.7c-1-.3-2-.4-3.2-.6a38.3 38.3 0 0 0-8-.3 22.2 22.2 0 0 0-8.4 2.5l-2.4 1a25.3 25.3 0 0 1-14 1.6 22.8 22.8 0 0 1-5.8-1.6l-2.4-1a46.9 46.9 0 0 0-5-2 22.5 22.5 0 0 0-6.2-.6h-1.1z"/><path id="path532" fill="#0071bc" fill-rule="evenodd" stroke-linecap="butt" stroke-width=".7" d="M257.7 891.1a40.2 40.2 0 0 0-10 1.9l-2.4.9-2.4.9a32.3 32.3 0 0 1-14.4 1.6c-1.2 0-2.3-.2-3.5-.4.6 3.8 1.3 7.6 2.3 11.3l1.2.2a39.8 39.8 0 0 0 11.8-.9c1-.2 1.8-.5 2.6-.8l2.4-1a77.7 77.7 0 0 1 5-1.6 30 30 0 0 1 7.4-1 30.2 30.2 0 0 1 7.3.7l2.7.8 2.4 1a77.6 77.6 0 0 0 5 2 22.8 22.8 0 0 0 7.2.9 30.6 30.6 0 0 0 7.3-1 24.7 24.7 0 0 0 5-1.9 47 47 0 0 1 5.2-1.8 29.8 29.8 0 0 1 11.3-.3 28.2 28.2 0 0 1 8 2.3 59.8 59.8 0 0 0 5 1.7 17 17 0 0 0 8.2 1.4 39 39 0 0 0 9.9-1.7l2.3-1a77.7 77.7 0 0 1 5.1-1.7 30 30 0 0 1 7.4-1 30.2 30.2 0 0 1 7.3.7l2.7.9 2.3 1a77.6 77.6 0 0 0 5 2 22.8 22.8 0 0 0 7.3.8 30.6 30.6 0 0 0 7.2-.9 24.7 24.7 0 0 0 5.1-1.9 47 47 0 0 1 5.1-1.9l3.2-.5a29.8 29.8 0 0 1 8 .2 28.2 28.2 0 0 1 8.1 2.4 59.8 59.8 0 0 0 5 1.7 29.7 29.7 0 0 0 7.6 1 32.6 32.6 0 0 0 7.4-.7 18.6 18.6 0 0 0 4.8-1.9l2.2-1a20.4 20.4 0 0 1 5.9-1.5 34.6 34.6 0 0 1 17.5 2.4l2.2 1a24 24 0 0 0 9.3 1.6c1.4 0 2.8 0 4.3-.2l.6-.1c1-3.7 1.8-7.5 2.4-11.3l-3 .4a43.4 43.4 0 0 1-8.1 0 21.2 21.2 0 0 1-5.5-1.5l-2.2-1-2.4-1a24.7 24.7 0 0 0-6.3-1.4 40.1 40.1 0 0 0-12.2.6 20.4 20.4 0 0 0-4.7 2l-2.2 1a18.6 18.6 0 0 1-5.8 1.4 32.7 32.7 0 0 1-8.5-.2 29.3 29.3 0 0 1-8.3-2.4 80.5 80.5 0 0 0-4.8-1.7 38.3 38.3 0 0 0-11.2-.8 22.2 22.2 0 0 0-8.4 2.3l-2.4 1.1c-2.6 1.2-3.6.8-6.2 1.1a43.4 43.4 0 0 1-8.2 0 21.2 21.2 0 0 1-5.4-1.5l-2.3-1-2.4-1a24.7 24.7 0 0 0-6.2-1.4 40.1 40.1 0 0 0-12.2.7 20.4 20.4 0 0 0-4.8 2l-2.2 1a18.6 18.6 0 0 1-5.7 1.3 32.7 32.7 0 0 1-8.5-.2 29.3 29.3 0 0 1-8.3-2.3 80.5 80.5 0 0 0-4.9-1.8l-3.2-.6a38.3 38.3 0 0 0-8-.2 22.2 22.2 0 0 0-8.3 2.4l-2.4 1a25.3 25.3 0 0 1-14 1.6 22.8 22.8 0 0 1-5.8-1.6l-2.4-1a46.9 46.9 0 0 0-5-1.9 22.5 22.5 0 0 0-6.3-.7h-1z"/></g><path id="path533" fill="#eac102" fill-rule="evenodd" stroke="#000" stroke-linecap="butt" stroke-width=".3" d="M329 133.6v70c.8 20.8-14.4 38.8 5 43.2 3.4.8 37.4 2.2 40.9 2.1V133.6H329z"/><g id="g535" transform="matrix(.265 0 0 .265 302.1 1)"><path id="path534" fill="#008f4c" stroke="#000" stroke-width="1" d="M193.2 752h-.3c-1.1.4-11 9.6-17.6 16.5-6.2 6.4-10.7 8.7-16.8 8.7-3.5 0-4.7.5-6.4 2.7a93 93 0 0 1-19.6 17.5c-2.2 1-5.1 1.9-6.6 2s-4.6 1.2-7.1 2.6c-1.3.8-2.5 1.4-3.7 1.8-10.5 4.1-10 .2-11.6.2-10.5.7 4 71 1.9 71.7.7 9.3 4 20.7 8.5 27.8 6.7 10.6 25 21.4 41.3 23.2 6 .7 24.6 8 41.3 7.7 39-.6 59.9 31.4 77.9 17.3V799.2c-4 1.4-9.3-1.4-22.2-7.2a131.8 131.8 0 0 1-28.2-18.7 76.3 76.3 0 0 0-18.9-13.8 43 43 0 0 1-8.4-5.2 9.3 9.3 0 0 0-3.6-2.3z"/><path id="path535" fill="#00743e" d="M193.2 751.8h-.2c-1.2.5-11 9.1-17.7 15.6-6.2 6-10.7 8.3-16.8 8.3-3.5 0-4.7.5-6.3 2.6a91.5 91.5 0 0 1-19.6 16.5c-2.2 1-5.2 1.8-6.7 1.8s-4.6 1.2-7 2.6c4.5-2.2 7.5-2.7 8.4-1.2.3.5-.1 1.1-1 1.5-1.9.7-1.8 3.2.1 4 2 .7 1.9 3 0 4.7a3 3 0 0 0-1.2 3 3 3 0 0 1-1 3c-.7.6-1.3 2-1.3 3 0 .9-.7 2-1.5 2.3-1.7.6-2 3.6-.5 3.6.6 0 1.5-1.1 2-2.5s1.4-2.5 2-2.5c.5 0 1-1.1 1-2.5 0-2.7 4.1-7.6 4.8-5.7 1.3 4 9.5-4.5 10.3-10.8.2-1.5 1.5-3 3.2-3.8 3.1-1.5 5.2-5 6-10.4.8-5.3 3.4-8.8 6.6-8.8 4.7 0 5 .8 4.1 10.1 0 .4-.9 1-2 1.2-2.4.6-2.7 3-.3 2.5 2.8-.5 2.7 3-.1 5.7-2.7 2.5-3.4 4.5-1.6 4.5.6 0 1 3 1 6.8 0 5.5-.4 7-2 8.5-2.5 2.1-2.5 2.8 0 5.5 2.7 2.9 5.5 1.6 6.4-2.9.5-2.7 1-3 3-2.5 2.3.6 2.4.4 2.3-4.4 0-3.5.4-5.5 1.7-7 2.2-2.3 4.6-2.6 4.6-.5 0 .8.4 1.5 1 1.5 1.2 0 3-9 2.3-12.2-.3-1.5-.2-4 .1-5.4l.7-2.7 3.2 2.9c3.9 3.5 7.3 5.5 8 4.6.4-.3.7-1.8.7-3.4 0-2.3-.6-3.1-3-4l-3.1-1 .6-8.5c.5-8.7 1-10 6-17 2-2.9 3-4.1 4.2-4.1.2.6-1.6-1.7-1.4-2.5z"/></g><path id="path536" fill="none" d="M311.8 100.3v96c1 28.8 23 55 51.1 61a66.3 66.3 0 0 0 81-70.6v-86.4H311.8z"/><path id="path537" fill="#0071bc" fill-rule="evenodd" stroke="#000" stroke-linecap="butt" stroke-width=".3" d="M309.1 117.4v114.2c-.1 21 20.9 34 33 34 12.2 0 28.8-1.6 33.2 10.5 3.7-12 19-10.3 33.2-10.4 13.8-.1 32.5-16.8 32.5-34.1s.4-80.6.2-114.2c-43.6 0-88.5.3-132 0zm22 21.7c29 .2 59 0 88 0 .2 22.4 0 74.1 0 85.6-.1 11.5-12.6 22.7-21.8 22.7-9.4 0-19.6-1-22 7-3-8-14-7-22.1-7-8.1 0-22.1-8.7-22-22.7 0-14-.1-59.7 0-85.6z"/><path id="path538" fill="none" stroke="#000" stroke-linecap="butt" stroke-width=".8" d="M441 117.6c-43.5 0-88.5.3-132 0-.2 38.9 0 93.1-.1 114.2 0 21 21 34 33.1 34 12.1 0 28.8-1.6 33.2 10.5 3.6-12 19-10.3 33.1-10.4 13.8-.1 32.5-16.8 32.6-34.1 0-17.3.4-80.6.1-114.2z"/><path id="path539" fill="#ed1c24" stroke="#000" stroke-width=".3" d="M353.5 141.4c-1 .5-1.5 1.4-1.5 2.4-.3-.2-.7-.4-1.2-.4-1 0-1.8.8-1.8 1.8 0 .5.3 1 .7 1.3 0-.5.4-1 1-1 .5 0 1 .5 1 1v7.6h-8a1 1 0 0 1-1-1c0-.4.4-.9 1-.9-.4-.4-1-.6-1.5-.6-1 0-1.8.8-1.8 1.7 0 .4.1.8.4 1.1-1 0-2 .6-2.6 1.4a3 3 0 0 0 2.6 1.5c-.3.3-.4.7-.4 1 0 1 .8 1.8 1.8 1.8.6 0 1-.2 1.4-.6a1 1 0 0 1-1-1c0-.5.5-1 1-1h8v7.7c0 .5-.4 1-1 1a1 1 0 0 1-1-1 1.7 1.7 0 0 0-.5 1.8l4.4 31.7 4.4-31.7a1.6 1.6 0 0 0-.6-1.8c0 .5-.4 1-1 1a1 1 0 0 1-1-1v-7.6h8c.6 0 1 .4 1 1 0 .4-.4.9-1 .9.4.4 1 .6 1.5.6 1 0 1.8-.8 1.8-1.7 0-.4-.2-.8-.4-1.1 1 0 2-.6 2.6-1.5a3 3 0 0 0-2.6-1.4c.2-.3.4-.7.4-1 0-1-.8-1.8-1.8-1.8-.6 0-1 .2-1.4.6.5 0 1 .5 1 1s-.5 1-1 1h-8v-7.7c0-.5.4-1 .9-1 .6 0 1 .5 1 1 .4-.3.7-.8.7-1.3 0-1-.9-1.8-1.9-1.8-.4 0-.8.2-1.1.4 0-1-.6-2-1.5-2.4z"/><g id="shell" fill="#e3e4e5" transform="matrix(.09801 0 0 .09415 343.2 81.3)"><path id="path540" stroke="#ed1c24" stroke-width="8" d="M-28.8 1078.9c-5.1.3-9.7 5.8-14.1 16.8a121.8 121.8 0 0 1-35-4.5c-4.6-.8-6.5.9-5.8 5.1a9.3 9.3 0 0 0 4.2 6.5h.3c3.1 2 6.5 3.6 10.2 4.7 1.7.6 3 1.5 3.4 3 3 6.1 7 10.3 12.3 12.2l-10 10.4-17.1 7.2-7.2 1c-6.6.5-9.9 2.9-9.9 7.3 0 1.8 1 3 2.6 3.6 1.5.5 1.5 1-.3 1.8-2 .5-3 1.5-3.2 3.3-.5 4.3 1 6.6 4.4 6.9v5.3a6.7 6.7 0 0 0-3.3 5.7c-.2 3.2 1 5.2 3.9 5.5-1.3 6.4-.1 9.3 3.8 8.8l4.6 6.6c-2.8 2.2-3 5.3-.8 9 1.5 1.5 3 1.6 4.6.5 1.4-.7 2-.3 1.6 1.1-1.1 3-.4 5.2 2 6.6 3 1.8 5.7 1.6 8.4-.9l5 3.4c-1 5.1-.1 8.1 2.4 9 3.4.5 5.8.2 7.6-1.4 1.3-1 2.3-.8 3.1 1 1.2 2.6 3.4 3.9 6.9 4 2.8-.5 4.7-1.9 5.7-4 2.8-2.4 6-3.6 9.7-3.8 3.7.2 7.1 1.4 9.8 3.7 1 2.2 3 3.6 5.8 4.1 3.4-.1 5.6-1.4 6.8-4 0-.3.2-.5.3-.7.7-1.1 1.7-1.2 2.8-.3 1.7 1.6 4.3 2 7.5 1.4 2.7-.9 3.5-3.9 2.5-9l5.1-3.4c1.6 1.5 3.3 2.2 5 2l1.1-.1c.7-.2 1.4-.5 2.2-1 2.5-1.4 3-3.6 2-6.6-.4-1.4.2-1.8 1.7-1.1 1.5 1.1 3 1 4.5-.5 2.2-3.7 2-6.8-.7-9l4.6-6.6c3.8.5 5-2.4 3.7-8.8 2.9-.3 4.2-2.3 3.8-5.5a6.7 6.7 0 0 0-3.2-5.7v-5.3c3.3-.3 4.8-2.6 4.5-6.9-.2-1.8-1.3-2.8-3.3-3.3-1.7-.8-1.8-1.3-.2-1.8a3.7 3.7 0 0 0 2.4-3.6c0-4.4-3.2-6.8-9.8-7.3-2.5-.3-5-.6-7.1-1L5.9 1133l-10-10.4c2.9-1 5.4-2.9 7.6-5.3l.8-.9c1.4-1.7 2.7-3.7 4-6 .3-1.5 1.4-2.4 3.2-3 3.7-1 7-2.6 10.3-4.7h.1c2.6-1.7 4-3.9 4.4-6.5.6-4.2-1.2-5.9-5.9-5.1-11 3.2-22.8 4.7-35 4.5-4.4-11-9-16.5-14.2-16.8z"/><g id="g644" stroke="#000" stroke-width=".8" transform="matrix(1.1627 0 0 1.29246 -418.3 776.1)"><path id="path541" d="M382.4 247.8c.5-3.3-1.1-4.6-5.1-4a110 110 0 0 1-30.1 3.5c1.4 3.4 2.9 7.4 4.3 12.1 1.2 3.3 2.8 6.2 4.7 8.8 4.4-1.5 7.9-4.7 10.6-9.5.3-1.1 1.3-1.8 2.8-2.3 3.2-.8 6.1-2 8.9-3.6h.1c2.2-1.3 3.4-3 3.8-5z"/><path id="path542" d="M364.8 276.2a29.9 29.9 0 0 1-8.6-8 35.2 35.2 0 0 1-4.7-8.8c-1.4-4.7-2.9-8.7-4.3-12.1-3.8-8.5-7.8-12.8-12.2-13-4.4.2-8.4 4.5-12.2 13-1.4 3.4-2.9 7.4-4.3 12.1a32.7 32.7 0 0 1-13.2 16.8c-.9 4.4.3 6.8 3.5 7.3a94.9 94.9 0 0 0 14.8-21.7 87.3 87.3 0 0 1-13.7 23.6c2.9.3 4.8 1.7 5.6 4.2 2.9-4.9 5.5-10 7.7-15.5l1-2.8.2-.6 1.3-3.9-1.3 3.9-.2.6-1 2.8c-1.2 7-3.4 13-6.5 17.8l-.6.9c.1 3.8 2 5.2 5.6 4.1a208.4 208.4 0 0 0 8.3-47.4l.3 8c-.6 13.8-2.4 27.3-5.7 40.5 1.6 2.8 3.8 3.5 6.6 2.1l.5-6.9c.7-16 1.8-32 3.3-48 1.5 16 2.6 32 3.4 48l.4 6.9c2.9 1.4 5.1.7 6.6-2.1a210.2 210.2 0 0 1-5.7-40.5l.4-8a208.2 208.2 0 0 0 8.2 47.4c3.7 1.1 5.5-.3 5.6-4.1l-.6-.9a49.2 49.2 0 0 1-6.5-17.8l-1-2.8-.2-.6-1.2-3.9 1.2 3.9.2.6 1 2.8c2.2 5.5 4.8 10.6 7.8 15.5.7-2.5 2.6-3.9 5.6-4.2a87.4 87.4 0 0 1-13.8-23.6 92 92 0 0 0 14.9 21.7c3.1-.5 4.3-2.9 3.5-7.3z"/><path id="path543" d="M364.8 276.2c.8 4.4-.4 6.8-3.5 7.3a60 60 0 0 0 16.1 12.3c1.9-1.4 2.2-3.5 1-6.3 1.6-2 2-4.6 1.1-7.7a40.3 40.3 0 0 1-14.7-5.6z"/><path id="path544" d="m385.6 282.6-6.1-.8c.9 3.1.5 5.7-1.1 7.7 1.2 2.8.9 4.9-1 6.3 3.7 1.9 7.5 3.3 11.6 4.4l2.1.1c2.9-.2 4.2-2 3.9-5.3-.2-1.4-1.1-2.2-2.8-2.6-1.5-.6-1.6-1-.2-1.4 1.3-.5 2.1-1.4 2.1-2.8 0-3.4-2.8-5.2-8.5-5.6z"/><path id="path545" d="M391.1 304.4c-1.5-1.3-1.5-2.6 0-4.1l-2.1-.1a57.8 57.8 0 0 1-27.7-16.7 92 92 0 0 1-14.9-21.7 87.4 87.4 0 0 0 17.4 27.5 45 45 0 0 0 12.3 9.8c4.5 2.4 9.5 4.1 15 5.3z"/><path id="path546" d="M376.1 299.1a45 45 0 0 1-12.3-9.8 63.9 63.9 0 0 1-3.6-3.9c-3 .3-4.9 1.7-5.6 4.2a133.5 133.5 0 0 0 15.5 19.1c2.2-.2 3.5-1.7 3.6-4.5 2.2-1 3-2.7 2.4-5.1z"/><path id="path547" d="M358.2 321.9c2.7.6 5.2-.5 7.5-3.6 3.9-.4 5.1-2.4 3.5-6a127.8 127.8 0 0 1-15.3-19.5c-.1 3.8-1.9 5.2-5.6 4.1l2 6.5c2 6.6 4.6 12.8 7.9 18.5z"/><path id="path548" d="M365.7 318.3c-2.3 3.1-4.8 4.2-7.5 3.6a77.3 77.3 0 0 0 11.7 15.7 5.7 5.7 0 0 0 7.1.7c2.2-1.1 2.7-2.8 1.7-5.1-.3-1.1.2-1.4 1.5-.9 1.3.9 2.6.8 3.9-.3 1.9-2.9 1.7-5.3-.6-7v.3a126 126 0 0 1-14.3-13c1.6 3.6.4 5.6-3.5 6z"/><path id="path549" d="m387.4 319.9-2.3-.5a40 40 0 0 1-15-10.7 133.5 133.5 0 0 1-15.5-19.1c-3-4.9-5.6-10-7.8-15.5 1.3 7 3.4 13 6.5 17.8l.6.9a127.8 127.8 0 0 0 29.6 32.2c.1-2.2 1.4-3.9 3.9-5.1z"/><path id="path550" d="m385.1 319.4 2.3.5c3.3.4 4.4-1.9 3.2-6.8 2.5-.3 3.6-1.8 3.3-4.3a5 5 0 0 0-2.8-4.4 57.8 57.8 0 0 1-15-5.3c.6 2.4-.2 4.1-2.4 5.1-.1 2.8-1.4 4.3-3.6 4.5a40 40 0 0 0 15 10.7z"/><path id="path551" d="m340.1 249.5-.4 8a210.2 210.2 0 0 0 6.2 42.7c2.1 8.7 4.9 16.6 8.5 23.7a78 78 0 0 0 11.1 16.3c.8-1.8 2.2-2.6 4.4-2.6a87.4 87.4 0 0 1-19.6-34.2l-2-6.5a208.2 208.2 0 0 1-8.2-47.4z"/><path id="path552" d="m330.3 257.5-.3-8a208.4 208.4 0 0 1-8.3 47.4l-2 6.5a85.5 85.5 0 0 1-19.5 34.2c2.1 0 3.6.8 4.3 2.6a78 78 0 0 0 11.1-16.3c3.6-7.1 6.5-15 8.5-23.7l.5-2.2c3.3-13.2 5.1-26.7 5.7-40.5z"/><path id="path553" d="M318.5 259.4c1.4-4.7 2.9-8.7 4.3-12.1-10.5.2-20.5-1-30.1-3.5-3.9-.6-5.6.7-5 4 .3 2 1.6 3.7 3.7 5h.2c2.7 1.6 5.6 2.8 8.8 3.6 1.5.5 2.5 1.2 2.9 2.3 2.6 4.8 6.1 8 10.6 9.5 1.8-2.6 3.4-5.5 4.6-8.8z"/><path id="path554" d="m290.6 281.8-6.2.8c-5.7.4-8.5 2.2-8.5 5.6 0 1.4.8 2.3 2.2 2.8 1.3.4 1.3.8-.2 1.4-1.8.4-2.7 1.2-2.8 2.6-.4 3.3.9 5.1 3.8 5.3l2.2-.1c4-1.1 7.8-2.5 11.5-4.4-1.9-1.4-2.2-3.5-.9-6.3-1.7-2-2-4.6-1.1-7.7z"/><path id="path555" d="M308.8 283.5c-3.2-.5-4.4-2.9-3.5-7.3a41.7 41.7 0 0 1-14.7 5.6c-.9 3.1-.6 5.7 1.1 7.7-1.3 2.8-1 4.9.9 6.3a62 62 0 0 0 16.2-12.3z"/><path id="path556" d="M306.9 301.2c3.1-3.6 6-7.5 8.6-11.6-.8-2.5-2.7-3.9-5.6-4.2l-3.6 3.9a44 44 0 0 1-12.4 9.8c-.6 2.4.2 4.1 2.4 5.1.1 2.8 1.4 4.3 3.6 4.5 2.2-2.2 4.5-4.7 7-7.5z"/><path id="path557" d="M315.5 289.6a99.5 99.5 0 0 1-15.6 19.1 40 40 0 0 1-15 10.7l-2.2.5c2.4 1.2 3.7 2.9 3.9 5.1v.3a135.3 135.3 0 0 0 29.5-32.5l.6-.9a47.5 47.5 0 0 0 6.5-17.8c-2.2 5.5-4.8 10.6-7.7 15.5z"/><path id="path558" d="m306.3 289.3 3.6-3.9a87.3 87.3 0 0 0 13.7-23.6 94.9 94.9 0 0 1-14.8 21.7 62 62 0 0 1-27.7 16.7l-2.2.1c1.5 1.5 1.5 2.8 0 4.1a57.8 57.8 0 0 0 15-5.3 44 44 0 0 0 12.4-9.8z"/><path id="path559" d="M293.9 299.1a57.8 57.8 0 0 1-15 5.3 5 5 0 0 0-2.8 4.4c-.2 2.5.8 4 3.3 4.3-1.1 4.9-.1 7.2 3.3 6.8l2.2-.5a40 40 0 0 0 15-10.7c-2.2-.2-3.5-1.7-3.6-4.5-2.2-1-3-2.7-2.4-5.1z"/><path id="path560" d="M286.6 325c-2.4 1.7-2.6 4.1-.7 7 1.3 1.1 2.6 1.2 4 .3 1.2-.5 1.7-.2 1.4.9-1 2.3-.4 4 1.7 5.1 2.6 1.4 4.9 1.2 7.2-.7 4.5-4.8 8.4-10 11.7-15.7-2.8.6-5.3-.5-7.6-3.6-3.9-.4-5.1-2.4-3.4-6-4.5 4.7-9.2 9-14.3 13v-.3z"/><path id="path561" d="M304.3 318.3c2.3 3.1 4.8 4.2 7.6 3.6a92.6 92.6 0 0 0 7.8-18.5l2-6.5c-3.6 1.1-5.5-.3-5.6-4.1-4.5 7.1-9.6 13.6-15.2 19.5-1.7 3.6-.5 5.6 3.4 6z"/><path id="path562" d="m345.9 300.2-.5-2.2c-1.5 2.8-3.7 3.5-6.6 2.1.6 9 1.3 18 2.2 26.8 2.6-.2 4.3-1.2 4.8-3 .5-.6 1.1-.6 1.7 0 3 2 5.3 2 6.9 0-3.6-7.1-6.4-15-8.5-23.7z"/><path id="path563" d="m338.8 300.1-.4-6.9c-.8-16-1.9-32-3.4-48a967 967 0 0 0-3.3 48l-.5 6.9a1120.3 1120.3 0 0 1-4.1 45.5l-.5 1.2c2.4-1.8 5.2-2.7 8.4-2.9 3.2.2 6.1 1.1 8.4 2.9l-.4-1.2a764.3 764.3 0 0 1-4.2-45.5z"/><path id="path564" d="M331.2 300.1c-2.8 1.4-5 .7-6.6-2.1l-.5 2.2c-2 8.7-4.9 16.6-8.5 23.7 1.6 2 3.9 2 6.9 0 .7-.6 1.2-.6 1.7 0 .6 1.8 2.2 2.8 4.9 3 .8-8.8 1.5-17.8 2.1-26.8z"/><path id="path565" d="M322.5 323.9c-3 2-5.3 2-6.9 0a78 78 0 0 1-11.1 16.3c-.8 4-.1 6.3 2.1 7 2.9.4 5 .1 6.5-1.1 1.1-.8 2-.6 2.7.7 1 2.1 2.9 3.1 5.9 3.2 2.4-.4 4.1-1.5 4.9-3.2l.5-1.2 2-18.7c-2.7-.2-4.3-1.2-4.9-3-.5-.6-1-.6-1.7 0z"/><path id="path566" d="M354.4 323.9c-1.6 2-3.9 2-6.9 0-.6-.6-1.2-.6-1.7 0-.5 1.8-2.2 2.8-4.8 3a562.8 562.8 0 0 0 2.4 19.9c.9 1.7 2.5 2.8 5 3.2 2.9-.1 4.8-1.1 5.8-3.2.7-1.3 1.6-1.5 2.7-.7 1.5 1.2 3.7 1.5 6.5 1.1 2.3-.7 3-3 2.1-7a78 78 0 0 1-11.1-16.3z"/><path id="path567" stroke-linecap="round" stroke-linejoin="round" d="M356.2 268.2c4.4-1.5 7.9-4.7 10.6-9.5.3-1.1 1.3-1.8 2.8-2.3 3.2-.8 6.1-2 8.9-3.6h.1c2.2-1.3 3.4-3 3.8-5 .5-3.3-1.1-4.6-5.1-4a110 110 0 0 1-30.1 3.5"/><path id="path568" stroke-linecap="round" stroke-linejoin="round" d="M364.8 276.2a29.9 29.9 0 0 1-8.6-8"/><path id="path569" stroke-linecap="round" stroke-linejoin="round" d="M361.3 283.5c3.1-.5 4.3-2.9 3.5-7.3"/><path id="path570" stroke-linecap="round" stroke-linejoin="round" d="M391.1 300.3c2.9-.2 4.2-2 3.9-5.3-.2-1.4-1.1-2.2-2.8-2.6-1.5-.6-1.6-1-.2-1.4 1.3-.5 2.1-1.4 2.1-2.8 0-3.4-2.8-5.2-8.5-5.6l-6.1-.8"/><path id="path571" stroke-linecap="round" stroke-linejoin="round" d="M379.5 281.8a40.3 40.3 0 0 1-14.7-5.6"/><path id="path572" stroke-linecap="round" stroke-linejoin="round" d="M377.4 295.8c1.9-1.4 2.2-3.5 1-6.3 1.6-2 2-4.6 1.1-7.7"/><path id="path573" stroke-linecap="round" stroke-linejoin="round" d="M391.1 304.4c-1.5-1.3-1.5-2.6 0-4.1"/><path id="path574" stroke-linecap="round" stroke-linejoin="round" d="M377.4 295.8c3.7 1.9 7.5 3.3 11.6 4.4l2.1.1"/><path id="path575" stroke-linecap="round" stroke-linejoin="round" d="M376.1 299.1a45 45 0 0 1-12.3-9.8 63.9 63.9 0 0 1-3.6-3.9"/><path id="path576" stroke-linecap="round" stroke-linejoin="round" d="M369.2 312.3c1.6 3.6.4 5.6-3.5 6-2.3 3.1-4.8 4.2-7.5 3.6"/><path id="path577" stroke-linecap="round" stroke-linejoin="round" d="M369.9 337.6a5.7 5.7 0 0 0 7.1.7c2.2-1.1 2.7-2.8 1.7-5.1-.3-1.1.2-1.4 1.5-.9 1.3.9 2.6.8 3.9-.3 1.9-2.9 1.7-5.3-.6-7"/><path id="path578" stroke-linecap="round" stroke-linejoin="round" d="M370.1 308.7a40 40 0 0 0 15 10.7l2.3.5"/><path id="path579" stroke-linecap="round" stroke-linejoin="round" d="M383.5 325c.1-2.2 1.4-3.9 3.9-5.1"/><path id="path580" stroke-linecap="round" stroke-linejoin="round" d="M369.2 312.3a126 126 0 0 0 14.3 12.7"/><path id="path581" stroke-linecap="round" stroke-linejoin="round" d="M387.4 319.9c3.3.4 4.4-1.9 3.2-6.8 2.5-.3 3.6-1.8 3.3-4.3a5 5 0 0 0-2.8-4.4"/><path id="path582" stroke-linecap="round" stroke-linejoin="round" d="M391.1 304.4a57.8 57.8 0 0 1-15-5.3"/><path id="path583" stroke-linecap="round" stroke-linejoin="round" d="M354.6 289.6a133.5 133.5 0 0 0 15.5 19.1"/><path id="path584" stroke-linecap="round" stroke-linejoin="round" d="M370.1 308.7c2.2-.2 3.5-1.7 3.6-4.5 2.2-1 3-2.7 2.4-5.1"/><path id="path585" stroke-linecap="round" stroke-linejoin="round" d="M361.3 283.5a60 60 0 0 0 16.1 12.3"/><path id="path586" stroke-linecap="round" stroke-linejoin="round" d="M348.3 296.9a208.2 208.2 0 0 1-8.2-47.4l-.4 8c.6 13.8 2.5 27.3 5.7 40.5"/><path id="path587" stroke-linecap="round" stroke-linejoin="round" d="M324.6 298c3.3-13.2 5.1-26.7 5.7-40.5l-.3-8a208.4 208.4 0 0 1-8.3 47.4"/><path id="path588" stroke-linecap="round" stroke-linejoin="round" d="M347.2 247.3c-3.8-8.5-7.8-12.8-12.2-13-4.4.2-8.4 4.5-12.2 13"/><path id="path589" stroke-linecap="round" stroke-linejoin="round" d="m323.2 274.1 1-2.8.2-.6 1.3-3.9a53 53 0 0 0 1.4-14.3"/><path id="path590" stroke-linecap="round" stroke-linejoin="round" d="M343 252.5a46 46 0 0 0 1.4 14.3l1.2 3.9.2.6 1 2.8"/><path id="path591" stroke-linecap="round" stroke-linejoin="round" d="M356.2 268.2a35.2 35.2 0 0 1-4.7-8.8c-1.4-4.7-2.9-8.7-4.3-12.1"/><path id="path592" stroke-linecap="round" stroke-linejoin="round" d="M313.9 268.2c1.8-2.6 3.4-5.5 4.6-8.8 1.4-4.7 2.9-8.7 4.3-12.1"/><path id="path593" stroke-linecap="round" stroke-linejoin="round" d="M322.8 247.3c-10.5.2-20.5-1-30.1-3.5-3.9-.6-5.6.7-5 4 .3 2 1.6 3.7 3.7 5h.2c2.7 1.6 5.6 2.8 8.8 3.6 1.5.5 2.5 1.2 2.9 2.3 2.6 4.8 6.1 8 10.6 9.5"/><path id="path594" stroke-linecap="round" stroke-linejoin="round" d="m290.6 281.8-6.2.8c-5.7.4-8.5 2.2-8.5 5.6 0 1.4.8 2.3 2.2 2.8 1.3.4 1.3.8-.2 1.4-1.8.4-2.7 1.2-2.8 2.6-.4 3.3.9 5.1 3.8 5.3"/><path id="path595" stroke-linecap="round" stroke-linejoin="round" d="M313.9 268.2a32.7 32.7 0 0 1-8.6 8"/><path id="path596" stroke-linecap="round" stroke-linejoin="round" d="M305.3 276.2c-.9 4.4.3 6.8 3.5 7.3"/><path id="path597" stroke-linecap="round" stroke-linejoin="round" d="M305.3 276.2a41.7 41.7 0 0 1-14.7 5.6"/><path id="path598" stroke-linecap="round" stroke-linejoin="round" d="M315.5 289.6a99.5 99.5 0 0 1-15.6 19.1"/><path id="path599" stroke-linecap="round" stroke-linejoin="round" d="M309.9 285.4c2.9.3 4.8 1.7 5.6 4.2"/><path id="path600" stroke-linecap="round" stroke-linejoin="round" d="M293.9 299.1a44 44 0 0 0 12.4-9.8l3.6-3.9"/><path id="path601" stroke-linecap="round" stroke-linejoin="round" d="M292.6 295.8c-1.9-1.4-2.2-3.5-.9-6.3-1.7-2-2-4.6-1.1-7.7"/><path id="path602" stroke-linecap="round" stroke-linejoin="round" d="M278.9 300.3c1.5 1.5 1.5 2.8 0 4.1"/><path id="path603" stroke-linecap="round" stroke-linejoin="round" d="M292.6 295.8a59.3 59.3 0 0 1-11.5 4.4l-2.2.1"/><path id="path604" stroke-linecap="round" stroke-linejoin="round" d="M278.9 304.4a57.8 57.8 0 0 0 15-5.3"/><path id="path605" stroke-linecap="round" stroke-linejoin="round" d="M278.9 304.4a5 5 0 0 0-2.8 4.4c-.2 2.5.8 4 3.3 4.3-1.1 4.9-.1 7.2 3.3 6.8"/><path id="path606" stroke-linecap="round" stroke-linejoin="round" d="M282.7 319.9c2.4 1.2 3.7 2.9 3.9 5.1"/><path id="path607" stroke-linecap="round" stroke-linejoin="round" d="M286.6 325c-2.4 1.7-2.6 4.1-.7 7 1.3 1.1 2.6 1.2 4 .3 1.2-.5 1.7-.2 1.4.9-1 2.3-.4 4 1.7 5.1 2.6 1.4 4.9 1.2 7.2-.7"/><path id="path608" stroke-linecap="round" stroke-linejoin="round" d="M299.9 308.7a40 40 0 0 1-15 10.7l-2.2.5"/><path id="path609" stroke-linecap="round" stroke-linejoin="round" d="M300.9 312.3c-4.5 4.7-9.2 9-14.3 13v-.3"/><path id="path610" stroke-linecap="round" stroke-linejoin="round" d="M311.9 321.9c-2.8.6-5.3-.5-7.6-3.6-3.9-.4-5.1-2.4-3.4-6"/><path id="path611" stroke-linecap="round" stroke-linejoin="round" d="M299.9 308.7c-2.2-.2-3.5-1.7-3.6-4.5-2.2-1-3-2.7-2.4-5.1"/><path id="path612" stroke-linecap="round" stroke-linejoin="round" d="M346.8 274.1c1.3 7 3.4 13 6.5 17.8l.6.9"/><path id="path613" stroke-linecap="round" stroke-linejoin="round" d="M358.2 321.9a87.4 87.4 0 0 1-7.9-18.5l-2-6.5"/><path id="path614" stroke-linecap="round" stroke-linejoin="round" d="M353.9 292.8c-.1 3.8-1.9 5.2-5.6 4.1"/><path id="path615" stroke-linecap="round" stroke-linejoin="round" d="m345.4 298 .5 2.2c2.1 8.7 4.9 16.6 8.5 23.7"/><path id="path616" stroke-linecap="round" stroke-linejoin="round" d="M345.4 298c-1.5 2.8-3.7 3.5-6.6 2.1"/><path id="path617" stroke-linecap="round" stroke-linejoin="round" d="m338.8 300.1-.4-6.9c-.8-16-1.9-32-3.4-48a967 967 0 0 0-3.3 48l-.5 6.9"/><path id="path618" stroke-linecap="round" stroke-linejoin="round" d="M331.2 300.1c-2.8 1.4-5 .7-6.6-2.1"/><path id="path619" stroke-linecap="round" stroke-linejoin="round" d="M321.7 296.9c-3.6 1.1-5.5-.3-5.6-4.1"/><path id="path620" stroke-linecap="round" stroke-linejoin="round" d="m316.1 292.8.6-.9a47.5 47.5 0 0 0 6.5-17.8"/><path id="path621" stroke-linecap="round" stroke-linejoin="round" d="m324.6 298-.5 2.2c-2 8.7-4.9 16.6-8.5 23.7"/><path id="path622" stroke-linecap="round" stroke-linejoin="round" d="m321.7 296.9-2 6.5c-2 6.6-4.6 12.8-7.8 18.5"/><path id="path623" stroke-linecap="round" stroke-linejoin="round" d="M329.1 326.9c-2.7-.2-4.3-1.2-4.9-3-.5-.6-1-.6-1.7 0-3 2-5.3 2-6.9 0"/><path id="path624" stroke-linecap="round" stroke-linejoin="round" d="M354.4 323.9c-1.6 2-3.9 2-6.9 0-.6-.6-1.2-.6-1.7 0-.5 1.8-2.2 2.8-4.8 3"/><path id="path625" stroke-linecap="round" stroke-linejoin="round" d="M331.2 300.1c-.6 9-1.3 18-2.1 26.8"/><path id="path626" stroke-linecap="round" stroke-linejoin="round" d="M341 326.9c-.9-8.8-1.6-17.8-2.2-26.8"/><path id="path627" stroke-linecap="round" stroke-linejoin="round" d="M308.8 283.5a62 62 0 0 1-16.2 12.3"/><path id="path628" stroke-linecap="round" stroke-linejoin="round" d="M316.1 292.8c-4.5 7.1-9.6 13.6-15.2 19.5"/><path id="path629" stroke-linecap="round" stroke-linejoin="round" d="M309.9 285.4a87.3 87.3 0 0 0 13.7-23.6 94.9 94.9 0 0 1-14.8 21.7"/><path id="path630" stroke-linecap="round" stroke-linejoin="round" d="M323.2 274.1c-2.2 5.5-4.8 10.6-7.7 15.5"/><path id="path631" stroke-linecap="round" stroke-linejoin="round" d="M346.8 274.1c2.2 5.5 4.8 10.6 7.8 15.5"/><path id="path632" stroke-linecap="round" stroke-linejoin="round" d="M304.5 340.2c-.8 4-.1 6.3 2.1 7 2.9.4 5 .1 6.5-1.1 1.1-.8 2-.6 2.7.7 1 2.1 2.9 3.1 5.9 3.2 2.4-.4 4.1-1.5 4.9-3.2"/><path id="path633" stroke-linecap="round" stroke-linejoin="round" d="m329.1 326.9-2 18.7-.5 1.2"/><path id="path634" stroke-linecap="round" stroke-linejoin="round" d="M343.4 346.8c.9 1.7 2.5 2.8 5 3.2 2.9-.1 4.8-1.1 5.8-3.2.7-1.3 1.6-1.5 2.7-.7 1.5 1.2 3.7 1.5 6.5 1.1 2.3-.7 3-3 2.1-7"/><path id="path635" stroke-linecap="round" stroke-linejoin="round" d="M341 326.9a562.8 562.8 0 0 0 2.4 19.9"/><path id="path636" stroke-linecap="round" stroke-linejoin="round" d="M300.2 337.6c2.1 0 3.6.8 4.3 2.6"/><path id="path637" stroke-linecap="round" stroke-linejoin="round" d="M365.5 340.2c.8-1.8 2.2-2.6 4.4-2.6"/><path id="path638" stroke-linecap="round" stroke-linejoin="round" d="M360.2 285.4a87.4 87.4 0 0 1-13.8-23.6 92 92 0 0 0 14.9 21.7"/><path id="path639" stroke-linecap="round" stroke-linejoin="round" d="M315.6 323.9a78 78 0 0 1-11.1 16.3"/><path id="path640" stroke-linecap="round" stroke-linejoin="round" d="M300.2 337.6c4.5-4.8 8.4-10 11.7-15.7"/><path id="path641" stroke-linecap="round" stroke-linejoin="round" d="M369.9 337.6c-4.6-4.8-8.5-10-11.7-15.7"/><path id="path642" stroke-linecap="round" stroke-linejoin="round" d="M354.4 323.9a78 78 0 0 0 11.1 16.3"/><path id="path643" stroke-linecap="round" stroke-linejoin="round" d="M353.9 292.8c4.6 7.1 9.6 13.6 15.3 19.5"/><path id="path644" stroke-linecap="round" stroke-linejoin="round" d="M354.6 289.6c.7-2.5 2.6-3.9 5.6-4.2"/></g></g><path id="path645" fill="#00a658" d="M358.1 206.2c-.4 0-.3.6.4 1.5 1 1.2.8 2.3-.2 2.4-.6 0-.7 0-.5-.2.4-.2.4-.2 0-.4-.7-.3-1.2.3-.8 1 .2.3.3.7.3 1 0 .3.2.6.4.6.6 0 2.3 1.9 2.1 2.3l.4.8c.6.6.7 1.2.3 1.5-.4.2-2-.4-2.2-.8-.1-.3-.6-.3-1.4-.2-1.5.2-2 .6-1.2.8.6.1 1 1 .6 1.4-.3.4 1.3 2.1 1.9 2.1l.7.4c.1.2 1 .4 2 .5 1 0 2.2.2 2.5.4l2.7.7a451 451 0 0 1 8.6 1.9v-10.6a29.4 29.4 0 0 0-5-2.3 9 9 0 0 0-2-.8 70.6 70.6 0 0 0-5.4-3.2c-1.1-.9-2.7 0-1.7.9.6.6.7 1.3.3 1.4-.5.2-1.2-.4-1.2-1s-1.1-2-1.6-2zm-4.9 1.3c-.5 0-.5.2 0 .8.2.4.5.5 1.6.4h1.4c.3-.2-.6-1.2-.8-1l-1.5-.1-.7-.1zm2.3 2.4-.2.1c-.4.5 0 1.8 1 3.2.6.8 1 1 1 .4l-.9-2.2c-.5-1-.7-1.5-1-1.5zm13.2 1.3.2.1v.5c0 .3-.1.3-.3 0-.2-.2 0-.5 0-.6zm-27.7 1.4c-.3 0-.4.4-.5 1.5-.2 1.5-.9 4-1.2 4.4-.2.2-.3.6-.3 1 0 .3-.2.6-.6.8-.8.3-1.6 1.3-1.3 1.5.1.2.6.4 1.1.6l2 .2c1 0 1.5-.3 1-.6-.6-.3-.3-1.6.5-2.4.7-.6.7-.8.4-1-.4-.2-.4-.3 0-5.2 0-.6-.1-.7-.7-.8h-.4zm9.7.7c-.5 0-.6.4-.4 1.3l-.1 1c-.2.1-.3.4-.3.7 0 .8.5.6 1-.3.4-.9 1-1 2.2-.3 2 1 1-.7-1.2-1.9l-1.2-.5zm17 1.2.2.2.3.6c0 .1-.3.2-.7.2-.7 0-.8-.3-.2-.8l.4-.2zm-35.6 2.4c-.2 0-.5.3-.5.5s.2.2.4 0 .4-.4.3-.5h-.2zm1.5.6-.4.2c-.2.3-.2.5 0 .5.3 0 .7-.5.5-.7h-.1zm31.3 0c1 0 4.2 1.8 4.2 2.2l-.2.5c-.4.1-3.4-1.4-4-2-.5-.5-.5-.6 0-.7zm-7 0h.5c2 .2 2.9.8 2.5 1.8-.2.6-.3.6-2-.4-1.5-.8-1.8-1.3-1-1.4zm12.4.5c.5 0 1.6.6 1.6 1 0 .3-.4.3-1.4 0-.8-.4-1-.8-.3-1zm-39 1v.7l.3-.6-.3-.1zm5 .8-.6.1c-.4.1-.5.3-.5.5.1.3.4.4.6.3l.6-.2c.1 0 .3-.1.3-.4 0-.2 0-.3-.3-.3z"/><g id="fdl" fill="#eac102" stroke="#000" stroke-width="6" transform="matrix(.02055 0 0 .01836 313 122.3)"><path id="path646" fill-rule="evenodd" stroke-linecap="butt" d="M403.1 604.7c1.4-62 16.8-119.5 45.3-174.1 74.7-157.2 303-153.4 252.6 38.8-18.5 70.8-81.5 112.5-156.3 119.6 5.4-18.6 35.1-84.6 11.1-97.5-38.3 1.4-86 67.7-97.4 99.3-1.6 4.5-1.1 9.7-3 14.2"/><path id="path647" fill-rule="evenodd" stroke-linecap="butt" d="M308 608.8a389.2 389.2 0 0 0-45.2-174.1C188 277.5-40.2 281.3 10.2 473.5 28.7 544.3 91.7 586 166.5 593.1c-5.4-18.7-35.1-84.6-11.1-97.6 38.3 1.5 86 67.8 97.4 99.3 1.6 4.6 1.1 9.8 3 14.3"/><path id="path648" fill-rule="nonzero" stroke-linecap="butt" d="M351.2 8.5c-78.7 84.9-131.6 183-108.8 298 12.6 63.6 43 122.4 64.5 183.5a318.3 318.3 0 0 1 15.3 118.8H389c-3.2-40.6 3.8-80 15.3-118.8 20.4-61.5 51.6-119.9 64.5-183.4C493 187.8 436.3 98.2 360.4 8.9L355.7 3l-4.5 5.5z"/><path id="path649" fill-rule="evenodd" stroke-linecap="butt" d="M288.9 655.8C274.9 695 218 766.6 187.8 787c-7.9 5.3 37.5-3 57.8-7.5 26.6-5.8 61.2-34.2 60.4-24.1-.1 45.8 12.8 122.3 46.4 157.4l3.2 3.4 3.2-3.4c33.6-39.1 46.3-108 46.4-157.4-.8-10 33.8 18.3 60.5 24.1 20.2 4.5 65.6 12.8 57.7 7.5-30.2-20.4-87.1-92-101-131.2H288.8z"/><path id="rect649" d="M196.9 606.8h317.9v51.5H196.9z"/></g><use xlink:href="#shell" id="use649" transform="translate(25 -.4)"/><use xlink:href="#fdl" id="use650" transform="translate(108.5 -1.2)"/><use xlink:href="#fdl" id="use651" transform="translate(55 133.6)"/></g></g><!-- app4joy --></svg>