<svg xmlns="http://www.w3.org/2000/svg" xmlns:xlink="http://www.w3.org/1999/xlink" id="svg628" width="750" height="500" version="1.1" viewBox="0 0 750 500"><g id="g629"><path id="rect1" fill="#0071bc" d="M0 0h750v500H0z"/></g><g id="g628"><g id="g20"><path id="path1" fill="#e3e4e5" fill-rule="evenodd" stroke="#000" stroke-width=".3" d="M273.5 288.3c-5.7-.5-9.5-2.4-10-5.4-.3-2.4 1.6-5 5-7.5 1.5.2 3.2.5 5 .5v12.4"/><path id="path2" fill="#e3e4e5" fill-rule="evenodd" stroke="#000" stroke-width=".3" d="M294 278.6c3.4.7 6 1.8 7.4 3.2l.1.3c.7 1.6-2.4 5.1-7.6 9v-12.5"/><g id="pillar" fill="#e3e4e5" fill-rule="evenodd" stroke="#000" stroke-width=".3"><path id="path3" d="M273.8 230.4s.7.2 1 .9c.2.6.2 3.3.2 3.4h17.8s0-2.7.2-3.4c.3-.7 1-.9 1-.9h-20.2z"/><path id="path4" d="M272 225.3s-.6.3 0 2a9 9 0 0 0 2 3l9.9-.1h9.8s1.6-1.5 2.1-3c.5-1.6 0-2 0-2H272z"/><path id="rect4" d="M271.3 218.9h25.1v6.3h-25.1z"/><path id="path5" d="m270.7 217.7.1.6c.2.4.5.6.5.6h25.1l.5-.6c.2-.4.2-.6.1-.6h-26.3z"/><path id="path6" d="m274.2 237 .2.5s-.9 23.4-1.2 53.2c-.3 29.9 0 59.7 0 59.7 0 .2-.2.6-.7.8h22.7a1 1 0 0 1-.6-.8l-.2-59.7c-.3-29.8-1-53.2-1-53.2l.1-.5h-19.3z"/><path id="path7" d="M272 352.3h23.8c1.2 0 2.2 1 2.2 2.3s-1 2.4-2.2 2.4h-23.9c-1.2 0-2.2-1-2.2-2.4s1-2.3 2.2-2.3z"/><path id="path8" d="M274.3 234.5h19.2c.3 0 .6.3.6.7v.2c0 .4-.3.7-.6.7h-19.2a.7.7 0 0 1-.7-.7v-.2c0-.4.3-.7.7-.7z"/><path id="path9" stroke-linejoin="round" d="M273.6 230.7h20.6l-.1-.5h-20.5v.5z"/><path id="rect9" stroke-linejoin="round" d="M271.6 351.2h24.5v1.1h-24.5z"/><path id="rect10" stroke-linejoin="round" d="M269.2 356.6h29.4v5.6h-29.4z"/><path id="path10" stroke-linejoin="round" d="M274 237h19.7l.1-.8H274v.8z"/></g><path id="path11" fill="#e3e4e5" fill-rule="evenodd" stroke="#000" stroke-width=".3" d="M267.2 320.6c-2.9 2-4.8 4.2-4.5 5.3.2 1 1 1.7 2.4 2.8 2 1.8 3.2 5 2.3 6.5 1.6-1.7 2.7-4.3 2.7-7.2 0-3-1.1-5.7-3-7.4"/><path id="path12" fill="#e3e4e5" fill-rule="evenodd" stroke="#000" stroke-width=".3" d="M314.7 272.3a49.6 49.6 0 0 0-30.4-3.3c-12.2 2.6-21.5 8.8-20.8 13.9l.1.4s-4.6-13.1-4.6-13.6c-.9-5.7 9.4-12.6 23-15.4a55 55 0 0 1 12-1.2c8.6 0 16 1.4 20.6 3.5v15.7"/><path id="path13" fill="#e3e4e5" fill-rule="evenodd" stroke="#000" stroke-width=".3" d="M260.8 313c-.5-2.1 5-6.2 12.8-9.9a111 111 0 0 0 10.1-5.4c10.8-6 18.8-13 17.8-15.6v-.3c.5.6 1.4 13.2 1.4 13.2 1 2.3-6.3 9.2-16.3 15.3-3.2 2-9.9 5.2-13 6.6-5.7 2.5-11.4 7.2-10.9 9l-1.9-13"/><path id="path14" fill="#e3e4e5" fill-rule="evenodd" stroke="#000" stroke-width=".3" d="M477.9 288.3c5.6-.5 9.5-2.4 10-5.4.3-2.4-1.7-5-5-7.5-1.6.2-3.3.5-5 .5v12.4"/><path id="path15" fill="#e3e4e5" fill-rule="evenodd" stroke="#000" stroke-width=".3" d="M457.4 278.6a15 15 0 0 0-7.5 3.2v.3c-.7 1.6 2.4 5.1 7.6 9v-12.5"/><use xlink:href="#pillar" id="use15" transform="matrix(-1 0 0 1 751.4 0)"/><path id="path16" fill="#e3e4e5" fill-rule="evenodd" stroke="#000" stroke-width=".3" d="M484.2 320.6c2.8 2 4.7 4.2 4.4 5.3-.1 1-1 1.7-2.3 2.8-2 1.8-3.3 5-2.3 6.5a10.3 10.3 0 0 1-2.8-7.2c0-3 1.2-5.7 3-7.4"/><path id="path17" fill="#000" d="M306.4 263.6c0-1-.3-2-1-2.5l-1.2-1.1c-.8-.7-1-1-1-1.7.1-.8.5-1.3 1.2-1.2.4 0 .8.4 1.1.9.3.5.4.9.6 1.8h.2l.2-2.9h-.3c0 .4-.1.4-.3.4l-.4-.2c-.4-.2-.7-.4-1-.4-1.4-.1-2.2.8-2.3 2.5v1c.2.6.7 1.3 1.4 2l.6.4c.8.7 1 1 1 1.8 0 .9-.6 1.4-1.3 1.3-.5 0-1-.4-1.2-1-.3-.6-.4-1-.5-2h-.3l-.1 3.3h.2c0-.4.2-.5.3-.4l.4.1c.4.3.8.4 1.2.5 1.4.1 2.4-1 2.5-2.6zm-4.5-6.6v-.3l-2-.2v.3c.6.1.8.2.8.7l-.3 1-1.3 4.2a330.2 330.2 0 0 0-1.4-5.5c0-.3.2-.4.5-.5h.4v-.3l-3.3-.1v.3c.5.1.6.2.8 1l2.2 8 .2.1 2.5-7.7c.3-.8.4-1 1-1zm-6.1 5.3h-.3c-.3 1-.5 1.4-.8 1.8a2 2 0 0 1-1.6.8c-.6 0-.8-.2-.8-.8v-6.3c0-1 .1-1.2 1-1.2v-.4l-3.5.1v.4c.7 0 .9.2 1 .9v6.4c0 .7 0 .9-.7 1v.3h5.2l.5-3zm-6.2-3.5c0-1.6-1-2.4-2.6-2.2-1 0-2.1.2-3.2.4v.3c.7 0 .9.2 1 1l.4 6c.1.8 0 1-.4 1.2h-.2v.4l3-.4v-.3c-.8 0-.8-.2-.9-1.1l-.2-2.5c1.3-.2 1.6-.2 2-.5.8-.5 1.2-1.3 1.1-2.3zm-1.6.2c0 .8 0 1.3-.3 1.6-.2.3-.5.4-1.2.5l-.2-3.5c0-.3.1-.5.4-.6.9 0 1.2.5 1.3 2zm-7-1.2v-.3a49 49 0 0 0-2.1.5v.4c.8-.2 1 0 1.1 1l.6 4a50.2 50.2 0 0 0-4.3-4.6l-2 .9v.3c.2-.1.5 0 1 .6l1.4 6c.2.7 0 1-.5 1.3v.4a33 33 0 0 1 2-.8v-.3c-.8.1-1 0-1.2-1l-1-5.1a49 49 0 0 1 5.4 5.7l-1-7.7v-.7c0-.3.3-.4.6-.6zm-6.2 6.4c-.6-2.6-2.5-4-4.4-2.8-2 1.1-2.7 3.8-1.7 6.3 1 2.4 2.7 3.4 4.3 2.4 1.7-.9 2.5-3.3 1.8-6zm-1.5.8c.7 2.6.5 4.2-.4 4.7s-1.8-.5-2.7-3c-.9-2.5-.8-4.3.3-5 1-.5 2 .7 2.8 3.3zm-6.4-.8-.1-.3-2 1.4.2.3c.7-.5 1-.3 1.3.5l1.4 3.6a37 37 0 0 0-5-2.6l-1.8 1.7.1.3c.2-.2.4-.2 1.1 0l2.8 5.2c.3.7.2.9-.2 1.5l.1.3 1.6-1.5v-.3c-.7.4-1 .3-1.3-.5l-2.3-4.4c2.2.9 4.3 2 6.3 3.2l.3-.1-2.8-7c-.3-.6-.3-.8.3-1.3z"/><path id="rect17" fill="#e3e4e5" stroke="#000" stroke-width=".3" d="M266.5 361.8h218.4v1.8H266.5z"/><path id="path18" fill="#e3e4e5" fill-rule="evenodd" stroke="#000" stroke-width=".3" d="M436.7 272.3A49.6 49.6 0 0 1 467 269c12.2 2.6 21.4 8.8 20.7 13.9v.4l4.6-13.6c.8-5.7-9.5-12.6-23-15.4a55 55 0 0 0-12-1.2c-8.6 0-16.1 1.4-20.7 3.5v15.7"/><path id="path19" fill="#000" d="m484.7 274.3.2-.3c-.5-.3-.5-.5-.2-2.3.4-2.5.6-5.1.8-7.7l-.4-.2c-2 1.5-3.8 3.2-5.6 5-.9.8-1 1-1.7.8v.3c.6.4 1.4.7 2 1.2l.2-.3c-.6-.4-.8-.7-.6-1 0-.2.2-.4.8-1l.3-.3 2.5 1.5a6 6 0 0 1-.4 1.9c0 .2-.3.2-.7 0l-.3-.2-.1.3 3.2 2.3zm-1.6-4.9-2.2-1.3 2.5-2.2a85 85 0 0 1-.3 3.5zm-5.6.4.2-.3a.6.6 0 0 1-.4-.5c-.2-1.5-.6-3-1-4.5l1.6-.1c.5-.2.9-.6 1-1.2.6-1.3-.3-2.8-2.7-3.7-1.4-.6-2.8-1-4.3-1.4v.3c1 .3 1 .6.8 1.5l-1.4 5.7c-.3 1-.4 1-1.3.9l-.1.3c1.3.3 2.6.8 3.8 1.3l.1-.3c-.8-.5-.9-.7-.6-1.6l.7-2.5.3.2c.5 1.6.8 3.2 1.1 4.8l2.2 1.1zm-.6-7.5c-.3.8-.7 1.3-1.1 1.4-.4 0-.8 0-1.8-.4l1-3.2.2-.3h.6c1.2.5 1.5 1.2 1 2.5zm-6.3-1.9.5-2.6a49.5 49.5 0 0 0-8-1.5l-.4 2.7h.4c.4-1.5 1.1-2 2.8-1.9l-.9 7c-.1 1-.3 1-1.3 1v.3l4.1.8.1-.3c-1-.3-1.1-.5-1-1.5l1.2-6.9 1.4.7c.6.5.8 1.1.7 2.1l.4.1zm-8 1.9h-.3a5 5 0 0 1-1.3 1.7c-.5.5-1.2.6-2.1.6-.7 0-1-.2-1-.8l.2-6.3c0-1 .2-1.1 1.4-1.1v-.4h-4.7v.3c.9 0 1.1.2 1.1 1v6.4c0 .7 0 .8-1 1v.3c2.4 0 4.7 0 7 .2l.7-3zm-8.4-6v-.3l-2.8.1v.3c1 0 1.1.1 1.2.6l-.3 1-1.4 4.4a130 130 0 0 0-2.5-5.2c0-.3.2-.5.7-.5l.4-.1v-.3l-4.5.5v.3c.8 0 .9.1 1.3.8l4 7.6h.3c.7-2.7 1.6-5.4 2.5-8 .3-.9.4-1 1.1-1.2z"/><path id="path20" fill="#e3e4e5" fill-rule="evenodd" stroke="#000" stroke-width=".3" d="M490.5 313c.5-2.1-5-6.2-12.7-9.9-3.6-1.6-6.5-3.3-10.2-5.4-10.8-6-18.8-13-17.8-15.6l.1-.3c-.6.6-1.4 13.2-1.4 13.2-1 2.3 6.3 9.2 16.2 15.3 3.2 2 10 5.2 13.1 6.6 5.7 2.5 11.3 7.2 10.8 9l2-13"/></g><g id="g168"><g id="g33"><g id="ribbon1" fill="#e3e4e5" fill-rule="evenodd" stroke="#000" stroke-width=".3"><path id="path21" d="M298.1 150.5c-1 2.4-4.2 2.4-8 3.3-10 2.8-13.4 7-20.5 14.4a65.4 65.4 0 0 1 9-17.6c-5.8.4-12.9 6-14.7 7.6 6.7-13.3 12.5-14 25.4-18.7 4.8 2.5 7.4 5.5 8.8 11z"/><path id="path22" d="M272.2 138.3c-1.5 7.6 21.4-.3 25.8 12.4 2.1-4.7-2.2-13.7-.8-13.9 1-2.6 2.1-5.2 3.3-7.7l-16-4.6-12.3 13.8z"/><path id="path23" d="M308.5 126.7a11 11 0 0 0 7.6-2.3c2 4 4.2 8 6.1 12.1 1.1 2.8-.6 5.6-3 7-3.7 2.6-8.6 1.2-12.9.5-8.3-2.4-14.7-8-23.5-9-3.8-.5-7.5 1.2-10.6 3.2.3-7.5 2.6-7.8.9-16.2 17-7.1 24.2 2.5 35.4 4.7z"/></g><use xlink:href="#ribbon1" id="use23" transform="matrix(-1 0 0 1 749.8 0)"/><path id="path24" fill="#000" d="M436.8 142.6v-.3h.2c.2 0 .3 0 .4-.2l.3-.5v-1l-.1-8v-1.2l-.3-.4a.6.6 0 0 0-.5-.2h-.2v-.3l3-.1a3 3 0 0 1 2.1.5c.6.4 1.1 1.1 1.4 2.1a11.1 11.1 0 0 1 .3 5.7c0 .7-.3 1.3-.5 1.8l-.9 1.1c-.3.3-.7.6-1.2.8l-1 .1-3 .1zm2.4-11.5.2 9.4v1l.2.2.4.1c.5 0 1-.4 1.3-1 .4-1 .5-2.4.5-4.4 0-1.5-.2-2.7-.5-3.7-.2-.7-.5-1.2-.8-1.4-.3-.2-.7-.3-1.3-.2zm6.1-2 .7 4.8h.1c.5-.2.8-.6.9-1.2v-2.2h.2l1 6.1h-.3l-.5-1.5c-.2-.5-.3-.6-.5-.6-.2-.1-.5 0-.8 0l.5 3.4.2 1.2.2.2h.5l.4-.2c.6-.3 1-.7 1.4-1.4a7 7 0 0 0 .5-2.7h.1l.3 3.8-5.8 2.5v-.3h.1l.5-.5.1-.5v-1l-1.2-7.8c0-.6-.1-.9-.2-1l-.2-.4h-.6l-.2.1v-.3l5.6-2.5.5 3.5h-.2a5 5 0 0 0-.7-1.6c-.2-.3-.5-.4-.8-.5l-1 .3-.8.3zm10.8-5.7.5 4.1h-.1c-.3-1-.7-1.6-1.2-2-.5-.4-1-.5-1.5-.3-.4.1-.8.5-1 1.1-.3.6-.5 1.2-.6 2l.1 3c.1 1 .3 2 .6 2.8.3.8.6 1.4 1 1.7.4.3.8.3 1.4.1.4-.1.8-.5 1-1l1-2v1c-.2.8-.5 1.4-.9 2-.4.4-.8.8-1.4 1-.7.3-1.4.3-2 0s-1.1-.8-1.6-1.6a11 11 0 0 1-.8-6.3 8 8 0 0 1 1-2.9c.6-.8 1.1-1.3 1.8-1.6.4-.2 1-.2 1.6 0h.6s.2-.1.2-.3l.1-.7.2-.1zm4-.3.5 4.9h.1c.5-.2.8-.5 1-1l.1-2.2h.2l.5 6.2h-.2a7 7 0 0 0-.4-1.5c-.1-.4-.3-.7-.5-.8-.2-.1-.4-.1-.8 0l.3 3.3c0 .7.1 1.1.2 1.2 0 .2 0 .3.2.4h.4l.4-.1c.7-.2 1.2-.6 1.5-1.2.4-.6.6-1.5.6-2.6h.2v3.9l-5.9 1.5v-.3l.2-.1c.2 0 .4-.1.5-.3l.1-.5v-1.1l-.7-8v-1a1 1 0 0 0-.3-.3c-.1-.2-.3-.2-.5-.2l-.3.1v-.3l5.8-1.5.3 3.6h-.2l-.6-1.8c-.2-.3-.5-.5-.8-.6l-1.1.1-.7.2zm12-1.6v3.3h-.2c0-.8-.2-1.3-.3-1.7-.2-.3-.3-.6-.6-.8l-.6-.2h-.5l-.3 9.3v1.2l.3.4.4.2h.3v.4l-3.7-.3v-.3h.3c.2 0 .3 0 .5-.2l.2-.4v-1.1l.3-9.4h-.5c-.5 0-.8.1-1 .4-.3.5-.6 1.2-.7 2h-.1v-3.2l6.3.4z"/><path id="path25" fill="#000" d="m277.6 128.7.3 3.3.1 1.2.2.4h.6v.3l-3 .8v-.3c.3 0 .5-.2.6-.3l.1-.5v-1.2l-.5-7.7-.2-1.2-.2-.3h-.6v-.3l2.6-.7c.8-.3 1.4-.2 1.8.3s.7 1.2.8 2.2c0 .7 0 1.4-.3 2-.2.6-.5 1.1-.9 1.4-.2.2-.7.4-1.4.6zm-.4-5.8.4 5.2h.2c.3-.2.6-.5.8-1 .1-.4.2-1.1.1-2 0-.9-.2-1.5-.4-1.8-.2-.4-.5-.5-.9-.4h-.2zm6.2 4.8v4.6l.3.4.6.1v.4h-3v-.4l.5-.1.2-.4V122l-.2-.4-.6-.2v-.3h2.8c.7 0 1.2.1 1.6.3s.6.6.8 1.1.3 1.2.3 2-.2 1.5-.5 2.1a2 2 0 0 1-.8.8l1.4 4 .4 1 .4.4v.3h-1.9l-1.9-5.5h-.4zm0-5.9v5.3h.3l.9-.2.5-.8.2-1.6c0-.9-.1-1.6-.4-2s-.5-.7-1-.7h-.4zm13.2 2.5-.3 3.5h-.2l-.1-2a2 2 0 0 0-.5-1l-1-.6-.5-.1-.4 4.7h.2c.2.2.5 0 .7-.2l.6-2h.1l-.6 6.1h-.1v-1.9l-.3-.9a1 1 0 0 0-.5-.4h-.1l-.4 3.5v1.4l.5.3.4.2.8-.1.7-.8.5-1.5h.2l-.6 3.6-5.1-1.9v-.3l.3.1h.6l.2-.5.1-1 .3-3-1.9-.7-1 2.4-.4.7v1.1c0 .2.3.3.6.4v.3l-2-.7v-.3c.2 0 .4 0 .5-.2.2-.1.4-.5.7-1l3-6.8.4-1v-.4c0-.2 0-.3-.2-.4l-.5-.2v-.4l5.3 2zm-4.5 4.6.5-5.4-2.1 4.8 1.6.6zm8-1.7-.6 4.7.2.1c.2.1.5.2.6.1.2 0 .4-.2.5-.5l.5-1.4h.1l-.8 5.9-.1-.1c0-1.1 0-2-.2-2.4-.2-.5-.4-.8-.7-1h-.2l-.4 3.5c-.1.6-.2 1-.1 1.1l.1.5c0 .2.2.3.4.4h.1v.4l-3-1.6v-.4l.2.2h.5l.2-.3.2-1 1-7.7.1-1.1-.1-.5a.8.8 0 0 0-.4-.4h-.2v-.4l4.9 2.6-.5 3.4-.1-.1-.1-2c-.1-.4-.3-.8-.6-1.1l-1-.6-.5-.3zm5 2.6-.5 4.7h.1c.4.2.7.1 1-.3l.4-2 .2.1-.6 6.2-.2-.1v-1.7l-.3-1-.6-.5-.4 3.3v1.6l.4.3.3.1c.6.2 1 .2 1.4-.2s.7-1 1-2h.1l-.6 3.7-5-2.1v-.4l.2.1h.4l.2-.3.2-1.1.8-7.7V129c-.1-.2-.3-.4-.5-.4l-.2-.1v-.3l5 2-.4 3.5-.2-.1a8 8 0 0 0-.2-2c0-.4-.2-.8-.5-1-.2-.2-.4-.4-.9-.6l-.6-.2zm4.8 7.4v4.5l.2.4.6.2v.4l-3-.3v-.3l.5-.1.2-.4v-1.2l.2-7.8v-1.2a1 1 0 0 0-.2-.4l-.5-.2v-.3l2.7.2c.7 0 1.3.2 1.6.4.3.2.6.6.8 1.2.2.6.3 1.2.3 2s-.2 1.5-.6 2c-.2.4-.5.7-.8.8l1.3 4.2.4 1c.1.2.2.3.4.3v.3l-1.9-.1-1.8-5.6h-.4zm.2-6-.1 5.3h.2l1-.1.4-.8.2-1.5c0-.9 0-1.6-.3-2-.2-.5-.5-.7-1-.8h-.4zm5.4-.2.4 4.8h.1c.4-.1.6-.5.8-1l.1-2.2h.2l.5 6.2h-.2l-.4-1.6c-.1-.4-.2-.6-.4-.7h-.7l.3 3.3.1 1.2.2.3h.4l.3-.1c.6-.2 1-.6 1.3-1.2s.5-1.4.5-2.5h.2v3.8l-5 1.5-.1-.3h.2l.4-.4.1-.5v-1l-.6-7.8v-1l-.3-.4c-.1-.2-.3-.2-.4-.1h-.2v-.3l4.8-1.5.3 3.5h-.2l-.4-1.7c-.2-.3-.5-.5-.8-.6l-.9.1-.6.2z"/><g id="ribbon2" fill="#e3e4e5" stroke-width=".3"><path id="path26" fill-rule="evenodd" stroke="#000" d="M309 134.6c2.5 3.4 7.2-1.8 13.5 2.7 0-6.2-6-9.1-7.1-19.7-.5-1.9-.9-4.6-1.5-1.5-1.5 4.4-3.2 8.7-4.6 13.1l-.2 5.4z"/><path id="path27" stroke="#1f1a17" d="M346.5 104.8s-14.7-1-23.5 2.2c-11.4 4.2-14.5 6.6-17.4 11.6-.5 5 3.3 9.8 3.5 16.2 0 0 1-4.5 5-6.7A53.7 53.7 0 0 1 337 121c6.2-.4 11.3-.5 11.3-.5 1.4-.6-1.1-10.4-1.7-15.6z"/></g><path id="path28" fill="#000" d="m309.7 123.9.6 3 .3 1 .3.2.5-.4v.3l-2.4 2.7v-.3l.3-.7.1-.5c0-.2 0-.6-.2-1.1l-1.5-7a5 5 0 0 0-.3-1l-.2-.2c-.1 0-.3.1-.5.4v-.3l2-2.3c.7-.7 1.3-1 1.7-.8s.7.8.9 1.6a6.1 6.1 0 0 1-.5 4 8 8 0 0 1-1.1 1.4zm-1.1-5.2 1 4.6.1-.2c.3-.3.5-.7.6-1.3a6 6 0 0 0-.2-2c-.2-.8-.4-1.3-.6-1.5-.2-.2-.5-.1-.8.2l-.1.2zm7.4 2-1.8 1.1v2.3c0 .3 0 .5.2.6 0 0 .3 0 .5-.2v.3l-1.6 1.2v-.3l.3-.8.2-2 .6-10.4 3.2 8 .6 1.4c.1.1.3.2.4 0v.4l-2.4 1.7v-.4c.3-.1.4-.3.5-.5v-.7l-.3-.6-.4-1.2zm-.2-.6-1.3-3.4-.3 4.4 1.6-1zm7-11.5.3 3.2h-.2c-.1-.7-.2-1.1-.4-1.4l-.4-.6h-.6l-.4.2.8 9 .1 1.1.2.3c0 .1.2.1.4 0h.1v.3l-2.7 1.1v-.3h.2l.3-.4.2-.5v-1l-.8-9.1-.4.1c-.3.2-.6.5-.7.8a7 7 0 0 0-.3 2.2h-.1l-.3-3 4.7-2zm3.1 5.8.2 3.3v1.2c0 .2.2.3.3.4h.5v.3l-2.7.6v-.3c.2 0 .4-.2.5-.3l.1-.4V118l-.3-7.7V109c0-.2-.2-.3-.3-.4h-.5v-.3l2.5-.6h1.4c.3.2.5.5.7 1s.4 1 .4 1.8c0 .9 0 1.6-.3 2.3-.2.3-.4.7-.8 1l1.5 3.7.4.8c0 .2.2.3.4.3v.3l-1.7.3-2-5h-.3zm-.2-5.8.2 5.2h.2c.4-.2.7-.3.8-.5.2-.2.3-.5.4-.9l.1-1.5c0-1-.1-1.6-.4-2-.2-.3-.5-.5-.9-.4h-.4zm7 9.9v.3l-2.7.3v-.3h.1c.2 0 .3-.2.4-.3l.2-.4V117l-.2-7.8V108l-.2-.4c-.1 0-.2-.1-.4 0h-.2v-.4l2.8-.3v.3h-.2c-.1 0-.3.1-.3.3l-.2.4v1.1l.2 7.8v1.2c0 .2.1.2.2.3l.4.2h.1zm3.5-3.3-1.8.1-.2 1.2-.2 1 .2.7.6.1v.4H333v-.3c.2 0 .3-.2.5-.5l.4-1.8 1.8-9.6h.1l2 9.7.4 1.7c.1.2.3.3.4.3v.3l-2.5.1v-.3c.3 0 .4 0 .5-.2v-1.4l-.4-1.5zm-.1-.6-.8-4-.8 4h1.6zm6.5 0 1.4-7.8h2.2v.4h-.2l-.4.1-.1.4v1.1l-.1 7.9v1.1l.2.4.4.2h.1v.3h-2.7v-.4h.1l.4-.1.2-.5v-9.9l-2 10.8h-.1l-2-10.8v9.4c0 .4 0 .6.2.8s.3.3.5.3v.3h-1.8v-.4h.4l.2-.4.1-.7v-9.5l-.1-.4-.4-.2h-.2v-.3h2.2l1.5 7.9z"/><use xlink:href="#ribbon2" id="use28" transform="matrix(-1 0 0 1 749.8 0)"/><path id="path29" fill="#000" d="M407.4 112.7v4.6l.2.4.4.2v.3h-2.1v-.3c.2 0 .3 0 .4-.2l.1-.4V107l-.1-.4-.4-.2v-.3h1.8c.6 0 1 .3 1.3 1a7 7 0 0 1 .1 4.3c-.2.5-.4.9-.7 1.1l-1 .2zm0-6v5.3h.2c.2 0 .4-.2.5-.6.2-.5.2-1.1.2-2l-.2-2c-.1-.4-.3-.6-.6-.6h-.1zm4.8 8.2h-1.5l-.2 1.1v1.7l.5.3v.3l-1.4-.1v-.3c.2 0 .3-.3.4-.5l.4-1.8 1.5-9.6 1.5 10 .3 1.8.3.4v.3l-2-.1v-.4l.4-.1.1-.4v-1l-.3-1.6zm-.1-.6-.6-4.3-.7 4.2h1.3zm3.8-1-.1 3.3v1.3c0 .1 0 .3.2.4l.3.2v.3l-2-.3v-.3h.3l.2-.5v-1.2l.1-7.8v-1.3l-.1-.4-.4-.2v-.4l2 .3c.4 0 .8.2 1 .5.3.2.5.6.6 1.2a7.8 7.8 0 0 1-.2 4c-.1.4-.3.7-.6.8l1 4.3.2 1c0 .2.2.3.3.3v.4l-1.3-.2-1.3-5.7h-.3zm0-6v5.3h.1l.7-.1c.2-.1.2-.4.3-.8l.2-1.5c0-1 0-1.6-.2-2-.2-.5-.4-.8-.7-.8h-.3zm4.7.8-.1 5c.4 0 .5-.2.7-.6l.3-2.1v6.3h-.2l-.1-1.7c0-.5-.2-.8-.3-1l-.4-.3-.1 3.4v1.3l.1.4.3.2h.2c.4 0 .7-.1 1-.6s.4-1.2.5-2.3h.1l-.3 3.9-3.5-.8v-.3h.1l.3-.1.1-.4v-1.2l.3-7.9v-1l-.1-.5c0-.2-.2-.3-.3-.3h-.2v-.4l3.5.7v3.6h-.2c0-.9 0-1.5-.2-2 0-.3-.2-.7-.4-.9l-.6-.3h-.5zm4.2.4 1.8 8 .2-5.1v-1.5c-.2-.4-.3-.6-.6-.7v-.3l1.4.4v.3c-.2 0-.3 0-.4.2l-.1.4-.1 1.2-.4 10-2.5-10.8-.3 7.6.1 1.5.4.5v.3l-1.4-.4v-.4c.3.1.4 0 .5-.2l.2-1.3.3-8.6v-.3l-.3-.7-.3-.3v-.3l1.5.5zm7 2.5-.1 3.3h-.1l-.1-1.8-.3-.9-.4-.3-.3-.1-.5 9.2v1.2l.1.4.3.3h.1v.4l-2.2-.9v-.3h.5l.1-.4.1-1.1.5-9.3h-.3c-.3-.2-.5-.1-.6.2a6 6 0 0 0-.5 1.9h-.1l.2-3.3 3.7 1.5zm2.2 1.9-.4 4.8h.1c.3.2.5.1.6-.3.2-.4.3-1 .4-2l.1.1-.4 6.2h-.1v-1.8l-.3-1a1 1 0 0 0-.4-.5l-.3 3.3a15.1 15.1 0 0 0 0 1.7l.3.3.3.1c.3.2.7.2 1-.2l.6-2-.4 3.7-3.5-2.1v-.4l.2.1h.3l.1-.3.1-1.1.6-7.8V112l-.3-.4h-.2v-.4l3.5 2-.3 3.5-.2-2a3 3 0 0 0-.4-1.1 1 1 0 0 0-.6-.5l-.4-.3zm5 11.3 2-6.4 1.5 1.7v.3l-.1-.2h-.3l-.2.2-.2 1-.9 7.6v1.6l.2.4.2.2v.3l-2.1-2.1v-.4l.1.2h.3c.1 0 .2 0 .2-.2l.2-1 1-8.5-2.8 8.9-.3-12-1 8v2l.3.6v.3l-1.3-1.4v-.3c.1.2.2.2.3.2 0 0 .2 0 .2-.2l.2-.5v-.8l1-7.3v-1.6l-.2-.4-.2-.2v-.3l1.7 1.7.2 8.6z"/><g id="g32" fill="#e3e4e5" stroke-width=".3"><path id="path30" stroke="#1f1a17" d="M401.5 120.3c-.6-.2-2-11 3-15.2 2.3-2 1 3.5 1.3 6.1.4 2.7 1 1.2-.4 4.8-1 2-4.7 2.1-4 4.2z"/><path id="path31" stroke="#1f1a17" d="M348.4 120.3c.5-.2 2-11-3-15.2-2.4-2-1 3.5-1.4 6.1-.3 2.7-.9 1.2.5 4.8.8 2 4.6 2.1 3.9 4.2z"/><path id="path32" stroke="#000" stroke-linejoin="round" d="M364.1 91.7c-13.4 0-23.6 4.2-23.2 9.6 1.8 6.9 0 9.9 3.7 14.9-.1-3.2 2.8-5.1 5.3-6.4a112 112 0 0 1 50.2 0c2.5 1.3 5.5 3.2 5.4 6.4 3.7-5 1.8-8 3.7-14.9.3-5.4-10-9.6-23.3-9.6-7.3.3-14.5 0-21.8 0z"/></g><path id="path33" fill="#000" d="m354.8 102.1.4 4-8 2.5v-.3h.2l.6-.4.2-.5-.1-1-1.5-7.5-.3-1-.4-.3h-.6l-.3.1v-.3l4.8-1.5v.3l-.4.2-.6.3-.2.5.2 1 1.4 7.2.3 1c.1.2.2.3.4.3l.8-.1.8-.3c.5-.1.8-.4 1.1-.7.3-.3.5-.7.6-1.2.2-.5.3-1.3.3-2.2l.3-.1zm6.4 3.3v.3l-4.8.6v-.3h.3l.6-.3.3-.5v-1l-.6-7.6c0-.6-.1-1-.2-1.1l-.3-.4h-1v-.3l4.9-.6v.3h-.3c-.3 0-.5.2-.7.3l-.2.4v1.1l.6 7.6c0 .6.1 1 .2 1 0 .2.1.3.3.4l.6.1h.3zm6.4-6.3c1 .3 1.5.5 2 .9.4.5.7 1.1.7 2a3 3 0 0 1-.7 2.1c-.7.8-1.7 1.2-3 1.2l-4.7.3v-.3l.8-.2.3-.4.1-1.2-.3-7.5-.1-1.2-.3-.3c-.1-.1-.5-.2-1-.1V94l4.5-.3c1.1 0 1.9 0 2.3.2.5.3.8.6 1.1 1 .3.5.4 1 .4 1.5 0 .6 0 1-.4 1.5-.3.5-.9.8-1.7 1.1zm-2.5 0a3 3 0 0 0 1.4-.4c.4-.2.6-.5.7-.8.2-.3.3-.8.2-1.3s0-.9-.3-1.2c-.1-.3-.4-.6-.7-.7l-1.4-.2.1 4.6zm0 .6.2 3.7v.4c0 .3 0 .6.2.7l.6.2a2 2 0 0 0 1-.3c.3-.2.5-.6.6-1l.2-1.2c0-.6 0-1-.3-1.5-.2-.4-.5-.7-.9-.8-.3-.2-.9-.2-1.6-.2zm9.8-5.4V99h.1c.6 0 1-.3 1.3-.7a5 5 0 0 0 .5-2h.3v6h-.3c0-.7-.2-1.2-.3-1.6-.2-.5-.4-.7-.6-.9a2 2 0 0 0-1-.2v4.4l.2.4.6.1h.6c.8 0 1.5-.2 2-.7a4 4 0 0 0 1.2-2.3h.3l-.5 3.7h-8v-.4h.3c.2 0 .5 0 .6-.2l.3-.4v-1l.1-7.6v-1c0-.2-.1-.4-.3-.5a1 1 0 0 0-.7-.2h-.3v-.3h7.8V97h-.3c0-.8-.3-1.4-.5-1.8-.2-.3-.6-.6-1-.8l-1.5-.1h-1zm9.5 5.9-.2 3.2v1.2l.3.4 1 .2-.1.3-4.8-.3v-.3l1-.1.3-.4.1-1.2.4-7.4v-1.2c0-.2-.2-.3-.4-.4l-.8-.2v-.3l4.3.3c1.1 0 2 .2 2.5.5a3 3 0 0 1 1.6 3 3 3 0 0 1-.8 2c-.4.4-.8.6-1.4.7l2 4 .6 1c.2.3.4.4.7.4v.3l-3-.2-2.7-5.5h-.6zm.3-5.7-.3 5 .4.1h1.4l.8-.8c.2-.3.3-.9.3-1.5 0-.9 0-1.5-.4-2-.3-.4-.8-.7-1.5-.7h-.8zm11 12v.2l-4.9-.7v-.3h1l.3-.4.2-1 .7-7.6v-1c0-.2 0-.4-.2-.5-.1-.2-.3-.2-.6-.3h-.3v-.3l4.9.7v.3h-.4a1 1 0 0 0-.6 0l-.4.4-.1 1-.8 7.6v1.1c0 .2.1.3.3.4l.6.3h.3zm8.9-9.5-.7 3.7h-.2c0-1-.2-1.9-.6-2.6-.4-.7-.9-1.2-1.4-1.3-.5-.2-.9-.1-1.2.1-.3.2-.5.6-.6 1v.7l.5.9 1.3 1.4c1 1 1.5 1.8 1.8 2.4s.3 1.4.1 2.2c-.1 1-.6 1.6-1.3 2.1-.7.6-1.5.7-2.4.4a3 3 0 0 1-.8-.3 6 6 0 0 1-.9-.7l-.5-.3h-.4a1 1 0 0 0-.4.5l-.2-.1.7-4.3.3.1a6 6 0 0 0 .6 3c.5.9 1 1.3 1.7 1.5.5.2.9.1 1.2-.1s.6-.6.7-1v-1l-.4-.8-1-1.2a7.9 7.9 0 0 1-1.6-1.8c-.3-.4-.5-1-.6-1.4v-1.5c.1-1 .5-1.6 1.2-2.1.6-.5 1.4-.6 2.2-.4a3 3 0 0 1 1.5 1l.6.4h.3l.3-.6h.2z"/></g><g id="g72" stroke="#000" stroke-miterlimit="9.2"><path id="path34" fill="#ed1c24" fill-rule="evenodd" stroke-width=".3" d="M379.6 109.2c-3-.4-4.6.4-5.7.8-1.3.5-3.9 6.6-5.3 12.7-1.4 6.2.7 7.3-.4 11.8s-11.4 4.2-3.8 6 23.5 2.9 28.7-.6-4.6-5.6-7.9-13.1c-3.3-7.6 2-11 .4-15.2-1.7-4.2-3.1-2-6-2.4z"/><path id="path35" fill="#e3e4e5" fill-rule="evenodd" stroke-width=".3" d="M384 129.7c1 .7 1.9 1.5 2.7 2.3.9.8 1.5 1.7 1.8 2.6.2.8 0 1.5.1 2.1.1.7.4 1.2.5 1.6.1.4 0 .5-.6.8a18 18 0 0 1-5.5.8c-.5 0-.4-.1-.5-.5s-.1-.8-.5-1.1-.8-.5-1.2-.5c-.5 0-1 .2-1.2.6-.3.4-.5 1-.5 1.3 0 .4 0 .5-.3.6h-2.2c-1 0-2-.3-2.6-.4-.6-.2-.8-.2-.9-.4v-.6c.3-.4.6-1 .7-1.6l.4-2.3c.1-1 .5-2 1.1-3s1.7-1.6 2.7-2.3"/><path id="path36" fill="#e3e4e5" fill-rule="evenodd" stroke-width=".3" d="m388 135.8-5.4.7h-3.8l-4.6-.4"/><path id="path37" fill="#e3e4e5" fill-rule="evenodd" stroke-width=".3" d="M387.9 120.4v4.9h-2.5v-5h2.5z"/><path id="path38" fill="#e3e4e5" fill-rule="evenodd" stroke-width=".3" d="M386.9 114.3v2c0 1.3 0 3.5-.3 6s-1 5.6-1.7 8.5h-8c-.6-2.6-1.2-5.1-1.6-7.9-.3-2.7-.3-5.7-.3-8.6"/><path id="path39" fill="#000" fill-rule="evenodd" stroke-width=".3" d="M386.3 101.1c1 .6 1.7 1.7 2.2 3.2.4 1.6.4 3.6 0 5-.3 1.5-1 2.5-1.5 2.8-.6.4-1.1.2-1.6-.4-.5-.7-1-1.8-2-2.2-1.1-.5-2.8-.3-3.9-.4-1 0-1.5-.5-1.4-1.5 0-1 .7-2.6 1.7-3.9 1-1.3 2.3-2.2 3.5-2.7 1.1-.4 2.1-.4 3 .1z"/><path id="path40" fill="none" stroke-width=".3" d="M383.8 116.8h-1.9l-1.8-.5"/><path id="path41" fill="#e3e4e5" fill-rule="evenodd" stroke-width=".3" d="m387.1 132.8-5 .7c-1.4.1-2 .1-3.2 0-1 0-2.5-.3-4-.5"/><path id="path42" fill="#e3e4e5" fill-rule="evenodd" stroke-width=".3" d="M366.1 108.6a4.8 4.8 0 0 1 1.7 3.1c0 .4 0 .7-.4 1.1l-1.5 1.4c-.5.5-1 .7-1.4.6-.3 0-.4-.3-.5-1l-.2-2.3c0-.7-.1-1.2 0-1.6 0-.4.2-.7.5-1l1-.3c.3-.1.5-.2.8 0z"/><path id="path43" fill="#e3e4e5" fill-rule="evenodd" stroke-width=".3" d="m374.6 113.3-3.7 1.9c-.9.3-1.2.2-1.8-.4l-2-2.4c-.6-.5-.8-.3-1 0a3 3 0 0 0-1 1.2 62.8 62.8 0 0 0 1.8 5.7c.5 1 .7 1.1 1 1.2h2.1a8 8 0 0 0 1.8-.6l2-1 2.7-1.3"/><path id="path44" fill="#ed1c24" fill-rule="evenodd" stroke-width=".3" d="M384.7 109.6a5 5 0 0 1 1.4 1.5c.4.6.5 1.4.3 2-.1.7-.6 1.3-1.1 1.7-.6.4-1.3.6-2 .7a4.3 4.3 0 0 1-4.7-2.3c-.2-.5-.4-1-.4-1.5v-1.3c.2-.4.6-.8 1.1-1 .5-.3 1.1-.3 1.8-.3"/><path id="path45" fill="#e3e4e5" fill-rule="evenodd" stroke-width=".3" d="M371.5 115c-.3.3-.6.5-.7.8-.2.2-.2.5 0 1.2l.7 2.6c0 .7-.1 1-.6 1.2l-2.2.5-1.9.6c-.4.2-.4.1-.5-.2v-1.8l-.5-2.4c-.1-.6-.2-1 0-1.2l1.2-.3 1.7-.7c.4-.3.7-.5.8-.9.2-.3.2-.8.4-1 0-.3.3-.4.6-.3.2 0 .5.1.6.3.2.1.2.3.2.5"/><path id="path46" fill="#e3e4e5" fill-rule="evenodd" stroke-width=".3" d="M378 110.8v.8l.8 1.7c.4.6 1 1 1.1 1.7.3.7.2 1.5 0 2.2 0 .8-.2 1.5-.6 2-.4.7-1 1.1-1.4 1.3-.5.2-.9.2-1 .1-.3 0-.3-.1-.3-.6l.2-1.6c0-.5 0-.6-.4-.4-.3.2-.9.7-1.4.6-.5-.1-.9-.9-1.2-1.7l-.6-2.5c0-.7.2-1 .5-1.2l1-1h1.3l1 .2c.1 0 .3-.1.5-.4l.5-.8-.4.6"/><path id="path47" fill="#e3e4e5" fill-rule="evenodd" stroke-width=".3" d="M391.3 121.4c-.4 3.1-.8 6.3-1.2 8-.3 1.5-.5 1.7-2 1.4l-5.1-1.1c-1.3-.4-1.3-.5-1.3-1.3l.4-3c.1-.6.2-.7 1-.5s2 .5 2.8-.3c.7-.8.9-2.8 1-4.7"/><path id="path48" fill="#e3e4e5" fill-rule="evenodd" stroke-width=".3" d="m389 126.2 1.4 1.4c.3.3.4.3.3.9l-.4 2.2v1.3c0 .2-.1.2-.4 0l-1.5-.5-2-.4c-.5 0-.6-.2-.6-.8 0-.6 0-1.7-.3-2.3-.3-.6-.7-.7-1-.9-.4-.1-.6-.4-.7-.7v-.8l.3-.6c0-.1.3-.2.6-.1h1.3c.4-.1.6-.5.8-.8.2-.3.5-.5.8-.5.3-.1.6 0 .8.1.3.2.5.4.5.7v.9c0 .3-.2.5.1 1z"/><path id="path49" fill="#e3e4e5" fill-rule="evenodd" stroke-width=".3" d="m391.8 120-.2 2c0 .3 0 .4-1 .3l-3.3-.6c-.9-.1-1-.2-.9-.6l.5-1.8"/><path id="path50" fill="#e3e4e5" fill-rule="evenodd" stroke-width=".3" d="M382.2 125c0 .9-.2 2.6-.5 3.5-.3 1-.5 1.2-.7 1.3-.3 0-.4 0-.8-.5a8.9 8.9 0 0 1-1.6-2.2c-.3-.6-.1-1 .1-1.5l1-1.8c.3-.5.4-.5.7-.4l1.1.5c.4.1.7.2.7 1z"/><path id="path51" fill="#e3e4e5" fill-rule="evenodd" stroke-width=".3" d="M386.1 111.2c.1-.2.2-.4.4-.4s.5 0 .8.3c.3.3.6.8.7 1.4l.3 1.5c0 .4.2.6.7.7.5 0 1.2.2 1.8.5.5.3.9.8 1 1.3.3.5.3 1 .3 1.6l-.1 1.6c-.1.4-.2.4-1 .3l-3.3-.5c-.8-.2-.9-.1-1 .2l-.2 1c-.1.3-.2.3-.4.3l-1-.5a3 3 0 0 1-1-1.4c-.3-.6-.4-1.3-.3-2 0-.6.2-1.2.6-1.6.4-.3 1-.5 1.4-1.1.4-.7.4-2 .4-3.2"/><path id="path52" fill="#e3e4e5" fill-rule="evenodd" stroke-width=".3" d="m379.3 120.8.5 1.5v1.3c-.3.7-.8 1.8-1.4 2.3-.7.4-1.5 0-2-.2-.6-.3-1-.6-1.2-1a4 4 0 0 1-.5-1.2 5.6 5.6 0 0 1-.1-2.3c0-.2.1-.3.3-.3l.6.5 1 1.2c.2.3.4.5.7.5.2-.1.4-.4.5-.7.1-.4 0-.7-.1-1-.2-.3-.6-.6-.7-.9 0-.2 0-.5.3-.6l.8-.2c.3 0 .6.2.8.4.2.1.3.3.5.7z"/><path id="path53" fill="#e3e4e5" fill-rule="evenodd" stroke-width=".2" d="M360 106.2c0 .5 0 1.4.7 2.3.7.9 2 1.9 2.7 2.3.6.4.7.2 1-.4l1-2.1c.2-.6.1-.7-.1-1l-1-.7-.9-1-.8-.5-.7.2v.3l.9.8.3.6c0 .2-.2.4-.3.5-.1.2-.2.2-.3 0a5 5 0 0 1-.7-.6c-.4-.4-1-1-1.3-1.1-.3-.2-.5 0-.5.4z"/><path id="path54" fill="#eac102" stroke-width=".3" d="M358.1 113.8c-1.1.7-1.5.4-.9-.7a8.2 8.2 0 0 1 2.7-3.1c1.2-.7 1.7-.4 1.1.8a8.2 8.2 0 0 1-2.9 3z"/><g id="g56" stroke-width="8.5" transform="matrix(-.04348 -.03264 .01255 -.01375 367.6 123.9)"><path id="path55" fill="#e3e4e5" d="M244.5 371.6h41.4l7.5 193-13.5 192.8-14.7 59.9-14.7-59.9-13.6-192.9 7.6-193z"/><path id="path56" fill="#000" fill-rule="evenodd" d="m263.2 375 1.5 367 4.5-367h-6z"/></g><path id="path57" fill="#000" stroke-width=".3" d="m357.6 114.2-.4-1.2-.1.2.5 1zm.5-.3-.6-1.5v.1l.6 1.4zm.4-.3h.1l-.7-1.7.6 1.7zm.5-.4-.7-1.8h-.1l.8 1.8zm.5-.4-.8-1.9v.1l.8 1.8zm.4-.4-.8-1.9.8 2zm.4-.4v-.1l-.7-1.8v.1l.7 1.8zm.4-.5v-.1l-.6-1.6h-.1l.7 1.7z"/><path id="rect57" fill="#eac102" stroke-width=".3" d="M-345 128.7h5.6v.7h-5.6z" transform="matrix(-.79968 -.60042 .67434 -.73842 0 0)"/><g id="g59" fill="#eac102" transform="matrix(-.02775 -.02084 .02082 -.0228 360.5 124.2)"><path id="path58" stroke-width="8.3" d="M299 229.1a28.8 28.8 0 1 1-57.6 0 28.8 28.8 0 0 1 57.6 0z"/><path id="path59" stroke-width="8.2" d="M282.4 229.1a12.2 12.2 0 1 1-24.3 0 12.2 12.2 0 0 1 24.3 0z"/></g><path id="path60" fill="#f6cb7e" fill-rule="evenodd" stroke-width=".3" d="M385.3 103.7c1 .4 1.8 1.1 2 2.2.3 1.1 0 2.6-.7 3.9a8.2 8.2 0 0 1-2.5 2.9c-.8.5-1.5.5-2 0-.7-.4-1.2-1.3-1.4-2.6a14 14 0 0 1 0-4.1c.4-1.2 1-2 1.9-2.3.8-.4 1.8-.4 2.7 0z"/><path id="path61" fill="none" stroke-width=".3" d="M386.8 106.3c-.5-.1-1-.3-1.4-.2-.4 0-.8.4-1 1-.2.5-.1 1.3 0 1.7 0 .5-.1.6-.3.6l-1-.3"/><path id="path62" fill="none" stroke-width=".3" d="M383.6 106.5c0-.2 0-.5-.2-.8l-.8-.7c-.3-.2-.5 0-.7 0"/><path id="path63" fill="none" stroke-width=".3" d="M384 111c-.3-.2-.7-.2-1-.3l-.8-.4"/><path id="path64" fill="none" stroke-width=".3" d="m383.2 111.8-.7-.2"/><path id="path65" fill="none" stroke-width=".3" d="M385.1 112.6c-.3.5-.6 1-1 1.3a3.5 3.5 0 0 1-3.4-.7c-.4-.3-.6-.7-.7-1.1l-.4-1.4"/><path id="path66" fill="#000" fill-rule="evenodd" stroke-width=".3" d="M385 107.6c0-.1.3-.2.5-.1.2 0 .3.2.3.3 0 .2-.2.2-.5.2-.2 0-.3-.2-.3-.4z"/><path id="path67" fill="#000" fill-rule="evenodd" stroke-width=".3" d="M382 106.5c0-.1.3-.2.5-.1.2 0 .3.2.3.3 0 .2-.2.2-.4.2s-.4-.2-.3-.4z"/><path id="path68" fill="#000" fill-rule="evenodd" stroke-width=".3" d="M382.7 112.2c-1.2-.5-1.4-3.6-2-3.2-.7.4-.2.8.2 1.9.4 1 .4 1.9 1.3 2.3.8.4 1.3 0 2.2-.6.8-.6 1.2-.9 1-1.7-.2-.8-1.5 1.8-2.7 1.3z"/><path id="path69" fill="#000" fill-rule="evenodd" stroke-width=".3" d="M383.2 110.3c1.2.5 1.5 2.9 1.4 2-.1-.7.5.4.4-.7-.1-1.4-.4-1.9-1.3-2.3-.8-.4-2-.4-2.1.6-.2.8-.6.5-.6 1.2 0 .9 1-1.3 2.2-.8z"/><path id="path70" fill="none" stroke-width=".3" d="M378.2 110.2c-3.5.3-2.9 2-4.8 1.3"/><path id="path71" fill="#e3e4e5" fill-rule="evenodd" stroke-width=".3" d="M373.2 116.9s3.4.6 7.5 1c4 .3 8.7.4 8.7.4s.2 5.9-1.4 15.2c-2.2 6-8.2 12.6-9.3 12.3-2.2-.6-4.8-6.3-6.8-14.8 0-5.6 1.3-14.1 1.3-14.1z"/><path id="path72" fill="#e3e4e5" fill-rule="evenodd" stroke-width=".3" d="m378.6 117.7 4.3.6-.9 7 6.9 1.7-.6 4.4-6.7-1.4-.6 14.2-2.3 1.8-2.2-2 .9-14.6-5.3-.3.3-4.4 5.4.3.9-7.3z"/></g><g id="g167"><g id="g87" fill-rule="evenodd" stroke="#000" stroke-width=".3"><path id="path73" fill="#eac102" d="m355.5 140 41.1.2c-.5.8-5 5.2-4 10l-33.1.2c.7-2-.6-7-4-10.4z"/><path id="path74" fill="#eac102" d="m360.2 150.5-.2.2v.4a39 39 0 0 1-11.3 32l-.2.2-.2 19.4h54.4v-.3h.1l-.1-19.5-.2-.2a41 41 0 0 1-10.3-31.8v-.4h-32z"/><path id="rect74" fill="#e9b703" d="M359.6 150.3h33.1v1.2h-33.1z"/><path id="rect75" fill="#e9b703" d="M359 149.3h34.2v1.3H359z"/><path id="rect76" fill="#e9b703" d="M354.5 139.3h43.2v1.3h-43.2z"/><path id="rect77" fill="#e9b703" d="M353.8 137.9h44.6v1.4h-44.6z"/><path id="path77" fill="#e9b703" d="M376.3 179.4h3c5.1.4 8.1 7 8 9.2l-.1 14.2h-21.4v-14.2c.1-4 2.6-8.6 7.9-9.2h3"/><path id="path78" fill="#e9b703" d="M376.2 181.2h2.6c4.4.4 6.9 6.5 6.7 8.5v13l-18.2.1v-13c0-3.8 2.1-8 6.7-8.6h2.5"/><path id="path79" fill="#e9b703" d="m371 187.7-3.8-4"/><path id="path80" fill="#0071bc" d="M370.2 202.7h12.4v-13.6s-1.5-4.3-5.9-4.9c-4.4-.5-6.6 5-6.6 5v13.5z"/><path id="path81" fill="#e9b703" d="m382 187.6 3.7-3.8"/><path id="path82" fill="#e9b703" d="M376.2 184v-4.8"/><path id="path83" fill="#eac102" d="M353.2 126.7V138h45.7v-11.3h-5.7v4.9h-4.3v-5h-5.7v5h-4.3v-5h-5.7v5h-4.3v-5h-5.7v5h-4.3v-5h-5.7z"/><path id="path84" fill="#e9b703" d="M366.4 156.8c-2 0-3.8 1.3-3.8 2.8v8.7h7.6v-8.7c0-1.5-1.7-2.8-3.8-2.8z"/><path id="path85" fill="#0071bc" d="M366.3 157.8c-1.3 0-2.5 1-2.5 2.3v7.1h5v-7.1c0-1.3-1.1-2.3-2.5-2.3z"/><path id="path86" fill="#e9b703" d="M385.6 156.8c-2 0-3.7 1.2-3.7 2.7v8.8h7.5v-8.8c0-1.5-1.7-2.7-3.8-2.7z"/><path id="path87" fill="#0071bc" d="M385.7 158c-1.4 0-2.5 1-2.5 2.2v7.1h5v-7.1c0-1.3-1.2-2.3-2.5-2.3z"/></g><g id="g110"><path id="path88" fill="#eac102" fill-rule="evenodd" stroke="#000" stroke-width=".3" d="M302.9 190.5c2.7 5.2 6 11.8 8.7 11 .5-.2.7-1.5-.1-5.7l-5-9.4c-.8-1-2.8-.3-2.9.9l-.8 3.2z"/><path id="path89" fill="#eac102" fill-rule="evenodd" stroke="#000" stroke-width=".3" d="M448.5 190.5c-2.8 5.2-6.1 11.8-8.7 11-.5-.2-.7-1.5.1-5.7l5-9.4c.8-1 2.7-.3 2.9.9l.7 3.2z"/><g id="crown1" stroke="#000"><path id="path90" fill="#eac102" fill-rule="evenodd" stroke-width=".3" d="m307.1 196.3 1-2.6a103 103 0 0 1-7.9-11.6c-.6-1-2.8-.4-2.3.8a58.1 58.1 0 0 0 9.2 13.3z"/><path id="path91" fill="#eac102" fill-rule="evenodd" stroke-linecap="round" stroke-linejoin="round" stroke-width=".3" d="m281.5 160.3 1.9-1.3c5.2-1.2 9.9 3.2 9.8 5.1 1.3-1 2.6-.7 4-.6-.8 2.3 0 4-1 6.4 1.2.3 2.2.8 2.4 1.6l1.2-.7h1.5c.3 6.3-2 4.9-1.5 7.2l2.5-2.7 2.7.3c1.3.2 1.7 1.6 3.1 1.8-1 1.2-1.6 3.3-2.6 4.8a3 3 0 0 1-3 .2c3 1 3.9 3.4 5.1 4.7-1.3 0-2.4.2-3 .3 2 2.5 3.1 4.5 5 5.9l-1 .2-6-2.6-5-4.6-6-8.4-.3-13.3c-3.1-1.4-2.6-4.7-9.8-4.3z"/><path id="path92" fill="#eac102" fill-rule="evenodd" stroke-linejoin="round" stroke-width=".3" d="M281.4 160.4c8.5.8 8.5 11.4 10.2 17.8l5.4 8.2c3.4 2.9 5.7 6.6 7.8 7 2 .4 1.9-.4 4 0-4.1-1.5-2.2-5.3-10.8-7.6 2.8-1.3 2.8 2.4 8.3 1.4-1.5-3.4-4.7-3.6-6.2-4.8 2.2-.7 2.5.6 4.1 0 1.8-.6 1.4-3.1 2.9-4.8-2-.7-3.5-3-5.8-1.9-.8.6-2 2.6-3.3 3.1-.6-2.7 1.3-2.9 1.7-4.3.4-1.3-.2-1.7.1-3.6-6 2-3.8 5.6-6.6 7.2 0-3.9 1.2-2.2 3.5-6.5-.9-1.1-1.5-.9-2.2-1.2 1.1-2.2.1-3.5 1.3-6.5-2.2-.7-3 .4-3.6 1-.3-1.8-5.2-7.8-10.8-4.5z"/><path id="path93" fill="none" stroke-width=".1" d="M293.5 167.6c-1.8 3.6-1.6 7.2-1.5 10.8m4.4-1.9c-.3 1.8-1.6 2.8-3 3.8m9.4-1.1c-3.2.2-3.5 2-8.2 2.7m.9 1.1c2.3.4 4.6.9 6.2 2m-5 .6c3.2 3.4 5.8 3.7 6.8 5.4"/><g id="g95" stroke-width="1.9" transform="matrix(-.12518 .07316 .08236 .1112 495.4 -47.3)"><path id="path94" fill="#e3e4e5" d="M2069.1 730.7h.6c12.8 0 23.1-12.7 23.1-28.4s-10.3-28.5-23.1-28.5h-.6v56.9z"/><path id="path95" fill="#eac102" d="M2066.3 668.7h6.9v66.6h-6.9a271.3 271.3 0 0 1 0-66.6z"/></g></g><use xlink:href="#crown1" id="use95" transform="matrix(-1 0 0 1 751.4 0)"/><path id="path96" fill="#eac102" fill-rule="evenodd" stroke="#000" stroke-width=".3" d="M375.7 171.3c-.5 0-1 .3-1 .8-.4 5.6-2.7 14.4-11.2 16-8.4 1.5-15.9-10.4-16.2-15.1 0-.7-.6-1-1.1-1-.7 0-1.4.5-1.2 1 1.3 6.6 0 14.8-5.9 16.3-5.8 1.5-12.2-5.4-16.7-14-.4-1.6-2.8-1-2.4.2 3.7 9 2.5 15.2-.2 16.5-3.2 1-10-6.9-13.8-13.8-.6-1-3-.4-2.4.8a38.8 38.8 0 0 1 5.6 16 17 17 0 0 1-1.2-1.3l-.9 2.6c2.2 2 3.5 2 4 1.3 1.3-1 1.4-3.3-.3-8.4 3 3 7.9 6.8 11 4.7 3-2 3.3-5.8 3-10.4 3.8 4.7 9.6 9.6 14.7 8.4 5.3-1.2 7.5-5.8 8.2-11.7 3 5.3 8.9 11.4 16.2 10.5 7-1 11-8.8 11.8-11.4.7 2.6 4.8 10.4 11.8 11.3 7.3 1 13.3-5 16.1-10.4.7 5.9 3 10.5 8.2 11.7 5.2 1.2 11-3.7 14.7-8.4-.2 4.6 0 8.3 3.1 10.4 3.1 2.1 8-1.7 11-4.7-1.7 5-1.7 7.3-.4 8.5.6.5 1.8.6 4-1.4l-.9-2.6-1.1 1.3c0-5.4 2.8-10.7 5.6-16 .5-1.2-1.8-1.7-2.5-.8-3.7 7-10.5 14.8-13.7 13.8-2.7-1.3-4-7.6-.2-16.5.4-1.2-2-1.8-2.4-.2-4.5 8.6-10.9 15.5-16.7 14-5.9-1.5-7.2-9.7-6-16.2.4-1.2-2.2-1.7-2.2-.1-.3 4.7-7.8 16.6-16.2 15-8.5-1.5-10.8-10.3-11.3-15.9 0-.5-.4-.8-.9-.8z"/><g id="g102" stroke="#000"><path id="path97" fill="#eac102" fill-rule="evenodd" stroke-width=".3" d="M359.8 156.9s4-.7 6 2.5 7.2 2.8 7.2 2.8l-2.2 7.2L357 164s.9-1.3 2.6-1.2c1.8.1 2.8 2.5 5.5 1.4l-5.3-7.3z"/><path id="path98" fill="#eac102" fill-rule="evenodd" stroke-width=".3" d="M391.6 156.9s-4-.7-6 2.5c-2.1 3.2-7.2 2.8-7.2 2.8l2.2 7.2 13.7-5.4c.1 0-.8-1.3-2.6-1.2-1.7.1-2.7 2.5-5.4 1.4l5.3-7.3z"/><path id="path99" fill="#eac102" fill-rule="evenodd" stroke-width=".3" d="M375.6 138c-2.3 2.7-4.7 5.7-4.9 9.5-1.9-2-3.8-.6-5.7-.2 1 1.3 0 5 1.3 7.4-1.4.1-2 1.4-2.9 2.1.6 2.2 7 2.5 8.2 6.4-7-.7-4.8-6-11.9-6.3-1.1 6 3.4 4.8 3.7 8-2.1.4-2.6-1.8-4.5-1.7-2.6.1-3.8 3-5.4 4 2.5.8 3.5 3.3 6 3.9 1.4.3 2-2.2 4.3-1-2.2 3-4.3 2-3.2 6.4 8 .7 4.7-5 10.1-4.1-8.1 5.1-3.6 7-5.7 11 4.2-1.7 5.7-.5 10.7-4.2 5 3.7 6.5 2.5 10.6 4.2-2-4 2.5-5.9-5.7-11 5.4-.8 2.1 4.8 10.2 4 1-4.2-1-3.3-3.2-6.4 2.2-1.1 2.8 1.4 4.2 1 2.6-.5 3.5-3 6.1-3.7-1.7-1-2.8-4-5.4-4.1-1.9 0-2.4 2.1-4.6 1.7.4-3.2 4.9-2 3.8-8-7.1.4-4.9 5.6-12 6.3 1.2-4 7.7-4.2 8.2-6.4-.8-.7-1.4-2-2.8-2.1 1.3-2.5.3-6 1.2-7.4-1.9-.4-3.8-1.8-5.7.2 0-3.8-2.5-6.8-4.9-9.4z"/><path id="path100" fill="none" stroke-linecap="round" stroke-width=".1" d="M375.7 163.7c-.2-.5 0-21.9 0-21.9m-1.2 29.6c-.7 2.5-3 6.6-5.6 8m2.8-10.3c-2.1 0-6 2.2-7.6 3.2m7.2-4.2c-7.4.7-10.4-2.4-12.7-1.4m13-.8-4-1.2c-1.3-.4-2.1-2.1-3-3m10.1 1.5s0-1.4-1.8-5.4c-1.6-3.9-3.7-6-3.7-6m7.7 19.6c.7 2.5 3 6.6 5.6 8m-2.8-10.3c2 0 6 2.2 7.5 3.2m-7.2-4.2c7.5.7 10.5-2.4 12.8-1.4m-13-.8 3.9-1.2c1.4-.4 2.2-2.1 3-3m-10 1.5s0-1.4 1.7-5.4c1.6-3.9 3.7-6 3.7-6"/><path id="path101" fill="#eac102" fill-rule="evenodd" stroke-linecap="round" stroke-linejoin="round" stroke-width=".3" d="M380.7 167.5c0 2.6-2.2 4.6-4.9 4.6s-4.9-2-4.9-4.6 2.2-4.7 4.9-4.7 4.9 2.1 4.9 4.7z"/><path id="path102" fill="#e3e4e5" fill-rule="evenodd" stroke-linecap="round" stroke-linejoin="round" stroke-width=".3" d="M379.7 167.5c0 2-1.8 3.7-3.9 3.7s-3.9-1.7-3.9-3.7 1.8-3.7 3.9-3.7 3.9 1.6 3.9 3.7z"/></g><path id="path103" fill="#eac102" fill-rule="evenodd" stroke-opacity="0" d="m307.8 193.8-1 2 .7.6.7-2.3-.4-.3zm135.8 0c-.1 0-.2 0-.4.4l.7 2.2.5-.6-.8-2z"/><g id="crown2" stroke="#000"><path id="path104" fill="#eac102" fill-rule="evenodd" stroke-width=".3" d="m311.6 147.3 1.6-.7c4.6-.7 6.9 4.4 7.3 7.2 1.8-.6 4.2-1.2 6.9-.6-.7 2.7-.2 3-1.3 6.6 2.7.5 2.8 1.4 3.5 1.9-3.2 2.5-8 3.3-8.2 6.5l5.2-.9c2.4-2 2.4-5.8 7.4-5.8.5 5.6-2.8 3.9-4 8 3.9.2 12-.4 11.8.8-3.7 2.3-3.4 3-5.3 4.2l-1.2.1c-1.3-.5-2-2.4-4-1.2 0 0 1.1.7 4 1.9 2.9 1 2.4 4 2.4 4-4.2.6-5.9-.4-7.7-1.4 4.9 3.4 3.6 5.5 6.3 8.2h-.7c-5.5.3-8.4-2-12-3.2.5 1.4-2 3.8-2.7 5.3h-.6l-3-7c-.5 1-1 .8-1.6 1l-3.3-8.5c-2.2-.7-1.8-2.2-2-3.6.5 0 .5-.1 1.7.3l-1.5-3.6-.3-2.5c.6.4 1.7.1 1.6 1.5.4 1.5 1 2.7 1.5 4l1.8-5.6-3.3-9.7 1.9-.7c-.8-2.2 2.8-4.7-2.2-6.6z"/><path id="path105" fill="#eac102" fill-rule="evenodd" stroke-linecap="round" stroke-linejoin="round" stroke-width=".3" d="M311.4 147.3c4.8-1.6 7.7 2.8 8 6.4a12 12 0 0 1 7-.4c-1.5 3.1-.1 4.8-1.8 7.1 3 .2 2.3.9 3.9 1.4-4.5 3.7-8.4 3-8.7 7 7.2-2.2 4.3-3.8 7.7-5.7a11 11 0 0 1 5.8-1.5c.5 6-3.4 4-4.5 7.8 3.7-.4 4.2-2.4 6.3-2.7s4.3 2 6.6 3.4c-4.2 1.5-4.6 4.7-6.7 4.5-2-.3-2.2-1.7-4.5-.7 2 1.7 5.5 1.5 6.5 5.2-5 1.6-8.5-2.2-13.5-2.3 12.2 3.2 7.8 6.8 12.2 9.3-3.4-.3-6.1.6-12.3-2.8.1 1.6-2.1 2.9-3.2 5-.6-3.3-4-4.9-3.3-10-1.3.2.7 3.7-1.4 3.8-1.7-1.4-1.9-3.3-1.9-4.7-1-1.2.4 2.1-4-3-.3-.6.3-4 .8-4.3.4.9.7 1.7 1.5 1.7a7.1 7.1 0 0 0-1.4-3.4c-.5-.2-.4-2.5-.2-4 1.6 1.8.5 4.5 3 5-.1-4.5-4.2-3.1-1.9-7.4-.3-2.4-.4-9.7 1.3-6.9-.2-3.8 1.7-6.6-1.3-7.8z"/><path id="path106" fill="none" stroke-linecap="round" stroke-linejoin="round" stroke-width=".1" d="M315.6 169c-2-11.4 1.5-14.8-.9-20.3m7.9 9a15.2 15.2 0 0 0-6 11.3m4.4 3.6c5.8.3 8.5-2.3 14.6-2.5m-15 1c4.7-.6 5.9-3 7.4-5m-6.8 7.6c3.9 0 7.2 1.1 8.9 2.3m-10.6.7c3.8 4.2 6.3 4 9.4 5.7m-10.2-5.8c-.5 3.3.8 5.4 1.2 7m-4.3-7.6a5 5 0 0 0-.8 2.2m-.6-4.2c-1.7.6-1.5-.2-3.5.2m3.5-2.8c-.7 0-1.4-.4-2.1-1.6m2.9-.4c-.6-3-1.2-6-2.8-10.5"/><g id="g109" fill-rule="evenodd" stroke-linecap="round" stroke-linejoin="round" transform="matrix(-.10092 .06497 .06495 .11305 451.3 -22.2)"><path id="path107" fill="#eac102" stroke-width="1.6" d="M1796.3 707a23 23 0 1 1-46 .1 23 23 0 0 1 46 0z" transform="matrix(1.33459 0 0 1.44733 -589.6 -320.2)"/><path id="path108" fill="#eac102" stroke-width="1.6" d="M1796.3 707a23 23 0 1 1-46 .1 23 23 0 0 1 46 0z" transform="matrix(1.30451 0 0 1.44733 -533 -320.2)"/><path id="path109" fill="#e3e4e5" stroke-width="1.8" d="M1796.3 707a23 23 0 1 1-46 .1 23 23 0 0 1 46 0z" transform="matrix(1.15414 0 0 1.25188 -265.6 -182)"/></g></g><use xlink:href="#crown2" id="use109" transform="matrix(-1 0 0 1 751.4 0)"/></g><g id="g166"><path id="path110" fill="#eac102" fill-rule="evenodd" stroke="#000" stroke-width=".3" d="M375.6 190.2c-19.4.2-39.1.2-58.2 4-4.3 1.4-10.4 2-12 6.6-.5 3.8 4.3 5.4 7.3 6.5 14.4 4 29.5 4.4 44.4 5 23.1.5 46.4.7 69.3-2.4 6.3-1.1 13.2-1.8 18.4-5.7 3-3-.3-7-3.7-7.8-11.7-4.2-24.5-4.7-36.8-5.6-9.6-.5-19.1-.6-28.7-.6z"/><path id="path111" fill="#eac102" fill-rule="evenodd" stroke="#000" stroke-width=".3" d="M375.7 194.8a519 519 0 0 0-27.1.6l-4.4.2c-16.7 1-25.7 2.6-30.5 4.2l-1.1.3c-1.8.7-2.8 1.3-3.5 1.8l-.3.2-.3.3-.4.7 3.7 12.7h127.8l3.7-12.7s0-.2-.5-.7l-.2-.3c-.6-.5-1.7-1.2-3.8-2a122 122 0 0 0-31.7-4.5l-4.3-.2c-7.6-.4-16.5-.6-27.1-.6z"/><g id="g129"><rect id="rect111" width="18.1" height="9.2" x="366.6" y="195.9" fill="#eac102" stroke="#000" stroke-width=".3" rx="3.6" ry="3.6"/><rect id="rect112" width="16.3" height="7.9" x="367.5" y="196.6" fill="#ed1c24" stroke="#000" stroke-width=".3" rx="3.3" ry="3.1"/><g id="jewels" stroke="#000"><path id="path112" fill="#eac102" fill-rule="evenodd" stroke-linecap="round" stroke-linejoin="round" stroke-width=".3" d="M345.4 201c0 2.5 2 4.5 4.4 4.5s4.4-2 4.4-4.5-2-4.5-4.4-4.5-4.4 2-4.4 4.5z"/><path id="path113" fill="#eac102" fill-rule="evenodd" stroke-linecap="round" stroke-linejoin="round" stroke-width=".3" d="M345 201c0 2.5 2 4.5 4.3 4.5s4.3-2 4.3-4.5-2-4.5-4.3-4.5-4.3 2-4.3 4.5z"/><path id="path114" fill="#e3e4e5" fill-rule="evenodd" stroke-linecap="round" stroke-linejoin="round" stroke-width=".3" d="M345.4 201c0 2.2 1.7 4 3.8 4s3.8-1.8 3.8-4c0-2.1-1.7-3.9-3.8-3.9s-3.8 1.8-3.8 4z"/><path id="path115" fill="none" stroke-linecap="round" stroke-linejoin="round" stroke-width=".3" d="m336 201.5-7-3.4-.5.1 6.7 3.5.8-.2z"/><path id="path116" fill="none" stroke-linecap="round" stroke-linejoin="round" stroke-width=".3" d="m336 201.5-7 6h-.5l6.7-5.8.8-.2z"/><path id="path117" fill="none" stroke-linecap="round" stroke-linejoin="round" stroke-width=".3" d="m328.5 207.5-6.3-3.3 6.3-6"/><path id="path118" fill="#008f4c" fill-rule="evenodd" stroke-linecap="round" stroke-linejoin="round" stroke-width=".3" d="m333.5 202-5 4.6-5-2.8 5-4.4 5 2.6z"/><path id="path119" fill="none" stroke-linecap="round" stroke-linejoin="round" stroke-width=".2" d="m330 202.7-2.6 2.3-2.6-1.4 2.6-2.3 2.7 1.4z"/><path id="path120" fill="none" stroke-linecap="round" stroke-linejoin="round" stroke-width=".2" d="m328.5 206.5-1-1.4"/><path id="path121" fill="none" stroke-linecap="round" stroke-linejoin="round" stroke-width=".2" d="m323.6 203.8 1.2-.2"/><path id="path122" fill="none" stroke-linecap="round" stroke-linejoin="round" stroke-width=".2" d="m330 202.7 3.4-.6"/><path id="path123" fill="none" stroke-linecap="round" stroke-linejoin="round" stroke-width=".2" d="m327.4 201.3 1-2"/><g id="g125" stroke-width="1.7" transform="matrix(-.15408 .04664 .04916 .14618 594.4 10.2)"><path id="path124" fill="#ed1c24" d="M2069.1 730.7h.6c12.8 0 23.1-12.7 23.1-28.4s-10.3-28.5-23.1-28.5h-.6v56.9z"/><path id="path125" fill="#eac102" d="M2066.3 668.7h6.9v66.6h-6.9a271.3 271.3 0 0 1 0-66.6z"/></g><g id="g128" fill-rule="evenodd" stroke-linecap="round" stroke-linejoin="round" transform="matrix(-.15622 .03971 .04186 .14821 603.8 20.7)"><path id="path126" fill="#eac102" stroke-width="1.7" d="M2030.2 670.6c-6.1 1.8-10.7 15.4-10.7 31.9s4.6 30.1 10.7 31.9h.2l1.1.2h10.8v-18.4a73 73 0 0 0 0-27.4v-18.2h-12.1z"/><path id="path127" fill="#eac102" stroke-width="1.2" d="M2048.4 702.5c0 11.5-1.2 22.1-3.1 27.9-1.8 5.7-4.1 5.7-6 0-1.9-5.8-3.1-16.4-3.1-28 0-11.4 1.2-22 3.1-27.8 1.9-5.7 4.2-5.7 6 0 1.9 5.8 3.1 16.4 3.1 27.9z" transform="matrix(1.97872 0 0 .9941 -1999.4 4.3)"/><path id="path128" fill="#e3e4e5" stroke-width="1.7" d="M2043 674.4c25.1 7.8 23.5 49.7 0 58-16.4-3.5-14.1-57.7 0-58z"/></g></g><use xlink:href="#jewels" id="use128" transform="matrix(-1 0 0 1 751.4 0)"/></g><path id="path129" fill="#eac102" fill-rule="evenodd" stroke="#000" stroke-width=".3" d="M316.7 216.3s12.8-6.1 59-6.1c46 0 59 6.1 59 6.1s-10.8 6.2-59 6.2c-48.3 0-59-6.2-59-6.2z"/><g id="g165" fill="none" stroke="#000"><path id="path130" stroke-width=".1" d="M360.7 223.4v-14.2"/><path id="path131" stroke-width=".2" d="M358 223.4v-14.2"/><path id="path132" stroke-width=".3" d="M355.4 223.4v-14.2"/><path id="path133" stroke-width=".3" d="M352.9 223.4v-14.2"/><path id="path134" stroke-width=".4" d="M350.6 223.4v-14.2"/><path id="path135" stroke-width=".5" d="M346.3 222.7v-13m2 13.2v-13.6"/><path id="path136" stroke-width=".6" d="M342.3 222.1v-12m2 12.3v-12.6"/><path id="path137" stroke-width=".6" d="M337 221.4V211m1.8 10.6v-11m1.8 11.3v-11.4"/><path id="path138" stroke-width=".7" d="M335.1 221.3v-10"/><path id="path139" stroke-width=".8" d="M333.4 220.8v-9.4"/><path id="path140" stroke-width=".8" d="M331.5 220.6v-8.8"/><path id="path141" stroke-width=".9" d="M327.7 219.8v-7m2 7.4v-7.9"/><path id="path142" stroke-width="1" d="M325.7 219.2v-6.1"/><path id="path143" stroke-width="1" d="M324 218.7v-5"/><path id="path144" stroke-width="1.1" d="M322 218v-4"/><path id="path145" stroke-width="1.2" d="M320 217.7v-3"/><path id="path146" stroke-width="1.4" d="M317.8 217v-1.4"/><path id="path147" stroke-width=".1" d="M371.5 222.7v-13m-4.6 13.4v-13.8m-3.4 14v-14"/><path id="path148" stroke-width=".1" d="M390.7 223.4v-14.2"/><path id="path149" stroke-width=".2" d="M393.4 223.4v-14.2"/><path id="path150" stroke-width=".3" d="M396 223.4v-14.2"/><path id="path151" stroke-width=".3" d="M398.5 223.4v-14.2"/><path id="path152" stroke-width=".4" d="M400.8 223.4v-14.2"/><path id="path153" stroke-width=".5" d="m405 222.7.1-13m-2 13.2v-13.6"/><path id="path154" stroke-width=".6" d="M409 222.1v-12m-2 12.3v-12.6"/><path id="path155" stroke-width=".6" d="M414.4 221.4V211m-1.8 10.6v-11m-1.8 11.3v-11.4"/><path id="path156" stroke-width=".7" d="M416.2 221.3v-10"/><path id="path157" stroke-width=".8" d="M418 220.8v-9.4"/><path id="path158" stroke-width=".8" d="M419.9 220.6v-8.8"/><path id="path159" stroke-width=".9" d="M423.7 219.8v-7m-2 7.4v-7.9"/><path id="path160" stroke-width="1" d="M425.6 219.2v-6.1"/><path id="path161" stroke-width="1" d="M427.4 218.7v-5"/><path id="path162" stroke-width="1.1" d="M429.4 218v-4"/><path id="path163" stroke-width="1.2" d="M431.4 217.7v-3"/><path id="path164" stroke-width="1.4" d="M433.6 217v-1.4"/><path id="path165" stroke-width=".1" d="M380 222.7v-13m4.5 13.4v-13.8m3.3 14v-14"/></g><path id="path166" fill="#eac102" fill-rule="evenodd" stroke="#000" stroke-width=".3" d="M375.6 206c-17.9.1-36 .2-53.6 3.8-4 1.1-9.6 1.8-11 6-.6 3.5 3.9 5 6.7 6 13.2 3.7 27.2 4 40.9 4.6 21.3.5 42.7.6 63.9-2.2 5.7-1 12.1-1.7 16.9-5.3 2.8-2.7-.3-6.4-3.5-7.2-10.7-3.9-22.5-4.3-33.9-5.1a506 506 0 0 0-26.4-.6zm0 4.2c46.1 0 59 6.1 59 6.1s-10.8 6.2-59 6.2-58.9-6.2-58.9-6.2 12.8-6.1 59-6.1z"/></g></g></g><path id="path168" fill="#008f4c" fill-rule="evenodd" stroke="#000" stroke-width=".2" d="m357.4 395.1 8.6 3.1 11.2.1 10.2.1 13.4-1.8 8-4.2 4-2.2c1.1-.7.7-1.5.7-1.5s1.3-.4 2.5-1.1 1.7-2 1.7-2 1.3-.6 2.2-1.3c1-.7 1.8-2.5 1.8-2.5s1.6-1 2.3-2c.7-1 .7-3.5.7-3.5l-6-2.8-1.6 3.2s-1.1-1-1.9.5a7 7 0 0 1-2 2.3l-.8-2.5s-1.1 1.5-1.7 2.7-2.4 1.5-2.4 1.5v-3.8s-.6 1.5-1.7 2.8a8.3 8.3 0 0 1-3.2 2l.3-3.6-3.3 2.9c-1 1-3.2.5-3.2.5l2-3.3-3 1c-2.6 1-3 .8-3 .8s-2.3-.7-1.6-1.2l2-2s-2 .2-4.7 0c-2.4 0-4.6-.6-3.1-3 1.3-1.8-7.2 1-7.1-.2s2-2.4-2.6-.8l-4 .6c-6 .4-1.3-3-5-1.9a98 98 0 0 1-6.8 1.6L359 372c-2 .2-5 3.4-7.6 2.8l-5.5 4.2 11.5 16z"/><g id="g588"><path id="path169" fill="#0071bc" fill-rule="evenodd" d="M308 218v98a67.8 67.8 0 0 0 52.1 62.2 67.6 67.6 0 0 0 82.5-72v-88H308z"/><path id="path170" fill="#ed1c24" fill-rule="evenodd" stroke="#000" stroke-width=".3" d="M308.6 218v98a67.8 67.8 0 0 0 52.1 62.2 67.6 67.6 0 0 0 82.5-72v-88H308.6zm22.5 27h89.6v58.7a45 45 0 0 1-55 48 45 45 0 0 1-34.5-41.5c-.2-21.7 0-43.4-.1-65.1z"/><g id="g179" fill="#e3e4e5" fill-rule="evenodd" stroke="#000" stroke-width=".3"><path id="path171" d="M331 218.1v27h31.4v-27H331z"/><path id="path172" d="m389.4 218.1.1 27h31.3v-27h-31.4z"/><path id="path173" d="M443.2 245.1h-22.5v21.6h22.5V245z"/><path id="path174" d="m361.6 378.3 3.8-26.6c7 1.7 15 1.6 21.8-.1l3.6 26.4c-2.4.8-7.5 1.7-13.8 1.8-6.6 0-9.6-.3-15.4-1.6z"/><path id="path175" d="M331 245h-22.4v21.6h22.5V245z"/><path id="path176" d="m415 330.2-1.9 3a37.7 37.7 0 0 1-11.2 11.3l17.6 19.3a68.3 68.3 0 0 0 18-24l-22.6-9.6z"/><path id="path177" d="M443.2 288.4h-22.5V310h22.5v-21.6z"/><path id="path178" d="M336.8 330a45.9 45.9 0 0 0 12.7 14.3l-17.3 19.2a68.3 68.3 0 0 1-18-24l22.6-9.6z"/><path id="path179" d="M331 288.4h-22.4V310H331v-21.6z"/></g><path id="path180" fill="none" stroke="#000" stroke-width=".8" d="m308.3 218 .1 97.8c1 29.2 23.4 56 52 62.1a67.6 67.6 0 0 0 82.5-72v-88H308.3z"/><g id="snakes"><ellipse id="ellipse180" cx="235.8" cy="170.3" fill="#eac102" stroke="#231f20" stroke-width="1.2" rx="92.6" ry="19.4" transform="matrix(.2411 0 0 .22303 318.3 236)"/><path id="path181" fill="#eac102" stroke="#231f20" stroke-width=".3" d="M353.6 273.3c0 .5-.4.8-.8.8s-.7-.3-.7-.8v-2c0-.4.3-.7.7-.7.4 0 .7.3.7.7v2z"/><path id="path182" fill="#eac102" stroke="#231f20" stroke-width=".3" d="M397.7 271.6c-.6 0-1.2-.6-1.2-1.2 0-10.8-9.6-19.5-21.3-19.5-11.8 0-21.3 8.8-21.3 19.7 0 .5-.5 1-1.1 1-.6 0-2.9-1-2.9-1 0 1.4 1.3 2.6 2.9 2.6 1.6 0 2.8-1.2 2.8-2.6 0-10 8.8-18.2 19.6-18.2s19.5 8 19.6 18v.2c0 1.4 1.3 2.5 2.9 2.5 1.5 0 2.8-1.2 2.8-2.7 0 0-2.2 1.2-2.8 1.2z"/><path id="path183" fill="#eac102" stroke="#231f20" stroke-width=".3" d="M398.5 273.6c0 .4-.3.8-.7.8-.4 0-.7-.4-.7-.8v-2c0-.4.3-.8.7-.8.4 0 .7.4.7.8v2z"/><path id="path184" fill="#eac102" stroke="#010101" stroke-width=".3" d="M353.1 274.6c1.7-2 11-3.7 22-3.7 11.3 0 20.6 1.7 22.2 3.8"/><path id="path185" fill="#eac102" stroke="#010101" stroke-width=".3" d="M354.2 275.3a56.5 56.5 0 0 1 21-2.8c9.8 0 18.1 1.2 21.1 2.9"/><path id="path186" fill="#eac102" stroke="#010101" stroke-width=".3" d="M355.9 276.1c3.9-1.2 11-2.1 19.3-2.1 8.2 0 15.4.9 19.3 2.1"/><path id="path187" fill="#eac102" stroke="#010101" stroke-width=".3" d="M358.8 276.9a82 82 0 0 1 16.4-1.4c6.4 0 12.3.5 16.3 1.4"/><path id="path188" fill="#eac102" stroke="#010101" stroke-width=".3" d="M363.5 277.7a100.4 100.4 0 0 1 23.3 0"/><path id="path189" fill="#008f4c" fill-rule="evenodd" stroke="#000" stroke-width=".3" d="m354.8 254.4-2.6.3-1.2.2h1.4l-1.2.6 1.1-.3 1.5-.4 2-.3-.2-.8-.8.7z"/><path id="path190" fill="#008f4c" fill-rule="evenodd" stroke="#000" stroke-width=".3" d="M356 268.7c-1.2-.4-1.3-3 0-3.4 3.4-.8 4.1-3.8 4.2-7.1-.1-2.7-1-5-2.7-6.3-1-.4-2.1-.4-3.1 0l-1.6 1.7.2.8 1.2-.1h1v.5l-1.4.2-.4.5c1.1.3 2.2.2 3.3 0a4.3 4.3 0 0 1 .3 6l-2.3 1.3c-1.3 1-1.6 2-1.7 4.2.2 2.7 1 3.7 1.8 4.4.1 9.8 5 4.6 1.3-2.7z"/><path id="path191" fill="#008f4c" fill-rule="evenodd" stroke="#000" stroke-width=".3" d="M356 253c0 .1-.2.3-.5.3s-.6-.1-.6-.3c0-.2.2-.3.6-.3.3 0 .5 0 .6.3z"/><path id="path192" fill="#008f4c" fill-rule="evenodd" stroke="#000" stroke-width=".3" d="m346 256-2 1.4-1 .6 1.3-.5-.7 1 .8-.8 1-1 1.5-1-.7-.7-.3 1z"/><path id="path193" fill="#008f4c" fill-rule="evenodd" stroke="#000" stroke-width=".3" d="M354 264.7c2.5-2.2 1.1-5-1-7.9a11 11 0 0 0-6.4-4.2c-1.2.2-2 .6-2.6 1.4l-.3 2.1.8.6 1-.6.8-.4.2.4-1 .7v.7c1.1-.3 2-.8 2.9-1.4 2.2.5 4.2 2.7 4.1 5l-1.1 2c-.5 1.5 0 2.4 1.2 4.3 2 2.3 3.3 2.8 4.5 3-.4.8-.1-.1-3-5.7z"/><path id="path194" fill="#008f4c" fill-rule="evenodd" stroke="#000" stroke-width=".3" d="M346 254.2c.2.1 0 .4-.2.5h-.7c0-.1 0-.4.3-.5.3-.2.6-.2.7 0z"/><path id="path195" fill="#008f4c" fill-rule="evenodd" stroke="#000" stroke-width=".3" d="m343.7 262.3-1.4 1.8-.7.8 1-.7-.3 1 .5-.8.6-1.3 1-1.3-.8-.4v.9z"/><path id="path196" fill="#008f4c" fill-rule="evenodd" stroke="#000" stroke-width=".3" d="M357.6 271.1c-1.2.5-3.5-1.1-3.1-2.2 1.5-2.6-.7-5-3.8-7.3a12.5 12.5 0 0 0-7.5-2.6c-1 .4-1.8 1-2 2l.4 2 1 .4.6-.8.8-.6.3.3-.7 1 .2.6c1-.5 1.7-1.2 2.3-2 2.3 0 5 1.6 5.6 3.9l-.4 2.1c0 1.6.8 2.4 2.7 3.9-.2 0 2.3-.2 3.6-.7z"/><path id="path197" fill="#008f4c" fill-rule="evenodd" stroke="#000" stroke-width=".3" d="M343.2 260.6c.2 0 .2.3 0 .5s-.5.3-.7.2c-.2-.1-.1-.4 0-.6.3-.2.6-.2.7-.1z"/><path id="path198" fill="#008f4c" fill-rule="evenodd" stroke="#000" stroke-width=".3" d="m343.9 268.4-1 2-.4.8.8-.9v1.2l.2-1 .4-1.3.7-1.5-1-.2.3.9z"/><path id="path199" fill="#008f4c" fill-rule="evenodd" stroke="#000" stroke-width=".3" d="M359.6 274.9c-1 .6-3.7-.6-3.5-1.7.9-2.8-2-4.9-5.4-6.6a13.2 13.2 0 0 0-8-1.4c-1 .5-1.5 1.3-1.6 2.2l1 2 1 .2.4-.9.6-.7.4.3-.5 1 .4.6a5 5 0 0 0 1.8-2.3c2.3-.3 5.2.8 6.4 3l.1 2.1c.4 1.5 1.3 2.2 3.5 3.4 3 1.3 4.5 1.3 5.6 1-2.9-.9-2.3-2-2.2-2.2z"/><path id="path200" fill="#008f4c" fill-rule="evenodd" stroke="#000" stroke-width=".3" d="M343 266.8c.3 0 .3.3.1.5-.1.2-.4.3-.6.3-.2-.1-.2-.4 0-.6.1-.2.4-.3.6-.2z"/><path id="path201" fill="#008f4c" fill-rule="evenodd" stroke="#000" stroke-width=".3" d="m361.1 264.2 2.5 1 1 .3-1.3-.2 1 .8-1-.5-1.4-.8-1.8-.6.4-.8.6.8z"/><path id="path202" fill="#008f4c" fill-rule="evenodd" stroke="#000" stroke-width=".3" d="M356.7 278c1.3-.2 2-2.6.8-3.3-3.1-1.5-3.2-4.6-2.5-7.9.7-2.6 2.1-4.7 4-5.6 1.1-.2 2.2 0 3 .7l1.2 2-.4.7-1.1-.3-1-.2v.4l1.2.5.3.6c-1.1 0-2.2-.2-3.2-.6a4.4 4.4 0 0 0-1.6 5.8l1.9 1.6c1.1 1.4 1.1 2.4.8 4.5-.8 2.7-1.8 3.5-2.8 4 .2.6-1-2-.6-3z"/><path id="path203" fill="#008f4c" fill-rule="evenodd" stroke="#000" stroke-width=".3" d="M360.2 262.6c0 .1.1.3.5.4.3 0 .5 0 .6-.2 0-.1-.2-.3-.5-.4-.3 0-.6 0-.6.2z"/><path id="path204" fill="#008f4c" fill-rule="evenodd" stroke="#000" stroke-width=".3" d="m369.4 267.5 1.6 1.8.8.8-1.1-.7.4 1-.6-.8-.8-1.2-1.2-1.4.9-.4v1z"/><path id="path205" fill="#008f4c" fill-rule="evenodd" stroke="#000" stroke-width=".3" d="M356.7 276.7c1.2.5 3.3-1.2 2.8-2.2-1.8-2.6.1-5.2 2.8-7.5 2.3-1.9 5-2.9 7.2-2.8 1.1.3 1.8 1 2.2 1.9l-.2 2.1-.8.4-.8-.8-.8-.5-.3.3.8 1-.1.6c-1-.5-1.8-1.2-2.5-2-2.3 0-4.7 1.8-5.2 4l.7 2.2c.1 1.6-.5 2.4-2.1 4-2.5 1.8-3.9 2-5 2l1.3-2.7z"/><path id="path206" fill="#008f4c" fill-rule="evenodd" stroke="#000" stroke-width=".3" d="M369.6 265.8c-.1.1 0 .4.2.6.2.2.5.2.7.1.1-.1 0-.4-.2-.6a.6.6 0 0 0-.7-.1z"/><path id="path207" fill="#008f4c" fill-rule="evenodd" stroke="#000" stroke-width=".3" d="m370.2 274.2 1 2.1.5 1-.9-1 .1 1.1-.3-1-.4-1.3-.7-1.5 1-.3-.3 1z"/><path id="path208" fill="#008f4c" fill-rule="evenodd" stroke="#000" stroke-width=".3" d="M358.2 278.5c-1-2.9 1.8-4.8 5.3-6.4 2.8-1.2 5.7-1.6 8-1 .9.6 1.4 1.3 1.5 2.3l-1 2-1 .1-.4-.9-.6-.7-.4.2.5 1.1-.4.6a6.2 6.2 0 0 1-1.7-2.4c-2.3-.5-5.2.5-6.4 2.6l-.1 2.2c-3.1.9 1.2 3.3-3.3.3z"/><path id="path209" fill="#008f4c" fill-rule="evenodd" stroke="#000" stroke-width=".3" d="M371 272.6c-.2.1-.2.4 0 .6.1.2.4.4.6.3.2 0 .2-.3 0-.6-.1-.2-.4-.3-.6-.3z"/><path id="path210" fill="#008f4c" fill-rule="evenodd" stroke="#000" stroke-width=".3" d="m396.2 254.4 2.6.3 1.2.2h-1.4l1.2.6-1.1-.3-1.6-.4-1.9-.3.2-.8.8.7z"/><path id="path211" fill="#008f4c" fill-rule="evenodd" stroke="#000" stroke-width=".3" d="M395 268.7c1.2-.4 1.3-3 0-3.4-3.4-.8-4.2-3.8-4.2-7.1.1-2.7 1-5 2.7-6.3 1-.4 2.1-.4 3.1 0l1.6 1.7-.2.8-1.2-.1h-1v.5l1.4.2.4.5c-1.1.3-2.2.2-3.3 0a4.4 4.4 0 0 0-.3 6l2.2 1.3c1.4 1 1.7 2 1.8 4.2-.2 2.7-1 3.7-1.9 4.4 0 9.8-4.8 4.6-1.2-2.7z"/><path id="path212" fill="#008f4c" fill-rule="evenodd" stroke="#000" stroke-width=".3" d="M395 253c0 .1.2.3.5.3s.6-.1.6-.3c0-.2-.3-.3-.6-.3s-.6 0-.6.3z"/><path id="path213" fill="#008f4c" fill-rule="evenodd" stroke="#000" stroke-width=".3" d="m405 256 2 1.4 1 .6-1.3-.5.7 1-.8-.8-1-1-1.5-1 .7-.7.3 1z"/><path id="path214" fill="#008f4c" fill-rule="evenodd" stroke="#000" stroke-width=".3" d="M396.9 264.7c-2.4-2.2-1-5 1.1-7.9a11 11 0 0 1 6.4-4.2c1.2.2 2 .6 2.6 1.4l.2 2.1-.7.6-1-.6-.9-.4-.2.4 1 .7v.7c-1-.3-2-.8-2.8-1.4-2.2.5-4.2 2.7-4.1 5l1.1 2c.5 1.5 0 2.4-1.2 4.3-2 2.3-3.3 2.8-4.5 3 .4.8.1-.1 3-5.7z"/><path id="path215" fill="#008f4c" fill-rule="evenodd" stroke="#000" stroke-width=".3" d="M404.9 254.2c-.1.1 0 .4.3.5h.6c.2-.1 0-.4-.2-.5-.3-.2-.6-.2-.7 0z"/><path id="path216" fill="#008f4c" fill-rule="evenodd" stroke="#000" stroke-width=".3" d="m407.3 262.3 1.4 1.8.7.8-1-.7.3 1-.5-.8-.7-1.3-1-1.3.9-.4v.9z"/><path id="path217" fill="#008f4c" fill-rule="evenodd" stroke="#000" stroke-width=".3" d="M393.4 271.1c1.2.5 3.5-1.1 3.1-2.2-1.6-2.6.7-5 3.7-7.3 2.6-1.8 5.3-2.8 7.6-2.6 1 .4 1.7 1 2 2l-.4 2-1 .4-.7-.8-.7-.6-.3.3.7 1-.2.6c-1-.5-1.7-1.2-2.3-2-2.3 0-5 1.6-5.6 3.9l.4 2.1c-.1 1.6-.8 2.4-2.7 3.9.2 0-2.4-.2-3.6-.7z"/><path id="path218" fill="#008f4c" fill-rule="evenodd" stroke="#000" stroke-width=".3" d="M407.8 260.6c-.2 0-.2.3 0 .5s.5.3.7.2c.2-.1.1-.4 0-.6-.3-.2-.6-.2-.8-.1z"/><path id="path219" fill="#008f4c" fill-rule="evenodd" stroke="#000" stroke-width=".3" d="m407.1 268.4 1 2 .4.8-.8-.9v1.2l-.2-1-.4-1.3-.7-1.5 1-.2-.3.9z"/><path id="path220" fill="#008f4c" fill-rule="evenodd" stroke="#000" stroke-width=".3" d="M391.4 274.9c1 .6 3.7-.6 3.5-1.7-.9-2.8 2-4.9 5.4-6.6 2.9-1.4 5.8-1.9 8-1.4 1 .5 1.5 1.3 1.6 2.2l-1 2-1 .2-.5-.9-.6-.7-.3.3.5 1-.4.6a5.7 5.7 0 0 1-1.8-2.3c-2.3-.3-5.2.8-6.4 3l-.1 2.1c-.5 1.5-1.3 2.2-3.5 3.4-3 1.3-4.5 1.3-5.7 1 3-.9 2.4-2 2.3-2.2z"/><path id="path221" fill="#008f4c" fill-rule="evenodd" stroke="#000" stroke-width=".3" d="M408 266.8c-.3 0-.3.3-.1.5.1.2.4.3.6.3.2-.1.2-.4 0-.6-.1-.2-.4-.3-.6-.2z"/><path id="path222" fill="#008f4c" fill-rule="evenodd" stroke="#000" stroke-width=".3" d="m389.9 264.2-2.5 1-1.1.3 1.4-.2-1.1.8 1-.5 1.5-.8 1.8-.6-.4-.8-.6.8z"/><path id="path223" fill="#008f4c" fill-rule="evenodd" stroke="#000" stroke-width=".3" d="M394.3 278c-1.3-.2-2-2.6-.9-3.3 3.2-1.5 3.3-4.6 2.6-7.9-.7-2.6-2.1-4.7-4-5.6-1.2-.2-2.2 0-3 .7l-1.2 2 .4.7 1.1-.3 1-.2v.4l-1.2.5-.3.6c1.1 0 2.2-.2 3.2-.6 1.9 1 2.7 3.6 1.6 5.8l-1.9 1.6c-1.1 1.4-1.1 2.4-.8 4.5.8 2.7 1.7 3.5 2.8 4-.2.6 1-2 .6-3z"/><path id="path224" fill="#008f4c" fill-rule="evenodd" stroke="#000" stroke-width=".3" d="M390.8 262.6c0 .1-.2.3-.5.4-.3 0-.6 0-.6-.2 0-.1.2-.3.5-.4.3 0 .6 0 .6.2z"/><path id="path225" fill="#008f4c" fill-rule="evenodd" stroke="#000" stroke-width=".3" d="m381.6 267.5-1.6 1.8-.8.8 1.1-.7-.4 1 .6-.8.8-1.2 1.1-1.4-.8-.4v1z"/><path id="path226" fill="#008f4c" fill-rule="evenodd" stroke="#000" stroke-width=".3" d="M394.3 276.7c-1.3.5-3.3-1.2-2.8-2.2 1.8-2.6-.1-5.2-2.8-7.5-2.3-1.9-5-2.9-7.2-2.8a3 3 0 0 0-2.2 1.9l.2 2.1.8.4.8-.8.8-.5.3.3-.8 1 .1.6c1-.5 1.8-1.2 2.5-2 2.3 0 4.7 1.8 5.1 4l-.6 2.2c-.1 1.6.5 2.4 2.1 4 2.5 1.8 3.8 2 5 2l-1.3-2.7z"/><path id="path227" fill="#008f4c" fill-rule="evenodd" stroke="#000" stroke-width=".3" d="M381.4 265.8c.1.1 0 .4-.2.6-.2.2-.5.2-.7.1-.1-.1 0-.4.2-.6.2-.2.5-.2.7-.1z"/><path id="path228" fill="#008f4c" fill-rule="evenodd" stroke="#000" stroke-width=".3" d="m380.8 274.2-1 2.1-.5 1 .8-1v1.1l.3-1 .3-1.3.7-1.5-.9-.3.3 1z"/><path id="path229" fill="#008f4c" fill-rule="evenodd" stroke="#000" stroke-width=".3" d="M392.8 278.5c1-2.9-1.8-4.8-5.3-6.4a12.7 12.7 0 0 0-8-1c-.9.6-1.4 1.3-1.5 2.3l1 2 .9.1.5-.9.6-.7.4.2-.5 1.1.4.6c.8-.7 1.3-1.5 1.7-2.4 2.3-.5 5.2.5 6.4 2.6v2.2c3.2.9-1 3.3 3.4.3z"/><path id="path230" fill="#008f4c" fill-rule="evenodd" stroke="#000" stroke-width=".3" d="M380 272.6c.2.1.2.4 0 .6-.1.2-.4.4-.6.3-.2 0-.2-.3 0-.6.1-.2.4-.3.6-.3z"/><path id="path231" fill="#eac102" stroke="#231f20" stroke-width=".3" d="M352.2 273.1c0 11.8 10.3 21.4 23.1 21.4s23.2-9.5 23.2-21.4h-1.1l.1.4c0 2.4-10 4.4-22.3 4.4s-22.3-2-22.3-4.4v-.4h-.7z"/><path id="path232" fill="#ed1c24" stroke="#000" stroke-width=".3" d="M352.3 273.3c0 2 .3 3.8.8 5.6l3.8 2.3c0 .1.2 4.9 0 5l1.2 1.3 6.2 1.4v3c2.4 1.2 5.1 2 8 2.4v-4.5l7.6-.2-.2 4.5c2.9-.5 5.5-1.5 8-2.9 0-1.2-.2-2.3-.2-2.3l4.5-1c1-1 2-2.2 2.8-3.4 0-1.7.2-3.1.2-3.1s1.5-.4 2.1-1.4c.7-2 1.3-4 1.3-6.3h-.4l-.5.3c-.7.8-.8 1-2.6 1.7v5.7l-7.3 1.6v-5.8c-2.3.3-5 .5-7.9.6v5.8h-7.5v-5.7a91 91 0 0 1-7.9-.6v5.5l-7.4-1.6V276c-2.3-.7-3.7-1.5-3.7-2.4v-.3h-.9zm12.2 9.5v.2l7.6.8v6-.2l-7.6-.7v-6zm23 .2v5.8l-7.6.8v-5.8l7.6-.8z"/></g><use xlink:href="#snakes" id="use232" transform="translate(0 50.4)"/><g id="g587"><g id="castle" stroke="#000"><g id="g241" fill="#eac102" fill-rule="evenodd" stroke-linecap="round" stroke-linejoin="round" transform="matrix(.09 0 0 .08124 300.3 197.5)"><path id="path233" d="M278.5 337.1v65.3l-9.8-8.3v-59.4l9.8 2.4z"/><path id="path234" d="m273.8 336.4 4.8 3 5.4-5-5.5-3.2-4.7 5.2z"/><path id="path235" d="m278.4 320.6 5.6 4v9.7l-5.6-3v-10.7z"/><path id="path236" d="M245.5 337.1v65.3l10-8.6v-59.4l-10 2.7z"/><path id="path237" d="m250.2 336.4-4.8 3-5.4-5 5.5-3.2 4.7 5.2z"/><path id="path238" d="m245.5 320.6-5.5 4v9.7l5.5-3v-10.7z"/><path id="path239" d="m245.4 331.1 4.5 5.3H274l4.4-5.3h-33z"/><path id="path240" d="M245.5 320.6h6.2v4.9h7v-4.9h6.4v4.9h6.9v-4.9h6.4v10.5h-32.9v-10.5z"/><path id="path241" d="M250 336.4v62h24v-62h-24zm12 11c2.7.1 5.2 1.3 5.3 6.7v15.3h-10.5s-.2-10.4-.1-15.5c0-5 2.7-6.5 5.3-6.5z"/></g><path id="path242" fill="#eac102" fill-rule="evenodd" stroke-linecap="round" stroke-linejoin="round" stroke-width=".1" d="M321.7 223.2v7l-.9-.6v-6.5l.9.1z"/><path id="path243" fill="#eac102" fill-rule="evenodd" stroke-linecap="round" stroke-linejoin="round" stroke-width=".1" d="m321.3 223.2.4.2.5-.4-.5-.2-.4.4z"/><path id="path244" fill="#eac102" fill-rule="evenodd" stroke-linecap="round" stroke-linejoin="round" stroke-width=".1" d="m321.7 221.9.5.3v.8l-.5-.3v-.8z"/><path id="path245" fill="#eac102" fill-rule="evenodd" stroke-linecap="round" stroke-linejoin="round" stroke-width=".1" d="M318.7 223.2v7l.8-.6v-6.5l-.8.1z"/><path id="path246" fill="#eac102" fill-rule="evenodd" stroke-linecap="round" stroke-linejoin="round" stroke-width=".1" d="m319.1 223.2-.4.2-.5-.4.5-.2.4.4z"/><path id="path247" fill="#eac102" fill-rule="evenodd" stroke-linecap="round" stroke-linejoin="round" stroke-width=".1" d="m318.7 221.9-.5.3v.8l.5-.3v-.8z"/><path id="path248" fill="#eac102" fill-rule="evenodd" stroke-linecap="round" stroke-linejoin="round" stroke-width=".1" d="m318.7 222.7.4.5h2.2l.4-.5h-3z"/><path id="path249" fill="#eac102" fill-rule="evenodd" stroke-linecap="round" stroke-linejoin="round" stroke-width=".1" d="M318.7 221.9h.6v.4h.6v-.4h.6v.4h.6v-.4h.6v.8h-3v-.8z"/><path id="path250" fill="#eac102" fill-rule="evenodd" stroke-linecap="round" stroke-linejoin="round" stroke-width=".1" d="M319.1 223.2v6.8h2.2v-6.8H319zm1 .9c.3 0 .5 0 .6.5v1.3h-1v-1.3c0-.4.2-.5.5-.5z"/><g id="g259" fill="#eac102" fill-rule="evenodd" stroke-linecap="round" stroke-linejoin="round" transform="matrix(.09 0 0 .08124 292.9 197.5)"><path id="path251" d="M278.5 337.1v65.3l-9.8-8.3v-59.4l9.8 2.4z"/><path id="path252" d="m273.8 336.4 4.8 3 5.4-5-5.5-3.2-4.7 5.2z"/><path id="path253" d="m278.4 320.6 5.6 4v9.7l-5.6-3v-10.7z"/><path id="path254" d="M245.5 337.1v65.3l10-8.6v-59.4l-10 2.7z"/><path id="path255" d="m250.2 336.4-4.8 3-5.4-5 5.5-3.2 4.7 5.2z"/><path id="path256" d="m245.5 320.6-5.5 4v9.7l5.5-3v-10.7z"/><path id="path257" d="m245.4 331.1 4.5 5.3H274l4.4-5.3h-33z"/><path id="path258" d="M245.5 320.6h6.2v4.9h7v-4.9h6.4v4.9h6.9v-4.9h6.4v10.5h-32.9v-10.5z"/><path id="path259" d="M250 336.4v62h24v-62h-24zm12 11c2.7.1 5.2 1.3 5.3 6.7v15.3h-10.5s-.2-10.4-.1-15.5c0-5 2.7-6.5 5.3-6.5z"/></g><g id="g292" stroke-linecap="round" stroke-linejoin="round" transform="matrix(.09 0 0 .08124 300.3 197.5)"><path id="path260" fill="none" d="m232.7 361.2 4.5 2.8"/><path id="path261" fill="none" d="m232.7 352.1 4.5 2.9"/><path id="path262" fill="none" d="m232.7 343 4.5 3"/><path id="path263" fill="none" d="m232.7 334 4.5 2.9"/><path id="path264" fill="none" d="m232.7 325 4.5 2.8"/><path id="path265" fill="none" d="m208.7 361.2-4.5 2.8"/><path id="path266" fill="none" d="m208.7 352.1-4.5 2.9"/><path id="path267" fill="none" d="m208.7 343-4.5 3"/><path id="path268" fill="none" d="m208.7 334-4.5 2.9"/><path id="path269" fill="none" d="m208.7 325-4.5 2.8"/><path id="path270" fill="#eac102" fill-rule="evenodd" d="M220.5 351.8v-3"/><path id="path271" fill="#eac102" fill-rule="evenodd" d="M208.7 325.1h23.7"/><path id="path272" fill="#eac102" fill-rule="evenodd" d="M226.5 334h5.7"/><path id="path273" fill="#eac102" fill-rule="evenodd" d="M226.2 343.3h5.9"/><path id="path274" fill="#eac102" fill-rule="evenodd" d="M208.7 352h23.8"/><path id="path275" fill="#eac102" fill-rule="evenodd" d="M208.7 361.2h23.8"/><path id="path276" fill="#eac102" fill-rule="evenodd" d="M220.7 369.4v-7.9"/><path id="path277" fill="#eac102" fill-rule="evenodd" d="M216.7 361v-8.8"/><path id="path278" fill="#eac102" fill-rule="evenodd" d="M225.5 361v-8.8"/><path id="path279" fill="#eac102" fill-rule="evenodd" d="M216.7 324.7v-9"/><path id="path280" fill="#eac102" fill-rule="evenodd" d="m225.3 324.6.2-9"/><path id="path281" fill="none" d="m232.7 370 4.5 2.8"/><path id="path282" fill="none" d="m208.7 370-4.5 2.8"/><path id="path283" fill="#eac102" fill-rule="evenodd" d="M208.7 369.7h23.8"/><path id="path284" fill="none" d="m232.7 379.2 4.5 2.8"/><path id="path285" fill="none" d="m208.7 379.2-4.5 2.8"/><path id="path286" fill="#eac102" fill-rule="evenodd" d="M208.7 379.2h23.8"/><path id="path287" fill="#eac102" fill-rule="evenodd" d="M216.7 379v-8.8"/><path id="path288" fill="#eac102" fill-rule="evenodd" d="M225.5 379v-8.8"/><path id="path289" fill="#eac102" fill-rule="evenodd" d="M220.7 398.6v-19"/><path id="path290" fill="#eac102" fill-rule="evenodd" d="M209.2 334h5.8"/><path id="path291" fill="#eac102" fill-rule="evenodd" d="M209.1 343.3h5.9"/><path id="path292" fill="#eac102" fill-rule="evenodd" d="M220.5 326.5v-1.4"/></g><g id="g316" stroke-linecap="round" stroke-linejoin="round" transform="matrix(.09 0 0 .08124 300.3 197.5)"><path id="path293" fill="none" d="m274 382 4.5 2.9"/><path id="path294" fill="none" d="m274 373 4.5 2.8"/><path id="path295" fill="none" d="m274 364 4.5 2.8"/><path id="path296" fill="none" d="m274 354.9 4.5 2.8"/><path id="path297" fill="none" d="m274 345.8 4.5 2.9"/><path id="path298" fill="none" d="m250 382-4.5 2.9"/><path id="path299" fill="none" d="m250 373-4.5 2.8"/><path id="path300" fill="none" d="m250 364-4.5 2.8"/><path id="path301" fill="none" d="m250 354.9-4.5 2.8"/><path id="path302" fill="none" d="m250 345.8-4.5 2.9"/><path id="path303" fill="#eac102" fill-rule="evenodd" d="M261.8 372.3v-2.7"/><path id="path304" fill="#eac102" fill-rule="evenodd" d="M250 346h23.7"/><path id="path305" fill="#eac102" fill-rule="evenodd" d="M267.4 354.9h5.9"/><path id="path306" fill="#eac102" fill-rule="evenodd" d="M267.7 364.2h5.6"/><path id="path307" fill="#eac102" fill-rule="evenodd" d="M250 372.8h23.7"/><path id="path308" fill="#eac102" fill-rule="evenodd" d="M250 382h23.7"/><path id="path309" fill="#eac102" fill-rule="evenodd" d="M261.8 398v-15.8"/><path id="path310" fill="#eac102" fill-rule="evenodd" d="M258 381.8V373"/><path id="path311" fill="#eac102" fill-rule="evenodd" d="M266.8 381.9V373"/><path id="path312" fill="#eac102" fill-rule="evenodd" d="M258 346v-9.5"/><path id="path313" fill="#eac102" fill-rule="evenodd" d="m266.6 346 .2-9.5"/><path id="path314" fill="#eac102" fill-rule="evenodd" d="M250.5 354.9h5.8"/><path id="path315" fill="#eac102" fill-rule="evenodd" d="M250.4 364.2h5.5"/><path id="path316" fill="#eac102" fill-rule="evenodd" d="M261.8 347.3v-1.1"/></g><g id="g340" stroke-linecap="round" stroke-linejoin="round" transform="matrix(.09 0 0 .08124 292.9 197.5)"><path id="path317" fill="none" d="m274 382 4.5 2.9"/><path id="path318" fill="none" d="m274 373 4.5 2.8"/><path id="path319" fill="none" d="m274 364 4.5 2.8"/><path id="path320" fill="none" d="m274 354.9 4.5 2.8"/><path id="path321" fill="none" d="m274 345.8 4.5 2.9"/><path id="path322" fill="none" d="m250 382-4.5 2.9"/><path id="path323" fill="none" d="m250 373-4.5 2.8"/><path id="path324" fill="none" d="m250 364-4.5 2.8"/><path id="path325" fill="none" d="m250 354.9-4.5 2.8"/><path id="path326" fill="none" d="m250 345.8-4.5 2.9"/><path id="path327" fill="#eac102" fill-rule="evenodd" d="M261.8 372.3v-2.7"/><path id="path328" fill="#eac102" fill-rule="evenodd" d="M250 346h23.7"/><path id="path329" fill="#eac102" fill-rule="evenodd" stroke-width="1" d="M267.4 354.9h5.9"/><path id="path330" fill="#eac102" fill-rule="evenodd" d="M267.7 364.2h5.6"/><path id="path331" fill="#eac102" fill-rule="evenodd" d="M250 372.8h23.7"/><path id="path332" fill="#eac102" fill-rule="evenodd" d="M250 382h23.7"/><path id="path333" fill="#eac102" fill-rule="evenodd" d="M261.8 398v-15.8"/><path id="path334" fill="#eac102" fill-rule="evenodd" d="M258 381.8V373"/><path id="path335" fill="#eac102" fill-rule="evenodd" d="M266.8 381.9V373"/><path id="path336" fill="#eac102" fill-rule="evenodd" d="M258 346v-9.5"/><path id="path337" fill="#eac102" fill-rule="evenodd" d="m266.6 346 .2-9.5"/><path id="path338" fill="#eac102" fill-rule="evenodd" stroke-width="1" d="M250.5 354.9h5.8"/><path id="path339" fill="#eac102" fill-rule="evenodd" d="M250.4 364.2h5.5"/><path id="path340" fill="#eac102" fill-rule="evenodd" d="M261.8 347.3v-1.1"/></g><path id="path341" fill="#0071bc" fill-rule="evenodd" stroke-linecap="round" stroke-linejoin="round" stroke-width=".1" d="M317.1 234.7v-2c0-.6.3-.8.6-.8.4 0 .7.2.7.8v2H317z"/><path id="path342" fill="#0071bc" fill-rule="evenodd" stroke-linecap="round" stroke-linejoin="round" stroke-width=".1" d="M322 234.7v-2c0-.7.3-.9.6-.8.3 0 .6.1.7.8v2H322z"/><path id="path343" fill="#0071bc" fill-rule="evenodd" stroke-linecap="round" stroke-linejoin="round" stroke-width=".1" d="M316 227.5v-1.2c0-.4.2-.6.5-.5.2 0 .4 0 .4.5v1.2h-.9z"/><path id="path344" fill="#0071bc" fill-rule="evenodd" stroke-linecap="round" stroke-linejoin="round" stroke-width=".1" d="M323.4 227.5v-1.2c0-.4.3-.5.5-.5s.5 0 .5.5v1.2h-1z"/><path id="path345" fill="#0071bc" fill-rule="evenodd" stroke-linecap="round" stroke-linejoin="round" stroke-width=".1" d="M319.7 225.8v-1.2c0-.4.2-.5.5-.5.2 0 .4 0 .5.5v1.3h-1z"/><path id="path346" fill="#eac102" fill-rule="evenodd" stroke-linecap="round" stroke-linejoin="round" stroke-width=".1" d="m315.8 229.8-2 .5.6.5v6l-1 .9v2l2.2 1h3.7V238l.2-.2v-.2a.7.7 0 0 1 .4-.2h.6a.7.7 0 0 1 .4.4v.2l.2.6v2.1h3.7l2-1v-2l-.9-.9v-6l.6-.5-2-.5h-8.7zm1.9 2s0 0 0 0c.4 0 .7.2.7 1v1.9H317v-2c0-.6.3-.8.6-.8zm4.9 0s0 0 0 0c.3 0 .6.2.6 1v1.9H322v-2c0-.6.3-.8.6-.8z"/><path id="path347" fill="none" stroke-linecap="round" stroke-linejoin="round" stroke-width=".1" d="m313.5 237.7 2.1 1v2"/><path id="path348" fill="none" stroke-linecap="round" stroke-linejoin="round" stroke-width=".1" d="m314.4 236.8 2.1.6m-.9 1.4 1-1.4"/><path id="path349" fill="none" stroke-linecap="round" stroke-linejoin="round" stroke-width=".1" d="M316.5 237.3v-6.9"/><path id="path350" fill="none" stroke-linecap="round" stroke-linejoin="round" stroke-width=".1" d="m315.9 229.8.6.6"/><path id="path351" fill="none" stroke-linecap="round" stroke-linejoin="round" stroke-width=".1" d="m314.4 230.8 2.1-.4"/><path id="path352" fill="none" stroke-linecap="round" stroke-linejoin="round" stroke-width=".1" d="m326.9 237.7-2.1 1v2"/><path id="path353" fill="none" stroke-linecap="round" stroke-linejoin="round" stroke-width=".1" d="m326 236.8-2.2.6m1 1.4-1-1.4"/><path id="path354" fill="none" stroke-linecap="round" stroke-linejoin="round" stroke-width=".1" d="M323.8 237.3v-6.9"/><path id="path355" fill="none" stroke-linecap="round" stroke-linejoin="round" stroke-width=".1" d="m324.5 229.8-.6.6"/><path id="path356" fill="none" stroke-linecap="round" stroke-linejoin="round" stroke-width=".1" d="m326 230.8-2.2-.4"/><path id="path357" fill="none" stroke-linecap="round" stroke-linejoin="round" stroke-width=".1" d="M316.5 237.3h7.3"/><path id="path358" fill="none" stroke-linecap="round" stroke-linejoin="round" stroke-width=".1" d="M316.5 230.4h7.3"/><path id="path359" fill="none" stroke-linecap="round" stroke-linejoin="round" stroke-width=".1" d="M321.3 238.8h3.4"/><path id="path360" fill="none" stroke-linecap="round" stroke-linejoin="round" stroke-width=".1" d="M315.6 238.8h3.5"/><path id="path361" fill="#eac102" fill-rule="evenodd" stroke-linecap="round" stroke-linejoin="round" stroke-width=".1" d="M320.2 236.9c-.8 0-1.5.3-1.5 1.6v2.2h.6V238l.2-.2v-.2a.7.7 0 0 1 .4-.2h.6a.7.7 0 0 1 .4.4v.2l.2.6v2.1h.5v-2.2c0-1.3-.7-1.6-1.4-1.6z"/><path id="path362" fill="#eac102" fill-rule="evenodd" stroke-linecap="round" stroke-linejoin="round" stroke-width=".1" d="M326 228.7h-.4v.7l.5-.2v-.3l-.1-.2z"/><path id="path363" fill="#eac102" fill-rule="evenodd" stroke-linecap="round" stroke-linejoin="round" stroke-width=".1" d="m324.5 228.1.8.3v.5l.7.2v-.4l.6.2v1.3l-2.1-.4V228z"/><path id="path364" fill="#eac102" fill-rule="evenodd" stroke-linecap="round" stroke-linejoin="round" stroke-width=".1" d="M314.4 228.7h.3v.7l-.5-.2v-.3l.2-.2z"/><path id="path365" fill="#eac102" fill-rule="evenodd" stroke-linecap="round" stroke-linejoin="round" stroke-width=".1" d="m315.9 228.1-.8.3v.5l-.7.2v-.4l-.6.2v1.3l2-.4v-1.7z"/><path id="path366" fill="#eac102" stroke-linecap="round" stroke-linejoin="round" stroke-width=".1" d="M317.6 228.1H316v1.7h8.6v-1.7h-1.7v.7H321v-.7h-1.7v.7h-1.7v-.7z"/><g id="g385" fill="none" stroke-linecap="round" stroke-linejoin="round" transform="matrix(.09 0 0 .08147 286.7 177.9)"><path id="path367" d="m435.6 662-23-3.2"/><path id="path368" d="m435.6 674.4-22.7-1.3"/><path id="path369" d="m435.6 686.8-22.5.6"/><path id="path370" d="m435.7 699.2-23.2 2.5"/><path id="path371" d="m435.5 711.6-23 4.4"/><path id="path372" d="m423 759.7 23.4-13.5"/><path id="path373" d="M424.4 647.2v13"/><path id="path374" d="M424.4 673.8v13"/><path id="path375" d="M424.4 700.6v13"/><path id="path376" d="m424.4 727.3 10.3 13.7"/><path id="path377" d="M434.7 764.8v-11.7"/><path id="path378" d="M417.5 659.6v13.7"/><path id="path379" d="M432 661.5V674"/><path id="path380" d="M417.5 687.4V701"/><path id="path381" d="M432 687.1v12.6"/><path id="path382" d="M417.5 715v13.7"/><path id="path383" d="M432 712.5v12.7"/><path id="path384" d="M427.7 745.1v11.7"/><path id="path385" d="M442.2 737v11.7"/></g><g id="g405" fill="none" stroke-linecap="round" stroke-linejoin="round" transform="matrix(.09 0 0 .08147 286.7 177.9)"><path id="path386" d="M321 759.8 297.7 746"/><path id="path387" d="m308.2 662 23-3.2"/><path id="path388" d="m308.2 674.4 23.3-1.3"/><path id="path389" d="m308.2 686.8 23 .6"/><path id="path390" d="m308.1 699.2 23.2 2.5"/><path id="path391" d="m308.3 711.6 23 4.4"/><path id="path392" d="m321.1 759.7-23.4-13.5"/><path id="path393" d="M319.7 647.2v13"/><path id="path394" d="M319.7 673.8v13"/><path id="path395" d="M319.7 700.6v13"/><path id="path396" d="M319.7 727.3 309.4 741"/><path id="path397" d="M309.4 764.8v-11.7"/><path id="path398" d="M326.6 659.6v13.7"/><path id="path399" d="M312 661.5V674"/><path id="path400" d="M326.6 687.4V701"/><path id="path401" d="M312 687.1v12.6"/><path id="path402" d="M326.6 715v13.7"/><path id="path403" d="M312 712.5v12.7"/><path id="path404" d="M316.4 745.1v11.7"/><path id="path405" d="M301.9 737v11.7"/></g><g id="g439" fill="none" stroke-linecap="round" stroke-linejoin="round" transform="matrix(.09 0 0 .08147 286.7 177.9)"><path id="path406" d="M398.7 662.6v-3.4"/><path id="path407" d="M388.5 759.8h34.4"/><path id="path408" d="M331 658.8h81.3"/><path id="path409" d="M352.5 673.1H392"/><path id="path410" d="M352.3 687.4h39.3"/><path id="path411" d="M331 701.7h81.3"/><path id="path412" d="M331 716h81.3"/><path id="path413" d="M358.2 658.8v-14.2"/><path id="path414" d="M385.3 658.8v-14.2"/><path id="path415" d="M358.2 687.3V673"/><path id="path416" d="M385.3 687.3V673"/><path id="path417" d="M358.2 716v-14.2"/><path id="path418" d="M385.3 716v-14.2"/><path id="path419" d="M344.7 662.4v-3.2"/><path id="path420" d="M372 673v-14"/><path id="path421" d="M344.7 701.4v-3.6"/><path id="path422" d="M372 701.5v-13.9"/><path id="path423" d="M398.7 701.1v-3.4"/><path id="path424" d="M344.7 730.1v-13.8"/><path id="path425" d="M372 724.5v-8.2"/><path id="path426" d="M398.7 730.1v-13.8"/><path id="path427" d="m339.5 747.6 5.3-17.3"/><path id="path428" d="m403.8 747.6-5.2-17.3"/><path id="path429" d="M339.4 771.9v-12"/><path id="path430" d="M403.9 771.9v-12"/><path id="path431" d="M329.6 759.6V748"/><path id="path432" d="M346.5 759.6V748"/><path id="path433" d="M396.9 759.6V748"/><path id="path434" d="M413.8 759.6V748"/><path id="path435" d="M321.2 759.8H355"/><path id="path436" d="M406.3 673.1h6.5"/><path id="path437" d="M331.6 673.1h5.9"/><path id="path438" d="M406.5 687.4h6"/><path id="path439" d="M331.7 687.4h6"/></g><g id="g445" fill="none" stroke-linecap="round" stroke-linejoin="round" stroke-width=".7" transform="matrix(.09 0 0 .07445 300.3 200.4)"><path id="path440" d="M1066.7 149.7a3.7 3.7 0 0 1 7.5 0h-7.5z" transform="matrix(1.54348 0 0 1.60748 -1464.8 162.3)"/><path id="path441" d="M1066.7 149.7a3.7 3.7 0 0 1 7.5 0h-7.5z" transform="matrix(1.54348 0 0 1.60748 -1451.4 162.3)"/><path id="path442" d="M1066.7 149.7a3.7 3.7 0 0 1 7.5 0h-7.5z" transform="matrix(1.54348 0 0 1.60748 -1397.7 162.3)"/><path id="path443" d="M1066.7 149.7a3.7 3.7 0 0 1 7.5 0h-7.5z" transform="matrix(1.54348 0 0 1.60748 -1411.2 162.3)"/><path id="path444" d="M1066.7 149.7a3.7 3.7 0 0 1 7.5 0h-7.5z" transform="matrix(1.54348 0 0 1.60748 -1424.6 162.3)"/><path id="path445" d="M1066.7 149.7a3.7 3.7 0 0 1 7.5 0h-7.5z" transform="matrix(1.54348 0 0 1.60748 -1438 162.3)"/></g><g id="g449" fill="none" transform="matrix(.09 0 0 .08124 300.4 197.6)"><path id="path446" d="M158.5 407.6s-4.7-5.1-.2-6.3c4.3-1.2 8.7 4.5 8.7 4.5"/><path id="path447" d="M168.8 405.1s-4.6-5.2-.2-6.3c4.3-1.2 8.8 4.4 8.8 4.4"/><path id="path448" d="M283 407.6s4.6-5.1.1-6.3c-4.3-1.2-8.7 4.5-8.7 4.5"/><path id="path449" d="M272.6 405.1s4.6-5.2.2-6.3c-4.3-1.2-8.8 4.4-8.8 4.4"/></g><path id="path450" fill="none" stroke-width=".1" d="M320.2 237.4v-.5"/><path id="path451" fill="none" stroke-width=".1" d="M318.7 240.7h.6"/><path id="path452" fill="none" stroke-width=".1" d="M318.7 240.1h.6"/><path id="path453" fill="none" stroke-width=".1" d="M318.7 238.5h.7"/><path id="path454" fill="none" stroke-width=".1" d="M318.7 239h.6"/><path id="path455" fill="none" stroke-width=".1" d="M318.7 239.6h.6"/><path id="path456" fill="none" stroke-width=".1" d="m319.7 237.5-.3-.4"/><path id="path457" fill="none" stroke-width=".1" d="m319.4 238-.5-.3"/><path id="path458" fill="none" stroke-width=".1" d="M321.7 240.7h-.6"/><path id="path459" fill="none" stroke-width=".1" d="M321.7 240.1h-.6"/><path id="path460" fill="none" stroke-width=".1" d="M321.7 238.5h-.6"/><path id="path461" fill="none" stroke-width=".1" d="M321.7 239h-.6"/><path id="path462" fill="none" stroke-width=".1" d="M321.7 239.6h-.6"/><path id="path463" fill="none" stroke-width=".1" d="m320.6 237.6.4-.5"/><path id="path464" fill="none" stroke-width=".1" d="m321 238 .5-.3"/><path id="path465" fill="#0071bc" fill-rule="evenodd" stroke-linecap="round" stroke-linejoin="round" stroke-width=".1" d="M319.3 240.7v-2.1c0-1 .4-1.2.9-1.2.4 0 .9.2.9 1.2v2.1h-1.8z"/></g><g id="lion"><path id="path466" fill="#d576ad" fill-rule="evenodd" d="M346.6 225.9h-1.1c-.2.2-.3.2-.5.2-.6 0-.8-.3-.8-.5s0-.3.2-.4h-.2c-.2 0-.4.1-.4.4 0 .6.5.8.9.8l.9-.2.5-.2h.5v-.1"/><path id="path467" fill="#000" fill-rule="evenodd" d="m345.9 224.1.1.2.2-.1-.3-.2v.1z"/><path id="path468" fill="#ed1c24" fill-rule="evenodd" stroke="#000" stroke-width="0" d="M345.9 225.1c.4.6.6 1.2.4 1.5h1c0-.3-.7-1.5-1.3-1.5h-.1z"/><path id="path469" fill="#ed1c24" fill-rule="evenodd" stroke="#000" stroke-width="0" d="M347.5 233c-.3.1.1.1.2.2.3 0 .5.2.6.4.2 0 .5 0 .7.2-.3-.5-.8-.8-1.5-.8z"/><path id="path470" fill="#ed1c24" fill-rule="evenodd" stroke="#000" stroke-width="0" d="m344 238.4-.3.3v.4c.2 0 .6-.3.5-.5 0 0 0-.2-.2-.2"/><path id="path471" fill="#ed1c24" fill-rule="evenodd" stroke="#000" stroke-width="0" d="m342.3 238.7-.2.2c0 .2.1.4.3.5l.1-.3c0-.1 0-.4-.2-.4"/><path id="path472" fill="#ed1c24" fill-rule="evenodd" stroke="#000" stroke-width="0" d="M341.5 237.5c-.2 0-.5.2-.5.5l.2.5c0-.2.2-.3.3-.4v-.6"/><path id="path473" fill="#ed1c24" fill-rule="evenodd" stroke="#000" stroke-width="0" d="M342.4 236.7h-.2c-.2 0-.6.1-.6.3h.5l.3-.3"/><path id="path474" fill="#ed1c24" fill-rule="evenodd" stroke="#000" stroke-width=".1" d="m339.3 232-.3.4c0 .2 0 .4.2.5 0-.2.3-.3.4-.4 0-.1 0-.4-.3-.5"/><path id="path475" fill="#ed1c24" fill-rule="evenodd" stroke="#000" stroke-width=".1" d="m340.1 233-.3.1c0 .3.3.6.6.6v-.6c0-.2-.2-.2-.3-.2"/><path id="path476" fill="#ed1c24" fill-rule="evenodd" stroke="#000" stroke-width="0" d="M347.4 233.1c0 .3-.5.1-.7.2-1.1-.1-2.2.5-2.5 1.4-.2.5 0 1.2-.3 1.6l.3.2c-.3.3-.7.5-1.1.5-.2-.2-.4-.4-.6-.3-.3 0-.6.3-.5.6-.4-.2-.7.3-.6.6 0 .3.2.5.5.5-.2.2 0 .5.2.6 0-.2.2-.4.4-.2v.4c.4 0 .7-.4.6-.8l.3.1c0 .1.2.3.3.2 0-.2.3-.3.4-.1.1.3.2 0 .3-.1v-.4l.9-.3c0 .2.1.2.3 0l.3-.2c0 .1 0 .6.1.4.6-.4 1-1 .9-1.6 0-.4-.4-.7-.2-1 .1-.4.5-.6.8-.5.1 0 0-.3.2-.5.1-.3.3-.6.7-.7-.2-.3-.5-.5-1-.6z"/><path id="path477" fill="#ed1c24" fill-rule="evenodd" stroke="#000" stroke-width=".1" d="M341.3 232.5c-.2 0-.2.2-.2.3v.4c.3-.2.4-.3.4-.5 0-.1 0-.2-.2-.2"/><path id="path478" fill="#ed1c24" fill-rule="evenodd" stroke="#000" stroke-width="0" d="m339.9 230.8-.3-.2c-.2 0-.6.2-.6.4h.4l.5-.2"/><path id="path479" fill="#ed1c24" fill-rule="evenodd" stroke="#000" stroke-width="0" d="M347.8 239h-.2c-.3 0-.6.3-.5.7l.4-.1c0-.2.1-.5.3-.5"/><path id="path480" fill="#ed1c24" fill-rule="evenodd" stroke="#000" stroke-width="0" d="M347.6 240.4h-.1l-.1.4.1.4.3-.3c.1-.2 0-.4-.2-.4"/><path id="path481" fill="#ed1c24" fill-rule="evenodd" stroke="#000" stroke-width="0" d="M349 240.7c-.2 0-.3.1-.3.2l.1.6c.2-.2.3-.3.3-.5 0-.1 0-.3-.2-.3"/><path id="path482" fill="#ed1c24" fill-rule="evenodd" stroke="#000" stroke-width="0" d="m350.1 240 .2.4.3-.4v-.3h-.3s-.2.1-.2.4"/><path id="path483" fill="#ed1c24" fill-rule="evenodd" stroke="#000" stroke-width="0" d="M353.7 223.8c-.2.4-.5.7-1 .9v-.7c-.4.3-1 .5-1.4 1l-.2 1.2c-.9.8-1.2 2.2-.6 3.2a4 4 0 0 0 1.7 2c.5.3 1 .8 1 1.4-.1.6-.6 1.2-1.3 1.2-.1 0-.4 0-.4-.2.3-.6-.2-1.2-.7-1.6-.7-.6-1.5-.9-2-1.5-.2 0-.3-.3-.4-.1l-1-.1c-.8.7-2 1-3 .6-.4 0-.9 0-1.1.3-.3-.3-.3-.6-.2-1a1 1 0 0 1-.7-.4l-1.3.7c-.2 0-.5.3-.7.2-.2 0-.5-.3-.7-.2-.3.2-.4.6-.2.9-.2 0-.4.3-.3.5.3 0 .3.3.3.5 0 0 .2 0 .1.2 0 .2.1.4.3.5 0-.2.2-.4.3-.2.1.1.1.2.3.1.2 0 .1-.4.2-.5l.4.2c0-.1 0-.5.3-.4 0 .1 0 .3.2.2.2-.1.2-.4.2-.6.4-.2.9 0 1.2.2.2 0 .3-.2.3-.3l.4.5c.2 0 .3-.3.4-.5l.6.3c.2 0 .3-.2.3-.4.7.7 1.6 1.1 2.6 1.2.5 0 1 .2 1.2.5-.5-.1-1 .2-1 .6-.5.8-.4 2 .3 2.6.3.2.5.6.4 1l.4-.2c0 .2.2.5.5.6l.2-.4c0 .6-.4 1.2-1 1.3-.3 0-.5-.2-.7-.1-.4 0-.6.6-.3.9-.2.1-.2.4-.2.6.2-.1.4 0 .4.2l.1.3.4-.1s.3.2.4 0c0-.2.4-.1.4 0 0 .3.2 0 .3 0l.1-.5.3-.2c.1.1.4.1.4-.1s.2-.4.4-.3c.1 0 .2-.2.1-.3 0-.1-.2-.2 0-.3l.4-.5c0 .2.3.2.4 0 0 0 0-.2.2-.2s.5 0 .6-.2c-.4-.4 0-.8 0-1.2 0-.4-.3-1-.8-1-.2 0-.3.2-.5.3-.7-.2-.8-1.3-.2-1.7.2-.2.4 0 .6 0 .4.1 1 .1 1.2-.1.4.3 1 0 1-.3l.5-.5a.6.6 0 0 0-.5-.2c.3-.5.2-1 .2-1.6.1-.5.6-.9.4-1.4 0-.2 0-.3-.2 0-.2.1-.6.1-.8.4 0 0 0 .3-.1.2-.4-.2-.7-.7-.4-1 .3-.3.9-.4 1-.8v-.4c-.2.2-.4.5-.7.4-.4-.2-.9-.2-1.2.1l-.1.7c-.6-.5-.5-1.6.3-1.9.5-.2 1.2-.4 1.4-1 .1-.3 0-.3-.2 0-.4.3-1 .1-1.5.3l.3-.3c-.3 0-.7 0-1 .3.2-.5.6-1 1.2-1a2 2 0 0 0 1.7-1.7l-.1-1.4-.1.3z"/><path id="path484" fill="#ed1c24" fill-rule="evenodd" stroke="#000" stroke-width="0" d="M346.8 225.9h-1.3c-.2.2-.3.2-.6.2-.5 0-.7-.3-.7-.5s0-.3.2-.4h-.2c-.2 0-.4.1-.4.4 0 .6.5.8.9.8l.9-.2.5-.2h.7v-.1"/><path id="path485" fill="#ed1c24" fill-rule="evenodd" stroke="#000" stroke-width=".1" d="m341 224.6-.4-.2c0-.2.1-.3.4-.3.2 0 .4.3.4.4-.1.1-.5 0-.4 0"/><path id="path486" fill="#ed1c24" fill-rule="evenodd" stroke="#000" stroke-width=".1" d="m340.6 224.8-.6-.2c-.4 0-.7.3-.7.5h.6c.1 0 .3-.3.7-.3"/><path id="path487" fill="#ed1c24" fill-rule="evenodd" stroke="#000" stroke-width=".1" d="M339.7 225.6c-.3 0-.6.3-.6.5s.1.3.3.4c0-.2 0-.4.3-.4-.2-.2 0-.2 0-.5"/><path id="path488" fill="#ed1c24" fill-rule="evenodd" stroke="#000" stroke-width=".1" d="m340 226.7-.5.2s.4.3.7.3c.2 0 .5-.1.6-.3-.4 0-.6 0-.7-.2"/><path id="path489" fill="#ed1c24" fill-rule="evenodd" stroke="#000" stroke-width="0" d="M341.2 224.4c-.3 0-.5.2-.4.5v.3c-.1-.2 0-.5-.3-.6-.4-.2-1 .5-.6.8l.2.2c-.3-.1-.6.1-.6.4 0 .3.2.6.5.7 0 .3.4.8.9.6l.2.3c.2.4.3.9.2 1.3l.5-.1-.1 1.1.6-.1c.2.2.1.4.1.7.4-.5.4-1 .8-1.4l.7-.5v-.9c-.5-.3-1.2-.6-1.6-1-.2-.5-.6-.8-.7-1.3 0-.3.2-.7-.1-1h-.3z"/><path id="path490" fill="#ed1c24" fill-rule="evenodd" stroke="#000" stroke-width="0" d="m345.7 226.5-.1-.2c-.1 0 0 .1 0 .2"/><g id="g492" fill="#ed1c24" fill-rule="evenodd" stroke="#000" stroke-width=".2" transform="matrix(.26487 0 0 .28384 220 107.1)"><path id="path491" d="M473.3 417.8s0 .8.4.7l.2-.7"/><path id="path492" d="M489.3 425.9a15 15 0 0 0 0-5.9c.8 0 1.3-.1 1.8-.4a7.6 7.6 0 0 1-1.7-2.8c-.3-.8-.8-2.2-1.5-2.5a2 2 0 0 0 1.1-.9c-1.1-.6-1.6-1.3-2.8-1.9.4-.2.7-.6.8-1-.6-.1-1.2-.4-1.8-.7 0 .5-.2 1-.7 1.5l-.1-.2c.3-.4.7-.9.7-1.3 0-.7-.8-1.4-1.1-1.7-.4-.2-1-.2-1.7.3-.6.1-.9.7-1.2 1l-.1-.1 1-.9h-.6c-.7 0-1.3 0-1.8.4-3.3 0-5 2-5.4 2.9-1.3.8-2.7 2-2.7 2.8l.1.5c.4-.2.9-.4 1.2-.7v.1l-1.1.7c-.2.2-.1.8-.1 1 0 1 1 1.8 2 1.8 1.3 0 1.8-1.3 1.7-2 .8 0 3 .8 3 3 0 1.5-1.6 1.7-2 1.7l-1.6-.2c-.6 0-.9.2-.9.6 0 .6.7 1 1.3 1 .7 0 .7-.5 1.3-.5.3 0 .8.2.8 1 0 1-.9 1.3-1.8 1.3-2 0-3.5-1.5-4-1.5v2c-2 0-2.6-.6-3.4-1.4-.7.6-1.4 1.6-1.4 2.8 0 .9 0 1.5.2 2-1.6.3-3.3 1.9-4.1 3.8-.5 1.3-.7 2-1.7 2.4a3.5 3.5 0 0 0 3.1 2.3c-.8.9-.3 3 .3 3 .7-.7 1.5-.9 2.4-.9 2 0 3.1.8 5 .8a11 11 0 0 0 8-3c.8.4 3.3.7 3.9.7 1 0 2-.4 2.5-1-.4-.6-.9-1.9-.5-2.8.4.4 1.3.7 2 .5-.2-1.5-1.2-3-.7-3.6a6 6 0 0 0 1-2.1h1.7c-.2-.5-.5-1.1-.4-2z"/></g><path id="path493" fill="#000" fill-rule="evenodd" stroke="#000" stroke-width="0" d="M346.3 224.3v-.1c-.7-.5 0 0-.3 0h-.2v-.3c.2 0 .4.1.6.4z"/><path id="path494" fill="#eac102" stroke="#000" stroke-width="0" d="m347.8 223.9-1.7-.6v-.2c.1-.2 0-.2 0-.2a7.7 7.7 0 0 1 3.6 1.6h-.2l-.2.3c-.3-.3-.8-.7-1.5-1"/><path id="path495" fill="#eac102" stroke="#000" stroke-width="0" d="m348 223.5-1.8-.6v-.1c.5 0 1.2.3 1.9.6a7 7 0 0 1 1.7 1h-.1a7 7 0 0 0-1.7-1"/><path id="path496" fill="#eac102" stroke="#000" stroke-width="0" d="m348.3 223 .1.4h.3l.1-.1.1.4.4-.1.1-.1v.5h.3v.2h.5l-.3.2h-.2l-.1-.3h-.2l-.2-.3h-.3a.4.4 0 0 1-.2-.3h-.3a.4.4 0 0 1-.2-.3c-.1.1-.3.1-.4 0l-.2-.1h-.3a.3.3 0 0 1-.2-.3c-.1.1-.3.1-.4 0h-.4l-.2-.1v-.3.1l.2.2h.2v-.2.1l.2.2.4-.1v-.1h.1l.1.4.4-.1c0 .1 0 .2.2.3 0 0 .2 0 .3-.2h.1"/><path id="path497" fill="#eac102" stroke="#000" stroke-width="0" d="M346.5 222.5h.1s.1 0 0 0v.1l-.1-.1"/><path id="path498" fill="#eac102" stroke="#000" stroke-width="0" d="M347.6 222.8s.1-.1.2 0l-.1.1s-.1 0 0-.1"/><path id="path499" fill="#eac102" stroke="#000" stroke-width="0" d="M349.6 224c0-.1.1-.2.2-.1v.1h-.1"/><path id="path500" fill="#eac102" stroke="#000" stroke-width="0" d="M348.7 223.3s.1-.1.2 0l-.1.1s-.1 0 0-.1"/><path id="path501" fill="#eac102" fill-rule="evenodd" stroke="#000" stroke-width="0" d="M348.7 222.2h-.4v.1h-.1v.2l-.1-.1v.1h-.2v.2h.1l-.2.1h.2v.1l-.1.1h.2c.2 0 0 0 .1.1l.2.1v-.2l.1.2s.1-.1 0-.2h.5v-.2h-.1l.1-.1h-.2.2v-.2c0-.1 0 0 0 0v-.1l-.1-.2z"/><path id="path502" fill="#eac102" fill-rule="evenodd" stroke="#000" stroke-linecap="round" stroke-width="0" d="M348.3 222.9h0-.1"/><path id="path503" fill="#eac102" fill-rule="evenodd" stroke="#000" stroke-linecap="round" stroke-width="0" d="M348.3 222.8h-.2"/><path id="path504" fill="#eac102" fill-rule="evenodd" stroke="#000" stroke-linecap="round" stroke-width="0" d="M348.3 222.7h-.2"/><path id="path505" fill="#eac102" fill-rule="evenodd" stroke="#000" stroke-linecap="round" stroke-width="0" d="M348.4 222.6h0-.1"/><path id="path506" fill="#eac102" fill-rule="evenodd" stroke="#000" stroke-linecap="round" stroke-width="0" d="m348.5 222.6.1-.2"/><path id="path507" fill="#eac102" fill-rule="evenodd" stroke="#000" stroke-linecap="round" stroke-width="0" d="M348.5 222.6v-.1s0 0 0 0"/><path id="path508" fill="#eac102" fill-rule="evenodd" stroke="#000" stroke-linecap="round" stroke-width="0" d="M348.4 223h0s0 0 0 0"/><path id="path509" fill="#eac102" fill-rule="evenodd" stroke="#000" stroke-linecap="round" stroke-width="0" d="M348.5 222.9h.1"/><path id="path510" fill="#eac102" fill-rule="evenodd" stroke="#000" stroke-linecap="round" stroke-width="0" d="M348.6 222.8h.1"/><path id="path511" fill="#eac102" fill-rule="evenodd" stroke="#000" stroke-linecap="round" stroke-width="0" d="M348.6 222.7h.1"/><path id="path512" fill="#eac102" fill-rule="evenodd" stroke="#000" stroke-linecap="round" stroke-width="0" d="M348.6 222.6h.1"/><path id="path513" fill="#eac102" stroke="#000" stroke-width="0" d="m348.3 222.7.2-.1c.1 0 .1.1 0 .2 0 .1-.1.2-.2.1v-.2"/><path id="path514" fill="#eac102" stroke="#000" stroke-width="0" d="M348.4 222.7s0-.1.1 0l-.1.2v-.2"/><path id="path515" fill="#eac102" fill-rule="evenodd" stroke="#000" stroke-width="0" d="M350 222.9h-.5v.2l-.1-.1v.1h-.1c0-.1 0 0-.1 0h-.1v.1h.1v.1h-.2l.2.1-.1.1.1.1c.2 0 .1 0 .1.1l.1.2v-.1h.1v-.2.1l.1.1.1-.1h.2v-.2h-.1.1v-.2h-.1.2v-.4z"/><path id="path516" fill="#eac102" fill-rule="evenodd" stroke="#000" stroke-linecap="round" stroke-width="0" d="M349.4 223.5h-.1s0 0 0 0"/><path id="path517" fill="#eac102" fill-rule="evenodd" stroke="#000" stroke-linecap="round" stroke-width="0" d="M349.4 223.4h-.2"/><path id="path518" fill="#eac102" fill-rule="evenodd" stroke="#000" stroke-linecap="round" stroke-width="0" d="m349.4 223.3-.1-.1"/><path id="path519" fill="#eac102" fill-rule="evenodd" stroke="#000" stroke-linecap="round" stroke-width="0" d="M349.5 223.2h0s0 0 0 0"/><path id="path520" fill="#eac102" fill-rule="evenodd" stroke="#000" stroke-linecap="round" stroke-width="0" d="M349.7 223.2v-.1"/><path id="path521" fill="#eac102" fill-rule="evenodd" stroke="#000" stroke-linecap="round" stroke-width="0" d="M349.6 223.2h0v-.1"/><path id="path522" fill="#eac102" fill-rule="evenodd" stroke="#000" stroke-linecap="round" stroke-width="0" d="M349.4 223.6h0s0 0 0 0"/><path id="path523" fill="#eac102" fill-rule="evenodd" stroke="#000" stroke-linecap="round" stroke-width="0" d="M349.6 223.5v.1"/><path id="path524" fill="#eac102" fill-rule="evenodd" stroke="#000" stroke-linecap="round" stroke-width="0" d="M349.6 223.5h.2"/><path id="path525" fill="#eac102" fill-rule="evenodd" stroke="#000" stroke-linecap="round" stroke-width="0" d="M349.7 223.4h0s0 0 0 0"/><path id="path526" fill="#eac102" fill-rule="evenodd" stroke="#000" stroke-linecap="round" stroke-width="0" d="M349.7 223.3h.1"/><path id="path527" fill="#eac102" stroke="#000" stroke-width="0" d="M349.4 223.3h.3v.2h-.3v-.2"/><path id="path528" fill="#eac102" stroke="#000" stroke-width="0" d="M349.4 223.3h.2v.1l-.2.1v-.2"/><path id="path529" fill="#eac102" fill-rule="evenodd" stroke="#000" stroke-width="0" d="m347.4 221.7.1.2h.1v.2h-.1v.1h.2-.1c0 .1 0 0 0 0l-.1.1h.2v.2h-.2v.2l-.1-.1v.2h-.2c-.1-.2 0-.2-.2-.1h-.1v-.1l.1-.1h-.2c0-.1.1 0 .1 0v-.1h-.1l-.1-.2h.3v-.2.1h.1l-.1-.1v-.1c0-.1 0 0 0 0h.2l.1-.1h.1z"/><path id="path530" fill="#eac102" fill-rule="evenodd" stroke="#000" stroke-linecap="round" stroke-width="0" d="M347.2 222.5h0v.2"/><path id="path531" fill="#eac102" fill-rule="evenodd" stroke="#000" stroke-linecap="round" stroke-width="0" d="m347.3 222.4.1.1"/><path id="path532" fill="#eac102" fill-rule="evenodd" stroke="#000" stroke-linecap="round" stroke-width="0" d="M347.4 222.4h.1"/><path id="path533" fill="#eac102" fill-rule="evenodd" stroke="#000" stroke-linecap="round" stroke-width="0" d="M347.4 222.3h0s0 0 0 0"/><path id="path534" fill="#eac102" fill-rule="evenodd" stroke="#000" stroke-linecap="round" stroke-width="0" d="M347.3 222.2v-.2"/><path id="path535" fill="#eac102" fill-rule="evenodd" stroke="#000" stroke-linecap="round" stroke-width="0" d="M347.3 222.2h0l.1-.1"/><path id="path536" fill="#eac102" fill-rule="evenodd" stroke="#000" stroke-linecap="round" stroke-width="0" d="M347.1 222.5h0v.1"/><path id="path537" fill="#eac102" fill-rule="evenodd" stroke="#000" stroke-linecap="round" stroke-width="0" d="M347 222.4s0 0 0 0"/><path id="path538" fill="#eac102" fill-rule="evenodd" stroke="#000" stroke-linecap="round" stroke-width="0" d="M347 222.3s0 0 0 0"/><path id="path539" fill="#eac102" fill-rule="evenodd" stroke="#000" stroke-linecap="round" stroke-width="0" d="M347.1 222.2h0s0 0 0 0"/><path id="path540" fill="#eac102" fill-rule="evenodd" stroke="#000" stroke-linecap="round" stroke-width="0" d="M347.2 222.2v-.1s0 0 0 0"/><path id="path541" fill="#eac102" stroke="#000" stroke-width="0" d="m347.4 222.4-.1-.2-.2.1v.3l.2-.2"/><path id="path542" fill="#eac102" stroke="#000" stroke-width="0" d="M347.3 222.4v-.2l-.2.1v.2l.2-.1"/><path id="path543" fill="#eac102" fill-rule="evenodd" stroke="#000" stroke-width="0" d="M346 222.5h.1l.2.1v-.2h.1v-.1h.1l.1-.1-.1-.2-.1.1v-.1h-.1l.1-.1v-.2h-.5l.1.3a1.6 1.6 0 0 1 0 .3.3.3 0 0 0 0 .2z"/><path id="path544" fill="#eac102" fill-rule="evenodd" stroke="#000" stroke-linecap="round" stroke-width="0" d="M346 222.4h.1s0 0 0 0"/><path id="path545" fill="#eac102" fill-rule="evenodd" stroke="#000" stroke-linecap="round" stroke-width="0" d="M346.2 222.3s0 0 0 0"/><path id="path546" fill="#eac102" fill-rule="evenodd" stroke="#000" stroke-linecap="round" stroke-width="0" d="M346.2 222.2h.1"/><path id="path547" fill="#eac102" fill-rule="evenodd" stroke="#000" stroke-linecap="round" stroke-width="0" d="M346.2 222.1h0s0 0 0 0"/><path id="path548" fill="#eac102" fill-rule="evenodd" stroke="#000" stroke-linecap="round" stroke-width="0" d="M346 222h.1s0 0 0 0"/><path id="path549" fill="#eac102" stroke="#000" stroke-width="0" d="M346 222.4c.1 0 .2 0 .2-.2l-.1-.2a1.3 1.3 0 0 0-.1.2v.2z"/><path id="path550" fill="#eac102" stroke="#000" stroke-width="0" d="M346 222.2v-.2l.1.2v.1l-.1-.1"/><path id="path551" fill="#eac102" fill-rule="evenodd" stroke="#000" stroke-width="0" d="M350 224.3h-.2l.1-.1h.2v-.1h-.2l.1-.1h.1v-.2h.2v-.1.1h.1v-.1h.4l.2.1v.2h-.3a.5.5 0 0 0-.1 0l-.1.2h-.1l-.1.1h-.1z"/><path id="path552" fill="#eac102" fill-rule="evenodd" stroke="#000" stroke-linecap="round" stroke-width="0" d="M350.2 224.2h0-.1"/><path id="path553" fill="#eac102" fill-rule="evenodd" stroke="#000" stroke-linecap="round" stroke-width="0" d="M350.3 224.1h-.2"/><path id="path554" fill="#eac102" fill-rule="evenodd" stroke="#000" stroke-linecap="round" stroke-width="0" d="M350.3 224h-.1"/><path id="path555" fill="#eac102" fill-rule="evenodd" stroke="#000" stroke-linecap="round" stroke-width="0" d="M350.4 224h0v-.1"/><path id="path556" fill="#eac102" fill-rule="evenodd" stroke="#000" stroke-linecap="round" stroke-width="0" d="M350.5 224h0v-.1"/><path id="path557" fill="#eac102" stroke="#000" stroke-width="0" d="M350.2 224.3v-.2h.3a1.5 1.5 0 0 1-.1 0v.1h-.1z"/><path id="path558" fill="#eac102" stroke="#000" stroke-width="0" d="m350.4 224.2.1-.2h-.2v.2h.1"/><path id="path559" fill="#eac102" stroke="#000" stroke-width="0" d="M347.8 224a8 8 0 0 0-1.7-.5v-.1a4 4 0 0 1 1.7.5c.7.2 1.2.6 1.5.9a6 6 0 0 0-1.5-.8"/><path id="path560" fill="#eac102" stroke="#000" stroke-width="0" d="M347.9 223.8c-.2 0-.3-.2-.2-.2h.3c.2 0 .2.1.2.2h-.3"/><path id="path561" fill="#eac102" stroke="#000" stroke-width="0" d="m347.9 223.8-.2-.2h.3c.1 0 .2.1.1.2h-.2"/><path id="path562" fill="#eac102" stroke="#000" stroke-width="0" d="M349.6 224.5h-.3v.2h.2a.4.4 0 0 0 0-.2z"/><path id="path563" fill="#eac102" stroke="#000" stroke-width="0" d="M349.6 224.6c-.1-.1-.2-.2-.3-.1l.1.2h.1v-.1z"/><path id="path564" fill="#eac102" stroke="#000" stroke-width="0" d="M346.2 223c.2 0 .3 0 .3.2h-.3a.3.3 0 0 1 0-.1v-.1z"/><path id="path565" fill="#eac102" stroke="#000" stroke-width="0" d="m346.2 223 .2.2h-.2v-.1z"/><path id="path566" fill="#eac102" stroke="#000" stroke-width="0" d="M347.4 223.5h.1"/><path id="path568" fill="#eac102" stroke="#000" stroke-width="0" d="M348.3 223.8h.1v.1c0 .1 0 0 0 0"/><path id="path569" fill="#eac102" stroke="#000" stroke-width="0" d="M349.1 224.3h.1v.1s-.1 0 0 0"/><path id="rect569" fill="#eac102" fill-rule="evenodd" stroke="#000" stroke-linecap="round" stroke-width="0" d="M339.8-109.7h.3v.4h-.3z" transform="matrix(.7032 .711 -.98584 .16769 0 0)"/><path id="rect570" fill="#eac102" fill-rule="evenodd" stroke="#000" stroke-linecap="round" stroke-width="0" d="M340.3-108.4h.2v.2h-.2z" transform="matrix(.70576 .70845 -.98637 .16452 0 0)"/><path id="rect571" fill="#eac102" fill-rule="evenodd" stroke="#000" stroke-linecap="round" stroke-width="0" d="M-231.1 239.7h.4v.3h-.4z" transform="matrix(-.99774 -.06716 .4935 .86975 0 0)"/><path id="rect572" fill="#eac102" fill-rule="evenodd" stroke="#000" stroke-linecap="round" stroke-width="0" d="M-230.5 239.4h.2v.2h-.2z" transform="matrix(-.99752 -.07045 .49668 .86793 0 0)"/></g><use xlink:href="#castle" id="use572" transform="translate(56)"/><use xlink:href="#castle" id="use573" transform="translate(31.5 129.2)"/><use xlink:href="#castle" id="use574" transform="translate(80.5 129.2)"/><use xlink:href="#castle" id="use575" transform="translate(-.3 46)"/><use xlink:href="#castle" id="use576" transform="translate(1.1 90.6)"/><use xlink:href="#castle" id="use577" transform="translate(111.9)"/><use xlink:href="#castle" id="use578" transform="translate(112.1 46)"/><use xlink:href="#castle" id="use579" transform="translate(110.2 91.5)"/><use xlink:href="#lion" id="use580" transform="translate(57.8 .4)"/><use xlink:href="#lion" id="use581" transform="translate(85.2 24)"/><use xlink:href="#lion" id="use582" transform="translate(85.2 67.6)"/><use xlink:href="#lion" id="use583" transform="translate(-26.2 24)"/><use xlink:href="#lion" id="use584" transform="translate(-26.6 67.5)"/><use xlink:href="#lion" id="use585" transform="translate(-14.5 114.3)"/><use xlink:href="#lion" id="use586" transform="translate(71.7 114.8)"/><use xlink:href="#lion" id="use587" transform="translate(29.5 134.6)"/></g></g><g id="g627" stroke="#000" stroke-width=".2"><path id="path588" fill="#ed1c24" fill-rule="evenodd" d="M332.5 372.3s5.3-6.2 7.3-9.4c1.3-2 1.4-2.7 2.2-4.2l1-1.8s.4.9.3 2c0 1.1.2 1-.6 2.5-.8 1.7-2.5 4-2.5 4l-6 7.1-1.7-.2z"/><path id="path589" fill="#e3e4e5" fill-rule="evenodd" d="M337.9 360.9c.4-.1.7.4 1 .7 0 .3.6.7.3 1-.6.3-1.2.2-1.6-.2-.4-.2-.9-.6-.4-1l.7-.5z"/><path id="path590" fill="#e3e4e5" fill-rule="evenodd" d="M336.8 361.8c.5-.3.9.5 1.3.7.3.3.3.8 0 1-.5.2-1 .1-1.3-.1-.3-.2-1-.6-.6-1l.6-.6z"/><path id="path591" fill="#e3e4e5" fill-rule="evenodd" d="M336 363c.4 0 .8.3 1 .7.3.3.8.6.6 1-.3.3-.9.2-1.2 0l-1.1-.7c-.4-.5.6-.6.7-1z"/><path id="path592" fill="#e3e4e5" fill-rule="evenodd" d="M334.9 364c.2-.3.7.3 1 .4.3.3.5.9.5 1.4-.3 0-.8 0-1.2-.2l-1-.6c0-.3.7-.4.7-.8v-.1z"/><path id="path593" fill="#e3e4e5" fill-rule="evenodd" d="M334.4 365.2c.5.2.8.7 1 1 .4.6-.5.5-.8.4-.5 0-.8-.3-1-.6-.2-.4.5-.5.6-.7h.2z"/><path id="path594" fill="#e3e4e5" fill-rule="evenodd" d="M333.3 366c.4-.3.7.4 1 .7.3.2.7.7.1.9-.5.2-.9-.3-1.2-.6-.3-.1-.7-.4-.2-.6 0-.2.2-.3.3-.4z"/><path id="path595" fill="#e3e4e5" fill-rule="evenodd" d="m332.8 366.6.6.5c.5.2.7.7.7 1.1-.2.4-.8.3-1 .1-.4-.2-1-.4-1-.9 0-.3.4-.5.7-.8z"/><path id="path596" fill="#e3e4e5" fill-rule="evenodd" d="m332 367.8 1 .5c.4.1.5.7.3 1-.5.2-.8-.3-1.2-.3-.3 0-.9-.2-.5-.7l.3-.5z"/><path id="path597" fill="#e3e4e5" fill-rule="evenodd" d="M331.4 368.8c.4 0 .7.3 1 .4.5.1.6.7.4 1-.5.2-.8-.3-1.2-.3-.3 0-1-.2-.6-.6l.4-.5z"/><path id="path598" fill="#e3e4e5" fill-rule="evenodd" d="M339 366.7c-.1-.6-.8-.6-1.3-.7-.4-.3-.6.2-.4.6.1.5.7.5 1 .8.3.1.5-.5.7-.6v-.1z"/><path id="path599" fill="#008f4c" fill-rule="evenodd" d="m335 371.4-3.1.6 1 1.1 1.4-.5.7-1.2z"/><path id="path600" fill="#008f4c" fill-rule="evenodd" d="M346.2 378.8s-2.3 2.7-3.4 3.7c-1 1-2.3 3-2.3 3s-1 0-2.2.6c-1.3.6-2.8 1.8-2.8 1.8s-.6-1-1.4-1.3c-.9-.2-2 .5-2 .5l-.6.6.5-1s-.2-.8-1.2-1.3c-.9-.4-2.5-.6-2.5-.6s1.1-.8 1.1-1.7-1.2-2.1-1.2-2.1 2.1-.3 3.4-.8a3 3 0 0 0 1.4-1.4l-3.1.2 3.4-.4s1-.2 1.6-.6c.5-.3.7-.8.8-.9-1.6.3-3.8.2-3.8.2l3.8-.2a5 5 0 0 0 1.2-.3c.4-.2.5-.9 1.2-1.1.7-.2 1.4.3 1.4.3l.7.4-1-1.2-1-.5-4.7 1.6 4.7-1.6 1-.3 2.3-.2s-.7-1.1-1.8-1.2c-1-.1-2.6.7-2.6.7l-2.6.5s2.8-3.8 3.8-4.7c.7-.5 3-.9 3-.9l1.4-.9 1.7-.3-1.2-.1-1.9.2 3-1 1.7-.2s-1-1-2.2-.8c-1.2 0-2.9 1.2-2.9 1.2l-.6-1.4-5.6 6.3s-.6.8-1.2.9c-.7 0-.9 0-1.4-.6-.5-.6-.7-.7-.6-1.7s.8-2.6.8-2.6l5.5-6.7s.2-1.3-.6-1.6c-.8-.4-2.6.2-2.6.2l-1.4-.2-.6.3-.5.4-5.1 5.4s-1.7-.5-3.1.5c-1.5 1-2.8 3.6-2.8 3.6l-1.1 1.4s-1-.2-2 .3a9.2 9.2 0 0 0-2.5 1.9l-5.4 4.7a11.7 11.7 0 0 1-2.5 1.7l6.3-2-.8 1.6-2 1.4-2.2 2s2.3-.3 4.3-1.2c2-.8 3.8-2.2 3.8-2.2l2.5-1-1.9 1-.8 1.6-1.2 1.8 1.8-.6 1.2-1.4s-.8 2.5-1 4.7a13 13 0 0 0 0 4.3l.6 2.5c0-.3 1.4-2.7 1.4-2.7a22 22 0 0 0 5.6 9.6c1.5 1.6 2.5 1.7 2.5 1.7l-.7-2.1-1.5-2 1.7 2s.3.6 1.8 1.4a15 15 0 0 0 7.9 2.2l.7-.2-1.8-1.6h3l7.7-1.9 6.6-2.7 9.8.6"/><path id="path601" fill="#e3e4e5" fill-rule="evenodd" d="m376 398.5-3.1 4 4.9-2.7-1.8-1.3z"/><path id="path602" fill="#e3e4e5" fill-rule="evenodd" d="m378 401-1.5 5.3 4-3.5-2.4-1.7z"/><path id="path603" fill="#e3e4e5" fill-rule="evenodd" d="M382.5 403.6v4.7l3.5-4-3.5-.7z"/><path id="path604" fill="#c8b100" fill-rule="evenodd" d="m340.5 385.5.4 2.3c.2.8.4 1 .4 1"/><path id="path605" fill="#c8b100" fill-rule="evenodd" d="m335.6 388 .7 3.1"/><path id="path606" fill="#e3e4e5" fill-rule="evenodd" d="M327 365.5c.6.7 1 2-.3 2a3 3 0 0 0-1.1 2.1c0 .8 0 1.8.8 2.4 1-.4 1.9-1.4 2.3-2.3.3-1-.5-2-1-2.7-.3-.5-.3-1.1-.7-1.5z"/><path id="path607" fill="#058e6e" fill-rule="evenodd" d="M320.4 370.2c-.3 1-1.2 1.7-1 2.8l-.2.5"/><path id="path608" fill="#008f4c" fill-rule="evenodd" d="M312.6 379.4c1-.3 1.7-1.1 2.7-1.3.9-.5 1.5-1.4 2.5-1.8 1.2-.4 2.2-1.5 3.5-1.2.9.2.8 1.3 0 1.5"/><path id="path609" fill="#058e6e" fill-rule="evenodd" d="M332.6 373.6c-.3.4-.8-.3-1.2-.5-.4-.3-.4-.4-.6-.7v-.4"/><path id="path610" fill="#000" fill-rule="evenodd" stroke-linejoin="round" d="m328 370.5-.2-.8a1 1 0 0 0-.3-.5c-.2-.2-.4-.5-.7-.6l-.7-.2c-.3 0 0 .3.1.4l.6.4.6.9.6.4z"/><path id="path611" fill="#008f4c" fill-rule="evenodd" d="m334.7 359.6-1 1c-.3.2-.5.2-.7.5-.3.3-.6.4-.7.8 0 .5 0 .6.3.8.3.2.9-.1 1-.2.5-.3.5-.2.4-.8 0-.3-.2-.1-.5-.3"/><path id="path612" fill="#008f4c" fill-rule="evenodd" d="M314 377.4c2-2 4.4-3.7 7.2-4.4"/><path id="path613" fill="#008f4c" fill-rule="evenodd" d="M452 375c.3 1.5-3.5-2.2-5.9-1.7-3.2.7-5.7 4-5.7 4l2-5.3s-3.6 1.3-4.3 2.8c-.6 1.5-7.2 9.1-12.7 8.2a18.2 18.2 0 0 1-14.2-14.3 8 8 0 0 1 6.1-8.6c3.3-.8 7.1-.3 8.8 5 1.6 5.1.4 6.1-.4 9.5-.6 2.4-1.5 3.6-1.5 3.6a20.6 20.6 0 0 1-4.4-4.6s2.6-3.1 1.6-5.8c-1-2.3-1.1-2.4-2.5-2.5-1.4 0-2.4 1.8-1.9 4 .4 2.2 1.9 3 2.5 4.1s4.3 4.7 5.6 5.1c1.3.5 2.3 1 4.8-.5s3.6-1.8 6.3-5.2c3-3.9 5.7-3.4 5.7-3.4l-3.7-2.8s5.4-1.6 9.3 1.8c3.4 3 4.2 4.5 4.5 6.5z"/><path id="path614" fill="none" d="M422 382c-.6.4-1.7.4-2.7.3l-2.2.1"/><path id="path615" fill="none" d="m418 385.5-2-.1c-.5 0-.6-.2-.8-.2"/><path id="path616" fill="none" d="m413.5 388.5-2.1-.2c-.3 0-.7-.6-.7-.7"/><path id="path617" fill="#008f4c" fill-rule="evenodd" d="M404.1 386.6c2.3 2.8 6 4.9 6 4.9s.9 2.4.5 3.5c-.3 1-1.6 2.5-1.6 2.5s-6.2.7-11.7 1.8c-5.4 1-10.9 6-10.9 6l-4.9-.5s-.1-1.4.7-2.3c.9-1-1.6 1.5-1.6 1.5s-1.4.2-2.4-1.4c-1-1.6 1-2.8 1-2.8l-2.4.7s-1.3-.5-1.3-1.8 1.8-2.4 1.8-2.4 3.4 0 5.8.5 4.8 1.6 4.8 1.6 1-1.9 3-2.3c2-.5 4.9-.6 4.9-.6s-4.3-.4-7-4.8"/><path id="path618" fill="#008f4c" fill-rule="evenodd" d="M367.7 389.1s1.8 2.1 3.8 5.3c2 3.2 2.6 6.4 2.6 6.4s-1.4 3.2-4.5 4.4c-3.1 1.2-7.6.5-7.6.5l-8.7-2.8-2.3 1s-.3-1.4-1.8-1.5c-1.6 0-2.8.8-2.8.8l-2-1.6s-2.4 0-3.2-1.3-.8-2-.8-2l-1-2s2.8-1.7 5-2c2.3-.1 2.8.5 4 1.2s2 2.6 2 2.6 3.6 0 5.4.3c2 .3 5.2 1.4 5.2 1.4s-1.8-1.1-3.3-3.3c-1.5-2.1-1.9-4-1.9-4"/><path id="path619" fill="none" d="M381.5 396.7c-.8-1.2-1-3-.9-4.8v-2"/><path id="path620" fill="none" d="M375.5 398c-.8-.2-1-1-1.3-1.7-.4-.7-.8-1.5-.8-2.3l.1-2.5"/><path id="path621" fill="none" d="M387.9 398.6c0-.6-.8-.9-.9-1.5l-.6-4.5.2-.8"/><path id="path622" fill="#e3e4e5" fill-rule="evenodd" d="m339.6 396.1-2 1.2c-.8.5-1 2.3-1 2.3l4.2-1.8-1.2-1.7z"/><path id="path623" fill="#e3e4e5" fill-rule="evenodd" d="m341 399.8-1.5 3.5 3.8-2.2-2.2-1.3z"/><path id="path624" fill="#e3e4e5" fill-rule="evenodd" d="M344.8 401.6v4.2l2.4-3.5-2.4-.7z"/><path id="path625" fill="none" d="M340.3 399c-.2-.7 0-1 .6-1.4.4-.3 1-.4 1.7-.6"/><path id="path626" fill="none" d="M343.6 401.2a7 7 0 0 0 1.5-1.5l1-.2"/><path id="path627" fill="none" d="M348.2 395.2c-.2-.4 0-1.6-.1-2.4"/></g></g><!-- app4joy --></svg>