<svg xmlns="http://www.w3.org/2000/svg" xmlns:xlink="http://www.w3.org/1999/xlink" id="svg16" width="750" height="500" version="1.1" viewBox="0 0 750 500"><g id="g18"><path id="rect1" fill="#9c1f2d" d="M0 0h750v500H0z"/></g><g id="g17"><g id="castle" fill="#fcb714" stroke="#000" stroke-width=".7"><path id="path1" d="m37.4 113.3 15.2-50.7h31.2L99 113.3H78.7V91.5l-.1-1-.1-1.2-.3-1-.4-1-.4-.8-.6-.9-.5-.7-.7-.8-.7-.7-.9-.6-.9-.5-.8-.5-1-.4-1-.2-1-.1-1-.1h-1.8l-.5.2-1 .2-1 .4-.9.5-.8.5-.9.6-.6.7-.8.8-.6.7-.5 1-.4.8-.5 1-.2 1v1l-.2.6v22.3H37.4"/><path id="path2" d="M55.2 42.5v9.7h4V33.9H49v8.6h6.3"/><path id="path3" d="M63.9 52.2v-9.7h8.6v9.7h.8V27.7H63v24.5h.9"/><path id="path4" d="M81.3 52.2v-9.7h6.2V34H77.2v18.3h4"/><path id="path5" d="M55.2 42.5v9.7H64v-9.7h8.6v9.7h8.8v-9.7H90v16.7H46.6V42.5h8.6"/><path id="path6" stroke-width=".8" d="M46.4 33h15.3v-5.8H46.4V33z"/><path id="path7" stroke-width=".8" d="M60.5 26.8h15.3v-6H60.5v6z"/><path id="path8" stroke-width=".8" d="M74.7 33H90v-5.8H74.7V33z"/></g><use xlink:href="#castle" id="use8" x="72.6"/><use xlink:href="#castle" id="use9" y="106.2"/><use xlink:href="#castle" id="use10" x="72.6" y="106.2"/></g><g id="g16"><path id="crown" fill="#fcb714" stroke="#000" stroke-linejoin="round" stroke-width=".7" d="M609.3 369.3c0-1.8-.6-3.5-1.3-5.1a40 40 0 0 0-4.2-7.1l4.8 1.6c1.3.7 2.7 1.3 3.9 2.3.6.5 1.2 1.1 1.5 1.9 0 .7 0 1.6-.7 2-.5.6-1.2.8-1.9 1 0 1 .5 1.7 1 2.5.9.7 2 1 3.1.9a5.7 5.7 0 0 0 4-2.6c.5-.8.6-1.3 1-.1.5.7 1.1 1.4 1.8 2 1.1.8 2.6 1 4 1a5 5 0 0 0 2.4-.7c.8-.8.7-2 .4-3-.4-.6-1.3-.8-2-.5-.6-.2-1.8.7-1.2-.4.2-.8.8-1.5 1.3-2.1.5-.4 1.2-.7 1.7-.8.6-1.2 1.3-2.7 2.6-3.3 1 0 1.8 1 2.3 1.8.5.5.6 1.6 1.2 1.6 1 .3 1.9 1 2.3 2 .2.3 1 1.8.2 1.3-.8-.1-1.6-.4-2.3-.1-.8.2-1 .9-1 1.6-.1 1 .4 2 1.4 2.2a7 7 0 0 0 3.6.2c1-.2 2-.7 2.7-1.5a7 7 0 0 0 1.6-2.2 7.5 7.5 0 0 0 2.6 3c1.4.7 3.2 1 4.6 0 1-.6 1.3-1.7 1.4-2.8-.7-.2-1.4-.6-2-1-1.1-.8-.6-2.5.3-3.3 1-1 2.2-1.8 3.5-2.4 1.1-.5 2.2-1.1 3.5-1.3a26 26 0 0 1 2.5-.8c-1.1 1.3-2 2.8-3 4.2-.9 1.9-2 3.8-2.3 5.9-.5 1.9-.2 3.9-.3 5.8v8.2h-45v-12"/><use xlink:href="#crown" id="use11" x="-61.9" y="31.5"/><use xlink:href="#crown" id="use12" y="31.5"/><use xlink:href="#crown" id="use13" x="61.9" y="31.5"/><use xlink:href="#crown" id="use14" x="-34" y="63.4"/><use xlink:href="#crown" id="use15" x="33.9" y="63.4"/><use xlink:href="#crown" id="use16" y="94.9"/></g><!-- app4joy --></svg>