<svg xmlns="http://www.w3.org/2000/svg" id="svg479" width="750" height="500" version="1.1" viewBox="0 0 750 500"><g id="g479"><path id="path1" fill="#da121a" d="M0 0h750v500H0Z" style="fill-rule:evenodd"/></g><g id="g226" stroke="#000" style="display:inline;fill-rule:evenodd" transform="translate(782.2 299.5) scale(.09937)"><path id="path2" fill="#ed1c24" stroke-width=".9" d="M-459.6 711.1c31.8 0 63 3 80.6 6 21.7 2.4 31 8.6 46.6 9.8 14.9 1.2 95.3 38.4 82 88.5l-8.1 18.2-33.7 13.4-5.3 3.7-3.7 12-157.3-20.5-144.8 19.5-7.1-10.6-7.7-1c-11 2.5-32.1-12.6-40.7-18.3l-8.3-5s-8-1.1.6-11.4c-22.4-15.1 37.5-85.4 80.2-88.5 13.6-1 32.3-6.7 48.4-10.1 22.2-4.1 46.6-5.7 78.3-5.7z" transform="matrix(2.84552 0 0 3.0261 -2790.5 -3566.3)"/><g id="g6" fill="#eac102"><path id="path3" fill-rule="nonzero" stroke-linecap="round" stroke-linejoin="round" stroke-width=".3" d="M-20.6 58.8C17.8 45.3 61.4 46 97 58c-2.7 3.2-5.3 7-4.4 10.2-36.5-10.8-65.1-13.5-107.8.2.2-4.2-1.3-8.6-5.4-9.7z" transform="matrix(8.74702 0 0 11.59184 -4435.5 -1651.4)"/><path id="path4" fill-rule="evenodd" stroke-width=".2" d="M59 45.5v2.1l-.2 1.6-.2 1a13 13 0 0 1-2 3c-.7.8-1.6 1.6-2.8 1.4a6.7 6.7 0 0 1-5.1-3.2l-.5-1 .1-.5v-1c-.2-.2-.2-.4-.5-.6l-.3-.1h-.2c-.3.2-.4.5-.5.8l.1.8.3.7c0 .5 0 1-.3 1.6a5.7 5.7 0 0 1-4.4 4c-2 .3-3.7-1.1-5-2.4a9 9 0 0 1-1.3-1.7c0-.4 0-.7-.3-1l-.2-.4-.5.2c-.2.2-.2.4-.2.5v.4l.3.7c.3 1 .3 1.8-.1 2.8a7 7 0 0 1-2.7 3.3c-1.6.8-2.8.6-4 .3-1.2-.4-2.3-1.2-3.6-2.4l-.9-.8v1.2c.3 2.4 0 3.6-.8 4.4a10 10 0 0 1-3.4 2.5c-1.3.6-3-.7-4.5-1.6a13 13 0 0 1-2.3-2v.3l-1-.3.1.4v.1l.2.2.6.6c.5.5 1.1 1 2 1.5 1.4 1 3.5 2.6 5.3 1.8 1.5-.7 3.1-.7 4-1.7.8-.9 7-2.7 8.8-3.6 1.4-.7 7.3-2 9.7-2.4 3-.4 8.1-1.7 11-1.4 1.5.2 10 .2 11.6 0 2.9-.3 8 1 11 1.4 2.4.5 17.6 5 18.3 6 1 1 2.7 1 4.2 1.7 1.8.8 3.9-.7 5.4-1.8a14 14 0 0 0 2.5-2l.1-.3v-.1c.1 0 .2-.1.1-.4l-1 .3v-.3.1l-.5.5c-.4.4-1 1-1.7 1.4-1.5 1-3.2 2.2-4.5 1.6a10 10 0 0 1-3.4-2.5c-.7-.8-1-2-.9-4.4l.1-1.2-1 .8a9.2 9.2 0 0 1-3.5 2.4c-1.2.3-2.4.5-4-.3a7 7 0 0 1-2.7-3.3c-.4-1-.4-1.9-.2-2.7l.4-.8v-.4s0-.3-.3-.5l-.4-.2-.2.4c-.2.3-.2.6-.3 1a9 9 0 0 1-1.4 1.8c-1.2 1.2-2.9 2.6-4.9 2.3a5.7 5.7 0 0 1-4.4-4c-.3-.6-.3-1.1-.3-1.6l.3-.7V49c0-.3 0-.6-.4-.8h-.5c-.3.3-.3.5-.4.8l-.1 1v.4c0 .3-.1.6-.4 1-.9 1.3-2.4 3-5 3.2-1.3.2-2.2-.6-3-1.4a13 13 0 0 1-2-3l-.1-1-.1-1.6v-2h-.6Z" transform="matrix(12.30013 0 0 11.54683 -4829.8 -1754.3)"/><path id="path5" fill-rule="nonzero" stroke-linecap="round" stroke-linejoin="round" stroke-width=".2" d="M58.3 75.6a109 109 0 0 0-31.6 5l-2.5 1c-.7.4-1 .5-1.6 1-.5.5-.4 1 0 1.2.6.4 1.1.1 2-.4l.6-.3 2.3-1a107 107 0 0 1 30.8-4.9 103.4 103.4 0 0 1 30 4.7c1.9.7 3.2 1.5 3.4 1.7.5.4 1.2 1 1.6.5.4-.5.4-1.2 0-1.6-.9-.8-2.2-1.4-4.3-2.1a105.6 105.6 0 0 0-30.7-4.8Z" transform="matrix(14.60322 0 0 18.87412 -4948.6 -2541.3)"/><path id="path6" fill-rule="evenodd" stroke-width=".2" d="M59 45.5v2.1l-.2 1.6-.2 1a13 13 0 0 1-2 3c-.7.8-1.6 1.4-2.8 1.2a6.7 6.7 0 0 1-5.1-3l-.5-1 .1-.5v-1c-.2-.2-.2-.4-.5-.6l-.3-.1h-.2c-.3.2-.4.5-.5.8l.1.8.3.7c0 .5 0 1-.3 1.6a5.7 5.7 0 0 1-4.4 4c-2 .3-3.7-1.1-5-2.4a9 9 0 0 1-1.3-1.7c0-.4 0-.7-.3-1l-.2-.4-.5.2c-.2.2-.2.4-.2.5v.4l.3.7c.3 1 .3 1.8-.1 2.8a7 7 0 0 1-2.7 3.3c-1.6.8-2.8.6-4 .3-1.2-.4-2.3-1.2-3.6-2.4l-.9-.8v1.2c.3 2.4 0 3.6-.8 4.4-.7.8-1.9 1.8-3.4 2.4-1.3.6-3-.6-4.5-1.5a13 13 0 0 1-2.3-2v.3l-1-.3.1.4v.1l.2.2.6.6c.5.5 1.1 1 2 1.5 1.4 1 3.5 2.5 5.3 1.7 1.5-.7 2.8-1.6 3.8-2.7.7-.9 1-2.2 1-4 1 .8 2 1.5 3.2 1.9a6 6 0 0 0 4.8-.4 7.7 7.7 0 0 0 3-3.9c.3-.5.4-1 .4-1.6l.5.6c1.3 1.3 3.4 3 5.8 2.5 3-.4 4.5-2.7 5.2-4.6V52c1 1.5 2.9 3.1 5.8 3.4 1.5.2 2.8-.6 3.7-1.6 1-1 1.6-2.1 2.1-3.1.5 1 1.2 2.2 2 3.1 1 1 2.3 1.8 3.8 1.6a8 8 0 0 0 5.8-3.4v.4a7 7 0 0 0 5.2 4.6c2.4.4 4.5-1.2 5.8-2.5l.5-.6c0 .6 0 1.1.3 1.6.6 1.5 1.7 3 3.1 3.7 1.8 1 3.4 1 4.8.5a9 9 0 0 0 3.2-1.9c0 1.9.3 3.2 1 4.1 1 1 2.3 2 3.8 2.7 1.8.8 3.9-.6 5.4-1.7a14 14 0 0 0 2.5-2l.1-.3v-.1c.1 0 .2-.1.1-.4l-1 .3v-.3.1l-.5.5c-.4.4-1 1-1.7 1.4-1.5 1-3.2 2-4.5 1.5a9.8 9.8 0 0 1-3.4-2.4c-.7-.8-1-2-.9-4.4l.1-1.2-1 .8a9.2 9.2 0 0 1-3.5 2.4 5 5 0 0 1-4-.5 6.8 6.8 0 0 1-2.7-3.1c-.4-1-.4-1.9-.2-2.7l.4-.8v-.4s0-.3-.3-.5l-.4-.2-.2.4c-.2.3-.2.6-.3 1a9 9 0 0 1-1.4 1.8c-1.2 1.2-2.9 2.5-4.9 2.2a5.6 5.6 0 0 1-4.4-4c-.3-.5-.3-1-.3-1.5l.3-.7V49c0-.3 0-.6-.4-.8h-.5c-.3.3-.3.5-.4.8l-.1 1v.4c0 .3-.1.6-.4 1a6.7 6.7 0 0 1-5 3c-1.3.2-2.2-.4-3-1.2a13 13 0 0 1-2-3l-.1-1-.1-1.6v-2h-.6Z" transform="matrix(12.30013 0 0 11.54683 -4829.8 -1754.3)"/></g><g id="g8" fill="#e3e4e5" fill-rule="nonzero" stroke-linejoin="round" stroke-width="1.2" transform="matrix(12.30013 0 0 11.54683 -4833.4 -1762.1)"><path id="path7" d="M-267.7 623.3a13.5 13.5 0 1 1-27 0 13.5 13.5 0 1 1 27 0z" transform="matrix(-.18373 0 0 .18373 -27.7 -59.8)"/><path id="path8" d="M-267.7 623.3a13.5 13.5 0 1 1-27 0 13.5 13.5 0 1 1 27 0z" transform="matrix(-.18373 0 0 .18373 44 -59.8)"/></g><g id="g13" stroke-width=".9"><path id="path9" fill="#e3e4e5" d="M189.1 820c0-3.5 2.6-6.3 5.8-6.3 3.1 0 5.7 2.8 5.7 6.2 0 3.5-2.6 6.3-5.7 6.3-3.2 0-5.8-2.8-5.8-6.3z" transform="matrix(-3.52224 0 0 3.48072 -3030.9 -3821.7)"/><path id="path10" fill="#e3e4e5" d="M189.1 820c0-3.5 2.6-6.3 5.8-6.3 3.1 0 5.7 2.8 5.7 6.2 0 3.5-2.6 6.3-5.7 6.3-3.2 0-5.8-2.8-5.8-6.3z" transform="matrix(3.52224 0 0 3.48072 -5165 -3821.7)"/><g id="g12" fill="#008f4c"><path id="path11" d="m150.9 831.3 6.3-9.6 17.7 2.6-14.1 11.8z" transform="matrix(-2.59932 -.47407 -.5316 2.56869 -2765.7 -2970.7)"/><path id="path12" d="m150.9 831.3 6.3-9.6 17.7 2.6-14.1 11.8z" transform="matrix(2.59932 -.47407 .5316 2.56869 -5430.2 -2970.7)"/></g></g><g id="g78" fill="#eac102" stroke-width="1" transform="matrix(2.61705 0 0 2.45677 2378.5 -1632.3)"><g id="g61" stroke-width="1"><g id="g20" fill-rule="nonzero" stroke-linejoin="round"><g id="g15" fill="#eac102"><path id="path13" d="M-493.5 507.2C-347.5 476.4-343 617.7-374 676l-6.7-4.6c2.8-15.6 16.1-51.4-.3-81.1a122.3 122.3 0 0 0-110.3-65.7z" transform="translate(-1872.8 -467.2)"/><path id="path14" d="M-502.6 507.2c140.7-13.6 161.7 115.4 130.9 173.6l-11.4-9.4c6.7-7 15.7-46.7 4-74.5-26-61-80.9-75.6-121.3-72.3z" transform="translate(-1864.2 -471.3)"/><path id="path15" d="M-511.7 516.3c139-30.2 153.4 94.9 155.7 150.4l-22 19.3c0-3.8 0-16.8-.4-20.7-.2-3.2-.7 2.7.5-.3 22.8-51.8-21.9-153.8-129.3-139.2z" transform="translate(-1858.2 -477.2)"/></g><g id="g19" fill="#e3e4e5" stroke-width="1"><path id="path16" d="M-2296.4 42.3a11.5 11.5 0 1 1-23 0 11.5 11.5 0 1 1 23 0z"/><path id="path17" d="M-2319 38.2a9.7 9.7 0 1 1-19.4 0 9.7 9.7 0 1 1 19.4 0z"/><path id="path18" d="M-2339.1 39.3a8.6 8.6 0 1 1-17.2 0 8.6 8.6 0 1 1 17.2 0z"/><path id="path19" d="M-2355.8 40.4a7.3 7.3 0 1 1-14.6 0 7.3 7.3 0 1 1 14.6 0z"/></g></g><g id="g60" fill="#eac102" transform="matrix(-1 0 0 1 -2994.1 -425.3)"><g id="g22" fill="#eac102" fill-rule="nonzero" stroke-linejoin="round" stroke-width="1"><path id="path20" d="M-493.5 507.2C-347.5 476.4-343 617.7-374 676l-6.7-4.6c9-29.6 12.2-57.4-.3-81.1-27-51-74.8-66.5-110.3-65.7z" transform="translate(82.5 -41.9)"/><path id="path21" d="M-502.6 507.2c140.7-13.6 161.7 115.4 130.9 173.6l-11.4-9.4c8.9-9.9 14.3-47.4 4-74.5-23.7-62-80.9-75.6-121.3-72.3z" transform="translate(91.1 -46)"/><path id="path22" d="M-511.7 516.3c139-30.2 153.4 94.9 155.7 150.4l-22 19.3c0-3.8 0-16.8-.4-20.7-.2-3.2-.7 2.7.5-.3 22.8-51.8-21.9-153.8-129.3-139.2z" transform="translate(97 -52)"/></g><path id="path23" fill="#e3e4e5" stroke-width=".9" d="M-464.8 658.4c0-3.6 2.8-6.4 6.2-6.3 3.3 0 6 3 6 6.5-.1 3.6-2.9 6.4-6.2 6.3-3.4 0-6-3-6-6.5z" transform="matrix(1.12747 0 0 1.00912 -2.6 -208.1)"/><g id="g59" fill-rule="nonzero" stroke-linejoin="round" stroke-width="1"><g id="g35" fill="#e3e4e5"><path id="path24" d="M-249 615.2a16 16 0 1 1-32.2 0 16 16 0 1 1 32.2 0z"/><path id="path25" d="M-246.5 584.9a15 15 0 1 1-30 0 15 15 0 1 1 30 0z"/><path id="path26" d="M-249.6 556.2a14.1 14.1 0 1 1-28.3 0 14.1 14.1 0 1 1 28.3 0z"/><g id="g29"><path id="path27" d="M-267.7 623.3a13.5 13.5 0 1 1-27 0 13.5 13.5 0 1 1 27 0z" transform="translate(12 -102.8) scale(1.01634)"/><path id="path28" d="M-267.7 623.3a13.5 13.5 0 1 1-27 0 13.5 13.5 0 1 1 27 0z" transform="translate(-3.6 -125.6) scale(1.01634)"/><path id="path29" d="M-267.7 623.3a13.5 13.5 0 1 1-27 0 13.5 13.5 0 1 1 27 0z" transform="translate(-21.8 -146.1) scale(1.01634)"/></g><g id="g34"><path id="path30" d="M-318 474.5a12.4 12.4 0 1 1-24.7 0 12.4 12.4 0 1 1 24.7 0z"/><path id="path31" d="M-341.2 467.6a11.5 11.5 0 1 1-23 0 11.5 11.5 0 1 1 23 0z"/><path id="path32" d="M-363.7 463.5a9.7 9.7 0 1 1-19.5 0 9.7 9.7 0 1 1 19.5 0z"/><path id="path33" d="M-383.8 464.7a8.6 8.6 0 1 1-17.3 0 8.6 8.6 0 1 1 17.3 0z"/><path id="path34" d="M-400.6 465.8a7.3 7.3 0 1 1-14.6 0 7.3 7.3 0 1 1 14.6 0z"/></g></g><g id="g58"><path id="path35" fill="#eac102" d="m-496.6 471.7-6-22.3c127 7.3 135.2 65.8 130.6 127.8l-40.8 8c1.1-8.5 1.7-7.5 1.5-16.2-1.8-62.4-16.6-94.4-85.3-97.3z"/><path id="path36" fill="#eac102" d="m-497.3 464.5-5.3-15.1c119 7.9 128.4 66.4 123.9 126.8l-33 10c7.3-54 17.2-117.2-85.6-121.7z"/><g id="g45" fill="#e3e4e5"><path id="path37" d="M-376.7 551.3a16 16 0 1 1-32.1 0 16 16 0 1 1 32.1 0z"/><path id="path38" d="M-380.2 525.1a15.2 15.2 0 1 1-30.4 0 15.2 15.2 0 1 1 30.4 0z"/><path id="path39" d="M-389.2 498.1a15.2 15.2 0 1 1-30.4 0 15.2 15.2 0 1 1 30.4 0z"/><path id="path40" d="M-408.8 477.3a12.2 12.2 0 1 1-24.5 0 12.2 12.2 0 1 1 24.5 0z"/><path id="path41" d="M-426.9 466.3a11 11 0 1 1-21.9 0 11 11 0 1 1 22 0z"/><path id="path42" d="M-447 459.8a9.9 9.9 0 1 1-19.8 0 9.9 9.9 0 1 1 19.8 0z"/><path id="path43" d="M-466.4 458.3a8.8 8.8 0 1 1-17.7 0 8.8 8.8 0 1 1 17.7 0z"/><path id="path44" d="M-484.1 457a7.1 7.1 0 1 1-14.3 0 7.1 7.1 0 1 1 14.3 0z"/><path id="path45" d="M-499 457a6.3 6.3 0 1 1-12.5 0 6.3 6.3 0 1 1 12.5 0z"/></g><g id="g57" transform="matrix(-1 0 0 1 -1037.3 0)"><path id="path46" fill="#eac102" d="m-496.6 471.7-6-22.3c127 7.3 135.2 65.8 130.6 127.8l-40.8 8c1.1-8.5 1.7-7.5 1.5-16.2-1.8-62.4-16.6-94.4-85.3-97.3z"/><path id="path47" fill="#eac102" d="m-497.3 464.5-5.3-15.1c119 7.9 128.4 66.4 123.9 126.8l-33 10c7.3-54 17.2-117.2-85.6-121.7z"/><g id="g56" fill="#e3e4e5"><path id="path48" d="M-376.7 551.3a16 16 0 1 1-32.1 0 16 16 0 1 1 32.1 0z"/><path id="path49" d="M-380.2 525.1a15.2 15.2 0 1 1-30.4 0 15.2 15.2 0 1 1 30.4 0z"/><path id="path50" d="M-389.2 498.1a15.2 15.2 0 1 1-30.4 0 15.2 15.2 0 1 1 30.4 0z"/><path id="path51" d="M-408.8 477.3a12.2 12.2 0 1 1-24.5 0 12.2 12.2 0 1 1 24.5 0z"/><path id="path52" d="M-426.9 466.3a11 11 0 1 1-21.9 0 11 11 0 1 1 22 0z"/><path id="path53" d="M-447 459.8a9.9 9.9 0 1 1-19.8 0 9.9 9.9 0 1 1 19.8 0z"/><path id="path54" d="M-466.4 458.3a8.8 8.8 0 1 1-17.7 0 8.8 8.8 0 1 1 17.7 0z"/><path id="path55" d="M-484.1 457a7.1 7.1 0 1 1-14.3 0 7.1 7.1 0 1 1 14.3 0z"/><path id="path56" d="M-499 457a6.3 6.3 0 1 1-12.5 0 6.3 6.3 0 1 1 12.5 0z"/></g></g></g></g></g></g><g id="g70" fill-rule="nonzero" stroke-linejoin="round"><g id="g67" fill="#e3e4e5" stroke-width="1"><path id="path61" d="M-2204.3 189.9a16 16 0 1 1-32.2 0 16 16 0 1 1 32.2 0z"/><path id="path62" d="M-2201.8 159.6a15 15 0 1 1-30 0 15 15 0 1 1 30 0z"/><path id="path63" d="M-2205 131a14.1 14.1 0 1 1-28.1 0 14.1 14.1 0 1 1 28.2 0z"/><g id="g66"><path id="path64" d="M-267.7 623.3a13.5 13.5 0 1 1-27 0 13.5 13.5 0 1 1 27 0z" transform="translate(-1943.3 -528.1) scale(1.01634)"/><path id="path65" d="M-267.7 623.3a13.5 13.5 0 1 1-27 0 13.5 13.5 0 1 1 27 0z" transform="translate(-1958.9 -551) scale(1.01634)"/><path id="path66" d="M-267.7 623.3a13.5 13.5 0 1 1-27 0 13.5 13.5 0 1 1 27 0z" transform="translate(-1977.1 -571.4) scale(1.01634)"/></g><path id="path67" d="M-2273.3 49.2a12.4 12.4 0 1 1-24.7 0 12.4 12.4 0 1 1 24.7 0z"/></g><g id="g69" fill="#eac102" stroke-width=".9" transform="matrix(1.12932 0 0 1.05472 -2283.1 -1192.8)"><path id="path68" d="M-145.2 1200.7a24.2 68 0 1 1-48.5 0 24.2 68 0 1 1 48.5 0z" opacity="1"/><path id="path69" d="M-151.1 1200.7a18.3 56.8 0 1 1-36.7 0 18.3 56.8 0 1 1 36.7 0z" opacity="1"/></g></g><g id="g77" fill="#e3e4e5"><g id="g73" stroke-width=".9" transform="matrix(1.12747 0 0 1.00912 -1958 -633.4)"><path id="path70" d="M-464.8 658.4c0-3.6 2.8-6.4 6.2-6.3 3.3 0 6 3 6 6.5-.1 3.6-2.9 6.4-6.2 6.3-3.4 0-6-3-6-6.5z"/><path id="path71" d="M-466.8 669.2c0-4.7 3.8-8.5 8.2-8.4 4.5.1 8 4 8 8.7a8.3 8.3 0 0 1-8.3 8.4c-4.4 0-8-4-8-8.7z"/><path id="path72" d="M-469.6 683.4c0-6.4 5-11.5 11-11.3 6.1 0 11 5.3 10.8 11.7a11.2 11.2 0 0 1-11.1 11.4c-6-.2-10.9-5.4-10.7-11.8z"/><path id="path73" d="M-470.8 698c.1-7.3 5.6-13 12.3-13 6.6.2 12 6.2 11.8 13.5 0 7.4-5.6 13.2-12.3 13-6.6 0-11.9-6-11.8-13.5z"/></g><path id="path74" stroke-width=".9" d="M-470.8 718c.1-7.3 5.6-13.1 12.3-13 6.6.2 12 6.2 11.8 13.5 0 7.4-5.6 13.2-12.3 13-6.6-.1-11.9-6.1-11.8-13.5z" transform="matrix(1.229 0 0 1.09999 -1911.3 -707)"/><path id="path75" fill-rule="nonzero" stroke-linejoin="round" stroke-width="1" d="M-2454.3 31.6a6.3 6.3 0 1 1-12.5 0 6.3 6.3 0 1 1 12.5 0z"/><path id="path76" fill-rule="nonzero" stroke-linejoin="round" stroke-width="1" d="M-2448.1 16.3a26.6 26.6 0 1 1-53.2 0 26.6 26.6 0 1 1 53.2 0z"/><path id="path77" stroke-width=".7" d="M-470.8 718c.1-7.3 5.6-13.1 12.3-13 6.6.2 12 6.2 11.8 13.5 0 7.4-5.6 13.2-12.3 13-6.6-.1-11.9-6.1-11.8-13.5z" transform="matrix(1.43207 0 0 1.28174 -1818.2 -814)"/></g><path id="path78" fill="#eac102" fill-rule="nonzero" stroke-linejoin="round" stroke-width="1" d="M-2448.1 16.3a26.6 26.6 0 1 1-53.2 0 26.6 26.6 0 1 1 53.2 0z"/></g><g id="g80" fill="none" stroke-width="1" transform="matrix(2.48836 -.72792 .82506 2.48555 -2523.8 -2390.3)"><path id="path79" fill="#eac102" d="M-930.7 248.8c-5.6 4.6-8.5 4.6-10.5 10.8 0 0-1-1.3-5-2.6-3.9-1.3-7-.8-7-.8l3.1 7c1 1.8 2.1 7.5 4.6 12.4a131.8 131.8 0 0 1-16.7-6.3s-.5 3 .8 7c1.3 3.9 2.6 5 2.6 5-6.8 3.2-6.2 4.7-10.8 10.4 4.6 5.6 4.6 8.5 10.8 10.5 0 0-1.3 1-2.6 5-1.3 3.8-.8 6.9-.8 6.9s5.2-2.1 7-3c1.8-1 7.5-2.2 12.4-4.6 2.5-1.3 1.8.2 12-7.7 0 0 7.2 5.3 12.1 7.7 5 2.4 10.6 3.7 12.4 4.6l7 3s.5-3-.8-7-2.5-5-2.5-5c6.1-2 6.1-4.8 10.8-10.4-4.7-5.7-4-7.2-10.8-10.5 0 0 1.2-1 2.5-5 1.3-3.9.8-6.9.8-6.9s-5.1 2-7 3c-1.4.8-5.5 1.7-9.6 3.4 0 0 3.6-10.7 4.6-12.5.9-1.8 3-7 3-7s-3-.5-7 .8-5 2.6-5 2.6c-3.2-6.9-4.7-6.2-10.4-10.9z" transform="translate(97 -52)"/><path id="path80" fill="#e3e4e5" d="M314.3 717c0-6 5.3-11 11.9-11 6.5 0 11.9 5 11.9 11s-5.4 11-12 11c-6.5 0-11.8-5-11.8-11z" transform="matrix(1.03997 0 0 1.12767 -1172.9 -574.1)"/></g><g id="g82" fill="none" stroke-width="1" transform="matrix(-2.48836 -.72792 -.82506 2.48555 -5672 -2390.3)"><path id="path81" fill="#eac102" d="M-930.7 248.8c-5.6 4.6-8.5 4.6-10.5 10.8 0 0-1-1.3-5-2.6-3.9-1.3-7-.8-7-.8l3.1 7c1 1.8 2.1 7.5 4.6 12.4a131.8 131.8 0 0 1-16.7-6.3s-.5 3 .8 7c1.3 3.9 2.6 5 2.6 5-6.8 3.2-6.2 4.7-10.8 10.4 4.6 5.6 4.6 8.5 10.8 10.5 0 0-1.3 1-2.6 5-1.3 3.8-.8 6.9-.8 6.9s5.2-2.1 7-3c1.8-1 7.5-2.2 12.4-4.6 2.5-1.3 1.8.2 12-7.7 0 0 7.2 5.3 12.1 7.7 5 2.4 10.6 3.7 12.4 4.6l7 3s.5-3-.8-7-2.5-5-2.5-5c6.1-2 6.1-4.8 10.8-10.4-4.7-5.7-4-7.2-10.8-10.5 0 0 1.2-1 2.5-5 1.3-3.9.8-6.9.8-6.9s-5.1 2-7 3c-1.4.8-5.5 1.7-9.6 3.4 0 0 3.6-10.7 4.6-12.5.9-1.8 3-7 3-7s-3-.5-7 .8-5 2.6-5 2.6c-3.2-6.9-4.7-6.2-10.4-10.9z" transform="translate(97 -52)"/><path id="path82" fill="#e3e4e5" d="M314.3 717c0-6 5.3-11 11.9-11 6.5 0 11.9 5 11.9 11s-5.4 11-12 11c-6.5 0-11.8-5-11.8-11z" transform="matrix(1.03997 0 0 1.12767 -1172.9 -574.1)"/></g><g id="g86" fill="#eac102" stroke-width="1" transform="matrix(2.772 0 0 2.60223 2436.9 -2480.8)"><path id="path83" fill="#eac102" stroke-width="1" d="M-2607.6 516.7c7.3-.8 17.5-7.5 23.3-4.6 0 0-.2-1.7 1.6-5.4a16 16 0 0 1 4.3-5.5l2.9 7c.7 2 3.9 6.8 5.7 12a131.8 131.8 0 0 0 7.1-16.4s2.5 1.8 4.5 5.4c1.9 3.7 1.7 5.4 1.7 5.4 7.1-2.6 7.7-1.1 15-.5.8 7.3 2.9 9.2 0 15 0 0 1.7-.2 5.4 1.7 3.7 1.8 5.5 4.3 5.5 4.3l-7 2.9c-2 .6-6.8 3.9-12 5.7-2.6.9-1 1.4-13.9 3.2-.3-1.1-4.8-4.6-13.2-2-6.8-4.9-36.7-30-30.9-28.2z"/><path id="path84" fill="#e3e4e5" stroke-width=".9" d="M314.3 717c0-6 5.3-11 11.9-11 6.5 0 11.9 5 11.9 11s-5.4 11-12 11c-6.5 0-11.8-5-11.8-11z" transform="matrix(-.72542 .7452 .80803 .78659 -2915.2 -268.8)"/><path id="path85" fill="#eac102" stroke-width="1" d="M-2107.3 516.7c-7.3-.8-17.5-7.5-23.3-4.6 0 0 .2-1.7-1.6-5.4a16 16 0 0 0-4.3-5.5l-2.9 7c-.6 2-3.9 6.8-5.7 12a131.8 131.8 0 0 1-7.1-16.4s-2.5 1.8-4.4 5.4c-2 3.7-1.8 5.4-1.8 5.4-7.1-2.6-7.7-1.1-15-.5-.8 7.3-2.9 9.2 0 15 0 0-1.6-.1-5.4 1.7a15.6 15.6 0 0 0-5.5 4.3l7 2.9c2 .6 6.8 3.9 12 5.7 2.6.9 1 1.4 14 3.2.3-1.1 4.7-4.6 13-2 6.9-4.9 36.8-30 31-28.2z"/><path id="path86" fill="#e3e4e5" stroke-width=".9" d="M314.3 717c0-6 5.3-11 11.9-11 6.5 0 11.9 5 11.9 11s-5.4 11-12 11c-6.5 0-11.8-5-11.8-11z" transform="matrix(.72542 .7452 -.80803 .78659 -1799.7 -268.8)"/></g><path id="path87" fill="#ed1c24" stroke-width=".9" d="m239.4 818.7-12.4 1.6c-3.1.5-6-2-6.4-5.4a6.2 6.2 0 0 1 5-7l12.4-1.6 12.7-1.7c3.1-.4 6 2 6.4 5.4.4 3.5-2 6.6-5 7z" transform="matrix(-3.5075 -.40487 -.40237 2.83755 -2675 -3211.5)"/><path id="path88" fill="#ed1c24" stroke-width=".9" d="m239.4 818.7-12.4 1.6c-3.1.5-6-2-6.4-5.4a6.2 6.2 0 0 1 5-7l12.4-1.6 12.7-1.7c3.1-.4 6 2 6.4 5.4.4 3.5-2 6.6-5 7z" transform="matrix(3.5075 -.40487 .40237 2.83755 -5517.8 -3211.5)"/><g id="g90" fill="#e3e4e5" stroke-width="1" transform="matrix(3.43814 0 0 3.39762 -7604 -4327.5)"><path id="path89" d="M275.6 808.3c0-3.4 2.5-6.2 5.7-6.2s5.7 2.8 5.7 6.2c0 3.5-2.5 6.3-5.7 6.3s-5.7-2.8-5.7-6.3z" transform="translate(699 163.1)"/><path id="path90" d="M275.6 808.3c0-3.4 2.5-6.2 5.7-6.2s5.7 2.8 5.7 6.2c0 3.5-2.5 6.3-5.7 6.3s-5.7-2.8-5.7-6.3z" transform="matrix(-1 0 0 1 1340.5 163.1)"/></g><g id="g92" fill="#e3e4e5" fill-rule="nonzero" stroke-linejoin="round" stroke-width="1.2" transform="matrix(12.30013 0 0 11.54683 -4832.4 -1754.3)"><path id="path91" d="M-267.7 623.3a13.5 13.5 0 1 1-27 0 13.5 13.5 0 1 1 27 0z" transform="matrix(-.18373 0 0 .18373 -4.2 -67.3)"/><path id="path92" d="M-267.7 623.3a13.5 13.5 0 1 1-27 0 13.5 13.5 0 1 1 27 0z" transform="matrix(-.18373 0 0 .18373 20.4 -67.3)"/></g><g id="g186" fill="none" stroke-width="1" transform="matrix(2.60637 0 0 2.60343 -5068 -1666)"><g id="g94" stroke-width="1" transform="translate(1205.9 -78.7)"><path id="path93" fill="#eac102" d="M-930.7 248.8c-5.6 4.6-8.5 4.6-10.5 10.8 0 0-1-1.3-5-2.6-3.9-1.3-7-.8-7-.8l3.1 7c1 1.8 2.1 7.5 4.6 12.4a131.8 131.8 0 0 1-16.7-6.3s-.5 3 .8 7c1.3 3.9 2.6 5 2.6 5-6.8 3.2-6.2 4.7-10.8 10.4 4.6 5.6 4.6 8.5 10.8 10.5 0 0-1.3 1-2.6 5-1.3 3.8-.8 6.9-.8 6.9s5.2-2.1 7-3c1.8-1 7.5-2.2 12.4-4.6 2.5-1.3 1.8.2 12-7.7 0 0 7.2 5.3 12.1 7.7 5 2.4 10.6 3.7 12.4 4.6l7 3s.5-3-.8-7-2.5-5-2.5-5c6.1-2 6.1-4.8 10.8-10.4-4.7-5.7-4-7.2-10.8-10.5 0 0 1.2-1 2.5-5 1.3-3.9.8-6.9.8-6.9s-5.1 2-7 3c-1.4.8-5.5 1.7-9.6 3.4 0 0 3.6-10.7 4.6-12.5.9-1.8 3-7 3-7s-3-.5-7 .8-5 2.6-5 2.6c-3.2-6.9-4.7-6.2-10.4-10.9z" transform="translate(97 -52)"/><path id="path94" fill="#e3e4e5" d="M314.3 717c0-6 5.3-11 11.9-11 6.5 0 11.9 5 11.9 11s-5.4 11-12 11c-6.5 0-11.8-5-11.8-11z" transform="matrix(1.03997 0 0 1.12767 -1172.9 -574.1)"/></g><g id="g185" stroke-width=".7"><path id="path95" d="m140.2 185.1 4.6 10.3" transform="translate(222.6 -50.8)"/><path id="path96" d="m140.2 185.1 4.6 10.3" transform="matrix(-1 0 0 1 521.8 -51)"/><path id="path97" d="M149.2 178.5V194" transform="translate(223 -50.8)"/><path id="path98" d="m144.6 183.4 2.8 11.5" transform="translate(223 -50.8)"/><path id="path99" d="m144.6 183.4 2.8 11.5" transform="matrix(-1 0 0 1 521.4 -50.8)"/><path id="path100" d="m140.2 185.1 4.6 10.3" transform="matrix(0 -.93982 1.06404 0 153.6 296.7)"/><path id="path101" d="m140.2 185.1 4.6 10.3" transform="matrix(0 .93982 1.06404 0 153.3 15.6)"/><path id="path102" d="M149.2 178.5V194" transform="matrix(0 -.93982 1.06404 0 153.6 296.4)"/><path id="path103" d="m144.6 183.4 2.8 11.5" transform="matrix(0 -.93982 1.06404 0 153.6 296.4)"/><path id="path104" d="m144.6 183.4 2.8 11.5" transform="matrix(0 .93982 1.06404 0 153.6 15.9)"/><path id="path105" d="m140.2 185.1 4.6 10.3" transform="matrix(0 -.93982 -1.06404 0 590.8 296.7)"/><path id="path106" d="m140.2 185.1 4.6 10.3" transform="matrix(0 .93982 -1.06404 0 591 15.6)"/><path id="path107" d="M149.2 178.5V194" transform="matrix(0 -.93982 -1.06404 0 590.8 296.4)"/><path id="path108" d="m144.6 183.4 2.8 11.5" transform="matrix(0 -.93982 -1.06404 0 590.8 296.4)"/><path id="path109" d="m144.6 183.4 2.8 11.5" transform="matrix(0 .93982 -1.06404 0 590.8 15.9)"/><path id="path110" d="m140.2 185.1 4.6 10.3" transform="matrix(0 -.93982 1.06404 0 153.6 296.7)"/><path id="path111" d="m140.2 185.1 4.6 10.3" transform="matrix(0 .93982 1.06404 0 153.3 15.6)"/><path id="path112" d="M149.2 178.5V194" transform="matrix(0 -.93982 1.06404 0 153.6 296.4)"/><path id="path113" d="m144.6 183.4 2.8 11.5" transform="matrix(0 -.93982 1.06404 0 153.6 296.4)"/><path id="path114" d="m144.6 183.4 2.8 11.5" transform="matrix(0 .93982 1.06404 0 153.6 15.9)"/><path id="path115" d="m140.2 185.1 4.6 10.3" transform="matrix(0 -.93982 -1.06404 0 590.8 296.7)"/><path id="path116" d="m140.2 185.1 4.6 10.3" transform="matrix(0 .93982 -1.06404 0 591 15.6)"/><path id="path117" d="M149.2 178.5V194" transform="matrix(0 -.93982 -1.06404 0 590.8 296.4)"/><path id="path118" d="m144.6 183.4 2.8 11.5" transform="matrix(0 -.93982 -1.06404 0 590.8 296.4)"/><path id="path119" d="m144.6 183.4 2.8 11.5" transform="matrix(0 .93982 -1.06404 0 590.8 15.9)"/><path id="path120" d="m140.2 185.1 4.2 9.4" transform="matrix(.95182 -.28821 .3263 .95182 45 25.6)"/><path id="path121" d="m140.2 185.1 4.6 10.3" transform="matrix(-.95182 .28821 .3263 .95182 329.7 -60.9)"/><path id="path122" d="M149.2 178.5V194" transform="matrix(.95182 -.28821 .3263 .95182 45.3 25.5)"/><path id="path123" d="m144.6 183.4 2.5 10.5" transform="matrix(.95182 -.28821 .3263 .95182 45.3 25.5)"/><path id="path124" d="m144.6 183.4 2.5 10.5" transform="matrix(-.95182 .28821 .3263 .95182 329.4 -60.5)"/><path id="path125" d="m140.2 185.1 4.6 10.3" transform="matrix(-.30667 -.89453 1.01277 -.30667 92.7 376.3)"/><path id="path126" d="M149.2 178.5V194" transform="matrix(-.30667 -.89453 1.01277 -.30667 92.6 376)"/><path id="path127" d="m144.6 183.4 2.5 10.3" transform="matrix(.30667 .89453 1.01277 -.30667 1 109)"/><path id="path128" d="m140.2 185.1 4.6 10.3" transform="matrix(-.30667 -.89453 -1.01277 .30667 508.9 250.3)"/><path id="path129" d="M149.2 178.5V194" transform="matrix(-.30667 -.89453 -1.01277 .30667 508.8 250)"/><path id="path130" d="m144.6 183.4 2.8 11.5" transform="matrix(-.30667 -.89453 -1.01277 .30667 508.8 250)"/><path id="path131" d="m140.2 185.1 4.6 10.3" transform="matrix(-.30667 -.89453 1.01277 -.30667 92.7 376.3)"/><path id="path132" d="m140.2 185.1 4.1 9.2" transform="matrix(.30667 .89453 1.01277 -.30667 .7 108.8)"/><path id="path133" d="M149.2 178.5V194" transform="matrix(-.30667 -.89453 1.01277 -.30667 92.6 376)"/><path id="path134" d="m144.6 183.4 2.5 10.3" transform="matrix(-.30667 -.89453 1.01277 -.30667 92.6 376)"/><path id="path135" d="m140.2 185.1 4.6 10.3" transform="matrix(-.30667 -.89453 -1.01277 .30667 508.9 250.3)"/><path id="path136" d="m140.2 185.1 4.2 9.4" transform="matrix(.30667 .89453 -1.01277 .30667 417.4 -17.4)"/><path id="path137" d="M149.2 178.5V194" transform="matrix(-.30667 -.89453 -1.01277 .30667 508.8 250)"/><path id="path138" d="m144.6 183.4 2.8 11.5" transform="matrix(-.30667 -.89453 -1.01277 .30667 508.8 250)"/><path id="path139" d="m144.6 183.4 2.6 10.6" transform="matrix(.30667 .89453 -1.01277 .30667 417.2 -17)"/><path id="path140" d="m140.2 185.1 4.2 9.4" transform="matrix(-.95182 -.28821 -.3263 .95182 699.9 25.6)"/><path id="path141" d="m140.2 185.1 4.6 10.3" transform="matrix(.95182 .28821 -.3263 .95182 415.2 -60.9)"/><path id="path142" d="M149.2 178.5V194" transform="matrix(-.95182 -.28821 -.3263 .95182 699.5 25.5)"/><path id="path143" d="m144.6 183.4 2.5 10.5" transform="matrix(-.95182 -.28821 -.3263 .95182 699.5 25.5)"/><path id="path144" d="m144.6 183.4 2.5 10.5" transform="matrix(.95182 .28821 -.3263 .95182 415.4 -60.5)"/><path id="path145" d="m140.2 185.1 4.6 10.3" transform="matrix(.30667 -.89453 -1.01277 -.30667 652.2 376.3)"/><path id="path146" d="M149.2 178.5V194" transform="matrix(.30667 -.89453 -1.01277 -.30667 652.3 376)"/><path id="path147" d="m144.6 183.4 2.5 10.3" transform="matrix(-.30667 .89453 -1.01277 -.30667 743.8 109)"/><path id="path148" d="m140.2 185.1 4.6 10.3" transform="matrix(.30667 -.89453 1.01277 .30667 236 250.3)"/><path id="path149" d="M149.2 178.5V194" transform="matrix(.30667 -.89453 1.01277 .30667 236 250)"/><path id="path150" d="m144.6 183.4 2.8 11.5" transform="matrix(.30667 -.89453 1.01277 .30667 236 250)"/><path id="path151" d="m140.2 185.1 4.6 10.3" transform="matrix(.30667 -.89453 -1.01277 -.30667 652.2 376.3)"/><path id="path152" d="m140.2 185.1 4.1 9.2" transform="matrix(-.30667 .89453 -1.01277 -.30667 744.2 108.8)"/><path id="path153" d="M149.2 178.5V194" transform="matrix(.30667 -.89453 -1.01277 -.30667 652.3 376)"/><path id="path154" d="m144.6 183.4 2.5 10.3" transform="matrix(.30667 -.89453 -1.01277 -.30667 652.3 376)"/><path id="path155" d="m140.2 185.1 4.6 10.3" transform="matrix(.30667 -.89453 1.01277 .30667 236 250.3)"/><path id="path156" d="m140.2 185.1 4.2 9.4" transform="matrix(-.30667 .89453 1.01277 .30667 327.5 -17.4)"/><path id="path157" d="M149.2 178.5V194" transform="matrix(.30667 -.89453 1.01277 .30667 236 250)"/><path id="path158" d="m144.6 183.4 2.8 11.5" transform="matrix(.30667 -.89453 1.01277 .30667 236 250)"/><path id="path159" d="m144.6 183.4 2.6 10.6" transform="matrix(-.30667 .89453 1.01277 .30667 327.6 -17)"/><path id="path160" d="m140.2 185.1 4.2 9.4" transform="matrix(.74832 -.62341 .70581 .74833 -114.2 164.8)"/><path id="path161" d="m140.2 185.1 4.6 10.3" transform="matrix(-.74832 .62341 .70581 .74833 109.5 -21.9)"/><path id="path162" d="M149.2 178.5V194" transform="matrix(.74832 -.62341 .70581 .74833 -114 164.6)"/><path id="path163" d="m144.6 183.4 2.5 10.5" transform="matrix(.74832 -.62341 .70581 .74833 -114 164.6)"/><path id="path164" d="m144.6 183.4 2.5 10.5" transform="matrix(-.74832 .62341 .70581 .74833 109.4 -21.5)"/><path id="path165" d="m140.2 185.1 4.6 10.3" transform="matrix(-.51997 -.80278 -.90888 .51997 409.5 238.7)"/><path id="path166" d="M149.2 178.5V194" transform="matrix(-.51997 -.80278 -.90888 .51997 409.3 238.4)"/><path id="path167" d="m144.6 183.4 2.8 11.5" transform="matrix(-.51997 -.80278 -.90888 .51997 409.3 238.4)"/><path id="path168" d="m140.2 185.1 4.6 10.3" transform="matrix(-.51997 -.80278 -.90888 .51997 409.5 238.7)"/><path id="path169" d="m140.2 185.1 4.2 9.4" transform="matrix(.51997 .80278 -.90888 .51997 254.2 -1.6)"/><path id="path170" d="M149.2 178.5V194" transform="matrix(-.51997 -.80278 -.90888 .51997 409.3 238.4)"/><path id="path171" d="m144.6 183.4 2.8 11.5" transform="matrix(-.51997 -.80278 -.90888 .51997 409.3 238.4)"/><path id="path172" d="m144.6 183.4 2.6 10.6" transform="matrix(.51997 .80278 -.90888 .51997 254.1 -1.2)"/><path id="path173" d="m140.2 185.1 4.2 9.4" transform="matrix(-.74832 -.62341 -.70581 .74833 859.2 164.8)"/><path id="path174" d="m140.2 185.1 4.6 10.3" transform="matrix(.74832 .62341 -.70581 .74833 635.5 -21.9)"/><path id="path175" d="M149.2 178.5V194" transform="matrix(-.74832 -.62341 -.70581 .74833 858.9 164.6)"/><path id="path176" d="m144.6 183.4 2.5 10.5" transform="matrix(-.74832 -.62341 -.70581 .74833 859 164.6)"/><path id="path177" d="m144.6 183.4 2.5 10.5" transform="matrix(.74832 .62341 -.70581 .74833 635.6 -21.5)"/><path id="path178" d="m140.2 185.1 4.6 10.3" transform="matrix(.51997 -.80278 .90888 .51997 335.4 238.7)"/><path id="path179" d="M149.2 178.5V194" transform="matrix(.51997 -.80278 .90888 .51997 335.6 238.4)"/><path id="path180" d="m144.6 183.4 2.8 11.5" transform="matrix(.51997 -.80278 .90888 .51997 335.6 238.4)"/><path id="path181" d="m140.2 185.1 4.6 10.3" transform="matrix(.51997 -.80278 .90888 .51997 335.4 238.7)"/><path id="path182" d="m140.2 185.1 4.2 9.4" transform="matrix(-.51997 .80278 .90888 .51997 490.8 -1.6)"/><path id="path183" d="M149.2 178.5V194" transform="matrix(.51997 -.80278 .90888 .51997 335.6 238.4)"/><path id="path184" d="m144.6 183.4 2.8 11.5" transform="matrix(.51997 -.80278 .90888 .51997 335.6 238.4)"/><path id="path185" d="m144.6 183.4 2.6 10.6" transform="matrix(-.51997 .80278 .90888 .51997 490.8 -1.2)"/></g></g><path id="path186" fill="#008f4c" stroke-width=".8" d="m-299.9 1516-22.2-9.6 22.2-9.5 22.2 9.5z" transform="matrix(3.61682 0 0 3.34449 -3013.3 -6074.7)"/><g id="g225" fill="#eac102"><path id="path187" fill-rule="nonzero" stroke-linecap="round" stroke-linejoin="round" stroke-width="2.4" d="M489.3-307.2s26.2 36.3 18.3 48.7c-8 12.6-38.6-18.4-38.6-18.4v51s28.6-28.1 38.6-18.4V-83h14.2v-161.3c10-9.7 38.6 18.4 38.6 18.4v-51s-30.5 31-38.6 18.4c-7.9-12.4 18.4-48.7 18.4-48.7z" transform="matrix(1.47754 0 0 1.08337 -4859.3 -1436.3)"/><path id="path188" fill-rule="nonzero" stroke-linecap="round" stroke-linejoin="round" stroke-width="2.4" d="M505.2-197.7v119.5h19l.1-119.5z" transform="matrix(1.1557 0 0 1.08491 -4692.8 -1442.7)"/><path id="path189" stroke-width=".9" d="M405.5-72.4a95.3 95.3 0 0 0-43.3 0c-.2 1.2-.7 2.7-.7 3.9 0 1.2.5 2 .7 3.2a77.4 77.4 0 0 1 21.5-2.4c12.2 0 21.6 2 21.8 2.5.2-1.2.9-2.2.9-3.4 0-1.2-.7-2.6-.9-3.8z" transform="matrix(3.12536 0 0 2.93395 -5297.7 -1389)"/><path id="path190" fill-rule="nonzero" stroke-linecap="round" stroke-linejoin="round" d="M-340 401.5c-45.2 0-89.8 9.1-124 20-17.2 5.3-25.8 11.2-36.5 16.5-3 1.4-5.6 2.8-8 4.2v-.1c-8 3.6-8.8 11 0 13.8 0 0 0 0 0 0a477.8 477.8 0 0 0 44.5 20.7c33.2 11.3 78.8 20 124 20 45 0 87.7-8.3 120.6-18.6 16.4-5.2 24.4-11 35.1-16.3l10.2-5.4c8.6-4 8.3-10.8 0-14.5a177 177 0 0 0-10.2-5.4C-195 431-203 425.2-219.4 420a412.3 412.3 0 0 0-120.7-18.6z" transform="matrix(2.77198 0 0 2.71153 -3151.8 -2074.5)"/><g id="g224" transform="matrix(2.69467 0 0 4.6471 -7199.9 -3032)"><path id="path191" stroke-width=".6" d="M1103.8 489.5v-42.1"/><path id="path192" stroke-width=".9" d="M1095.2 488.4v-41"/><path id="path193" stroke-width="1.1" d="M1087.1 487.8v-39.3"/><path id="path194" stroke-width="1.4" d="M1079.1 486.6v-37"/><path id="path195" stroke-width="1.7" d="M1072 486.7v-37"/><path id="path196" stroke-width="2" d="m1058.4 484.7-.2-33.3m6.7 33.8V450"/><path id="path197" stroke-width="2.3" d="M1045.9 482.7v-29.9m6.3 31-.2-32.4"/><path id="path198" stroke-width="2.6" d="M1029 479.9v-24.5m5.5 25.6v-26.8m5.7 27.4V454"/><path id="path199" stroke-width="2.9" d="M1023.1 479v-22.8"/><path id="path200" stroke-width="3.2" d="M1017.6 477.9v-21.1"/><path id="path201" stroke-width="3.4" d="M1011.7 476.5v-18.3"/><path id="path202" stroke-width="3.7" d="m999.6 474-.2-12.4m6.4 14V460"/><path id="path203" stroke-width="3.9" d="M993.4 472.5v-10"/><path id="path204" stroke-width="4.2" d="M987.7 471.4v-7.7"/><path id="path205" stroke-width="4.5" d="M981.5 469.7v-4.6"/><path id="path206" stroke-width="4.8" d="M975.2 468v-.7"/><path id="path207" stroke-width=".3" d="M1137.8 490.4v-45m-14.5 44.1.2-43.5m-10.8 43v-42.2"/><path id="path208" stroke-width=".6" d="M1198.5 489v-41.6"/><path id="path209" stroke-width=".9" d="M1207 488.4v-41"/><path id="path210" stroke-width="1.1" d="M1215.1 488.4v-41"/><path id="path211" stroke-width="1.4" d="M1223.1 487.8v-39.3"/><path id="path212" stroke-width="1.7" d="M1230.3 486.6v-37"/><path id="path213" stroke-width="2" d="m1243.9 485.8.2-35m-6.7 35V450"/><path id="path214" stroke-width="2.3" d="M1256.4 482.7v-29.9m-6.3 32.2.2-33.6"/><path id="path215" stroke-width="2.6" d="M1273.3 481v-25.6m-5.5 26.2v-27.4m-5.7 28v-28.8"/><path id="path216" stroke-width="2.9" d="M1279.2 480.2v-24"/><path id="path217" stroke-width="3.2" d="M1284.7 478.5v-21.7"/><path id="path218" stroke-width="3.4" d="M1290.6 477.6v-19.4"/><path id="path219" stroke-width="3.7" d="m1302.7 475 .2-14.5m-6.4 15.7v-17.4"/><path id="path220" stroke-width="3.9" d="M1308.9 473.7v-11.8"/><path id="path221" stroke-width="4.2" d="M1314.5 472v-9"/><path id="path222" stroke-width="4.5" d="M1320.7 470.9v-5.8"/><path id="path223" stroke-width="4.8" d="M1327.1 469.2v-3"/><path id="path224" stroke-width=".3" d="M1164.5 491v-45m14.5 44.7-.2-44.7m10.7 44v-43.2"/></g><path id="path225" fill-rule="nonzero" stroke-linecap="round" stroke-linejoin="round" d="M-340 401.5c-45.2 0-89.8 9.1-124 20-17.2 5.3-38.7 17.7-44.5 20.7v-.1c-7.7 3.6-8.8 11 0 13.8 0 0 0 0 0 0 2.4 1.4 27 14.4 44.4 20.7a382 382 0 0 0 124 20c45 0 87.8-8.3 120.7-18.6 16.4-5.2 24.4-11 35.1-16.3l10.2-5.4c8.6-4 8.3-10.8 0-14.5a177 177 0 0 0-10.2-5.4C-195 431-203 425.2-219.4 420a412.3 412.3 0 0 0-120.7-18.6zm0 12.3c43.9 0 85.9 8.3 118 18.4 16 5 23.5 10.5 33.6 15.6l2.4 1.2-2.4 1.3c-10.1 5-17.6 10.6-33.7 15.6-32 10-74 18.3-118 18.4-44 0-87.8-9-121.3-19.6-16.6-5.2-24.8-10.7-35-15.7 10.2-5 18.4-10.5 35-15.7a418 418 0 0 1 121.3-19.5z" transform="matrix(2.77198 0 0 2.71153 -3151.8 -2074.5)"/></g><path id="path226" fill="#ed1c24" stroke-width="3.1" d="M-2754.3 1007.7s.7 503 1.9 513.2c1.3 12 7.9 18.3 12.3 22.3 7.6 6.9 66.9 33 124 54.7 13.8 5.3 46.3 18.3 72.2 29 16.2 6.5 31 12.4 40.4 15.8 8.9 2.5 15 2.5 19.9 0 9.6-3.4 24.9-9.4 40.6-15.9a4621 4621 0 0 1 72.3-28.9c57-21.7 116.3-47.8 123.8-54.7 4.5-4 12.4-6.2 12.4-22.3l2-513.2z" transform="matrix(2.5533 0 0 2.54273 2268.6 -3410.8)"/></g><g id="g478" fill="#eac102" style="display:inline;fill-rule:evenodd" transform="translate(278.8 133.3) scale(.2586)"><g id="g231" fill="#eac102" fill-rule="evenodd"><g id="g228" stroke="#110f06" stroke-width="2" transform="matrix(0 .6149 .74293 0 -39.5 647.5)"><path id="path227" fill="#eac102" fill-rule="evenodd" stroke="none" d="M207.3 553.6h10.5c.1 1.9 1.3 6.9 6 7l25.5-7H312c8 3.2 16.3 5.6 24.9 7.3 4-.4 6.6-2.5 6.8-7.3h8.6c.4 3.9-.4 7.5-1.2 11.1-2.1 4.4-5.5 5.9-9 7.5-3.7 1.3-7 .6-10.3 0l-21-6.7-6.5.2h-59c-8 2.3-15.9 4.8-24 5.5a17 17 0 0 1-14-17.6z"/><path id="path228" fill="none" stroke="#110f06" stroke-width="1.5" d="M352.4 553c.5 4-.5 8.1-1.3 11.7-2.1 4.4-5.5 5.9-9 7.5-3.7 1.3-7 .6-10.2 0l-21-6.6h-65.5c-7.9 2.4-15.8 5-23.9 5.6a17 17 0 0 1-14-17.6m10.6 0c0 1.8 1.2 6.9 5.9 7l25.4-6.6h63a127 127 0 0 0 24.5 6.8c4-.4 6.6-2.6 6.8-7.3"/></g><g id="g230" stroke="#110f06" stroke-width="2" transform="matrix(-.60296 0 0 .73553 470.6 184.5)"><path id="path229" fill="#eac102" fill-rule="evenodd" stroke="none" d="M203.8 553.6h10.8c0 1.9 1.2 6.9 6 7l26.1-7h64.4c8.1 3.2 16.6 5.6 25.4 7.3 4-.4 6.8-2.5 7-7.3h8.8c.4 3.9-.4 7.5-1.2 11.1-2.2 4.4-5.7 5.9-9.3 7.5-3.8 1.3-7.2.6-10.5 0l-21.5-6.7-6.7.2h-60.5c-8 2.3-16.2 4.8-24.5 5.5-7.7-1.3-15-8.5-14.3-17.6z"/><path id="path230" fill="none" stroke="#110f06" stroke-width="1.5" d="M352.4 553.4c.4 3.8-.5 7.7-1.3 11.3-2.2 4.4-5.7 5.9-9.3 7.5-3.8 1.3-7.2.6-10.5 0l-21.5-6.7-6.7.2h-60.5c-8 2.3-16.2 4.8-24.5 5.5-7.7-1.3-15-8.5-14.3-17.6m10.8 0c0 1.9 1.2 6.9 6 7l26.1-6.6h64.6c8.1 3.2 16.3 5 25.1 6.7 4-.4 6.8-2.4 7-7.2"/></g><path id="path231" d="M101.4 198.8v5.5c1.3 0 2.9.6 3 2.9l-3 13.5v20.5l5.3-.2v-22.4c1-4.1 2.2-8.2 2.5-12.4 0-4-3.6-7.4-7.8-7.4z" transform="matrix(1.67666 0 0 1.40042 -7.2 98)"/></g><path id="path232" fill="none" stroke="#110f06" stroke-width=".7" d="M106.9 241.5V219c1-4.1 2.2-8.2 2.5-12.4 0-4-3.6-7.4-7.9-7.3m0 5.5c1.3 0 3 .5 3 2.8l-2.8 13.5V242" transform="matrix(1.67666 0 0 1.40042 -7.2 98)"/><path id="path233" fill="none" d="M106.7 241.2v-22.6c1-4.1 2.2-8.2 2.5-12.4 0-4-3.6-7.4-7.9-7.4m0 5.6c1.3-.1 3 .5 3 2.8l-2.8 13.5v21.1" transform="matrix(1.67666 0 0 1.40042 -7.2 98)"/><path id="path234" fill="#eac102" fill-rule="evenodd" d="M101 236v16.8a85 85 0 0 1 3.3 13.5c-.2 2.2-1.2 3.6-3.4 3.7v4.6c1.8.3 3.5-.1 5.2-.5 2-1.2 2.7-3 3.5-5 .6-2 .3-3.8 0-5.5l-3.1-11.5v-16.3l-5.6.2z" transform="matrix(1.67666 0 0 1.40042 -7.2 98)"/><path id="path235" fill="none" stroke="#110f06" stroke-width=".7" d="M101.5 274.4a13 13 0 0 0 5-.5c2-1.2 2.6-3 3.3-4.8.6-2 .3-3.7 0-5.4l-3-11V237m-5.1 0v16.4c1.3 4.2 2.4 8.5 3 13-.1 2-1 3.4-3.2 3.5" transform="matrix(1.67666 0 0 1.40042 -7.2 98)"/><path id="path236" fill="#eac102" fill-rule="evenodd" d="M203.8 553.6h10.8c0 1.9 1.2 6.9 6 7l26.1-7h64.4c8.1 3.2 16.6 5.6 25.4 7.3 4-.4 6.8-2.5 7-7.3h8.8c.4 3.9-.4 7.5-1.2 11.1-2.2 4.4-5.7 5.9-9.3 7.5-3.8 1.3-7.2.6-10.5 0l-21.5-6.7-6.7.2h-60.5c-8 2.3-16.2 4.8-24.5 5.5-7.7-1.3-15-8.5-14.3-17.6z" transform="matrix(0 .73287 -.74448 0 575 317.4)"/><path id="path237" fill="none" stroke="#110f06" stroke-width="1.4" d="M352.4 553.1c.5 3.9-.5 8-1.3 11.6-2.2 4.4-5.7 5.9-9.3 7.5-3.8 1.3-7.2.6-10.5 0l-21.5-6.7-6.7.2h-60.5c-8 2.3-16.2 4.8-24.5 5.5-7.7-1.3-15-8.5-14.3-17.6m10.8 0c0 1.9 1.2 6.9 6 7l26.1-6.6h64.6c8.1 3.2 16.4 5.2 25.2 6.9 4-.4 6.6-2.9 6.9-7.6" transform="matrix(0 .73287 -.74448 0 575 317.4)"/><path id="path238" fill="#eac102" fill-rule="evenodd" d="M101.2 263.6v5.5c1.3 0 2.9.5 3 2.8l-3 13.5V306l5.3-.2v-22.4c1-4.1 2.2-8.2 2.5-12.4 0-4-3.5-7.4-7.8-7.4z" transform="matrix(1.6757 0 0 1.44735 -7.1 85.1)"/><path id="path239" fill="none" stroke="#110f06" stroke-width=".7" d="M106.5 306v-22.6c1-4.1 2.2-8.2 2.5-12.4 0-4-3.6-7.4-7.9-7.4m0 5.5c1.3 0 3 .5 3 2.8l-2.8 13.5v21.2" transform="matrix(1.6757 0 0 1.44735 -7.1 85.1)"/><g id="g244" fill="#eac102"><g id="g241" transform="matrix(0 .70387 .73052 0 452.4 485.2)"><path id="path240" fill="#eac102" fill-rule="evenodd" d="M344.8-395.7h31.8c8.2-3.1 16.6-5.6 25.4-7.2 4.1.4 6.7 2.4 7 7.2h8.7c.5-3.9-.3-7.5-1-11.1-2.3-4.3-5.7-5.9-9.4-7.5-3.7-1.3-7.1-.5-10.5 0l-21.5 6.7-30.7-.1.2 12z"/><path id="path241" fill="none" stroke="#110f06" stroke-width="1.4" d="M417.7-395.6c.5-3.8-.3-7.6-1-11.2-2.3-4.3-5.7-5.9-9.4-7.5-3.7-1.3-7.1-.5-10.5 0l-21.5 6.7h-30.7m.1 11.7h32c8.2-3 16.5-5.4 25.3-7 4.1.4 6.7 2.5 6.9 7.3"/></g><g id="g243" transform="matrix(0 .60676 .7323 0 453.1 519.5)"><path id="path242" fill="#eac102" fill-rule="evenodd" d="M269.2-395.7H280c-.1-3 1-6.5 5.6-6.7l26.7 6.7h40.5l-.3-12h-44.3c-8.1-2.4-16.2-4.9-24.5-5.6-8 0-14.6 8-14.5 17.6z"/><path id="path243" fill="none" stroke="#110f06" stroke-width="1.5" d="M352.9-407.7h-44.7c-8.1-2.4-16.2-4.9-24.5-5.6-8 0-14.6 8.1-14.5 17.7m10.9.2c-.1-3 1-6.8 5.5-7l26.7 6.4 41.7.1"/></g><path id="path244" fill-rule="evenodd" d="M344.8-395.7h31.8c8.2-3.1 16.6-5.6 25.4-7.2 4.1.4 6.7 2.4 7 7.2h8.7c.5-3.9-.3-7.5-1-11.1-2.3-4.3-5.7-5.9-9.4-7.5-3.7-1.3-7.1-.5-10.5 0l-21.5 6.7-30.7-.1.2 12z" transform="matrix(0 .59338 .73268 0 453 447.5)"/></g><path id="path245" fill="none" stroke="#110f06" stroke-width="1.5" d="M417.7-395.6c.5-3.8-.3-7.6-1-11.2-2.3-4.3-5.7-5.9-9.4-7.5-3.7-1.3-7.1-.5-10.5 0l-21.5 6.7h-30.7m.1 11.7h32c8.2-3 16.5-5.4 25.3-7 4.1.4 6.7 2.5 6.9 7.3" transform="matrix(0 .59338 .73268 0 453 447.5)"/><path id="path246" fill="#eac102" fill-rule="evenodd" d="M203.8 553.6h10.8c0 1.9 1.2 6.9 6 7l26.1-7h64.4c8.1 3.2 16.6 5.6 25.4 7.3 4-.4 6.8-2.5 7-7.3h8.8c.4 3.9-.4 7.5-1.2 11.1-2.2 4.4-5.7 5.9-9.3 7.5-3.8 1.3-7.2.6-10.5 0l-21.5-6.7-6.7.2h-60.5c-8 2.3-16.2 4.8-24.5 5.5-7.7-1.3-15-8.5-14.3-17.6z" transform="matrix(0 .57363 .73397 0 -243.7 493.3)"/><path id="path247" fill="none" stroke="#110f06" stroke-width="1.5" d="M352.3 553.6c.4 3.9-.4 7.5-1.2 11.1-2.2 4.4-5.7 5.9-9.3 7.5-3.8 1.3-7.2.6-10.5 0l-21.5-6.7-6.7.2h-60.5c-8 2.3-16.2 4.8-24.5 5.5-7.7-1.3-15-8.5-14.3-17.6m10.8 0c0 1.9 1.2 6.9 6 7l26.1-6.6h64.6c8.1 3.2 16.4 5.2 25.2 6.9 4-.4 6.8-2.5 7-7.3" transform="matrix(0 .57363 .73397 0 -243.7 493.3)"/><g id="g251" fill="#eac102" transform="matrix(1.25453 1.06966 -.82207 .9906 598.9 66.5)"><path id="path248" fill="#eac102" fill-rule="evenodd" d="M101.4 198.8v5.5c1.3 0 2.9.6 3 2.9l-3 13.5v20.5l5.3-.2v-22.4c1-4.1 2.2-8.2 2.5-12.4 0-4-3.6-7.4-7.8-7.4z"/><g id="g250" fill="none"><path id="path249" stroke="#110f06" stroke-width=".7" d="M106.9 241.5V219c1-4.1 2.2-8.2 2.5-12.4 0-4-3.6-7.4-7.9-7.3m0 5.5c1.3 0 3 .5 3 2.8l-2.8 13.5V242"/><path id="path250" d="M106.7 241.2v-22.6c1-4.1 2.2-8.2 2.5-12.4 0-4-3.6-7.4-7.9-7.4m0 5.6c1.3-.1 3 .5 3 2.8l-2.8 13.5v21.1"/></g></g><path id="path251" fill="#eac102" fill-rule="evenodd" d="M101 236v16.8a85 85 0 0 1 3.3 13.5c-.2 2.2-1.2 3.6-3.4 3.7v4.6c1.8.3 3.5-.1 5.2-.5 2-1.2 2.7-3 3.5-5 .6-2 .3-3.8 0-5.5l-3.1-11.5v-16.3l-5.6.2z" transform="matrix(1.25453 1.06966 -.82207 .9906 598.9 66.5)"/><path id="path252" fill="none" stroke="#110f06" stroke-width=".7" d="M101.5 274.4a13 13 0 0 0 5-.5c2-1.2 2.6-3 3.3-4.8.6-2 .3-3.7 0-5.4l-3-11V237m-5.1 0v16.4c1.3 4.2 2.4 8.5 3 13-.1 2-1 3.4-3.2 3.5" transform="matrix(1.25453 1.06966 -.82207 .9906 598.9 66.5)"/><g id="g260" fill="#eac102" fill-rule="evenodd"><g id="g259" stroke="#110f06"><g id="g254" stroke-width="2" transform="matrix(-.43069 .5112 -.5767 -.48433 862.3 664.7)"><path id="path253" stroke="none" d="M203.8 553.6h10.8c0 1.9 1.2 6.9 6 7l26.1-7h64.4c8.1 3.2 16.6 5.6 25.4 7.3 4-.4 6.8-2.5 7-7.3h8.8c.4 3.9-.4 7.5-1.2 11.1-2.2 4.4-5.7 5.9-9.3 7.5-3.8 1.3-7.2.6-10.5 0l-21.5-6.7-6.7.2h-60.5c-8 2.3-16.2 4.8-24.5 5.5-7.7-1.3-15-8.5-14.3-17.6z"/><path id="path254" stroke="#110f06" stroke-width="1.4" d="M352.4 553.1c.5 3.9-.5 8-1.3 11.6-2.2 4.4-5.7 5.9-9.3 7.5-3.8 1.3-7.2.6-10.5 0l-21.5-6.7-6.7.2h-60.5c-8 2.3-16.2 4.8-24.5 5.5-7.7-1.3-15-8.5-14.3-17.6m10.8 0c0 1.9 1.2 6.9 6 7l26.1-6.6h64.6c8.1 3.2 16.4 5.2 25.2 6.9 4-.4 6.6-2.9 6.9-7.6"/></g><g id="g256" transform="matrix(-.43069 .5112 -.5767 -.48433 397.4 106.3)"><path id="path255" fill="#eac102" fill-rule="evenodd" stroke="none" d="M344.8-395.7h31.8c8.2-3.1 16.6-5.6 25.4-7.2 4.1.4 6.7 2.4 7 7.2h8.7c.5-3.9-.3-7.5-1-11.1-2.3-4.3-5.7-5.9-9.4-7.5-3.7-1.3-7.1-.5-10.5 0l-21.5 6.7-30.7-.1.2 12z"/><path id="path256" fill="none" stroke="#110f06" stroke-width="1.4" d="M417.7-395.6c.5-3.8-.3-7.6-1-11.2-2.3-4.3-5.7-5.9-9.4-7.5-3.7-1.3-7.1-.5-10.5 0l-21.5 6.7h-30.7m.1 11.7h32c8.2-3 16.5-5.4 25.3-7 4.1.4 6.7 2.5 6.9 7.3"/></g><g id="g258" stroke-width="2" transform="matrix(-.43069 .5112 -.5767 -.48433 917 599.8)"><path id="path257" fill="#eac102" fill-rule="evenodd" stroke="none" d="M203.8 553.6h10.8c0 1.9 1.2 6.9 6 7l26.1-7h64.4c8.1 3.2 16.6 5.6 25.4 7.3 4-.4 6.8-2.5 7-7.3h8.8c.4 3.9-.4 7.5-1.2 11.1-2.2 4.4-5.7 5.9-9.3 7.5-3.8 1.3-7.2.6-10.5 0l-21.5-6.7-6.7.2h-60.5c-8 2.3-16.2 4.8-24.5 5.5-7.7-1.3-15-8.5-14.3-17.6z"/><path id="path258" fill="none" stroke="#110f06" stroke-width="1.4" d="M352.4 553.1c.5 3.9-.5 8-1.3 11.6-2.2 4.4-5.7 5.9-9.3 7.5-3.8 1.3-7.2.6-10.5 0l-21.5-6.7-6.7.2h-60.5c-8 2.3-16.2 4.8-24.5 5.5-7.7-1.3-15-8.5-14.3-17.6m10.8 0c0 1.9 1.2 6.9 6 7l26.1-6.6h64.6c8.1 3.2 16.4 5.2 25.2 6.9 4-.4 6.6-2.9 6.9-7.6"/></g></g><path id="path259" d="M101.2 263.6v5.5c1.3 0 2.9.5 3 2.8l-3 13.5V306l5.3-.2v-22.4c1-4.1 2.2-8.2 2.5-12.4 0-4-3.5-7.4-7.8-7.4z" transform="matrix(1.29803 1.09014 -.85057 1.00956 602.5 59.1)"/></g><path id="path260" fill="none" stroke="#110f06" stroke-width=".7" d="M106.5 306v-22.6c1-4.1 2.2-8.2 2.5-12.4 0-4-3.6-7.4-7.9-7.4m0 5.5c1.3 0 3 .5 3 2.8l-2.8 13.5v21.2" transform="matrix(1.29803 1.09014 -.85057 1.00956 602.5 59.1)"/><path id="path261" fill="#eac102" fill-rule="evenodd" d="M101.2 263.6v5.5c1.3 0 2.9.5 3 2.8l-3 13.5V306l5.3-.2v-22.4c1-4.1 2.2-8.2 2.5-12.4 0-4-3.5-7.4-7.8-7.4z" transform="matrix(1.29803 1.09014 -.85057 1.00956 547.9 124)"/><path id="path262" fill="none" stroke="#110f06" stroke-width=".7" d="M106.5 306v-22.6c1-4.1 2.2-8.2 2.5-12.4 0-4-3.6-7.4-7.9-7.4m0 5.5c1.3 0 3 .5 3 2.8l-2.8 13.5v21.2" transform="matrix(1.29803 1.09014 -.85057 1.00956 547.9 124)"/><path id="path263" fill="#eac102" fill-rule="evenodd" d="M101 236v16.8a85 85 0 0 1 3.3 13.5c-.2 2.2-1.2 3.6-3.4 3.7v4.6c1.8.3 3.5-.1 5.2-.5 2-1.2 2.7-3 3.5-5 .6-2 .3-3.8 0-5.5l-3.1-11.5v-16.3l-5.6.2z" transform="matrix(-1.2958 1.09014 .8491 1.00956 141.6 59.1)"/><path id="path264" fill="none" stroke="#110f06" stroke-width=".7" d="M101.5 274.4a13 13 0 0 0 5-.5c2-1.2 2.6-3 3.3-4.8.6-2 .3-3.7 0-5.4l-3-11V237m-5.1 0v16.4c1.3 4.2 2.4 8.5 3 13-.1 2-1 3.4-3.2 3.5" transform="matrix(-1.2958 1.09014 .8491 1.00956 141.6 59.1)"/><g id="g272" fill="#eac102" fill-rule="evenodd"><g id="g271" stroke="#110f06"><g id="g266" stroke-width="2" transform="matrix(.42995 .5112 .5757 -.48433 -117.7 664.7)"><path id="path265" stroke="none" d="M203.8 553.6h10.8c0 1.9 1.2 6.9 6 7l26.1-7h64.4c8.1 3.2 16.6 5.6 25.4 7.3 4-.4 6.8-2.5 7-7.3h8.8c.4 3.9-.4 7.5-1.2 11.1-2.2 4.4-5.7 5.9-9.3 7.5-3.8 1.3-7.2.6-10.5 0l-21.5-6.7-6.7.2h-60.5c-8 2.3-16.2 4.8-24.5 5.5-7.7-1.3-15-8.5-14.3-17.6z"/><path id="path266" stroke="#110f06" stroke-width="1.4" d="M352.4 553.1c.5 3.9-.5 8-1.3 11.6-2.2 4.4-5.7 5.9-9.3 7.5-3.8 1.3-7.2.6-10.5 0l-21.5-6.7-6.7.2h-60.5c-8 2.3-16.2 4.8-24.5 5.5-7.7-1.3-15-8.5-14.3-17.6m10.8 0c0 1.9 1.2 6.9 6 7l26.1-6.6h64.6c8.1 3.2 16.4 5.2 25.2 6.9 4-.4 6.6-2.9 6.9-7.6"/></g><g id="g268" transform="matrix(.42995 .5112 .5757 -.48433 346.4 106.3)"><path id="path267" fill="#eac102" fill-rule="evenodd" stroke="none" d="M344.8-395.7h31.8c8.2-3.1 16.6-5.6 25.4-7.2 4.1.4 6.7 2.4 7 7.2h8.7c.5-3.9-.3-7.5-1-11.1-2.3-4.3-5.7-5.9-9.4-7.5-3.7-1.3-7.1-.5-10.5 0l-21.5 6.7-30.7-.1.2 12z"/><path id="path268" fill="none" stroke="#110f06" stroke-width="1.4" d="M417.7-395.6c.5-3.8-.3-7.6-1-11.2-2.3-4.3-5.7-5.9-9.4-7.5-3.7-1.3-7.1-.5-10.5 0l-21.5 6.7h-30.7m.1 11.7h32c8.2-3 16.5-5.4 25.3-7 4.1.4 6.7 2.5 6.9 7.3"/></g><g id="g270" stroke-width="2" transform="matrix(.42995 .5112 .5757 -.48433 -172.3 599.8)"><path id="path269" fill="#eac102" fill-rule="evenodd" stroke="none" d="M203.8 553.6h10.8c0 1.9 1.2 6.9 6 7l26.1-7h64.4c8.1 3.2 16.6 5.6 25.4 7.3 4-.4 6.8-2.5 7-7.3h8.8c.4 3.9-.4 7.5-1.2 11.1-2.2 4.4-5.7 5.9-9.3 7.5-3.8 1.3-7.2.6-10.5 0l-21.5-6.7-6.7.2h-60.5c-8 2.3-16.2 4.8-24.5 5.5-7.7-1.3-15-8.5-14.3-17.6z"/><path id="path270" fill="none" stroke="#110f06" stroke-width="1.4" d="M352.4 553.1c.5 3.9-.5 8-1.3 11.6-2.2 4.4-5.7 5.9-9.3 7.5-3.8 1.3-7.2.6-10.5 0l-21.5-6.7-6.7.2h-60.5c-8 2.3-16.2 4.8-24.5 5.5-7.7-1.3-15-8.5-14.3-17.6m10.8 0c0 1.9 1.2 6.9 6 7l26.1-6.6h64.6c8.1 3.2 16.4 5.2 25.2 6.9 4-.4 6.6-2.9 6.9-7.6"/></g></g><path id="path271" d="M101.6 198.9v5.4c-.8 0-3 .7-3 3l3 13.3v32.6a81.3 81.3 0 0 0-3.2 12.9c.2 2 1 3.4 3.2 3.5v4.4c-1.7.3-3.3-.1-5-.5-1.8-1.2-2.5-2.9-3.2-4.8-.6-1.9-.3-3.6 0-5.3l3-10.9-.1-3.3v-30.7c-1-4-2.2-8.2-2.5-12.4.6-3.9 3.8-7.6 7.8-7.2z" transform="matrix(-1.32242 1.1145 .86655 1.03211 139.4 50.4)"/></g><path id="path272" fill="none" stroke="#110f06" stroke-width=".7" d="M101.7 274.4c-1.7.3-3.3-.2-5-.6-1.8-1-2.5-2.8-3.3-4.7-.5-1.9-.2-3.6 0-5.3l3-10.9v-34c-1-4.1-2.2-8.2-2.5-12.4.6-4 3.8-7.6 7.8-7.3m0 5.5c-.8 0-3 .6-3 3l2.8 13.3v32.7a79.8 79.8 0 0 0-3 12.7c.2 2.1 1 3.5 3.2 3.6" transform="matrix(-1.31613 1.11864 .86243 1.03595 140 49)"/><path id="path273" fill="#eac102" fill-rule="evenodd" d="M101.2 263.6v5.5c1.3 0 2.9.5 3 2.8l-3 13.5V306l5.3-.2v-22.4c1-4.1 2.2-8.2 2.5-12.4 0-4-3.5-7.4-7.8-7.4z" transform="matrix(-1.2958 1.09014 .8491 1.00956 141.6 59.1)"/><path id="path274" fill="none" stroke="#110f06" stroke-width=".7" d="M106.5 306v-22.6c1-4.1 2.2-8.2 2.5-12.4 0-4-3.6-7.4-7.9-7.4m0 5.5c1.3 0 3 .5 3 2.8l-2.8 13.5v21.2" transform="matrix(-1.2958 1.09014 .8491 1.00956 141.6 59.1)"/><path id="path275" fill="#eac102" fill-rule="evenodd" d="M101.2 263.6v5.5c1.3 0 2.9.5 3 2.8l-3 13.5V306l5.3-.2v-22.4c1-4.1 2.2-8.2 2.5-12.4 0-4-3.5-7.4-7.8-7.4z" transform="matrix(-1.2958 1.09014 .8491 1.00956 196.2 124)"/><path id="path276" fill="none" stroke="#110f06" stroke-width=".7" d="M106.5 306v-22.6c1-4.1 2.2-8.2 2.5-12.4 0-4-3.6-7.4-7.9-7.4m0 5.5c1.3 0 3 .5 3 2.8l-2.8 13.5v21.2" transform="matrix(-1.2958 1.09014 .8491 1.00956 196.2 124)"/><path id="path277" fill="#eac102" fill-rule="evenodd" d="M101 236v16.8a85 85 0 0 1 3.3 13.5c-.2 2.2-1.2 3.6-3.4 3.7v4.6c1.8.3 3.5-.1 5.2-.5 2-1.2 2.7-3 3.5-5 .6-2 .3-3.8 0-5.5l-3.1-11.5v-16.3l-5.6.2z" transform="matrix(1.2151 1.1539 -.8243 .86734 392.7 319.2)"/><path id="path278" fill="none" stroke="#110f06" stroke-width=".7" d="M101.5 274.4a13 13 0 0 0 5-.5c2-1.2 2.6-3 3.3-4.8.6-2 .3-3.7 0-5.4l-3-11V237m-5.1 0v16.4c1.3 4.2 2.4 8.5 3 13-.1 2-1 3.4-3.2 3.5" transform="matrix(1.2151 1.1539 -.8243 .86734 392.7 319.2)"/><g id="g280" fill="#eac102" fill-rule="evenodd" stroke="#110f06" stroke-width="2" transform="matrix(-.41738 .43918 -.53985 -.51266 682.6 859.2)"><path id="path279" stroke="none" d="M203.8 553.6h10.8c0 1.9 1.2 6.9 6 7l26.1-7h64.4c8.1 3.2 16.6 5.6 25.4 7.3 4-.4 6.8-2.5 7-7.3h8.8c.4 3.9-.4 7.5-1.2 11.1-2.2 4.4-5.7 5.9-9.3 7.5-3.8 1.3-7.2.6-10.5 0l-21.5-6.7-6.7.2h-60.5c-8 2.3-16.2 4.8-24.5 5.5-7.7-1.3-15-8.5-14.3-17.6z"/><path id="path280" stroke="#110f06" stroke-width="1.4" d="M352.4 553.1c.5 3.9-.5 8-1.3 11.6-2.2 4.4-5.7 5.9-9.3 7.5-3.8 1.3-7.2.6-10.5 0l-21.5-6.7-6.7.2h-60.5c-8 2.3-16.2 4.8-24.5 5.5-7.7-1.3-15-8.5-14.3-17.6m10.8 0c0 1.9 1.2 6.9 6 7l26.1-6.6h64.6c8.1 3.2 16.4 5.2 25.2 6.9 4-.4 6.6-2.9 6.9-7.6"/></g><g id="g284" transform="matrix(1.2151 1.1539 -.8243 .86734 392.7 319.2)"><path id="path281" fill="#eac102" fill-rule="evenodd" d="M101.6 198.9v5.4c-.8 0-3 .7-3 3l3 13.3v32.6a81.3 81.3 0 0 0-3.2 12.9c.2 2 1 3.4 3.2 3.5v4.4c-1.7.3-3.3-.1-5-.5-1.8-1.2-2.5-2.9-3.2-4.8-.6-1.9-.3-3.6 0-5.3l3-10.9-.1-3.3v-30.7c-1-4-2.2-8.2-2.5-12.4.6-3.9 3.8-7.6 7.8-7.2z"/><path id="path282" fill="none" stroke="#110f06" stroke-width=".7" d="M101.7 274.4c-1.7.3-3.3-.2-5-.6-1.8-1-2.5-2.8-3.3-4.7-.5-1.9-.2-3.6 0-5.3l3-10.9v-34c-1-4.1-2.2-8.2-2.5-12.4.6-4 3.8-7.6 7.8-7.3m0 5.5c-.8 0-3 .6-3 3l2.8 13.3v32.7a79.8 79.8 0 0 0-3 12.7c.2 2.1 1 3.5 3.2 3.6"/><path id="path283" fill="#eac102" fill-rule="evenodd" d="M101.2 263.6v5.5c1.3 0 2.9.5 3 2.8l-3 13.5V306l5.3-.2v-22.4c1-4.1 2.2-8.2 2.5-12.4 0-4-3.5-7.4-7.8-7.4z"/><path id="path284" fill="none" stroke="#110f06" stroke-width=".7" d="M106.5 306v-22.6c1-4.1 2.2-8.2 2.5-12.4 0-4-3.6-7.4-7.9-7.4m0 5.5c1.3 0 3 .5 3 2.8l-2.8 13.5v21.2"/></g><g id="g286" fill="#eac102" fill-rule="evenodd" stroke="#110f06" transform="matrix(-.4798 .46444 -.62057 -.54214 132.7 379)"><path id="path285" fill="#eac102" fill-rule="evenodd" stroke="none" d="M344.8-395.7h31.8c8.2-3.1 16.6-5.6 25.4-7.2 4.1.4 6.7 2.4 7 7.2h8.7c.5-3.9-.3-7.5-1-11.1-2.3-4.3-5.7-5.9-9.4-7.5-3.7-1.3-7.1-.5-10.5 0l-21.5 6.7-30.7-.1.2 12z"/><path id="path286" fill="none" stroke="#110f06" stroke-width="1.4" d="M417.7-395.6c.5-3.8-.3-7.6-1-11.2-2.3-4.3-5.7-5.9-9.4-7.5-3.7-1.3-7.1-.5-10.5 0l-21.5 6.7h-30.7m.1 11.7h32c8.2-3 16.5-5.4 25.3-7 4.1.4 6.7 2.5 6.9 7.3"/></g><path id="path287" fill="#eac102" fill-rule="evenodd" d="M101.2 263.6v5.5c1.3 0 2.9.5 3 2.8l-3 13.5V306l5.3-.2v-22.4c1-4.1 2.2-8.2 2.5-12.4 0-4-3.5-7.4-7.8-7.4z" transform="matrix(1.2151 1.1539 -.8243 .86734 339.7 375)"/><path id="path288" fill="none" stroke="#110f06" stroke-width=".7" d="M106.5 306v-22.6c1-4.1 2.2-8.2 2.5-12.4 0-4-3.6-7.4-7.9-7.4m0 5.5c1.3 0 3 .5 3 2.8l-2.8 13.5v21.2" transform="matrix(1.2151 1.1539 -.8243 .86734 339.7 375)"/><g id="g290" fill="#eac102" fill-rule="evenodd" stroke="#110f06" transform="matrix(-.41738 .43918 -.53985 -.51266 197 343.5)"><path id="path289" fill="#eac102" fill-rule="evenodd" stroke="none" d="M344.8-395.7h31.8c8.2-3.1 16.6-5.6 25.4-7.2 4.1.4 6.7 2.4 7 7.2h8.7c.5-3.9-.3-7.5-1-11.1-2.3-4.3-5.7-5.9-9.4-7.5-3.7-1.3-7.1-.5-10.5 0l-21.5 6.7-30.7-.1.2 12z"/><path id="path290" fill="none" stroke="#110f06" stroke-width="1.4" d="M417.7-395.6c.5-3.8-.3-7.6-1-11.2-2.3-4.3-5.7-5.9-9.4-7.5-3.7-1.3-7.1-.5-10.5 0l-21.5 6.7h-30.7m.1 11.7h32c8.2-3 16.5-5.4 25.3-7 4.1.4 6.7 2.5 6.9 7.3"/></g><path id="path291" fill="#eac102" fill-rule="evenodd" d="M101 236v16.8a85 85 0 0 1 3.3 13.5c-.2 2.2-1.2 3.6-3.4 3.7v4.6c1.8.3 3.5-.1 5.2-.5 2-1.2 2.7-3 3.5-5 .6-2 .3-3.8 0-5.5l-3.1-11.5v-16.3l-5.6.2z" transform="matrix(-1.2151 1.1539 .8243 .86734 351.4 319.2)"/><path id="path292" fill="none" stroke="#110f06" stroke-width=".7" d="M101.5 274.4a13 13 0 0 0 5-.5c2-1.2 2.6-3 3.3-4.8.6-2 .3-3.7 0-5.4l-3-11V237m-5.1 0v16.4c1.3 4.2 2.4 8.5 3 13-.1 2-1 3.4-3.2 3.5" transform="matrix(-1.2151 1.1539 .8243 .86734 351.4 319.2)"/><g id="g294" fill="#eac102" fill-rule="evenodd" stroke="#110f06" stroke-width="2" transform="matrix(.41738 .43918 .53985 -.51266 61.5 859.2)"><path id="path293" fill="#eac102" fill-rule="evenodd" stroke="none" d="M203.8 553.6h10.8c0 1.9 1.2 6.9 6 7l26.1-7h64.4c8.1 3.2 16.6 5.6 25.4 7.3 4-.4 6.8-2.5 7-7.3h8.8c.4 3.9-.4 7.5-1.2 11.1-2.2 4.4-5.7 5.9-9.3 7.5-3.8 1.3-7.2.6-10.5 0l-21.5-6.7-6.7.2h-60.5c-8 2.3-16.2 4.8-24.5 5.5-7.7-1.3-15-8.5-14.3-17.6z"/><path id="path294" fill="none" stroke="#110f06" stroke-width="1.4" d="M352.4 553.1c.5 3.9-.5 8-1.3 11.6-2.2 4.4-5.7 5.9-9.3 7.5-3.8 1.3-7.2.6-10.5 0l-21.5-6.7-6.7.2h-60.5c-8 2.3-16.2 4.8-24.5 5.5-7.7-1.3-15-8.5-14.3-17.6m10.8 0c0 1.9 1.2 6.9 6 7l26.1-6.6h64.6c8.1 3.2 16.4 5.2 25.2 6.9 4-.4 6.6-2.9 6.9-7.6"/></g><g id="g298" transform="matrix(-1.2151 1.1539 .8243 .86734 351.4 319.2)"><path id="path295" fill="#eac102" fill-rule="evenodd" d="M101.6 198.9v5.4c-.8 0-3 .7-3 3l3 13.3v32.6a81.3 81.3 0 0 0-3.2 12.9c.2 2 1 3.4 3.2 3.5v4.4c-1.7.3-3.3-.1-5-.5-1.8-1.2-2.5-2.9-3.2-4.8-.6-1.9-.3-3.6 0-5.3l3-10.9-.1-3.3v-30.7c-1-4-2.2-8.2-2.5-12.4.6-3.9 3.8-7.6 7.8-7.2z"/><path id="path296" fill="none" stroke="#110f06" stroke-width=".7" d="M101.7 274.4c-1.7.3-3.3-.2-5-.6-1.8-1-2.5-2.8-3.3-4.7-.5-1.9-.2-3.6 0-5.3l3-10.9v-34c-1-4.1-2.2-8.2-2.5-12.4.6-4 3.8-7.6 7.8-7.3m0 5.5c-.8 0-3 .6-3 3l2.8 13.3v32.7a79.8 79.8 0 0 0-3 12.7c.2 2.1 1 3.5 3.2 3.6"/><path id="path297" fill="#eac102" fill-rule="evenodd" d="M101.2 263.6v5.5c1.3 0 2.9.5 3 2.8l-3 13.5V306l5.3-.2v-22.4c1-4.1 2.2-8.2 2.5-12.4 0-4-3.5-7.4-7.8-7.4z"/><path id="path298" fill="none" stroke="#110f06" stroke-width=".7" d="M106.5 306v-22.6c1-4.1 2.2-8.2 2.5-12.4 0-4-3.6-7.4-7.9-7.4m0 5.5c1.3 0 3 .5 3 2.8l-2.8 13.5v21.2"/></g><g id="g300" fill="#eac102" fill-rule="evenodd" stroke="#110f06" transform="matrix(.46538 .47563 .60193 -.55521 608.8 369.9)"><path id="path299" fill="#eac102" fill-rule="evenodd" stroke="none" d="M344.8-395.7h31.8c8.2-3.1 16.6-5.6 25.4-7.2 4.1.4 6.7 2.4 7 7.2h8.7c.5-3.9-.3-7.5-1-11.1-2.3-4.3-5.7-5.9-9.4-7.5-3.7-1.3-7.1-.5-10.5 0l-21.5 6.7-30.7-.1.2 12z"/><path id="path300" fill="none" stroke="#110f06" stroke-width="1.4" d="M417.7-395.6c.5-3.8-.3-7.6-1-11.2-2.3-4.3-5.7-5.9-9.4-7.5-3.7-1.3-7.1-.5-10.5 0l-21.5 6.7-31 .3m.4 11.4h32c8.2-3 16.5-5.4 25.3-7 4.1.4 6.7 2.5 6.9 7.3"/></g><path id="path301" fill="#eac102" fill-rule="evenodd" d="M101.2 263.6v5.5c1.3 0 2.9.5 3 2.8l-3 13.5V306l5.3-.2v-22.4c1-4.1 2.2-8.2 2.5-12.4 0-4-3.5-7.4-7.8-7.4z" transform="matrix(-1.2151 1.1539 .8243 .86734 404.4 375)"/><path id="path302" fill="none" stroke="#110f06" stroke-width=".7" d="M106.5 306v-22.6c1-4.1 2.2-8.2 2.5-12.4 0-4-3.6-7.4-7.9-7.4m0 5.5c1.3 0 3 .5 3 2.8l-2.8 13.5v21.2" transform="matrix(-1.2151 1.1539 .8243 .86734 404.4 375)"/><g id="g314" fill="#eac102" fill-rule="evenodd"><g id="g313" stroke="#110f06"><g id="g304" transform="matrix(.41738 .43918 .53985 -.51266 547 343.5)"><path id="path303" fill="#eac102" fill-rule="evenodd" stroke="none" d="M344.8-395.7h31.8c8.2-3.1 16.6-5.6 25.4-7.2 4.1.4 6.7 2.4 7 7.2h8.7c.5-3.9-.3-7.5-1-11.1-2.3-4.3-5.7-5.9-9.4-7.5-3.7-1.3-7.1-.5-10.5 0l-21.5 6.7-30.7-.1.2 12z"/><path id="path304" fill="none" stroke="#110f06" stroke-width="1.4" d="M417.7-395.6c.5-3.8-.3-7.6-1-11.2-2.3-4.3-5.7-5.9-9.4-7.5-3.7-1.3-7.1-.5-10.5 0l-21.5 6.7h-30.7m.1 11.7h32c8.2-3 16.5-5.4 25.3-7 4.1.4 6.7 2.5 6.9 7.3"/></g><g id="g306" stroke-width="2" transform="matrix(0 .74178 -.73116 0 989.7 224)"><path id="path305" stroke-width="2" d="M203.8 553.6h10.8c0 1.9 1.2 6.9 6 7l26.1-7h64.4c8.1 3.2 16.6 5.6 25.4 7.3 4-.4 6.8-2.5 7-7.3h8.8c.4 3.9-.4 7.5-1.2 11.1-2.2 4.4-5.7 5.9-9.3 7.5-3.8 1.3-7.2.6-10.5 0l-21.5-6.7-6.7.2h-60.5c-8 2.3-16.2 4.8-24.5 5.5-7.7-1.3-15-8.5-14.3-17.6z"/><path id="path306" stroke-width="1.4" d="M352.3 553.6c.4 3.9-.4 7.5-1.2 11.1-2.2 4.4-5.7 5.9-9.3 7.5-3.8 1.3-7.2.6-10.5 0l-21.5-6.7-6.7.2h-60.5c-8 2.3-16.2 4.8-24.5 5.5-7.7-1.3-15-8.5-14.3-17.6m10.8 0c0 1.9 1.2 6.9 6 7l26.1-6.6h64.6c8.1 3.2 16.4 5.2 25.2 6.9 4-.4 6.8-2.5 7-7.3"/></g><g id="g308" transform="matrix(0 .72308 -.73149 0 294.7 275.8)"><path id="path307" fill="#eac102" fill-rule="evenodd" stroke="none" d="M269.2-395.7H280c-.1-3 1-6.5 5.6-6.7l26.7 6.7h40.5l-.3-12h-44.3c-8.1-2.4-16.2-4.9-24.5-5.6-8 0-14.6 8-14.5 17.6z"/><path id="path308" fill="none" stroke="#110f06" stroke-width="1.4" d="m353-408-44.7-.2c-8-2.3-16.2-4.8-24.5-5.5-7.9 0-14.5 8.1-14.5 17.7m11 .1c-.2-3 1-6.7 5.5-7l26.6 6.5h41.8"/></g><g id="g310" transform="matrix(0 .74178 -.73116 0 295.2 175.5)"><path id="path309" fill="#eac102" fill-rule="evenodd" stroke="none" d="M344.8-395.7h31.8c8.2-3.1 16.6-5.6 25.4-7.2 4.1.4 6.7 2.4 7 7.2h8.7c.5-3.9-.3-7.5-1-11.1-2.3-4.3-5.7-5.9-9.4-7.5-3.7-1.3-7.1-.5-10.5 0l-21.5 6.7-30.7-.1.2 12z"/><path id="path310" fill="none" stroke="#110f06" stroke-width="1.4" d="M417.6-395.6c.5-3.8-.3-7.6-1.1-11.2-2.2-4.3-5.7-5.9-9.3-7.5-3.8-1.3-7.2-.5-10.5 0l-21.5 6.7h-30.8m.1 11.7h32c8.2-3 16.6-5.4 25.4-7 4 .4 6.6 2.5 6.8 7.3"/></g><g id="g312" stroke-width="2" transform="matrix(0 .62172 .7336 0 177.8 482.4)"><path id="path311" stroke="none" d="M203.8 553.6h10.8c0 1.9 1.2 6.9 6 7l26.1-7h64.4c8.1 3.2 16.6 5.6 25.4 7.3 4-.4 6.8-2.5 7-7.3h8.8c.4 3.9-.4 7.5-1.2 11.1-2.2 4.4-5.7 5.9-9.3 7.5-3.8 1.3-7.2.6-10.5 0l-21.5-6.7-6.7.2h-60.5c-8 2.3-16.2 4.8-24.5 5.5-7.7-1.3-15-8.5-14.3-17.6z"/><path id="path312" stroke="#110f06" stroke-width="1.5" d="M352.3 553.6c.4 3.9-.4 7.5-1.2 11.1-2.2 4.4-5.7 5.9-9.3 7.5-3.8 1.3-7.2.6-10.5 0l-21.5-6.7-6.7.2h-60.5c-8 2.3-16.2 4.8-24.5 5.5-7.7-1.3-15-8.5-14.3-17.6m10.8 0c0 1.9 1.2 6.9 6 7l26.1-6.6h64.6c8.1 3.2 16.4 5.2 25.2 6.9 4-.4 6.8-2.5 7-7.3"/></g></g><path id="path313" d="M402.8 422v5.4c-1.3 0-2.9.6-3 2.9l3 13.5v20.5l-5.3-.2v-22.4c-1-4.1-2.2-8.2-2.5-12.4 0-4 3.6-7.4 7.8-7.4z" transform="matrix(1.65196 0 0 1.19979 -80.8 182.3)"/></g><path id="path314" fill="none" stroke="#110f06" stroke-width=".7" d="M397.5 464.3v-22.6c-1-4.1-2.2-8.2-2.5-12.4 0-4 3.6-7.4 7.9-7.4m0 5.6c-1.3 0-3 .5-3 2.8l2.8 13.5v21.1" transform="matrix(1.65196 0 0 1.19979 -80.8 182.3)"/><g id="g326" fill="#eac102" fill-rule="evenodd"><g id="g325" stroke="#110f06"><g id="g316" transform="matrix(0 .62172 .7336 0 874.6 441.7)"><path id="path315" fill="#eac102" fill-rule="evenodd" stroke="none" d="M344.8-395.7h31.8c8.2-3.1 16.6-5.6 25.4-7.2 4.1.4 6.7 2.4 7 7.2h8.7c.5-3.9-.3-7.5-1-11.1-2.3-4.3-5.7-5.9-9.4-7.5-3.7-1.3-7.1-.5-10.5 0l-21.5 6.7-30.7-.1.2 12z"/><path id="path316" fill="none" stroke="#110f06" stroke-width="1.5" d="M417.7-395.6c.5-3.8-.3-7.6-1-11.2-2.3-4.3-5.7-5.9-9.4-7.5-3.7-1.3-7.1-.5-10.5 0l-21.5 6.7h-30.7m.1 11.7h32c8.2-3 16.5-5.4 25.3-7 4.1.4 6.7 2.5 6.9 7.3"/></g><g id="g318" transform="scale(.7322 .6907) rotate(90 -7 409)"><path id="path317" fill="#eac102" fill-rule="evenodd" stroke="none" d="M344.8-395.7h31.8c8.2-3.1 16.6-5.6 25.4-7.2 4.1.4 6.7 2.4 7 7.2h8.7c.5-3.9-.3-7.5-1-11.1-2.3-4.3-5.7-5.9-9.4-7.5-3.7-1.3-7.1-.5-10.5 0l-21.5 6.7-30.7-.1.2 12z"/><path id="path318" fill="none" stroke="#110f06" stroke-width="1.4" d="M418.2-395.8c.5-3.8-.3-7.6-1-11.2-2.3-4.4-5.7-5.9-9.4-7.5-3.7-1.3-7.1-.6-10.5 0l-21.5 6.7h-30.7m.1 11.7h32c8.2-3 16.5-5.4 25.3-7 4.1.4 6.7 2.5 7 7.3"/></g><g id="g320" transform="matrix(0 .58699 .73444 0 875.3 532.4)"><path id="path319" fill="#eac102" fill-rule="evenodd" stroke="none" d="M344.8-395.7h31.8c8.2-3.1 16.6-5.6 25.4-7.2 4.1.4 6.7 2.4 7 7.2h8.7c.5-3.9-.3-7.5-1-11.1-2.3-4.3-5.7-5.9-9.4-7.5-3.7-1.3-7.1-.5-10.5 0l-21.5 6.7-30.7-.1.2 12z"/><path id="path320" fill="none" stroke="#110f06" stroke-width="1.5" d="M417.7-395.6c.5-3.8-.3-7.6-1-11.2-2.3-4.3-5.7-5.9-9.4-7.5-3.7-1.3-7.1-.5-10.5 0l-21.5 6.7h-30.7m.1 11.7h32c8.2-3 16.5-5.4 25.3-7 4.1.4 6.7 2.5 6.9 7.3"/></g><g id="g322" stroke-width="2" transform="matrix(-.61924 0 0 .69536 608 -22.8)"><path id="path321" fill="#eac102" fill-rule="evenodd" stroke="none" d="M203.8 553.6h10.8c0 1.9 1.2 6.9 6 7l26.1-7h64.4c8.1 3.2 16.6 5.6 25.4 7.3 4-.4 6.8-2.5 7-7.3h8.8c.4 3.9-.4 7.5-1.2 11.1-2.2 4.4-5.7 5.9-9.3 7.5-3.8 1.3-7.2.6-10.5 0l-21.5-6.7-6.7.2h-60.5c-8 2.3-16.2 4.8-24.5 5.5-7.7-1.3-15-8.5-14.3-17.6z"/><path id="path322" fill="none" stroke="#110f06" stroke-width="1.5" d="M353.1 553.7c.2 3.8-.5 7.8-1.3 11.4-2.2 4.4-5.6 5.9-9.3 7.5-3.7 1.3-7.1.6-10.5 0l-21.5-6.7-6.7.2h-60.4c-8.1 2.3-16.2 4.8-24.5 5.5-7.8-1.3-15-8.5-14.4-17.6m10.8 0c.1 1.8 1.3 6.9 6 6.9l26.2-6.5H312c8.2 3.1 16.4 5.2 25.2 6.8 4.1-.4 6.7-2.6 7-7.4"/></g><g id="g324" transform="matrix(-.6055 0 0 .69571 720.7 632)"><path id="path323" fill="#eac102" fill-rule="evenodd" stroke="none" d="M343.3-388.8h31.8a146 146 0 0 1 25.5-7.2c4 .4 6.7 2.4 6.9 7.2h8.7c.5-3.9-.2-7.5-1-11.1-2.2-4.4-5.7-5.9-9.3-7.5-3.8-1.3-7.2-.6-10.5 0l-21.5 6.7-30.8-.1.2 12z"/><path id="path324" fill="none" stroke="#110f06" stroke-width="1.5" d="M416.3-388.3c.5-3.8-.3-7.6-1.1-11.2-2.2-4.4-5.7-5.9-9.3-7.5-3.8-1.3-7.2-.6-10.5 0l-21.5 6.7-30.8-.1m.1 11.8h32c8.2-3.1 16.6-5.4 25.4-7 4 .4 6.6 2.5 6.8 7.3"/></g></g><path id="path325" d="M391.2 190.8h-5c0-1.2-.6-2.6-2.7-2.7l-12.3 2.7h-18.8V186h20.7c3.7-1 7.5-2 11.3-2.3 3.7 0 6.8 3.3 6.8 7.2z" transform="matrix(1.30481 0 0 1.70287 48.2 37)"/></g><path id="path326" fill="none" stroke="#110f06" stroke-width=".7" d="m352.3 186 20.8-.1c3.7-1 7.5-2 11.3-2.3 3.7 0 6.8 3.4 6.8 7.3m-5.1 0c0-1.2-.5-2.7-2.6-2.8l-12.3 2.6h-19.4" transform="matrix(1.30481 0 0 1.70287 48.2 37)"/><g id="g328" fill="#eac102" fill-rule="evenodd" stroke="#110f06" transform="matrix(-.61924 0 0 .69536 648.2 637.2)"><path id="path327" fill="#eac102" fill-rule="evenodd" stroke="none" d="M269-395.8h10.8c-.2-3 1-6.6 5.6-6.8l26.7 6.8h40.5l-.3-12.1h-44.4c-8-2.3-16.1-4.8-24.5-5.5-7.9 0-14.5 8-14.5 17.6z"/><path id="path328" fill="none" stroke="#110f06" stroke-width="1.5" d="M353.1-406.9h-44.7c-8-2.4-16.2-4.9-24.5-5.6-8 0-14.6 8.1-14.5 17.7m11 .1c-.2-3 1-6.7 5.4-7l26.7 6.5h41.8"/></g><g id="g332" transform="matrix(1.3871 0 0 1.70094 21.7 37.3)"><path id="path329" fill="#eac102" fill-rule="evenodd" d="M172.3 189.9h5c0 .7.5 2.8 2.7 2.8l12-2.8h29.6a73 73 0 0 0 11.7 3c1.8-.2 3.1-1 3.2-3h4c.2 1.5-.1 3-.5 4.5-1 1.8-2.6 2.4-4.3 3-1.7.6-3.3.3-4.8 0l-9.9-2.7-3 .1h-28c-3.7 1-7.4 2-11.2 2.3-3.6-.6-7-3.5-6.6-7.2z"/><path id="path330" fill="none" stroke="#110f06" stroke-width=".7" d="M240.3 189.6a13 13 0 0 1-.6 4.8c-1 1.8-2.5 2.4-4.2 3-1.7.6-3.3.3-4.8 0l-9.9-2.7-3 .1H190c-3.8 1-7.5 2-11.3 2.3-3.5-.6-6.9-3.5-6.5-7.2m4.9 0c0 .7.6 2.8 2.8 2.8l12-2.7h29.5c3.7 1.3 7.5 2.2 11.6 2.8 1.8-.1 3-1 3.1-3"/><path id="path331" fill="#eac102" fill-rule="evenodd" d="M147.8 190.4h14.8c3.8-1.2 7.7-2.2 11.8-3 1.9.2 3.1 1 3.2 3h4c.3-1.5 0-3-.4-4.5-1-1.8-2.6-2.4-4.3-3-1.8-.6-3.4-.3-5 0l-9.9 2.7h-14.3l.1 4.8z"/><path id="path332" fill="none" stroke="#110f06" stroke-width=".7" d="M181 190.6a12 12 0 0 0-.4-4.6c-1-1.8-2.6-2.4-4.3-3-1.8-.6-3.4-.3-5 0l-9.9 2.7h-14.3m.1 4.7H162c3.8-1.2 7.7-2.2 11.8-2.8 1.9.1 3 1 3.2 3"/></g><g id="g379" fill="#eac102"><g id="g334" fill-rule="evenodd" stroke="#110f06" transform="matrix(.64368 0 0 .69492 87.3 635.6)"><path id="path333" fill="#eac102" fill-rule="evenodd" stroke="none" d="M269.2-395.7H280c-.1-3 1-6.5 5.6-6.7l26.7 6.7h40.5l-.3-12h-44.3c-8.1-2.4-16.2-4.9-24.5-5.6-8 0-14.6 8-14.5 17.6z"/><path id="path334" fill="none" stroke="#000" stroke-width="1.5" d="M352.9-407.8h-44.7c-8.1-2.4-16.2-5-24.5-5.6-8 0-14.6 8.1-14.5 17.7m10.9.1c-.1-3 1-6.8 5.5-7l26.7 6.5H354"/></g><g id="g336" transform="matrix(1.3871 0 0 1.70094 21.7 37.3)"><path id="path335" fill="#eac102" fill-rule="nonzero" d="M114 190.4h4.9c0-1.2.5-2.6 2.5-2.7l12 2.7h18.2l-.2-4.9h-19.9c-3.6-1-7.2-2-11-2.2-3.5 0-6.5 3.2-6.5 7.1z"/><path id="path336" fill="none" stroke="#000" stroke-width=".7" d="M151.4 185.7h-20c-3.6-1-7.2-2-11-2.3-3.5 0-6.4 3.3-6.4 7.3m4.9 0c0-1.2.4-2.8 2.4-2.9l12 2.7h18.6"/></g><g id="g338" fill-rule="evenodd" stroke="#110f06" stroke-width="2" transform="matrix(-.63984 .27333 .27712 .65125 460.6 422.4)"><path id="path337" fill="#eac102" fill-rule="evenodd" stroke="none" d="M203.8 553.6h10.8c0 1.9 1.2 6.9 6 7l26.1-7h64.4c8.1 3.2 16.6 5.6 25.4 7.3 4-.4 6.8-2.5 7-7.3h8.8c.4 3.9-.4 7.5-1.2 11.1-2.2 4.4-5.7 5.9-9.3 7.5-3.8 1.3-7.2.6-10.5 0l-21.5-6.7-6.7.2h-60.5c-8 2.3-16.2 4.8-24.5 5.5-7.7-1.3-15-8.5-14.3-17.6z"/><path id="path338" fill="none" stroke="#110f06" stroke-width="1.4" d="M352.4 553.1c.5 3.9-.5 8-1.3 11.6-2.2 4.4-5.7 5.9-9.3 7.5-3.8 1.3-7.2.6-10.5 0l-21.5-6.7-6.7.2h-60.5c-8 2.3-16.2 4.8-24.5 5.5-7.7-1.3-15-8.5-14.3-17.6m10.8 0c0 1.9 1.2 6.9 6 7l26.1-6.6h64.6c8.1 3.2 16.4 5.2 25.2 6.9 4-.4 6.6-2.9 6.9-7.6"/></g><g id="g340" fill-rule="evenodd" stroke="#110f06" stroke-width="2" transform="matrix(.63984 .27333 -.27712 .65125 283.5 421.4)"><path id="path339" fill="#eac102" fill-rule="evenodd" stroke="none" d="M203.8 553.6h10.8c0 1.9 1.2 6.9 6 7l26.1-7h64.4c8.1 3.2 16.6 5.6 25.4 7.3 4-.4 6.8-2.5 7-7.3h8.8c.4 3.9-.4 7.5-1.2 11.1-2.2 4.4-5.7 5.9-9.3 7.5-3.8 1.3-7.2.6-10.5 0l-21.5-6.7-6.7.2h-60.5c-8 2.3-16.2 4.8-24.5 5.5-7.7-1.3-15-8.5-14.3-17.6z"/><path id="path340" fill="none" stroke="#110f06" stroke-width="1.4" d="M352.4 553.1c.5 3.9-.5 8-1.3 11.6-2.2 4.4-5.7 5.9-9.3 7.5-3.8 1.3-7.2.6-10.5 0l-21.5-6.7-6.7.2h-60.5c-8 2.3-16.2 4.8-24.5 5.5-7.7-1.3-15-8.5-14.3-17.6m10.8 0c0 1.9 1.2 6.9 6 7l26.1-6.6h64.6c8.1 3.2 16.4 5.2 25.2 6.9 4-.4 6.6-2.9 6.9-7.6"/></g><path id="path341" fill-rule="nonzero" stroke="#000" stroke-linejoin="round" d="M-70 623.7a31.2 31.2 0 1 0 0 62.4 31.2 31.2 0 0 0 0-62.4zm0 7.4a23.7 23.7 0 1 1 0 47.5 23.7 23.7 0 0 1 0-47.5z" transform="translate(442 227)"/><g id="g353" fill-rule="evenodd" stroke="#110f06"><g id="g343" stroke-width="2" transform="matrix(.59901 0 0 .7361 275.2 185)"><path id="path342" fill="#eac102" fill-rule="evenodd" stroke="none" d="M203.8 553.6h10.8c0 1.9 1.2 6.9 6 7l26.1-7h64.4c8.1 3.2 16.6 5.6 25.4 7.3 4-.4 6.8-2.5 7-7.3h8.8c.4 3.9-.4 7.5-1.2 11.1-2.2 4.4-5.7 5.9-9.3 7.5-3.8 1.3-7.2.6-10.5 0l-21.5-6.7-6.7.2h-60.5c-8 2.3-16.2 4.8-24.5 5.5-7.7-1.3-15-8.5-14.3-17.6z"/><path id="path343" fill="none" stroke="#110f06" stroke-width="1.5" d="M352.4 553.4c.4 3.8-.5 7.7-1.3 11.3-2.2 4.4-5.7 5.9-9.3 7.5-3.8 1.3-7.2.6-10.5 0l-21.5-6.7-6.7.2h-60.5c-8 2.3-16.2 4.8-24.5 5.5-7.7-1.3-15-8.5-14.3-17.6m10.8 0c0 1.9 1.2 6.9 6 7l26.1-6.6h64.6c8.1 3.2 16.3 5 25.1 6.7 4-.4 6.8-2.4 7-7.2"/></g><g id="g345" stroke-width="2" transform="matrix(0 .6149 .74293 0 -39.6 492.5)"><path id="path344" stroke="none" d="M203.8 553.6h10.8c0 1.9 1.2 6.9 6 7l26.1-7h64.4c8.1 3.2 16.6 5.6 25.4 7.3 4-.4 6.8-2.5 7-7.3h8.8c.4 3.9-.4 7.5-1.2 11.1-2.2 4.4-5.7 5.9-9.3 7.5-3.8 1.3-7.2.6-10.5 0l-21.5-6.7-6.7.2h-60.5c-8 2.3-16.2 4.8-24.5 5.5-7.7-1.3-15-8.5-14.3-17.6z"/><path id="path345" stroke="#110f06" stroke-width="1.5" d="M352.3 553.6c.4 3.9-.4 7.5-1.2 11.1-2.2 4.4-5.7 5.9-9.3 7.5-3.8 1.3-7.2.6-10.5 0l-21.5-6.7-6.7.2h-60.5c-8 2.3-16.2 4.8-24.5 5.5-7.7-1.3-15-8.5-14.3-17.6m10.8 0c0 1.9 1.2 6.9 6 7l26.1-6.6h64.6c8.1 3.2 16.4 5.2 25.2 6.9 4-.4 6.8-2.5 7-7.3"/></g><g id="g347" transform="matrix(0 .69822 -.74066 0 78.6 277.1)"><path id="path346" fill="#eac102" fill-rule="evenodd" stroke="none" d="M344.8-395.7h31.8c8.2-3.1 16.6-5.6 25.4-7.2 4.1.4 6.7 2.4 7 7.2h8.7c.5-3.9-.3-7.5-1-11.1-2.3-4.3-5.7-5.9-9.4-7.5-3.7-1.3-7.1-.5-10.5 0l-21.5 6.7-30.7-.1.2 12z"/><path id="path347" fill="none" stroke="#110f06" stroke-width="1.4" d="M417.7-395.6c.5-3.8-.3-7.6-1-11.2-2.3-4.3-5.7-5.9-9.4-7.5-3.7-1.3-7.1-.5-10.5 0l-21.5 6.7h-30.7m.1 11.7h32c8.2-3 16.5-5.4 25.3-7 4.1.4 6.7 2.5 6.9 7.3"/></g><path id="path348" stroke-width=".5" d="M251.5 329.1c-9.6 0-19.1 6-19.5 18.6 1 25 39.2 26.2 39.5 0-.7-12.2-10.4-18.4-20-18.6zm-.5 4.2c7.8-.3 16 4.7 16.5 14.6-.3 20.6-30.4 19.8-31.1 0 .3-9.7 7.3-14.4 14.6-14.6z" transform="matrix(2.08259 0 0 2.1274 -152.3 -147.3)"/><g id="g350" transform="matrix(-.43069 .5112 -.5767 -.48433 342.7 171.2)"><path id="path349" fill="#eac102" fill-rule="evenodd" stroke="none" d="M344.8-395.7h31.8c8.2-3.1 16.6-5.6 25.4-7.2 4.1.4 6.7 2.4 7 7.2h8.7c.5-3.9-.3-7.5-1-11.1-2.3-4.3-5.7-5.9-9.4-7.5-3.7-1.3-7.1-.5-10.5 0l-21.5 6.7-30.7-.1.2 12z"/><path id="path350" fill="none" stroke="#110f06" stroke-width="1.4" d="M417.7-395.6c.5-3.8-.3-7.6-1-11.2-2.3-4.3-5.7-5.9-9.4-7.5-3.7-1.3-7.1-.5-10.5 0l-21.5 6.7h-30.7m.1 11.7h32c8.2-3 16.5-5.4 25.3-7 4.1.4 6.7 2.5 6.9 7.3"/></g><g id="g352" transform="matrix(.42995 .5112 .5757 -.48433 401 171.2)"><path id="path351" fill="#eac102" fill-rule="evenodd" stroke="none" d="M344.8-395.7h31.8c8.2-3.1 16.6-5.6 25.4-7.2 4.1.4 6.7 2.4 7 7.2h8.7c.5-3.9-.3-7.5-1-11.1-2.3-4.3-5.7-5.9-9.4-7.5-3.7-1.3-7.1-.5-10.5 0l-21.5 6.7-30.7-.1.2 12z"/><path id="path352" fill="none" stroke="#110f06" stroke-width="1.4" d="M417.7-395.6c.5-3.8-.3-7.6-1-11.2-2.3-4.3-5.7-5.9-9.4-7.5-3.7-1.3-7.1-.5-10.5 0l-21.5 6.7h-30.7m.1 11.7h32c8.2-3 16.5-5.4 25.3-7 4.1.4 6.7 2.5 6.9 7.3"/></g></g><g id="g356" transform="matrix(-1.2151 1.1539 .8243 .86734 351.4 319.2)"><path id="path353" fill="#eac102" fill-rule="evenodd" d="M101.4 198.8v5.5c1.3 0 2.9.6 3 2.9l-3 13.5v20.5l5.3-.2v-22.4c1-4.1 2.2-8.2 2.5-12.4 0-4-3.6-7.4-7.8-7.4z"/><g id="g355" fill="none"><path id="path354" stroke="#110f06" stroke-width=".7" d="M106.9 241.5V219c1-4.1 2.2-8.2 2.5-12.4 0-4-3.6-7.4-7.9-7.3m0 5.5c1.3 0 3 .5 3 2.8l-2.8 13.5V242"/><path id="path355" d="M106.7 241.2v-22.6c1-4.1 2.2-8.2 2.5-12.4 0-4-3.6-7.4-7.9-7.4m0 5.6c1.3-.1 3 .5 3 2.8l-2.8 13.5v21.1"/></g></g><g id="g378" fill-rule="evenodd" stroke="#110f06"><g id="g357" transform="matrix(0 .69822 -.74066 0 78.6 277.1)"><path id="path356" fill="#eac102" fill-rule="evenodd" stroke="none" d="M269.2-395.7H280c-.1-3 1-6.5 5.6-6.7l26.7 6.7h40.5l-.3-12h-44.3c-8.1-2.4-16.2-4.9-24.5-5.6-8 0-14.6 8-14.5 17.6z"/><path id="path357" fill="none" stroke="#110f06" stroke-width="1.4" d="M352.9-407.7h-44.7c-8.1-2.4-16.2-4.9-24.5-5.6-8 0-14.6 8.1-14.5 17.7m10.9.2c-.1-3 1-6.8 5.5-7l26.7 6.4 41.7.1"/></g><g id="g359" transform="matrix(0 .68958 -.74082 0 78.9 191.4)"><path id="path358" fill="#eac102" fill-rule="evenodd" stroke="none" d="M344.8-395.7h31.8c8.2-3.1 16.6-5.6 25.4-7.2 4.1.4 6.7 2.4 7 7.2h8.7c.5-3.9-.3-7.5-1-11.1-2.3-4.3-5.7-5.9-9.4-7.5-3.7-1.3-7.1-.5-10.5 0l-21.5 6.7-30.7-.1.2 12z"/><path id="path359" fill="none" stroke="#110f06" stroke-width="1.4" d="M417.7-395.6c.5-3.8-.3-7.6-1-11.2-2.3-4.3-5.7-5.9-9.4-7.5-3.7-1.3-7.1-.5-10.5 0l-21.5 6.7h-30.7m.1 11.7h32c8.2-3 16.5-5.4 25.3-7 4.1.4 6.7 2.5 6.9 7.3"/></g><g id="g361" stroke-width="2" transform="matrix(0 .68958 -.74082 0 782.5 236.5)"><path id="path360" fill="#eac102" fill-rule="evenodd" stroke="none" d="M203.8 553.6h10.8c0 1.9 1.2 6.9 6 7l26.1-7h64.4c8.1 3.2 16.6 5.6 25.4 7.3 4-.4 6.8-2.5 7-7.3h8.8c.4 3.9-.4 7.5-1.2 11.1-2.2 4.4-5.7 5.9-9.3 7.5-3.8 1.3-7.2.6-10.5 0l-21.5-6.7-6.7.2h-60.5c-8 2.3-16.2 4.8-24.5 5.5-7.7-1.3-15-8.5-14.3-17.6z"/><path id="path361" fill="none" stroke="#110f06" stroke-width="1.4" d="M352.3 553.6c.4 3.9-.4 7.5-1.2 11.1-2.2 4.4-5.7 5.9-9.3 7.5-3.8 1.3-7.2.6-10.5 0l-21.5-6.7-6.7.2h-60.5c-8 2.3-16.2 4.8-24.5 5.5-7.7-1.3-15-8.5-14.3-17.6m10.8 0c0 1.9 1.2 6.9 6 7l26.1-6.6h64.6c8.1 3.2 16.4 5.2 25.2 6.9 4-.4 6.8-2.5 7-7.3"/></g><g id="g363" stroke-width="2" transform="matrix(0 .69822 -.74066 0 782.2 322.8)"><path id="path362" fill="#eac102" fill-rule="evenodd" stroke="none" d="M203.8 553.6h10.8c0 1.9 1.2 6.9 6 7l26.1-7h64.4c8.1 3.2 16.6 5.6 25.4 7.3 4-.4 6.8-2.5 7-7.3h8.8c.4 3.9-.4 7.5-1.2 11.1-2.2 4.4-5.7 5.9-9.3 7.5-3.8 1.3-7.2.6-10.5 0l-21.5-6.7-6.7.2h-60.5c-8 2.3-16.2 4.8-24.5 5.5-7.7-1.3-15-8.5-14.3-17.6z"/><path id="path363" fill="none" stroke="#110f06" stroke-width="1.4" d="M352.4 553c.5 4-.5 8.1-1.3 11.7-2.2 4.4-5.7 5.9-9.3 7.5-3.8 1.3-7.2.6-10.5 0l-21.5-6.7-6.7.2h-60.5c-8 2.3-16.2 4.8-24.5 5.5-7.7-1.3-15-8.5-14.3-17.6m10.8 0c0 1.9 1.2 6.9 6 7l26.1-6.6h64.6c8.1 3.2 16.4 5.2 25.2 6.9 4-.4 6.7-2.6 7-7.4"/></g><g id="g365" transform="matrix(0 .6149 .74293 0 666.2 607.2)"><path id="path364" fill="#eac102" fill-rule="evenodd" stroke="none" d="M344.8-395.7h31.8c8.2-3.1 16.6-5.6 25.4-7.2 4.1.4 6.7 2.4 7 7.2h8.7c.5-3.9-.3-7.5-1-11.1-2.3-4.3-5.7-5.9-9.4-7.5-3.7-1.3-7.1-.5-10.5 0l-21.5 6.7-30.7-.1.2 12z"/><path id="path365" fill="none" stroke="#110f06" stroke-width="1.5" d="M417.7-395.6c.5-3.8-.3-7.6-1-11.2-2.3-4.3-5.7-5.9-9.4-7.5-3.7-1.3-7.1-.5-10.5 0l-21.5 6.7h-30.7m.1 11.7h32c8.2-3 16.5-5.4 25.3-7 4.1.4 6.7 2.5 6.9 7.3"/></g><g id="g367" stroke-width="2" transform="matrix(0 .6149 .74293 0 -39.3 571.1)"><path id="path366" fill="#eac102" fill-rule="evenodd" stroke="none" d="M203.8 553.6h10.8c0 1.9 1.2 6.9 6 7l26.1-7h64.4c8.1 3.2 16.6 5.6 25.4 7.3 4-.4 6.8-2.5 7-7.3h8.8c.4 3.9-.4 7.5-1.2 11.1-2.2 4.4-5.7 5.9-9.3 7.5-3.8 1.3-7.2.6-10.5 0l-21.5-6.7-6.7.2h-60.5c-8 2.3-16.2 4.8-24.5 5.5-7.7-1.3-15-8.5-14.3-17.6z"/><path id="path367" fill="none" stroke="#110f06" stroke-width="1.5" d="M352.4 553c.5 4-.5 8.1-1.3 11.7-2.2 4.4-5.7 5.9-9.3 7.5-3.8 1.3-7.2.6-10.5 0l-21.5-6.7-6.7.2h-60.5c-8 2.3-16.2 4.8-24.5 5.5-7.7-1.3-15-8.5-14.3-17.6m10.8 0c0 1.9 1.2 6.9 6 7l26.1-6.6h64.6c8.1 3.2 16.4 5.2 25.2 6.9 4-.4 6.7-2.6 7-7.4"/></g><g id="g369" transform="matrix(0 .6149 .74293 0 666.4 530.9)"><path id="path368" fill="#eac102" fill-rule="evenodd" stroke="none" d="M269.2-395.7H280c-.1-3 1-6.5 5.6-6.7l26.7 6.7h40.5l-.3-12h-44.3c-8.1-2.4-16.2-4.9-24.5-5.6-8 0-14.6 8-14.5 17.6z"/><path id="path369" fill="none" stroke="#110f06" stroke-width="1.5" d="M352.9-407.7h-44.7c-8.1-2.4-16.2-4.9-24.5-5.6-8 0-14.6 8.1-14.5 17.7m10.9.2c-.1-3 1-6.8 5.5-7l26.7 6.4 41.7.1"/></g><g id="g371" transform="matrix(0 .6149 .74293 0 666 452.2)"><path id="path370" fill="#eac102" fill-rule="evenodd" stroke="none" d="M344.8-395.7h31.8c8.2-3.1 16.6-5.6 25.4-7.2 4.1.4 6.7 2.4 7 7.2h8.7c.5-3.9-.3-7.5-1-11.1-2.3-4.3-5.7-5.9-9.4-7.5-3.7-1.3-7.1-.5-10.5 0l-21.5 6.7-30.7-.1.2 12z"/><path id="path371" fill="none" stroke="#110f06" stroke-width="1.5" d="M417.7-395.6c.5-3.8-.3-7.6-1-11.2-2.3-4.3-5.7-5.9-9.4-7.5-3.7-1.3-7.1-.5-10.5 0l-21.5 6.7h-30.7m.1 11.7h32c8.2-3 16.5-5.4 25.3-7 4.1.4 6.7 2.5 6.9 7.3"/></g><g id="g373" transform="matrix(0 .6149 .74293 0 666.4 530.9)"><path id="path372" fill="#eac102" fill-rule="evenodd" stroke="none" d="M344.8-395.7h31.8c8.2-3.1 16.6-5.6 25.4-7.2 4.1.4 6.7 2.4 7 7.2h8.7c.5-3.9-.3-7.5-1-11.1-2.3-4.3-5.7-5.9-9.4-7.5-3.7-1.3-7.1-.5-10.5 0l-21.5 6.7-30.7-.1.2 12z"/><path id="path373" fill="none" stroke="#110f06" stroke-width="1.5" d="M417.7-395.6c.5-3.8-.3-7.6-1-11.2-2.3-4.3-5.7-5.9-9.4-7.5-3.7-1.3-7.1-.5-10.5 0l-21.5 6.7h-30.7m.1 11.7h32c8.2-3 16.5-5.4 25.3-7 4.1.4 6.7 2.5 6.9 7.3"/></g><g id="g375" transform="matrix(0 .58798 .74383 0 666.6 616.8)"><path id="path374" fill="#eac102" fill-rule="evenodd" stroke="none" d="M269.2-395.7H280c-.1-3 1-6.5 5.6-6.7l26.7 6.7h40.5l-.3-12h-44.3c-8.1-2.4-16.2-4.9-24.5-5.6-8 0-14.6 8-14.5 17.6z"/><path id="path375" fill="none" stroke="#110f06" stroke-width="1.5" d="M352.9-407.7h-44.7c-8.1-2.4-16.2-4.9-24.5-5.6-8 0-14.6 8.1-14.5 17.7m10.9.2c-.1-3 1-6.8 5.5-7l26.7 6.4 41.7.1"/></g><g id="g377" transform="matrix(0 .6149 .74293 0 666 452.2)"><path id="path376" fill="#eac102" fill-rule="evenodd" stroke="none" d="M269.2-395.7H280c-.1-3 1-6.5 5.6-6.7l26.7 6.7h40.5l-.3-12h-44.3c-8.1-2.4-16.2-4.9-24.5-5.6-8 0-14.6 8-14.5 17.6z"/><path id="path377" fill="none" stroke="#110f06" stroke-width="1.5" d="M352.9-407.7h-44.7c-8.1-2.4-16.2-4.9-24.5-5.6-8 0-14.6 8.1-14.5 17.7m10.9.2c-.1-3 1-6.8 5.5-7l26.7 6.4 41.7.1"/></g></g></g><g id="g388" fill="#008f4c" fill-rule="evenodd" stroke="#000" stroke-width=".9" transform="matrix(1.0405 0 0 1.11162 58.8 256.2)"><g id="g387"><path id="path379" d="M313.4 282.6c7.5 10 1.2 1.2 8.6 11.7-.4 19.5.3 2-.4 21-9.8 9.5-.9.7-10.6 10.3-18.5-.4-1 0-19.9-.6-10.2-8.3-1.2-1.6-11.7-10.8-.3-19.5-.1-1.6-.1-21.2 8.6-8.2 2-2.3 10.7-10.5h23.4z"/><path id="path380" d="m295.5 292.6-5.3-10.1"/><path id="path381" d="m306.3 292.6 6.4-9.6"/><path id="path382" d="m310.7 298.7 10.6-4.5"/><path id="path383" d="m310.4 309.9 10.8 5"/><path id="path384" d="m305.3 315.5 5.5 9.8"/><path id="path385" d="m296 315.2-4.5 9.3"/><path id="path386" d="m290.3 309-10.3 5.2"/><path id="path387" d="m290.8 298-11.1-5"/></g><path id="path388" d="m308.4 288.8 5.3 8.2c-.2 13.7.2 1.5-.2 14.7L307 319l-12.2-.4c-6.2-6-.7-1.2-7.2-7.6v-15c5.2-5.6 1.2-1.5 6.5-7.2 5.5-.1 8.2 0 14.3 0z"/></g><g id="g417" fill="#eac102"><g id="g405" fill-rule="evenodd" stroke="#110f06"><g id="g390" transform="matrix(.5885 0 0 .73643 316.4 883.7)"><path id="path389" fill="#eac102" fill-rule="evenodd" stroke="none" d="M344.8-395.7h31.8c8.2-3.1 16.6-5.6 25.4-7.2 4.1.4 6.7 2.4 7 7.2h8.7c.5-3.9-.3-7.5-1-11.1-2.3-4.3-5.7-5.9-9.4-7.5-3.7-1.3-7.1-.5-10.5 0l-21.5 6.7-30.7-.1.2 12z"/><path id="path390" fill="none" stroke="#110f06" stroke-width="1.5" d="M417.7-395.6c.5-3.8-.3-7.6-1-11.2-2.3-4.3-5.7-5.9-9.4-7.5-3.7-1.3-7.1-.5-10.5 0l-21.5 6.7h-30.7m.1 11.7h32c8.2-3 16.5-5.4 25.3-7 4.1.4 6.7 2.5 6.9 7.3"/></g><g id="g392" transform="matrix(.59901 0 0 .7361 312.8 883.6)"><path id="path391" fill="#eac102" fill-rule="evenodd" stroke="none" d="M269.2-395.7H280c-.1-3 1-6.5 5.6-6.7l26.7 6.7h40.5l-.3-12h-44.3c-8.1-2.4-16.2-4.9-24.5-5.6-8 0-14.6 8-14.5 17.6z"/><path id="path392" fill="none" stroke="#110f06" stroke-width="1.5" d="M352.9-407.7h-44.7c-8.1-2.4-16.2-4.9-24.5-5.6-8 0-14.6 8.1-14.5 17.7m10.9.2c-.1-3 1-6.8 5.5-7l26.7 6.4 41.7.1"/></g><g id="g394" transform="matrix(.59901 0 0 .7361 236 884.2)"><path id="path393" fill="#eac102" fill-rule="evenodd" stroke="none" d="M269.2-395.7H280c-.1-3 1-6.5 5.6-6.7l26.7 6.7h40.5l-.3-12h-44.3c-8.1-2.4-16.2-4.9-24.5-5.6-8 0-14.6 8-14.5 17.6z"/><path id="path394" fill="none" stroke="#110f06" stroke-width="1.5" d="M352.9-407.7h-44.7c-8.1-2.4-16.2-4.9-24.5-5.6-8 0-14.6 8.1-14.5 17.7m10.9.2c-.1-3 1-6.8 5.5-7l26.7 6.4 41.7.1"/></g><g id="g396" transform="matrix(.59901 0 0 .7361 236 884.2)"><path id="path395" fill="#eac102" fill-rule="evenodd" stroke="none" d="M344.8-395.7h31.8c8.2-3.1 16.6-5.6 25.4-7.2 4.1.4 6.7 2.4 7 7.2h8.7c.5-3.9-.3-7.5-1-11.1-2.3-4.3-5.7-5.9-9.4-7.5-3.7-1.3-7.1-.5-10.5 0l-21.5 6.7-30.7-.1.2 12z"/><path id="path396" fill="none" stroke="#110f06" stroke-width="1.5" d="M417.7-395.6c.5-3.8-.3-7.6-1-11.2-2.3-4.3-5.7-5.9-9.4-7.5-3.7-1.3-7.1-.5-10.5 0l-21.5 6.7h-30.7m.1 11.7h32c8.2-3 16.5-5.4 25.3-7 4.1.4 6.7 2.5 6.9 7.3"/></g><g id="g398" transform="matrix(-.60296 0 0 .73553 510 883.2)"><path id="path397" fill="#eac102" fill-rule="evenodd" stroke="none" d="M269.2-395.7H280c-.1-3 1-6.5 5.6-6.7l26.7 6.7h40.5l-.3-12h-44.3c-8.1-2.4-16.2-4.9-24.5-5.6-8 0-14.6 8-14.5 17.6z"/><path id="path398" fill="none" stroke="#110f06" stroke-width="1.5" d="M352.9-407.7h-44.7c-8.1-2.4-16.2-4.9-24.5-5.6-8 0-14.6 8.1-14.5 17.7m10.9.2c-.1-3 1-6.8 5.5-7l26.7 6.4 41.7.1"/></g><g id="g400" transform="matrix(-.6149 0 0 .73516 436.8 882.5)"><path id="path399" fill="#eac102" fill-rule="evenodd" stroke="none" d="M344.8-395.7h31.8c8.2-3.1 16.6-5.6 25.4-7.2 4.1.4 6.7 2.4 7 7.2h8.7c.5-3.9-.3-7.5-1-11.1-2.3-4.3-5.7-5.9-9.4-7.5-3.7-1.3-7.1-.5-10.5 0l-21.5 6.7-30.7-.1.2 12z"/><path id="path400" fill="none" stroke="#110f06" stroke-width="1.5" d="M417.7-395.6c.5-3.8-.3-7.6-1-11.2-2.3-4.3-5.7-5.9-9.4-7.5-3.7-1.3-7.1-.5-10.5 0l-21.5 6.7h-30.7m.1 11.7h32c8.2-3 16.5-5.4 25.3-7 4.1.4 6.7 2.5 6.9 7.3"/></g><g id="g402" transform="matrix(-.60296 0 0 .73553 432.7 882.6)"><path id="path401" fill="#eac102" fill-rule="evenodd" stroke="none" d="M269.2-395.7H280c-.1-3 1-6.5 5.6-6.7l26.7 6.7h40.5l-.3-12h-44.3c-8.1-2.4-16.2-4.9-24.5-5.6-8 0-14.6 8-14.5 17.6z"/><path id="path402" fill="none" stroke="#110f06" stroke-width="1.5" d="M352.9-407.7h-44.7c-8.1-2.4-16.2-4.9-24.5-5.6-8 0-14.6 8.1-14.5 17.7m10.9.2c-.1-3 1-6.8 5.5-7l26.7 6.4 41.7.1"/></g><g id="g404" transform="matrix(-.60296 0 0 .73553 510 883.2)"><path id="path403" fill="#eac102" fill-rule="evenodd" stroke="none" d="M344.8-395.7h31.8c8.2-3.1 16.6-5.6 25.4-7.2 4.1.4 6.7 2.4 7 7.2h8.7c.5-3.9-.3-7.5-1-11.1-2.3-4.3-5.7-5.9-9.4-7.5-3.7-1.3-7.1-.5-10.5 0l-21.5 6.7-30.7-.1.2 12z"/><path id="path404" fill="none" stroke="#110f06" stroke-width="1.5" d="M417.7-395.6c.5-3.8-.3-7.6-1-11.2-2.3-4.3-5.7-5.9-9.4-7.5-3.7-1.3-7.1-.5-10.5 0l-21.5 6.7h-30.7m.1 11.7h32c8.2-3 16.5-5.4 25.3-7 4.1.4 6.7 2.5 6.9 7.3"/></g></g><path id="path405" fill-rule="nonzero" stroke="#000" stroke-linejoin="round" d="M-70 623.7a31.2 31.2 0 1 0 0 62.4 31.2 31.2 0 0 0 0-62.4zm0 7.4a23.7 23.7 0 1 1 0 47.5 23.7 23.7 0 0 1 0-47.5z" transform="translate(650.2 -62.2)"/><g id="g413" fill-rule="evenodd" stroke="#110f06"><g id="g407" transform="matrix(0 .62172 .7336 0 874.6 441.7)"><path id="path406" fill="#eac102" fill-rule="evenodd" stroke="none" d="M269.2-395.7H280c-.1-3 1-6.5 5.6-6.7l26.7 6.7h40.5l-.3-12h-44.3c-8.1-2.4-16.2-4.9-24.5-5.6-8 0-14.6 8-14.5 17.6z"/><path id="path407" fill="none" stroke="#110f06" stroke-width="1.5" d="M352.9-407.7h-44.7c-8.1-2.4-16.2-4.9-24.5-5.6-8 0-14.6 8.1-14.5 17.7m10.9.2c-.1-3 1-6.8 5.5-7l26.7 6.4 41.7.1"/></g><g id="g412" stroke-width="2"><g id="g409" transform="matrix(0 .70955 -.7322 0 990 325.9)"><path id="path408" fill="#eac102" fill-rule="evenodd" stroke="none" d="M203.8 553.6h10.8c0 1.9 1.2 6.9 6 7l26.1-7h64.4c8.1 3.2 16.6 5.6 25.4 7.3 4-.4 6.8-2.5 7-7.3h8.8c.4 3.9-.4 7.5-1.2 11.1-2.2 4.4-5.7 5.9-9.3 7.5-3.8 1.3-7.2.6-10.5 0l-21.5-6.7-6.7.2h-60.5c-8 2.3-16.2 4.8-24.5 5.5-7.7-1.3-15-8.5-14.3-17.6z"/><path id="path409" fill="none" stroke="#110f06" stroke-width="1.4" d="M352.9 553.2c.5 3.9-.5 8-1.3 11.5-2.2 4.4-5.6 5.9-9.3 7.5-3.8 1.3-7.2.6-10.5 0l-21.5-6.7-6.7.2h-60.5c-8 2.3-16.1 4.8-24.5 5.5-7.7-1.3-15-8.5-14.3-17.6m10.8 0c0 1.9 1.2 6.9 6 7l26.1-6.6h64.6c8.1 3.2 16.4 5.2 25.2 6.9 4-.4 6.8-2.8 7-7.6"/></g><g id="g411" transform="matrix(.59376 0 0 .73643 353 184.2)"><path id="path410" fill="#eac102" fill-rule="evenodd" stroke="none" d="M203.8 553.6h10.8c0 1.9 1.2 6.9 6 7l26.1-7h64.4c8.1 3.2 16.6 5.6 25.4 7.3 4-.4 6.8-2.5 7-7.3h8.8c.4 3.9-.4 7.5-1.2 11.1-2.2 4.4-5.7 5.9-9.3 7.5-3.8 1.3-7.2.6-10.5 0l-21.5-6.7-6.7.2h-60.5c-8 2.3-16.2 4.8-24.5 5.5-7.7-1.3-15-8.5-14.3-17.6z"/><path id="path411" fill="none" stroke="#110f06" stroke-width="1.5" d="M352.4 553.2c.4 3.8-.5 8-1.3 11.5-2.2 4.4-5.7 5.9-9.3 7.5-3.8 1.3-7.2.6-10.5 0l-21.5-6.7-6.7.2h-60.5c-8 2.3-16.2 4.8-24.5 5.5-7.7-1.3-15-8.5-14.3-17.6m10.8 0c0 1.9 1.2 6.9 6 7l26.1-6.6h64.6c8.1 3.2 16.4 5.2 25.2 6.9 4-.4 6.6-3 6.9-7.7"/></g></g></g><path id="path413" fill-rule="nonzero" stroke="#000" stroke-linejoin="round" d="M-70 623.7a31.2 31.2 0 1 0 0 62.4 31.2 31.2 0 0 0 0-62.4zm0 7.4a23.7 23.7 0 1 1 0 47.5 23.7 23.7 0 0 1 0-47.5z" transform="translate(645.6 -293.3)"/><g id="g416" fill-rule="evenodd"><g id="g415" stroke="#110f06" transform="matrix(0 .74178 -.73116 0 295.2 175.5)"><path id="path414" fill="#eac102" fill-rule="evenodd" stroke="none" d="M269.2-395.7H280c-.1-3 1-6.5 5.6-6.7l26.7 6.7h40.5l-.3-12h-44.3c-8.1-2.4-16.2-4.9-24.5-5.6-8 0-14.6 8-14.5 17.6z"/><path id="path415" fill="none" stroke="#110f06" stroke-width="1.4" d="M352.9-407.7h-44.7c-8.1-2.4-16.2-4.9-24.5-5.6-8 0-14.6 8.1-14.5 17.7m10.9.2c-.1-3 1-6.8 5.5-7l26.7 6.4 41.7.1"/></g><path id="path416" d="M101.6 198.9v5.4c-.8 0-3 .7-3 3l3 13.3v32.6a81.3 81.3 0 0 0-3.2 12.9c.2 2 1 3.4 3.2 3.5v4.4c-1.7.3-3.3-.1-5-.5-1.8-1.2-2.5-2.9-3.2-4.8-.6-1.9-.3-3.6 0-5.3l3-10.9-.1-3.3v-30.7c-1-4-2.2-8.2-2.5-12.4.6-3.9 3.8-7.6 7.8-7.2z" transform="matrix(1.25453 1.06966 -.82207 .9906 598.9 66.5)"/></g></g><path id="path417" fill="none" stroke="#110f06" stroke-width=".7" d="M101.7 274.4c-1.7.3-3.3-.2-5-.6-1.8-1-2.5-2.8-3.3-4.7-.5-1.9-.2-3.6 0-5.3l3-10.9v-34c-1-4.1-2.2-8.2-2.5-12.4.6-4 3.8-7.6 7.8-7.3m0 5.5c-.8 0-3 .6-3 3l2.8 13.3v32.7a79.8 79.8 0 0 0-3 12.7c.2 2.1 1 3.5 3.2 3.6" transform="matrix(1.25453 1.06966 -.82207 .9906 598.9 66.5)"/><g id="g434" fill="#eac102"><g id="g419" fill-rule="evenodd" stroke="#110f06" stroke-width="2" transform="matrix(-.6055 0 0 .69571 682 -23.7)"><path id="path418" fill="#eac102" fill-rule="evenodd" stroke="none" d="M203.8 553.6h10.8c0 1.9 1.2 6.9 6 7l26.1-7h64.4c8.1 3.2 16.6 5.6 25.4 7.3 4-.4 6.8-2.5 7-7.3h8.8c.4 3.9-.4 7.5-1.2 11.1-2.2 4.4-5.7 5.9-9.3 7.5-3.8 1.3-7.2.6-10.5 0l-21.5-6.7-6.7.2h-60.5c-8 2.3-16.2 4.8-24.5 5.5-7.7-1.3-15-8.5-14.3-17.6z"/><path id="path419" fill="none" stroke="#000" stroke-width="1.5" d="M352.3 553.2c.4 3.9-.4 7.5-1.2 11.2-2.2 4.3-5.7 5.8-9.3 7.4-3.8 1.4-7.2.6-10.5 0l-21.5-6.6h-67.2c-8 2.4-16.2 5-24.5 5.6-7.7-1.3-15-8.5-14.3-17.6m10.8 0c0 1.9 1.2 6.9 6 7l26.1-6.6h64.6c8.1 3.2 16.4 5.2 25.2 6.9 4-.4 6.8-2.5 7-7.2"/></g><path id="path420" fill-rule="nonzero" stroke="#000" stroke-linejoin="round" d="M-70 623.7a31.2 31.2 0 1 0 0 62.4 31.2 31.2 0 0 0 0-62.4zm0 7.4a23.7 23.7 0 1 1 0 47.5 23.7 23.7 0 0 1 0-47.5z" transform="translate(233 -62.2)"/><g id="g422" fill-rule="evenodd" stroke="#110f06" stroke-width="2" transform="matrix(-.60892 0 0 .73516 394.5 184.2)"><path id="path421" fill="#eac102" fill-rule="evenodd" stroke="none" d="M203.8 553.6h10.8c0 1.9 1.2 6.9 6 7l26.1-7h64.4c8.1 3.2 16.6 5.6 25.4 7.3 4-.4 6.8-2.5 7-7.3h8.8c.4 3.9-.4 7.5-1.2 11.1-2.2 4.4-5.7 5.9-9.3 7.5-3.8 1.3-7.2.6-10.5 0l-21.5-6.7-6.7.2h-60.5c-8 2.3-16.2 4.8-24.5 5.5-7.7-1.3-15-8.5-14.3-17.6z"/><path id="path422" fill="none" stroke="#110f06" stroke-width="1.5" d="M352.4 553.2c.4 3.8-.5 8-1.3 11.5-2.2 4.4-5.7 5.9-9.3 7.5-3.8 1.3-7.2.6-10.5 0l-21.5-6.7-6.7.2h-60.5c-8 2.3-16.2 4.8-24.5 5.5-7.7-1.3-15-8.5-14.3-17.6m10.8 0c0 1.9 1.2 6.9 6 7l26.1-6.6h64.6c8.1 3.2 16.4 5.2 25.2 6.9 4-.4 6.6-3 6.9-7.7"/></g><g id="g426" transform="matrix(-.63696 -1.4737 -1.29037 .5427 888.7 845)"><path id="path423" fill="#eac102" fill-rule="evenodd" d="M101.4 198.8v5.5c1.3 0 2.9.6 3 2.9l-3 13.5v20.5l5.3-.2v-22.4c1-4.1 2.2-8.2 2.5-12.4 0-4-3.6-7.4-7.8-7.4z"/><g id="g425" fill="none"><path id="path424" stroke="#110f06" stroke-width=".7" d="M106.9 241.5V219c1-4.1 2.2-8.2 2.5-12.4 0-4-3.6-7.4-7.9-7.3m0 5.5c1.3 0 3 .5 3 2.8l-2.8 13.5V242"/><path id="path425" d="M106.7 241.2v-22.6c1-4.1 2.2-8.2 2.5-12.4 0-4-3.6-7.4-7.9-7.4m0 5.6c1.3-.1 3 .5 3 2.8l-2.8 13.5v21.1"/></g></g><g id="g429" transform="matrix(.63767 -1.51733 1.29181 .55876 -144.2 844.7)"><path id="path426" fill="#eac102" fill-rule="evenodd" d="M101.4 198.8v5.5c1.3 0 2.9.6 3 2.9l-3 13.5v20.5l5.3-.2v-22.4c1-4.1 2.2-8.2 2.5-12.4 0-4-3.6-7.4-7.8-7.4z"/><g id="g428" fill="none"><path id="path427" stroke="#110f06" stroke-width=".7" d="M106.9 241.5V219c1-4.1 2.2-8.2 2.5-12.4 0-4-3.6-7.4-7.9-7.3m0 5.5c1.3 0 3 .5 3 2.8l-2.8 13.5V242"/><path id="path428" d="M106.7 241.2v-22.6c1-4.1 2.2-8.2 2.5-12.4 0-4-3.6-7.4-7.9-7.4m0 5.6c1.3-.1 3 .5 3 2.8l-2.8 13.5v21.1"/></g></g><g id="g430" fill-rule="nonzero" stroke="#000" stroke-linejoin="round" transform="translate(5.4 .2)"><path id="path429" d="M-70 623.7a31.2 31.2 0 1 0 0 62.4 31.2 31.2 0 0 0 0-62.4zm0 7.4a23.7 23.7 0 1 1 0 47.5 23.7 23.7 0 0 1 0-47.5z" transform="translate(645.7 140.5)"/><path id="path430" d="M-70 623.7a31.2 31.2 0 1 0 0 62.4 31.2 31.2 0 0 0 0-62.4zm0 7.4a23.7 23.7 0 1 1 0 47.5 23.7 23.7 0 0 1 0-47.5z" transform="translate(227.6 140.5)"/></g><g id="g432" fill-rule="evenodd" stroke="#110f06" stroke-width="2" transform="matrix(0 .59934 .73444 0 177.6 566.5)"><path id="path431" fill="#eac102" fill-rule="evenodd" stroke="none" d="M203.8 553.6h10.8c0 1.9 1.2 6.9 6 7l26.1-7h64.4c8.1 3.2 16.6 5.6 25.4 7.3 4-.4 6.8-2.5 7-7.3h8.8c.4 3.9-.4 7.5-1.2 11.1-2.2 4.4-5.7 5.9-9.3 7.5-3.8 1.3-7.2.6-10.5 0l-21.5-6.7-6.7.2h-60.5c-8 2.3-16.2 4.8-24.5 5.5-7.7-1.3-15-8.5-14.3-17.6z"/><path id="path432" fill="none" stroke="#000" stroke-width="1.5" d="M352.4 553.2c.5 3.9-.5 8-1.3 11.5-2.2 4.4-5.7 5.9-9.3 7.5-3.8 1.3-7.2.6-10.5 0l-21.5-6.7-6.7.2h-60.5c-8 2.3-16.2 4.8-24.5 5.5-7.7-1.3-15-8.5-14.3-17.6m10.8 0c0 1.9 1.2 6.9 6 7l26.1-6.6h64.6c8.1 3.2 16.4 5.2 25.2 6.9 4-.4 6.8-2.8 7-7.6"/></g><path id="path433" fill-rule="nonzero" stroke="#000" stroke-linejoin="round" d="M-70 623.7a31.2 31.2 0 1 0 0 62.4 31.2 31.2 0 0 0 0-62.4zm0 7.4a23.7 23.7 0 1 1 0 47.5 23.7 23.7 0 0 1 0-47.5z" transform="translate(233 -293.3)"/><path id="path434" fill-rule="evenodd" d="M114 190.2h4.8c0 .8.6 2.8 2.8 2.8l12-2.8h29.3a72 72 0 0 0 11.6 3c1.8-.2 3-1 3.2-3h4c.2 1.6-.2 3-.6 4.5-1 1.8-2.5 2.4-4.2 3.1-1.7.5-3.3.2-4.8 0l-9.8-2.7h-30.7c-3.7 1-7.3 2-11.1 2.3-3.6-.6-7-3.5-6.6-7.2z" transform="matrix(1.3871 0 0 1.70094 21.7 37.3)"/></g><path id="path435" fill="none" stroke="#110f06" stroke-width=".7" d="M181.5 190c.2 1.6-.2 3.2-.6 4.7-1 1.8-2.6 2.4-4.2 3-1.7.6-3.3.3-4.8 0l-9.7-2.7h-30.4c-3.7 1-7.4 2-11.1 2.3-3.6-.5-6.9-3.5-6.5-7.2m4.8 0c0 .8.6 2.8 2.8 2.9l11.8-2.7h29.2c3.7 1.3 7.5 2.1 11.5 2.8 1.8-.2 3-1.1 3-3" transform="matrix(1.3871 0 0 1.70094 21.7 37.3)"/><g id="g444" fill="#eac102"><g id="g439" transform="matrix(-1.35422 1.12558 .8874 1.04238 138.3 47.4)"><path id="path436" fill="#eac102" fill-rule="evenodd" d="M101.4 198.8v5.5c1.3 0 2.9.6 3 2.9l-3 13.5v20.5l5.3-.2v-22.4c1-4.1 2.2-8.2 2.5-12.4 0-4-3.6-7.4-7.8-7.4z"/><g id="g438" fill="none"><path id="path437" stroke="#110f06" stroke-width=".7" d="M106.9 241.5V219c1-4.1 2.2-8.2 2.5-12.4 0-4-3.6-7.4-7.9-7.3m0 5.5c1.3 0 3 .5 3 2.8l-2.8 13.5V242"/><path id="path438" d="M106.7 241.2v-22.6c1-4.1 2.2-8.2 2.5-12.4 0-4-3.6-7.4-7.9-7.4m0 5.6c1.3-.1 3 .5 3 2.8l-2.8 13.5v21.1"/></g></g><path id="path439" fill-rule="nonzero" stroke="#000" stroke-linejoin="round" d="M-70 623.7a31.2 31.2 0 1 0 0 62.4 31.2 31.2 0 0 0 0-62.4zm0 7.4a23.7 23.7 0 1 1 0 47.5 23.7 23.7 0 0 1 0-47.5z" transform="translate(442 -293.3)"/><g id="g443" fill-rule="evenodd"><g id="g441" stroke="#110f06" transform="matrix(0 .68958 -.74082 0 78.9 191.4)"><path id="path440" fill="#eac102" fill-rule="evenodd" stroke="none" d="M269.2-395.7H280c-.1-3 1-6.5 5.6-6.7l26.7 6.7h40.5l-.3-12h-44.3c-8.1-2.4-16.2-4.9-24.5-5.6-8 0-14.6 8-14.5 17.6z"/><path id="path441" fill="none" stroke="#110f06" stroke-width="1.4" d="M352.9-407.7h-44.7c-8.1-2.4-16.2-4.9-24.5-5.6-8 0-14.6 8.1-14.5 17.7m10.9.2c-.1-3 1-6.8 5.5-7l26.7 6.4 41.7.1"/></g><path id="path442" d="M207.3 190.1h14.4c3.7-1.3 7.5-2.3 11.5-3 1.8.2 3 1 3.1 3h4c.2-1.6-.1-3-.5-4.5-1-1.8-2.6-2.4-4.2-3.1-1.7-.5-3.2-.2-4.8 0l-9.7 2.7h-13.9l.1 4.9z" transform="matrix(1.3871 0 0 1.70094 21.7 37.3)"/><path id="path443" d="M101 236v16.8a85 85 0 0 1 3.3 13.5c-.2 2.2-1.2 3.6-3.4 3.7v4.6c1.8.3 3.5-.1 5.2-.5 2-1.2 2.7-3 3.5-5 .6-2 .3-3.8 0-5.5l-3.1-11.5v-16.3l-5.6.2z" transform="matrix(.62376 -1.46584 1.26363 .5398 -136 844)"/></g></g><path id="path444" fill="none" stroke="#110f06" stroke-width=".7" d="M101.5 274.4a13 13 0 0 0 5-.5c2-1.2 2.6-3 3.3-4.8.6-2 .3-3.7 0-5.4l-3-11V237m-5.1 0v16.4c1.3 4.2 2.4 8.5 3 13-.1 2-1 3.4-3.2 3.5" transform="matrix(.62376 -1.46584 1.26363 .5398 -136 844)"/><g id="g446" fill="#eac102" fill-rule="evenodd" stroke="#110f06" transform="matrix(.63984 .27333 -.27712 .65125 -21.6 1022.1)"><path id="path445" fill="#eac102" fill-rule="evenodd" stroke="none" d="M344.8-395.7h31.8c8.2-3.1 16.6-5.6 25.4-7.2 4.1.4 6.7 2.4 7 7.2h8.7c.5-3.9-.3-7.5-1-11.1-2.3-4.3-5.7-5.9-9.4-7.5-3.7-1.3-7.1-.5-10.5 0l-21.5 6.7-30.7-.1.2 12z"/><path id="path446" fill="none" stroke="#110f06" stroke-width="1.4" d="M417.7-395.6c.5-3.8-.3-7.6-1-11.2-2.3-4.3-5.7-5.9-9.4-7.5-3.7-1.3-7.1-.5-10.5 0l-21.5 6.7h-30.7m.1 11.7h32c8.2-3 16.5-5.4 25.3-7 4.1.4 6.7 2.5 6.9 7.3"/></g><path id="path447" fill="#eac102" fill-rule="evenodd" d="M101.6 198.9v5.4c-.8 0-3 .7-3 3l3 13.3v32.6a81.3 81.3 0 0 0-3.2 12.9c.2 2 1 3.4 3.2 3.5v4.4c-1.7.3-3.3-.1-5-.5-1.8-1.2-2.5-2.9-3.2-4.8-.6-1.9-.3-3.6 0-5.3l3-10.9-.1-3.3v-30.7c-1-4-2.2-8.2-2.5-12.4.6-3.9 3.8-7.6 7.8-7.2z" transform="matrix(.62899 -1.47534 1.27423 .5433 -139.3 844)"/><path id="path448" fill="none" stroke="#110f06" stroke-width=".7" d="M101.7 274.4c-1.7.3-3.3-.2-5-.6-1.8-1-2.5-2.8-3.3-4.7-.5-1.9-.2-3.6 0-5.3l3-10.9v-34c-1-4.1-2.2-8.2-2.5-12.4.6-4 3.8-7.6 7.8-7.3m0 5.5c-.8 0-3 .6-3 3l2.8 13.3v32.7a79.8 79.8 0 0 0-3 12.7c.2 2.1 1 3.5 3.2 3.6" transform="matrix(.632 -1.50328 1.28034 .5536 -141.3 843.8)"/><path id="path449" fill="#eac102" fill-rule="evenodd" d="M101.2 263.6v5.5c1.3 0 2.9.5 3 2.8l-3 13.5V306l5.3-.2v-22.4c1-4.1 2.2-8.2 2.5-12.4 0-4-3.5-7.4-7.8-7.4z" transform="matrix(.62376 -1.46584 1.26363 .5398 -136 844)"/><path id="path450" fill="none" stroke="#110f06" stroke-width=".7" d="M106.5 306v-22.6c1-4.1 2.2-8.2 2.5-12.4 0-4-3.6-7.4-7.9-7.4m0 5.5c1.3 0 3 .5 3 2.8l-2.8 13.5v21.2" transform="matrix(.62376 -1.46584 1.26363 .5398 -136 844)"/><path id="path451" fill="#eac102" fill-rule="evenodd" d="M101 236v16.8a85 85 0 0 1 3.3 13.5c-.2 2.2-1.2 3.6-3.4 3.7v4.6c1.8.3 3.5-.1 5.2-.5 2-1.2 2.7-3 3.5-5 .6-2 .3-3.8 0-5.5l-3.1-11.5v-16.3l-5.6.2z" transform="matrix(-.63696 -1.4737 -1.29037 .5427 888.7 845)"/><path id="path452" fill="none" stroke="#110f06" stroke-width=".7" d="M101.5 274.4a13 13 0 0 0 5-.5c2-1.2 2.6-3 3.3-4.8.6-2 .3-3.7 0-5.4l-3-11V237m-5.1 0v16.4c1.3 4.2 2.4 8.5 3 13-.1 2-1 3.4-3.2 3.5" transform="matrix(-.63696 -1.4737 -1.29037 .5427 888.7 845)"/><g id="g454" fill="#eac102" fill-rule="evenodd" stroke="#110f06" transform="matrix(-.63984 .27333 .27712 .65125 765.7 1023.1)"><path id="path453" fill="#eac102" fill-rule="evenodd" stroke="none" d="M344.8-395.7h31.8c8.2-3.1 16.6-5.6 25.4-7.2 4.1.4 6.7 2.4 7 7.2h8.7c.5-3.9-.3-7.5-1-11.1-2.3-4.3-5.7-5.9-9.4-7.5-3.7-1.3-7.1-.5-10.5 0l-21.5 6.7-30.7-.1.2 12z"/><path id="path454" fill="none" stroke="#110f06" stroke-width="1.4" d="M417.7-395.6c.5-3.8-.3-7.6-1-11.2-2.3-4.3-5.7-5.9-9.4-7.5-3.7-1.3-7.1-.5-10.5 0l-21.5 6.7h-30.7m.1 11.7h32c8.2-3 16.5-5.4 25.3-7 4.1.4 6.7 2.5 6.9 7.3"/></g><path id="path455" fill="#eac102" fill-rule="evenodd" d="M101.6 198.9v5.4c-.8 0-3 .7-3 3l3 13.3v32.6a81.3 81.3 0 0 0-3.2 12.9c.2 2 1 3.4 3.2 3.5v4.4c-1.7.3-3.3-.1-5-.5-1.8-1.2-2.5-2.9-3.2-4.8-.6-1.9-.3-3.6 0-5.3l3-10.9-.1-3.3v-30.7c-1-4-2.2-8.2-2.5-12.4.6-3.9 3.8-7.6 7.8-7.2z" transform="matrix(-.63696 -1.4737 -1.29037 .5427 888.7 845)"/><path id="path456" fill="none" stroke="#110f06" stroke-width=".7" d="M101.7 274.4c-1.7.3-3.3-.2-5-.6-1.8-1-2.5-2.8-3.3-4.7-.5-1.9-.2-3.6 0-5.3l3-10.9v-34c-1-4.1-2.2-8.2-2.5-12.4.6-4 3.8-7.6 7.8-7.3m0 5.5c-.8 0-3 .6-3 3l2.8 13.3v32.7a79.8 79.8 0 0 0-3 12.7c.2 2.1 1 3.5 3.2 3.6" transform="matrix(-.63696 -1.4737 -1.29037 .5427 888.7 845)"/><path id="path457" fill="#eac102" fill-rule="evenodd" d="M101.2 263.6v5.5c1.3 0 2.9.5 3 2.8l-3 13.5V306l5.3-.2v-22.4c1-4.1 2.2-8.2 2.5-12.4 0-4-3.5-7.4-7.8-7.4z" transform="matrix(-.62376 -1.46584 -1.26363 .5398 880 845)"/><path id="path458" fill="none" stroke="#110f06" stroke-width=".7" d="M106.5 306v-22.6c1-4.1 2.2-8.2 2.5-12.4 0-4-3.6-7.4-7.9-7.4m0 5.5c1.3 0 3 .5 3 2.8l-2.8 13.5v21.2" transform="matrix(-.62376 -1.46584 -1.26363 .5398 880 845)"/><g id="g474" fill="#eac102"><g id="g462" transform="matrix(1.2151 1.1539 -.8243 .86734 392.7 319.2)"><path id="path459" fill="#eac102" fill-rule="evenodd" d="M101.4 198.8v5.5c1.3 0 2.9.6 3 2.9l-3 13.5v20.5l5.3-.2v-22.4c1-4.1 2.2-8.2 2.5-12.4 0-4-3.6-7.4-7.8-7.4z"/><g id="g461" fill="none"><path id="path460" stroke="#110f06" stroke-width=".7" d="M106.9 241.5V219c1-4.1 2.2-8.2 2.5-12.4 0-4-3.6-7.4-7.9-7.3m0 5.5c1.3 0 3 .5 3 2.8l-2.8 13.5V242"/><path id="path461" d="M106.7 241.2v-22.6c1-4.1 2.2-8.2 2.5-12.4 0-4-3.6-7.4-7.9-7.4m0 5.6c1.3-.1 3 .5 3 2.8l-2.8 13.5v21.1"/></g></g><g id="g463" transform="matrix(0 .73287 -.74448 0 -132.1 269.4)"><path id="path462" fill="#eac102" fill-rule="evenodd" d="M344.8-395.7h31.8c8.2-3.1 16.6-5.6 25.4-7.2 4.1.4 6.7 2.4 7 7.2h8.7c.5-3.9-.3-7.5-1-11.1-2.3-4.3-5.7-5.9-9.4-7.5-3.7-1.3-7.1-.5-10.5 0l-21.5 6.7-30.7-.1.2 12z"/><path id="path463" fill="none" stroke="#110f06" stroke-width="1.4" d="M417.7-395.6c.5-3.8-.3-7.6-1-11.2-2.3-4.3-5.7-5.9-9.4-7.5-3.7-1.3-7.1-.5-10.5 0l-21.5 6.7h-30.7m.1 11.7h32c8.2-3 16.5-5.4 25.3-7 4.1.4 6.7 2.5 6.9 7.3"/></g><g id="g465" transform="matrix(0 .55915 .73386 0 453.4 459.6)"><path id="path464" fill="#eac102" fill-rule="evenodd" d="M269.2-395.7H280c-.1-3 1-6.5 5.6-6.7l26.7 6.7h40.5l-.3-12h-44.3c-8.1-2.4-16.2-4.9-24.5-5.6-8 0-14.6 8-14.5 17.6z"/><path id="path465" fill="none" stroke="#110f06" stroke-width="1.6" d="M352.9-407.7h-44.7c-8.1-2.4-16.2-4.9-24.5-5.6-8 0-14.6 8.1-14.5 17.7m10.9.2c-.1-3 1-6.8 5.5-7l26.7 6.4 41.7.1"/></g><path id="path466" fill="#eac102" fill-rule="evenodd" d="M203.8 553.6h10.8c0 1.9 1.2 6.9 6 7l26.1-7h64.4c8.1 3.2 16.6 5.6 25.4 7.3 4-.4 6.8-2.5 7-7.3h8.8c.4 3.9-.4 7.5-1.2 11.1-2.2 4.4-5.7 5.9-9.3 7.5-3.8 1.3-7.2.6-10.5 0l-21.5-6.7-6.7.2h-60.5c-8 2.3-16.2 4.8-24.5 5.5-7.7-1.3-15-8.5-14.3-17.6z" transform="matrix(0 .64629 .73301 0 -243 551.5)"/><path id="path467" fill="none" stroke="#110f06" stroke-width="1.5" d="M352.4 553.1c.5 3.9-.5 8-1.3 11.6-2.2 4.4-5.7 5.9-9.3 7.5-3.8 1.3-7.2.6-10.5 0l-21.5-6.7-6.7.2h-60.5c-8 2.3-16.2 4.8-24.5 5.5-7.7-1.3-15-8.5-14.3-17.6m10.8 0c0 1.9 1.2 6.9 6 7l26.1-6.6h64.6c8.1 3.2 16.4 5.2 25.2 6.9 4-.4 6.6-2.9 6.9-7.6" transform="matrix(0 .64838 .73298 0 -242.9 550.7)"/><g id="g469" fill-rule="evenodd" stroke="#110f06" stroke-width="2" transform="matrix(-.44273 .46015 -.57264 -.53714 652.9 924.5)"><path id="path468" fill="#eac102" fill-rule="evenodd" stroke="none" d="M203.8 553.6h10.8c0 1.9 1.2 6.9 6 7l26.1-7h64.4c8.1 3.2 16.6 5.6 25.4 7.3 4-.4 6.8-2.5 7-7.3h8.8c.4 3.9-.4 7.5-1.2 11.1-2.2 4.4-5.7 5.9-9.3 7.5-3.8 1.3-7.2.6-10.5 0l-21.5-6.7-6.7.2h-60.5c-8 2.3-16.2 4.8-24.5 5.5-7.7-1.3-15-8.5-14.3-17.6z"/><path id="path469" fill="none" stroke="#110f06" stroke-width="1.4" d="M352.4 553.1c.5 3.9-.5 8-1.3 11.6-2.2 4.4-5.7 5.9-9.3 7.5-3.8 1.3-7.2.6-10.5 0l-21.5-6.7-6.7.2h-60.5c-8 2.3-16.2 4.8-24.5 5.5-7.7-1.3-15-8.5-14.3-17.6m10.8 0c0 1.9 1.2 6.9 6 7l26.1-6.6h64.6c8.1 3.2 16.4 5.2 25.2 6.9 4-.4 6.6-2.9 6.9-7.6"/></g><g id="g471" transform="matrix(1.67666 0 0 1.40042 -7.2 98)"><path id="path470" fill="#eac102" fill-rule="evenodd" d="M101.6 198.9v5.4c-.8 0-3 .7-3 3l3 13.3v32.6a81.3 81.3 0 0 0-3.2 12.9c.2 2 1 3.4 3.2 3.5v4.4c-1.7.3-3.3-.1-5-.5-1.8-1.2-2.5-2.9-3.2-4.8-.6-1.9-.3-3.6 0-5.3l3-10.9-.1-3.3v-30.7c-1-4-2.2-8.2-2.5-12.4.6-3.9 3.8-7.6 7.8-7.2z"/><path id="path471" fill="none" stroke="#110f06" stroke-width=".7" d="M101.7 274.4c-1.7.3-3.3-.2-5-.6-1.8-1-2.5-2.8-3.3-4.7-.5-1.9-.2-3.6 0-5.3l3-10.9v-34c-1-4.1-2.2-8.2-2.5-12.4.6-4 3.8-7.6 7.8-7.3m0 5.5c-.8 0-3 .6-3 3l2.8 13.3v32.7a79.8 79.8 0 0 0-3 12.7c.2 2.1 1 3.5 3.2 3.6"/></g><g id="g473" fill-rule="evenodd" stroke="#110f06" stroke-width="2" transform="matrix(.43977 .4612 .56881 -.53836 94 925)"><path id="path472" fill="#eac102" fill-rule="evenodd" stroke="none" d="M203.8 553.6h10.8c0 1.9 1.2 6.9 6 7l26.1-7h64.4c8.1 3.2 16.6 5.6 25.4 7.3 4-.4 6.8-2.5 7-7.3h8.8c.4 3.9-.4 7.5-1.2 11.1-2.2 4.4-5.7 5.9-9.3 7.5-3.8 1.3-7.2.6-10.5 0l-21.5-6.7-6.7.2h-60.5c-8 2.3-16.2 4.8-24.5 5.5-7.7-1.3-15-8.5-14.3-17.6z"/><path id="path473" fill="none" stroke="#110f06" stroke-width="1.4" d="M352.4 553.1c.5 3.9-.5 8-1.3 11.6-2.2 4.4-5.7 5.9-9.3 7.5-3.8 1.3-7.2.6-10.5 0l-21.5-6.7-6.7.2h-60.5c-8 2.3-16.2 4.8-24.5 5.5-7.7-1.3-15-8.5-14.3-17.6m10.8 0c0 1.9 1.2 6.9 6 7l26.1-6.6h64.6c8.1 3.2 16.4 5.2 25.2 6.9 4-.4 6.6-2.9 6.9-7.6"/></g></g><g id="g477" stroke="#110f06"><path id="path474" fill="none" stroke-width=".7" d="M240.4 190.2c.2-1.6-.1-3.2-.5-4.6-1-1.8-2.5-2.4-4.2-3.1-1.7-.5-3.2-.2-4.8 0l-9.7 2.7h-14m0 4.8h14.6c3.7-1.2 7.5-2.2 11.5-2.8 1.8.1 3 1 3.1 3" transform="matrix(1.3871 0 0 1.70094 21.7 37.3)"/><g id="g476" fill="#eac102" fill-rule="evenodd" transform="matrix(-.61924 0 0 .69536 648.3 637.3)"><path id="path475" fill="#eac102" fill-rule="evenodd" stroke="none" d="M344.8-395.7h31.8c8.2-3.1 16.6-5.6 25.4-7.2 4.1.4 6.7 2.4 7 7.2h8.7c.5-3.9-.3-7.5-1-11.1-2.3-4.3-5.7-5.9-9.4-7.5-3.7-1.3-7.1-.5-10.5 0l-21.5 6.7-30.7-.1.2 12z"/><path id="path476" fill="none" stroke="#110f06" stroke-width="1.5" d="M417.9-394.8c.5-3.9-.3-7.6-1.1-11.3-2.2-4.3-5.7-5.8-9.3-7.4-3.8-1.4-7.2-.6-10.5 0l-21.5 6.6h-30.8m.2 11.7 32 .1a141 141 0 0 1 25.3-7c4 .3 6.6 2.5 6.9 7.3"/></g></g></g><!-- app4joy --></svg>