<svg xmlns="http://www.w3.org/2000/svg" id="svg84" width="1276.2" height="847" version="1.1" viewBox="0 0 1276.2 847"><style id="style1" type="text/css">.st3{fill:#FCDD09;stroke:#000000}.st4{fill:none;stroke:#000000}.st5{fill:#FFFFFF;stroke:#000000}.st6{fill:#DA121A;stroke:#000000}.st7{fill:#078930;stroke:#000000}</style><g id="g86"><path id="rect1" d="M0 0h1276.2v847H0z" style="display:inline;fill:#FCDD09"/><path id="rect2" d="M0 0h425.4v847H0z" style="display:inline;fill:#0072BC"/><path id="polygon2" d="M426 94.2V0h-94.2v847H426v-94.2h850.2v-94.1H426v-94h850.2v-94.1H426v-94.2h850.2v-94.1H426v-94h850.2V94.2z" style="display:inline;fill:#DA121A"/></g><g id="g85" style="display:inline"><path id="path2" d="M194.2 772.3s-38.6 85.3-55.8 44.4c0 0 4.9 1.9 8.7-1.9 3.4-3.4 3-6.6-.9-11.3-4.2-5.1-16.3-2.8-18.7 3.2-5.5 14 7.6 32.5 19.5 31.6 31.4-2.1 34.8-35.7 55.6-64.3 1.2-1.9-8.4-1.7-8.4-1.7z" class="st3"/><path id="path3" d="M194.9 674.2s-38.6-85.3-55.8-44.4c0 0 4.9-1.9 8.7 1.9 3.4 3.4 3 6.6-.9 11.3-4.2 5.1-16.3 2.8-18.7-3.2-5.5-14 7.6-32.3 19.5-31.6 31.4 2.1 34.8 35.7 55.6 64.3 1.1 1.7-8.4 1.7-8.4 1.7z" class="st3"/><path id="path4" d="M324.4 694.2c-5.5 10.6-50.9 28-50.9 28s44.2 16.8 50.3 28l.6 16.4c-22.5-30.6-45-33.5-62.4-34.4-12.3-.6-11.2 6.6-8.9 9.5 20.2 25.7-5.9 33.1-9.8 54.4-.2 1.1-3.2-3.6-4.2-9.8-.6-4 .6-10 .6-10-9.1 14.9-20.4 3-27.4 18 0 0-1.5-2.3-2.3-3-2.1-1.9-8.5-.9-9.5-17.8 0-.6-7.4 1.3-7.4 1.3 4.2-14 39.9-29.5 30.6-38.8-10.6-10.2-11.3 21.9-27.8 24.2-.9.2 2.5-9.3 2.5-9.3-7.8.4-11.2 9.3-11.9 14.6l-1.9-4.9c-7.4-4.2 1.9-25.1-1.5-28.7-2.6-2.8-11.5 8.7-15.3 10.6-3.8 1.9-25.3 1.9-14.7 14.9.8 1.1-2.1-5.9 2.8-6.8 5.5-.9 5.3 5.5 5.3 6 0 2.6-4.9 9.3-12.7 5.5-.4-.2-14.7-10.6 4-25.3 0 0-11.5 7-23.4-5.5-2.6-2.6-6-6-10.2-8.7 4.2-2.6 7.2-5.7 9.8-8.5 12.1-12.5 23.4-5.7 23.4-5.7-18.7-14.7-4.5-25.1-4-25.3a8.6 8.6 0 0 1 12.7 5.5c0 .6.2 7-5.3 6-4.9-.9-2.1-7.8-2.8-6.8-10.6 13 11 13 14.9 14.9 3.8 1.9 12.7 13.4 15.3 10.6 3.4-3.6-5.9-24.6 1.5-28.7l1.7-4.9c.9 5.3 4.3 14.2 12.1 14.6 0 0-3.4-9.5-2.5-9.3 16.4 2.1 17.4 34.4 27.8 24 9.3-9.1-26.5-24.6-30.6-38.6 0 0 7.4 1.9 7.4 1.3.9-17 7.4-16.1 9.3-18 .8-.8 2.1-3 2.1-3 7 14.9 18.5 2.8 27.4 17.8 0 0-1.3-6-.8-10 .9-6.2 4-10.8 4.2-9.8 4.2 21.4 30.2 28.5 10 54.3-2.3 2.8-3.4 10.2 9.1 9.5 17.4-.9 39.9-4 62.2-34.6z" class="st3"/><path id="path5" d="M184.5 760.4c2.5-20.8 20-27.6 19.7-37.8-.4-10.2-18.1-20.8-20.2-38.2m25.1 106.3c-13.8-28.7 30.6-38.4 29.3-68.1-1.3-28.2-43.5-40.6-29.5-68.4m64.1 68H118.7" class="st4"/><path id="path6" d="M259 563.2c-4.9-13.4-19.1-17.2-27.2-17.4-9.1-.4-23.3 12.1-32 17.4-7.8 4.7-21.7-1.5-24-7-4.9-12.1 2.8-14.4 6.6-13.8 0 0-4.5 8.7 3 7.6 4.7-.8 6-7.8 5.3-10.6-1.5-5.7-9.6-5.1-12.9-4.2-10.4 3-8.7 17.6-5.1 23.1 5.1 8.3 18 9.5 26.1 8.3 12.5-1.9 22.5-14.6 29.9-14.2 1.9 0 4 6.8 2.1 7.2-12.5 2.3-10.8 11.2-10.8 11.2v.2s-1.7 8.7 10.8 11.2c1.9.4-.6 7.4-2.5 7.4-7.4.4-17-12.7-29.5-14.4-8.1-1.1-21 0-26.1 8.3-3.4 5.5-5.1 20 5.1 23.1 3.2.9 11.2 1.5 12.9-4.2.8-2.8-.4-10-5.3-10.6-7.6-1.1-3 7.6-3 7.6-3.8.8-11.5-1.7-6.6-13.8 2.3-5.5 16.3-11.7 24-7 8.7 5.5 22.9 17.8 32 17.4 8.1-.4 22.3-4 27.2-17.4V563z" class="st3"/><path id="path7" d="M321.6 554.3c-1.7 8.9-24.2 16.6-24.2 16.6s22.1 11.5 25.1 20.8l-.6 10.8c-7.2-24.4-34.6-26.3-34.6-26.3 5.9 8.3 11 19.7-3 31 0 0 4.2-10.6 2.1-13 0 0-1.9 6.6-9.8 12.7-3.2 2.5-12.1 2.1-16.1 4.5l3.4-10.8c-4.2 8.7-15.9 9.8-15.9 9.8-.8-3-.4-10.2 3.2-15.7 6.8-10.4 5.3-18 5.3-18-5.9 13-29.1 14.2-33.5 11-.6-.4 5.1-6 5.1-6-2.1.4-7.9-3.8-7.8-4.9.2-1.7 4-5.3 4.7-6.4 0 0-4.3-3.6-4.5-5.3-.2-1.1 5.7-5.3 7.8-4.9 0 0-5.9-5.7-5.1-6 4.3-3.2 27.6-2.1 33.5 11 0 0 1.7-7.4-5.1-18-3.6-5.5-4-12.9-3.4-15.7 0 0 11.9 1.1 15.9 9.8l-3.4-10.8c4 2.3 12.9 1.9 16.1 4.5 7.9 6 9.8 12.7 9.8 12.7 2.1-2.5-2.1-13-2.1-13 14 11.3 8.9 22.7 3 31 0 0 27.6-1.9 34.6-26.3z" class="st3"/><path id="path8" d="M191.3 573.8c-7.6.2-18 5.5-27.4 4.2-6.8-.9-18.9-9.1-18.9-9.1s12.3-6.4 18.5-7.8c10-2.3 20 6.4 27.6 6.6 1.6 0 1.7 6.1.2 6.1z" class="st3"/><path id="path9" d="M191.5 558.7c4.2-.9 3.4 12.1 3.4 12.1 0 1.7.6 11.3-3.4 12.1-4.5-.6-3.2-12.1-3.2-12.1s-.6-12.3 3.2-12.1z" class="st3"/><path id="path10" d="m219.7 570.4 78.3.6m-34.4 31 11.2-31.2m-.1 0-11-30.6" class="st3"/><path id="path11" d="M194.9 469.8s-38.6 85.3-55.8 44.4c0 0 4.9 1.9 8.7-1.9 3.4-3.4 3-6.6-.9-11.3-4.2-5.1-16.3-2.8-18.7 3.2-5.5 14 7.6 32.5 19.5 31.6 31.4-2.1 34.8-35.7 55.6-64.3 1.1-1.9-8.4-1.7-8.4-1.7z" class="st3"/><path id="path12" d="M195.5 371.7s-38.6-85.3-55.8-44.4c0 0 4.9-1.9 8.7 1.9 3.4 3.4 3 6.6-.9 11.3-4.2 5.1-16.3 2.8-18.7-3.2-5.5-14 7.6-32.3 19.5-31.6 31.4 2.1 34.8 35.7 55.6 64.3 1 1.9-8.4 1.7-8.4 1.7z" class="st3"/><path id="path13" d="M325 391.7c-5.5 10.6-50.9 28-50.9 28s44.2 16.8 50.3 28l.6 16.4c-22.5-30.6-45-33.5-62.4-34.4-12.3-.6-11.2 6.6-8.9 9.5 20.2 25.7-5.9 33.1-9.8 54.4-.2 1.1-3.2-3.6-4.2-9.8-.6-4 .6-10 .6-10-9.1 14.9-20.4 3-27.4 18 0 0-1.5-2.3-2.3-3-2.1-1.9-8.5-.9-9.5-17.8 0-.6-7.4 1.3-7.4 1.3 4.2-14 39.9-29.5 30.6-38.8-10.6-10.2-11.3 21.9-27.8 24.2-.9.2 2.5-9.3 2.5-9.3-7.8.4-11.2 9.3-11.9 14.6l-1.9-4.9c-7.4-4.2 1.9-25.1-1.5-28.7-2.6-2.8-11.5 8.7-15.3 10.6-3.8 1.9-25.3 1.9-14.7 14.9.8 1.1-2.1-5.9 2.8-6.8 5.5-.9 5.3 5.5 5.3 6 0 2.6-4.9 9.3-12.7 5.5-.4-.2-14.7-10.6 4-25.5 0 0-11.5 7-23.4-5.5-2.6-2.6-6-6-10.2-8.7 4.2-2.6 7.2-5.7 9.8-8.5 12.1-12.7 23.4-5.7 23.4-5.7-18.7-14.7-4.5-25.1-4-25.3a8.6 8.6 0 0 1 12.7 5.5c0 .6.2 7-5.3 6-4.9-.9-2.1-7.8-2.8-6.8-10.6 13 11 13 14.9 14.9 3.8 1.9 12.7 13.4 15.3 10.6 3.4-3.6-6-24.6 1.5-28.7l1.7-4.9c.9 5.3 4.3 14.2 12.1 14.6 0 0-3.4-9.5-2.5-9.3 16.4 2.1 17.4 34.4 27.8 24 9.3-9.1-26.5-24.6-30.6-38.6 0 0 7.4 1.9 7.4 1.3.9-17 7.4-16.1 9.3-18 .8-.8 2.1-3 2.1-3 7 14.9 18.5 2.8 27.4 17.8 0 0-1.3-6-.8-10 .9-6.2 4-10.8 4.2-9.8 4.2 21.4 30.2 28.5 10 54.3-2.3 2.8-3.4 10 9.1 9.5 17.4-.9 39.9-4 62.2-34.6z" class="st3"/><path id="path14" d="M185.3 457.9c2.5-20.8 20-27.6 19.7-37.8-.4-10.2-18.1-20.8-20.2-38.2m24.9 106.3c-13.8-28.7 30.6-38.4 29.3-68.1-1.3-28.2-43.5-40.6-29.5-68.4m64.1 68.2H119.3" class="st4"/><path id="path15" d="M193.6 170.5s-38.6 85.3-55.8 44.4c0 0 4.9 1.9 8.7-1.9 3.4-3.4 3-6.6-.9-11.3-4.2-5.1-16.3-2.8-18.7 3.2-5.5 14 7.6 32.5 19.5 31.6 31.4-2.1 34.8-35.7 55.6-64.3 1.1-1.9-8.4-1.7-8.4-1.7z" class="st3"/><path id="path16" d="M194.2 72.4S155.6-12.9 138.4 28c0 0 4.9-1.9 8.7 1.9 3.4 3.4 3 6.6-.9 11.3-4.2 5.1-16.3 2.8-18.7-3.2C122 24 135.1 5.5 147 6.4c31.2 2.3 34.8 35.7 55.6 64.5 1.2 1.7-8.4 1.5-8.4 1.5z" class="st3"/><path id="path17" d="M323.7 92.5c-5.5 10.6-50.9 28-50.9 28s44.2 16.8 50.3 28l.6 16.4c-22.5-30.6-45-33.5-62.4-34.4-12.5-.6-11.2 6.6-8.9 9.5 20.2 25.7-5.9 33.1-9.8 54.4-.2 1.1-3.2-3.6-4.2-9.8-.6-4 .6-10 .6-10-9.1 14.9-20.4 3-27.4 17.8 0 0-1.5-2.3-2.3-3-2.1-1.9-8.5-.9-9.5-17.8 0-.6-7.4 1.3-7.4 1.3 4.2-14 39.9-29.5 30.6-38.8-10.6-10.2-11.3 21.9-27.8 24.2-.9.2 2.5-9.3 2.5-9.3-7.8.4-11.2 9.3-11.9 14.6l-1.9-4.9c-7.4-4.2 1.7-25.1-1.5-28.7-2.6-2.8-11.5 8.7-15.3 10.6-3.8 1.9-25.3 1.9-14.7 14.9.8 1.1-2.1-5.9 2.8-6.8 5.5-.9 5.3 5.5 5.3 6 0 2.6-4.9 9.3-12.7 5.5-.4-.2-14.7-10.6 4-25.5 0 0-11.5 7-23.4-5.5-2.6-2.6-6-6-10.2-8.7 4.2-2.6 7.2-5.7 9.8-8.5 12.1-12.5 23.4-5.7 23.4-5.7-18.7-14.7-4.5-25.1-4-25.3a8.5 8.5 0 0 1 12.7 5.5c0 .6.2 7-5.3 6-4.9-.9-2.1-7.8-2.8-6.8-10.6 13 11 13 14.9 14.9 3.8 1.9 12.7 13.4 15.3 10.6 3.4-3.6-5.9-24.6 1.5-28.7l1.7-4.9c.9 5.3 4.3 14.2 12.1 14.6 0 0-3.4-9.5-2.5-9.3 16.4 2.1 17.4 34.4 27.8 24 9.3-9.1-26.5-24.6-30.6-38.6 0 0 7.4 1.9 7.4 1.3.9-17 7.4-16.1 9.3-18 .8-.8 2.1-3 2.1-3 7 14.9 18.5 2.8 27.4 17.8 0 0-1.3-6-.8-10 .9-6.2 4-10.8 4.2-9.8 4.2 21.4 30.2 28.5 10 54.3-2.3 2.8-3.4 10.2 9.1 9.5 17.4-.9 39.9-4 62.2-34.6z" class="st3"/><path id="path18" d="M184 158.6c2.5-20.8 20-27.6 19.7-37.8-.4-10.2-18.1-20.8-20.2-38.2m25 106.3c-13.8-28.7 30.6-38.4 29.3-68.1-1.3-28.2-43.5-40.6-29.5-68.4m64.1 68.2H118.2" class="st4"/><path id="path19" d="M258.3 262.6c-4.9-13.4-19.1-17.2-27.2-17.4-9.1-.4-23.3 12.1-32 17.4-7.8 4.7-21.7-1.5-24-7-4.9-12.1 2.8-14.4 6.6-13.8 0 0-4.5 8.7 3 7.6 4.7-.8 6-7.8 5.1-10.6-1.5-5.7-9.5-5.1-12.7-4.2-10.4 3-8.7 17.6-5.1 23.1 5.1 8.3 18 9.5 26.1 8.3 12.3-1.9 22.5-14.6 29.9-14.2 1.9 0 4 6.8 2.1 7.2-12.5 2.3-10.8 11.2-10.8 11.2v.2s-1.7 8.7 10.8 11c1.9.4-.6 7.4-2.5 7.4-7.4.4-17-12.7-29.5-14.4-8.1-1.1-21 0-26.1 8.3-3.4 5.5-5.1 20 5.1 23.1 3.2.9 11.2 1.5 12.9-4.2.8-2.8-.4-10-5.1-10.6-7.6-1.1-3 7.6-3 7.6-3.8.8-11.5-1.7-6.6-13.8 2.3-5.5 16.3-11.7 24-7 8.7 5.3 22.9 17.8 32 17.4 8.1-.4 22.3-4 27.2-17.4v-15.1h-.2z" class="st3"/><path id="path20" d="M321 253.7c-1.7 8.9-24.2 16.6-24.2 16.6s22.1 11.5 25.1 20.8l-.6 10.8c-7.2-24.4-34.6-26.3-34.6-26.3 5.9 8.3 11 19.7-3 31 0 0 4.2-10.6 2.1-13 0 0-1.9 6.6-9.8 12.7-3.2 2.6-12.1 2.1-16.1 4.5l3.4-10.8c-4.2 8.7-15.9 9.8-15.9 9.8a22 22 0 0 1 3.4-15.7c6.8-10.4 5.1-18 5.1-18-5.9 13-29.1 14.2-33.5 11-.6-.4 5.1-6 5.1-6-2.1.4-7.9-3.8-7.8-4.9.2-1.7 4-5.3 4.7-6.4 0 0-4.3-3.6-4.5-5.3-.2-1.1 5.7-5.3 7.8-4.9 0 0-5.9-5.7-5.1-6 4.3-3.2 27.6-2.1 33.5 11 0 0 1.7-7.4-5.3-18-3.6-5.5-4-12.9-3.2-15.7 0 0 11.9 1.1 15.9 9.8l-3.4-10.8c4 2.3 12.9 1.9 16.1 4.5 7.9 6 9.8 12.7 9.8 12.7 2.1-2.5-2.1-13-2.1-13 14 11.3 8.9 22.7 3 31 0 0 27.6-1.9 34.6-26.3z" class="st3"/><path id="path21" d="M190.8 273.4c-7.6.2-18 5.5-27.4 4.2-6.8-.9-18.9-9.1-18.9-9.1s12.3-6.4 18.5-7.8c10-2.3 20 6.4 27.6 6.6 1.3 0 1.7 5.9.2 6.1z" class="st3"/><path id="path22" d="M191 258.1c4.2-.9 3.4 11.9 3.4 11.9 0 1.9.6 11.3-3.4 12.1-4.5-.6-3.2-12.1-3.2-12.1s-.6-12.1 3.2-11.9z" class="st3"/><path id="path23" d="m219.1 270 78.3.6m-34.6 30.8 11.2-31.2m.1 0-11-30.6" class="st3"/><path id="path24" d="M323.3 661.1c-7.8-20.8-35.7-18.5-35.7-18.5s28 .2 35.2-24.2z" class="st3"/><path id="path25" d="M323.3 785.4c-7.8 20.8-35.7 18.5-35.7 18.5s28-.2 35.2 24.2z" class="st3"/><path id="path26" d="M258.8 804.5s11.5 9.3 19.3 7.4c0 0-8.9 8.5-1.5 15.3 0 0 2.3-8.9 12.9-10.4 8.9-1.3 12.5-8.7 12.5-12.3v.2c.2-3.6-3.4-10.8-12.5-12.3-10.6-1.7-12.9-10.4-12.9-10.4-7.4 6.6 1.5 15.3 1.5 15.3-7.7-1.9-19.3 7.2-19.3 7.2z" class="st3"/><path id="path27" d="M322.3 481.3c-7.8 20.8-35.7 18.5-35.7 18.5s28-.2 35.2 24.2z" class="st3"/><path id="path28" d="M323.3 360.9c-7.8-20.8-35.7-18.5-35.7-18.5s28 .2 35.2-24.2z" class="st3"/><path id="path29" d="M323.3 179.2c-7.8 20.8-35.7 18.5-35.7 18.5s28-.2 35.2 24.2z" class="st3"/><path id="path30" d="M323.3 59.7c-7.8-20.8-35.7-18.5-35.7-18.5s28 .2 35.2-24.2z" class="st3"/><path id="rect30" d="M321.4-1.5h10.4v850.4h-10.4z" class="st3"/><path id="path31" d="M259.4 641.3s11.5 9.3 19.3 7.4c0 0-8.9 8.5-1.5 15.3 0 0 2.3-8.9 12.9-10.4 8.9-1.3 12.5-8.7 12.5-12.3v.2c.2-3.6-3.4-10.8-12.5-12.3-10.6-1.7-12.9-10.4-12.9-10.4-7.4 6.6 1.5 15.3 1.5 15.3-7.8-1.9-19.3 7.2-19.3 7.2z" class="st3"/><path id="path32" d="M258.8 500.1s11.5 9.3 19.3 7.4c0 0-8.9 8.5-1.5 15.3 0 0 2.3-8.9 12.9-10.4 8.9-1.3 12.5-8.7 12.5-12.3v.2c.2-3.6-3.4-10.8-12.5-12.3-10.6-1.7-12.9-10.4-12.9-10.4-7.4 6.6 1.5 15.3 1.5 15.3-7.7-1.9-19.3 7.2-19.3 7.2z" class="st3"/><path id="path33" d="M259.4 342.6s11.5 9.3 19.3 7.4c0 0-8.9 8.5-1.5 15.3 0 0 2.3-8.9 12.9-10.4 8.9-1.3 12.5-8.7 12.5-12.3v.2c.2-3.6-3.4-10.8-12.5-12.3-10.6-1.7-12.9-10.4-12.9-10.4-7.4 6.6 1.5 15.3 1.5 15.3-7.8-1.9-19.3 7.2-19.3 7.2z" class="st3"/><path id="path34" d="M259.4 197.8s11.5 9.3 19.3 7.4c0 0-8.9 8.5-1.5 15.3 0 0 2.3-8.9 12.9-10.4 8.9-1.3 12.5-8.7 12.5-12.3v.2c.2-3.6-3.4-10.8-12.5-12.3-10.6-1.7-12.9-10.4-12.9-10.4-7.4 6.6 1.5 15.3 1.5 15.3-7.8-1.9-19.3 7.2-19.3 7.2z" class="st3"/><path id="path35" d="M260.1 40.8s11.5 9.3 19.3 7.4c0 0-8.9 8.5-1.5 15.3 0 0 2.3-8.9 12.9-10.4 8.9-1.3 12.5-8.7 12.5-12.3v.2c.2-3.6-3.4-10.8-12.5-12.3-10.6-1.7-12.9-10.4-12.9-10.4-7.4 6.6 1.5 15.3 1.5 15.3-7.7-1.8-19.3 7.2-19.3 7.2z" class="st3"/></g><g id="g84" style="display:inline"><path id="path36" d="M390.2 800.3c0 7.8-6.4 14.2-14.2 14.2-7.8 0-14.2-6.2-14.2-14.2 0-7.8 6.4-14.2 14.2-14.2 8 0 14.2 6.4 14.2 14.2z" class="st5"/><path id="path37" d="M390.2 612c0 7.8-6.4 14.2-14.2 14.2-7.8 0-14.2-6.2-14.2-14.2 0-7.8 6.4-14.2 14.2-14.2 8 .2 14.2 6.4 14.2 14.2z" class="st5"/><path id="path38" d="M390.2 423.9c0 7.8-6.4 14.2-14.2 14.2-7.8 0-14.2-6.2-14.2-14.2 0-7.8 6.4-14.2 14.2-14.2a14 14 0 0 1 14.2 14.2z" class="st5"/><path id="path39" d="M390.2 235.6c0 7.8-6.4 14.2-14.2 14.2-7.8 0-14.2-6.2-14.2-14.2 0-7.8 6.4-14.2 14.2-14.2 8 0 14.2 6.4 14.2 14.2z" class="st5"/><path id="path40" d="M390.2 47.5c0 7.8-6.4 14.2-14.2 14.2-7.8 0-14.2-6.2-14.2-14.2 0-7.8 6.4-14.2 14.2-14.2a14 14 0 0 1 14.2 14.2z" class="st5"/><path id="polygon40" d="m352.6 142.4 23.4-23.5 23.5 23.5-23.5 23.2z" class="st3"/><path id="polygon41" d="M375.9 163.9h.3l7-7v-7.4h7.4l7.2-7.1v-.2l-7.2-7.2h-7.4v-7.4l-7-7h-.3l-7.2 7v7.4h-7.4l-7 7.2v.2l7 7.1h7.4v7.4z" class="st6"/><path id="path41" d="M366.2 123.6c1.1 1.1 0 4-2.5 6.2-2.5 2.5-5.3 3.6-6.2 2.5-1.1-1.1 0-3.8 2.5-6.2 2.2-2.5 5.1-3.6 6.2-2.5z" class="st3"/><path id="path42" d="M385.9 123.6c-1.1 1.1 0 4 2.5 6.2 2.5 2.5 5.3 3.6 6.2 2.5 1.1-1.1 0-3.8-2.5-6.2-2.3-2.5-5.1-3.6-6.2-2.5z" class="st3"/><path id="path43" d="M385.9 160.9c-1.1-1.1 0-3.8 2.5-6.2 2.5-2.5 5.3-3.6 6.2-2.5 1.1 1.1 0 4-2.5 6.2-2.3 2.3-5.1 3.4-6.2 2.5z" class="st3"/><path id="path44" d="M366.2 160.9c-1.1 1.1-4 0-6.2-2.5-2.5-2.5-3.6-5.3-2.5-6.2 1.1-1.1 4 0 6.2 2.5 2.3 2.2 3.5 5.1 2.5 6.2z" class="st3"/><path id="path45" d="M368.7 115.7c0-1.1 2.6-2.3 5.9-2.6.6 0 1.5-.8 1.5-.8s.9.8 1.3.8c3.4.2 6 1.3 6 2.6 0 1.5-3.4 2.6-7.6 2.6-3.9.1-7.1-1.3-7.1-2.6z" class="st3"/><path id="path46" d="M383.6 168.8c0 1.1-2.6 2.3-5.9 2.6-.6 0-1.5.8-1.5.8s-.9-.8-1.3-.8c-3.4-.2-6-1.3-6-2.6 0-1.5 3.4-2.6 7.6-2.6 3.7 0 7.1 1.3 7.1 2.6z" class="st3"/><path id="path47" d="M349.2 149.7c-1.1 0-2.3-2.6-2.6-5.9 0-.6-.8-1.5-.8-1.5s.8-.9.8-1.3c.2-3.4 1.3-6 2.6-6 1.5 0 2.6 3.4 2.6 7.4.2 3.9-1.1 7.3-2.6 7.3z" class="st3"/><path id="path48" d="M402.9 134.8c1.1 0 2.3 2.6 2.6 5.9 0 .6.8 1.5.8 1.5s-.8.9-.8 1.3c-.2 3.4-1.3 6-2.6 6-1.5 0-2.6-3.4-2.6-7.4-.1-3.9 1.1-7.3 2.6-7.3z" class="st3"/><path id="path49" d="M371.9 362.1c0 2.3 1.9 4.2 4.2 4.2 2.3 0 4.3-1.9 4.3-4.2 0-2.3-1.9-4.2-4.3-4.2-2.3-.2-4.2 1.7-4.2 4.2z" class="st3"/><path id="path50" d="M371.9 295.7c0 2.3 1.9 4.2 4.2 4.2 2.3 0 4.3-1.9 4.3-4.2 0-2.3-1.9-4.2-4.3-4.2-2.3-.2-4.2 1.7-4.2 4.2z" class="st3"/><path id="path51" d="M391.7 329c0 15.3-7 27.8-15.9 27.8-8.7 0-15.9-12.5-15.9-27.8s7-28 15.9-28 15.9 12.5 15.9 28z" class="st3"/><path id="path52" d="M389.3 328.6c0-13.2-5.3-24-11.9-25.3-.4 0-1.3 1.7-1.3 1.7s-.9-1.7-1.3-1.7c-6.6 1.3-11.9 12.1-11.9 25.3v.4c0 13.2 5.3 24 11.9 25.3.4 0 1.3-1.7 1.3-1.7s.9 1.7 1.3 1.7c6.6-1.3 11.9-12.1 11.9-25.3v-.2z" class="st7"/><path id="path53" d="M396.8 329c0-1.1-.9-2.1-2.1-2.1-1.1 0-2.1.9-2.1 2.1 0 1.1.9 2.1 2.1 2.1 1.2-.1 2.1-1 2.1-2.1z" class="st3"/><path id="path54" d="M359.4 329c0-1.1-.9-2.1-2.1-2.1a2 2 0 0 0-2.1 2.1c0 1.1.9 2.1 2.1 2.1 1.2 0 2.1-1 2.1-2.1z" class="st3"/><path id="path55" d="M389.7 353.5c0-1.1-.9-2.1-2.1-2.1a2 2 0 0 0-2.1 2.1c0 1.1.9 2.1 2.1 2.1a2 2 0 0 0 2.1-2.1z" class="st3"/><path id="path56" d="M366.6 353.5c0-1.1-.9-2.1-2.1-2.1-1.1 0-2.1.9-2.1 2.1 0 1.1.9 2.1 2.1 2.1 1.1 0 2.1-.9 2.1-2.1z" class="st3"/><path id="path57" d="M360.9 341.8c0-2.3-1.9-4.2-4.2-4.2a4.3 4.3 0 0 0-4.3 4.2 4.2 4.2 0 0 0 8.5 0z" class="st3"/><path id="path58" d="M399.7 341.6c0-2.3-1.9-4.2-4.2-4.2a4.2 4.2 0 0 0-4.2 4.2c0 2.3 1.9 4.2 4.2 4.2 2.3 0 4.2-1.9 4.2-4.2z" class="st3"/><path id="path59" d="M362.4 304.2c0 1.1.9 2.1 2.1 2.1 1.1 0 2.1-.9 2.1-2.1a2 2 0 0 0-2.1-2.1c-1.1-.2-2.1.8-2.1 2.1z" class="st3"/><path id="path60" d="M385.5 304.2c0 1.1.9 2.1 2.1 2.1a2 2 0 0 0 2.1-2.1 2 2 0 0 0-2.1-2.1c-1.2-.2-2.1.8-2.1 2.1z" class="st3"/><path id="path61" d="M391.2 315.9c0 2.3 1.9 4.2 4.2 4.2 2.3 0 4.2-1.9 4.2-4.2 0-2.3-1.9-4.2-4.2-4.2a4.2 4.2 0 0 0-4.2 4.2z" class="st3"/><path id="path62" d="M352.4 315.9a4.2 4.2 0 0 0 8.5 0c0-2.3-1.9-4.2-4.2-4.2-2.4.1-4.3 2-4.3 4.2z" class="st3"/><path id="path63" d="M371.9 735.4c0 2.3 1.9 4.2 4.2 4.2 2.3 0 4.3-1.9 4.3-4.2 0-2.3-1.9-4.2-4.3-4.2-2.3.1-4.2 2-4.2 4.2z" class="st3"/><path id="path64" d="M371.9 669.1c0 2.3 1.9 4.2 4.2 4.2 2.3 0 4.3-1.9 4.3-4.2a4.2 4.2 0 0 0-8.5 0z" class="st3"/><path id="path65" d="M391.7 702.4c0 15.3-7 28-15.9 28-8.7 0-15.9-12.5-15.9-28 0-15.3 7-27.8 15.9-27.8s15.9 12.4 15.9 27.8z" class="st3"/><path id="path66" d="M389.3 702.2c0-13.2-5.3-24-11.9-25.3-.4 0-1.3 1.7-1.3 1.7s-.9-1.7-1.3-1.7c-6.6 1.3-11.9 12.1-11.9 25.3v.4c0 13.2 5.3 24 11.9 25.3.4 0 1.3-1.7 1.3-1.7s.9 1.7 1.3 1.7c6.6-1.3 11.9-12.1 11.9-25.3v-.2z" class="st7"/><path id="path67" d="M396.8 702.4c0-1.1-.9-2.1-2.1-2.1-1.1 0-2.1.9-2.1 2.1 0 1.1.9 2.1 2.1 2.1 1.2-.1 2.1-1 2.1-2.1z" class="st3"/><path id="path68" d="M359.4 702.4c0-1.1-.9-2.1-2.1-2.1a2 2 0 0 0-2.1 2.1c0 1.1.9 2.1 2.1 2.1 1.2 0 2.1-1 2.1-2.1z" class="st3"/><path id="path69" d="M389.7 726.9c0-1.1-.9-2.1-2.1-2.1a2 2 0 0 0-2.1 2.1 2 2 0 0 0 2.1 2.1 2 2 0 0 0 2.1-2.1z" class="st3"/><path id="path70" d="M366.6 726.9c0-1.1-.9-2.1-2.1-2.1-1.1 0-2.1.9-2.1 2.1a2 2 0 0 0 2.1 2.1c1.1 0 2.1-.9 2.1-2.1z" class="st3"/><path id="path71" d="M360.9 715.2c0-2.3-1.9-4.2-4.2-4.2a4.3 4.3 0 0 0-4.3 4.2 4.2 4.2 0 0 0 8.5 0z" class="st3"/><path id="path72" d="M399.7 715c0-2.3-1.9-4.2-4.2-4.2a4.2 4.2 0 0 0-4.2 4.2c0 2.3 1.9 4.2 4.2 4.2 2.3 0 4.2-1.7 4.2-4.2z" class="st3"/><path id="path73" d="M362.4 677.6c0 1.1.9 2.1 2.1 2.1 1.1 0 2.1-.9 2.1-2.1 0-1.1-.9-2.1-2.1-2.1-1.1 0-2.1 1-2.1 2.1z" class="st3"/><path id="path74" d="M385.5 677.6c0 1.1.9 2.1 2.1 2.1a2 2 0 0 0 2.1-2.1c0-1.1-.9-2.1-2.1-2.1-1.2 0-2.1 1-2.1 2.1z" class="st3"/><path id="path75" d="M391.2 689.3c0 2.3 1.9 4.2 4.2 4.2 2.3 0 4.2-1.9 4.2-4.2 0-2.3-1.9-4.2-4.2-4.2a4.2 4.2 0 0 0-4.2 4.2z" class="st3"/><path id="path76" d="M352.4 689.5a4.2 4.2 0 0 0 8.5 0c0-2.3-1.9-4.2-4.2-4.2a4 4 0 0 0-4.3 4.2z" class="st3"/><path id="polygon76" d="M399.5 518.2 376 541.7l-23.4-23.5 23.4-23.4z" class="st3"/><path id="polygon77" d="M375.9 540h.3l7-7v-7.4h7.4l7.2-7v-.4l-7.2-7h-7.4v-7.4l-7-7.1h-.3l-7.2 7.1v7.4h-7.4l-7 7v.4l7 7h7.4v7.4z" class="st6"/><path id="path77" d="M366.2 499.9c1.1 1.1 0 3.8-2.5 6.2-2.5 2.5-5.3 3.6-6.2 2.5-1.1-1.1 0-3.8 2.5-6.2 2.2-2.5 5.1-3.7 6.2-2.5z" class="st3"/><path id="path78" d="M385.9 499.7c1.1-1.1 4 0 6.2 2.5 2.5 2.5 3.6 5.3 2.5 6.2-1.1 1.1-4 0-6.2-2.5-2.5-2.2-3.7-5.1-2.5-6.2z" class="st3"/><path id="path79" d="M385.9 536.9c-1.1-1.1 0-3.8 2.5-6.2 2.5-2.4 5.3-3.6 6.2-2.5 1.1 1.1 0 3.8-2.5 6.2-2.5 2.4-5.1 3.7-6.2 2.5z" class="st3"/><path id="path80" d="M366.2 536.9c-1.1 1.1-4 0-6.4-2.5-2.5-2.5-3.6-5.3-2.5-6.2 1.1-1.1 4 0 6.2 2.5 2.7 2.5 3.7 5.3 2.7 6.2z" class="st3"/><path id="path81" d="M368.7 491.7c0-1.1 2.6-2.3 5.9-2.6.6 0 1.5-.8 1.5-.8s.9.8 1.3.8c3.4.2 6 1.3 6 2.6 0 1.5-3.4 2.6-7.6 2.6-3.9.1-7.1-1-7.1-2.6z" class="st3"/><path id="path82" d="M383.6 545.1c0 1.1-2.6 2.3-5.9 2.6-.6 0-1.5.8-1.5.8s-.9-.8-1.3-.8c-3.4-.2-6-1.3-6-2.6 0-1.5 3.4-2.6 7.6-2.6 3.7-.1 7.1 1 7.1 2.6z" class="st3"/><path id="path83" d="M349.2 525.8c-1.1 0-2.3-2.6-2.6-5.9 0-.6-.8-1.5-.8-1.5s.8-.9.8-1.3c.2-3.4 1.3-6 2.6-6 1.5 0 2.6 3.4 2.6 7.4.2 4.1-1.1 7.3-2.6 7.3z" class="st3"/><path id="path84" d="M402.9 511c1.1 0 2.3 2.6 2.6 5.9 0 .6.8 1.5.8 1.5s-.8.9-.8 1.3c-.2 3.4-1.3 6-2.6 6-1.5 0-2.6-3.4-2.6-7.4-.1-4.1 1.1-7.3 2.6-7.3z" class="st3"/></g><!-- app4joy --></svg>