<svg width="500" height="500" id="svg16" viewBox="0 0 500 500" xmlns:xlink="http://www.w3.org/1999/xlink" xmlns="http://www.w3.org/2000/svg"><g id="g17"><path d="M0 0h500v500H0z" fill="#ab0e09" id="path1"/></g><g fill="#ffd800" id="g16"><path d="M43 32.9h25.2L55.6 2.6Zm35.4 0h25.2L91 2.6Zm35.3 0h25.2L126.3 2.6Zm35.4 0h25.2L161.7 2.6Zm35.3 0h25.2L197 2.6Zm35.4 0H245L232.4 2.6Zm35.3 0h25.2L267.7 2.6Zm35.4 0h25.2L303.1 2.6Zm35.3 0H351L338.4 2.6Zm35.4 0h25.2L373.8 2.6Zm35.3 0h25.2L409.1 2.6Zm35.4 0h25.2L444.5 2.6Zm-399 424v-25.2L2.6 444.3Zm0-35.4v-25.2L2.6 408.9Zm0-35.4v-25.2L2.6 373.5Zm0-35.4v-25.2L2.6 338.1Zm0-35.3v-25.2L2.6 302.8Zm0-35.4v-25.2L2.6 267.4Zm0-35.3v-25.2L2.6 232.1Zm0-35.4v-25.2L2.6 196.7Zm0-35.3v-25.2L2.6 161.4Zm0-35.4v-25.2L2.6 126Zm0-35.3V78.1L2.6 90.7Zm0-35.4V42.7L2.6 55.3Zm434 389v-25.2l30.3 12.6zm0-35.4v-25.2l30.3 12.6zm0-35.4v-25.2l30.3 12.6zm0-35.4v-25.2l30.3 12.6zm0-35.3v-25.2l30.3 12.6zm0-35.4v-25.2l30.3 12.6zm0-35.3v-25.2l30.3 12.6zm0-35.4v-25.2l30.3 12.6zm0-35.3v-25.2l30.3 12.6zm0-35.4v-25.2l30.3 12.6zm0-35.3V78.1l30.3 12.6zm0-35.4V42.7l30.3 12.6zM1.9 2.3 12 27.6l20.2 5-5-20.2Zm495 0-10.1 25.3-20.2 5 5-20.2zm0 495-10.1-25.2-20.2-5 5 20.1zm-495 0L12 472.1l20.2-5-5 20.1zM241 131a30 30 0 0 0-13.8 15.9c-3.4 9.2-3 22.4-3 34.2v3.3q0 5.3-.5 9.7c-2 16.2-5.4 37.4-5.4 53.6 3 28.4-3.5 45.6 10.5 72 4.6 9.2 12.9 17 21.9 17 15 0 25.4-20.9 28.3-32.7a325 325 0 0 0 2.2-79.8c-1.2-11-2.8-21-3.5-30.4-.6-8.3-3.8-19.5-2.2-27.7.5-2.8.6-5.7 1.2-8.5l-9-2.1-1.4-.2.8-1.3s2.1-4 6-7.9l3-3s-2-4-4.5-6.9c-2-2.1-5.6-4.6-6.4-5-7.9-4-17.1-3.7-24.2-.2m11.9-.3s1.7.4 1.8 1c0 .6-1.3 1.4-1.3 1.4s-4.8 1-7 4a12 12 0 0 0-3 6.4c0 1.4 1.3 3.9 2.8 5a19 19 0 0 0 14.4 3q2.6-.6 4.3.7c.1.6-1 1.4-1.4 1.5-3 .5-6.2 1.1-9 .8-1.6-.3-3.6-.5-5.4-1.4-3.1-1.6-7.4-3.8-8-7.7-5 2-7 8.5-6.3 12.3a12 12 0 0 0 3.8 5.7c1 .7 4.8 2.3 4.8 2.3s3 .7 2.9 1.7-3.2.8-3.2.8-4.5-1.6-6-2.7c-.8-.6-3.8-3.5-4.8-7.3s.8-8.1 1.2-9a14 14 0 0 1 7.7-6.6c.4-2.6 1.8-5.1 3.1-7 3.2-4.3 8.6-4.9 8.6-4.9m10.6 8.6c1.7 0 4.5 1.3 5.2 3-.8 1.8-3.6 3-5.3 3s-4.3-1.4-5.2-3c.9-1.6 3.6-3 5.3-3M278 144c-2.9 2.8-5.8 5.3-8 9 3.1-1 7.1-1.6 10.3-1.6 1.5 0 3.7.5 5.2 1.2 2 1 2.7 1.7 2.9 1.7 0-2.9-.5-5.5-3-7.3-3-2-7-2.8-7.4-3m-5.4 10.3-.3.1 6.8 2c.9-.6 4.5-2.2 5.1-2.9-4-1-8-.3-11.6.7zm-41 12.7s2.7 2.6 5.1 3.6c1.3.6 7 2.8 12.1 3 6.3.4 13.2-1.6 13.2-1.6 2.3.4 2.9 1 .6 2.4 0 0-7 2.1-13.8 1.8a43 43 0 0 1-13.2-3.4c-3.2-1.4-5.5-4-5.5-4s-.8-1.5-.3-2 1.2 0 1.9.1zm-1.7 11.4c4.8 2 8.2 3.7 12.7 4.7a34 34 0 0 0 26.7-3.8q3-.5 1.2 2.2c-9.2 6-19.5 6.4-28.8 4.2-4.6-1.1-8-3-12.9-5q-2-2 1-2.3zm-.3 11.6c5 2 8.5 3.7 13.2 4.7a37 37 0 0 0 28-3.8q3.2-.5 1.3 2.2c-9.6 6-20.4 6.4-30 4.2-4.8-1.1-8.5-3-13.5-5-1.2-1.5-.8-2 1.1-2.3zm44.1 11.6c2 .3 2.3.7 1 2.3-5.5 2-9.3 3.7-14.5 4.8-10.4 2.2-22 2-32.4-4-1.2-1.9-1-2.5 1.4-2.2a43 43 0 0 0 30.2 3.8c5-1 8.9-2.8 14.3-4.7m1 11.4c1.9.4 2.7.7 1.1 2.3-5.8 2-9.9 3.9-15.4 5a50 50 0 0 1-34.3-4.2q-2.2-2.7 1.5-2.2a47 47 0 0 0 32 3.8c5.3-1 9.4-2.8 15.3-4.7zm-49 12.9c6 2 10.1 3.7 15.6 4.7 10.8 2 22.6 1.7 33.1-3.8 2.4-.2 3.3.2 1.5 2.2a53 53 0 0 1-35.3 4c-5.7-1.1-10.1-2.8-16.1-4.8-1.5-1.7-1-2.1 1.2-2.3m-.8 12.2c6.2 2.2 10.4 4.2 16.1 5.4a48 48 0 0 0 34-4.3c2.4-.3 3.1.2 1.5 2.5a51 51 0 0 1-36.4 4.4c-5.8-1.2-10.3-3.2-16.4-5.4-1.3-1.7-1-2.3 1.3-2.7zm.7 14c6.2 2.3 10.4 4.3 16.1 5.5 11.1 2.3 23 1.8 33.7-4.3 2.6-.3 3.4.2 1.6 2.5a50 50 0 0 1-36.2 4.4c-5.8-1.2-10.3-3.2-16.4-5.4-1.3-1.7-1-2.3 1.3-2.7zm-.1 14.7c6.1 2.2 10.4 4.2 16 5.4a51 51 0 0 0 25.6-.7q4.2-1.3 8.3-3.6c2.5-.3 3.2.2 1.6 2.5a51 51 0 0 1-36.4 4.4c-5.8-1.2-10-3.2-16.2-5.4-1.7-1.9-1.7-2.6 1.1-2.7zm-.2 13.2c6 2 10.1 3.7 15.6 4.7 10.8 2 22.6 1.7 33.1-3.8 2.4-.2 3.3.2 1.4 2.2a53 53 0 0 1-35.3 4c-5.7-1.1-10-2.8-16-4.8-1.5-1.7-1-2.1 1.2-2.3m49 12.9c2 .3 2.6.6 1.1 2.3-5.8 2-9.9 3.7-15.4 4.8a50 50 0 0 1-34.3-4q-2.1-2.7 1.4-2.2a47 47 0 0 0 32 3.7c5.4-1.1 9.5-2.7 15.3-4.6zm-.8 12.4c2 .3 2.3.7 1 2.3-5.5 2-9.3 3.7-14.5 4.8-10.4 2.2-22 2-32.4-4-1.2-1.9-1-2.5 1.4-2.2a43 43 0 0 0 30.2 3.8c5-1 8.9-2.8 14.3-4.7m-39.8 13.2c4.1 1.8 5.6 2.6 9.4 3.6 7.4 2 17.1 1.7 24.3-3.5 2-.2 2 .5 1.1 2.2a32 32 0 0 1-26.1 3.7c-4-1-5.4-2-9.5-3.8q-1.7-2 .8-2.2m.7 13.8s-3 9.9-6.3 19.9c-.7 4.7 10.2 9 11.9 6l3.4-20.1a30 30 0 0 1-9-5.8m32 0a24 24 0 0 1-8.6 5.6l3.4 20.1c1.7 1.3 10.2.2 11.2-5.7l.3-.2-6.3-19.9zm-10.9 6.4a15 15 0 0 1-9.8.2l-3.4 19.7c4.6 4.1 10.4 4.9 16.6 0zM227 355.5a181 181 0 0 1-4.7 12.6l-4 8.2c-2 4.5 11.3 10.6 14.3 6.6l3.5-21.3c-.9.8-8.3-1.9-9-6.1zm47 0c-2.1 3.3-5.5 5.9-9 5.8l3.8 21.6c3.2 3.1 16-3.2 14-6.6a126 126 0 0 1-8.8-20.8m-11.2 6.3c-.6.1-1-.5-2-1.2-3 1-6.2 3.9-9.4 4l-.2 20q7.7 4.2 15.2-1.3zm-24.4-.2-3.6 21.8c4 4.7 8.9 4.8 14 1.2l.2-20c-2.9 0-6.6-2.6-8.3-3.6-1.4.4-1.6.7-2.3.6m-21.8 17.7a514 514 0 0 0-10.5 20.9c-.4.7 1.4 10 13.6 8.5l5.8-22c-4.9 0-10-6.2-8.8-7.5zm67.6 0c.6 1.4-5.2 6.9-9.7 6.5l6 23.4c14 0 14.7-9 14.4-9.2 0 0-4.8-9.7-10.7-20.8zm-56.4 7.7-5.9 22.4c.3 3.6 11 6.8 16.2 3.2l3.3-22.5c-2-.1-5.9-1.5-8.1-4.2-2.8 1.5-5 1.3-5.5 1.1m44.6-.6c-.3.1-2.3-.2-4.2-1.3-3 2.4-6.9 3.9-9.2 4l4 24c7.1 2 11.2-.8 15.3-3.2zm-28.7 3.3-3.3 23.3c5 4.5 16.3 3.7 20.2.4l-3.9-24c-2 .2-4.4-1.6-6.4-2.4-2.4 1.4-4.6 2.8-6.5 2.7z" id="path2" style="display:inline"/><path id="A" d="M103 141c-5.6.4-6.9 4.6-8.8 8.9a30 30 0 0 0-1.3 23.7c-.2-7.6 6-8 9.1-5.9v-1.9c.3-3.7 1.8-7.1 3.4-9.9 1.6-3.4 4.6-5.8 7.1-8 3.2-3-2.7-7.5-9.5-6.9m-14.3.8c-5.6 0-11.8 4.3-11.8 7.3a55 55 0 0 0 .5 17c2.4 8.2 4.7 16.2 9.2 21.6-2.7-7.7 3-12.6 5-10.4a36 36 0 0 1 2.3-33.8 8 8 0 0 0-5.2-1.7m27.7 7a27 27 0 0 0-8.7 8c-1.6 3.5-3.4 6.3-3.4 9.6q3-3.4 5.6-4c2.9-.7 5.2.8 5 2.3 2-4.4 10.4-7.6 10.4-7.6 2.2-1.3 4.2-2.2 2.5-4.8-.3-.5-2-2-5.1-2.9-2.5-.6-4.1-.8-6.3-.6m-42.4 1c-6.8.4-10.9 4-11.7 14l.3 3.4c.8 5.1 2.2 11.3 3.8 14.3C70 188 76.4 196 82 201c2.7 2.3 4.2 3.8 7.5 5.6-7.9-5.2-6.5-14.8-3-15.3a52 52 0 0 1-11.7-24.8 61 61 0 0 1-.8-16.7m37 15.6c-2 0-4.6 1.3-6.7 4a27 27 0 0 0 6.4 14.2 22 22 0 0 0 9.5 5.4c-1.6-2.2-.9-3.1.5-3.8-2-1.3-2.8-2.6-4.3-4.8a19 19 0 0 1-2-12.7c.1-1.5-1.4-2.5-3.4-2.3m-51.4 1.8c-7.2 3-9.3 11.3-4.8 24.7a77 77 0 0 0 31.9 27.5c5.4 2.3 8.8 3.5 15.6 4.2-6.4-1.8-7.7-3.2-9.2-5.7-1.5-2.3-2.2-4.4-1.2-7-4.5-2.1-8-4.5-11.6-7.5-5.8-5.2-12-13-15.7-19.8a71 71 0 0 1-5-16.4m40.8 2.1c-2.6-.1-6.2 2.8-5.9 9q1.8 4 4 6.8a34 34 0 0 0 23.4 12c-2.1-1.2-3.1-3-1.3-5.5a27 27 0 0 1-11.3-6.5 29 29 0 0 1-6.8-14.6q-.7-1.2-2.1-1.2m-9 10.5q-1 .3-1.7 1.5a13 13 0 0 0 .8 10q3.2 3.5 5.4 5.4A63 63 0 0 0 117 204c4 .6 6.2 1.2 10 .7-4.2 0-5.6-3.9-4.1-5.5-11.2-.7-19.4-5-26-12.7a30 30 0 0 1-3.7-5.7q-.9-1.2-1.9-1zm96.7 6.6q-10.4.3-19.9 1c-5.4.2-13.2 1.1-20.8 1.7a14 14 0 0 0 8 5.5c1.9.5 4 .6 7.6 1 8.3.8 22.2 0 32.4-.7a64 64 0 0 1 17.2 2.1l7.8 2v-.3c.4-2.9 1.3-6.1 1.3-9.7-3.6-.6-10.4-1.9-13.7-2.2q-9.3-.7-20-.5zm-63.9.3c-2.7 1.8 0 4 2.1 4.3 7.1 1.6 15.2.1 19-.7l-.7-1c-5 .2-10 .3-13.5-.4q-3.7-.6-6.9-2.2m22.3 5.4c-9 2-14.5 2.5-22.4.3-2.2 1.6-.4 3.3 1.8 4.8q10.6.3 22.3-3.7zm-57.4 1.7c-2 .2-2 3.8-.8 6.7 2.3 4 6.6 8.9 10.7 10.5a64 64 0 0 0 39.1-.8c-2.7.3-5.3-.4-6.3-1.4-1.2-1.1-.5-2.6-.5-2.9q-7 1.4-14.4.2c-5.8-1-16.8-4-22-7.8-2.1-1.3-3.4-4.2-5.7-4.5zm61.2 1.1q-11.8 4.5-22.9 4.5c-2.7.6-1.7 4.6 5.3 4 9-2 16.5-5.7 19.6-7.4zM54 196.5c-6 5.5.8 27.4 21.4 35.6 13 4.8 35.4 7.8 47.4 4.6 3-1 5.3-1 8.4-2.4-4.4 1.7-8.3 1-12.9 0-5-1.4-6-4.5-5.4-7.4-3-.2-7.7-.1-11.5-.6a63 63 0 0 1-15.9-4.8 61 61 0 0 1-31.6-25zm101 .5c-1 .7-9 5.4-19.2 8-3.7 2-.6 2.9 3 3 1.7 0 2.8 0 4.2-.5a47 47 0 0 0 14.6-10zm35.5.8-6.5 12.7c1 5.7 4.7 2.4 8.3-.3l5.2-12.7zm9.1-.3-5.1 12.7c.9 4 3 4 5.1 2.5q1.4-1 2.7-2.4l3.7-12q-3.2-.7-6.4-.9zm-39.1.3q-6.8 5.9-14.6 10.7c-1.7 2.7 0 3.4 2.2 3 1.4-.2 2.7-1 4.3-1.4 3.6-3.2 9.1-9.6 11.1-12zm27.7 0-7 .3c-.3.6-3.5 6.2-8 13.4-.4 4.3 1.8 4.7 8.3-.8zm-22.1.5c-.7.9-6.9 8-11.3 12.2-1.2 4.6 4.4 2 5.9 1l10-13zm12.7 0-5.6.1c-4 5.3-6.4 8.8-10.2 13.2-1.2 3.3 2.6 4.7 7.7 0a267 267 0 0 0 8-13.4zm29.1.3c-.2.7-2.6 7-3.7 11.9-.6 3 3.3 7.3 6.9 1.3l2.7-12.1q-3-.7-5.9-1.1m7.8 1.6-2.7 12.2c1.4 5 3.3 5 4.6 4.1.6-.4.6-1 1.1-1.4l1.7-13.7zm-73.9 10.5a61 61 0 0 1-43.3 2.2l-2.9-1c-2.2 6.7 7.8 10.4 16.1 12.2 5.7 1.3 16.1-.2 21.5-2.2a62 62 0 0 0 16.2-9c-5 2.6-8.7-.7-7.5-2.3zm10.1 2.9a57 57 0 0 1-34.8 13.3c-4.5 6 12.2 6.3 21.3 4.4q5.3-2.8 9.4-6.2 4.7-3.6 10.7-10.4c-5.1 2.3-6 .5-6.7-1zm41.3 0-6.9 16.4c-1 5.8 5 8 10.2-1l4.6-14.7c-4 3.3-5.9 1.7-7.9-.8zm-2.4.3c-3.4 3-6.6 4.2-8.5.3-3.2 6-5.5 10-9.4 16.8.7 4.5 2.8 5 5.1 4 2-1 4.1-3.4 6-4.8zm12.4.4-4.5 14.2c-.9 6.7 4.1 9 8.5.8l3-13.7c-2.6 4.2-7.3 1.8-7-1.3m-23.5.4c-6.2 5.7-7.9 3.8-8.7.8-3.4 5.3-6.8 9.7-11 15l-1 1.1c-3 6.3 5.4 5.4 11.8-.5zm-18.9.4q-6.5 7.4-11.7 11.6-3.1 2.6-7 4.8c-1.7 5.2 5.9 3.9 14 .3l2.3-2.6c4-4.9 7.2-9 10.4-13.8-1.4 1.8-7.6 4.3-8-.3m51.3 1.2-3 13.3c1.4 11.4 5.1 5.9 7.6 3.2.6-5.1.7-8.7 1.3-13.7-3.1 2-4.6.3-5.9-2.7zm-5.8 18.7c-1.2 1.8-4 3.2-5.8 2.9-2.3-.5-3.3-3.1-3.2-4-2.7 8.4-5.6 16-8.5 23.6 1.4 4.7 3.8 7.2 10.8.2 2.1-7.8 5.3-16.7 6.7-22.7m-11.9.1c-1 2-3.8 3.3-6.2 3-2.2-.3-4-1.7-4-3-3.2 8.2-6.4 15.1-10.2 22.3 2.2 6.7 6 5.5 11.8.3 1.7-4.4 7-17.4 8.6-22.5zm-13.3 1c-1.6 3.3-9 6.5-10.3-1.3-3 5.2-5 8.8-7.4 12.2a169 169 0 0 1-7.5 9.4c1.2 6.3 4.5 8.2 15 1 3.8-7.1 7.8-15.6 10.2-21.3m-42.2-2.2-5.3 2.5c-3.2 1.4-5.7 1.7-8.3 2.5a86 86 0 0 1-32.7-.1c-2-.3-6.9-1.2-9.7-2.1-1.7 5.1 12.9 20.7 41.9 16.2a70 70 0 0 0 21.2-12.5c1.6-1.4 3.1-2.2 5.5-4.5-4.6 2.3-9 2.3-10.9.9-1.5-1.2-1.2-2.6-1.6-2.8zm69.7 1.9c-1.4 6-5 19.5-6.1 22.9 2.4 4 7.5 5.3 13-1.2 0-7.2.2-15 .8-21-1.4 1.1-3.5 3.4-5.1 2.8-1.1-.4-1.9-.5-2.6-3.6zm-41.3.5c-2.3 3-12 5.3-11.2-1.7q-4.6 4.6-7.7 7.2c-6.2 5-11.3 8.5-17.6 11.4-1 5.8 9.4 11.9 21 3 5.9-6.2 12.1-14 15.5-20z"/><use transform="matrix(-1 0 0 1 500 0)" xlink:href="#A" id="use2"/><g fill="#ffd800" id="g15"><path id="B" d="M215 264a35 35 0 0 0-9.5 2 325 325 0 0 0-62.8 49.7c12 12 8.8 32.8 5.7 49.8 0 0 13.7-4.3 28.3-11.1 13.2-6.2 28.2-17.8 32-20.5 4.7-3.4 10-12.1 14.7-17.2-8.4-16.5-7.8-35.1-8.3-52.6zm-7.8 8.6c2.4 19.2 1.5 37.2.6 55-1 1.7-1.6 2.2-2.7.1a95 95 0 0 0-17.3-35c3 15.6 3.5 31.5 1.5 46.4-.6 2.8-1 5.3-2.7 1.6-3-10.8-7.7-24-15.6-33.5 3.7 14 3.4 30 1.7 43.4-1.2 2-1.8 1.8-2.7-.3-3.5-11-6.2-23-16.9-30.5-1.1-2.2-1.1-3.8 1.6-2.2 9.6 6.6 13 16.5 15.7 25.9a92 92 0 0 0-3.5-41c0-2.2 1-1.8 2.7-.7a70 70 0 0 1 17 30.2c1.5-14.6 1.3-28.6-2.5-43.7.4-2.4 1-2.8 3-1.3a88 88 0 0 1 18.3 33.1l.5-16q.2-15.2-1.6-31.2c.1-3 1.3-2.6 2.8-.3zm-66.4 45c3.7 4.4 6 8.2 6.9 14.2a41 41 0 0 0-20.4 15.7c-2 2.4-6.2 8.5-6.3 11.6 1.3 7 10 10.8 13.4 13.9 3.6 4.2 2.3 8.4 1 10.8a11 11 0 0 0-9.8.6c-1.2-1.5-3.3-2-5.2-4.3a24 24 0 0 0-14.2-8.5 23 23 0 0 0-21.2 8.3c-3.1-2-6.6-2.3-9.6-.4q0-.8-.3-1.3c-.4-1.3-1.9-5.7 3.2-9.2 2.6-1.8 6.9-2.2 10.6-3.7 5.9-2.3 11.1-5.3 12-5.6.7-.2 3.5-1.4 4.8-2.8 4.1-4 9.1-12.2 15.6-19.5a310 310 0 0 1 19.5-19.7zm-57.4 64.5c-2.3 4.7-2.8 9.9-2.8 9.9l-3.8-8.8-.1-1.5c2.1-2.4 4.5-1.8 6.7.4m50.3 3.8c-.3 1.7.5 3.7-1.1 5.6-2.5 3-8.7 5.6-8.7 5.6 3-5.2 3.8-6 3.5-11 .3-.2 1.2-1.3 3-1.4 2-.2 3 1 3.3 1.2m-60.5-6a32 32 0 0 0-4.8 10.4q-.4 2.8.4 5.4 1.3 3 4.3 3.8.8-1.6 2.3-3.1 2.2-1.6 4.7-1.7a30 30 0 0 1-6.9-14.7zm7 16.8c-1.2.3-2.6.7-3.3 1.3a8 8 0 0 0-2.2 2.5c.5.7 1.6 2.2 2 2.5 2.3 1.9 8.4 3.7 8.4 3.7s-2.2-3-3.3-5.9c-.7-1.9-1.6-3.2-1.6-4.1"/><use transform="matrix(-1 0 0 1 499 .3)" xlink:href="#B" id="use3"/><use xlink:href="#D" id="use4"/><path d="M78.4 467h25.3l-12.6 30.3z" id="path4"/><path id="D" d="M43 467h25.2l-12.6 30.3z"/><use x="71" xlink:href="#D" id="use5"/><use x="106" xlink:href="#D" id="use6"/><use x="141" xlink:href="#D" id="use7"/><use x="177" xlink:href="#D" id="use8"/><use x="212" xlink:href="#D" id="use9"/><use x="247" xlink:href="#D" id="use10"/><use x="283" xlink:href="#D" id="use11"/><use x="318" xlink:href="#D" id="use12"/><use x="354" xlink:href="#D" id="use13"/><use x="389" xlink:href="#D" id="use14"/><circle cx="250" cy="104" r="20" id="circle14"/><ellipse cx="103" cy="394" rx="19.6" ry="19.7" id="ellipse14"/><ellipse cx="397" cy="394" rx="19.6" ry="19.7" id="ellipse15"/></g></g><!-- app4joy --></svg>