<svg viewBox="0 0 1500 1000" width="1500px" height="1000px" xmlns="http://www.w3.org/2000/svg"><g><path d="M0 0h1500v1000H0z"/></g><g id="logo"><path d="M661.1 579.3v15h16.3v-15zm33.7 0v15h14.6v-15zm32 0v15h14.5v-15zm32 0v15h14.4v-15zm31.9 0v15h14.5v-15zm31.9 0v15h16.3v-15zm-144.2 15.5v9.6h14.5v-9.6zm32.4 0v9.6h14.5v-9.6zm32 0v9.6h14.5v-9.6zm31.9 0v9.6h14.5v-9.6zm32.4 0v9.6h14.5v-9.6zM694.6 606v9.6H709V606zm32.2 0v9.6h14.5V606zm32 0v9.6h14.4V606zm32 0v9.6h14.6V606z" fill="#fff"/><g fill="#fff"><path d="M901.2 390.2c6 0 10.7 4.8 10.7 10.7 0 4.6-2.8 8.5-6.9 10l-5.3 16.2c23.3 12.3 41.3 33.3 41.3 59.8 0 13.3-5 24-9.6 32.2-5 7.1-11.9 13.1-16.8 21.8s-4.4 19.8-14 26c-5-2.3-11-8.3-11-17.6 0-12.1 7.4-25.2 7.4-35.2 0-8.6-6-25-15.5-33l-28.7 85.7-10.7-10.1 49-152a11 11 0 0 1-.6-3.8c0-6 4.8-10.7 10.7-10.7m-302.4 0a10.7 10.7 0 0 0-10.7 10.7c0 4.6 2.8 8.5 6.9 10l5.3 16.2C577 439.4 559 460.4 559 486.9c0 13.3 5 24 9.6 32.2 5 7.1 11.9 13.1 16.8 21.8s4.4 19.8 14 26c5-2.3 11-8.3 11-17.6 0-12.1-7.4-25.2-7.4-35.2 0-8.6 6-25 15.5-33l28.7 85.7 10.7-10.1-49-152a11 11 0 0 0 .6-3.8c0-6-4.8-10.7-10.7-10.7"/></g><path d="M690 465.4c-8.9 0-16 7-16 15.8V495h-8v14h18.6v-4.5H738v4.5h96.2v-14H826v-13.7c0-8.8-7.1-15.8-16-15.8zm4 10.7c4.6 0 8.3 3.7 8.3 8.3a8.3 8.3 0 1 1-8.3-8.3m19.4 0a8.3 8.3 0 1 1-.1 16.6 8.3 8.3 0 0 1 0-16.6m19.3 0c4.5 0 8.3 3.7 8.3 8.3a8.3 8.3 0 1 1-8.3-8.3m34.4 0c4.6 0 8.4 3.7 8.4 8.3a8.3 8.3 0 1 1-8.4-8.3m19.4 0a8.3 8.3 0 1 1 0 16.6 8.3 8.3 0 0 1 0-16.6m19.3 0c4.6 0 8.3 3.7 8.3 8.3a8.3 8.3 0 1 1-8.3-8.3" fill="#fff"/><g fill="#fff" stroke="#000" stroke-width=".762" stroke-linecap="square" stroke-linejoin="round" stroke-dashoffset="3.2" transform="translate(1476 -704.8)scale(2.10084)"><rect width="12.053" height="103.388" x="-396.448" y="520.45" rx="0" ry="0"/><rect ry="0" rx="0" y="520.45" x="-306.721" height="103.388" width="12.053"/></g><path d="M755.4 517.8a4 4 0 0 0-3.8 3.8v57.7h7.2v-41.6h2.4v41.6h5.5v-39.2l39.4 39.2h8.3l-41.8-41.6h4.7l41.8 41.6h10v-10.5h-8v-8.3H813v-8.2h-8.1V544h-8.2v-8.3h-8.1v-8.2h-8.3v-6a4 4 0 0 0-3.9-3.8zm-54.8 119.6c-2.9.3-5.1 3.5-3.1 6.2 15.6 20.7 49 36.1 70.7 30.7a37 37 0 0 0 4.2 8.6 20 20 0 0 0 17 8.4c11.4 0 19.3-12.1 15.9-24.3-.5-1.7-2-2.9-3.8-2.7-11 .8-20 .8-31.5 0-24.4-1.7-46.2-13.8-66.2-26q-1.7-1-3.2-.9m97.8 34.4c.6 7-3.5 12.2-9 12.2-6 0-8.7-2.1-11-5.3a31 31 0 0 1-3.3-6.9c8 .4 15.4.4 23.3 0" fill="#fff"/><path d="M802.2 637.4c2.9.3 5.1 3.5 3.1 6.2-15.6 20.7-49.1 36.1-70.7 30.7q-1.4 4.3-4.3 8.6a20 20 0 0 1-16.8 8.4c-11.6 0-19.4-12.1-16-24.3.5-1.7 2-2.9 3.8-2.7 11 .8 20 .8 31.5 0 24.4-1.7 46.1-13.8 66.2-26q1.6-1 3.1-.9m-97.8 34.4c-.6 7 3.5 12.2 9 12.2 6 0 8.7-2.1 11-5.3a31 31 0 0 0 3.2-6.9c-7.9.4-15.3.4-23.2 0" fill="#fff"/><path d="M655.7 335.8c-5.3 0-16.6 19.2-16.6 28.3a16.7 16.7 0 0 0 33.3 0c0-9.1-11.1-28.3-16.7-28.3Zm-13.5 47.3a2 2 0 0 0-2.1 2v9a2 2 0 0 0 2 2h27.2a2 2 0 0 0 2.1-2v-9a2 2 0 0 0-2-2zm2.1 56.5a3.3 3.3 0 0 0-3.3 3.3v2.4c0 1.8 1.5 3.2 3.3 3.2h23c1.7 0 3.2-1.5 3.2-3.2v-2.4c0-1.8-1.5-3.3-3.3-3.3zm.7 55a3 3 0 0 0-3.2 3.2v6.5c0 1.8 1.4 3.3 3.2 3.3h21.5c1.8 0 3.2-1.5 3.2-3.3v-6.5c0-1.7-1.4-3.2-3.2-3.2z" fill="#fff" stroke="#000" stroke-width="1.6008400799999998" stroke-linecap="square" stroke-linejoin="round" stroke-dashoffset="3.2"/><path d="m635.2 606.6-14.7 23h258.6l-14.7-23-29 8H665z" fill="#fff"/><path d="M642.3 590.7a69 69 0 0 0-10 24.7h46.9q-3.2-12.6-12-24.7zm202-254.9c-5.4 0-16.7 19.2-16.7 28.3s7.5 16.6 16.7 16.6 16.6-7.4 16.6-16.6c0-9.1-11.1-28.3-16.6-28.3Zm-13.6 47.3a2 2 0 0 0-2.1 2v9a2 2 0 0 0 2 2h27.2a2 2 0 0 0 2.1-2v-9a2 2 0 0 0-2-2zm2.1 56.5a3.3 3.3 0 0 0-3.3 3.3v2.4c0 1.8 1.5 3.2 3.3 3.2h23c1.7 0 3.2-1.5 3.2-3.2v-2.4c0-1.8-1.5-3.3-3.3-3.3zm.7 55a3 3 0 0 0-3.2 3.2v6.5c0 1.8 1.4 3.3 3.2 3.3H855c1.8 0 3.2-1.5 3.2-3.3v-6.5c0-1.7-1.4-3.2-3.2-3.2zm-2.7 96.1a69 69 0 0 0-10 24.7h46.9q-3.2-12.6-12-24.7zm-80.8-203a43 43 0 0 1-13.6 14.2 74 74 0 0 1-20.1 10.7c-23.3 6.3-39.2 19-39.2 33.5 0 8.6 5.6 16.6 15 23H808c9.3-6.4 14.9-14.4 14.9-23 0-14.5-16-27.2-39.2-33.5a74 74 0 0 1-20.1-10.7c-6.9-5-12-10.5-13.6-14.1z" fill="#fff" stroke="#000" stroke-width="1.6008400799999998" stroke-linecap="square" stroke-linejoin="round" stroke-dashoffset="3.2"/><path d="M681.4 496.9h137.3" fill="#fd5" stroke="#000" stroke-width="1.6008400799999998" stroke-linecap="round" stroke-linejoin="round" stroke-dashoffset="3.2"/><path d="M684.5 504.5v74.8h9.6v-39.5a17.2 17.2 0 1 1 34.3 0v39.5h9.6v-74.8zm7.3 3.3h9.7v12.7h-9.7zm14.6 0h9.7v12.7h-9.7zm14.6 0h9.8v12.7H721z" fill="#fff"/><path d="M684.5 509v-4.5H738v4.5" fill="none" stroke="#000" stroke-width="1.6008400799999998" stroke-linecap="round" stroke-linejoin="round" stroke-dashoffset="3.2"/><path d="m750 188-11.4 11.4L744 295l6-.1 6 .1 5.4-95.5zm-21.8 21.8-18.6 18.7 11.6 68.4q6-.9 11.9-1.3zm43.6 0-4.9 85.8q6 .4 12.1 1.3l11.6-68.3zM700 238.2l-15.4 15.2 13.8 47.8q5.9-1.4 11.8-2.5zm100 0-10.3 60.5q6 1.1 11.8 2.5l13.8-47.8zm-124.2 24.1-13 13 13.8 33.1q5.5-2.1 11.3-4zm148.4 0-12 42 11.3 4.1 13.7-33zm-294.8 17.1v16.2l71.3 63.6 8.5-8.5-63.6-71.3zm30.7 0 57.3 64q4.6-3.8 9.4-7.4l-40.1-56.6zm40 0 35.7 50.2q5-3.4 10.2-6.5l-24.2-43.7zm34.2 0 21.3 38.5q5.4-2.8 10.9-5.3l-13.8-33.2zm213 0-13.8 33.2q5.5 2.5 11 5.3l21.2-38.5zm31 0L854 323.1q5.3 3 10.3 6.5l35.5-50.2zm35 0L873.1 336q4.8 3.6 9.4 7.6l57.3-64zm41.1 0-63.6 71.3 8.5 8.5 71.3-63.6v-16.2zm16.2 31-64 57.1q3.9 4.5 7.5 9.5l56.5-40zm-441.2.1V337l56.5 40 7.3-9.3zm0 39.8V372l43.7 24q3-5.2 6.3-10.2zm441.2 0-50 35.5q3.3 5 6.4 10.3l43.6-24.1zm-441.2 34.2v18.2l33.2 13.8 5.2-10.8zm441.2 0-38.4 21q2.8 5.4 5.2 11l33.2-13.8zm-445.4 28.3-13 13 42.2 12.2q1.9-5.8 4-11.4zm449.6 0-33.2 13.8 4 11.4 42.2-12.2zm-471.5 22L488 450l60.6 10.3q1.1-6 2.5-11.8zm493.4 0-48 13.7 2.6 11.8 60.6-10.3zm-518.2 24.8-18.8 18.7 85.9 4.8q.4-6 1.3-12zm543 0L953.1 471q.9 6 1.3 12l86-4.8zm29 29-95.4 5.4.1 6-.1 6 95.5 5.4L1062 500zm-601.2.1L438 500l11.6 11.6 95.3-5.4-.1-6.2.1-6zm96.3 28.2-85.8 4.9 18.8 18.8 68.3-11.6q-.9-6-1.3-12m408.8.2q-.4 6-1.3 12l68.3 11.5 18.8-18.8zm-405.7 22.7L488.1 550l15.3 15.4 48-13.8zm402.6 0q-1.1 6-2.6 11.8l47.9 13.8 15.3-15.4zm-397 22.3-42 12.2 13 13 33.1-13.8q-2.1-5.6-4-11.4m391.3 0q-1.9 5.8-4 11.4l33.2 13.7 12.9-12.9zm-383 21.5-33.2 13.8v18.3l38.5-21.2q-2.8-5.3-5.3-10.9m374.8 0-5.3 10.8 38.5 21.3v-18.3zM573 604l-43.6 24.2v21.6l50.2-35.6q-3.5-5-6.6-10.2m353.9.1q-3 5.3-6.5 10.3l50.2 35.4v-21.6zm-341 19-56.5 40.1v26.5l64-57zm328.2 0q-3.6 4.8-7.5 9.4l64 57.1v-26.4zM600.7 641l-71.3 63.7v16h16.3l63.5-71.2q-4.3-4.1-8.5-8.5m298.5 0-8.4 8.4 63.5 71.3h16.3v-16zm-281.8 15.7-57.1 64h26.5l40-56.3q-4.8-3.7-9.4-7.7m265.2 0q-4.6 3.9-9.4 7.5l40 56.5h26.5zm-247 14-35.4 50h21.6L646 677q-5.3-3-10.4-6.3m228.6 0L854 677l24.2 43.7h21.6zm-208.6 11.6-21.3 38.4h18.4l13.8-33.1q-5.5-2.4-11-5.3m188.8 0q-5.4 2.9-10.9 5.3l13.8 33h18.4zm-168 9.5-13.6 33 13 13 12.1-42q-5.8-1.8-11.4-4m147 0q-5.5 2.2-11.3 4l12 42 13-13zM698.5 699l-13.8 47.8L700 762l10.3-60.5q-6-1.1-11.8-2.5m102.8 0q-5.6 1.5-11.5 2.5L800 762l15.4-15.3-13.8-47.7zm-80.3 4.4-11.6 68.1 18.8 18.8 4.9-85.6zm57.8 0q-6 .8-11.9 1.3l4.9 85.6 18.6-18.7zm-34.8 2-5.4 95.3L750 812l11.4-11.4-5.4-95.4-6 .2zm3.4-402.2h-2.7c-6.4 4.9-7.3 20.4-5.9 31q-6.8-.6-13.7-.8c-5.7 0-11.7 6.2-12 11.8-.2 7.6 6.7 17 7.8 24.3q.4 3.1.6 7.1 3.8-5 8.8-9.1c1.7-1.4 4.2-1.9 7-2.6s5.7-1.4 7.4-2q1.4-.7 5-3.7 3.5-3 7.7-6.9c5.5-5.2 11.3-11 14.5-14.2a1.6 1.6 0 0 1 2.6.4q.5 1-.4 2a534 534 0 0 1-22.3 21.2 27 27 0 0 1-5.8 4c-2.2 1-5.2 1.7-8 2.4s-5.2 1.5-5.7 2c-3.9 3-7.7 7.5-10.4 11.3.6 4.1 1.8 7.8 4.9 8.8 5 1.7 17.4-7.8 25-7.8 8.3 0 18.5 7.7 21.3 4.5 4.7-5.5-.3-23 1-33.1.4-3.4 3-5.4 4-10.5 1.8-9.3-11-12.8-15.3-12.8-2.5 0-6.4 1.2-10.4 2.2-1.8-9.1.8-17.2 6.9-22.5q-3-7-12-7m-13.6 36.2a11.5 11.5 0 0 1 0 23 11.5 11.5 0 0 1 0-23" fill="#fff"/></g><!-- app4joy --></svg>