<svg viewBox="0 0 185.208 132.292" width="185.208mm" height="132.292mm" xmlns="http://www.w3.org/2000/svg"><g><path id="rect240" style="fill:#b80000;fill-opacity:1;stroke:none;stroke-width:0.26458332" d="M0 0h185.2v132.3H0z"/></g><g id="logo" transform="translate(25.1 -147.6)"><path style="fill:#ffffff;fill-opacity:1;fill-rule:nonzero;stroke:none;stroke-width:0.26458332" d="m67.5 165 2.2 4.5 4.9.7-3.6 3.5.9 4.8-4.4-2.3-4.4 2.3.9-4.8-3.6-3.5 4.9-.7zm0 0" id="path242"/><path style="fill:#f5c72e;fill-opacity:1;fill-rule:nonzero;stroke:none;stroke-width:0.26458332" d="M43.9 239.3V238q.3-1 1.1-1v-.7q.5-.7 1.4-.7c.6 0 1.3.8 1.2 1.7q.4 0 1-.4.8-.3 1.2-.1 0-1 .9-1.2c-.4-.6 0-1.4.6-1.6-.5-.7-.2-1.6.4-1.7-.5-.8-.2-1.8.6-2-.6-.8-.3-1.9.6-2-.7-1 0-2.3.8-2.4-.5-1 .3-2.2.8-2.5l1-.7.9-1q.3-.3.2 0c-.1.2-.8 1.1-.8 2.1 0 1.5.6 2.3.8 3.1 0 .7-.8 2.8-.7 2.8l.8-1.7v1c-1.7 4.2-2.9 7-6.4 10.8q3.4-.8 6.1-3 .1 1-.4 2 2-.8 4-2.3-1.2 0-2-.6 3-.7 4.4-3c1.1 3.4-.9 4.1-1.5 5.5q-.4-.6-.1-1.4a24 24 0 0 1-6.4 3.7l.6-1.5c-2 1.1-4.5 2-6.2 2.1q1.2.6 2.3 2 .5-1.6 1.7-2.2.6 3 3.7 3.9-.7-1 .3-1.7.9 2.2 3.7 2c-.5 2-4 .8-4.9 2.6-.3-.3-.5-1.4.4-2a7 7 0 0 1-3.6-2.7q-1 1.3-1 3-1-1.6-2.5-2.7c.2 1.4-1.3 2.3-2.3 1.3-.6 1-2.8 1-2.8-.7-1.3.3-2-1.4-1-2-1.7-.4-3.8-.5-5.4 1q1.1.1 1.9 1-3.5 0-5.3 3c1.3-.6 3-.6 3.5.8-2.2-.3-4.4.8-5.6 3.3-1.6-2 .7-4.2.4-6.5.5-.1 1.3.4 1 1.7q1.1-1.6 2.8-2.5-.5-.3-1.3-.3a8 8 0 0 1 7.5-3.1c-2-1-4.7-4-4.8-6.9.7.5 2 1 3 1.3q-1.1-1.7-1.1-4.2-.6 1-1.3 1-.2-2.4 2.4-4.2c-.1 1.4.1 3 1.6 3.6-.3.4-1.4.4-1.8-.5-.1 1.9.8 4.2 2.3 5.6-1.1 0-2.7-.2-3.6-.7a7 7 0 0 0 4.9 3.8" id="path244"/><path style="fill:none;stroke:#000000;stroke-width:0.1984375;stroke-linecap:round;stroke-linejoin:round;stroke-miterlimit:10;stroke-opacity:1" d="M43.9 239.3V238q.3-1 1.1-1v-.7q.5-.7 1.4-.7c.6 0 1.3.8 1.2 1.7q.4 0 1-.4.8-.3 1.2-.1 0-1 .9-1.2c-.4-.6 0-1.4.6-1.6-.5-.7-.2-1.6.4-1.7-.5-.8-.2-1.8.6-2-.6-.8-.3-1.9.6-2-.7-1 0-2.3.8-2.4-.5-1 .3-2.2.8-2.5l1-.7.9-1q.3-.3.2 0c-.1.2-.8 1.1-.8 2.1 0 1.5.6 2.3.8 3.1 0 .7-.8 2.8-.7 2.8l.8-1.7v1c-1.7 4.2-2.9 7-6.4 10.8q3.4-.8 6.1-3 .1 1-.4 2 2-.9 4-2.3-1.2 0-2-.6 3-.7 4.4-3c1.1 3.4-.9 4.1-1.5 5.5q-.3-.6-.1-1.4a24 24 0 0 1-6.4 3.7l.6-1.5c-2 1.1-4.5 2-6.2 2.1q1.2.6 2.3 2 .5-1.6 1.7-2.2.6 3 3.7 3.9-.7-1 .3-1.7.9 2.2 3.7 2c-.5 2-4 .8-4.9 2.6-.3-.3-.5-1.4.4-2a7 7 0 0 1-3.6-2.7q-1 1.3-1 3-1-1.7-2.5-2.7c.2 1.4-1.3 2.3-2.3 1.3-.6 1-2.8 1-2.8-.7-1.3.3-2-1.4-1-2-1.7-.4-3.8-.5-5.4 1q1.1.1 1.9 1-3.5 0-5.3 3c1.3-.6 3-.6 3.5.8-2.2-.3-4.4.8-5.6 3.3-1.6-2 .7-4.2.4-6.5.5-.1 1.3.4 1 1.7q1.1-1.6 2.8-2.5-.5-.3-1.3-.3a8 8 0 0 1 7.5-3.1c-2-1-4.7-4-4.8-6.9.7.5 2 1 3 1.3q-1.1-1.7-1.1-4.2-.6 1-1.3 1-.2-2.4 2.4-4.2c-.1 1.4.1 3 1.6 3.6-.3.4-1.4.4-1.8-.5-.1 1.9.8 4.2 2.3 5.6-1.1 0-2.7-.2-3.6-.7a7 7 0 0 0 4.9 3.8m0 0" id="path246"/><path style="fill:#f5c72e;fill-opacity:1;fill-rule:nonzero;stroke:none;stroke-width:0.26458332" d="M91.1 239.3V238q-.4-1-1.1-1l-.1-.7q-.4-.7-1.3-.7-1.2.2-1.2 1.7-.4 0-1-.4-.8-.3-1.3-.1.1-1-.8-1.2c.4-.6 0-1.4-.6-1.6.4-.7.2-1.6-.4-1.7.4-.8.2-1.8-.6-2 .6-.8.2-1.9-.6-2 .7-1 0-2.3-.8-2.4.5-1-.3-2.2-.8-2.5l-1-.7-.9-1q-.3-.3-.2 0c0 .2.8 1.1.8 2.1 0 1.5-.6 2.3-.8 3.1-.1.7.8 2.8.7 2.8l-.9-1.7v1c1.8 4.2 3 7 6.5 10.8q-3.4-.8-6.2-3-.1 1 .4 2c-1.2-.5-2.8-1.4-4-2.3q1.4 0 2-.6-2.9-.7-4.3-3c-1.2 3.4.9 4.1 1.5 5.5q.3-.6 0-1.4 2.8 2.2 6.5 3.7-.5-.7-.6-1.5c2 1.1 4.5 2 6.2 2.1q-1.2.6-2.4 2-.4-1.6-1.6-2.2-.6 3-3.8 3.9.7-1-.2-1.7-1 2.2-3.7 2c.5 2 4 .8 4.8 2.6.4-.3.6-1.4-.3-2a7 7 0 0 0 3.6-2.7q.9 1.3 1 3 1-1.6 2.5-2.7c-.2 1.4 1.3 2.3 2.3 1.3.6 1 2.8 1 2.8-.7 1.3.3 2-1.4 1-2 1.6-.4 3.8-.5 5.4 1q-1.2.1-2 1 3.5 0 5.4 3c-1.3-.6-3-.6-3.5.8 2.2-.3 4.4.8 5.6 3.3 1.6-2-.7-4.2-.5-6.5-.4-.1-1.2.4-1 1.7q-1-1.6-2.8-2.5.5-.3 1.4-.3a8 8 0 0 0-7.5-3.1c2-1 4.7-4 4.8-6.9-.7.5-2 1-3 1.3q1-1.7 1.1-4.2.5 1 1.3 1 .2-2.4-2.4-4.2c0 1.4-.2 3-1.7 3.6.4.4 1.4.4 2-.5 0 1.9-1 4.2-2.4 5.6 1.1 0 2.7-.2 3.5-.7a7 7 0 0 1-4.8 3.8" id="path248"/><path style="fill:none;stroke:#000000;stroke-width:0.1984375;stroke-linecap:round;stroke-linejoin:round;stroke-miterlimit:10;stroke-opacity:1" d="M91.1 239.3V238q-.4-1-1.1-1l-.1-.7q-.4-.7-1.3-.7-1.2.2-1.2 1.7-.4 0-1-.4-.8-.3-1.3-.1.1-1-.8-1.2c.4-.6 0-1.4-.6-1.6.4-.7.2-1.6-.4-1.7.4-.8.2-1.8-.6-2 .6-.8.2-1.9-.6-2 .7-1 0-2.3-.8-2.4.5-1-.3-2.2-.8-2.5l-1-.7-.9-1q-.3-.3-.2 0c0 .2.8 1.1.8 2.1 0 1.5-.6 2.3-.8 3.1-.1.7.8 2.8.7 2.8l-.9-1.7v1c1.8 4.2 3 7 6.5 10.8q-3.4-.8-6.2-3-.1 1 .4 2-2-.9-4-2.3 1.4 0 2-.6-2.9-.7-4.3-3c-1.2 3.4.9 4.1 1.5 5.5q.3-.6 0-1.4 2.8 2.2 6.5 3.7-.4-.7-.6-1.5c2 1.1 4.5 2 6.2 2.1q-1.2.6-2.4 2-.4-1.6-1.6-2.2-.6 3-3.8 3.9.7-1-.2-1.7-1 2.2-3.7 2c.5 2 4 .8 4.8 2.6.4-.3.6-1.4-.3-2a7 7 0 0 0 3.6-2.7q.9 1.4 1 3 1-1.7 2.5-2.7c-.2 1.4 1.3 2.3 2.3 1.3.6 1 2.8 1 2.8-.7 1.3.3 2-1.4 1-2 1.6-.4 3.8-.5 5.4 1q-1.1.1-2 1 3.5 0 5.4 3c-1.3-.6-3-.6-3.5.8 2.2-.3 4.4.8 5.6 3.3 1.6-2-.7-4.2-.5-6.5-.4-.1-1.2.4-1 1.7q-1-1.6-2.8-2.5.6-.3 1.4-.3a8 8 0 0 0-7.5-3.1c2-1 4.7-4 4.8-6.9-.7.5-2 1-3 1.3q1-1.7 1.1-4.2.5 1 1.3 1 .2-2.4-2.4-4.2c0 1.4-.2 3-1.7 3.6.4.4 1.4.4 2-.5 0 1.9-1 4.2-2.4 5.6 1.1 0 2.7-.2 3.5-.7a7 7 0 0 1-4.8 3.8m0 0" id="path250"/><path style="fill:#000000;fill-opacity:1;fill-rule:nonzero;stroke:none;stroke-width:0.26458332" d="m67.5 262.4-1.3-1q-.4-.8-.2-1.3v-.6l-.4.5-.5.7c-.3-.5-1-1.2-.8-2.2q.2-.9.1-1.5c-.3 0-.2.7-.7.8a4 4 0 0 1 .1-2.1c.3-.9 1.5-1.8 2-2.8.2-.6-.5-1.3-1-1-.5.5-.4 1.8-.8 2.3s-1 .8-1 .8q-.2-.1-.4-.7v-.6c-.5.2-.3 1.1-.8 1.7-.3.4-1 .6-1 .6s-.4-.3-.3-.7l-.1-.6c-.5.2-.2.9-.6 1.4l-.8.6q-.2 0-.4-.8v-.6c-.5 0-.4.7-.7 1q-.8.7-1 .6t0-.9v-.6c-.6.2-.3.9-1 1.3l-.8.4-.2-.7v-.8q-.4.3-.6 1l-.8.5s-.4-.3-.3-.8v-.8c-.5.1-.4.6-.9.9q-.9.3-1 .2v-.7q.3-.6.2-.7-.4.1-1 .9c-.3.3-1 .2-1 .2l.2-.7q.3-.3.2-.5l-.8.5h-1l.1-.5v-.4l-.5.3-.5.1v-.8c-1 .3-1.4 1.8-.5 2.6 1.2 1.2 1.4 1.7.8 2.4-.1-1-1.4-1.4-2.2-2.4-1-1.3-.3-3.4 1.7-4.1 3.6-1.4 11.2-2.1 15-4.8 3-2 3.7-5.9 3.7-9-.3 0-.3.3-1 1.1-.5.7-1.4 1.5-2.8 1.5q-1 0-1.4.9c-.4-1.5.7-2.3 2-3 1.3-.6 3.2-1.7 3.2-3.7V228c-.4.1-1 1.7-2.3 1.9s-1.8-.5-1.8-.5c-1 0-1.6.8-1.7 1.4-.4-1.2.6-2.6 2.7-2.8s2.7-.6 3-1.3c.3-1.6-1.3-10-2-10.6 0 1 0 4.5-1.8 8-1.7 3-3.5 4-5 5V228c-.1 0-.9 1.8-1 1.7 0 0 .9-2 .8-2.8-.2-.8-.8-1.6-.8-3 0-1 .7-2 .8-2.2q.1-.3-.2 0l-1 1-1 .7H54c0-1.6 2.8-4.6 4-7.7 1.2-3.6 1.5-6.3 2.1-8.2-1 1.2-1.6 3.1-3.2 7.7s-4 7.1-6.3 8.3c3.4-3.2 4.3-5.9 5.3-8.5 1-2.7 1.3-5.7 1.8-7.3-1.8 2-1.7 5.5-3.9 9.3-3.5 6.2-7 7.2-8.2 6.5 1-1.2 3.1-5 4-8.8.8-3.7.6-5.8 1-7-1 .8-.6 1.4-2.2 6.8s-5 9.9-7 11.8c1.7-2.3 4.5-7.3 5.6-11.9.6-2.8 1-5.7 1.6-7-1.5 1.2-1.7 3.2-4 9a54 54 0 0 1-10.8 16.8c-3.1 3.1-6.8 2.8-8.2 1.5a29 29 0 0 0 9-11.6c2.6-5.6 5.2-14.6 7-17.1a9 9 0 0 1 3.8-3.4c-1.2-.3-3.6 1.6-5.3 4.2-2.4 3.5-5 9-8.5 14.4s-7.4 7.4-10 6.2q3.4-.4 6.2-3.6c4.4-4.6 8-12.3 10.4-16.4 2.2-3.8 4-5 6.3-6-.8-.4-2.9.4-6 3.8-3 3.2-8.1 11.9-12.5 14.4-4.1 2.4-6.2.5-6.8-.8 3.8-1.4 13.6-14.4 16.8-18.6 3-4 3.5-5.4 3.9-6.5-1.5 1.4-4.6 6.2-10.6 11.6-4.8 4.4-8 5.8-10.2 5.4q4.6-1 12.2-8.8c4-4 7.3-8.2 7.4-8.9-2.7 1.4-12 9.7-16.3 10.5-3 .5-3.8-.7-4.1-1.2 1.2 0 1.9-.3 4.8-2.5 3.3-2.6 10.9-12.1 12.7-13.6 1.4-1.2 1.8-1.3 2.9-1.8 0 0-1.7-.3-3.8.9a22 22 0 0 0-6.1 5c-2.5 2.7-5.4 4.6-7.6 4.9-1.6.2-2.2-.5-2.3-.8a4 4 0 0 0 2.5 0 17 17 0 0 0 6.5-4.6 30 30 0 0 1 6.6-5.3q2.5-1.2 4.5-1-1-1-5.3.2c-3 .8-7.4 4.7-11 4.6-2.2-.1-2.8-1.4-3-2 .5 0 1.3.1 2.5-1 2-1.8 4.5-4.1 6.6-5.2 1.8-1 3.7-.8 4.8-.7-1-.7-2.3-.9-4.9-.4-2.5.5-6 3-8.2 3q-2-.2-2-1.3c.3.2.8.7 2 .6 1.8-.2 4.7-2.4 8-3 2.8-.5 5.3 0 6.6.6-.8-1-2.6-1.6-7-1.6-4.4.1-5.7 0-7.3-.5s-2.5-2.1-2.1-2.7q.4.6 2.3.5c2.4-.3 5.9-2 9.1-2.7 4.3-.9 11-1.3 15.6-1.3 3.3 0 4.8 1.3 5.1 2.3 1.3 3.4-1.6 8.7-3.4 16.4-1 4.2 1.8 7.7 4.6 7 7.2-2.1 8.8-2.3 11.6-1.8a7 7 0 0 1-.9-5.3q.9-2.5.6-3.2-.5-.9-1.5-.7c-1.4.2-3.2 1.3-4.7 1-2.2-.5-2.4-2.4-2.4-2.4q1.2 1.2 3.4.8c1.1-.4 2.2-1.2 3.7-1 1 0 1.7.9 1.7.9s0-1.4-2-1.9c-1.3-.2-3.8-.3-4.4 0-.4 0-.8.8-1.2 1.2q-.5.5-.6.2c.2-1.4-.1-2 0-3 .2-1.3 2.4-3 4-3.2 1.1 0 1.5.1 2.7.7s4 1.2 4.5 1.5c.6.2 1 1.2 1 1.2s.6-1 1.2-1.2c.6-.3 3.2-.9 4.4-1.5s1.7-.8 2.7-.7c1.7.2 3.8 2 4 3.1s-.1 1.7 0 3.1q0 .2-.6-.2c-.3-.4-.8-1.1-1.1-1.2-.6-.3-3.1-.2-4.4 0-2.1.5-2 1.9-2 1.9s.7-.8 1.7-1c1.4 0 2.6.7 3.7 1q2.2.5 3.4-.7s-.3 1.9-2.4 2.4c-1.6.3-3.3-.8-4.7-1q-1-.2-1.6.7-.2.7.7 3.2a7 7 0 0 1-.9 5.3c2.8-.5 4.4-.3 11.5 1.7 2.9.8 5.7-2.7 4.7-6.9-1.8-7.7-4.7-13-3.5-16.4.4-1 2-2.3 5.2-2.3 4.5 0 11.3.4 15.6 1.3 3.2.7 6.7 2.4 9.1 2.7q2 .1 2.3-.5c.4.6-.5 2.2-2.1 2.7s-3 .6-7.3.5c-4.5 0-6.2.5-7 1.6 1.3-.6 3.8-1.1 6.6-.6 3.3.6 6.2 2.8 8 3 1.2 0 1.6-.4 2-.6.1.6-.8 1.4-2 1.3-2.3 0-5.7-2.5-8.2-3-2.6-.5-3.9-.3-4.9.4 1.1-.1 3-.3 4.8.7 2.1 1.1 4.5 3.4 6.6 5.3 1.1 1 2 1 2.5.8-.2.7-.8 2-3 2-3.6.2-8-3.7-11-4.5-3-1-4.5-.7-5.3-.2q2-.2 4.5 1c2 1 4.6 3.2 6.6 5.3a17 17 0 0 0 6.5 4.7 4 4 0 0 0 2.5-.1c-.2.3-.7 1-2.4.8-2.1-.3-5-2.2-7.5-5a22 22 0 0 0-6.2-5c-2-1.1-3.7-.8-3.7-.8 1 .5 1.4.6 3 1.8 1.7 1.5 9.3 11 12.6 13.6 3 2.2 3.6 2.5 4.8 2.5-.3.5-1.1 1.7-4.1 1.2-4.4-.8-13.6-9-16.3-10.5a47 47 0 0 0 7.4 9c5 5 9.3 8.2 12.1 8.7-2 .4-5.4-1-10.2-5.4-5.9-5.4-9-10.2-10.5-11.6.3 1.1 1 2.6 3.9 6.5 3.2 4.2 13 17.2 16.7 18.6-.5 1.3-2.6 3.2-6.7.8-4.4-2.5-9.5-11.2-12.4-14.4-3.3-3.4-5.3-4.2-6.1-3.7 2.3.9 4 2 6.3 5.9 2.5 4.1 6 11.8 10.3 16.4q3 3.2 6.2 3.6c-2.6 1.2-6.4-.8-10-6.2-3.4-5.4-6-11-8.4-14.4-1.7-2.6-4.2-4.5-5.3-4.2a9 9 0 0 1 3.8 3.4c1.8 2.5 4.3 11.5 7 17.1a29 29 0 0 0 9 11.6c-1.4 1.3-5.1 1.6-8.2-1.5-4.3-4.3-8.6-11-10.8-16.8s-2.5-7.8-4-9c.5 1.3 1 4.2 1.6 7 1 4.6 4 9.6 5.6 11.9a30 30 0 0 1-7-11.8c-1.7-5.4-1.2-6-2.2-6.8.4 1.2.2 3.3 1 7s2.9 7.6 4 8.8c-1.3.7-4.7-.3-8.3-6.5-2.1-3.8-2-7.3-3.8-9.3.5 1.6.7 4.6 1.7 7.3 1 2.6 2 5.3 5.4 8.5-2.3-1.2-4.7-3.8-6.3-8.3s-2.2-6.5-3.3-7.7c.7 1.9 1 4.6 2.3 8.2 1 3.1 3.9 6.1 3.9 7.7h-.6l-1-.7-.9-1q-.3-.3-.2 0c0 .2.8 1.1.8 2.1 0 1.5-.6 2.3-.8 3.1-.1.7.8 2.8.7 2.8l-.9-1.7v1a14 14 0 0 1-6.8-12.9c-.7.5-2.3 9-2 10.6.3.7.8 1 3 1.3 2 .2 3.1 1.6 2.6 2.8 0-.6-.6-1.4-1.6-1.4 0 0-.6.7-1.8.5s-2-1.8-2.3-1.9v7.8c0 2 1.9 3.1 3.2 3.8s2.4 1.4 2 2.9q-.4-1-1.4-1-2-.2-2.9-1.4c-.6-.8-.6-1-.9-1.1 0 3.1.6 7 3.6 9 3.8 2.7 11.5 3.4 15.1 4.8 2 .7 2.7 2.8 1.7 4-.8 1-2.1 1.4-2.3 2.5-.5-.7-.3-1.2.9-2.4.9-.8.6-2.3-.6-2.6l.1.5v.3l-.6-.1-.4-.3v1l-1-.1-.7-.5.2.5q.2.6.1.7s-.6.1-1-.2-.5-.9-1-.9l.2.7v.7l-1-.2c-.5-.3-.3-.8-.8-.9v.8l-.3.8s-.6-.2-.8-.6q-.2-.6-.6-.9v.8l-.2.7-.8-.4c-.7-.4-.5-1.1-1-1.3v1.6s-.6-.2-1-.6q-.3-.8-.6-1.1-.2.1-.1.6c0 .5-.4.8-.4.8q-.2 0-.8-.6c-.4-.5-.2-1.2-.6-1.4l-.1.6q-.1.6-.3.7s-.7-.2-1-.6c-.5-.6-.3-1.5-.8-1.7q-.2 0 0 .6c0 .3-.4.7-.4.7q-.2 0-1-.8c-.4-.5-.3-1.8-.9-2.2-.4-.4-1.2.3-.9 1 .4.9 1.6 1.8 2 2.7q.3 1 0 2.1c-.4-.1-.4-.7-.6-.8v1.5c.3 1-.5 1.7-.7 2.2q-.2 0-.6-.7l-.3-.5v.6q.1.5-.3 1.2z" id="path252"/><path style="fill:none;stroke:#000000;stroke-width:0.1984375;stroke-linecap:round;stroke-linejoin:round;stroke-miterlimit:10;stroke-opacity:1" d="m67.5 262.4-1.3-1q-.4-.8-.2-1.3v-.6l-.4.5q-.3.7-.5.7c-.3-.5-1-1.2-.8-2.2q.2-.9.1-1.5c-.3 0-.2.7-.7.8a4 4 0 0 1 .1-2.1c.3-.9 1.5-1.8 2-2.8.2-.6-.5-1.3-1-1-.5.5-.4 1.8-.8 2.3s-1 .8-1 .8q-.2-.1-.4-.7v-.6c-.5.2-.3 1.1-.8 1.7l-1 .6s-.4-.3-.3-.7l-.1-.6c-.5.2-.2.9-.6 1.4l-.8.6q-.2 0-.4-.8v-.6c-.5 0-.4.7-.7 1q-.8.7-1 .6t0-.9v-.6c-.6.2-.3.9-1 1.3l-.8.4-.2-.7v-.8q-.4.3-.6 1l-.8.5s-.4-.3-.3-.8v-.8c-.5.1-.4.6-.9.9q-.9.3-1 .2v-.7q.3-.6.2-.7-.4.2-1 .9c-.3.3-1 .2-1 .2l.2-.7q.3-.3.2-.5l-.8.5h-1l.1-.5v-.4l-.5.3-.5.1q-.2 0 0-.3v-.5c-1 .3-1.4 1.8-.5 2.6 1.2 1.2 1.4 1.7.8 2.4-.1-1-1.4-1.4-2.2-2.4-1-1.3-.3-3.4 1.7-4.1 3.6-1.4 11.2-2.1 15-4.8 3-2 3.7-5.9 3.7-9-.3 0-.3.3-1 1.1-.5.7-1.4 1.5-2.8 1.5q-1 0-1.4.9c-.4-1.5.7-2.3 2-3 1.3-.6 3.2-1.7 3.2-3.7V228c-.4.1-1 1.7-2.3 1.9s-1.8-.5-1.8-.5c-1 0-1.6.8-1.7 1.4-.4-1.2.6-2.6 2.7-2.8s2.7-.6 3-1.3c.3-1.6-1.3-10-2-10.6 0 1 0 4.5-1.8 8-1.7 3-3.5 4-5 5V228c-.1 0-.9 1.8-1 1.7 0 0 .9-2 .8-2.8-.2-.8-.8-1.6-.8-3 0-1 .7-2 .8-2.2q.1-.3-.2 0l-1 1-1 .7H54c0-1.6 2.8-4.6 4-7.7 1.2-3.6 1.5-6.3 2.1-8.2-1 1.2-1.6 3.1-3.2 7.7s-4 7.1-6.3 8.3c3.4-3.2 4.3-5.9 5.3-8.5 1-2.7 1.3-5.7 1.8-7.3-1.8 2-1.7 5.5-3.9 9.3-3.5 6.2-7 7.2-8.2 6.5 1-1.2 3.1-5 4-8.8.8-3.7.6-5.8 1-7-1 .8-.6 1.4-2.2 6.8s-5 9.9-7 11.8c1.7-2.3 4.5-7.3 5.6-11.9.6-2.8 1-5.7 1.6-7-1.5 1.2-1.7 3.2-4 9a54 54 0 0 1-10.8 16.8c-3.1 3.1-6.8 2.8-8.2 1.5a29 29 0 0 0 9-11.6c2.6-5.6 5.2-14.6 7-17.1a9 9 0 0 1 3.8-3.4c-1.2-.3-3.6 1.6-5.3 4.2-2.4 3.5-5 9-8.5 14.4s-7.4 7.4-10 6.2q3.4-.4 6.2-3.6c4.4-4.6 8-12.3 10.4-16.4 2.2-3.8 4-5 6.3-6-.8-.4-2.9.4-6 3.8-3 3.2-8.1 11.9-12.5 14.4-4.1 2.4-6.2.5-6.8-.8 3.8-1.4 13.6-14.4 16.8-18.6 3-4 3.5-5.4 3.9-6.5-1.5 1.4-4.6 6.2-10.6 11.6-4.8 4.4-8 5.8-10.2 5.4q4.6-1 12.2-8.8c4-4 7.3-8.2 7.4-8.9-2.7 1.4-12 9.7-16.3 10.5-3 .5-3.8-.7-4.1-1.2 1.2 0 1.9-.3 4.8-2.5 3.3-2.6 10.9-12.1 12.7-13.6 1.4-1.2 1.8-1.3 2.9-1.8 0 0-1.7-.3-3.8.9a22 22 0 0 0-6.1 5c-2.5 2.7-5.4 4.6-7.6 4.9-1.6.2-2.2-.5-2.3-.8a4 4 0 0 0 2.5 0 17 17 0 0 0 6.5-4.6 30 30 0 0 1 6.6-5.3q2.5-1.2 4.5-1-1-1-5.3.2c-4.3 1.2-7.4 4.7-11 4.6-2.2-.1-2.8-1.4-3-2 .5 0 1.3.1 2.5-1 2-1.8 4.5-4.1 6.6-5.2 1.8-1 3.7-.8 4.8-.7-1-.7-2.3-.9-4.9-.4-2.5.5-6 3-8.2 3q-2-.2-2-1.3c.3.2.8.7 2 .6 1.8-.2 4.7-2.4 8-3 2.8-.5 5.3 0 6.6.6-.8-1-2.6-1.6-7-1.6-4.4.1-5.7 0-7.3-.5s-2.5-2.1-2.1-2.7q.4.6 2.3.5c2.4-.3 5.9-2 9.1-2.7 4.3-.9 11-1.3 15.6-1.3 3.3 0 4.8 1.3 5.1 2.3 1.3 3.4-1.6 8.7-3.4 16.4-1 4.2 1.8 7.7 4.6 7 7.2-2.1 8.8-2.3 11.6-1.8a7 7 0 0 1-.9-5.3q.9-2.5.6-3.2-.5-.9-1.5-.7c-1.4.2-3.2 1.3-4.7 1-2.2-.5-2.4-2.4-2.4-2.4q1.2 1.2 3.4.8c1.1-.4 2.2-1.2 3.7-1 1 0 1.7.9 1.7.9s0-1.4-2-1.9c-1.3-.2-3.8-.3-4.4 0-.4 0-.8.8-1.2 1.2q-.5.5-.6.2c.2-1.4-.1-2 0-3 .2-1.3 2.4-3 4-3.2 1.1 0 1.5.1 2.7.7s4 1.2 4.5 1.5c.6.2 1 1.2 1 1.2s.6-1 1.2-1.2c.6-.3 3.2-.9 4.4-1.5s1.7-.8 2.7-.7c1.7.2 3.8 2 4 3.1s-.1 1.7 0 3.1q0 .2-.6-.2c-.3-.4-.8-1.1-1.1-1.2-.6-.3-3.1-.2-4.4 0-2.1.5-2 1.9-2 1.9s.7-.8 1.7-1c1.4 0 2.6.7 3.7 1 1.5.5 2.5 0 3.4-.7 0 0-.3 1.9-2.4 2.4-1.6.3-3.3-.8-4.7-1q-1-.2-1.6.7-.2.7.7 3.2a7 7 0 0 1-.9 5.3c2.8-.5 4.4-.3 11.5 1.7 2.9.8 5.7-2.7 4.7-6.9-1.8-7.7-4.7-13-3.5-16.4.4-1 2-2.3 5.2-2.3 4.5 0 11.3.4 15.6 1.3 3.2.7 6.7 2.4 9.1 2.7q2 .1 2.3-.5c.4.6-.5 2.2-2.1 2.7s-3 .6-7.3.5c-4.5 0-6.2.5-7 1.6 1.3-.6 3.8-1.1 6.6-.6 3.3.6 6.2 2.8 8 3 1.2 0 1.6-.4 2-.6.1.6-.8 1.4-2 1.3-2.3 0-5.7-2.5-8.2-3-2.6-.5-3.9-.3-4.9.4 1.1-.1 3-.3 4.8.7 2.1 1.1 4.5 3.4 6.6 5.3 1.1 1 2 1 2.5.8-.2.7-.8 2-3 2-3.6.2-8-3.7-11-4.5-3-1-4.5-.7-5.3-.2q2-.2 4.5 1c2 1 4.6 3.2 6.6 5.3a17 17 0 0 0 6.5 4.7 4 4 0 0 0 2.5-.1c-.2.3-.7 1-2.4.8-2.1-.3-5-2.2-7.5-5a22 22 0 0 0-6.2-5c-2-1.1-3.7-.8-3.7-.8 1 .5 1.4.6 3 1.8 1.7 1.5 9.3 11 12.6 13.6 3 2.2 3.6 2.5 4.8 2.5-.3.5-1.1 1.7-4.1 1.2-4.4-.8-13.6-9-16.3-10.5a47 47 0 0 0 7.4 9c5 5 9.3 8.2 12.1 8.7-2 .4-5.4-1-10.2-5.4-5.9-5.4-9-10.2-10.5-11.6.3 1.1 1 2.6 3.9 6.5 3.2 4.2 13 17.2 16.7 18.6-.5 1.3-2.6 3.2-6.7.8-4.4-2.5-9.5-11.2-12.4-14.4-3.3-3.4-5.3-4.2-6.1-3.7 2.3.9 4 2 6.3 5.9 2.5 4.1 6 11.8 10.3 16.4q3 3.2 6.2 3.6c-2.6 1.2-6.4-.8-10-6.2-3.4-5.4-6-11-8.4-14.4-1.7-2.6-4.2-4.5-5.3-4.2a9 9 0 0 1 3.8 3.4c1.8 2.5 4.3 11.5 7 17.1a29 29 0 0 0 9 11.6c-1.4 1.3-5.1 1.6-8.2-1.5-4.3-4.3-8.6-11-10.8-16.8s-2.5-7.8-4-9c.5 1.3 1 4.2 1.6 7 1 4.6 4 9.6 5.6 11.9a30 30 0 0 1-7-11.8c-1.7-5.4-1.2-6-2.2-6.8.4 1.2.2 3.3 1 7s2.9 7.6 4 8.8c-1.3.7-4.7-.3-8.3-6.5-2.1-3.8-2-7.3-3.8-9.3.5 1.6.7 4.6 1.7 7.3 1 2.6 2 5.3 5.4 8.5-2.3-1.2-4.7-3.8-6.3-8.3s-2.2-6.5-3.3-7.7c.7 1.9 1 4.6 2.3 8.2 1 3.1 3.9 6.1 3.9 7.7h-.6l-1-.7-.9-1q-.3-.3-.2 0c0 .2.8 1.1.8 2.1 0 1.5-.6 2.3-.8 3.1-.1.7.8 2.8.7 2.8l-.9-1.7v1a14 14 0 0 1-6.8-12.9c-.7.5-2.3 9-2 10.6.3.7.8 1 3 1.3 2 .2 3.1 1.6 2.6 2.8 0-.6-.6-1.4-1.6-1.4 0 0-.6.7-1.8.5s-2-1.8-2.3-1.9v7.8c0 2 1.9 3.1 3.2 3.8s2.4 1.4 2 2.9q-.4-1-1.4-1-2-.2-2.9-1.4c-.6-.8-.6-1-.9-1.1 0 3.1.6 7 3.6 9 3.8 2.7 11.5 3.4 15.1 4.8 2 .7 2.7 2.8 1.7 4-.8 1-2.1 1.4-2.3 2.5-.5-.7-.3-1.2.9-2.4.9-.8.6-2.3-.6-2.6l.1.5v.3l-.6-.1-.4-.3v1l-1-.1-.7-.5.2.5q.2.6.1.7-.2.1-1-.2c-.5-.4-.5-.9-1-.9l.2.7q.2.6 0 .7l-1-.2c-.5-.3-.3-.8-.8-.9v.8l-.3.8s-.6-.2-.8-.6q-.2-.6-.6-.9v.8l-.2.7-.8-.4c-.7-.4-.5-1.1-1-1.3v1.6q-.2 0-1-.6-.3-.8-.6-1.1-.2.1-.1.6c0 .5-.4.8-.4.8q-.2 0-.8-.6c-.4-.5-.2-1.2-.6-1.4l-.1.6-.3.7s-.7-.2-1-.6c-.5-.6-.3-1.5-.8-1.7q-.2 0 0 .6c0 .3-.4.7-.4.7q-.2 0-1-.8c-.4-.5-.3-1.8-.9-2.2-.4-.4-1.2.3-.9 1 .4.9 1.6 1.8 2 2.7q.3 1 0 2.1c-.4-.1-.4-.7-.6-.8v1.5c.3 1-.5 1.7-.7 2.2q-.2 0-.6-.7l-.3-.5v.6q.1.5-.3 1.2zm0 0" id="path254"/><path style="fill:#000000;fill-opacity:1;fill-rule:nonzero;stroke:none;stroke-width:0.26458332" d="M88.6 239.8h-.3l-.2-.1-.3-.3-.3-.5v-.2l.1.2.4.4.6.3z" id="path256"/><path style="fill:#f5c72e;fill-opacity:1;fill-rule:nonzero;stroke:none;stroke-width:0.26458332" d="M76.2 180c-.9.5-3.1.3-4.2 1.1s-1.6 1.7-1.6 3.2c0 2 1.6 4.7 1.9 4.7q-.8-2.3-.6-3 .7-.9 1.6-.7c1.4.2 3.1 1.3 4.7 1 2.1-.5 2.4-2.4 2.4-2.4q-1.3 1.2-3.4.8c-1.1-.4-2.3-1.2-3.7-1-1 0-1.7.9-1.7.9s-.1-1.4 2-1.9c1.3-.2 3.8-.3 4.4 0 .3 0 .8.8 1.1 1.2q.5.5.6.2c-.1-1.4.2-2 0-3q-.1-.9-1.1-1.8a3 3 0 0 1-1.4.9q.7-.7.9-1.3l-.9-.5s-.3 1.1-1 1.5" id="path258"/><path style="fill:none;stroke:#000000;stroke-width:0.1984375;stroke-linecap:round;stroke-linejoin:round;stroke-miterlimit:10;stroke-opacity:1" d="M76.2 180c-.9.5-3.1.3-4.2 1.1s-1.6 1.7-1.6 3.2c0 2 1.6 4.7 1.9 4.7q-.8-2.3-.6-3 .7-.9 1.6-.7c1.4.2 3.1 1.3 4.7 1 2.1-.5 2.4-2.4 2.4-2.4q-1.3 1.2-3.4.8c-1.1-.4-2.3-1.2-3.7-1-1 0-1.7.9-1.7.9s-.1-1.4 2-1.9c1.3-.2 3.8-.3 4.4 0 .3 0 .8.8 1.1 1.2q.5.5.6.2c-.1-1.4.2-2 0-3q-.1-.9-1.1-1.8-1.2 1-1.4.9.7-.7.9-1.3l-.9-.5s-.3 1.1-1 1.5m0 0" id="path260"/><path style="fill:#000000;fill-opacity:1;fill-rule:nonzero;stroke:none;stroke-width:0.26458332" d="m71.7 185.2.1-.2.9-.5h.5l1 .3 1.5.8.6.2h.2-.2l-.6-.2-1.6-.7-1-.2a2 2 0 0 0-1.3.6h-.1m0 0" id="path262"/><path style="fill:#ffffff;fill-opacity:1;fill-rule:nonzero;stroke:none;stroke-width:0.26458332" d="M76.6 178.7q0-.2-1-.5-1.4-.1-2.7 1-.2 0-.2.3l.4-.1.6-.3s.5.7 1.3.8q1.5 0 1.6-1.2" id="path264"/><path style="fill:#000000;fill-opacity:1;fill-rule:nonzero;stroke:none;stroke-width:0.26458332" d="M76 178.8a.5.5 0 1 1-1 0 .5.5 0 0 1 1 0" id="path266"/><path style="fill:none;stroke:#000000;stroke-width:0.1984375;stroke-linecap:round;stroke-linejoin:round;stroke-miterlimit:10;stroke-opacity:1" d="M79 225.4c.5 3.8 2.2 9.7 6.9 14.2" id="path268"/><path style="fill:#000000;fill-opacity:1;fill-rule:nonzero;stroke:none;stroke-width:0.26458332" d="M87.5 239.9h-.3l-.3-.1-.2-.3-.3-.5-.1-.2.2.2.3.4.6.3h.2z" id="path270"/><path style="fill:none;stroke:#000000;stroke-width:0.1984375;stroke-linecap:round;stroke-linejoin:round;stroke-miterlimit:10;stroke-opacity:1" d="M81.3 226c-.5.5-1.6.6-2 1.3" id="path272"/><path style="fill:none;stroke:#000000;stroke-width:0.1984375;stroke-linecap:round;stroke-linejoin:round;stroke-miterlimit:10;stroke-opacity:1" d="M82.1 228.3c-.7.7-1.7.5-2.2 1.3" id="path274"/><path style="fill:none;stroke:#000000;stroke-width:0.1984375;stroke-linecap:round;stroke-linejoin:round;stroke-miterlimit:10;stroke-opacity:1" d="M82.7 230.2c-.5.6-1.8.8-2.1 1.3" id="path276"/><path style="fill:none;stroke:#000000;stroke-width:0.1984375;stroke-linecap:round;stroke-linejoin:round;stroke-miterlimit:10;stroke-opacity:1" d="M83.3 232.3c-.4.5-1.5.6-1.8 1.3" id="path278"/><path style="fill:none;stroke:#000000;stroke-width:0.1984375;stroke-linecap:round;stroke-linejoin:round;stroke-miterlimit:10;stroke-opacity:1" d="M83.7 234c-.3.4-1 .5-1.4 1.1" id="path280"/><path style="fill:none;stroke:#000000;stroke-width:0.1984375;stroke-linecap:round;stroke-linejoin:round;stroke-miterlimit:10;stroke-opacity:1" d="M84.3 235.6q-.6.3-1.1.8" id="path282"/><path style="fill:none;stroke:#000000;stroke-width:0.1984375;stroke-linecap:round;stroke-linejoin:round;stroke-miterlimit:10;stroke-opacity:1" d="M85.1 236.8q-.4.3-.6.8" id="path284"/><path style="fill:none;stroke:#000000;stroke-width:0.1984375;stroke-linecap:round;stroke-linejoin:round;stroke-miterlimit:10;stroke-opacity:1" d="M90 237a1 1 0 0 0-1.1.5q-.2.4-.2 1 .8.3.5 1.2.7-.1 1.2.4.8.8.6 1.5c.4 0 1-1 .1-2.3" id="path286"/><path style="fill:none;stroke:#000000;stroke-width:0.1984375;stroke-linecap:round;stroke-linejoin:round;stroke-miterlimit:10;stroke-opacity:1" d="M87.7 242s-.7.5-1 1.2q-.1 1.3.6 1.2.8 0 .6-1.2zm0 0" id="path288"/><path style="fill:none;stroke:#000000;stroke-width:0.1984375;stroke-linecap:round;stroke-linejoin:round;stroke-miterlimit:10;stroke-opacity:1" d="M88.8 241.8s-.3.8-.1 1.8 1 1.4 1.5 1q.6-.6-.5-1.4c-.7-.5-.9-1.4-.9-1.4m0 0" id="path290"/><path style="fill:none;stroke:#000000;stroke-width:0.1984375;stroke-linecap:round;stroke-linejoin:round;stroke-miterlimit:10;stroke-opacity:1" d="M89.6 241.2s0 1 .8 1.8q1 .7 1.3.1t-.8-1c-1.1-.2-1.3-1-1.3-1m0 0" id="path292"/><path style="fill:#000000;fill-opacity:1;fill-rule:nonzero;stroke:none;stroke-width:0.26458332" d="M46.3 239.6h.3l.4-.3.4-.4v-.2h.1v.2l-.3.5-.3.3-.5.1z" id="path294"/><path style="fill:#f5c72e;fill-opacity:1;fill-rule:nonzero;stroke:none;stroke-width:0.26458332" d="M58.7 180c1 .5 3.2.3 4.3 1.1s1.5 1.7 1.5 3.2c0 2-1.5 4.7-1.8 4.7q.9-2.3.5-3-.5-.9-1.5-.7c-1.4.2-3.2 1.3-4.7 1-2.2-.5-2.4-2.4-2.4-2.4q1.2 1.2 3.4.8c1.1-.4 2.2-1.2 3.7-1 1 0 1.7.9 1.7.9s0-1.4-2-1.9c-1.3-.2-3.8-.3-4.4 0-.4 0-.8.8-1.2 1.2q-.5.5-.6.2c.2-1.4-.1-2 0-3q.2-.9 1.2-1.8a3 3 0 0 0 1.4.9q-.7-.7-.9-1.3l.9-.5s.3 1.1 1 1.5" id="path296"/><path style="fill:none;stroke:#000000;stroke-width:0.1984375;stroke-linecap:round;stroke-linejoin:round;stroke-miterlimit:10;stroke-opacity:1" d="M58.7 180c1 .5 3.2.3 4.3 1.1s1.5 1.7 1.5 3.2c0 2-1.5 4.7-1.8 4.7q.8-2.3.5-3-.5-.9-1.5-.7c-1.4.2-3.2 1.3-4.7 1-2.2-.5-2.4-2.4-2.4-2.4q1.2 1.2 3.4.8c1.1-.4 2.2-1.2 3.7-1 1 0 1.7.9 1.7.9s0-1.4-2-1.9c-1.3-.2-3.8-.3-4.4 0-.4 0-.8.8-1.2 1.2q-.5.5-.6.2c.2-1.4-.1-2 0-3q.2-.9 1.2-1.8a3 3 0 0 0 1.4.9q-.7-.7-.9-1.3l.9-.5s.3 1.1 1 1.5m0 0" id="path298"/><path style="fill:#000000;fill-opacity:1;fill-rule:nonzero;stroke:none;stroke-width:0.26458332" d="m63.2 185.3-.1-.2-.9-.4h-.4l-.9.2-1.6.7-.6.2h-.2.2l.5-.2 1.7-.8 1-.3a2 2 0 0 1 1.3.5l.1.2v.1z" id="path300"/><path style="fill:#ffffff;fill-opacity:1;fill-rule:nonzero;stroke:none;stroke-width:0.26458332" d="M58.4 178.7q0-.2 1-.5 1.4-.1 2.6 1 .3 0 .3.3l-.4-.1-.6-.3s-.5.7-1.3.8q-1.5 0-1.6-1.2" id="path302"/><path style="fill:#000000;fill-opacity:1;fill-rule:nonzero;stroke:none;stroke-width:0.26458332" d="M59 178.8a.5.5 0 1 0 1 0 .5.5 0 0 0-1 0" id="path304"/><path style="fill:none;stroke:#000000;stroke-width:0.1984375;stroke-linecap:round;stroke-linejoin:round;stroke-miterlimit:10;stroke-opacity:1" d="M56 225.4c-.6 3.8-2.2 9.7-6.9 14.2" id="path306"/><path style="fill:#000000;fill-opacity:1;fill-rule:nonzero;stroke:none;stroke-width:0.26458332" d="M47.5 239.7h.2l.5-.3.3-.4.1-.3v.3q0 .3-.3.5l-.2.3h-.7z" id="path308"/><path style="fill:none;stroke:#000000;stroke-width:0.1984375;stroke-linecap:round;stroke-linejoin:miter;stroke-miterlimit:10;stroke-opacity:1" d="M53.7 226c.5.5 1.5.6 2 1.3" id="path310"/><path style="fill:none;stroke:#000000;stroke-width:0.1984375;stroke-linecap:round;stroke-linejoin:miter;stroke-miterlimit:10;stroke-opacity:1" d="M52.9 228.3c.7.7 1.7.5 2.1 1.3" id="path312"/><path style="fill:none;stroke:#000000;stroke-width:0.1984375;stroke-linecap:round;stroke-linejoin:miter;stroke-miterlimit:10;stroke-opacity:1" d="M52.3 230.2c.5.6 1.8.8 2 1.3" id="path314"/><path style="fill:none;stroke:#000000;stroke-width:0.1984375;stroke-linecap:round;stroke-linejoin:miter;stroke-miterlimit:10;stroke-opacity:1" d="M51.7 232.3c.4.5 1.5.6 1.8 1.3" id="path316"/><path style="fill:none;stroke:#000000;stroke-width:0.1984375;stroke-linecap:round;stroke-linejoin:miter;stroke-miterlimit:10;stroke-opacity:1" d="M51.3 234c.3.4 1 .5 1.3 1.1" id="path318"/><path style="fill:none;stroke:#000000;stroke-width:0.1984375;stroke-linecap:round;stroke-linejoin:miter;stroke-miterlimit:10;stroke-opacity:1" d="M50.7 235.6c.3.2.9.5 1 .8" id="path320"/><path style="fill:none;stroke:#000000;stroke-width:0.1984375;stroke-linecap:round;stroke-linejoin:miter;stroke-miterlimit:10;stroke-opacity:1" d="m49.8 236.8.7.8" id="path322"/><path style="fill:none;stroke:#000000;stroke-width:0.1984375;stroke-linecap:round;stroke-linejoin:round;stroke-miterlimit:10;stroke-opacity:1" d="M45 237q.6-.1 1 .5.4.4.3 1-.8.3-.5 1.2-.7-.1-1.2.4-.8.8-.6 1.5c-.5 0-1-1-.1-2.3" id="path324"/><path style="fill:none;stroke:#000000;stroke-width:0.1984375;stroke-linecap:round;stroke-linejoin:round;stroke-miterlimit:10;stroke-opacity:1" d="M47.3 242s.7.5 1 1.2q.1 1.3-.6 1.2-.9 0-.6-1.2zm0 0" id="path326"/><path style="fill:none;stroke:#000000;stroke-width:0.1984375;stroke-linecap:round;stroke-linejoin:round;stroke-miterlimit:10;stroke-opacity:1" d="M46.1 241.8s.4.8.2 1.8-1 1.4-1.5 1q-.6-.6.5-1.4c.7-.5.8-1.4.8-1.4m0 0" id="path328"/><path style="fill:none;stroke:#000000;stroke-width:0.1984375;stroke-linecap:round;stroke-linejoin:round;stroke-miterlimit:10;stroke-opacity:1" d="M45.4 241.2s0 1-.8 1.8q-1 .7-1.4.1t.9-1c1.1-.2 1.3-1 1.3-1m0 0" id="path330"/></g><!-- app4joy --></svg>