<svg id="svg103" width="1149" height="689" viewBox="0 0 1149 689" xmlns="http://www.w3.org/2000/svg"><g id="g104"><path id="path1" d="M0 0h1149v689H0z" fill="#ce142c"/></g><g id="g103"><path id="path2" d="M372.8 47c5.4.7 10.8.9 16.1 1.9 7.1 1.4 13 6.5 16.4 12.9 2 3.7 2.9 7.9 4.2 11.9a100 100 0 0 1 34.5-17c12.7-3.6 26-4.3 39-4.7 74.5-1.6 148.7 7 223 11.2 18.6 1.4 37.3.4 56-.2 52.4-2 104.6-7.7 157-10 22.7-.5 45.7-1 68.1 3.4q14.6 2.8 27.7 10l-1.5 4.7a266 266 0 0 0-56 .7c-16.8 1.8-33.4 5-50 7.6a37 37 0 0 1 24.4 23.5 97 97 0 0 1 55.1-5.2q9.5 1.8 18.8 4l-.3 5.2c-17.1 0-33.9 4.3-50.3 9-21.7 6.4-43.5 13.4-66 16.1-11.6 1.8-23.3.7-35 1-7.5.4-15-1.5-22.4-1.8 13 3.9 25.9 8.2 39.4 10a140 140 0 0 0 54.1-2c8.8-1.8 17.2-5 25.9-7.2 12.5-4.3 25.8-9.9 39.2-6.2 7.5 1.4 12.1 8.1 19 10.8 6 2 11.5-1.8 14.9-6.5a37 37 0 0 1 17.6-14.4c10-3.6 20.9-2.6 31.3-1.2q-5.7 9.7-13 18.3c9.4.7 19-.9 28.3 2a50 50 0 0 1 25.5 14.8c-10.5 1.2-23.2.9-30.3 10.2 9.4.3 19.5 1.3 27.2 7.1 3.3 2.3 3.5 6.4 1.8 9.7q5.1 5 7.2 11.9h19.4c-.9 3.8-2.5 7.5-5.5 10.1-3.8 3.8-9.4 4.8-14.6 5.3-3.6.2-6 3.1-9 4.7 1.2 3.7 2.5 7.4 2.2 11.4-.1 2-.7 4-.5 6.2 4.1 3.5 9.6 4.6 14.8 5.8v5c-7 1.8-14.2 4.4-21.5 3.3-3.7-.4-6.7-2.5-9.6-4.7a19 19 0 0 1-12.7-7.4c-4.2 6.3-9.1 13.1-16.8 15.3-4.2 1.4-8.5-.3-12.4-2-4.7 5.7-8 12.3-11.5 18.7-2.5-5.5-5.1-11-5.7-17a20 20 0 0 1 4.6-14.8 39 39 0 0 1-22.3-3 57 57 0 0 0-16 20.8c-3.1-7.8-6.6-16.6-3.7-25 1.6-5 8-6.6 8.4-12.1 1-4.5 5-7.3 8.9-9.3 9.7-4.5 20.6-5.8 31.2-7.2-3.5-4.2-6.3-9-10.8-12.3-12.6-9.8-29.2-11.2-44.5-12.2-39.6-1.3-78.8 5.7-118.2 8.2a278 278 0 0 1-73.7-2.5A106 106 0 0 1 755 154c-2-1.5-3.8-3.4-6-4.7a26 26 0 0 0-9 6.6c-3 3.2-2.2 9 1.6 11 7.6 5 17.4 4.3 24.8 9.6 7 5.1 6 16.4.5 22.3-6.8 6.1-16.9 5.2-24.5 9.6-7.2 4.8-8.6 14.3-15 20-5.4 5.7-13.6 7.3-21.1 8.2 2.5-6.6 4.9-13.9 2.6-21-2 8.7-5.3 17.8-12.6 23.4-8.5 6.2-19.4 6.5-29.4 6.3 4.6-9 10.6-18 11.2-28.4-5.2 6.2-10.3 12.4-16.6 17.5a52 52 0 0 1-32.2 12.5c3.3-7.7 6.7-15.4 7.6-23.8a29 29 0 0 1-8.9 7c-3.5 1.6-5.4 5.4-8.9 7-2.3 1.2-5 1.6-7.2 2.8-2.4 2.1-4.3 4.6-6.7 6.6l79.8 5.9c21.3 1.2 43 3.7 64-.6 22.7-4 43.4-14.7 63.7-25.2 12.7-6.5 25.4-13.6 39.5-16.5 8.9-2 18.1-1.4 26.9.8-5.2 2.5-10.6 4.5-15.5 7.5-10.3 6.2-19 14.5-28.3 21.9q-5.8 3.6-11 8 16.3-2.8 32.1-7.8c22.9-5.6 45.7-11.7 69-15 22.6-2.8 47.1-3.7 67.4 8l-.9 5c-18.8-1.6-38-.7-56.1 5-14.2 3.2-27.7 8.4-41.4 13.1 15.1 4.1 30.5 14 34.6 30.2a116 116 0 0 1 76.7-5.8l-.3 4.8q-21.8.8-42.2 8.3c-18 6.2-35.7 14-54.3 18.6a242 242 0 0 1-85.2 5.6 187 187 0 0 0 55.3 14.8c20.9 2.4 42-.7 62-7.3 9.8-3.1 19.4-7 29.4-9.5 8-2 16.8-1.8 24.5 1.5 6.3 2.9 10.4 10.6 18.1 10.1 7 .2 10.3-7.1 14.5-11.5 6-7.8 15.8-12 25.5-12.5a90 90 0 0 1 19.8 1.2 132 132 0 0 1-13 18.6c13-.6 26.6-.2 38.7 5.5a59 59 0 0 1 15.5 11.3c-10.4 1.4-23.4.6-30.3 10.2 9.5.5 20.1 1.3 27.7 7.7 2.8 2.3 2.5 6 1 9a28 28 0 0 1 7.3 12h19.5c-1.3 6.5-6 12.4-12.6 14-4 1.6-9 .5-12.6 3.5l-3.8 2.7a35 35 0 0 1 1.5 17.4 33 33 0 0 0 14.8 5.9v4.9c-6.6 1.7-13.4 4.2-20.4 3.5-4-.3-7.6-2.3-10.7-4.8-5-1-9.8-3-12.6-7.4-4.2 6.2-9 13-16.6 15.2-4.3 1.5-8.7-.2-12.6-2-4.6 5.8-8.1 12.3-11.7 18.8-2.8-6.4-6-13-5.7-20.2.2-4.3 2.3-8.1 4.6-11.6-7.5 1.4-15.2 0-22.1-3a56 56 0 0 0-16 20.7c-3-7.6-6.9-16.1-4-24.4 1.3-4 5-6.3 7.6-9.2 1-2.4 1.1-5.3 2.8-7.3 3-3.7 7.5-5.7 11.8-7.3a116 116 0 0 1 26.1-5.1 45 45 0 0 0-31-21.7c-17.7-3.8-36-3.5-54-2.6-47.4 2.6-94.5 11.9-142 8.1-25.5-2.2-52-9.5-71-27.4-3.3 2.2-7 4.1-9.4 7.4a7.4 7.4 0 0 0 2 10.5c8 5.3 19.2 4 26.4 10.9 6.1 7 3.4 20-5.2 23.7-6.9 3.4-15.2 3-21.5 7.6-6 5-7.7 13.2-13.3 18.6a32 32 0 0 1-21.8 8.7c2.4-6.4 5.2-13.5 2.6-20.3-2 7.6-4.5 15.5-10.5 21-8.2 8-20.7 8.3-31.5 8 4.8-9 10.8-18 11.3-28.5-8.6 11-18.5 21.6-31.7 26.7a46 46 0 0 1-17.1 3.4c3.3-7.7 7-15.5 7.6-24a24 24 0 0 1-8.1 6.9c-3.9 1.5-5.8 5.6-9.6 7.3-2.3 1.2-5 1.7-7.3 3l-6.7 6.5c22.9 1.9 45.8 3.3 68.7 5.1 25.3 1.3 51 5.2 76.1 0a205 205 0 0 0 56.8-22c13.1-6.5 25.9-14.2 40.2-17.7a57 57 0 0 1 30 0c-5.3 2.7-11 4.6-16 7.9-13.1 8.4-24.3 19.4-36.9 28.5 36.8-7 72.5-19.5 110-23 19.3-1.5 40-.8 57.1 9.6l-1.7 4.7a158 158 0 0 0-52.4 3.6c-14.6 3.2-28.6 8.5-42.7 13.4a55 55 0 0 1 28 17q4.7 5.8 6.6 13.2c6.3-2 12.5-4.7 19-6.2 18.9-4.9 38.8-4.5 57.6.4l-.2 4.9q-19.8.5-38.6 7c-14.4 4.6-28.3 10.7-42.7 15.3q-20.5 7-42 9.7c-19.4 2.5-39 2-58.5.3a183 183 0 0 0 59.4 15.3c19.6 1.5 39.3-1.6 57.9-7.7 11.3-3.6 22.3-8.3 34-10.4 8.8-1.2 18.7 0 25.5 6.2 3.7 3 7.5 7 12.6 6.3 6.7.1 10.1-6.6 14-11 5-6.2 12-11 20-12.2a71 71 0 0 1 26 .4q-6 9.7-13.2 18.5c12-.5 24.5-.2 35.9 4.4a54 54 0 0 1 18.3 12.5c-10.4 1.3-23.3.8-30.3 10.2 9.5.7 20.2 1.1 27.7 7.8 2.8 2.3 2.3 6.1 1.3 9.2q5 5 7 11.7h19.5a19 19 0 0 1-7.9 11.9c-4.1 3-9.4 2.8-14.2 3.8-2.6 1-4.8 2.9-6.8 4.8a29 29 0 0 1 1 16.8c4.4 3.5 9.7 5.1 15.1 6.1l.2 5c-6.7 1.8-13.5 4.1-20.6 3.6-4-.4-7.5-2.5-10.6-5a19 19 0 0 1-12.7-7.3c-4.4 6.6-9.7 14.1-18.1 15.6-4 1-7.6-1.6-11.4-1.7-4.8 5.2-7.5 12-11.3 17.9a44 44 0 0 1-5.7-20.1c.2-4.3 2.2-8 4.6-11.5a39 39 0 0 1-22-2.9 59 59 0 0 0-16.3 20.6c-2.6-7.4-6.4-15.4-4.1-23.3 1-4.5 4.9-7.3 8-10.2.6-2.4.9-5 2.4-7 2.8-3.7 7.2-5.8 11.5-7.5 8.5-3.2 17.7-4.1 26.7-5.4a40 40 0 0 0-12-13.5c-13.4-9.3-30.2-10.4-46-11.1-52.2-1-103.8 11-156 9.2a162 162 0 0 1-55.9-10.4 94 94 0 0 1-28-17.7c-3.4 2.2-7.1 4-9.5 7.4-2.3 3-1.7 8 1.5 10.1 8.1 5.8 19.5 4.3 26.9 11.3 6.2 7 3.4 20-5.3 23.8-6.3 3-13.6 3-19.7 6.4-6.6 4-8.5 12-13.2 17.6-5.4 7.4-14.8 10.2-23.6 10.8 2.6-6.4 5-13.5 2.8-20.4-2.3 7.3-4.4 15.2-10.3 20.6-8.1 8.5-20.8 8.9-31.8 8.6 4.4-9.1 10.7-17.7 11.2-28.1-8.7 10-17.8 20.5-30.4 25.6q-8.7 4-18.3 4.1c3.2-7.8 6.6-15.5 7.6-24a27 27 0 0 1-9 7.1c-3.3 1.5-5 5-8.1 6.7-3.5 2-8 2.2-10.4 5.6-8.2 9.5-20.5 13.8-32.3 16.5 6.3-6 12.6-13 13.6-22a16 16 0 0 1-6.7-9.5 50 50 0 0 1-29 7.8c-3.8-.1-7.4-1.7-11-2.2-12 0-23 5.6-33.4 11 3-8 7-16 13.7-21.6 4.3-4 10.1-5.3 15.5-7l-.8-2.4c-4-1-8.3-1.3-12-3.2-3-1.5-5-4.1-7.3-6.6-5.4-.3-10.8-.7-16.2.3-5.1 1-9.6 3.6-14.5 5.5 3-7.6 6.7-15.4 13.4-20.4 5-3.7 11.4-5.2 17.5-4.6q5.5.4 11 .3c5.4-.1 10.3 2.4 15.3 4 1.6-.5 1.1-2.6 1.6-3.8q-8.6-5-18.7-5.8l-.9-4.7a53 53 0 0 1 19.7-4.7c6.6-.1 13 1.8 19.3 3.5 8.4 2.4 14.4 9.5 19.7 16.1 11.3.3 22.7-.4 34-1.1 17.8-1.5 35.8-4 52.1-11.6-6.9-3.9-14.3-7.7-18.7-14.6a35 35 0 0 1-4.6-18.5c-41.6.5-82.3 11.6-120.8 27-38 15-75 33.7-115 42.9a186 186 0 0 1-103.5-4.7c2.4 7.6 1.7 15.8 1.5 23.7-8.7.6-17.6-.5-25.1-5a34 34 0 0 1-9.8 10c-6 3.7-13.1 4-19.9 5l-.2-11a43 43 0 0 1-22 13.2c-5.3 1.3-10.8.8-16 .3 1.9-5.6 3.8-11.8 1.3-17.6a37 37 0 0 1-34.2 17.8c1-5.3 2.7-10.7 1.8-16.1a36 36 0 0 1-19 13c-7.2 1.8-14.7 2.4-22 3.9 1.6-3.3 3.8-6.2 5.4-9.3 1.6-2.8 1.7-6 2-9.2-5 2.3-9.6 5.8-14.9 7.7a54 54 0 0 1-35.8 1c5.8-3.8 12.1-7 16.5-12.6-6.7 2-14 4.3-21 2-3-.8-4.6-3.5-6.2-5.8q-3.6 2.9-7.4 5.3c-7.7 6-14 13.7-21.9 19.6q1.7-10.4 3.9-20.7c1.6-4.6-3.6-7.7-4-12.1-4.8.1-9.9.5-14.4-1.5A20 20 0 0 1 38 579.3c-9-1-17.9.4-26.6 2.2l-1.4-4.8c6.7-4.6 13.3-9.7 20.8-13 3-1.3 6.1-2 9-3.2.1-2.2-2-3.4-3-5.2-3.3-4.2-2.6-9.9-1.5-14.7a50 50 0 0 0-24.7-5.1 39 39 0 0 1 19.2-13.2c4.7-1 10-.9 14 2 2.3 1.5 4.2 4 7.2 3.8 4.7-.1 8.3 2.8 11.8 5.4.5-.5 1.4-1.4 1.8-2a34 34 0 0 0-14-13.2l1.2-4.7c7 .4 14.3.7 20.6 4.1 3.7 2.1 5.8 5.9 8 9.4 5.5 2.1 6.4 8.7 6.5 13.8 0 7.6 4.6 14.3 10 19.1 11.6 10 27 15 42 15.5 9.4.3 19.1-2.2 26.3-8.3-8 1.7-16.3 4.2-24.5 2-7.7-2-13.1-8.7-16.2-15.7 6.2-.9 12.6-1.8 17.9-5.4-8.2.4-17.7 1.6-24.5-4-5.7-4.8-6.5-12.8-6-19.7 5 .8 10 1.2 14.7-.4-3.2-1-5-3.6-5.5-6.9-2.5-.2-5 0-7.4-.7-2.3-1-4.2-2.6-6.5-3.6-8.3-.6-16.2 1.9-24.2 3.7A41 41 0 0 1 96.1 496c2.9-2.2 6.4-3.3 9.8-4.6l-.4-1.2c-3.4-2-6.9-4.5-8.2-8.3-1.4-3-.6-6.3 0-9.3q-4.1-5.1-10.2-7.6c-4.5-2-9.6-1.9-14.3-3.2a52 52 0 0 1 19.3-8c6.5-.9 13 1.4 18.4 4.7q2.4 1.4 5.2 1.5c0-4.2 1.6-8 3.1-12-2.3-7.2-10.2-10.6-16.6-13.6l.4-4.8a50 50 0 0 1 24 2.8c3.5 1.6 6 4.5 8.7 7.2 2.7.4 5.6.5 7.7 2.5 3.4 2.7 4.4 7 5.4 11 3.8-.8 4.4-4.9 5-8.1.4-3.2.1-6.4 0-9.5l-6.4 1c2.8-6 8.6-11.6 6.7-18.7a54 54 0 0 1-50.2 9c5.9-3.7 12-7 16.6-12.4-6.6 1.7-13.5 3.8-20.4 2-3.1-.8-5-3.6-7-5.9q-4 3.2-8.3 6c-7 6.1-13.5 13-20.7 19 1-8.2 3-16.2 4.3-24.3a24 24 0 0 1-4.6-8.7c-5.7.3-12 .4-16.9-2.9a19 19 0 0 1-8.6-11.3c-8.8-.9-17.7.4-26.3 2.3l-2-4.5C18 380.2 26 373.7 36 371c1.4-.6 3.1-.8 4.2-2-1.8-2.9-4.6-5.5-5.3-9-1-3.5-.1-7 .6-10.4a51 51 0 0 0-24.7-5.2C17.4 336.6 27 329.3 38 331c4.2.4 7 3.5 10.4 5.6 2.4.9 5.1.6 7.6 1.4 2.4 1 4.4 2.9 6.4 4.5l2.3-2c-3.5-5.4-8-10.3-13.9-13l.9-5c6.5.5 13.2.8 19.2 3.4 3.7 1.6 6.1 5 8.3 8.2 1.7 2.7 5.2 4 6.3 7.2 2 5.3.6 11.2 3 16.4 3.2 7.2 9.2 13 16 16.9a70 70 0 0 0 40.4 9.6c7.4-.6 14.8-3.2 20.4-8.2-8 2.1-16.3 4.3-24.5 2.3-7.8-2-13.2-8.8-16.2-15.9a44 44 0 0 0 17.7-5c-7.8-.4-16.5 1.4-23.4-3.5-6.6-4.4-7.5-13.2-7-20.5 4.7.6 9.5 1.4 14-.1-2.3-1.8-4.3-4-4.8-7q-3.4-.1-6.8-.7c-2.6-.8-4.7-2.8-7.2-3.9-8.3-.3-16.4 2-24.4 3.9A49 49 0 0 1 94 306.9c3.2-3.5 7.9-5 12.1-6.8-2.8-2.8-7-4.7-8.5-8.7-1.7-3.2-.5-7-.6-10.4-5.7-7.5-15.5-8.9-24.2-10.3 6.6-3.7 13.5-7.8 21.3-8.1a29 29 0 0 1 18.7 6.2c1.6-.4 4.1-.1 3.5-2.7-.3-3.6 2-6.5 2.7-9.9-3.2-6.5-10.1-10.1-16.6-12.7l.3-5.1c8.2-.4 17-.5 24.5 3.2 4.5 1.8 6.6 7.2 11.7 7.5 6.2 1.1 8.5 7.6 9.7 13 3.6-1 4.3-4.9 4.9-8 .4-3.3.1-6.5 0-9.7l-6.4 1c3-6 8.2-11.4 6.9-18.5-5.7 3.5-11.5 7.2-18 9a56 56 0 0 1-32.3-.2c5.8-3.7 12-7 16.4-12.5-6.9 2-14.6 4.3-21.7 1.5-2.6-.8-4-3.3-5.4-5.4-2.8 2.5-6.2 4.2-9 6.5-6.9 6-13.1 12.8-20.2 18.5 1-8.1 3-16.1 4.3-24.3-2-2.5-3.8-5.4-4.5-8.7-6.4.5-13.6.4-18.8-4-3.5-2.3-5.2-6.3-7.2-9.9-8.6-1.4-17.4.5-26 2.1l-2-4.4c7.6-5.2 14.8-11.2 23.6-14.2 2.5-1 5.4-1.4 7.3-3.5-6-4.3-7.1-12.3-5-19a54 54 0 0 0-24.8-5c6.4-7.2 15-14.2 25.3-13.6 4.9 0 9 2.8 12.4 6.2 3 .3 6.4 0 9 1.8q3 2.2 6.3 3.4l.9-2a37 37 0 0 0-13.8-13l1-4.1c7.1.7 15 0 21.4 4 4 2.5 5.6 7.6 9.5 10.4 5.8 4.7 3 13 5.5 19.3a39 39 0 0 0 17.7 18.5 68 68 0 0 0 43 8.4c6-1.2 12-3.5 16.5-7.7a49 49 0 0 1-23.9 2.4c-8-1.7-14-8.5-16.6-16a40 40 0 0 0 17.5-5.2c-7.8 0-16.5 1.5-23.3-3.3-6.7-4.4-7.6-13.2-7-20.5a29 29 0 0 0 14.6-.4q-4.6-1.7-5.5-6.8c-4.7 0-9.6-.8-13.2-4-8.5-.4-16.9 1.7-25.1 3.3 3-6.3 5.5-13 10.8-17.9a31 31 0 0 1 12.8-7c-3.5-2.8-8-5.1-9.3-9.7-1.4-3.1.2-6.5-.4-9.6-6-7.4-15.8-9.4-24.8-9.8 7-3.7 14-8.2 22-8.5 5.9-.4 11.5 1.8 16.4 4.7q2.8 1.5 6 1.3-.7-6.1 3-11.5c-3.2-7-10.3-11-17.2-13.7q.2-2.4.7-4.7a48 48 0 0 1 23.5 2.6c3.4 1.4 6 4.2 8.4 6.8 3 .7 6.1 1.1 8.5 3.1 3.1 2.6 4 6.7 5 10.3l3.2-.6c2.6-6 2.7-12.8 1.3-19.1 3.4.9 7.2 1.6 9.8 4.1 4.3 3.6 5.6 9.4 5.5 14.7-.4 4.1 3.5 7 3.4 11 0 5-3 9.5-7 12.5a21 21 0 0 0-8.2 11.5c-1.7 8.9.9 18 5 25.9 4.9 9.3 10.7 18.2 18.2 25.6a97 97 0 0 0 50 23.2c-3.4-10.7 1.5-21.7 7.7-30.2-2.3-1.5-5-3.4-4.7-6.5.1-8.4 6.3-16.1 14.2-18.7l.3-6a17 17 0 0 1-6.5-8.8 29 29 0 0 1 3.7-23.3c2.3-3.5 5.7-6.7 10.1-7 3.2-.4 5.9 1.5 8.7 2.6 1.9-5.3 2.3-11.4 5.9-16a5.6 5.6 0 0 1 7.3-1.9c3.3 1.9 5 5.4 7 8.5 2.5-5.2 4.4-11.3 9.3-15a7 7 0 0 1 9 .3c3.7 3.1 5 8 6.7 12.4 2.6-5 5.8-10 10.6-13.4 2.7-2 7.1-1.3 8.8 1.8 2.7 5.1 2.6 11 3 16.7 3.8-2.4 8.5-7.4 13.2-4 3.6 3.8 1.8 9.7 1 14.2 2.3-.6 4.9-2 7.4-.9 2.8 1.3 3.2 4.8 3.2 7.5-.2 6.2-2.7 12-5.1 17.5 2.7 1 6.1 2 7.4 5 5 9.5 2 21.7-5.5 29.1 21.5 2.8 43.2 2.5 64.8.8 26.4-1.7 52.7-5.3 79-8.7 8.4-1 16.7-2.6 25.2-3 83-11.7 166-25.4 249.9-27.4 8.3 0 16.6-.5 25 .2 29 2.6 57.8 9.2 87 10.5 7.2 0 15.1.6 21.5-3.4 2.7-1.7 2.7-5.7 1-8-2.3-3.5-6-5.7-9.6-7.5-11-4.9-22.8-7-34.5-8.7-3.9-.6-7.7.4-11.5.8-10.9 1.6-22 2-33 2-2.6-.2-5 1.1-7 2.5a55 55 0 0 1-32 9.2c-12.3-.6-24-4.5-35.9-8q-3.5-1-7.1-.6c-70.7 9.7-141.2 20.8-212 29.5-28.5 3.1-57.1 6.8-85.9 6.3a74 74 0 0 1-33-7 26 26 0 0 1-13.5-18.7c-2.5-13 1-26.4-2.4-39.3-2.2-8-8.9-13.4-15.3-18" fill="#1b0c09"/><path id="path3" d="M113.7 53c6-.8 11.8 2.2 16.3 5.8l-6.3 4.1c-3-3.6-6.8-6.5-10-10" fill="#041d65"/><path id="path4" d="M387.9 53.6a19 19 0 0 1 12.4 9.2c3.6 6 4.4 13.3 5.3 20.2A102 102 0 0 1 473 57.3c27-1.3 54-.5 81 .7 49.7 2.4 99.4 6.9 149 10 22 1.5 44 .4 66-.4 49.1-2.2 98-7.2 147.1-9.5 22.3-.6 44.7-1.3 66.8 2.4a97 97 0 0 1 17 4.3c.7.3.6 1 .7 1.6l-.8-1.3c-44.6-1.5-88.3 9.4-132 16.6a236 236 0 0 1-63.9 3.8c-8-.9-16-3.1-23.7-5.3 3 3.1 5.8 6.6 9.4 9.2 3 2.2 6.5 3.3 10 4.4-12.4 6.1-26.7 4.6-39.6 1.2-21-5.7-41.8-12.5-63.1-17-58.6-13.4-119-13.7-178.9-14.4-15 0-30-.5-45 .4a123 123 0 0 0-45 12 45 45 0 0 0-18 15c-2.8 4.6-3.2 11.2.5 15.3 3.3 4 8.3 6 13.2 7.2 11.8 3 24.1 2.2 36.1 1.6 7.4-.6 15-1.2 21.8-4.3 3.3-1.4 5.8-5 4.4-8.6-2.2-4.3-6.5-6.8-10.4-9.2 12.2-2.8 25 0 36 5.3q8.6 4 16.6 9a28 28 0 0 0-5.3-20.8 97 97 0 0 1 38.1 7.6c5.1 2.3 9.6 5.7 14 9 .1-3.4.4-7-1-10-1.9-4.9-5.8-8.5-9.3-12.1q13-.2 25.6 3.4c10.8 3 21.2 8.1 32.6 7.6 22.1-.7 44-3.8 66-6 5-.4 10-1.6 15-1.2 8 1.3 15.8 4.2 23.8 5.8-70.2 9.3-140.2 20.7-210.6 29-26 2.8-52 6-78.2 5.7-11.4-.4-23.4-1-33.4-6.9-5.7-3.1-9.4-9-10.4-15.4-2-12.8 1.1-26-2.4-38.8a40 40 0 0 0-4.9-10.6" fill="#f1db18"/><path id="path5" d="M157.2 69.5q.6-5.9 1.9-11.4c3 3.4 4.7 7.7 4.3 12.3z" fill="#041d65"/><path id="path6" d="M292.9 62c1.4-2 4.6-3.6 6.4-1.2 5.2 5.7 5.7 14 7.4 21.1 3.2-7.1 6.3-14.6 11.8-20.3 1.3-1.2 3-3 5-2.2a11 11 0 0 1 2.2 4.8c1.4 7 1 14.3 1 21.5 4.2-4.7 8-11 14.8-12.3 1.5 5.8-.5 11.5-2.3 17l2.8 2c2.4-1.9 4.7-4.4 8-4.7 1.8.4 1.5 2.9 1.6 4.3-.6 8.7-5 16.4-8.8 24 3.1-.8 6.5-3.2 9.8-1.7 2.7 2 3.5 5.6 3.7 8.8.4 6.3-1.6 13.4-6.9 17.4-2.8 2.2-6.6 1.7-10 1.5 2.3 9.2 3.3 19 .9 28.2-1 3-2.6 7.2-6.3 7.3-4-.5-6.6-3.9-9-6.8l-3 2.6c6 7.6 2.7 18.8-3.2 25.5-2.6 3-7 5.6-11 3.6-3.9-2.2-5.2-6.8-7-10.6-3.9 6.4-7.3 13.1-12.8 18.2-2.5 2.2-6.5 3.8-9.5 1.5-5-4.2-7.5-10.6-9.9-16.5 6.6-5.6 14.6-9.5 22.2-13.5 4.7 2.4 8.7 5.8 13 8.7-2.2-8-3-16.8 1.1-24.3 2.6-6 8.3-9.8 10.5-16 3.5 3 7.6 6.4 12.5 5.5 4.8-1 7.8-5.3 10.4-9l-3-2c-2.5 3.1-4.8 7.6-9.3 7.6-5.3-1-8.5-5.5-12.1-9-1.5 3.5-1.9 8.1-5.4 10.4-1.5 1-3.5 2.4-5.4 1.4-4.4-2-7.2-6-10.1-9.5 5.6-3.1 11-7 14.7-12.2a21 21 0 0 0-8-7.8c-4.9-2.5-10.6-1.5-15.6-.3 2 2.7 4.3 5.4 4.7 8.9.4 3.6.1 7.2 0 10.9-5.4 2-11.4 3.1-17.2 1.7-6.6-2.8-6.6-11.3-6.7-17.4H253v3.7h8.2c.6 6.2 2 13.2 7.8 16.6-1.3 5.8-2 11.8-4.7 17-2.2 4.2-5.8 7.1-9.1 10.2a125 125 0 0 1 15.5-.7c-1.2 5.5-1.6 11.3-3.2 16.8-2.2 4.3-4.7 9.3-9.6 11-3.8 1.6-8 0-10.9-2.7-4-3.8-6.4-9.5-5.5-15 .3-3.2 2.3-5.8 4-8.3l-2.5-2.3c-2.4 1.8-4.6 4.3-7.8 4.5-2.5-.7-3.2-3.6-3.2-5.9a34 34 0 0 1 12.2-26.1l-1.5-2.9c-2.2 0-6.4 1.6-6.6-1.9 0-7.2 6-15.2 13.7-14.8.5-4 .3-8.2 2.1-12a12 12 0 0 1-8.2-8.4c-1.9-7.8.3-16.6 5.7-22.5 2.1-2.3 5.6-3.4 8.5-2 3.4 1.3 4.6 5.7 8.3 6.4-.6 7.8-.4 16.2 4 23 3 4.7 9.1 6.8 14.4 4.9 7.5-2.8 12-10 15-17-6.3 1.1-13 1.5-18.9-1.5-6-2.3-10-7.4-15-11 1-5.6 2-11.2 4-16.5.8-1.9 1.7-3.9 3.4-5 1.8.3 3 1.8 4 3.2 2.8 3.8 4.3 8.4 6.7 12.5 2.3-7 4.3-14.6 9-20.5" fill="#f1db18"/><path id="path7" d="M126.1 65.2c4-2.7 9.5-5 14-2.3 4.3 3 4.3 8.7 4.8 13.4a61 61 0 0 1 3.8 30.2l3.4.4c1.6-10.7 0-21.6-3.3-31.9 4.2-1.5 8.9-3 13.2-1.1 3.9 1.2 6.8 5.5 5.4 9.6-2.2 6.8-10.3 9.3-13 16-4.9 10-1.6 21.8 2.7 31.5a90 90 0 0 0 27.5 34.5 107 107 0 0 0 53.3 19l-.3 5.2c-29 6.7-59 8.8-88.7 5.5 11.5.5 21.3-7.7 26-17.7-9.9 3.5-20 8-30.8 6.6-6-.6-10.9-4.7-14-9.6 4.7-1 9.6-2 13.5-5 3.2-2.3 5.3-5.8 7.3-9-9.4 1.6-19.7 4.5-28.8.1-5-2.6-6.6-8.5-6.6-13.8 6.4.8 13.3-.6 17.8-5.5 2-1.3-.4-2.7-1-4q-3.5 1.2-7.1.3 0-1.5.4-3c1.2-1.4 3-1.7 4.5-2.7q-.5-1.8-1.2-3.5c-5 2.3-11 5.5-16.3 2-5.6-5-5.6-13.5-3.2-20 1.5-.6 3-1.6 4.7-1.7 3.7 1.2 6.3 4.4 9.2 6.7l2.2-2.9c-3-2.5-5.8-5.6-9.6-7-2.5-1-5 .5-7.6.3-3.2-1.2-6-3.5-7.5-6.5s-.4-6.6 1.3-9.2c3.3-5 9-8.3 15-8.7 3.3-.3 5.7 2.6 7.3 5.1 2.2 3.3 2.1 7.4 1.5 11.2l3.5 1.3c1.7-6.7-.2-14.4-5.7-18.8-1.5-1.5-4.2-2.6-3.9-5.1 0-4.2 3.3-7.5 6.3-10" fill="#f1db18"/><path id="path8" d="M423.5 84.4C440.3 73 461 69.2 481 68.5q30.4-.3 61 .3c48.8.8 98.2 2 146.1 12.5-22 1.8-44 5.4-66 5.7-10.6.6-20.2-4.6-30.2-7.1a90 90 0 0 0-39-2.7c5.2 4.8 11 9 15.2 14.7-18.4-9.8-39.8-10.8-60.2-10.6 6.7 4.1 14.2 9 15.6 17.4-11-6-22.8-11-35.4-11.7a49 49 0 0 0-25 5.5c5.8 2.6 11.6 5 16.4 9 1 1 2.4 2.2 2 3.7-2.5 2-5.6 2.8-8.6 3.4a156 156 0 0 1-29 2c-8.2 0-17-.1-24.6-3.8-3.5-1.6-7.2-4.6-6.6-8.9 1.2-6 6-10.2 10.8-13.5" fill="#ce142c"/><path id="path9" d="M88.2 77.7c6.4-2 13.3-.8 19 2.6l-7.2 6.4q-5.1-5-11.7-8.3z" fill="#041d65"/><path id="path10" d="M873.2 85.5c8.3-.8 16.5-3.1 24.8-4a44 44 0 0 1 20.7 9.8 33 33 0 0 1 9.6 18.5c6.7-3 13.6-5.7 20.8-7.2 13.1-2.7 26.7-2.1 39.8.5-20.2 3-39.7 9.7-59.3 15.3a209 209 0 0 1-121.5 2.4l-1.6 4.8c6.7 2.9 13.3 6.4 20.4 8.4a184 184 0 0 0 66.1 14c18.4 0 36.6-4 54-10 8.7-3 17.6-5.9 26.8-7.8a31 31 0 0 1 20.5 2.5c4.8 2.4 8 7.4 13.4 8.6 5.6 1.8 12.3.4 16.3-4.1 4.7-4.6 8-10.6 13.8-14 7.8-5.2 17.6-5.5 26.6-4.6-3.7 5.5-7.4 11.1-12.5 15.5a67 67 0 0 0-5.1 5.3c18.4-2.5 38.9-4.1 55.2 6.5-7.1 1.3-14.9 2.8-20 8.4-3.3 3.9-6.2 8.2-9.7 12a63 63 0 0 1 26 .2 21 21 0 0 1 11 6.2c-2.9 1.7-6.3 1.4-9.5 2q-4.3.7-8.5 2l1 4.7c4.7-1.2 9.6-2.8 14.6-2.2 4 1.4 6 5.7 7.6 9.3l-3.3.1q-.1 2.5.5 4.8l2 6.3c-3 3.8-8 6-13 5.2-3.3-.4-7.1-1.7-8.6-5-1.2-3.3-1.7-6.7-2.5-10l-4.6 1.3c1.2 4.9 1.4 10.7 5.4 14.3 3.8 4 9.7 4 14.8 4.8a32 32 0 0 1 2.3 10.4c-3.6.9-7.4 1.4-10.4 3.6-2 1.5-3.2 3.8-4.3 6-2-1.2-4.4-2.3-5.8-4.4-1.6-2.1-1.4-4.9-1.9-7.3-1.2-8.3-9.2-14-9-22.6h-4.7c.2 2.8.4 5.6 1.5 8.1 2 5.3 6.3 9.5 7.5 15.1 1 2.4-.9 4.4-2 6.4-3.3 5-7 10.7-12.9 13-2.9 1.2-6 .2-8.8-.7l2-2.6-3-2.7-1.8-.4q-3.8-1.2-6.8-3.5-1.7-2-3.3-4.2c6.4-6.5 12.5-14.7 11.7-24.4l-4.7.7q0 6.1-3 11.2c-2.4 4.3-6.8 7.2-8.8 11.8a31 31 0 0 1-16-1.7l2.3-1.9-2.4-3.3h-1.7a45 45 0 0 1-9-3.8c-1.4-1-.3-3.3.4-4.5a20 20 0 0 1 9-5.7c10.4-3.8 21.5-4.7 32.5-5.6a45 45 0 0 0-24-26.4c-16-7-34-7.7-51.2-7.8-51.6.8-102.7 12.2-154.4 9a137 137 0 0 1-50.8-12 79 79 0 0 1-30.2-24.5c-7.8-9.6-20.9-12-32.6-11.7v4.7c9.8.2 21 1.1 28 9-5.2 5.2-12.5 8-19.9 8.2-14.5.6-28.8-3.3-43-5.7a192 192 0 0 0-58 .6c-42.4 5.4-82.7 21-121.7 37.8-25.7 10.7-51.3 22-78.4 28.7-33 8.5-68.4 8.3-101-2.1a28 28 0 0 0 11.7-25.4c2.8 1.3 6.3 2.3 9.2.5 3.8-2.3 5.3-6.8 6.3-11a58 58 0 0 0 0-22.3c22.3 4.8 45.3 4.2 67.9 3 37.9-2.6 75.5-8 113-13.3 10-1.3 20-3.2 30-3.8 71.4-10.4 143-20.8 215-22.6 8.3 0 16.7-.5 25 .2 25.2 2.1 49.9 7.3 75 9.6 9.8.7 19.7 1.7 29.5-.3 3.9-.8 8.1-2.2 10.5-5.7 2.7-4.2 1.7-10-1.5-13.6-5.2-6.2-13.1-9-20.6-11.4a119 119 0 0 0-14.7-3.5" fill="#f1db18"/><path id="path11" d="M250.2 94.1c.6-1.6 1.9-3.5 3.8-3.4 3-.2 4.6 2.8 6.6 4.5l-2.8 2.4-3.7-3.7a16 16 0 0 0 1.8 14.6l-3 1.8a19 19 0 0 1-2.7-16.2" fill="#1b0c09"/><path id="path12" d="m269.5 96.5 8.2 5.4c-1.9 4.2-1.9 9.2.9 13-7.3-2.9-8.9-11.4-9-18.4" fill="#f1db18"/><path id="path13" d="M314.5 102.1c3.2 4.6 6.2 9.4 10.5 12.9 5.5 4.7 13 6.5 20 5.9 2.6-.5 4.5 1.7 4.5 4.1.2 5.5-3 10.3-6.5 14.1l-2.7-2.3c3.3-3.5 6.2-7.8 5.6-12.8-5.5 1-8.5 6.2-13.3 8.5-4.8 2-10.5 2.6-15.2 0-3.5-2.3-5-6.5-5.6-10.6a46 46 0 0 1 2.7-19.8" fill="#1b0c09"/><path id="path14" d="M284 104.4q4.6.7 9.3.9a21 21 0 0 1-11.7 9.6c2.9-2.7 2.8-6.8 2.4-10.5" fill="#f1db18"/><path id="path15" d="m315.9 110.8 5.7 6a24 24 0 0 0-6.3 6.1q-.5-6 .6-12" fill="#f1db18"/><path id="path16" d="M91 128a25 25 0 0 1 13.1-12.6q.4 5.5 1.3 10.9-7.2.6-14.4 1.7" fill="#041d65"/><path id="path17" d="M325.8 120.1q5.3 3.1 11.4 4.4c-4.6 4.9-11.8 8.8-18.4 5.2a18 18 0 0 0 7-9.6" fill="#f1db18"/><path id="path18" d="M61.1 137.3c5.5.2 11.3 2.6 13.9 7.8l-6 1.9z" fill="#041d65"/><path id="path19" d="M715 150.6a37 37 0 0 0 27-9.2l3.6 4c-3.6 2.4-7.3 4.8-9.9 8.3-3.5 4.7-3.1 12.2 1.5 16.1 7.7 6.8 19.5 5.1 27.4 11.7 3.7 4.7 1.8 12.9-3.5 15.6-7.2 3.9-16.1 3.2-22.7 8.3-6 4.5-8.2 11.9-12.5 17.6-3 3.9-7.5 6.2-12.1 7.5a31 31 0 0 0-7-27.9c-2.5 10-3.4 20.8-10 29.1-5 6.5-13.7 8.6-21.6 8.9A72 72 0 0 0 682 224c1.8-7.1 1.5-14.5.8-21.7C674 214.4 665 227 652.2 235q-7 4.4-15 6.2a75 75 0 0 0 4.8-33.5q-5 6-9.5 12.6c-2 3-5 5-8.4 6a20 20 0 0 1-2.5-8.1h-4.8c.2 4.2 1.5 8.4 4.1 11.7-6 5.6-15 6.4-22.8 4.6-3-.9-6.2-2.1-7.9-5-1.7-2.7-1.2-6.4.5-9 2.4-2.4 5.8-3.1 8.8-4.3l-1-4.7c-4.4 1.4-9.2 2.9-12.2 6.6-4.6 6.6-12.6 9.6-20.1 11.3-6.7 1-14.7 2.2-20.4-2.3-4.1-3.6-2.3-9.7-.7-14.1 12.9-.4 25.8-.2 38.8-.4V208h-42a25 25 0 0 1-15-4c-4.5-3.7-3.5-11.5 1.1-14.6 6.9-1.1 13 2.8 19.5 4.3 10 1.6 20.2 1 30.2.3l-.3-4.8c-8.5.6-17 1-25.5.2.8-4 2.1-8.3 5.6-10.8 3.3-2.3 7.7-1.8 11 0a44 44 0 0 1 16 15.4c20.2-.1 40.6-.7 60.6-4.3 14-2.6 28-6.7 40.1-14.2-9.3-3.7-19.8-7-26-15.6-3.7-4.8-4.4-11-4.4-17 20.4-.1 39.9 7.3 60.2 7.8" fill="#f1db18"/><path id="path20" d="M590.4 150.4c19.5-4.2 39.4-7 59.4-7.3.2 7.5 1.5 15.6 6.8 21.3 4.3 5.3 10.6 8.5 16.5 11.7-15.9 7.7-33.7 10-51 11.6-11.1.6-22.2 1.4-33.2 1.2-2.6.4-3.6-2.3-5-3.9a34 34 0 0 0-16.6-12.2c-6.3-1.6-12.7-3.7-19.3-3.5-6.9.1-13.6 2-19.8 4.8l1.2 4.7c6.5.1 12.7 2.5 18.4 5.6l-.3 3.6c-5-.6-9.5-3.3-14.5-3.6-4-.3-8 0-12-.4-6-.6-12.1.6-17.3 3.7a34 34 0 0 0-10.9 13q-1.8 4.3-4.2 8.2c5.4-1.5 10.2-4.6 15.7-5.5 5.2-.9 10.4-.5 15.6-.2 2.3 2.6 4.6 5.5 7.8 7 3.8 1.6 7.9 2 11.9 2.6v2.7c-5.3 1.7-11 3-15.1 7a45 45 0 0 0-13 19.6c-16 .2-31.8.1-47.7 1.6a107 107 0 0 0-54.4 20.4c-2-7.8-4.8-16.1-11.8-20.9-7-5.1-16.3-4.4-24.5-5.7 5.2 4.4 11.4 8.5 13.9 15.3 5.8 14.7-.2 31 4.5 45.9a27 27 0 0 0 15.4 16.5q8.8 3.5 18.1 4.6c21.3 2.6 42.8-.2 64-2.5 43.4-5.5 86.5-13 129.6-20.8 32.1-5.5 64.1-11.7 96.3-17.3 5.7-.7 11.1 2 16.6 3.3 13.8 3.8 27.3 8.7 41.4 10.5a53 53 0 0 0 35.3-7.8c3-1.5 5.5-4 8.7-4.9 13.7-1.3 27-5 39.8-9.4 3.4-1 6.7-3.2 10.4-2.4a97 97 0 0 1 31.3 9.3c3.2 1.8 6.6 4 7.9 7.7 1 2.7 0 6-2.4 7.4-6.8 4.4-15 4.8-22.8 5.6-22.7 1.5-45.5-.5-68.2-1.7-23.6-1.8-47.3-1-71 .2-98 5.4-194.6 24.2-292 35.5-32.4 3.3-65.3 6.6-97.8 2a26 26 0 0 0 5.6-29.3c-1.4-3-4.7-4.1-7.5-5.1 2.5-6.1 5.4-12.4 5-19.2 0-2.6-1.4-5.5-4.1-6.1-2.3-.2-4.4.6-6.5 1.1.9-3.9 1.7-8 .8-11.9-.9-2.6-4-3.8-6.5-3.3-3.2 1-5.8 3.3-8.4 5.3-.3-5.9-.4-12-3.2-17.3-1.7-2.8-5.7-3.3-8.3-1.6-5 3-7.9 8.4-11.1 13.2-1.7-4.4-3-9.4-6.9-12.4a7 7 0 0 0-8.8.2c-4.7 3.7-6.8 9.6-9.1 14.9-2.1-3.4-4-7.5-8-9-2.7-1.1-5.5.8-6.9 3.1-3 4.7-4 10.2-5 15.5-3.4-2-7.5-4-11.5-2.4-6.9 2.6-10.2 10-11.7 16.8-1.9 7.9 0 17.2 7 22q0 2.7-.6 5.6c-2.7 1.9-6 2.8-8.2 5.5-3.3 4.1-6.3 9.4-5.6 14.9.2 2.8 2.5 4.4 5 5.2-6.9 8.2-11.5 19.7-8.3 30.4a93 93 0 0 1-52.9-26 95 95 0 0 1-19.1-32.8c-2-7-2.7-15.2 1.2-21.7 3-5 9.4-7.4 11.6-13 1.8-3.5 1.7-7.6-.4-10.8-2.8-4-1-9-2.7-13.3a14 14 0 0 0-8.5-9.6c11.2-.6 23-5.2 29.2-15.2 1.3 5.6-.5 11.2-1.6 16.7 6-.2 12-.8 17.4-3.2 7-3 12.5-8.6 16.9-14.7 2.2 5.8.6 12-1.5 17.6a42 42 0 0 0 26.3-4.2c4.4-2.4 8.1-5.9 11.8-9.2l.3 10.7c6.5-.8 13.3-1.1 19.1-4.5 4.6-2.2 7.5-6.6 10.5-10.5a41 41 0 0 0 25.1 5c.1-7.9 1-16-1.4-23.8 29.2 10 61 12.7 91.4 7.3 42.8-7.4 81.9-27.2 121.9-43.2a450 450 0 0 1 66.5-21.8" fill="#ce142c"/><path id="path21" d="M22.9 149.1c2.7-2 5.5-4.6 9.1-4.5 4.3-.8 8.4.8 11.8 3.3q-3.3 3-6.1 6.2-7.2-2.9-14.8-5" fill="#041d65"/><path id="path22" d="M64.9 154.3c3.8-2.9 8.1-6 13.1-6 4.1.5 5 5.3 5 8.7 0 8.4 3.8 16.5 10 22.2a71 71 0 0 0 44 18c33.6 5.4 68.2 3.6 101.3-3.9 2 7.2 7.9 14 15.6 14.7 5.4.5 10-3 13.1-7 2.7 5.6 5.7 11.7 11.5 14.6 3.2 1.2 7 .6 9.8-1.4 5.2-3.6 8.7-9 12-14.4 2.3 3 5.6 5.4 6.7 9.2a54 54 0 0 1 1.4 19.4c-8.4.7-16.4-2.4-23.3-7-2.1 4.2-4.3 8.7-8.3 11.5a34 34 0 0 1-15.7 4.9c0-5.5-1.2-10.7-2.3-16a50 50 0 0 1-10 11.9c-7 5.5-16 8-24.8 7.7.6-3 1.4-6.2 1.2-9.4-.3-4.7-2.5-9-4.3-13.3a48 48 0 0 1-14.7 17.5c-4.6 3-10 4.2-15.5 4.8 2.2-7 1.5-14.6-2.1-21-3.2 5.4-6.7 11-12.1 14.4-6.6 4.1-14.5 5-22 6a24 24 0 0 0 2-20.1 74 74 0 0 1-21.4 12q-10.6 3.4-21.7 1.8c3.4-2.5 6.8-5 9.2-8.5 2.3-3 3.5-6.6 4.7-10.1-8.1 4.2-17.5 8.5-26.8 6.1-4.5-1.1-5.1-6.5-3.8-10.2l-3.4-1.3c-1.5 3.8-3.3 8.2-7.4 9.8-7.7 3.7-17.9-1.7-19-10.1a82 82 0 0 1 16-3l-.3-3.5c-6.3.5-12.6 1.4-18.5 3.6-7.9 3-18-.3-21.7-8-3.2-6.6-1.5-14.2 1.2-20.7 16.1 1.7 26 17.5 42 19.8l.3-3.6C72.2 192 63.1 179.8 50 175.8c-3.1-1.1-7.3-.3-9.5-3.3-5.3-6.6-1.6-16.9 5-21.2 4.1-2.8 9.8-1.5 13.2 2L82 177c.8.6 1.5 1.9 2.7 1.9l2.5-1.8Q76 165.5 64.9 154.3" fill="#f1db18"/><path id="path23" d="M277 151.2q6.6-.4 13-2.6 5.1 5.9 11.5 10.4a43 43 0 0 1-11.5 18 71 71 0 0 1-17.7 10.2c1.9-12 4.8-23.8 4.7-36" fill="#041d65"/><path id="path24" d="M265.4 171.7c5.5-5.3 5.8-13.3 7.2-20.3.5 6.8-.8 13.4-1.3 20.1z" fill="#ce142c"/><path id="path25" d="M294.4 178.9q2.4-2.7 4-5.6-.8 3.8-.7 8z" fill="#ce142c"/><path id="path26" d="M539.4 175.2q7.6-2 15.3-.5l-4.9 5.3q-5.3-2.2-10.4-4.8" fill="#041d65"/><path id="path27" d="M21 192.6a90 90 0 0 1 16.3-8.6l-.1 8q-8.1 0-16.1.6" fill="#041d65"/><path id="path28" d="M498.9 199.8c4-8.3 13.8-12.3 22.7-11.2q-1.9 4.7-2.3 9.7c-6.9-.4-13.8-.5-20.4 1.4" fill="#041d65"/><path id="path29" d="M1111.8 193.3h19.1l-.3 2.4c-5.1 3-11 3.5-16.7 3.9z" fill="#041d65"/><path id="path30" d="M1012.4 213a45 45 0 0 0 9 3.7c-3.4 3.5-7.5 6.2-10.9 9.7q-3.5 3.9-6.8 8c-1.6-4.1-2-9.3.6-13 1.9-3.2 5.1-5 8-6.8z" fill="#041d65"/><path id="path31" d="M833 222c9-4.1 18.5-7.9 28.6-8-17.9 10.7-31.5 27.9-51.2 36l1 4.7c19.1-1.2 37.5-7 56.1-11.4 9.7-3.3 19.7-5.3 29.7-7.6 20-4.2 40.3-7.8 60.8-6.8q11.2.5 21.7 4a180 180 0 0 0-51.5 7.2 780 780 0 0 0-47.3 16.7c-23.5 8.8-47.4 19-72.9 19-9.5.1-18.7-2.6-27.9-5 2.9 3 5.5 6 8.7 8.5 3 2.6 6.9 3.7 10.5 5.2-12.6 6-27 4.3-40.2.8-20.4-5.5-40.5-12-61.2-16.5-47.7-11-96.8-13.3-145.6-14.2q-28-.6-56.3-.6c-18.3-.4-36.8 1-54.3 6.8a67 67 0 0 0-28.4 16.6c-3.5 3.8-6.3 9-5.2 14.4 1 4.7 5 8 9 10A61 61 0 0 0 442 306c11 0 22.1-.1 33-2.5 3.5-1 7.4-1.8 10-4.7a6 6 0 0 0 .4-7.4c-2.3-3.6-6.2-5.6-9.6-8.1 12.3-2.5 25.1.1 36.3 5.6q8.3 4 16.2 8.7c.6-7.2-.4-15-5.4-20.7 12.5.7 25.4 1.7 37 7 5.6 2.4 10.4 6.1 15.3 9.7.2-4.3.1-9-2.3-12.7-2.2-3.5-5.1-6.3-8-9.3q12.9-.4 25 3.1c11.3 3 22.2 8.6 34.1 7.7 22.3-1.3 44-6.7 66-10.3 5.6.7 11 2.4 16.4 3.5q-64.6 12-129.4 23.4-41.3 7.2-83 12.8c-20.8 2.4-42 5.2-63 3.7-9.3-.8-19-2.1-27-7.5a22 22 0 0 1-9-16c-1.6-12.3 1.2-25-2.2-37-1-4-3-7.5-5-11 5.5 1.5 10.5 5 13 10.1 3.3 6 4 12.9 4.7 19.5a100 100 0 0 1 56.6-24.8 599 599 0 0 1 78.9-.8c49.7 2 99.4 6.4 149 9.7 12 .8 24 1.7 36 1.5 18.7-.3 37.2-4.7 54.6-11.6 18-7.3 34.8-17.2 52.3-25.6" fill="#f1db18"/><path id="path32" d="M521.2 232.9a27 27 0 0 1 17.2-12l1.5 7.5c-6.4 1-12.5 3.1-18.7 4.5" fill="#041d65"/><path id="path33" d="M71 222.4q4.4 1.3 8.7 2.1-4.6 4.8-9.6 9.3l-1.3-.6q1.7-5.3 2.3-10.8" fill="#041d65"/><path id="path34" d="M1098.1 231.1c.4-3.5 4.3-4.2 7-5.4 2.9 4 7 6.6 11.2 9.2-6.2 1.2-14 2.1-18.2-3.8" fill="#041d65"/><path id="path35" d="M554 235.2a52 52 0 0 0 30.2-7.7c.8 4 3.8 6.9 6.6 9.8-.4 2.9-1.7 5.5-2.7 8.2q-36.7-2.3-73.4-3.2A62 62 0 0 1 542 233c4.2-.4 7.9 2 12 2.2" fill="#ce142c"/><path id="path36" d="M1047.2 228.6q3.1 2.3 6.8 3.5l1.1.3c-4.7 5-8.6 10.8-12.7 16.3-1-3.8-2-7.8-.8-11.7 1-3.3 3.4-5.9 5.6-8.4" fill="#041d65"/><path id="path37" d="M595.1 239q5 .8 9.9 1.3c-2.2 2-4.2 4.3-6.8 5.7q-2.4.5-5 .5.9-3.8 2-7.5" fill="#041d65"/><path id="path38" d="M113.1 243.3c6.2-.4 12.4 1.9 16.7 6.3-2.3 1-4.6 3.6-7.2 3q-4.2-5.1-9.5-9.3" fill="#041d65"/><path id="path39" d="m158.8 249.7.9-.4c2.9 3.1 4 7.4 3.5 11.5l-6-.8c.5-3.5.7-7 1.6-10.3" fill="#041d65"/><path id="path40" d="M293.2 252.1c1.4-1.7 4-3 5.8-1.1 5.4 5.7 6 14 7.7 21.3 3.1-6.8 6-13.9 11.1-19.5 1.4-1.5 3-3.1 5.3-3.2q2.3 2.3 2.7 5.4c1.4 7 .9 14.2.9 21.2 4.2-4.7 8-11.2 15-12.2 1.3 5.8-.7 11.5-2.5 17l2.9 1.9c2.5-1.9 5-5 8.6-4.5 1.4 1.8.9 4.3.7 6.4-1.3 7.9-5.2 15-8.7 22 2.7-1 5.4-2.7 8.4-2.5 2.8.4 4 3.4 4.7 5.9 1.4 7.3 0 15.8-5.8 20.9-2.9 2.6-7 2.3-10.6 1.9a58 58 0 0 1 1 28.1c-1.2 3-2.6 7.2-6.4 7.4-4-.4-6.4-4-9-6.7l-3 2.5c4.2 5 3.8 12.3 1.4 18a21 21 0 0 1-9.1 11 7 7 0 0 1-8.4-1.3c-2.5-2.5-3.6-6-5.2-9.2-3.8 6.3-7.2 13.1-12.7 18.1-2.5 2.3-6.5 4-9.5 1.6-5-4.2-7.5-10.5-9.9-16.5 6.4-5.9 14.7-8.7 21.7-13.7 4.8 2.4 9.1 5.8 13.5 9-2.2-8-3-16.8 1.1-24.3 2.5-6 8.3-9.9 10.5-16 3.3 2.7 7 5.9 11.7 5.5 5.2-.5 8.6-5.2 11.2-9.3l-3.2-1.7c-2.4 3-4.7 7.6-9.2 7.5-5.2-1-8.5-5.6-12-9-1.4 3.5-2 8-5.4 10.4-1.5 1-3.4 2.3-5.2 1.5-4.5-2-7.4-6-10.3-9.6a43 43 0 0 0 14.8-12.3c-2-3.1-4.3-6.3-7.8-8-4.9-2.7-10.7-1.7-16-.4 1.9 2.5 4.2 5 4.7 8.3.6 4 .2 8 .1 11.9-5.4 2-11.5 3.1-17.2 1.7-6.7-3-6.6-11.6-6.6-17.8h-12l.1 3.6h8.1c.5 6.4 1.9 13.6 7.8 17.2-1.4 5.9-2 12.1-5 17.5-2.1 3.9-5.7 6.6-8.8 9.6q7.7-.8 15.5-.8c-1 5.6-1.7 11.2-3.1 16.6-2.2 4.3-4.5 9-9 11.1-4 2-8.6.3-11.6-2.5a17 17 0 0 1-5.6-14.1c0-3.5 2.2-6.4 4.1-9.1l-2.4-2.5c-2.6 2-5.7 5.9-9.3 4-2.1-2.3-1.9-5.5-1.8-8.4.6-9 5.6-17 12.1-23l-1.3-2.9q-3.2.3-6.5.2c-1-6 2.3-11.6 6.6-15.4 1.8-1.7 4.4-1.8 6.7-1.8.7-4 .5-8.3 2.3-12-2.7-1.3-5.7-2.8-7-5.8-3.4-6.8-1.9-15.2 1.8-21.6 1.8-3 4.5-6.2 8.3-6.3 4.7.3 7.5 4.5 10.3 7.7 1.3-6.7 2.3-13.5 4.9-20 .8-1.5 1.7-3.8 3.9-3.6 5 3.9 6.7 10.2 9.6 15.6 2.5-7.2 4.4-15 9.5-20.9" fill="#f1db18"/><path id="path41" d="M125.9 255.9c4-2.9 9.9-5.4 14.5-2.3 4.1 3.2 4 8.8 4.5 13.4 4.3 9.4 4.6 20 3.7 30l3.5.4a73 73 0 0 0-3.2-31.9c4.3-1.6 9.1-3 13.6-1 3.8 1.5 6.4 6 4.8 10-2.6 6.5-10.3 9.1-13 15.6-4.4 9.3-2 19.9 1.7 29q7 16.5 19.4 29.6a103 103 0 0 0 62.5 26.8l-.3 5.2a275 275 0 0 1-56.6 7c-10.7.3-21.4-.7-32.1-1.3 11.4.1 21.4-7.8 26-17.9-10.2 3.5-20.9 8.4-32 6.4-5.5-.9-9.7-5-12.9-9.3 4.7-1.1 9.6-2 13.5-5 3.3-2.3 5.3-5.8 7.3-9.1-9.3 1.6-19.6 4.5-28.6.1-5-2.6-6.7-8.5-6.7-13.8 6.4.7 13.4-.6 17.8-5.6 2-1.2-.4-2.6-1-3.9-2.4.6-5.4 1.7-7.2-.5-.4-3.1 3-4 5.2-5.3l-1.5-3.7c-4.2 2.1-9 4.7-13.8 3.2-3.9-1-6-5.2-6.7-8.8-.5-3.4-.7-7.1.5-10.4.8-2.5 4-4.4 6.4-3.1 3 1.5 5.4 4 8 6.2l2.3-2.8c-2.9-2.4-5.5-5.3-9-6.8-2.4-1-5.1-.3-7.6.3-4.6-1.9-10-6-8.6-11.7 2.1-8 10.7-13.5 18.8-12.8 6 2.6 8.2 10.1 7 16.2l3.2 1.3c1.9-6.7-.2-14.6-5.8-19-1.4-1.4-3.7-2.3-3.6-4.6-.4-4.3 3-7.6 6-10.1" fill="#f1db18"/><path id="path42" d="M458.8 261.3c16.6-3.2 33.5-2.2 50.2-2.3q38.1 0 76.2 1.3c23.7 1 47.4 2.5 70.8 5.8 7.5 1 14.8 2.5 22.2 3.5-18.4 2.8-36.6 7.2-55.3 8-11.2.7-21.4-4.9-32-7.5a94 94 0 0 0-38-2.5c5.2 5 11 9.4 15.4 15-18.2-9.9-39.4-10.8-59.6-10.8 2.8 2.7 6.2 4.7 9.3 7.3 3 2.5 4.4 6.3 5.6 10a90 90 0 0 0-35.6-11.5 52 52 0 0 0-25 5.3c6.7 3.6 14.8 5.8 19 12.5a28 28 0 0 1-11 4.2 201 201 0 0 1-38 1.2c-6.6-.9-14-2-18.7-7.2-3.8-4.5 0-10.4 3.3-13.9a82 82 0 0 1 41.2-18.4" fill="#ce142c"/><path id="path43" d="M873.4 264.7c4.6-1.4 8.9-3.8 13.6-4.7a62 62 0 0 1 26.5 11.6 38 38 0 0 1 12.4 22.2 122 122 0 0 1 43-11.5q9.5-.4 18.8.1c-9.5 2.3-19 4.6-28.1 7.9-19 6.7-37.7 14.9-57.5 19.3a252 252 0 0 1-94 1.7l-1.6 4.9c16.3 7.5 33 14.4 50.5 18.3 21.8 5.2 44.9 6 66.9 1 15.4-3.2 30-9.3 45.1-13.8 9.6-2.7 21.3-3 29 4.3 4.8 4.7 11.3 8.2 18.2 6.6 6.6-1.2 10.3-7.4 14.3-12.2a29 29 0 0 1 17.6-11q8.2-1.3 16.6-.2a138 138 0 0 1-17.8 21.1c18.4-2.5 38.8-4.1 55.1 6.5-7 1.3-14.8 2.8-19.9 8.4-3.4 3.9-6.2 8.2-9.7 12 8.9-1.3 18-2.1 26.7.5 4 1 7.8 2.8 10.3 6.1-5.9 1.9-12.2 1.6-18 3.8l1 4.7c4.7-1.2 9.7-2.9 14.7-2.2 4 1.6 5.8 5.7 7.4 9.3l-3 .2-.2 3.5.5 1.3q1.2 3 2 6c-4.2 6.4-14 7.2-19.9 2.7-3-3.3-3-8.2-4.1-12.3l-4.6 1.2c1 5 1.3 10.8 5.3 14.5 3.9 3.8 9.6 3.7 14.5 4.7 1.9 3.1 2.3 6.9 2.6 10.5-6 .8-12.7 3.2-14.8 9.5-2-1.2-4.3-2.3-5.6-4.3-1.7-2.1-1.4-5-2-7.4-1.3-8.3-9-14-9-22.7l-4.7.2q0 7.3 4.2 13.4a33 33 0 0 1 5.3 11.6c-3.7 6.5-7.6 13.9-14.7 17.2-3 1.6-6.5.5-9.5-.4l2-2.6-3-2.8-2.5-.4q-3.2-1.4-6.1-3.3c-1-1.6-4.3-3.7-2.1-5.5 5.9-6.3 11.3-14.1 10.5-23.2l-4.8.8c.3 5.5-2.1 10.5-5.5 14.7-2 2.7-4.8 4.9-6.1 8.2a34 34 0 0 1-16.2-1.6l2.5-2c-1.1-1.4-2-3.2-4-3.4q-4.8-1.3-9.1-3.6c-1.6-1.3-.3-3.8.7-5 3.6-4 9-5.5 14-7 8.8-2.4 18-3.2 27.1-4a46 46 0 0 0-23.4-26c-16.5-7.4-35-8-52.8-8-43.2.8-85.9 8.6-129 9.5-19.7.3-39.6-.8-58.6-6.2a86 86 0 0 1-47.2-31.5c-7.5-9.8-20.7-11.8-32.3-11.6l.2 4.9c10-.3 21.1 1.2 28 9.2a30 30 0 0 1-21 8.3c-21.4.4-41.8-7.8-63-7.7q-41.9.4-82 12c-37 10.1-71.7 26.7-107.2 41a305 305 0 0 1-67 20 178 178 0 0 1-81.9-6 28 28 0 0 0 11.7-25.4c2.7 1.2 6 2.3 8.8.7 3.8-2 5.5-6.3 6.5-10.3 2-7.6 1.4-15.5.3-23.2 30.2 6.3 61.3 3.6 91.7 1 47.6-4.8 94.8-12.2 142-18.9 48.2-6.8 96.4-13.3 145-16.8a794 794 0 0 1 71-2.4c26.6 1 53.2 4 79.8 3.1 9.6-.5 19.5-1 28.5-4.5 4.8-1.9 9.3-5.9 9.3-11.3 0-6.4-5-11.3-10.3-14.3a94 94 0 0 0-28-9" fill="#f1db18"/><path id="path44" d="M88.3 268.3a23 23 0 0 1 16.2 1c.8.5 2 1 2.3 2l-6.9 5.9q-5.2-5-11.5-8.1z" fill="#041d65"/><path id="path45" d="M266.4 278.8c5.1 5 10.5 10.2 17.5 12.2a34 34 0 0 0 15.8.2c-3.2 7.3-8 15-16 17.3-5.5 1.7-11.4-1.3-14.1-6.1-4-7.2-4-15.7-3.2-23.6" fill="#1b0c09"/><path id="path46" d="M250.3 284.4c.7-2.1 3-3.9 5.3-3 2 .9 3.5 2.8 5 4.5l-3 2.2-3.2-3.7c-2.8 4.6-1.1 10.3 1.5 14.5l-3 2c-3-4.8-4.6-11-2.6-16.5" fill="#1b0c09"/><path id="path47" d="M269.6 287q3.9 3 8.1 5.4c-2 4.2-1.4 8.8.1 13-6.6-3.6-8.2-11.6-8.2-18.4" fill="#f1db18"/><path id="path48" d="M314.5 292.7c3.4 4.8 6.5 10 11.3 13.5a27 27 0 0 0 19.3 5.2c2.7-.5 4.5 2 4.4 4.6a22 22 0 0 1-6.4 14.1l-2.8-2.3a20 20 0 0 0 5.8-13.1c-5.5.5-8.5 5.7-13.1 8.2-4.8 2.9-11.5 3.6-16 0a15 15 0 0 1-5-9c-1.4-7 .4-14.3 2.5-21.2" fill="#1b0c09"/><path id="path49" d="M284 294.9q4.5.7 9.2 1c-2.6 4-6 7.9-10.8 9.4q2.4-4.9 1.5-10.4" fill="#f1db18"/><path id="path50" d="M315.3 313.8q-.5-6.3.6-12.5a81 81 0 0 0 5.8 6.2 16 16 0 0 0-6.4 6.3" fill="#f1db18"/><path id="path51" d="M91.2 318.3c2.5-5.5 7.1-9.8 12.6-12.5a83 83 0 0 0 1.8 10.8z" fill="#041d65"/><path id="path52" d="M318.9 320c3.3-2.2 6-5.4 7-9.3q5.3 3 11.3 4.3c-4.5 4.8-12 9.2-18.3 5" fill="#f1db18"/><path id="path53" d="M61 328c5.3.6 11.2 2.7 13.7 7.9L69 338z" fill="#041d65"/><path id="path54" d="M716 341.6c9.3.1 19-2.6 26-9.1l3.6 4c-3.7 2.4-7.4 4.8-10 8.4-3.5 5-2.8 12.6 2.1 16.4 7.8 6.2 19.2 4.8 26.9 11.2 3.6 4.6 1.9 12.7-3.4 15.5-7.1 4-16.2 3.3-22.8 8.4-6.1 4.6-8.3 12.3-13 18a23 23 0 0 1-11.6 7.1c.5-3.8 1.3-7.7.7-11.6-.8-6-4-11.5-7.8-16.3-2.4 10.2-3.4 21.4-10.3 29.7-5.2 6-13.5 8-21.2 8.4a75 75 0 0 0 6.9-17.7c1.7-6.7 1.3-13.8.6-20.6-8.7 12-17.7 24.7-30.6 32.8q-6.8 4.5-15 6c4.5-10.5 5.5-22 5-33.3-6.3 5.9-9 15.9-18 18.6a19 19 0 0 1-2.5-8.2h-4.8c.1 4.2 1.5 8.4 4.1 11.7-6.1 5.5-15 6.4-22.8 4.6-3.1-.9-6.6-2.3-8.1-5.5-1.5-2.6-.9-6 .7-8.5 2.3-2.4 5.7-3.2 8.8-4.3l-1-4.6a26 26 0 0 0-10.2 4.6c-2.6 2-4.1 5.2-7 7-8.2 5.4-18.5 8-28.3 6.8-3.7-.5-7.9-2.1-9.3-5.9-1.2-3.7.2-7.6 1.4-11.1 13-.4 25.9-.2 38.8-.4V399h-43c-5-.2-10.4-1.1-14.3-4.5-4.2-3.9-3-11.2 1.5-14.3 6.7-1 12.7 2.7 19 4.3 10.1 1.8 20.4 1.2 30.6.4l-.3-4.8c-8.5.6-17 1-25.5.2.8-4 2-8.2 5.5-10.7 3.2-2.5 7.8-2 11.2-.2a45 45 0 0 1 15.9 15.5A358 358 0 0 0 643 381a119 119 0 0 0 42.3-14.6c-9.8-3.8-21-7.5-27-16.8a28 28 0 0 1-3.5-15.7c20.7-.2 40.5 7.5 61.2 7.7" fill="#f1db18"/><path id="path55" d="M572.9 345.9c25-7 50.9-11.5 76.9-11.8.3 7.2 1.4 15 6.3 20.6 4.4 5.8 11 9 17 12.5-17.2 8-36.4 10.4-55.1 11.7-10.3.6-20.7 1.5-31 .9-5.5-6.5-11.2-13.7-19.7-16-6.6-1.7-13.3-3.9-20.3-3.5q-9.8.8-18.9 4.7.5 2.3 1.3 4.6 9.8 1 18.3 5.8l-.4 4.1c-5.7-1.7-11.2-4.5-17.3-4.2-7.2.3-14.7-1.7-21.6 1.2-10.3 3.6-15.6 14-19.3 23.5 5-2 9.8-4.7 15.1-5.7 5.2-.7 10.4-.3 15.7 0 2 2.2 3.9 4.7 6.6 6.1 4 2.3 8.6 2.8 13.1 3.4v2.7c-4.7 1.4-9.5 2.6-13.4 5.5q-7 5.3-11.2 13.1c-1.4 2.6-2.3 5.5-3.9 8-7 .5-14-.1-21.1.2-13.3.6-26.8.6-39.9 3.5a105 105 0 0 0-40.8 18.3c-1.7-7.6-4.5-15.6-11-20.4-7.1-5.7-16.8-4.7-25.2-6.3 4.6 4.5 10.6 7.8 13.2 14 7 14.8.5 31.5 5 46.7 2.1 8 8.7 14.3 16.2 17.4a100 100 0 0 0 36.5 5.4c27.8-.7 55.4-4.8 83-8.9 62.8-9.7 125.3-21.8 188-32.8q3.5-.4 7 .6c9 2.4 17.8 5.3 26.9 7.7 12.6 3.7 25.8 7.3 39.1 5.3 9.5-1.3 18-6 25.8-11v-1.2c14.7-1 29-4.9 43-9.7 3.6-1.3 7.4-3.3 11.4-2.3A83 83 0 0 1 902 471c3.3 2.3 6.1 6.9 4 10.8-3.4 4.1-9 5.3-13.8 6.3-20.8 3.3-41.9 1.7-62.7.7l-26.5-1.6c-26-1.2-52 .1-78 1.8a2154 2154 0 0 0-148.8 17.3C525.6 513.4 475 521.5 424 526a321 321 0 0 1-72-.6c7.5-7 10.2-18.9 6.2-28.4-1.3-3.4-4.7-5-8.1-5.8 2.7-6 5.2-12.5 5.2-19.3 0-2.5-1.4-5.6-4.2-6.1-2.2-.3-4.3.6-6.4 1.1.8-4.6 2.6-10.6-1-14.4-5-2.9-9.5 1.7-13.3 4.3-.2-5.6-.3-11.4-2.7-16.5a6.3 6.3 0 0 0-8.7-2.3c-5 3.3-8 8.6-11 13.7-1.7-5-3.3-10.7-8.2-13.5-3.4-2-7.4.1-9.7 2.8-3.3 3.7-5 8.5-7 13-2-3.3-3.9-6.9-7.4-8.7-2.7-1.8-6.1.3-7.6 2.8a48 48 0 0 0-5 15.5c-3.5-2-7.7-4.1-11.7-2.3-7.4 3.2-10.6 11.4-11.7 18.8-1.3 7.4 1 15.5 7.3 19.9q-.1 2.7-.6 5.6c-3.2 2-7 3.3-9.1 6.6-2.8 4-5.4 8.7-4.7 13.8 0 2.7 2.7 4 4.4 5.5-6.1 8.5-11.1 19.6-7.5 30.2a98 98 0 0 1-45.7-19.4 76 76 0 0 1-17.5-20.6 55 55 0 0 1-10.5-31.7 19 19 0 0 1 7.8-14.3c4-3 7.6-7.4 7.8-12.7.2-3-1.5-5.7-3.2-8-.2-4.7-.1-9.7-2.3-14a16 16 0 0 0-7.5-6.6 37 37 0 0 0 29.4-15c1.2 5.6-.8 11-1.6 16.4 8.5.1 17.5-1.8 24.3-7.3 3.9-3 7-6.8 10-10.5 2 5.9.3 11.9-1.6 17.6a42 42 0 0 0 26.4-4.3c4.4-2.3 8.2-5.7 11.6-9.3l.3 10.8c8-.7 16.5-1.4 22.8-6.7q4-3.6 6.8-8.3A41 41 0 0 0 312 423c.2-7.5.8-15-1-22.3l-1.7-1 .5-1.2.4 1c6 1.1 11.8 3.3 17.8 4.6a181 181 0 0 0 70 3c38.8-5.9 74.6-22.6 110.4-37.5 21-9 42.5-17.2 64.5-23.7" fill="#ce142c"/><path id="path56" d="M23.2 340c5-6 15-5.7 20.7-1l-6.6 6c-4.6-2-9.4-3-14-5" fill="#041d65"/><path id="path57" d="M64.9 345.4c4-3.1 8.7-6.7 14-6 3.9 1.4 4 6.3 4.2 9.7.1 8 4 15.6 9.7 21a70 70 0 0 0 44.2 18c33.6 5.5 68.2 3.7 101.3-3.8 2.1 7.1 7.8 14 15.6 14.7 5.4.5 10-3 13.1-7 2.4 5 5 10 9.5 13.4 3.1 2.5 7.8 2.3 11 .2a42 42 0 0 0 12.7-14.7c2.4 3 5.8 5.4 6.8 9.3 2 6.2 1.8 12.8 1.4 19.2-8.4.7-16.4-2.4-23.3-7a31 31 0 0 1-8.3 11.6c-4.6 3.2-10.3 4-15.7 4.8 0-5.5-1.2-10.8-2.3-16.1-4.2 6.7-9.5 13-17 16.2a38 38 0 0 1-17.8 3.5 29 29 0 0 0-3.1-22.6 50 50 0 0 1-14 17 36 36 0 0 1-16.1 5.3c.6-3.7 1.6-7.5 1-11.2a36 36 0 0 0-3.2-10 40 40 0 0 1-12.2 14.5c-6.6 4.2-14.5 5-22 6a25 25 0 0 0 2.2-20c-4.9 3.2-9.6 6.8-15 9.3-8.6 4.1-18.5 6-28 4.3a30 30 0 0 0 13.6-18.5c-8.1 4.3-17.6 8.5-27 6-4.3-1.2-4.8-6.4-3.5-10.1l-3.5-1.3c-1.4 3.8-3.3 8.1-7.3 9.8-7.6 3.7-17.8-1.6-19-9.9 5-2.2 10.6-2.4 16-3.1l-.2-3.6q-10 .5-19.3 3.8c-8.3 2.9-18.7-1.3-21.7-9.8a27 27 0 0 1 1.9-19c16.1 1.6 26 17.4 42 19.7q0-1.8.3-3.5c-15.5-2.7-25.2-18-41-19.7-5-.4-7.4-6.5-6.9-10.9.7-6.6 5.6-14 12.9-14.2 4.5 0 8 3.5 10.8 6.6l22.7 23.1L87 368z" fill="#f1db18"/><path id="path58" d="M276.6 342.3q7-.1 13.3-3 5.3 6 11.8 10.5a49 49 0 0 1-10.7 17.3c-5.3 5-12.2 7.7-18.5 11.3 1.3-12 5-23.9 4.1-36" fill="#041d65"/><path id="path59" d="M265.4 362.7c5.6-5.3 5.9-13.5 7.3-20.6.5 6.9-1 13.6-1.4 20.4q-3 0-5.9.2" fill="#ce142c"/><path id="path60" d="M294.6 369.2q2.8-2.4 4-6-.5 4.2-.5 8.2h-1.5l-1.8-1.4z" fill="#ce142c"/><path id="path61" d="M539.6 366.2q7.4-2 15-.6l-5.2 5.4z" fill="#041d65"/><path id="path62" d="M21 383.7c5.2-3.3 10.5-6.7 16.5-8.3l-.3 7.9q-8.1-.4-16.2.4" fill="#041d65"/><path id="path63" d="M509.3 381.2c3.8-1.8 8.1-1.6 12.2-1.6q-1.7 4.6-2.3 9.7c-6.7-.3-13.5-.3-20 1.2 2.3-4 5.7-7.5 10.1-9.3" fill="#041d65"/><path id="path64" d="M1111.8 384.4q10.2-.4 20.5-.2c-1.8 1.8-3.6 3.9-6 4.6-4.1 1.3-8.4 1.3-12.6 1.6q-.7-3-1.9-6" fill="#041d65"/><path id="path65" d="M1012.4 404q4.4 2.4 9 3.7c-4.5 4.4-10 7.9-13.8 13a14 14 0 0 1-4.8 4.2c-.2-3-.6-6-.1-9 1.2-4.4 4.9-7.6 8.8-9.7z" fill="#041d65"/><path id="path66" d="M811.6 423.8c15.1-7.6 30.4-17.1 47.8-17.8a245 245 0 0 0-23.5 18c-8 6.4-15.8 13.2-25.5 16.9l1 5c18.5-1.4 36.5-6.8 54.5-11.2 22.4-5.6 45-11 68-13.3 14.7-1.3 29.8-1 44 3.3-14 .2-28 1.5-41.5 4.8-30.8 7-59.4 21-89.4 30.6a112 112 0 0 1-50 5.8c-5.7-1-11.2-2.7-16.8-4 2.8 2.8 5.5 5.9 8.6 8.4 3 2.6 7 3.8 10.8 5A55 55 0 0 1 762 477c-19.1-4.9-37.9-11.2-57.1-15.6a500 500 0 0 0-73.8-12c-48.9-4.3-98-4.3-147.1-4.4-19.5.4-39.4 3.8-56.9 13a47 47 0 0 0-16.4 13.6c-3 4.3-4 10.3-1.1 14.9 2.5 3.9 6.8 6.2 11.1 7.7q11 3.3 22.3 2.9c10.9 0 22-.2 32.6-2.7 3.7-1 8-2.1 10.2-5.6 1.3-2.2.7-4.9-.8-6.8-2.3-3.3-6-5.3-9.2-7.5 11.3-2.5 23-.4 33.5 4.2 6.6 2.8 12.7 6.5 19 10 .6-7.3-.4-15.1-5.4-20.7a98 98 0 0 1 38.2 7.6c5.1 2.3 9.6 5.8 14 9.1.1-3.3.5-6.7-.9-9.8-1.8-5-5.8-8.5-9.3-12.2a81 81 0 0 1 25 3.1c11.3 3 22.2 8.6 34 7.7 22.4-1.3 44.2-6.8 66.2-10.3 5.6.7 11.1 2.5 16.7 3.5-68.2 12-136.3 25.5-205 35-22.1 2.9-44.4 5.9-66.8 5-10.6-.6-22-1.6-31-7.7a22 22 0 0 1-9-16c-1.6-12.6 1.3-25.6-2.4-38-1-3.6-3-6.9-5-10 4 1.2 8.2 3 10.8 6.5 5.2 6.5 6.3 15 7.1 23 15.1-13 33.8-22 53.6-24.4 21.2-2.4 42.6-2.1 63.9-1.7 52 1.4 104 5.8 155.9 9.6 24.3 1.3 49 4.6 73-.7a221 221 0 0 0 59.7-23.5" fill="#f1db18"/><path id="path67" d="M521.4 424a26 26 0 0 1 16.5-12c1.3 2.3 1.5 5 2 7.5-6.4.7-12.4 2.9-18.5 4.6" fill="#041d65"/><path id="path68" d="M69.3 425q.4-5.9 2.2-11.5l7.7 2.3q-4.4 5.2-9.9 9.2" fill="#041d65"/><path id="path69" d="M1097.9 420.3a63 63 0 0 1 7-3.6c3.1 3.4 6.4 6.8 10.9 8.2l-.7 1.4c-4.9.4-10.4 1.5-14.6-1.8-1.6-.8-2-2.6-2.6-4.2" fill="#041d65"/><path id="path70" d="M554 426.1c10.5.8 21.2-2.1 30.2-7.7 1 4 3.6 7 6.5 9.8-.3 3-1.6 5.6-2.5 8.3q-37-2.3-74.1-3.2a72 72 0 0 1 27.8-9.3c4.2-.4 8 2 12.1 2.1" fill="#ce142c"/><path id="path71" d="M1047.2 419.7q2.9 2 6.2 3.3l1.3.7c-4.8 5-8.3 11-12.5 16.5-.9-4.1-1.8-8.5-.5-12.6 1-3.1 3.3-5.5 5.5-7.9" fill="#041d65"/><path id="path72" d="M595.4 430q4.8.8 9.6 1.3c-3.2 3.1-6.8 7.3-11.9 5.7z" fill="#041d65"/><path id="path73" d="M113 434.4a21 21 0 0 1 16.8 6.2c-2.2 1.3-4.2 3-6.7 3.5-3-3.5-6.2-7-10-9.7" fill="#041d65"/><path id="path74" d="M158.9 439.5c3.2 3.3 4.8 7.7 4.2 12.3l-6-1z" fill="#041d65"/><path id="path75" d="M290.6 446.6c1.4-2.2 3-4.6 5.6-5.6 2.5-.2 4 2 5 3.8 3.3 5.6 4 12.2 5.5 18.4 3.3-6.9 6.2-14.3 11.6-19.9q2.1-2 4.8-3c1.1 1.7 2.3 3.5 2.7 5.6 1.3 7 1 14.3.8 21.4 3.1-3.7 6.1-7.7 10.2-10.5 1.5-1 3.5-2.4 5-.8 1 5.5-1 10.9-2.7 16l3.2 1.8c2.3-1.9 4.5-4.3 7.6-4.6 2 .5 1.7 3.2 1.7 4.7-.9 8.6-5.2 16.3-8.9 24 3.3-1.2 7.5-4.4 10.8-1.4 2.6 2.8 2.8 6.9 2.8 10.5-.2 5.7-2 11.8-6.7 15.4-2.9 2.3-6.7 1.9-10.1 1.6a59 59 0 0 1 .8 28.3c-1 3-2.6 7-6.2 7.2-4.1-.4-6.5-4-9-6.7q-1.7 1.2-3.2 2.5c4 4.4 3.8 10.8 2.2 16.2a24 24 0 0 1-8.6 12c-2.6 2-6.5 2.2-9 0-3-2.6-4.2-6.3-5.8-9.7-3.8 6.3-7.2 13-12.7 18.2-2.5 2.2-6.6 3.9-9.5 1.4-5-4-7.5-10.5-9.9-16.4 6.5-5.7 14.6-9.2 22-13.6 4.8 2.3 8.8 5.8 13 8.9-1.8-7.8-2.8-16.4 1-23.7 2.6-6.3 8.4-10.3 10.8-16.6 3.5 3 7.7 6.3 12.6 5.4 4.8-1 7.7-5.3 10.3-9l-3-2c-2.5 3.1-4.8 7.6-9.3 7.6-5.3-.9-8.4-5.6-12.1-9-1.6 3.6-2 8-5.3 10.4-1.6 1-3.6 2.4-5.5 1.4-4.4-1.9-7.2-6-10.2-9.6q8.8-4.4 15-12.3a23 23 0 0 0-7.9-7.9c-4.9-2.7-10.8-1.7-16-.4 2 2.6 4.2 5 4.7 8.3.6 4 .2 8 .1 11.9-5.9 2-12.7 3.6-18.6 1-5.4-3.8-5.2-11.3-5.2-17.2h-12v3.7h8.2c.5 6.4 1.8 13.6 7.8 17.1-1.3 6-2 12.3-5 17.6-2.2 3.8-5.7 6.5-8.7 9.6q7.7-.9 15.4-.8c-1.1 5.6-1.6 11.3-3.2 16.8-2.1 4.2-4.5 8.8-8.9 11-3.7 1.7-8.1.4-11.1-2.2-4-3.6-6.7-9-6.2-14.4a17 17 0 0 1 4.3-9.2l-2.6-2.5c-2 1.8-4.2 4-7 4.6-2.6.1-3.8-2.6-4-4.8a34 34 0 0 1 12.2-27.3l-1.6-2.9c-2 0-4.4 1.2-6.2-.2-1.2-5.2 2-10.3 5.4-14 2-2.2 5-3 7.8-2.7.7-4 .6-8.3 2.3-12-3-1.4-6.1-3.2-7.4-6.4-3-7.2-1.3-15.8 2.9-22.2 2-3 5.4-6 9.2-4.9 4.2 1 6 5.4 9.5 7.4-.4 8-.2 16.6 4.7 23.2 3.2 4.4 9.3 6 14.2 4 7.4-3 11.6-10 14.7-17a29 29 0 0 1-23.2-3.6c-4-2.2-6.6-6.6-11-8.4 1.4-6.3 2.3-12.8 5-18.7.8-1.6 2.4-4.4 4.4-2.4 4.3 4 6.2 10 8.8 15.2 2-6 3.7-12.1 7-17.6" fill="#f1db18"/><path id="path76" d="M126.4 446.5c4-2.7 10.2-5 14.5-1.5 4.4 3.9 2.9 10.2 5 15.1a66 66 0 0 1 2.8 28.2q2.2 0 4-1.2a88 88 0 0 0-3.8-30.6c4.1-1.4 8.7-3 13-1.1 4.4 1.2 7.2 6.5 5.1 10.7-3 6.2-10.3 8.8-12.8 15.4-2 5.8-3 12.3-1.3 18.4a91 91 0 0 0 22 39.3 102 102 0 0 0 63 27.3l-.3 5.2a267 267 0 0 1-69.6 6.9c-6.4-.2-12.8-1-19.1-1.2 11.3 0 21.2-7.6 25.9-17.5-10.4 2.9-20.9 8.2-32 6a19 19 0 0 1-12.6-9.5c4.7-.8 9.5-2 13.4-4.8 3.2-2.4 5.3-5.8 7.3-9.1-9.2 1.6-19 4.4-28 .5-5.4-2.3-7.6-8.7-7.3-14.2 6.4.8 13.3-.6 17.7-5.6 2-1.1-.3-2.6-1-3.8-2.2.3-5.4 1.8-7-.6-.9-3.2 3-4 5-5.2l-1.4-3.8c-4.8 2.5-10.7 5.3-16 2.3-5-3.9-5.6-11.2-4.5-17 .4-3.1 3.9-6 6.9-4.4s5.4 4 8 6.2l2.2-2.8c-3-2.5-5.8-5.7-9.6-7-2.3-.9-4.8 0-7 .5-4.6-1.9-9.7-5.8-8.7-11.4 2-8 10.7-13.9 19-13.1 6 2.8 8 10.3 6.9 16.5l3.3.8c1.7-6.8-.4-14.5-6-18.9-1.3-1.4-3.6-2.3-3.5-4.5-.4-4.5 3.3-8 6.5-10.5" fill="#f1db18"/><path id="path77" d="M426.8 463.8A114 114 0 0 1 481 450c46.3-.2 92.7 0 139 3.3q18 1.4 36 3.8c7.4 1 14.7 2.6 22.2 3.4-18.4 3-36.6 7.3-55.2 8-12 .8-23-5.4-34.4-8a95 95 0 0 0-35.7-1.9c5.2 4.8 10.9 9.3 15.4 15-18.4-10-39.8-10.8-60.2-10.8 6.3 4.4 14.2 8.8 15.2 17.3a87 87 0 0 0-33.4-11.4c-8.9-.8-17.9 1-26 4.8l.3 1c6.3 3.1 13 5.7 17.8 11-2 3-5.7 3.8-9 4.6-10.5 2.2-21.3 2-32 2a45 45 0 0 1-24-5c-2.9-1.9-5.4-5.6-4-9.1 2.4-6.5 8.2-10.7 13.8-14.2" fill="#ce142c"/><path id="path78" d="M873.4 455.6c4.6-1.3 8.9-3.7 13.6-4.6a62 62 0 0 1 26.5 11.6 38 38 0 0 1 12.4 22.2c19-8.8 40.3-13.6 61.3-11-27.7 5-52.8 18.7-80 25.5a248 248 0 0 1-99 3l-1.7 4.8a284 284 0 0 0 38.3 15.1c22 6.7 45.5 9.7 68.3 6.2 17.3-2.2 33.6-8.4 50-13.9 8.7-3 18.3-5 27.3-2.1 6.7 2 10.5 9 17.3 10.8 5 1.6 10.8.7 14.8-2.7 5.6-4.7 8.8-11.9 15.2-15.8 7.8-5.4 17.8-5.3 26.9-4.7q-7.6 11.7-17.8 21.3c13.6-1.7 27.6-3.2 41 .3 5.2 1.2 9.8 3.6 14.3 6.2-7.3 1.4-15.4 3-20.4 8.9q-4.5 5.8-9.3 11.5c12.4-1.9 27-2.8 37 6-2.4 2.2-5.7 1.8-8.6 2.2q-4.8.7-9.4 2.2l1 4.6c4.8-1 9.6-2.8 14.6-2 4 1.3 5.9 5.6 7.6 9.2l-3.4.1c.1 1.6 0 3.2.6 4.7q1.2 3.3 2 6.9c-5.1 5.6-14.7 6.6-20.5 1.5-2.4-3.5-2.5-8-3.6-11.9l-4.6 1.4c1.2 5 1.4 10.7 5.4 14.4 3.9 3.7 9.6 4 14.6 4.5q2.3 5.2 2.5 10.6c-6 .9-12.6 3.3-14.7 9.6-3.7-1.8-7.4-4.9-7.3-9.3-.2-9.4-9.4-15.6-9.4-25h-4.7c-.7 9.8 8 16.1 9.5 25.2-3.7 6.3-7.4 13.3-14 16.8-3.2 1.9-7 1-10.1-.2l1.9-2.6-2.9-2.6-1.1-.3q-3-.9-5.8-2.2c-2.2-1.4-3.5-3.6-5-5.6 6.4-6.5 12.3-14.7 11.6-24.3l-4.8.6a22 22 0 0 1-5.9 15.2c-2 2.5-4.6 4.7-5.7 7.8q-8.3 1.2-16.2-1.6l2.4-2-2.3-3.1-1.7-.3q-4.6-1.2-8.7-3.5c-2.8-2.6 1.2-6.5 3.6-7.9 11.6-6.2 25-7 37.9-8.1a45 45 0 0 0-24.7-26.7c-16.2-6.8-34.2-7.4-51.5-7.5-46.8 1-93.1 10.2-140 9.6-20.4-.5-41.2-2.5-60-10.6a81 81 0 0 1-33.1-25c-3-4.2-7-8-11.8-10-7-3-14.7-3.8-22.2-3.7l.2 4.9c10-.3 21.2 1.1 28 9.3a31 31 0 0 1-21.1 8.2c-17 .3-33.2-4.9-49.9-6.8a163 163 0 0 0-32.6-.1c-41 2.8-80.8 15.3-118.6 31-37.4 15-74 33.4-114 40.5a180 180 0 0 1-86-5.3 28 28 0 0 0 11.8-25.4c4.1 2.4 9.9 1.8 12.4-2.6 5.3-9 4.6-20.2 3.2-30.2 26.2 5.6 53.2 4 79.7 2 44.9-3.8 89.5-10.7 134.1-17C633 503 708.1 492 784 491.6c34.4.1 68.8 5.7 103.2 2.2 7.3-1.2 15.6-2.1 21.2-7.4 4.1-3.8 4-10.4.9-14.8a30 30 0 0 0-12.1-9c-7.6-3.4-15.7-5.2-23.8-7" fill="#f1db18"/><path id="path79" d="M88 459.4a23 23 0 0 1 18.6 2c-.7 3-4.6 4.5-6.7 6.8-2.6-2.3-5.2-4.8-8.4-6.4-1.2-.8-2.8-1.2-3.6-2.4" fill="#041d65"/><path id="path80" d="M250.4 475c.8-2 3-3.4 5.2-2.6 2.1 1 3.5 2.9 5 4.5l-3 2.2-3.6-3.7c-2 4.9-.9 10.3 2 14.6l-3.2 1.9c-3-5-4.6-11.3-2.4-16.9" fill="#1b0c09"/><path id="path81" d="M269.5 478q4 3 8.3 5.4c-2 4.2-1.6 9 .2 13-6.7-3.4-8.3-11.5-8.5-18.4" fill="#f1db18"/><path id="path82" d="M314.5 483.8c4.3 6 8.5 12.8 15.6 16a30 30 0 0 0 15.8 2.6c2.8 0 3.9 3.2 3.6 5.5-.6 4.9-2.7 9.7-6.5 13l-2.8-2c3.4-3.6 5.9-8.2 5.9-13.3-5.5.7-8.5 5.9-13.2 8.3-4.7 2.8-11.3 3.6-15.8 0a15 15 0 0 1-5-8.8 43 43 0 0 1 2.4-21.3" fill="#1b0c09"/><path id="path83" d="m284 486 9.2.9c-2.6 4-6 7.8-10.8 9.4a19 19 0 0 0 1.7-10.4" fill="#f1db18"/><path id="path84" d="M315.3 504.4q-.5-6 .6-12 2.8 3.2 5.8 6a19 19 0 0 0-6.4 6" fill="#f1db18"/><path id="path85" d="M92 509.4c1.5-5.9 6.7-10 12-12.3q.4 5.4 1.5 11-6.9-.1-13.6 1.3" fill="#041d65"/><path id="path86" d="M325.6 501.5c3.5 2.2 7.5 3.4 11.4 4.6-4.3 5-12 8.9-18.2 4.9 3.3-2.3 6.3-5.3 6.8-9.5" fill="#f1db18"/><path id="path87" d="M61.2 519.4c5 .6 12.4 2 13 8.2l-5.7 1.2q-3.5-4.7-7.3-9.4" fill="#041d65"/><path id="path88" d="M716 532.6a37 37 0 0 0 26-9.1l3.6 4a36 36 0 0 0-10 8.2c-3.7 5.1-2.7 13.3 2.6 17 7.1 5.2 16.5 4.8 24 9 6 3 5.2 12.3.7 16.2-7.3 5.3-17.4 4-24.6 9.5-6.8 5.2-8.7 14.3-14.8 20a25 25 0 0 1-9.7 5.1 31 31 0 0 0-7-27.9c-2.5 10.2-3.5 21.5-10.5 29.9-5.3 5.9-13.5 7.8-21.1 8 3.7-7 6.8-14.5 7.8-22.5a75 75 0 0 0-.3-15.6c-8.6 11.9-17.4 24.3-30 32.4q-7.1 4.6-15.6 6.5a76 76 0 0 0 5-33.4q-5.2 6-9.6 12.6-3.1 4.4-8.5 6a22 22 0 0 1-2.5-8.3h-4.7a19 19 0 0 0 4.1 11.7c-5.8 5.5-14.4 6.3-22 4.9-3.4-.9-7.3-2.3-9-5.8-1.4-2.6-.7-5.9.7-8.4 2.4-2.3 5.8-3.2 9-4.3l-1-4.7a28 28 0 0 0-10.3 4.7c-2.6 2-4.1 5.3-7 7-8 5.3-17.7 7.7-27.2 7-3.6-.3-7.6-1.6-9.7-4.7-2.3-4-.6-8.6.7-12.5 12.9-.4 25.8-.2 38.8-.4V590h-43c-5.4-.3-11.5-1.2-15.3-5.5-3.3-4.3-1.1-10.1 2.4-13.6 8.5-.5 15.7 5 24.1 5.3 8.5.8 17.1.3 25.6-.3l-.4-4.8q-12.8 1.2-25.4.2c.7-3.8 2-7.7 5-10.3 3.2-2.9 8.1-2.4 11.7-.6a45 45 0 0 1 15.8 15.5c21.3-.1 42.7-.7 63.6-4.8 13-2.6 25.8-6.7 37.2-13.7-9.3-3.7-19.8-7-26-15.5a27 27 0 0 1-4.4-17c20.7-.2 40.5 7.5 61.2 7.7" fill="#f1db18"/><path id="path89" d="M22.8 531c5.7-5.1 15-6.5 21-1l-6.5 6c-4.7-2-9.7-3.3-14.5-5" fill="#041d65"/><path id="path90" d="M64.8 536.2c4.2-2.8 8.8-6.6 14.2-5.7 3.7 1.4 4 6.1 4 9.5a32 32 0 0 0 13 24 72 72 0 0 0 41 15.1c33.6 5.6 68.2 3.7 101.3-3.8 2.1 7.5 8.5 14.6 16.7 14.7 5 .1 9-3.4 12-7 2.7 5.6 5.7 11.6 11.4 14.6 3 1.1 6.5.8 9.2-1 5.6-3.4 9.2-9.2 12.7-14.7 2.5 3.1 6 5.8 7 9.9a48 48 0 0 1 .9 18.4 34 34 0 0 1-23-6.8c-2.2 4.1-4.4 8.6-8.3 11.5a34 34 0 0 1-15.8 4.8 74 74 0 0 0-2.4-16c-4 6.7-9.4 13-16.8 16.2a38 38 0 0 1-18 3.4c.8-3 1.6-6 1.3-9.2-.3-4.8-2.4-9-4.3-13.3-4.3 7.3-9.3 15-17.3 18.8q-6 2.9-12.9 3.4c.8-3.7 1.7-7.4 1.2-11.1-.4-3.5-2-6.7-3.3-9.9-3.2 5.4-6.7 11-12.2 14.4-6.5 4.2-14.4 4.9-22 6 1.6-3.7 3.3-7.4 3.5-11.4q0-4.5-1.3-8.7c-12.1 9.5-27.4 16.6-43.2 13.7 3.2-2.3 6.5-4.6 8.9-7.8a30 30 0 0 0 4.8-10.6 51 51 0 0 1-21 6.7c-3.3.1-7.2-.4-9.1-3.3-1.5-2.3-.7-5.1-.2-7.6l-3.6-1.4c-1.4 4.4-4 9.1-8.7 10.5-7.7 2.5-16.1-2.9-17.9-10.6 5.2-1.9 10.8-2.4 16.3-3l-.3-3.6q-9.8.5-19.1 3.8c-8.8 3-20-1.8-22.2-11.1-1.5-6-.1-12.3 2.4-17.8 16 1.9 26 17.4 41.8 19.9l.5-3.7c-13.4-2.3-22.4-13.9-35-18.3-3.6-1.5-8.5-.3-10.9-4.1-4.8-7-.9-17 6-21 4.1-2.5 9.4-1 12.6 2.3l25.7 26.1L87 559z" fill="#f1db18"/><path id="path91" d="M277 533.2q6.9-.2 13.1-2.7 5 6 11.5 10.3a41 41 0 0 1-13.3 19.6q-7.4 5.3-16 8.7c1.9-11.9 4.8-23.8 4.7-35.9" fill="#041d65"/><path id="path92" d="M266 553.5c4.7-6 5.5-13.7 6.6-20.9.6 7-1 14-1.2 21z" fill="#ce142c"/><path id="path93" d="M294.4 560.6c2.5-1.4 2.6-4.7 4.6-6.4-.9 2.7-.9 5.5-.9 8.3l-1.6-.1z" fill="#ce142c"/><path id="path94" d="M539 557.7a26 26 0 0 1 15.4-1q-2 2.5-4.4 4.8c-3.8-.6-7.3-2.8-11-3.8" fill="#041d65"/><path id="path95" d="M21.7 574.5a56 56 0 0 1 16-8.3q0 4.2-1 8.3c-5-.5-10-.2-15 0" fill="#041d65"/><path id="path96" d="M510.6 571.7c3.5-1.3 7.4-1 11-1.2q-1.7 4.7-2.4 9.7c-6.8-.3-13.6-.2-20.1 1.3a21 21 0 0 1 11.5-9.8" fill="#041d65"/><path id="path97" d="M1111.8 575.2c6.8.2 13.6-.2 20.3.3-4.2 5-11 5.7-17 5.8l-1 2.5-.3-1.7q-.8-3.5-2-7" fill="#041d65"/><path id="path98" d="M1012.7 595.2q4.2 2.2 8.7 3.5c-4.8 4.4-10.3 8.1-14.2 13.4-1.2 1.4-2.1 3.3-4 4-.7-4-1.7-8.5.7-12.1 2.1-3.7 6.2-5.5 8.8-8.8" fill="#041d65"/><path id="path99" d="M522 614.8c2.8-6.5 9.6-10.6 16.5-11.8l1.4 7.4c-6.1.8-12 3-18 4.4" fill="#041d65"/><path id="path100" d="M69.1 616.3q.7-6 2.3-12l7.8 2.5q-4.6 5.3-10 9.5" fill="#041d65"/><path id="path101" d="M1098.7 610.9c1.9-1.5 4.1-2.3 6.3-3.3q4.8 5.6 11.3 9c-5.4 1.6-11.8 2.1-16.5-1.5a3 3 0 0 1-1.1-4.3" fill="#041d65"/><path id="path102" d="M1041.6 618.6c.9-3 3.3-5.2 5.2-7.5l2.2 1q2.8 1.2 5.8 2.1c-4 5.6-8.8 10.8-12.3 16.8a21 21 0 0 1-.9-12.4" fill="#041d65"/><path id="path103" d="m595.3 621 9.8 1.4a38 38 0 0 1-13.1 8.7l3.3-10" fill="#041d65"/></g><!-- app4joy --></svg>