<svg viewBox="0 0 259.292 166.687" width="259.292mm" height="166.687mm" xmlns="http://www.w3.org/2000/svg"><g><path id="blue" fill="#3B3481" d="M0 0h259.3v166.7H0z"/><path id="white" fill="white" d="M0 55.6h259.3v55.5H0z"/></g><g id="sun"><g id="_16rays"><g id="_8rays"><g id="_4rays"><g id="_2rays"><path id="path11" fill="#DA251D" stroke="#843511" stroke-width="0.2137" d="m128.5 83.3.9 21.8s0 .5.2.5.3-.5.3-.5l.9-21.8m-2.3 0z"/><path id="path13" fill="#843511" d="m129 83.3.6 15 .6-15m-1.1 0"/><g id="g15"><path id="path17" fill="#DA251D" stroke="#843511" stroke-width="0.2137" d="M127.6 90.4c-1.3 2.7-.2 5-1.5 7.3-1.2 2.4-.4 4.5-.5 5.5 0 1.1-1 1.4-.8 1.7.3.3 1.2-.3 1.6-1.7.4-1.5-.5-2.3 1-5.2s.3-4.3 1.8-6.9m-1.6-.7z"/><path id="path19" fill="#843511" d="M128 91.1c-1 2.7 0 4.6-1.3 6.9 1.5-1.7.5-3.8 1.7-6.6m-.5-.3"/></g></g><g id="g3960"><g id="g3962"><path id="_65624120" fill="#DA251D" stroke="#843511" stroke-width="0.2137" d="m130.8 83.3-.9-21.8q0-.2-.3-.4l-.2.4-.9 21.8m2.3 0z"/><path id="_65624048" fill="#843511" d="m130.2 83.3-.6-15-.5 15m1.1 0"/><g id="g3966"><path id="_65623976" fill="#DA251D" stroke="#843511" stroke-width="0.2137" d="M131.7 76.3c1.3-2.7.2-5 1.5-7.4 1.2-2.3.4-4.4.5-5.5s1-1.3.8-1.6c-.3-.3-1.2.3-1.6 1.7-.4 1.5.5 2.3-1 5.2s-.3 4.3-1.8 6.9m1.6.7z"/><path id="_65623904" fill="#843511" d="M131.4 75.6c1-2.8-.1-4.6 1.2-7-1.5 1.8-.5 4-1.8 6.7m.6.3"/></g></g></g></g><g id="g3970"><g id="g3972"><g id="g3974"><path id="_65623688" fill="#DA251D" stroke="#843511" stroke-width="0.2137" d="m129.6 82.2-21.8.9s-.4 0-.4.2.4.3.4.3l21.8.9m0-2.3z"/><path id="_65623616" fill="#843511" d="m129.6 82.8-15 .5 15 .6m0-1.1"/><g id="g3978"><path id="_65623544" fill="#DA251D" stroke="#843511" stroke-width="0.2137" d="M122.6 81.3c-2.7-1.3-5-.2-7.4-1.5-2.3-1.2-4.4-.4-5.4-.5-1.1 0-1.4-1-1.7-.8-.3.3.3 1.2 1.7 1.6 1.5.4 2.3-.5 5.2 1s4.3.3 6.9 1.8m.7-1.6z"/><path id="_65623472" fill="#843511" d="M121.9 81.6c-2.8-1-4.6.1-7-1.2 1.8 1.5 4 .4 6.7 1.7m.3-.5"/></g></g><g id="g3982"><g id="g3984"><path id="_65623352" fill="#DA251D" stroke="#843511" stroke-width="0.2137" d="m129.6 84.5 21.8-.9s.5 0 .5-.3-.5-.2-.5-.2l-21.8-.9m0 2.3z"/><path id="_65623280" fill="#843511" d="m129.6 84 15-.7-15-.5m0 1.1"/><g id="g3988"><path id="_65623208" fill="#DA251D" stroke="#843511" stroke-width="0.2137" d="M136.7 85.4c2.7 1.3 5 .2 7.4 1.5 2.3 1.2 4.4.4 5.4.5 1.1 0 1.4 1 1.7.8.3-.3-.3-1.3-1.7-1.6-1.5-.4-2.3.5-5.2-1s-4.3-.3-6.9-1.8m-.7 1.6z"/><path id="_65623136" fill="#843511" d="M137.4 85c2.7 1 4.6 0 7 1.3-1.8-1.5-4-.5-6.7-1.8m-.3.6"/></g></g></g></g></g></g><g id="g3992"><g id="g3994"><g id="g3996"><g id="g3998"><path id="_65622872" fill="#DA251D" stroke="#843511" stroke-width="0.2137" d="m128.8 82.5-14.8 16s-.3.4 0 .6q.3.1.4-.1l16-14.9m-1.6-1.6z"/><path id="_65622800" fill="#843511" d="m129.2 83-10.1 11 11-10.3m-.9-.8"/><g id="g4002"><path id="_65622728" fill="#DA251D" stroke="#843511" stroke-width="0.2137" d="M123.2 86.9c-2.9 1-3.7 3.4-6.2 4.1-2.6.8-3.5 2.8-4.3 3.5s-1.7.3-1.7.7 1 .7 2.3-.1 1.3-2 4.4-3 3.2-2.8 6.2-3.6m-.7-1.6z"/><path id="_65622656" fill="#843511" d="M123 87.6c-2.7 1.2-3.2 3.3-5.8 4 2.3-.2 3-2.4 6-3.4m-.3-.6"/></g></g><g id="g4006"><g id="g4008"><path id="_65622536" fill="#DA251D" stroke="#843511" stroke-width="0.2137" d="m130.5 84.1 14.8-16s.3-.3 0-.5q-.3-.1-.4.1l-16 14.8m1.6 1.6z"/><path id="_65622464" fill="#843511" d="m130 83.7 10.2-11-11 10.2m.8.8"/><g id="g4012"><path id="_65622392" fill="#DA251D" stroke="#843511" stroke-width="0.2137" d="M136.1 79.8c2.8-1 3.6-3.4 6.2-4.2 2.6-.7 3.5-2.8 4.3-3.5s1.7-.2 1.7-.6-1-.7-2.3.1-1.3 2-4.4 3-3.2 2.8-6.2 3.5m.7 1.7z"/><path id="_65622320" fill="#843511" d="M136.4 79c2.6-1.2 3.1-3.2 5.7-4-2.3.2-3 2.4-6 3.5m.3.6"/></g></g></g></g><g id="g4016"><g id="g4018"><g id="g4020"><path id="_65622152" fill="#DA251D" stroke="#843511" stroke-width="0.2137" d="m130.5 82.5-16-14.8s-.4-.3-.6 0q-.1.3.1.4l14.8 16m1.7-1.6z"/><path id="_65622080" fill="#843511" d="m130 83-11-10.2 10.2 11m.8-.9"/><g id="g4024"><path id="_65622008" fill="#DA251D" stroke="#843511" stroke-width="0.2137" d="M126.1 76.9c-1-2.9-3.4-3.7-4.2-6.2-.7-2.6-2.8-3.5-3.5-4.3s-.2-1.7-.6-1.7-.7 1 .1 2.3 2 1.3 3 4.4 2.8 3.2 3.5 6.2m1.7-.7z"/><path id="_65621936" fill="#843511" d="M125.4 76.6c-1.3-2.6-3.3-3.1-4-5.7.1 2.3 2.3 3 3.4 6m.6-.3"/></g></g><g id="g4028"><g id="g4030"><path id="_65621816" fill="#DA251D" stroke="#843511" stroke-width="0.2137" d="m128.8 84.1 16 14.9s.4.3.6 0q.1-.3-.1-.4l-14.8-16m-1.7 1.5z"/><path id="_65621744" fill="#843511" d="m129.2 83.7 11 10.2L130 83m-.8.8"/><g id="g4034"><path id="_65621672" fill="#DA251D" stroke="#843511" stroke-width="0.2137" d="M133.2 89.8c1 2.8 3.4 3.6 4.1 6.2.8 2.6 2.8 3.5 3.6 4.3.7.8.2 1.7.6 1.7s.7-1-.1-2.3-2-1.3-3-4.4-2.8-3.2-3.6-6.2m-1.6.7z"/><path id="_65621600" fill="#843511" d="M134 90c1.1 2.7 3.2 3.2 3.9 5.8-.1-2.3-2.4-3-3.4-6m-.6.3"/></g></g></g></g></g></g></g></g><path fill="#DA251D" stroke="#843511" stroke-width="0.2137" d="m128.6 83-7.6 20.4q-.1.2.1.5l.5-.3 9.1-19.8m-2.1-.9Z" id="path4038"/><path fill="#843511" d="m129.1 83.1-5.2 14 6.3-13.5m-1-.5" id="path4040"/><path fill="#DA251D" stroke="#843511" stroke-width="0.2137" d="M125 89c-2.2 2-2 4.6-4.1 6.3s-2.1 4-2.6 4.9-1.5.9-1.4 1.2 1.3.2 2.2-1 .3-2.3 2.9-4.4c2.5-2 1.9-3.8 4.3-5.6M125 89Z" id="path4042"/><path fill="#843511" d="M125 89.9c-1.9 2.1-1.6 4.2-3.7 5.8 2-1 1.9-3.3 4.2-5.4m-.4-.4" id="path4044"/><path fill="#DA251D" stroke="#843511" stroke-width="0.2137" d="m130.7 83.8 7.6-20.5q.1-.2-.1-.5c-.3-.1-.5.3-.5.3l-9.1 19.8m2.1.9Z" id="path4046"/><path fill="#843511" d="m130.2 83.6 5.2-14L129 83m1 .5" id="path4048"/><path fill="#DA251D" stroke="#843511" stroke-width="0.2137" d="M134.3 77.6c2.2-2 2-4.5 4.1-6.2s2.1-4 2.6-4.9 1.5-.9 1.3-1.2c0-.4-1.2-.2-2 1-1 1.2-.4 2.3-3 4.4-2.5 2-1.9 3.8-4.3 5.6m1.3 1.3Z" id="path4050"/><path fill="#843511" d="M134.2 76.8c2-2.1 1.7-4.2 3.8-5.9-2 1-1.9 3.4-4.2 5.5m.4.4" id="path4052"/><path fill="#DA251D" stroke="#843511" stroke-width="0.2137" d="m130 82.3-20.4-7.6q-.2-.1-.5.1c-.1.3.3.5.3.5l19.8 9.1m.9-2.1Z" id="path4054"/><path fill="#843511" d="m129.9 82.8-14-5.2 13.5 6.3m.5-1" id="path4056"/><path fill="#DA251D" stroke="#843511" stroke-width="0.2137" d="M124 78.7c-2.1-2.2-4.6-2-6.3-4.1s-4-2.1-4.9-2.6-.9-1.5-1.2-1.4c-.4.2-.2 1.3 1 2.2s2.3.3 4.4 2.8c2 2.6 3.8 2 5.6 4.4m1.3-1.3Z" id="path4058"/><path fill="#843511" d="M123.1 78.8c-2.1-2-4.2-1.7-5.9-3.8 1 2 3.4 1.9 5.5 4.2m.4-.4" id="path4060"/><path fill="#DA251D" stroke="#843511" stroke-width="0.2137" d="m129.2 84.4 20.5 7.5q.2.2.5 0l-.3-.5-19.9-9.1m-.9 2.1Z" id="path4062"/><path fill="#843511" d="m129.4 83.9 14 5.2-13.5-6.3m-.5 1" id="path4064"/><path fill="#DA251D" stroke="#843511" stroke-width="0.2137" d="M135.4 88c2 2.2 4.5 2 6.2 4.1s4 2.1 4.9 2.6.9 1.5 1.2 1.3c.4 0 .2-1.2-1-2-1.2-1-2.3-.4-4.4-3-2-2.5-3.8-1.9-5.6-4.3m-1.3 1.3Z" id="path4066"/><path fill="#843511" d="M136.2 88c2.1 1.9 4.2 1.6 5.8 3.7-1-2-3.3-2-5.4-4.2m-.4.4" id="path4068"/><path fill="#DA251D" stroke="#843511" stroke-width="0.2137" d="m129.2 82.3-19.8 9.1s-.4.2-.3.4q.3.3.5.1l20.5-7.5m-.9-2.1Z" id="path4070"/><path fill="#843511" d="m129.4 82.8-13.6 6.3 14-5.2m-.4-1" id="path4072"/><path fill="#DA251D" stroke="#843511" stroke-width="0.2137" d="M122.3 84.1c-3-.1-4.6 1.8-7.3 1.5s-4.3 1.3-5.3 1.6-1.7-.4-1.8 0c-.2.3.7 1 2.2.7 1.5-.2 1.9-1.3 5.1-1 3.3.3 4.1-1.4 7.1-1m0-1.8Z" id="path4074"/><path fill="#843511" d="M121.8 84.7c-2.9.1-4.2 1.8-6.8 1.5 2.1.7 3.7-1 6.8-.9m0-.6" id="path4076"/><path fill="#DA251D" stroke="#843511" stroke-width="0.2137" d="m130 84.4 19.9-9.1s.4-.2.3-.5q-.3-.2-.5 0l-20.5 7.5m.9 2.1Z" id="path4078"/><path fill="#843511" d="m129.9 83.9 13.6-6.3-14 5.2m.4 1" id="path4080"/><path fill="#DA251D" stroke="#843511" stroke-width="0.2137" d="M137 82.6c3 .1 4.6-1.8 7.3-1.5s4.3-1.3 5.3-1.6 1.6.4 1.8 0c.2-.3-.7-1-2.2-.8-1.5.3-1.9 1.4-5.1 1.1-3.3-.3-4.1 1.4-7.1 1m0 1.8Z" id="path4082"/><path fill="#843511" d="M137.5 82c2.9-.2 4.2-1.9 6.8-1.5-2.1-.7-3.7 1-6.8.9m0 .6" id="path4084"/><path fill="#DA251D" stroke="#843511" stroke-width="0.2137" d="m130.7 83-9.1-20s-.2-.4-.5-.3q-.2.3 0 .5l7.5 20.5m2.1-.9Z" id="path4086"/><path fill="#843511" d="m130.2 83.1-6.3-13.6 5.2 14m1-.4" id="path4088"/><path fill="#DA251D" stroke="#843511" stroke-width="0.2137" d="M128.9 76c.1-3-1.8-4.6-1.5-7.3s-1.3-4.3-1.6-5.3.4-1.7 0-1.8c-.3-.2-1 .7-.8 2.2.3 1.5 1.4 1.9 1.1 5.1-.3 3.3 1.4 4.1 1 7.1m1.8 0Z" id="path4090"/><path fill="#843511" d="M128.3 75.5c-.2-2.9-1.9-4.2-1.5-6.8-.7 2.1 1 3.7.9 6.8m.6 0" id="path4092"/><path fill="#DA251D" stroke="#843511" stroke-width="0.2137" d="m128.6 83.8 9.1 19.8s.2.4.5.3v-.5l-7.5-20.5m-2.1.9Z" id="path4094"/><path fill="#843511" d="m129.1 83.6 6.3 13.6-5.2-14m-1 .4" id="path4096"/><path fill="#DA251D" stroke="#843511" stroke-width="0.2137" d="M130.4 90.7c-.1 3 1.8 4.6 1.5 7.3s1.3 4.3 1.6 5.3-.4 1.6 0 1.8c.3.2 1-.7.7-2.2-.2-1.5-1.3-1.9-1-5.1.3-3.3-1.4-4.1-1-7.1m-1.8 0Z" id="path4098"/><path fill="#843511" d="M131 91.2c.2 2.9 1.8 4.1 1.5 6.8.7-2.1-1-3.7-.9-6.8m-.6 0" id="path4100"/><circle id="circle29" fill="#DA251D" stroke="#843511" stroke-width="0.1425" cx="129.646" cy="83.343" r="8.548"/><g id="face_right" fill="#843511"><path id="path32" d="M135.5 81.3c-1.7-1.4-3.7-1.6-4.9-.5q-1.2 1.6.3 3.8l-.3.1a5 5 0 0 1-.4-4c1.6-1.3 3.7-1.5 5.3.6"/><path id="path34" d="M133 81c-1 0-1.2.1-1.6.5q-.7.4-.8.3 0 .2.2.3l.8-.6q.7-.5 1.3-.4c1.3 0 2 1.1 2.2 1 .1 0-.8-1.2-2.2-1.2"/><path id="path36" d="M134.6 82.1c-1-1-2.7-1-3.4.1h.3c.7-1.1 2.4-.6 2.6-.1v.1m.5 0"/><circle id="circle38" cx="132.78" cy="82.0613" r="0.6411"/><path id="path40" d="M131.2 82.2c.7.6 2.3.7 3.4 0l-.5-.1a2 2 0 0 1-2.6.1v-.1m-.3.1"/><path id="path42" d="M134.6 82.5c-1.2 1-2.4.8-3.1.4q-.9-.6-.6-.6l.9.5q.8.5 2.8-.3"/><path id="path44" d="M131.1 84.6a.4.4 0 1 1-.5.5q-.1.3-1 .5h-.1l.1.2.9-.2a.6.6 0 1 0 .6-1"/><path id="path46" d="M132 87.6c-.6-.4-1-1-1.6-1l-.8.2h-.1l.1.2c.3 0 .8-.4 1.3 0z"/><path id="path48" d="M131.8 87.6c-1.4-.4-1.7-.1-2.2-.1h-.1l.1.3c.6 0 .9-.5 2.2-.2"/><path id="path50" d="M132 87.6c-1.6-.1-1 .8-2.4.8h-.1l.1.2c1.6 0 .9-.8 2.4-1"/><path id="path52" d="M131 89.9a1.3 1.3 0 0 0-2.6 0 1.3 1.3 0 0 1 2.5 0"/></g><g id="_65567520"><g id="g4116" fill="#843511"><path id="_65617472" d="M123.8 81.3c1.6-1.4 3.7-1.6 4.8-.5q1.3 1.6-.2 3.8l.3.1q1.1-2.2.4-4c-1.6-1.3-3.7-1.5-5.3.6"/><path id="_65617400" d="M126.4 81c.9 0 1.1.1 1.5.5l.7.3v.3l-1-.6q-.6-.5-1.2-.4c-1.3 0-2 1.1-2.2 1-.1 0 .7-1.2 2.2-1.2"/><path id="_65617328" d="M124.7 82.1c1-1 2.7-1 3.4.1h-.3c-.7-1.1-2.4-.6-2.6-.1v.1m-.5 0"/><circle id="_65617256" cx="126.512" cy="82.0613" r="0.6411"/><path id="_65617184" d="M128 82.2c-.6.6-2.2.7-3.3 0l.5-.1a2 2 0 0 0 2.6.1v-.1m.3.1"/><path id="_65617112" d="M124.7 82.5c1.2 1 2.4.8 3 .4q1-.6.7-.6l-.9.5q-.8.5-2.8-.3"/><path id="_65617040" d="M128.2 84.6a.4.4 0 1 0 .5.5q0 .3 1 .5v.2l-1-.2a.6.6 0 1 1-.6-1"/><path id="_65567784" d="M127.3 87.6c.6-.4 1-1 1.6-1l.7.2h.2l-.2.2c-.2 0-.7-.4-1.2 0z"/><path id="_65567712" d="M127.5 87.6c1.4-.4 1.7-.1 2.1-.1h.2l-.2.3c-.5 0-.8-.5-2-.2"/><path id="_65567640" d="M127.3 87.6c1.6-.1 1 .8 2.3.8h.2l-.2.2c-1.5 0-.8-.8-2.3-1"/><path id="_65567568" d="M128.4 89.9a1.3 1.3 0 0 1 2.5 0 1.3 1.3 0 0 0-2.5 0"/></g></g></g><g id="tlhat"><path id="path18218" fill="#843511" d="M24 34.8c2.5-3.6 5.5-7 9.9-9.9 20.5-8.2-21.6 32.1-10 9.9"/><path id="path14425" fill="#DA251D" d="M23.8 11.8c.2.5 1 .7.5 1.7-1 1.5-1.5 1.5-2.5 2 .8 0 2.9.8 5 1.5 2.4.6 3.8 1.6 2.8 2-3.5 6-9.2 9.9-13.7 14.8-5.2-8.5-11.5-20-.3-23 2.6-.6 5-1.4 8.2 1"/><path id="path7227" fill="#843811" d="M24.4 13.4a3 3 0 0 1-2.4 2 10 10 0 0 0-7.2 1.8c1-1.4 1.7-3.5 6-2.7q1.4-1 3.6-1.1"/><path id="path7229" fill="#843511" d="M24.9 18.7c3.6-.9-3.6 1.6-7.3 6.5-.1-2.3 0-4.6 7.3-6.5"/><path id="path7231" fill="#DA251D" d="m23.4 12 1 1.1c2.3 2 5 1.3 5.2-.8-.9-3-4.8-1.5-6.2-.4"/><path id="path13382" fill="#DE251D" d="m39.5 24.4-5.7-6c-1.6-.8-3-.4-4.2.4Q22 24 16.3 32.4q-1.2 2-.4 3.9c1.9 1.3 4.6 5.4 7 5.3l-.4-.3c1.2-8.5 11.6-16.8 17-17"/></g><g id="trhat"><path id="path18218_0" fill="#843511" d="M235 34.8c-2.5-3.6-5.5-7-9.9-9.9-20.5-8.2 21.6 32.1 10 9.9"/><path id="path14425_1" fill="#DA251D" d="M235.2 11.8c-.2.5-1 .7-.5 1.7 1 1.5 1.5 1.5 2.4 2-.7 0-2.8.8-4.9 1.5-2.4.6-3.8 1.6-2.8 2 3.5 6 9.2 9.9 13.7 14.8 5.2-8.5 11.5-20 .3-23-2.6-.6-5-1.4-8.2 1"/><path id="path7227_2" fill="#843811" d="M234.6 13.4a3 3 0 0 0 2.4 2 10 10 0 0 1 7.2 1.8c-1-1.4-1.7-3.5-6-2.7q-1.4-1-3.6-1.1"/><path id="path7229_3" fill="#843511" d="M234.1 18.7c-3.6-.9 3.6 1.6 7.3 6.5 0-2.3 0-4.6-7.3-6.5"/><path id="path7231_4" fill="#DA251D" d="m235.6 12-1 1.1c-2.3 2-5 1.3-5.2-.8.9-3 4.8-1.5 6.2-.4"/><path id="path13382_5" fill="#DE251D" d="m219.5 24.4 5.7-6c1.6-.8 3-.4 4.2.4q7.5 5.1 13.3 13.6c.7 1.3 1.1 2.6.4 3.9-1.9 1.3-4.6 5.4-7 5.3l.4-.3c-1.2-8.5-11.6-16.8-17-17"/></g><g id="brhat"><path id="path18218_6" fill="#843511" d="M235 131.6c-2.5 3.5-5.5 7-9.9 9.8-20.5 8.2 21.6-32 10-9.8"/><path id="path14425_7" fill="#DA251D" d="M235.2 154.6c-.2-.6-1-.8-.5-1.8 1-1.5 1.5-1.4 2.4-1.9-.7-.2-2.8-.8-4.9-1.6-2.4-.5-3.8-1.6-2.8-2 3.5-6 9.2-9.8 13.7-14.8 5.2 8.5 11.5 20 .3 23.1-2.6.5-5 1.3-8.2-1"/><path id="path7227_8" fill="#843811" d="M234.6 153a3 3 0 0 1 2.4-2.1 10 10 0 0 0 7.2-1.7c-1 1.4-1.7 3.4-6 2.6q-1.4.9-3.6 1.2"/><path id="path7229_9" fill="#843511" d="M234.1 147.7c-3.6.8 3.6-1.7 7.3-6.5 0 2.3 0 4.5-7.3 6.5"/><path id="path7231_10" fill="#DA251D" d="m235.6 154.4-1-1.2c-2.3-2-5-1.2-5.2.9.9 2.8 4.8 1.5 6.2.3"/><path id="path13382_11" fill="#DE251D" d="m219.5 142 5.7 6q2.4.9 4.2-.5 7.5-5.2 13.3-13.5c.7-1.3 1.1-2.6.4-4-1.9-1.2-4.6-5.4-7-5.3q.3.1.4.4c-1.2 8.5-11.6 16.7-17 16.9"/></g><g id="blhat"><path id="path18218_12" fill="#843511" d="M24 132.1c2.5 3.6 5.5 7 9.9 9.9 20.5 8.2-21.6-32.1-10-9.9"/><path id="path14425_13" fill="#DA251D" d="M23.8 155.2c.2-.6 1-.8.5-1.8-1-1.5-1.5-1.5-2.5-1.9l5-1.6c2.4-.6 3.8-1.6 2.8-2-3.5-6-9.2-9.8-13.7-14.8-5.2 8.5-11.5 20-.3 23.1 2.6.5 5 1.3 8.2-1"/><path id="path7227_14" fill="#843811" d="M24.4 153.5a3 3 0 0 0-2.4-2 10 10 0 0 1-7.2-1.8c1 1.5 1.7 3.5 6 2.7q1.4 1 3.6 1.1"/><path id="path7229_15" fill="#843511" d="M24.9 148.3c3.6.8-3.6-1.7-7.3-6.6-.1 2.4 0 4.6 7.3 6.6"/><path id="path7231_16" fill="#DA251D" d="m23.4 155 1-1.2c2.3-2 5-1.2 5.2.9-.9 2.8-4.8 1.4-6.2.3"/><path id="path13382_17" fill="#DE251D" d="m39.5 142.6-5.7 6q-2.4.9-4.2-.5-7.5-5.2-13.3-13.5c-.7-1.3-1.1-2.7-.4-4 1.9-1.2 4.6-5.4 7-5.3q-.3.1-.4.4c1.2 8.5 11.6 16.7 17 16.9"/></g><!-- app4joy --></svg>