<svg width="648" height="432" viewBox="0 0 648 432" id="svg19" xmlns:xlink="http://www.w3.org/1999/xlink" xmlns="http://www.w3.org/2000/svg"><g id="g20"><path d="M0 0h648v432H0z" fill="#d81e05" id="path1"/><path d="M0 0h648v288H0z" fill="#fff" id="path2"/><path d="M324 288h324v144H324z" fill="#008d46" id="path3"/><path d="M0 0h648v144H0z" fill="#d81e05" id="path4"/></g><g id="g19" display="inline"><use transform="translate(313)" xlink:href="#a" id="use4"/><path id="a" d="m233.9 282-66.5 4.9L101 282V150h132.9z" fill="#d81e05"/><path id="b" d="M98 147v127.2c0 5.3 2.9 10.8 9.5 10.8h53a3 3 0 0 1 2.2 1l4.8 5.4 4.7-5.4a3 3 0 0 1 2.3-1h53c6.5 0 9.4-5.5 9.4-10.8V147z" fill="none" stroke="#ffcc00" stroke-width="6"/><path d="M512.4 252a42 42 0 0 0-6.3 6l-2.3-2c-1.6-1.6-5.2-1.6-7.4-.5-6.5 3.3-10.2 11.3-12 18.3l-3.3 12.4 64.8-1.8 3.6-10.1 1.3-.5s-5.5-15-12-18.3c-2.2-1.1-5.8-1.1-7.5.4l-2.2 2.2q-2.9-3.4-6.4-6.1z" fill="#008d46" id="path5"/><g fill="none" stroke="#ffffff" id="g7"><path d="M500.7 183.3h34.2m-17 63v-80.1m-21.3 35H539" stroke-width="6" id="path6"/><path d="M512.8 165.6h10m13 12.6v10.1m-36-10.5v10.4m40 8v10.1m-44-10v10" stroke-width="3" id="path7"/></g><path d="M512.6 246h10.1v6h-10.1z" fill="#ffcc00" id="path8"/><path d="m514.3 246.8-2.8-2.1m6.3 2.1v-3.2m3.8 3.2 2.1-2.1" fill="none" stroke="#ffcc00" id="path9"/><path d="m411.3 117.1.3-16.4 15.9 21.5 2.3-32.2 15.6 23.8 5.1-26.3 8.2 17.8a32 32 0 0 1 17.5-23.9V63.5l10.3-.3v18.3s12 4 16.8 23.6l9.4-18.9 4.2 30 15-26.7 4.1 33 13.2-21.4 2.2 18-12.8 25.1s-23.6-12-37.6-12h-37.6a69 69 0 0 0-37.5 12z" fill="#ffcc00" id="path10"/><g fill="none" stroke="#ffcc00" stroke-width="4" id="g13"><path d="m425.6 144.1-23.6-42c-2-1.8-.1-13.6-.1-13.6-.4-9.3 23.6-17.5 32-20.1a312 312 0 0 1 48-6.7c5.5 0 39.8 3.5 46 6.7 0 0 26.4 8.2 33 20 0 0 2 12 .6 13.7l-22.7 42" id="path11"/><path d="m482.4 61-16-25.8" id="path12"/><path d="m464.4 47 12.7-9" id="path13"/></g><path d="M168.4 59V47.9h6.3V46h-6.3v-8h-1.8v8h-6.4v1.8h6.4v11.3c-1.1 2-3 6.3-5.1 7.7-3 2-7.7 2-15.6 1-8.8-1-15.6-4.7-22.3-3.6-5.8 1-10 8-10 8 .1-.1-26-3.2-28.4 19.7a27 27 0 0 0 5.6 18s-5.9 0-7 4 3.6 7 7.2 7c3.5 0 7.8-.4 13 6 5.4 6.3 8.6 19.2 8.6 19.2s8.9-6.5 25.5-11.3 42.2-4.9 58.8 0a88 88 0 0 1 25.4 11.4s3.3-13 8.6-19.4 9.6-5.9 13.1-5.9c3.6 0 8.1-3 7-7-1-3.9-6.8-4-6.8-4s6.6-8 5.6-18C247.4 69 221.3 72 221.5 72c0 0-4.3-7-10-8-6.8-1-13.6 2.7-22.4 3.7-7.9 1-12.7 1-15.6-1-2-1.4-4-5.6-5.1-7.7" fill="#ffcc00" id="path14"/><ellipse cx="167.39999" cy="97.07" fill="#d81e05" rx="4.8000002" ry="6.5599999" id="ellipse14"/><ellipse cx="167.39999" cy="121.7" fill="#d81e05" rx="7.3299999" ry="4.9299998" id="ellipse15"/><g id="c"><path d="M161.7 109.2c-1.2 4.2-5 5-8.5 1.8a15 15 0 0 1-4-13.5c1.2-4.3 5-5 8.5-1.8a15 15 0 0 1 4 13.5m-17-.2c-2.2 4.2-6.2 5-9 1.8s-3.2-9.3-1-13.5c2-4.2 6-5 8.8-1.8s3.3 9.3 1.2 13.5m-21.8 3.7c-.7 2.2-3.1 2.6-5.5.9-2.3-1.7-3.7-4.9-3.1-7.1s3-2.7 5.4-1 3.8 5 3.2 7.1m-10 5.6c-.5 2.2-3 2.6-5.3.9-2.4-1.7-3.8-4.9-3.2-7v-.1c.7-2.2 3.1-2.6 5.5-1 2.3 1.8 3.7 5 3.1 7.2m17-11.5c-1.5 2.2-4.3 2-6.4-.6-2-2.6-2.5-6.4-1-8.6 1.4-2.3 4.2-2 6.3.5 2 2.6 2.5 6.4 1 8.7m-29 11.2c-.7 2.4-3.5 2.9-6.2 1-2.7-2-4.4-5.5-3.6-8 .7-2.5 3.5-3 6.2-1 2.7 1.9 4.4 5.5 3.6 8m18.5-22.5c-.2 2.4-6.8 6-10.1 7.6a18 18 0 0 1-12 1.5c-4.3-1.1-7.8-12.1-4.3-19.2 3.5-7.3 15.6-8.1 19.6-6.2 2.2 1 7 13.9 6.8 16.3m44-10.1c-2 4-17.2 10-23.5 10.3-6.4.5-10.6-3.4-10.6-3.4-4.8-6.9-10.5-17.8-5.4-21 5-3.3 16.9 2 28.6 2 6.6 0 12.4-2 12.4-2s.5 10-1.5 14zm-21 36.7c1.7 2.2.3 5.4-3.3 7.2s-7.9 1.4-9.6-.8c-1.8-2.3-.4-5.5 3.2-7.2 3.5-1.8 7.8-1.4 9.6.8z" fill="#d81e05" id="path15"/><path d="M162.3 62.7a4 4 0 0 1-3.8 4 4 4 0 0 1-3.9-4 4 4 0 0 1 3.9-4c2 0 3.8 1.8 3.8 4m-11.6 0a4 4 0 0 1-3.8 4 4 4 0 0 1-3.9-4c0-2.1 1.7-4 3.8-4a4 4 0 0 1 3.9 4M139 60.2a4 4 0 0 1-3.9 4 4 4 0 0 1-3.8-4 4 4 0 0 1 3.8-4 4 4 0 0 1 3.9 4m-13.4 0a4 4 0 0 1-3.8 4 4 4 0 0 1-3.9-4 4 4 0 0 1 3.8-4 4 4 0 0 1 3.9 4M113.8 66a4 4 0 0 1-3.8 4 4 4 0 0 1-3.8-4c0-2.2 1.7-4 3.8-4s3.8 1.8 3.8 4m-14.1 3a4 4 0 0 1-3.8 4 4 4 0 0 1-3.9-4 4 4 0 0 1 3.8-4 4 4 0 0 1 3.9 4m-12.4 9.6a4 4 0 0 1-3.8 4 4 4 0 0 1-3.8-4 4 4 0 0 1 3.8-4 4 4 0 0 1 3.8 4M83 92a4 4 0 0 1-3.8 4 4 4 0 0 1-3.8-4c0-2.2 1.7-4 3.8-4s3.8 1.8 3.9 4m1.3 13.4c0 2.1-1.7 4-3.8 4a4 4 0 0 1-3.9-4 4 4 0 0 1 3.9-4c2 0 3.8 1.8 3.8 4m29.3 28.8c0 2.1-1.7 3.9-3.8 3.9a4 4 0 0 1-3.9-4c0-2.1 1.7-3.9 3.8-3.9a4 4 0 0 1 3.9 4m.5-27c0 2.1-1.7 3.9-3.8 3.9a4 4 0 0 1-3.9-4c0-2.1 1.7-3.9 3.8-3.9a4 4 0 0 1 3.9 4m36.3-9.6c0 2.1-1.7 3.9-3.8 3.9a4 4 0 0 1-3.8-4c0-2.1 1.7-3.9 3.8-3.9s3.8 1.8 3.9 4z" fill="#ffffff" id="path16"/></g><path id="d" d="M413.4 69a4 4 0 0 1-3.8 4 4 4 0 0 1-3.9-4c0-2.1 1.7-3.9 3.8-3.9a4 4 0 0 1 3.9 4zm-14.5 36.8a4 4 0 0 1-3.9 4 4 4 0 0 1-3.8-4c0-2.1 1.7-4 3.8-4s3.8 1.8 3.8 4zm-2.3-13.7a4 4 0 0 1-3.8 4 4 4 0 0 1-3.9-4 4 4 0 0 1 3.9-4c2 0 3.8 1.8 3.8 4m4.3-13.8a4 4 0 0 1-3.8 4 4 4 0 0 1-3.9-4c0-2.1 1.7-4 3.8-4a4 4 0 0 1 3.9 4m26.8-15a4 4 0 0 1-3.9 4 4 4 0 0 1-3.8-4 4 4 0 0 1 3.8-4 4 4 0 0 1 3.9 4m14.6-4.3a4 4 0 0 1-3.8 4 4 4 0 0 1-3.9-4c0-2.1 1.7-3.9 3.9-3.9 2 0 3.8 1.8 3.8 4zm14.5-2.8a4 4 0 0 1-3.9 4 4 4 0 0 1-3.8-4c0-2.2 1.7-4 3.8-4s3.8 1.8 3.9 4m14.4-2a4 4 0 0 1-3.8 4 4 4 0 0 1-3.9-4c0-2.1 1.8-3.9 3.9-4a4 4 0 0 1 3.8 4" fill="#ffffff"/><path d="M413.8 167.2h66.5v15.7h-66.5Zm0 32.3h66.5v15.7h-66.5Zm0 33.7h66.5V249h-66.5Zm0 34h66.5v20.2h-66.5Zm-313-73.2v44h132.9v-44z" fill="#ffffff" id="path17"/><use fill="none" transform="translate(313)" xlink:href="#b" id="use17"/><use transform="matrix(-1 0 0 1 334.9 0)" xlink:href="#c" id="use18"/><use transform="matrix(-1 0 0 1 963.1 0)" xlink:href="#d" id="use19"/></g><!-- app4joy --></svg>