<svg width="1000" height="500" id="svg12" viewBox="0 0 1000 500" xmlns="http://www.w3.org/2000/svg"><g id="g1"><path id="path2" d="M0 0h1000v500H0Z" fill="#ffffff"/></g><g transform="matrix(.91705 0 0 .9142 367.5 64)" id="g908"><path id="path1029" d="M17.8 31.6v149.2c0 111.7 118.5 189.1 126.7 193.8 8.1-4.7 126.7-82 126.7-193.8V31.6H144.5z" style="fill:#003e9e;fill-opacity:1;stroke:none;stroke-width:8.72491;stroke-linecap:butt;stroke-linejoin:miter;stroke-miterlimit:4;stroke-dasharray:none;stroke-opacity:1;paint-order:fill markers stroke"/><path style="fill:#ffffff;stroke-width:8.72627" d="M29 43v21.2l192 221.6q8.6-11.7 15.8-25L48.1 43Z" id="path2031"/><path style="opacity:1;fill:#eeca00;fill-opacity:1;stroke:none;stroke-width:0.130917;stroke-miterlimit:4;stroke-dasharray:none" d="M102.2 205.7c-6.9 6.1-10.2 12.8-7.2 21a61 61 0 0 1 5.3 23.7h-.8c-.2-9.3-4.6-16.5-9.9-18.4q-1-.4-2.3-.4-2.8-.1-5.7 2.8c-3.4 3.5-4.3 13 5.6 15-1-1.6-1-5 1.1-6.3 1.6-.8 3.4-.5 4.3.2 1.4.8 3.6 4.4 3.6 7.1h-4.5a2.2 2.2 0 0 0 0 4.4h7.7c-.1 2.8-.9 7.2-3.1 8.2.3 1 1.6 3 3.5 2.8.4 2 .7 3.6 2.4 5.5 1.7-1.9 2-3.5 2.5-5.5 1.8.1 3.2-1.8 3.5-2.8-2.3-1-3-5.4-3.1-8.2h7.7a2.2 2.2 0 1 0 0-4.4h-4.6c0-2.7 2.3-6.3 3.7-7 .8-.8 2.6-1 4.3-.3 2 1.2 2.1 4.7 1 6.2 10-1.8 9-11.4 5.6-15a8 8 0 0 0-5.6-2.7q-1.3 0-2.4.4c-5.2 1.9-9.6 9-9.8 18.4h-.8c0-8.5 1.4-13 5.3-23.7 3-8.2-.3-14.9-7.3-21" id="path950-0"/><path style="opacity:1;fill:#eeca00;fill-opacity:1;stroke:none;stroke-width:0.130917;stroke-miterlimit:4;stroke-dasharray:none" d="M144.5 269.1c-7 6.2-10.3 12.9-7.3 21a61 61 0 0 1 5.3 23.8h-.8c-.2-9.3-4.6-16.5-9.8-18.4q-1.1-.4-2.4-.4-2.8-.1-5.6 2.8c-3.4 3.4-4.4 13 5.5 15-1-1.7-1-5 1.2-6.3 1.6-.8 3.4-.5 4.2.2 1.4.8 3.7 4.4 3.7 7.1h-4.6a2.2 2.2 0 0 0 0 4.4h7.7c-.1 2.7-.8 7.2-3.1 8.2.3 1 1.7 2.9 3.5 2.8.4 2 .8 3.6 2.5 5.5 1.7-1.9 2-3.5 2.4-5.5 1.9.1 3.2-1.8 3.5-2.8-2.2-1-3-5.5-3-8.2h7.6a2.2 2.2 0 1 0 0-4.4h-4.5c0-2.7 2.2-6.3 3.6-7.1.9-.7 2.7-1 4.3-.2 2 1.2 2.2 4.6 1.1 6.2 10-1.8 9-11.5 5.6-15a8 8 0 0 0-5.7-2.7q-1.2 0-2.3.4c-5.3 1.9-9.7 9-9.9 18.4h-.8a61 61 0 0 1 5.3-23.7c3-8.2-.3-14.9-7.2-21" id="path950-3"/><path style="opacity:1;fill:#eeca00;fill-opacity:1;stroke:none;stroke-width:0.130917;stroke-miterlimit:4;stroke-dasharray:none" d="M60 142.2c-6.9 6.2-10.2 12.8-7.2 21a61 61 0 0 1 5.3 23.7h-.8c-.2-9.3-4.7-16.5-9.9-18.4q-1-.4-2.3-.4-2.8-.1-5.7 2.8c-3.4 3.5-4.4 13 5.6 15-1-1.6-1-5 1.1-6.3 1.6-.8 3.4-.5 4.3.2 1.3.9 3.6 4.5 3.6 7.1h-4.5c-1.3 0-2.3 1-2.3 2.2q.2 2.1 2.3 2.3h7.7c-.2 2.7-.9 7.1-3.2 8.1.3 1 1.7 3 3.6 2.8.4 2 .7 3.7 2.4 5.5 1.7-1.8 2-3.5 2.4-5.5 2 .1 3.3-1.8 3.6-2.8-2.3-1-3-5.4-3.1-8.1h7.7a2.2 2.2 0 1 0 0-4.5H66c0-2.6 2.3-6.2 3.7-7 .8-.8 2.6-1 4.2-.3 2.1 1.2 2.2 4.7 1.2 6.2 9.9-1.8 8.9-11.4 5.5-15a8 8 0 0 0-5.7-2.7q-1.2 0-2.3.4c-5.2 1.9-9.7 9.1-9.8 18.4h-.9c0-8.5 1.5-13 5.4-23.7 3-8.2-.4-14.8-7.3-21" id="path950"/><path style="opacity:1;fill:#eeca00;fill-opacity:1;stroke:none;stroke-width:0.130917;stroke-miterlimit:4;stroke-dasharray:none" d="M225.8 142.2c-7 6.2-10.2 12.8-7.3 21a61 61 0 0 1 5.4 23.7h-.9c-.1-9.3-4.6-16.5-9.8-18.4q-1-.4-2.3-.4-2.8-.1-5.7 2.8c-3.4 3.5-4.4 13 5.5 15-1-1.6-1-5 1.2-6.3 1.6-.8 3.4-.5 4.2.2 1.4.9 3.7 4.5 3.7 7.1h-4.6a2.2 2.2 0 0 0 0 4.4h7.7c0 2.8-.8 7.2-3 8.2.2 1 1.6 3 3.5 2.8a9 9 0 0 0 2.4 5.5c1.7-1.8 2-3.5 2.4-5.5 1.9.1 3.3-1.8 3.6-2.8-2.3-1-3-5.4-3.2-8.1h7.7a2.2 2.2 0 1 0 0-4.5h-4.5c0-2.6 2.3-6.2 3.6-7 .9-.8 2.7-1 4.3-.3 2.1 1.2 2.2 4.7 1.1 6.2 10-1.8 9-11.4 5.6-15a8 8 0 0 0-5.7-2.7q-1.2 0-2.3.4c-5.2 1.9-9.7 9.1-9.9 18.4h-.8a61 61 0 0 1 5.3-23.7c3-8.2-.3-14.8-7.2-21" id="path950-6"/><path style="opacity:1;fill:#eeca00;fill-opacity:1;stroke:none;stroke-width:0.130917;stroke-miterlimit:4;stroke-dasharray:none" d="M225.8 54c-7 6.2-10.2 12.8-7.3 21a61 61 0 0 1 5.4 23.8h-.9c-.1-9.4-4.6-16.6-9.8-18.5q-1-.3-2.3-.4-2.8 0-5.7 2.8c-3.4 3.5-4.4 13.1 5.5 15-1-1.6-1-5 1.2-6.3 1.6-.8 3.4-.4 4.2.2 1.4.9 3.7 4.5 3.7 7.2h-4.6a2.2 2.2 0 0 0 0 4.4h7.7c0 2.7-.8 7.2-3 8.2.2 1 1.6 2.8 3.5 2.7a9 9 0 0 0 2.4 5.5c1.7-1.8 2-3.4 2.4-5.5 1.9.1 3.3-1.8 3.6-2.7-2.3-1-3-5.5-3.2-8.2h7.7a2.2 2.2 0 1 0 0-4.4h-4.5c0-2.7 2.3-6.3 3.6-7.2.9-.6 2.7-1 4.3-.2 2.1 1.3 2.2 4.7 1.1 6.3 10-1.9 9-11.5 5.6-15a8 8 0 0 0-5.7-2.8q-1.2 0-2.3.4c-5.2 2-9.7 9.1-9.9 18.5h-.8c0-8.5 1.5-13.1 5.3-23.8 3-8.2-.3-14.8-7.2-21" id="path950-8"/><path id="path1014" d="M150 54c-7 6.2-10.3 12.8-7.3 21a61 61 0 0 1 5.3 23.8h-.8c-.2-9.4-4.6-16.6-9.8-18.5q-1.1-.3-2.4-.4-2.8 0-5.7 2.8c-3.3 3.5-4.3 13.1 5.6 15-1-1.6-1-5 1.1-6.3 1.6-.8 3.5-.4 4.3.2 1.4.9 3.6 4.5 3.6 7.2h-4.5a2.2 2.2 0 0 0 0 4.4h7.7c-.1 2.7-.8 7.2-3.1 8.2.3 1 1.7 2.8 3.5 2.7.4 2 .8 3.7 2.5 5.5a10 10 0 0 0 2.4-5.5c1.9.1 3.2-1.8 3.5-2.7-2.3-1-3-5.5-3-8.2h7.6a2.2 2.2 0 1 0 0-4.4H156c0-2.7 2.2-6.3 3.6-7.2.8-.6 2.7-1 4.3-.2 2 1.3 2.2 4.7 1.1 6.3 10-1.9 9-11.5 5.6-15a8 8 0 0 0-5.7-2.8q-1.2 0-2.3.4c-5.3 2-9.7 9.1-9.9 18.5h-.8c0-8.5 1.5-13.1 5.3-23.8 3-8.2-.3-14.8-7.2-21" style="opacity:1;fill:#eeca00;fill-opacity:1;stroke:none;stroke-width:0.130917;stroke-miterlimit:4;stroke-dasharray:none"/><path style="color:#000000;font-style:normal;font-variant:normal;font-weight:normal;font-stretch:normal;font-size:medium;line-height:normal;font-family:sans-serif;font-variant-ligatures:normal;font-variant-position:normal;font-variant-caps:normal;font-variant-numeric:normal;font-variant-alternates:normal;font-feature-settings:normal;text-indent:0;text-align:start;text-decoration:none;text-decoration-line:none;text-decoration-style:solid;text-decoration-color:#000000;letter-spacing:normal;word-spacing:normal;text-transform:none;writing-mode:lr-tb;direction:ltr;text-orientation:mixed;dominant-baseline:auto;baseline-shift:baseline;text-anchor:start;white-space:normal;shape-padding:0;clip-rule:nonzero;display:inline;overflow:visible;visibility:visible;opacity:1;isolation:auto;mix-blend-mode:normal;color-interpolation:sRGB;color-interpolation-filters:linearRGB;solid-color:#000000;solid-opacity:1;vector-effect:none;fill:#eeca00;fill-opacity:1;fill-rule:nonzero;stroke:none;stroke-width:8.72491;stroke-linecap:butt;stroke-linejoin:miter;stroke-miterlimit:4;stroke-dasharray:none;stroke-dashoffset:0;stroke-opacity:1;paint-order:fill markers stroke;color-rendering:auto;image-rendering:auto;shape-rendering:auto;text-rendering:auto" d="M13.4 27.3v153.5c0 57.4 30.4 105.6 61.4 140a360 360 0 0 0 67.5 57.6l2.2 1.3 2.2-1.3a360 360 0 0 0 67.4-57.6c31-34.4 61.4-82.6 61.4-140V27.3Zm8.7 8.7h244.7v144.8c0 54.3-29 100.7-59.2 134.1a352 352 0 0 1-63.1 54.5 352 352 0 0 1-63.2-54.5c-30.2-33.4-59.2-79.8-59.2-134Z" id="path895"/></g><!-- app4joy --></svg>