<svg width="585" height="390" id="svg687" viewBox="0 0 585 390" xmlns:xlink="http://www.w3.org/1999/xlink" xmlns="http://www.w3.org/2000/svg"><defs id="defs660"><g id="star" transform="scale(12)"><g id="cone"><path id="triangle" fill="#F00" transform="rotate(18 3.2 -.5)" d="M0 0v1h.5z"/><use xlink:href="#triangle" transform="scale(-1 1)" id="use648"/></g><use xlink:href="#cone" transform="rotate(72)" id="use651"/><use xlink:href="#cone" transform="rotate(-72)" id="use653"/><use xlink:href="#cone" transform="rotate(144)" id="use655"/><use xlink:href="#cone" transform="rotate(-144)" id="use657"/></g></defs><g id="g864"><path fill="#f8c300" id="rect662" style="display:inline" d="M0 0h585v390H0z"/><path style="display:inline;stroke:#00923f;stroke-width:1950;stroke-dasharray:30,30" id="line664" d="M292.5 0v390"/><path fill="#003984" id="rect666" d="M0 0h195v150H0z"/></g><g id="g28023"><path style="opacity:1;fill:#ffffff;fill-opacity:1;stroke-width:60" id="path26564-5" d="m175 209.9-10-7.5-9.9 7.4 4-11.7-10.1-7.2 12.4.2 3.7-11.8 3.6 11.9 12.4-.2-10.1 7z" transform="matrix(.80912 0 0 .7994 -84.5 -132)"/><path style="fill:#ffffff;fill-opacity:1;stroke-width:60" id="path26564-5-5" d="m175 209.9-10-7.5-9.9 7.4 4-11.7-10.1-7.2 12.4.2 3.7-11.8 3.6 11.9 12.4-.2-10.1 7z" transform="matrix(.80912 0 0 .7994 -52 -132)"/><path style="fill:#ffffff;fill-opacity:1;stroke-width:60" id="path26564-5-6" d="m175 209.9-10-7.5-9.9 7.4 4-11.7-10.1-7.2 12.4.2 3.7-11.8 3.6 11.9 12.4-.2-10.1 7z" transform="matrix(.80912 0 0 .7994 -19.9 -131.5)"/><path style="fill:#ffffff;fill-opacity:1;stroke-width:60" id="path26564-5-2" d="m175 209.9-10-7.5-9.9 7.4 4-11.7-10.1-7.2 12.4.2 3.7-11.8 3.6 11.9 12.4-.2-10.1 7z" transform="matrix(.80912 0 0 .7994 13.6 -132)"/><path style="fill:#ffffff;fill-opacity:1;stroke-width:60" id="path26564-5-9" d="m175 209.9-10-7.5-9.9 7.4 4-11.7-10.1-7.2 12.4.2 3.7-11.8 3.6 11.9 12.4-.2-10.1 7z" transform="matrix(.80912 0 0 .7994 -84.5 -107)"/><path style="fill:#ffffff;fill-opacity:1;stroke-width:60" id="path26564-5-1" d="m175 209.9-10-7.5-9.9 7.4 4-11.7-10.1-7.2 12.4.2 3.7-11.8 3.6 11.9 12.4-.2-10.1 7z" transform="matrix(.80912 0 0 .7994 -52.4 -107)"/><path style="fill:#ffffff;fill-opacity:1;stroke-width:60" id="path26564-5-27" d="m175 209.9-10-7.5-9.9 7.4 4-11.7-10.1-7.2 12.4.2 3.7-11.8 3.6 11.9 12.4-.2-10.1 7z" transform="matrix(.80912 0 0 .7994 -20.4 -107)"/><path style="fill:#ffffff;fill-opacity:1;stroke-width:60" id="path26564-5-0" d="m175 209.9-10-7.5-9.9 7.4 4-11.7-10.1-7.2 12.4.2 3.7-11.8 3.6 11.9 12.4-.2-10.1 7z" transform="matrix(.80912 0 0 .7994 13.1 -106.5)"/><path style="fill:#ffffff;fill-opacity:1;stroke-width:60" id="path26564-5-93" d="m175 209.9-10-7.5-9.9 7.4 4-11.7-10.1-7.2 12.4.2 3.7-11.8 3.6 11.9 12.4-.2-10.1 7z" transform="matrix(.80912 0 0 .7994 -84.5 -81.5)"/><path style="fill:#ffffff;fill-opacity:1;stroke-width:60" id="path26564-5-60" d="m175 209.9-10-7.5-9.9 7.4 4-11.7-10.1-7.2 12.4.2 3.7-11.8 3.6 11.9 12.4-.2-10.1 7z" transform="matrix(.80912 0 0 .7994 -52 -81.5)"/><path style="fill:#ffffff;fill-opacity:1;stroke-width:60" id="path26564-5-62" d="m175 209.9-10-7.5-9.9 7.4 4-11.7-10.1-7.2 12.4.2 3.7-11.8 3.6 11.9 12.4-.2-10.1 7z" transform="matrix(.80912 0 0 .7994 -19.4 -82)"/><path style="fill:#ffffff;fill-opacity:1;stroke-width:60" id="path26564-5-61" d="m175 209.9-10-7.5-9.9 7.4 4-11.7-10.1-7.2 12.4.2 3.7-11.8 3.6 11.9 12.4-.2-10.1 7z" transform="matrix(.80912 0 0 .7994 12.6 -82)"/><path style="fill:#ffffff;fill-opacity:1;stroke-width:60" id="path26564-5-8" d="m175 209.9-10-7.5-9.9 7.4 4-11.7-10.1-7.2 12.4.2 3.7-11.8 3.6 11.9 12.4-.2-10.1 7z" transform="matrix(.80912 0 0 .7994 -85 -57)"/><path style="fill:#ffffff;fill-opacity:1;stroke-width:60" id="path26564-5-7" d="m175 209.9-10-7.5-9.9 7.4 4-11.7-10.1-7.2 12.4.2 3.7-11.8 3.6 11.9 12.4-.2-10.1 7z" transform="matrix(.80912 0 0 .7994 -52.4 -56.5)"/><path style="fill:#ffffff;fill-opacity:1;stroke-width:60" id="path26564-5-92" d="m175 209.9-10-7.5-9.9 7.4 4-11.7-10.1-7.2 12.4.2 3.7-11.8 3.6 11.9 12.4-.2-10.1 7z" transform="matrix(.80912 0 0 .7994 -19.9 -56.5)"/><path style="fill:#ffffff;fill-opacity:1;stroke-width:60" id="path26564-5-02" d="m175 209.9-10-7.5-9.9 7.4 4-11.7-10.1-7.2 12.4.2 3.7-11.8 3.6 11.9 12.4-.2-10.1 7z" transform="matrix(.80912 0 0 .7994 13.1 -56.5)"/><path style="fill:#ffffff;fill-opacity:1;stroke-width:60" id="path26564-5-3" d="m175 209.9-10-7.5-9.9 7.4 4-11.7-10.1-7.2 12.4.2 3.7-11.8 3.6 11.9 12.4-.2-10.1 7z" transform="matrix(.80912 0 0 .7994 -101.5 -32)"/><path style="fill:#ffffff;fill-opacity:1;stroke-width:60" id="path26564-5-75" d="m175 209.9-10-7.5-9.9 7.4 4-11.7-10.1-7.2 12.4.2 3.7-11.8 3.6 11.9 12.4-.2-10.1 7z" transform="matrix(.80912 0 0 .7994 -69 -32)"/><path style="fill:#ffffff;fill-opacity:1;stroke-width:60" id="path26564-5-922" d="m175 209.9-10-7.5-9.9 7.4 4-11.7-10.1-7.2 12.4.2 3.7-11.8 3.6 11.9 12.4-.2-10.1 7z" transform="matrix(.80912 0 0 .7994 -36 -31.5)"/><path style="fill:#ffffff;fill-opacity:1;stroke-width:60" id="path26564-5-89" d="m175 209.9-10-7.5-9.9 7.4 4-11.7-10.1-7.2 12.4.2 3.7-11.8 3.6 11.9 12.4-.2-10.1 7z" transform="matrix(.80912 0 0 .7994 -3.9 -31.5)"/><path style="fill:#ffffff;fill-opacity:1;stroke-width:60" id="path26564-5-73" d="m175 209.9-10-7.5-9.9 7.4 4-11.7-10.1-7.2 12.4.2 3.7-11.8 3.6 11.9 12.4-.2-10.1 7z" transform="matrix(.80912 0 0 .7994 29.1 -32)"/></g><!-- app4joy --></svg>