<svg id="svg2" viewBox="0 0 1000 500" xmlns="http://www.w3.org/2000/svg"><g id="g9009"><path id="rect7562" style="fill:#ce1126" d="M0 0h1000v500H0z"/></g><g id="g8567" style="display:inline"><g id="g8570"><path id="rect7564" style="fill:#002369" d="M0 0h500v250H0z"/></g><path d="M0 0v28l444.1 222H500v-28L55.9 0Zm500 0v28L55.9 250H0v-28L444.1 0Z" id="path7566" style="fill:#fff"/><path d="M208.3 0v250h83.4V0ZM0 83.3v83.4h500V83.3Z" id="path7568" style="fill:#fff"/><path d="M0 100v50h500v-50ZM225 0v250h50V0Z" id="path7570" style="fill:#ce1126"/><path d="m0 250 166.7-83.3h37.2L37.3 250ZM0 0l166.7 83.3h-37.3L0 18.6Zm296 83.3L462.8 0H500L333.3 83.3ZM500 250l-166.7-83.3h37.3L500 231.4z" id="path7572" style="fill:#ce1126"/></g><g id="g9006" style="display:inline"><path d="M655.7 278.4H750v-76.7h-94.7V273z" id="path7574" style="fill:#002369"/><path d="M655.7 278.4H750v-76.7h-94.7V273z" id="path7576" style="fill:none;stroke:#000;stroke-width:2px"/><path d="M844.3 278.4H655.7c4.1 34 47.2 75.9 94.3 95.6 47.1-19.7 90.2-61.6 94.3-95.6" id="path7578" style="fill:#fff"/><path d="M844.3 278.4H655.7c4.1 34 47.2 75.9 94.3 95.6 47.1-19.7 90.2-61.6 94.3-95.6z" id="path7580" style="fill:none;stroke:#000;stroke-width:2px"/><path d="M750 201.7v76.7h94.3l.5-5.3v-71.4z" id="path7582" style="fill:#002369"/><path d="M750 201.7v76.7h94.3l.5-5.3v-71.4z" id="path7584" style="fill:none;stroke:#000;stroke-width:2px"/><path d="M750 126v75.7h94.8V126Z" id="path7586" style="fill:#f5c819"/><path d="M750 126v75.7h94.8V126Z" id="path7588" style="fill:none;stroke:#000;stroke-width:2px"/><path d="M655.3 201.7H750V126h-94.7z" id="path7590" style="fill:#ce1126"/><path d="M655.3 201.7H750V126h-94.7z" id="path7592" style="fill:none;stroke:#000;stroke-width:2px"/><path id="polygon7594" style="fill:#0f692d;fill-rule:evenodd" d="M744.6 287.1v11.3l-10-5.6v1.7l-6.6.6 2.8 6-1.5.8 9.9 5.7-4.3 2.5 1.3.7-2.5 5.2 5.9.5v1.6l8.7-5V365h3.4v-51.9l8.7 5v-1.6l5.9-.5-2.5-5.2 1.3-.7-4.3-2.5 9.9-5.7-1.5-.8 2.8-6-6.6-.6v-1.7l-10 5.6v-11.3l-1.5.9-3.9-5.4-3.8 5.4z"/><path id="polygon7596" style="fill:#0f692d;fill-rule:evenodd" d="m796.5 338.9-5.3-2.5-.8 1.3-5-8.6-3-1.6h-10l.8-1.4-4.8-3.3 4.8-3.3-.8-1.3h5l-5.8-9.8h1.8l.6-6.6 6.1 2.8.8-1.5 5.8 9.8 5.7-9.8.9 1.5 6.1-2.7.6 6.5h1.8l-5.8 9.8 11.5.1-.9 1.5 5.5 3.7-5.4 3.8.9 1.5H796l2.6 4.3H797z"/><path id="polygon7598" style="fill:#0f692d;fill-rule:evenodd" d="m703.5 338.8 5.3-2.5.8 1.3 5-8.5 3-1.7h10l-.8-1.4 4.8-3.3-4.7-3.3.7-1.3h-5l5.8-9.8h-1.8l-.6-6.6-6.1 2.8-.8-1.5-5.8 9.8-5.7-9.8-.9 1.6-6.1-2.8-.6 6.6h-1.8l5.8 9.8h-11.5l.9 1.5-5.5 3.8 5.5 3.7-.9 1.5H704l-2.6 4.3h1.6z"/><path d="M750 344.4c-17 0-31.2-10.3-34.8-17.6" id="path7600" style="fill:none;stroke:#0f692d;stroke-width:3.02px"/><path d="M750 344.4c17 0 31.2-10.3 34.8-17.6" id="path7602" style="fill:none;stroke:#0f692d;stroke-width:3.02px"/><path id="line7604" style="fill:none;stroke:#000;stroke-linecap:round;stroke-linejoin:round;stroke-width:0.48px" d="M750 286.8v23.9"/><path id="line7606" style="fill:none;stroke:#000;stroke-linecap:round;stroke-linejoin:round;stroke-width:0.48px" d="M763.5 314.6 731.4 297"/><path id="line7608" style="fill:none;stroke:#000;stroke-linecap:round;stroke-linejoin:round;stroke-width:0.48px" d="m736.4 314.6 32.2-17.7"/><path id="polyline7610" style="fill:none;stroke:#000;stroke-linecap:round;stroke-linejoin:round;stroke-width:0.48px" d="m746.5 290.2 3.5 6 3.6-6"/><path id="polyline7612" style="fill:none;stroke:#000;stroke-linecap:round;stroke-linejoin:round;stroke-width:0.48px" d="M732.7 301.5h7l-3.5-5.8"/><path id="polyline7614" style="fill:none;stroke:#000;stroke-linecap:round;stroke-linejoin:round;stroke-width:0.48px" d="M767.3 301.5h-7l3.5-5.8"/><path id="polyline7616" style="fill:none;stroke:#000;stroke-linecap:round;stroke-linejoin:round;stroke-width:0.48px" d="M762.3 310h-7.1l3.5 5.8"/><path id="polyline7618" style="fill:none;stroke:#000;stroke-linecap:round;stroke-linejoin:round;stroke-width:0.48px" d="m737.6 310 7.1.1-3.5 5.8"/><path id="line7620" style="fill:none;stroke:#000;stroke-linecap:round;stroke-linejoin:round;stroke-width:0.48px" d="m797.3 305.5-12.2 20.7"/><path id="line7622" style="fill:none;stroke:#000;stroke-linecap:round;stroke-linejoin:round;stroke-width:0.48px" d="m794.9 336.2-18.9-31"/><path id="line7624" style="fill:none;stroke:#000;stroke-linecap:round;stroke-linejoin:round;stroke-width:0.48px" d="m771.4 322.9 36.8.6"/><path id="polyline7626" style="fill:none;stroke:#000;stroke-linecap:round;stroke-linejoin:round;stroke-width:0.48px" d="M792.5 306.7v7l6.1-3.5"/><path id="polyline7628" style="fill:none;stroke:#000;stroke-linecap:round;stroke-linejoin:round;stroke-width:0.48px" d="m774.8 309.7 6.1 3.5-.1-6.8"/><path id="polyline7630" style="fill:none;stroke:#000;stroke-linecap:round;stroke-linejoin:round;stroke-width:0.48px" d="m804.8 326.8-6.1-3.5 6-3.3"/><path id="polyline7632" style="fill:none;stroke:#000;stroke-linecap:round;stroke-linejoin:round;stroke-width:0.48px" d="m796.1 331.7-6.1-3.5.1 6.8"/><path id="polyline7634" style="fill:none;stroke:#000;stroke-linecap:round;stroke-linejoin:round;stroke-width:0.48px" d="m774.8 319.5 6.1 3.5-6 3.3"/><path id="line7636" style="fill:none;stroke:#000;stroke-linecap:round;stroke-linejoin:round;stroke-width:0.48px" d="m702.7 305.4 12.2 20.7"/><path id="line7638" style="fill:none;stroke:#000;stroke-linecap:round;stroke-linejoin:round;stroke-width:0.48px" d="m705.1 336.1 18.9-31"/><path id="line7640" style="fill:none;stroke:#000;stroke-linecap:round;stroke-linejoin:round;stroke-width:0.48px" d="m728.6 322.8-36.8.6"/><path id="polyline7642" style="fill:none;stroke:#000;stroke-linecap:round;stroke-linejoin:round;stroke-width:0.48px" d="m707.6 306.6-.1 7-6.1-3.5"/><path id="polyline7644" style="fill:none;stroke:#000;stroke-linecap:round;stroke-linejoin:round;stroke-width:0.48px" d="m725.2 309.6-6.1 3.5.1-6.8"/><path id="polyline7646" style="fill:none;stroke:#000;stroke-linecap:round;stroke-linejoin:round;stroke-width:0.48px" d="m695.2 326.7 6.1-3.5-6-3.3"/><path id="polyline7648" style="fill:none;stroke:#000;stroke-linecap:round;stroke-linejoin:round;stroke-width:0.48px" d="m703.9 331.6 6.1-3.5-.1 6.8"/><path id="polyline7650" style="fill:none;stroke:#000;stroke-linecap:round;stroke-linejoin:round;stroke-width:0.48px" d="m725.2 319.5-6.1 3.5 6 3.2"/><path d="M797.4 142a3 3 0 0 0 .6-3.6c1.8 2 4 .3 3.4-1.8-1.2 1.9-3.6.8-3.6-1.7 0-1.2.3-2.8 1.7-1.6a1 1 0 0 0-1.4-1.1 2 2 0 0 0-.7-1.9 2 2 0 0 0-.7 1.9 1 1 0 0 0-1.4 1.1c1.4-1.2 1.7.4 1.7 1.6 0 2.5-2.4 3.6-3.7 1.7-.6 2.1 1.7 3.8 3.5 1.8a3 3 0 0 0 .6 3.6" id="path7652" style="fill:#ce1126"/><path d="M755.7 131.5c1.1-.3 3 1 3 2.1-.2-2.6 2.6-3 3.7-1.1-2.2-.5-3.1 2-1.4 3.8.9.8 2.2 1.8 2.2 0a1 1 0 0 1 0 1.7 3 3 0 0 1 .8 1.8 3 3 0 0 1-1.7-.9 1 1 0 0 1-1.7 0c1.7 0 .8-1.2 0-2-1.8-1.8-4.3-.9-3.9 1.3-1.9-1-1.5-3.9 1.2-3.7-1.1 0-2.5-1.9-2.2-3" id="path7654" style="fill:#ce1126"/><path d="M766.2 163.8c-.6-1-2.8-1.3-3.6-.6 2-1.8.3-4-1.8-3.4 1.9 1.2.8 3.7-1.7 3.7-1.2 0-2.8-.4-1.6-1.8a1.1 1.1 0 0 0-1.1 1.5 2 2 0 0 0-1.9.6 3 3 0 0 0 1.9.7 1.1 1.1 0 0 0 1.1 1.5c-1.2-1.4.4-1.7 1.6-1.7 2.5 0 3.6 2.4 1.7 3.6 2.1.6 3.8-1.6 1.8-3.4.8.7 3 .3 3.6-.7" id="path7656" style="fill:#ce1126"/><path d="M839 131.5c-1-.3-3 1-3 2.1.2-2.6-2.6-3-3.7-1.1 2.2-.5 3.2 2 1.4 3.8-.8.8-2.1 1.8-2.1 0a1 1 0 0 0 0 1.7 3 3 0 0 0-.9 1.8 3 3 0 0 0 1.7-.9 1 1 0 0 0 1.7 0c-1.7 0-.8-1.2.1-2 1.8-1.8 4.3-.9 3.8 1.3 2-1 1.6-3.9-1.1-3.7 1.1 0 2.4-1.9 2.2-3" id="path7658" style="fill:#ce1126"/><path d="M828.6 163.8c.5-1 2.8-1.3 3.5-.6-2-1.8-.3-4 1.8-3.4-1.8 1.2-.7 3.7 1.8 3.7 1.2 0 2.8-.4 1.5-1.8a1.1 1.1 0 0 1 1.2 1.5 2 2 0 0 1 1.9.6 3 3 0 0 1-2 .7 1 1 0 0 1-1 1.5c1.2-1.5-.4-1.8-1.6-1.8-2.5 0-3.6 2.5-1.8 3.7-2 .6-3.8-1.7-1.8-3.5-.7.8-3 .4-3.6-.6" id="path7660" style="fill:#ce1126"/><path d="M797.4 185.7a3 3 0 0 1 .6 3.6c1.8-2 4-.3 3.4 1.8-1.2-1.8-3.6-.7-3.6 1.7 0 1.2.3 2.8 1.7 1.6a1 1 0 0 1-1.4 1.1 2 2 0 0 1-.7 1.9 2 2 0 0 1-.7-1.9 1 1 0 0 1-1.4-1c1.4 1.1 1.7-.5 1.7-1.7 0-2.5-2.4-3.6-3.7-1.7-.6-2.1 1.7-3.8 3.5-1.8a3 3 0 0 1 .6-3.6" id="path7662" style="fill:#ce1126"/><path d="M755.7 196.2c1.1.2 3-1 3-2.1-.2 2.6 2.6 3 3.7 1.1-2.2.5-3.1-2-1.4-3.8.9-.9 2.2-1.8 2.2 0a1 1 0 0 0 0-1.8 3 3 0 0 0 .8-1.7 3 3 0 0 0-1.7.9 1 1 0 0 0-1.7 0c1.7 0 .8 1.2 0 2-1.8 1.8-4.3.9-3.9-1.3-1.9 1-1.5 3.9 1.2 3.7-1.1 0-2.5 1.9-2.2 3" id="path7664" style="fill:#ce1126"/><path d="M839 196.2c-1 .2-3-1-3-2.1.2 2.6-2.6 3-3.7 1.1 2.2.5 3.2-2 1.4-3.8-.8-.9-2.1-1.8-2.1 0a1 1 0 0 1 0-1.8 3 3 0 0 1-.9-1.7 3 3 0 0 1 1.7.9 1 1 0 0 1 1.7 0c-1.7 0-.8 1.2.1 2 1.8 1.8 4.3.9 3.8-1.3 2 1 1.6 3.9-1.1 3.7 1.1 0 2.4 1.9 2.2 3" id="path7666" style="fill:#ce1126"/><path id="polygon7668" style="fill:#ce1126" d="M757.7 133.5H837v60.7h-39.6v-2.9h36.8v-54.9h-73.7v54.9h36.9v2.9h-39.7z"/><path d="M794.7 154.2a8 8 0 0 1-4.7-4.1c-.6-1.7-2.1-4.3-3.3-4.8s-2-1.4-1.7-2.3q.7-1.4.1-1.8c-.4-.5-1-.9-1.4-.3-.4.5-.1.4-.3.8q-.6-1.2-1.5-.8c-.5.5-.6.5-.5 1.2q-1.1-.5-1.2.5c0 .7.3 1.5 1 1.3l1-.6c.1.5-.4 1.4.6 1.7-.9 0-1.8 0-1.8.5-.1.5-.4 1.2.2 1.7s.8 0 1-.6c.4 0 1-.4 1.4 0l1 2.2c.2.5.4-.5.4-.9l.1 2.2.4-1 .1 2.6.7-1.4c-.1 1.5-.5 2-.3 3.4l1-1.6a3 3 0 0 0 0 3c.1-.6.6-.8.5-1.3a2 2 0 0 0 .3 2.4c0-.8.4-.6.4-1.1a2 2 0 0 0 .4 1.7c.4.6 1 .8 1 1.7 1 .5 5.1-3 5-4.3" id="path7670" style="fill:#ce1126"/><path d="M794.7 154.2a8 8 0 0 1-4.7-4.1c-.6-1.7-2.1-4.3-3.3-4.8s-2-1.4-1.7-2.3q.7-1.4.1-1.8c-.4-.5-1-.9-1.4-.3-.4.5-.1.4-.3.8q-.6-1.2-1.5-.8c-.5.5-.6.5-.5 1.2q-1.1-.5-1.2.5c0 .7.3 1.5 1 1.3l1-.6c.1.5-.4 1.4.6 1.7-.9 0-1.8 0-1.8.5-.1.5-.4 1.2.2 1.7s.8 0 1-.6c.4 0 1-.4 1.4 0l1 2.2c.2.5.4-.5.4-.9l.1 2.2.4-1 .1 2.6.7-1.4c-.1 1.5-.5 2-.3 3.4l1-1.6a3 3 0 0 0 0 3c.1-.6.6-.8.5-1.3a2 2 0 0 0 .3 2.4c0-.8.4-.6.4-1.1a2 2 0 0 0 .4 1.7c.4.6 1 .8 1 1.7 1 .5 5.1-3 5-4.3z" id="path7672" style="fill:none;stroke:#000;stroke-miterlimit:1.03;stroke-width:0.22px"/><path d="M800.9 167.8h-2.6a3 3 0 0 0-3.3-.2c-1 .6-2 2-3.6 1-1-.5-.3-1.6 0-2-1.2.2-2 1.3-.8 2.7-.8-.5-1.6.3-2.8-1.4 0 1.6 1 3 3.3 2.2-2 .5-.8 2.3-3.1 1.7 1 1.1 2.3.6 3.1-.7-.3 1-.3 1 0 1.6.7-.8 1 .1 1.8-.4a2 2 0 0 0 .3 2.2c.4.5.6.6.1 1.2a27 27 0 0 0-5.2-.2l-1.6-1.3q.3-1.6-.7-1.3c-.6.3-.8.3-.8 1q-1-.5-1.3.3c-.4.6 0 .7 0 1.2a2 2 0 0 0 0 2q.4.5 1-.4h2.4q-.3.5-.8.8-1.5.4-1 1.2a1 1 0 0 0 1.2.7q.8-.2.7-1c.4-.5.7-1.4 1.2-1 .7.5-.1 1 1.4 1.6-.2-.4 1-.4.8-.8a3 3 0 0 0 1.4 1.6c.3-.4 1-.8.7-1.2.5 1 1.3 1.2 1.4 1.8.7-.7.9-1 .8-1.9q.7 2 1.6 1l.7-.8q1.2.8 2.2-1-1.5.7-2.5 0c-.3-1-.7-1.2-.4-2.2a3.3 3.3 0 0 1 3.5-2.8c2.6.1 2.6-5.7.9-5.2" id="path7674" style="fill:#ce1126"/><path d="M800.9 167.8h-2.6a3 3 0 0 0-3.3-.2c-1 .6-2 2-3.6 1-1-.5-.3-1.6 0-2-1.2.2-2 1.3-.8 2.7-.8-.5-1.6.3-2.8-1.4 0 1.6 1 3 3.3 2.2-2 .5-.8 2.3-3.1 1.7 1 1.1 2.3.6 3.1-.7-.3 1-.3 1 0 1.6.7-.8 1 .1 1.8-.4a2 2 0 0 0 .3 2.2c.4.5.6.6.1 1.2a27 27 0 0 0-5.2-.2l-1.6-1.3q.3-1.6-.7-1.3c-.6.3-.8.3-.8 1q-1-.5-1.3.3c-.4.6 0 .7 0 1.2a2 2 0 0 0 0 2q.4.5 1-.4h2.4q-.3.5-.8.8-1.5.4-1 1.2a1 1 0 0 0 1.2.7q.8-.2.7-1c.4-.5.7-1.4 1.2-1 .7.5-.1 1 1.4 1.6-.2-.4 1-.4.8-.8a3 3 0 0 0 1.4 1.6c.3-.4 1-.8.7-1.2.5 1 1.3 1.2 1.4 1.8.7-.7.9-1 .8-1.9q.7 2 1.6 1l.7-.8q1.2.8 2.2-1-1.5.7-2.5 0c-.3-1-.7-1.2-.4-2.2a3.3 3.3 0 0 1 3.5-2.8c2.6.1 2.6-5.7.9-5.2z" id="path7676" style="fill:none;stroke:#000;stroke-miterlimit:1.03;stroke-width:0.22px"/><path d="M818.4 142.8a1.7 1.7 0 0 1-3.2-.3c-.2-.5-.5-1.5-1.5-1.4a1.5 1.5 0 0 0 .3-2.6c-.5 2-.7 1.7-3.5 2.4-2.8.8-4 3.5-4 6.5.2 2.5 1 4.1 3.6 6.7 2.8 2.7 4.3 4 4.3 7.3-.7-1.8-2-1.9-3.1-2.3s-1.1-1.6-.4-2.7a1.7 1.7 0 0 0-1 3q-.8.1-.8 1-1.4.4-2.4-1-.3 2 1.7 2c-1.9 1-1.6 3.6 0 4.1-1.1-1.2-.1-2.5.6-3.2-.2 1.7 1.6 1.9 2.1.9-1.3 0-1.1-2.2.6-2.2s2.7 1.7 2.6 3.2a4 4 0 0 1-4.1 3.8c-2.4-.1-3.7-1.6-4.7-3l-.7-2.3c-.8-1.8-3.2-4.2-3.7-6.4s-9.6.2-9.6.2l-2.3 2c-.8.6-4.6 2.9-5.4 4a4 4 0 0 0-2.1.8l-2.3-.2c-.3-.9-1.2-1-1.5-.2-.2.7-.3 1.4 1.2 1.1l.8.1c-.7.6-1 .6-1.5 1-.8 0-1.9 0-1.6 1s.5.9 1.3.8q1.1 0 1-1c.7-.2 1 0 1.6-.6l-.4 1.6q-1.1.6-.5 1.4.9.8 1.5 0a1 1 0 0 0 .2-1.3 4 4 0 0 1 1-1.7q.5-.3.5.2c-.3 1.4.5 1.4.1 2.4 1-1 1.5-1.6 1.2-2.8l.6 1.3a2 2 0 0 0 .1-1.7l.6 1c.3-.4.5-.4.4-1a2 2 0 0 0 1.1.8c-.3-.5.1-.7 0-1.3a1.4 1.4 0 0 0 1.9 1c-.7-.4-.5-.8-.7-1.2q.6.9 1.5.9c-.5-.4 0-.9-.3-1.4a1.4 1.4 0 0 0 1.7.9c-.6-.4-.1-.8-.6-1.2a3 3 0 0 0 2.3 1c-.2-.5.1-.8.1-1 .2.7.3.7.2 1q1-.7 1.4-1.2a5 5 0 0 0 2 2.2c1.1.7 3 .4 3.8 1.5q.9 1.4 0 3.5a5 5 0 0 0 .2 4.1c.8 1.3 1.5 2.5 1 3.3-.7.8-2.4 1.1-1.5 3.1.1-1 .2-1.2 1-1.6 0 1-.2 1.7.6 2.3a2 2 0 0 1 .4-1.8q.6 1.6 1.8.7c-.5-.2-1.8-1-1-2.4q1.2 1.4 2 1c.4-.2 1-.1 1.9-1.7a3 3 0 0 0 .6 2.7 6 6 0 0 0-1.4 2.7q-.2.7-1 .7c-.6.2-.4-.6-1-.6s-1.1 1-1 1.5q.1 1 .5 1.1-.9.7 0 1.5c.4.6.5.1 1 0 .4.8 1.3 1.3 1.7.6s0-1.3 0-1.9 1-.6 1.3-1.1l.5 1.3c-.3.7-.3 1.6.8 1q1.5-.6 1.1-1.7c0-.9-.7-.6-1-.5a3 3 0 0 0-.2-1.7q1.5.9 2.4-.7c-.8-.1-1-.6-1.8-.7q2.2.1 2.7-1.5c-.6.3-1-.2-1.4-.3.7-.2 1.6-.2 2-1-.5.3-1-.7-1.5-.7q1.4-.4 1.7-1.1c-.5 0-1-1-1.7-.3.6-.8 2.2-.3 2.4-1.2a2 2 0 0 1-1.6-.7c-.3-.5-.3-1.2-.8-1.2h1a2 2 0 0 1-1.2-2.4c-1 1-2.5 2-3.4 2a2 2 0 0 1-1.7-2c0-1 .3-1.2.3-2.1a5 5 0 0 0 4.5 1c3.6-.5 5.8-3.4 5.6-7.3 0-3.8-1-5.7-4.3-8.8-3-2.8-3.6-4-3.8-6.8-.1-2.9 1.2-4.7 2.8-5.1a1 1 0 0 1 1 1.6 3 3 0 0 0-.1 2.9c.6-.2.6-.4 1.3-1a4 4 0 0 0-1 4c.5 1.4 2 1.2 2.6 1.2-1-1.8.5-2.4.5-4q.3 2.8 2.6 1.5c-1.2 0-1.4-1.4-1-2.1.2-.7.6-.8 0-1.6 1.2.4 1.6-.6 1.6-1.6" id="path7678" style="fill:#ce1126"/><path d="M818.4 142.8a1.7 1.7 0 0 1-3.2-.3c-.2-.5-.5-1.5-1.5-1.4a1.5 1.5 0 0 0 .3-2.6c-.5 2-.7 1.7-3.5 2.4-2.8.8-4 3.5-4 6.5.2 2.5 1 4.1 3.6 6.7 2.8 2.7 4.3 4 4.3 7.3-.7-1.8-2-1.9-3.1-2.3s-1.1-1.6-.4-2.7a1.7 1.7 0 0 0-1 3q-.8.1-.8 1-1.4.4-2.4-1-.3 2 1.7 2c-1.9 1-1.6 3.6 0 4.1-1.1-1.2-.1-2.5.6-3.2-.2 1.7 1.6 1.9 2.1.9-1.3 0-1.1-2.2.6-2.2s2.7 1.7 2.6 3.2a4 4 0 0 1-4.1 3.8c-2.4-.1-3.7-1.6-4.7-3l-.7-2.3c-.8-1.8-3.2-4.2-3.7-6.4s-9.6.2-9.6.2l-2.3 2c-.8.6-4.6 2.9-5.4 4a4 4 0 0 0-2.1.8l-2.3-.2c-.3-.9-1.2-1-1.5-.2-.2.7-.3 1.4 1.2 1.1l.8.1c-.7.6-1 .6-1.5 1-.8 0-1.9 0-1.6 1s.5.9 1.3.8q1.1 0 1-1c.7-.2 1 0 1.6-.6l-.4 1.6q-1.1.6-.5 1.4.9.8 1.5 0a1 1 0 0 0 .2-1.3 4 4 0 0 1 1-1.7q.5-.3.5.2c-.3 1.4.5 1.4.1 2.4 1-1 1.5-1.6 1.2-2.8l.6 1.3a2 2 0 0 0 .1-1.7l.6 1c.3-.4.5-.4.4-1a2 2 0 0 0 1.1.8c-.3-.5.1-.7 0-1.3a1.4 1.4 0 0 0 1.9 1c-.7-.4-.5-.8-.7-1.2q.6.9 1.5.9c-.5-.4 0-.9-.3-1.4a1.4 1.4 0 0 0 1.7.9c-.6-.4-.1-.8-.6-1.2a3 3 0 0 0 2.3 1c-.2-.5.1-.8.1-1 .2.7.3.7.2 1q1-.7 1.4-1.2a5 5 0 0 0 2 2.2c1.1.7 3 .4 3.8 1.5q.9 1.4 0 3.5a5 5 0 0 0 .2 4.1c.8 1.3 1.5 2.5 1 3.3-.7.8-2.4 1.1-1.5 3.1.1-1 .2-1.2 1-1.6 0 1-.2 1.7.6 2.3a2 2 0 0 1 .4-1.8q.6 1.6 1.8.7c-.5-.2-1.8-1-1-2.4q1.2 1.4 2 1c.4-.2 1-.1 1.9-1.7a3 3 0 0 0 .6 2.7 6 6 0 0 0-1.4 2.7q-.2.7-1 .7c-.6.2-.4-.6-1-.6s-1.1 1-1 1.5q.1 1 .5 1.1-.9.7 0 1.5c.4.6.5.1 1 0 .4.8 1.3 1.3 1.7.6s0-1.3 0-1.9 1-.6 1.3-1.1l.5 1.3c-.3.7-.3 1.6.8 1q1.5-.6 1.1-1.7c0-.9-.7-.6-1-.5a3 3 0 0 0-.2-1.7q1.5.9 2.4-.7c-.8-.1-1-.6-1.8-.7q2.2.1 2.7-1.5c-.6.3-1-.2-1.4-.3.7-.2 1.6-.2 2-1-.5.3-1-.7-1.5-.7q1.4-.4 1.7-1.1c-.5 0-1-1-1.7-.3.6-.8 2.2-.3 2.4-1.2a2 2 0 0 1-1.6-.7c-.3-.5-.3-1.2-.8-1.2h1a2 2 0 0 1-1.2-2.4c-1 1-2.5 2-3.4 2a2 2 0 0 1-1.7-2c0-1 .3-1.2.3-2.1a5 5 0 0 0 4.5 1c3.6-.5 5.8-3.4 5.6-7.3 0-3.8-1-5.7-4.3-8.8-3-2.8-3.6-4-3.8-6.8-.1-2.9 1.2-4.7 2.8-5.1a1 1 0 0 1 1 1.6 3 3 0 0 0-.1 2.9c.6-.2.6-.4 1.3-1a4 4 0 0 0-1 4c.5 1.4 2 1.2 2.6 1.2-1-1.8.5-2.4.5-4q.3 2.8 2.6 1.5c-1.2 0-1.4-1.4-1-2.1.2-.7.6-.8 0-1.6 1.2.4 1.6-.6 1.6-1.6z" id="path7680" style="fill:none;stroke:#000;stroke-miterlimit:1.03;stroke-width:0.22px"/><path d="M798 148.6a10 10 0 0 0-3-.2c-1 .1-3-1.2-2.5-2.6a1.6 1.6 0 0 0-.3 2.5c.7 1.1 1.7 1 3 1s2.3-.2 3.1.4.4-1-.3-1.1" id="path7682" style="fill:#002369"/><path d="M798 148.6a10 10 0 0 0-3-.2c-1 .1-3-1.2-2.5-2.6a1.6 1.6 0 0 0-.3 2.5c.7 1.1 1.7 1 3 1s2.3-.2 3.1.4.4-1-.3-1.1z" id="path7684" style="fill:none;stroke:#000;stroke-miterlimit:1.03;stroke-width:0.2px"/><path d="M794.8 147.2a1 1 0 0 0 .4 1.4q.3-1 .6-1.4z" id="path7686" style="fill:#c00"/><path d="M794.8 147.2a1 1 0 0 0 .4 1.4q.3-1 .6-1.4z" id="path7688" style="fill:none;stroke:#000;stroke-miterlimit:1.03;stroke-width:0.22px"/><path d="m795.1 149.3-.1 1.1a1 1 0 0 0 1 0q-.7-.5-.9-1.1" id="path7690" style="fill:#c00"/><path d="m795.1 149.3-.1 1.1a1 1 0 0 0 1 0q-.7-.5-.9-1.1z" id="path7692" style="fill:none;stroke:#000;stroke-miterlimit:1.03;stroke-width:0.22px"/><path d="M800.2 141.8a4 4 0 0 1-1.9 1.3c-.6.1-1.5 0-1.7.5q-.3.6-1.3.5h-1.5q-.5.1 0 1 .2.8 0 1.4-.1.6.6.8a3 3 0 0 0 1.8 0c.6-.4 1 0 1.5-.3a3 3 0 0 0 .5 2.4q.3.5-.5.7a8 8 0 0 1-3 0q-.5-.4-.5.2a2 2 0 0 1-.3 1.7c.6.1.5-.1 1-.5a6 6 0 0 0 3.4-.2c-.3.8-.4 1.5-1.6 1.5s-1.5.2-1.9 1l-2.1.6a5 5 0 0 1-2.7.1 2 2 0 0 0 1.8 1.4 2 2 0 0 0-1 1.4q-.2.8-1.6 1.2c1.4.1 2.1-.2 3.3-1.7 1.3-1.4 1.1-.7 2-1-.6.5-1 .5-1.4 1.2q-.2 1-1 1.1 1.3.9 1.9-.3a2 2 0 0 1 1.8-1.4c-1 .6-1 .6-1 1.4s-.3 1.6-.8 1.3q.7 1.3 1.5.4c.5-.5.5-1 1-1.5l-1 2-.5 1c.7 0 1.7-.1 2-.6a10 10 0 0 0 1.3-3.3l-.4 2.6-.2 1q1.4 0 1.6-1.2l.2-2.2.1 2.2q0 1.2 1.2 1.4c-.3-.8.2-1-.2-2-.4-.8-.3-1-.1-1.6.3 1 .5 1 .5 1.7a1.5 1.5 0 0 0 2 1.3q-1-1-.6-4c0 2.3 1.3 3.1 2.4 2-.8-.3-1.1-.7-1-2q1.2.8 1.6-.4a1.3 1.3 0 0 1-1.2-1.5 1 1 0 0 0-.2-1.2c.9.2 1.8.3 2-.6q-1.2 0-1.4-1a2 2 0 0 0-.7-1.7q1.2.6 1.7-.8-1.5.2-1.6-1c-.1-1 .4-1.8-.5-2.3a2 2 0 0 0 .5-1.4c-.3.4-.7.9-1.4.7a2.4 2.4 0 0 0-2.3-2c.2-.6.3-.6 0-1.3" id="path7694" style="fill:#ce1126"/><path d="M800.2 141.8a4 4 0 0 1-1.9 1.3c-.6.1-1.5 0-1.7.5q-.3.6-1.3.5h-1.5q-.5.1 0 1 .2.8 0 1.4-.1.6.6.8a3 3 0 0 0 1.8 0c.6-.4 1 0 1.5-.3a3 3 0 0 0 .5 2.4q.3.5-.5.7a8 8 0 0 1-3 0q-.5-.4-.5.2a2 2 0 0 1-.3 1.7c.6.1.5-.1 1-.5a6 6 0 0 0 3.4-.2c-.3.8-.4 1.5-1.6 1.5s-1.5.2-1.9 1l-2.1.6a5 5 0 0 1-2.7.1 2 2 0 0 0 1.8 1.4 2 2 0 0 0-1 1.4q-.2.8-1.6 1.2c1.4.1 2.1-.2 3.3-1.7 1.3-1.4 1.1-.7 2-1-.6.5-1 .5-1.4 1.2q-.2 1-1 1.1 1.3.9 1.9-.3a2 2 0 0 1 1.8-1.4c-1 .6-1 .6-1 1.4s-.3 1.6-.8 1.3q.7 1.3 1.5.4c.5-.5.5-1 1-1.5l-1 2-.5 1c.7 0 1.7-.1 2-.6a10 10 0 0 0 1.3-3.3l-.4 2.6-.2 1q1.4 0 1.6-1.2l.2-2.2.1 2.2q0 1.2 1.2 1.4c-.3-.8.2-1-.2-2-.4-.8-.3-1-.1-1.6.3 1 .5 1 .5 1.7a1.5 1.5 0 0 0 2 1.3q-1-1-.6-4c0 2.3 1.3 3.1 2.4 2-.8-.3-1.1-.7-1-2q1.2.8 1.6-.4a1.3 1.3 0 0 1-1.2-1.5 1 1 0 0 0-.2-1.2c.9.2 1.8.3 2-.6q-1.2 0-1.4-1a2 2 0 0 0-.7-1.7q1.2.6 1.7-.8-1.5.2-1.6-1c-.1-1 .4-1.8-.5-2.3a2 2 0 0 0 .5-1.4c-.3.4-.7.9-1.4.7a2.4 2.4 0 0 0-2.3-2c.2-.6.3-.6 0-1.3z" id="path7696" style="fill:none;stroke:#000;stroke-miterlimit:1.03;stroke-width:0.22px"/><path d="M797.7 146.2a2 2 0 0 0 1 1.6" id="path7698" style="fill:none;stroke:#000;stroke-miterlimit:1.03;stroke-width:0.22px"/><path d="M803.8 150a3 3 0 0 1-1.4-1.7" id="path7700" style="fill:none;stroke:#000;stroke-miterlimit:1.03;stroke-width:0.22px"/><path d="M804 153.2q-.5-.4-.8-1" id="path7702" style="fill:none;stroke:#000;stroke-miterlimit:1.03;stroke-width:0.22px"/><path d="M803.8 156.4a2 2 0 0 0-.8-2.4" id="path7704" style="fill:none;stroke:#000;stroke-miterlimit:1.03;stroke-width:0.22px"/><path d="m802.4 156.4-.2-1.8" id="path7706" style="fill:none;stroke:#000;stroke-miterlimit:1.03;stroke-width:0.22px"/><path d="m797.3 153.7-2 .4c-.7.2-.4.3-1.3.8a6 6 0 0 1-2.2 1" id="path7708" style="fill:none;stroke:#000;stroke-miterlimit:1.03;stroke-width:0.22px"/><path d="M798.6 164a6 6 0 0 1 2.2 3.5" id="path7710" style="fill:none;stroke:#000;stroke-miterlimit:1.03;stroke-width:0.22px"/><path d="m794.7 163 1.5.3" id="path7712" style="fill:none;stroke:#000;stroke-miterlimit:1.03;stroke-width:0.22px"/><path d="M781.4 142a5 5 0 0 1 2.1 1.8" id="path7714" style="fill:none;stroke:#000;stroke-miterlimit:1.03;stroke-width:0.22px"/><path d="m783.4 141.7.6 1.4" id="path7716" style="fill:none;stroke:#000;stroke-miterlimit:1.03;stroke-width:0.22px"/><path d="M813 145.5q.7-.7.7-1.4" id="path7718" style="fill:none;stroke:#000;stroke-miterlimit:1.03;stroke-width:0.22px"/><path d="M813.2 148q-.5 1.7 1.4 2.3" id="path7720" style="fill:none;stroke:#000;stroke-miterlimit:1.03;stroke-width:0.22px"/><path d="m796.7 144.8.4-.6c.3.4 1 .6.8 1a2 2 0 0 1-1.7-.4z" id="path7722"/><path d="m796.7 144.8.4-.6c.3.4 1 .6.8 1a2 2 0 0 1-1.7-.4z" id="path7724" style="fill:none;stroke:#000;stroke-miterlimit:1.03;stroke-width:0.22px"/><path d="M801.2 144.9a5 5 0 0 1 2.2 1" id="path7726" style="fill:none;stroke:#000;stroke-miterlimit:1.03;stroke-width:0.22px"/><path d="M784.8 141c0-.8-1-1.5-1.7-1.5a1.4 1.4 0 0 1 .6 1.4q.6.8 1 0" id="path7728" style="fill:#002369"/><path d="M784.8 141c0-.8-1-1.5-1.7-1.5a1.4 1.4 0 0 1 .6 1.4q.6.8 1 0z" id="path7730" style="fill:none;stroke:#000;stroke-miterlimit:1.03;stroke-width:0.2px"/><path d="M782.3 140.9a1.4 1.4 0 0 0-2.2 0c1.1.2 1 .2 1.4.7q.6-.1.8-.7" id="path7732" style="fill:#002369"/><path d="M782.3 140.9a1.4 1.4 0 0 0-2.2 0c1.1.2 1 .2 1.4.7q.6-.1.8-.7z" id="path7734" style="fill:none;stroke:#000;stroke-miterlimit:1.03;stroke-width:0.2px"/><path d="M780.3 142.4q-.8-.4-1.6.8 1.5-.2 2 .4.2-.7-.4-1.2" id="path7736" style="fill:#002369"/><path d="M780.3 142.4q-.8-.4-1.6.8 1.5-.2 2 .4.2-.7-.4-1.2z" id="path7738" style="fill:none;stroke:#000;stroke-miterlimit:1.03;stroke-width:0.2px"/><path d="M781 146.4c-.6 0-1.7 0-2-.4q.7 1.7 2.2 1.2.2-.5-.3-.8" id="path7740" style="fill:#002369"/><path d="M781 146.4c-.6 0-1.7 0-2-.4q.7 1.7 2.2 1.2.2-.5-.3-.8z" id="path7742" style="fill:none;stroke:#000;stroke-miterlimit:1.03;stroke-width:0.2px"/><path d="M778.2 162.6c-.9-.4-1.7.4-1.7 1.4a1.4 1.4 0 0 1 1.5-.2z" id="path7744" style="fill:#002369"/><path d="M778.2 162.6c-.9-.4-1.7.4-1.7 1.4a1.4 1.4 0 0 1 1.5-.2z" id="path7746" style="fill:none;stroke:#000;stroke-miterlimit:1.03;stroke-width:0.2px"/><path d="M776.8 166.2a2 2 0 0 0-.1 2.5c.3-.7.6-1.6 1.2-1.7.1-.5-.5-.8-1-.8" id="path7748" style="fill:#002369"/><path d="M776.8 166.2a2 2 0 0 0-.1 2.5c.3-.7.6-1.6 1.2-1.7.1-.5-.5-.8-1-.8z" id="path7750" style="fill:none;stroke:#000;stroke-miterlimit:1.03;stroke-width:0.2px"/><path d="M779.7 168a2 2 0 0 0 .5 2.2q0-1.2.7-1.7a.8.8 0 0 0-1.2-.6" id="path7752" style="fill:#002369"/><path d="M779.7 168a2 2 0 0 0 .5 2.2q0-1.2.7-1.7a.8.8 0 0 0-1.2-.6z" id="path7754" style="fill:none;stroke:#000;stroke-miterlimit:1.03;stroke-width:0.2px"/><path d="M807.7 174.2c.7 0 .9.2 1.4-.2l-.1 1.4" id="path7756" style="fill:none;stroke:#000;stroke-miterlimit:1.03;stroke-width:0.22px"/><path d="M802 173.5c0 .7 1 1.6 1.7 1.3" id="path7758" style="fill:none;stroke:#000;stroke-miterlimit:1.03;stroke-width:0.22px"/><path d="M785 174a2 2 0 0 1 1 1 2 2 0 0 0 1 .8" id="path7760" style="fill:none;stroke:#000;stroke-miterlimit:1.03;stroke-width:0.22px"/><path d="M783.8 175.4q.8-.5 1.4.2.3.5 1 .5" id="path7762" style="fill:none;stroke:#000;stroke-miterlimit:1.03;stroke-width:0.22px"/><path d="M785.5 173c-.5-.3-1.9-.7-2.2.4a3 3 0 0 1 1.7.6q.5-.1.5-1" id="path7764" style="fill:#002369"/><path d="M785.5 173c-.5-.3-1.9-.7-2.2.4a3 3 0 0 1 1.7.6q.5-.1.5-1z" id="path7766" style="fill:none;stroke:#000;stroke-miterlimit:1.03;stroke-width:0.2px"/><path d="M783.9 174.2c-.3-.2-1.8-.2-1.3 1.4q.5-.3 1.2-.2a1 1 0 0 0 .1-1.2" id="path7768" style="fill:#002369"/><path d="M783.9 174.2c-.3-.2-1.8-.2-1.3 1.4q.5-.3 1.2-.2a1 1 0 0 0 .1-1.2z" id="path7770" style="fill:none;stroke:#000;stroke-miterlimit:1.03;stroke-width:0.2px"/><path d="M783.6 175.9c-.7-.2-2-.1-1.8 1.7a2 2 0 0 1 1.8-.5c.3-.7.3-.7 0-1.2" id="path7772" style="fill:#002369"/><path d="M783.6 175.9c-.7-.2-2-.1-1.8 1.7a2 2 0 0 1 1.8-.5c.3-.7.3-.7 0-1.2z" id="path7774" style="fill:none;stroke:#000;stroke-miterlimit:1.03;stroke-width:0.2px"/><path d="M785.4 178.8a1.7 1.7 0 0 0 .4 2.4 2 2 0 0 1 .7-1.5c-.3-.7-.3-1.4-1.1-1" id="path7776" style="fill:#002369"/><path d="M785.4 178.8a1.7 1.7 0 0 0 .4 2.4 2 2 0 0 1 .7-1.5c-.3-.7-.3-1.4-1.1-1z" id="path7778" style="fill:none;stroke:#000;stroke-miterlimit:1.03;stroke-width:0.2px"/><path d="M803.5 185.3a2 2 0 0 0 1.3-1" id="path7780" style="fill:none;stroke:#000;stroke-miterlimit:1.03;stroke-width:0.22px"/><path d="M804.4 186.9q-.1-.9.4-1l.9-1" id="path7782" style="fill:none;stroke:#000;stroke-miterlimit:1.03;stroke-width:0.22px"/><path d="M803 183.5a1.4 1.4 0 0 0-1 2.2c.4-.7.7-.6 1.1-.7.4-.5.5-1.4-.2-1.5" id="path7784" style="fill:#002369"/><path d="M803 183.5a1.4 1.4 0 0 0-1 2.2c.4-.7.7-.6 1.1-.7.4-.5.5-1.4-.2-1.5z" id="path7786" style="fill:none;stroke:#000;stroke-miterlimit:1.03;stroke-width:0.2px"/><path d="M803 186.2c-.6.6-.7 1.4.7 2q-.2-.7.2-1.2 0-1-1-.8" id="path7788" style="fill:#002369"/><path d="M803 186.2c-.6.6-.7 1.4.7 2q-.2-.7.2-1.2 0-1-1-.8z" id="path7790" style="fill:none;stroke:#000;stroke-miterlimit:1.03;stroke-width:0.2px"/><path d="M804.4 186.9c-.8.8-.8 1.9.9 2.2q-.3-1 0-1.4a.7.7 0 0 0-.9-.8" id="path7792" style="fill:#002369"/><path d="M804.4 186.9c-.8.8-.8 1.9.9 2.2q-.3-1 0-1.4a.7.7 0 0 0-.9-.8z" id="path7794" style="fill:none;stroke:#000;stroke-miterlimit:1.03;stroke-width:0.2px"/><path d="M809.8 185.6q.6 1.6-1.2 2.2.4-1.1-.2-1.5c.3-.4.7-1 1.4-.7" id="path7796" style="fill:#002369"/><path d="M809.8 185.6q.6 1.6-1.2 2.2.4-1.1-.2-1.5c.3-.4.7-1 1.4-.7z" id="path7798" style="fill:none;stroke:#000;stroke-miterlimit:1.03;stroke-width:0.2px"/><path id="polygon7800" style="fill:#f5c819" d="M836.1 134.5h-77.4v58.7h38.7v-.9h-37.8v-56.9h75.5v56.9h-37.7v.9h38.7z"/><path d="m770.2 208 2.5 3.2c1.9 3 2.5 6.3 1.4 9-2 5.7-2.9 7.1-2.9 11.7h1.5q.3-7.6 5-9.3a4 4 0 0 1 4.3 1.2c1.8 1.9 2.4 7-3 8a2.5 2.5 0 0 0-.6-3.3 2 2 0 0 0-2.4.1 4 4 0 0 0-1.4 3.3h2.5v2.8h-5.3a4 4 0 0 0 2.4 3.3 3 3 0 0 1-2.4 1.7 5 5 0 0 1-1.6 3.3 5 5 0 0 1-1.6-3.3 3 3 0 0 1-2.3-1.7 4 4 0 0 0 2.4-3.3h-5.4V232h2.6a4 4 0 0 0-1.5-3.3 2 2 0 0 0-2.3 0 2.5 2.5 0 0 0-.6 3.2c-5.5-1-5-6-3-8a4 4 0 0 1 4.3-1.2q4.5 1.7 5 9.3h1.4c0-4.6-.8-6-2.9-11.7-1-2.7-.4-6 1.5-9z" id="path7802" style="fill:#f5c819;fill-rule:evenodd"/><rect x="763.08002" y="231.73" width="14.21" height="2.96" rx="0.81999999" id="rect7804" style="fill:#f5c819"/><rect x="763.08002" y="231.73" width="14.21" height="2.96" rx="0.81999999" id="rect7806" style="fill:none;stroke-linecap:round;stroke-linejoin:round;stroke:#002369;stroke-width:0.49px"/><path d="m797.4 237.2 2.5 3.1c1.9 3 2.5 6.4 1.4 9-2 5.8-2.9 7.2-2.9 11.7h1.5q.3-7.7 4.9-9.3a4 4 0 0 1 4.4 1.3c1.8 1.8 2.4 7-3 8a2.5 2.5 0 0 0-.6-3.3 2 2 0 0 0-2.4 0 4 4 0 0 0-1.5 3.4h2.6v2.8H799a4 4 0 0 0 2.4 3.2 3 3 0 0 1-2.4 1.8 2 2 0 1 1-3.2 0 3 3 0 0 1-2.3-1.8 4 4 0 0 0 2.3-3.2h-5.3V261h2.5a4 4 0 0 0-1.5-3.3 2 2 0 0 0-2.3 0 2.5 2.5 0 0 0-.6 3.2c-5.5-1-5-6-3-8a4 4 0 0 1 4.3-1.2q4.6 1.7 5 9.3h1.4c0-4.6-.8-6-2.9-11.7-1-2.7-.4-6 1.5-9z" id="path7808" style="fill:#f5c819;fill-rule:evenodd"/><rect x="790.27002" y="260.92999" width="14.21" height="2.96" rx="0.81999999" id="rect7810" style="fill:#f5c819"/><rect x="790.27002" y="260.92999" width="14.21" height="2.96" rx="0.81999999" id="rect7812" style="fill:none;stroke-linecap:round;stroke-linejoin:round;stroke:#002369;stroke-width:0.49px"/><path d="m824.6 208 2.5 3.2c1.9 3 2.5 6.3 1.4 9-2 5.7-2.9 7.1-2.9 11.7h1.5q.4-7.6 4.9-9.3a4 4 0 0 1 4.4 1.2c1.8 1.9 2.4 7-3 8a2.5 2.5 0 0 0-.6-3.3 2 2 0 0 0-2.4.1 4 4 0 0 0-1.4 3.3h2.5v2.8h-5.3a4 4 0 0 0 2.4 3.3 3 3 0 0 1-2.4 1.7 5 5 0 0 1-1.6 3.3 5 5 0 0 1-1.6-3.3 3 3 0 0 1-2.3-1.7 4 4 0 0 0 2.3-3.3h-5.3V232h2.6a4 4 0 0 0-1.5-3.3 2 2 0 0 0-2.3 0 2.5 2.5 0 0 0-.7 3.2c-5.4-1-4.8-6-3-8a4 4 0 0 1 4.4-1.2q4.5 1.6 4.9 9.3h1.5c0-4.6-.8-6-3-11.7-1-2.7-.3-6 1.6-9z" id="path7814" style="fill:#f5c819;fill-rule:evenodd"/><rect x="817.46002" y="231.73" width="14.21" height="2.96" rx="0.81999999" id="rect7816" style="fill:#f5c819"/><rect x="817.46002" y="231.73" width="14.21" height="2.96" rx="0.81999999" id="rect7818" style="fill:none;stroke-linecap:round;stroke-linejoin:round;stroke:#002369;stroke-width:0.49px"/><path d="M669.5 133q.9 1 .9 2.6a1 1 0 0 1-1.3-.3z" id="path7820" style="fill:#002369"/><path d="M669.5 133q.9 1 .9 2.6a1 1 0 0 1-1.3-.3z" id="path7822" style="fill:none;stroke:#000;stroke-linecap:round;stroke-miterlimit:10;stroke-width:0.25px"/><path d="M665.5 133.2a2 2 0 0 1 2 .6 1 1 0 0 0-1 .8 2 2 0 0 0-1-1.4" id="path7824" style="fill:#002369"/><path d="M665.5 133.2a2 2 0 0 1 2 .6 1 1 0 0 0-1 .8 2 2 0 0 0-1-1.4z" id="path7826" style="fill:none;stroke:#000;stroke-linecap:round;stroke-miterlimit:10;stroke-width:0.25px"/><path d="M663.5 135.7a1.7 1.7 0 0 1 2.5.2 1.4 1.4 0 0 0-1 1 2 2 0 0 0-1.5-1.2" id="path7828" style="fill:#002369"/><path d="M663.5 135.7a1.7 1.7 0 0 1 2.5.2 1.4 1.4 0 0 0-1 1 2 2 0 0 0-1.5-1.2z" id="path7830" style="fill:none;stroke:#000;stroke-linecap:round;stroke-miterlimit:10;stroke-width:0.25px"/><path d="M664 140.4a3 3 0 0 1 1.6-1.4 3 3 0 0 0 .1 1.6z" id="path7832" style="fill:#002369"/><path d="M664 140.4a3 3 0 0 1 1.6-1.4 3 3 0 0 0 .1 1.6z" id="path7834" style="fill:none;stroke:#000;stroke-linecap:round;stroke-miterlimit:10;stroke-width:0.25px"/><path d="M699 145.3a2 2 0 0 1 2.3-.6q-.7.2-.7 1.1a2 2 0 0 0-1.6-.5" id="path7836" style="fill:#002369"/><path d="M699 145.3a2 2 0 0 1 2.3-.6q-.7.2-.7 1.1a2 2 0 0 0-1.6-.5Z" id="path7838" style="fill:none;stroke:#000;stroke-linecap:round;stroke-miterlimit:10;stroke-width:0.25px"/><path d="M696.4 147.5a1.6 1.6 0 0 1 2.2-1.4 2 2 0 0 0 0 1.5 2 2 0 0 0-2.2-.2" id="path7840" style="fill:#002369"/><path d="M696.4 147.5a1.6 1.6 0 0 1 2.2-1.4 2 2 0 0 0 0 1.5 2 2 0 0 0-2.2-.2z" id="path7842" style="fill:none;stroke:#000;stroke-linecap:round;stroke-miterlimit:10;stroke-width:0.25px"/><path d="M698.1 150.7a2 2 0 0 1 1.7-1.8 2 2 0 0 0 .6 1.3 5 5 0 0 0-2.3.5" id="path7844" style="fill:#002369"/><path d="M698.1 150.7a2 2 0 0 1 1.7-1.8 2 2 0 0 0 .6 1.3 5 5 0 0 0-2.3.5z" id="path7846" style="fill:none;stroke:#000;stroke-linecap:round;stroke-miterlimit:10;stroke-width:0.25px"/><path d="M703.6 152a2 2 0 0 0 1.6-1.2l-1.2-.5a2 2 0 0 1-.4 1.7" id="path7848" style="fill:#002369"/><path d="M703.6 152a2 2 0 0 0 1.6-1.2l-1.2-.5a2 2 0 0 1-.4 1.7z" id="path7850" style="fill:none;stroke:#000;stroke-linecap:round;stroke-miterlimit:10;stroke-width:0.25px"/><path d="M661.3 141.2q1.1-.6 2 .8a1 1 0 0 0-1 .7 2 2 0 0 0-1-1.5" id="path7852" style="fill:#004090"/><path d="M661.3 141.2q1.1-.6 2 .8a1 1 0 0 0-1 .7 2 2 0 0 0-1-1.5z" id="path7854" style="fill:none;stroke:#000;stroke-linecap:round;stroke-miterlimit:10;stroke-width:0.38px"/><path d="M658.6 142.2a2 2 0 0 1 2.6 0 1 1 0 0 0-1.1 1 2 2 0 0 0-1.5-1" id="path7856" style="fill:#002369"/><path d="M658.6 142.2a2 2 0 0 1 2.6 0 1 1 0 0 0-1.1 1 2 2 0 0 0-1.5-1z" id="path7858" style="fill:none;stroke:#000;stroke-linecap:round;stroke-miterlimit:10;stroke-width:0.25px"/><path d="M658.3 146.6a2 2 0 0 1 2-.9 2 2 0 0 0 .1 1.5z" id="path7860" style="fill:#002369"/><path d="M658.3 146.6a2 2 0 0 1 2-.9 2 2 0 0 0 .1 1.5z" id="path7862" style="fill:none;stroke:#000;stroke-miterlimit:10;stroke-width:0.25px"/><path d="M662.4 150.8a3 3 0 0 1 .2-2 1 1 0 0 0 1 .8 3 3 0 0 1-1.2 1.2" id="path7864" style="fill:#002369"/><path d="M662.4 150.8a3 3 0 0 1 .2-2 1 1 0 0 0 1 .8 3 3 0 0 1-1.2 1.2z" id="path7866" style="fill:none;stroke:#000;stroke-linecap:round;stroke-miterlimit:10;stroke-width:0.25px"/><path d="M736.3 150.9a3 3 0 0 1 .6-2.5 2 2 0 0 0 .9 1.2 3 3 0 0 0-1.5 1.3" id="path7868" style="fill:#002369"/><path d="M736.3 150.9a3 3 0 0 1 .6-2.5 2 2 0 0 0 .9 1.2 3 3 0 0 0-1.5 1.3z" id="path7870" style="fill:none;stroke:#000;stroke-linecap:round;stroke-miterlimit:10;stroke-width:0.25px"/><path d="M739.6 152.3a3 3 0 0 1 0-2.4 2 2 0 0 0 1 1 3 3 0 0 0-1 1.4" id="path7872" style="fill:#002369"/><path d="M739.6 152.3a3 3 0 0 1 0-2.4 2 2 0 0 0 1 1 3 3 0 0 0-1 1.4z" id="path7874" style="fill:none;stroke:#000;stroke-linecap:round;stroke-miterlimit:10;stroke-width:0.25px"/><path d="M745.8 150.4a1.4 1.4 0 0 1-2.2-.2 1 1 0 0 1 1.2-.7 1 1 0 0 0 1 .9" id="path7876" style="fill:#002369"/><path d="M745.8 150.4a1.4 1.4 0 0 1-2.2-.2 1 1 0 0 1 1.2-.7 1 1 0 0 0 1 .9z" id="path7878" style="fill:none;stroke:#000;stroke-linecap:round;stroke-miterlimit:10;stroke-width:0.25px"/><path d="M746.8 146.2a1.5 1.5 0 0 1-1.7 1.3 2 2 0 0 0 .3-1.4 2 2 0 0 0 1.4.1" id="path7880" style="fill:#002369"/><path d="M746.8 146.2a1.5 1.5 0 0 1-1.7 1.3 2 2 0 0 0 .3-1.4 2 2 0 0 0 1.4.1z" id="path7882" style="fill:none;stroke:#000;stroke-miterlimit:10;stroke-width:0.25px"/><path d="M730.4 137.7a11 11 0 0 1 3.1-1 5 5 0 0 1 3 .4l-2.6.5q-2.4.8-5.2 2a17 17 0 0 1-4 .6l-3.6-.1a6 6 0 0 0-2.8.4c-1.5.7-3 2-3 3.3.3 1.6 2.7.5 2.6 2.4q-.1.9-1.1 1.2c-.6.2-1.2.2-1.5.8l-.7 1.3a2 2 0 0 1-1.3.7 3 3 0 0 0-.3-2c-.5 1.9-.9 2.9-3 2.9a5 5 0 0 0 .8-2.6c-1 1.6-2.3 2.8-3.7 2.7a5 5 0 0 0 .3-2.2l-1.2 1.2v-1 1q-.2.9-1.6.7a1.3 1.3 0 0 1-1-1.8l.5-.3-.5.3a3 3 0 0 1-2.5 1.3 1.3 1.3 0 0 1-1-2.2h3-3q-1 .2-1.3 0a2 2 0 0 1-.2-2.4c.4-.2 1 .3 2 .5l3.3.2-3.4-.2c0-.6 0-1.5.8-1.5 1 0 2 1.7 2.6 1.7 1.8 0 6.8-.9 7-1.5 0-.7-1.2-.6-1.8-1.5a4 4 0 0 1-.4-2.3c-10.4 1.4-15.1 7.6-22.3 7.6-3 0-4.4-.8-4.9-1.3a7 7 0 0 1-2.2 2.3 2 2 0 0 1-1.8-.7 3 3 0 0 1-2.7 1.3l.1-1.6a3 3 0 0 1-3.6 0 3 3 0 0 0 1.2-1.3 4 4 0 0 1-3.7-.8 2 2 0 0 0 1.8-1.1c-1.3.6-2.8.6-3.4-1a3 3 0 0 0 1.6-.7q-2.4.3-2.9-1.7a2 2 0 0 0 1.6-.7q-.4 0-.7-.4l.4-.5-1 .3q-.7-.2-.7-1.2-.1-1 .6-1.2l1 .5-1-.5c-.5-.2-1.3-.7-1.3-1.3a1.5 1.5 0 0 1 1.5-1.4l.6.2.3.4.1 1.3-.1-1.3-.3-.4-.3-1a1 1 0 0 1 1-1.2 1.4 1.4 0 0 1 1.2 1.5 22 22 0 0 0 .6 4.5 22 22 0 0 1-.6-4.5 1 1 0 0 1 1-.3 1 1 0 0 1 .8.9q.1.5-.7 1.4a2 2 0 0 0-.5 2.5 9 9 0 0 0 1.3 2.7 8 8 0 0 0 5.3 3.2 5 5 0 0 1 3-2.8 16 16 0 0 1 6-.7l3.2.2c6.3-.1 19.4-3.8 30-4l5 .1 4 .3q1.6-.3 1.8-1.2-.1-1.7-5.6-1.5a117 117 0 0 0-16.3 1.7l-8.4 1.6c-2.7.4-5.3 1-6.4 1q-3.4 0-4-2.1v-2a7 7 0 0 0-.7-3q1.8.4 1.9 2.2a9 9 0 0 1 5.6-2 66 66 0 0 1 10 .1l6.5.8 5.2.7a26 26 0 0 0 7-.3c8.4-1.7 9-1.5 10.6-1.4a6 6 0 0 1 3.2.9h-2c-3.7.3-7.2 2.2-11.9 2.3h-4a2 2 0 0 0 1.3.4 2 2 0 0 1-1.4.7c-3.5 0-5.5-1.8-10.7-2.6a65 65 0 0 0-13.8-.7 13 13 0 0 0-3.8 1c-1 .6-1.9 1.4-1.8 2.1.1 2.3 4 1.4 6 1a2 2 0 0 0-1.2-1.5 5 5 0 0 1 4.4.8l-.6-1.5a6 6 0 0 1 4.1 1l-.9-1.5c2.4-.2 3.7 1 5 .9s11.6-1.7 18-1.8q6.6 0 6.1 2.8m-63.1-.1q0-.7-.2-1.2m-1 2 1 .5m33 9.3h3m.5.9.5-.4m2.2 1.4-.1-.9" id="path7884" style="fill:#f5c819"/><path d="M730.4 137.7a11 11 0 0 1 3.1-1 5 5 0 0 1 3 .4l-2.6.5q-2.4.8-5.2 2a17 17 0 0 1-4 .6l-3.6-.1a6 6 0 0 0-2.8.4c-1.5.7-3 2-3 3.3.3 1.6 2.7.5 2.6 2.4q-.1.9-1.1 1.2c-.6.2-1.2.2-1.5.8l-.7 1.3a2 2 0 0 1-1.3.7 3 3 0 0 0-.3-2c-.5 1.9-.9 2.9-3 2.9a5 5 0 0 0 .8-2.6c-1 1.6-2.3 2.8-3.7 2.7a5 5 0 0 0 .3-2.2l-1.2 1.2v-1 1q-.2.9-1.6.7a1.3 1.3 0 0 1-1-1.8l.5-.3-.5.3a3 3 0 0 1-2.5 1.3 1.3 1.3 0 0 1-1-2.2h3-3q-1 .2-1.3 0a2 2 0 0 1-.2-2.4c.4-.2 1 .3 2 .5l3.3.2-3.4-.2c0-.6 0-1.5.8-1.5 1 0 2 1.7 2.6 1.7 1.8 0 6.8-.9 7-1.5 0-.7-1.2-.6-1.8-1.5a4 4 0 0 1-.4-2.3c-10.4 1.4-15.1 7.6-22.3 7.6-3 0-4.4-.8-4.9-1.3a7 7 0 0 1-2.2 2.3 2 2 0 0 1-1.8-.7 3 3 0 0 1-2.7 1.3l.1-1.6a3 3 0 0 1-3.6 0 3 3 0 0 0 1.2-1.3 4 4 0 0 1-3.7-.8 2 2 0 0 0 1.8-1.1c-1.3.6-2.8.6-3.4-1a3 3 0 0 0 1.6-.7q-2.4.3-2.9-1.7a2 2 0 0 0 1.6-.7q-.4 0-.7-.4l.4-.5-1 .3q-.7-.2-.7-1.2-.1-1 .6-1.2l1 .5-1-.5c-.5-.2-1.3-.7-1.3-1.3a1.5 1.5 0 0 1 1.5-1.4l.6.2.3.4.1 1.3-.1-1.3-.3-.4-.3-1a1 1 0 0 1 1-1.2 1.4 1.4 0 0 1 1.2 1.5 22 22 0 0 0 .6 4.5 22 22 0 0 1-.6-4.5 1 1 0 0 1 1-.3 1 1 0 0 1 .8.9q.1.5-.7 1.4a2 2 0 0 0-.5 2.5 9 9 0 0 0 1.3 2.7 8 8 0 0 0 5.3 3.2 5 5 0 0 1 3-2.8 16 16 0 0 1 6-.7l3.2.2c6.3-.1 19.4-3.8 30-4l5 .1 4 .3q1.6-.3 1.8-1.2-.1-1.7-5.6-1.5a117 117 0 0 0-16.3 1.7l-8.4 1.6c-2.7.4-5.3 1-6.4 1q-3.4 0-4-2.1v-2a7 7 0 0 0-.7-3q1.8.4 1.9 2.2a9 9 0 0 1 5.6-2 66 66 0 0 1 10 .1l6.5.8 5.2.7a26 26 0 0 0 7-.3c8.4-1.7 9-1.5 10.6-1.4a6 6 0 0 1 3.2.9h-2c-3.7.3-7.2 2.2-11.9 2.3h-4a2 2 0 0 0 1.3.4 2 2 0 0 1-1.4.7c-3.5 0-5.5-1.8-10.7-2.6a65 65 0 0 0-13.8-.7 13 13 0 0 0-3.8 1c-1 .6-1.9 1.4-1.8 2.1.1 2.3 4 1.4 6 1a2 2 0 0 0-1.2-1.5 5 5 0 0 1 4.4.8l-.6-1.5a6 6 0 0 1 4.1 1l-.9-1.5c2.4-.2 3.7 1 5 .9s11.6-1.7 18-1.8q6.6 0 6.1 2.8zm-63.1-.1q0-.7-.2-1.2m-1 2 1 .5m33 9.3h3m.5.9.5-.4m2.2 1.4-.1-.9" id="path7886" style="fill:none;stroke:#000;stroke-linecap:round;stroke-miterlimit:10;stroke-width:0.38px"/><path d="M730.4 137.7a11 11 0 0 1 3.1-1 5 5 0 0 1 3 .4l-2.6.5q-2.4.8-5.2 2a17 17 0 0 1-4 .6l-3.6-.1a14 14 0 0 0 8 1.8c1.8-.1 3.6-1.6 5.6-1.6 1.2 0 1.3 1 2.5 1 1 0 1-1.2 1.8-1.7a3 3 0 0 1 2.5-.1 5 5 0 0 0-1.2 1.8l1.8-.3a3 3 0 0 1 2.5 1.3 2 2 0 0 0-2.2 1.2 3 3 0 0 1 2.6 1l-1.2.5-.4.1h.7a1.5 1.5 0 0 1 1.4 1.5 1.4 1.4 0 0 1-1 1.3l-.3.1q-1.4-.1-1.2-1.6-.2 1.5 1.2 1.6h.4q.8 1.5-.3 2.2a1 1 0 0 1-1.4-.4l-.3-.6-.6-2.2.6 2.2c0 1.5-1.3 2.4-2.5 1.7a1.3 1.3 0 0 1-.7-1.5c.1-.7 1-.8 1-1.9l-.3-1.1.2 1.1c.1 1-.8 1.2-.9 2a1.6 1.6 0 0 1-2.4-.5 1.2 1.2 0 0 1 .7-1.7c.9-.2 2.1-.1 2.4-1q-1-2.5-5.3-2.4c-5.2 0-8.4 1-11.5 1-4.1 0-6.1-2.3-7.5-3.6a3 3 0 0 0-1.5-.9 3 3 0 0 1 1.5 1 2 2 0 0 1-1.8 1 6 6 0 0 1-2.2-.6c-1.3-.4-3 0-3-.6-10.4 1.4-15.1 7.6-22.3 7.6-3 0-4.5-.9-5-1.3l.2 2.4a2 2 0 0 1-1.9-.3 2 2 0 0 1-2.2 1.4q.2-1 0-1.4-1.5 2.2-3 1.5v-1.5a3 3 0 0 1-2.7 1.8 3 3 0 0 0 .2-1.6c-.8.9-2.1 1.7-3 1.4l.5-1.8c-1.2 1-2.8 1.7-3.8 1.2a4 4 0 0 0 1-1.5 2 2 0 0 1-1.9.4l-.2-.8c-.3.6-.7 1.2-1.6.8a1.3 1.3 0 0 1-.4-1.6l.8-.1h-.8l-1.3.5c-.3 0-1.4-.5-1.3-2.2q.2-1.3 1.4-.7c.8.4 1.6 1.2 2.4 1.6l-2.4-1.6c-.7-.3-1.5-.1-1.5-1.8a1.3 1.3 0 0 1 1.3-1.4q.5 0 .9.7a7 7 0 0 0 3.6 3.1 7 7 0 0 1-3.6-3 1 1 0 0 1 1.1-1q.7.1.7 1l.3 1.7q.2.8 1.5 1.3a12 12 0 0 0 5.4 1.1 13 13 0 0 0 4.7-.7c0-1.8 1.5-3 3-3.6a16 16 0 0 1 6.2-.7l3 .3c6.4-.2 19.5-3.8 30-4l5.1.1 4 .3q1.6-.4 1.8-1.2-.1-1.8-5.6-1.5a117 117 0 0 0-16.3 1.7l-8.4 1.5c-2.7.5-5.3 1-6.4 1q-3.5 0-4-2v-2a7 7 0 0 0-.7-3q1.7.3 1.8 2.1a9 9 0 0 1 5.6-2 66 66 0 0 1 10 .2l6.6.7 5.1.7a26 26 0 0 0 7.2-.3c8.3-1.6 9-1.4 10.5-1.3a6 6 0 0 1 3.2.9h-2c-3.7.2-7.2 2.1-12 2.2h-4a2 2 0 0 0 1.4.5 2 2 0 0 1-1.4.7c-3.5 0-5.5-1.8-10.7-2.6a65 65 0 0 0-13.8-.7 13 13 0 0 0-3.8 1c-1 .6-1.9 1.4-1.8 2.1.1 2.3 4 1.4 6 1a2 2 0 0 0-1.2-1.5 5 5 0 0 1 4.4.8l-.6-1.5a6 6 0 0 1 4.2 1l-1-1.5c2.4-.2 3.7 1 5 .9s11.6-1.7 18-1.8q6.6 0 6.1 2.8m-69 7.6 2.4 1.6m-.4.8-.8.1m80.1 1.3-.7-2.1m2.2 1q-1.3-.1-1.1-1.6m.3-1.3h.4m-29.6-4.7a3 3 0 0 1 1.6 1" id="path7888" style="fill:#f5c819"/><path d="M730.4 137.7a11 11 0 0 1 3.1-1 5 5 0 0 1 3 .4l-2.6.5q-2.4.8-5.2 2a17 17 0 0 1-4 .6l-3.6-.1a14 14 0 0 0 8 1.8c1.8-.1 3.6-1.6 5.6-1.6 1.2 0 1.3 1 2.5 1 1 0 1-1.2 1.8-1.7a3 3 0 0 1 2.5-.1 5 5 0 0 0-1.2 1.8l1.8-.3a3 3 0 0 1 2.5 1.3 2 2 0 0 0-2.2 1.2 3 3 0 0 1 2.6 1l-1.2.5-.4.1h.7a1.5 1.5 0 0 1 1.4 1.5 1.4 1.4 0 0 1-1 1.3l-.3.1q-1.4-.1-1.2-1.6-.2 1.5 1.2 1.6h.4q.8 1.5-.3 2.2a1 1 0 0 1-1.4-.4l-.3-.6-.6-2.2.6 2.2c0 1.5-1.3 2.4-2.5 1.7a1.3 1.3 0 0 1-.7-1.5c.1-.7 1-.8 1-1.9l-.3-1.1.2 1.1c.1 1-.8 1.2-.9 2a1.6 1.6 0 0 1-2.4-.5 1.2 1.2 0 0 1 .7-1.7c.9-.2 2.1-.1 2.4-1q-1-2.5-5.3-2.4c-5.2 0-8.4 1-11.5 1-4.1 0-6.1-2.3-7.5-3.6a3 3 0 0 0-1.5-.9 3 3 0 0 1 1.5 1 2 2 0 0 1-1.8 1 6 6 0 0 1-2.2-.6c-1.3-.4-3 0-3-.6-10.4 1.4-15.1 7.6-22.3 7.6-3 0-4.5-.9-5-1.3l.2 2.4a2 2 0 0 1-1.9-.3 2 2 0 0 1-2.2 1.4q.2-1 0-1.4-1.5 2.2-3 1.5v-1.5a3 3 0 0 1-2.7 1.8 3 3 0 0 0 .2-1.6c-.8.9-2.1 1.7-3 1.4l.5-1.8c-1.2 1-2.8 1.7-3.8 1.2a4 4 0 0 0 1-1.5 2 2 0 0 1-1.9.4l-.2-.8c-.3.6-.7 1.2-1.6.8a1.3 1.3 0 0 1-.4-1.6l.8-.1h-.8l-1.3.5c-.3 0-1.4-.5-1.3-2.2q.2-1.3 1.4-.7c.8.4 1.6 1.2 2.4 1.6l-2.4-1.6c-.7-.3-1.5-.1-1.5-1.8a1.3 1.3 0 0 1 1.3-1.4q.5 0 .9.7a7 7 0 0 0 3.6 3.1 7 7 0 0 1-3.6-3 1 1 0 0 1 1.1-1q.7.1.7 1l.3 1.7q.2.8 1.5 1.3a12 12 0 0 0 5.4 1.1 13 13 0 0 0 4.7-.7c0-1.8 1.5-3 3-3.6a16 16 0 0 1 6.2-.7l3 .3c6.4-.2 19.5-3.8 30-4l5.1.1 4 .3q1.6-.4 1.8-1.2-.1-1.8-5.6-1.5a117 117 0 0 0-16.3 1.7l-8.4 1.5c-2.7.5-5.3 1-6.4 1q-3.5 0-4-2v-2a7 7 0 0 0-.7-3q1.7.3 1.8 2.1a9 9 0 0 1 5.6-2 66 66 0 0 1 10 .2l6.6.7 5.1.7a26 26 0 0 0 7.2-.3c8.3-1.6 9-1.4 10.5-1.3a6 6 0 0 1 3.2.9h-2c-3.7.2-7.2 2.1-12 2.2h-4a2 2 0 0 0 1.4.5 2 2 0 0 1-1.4.7c-3.5 0-5.5-1.8-10.7-2.6a65 65 0 0 0-13.8-.7 13 13 0 0 0-3.8 1c-1 .6-1.9 1.4-1.8 2.1.1 2.3 4 1.4 6 1a2 2 0 0 0-1.2-1.5 5 5 0 0 1 4.4.8l-.6-1.5a6 6 0 0 1 4.2 1l-1-1.5c2.4-.2 3.7 1 5 .9s11.6-1.7 18-1.8q6.6 0 6.1 2.8zm-69 7.6 2.4 1.6m-.4.8-.8.1m80.1 1.3-.7-2.1m2.2 1q-1.3-.1-1.1-1.6m.3-1.3h.4m-29.6-4.7a3 3 0 0 1 1.6 1" id="path7890" style="fill:none;stroke:#000;stroke-linecap:round;stroke-miterlimit:10;stroke-width:0.38px"/><path d="M689.5 137.5q.2-1.1 1.8-2a13 13 0 0 1 3.8-1 65 65 0 0 1 13.8.6c5.2.8 7.2 2.6 10.7 2.6a2 2 0 0 0 1.4-.7 2 2 0 0 1-1.5-.6h4c4.7 0 8.2-2 12-2.3h2a6 6 0 0 0-3.3-.9c-1.5 0-2.2-.2-10.5 1.4a26 26 0 0 1-7.1.3l-5.2-.7-6.5-.7a66 66 0 0 0-10-.2 9 9 0 0 0-5.6 2q-.1-2-1.8-2a7 7 0 0 1 .6 3v1.8" id="path7892" style="fill:#f5c819"/><path d="M689.5 137.5q.2-1.1 1.8-2a13 13 0 0 1 3.8-1 65 65 0 0 1 13.8.6c5.2.8 7.2 2.6 10.7 2.6a2 2 0 0 0 1.4-.7 2 2 0 0 1-1.5-.6h4c4.7 0 8.2-2 12-2.3h2a6 6 0 0 0-3.3-.9c-1.5 0-2.2-.2-10.5 1.4a26 26 0 0 1-7.1.3l-5.2-.7-6.5-.7a66 66 0 0 0-10-.2 9 9 0 0 0-5.6 2q-.1-2-1.8-2a7 7 0 0 1 .6 3v1.8" id="path7894" style="fill:none;stroke:#000;stroke-linecap:round;stroke-miterlimit:10;stroke-width:0.38px"/><path d="M675.5 147.8a4 4 0 0 0 2.2-.7q.1 1 1.4 1.5a3 3 0 0 0 1.9-1.6 2 2 0 0 1 .8 1.4q2.4-2.5 1.4-3.7a1 1 0 0 1 .6.9q1.7-.6 1-3.7a1 1 0 0 0 .9-.2 2 2 0 0 0 .5-1.5q.2-.8-.2-1.4h-.8v-.6l.6-.9v-1l-1 .5a2 2 0 0 0 0-2 2 2 0 0 0-1.1.7 2 2 0 0 0-.7-2 2 2 0 0 0-1.4 1.7 3 3 0 0 0-1.2-1.6 4 4 0 0 0-1.1 2 2 2 0 0 0-1-1 3 3 0 0 0-.7 1.5l-.4.2q-.1-.6-.7-.4a2 2 0 0 0-1.2 1.3c-.3 1.4.3 2 .9 1.9l-.2.9-.9.7a2 2 0 0 0-.4 1.6l.7-.1a3 3 0 0 0-.8 3.5l1-1a4 4 0 0 0-.3 2.2l.2 1" id="path7896" style="fill:#f5c819"/><path d="M675.5 147.8a4 4 0 0 0 2.2-.7q.1 1 1.4 1.5a3 3 0 0 0 1.9-1.6 2 2 0 0 1 .8 1.4q2.4-2.5 1.4-3.7a1 1 0 0 1 .6.9q1.7-.6 1-3.7a1 1 0 0 0 .9-.2 2 2 0 0 0 .5-1.5q.2-.8-.2-1.4h-.8v-.6l.6-.9v-1l-1 .5a2 2 0 0 0 0-2 2 2 0 0 0-1.1.7 2 2 0 0 0-.7-2 2 2 0 0 0-1.4 1.7 3 3 0 0 0-1.2-1.6 4 4 0 0 0-1.1 2 2 2 0 0 0-1-1 3 3 0 0 0-.7 1.5l-.4.2q-.1-.6-.7-.4a2 2 0 0 0-1.2 1.3c-.3 1.4.3 2 .9 1.9l-.2.9-.9.7a2 2 0 0 0-.4 1.6l.7-.1a3 3 0 0 0-.8 3.5l1-1a4 4 0 0 0-.3 2.2l.2 1z" id="path7898" style="fill:none;stroke:#000;stroke-linecap:round;stroke-miterlimit:10;stroke-width:0.38px"/><path d="M677 144.6a5 5 0 0 1 3.7 1.3q.3-.7.4-1.7l.6-1.3h-.4a1.2 1.2 0 0 1-1.3-1.1 2 2 0 0 1-1.8.5l-.3-.1a5 5 0 0 1-.9 2.4" id="path7900"/><path d="M677 144.6a5 5 0 0 1 3.7 1.3q.3-.7.4-1.7l.6-1.3h-.4a1.2 1.2 0 0 1-1.3-1.1 2 2 0 0 1-1.8.5l-.3-.1a5 5 0 0 1-.9 2.4z" id="path7902" style="fill:none;stroke:#000;stroke-linecap:round;stroke-miterlimit:10;stroke-width:0.38px"/><path d="M678.1 145.3c-.1.5-.7.8-.5 1 .3.4 2.3-.7 2.8-1.6l.6-1.7a1.3 1.3 0 0 1-1-1.2 2 2 0 0 1-1.5.6q0 1.5-.4 3" id="path7904" style="fill:#002369"/><path d="M678.1 145.3c-.1.5-.7.8-.5 1 .3.4 2.3-.7 2.8-1.6l.6-1.7a1.3 1.3 0 0 1-1-1.2 2 2 0 0 1-1.5.6q0 1.5-.4 3z" id="path7906" style="fill:none;stroke:#000;stroke-linecap:round;stroke-miterlimit:10;stroke-width:0.25px"/><path d="M675.3 137.3a2 2 0 0 1 1.2-1.3q.6-.1.7.4l.4-.2a3 3 0 0 1 .7-1.6 2 2 0 0 1 1 1 4 4 0 0 1 1.1-2 3 3 0 0 1 1.2 1.7 2 2 0 0 1 1.4-1.7 2 2 0 0 1 .7 2 2 2 0 0 1 1.1-.7 2 2 0 0 1 0 2l1-.6v1.1l-.6.8v.7h.8q.5.6.2 1.3a2 2 0 0 1-.5 1.6 1 1 0 0 1-1.2.1 2 2 0 0 1-1.2.9 1 1 0 0 1-1-.7 1 1 0 0 1-1 1 1.2 1.2 0 0 1-1.3-1.3 2 2 0 0 1-1.8.5q-1.1-.4-.8-1.8-.8.5-1.2 0a1 1 0 0 1 0-1.3c-.6 0-1.2-.6-.9-2m1 1a1 1 0 0 0 .4-1.2m8.2 4a1 1 0 0 1 .5-1.4" id="path7908" style="fill:#f5c819"/><path d="M675.3 137.3a2 2 0 0 1 1.2-1.3q.6-.1.7.4l.4-.2a3 3 0 0 1 .7-1.6 2 2 0 0 1 1 1 4 4 0 0 1 1.1-2 3 3 0 0 1 1.2 1.7 2 2 0 0 1 1.4-1.7 2 2 0 0 1 .7 2 2 2 0 0 1 1.1-.7 2 2 0 0 1 0 2l1-.6v1.1l-.6.8v.7h.8q.5.6.2 1.3a2 2 0 0 1-.5 1.6 1 1 0 0 1-1.2.1 2 2 0 0 1-1.2.9 1 1 0 0 1-1-.7 1 1 0 0 1-1 1 1.2 1.2 0 0 1-1.3-1.3 2 2 0 0 1-1.8.5q-1.1-.4-.8-1.8-.8.5-1.2 0a1 1 0 0 1 0-1.3c-.6 0-1.2-.6-.9-2zm1 1a1 1 0 0 0 .4-1.2m8.2 4a1 1 0 0 1 .5-1.4" id="path7910" style="fill:none;stroke:#000;stroke-linecap:round;stroke-miterlimit:10;stroke-width:0.38px"/><path d="m680 141.8.3-.4 1-.6a3 3 0 0 0-1.7-.6l.4 1z" id="path7912"/><path d="M680 141.8v0l.3-.4 1-.6a3 3 0 0 0-1.7-.6l.4 1z" id="path7914" style="fill:none;stroke:#000;stroke-linecap:round;stroke-miterlimit:10;stroke-width:0.38px"/><path d="M679.3 138.7q-.4.7-.7.6-.4-.3-.1-1t.7-.5 0 1" id="path7916"/><path d="M679.3 138.7q-.4.7-.7.6-.4-.3-.1-1t.7-.5 0 1z" id="path7918" style="fill:none;stroke:#000;stroke-linejoin:round;stroke-width:0.38px;stroke-linecap:square"/><path d="m679.3 139.5.7-.6.4-.7.2-.4" id="path7920" style="fill:none;stroke:#000;stroke-linecap:round;stroke-miterlimit:10;stroke-width:0.38px"/><path d="m680.6 137.8-.2.4-1.2-.4-1.4-.6.2 1.5.6.6q.9.4 1.8-1.1z" id="path7922" style="fill:none;stroke:#000;stroke-miterlimit:10;stroke-width:0.38px"/><path d="M683.3 140q-.3.6-.7.5-.4-.2 0-.9.1-.5.6-.4z" id="path7924"/><path d="M683.3 140q-.3.6-.7.5-.4-.2 0-.9.1-.5.6-.4z" id="path7926" style="fill:none;stroke:#000;stroke-linecap:round;stroke-miterlimit:10;stroke-width:0.38px"/><path d="m682.2 138.1-.1.4-.2 1.2a1 1 0 0 0 .7.8c1 .4 1.7-.4 2-.6l-1.4-.7-1.1-.7z" id="path7928" style="fill:none;stroke:#000;stroke-miterlimit:10;stroke-width:0.38px"/><path d="m682.2 138.1-.3 1 .1 1.3" id="path7930" style="fill:none;stroke:#000;stroke-linecap:round;stroke-miterlimit:10;stroke-width:0.38px"/><path d="M669.5 154.4q.9.8.9 2.5a1 1 0 0 1-1.3-.3z" id="path7932" style="fill:#002369"/><path d="M669.5 154.4q.9.8.9 2.5a1 1 0 0 1-1.3-.3z" id="path7934" style="fill:none;stroke:#000;stroke-linecap:round;stroke-miterlimit:10;stroke-width:0.25px"/><path d="M665.5 154.5a2 2 0 0 1 2 .6 1 1 0 0 0-1 .8 2 2 0 0 0-1-1.4" id="path7936" style="fill:#002369"/><path d="M665.5 154.5a2 2 0 0 1 2 .6 1 1 0 0 0-1 .8 2 2 0 0 0-1-1.4z" id="path7938" style="fill:none;stroke:#000;stroke-linecap:round;stroke-miterlimit:10;stroke-width:0.25px"/><path d="M663.5 157a1.7 1.7 0 0 1 2.5.2 1.4 1.4 0 0 0-1 1 2 2 0 0 0-1.5-1.2" id="path7940" style="fill:#002369"/><path d="M663.5 157a1.7 1.7 0 0 1 2.5.2 1.4 1.4 0 0 0-1 1 2 2 0 0 0-1.5-1.2z" id="path7942" style="fill:none;stroke:#000;stroke-linecap:round;stroke-miterlimit:10;stroke-width:0.25px"/><path d="M664 161.7a3 3 0 0 1 1.6-1.4 3 3 0 0 0 .1 1.6z" id="path7944" style="fill:#002369"/><path d="M664 161.7a3 3 0 0 1 1.6-1.4 3 3 0 0 0 .1 1.6z" id="path7946" style="fill:none;stroke:#000;stroke-linecap:round;stroke-miterlimit:10;stroke-width:0.25px"/><path d="M699 166.6a2 2 0 0 1 2.3-.5q-.7 0-.7 1a2 2 0 0 0-1.6-.5" id="path7948" style="fill:#002369"/><path d="M699 166.6a2 2 0 0 1 2.3-.5q-.7 0-.7 1a2 2 0 0 0-1.6-.5Z" id="path7950" style="fill:none;stroke:#000;stroke-linecap:round;stroke-miterlimit:10;stroke-width:0.25px"/><path d="M696.4 168.8a1.6 1.6 0 0 1 2.2-1.4 2 2 0 0 0 0 1.5 3 3 0 0 0-2.2-.1" id="path7952" style="fill:#002369"/><path d="M696.4 168.8a1.6 1.6 0 0 1 2.2-1.4 2 2 0 0 0 0 1.5 3 3 0 0 0-2.2-.1z" id="path7954" style="fill:none;stroke:#000;stroke-linecap:round;stroke-miterlimit:10;stroke-width:0.25px"/><path d="M698.1 172a2 2 0 0 1 1.7-1.8 2 2 0 0 0 .6 1.3 6 6 0 0 0-2.3.5" id="path7956" style="fill:#002369"/><path d="M698.1 172a2 2 0 0 1 1.7-1.8 2 2 0 0 0 .6 1.3 6 6 0 0 0-2.3.5z" id="path7958" style="fill:none;stroke:#000;stroke-linecap:round;stroke-miterlimit:10;stroke-width:0.25px"/><path d="M703.6 173.3a2 2 0 0 0 1.6-1.2l-1.2-.4a2 2 0 0 1-.4 1.6" id="path7960" style="fill:#002369"/><path d="M703.6 173.3a2 2 0 0 0 1.6-1.2l-1.2-.4a2 2 0 0 1-.4 1.6z" id="path7962" style="fill:none;stroke:#000;stroke-linecap:round;stroke-miterlimit:10;stroke-width:0.25px"/><path d="M661.3 162.5q1.1-.5 2 .8a1 1 0 0 0-1 .7 2 2 0 0 0-1-1.5" id="path7964" style="fill:#002369"/><path d="M661.3 162.5q1.1-.5 2 .8a1 1 0 0 0-1 .7 2 2 0 0 0-1-1.5z" id="path7966" style="fill:none;stroke:#000;stroke-linecap:round;stroke-miterlimit:10;stroke-width:0.25px"/><path d="M658.6 163.5a2 2 0 0 1 2.6 0 1 1 0 0 0-1.1 1 2 2 0 0 0-1.5-1" id="path7968" style="fill:#002369"/><path d="M658.6 163.5a2 2 0 0 1 2.6 0 1 1 0 0 0-1.1 1 2 2 0 0 0-1.5-1z" id="path7970" style="fill:none;stroke:#000;stroke-linecap:round;stroke-miterlimit:10;stroke-width:0.25px"/><path d="M658.3 167.9a2 2 0 0 1 2-.9 2 2 0 0 0 .1 1.5z" id="path7972" style="fill:#002369"/><path d="M658.3 167.9a2 2 0 0 1 2-.9 2 2 0 0 0 .1 1.5z" id="path7974" style="fill:none;stroke:#000;stroke-miterlimit:10;stroke-width:0.25px"/><path d="M662.4 172a3 3 0 0 1 .2-1.8 1 1 0 0 0 1 .7 3 3 0 0 1-1.2 1.2" id="path7976" style="fill:#002369"/><path d="M662.4 172a3 3 0 0 1 .2-1.8 1 1 0 0 0 1 .7 3 3 0 0 1-1.2 1.2z" id="path7978" style="fill:none;stroke:#000;stroke-linecap:round;stroke-miterlimit:10;stroke-width:0.25px"/><path d="M736.3 172.2a3 3 0 0 1 .6-2.5 2 2 0 0 0 .9 1.2 3 3 0 0 0-1.5 1.3" id="path7980" style="fill:#002369"/><path d="M736.3 172.2a3 3 0 0 1 .6-2.5 2 2 0 0 0 .9 1.2 3 3 0 0 0-1.5 1.3z" id="path7982" style="fill:none;stroke:#000;stroke-linecap:round;stroke-miterlimit:10;stroke-width:0.25px"/><path d="M739.6 173.6a3 3 0 0 1 0-2.4 2 2 0 0 0 1 1 3 3 0 0 0-1 1.4" id="path7984" style="fill:#002369"/><path d="M739.6 173.6a3 3 0 0 1 0-2.4 2 2 0 0 0 1 1 3 3 0 0 0-1 1.4z" id="path7986" style="fill:none;stroke:#000;stroke-linecap:round;stroke-miterlimit:10;stroke-width:0.25px"/><path d="M745.8 171.7a1.4 1.4 0 0 1-2.2-.2 1 1 0 0 1 1.2-.7 1 1 0 0 0 1 .9" id="path7988" style="fill:#002369"/><path d="M745.8 171.7a1.4 1.4 0 0 1-2.2-.2 1 1 0 0 1 1.2-.7 1 1 0 0 0 1 .9z" id="path7990" style="fill:none;stroke:#000;stroke-linecap:round;stroke-miterlimit:10;stroke-width:0.25px"/><path d="M746.8 167.5a1.5 1.5 0 0 1-1.7 1.3 2 2 0 0 0 .3-1.4 2 2 0 0 0 1.4.1" id="path7992" style="fill:#002369"/><path d="M746.8 167.5a1.5 1.5 0 0 1-1.7 1.3 2 2 0 0 0 .3-1.4 2 2 0 0 0 1.4.1z" id="path7994" style="fill:none;stroke:#000;stroke-miterlimit:10;stroke-width:0.25px"/><path d="M677.5 170.4a2 2 0 0 0 1.8.7 7 7 0 0 0 2.2-2.3c.5.4 1.9 1.3 4.9 1.3 7.2 0 12-6.3 22.3-7.6a4 4 0 0 0 .4 2.2c.6 1 1.8 1 1.7 1.5 0 .6-5 1.5-7 1.6-.5 0-1.6-1.8-2.5-1.8-.7 0-.9 1-.8 1.5l3.3.3-3.3-.3c-1-.2-1.5-.7-1.9-.4a2 2 0 0 0 .1 2.4q.3.2 1.4 0h3-3a1.3 1.3 0 0 0 1 2.2 3 3 0 0 0 2.5-1.3l.5-.4-.5.4a1.3 1.3 0 0 0 1 1.8q1.5.2 1.6-.8l-.1-.9v1l1.3-1.2a5 5 0 0 1-.3 2.1c1.4.2 2.7-1 3.7-2.7a5 5 0 0 1-.9 2.6c2.2 0 2.6-1 3-2.8a3 3 0 0 1 .3 2 2 2 0 0 0 1.4-.7l.7-1.3c.3-.6.9-.6 1.5-.8q1-.4 1.1-1.2c0-2-2.3-.8-2.5-2.4-.2-1.3 1.4-2.6 2.9-3.3a6 6 0 0 1 2.8-.5l3.5.1a17 17 0 0 0 4-.6q3-1 5.3-2l2.6-.5a5 5 0 0 0-3-.3 11 11 0 0 0-3.1 1c.2-1.3-1.9-3.6-6.1-3.6-6.5 0-16.7 2.5-18 2.5s-2.6-1.1-5-.9l1 1.6a6 6 0 0 0-4.3-1l.6 1.4a5 5 0 0 0-4.3-.8 2 2 0 0 1 1.1 1.6c-1.8.4-5.8 1.2-6-1q.1-1.3 1.9-2.1a13 13 0 0 1 3.8-1 65 65 0 0 1 13.7.7c5.2.7 7.3 2.5 10.7 2.5a2 2 0 0 0 1.5-.7 2 2 0 0 1-1.5-.5h2c3.7-.1 8.1-3.7 11.8-4h2a4 4 0 0 0-3.2-.8c-3.8 0-7.4 2-10.5 2.2a33 33 0 0 0 4-3.7c-2.6 0-5.5 3.1-9 4-2.4.7-7.5-.3-11.7-.7a66 66 0 0 0-10-.1 9 9 0 0 0-5.6 2q-.1-2-1.9-2.1a7 7 0 0 1 .7 3v1.8q.6 2.3 4 2.1l14.7-2.5c5.8-1 11.4-2.2 16.4-2.4 3.6-.1 5.7 1 5.7 2.2 0 .5-.9 1-1.8 1.2l-4-.3-5.2-.1c-10.4.2-23.6 3.8-29.9 4l-3-.3a16 16 0 0 0-6.2.8 5 5 0 0 0-3 2.8 8 8 0 0 1-5.3-3.2 9 9 0 0 1-1.2-2.7 2 2 0 0 1 .4-2.5q.8-1 .7-1.4a1 1 0 0 0-.8-1 1 1 0 0 0-1 .4 22 22 0 0 0 .7 4.5 22 22 0 0 1-.6-4.5 1.4 1.4 0 0 0-1.3-1.5 1 1 0 0 0-1 1.2l.3 1 .3.4.2 1.2-.2-1.2-.3-.4-.6-.2a1.5 1.5 0 0 0-1.5 1.4c0 .6.8 1.1 1.3 1.2l1 .6-1-.6q-.6.1-.5 1.3t.6 1.2l1-.3-.4.4q.3.4.8.5a2 2 0 0 1-1.6.6q.4 2.2 2.8 1.8a3 3 0 0 1-1.5.6c.5 1.6 2 1.7 3.3 1a2 2 0 0 1-1.7 1.2 4 4 0 0 0 3.6.8 3 3 0 0 1-1.1 1.3 3 3 0 0 0 3.5 0v1.6a3 3 0 0 0 2.8-1.1m-10.2-11.5q0-.7-.2-1.2m-1 2 1 .5m33 9.3h3m.5.9.5-.4m2.2 1.4-.1-.9" id="path7996" style="fill:#f5c819"/><path d="M677.5 170.4a2 2 0 0 0 1.8.7 7 7 0 0 0 2.2-2.3c.5.4 1.9 1.3 4.9 1.3 7.2 0 12-6.3 22.3-7.6a4 4 0 0 0 .4 2.2c.6 1 1.8 1 1.7 1.5 0 .6-5 1.5-7 1.6-.5 0-1.6-1.8-2.5-1.8-.7 0-.9 1-.8 1.5l3.3.3-3.3-.3c-1-.2-1.5-.7-1.9-.4a2 2 0 0 0 .1 2.4q.3.2 1.4 0h3-3a1.3 1.3 0 0 0 1 2.2 3 3 0 0 0 2.5-1.3l.5-.4-.5.4a1.3 1.3 0 0 0 1 1.8q1.5.2 1.6-.8l-.1-.9v1l1.3-1.2a5 5 0 0 1-.3 2.1c1.4.2 2.7-1 3.7-2.7a5 5 0 0 1-.9 2.6c2.2 0 2.6-1 3-2.8a3 3 0 0 1 .3 2 2 2 0 0 0 1.4-.7l.7-1.3c.3-.6.9-.6 1.5-.8q1-.4 1.1-1.2c0-2-2.3-.8-2.5-2.4-.2-1.3 1.4-2.6 2.9-3.3a6 6 0 0 1 2.8-.5l3.5.1a17 17 0 0 0 4-.6q3-1 5.3-2l2.6-.5a5 5 0 0 0-3-.3 11 11 0 0 0-3.1 1c.2-1.3-1.9-3.6-6.1-3.6-6.5 0-16.7 2.5-18 2.5s-2.6-1.1-5-.9l1 1.6a6 6 0 0 0-4.3-1l.6 1.4a5 5 0 0 0-4.3-.8 2 2 0 0 1 1.1 1.6c-1.8.4-5.8 1.2-6-1q.1-1.3 1.9-2.1a13 13 0 0 1 3.8-1 65 65 0 0 1 13.7.7c5.2.7 7.3 2.5 10.7 2.5a2 2 0 0 0 1.5-.7 2 2 0 0 1-1.5-.5h2c3.7-.1 8.1-3.7 11.8-4h2a4 4 0 0 0-3.2-.8c-3.8 0-7.4 2-10.5 2.2a33 33 0 0 0 4-3.7c-2.6 0-5.5 3.1-9 4-2.4.7-7.5-.3-11.7-.7a66 66 0 0 0-10-.1 9 9 0 0 0-5.6 2q-.1-2-1.9-2.1a7 7 0 0 1 .7 3v1.8q.6 2.3 4 2.1l14.7-2.5c5.8-1 11.4-2.2 16.4-2.4 3.6-.1 5.7 1 5.7 2.2 0 .5-.9 1-1.8 1.2l-4-.3-5.2-.1c-10.4.2-23.6 3.8-29.9 4l-3-.3a16 16 0 0 0-6.2.8 5 5 0 0 0-3 2.8 8 8 0 0 1-5.3-3.2 9 9 0 0 1-1.2-2.7 2 2 0 0 1 .4-2.5q.8-1 .7-1.4a1 1 0 0 0-.8-1 1 1 0 0 0-1 .4 22 22 0 0 0 .7 4.5 22 22 0 0 1-.6-4.5 1.4 1.4 0 0 0-1.3-1.5 1 1 0 0 0-1 1.2l.3 1 .3.4.2 1.2-.2-1.2-.3-.4-.6-.2a1.5 1.5 0 0 0-1.5 1.4c0 .6.8 1.1 1.3 1.2l1 .6-1-.6q-.6.1-.5 1.3t.6 1.2l1-.3-.4.4q.3.4.8.5a2 2 0 0 1-1.6.6q.4 2.2 2.8 1.8a3 3 0 0 1-1.5.6c.5 1.6 2 1.7 3.3 1a2 2 0 0 1-1.7 1.2 4 4 0 0 0 3.6.8 3 3 0 0 1-1.1 1.3 3 3 0 0 0 3.5 0v1.6a3 3 0 0 0 2.8-1.1zm-10.2-11.5q0-.7-.2-1.2m-1 2 1 .5m33 9.3h3m.5.9.5-.4m2.2 1.4-.1-.9" id="path7998" style="fill:none;stroke:#000;stroke-linecap:round;stroke-miterlimit:10;stroke-width:0.38px"/><path d="m685 163.4 3 .2c6.4 0 19.6-3.8 30-4 1.4 0 4.1 0 5.2.2l4 .2q1.6-.3 1.8-1.2c0-1.2-2-2.3-5.7-2.2-5 .2-10.6 1.4-16.3 2.5l-8.4 1.5c-2.6.5-5.3 1-6.3 1q-3.6 0-4-2.1v-2a7 7 0 0 0-.8-3q1.8.4 1.9 2.2a9 9 0 0 1 5.6-2 66 66 0 0 1 10 .1c4.2.4 9.2 1.4 11.7.8 3.5-1 6.4-4 9-4a33 33 0 0 1-4 3.7c3.1-.3 6.7-2.2 10.5-2.3a4 4 0 0 1 3.2.9h-2c-3.7.3-8.1 3.8-11.9 3.9h-2a2 2 0 0 0 1.6.6 2 2 0 0 1-1.5.6c-3.4 0-5.5-1.7-10.7-2.5a65 65 0 0 0-13.7-.7 13 13 0 0 0-3.8 1c-1 .5-2 1.4-1.9 2 .2 2.4 4.1 1.5 6 1a2 2 0 0 0-1.1-1.4 5 5 0 0 1 4.3.8l-.6-1.5a6 6 0 0 1 4.2 1l-.9-1.6c2.4-.2 3.6 1 5 1 1.2-.1 11.5-2.5 18-2.5 4.2 0 6.3 2.2 6 3.5a11 11 0 0 1 3.2-1 5 5 0 0 1 3 .4l-2.6.5q-2.4.8-5.2 2a17 17 0 0 1-4.1.6q-2 0-3.5-.2a14 14 0 0 0 7.9 2c1.9-.2 3.7-1.8 5.7-1.7 1.2 0 1.3 1 2.5 1 1 0 1-1.2 1.8-1.7a3 3 0 0 1 2.5-.1 5 5 0 0 0-1.2 1.7l1.8-.2a3 3 0 0 1 2.5 1.3 2 2 0 0 0-2.2 1.2 3 3 0 0 1 2.6 1l-1.2.5-.4.1.4-.1h.3a1.5 1.5 0 0 1 1.4 1.5 1.4 1.4 0 0 1-1 1.4h-.3a1.2 1.2 0 0 1-1.2-1.5 1.2 1.2 0 0 0 1.2 1.6h.4q.8 1.5-.3 2.2a1 1 0 0 1-1.5-.4l-.2-.6-.7-2.2.7 2.2c-.1 1.5-1.4 2.4-2.6 1.7a1.3 1.3 0 0 1-.6-1.5c0-.7 1-.8.9-1.9l-.3-1.1.3 1.1c0 1-.8 1.2-1 2a1.6 1.6 0 0 1-2.4-.5 1.2 1.2 0 0 1 .7-1.7c.9-.2 2.1-.1 2.4-1q-1-2.4-5.3-2.4c-5.2 0-8.4 1-11.5 1-4.1 0-6.1-2.3-7.5-3.6a3 3 0 0 0-1.6-.9 3 3 0 0 1 1.6 1 2 2 0 0 1-1.8 1 6 6 0 0 1-2.2-.5c-1.3-.4-3 0-3-.6-10.4 1.3-15.2 7.5-22.3 7.6-3 0-4.5-1-5-1.4l.2 2.4a2 2 0 0 1-2-.3 2 2 0 0 1-2.1 1.5q.2-1 0-1.4-1.5 2.1-3 1.5a3 3 0 0 0 0-1.6 3 3 0 0 1-2.7 1.8 3 3 0 0 0 .2-1.6c-.8 1-2.1 1.8-3 1.4l.5-1.7c-1.2 1-2.8 1.6-3.8 1.1l1-1.4a2 2 0 0 1-1.9.3l-.2-.8c-.3.6-.7 1.2-1.6.8a1.3 1.3 0 0 1-.5-1.6h.9-.9l-1.2.4c-.3 0-1.4-.4-1.3-2.1 0-1.1.7-1.1 1.3-.8l2.5 1.6c-.8-.4-1.6-1.2-2.5-1.6-.6-.3-1.5 0-1.4-1.8a1.3 1.3 0 0 1 1.3-1.3q.5 0 .9.6l.7 1.1a10 10 0 0 0 2.9 2 10 10 0 0 1-2.9-2l-.7-1a1 1 0 0 1 1.1-1q.7.2.7 1.1l.3 1.6q.2 1 1.5 1.4a12 12 0 0 0 5.3 1 13 13 0 0 0 4.8-.6c0-1.8 1.5-3 3-3.6a16 16 0 0 1 6.1-1m-23.6 3.2 2.4 1.7m-.4.8h-.8m80 1.4-.6-2.2m2.3 1a1.2 1.2 0 0 1-1.2-1.6m.4-1.3h.4m-29.7-4.7a3 3 0 0 1 1.6 1" id="path8000" style="fill:#f5c819"/><path d="m685 163.4 3 .2c6.4 0 19.6-3.8 30-4 1.4 0 4.1 0 5.2.2l4 .2q1.6-.3 1.8-1.2c0-1.2-2-2.3-5.7-2.2-5 .2-10.6 1.4-16.3 2.5l-8.4 1.5c-2.6.5-5.3 1-6.3 1q-3.6 0-4-2.1v-2a7 7 0 0 0-.8-3q1.8.4 1.9 2.2a9 9 0 0 1 5.6-2 66 66 0 0 1 10 .1c4.2.4 9.2 1.4 11.7.8 3.5-1 6.4-4 9-4a33 33 0 0 1-4 3.7c3.1-.3 6.7-2.2 10.5-2.3a4 4 0 0 1 3.2.9h-2c-3.7.3-8.1 3.8-11.9 3.9h-2a2 2 0 0 0 1.6.6 2 2 0 0 1-1.5.6c-3.4 0-5.5-1.7-10.7-2.5a65 65 0 0 0-13.7-.7 13 13 0 0 0-3.8 1c-1 .5-2 1.4-1.9 2 .2 2.4 4.1 1.5 6 1a2 2 0 0 0-1.1-1.4 5 5 0 0 1 4.3.8l-.6-1.5a6 6 0 0 1 4.2 1l-.9-1.6c2.4-.2 3.6 1 5 1 1.2-.1 11.5-2.5 18-2.5 4.2 0 6.3 2.2 6 3.5a11 11 0 0 1 3.2-1 5 5 0 0 1 3 .4l-2.6.5q-2.4.8-5.2 2a17 17 0 0 1-4.1.6q-2 0-3.5-.2a14 14 0 0 0 7.9 2c1.9-.2 3.7-1.8 5.7-1.7 1.2 0 1.3 1 2.5 1 1 0 1-1.2 1.8-1.7a3 3 0 0 1 2.5-.1 5 5 0 0 0-1.2 1.7l1.8-.2a3 3 0 0 1 2.5 1.3 2 2 0 0 0-2.2 1.2 3 3 0 0 1 2.6 1l-1.2.5-.4.1.4-.1h.3a1.5 1.5 0 0 1 1.4 1.5 1.4 1.4 0 0 1-1 1.4h-.3a1.2 1.2 0 0 1-1.2-1.5 1.2 1.2 0 0 0 1.2 1.6h.4q.8 1.5-.3 2.2a1 1 0 0 1-1.5-.4l-.2-.6-.7-2.2.7 2.2c-.1 1.5-1.4 2.4-2.6 1.7a1.3 1.3 0 0 1-.6-1.5c0-.7 1-.8.9-1.9l-.3-1.1.3 1.1c0 1-.8 1.2-1 2a1.6 1.6 0 0 1-2.4-.5 1.2 1.2 0 0 1 .7-1.7c.9-.2 2.1-.1 2.4-1q-1-2.4-5.3-2.4c-5.2 0-8.4 1-11.5 1-4.1 0-6.1-2.3-7.5-3.6a3 3 0 0 0-1.6-.9 3 3 0 0 1 1.6 1 2 2 0 0 1-1.8 1 6 6 0 0 1-2.2-.5c-1.3-.4-3 0-3-.6-10.4 1.3-15.2 7.5-22.3 7.6-3 0-4.5-1-5-1.4l.2 2.4a2 2 0 0 1-2-.3 2 2 0 0 1-2.1 1.5q.2-1 0-1.4-1.5 2.1-3 1.5a3 3 0 0 0 0-1.6 3 3 0 0 1-2.7 1.8 3 3 0 0 0 .2-1.6c-.8 1-2.1 1.8-3 1.4l.5-1.7c-1.2 1-2.8 1.6-3.8 1.1l1-1.4a2 2 0 0 1-1.9.3l-.2-.8c-.3.6-.7 1.2-1.6.8a1.3 1.3 0 0 1-.5-1.6h.9-.9l-1.2.4c-.3 0-1.4-.4-1.3-2.1 0-1.1.7-1.1 1.3-.8l2.5 1.6c-.8-.4-1.6-1.2-2.5-1.6-.6-.3-1.5 0-1.4-1.8a1.3 1.3 0 0 1 1.3-1.3q.5 0 .9.6l.7 1.1a10 10 0 0 0 2.9 2 10 10 0 0 1-2.9-2l-.7-1a1 1 0 0 1 1.1-1q.7.2.7 1.1l.3 1.6q.2 1 1.5 1.4a12 12 0 0 0 5.3 1 13 13 0 0 0 4.8-.6c0-1.8 1.5-3 3-3.6a16 16 0 0 1 6.1-1zm-23.6 3.2 2.4 1.7m-.4.8h-.8m80 1.4-.6-2.2m2.3 1a1.2 1.2 0 0 1-1.2-1.6m.4-1.3h.4m-29.7-4.7a3 3 0 0 1 1.6 1" id="path8002" style="fill:none;stroke:#000;stroke-linecap:round;stroke-miterlimit:10;stroke-width:0.38px"/><path d="M688.2 159.5v-1.9a7 7 0 0 0-.7-3q1.7.2 1.8 2.1a9 9 0 0 1 5.6-2 66 66 0 0 1 10 .2c4.2.3 9.3 1.4 11.7.7 3.5-.9 6.4-4 9.1-4a33 33 0 0 1-4 3.7c3-.3 6.6-2.2 10.4-2.3a4 4 0 0 1 3.2 1h-2c-3.7.2-8.1 3.8-11.8 3.8h-2a2 2 0 0 0 1.5.6 2 2 0 0 1-1.4.7c-3.5 0-5.5-1.8-10.8-2.6a65 65 0 0 0-13.7-.6 13 13 0 0 0-3.8 1c-1 .5-1.9 1.3-1.8 2" id="path8004" style="fill:#f5c819"/><path d="M688.2 159.5v-1.9a7 7 0 0 0-.7-3q1.7.2 1.8 2.1a9 9 0 0 1 5.6-2 66 66 0 0 1 10 .2c4.2.3 9.3 1.4 11.7.7 3.5-.9 6.4-4 9.1-4a33 33 0 0 1-4 3.7c3-.3 6.6-2.2 10.4-2.3a4 4 0 0 1 3.2 1h-2c-3.7.2-8.1 3.8-11.8 3.8h-2a2 2 0 0 0 1.5.6 2 2 0 0 1-1.4.7c-3.5 0-5.5-1.8-10.8-2.6a65 65 0 0 0-13.7-.6 13 13 0 0 0-3.8 1c-1 .5-1.9 1.3-1.8 2" id="path8006" style="fill:none;stroke:#000;stroke-linecap:round;stroke-miterlimit:10;stroke-width:0.38px"/><path d="M675.5 169.1a4 4 0 0 0 2.2-.7q.1 1 1.4 1.5a3 3 0 0 0 1.9-1.6 2 2 0 0 1 .7 1.4c1.8-1.9 2-2.8 1.5-3.8a1 1 0 0 1 .6 1q1.5-.6 1-3.7l.8-.2a2 2 0 0 0 .6-1.6q.1-.7-.2-1.3h-.8v-.7l.5-.8v-1l-1 .4a2 2 0 0 0 0-1.9l-1 .7a2 2 0 0 0-.7-2 2 2 0 0 0-1.5 1.7 3 3 0 0 0-1.1-1.6 4 4 0 0 0-1.2 2 2 2 0 0 0-1-1 3 3 0 0 0-.6 1.5l-.4.3q-.2-.7-.8-.5a2 2 0 0 0-1.1 1.3c-.3 1.4.3 2 .8 2l-.1.8-1 .7a2 2 0 0 0-.4 1.6l.8-.1a3 3 0 0 0-.8 3.5l1-.9a4 4 0 0 0-.3 2.2z" id="path8008" style="fill:#f5c819"/><path d="M675.5 169.1a4 4 0 0 0 2.2-.7q.1 1 1.4 1.5a3 3 0 0 0 1.9-1.6 2 2 0 0 1 .7 1.4c1.8-1.9 2-2.8 1.5-3.8a1 1 0 0 1 .6 1q1.5-.6 1-3.7l.8-.2a2 2 0 0 0 .6-1.6q.1-.7-.2-1.3h-.8v-.7l.5-.8v-1l-1 .4a2 2 0 0 0 0-1.9l-1 .7a2 2 0 0 0-.7-2 2 2 0 0 0-1.5 1.7 3 3 0 0 0-1.1-1.6 4 4 0 0 0-1.2 2 2 2 0 0 0-1-1 3 3 0 0 0-.6 1.5l-.4.3q-.2-.7-.8-.5a2 2 0 0 0-1.1 1.3c-.3 1.4.3 2 .8 2l-.1.8-1 .7a2 2 0 0 0-.4 1.6l.8-.1a3 3 0 0 0-.8 3.5l1-.9a4 4 0 0 0-.3 2.2z" id="path8010" style="fill:none;stroke:#000;stroke-linecap:round;stroke-miterlimit:10;stroke-width:0.38px"/><path d="M677 165.9a5 5 0 0 1 3.7 1.3q.3-.7.4-1.6l.6-1.4-.4.1a1.2 1.2 0 0 1-1.3-1.2 2 2 0 0 1-1.8.5l-.3-.1a5 5 0 0 1-.9 2.4" id="path8012"/><path d="M677 165.9a5 5 0 0 1 3.7 1.3q.3-.7.4-1.6l.6-1.4-.4.1a1.2 1.2 0 0 1-1.3-1.2 2 2 0 0 1-1.8.5l-.3-.1a5 5 0 0 1-.9 2.4z" id="path8014" style="fill:none;stroke:#000;stroke-linecap:round;stroke-miterlimit:10;stroke-width:0.38px"/><path d="M678.1 166.6c-.1.5-.7.8-.5 1.1.3.3 2.3-.8 2.8-1.7l.6-1.7a1.3 1.3 0 0 1-1-1.2 2 2 0 0 1-1.5.6q0 1.5-.4 3" id="path8016" style="fill:#002369"/><path d="M678.1 166.6c-.1.5-.7.8-.5 1.1.3.3 2.3-.8 2.8-1.7l.6-1.7a1.3 1.3 0 0 1-1-1.2 2 2 0 0 1-1.5.6q0 1.5-.4 3z" id="path8018" style="fill:none;stroke:#000;stroke-linecap:round;stroke-miterlimit:10;stroke-width:0.25px"/><path d="M675.3 158.6a2 2 0 0 1 1.2-1.3q.6-.1.7.4l.4-.2a3 3 0 0 1 .7-1.6 2 2 0 0 1 1 1 4 4 0 0 1 1.1-1.9 3 3 0 0 1 1.2 1.6 2 2 0 0 1 1.4-1.7 2 2 0 0 1 .7 2 2 2 0 0 1 1.1-.7 2 2 0 0 1 0 1.9l1-.5v1l-.6.9v.7h.8c.4.2.3.9.2 1.3a2 2 0 0 1-.5 1.6 1 1 0 0 1-1.2 0 2 2 0 0 1-1.2 1 1 1 0 0 1-1-.7 1 1 0 0 1-1 1 1.2 1.2 0 0 1-1.3-1.2 2 2 0 0 1-1.8.5q-1.1-.5-.8-1.8-.8.4-1.2 0a1 1 0 0 1 0-1.3c-.6 0-1.2-.6-.9-2m1 1a1 1 0 0 0 .4-1.2m8.2 4a1 1 0 0 1 .5-1.4" id="path8020" style="fill:#f5c819"/><path d="M675.3 158.6a2 2 0 0 1 1.2-1.3q.6-.1.7.4l.4-.2a3 3 0 0 1 .7-1.6 2 2 0 0 1 1 1 4 4 0 0 1 1.1-1.9 3 3 0 0 1 1.2 1.6 2 2 0 0 1 1.4-1.7 2 2 0 0 1 .7 2 2 2 0 0 1 1.1-.7 2 2 0 0 1 0 1.9l1-.5v1l-.6.9v.7h.8c.4.2.3.9.2 1.3a2 2 0 0 1-.5 1.6 1 1 0 0 1-1.2 0 2 2 0 0 1-1.2 1 1 1 0 0 1-1-.7 1 1 0 0 1-1 1 1.2 1.2 0 0 1-1.3-1.2 2 2 0 0 1-1.8.5q-1.1-.5-.8-1.8-.8.4-1.2 0a1 1 0 0 1 0-1.3c-.6 0-1.2-.6-.9-2zm1 1a1 1 0 0 0 .4-1.2m8.2 4a1 1 0 0 1 .5-1.4" id="path8022" style="fill:none;stroke:#000;stroke-linecap:round;stroke-miterlimit:10;stroke-width:0.38px"/><path d="m680 163.1.3-.4 1-.6a3 3 0 0 0-1.7-.6l.4 1.1z" id="path8024"/><path d="M680 163.1v0l.3-.4 1-.6a3 3 0 0 0-1.7-.6l.4 1.1z" id="path8026" style="fill:none;stroke:#000;stroke-linecap:round;stroke-miterlimit:10;stroke-width:0.38px"/><path d="M679.3 160q-.4.6-.7.5-.4-.1-.1-.9.4-.6.7-.5.4.1 0 .9" id="path8028"/><path d="M679.3 160q-.4.6-.7.5-.4-.1-.1-.9.4-.6.7-.5.4.1 0 .9z" id="path8030" style="fill:none;stroke:#000;stroke-linejoin:round;stroke-width:0.38px;stroke-linecap:square"/><path d="m679.3 160.8.7-.6.4-.7.2-.4" id="path8032" style="fill:none;stroke:#000;stroke-linecap:round;stroke-miterlimit:10;stroke-width:0.38px"/><path d="m680.6 159-.2.5-1.2-.4-1.4-.6.2 1.6.6.5q.9.4 1.8-1.1z" id="path8034" style="fill:none;stroke:#000;stroke-miterlimit:10;stroke-width:0.38px"/><path d="M683.3 161.4q-.3.5-.7.4-.4-.2 0-.8.1-.6.6-.5a1 1 0 0 1 .1.9" id="path8036"/><path d="M683.3 161.4q-.3.5-.7.4-.4-.2 0-.8.1-.6.6-.5a1 1 0 0 1 .1.9z" id="path8038" style="fill:none;stroke:#000;stroke-linecap:round;stroke-miterlimit:10;stroke-width:0.38px"/><path d="m682.2 159.4-.1.4-.2 1.2a1 1 0 0 0 .7.8 2 2 0 0 0 2-.6l-1.4-.7-1.1-.7z" id="path8040" style="fill:none;stroke:#000;stroke-miterlimit:10;stroke-width:0.38px"/><path d="m682.2 159.4-.1.4-.2.5.1 1.4" id="path8042" style="fill:none;stroke:#000;stroke-linecap:round;stroke-miterlimit:10;stroke-width:0.38px"/><path d="M669.5 176q.9 1 .9 2.6a1 1 0 0 1-1.3-.3z" id="path8044" style="fill:#002369"/><path d="M669.5 176q.9 1 .9 2.6a1 1 0 0 1-1.3-.3z" id="path8046" style="fill:none;stroke:#000;stroke-linecap:round;stroke-miterlimit:10;stroke-width:0.25px"/><path d="M665.5 176.2a2 2 0 0 1 2 .6 1 1 0 0 0-1 .8 2 2 0 0 0-1-1.4" id="path8048" style="fill:#002369"/><path d="M665.5 176.2a2 2 0 0 1 2 .6 1 1 0 0 0-1 .8 2 2 0 0 0-1-1.4z" id="path8050" style="fill:none;stroke:#000;stroke-linecap:round;stroke-miterlimit:10;stroke-width:0.25px"/><path d="M663.5 178.7a1.7 1.7 0 0 1 2.5.2 1.4 1.4 0 0 0-1 1 2 2 0 0 0-1.5-1.2" id="path8052" style="fill:#002369"/><path d="M663.5 178.7a1.7 1.7 0 0 1 2.5.2 1.4 1.4 0 0 0-1 1 2 2 0 0 0-1.5-1.2z" id="path8054" style="fill:none;stroke:#000;stroke-linecap:round;stroke-miterlimit:10;stroke-width:0.25px"/><path d="M664 183.4a3 3 0 0 1 1.6-1.4 3 3 0 0 0 .1 1.6z" id="path8056" style="fill:#002369"/><path d="M664 183.4a3 3 0 0 1 1.6-1.4 3 3 0 0 0 .1 1.6z" id="path8058" style="fill:none;stroke:#000;stroke-linecap:round;stroke-miterlimit:10;stroke-width:0.25px"/><path d="M699 188.3a2 2 0 0 1 2.3-.6q-.7.2-.7 1.1a2 2 0 0 0-1.6-.5" id="path8060" style="fill:#002369"/><path d="M699 188.3a2 2 0 0 1 2.3-.6q-.7.2-.7 1.1a2 2 0 0 0-1.6-.5Z" id="path8062" style="fill:none;stroke:#000;stroke-linecap:round;stroke-miterlimit:10;stroke-width:0.25px"/><path d="M696.4 190.5a1.6 1.6 0 0 1 2.2-1.4 2 2 0 0 0 0 1.5 3 3 0 0 0-2.2-.2" id="path8064" style="fill:#002369"/><path d="M696.4 190.5a1.6 1.6 0 0 1 2.2-1.4 2 2 0 0 0 0 1.5 3 3 0 0 0-2.2-.2z" id="path8066" style="fill:none;stroke:#000;stroke-linecap:round;stroke-miterlimit:10;stroke-width:0.25px"/><path d="M698.1 193.7a2 2 0 0 1 1.7-1.8 2 2 0 0 0 .6 1.3 6 6 0 0 0-2.3.5" id="path8068" style="fill:#002369"/><path d="M698.1 193.7a2 2 0 0 1 1.7-1.8 2 2 0 0 0 .6 1.3 6 6 0 0 0-2.3.5z" id="path8070" style="fill:none;stroke:#000;stroke-linecap:round;stroke-miterlimit:10;stroke-width:0.25px"/><path d="M703.6 195a2 2 0 0 0 1.6-1.2l-1.2-.5a2 2 0 0 1-.4 1.7" id="path8072" style="fill:#002369"/><path d="M703.6 195a2 2 0 0 0 1.6-1.2l-1.2-.5a2 2 0 0 1-.4 1.7z" id="path8074" style="fill:none;stroke:#000;stroke-linecap:round;stroke-miterlimit:10;stroke-width:0.25px"/><path d="M661.3 184.2q1.1-.6 2 .8a1 1 0 0 0-1 .7 2 2 0 0 0-1-1.5" id="path8076" style="fill:#002369"/><path d="M661.3 184.2q1.1-.6 2 .8a1 1 0 0 0-1 .7 2 2 0 0 0-1-1.5z" id="path8078" style="fill:none;stroke:#000;stroke-linecap:round;stroke-miterlimit:10;stroke-width:0.25px"/><path d="M658.6 185.2a2 2 0 0 1 2.6 0 1 1 0 0 0-1.1 1 2 2 0 0 0-1.5-1" id="path8080" style="fill:#002369"/><path d="M658.6 185.2a2 2 0 0 1 2.6 0 1 1 0 0 0-1.1 1 2 2 0 0 0-1.5-1z" id="path8082" style="fill:none;stroke:#000;stroke-linecap:round;stroke-miterlimit:10;stroke-width:0.25px"/><path d="M658.3 189.6a2 2 0 0 1 2-.9 2 2 0 0 0 .1 1.5z" id="path8084" style="fill:#002369"/><path d="M658.3 189.6a2 2 0 0 1 2-.9 2 2 0 0 0 .1 1.5z" id="path8086" style="fill:none;stroke:#000;stroke-miterlimit:10;stroke-width:0.25px"/><path d="M662.4 193.8a3 3 0 0 1 .2-2 1 1 0 0 0 1 .8 3 3 0 0 1-1.2 1.2" id="path8088" style="fill:#002369"/><path d="M662.4 193.8a3 3 0 0 1 .2-2 1 1 0 0 0 1 .8 3 3 0 0 1-1.2 1.2z" id="path8090" style="fill:none;stroke:#000;stroke-linecap:round;stroke-miterlimit:10;stroke-width:0.25px"/><path d="M736.3 193.9a3 3 0 0 1 .6-2.5 2 2 0 0 0 .9 1.2 3 3 0 0 0-1.5 1.3" id="path8092" style="fill:#002369"/><path d="M736.3 193.9a3 3 0 0 1 .6-2.5 2 2 0 0 0 .9 1.2 3 3 0 0 0-1.5 1.3z" id="path8094" style="fill:none;stroke:#000;stroke-linecap:round;stroke-miterlimit:10;stroke-width:0.25px"/><path d="M739.6 195.3a3 3 0 0 1 0-2.4 2 2 0 0 0 1 1 3 3 0 0 0-1 1.4" id="path8096" style="fill:#002369"/><path d="M739.6 195.3a3 3 0 0 1 0-2.4 2 2 0 0 0 1 1 3 3 0 0 0-1 1.4z" id="path8098" style="fill:none;stroke:#000;stroke-miterlimit:10;stroke-width:0.25px"/><path d="M745.8 193.4a1.4 1.4 0 0 1-2.2-.2 1 1 0 0 1 1.2-.7 1 1 0 0 0 1 .9" id="path8100" style="fill:#002369"/><path d="M745.8 193.4a1.4 1.4 0 0 1-2.2-.2 1 1 0 0 1 1.2-.7 1 1 0 0 0 1 .9z" id="path8102" style="fill:none;stroke:#000;stroke-linecap:round;stroke-miterlimit:10;stroke-width:0.25px"/><path d="M746.8 189.2a1.5 1.5 0 0 1-1.7 1.3 2 2 0 0 0 .3-1.4 2 2 0 0 0 1.4.1" id="path8104" style="fill:#002369"/><path d="M746.8 189.2a1.5 1.5 0 0 1-1.7 1.3 2 2 0 0 0 .3-1.4 2 2 0 0 0 1.4.1z" id="path8106" style="fill:none;stroke:#000;stroke-miterlimit:10;stroke-width:0.25px"/><path d="M677.5 192a2 2 0 0 0 1.8.8 7 7 0 0 0 2.2-2.4c.5.5 1.9 1.4 4.9 1.4 7.2 0 12-6.3 22.3-7.6a4 4 0 0 0 .4 2.2c.6 1 1.8 1 1.7 1.5 0 .5-5 1.5-7 1.6-.5 0-1.6-1.8-2.5-1.8-.7 0-.9 1-.8 1.5l3.3.3-3.3-.3c-1-.2-1.5-.7-1.9-.4a2 2 0 0 0 .1 2.4q.3.2 1.4 0h3-3a1.3 1.3 0 0 0 1 2.2 3 3 0 0 0 2.5-1.3l.5-.4-.5.4a1.3 1.3 0 0 0 1 1.7q1.5.2 1.6-.7l-.1-.9v1l1.4-1.2a5 5 0 0 1-.4 2.1c1.5.2 2.8-1 3.7-2.7a5 5 0 0 1-.8 2.7c2.2 0 2.6-1 3-2.8a3 3 0 0 1 .3 2 2 2 0 0 0 1.4-.8l.6-1.3c.4-.6 1-.6 1.5-.8q1-.4 1.2-1.2c0-2-2.3-.8-2.6-2.4-.1-1.2 1.4-2.6 3-3.3a6 6 0 0 1 2.8-.5l3.5.2a17 17 0 0 0 4-.7c2-.5 3.7-1.5 5.3-2l2.6-.4a5 5 0 0 0-3-.4 11 11 0 0 0-3.1 1c.2-1.3-1.9-3.6-6.1-3.5-6.5 0-16.8 2.4-18.1 2.4s-2.5-1-4.9-.9l.9 1.6a6 6 0 0 0-4.2-1l.6 1.5a5 5 0 0 0-4.4-.8 2 2 0 0 1 1.2 1.5c-1.9.4-5.8 1.2-6-1q.1-1.3 1.9-2a13 13 0 0 1 3.8-1 65 65 0 0 1 13.7.6c5.2.8 7.2 2.6 10.7 2.5a2 2 0 0 0 1.4-.6 2 2 0 0 1-1.5-.6h2c3.7 0 8.2-3.6 11.9-3.9h2a4 4 0 0 0-3.2-.9c-3.8 0-7.4 2-10.6 2.3a33 33 0 0 0 4.1-3.7c-2.7 0-5.6 3-9 4-2.5.6-7.5-.4-11.8-.7a66 66 0 0 0-10-.2 9 9 0 0 0-5.6 2q-.2-2-1.8-2a7 7 0 0 1 .7 3v1.8q.5 2.2 4 2.1c1 0 3.7-.5 6.4-1l8.3-1.5c5.8-1 11.3-2.3 16.4-2.5q5.5.2 5.6 2.3-.1.8-1.8 1.1l-4-.2-5.1-.2c-10.5.2-23.6 3.9-30 4l-3-.2a16 16 0 0 0-6.2.7 5 5 0 0 0-3 2.8 8 8 0 0 1-5.2-3.1 9 9 0 0 1-1.3-2.8 2 2 0 0 1 .5-2.5q.8-1 .7-1.4a1 1 0 0 0-.9-.9 1 1 0 0 0-.9.3 22 22 0 0 0 .6 4.5 22 22 0 0 1-.6-4.5 1.4 1.4 0 0 0-1.3-1.4 1 1 0 0 0-1 1.1l.4 1 .2.5.2 1.2q0-.7-.2-1.2l-.2-.5-.6-.2a1.5 1.5 0 0 0-1.5 1.5c0 .6.7 1 1.2 1.2l1 .5-1-.5q-.5.1-.5 1.3 0 1 .7 1.2l1-.4-.4.5q.2.4.7.4a2 2 0 0 1-1.6.7q.4 2.1 2.8 1.7a3 3 0 0 1-1.5.7c.5 1.6 2.1 1.6 3.4 1a2 2 0 0 1-1.8 1.1 4 4 0 0 0 3.6.8 3 3 0 0 1-1 1.4 3 3 0 0 0 3.5 0l-.1 1.6a3 3 0 0 0 2.8-1.2m-10.2-11.4q0-.7-.2-1.2m-1 2 1 .5m33 9.3h3m.5.9.5-.4m2.2 1.4-.1-.9" id="path8108" style="fill:#f5c819"/><path d="M677.5 192a2 2 0 0 0 1.8.8 7 7 0 0 0 2.2-2.4c.5.5 1.9 1.4 4.9 1.4 7.2 0 12-6.3 22.3-7.6a4 4 0 0 0 .4 2.2c.6 1 1.8 1 1.7 1.5 0 .5-5 1.5-7 1.6-.5 0-1.6-1.8-2.5-1.8-.7 0-.9 1-.8 1.5l3.3.3-3.3-.3c-1-.2-1.5-.7-1.9-.4a2 2 0 0 0 .1 2.4q.3.2 1.4 0h3-3a1.3 1.3 0 0 0 1 2.2 3 3 0 0 0 2.5-1.3l.5-.4-.5.4a1.3 1.3 0 0 0 1 1.7q1.5.2 1.6-.7l-.1-.9v1l1.4-1.2a5 5 0 0 1-.4 2.1c1.5.2 2.8-1 3.7-2.7a5 5 0 0 1-.8 2.7c2.2 0 2.6-1 3-2.8a3 3 0 0 1 .3 2 2 2 0 0 0 1.4-.8l.6-1.3c.4-.6 1-.6 1.5-.8q1-.4 1.2-1.2c0-2-2.3-.8-2.6-2.4-.1-1.2 1.4-2.6 3-3.3a6 6 0 0 1 2.8-.5l3.5.2a17 17 0 0 0 4-.7c2-.5 3.7-1.5 5.3-2l2.6-.4a5 5 0 0 0-3-.4 11 11 0 0 0-3.1 1c.2-1.3-1.9-3.6-6.1-3.5-6.5 0-16.8 2.4-18.1 2.4s-2.5-1-4.9-.9l.9 1.6a6 6 0 0 0-4.2-1l.6 1.5a5 5 0 0 0-4.4-.8 2 2 0 0 1 1.2 1.5c-1.9.4-5.8 1.2-6-1q.1-1.3 1.9-2a13 13 0 0 1 3.8-1 65 65 0 0 1 13.7.6c5.2.8 7.2 2.6 10.7 2.5a2 2 0 0 0 1.4-.6 2 2 0 0 1-1.5-.6h2c3.7 0 8.2-3.6 11.9-3.9h2a4 4 0 0 0-3.2-.9c-3.8 0-7.4 2-10.6 2.3a33 33 0 0 0 4.1-3.7c-2.7 0-5.6 3-9 4-2.5.6-7.5-.4-11.8-.7a66 66 0 0 0-10-.2 9 9 0 0 0-5.6 2q-.2-2-1.8-2a7 7 0 0 1 .7 3v1.8q.5 2.2 4 2.1c1 0 3.7-.5 6.4-1l8.3-1.5c5.8-1 11.3-2.3 16.4-2.5q5.5.2 5.6 2.3-.1.8-1.8 1.1l-4-.2-5.1-.2c-10.5.2-23.6 3.9-30 4l-3-.2a16 16 0 0 0-6.2.7 5 5 0 0 0-3 2.8 8 8 0 0 1-5.2-3.1 9 9 0 0 1-1.3-2.8 2 2 0 0 1 .5-2.5q.8-1 .7-1.4a1 1 0 0 0-.9-.9 1 1 0 0 0-.9.3 22 22 0 0 0 .6 4.5 22 22 0 0 1-.6-4.5 1.4 1.4 0 0 0-1.3-1.4 1 1 0 0 0-1 1.1l.4 1 .2.5.2 1.2q0-.7-.2-1.2l-.2-.5-.6-.2a1.5 1.5 0 0 0-1.5 1.5c0 .6.7 1 1.2 1.2l1 .5-1-.5q-.5.1-.5 1.3 0 1 .7 1.2l1-.4-.4.5q.2.4.7.4a2 2 0 0 1-1.6.7q.4 2.1 2.8 1.7a3 3 0 0 1-1.5.7c.5 1.6 2.1 1.6 3.4 1a2 2 0 0 1-1.8 1.1 4 4 0 0 0 3.6.8 3 3 0 0 1-1 1.4 3 3 0 0 0 3.5 0l-.1 1.6a3 3 0 0 0 2.8-1.2zm-10.2-11.4q0-.7-.2-1.2m-1 2 1 .5m33 9.3h3m.5.9.5-.4m2.2 1.4-.1-.9" id="path8110" style="fill:none;stroke:#000;stroke-linecap:round;stroke-miterlimit:10;stroke-width:0.38px"/><path d="m685 185 3 .3c6.4-.1 19.6-3.8 30-4l5.2.1 4 .3q1.6-.3 1.8-1.2c0-1.2-2-2.3-5.7-2.2-5 .2-10.6 1.4-16.3 2.4l-8.4 1.6c-2.6.4-5.3 1-6.3 1q-3.6 0-4-2.1v-2a7 7 0 0 0-.8-3q1.8.4 1.9 2.2a9 9 0 0 1 5.6-2 66 66 0 0 1 10 .1c4.2.4 9.2 1.4 11.7.8 3.5-1 6.4-4 9-4a33 33 0 0 1-4 3.7c3.1-.4 6.7-2.3 10.5-2.3a4 4 0 0 1 3.2.9h-2c-3.7.3-8.1 3.8-11.9 3.9h-2a2 2 0 0 0 1.5.5 2 2 0 0 1-1.4.7c-3.5 0-5.5-1.8-10.7-2.6a65 65 0 0 0-13.8-.6 13 13 0 0 0-3.8 1c-1 .5-1.9 1.3-1.8 2 .1 2.3 4 1.5 6 1a2 2 0 0 0-1.2-1.5 5 5 0 0 1 4.4.8l-.6-1.5a6 6 0 0 1 4.2 1l-1-1.5c2.4-.2 3.7 1 5 .9s11.6-2.4 18-2.5c4.3 0 6.4 2.3 6.1 3.6a11 11 0 0 1 3.1-1 5 5 0 0 1 3 .3l-2.6.5-5.2 2a17 17 0 0 1-4 .6l-3.6-.1a14 14 0 0 0 8 1.8c1.8 0 3.6-1.6 5.6-1.6 1.2 0 1.4 1 2.5 1 1 0 1-1.2 1.8-1.7a3 3 0 0 1 2.6 0 5 5 0 0 0-1.3 1.7l1.8-.3a3 3 0 0 1 2.5 1.3 2 2 0 0 0-2.2 1.3 3 3 0 0 1 2.6 1l-1.2.4-.4.1h.7a1.5 1.5 0 0 1 1.4 1.5 1.4 1.4 0 0 1-1 1.4h-.3a1.2 1.2 0 0 1-1.2-1.6 1.2 1.2 0 0 0 1.2 1.6h.4q.8 1.6-.3 2.2a1 1 0 0 1-1.4-.3l-.3-.7-.6-2.2.7 2.2c-.2 1.5-1.4 2.4-2.6 1.7a1.3 1.3 0 0 1-.7-1.5c.1-.7 1-.8 1-1.9l-.3-1.1.2 1.1c.1 1-.8 1.2-.9 2a1.6 1.6 0 0 1-2.4-.5 1.2 1.2 0 0 1 .7-1.7c.9-.2 2.1-.1 2.4-1q-1-2.5-5.3-2.4c-5.2 0-8.4 1-11.5 1-4.1 0-6.1-2.3-7.5-3.6a3 3 0 0 0-1.5-.9 3 3 0 0 1 1.5 1 2 2 0 0 1-1.8 1 6 6 0 0 1-2.2-.6c-1.3-.4-3 0-3-.6-10.4 1.4-15.1 7.6-22.3 7.6-3 0-4.5-.9-5-1.3l.2 2.4a2 2 0 0 1-1.9-.3 2 2 0 0 1-2.2 1.4q.2-1 0-1.4-1.5 2.3-3 1.5v-1.5a3 3 0 0 1-2.7 1.8 3 3 0 0 0 .2-1.6c-.8.9-2.1 1.7-3 1.4l.5-1.8c-1.2 1-2.8 1.7-3.8 1.2a4 4 0 0 0 1-1.5 2 2 0 0 1-1.9.4l-.2-.8c-.3.6-.7 1.2-1.6.8a1.3 1.3 0 0 1-.4-1.6l.8-.1h-.8l-1.3.5c-.3 0-1.4-.5-1.3-2.2q.2-1.3 1.4-.7l2.4 1.6-2.4-1.6c-.7-.3-1.5-.1-1.5-1.8a1.3 1.3 0 0 1 1.3-1.4q.5 0 .9.7l.7 1a10 10 0 0 0 2.9 2 10 10 0 0 1-2.9-2l-.7-1a1 1 0 0 1 1.1-1q.7.1.7 1.2l.3 1.6q.2.8 1.5 1.3a12 12 0 0 0 5.4 1.1 13 13 0 0 0 4.7-.7c0-1.8 1.5-3 3-3.6a16 16 0 0 1 6.1-.7m-23.6 3.3 2.4 1.6m-.4.8-.8.1m80 1.4-.6-2.2m2.2 1a1.2 1.2 0 0 1-1.1-1.6m.3-1.2.4-.2m-29.6-4.6a3 3 0 0 1 1.6 1" id="path8112" style="fill:#f5c819"/><path d="m685 185 3 .3c6.4-.1 19.6-3.8 30-4l5.2.1 4 .3q1.6-.3 1.8-1.2c0-1.2-2-2.3-5.7-2.2-5 .2-10.6 1.4-16.3 2.4l-8.4 1.6c-2.6.4-5.3 1-6.3 1q-3.6 0-4-2.1v-2a7 7 0 0 0-.8-3q1.8.4 1.9 2.2a9 9 0 0 1 5.6-2 66 66 0 0 1 10 .1c4.2.4 9.2 1.4 11.7.8 3.5-1 6.4-4 9-4a33 33 0 0 1-4 3.7c3.1-.4 6.7-2.3 10.5-2.3a4 4 0 0 1 3.2.9h-2c-3.7.3-8.1 3.8-11.9 3.9h-2a2 2 0 0 0 1.5.5 2 2 0 0 1-1.4.7c-3.5 0-5.5-1.8-10.7-2.6a65 65 0 0 0-13.8-.6 13 13 0 0 0-3.8 1c-1 .5-1.9 1.3-1.8 2 .1 2.3 4 1.5 6 1a2 2 0 0 0-1.2-1.5 5 5 0 0 1 4.4.8l-.6-1.5a6 6 0 0 1 4.2 1l-1-1.5c2.4-.2 3.7 1 5 .9s11.6-2.4 18-2.5c4.3 0 6.4 2.3 6.1 3.6a11 11 0 0 1 3.1-1 5 5 0 0 1 3 .3l-2.6.5-5.2 2a17 17 0 0 1-4 .6l-3.6-.1a14 14 0 0 0 8 1.8c1.8 0 3.6-1.6 5.6-1.6 1.2 0 1.4 1 2.5 1 1 0 1-1.2 1.8-1.7a3 3 0 0 1 2.6 0 5 5 0 0 0-1.3 1.7l1.8-.3a3 3 0 0 1 2.5 1.3 2 2 0 0 0-2.2 1.3 3 3 0 0 1 2.6 1l-1.2.4-.4.1h.7a1.5 1.5 0 0 1 1.4 1.5 1.4 1.4 0 0 1-1 1.4h-.3a1.2 1.2 0 0 1-1.2-1.6 1.2 1.2 0 0 0 1.2 1.6h.4q.8 1.6-.3 2.2a1 1 0 0 1-1.4-.3l-.3-.7-.6-2.2.7 2.2c-.2 1.5-1.4 2.4-2.6 1.7a1.3 1.3 0 0 1-.7-1.5c.1-.7 1-.8 1-1.9l-.3-1.1.2 1.1c.1 1-.8 1.2-.9 2a1.6 1.6 0 0 1-2.4-.5 1.2 1.2 0 0 1 .7-1.7c.9-.2 2.1-.1 2.4-1q-1-2.5-5.3-2.4c-5.2 0-8.4 1-11.5 1-4.1 0-6.1-2.3-7.5-3.6a3 3 0 0 0-1.5-.9 3 3 0 0 1 1.5 1 2 2 0 0 1-1.8 1 6 6 0 0 1-2.2-.6c-1.3-.4-3 0-3-.6-10.4 1.4-15.1 7.6-22.3 7.6-3 0-4.5-.9-5-1.3l.2 2.4a2 2 0 0 1-1.9-.3 2 2 0 0 1-2.2 1.4q.2-1 0-1.4-1.5 2.3-3 1.5v-1.5a3 3 0 0 1-2.7 1.8 3 3 0 0 0 .2-1.6c-.8.9-2.1 1.7-3 1.4l.5-1.8c-1.2 1-2.8 1.7-3.8 1.2a4 4 0 0 0 1-1.5 2 2 0 0 1-1.9.4l-.2-.8c-.3.6-.7 1.2-1.6.8a1.3 1.3 0 0 1-.4-1.6l.8-.1h-.8l-1.3.5c-.3 0-1.4-.5-1.3-2.2q.2-1.3 1.4-.7l2.4 1.6-2.4-1.6c-.7-.3-1.5-.1-1.5-1.8a1.3 1.3 0 0 1 1.3-1.4q.5 0 .9.7l.7 1a10 10 0 0 0 2.9 2 10 10 0 0 1-2.9-2l-.7-1a1 1 0 0 1 1.1-1q.7.1.7 1.2l.3 1.6q.2.8 1.5 1.3a12 12 0 0 0 5.4 1.1 13 13 0 0 0 4.7-.7c0-1.8 1.5-3 3-3.6a16 16 0 0 1 6.1-.7zm-23.6 3.3c.8.4 1.7 1.2 2.4 1.6m-.4.8-.8.1m80 1.4-.6-2.2m2.2 1a1.2 1.2 0 0 1-1.1-1.6m.3-1.2.4-.2m-29.6-4.6a3 3 0 0 1 1.6 1" id="path8114" style="fill:none;stroke:#000;stroke-linecap:round;stroke-miterlimit:10;stroke-width:0.38px"/><path d="M688.2 181.2v-1.9a7 7 0 0 0-.7-3q1.7.2 1.8 2.1a9 9 0 0 1 5.6-2 66 66 0 0 1 10 .2c4.2.3 9.3 1.3 11.7.7 3.5-1 6.4-4 9.1-4a33 33 0 0 1-4 3.7c3-.3 6.6-2.2 10.4-2.3a4 4 0 0 1 3.2 1h-2c-3.7.2-8.1 3.8-11.8 3.8h-2a2 2 0 0 0 1.5.5 2 2 0 0 1-1.4.7c-3.5 0-5.5-1.8-10.7-2.6a65 65 0 0 0-13.8-.7 13 13 0 0 0-3.8 1c-1 .6-1.9 1.4-1.8 2.1" id="path8116" style="fill:#f5c819"/><path d="M688.2 181.2v-1.9a7 7 0 0 0-.7-3q1.7.2 1.8 2.1a9 9 0 0 1 5.6-2 66 66 0 0 1 10 .2c4.2.3 9.3 1.3 11.7.7 3.5-1 6.4-4 9.1-4a33 33 0 0 1-4 3.7c3-.3 6.6-2.2 10.4-2.3a4 4 0 0 1 3.2 1h-2c-3.7.2-8.1 3.8-11.8 3.8h-2a2 2 0 0 0 1.5.5 2 2 0 0 1-1.4.7c-3.5 0-5.5-1.8-10.7-2.6a65 65 0 0 0-13.8-.7 13 13 0 0 0-3.8 1c-1 .6-1.9 1.4-1.8 2.1" id="path8118" style="fill:none;stroke:#000;stroke-linecap:round;stroke-miterlimit:10;stroke-width:0.38px"/><path d="M675.5 190.8a4 4 0 0 0 2.2-.7q.1 1 1.4 1.5a3 3 0 0 0 1.9-1.6 2 2 0 0 1 .8 1.4q2.4-2.5 1.4-3.7a1 1 0 0 1 .6.9q1.7-.6 1-3.7a1 1 0 0 0 .9-.2 2 2 0 0 0 .5-1.5q.2-.8-.2-1.4h-.8v-.6l.6-.9v-1l-1 .5a2 2 0 0 0 0-2 2 2 0 0 0-1.1.7 2 2 0 0 0-.7-2 2 2 0 0 0-1.4 1.7 3 3 0 0 0-1.2-1.5 4 4 0 0 0-1.1 1.9 2 2 0 0 0-1-1 3 3 0 0 0-.7 1.6l-.4.2q-.1-.6-.7-.5a2 2 0 0 0-1.2 1.3c-.3 1.4.3 2 .9 2l-.2.8-.9.7a2 2 0 0 0-.4 1.7l.7-.2a3 3 0 0 0-.8 3.6l1-1a4 4 0 0 0-.3 2.2z" id="path8120" style="fill:#f5c819"/><path d="M675.5 190.8a4 4 0 0 0 2.2-.7q.1 1 1.4 1.5a3 3 0 0 0 1.9-1.6 2 2 0 0 1 .8 1.4q2.4-2.5 1.4-3.7a1 1 0 0 1 .6.9q1.7-.6 1-3.7a1 1 0 0 0 .9-.2 2 2 0 0 0 .5-1.5q.2-.8-.2-1.4h-.8v-.6l.6-.9v-1l-1 .5a2 2 0 0 0 0-2 2 2 0 0 0-1.1.7 2 2 0 0 0-.7-2 2 2 0 0 0-1.4 1.7 3 3 0 0 0-1.2-1.5 4 4 0 0 0-1.1 1.9 2 2 0 0 0-1-1 3 3 0 0 0-.7 1.6l-.4.2q-.1-.6-.7-.5a2 2 0 0 0-1.2 1.3c-.3 1.4.3 2 .9 2l-.2.8-.9.7a2 2 0 0 0-.4 1.7l.7-.2a3 3 0 0 0-.8 3.6l1-1a4 4 0 0 0-.3 2.2z" id="path8122" style="fill:none;stroke:#000;stroke-linecap:round;stroke-miterlimit:10;stroke-width:0.38px"/><path d="M677 187.6a5 5 0 0 1 3.7 1.3q.3-.7.4-1.7l.6-1.3-.4.1a1.2 1.2 0 0 1-1.3-1.2 2 2 0 0 1-1.8.5l-.3-.1a5 5 0 0 1-.9 2.4" id="path8124"/><path d="M677 187.6a5 5 0 0 1 3.7 1.3q.3-.7.4-1.7l.6-1.3-.4.1a1.2 1.2 0 0 1-1.3-1.2 2 2 0 0 1-1.8.5l-.3-.1a5 5 0 0 1-.9 2.4z" id="path8126" style="fill:none;stroke:#000;stroke-linecap:round;stroke-miterlimit:10;stroke-width:0.38px"/><path d="M678.1 188.3c-.1.5-.7.8-.5 1 .3.4 2.3-.7 2.8-1.6l.6-1.7a1.3 1.3 0 0 1-1-1.2 2 2 0 0 1-1.5.6q0 1.5-.4 3" id="path8128" style="fill:#002369"/><path d="M678.1 188.3c-.1.5-.7.8-.5 1 .3.4 2.3-.7 2.8-1.6l.6-1.7a1.3 1.3 0 0 1-1-1.2 2 2 0 0 1-1.5.6q0 1.5-.4 3z" id="path8130" style="fill:none;stroke:#000;stroke-linecap:round;stroke-miterlimit:10;stroke-width:0.25px"/><path d="M675.3 180.3a2 2 0 0 1 1.2-1.3q.6-.1.7.4l.4-.2a3 3 0 0 1 .7-1.6 2 2 0 0 1 1 1 4 4 0 0 1 1.1-2 3 3 0 0 1 1.2 1.7 2 2 0 0 1 1.4-1.7 2 2 0 0 1 .7 2 2 2 0 0 1 1.1-.7 2 2 0 0 1 0 1.9l1-.5v1l-.6.9v.7h.8q.5.4.2 1.3a2 2 0 0 1-.5 1.6 1 1 0 0 1-1.2 0 2 2 0 0 1-1.2 1 1 1 0 0 1-1-.7 1 1 0 0 1-1 1 1.2 1.2 0 0 1-1.3-1.2 2 2 0 0 1-1.8.5q-1.1-.5-.8-1.8-.8.4-1.2 0a1 1 0 0 1 0-1.3c-.6 0-1.2-.7-.9-2m1 1a1 1 0 0 0 .4-1.2m8.2 4a1 1 0 0 1 .5-1.4" id="path8132" style="fill:#f5c819"/><path d="M675.3 180.3a2 2 0 0 1 1.2-1.3q.6-.1.7.4l.4-.2a3 3 0 0 1 .7-1.6 2 2 0 0 1 1 1 4 4 0 0 1 1.1-2 3 3 0 0 1 1.2 1.7 2 2 0 0 1 1.4-1.7 2 2 0 0 1 .7 2 2 2 0 0 1 1.1-.7 2 2 0 0 1 0 1.9l1-.5v1l-.6.9v.7h.8q.5.4.2 1.3a2 2 0 0 1-.5 1.6 1 1 0 0 1-1.2 0 2 2 0 0 1-1.2 1 1 1 0 0 1-1-.7 1 1 0 0 1-1 1 1.2 1.2 0 0 1-1.3-1.2 2 2 0 0 1-1.8.5q-1.1-.5-.8-1.8-.8.4-1.2 0a1 1 0 0 1 0-1.3c-.6 0-1.2-.7-.9-2zm1 1a1 1 0 0 0 .4-1.2m8.2 4a1 1 0 0 1 .5-1.4" id="path8134" style="fill:none;stroke:#000;stroke-linecap:round;stroke-miterlimit:10;stroke-width:0.38px"/><path d="m680 184.8.3-.4 1-.6a3 3 0 0 0-1.7-.6l.4 1z" id="path8136"/><path d="M680 184.8v0l.3-.4 1-.6a3 3 0 0 0-1.7-.6l.4 1z" id="path8138" style="fill:none;stroke:#000;stroke-linecap:round;stroke-miterlimit:10;stroke-width:0.38px"/><path d="M679.3 181.7q-.4.7-.7.6-.4-.3-.1-1 .4-.5.7-.5.4.1 0 1" id="path8140"/><path d="M679.3 181.7q-.4.7-.7.6-.4-.3-.1-1 .4-.5.7-.5.4.1 0 1z" id="path8142" style="fill:none;stroke:#000;stroke-linejoin:round;stroke-width:0.38px;stroke-linecap:square"/><path d="m679.3 182.5.7-.6.4-.7.2-.4" id="path8144" style="fill:none;stroke:#000;stroke-linecap:round;stroke-miterlimit:10;stroke-width:0.38px"/><path d="m680.6 180.8-.2.4-1.2-.4-1.4-.6.2 1.5.6.6q.9.4 1.8-1.1z" id="path8146" style="fill:none;stroke:#000;stroke-miterlimit:10;stroke-width:0.38px"/><path d="M683.3 183q-.3.6-.7.5-.4-.2 0-.9.1-.5.6-.4z" id="path8148"/><path d="M683.3 183q-.3.6-.7.5-.4-.2 0-.9.1-.5.6-.4z" id="path8150" style="fill:none;stroke:#000;stroke-linecap:round;stroke-miterlimit:10;stroke-width:0.38px"/><path d="m682.2 181.1-.1.4-.2 1.2a1 1 0 0 0 .7.8 2 2 0 0 0 2-.6l-1.4-.7-1.1-.7z" id="path8152" style="fill:none;stroke:#000;stroke-miterlimit:10;stroke-width:0.38px"/><path d="m682.2 181.1-.1.4-.2.5.1 1.4" id="path8154" style="fill:none;stroke:#000;stroke-linecap:round;stroke-miterlimit:10;stroke-width:0.38px"/><path id="polygon8156" style="fill:#f5c819" d="m709.4 272 22.7-58.9.4 4.9-11.6 49.5z"/><path id="polygon8158" style="fill:none;stroke:#000;stroke-miterlimit:1.1;stroke-width:0.41px" d="m709.4 272 22.7-58.9.4 4.9-11.6 49.5z"/><path id="line8160" style="fill:#ffdd28" d="m717.5 267.3-7.4 2.8"/><path id="line8162" style="fill:none;stroke:#000;stroke-miterlimit:1.1;stroke-width:0.41px" d="m717.5 267.3-7.4 2.8"/><path id="line8164" style="fill:#ffdd28" d="m721.1 243.4-7.4 2.8"/><path id="line8166" style="fill:none;stroke:#000;stroke-miterlimit:1.1;stroke-width:0.41px" d="m721.1 243.4-7.4 2.8"/><path id="line8168" style="fill:#ffdd28" d="m717.8 265-7.4 2.9"/><path id="line8170" style="fill:none;stroke:#000;stroke-miterlimit:1.1;stroke-width:0.41px" d="m717.8 265-7.4 2.9"/><path id="line8172" style="fill:#ffdd28" d="m718 263.9-7.4 2.8"/><path id="line8174" style="fill:none;stroke:#000;stroke-miterlimit:1.1;stroke-width:0.41px" d="m718 263.9-7.4 2.8"/><path id="line8176" style="fill:#ffdd28" d="m718.2 262.8-7.4 2.8"/><path id="line8178" style="fill:none;stroke:#000;stroke-miterlimit:1.1;stroke-width:0.41px" d="m718.2 262.8-7.4 2.8"/><path id="line8180" style="fill:#ffdd28" d="m718.3 261.6-7.3 2.9"/><path id="line8182" style="fill:none;stroke:#000;stroke-miterlimit:1.1;stroke-width:0.41px" d="m718.3 261.6-7.3 2.9"/><path id="line8184" style="fill:#ffdd28" d="m718.5 260.5-7.4 2.8"/><path id="line8186" style="fill:none;stroke:#000;stroke-miterlimit:1.1;stroke-width:0.41px" d="m718.5 260.5-7.4 2.8"/><path id="line8188" style="fill:#ffdd28" d="m718.7 259.3-7.4 2.9"/><path id="line8190" style="fill:none;stroke:#000;stroke-miterlimit:1.1;stroke-width:0.41px" d="m718.7 259.3-7.4 2.9"/><path id="line8192" style="fill:#ffdd28" d="m718.9 258.2-7.4 2.8"/><path id="line8194" style="fill:none;stroke:#000;stroke-miterlimit:1.1;stroke-width:0.41px" d="m718.9 258.2-7.4 2.8"/><path id="line8196" style="fill:#ffdd28" d="m719 257-7.3 2.9"/><path id="line8198" style="fill:none;stroke:#000;stroke-miterlimit:1.1;stroke-width:0.41px" d="m719 257-7.3 2.9"/><path id="line8200" style="fill:#ffdd28" d="m719.2 255.9-7.4 2.9"/><path id="line8202" style="fill:none;stroke:#000;stroke-miterlimit:1.1;stroke-width:0.41px" d="m719.2 255.9-7.4 2.9"/><path id="line8204" style="fill:#ffdd28" d="m719.4 254.8-7.4 2.8"/><path id="line8206" style="fill:none;stroke:#000;stroke-miterlimit:1.1;stroke-width:0.41px" d="m719.4 254.8-7.4 2.8"/><path id="line8208" style="fill:#ffdd28" d="m719.5 253.6-7.3 2.9"/><path id="line8210" style="fill:none;stroke:#000;stroke-miterlimit:1.1;stroke-width:0.41px" d="m719.5 253.6-7.3 2.9"/><path id="line8212" style="fill:#ffdd28" d="m719.7 252.5-7.4 2.8"/><path id="line8214" style="fill:none;stroke:#000;stroke-miterlimit:1.1;stroke-width:0.41px" d="m719.7 252.5-7.4 2.8"/><path id="line8216" style="fill:#ffdd28" d="m719.9 251.4-7.4 2.8"/><path id="line8218" style="fill:none;stroke:#000;stroke-miterlimit:1.1;stroke-width:0.41px" d="m719.9 251.4-7.4 2.8"/><path id="line8220" style="fill:#ffdd28" d="m720.1 250.2-7.4 2.9"/><path id="line8222" style="fill:none;stroke:#000;stroke-miterlimit:1.1;stroke-width:0.41px" d="m720.1 250.2-7.4 2.9"/><path id="line8224" style="fill:#ffdd28" d="m720.2 249.1-7.3 2.8"/><path id="line8226" style="fill:none;stroke:#000;stroke-miterlimit:1.1;stroke-width:0.41px" d="m720.2 249.1-7.3 2.8"/><path id="line8228" style="fill:#ffdd28" d="m720.4 247.9-7.4 2.9"/><path id="line8230" style="fill:none;stroke:#000;stroke-miterlimit:1.1;stroke-width:0.41px" d="m720.4 247.9-7.4 2.9"/><path id="line8232" style="fill:#ffdd28" d="m720.6 246.8-7.4 2.8"/><path id="line8234" style="fill:none;stroke:#000;stroke-miterlimit:1.1;stroke-width:0.41px" d="m720.6 246.8-7.4 2.8"/><path id="line8236" style="fill:#ffdd28" d="m720.8 245.6-7.4 2.9"/><path id="line8238" style="fill:none;stroke:#000;stroke-miterlimit:1.1;stroke-width:0.41px" d="m720.8 245.6-7.4 2.9"/><path id="line8240" style="fill:#ffdd28" d="m720.9 244.5-7.4 2.9"/><path id="line8242" style="fill:none;stroke:#000;stroke-miterlimit:1.1;stroke-width:0.41px" d="m720.9 244.5-7.4 2.9"/><path id="line8244" style="fill:#ffdd28" d="m717.7 266.2-7.4 2.8"/><path id="line8246" style="fill:none;stroke:#000;stroke-miterlimit:1.1;stroke-width:0.41px" d="m717.7 266.2-7.4 2.8"/><path id="polygon8248" style="fill:#f5c819" d="m709.4 272 22.7-58.9-3.7 2.7-26.4 55.3z"/><path id="polygon8250" style="fill:none;stroke:#000;stroke-miterlimit:1.1;stroke-width:0.41px" d="m709.4 272 22.7-58.9-3.7 2.7-26.4 55.3z"/><path d="m713.5 219.3-1.7 1.5 9.5 12.1a1.1 1.1 0 0 0 1.7-1.4zm-3.5 3-1.7 1.4 10.8 14a1 1 0 0 0 1.6.1 1 1 0 0 0 .2-1.5zm-3.6 3-1.8 1.3 12.4 15.8a1.1 1.1 0 1 0 1.7-1.3zm-3.8 2.7-1.8 1.2 14 18a1.1 1.1 0 1 0 1.7-1.4zm-3.9 2.5-1.9 1.1 15.9 20.3a1.1 1.1 0 1 0 1.7-1.4zm-4.1 2.2-2.1 1 18 23a1.1 1.1 0 1 0 1.7-1.4zm-4.5 1.8-2.4.5 20.6 26.4a1.1 1.1 0 1 0 1.8-1.4z" id="path8252" style="fill:#fff"/><path d="m713.5 219.3-1.7 1.5 9.5 12.1a1.1 1.1 0 0 0 1.7-1.4zm-3.5 3-1.7 1.4 10.8 14a1 1 0 0 0 1.6.1 1 1 0 0 0 .2-1.5zm-3.6 3-1.8 1.3 12.4 15.8a1.1 1.1 0 1 0 1.7-1.3zm-3.8 2.7-1.8 1.2 14 18a1.1 1.1 0 1 0 1.7-1.4zm-3.9 2.5-1.9 1.1 15.9 20.3a1.1 1.1 0 1 0 1.7-1.4zm-4.1 2.2-2.1 1 18 23a1.1 1.1 0 1 0 1.7-1.4zm-4.5 1.8-2.4.5 20.6 26.4a1.1 1.1 0 1 0 1.8-1.4z" id="path8254" style="fill:none;stroke:#000;stroke-linecap:round;stroke-miterlimit:1.1;stroke-width:0.41px"/><path d="M683.7 235.8c2.4 3.8 3.9 2.6 5.2.5l-2.5-4.5-3.4 1.3z" id="path8256" style="fill:#f5c819"/><path d="M683.7 235.8c2.4 3.8 3.9 2.6 5.2.5l-2.5-4.5-3.4 1.3z" id="path8258" style="fill:none;stroke:#000;stroke-miterlimit:1.1;stroke-width:0.41px"/><path d="M686.5 233.5c2.5 4.6 4 5 5.8 2.9l-3.5-4.4Z" id="path8260" style="fill:#f5c819"/><path d="M686.5 233.5c2.5 4.6 4 5 5.8 2.9l-3.5-4.4Z" id="path8262" style="fill:none;stroke:#000;stroke-miterlimit:1.1;stroke-width:0.41px"/><path d="M688.9 233.5c5.5 6.3 7.6 4.5 9.3 1.9l-9.7-5.7z" id="path8264" style="fill:#f5c819"/><path d="M688.9 233.5c5.5 6.3 7.6 4.5 9.3 1.9l-9.7-5.7z" id="path8266" style="fill:none;stroke:#000;stroke-miterlimit:1.1;stroke-width:0.41px"/><path d="M693.3 233c3 2.9 10.1 6 10.5-.1l-7.6-3.2z" id="path8268" style="fill:#f5c819"/><path d="M693.3 233c3 2.9 10.1 6 10.5-.1l-7.6-3.2z" id="path8270" style="fill:none;stroke:#000;stroke-miterlimit:1.1;stroke-width:0.41px"/><path d="M695.7 232.2c.6 1.3 2.8 1.2 3.1 2.3" id="path8272" style="fill:none;stroke:#000;stroke-miterlimit:1.1;stroke-width:0.41px"/><path d="M696.6 231c2.7 0 10.3 6.5 10.8-2l-8.2-1.2z" id="path8274" style="fill:#f5c819"/><path d="M696.6 231c2.7 0 10.3 6.5 10.8-2l-8.2-1.2z" id="path8276" style="fill:none;stroke:#000;stroke-miterlimit:1.1;stroke-width:0.41px"/><path id="line8278" style="fill:#ffdd28" d="m691.6 233.3 1.9 2.3"/><path id="line8280" style="fill:none;stroke:#000;stroke-miterlimit:1.1;stroke-width:0.41px" d="m691.6 233.3 1.9 2.3"/><path d="M688 234a3 3 0 0 1 1.3 2.3" id="path8282" style="fill:none;stroke:#000;stroke-miterlimit:1.1;stroke-width:0.41px"/><path d="M685.3 233.7a4 4 0 0 1 .7 2.6" id="path8284" style="fill:none;stroke:#000;stroke-miterlimit:1.1;stroke-width:0.41px"/><path d="M694.7 232.2c-.5 1.9-2.8 2.6-5 0 .4 2.4-3.5 3.7-3.7-.4.5 6.3-4.1 0-4.4-1l-.3-2 11.5 1z" id="path8286" style="fill:#f5c819"/><path d="M694.7 232.2c-.5 1.9-2.8 2.6-5 0 .4 2.4-3.5 3.7-3.7-.4.5 6.3-4.1 0-4.4-1l-.3-2 11.5 1z" id="path8288" style="fill:none;stroke:#000;stroke-miterlimit:1.1;stroke-width:0.41px"/><path d="M692.2 230.5c2.7 4.4 5.8 1.6 7.1-1l-4.7-1.1z" id="path8290" style="fill:#f5c819"/><path d="M692.2 230.5c2.7 4.4 5.8 1.6 7.1-1l-4.7-1.1z" id="path8292" style="fill:none;stroke:#000;stroke-miterlimit:1.1;stroke-width:0.41px"/><path d="M700.5 228.1c7.3 3 9.9 1.3 10.1-2.2l-9.5-1.3z" id="path8294" style="fill:#f5c819"/><path d="M700.5 228.1c7.3 3 9.9 1.3 10.1-2.2l-9.5-1.3z" id="path8296" style="fill:none;stroke:#000;stroke-miterlimit:1.1;stroke-width:0.41px"/><path d="M699.2 229.4a9 9 0 0 0 3.4 2.4" id="path8298" style="fill:none;stroke:#000;stroke-miterlimit:1.1;stroke-width:0.41px"/><path d="M694.5 229c5.3 2.7 6.7 0 7.5-2.4l-7.2-1.7z" id="path8300" style="fill:#f5c819"/><path d="M694.5 229c5.3 2.7 6.7 0 7.5-2.4l-7.2-1.7z" id="path8302" style="fill:none;stroke:#000;stroke-miterlimit:1.1;stroke-width:0.41px"/><path d="M702.9 225.3c3.8 2.2 10 2.7 9.2-2.7l-7-1z" id="path8304" style="fill:#f5c819"/><path d="M702.9 225.3c3.8 2.2 10 2.7 9.2-2.7l-7-1z" id="path8306" style="fill:none;stroke:#000;stroke-miterlimit:1.1;stroke-width:0.41px"/><path id="line8308" style="fill:#ffdd28" d="m707.4 225.2-3.9-1.5"/><path id="line8310" style="fill:none;stroke:#000;stroke-miterlimit:1.1;stroke-width:0.41px" d="m707.4 225.2-3.9-1.5"/><path d="M701.6 226.7a12 12 0 0 0 3 1.4" id="path8312" style="fill:none;stroke:#000;stroke-miterlimit:1.1;stroke-width:0.41px"/><path d="M697 226.2c4.6 2.8 6.8.5 7.5-3.2l-7-1Z" id="path8314" style="fill:#f5c819"/><path d="M697 226.2c4.6 2.8 6.8.5 7.5-3.2l-7-1Z" id="path8316" style="fill:none;stroke:#000;stroke-miterlimit:1.1;stroke-width:0.41px"/><path d="M705.5 222c10.2 3.2 16.3-1 17.8-3.4l-17 .2z" id="path8318" style="fill:#f5c819"/><path d="M705.5 222c10.2 3.2 16.3-1 17.8-3.4l-17 .2z" id="path8320" style="fill:none;stroke:#000;stroke-miterlimit:1.1;stroke-width:0.41px"/><path d="M706.3 221a5 5 0 0 0 3.4.5" id="path8322" style="fill:none;stroke:#000;stroke-miterlimit:1.1;stroke-width:0.41px"/><path d="M698.3 223.2c6.5 2.7 7.6-.5 9-3.2l-9.3.4z" id="path8324" style="fill:#f5c819"/><path d="M698.3 223.2c6.5 2.7 7.6-.5 9-3.2l-9.3.4z" id="path8326" style="fill:none;stroke:#000;stroke-miterlimit:1.1;stroke-width:0.41px"/><path d="M707.2 219.5c9.6 3.1 22-1 25.5-6.4h.2l-24 .5z" id="path8328" style="fill:#f5c819"/><path d="M707.2 219.5c9.6 3.1 22-1 25.5-6.4h.2l-24 .5z" id="path8330" style="fill:none;stroke:#000;stroke-miterlimit:1.1;stroke-width:0.41px"/><path d="M717.2 217.7c-2.6.3-5 .8-8.6-.1" id="path8332" style="fill:none;stroke:#000;stroke-miterlimit:1.1;stroke-width:0.41px"/><path d="M710 216.5c-1.5 2.6-2.3 6-10.8 4.4l-.6-4.3z" id="path8334" style="fill:#f5c819"/><path d="M710 216.5c-1.5 2.6-2.3 6-10.8 4.4l-.6-4.3z" id="path8336" style="fill:none;stroke:#000;stroke-miterlimit:1.1;stroke-width:0.41px"/><path d="m731.8 213.8-1.4 4c2.7 3.3 6.1 0 3-2.2 2.4-2.5.3-3.5-1.6-1.8" id="path8338" style="fill:#f5c819"/><path d="m731.8 213.8-1.4 4c2.7 3.3 6.1 0 3-2.2 2.4-2.5.3-3.5-1.6-1.8z" id="path8340" style="fill:none;stroke:#000;stroke-miterlimit:1.1;stroke-width:0.41px"/><path d="M721 211.4a70 70 0 0 0 17.8-2c1.3-.2 1.7.7.6 1.5-7.4 5.7-25.9 5.9-28.4 4.4l.9-2.3z" id="path8342" style="fill:#f5c819"/><path d="M721 211.4a70 70 0 0 0 17.8-2c1.3-.2 1.7.7.6 1.5-7.4 5.7-25.9 5.9-28.4 4.4l.9-2.3z" id="path8344" style="fill:none;stroke:#000;stroke-miterlimit:1.1;stroke-width:0.41px"/><path d="M698.7 218c6.1 1.4 12.2-.5 14.3-3.7l-3.8-2.6-10.8 4.2z" id="path8346" style="fill:#f5c819"/><path d="M698.7 218c6.1 1.4 12.2-.5 14.3-3.7l-3.8-2.6-10.8 4.2z" id="path8348" style="fill:none;stroke:#000;stroke-miterlimit:1.1;stroke-width:0.41px"/><path d="M699 216.3a7 7 0 0 0 3.8.5" id="path8350" style="fill:none;stroke:#000;stroke-miterlimit:1.1;stroke-width:0.41px"/><path d="M701.6 220a4 4 0 0 1-2.4-.9" id="path8352" style="fill:none;stroke:#000;stroke-miterlimit:1.1;stroke-width:0.41px"/><path d="M698.9 222.3a4 4 0 0 1 2 .6" id="path8354" style="fill:none;stroke:#000;stroke-miterlimit:1.1;stroke-width:0.41px"/><path d="M698 225.5a4 4 0 0 0 2.6.4" id="path8356" style="fill:none;stroke:#000;stroke-miterlimit:1.1;stroke-width:0.41px"/><path d="M695.8 228.2a5 5 0 0 0 2.8.3" id="path8358" style="fill:none;stroke:#000;stroke-miterlimit:1.1;stroke-width:0.41px"/><path d="m693.3 230.1 2 1.2" id="path8360" style="fill:none;stroke:#000;stroke-miterlimit:1.1;stroke-width:0.41px"/><path d="M687 229.6a4 4 0 0 1 .5 2.9" id="path8362" style="fill:none;stroke:#000;stroke-miterlimit:1.1;stroke-width:0.41px"/><path d="M690.6 230.7a4 4 0 0 0 2 2.3" id="path8364" style="fill:none;stroke:#000;stroke-miterlimit:1.1;stroke-width:0.41px"/><path id="line8366" style="fill:#ffdd28" d="m684 229.4.9 2.5"/><path id="line8368" style="fill:none;stroke:#000;stroke-miterlimit:1.1;stroke-width:0.41px" d="m684 229.4.9 2.5"/><path d="M703.6 265a2.8 2.8 0 1 1 1.1 4.1 3 3 0 0 1-1.1-4.1" id="path8370" style="fill:#f5c819"/><path d="M703.6 265a2.8 2.8 0 1 1 1.1 4.1 3 3 0 0 1-1.1-4.1z" id="path8372" style="fill:none;stroke:#000;stroke-linecap:square;stroke-width:0.41px;stroke-miterlimit:1.1"/><path d="M672.5 236c0-2.3-2-2.5-2-4.1 0-2 1.6-2.8 3.4-3.6 1-.5 2.2-3.7 3.2-2.7 0-2 0-4.1-1.7-4.1a1.1 1.1 0 0 1-.7-2.1c-.5-.4-.3-2-1.5-2.1 2.9-1.9.8-5.1 3-5.7-.8-4.2 4.7-3.5 5.7-.2 2.7-.6 3.8.6 5.2 2l1.8 4-2.4 2.9q-.5.6-1.1.2c-.6.8-1.3.4-2-.1a7 7 0 0 0-.2 4.7c2.6 0 4.2 1.8 6.2 1.8 2.7 0 6.2-4.9 5.6-7.8-1.3-6.1 5.4-8.3 11.7-8.3 6 0 9.8 1.8 15.8-1.2-.9 4.2-6 5.3-11.6 4.8-3 3.6-11.6-2.7-11.6 4.5.4 1.8.8 3.5-.6 4.6a2.2 2.2 0 0 1-1.2 3 6 6 0 0 1-2.7 3c-2.4 2.3-4.9 1.8-7.2.8-1.8-.8-3.4-1.3-5 .2 4.2 6-.7 6.7 1.6 10.5s5.7 18.6 20.3 22c2.3 0 2.7 5.9-2.3 4.8-24.5-3.4-29.7-26.5-29.7-31.7" id="path8374" style="fill:#f5c819"/><path d="M672.5 236c0-2.3-2-2.5-2-4.1 0-2 1.6-2.8 3.4-3.6 1-.5 2.2-3.7 3.2-2.7 0-2 0-4.1-1.7-4.1a1.1 1.1 0 0 1-.7-2.1c-.5-.4-.3-2-1.5-2.1 2.9-1.9.8-5.1 3-5.7-.8-4.2 4.7-3.5 5.7-.2 2.7-.6 3.8.6 5.2 2l1.8 4-2.4 2.9q-.5.6-1.1.2c-.6.8-1.3.4-2-.1a7 7 0 0 0-.2 4.7c2.6 0 4.2 1.8 6.2 1.8 2.7 0 6.2-4.9 5.6-7.8-1.3-6.1 5.4-8.3 11.7-8.3 6 0 9.8 1.8 15.8-1.2-.9 4.2-6 5.3-11.6 4.8-3 3.6-11.6-2.7-11.6 4.5.4 1.8.8 3.5-.6 4.6a2.2 2.2 0 0 1-1.2 3 6 6 0 0 1-2.7 3c-2.4 2.3-4.9 1.8-7.2.8-1.8-.8-3.4-1.3-5 .2 4.2 6-.7 6.7 1.6 10.5s5.7 18.6 20.3 22c2.3 0 2.7 5.9-2.3 4.8-24.5-3.4-29.7-26.5-29.7-31.7z" id="path8376" style="fill:none;stroke:#000;stroke-miterlimit:1.1;stroke-width:0.41px"/><path d="M687 213c.1 1.6-.5 3 1.2 4.3-1.6.2-1.7 1.6-1.8 3.1h.1l1 .3c-5 4.7 7.3 1.8 2-3 3.5-3.6.4-6.2-2.5-4.7" id="path8378" style="fill:#f5c819"/><path d="M687 213c.1 1.6-.5 3 1.2 4.3-1.6.2-1.7 1.6-1.8 3.1h.1l1 .3c-5 4.7 7.3 1.8 2-3 3.5-3.6.4-6.2-2.5-4.7z" id="path8380" style="fill:none;stroke:#000;stroke-miterlimit:1.1;stroke-width:0.41px"/><path d="M688 214.9c1 1.4 1.7 2.9 0 4.6" id="path8382" style="fill:none;stroke:#000;stroke-miterlimit:1.1;stroke-width:0.41px"/><path d="M685.7 213.3a25 25 0 0 1-.3 7" id="path8384" style="fill:none;stroke:#000;stroke-miterlimit:1.1;stroke-width:0.41px"/><path id="line8386" style="fill:#ffdd28" d="M675.5 221.5h2.2"/><path id="line8388" style="fill:none;stroke:#000;stroke-miterlimit:1.1;stroke-width:0.41px" d="M675.5 221.5h2.2"/><path d="M679 212.3c2.5-1 4.1.4 6 1.1" id="path8390" style="fill:none;stroke:#000;stroke-miterlimit:1.1;stroke-width:0.41px"/><path d="M679.3 213.4c1.8-1 3.4.4 5 1.1" id="path8392" style="fill:none;stroke:#000;stroke-miterlimit:1.1;stroke-width:0.41px"/><path d="M679.7 219.6c3-.4 2.6-3.5 2-3.6-1.3 0 0 1.1-.5 2z" id="path8394" style="fill:none;stroke:#000;stroke-width:0.41px;stroke-linejoin:bevel"/><path d="m674.7 219.3.6.2" id="path8396" style="fill:none;stroke:#000;stroke-miterlimit:1.1;stroke-width:0.41px"/><path d="M682 219.3a3 3 0 0 0 1.3 1" id="path8398" style="fill:none;stroke:#000;stroke-miterlimit:1.1;stroke-width:0.41px"/><path d="M676.2 211.6c5.3 4.6 2.4 6.4 2.7 6.7s1-.3 1.2-.8" id="path8400" style="fill:none;stroke:#000;stroke-miterlimit:1.1;stroke-width:0.41px"/><path d="M676.9 214a2 2 0 0 0-1.4.5" id="path8402" style="fill:none;stroke:#000;stroke-miterlimit:1.1;stroke-width:0.41px"/><path d="M675.6 214.9q.9.1 1.4.7a2 2 0 0 1-1.5.7" id="path8404" style="fill:none;stroke:#000;stroke-miterlimit:1.1;stroke-width:0.41px"/><path d="M675.6 215q.4 0 .4.6t-.4.6-.4-.6.4-.6" id="path8406"/><path d="M676 227a1.4 1.4 0 0 0 1-1.5" id="path8408" style="fill:none;stroke:#000;stroke-miterlimit:1.1;stroke-width:0.41px"/><path d="M683.2 225a5 5 0 0 0-2 3" id="path8410" style="fill:none;stroke:#000;stroke-miterlimit:1.1;stroke-width:0.41px"/><path d="M674.3 229.9c-3.5 5 5.2 8 5.2 3" id="path8412" style="fill:none;stroke:#000;stroke-miterlimit:1.1;stroke-width:0.41px"/><path d="M675.7 232.4q0 1.1.8 1" id="path8414" style="fill:none;stroke:#000;stroke-miterlimit:1.1;stroke-width:0.41px"/><path d="M717.5 212.7c2.3 2.4 5 .4 8.6.7" id="path8416" style="fill:none;stroke:#000;stroke-miterlimit:1.1;stroke-width:0.41px"/><path id="line8418" style="fill:#ffdd28" d="m710 213.3 1 1.1"/><path id="line8420" style="fill:none;stroke:#000;stroke-miterlimit:1.1;stroke-width:0.41px" d="m710 213.3 1 1.1"/><path d="M674.8 244c-3.6 3.6 2.3 6.7 1.6 10 2.6-1.7.9-4.6.5-7.4 1.2.2 1.2 2.5 1.5 4.6q.5 1.7 1.8.3c1.1 3.4 4.4 2.9 2.6-1.2 2.2 3 1.8.8.8-1.4-.7-1.8-2.9-2.8-1.2-3.4 1.1-.4.9 6.1 3.5 5 1.5-.7-1.8-4.1-.3-4.4 1 0 0 5.8 4.2 4.1l-.3-.8c-2.6-.9-.5-6.8-5.3-6.8z" id="path8422" style="fill:#f5c819"/><path d="M674.8 244c-3.6 3.6 2.3 6.7 1.6 10 2.6-1.7.9-4.6.5-7.4 1.2.2 1.2 2.5 1.5 4.6q.5 1.7 1.8.3c1.1 3.4 4.4 2.9 2.6-1.2 2.2 3 1.8.8.8-1.4-.7-1.8-2.9-2.8-1.2-3.4 1.1-.4.9 6.1 3.5 5 1.5-.7-1.8-4.1-.3-4.4 1 0 0 5.8 4.2 4.1l-.3-.8c-2.6-.9-.5-6.8-5.3-6.8z" id="path8424" style="fill:none;stroke:#000;stroke-miterlimit:1.1;stroke-width:0.41px"/><path d="m678.8 244.3 1.3 2.5c-.1-1-.7-2 0-3z" id="path8426"/><path d="m678.8 244.3 1.3 2.5c-.1-1-.7-2 0-3z" id="path8428" style="fill:none;stroke:#000;stroke-miterlimit:1.1;stroke-width:0.41px"/><path id="line8430" style="fill:#ffdd28" d="m675 244.2.2 1.5"/><path id="line8432" style="fill:none;stroke:#000;stroke-linecap:square;stroke-miterlimit:1.1;stroke-width:0.41px" d="m675 244.2.2 1.5"/><path d="M683 243.3a3 3 0 0 1 2 1" id="path8434" style="fill:none;stroke:#000;stroke-miterlimit:1.1;stroke-width:0.41px"/><path d="m684.6 240.6-.6.3c-1.9 1.6-4.7 2.5-9.7 1.6a1 1 0 1 0-.3 2q7.9 1.1 11.3-2.2a1 1 0 0 0 .2-1 1 1 0 0 0-1-.7" id="path8436" style="fill:#f5c819"/><path d="m684.6 240.6-.6.3c-1.9 1.6-4.7 2.5-9.7 1.6a1 1 0 1 0-.3 2q7.9 1.1 11.3-2.2a1 1 0 0 0 .2-1 1 1 0 0 0-1-.7z" id="path8438" style="fill:none;stroke:#000;stroke-linecap:round;stroke-miterlimit:1.1;stroke-width:0.41px"/><path d="M675.8 246.7c-1 2.6 1.8 1.8 1.5 6.3" id="path8440" style="fill:none;stroke:#000;stroke-linecap:round;stroke-miterlimit:1.1;stroke-width:0.41px"/></g><!-- app4joy --></svg>