<svg xmlns="http://www.w3.org/2000/svg" xmlns:xlink="http://www.w3.org/1999/xlink" id="svg43" width="900" height="600" version="1" viewBox="0 0 900 600"><g id="g45" fill-rule="evenodd"><path id="path1" fill="#fcd116" d="M0 0h900v600H0z" overflow="visible" style="marker:none"/><path id="path2" fill="#009e49" d="M0 300h900v300H0z" overflow="visible" style="marker:none"/><path id="path3" fill="#ce1126" d="M0 0h300v600H0z" overflow="visible" style="marker:none"/><path id="path4" d="m199 343-50.4-37L98 343l19.6-59.4-50.9-36.5 62.7.2 19-59.6 19.1 59.6 62.6-.3-50.8 36.6z" overflow="visible" style="marker:none"/></g><g id="g44"><g id="a" stroke="#ffce10" style="display:inline"><g id="g6" fill="green" stroke-width="1.4"><path id="path5" fill="#009e49" fill-rule="evenodd" d="m62.1 232.6 11.6-33 15.7-32.8-28.8 28.8-17.9 33-14.3 38.2 6 48.4"/><path id="path6" fill="none" d="m89.3 166.8-23 31.4-16.7 32.4-8.4 41.3"/></g><g id="g8" stroke-width="1.4"><path id="path7" fill="#009e49" fill-rule="evenodd" d="m64.8 384.8-17.2-6.9-20.1-29.4L14.7 316v-47.6l14.8-40 28-35.7-15.8 35.8-11.1 39 5.7 44 27 45.7"/><path id="path8" fill="none" d="m57.5 192.8-22.1 37.8L22 271l4 46.1 20.5 30"/></g><g id="g10" stroke-width="1.4"><path id="path9" fill="#009e49" fill-rule="evenodd" d="M149.8 426.5c-32 .3-46.6-19.2-61.4-28.7l-4-.2-11.7-6.7-.3-3.9-9.2.1-27.8-45.5-3-65.3 16.6-43 24.2-27.2 40-24.6L80 213l-17.6 30.5-4.5 34.8 25.7 67.6 8.7 11.5-1.5 18.2 4 9.3c8.2 12.9 30 34.9 55 35.4"/><path id="path10" fill="none" d="m113.1 181.5-35.5 27.9-23 31.2-11.5 32.1 4.5 45.3"/></g><g id="g24" stroke="#000" stroke-linecap="round" stroke-width=".1"><path id="path11" fill="orange" fill-rule="evenodd" d="M52.8 269.7A64.8 64.8 0 0 0 42 300.8c4.7 13.5 19 22.2 23.6 25.3a73.2 73.2 0 0 0 10.3-29.7c-4.2-14-15.3-21.3-23-26.7z"/><path id="path12" fill="none" d="M52.8 269.8a144 144 0 0 0-8.4 36.3m8.4-36.3c.3 16 .4 32.1 1.2 47.6m-1.2-47.7 3.6 49.8m-3.6-49.8 6.4 52m-6.4-52c3.3 18.2 6.8 36.2 9.7 54.3m-9.7-54.2c4.5 18.7 9.6 37.4 12.8 56.3m-12.8-56.4C59 285.6 65.3 301.2 70 318m-17.2-48.3a359.8 359.8 0 0 1 19 43.7m-19-43.6c8.6 12.8 15 25.6 20.2 39.5m-20.2-39.5c9 11.1 16.1 22 21.4 34.9m-21.4-35A93.6 93.6 0 0 1 75.1 301m-22.2-31.3a71.5 71.5 0 0 1 22.7 28.5m-22.8-28.4c-3 13.8-5.5 25.8-6.4 39.4m6.4-39.4c-.7 15.2-1.7 31-1.3 45.3m1.3-45.4c-1.7 14.7-3.8 29.9-4 42.5m4-42.5a91 91 0 0 0-10 33.4m10-33.4c5.3 17.5 11.2 34.8 15.2 52.5"/><path id="path13" fill="none" d="M57 320c2.6.4 5.3.6 7.6.6a18 18 0 0 0 6.6-5.6m-27.5-25.2c4 .7 10.2.8 14.1 0 2.6-1.3 8-6 9.5-8.3"/><path id="path14" fill="none" d="M43.1 292.5c3.3.5 11.8 1 15.4-.1 2.6-1.4 8.7-6.8 10.3-9.2"/><path id="path15" fill="none" d="M42.6 295.1a55 55 0 0 0 16.5.5c4.8-1.8 10-7.6 11.2-10.5"/><path id="path16" fill="none" d="M42.2 298.5a51.2 51.2 0 0 0 17.9.7c5.1-2.5 9-6.7 12-11.4"/><path id="path17" fill="none" d="M42.5 302.2a48.8 48.8 0 0 0 18.2.3c6.2-2.7 10.5-8 12.8-12.2"/><path id="path18" fill="none" d="M44.7 306.6c4.6 1 13.3.4 16.7-.3a32 32 0 0 0 13.5-13"/><path id="path19" fill="none" d="M47.6 310.8c5.7.4 10.5.3 14.7-.5 5.2-2.7 12.5-9.7 13.6-14"/><path id="path20" fill="none" d="M50.5 314c2.6.5 10.2.4 12.7-.4a27 27 0 0 0 11.3-9.9m-20.7 13.6c2.6.5 7.8 0 10-.1a31 31 0 0 0 9-6.8m-12.1 12.4c1.4.2 2.9.3 4.4.2.8-.1 2.8-1.1 3.9-2.6m-21.7-40.3c2.3.7 5.5 1.1 8.3.7 2.7-1.4 4.4-2.4 6-4.7"/><path id="path21" fill="none" d="M46.3 282.2c2.6.8 6.7 1.4 10 .8 2.6-1.4 5.2-3.3 6.8-5.6"/><path id="path22" fill="none" d="M45.4 284.6c2.7 1 8.3 1.5 11.3.6 2.6-1.4 6.3-4.1 7.8-6.5"/><path id="path23" fill="none" d="M44.5 287c2.8 1 9.2 1.2 12.7.6 2.6-1.4 7-5.3 8.6-7.6m-17.6-2c2 .7 4.6 1 6.8.8 2-.6 4.2-2.4 5-3.9"/><path id="path24" fill="none" d="M49.1 276.2c1.6.5 3.8.7 5.4.6 1.6-.6 3-1.7 4-3m-8.3.5c1.1.4 2.7.6 3.9.5a6.3 6.3 0 0 0 3-2.1"/></g><path id="path25" fill="#009e49" fill-rule="evenodd" stroke-width="1.4" d="m76.5 383.6-3-8.2 9-3.7 3.3 16.1"/><path id="path26" fill="#ffce10" fill-rule="evenodd" stroke="none" d="m20.7 110.1-.9-.2 3.7 9.3 6.8 3.2L34 125l-2.8-2.8-1.6-11.4-.4.3 1.5 11-6.5-3.2z" transform="translate(0 48) scale(2.77778)"/><path id="path27" fill="#009e49" fill-rule="evenodd" stroke-width="1.4" d="M67.5 371.5c-.7 1.5.4 4.2 1.7 5.1 2.4 1.7 7 .8 9.6-.2 2.1-.8 5.1-2.5 5.8-4.7.6-2-.3-5.8-2.2-6.6-4.4-2-12.9 2-14.9 6.4z"/><path id="path28" fill="#009e49" fill-rule="evenodd" stroke-width="1.4" d="M66.2 367.3c-.7 1.5.4 4.2 1.7 5.2 2.3 1.6 7 .7 9.6-.3 2.1-.7 5.1-2.5 5.8-4.6.6-2-.3-5.8-2.2-6.7-4.4-2-12.9 2-14.9 6.4z"/><g id="g31" fill="#009e49" fill-rule="evenodd" stroke-width=".5"><path id="path29" d="M14.7 102.4c.5 2.2.7 1.7 1.6 3.1 0-2 .5-2.8.7-3.8-1-2.2-2.6-.3-2.3.7z" transform="matrix(-2.64023 1.36808 1.47886 2.57749 -28 17.4)"/><path id="path30" d="M27.3 114.8c1-2 .8-4 0-5.3-.9-1.3-2.2-1.5-4.2-2.7-2-1-5.9-5-6.8-6 1.4 4 4.9 12.5 7.8 14.1 1.7 1 2.7.2 3.2 0z" transform="matrix(-2.64023 1.36808 1.47886 2.57749 -28 17.4)"/><path id="path31" d="m27.4 114.8.6-.5c.5-1 .7-2.8.4-4-.3-1.2-1.3-2.8-2.7-3-3.7-.6-8-6.7-9.3-7.2-1.2-.4-1.5 1.5-1.5 1.5s.5-.6 1-.4c.6.4 1.5 1.4 2 2 1.9 2.2 3.7 3.4 5.3 4.3 1 .6 2 1 2.9 1.8.7.6.9.9 1.3 1.7.3.7 0 3.8 0 3.8z" transform="matrix(-2.64023 1.36808 1.47886 2.57749 -28 17.4)"/></g><g id="g34" fill="#009e49" fill-rule="evenodd" stroke-width=".4"><path id="path32" d="M15.3 102.8c0 1.4 1 1.5 1.4 4.5.8-1.5 1.1-2 1-4.2-1-2.2-2.3-1.3-2.4-.3z" transform="matrix(2.99704 0 0 3.70579 -9.4 -74.8)"/><path id="path33" d="M27.3 114.8s1.1-3-.3-4.4c-1.3-1.4-3.1-1.9-5-3-2-1.4-3.7-3.5-4.7-4.6.7 9 4.6 11.3 6.8 12.1 1.8.7 3.1 0 3.2 0z" transform="matrix(2.99704 0 0 3.70579 -9.4 -74.8)"/><path id="path34" d="m27.4 114.8.6-.5c.5-1 .4-2.6-.1-3.6-.7-1.3-1.1-1.7-2.4-2.3-8.3-3.8-7.6-7.8-9.2-7.4-1.2.3-1 1-1 1.7.3-.4.5-.5.9-.4.7.2 1.2 1.2 1.6 1.8.8.9.4 1.4 3.2 3.3 2 1.4 3.7 2 4.3 2.5a7 7 0 0 1 2 2.3c.3.6.1 2.6.1 2.6z" transform="matrix(2.99704 0 0 3.70579 -9.4 -74.8)"/></g><g id="g37" fill="#009e49" fill-rule="evenodd" stroke-width=".5"><path id="path35" d="M14.2 102.9c.2 1.2 1 1.4 1.3 3.3.9-2.2 1.4-2.6 1.3-4-1-2.2-2.8-.3-2.6.7z" transform="matrix(-2.61635 1.41321 1.5229 2.55171 -32.5 35.5)"/><path id="path36" d="M27.3 114.8c1-2 .9-4 0-5.3-1.4-1.9-2.8-1.3-5.2-3.3-2-1.3-4-3.3-6-5 .7 5 5.5 14 8.5 14.3 1.6.2 2.2-.4 2.7-.7z" transform="matrix(-2.61635 1.41321 1.5229 2.55171 -32.5 35.5)"/><path id="path37" d="m27.4 114.8.6-.5c.5-1 .7-2.8.4-4-.3-1.2-1.3-2.7-2.7-3-3.7-.7-8.5-6.7-9.9-6.6-1.2 0-1.5 1.4-1.5 1.4s.7-.6 1.3-.5c.7 0 1.8 2.2 7.4 6 1 .7 2.1.9 3 1.7.8.6 1 .9 1.4 1.7.3.7 0 3.8 0 3.8z" transform="matrix(-2.61635 1.41321 1.5229 2.55171 -32.5 35.5)"/></g><g id="g40" fill="#009e49" fill-rule="evenodd" stroke-width="1.4"><path id="path38" d="M39.8 332c-.4 5.6 3.8 3.6 5 16.2 2.5-4.1 4.8-8 4.1-13.7-2.6-6.3-9-5.3-9.1-2.6z"/><path id="path39" d="M76 367s2-8.2-2-12.2c-4.5-4.3-7-3.6-13-8.5-5.4-3.8-11.3-10.8-13.9-13.7 2 14.1 11.7 30 20 34.7 4.4 2.5 8.5-.3 8.9-.3z"/><path id="path40" d="M76.2 366.9s1.4-.9 1.7-1.5a13 13 0 0 0-.5-10c-1.8-3.4-4.3-6-8.1-6.8-10.2-2-21.4-21.3-25.3-21-3.5.2-3.8 3.5-3.8 3.5s2-1.3 3.3-.5c1.8 1 4.7 5 6 6.4 2.5 2.8 6.8 7.5 8.8 9.2a34.8 34.8 0 0 0 13 6.8c2.5.7 3.2 4.2 4.3 6.6 1 1.8.6 7.3.6 7.3z"/></g></g><use xlink:href="#a" id="use40" width="324" height="216" style="display:inline" transform="matrix(-1 0 0 1 297.8 0)"/><g id="g43" fill-rule="evenodd" style="display:inline"><path id="path41" fill="#ff9c00" d="M149.8 357.1c-3.1.1-6.3 1-9 3.8-1.2 1.4-2.1 3.7-3.1 5.6a12.5 12.5 0 0 0-13.9-4.3c-4.7 1.6-8.4 6-8.6 12.5-1.4-.8-4.7-1.8-6.4-2-4.1-.4-7-.2-9.4 2.5-3 3.5-4.2 8.8-2 11.8a92 92 0 0 0 22 20.1c10.4 7 22.2 12.8 31.5 12.4 9.4-.3 19.8-6 28.9-12.7a107 107 0 0 0 18.3-17.3c1.7-2 3.2-5.8 3-8-.3-2-.7-4.7-2.6-6.1a11.1 11.1 0 0 0-8.7-2.6 26 26 0 0 0-6 2.6c-.4-2.3-.6-5.3-1.5-7a13 13 0 0 0-7.3-5.9c-4.2-1.7-8.4-.6-13.3 3-.7-1.7-1.7-3.6-2.8-4.8-2.3-2.6-6-3.7-9.1-3.6z"/><path id="path42" d="M149.8 357.1c-3.1.1-6.3 1-9 3.8-1.2 1.4-2.1 3.7-3.1 5.6a12.5 12.5 0 0 0-13.9-4.3c-4.7 1.6-8.4 6-8.6 12.5-1.4-.8-4.8-2.3-6.5-2.5-4.1-.4-6.9.3-9.3 3-3 3.5-4 9.3-1.9 12.3a91.3 91.3 0 0 0 21.3 21 56.8 56.8 0 0 0 32 11c9.5-.3 20.3-5.3 29.3-12a90.6 90.6 0 0 0 18.2-17.4c1.7-2 3-6.4 2.8-8.5-.3-2.2-.7-4.8-2.6-6.2a11.1 11.1 0 0 0-8.7-2.6 13 13 0 0 0-6 2.6c0-2.8-.6-5.6-1.5-7.3-1.6-3.1-4.7-5-7.4-6-4.2-1.8-9-.8-13.2 3.4-.7-1.7-1.5-3.5-2.6-4.7a12.4 12.4 0 0 0-9.3-3.7zm0 1.4c2.5 0 5.6 1.1 7.8 3a11 11 0 0 1 2.7 6c-.6 10.5-2.8 15-3.9 22.3 2-7.3 4.3-13.6 5.7-22 .2-1.2 2.5-2.7 3.4-3.3a10 10 0 0 1 9-1.2c2 .6 4.2 2.4 6 4.7 1.4 1.8 2.2 6.7 1 9.3a111 111 0 0 1-14 21.3c7-7.6 11.5-14.3 15.8-20.6 1.7-2.6 4.2-3 5.9-3.4 3.5-.6 6.3.2 8.5 1.9 1.6 1.2 1.8 3.5 2 5.3.2 1.9-1.1 5.8-2.5 7.5a91.8 91.8 0 0 1-17.8 17.1 55.6 55.6 0 0 1-28.6 11.7c-8.7.4-20.9-3.9-31.2-10.8A78.4 78.4 0 0 1 99 386.8c-2.3-3.5-1-7 1.5-10.5 1.4-2 4-3.2 8.2-2.7a14 14 0 0 1 5.6 2.6c3.7 5.6 10 16.9 17.6 22.9a88.3 88.3 0 0 1-15-23c-.5-.9 0-5.3 1.6-7.8a12 12 0 0 1 5.7-4.8c2.5-.8 5-.7 7.7.2 2 .7 4.7 3 5 4.5 3 13 4 14.4 6.8 22.4-1.7-7.6-4-12.6-4.9-22.5a21 21 0 0 1 2.8-6.2c1.9-2.7 6-3.5 8.2-3.4z"/><path id="path43" d="M135.5 409c9.6 11 21.3 9 30.7-.7-9 7.6-20.4 9.3-30.7.7z"/></g></g><!-- app4joy --></svg>