<svg width="360" height="240" viewBox="0 0 360 240" id="svg2" xmlns="http://www.w3.org/2000/svg"><g id="g1"><path style="fill:#289728;fill-opacity:1" id="rect4" d="M0 0h360v240H0z"/></g><g id="g3" transform="translate(42.5 5.2)scale(.45879)" style="stroke:#000000;stroke-width:1.43856788;stroke-miterlimit:4;stroke-opacity:1;stroke-dasharray:none"><path stroke-miterlimit="6" d="M416.2 284c-15.7-5-22.3-10-25-13.6l103.3-20-106.4-20.8-.1-.5c10.8-2.3 36.7-26 50.2-37.2 13.4-11.4 24.9-10.1 24.9-10.1-12.7-15.2-29.5-4.4-57.3 9.9-14.6 7.5-22.8 8.7-27.3 8.1l59-87.3-90 60.6-.4-.3c6-9.2 7.7-44.3 9.2-61.8s10.4-24.7 10.4-24.7c-19.7-1.8-24 17.7-33.4 47.5-5 15.6-10 22.2-13.6 25L299.6 55.4l-20.7 106.4-.5.1c-2.3-10.8-26-36.7-37.2-50.2C229.8 98.3 231 86.8 231 86.8c-15.2 12.7-4.4 29.5 9.9 57.3 7.5 14.6 8.7 22.8 8 27.3l-87.2-59 60.6 90-.3.4c-9.2-6-44.3-7.6-61.8-9.1s-24.8-10.5-24.8-10.5c-1.7 19.7 17.8 24 47.5 33.5 15.7 5 22.3 10 25 13.5l-103.3 20.1L211 271l.1.5c-10.8 2.3-36.7 26-50.2 37.3s-24.9 10-24.9 10c12.7 15.2 29.5 4.5 57.3-9.9 14.6-7.5 22.8-8.7 27.3-8l-59 87.2 90-60.6.4.3c-6 9.2-7.7 44.3-9.2 61.8s-10.5 24.8-10.5 24.8c19.8 1.7 24-17.8 33.5-47.5 5-15.7 10-22.3 13.6-25l20.1 103.3 20.7-106.4.5-.1c2.3 10.8 26 36.8 37.2 50.2 11.4 13.4 10.1 24.9 10.1 24.9 15.2-12.7 4.4-29.5-9.9-57.3-7.5-14.6-8.7-22.8-8-27.3l87.2 59-60.6-90 .3-.4c9.2 6 44.3 7.7 61.8 9.2s24.8 10.5 24.8 10.5c1.7-19.8-17.8-24-47.5-33.5" id="path5" style="fill:#ffce00;fill-opacity:1;stroke:none;stroke-width:0.65389447999999994;stroke-linecap:round;stroke-linejoin:miter;stroke-miterlimit:4;stroke-opacity:1;stroke-dasharray:none"/><circle stroke-miterlimit="6" cx="299.60001" cy="250.308" r="90.876999" id="circle7" style="fill:#ffce00;fill-opacity:1;stroke:#000000;stroke-width:1.63473624;stroke-linecap:round;stroke-linejoin:round;stroke-miterlimit:4;stroke-opacity:1;stroke-dasharray:none"/><path d="M411.4 162.3a1 1 0 0 0-1-.3l-26.2 5.3-43 8.6q-11.2 2.2-15.4 7c-3 3-4 6.9-4 10.8 0 3.8 1 7.9 1.7 11.8q.7 3.8.7 6.5-.1 4.8-1.6 6.4t-3.4 1.6q-3.6 0-5.8-3.2a17 17 0 0 1-2.4-9.6q.1-6.6-.4-9.9a8 8 0 0 0-1-3.5 11 11 0 0 0 5-5.8 1 1 0 0 0-.7-1.4h-.5l-5.4.3q-3.1.1-6.7-1a13 13 0 0 0-4.5-.9q-3 0-5.4 1.3l-1.7 1.5-1 1.1-1 .2q-2.4.3-5.2 1.2a11 11 0 0 0-3.7 2 5 5 0 0 0-1.8 3.8q0 1.8 1.3 3.8a1 1 0 0 0 1.5.2c1.6-1.5 2.5-2.3 5-2.3a7 7 0 0 1 3.8 1l.1.1.2.4c.6 1 1.7 3.5 1.6 6.4 0 2.2-.5 4.6-2.4 7q-4 4.8-6.4 8.2-2 2.8-2.6 5a17 17 0 0 1-8-5.9c-1.6-2.3-2-5-2-8.7l.4-12.5c0-8-3.2-14.1-8.7-18.5-5.4-4.3-13-7-21.9-8.8C221.4 168 181 161 181 161a1 1 0 0 0-1.2.9v.9q.2 5.4 4 7.1a12 12 0 0 0 7.3 9.5v.3c0 1 .2 2.7 1.5 4.3q1.8 2.6 7.3 3.5v.4a6 6 0 0 0 1.8 4.3q1.3 1.3 4 2.1c.3 1.1 2.5 6.7 8.4 7.8q0 1.1.8 2.7a7 7 0 0 0 5.3 4v.7q-.1 1.6 1 3.5 1 1.2 3 2v.2c0 1.1.2 3 1.6 4.5a7 7 0 0 0 2.9 2q.1 1 1 2.9a7 7 0 0 0 4.4 3.7l-.2 2.1q.1 4.7 2.7 6.5a8 8 0 0 0 6 1.6v.7c0 1.6.2 3.9 1.2 5.9s3 3.7 6 3.7h.1q.3 1 .9 2 1.5 2.5 5 2.6h.1q1.2 0 2.6-.3a8 8 0 0 0 7.4 4.7l2-.2q1.8 1.9 5.3 2h.1l1.8-.1q1.6 2.5 6.1 4.3-3 .9-4.1 3.7a29 29 0 0 0-1.4 10.9c0 3.2-1.3 6-2.6 8.1q-1 1.6-1.8 2.5l-.7.9a1 1 0 0 0-.3 1q.3.7 1 .7 4.8 0 7.7-1 3.7-1.2 5-2.3l1.7 1.1c2.8 1.4 6 1.7 8.5 1.7 2.4 0 4.2-.3 4.2-.3q.4 0 .7-.4l.2.2q2 .5 4 .5c3.4 0 6-1.2 7.3-1.9q2.7 2.4 5.3 3.4a16 16 0 0 0 6.1 1.3c2.1 0 3.5-.5 3.5-.5a1 1 0 0 0 .5-1.6c-4.5-4.5-4.7-7.3-4.8-14 0-3.5-.3-7-1.6-9.6l-1-1.6.6-.2q1.2-.4 1.7-1.5l2 .2q2.1.1 4.2-1.4a6 6 0 0 0 1.6-2.9h.3c1.2 0 3.1-.1 4.8-1.3a7 7 0 0 0 2.8-4.3l2.1.3a5 5 0 0 0 4-1.8q1.9-2 2-7 0-2-.4-4.5 3 1.4 5.4 1.3 3.4 0 5.1-2.2 1.8-2 1.7-4.7 0-2-1-3.7l1.7.1h.2c4.6 0 8.6-2.3 10.2-6.8q1-.2 1.9-.8a5 5 0 0 0 2.5-4.6v-.8q1.2-.4 2.2-1.3 2.3-2.1 2.5-6.8l1-.5q3.3-1.6 3.5-6.6l.7-.3c2-1 3.6-3.3 3.6-6.8v-.9l.1-.1a10 10 0 0 0 5-7.7l1.3-.6a10 10 0 0 0 5.1-8q2.6-.8 4.7-2.3 2.7-1.8 3.2-5a11 11 0 0 0 5.1-5.2c1.2-2.4 1.6-4.6 1.6-4.6q.1-.5-.2-1z" id="path9" style="fill:#ffce00;fill-opacity:1;stroke:#000000;stroke-width:1.30778897;stroke-miterlimit:4;stroke-opacity:1;stroke-dasharray:none"/><g id="g11" style="stroke:#000000;stroke-width:1.30778897;stroke-miterlimit:4;stroke-opacity:1;stroke-dasharray:none"><path d="M330.3 237.5s3.2-3.5 5.7-4.4c2.5-.8 6.5-1.5 4.5-6 4.5-1.3 6.4-6.6 4.3-10.1 0 0 4.7-2.5 2-7.9 4.4-1.2 3.7-7 2-8.7 5.3-.7 10.4-8 5.6-11 4.2-2.2 5.8-7 3-9.2 0 0 39.5-6.3 45.6-7.6s7.7-9.6 7.7-9.6-47 9.5-69.4 13.8c-22.3 4.4-19.1 16.5-16.8 28.5s-1.3 15.7-5.3 15.7c-5.4 0-9.2-5-9.2-13.8s-.2-12.5-2.3-13.7c0 0 3.9-.9 6-6-1.3-.1-7 1.3-12.8-.8-5.2-1.9-11 .4-11 3.3-3.5 0-15.7 1.8-10.8 9.4 1.6-1.6 2.9-2.7 5.8-2.7 2.8 0 4.6 1.6 4.6 1.6s5 8-.6 15c-5.7 7-9.5 11.5-8.8 14.3-3.1 5.6-3.6 10.2.1 10.2-1.7 4.7 1.2 7.3 1.2 7.3s-1.4 5.4 2 10.6c5.5-2.4 6.2-8.4 6.2-8.4s-.1 5.4 3.2 7.8c3.6-2.6 5.4-6.6 5.4-6.6 4.3 7.3 6 4 6.6-3 6.3 4.5 5.4 0 6.2-6.8 7.5 10.2 4.8-3.7 4.8-3.7" id="path13" style="fill:none;stroke:#000000;stroke-width:1.30778897;stroke-linecap:round;stroke-linejoin:round;stroke-miterlimit:4;stroke-opacity:1;stroke-dasharray:none"/><path d="M358.4 185.1s31.9-4.5 36.5-5.4c4.6-.8 9-3.4 9-7.3" id="path15" style="fill:none;stroke:#000000;stroke-width:1.30778897;stroke-linecap:round;stroke-linejoin:round;stroke-miterlimit:4;stroke-opacity:1;stroke-dasharray:none"/><path d="m356.3 192.1 30.4-3s9.3-1.4 9.3-9.6" id="path17" style="fill:none;stroke:#000000;stroke-width:1.30778897;stroke-miterlimit:4;stroke-opacity:1;stroke-dasharray:none"/><path d="m353.1 198.4 27.6-1.5s8 .2 9-8.6" id="path19" style="fill:none;stroke:#000000;stroke-width:1.30778897;stroke-miterlimit:4;stroke-opacity:1;stroke-dasharray:none"/><path d="M350 205.3s22.6-.8 26-.8 9.3-.4 8.4-8.4" id="path21" style="fill:none;stroke:#000000;stroke-width:1.30778897;stroke-miterlimit:4;stroke-opacity:1;stroke-dasharray:none"/><path d="M347.5 211s16.2.7 22.2.7 10.6-.7 10.6-7.7" id="path23" style="fill:none;stroke:#000000;stroke-width:1.30778897;stroke-miterlimit:4;stroke-opacity:1;stroke-dasharray:none"/><path d="M344.8 217s12.5 1.3 19 2.2c6.5.8 11.9.6 11.9-8.1" id="path25" style="fill:none;stroke:#000000;stroke-width:1.30778897;stroke-miterlimit:4;stroke-opacity:1;stroke-dasharray:none"/><path d="M344.8 222.8s7.5 1.5 14.5 2.4 12.7.3 11.5-6" id="path27" style="fill:none;stroke:#000000;stroke-width:1.30778897;stroke-miterlimit:4;stroke-opacity:1;stroke-dasharray:none"/><path d="M341.1 227.4s6.8 2.8 12.2 4c6.4 1.5 11.7-.4 13.5-6" id="path29" style="fill:none;stroke:#000000;stroke-width:1.30778897;stroke-miterlimit:4;stroke-opacity:1;stroke-dasharray:none"/><path d="M252 230.5c-2.7-.5-3.7-4-3-6.5-3.8-.3-4.2-3.7-3.3-7.5-3.5-.2-4.9-5.8-2.9-8.5-3.6-2.3-3.6-6-2.3-10.8-4.3-.5-5.5-6.2-3-9.2-5-2.7-4.7-8.7-4.7-8.7l-40.5-8.1c-6.2-1.5-12-1.7-11.5-9.4 0 0 40.4 7.2 58 10.7 17.4 3.5 29.7 10.8 29.7 26.3s-3.5 22.6 11.3 28.5" id="path31" style="fill:none;stroke:#000000;stroke-width:1.30778897;stroke-linecap:round;stroke-linejoin:round;stroke-miterlimit:4;stroke-opacity:1;stroke-dasharray:none"/><path d="M184.8 169.3s0 9 11 10.2l38.4 5.3" id="path33" style="fill:none;stroke:#000000;stroke-width:1.30778897;stroke-linecap:round;stroke-linejoin:round;stroke-miterlimit:4;stroke-opacity:1;stroke-dasharray:none"/><path d="M192.1 179s-1.1 6.1 8.2 7.5 36 3.9 36 3.9" id="path35" style="fill:none;stroke:#000000;stroke-width:1.30778897;stroke-linecap:round;stroke-linejoin:round;stroke-miterlimit:4;stroke-opacity:1;stroke-dasharray:none"/><path d="M201 186.8s-1.9 6.3 8.9 7.2l27.7 2.1" id="path37" style="fill:none;stroke:#000000;stroke-width:1.30778897;stroke-linecap:round;stroke-linejoin:round;stroke-miterlimit:4;stroke-opacity:1;stroke-dasharray:none"/><path d="M206.5 193.8s2.1 6.7 8.5 7.3l24.5 1.8" id="path39" style="fill:none;stroke:#000000;stroke-width:1.30778897;stroke-linecap:round;stroke-linejoin:round;stroke-miterlimit:4;stroke-opacity:1;stroke-dasharray:none"/><path d="M215 201.1s0 6.3 6.4 6.7c6.3.3 21 .4 21 .4" id="path41" style="fill:none;stroke:#000000;stroke-width:1.30778897;stroke-linecap:round;stroke-linejoin:round;stroke-miterlimit:4;stroke-opacity:1;stroke-dasharray:none"/><path d="M221.4 207.8s-1.7 5.8 4.6 6.3 15.9-.2 15.9-.2" id="path43" style="fill:none;stroke:#000000;stroke-width:1.30778897;stroke-linecap:round;stroke-linejoin:round;stroke-miterlimit:4;stroke-opacity:1;stroke-dasharray:none"/><path d="M225.3 214.1s-1.6 7.3 8.3 7.2q11.1-.4 11.3-.6" id="path45" style="fill:none;stroke:#000000;stroke-width:1.30778897;stroke-linecap:round;stroke-linejoin:round;stroke-miterlimit:4;stroke-opacity:1;stroke-dasharray:none"/><path d="M229.6 220.8s.6 8.1 8 6.3q11.3-2.9 11.4-3.1" id="path47" style="fill:none;stroke:#000000;stroke-width:1.30778897;stroke-linecap:round;stroke-linejoin:round;stroke-miterlimit:4;stroke-opacity:1;stroke-dasharray:none"/><path d="M251.5 230.4s-5.9 5.2-7 6.4c-1.3 1.2-11.4 2-9.2-9.5" id="path49" style="fill:none;stroke:#000000;stroke-width:1.30778897;stroke-linecap:round;stroke-linejoin:round;stroke-miterlimit:4;stroke-opacity:1;stroke-dasharray:none"/><path d="M284 255c-1.7 1.5-2.3 7.8-2.3 7.8-8.5-3-7.2-9.4-7.2-9.4" id="path51" style="fill:none;stroke:#000000;stroke-width:1.30778897;stroke-linecap:round;stroke-linejoin:round;stroke-miterlimit:4;stroke-opacity:1;stroke-dasharray:none"/><path d="M266.1 249.4s-.7 10.5 9 9" id="path53" style="fill:none;stroke:#000000;stroke-width:1.30778897;stroke-linecap:round;stroke-linejoin:round;stroke-miterlimit:4;stroke-opacity:1;stroke-dasharray:none"/><path d="M258.1 245.8s-.8 12.7 10.1 10.6" id="path55" style="fill:none;stroke:#000000;stroke-width:1.30778897;stroke-linecap:round;stroke-linejoin:round;stroke-miterlimit:4;stroke-opacity:1;stroke-dasharray:none"/><path d="M251.6 238.8s-5.2 16.5 7.5 13" id="path57" style="fill:none;stroke:#000000;stroke-width:1.30778897;stroke-linecap:round;stroke-linejoin:round;stroke-miterlimit:4;stroke-opacity:1;stroke-dasharray:none"/><path d="M243.7 237.2s-1.5 11.2 7 10.5" id="path59" style="fill:none;stroke:#000000;stroke-width:1.30778897;stroke-linecap:round;stroke-linejoin:round;stroke-miterlimit:4;stroke-opacity:1;stroke-dasharray:none"/><path d="M256.4 186.5s6.9 2.3 5.4 14.6c-1.6 12.4-.4 15.4 2.2 19.4" id="path63" style="fill:none;stroke:#000000;stroke-width:1.30778897;stroke-linecap:round;stroke-linejoin:round;stroke-miterlimit:4;stroke-opacity:1;stroke-dasharray:none"/><path d="M331.8 188.7s-3.8 3.1-1.5 12a30 30 0 0 1-1.3 21.6" id="path65" style="fill:none;stroke:#000000;stroke-width:1.30778897;stroke-linecap:round;stroke-linejoin:round;stroke-miterlimit:4;stroke-opacity:1;stroke-dasharray:none"/><path d="M312.1 256.6s2.4 10.2 6.8 8.8c3.4-1.1 1-10.1 1-10.1" id="path67" style="fill:none;stroke:#000000;stroke-width:1.30778897;stroke-linecap:round;stroke-linejoin:round;stroke-miterlimit:4;stroke-opacity:1;stroke-dasharray:none"/><path d="M320.4 263.6s10.2 3.5 7.2-10.6" id="path69" style="fill:none;stroke:#000000;stroke-width:1.30778897;stroke-linecap:round;stroke-linejoin:round;stroke-miterlimit:4;stroke-opacity:1;stroke-dasharray:none"/><path d="M328 259.7s10.3 1.6 7.4-11.3" id="path71" style="fill:none;stroke:#000000;stroke-width:1.30778897;stroke-linecap:round;stroke-linejoin:round;stroke-miterlimit:4;stroke-opacity:1;stroke-dasharray:none"/><path d="M335.8 253.7s10.4 5.2 7.2-13.3c13.5 7.3 15.4-7.4 9-9.3" id="path73" style="fill:none;stroke:#000000;stroke-width:1.30778897;stroke-linecap:round;stroke-linejoin:round;stroke-miterlimit:4;stroke-opacity:1;stroke-dasharray:none"/><path d="M320.3 277.6c0-6.7-1.3-13.2-8.7-13.2-6.7 0-7.3 6-7.7 13.2-.5 8.4-4.3 11.9-4.3 11.9 5 1.5 9.2-.5 10.7-1.3l.5-.3q2.8 2.7 5.5 3.7c4.9 2 9 .8 9 .8-4.7-4.6-5-8-5-14.8" id="path75" style="fill:none;stroke:#000000;stroke-width:1.30778897;stroke-linecap:round;stroke-linejoin:round;stroke-miterlimit:4;stroke-opacity:1;stroke-dasharray:none"/><g id="g77" style="stroke:#000000;stroke-width:1.30778897;stroke-miterlimit:4;stroke-opacity:1;stroke-dasharray:none"><path d="M325.1 323.5s1.6-4.4 0-8.4a11 11 0 0 1-2.5 5.1c1.4 1 2.5 2 2.5 3.3" id="path79" style="stroke:#000000;stroke-width:1.30778897;stroke-linecap:round;stroke-linejoin:round;stroke-miterlimit:4;stroke-opacity:1;stroke-dasharray:none"/><path d="m310.9 323.9 1.5-4.3q-3.1-2-5.6-1.9-.2 3.4 4 6.2" id="path81" style="stroke:#000000;stroke-width:1.30778897;stroke-linecap:round;stroke-linejoin:round;stroke-miterlimit:4;stroke-opacity:1;stroke-dasharray:none"/><path d="M328.4 300.8c-.8 2.7 1.6 4 1.6 4s2.8.3 2.8 2.8c0 0 3-6-4.4-6.8" id="path83" style="stroke:#000000;stroke-width:1.30778897;stroke-linecap:round;stroke-linejoin:round;stroke-miterlimit:4;stroke-opacity:1;stroke-dasharray:none"/><path d="M328.4 300.8q0 0 0 0c-3.4-.4-3.8.5-7.3 1.5-3 .9-6.8-2-4.8-10.7a17 17 0 0 1-5.6-3.7l-.4.3s-1.2 3 .2 8.2-1 6.1-3.3 6.1q-1.4 0-3 .3.5 2-.1 5.2c1 0 1.7.3 3.1.3 2.5 0 3.5-2 3.5-2s.7 1.6-2.2 6.5a11 11 0 0 0-1.7 4.9c1.5 0 3.7.5 5.5 1.9 1.4-4 3.4-9.1 4-9.1 2 0 .3 4.6 2.6 6.9q1.7 1.6 3.7 2.8 1.6-1.9 2.5-5.1-.4-1-1.1-2c-3.2-4.4-4.5-5.3-3.2-5.9 2.3-1 8 .9 9.2-2.4 0 0-2.4-1.3-1.6-4" id="path85" style="fill:none;stroke:#000000;stroke-width:1.30778897;stroke-linecap:round;stroke-linejoin:round;stroke-miterlimit:4;stroke-opacity:1;stroke-dasharray:none"/><path d="M304.1 302.8c-1.8.6-3.7 2-4.7 6q3.4-1 4.7-.8.7-3.3 0-5.2" id="path87" style="stroke:#000000;stroke-width:1.30778897;stroke-linecap:round;stroke-linejoin:round;stroke-miterlimit:4;stroke-opacity:1;stroke-dasharray:none"/></g><path d="M291.1 274.9c0-5-.7-10.6-7-10.6-6.4 0-7.4 4.6-7.4 14 0 6.9-5.4 12.2-5.4 12.2q4.7 0 7.4-1c3.8-1 5.3-2.6 5.3-2.6q1 .9 2.2 1.5c5 2.6 12 1.4 12 1.4-4.8-2.2-7-6.6-7-15" id="path89" style="fill:none;stroke:#000000;stroke-width:1.30778897;stroke-linecap:round;stroke-linejoin:round;stroke-miterlimit:4;stroke-opacity:1;stroke-dasharray:none"/><path d="M266 300.4c-2.5.3-5.2 1.7-7.6 5.6h7.7c1.3-1.8.7-4 0-5.6" id="path91" style="stroke:#000000;stroke-width:1.30778897;stroke-linecap:round;stroke-linejoin:round;stroke-miterlimit:4;stroke-opacity:1;stroke-dasharray:none"/><path d="M279.2 319.3q.4.3 1 .3s3 2 1 5.4c0 0 4-.3 4.2-6.8-3.7-.7-6.2 1.1-6.2 1.1" id="path93" style="stroke:#000000;stroke-width:1.30778897;stroke-linecap:round;stroke-linejoin:round;stroke-miterlimit:4;stroke-opacity:1;stroke-dasharray:none"/><path d="M263.6 316.2q-1 3 .4 7.4 3.4-2 5.3-5.3c-2.1-2.3-4.2-2.4-5.7-2.1" id="path95" style="stroke:#000000;stroke-width:1.30778897;stroke-linecap:round;stroke-linejoin:round;stroke-miterlimit:4;stroke-opacity:1;stroke-dasharray:none"/><path d="M290.4 304.4c-2.6-1.1-8.9 1.6-8.9-2.6 0-3.1 3.6-8 4.7-13.4q-1.2-.6-2.2-1.5s-1.5 1.6-5.3 2.6c-.5 4.7-1.8 11.8-4.3 11.8-2.2 0-5.2-1.3-8.4-.9.8 1.6 1.4 3.8 0 5.7 2.8.2 5.3.5 5.3 1.3 0 1.3-6 3.2-7.7 8.8 1.5-.3 3.6-.2 5.7 2.1 2.7-4.2 3.8-8.7 6-7.2 1.2 1 1.6 6.9 3.9 8.2 0 0 2.5-1.8 6.2-1.1v-.3c.7-4.1-2.5-3.5-3.4-8.8 0 0 3.8 1 7 .7 1-1.3 2.1-3.2 1.4-5.4" id="path97" style="fill:none;stroke:#000000;stroke-width:1.30778897;stroke-linecap:round;stroke-linejoin:round;stroke-miterlimit:4;stroke-opacity:1;stroke-dasharray:none"/><path d="m290.8 304.6-.4-.2c.7 2.2-.3 4-1.5 5.4q.8 0 1.4-.3 5.1-1.4 6.2 1.9s1.5-5.3-5.7-6.8" id="path99" style="stroke:#000000;stroke-width:1.30778897;stroke-linecap:round;stroke-linejoin:round;stroke-miterlimit:4;stroke-opacity:1;stroke-dasharray:none"/><path d="M287.5 190.2s4.5.7 5.8 2l.4-.5s-4.5-2.3-1.7-4.6c0 0-2.2 1.7-2.6 2.7z" id="path101" style="fill:#ffffff;stroke:#000000;stroke-width:1.30778897;stroke-linecap:round;stroke-linejoin:round;stroke-miterlimit:4;stroke-opacity:1;stroke-dasharray:none"/></g></g><!-- app4joy --></svg>