<svg width="900" height="600" id="svg2" viewBox="0 0 900 600" xmlns="http://www.w3.org/2000/svg"><g id="g1"><path id="rect24165" style="fill:#89c5e3" d="M0 0h900v600H0z"/><path id="rect2545" style="fill:#ffffff" d="M0 200h900v200H0z"/></g><g transform="matrix(1.2 0 0 1.2 0 -200)" id="g6723"><path d="M618.7 374.3a214.5 214.5 0 1 1-.4-12.4" transform="translate(264.4 314.2)scale(.27345)" id="path2286-2-2" style="fill:#89c5e3;fill-opacity:1;stroke:none"/><g transform="translate(-14.7 -14.6)scale(1.03926)" id="g6708"><g transform="translate(85.2 276.7)scale(.2337)" id="g2296"><path d="M1449.2 588.7c1 84.3-47.4 169.7-126 203.8-82 37-185.2 10.6-242.7-57.7a213 213 0 0 1-46.7-188.9 248 248 0 0 1 41-46.4c9-16.7 28.6-25.5 28.3-1.2 12-10.8 11-30.7 26-39.4 12.7-14.7 15.2-39.9 33.8-48.5 19.6 4.8 26.7 31.3 47 34 20.4-7 25-43.1 50.3-37.6 25.4 7 27.7 41.8 51.9 50 6.7-11.6 18-20.3 24.8-2.2 11.2 16.7 21.1 36.8 39.9 46.2 10.6 0 24-13.8 30 3.5 10.9 15.8 12.6 43 33.7 48.4l2.4-.3" id="path2294" style="fill:#000000;fill-opacity:1;stroke:none"/><path d="M1443.4 590.2c1 82.3-46.4 166-123.2 199.3-80.3 36-181.2 10.3-237.4-56.5a209 209 0 0 1-45.7-184.7 251 251 0 0 1 40-45.5c8.8-16.2 28-24.9 27.8-1.1 11.8-10.6 10.7-30 25.3-38.5 12.5-14.5 15-39 33.2-47.5 19.1 4.8 26 30.6 46 33.3 19.9-6.9 24.5-42.2 49.2-36.8 24.8 7 27 40.9 50.7 48.8 6.6-11.2 17.7-19.7 24.3-2 11 16.3 20.6 36 39 45.1 10.3 0 23.4-13.5 29.4 3.5 10.6 15.4 12.2 42 32.9 47.3l2.3-.3" id="path2283" style="fill:#078930;fill-opacity:1;stroke:none"/></g><path d="M402.2 402.7c-3 5.6-11 6-11.1 5.6-.3-.3 7.9-1 10.9-6.6s6.6-8.2 6.8-7.9-3.5 2.9-6.3 8.3" id="path2306" style="fill:#000000;fill-opacity:1;stroke:none"/><path d="M386.3 390.4c-3 3.4-4.4 5.8-4.7 5.8s1-3 4-6.3c2.9-3.3 5.6-6 5.8-5.9.1.2-1 1.4-3.8 4.7" id="path1326" style="fill:#000000;fill-opacity:1;stroke:none"/><path d="M364.8 386.4c-3 3.4-5.9 10.2-6.2 10.2a36 36 0 0 1 5.4-10.7c2.9-3.3 5.7-6 5.8-5.9.2.2-1 1.4-3.8 4.7" id="path1328" style="fill:#000000;fill-opacity:1;stroke:none"/><path d="M344.4 401.6c2.6 3.6 8 8.2 8.2 8.2s-5-2.7-7.6-6.4c-2.5-3.6-1.4-10.2-1.5-10" id="path1330" style="fill:#000000;fill-opacity:1;stroke:none"/><path d="M417.8 432c-1.9-5.2-3.6-10.6-6.6-15.2-3.3-.4-4 4-5.7 6.2-3.3 5.4-6 11.2-9.5 16.5-.7-3 3-4 3.4-6.9a97 97 0 0 1 9.2-15.8c3.1-2.3 5.1 3 6 5.6q3 6 5.2 12.7" id="path2287" style="fill:#000000;fill-opacity:1;stroke:#ad0000;stroke-width:0.0268634;stroke-miterlimit:4;stroke-opacity:1"/><path d="M345.8 418.7c-2.4-4-3.8-8-6.4-11.6-2.8-.3-3.4 3.1-4.8 4.8-2.8 4.2-5.2 8.7-8.1 12.8-.6-2.3 2.5-3.1 2.9-5.3q3.3-6.5 7.8-12.3c2.6-1.8 4.3 2.4 5.1 4.3 1.7 3.2 4.3 6.7 5.5 10" id="path3177" style="fill:#000000;fill-opacity:1;stroke:#ad0000;stroke-width:0.0218293;stroke-miterlimit:4;stroke-opacity:1"/><path d="M353.2 436.5c-3.2-.2-3.9 2.2-5.5 3.5-3.2 3-5.8 6.2-9.2 9-.7-1.6 2.9-2.2 3.3-3.7q3.8-4.6 8.9-8.8c3-1.3 6.2 1 7 2.3" id="path3179" style="fill:#000000;fill-opacity:1;stroke:#ad0000;stroke-width:0.0196538;stroke-miterlimit:4;stroke-opacity:1"/><path d="M388.3 456.5c-3-2.3-8.5-7.4-12.3-8-5.3-.2-4.4 1-7 2.2-5.1 3.2-10 6.8-15.7 9.2-1-1.4 4.8-1.9 5.5-3.1 4.1-2.5 8.7-6.5 14.4-8.7 4.9-1 8.5 3 10 4 3 2 3.7 2.8 6 4.8" id="path3181" style="fill:#000000;fill-opacity:1;stroke:#ad0000;stroke-width:0.0228192;stroke-miterlimit:4;stroke-opacity:1"/><path d="M411.6 447.5c-4.4-1-4.6-10.1-10.1-9-4.9 3.2-4.7 5.8-6.5 8.4-3.2 5.7-5.5 11-9.1 16.7-1.8-.6 3.2-4.8 3-6.4q3.3-7.5 8.9-16.1c3.8-4.1 3.5-3.4 5.5-3.3 2 1.6 3.5 2.4 4.7 5.1" id="path3183" style="fill:#000000;fill-opacity:1;stroke:#ad0000;stroke-width:0.0252587;stroke-miterlimit:4;stroke-opacity:1"/><path d="M395.2 439.2q-2.6-2-2.7-2.3s1.3.4 3 1.9q2.4 2.3 2.4 2.6.2.3-1.9-1.6" id="path3185" style="fill:#000000;fill-opacity:1;stroke:none"/></g><path d="M375 350.8a65.8 65.8 0 1 0 65.7 65.8l-.1-3.8c-2-34.8-30.8-62-65.7-62zm0 16.5a49.3 49.3 0 0 1 49.1 46.5v2.8a49.3 49.3 0 1 1-49.2-49.3z" id="path5901" style="fill:#fcdd09;fill-opacity:1;stroke:#000000;stroke-opacity:1"/><g id="text2035" style="font-size:16.6667px;line-height:1.25;font-family:&quot;TeX Gyre Termes&quot;;-inkscape-font-specification:&quot;TeX Gyre Termes&quot;;text-align:center;letter-spacing:1pt;text-anchor:middle;stroke-width:0.416667"><path d="m341.9 460.5.4.3c1.7-1.1 2.5-1 4.5.2l.4.2 1.3 1-.2.6-2.2 3.5-2.2-1.4c-1.1-.7-1.2-1-.7-2.3l-.3-.2-2 3.3.3.2c.9-1 1.2-1.1 2.4-.4l2.2 1.3-2 3.2q-.3.5-.8.2l-1.9-1.2c-1.6-1-1.8-1.4-1.2-2.8l-.4-.3-1.2 2 7.5 4.8.2-.3c-1-.7-1-1-.4-2l3.9-6.3c.6-1 1-1.1 2-.5l.2-.3-7.7-4.8z" id="path3163"/><path d="M334.3 453.5q-1.4 1.3-.3 4.8.9 2.7 0 3.5-1 1-2.3 0-.9-.9-.8-2.1c0-.8 0-1.2.6-2.1l-.3-.3-2.2 2.8.2.2q.5-.3.8 0l.4.6q.4 1 1 1.6a3 3 0 0 0 1.9.8q1.2 0 2.2-1 1.3-1.2.3-4a7 7 0 0 1-.4-3.2q0-.5.5-.9 1.4-1.2 2.8.1 1.5 1.4.4 4.5l.3.2 2-2.9-.2-.2q-.5.3-.7 0-.2 0-.5-.6l-1.1-1.7c-1.4-1.3-3.4-1.4-4.6-.1" id="path3165"/><path d="m322.5 446.5-2.3 1.6 5.3 7.8 2.4-1.6-.2-.3c-1.7.7-2.2.6-3.3-1l-.5-.7 6.9-4.7c1.1-.8 1.4-.8 2.2.3l.3-.2-2.8-4-.2.2c.7 1.2.6 1.5-.4 2.2l-7 4.8-.5-.7c-1-1.6-1-2 .3-3.4z" id="path3167"/><path d="m324.5 430.2-.3.1c.2.7.1 1-.8 2l-7.3 7.3v.3l9 .2c2.6.1 3 .2 3.3 1l.3-.2-1.2-3h-.3q.5 1.1-.3 1.4h-2.7l-1.6-4 1.2-1.2 1-.7h.4q.3.1.5.9l.3-.1zm-2.5 5.6 1.5 3.6-5-.1z" id="path3169"/><path d="M317.2 417.9q-2.3.3-3.5 1.8-1.5 2-1.2 5.4l.5 4.5h.4c0-1.4 0-1.5 1.3-1.7l7.3-.8q1.6-.5 1.7 1.3h.3l-.5-4.8q-.5-3-2-4.5a6 6 0 0 0-4.3-1.2m.3 1.8q3-.3 4.4 1.5.8 1.1 1 3.2.2 1-.6 1l-8.4 1q-.7 0-.7-.9-.2-2 .4-3.4 1.2-2.1 4-2.4" id="path3171"/><path d="M318.9 403.1q-2.5-.4-4.3.9t-2.3 3.7c-.4 3.2 1.7 5.7 5 6.2a6 6 0 0 0 4.2-.8q1.8-1.3 2.2-3.7c.5-3.2-1.5-5.8-4.8-6.3m-.3 2q1.5 0 2.9.9.6.3 1 1 .9 1 .6 2.3-.1 1-1 2-1.7 1.1-4.5.7t-4-1.7a3 3 0 0 1 .5-4.5q1.4-1.2 4.5-.8" id="path3173"/><path d="m328.7 386.6-.2.4.8 1.2q.5 1.3-.5 3l-.5 1q-.7 1.6-1.3 1l-7-3.7c-1-.5-1.1-.8-.6-2l-.2-.2-2.2 4.2.2.1c.7-1 1-1.1 2-.6l6.6 3.5c1 .6 1.1.9.6 2l.3.1 4.2-7.9z" id="path3175"/><path d="m335.5 382.7-.2-.2c-.9 1-1.2 1-2.2.3l-5.8-4.5c-1-.8-1-1.1-.2-2.3l-.3-.1-3 3.9.2.1c1-1 1.2-1 2.2-.3l5.8 4.6c1 .7 1 1 .2 2.2l.3.2z" id="path3178"/><path d="M341.9 372.5q-.7-.9-1.9-.9-.8-.1-2 .7.6-1 .6-1.7.1-.8-.6-1.7-1.9-2-5.1.8l-3.5 3 .2.3c1.1-.8 1.4-.8 2.2 0l4.9 5.6c.8 1 .8 1.3-.2 2.2l.2.3 4.2-3.7q1.5-1.5 1.7-2.7 0-1.2-.7-2.2m-1.4 1.3q.9 1 .5 2-.2 1-1.5 2-.8.7-1.2.1l-2.7-3q1.6-1.6 2.4-1.8 1.5-.5 2.5.7m-3.7-3.7q1.3 1.5-.5 3.2l-1.2 1-2.5-2.9q-.3-.3 0-.6l.5-.5q2.1-1.8 3.7-.2" id="path3180"/><path d="m355.7 368-.2-.2q-.8.3-1.6 0l-5-2.2q1.2-.9 1.5-1.8t-.1-2-1.5-1.4c-.8-.3-2.3 0-3.6.7l-4.1 2.1.1.3c1.2-.5 1.4-.4 2 .7l3.3 6.4c.7 1.2.6 1.4-.4 2.1l.1.3 4-2.1v-.3c-1.2.5-1.5.4-2-.7l-1.6-2.9.8-.4 5.9 2.7zm-7-5.5q.5 1.3 0 2.1c-.5.8-1 1.1-2.4 1.9l-1.9-3.6q-.3-.6.5-1 2.7-1.5 3.7.6" id="path3182"/><path d="m366 362.3-.4.2c-.4 1.9-1 2.5-3.3 3l-.4.2q-1.2.3-1.6.2l-.3-.5-1-4 2.5-.6c1.3-.4 1.6-.2 2.2 1h.3l-1-3.8-.3.1c.1 1.4 0 1.7-1.4 2l-2.5.7-.9-3.6q-.2-.7.4-.7l2.2-.6c1.8-.4 2.2-.3 2.9 1.1l.4-.1-.7-2.3-8.5 2.2v.3c1.3-.2 1.5 0 1.8 1l1.9 7.3c.2 1.1 0 1.4-1 1.8v.3l8.7-2.2z" id="path3184"/><path d="M385.7 359.8q.3-2.2-1-3.8-1.6-1.9-5-2.2l-4.6-.4v.3c1.3.2 1.4.4 1.3 1.6l-.7 7.4q.2 1.6-1.6 1.3v.3l4.7.5q3 .3 4.9-1 1.8-1.5 2-4m-1.8 0q-.3 3-2.4 4-1.3.4-3.3.3-1 0-.8-.8l.8-8.4q0-.7.9-.5 2.1.1 3.2 1 1.9 1.7 1.6 4.4" id="path3186"/><path d="m397.5 366.4-.5-.1c-1.3 1.4-2.1 1.6-4.4.8l-.4-.2q-1.3-.3-1.5-.7v-.5l1.4-3.9 2.4.8c1.3.5 1.5.8 1.2 2.2h.4l1.3-3.6-.4-.1c-.6 1.2-1 1.3-2.2.9l-2.5-.8 1.2-3.5q.2-.6.7-.4l2.2.7c1.8.7 2 1 1.8 2.5l.4.2.7-2.3-8.3-3-.1.4c1 .5 1.2.8.8 1.9l-2.4 7c-.4 1-.7 1.2-1.9 1v.2l8.4 3z" id="path3188"/><path d="M412.3 377.5v-.4q-2.6.3-4-1a4 4 0 0 1-1.5-2.3q-.4-2 1.4-4.3c1.9-2.3 4.3-2.9 6.2-1.4q1.2 1 1.3 2.3c.1.8 0 1.3-.4 2.4l.3.2 2.2-3-.2-.3q-.5.3-1 0l-.4-.5q-.6-1-1.6-1.8-1.6-1.3-3.7-1.2-2.4 0-4.3 2.3c-2.1 2.7-1.8 5.8.8 7.9a6 6 0 0 0 4.9 1.1" id="path3190"/><path d="M423.8 386q2-1.6 2.3-3.6.5-2.4-1-4.3c-2-2.5-5.3-2.9-8-.8a6 6 0 0 0-2.3 3.6q-.2 2.3 1 4.1c2 2.6 5.3 3 8 1m-1.2-1.6a9 9 0 0 1-2.7 1.4q-.7.3-1.5.1a3 3 0 0 1-2.7-3.4q.3-1.9 2.6-3.7 2.3-1.5 4-1.6a3 3 0 0 1 3 3.5q-.3 1.9-2.7 3.7" id="path3192"/><path d="M426.3 397.3q1.8-.8 2-4.4.2-2.8 1.4-3.3 1.4-.5 2 1 .6 1 .1 2.2-.3.9-1.4 1.7l.2.4 3-1.8v-.3q-.6 0-.8-.3l-.1-.7q0-1-.4-1.8a3 3 0 0 0-1.4-1.4q-1.2-.6-2.4 0-1.8.7-1.9 3.7a7 7 0 0 1-.7 3q-.2.4-.8.7-1.6.6-2.6-1.1-1-2 1.3-4.3l-.1-.3-3 1.9.1.3q.5-.1.7.2l.2.8q0 1 .4 2c.8 1.7 2.6 2.5 4.2 1.8" id="path3194"/><path d="m434.7 408.2 2.8-.7-2.1-9.2-2.8.6v.3c2 0 2.3.3 2.7 2.2l.2.8-8 1.9c-1.5.3-1.7.2-2-1.2l-.4.1 1.1 4.8.3-.1c-.2-1.4 0-1.6 1.1-2l8.3-1.8.2.9c.4 1.8.2 2.2-1.5 3z" id="path3196"/><path d="M426.8 422.6h.4c0-.8.2-1 1.4-1.5l9.5-4.1v-.4l-8.2-3.5c-2.4-1-2.7-1.2-2.7-2h-.3v3.3h.3q0-1.2.7-1.2l.6.2 2 .7v4.4l-1.6.7-1.2.3-.4-.2-.1-1h-.3zm4.3-4.3v-3.9l4.6 2z" id="path3198"/><path d="M421.7 440h.3q.2-.8 1.2-1l5.2-1.8q-.3 1.5 0 2.3.4 1 1.5 1.5 1 .4 2 0 1.3-.6 2.2-3l1.7-4.2-.3-.1c-.6 1-.8 1.2-2 .8l-6.7-2.6c-1.3-.5-1.4-.7-1-1.9l-.4-.1-1.6 4.3.3.1c.5-1.1.8-1.3 2-.9l3 1.2-.3.9-6.2 1.9zm8.9-.7q-1.2-.4-1.4-1.5c-.2-.9 0-1.5.5-3l3.8 1.5q.7 0 .3 1-1 3-3.2 2" id="path3200"/><path d="m418 445.6.3.2c.8-1.2 1.1-1.3 2.2-.6l6.3 3.8c1 .6 1.1 1 .4 2.2l.3.2 2.6-4.3-.3-.1c-.8 1.1-1 1.2-2.1.6l-6.4-3.9c-1-.6-1-1-.4-2.1l-.3-.2z" id="path3202"/><path d="M411.7 456.2h.4q0-2.4 1.2-3.9a4 4 0 0 1 2.4-1.3q2-.2 4.2 1.6c2.3 2 2.7 4.5 1 6.3q-1 1-2.3 1.2-1 .2-2.3-.6l-.3.3 3 2.4.2-.3q-.3-.5 0-.8.1-.3.6-.4 1.1-.7 1.9-1.6 1.4-1.6 1.4-3.6 0-2.5-2-4.4c-2.6-2.3-5.8-2.1-8 .3a6 6 0 0 0-1.4 4.8" id="path3204"/><path d="m399.5 462.7.2.3c.6-.4.8-.4 2 .3l8.8 5.5.3-.2-1.8-8.7c-.5-2.6-.5-3 .2-3.4l-.2-.3-2.7 1.9.1.2q1-.6 1.4 0l.2.6.5 2-3.6 2.5-1.5-1-.9-.7v-.5q0-.2.7-.6l-.2-.3zm6 1.1 3.1-2.2 1 5z" id="path3206"/></g><g transform="translate(57 341.7)scale(.2337)" id="g1344"><g transform="translate(353.6 156.9)" id="g2259"><path d="M687 405a115.4 115.4 0 1 1-.2-6.6" transform="translate(434.7 -241.5)" id="path2255" style="fill:#000000;fill-opacity:1;stroke:none"/><path d="M687 405a115.4 115.4 0 1 1-.2-6.6" transform="translate(452.7 -228.8)scale(.96857)" id="path2257" style="fill:#89c5e3;fill-opacity:1;stroke:none"/></g><path id="path1367" style="fill:#ffc694;fill-opacity:1;fill-rule:evenodd;stroke:#000000;stroke-width:0.560881px;stroke-linecap:butt;stroke-linejoin:miter;stroke-opacity:1" d="M112 117.7a62.4 62.4 0 0 0 7.4 89.7l.1.2 2.1 1.6c.8-1 .9-4.3.6-5.9a32 32 0 0 0-4.8-15.5c1.5-5.5.9-11.2 2-16.8 3-4.4 3.8-9.9 5.4-14.7 3.8-5.5 9.2-1 13.3 1.2 4.4 3 9.5 4.5 14.5 6.5 5.5.7 10.5 3.6 16.1 2.9 5-3 11-.2 16.3-2.1 6-1.4 10.7 3 16.7 1.8q8 .4 15.2-2.8c4.8 1 5.4-5.8 3-7.6l-.2-.8-.6-.4q-.3-.3-.7-.3l-.8-.2h-1.9l-1 .1-1 .1h-2.4q-.2 0-.5-.3l-.2-.4v-.7l.6-.6c.4-.4.8-.6.2-1.5-3.7-1.3-8.6 2.4-12.5 3.6-5.2.9-11.5 1.3-16-1.5-5.8-1.3-12 .3-17.7-1.3-5.8-1-6-8.8-12.1-9.5-4-3.5-10.3-3.4-12.2-9.2-4.5-3.2-9-6.5-14.7-6.7-6-.4-10-5.3-14.3-8.9z" transform="translate(1076.5 37)scale(1.7829)"/><path d="M1064.3 435.6c0 1-11.8 1.9-26.4 1.9s-26.6-.8-27-1.9 11-1.9 25.5-2c14.6 0 27 .8 27.8 1.9" transform="matrix(.404 0 0 .27778 1040.1 196)" id="path1370" style="fill:#000000;fill-opacity:1;stroke:none"/><path d="M1064.3 435.6c0 1-11.8 1.9-26.4 1.9s-26.6-.8-27-1.9 11-1.9 25.5-2c14.6 0 27 .8 27.8 1.9" transform="matrix(.404 0 0 .27778 1040 201)" id="path1372" style="fill:#000000;fill-opacity:1;stroke:none"/><path d="M1064.3 435.6c0 1-11.8 1.9-26.4 1.9s-26.6-.8-27-1.9 11-1.9 25.5-2c14.6 0 27 .8 27.8 1.9" transform="matrix(.364 0 0 .27778 1083.3 205.2)" id="path1374" style="fill:#000000;fill-opacity:1;stroke:none"/><path d="M1452 310.9c.2.4-4 2.1-8.9 4.8s-7.7 7.1-7.8 6.7c-.2-.4 2.7-4.7 7.6-7.4a34 34 0 0 1 9-4.1" id="path1376" style="fill:#000000;fill-opacity:1;stroke:none"/><path d="M1287.8 329.5c-10.5 12.7-30.3 13.2-34.7 9.6-4.3-3.6 12.7-.6 23.2-13.3s18.4-24 22.8-20.3c4.2 3.5 2.7 1.7-7.2 14.1" id="path1379" style="fill:#ff9c6b;fill-opacity:1;stroke:none"/></g><g transform="translate(285.5 301.2)scale(.2337)" id="g5274"><path d="m381 716.3 2.4-3.7 3.2-2 3.4 1.9 1.9 3.6 1.9 14.2-3.7-3.5-3.2-1.4-3.7 1.7-3.4 3.4z" id="rect4392" style="fill:#000000;fill-opacity:1;stroke:none"/><path d="m381 758.8 2.4 3.6 3.2 2 3.4-1.8 1.9-3.6 1.9-14.2-3.7 3.4-3.2 1.5-3.7-1.8-3.4-3.3z" id="path5268" style="fill:#000000;fill-opacity:1;stroke:none"/><path d="m408.1 731.7 3.7 2.4 2 3.1-1.9 3.4-3.6 2-14.1 1.8 3.4-3.7 1.4-3.2-1.7-3.6-3.4-3.5z" id="path5270" style="fill:#000000;fill-opacity:1;stroke:none"/><path d="m365.6 743-3.6-2.4-2-3.2 1.9-3.4 3.5-2 14.2-1.8-3.4 3.7-1.4 3.2 1.7 3.7 3.4 3.4z" id="path5272" style="fill:#000000;fill-opacity:1;stroke:none"/></g></g><!-- app4joy --></svg>