<svg width="600" height="400" viewBox="0 0 600 400" id="Flagge" xml:space="preserve" xmlns:xlink="http://www.w3.org/1999/xlink" xmlns="http://www.w3.org/2000/svg"><defs id="defs8"><path style="color:#000000;fill:#ffffff;fill-opacity:1;fill-rule:nonzero;stroke:none;stroke-width:4.47656488;marker:none;visibility:visible;display:inline;overflow:visible" d="M217.4 208.7a83 83 0 1 0 165.2-17.4 83 83 0 0 0-165.2 17.4" id="path3875-7-4"/><path style="color:#000000;fill:#ffffff;fill-opacity:1;fill-rule:nonzero;stroke:none;stroke-width:3;marker:none;visibility:visible;display:inline;overflow:visible" id="path3875-0" d="M343.6 194.5a55.7 55.7 0 1 1-111.3 0 55.7 55.7 0 1 1 111.3 0" transform="rotate(185.5 337.6 229.5)scale(1.31187)"/></defs><g id="g3974"><path style="fill:#008033;fill-opacity:1" id="Rot" d="M0 0h600v400H0z"/><path style="fill:#ffffff" id="Weiß" d="M0 100h600v200H0z"/></g><g id="g1"><text xml:space="preserve" style="font-style:normal;font-variant:normal;font-weight:normal;font-stretch:normal;font-size:16px;line-height:0%;font-family:Calibri;-inkscape-font-specification:Calibri;letter-spacing:0px;word-spacing:0px;fill:#ffcc00;fill-opacity:1;stroke:none" id="text3867-7-7" transform="translate(-2.4)"><textPath xlink:href="#path3875-0" id="textPath3898-7" style="font-style:normal;font-variant:normal;font-weight:bold;font-stretch:normal;font-size:20px;font-family:Arial;-inkscape-font-specification:&quot;Arial Bold&quot;;fill:#ffcc00">الناصر من عند الله و الفاتح قريب</textPath></text><text xml:space="preserve" style="font-style:normal;font-variant:normal;font-weight:normal;font-stretch:normal;font-size:16px;line-height:0%;font-family:Calibri;-inkscape-font-specification:Calibri;letter-spacing:0px;word-spacing:0px;fill:#ffcc00;fill-opacity:1;stroke:none" id="text3871-9-9" transform="translate(2.1)"><textPath xlink:href="#path3875-7-4" id="textPath3959-6"><tspan style="font-style:normal;font-variant:normal;font-weight:bold;font-stretch:normal;font-size:20px;font-family:Arial;-inkscape-font-specification:&quot;Arial Bold&quot;;fill:#ffcc00" id="tspan3873-0-9">ناصر الدين عبد القادر ابن محي الدين</tspan></textPath></text><path style="color:#000000;fill:#ffffff;fill-opacity:1;fill-rule:nonzero;stroke:none;stroke-width:4.47656488;marker:none;visibility:visible;display:inline;overflow:visible" d="M217.4 208.7a83 83 0 1 0 165.2-17.4 83 83 0 0 0-165.2 17.4" id="path3875-7"/><path style="color:#000000;fill:#ffffff;fill-opacity:1;fill-rule:nonzero;stroke:none;stroke-width:3;marker:none;visibility:visible;display:inline;overflow:visible" id="path3875" d="M343.6 194.5a55.7 55.7 0 1 1-111.3 0 55.7 55.7 0 1 1 111.3 0" transform="rotate(185.5 337.6 229.5)scale(1.31187)"/><g transform="matrix(-19.09343 0 0 16.23007 585 35.2)" stroke-miterlimit="4" id="g17" style="fill:none;stroke:#ffcc00;stroke-width:0.17041938;stroke-miterlimit:4;stroke-dasharray:none"><path d="m15.8 11.6.4-.5.2-1c.1-.4.4-.8 0-.8q-.3.1-.4.5v.3l-.1.1-.2-2q0-.7-.3-.8l-.2.3q0-.5-.2-.6c-.3 0-.2.6-.3 1v-.7h-.2q-.3 0-.2.7v.4c0-.2 0-.7-.2-.6q-.2.2-.3.7v1l-.1.5v1l.3.7v.8q0 .3.5.1h1.2z" id="path19" style="fill:none;stroke:#ffcc00;stroke-width:0.17041938;stroke-miterlimit:4;stroke-dasharray:none"/><g transform="matrix(.13853 0 0 .14 -5.2 0)" id="g21" style="fill:none;stroke:#ffcc00;stroke-width:1.2237401;stroke-miterlimit:4;stroke-dasharray:none"><path d="M149 76.5c.8-2.2 1.8-3 2.7-3.6" id="path23" style="fill:none;stroke:#ffcc00;stroke-width:1.2237401;stroke-miterlimit:4;stroke-dasharray:none"/><path d="M150.4 84q.1-.7.7-1.2" id="path25" style="fill:none;stroke:#ffcc00;stroke-width:1.2237401;stroke-miterlimit:4;stroke-dasharray:none"/><path d="m140.2 59.9.2 6.5" id="path27" style="fill:none;stroke:#ffcc00;stroke-width:1.2237401;stroke-miterlimit:4;stroke-dasharray:none"/><path d="M147 54.6v3l.3 3.5v4.4" id="path29" style="fill:none;stroke:#ffcc00;stroke-width:1.2237401;stroke-miterlimit:4;stroke-dasharray:none"/><path d="M143.5 56.6v1.3l.1 8" id="path31" style="fill:none;stroke:#ffcc00;stroke-width:1.2237401;stroke-miterlimit:4;stroke-dasharray:none"/></g></g><g transform="translate(-2.4)" style="font-size:16px;font-style:normal;font-variant:normal;font-weight:normal;font-stretch:normal;line-height:125%;letter-spacing:0px;word-spacing:0px;fill:#ffcc00;fill-opacity:1;stroke:none;font-family:Calibri;-inkscape-font-specification:Calibri" id="text3867-7"><path d="M378.2 191h-1.6l-2-.5.2-.6a12 12 0 0 0 3.7-.4l5.6-1.6 1 .2 2 .6-3.4 1z" style="font-size:20px;font-weight:bold;fill:#ffcc00;font-family:Arial;-inkscape-font-specification:Arial Bold" id="path4021"/><path d="m375 187.6-1.1-5.3 2.6-.5.8 4.1 6.3-2.4.3-.7h1.1q.8 0 2 .4l-.2.4h-.3l-.6.6-.3 1.2-2.4-.2v-.3l-5.7 2.2z" style="font-size:20px;font-weight:bold;fill:#ffcc00;font-family:Arial;-inkscape-font-specification:Arial Bold" id="path4023"/><path d="m384.3 180-2.4-.5.5-2.5 2.4.6zm-10.3 2.8-1.6-5.9 2.6-.7 1.3 5 1-.7.7-.9 2.4.2q-.6.8-1.4 1.4l-2.5 1z" style="font-size:20px;font-weight:bold;fill:#ffcc00;font-family:Arial;-inkscape-font-specification:Arial Bold" id="path4025"/><path d="m372.5 177.4-.4-1.3q-.5-1.1.3-1.9.8-.9 3.1-1.7l2.6-.9q.9-.3 1.3-.7l.5-.8 2.7.2-1.2 1.3-2 1-1.9.6q-1.9.6-2.6 1.2-.4.3-.3.8l.4 1.3z" style="font-size:20px;font-weight:bold;fill:#ffcc00;font-family:Arial;-inkscape-font-specification:Arial Bold" id="path4027"/><path d="m371.1 172.4-4.7-9.2-.2-1.1q.2-.6.7-1.2l-1.6-.5q-.5-.3-.8-1l-.7-1.3 2.4-1.2.6 1.2q.6 1 1.3 1.3.9.3 2.4-.3l.3.7-1.5.6q-.5.3-.6.7-.2.3 0 .8l.6.7 1.3.8 3.8 2 1 .5q.7.4 1 1 .6 1 .1 2t-2 1.8zm2.7-2.9q.3 0 .3-.9 0-.6-.4-1.2-.3-.6-1-1.1t-2.4-1.4l1.1 2.2q1.5 3 2.4 2.4" style="font-size:20px;font-weight:bold;fill:#ffcc00;font-family:Arial;-inkscape-font-specification:Arial Bold" id="path4029"/><path d="M363.4 158.5q-.4.4-1.6.4t-2.4-.3-1.6-.9q-.6-.6-.7-1.8-.2-.9-.3-3.1h.7q0 1 .3 1.6 0 .5.5 1t1 .9l2.3.6q2 .5 2.8 0l.6-.9q.4-.7.5-1.4l2.4-1.1a5 5 0 0 1-2 3.2z" style="font-size:20px;font-weight:bold;fill:#ffcc00;font-family:Arial;-inkscape-font-specification:Arial Bold" id="path4031"/><path d="M354.4 146.9q-.8-.7-1.5-2-.7-1-1-2-1 .2-1.8-.1l-1-.7-1.3-1.3 1.7-2 1.5 1.4q.6.6 1.1.7.8.3 1.4 0 1.2-.6 2.4-.6 1 0 1.4.4.4.3 0 2-.6 1.6-1.5 2.6zm.6-3.4q.2-.2.2-.9t-.2-1q-.3-.2-1 .3z" style="font-size:20px;font-weight:bold;fill:#ffcc00;font-family:Arial;-inkscape-font-specification:Arial Bold" id="path4033"/><path d="m350 132.4-2.1 1.1-1.2-2.2 2.2-1.2zm-1.7 8.2q-.7 1-1.5 1.6-.7.5-1.4.6-.9 0-2-.4l-2-1a7 7 0 0 1-2.6-2.9q-.5-1.5.4-2.7.7-1.2 1.7-1.8l3.3-1.7.3.7-2.4 1.2-1.2 1.1q-.6.8 0 2t2 2.2a6 6 0 0 0 2.8 1.2q1.3 0 2-.7l.4-1.1.4-2 2.2-1.7-.3 1.8q-.3 1-1 2z" style="font-size:20px;font-weight:bold;fill:#ffcc00;font-family:Arial;-inkscape-font-specification:Arial Bold" id="path4035"/><path d="m334.4 127-2 2.2-7.1-1-1.5-.5-.8-.3 1-2.4 1 .4 1 .3-.2-1.4.2-1q.5-1.3 2.1-1.9 1.5-.5 3 0 1 .4 1.7 1.5.6 1 .6 2l-.5.2-1-.8-1-.5q-1.1-.6-2-.7-1.2 0-1.3.3-.2.6 1.6 3z" style="font-size:20px;font-weight:bold;fill:#ffcc00;font-family:Arial;-inkscape-font-specification:Arial Bold" id="path4037"/><path d="m326.3 117.5-1.8 1.8-1.8-1.8 1.7-1.8zm-3 10.2-5.9-1.7.7-2.5 5 1.4v-1.2l-.5-1 1.4-2q.5 1 .5 1.9t-.5 2.7z" style="font-size:20px;font-weight:bold;fill:#ffcc00;font-family:Arial;-inkscape-font-specification:Arial Bold" id="path4039"/><path d="m317.8 126.1-4.3-.8q-.6 0-1-.5-.3-.3-.1-1.1l.5-1.9h.4q0 .4.2.6l.6.3 3.3.7q0-1.5-.3-2.4a4 4 0 0 0-1-1.5l1.2-2.9q1.2 1.2 1.3 2.8.3 1.5-.2 3.7z" style="font-size:20px;font-weight:bold;fill:#ffcc00;font-family:Arial;-inkscape-font-specification:Arial Bold" id="path4041"/><path d="m294.9 111.7-.2.4q-.3-.9-.7-1.3l-1-.7-.4-1.3q.8.2 1.2.7a6 6 0 0 1 1.1 2.2m1.7 1.4q0 .7-.2 1.1t-.7.4h-.2l-.4-.1-.5.7-.5.2q-.2 0-.5-.3l-.2-.7v-.4l.1-.5h.1v.1l.1.5q.2.3.5.3t.5-.5.2-1.1h.2l.2.6.4.2q.5 0 .5-.8v-.6l.2-.1zm4.4 8.2-.1 1.3-.3 1.5-.2.4-1 .1-1.2-.1-.7-.6q-.6.6-1.3 1-.6.4-1.3.4t-1.2-.4-.9-1.5l-.9 1q-.4.5-.7.5l-2-.2q-.9-.2-.9-.4l.5-1.6 1-2 .7-.6 1-.6v-.5l.1-.9.4-1.2 1.5 4.4q.2.6.5.9t.8.2 1-.3l.8-.6-1-3-.3-.7q0-.6.2-1.1 0-.5.4-1l1.5 4.2.9 1.6q.4.4 1 .4t.6-.4l-1.4-3.7-.2-.9.1-1q0-.4.4-1l1.7 4.4.3 1zm-8.6.6-.4-1q-.6.2-1 .6t-.4.5l.4.2h1zm11.6-1v1.7l-.8 2-.6-.3a12 12 0 0 0 0-3.7l-1.1-5.7.2-1 .8-1.9.7 3.5z" style="font-size:20px;font-weight:bold;fill:#ffcc00;font-family:Arial;-inkscape-font-specification:Arial Bold" id="path4043"/><path d="M281.5 125.5a5 5 0 0 1-.3 3.6q-1 2.1-2.2 2.4-.9.3-1.9 0-1 0-3.4-1l.2-.7q1.2.4 2 .4a4 4 0 0 0 2.8-1.2q.9-1 1.6-2.6l-.6.2a2 2 0 0 1-1.7-.1q-.7-.5-1-1.5-.5-1.5-.2-2.9.2-1.5 1.1-1.9.7-.2 1.6.6.9 1 1.3 2.3zm-1.7-1.5q-.7-1.4-1.5-1.2-.3 0-.4.4v.5q0 .4.5.5l1-.1z" style="font-size:20px;font-weight:bold;fill:#ffcc00;font-family:Arial;-inkscape-font-specification:Arial Bold" id="path4045"/><path d="m265.7 129.1.5 1.5.2 2.1h-.7a12 12 0 0 0-1.5-3.4l-3.4-4.7-.2-1v-2l2 2.8z" style="font-size:20px;font-weight:bold;fill:#ffcc00;font-family:Arial;-inkscape-font-specification:Arial Bold" id="path4047"/><path d="m263.6 133.4-4.7 2.7-1.3-2.3 3.6-2.1-4.4-5.1h-.7l-.4-1.2-.3-1.9h.5l.1.3q.3.3.7.3h1.3l.6 2.2-.4.1 4 4.7z" style="font-size:20px;font-weight:bold;fill:#ffcc00;font-family:Arial;-inkscape-font-specification:Arial Bold" id="path4049"/><path d="m252 127 .3 2.4-2.6.3-.3-2.5zm7.3 8.8-5.8 4.1-1.6-2.1 1.5-1 .7-.5 2.2-1.2q-1.5.5-2.2.5-.8-.1-1.4-1-.8-1.2-1-2.6 0-1.5.6-1.9.9-.5 2.4.4t3 3zm-3.4-2.5q-.8-.6-1.4-.7l-1 .1-.1.3v.4q.3.3 1 .3.8 0 1.5-.4" style="font-size:20px;font-weight:bold;fill:#ffcc00;font-family:Arial;-inkscape-font-specification:Arial Bold" id="path4051"/><path d="m253.9 139.7-1.1.9q-.9.7-1.9.3t-2.6-2.4l-1.8-2.1q-.6-.7-1.1-1l-1-.2-.7-2.6q1 .3 1.6.7l1.7 1.6 1.2 1.5q1.2 1.6 2 2 .6.4 1 .1l1-.9z" style="font-size:20px;font-weight:bold;fill:#ffcc00;font-family:Arial;-inkscape-font-specification:Arial Bold" id="path4053"/><path d="m242.8 135.3.6 2.2-1.6.3.5 1.7-2 .5-.5-2 1.5-.5-.5-1.7zm7.3 7.5-4.5 4.2-1.8-2 3.7-3.5-1-.5-1.1-.2-1-2.2q1 0 1.9.5l2 1.8z" style="font-size:20px;font-weight:bold;fill:#ffcc00;font-family:Arial;-inkscape-font-specification:Arial Bold" id="path4055"/><path d="m245.8 146.6-1 1.2q-1.2 1.3-2 1.4-.7.3-1.8-.7l-1.4-1.5q-1 2-1 3.9a4 4 0 0 0 1.4 3q1.4 1.2 3.4.6a9 9 0 0 0 3.9-3q.7-.6 1.6-2.1h.3l-.6 4.4-.6.8q-1.8 2.1-4 2.4-2 .2-4-1.5-1.7-1.4-2.4-3.2a6 6 0 0 1-.3-3.4l-.2.1-.8 1.3-.6 1.9q-2.4-2.7-.4-5.1l1-1 3.2-3.4 1.4 2-1 1.7.5.5q.6.4 1 .3.6-.2 1.3-1.1l1-1.2z" style="font-size:20px;font-weight:bold;fill:#ffcc00;font-family:Arial;-inkscape-font-specification:Arial Bold" id="path4057"/><path d="m223.4 154.8 1.2 1.9-1.3.8 1 1.4-1.8 1.1-1.2-1.8 1.4-.9-1-1.5zm11.8 5.5-3.3 6-2.3-1.4 2.9-5q-.8-.6-1.1-.6l-1-.2q.3.4.4 1.2 0 .6-.3 1-.3.7-1 1-.8.1-1.5-.2a7 7 0 0 1-2-2q-1.2-1.5-.8-2.1.6-1 2.5-.9 2 .1 3.8 1.1zm-6.7-1.4-.8.1q-.3 0-.4.3v.6q0 .3.4.5h.4q.2 0 .4-.3z" style="font-size:20px;font-weight:bold;fill:#ffcc00;font-family:Arial;-inkscape-font-specification:Arial Bold" id="path4059"/><path d="M232.3 166q.5.1 1.1 1.2t1 2.2 0 1.9-1.2 1.5l-2.6 1.8-.4-.6 1.3-1 .7-1q.2-.6.1-1.4 0-.8-.5-2.2-.8-2.1-1.4-2.4-.4-.2-1-.1l-1.5.3-2.2-1.6a5 5 0 0 1 3.8.2z" style="font-size:20px;font-weight:bold;fill:#ffcc00;font-family:Arial;-inkscape-font-specification:Arial Bold" id="path4061"/><path d="m228.6 174.1-1.9 5.8-2.5-.8 1.6-4.9h-1.2l-1 .4-2-1.4q1-.5 2-.4l2.6.5zm1.6.7 1.5 1.6-1.1 1.1 1.2 1.2-1.5 1.4-1.5-1.5 1.1-1.2-1.2-1.2z" style="font-size:20px;font-weight:bold;fill:#ffcc00;font-family:Arial;-inkscape-font-specification:Arial Bold" id="path4063"/><path d="m226.6 179.6-1.5 8-.3 1.6-.4.8q-.4.7-1.3 1-1 .5-2 .2a6 6 0 0 1-2.3-1l-1-1 .4-.4 1.1.8.9.3 1-.2q.5-.2.8-.8l.3-.8.2-1.1 1.3-7-1.1.3q-.4 0-1 .4l-2.1-1.2q1.2-.6 2-.6t2.3.2zm1.3 4.1 2 1.6-1.7 2-2-1.6z" style="font-size:20px;font-weight:bold;fill:#ffcc00;font-family:Arial;-inkscape-font-specification:Arial Bold" id="path4065"/></g><g transform="translate(2.1)" style="font-size:16px;font-style:normal;font-variant:normal;font-weight:normal;font-stretch:normal;line-height:125%;letter-spacing:0px;word-spacing:0px;fill:#ffcc00;fill-opacity:1;stroke:none;font-family:Calibri;-inkscape-font-specification:Calibri" id="text3871-9"><path d="m369.1 208.4 2 1.5-1.5 2.1-2-1.5zm10.5 1.8-1 6-2.6-.4.8-5-1.1.1-1 .6-2.2-1.2q1-.6 2-.7l2.6.2z" style="font-size:20px;font-style:normal;font-variant:normal;font-weight:bold;font-stretch:normal;fill:#ffcc00;font-family:Arial;-inkscape-font-specification:Arial Bold" id="path4068"/><path d="m378.8 215.4-.3 1.3q-.3 1-1.3 1.4-1.2.3-3.5-.2l-2.7-.6q-1-.3-1.5 0l-.9.3-2.1-1.5q.9-.4 1.7-.5.9 0 2.2.3l1.9.4q2 .5 2.8.3.7 0 .8-.5l.3-1.3z" style="font-size:20px;font-style:normal;font-variant:normal;font-weight:bold;font-stretch:normal;fill:#ffcc00;font-family:Arial;-inkscape-font-specification:Arial Bold" id="path4070"/><path d="m378.2 219.7-3.5 9.7q-.3.7-.7 1-.5.3-1.3.3.6.7.7 1.5l-.2 1.4-.5 1.3-2.5-1 .5-1.2q.4-1 0-1.8-.3-.9-1.8-1.6l.3-.6 1.5.6h.9q.3-.2.5-.6t.1-1l-.3-1.4-1.2-4.1-.2-1.1q-.2-.8 0-1.5.4-1 1.3-1.3 1.2-.5 2.8.2zm-4 0q-.3 0-.8.5l-.7 1.1q-.2.7 0 1.5 0 .9.6 2.7l.8-2.4q1-3 .2-3.3" style="font-size:20px;font-style:normal;font-variant:normal;font-weight:bold;font-stretch:normal;fill:#ffcc00;font-family:Arial;-inkscape-font-specification:Arial Bold" id="path4072"/><path d="M373 233.9q.6.3 1.2 1.3.5 1.2.7 2.3.3 1.2-.1 1.9-.4.8-1.3 1.4l-2.7 1.6-.4-.7 1.4-.9q.4-.3.7-.9t.3-1.4-.4-2.3q-.4-2.1-1.2-2.4-.4-.2-1-.2-.8 0-1.5.2l-2-1.8a5 5 0 0 1 3.7.5z" style="font-size:20px;font-style:normal;font-variant:normal;font-weight:bold;font-stretch:normal;fill:#ffcc00;font-family:Arial;-inkscape-font-specification:Arial Bold" id="path4074"/><path d="M363.2 244.6q.8.5 1.2 1.1.5.6 1 1.8l-.5.3a12 12 0 0 0-3-2.3l-5-2.7-.7-.9-.9-1.7 3.1 1.6z" style="font-size:20px;font-style:normal;font-variant:normal;font-weight:bold;font-stretch:normal;fill:#ffcc00;font-family:Arial;-inkscape-font-specification:Arial Bold" id="path4076"/><path d="m363.5 249-3.4 4.2-2-1.7 2.6-3.2-5.9-3.3-.7.2-.8-.8-.9-1.8.5-.2.2.3q.2.2.8 0l1.2-.5 1.3 2-.3.2 5.3 3z" style="font-size:20px;font-style:normal;font-variant:normal;font-weight:bold;font-stretch:normal;fill:#ffcc00;font-family:Arial;-inkscape-font-specification:Arial Bold" id="path4078"/><path d="m360.7 252.6-3 3.2q-.6.5-1 .5-.5.1-1-.4l-1.3-1.5.2-.2h.6l.6-.3 2.3-2.5q-1.2-.7-2.2-1a4 4 0 0 0-1.8.1l-1.7-2.6q1.5-.2 3 .4 1.3.6 3 2.1z" style="font-size:20px;font-style:normal;font-variant:normal;font-weight:bold;font-stretch:normal;fill:#ffcc00;font-family:Arial;-inkscape-font-specification:Arial Bold" id="path4080"/><path d="m356 257.4-4.4 4.1-1.8-2 3.8-3.4-1-.5-1.2-.2-1-2.3q1.1.2 2 .6l2 1.8zm1.1 1.4.6 2.2-1.6.3.5 1.7-2 .5-.6-2 1.6-.5-.5-1.7z" style="font-size:20px;font-style:normal;font-variant:normal;font-weight:bold;font-stretch:normal;fill:#ffcc00;font-family:Arial;-inkscape-font-specification:Arial Bold" id="path4082"/><path d="m344.9 256.4.4 2.5-2.6.4-.3-2.5zm7.2 4.2q.8 1 1 2 .3.8.2 1.5l-1 1.7-1.7 1.7a7 7 0 0 1-3.4 1.5q-1.5 0-2.5-1.2-.9-1-1.2-2.3t-.5-3.6h.7l.4 2.7.7 1.4q.6.7 1.9.7 1.2-.1 2.7-1.3a6 6 0 0 0 2-2.3q.4-1.2 0-2l-1-.8q-.5-.4-1.8-1l-1-2.7q1.4.6 1.8 1 .7.4 1.5 1.5z" style="font-size:20px;font-style:normal;font-variant:normal;font-weight:bold;font-stretch:normal;fill:#ffcc00;font-family:Arial;-inkscape-font-specification:Arial Bold" id="path4084"/><path d="m336.4 266.4.2 3-5.5 4.5-1.3.8-.8.3-1.1-2.4 1-.4.8-.5-1-.8-.7-.8q-.6-1.4 0-2.9a4 4 0 0 1 2-2.2q1-.4 2.3-.2a4 4 0 0 1 1.9.9l-.3.5-1.2.2-1 .4q-1.2.5-1.9 1-.9.7-.7 1.2t3.4.8z" style="font-size:20px;font-style:normal;font-variant:normal;font-weight:bold;font-stretch:normal;fill:#ffcc00;font-family:Arial;-inkscape-font-specification:Arial Bold" id="path4086"/><path d="m329.9 274.5-5.8 2-.9-2.4 4.8-1.7-.7-1-1-.6v-2.4q.9.5 1.5 1.3t1.2 2.4zm-.3 2.3-.3 2.4-2.6-.3.4-2.5z" style="font-size:20px;font-style:normal;font-variant:normal;font-weight:bold;font-stretch:normal;fill:#ffcc00;font-family:Arial;-inkscape-font-specification:Arial Bold" id="path4088"/><path d="m325 276.3-4.3 1.2h-1q-.6-.1-.7-1l-.4-1.8.4-.1q0 .3.4.3h.7l3.2-.9q-.6-1.3-1.3-2a4 4 0 0 0-1.6-.8l-.1-3.1q1.4.5 2.3 1.8t1.5 3.4z" style="font-size:20px;font-style:normal;font-variant:normal;font-weight:bold;font-stretch:normal;fill:#ffcc00;font-family:Arial;-inkscape-font-specification:Arial Bold" id="path4090"/><path d="M312.1 276.4q.2.9 0 1.6 0 .8-.5 2l-.6-.1a12 12 0 0 0-.4-3.8l-1.6-5.5.2-1 .6-2 1 3.4z" style="font-size:20px;font-style:normal;font-variant:normal;font-weight:bold;font-stretch:normal;fill:#ffcc00;font-family:Arial;-inkscape-font-specification:Arial Bold" id="path4092"/><path d="m309.1 279.7-5.3.5-.3-2.7 4.2-.3-1.7-6.5-.7-.4.1-1.2.6-1.8.5.2v.3q0 .3.4.6l1.2.5-.4 2.4-.4-.2 1.6 6z" style="font-size:20px;font-style:normal;font-variant:normal;font-weight:bold;font-stretch:normal;fill:#ffcc00;font-family:Arial;-inkscape-font-specification:Arial Bold" id="path4094"/><path d="m303.2 268.4-1 2-1.4-.7-.8 1.5-1.8-1 1-1.8 1.4.7.8-1.6zm1.4 11.7-7.1.2v-2.7h2.5l2.5.2q-1.5-.2-2-.8-.7-.4-.7-1.5 0-1.6.7-2.8t1.5-1.2q1 0 1.8 1.7.7 1.6.8 4zm-1.4-4-.8-1.3q-.5-.4-.8-.4l-.4.1-.1.3q0 .5.6.8t1.5.5" style="font-size:20px;font-style:normal;font-variant:normal;font-weight:bold;font-stretch:normal;fill:#ffcc00;font-family:Arial;-inkscape-font-specification:Arial Bold" id="path4096"/><path d="M298.3 280.2H297q-1.2 0-1.6-1-.6-1.2-.4-3.6l.1-2.7q0-1-.2-1.5 0-.3-.5-.8l1.1-2.4.8 1.6q.2 1 .1 2.3v2q-.2 2 0 2.7t.7.7h1.4z" style="font-size:20px;font-style:normal;font-variant:normal;font-weight:bold;font-stretch:normal;fill:#ffcc00;font-family:Arial;-inkscape-font-specification:Arial Bold" id="path4098"/><path d="m293.8 280-4.4-.5q-.6 0-1-.4-.3-.4-.2-1l.4-2h.4q0 .4.3.6l.6.2 3.3.4q0-1.4-.5-2.4l-1.1-1.3 1-3q1.2 1.1 1.5 2.7.4 1.4.1 3.6z" style="font-size:20px;font-style:normal;font-variant:normal;font-weight:bold;font-stretch:normal;fill:#ffcc00;font-family:Arial;-inkscape-font-specification:Arial Bold" id="path4100"/><path d="M287.2 279.5q0 .6-1 1.4-.9.9-2 1.4-1 .6-1.8.4t-1.7-.9l-2.3-2.2.6-.5q.8.8 1.2 1 .5.4 1 .5h1.5l2-1q2-1.2 2.1-1.9v-1l-.6-1.4 1-2.5a5 5 0 0 1 .6 3.8z" style="font-size:20px;font-style:normal;font-variant:normal;font-weight:bold;font-stretch:normal;fill:#ffcc00;font-family:Arial;-inkscape-font-specification:Arial Bold" id="path4102"/><path d="m274.2 273-.7 1.4-1.4 1.5-.5-.4a12 12 0 0 0 1.5-3.5l1.2-5.6q0-.3.6-.9l1.4-1.4-.6 3.5z" style="font-size:20px;font-style:normal;font-variant:normal;font-weight:bold;font-stretch:normal;fill:#ffcc00;font-family:Arial;-inkscape-font-specification:Arial Bold" id="path4104"/><path d="m270 274.5-5.6-2.5 1.1-2.5 4.7 2.1v-1.2l-.2-1 1.7-1.8q.3 1 .2 2t-.9 2.5zm-1.7 1.4-2 1.6-1.6-2 2-1.6z" style="font-size:20px;font-style:normal;font-variant:normal;font-weight:bold;font-stretch:normal;fill:#ffcc00;font-family:Arial;-inkscape-font-specification:Arial Bold" id="path4106"/><path d="m266.5 263.8-2.1 1.3-1.4-2.1 2-1.4zm-1 8.3-1.3 1.7q-.8.6-1.4.7-.8.1-2-.1l-2.2-1a7 7 0 0 1-2.8-2.5q-.6-1.4.1-2.7.7-1.2 1.6-2t3.1-2l.3.7-2.2 1.5-1 1.2q-.5.9 0 2 .7 1 2.3 2 1.5.8 2.9.8t1.8-.8q.4-.6.4-1.2l.2-2 2-2v2q-.2.8-.9 2z" style="font-size:20px;font-style:normal;font-variant:normal;font-weight:bold;font-stretch:normal;fill:#ffcc00;font-family:Arial;-inkscape-font-specification:Arial Bold" id="path4108"/><path d="M251.7 264.2q-.7-.6-1.6-1.9l-1-2q-1 .3-1.9 0l-.9-.6-1.5-1.3 1.7-2 1.5 1.2 1.2.8q.8 0 1.3-.2 1.2-.6 2.4-.6 1 0 1.5.3.3.3 0 1.9-.4 1.7-1.3 2.7zm.5-3.5.2-.8q0-.7-.3-1-.3-.2-1 .3z" style="font-size:20px;font-style:normal;font-variant:normal;font-weight:bold;font-stretch:normal;fill:#ffcc00;font-family:Arial;-inkscape-font-specification:Arial Bold" id="path4110"/><path d="m245.5 259.1-7.7-8 2-1.9 4.7 5q.1-1.6-.2-2.8a4 4 0 0 0-1.7-2.2q1.3-.5 2.2-.4.8 0 1.4.7.5.4.6 1 .3.7.2 1.7v4q0 .4.5 1z" style="font-size:20px;font-style:normal;font-variant:normal;font-weight:bold;font-stretch:normal;fill:#ffcc00;font-family:Arial;-inkscape-font-specification:Arial Bold" id="path4112"/><path d="m238.5 251.8-.6-.8-.4-.5h-.2l.1.5q.1.3 0 .4l-.1.2q-.6.4-1.6.7t-1.4 0q-.5 0-1.8-1.3-1.5-1.2-2.2-2.2-1-1.5-1.1-2.9 0-1.4 1-2t2-1q1.5-.3 4-.1v.7h-2.4q-.8.2-1.5.6-.8.7-.7 1.6 0 1 1.2 2.5.5.7 1.8 1.9 1.2 1 1.4 1l-.2-.7-.7-1.2q-.7-.9-.3-1.2l.8-.2.9-.2q.9-.2 1.9.4 1 .5 1.6 1.4l.6.9zm-7.1.2-1.4-.1-.1-1.3-1.1-.1-.2-1.4h1.5v1.3l1.2.1z" style="font-size:20px;font-style:normal;font-variant:normal;font-weight:bold;font-stretch:normal;fill:#ffcc00;font-family:Arial;-inkscape-font-specification:Arial Bold" id="path4114"/><path d="m231.5 236-1.5.6-2 .2-.1-.7a12 12 0 0 0 3.4-1.5l4.7-3.4 1.1-.2h2l-2.9 2z" style="font-size:20px;font-style:normal;font-variant:normal;font-weight:bold;font-stretch:normal;fill:#ffcc00;font-family:Arial;-inkscape-font-specification:Arial Bold" id="path4116"/><path d="m227.4 234.3-2.1-5 2.4-1 1.7 3.8 5.6-3.7.1-.7 1.1-.3h2v.4l-.4.1q-.3.1-.4.7v1.3l-2.4.3v-.4l-5.2 3.4z" style="font-size:20px;font-style:normal;font-variant:normal;font-weight:bold;font-stretch:normal;fill:#ffcc00;font-family:Arial;-inkscape-font-specification:Arial Bold" id="path4118"/><path d="M225.6 230.1 224 226q-.3-.7 0-1 0-.6.8-.8l1.9-.5.1.4q-.3.1-.3.5v.6l1.2 3.2q1.2-.8 1.9-1.5.5-.7.7-1.6l3.1-.4q-.5 1.5-1.7 2.5t-3.3 1.7z" style="font-size:20px;font-style:normal;font-variant:normal;font-weight:bold;font-stretch:normal;fill:#ffcc00;font-family:Arial;-inkscape-font-specification:Arial Bold" id="path4120"/><path d="m223.4 223.9-1.6-6 2.5-.6 1.4 5 1-.7q0-.3.6-1l2.5.2q-.7 1-1.4 1.4-.9.6-2.6 1zm-1.7.3-2.2-.5.3-1.6-1.6-.3.4-2 2.1.4-.3 1.6 1.8.4z" style="font-size:20px;font-style:normal;font-variant:normal;font-weight:bold;font-stretch:normal;fill:#ffcc00;font-family:Arial;-inkscape-font-specification:Arial Bold" id="path4122"/><path d="m229.4 214.4-2.4-.8.8-2.4 2.4.7zm-7 4.5h-2.2q-.8 0-1.5-.6-.6-.4-1-1.6l-.8-2.3q-.4-2.3.2-3.7t2.2-1.7 2.6 0q1.3.1 3.4 1.2l-.3.6-2.5-.8h-1.6q-1 0-1.5 1.3-.4 1.2-.1 3a6 6 0 0 0 1.1 2.8q.9 1 1.9.9.5 0 1.1-.4l1.7-1.2 2.8.4q-1.2.9-1.6 1-.8.6-2 .7z" style="font-size:20px;font-style:normal;font-variant:normal;font-weight:bold;font-stretch:normal;fill:#ffcc00;font-family:Arial;-inkscape-font-specification:Arial Bold" id="path4124"/></g></g><!-- app4joy --></svg>