<svg height="500" id="svg678" width="750" viewBox="0 0 750 500" xmlns="http://www.w3.org/2000/svg"><g id="g2"><path style="fill:#b4d7f4;fill-opacity:1;stroke:none;stroke-width:3;stroke-miterlimit:4;stroke-dasharray:none;stroke-opacity:1" id="rect2463" d="M0 0h750v500H0z"/></g><g id="g1"><path d="M359.7 386c-12 3.3-19 12.7-18.8 21.5l59.5-.2c.6-9.5-7.3-18.3-19.2-21.8 58.3-1.2 109-23 118.2-37-9.1-4-19.7 2.4-27.2.9 17.8-8.2 71.2-42.8 62.6-79.8a87 87 0 0 1-36 42.1c20-30.3 47.2-61.8 23.6-86.2 1.2 14.1-9 29.7-13.5 30.9 11.6-32 22.6-72.2-2.4-98.7 3.3 9.6 2 36.6-2.6 37.8-1.4-21.7-5.1-67.5-28-66.9 7.2 6.5 10.4 24.2 10.6 42a65 65 0 0 0-23.9-30.4 134 134 0 0 0-46.8-47.7c2 14.3 3.8 25.6 23.8 40.5-10.4-.7-20.9-20.4-32-21-9-.4-15.9 8-30.4 3.2 1.6 4.8 8.4 6.9 9.8 10.4-3 2.2-10.4-.3-16.6-3.5 8.5 11.5 21.5 18.2 32.6 16a59 59 0 0 1 40.8 6.4c-3.4 1.8-16.8 1.8-25.4.7 7.8 8 13 13.2 26.6 13 12.2 0 18.5-6.4 21.7-2.4 7.6 9 12.7 18 19 28.7-14 1.5-9.7-16-25.4-25-8.8 18.3 10.1 40 23 49a72 72 0 0 0 8 35.5c4 7.4 9 15 7 31.5-7.7-5.6-15.2-24.6-12.4-39.6-9.7 2.6-13.5 19.6-9 28.2 3.5 6.5 5.8 19 1.8 24.5-3.8 5.2-4.2 4.6-4.1 15.7.1 6.7-3.6 14.6-9.7 20a40 40 0 0 0 1.3-17.8c-4.8 8.2-16.8 16.6-20.6 25.3-3.7 8.8-4.6 24-22.6 27.5-23.2 4.6-31.2 8.6-46 14.7-1.7-11.3 3.2-35 12.7-33.6 9.2 1.7 37.2-9.6 27.2-33.2-2 7.4-8.6 14.7-15.7 15 7.7-10 21.5-20.4 14.8-37.1a48 48 0 0 1-18.5 20.4c9.5-18.2 1.1-23.7-10.2-8.6-4.3 5.8-6.9 17.4-9.6 32.1-4.4-12-4.1-27.8-9.4-40.6-5.5-13.9 7.3-17.5 13.3-16.4 14.8 4 39.4 4 37.6-20.4-6.4 8.2-17.5 10.7-29.6 7.8 13.5-10 24.2-28.5 9.1-38.2a35 35 0 0 1-19 27.1q-3.8-12.9-.4-28c-6 6.3-10.3 19.3-13.8 34-.2-14.5 2.6-25 4.6-33 3.1-11.4 10.8-4 22.7-3.1 11.4.6 27-5.7 24-21.1-3.8 6.1-11.8 8.5-20 7.8 9.8-6 27-16.5 17.6-32.8-4 6.2-5.2 11.5-16.7 13.4 3-7 3.5-16.6 12.4-20.5-15.8-3.1-24.9 7.2-29.5 23.5-1.8-11.3-4-15.4-4.5-23.7 8.6-9.5 9.4-28-9-32.2a40 40 0 0 0 1.3 19.7c-8.7-5.2-21-8-29-.7 5.4 6 14 11.2 27.2 4.7-3.2 10.2-11.2 8.4-22.4 4.5 6.8 12.8 15.4 15 24.9 13.6 5 13 5.1 23-9.3 42 .6-11.8-.2-20.6-9.6-30.2-8-7.9-14.6.3-2 17.9a54 54 0 0 1-18.9-28.5c-2.5 14.1-.2 30.7 7.6 40-3.7 4-8-.4-14.1-10 2.3 30.8 15.5 36.8 33.2 30 .5 16.8.5 32.5 1.5 53-10.3-14.8-23.4-26-30.7-28.7-2.3 8.3 6.3 19.1 11 25.2-7.2-1.5-23-13.6-23-13.6-1.7 13.7 16.1 26.5 27.6 32.2-13.5-.6-19.5-5.7-28.2-14.1.2 38.1 41.4 31.5 49 25.7 1 18.7 2.5 40.4 3.5 59.2-11.6-2-10.7-5.5-20.7-6.4-27.6-1.1-49.5-33.2-56.8-56.8-2 3.9-.4 8-2.3 12.7-4.5-11.6-10.2-26.5-18-33.5 2 6.7 2.2 13.6 1.6 26.2-2.7-8.1-5.1-10.7-5.3-20.3.2-7.3 7.1-12.8 6.7-23.1-.3-7.6-7.2-24-8.2-36.7-3.3 13-5.4 26.8-10.6 35 2.6-14 1.8-23.7 6-33 5-10 9.3-18.8 6-28.8-3.2 3.9-2.1 7.4-10 16.7-1.8-10.2 10.2-26.5 22-33 8.2-4.4 18.6-20 11.8-30.6-7.8 5.6-11.2 13.1-22.2 26 7.8-30.6 28.1-38.6 52.4-38.7 5.4 0 16.3-2 19.3-9-6.8 2.6-15 3-22.2 1.5 5.3-7.7 16.3-6.7 26.6-6.8 8.1 0 20.7-1 25.8-12.6a57 57 0 0 1-34.9 2.1c15.4-8 39.5-8.8 51.9-19.3-14.1-10.5-49.4 2.5-71.6 17.8 6.2-5.7 16-15.8 21.5-24-12.2-5.8-43 28.3-53.6 48.6-10.1 5.7-14.2 14.6-18 20.8 5.3-18.1 5.9-31.3 10.3-46.2-34.5 11.9-20.1 75.7-27.7 91 1-16.9.2-38.5-6.7-49.7-10.7 8.1-11.5 55.9-1.5 95.7-3.6-10.7-10.5-20.6-12.6-33.6-15.8 28.8 9.2 62.6 30 89.4-15.6-8.2-31.2-25.8-41.4-40.6 2.8 51.4 56.5 62.1 64.8 74.8-11.3-5.3-33-15.7-42-4.8 14.9 3.4 26.8 7.4 36.4 13.7 14 17.4 40.3 25 86.2 27" id="path687" style="fill:#239e46;fill-opacity:1;fill-rule:evenodd;stroke:none;stroke-width:1pt;stroke-linecap:butt;stroke-linejoin:miter;stroke-opacity:1"/></g><!-- app4joy --></svg>