<svg width="900" height="600" viewBox="0 0 384 256" id="svg19039" xmlns="http://www.w3.org/2000/svg"><g id="g23192" fill-opacity="1"><path d="M0 0h384v256H0z" fill="#fcdd09" id="path19009"/><path d="M0 170.7h384V256H0z" fill="#da121a" id="path19011"/><path d="M0 0h384v85.3H0z" fill="#078930" id="path19013"/></g><g stroke="none" stroke-width="1" stroke-linecap="butt" stroke-linejoin="miter" id="g19037" style="display:inline"><path d="M176.7 114h-4l-.8.1-.9.1-.8.2-.8.2-.8.2-.7.2-.7.2-.7.2-.7.2-.7.3-.7.2-.6.2-.6.3-.6.3-.6.2-.6.3-.6.2-.6.3-.5.2-.5.3-.6.3-.5.2-.5.2-.5.3-.5.2-.5.2-.5.2-.5.2-.5.2-.5.2-.5.2-.5.1-.5.1-.5.2h-.5l-.5.1-.5.1h-3.1l-.5-.2h-.5l-.5-.2-.5-.2-.4-.1-.5-.2-.4-.3-.4-.2-.4-.3-.3-.3-.4-.3-.3-.3-.3-.4-.2-.3-.3-.5-.2-.4-.1-.4-.1-.5-.1-.5v-.6l-.1-.6v-1.2l.1-.2v-.1l.1-.2.1-.2.1-.2.1-.2.1-.2.1-.1.2-.2.1-.2.2-.2.2-.1.2-.2.2-.2.2-.1.3-.2.2-.1.3-.2.3-.1.2-.2h.3l.4-.2.3-.1.3-.1.4-.1h.3l.4-.2h.8l.4-.1h.4l.4-.1h5.4l1.2.1h1.2l1.2.2h1.3l1.2.2 1.2.1 1.3.1 1.3.2 1.2.1 1.3.1 1.2.2 1.2.1 1.2.1 1.2.1 1.2.1 1.1.1 1.2.1 1 .1h2.1l1 .1h2.6l.8-.2h.7l.7-.2.9-.3.8-.2.8-.3.7-.3.7-.4.6-.3.6-.4.5-.4.5-.4.4-.5.4-.4.3-.4.3-.5.2-.5.3-.4.2-.5.1-.5.1-.4.1-.5v-.4l.1-.5v-1.7l-.1-.3-.1-.4-.1-.4-.1-.3-.1-.3-.2-.3v-.2l-.4-.7-.3-.6-.4-.6-.4-.4-.4-.4-.5-.3-.5-.2-.5-.2-.6-.1h-2.3l-.7.1-.6.1-.6.1-.7.2-.6.1-.7.2-.6.1-.7.1-.7.1-.6.1h-.7l-.6.1h-1.3l-.6-.1-.6-.2-.6-.2-.6-.2-1.6-1 1 1.9.5.8.5.7.5.6.5.7.5.6.5.5.5.5.5.5.5.4.5.4.5.3.5.3.6.3.5.2.5.2h.5l.6.2h2.1l.5-.1.5-.1.5-.2.5-.2.5-.3.5-.2.5-.4.5-.3.5-.4.2-.2.1.2v.2l.1.2v1.4l-.1.2-.1.3-.1.3-.2.3-.2.3-.2.2-.2.3-.3.3-.3.3-.3.2-.4.3-.4.2-.4.2-.5.2-.6.2-.6.2-.6.1-.7.2h-.7l-.8.1h-.9l-.8.1h-2.8l-.9-.1-1-.1-1-.1-1-.1-1-.1-1-.2-1-.1-1.1-.2-1-.1-1.1-.2-1.1-.1-1.1-.2-1.1-.2-1.2-.1-1-.2-1.2-.1-1.1-.1-1.1-.1-1.2-.1-1-.1-1.2-.1h-1.1l-1.1-.1h-3.4l-1 .1h-.6l-.6.1h-.5l-.6.2h-.5l-.5.2-.5.1-.5.1-.5.2-.5.1-.5.2-.4.2-.5.2-.4.2-.4.2-.4.2-.4.3-.4.2-.3.3-.4.3-.3.2-.3.3-.3.3-.3.4-.2.3-.3.3-.2.4-.2.3-.1.4-.2.4-.1.3-.1.4-.3 1.1-.1 1.1v3l.2.8.3.9.3.8.4.8.4.7.5.7.5.6.6.6.7.6.6.5.7.5.7.4.8.4.7.3.8.3.8.3.8.2.8.2.8.1.8.1h3l.8-.1.6-.2h.3v1.8l-.2.7v.6l-.2.6-.2.6-.2.6-.3.6-.2.5-.3.5-.3.5-.3.5-.4.4-.3.5-.4.5-.4.4-.4.4-.4.4-.4.5-.4.4-.4.4-.4.4-.4.5-.5.4-.4.4-.4.5-.4.4-.4.5-.3.5-.4.5-.3.5-.1.1-.2.2-.2.2-.2.2-.3.2-.2.2-.4.2-.3.2-.4.2-.4.2-.4.2-.4.2-.4.3-.5.2-.4.2-.5.2-.5.2-.5.2-.5.2-.5.2-.5.2-.6.2-.5.2-.5.2-.5.2-.5.2-.5.2-.5.1-.4.2-.5.2-.5.1-.3.2h-.8l-.2.1h-.1l-.2.1-.2.1-.1.1-.2.1-.1.2h-.1l-.1.2-.1.2-.1.1-.1.2v.2l-.1.2v.2l-.1.2v.4l-.1.3v1.6l.1.3v.3l.2.3.1.3.1.1v.2l.2.2v.1l.1.2v.2l.1.1.1.2v.3l.1.2v.4l.1.1v1.7l-.1.2v.3l-.1.2v.2l-.1.2-.1.2-.2.1-.2.1-.2.1-.1.1-.2.1-.1.1-.1.1-.2.2-.2.2v.2l-.1.2v1.3l.2.3.1.2.1.3.2.2.2.3.2.2.2.3.3.3.3.3.3.4.3.3.5.5h3.7l.3.1h1l.3.1h.6l.3.1h.3l.3.1h.3l.3.1h.3l.3.1.3.1h.3l.3.1h.3l.3.2h.5l.2.1h.4l.2.1h2.2l.1-.1q.8.5.6 1.8l-.2.8.5-.6c1-1 1.1-2.4.7-3.4l.3-.1.4-.2.3-.2.3-.2.3-.2.2-.3.1-.2q.9 0 1 1l.3.8.2-.8q.5-1.8-.7-2.7l-.6-.4v-.1l-.2-.3-.2-.2-.2-.3-.2-.2-.2-.2-.3-.2-.3-.1-.3-.2h-.3l-.3-.1-.4-.1h-1.5l-.5.2-.3.1h-1.8v-.1h-1l-.6-.1-.1-.1-.2-.2-.2-.3-.2-.2-.2-.2-.3-.2-.2-.2-.2-.2-.1-.2-.2-.2v-.1l-.2-.2v-.2l.2-.3.2-.3.2-.2.2-.3.2-.2.2-.2.3-.2.2-.2.2-.1.2-.2.2-.2.1-.1.2-.1.2-.2h.1l.1-.2h4.5l.2-.1.3-.1h.3l.2-.2.3-.1.2-.2.3-.1.2-.2.1-.1h.6l.2.1h2.6l.2-.1h.2l.2-.1h.2l.2-.1h.2l.1-.1h.2l.2-.1.2-.1h.2l.1-.1.2-.1h.2l.1-.1h4l.2-.1h.3l.2-.1h.2l.2-.1h.2l.2-.2h.2l.2-.1h.1l.2-.2h.2l.1-.1.2-.1.1-.1.1-.1.2-.1.1-.1.3-.1.4-.1.3-.1.3-.1.3-.2.3-.1.3-.2.3-.2.3-.2.2-.2.3-.2.2-.2.3-.3.2-.2.3-.3.2-.3.2-.3.3-.3.2-.4.3-.3.2-.4.3-.3.2-.4.3-.4.3-.5.2-.4.3-.4.3-.5.3-.5.4-.5.3-.5.2-.3.2.1.2.1.3.1.2.2h.3l.2.2h.3l.2.2.3.1.2.1.3.1.2.1.3.2h.2l.3.2.2.1.2.1.3.1.2.1.2.2h.2l.1.2.2.1.1.1.2.2.2.2v.1l.1.1v.4l.1.2v.5l.1.2v1.7l.1.2v2l-.1.3v.7l-.1.3v.2l-.1.3v.3l-.3.2-.3.1-.3.2-.3.2-.3.2-.3.2-.3.2-.3.2-.3.2-.2.2-.2.2-.3.3-.2.2-.1.2-.2.2-.1.3-.2.2v.3l-.1.2v1.4l.2.3.1.3.2.2.2.3.3.3.3.3.3.3.3.3.5.4h.1l.5.5.2.1.4.4.2.1.2.1.1.2h.2l.1.2.5.4.2.1.4.4.2.1.5.4.1.1.2.2h.1l.2.2.1.1.2.3.2.2.2.3.3.3.2.3.3.3.2.2.3.3.3.3.2.2.3.3.3.2.3.2.3.3.3.2.3.1.3.2.4.2h.3l.3.2h.4l.3.1h1l.2.2c.6.3 1.3.6 1.2 1.7v.9l.4-.7a3 3 0 0 0 .4-2.7l.2-.2.3-.2.3.2.4.1.4.1h1.2q.9.3 1 1.6l-.2.8.5-.7q.9-1.6.3-2.8l.4.1h1.1l.2-.2.3-.1.2-.2v-.1q.8.1 1 1l.2.9.2-.8q.5-1.8-.7-2.8l-.2-.2-.2-.4v-.3l-.3-.3-.2-.3-.2-.3-.3-.2-.4-.2-.4-.2-.4-.2-.5-.1-.5-.1h-1.7l-.7.1-.7.2h-.4l-.3-.2h-.3l-.2-.1-.3-.1-.3-.2-.3-.1-.2-.2-.3-.1-.3-.2-.2-.2-.3-.2-.3-.2-.2-.2-.2-.2-.3-.2-.2-.2-.2-.2-.1-.2-.2-.2-.2-.2-.1-.2-.1-.2-.1-.2v-.1l-.1-.1v-.3l.1-.2.2-.2.2-.2.2-.2.3-.2.3-.3.4-.3.3-.4.4-.3.4-.4.4-.4.4-.4.5-.5.4-.4.4-.5.5-.5.4-.5.4-.5.4-.5.4-.5.4-.5.3-.5.3-.5.3-.6.3-.5.2-.5.2-.5.2-.5v-.5l.1-.5V144l-.1-.2v-.5l-.1-.2v-.4l-.1-.3v-.2l-.1-.2v-.2l-.1-.3v-.2l-.1-.2v-.3l-.1-.3-.1-.3v-.3l-.2-.3v-.3l-.1-.3-.1-.3.9-.1 1.2-.1h2.1l1 .2.9.1.8.3.8.2.8.4.7.3.7.4.7.4.6.5.7.4.6.5.6.5.7.4.6.5.7.5.6.4.8.5.7.4.8.4.8.3.9.3.9.3 1 .2 1 .2h1.2l1.2.1h2.2v1.4l.1.6.1.5v.5l.2.5.1.4.2.5.1.4.2.4.1.4.2.3.2.4.2.3.2.3.2.3.2.3.3.3.2.3.2.3.2.3.3.3.2.3.2.3.3.3.2.2.2.3.2.4.2.3.2.3.2.4v.1l.2.1v.2l.2.1.1.2h.1l.1.2.2.1.1.2h.1l.2.2.1.1.2.2h.1l.2.2.1.1.2.1.1.2h.1l.2.2.1.1.2.2h.1l.1.2.2.2.2.2.1.2h.1l.1.2.1.2v.1l.2.3.2.2v.3l.2.3.1.2.1.3.1.2v.3l.2.3v.2l.1.2.1.3v.2l.1.3.1.2v.2l.1.2.1.2v.2l.2.2v.2l.1.2.1.2.1.1.1.2.1.1.1.1.2.2h.1l.2.2h.3l.2.1h.3l.2.1h1.4l.2-.1h.3l.1-.1h.2l.2-.1h.3l.1-.1h.2l.2-.1h.3l.2-.1h.3l.2-.1h2.1v.1q.3 0 .3.2 1 .3.8 1.6l-.2.8.6-.6a2 2 0 0 0 .6-2.2h.1l.1-.1.1-.1.1-.2h.4l.3.1h1.3l.2.2c.6.2 1.3.5 1.3 1.5v.8l.4-.7q.7-1.5 0-2.6h.1l.1-.1.1-.1v-.1l.1-.1h.4l.4-.1.4-.1.4-.1.3-.2.3-.2.2-.2.2-.2q.6 0 1 .8l.2.7.1-.8q0-1.8-1.3-2.5l-.2-.3-.2-.3-.2-.2-.3-.2-.3-.2-.2-.2-.4-.2-.3-.1-.3-.2h-.4l-.4-.1H239l-.4.1-.4.2h-4.9l-.1-.2-.1-.2-.2-.2-.1-.2-.2-.2-.1-.1-.2-.2-.2-.2-.2-.1-.2-.1-.2-.2-.2-.1-.2-.1-.3-.2v-.9l-.1-.2v-.6l-.1-.3v-.2l-.1-.3v-.6l-.1-.3v-.2l-.1-.3v-.3l-.1-.3v-.2l-.1-.3v-.3l-.1-.3v-.2l-.1-.3v-.6l-.1-.2v-.6l-.1-.2V150l.1-.2v-.4l.1-.3v-.2l.1-.2v-.2l.1-.2v-.2l.1-.3v-.2l.1-.2v-.2l.1-.3v-.4l.1-.3v-.7l.1-.2v-.5h1.7l.2.1h1l.2.1h.5l.2.1h.5l.1.1h.6l.2.1h.3l.3.2.4.2.3.2.3.1.3.2.2.2.3.1.2.2.3.2.2.2.2.1.2.2.2.2.2.2.1.2.2.1.2.2.1.2.2.1.1.2.1.2.2.1.1.2h.1l.2.2.1.1.2.2h.1l.2.2h.1l.2.1h.2l.2.2h.5c.4.6.8 1.2.2 2l-.5.7.8-.4a3 3 0 0 0 1.5-2.7v-.4l.1-.2.2-.2v-.2h.4l.2.2h.3l.2.1.3.1h.2l.2.1h.5q1 .6.7 1.8l-.2.8.6-.6.4-.6 8 8.5.4.4v-.5l.5-3.2v-.1l-7.7-8h1.6l.4-.2.4-.2.2-.3.3-.3.1-.3q.8 0 1.4 1l.3.8.1-.9a3 3 0 0 0-1.5-3h-.1l-.1-.4-.2-.5-.2-.4-.3-.4-.3-.4-.3-.4-.4-.4-.4-.3-.5-.3-.6-.2-.5-.2-.6-.2H247l-.8.1-.7.2-.3-.1-.3-.2h-.4l-.4-.2-.3-.2h-.4l-.3-.2-.4-.2-.3-.1-5.3-5.5.2-.3.5-.7.5-.7.5-.6.4-.7.5-.7.4-.6.3-.7.4-.7.3-.7.3-.7.3-.7.2-.7.2-.7.2-.7.2-.7.1-.7v-.7l.1-.8v-2.9l-.2-.7-.1-.8-.2-.7-.3-.8-.2-.6.3-.3.3-.6.3-.5.2-.6.3-.5.2-.6.2-.5.1-.6.2-.6v-.5l.2-.6v-.6l.1-.6v-2.4l-.1-.6-.1-.6-.1-.6-.2-.6-.2-.7-.2-.6-.2-.6-.2-.7-.3-.6-.3-.7-.3-.6-.3-.7-.4-.6-.3-.7-.4-.5.1-.2.2-.3.1-.4.1-.3.2-.4.1-.3.1-.4.1-.4.1-.3.1-.4.1-.4.1-.3.1-.4V91l.1-.4.1-.3v-.4l.1-.4V88l.1-.3v-1.5l-.1-.3v-.4l-.1-.3-.1-.4-.2-.6h-.4l-.2.1h-.2l-.1.1h-.3l-.1.1-.2.1h-.1l-.2.1h-.1l-.1.1-.2.1h-.1l-.2.2h-.1l-.1.1-.2.1h-.1l-.2.2-.2.2h-.1l-.1.1-.2.2-.2.2-.2-.1-.4-.4-.5-.3-.5-.3-.5-.3-.5-.3-.5-.2-.6-.3-.6-.2-.4-.2v-.1h.2a.5.5 0 1 0 .3-1l.9-2.2h.1a.5.5 0 1 0 .3-1l1-2.4h.2a.5.5 0 0 0 .3-1l.1-.5.1-.2v-.1l.1-.2.1-.2.7-1.8.3-.7-.6.5-1.5 1.2c-.2-2.9-2.3-3.9-4.4-5-1.5-.7-3.2-1.5-3.9-3.2l-.1-.4-.3.4c-1 1.5-2.7 2-4.4 2.5-2.3.6-4.5 1.2-5.2 4l-1.4-1.5-.5-.6.2.8.4 2.4v.1l.1.7-.5.5q0 .5.6.5h.1l.5 2.6-.4.6.5.5.4 2.3a.5.5 0 0 0 .2 1v.4h-.1l-1.1.1-1 .1-1 .2-.2-.2-.2-.2-.2-.1-.2-.2h-.2l-.2-.2h-.2l-.2-.2h-.2l-.3-.1h-.2l-.3-.1h-1.1l-.2.5v.3l-.1.3v.3l-.1.3v.3l-.1.3v.3l-.1.3v.3l-.1.3v.6l-.1.4v.9l-.1.3V90l.1.3v.6l.1.3-.4.5-.5.5-.6.5-.5.6-.5.6-.5.5-.5.6-.4.6-.4.6-.5.6-.4.6-.3.6-.4.6-.3.6-15.4-16 .4-1.2q.2-1.2-.4-2.2a6 6 0 0 0-5.7-2.7l-5.3-5.6 3.8-1.3h.3l-.2-.3-2.2-2.3h-.2l-3.9 1.4-3.1-3.4h-.3l-2.2.7h-.3l.2.3 3.1 3.3-3.9 1.4-.3.2.2.2 2.1 2 .1.2h.2l4-1.4 9.1 9.8q-1.4.1-3.7-.2-3-.7-5.7-2c-3.5-1.5-7.2-3-11.6-2l-.2.1v3c-2.2-.4-3.5-1-4.8-1.5-2-.8-3.6-1.5-7.5-1.2h-.3l.1.3a9 9 0 0 1 1 4.8q-.2 2.2-2.7 4l-.8.5 1-.1c4-.8 7.6.3 10.4 1q1.3.5 2.5.7c2.3.5 3.8.1 4.4-2.8q3.5.6 6.6 2 2.8 1.3 5.2 1.7 1.9.3 3.5.2 1.8 0 3-.7t1.4-2.2v-.7q.7-.5 1-1l.3-.8 15.6 16.5-.2.7-.2.7-.2.7-.2.7-.1.7-.1.8-.1.7v3.9l.1.8.1.7-.4.5-.6.6-.7.4-.7.5-.7.3-.8.3-.9.2-.9.2-1 .1-1 .1H189l-1.1-.2-1.2-.1-1-.1-1.2-.2-1.2-.1-1-.2H181l-1.1-.2-1.1-.1-1.1-.1zm59.5 23.2-.4-.2h-.3l-.6-.3.2-.3.2-.2z" fill="#161413" fill-rule="evenodd" id="path19015"/><path d="M243 165.8q.9-.1 1.6.4a2 2 0 0 0-1-1.4l-.6-.2h-.6q-.3.2-.3.6c0 .7.4.6.9.6m-3.7 2.6q.8.2 1.3 1a2 2 0 0 0-.3-1.7l-.6-.5-.5-.2q-.3 0-.6.4-.2.8.7 1m-4.3.6q.7.4 1 1.2a2 2 0 0 0-.3-2.1l-.4-.3-.6.2c-.4.5 0 .7.3 1m-93.2-2q1 .5 1.3 1.8.6-1.2.1-2.3l-.4-.7-.5-.4q-.4-.1-.9.3c-.5.6 0 1 .4 1.3m3.4-2.7q.8 0 1.5.7a2 2 0 0 0-.7-1.5l-.6-.4h-.5q-.3 0-.5.4c-.1.7.3.7.8.8m37.6 5.2q1 .3 1.4 1.4a3 3 0 0 0-.2-2.1l-.6-.6-.5-.3q-.5-.1-.7.4-.4.9.6 1.2m4.5-1q1 .4 1.4 1.4a3 3 0 0 0-.3-2l-.5-.5-.5-.3q-.3-.1-.7.4-.3.8.6 1m3.5-1.5q.8 0 1.5.7a2 2 0 0 0-.7-1.6l-.6-.3-.5-.1q-.3 0-.5.5 0 .8.8.8m52.6-17q.8.8.6 2a3 3 0 0 0 .7-2l-.1-.7-.4-.5q-.3-.2-.8 0c-.6.4-.3.8 0 1.3m4.4-1q.8.5 1.1 1.6.5-1 .1-2l-.4-.7-.4-.3q-.5-.2-.8.3-.4.7.4 1.1m4.9-2.7q1.1-.1 2 .5a3 3 0 0 0-1.3-1.8l-.7-.3h-.7q-.4.3-.4.8c0 .8.5.8 1.1.8" fill="#6d6e6f" fill-rule="nonzero" id="path19017"/><path d="M232.2 92.9q.7 0 .8.8a1 1 0 0 1-.8.8.8.8 0 0 1 0-1.6m-12-.2a1 1 0 0 0-.9.8.8.8 0 0 0 1.6 0 1 1 0 0 0-.8-.8" fill="#da121a" fill-opacity="1" fill-rule="evenodd" id="path19019"/><path d="M226.6 105.8c1.4 1.4 3 2.2 4.7 0 .8.3 1.8.7 1.5 2-.4 1.2-2.7 1-3.4-.4-.5.6-2.2.3-3 .2-.9 0-2.7.6-3.4-.4-.8 1.2-3 1.3-3.4 0s.8-1.6 1.6-1.7c1.5 2.2 3.3 1.5 4.9.2v-3q-2-.7-3.7-2a.5.5 0 0 1 .5-.8q1.4 1.3 3.4 1.6 2-.1 3.4-1.2a.5.5 0 0 1 .4.9q-1.5.8-3.5 1.5zm-9.2-2-.2 2.8q.4 3 2.1 3.9 3.1 4.6 6.1 4.8t6-4.4h.2q3.5-.3 4.3-6c0 4-1.8 6.2-4.2 6.3q-3 4.8-6.3 4.6-3.2-.4-6.3-5c-1.7-.9-2.8-3.5-1.7-7m9.2 58.7c-.1-1.7-.6-3.2-4-3.5q3.3 1.4 4 3.5m-19.3-22.4c6.8 7 14.7 1 21.3 2.3-7.1-1.7-13.5 2.8-21.3-2.3m-21.4 4.2c2.6 2 .1 5-4.7 8.4 3.7-3.3 6-6.2 4.7-8.4m-52 5.1c-1.5 1-4.1.6-4.8 2.5-.7 2 1 5.2 1.2 7.5 0-2.2-1.3-5.3-.7-7s3.2-1.8 4.3-3M190.2 97c-2-2.2-4.8-1.5-7.4-1l-1 .2c1.5.3 3.2-1 5.4.5-3.2-1.2-3.6.5-6.7-.2q.9.8 3.4.7c-1.6.5-4.3.7-7-.4q1.6 1.5 5.3 1.4c-3.6.6-5.8-.4-8.6-2.1l.6.9c2 3 4.7 6 8.7 6.2q2 0 3.9-1.1c1.5-1 4.4-3 3.4-5M167 142.3l.3.1.2.2h.2l.3.2h.2l.3.2.2.1.3.1.3.1.2.1.3.2h.2l.3.2.2.1.3.1.2.1.2.2h.2l.2.2.2.1.2.2.2.1.2.1.1.2.2.1.1.2.1.2v.1l.2.2v.7l.1.2v1l.1.2v3.7l-.1.2v.6l-.1.2v.3l-.1.2v.4l-.5.2-.3.2-.3.2-.4.2-.3.2-.2.2-.3.2-.3.1-.2.2-.3.2-.2.2-.2.2-.1.2-.2.2-.1.2-.2.2v.2l-.1.2-.1.2v1.1l.2.2.1.3.2.2.1.3.3.2.2.3.3.3.4.3.4.3.2.2.5.4h.1l.5.5h.1l.2.2.2.1.1.2.2.1.4.4.2.1.5.4.1.1.5.4.2.1.1.1.2.2.1.1.2.1.2.3.2.3.3.3.2.3.2.2.3.3.2.3.3.2.2.3.3.2.3.3.2.2.3.2.3.2.3.2.3.2.3.1.3.2h.3l.3.2h.3l.3.1h.2q-.3-.3 0-1 .6-.9 1.3-.7.3 0 .7.3l.6.7c2.3-1.5-.8-3.5-2.8-2.4 1.7-1.8 5.4.4 4 2.2l1 .3q-.7-.3-.1-1.3.4-.7 1-.6t.8.3c.3-1.8-1-2.7-3-2.2 2.1-1.2 4.1.2 3.4 2.5l.2.1.4.1.3.1h.8l.2-.1.1-.1q-1.2 0-1-1.3.2-.8.8-.8h.6v-.1l-.2-.3-.2-.2-.2-.3-.3-.2-.3-.2-.3-.1-.4-.2h-.4l-.4-.2h-1.7l-.6.2-.7.1h-.6l-.3-.1-.3-.1-.3-.1-.3-.2h-.3l-.3-.2-.3-.2-.3-.2-.3-.2-.3-.2-.2-.2-.3-.2-.3-.2-.2-.2-.2-.2-.2-.3-.3-.2-.2-.2-.1-.2-.2-.2-.1-.2-.2-.2v-.2l-.2-.2v-.2l-.1-.1v-.5l.1-.2h.1l.1-.2.2-.2.2-.2.3-.2.3-.2.3-.3.3-.3.4-.4.4-.3.3-.4.5-.4.4-.4.4-.4.4-.5.4-.4.5-.5.4-.5.4-.5.4-.5.4-.5.3-.5.4-.5.3-.5.3-.5.2-.5.2-.5.2-.5.2-.5v-.4l.1-.5v-1.7l-.1-.2v-.7l-.1-.2v-.3l-.1-.2v-.3l-.1-.2v-.4l-.1-.2v-.3l-.1-.2-.1-.3v-.3l-.1-.2-.1-.3v-.3l-.2-.3v-.4l-.1-.3v-.1q-3.5.3-6.9 0c-4.7-.5-9.5-.9-13.2 3.5m48.4 4.8v2.1l.1.5.1.5.1.4.1.5.2.4.1.4.2.4.1.3.2.4.2.3.2.3.2.3.2.3.2.3.2.3.2.3.2.3.3.3.2.3.2.2.3.3.2.3.2.3.2.3.2.4.3.3.2.3.2.4v.1l.1.1.1.2h.1l.1.2.1.1.1.1.1.2h.2l.1.2.1.1.2.1.1.1.2.2h.1l.1.2.2.1.1.2h.2l.1.2.2.1.1.2.2.1.1.1.1.2.2.1.1.2.1.1.1.2.2.1v.2l.2.1.1.3.1.3.2.3v.3l.2.2.1.3.1.3.1.2v.3l.2.2v.3l.1.2v.3l.2.2v.2l.1.2v.3l.1.2.1.1v.2l.1.2.1.2v.1l.2.1v.2h.1l.1.2h.1l.1.1h.1l.1.1h.1l.2.1h2l.2-.1h.3l.1-.1h.2l.1-.1h.4l.1-.1h.2l.2-.1h.3l.2-.1h.6v-.1h1.4l.3-.7q.6-.5 1.1-.3.3 0 .6.4l.4.6v-.1c1-2.3-.7-3.3-2.7-2.5 1.7-1.2 4.3-.3 3.4 2.2h.5l.2.1h.3l.1-.9q.4-.7 1-.6t.8.2l.6.6c1.5-1.8-1-3.5-3-2.5.8-.9 4.4-.9 3.8 2h.1l.4-.1.4-.1.3-.1.2-.1.2-.2h.1c-.8 0-1.5 0-1.5-1q0-1 .7-1 .3-.2.6-.1l-.1-.1-.2-.2-.3-.2-.2-.2-.3-.1-.3-.1-.3-.2h-.3l-.4-.1H239l-.4.1-.4.2h-1.4l-.2.1H233l-.2-.4v-.1l-.2-.2-.1-.2-.1-.1-.2-.2-.1-.2-.2-.1-.1-.1-.2-.2-.2-.1-.2-.1-.2-.1-.2-.2h-.2l-.3-.2v-.9l-.1-.3v-.5l-.1-.3v-.6l-.1-.2v-.3l-.1-.3v-.3l-.1-.2v-.3l-.1-.3v-.3l-.1-.3v-.2l-.1-.3v-.3l-.1-.3v-.5l-.1-.3v-.3l-.1-.2V152l-.1-.3v-1.2l.1-.2v-.5l.1-.2v-.3l.1-.2v-.2l.1-.2v-.2l.1-.2v-.3l.1-.2v-.4l.1-.2v-.3l.1-.2v-.4l.1-.3v-1q-4.7.1-8.7 1.1-2.6.7-6 1.1m-16.4-32-.9.3-.9.2-1 .2-.9.2h-1l-1 .1H190l-1.2-.2h-1l-1.2-.2-1.1-.1-1.2-.1-1.1-.2-1.2-.1-1-.2h-1.2l-1-.2-1.2-.1h-1l-1-.1h-3.8l-.8.2-.8.1-.8.2-.7.2-.8.2-.7.2-.7.2-.7.2-.6.3-.7.2-.6.2-.6.3-.6.2-.6.3-.6.3-.6.2-.5.3-.6.2-.5.3-.5.2-.6.3-.5.2-.5.3-.5.2-.5.2-.5.2-.5.2-.5.2-.5.2-.6.2-.5.1-.5.2h-.5l-.5.2h-.5l-.6.1h-.5l-.5.1h-1.7l-.5-.1-.5-.1-.5-.1-.5-.2-.5-.1-.5-.2-.5-.2-.4-.3-.5-.2-.4-.3-.4-.3-.4-.4-.3-.3-.3-.4-.3-.5-.2-.4-.3-.5-.1-.5-.2-.5v-.6l-.1-.6v-1.9l.1-.2v-.2l.1-.2.1-.2.1-.2.1-.3.2-.2.1-.2.2-.2.2-.2.1-.2.2-.1.3-.2.2-.2.2-.2.3-.1.3-.2.2-.2.3-.1.3-.1.3-.2.4-.1.3-.1.4-.1.3-.1.4-.1.4-.1h.4l.4-.1h.4l.4-.1h7.1l1.2.2h1.3l1.2.2h1.2l1.3.2 1.3.1 1.2.1 1.3.2 1.2.1 1.3.1 1.2.2h1.2l1.2.2 1.1.1 1.2.1h1.1l1 .2h6.4l.7-.2.7-.1.8-.3.8-.2.8-.3.7-.3.6-.4.6-.3.6-.4.4-.3.5-.4.4-.4.3-.4.4-.5.2-.4.3-.4.2-.4.1-.5.2-.4.1-.4v-.5l.1-.4v-2.3l-.1-.4-.1-.3-.1-.3-.1-.3-.1-.2-.2-.3v-.3l-.4 1q-.5.9-1.5 1.6l.1.1.1.2v.2l.1.2v.3l.1.2v.9l-.1.3v.3l-.2.3-.1.3-.2.3-.2.4-.2.3-.3.3-.3.3-.3.3-.4.3-.4.2-.4.3-.5.2-.6.2-.5.2-.6.2-.7.2-.7.1-.8.1h-.8l-.8.1h-4.7l-.9-.2h-1l-1-.2-1-.1-1-.1-1.1-.2-1-.1-1.1-.2-1.1-.2-1.1-.1-1.1-.2-1.1-.1-1.1-.2-1.1-.1-1.2-.2h-1l-1.2-.2-1.1-.1-1.1-.1h-1.1l-1.2-.1h-6l-.5.1-.6.1-.5.1-.5.1-.5.1-.5.1-.5.2-.5.1-.4.2-.5.1-.4.2-.5.2-.4.2-.4.2-.3.2-.4.2-.4.3-.3.2-.3.3-.3.2-.3.3-.3.3-.3.3-.2.3-.2.3-.2.3-.2.4-.1.3-.2.3-.1.4-.1.4-.2 1-.2 1v2.9l.3.8.2.8.3.8.4.7.4.7.4.7.5.6.6.6.6.5.6.5.7.4.7.4.7.4.7.3.8.3.8.3.7.2.8.2.8.1h.7l.8.1h2.2l.7-.2.6-.1c3.2-1 5.2-1.8 8-4.3-1 2-4.6 4-7.1 4.5v2.1l-.1.7-.2.7-.1.7-.2.6-.2.6-.3.6-.2.5-.3.6-.3.5-.4.5-.3.5-.4.4-.4.5-.4.4-.4.5-.4.4-.4.4-.4.5-.4.4-.4.4-.5.4-.4.5-.4.4-.4.4-.4.5-.3.4-.4.5-.3.5-.4.5-.1.2-.2.2-.2.2-.3.2-.2.2-.3.2-.4.2-.3.3-.4.2-.4.2-.4.2-.4.2-.5.2-.5.3-.4.2-.5.2-.5.2-.5.2-.5.2-.5.2-.6.2-.5.2-.5.2-.5.2-.5.2-.5.2-.5.2-.5.2-.5.1-.4.2-.5.1-.4.2h-.8l-.1.1h-.1l-.2.1h-.1l-.1.2h-.1l-.1.1-.1.1v.1l-.2.2-.1.2v.2l-.1.1v.2l-.1.2v2.4l.1.3v.2l.2.2v.2l.2.1v.2l.1.2.1.2v.2l.2.2v.3l.1.2v.4l.1.2v2.2l-.1.2v.2l-.1.2v.2l-.1.2v.2l-.2.3h-.2l-.2.1-.1.1h-.2l-.1.2h-.1l-.2.1v.1l-.2.1v.1l-.1.1v.1l-.1.1v1.1l.2.1v.3l.2.2.2.2.1.2.2.3.3.3.2.3.3.3.3.3.3.3.3.3h2.6l.3.1h1.3l.3.1h.6l.3.1h.4l.3.1h.6l.3.1h.3l.3.1.3.1h.3l.3.1.3.1h.3l.3.1.3.1h.4l.2.1h.4l.2.1h1.5c-.7-.5-1.2-1-.4-1.9q.6-.7 1.3-.4.4 0 .7.5l.2.2.1-.7q0-.7-.5-1.1-.3-.5-1.3-.6-1.2-.1-3.2.4 2.3-1.2 3.2-.8 1.2 0 1.6.7.6.5.6 1.3v.7h.2l.3-.2.3-.2.2-.2.1-.2h.1c-.7-.2-1.2-.3-1-1.3q.2-.8.8-.9h.2v-.1l-.2-.2-.2-.2-.2-.1-.3-.2-.2-.1-.3-.1-.2-.1-.3-.1h-1.7l-.4.1-.5.2h-.6l-.3-.1h-1l-.8-.1h-1l-.2-.4-.2-.2-.2-.2-.2-.2-.2-.2-.2-.2-.2-.2-.2-.2-.2-.2-.2-.2-.1-.2-.2-.2v-.8l.2-.3.3-.3.2-.3.2-.2.2-.3.3-.2.2-.2.2-.2.2-.2.2-.1.2-.2.2-.1.2-.2h.1l.2-.2.2-.2h.2l.2-.1h2.2l.2.1h1.8l.2-.1.2-.1h.3l.2-.2.2-.1.2-.1c2.8-2 4.4-5 5.6-8.1a15 15 0 0 1-4.2 7.6h.6l.2.1h1.8l.2-.1h.4l.2-.1h.2l.1-.1h.2l.2-.1h.2l.1-.1.2-.1h.2l.1-.1.2-.1q4.4-2 5.7-8.1c-.2 2.6-1 6-4.4 8h2.9l.2-.1h.5l.2-.1h.2l.2-.1.1-.1c3.7-1.6 5.3-6.4 6-9.4-.4 3.4-1.2 5.8-3.4 8.2l.3-.1.3-.1.3-.2.3-.1.2-.2.3-.1.2-.2.3-.2.2-.2.3-.2.2-.3.2-.2.3-.3.2-.3.2-.2.2-.4.3-.3.2-.3.3-.4.2-.3.3-.4.2-.4.3-.4.3-.5.3-.4.3-.5q1-2 2.9-3.6c3.6-3 8-2.7 12.2-2.3q3 .3 5.7.2 2.4-.4 4.9-.5l1 .1 1 .1 1 .2.9.3.8.2.8.4.7.3.8.4.7.5.6.4.7.5.6.4.6.5.7.5.6.5.7.4.6.5.7.4.7.4.8.4.8.3.8.3 1 .3.9.2 1 .2h3.5q3.7-.3 7.4-1 4.7-1.3 9.3-1.3h2.4l.1.1h.9l.2.1h.5l.2.1h.3l.2.1h.4l.2.1h.4l.4.2.3.2.3.2.4.1.3.2.2.2.3.2.3.2.2.2.2.2.3.1.2.2.2.2.1.2.2.2.2.2.2.1.1.2.2.2.1.1.1.2.2.1.1.2.1.1.2.1v.1l.2.1.1.1.1.1h.2v.1h.2l.2.1q-.4-.6.5-1.3.8-.5 1.3 0l.4.4c1.6-3-.6-4.9-3.6-4.5 2.8-1.2 5.6 1.3 4.3 4l.4.2h.2l.3.2h.4v.1q-.4-.4.2-1.3.5-.7 1.2-.4l.7.4q0 .3.3.5c.7-2.4-1-5.3-4-4.4 2.7-1.5 4.7 1 4.6 3.5l.3.1.5.2h1.2l.3-.2.2-.1.2-.2.2-.3c-1 0-1.7 0-1.7-1.2q0-1 .8-1.1l.8-.1h.3l-.2-.3-.2-.4-.2-.4-.3-.4-.3-.3-.3-.3-.4-.3-.5-.3-.5-.2-.5-.2-.5-.1-.6-.1H247l-.7.1-.9.2-.4-.1-.3-.2h-.4l-.3-.2-.4-.2h-.3l-.4-.2-.3-.2h-.4l-.4-.2-.3-.2-.4-.1-.3-.1-1-.4-.4-.2-.4-.1-.3-.1-.4-.2-.3-.1-.4-.1-.3-.2-.4-.1-.3-.1-.4-.2-.3-.1-.4-.2h-.3l-8-3-3-1q-2-.6-4.4-1.7a38 38 0 0 0-14.8-4c5.3-1 13.8 3.1 15 3.6l4.3 1.8 3.1 1q2.9.8 6.8 2.3l.4-.5.2-.2-5.4-5.7-.2.4q-.8 1.3-1.2 3.1v.4l-.3-.3c-1.3-1-1.4-2.5-1.4-3.9 0-1.2 0-2.5-1-3.4l-.2 1v.3l-.4-.3c-1.2-1-1.3-2.4-1.4-3.7l-1.7-1.8c0 1.3 0 2.6-1.3 3.7l-.3.2-.1-.3q-.4-1.9-1.2-3.2-.9-1.4-1-3.3l.2-1-5.4-5.8v1.6c0 1.4-.1 2.8-1.4 4l-.3.2v-.4q-.5-1.8-1.2-3.1c-.7-1.3-1.3-2.4-1-4.2l.7-1.5-2.2-2.3v1.7c-.1 1.4-.1 2.8-1.4 3.9l-.3.2-.1-.3a10 10 0 0 0-1.2-3.2c-.8-1.5-1.5-2.9-.5-5.3l.2-.5-.7-.7-.1.4-.2.7-.2.7-.2.7v.7l-.2.7v.7l-.1.8v3.1l.1.8.2.9-.7.7-.6.6-.7.5-.7.4zm37.8 18.6.2-.3.5-.6.5-.7.4-.6.5-.7.4-.7.4-.6.4-.7.3-.6.3-.7.3-.7.3-.7.2-.6.2-.7.2-.7.2-.7v-.7l.2-.7v-2.8l-.1-.7-.1-.7-.2-.7-.1-.8-.3-.7-.3-.8.4-.6.3-.5.3-.6.2-.5.3-.5.2-.5.2-.6.1-.5.2-.6v-.5l.2-.6v-4l-.2-.6v-.6l-.2-.6-.2-.6-.2-.6-.2-.6-.2-.7-.3-.6-.3-.6-.3-.7-.3-.6-.3-.7-.4-.6-.5-.8.2-.4.2-.3.1-.4.1-.3.2-.4v-.3l.2-.4.1-.3.1-.4.1-.3.1-.4.1-.4v-.3l.1-.4.1-.3v-.4l.1-.4v-.3l.1-.4V86l-.1-.3v-.3l-.1-.4h-.6l-.1.1h-.1l-.2.1h-.1l-.1.1h-.2l-.1.1h-.1l-.2.2h-.1l-.1.1h-.2l-.1.2h-.1l-.1.1-.2.1-.2.2-.2.1v.1l-.2.1v.1l-.1.1-.2.3-.6-.5-.4-.3-.5-.3-.4-.3-.5-.3-.5-.3-.6-.2-.5-.3-.6-.2-.5-.2-.6-.2-.6-.2-.7-.2-.6-.1-.5-.1c-1.8-.2-3.6-.3-5.2 1.4q1 1.5 1 3t-.5 3L225 92l-.1-1.2q-.5-4.8-3-6.3-2.2-1.4-7-1h-.5l-.3-.2-.1-.1-.2-.2h-.1l-.2-.2-.1-.1-.2-.1h-.2l-.2-.2h-.4l-.2-.1h-.3l-.2-.1h-.4v.1l-.1.3v.3l-.1.3-.1.3v.3l-.1.3v.3l-.1.3v.6l-.1.3v.6l-.1.3v4.1l.1.3v.3l.1.3-.6.6-.5.6-.6.5-.5.6-.5.5-.5.6-.4.5-.5.6-.4.6-.4.6-.4.6-.4.6-.3.6-.4.6v.2l4 4.3.2-.1h-.1l5.3 5.7h.2-.1l5.4 5.8.7-.7-.5.8 2.7 2.9 1.2-.7-1 .9 4.1 4.3c.6-1.5.8-3.2-1.3-6.3 1.4 1 2 3 2.1 3.9a5 5 0 0 1-.5 2.7l3 3q-.3-1.3-1.6-3.3 1.9 2.1 2 3.9zm3.4-46.5c-1 .3-2 1.1-3 3.9q1.8 1 2.1 3.5c1.1-2.5 1.8-5 1-7.4m-28.3-4c1.1.2 2.2.9 3 3.9-1.3.6-2.6 1.7-3 3.2q-1-3.7 0-7.1M223.8 96l.6 1.1-1.9 2.2zm-1.3-4.4c1.6 4.2-5.1 6.5-5.5.6 1.8-.2 3.4 1.2 5.5-.6m7.3.2-.6.4q-.7.6-1 1.4l.2 1 .2 1.2q-.1 1-.5 2l-.4 1q1.1-2.2 1.3-3 0-.7-.2-1.3l-.1-.8q.1-.7.8-1.2c-.6 3.7 5.4 5.5 5.8 0-1.8-.3-3.4 1-5.5-.7m7.2 11.8c1.8 1.2 1.8 2.7 1.9 4.3 0 1.2 0 2.4.9 3.3q.4-1.6 1.1-2.8c1-1.9 1.8-3.5-.7-7.5 2 2.5 2.2 3.9 2.1 4.8q-.1 1.5-1 2.9t-1.2 3.1v.4l-.3-.3c-1.3-1-1.4-2.5-1.4-3.9s.3-2.3-1.4-4.3m-3 8.3c2 1.2 2 2.7 2 4.3 0 1.2 0 2.4.9 3.3q.4-1.6 1.1-2.8c1-1.9 1.8-3.5-.7-7.5 1.8 2 2.2 3.9 2.1 4.8q-.1 1.5-1 2.9t-1.1 3.1l-.1.4-.3-.3c-1.3-1-1.3-2.5-1.4-3.9s.2-2.3-1.4-4.3m2 8.8c1.8 1.2 1.8 2.8 1.8 4.3 0 1.2 0 2.4 1 3.4q.4-1.7 1-2.9c1-1.9 1.9-3.5-.6-7.4 2 2.3 2 3.4 2 4.3q0 1.8-1 3.3-.7 1.3-1 3.1l-.2.4-.2-.3c-1.4-1-1.4-2.5-1.4-3.9s.2-2-1.5-4.3m-5.8-.3c1.8 1.1 1.8 2.7 1.8 4.3 0 1.1 0 2.3 1 3.3q.4-1.7 1.1-2.9c1-1.8 1.8-3.4-.7-7.4a7 7 0 0 1 2.1 4.5q-.1 1.7-1 3.1t-1.2 3.1v.4l-.3-.2c-1.4-1.1-1.4-2.5-1.4-4 0-1.3.1-2-1.4-4.2m-4.7 5.6c1.3 1.1 1.3 2.5 1.3 4 0 1.1 0 2.3 1 3.2q.4-1.6 1.1-2.8l.3-.5zm-7.1-7.6q-.3 2.3.8 3.8.8 1.2 1.2 2.9c.9-1 .9-2.1.9-3.3v-.3zm5.5 5.8q-.1 1.6 1 2.7l.3-1.3zM211.6 101c0 1.4 0 2.8-1.4 4l-.3.2v-.4q-.5-2-1.2-3.1-1-1.5-1-3.5c0-.8 1.2-3.6 2.1-4.2-2.5 4-1.7 5.6-.7 7.5q.7 1.2 1.1 2.8 1.2-1.5 1-3.3c0-1.6 0-3.2 1.8-4.3-1.6 2.1-1.4 3-1.4 4.3m-7.4 2.3c-1 2.5-.4 3.9.4 5.3q.8 1.3 1.2 3c.9-1 .9-2.2.9-3.4l.2-2zm5.4 5.7c-1 2.5-.3 3.8.4 5.3q.8 1.2 1.2 2.8c.9-.9.9-2.1.9-3.3l.2-2zm-2.6 10.7c0 1.4 0 2.9-1.3 4l-.3.2v-.4q-.5-1.8-1.2-3c-.7-1.4-1.3-2.6-.9-4.5.2-.7 1-2.3 2-3.2-2.6 4-1.7 5.5-.8 7.4q.8 1.2 1.2 2.9c.9-1 .9-2.2 1-3.4 0-1.5 0-3.1 1.8-4.3-1.7 2.3-1.4 3-1.5 4.3m8.3 5c0 1.4 0 2.8-1.4 4l-.3.2v-.4q-.4-1.8-1.2-3.1-.9-1.5-1-3.1c0-1 .8-3.4 2.1-4.6-2.5 4-1.7 5.6-.7 7.5q.7 1.2 1.1 2.8c1-1 1-2.1 1-3.3 0-1.6 0-3.1 1.8-4.3-1.7 2-1.4 3-1.4 4.3" fill="#a55a44" fill-rule="evenodd" id="path19021"/><path d="M165.5 81v.2q.3 1 0 2c3 0 5.5 1.2 7.9 2.4 3.4 1.6 6.7 3.2 12.1 1.4h.1l1-1 .2-.9-.8.4-1.5.2c-3 .2-7.2-.7-10-2l-.4-.3c-3-1.4-5.6-2.6-8.6-2.4" fill="#fcdd09" fill-opacity="1" fill-rule="nonzero" id="path19023"/><g fill="#e20010" fill-opacity="1" fill-rule="nonzero" id="g19027"><path d="m165.2 83.5-.5.6q.8.3 1.2 1 .4.5.4 1.4 3.5.6 6.7 2 2.7 1.3 5.1 1.7l3.4.2q1.6 0 2.7-.7t1.3-1.9v-.4c-5.5 1.9-8.8.2-12.3-1.5a19 19 0 0 0-8-2.4m-13.6 1.2q-.6 1.5-2 2.7c3.9-.5 7.2.5 9.8 1.2l2.5.7c2 .4 3.3 0 3.9-2.5-2.7.6-4.7-.1-6.8-1-2-.7-4.2-1.5-7.4-1.1" fill="#da121a" fill-opacity="1" id="path19025"/></g><g fill="#078930" fill-opacity="1" fill-rule="nonzero" id="g19033"><path d="M163.3 78.9v2.3h1l.3-.3V80zm11.2 1.6c-3.3-1.4-6.8-2.9-11-2q1.1 1 1.8 2c3.2-.2 6 1.1 9 2.5l.4.2c2.7 1.3 7 2.2 9.7 2l1.5-.2c1.2-.3 2.4-1.9 2.6-3a3 3 0 0 0-.3-2q-.5-.9-1.5-1.6-1.5-1-3.3-1a9 9 0 0 1 2.4 3.1q.2.8 0 1.4-.4.4-1.2.7-1.6.4-4.3-.1-3-.7-5.8-2" id="path19029"/><path d="M164.2 84q1.4-1.4 1-2.7l-.2-.3-.6.5H163c-2.4-.3-3.8-.9-5.1-1.4-1.9-.7-3.5-1.4-7-1.2q.6 1.7.8 3.2c3.2-.6 5 0 7 .8 1.5.5 3 1.1 5.4 1.1" id="path19031"/></g><path d="M165.9 86.4q0-.7-.4-1.1-.3-.6-1-.9-3.7-.1-5.9-1.1c-1.8-.7-3.6-1.4-6.8-.8v1.2l-.1.5c3.2-.3 5.4.5 7.5 1.3 2 .7 4 1.4 6.7.9M185 80l-8-8.5-.2-.3h.3l3.7-1.4-1.8-1.9-3.9 1.4h-.2l-3.2-3.4-1.7.6 3 3.3.3.2-.3.1-4 1.4 1.9 1.8 4-1.4h.2l9.4 10.1q.6 0 .8-.5v-1zm72.2 78.7.3-2.6-7.7-8.2-.1.2v.1l-.1.2v.1l-.1.2-.2 1.7zm-15.8-19.6-53.1-55.7-1.2 1.2 50 52.9.4.1.3.2h.4l.3.2.4.2h.3l.4.2.3.2 1 .4zm-14.1-73q-1.8 2-4.5 2.4c-2 .5-4 1-4.7 3.3l.2-.1q.3 0 .6-.7l.2-.5.2.5q.3.6.6.7.5.2.6.9h.3q0-.7.6-.9.4 0 .7-.6l.2-.5.2.5q.2.6.6.7.4.2.5.9h.2q0-.8.7-.8.3 0 .6-.6l.3-.5.1.5q.3.6.6.7.5.2.5.9h.2q.2-.6.7-.7.3 0 .7-.6l.2-.5.2.5q.1.6.5.7.5.2.5 1h.2q.3-.6.7-.8.3 0 .7-.6l.2-.4.2.5q.2.6.5.7.6.2.5 1h.3q0-.6.7-.7.3 0 .7-.6l.2-.4.2.5q.1.6.5.8c-.3-2.2-2.1-3.1-4-4-1.5-.8-3-1.6-4-3.2M216 74.7v-.4h.1v-.1h1.4l.2-.1h6.9l.5.1h.9l.5.1h.4l.5.1h.4l.5.1h.4l.5.1.4.1h.5l.4.1.5.1h.4l.5.2h.4l.4.1.5.1.4.1.5.1.4.1.5.1.4.1.5.1.4.2h.1l.1.1v.4h-.8l-.4-.1-.5-.1-.4-.1-.4-.1-.5-.1-.4-.1-.5-.1-.4-.1h-.5l-.4-.2h-.4l-.5-.1h-.4l-.5-.2h-.9l-.4-.1h-.5l-.4-.1h-.5l-.4-.1h-.4l-.5-.1h-.9l-.4-.1h-1.8l-.5-.1H217l-.2.1h-.5m.9 3.7V78h.1l.1-.1h1.1l.2-.1h2.9l.1-.1h2.8l.4.1h1.2l.4.1h.4l.4.1h.4l.4.1h.4l.4.1h.4l.4.1.4.1h.4l.4.1.4.1.4.1h.4l.4.2h.4l.4.2h.4l.4.1.4.1.4.2h.4v.1h.1v.1l.1.1v.2l-.1.1h-.7l-.4-.1-.4-.1-.4-.1-.4-.1-.3-.1-.4-.1h-.4l-.4-.2h-.4l-.4-.1h-.4l-.4-.2h-.8l-.4-.1-.4-.1h-.4l-.4-.1h-.7l-.4-.1h-.4l-.4-.1h-1.2l-.4-.1h-6l-.1.1h-.6zm1 3.3h-.3l-.1-.1v-.4h.1l.2-.1h.9l.3-.1h1.3l.2-.1h4.7l.3.1h.7l.3.1h.5l.2.1h.5l.2.1h.5l.3.1h.2l.3.1h.2l.3.1h.2l.2.1h.3l.2.1h.3l.2.1h.3l.2.1.3.1h.2l.2.1.3.1h.2l.3.1.2.1h.3v.1h.1v.5h-.1l-.1.1h-.4l-.2-.1-.2-.1h-.3l-.2-.1-.3-.1h-.2l-.2-.1h-.3l-.2-.1-.3-.1h-.2l-.2-.1h-.3l-.2-.1h-.3l-.2-.1h-.2l-.3-.1h-.5l-.2-.1h-.5l-.2-.1h-.5l-.3-.1h-.4l-.3-.1h-1l-.2-.1h-6.4l-.2.1zm6.6-8.4h1.1l.4-.1q.1-.8-.2-.8t-.6-.6q-.3.4-.7.5t-.4.7zm-6 2.1a1 1 0 0 0-.9.7 1 1 0 0 0 .7.9 1 1 0 0 0 .9-.7l-.2-.6zm2.5 0a1 1 0 0 0-.8.7 1 1 0 0 0 .7.8 1 1 0 0 0 .8-.7 1 1 0 0 0-.7-.8m2.6 0a1 1 0 0 0-.8.7 1 1 0 0 0 .6.9 1 1 0 0 0 .9-.7 1 1 0 0 0-.7-.8m2.6.2a1 1 0 0 0-.9.7 1 1 0 0 0 .7.8 1 1 0 0 0 .9-.6l-.2-.6zm2.5.3-.5.2-.3.5a1 1 0 0 0 .7.8 1 1 0 0 0 .8-.7 1 1 0 0 0-.7-.8m2.6.4a1 1 0 0 0-.9.7 1 1 0 0 0 .7.8 1 1 0 0 0 .9-.7 1 1 0 0 0-.7-.8m2.5.6a1 1 0 0 0-.8.7 1 1 0 0 0 .7.8 1 1 0 0 0 .8-.7 1 1 0 0 0-.7-.8m-15 2.1-.6.6.1.4.4.3a.6.6 0 0 0 .7-.6zm2.4 0-.7.5.5.7a.6.6 0 0 0 .6-1zm2.2 0-.6.6.5.6.7-.5a.6.6 0 0 0-.6-.7m2.3.1a.6.6 0 0 0-.7.6l.2.4.4.3a.6.6 0 0 0 .7-.6.6.6 0 0 0-.6-.7m2.3.2a.6.6 0 0 0-.7.6.6.6 0 0 0 .6.7l.6-.6zm4.5 1-.7.5.1.5.5.2.6-.6zm-2.2-.6-.5.2-.2.4.5.7a.6.6 0 0 0 .7-.6l-.1-.4zm-14-8.2.1 1.1h.7zm20.1 3 .4-1-1 .8zm-15-1.4h1.2l.4-.1q0-.8-.3-.8-.3-.1-.6-.5l-.6.4q-.3 0-.4.7zm-3 0h1.1l.4-.2q0-.8-.3-.8-.3-.1-.6-.5-.3.4-.6.5-.4 0-.4.7zm9 .4.7.1h.6l.4-.1q0-.8-.3-.8l-.6-.6q-.3.4-.7.5-.3-.1-.4.7zm4.3.5h-.6l-.6-.1-.4-.3q0-.6.5-.7.3 0 .6-.4l.6.6q.4 0 .3.8zm3 .6h-.6l-.6-.2-.4-.3q.1-.6.5-.7.3 0 .7-.4.2.5.5.6.4.1.2.8zm1.6.3-.9-.2-.7.3h-.7l-.7-.2-.6-.5v-.2h-.3l-.7.4h-.7l-.7-.2-.6-.4v-.2h-.3l-.6.4h-.8l-.7-.2-.6-.4v-.1h-.3l-.7.4h-.7l-.7-.1-.6-.5-.3-.1v.1l-.7.4h-.7l-.7-.1-.6-.4V73h-.4v.1l-.6.4h-1.5l-.6-.5h-1v1l2.5-.2a63 63 0 0 1 16.8 2zM217 75l.4 2.6 2.3-.2h2.5a50 50 0 0 1 12.4 1.7l1-2.4A62 62 0 0 0 222 75zm.6 3.6.4 2.3a40 40 0 0 1 7.8 0q3.8.2 7.5 1.3l.9-2a49 49 0 0 0-12-1.7zm.5 3.3.1.4h1.4l1-.2h6.2l.7.2h.8l.8.2h.7l.7.2.6.2.7.2.6.2h.4a39 39 0 0 0-7-1.4q-3.9-.3-7.7 0m14.5-2a1 1 0 0 1 .9 1 1 1 0 0 1-1 1 1 1 0 0 1-1-1.1 1 1 0 0 1 1.1-1m-2.2-.5a1 1 0 0 1 .9 1 1 1 0 0 1-1 1 1 1 0 0 1-1-1.1 1 1 0 0 1 1-1m-2.3-.4a1 1 0 0 1 .9 1 1 1 0 0 1-1 1 1 1 0 0 1-1-1.1 1 1 0 0 1 1.1-1m-2.3-.2.7.3q.3.4.2.7a1 1 0 0 1-1 1 1 1 0 0 1-1-1.2 1 1 0 0 1 1.1-.8m-2.2-.2a1 1 0 0 1 .9 1.1l-.4.7-.7.2a1 1 0 0 1-.9-1 1 1 0 0 1 1-1m-2.3 0a1 1 0 0 1 .9 1 1 1 0 0 1-1 1 1 1 0 0 1-1-1.1 1 1 0 0 1 1-.9m-2.3 0a1 1 0 0 1 .9 1.1 1 1 0 0 1-1 1l-.7-.4a1 1 0 0 1 .8-1.6m15-2.1a1.2 1.2 0 0 1 1 1.3l-.4.8-.9.3a1.2 1.2 0 0 1-1-1.3 1.2 1.2 0 0 1 1.2-1.1m-2.6-.6q.5 0 .8.4.3.3.3.9l-.4.8a1 1 0 0 1-1 .3l-.7-.5-.3-.8a1.2 1.2 0 0 1 1.3-1.1m-2.5-.4q.5 0 .8.4t.2.9-.4.8-.9.3l-.8-.5-.2-.8a1.2 1.2 0 0 1 1.3-1.1m-2.6-.3a1.2 1.2 0 0 1 1 1.3l-.3.8q-.4.3-1 .3a1.2 1.2 0 0 1-1-1.3 1.2 1.2 0 0 1 1.3-1.1m-2.6-.2a1.2 1.2 0 0 1 1.1 1.3q0 .5-.4.8l-.9.3a1.2 1.2 0 0 1-1-1.3 1 1 0 0 1 1.2-1m-2.5 0a1.2 1.2 0 0 1 1 1.3 1.2 1.2 0 0 1-1.3 1 1 1 0 0 1-1-1.2l.4-.8q.3-.3.9-.3m-2.6 0a1.2 1.2 0 0 1 1 1.3q0 .5-.3.8-.4.3-1 .3l-.7-.4-.3-.9a1.2 1.2 0 0 1 1.3-1" fill="#fcdd09" fill-opacity="1" fill-rule="nonzero" id="path19035"/></g><!-- app4joy --></svg>