<svg xmlns="http://www.w3.org/2000/svg" xmlns:xlink="http://www.w3.org/1999/xlink" id="svg2422" width="1400" height="800" version="1.0" viewBox="0 0 1400 800"><path id="rect3073" d="M0 0h1400v800H0z" style="fill:#fff"/><use xlink:href="#polygon588" id="use3388" width="100%" height="100%" x="0" y="0" transform="translate(-1088 -516.7)"/><path id="path1574" d="M1400 0H896.4L0 510.9V800h471.1L1400 246.4Z" style="fill:#076d4a"/><path id="path3341" d="M469.9 800H1400V246.4z" style="fill:#d32927;fill-opacity:1"/><path id="polygon588" d="m1244.3 571.7-16 54-51.1-28 29.6 48.7-57.5 13.8 58 15-30.1 47.6 52.3-27.6 14.8 53.5 16-54 51.2 28-29.7-48.7 57.5-13.8-58-15 30.2-47.6-52.4 27.6-14.8-53.5z" style="fill:#eabc00"/><use xlink:href="#polygon588" id="use3386" width="100%" height="100%" x="0" y="0" transform="translate(-544.3 -260.2)"/><!-- app4joy --></svg>