<svg xmlns="http://www.w3.org/2000/svg" xmlns:xlink="http://www.w3.org/1999/xlink" id="svg131" width="1000" height="600" version="1" viewBox="0 0 1000 600"><g id="g132"><path id="path1" d="M0 0h1000v200H0z"/><path id="path2" fill="#d00" d="M0 200h1000v200H0z"/><path id="path3" fill="#ffce00" d="M0 400h1000v200H0z"/></g><g id="g131" transform="matrix(.2046 0 0 .20455 333.5 254.7)"><path id="path4" fill="#d00" d="M1380.8 212.4c0 316.8-254 573.5-567.3 573.5-313.3 0-567.3-256.7-567.3-573.5S500.2-361 813.5-361c313.3 0 567.3 256.7 567.3 573.4z"/><g id="g12" transform="translate(-896.6 -1479.2)"><use xlink:href="#a" id="use4" width="744.1" height="1052.4" transform="matrix(-1 0 0 1 3344.2 -55.4)"/><use xlink:href="#a" id="use5" width="744.1" height="1052.4" transform="matrix(-1 0 0 1 3362.8 -41.5)"/><use xlink:href="#a" id="use6" width="744.1" height="1052.4" transform="matrix(-1 0 0 1 3381.3 -27.6)"/><use xlink:href="#a" id="use7" width="744.1" height="1052.4" transform="matrix(-1 0 0 1 3399.8 -13.7)"/><use xlink:href="#a" id="use8" width="744.1" height="1052.4" transform="matrix(-1 0 0 1 3418.4 .2)"/><use xlink:href="#a" id="use9" width="744.1" height="1052.4" transform="translate(74.6 -55.5)"/><use xlink:href="#a" id="use10" width="744.1" height="1052.4" transform="translate(55.8 -41.5)"/><use xlink:href="#a" id="use11" width="744.1" height="1052.4" transform="translate(37 -27.6)"/><use xlink:href="#a" id="use12" width="744.1" height="1052.4" transform="translate(18.5 -13.8)"/><path id="a" fill="#ffc709" fill-rule="evenodd" stroke="#ba6d00" stroke-width="6.3" d="m1605.7 2445.3 175.5 83 18.5-14-164.7-77.6-29.3 8.6z"/></g><g id="g16" transform="translate(-896.6 -1479.2)"><path id="path12" stroke="#000" stroke-linejoin="round" stroke-miterlimit="5" stroke-width="12.5" d="m1718 1214.4-249.5 13.4v147l249.5 13.4h27l208.1-30.6V1245l-208-30.5h-27z"/><rect id="rect12" width="129.8" height="734.8" x="1644.5" y="1465" fill="#ffc709" stroke="#000" stroke-linejoin="round" stroke-width="13.8" rx="21.9" ry="21.9"/><path id="path13" fill="#ffc709" stroke="#000" stroke-width="13.8" d="M2002.9 1700a404.3 404.3 0 0 1-291.3 123.7 403.4 403.4 0 0 1-221.4-66l-52 76.8a495.6 495.6 0 0 0 273.4 81.8c140 0 266.7-58 357.2-151.2l-66-65z"/><path id="path14" fill="#ffc709" fill-rule="evenodd" stroke="#000" stroke-width="13.8" d="m1662.7 1371.5-357.4 660.2 404.6-522.2 404.7 522.2-357.4-660.2-47.2 66.3-47.3-66.3z"/><path id="path15" fill="#ffc709" d="m1717.6 1221.4-171.4 8.2-71.2 28.5v86.3l70.3 28.6 172.3 9.1h26.3l202.2-29.6v-102.9l-202.2-28.2h-26.3z"/><rect id="rect15" width="118.8" height="121.7" x="1649.9" y="1351.9" fill="#ffc709" stroke="#000" stroke-linejoin="round" stroke-miterlimit="5" stroke-width="17.7" rx="59.4" ry="59.4"/><path id="path16" fill="#ffc709" stroke="#000" stroke-linejoin="round" stroke-width="6.3" d="M1734.8 1413a26.5 26.5 0 1 1-53 0 26.5 26.5 0 0 1 53 0z" transform="matrix(.94883 0 0 .94873 88.5 71.3)"/></g><g id="h"><path id="path17" fill="#ffc709" fill-rule="evenodd" d="m1247.4 2299.7-224.6-251.1-88.2-315.2 31.4-291 143.7-279L1331.9 992l132.8-49.5 37.4 54.3 65.2 19.3-37.4 31.4-4.8 81-227 148.5-137.7 229.4-13.3 258.4 68.9 224.6 263.2 251.1-231.8 59.2z" transform="translate(-896.6 -1479.2)"/><g id="g27" transform="translate(-896.6 -1479.2)"><use xlink:href="#b" id="use17" width="744.1" height="1052.4" transform="rotate(-1.9 3472 2550.2)"/><use xlink:href="#c" id="use18" width="744.1" height="1052.4" transform="rotate(-2 2237.8 4255)"/><use xlink:href="#c" id="use19" width="744.1" height="1052.4" transform="translate(-120.2 6.4)"/><use xlink:href="#b" id="use20" width="744.1" height="1052.4" transform="rotate(-1.1 4462.4 4277.6)"/><use xlink:href="#b" id="use21" width="744.1" height="1052.4" transform="matrix(.8859 .00018 -.0002 .98766 147.3 -.5)"/><use xlink:href="#b" id="use22" width="744.1" height="1052.4" transform="translate(56 -19.6)"/><use xlink:href="#c" id="use23" width="744.1" height="1052.4" transform="translate(-25.2 -14.8)"/><use xlink:href="#c" id="use24" width="744.1" height="1052.4" transform="rotate(-3.5 1623.3 862)"/><use xlink:href="#b" id="use25" width="744.1" height="1052.4" transform="rotate(-1.7 3369.6 -2615.1)"/><use xlink:href="#b" id="use26" width="744.1" height="1052.4" transform="translate(24 16.7)"/><path id="b" fill="#ffc709" fill-rule="evenodd" stroke="#ba6d00" stroke-linejoin="round" stroke-width="6.3" d="M991 1855.7s8.9 29 30.3 64c23.7 36.4 41.2 34.9 41.2 34.9s26.6 4.8 30.4-16c1.4-20.8-12.7-28.3-12.7-28.7 0 .4-15.4-11.3-35.2-20.2-17-11.2-16-11-25.8-24.6-6-15.5-4.2-4.7-19.2-65.2-15-60.6-21.3-94.3-21.7-94.3l-21.5 4.3 19.4 88 6.9 30.1 8 27.7z"/><path id="c" fill="#ffc709" fill-rule="evenodd" stroke="#ba6d00" stroke-linejoin="round" stroke-width="6.3" d="m1049.2 1688.7 40.9 157s4.8 17 7.6 34.4c-.6 20.7-4.6 28.8-4.6 28.8-.4 0-2.6 11-4 22.2a45 45 0 0 0 5.6 25.8c0 .5 5 8.3 20.1 9.7 17.6-.5 20.2-13 20.2-13s2.7-1.2 2-18.7c-.8-17.5-9.5-45-9.5-45l-58.8-212-19.5 10.8z"/><use xlink:href="#b" id="use27" width="744.1" height="1052.4" transform="rotate(-4.3 2118.7 -308.6)"/><path id="path27" fill="#ffc709" fill-rule="evenodd" stroke="#ba6d00" stroke-linejoin="round" stroke-width="6.3" d="m1130.6 1752.8 56.1 150s6.6 16.2 11 33a79 79 0 0 1-1.7 29.3c-.4 0-1.5 11.2-1.8 22.5a43.2 43.2 0 0 0 8.1 24.8c0 .5 5.8 7.5 21 6.8 17.4-3 18.8-15.7 18.8-15.7s2.5-16.7-2.3-33c-3.8-20.5-40.6-87.8-55.1-133.4l-32.4-99.1-21.7 14.8z"/></g><g id="g38" transform="translate(-896.6 -1479.2)"><use xlink:href="#d" id="use28" width="744.1" height="1052.4" transform="translate(35 6.8)"/><use xlink:href="#d" id="use29" width="744.1" height="1052.4" transform="translate(19.4 -.7)"/><use xlink:href="#d" id="use30" width="744.1" height="1052.4" transform="rotate(7.5 1442.7 2300.2)"/><use xlink:href="#e" id="use31" width="744.1" height="1052.4" transform="rotate(-8.4 934 2091)"/><path id="d" fill="#ffc709" fill-rule="evenodd" stroke="#ba6d00" stroke-width="6.3" d="M1072.7 1170.1s-21 23.9-50.2 72.3c-28.2 47.4-29.4 49.3-42.5 85-9.4 34.6-9.5 46.4-3 65.7 8.4 15.7 16.6 19 24.2 19.3 7.7.3 11.6-1.8 17.2-10.5 11.3-25.5-2.9-38.3-7.2-59.5s-2.4-5-2.5-20.7c2.4-20.9 9-26.4 11.8-32 4.2-8 7.2-14 30.7-49.2 24.6-37.5 36.3-58.1 36.3-58.1s2.6-8.4-3-12.5c-5.5-4-11.8.2-11.8.2z"/><use xlink:href="#e" id="use32" width="744.1" height="1052.4" transform="translate(-22.6 -33.5)"/><use xlink:href="#d" id="use33" width="744.1" height="1052.4" transform="rotate(6.7 1377.7 2562.2)"/><use xlink:href="#e" id="use34" width="744.1" height="1052.4" transform="translate(-5 -25.4)"/><use xlink:href="#d" id="use35" width="744.1" height="1052.4" transform="rotate(7 1534.9 2190.8)"/><path id="e" fill="#ffc709" fill-rule="evenodd" stroke="#ba6d00" stroke-width="6.3" d="M1286.7 1173.4s-46.1 55.2-63 76.5c-20 23-40.4 57-57.5 74-19.8 15.7-37.4 16.1-51.2 26-15.6 10.3-19 15.9-21.3 26.2a21.5 21.5 0 0 0 25 23.8c14 .3 32.5-19.5 32.5-19.5l42.5-58c38.5-56.5 110.8-137.5 110.8-137.5l-17.8-11.5z"/><use xlink:href="#e" id="use36" width="744.1" height="1052.4" transform="matrix(1.10568 -.04355 .05268 1.04762 -211.8 45)"/><use xlink:href="#f" id="use37" width="744.1" height="1052.4" transform="rotate(3 1455.4 554.9)"/><use xlink:href="#e" id="use38" width="744.1" height="1052.4" transform="matrix(1.12494 -.12498 .14275 .99186 -325.2 250.9)"/><path id="f" fill="#ffc709" fill-rule="evenodd" stroke="#ba6d00" stroke-width="6.3" d="M1324.2 1275.3s-6.2 8.3-58.7 83.3c-47.2 81.6-54.3 96.8-54.3 96.8s-7.4 15.7-15.6 20.7c-8.1 5-22.4 5.3-26.9 2.2-4.2-3-6.5-3.3-8.7-18.4 1.1-9.1 3.5-12.8 7-16.4 7.4-6.1 11.2-7.3 20.4-10.7a48 48 0 0 0 18.1-19c11.4-20.2 16.5-30 35.8-59.6 25.1-39 45.2-63.2 68.4-94l14.5 15z"/></g><g id="g73" transform="translate(-896.6 -1479.2)"><path id="path38" fill="#ffc709" stroke="#ba6d00" stroke-linecap="round" stroke-linejoin="round" stroke-width="5.1" d="M1627.2 872a809 809 0 0 0-206.6 49.6l5.6 11.2a804.3 804.3 0 0 1 203-48.7c6-.7 4.7-12.8-2-12.1z"/><path id="path39" fill="#ffc709" stroke="#ba6d00" stroke-linecap="round" stroke-linejoin="round" stroke-width="5" d="M1668.8 891.2a730.5 730.5 0 0 0-174.6 29.6 765.2 765.2 0 0 0-63.3 21.3l5.6 11.3a782.6 782.6 0 0 1 233.4-49.7c7.4-.8 6.3-12.4-1-12.5z"/><path id="path40" fill="#ffc709" stroke="#ba6d00" stroke-linecap="round" stroke-linejoin="round" stroke-width="5" d="M1638.2 916.4a780.8 780.8 0 0 0-197 46.3l4.7 9.5a776.9 776.9 0 0 1 194-45.4c6.1-.5 4.9-11-1.7-10.4z"/><path id="path41" fill="#ffc709" stroke="#ba6d00" stroke-linecap="round" stroke-linejoin="round" stroke-width="5" d="m1449.7 979.7 5.6 11.2a752 752 0 0 1 236.4-46.8c7-.5 7.1-12-1-12.4a798.4 798.4 0 0 0-241 48z"/><path id="path42" fill="#ffc709" stroke="#ba6d00" stroke-linecap="round" stroke-linejoin="round" stroke-width="5" d="M1654.7 956a746 746 0 0 0-194.7 44.2l5.8 11.5c59-21.9 138.3-39.4 191-43.3 7.4-1.1 5.7-13-2.1-12.3zm-183.3 67 5.6 11c60.1-22 159-42.9 216.3-42 6.2-.4 5.7-12-.5-12.5-72 0-147.2 16.5-221.4 43.4zm176.7-16.8a721.5 721.5 0 0 0-165.5 39.1l5.6 11.2a680.8 680.8 0 0 1 161.4-37.7c8.2-1.2 7-13.1-1.5-12.6zm-154.3 61.4 5.6 11.2a735.7 735.7 0 0 1 180-36.9c7.7-.9 6.6-12.5-1-12.7-62 2.4-129.6 19-184.7 38.4zm190.1-11.4c-45.9.4-126.3 17.3-178 35.7l5.7 11.2c49.3-17.5 130.6-33.5 172.9-34.5 8.5-.1 8.3-12.3-.6-12.4zm-39.2 29c-43 6.2-85.5 16.5-126.6 31l5.6 11.1a600.6 600.6 0 0 1 123.6-30c7.9-1.7 6-13.7-2.5-12zm37.6 20.6c-47.4 1.7-109.3 15.7-153.8 31.2l5.7 11.2c41.4-14.3 100.5-28.2 148.3-29.9 8.7-.5 8-13-.2-12.5z"/><use xlink:href="#g" id="use42" width="744.1" height="1052.4" transform="matrix(-.34285 .88667 -.90474 -.33395 3477.8 854.3)"/><use xlink:href="#g" id="use43" width="744.1" height="1052.4" transform="matrix(-.61506 -.66895 -.68365 .60157 3316.9 691.2)"/><use xlink:href="#g" id="use44" width="744.1" height="1052.4" transform="matrix(.08304 .9138 -.90737 .08363 3016.6 99.3)"/><use xlink:href="#g" id="use45" width="744.1" height="1052.4" transform="matrix(-.53344 -.68936 -.68821 .54105 3192.2 841.4)"/><use xlink:href="#g" id="use46" width="744.1" height="1052.4" transform="matrix(.1898 .8771 -.87789 .18963 2808.2 -31.8)"/><use xlink:href="#g" id="use47" width="744.1" height="1052.4" transform="matrix(-.49109 -.68533 -.65436 .54712 3045 852.3)"/><use xlink:href="#g" id="use48" width="744.1" height="1052.4" transform="matrix(.36579 .78043 -.81444 .35051 2481.5 -198.4)"/><use xlink:href="#g" id="use49" width="744.1" height="1052.4" transform="matrix(-.63748 -.5981 -.60016 .65277 3042.7 610.9)"/><use xlink:href="#g" id="use50" width="744.1" height="1052.4" transform="matrix(-.67017 -.4812 -.485 .67525 2829.4 493.7)"/><use xlink:href="#g" id="use51" width="744.1" height="1052.4" transform="matrix(.37133 .75773 -.7967 .35316 2397.7 -146)"/><use xlink:href="#g" id="use52" width="744.1" height="1052.4" transform="matrix(.4625 .71801 -.74338 .44672 2175.2 -239.8)"/><use xlink:href="#g" id="use53" width="744.1" height="1052.4" transform="matrix(-.6759 -.53733 -.48467 .73335 2793.3 479)"/><use xlink:href="#g" id="use54" width="744.1" height="1052.4" transform="matrix(-.34609 1.0219 -.99494 -.35334 3562.6 617.3)"/><use xlink:href="#g" id="use55" width="744.1" height="1052.4" transform="matrix(.27564 .98697 -1.00232 .27076 2925.6 -443.5)"/><use xlink:href="#g" id="use56" width="744.1" height="1052.4" transform="matrix(.32902 1.05967 -1.03335 .33885 2874.4 -602)"/><use xlink:href="#g" id="use57" width="744.1" height="1052.4" transform="matrix(.39445 1.00451 -.97463 .40676 2654.3 -641.5)"/><use xlink:href="#g" id="use58" width="744.1" height="1052.4" transform="matrix(.5287 .87511 -.8929 .51082 2329.7 -667.6)"/><use xlink:href="#g" id="use59" width="744.1" height="1052.4" transform="matrix(.55278 .8687 -.87166 .54975 2224.3 -695.5)"/><use xlink:href="#g" id="use60" width="744.1" height="1052.4" transform="matrix(.54569 .8703 -.87608 .53907 2194 -646)"/><use xlink:href="#g" id="use61" width="744.1" height="1052.4" transform="matrix(.64306 .79514 -.79481 .64351 1918.4 -719.2)"/><use xlink:href="#g" id="use62" width="744.1" height="1052.4" transform="matrix(-.90214 -.4821 -.47596 .91378 3261.3 -164.3)"/><use xlink:href="#g" id="use63" width="744.1" height="1052.4" transform="matrix(-.1512 1.07586 -.9885 -.16455 3427.6 265.7)"/><use xlink:href="#g" id="use64" width="744.1" height="1052.4" transform="matrix(-.62515 -.86299 -.86142 .62629 3629.3 739)"/><use xlink:href="#g" id="use65" width="744.1" height="1052.4" transform="matrix(.11322 1.05372 -1.06774 .11173 3255.8 -187.4)"/><use xlink:href="#g" id="use66" width="744.1" height="1052.4" transform="matrix(-.64277 -.89528 -.85986 .66925 3573.7 715)"/><use xlink:href="#g" id="use67" width="744.1" height="1052.4" transform="matrix(-.63115 -.81145 -.80261 .6381 3401.3 725.7)"/><use xlink:href="#g" id="use68" width="744.1" height="1052.4" transform="matrix(.24308 1.15004 -1.13054 .24727 3178.2 -491.2)"/><use xlink:href="#g" id="use69" width="744.1" height="1052.4" transform="matrix(.41988 .99784 -1.02292 .40958 2755 -596)"/><use xlink:href="#g" id="use70" width="744.1" height="1052.4" transform="matrix(-.70073 -.74975 -.71343 .7364 3252.8 527.6)"/><use xlink:href="#g" id="use71" width="744.1" height="1052.4" transform="matrix(.5179 .96263 -.9768 .51038 2521.4 -702.5)"/><use xlink:href="#g" id="use72" width="744.1" height="1052.4" transform="matrix(.55508 .88011 -.89278 .5472 2286.4 -655.2)"/><use xlink:href="#g" id="use73" width="744.1" height="1052.4" transform="matrix(-.84349 -.63046 -.63617 .83592 3196.7 280.3)"/></g><g id="g88" transform="translate(-896.6 -1479.2)"><use xlink:href="#g" id="use74" width="744.1" height="1052.4" transform="matrix(1.02608 -.52763 .57308 .90658 -861.7 1048.4)"/><use xlink:href="#g" id="use75" width="744.1" height="1052.4" transform="matrix(.99696 -.64269 .64906 .98717 -930.8 1060)"/><use xlink:href="#g" id="use76" width="744.1" height="1052.4" transform="rotate(-35.5 1819.8 1602.7)"/><use xlink:href="#g" id="use77" width="744.1" height="1052.4" transform="scale(-1 1) rotate(50.4 -496.3 -348)"/><use xlink:href="#g" id="use78" width="744.1" height="1052.4" transform="matrix(.97004 -.37286 .3686 .98128 -359.4 775.6)"/><use xlink:href="#g" id="use79" width="744.1" height="1052.4" transform="rotate(-29.3 1819.1 1266.9)"/><use xlink:href="#g" id="use80" width="744.1" height="1052.4" transform="matrix(-.58195 .85154 .84328 .58765 306.3 315.3)"/><use xlink:href="#g" id="use81" width="744.1" height="1052.4" transform="matrix(.88368 -.55974 .56506 .87535 -583.4 1191)"/><use xlink:href="#g" id="use82" width="744.1" height="1052.4" transform="matrix(-.46424 .8347 .80512 .52054 355.4 408.5)"/><use xlink:href="#g" id="use83" width="744.1" height="1052.4" transform="matrix(.80058 -.52202 .5226 .80015 -338.2 1241.3)"/><use xlink:href="#g" id="use84" width="744.1" height="1052.4" transform="matrix(-.50844 .75055 .761 .49413 518.2 565.6)"/><use xlink:href="#g" id="use85" width="744.1" height="1052.4" transform="rotate(-41 1730.4 1401.8)"/><use xlink:href="#g" id="use86" width="744.1" height="1052.4" transform="matrix(-.48563 .9168 .91866 .48464 131.6 481.1)"/><use xlink:href="#g" id="use87" width="744.1" height="1052.4" transform="scale(-1 1) rotate(61.4 -602.4 77.1)"/><use xlink:href="#g" id="use88" width="744.1" height="1052.4" transform="matrix(-.60015 .7999 .7999 .60015 578 381.4)"/></g><g id="g117" transform="translate(-896.6 -1479.2)"><use xlink:href="#g" id="use89" width="744.1" height="1052.4" transform="matrix(.93572 .48854 -.4967 .91625 984 -666.4)"/><use xlink:href="#g" id="use90" width="744.1" height="1052.4" transform="matrix(.98045 .4224 -.42792 .95725 802.5 -617.1)"/><use xlink:href="#g" id="use91" width="744.1" height="1052.4" transform="matrix(1.06528 .35814 -.38603 .96596 635.7 -512.7)"/><use xlink:href="#g" id="use92" width="744.1" height="1052.4" transform="matrix(1.03419 .27943 -.27337 1.06849 457 -558.3)"/><use xlink:href="#g" id="use93" width="744.1" height="1052.4" transform="matrix(1.04943 .23015 -.23551 1.02517 371 -374.9)"/><use xlink:href="#g" id="use94" width="744.1" height="1052.4" transform="matrix(.8039 .78185 -.83622 .7512 1803.7 -700.2)"/><use xlink:href="#g" id="use95" width="744.1" height="1052.4" transform="matrix(-1.04153 -.17548 -.17684 1.03294 2387.8 -249.4)"/><use xlink:href="#g" id="use96" width="744.1" height="1052.4" transform="matrix(.88004 .61124 -.62697 .85748 1324 -663.1)"/><use xlink:href="#g" id="use97" width="744.1" height="1052.4" transform="matrix(.72028 .60984 -.70802 .6916 1725.5 -343.7)"/><use xlink:href="#g" id="use98" width="744.1" height="1052.4" transform="matrix(-.8395 -.14096 -.129 .89646 2187.2 36.1)"/><use xlink:href="#g" id="use99" width="744.1" height="1052.4" transform="matrix(.7423 .47088 -.50093 .79345 1314 -339)"/><use xlink:href="#g" id="use100" width="744.1" height="1052.4" transform="matrix(-1.02345 -.12887 -.12838 1.03384 2266.3 -233.7)"/><use xlink:href="#g" id="use101" width="744.1" height="1052.4" transform="matrix(1.02832 .46798 -.47623 1.00995 896.7 -730)"/><use xlink:href="#g" id="use102" width="744.1" height="1052.4" transform="matrix(-.87003 -.03643 -.03643 .85326 2036.3 66.7)"/><use xlink:href="#g" id="use103" width="744.1" height="1052.4" transform="matrix(.79186 .38861 -.44686 .75714 1159.6 -141.4)"/><use xlink:href="#g" id="use104" width="744.1" height="1052.4" transform="matrix(-1.0589 .05105 .05195 1.05255 1963.6 -373)"/><use xlink:href="#g" id="use105" width="744.1" height="1052.4" transform="matrix(1.0118 .3628 -.33766 1.08653 649.5 -701)"/><use xlink:href="#g" id="use106" width="744.1" height="1052.4" transform="matrix(-.87306 .01354 .01144 .92685 1945.7 -61.6)"/><use xlink:href="#g" id="use107" width="744.1" height="1052.4" transform="matrix(.82078 .32755 -.36634 .80568 982.1 -111.4)"/><use xlink:href="#g" id="use108" width="744.1" height="1052.4" transform="matrix(-1.03781 .1234 .1227 1.04076 1808.5 -354.4)"/><use xlink:href="#g" id="use109" width="744.1" height="1052.4" transform="matrix(1.0529 .18293 -.17535 1.09782 319 -485.4)"/><use xlink:href="#g" id="use110" width="744.1" height="1052.4" transform="matrix(1.04784 .13047 -.12924 1.05785 181.2 -284)"/><use xlink:href="#g" id="use111" width="744.1" height="1052.4" transform="matrix(-.89014 .16278 .15955 .87093 1693 -46.4)"/><use xlink:href="#g" id="use112" width="744.1" height="1052.4" transform="matrix(.94222 .19602 -.25044 .9056 659.7 -103)"/><use xlink:href="#g" id="use113" width="744.1" height="1052.4" transform="matrix(-1.01654 .21025 .20196 1.04206 1647.4 -377.2)"/><use xlink:href="#g" id="use114" width="744.1" height="1052.4" transform="matrix(1.02927 .07198 -.06964 1.06334 148.8 -258.3)"/><use xlink:href="#g" id="use115" width="744.1" height="1052.4" transform="matrix(-.86515 .24476 .25295 .86173 1505.6 -51.7)"/><use xlink:href="#g" id="use116" width="744.1" height="1052.4" transform="matrix(.83975 .13523 -.16684 .91506 609 -6)"/><use xlink:href="#g" id="use117" width="744.1" height="1052.4" transform="matrix(-.86777 .21145 .27276 .83445 1476.5 77.5)"/><path id="g" fill="#ffc709" fill-rule="evenodd" stroke="#ba6d00" stroke-linejoin="round" stroke-width="6.3" d="M900.4 1739.5s15.5 103.9 68.1 77.1c36-42-68-77-68-77z"/></g><g id="g120" fill-rule="evenodd"><path id="path117" stroke="#ba6d00" stroke-width="3.1" d="M203.8 476.4s-58.8.8-98-11.7c-51.4-14-71.9-61.6-71.9-61.6s-7.5 11-7 26.4c.4 14 10.5 46.6 35.7 81 26.2 42.4 44 92.3 65.2 125.1 16.9 29.6 52.5 56.3 52.5 56.3s113.5-13.6 124.5-16c14.6-2.1 114.9-25.3 137.4-26.5s73.6 2 73.6 2-18-33.1-26.7-39.5c-17.4-14.4-38.3-20.3-60-41.3-12-13-32-36-43.2-48.5-14-13.5-24.7-26.7-40-35.3-12.5-8.2-142.1-10.4-142.1-10.4z"/><path id="path118" fill="#ffc709" d="M1356.9 2074.5s-41.8 1-61.8 3.6c-22.2 3.5-70 9.3-108.2 13.2-34.4 3.8-63.6 6-102.4 6.5l-70.5-3.3a259 259 0 0 0 14.8 24.5 149.2 149.2 0 0 0 27 31.9 272.5 272.5 0 0 0 21.5 18.7c8.5-1 61.8-7.4 83.4-10.4 35.4-3.4 53.4-8.2 94.2-16.8 21.3-4.3 70.8-14.8 83.6-15.5a964 964 0 0 1 71.5 2 2260.5 2260.5 0 0 1-13-21.7c-8-13.6-14.3-17-25.5-24.6-4.5-2.9-14.3-8-14.6-8.1z" transform="translate(-896.6 -1479.2)"/><path id="path119" fill="#d00" d="M972 2008.8c3.3 6 12 23.6 19.7 39.2 10 21.4 15.4 33 22.6 47.1 15.7 1.2 31 1.7 70.2 2.9a961 961 0 0 0 102.4-6.4c38.3-4 86-9.7 108.2-13.2 20-2.5 62.4-3.5 62.4-3.5s-18.8-11.4-27.6-19c-10.8-10-15.8-17.2-24.7-26.5-11.5-1-27.5-1-45-2.3-30.6-1.7-77.7 1.5-104 1.5s-70.6-.9-108-5.2c-50.8-3.7-63-12-76.2-14.6z" transform="translate(-896.6 -1479.2)"/><path id="path120" fill="none" fill-opacity=".8" stroke="#ffc709" stroke-linecap="round" stroke-width="5" d="M33.2 413.7c7.7 12 15.6 24.3 28 34.5 21.3 15.2 26.8 18.2 67.9 27.8 37 5.9 45.3 4.3 94.6 5.8 48 1.5 62 2.6 93 5 15 1.3 20.1 2.6 26.6 3.6"/></g></g><use xlink:href="#h" id="use120" width="744.1" height="1052.4" transform="matrix(-1 0 0 1 1627.6 0)"/><path id="path121" fill-rule="evenodd" stroke="#ba6d00" stroke-width="3.1" d="M612.8 696.6c-6.9 0-14.2 1-21.2 2.2-47.1 8.2-82.6 35.8-199.9 63.5a402.5 402.5 0 0 1-129.4 12.3c-3.6-1-6.4-5-6.4-9l-11.5-6.6c-5 7.7-2 15.7-.2 20.5 1.5 4 3.9 8.5 7.4 11.3 84.8 60.4 87 73.4 135.8 119.4 26.9 26.5 35 35 124.5 20.7 17.7 28.7 21.5 43.6 72.5 28.8l8.5 21.5c8 14.8 18.8 15 46.4 9.1 71.3-15.3 92-32.7 173.5-34.5 81.5 1.8 102.2 19.2 173.6 34.5 27.5 5.9 38.4 5.7 46.3-9.1l8.6-21.5c51 14.8 54.7-.1 72.4-28.8 89.6 14.2 97.7 5.8 124.6-20.7 48.8-46 51-59 135.8-119.4 3.5-2.8 5.8-7.3 7.3-11.3 1.8-4.8 4.9-12.8-.1-20.5l-11.5 6.5c0 4.2-3 8.1-6.4 9.1-47.8 2.4-89-1.2-129.5-12.3-117.3-27.7-152.8-55.3-199.8-63.5-18.9-3.3-39.5-4.5-48.3 7.7-10.2 12.3-18.6 35.8-33.1 57.7-27.3-8.7-48.9-16.6-71.1-21.3-29.8-6.3-51.3-6-68.8-6-17.3 0-39-.3-68.7 6-22.3 4.7-44 12.6-71.1 21.3-14.6-21.9-23-45.4-33.1-57.7-5.5-7.7-15.7-10-27.1-10z"/><path id="path122" fill="none" stroke="#ffc709" stroke-width="5" d="M604.1 754.9a127 127 0 0 1 13.2 34.8"/><path id="path123" fill="#d00" fill-rule="evenodd" d="M319.7 841.6c30-3.2 38.8-4 63.6-8.2a751 751 0 0 0 63.3-14.1c6.4 9.4 12.3 18.4 18.8 27.8 5.9 9.4 8.5 12.8 17.6 32.1-18.8 1.7-34.4 4.6-54.2 7.1-17 2.2-36.4 5-56.4 7.4-7.6-7.5-13.4-13.7-21.8-22.3-10.1-10.2-17.9-18.2-30.9-29.8zm210.4-6.4c-30.2 6.4-33.9 7-56.6 14.3 11.5 20 18 39 26 55.7 23.3-5.3 35-7.7 57.6-12.4l-11.4-24.5-15.6-33z"/><path id="path124" fill="#ffc709" fill-rule="evenodd" d="M372.3 893.6c18.5-2.2 36.6-4.7 55.4-7.2 22-3 36.7-5.4 56.9-7.4 4.1 9.7 6.3 14.9 11.2 25.8 4.1 9 9.6 17.7 13.7 25-13.4 1.9-23.6 3.5-38.3 5-15.8 1.3-21.5 1.8-34.4 1a55.8 55.8 0 0 1-33-12.4c-7.3-5.8-18.8-17.6-31.5-29.8zm127.2 11.6c20-4.7 38-8.5 59.2-12.7 5 12.1 7 17.7 11.4 30.2l12.3 36a148 148 0 0 1-25 5c-9.1.7-17.6-.3-24.2-5.6-5.3-3.7-12.7-15.3-19.8-27.6-5.3-9.5-9-15.3-13.9-25.3z"/><path id="path125" fill="#d00" fill-rule="evenodd" d="M801.2 813.3c-17.6 1-35.3 3.2-41 4.5-34 8.4-54.3 15.5-77.6 23.3-41.1 13.7-54 20-77.2 27.1a620.6 620.6 0 0 1-48 12.5c8 19 14 36.4 21.2 57 21-3.5 37.7-7.3 58.6-13.5 23.4-7.8 44-14.3 69.2-22a472.8 472.8 0 0 1 66.3-15.2c11.6-1 20-1.8 28.8-2a395.7 395.7 0 0 1 22.6 0c8.8.2 17.2 1 28.8 2 29 5 44.5 8.6 66.4 15.3 25.2 7.6 45.8 14.1 69.2 21.9 20.8 6.2 37.6 10 58.6 13.6 7.2-20.7 13.2-38 21.2-57.1a619.8 619.8 0 0 1-48-12.5c-23.2-7-36.2-13.4-77.3-27.1-23.3-7.8-43.6-15-77.5-23.3a310.4 310.4 0 0 0-64.3-4.5z"/><path id="path126" fill="#ffc709" fill-rule="evenodd" d="M803 884.7c-19.4.4-33 2-61.8 8.2-47.7 11-89.4 27.4-116.9 35a850 850 0 0 1-45.7 10 449.6 449.6 0 0 0 16.6 44.3c6.1 10 15 11.1 24.5 10 15.3-2.3 27.8-5 43.3-9 30.7-8.3 55.8-16.8 85.1-22.8a402 402 0 0 1 64.7-6.2c22.6.7 41.2 2 64.7 6.2 29.3 6 54.4 14.5 85.1 22.8 15.5 4 28 6.7 43.4 9 9.5 1.1 18.3 0 24.5-10a449.9 449.9 0 0 0 16.5-44.3c-15.6-3-29.6-6-45.7-10-27.5-7.6-69.2-24-117-35a278.4 278.4 0 0 0-61.6-8.1H803z"/><path id="path127" fill="none" stroke="#ffc709" stroke-width="5" d="M1021.3 755.7c-5.8 12-10.4 23.1-13.5 34"/><path id="path128" fill="#d00" fill-rule="evenodd" d="M1305.9 841.6c-30-3.2-38.7-4-63.5-8.2a742.8 742.8 0 0 1-63.4-14.1c-6.3 9.4-12.2 18.4-18.8 27.8-5.9 9.4-8.5 12.8-17.6 32.1 18.8 1.7 34.4 4.6 54.2 7.1 17 2.2 36.5 5 56.4 7.4 7.6-7.5 13.5-13.7 21.8-22.3 10.1-10.2 17.9-18.2 30.9-29.8zm-210.4-6.4c30.2 6.4 34 7 56.6 14.3-11.5 20-18 39-26 55.7-23.2-5.3-35-7.7-57.6-12.4l11.4-24.5 15.6-33z"/><path id="path129" fill="#ffc709" fill-rule="evenodd" d="M1253.3 893.6c-18.5-2.2-36.6-4.7-55.3-7.2-22-3-36.8-5.4-57-7.4-4 9.7-6.2 14.9-11.2 25.8-4.1 9-9.6 17.7-13.7 25 13.4 1.9 23.6 3.5 38.3 5 15.8 1.3 21.6 1.8 34.4 1a55.8 55.8 0 0 0 33-12.4c7.3-5.8 18.8-17.6 31.5-29.8zM1126 905.2c-20-4.7-38-8.5-59.2-12.7a421 421 0 0 0-11.3 30.2c-4.5 12.6-8.2 24-12.4 36a148 148 0 0 0 25 5c9.2.7 17.7-.3 24.2-5.6 5.3-3.7 12.8-15.3 19.8-27.6 5.3-9.5 9-15.3 13.9-25.3z"/><path id="path130" fill="none" stroke="#ffc709" stroke-width="3.1" d="M517 807.4c4.9 13.3 15.3 30.4 22.1 44.7 3 5.6 12.3 25.2 19 43.1m-127.4-102a1475 1475 0 0 0 33.6 50.8c8.7 12.5 14 24.8 19.6 37.4m710.8-86.3c-11.2 17.5-21.4 31.7-33.4 48.9-8.6 12.5-14 24.8-19.6 37.4m-33.2-75.3c-4.8 13.4-15.2 31.7-22 46a491.2 491.2 0 0 0-19.1 43.1"/><path id="path131" fill="none" stroke="#ffc709" stroke-width="5" d="M249.8 762c-1.8 2.8-.6 7.1.8 9.7 1.2 2.2 5.2 7.4 10.6 8.2 40.9 1.6 67.2 1 109.5-7a1054 1054 0 0 0 130-37.4c26.5-9.6 58.1-23.2 77.1-28.4 24-6.4 47.3-10.4 55.6-.3 6 9.4-13.9 20.3-34 27-23.2 7-45 10.6-68.5 13.7-24.7 4.5-51 9.5-73 16.2-13.8 4.5-29.7 15.7-28 25.6 3 12.8 21.2 9.2 37.6 3.7l108.3-41.3c12.4-4.5 25.6-3 28.4 3.6 2.4 6.8.5 16.2-16.2 19.6l-51.8 8.7c-18.4 3.4-20.5 16.7-19.1 21.6 1.5 5 9 12 31.2 6.7 50.9-12.5 86.3-30.1 119.2-40.3 80.1-27.2 95-29.2 145.2-29.4 48.5 0 63.8 1.8 145.4 29.4 32.9 10.2 68.4 27.8 119.2 40.3 22.2 5.3 29.4-2.5 31-7.5 1.4-4.8-1.2-15.4-18.8-20.8l-52-8.7c-16.6-3.4-18.5-12.8-16-19.6 2.7-6.6 16-8.1 28.3-3.6l108.4 41.3c16.3 5.5 35.4 9.7 38.3-3.2 1.7-9.9-11-20.8-28.8-26.1a687.8 687.8 0 0 0-73-16.2c-23.4-3-45.3-6.7-68.6-13.7-20-6.7-39.8-17.4-34.1-27 9.6-10.4 33.5-6.4 55.8.3 19 5.2 50.7 18.8 77.2 28.4 45.2 16.8 85.3 26.8 130 37.3 42.2 8.1 68.5 8.7 109.4 7 5.4-.7 9.4-6 10.6-8.1 1.5-2.6 2.7-6.9.8-9.7"/></g><!-- app4joy --></svg>