<svg id="Layer_1" width="480px" height="320px" viewBox="0 0 480 320" xml:space="preserve" xmlns="http://www.w3.org/2000/svg"><g id="g225" fill="#e42805"><path id="rect1" d="M1 0h281v320H1z"/><path id="polygon1" d="M265 85V0h215z"/></g><g id="g224"><path id="path1" d="m120.4 238.6 6.2-.8s-1 14.2-6.2.8z" fill="#848077" stroke="#4c4845" stroke-miterlimit="10"/><path id="path2" d="M166 149.5s3.8-5 4 9l-6.3 3.4-3.7-2.8z" fill="#464d5b" stroke="#4c4845" stroke-miterlimit="10"/><path id="path3" d="M125.5 138.5s-10.6-5-7.4 9.7l7.4-1z" fill="#64768c" stroke="#4c4845" stroke-miterlimit="10"/><path id="path4" d="M121.3 147.2s-3.9-11.4 6-6l-2.8 6.5z" fill="#464d5b"/><path id="path5" d="M145.5 73s2.2-4.7 4.3-2.6c0 0 2.7-1.8 4 1.1 0 0 2.8-2.5 3.4.8 0 0 3.7-.8 3.3 2 0 0 3 0 2.2 3.3s2.7 3.2-1 4.8c0 0-3.2 5.2-7.7-.4l-8.5-6z" fill="#64768c" stroke="#4c4845" stroke-miterlimit="10"/><path id="path6" d="M141 76.9s5.7-6.7 9-5.2c3.4 1.6 9.2 1.1 8.5 4.2 0 0 1.2 2.2 0 3.3 0 0-.3 3-2.5 3.7s-10.2-1.7-10.8 1.6l-1.3 2-3.5-5.6z" fill="#efae00" stroke="#4c4845" stroke-miterlimit="10"/><g id="g15"><path id="path7" d="M122.3 80.9s-1.4 2.7-1.8 4-4.3 2.5-2.4 3.7.7 2 2 2.3 2.2.8.6 1.2-.9 1.9 0 2.9h5.8l2.5-4.8V86z" fill="#efd0b9"/><path id="path8" d="m129 86-6.7-5.1-1.1 2.4c.5.3 1.2.8 1.1 1.6 0 1.4 2.2 2 3.9 2s-1.4 4.6-5.1 6l-1.4.4a4 4 0 0 0 1 1.7h5.8l2.5-4.8z" fill="#e2bda3"/><path id="path9" d="M118 88.6c1 .6 1.1 1 1.2 1.4 3-1.5-.1-1.5-1.2-1.4" fill="#e2bda3"/><path id="path10" d="M121.7 93s.9-3.9 2.2-1z" fill="#e2bda3"/><path id="path11" d="M118.3 88.3s1.4.6 2.9.3c0 0-1 .6-2.5.5l-.5-.4z" fill="#4c4845"/><path id="path12" d="M121.4 83q.8.3 1.4 1.4 1 2.4 4.6 2l-2 6.9s-2.7-.5-5.5.5l.8 1.2h5.8l2.5-4.8V86l-6.7-5.1z" fill="#4c4845"/><path id="path13" d="M122 80.9s-1.3 2.7-1.6 4-4.3 2.5-2.4 3.7.8 2 2 2.3 2.3 1 .6 1.4-.8 2.2 0 3.2h5.9l2-5.3V86z" fill="none" stroke="#4c4845" stroke-miterlimit="10"/><path id="path14" d="M123.3 84.5s.2 1.6 2.3 1.1c0 0-.4-1.4-2.3-1" fill="#ffffff"/><path id="path15" d="M122.2 90.4s1 .7.7 1.5c0 0 1-1.7-.7-1.5" fill="#4c4845"/></g><path id="path16" d="M120 72.8s1 5.3 3.9 8.1l3.7-3.8z" fill="#efae00" stroke="#4c4845" stroke-miterlimit="10"/><path id="path17" d="M72 191.2s-14.2-14-19.6-10.6-2.5 11-5.1 13.7-7.6 11.5-5.5 14.7-3.5 4.7-3.3 9.6 2.5 9.6 2.5 9.6l10.3-7s1.1-12.5 0-17.8 3-11.4 6.4-8 7.5 10.3 16.4 11.5l7.5-3.5z" fill="#edd6b7" stroke="#4c4845" stroke-miterlimit="10"/><path id="path18" d="M39.2 223.5s8.2-3.4 12.5-8.4" fill="none" stroke="#4c4845" stroke-miterlimit="10"/><g id="g36"><circle id="circle18" cx="192.13" cy="147.82" r="3.245" fill="#efae00" stroke="#4c4845" stroke-miterlimit="10"/><path id="path19" d="M175.8 206.5s9-.3 12 4.4 30.4 7.5 34 17.2 7.7 22.7 1 27.7c0 0-5.8 11.8 0 11.8s13-5.2 14.3-7.4l-1.3-22.9-13.6-24.4-33-12.3-18 3.2 2.3 2.7z" fill="#edd6b7" stroke="#4c4845" stroke-miterlimit="10"/><path id="path20" d="M155.2 214.5s17.6-1.2 30.3-8.8c0 0 2.8 4.6 11.3 4.4 0 0 3.4 8.3 19.7 6.5 0 0 7 2.5 9.2 6.5s7 13.6 7 18.3 3.3 11-2.9 19.1c0 0-2.3 12 2.2 11.2s16.8-6.7 13.5-14.9-6.8-15.8-4.5-20.8-6.5-10.8-5.5-17.9c0 0 1.2-7.4-2-8s-17.2-5.9-15-12.2c2.2-6.4 8.7-10.7 3.7-29.5 0 0-1.5-9.5 1.3-13.5s7.2 5.3 6.5 8.3-7 17.6-.8 21.6 17.4 24.6 13.5 33.8c0 0 2.1 2.1 3.4-2 0 0 2.4 3.2 0 7.7 0 0 4 2.2 3.7-8.6s3 5.1 3 11.1c0 0 2.7-10 1.4-18.8 0 0 1.3-5.2 3.1 6 0 0 2.7-2.3 1.7-9.2s-6-22.1-12.3-24.2-12.5-11.4-9.7-17.4-11.8-27.3-20.3-6.8c0 0-22.6-20-57.6 4.5l-6.5 38.8-.6 13z" fill="#edd6b7" stroke="#4c4845" stroke-miterlimit="10"/><path id="path21" d="M156 181.2s15.7-.5 23-4 21.1 1.2 28.6-1.3 19.5-5.5 19.9-10.5-2.3-8-5-8.3c0 0-1 3-.5 5 0 0 2-.2 2 2s-10 6.6-17.8 6.8-20.8-2.9-29.6 1.6-16.2 3.7-20 1.7z" fill="#464d5b" stroke="#4c4845" stroke-miterlimit="10"/><path id="path22" d="M191.1 148.7s-2.2-2.1-4.7 2.2-11.8 18.1-10 24.5.3 16.1 11.3 17.7 14.7 3.3 15.7 7.5 7.6 8 8.3 2.5-5.9-3.1-6.1-5.7c-.2-2.5-8-7.5-11.6-6.8s-11.4-2.2-10.9-7.1-4.1-13-.6-18.1 8.4-12.4 8.6-16.7z" fill="#464d5b" stroke="#4c4845" stroke-miterlimit="10"/><path id="path23" d="M191.1 148.7s15.8 14.2 16 24.2 5.4 8.2 8.9 8.3-3 8.4 6.6 10 8.3 2.5 7.7 6.2 3.2 4.2 4.3 1.1-1.5-9.4-5.7-9.4-8.2-2-8.3-6.3-2.7-7-7-5.8-3.5-5.8-3.9-9.3-3.5-7.8-5.6-9.2-6.2-13-13-9.8z" fill="#464d5b" stroke="#4c4845" stroke-miterlimit="10"/><path id="path24" d="M229.6 172.3s-3 6 .8 9.4 13.4 15 14.5 24.2" fill="none" stroke="#4c4845" stroke-miterlimit="10"/><path id="path25" d="M230.8 173.5s.5 6 4 8.4 13.3 15.2 12.8 24.8" fill="none" stroke="#4c4845" stroke-miterlimit="10"/><path id="path26" d="M234.4 174.4s.2 3.7 5.7 6.8 10.5 8.3 11 15.3" fill="none" stroke="#4c4845" stroke-miterlimit="10"/><path id="path27" d="M244 189s6.9 9.7 7.1 16.1" fill="none" stroke="#4c4845" stroke-miterlimit="10"/><path id="path28" d="M229.5 262.6s10.4.1 14.5-9.4" fill="none" stroke="#4c4845" stroke-miterlimit="10"/><path id="path29" d="M221.5 259s4.3 2.1 13.4-6.2" fill="none" stroke="#4c4845" stroke-miterlimit="10"/><path id="path30" d="M224.9 214.6s3.7-3.2 5.9.9" fill="none" stroke="#4c4845" stroke-miterlimit="10"/><path id="path31" d="M225.9 219.8s1.7 2 4.9 0" fill="none" stroke="#4c4845" stroke-miterlimit="10"/><path id="path32" d="M232.5 223.1s5.3 7.4 5.3 12.7" fill="none" stroke="#4c4845" stroke-miterlimit="10"/><path id="path33" d="M237.1 249.6s3.2-.4 2.1-3.5" fill="none" stroke="#4c4845" stroke-miterlimit="10"/><path id="path34" d="M228.2 249.6s2.8 1.5 3.3-1.7" fill="none" stroke="#4c4845" stroke-miterlimit="10"/><path id="path35" d="m185.5 205.7-3-5.1c-1.9-3.1-5-9.6-8.7-9.4" fill="none" stroke="#4c4845" stroke-miterlimit="10"/><path id="path36" d="M163.4 207s8-.2 10.3-3.7-.7-5.3-5.2-3.4-8 5.4-5.1 7" fill="#f4e5d4"/></g><g id="g46" stroke="#4c4845" stroke-miterlimit="10"><path id="path37" d="M113.4 63.6s-1 9.6-4 10.7-5.2 4.3-2.6 4 8.5-3.6 7.8-13.9c0 0-1-2.5-1.2-.8z" fill="#efae00"/><path id="path38" d="M115 62.8s1-9.6 3.9-10.8 5.2-4.3 2.6-4-8.5 3.6-7.8 13.9c0 0 1 2.6 1.2.9z" fill="#efae00"/><path id="path39" d="M118.3 67a3 3 0 1 1 .4-6l92.8 5.3a3 3 0 1 1-.3 6z" fill="#f4e5d4"/><path id="line39" fill="none" d="m115 63.7 92.8 5.4"/><path id="path40" d="m85.6 65 33.7 2 .4-6-33.8-2q-1.3-1.6-3.9-2c-2.7 0-5 2.1-5.3 4.9-.1 2.8 2 5 4.8 5 1.6.2 3 0 4-1.9z" fill="#82684e"/><circle id="circle40" cx="79.735" cy="62.195" r="3.631" fill="#efae00"/><path id="line40" fill="none" d="m114.8 60.7-2.4 5.9"/><path id="line41" fill="none" d="m110.8 60.5-2.4 5.9"/><path id="line42" fill="none" d="m106.8 60.3-2.4 5.8"/><path id="line43" fill="none" d="m102.8 60-2.4 5.9"/><path id="line44" fill="none" d="m98.8 59.8-2.4 5.9"/><path id="line45" fill="none" d="m94.8 59.6-2.4 5.8"/><path id="line46" fill="none" d="m90.8 59.3-2.4 5.9"/><circle id="circle46" cx="116.49" cy="63.741" r="1.25" fill="#efae00"/></g><path id="path46" d="M54.5 159.8s5.6 7.1 6.4 11.5l2.2-1.5s-4.4-8.7-6.8-11.3z" fill="#efae00" stroke="#4c4845" stroke-miterlimit="10"/><path id="path47" d="M103 74s3.5 2.3 2.7-6.1l-5.9-2.5s-7 3-3.6 6z" fill="#efae00" stroke="#4c4845" stroke-miterlimit="10"/><path id="path48" d="M92.6 82.4s-5-.5-5 5.3 3.4 7.6 8.3 6.3l6.1-4s4-4.3 0-5 2.4-4.6-3.2-3.5z" fill="#efae00" stroke="#4c4845" stroke-miterlimit="10"/><g id="g53"><path id="path49" d="M109.4 105.2 94.4 94s2.9-7.3 9.2-5.9l11.9 8.4z" fill="#ada99f"/><path id="path50" d="m95.5 92 15.2 11.3 2-2.9c-4-1.7-12.6-6.3-8.2-11.5l-1-.7c-4-.8-6.6 1.7-8 3.7" fill="#cecac2"/><path id="path51" d="m114 98.6 1.5-2-8.8-6.2c-.1 1.6.6 4.9 7.4 8.2" fill="#96938c"/><path id="path52" d="M108.4 91.7c.4 1.2 1.9 3.2 6.6 5.6l.5-.7z" fill="#848077"/><path id="path53" d="M109.4 105.2 94.4 94s2.9-7.3 9.2-5.9l11.9 8.4z" fill="none" stroke="#4c4845" stroke-miterlimit="10"/></g><path id="path54" d="M158.5 97.2s1.4-4 2-1-.3 15.8-5 22l-2.5 1.4-1.6-5.5 5.6-11.4z" fill="#464d5b" stroke="#4c4845" stroke-miterlimit="10"/><path id="path55" d="M116.6 115s-3.7-.2-3.5-4c0 0-.4-4.2-3.7-4 0 0-2.6 0-1.1-2.4s6-12.3 11.1-8.4l8.2 5.3-8.1 13z" fill="#efae00" stroke="#4c4845" stroke-miterlimit="10"/><path id="path56" d="M130.6 128.8s-.1 7.4 2.9 12c0 0 17.4 1.5 24.2-4.7 0 0 0-9.3-3.5-14.4z" fill="#848077" stroke="#4c4845" stroke-miterlimit="10"/><g id="g97"><path id="path57" d="M34.3 122.4s-4.4-3-9.5-1.7c0 0 5.3 2.5 6.5 8.8 0 0 5.2-2.4 3-7.1z" fill="#edd6b7" stroke="#4c4845" stroke-miterlimit="10"/><path id="path58" d="M59 151.3s2.4 18.4 12.5 29.4c0 0-14.4 35.4 38.4 38l5.5-63.6s-3.9-19.1-14.6-24c0 0 .9-.8 3.2-.5 0 0 1.3-.1-.3-2s-8.8-13.6-14.8-11.4c0 0-1-4.3-4.8-4.4s-4-3.7-8.6-.8c0 0-2-2.5-4.4-2.1s-15.4-1.3-18.4 2.7c0 0-19-1.2-23.1 16.8 0 0-5.2 4.2-4.6 7 0 0-1 2.7 1 4 0 0 4.4-5.2 6.5-3.3 0 0 .2 6.1 2 8.9s-1.2 19.5 3.3 21.5c0 0 1.2 3.4 4.9 4s6.9-1 7.8-3.4 0-6.9 0-6.9 1.7-.6 2 1.7 2.3 4.8 3.2 3.3-.5-15.7 3.4-14.9z" fill="#edd6b7" stroke="#4c4845" stroke-miterlimit="10"/><path id="path59" d="M45 141.3s-1.1-3.1-4.2-2.4-3 4.1-.4 7.1z" fill="#edd6b7" stroke="#4c4845" stroke-miterlimit="10"/><g id="g63"><path id="path60" d="M43.9 140.6s2.2.5.9 1.8-3.2 1.7-3.2 3.2-1.1 1.2-1.4 0-1.2-6.2 3.7-5" fill="#ffffff"/><path id="path61" d="M43.9 140.6s2.2.5.9 1.8-3.2 1.7-3.2 3.2-1.1 1.2-1.4 0-1.2-6.2 3.7-5" fill="#ffffff"/><path id="path62" d="M40.1 144.8a2 2 0 0 0 .6-3.7c-.8 1-.8 2.6-.6 3.7" fill="#4c4845"/><path id="path63" d="M43.9 140.6s2.2.5.9 1.8-3.2 1.7-3.2 3.2-1.1 1.2-1.4 0-1.2-6.2 3.7-5z" fill="none" stroke="#4c4845" stroke-miterlimit="10"/></g><path id="path64" d="M74.8 197s4.4-2.3 8.6-5.8 21.7-22.4 29.4-24.5l1.2 3s-30 30.6-39.2 30.6c0 0-1.6-1 0-3.3z" fill="#464d5b" stroke="#4c4845" stroke-miterlimit="10"/><path id="path65" d="M69.4 189.3s-2.4 1-2.2 4.3.3 7 4.3 7.7V198s-1.6-3.2-2.1-8.7z" fill="#464d5b" stroke="#4c4845" stroke-miterlimit="10"/><ellipse id="ellipse65" transform="rotate(16.9 73 199)" cx="73" cy="198.96" rx="2.937" ry="4.432" fill="#efae00" stroke="#4c4845" stroke-miterlimit="10"/><path id="path66" d="M42.6 162.3s-1.5 3.3 1.9 5.3" fill="none" stroke="#4c4845" stroke-miterlimit="10"/><path id="path67" d="M59 151.3s4.4-.5 5-5.6-1.3-5.3.2-6.9" fill="none" stroke="#4c4845" stroke-miterlimit="10"/><path id="path68" d="M40 132.9s-2.7 2.8-4.9 2.4c0 0-2.5-1-2.6 1.8" fill="none" stroke="#4c4845" stroke-miterlimit="10"/><path id="path69" d="M34.8 127.2s-1.2 4-3.6 4.3-3.9 2.4-4 4.1" fill="none" stroke="#4c4845" stroke-miterlimit="10"/><path id="path70" d="M39.7 125s-.5 5.9-3.5 6.4-5.2 1.9-5.2 2.9" fill="none" stroke="#4c4845" stroke-miterlimit="10"/><path id="path71" d="M63 122.5s2.2 1.3 2.8 4.7" fill="none" stroke="#4c4845" stroke-miterlimit="10"/><path id="path72" d="M69.7 124.8s3.5 3.9 3.6 8" fill="none" stroke="#4c4845" stroke-miterlimit="10"/><path id="path73" d="M75.5 128.9s1.3 2.6 1.4 6.4" fill="none" stroke="#4c4845" stroke-miterlimit="10"/><path id="path74" d="M79.9 130.1s2.6 3.2 2.2 7.8" fill="none" stroke="#4c4845" stroke-miterlimit="10"/><path id="path75" d="M84.7 135.3S87.4 140 87 146" fill="none" stroke="#4c4845" stroke-miterlimit="10"/><path id="path76" d="M92.4 143.5s2.7 2.4 2.7 7.4" fill="none" stroke="#4c4845" stroke-miterlimit="10"/><path id="path77" d="M43.7 115.5s4.1 0 4.5 2" fill="none" stroke="#4c4845" stroke-miterlimit="10"/><path id="path78" d="M51.9 114.4s4.6 1.2 5.8 4.3" fill="none" stroke="#4c4845" stroke-miterlimit="10"/><path id="path79" d="M61 111.5s3.3 1.6 3.2 4.3" fill="none" stroke="#4c4845" stroke-miterlimit="10"/><path id="path80" d="M64 111.5s3.3 1.6 3.2 4.3" fill="none" stroke="#4c4845" stroke-miterlimit="10"/><path id="path81" d="M67 111.5s3.3 1.6 3.2 4.3" fill="none" stroke="#4c4845" stroke-miterlimit="10"/><path id="path82" d="M70 111.5s3.3 1.6 3.2 4.3" fill="none" stroke="#4c4845" stroke-miterlimit="10"/><path id="path83" d="M79.6 113.4s-2.3.7-2.3 3.6" fill="none" stroke="#4c4845" stroke-miterlimit="10"/><path id="path84" d="M81.6 114.4s-2.3.7-2.3 3.6" fill="none" stroke="#4c4845" stroke-miterlimit="10"/><path id="path85" d="M83.6 115.4s-2.3.7-2.3 3.6" fill="none" stroke="#4c4845" stroke-miterlimit="10"/><path id="path86" d="M84.7 120.3s4.6-2.3 7.3-.6" fill="none" stroke="#4c4845" stroke-miterlimit="10"/><path id="path87" d="M88.3 123.6s5.8-3 8.8 0" fill="none" stroke="#4c4845" stroke-miterlimit="10"/><path id="path88" d="M91.2 126.4s.2 2 3.9 2.5 3.6-2.2 5.5 0" fill="none" stroke="#4c4845" stroke-miterlimit="10"/><path id="path89" d="M100.6 145s7.2-.7 8.8 5.9" fill="none" stroke="#4c4845" stroke-miterlimit="10"/><path id="path90" d="M98.1 139.8s8.2.5 10.7 6.2" fill="none" stroke="#4c4845" stroke-miterlimit="10"/><path id="path91" d="M91.2 135s1.7 1.7 5.4 1.6 8.5 1 10.3 4" fill="none" stroke="#4c4845" stroke-miterlimit="10"/><path id="path92" d="M52.9 130.6s-.9-6-6.6-6.6c0 0-3.3-2.8.4-3.9 0 0 2-1 3.6 0s4.9-1.2 7.1 2.2 7.5 9.3 5.7 14c0 0-1.1.8-2-.5s-3.3-12.7-8.8-13c0 0 2.6 3.9 2.4 7.8 0 0-.6 1.8-1.8 0z" fill="#464d5b" stroke="#4c4845" stroke-miterlimit="10"/><path id="path93" d="M40 128.3s-8.5-8-7-15.2c0 0 2.5 2.3 7 5s7.8 3.9 7 6.8-5.2 5.2-7 3.3z" fill="#edd6b7" stroke="#4c4845" stroke-miterlimit="10"/><path id="path94" d="m53.7 130.4-.8 2.6s-8-2.7-13.2 0c0 0 .9-1 .3-2.6 0 0 2-.3 1-1.6 0 0 3.7-2.2 12.7 1.6z" fill="#464d5b" stroke="#4c4845" stroke-miterlimit="10"/><path id="path95" d="M53 133.4s.6 12.8 0 21.2c0 0-6.2-4.5-18 0 0 0-1.2 1.2 0 2.5 0 0 13.3-5.8 17.7 1.2 0 0 1.5 2.4 3.5 1 0 0 .9-.1.5-2.7 0 0 .2-17-1.8-23.6z" fill="#464d5b" stroke="#4c4845" stroke-miterlimit="10"/><circle id="circle95" cx="53.477" cy="132.08" r="3.19" fill="#efae00" stroke="#4c4845" stroke-miterlimit="10"/><circle id="circle96" cx="54.477" cy="159.08" r="3.19" fill="#efae00" stroke="#4c4845" stroke-miterlimit="10"/><path id="path96" d="M41.8 125.9s2.6.5 2.7-2.3-6.9-2.3-8.7-6" fill="none" stroke="#4c4845" stroke-miterlimit="10"/><path id="path97" d="M71.5 180.8s1.7 1.9 4.2 2-1.9-7.4 5.7-9.5" fill="none" stroke="#4c4845" stroke-miterlimit="10"/></g><path id="path98" d="m166 149.5-9.5 5.5-24.3-5.5s-17.5-4.3-23.4 10.3c0 0-2.5 1.2-.9 3.5 0 0-2.3 1-1 3.4 0 0-3.3 4.6-.4 7.4 0 0-3.4 6.8-.3 9.4 0 0-1.8 3 .1 3.4 0 0-4 2.7-.1 4.3 0 0-3.5 2.4-1.7 7 0 0-3.6 2-.5 5 0 0-3.3 3.8 0 6.6 0 0-3.7 3.4.5 6.8 0 0-2.6 6 2 7.7 0 0 17.8 16.2 29.2 15.6s8.1 13 18.3 3.6 6.3-8.4 3.5-10.2c-2.8-1.9-16.3-8.6-12.3-14 4-5.3 10 13.7 20.8 11.7s5.3-7.3 6.8-10.4 3.7-7.2-1.5-6-17.4-3.4-16.5-8c1-4.7 9-10.7 6.8-25.4s.7-24.5 4.4-31.7z" fill="#64768c" stroke="#4c4845" stroke-miterlimit="10"/><path id="path99" d="M150.1 154.9s1.4 10.1-7 15.9c0 0 7.1-.8 14-11.8 0 0 2.6 1.8 0 3.8s-3.1 4.4-1.1 5.4 1.7 5-.1 5.3c0 0 4-.1 3-4.7s-1.4-5 .7-6.5c2.2-1.6-.4-4.1 1.3-7.4l-4 1.5z" fill="#464d5b"/><path id="path100" d="M115.8 153.3s6.6-4.7 19-1l-13.3 23.6s-9.3 10-9.8 2.6-1.4-21.4 4-25.2" fill="#464d5b"/><path id="path101" d="M153.8 210.1s-3.2 9.4 1.7 12.3 8.5-3.4 7.8-6.8c0 0-6.8.1-9.6-5.5" fill="#464d5b"/><path id="path102" d="M150.1 205.9s-1 7 0 11.5c0 0-3.9-3.4-6.6.7 0 0-1.9-11.5 2-20.2 0 0-.9 11.9 4.6 8" fill="#464d5b"/><path id="path103" d="M122.3 199.1s-3.5 4-2.2 11c0 0-3.6-.1-3.5-6.4 0 0-2.3 3.9 1.8 15.4s1.5 7.8-5.9 6.8c0 0 10.4 13.2 27.1 11.9 0 0 5.8 6.4 11 2.5s-1.2-9.4-4-10-7.7-3.7-5.6-12.2c2-8.5-1-22.5-2.7-25.9s1.8-6.9-.6-11-1-5.5 2.7-8.9c3.6-3.3 7.8-13.9 3.1-19l-20.2 30.2z" fill="#464d5b"/><g id="g111"><path id="path104" d="M130.6 178s29.8-25.2 27.1-41.9l-20.5 3.7s-16.3 22-21.8 43.7c0 0 11 7.6 15.2-5.5" fill="#ada99f"/><path id="path105" d="M116.6 184.2q1.5.8 3.8 1.3c7.5-24.5 21.3-42 25.8-47.3l-6 1a165 165 0 0 0-23.6 45" fill="#cecac2"/><path id="path106" d="m157.8 136.1-5.4 1c.5 21.9-25.7 36.5-26.1 41.1-.4 3.1-2.2 6-3.5 7.5 3-.3 6-2 7.8-7.7 0 0 29.8-25.3 27.2-41.9" fill="#96938c"/><path id="path107" d="m157.8 136.1-3.7.7c-1 22-25.5 36.7-26.1 41.2-.4 2.7-2.3 5.5-4 7.5 2.6-.7 5-2.7 6.6-7.5 0 0 29.8-25.3 27.2-41.9" fill="#848077"/><path id="path108" d="M130.6 178s29.8-25.2 27.1-41.9l-20.5 3.7s-16.3 22-21.8 43.7c0 0 11 7.6 15.2-5.5z" fill="none" stroke="#4c4845" stroke-miterlimit="10"/><path id="path109" d="M130.6 178s-5.3-5.4-12.2-4" fill="none" stroke="#4c4845" stroke-miterlimit="10"/><path id="path110" d="M133.5 175.4s-5.2-7.9-13.3-5.9" fill="none" stroke="#4c4845" stroke-miterlimit="10"/><path id="path111" d="M136.7 172.3s-5.3-10.2-14.4-7.4" fill="none" stroke="#4c4845" stroke-miterlimit="10"/></g><g id="g118"><path id="path112" d="M119 194.6s2.1 9.3 5.6 13.3 7.5 19.8 0 20.3c0 0-8.6 3.4-8.1 7.4 0 0-.5 6.3 9.4 4s18.2-2.5 15.2-8.5-5-17.2-3.3-20.7-1.3-15.7-5.4-19.5c0 0-8.2-6.2-13.4 3.7" fill="#ada99f"/><path id="path113" d="M133.3 227.4c.5-8.3-.3-12.4-1.2-15.5s-3.3-5.5-6.1-12.2c-1.6-4-2.4-7.7-3.2-9.5q-1 .6-2 1.7c1 4 3.5 12.4 6.3 14.9 3.6 3.1 8.2 21.5-1.2 23.3l-6.4 1c-1.7 1.2-3.2 2.8-3 4.5q-.1.2.5 2.2c5.6.2 16-4.3 16.3-10.4" fill="#cecac2"/><path id="path114" d="M137.8 210.4c1.6-3.5-1.3-15.6-5.4-19.5 0 0-2.6-2-5.7-1.9a43 43 0 0 1 6.4 18.3c-.3 7.4 2.4 15.7 3.5 17.2s3.4 8.3-1.8 9.2a26 26 0 0 0-11 6.3q1 0 2-.4c10-2.2 18.3-2.5 15.3-8.5s-5-17.2-3.3-20.7" fill="#96938c"/><path id="path115" d="M134.6 209.4c-1.3 9.7 8 23.5 3 24.6-3 .7-8 4.1-13 5.9l1.3-.3c9.8-2.2 18.2-2.5 15.2-8.5s-5-17.2-3.4-20.7-1.2-15.6-5.3-19.5c0 0-1.9-1.4-4.3-1.8 2.2 3.5 7.5 12.6 6.5 20.3" fill="#848077"/><path id="path116" d="M119 194.6s2.1 9.3 5.6 13.3 7.5 19.8 0 20.3c0 0-8.6 3.4-8.1 7.4 0 0-.5 6.3 9.4 4s18.2-2.5 15.2-8.5-5-17.2-3.3-20.7-1.3-15.7-5.4-19.5c0 0-8.2-6.2-13.4 3.7z" fill="none" stroke="#4c4845" stroke-miterlimit="10"/><path id="path117" d="M137.6 210.9s-3 1.6-5.4-4" fill="none" stroke="#4c4845" stroke-miterlimit="10"/><path id="path118" d="M136.6 237.3s-4.3-9.3-11.6-9" fill="none" stroke="#4c4845" stroke-miterlimit="10"/></g><path id="path119" d="M114.4 185.7s.5 7 5 10.7c0 0 8.5.3 11.4-7.4 0 0-.9-5-4.5-7 0 0-6.3-3.4-11.9 3.7z" fill="#efae00" stroke="#4c4845" stroke-miterlimit="10"/><path id="path120" d="M115.8 191.2s8.3.1 13.3-6.4" fill="none" stroke="#4c4845" stroke-miterlimit="10"/><path id="path121" d="M117.5 194.3s6.2 1 12.7-7.4" fill="none" stroke="#4c4845" stroke-miterlimit="10"/><path id="path122" d="M131.6 182.8a4.8 4.8 0 0 0-3.3-8.3 5 5 0 0 0-4.7 3.7 6.8 6.8 0 1 0 .4 10.3 4.8 4.8 0 1 0 7.6-5.7z" fill="#efae00" stroke="#4c4845" stroke-miterlimit="10"/><path id="path123" d="M121.8 180.6s-1.5-2.2-4.3-1-3.5 3.8-1 5.2" fill="#efae00" stroke="#4c4845" stroke-miterlimit="10"/><path id="path124" d="M129.5 176.6s-4.4-1-4.2 4" fill="#efae00" stroke="#4c4845" stroke-miterlimit="10"/><path id="path125" d="M125.3 186.5s.5 2.6 3.8 2.5" fill="#efae00" stroke="#4c4845" stroke-miterlimit="10"/><path id="path126" d="M118.6 236.8s1 3.9-1.4 4.4-7-.1-6.6-3.4 2.5-4.8 4.1-5.3 3.4 2.3 4 4.3z" fill="#efae00" stroke="#4c4845" stroke-miterlimit="10"/><path id="path127" d="M113.5 235.1s-2.1 2.8 0 3.7 3.7.3 4-1" fill="none" stroke="#4c4845" stroke-miterlimit="10"/><path id="path128" d="M128.6 234.3s3.3-2.7 5.5-1.5 4.4-1.8 4.7-3.3 3.4-4.8 5.6-4c0 0 1.5-2.9 2.5-1.8s2.2 1.7 1.2 4-3 2-3.7.5c0 0-1.5-2-2.7-.3-1.1 1.8-1.4 6.5-5.6 6.6s-6-.6-7 2.2c0 0-1.9 1.9-.5-2.4z" fill="#efae00" stroke="#4c4845" stroke-miterlimit="10"/><path id="path129" d="M124.6 239.9s3.5 1.6 6.9-1.4c0 0-1.7-2.1-1.8-4.8s-4.3-5.9-2.9-8.3-3.2-5.3-4.2-4.7-2.4 5.8 0 5.8 3.6 10.4 2 13.4z" fill="#efae00" stroke="#4c4845" stroke-miterlimit="10"/><path id="path130" d="M123.3 222.3s-1.6 2.6 0 2.8" fill="none" stroke="#4c4845" stroke-miterlimit="10"/><g id="g135"><path id="path131" d="M121.5 100.6s-10.6 10.8-4 21 21.3 11.6 29.5 3c8.3-8.6-7-29-25.5-24" fill="#ada99f"/><path id="path132" d="M119.8 102.7c-2.7 3.6-7.1 11.4-2.3 18.9q1.4 2.1 3.3 3.8c7.4-1 13-5.6 13-11.3 0-6-6.1-10.8-14-11.4" fill="#cecac2"/><path id="path133" d="M127.8 129.4c6.6 2 14.2.5 19.2-4.8 5.8-6 0-17.9-10.4-22.7-2.4 3.5-.8 10 .8 15.1 1.5 5.2-6.2 10.3-9.6 12.4" fill="#96938c"/><path id="path134" d="M138.7 103c-2.5 6.8 2.8 13 2.3 18.5-.3 4.2-4.2 7.3-6.2 8.7 4.5-.3 8.9-2.1 12.2-5.6 5.4-5.6.7-16.3-8.3-21.6" fill="#848077"/><path id="path135" d="M121.5 100.6s-10.6 10.8-4 21 21.3 11.6 29.5 3c8.3-8.6-7-29-25.5-24z" fill="none" stroke="#4c4845" stroke-miterlimit="10"/></g><path id="polygon135" fill="#efae00" stroke="#4c4845" stroke-miterlimit="10" d="m150.5 123.5-.8-4 5.3-5.4 5.5 9.4z"/><path id="path136" d="M156.9 131.8s-5 3-7.2 3L144 129l.8-2.6s3.1-1.9 3.7-3.7l7 2.7s2.6 3.3 1.4 6.3z" fill="#efae00" stroke="#4c4845" stroke-miterlimit="10"/><path id="path137" d="M153.4 120.8s-4.5 0-6.4 2.7c-1.8 2.8 4 3 5 5.8s4 5.3 7 3.4 4.2-5.1 3.6-8.4-6.3-3.5-9.2-3.5z" fill="#efae00" stroke="#4c4845" stroke-miterlimit="10"/><path id="path138" d="M154.7 123s-5.4 1-1.2 3.4 3.5 4.5 5.6 1.7" fill="none" stroke="#4c4845" stroke-miterlimit="10"/><path id="path139" d="M118.9 95.8s-5 2.2-6.8 8.2" fill="none" stroke="#4c4845" stroke-miterlimit="10"/><path id="path140" d="M121 97.2s-3.6 1.3-5 6.8" fill="none" stroke="#4c4845" stroke-miterlimit="10"/><g id="g147"><path id="path141" d="M119.6 106.8s8.2 4.4 16.6.7c8.3-3.7-3.2-3 .4-14l-4.3.2-9.1 3.5s.3 3.9-1.2 4.7-4.5 4-2.4 5" fill="#ada99f"/><path id="path142" d="M122.8 103.1c-2 1-2.4 2.8-2 4.3q1.7.7 4.7 1.3-.2-1.6 1.2-4.7c1.2-2.5 1-5.8.5-8.3l-2.4 1c.4 1.5.8 5-2 6.4" fill="#cecac2"/><path id="path143" d="m136.6 93.4-4.2.3c-.6 2.3-1.1 6.3 1 9.6a8 8 0 0 1 1.6 4.6q.6 0 1.2-.4c8.3-3.7-3.2-3 .4-14" fill="#96938c"/><path id="path144" d="m136.6 93.4-1.9.2c-.4 1.7-1 5.8.8 8.1a8 8 0 0 1 2 5.2c5.7-3-4.3-3.1-.9-13.5" fill="#848077"/><path id="path145" d="M119.6 106.8s8.2 4.4 16.6.7c8.3-3.7-3.2-3 .4-14l-4.3.2-9.1 3.5s.3 3.9-1.2 4.7-4.5 4-2.4 5z" fill="none" stroke="#4c4845" stroke-miterlimit="10"/><path id="path146" d="M123 100s6.6 2.8 13-1.2" fill="none" stroke="#4c4845" stroke-miterlimit="10"/><path id="path147" d="M121 102.7s8 4.7 16.2-.8" fill="none" stroke="#4c4845" stroke-miterlimit="10"/></g><path id="path148" d="M158.5 97.2s0 17-4.3 20-12 8-17.6 5.1-4.8-6-2-8.6 4.7-6.7 2-8.1 2.8-7.8 5.9-6.8c3 1 11.3 4.4 16-1.6z" fill="#64768c" stroke="#4c4845" stroke-miterlimit="10"/><path id="path149" d="M139 102.2s-2.2 1.1-.5 3 1.7 3.4.4 5c0 0 3.2-1 2.6-4.4s-1.5-5-2.6-3.6" fill="#464d5b"/><path id="path150" d="M146 120.8s-7.2 3-10.4-1.5c0 0 3.6-.4 4.8-4.3 0 0 .4-2 2.6-1 2.3 1.2-.6 5.3 3 6.8" fill="#464d5b"/><path id="path151" d="M149.5 110c.3 0 1.2-.1 1.3-.6v-.1c.2-.5-.4-1.1-.7-1.2l-3.2-1 .6-2q.1-.8-.8-1.1t-1.3.6l-.6 2-3.2-1c-.3-.1-1.1.1-1.3.6q0 1 .8 1.3l3.1 1-1 3.8-3.3-1c-.3 0-1.1.2-1.3.7-.1.6.5 1.2.8 1.3l3.2.9-1.2 3.9q-.1.8.8 1.2t1.3-.6l1.2-3.9 3.1 1c.4 0 1.2-.2 1.3-.7.2-.6-.4-1.2-.7-1.3l-3.2-.9 1.1-3.8z" fill="#efae00" stroke="#4c4845" stroke-miterlimit="10"/><g id="g156"><path id="path152" d="M91.4 82.8s3.3 3.2 9-1.2L103 74s-1.5-6.3-6.8-2.8z" fill="#ada99f"/><path id="path153" d="M92.6 83.6q1 .4 3 .3l4.6-13.4q-1-.4-2.6 0z" fill="#cecac2"/><path id="path154" d="M98.3 83q1-.5 2.1-1.4L103 74s-.3-1.3-1.1-2.4z" fill="#96938c"/><path id="path155" d="M100.4 81.6 103 74l-.5-1.3-3.2 9.6z" fill="#848077"/><path id="path156" d="M91.4 82.8s3.3 3.2 9-1.2L103 74s-1.5-6.3-6.8-2.8z" fill="none" stroke="#4c4845" stroke-miterlimit="10"/></g><path id="path157" d="M95.2 92.5s-4.3-4.9-.8-8.6" fill="none" stroke="#4c4845" stroke-miterlimit="10"/><path id="path158" d="M98.3 89.2s-4.5-.7-3.1-5.3" fill="none" stroke="#4c4845" stroke-miterlimit="10"/><g id="g163"><path id="path159" d="M99.3 60.8s-4 6 1.4 7.5 11.8-.1 11.7-5.7-2.5-4.7-4-4.4-4.6-3.3-9.1 2.6" fill="#ada99f"/><path id="path160" d="M108.4 58.3c-1.4.3-4.6-3.4-9 2.5.8 4 6.3 1.4 9 .7 2.4-.5 1.6-2.5 1-3.5z" fill="#cecac2"/><path id="path161" d="M112.4 62.6q0-1.5-.3-2.3c-.7 2.2-3.4 7.5-11.6 8h.2c5.4 1.5 11.8-.1 11.7-5.7" fill="#96938c"/><path id="path162" d="M105.7 68.8c3.5-.3 6.5-2.1 6.7-5.6a14 14 0 0 1-6.7 5.6" fill="#848077"/><path id="path163" d="M99.3 60.8s-4 6 1.4 7.5 11.8-.1 11.7-5.7-2.5-4.7-4-4.4-4.6-3.3-9.1 2.6z" fill="none" stroke="#4c4845" stroke-miterlimit="10"/></g><path id="path164" d="M110.7 63.1s-1-2.4-2.7.7c0 0-2.7.2-3.1 2.2" fill="none" stroke="#4c4845" stroke-miterlimit="10"/><circle id="circle164" cx="62.636" cy="171.33" r="3.365" fill="#efae00" stroke="#4c4845" stroke-miterlimit="10"/><path id="path165" d="m134.7 142-4.7 6s-53.3 28-66.5 26.5c0 0-1.8-.8 2.2-5.8s55.6-20.8 67.4-30.5z" fill="#464d5b" stroke="#4c4845" stroke-miterlimit="10"/><g id="g173"><path id="path166" d="M132.8 137.3s-14.7 23.4-12.6 27.4 28.2-11.6 27.1-31z" fill="#ada99f"/><path id="path167" d="M134.9 136.7a140 140 0 0 0-13.5 25.2c-1.1 5.8 19.1-13.7 19.6-26.7z" fill="#cecac2"/><path id="path168" d="M144.1 134.5c-.4 10.1-11.7 24.6-18.2 28.4-3.3 2-5 2-5.8 1.4l.1.4c2.1 4 28.2-11.6 27.1-31z" fill="#96938c"/><path id="path169" d="M145.7 134c-.4 12.3-11.7 23.8-18 29.3 8.2-4.7 20.4-16.3 19.6-29.6z" fill="#848077"/><path id="path170" d="M132.8 137.3s-14.7 23.4-12.6 27.4 28.2-11.6 27.1-31z" fill="none" stroke="#4c4845" stroke-miterlimit="10"/><path id="path171" d="M121.5 158.3s7.6 1.9 18.1-5" fill="none" stroke="#4c4845" stroke-miterlimit="10"/><path id="path172" d="M125 151s11.2 3 20-6.2" fill="none" stroke="#4c4845" stroke-miterlimit="10"/><path id="path173" d="M128.3 144.8s11.6 2.9 18.7-6.2" fill="none" stroke="#4c4845" stroke-miterlimit="10"/></g><g id="g178"><path id="path174" d="M131.2 133.3s-3.9 0-6.2 5.3.2 7.4 4.5 5.4 1.7-5.4 5-5.8c0 0 0-4.8-3.3-4.9" fill="#ada99f"/><path id="path175" d="M130.6 138.2q2.5-2.1 3-3.3-.5-1-1.5-1.4c-1.2.5-4.7 2-5.5 4.3-1 2.8.7 3.4 4 .4" fill="#cecac2"/><path id="path176" d="M134.4 138.2V137c-2.6.9-4.7 6.6-7.3 6.5-2.1 0-2.6-1.9-2.8-3-1 4 1.4 5.3 5.2 3.6 4.4-2 1.7-5.4 5-5.8" fill="#96938c"/><path id="path177" d="M131.7 141c-1.3 1.6-2.5 3.2-5.3 2.8a2.5 2.5 0 0 1-2.3-2c-.1 2.8 2.1 3.7 5.4 2.2 4.4-2 1.7-5.4 5-5.8v-.4c-1.9.7-1.7 1.8-2.8 3.2" fill="#848077"/><path id="path178" d="M131.2 133.3s-3.9 0-6.2 5.3.2 7.4 4.5 5.4 1.7-5.4 5-5.8c0 0 0-4.8-3.3-4.9z" fill="none" stroke="#4c4845" stroke-miterlimit="10"/></g><g id="g183"><path id="path179" d="m144.8 126.4-11.3 5.6 4.2 5.8 13.2-3.3s-.7-7.9-6.1-8" fill="#ada99f"/><path id="path180" d="m146.3 126.8-12.5 5.7 1.5 2 13.9-5.3q-1-1.7-2.9-2.4" fill="#cecac2"/><path id="path181" d="m137.7 137.8 13.2-3.3-.2-1.4-13.7 3.7z" fill="#96938c"/><path id="path182" d="m137.7 137.8 13.2-3.3v-.7l-13.5 3.6z" fill="#848077"/><path id="path183" d="m144.8 126.4-11.3 5.6 4.2 5.8 13.2-3.3s-.7-7.9-6.1-8z" fill="none" stroke="#4c4845" stroke-miterlimit="10"/></g><path id="path184" d="M138.3 137.7s-2.3 1.5-3.9.5c0 0 0-4.6-3.2-4.9 0 0-.7-2.2 2.5-1.4s4.4 3.5 4.6 5.8z" fill="#efae00" stroke="#4c4845" stroke-miterlimit="10"/><path id="path185" d="M34 137.1s.3 4.7 1.4 6.9.6 8 2.1 8 3.3-1.1 1.9-3.3-3.5-6.9-1.4-9.9 6-1.9 3.8-3.2-3.8.3-4.4 1.5-3.5-1.8-3.3 0" fill="#f4e5d4"/><path id="path186" d="M38.5 166.3s-1.4-1.4-2-6 3.5-2.7 3.6-1.6 0 7.7 1.7 8.9-2.5 1.1-3.3-1.4" fill="#f4e5d4"/><path id="path187" d="M67 143s0 6.2-1.9 7.4 0 11.8 2.2 13.5 8.2-5.8 12-6-8.8-5.7-8.8-11.5-3.9-5.9-3.6-3.5" fill="#f4e5d4"/><path id="path188" d="M73.6 184s-1.4 3.7-.6 7.2 7.2 1.1 10.5-3.6-4.7-1.7-10-3.5" fill="#f4e5d4"/><path id="path189" d="M155.5 158.5s5.6-6.2 4.4-11.3-7-1.6-8.5 1.3-1 12-2.4 14.8z" fill="#64768c"/><path id="path190" d="m152.4 161.3 2.7-1.5s6-7.5 4.8-12.6l-.3-.9q-1-.4-2.4.9c-2 2-3 9.2-4.8 14.1" fill="#464d5b"/><path id="path191" d="M158.1 154.8c1.3-2.2 2.4-5 1.8-7.6-1.3-5-7-1.6-8.5 1.3s-1 12-2.4 14.8" fill="none" stroke="#4c4845" stroke-miterlimit="10"/><path id="path192" d="M91.2 222.3s-22.3-11.8-28.6-9-7.4 8.1-11.3 10.4-2.1 4.4 1.9 4.5 6.1 5.2 4.5 8.7L48.3 248s-8.2-13.8-5-16.8-3.5-9.1 1.2-13 10.4-9.2 12.3-12.5 4.8-9.4 10.1-4.4 11 2.9 14.5 5.6c0 0 2.5 1.4 2.9-1s4.3-13.2 10.8-6.5 7.4 18.2-4 23" fill="#edd6b7"/><path id="path193" d="M99.7 212.2c-.5 4-3 7.9-8.5 10.1 0 0-22.3-11.8-28.6-9s-7.4 8.1-11.3 10.4-2.1 4.4 1.9 4.5 6.1 5.2 4.5 8.7l-9.4 11s-8.2-13.7-5-16.7-3.5-9.1 1.2-13 10.4-9.2 12.3-12.5 4.8-9.4 10.1-4.4 11 2.9 14.5 5.6c0 0 2.5 1.4 2.9-1s4.3-13.2 10.8-6.5" fill="none" stroke="#4c4845" stroke-miterlimit="10"/><path id="path194" d="M55.4 228.9s-5 9.2-11.1 11" fill="none" stroke="#4c4845" stroke-miterlimit="10"/><path id="path195" d="M86 208s3.4-.7 5.2 2.1" fill="none" stroke="#4c4845" stroke-miterlimit="10"/><path id="path196" d="M86 205.9s.8-2.2 4.3-1.2" fill="none" stroke="#4c4845" stroke-miterlimit="10"/><path id="path197" d="M95 212s2.2 5-1.2 6.1" fill="none" stroke="#4c4845" stroke-miterlimit="10"/><path id="path198" d="M87.1 216.6s-7.4-.8-5-4.6" fill="none" stroke="#4c4845" stroke-miterlimit="10"/><path id="path199" d="M71.5 208s-7.5 1.2-7.2-5" fill="none" stroke="#4c4845" stroke-miterlimit="10"/><path id="path200" d="M67.5 209s-7.5 1.2-7.2-5" fill="none" stroke="#4c4845" stroke-miterlimit="10"/><path id="path201" d="M57.7 211.1s0 1.7-4.2 4-4.8 6.3-4.8 7.5" fill="none" stroke="#4c4845" stroke-miterlimit="10"/><path id="path202" d="M98.1 199s2.5 4 1 9" fill="none" stroke="#4c4845" stroke-miterlimit="10"/><path id="path203" d="M79.9 206s-1.2-3.5 1-5.7" fill="none" stroke="#4c4845" stroke-miterlimit="10"/><path id="path204" d="M53.2 185.5s.3 3.7 6.8 3.8" fill="#edd6b7" stroke="#4c4845" stroke-miterlimit="10"/><path id="path205" d="M60 191.2s3.4 3.2 5.1 6.7" fill="#edd6b7" stroke="#4c4845" stroke-miterlimit="10"/><path id="path206" d="M48.7 211.1s-2.7-.3-2.6-4.2" fill="#edd6b7" stroke="#4c4845" stroke-miterlimit="10"/><path id="path207" d="M43.4 209s-1.3-3.7 1.1-6.4 4.5-6.6 4.2-3.5-2.4 3.8-5.3 10" fill="#f4e5d4"/><path id="path208" d="M44.5 220s-.3 4.5 1.1 7.4c0 0 2-1.9 1.8-3.7s-1.3-6.2-2.9-3.7" fill="#f4e5d4"/><path id="path209" d="M200.9 208.9s.4 4.9 12.1 4.5c11.8-.4-3.4-4.8-4.9-4.5s-7.6-2.6-7.2 0" fill="#f4e5d4"/><path id="path210" d="m128.4 85.8-7.8-4s7.4-9.3 15-9.5 5.7 3 10.3 10.1-4.6 11.9-9.9 13.4-15.2 2.7-17.8.8.5-3.5 7.9-2.1z" fill="#ada99f"/><path id="path211" d="M124.1 95.7c5 .7 3.6-7.2 6.6-14.4 1.8-4 .6-6.2-.8-7.3a34 34 0 0 0-9.3 7.8l7.8 4-2.3 8.7c-6.6-1.3-9.8 0-8.6 1.5 1.1-1 3.3-.8 6.6-.3" fill="#cecac2"/><path id="path212" d="M146 82.4c-4.4-6.6-3-9.8-9-10-.6 1.5-1.8 5.7-.2 8.5 1.9 3.4 1.3 8.7-2 10.8s-1.5 3-6.5 4.3c-3.3.8-6.8.6-9 1.1 3.7 1.1 12 0 16.7-1.3 5.3-1.5 14.5-6.3 10-13.4" fill="#96938c"/><path id="path213" d="M142.8 76.5c-.1 2-.5 4.8-1.2 6.4-1.3 2.7 1.9 7.7-.9 8.8s-3.6 2.5-7.5 3.6c-2 .6-4.7 1.3-7 2.2a52 52 0 0 0 9.8-1.7c5.3-1.5 14.5-6.3 10-13.4q-2.3-3.6-3.2-6" fill="#848077"/><path id="path214" d="m128.4 85.8-7.8-4s7.4-9.3 15-9.5 5.7 3 10.3 10.1-4.6 11.9-9.9 13.4-15.2 2.7-17.8.8.5-3.5 7.9-2.1z" fill="none" stroke="#4c4845" stroke-miterlimit="10"/><path id="path215" d="M135.6 88.6s-.8 2.6-3 .7-1.8-9.7-6.5-11-12.3-12.4.8-6.6 6.6 11.2 9.7 13c0 0 5 2.3-1 3.9z" fill="#efae00" stroke="#4c4845" stroke-miterlimit="10"/><path id="path216" d="M120 70.4s12.3 4.8 13.2 14.2" fill="none" stroke="#4c4845" stroke-miterlimit="10"/><path id="path217" d="M158.5 76s-3-1.6-5 0" fill="none" stroke="#4c4845" stroke-miterlimit="10"/><path id="path218" d="M158.5 79.2s-2.7-.8-4.2.8" fill="none" stroke="#4c4845" stroke-miterlimit="10"/><path id="path219" d="M155 73s3.7 5.1 0 10" fill="none" stroke="#4c4845" stroke-miterlimit="10"/><path id="path220" d="M147.2 75.2s3-2.9 3 .7" fill="none" stroke="#4c4845" stroke-miterlimit="10"/><path id="path221" d="M150.9 76.5s3.8-2.1 3.1 1" fill="none" stroke="#4c4845" stroke-miterlimit="10"/><path id="path222" d="M147.8 77.2s3.7-3.9 3.6 1.2" fill="none" stroke="#4c4845" stroke-miterlimit="10"/><path id="path223" d="M149.7 79s3.7-2.3 2 2.4" fill="none" stroke="#4c4845" stroke-miterlimit="10"/><path id="path224" d="M145.1 76.9s3.3-1.6 2.6 2.6" fill="none" stroke="#4c4845" stroke-miterlimit="10"/></g><!-- app4joy --></svg>