<svg width="1200" height="800" id="svg254" viewBox="0 0 1200 800" xmlns:xlink="http://www.w3.org/1999/xlink" xmlns="http://www.w3.org/2000/svg"><defs id="defs1"><path id="a" fill-rule="evenodd" d="m2680.8 788.6 2 2.5 3.9 2.2 3.3.1 3.6-.4 3.7-3 1.6-2.4 1-4v-4l-1.5-2.3-2.4-2.7-3-1.2s1.6 2.7 2 4a9 9 0 0 1-1.5 7.7c-.9 1.1-2.5 2.4-3.7 3a12 12 0 0 1-4.7.9c-1.3 0-4.3-.4-4.3-.4"/><path id="b" fill-rule="evenodd" stroke-width="4.7250514" d="M2690.3 778c0 2-1.6 3.4-3.5 3.4s-3.4-1.5-3.4-3.4c0-1 .7-1 1.4-1.6.6-.5 1.7-1.6 2.6-1.6q3 .2 2.9 3.2" overflow="visible" style="marker:none"/><path id="c" fill-rule="evenodd" d="M3083.9 99c-16.8 7.1-43 6.4-58.8 15.5-5.4 3.2-10.4 10.5-14.8 15-3 2.8-6 7.8-9.7 9.6-3.8 1.8-10.6 3.9-14.1 1.5-4.8-3.3-5.2-18.6-5.2-18.6s-5.7 8.5-6.7 12.6c-1.5 5.9 1.8 14.4 0 20-1.2 3.7-2.4 9.3-5.2 12-2.1 2-6 4.3-9 3.7-1.8-.4-5.1-9.7-5.1-9.7s-3.5 10.6-2.3 17.9 7.2 15.5 8.2 17c2.2 3.4 3.6 8.8 3.7 12.7.1 3-1.1 7-2.2 9.7-2.3 6-8.2 17-8.2 17l-14.1-30.4-7.5-40.1 13.4-40.2 30.5-26 39.4-10.4 41-5.2 45 16.5s-12-2.9-18.3-.2"/><path id="d" d="M2945.3 215.7s7.7-9.6 8.3-14.6c1-8-7.3-18-7.2-26.1 0-8.5-.4-26 8-27 4.7-.4 2.9 13.9 7.6 13.9 4.5 0 6.1-8.7 7.3-13 1.4-5.8-2-14.2 0-19.7 2.2-6.3 9.8-16.8 16.3-15.3 5.9 1.4-.2 15.7 4.4 19.6 2.6 2.3 5.8-.1 9-1.4 8-3 14.7-17.3 22.8-26.8 9.1-10.6 19.4-16.4 19.4-16.4l-39.6.3-48.3 32-20.7 44z"/><path id="e" d="m2941.5 179.1-2 .7 3 7.7c1.7 4.2 3.7 9 5.5 11.7 2 3 5 6.5 7.9 8.7q1 .6 2.2 1l1.3.6-2.3-3.3a34 34 0 0 1-7.4-8 80 80 0 0 1-5.4-11.5zm27.2-69.6-3.4 7.8a96 96 0 0 0-4.6 12.8 56 56 0 0 0-.4 20.3l1.6 6-.4-14.2c0-3.5.3-8.3 1-11.7.8-3 2.8-8.1 4.6-12.4l3.4-7.8zm46.4-18.4s-8.8 9-12.1 13.5a36 36 0 0 0-6.3 11.1s-1.4 4.4-1.6 6.3c-.3 2.2-.2 7.4-.2 7.4s2.2-9.4 3.6-12.9c1.4-3.4 4-7.7 6-10.7 3.1-4.2 12-13.3 12-13.3z"/><path id="f" fill-rule="evenodd" d="M3035 79.9c-5.5 0-10.7.4-18.6 1.2a140 140 0 0 0-51.2 20 84 84 0 0 0-32.8 38.7c-9 22.9-4.3 49 2 69.6A117 117 0 0 0 2952 244l12.3-6.9s-10.3-12.7-16.3-31.8c-5.9-19-9.4-42.5-2.4-60.2a71 71 0 0 1 27.4-32 127 127 0 0 1 45-17.9c15.4-1.5 18.8-1.5 36-.4 13.9.8 31 6.1 47.7 12s33 12.5 47 15.3a437 437 0 0 0 78 7.6l17.4-1c14.3-1.1 33-3 50.7-6.6 14-2.8 30.4-9.3 47.1-15.2s33.8-11.3 47.7-12.1c17.2-1 20.6-1.1 36 .4a127 127 0 0 1 45 17.8c13.8 9 23 21 27.4 32 7 17.8 3.5 41.3-2.4 60.3S3478 238 3478 238l12 6s12.5-14 19-34.5c6.3-20.5 11-46.7 2-69.6a84 84 0 0 0-32.8-38.7 140 140 0 0 0-51.2-20 188 188 0 0 0-38.4-.5c-16.6 1-34.5 6.8-51.5 12.9-17 6-33.3 12.3-45.1 14.7a426 426 0 0 1-77 7.3 515 515 0 0 1-63.6-7.3c-11.8-2.4-28-8.7-45.1-14.7-17-6-34.9-11.9-51.5-12.9a273 273 0 0 0-19.8-.7"/><path id="g" fill-rule="evenodd" d="M3411.5 530.8a61 61 0 0 0-32.9 17 63 63 0 0 0-14.8 33c-2 14.3 3 31.7 7.5 43.5 3.6 9.5 12.6 20.8 20.8 30.9s15.8 18 15.8 18l9.6-8.7s-7.3-8-15.3-17.6-16.7-21.8-18.8-27.2c-4-10.5-8-27.7-6.7-37.1a52 52 0 0 1 11.6-26c5.1-5.7 17-11.4 25.6-13 10.4-2 27.5.8 39.9 3.5 11.5 2.4 25.9 6.2 38.3 8.3 5.3.9 41.5 6 75.1 6 34.4 0 33-13 0-13a566 566 0 0 1-73-5.8c-11.4-2-25.7-5.7-37.7-8.3a299 299 0 0 0-45-3.5"/><path id="h" fill-rule="evenodd" d="M3565 555.1h-8.3s-24.5-1.5-35.4-2.6a541 541 0 0 1-40.7-6.2c-12.4-2.3-29.7-6.4-42.2-7.9-6-.7-14-.8-19.8-.5-5.4.3-12.8.6-17.8 2.6-7 3-15.6 9.1-20.3 15.1-4.6 6-8 15.7-9.4 23-1.1 6-.3 14.3.5 20.3a157 157 0 0 0 19.3 53.7l-17.7-24-7.8-21.3-2.1-18.3 1-14.6 7.8-18.8 9.4-11.4 19.8-11 15.7-2.6 39.6 3.1 29.2 7.3 34.4 4.7 30.8 2.1h14m-.5 7.3h8.3l5.7-7.3h-14"/><path id="i" d="M3218.7 103.5s-9.6 2.2-21.8 9.2c-3.4 2-8.8 9.2-12.1 11-6 3.2-8.5 4.6-15.2 6.7a37 37 0 0 1-16.5 2c-4.3-.7-9.7-2-10.9-4.8-1.1-2.8 2.8-7.6 2.8-7.6s-13.4 5.8-19.3 8c-6.9 2.7-15.8 7-23.1 8a46 46 0 0 1-18.4-.9c-2.9-.9-6.6-2-9.8-3.8s-6-4.2-5.8-7.5c.2-3.1 1.7-4.4 1.7-4.4s-6.4 1.2-11.6.6c-7.9-.7-25.5-6.6-25.5-6.6l5.7-17 15-13.2 23.7-6 32.5 5.1 33 8.5 51 2.8z"/><path id="j" d="M3048.6 105.9a41 41 0 0 0 11 6.9c6.5 2.2 14.7-1.7 19.1 3.5 1.2 1.4.6 2.8-.3 4.5-1 1.6-2.4 2.2-2.1 4.1.7 4.8 13.5 5.6 18.4 5.9 5 .4 9.2-2.6 14.2-3.8 13.6-3.2 31.2-16.5 43.6-10 1.7.8-5 4.8-4.5 7.6.5 2.3 5 3 7.3 3 16.2.1 49.9-21 49.9-21l-118.9-27.8-30 3.8-11.9 18.8s2.8 3.3 4.2 4.5"/><path id="k" d="m3140.4 99.5-.2.1s-25.8 13.4-37 18c-4.3 1.8-20.7 7.1-20.7 7.1s4.5.1 10.4-1.2c3.8-1 9.2-3.2 11-4a722 722 0 0 0 37-18l38.6 3.7-.2.1-15.4 12.5-9.6 6.7s8.2-3.3 10.8-5c2.8-2 7.2-5.6 10.8-8.7l4.8-4 1.9-1.6-.6-1.8-41.3-3.9z"/><path id="l" d="M3201.2 97.4s-9.4 7.3-14.2 9c-15.8 5.6-38.8 5.6-55.6 6.6a29 29 0 0 1-14.2-2c-2-1-6.2-1.9-6.1-4.2.1-2.9 6.6-7 6.6-7s-6.7 0-9.5.4c-6.4 1.2-14.3 5.2-20.7 6.6-5.2 1.2-12.3 3.4-17.5 2.4-4.6-.9-9.9-4.8-13.7-7.6-2.5-1.8-7.5-4-7.5-7 0-7 17.5-15.6 17.5-15.6l32.5 2.8 43.9 9 54.2 2.3z"/><path id="m" d="M3054.2 90.6s10 10 15.6 11.5c4.8 1.2 11.6-1 16.4-2 7.7-1.4 12.4-4.5 20.2-4.9 6.6-.3 19.8-2.3 21 4.2.8 4.5-8 .4-7.6 5 .2 3.1 6.7 3 9.9 3.4 16.7 1.8 55.6-6.5 55.6-6.5l-69.7-18.7-38.1-4.5-24.4 6.4z"/><path id="n" d="M3073.3 78s-15.8 13.5-18.7 20.3c-1 2.4-2.5 5.4-2.2 9.4.2 2.8 1.5 17-.6 24.8-2.5 9.2-8.4 12.1-9.6 13.4-2.3 2.6-8.5 8-8.5 8l-2.4-45.2 15.1-19.8z"/><path id="o" d="M3033 140.1s7.6-3.1 9.7-6.3c3-4.5 4.3-15 4.7-20.3.4-5.5-.4-18.3-.4-18.3l14-11.4 1.2.7h-11.8l-22.1 27.5z"/><path id="p" d="M3031.9 115.3s2.1 18.3 7.3 26a47 47 0 0 0 7.3 8.6c3.5 2.7 6.3 4.2 8.6 6.7 2.4 2.5 6.8 7.2 8.5 10.3.6 1.1 4 11.8 4 18-.3 9.3-4.3 15-4.3 15L3038 169l-7.5-19.8-2.4-24.5z"/><path id="q" d="M3057.3 190.5s2.6-8 2.2-11.4a32 32 0 0 0-5.3-13.8c-4.8-7.1-21-19.8-21-19.8l-6.4 3.4z"/><path id="r" d="m3040.7 99.7-1 .9s-1.1 0-1.3 1.8l-.3 6.8c-.2 5.2-.5 11.8.7 15.1 1.2 4.3 1.2 3.8 2.1 5.5 1 1.9 4 5.8 4 5.8s-3.2-8.4-4.3-12.4c-.7-2.8-.7-8.8-.5-14q0-4 .3-6.7zm-6.5 54.9s0 2.5 1.3 3.8l5 5.1c3.8 4 8.4 8.4 11.6 10.8a51 51 0 0 0 10.5 5.5s-2.6-2.8-4.8-3.9c-2.3-1-3.2-2.3-4.5-3.2-3-2.2-7.6-6.7-11.5-10.6l-6.8-7.2zm76-71.3-10 1.1c-5.5.7-11.8 1.6-15.7 2.8-2.6.8-6.3 1.9-8.6 4-1.1 1.2-2 3.1-2.8 4.8-.2.5-1.7 4.1-1.3 4.3.5.2 3-3 3.2-3.5a18 18 0 0 1 2.3-4.1c1.6-1.6 5.2-2.8 7.8-3.6a169 169 0 0 1 25.2-3.7l52.6 7.7-6.6 1c-7.1 1.3-15.4 3-20.3 5q-2.7 1.4-5.6 3.7c-1.9 1.3-2.5 2-3.3 2.7-1 .7-2.8 2.9-2.8 2.9s5.5-2.7 7.3-4 4-2.8 5.2-3.4c4.5-1.9 12.8-3.7 19.9-5s13-2 13-2v-2l-59.2-8.6h-.2"/><path id="s" fill-rule="evenodd" d="M3411.5 530.8a61 61 0 0 0-32.9 17 63 63 0 0 0-14.8 33c-2 14.3 3 31.7 7.5 43.5 3.6 9.5 12.6 20.8 20.8 30.9s15.8 18 15.8 18l9.6-8.7s-7.3-8-15.3-17.6-16.7-21.8-18.8-27.2c-4-10.5-8-27.7-6.7-37.1a52 52 0 0 1 11.6-26c5.1-5.7 17-11.4 25.6-13 10.4-2 27.5.8 39.9 3.5 11.5 2.4 25.9 6.2 38.3 8.3 5.3.9 41.5 6 75.1 6 34.4 0 64.9-5.3 69.2-6 12.3-2.1 26.6-5.9 38.2-8.3 12.4-2.7 29.5-5.5 39.9-3.5a54 54 0 0 1 25.6 13 52 52 0 0 1 11.6 26 95 95 0 0 1-6.7 37.1c-2 5.4-10.8 17.5-18.8 27.2-4 4.8-7.8 9.3-10.6 12.4l-4.7 5.2 3.7-2s7.8 8.7 10.7 5.5l11-12.8a131 131 0 0 0 20.8-30.9 96 96 0 0 0 7.5-43.5 63 63 0 0 0-14.8-33 61 61 0 0 0-32.9-17c-14.7-2.9-32.3.9-45 3.5-12 2.6-26.3 6.3-37.7 8.3-4.6.7-34 5.8-67 5.8a566 566 0 0 1-73-5.8c-11.4-2-25.7-5.7-37.7-8.3a299 299 0 0 0-45-3.5"/><path id="t" stroke-width="3.83942008" d="m83.5 343.9 3.4-11.7 17.5 2.8-10.8 15.5zm0 0 20.9-9"/><path id="u" d="M275 191c-4.8 5-8.8 11.3-9.3 19-2.8-2.5-5.9-2.7-9.7-2.2 0 0 2.7 6.8 3.1 10.8.5 3.9 1.6 8.8 4 11.3l5.7 6 6.2-1 6.2 1 5.6-6c2.5-2.5 3.6-7.4 4-11.3.5-4 3.2-10.8 3.2-10.8-3.8-.5-7-.3-9.7 2.3-.5-7.8-4.5-14-9.3-19"/><path id="v" d="M275 233v-34.8"/><path id="w" d="M271 234.4c-6.3-10.2-4.4-14.3-9.7-21.9"/><path id="x" d="M279 234.4c6.3-10.2 4.4-14.3 9.7-21.9"/><path id="y" d="M102.3 252a31 31 0 0 0 19.7 7.4c-1.8 3-1.4 6.1-.2 9.8 0 0 5.8-3.3 9.5-4.1 3.5-.8 7.8-2.4 9.6-5.1l4.4-6.2-2.2-6-.4-6.4-6.7-5c-2.8-2.2-7.6-2.8-11.3-2.8s-10.7-2.1-10.7-2.1c.3 3.8 1.2 6.9 4.2 9.4a25 25 0 0 0-15.9 11"/><path id="z" d="M141.4 248.1c-15.1-.2-19.4 1.8-32.6 3.2"/><path id="A" d="M140.9 243.3c-9.6-6-16.3-3.5-22.4-7.7"/><path id="B" d="M142.7 253.3c-6.6 6.3-11.6 4-17.2 9.5"/><path id="C" d="M137.5 196.8c-2 6.7-5 12.7-2 20.3-3.2-2.3-7-3.1-10.5-2.3 0 0 4 6.6 5.2 10.5 1.2 3.8 3.2 8.6 6 10.8l6.5 5.4 5.6-1.6 6 .4 4-6.5c1.8-2.7 1.8-7.7 1.4-11.5-.4-4 .7-11.1.7-11.1-3.6-.1-6.5.4-8.5 3.2a29 29 0 0 0-14.4-17.6"/><path id="D" d="M152 238c3.1-7.3.4-14.2 4.3-22.3"/><path id="E" d="M144 239.4c-7.7-7.8-7.2-15-13-20.7"/><path id="F" d="M148 238c-5-13-3.8-23-8.3-34.5"/><path id="G" d="M197.3 242.1a25 25 0 0 1-15.9 11c3 2.6 3.9 5.7 4.2 9.5 0 0-7-2-10.7-2-3.7-.1-8.5-.8-11.3-3l-6.7-5-.4-6.2-2.2-6.2 4.4-6.1c1.8-2.7 6-4.3 9.6-5 3.6-.9 9.4-4.2 9.4-4.2 1.3 3.7 1.7 6.8-.1 9.8 7.3-.3 14 3.1 19.7 7.4"/><path id="H" d="M155.6 242c6.5-7.2 12.1-5.2 18.6-11.1"/><path id="I" d="M157.2 250.4c9.3 3.7 12.4 1.5 22.3 7.3"/><path id="J" d="M158.3 246.4c14.1-3.9 20-1.2 32.8-3.6"/><path id="K" d="M159.6 246.9a10.1 10.1 0 1 1-20.2.3 10.1 10.1 0 0 1 20.2-.3" color="#000" overflow="visible" style="marker:none"/><path id="L" d="M48.8 265.8s-5.1-11.2-14-17.9a52 52 0 0 0-23.4-6.8c5.8-7.7 12-10.3 18.6-10 5.3.3 9.2 2 13.3 6 1-2.7 1.5-3.6 4.1-6.1 2.3 7 12 11.5 8.9 24.4-1 3.7-2.6 9.6-4.4 13z"/><path id="M" d="M49 264.6c-.5-5.2 1.2-9.8 1-14-.7-7.6-3.1-10-2.8-14"/><path id="N" d="M84.5 255.9c-1.5 5.8-4 11-8.6 13.5 2.4 1.9 3.5 4.8 4.4 8.4 0 0-10.5-.8-15 .2a12 12 0 0 1-10.2-2l-5-9.6c3.9-6.8 4.6-10.5 7.5-14.2 2.8-3.7 7.5-7 10.8-9.8 1.5 3.4 2.4 6.4 1.7 9.6 4.8-1.5 9.9.7 14.4 3.9"/><path id="O" d="M52.8 270.8c8.2-6.6 15.7-7.8 25.5-13.4"/><path id="P" d="M51.4 267.1c3.5-6 11-9.3 14.9-18.7"/><path id="Q" d="M54 274.2c7 1 11.2-3.1 19.7 0"/><path id="R" d="M55 275.8q-2 1.2-4.7 1.2a9.7 9.7 0 0 1-5.2-17.8c6.3 4.1 8.6 10.3 10 16.6" color="#000" overflow="visible" style="marker:none"/></defs><g id="g256"><path fill="#0d5eaf" d="M0 0h1200v800H0z" id="path1"/><path fill="#fff" d="M0 320h1200v160H0z" id="path2"/><path fill="#fff" d="M520 0h160v800H520z" id="path3"/></g><g id="g257"><g id="g255"><g fill="#fc0" stroke="#d4aa00" stroke-width="3.93418503" transform="matrix(.40364 0 0 .36015 188.6 201.3)" id="g186"><path fill-rule="evenodd" d="M790.7 624.6s88.8-20.3 128.4-25c36.7-4.3 78.8-9 115.9-8.8 37.3 0 86.2 7.6 123 13.3 31 4.9 98.1 22.3 98.1 22.3l-41.9 50.8-404.8 2.7z" id="path4"/><g transform="translate(42.8 -66.8)" id="g185"><g stroke-width="7.75625181" transform="translate(487.5 222)scale(.50723)" id="g37"><g transform="translate(-.9 -7.7)" id="g8"><g fill-rule="evenodd" stroke-width="6.26741314" transform="translate(-2127 363.1)scale(1.23755)" id="g6"><path d="m2499.9-24.9.1-40.1h-15v5l-5 5-5-5v-5l-4.8.2-5.2-5.2 5.1-5.1 4.9.1v-5l5-5 5 5v5h15l-.1-14.9h-5l-5-5 5-5h5v-5l5-5 5 5v5h5l5 5-5 5h-5l.1 14.9h15v-5l5-5 5 5v5h5l5 5-5 5h-5v5l-5 5-5-5v-5h-15v40.1z" id="path5"/><path d="M2504.9-112.1c-2.2 0-3.6 1.3-4.7 2.5q-1.7 2-2.4 3.8a7 7 0 0 0-.4 3.4q-1.5-.1-3.4.5a14 14 0 0 0-3.8 2.3c-1.3 1.1-2.6 2.6-2.6 4.7 0 2.2 1.3 3.6 2.6 4.7q1.9 1.7 3.8 2.4 2 .7 3.7.4v10.2h-10.2c0-1.1.2-2.3-.4-3.7q-.7-1.9-2.4-3.8c-1.1-1.3-2.6-2.5-4.7-2.5s-3.6 1.2-4.7 2.5q-1.6 1.9-2.4 3.8a7 7 0 0 0-.4 3.3q-1.4-.2-3.2.4a14 14 0 0 0-4 2.5c-1.3 1-2.5 2.5-2.5 4.7s1.3 3.7 2.5 4.8q2 1.8 4 2.5a6 6 0 0 0 3.2.3q-.2 1.4.4 3.3.8 1.9 2.4 3.8c1.1 1.3 2.6 2.5 4.7 2.5s3.6-1.2 4.7-2.5q1.6-1.9 2.4-3.8.7-2.1.4-3.6h10.3l-.2 37.8v2.3h16l-1.3-2.9v-37.2h10.2c0 1-.2 2.2.4 3.6q.8 1.9 2.4 3.8c1.1 1.3 2.6 2.5 4.7 2.5s3.6-1.2 4.7-2.5q1.6-1.9 2.4-3.8.7-2 .4-3.4 1.4.2 3.4-.4 1.9-.7 3.8-2.4c1.3-1.1 2.6-2.6 2.6-4.7s-1.3-3.6-2.6-4.7q-1.9-1.6-3.8-2.4a7 7 0 0 0-3.4-.4q.2-1.4-.4-3.4-.7-1.9-2.4-3.8c-1.1-1.3-2.6-2.5-4.7-2.5s-3.6 1.2-4.7 2.5q-1.6 1.9-2.4 3.8-.7 2-.4 3.7h-10.3v-10.2c1 0 2.2.2 3.6-.4q1.8-.7 3.8-2.4c1.2-1 2.5-2.5 2.5-4.7 0-2.1-1.3-3.6-2.5-4.7a14 14 0 0 0-3.8-2.3 7 7 0 0 0-3.4-.5q.1-1.4-.5-3.3-.7-2-2.3-3.9c-1.6-1.9-2.6-2.5-4.7-2.5zm0 4.5q.1-.1 1.3 1c1.2 1 1.3 1.9 1.6 2.6v2l-.1 1.8-.5 3 3-.5 1.8-.1h2c.7.3 1.9 1 2.6 1.6q1.1 1.2 1 1.3s-.2.7-1 1.3-1.9 1.4-2.6 1.7h-2l-1.8-.2-2.6-.4v2.7l.2 14.8v2.3h19.8l-.4-2.6-.2-1.8c0-1 .2-2.2 0-2q.6-1.3 1.7-2.7l1.3-1 1.3 1c1.2 1 1.3 2 1.6 2.7v2l-.1 1.8-.5 3 3-.5 1.8-.2c1 0 2.2.2 2 0q1.4.6 2.7 1.7l1 1.3-1 1.3c-1 1.2-2 1.3-2.7 1.6h-2l-1.8-.1-3-.5.5 3 .2 1.8c0 1-.2 2.2 0 2q-.6 1.4-1.7 2.6-1.2 1.1-1.3 1-.1.1-1.3-1c-1.2-1-1.3-1.8-1.6-2.6v-2l.1-1.8.4-2.5h-19.8v40h-5.7l.2-37.8v-2.2h-20l.5 2.5.2 1.8c0 1-.2 2.2 0 2q-.6 1.4-1.7 2.6-1.2 1.1-1.3 1-.1.1-1.3-1c-1.2-1-1.3-1.8-1.6-2.6v-2l.1-1.8.5-3.2-3.2.7-1.7.3h-1.8c-.7-.3-1.9-1-2.7-1.7q-1.1-1.2-1-1.4-.1-.2 1-1.4c.8-.7 2-1.3 2.7-1.6h1.9l1.7.2 3.1.6-.5-3.1-.2-1.8c0-1 .2-2.2 0-2q.6-1.3 1.7-2.7l1.3-1 1.3 1c1.2 1 1.3 2 1.6 2.7v2l-.1 1.8-.4 2.5h19.9V-75l-.2-15v-2.5l-2.6.4-1.7.2h-2c-.8-.3-2-1-2.7-1.7s-1-1.3-1-1.3l1-1.3c1-1.2 2-1.3 2.7-1.6h2l1.7.1 3 .5-.4-3-.2-1.8v-2c.3-.7 1-1.9 1.7-2.6s1.3-1 1.3-1z" id="path6"/></g><g transform="translate(-1716.6 -506.4)" id="g7"><ellipse cx="2689.7012" cy="785.0257" fill-rule="evenodd" overflow="visible" rx="10.48851" ry="10.660453" style="marker:none" transform="translate(0 -2)" id="ellipse6"/><use xlink:href="#a" fill-rule="evenodd" id="use6"/><use xlink:href="#b" fill-rule="evenodd" stroke-width="4.7250514" overflow="visible" style="marker:none" transform="matrix(1.65957 0 0 1.62366 -1773.2 -485.4)" id="use7"/><ellipse cx="2689.7012" cy="785.0257" overflow="visible" rx="10.48851" ry="10.660453" style="marker:none" transform="translate(0 -2)" id="ellipse7"/></g></g><g transform="translate(-1531.3 347.1)" id="g36"><g transform="translate(1347.2 -729.4)" id="g9"><circle cx="2506.2473" cy="19.768774" r="50.681301" fill-rule="evenodd" overflow="visible" style="marker:none" transform="translate(-1349.2 729)" id="circle8"/><path fill-rule="evenodd" d="M2557 19.8a50.7 50.7 0 0 1-92.2 29.1c-.6-.8 20.4 4.5 39.9.4a59 59 0 0 0 25.1-14.7c17.5-15.6 8.8-53.8 10-52.8a51 51 0 0 1 17.1 38z" overflow="visible" style="marker:none" transform="translate(-1349.2 729)" id="path8"/><ellipse cx="1136.8868" cy="729.40271" fill-rule="evenodd" stroke-width="7.47379208" overflow="visible" rx="21.810177" ry="23.81571" style="marker:none" transform="matrix(1.07873 0 0 .99841 -86.7 .2)" id="ellipse8"/><circle cx="2506.2473" cy="19.768774" r="50.681301" overflow="visible" style="marker:none" transform="translate(-1349.2 729)" id="circle9"/></g><g fill-rule="evenodd" transform="rotate(-90 2502 16.3)" id="g11"><path d="M2487.8 8.8h67V27h-67z" overflow="visible" style="marker:none" id="path9"/><path d="M2489.6 1.8h63a4 4 0 1 1 0 8.2h-63z" overflow="visible" style="marker:none" id="path10"/><path d="M2490 26h62.7a4 4 0 1 1 0 8.2h-62.8z" overflow="visible" style="marker:none" id="path11"/></g><g stroke-width="8.77764893" id="g17"><g transform="matrix(.89339 0 0 .874 100.6 -713.7)" id="g12"><ellipse cx="2689.7012" cy="785.0257" fill-rule="evenodd" overflow="visible" rx="10.48851" ry="10.660453" style="marker:none" transform="translate(0 -2)" id="ellipse11"/><use xlink:href="#a" fill-rule="evenodd" id="use11"/><use xlink:href="#b" fill-rule="evenodd" stroke-width="5.34727859" overflow="visible" style="marker:none" transform="matrix(1.65957 0 0 1.62366 -1773.2 -485.4)" id="use12"/><ellipse cx="2689.7012" cy="785.0257" overflow="visible" rx="10.48851" ry="10.660453" style="marker:none" transform="translate(0 -2)" id="ellipse12"/></g><g transform="matrix(.89339 0 0 .874 100.6 -700.2)" id="g14"><ellipse cx="2689.7012" cy="785.0257" fill-rule="evenodd" overflow="visible" rx="10.48851" ry="10.660453" style="marker:none" transform="translate(0 -2)" id="ellipse13"/><use xlink:href="#a" fill-rule="evenodd" id="use13"/><use xlink:href="#b" fill-rule="evenodd" stroke-width="5.34727859" overflow="visible" style="marker:none" transform="matrix(1.65957 0 0 1.62366 -1773.2 -485.4)" id="use14"/><ellipse cx="2689.7012" cy="785.0257" overflow="visible" rx="10.48851" ry="10.660453" style="marker:none" transform="translate(0 -2)" id="ellipse14"/></g><g transform="matrix(.89339 0 0 .874 100.6 -687.4)" id="g16"><ellipse cx="2689.7012" cy="785.0257" fill-rule="evenodd" overflow="visible" rx="10.48851" ry="10.660453" style="marker:none" transform="translate(0 -2)" id="ellipse15"/><use xlink:href="#a" fill-rule="evenodd" id="use15"/><use xlink:href="#b" fill-rule="evenodd" stroke-width="5.34727859" overflow="visible" style="marker:none" transform="matrix(1.65957 0 0 1.62366 -1773.2 -485.4)" id="use16"/><ellipse cx="2689.7012" cy="785.0257" overflow="visible" rx="10.48851" ry="10.660453" style="marker:none" transform="translate(0 -2)" id="ellipse16"/></g></g><g fill-rule="evenodd" id="g18"><path d="M2453.7 8.8h101.1V27h-101z" overflow="visible" style="marker:none" id="path17"/><rect width="105.00586" height="8.1974878" x="2451.7742" y="1.7566059" overflow="visible" ry="4.0987439" style="marker:none" id="rect17"/><rect width="105.00586" height="8.1974878" x="2451.7742" y="25.958714" overflow="visible" ry="4.0987439" style="marker:none" id="rect18"/></g><g stroke-width="8.77764893" transform="translate(0 -.4)" id="g26"><g transform="matrix(.89339 0 0 .874 55.6 -666)" id="g19"><ellipse cx="2689.7012" cy="785.0257" fill-rule="evenodd" overflow="visible" rx="10.48851" ry="10.660453" style="marker:none" transform="translate(0 -2)" id="ellipse18"/><use xlink:href="#a" fill-rule="evenodd" id="use18"/><use xlink:href="#b" fill-rule="evenodd" stroke-width="5.34727859" overflow="visible" style="marker:none" transform="matrix(1.65957 0 0 1.62366 -1773.2 -485.4)" id="use19"/><ellipse cx="2689.7012" cy="785.0257" overflow="visible" rx="10.48851" ry="10.660453" style="marker:none" transform="translate(0 -2)" id="ellipse19"/></g><g transform="matrix(.89339 0 0 .874 66.7 -666)" id="g21"><ellipse cx="2689.7012" cy="785.0257" fill-rule="evenodd" overflow="visible" rx="10.48851" ry="10.660453" style="marker:none" transform="translate(0 -2)" id="ellipse20"/><use xlink:href="#a" fill-rule="evenodd" id="use20"/><use xlink:href="#b" fill-rule="evenodd" stroke-width="5.34727859" overflow="visible" style="marker:none" transform="matrix(1.65957 0 0 1.62366 -1773.2 -485.4)" id="use21"/><ellipse cx="2689.7012" cy="785.0257" overflow="visible" rx="10.48851" ry="10.660453" style="marker:none" transform="translate(0 -2)" id="ellipse21"/></g><g transform="matrix(.89339 0 0 .874 77.9 -666)" id="g23"><ellipse cx="2689.7012" cy="785.0257" fill-rule="evenodd" overflow="visible" rx="10.48851" ry="10.660453" style="marker:none" transform="translate(0 -2)" id="ellipse22"/><use xlink:href="#a" fill-rule="evenodd" id="use22"/><use xlink:href="#b" fill-rule="evenodd" stroke-width="5.34727859" overflow="visible" style="marker:none" transform="matrix(1.65957 0 0 1.62366 -1773.2 -485.4)" id="use23"/><ellipse cx="2689.7012" cy="785.0257" overflow="visible" rx="10.48851" ry="10.660453" style="marker:none" transform="translate(0 -2)" id="ellipse23"/></g><g transform="matrix(.89339 0 0 .874 89 -666)" id="g25"><ellipse cx="2689.7012" cy="785.0257" fill-rule="evenodd" overflow="visible" rx="10.48851" ry="10.660453" style="marker:none" transform="translate(0 -2)" id="ellipse24"/><use xlink:href="#a" fill-rule="evenodd" id="use24"/><use xlink:href="#b" fill-rule="evenodd" stroke-width="5.34727859" overflow="visible" style="marker:none" transform="matrix(1.65957 0 0 1.62366 -1773.2 -485.4)" id="use25"/><ellipse cx="2689.7012" cy="785.0257" overflow="visible" rx="10.48851" ry="10.660453" style="marker:none" transform="translate(0 -2)" id="ellipse25"/></g></g><g stroke-width="8.77764893" transform="translate(0 .5)" id="g34"><g transform="matrix(.89339 0 0 .874 145.5 -666.9)" id="g27"><ellipse cx="2689.7012" cy="785.0257" fill-rule="evenodd" overflow="visible" rx="10.48851" ry="10.660453" style="marker:none" transform="translate(0 -2)" id="ellipse26"/><use xlink:href="#a" fill-rule="evenodd" id="use26"/><use xlink:href="#b" fill-rule="evenodd" stroke-width="5.34727859" overflow="visible" style="marker:none" transform="matrix(1.65957 0 0 1.62366 -1773.2 -485.4)" id="use27"/><ellipse cx="2689.7012" cy="785.0257" overflow="visible" rx="10.48851" ry="10.660453" style="marker:none" transform="translate(0 -2)" id="ellipse27"/></g><g transform="matrix(.89339 0 0 .874 134.4 -666.9)" id="g29"><ellipse cx="2689.7012" cy="785.0257" fill-rule="evenodd" overflow="visible" rx="10.48851" ry="10.660453" style="marker:none" transform="translate(0 -2)" id="ellipse28"/><use xlink:href="#a" fill-rule="evenodd" id="use28"/><use xlink:href="#b" fill-rule="evenodd" stroke-width="5.34727859" overflow="visible" style="marker:none" transform="matrix(1.65957 0 0 1.62366 -1773.2 -485.4)" id="use29"/><ellipse cx="2689.7012" cy="785.0257" overflow="visible" rx="10.48851" ry="10.660453" style="marker:none" transform="translate(0 -2)" id="ellipse29"/></g><g transform="matrix(.89339 0 0 .874 123.2 -666.9)" id="g31"><ellipse cx="2689.7012" cy="785.0257" fill-rule="evenodd" overflow="visible" rx="10.48851" ry="10.660453" style="marker:none" transform="translate(0 -2)" id="ellipse30"/><use xlink:href="#a" fill-rule="evenodd" id="use30"/><use xlink:href="#b" fill-rule="evenodd" stroke-width="5.34727859" overflow="visible" style="marker:none" transform="matrix(1.65957 0 0 1.62366 -1773.2 -485.4)" id="use31"/><ellipse cx="2689.7012" cy="785.0257" overflow="visible" rx="10.48851" ry="10.660453" style="marker:none" transform="translate(0 -2)" id="ellipse31"/></g><g transform="matrix(.89339 0 0 .874 112.1 -666.9)" id="g33"><ellipse cx="2689.7012" cy="785.0257" fill-rule="evenodd" overflow="visible" rx="10.48851" ry="10.660453" style="marker:none" transform="translate(0 -2)" id="ellipse32"/><use xlink:href="#a" fill-rule="evenodd" id="use32"/><use xlink:href="#b" fill-rule="evenodd" stroke-width="5.34727859" overflow="visible" style="marker:none" transform="matrix(1.65957 0 0 1.62366 -1773.2 -485.4)" id="use33"/><ellipse cx="2689.7012" cy="785.0257" overflow="visible" rx="10.48851" ry="10.660453" style="marker:none" transform="translate(0 -2)" id="ellipse33"/></g></g><g stroke-width="8.77764893" transform="matrix(.89339 0 0 .874 101.3 -666.3)" id="g35"><ellipse cx="2689.7012" cy="785.0257" fill-rule="evenodd" overflow="visible" rx="10.48851" ry="10.660453" style="marker:none" transform="translate(0 -2)" id="ellipse34"/><use xlink:href="#a" fill-rule="evenodd" id="use34"/><use xlink:href="#b" fill-rule="evenodd" stroke-width="5.34727859" overflow="visible" style="marker:none" transform="matrix(1.65957 0 0 1.62366 -1773.2 -485.4)" id="use35"/><ellipse cx="2689.7012" cy="785.0257" overflow="visible" rx="10.48851" ry="10.660453" style="marker:none" transform="translate(0 -2)" id="ellipse35"/></g></g></g><g transform="translate(-2241.2 375.8)" id="g184"><g transform="translate(0 11.1)" id="g86"><g transform="translate(.1)" id="g44"><g fill-rule="evenodd" transform="translate(-.1)" id="g42"><g transform="matrix(-1 0 0 1 6443.6 0)" id="g39"><use xlink:href="#c" id="use37"/><use xlink:href="#d" id="use38"/><use xlink:href="#e" id="use39"/></g><use xlink:href="#c" id="use40"/><use xlink:href="#d" id="use41"/><use xlink:href="#e" id="use42"/></g><use xlink:href="#f" fill-rule="evenodd" id="use43"/><path fill-rule="evenodd" d="M3221.8 123.7s-31.1-2.3-43.4-3.8a281 281 0 0 1-32-5.3c-11.4-2.9-25.6-9.3-36.7-13a364 364 0 0 0-47.3-13c-10.1-1.6-21-2.1-31.3-1.5-9.2.6-21.5 2.2-30.5 4.6s-19.4 6.6-27.4 11.4c-8.2 5-18.6 13-24.4 20.6a76 76 0 0 0-11.5 21.4 98 98 0 0 0-3.8 29c.6 10.8 7.7 24.2 8.4 35 .3 4.6-1.5 15.3-1.5 15.3s-6-13.1-7.6-19c-2.2-7.4-4.6-25.2-4.6-25.2v-20.6l3.8-17.6 5.2-13 12.9-16 19-15.2 27-11.8 17-4.9 26-1.1 28.8 2.2 27.8 7.6 38.8 13.7 20.1 5.4 36.1 5.3 31.6 1.9m-.4 7.6s31.2-2.3 43.5-3.8c10.3-1.3 22-2.8 32-5.3 11.3-2.9 25.6-9.3 36.7-13a364 364 0 0 1 47.2-13 149 149 0 0 1 31.3-1.5c9.3.6 21.6 2.2 30.5 4.6 9 2.4 19.5 6.6 27.5 11.4 8.2 5 18.6 13 24.4 20.6a76 76 0 0 1 11.4 21.4 98 98 0 0 1 3.9 29c-.6 10.8-7.7 24.3-8.4 35-.3 4.7 1.5 15.3 1.5 15.3s6-13.1 7.6-19c2.1-7.4 4.6-25.2 4.6-25.2v-20.6l-3.8-17.6-5.2-13-13-16-19-15.2-27-11.7-17-5-25.9-1.1-28.9 2.3-27.7 7.6-38.8 13.6-20.2 5.4-36 5.3-31.6 1.9" id="path43"/><use xlink:href="#f" id="use44"/></g><g transform="translate(234 -568.7)" id="g46"><ellipse cx="2689.7012" cy="785.0257" fill-rule="evenodd" overflow="visible" rx="10.48851" ry="10.660453" style="marker:none" transform="translate(0 -2)" id="ellipse44"/><use xlink:href="#a" fill-rule="evenodd" id="use45"/><use xlink:href="#b" fill-rule="evenodd" stroke-width="2.39667654" overflow="visible" style="marker:none" transform="matrix(1.65957 0 0 1.62366 -1773.2 -485.4)" id="use46"/><ellipse cx="2689.7012" cy="785.0257" overflow="visible" rx="10.48851" ry="10.660453" style="marker:none" transform="translate(0 -2)" id="ellipse46"/></g><g transform="translate(228.5 -591.8)" id="g48"><ellipse cx="2689.7012" cy="785.0257" fill-rule="evenodd" overflow="visible" rx="10.48851" ry="10.660453" style="marker:none" transform="translate(0 -2)" id="ellipse47"/><use xlink:href="#a" fill-rule="evenodd" id="use47"/><use xlink:href="#b" fill-rule="evenodd" stroke-width="2.39667654" overflow="visible" style="marker:none" transform="matrix(1.65957 0 0 1.62366 -1773.2 -485.4)" id="use48"/><ellipse cx="2689.7012" cy="785.0257" overflow="visible" rx="10.48851" ry="10.660453" style="marker:none" transform="translate(0 -2)" id="ellipse48"/></g><g transform="translate(226.6 -615.3)" id="g50"><ellipse cx="2689.7012" cy="785.0257" fill-rule="evenodd" overflow="visible" rx="10.48851" ry="10.660453" style="marker:none" transform="translate(0 -2)" id="ellipse49"/><use xlink:href="#a" fill-rule="evenodd" id="use49"/><use xlink:href="#b" fill-rule="evenodd" stroke-width="2.39667654" overflow="visible" style="marker:none" transform="matrix(1.65957 0 0 1.62366 -1773.2 -485.4)" id="use50"/><ellipse cx="2689.7012" cy="785.0257" overflow="visible" rx="10.48851" ry="10.660453" style="marker:none" transform="translate(0 -2)" id="ellipse50"/></g><g transform="translate(228.5 -638.9)" id="g52"><ellipse cx="2689.7012" cy="785.0257" fill-rule="evenodd" overflow="visible" rx="10.48851" ry="10.660453" style="marker:none" transform="translate(0 -2)" id="ellipse51"/><use xlink:href="#a" fill-rule="evenodd" id="use51"/><use xlink:href="#b" fill-rule="evenodd" stroke-width="2.39667654" overflow="visible" style="marker:none" transform="matrix(1.65957 0 0 1.62366 -1773.2 -485.4)" id="use52"/><ellipse cx="2689.7012" cy="785.0257" overflow="visible" rx="10.48851" ry="10.660453" style="marker:none" transform="translate(0 -2)" id="ellipse52"/></g><g transform="translate(238.6 -660.6)" id="g54"><ellipse cx="2689.7012" cy="785.0257" fill-rule="evenodd" overflow="visible" rx="10.48851" ry="10.660453" style="marker:none" transform="translate(0 -2)" id="ellipse53"/><use xlink:href="#a" fill-rule="evenodd" id="use53"/><use xlink:href="#b" fill-rule="evenodd" stroke-width="2.39667654" overflow="visible" style="marker:none" transform="matrix(1.65957 0 0 1.62366 -1773.2 -485.4)" id="use54"/><ellipse cx="2689.7012" cy="785.0257" overflow="visible" rx="10.48851" ry="10.660453" style="marker:none" transform="translate(0 -2)" id="ellipse54"/></g><g transform="translate(253.4 -679.5)" id="g56"><ellipse cx="2689.7012" cy="785.0257" fill-rule="evenodd" overflow="visible" rx="10.48851" ry="10.660453" style="marker:none" transform="translate(0 -2)" id="ellipse55"/><use xlink:href="#a" fill-rule="evenodd" id="use55"/><use xlink:href="#b" fill-rule="evenodd" stroke-width="2.39667654" overflow="visible" style="marker:none" transform="matrix(1.65957 0 0 1.62366 -1773.2 -485.4)" id="use56"/><ellipse cx="2689.7012" cy="785.0257" overflow="visible" rx="10.48851" ry="10.660453" style="marker:none" transform="translate(0 -2)" id="ellipse56"/></g><g transform="translate(272.8 -694.3)" id="g58"><ellipse cx="2689.7012" cy="785.0257" fill-rule="evenodd" overflow="visible" rx="10.48851" ry="10.660453" style="marker:none" transform="translate(0 -2)" id="ellipse57"/><use xlink:href="#a" fill-rule="evenodd" id="use57"/><use xlink:href="#b" fill-rule="evenodd" stroke-width="2.39667654" overflow="visible" style="marker:none" transform="matrix(1.65957 0 0 1.62366 -1773.2 -485.4)" id="use58"/><ellipse cx="2689.7012" cy="785.0257" overflow="visible" rx="10.48851" ry="10.660453" style="marker:none" transform="translate(0 -2)" id="ellipse58"/></g><g transform="translate(294 -704.5)" id="g60"><ellipse cx="2689.7012" cy="785.0257" fill-rule="evenodd" overflow="visible" rx="10.48851" ry="10.660453" style="marker:none" transform="translate(0 -2)" id="ellipse59"/><use xlink:href="#a" fill-rule="evenodd" id="use59"/><use xlink:href="#b" fill-rule="evenodd" stroke-width="2.39667654" overflow="visible" style="marker:none" transform="matrix(1.65957 0 0 1.62366 -1773.2 -485.4)" id="use60"/><ellipse cx="2689.7012" cy="785.0257" overflow="visible" rx="10.48851" ry="10.660453" style="marker:none" transform="translate(0 -2)" id="ellipse60"/></g><g transform="translate(316.2 -711.9)" id="g62"><ellipse cx="2689.7012" cy="785.0257" fill-rule="evenodd" overflow="visible" rx="10.48851" ry="10.660453" style="marker:none" transform="translate(0 -2)" id="ellipse61"/><use xlink:href="#a" fill-rule="evenodd" id="use61"/><use xlink:href="#b" fill-rule="evenodd" stroke-width="2.39667654" overflow="visible" style="marker:none" transform="matrix(1.65957 0 0 1.62366 -1773.2 -485.4)" id="use62"/><ellipse cx="2689.7012" cy="785.0257" overflow="visible" rx="10.48851" ry="10.660453" style="marker:none" transform="translate(0 -2)" id="ellipse62"/></g><g transform="translate(339.8 -713.7)" id="g64"><ellipse cx="2689.7012" cy="785.0257" fill-rule="evenodd" overflow="visible" rx="10.48851" ry="10.660453" style="marker:none" transform="translate(0 -2)" id="ellipse63"/><use xlink:href="#a" fill-rule="evenodd" id="use63"/><use xlink:href="#b" fill-rule="evenodd" stroke-width="2.39667654" overflow="visible" style="marker:none" transform="matrix(1.65957 0 0 1.62366 -1773.2 -485.4)" id="use64"/><ellipse cx="2689.7012" cy="785.0257" overflow="visible" rx="10.48851" ry="10.660453" style="marker:none" transform="translate(0 -2)" id="ellipse64"/></g><g transform="matrix(-1 0 0 1 6443.6 0)" id="g85"><g transform="translate(234 -568.7)" id="g66"><ellipse cx="2689.7012" cy="785.0257" fill-rule="evenodd" overflow="visible" rx="10.48851" ry="10.660453" style="marker:none" transform="translate(0 -2)" id="ellipse65"/><use xlink:href="#a" fill-rule="evenodd" id="use65"/><use xlink:href="#b" fill-rule="evenodd" stroke-width="2.39667654" overflow="visible" style="marker:none" transform="matrix(1.65957 0 0 1.62366 -1773.2 -485.4)" id="use66"/><ellipse cx="2689.7012" cy="785.0257" overflow="visible" rx="10.48851" ry="10.660453" style="marker:none" transform="translate(0 -2)" id="ellipse66"/></g><g transform="translate(228.5 -591.8)" id="g68"><ellipse cx="2689.7012" cy="785.0257" fill-rule="evenodd" overflow="visible" rx="10.48851" ry="10.660453" style="marker:none" transform="translate(0 -2)" id="ellipse67"/><use xlink:href="#a" fill-rule="evenodd" id="use67"/><use xlink:href="#b" fill-rule="evenodd" stroke-width="2.39667654" overflow="visible" style="marker:none" transform="matrix(1.65957 0 0 1.62366 -1773.2 -485.4)" id="use68"/><ellipse cx="2689.7012" cy="785.0257" overflow="visible" rx="10.48851" ry="10.660453" style="marker:none" transform="translate(0 -2)" id="ellipse68"/></g><g transform="translate(226.6 -615.3)" id="g70"><ellipse cx="2689.7012" cy="785.0257" fill-rule="evenodd" overflow="visible" rx="10.48851" ry="10.660453" style="marker:none" transform="translate(0 -2)" id="ellipse69"/><use xlink:href="#a" fill-rule="evenodd" id="use69"/><use xlink:href="#b" fill-rule="evenodd" stroke-width="2.39667654" overflow="visible" style="marker:none" transform="matrix(1.65957 0 0 1.62366 -1773.2 -485.4)" id="use70"/><ellipse cx="2689.7012" cy="785.0257" overflow="visible" rx="10.48851" ry="10.660453" style="marker:none" transform="translate(0 -2)" id="ellipse70"/></g><g transform="translate(228.5 -638.9)" id="g72"><ellipse cx="2689.7012" cy="785.0257" fill-rule="evenodd" overflow="visible" rx="10.48851" ry="10.660453" style="marker:none" transform="translate(0 -2)" id="ellipse71"/><use xlink:href="#a" fill-rule="evenodd" id="use71"/><use xlink:href="#b" fill-rule="evenodd" stroke-width="2.39667654" overflow="visible" style="marker:none" transform="matrix(1.65957 0 0 1.62366 -1773.2 -485.4)" id="use72"/><ellipse cx="2689.7012" cy="785.0257" overflow="visible" rx="10.48851" ry="10.660453" style="marker:none" transform="translate(0 -2)" id="ellipse72"/></g><g transform="translate(238.6 -660.6)" id="g74"><ellipse cx="2689.7012" cy="785.0257" fill-rule="evenodd" overflow="visible" rx="10.48851" ry="10.660453" style="marker:none" transform="translate(0 -2)" id="ellipse73"/><use xlink:href="#a" fill-rule="evenodd" id="use73"/><use xlink:href="#b" fill-rule="evenodd" stroke-width="2.39667654" overflow="visible" style="marker:none" transform="matrix(1.65957 0 0 1.62366 -1773.2 -485.4)" id="use74"/><ellipse cx="2689.7012" cy="785.0257" overflow="visible" rx="10.48851" ry="10.660453" style="marker:none" transform="translate(0 -2)" id="ellipse74"/></g><g transform="translate(253.4 -679.5)" id="g76"><ellipse cx="2689.7012" cy="785.0257" fill-rule="evenodd" overflow="visible" rx="10.48851" ry="10.660453" style="marker:none" transform="translate(0 -2)" id="ellipse75"/><use xlink:href="#a" fill-rule="evenodd" id="use75"/><use xlink:href="#b" fill-rule="evenodd" stroke-width="2.39667654" overflow="visible" style="marker:none" transform="matrix(1.65957 0 0 1.62366 -1773.2 -485.4)" id="use76"/><ellipse cx="2689.7012" cy="785.0257" overflow="visible" rx="10.48851" ry="10.660453" style="marker:none" transform="translate(0 -2)" id="ellipse76"/></g><g transform="translate(272.8 -694.3)" id="g78"><ellipse cx="2689.7012" cy="785.0257" fill-rule="evenodd" overflow="visible" rx="10.48851" ry="10.660453" style="marker:none" transform="translate(0 -2)" id="ellipse77"/><use xlink:href="#a" fill-rule="evenodd" id="use77"/><use xlink:href="#b" fill-rule="evenodd" stroke-width="2.39667654" overflow="visible" style="marker:none" transform="matrix(1.65957 0 0 1.62366 -1773.2 -485.4)" id="use78"/><ellipse cx="2689.7012" cy="785.0257" overflow="visible" rx="10.48851" ry="10.660453" style="marker:none" transform="translate(0 -2)" id="ellipse78"/></g><g transform="translate(294 -704.5)" id="g80"><ellipse cx="2689.7012" cy="785.0257" fill-rule="evenodd" overflow="visible" rx="10.48851" ry="10.660453" style="marker:none" transform="translate(0 -2)" id="ellipse79"/><use xlink:href="#a" fill-rule="evenodd" id="use79"/><use xlink:href="#b" fill-rule="evenodd" stroke-width="2.39667654" overflow="visible" style="marker:none" transform="matrix(1.65957 0 0 1.62366 -1773.2 -485.4)" id="use80"/><ellipse cx="2689.7012" cy="785.0257" overflow="visible" rx="10.48851" ry="10.660453" style="marker:none" transform="translate(0 -2)" id="ellipse80"/></g><g transform="translate(316.2 -711.9)" id="g82"><ellipse cx="2689.7012" cy="785.0257" fill-rule="evenodd" overflow="visible" rx="10.48851" ry="10.660453" style="marker:none" transform="translate(0 -2)" id="ellipse81"/><use xlink:href="#a" fill-rule="evenodd" id="use81"/><use xlink:href="#b" fill-rule="evenodd" stroke-width="2.39667654" overflow="visible" style="marker:none" transform="matrix(1.65957 0 0 1.62366 -1773.2 -485.4)" id="use82"/><ellipse cx="2689.7012" cy="785.0257" overflow="visible" rx="10.48851" ry="10.660453" style="marker:none" transform="translate(0 -2)" id="ellipse82"/></g><g transform="translate(339.8 -713.7)" id="g84"><ellipse cx="2689.7012" cy="785.0257" fill-rule="evenodd" overflow="visible" rx="10.48851" ry="10.660453" style="marker:none" transform="translate(0 -2)" id="ellipse83"/><use xlink:href="#a" fill-rule="evenodd" id="use83"/><use xlink:href="#b" fill-rule="evenodd" stroke-width="2.39667654" overflow="visible" style="marker:none" transform="matrix(1.65957 0 0 1.62366 -1773.2 -485.4)" id="use84"/><ellipse cx="2689.7012" cy="785.0257" overflow="visible" rx="10.48851" ry="10.660453" style="marker:none" transform="translate(0 -2)" id="ellipse84"/></g></g></g><g transform="translate(0 -5.6)" id="g168"><g transform="translate(-.4)" id="g115"><path fill-rule="evenodd" d="m3038.7 203.1 16-9.4-21.7-30.3-6-28.4 4.5-34.9-13.1 10.6-12.3 26.6 3.4 20.9 14 26.9z" id="path86"/><path fill-rule="evenodd" d="m3403.4 202-16-9.4 21.8-30.3 6-28.3-4.6-35 13.1 10.7 12.3 26.6-3.4 20.8-14 27z" id="path87"/><g transform="translate(-361.3 -448.8)" id="g89"><use xlink:href="#g" fill-rule="evenodd" id="use87"/><use xlink:href="#h" fill-rule="evenodd" id="use88"/><use xlink:href="#g" id="use89"/></g><g transform="matrix(-1 0 0 1 6805.3 -448.8)" id="g92"><use xlink:href="#g" fill-rule="evenodd" id="use90"/><use xlink:href="#h" fill-rule="evenodd" id="use91"/><use xlink:href="#g" id="use92"/></g><g fill-rule="evenodd" transform="translate(.3)" id="g113"><use xlink:href="#i" id="use93"/><use xlink:href="#j" id="use94"/><use xlink:href="#k" id="use95"/><use xlink:href="#l" id="use96"/><use xlink:href="#m" id="use97"/><use xlink:href="#n" id="use98"/><use xlink:href="#o" id="use99"/><use xlink:href="#p" id="use100"/><use xlink:href="#q" id="use101"/><use xlink:href="#r" id="use102"/><g transform="matrix(-1 0 0 1 6442.8 0)" id="g112"><use xlink:href="#i" id="use103"/><use xlink:href="#j" id="use104"/><use xlink:href="#k" id="use105"/><use xlink:href="#l" id="use106"/><use xlink:href="#m" id="use107"/><use xlink:href="#n" id="use108"/><use xlink:href="#o" id="use109"/><use xlink:href="#p" id="use110"/><use xlink:href="#q" id="use111"/><use xlink:href="#r" id="use112"/></g></g><g transform="translate(-342.5 -458.2)" id="g114"><use xlink:href="#s" fill-rule="evenodd" id="use113"/><path fill-rule="evenodd" d="M3565 555.1h-8.3s-24.5-1.5-35.4-2.6a541 541 0 0 1-40.7-6.2c-12.4-2.3-29.7-6.4-42.2-7.9-6-.7-14-.8-19.8-.5-5.4.3-12.8.6-17.8 2.6-7 3-15.6 9.1-20.3 15.1-4.6 6-8 15.7-9.4 23-1.1 6-.3 14.3.5 20.3a157 157 0 0 0 19.3 53.7l-17.7-24-7.8-21.3-2.1-18.3 1-14.6 7.8-18.8 9.4-11.4 19.8-11 15.7-2.6 39.6 3.1 29.2 7.3 34.4 4.7 30.8 2.1h14m-.5 7.3h8.3s24.6-1.5 35.5-2.6a541 541 0 0 0 40.6-6.2c12.5-2.3 29.7-6.4 42.3-7.9 5.9-.7 13.8-.8 19.8-.5 5.3.3 12.7.6 17.7 2.6 7 3 15.7 9.1 20.3 15.1s8 15.7 9.4 23c1.1 6 .4 14.3-.5 20.3a157 157 0 0 1-19.3 53.7l17.7-24 7.9-21.3 2-18.3-1-14.6-7.8-18.8-9.4-11.4-19.8-11-15.7-2.6-39.6 3.1-29.2 7.3-34.4 4.7-30.8 2.1h-14" id="path113"/><use xlink:href="#s" id="use114"/></g></g><g transform="translate(335.5 -600.2)" id="g116"><ellipse cx="2689.7012" cy="785.0257" fill-rule="evenodd" overflow="visible" rx="10.48851" ry="10.660453" style="marker:none" transform="translate(0 -2)" id="ellipse115"/><use xlink:href="#a" fill-rule="evenodd" id="use115"/><use xlink:href="#b" fill-rule="evenodd" stroke-width="2.39667654" overflow="visible" style="marker:none" transform="matrix(1.65957 0 0 1.62366 -1773.2 -485.4)" id="use116"/><ellipse cx="2689.7012" cy="785.0257" overflow="visible" rx="10.48851" ry="10.660453" style="marker:none" transform="translate(0 -2)" id="ellipse116"/></g><g transform="translate(325.1 -620.7)" id="g118"><ellipse cx="2689.7012" cy="785.0257" fill-rule="evenodd" overflow="visible" rx="10.48851" ry="10.660453" style="marker:none" transform="translate(0 -2)" id="ellipse117"/><use xlink:href="#a" fill-rule="evenodd" id="use117"/><use xlink:href="#b" fill-rule="evenodd" stroke-width="2.39667654" overflow="visible" style="marker:none" transform="matrix(1.65957 0 0 1.62366 -1773.2 -485.4)" id="use118"/><ellipse cx="2689.7012" cy="785.0257" overflow="visible" rx="10.48851" ry="10.660453" style="marker:none" transform="translate(0 -2)" id="ellipse118"/></g><g transform="translate(320.5 -643.5)" id="g120"><ellipse cx="2689.7012" cy="785.0257" fill-rule="evenodd" overflow="visible" rx="10.48851" ry="10.660453" style="marker:none" transform="translate(0 -2)" id="ellipse119"/><use xlink:href="#a" fill-rule="evenodd" id="use119"/><use xlink:href="#b" fill-rule="evenodd" stroke-width="2.39667654" overflow="visible" style="marker:none" transform="matrix(1.65957 0 0 1.62366 -1773.2 -485.4)" id="use120"/><ellipse cx="2689.7012" cy="785.0257" overflow="visible" rx="10.48851" ry="10.660453" style="marker:none" transform="translate(0 -2)" id="ellipse120"/></g><g transform="translate(321.7 -666.3)" id="g122"><ellipse cx="2689.7012" cy="785.0257" fill-rule="evenodd" overflow="visible" rx="10.48851" ry="10.660453" style="marker:none" transform="translate(0 -2)" id="ellipse121"/><use xlink:href="#a" fill-rule="evenodd" id="use121"/><use xlink:href="#b" fill-rule="evenodd" stroke-width="2.39667654" overflow="visible" style="marker:none" transform="matrix(1.65957 0 0 1.62366 -1773.2 -485.4)" id="use122"/><ellipse cx="2689.7012" cy="785.0257" overflow="visible" rx="10.48851" ry="10.660453" style="marker:none" transform="translate(0 -2)" id="ellipse122"/></g><g transform="translate(329 -688.6)" id="g124"><ellipse cx="2689.7012" cy="785.0257" fill-rule="evenodd" overflow="visible" rx="10.48851" ry="10.660453" style="marker:none" transform="translate(0 -2)" id="ellipse123"/><use xlink:href="#a" fill-rule="evenodd" id="use123"/><use xlink:href="#b" fill-rule="evenodd" stroke-width="2.39667654" overflow="visible" style="marker:none" transform="matrix(1.65957 0 0 1.62366 -1773.2 -485.4)" id="use124"/><ellipse cx="2689.7012" cy="785.0257" overflow="visible" rx="10.48851" ry="10.660453" style="marker:none" transform="translate(0 -2)" id="ellipse124"/></g><g transform="translate(343.3 -706.3)" id="g126"><ellipse cx="2689.7012" cy="785.0257" fill-rule="evenodd" overflow="visible" rx="10.48851" ry="10.660453" style="marker:none" transform="translate(0 -2)" id="ellipse125"/><use xlink:href="#a" fill-rule="evenodd" id="use125"/><use xlink:href="#b" fill-rule="evenodd" stroke-width="2.39667654" overflow="visible" style="marker:none" transform="matrix(1.65957 0 0 1.62366 -1773.2 -485.4)" id="use126"/><ellipse cx="2689.7012" cy="785.0257" overflow="visible" rx="10.48851" ry="10.660453" style="marker:none" transform="translate(0 -2)" id="ellipse126"/></g><g transform="translate(363.2 -718.3)" id="g128"><ellipse cx="2689.7012" cy="785.0257" fill-rule="evenodd" overflow="visible" rx="10.48851" ry="10.660453" style="marker:none" transform="translate(0 -2)" id="ellipse127"/><use xlink:href="#a" fill-rule="evenodd" id="use127"/><use xlink:href="#b" fill-rule="evenodd" stroke-width="2.39667654" overflow="visible" style="marker:none" transform="matrix(1.65957 0 0 1.62366 -1773.2 -485.4)" id="use128"/><ellipse cx="2689.7012" cy="785.0257" overflow="visible" rx="10.48851" ry="10.660453" style="marker:none" transform="translate(0 -2)" id="ellipse128"/></g><g transform="translate(386 -722.2)" id="g130"><ellipse cx="2689.7012" cy="785.0257" fill-rule="evenodd" overflow="visible" rx="10.48851" ry="10.660453" style="marker:none" transform="translate(0 -2)" id="ellipse129"/><use xlink:href="#a" fill-rule="evenodd" id="use129"/><use xlink:href="#b" fill-rule="evenodd" stroke-width="2.39667654" overflow="visible" style="marker:none" transform="matrix(1.65957 0 0 1.62366 -1773.2 -485.4)" id="use130"/><ellipse cx="2689.7012" cy="785.0257" overflow="visible" rx="10.48851" ry="10.660453" style="marker:none" transform="translate(0 -2)" id="ellipse130"/></g><g transform="translate(409.2 -720.7)" id="g132"><ellipse cx="2689.7012" cy="785.0257" fill-rule="evenodd" overflow="visible" rx="10.48851" ry="10.660453" style="marker:none" transform="translate(0 -2)" id="ellipse131"/><use xlink:href="#a" fill-rule="evenodd" id="use131"/><use xlink:href="#b" fill-rule="evenodd" stroke-width="2.39667654" overflow="visible" style="marker:none" transform="matrix(1.65957 0 0 1.62366 -1773.2 -485.4)" id="use132"/><ellipse cx="2689.7012" cy="785.0257" overflow="visible" rx="10.48851" ry="10.660453" style="marker:none" transform="translate(0 -2)" id="ellipse132"/></g><g transform="translate(432.4 -716.6)" id="g134"><ellipse cx="2689.7012" cy="785.0257" fill-rule="evenodd" overflow="visible" rx="10.48851" ry="10.660453" style="marker:none" transform="translate(0 -2)" id="ellipse133"/><use xlink:href="#a" fill-rule="evenodd" id="use133"/><use xlink:href="#b" fill-rule="evenodd" stroke-width="2.39667654" overflow="visible" style="marker:none" transform="matrix(1.65957 0 0 1.62366 -1773.2 -485.4)" id="use134"/><ellipse cx="2689.7012" cy="785.0257" overflow="visible" rx="10.48851" ry="10.660453" style="marker:none" transform="translate(0 -2)" id="ellipse134"/></g><g transform="translate(455.7 -712.4)" id="g136"><ellipse cx="2689.7012" cy="785.0257" fill-rule="evenodd" overflow="visible" rx="10.48851" ry="10.660453" style="marker:none" transform="translate(0 -2)" id="ellipse135"/><use xlink:href="#a" fill-rule="evenodd" id="use135"/><use xlink:href="#b" fill-rule="evenodd" stroke-width="2.39667654" overflow="visible" style="marker:none" transform="matrix(1.65957 0 0 1.62366 -1773.2 -485.4)" id="use136"/><ellipse cx="2689.7012" cy="785.0257" overflow="visible" rx="10.48851" ry="10.660453" style="marker:none" transform="translate(0 -2)" id="ellipse136"/></g><g transform="translate(478.9 -708.1)" id="g138"><ellipse cx="2689.7012" cy="785.0257" fill-rule="evenodd" overflow="visible" rx="10.48851" ry="10.660453" style="marker:none" transform="translate(0 -2)" id="ellipse137"/><use xlink:href="#a" fill-rule="evenodd" id="use137"/><use xlink:href="#b" fill-rule="evenodd" stroke-width="2.39667654" overflow="visible" style="marker:none" transform="matrix(1.65957 0 0 1.62366 -1773.2 -485.4)" id="use138"/><ellipse cx="2689.7012" cy="785.0257" overflow="visible" rx="10.48851" ry="10.660453" style="marker:none" transform="translate(0 -2)" id="ellipse138"/></g><g transform="translate(501.6 -704.8)" id="g140"><ellipse cx="2689.7012" cy="785.0257" fill-rule="evenodd" overflow="visible" rx="10.48851" ry="10.660453" style="marker:none" transform="translate(0 -2)" id="ellipse139"/><use xlink:href="#a" fill-rule="evenodd" id="use139"/><use xlink:href="#b" fill-rule="evenodd" stroke-width="2.39667654" overflow="visible" style="marker:none" transform="matrix(1.65957 0 0 1.62366 -1773.2 -485.4)" id="use140"/><ellipse cx="2689.7012" cy="785.0257" overflow="visible" rx="10.48851" ry="10.660453" style="marker:none" transform="translate(0 -2)" id="ellipse140"/></g><g transform="matrix(-1 0 0 1 6443.3 0)" id="g167"><g transform="translate(335.5 -600.2)" id="g142"><ellipse cx="2689.7012" cy="785.0257" fill-rule="evenodd" overflow="visible" rx="10.48851" ry="10.660453" style="marker:none" transform="translate(0 -2)" id="ellipse141"/><use xlink:href="#a" fill-rule="evenodd" id="use141"/><use xlink:href="#b" fill-rule="evenodd" stroke-width="2.39667654" overflow="visible" style="marker:none" transform="matrix(1.65957 0 0 1.62366 -1773.2 -485.4)" id="use142"/><ellipse cx="2689.7012" cy="785.0257" overflow="visible" rx="10.48851" ry="10.660453" style="marker:none" transform="translate(0 -2)" id="ellipse142"/></g><g transform="translate(325.1 -620.7)" id="g144"><ellipse cx="2689.7012" cy="785.0257" fill-rule="evenodd" overflow="visible" rx="10.48851" ry="10.660453" style="marker:none" transform="translate(0 -2)" id="ellipse143"/><use xlink:href="#a" fill-rule="evenodd" id="use143"/><use xlink:href="#b" fill-rule="evenodd" stroke-width="2.39667654" overflow="visible" style="marker:none" transform="matrix(1.65957 0 0 1.62366 -1773.2 -485.4)" id="use144"/><ellipse cx="2689.7012" cy="785.0257" overflow="visible" rx="10.48851" ry="10.660453" style="marker:none" transform="translate(0 -2)" id="ellipse144"/></g><g transform="translate(320.5 -643.5)" id="g146"><ellipse cx="2689.7012" cy="785.0257" fill-rule="evenodd" overflow="visible" rx="10.48851" ry="10.660453" style="marker:none" transform="translate(0 -2)" id="ellipse145"/><use xlink:href="#a" fill-rule="evenodd" id="use145"/><use xlink:href="#b" fill-rule="evenodd" stroke-width="2.39667654" overflow="visible" style="marker:none" transform="matrix(1.65957 0 0 1.62366 -1773.2 -485.4)" id="use146"/><ellipse cx="2689.7012" cy="785.0257" overflow="visible" rx="10.48851" ry="10.660453" style="marker:none" transform="translate(0 -2)" id="ellipse146"/></g><g transform="translate(321.7 -666.3)" id="g148"><ellipse cx="2689.7012" cy="785.0257" fill-rule="evenodd" overflow="visible" rx="10.48851" ry="10.660453" style="marker:none" transform="translate(0 -2)" id="ellipse147"/><use xlink:href="#a" fill-rule="evenodd" id="use147"/><use xlink:href="#b" fill-rule="evenodd" stroke-width="2.39667654" overflow="visible" style="marker:none" transform="matrix(1.65957 0 0 1.62366 -1773.2 -485.4)" id="use148"/><ellipse cx="2689.7012" cy="785.0257" overflow="visible" rx="10.48851" ry="10.660453" style="marker:none" transform="translate(0 -2)" id="ellipse148"/></g><g transform="translate(329 -688.6)" id="g150"><ellipse cx="2689.7012" cy="785.0257" fill-rule="evenodd" overflow="visible" rx="10.48851" ry="10.660453" style="marker:none" transform="translate(0 -2)" id="ellipse149"/><use xlink:href="#a" fill-rule="evenodd" id="use149"/><use xlink:href="#b" fill-rule="evenodd" stroke-width="2.39667654" overflow="visible" style="marker:none" transform="matrix(1.65957 0 0 1.62366 -1773.2 -485.4)" id="use150"/><ellipse cx="2689.7012" cy="785.0257" overflow="visible" rx="10.48851" ry="10.660453" style="marker:none" transform="translate(0 -2)" id="ellipse150"/></g><g transform="translate(343.3 -706.3)" id="g152"><ellipse cx="2689.7012" cy="785.0257" fill-rule="evenodd" overflow="visible" rx="10.48851" ry="10.660453" style="marker:none" transform="translate(0 -2)" id="ellipse151"/><use xlink:href="#a" fill-rule="evenodd" id="use151"/><use xlink:href="#b" fill-rule="evenodd" stroke-width="2.39667654" overflow="visible" style="marker:none" transform="matrix(1.65957 0 0 1.62366 -1773.2 -485.4)" id="use152"/><ellipse cx="2689.7012" cy="785.0257" overflow="visible" rx="10.48851" ry="10.660453" style="marker:none" transform="translate(0 -2)" id="ellipse152"/></g><g transform="translate(363.2 -718.3)" id="g154"><ellipse cx="2689.7012" cy="785.0257" fill-rule="evenodd" overflow="visible" rx="10.48851" ry="10.660453" style="marker:none" transform="translate(0 -2)" id="ellipse153"/><use xlink:href="#a" fill-rule="evenodd" id="use153"/><use xlink:href="#b" fill-rule="evenodd" stroke-width="2.39667654" overflow="visible" style="marker:none" transform="matrix(1.65957 0 0 1.62366 -1773.2 -485.4)" id="use154"/><ellipse cx="2689.7012" cy="785.0257" overflow="visible" rx="10.48851" ry="10.660453" style="marker:none" transform="translate(0 -2)" id="ellipse154"/></g><g transform="translate(386 -722.2)" id="g156"><ellipse cx="2689.7012" cy="785.0257" fill-rule="evenodd" overflow="visible" rx="10.48851" ry="10.660453" style="marker:none" transform="translate(0 -2)" id="ellipse155"/><use xlink:href="#a" fill-rule="evenodd" id="use155"/><use xlink:href="#b" fill-rule="evenodd" stroke-width="2.39667654" overflow="visible" style="marker:none" transform="matrix(1.65957 0 0 1.62366 -1773.2 -485.4)" id="use156"/><ellipse cx="2689.7012" cy="785.0257" overflow="visible" rx="10.48851" ry="10.660453" style="marker:none" transform="translate(0 -2)" id="ellipse156"/></g><g transform="translate(409.2 -720.7)" id="g158"><ellipse cx="2689.7012" cy="785.0257" fill-rule="evenodd" overflow="visible" rx="10.48851" ry="10.660453" style="marker:none" transform="translate(0 -2)" id="ellipse157"/><use xlink:href="#a" fill-rule="evenodd" id="use157"/><use xlink:href="#b" fill-rule="evenodd" stroke-width="2.39667654" overflow="visible" style="marker:none" transform="matrix(1.65957 0 0 1.62366 -1773.2 -485.4)" id="use158"/><ellipse cx="2689.7012" cy="785.0257" overflow="visible" rx="10.48851" ry="10.660453" style="marker:none" transform="translate(0 -2)" id="ellipse158"/></g><g transform="translate(432.4 -716.6)" id="g160"><ellipse cx="2689.7012" cy="785.0257" fill-rule="evenodd" overflow="visible" rx="10.48851" ry="10.660453" style="marker:none" transform="translate(0 -2)" id="ellipse159"/><use xlink:href="#a" fill-rule="evenodd" id="use159"/><use xlink:href="#b" fill-rule="evenodd" stroke-width="2.39667654" overflow="visible" style="marker:none" transform="matrix(1.65957 0 0 1.62366 -1773.2 -485.4)" id="use160"/><ellipse cx="2689.7012" cy="785.0257" overflow="visible" rx="10.48851" ry="10.660453" style="marker:none" transform="translate(0 -2)" id="ellipse160"/></g><g transform="translate(455.7 -712.4)" id="g162"><ellipse cx="2689.7012" cy="785.0257" fill-rule="evenodd" overflow="visible" rx="10.48851" ry="10.660453" style="marker:none" transform="translate(0 -2)" id="ellipse161"/><use xlink:href="#a" fill-rule="evenodd" id="use161"/><use xlink:href="#b" fill-rule="evenodd" stroke-width="2.39667654" overflow="visible" style="marker:none" transform="matrix(1.65957 0 0 1.62366 -1773.2 -485.4)" id="use162"/><ellipse cx="2689.7012" cy="785.0257" overflow="visible" rx="10.48851" ry="10.660453" style="marker:none" transform="translate(0 -2)" id="ellipse162"/></g><g transform="translate(478.9 -708.1)" id="g164"><ellipse cx="2689.7012" cy="785.0257" fill-rule="evenodd" overflow="visible" rx="10.48851" ry="10.660453" style="marker:none" transform="translate(0 -2)" id="ellipse163"/><use xlink:href="#a" fill-rule="evenodd" id="use163"/><use xlink:href="#b" fill-rule="evenodd" stroke-width="2.39667654" overflow="visible" style="marker:none" transform="matrix(1.65957 0 0 1.62366 -1773.2 -485.4)" id="use164"/><ellipse cx="2689.7012" cy="785.0257" overflow="visible" rx="10.48851" ry="10.660453" style="marker:none" transform="translate(0 -2)" id="ellipse164"/></g><g transform="translate(501.6 -704.8)" id="g166"><ellipse cx="2689.7012" cy="785.0257" fill-rule="evenodd" overflow="visible" rx="10.48851" ry="10.660453" style="marker:none" transform="translate(0 -2)" id="ellipse165"/><use xlink:href="#a" fill-rule="evenodd" id="use165"/><use xlink:href="#b" fill-rule="evenodd" stroke-width="2.39667654" overflow="visible" style="marker:none" transform="matrix(1.65957 0 0 1.62366 -1773.2 -485.4)" id="use166"/><ellipse cx="2689.7012" cy="785.0257" overflow="visible" rx="10.48851" ry="10.660453" style="marker:none" transform="translate(0 -2)" id="ellipse166"/></g></g></g><g fill-rule="evenodd" transform="translate(-357.2 -185.1)" id="g169"><path d="M3554 248.6s-3.4 11.6-10.8 23.1c-5 7.8-14.5 14.8-16.1 20.5-.8 2.7-2.3 7.3 0 9.2 3.3 2.7 15.1-1 15.1-1s-12.6 22-12.8 32.5c0 3.5-1.3 9.5 2.3 11.1s12.9-3 12.9-3-4.7 13.6-3.5 19.3q1.2 6.3 7 10.1a84 84 0 0 0 16.3 6.1v-128z" id="path168"/><path d="M3603.8 248.6s2.8 11.3 10.5 23.4c4.6 7.3 14.8 14.8 16.3 20.2.8 2.7 2.4 7.3 0 9.2-3.3 2.7-15.1-1-15.1-1s12.6 22 12.8 32.5c0 3.5 1.3 9.5-2.3 11.1s-12.8-3-12.8-3 4.7 13.6 3.5 19.3c-1 4.2-3 7.5-7 10.1-4.3 2.8-16.4 6.1-16.4 6.1v-128z" id="path169"/></g><path fill-rule="evenodd" d="M3215.1 64.3s-25.3 24.4-33.2 37c-1.2 2-4.4 5.4-2.8 7 5.4 5.7 24.7-8.6 24.7-8.6s-17.3 23.6-21.6 35.2c-1.5 4-5.5 11.5-2.2 14.2 7.3 6 29.5-10.7 29.5-10.7s-20.7 18.8-19 29c2 12 32 25 32 25s27.6-13.2 31-24.6c3-10-11.1-33.2-11.1-33.2s13.7 20.8 20.9 17c4-2 0-10.8-1.3-15.1-3.2-11-17.7-33.6-17.7-33.6s16.5 13.2 21.8 8.6c2.6-2.4-1.1-8.4-2.8-11.4-7.1-12.5-34-33.6-34-33.6z" id="path170"/><rect width="32.856361" height="146.84782" x="3205.2585" y="57.064594" fill-rule="evenodd" overflow="visible" ry="13.075443" style="marker:none" id="rect170"/><rect width="14.081205" height="146.84782" x="3195.4866" y="57.064594" fill-rule="evenodd" overflow="visible" ry="7.0406027" style="marker:none" id="rect171"/><rect width="14.081205" height="146.84782" x="3233.8059" y="57.064594" fill-rule="evenodd" overflow="visible" ry="7.0406027" style="marker:none" id="rect172"/><path fill-rule="evenodd" d="M3196.3 141.8s2.7-5 5.5-18.3a80 80 0 0 1 7.7-17.8V62.4l-4.2-4.4-6.3-.3-3.2 3.4z" id="path172"/><path fill-rule="evenodd" d="M3234 135.2s1.6-14.7 4.5-28c1.6-7.4 9-16.4 9-16.4V62l-4-4.4-6.4-.3-3.2 3.5z" id="path173"/><rect width="14.081205" height="146.84782" x="3195.4866" y="57.064594" overflow="visible" ry="7.0406027" style="marker:none" id="rect173"/><rect width="14.081205" height="146.84782" x="3233.8059" y="57.064594" overflow="visible" ry="7.0406027" style="marker:none" id="rect174"/><g transform="translate(532 -636.6)" id="g175"><ellipse cx="2689.7012" cy="785.0257" fill-rule="evenodd" overflow="visible" rx="10.48851" ry="10.660453" style="marker:none" transform="translate(0 -2)" id="ellipse174"/><use xlink:href="#a" fill-rule="evenodd" id="use174"/><use xlink:href="#b" fill-rule="evenodd" stroke-width="2.39667654" overflow="visible" style="marker:none" transform="matrix(1.65957 0 0 1.62366 -1773.2 -485.4)" id="use175"/><ellipse cx="2689.7012" cy="785.0257" overflow="visible" rx="10.48851" ry="10.660453" style="marker:none" transform="translate(0 -2)" id="ellipse175"/></g><g transform="translate(532 -659.4)" id="g177"><ellipse cx="2689.7012" cy="785.0257" fill-rule="evenodd" overflow="visible" rx="10.48851" ry="10.660453" style="marker:none" transform="translate(0 -2)" id="ellipse176"/><use xlink:href="#a" fill-rule="evenodd" id="use176"/><use xlink:href="#b" fill-rule="evenodd" stroke-width="2.39667654" overflow="visible" style="marker:none" transform="matrix(1.65957 0 0 1.62366 -1773.2 -485.4)" id="use177"/><ellipse cx="2689.7012" cy="785.0257" overflow="visible" rx="10.48851" ry="10.660453" style="marker:none" transform="translate(0 -2)" id="ellipse177"/></g><g transform="translate(532 -682.3)" id="g179"><ellipse cx="2689.7012" cy="785.0257" fill-rule="evenodd" overflow="visible" rx="10.48851" ry="10.660453" style="marker:none" transform="translate(0 -2)" id="ellipse178"/><use xlink:href="#a" fill-rule="evenodd" id="use178"/><use xlink:href="#b" fill-rule="evenodd" stroke-width="2.39667654" overflow="visible" style="marker:none" transform="matrix(1.65957 0 0 1.62366 -1773.2 -485.4)" id="use179"/><ellipse cx="2689.7012" cy="785.0257" overflow="visible" rx="10.48851" ry="10.660453" style="marker:none" transform="translate(0 -2)" id="ellipse179"/></g><g transform="translate(532 -705)" id="g181"><ellipse cx="2689.7012" cy="785.0257" fill-rule="evenodd" overflow="visible" rx="10.48851" ry="10.660453" style="marker:none" transform="translate(0 -2)" id="ellipse180"/><use xlink:href="#a" fill-rule="evenodd" id="use180"/><use xlink:href="#b" fill-rule="evenodd" stroke-width="2.39667654" overflow="visible" style="marker:none" transform="matrix(1.65957 0 0 1.62366 -1773.2 -485.4)" id="use181"/><ellipse cx="2689.7012" cy="785.0257" overflow="visible" rx="10.48851" ry="10.660453" style="marker:none" transform="translate(0 -2)" id="ellipse181"/></g><g transform="translate(532 -727.7)" id="g183"><ellipse cx="2689.7012" cy="785.0257" fill-rule="evenodd" overflow="visible" rx="10.48851" ry="10.660453" style="marker:none" transform="translate(0 -2)" id="ellipse182"/><use xlink:href="#a" fill-rule="evenodd" id="use182"/><use xlink:href="#b" fill-rule="evenodd" stroke-width="2.39667654" overflow="visible" style="marker:none" transform="matrix(1.65957 0 0 1.62366 -1773.2 -485.4)" id="use183"/><ellipse cx="2689.7012" cy="785.0257" overflow="visible" rx="10.48851" ry="10.660453" style="marker:none" transform="translate(0 -2)" id="ellipse183"/></g></g></g></g></g><g fill="#fc0" stroke="#d4aa00" stroke-linecap="round" stroke-linejoin="round" stroke-width="2.93773937" transform="matrix(.47728 0 0 .54624 470.4 267.8)" id="g254"><path stroke-width="3.02099204" d="M878.2-242.5c47.4 0 90.3 3.4 121.2 8.8a181 181 0 0 1 36 9.3 35 35 0 0 1 8.8 4.9q.6.4.6.6t-.6.6a35 35 0 0 1-8.7 4.8c-8.2 3.4-20.7 6.7-36.1 9.4a743 743 0 0 1-121.2 8.7c-47.5 0-90.4-3.3-121.3-8.7-15.4-2.7-27.8-6-36-9.4a35 35 0 0 1-8.8-4.8l-.6-.6q0-.2.6-.6a35 35 0 0 1 8.8-5c8.2-3.3 20.6-6.5 36-9.2 30.9-5.4 73.8-8.8 121.3-8.8" color="#000" font-family="Bitstream Vera Sans" overflow="visible" style="line-height:normal;-inkscape-font-specification:&quot;Bitstream Vera Sans&quot;;text-indent:0;text-align:start;text-decoration-line:none;text-transform:none;marker:none" transform="matrix(1.01636 0 0 .93042 -617.5 564)" id="path186"/><g id="g189"><path d="M495.4 273.7c-9 15.2-24.4 32.7-39.4 43.6l-12.4-6c23.3-9 38.1-23.1 51.8-37.6" id="path187"/><path d="M54.6 273.7c9 15.2 24.4 32.7 39.4 43.6l12.4-6c-23.3-9-38.1-23.1-51.8-37.6" id="path188"/><path d="M149.4 242.3c-2.8 0-5.2 3-4.7 5.8l3.6 18.7c1 5.4.6 11.8-1.4 16.5-2 4.8-5.1 7.9-10.6 8.8-4.4.7-14-2.6-21-7.7-3.6-2.6-6-5.6-8.4-7.8-3.3-3.3-4.6-6.9-9.7-5.8-2.8 2.2-1.9 5-1 7.8 2 5.9 4.5 12.3 3.8 18.6-.2 1.8-.4 2-1.3 2.3.1 0-2 0-5.4-1.7a68 68 0 0 1-11.5-8.4 130 130 0 0 1-19.8-22 5 5 0 0 0-7-1.4 5 5 0 0 0-1.4 7c4.4 6.6 12.8 16 21.6 23.9q6.8 6 13.4 9.7c4.4 2.3 9 4.2 13.8 2.2 4.4-1.7 6.9-6 7.5-10q.5-3.6-.1-7.3c8.4 6.8 17.4 11.4 28.1 10.5 9-.8 15.2-7.7 18.2-14.7l1.3-4q2.3 2.6 5 4.8c7 5.8 15.7 10 24.7 9.5a33 33 0 0 0 26.3-17c7 8.8 18.3 14.8 30.6 14.8 9.6 0 18.3-4.8 24.9-11.3a44 44 0 0 0 6.1-7.5 44 44 0 0 0 6.1 7.5 36 36 0 0 0 24.9 11.3c12.3 0 23.6-6 30.6-14.8q1.9 3.4 4.5 6.3a33 33 0 0 0 21.8 10.7c9 .5 17.6-3.7 24.7-9.5q2.7-2.2 5-4.8l1.3 4c3 7 9.2 13.9 18.2 14.7 10.7 1 19.7-3.7 28.1-10.5q-.6 3.6-.1 7.3c.6 4 3 8.3 7.5 10 4.9 2 9.4.1 13.8-2.2s9-5.8 13.3-9.7a130 130 0 0 0 21.7-24c1.4-2.2.8-5.5-1.4-6.9a5 5 0 0 0-7 1.4 130 130 0 0 1-19.8 22 73 73 0 0 1-11.5 8.4c-3.3 1.7-5.5 1.7-5.4 1.7-1-.3-1.1-.5-1.3-2.2-.7-6.4 1.8-12.8 3.8-18.7.9-2.7 1.9-5.6-1-7.8-5.1-1-6.4 2.5-9.7 5.8-2.3 2.2-4.8 5.2-8.4 7.8-7 5.1-16.6 8.4-21 7.7-5.5-1-8.5-4-10.6-8.8-2-4.7-2.4-11-1.4-16.5l3.6-18.7a5 5 0 0 0-4.7-5.8 5 5 0 0 0-5 4l-3.7 18.6c-.9 4.5-5 10.8-10.7 15.5s-12.5 7.5-17.7 7.2a23 23 0 0 1-15-7.5c-3.5-4-5.8-8.4-5-14a5 5 0 0 0-4.1-5.6c-2.8 0-5.2 1.1-5.8 4-2 10-14.5 21-27.6 21-6-.1-12.8-3.5-17.8-8.5s-8.2-11.5-8.2-16v-11.2c0-2.7-2.4-3-5-3s-5 .3-5 3V261c0 4.4-3 10.9-8.2 15.9s-11.7 8.4-17.8 8.4c-13.1 0-25.5-10.8-27.6-20.9-.6-2.9-3-4-5.8-4a5 5 0 0 0-4 5.7c.7 5.5-1.6 10-5 13.9a23 23 0 0 1-15.1 7.5c-5.2.3-12-2.6-17.7-7.2-5.6-4.7-9.8-11-10.7-15.5l-3.6-18.7c-.5-2.3-2.8-4-5-4" color="#000" font-family="Bitstream Vera Sans" overflow="visible" style="line-height:normal;-inkscape-font-specification:&quot;Bitstream Vera Sans&quot;;text-indent:0;text-align:start;text-decoration-line:none;text-transform:none;marker:none" id="path189"/></g><g stroke-width="3.14842772" color="#000" font-family="Bitstream Vera Sans" transform="matrix(.96187 0 0 .90516 -1149 8.9)" id="g192"><path d="M1480.5 314.2c-53.6 0-102 2.8-137.4 7.4-17.6 2.3-32 5-42.3 8.3a52 52 0 0 0-12.5 5.4c-3.3 2-6.3 5-6.3 9.3s3 7.3 6.3 9.4q4.8 3 12.5 5.4a267 267 0 0 0 42.3 8.3h274.7s32-5.1 42.3-8.3a52 52 0 0 0 12.6-5.4c3.2-2 6.3-5.1 6.3-9.4 0-4.2-3-7.2-6.3-9.3a52 52 0 0 0-12.6-5.4q-15.6-4.8-42.3-8.3c-35.3-4.6-83.8-7.4-137.3-7.4m0 10.1c53.1 0 101.3 2.9 135.9 7.4 17.3 2.3 31.2 5 40.5 7.9q7 2.2 9.9 4.2l1.1.8-1.1 1a44 44 0 0 1-10 4c-9.2 3-23.1 5.7-40.4 8-34.6 4.5-82.8 7.4-136 7.4-53 0-101.2-2.9-135.8-7.4-17.3-2.3-31.3-5-40.5-8q-7-2.2-10-4-1-.7-1-1 0-.2 1-.8 3-2 10-4.2c9.2-2.9 23.2-5.6 40.5-7.9 34.6-4.5 82.7-7.4 135.9-7.4" overflow="visible" style="line-height:normal;-inkscape-font-specification:&quot;Bitstream Vera Sans&quot;;text-indent:0;text-align:start;text-decoration-line:none;text-transform:none;marker:none" id="path190"/><path d="M1480.5 324.3c-53.2 0-101.3 2.9-136 7.4a261 261 0 0 0-40.4 7.9 41 41 0 0 0-10 4.2c-1.3 1-3.1 2.2-3.1 3.6a126 126 0 0 1 13.4 37.4l50.1-14.1 126-5.7 126 5.7 50 14.1c2.7-13.5 6.8-25.1 13.5-37.4 0-1.4-1.8-2.7-3.2-3.6a41 41 0 0 0-10-4.2c-9.2-2.9-23.1-5.6-40.4-7.9-34.6-4.5-82.8-7.4-136-7.4" overflow="visible" style="line-height:normal;-inkscape-font-specification:&quot;Bitstream Vera Sans&quot;;text-indent:0;text-align:start;text-decoration-line:none;text-transform:none;marker:none" id="path191"/><path d="M1480.5 360.3c-49.3 0-94 2.6-126.4 6.9a247 247 0 0 0-39 7.6 48 48 0 0 0-11.7 5c-3 2-6 4.8-6 9s3 6.9 6 8.9q4.6 2.9 11.7 5 14.4 4.4 39 7.6c32.5 4.2 77 6.9 126.4 6.9 49.2 0 93.8-2.7 126.4-7q24.5-3 39-7.5a48 48 0 0 0 11.6-5c3-2 6-4.8 6-9 0-4.1-3-7-6-9a48 48 0 0 0-11.6-5q-14.5-4.3-39-7.5c-32.6-4.3-77.2-7-126.4-7m0 10.2c48.9 0 93.1 2.6 125 6.7 15.9 2.1 28.7 4.6 37.1 7.3q6.5 2 9 3.7l.7.5q0 .2-.6.5-2.6 1.6-9 3.8a261 261 0 0 1-37.2 7.2c-31.9 4.2-76.1 6.8-125 6.8s-93.2-2.6-125-6.8a245 245 0 0 1-37.2-7.2 41 41 0 0 1-9-3.8q-.6-.3-.6-.5l.6-.5q2.5-1.6 9-3.7c8.5-2.7 21.3-5.2 37.2-7.3 31.8-4.1 76-6.7 125-6.7" overflow="visible" style="line-height:normal;-inkscape-font-specification:&quot;Bitstream Vera Sans&quot;;text-indent:0;text-align:start;text-decoration-line:none;text-transform:none;marker:none" id="path192"/></g><g id="g201"><path fill-rule="evenodd" d="m155 318.2 35.2-3.4a6.4 6.4 0 0 1 7 5.8 6.4 6.4 0 0 1-5.8 7l-35.1 3.3a6.4 6.4 0 0 1-7-5.7 6.4 6.4 0 0 1 5.8-7" id="path193"/><path d="M136.5 328a7.8 7.8 0 1 1-15.6 0 7.8 7.8 0 0 1 15.6 0" id="path194"/><path fill-rule="evenodd" d="m395 318.2-35.2-3.4a6.4 6.4 0 0 0-7 5.8 6.4 6.4 0 0 0 5.8 7l35.1 3.3a6.4 6.4 0 1 0 1.2-12.7" id="path195"/><path d="M429 328a7.8 7.8 0 1 1-15.5 0 7.8 7.8 0 0 1 15.6 0" id="path196"/><path d="M335.5 319.6a7.8 7.8 0 1 1-15.6 0 7.8 7.8 0 0 1 15.6 0" id="path197"/><path d="M230.1 319.6a7.8 7.8 0 1 1-15.6 0 7.8 7.8 0 0 1 15.6 0" id="path198"/><path d="M255.9 311.8H294l10 6.6-10 6.7h-38.1l-9.9-6.7z" id="path199"/><path d="m246 318.4 19-.7h20l19 .7m-9.9-6.6-9.2 6 9.2 7.3m-38.2-13.3 9.2 6-9.2 7.3" id="path200"/><use xlink:href="#t" stroke-width="3.83942008" transform="matrix(.80173 -.00708 .0069 .73018 24.8 89)" id="use200"/><use xlink:href="#t" stroke-width="3.83942008" transform="rotate(-179.5 242.7 40)scale(.80176 -.73021)" id="use201"/></g><g id="g253"><g transform="matrix(0 -1 -1 0 517 517)" id="g205"><use xlink:href="#u" id="use202"/><use xlink:href="#v" id="use203"/><use xlink:href="#w" id="use204"/><use xlink:href="#x" id="use205"/></g><g transform="rotate(-90 275 242)" id="g209"><use xlink:href="#u" id="use206"/><use xlink:href="#v" id="use207"/><use xlink:href="#w" id="use208"/><use xlink:href="#x" id="use209"/></g><g id="g213"><use xlink:href="#u" id="use210"/><use xlink:href="#v" id="use211"/><use xlink:href="#w" id="use212"/><use xlink:href="#x" id="use213"/></g><path fill-rule="evenodd" d="M285.1 242a10.1 10.1 0 1 1-20.2 0 10.1 10.1 0 0 1 20.2 0" color="#000" overflow="visible" style="marker:none" id="path213"/><use xlink:href="#y" id="use214"/><use xlink:href="#z" id="use215"/><use xlink:href="#A" id="use216"/><use xlink:href="#B" id="use217"/><use xlink:href="#C" id="use218"/><use xlink:href="#D" id="use219"/><use xlink:href="#E" id="use220"/><use xlink:href="#F" id="use221"/><use xlink:href="#G" id="use222"/><use xlink:href="#H" id="use223"/><use xlink:href="#I" id="use224"/><use xlink:href="#J" id="use225"/><use xlink:href="#K" color="#000" overflow="visible" style="marker:none" id="use226"/><path d="M218.1 258a7.8 7.8 0 1 1-15.5 0 7.8 7.8 0 0 1 15.5 0" id="path226"/><path d="M103.7 269a7.8 7.8 0 1 1-15.6 0 7.8 7.8 0 0 1 15.6 0" id="path227"/><g transform="matrix(-1 0 0 1 550 0)" id="g239"><use xlink:href="#y" id="use227"/><use xlink:href="#z" id="use228"/><use xlink:href="#A" id="use229"/><use xlink:href="#B" id="use230"/><use xlink:href="#C" id="use231"/><use xlink:href="#D" id="use232"/><use xlink:href="#E" id="use233"/><use xlink:href="#F" id="use234"/><use xlink:href="#G" id="use235"/><use xlink:href="#H" id="use236"/><use xlink:href="#I" id="use237"/><use xlink:href="#J" id="use238"/><use xlink:href="#K" color="#000" overflow="visible" style="marker:none" id="use239"/></g><g transform="matrix(-1 0 0 1 550 0)" id="g246"><use xlink:href="#L" id="use240"/><use xlink:href="#M" id="use241"/><use xlink:href="#N" id="use242"/><use xlink:href="#O" id="use243"/><use xlink:href="#P" id="use244"/><use xlink:href="#Q" id="use245"/><use xlink:href="#R" color="#000" overflow="visible" style="marker:none" id="use246"/></g><path d="M331.9 258a7.8 7.8 0 1 0 15.5 0 7.8 7.8 0 0 0-15.5 0" id="path246"/><path d="M446.3 269a7.8 7.8 0 1 0 15.6 0 7.8 7.8 0 0 0-15.6 0" id="path247"/><use xlink:href="#L" id="use247"/><use xlink:href="#M" id="use248"/><use xlink:href="#N" id="use249"/><use xlink:href="#O" id="use250"/><use xlink:href="#P" id="use251"/><use xlink:href="#Q" id="use252"/><use xlink:href="#R" color="#000" overflow="visible" style="marker:none" id="use253"/></g></g></g><!-- app4joy --></svg>