<svg id="Layer_1" x="0px" y="0px" width="800px" height="480px" viewBox="0 0 800 480" xml:space="preserve" xmlns="http://www.w3.org/2000/svg"><g id="g102"><path fill="#FF0000" id="rect1" d="M0 0h800v480H0z"/><path id="rect2" d="M400 0h400v480H400z"/></g><g id="g101"><path fill="#FF0000" d="M399.4 100.7h-.1C315.3 109 315 132 315 132c7.5 29.3 21.6 22.8 21.6 22.8l6.1 6c13.9-12.6 54.7-14.2 56.6-14.2s42.7 1.6 56.5 14.1l6.1-5.9s14.1 6.5 21.6-22.8c0 0-.2-23.1-84.2-31.3" id="path2"/><path fill="#FFCC00" stroke="#A07724" stroke-miterlimit="10" d="M467 156.4s-6.2-2.4-8.6-9.8c0 0-10.6 7.5-15-4.3 0 0-11.3 11.8-21-4.6 0 0-8.7 10.7-22.8 0-14 10.7-22.7 0-22.7 0-9.8 16.4-21.1 4.6-21.1 4.6-4.4 11.8-15 4.3-15 4.3-2.4 7.4-8.5 9.8-8.5 9.8l15.8 15.3-.7 10.5c16.6-13.4 52.2-13.2 52.2-13.2s35.6-.2 52.2 13.2l-.7-10.5z" id="path3"/><circle fill="#FFCC00" stroke="#A07724" stroke-miterlimit="10" cx="399.291" cy="288.338" r="122.764" id="circle3"/><circle fill="#0000CC" stroke="#A07724" stroke-miterlimit="10" cx="399.291" cy="288.338" r="115.398" id="circle4"/><path fill="#FF0000" stroke="#A07724" stroke-miterlimit="10" d="M405.3 156.3c0 2.4-1.3 4.4-3 4.4h-5.8c-1.6 0-3-2-3-4.4s1.4-4.4 3-4.4h5.8c1.7 0 3 2 3 4.4z" id="path4"/><path fill="#FF0000" stroke="#A07724" stroke-miterlimit="10" d="M371.3 159.6c.6 2-.2 4.2-1.8 4.6l-5.5 1.6c-1.6.5-3.4-1-4-3-.6-2.2.2-4.3 1.8-4.7l5.6-1.6c1.5-.5 3.3 1 3.9 3z" id="path5"/><path fill="#FF0000" stroke="#A07724" stroke-miterlimit="10" d="M428.6 159.4c-.7 2 0 4 1.4 4.5l5.3 1.7c1.5.5 3.3-.8 4-2.8s0-4-1.4-4.5l-5.4-1.7c-1.5-.5-3.2.8-4 2.8z" id="path6"/><path fill="#0000CC" stroke="#A07724" stroke-miterlimit="10" d="M388.6 156.8c.3 2.3-.7 4.4-2.4 4.6l-5.7.8c-1.6.2-3.2-1.6-3.5-4-.3-2.3.8-4.4 2.4-4.6l5.7-.7c1.6-.2 3.2 1.5 3.5 3.9z" id="path7"/><path fill="#0000CC" stroke="#A07724" stroke-miterlimit="10" d="M410.7 156.7c-.3 2.3.8 4.4 2.4 4.6l5.7.7c1.6.2 3.2-1.5 3.5-3.9.3-2.3-.7-4.3-2.4-4.5l-5.7-.7c-1.6-.2-3.2 1.5-3.5 3.8z" id="path8"/><path fill="#0000CC" stroke="#A07724" stroke-miterlimit="10" d="m348.1 171.7 5.4-2.3s3.3-6.5-2.7-6.7l-8 3.9z" id="path9"/><path fill="#0000CC" stroke="#A07724" stroke-miterlimit="10" d="m451 171.7-5.3-2.3s-3.3-6.5 2.6-6.7l8 3.9z" id="path10"/><path fill="none" stroke="#A07724" stroke-miterlimit="10" d="M342.8 166.6s53.3-33.2 113.5 0" id="path11"/><path fill="none" stroke="#A07724" stroke-miterlimit="10" d="M348.1 171.7s51.1-24.7 103 0" id="path12"/><path fill="#FFCC00" stroke="#A07724" stroke-miterlimit="10" d="M390 103s-31-13.3-45.4 10.9c0 0 15.5.9 24.5 3.2 0 0 10 1.3 15.6-8.9 0 0 1.6-3.5 5.4-5.1z" id="path13"/><path fill="none" stroke="#A07724" stroke-miterlimit="10" d="M384.7 108.2s-25-6.3-36 6" id="path14"/><path fill="#FFCC00" stroke="#A07724" stroke-miterlimit="10" d="M318.8 139.8s-4.1-29 45-21c0 0 16.6 4.6 21.5-8.1 0 0 6.9-7.8 14.5-7.6v-3s-9.3-3-18 8.8c0 0-6.1 10-19.2 5.2 0 0-54.3-19.4-47.5 28z" id="path15"/><path fill="#FFCC00" stroke="#A07724" stroke-miterlimit="10" d="M318.8 140s-12.9-25.8 26.4-30c0 0 3.8-2.2-.6-2.4 0 0-45-1.7-29.5 34.5z" id="path16"/><path fill="#FFCC00" stroke="#A07724" stroke-miterlimit="10" d="M393.6 100.2s4.5 0 1.5 3.7c0 0-7.2 3-14.6 0 0 0-45-10.6-27.5 25 0 0 2.8 8.9-7 7.3 0 0-23.7-40.3 18.5-39.7 0 0 17.9 1.4 29 3.7z" id="path17"/><path fill="#FFCC00" stroke="#A07724" stroke-miterlimit="10" id="rect17" d="M395.2 102.2h8.4V129h-8.4z"/><path fill="#FFCC00" stroke="#A07724" stroke-miterlimit="10" d="M396.1 74s-9.6-5.6 1.5-7.2c0 0 2.2-13 4.8 0 0 0 10.6 3 1.2 7.2z" id="path18"/><circle fill="#0000CC" stroke="#A07724" stroke-miterlimit="10" cx="399.839" cy="84.14" r="12.166" id="circle18"/><circle fill="#DBDBDB" stroke="#A07724" stroke-miterlimit="10" cx="387.672" cy="100.694" r="3.132" id="circle19"/><circle fill="#DBDBDB" stroke="#A07724" stroke-miterlimit="10" cx="380.091" cy="99.059" r="3.133" id="circle20"/><circle fill="#DBDBDB" stroke="#A07724" stroke-miterlimit="10" cx="372.311" cy="97.562" r="3.132" id="circle21"/><circle fill="#DBDBDB" stroke="#A07724" stroke-miterlimit="10" cx="333.558" cy="106.959" r="3.132" id="circle22"/><circle fill="#DBDBDB" stroke="#A07724" stroke-miterlimit="10" cx="321.89" cy="111.408" r="3.132" id="circle23"/><circle fill="#DBDBDB" stroke="#A07724" stroke-miterlimit="10" cx="310.671" cy="130.953" r="3.132" id="circle24"/><circle fill="#DBDBDB" stroke="#A07724" stroke-miterlimit="10" cx="312.451" cy="139.33" r="3.133" id="circle25"/><circle fill="#DBDBDB" stroke="#A07724" stroke-miterlimit="10" cx="342.832" cy="127.82" r="3.132" id="circle26"/><circle fill="#DBDBDB" stroke="#A07724" stroke-miterlimit="10" cx="362.962" cy="96.306" r="3.854" id="circle27"/><circle fill="#DBDBDB" stroke="#A07724" stroke-miterlimit="10" cx="352.479" cy="97.562" r="3.854" id="circle28"/><circle fill="#DBDBDB" stroke="#A07724" stroke-miterlimit="10" cx="312.451" cy="119.458" r="3.854" id="circle29"/><circle fill="#DBDBDB" stroke="#A07724" stroke-miterlimit="10" cx="340.737" cy="118.005" r="3.853" id="circle30"/><circle fill="#DBDBDB" stroke="#A07724" stroke-miterlimit="10" cx="343.253" cy="105.496" r="4.878" id="circle31"/><path fill="#FFCC00" stroke="#A07724" stroke-miterlimit="10" d="M409.2 103s31.1-13.3 45.5 10.9c0 0-15.6.9-24.6 3.2 0 0-10 1.3-15.5-8.9 0 0-1.6-3.5-5.4-5.1z" id="path31"/><path fill="none" stroke="#A07724" stroke-miterlimit="10" d="M414.6 108.2s25-6.3 36 6" id="path32"/><path fill="#FFCC00" stroke="#A07724" stroke-miterlimit="10" d="M480.5 139.8s4.1-29-45-21c0 0-16.6 4.6-21.6-8.1 0 0-6.8-7.8-14.5-7.6v-3s9.4-3 18.2 8.8c0 0 6 10 19.1 5.2 0 0 54.3-19.4 47.5 28z" id="path33"/><path fill="#FFCC00" stroke="#A07724" stroke-miterlimit="10" d="M480.5 140s12.9-25.8-26.4-30c0 0-3.8-2.2.6-2.4 0 0 45-1.7 29.5 34.5z" id="path34"/><path fill="#FFCC00" stroke="#A07724" stroke-miterlimit="10" d="M405.7 100.2s-4.5 0-1.5 3.7c0 0 7.2 3 14.6 0 0 0 45-10.6 27.5 25 0 0-2.8 8.9 7 7.3 0 0 23.7-40.3-18.6-39.7 0 0-17.8 1.4-29 3.7z" id="path35"/><circle fill="#DBDBDB" stroke="#A07724" stroke-miterlimit="10" cx="411.594" cy="100.694" r="3.132" id="circle35"/><circle fill="#DBDBDB" stroke="#A07724" stroke-miterlimit="10" cx="419.175" cy="99.059" r="3.132" id="circle36"/><circle fill="#DBDBDB" stroke="#A07724" stroke-miterlimit="10" cx="426.956" cy="97.562" r="3.132" id="circle37"/><circle fill="#DBDBDB" stroke="#A07724" stroke-miterlimit="10" cx="465.708" cy="106.959" r="3.132" id="circle38"/><circle fill="#DBDBDB" stroke="#A07724" stroke-miterlimit="10" cx="477.376" cy="111.408" r="3.132" id="circle39"/><circle fill="#DBDBDB" stroke="#A07724" stroke-miterlimit="10" cx="488.595" cy="130.953" r="3.132" id="circle40"/><circle fill="#DBDBDB" stroke="#A07724" stroke-miterlimit="10" cx="486.815" cy="139.33" r="3.133" id="circle41"/><circle fill="#DBDBDB" stroke="#A07724" stroke-miterlimit="10" cx="436.303" cy="96.306" r="3.854" id="circle42"/><circle fill="#DBDBDB" stroke="#A07724" stroke-miterlimit="10" cx="446.788" cy="97.562" r="3.854" id="circle43"/><circle fill="#DBDBDB" stroke="#A07724" stroke-miterlimit="10" cx="486.815" cy="119.458" r="3.854" id="circle44"/><circle fill="#DBDBDB" stroke="#A07724" stroke-miterlimit="10" cx="458.529" cy="118.005" r="3.854" id="circle45"/><circle fill="#DBDBDB" stroke="#A07724" stroke-miterlimit="10" cx="456.014" cy="105.496" r="4.878" id="circle46"/><circle fill="#FFCC00" stroke="#A07724" stroke-miterlimit="10" cx="399.839" cy="100.096" r="7.379" id="circle47"/><circle fill="#DBDBDB" stroke="#A07724" stroke-miterlimit="10" cx="399.44" cy="107.476" r="3.132" id="circle48"/><circle fill="#DBDBDB" stroke="#A07724" stroke-miterlimit="10" cx="399.44" cy="112.471" r="3.132" id="circle49"/><circle fill="#DBDBDB" stroke="#A07724" stroke-miterlimit="10" cx="399.44" cy="118.005" r="3.132" id="circle50"/><path fill="#FFCC00" stroke="#A07724" stroke-miterlimit="10" d="m480.4 139.8-3.2 4.8s-9.3-3.3-3.1 4.2c0 0-8.9 12.3-12.4-2.7l-3.2-2.2s-11.8 8.5-11-4c0 0 14.6-.4 2-7.4 0 0-.4-14.2-6.7-1 0 0-14-2.7-1.8 7.4 0 0-8 13.2-16.1-4.1l-3-.6s-12.6 14.5-18.7-1.7c0 0 20.2-6 0-7.5 0 0 .7-7.5-3.4-7.9h-.4c-4 .4-3.4 8-3.4 8-20.2 1.4 0 7.4 0 7.4-6.1 16.2-18.7 1.7-18.7 1.7l-3 .6c-8 17.3-16.1 4.1-16.1 4.1 12.3-10.1-1.8-7.4-1.8-7.4-6.3-13.2-6.7 1-6.7 1-12.6 7 2 7.5 2 7.5.8 12.4-11 3.9-11 3.9l-3.2 2.2c-3.5 15-12.4 2.7-12.4 2.7 6.2-7.5-3.1-4.2-3.1-4.2l-3.2-4.8-3.7 2.3 9.1 12.2c11.6 11.1 17.4-4.7 17.4-4.7 14 4.6 15-4.8 15-4.8 11.8 11.5 20.9-5 20.9-5 10.6 11.5 21.5-.3 22.1-1 .6.7 11.5 12.5 22.1 1 0 0 9.1 16.5 21 5 0 0 .9 9.4 15 4.8 0 0 5.8 15.8 17.3 4.7l9-12.2z" id="path50"/><circle fill="#FFCC00" stroke="#A07724" stroke-miterlimit="10" cx="375.443" cy="132.008" r="4.188" id="circle51"/><circle fill="#FFCC00" stroke="#A07724" stroke-miterlimit="10" cx="337.747" cy="142.38" r="4.188" id="circle52"/><circle fill="#FFCC00" stroke="#A07724" stroke-miterlimit="10" cx="424.01" cy="132.008" r="4.188" id="circle53"/><circle fill="#FFCC00" stroke="#A07724" stroke-miterlimit="10" cx="462.206" cy="142.28" r="4.189" id="circle54"/><path fill="#FFCC00" stroke="#A07724" stroke-miterlimit="10" d="M388.7 89s11.5-4.5 22 .7c0 0 1.6-2.4 1.3-5.2 0 0-6.3-2.4-9.4-2 0 0-3.2-6.7-5.4 0 0 0-4.3-.2-9.5 2.9 0 0 .2 2.1 1 3.6z" id="path54"/><g id="g73" fill="#FFCC00" stroke="#A07724" stroke-miterlimit="10"><path d="m339.7 354.7 8.7 6.8-12.8 16.4-8.4-6.5 1.4-1.7 6.4 5 4.2-5.5-5.9-4.6 1.4-1.7 5.9 4.6 4.5-5.7-6.8-5.3z" id="path55"/><path d="m323.5 335.9 1.9 2.3-3.5 8.7-.5 1 1.2-.2 9.3-1 1.8 2.4-12.5.9-4.3 11.4-1.9-2.4 3.3-7.8.7-1.5-1.8.2-8.4 1-1.7-2.3 12.2-1.1z" id="path56"/><path d="M309.8 299.7q1.6 2 2.4 5.4 1 4.3-1.3 7.5a11 11 0 0 1-6.8 4.2q-5 1-8.5-1.2-3.7-2.3-4.6-6.9-.7-2.8-.2-5l2.5-.5a10 10 0 0 0-.2 5.1q.8 3.4 3.6 5.2a9 9 0 0 0 6.7.8 9 9 0 0 0 5.5-3.3 7 7 0 0 0 1-5.8q-.6-3-2.4-5z" id="path57"/><path d="M289.5 283.9h2.1v2l16.6.3v-2h2.1v6.5H308v-2l-16.6-.3v2h-2z" id="path58"/><path d="m315.2 258-.8 2.8-18.7 6.3-1.4.3 2.7.7 14.6 3.7-.6 2.4-20.2-5.2.8-3 18.4-6 1.6-.6-3-.6-14.2-3.7.6-2.4z" id="path59"/><path d="m325.8 237.7-5.6 9.5-18-10.6 5.4-9 2 1-4.2 7 6 3.6 3.8-6.5 1.9 1.1-3.9 6.5 6.3 3.7 4.4-7.4z" id="path60"/><path d="m342.8 219-2 2-6.6-1.7-1.6-.3h-1.4q-.6 0-1 .3l-1 .7-1.5 1.5 6.3 6.2-1.8 1.8-14.6-14.8 4.4-4.4q1-.9 2-1.5t2.2-.7q1 0 2.1.3 1.1.4 2 1.4.9.7 1.3 1.6a5 5 0 0 1 .3 3.7l-.8 2a4 4 0 0 1 2-.3l1.2.1 1.4.4zm-22-4.5 5.4 5.4 2.3-2.3 1-1.4q.4-.8.4-1.5t-.2-1.6-1-1.4a3 3 0 0 0-2.6-1q-1.4 0-2.9 1.5z" id="path61"/><path d="m353.9 188 3.3 21.9-2.3 1.3-16.7-14.6 2.3-1.3 13 11.6 1.4 1.4-.5-1.9-2.8-17.2z" id="path62"/><path d="m372.9 203.1-4.9-20.2 5.8-1.4q2.6-.6 4.5.3t2.3 3a5 5 0 0 1-.2 3.2q-.6 1.5-2.1 2.4 2.1-.2 3.6.8t2 3.1q.7 2.6-.8 4.7a7 7 0 0 1-4.3 2.7zm-2-18.7 1.6 6.6 2.4-.6q2-.5 2.9-1.7t.4-2.9q-.7-3-4.5-2zm2.1 8.7 1.7 7.3 3.3-.8a5 5 0 0 0 3-1.7q.9-1.3.5-3-.9-3.6-5.8-2.4z" id="path63"/><path d="m412.1 178.9-8.4 20.5H401l-6.8-21.1h2.7l5.2 16.7.4 1.9.6-1.9 6.4-16.2z" id="path64"/><path d="m420 200.6.8-2.7q.3.6 1 1.1a10 10 0 0 0 2.5 1.8l1.3.5q2.1.7 3.5.2 1.2-.5 1.7-2 .3-.8.1-1.4-.2-.8-.6-1.4-.5-.8-1.2-1.4l-3.2-3.2q-.7-.8-1.2-1.7l-.6-1.8.2-2q.5-1.5 1.4-2.2 1-.9 2-1.2 1.2-.3 2.6-.3 1.3 0 2.6.5 3 1 4 2l-.8 2.6q-1.4-1.7-4.1-2.6l-1.6-.3-1.5.1q-.7.2-1.2.6-.6.5-.9 1.3v1.4q0 .7.5 1.3l1 1.3 3.3 3.2 1.2 1.8q.6 1 .7 2t-.2 2q-.4 1.5-1.3 2.4a5 5 0 0 1-2.1 1.1q-1.2.4-2.5.3a13 13 0 0 1-6.6-2.5z" id="path65"/><path d="m466.3 229.1-2.2-2 3.5-19.5.4-1.4-2 2.1-10.2 11-1.8-1.7 14.3-15.2 2.3 2.2-3.6 19-.3 1.6 2-2.2 10-10.7 1.8 1.6z" id="path66"/><path d="M481.3 252.5 480 250l4-4.8-4.4-7.6-6 1-1.4-2.3 22-3.4 1.3 2.2zm4.2-9 6-7.2 1.1-1-1.4.4-9.3 1.6z" id="path67"/><path d="m485 260.3 2.7-.7-.5 1.4a9 9 0 0 0-.2 3.1q0 .8.3 1.4.5 2.3 1.6 3 1 1 2.6.6.8-.2 1.3-.8.6-.4.9-1.2l.6-1.8 1-4.3.9-2q.4-.8 1.2-1.3t1.9-1a5 5 0 0 1 4.6 1.2q.9.9 1.5 2t1 2.5q.7 3 .4 4.6l-2.7.6q.9-2 .1-4.9l-.5-1.5q-.4-.7-1-1.2t-1.1-.8H500l-1.3.6-.8 1.1-.5 1.6-1.1 4.5-1 2-1.2 1.6q-.8.6-2 .9-1.4.4-2.6 0a5 5 0 0 1-2-1.1 7 7 0 0 1-1.6-2 13 13 0 0 1-1.3-6.9z" id="path68"/><path d="M489 297.5q-1.1-2.4-1-5.8 0-4.5 2.9-7 3-2.7 7.5-2.6 5 0 8 3.1 3 3 3 7.7 0 3-1 4.9H506a10 10 0 0 0 1.3-5q0-3.6-2.3-5.8a9 9 0 0 0-6.4-2.4q-3.7 0-6 2a7 7 0 0 0-2.4 5.5q0 3 1.3 5.4z" id="path69"/><path d="m505.3 317.4-2-.5.4-2-16.1-3.9-.5 2-2-.5 1.5-6.3 2 .5-.5 2 16.2 3.9.5-2 2 .5z" id="path70"/><path d="m493.3 341.3 2.6-5.5-16.8-8 1-2.2 16.9 8 2.5-5.4 2 1-6.2 13z" id="path71"/><path d="M476.9 366.6 466 347.2l1.7-2 20.7 7.8-1.7 2-16.3-6.3-1.7-.9 1 1.6 8.8 15.2z" id="path72"/><path d="m441.3 367.3 2.5-1.6 6.1 3 1.5.6 1.3.2 1.2-.1 1-.5 1.7-1.1-4.9-7.4 2-1.4 11.6 17.3-5.2 3.5q-1.1.8-2.2 1.1l-2.3.3q-1-.2-2-.8t-1.8-1.7q-.6-.9-.8-1.9a5 5 0 0 1 .4-3.6q.4-1 1.1-1.7h-1l-1-.2q-.6 0-1.1-.4l-1.3-.6zm20.8 8.6-4.2-6.3-2.8 1.8-1.2 1.2-.7 1.4q-.2.7 0 1.5 0 .8.6 1.6.9 1.4 2.4 1.6 1.5.1 3-1z" id="path73"/></g><circle fill="#DBDBDB" stroke="#A07724" stroke-miterlimit="10" cx="456.34" cy="127.82" r="3.133" id="circle73"/><path fill="#FFCC00" stroke="#A07724" stroke-miterlimit="10" d="m465.4 240.3 10.2-12.8H454a81.4 81.4 0 0 0-109.2 0h-21.5l10.1 12.6a81.7 81.7 0 1 0 132.1.2zm-66.1-28.8c17.7 0 34 6 47 16h-93.9c13-10 29.2-16 46.9-16zm37.2 144q-15.2 8.6-33.5 9.6c4.9-4.3 15.3-10.5 33.5-9.5zm-40.6 9.6a76 76 0 0 1-33.8-9.5c18.4-1 28.9 5.2 33.8 9.5zm-73.4-76.8c0-16.4 5.2-31.7 14-44.2l7.9 10v88a77 77 0 0 1-22-53.8zm132 53.5V254l7.7-9.7a76.5 76.5 0 0 1-7.7 97.5z" id="path74"/><path fill="#0000CC" stroke="#A07724" stroke-miterlimit="10" d="M399.4 232.3h-66l16.4 21.7.1 85c1.8 11.4 15.8 10.6 15.8 10.6 24.8-1.4 33.7 12 33.7 12.1s9-13.5 33.8-12c0 0 14 .7 15.8-10.7l.1-85 16-21.7z" id="path75"/><g id="g100" stroke="#A07724" stroke-miterlimit="10"><path fill="#FFCC00" d="M388.5 295.7s-7.5-7.2-6.4-18c0 0 2-5.3-17-8.3 0 0-13.4-1.1-1.4 6.1 0 0-8.2 2.1-.3 4.5 0 0-2.6 3.9 4.4 6.9 0 0-8 2.8.6 7.2 0 0-2.4 5.5 5.2 5.4 0 0-7.8 8.8 9 5 0 0 7.4-.9 6-8.8z" id="path76"/><path fill="#FFCC00" d="M393 267.6s5.8-8 12.7-2.8c0 0 5 3.4 0 10.4 0 0-14 15.8 2.2 17.4 0 0 7.9 2.2 8.7-13 0 0 .7-4.6 12.5-6.4 0 0 3.6-.4 5-3 0 0 1.6-3.6 4.4-1.8 0 0 3.7.4-3.6 9.5 0 0 6 1.5-4.3 8.9 0 0 13.7-1-3.9 7.6 0 0 5.6 4.2-2.6 8 0 0 12.5 1.1-13 10 0 0-2 8.5-8 16 0 0 2.8 7.8 1 10.8h-26.3s-.9-8.5 8.8-11.1c0 0-14.2-14.2-1.7-31.3 0 0 11.3-15.6 10.3-23 0 0-3.7-2.8-2.2-6.2z" id="path77"/><path fill="#FFCC00" d="M394.2 266.3s-6.8-2.6-5.5 4.7c0 0 1 1.2 3.7 0 0 0 1.4 1.7 0 4.4 0 0 3.5 1.2 5.1-2.6 0 0 .3-4.3-3.3-6.5z" id="path78"/><path fill="#FFCC00" d="M387 335.4s5-7.7 4.8-16.4c0 0 4.3-.9 8.5 17.4 0 0 3 6.3 10.7-10.6 0 0 1.9-7.2 11-4.8 0 0 3 3.7-5.7 8.5 0 0-5.2 5.6.5 5.7 0 0 6.3 0 8-7 0 0-.8-17.2 4.7-3.6 0 0 8.4-15.9 5.7 2.4 0 0-2.9 13-14.8 14.8H371s-15.7-.3-11.7-22.7c0 0 3.2-15.5 4 4.7 0 0 .8 2.7 1.7 1 0 0 2.1-12 4.7-10 0 0 2.4 2-1 11 0 0-3 6.7 6.8 8.4 0 0-4.3-7.2-.7-18 0 0 1.9 20.5 12.2 19.2z" id="path79"/><path fill="#FFCC00" d="M398.1 267.3s1 2.2 3.7.6c0 0-1.5-3.2-3.7-.6z" id="path80"/><path fill="none" d="M363.7 275.5s8.2 2.3 14 1.8" id="path81"/><path fill="none" d="M367.8 286.9s6.8.9 10 0" id="path82"/><path fill="none" d="M363.4 280s9.8 2.2 14.4.9" id="path83"/><path fill="none" d="M368.4 294s5.7 1 10.6-.6" id="path84"/><path fill="none" d="M373.6 299.5s4.7-.4 7.4-2" id="path85"/><path fill="none" d="M434.9 277.9s-7.2 5.3-13.6 5" id="path86"/><path fill="none" d="M430.6 286.8s-5.7 3.8-12.6 3" id="path87"/><path fill="none" d="M426.7 294.4s-8 3.2-13.8 1.3" id="path88"/><path fill="none" d="M424.1 302.3s-6.2 1.5-11.2 1" id="path89"/><path fill="none" d="M411 312.3s-4.4-.4-2-10.7" id="path90"/><path fill="none" d="M399.4 295.9s-10.2 4.5-6.4 12" id="path91"/><path fill="none" d="M401.8 299.5s-4 5.3-1.2 9" id="path92"/><path fill="none" d="M388.5 312s-2.2 5.2.9 7" id="path93"/><path fill="none" d="M397.2 312s.5 4.7 4.6 4.5" id="path94"/><path fill="none" d="M388.6 291.2s-.2 4.3 7.7 2.2" id="path95"/><path fill="none" d="M386 300s-2.7 5.3 1 7" id="path96"/><path fill="#FFCC00" id="polygon96" d="m399.6 236.9 1.7 4.9 5.2.1-4.1 3.2 1.5 4.9-4.3-2.9-4.3 2.9 1.5-4.9-4.1-3.2 5.2-.1z"/><path fill="#FFCC00" id="polygon97" d="m378.4 240.2 3.3 4.1 4.9-1.7-2.8 4.3 3.1 4.2-5-1.3-3 4.2-.3-5.2-4.9-1.5 4.8-1.9z"/><path fill="#FFCC00" id="polygon98" d="m359.8 250.6 4.5 2.7 4-3.3-1.1 5.1 4.3 2.8-5.1.5-1.4 5-2-4.8-5.2.3 3.9-3.4z"/><path fill="#FFCC00" id="polygon99" d="m420.6 240.2-3.2 4.1-4.9-1.7 2.8 4.3-3.1 4.2 5-1.3 3 4.2.2-5.2 5-1.5-4.8-1.9z"/><path fill="#FFCC00" id="polygon100" d="m439.2 250.6-4.4 2.7-4.1-3.3 1.2 5.1-4.4 2.8 5.2.5 1.4 5 2-4.8 5.2.3-3.9-3.4z"/></g></g><!-- app4joy --></svg>