<svg width="900" height="600" id="svg19" viewBox="0 0 900 600" xmlns:xlink="http://www.w3.org/1999/xlink" xmlns="http://www.w3.org/2000/svg"><defs id="defs4"><radialGradient cx="257.412" cy="61.089" r="29.308" id="a" gradientUnits="userSpaceOnUse"><stop offset="0" stop-color="#f9ebca" id="stop1"/><stop offset=".489" stop-color="#f7e3b2" id="stop2"/><stop offset="1" stop-color="#dac69a" id="stop3"/></radialGradient><radialGradient xlink:href="#a" id="d" gradientUnits="userSpaceOnUse" cx="257.412" cy="61.089" r="29.308"/><filter id="e" color-interpolation-filters="sRGB" x="-0.021600075" y="-0.033792672" width="1.0432002" height="1.0675853"><feGaussianBlur stdDeviation="1.595" id="feGaussianBlur3"/></filter><filter id="f" color-interpolation-filters="sRGB" x="-0.011520509" y="-0.012528474" width="1.023041" height="1.0250569"><feGaussianBlur stdDeviation="1.595" id="feGaussianBlur4"/></filter></defs><g id="g20"><path d="M0 0h900v600H0z" fill="#ffcc1e" id="path4"/></g><g id="g19"><use transform="matrix(-1 0 0 1 900 0)" width="600" height="400" xlink:href="#b" id="use4"/><use transform="matrix(-1 0 0 1 900 0)" width="600" height="400" xlink:href="#c" id="use5"/><g id="c" transform="scale(1.5)" stroke="#9c7c4b" stroke-width="1.369"><circle cx="257.411" cy="61.405" r="32.861" fill="none" id="circle5"/><circle cx="257.412" cy="61.087" r="29.309" fill="url(#d)" id="circle6"/></g><g id="b"><path d="M194.6 329q-3.9.1-7.4-3.8c-4.3-4.4-2.7-10.8-2.7-10.8s-1.6-2.2 0-4.3 6.1-3.7 6.2-3.7c0 0 .8-4.3 2-5.6 1.4-1.3 4.6-8.4 4.6-8.5l-2.4.3c-1.2.1-1.7 1.4-2.2 2.7-.5 1-.9 2-1.8 2q-1.5-.1-2.5-1.3-.8-.9-1.8-1l-.4.1q-.2.4-.2 1 .2 1.2-.4 2.3-1 1.2-2.4 1-1.7 0-3-.7-.7-.4-1.8-.4l-1.4.1c.1 0 .6.2.6 1.4 0 1.4-1.6 4-4.7 4h-.4c-3.5-.3-4-4.3-4-4.3s-2.2.3-2.2 2.6 2.7 8.5 2.7 8.5-8.8-5.6-9-12.2c-.4-6.5 7.6-10 7.7-10 0 0-.5-3 2.1-3.5h.7c2.4 0 4.4 2 4.4 2.1q-.2.1 2 .2 2.4 0 6.5-.5c7.4-.7 8.8-2 8.9-2-.2 0-4-.6-4.6-2.2a4 4 0 0 0-1.9-2.1s-1 2.1-3.2 3.2l-.9.2c-1.4 0-2-2-2-2 0-.1-.7-2.3-2.2-2.3h-.5l-.5.5c-.8 1.6.8 6.4.8 6.5h-.3q-.6.2-2.1-1.3c-1.8-2.1-4-5.5-1.9-11.2 1.8-5 6.9-5.3 8.4-5.3h.4l3.5-2.4.9-.2c1.9 0 3 3.8 3.4 5.3.5 1.8 1 2.3 3.5 2.3 2 0 2.5.6 3.4 1.5l.6.7q.6.6 1.9.6c1 0 2-.4 2-.4l1.4-.5.5-.2c1.5-.3 4.5-1.2 16.3-14.1 13.2-14.5 23.5-42 23.6-42.2.4 0 6.8 9 9.9 15.7q2.4 5.3 1.3 6.6a42 42 0 0 1-7.4 6.5l-2 1.4a69 69 0 0 0-12.2 12.5q-2.3 3-4.2 4.8-1.8 1.5-2.8 3.2c-1.3 2.3-3.2 4.8-4.3 4.8s-2.8 3-3 3.1h.5a6 6 0 0 0 2.2-.5q.7-.3 1.7-.3c1.6 0 3.2.5 3.2.6s.2-3 1-4.3c.7-1.2 2-2.3 3.5-2.3q.6 0 1 .2c2 .8 2.7 2.6 2.8 2.6 0 .1 6.1 6 6.6 13q.3 3-1.3 4.7c-1.7 1.8-4.4 2-5.5 2h-.4s1.9-3.2 1.6-5.9c-.3-2.6-2.4-4-2.4-4s-.2 1.1-.2 2.5-2 3.4-4.3 3.4c-1.3 0-2-1-2.5-1.8q-.7-1.3-1.8-1.6h-.2l-.5.1q-.2.4 0 1l-.1 1q-.2.3-.5.3c-1.6 0-4.3 0-5.7-1.4q-.6-.6-1.3-.6-1.3 0-2.1 1.7c-.8 1.6-1.7 2.1-3.5 2.1-1.6 0-1.6 0-2.5.9l-.4.4q-1 1.3-.7 3l-.1 2.6-.3 1.6c-.1 1.5-.2 2.7-2.4 2.7q-1.2 0-1.4.3t.3 1.3q.7 1.2 1 4 .3 1.8-.7 3c-1.4 1.5-4 1.7-5.1 1.7q-.6 0-.7.2 0 .4.7 1.3l.3.4a9 9 0 0 1 1.4 5.2q0 .8-.6 1.1t-1.5.4c-1.6 0-3.6-.9-3.6-.9l.5 3c.6 2.8 7 3.4 7 3.4s-.6 2.4-3.5 3z" fill="#780000" transform="scale(1.5)" id="path6"/><path d="M195.3 327.3a9 9 0 0 1-6.8-2.8c-3.8-4.1-2.5-9.6-2.5-9.6q.6.1 1.6 1 .4.6.3 1 0 .6.2 1 .2.3.4.3t1.1-.9q.7-1 1-1c.4 0 .5.5.5.5s-.1 2.4.8 5.4 6.2 4.7 6.2 4.7-1.2.3-2.8.3m1.4-8.3-.7-.2a10 10 0 0 1-2.5-2q-1.5-1.7-3.5-2.8-2.7-1-3.8-1h-.6s.4-3 2.1-3.8l1.7-.7s6.3 4.7 7.4 7q1 2.1.5 3.2-.2.3-.6.3m-5.4-11.2s1-1.8 1.5-3.6q.6-1.4 2.5-4.2a36 36 0 0 0 5.2-10.3q1.3-2.7 1.6-4.3v-2c-.2-1.6-.3-3.7.7-4.7q.5-.6 2-1.7a104 104 0 0 0 20.1-20c8-11.2 18.1-32.7 18.4-33.5.2.2 3.6 3 4.5 5 .6 1.4-3 6.3-6.7 11.1q-2.9 3.7-4.6 6.4c-1.9 3-7.1 9.2-11.7 14.7l-7.2 8.8a16 16 0 0 0-3.1 6.4c-.4 1.2-.5 1.9-1.4 1.9h-.4l-.4-.1c-1.2 0-1.7 1.2-2.2 2.4-.4.9-.8 1.8-1.4 1.8-1 0-2.6 1-3.4 2q-.6.9-.6 1.3l.2.6c.3 1.2.9 3.5-.6 4-1.7.5-2.8 2-2.6 3.5v.1c.2 1.5.3 2.5-1 3-.9.2-2.1 1.1-2.5 2q-.1.6.1 1a7 7 0 0 1-2.4 4.7q-1 .9-1.4 2.5l-2 2.5zm-25.3-1s-4.6-4-4.6-8.6c0-4.7 6.4-8 6.5-8.1 2.8 2.2 1.7 7.3 1.7 7.3s-1.7 0-3.8 1.7.2 7.6.2 7.7" fill="#a8121c" transform="scale(1.5)" id="path7"/><path d="M173.6 301.8c-1.3 0-3-1.2-3-2l-.3-.9s1.2-1.7.8-4.8c-.4-3.2-1.7-5.7-1.7-5.7s.2-2 1.8-2h.3c1.8.1 3.5 3.2 4 6.7.3 3.4.3 7.7-1 8.5zm8.8-4-.5-.2q-.7-.5-2.3-.5l-1.9.1-.6-3.5a27 27 0 0 0-1.1-4.7h.3c2 0 13.7-.8 16.7-2.3 3.4-1.6 7.1-6.9 7.2-7l-.4 1q-.2 1 .2 2.6l.4 2.1c.2 1.9-1.5 3.8-1.5 3.8h-1.4c-1.6 0-3.6.1-4.3 1-.8.9-1.5 2.8-2 4l-.4 1.2-.3.1c-1 0-3.9-3-4.5-3.5q-.3-.4-.7-.4c-.8 0-1.2 2-1.2 3.2 0 1.4-.7 3-1.7 3m54.8-8.2c0-.1-.2-5.7-4.7-8.1 0 0-1.1-3.2-.2-4.7l1-1.5s6.4 6.8 6 10.5-2 3.8-2 3.8zm-61.6-5s-4-1.6-2-8.6c1.5-5.5 5.4-6 7-6h.8c-2.9 3-1.6 9.1-1.6 9.2s-1-1-2.8-1h-.4l-.7.5c-1.1 1.4-.3 5.9-.3 6z" fill="#a8121c" transform="scale(1.5)" id="path8"/><path d="M194.3 283.3s-3.7 0-5.1-2q-1.5-1.7-2.4-2.2-.5-.2-.4-.5s1.2-2.2 1.8-3.8l.7-1.6s1.4 2.1 3.5 2.1c1.9 0 2.5.6 3.4 1.5l.5.4c1.2 1 4 1 4 1l-1.6 1.8a22 22 0 0 1-4.4 3.3m-11.7-1.8c-1 0-1.9-.8-2-1 0 0-.2-4.4.3-6.6a9 9 0 0 1 3.7-5.5l.5-.1c1.5 0 3.3 3.5 3.3 3.6 0 0-3.6 7.6-4.7 9q-.5.6-1.1.6" fill="#a8121c" transform="scale(1.5)" id="path9"/><path d="M199.8 310c-1.5 0-2.8-1-3.4-1.9-.7-1 0-2.4 0-2.4h.2q.5 0 1.5-1.3l.2-.2q.5-.7.8-2c.4-1.6 1-3.5 2.4-4.4 1.2-.8 1.3-2 1.4-3.3s.2-2.4 1.3-3c1.3-1 1.7-2.8 2-4.5q.3-1.6.8-2.5 1-1.1 2.3-1.1 1.5-.1 1.8-1c.4-1.5 1.5-3.4 2.9-4 1.1-.4 2-2.5 2.9-4.6l.3-.8c1-2.3 6-8.3 10.4-12.7a120 120 0 0 0 12.5-16c1.8-3.2 9.1-12 9.2-12s2 10-3.2 13.9c-5.5 4-17.6 15.7-19.4 18.6-2 3-7.4 9-10.3 11.4q-1 1-.8 1.8c.3.7 1.6 1 2.8 1l1.6-.2 1.4-.2 1.7.2q1 .4 2.6.4c2.1 0 2.3-1.7 2.5-3.5l.1-1.4q.4-1.6 1.8-1.6.7 0 1 .5.3.3 0 .8c-.5 1.4-.6 5-.8 8.6v.4q-.2 2.2-1.7 2.2-1.3-.1-2.6-1h-.3l-.9-.6c-1-.5-2.2-1.2-3.3-1.2l-.9.2q-.9.6-1.3 1.4-.4 1.1-1.7 1.3h-.4l-1.5-.2q-1.7 0-2.8 1.4-1.2 1.3-3 1.8l-2.3.9q-3.3 1.4-3.6 7.1c-.2 3.4-2.4 4-3.8 4.3q-.5.1-.6.4t.3 1 .7 1.8l.3 1.6c.3 1.4.7 3.2.2 4l-.5.4z" fill="#850e17" transform="scale(1.5)" id="path10"/></g><path d="M391.5 73.3c-6.7 0-15.5 1.6-18.3 2.9-2.7 1.2-8.7 5.8-8.7 7.8l15.8 19c40.8 8.6 13.5 9.6 14.3 14 4.4.1 10.4 2.7 14.3 5.8 1.8 1.6 2.7 8 1 14.5q-.6 2.8-3.3 2.8c-3.4 0-8.3-3.8-8.4-3.8s-.2 1.8 2.6 5.3q1.7 2 5.7 2c2.3 0 4.3-.5 4.3-.5 0 .1-1.7 7.8-4.3 11q-.9 1-2.2 1.1c-2.4 0-5.2-3-5.2-3s-.7.9 0 3.7c.3 1.5 2 1.9 3.2 1.9s2.4-.3 2.4-.3-.2 1-2.1 2.8c-1.4 1.2-4.2 1.4-7.1 1.4h-4.7c-4.5 0-4.7-7.7-4.7-7.8s-3.5 3.1-1 7.3c2.5 4 6 4.2 6.4 4.2l-.7.9q-.4.5-2.8.6c-1.5 0-4.9-.3-10.2-2-7.9-2.5-7.3-10.6-7-13q.3-1.7 3.3-1.7c1.6 0 3.1.4 3.2.4 0 0-2.1-.7-3.6-2s-2.8-2.8-2.9-2.8l2.7.6.9.1 1.6-.2 1.7-.1q2-.1 3.8 2 1.2 1.5.8 2.6c-.6 1.8-3.8 2.4-3.8 2.5 0 0 1.3.9 3.9.9q.9 0 1.5-.7 1.4-1.3.2-7.8c-.5-3-3.7-3.4-6.4-3.4l-2.7.1-2.3.1h-1.2c-3.1-.5-5.3-4-5.8-4.7a37 37 0 0 1 2.4 19.6q-.6-.2-2.9-.2-2.7-.2-6.4-1.7a35 35 0 0 0-12-2.7q-4.5 0-7.2 2.8a13 13 0 0 0-3.1 9.6c.2 5.5 5.9 6 6.3 6 0 0-6.5-3-4.1-9.1 1.3-3.4 5.4-4 8.7-4 2.8 0 5.3.4 5.4.4 0 0-4.2 2.5-4.8 5.8s3 5.5 3 5.5-1.7-2.3-1-4.5q.8-2.1 4-3.2 2-.6 3.7-.6c3.6 0 5.5 2 7 3.6l1 1c1.8 1.7 7.8 2.2 8.2 2.2-.3 0-4.6.3-9.8 3q-2 1.2-2.1 2.8c-.3 2.9 3.7 6.2 5 7.2q.4.4 1 .4c1.5 0 2.6-2.1 2.6-2.1h-.1c-.7 0-3.2-.2-4-1.5q-.8-1 0-2.7c1.6-3.7 9-3.7 15.3-3.7h3.8c4.9-.2 6.4-1.4 6.8-2.1q-.6 1.1-1 3.6c-.2 2.1 2.2 4 2.3 4s0-2.8 1.7-5.8 10-6 10-6 .4 1.8-.2 4.7c-.4 1.7-2.5 2.1-4.7 2.6q-2.4.3-4 1.3c-2.4 1.8-1 5.7-.9 5.8s0-.5 2-3.3a3 3 0 0 1 2.5-1.4c1.4 0 2.7 1 2.7 1s.3 1.6-3.5 8.5q-1.6 3-3.6 3c-2.4 0-4.4-3.6-4.4-3.6l-.5 3.3q0 .8.4 1.4c.7.8 2.3 1 3.6 1 1.2 0 2.3-.2 2.3-.2s-1.4 1.8-8 3.5l-2 .3q-1.6 0-2.4-1c-1-1.4-.2-4.1-.2-4.1s-2.8 2.7-1.3 5.7q.8 1.7 3.4 1.7c2 0 3.9-.8 4-.8l-2 1.7c-2 2-4.7 3.8-12.3 4.5h-3c-5.7 0-8.4-1.6-11.4-4.9s-6.4-3.5-11.3-3.5H349c-3 0-6.4 2.2-9.6 4.4-2.9 2-5.5 3.8-8 4.2h-1c-4.6 0-7.6-5.2-8.6-8.8-.6-2.4.8-3.5 2.6-4.9q1.1-.7 2.2-1.7c2-1.9 3-6 2.4-8.7a4 4 0 0 0-2.8-2.9q-5.4-1.3-7.8-8.8-1.2-3.1-4-3.2-1.8 0-3.2 1.7a4 4 0 0 1-3.2 1.4c-2 0-4.2-1-6.2-2.1q-1.4-.8-1.7-2.9c-.4-2.6.5-6 2.2-8l2.5-3c1.9-2.5 3.8-5 6.2-6.4q1-.6 1.9-.6c2.4 0 4.2 3 5.7 5.4q1.1 2.1 5 2.1c3.2 0 6.5-1.1 8.2-2.7 3.2-3 4.4-16.7 2.8-24.1-.9-4.5-8.7-10-15-14.4a31 31 0 0 1-8.4-7.3c-1.5-3.9 2.8-6.1 2.8-6.1s-1.4-.8-2.9-.8q-1.6 0-2.8 1.2c-2.1 2.4 0 6.6 0 6.6s-2.6-.2-5-3.5c-1.6-2.3-3.4-2.8-6-3.5l-3.7-1.2c-4.7-1.7-4.6-6.5-4.6-6.6s-2.6 1.4-1.6 4.2c1 2.7 3.7 3.3 4 3.3H289c-2.4 0-4.8 0-8.4-2.2-3.9-2.3-6-4.3-6.6-9q-.2-1.6.8-2.8c1.3-1.5 3.8-2.2 5.7-2.2q1.6 0 2.2.6c.7.7-.2 1.9-1 2.8q-.7.9-.6 1.2l.3.2h.2q1.1-.3 1.8-1.2c.5-.6 1-1.3 1.9-1.3q.5 0 1 .3l1.4.2q2-.1 4.6-1.3t5.6-1.8l2.2-.2q2.4 0 3.5 1.3 1.1 1.5.4 4.4-.4 1.8-2.1 1.8c-2 0-4.8-2.2-4.9-2.3 0 0-.3 1 .2 2q.9 1.5 4.2 1.8h.9q3.1 0 4-2.4c.8-2 0-4.5-2-6.2a8 8 0 0 0-5.6-2.3c-2 0-4 1-5.6 1.8q-1.6 1-3 1c-1.7 0-3.2-1-5.4-2.6h-.3q-1.3-1-3.2-1a12 12 0 0 0-9.8 6.2c-3 5.3 8.6 14.3 8.7 14.3l-6.1-1.5q-3.4-.7-7-.6c-4 0-7.9 0-9.3-3.2C255.5 86 250.1 78 250 78s-4.2 9-6.1 11.9q-1.3 2-.3 5.2c1 3 3.4 5.6 6.4 6.7 5.8 2.2 17.5 6.1 17.6 6.2-.1 0-11.8.7-16.3 1.3a80 80 0 0 1-21.1-.7l-3.3-1.7a20 20 0 0 0-6.3-2.5c-3-.4-7-8.3-7.1-8.4s0 1.9 3.2 6.7 8.8 7.2 16.1 9.5q2.1.6 6.2.6c9.3 0 23.2-2.6 23.4-2.6l-5.9 3.5a139 139 0 0 1-29.8 10.4q-1.5.4-3.1.4c-9.5 0-13.3-10.4-13.4-10.5s-4 3.1-5.6 9c-2 6.8 4.8 12.4 10.8 16q3.3 1.8 6.4 1.8 2.3 0 4.3-1l-2.4 1.5s1.8.2 4.5.2a64 64 0 0 0 10.5-.8c8-1.3 27.5-10.5 27.8-10.6-.3.2-24.1 14.8-40 21.8a35 35 0 0 1-13 3.5q-3.4-.2-4.5-1l-.8-.2-.4.2q-.2.3-.1.7c.2 1 2.6 2.1 2.7 2.1l-6.3.3h-.5c-6 0-11.8-3.3-11.9-3.3s2.3 3.7 9.4 5.3q2.2.4 4.8.4c6.7 0 15.2-2.6 27.6-8.4 15.3-7.2 32.8-18 33.8-18.8l-11 7.7c-3 2.2-8.2 6.2-13.6 10.6-5.2 4-10.6 8.4-14 10.9-8.6 6.2-20.5 14.5-24.8 14.5-3.1 0-4 .4-6.2 1.3l-5.6 2c-4.3 0-5.5-7-5.6-7s-.7 1-.9 4.2 4.1 5.7 4.2 5.7h-2.4c-2.1 0-5.8-3.7-5.9-3.7 0 0-1 1.6.7 8 1.6 6.1 10.5 11.7 16.4 11.7h.3c5.6-.3 13.9-9 14-9.1l-.3 2.4c-.2 2.2-8.2 6.1-8.3 6.2q.1.2 4.4.4l3.3-.2c5-.4 7.7-1.4 16.5-7.2a489 489 0 0 0 30.8-25.7l-.4 2.6a46 46 0 0 1-8.4 10c-2.5 2.7-5.1 5.4-6.8 7.5a207 207 0 0 1-27.2 23.8c-2.8 1.8-6.4 2.4-9.3 2.9q-3.8.5-5.3 1.5-.6.7-.4 1c.2.6 1.6.6 2.4.6h.4a24 24 0 0 1-8.9 4.4c-4.3 1-10.8 1.1-10.9 1.2s3 1.8 7.4 1.8q4.4 0 8.5-2.3c8.9-4.8 29.8-17.2 34.2-22.5 4.3-5.2 27.4-28.7 27.6-29 0 0-1 2.5-3.5 5.1a387 387 0 0 0-24.6 35.6c-3 6-24 28-34.3 34.2a13 13 0 0 1-6.5 2.1c-5.5 0-7.6-5.3-7.6-5.4 0 .1-5.2 8.5-2 17 2.1 5.7 9.5 9.2 19.2 9.2a41 41 0 0 0 9.7-1.2q5.3-1.4 7.5-5c2.4-4 1.2-8.8 1.2-9a8 8 0 0 1 1.3 4.5c0 2.6-.7 4.6-.6 4.6l6.7-4.4c4.5-3 11.1-12.8 18.1-23.3 3.4-5.2 7-10.5 10.4-15.1q5.7-8 6.5-8.1.2.6-2.6 6.9l-3.1 7.1c-6 14.4-29.7 49-30 49.3l-7.6 11.2c-6.3 9.5-12.6 11.3-16.3 12.4l-2 .7c-2 .8-2.2 2.8-2.4 4.5q0 1.4-.6 2c-1 1.2-11.4 6.9-11.5 7s0 .3.8.3c1.4 0 5.2-1 16-7.8 13.4-8.5 28.6-28 48-61.7 14.6-25.3 17.8-29.5 17.8-29.6l-.2 2.7c-.3 2.6-11 27.7-20.4 48.6-9 19.7-38.5 67.6-46.8 74.4q-3.2 2.7-6 2.7c-3.5 0-5-3.7-5-3.8-.1 0-2.6 2.5.4 9.3 3 6.7 11 9 15.7 9h.6c5-.2 13-2.8 20.4-9.4 7.2-6.5 4.7-13 4.4-13.7.2.4 1.5 3 2 5.2.3 2.4-.8 6.4-.7 6.5 0-.1 4.6-5.8 6-7.3 1-1 2.2-3.2 3.5-5.6q1.2-2.5 2.4-4.4c1.6-2.6 3.1-4.5 5.6-7.8l1.6-2.1c3.4-4.6 3.2-26.7 3.2-27 0 0 1 1 2 4.7s.9 11 .9 11 8.3-8.9 11.5-14a83 83 0 0 0 5.2-14.8c2-6.7 4-13.7 5.9-16.2a71 71 0 0 1 6.3-7.8c-.2.5-13.6 37.3-19 50-4 9.7-12.5 26.1-17.5 36l-3.5 7c-2.1 4.2-12 14-17.8 20a38 38 0 0 0-4.8 5v.8a10 10 0 0 1-2.6 6.7c-3 3.5-13.4 10.5-13.5 10.6h1.5c1.6 0 14.2-9.7 18.7-14.8 2.9-3.2 17.7-20.1 29.8-42.7a901 901 0 0 0 31-73s.5 1.3.5 6.3-23.7 66.2-23.9 66.8h3.2l-3.7 9.2a336 336 0 0 1-29 53.3q-6.2 8.2-11.6 8.2c-2 0-3.5-1-4.4-1.8a54 54 0 0 0 15.5 13q1.6.5 3.7.5c6 0 13-3.2 15.9-5.6 3.8-3 9-11 10.6-15.5.8-2 1.3-2.4 1.7-2.4s.7.7.7.7l.9 7.7s9.2-7.8 15.4-14.3c5.1-5.4 11.7-26 15.2-37l1.8-5.7c2.2-6.4 5.2-17.3 6.3-24.5s-5.6-17.3-5.7-17.4c0 0 2.9 0 6.3 5.5q2.6 4.1 3 4.2v-.2l1.2-10c1-9.8 7.5-40.5 7.5-40.8 0 0 2 3 1.8 8.2-.3 5.5-3.5 30.3-6.7 49.2s-12.8 46-12.8 46.2c0 0 5.4-8 9.7-23s14.7-83 14.8-83.7c0 0 1.7 1.6 1.5 9.7s-3.3 26.8-3.3 27l2.2-1.8s-2.4 6-2.4 16.5-1.8 17.6-3.2 22.1c-1.3 4.2-5.2 7.5-5.2 7.6l3.9-2s-.3 3.3-1.1 6.4c-.9 3-6.9 5.2-7 5.3s3.8 0 9.8-.9 14.7-12.6 19.8-19.7c3-4 3.5-8.3 4-12.4q.4-4.6 2-9c3-6.8 5-40 5-40.4 0 0 2.2 7.3 2.4 14.5.2 4.9-1.1 18.2-2 27l-.8 8.8c0 2.4-6 21.3-6 21.5l1.7-1.8c1.2-1.2 2.2-5.4 3.8-11.7l1.6-6.9c2.6-10 5.2-45.8 5.2-46.1.1 0 8 5.7 9.8 7.5l.4.4c2 2 6.6 6.5 6.6 11.5a48 48 0 0 1-7.9 21.8 33 33 0 0 0-8.4 11.8c-1 3-8 17.6-13.7 20q-1.5.7-3 .7c-3.7 0-5.9-3.5-6-3.5s-.8 5.8 1.4 6.9q1 .5 3.1.5a31 31 0 0 0 5.3-.5c-.2 0-7 4.4-10 6.8s-2.2 6.6-2.1 6.7c0 0 1.1-2 4.3-5.6a39 39 0 0 1 11.8-6.6l-.5 4.2c-.4 3.7-5.1 5.9-5.2 6l1.4-.2q1.8-.1 4.7 1.3c2.3 1.2 1.3 5.5.5 9.7l-1 5c-.4 5-9 6.9-9 7s2.2 2 4.5 2l.7-.1c2.6-.4 6.4-5.9 6.4-6s1 1.9.5 9-5.9 12.8-10.4 13.5h-.6q-1 0-1.7-.7c-1.3-1.6-.3-5.4-.3-5.4s-1.8 2-1.8 5.2q0 2 1.4 2.8t3.4.7l2.2-.1c3.6-.5 11.2-9.6 11.3-9.7v2.6a8 8 0 0 0 1.8 4.5c1 1.2 2.6 2.6 5.2 2.6h.6c5-.5 5.8-4.6 5.8-4.7 0 0-2.4 3.2-6 3.2l-1.8-.3c-4.4-1.3-.4-15.5-.4-15.7 0 0 2.2 4.3 4.1 6.5q.8.8 1.9.9c1.5 0 3-1.4 3-1.4-.1 0-5.7-4-4.2-10.8s12.3-18.9 12.3-19c0 0 0 2-1.2 5.3-1.4 3.5-.6 7.9 1.9 9.7a7 7 0 0 0 4.2 1.4l1-.1s-5.4-3.8-5.2-6.8a107 107 0 0 1 26.3-38.4l-.2 2.6c-.2 2.2.9 4.4.9 4.4s0-8.4 6.3-9.5l2-.2c2.3 0 2.5 1.2 2.8 2.7q0 1.5 1 3c2.1 3 3.5 9.9 3.3 13.7s-5.8 5-5.9 5.1c0 0 .7 1.3 4 1.8h.5c3 0 5.7-3.3 5.7-3.3s1.1 1.3 1.1 4.8c0 3.6-4.7 10-10 10.4h-.2c-2.4 0-3.3-2.9-4.1-6-1-3.4-2-7-5.2-7.3h-1.4c-6.5 0-16.6 4-19 12.9a9 9 0 0 0 1.4 8.2 15 15 0 0 0 12.7 5.3q2.4-.3 3.6-2c1.5-2 .7-5.1.7-5.2l-.9 2.7q-.6 1.7-3.1 1.7-3.4-.1-7.3-2.6-1.7-1.2-1.8-2.8c-.2-2.5 2.4-4.8 2.4-4.9l4.8 3.8q1 .7 2.2.7c2 0 3.7-1.4 3.7-1.4h-2.6c-1.3 0-2-1.1-2-2.2s1-2.4 3-2.4c2.1 0 2.9 1 3.9 2.6 1 1.5 2.3 3.4 5.5 4.9q1.6.7 3.4.7c4.8 0 8.6-4.2 8.6-4.3s.2.6-.5 4.9c-.6 4.2-3.7 9.3-7.5 12.6a8 8 0 0 1-5.3 2q-3.1 0-3.4-2.7-.1-.8.4-1.3c1-1 3.2-1.2 5-1.2h2.1c-.1 0-3.7-2.7-7-2.7q-1.5 0-2.5.8a6 6 0 0 0-2.2 5 9 9 0 0 0 4.4 7q1.7 1 4 1c4.4 0 9-3 9-3s-.7 3.3-3.7 5.2a19 19 0 0 1-10.1 2.3q-2.2 0-4.4-.3l-3.2-.2c-3.3 0-4 1-6 3.5a5 5 0 0 1-3.9 2.1q-2-.1-3-1.2c-1.3-1.3 1.9-5.9 2-6h-.2c-.6 0-2 .2-3.8 1.8-2.1 2-1.3 5.3-1.4 5.3-.5 0-1.8-.1-3.5-1.7q-1-.9-2.9-.9c-2.8 0-6.5 1.6-7.4 4-1.3 3.2 2.6 5.5 2.6 5.5s-1.3-2 .7-5q.9-1.6 1.4-1.6t1 1q.4.7 1.3 1.6c2 1.8 8.2 4.9 8.2 4.9s-.7 1.8-4 2.8c-3.3 1.2-8.4 7.3-9 12q-.3 3 2.3 6.2a15 15 0 0 0 12 4.8q4.5-.3 6.1-2.7c1.3-1.8.7-4 .6-4l-1.9 3c-.7 1.3-2 1.8-4.9 1.8l-1.8-.1c-4.3-.2-4.4-3-4.4-3l3.7-.5c2 0 2.4-2.8 2.4-2.9 0 0-.7 1-3.2 1q-1 0-1.3-.7-1-1.4 2.3-7.4 1.6-2.7 8.4-2.7c4 0 7.8.8 8 .8l-.5 4.6q-.3 2.7-2 2.7c-1 0-2-.7-2.1-.7 0 0 .2.3 3.9 2.7q1.1.8 2.2.8c1.8 0 2.3-2.2 2.3-2.4l.2 3.5c.2 3.5-4.5 4-4.5 4l1.5 1.1q1.5 1 3.6 1 2 0 3-1 2-2 2.3-8.2c.3-4 1.6-6.4 4.4-8.1 2.8-1.8 13.1-11.2 13.2-11.3 0 0 .2.3.7 3.5v2.2c1.4-.8 4-1 4.1-1l-.8 2.6-.5 1.5c-.6 2.1-1 4-3.5 4.7h-.6c-2.7 0-4.5-4.6-4.6-4.7 0 0-2 1.4-2 5.3a3 3 0 0 0 2 3c1 .5 2.4.6 3 .6h.5l-1.3 1q-.5.5-1.9 1.1c-3 1.6-8.6 4.5-10.3 9.3q-1.6 5 .6 8.8 1.6 2.3 4.2 2.5h.3c3.6 0 8.2-3.5 8.2-3.5s-2.6.8-4.7.8q-2.7 0-2.7-1.7c0-3.2 4-3.3 4.1-3.3s-2.9-1-3.4-2.5q-.3-.7.2-1.5c.9-1.4 3.4-1.7 5.4-1.7 1.4 0 2.6.2 2.6.2v1.7c0 1.8 2.3 5 2.4 5.1 0 0 0-.7 1.1-3.3q.6-1.4 1.3-1.4c.6 0 1 .7 1 .8v1.7c0 1.7-1.6 3.9-5.6 8.6-3.5 4.2-12.3 9.6-16.9 9.6l-1.5-.3q-1.5-.7-2.5-.7l-1.2.2-1.7.3-1.8-.3q-1.2-.2-1.7-1.2c-.9-2.1 1.4-6 1.5-6 0 0-3.3.9-3.3 4.1q-.2 3.6-3.1 3.8-1.5 0-3.2-1.3-2-1.6-1.6-4.7a10 10 0 0 1 5-7.2q1-.5 2-.5c3.7 0 6.3 5 6.4 5.1 0 0-1.2-10.2-8.1-12l-2.5-.3c-6.2 0-10.4 6.1-11.9 8.8-2.3 4.1 3 15.7 3 15.8-3.5 4.4-5 9.3-5.3 16.8h-2.1c-2.7 0-7.3-.1-9-1.5q-1-.8-3.7-.8c-4.1 0-10 1.6-11.1 3.7-.8 1.5-2.5 1.8-3.8 1.8q-2-.1-2.3-.3s.7 1 1.7 2q.5.4 1.1.4a6 6 0 0 0 2.6-.8s.2.3.4 3.3q.1.8-.5 1.4c-.7.8-2.3 1.4-3.9 1.4-1.5 0-3.3-.5-3.8-2q-.4-1.4 0-2.3c.7-1 2-1.4 2-1.4h-.5c-.9 0-2.4.1-3.5.9q-.7.6-.6 2.1c.2 1.7 1.5 4 4.6 5.4q1.4.6 3.3.7c4.3 0 9-2.2 9-2.2s.2.3 1.1 4.8q.5 2.4-.9 4a7 7 0 0 1-4.8 2.3q-1.1 0-1.9-.6-.6-.4-.6-1c0-1.7 3-4 3-4h-1.1c-1.5 0-4.4.1-6 1.5-1.2 1-1.6 3.1-1 5.3a8 8 0 0 0 7.5 6.3c6 0 11.4-7 12.4-8.5q.6-.7 1.5-.7 1.5.1 3.1 1a9 9 0 0 0 3.6 1.3c2.8 0 3.5-4.8 3.5-5 0 .1-2.5 2.2-4.7 2.2q-.8 0-1.4-.3-1-.6-1-1.2c0-.7 1.4-1.4 2.6-2l.1-.1c1.8-.9 2.7-8.4 2.7-8.6 0 0 0 .2 1.7.6l1.7.2c3 0 8.5-.6 8.5-.6s-1 2.2.9 5.5c1 1.8 2.8 2.1 4.1 2.1s2.4-.3 2.4-.3-4.3-2.5-2.8-5.6c1-1.8 10.7-6.1 19.3-10 5.8-2.5 11.3-5 13.3-6.3 5-3.3 15.5-22 15.6-22.1 0 .1-1.5 13.5-2.4 17.2-.9 3.8-4.4 9.8-8.4 10.6l-1.2.1c-3 0-3.6-2.9-3.6-3 0 .1-2.2 3.2-.9 6 .7 1.6 2.1 2 3.2 2 1 0 2-.4 2-.4s-.9 2.6-3.7 4.2l-2.1 1.4c-1.5 1.2-3 2.3-5.2 2.3l-1.6-.2-2.2-.3c-2 0-3 .8-4.4 1.8l-1.4 1q-.6.3-1.3.3c-2.2 0-4-3.2-4-3.3s-.4 2.5.7 4a3 3 0 0 0 2.6 1.4h-3.5c-3.4-.3-5.8-3.8-5.8-3.8s.2 3.8 1.7 8.2c1.4 4 6.4 4.4 7.1 4.4-.3 0-6.2 1.3-11.4 1.7-5.3.5-10.4 5.6-12.7 10.4q-.9 2.2 0 4.8c1.3 3.3 4.6 6.2 7 7.2q.8.3 1.8.3a7 7 0 0 0 5-2.4q1.6-1.6 1.5-3.2c-.2-2-2.5-2.3-3.9-2.3l-1.1.1 2.1 2.2q.6.6.4 1.4-1 1.6-3.7 1.8a4 4 0 0 1-3.6-2.1q-1.1-2.2.2-4.4a10 10 0 0 1 7.7-4.2h3a62 62 0 0 0 9.1-.7 6 6 0 0 0-3.2 3q-1.2 2.7.6 6.7c2 4.5 5.2 5.4 7.6 5.4 1.7 0 3-.5 3-.5s-2-.5-2.9-2.1q-.8-1.5 0-3.4.8-2.8 3.2-2.9a4 4 0 0 1 3.4 2q.6 1 1.8 1c1 0 2-.5 2-.6s-1.6-.9-1.6-3.5c0-1.5 2-2.5 4.4-3.6q2.7-1.1 5.2-3c3.6-3 7.6-18 7.6-18.1l2.6 2.8c.7.9 0 3.4-.9 6.1l-1 4q-.4 1.9-.3 3.4c0 2.1 0 4.3-1.7 7.7-1.6 3.1-4.6 3.8-6.8 3.8l-2.1-.2s.2 1.8 1.7 3.5q1 1 2.6 1 2-.1 2.2-.4s-.3 2.3-5.2 3.1l-1 .1c-4.2 0-5.5-6-5.6-6l-.4 2.4c-.4 2.4 3.9 8.6 7.4 10l1.1.1c1.8 0 5-1.3 8-2.7q-.3 1-.3 2.6c0 4.5-6.3 4.9-8.2 4.9h-.6l3 1.8q1.2.6 2.9.6c2.6 0 5.2-1.3 5.3-1.3l2.5 3c2.6 3.1 2 8.2 2 8.3l1.8-2a37 37 0 0 0 3.4-10.9s2.2 2 4.4 2.3h.2c2.2 0 5.4-3.4 5.4-3.4q0 .2-2.8 1.5l-.8.3c-1.4 0-2.9-2-2.9-5.5q0-.8-.2-1.3a20 20 0 0 0 6 1.8l1.2-.1c3.5-1.4 7.8-7.6 7.4-10l-.4-2.4s-1.4 6-5.7 6h-.9c-4.9-1-5.2-3.1-5.2-3.2q.2.2 2.2.4 1.7 0 2.6-1a7 7 0 0 0 1.7-3.5s-1 .2-2.1.2c-2.2 0-5.2-.7-6.8-3.8-1.7-3.4-1.7-5.6-1.7-7.7l-.2-3.3-1.1-4c-.8-2.8-1.6-5.3-.9-6.2l2.6-2.8c0 .1 4 15 7.6 18.1q2.5 1.9 5.2 3c2.3 1.1 4.4 2 4.4 3.6 0 2.6-1.5 3.5-1.5 3.5s1 .6 2 .6q1 0 1.7-1a4 4 0 0 1 3.4-2q2.3 0 3.3 2.9.6 2-.1 3.4c-.9 1.6-3 2-3 2 0 .1 1.4.6 3.1.6 2.4 0 5.6-.9 7.6-5.4q1.8-4 .6-6.7a6 6 0 0 0-3.2-3 62 62 0 0 0 11.5.7h.6c3 0 6.3 1.8 7.7 4.2q1.4 2.3.2 4.4a4 4 0 0 1-3.6 2.1c-1.6 0-3.2-.8-3.7-1.8q-.2-.8.4-1.4l2.1-2.2-1.1-.1c-1.4 0-3.7.3-3.9 2.3q0 1.6 1.4 3.2a7 7 0 0 0 5.1 2.4l1.8-.3c2.4-1 5.7-3.9 7-7.2q.9-2.5 0-4.8c-2.3-4.8-7.4-10-12.7-10.4s-11-1.6-11.4-1.7c.7 0 5.7-.3 7-4.4 1.6-4.4 1.8-8.2 1.8-8.2s-2.4 3.5-5.8 3.7l-2.6.1h-1c.6 0 1.9-.2 2.7-1.4 1-1.5.7-4 .7-4s-1.8 3.3-4 3.3q-.7 0-1.3-.4l-1.4-1c-1.4-.9-2.5-1.7-4.4-1.7l-2.2.3-1.6.2c-2.2 0-3.7-1.1-5.2-2.3l-2.2-1.4a8 8 0 0 1-3.6-4.2s1 .3 2 .3 2.5-.3 3.2-1.9c1.3-2.8-.9-5.9-.9-6 0 .1-.5 3-3.6 3h-1.2c-4-1-7.5-6.9-8.4-10.7s-2.4-17-2.4-17.2c0 .2 10.7 18.8 15.6 22.1 2 1.4 7.5 3.8 13.3 6.4 8.6 3.8 18.4 8 19.3 10 1.5 3-2.8 5.4-2.8 5.5q.1.2 2.4.3c1.3 0 3-.3 4.1-2.1 2-3.3.9-5.5.9-5.5a93 93 0 0 0 10.2.4c1.6-.4 1.7-.6 1.7-.6 0 .2 1 7.7 2.7 8.6h.1c1.2.7 2.6 1.4 2.6 2.1q0 .6-1 1.2l-1.4.3c-2.2 0-4.7-2-4.7-2.1 0 0 .7 5 3.5 5a9 9 0 0 0 3.6-1.3q1.7-1 3.1-1.1.9 0 1.5.7c1 1.4 6.3 8.5 12.4 8.5l1.8-.3a8 8 0 0 0 5.8-6c.5-2.2 0-4.4-1-5.3-1.7-1.4-4.6-1.6-6-1.6h-1.2c0 .1 3 2.4 3 4.1q0 .6-.6 1-.8.6-2 .6c-1.4 0-3.5-.7-4.7-2.2a5 5 0 0 1-1-4 28 28 0 0 1 1.2-5c0 .1 4.7 2.3 9 2.3q2 0 3.3-.7c3.1-1.3 4.4-3.7 4.6-5.4q.1-1.5-.6-2.1a6 6 0 0 0-3.5-.9h-.5s1.3.3 2 1.4q.4.9 0 2.4c-.5 1.4-2.3 1.9-3.8 1.9a6 6 0 0 1-4-1.4q-.5-.6-.4-1.4c.2-3 .4-3.3.4-3.3s1.4.8 2.6.8q.6 0 1-.3l1.8-2s-1.1.2-2.3.2c-1.3 0-3-.3-3.8-1.8-1-2-7-3.7-11.1-3.7q-2.7 0-3.7.8c-1.7 1.4-6.3 1.6-9 1.6h-2a26 26 0 0 0-5.4-16.9s5.3-11.7 3-15.8c-1.5-2.7-5.7-8.8-12-8.8q-1.1 0-2.4.4c-6.9 1.7-8 11.8-8 12 0-.1 2.6-5.2 6.2-5.2q1 0 2 .5a10 10 0 0 1 5.2 7.2q.3 3-1.7 4.7-1.6 1.3-3.2 1.3-2.9-.2-3-3.8c0-3.2-3.3-4.2-3.4-4.2 0 0 2.4 4 1.5 6q-.5 1.1-1.7 1.3l-1.8.3q-1 0-1.7-.3l-1.2-.2q-1 0-2.5.7l-1.5.3c-4.6 0-13.4-5.4-17-9.6-4-4.7-5.6-6.9-5.6-8.6v-1.7s.5-.8 1.1-.8q.8 0 1.3 1.4c1 2.6 1.1 3.3 1.1 3.3s2.4-3.3 2.4-5v-1.8s1.2-.2 2.6-.2c2 0 4.5.3 5.4 1.7q.5.7.2 1.5c-.5 1.5-3.4 2.5-3.4 2.5s4.1 0 4.1 3.3q0 1.8-2.7 1.7c-2 0-4.7-.8-4.7-.8s4.6 3.5 8.2 3.5h.3q2.5-.1 4.2-2.5c1.5-2.4 1.7-5.6.6-8.8-1.7-4.8-7.3-7.7-10.3-9.3l-1.9-1-1.3-1.1h.5c.6 0 2 0 3-.6a3 3 0 0 0 2-3c0-4-2-5.3-2-5.3s-2 4.8-4.6 4.8l-.6-.1c-2.4-.7-3-2.6-3.5-4.7l-.5-1.5-.8-2.7s2.7.3 4.1 1.1V412c.5-3.2.7-3.5.7-3.5 0 .1 10.4 9.5 13.2 11.3q4 2.4 4.4 8.1.3 6.3 2.4 8.2.9 1 3 1 2 0 3.5-1l1.5-1c0-.1-4.7-.6-4.5-4l.2-3.6c0 .2.5 2.4 2.3 2.4q1 0 2.3-.8c3.6-2.4 3.8-2.7 3.8-2.7s-1 .7-2 .7q-1.9 0-2-2.7l-.5-4.6s4-.8 8-.8q6.6 0 8.3 2.7 3.3 6 2.3 7.4-.3.6-1.3.6c-2.5 0-3.2-.9-3.2-.9s.4 3 2.4 3 3.7.3 3.7.3 0 2.9-4.4 3l-1.8.2c-2.9 0-4.2-.5-5-1.8l-1.8-3s-.7 2.2.6 4q1.6 2.4 6 2.7h1.2c4.1 0 8.2-1.7 10.9-4.8q2.7-3.1 2.3-6.3a18 18 0 0 0-9-11.9c-3.3-1-4-2.8-4-2.8s6.3-3.1 8.2-4.9l1.4-1.6q.5-1 .9-1t1.4 1.5c2 3 .7 5 .7 5s4-2.2 2.6-5.4c-1-2.4-4.6-4-7.4-4q-2 0-2.9.9c-1.7 1.6-3 1.7-3.5 1.7 0 0 .7-3.3-1.4-5.3-1.8-1.6-3.2-1.7-3.8-1.7h-.1s3.2 4.6 2 6q-1.1 1-3.1 1.1a5 5 0 0 1-4-2c-1.8-2.5-2.6-3.6-6-3.6l-3 .2-4.5.3q-6.6 0-10.1-2.3c-3-2-3.7-5.2-3.7-5.3s4.6 3.1 9 3.1q2.3 0 4-1a9 9 0 0 0 4.4-7q.1-3.1-2.2-5-1-.8-2.6-.8c-3.2 0-6.8 2.7-7 2.8h2.2c1.8 0 4 .1 5 1.1q.5.6.4 1.3-.2 2.7-3.5 2.8-2.7 0-5.2-2.1a23 23 0 0 1-8-17.5s3.8 4.3 8.6 4.3a8 8 0 0 0 3.4-.7c3.2-1.5 4.5-3.4 5.5-5 1-1.5 1.8-2.5 3.8-2.5 2.1 0 3 1.2 3 2.4 0 1-.6 2.2-2 2.2h-2.5s1.7 1.4 3.7 1.4q1.2 0 2.2-.7l4.8-3.8s2.6 2.4 2.4 4.9q0 1.6-1.8 2.8a14 14 0 0 1-7.3 2.6q-2.5 0-3.1-1.7l-.9-2.7s-.8 3.2.7 5.2q1.2 1.7 3.6 2h1.2c3.6 0 8.7-1.7 11.5-5.3a9 9 0 0 0 1.5-8.2c-2.5-9-12.6-13-19-13l-1.5.1c-3.2.4-4.2 4-5.2 7.3-.8 3.1-1.7 6-4 6h-.3c-5.3-.4-10-6.8-10-10.4 0-3.5 1-4.8 1-4.8s2.8 3.3 5.8 3.3h.6c3.2-.5 3.9-1.8 3.9-1.8s-5.7-1.4-5.9-5a27 27 0 0 1 3.3-13.7q1-1.6 1-3.1c.3-1.5.5-2.7 2.8-2.7l2 .2c6.2 1.1 6.3 9.4 6.3 9.5s1.1-2.2.9-4.4l-.2-2.6s7.9 6.7 13.5 15.2c6 9.2 12.6 20.2 12.8 23.2s-5.2 6.8-5.2 6.8l1 .1c1 0 2.7-.2 4.2-1.4 2.5-1.8 3.3-6.2 2-9.7-1.4-3.3-1.3-5.3-1.3-5.3 0 .1 10.8 12.2 12.3 19 1.5 6.7-4 10.8-4.1 10.8s1.4 1.4 3 1.4q1 0 1.8-1c2-2.1 4.1-6.3 4.1-6.4 0 .2 4 14.4-.4 15.7l-1.8.3a8 8 0 0 1-6-3.2s.8 4.2 5.8 4.7h.6c2.6 0 4.3-1.4 5.2-2.6a8 8 0 0 0 1.8-4.5v-2.6s7.7 9.2 11.3 9.7l2.2.1q2.2 0 3.4-.7 1.4-.9 1.4-2.8c0-3.2-1.8-5.2-1.8-5.2s1 3.8-.3 5.4q-.6.8-1.7.8h-.6c-4.5-.8-10-6.5-10.4-13.5-.4-7.2.5-9 .5-9s3.8 5.5 6.4 5.9h.7c2.3 0 4.6-2 4.6-2-.1 0-8.7-1.9-9.2-6.9q-.2-2.4-.8-5c-1-4.2-1.9-8.5.4-9.7q3-1.4 4.7-1.3l1.4.1s-4.8-2.2-5.2-6l-.5-4.1c.1 0 8.5 3.1 11.8 6.6 3.2 3.5 4.3 5.5 4.3 5.6s.9-4.3-2.1-6.7a164 164 0 0 0-10-6.8s2.8.5 5.3.5q2.1 0 3.1-.5c2.2-1.1 1.3-6.8 1.3-6.9 0 0-2.2 3.5-6 3.5q-1.4 0-2.9-.6c-5.7-2.5-12.7-17-13.7-20.1-1-3.5-5.3-9-8.4-11.8a48 48 0 0 1-7.9-21.8c0-5 4.7-9.6 6.6-11.5l.4-.4c1.7-1.8 9.7-7.4 9.8-7.5 0 .3 2.6 36 5.2 46.1l1.6 6.9a38 38 0 0 0 3.8 11.7l1.7 1.8c0-.2-6-19-6-21.5l-.8-8.8a337 337 0 0 1-2-27c.2-7.2 2.3-14.4 2.4-14.5 0 .3 2 33.6 5 40.4q1.6 4.4 2 9c.5 4.1 1 8.4 4 12.4 5.1 7 13.7 18.8 19.8 19.7 6 .9 9.7.9 9.8.9-.1 0-6.1-2.3-7-5.3-.8-3.1-1-6.4-1-6.5l3.8 2s-3.9-3.3-5.2-7.5a72 72 0 0 1-3.2-22c0-10.6-2.4-16.6-2.4-16.6l2.2 1.8c0-.2-3-19-3.3-27s1.5-9.7 1.5-9.7c.1.7 10.5 68.6 14.8 83.7 4.3 15 9.7 23 9.7 23 0-.3-9.5-27.2-12.8-46.2a688 688 0 0 1-6.7-49.2c-.2-5.3 1.8-8.2 1.8-8.2 0 .3 6.4 31 7.5 40.8l1.1 10v.2q.6 0 3-4.2c3.5-5.5 6.3-5.5 6.4-5.5-.1 0-6.8 10.2-5.7 17.4s4 18.1 6.3 24.5l1.8 5.6c3.5 11 10 31.7 15.2 37 6.2 6.6 15.3 14.4 15.4 14.4l1-7.7s.2-.7.6-.7 1 .4 1.7 2.4a45 45 0 0 0 10.6 15.5c3 2.4 9.8 5.6 15.9 5.6a12 12 0 0 0 3.7-.5 54 54 0 0 0 15.5-13c-1 .8-2.4 1.8-4.4 1.8q-5.3 0-11.5-8.2a336 336 0 0 1-29.1-53.3l-3.7-9.3h3.2c-.2-.5-24-61.6-24-66.7 0-5 .5-6.3.6-6.3.1.5 19.8 52.3 31 73 12.1 22.6 27 39.5 29.7 42.7 4.6 5 17.2 14.8 18.8 14.8h1.5a105 105 0 0 1-13.5-10.6 10 10 0 0 1-2.5-6.7v-.8a50 50 0 0 0-5-5 136 136 0 0 1-17.7-20l-3.5-7c-5-9.9-13.4-26.3-17.6-36a1676 1676 0 0 1-18.9-50c0 .1 3 3 6.3 7.8 1.8 2.5 3.9 9.5 5.9 16.2a83 83 0 0 0 5.2 14.7c3.2 5.2 11.4 14 11.5 14.1s-.2-7.3 1-11c1-3.8 1.9-4.6 1.9-4.6 0 .2-.2 22.3 3.2 26.9l1.6 2.1c2.5 3.3 4 5.2 5.6 7.8q1.2 1.9 2.4 4.4c1.3 2.4 2.5 4.6 3.4 5.6 1.5 1.5 6 7.2 6.1 7.3 0-.1-1-4-.6-6.5.4-2.2 1.7-4.8 1.9-5.2-.3.7-2.8 7.2 4.4 13.7a35 35 0 0 0 20.4 9.4h.6c4.7 0 12.8-2.3 15.7-9 3-6.8.5-9.3.5-9.3s-1.6 3.8-5.2 3.8q-2.7 0-6-2.7c-8.2-6.8-37.7-54.7-46.7-74.4-9.5-21-20.1-46-20.4-48.6l-.2-2.7s3.2 4.3 17.8 29.6c19.4 33.6 34.6 53.2 48 61.7 10.8 6.8 14.6 7.8 16 7.8q1-.2.8-.4c-.1 0-10.5-5.7-11.5-6.8q-.5-.7-.6-2.1c-.2-1.7-.4-3.7-2.5-4.5l-1.9-.7c-3.7-1-10-3-16.3-12.3L672 273c-.3-.4-24-34.9-30-49.3l-3-7.1q-3-6.3-2.7-7 .8.2 6.5 8.2c3.4 4.6 7 10 10.4 15 7 10.6 13.6 20.5 18.1 23.4l6.7 4.4s-.6-2-.6-4.6a8 8 0 0 1 1.3-4.4s-1.2 4.8 1.2 8.8q2.2 3.7 7.5 5.1a41 41 0 0 0 9.7 1.2c9.7 0 17-3.5 19.2-9.2 3.2-8.5-2-16.9-2-17 0 0-2.1 5.4-7.6 5.4q-3 0-6.5-2.1a153 153 0 0 1-34.3-34.2c-3-6-22-33-24.6-35.6-2.5-2.6-3.5-5-3.5-5a964 964 0 0 1 27.6 29c4.4 5.2 25.3 17.6 34.2 22.4q4.1 2.3 8.5 2.3c4.4 0 7.3-1.8 7.4-1.8-.1 0-6.6-.3-11-1.1-4-.9-8.5-4.2-8.8-4.5h.4c.8 0 2.2 0 2.4-.6q.2-.3-.4-1-1.7-.9-5.3-1.5c-2.9-.5-6.5-1.1-9.3-2.9-5-3-22.6-18.3-27.2-23.8-1.7-2.1-4.3-4.8-6.8-7.4a46 46 0 0 1-8.4-10l-.4-2.7c.2.2 22 19.8 30.8 25.7s11.4 6.8 16.5 7.2a38 38 0 0 0 7.7-.2c-.1 0-8-4-8.3-6.2l-.2-2.4s8.3 8.8 13.9 9h.3c5.9 0 14.8-5.5 16.4-11.7 1.8-6.3.7-8 .7-8 0 .1-3.8 3.8-6 3.8h-2.3s4.4-2.4 4.2-5.7-1-4.2-1-4.2-1.2 7-5.5 7q-.7 0-1.6-.4l-4-1.6c-2.1-.9-3-1.3-6.2-1.3-4.3 0-16.2-8.3-24.8-14.5-3.4-2.5-8.8-6.8-14-11-5.4-4.3-10.6-8.3-13.6-10.5l-11-7.6c1 .6 18.5 11.5 33.8 18.7a69 69 0 0 0 27.6 8.4q2.5 0 4.8-.4c7.1-1.6 9.4-5.3 9.4-5.3-.1 0-5.9 3.3-11.9 3.3h-.5l-6.3-.3s2.5-1 2.7-2.1q.1-.4-.1-.7l-.4-.2-.8.3c-.8.3-2.1 1-4.5 1q-5 0-13-3.6c-15.9-7-39.7-21.6-40-21.8.3.1 19.9 9.3 27.8 10.6a66 66 0 0 0 15 .6l-2.4-1.5q2 1 4.3 1 3.1 0 6.4-1.9c6-3.5 12.8-9.1 10.8-15.9-1.7-5.9-5.6-9-5.6-9-.1 0-4 10.5-13.4 10.5q-1.5 0-3.1-.4a139 139 0 0 1-29.8-10.4l-5.9-3.5c.2 0 14.1 2.6 23.4 2.6q4 0 6.2-.6c7.3-2.3 12.9-4.7 16-9.5 3.3-4.8 3.3-6.6 3.3-6.7 0 .1-4.1 8-7.1 8.4-2 .3-4.1 1.4-6.3 2.5q-1.5 1-3.3 1.7a80 80 0 0 1-21 .7c-4.6-.6-16.3-1.3-16.4-1.3.1 0 11.8-4 17.6-6.2q4.7-1.8 6.4-6.7.9-3.2-.3-5.2c-2-2.9-6-11.9-6-12-.2.1-5.6 8-7.7 12.9-1.4 3-5.3 3-9.4 3q-3.5 0-6.9.7l-6 1.5s11.6-9 8.6-14.3a12 12 0 0 0-9.8-6.3q-1.9 0-3.2 1l-.3.1c-2.2 1.6-3.7 2.6-5.4 2.6q-1.4 0-3-1c-1.6-.9-3.5-1.8-5.6-1.8q-2.9 0-5.5 2.3c-2 1.7-3 4.2-2.2 6.2q1 2.5 4.1 2.5h1q3.2-.5 4.1-2c.5-1 .2-1.9.2-1.9s-2.8 2.3-4.9 2.3q-1.6 0-2-1.8-.8-3 .3-4.4 1-1.3 3.5-1.3l2.2.2q3.1.7 5.6 1.8t4.6 1.3q.8 0 1.3-.2l1.1-.3q1.3.2 2 1.3.5.8 1.7 1.2h.2q.2 0 .3-.2t-.7-1.2c-.7-1-1.6-2.1-1-2.8q.7-.6 2.3-.5c2 0 4.4.6 5.7 2q1 1.3.8 2.9c-.7 4.7-2.7 6.7-6.6 9-3.6 2.2-6 2.2-8.4 2.2h-2.3c.2 0 2.8-.5 3.9-3.3 1-2.8-1.6-4.2-1.6-4.2s.1 4.9-4.6 6.6l-3.7 1.2c-2.6.7-4.4 1.2-6 3.5-2.4 3.3-5 3.5-5 3.5s2.1-4.2 0-6.6a4 4 0 0 0-2.8-1.2 6 6 0 0 0-3 .8c.1 0 4.4 2.2 3 6.1a31 31 0 0 1-8.6 7.3c-6.2 4.4-14 9.9-15 14.4-1.5 7.4-.3 21.1 2.9 24 1.7 1.7 5 2.8 8.1 2.8q4 0 5.1-2c1.5-2.5 3.3-5.5 5.7-5.5q1 0 2 .6c2.3 1.3 4.2 3.9 6.1 6.4l2.5 3a11 11 0 0 1 2.2 8q-.3 2.1-1.7 2.9c-2 1-4.2 2.1-6.2 2.1a4 4 0 0 1-3.2-1.4q-1.4-1.6-3.2-1.7-2.8.2-4 3.2-2.4 7.6-7.8 8.8a4 4 0 0 0-2.8 3 10 10 0 0 0 2.4 8.6q1.1 1 2.2 1.7c1.8 1.4 3.2 2.5 2.5 4.9-.9 3.6-4 8.9-8.5 8.9l-1-.1c-2.5-.4-5.1-2.3-8-4.2-3.2-2.2-6.5-4.4-9.6-4.4h-1.7c-4.9 0-8.3.2-11.3 3.5s-5.7 5-11.4 5l-3-.1c-7.6-.7-10.3-2.6-12.3-4.5l-2-1.7s2 .8 4 .8q2.6 0 3.4-1.7c1.5-3-1.3-5.7-1.3-5.7s.8 2.7-.3 4.1q-.6 1-2.3 1l-2-.3c-6.6-1.7-8-3.5-8-3.5s1.1.2 2.3.2c1.3 0 2.9-.2 3.6-1q.4-.6.4-1.4l-.5-3.3s-2 3.6-4.4 3.6q-2 0-3.6-3c-3.8-7-3.5-8.6-3.5-8.6s1.3-1 2.7-1q1.6 0 2.5 1.5c2 2.8 2 3.2 2 3.3s1.5-4-.9-5.8q-1.6-1-4-1.3c-2.2-.5-4.3-1-4.7-2.6-.6-2.9-.2-4.7-.2-4.7s8.3 3 10 6a13 13 0 0 1 1.7 5.7s2.5-1.8 2.2-4q-.3-2.3-.9-3.5c.4.7 2 1.9 6.8 2h3.8c6.4 0 13.7.1 15.3 3.8q.8 1.6 0 2.7c-.8 1.3-3.3 1.4-4 1.4h-.1c0 .1 1.1 2.2 2.6 2.2q.6 0 1-.4c1.3-1 5.3-4.3 5-7.2q0-1.7-2-2.7a26 26 0 0 0-9.9-3.1c.4 0 6.4-.5 8.3-2.2l1-1c1.4-1.5 3.3-3.6 6.8-3.6q1.8 0 3.7.6 3.4 1 4 3.2c.8 2.2-1 4.5-1 4.5s3.7-2.2 3.1-5.5-4.7-5.7-4.8-5.8c.1 0 2.6-.5 5.4-.5 3.3 0 7.4.7 8.7 4 2.4 6.2-4 9.1-4.1 9.1.4 0 6.1-.4 6.3-6 .2-3.8-1-7.3-3.1-9.5a10 10 0 0 0-7.1-2.8c-4.6 0-8.7 1.5-12 2.7a22 22 0 0 1-9.4 2c0-1.6-.6-9.4.7-14.4 1-3.8 1.5-5 1.7-5.3-.5.7-2.7 4.2-5.8 4.6l-1.2.1H525l-2.7-.2c-2.7 0-6 .4-6.4 3.4q-1.2 6.5.2 7.8.6.7 1.5.7c2.6 0 4-1 4-1-.1 0-3.3-.6-4-2.4q-.3-1.2 1-2.6 1.7-2.1 3.7-2l1.7.1 1.6.2h1l2.6-.7s-1.4 1.5-2.9 2.8a12 12 0 0 1-3.6 2s1.6-.4 3.2-.4q3 0 3.2 1.7c.4 2.4 1 10.5-7 13-5.2 1.7-8.6 2-10.1 2q-2.4 0-2.8-.6l-.7-.9c.5 0 3.9-.3 6.3-4.2 2.6-4.2-.8-7.2-.9-7.3 0 .1-.2 7.7-4.7 7.7h-4.7c-2.9 0-5.7 0-7-1.3-2-1.7-2.2-2.8-2.2-2.8s1.1.3 2.4.3 2.9-.4 3.2-1.9c.7-2.8 0-3.7 0-3.7s-2.8 3-5.2 3q-1.3 0-2.2-1c-2.6-3.3-4.3-11-4.3-11s2 .5 4.3.5q4 0 5.7-2.1c2.8-3.5 2.6-5.3 2.6-5.3s-5 3.8-8.4 3.8q-2.7 0-3.4-2.8c-1.6-6.5-.7-12.9 1.1-14.5a28 28 0 0 1 14.3-5.8c.8-4.4-26.5-5.4 14.3-14l15.8-19c0-2-6-6.6-8.7-7.8a59 59 0 0 0-18.3-3h-1.3c-4 .2-8.6 3.4-13 6.4-4 2.6-7.5 5.1-10.7 5.8q-4.4 1-7.9 1-5 0-6.4-2a13 13 0 0 1-1.3-6.4s-1.8 4.8-1.1 7.2 4.4 5 6.5 5.1l6.7.7s-6.3 4.8-8.7 7.7l-2 2.8c-1.8 2.6-3.6 5.2-5.8 5.6l-2.2.1q-3.2-.1-3.4-.3c-.2-.2 2.6 2.6 4.5 3q.6.3 1.2.2a8 8 0 0 0 3.2-.6c0 .1-5 11.4-6.3 17.3-1.5 6.5-2.8 10-4.4 11.7s-3.5 2.8-3.5 2.8 2 1 3.4 1q.8 0 1.2-.3l1.8-1c-.1 0-2.4 13.6-2.4 16.5 0 2.8-4.6 7-4.6 7h.2c1.1 0 4.5.2 4.5 2.5a57 57 0 0 1-6.7 18.5 57 57 0 0 1-6.8-18.5c0-2.3 3.5-2.5 4.5-2.5h.3s-4.6-4.2-4.6-7a210 210 0 0 0-2.4-16.6l1.8 1q.4.4 1.2.4a9 9 0 0 0 3.4-1s-1.8-1-3.5-2.8-3-5.2-4.4-11.7c-1.2-6-6.2-17.2-6.3-17.3 0 0 1.6.6 3.2.6l1.2-.1c2-.5 4.5-3 4.5-3.1 0 0-1.5.3-3.4.3l-2.2-.1c-2.2-.4-4-3-5.8-5.6l-2-2.8A72 72 0 0 0 420 91l6.7-.7c2.1-.2 5.8-2.6 6.5-5 .7-2.5-1-7.3-1-7.3s.1 4-1.4 6.3q-1.2 2-6.4 2-3.5 0-8-.9c-3-.7-6.7-3.2-10.5-5.8-4.5-3-9.2-6.2-13-6.3zm142.8 64.5v-.2zm143.6 262 1-1.1zm-455.8 0-1-1.1zm143.6-262v-.2z" fill="#070707" stroke="#000" stroke-width="1.5" id="path11"/><path d="M430.8 415q.1-.5.9-.9c-.3 1.7-1.3 2.5-1.3 2.5z" id="path12"/><path d="M519.2 93.8c-2.8 1.8-8-1.5-7.8-2.8.2-1.4.7-5.1 5.9-5.7 5.1-.5 6 1.7 6 1.7.2 2-1.3 5-4 6.8zM379.7 93c2.7 1.8 8-1.4 7.7-2.7s-.8-4.9-5.8-5.4-6 1.6-6 1.6c-.2 2 1.3 4.8 4 6.5z" fill="#fff" stroke="#2a2a2a" stroke-width=".75" id="path13"/><path d="M522 89c0 1.2-2.6 3.5-4.1 3.8s-2-1.4-.8-3.3c1-1.9 2.9-1.7 2.9-1.7.2 0 2 0 2 1.2m-145-.5c0 1.2 2.4 3.4 4 3.7 1.5.2 1.8-1.4.8-3.2s-2.9-1.6-2.9-1.6c-.2 0-2 0-2 1.1" id="path14"/><path d="M295.5 264.2s3.2-7.9 2-15.8a73 73 0 0 0-10-26.5 27 27 0 0 1-5.3-9c0 .1 6.3 6.8 9 8.8s10.3 13.4 10.5 27c.2 8-2 12.1-4 14q-1.7 1.6-2.2 1.5m-112.2-6s-.3-8.6 1.4-18.4c1.8-9.8 13-41.4 13.1-41.7 0 .2 2.1 23.8-3.1 35-2.4 5.1-4.8 10.8-6.8 15.3a57 57 0 0 1-4.6 9.8m57.5-5.8s-2.6-4.8.5-13.9c3-8.4 13.1-16.7 18.9-20.9 4-2.9 12.6-13.4 12.7-13.5-.1.3-14.8 29.2-20.2 32.4-5.2 3-11 8.8-12 15.9zm119.7-3.8s-5.3-2-8.1-10.7q-1.4-4.8-2-9c-.6-4.7-1.2-9.1-5-15.4-6-9.9-18.4-22-18.6-22.1.3.1 24.2 12.5 28.5 27.1 4.2 14.5 5.4 29.8 5.2 30zm-50.3-11.2c-5.7-11-7.7-18-2.8-25.5 3.9-5.7 10.9-6.3 13.7-6.3 2.4 0 4.8.4 6.4 1 2.2 1 5 8.3 5 8.3s-1.6-2.2-7.3-4q-2-.6-3.9-.6c-4.4 0-7.8 2.6-9.3 7.1a81 81 0 0 0-1.8 20M241 224c0-1.6 2.7-12.8 7.5-16.8l3.2-2.7c3.4-2.7 6.3-5 9.2-8.5a71 71 0 0 0 7.3-19.7s5.8 10.4 3 18.2c-2.7 7.2-12.1 13.7-19 18.5l-2.3 1.6a32 32 0 0 0-9 9.5zm62.8-21.5s-5.5-4.7-5.7-8 3.7-7.2 3.7-7.2l.6.7c1.3 1.7 4.2 5.5 4.5 7.8.2 2.7-3 6.7-3 6.7m-11.5-2.7-5-.3c-2.6-.2-3.2-1.1-4.1-2.8l-.1-.2c-1-1.7 0-5.4 0-5.5 0 .2.9.4 1.8.7 1.9.6 4.7 1.5 5.7 2.8 1.5 2 1.8 5.3 1.8 5.3m2-10.8s-4-4.2-4.2-7.5 3.5-5.4 3.5-5.5c.7 0 4.5 2.8 4.5 6.5s-3.7 6.5-3.7 6.5m12.8-1.5s0-6.5 1.2-9.2c1.3-2.7 3.8-4.3 3.8-4.3l1.2.3s1.3 8.5.6 9.7a25 25 0 0 1-6.8 3.5m-22.5-.2s-8.3-2.5-8.8-4.3 1-6.7 1-6.7l1.6.5c2 .6 4.8 1.5 5.7 2.7 1.2 1.8.5 7.7.5 7.8m38-13.5s-2-3-1.8-7.3c.3-4.2 5.2-7.4 5.3-7.5h.2q.7 0 2 1.4c1.1 1.4 2.4 3.7 2 5.6-.4 3.3-7.6 7.7-7.7 7.8m-18.9-1.3q-2.4-.1-4.5-2.5a9 9 0 0 1-1.4-7.5c1.7-7 4.2-7.8 4.2-7.8 5.3 5.5 6.3 9.6 6.2 12q-.2 3-2.3 5-.9.8-2.2.8m-26.2-.7c-.2 0-.9-.2-2.7-1.8-2.1-1.9-4.5-5.1-4-8 .5-2.7 5.7-5 5.8-5 3.7 5.5 1 14.7 1 14.8zm10-2.8c-2.5 0-5.4-2.1-6-6.2-1-7 3.5-9.5 3.6-9.5q.3 0 1.1 1c2 2.2 5.4 7.4 4.9 11.4q-.6 3.2-3.7 3.3m-23.2-2.5c-2.6-.4-6-3.6-6-6.5 0-2.7 3-6.2 3-6.2l1.3.8c1.5 1 4 2.5 5 4 1.5 2-.5 8.4-.5 8.4zm53 0s-6.7-5.5-6.5-9.2 1-6.2 1-6.3c.9.3 7 3.8 7.8 6.3s-2.2 9.2-2.2 9.2z" transform="scale(1.5)" fill="#332d2c" fill-rule="evenodd" filter="url(#e)" id="path15"/><path d="M300.2 363.4c0-.1 1.5-13.9 1.2-23.8-.1-5 1.1-13.6 1.2-21.8.2-8.2.3-15.8.2-20-.3-8.5-1.5-23.8-1.5-24 .1.3 4.1 18.6 3.2 38.4-.4 10.6-1.4 19.8-1.3 27.1.2 6.5 1.5 11.7 1 15-.3 3-1.3 7-3.9 9zm27.5-18.8c-.1 0-14-7.1-16.2-13-2.3-5.8-6.4-14.3-6.4-14.4.1.1 10.8 13.3 16.5 15a29 29 0 0 0 10.2 1.2l-2 2.6 9 2.4c-.7 0-11.2-.4-16-3s-7.8-5-7.8-5c0 .1 4.4 7.4 9 8.9 4.5 1.4 10 1.7 10.1 1.7l-5.8 1.8zm-51 0s3.2-2.7 7-5.6q2.2-1.7 5.4-6.2l-.2.3c-2.7 3-11.5 7.4-16.8 7.7-5.5.3-11.8 2.9-12 3 .1-.1 2.8-4 9-5.4 6.4-1.5 8.5-3.5 8.5-3.5l-5.8-2.7s2.7.7 6 .7c3.1 0 7.6-.7 10.5-4 5.4-6 12.1-24.5 12.2-24.7 0 0 .8 4 .3 10.3s-3.2 15.3-3.2 15.4l1.1-14.8c0 .2-5.5 19.5-10.4 24.2a22 22 0 0 1-11.6 5.3m-13.9-18.9-.1-.7c-.2-1.1-.5-2.6 2.1-4.3a16 16 0 0 1 8.4-1.8c0 .1-9.3 3.3-10.4 6.8m-22.6-.6c4.6-2.6 4-4.6 4-4.7.1 0 3.3.8 3.6 1.9q.1.4-.4.8c-1.7 1.4-7.2 2-7.2 2m103.9-5.3q-9 0-17.5-2.6c-16.4-4.9-19.9-23.6-20-24.4.2 1 3.4 9.7 9.8 16.4 7.3 7.8 27 8 29.3 8a51 51 0 0 1 10.4 1.2s-4.7 1.4-12 1.4m-72-2s10.4-4.8 13-6.8 8.4-11 8.7-11.5a34 34 0 0 1-5.2 4.7c-3.4 2.7-13.5 5.3-13.6 5.3s11.3-6.2 16-10.9a65 65 0 0 0 9.2-15.6l-1.5 23-.3-11.5s-2.9 4-6.6 12c-3.7 8.2-19.6 11.3-19.7 11.3m-6.4-1.3q-3.1 0-3.7-2.3c-.2-1.4.9-3.3 3.3-4q3.6.9 7.3.8c8.7 0 14.5-3.5 14.5-3.5s-11 8.5-19.4 8.8q-1 .3-2 .2m65.5-4.2q-1.8 0-2.9-.4h-.2c-4.4-1.6-13.5-4.6-18.4-16.5.1 0 6.5 9.1 12.5 10.9a12 12 0 0 0 3.5.5q2.5-.1 4.2-.6l1.7-.3q.4 0 .6.2.3.3.2.8-.1.9-1.3 1.5a26 26 0 0 0 8.5-2.2q.4 0 .6.3c.5.7-.3 3-.3 3l6 .3s-9.1 2.5-14.7 2.5m-5.2-3.4h1.4c1 0 2.5 0 3.6-.5zm-33-17.3s-1-3 .2-6.5 3.8-6.8 3.8-6.8zm22 0c-.1 0-7-4.2-7.6-8s-.6-13.2-.6-13.3c.6 6.7 8.1 21.1 8.2 21.3m24.1-16a28 28 0 0 1-13.4-2.9c-7.2-4-12.7-9.7-12.8-9.7.2 0 16 11.5 21.9 11.5h.2q3.2-.2 3.7-1.4c.3-.7-.5-1.6-.5-1.6l3.9-.2a6 6 0 0 1 1.6-2.1l-1.2 2h-.4c-.6 1.3-.7 3 1.6 4.1 0 0-2 .3-4.6.3m-77.7-3.1q0-.3 1.8-1.1a45 45 0 0 1 7.1-4l3.2-.6c4.2-.2 8.3-1.5 9.9-2-3.1 2.4-6 2.6-9.6 2.6h-2l-1.5.1-2.8 1.3-1.2 1.3a22 22 0 0 1 5.5-1c6-.2 12-4.3 12.4-4.6l-.8.3 2.1-2c4.5-5 5-9.2 5-9.2 0 .1-.1 10.7-6.4 16-2.1 1.7-3.3 2-4.3 2l-1.8-.2q-1.4-.5-4-.6-3.5 0-8.6 1.5-.1-.2.8-2.2l-3 1.3-.3.2zm181.7-6.7c-1.9 1-11.2-11.3-23.5-32.6-12.3-21.2-19.3-72-19.4-72.4l.5-.6q.3-.6.9-.7c1 0 3.1 3.2 8.2 31a218 218 0 0 0 32.8 75.6zm-273.3-8.5s1.9-1.8 7-12c3-6.4 5.6-15.3 8.8-26.6q3-10.8 7.1-23.9C199.8 173 203 170 203 170c.2.2 0 .7-.9 3.1-1.5 4.4-5.2 14.4-12.4 38.8-11.4 37.9-19.8 45.3-20 45.4zm153.4-11.5-1-.2c1.3-1 1.8-2.7 2.3-4.3.6-2 1.1-4 3.2-4.8l2.1-.4c3 0 5.7 2.1 5.8 2.1-.1 0-5.3.4-7.9 4.5-1.6 2.5-3.3 3-4.5 3m128.6-18.2c-.2-.1-20.5-13.6-32.8-49.5-9-26-9.4-32.6-8.9-34.2v-.2q.2 0 0 .2c2.2 6 21.3 56.6 30.1 67 9.2 10.7 11.6 16.7 11.6 16.7m11.9-3c.6-.2-1.5 0-6.1-1-4-1.1-14.2-19.5-23.2-35.7l-3.8-6.8a173 173 0 0 1-14.8-42.4 382 382 0 0 0 48 86l-1.2.5zm-76-3.4c0-.2-8.1-16.1-9.5-30.4s.2-26.1.2-26.2c0 .4 2.5 40.8 9.3 56.5zm-242.6-1-.1-.2c.1-.3 17.7-26.2 24.6-40.8A181 181 0 0 1 185 150a12 12 0 0 1 9.3-4c-.1.1-6.6 5.7-24 37-17 30.5-24.4 37.1-25.3 37.1m73.8-5v-1c.7-1.2 4.8-11.2 5-16.9 0-2.6-.2-6.4-.4-10a68 68 0 0 1-.3-11c.6-4 2.7-8.5 2.7-8.6 0 .2-1.2 12.2-1 15.7.3 4.5.5 22.5-3.3 28a22 22 0 0 1-2.7 3.8m154.6-43.5s-8.1-.1-11.6-6.2c-2.6-4.7-1.2-11.7-.5-14.6a24 24 0 0 1-6.4 8.8 11 11 0 0 1-6.3 1.9c-1.7 0-3-.4-3-.4s1-2.5 2.7-4c1-.8 5-3 8.5-5l5-2.7v-.2.1q.2 0 .3-.2l-.3.6c.1 1.6.5 7 2.6 10.7 2.6 4.3 8.1 6.7 8.2 6.7s.5-.3 2-4.7c1.4-4.3-2-14.3-2-14.4q.4 0 1.8 1.4c1.2 1.3 4.2 5 4 9.8a25 25 0 0 1-5 12.4M362 149.5l-.4 1.2.4-1zm-167.1 15.3s3.3-8.8 9.6-15.8c5.7-6.4 8.8-6.7 9.3-6.7h.1c-4.3 2.5-6.2 6.3-8.2 10.6l-1.8 3.6c-3 5.8-9 8.3-9 8.3m54.2-.3s-7-1.5-7.8-7.4c-.8-5.8.7-12.2.7-12.3a75 75 0 0 1 7.1 19.7m122.2-.2-.5-.6a16 16 0 0 1-4.1-9.7c0-5.3 1.1-12.3 1.1-12.4 0 .1 5.2 11.6 3.5 22.7m99.6-.5c-1.5 0-5.7-.8-16.1-6.6-14.3-7.8-27.4-36-27.6-36.2.6 0 2.8 2.7 14.8 18.5a85 85 0 0 0 29.6 24.2zm-331.6-.2c1.7-3.3 5.2-7 8.9-10.9 3.3-3.5 6.7-7.1 9.2-10.8a771 771 0 0 1 17.8-24.6c0 .2-7.4 15.8-13.3 23.8s-22.4 22.3-22.6 22.5m252.9-3.7s-5.3-4.8-7-6.8-1.7-8.5-1.7-8.5q0 .4.6.4c.8.2 2.3.5 4.3 2.8 3.2 3.5 3.8 12 3.8 12zm-167-1.1s-3.3-4.7.2-9.4L234 137s-.2 6.1-2.9 10.6l-3.6 6.9a23 23 0 0 1-2.5 4.4m49.4-2.4c0-.1.4-7.1-1.7-8.9l-.5-.2c-.7 0-1 1.8-1.5 3.5-.3 1.8-.7 3.6-1.5 3.6l-.4-.1c-1.5-1-1.8-3.7-2-5.2l-.1-1.2s2.1-6.8 3.2-8.5q.2-.4.6-.4c1.2 0 3.3 2.3 5 4.2l1.4 1.5c2.1 2.1-2.4 11.6-2.4 11.7zm113-14.5s7.8 1.2 7.8 6.8-2.3 7-2.3 7zm-58.2 13.8c0-.1-7-8.2-4.9-13.1 0 0 .8-2.4 3.2-2.4q.8 0 1.4.3c1.7.4 2.6 1.8 3.2 3 1 2.2 1.2 5.1.3 7.2-1.4 3.5-3.1 5-3.1 5m-74.2-5.7s-1.6-1.3-1.6-3.7q0-4.3 5.8-9.4zm45.1-.6h-.2c0-.1 2.1-4.4 2.5-8.2.3-3.9-.4-7.4-.4-7.5s5 3.6 5.3 7.1c.2 1.9-1.5 4-2.5 5.2-1.7 1.8-3.8 3.4-4.7 3.4m-8.7-1.5c0-.1-6-8.9-5.6-12.7.3-3.9 3.5-5 3.5-5l.6.7c.9 1 2.4 2.9 3.3 7.4 1 5.6-1.7 9.6-1.8 9.6m-29-13.8h.2c.6 0 2.5 0 3.4 1.4q.9 1.3 0 3.9a16 16 0 0 1-7.8 8.1zm52.3 13c-2.2 0-4-2-4.2-4.9-.3-4.5 4.2-9.5 4.3-9.5a23 23 0 0 0 1 10.2l2.8-7.4s3.6 5.7 0 9.6q-1.8 2-3.9 2m-17-1.3s-1-4.3-1-7.5c0-3.1 2.8-4.2 2.9-4.2 1.4 4.2-1.8 11.6-1.8 11.7zm-91.2-.7c-.1 0-5.6-4.7-5.3-11.5s8.7-7 8.7-7h.1c.2.5 0 2.2-1.5 3.5-1 1-1.9 3.2-2.2 4.2.8-1 2.7-2.2 4.1-2.2q1.2 0 1.6 1c1.1 2.6 2.9 4 2.9 4 0 .1-.6 1.6-3.8 3-3.1 1.5-4.6 5-4.6 5m-.2-10.7q-.4.4-.4.7v.2zm196.1-1s2.3-1.8 5-1.8q2 0 3.4 1.2c3.8 2.9 2.4 8.2 2.3 8.2zm-124.8 7.4s-2.4-.8-3-2.6q-.6-1.8 1.3-4.1c3.8-4.9 2.1-8.8 2-8.8 4.6 7-.2 15.4-.3 15.5m61.2-.3c-.1 0-12-4-12-6.8s2-5.6 2-5.6c10.6 3.5 10 12.3 10 12.4m61.3-9.5c-.9-4.7-7.2-17.5-7.3-17.7h.2q4.9 0 5.2 1 .1.7-1 1.6l-.6.7v.4q.2.5 2.7.5a21 21 0 0 0 4.2-.4c1.5 0 2.4 2.8 2.4 5.3 0 1.6-.4 3.3-1.5 3.3h-.5c-2.6 0-3 10-3 10zm-93.5 3.8s-1-2.9-2.1-7.4c-1-4.6 3.5-6.7 3.5-6.7h.2c1 0 3.4 2 4.1 6.3.7 4.6-5.6 7.8-5.7 7.8m14.6-2c0-.1-4.6-9.8-2.9-13.3q.9-1.7 2.7-1.8c2 0 4 1.8 4.3 3.9.6 3-3.6 10.7-4 11.2zm-51.7-1h-.3l-1.4-.2q-3.7 0-3.9-.7s4.7-5.3 6.2-9.2c1.4-3.9.8-5.2.8-5.2s3.9 5 3.5 8.5c-.3 2.5-1.3 6.7-4.9 6.7m30-.7s-8.1-4.8-8.5-7c-.4-2.4 2-6.5 2-6.6l1.6 2c1.6 2 3.8 4.8 4.8 5.7 1.4 1.5.2 5.8.2 5.9zm-14.7-.8c0-.1-4.3-7.4-4.5-10.9s2.8-7.6 2.9-7.7a35 35 0 0 1 5.3 11.9c-.2 2.5-3.6 6.6-3.7 6.7m-8.8-5.3s.2-3.1-1.4-6l-1-1.6c-1-1.6-1.5-2.4-1.5-5.5q.2-3.2 1.1-5.9.7-2 .6-2.7l-.3-.3q.3 0 .3.3c.8 1 3.5 4.7 3.5 8 0 4-1.3 13.7-1.3 13.8zm-101-1.2 3.3-6.3 1.2-3.2c.5-1.5 1-3.2 1.8-4.2l-3 2.2a4 4 0 0 1-1.7 1s-1.2-3.7.4-5.8 6.5-5 6.6-5q.1-.2 0-.8-.3-.5-1-.5l-.8.1a35 35 0 0 0-9.3 6.5s-.4-4 1.7-6.7c2-2.7 7-7.9 7.1-8h.2q.2-.2-.8-.2h-1.6c-1.5.2-4 2.6-7.3 6a75 75 0 0 1-17.5 14.3 121 121 0 0 1-15.2 7.3c.2-.2 21.6-12.8 27.9-19.4 4.3-4.5 8.5-8.4 11.2-11l3.1-3c2-2 6.8-5 6.8-5s-10.3 2.8-16.8 5.3a42 42 0 0 1-13.1 2.7c.1 0 11.1-3.4 19.7-6.7a50 50 0 0 1 16.8-4.4l3.4.4-9 3.8a23 23 0 0 0-7.1 6.7s1.2 1.4 4.9 2.6c3.6 1.3 6.7 1.3 6.7 1.3s-3.9 3.1-5.9 3.4l-2.7.2s.3 1.4 1 2.9c.9 1.4 2.7 2 2.7 2l-1.8 4.4c-.6 1.7-3.7 7.7-3.7 7.7s2.4 1 5.1 1q1.5 0 2.7-.4c3.6-1 7.1-4.5 7.1-4.5s-1.2 7-4 10q-2 2-5.2 1.9-1.7 0-3.2-.3l-1.5-.2h-.4a43 43 0 0 0-8.8 2zm7.2-14.6q-.5.3-.8.8l2.6-1.8zm233 12s-4.1-2-7-3.7l-1-.5-.5.3c-.5.6.3 2.8.4 2.8q-3.2-5-2.2-6.8.5-.8 1.7-.8 2.1 0 4.5 1.7c3.7 2.6 4 7 4 7zm52.7-.5a59 59 0 0 1-25.8-13.6A56 56 0 0 0 422.5 94c10.6.5 14.8 5.6 20.3 11.2.5.6 1.5.9 2 1.4 6 6.2 23 14.1 23.2 14.2zm-189-4.4c0-.1.8-10.2-.4-13.5q-.5-1.2-1.3-2c-1.5-1.9-3-3.8.6-12.8 0 0 3 .8 6.4 3.5s2.9 8.5 2.9 8.6-3.3 4.1-4.7 6.5c.7-2.3 1.4-5.4 1-7.2-.8-3-3.7-8.4-3.7-8.5s-.4 4 .2 6.7q.4 1.4 1.3 2.6c1 1.5 1.9 3.1 1 5.3a99 99 0 0 0-3.3 10.8m45 0c-.1-.1-7.3-7.7-5-11.2q.9-1.2 1.6-1.3c1.5 0 2.5 3 2.5 3s.6-2.2 1.2-2.2q.6 0 .8 2.5a17 17 0 0 1-1.1 9.2m-11.1 0c-.5 0-3.8-4.5-4.9-7.1a3 3 0 0 1 0-2.4 6 6 0 0 1 3.5-3.2h.4c1.8 0 3.4 5.8 3.4 5.9zM290 116s1.5-5 .7-7.3-.3-8.5-.3-8.5 2 .7 2.5 7.5c.4 4.5-.9 6.7-1.7 7.6l-1 .7zm-1.4-.4q-.5-.9-1.5-1.6c-1.2-1-2.5-2.2-2.4-4.9.2-3.9 4.3-8.9 4.3-9 0 .1-1 4-.4 8.2s.6 7 0 7.3m117-4.4c1.8-3.5-4-11.1-4-11.2h.2c1 0 7.5.1 8.8 1.7q.5.5.3.8c-.2.4-1.4.4-2.7.5q-1.5 0-2.8.2-.3 0-.3.2c0 .4 1.5 1 3.3 1.5 2.1.8 4.7 1.7 6 2.7q.4.4.4.8c-.5 1.6-8.7 2.7-9.1 2.8zm-124.4-1 .6-2.3.7-1.4zm139.3-1.4s-2.4-1-5-4.7c-1-1.4-2-3.2-2-3.3s4.4 3.6 6.7 3.6h.3l2.9-.3s0-1.8-3.2-3.2-6-1.8-6.1-1.8-1.7-1.6-1.4-2.4q0-.3.9-.3.7 0 2 .3l1.4.4c4.6 1.2 7 1.9 8.1 3.7 1.2 2 1.2 5.9 1.2 6zm-103.8-2c-6.3-4.1-4.7-15.3-4.6-15.4l2.3.9c.1 1.4.5 5 .7 5l.1-.6c.3-2.3 4.4-7 4.4-7s1.2 9.4-.6 10.9c-1.7 1.4-2.3 6.1-2.3 6.1zm87.1-7.7h-2.5c-2 0-6-9-6-9.1l6.6-3.9s-1.7 2.7-.8 5.3c.4 1.4 3 2.7 5.2 3.9 2 1 3.7 1.9 3.5 2.6-.5 1-3.6 1.2-6 1.2m28-4.1s-3-3.6-8.1-5.6c-5.2-2-5.5-7-5.5-7.1l10.4 2.3v-3.2l7.2 4.1h-1.1c-1.9 0-6.4.2-7.3 1.5-.7 1.1 1.8 3.6 3.3 5.5.8 1 1.2 2.2 1.1 2.4zM313.5 80.3s2 1.4 3.3 1.4q.5 0 .8-.2c1.1-.9 3.1-5 3.2-5 .2.2.4.8 0 3a72 72 0 0 1-5.5 11.4zm-23.3 8.3-.4-.4s-1.3 0-7.1-1.7a5 5 0 0 1-3.3-2.5c-1.5-2.8 0-6.8 0-6.9h.3q1.3 0 2.8 5c1 3.4 2 4.2 2.8 4.2q.6-.1 1-.5l-.4.1c-.3 0-.8-.2-1.4-1.5-1-2.2-2-6.6-2-6.6s1.7.9 5.3 6.6q2.6 4 2.4 4.1zm156.9-.9h-.5c-2.4-.1-6-2-10.6-4.3-6.8-3.4-15.3-7.7-23.6-8.4l-4.2-.1a29 29 0 0 0-15.5 3.6q0-.2.3-.5c1-1.5 3.4-4.7 9.8-6.8a19 19 0 0 1 6-.9c7.2 0 16.3 3.9 28.6 10.4a32 32 0 0 0 14.9 3.5c3.4 0 5.3-1 5.3-1 0 .1-5 4.5-10.5 4.5m-298.2-1.2q-2.9-.1-3.2-.9l-.3-.7q.3.3 2.9.4 1.5.1 3.6-.5c2.8-.8 16.8-6.4 20.7-8.5 3.7-2 11.1-3.7 12-4l-.7.1c-1.4 0-3.6-.2-3.9-1.7l.2-.8c1-1.3 5.5-1.5 5.7-1.5-.3 0-9-.5-14-2.9-5.4-2.5-3.6-7-3.6-7.1s0 1.7 1.9 4c1.6 2 2.4 2.2 4.6 3l1.1.3q1.4.4 5 .4l7.3-.2 5.7-.2c5 0 12 3.9 12.1 4 0 0 0 .4-1.6.4q-1 0-2.5-.6-2-.8-6-1.5l-1.4-.1a36 36 0 0 0-10.4 2.2l2.5.6q1 .3 2.3.3l3-.3 2.7-.2h.4c3.3 0 9.2 2.3 10.2 3.7q.3.5.2.6 0 .3-.7.2l-4-.4-8-1h-2.1a49 49 0 0 0-19.7 6 88 88 0 0 1-13.6 5.5q-5.2 1.5-8.4 1.4m243.7-1.7q-1.3-2-1-3c.5-1.5 2.6-2.3 6.6-3.5q1.8-.6 4.3-.6c4.8 0 9.8 1.7 9.9 1.7a27 27 0 0 1-10.2 2.1h-.4c-2.3 0-3.3 1.2-4 2.2q-.7.9-1.3 1l-.7-.2a3 3 0 0 0-1.5-.5 2 2 0 0 0-1.6.8zm-76-5.6s-.6-.2-1.6-2.7c-1.5-3.5 2.8-9 2.9-9.1l-.3 3.8q0 .5.2.8l.7.2c1.2 0 3.1-1 3.1-1l-4.9 7.7v.2m75.5-.3.5-.4q-.2.4-.5.4m-111-3.7c-1 0-2.5-.3-4.4-2.2l-6.8-7.1c.1 0 5.4.4 8 3.7 2.7 3.3 4.1 5.4 4.2 5.5zM402 70.2c2.8-6.8 12.2-6.8 16.7-6.8h1.3a48 48 0 0 0 15.4-5.6l-.9 2.1c-.8 2-7.6 5.3-16 5.9-8 .6-16.4 4.4-16.5 4.4" transform="scale(1.5)" fill="#343434" fill-rule="evenodd" filter="url(#f)" id="path16"/><g id="g"><path d="M228.7 66.3s-5.8.2-6 3.8 2.2 7.8 5.2 9a20 20 0 0 0 12.9.3c5.3-1.5 13.5-5.3 17.3-5.2l10 .3h.9s-.7-1.3-6.6-1.6c-6-.2-10.1-1-13.5.6s-7.5 3.8-13 3.5-7.8.2-9.8-2.4-1.3-6.6 2.6-8.3z" fill="#a8121c" stroke="#780000" transform="scale(1.5)" id="path17"/><path d="M243.5 56s-.7 3.4-2 4.2-2.9 2.4-2.9 5.8c0 3.3 1.6 8.5 1.6 8.5s2.7-5.2 7-5c4.3 0 8.2 1.6 11 1.7s10 1.7 11 2.6c1 .8 1 1.2 1 1.2l-6.4.1c-1.6 0-3.7.1-5.4 1.4a22 22 0 0 1-6.8 3.5c-1.5.2-3.2 0-3.2 0s1.5 2.3 5 2.2a9 9 0 0 0 6.3-2.6c1.1-1.1 2-2 3.5-2 1.6.2 6.8-1.8 8.1-1.6s.2-2.9-1.7-3.8c-1.8-1-2.3-1.7-5-2.8s-4.1-1.7-7.6-2.4c-3.6-.6-4.3-.1-5.6-1.7-1.4-1.6-.7-2.5-1.6-3.8-.8-1.4-2.3-2.7-3-3.6s-3.2-2-3.3-1.9z" fill="#a8121c" stroke="#780000" transform="scale(1.5)" id="path18"/><path d="M248.7 63c1.5 1.8 1.1 3.3-1.3 3.3-2.3 0-4.6 3.4-5.3 3.4s-1-4 .8-6.1 3.8-2.4 3.8-2.4c.4 0 .5-.1 2 1.7" fill="#500" transform="scale(1.5)" id="path19"/></g><use transform="matrix(-1 0 0 1 900 0)" width="600" height="400" xlink:href="#g" id="use19"/></g><!-- app4joy --></svg>