<svg xmlns="http://www.w3.org/2000/svg" xml:space="preserve" id="svg16632" width="900" height="600" version="1.0" viewBox="0 0 648 432"><g id="g1"><path id="rect1981" d="M0 0h648v144H0z" style="fill:#e5143c;fill-opacity:1;stroke-width:1"/><path id="rect2868" d="M0 144h648v144H0z" style="fill:#ffffff;stroke-width:1"/><path id="rect1998_2_" d="M0 288h648v144H0z" style="fill:#00613c;fill-opacity:1;stroke-width:1"/></g><g id="g3267" transform="translate(-156)"><path id="path2089_1_" d="M420.6 282c-6.2 0-6.5-6.4-6.5-7.7V150.1h133v124.2c0 1.3-.4 7.8-6.6 7.8H485l-4.3 4.8-4.4-4.8h-55.6z" style="fill:#e5143c;fill-opacity:1"/><path id="path7335" d="m481.1 286.2 3.3-12.3c3.4-10.8 8.8-25.1 21.7-15.8 1.9-2.3 4-4.3 6.3-6h10.4s4.4 3.7 5.1 5.6c9.1-8.2 16.8.7 20.2 9.6l1.2 6-3.4 11.2z" style="fill:#00613c;fill-opacity:1"/><path id="path14433" d="m517.8 246.3.1-80.1" style="fill:none;stroke:#ffffff;stroke-width:5.99999"/><path id="path15321" d="M496.6 201.3h42.3" style="fill:none;stroke:#ffffff;stroke-width:5.99999"/><path id="path15323" d="M500.7 183.3h34.2" style="fill:none;stroke:#ffffff;stroke-width:5.99999"/><path id="path16210" d="M495.8 196.3v10" style="fill:none;stroke:#ffffff;stroke-width:2.99999"/><path id="path16212" d="m539.8 196.3.1 10" style="fill:none;stroke:#ffffff;stroke-width:2.99999"/><path id="path16214" d="m499.8 177.9-.1 10.4" style="fill:none;stroke:#ffffff;stroke-width:2.99999"/><path id="path16216" d="M535.8 178.3v10.1" style="fill:none;stroke:#ffffff;stroke-width:2.99999"/><path id="path16218" d="M512.8 165.6h10.1" style="fill:none;stroke:#ffffff;stroke-width:2.99999"/><path id="rect18910" d="M413.3 167.3h67.2V183h-67.2z" style="fill:#ffffff"/><path id="rect19797" d="M413.2 199.6h67.2v15.7h-67.2z" style="fill:#ffffff"/><path id="rect19799" d="M413.5 233.3h67.2V249h-67.2z" style="fill:#ffffff"/><path id="rect19801" d="M413.5 267.2h67.2v20.3h-67.2z" style="fill:#ffffff"/><path id="rect8223" d="M512.6 246h10.1v6.1h-10.1z" style="fill:#ffcc00"/><path id="path8226" d="m514.6 246.8-2.8-2.1" style="fill:none;stroke:#ffcc00;stroke-width:0.999998"/><path id="path8228" d="M517.7 246.2v-2.6" style="fill:none;stroke:#ffcc00;stroke-width:0.999998"/><path id="path8230" d="m521.9 246.8 2.1-2.2" style="fill:none;stroke:#ffcc00;stroke-width:0.999998"/><path id="path19890" d="M425.9 143.5 411.3 117l.3-16.4 15.8 21.5 2.4-32.3 15.6 23.8 5-26.3 8.3 17.9c2.1-17 17.5-24 17.5-24V63.6l10.3-.3v18.3s12 4 16.8 23.6l9.4-19 4.1 30.1 15-26.7 4.2 33 13.1-21.4 2.3 18-12.9 25.1s-26.7-11.7-41.1-12h-35.3s-27.5 4.5-36.2 11.3z" style="fill:#ffcc00"/><path id="path20777" d="m425.6 143.1-23.6-41c-2-1.8-.2-13.6-.2-13.6-.3-9.2 23.7-17.4 32.1-20.1 10.2-3.2 42.7-6.7 48-6.7 5.5 0 39.7 3.3 46 6.4 0 0 26.4 7.2 33 19.1 0 0 2 12 .6 13.5l-22.7 43.8" style="fill:none;stroke:#ffcc00;stroke-width:3.99999"/><path id="path22553" d="m482.4 61-16-25.9" style="fill:none;stroke:#ffcc00;stroke-width:3.99999"/><path id="path22555" d="m464.4 46.9 12.7-8.9" style="fill:none;stroke:#ffcc00;stroke-width:3.99999"/><path id="path24345" d="M413.4 69a4 4 0 0 1-3.8 4 3.9 3.9 0 0 1-3.8-4c0-2.1 1.7-3.9 3.8-3.9a4 4 0 0 1 3.8 4z" style="fill:#ffffff"/><path id="path23454" d="M398.9 105.8a4 4 0 0 1-3.8 4 3.9 3.9 0 0 1-3.9-4c0-2.1 1.7-3.9 3.9-3.9a4 4 0 0 1 3.8 4z" style="fill:#ffffff"/><path id="path24341" d="M396.7 92c0 2.3-1.7 4-3.9 4a3.9 3.9 0 0 1-3.8-3.9 4 4 0 0 1 3.8-4 4 4 0 0 1 3.9 4z" style="fill:#ffffff"/><path id="path24343" d="M401 78.3a4 4 0 0 1-3.9 4 3.9 3.9 0 0 1-3.8-4c0-2.1 1.7-3.9 3.8-3.9 2.1 0 3.8 1.8 3.9 4z" style="fill:#ffffff"/><path id="path24347" d="M427.7 63.4c0 2.1-1.7 3.9-3.8 3.9a3.9 3.9 0 0 1-3.8-4c0-2.1 1.7-3.9 3.8-3.9a4 4 0 0 1 3.8 4z" style="fill:#ffffff"/><path id="path24349" d="M442.4 59a4 4 0 0 1-3.9 4 3.9 3.9 0 0 1-3.8-4c0-2.1 1.7-3.9 3.8-3.9a4 4 0 0 1 3.9 4z" style="fill:#ffffff"/><path id="path24351" d="M456.8 56.2a4 4 0 0 1-3.8 4 3.9 3.9 0 0 1-3.8-4 4 4 0 0 1 3.8-4 4 4 0 0 1 3.8 4z" style="fill:#ffffff"/><path id="path24353" d="M471.3 54.2a4 4 0 0 1-3.8 4 3.9 3.9 0 0 1-3.9-4c0-2.1 1.7-3.9 3.8-3.9a4 4 0 0 1 3.9 4z" style="fill:#ffffff"/><path id="path24355" d="M499.7 54.2a4 4 0 0 1-3.9 4 3.9 3.9 0 0 1-3.8-4c0-2.1 1.7-3.9 3.8-3.9a4 4 0 0 1 3.9 4z" style="fill:#ffffff"/><path id="path24357" d="M513.6 56a4 4 0 0 1-3.8 4 3.9 3.9 0 0 1-3.9-4c0-2.1 1.7-3.9 3.8-3.9 2.2 0 3.9 1.7 3.9 4z" style="fill:#ffffff"/><path id="path24359" d="M528 58.9a4 4 0 0 1-3.8 4 3.9 3.9 0 0 1-3.8-4 4 4 0 0 1 3.8-4 4 4 0 0 1 3.8 4z" style="fill:#ffffff"/><path id="path24361" d="M542.9 63.5a4 4 0 0 1-3.9 4 3.9 3.9 0 0 1-3.8-4 4 4 0 0 1 3.8-4 4 4 0 0 1 3.9 4z" style="fill:#ffffff"/><path id="path24363" d="M557.1 69.4a4 4 0 0 1-3.8 4 3.9 3.9 0 0 1-3.8-4c0-2.1 1.7-4 3.8-4a4 4 0 0 1 3.8 4z" style="fill:#ffffff"/><path id="path24365" d="M569.5 78a4 4 0 0 1-3.9 4 3.9 3.9 0 0 1-3.8-4 4 4 0 0 1 3.8-4 4 4 0 0 1 3.9 4z" style="fill:#ffffff"/><path id="path24367" d="M574.1 92c0 2-1.7 3.8-3.8 3.8a3.9 3.9 0 0 1-3.9-3.9 4 4 0 0 1 3.9-4c2 0 3.8 1.8 3.8 4z" style="fill:#ffffff"/><path id="path24369" d="M571.4 106a4 4 0 0 1-3.8 4 3.9 3.9 0 0 1-3.8-4 4 4 0 0 1 3.8-4c2 0 3.8 1.8 3.8 4z" style="fill:#ffffff"/><path id="path16682" d="M408 144v130.3c0 .6.2 6.5 4 10.5 2.2 2.1 5.2 3.3 8.6 3.3h53l7 8 7-8h53c3.3 0 6.3-1.2 8.4-3.3 4-4 4-9.9 4-10.5V144H408Zm139 130.3c0 1.3-.3 7.8-6.5 7.8H485l-4.3 4.8-4.4-4.8h-55.6c-6.2 0-6.5-6.5-6.5-7.8V150.1h133z" style="fill:#ffcc00"/></g><!-- app4joy --></svg>