<svg width="900" height="600" viewBox="0 0 900 600" id="svg12686" xmlns="http://www.w3.org/2000/svg"><g id="g12812"><path fill="#060" id="rect12646" d="M0 0h900v600H0z"/><path fill="#fff" id="rect12648" d="M0 0h900v400H0z"/><path fill="#f60" id="rect12650" d="M0 0h900v200H0z"/></g><g fill="none" stroke="#000080" id="g12684"><ellipse cx="549.51434" cy="264.37357" rx="6.4250903" ry="61.376522" transform="matrix(8.41551 0 0 1 -4079.5 0)" stroke-width="1.03414404" id="ellipse12652"/><rect x="542.07477" y="204.03343" width="5.748765" height="47.975277" rx="5.7628436" ry="0" stroke-width="2.9513607" id="rect12654"/><rect x="164.59903" y="529.82501" width="6.2751427" height="109.96249" rx="5.7608519" ry="0" transform="rotate(-49)scale(1 .99984)skewX(-1)" stroke-width="3.47549367" id="rect12656"/><rect x="-390.95871" y="353.03946" width="6.5821266" height="106.25643" rx="5.6573753" ry="0" transform="rotate(256.9)scale(.98644 1)skewY(-9.3)" stroke-width="3.49899387" id="rect12658"/><rect x="-565.24884" y="135.42191" width="6.3723187" height="108.57198" rx="5.6091509" ry="0" transform="rotate(228.4)scale(.9972 1)skewY(-4.3)" stroke-width="3.48008704" id="rect12660"/><rect x="-607.60071" y="-136.03026" width="6.6098437" height="115.93497" rx="5.607163" ry="0" transform="rotate(201.4)scale(.99872 1)skewY(-2.9)" stroke-width="3.66256452" id="rect12662"/><rect x="-406.78976" y="-530.88" width="6.692224" height="117.32572" rx="5.6070495" ry="0" transform="rotate(154.8)scale(1 .99874)skewX(-2.9)" stroke-width="3.70735645" id="rect12664"/><rect x="162.00575" y="-624.30511" width="6.6033607" height="106.95035" rx="5.6063204" ry="0" transform="rotate(96)scale(1 .9973)skewX(-4.2)" stroke-width="3.51605844" id="rect12666"/><rect x="-3.8325644" y="468.54413" width="297.20425" height="17.469273" rx=".058986187" ry=".054289572" transform="rotate(-39)scale(.82758 1)skewY(29.3)" fill="#fff" stroke-width="2.49661684" id="rect12668"/><path d="m521.8 209-198 142.6L556.7 325" stroke-width="3.75" id="path12670"/><rect x="309.75699" y="346.99637" width="13.188344" height="19.613434" rx="5.7628436" ry="2.0289757" fill="#fff" stroke-width="3.1" id="rect12672"/><rect x="533.185" y="260.86722" width="14.848281" height="93.105431" rx="8.1299734" ry="5.7487597" fill="#fff" stroke-width="3.13352036" id="rect12674"/><rect x="582.56451" y="-42.342266" width="116.68275" height="15.139232" rx=".058982618" ry=".054286335" transform="rotate(36.7)scale(1 .99994)skewX(.6)" fill="#fff" stroke-width="2.5" id="rect12676"/><path d="M529 323.1v19.1" stroke-width="3.75" id="path12678"/><path d="M312.3 346c-1.3-1.7-3.1-5-5.1-7l-3.6-3.7c-1.3-1.3-2.8-1.7-3.9-3.2-.7-1-2.6-2-3.6-3-1.1-1.1-2.9-1.7-3.9-2.7-.8-.8-2.2-1.5-3.1-2q-1.8-1.2-3.4-2.7-1.7-1.3-3.4-3c-1-1-2.2-1.6-3.3-2.7a15 15 0 0 0-6.6-3.7c-1.1-.3-2-1.2-3.3-1.5-1.5-.4-2.1-1.2-3.4-1.5" stroke-width="3.19808006" id="path12680"/><path d="M290.6 325.3c-1.2-.3 1.5 2.2 1.5 3.4 0 2 1.3 3.9 1.3 6.1q0 2.2.2 4c.4 1.6 1.8 1.8 2.8 2.6s3.6.3 4.9.3 2.4-.4 3.8-.8c1.1-.3 2.7-.3 3.8-.3" stroke-width="3.125" id="path12682"/></g><!-- app4joy --></svg>