<svg height="600" width="1800" id="svg15988" viewBox="0 0 1800 600" xmlns="http://www.w3.org/2000/svg"><g id="g16114"><path d="M0 0h1800v600H0z" fill="#fff" id="path15930"/><path d="M0 0h1800v200H0z" fill="#239f40" id="path15932"/><path d="M0 400h1800v200H0z" fill="#da0000" id="path15934"/></g><g transform="translate(702.5 176.8)scale(.59834)" id="g15986" style="display:inline"><g transform="translate(59.3 -35.6)scale(.8859)" id="g15940"><path d="M68 273.7s-5.8-62.2 6.6-100.3a135 135 0 0 1 43.1-65.5c33.4-27.4 84.9-34.7 121-18.2-31.6 1.7-74 12.3-97 31.5a124 124 0 0 0-38 57.2c-11.6 37.2-5.9 97-5.9 97z" fill="#f6b721" stroke="#000000" stroke-width="3.99" id="path15936"/><path d="M90.5 172c-10.7 32.3-10.7 68-9.6 98.5l4-.2c-1-30.4-.8-65.5 9.4-97a118 118 0 0 1 69.8-76c-47 10.6-68 58.1-73.6 74.8" id="path15938"/></g><g fill="#f6b721" stroke="#000000" id="g15962"><path d="M119.3 201.9h25.3v56.6h-25.3z" stroke-width="3.53717" id="path15942"/><g stroke-width="0.7" transform="matrix(5.2942 0 0 4.82297 -1068.5 -764.3)" id="g15952"><path d="M284 342.6c-2.8-.9-5.4.5-11.1-8 0 0-2.5.8-3.8.9q-1 0-2-.3a18 18 0 0 1-3.3-2l-.5-4.9s-1-.2-1.3-.7q-.4-.7 0-1.5.5-.7 1.7-1 2.1-.5 4.3 0c1.3.3 2.2 1 3.5 1.3 3.7 1.3 11.6 2 11.6 2z" transform="translate(-38.2 -121.3)" id="path15944"/><path d="M224 211h3c.6-.1 1.2-.5 1.9-.2.4.2.8 1.1.8 1.1s-.7.9-1.1 1c-1.3.6-3.2.7-4.4 0q-.4-.5-.4-1.1.1-.6.3-.8z" id="path15946"/><path d="m224 209.2 2.9-.1c.6 0 1.6-.6 2.3-.3.4.2.8 1.1.8 1.1s-.7.9-1.1 1c-1.3.6-3.6.9-4.7 0q-.5-.3-.5-1z" id="path15948"/><path d="M262.3 328.4h2.8c.7-.2 1.6-.7 2.3-.4.4.2.8 1.1.8 1.1s-.6.9-1 1c-1.4.6-3.6.9-4.8 0q-.4-.3-.4-1z" transform="translate(-38.2 -121.3)" id="path15950"/></g><g stroke-width="3.53717" id="g15960"><path d="M147 209.3h13l8.2-5.5-8.1-5.7H147l-14.6-4.6-14.5 4.6h-14l-8.2 5.7 8.2 5.5h14l14.5 5.3z" id="path15954"/><path d="m357.7 44.6-6.3.1 2 113.7-17-75.7q-6.4 1-13 2.8l21.7 77.5-46.6-107.5q-6.6 2.4-12.8 5.4l51.5 108.2-47.7-69.3q-5.7 3.3-10.9 7.2l45.7 59.5-81.6-76.7a166 166 0 0 0-9.4 9.4l87 76.8-69-41.8a122 122 0 0 0-6.9 10.3l82 44.6 3.2-5 1.4 1.4 6.8-6.2 3.3-2 7.3-2.6v.1l6.3-1.5h6.3l6.4 1.5v-.1l7.3 2.7v-.2l3.3 2.1 6.8 6.2 1.5-1.3 2.3 3.7-1.6.6 3.4 7.9 2 7.6 94-16.8q-.9-6-2.4-12l-92 20.9 122.7-44.3q-2.1-6-4.8-11.8L400 183.4l71.3-38.8a122 122 0 0 0-6.8-10.3l-69 41.7 87-76.7q-4.5-4.8-9.4-9.4l-81.5 76.8 45.5-59.6q-5.2-3.9-10.7-7.2l-43 62.4-1.2-.6L430 61q-6.3-3-12.9-5.4l-44 101.5-.6-.4 19.8-71.2q-6.5-1.6-13.1-2.8L363.6 152l2-107.2z" id="path15956"/><path d="M357.7 143.9c-36.6 0-66.8 27-66.8 60.9 0 33.7 30.2 61 66.8 61 36.7 0 67-27.2 67-61s-30.3-60.9-67-60.9z" id="path15958"/></g></g><g stroke-width="0.7" transform="matrix(5.2942 0 0 4.82297 -1066.5 -776.3)" id="g15984"><path d="M272.2 225.6c-1.5 2.7.6 5.2-.5 7.3l-3.7-.6c-.9 0-2.2 0-2.9.4a8 8 0 0 0-3 2.6c-1.2 1.8.2 3.5 2.2 2.6 1.7 1.8 3.8.7 6.4-.3q.9-.2 1.9.2 1 .2 2 0 2.3-1 3.5-5.6l1.5.7a5 5 0 0 0-1.2-3.2l1.8.7q-.2-1.9-1.1-3l1.7.7-.2-1.6v-2c-.2-.8-.5-1-.6-1.6-.2-.4-.3-1.3-.3-1.3-5.2-2.5-4-8.3-3.1-10.7l-9.8 7.4c-2 1.4.8 6.4 5.4 7.3z" fill="#f6b721" stroke="#000000" stroke-width="0.7" id="path15964"/><path d="M272.4 220.7c-.7-.3-1.7-1-2-2l.8-1.7c-.3 2 .9 3.3 1.2 3.7m-1.1 1c-.7-.3-1.7-.9-2-2l.8-1.7c-.3 2 .8 3.3 1.2 3.7m-1 1.2c-.6-.2-1.7-.9-1.9-2l.8-1.7c-.4 2 .8 3.4 1.1 3.7m-1.2 11.5h-2.3q-.9.1-1.6.7-1 .6-1.4 1.8v1l.2.5.7-.3-.2-.4v-.7c0-.5.6-1 1-1.3 1.3-1.1 2.5-.8 3.6-1.3m5.2-.3c.5-.8 1.4-1.7 1.7-2.7a5 5 0 0 0 0-3.1c-.6.3-2 5.6-1.7 5.8m3.7-8.5c-.2 1-1.8 1-2.5.7a1.6 1.6 0 0 1-.9-2c.3 1.2 2 1.7 3.4 1.3m.3-2.7c-.2 1-1.8 1-2.5.8a1.6 1.6 0 0 1-.9-2.1c.3 1.2 2 1.7 3.4 1.3" id="path15966"/><path d="M340.7 301.9q.3 2.2-1 2.9-1.8.8-3.3-.7c-1.3-1.2-2.1-2.8-3.3-3.9a6 6 0 0 0-4.7-1.6q-2.3.2-3.8 1.9c-2 2.1-2.4 6-.4 9s7.7 5.1 9.8 6.9q2.8 2.3 3.2 3.9.7 1.8 0 4-1.1 2.7-4.9 2.6c-3.3 0-6.4-3-9.6-3.5-6-1-7.6 1.6-13.2 1.7-11 .1-15.4-3.5-15.4-3.5l-12 15c-3.6 1.6-3.8 7 0 10-1 .7-2.1 2.1-2.6 3.3q-.8 2.1-1.8 3.6s-2.4-.5-3.7-.6c-.9 0-2.2 0-3 .4a7 7 0 0 0-3 2.6c-1 1.8.3 3.5 2.3 2.6 1.7 1.8 3.8.7 6.4-.3q.9-.2 1.9.2 1 .3 2 0c1.5-.7 2.2-2.4 3.2-3.6l1.5-1.7 1 1.3a5 5 0 0 0 .5-3.3l1.2 1.4q.9-1.7.5-3.1l1.1 1.4.7-1.5 1-1.7c.2-.8.2-1.7.2-1.7q1 1 2 .8c.2-1.3.3-1.7.6-2.3q6.4-.3 11.8-2.4a25 25 0 0 0 7.4-4.8l1.6-1.4c.5-.6 2.8-.3 3.9.1.5.3 1.2 1.2 1.2 1.2.9 2.5 3 8.5 8.8 9.7-1.5 2.8.6 5.3-.5 7.4 0 0-2.4-.5-3.7-.6-.8 0-2.1 0-2.8.4a8 8 0 0 0-3.1 2.6c-1.1 1.8.2 3.6 2.2 2.6 1.7 1.8 3.8.7 6.4-.3q.9-.2 2 .2 1 .2 2 0 2.1-1 3.5-5.6l1.5.7a5 5 0 0 0-1.2-3.2l1.7.7q-.1-1.9-1.1-3l1.7.7-.2-1.6v-2l-.6-1.6-.3-1.3c-3-1.5-3.7-4.1-3.8-6.4 0-3-.5-4.8-2.4-6.7h2c3.7 0 6.7-1.8 7.6-4.6a8 8 0 0 0-.1-5.5 12 12 0 0 0-4.3-5c-2.4-2-8-4.2-9.4-6.5-1.6-2.4-1.1-5 .2-6.4s3.4-2 5.7-.1c1.3 1.2 2.1 2.8 3.3 3.9 1.3 1.2 3.6 2.2 5.5.9 2-1.3 2.3-3.2 2.1-4.9.4-1.3 1.6-2.5 3.6-2.6-.6-1.4-3.6-2.8-5 .1-1.5-2.3-4.4-1.2-5 1q2.6-.5 4.4 1.8z" fill="#f6b721" stroke="#000000" stroke-width="0.7" transform="translate(-38.2 -121.3)" id="path15968"/><path d="M287.5 206.6c1.3-.3 2.8.7 4.2 1.2l2 .5-1.4.2 1.6 3.1c-.7-1.5-5-4.7-6.4-5m-3.2 8.7q.5 4 2.5 6.2 2.2 2.2 6 3.1c-.9-1.4-3.9-2.5-5.2-3.8-1.8-1.7-2.1-4.6-3.3-5.5m7.7 17.1q.8-1.2 1.2-3a5 5 0 0 0-.4-3c-.6.4-1.1 5.9-.8 6m-9-18.4c.6-1-.7-2-1.4-2.2s-1.7.2-2 1c1-.7 2.7 0 3.4 1.2m-16.4-.8c.5 1.9 6 4.4 7 3.8l1.6-1c-2 1.1-7-1-8.6-2.8m-2.7.4c0 1.6 6.1 5.3 7.5 5l1.7-.8c-2.2 1.2-9.1-3.2-9.2-4.2m-1.4 1.9c.2 2 5.2 5 6.4 4.6l1.7-.8c-2.6.7-7.1-1.9-8.1-3.8m-1.6 1.8c-.1 1.5 3.1 3.9 4.6 4.2l1.8-.6c-2.2.4-5.8-2-6.4-3.6m-2.4.4c-.2 1.3 2.5 4.5 3.7 4.7l1.8-.4c-1.7.5-5.4-3.3-5.5-4.3m-1.5 2c0 .7.8 2.6 2 3.2l1.8-.2c-2.3-.3-3.6-2.6-3.8-3m-2.2 1c0 .8.2 2 1.2 2.6h1.8c-1.9-.5-2.8-2-3-2.5m-9 2.8c.2 1 1.8 1 2.5.7.7-.2 1.3-1.2.9-2-.3 1.1-2 1.7-3.4 1.3m0 2.5c.3 1 1.9 1 2.6.8q1.2-.6.8-2.1c-.2 1.2-2 1.7-3.3 1.3m-4.3 7.7c.8-.6 2-1 2.6-2a5 5 0 0 0 1.1-2.8c-.7 0-3.8 4.5-3.7 4.8m45.9.7H285l-1.6.7q-1 .7-1.4 1.8l.1 1 .2.5.6-.3-.1-.4-.1-.6q.3-.8 1.1-1.4c1.2-1 2.4-.7 3.6-1.3m-50.5-.7h-2.3q-1 .3-1.7.8-1 .6-1.4 1.7l.1 1 .2.5.6-.3-.1-.4v-.6q.1-.8 1-1.4c1.3-1 2.5-.7 3.6-1.3" id="path15970"/><path d="m257.4 208.8-.9.6a22 22 0 0 1-17.1 0l-1 2.4q-.8 4.3.7 7.4.9-.6 1.8-1.5c.3 1 .2 2.3 1.2 3.5a7 7 0 0 0 2.3-2.2q.3 2 1.7 3 1.4-1 1.7-3c.4.6 1.2 1.7 2.3 2.4 1-1.1 1-1.8 1.3-3a5 5 0 0 0 2.4 2.5c1-1.1.9-2.5 1.1-3.5q.8 1.2 1.8 1.5c.5-.7.9-2 .9-3q1.5 1.1 2.4 1 .4-1.9 0-3.6c.9.3 1 .6 2.2.6.7-2.7-.2-5.6-2.7-7.7z" fill="#f6b721" stroke="#000000" stroke-width="0.7" id="path15972"/><path d="M261.8 213.8h-1.5l-.5 1c0-1.4-.7-2.6-.8-3.3q.5 1.1 2.8 2.3m-2.8 2.9-1.2-.5-.6.9c.1-1.3 0-3.5-.1-4.2.2.8.8 2.9 2 3.8m-3.2 1.4-.8-.4-.5.9-.2-4.7c.2.8 1 3.4 1.5 4.2m-3.6 1.2-.7-.5-.6 1c.2-1.4.2-3.7.2-4.5.2.8.7 3.1 1.1 4m-3.6.4-.7-.5-.6 1 .2-4.4c.2.8.7 3 1.1 4m-5.1.2.7-.5.6.9c-.1-1.3-.2-3-.1-3.7zm-3.4-1.5.7-.5.6 1-.2-3.7c-.2.8-.7 2.4-1.1 3.2" id="path15974"/><path d="M237.6 201s-2.2 4-2.7 6.1c-.3 1.3-.2 3.4-.2 3.4q1 .1 2.2-1-.2 1.8.7 3.5a4 4 0 0 0 2.4-2c0 1.4.3 2.2 1 3.5 1-.3 1.8-1.4 2.5-2.2q0 1.5 1.2 3.7c1.3-.7 2-2.4 2.2-3.4.3 1 1 2.7 2.2 3.4q1.3-2.2 1.2-3.7c.8.8 1.5 2 2.5 2.2.8-1.3 1-2.1 1.1-3.6a4 4 0 0 0 2.4 2.1c.7-1.1.6-2.3.7-3.4q1.2 1.1 2.5 1.4c.1-.2.7-2.2.4-3.4 1 .8 1.7 1.3 3 1.3a8 8 0 0 0-.2-3.2q2.2.8 4 0c-2.6-4.6-6.6-5.4-11-6.2-4.9 4.5-10.8 5.4-18 1.5z" fill="#f6b721" stroke="#000000" stroke-width="0.7" id="path15976"/><path d="m263.9 206.1-1-.1v1c-.5-1.1-1.2-2.9-1.6-3.5.4.7 2.2 2.4 3.6 2.6zm-2.7 2.3-1.2-.7.1 1.7c-.4-1.3-1-3-1.4-3.7.6.6 1.7 2.1 2.5 2.7m-3 2.3-1-1-.2 1.7c-.2-1.3-.5-3.1-.8-3.8.5.7 1.3 2.3 2 3m-3.3 1.2-.8-.4-.5 1c0-1.3-.1-3.2-.3-4 .4.8 1 2.6 1.6 3.4m-7.3 1.7-.6-.6-.7.8c.2-1.2.6-3.2.6-4 .2.9.4 2.8.7 3.8m3.6-.6-.7-.3-.5 1-.3-4c.4.8 1 2.5 1.5 3.3m-8.6.2.8-.4.5 1c0-1.3 0-3.2.2-3.9-.3.8-1 2.5-1.5 3.3M239 212l.8-.4.5 1c0-1.3.3-3.7.4-4.4-.3.8-1.1 3-1.7 3.8m-3-1.8.8-.3.3 1 .8-3.6c-.4.7-1.3 2.2-2 2.9" id="path15978"/><path d="M257.1 197c.8.3 1.1 0 2 .1-.4-2-.6-2.8-2.2-4.2 1.2.4 1.4 0 2.1.1-1.7-3.1-1.4-6.3-4-8 .9-2.1.3-2.5-.4-4.5V179s-2.3.4-3 1.4l-1.1 1.4q.4-1.6-.9-2.5c-.3.5-.8 1.7-1.2 2.2q-.1-1.7-1.3-2.7-1.2 1-1.3 2.7l-1.3-2.2q-1.2.9-.8 2.5l-1-1.4c-.9-1-3-1.4-3-1.4l-.1 1.5c-.3 1.2-1.6 2.7-.5 4.5-3.1 2.2-2.4 5.1-4.1 8.3.7-.1.9.3 2.1 0-1.7 1.4-1.8 1.7-2.3 3.8.6-.3 1.2 0 2.3-.4q-.8 1.5-1.7 2a6 6 0 0 0-2 3.5q1.2-.1 2.4-.5-.5 1.3-.1 3.2 1.5-.7 2.5-1.4-.2 1.5.1 3a5 5 0 0 0 2.3-1.6q.1 1.7.8 2.8l2-1.4c.2.9.3 1.6 1.1 2.9 1.3-.6 1.5-1.4 2-2.2a6 6 0 0 0 1.4 2.6c1.3-.9 1.2-1.8 1.5-2.6.3.6.9 1.7 1.8 2.2q.9-1.4 1-2.5 1 1.1 2.4 1.8.6-1.5.5-2.8a5 5 0 0 0 2.6 1.6q.4-1.5 0-2.9 1.5 1.2 2.8 1 0-1.6-.5-2.8a6 6 0 0 0 2.5 0s-.5-1.2-1.1-1.8c-.8-.8-2-1.4-2.7-2.2z" fill="#f6b721" stroke="#000000" stroke-width="0.7" id="path15980"/><path d="M278.8 302v1q-.5 1.1-.6 2c0 .6.4 1.5.4 1.5s.3-1.1.9-1.3c.5-.3 1.6.3 1.6.3l-.3-1.5c-.3-1-2-2-2-2m13 0s-1.7 1-2 2c-.2.4-.3 1.5-.3 1.5s1-.6 1.6-.3c.5.2.8 1.3.8 1.3s.5-1 .5-1.4q-.1-1-.5-2zm-13.6 6.1a2 2 0 0 0-.8 2.2q.2.9 1.3 1.4-.5.4-.7 1-.7 3 .8 4.9l-2 3.6c1-.8 1.9-2.3 2.5-3.1l1 .6-1.4 4c.9-1 1.6-2.9 2.1-3.8l.9.2q-.3 1 .2 2l-1.5 4c.8-.9 1.5-2.5 2-3.5q.5.5 1.1.6l-.3 4.1c.5-1 .8-2.8 1-4l.6.1h.4c.2 1.1.3 2.8.7 4v-4l.9-.5c.4 1 1 2.8 1.6 4-.2-1.3-.7-3.6-1-4.4l.2-.2q.5-.8.5-1.8c1 .9 2.4 2.3 3.4 3-.6-1-2.2-2.8-3-3.5a5 5 0 0 0 2.1-1c.9.8 2.7 3.1 3.8 3.8-.6-1-2.6-3.6-3.3-4.3q1.5-2 .8-4.7-.2-.7-.7-1v-.1q1-.5 1.3-1.4a2 2 0 0 0-.9-2.2q.5 1 .2 2 0 1-1.3 1.1l-1 .1.8.5.4.4q.4.4.5.8.6 2.5-.9 4-1.4 1.6-4 1.5-1.3-.1-1-1.5l.6-.2.4-.4.2-.2q.6-.2.8-.1h.3v-.3q.2-.5 0-1.2l-.8-.9-.3-.1v-.1a6 6 0 0 1-.1-3.2q.3-.9 1.5-1.2l2.2.2a3 3 0 0 0-2.4-.9q-1.5.3-2 1.7a7 7 0 0 0 .1 3.5l.2.5.4.2.5.6v.5h-.7l-.4.4-.2.3h-1.6l-.1-.3-.5-.4h-.7v-.5l.6-.6.3-.2.3-.5q.5-1.8 0-3.5-.4-1.4-2-1.7-1.6-.1-2.4 1 1-.3 2.3-.3 1.1.2 1.5 1.2.4 1.4-.1 3.2l-.3.2-.8 1q-.2.6-.1 1v.5l.4-.1h.7l.2.3.4.4.8.2c0 1-.1 1.3-1.2 1.5a4.4 4.4 0 0 1-4.9-5.5q0-.4.6-.8l.4-.4.7-.5h-.9q-1.1-.3-1.4-1.1-.2-1.1.2-2m3.5 1.8-1 .3c.2.8 1 1.8 2.5 1q-.4-1.1-1.5-1.3m6.6 0q-1.1.2-1.4 1.3c1.4.8 2.3-.2 2.4-1zm-3.3 8.7 1.5.5h1q.3.8-.2 1.5-.6.8-2.3.9t-2.2-1q-.6-.6-.2-1.3h1l1-.4zm-8.7 1.5c-1.2.9-2.2 2.6-3.4 3l1-.1.2 1.2c.6-2.5 1.7-2.4 2.2-4.1m2.2.5c-1 1-2.1 4.1-3.3 4.7l1-.3.4 1c.2-2.5 1.7-3.7 1.9-5.4m17 .4c.2 1.5 2.3 2 2.8 4.2l.2-1.2h1.3c-2.4-1-2.4-1.3-4.4-3m-2.5.2c0 1.4 2.8 3.6 3 5.8l.3-1 1 .4c-1.3-1.1-3.3-4.4-4.3-5.2m-13 1.8c-.9 1.2-1.2 3-2.2 3.8l1-.5.4 1.1c-.2-2.5.8-2.6.7-4.4m11.6 0c0 1.6 1.8 2.8 1.4 5.3l.5-1 1 .5c-1-.8-2-3.8-3-4.7m-2.2.5c-.3 1.8 1.1 3.1.5 5.6l.7-1 .9.7c-1-1-1.5-4-2-5.3m-7.3 1c-.6 1.4-.6 3.1-1.4 4l.9-.6.6 1c-.6-2.5.2-2.6-.1-4.4m5 .2c-.6 1.7.7 2.3 0 4.7l.6-.9.9.7c-.9-1-1-3-1.6-4.5m-2.2 1c-.6 1.4-.2 2.5-1 3.5l.9-.7.6 1c-.8-2.5 0-2-.5-3.7" transform="translate(-38.2 -121.3)" id="path15982"/></g></g><!-- app4joy --></svg>