<svg height="1000" width="1500" id="svg23755" viewBox="0 0 1500 1000" xmlns="http://www.w3.org/2000/svg"><g stroke-width="500" id="g23745"><path d="M0 0h1500v1000H0z" fill="#009246" id="path23739"/><path d="M500 0h1000v1000H500z" fill="#fff" id="path23741"/><path d="M1000 0h500v1000h-500z" fill="#ce2b37" id="path23743"/></g><g id="g23882" style="display:inline"><path d="M577 288h346v413.7H577Z" fill="#d2232c" id="path23747"/><path d="M723.3 288h53.4v413.7h-53.4Z" fill="#ffffff" id="path23749"/><path d="M923 460.8v53.4H577v-53.4z" fill="#ffffff" id="path23751"/><path d="M512.3 245.4s21.5 18.6 21.5 55.9v350.6c0 52 39 80.3 79.2 80.3h105.7a30 30 0 0 1 31.3 22.4s4.6-22.4 31.3-22.4H887c40.2 0 79.2-28.4 79.2-80.3V301.3c0-37.3 21.5-56 21.5-56zm71.4 49.4h332.6v345.4c0 22.5-8.7 40-36.2 40H779.8c-20.6 0-29.8 14.8-29.8 14.8s-9.2-14.7-29.8-14.7H619.9c-27.5 0-36.2-17.6-36.2-40.1z" fill="#4b61d1" fill-rule="evenodd" id="path23753"/></g><!-- app4joy --></svg>