<svg width="300" height="150" id="svg2" viewBox="0 0 300 150" xmlns="http://www.w3.org/2000/svg"><g id="g6"><path style="fill:#0093dd;stroke:none" id="rect1" d="M0 0h300v150H0z"/></g><g id="g4"><path d="m37.3 24.2 2.2 8L48 32l-7 4.7 2.9 7.9-6.6-5.3-6.6 5.3 3-8-7-4.6 8.3.4z" style="fill:#FFFFFF;stroke:none" id="path1"/><path d="m37.3 49.3 2.2 8.2L48 57l-7 4.6 2.9 8-6.6-5.3-6.6 5.2 3-7.9-7-4.6 8.3.4z" style="fill:#FFFFFF;stroke:none" id="path2"/><path d="m37.3 74.5 2.2 8 8.5-.3-7 4.7 2.9 7.9-6.6-5.3-6.6 5.3 3-8-7-4.6 8.3.4z" style="fill:#FFFFFF;stroke:none" id="path3"/></g><g id="g5"><path d="m171 84.6-41.5-38.3c-3.4-3.4-8.2-3.8-11.3-.8-2.7 2.7-4.1 6.9-.7 10.4l33 30c4 4 8.5 7.5 8.5 12.3a8.7 8.7 0 0 1-17.3 0c0-4.8 5-9 8.6-12L182 57.3a8 8 0 0 0 .3-11.7c-2.7-3-8-2.6-11.3.8l-41.4 38.3c-3.4 3.3-8.2 3.8-11.3.8-2.7-2.7-4.1-6.9-.7-10.4l33-30c4-4 8.5-7.5 8.5-12.3a8.7 8.7 0 0 0-17.3 0c0 4.8 5 9 8.6 12L182 73.7a8 8 0 0 1 .3 11.7c-2.7 3-7.9 2.5-11.3-.8z" style="fill:none;stroke:#FFFFFF;stroke-width:4" id="path4"/></g><!-- app4joy --></svg>