<svg id="레이어_1" x="0px" y="0px" viewBox="0 0 800 600" xml:space="preserve" xmlns="http://www.w3.org/2000/svg"><g id="g53"><path fill="#e60004" id="polygon1" style="display:inline" d="M494 0H0v600h494V104.8L800 0z"/></g><g id="g52"><path fill="#e60004" d="M269.6 162.3q-9-2.7-17.7-5c-2.9-.6-5.7-1.4-8.6-1.6q-2.1-.4-4.2-.5h-6l-2 .3-4.6 1c-3.4.4-6.8 1-10.2.8q-9.2.1-17.3-3.4c-.4-.2-.2-.8.2-.7q8.3 1.1 16.6-.2 4.7-.6 9.3-2l4.6-1.3 2.4-.6 2.4-.3 5-.3q2.4 0 4.9.4a65 65 0 0 1 18.9 5q4.5 1.6 9 4z" id="path1"/><g id="g2"><path fill="#666666" d="m270 163.4-4.2-1.2a341 341 0 0 0-17-4.6q-2.8-.7-5.6-1l-2.8-.4-1.4-.1h-5.9l-1.1.2-.8.2-2.5.4-2 .5h-.3q-5 1-10.1.8-10.4 0-17.7-3.5-1-.6-.7-1.6t1.4-.9q7.4 1.2 16.4 0 4-.7 9.1-2l1.1-.4 3.6-1 .8-.2 1.7-.4 2.4-.3 3.8-.3h1.2l5.1.3a65 65 0 0 1 19.1 5q5.1 2 9.2 4.2l.8.5zm-34-9.2h3.1l1.5.2q1.5 0 2.9.3 2.9.3 5.8 1l2.8.7q7.2 1.8 14.3 4l2.8.8 1.8-3a87 87 0 0 0-31.6-8.7h-1.1q-1.9 0-3.6.2l-2.5.3-1.4.4-.9.2-3.4 1-1.2.3a77 77 0 0 1-22 2.6q5.8 1.8 13 1.9a59 59 0 0 0 15.4-1.9l1.3-.2h2z" id="path2"/></g><g id="g12"><g id="g3"><path fill="#ffed00" d="M309.8 96s-10.9 10.5-13.9 9.7-10-4.6-10-4.6l-.2-17.3-4.6-1.2-4.5-1.2-8.8 14.9s-8-.2-11-1-7.2-15.4-7.2-15.4l-8.5 1.6 6.3 24.7L273 113l25.6 6.9 17.8-18.3z" id="path3"/></g><g id="g4"><path fill="#666666" d="m298.9 120.9-52.3-14-6.6-26.2 10.3-1.9.2.8c2 6.8 5 14.3 6.5 14.8 2.5.6 8.4.9 10.3 1l8.9-15.1 10.4 2.8.2 17.4c1.6.9 7 3.7 9.4 4.3 1.5.4 8-4.6 13-9.5l.6-.6 8 6.8zm-50.7-15.5 50.1 13.4 16.7-17.2-5.1-4.4c-3.2 3-11.2 10.2-14.2 9.4s-10-4.5-10.3-4.7l-.5-.2-.2-17.2-7.6-2-8.8 14.7h-.5c-.4 0-8.2-.2-11.3-1-3-.9-6.3-11-7.6-15.2l-6.6 1.2z" id="path4"/></g><g id="g5"><circle fill="#ffed00" cx="281.86591" cy="79.870117" r="7.4205799" id="circle4"/></g><g id="g6"><path fill="#666666" d="M279.7 88a8.4 8.4 0 1 1 4.3-16.2 8.4 8.4 0 0 1-4.3 16.1m3.8-14.4a6.5 6.5 0 1 0-3.3 12.6 6.5 6.5 0 0 0 3.3-12.6" id="path5"/></g><g id="g7"><circle fill="#ffed00" cx="245.41838" cy="79.728378" r="7.4205799" id="circle6"/></g><g id="g8"><path fill="#666666" d="M243.3 87.8a8.4 8.4 0 1 1 4.3-16.1 8.4 8.4 0 0 1-4.3 16m3.8-14.3a6.5 6.5 0 1 0-3.3 12.5 6.5 6.5 0 0 0 3.3-12.5" id="path7"/></g><g id="g9"><circle fill="#ffed00" cx="313.52249" cy="97.934013" r="7.4205799" id="circle8"/></g><g id="g10"><path fill="#666666" d="M311.4 106a8.4 8.4 0 1 1 4.3-16.1 8.4 8.4 0 0 1-4.3 16.1m3.8-14.3a6.5 6.5 0 1 0-3.3 12.5 6.5 6.5 0 0 0 3.3-12.5" id="path9"/></g><g id="g11"><path transform="rotate(-75 275 105.4)" fill="#666666" id="rect10" d="M274.1 74.4h1.9v61.9h-1.9z"/></g></g><g id="g13"><path fill="#ffed00" d="M98.4 442s-6.3 8-4.3 16.5c.2 1 1.4 1.2 2 .5l11.6-13.2s0-5.6-9.3-3.7" id="path12"/></g><g id="g14"><path fill="#666666" d="M95.3 460.3h-.6q-1.3-.4-1.5-1.6c-2-8.8 4.3-16.8 4.5-17.2l.2-.2.4-.1q5.8-1.2 8.5 1a5 5 0 0 1 1.8 3.6v.4L97 459.6q-.7.7-1.6.7M99 443c-1 1.4-5.6 8.3-4 15.4l.2.2.3-.1 11.3-12.9q0-.7-1.2-1.8-2-1.5-6.6-.8" id="path13"/></g><g id="g15"><path fill="#ffed00" d="M192 432.8s6.3 8 4.4 16.4c-.2 1-1.5 1.3-2.1.5l-11.6-13.2s0-5.5 9.3-3.7" id="path14"/></g><g id="g16"><path fill="#666666" d="M195.2 451q-1 0-1.6-.7L181.8 437v-.4s0-2 1.8-3.5q2.7-2.3 8.6-1h.3l.2.2c.3.4 6.6 8.4 4.6 17.2a2 2 0 0 1-2 1.7m-11.5-14.8 11.3 12.9h.3l.2-.1c1.6-7.1-3-14-4-15.3q-4.6-.9-6.7.7-1.1 1-1 1.8" id="path15"/></g><g id="g17"><path fill="#ffed00" d="M140 460.2s0 10.1 6.9 15.5c.7.7 1.9 0 2-.9l.7-17.5s-3.5-4.3-9.6 3" id="path16"/></g><g id="g18"><path fill="#666666" d="M147.6 477q-.8 0-1.3-.5c-7.1-5.7-7.2-15.8-7.2-16.3v-.3l.2-.3q3.8-4.5 7.3-4.5a5 5 0 0 1 3.7 1.6l.2.3-.7 17.8a2 2 0 0 1-2.2 2.1m-6.6-16.4c0 1.7.7 9.9 6.4 14.4h.3l.2-.2.7-17.1a3 3 0 0 0-2-.8q-2.6 0-5.6 3.7" id="path17"/></g><g id="g19"><path fill="#ffed00" d="M100.5 406.6s-9.6-3.3-17 1.5c-.8.5-.6 1.8.3 2.1l16.3 6.4s5.3-2 .4-10" id="path18"/></g><g id="g20"><path fill="#666666" d="M100.1 417.6 83.5 411a2.2 2.2 0 0 1-.4-3.8c7.6-5 17.3-1.7 17.7-1.6l.3.1.2.3q3 5.1 1.9 8.4a5 5 0 0 1-2.7 3zm-7-11.2c-2.8 0-6.1.6-9 2.4l-.1.3.2.3 16 6.2c.3-.3 1-.8 1.2-1.7q.8-2.4-1.5-6.5c-1-.3-3.6-1-6.8-1" id="path19"/></g><g id="g21"><path fill="#ffed00" d="M213.5 386.4s-44.6 26-48.3 35.3 24.1 3.7 27.9 11.1-1.9 7.4-7.5 7.4-27.8-11-35.2-5.5 3.7 29.7-1.9 31.5-13 0-11.1-7.4 7.4-18.6-1.9-20.4c-9.2-1.9-26 14.8-31.5 13s-11.1-7.5-5.6-13 27.9-3.7 29.7-7.4-39-11.2-39-18.6 11.2-9.3 16.8-3.7c5.5 5.6 26 18.6 35.2 16.7s59.4-48.2 59.4-48.2z" id="path20"/></g><g id="g22"><path fill="#666666" d="M144.4 467.8q-3.6 0-6.3-2.1c-1.2-1.2-2.5-3.4-1.6-7.1l1.2-4.3c1.5-4.6 3.1-9.8 1.4-12.7q-1.1-1.8-3.7-2.3c-4.7-1-11.9 3.5-18.1 7.4-6 3.6-10.6 6.5-13.6 5.6-3.3-1.1-7.4-3.8-8.3-7.7-.4-1.6-.3-4.2 2.4-6.9 3.2-3.2 11.3-4 18.5-4.8 4.4-.5 10-1 10.9-2.2-1-1.2-8.3-3.6-14.1-5.4-14.6-4.7-24.9-8.3-24.9-12.9q.1-4.9 5-7c3.7-1.6 9.5-1.1 13.3 2.6 5.8 5.8 25.8 18.2 34.4 16.5 7.2-1.4 41.7-32 59-48l.5-.5 14.8 10.5-1.3.7c-15.3 9-45 27.7-47.8 34.8q-.6 1.4 0 2.1c1.2 2 6.7 2.6 12 3 6.8.7 13.8 1.4 15.8 5.3q2.2 4.3.7 6.4c-1.4 2.4-5 2.4-9 2.4-2 0-5.4-1.2-9.8-2.6-8.5-2.8-20.2-6.7-24.9-3.2-3.5 2.7-2 11.2-1 18.1 1.3 7 2.2 12.5-1 13.6q-2.2.6-4.5.7M134 437.3q1 0 1.7.2 3.6.6 5 3.1c2.1 3.6.4 9.3-1.2 14.3l-1.2 4.1q-.9 3.5 1.1 5.3c1.8 1.7 5.5 2.2 8.8 1 1.8-.6.8-6.4 0-11.5-1.4-7.7-2.9-16.5 1.6-19.9 5.4-4 17.1-.2 26.6 3 4 1.3 7.6 2.4 9.2 2.4 3.1 0 6.6 0 7.5-1.4q.7-1.4-.9-4.7c-1.5-3-8.3-3.6-14.3-4.2-6.3-.6-11.7-1.1-13.4-3.9q-1-1.5-.1-3.8c3.4-8.6 40-30.6 47.4-35l-11.2-8c-5.8 5.4-50.3 46.2-59.3 48-9.6 2-30.3-11.1-36-17a11 11 0 0 0-11.4-2.2c-1.4.6-3.8 2-3.8 5.3 0 3.5 14.2 8 23.5 11 9.6 3.1 14.6 4.8 15.4 6.7q.3.6 0 1.3c-1 2-5.2 2.6-12.5 3.3-6.5.7-14.6 1.5-17.4 4.3q-2.5 2.6-2 5.2c.8 3 4.2 5.3 7.2 6.3 2.1.7 7.1-2.4 12-5.4 5.9-3.7 12.5-7.8 17.7-7.8" id="path21"/></g><g id="g23"><path fill="#ffed00" d="M391.6 442s6.3 8 4.3 16.5c-.2 1-1.4 1.2-2 .5l-11.6-13.2s0-5.6 9.3-3.7" id="path22"/></g><g id="g24"><path fill="#666666" d="M394.7 460.3q-1 0-1.6-.7l-11.7-13.4v-.4s0-2 1.8-3.5q2.8-2.3 8.5-1.1h.4l.2.3c.2.4 6.5 8.4 4.5 17.2a2 2 0 0 1-2 1.6m-11.5-14.8 11.3 12.9h.3l.2-.1c1.7-7.2-3-14-4-15.4q-4.6-.8-6.6.8-1 1-1.2 1.8" id="path23"/></g><g id="g25"><path fill="#ffed00" d="M298 432.8s-6.3 8-4.4 16.4c.2 1 1.5 1.3 2.1.5l11.6-13.2s0-5.5-9.3-3.7" id="path24"/></g><g id="g26"><path fill="#666666" d="M294.8 451h-.6q-1.1-.4-1.5-1.6c-2-8.8 4.3-16.8 4.6-17.2l.2-.2h.3q5.9-1.3 8.6 1a5 5 0 0 1 1.8 3.5v.4l-11.8 13.4q-.6.8-1.6.8m3.7-17.3c-1 1.4-5.6 8.2-4 15.3q0 .2.2.2l.3-.1 11.3-12.9q0-.7-1.1-1.8-2-1.6-6.7-.7" id="path25"/></g><g id="g27"><path fill="#ffed00" d="M350 460.2s0 10.1-6.9 15.5c-.7.7-1.9 0-2-.9l-.7-17.5s3.5-4.3 9.6 3" id="path26"/></g><g id="g28"><path fill="#666666" d="m342.4 477-.9-.3q-1.1-.5-1.3-1.9l-.7-17.8.2-.3a5 5 0 0 1 3.6-1.6q3.6 0 7.4 4.5l.2.3v.3c0 .5-.1 10.6-7.2 16.3q-.6.4-1.3.4m-1-19.3.7 17q0 .3.2.3h.3c5.7-4.5 6.4-12.7 6.4-14.4q-3.1-3.6-5.6-3.7-1.5.2-2 .8" id="path27"/></g><g id="g29"><path fill="#ffed00" d="M389.5 406.6s9.6-3.3 17 1.5c.8.5.6 1.8-.3 2.1l-16.3 6.4s-5.3-2-.4-10" id="path28"/></g><g id="g30"><path fill="#666666" d="m389.9 417.6-.4-.2s-2-.7-2.7-2.9q-1.2-3.3 2-8.4l.1-.3h.3c.4-.2 10.1-3.4 17.7 1.5q1 .7 1 2-.2 1.3-1.4 1.8zm.2-10.2q-2.2 4.1-1.5 6.5.6 1.4 1.3 1.7l16-6.2.1-.3v-.3c-6.2-4-14.2-2-15.9-1.4" id="path29"/></g><g id="g31"><path fill="#ffed00" d="M276.5 386.4s44.6 26 48.3 35.3-24.1 3.7-27.9 11.1 1.9 7.4 7.5 7.4 27.8-11 35.2-5.5-3.7 29.7 1.9 31.5 13 0 11.1-7.4-7.4-18.6 1.9-20.4c9.2-1.9 26 14.8 31.5 13s11.1-7.5 5.6-13-27.9-3.7-29.7-7.4 39-11.2 39-18.6-11.2-9.3-16.8-3.7c-5.5 5.6-26 18.6-35.2 16.7s-59.4-48.2-59.4-48.2z" id="path30"/></g><g id="g32"><path fill="#666666" d="M345.6 467.8q-2.3 0-4.4-.7c-3.3-1.1-2.4-6.6-1.2-13.6s2.6-15.4-1-18c-4.6-3.6-16.3.3-24.8 3-4.4 1.5-7.9 2.7-9.8 2.7-4 0-7.6 0-9-2.4q-1.4-2 .7-6.4c2-3.9 9-4.6 15.8-5.2 5.3-.5 10.8-1 12-3q.6-.9 0-2.2c-2.8-7-32.5-25.8-47.8-34.8l-1.3-.7 14.8-10.5.6.5c17.2 16 51.7 46.6 58.9 48 8.6 1.7 28.6-10.7 34.4-16.5 3.8-3.7 9.6-4.2 13.3-2.6q4.9 2.1 5 7c0 4.6-10.3 8.2-24.9 12.9-5.8 1.8-13 4.2-14.1 5.4 1 1.1 6.5 1.7 11 2.2 7 .7 15.2 1.6 18.4 4.8 2.7 2.7 2.8 5.3 2.4 7-.9 3.8-5 6.5-8.3 7.6-3 1-7.6-2-13.6-5.6-6.2-4-13.4-8.3-18-7.4q-2.8.6-3.8 2.3c-1.7 2.9 0 8 1.4 12.7l1.2 4.3c1 3.7-.4 6-1.6 7.1a9 9 0 0 1-6.3 2.1m-12-35.6q4 0 6.6 1.7c4.5 3.4 3 12.2 1.6 20-.8 5-1.8 10.8 0 11.4 3.3 1.2 7 .7 8.8-1q2-1.8 1.1-5.3l-1.2-4.1c-1.6-5-3.3-10.7-1.2-14.3q1.5-2.5 5-3.1c5.4-1.1 12.8 3.5 19.4 7.6 4.9 3 9.9 6 12 5.4 3-1 6.4-3.4 7.1-6.3q.6-2.6-1.9-5.2c-2.8-2.8-10.9-3.6-17.4-4.3-7.3-.7-11.4-1.3-12.5-3.3q-.3-.6 0-1.3c.8-1.9 5.8-3.6 15.4-6.6 9.3-3 23.5-7.6 23.5-11 0-3.3-2.4-4.8-3.8-5.4-3.2-1.3-8-1-11.3 2.3-5.8 5.8-26.5 18.8-36 17-9-1.9-53.6-42.7-59.4-48l-11.2 8c7.4 4.3 44 26.3 47.4 35q.9 2 0 3.7c-1.8 2.8-7.2 3.3-13.5 4-6 .5-12.8 1.2-14.3 4.1q-1.6 3.3-.9 4.7c1 1.4 4.4 1.4 7.5 1.4 1.6 0 5.2-1.1 9.2-2.5a73 73 0 0 1 20-4.6" id="path31"/></g><g id="g33"><path fill="#ffffff" d="M463 268.6c-1.9-16.7-24.1-50-24.1-50s14.8-3.8 9.2-16.7c-5.5-13-24-24.2-24-31.6s31.5 22.3 33.3 3.7c1.5-14.6-22.3-21.1-32.5-23.3a2 2 0 0 1-.8-3.5c5.8-4.3 16.1-13.4 14.8-21.4-1.9-11.1-20.4 1.8-27.9 0s-14.8-5.6-11.1-11.1 29.7-11.2 26-22.3-31.6 7.4-40.8 3.7c-9.3-3.7-29.7-11.1-40.8 7.4-11.2 18.6 11 53.8 18.5 59.4s22.3 35.2 31.5 40.8c9.3 5.6 18.6 26 1.9 31.5s-27.8-14.8-44.5-5.5-22.3 31.5-70.5 5.5l-13.8 4.6c-1.6-4.2-3.2-11.1 1.7-14.8 6.8-5 4.3 4 12.4 8.3 1 .5 2-.4 1.7-1.4-1.4-4.5-3.9-14.7-1.1-21.7 0 0 3.3 8.2 16 6.1 1-.2 1.3-1.4.5-2-3.8-3.1-11.5-10.9-7.2-20.8 0 0 6.5 4.9 16.5 4 .9-.1 1.3-1.1.8-1.8-3.2-4.2-11-16.2-8-28.2 0 0 3.3 3.3 11.4.6.8-.3 1-1.2.6-1.8-2-2.6-6.5-8.9-6.5-11.8 0-3.7 5.6-1.8 5.6-7.4 0-5.5 0-14.8-5.6-20.4s-20.4-22.2-57.5-20.4c0 0-22.3 1.9-31.5 14.9l22.2 9.2s27.9 9.3 26 22.3-7.4 13-7.4 13 0 11.1-7.4 13c-7.3 1.8-52.4 10.9-50.2 60.8-40.5 19-46.4-1.1-62-9.8-16.8-9.3-27.9 11.1-44.6 5.5s-7.4-26 1.9-31.5c9.2-5.6 24-35.2 31.5-40.8s29.7-40.8 18.5-59.4c-11-18.5-31.5-11.1-40.8-7.4s-37-14.8-40.8-3.7 22.3 16.7 26 22.3c3.7 5.5-3.7 9.2-11.1 11-7.5 2-26-11-27.9 0-1.3 8.1 9 17.2 14.8 21.5a2 2 0 0 1-.8 3.5c-10.2 2.2-34 8.7-32.5 23.3 1.8 18.6 33.4-11 33.4-3.7S47.4 189 41.9 202s9.2 16.6 9.2 16.6-22.2 33.4-24 50.1c-2 16.7 24-1.8 29.6-1.8 4.6 0 5.4-18.8 9.7-18.3-3.3 18.2-19.9 111.2-19.9 121.2 0 11.2-11.1 27.9-1.9 29.7 9.3 1.9 31.6-22.2 37.1-39 4.4-12.9 16.5-58.3 21.7-78l7.1 3.7a692 692 0 0 1-8.3 54c-3.8 14.8-9.3 35.2-3.8 33.4 4.5-1.5 16.2-60.8 20.6-83.8l4 1.4c.8 11.7 2.5 41.3-.4 54.5-3.8 16.7-1.9 33.4 7.4 33.4 8.9 0 24.5-23.8 29.1-79.6 5.6.7 9 .8 9 .8l6.8 48.2a2.4 2.4 0 0 0 4 1.4c12.8-11.3 20.6-46 20.6-46s13 31.6 5.6 35.3a52 52 0 0 0-14.8 14.9c-13 3.7-5.6 16.7-7.4 22.2s14.8 3.7 16.6 7.5 13 9.2 20.5 11c7.4 2 11-24 11-16.6s3.8 42.7 3.8 48.2-13 35.3-29.7 42.7-29.7-24.1-35.2-14.8c-5.6 9.2 16.7 20.4 7.4 24-9.3 3.8-47.3-.9-54.7 25.1s18.5 33.4 18.5 33.4c-1.8-29.7 16.7-37.1 31.5-42.7 14.9-5.5 11.2 1.9 22.3 5.6s31.5-26 31.5-26-18.5 31.6-22.2 35.3-13 16.7 0 16.7 31.5-42.7 31.5-42.7-5.5 22.3-7.4 35.3 16.7 31.5 16.7 31.5 18.6-18.6 16.7-31.5c-1.9-13-7.4-35.3-7.4-35.3s18.5 42.7 31.5 42.7 3.7-13 0-16.7-22.2-35.3-22.2-35.3 20.4 29.7 31.5 26 7.4-11.1 22.3-5.6 33.3 13 31.5 42.7c0 0 26-7.4 18.5-33.4s-45.4-21.3-54.7-25 13-14.9 7.4-24.1-18.5 22.2-35.2 14.8-29.7-37.1-29.7-42.7c0-5.5 3.7-40.8 3.7-48.2s3.7 18.5 11.1 16.7c7.5-1.9 18.6-7.4 20.5-11.1 1.8-3.8 18.5-1.9 16.6-7.5s5.6-18.5-7.4-22.2c0 0-7.4-11.2-14.8-14.9s5.6-35.2 5.6-35.2 7.8 34.6 20.7 45.9c1.4 1.2 3.6.4 3.9-1.4l6.9-48.2s3.3-.1 8.9-.8C335.5 355.2 351 379 360 379c9.3 0 11.1-16.7 7.4-33.4-2.9-13.2-1.2-42.8-.3-54.5l3.9-1.4c4.4 23 16 82.3 20.6 83.8 5.5 1.8 0-18.6-3.8-33.4a692 692 0 0 1-8.3-54l7-3.6c5.3 19.6 17.4 65 21.8 78 5.5 16.7 27.8 40.8 37 39 9.3-2-1.8-18.6-1.8-29.8 0-10-16.6-103-19.9-121.2 4.3-.5 5.1 18.3 9.7 18.3 5.6 0 31.5 18.5 29.7 1.8" id="path32"/></g><g id="g34"><path fill="#666666" d="m245 550.6-.7-.3c-.7-.7-18.8-19-17-32.3 1.2-7.7 3.6-18.8 5.4-26.5-6.2 12.6-18.6 35-28.5 35q-5.9 0-7.2-3.3c-2-5 4.6-13 6.5-15s9-13.2 14.6-22.4c-7 8-16.7 17-23.5 14.7a22 22 0 0 1-8.2-5c-2.9-2.5-4.5-4-13.4-.6-13.9 5.2-32.8 12.3-31 41.7a1 1 0 0 1-1.1 1c-.3 0-26.8-8-19.2-34.5 5.7-20.1 28.8-22.4 44.1-24 4.8-.4 9-.8 11.1-1.7q1.5-.6 1.7-1.4c.4-1.5-2-4.2-4.1-6.9-3.9-4.5-8.6-10.1-5.4-15.4q1-2 2.9-2.2c2.7-.3 5.9 2.8 9.9 6.7 6.2 6.1 14 13.8 22.8 10 16-7.2 29.2-36.2 29.2-41.9 0-2.5-.8-11.5-1.7-21l-2-24c-1.8 6.1-5.2 15.7-10.5 14.4-7-1.8-18.9-7.4-21-11.6-.6-1.2-4.3-1.8-7.3-2.3-4.1-.6-8-1.2-9.2-3.3a3 3 0 0 1-.2-2.6q.6-2.3-.1-6.2c-.7-5.8-1.7-13.6 7.8-16.5a51 51 0 0 1 15-14.9c4.5-2.2-.3-19.4-5-31.4-2.1 8.6-9.4 34-20.3 43.6q-1.5 1.2-3.3.6-1.9-.7-2.1-2.6l-6.8-47.4q-1.9 0-7.2-.6c-4.7 54.8-20.3 79.4-30 79.4q-3.8 0-6.2-3c-4.4-5.4-5.2-17.8-2.1-31.5 2.8-12.8 1.2-41.3.4-53.6l-2.4-.8c-10.3 54-17.4 82.1-21 83.3q-1.8.4-2.4-.4c-2.7-2.5-.2-13.8 4-30.6l1-3.5a691 691 0 0 0 8.2-53.2l-5.5-2.8c-5.2 19.8-17.1 64.2-21.4 77-5.4 16.4-28 41.6-38.1 39.5a5 5 0 0 1-3.7-2.3c-1.8-3.2-.2-8.6 1.8-14.8 1.5-4.6 3-9.4 3-13.5C45.6 360 61 273 65 250.5c-1 1.6-1.9 4.8-2.5 7-1.5 5.3-2.9 10.2-5.9 10.2-1.4 0-4.8 1.6-8.4 3.3-7.5 3.5-16 7.5-20.1 4.5q-2.7-1.9-2.1-7c1.7-15.2 19.8-43.6 23.6-49.4-2.2-.8-6.8-2.9-9-7.1q-2.2-4.6.3-10.5c2.9-6.7 9-12.8 14.4-18.2 5-5 9.7-9.7 9.7-13v-.3c-1-.4-5.6 2.2-9 4-7.1 4-16 9-21 6.4q-3-1.5-3.4-6.3c-1.6-15.3 22.7-22 33.2-24.3q.8 0 .8-.8.1-.7-.3-1c-6.3-4.7-16.6-13.9-15.2-22.4q.6-3 2.7-4.4c3.4-2 9.2-.2 14.8 1.6 4.2 1.3 8.5 2.7 11 2 6.2-1.5 10.3-3.7 11.2-6.2q.8-1.5-.6-3.4a30 30 0 0 0-9.5-5.8c-8.6-4.1-19.2-9.3-16.6-17.3a6 6 0 0 1 3-3.4c4.4-2.2 12.1.4 20.4 3.2 7 2.3 14.4 4.8 18 3.3 7.4-3 30-12 42 7.9 11.5 19.2-11.5 55-18.8 60.5-3.3 2.4-8 9.8-13.2 17.6-6.5 9.9-13.2 20.1-18.5 23.3-5.6 3.4-11.3 12.8-10.5 20.2q.8 7.1 8.5 9.7c7.5 2.5 13.7-.5 20.3-3.6 7.4-3.5 15.1-7 24.4-2 3.6 2 6.7 4.7 9.7 7.2 10.5 8.8 20.5 17 51 3-1.3-31.8 16-52.8 50-61l.8-.2c6.7-1.7 6.8-12 6.8-12.1a1 1 0 0 1 .9-1s4.8-.3 6.5-12.1c1.7-12.1-25-21.2-25.4-21.3l-22.3-9.3-.5-.6q-.1-.5.1-.8c9.4-13.2 31.3-15.1 32.2-15.2 36.1-1.8 51.7 14 57.6 20l.7.7c5.8 5.8 5.8 15.3 5.8 21 0 3.7-2.1 4.7-3.7 5.5-1.3.6-1.9 1-1.9 2 0 1.7 2.5 6 6.3 11.2q.7.8.4 1.8t-1.4 1.4c-5.8 2-9.4 1-11.1 0-2 11 5 21.9 8.1 26.1q.8 1 .3 2-.5 1.2-1.8 1.3a27 27 0 0 1-16-3.5c-3.2 9 4 16 7.3 18.7q1.1.8.7 2.1a2 2 0 0 1-1.6 1.5c-9.4 1.6-14-2.3-16-4.8a41 41 0 0 0 1.8 19.3 2 2 0 0 1-3 2.4c-3.8-2-5.4-5-6.6-7.2q-1-2.1-2-2.4-.8-.2-2.8 1.3c-4 3-3.3 8.5-1.7 12.9l12.9-4.3h.7c37.6 20.3 48.4 11.2 60 1.6q4.3-4 9.6-7.1c9.3-5.2 17-1.6 24.4 2 6.6 3 12.8 6 20.3 3.5q7.7-2.6 8.5-9.7c.8-7.4-4.9-16.8-10.5-20.2-5.3-3.2-12-13.4-18.5-23.3a91 91 0 0 0-13.2-17.6c-7.3-5.5-30.3-41.3-18.7-60.5 11.9-19.9 34.5-10.8 42-7.9 3.5 1.5 10.9-1 18-3.3 8.2-2.8 16-5.4 20.4-3.2q2 1 2.9 3.4c2.6 8-8 13.2-16.6 17.3a30 30 0 0 0-9.5 5.8q-1.3 1.8-.6 3.4c.9 2.5 5 4.7 11.2 6.3 2.5.6 6.8-.8 11-2.1 5.6-1.8 11.4-3.7 14.8-1.6q2.1 1.5 2.7 4.4c1.4 8.5-8.9 17.7-15.2 22.4a1 1 0 0 0-.3 1q0 .7.8.8c10.5 2.2 34.8 9 33.2 24.3q-.4 4.8-3.4 6.3c-5 2.6-13.9-2.3-21-6.3-3.4-2-8-4.5-9-4v.2c0 3.3 4.8 8 9.7 13a65 65 0 0 1 14.4 18.2q2.6 5.8.2 10.5c-2 4.2-6.7 6.3-8.9 7 3.8 6 21.9 34.3 23.6 49.5q.6 5.1-2 7c-4.2 3-12.7-1-20.2-4.5-3.6-1.7-7-3.3-8.4-3.3-3 0-4.4-5-5.9-10.1a31 31 0 0 0-2.5-7.1c4 22.5 19.5 109.4 19.5 119.2 0 4 1.5 8.9 3 13.5 2 6.2 3.6 11.6 1.8 14.8q-1.2 1.8-3.7 2.3c-10 2-32.7-23.1-38.1-39.5a2321 2321 0 0 1-21.4-77q-2.8 1.6-5.5 2.8a691 691 0 0 0 8.2 53.2l1 3.5c4.2 16.8 6.7 28 4 30.6-.4.4-1.2.8-2.4.4q-5.5-2-21-83.3l-2.4.8c-.8 12.3-2.4 40.8.4 53.6 3 13.7 2.3 26-2 31.4a8 8 0 0 1-6.3 3.1c-9.7 0-25.3-24.6-30-79.4l-7.2.6-6.8 47.4q-.3 1.9-2 2.6-2 .6-3.4-.6c-11-9.6-18.2-35-20.4-43.6-4.6 12-9.4 29.2-4.9 31.4a51 51 0 0 1 15 14.9c9.5 2.9 8.5 10.7 7.8 16.5-.3 2.5-.6 4.8 0 6.2a3 3 0 0 1-.3 2.6c-1.3 2-5 2.7-9.2 3.3-3 .5-6.7 1-7.3 2.3-2.1 4.2-14 9.8-21 11.6-5.3 1.3-8.7-8.3-10.6-14.4a675 675 0 0 1-2 24c-.8 9.5-1.6 18.5-1.6 21 0 5.7 13.1 34.7 29.2 41.8 8.7 4 16.6-3.8 22.8-10 4-3.8 7.1-7 10-6.6q1.6.3 2.8 2.2c3.2 5.3-1.5 11-5.4 15.4-2.2 2.7-4.5 5.4-4.1 7q.2.7 1.7 1.3c2.2.9 6.3 1.3 11.1 1.8 15.3 1.5 38.4 3.8 44.1 23.9 7.6 26.5-18.9 34.4-19.2 34.5l-.8-.2-.3-.8c1.8-29.4-17.1-36.5-31-41.7-8.9-3.3-10.5-2-13.4.7-1.8 1.5-4 3.5-8.2 4.9-6.8 2.2-16.4-6.6-23.5-14.7 5.6 9.2 12.5 20.4 14.6 22.4 1.9 2 8.6 10 6.5 15q-1.3 3.3-7.2 3.3c-9.9 0-22.3-22.4-28.5-35 1.8 7.7 4.2 18.8 5.3 26.5 2 13.3-16.2 31.6-17 32.3zm-9.3-68.6h.3q.8.4.6 1.1c0 .3-5.6 22.4-7.4 35.2-1.6 11 12.6 26.6 15.8 30 3.2-3.4 17.4-19 15.8-30a467 467 0 0 0-7.4-35.2 1 1 0 0 1 1.7-.6c5.1 11.8 20.6 42.1 30.7 42.1q4.6 0 5.5-2.1c1.4-3.4-3.4-10.2-6.1-13a481 481 0 0 1-22.4-35.4 1 1 0 0 1 1.5-1c5.6 8.1 21.9 28.5 30.5 25.6 3.9-1.3 5.8-3 7.5-4.5 3.5-3 5.9-4.6 15.4-1 14.1 5.3 33.5 12.5 32.2 42.2 5-1.8 22.9-10 16.6-31.8-5.3-19-27.7-21.1-42.5-22.6q-7.8-.6-11.6-1.9-2.4-1-2.8-2.6c-.6-2.5 1.8-5.3 4.5-8.5 3.6-4.3 7.7-9.2 5.2-13.4-.7-1.1-1.3-1.2-1.5-1.2-1.9-.3-5 2.8-8.4 6-6.3 6.3-15 14.9-24.9 10.4-17-7.5-30.2-37.4-30.2-43.5 0-2.6.8-11.7 1.6-21.2 1-10.8 2-23 2-27 0-1 0-2.1 1-2.3s1.2.6 2.2 3.8c1.5 4.6 4.8 15.3 8.7 14.3 7.2-1.8 18.1-7.3 19.8-10.7 1-2 4.6-2.6 8.8-3.2 3.1-.5 7-1.1 7.8-2.4q.3-.3 0-1c-.6-2-.3-4.5 0-7.1.8-6 1.6-12.3-6.7-14.6l-.5-.4c-.1-.1-7.4-11-14.5-14.5-8-4 3.7-33.2 5-36.5a1 1 0 0 1 1.8.1c.1.4 8 34.6 20.5 45.5q.7.6 1.5.3t.9-1.2L321 300q0-.6.9-.8s3.4 0 8.8-.7l.7.2q.4.2.3.7C336.2 353 351.3 378 360 378a6 6 0 0 0 4.8-2.4c4-4.9 4.6-16.9 1.7-29.9-3-13.3-1.2-42.7-.4-54.7q0-.6.7-.8l3.9-1.5h.7q.4.3.5.7c9.3 48.9 17.2 81.5 20 83q.6.2.5 0c2.2-2-1.9-18-4.6-28.8l-.9-3.4c-2.7-11-6.4-38.6-8.4-54.1q0-.6.6-1 3.5-1.6 7-3.5.5-.3.8 0 .5.1.6.5c5 19.2 17.3 65 21.6 78 5.6 16.7 27.5 40 36 38.3q1.8-.3 2.5-1.5c1.4-2.5-.2-7.7-2-13.2-1.5-4.8-3-9.8-3-14 0-10-16.6-102.7-19.9-121.1a1 1 0 0 1 .8-1.1c3-.3 4.2 4.2 5.7 9.5 1 3.7 2.5 8.8 4.1 8.8 1.8 0 5 1.5 9.1 3.4 6.4 3 15.1 7 18.3 4.7q1.8-1.2 1.4-5.3c-1.9-16.2-23.8-49.3-24-49.6a1 1 0 0 1 .5-1.5c.1 0 6.6-1.7 9-6.5q1.8-3.8-.3-8.9a62 62 0 0 0-14-17.5c-5.5-5.5-10.2-10.3-10.2-14.4q.1-1.5 1-1.8c1.6-1 4.8.6 10.7 4 6.4 3.5 15.1 8.4 19.2 6.3q2-1.1 2.5-4.9c1.4-13.8-21.8-20.2-31.8-22.2q-1.7-.5-2.3-2.3-.3-1.7 1.1-2.9c4.8-3.6 15.7-12.8 14.4-20.6q-.3-2.3-1.8-3c-2.6-1.7-8 0-13.2 1.7-4.6 1.4-9 2.9-12 2-4-.9-11-3.2-12.6-7.3q-.9-2.5.8-5.2c1.5-2.1 5.6-4 10.3-6.4 7.9-3.8 17.7-8.6 15.6-15q-.6-1.7-2-2.4c-3.7-1.8-11.5.8-19 3.3-7.7 2.6-15 5-19.3 3.4-12.3-5-29.7-9.5-39.7 7-10.5 17.6 10.7 52.4 18.4 58.2a91 91 0 0 1 13.5 18c6.1 9.2 13 19.8 18 22.7 6 3.7 12.3 13.7 11.4 22-.4 3.8-2.5 8.8-9.8 11.2-8.2 2.8-15-.5-21.7-3.6-7.3-3.4-14.2-6.7-22.7-2a62 62 0 0 0-9.4 6.9c-11.4 9.5-23.2 19.4-61.6-1.1l-13.4 4.4q-.8.3-1.2-.5c-2.7-7.2-2-12.9 2-15.9q2.9-2.1 4.5-1.7c1.4.4 2.2 1.8 3.1 3.4a14 14 0 0 0 5.9 6.5h.2v-.3c-1.5-5.3-3.8-15.2-1-22.3.3-.7 1.5-.7 1.8 0 0 .3 3.2 7.4 15 5.5l.1-.2v-.2c-3.8-3-12.1-11.3-7.6-21.9a1 1 0 0 1 1.4-.3 25 25 0 0 0 16 3.6v-.2c-3.4-4.6-11.2-16.7-8.1-28.9a1 1 0 0 1 1.5-.4c.1 0 3.1 2.8 10.5.3l.2-.1c-2.5-3.5-6.7-9.5-6.7-12.6 0-2.2 1.6-3 2.9-3.6 1.5-.7 2.7-1.3 2.7-3.8 0-5.4 0-14.4-5.3-19.7l-.8-.8c-6.2-6.3-20.9-21.1-56-19.4-.2 0-20.9 2-30.2 13.6l21.2 8.8c1 .3 28.5 9.6 26.5 23.2-1.5 10.7-5.6 13.1-7.4 13.6-.2 2.7-1.2 11.4-8.1 13.2l-1 .2c-33 8-49.9 28.6-48.5 59.7q0 .5-.5.9c-32 15-43 5.8-53.5-3q-4.4-3.9-9.4-7c-8.5-4.6-15.4-1.3-22.7 2.1-6.6 3.1-13.5 6.4-21.7 3.6-7.3-2.4-9.4-7.4-9.8-11.1-.9-8.4 5.3-18.4 11.5-22 4.9-3 11.8-13.6 17.9-22.8 5.2-8 10-15.4 13.5-18 7.7-5.8 29-40.6 18.4-58.2-10-16.5-27.4-12-39.7-7-4.3 1.7-11.6-.8-19.3-3.4-7.5-2.5-15.3-5.1-19-3.3q-1.4.8-2 2.4c-2.1 6.4 7.7 11.2 15.6 15 4.7 2.3 8.8 4.3 10.3 6.4q1.7 2.7.8 5.2c-1.6 4.1-8.5 6.4-12.5 7.4-3 .8-7.4-.7-12.1-2.1-5.2-1.7-10.6-3.4-13.2-1.8q-1.5.9-1.8 3.1c-1.3 7.8 9.6 17 14.4 20.6q1.4 1.1 1 3-.3 1.7-2.2 2.2c-10 2-33.2 8.4-31.8 22.2q.3 3.8 2.5 4.9c4 2.1 12.8-2.8 19.2-6.3 6-3.4 9-5 10.8-4q.8.2 1 1.8c0 4.1-4.8 8.9-10.3 14.4a64 64 0 0 0-14 17.5q-2.1 5.1-.3 9c2.4 4.7 8.9 6.4 9 6.4a1 1 0 0 1 .5 1.5c-.2.3-22.1 33.4-24 49.6q-.4 4 1.4 5.3c3.2 2.3 11.9-1.7 18.3-4.7q6.2-3.2 9.1-3.4c1.6 0 3-5.1 4-8.8 1.6-5.3 3-9.8 5.8-9.5a1 1 0 0 1 .8 1C64 267.2 47.4 359.9 47.4 369.8c0 4.3-1.5 9.3-3 14-1.8 5.6-3.4 10.8-2 13.3q.7 1.2 2.4 1.5c8.6 1.7 30.5-21.6 36-38.3 4.4-13 16.7-58.8 21.7-78a1 1 0 0 1 1.4-.5l7 3.5q.6.4.6 1c-2 15.5-5.7 43.1-8.4 54l-1 3.5c-2.6 10.7-6.7 26.9-4.5 28.9h.6c2.7-1.6 10.6-34.2 19.9-83a1 1 0 0 1 1.2-.8l4 1.5q.5.1.6.8c.8 12 2.5 41.4-.4 54.7-3 13-2.2 25 1.7 29.9a6 6 0 0 0 4.8 2.4c8.7 0 23.8-25 28.2-78.7a1 1 0 0 1 1-.9c5.4.6 8.8.7 8.8.7q.8.1 1 .8l6.8 48.2q0 .9 1 1.2.7.2 1.4-.3c12.5-11 20.4-45 20.4-45.4a1 1 0 0 1 1.8-.2c1.4 3.3 13 32.5 5.1 36.5a52 52 0 0 0-15 14.9c-8.3 2.3-7.5 8.6-6.8 14.6a15 15 0 0 1 0 7v1c.9 1.4 4.8 2 8 2.5 4 .6 7.7 1.2 8.7 3.2 1.7 3.4 12.6 8.9 19.8 10.7 4 1 7.2-9.7 8.7-14.3 1-3.2 1.2-4 2.2-3.8s1 1.3 1 2.3c0 4 1 16.2 2 27 .8 9.5 1.6 18.6 1.6 21.2 0 6.1-13.2 36-30.2 43.5-10 4.4-18.6-4-25-10.3-3.3-3.3-6.4-6.4-8.3-6.1-.2 0-.8 0-1.5 1.2-2.5 4.2 1.6 9 5.2 13.4 2.7 3.2 5.1 6 4.5 8.5q-.4 1.7-2.8 2.6c-2.4 1-6.5 1.4-11.6 2-14.8 1.4-37.2 3.6-42.5 22.5-6.3 21.8 11.6 30 16.6 31.8-1.3-29.7 18-37 32.2-42.2 9.5-3.6 12-2 15.4 1 1.7 1.5 3.6 3.2 7.5 4.5 8.6 3 25-17.5 30.5-25.6a1 1 0 0 1 1.5 1c-.7 1.3-18.6 31.7-22.4 35.4-2.7 2.8-7.5 9.6-6.1 13q.9 2.1 5.5 2.1c10.1 0 25.6-30.3 30.7-42q.3-.6.8-.6" id="path33"/></g><g id="g35"><path fill="#ffed00" d="M205 260.5c-164.1 34-129.2-70.8-119.7-94q2.8 1.6 6.1.7a7.4 7.4 0 0 0 .2-14A7.4 7.4 0 1 0 78 149v.3c-2-.6-4.3-.6-7.3 2.6a7 7 0 0 0-2 4.4c0 3.3 2.2 6.2 5.3 7.1-45 149.2 116.8 126.2 126 124.8q.5-.1.3-.5a28 28 0 0 1 5-26.6q.2-.6-.4-.6" id="path34"/></g><g id="g36"><path fill="#ffed00" d="M285 260.5c164.1 34 129.2-70.8 119.7-94a7.4 7.4 0 1 1-6.3-13.3A7.4 7.4 0 1 1 412 149v.3c2-.6 4.3-.6 7.3 2.6q1.8 1.8 2 4.4c0 3.3-2.2 6.2-5.3 7.1 45 149.2-116.8 126.2-126 124.8q-.4-.1-.3-.5a28 28 0 0 0-5-26.6q-.2-.6.4-.6" id="path35"/></g><g id="g37"><path fill="#ffed00" d="M202.3 141.6s-7.4-20.4 13-26 18.6 0 27.8 5.6c9.3 5.5 37.1 24 22.3 42.6-13.8 17.2-32.4 7.3-42.4 5.8-.8-.2-1-1.3-.3-1.8 2.2-1.5 7.2-3.7 17.7-4.9 16.7-1.9 24 1.9 24-11.1s-24-22.3-62-10.2" id="path36"/></g><path fill="#666666" d="M205.7 245.7a1 1 0 0 0-1.2 1.4c1.5 1.2 5.3 4.8 5.2 7.5q0 1.3-1.4 2.1-1.6 1.2-3 3h-.5c-59.8 12.3-99.2 7.6-117.3-14.2-20.4-24.5-7-64.6-1.7-77.8q3 1.3 6 .4c2.7-1 4.9-3.2 5.5-6 .9-4-1-7.7-4.4-9.4q1.1-2.3.8-5a8.4 8.4 0 0 0-7.2-7 8.4 8.4 0 0 0-9.3 7.4c-2-.3-4.3.2-7.2 3.1a8 8 0 0 0-2.2 5c0 3.5 2 6.5 5 7.8q-19 64.3 9.2 97c22 25.2 60.3 30.2 87.5 30.2a211 211 0 0 0 30.7-2.1q.6 0 .9-.6t.1-1a27 27 0 0 1-.7-14.6c.5-1.2 2.4-6.9 5.4-11l.1-.2q1.6-2.1 3.3-3.4 2.2-1.5 2.2-3.6c.2-4.1-5.2-8.6-5.8-9m-122.3 14c-18.5-21.3-21.4-53.6-8.6-96l.3-.9-.9-.2a6.4 6.4 0 0 1-4.5-6.3q0-2 1.7-3.8 3-2.8 4.8-2.6.9 0 1.6.3l1.2.3V149a6.5 6.5 0 1 1 11.8 3.6l-.6 1 1.1.4a6.5 6.5 0 0 1-.1 12.3 7 7 0 0 1-5.4-.6l-.9-.6-.4 1c-5 12.3-20 54.6 1.6 80.6 18.3 22.1 57.9 27.2 117.6 15a30 30 0 0 0-5 11q-1.6 6.1.6 14.7c-11 1.6-82.7 10.4-115.9-27.7" id="path37"/><path fill="#666666" d="M417.2 164c3-1.3 5-4.3 5-7.7q-.1-2.9-2.2-5c-2.9-3-5.2-3.5-7.2-3.2a8.4 8.4 0 1 0-15.7 4.6 8 8 0 0 0-4.4 9.3 8.3 8.3 0 0 0 11.5 5.7c5.3 13.2 18.7 53.3-1.7 77.8-18 21.8-57.5 26.5-117.3 14.1h-.7a25 25 0 0 0-4.4-3.8c-3.3-6 0-12.6 0-12.7a1 1 0 0 0-1.6-.9c-.1.3-3 6-1 12.1-2.8-1.2-5.9-2-9.4-1.4a1 1 0 0 0-.8 1q.1.9 1 .8c11.1-1.6 17.7 9.8 18.8 11.9a27 27 0 0 1 1.7 20.8q-.2.6.1 1.1.3.4.9.6c3 .5 15 2.1 30.7 2.1 27.2 0 65.5-5 87.5-30.3 18.8-21.6 21.9-54.2 9.2-96.9m-10.6 95.7c-33.2 38.1-104.9 29.3-115.9 27.7 2.7-9 .7-16.4-1.7-21.2l-.1-.4q-1.5-2.5-2.6-4c59.7 12 99.3 7 117.6-15 21.6-26 6.7-68.4 1.6-80.7l-.4-1-1 .6a6.5 6.5 0 0 1-9.7-4 7 7 0 0 1 4.3-7.7l1.1-.4-.6-1q-1.5-2-1-4.6a6.5 6.5 0 0 1 5.6-5.5q3-.2 5 1.6 2.1 2 2.2 4.9v1.5l1.2-.3c1.6-.5 3.6-.7 6.4 2.3q1.6 1.7 1.7 3.8c0 2.9-1.8 5.4-4.5 6.3l-.9.2.3 1c12.8 42.3 9.9 74.6-8.6 96" id="path38"/><g id="g39"><path fill="#666666" d="M212.5 345.6a1 1 0 0 1-.8-1.2c7.2-19.8-3.6-41.7-3.7-42a1 1 0 0 1 1.7-.8c.4 1 11.2 22.9 3.7 43.4a1 1 0 0 1-.9.6" id="path39"/></g><g id="g40"><path fill="#666666" d="M132.8 128.6h-.4a1 1 0 0 1-.5-1.3q5.5-14.7.5-20.9c-4-5-12.4-3.8-12.5-3.8a1 1 0 0 1-1-.8q-.1-.9.7-1c.4-.1 9.5-1.4 14.3 4.5q5.5 7-.3 22.7a1 1 0 0 1-.8.6" id="path40"/></g><g id="g41"><path fill="#666666" d="M362.8 150.8a1 1 0 0 1-.8-.4c-22.4-35.5-6-49-5.3-49.5a1 1 0 0 1 1.1 1.5c-.2.1-15.7 13 5.8 47a1 1 0 0 1-.8 1.4" id="path41"/></g><g id="g42"><path fill="#666666" d="M56.7 366h-.2a1 1 0 0 1-.7-1c3.7-20.2 12.9-93.9 13-94.6q.1-.8 1-.8.9.1.8 1c0 .8-9.3 74.5-13 94.7q-.1.6-.9.7" id="path42"/></g><g id="g43"><path fill="#666666" d="M418.5 358.6a1 1 0 0 1-1-.6l-22.2-76.1a1 1 0 0 1 1.8-.5c.2.5 16.7 57.7 22.2 76a1 1 0 0 1-.8 1.2" id="path43"/></g><g id="g44"><path fill="#666666" d="M351.7 358.6a1 1 0 0 1-.8-.4c-11.1-14.9-13-54.4-13.1-56.1q0-.9.8-1 1 0 1 .9c0 .4 2 40.7 12.8 55.1a1 1 0 0 1-.7 1.5" id="path44"/></g><g id="g45"><path fill="#666666" d="M131 354.9h-.3a1 1 0 0 1-.7-1.1c3.6-18.2 0-53.2 0-53.5q0-.9.8-1t1 .8c0 .3 3.7 35.6 0 54q-.1.8-.9.8" id="path45"/></g><g id="g46"><path fill="#666666" d="M236.7 521.9a1 1 0 0 1-.8-.4c-3.8-5.8 4.5-39.6 5.4-43.5a1 1 0 0 1 1.8.4c-3.7 14.8-8.2 38.2-5.7 42a1 1 0 0 1-.7 1.5" id="path46"/></g><g id="g47"><path fill="#666666" d="M195.8 479.2a1 1 0 0 1 0-1.9 38 38 0 0 0 23.4-14.4 1 1 0 0 1 1.5 1 40 40 0 0 1-24.9 15.3" id="path47"/></g><g id="g48"><path fill="#666666" d="M286.7 475.5c-13.4-2-20.9-14.8-21.2-15.3a1 1 0 0 1 1.6-1c.1.2 7.4 12.7 19.8 14.4a1 1 0 0 1-.2 1.9" id="path48"/></g><g id="g49"><path fill="#666666" d="M294.2 362.3a1 1 0 0 1-1-.9c0-8.6-16-17.7-16.2-17.7a1 1 0 0 1 1-1.7c.6.4 17 9.7 17 19.4q0 .9-.8 1" id="path49"/></g><path fill="#666666" d="M280.5 135.1c-3-.8-6-4.5-8.8-8.2-3.6-4.7-7.4-9.7-12-8.5a58 58 0 0 1-19.2-.2l-2-1.6c-4.6-4-7.4-6.3-23.4-2a19 19 0 0 0-13 9.6c-4 8-.8 17.3-.6 17.7l.3.8.8-.3c28.5-9 47.4-5.7 55.7.3q5.2 3.9 5.3 9c0 9.1-3.6 9.2-13 9.6q-4.5 0-10.3.7a42 42 0 0 0-18.2 5q-1 .9-.8 2 .3 1.3 1.6 1.5 2.9.5 6.5 1.5a60 60 0 0 0 15.8 2.8c7.1 0 14.5-2.4 21-10.4q5.5-7 4.1-15c-1.3-7.5-7.2-14.3-13.7-19.8q4.4-1.5 6.2-4.4 1.2-2.3 1-4.2c2.1 1.4 4.3 4.2 6.5 7 3 4 6 8 9.7 8.9h.2a1 1 0 0 0 .3-1.8m-12 14.7q1.3 7-3.8 13.4c-10.8 13.5-24.7 9.8-34.8 7l-6.7-1.6a40 40 0 0 1 17.3-4.8q5.8-.5 10.2-.7c9.5-.3 14.7-.5 14.7-11.3q0-6.1-6-10.6a43 43 0 0 0-24.7-6.2q-13.2-.2-31.8 5.4c-.6-2.4-2.2-9.4 1-15.4q3-6.2 11.7-8.5c15-4.1 17.4-2.1 21.8 1.5q2 1.8 5.3 4c7 4.2 23.6 15.3 25.8 27.8m-7.3-25.5q-1.6 2.7-6.3 3.8a102 102 0 0 0-11-7.6l3.8.4c1.2 1.4 3.9 4 6.6 4 2.5 0 3.3-2.6 3.6-4.3l2.2-.4h1.7a6 6 0 0 1-.6 4" id="path50"/><circle fill="#ffed00" cx="244.99985" cy="417.97787" r="12.98602" id="circle50"/><g id="g51"><path fill="#666666" d="M245 431.9a14 14 0 1 1 0-27.9 14 14 0 0 1 0 27.9m0-26a12 12 0 1 0 0 24.2 12 12 0 0 0 0-24.2" id="path51"/></g></g><!-- app4joy --></svg>