<svg width="900" height="600" viewBox="0 0 900 600" id="svg144" xmlns="http://www.w3.org/2000/svg"><defs id="defs75"><linearGradient id="c" x1="606.26" x2="643.85" y1="527.97" y2="527.7" gradientTransform="matrix(1 0 0 -1 -171 603.6)" gradientUnits="userSpaceOnUse"><stop stop-color="#FCCB00" offset=".0056" id="stop1"/><stop stop-color="#FFFAD2" offset=".2528" id="stop2"/><stop stop-color="#FAF1C1" offset=".2982" id="stop3"/><stop stop-color="#EDD894" offset=".3885" id="stop4"/><stop stop-color="#D8B14C" offset=".5138" id="stop5"/><stop stop-color="#C9961A" offset=".5955" id="stop6"/><stop stop-color="#E9CD76" offset=".8142" id="stop7"/><stop stop-color="#F2DC8E" offset=".8708" id="stop8"/><stop stop-color="#FFFAD2" offset="1" id="stop9"/></linearGradient><linearGradient id="a" x1="609.43" x2="633.08" y1="548.65" y2="548.65" gradientTransform="matrix(1 0 0 -1 -21 603.4)" gradientUnits="userSpaceOnUse"><stop stop-color="#FCCB00" offset=".0056" id="stop15"/><stop stop-color="#FFFAD2" offset=".2528" id="stop16"/><stop stop-color="#FAF1C1" offset=".2982" id="stop17"/><stop stop-color="#EDD894" offset=".3885" id="stop18"/><stop stop-color="#D8B14C" offset=".5138" id="stop19"/><stop stop-color="#C9961A" offset=".5955" id="stop20"/><stop stop-color="#E9CD76" offset=".8142" id="stop21"/><stop stop-color="#F2DC8E" offset=".8708" id="stop22"/><stop stop-color="#FFFAD2" offset="1" id="stop23"/></linearGradient><linearGradient id="d" x1="558.96" x2="679.96" y1="482.62" y2="482.62" gradientTransform="matrix(1 0 0 -1 -171 603.6)" gradientUnits="userSpaceOnUse"><stop stop-color="#FCCB00" offset=".0056" id="stop24"/><stop stop-color="#FFFAD2" offset=".2528" id="stop25"/><stop stop-color="#FAF1C1" offset=".2982" id="stop26"/><stop stop-color="#EDD894" offset=".3885" id="stop27"/><stop stop-color="#D8B14C" offset=".5138" id="stop28"/><stop stop-color="#C9961A" offset=".5955" id="stop29"/><stop stop-color="#E9CD76" offset=".8142" id="stop30"/><stop stop-color="#F2DC8E" offset=".8708" id="stop31"/><stop stop-color="#FFFAD2" offset="1" id="stop32"/></linearGradient><linearGradient id="h" x1="567.19" x2="670.04" y1="417.29" y2="420.26" gradientTransform="matrix(1 0 0 -1 -171 603.6)" gradientUnits="userSpaceOnUse"><stop stop-color="#754C24" offset=".0056" id="stop33"/><stop stop-color="#CE6331" offset=".1828" id="stop34"/><stop stop-color="#CE6331" offset=".5012" id="stop35"/><stop stop-color="#CE3500" offset=".7579" id="stop36"/><stop stop-color="#603813" offset="1" id="stop37"/></linearGradient><linearGradient id="g" x1="560.65" x2="678.44" y1="432.81" y2="432.81" gradientTransform="matrix(1 0 0 -1 -171 603.6)" gradientUnits="userSpaceOnUse"><stop stop-color="#FCCB00" offset=".0056" id="stop38"/><stop stop-color="#FFFAD2" offset=".2528" id="stop39"/><stop stop-color="#FAF1C1" offset=".2982" id="stop40"/><stop stop-color="#EDD894" offset=".3885" id="stop41"/><stop stop-color="#D8B14C" offset=".5138" id="stop42"/><stop stop-color="#C9961A" offset=".5955" id="stop43"/><stop stop-color="#E9CD76" offset=".8142" id="stop44"/><stop stop-color="#F2DC8E" offset=".8708" id="stop45"/><stop stop-color="#FFFAD2" offset="1" id="stop46"/></linearGradient><linearGradient id="f" x1="559.01" x2="679.75" y1="444.58" y2="444.58" gradientTransform="matrix(1 0 0 -1 -171 603.6)" gradientUnits="userSpaceOnUse"><stop stop-color="#FCCB00" offset=".0056" id="stop47"/><stop stop-color="#FFFAD2" offset=".2528" id="stop48"/><stop stop-color="#FAF1C1" offset=".2982" id="stop49"/><stop stop-color="#EDD894" offset=".3885" id="stop50"/><stop stop-color="#D8B14C" offset=".5138" id="stop51"/><stop stop-color="#C9961A" offset=".5955" id="stop52"/><stop stop-color="#E9CD76" offset=".8142" id="stop53"/><stop stop-color="#F2DC8E" offset=".8708" id="stop54"/><stop stop-color="#FFFAD2" offset="1" id="stop55"/></linearGradient><linearGradient id="e" x1="610.38" x2="633.35" y1="436.39" y2="436.23" gradientTransform="matrix(1 0 0 -1 -171 603.6)" gradientUnits="userSpaceOnUse"><stop stop-color="#BF0C42" offset="0" id="stop56"/><stop stop-color="#C01145" offset=".0222" id="stop57"/><stop stop-color="#C51E4E" offset=".0468" id="stop58"/><stop stop-color="#CC345E" offset=".0726" id="stop59"/><stop stop-color="#D65373" offset=".0993" id="stop60"/><stop stop-color="#E37B8E" offset=".1265" id="stop61"/><stop stop-color="#F3ACB0" offset=".154" id="stop62"/><stop stop-color="#F6B5B6" offset=".1588" id="stop63"/><stop stop-color="#EF9FA7" offset=".2092" id="stop64"/><stop stop-color="#DC6582" offset=".3145" id="stop65"/><stop stop-color="#BF0B47" offset=".463" id="stop66"/><stop stop-color="#F6B5B6" offset=".713" id="stop67"/><stop stop-color="#F6B5B6" offset=".8724" id="stop68"/><stop stop-color="#E9A3A7" offset=".8795" id="stop69"/><stop stop-color="#C8767F" offset=".9002" id="stop70"/><stop stop-color="#AD4F5E" offset=".9209" id="stop71"/><stop stop-color="#973245" offset=".9414" id="stop72"/><stop stop-color="#881D33" offset=".9616" id="stop73"/><stop stop-color="#7F1028" offset=".9813" id="stop74"/><stop stop-color="#7C0C24" offset="1" id="stop75"/></linearGradient><radialGradient id="b" cx="621.41" cy="527.86" r="3.6064" gradientTransform="matrix(1 0 0 -1 -171 603.6)" gradientUnits="userSpaceOnUse"><stop stop-color="#F6B5B6" offset="0" id="stop10"/><stop stop-color="#EC96A1" offset=".1294" id="stop11"/><stop stop-color="#D2466D" offset=".4111" id="stop12"/><stop stop-color="#BF0B47" offset=".6073" id="stop13"/><stop stop-color="#7C0C24" offset=".837" id="stop14"/></radialGradient><style type="text/css" id="style75">.str3{stroke:black;stroke-width:0.25;stroke-linecap:round;stroke-linejoin:round}.str0{stroke:black;stroke-width:0.27}.str1{stroke:black;stroke-width:0.27;stroke-linejoin:round}.str2{stroke:black;stroke-width:0.27;stroke-linecap:round;stroke-linejoin:round}.fil1{fill:none}.fil2{fill:#008F4C}.fil0{fill:#996633}.fil3{fill:#CC9933}</style></defs><g id="g146"><path transform="scale(1 -1)" fill="#51b5e0" id="rect75" d="M450-600h450V0H450z"/><path fill="#fff" id="rect76" d="M0 0h450v600H0z"/></g><g id="g145"><path d="M402.4 223.5c-10-4-19.8-8-30.7-6.4-11 1.6-23 8.8-37.6 8.3s-31.7-8.7-48.9-17c15.1 39.1 30.2 78.1 33.3 114.8 3.2 36.6-5.7 70.8-14.5 105 16.5 10.9 32.9 21.7 42 32.8s11 22.2 18.6 28.1 20.9 6.4 30 12.2 14 16.8 20 21.3 12.7 2.5 18.7 4.1 11.4 6.9 16.7 12.1c5.3-5.2 10.6-10.5 16.7-12 6-1.7 12.8.3 18.7-4.2 6-4.5 10.9-15.5 20-21.3s22.4-6.3 30-12.2 9.4-17 18.6-28.1c9.1-11 25.5-22 42-32.8-8.9-34.2-17.7-68.4-14.5-105 3.1-36.7 18.2-75.7 33.3-114.7-17.2 8.2-34.3 16.4-48.9 16.9s-26.6-6.7-37.6-8.3-20.8 2.4-30.7 6.3C481.7 214.2 466 205 450 205s-31.7 9.2-47.6 18.4z" fill="#bc0000" stroke="#000" stroke-width="1.418" id="path76"/></g><g id="g86"><path d="M451 85.3c-13.2 2.8-39.8 1.5-49 30.7-9 29.2-5.5 45.7-5.8 50.6-.4 4.8 105.1-.2 106.6-1 2.5-7.3-3.5-54.5-10.3-60.4s-22-24-41.5-19.9" fill="#bc0000" id="path77"/><g stroke="#000" stroke-miterlimit="10" id="g85"><g stroke-width="1.4179" id="g80"><path d="M500.5 184.7c-7.7 6.4-28 8.2-52 8.2s-44.6-1.8-52.3-8.2c7.7-6.3 28.1-8 52.1-8s44.5 1.7 52.2 8z" fill="url(#h)" id="path78"/><path d="M500.5 184.7c-.9-.6-12.6-7.8-51-8-43.7-.2-54 8.7-53.3 8l-6.5-19s29.4-8.9 59.5-8.9c28.6 0 58.3 8.8 58.3 8.8z" fill="url(#g)" stroke-linecap="round" stroke-linejoin="round" id="path79"/><path d="M507.5 165.6c-.9-.6-28.6-8.8-58.8-8.8-31.9 0-59.6 9.5-59 8.8l-1.6-4.2s30.4-9 60.5-9c28.5 0 60.2 8.4 60.2 8.4z" fill="url(#f)" stroke-linecap="round" id="path80"/></g><g fill="none" stroke-linecap="round" stroke-linejoin="round" stroke-width="1.4179" id="g82"><path id="line80" d="M422.5 154.3v4.4"/><path id="line81" d="M448.6 152.4v4.4"/><path id="line82" d="M475.2 154.6v4.1"/></g><g id="g84"><g stroke-width=".7089" id="g83"><path fill="url(#e)" stroke-linecap="round" stroke-linejoin="round" id="rect82" d="M438.9 164.7h19.4v5.2h-19.4z"/><path d="M508.8 160.8c-4-1.1-5.5-1.3-8.9-2 3.2-34-17.9-62.5-32-69 4 7.3 13.3 41.3 12 65.2l-10.3-1.4c.9-19.4-9-59.8-14.5-63.6v62.4h-11.8S445 94.5 445 90c-5.5 3.8-19 44.2-18.1 63.7l-10.5 1.5c-1.3-23.9 11.9-58 15.9-65.4-14.2 6.5-35.9 34.7-32.7 68.7q-5.3 1.1-11.6 2.9c-.2-2.3-1.7-69.8 46-80.9h32c47.8 11.1 42.9 78 42.7 80.3z" fill="url(#d)" id="path82"/><path fill="url(#c)" id="rect83" d="M434.4 70.9h31.7v9.6h-31.7z"/></g><path d="M450.3 72a3.8 3.8 0 1 1 0 7.5 3.8 3.8 0 0 1 0-7.5z" fill="url(#b)" stroke-width=".3545" id="path83"/><path transform="translate(-150 .2)" fill="url(#a)" stroke-width=".3545" id="polygon83" d="M588.5 52.7v-4.2h9.7v-9.7h4.2v9.7h9.7v4.2h-9.7v18.1h-4.2V52.7z"/></g></g></g><g transform="rotate(-15 856.5 -2217)" id="g144"><g fill-rule="evenodd" stroke="#000" stroke-width="1.616" id="g91"><path d="M-212 190.9c.7-.6 9.4 4.2 13.8 9.6 2.6 3 6 5 5.7 6 1 2.8-.4 5 .7 9.4.8 3.5 4.6 12 5.1 15.6l-3.6-.7c-1.6-4.6-5.1-13.1-7.4-20.8-9.2-4.4-19.7-4-24-10.2" fill="#ececec" id="path86"/><path d="M-236.4 172c-2-10.4-6.9-18.8-4.8-30l-1.8-9.5c-6-21.6 13.1-32 25-47.8 11-15.5 9.1 2.3 3.5 9.2 10.4-15.7 10 .6 3.8 8.6 9.9-14.4 9.5 3.3 4.1 10.1 8.5-12.5 9.3 3.3 3 9.2 10-6.3 2.7 9.6-.3 12.4 9.4-8.2 5.4 6.3-2.3 10.6 9.7-6.8 4.5 11-6.5 13l-10 5.3-8.2 13.3" fill="#ececec" id="path87"/><path d="M-192.7 178c1.2 1.4 2.4 2.6 10 14.4 2.5 1.7 3.3 12.9 21.3 12.4 6.5-.2 33.2.4 39.7 2.2 7.7 2.2 11.6 6.2-1.7 6.7 12.4.8 9.8 7.9-2 6.5 11.5 2.5 12.3 8.7-2.6 6 10 3.7 11.6 8.3-4.1 4 13.3 6.8 4.6 8.8-7 3 6.5 3.3 8 11.2-6.9 4.8 13 7.7.3 7-8.2 2.5-13.6-7.2-21.6-21.2-32-29.5-13.7-5.6-30.2-2.4-45-6-7.2-2-12.6-1.1-24.7-19.7s-5.6-16.2-20-24.7c-2.7-1.6-9-2.9-9.3-3 .4-1.4 1-2.7 1-4-1-8.3 4.4-13.8 13.8-11.8 3.4.8 7.6 3.3 13.7 7 5.2 3 17.8 1.5 24.5 5.3 13.3 5.9 29.9 10.6 39.5 24z" fill="#fff" id="path88"/><path d="m-282.3 156.2.2 3a22 22 0 0 0-9.2 4.7c2.1-4.4 5.5-6 9-7.7" fill="#ccc" stroke-linecap="round" stroke-linejoin="round" id="path89"/><path d="m-190 234.4-4.2 5.8c-1.7 5.8 5.9 4.6 8 2.9-2.4-.7-4.3.6-5-1.5 0-3.1 2.5-3 3.5-5.2q.4 2.6 6 3.5c-2.8-1.8-4.8-4.8-4.5-6.2l-.7-2.5-3.4-.4c.4 1.3.8 2 .3 3.6z" fill="#666" id="path90"/><path d="M-232 168.3c-10.5-24.3 12-45.5 30.4-57.4 10.5-6.1 24.9-26 32.7-30.4 11.5-6 8.5-.7 1.3 13 15.3-16 6 6.5.2 12.5 12.3-12.3 6.2 8 .9 12.6 10.4-8.3 5.9 6.1-1.3 11.6 11.8-9.8 5.5 7.4-2 12.3 12.5-7.7 6.3 6-4.5 11.3 15.7-7 4.7 5.2-4.7 8.4 16.7-5.7 7.2 7.2-7.3 8.2 12.2-.2 11.9 6-3.1 8.2-16.2 7.7-19.3-18.3-34.6-5.8" fill="#fff" id="path91"/></g><g id="g140"><path d="m-296.6 143.5-1.2 1a103 103 0 0 1 12.8 18 53 53 0 0 1 6.6 26.8v12.4a56 56 0 0 0 9.6 29.4c9.5 15.3 15 16.1 31.8 30.4-16.8-14.2-22.2-15.3-31.3-30.7q-5-8.5-6.8-15.9-1.7-7-1.6-13.2.1-6.3.4-12.4.3-6.4-.8-13-1.3-7.5-5.3-15.2a98 98 0 0 0-13-18.7z" fill="#967403" stroke="#000" stroke-width="1.0412" id="path92"/><path d="M-294.8 191.8c8.8 1 21.8-13 17.3-17.4-4.5-4.5-18.4 8.5-17.3 17.4z" fill="#00a651" fill-rule="evenodd" stroke="#000" stroke-width="1.0412" id="path93"/><path d="m-277 174.9-1.2 1.4-.3.3-1.3 4.6.5-3.7q-1 1-2 2.4l-1.3 4.6.6-4-.5.7-1.6 1.6-1.2 4.6.7-4.1-2.7 2.6-.8 3.3.5-3-.1.1-1 .8-.3.1-3.7 1.2 4-1.5.8-.7 1.6-1.6-4.7.9 5.1-1.4 2-2.3-4.8 1.1 5.5-1.7q0-.3.3-.4l2-2.5-5 .9c1-.3 4.3-1.3 5.5-1.5l1.5-2 1-1.4.4.3zm-14.8 14.6-1.4.9z" fill="#6c5402" stroke-width="3.9843" id="path94"/><path d="M-255.6 197.8c-8.4 3-24.3-7.6-20.9-13s20 4.1 20.9 13z" fill="#00a651" fill-rule="evenodd" stroke="#000" stroke-width="1.0412" id="path95"/><path d="m-276.8 185.4 1.4 1 .4.3 2.3 4.2-1.4-3.5 2.6 1.9 2.3 4.1c-.4-.7-1-2.4-1.5-3.6l.7.5 1.8 1.2 2.2 4.2-1.6-3.9 3.2 2 1.6 3-1.2-2.8h.2l1 .6h.4l4 .4c-1 0-3.5-.5-4.4-.6l-1-.5-1.8-1.2 4.8-.2-5.3-.1-2.6-1.8h5l-5.7-.5-.3-.3-2.6-2 5.2-.3-5.8-.2-1.9-1.5-1.3-1.2-.4.4zm17.7 10.9 1.5.5z" fill="#6c5402" stroke-width="3.9843" id="path96"/><path d="M-248.6 217c-6.7 6-25.4 2-24.3-4.2s20-3.7 24.2 4.2z" fill="#00a651" fill-rule="evenodd" stroke="#000" stroke-width="1.0412" id="path97"/><path d="m-273 213.5 1.8.4.4.1 3.7 3-2.6-2.7 3.2.7 3.6 3c-.6-.4-1.9-1.8-2.7-2.7l.7.1 2.3.5 3.6 3-3-3 3.7.7 2.6 2.2-2.1-2.2h.2l1.1.1h.4l3.8-1.2-4.2 1h-1.1l-2.2-.5 4.4-2c-1 .5-4 1.5-5 1.9l-3-.7 4.6-1.8-5.5 1.6h-.4l-3-1 4.5-2.2c-1 .5-4.3 1.5-5.4 2l-2.3-.7-1.7-.6-.2.5zm20.5 3.4 1.7-.1z" fill="#6c5402" stroke-width="3.9843" id="path98"/><path d="M-232.9 235.1c-4.2 8-23.1 10.5-24.2 4.3s17.6-10.2 24.2-4.3z" fill="#00a651" fill-rule="evenodd" stroke="#000" stroke-width="1.0412" id="path99"/><path d="m-257 240 1.8-.1h.5l4.5 1.5-3.4-1.7q1.4 0 3.2-.4l4.5 1.7-3.6-1.8h.8l2.3-.4 4.4 1.7-3.8-1.8 3.7-.7 3.2 1.2-2.8-1.3h.2l1.2-.4.3-.2 3.1-2.4-3.6 2.5-1 .2-2.2.4 3.4-3.3-4 3.4-3.1.4 3.7-3.4-4.6 3.5h-.4l-3.2.2c1-1 2.8-3 3.6-3.6l-4.5 3.7h-4.2v.6zm20.5-3.7 1.5-.6z" fill="#6c5402" stroke-width="3.9843" id="path100"/><path d="M-221.7 247.2c-4.2 7.9-23.1 10.5-24.2 4.3s17.6-10.3 24.2-4.3z" fill="#00a651" fill-rule="evenodd" stroke="#000" stroke-width="1.0412" id="path101"/><path d="M-245.7 252h1.8l.4-.1 4.5 1.5c-.7-.2-2.2-1-3.4-1.6l3.2-.4 4.5 1.6-3.5-1.7.8-.1 2.2-.3 4.5 1.6-3.9-1.8 3.7-.7 3.2 1.3-2.8-1.4h.2l1.2-.3.3-.2 3.1-2.4-3.5 2.4-1 .3-2.3.4 3.4-3.4-4 3.4-3 .4 3.6-3.3-4.5 3.4h-.5l-3.2.3c1-1 2.8-3 3.6-3.6l-4.4 3.7h-4.3v.6zm20.4-3.6 1.5-.7z" fill="#6c5402" stroke-width="3.9843" id="path102"/><path d="M-221.6 254c-4.2 7.9-23.1 10.5-24.2 4.2s17.6-10.2 24.2-4.2z" fill="#00a651" fill-rule="evenodd" stroke="#000" stroke-width="1.0412" id="path103"/><path d="m-245.6 258.9 1.8-.2h.4l4.5 1.5-3.4-1.6 3.2-.4 4.5 1.6-3.5-1.7.8-.1 2.2-.4 4.5 1.7-3.9-1.8 3.7-.7 3.2 1.2-2.8-1.3h.2l1.2-.3.3-.3 3.1-2.3-3.5 2.4-1 .3-2.3.3 3.4-3.3-4 3.4-3 .4 3.6-3.3-4.5 3.4h-.5l-3.2.3 3.6-3.7-4.4 3.7-2.5.1h-1.8v.5zm20.4-3.8 1.5-.6z" fill="#6c5402" stroke-width="3.9843" id="path104"/><path d="M-289.7 242.2c8.8-1.2 17.8-18.1 12.3-21.3s-15.7 13-12.3 21.3z" fill="#00a651" fill-rule="evenodd" stroke="#000" stroke-width="1.0412" id="path105"/><path d="m-276.9 221.3-.8 1.6-.2.4v4.8l-.4-3.7-1.5 2.8v4.8l-.4-4-.4.8-1 2v4.7l-.4-4.2-2 3.2.1 3.5-.3-3-.7 1-.4.3-3.3 2.1 3.6-2.5.6-1 1-1.9-4.2 2.1 4.6-2.6 1.4-2.8-4.4 2.4 4.8-3.1.2-.5 1.3-2.9-4.7 2.1 5-2.9 1-2.2.5-1.7.5.2zm-10.5 18-1.1 1.1z" fill="#6c5402" stroke-width="3.9843" id="path106"/><path d="M-292 227.8c8.8 1 21.8-13 17.3-17.4-4.5-4.5-18.4 8.5-17.4 17.4z" fill="#00a651" fill-rule="evenodd" stroke="#000" stroke-width="1.0412" id="path107"/><path d="m-274.3 210.9-1.1 1.3-.3.4-1.3 4.5c.2-.7.4-2.4.5-3.7l-2 2.5-1.3 4.5.6-3.8-.5.5-1.6 1.7-1.2 4.6.7-4.1-2.7 2.6-.8 3.3.5-3-.1.1-1 .8h-.3l-3.7 1.3 4-1.5.8-.7 1.6-1.6-4.7.9 5.1-1.4 2-2.3-4.8 1.1 5.5-1.7q0-.3.3-.4l2-2.5-5 .9c1-.3 4.3-1.3 5.5-1.5l1.5-2 1-1.5.4.4zm-14.7 14.6-1.4.9z" fill="#6c5402" stroke-width="3.9843" id="path108"/><path d="M-275.2 239.6c7.6-4.7 9.2-23.7 3-24.5-6.4-.7-9.4 18.1-3 24.5z" fill="#00a651" fill-rule="evenodd" stroke="#000" stroke-width="1.0412" id="path109"/><path d="m-271.6 215.3-.1 1.8v.4l1.8 4.4-1.9-3.3-.2 3.2 1.9 4.4-2-3.4v.8l-.2 2.2c.4.9 1.5 3.6 2 4.4l-2-3.7-.6 3.7 1.4 3.2-1.5-2.8v.2l-.2 1.2-.3.3-2.2 3.3 2.3-3.7.2-1 .2-2.3-3 3.6 3.1-4.3.2-3-3.1 3.9 3.2-4.8v-3.6l-3.4 3.7 3.5-4.6v-2.4c-.1-2-.2-1.3-.2-1.8h.5zm-2.7 20.6-.5 1.5z" fill="#6c5402" stroke-width="3.9843" id="path110"/><path d="M-260.7 257.3c6.6-6 4.6-25-1.7-24.5s-5.7 19.5 1.7 24.5z" fill="#00a651" fill-rule="evenodd" stroke="#000" stroke-width="1.0412" id="path111"/><path d="m-261.8 232.8.3 1.8v.4l2.7 4-2.4-2.9q0 1.5.4 3.2l2.6 4-2.5-3v.8l.3 2.2 2.7 4-2.6-3.3.1 3.7 2 2.8-2-2.3v1.3l-.1.4-1.5 3.6 1.5-4v-1.1l-.2-2.3-2.4 4.2 2.3-4.8-.3-3-2.4 4.4 2.2-5.3v-.5l-.6-3.1-2.7 4.4 2.6-5.3-.5-2.3-.5-1.8h.5zm1.4 20.7q0 1-.3 1.6z" fill="#6c5402" stroke-width="3.9843" id="path112"/><path d="M-254.2 263.4c6.7-5.9 5-24.9-1.4-24.5-6.3.4-5.9 19.4 1.4 24.5z" fill="#00a651" fill-rule="evenodd" stroke="#000" stroke-width="1.0412" id="path113"/><path d="m-255 239 .3 1.7v.5c.7.8 2 3.2 2.6 4-.4-.7-1.6-2-2.4-3l.4 3.2c.6.8 2 3.3 2.6 4l-2.5-3 .1.8.2 2.2c.5.8 2 3.2 2.7 4l-2.7-3.3.2 3.7 2 2.9-2-2.4v1.3l-.2.4-1.6 3.6 1.6-4v-1.1l-.2-2.2-2.4 4 2.4-4.7-.3-3-2.4 4.3c.5-1 1.7-4.1 2.3-5.2l-.1-.5-.5-3.1-2.8 4.3 2.6-5.2-.4-2.4c-.4-1.8-.4-1.2-.5-1.7h.6zm1.1 20.7-.2 1.6z" fill="#6c5402" stroke-width="3.9843" id="path114"/><path d="M-247 275c6.7-6 4.7-25-1.7-24.6-6.3.4-5.6 19.5 1.8 24.5z" fill="#00a651" fill-rule="evenodd" stroke="#000" stroke-width="1.0412" id="path115"/><path d="m-248 250.4.3 1.8v.4c.7.9 2 3.2 2.7 4l-2.5-2.9.4 3.2 2.7 4-2.5-3v.8l.3 2.2 2.7 4-2.7-3.3.2 3.7 2 2.8-2-2.3v1.3l-.1.4-1.6 3.6 1.5-4V266l-.2-2.3-2.3 4.2 2.3-4.8-.4-3-2.3 4.4 2.2-5.3v-.5l-.6-3.1-2.7 4.4c.6-1 2-4.2 2.5-5.3l-.5-2.3-.4-1.8h.5zm1.3 20.7-.2 1.6z" fill="#6c5402" stroke-width="3.9843" id="path116"/><path d="M-241.6 279.2c6.7-6 4.6-25-1.7-24.5s-5.7 19.5 1.7 24.5z" fill="#00a651" fill-rule="evenodd" stroke="#000" stroke-width="1.0412" id="path117"/><path d="m-242.7 254.7.3 1.8v.4l2.7 4-2.4-2.9q0 1.4.4 3.2l2.6 4-2.5-3v.8l.3 2.2 2.7 4-2.6-3.3.1 3.7 2 2.8-2-2.3v1.3l-.1.4-1.5 3.6 1.5-4v-1.1l-.2-2.3-2.4 4.2 2.3-4.8-.3-3-2.4 4.4 2.2-5.3v-.5l-.6-3.1-2.7 4.4 2.6-5.3-.5-2.3-.5-1.8h.5zm1.4 20.7q0 1-.3 1.6z" fill="#6c5402" stroke-width="3.9843" id="path118"/><path d="M-298 187.5c8.8 1.1 22-12.7 17.5-17.3s-18.6 8.4-17.6 17.3z" fill="#00a651" fill-rule="evenodd" stroke="#000" stroke-width="1.0412" id="path119"/><path d="m-280.1 170.7-1.2 1.4-.3.4-1.3 4.5.6-3.7-2.2 2.4-1.3 4.6.7-4-.5.7-1.6 1.6-1.3 4.6.8-4.2-2.7 2.6-.9 3.3.6-3-.2.1-.9.8-.4.1-3.7 1.2 4-1.5.9-.7 1.5-1.6-4.7.9 5.2-1.4 2-2.2-4.8 1c1.1-.2 4.3-1.3 5.5-1.6q0-.3.3-.4l2-2.4-5 .7 5.6-1.4 1.4-2c1.2-1.5.8-1 1-1.4l.5.3zm-15 14.5-1.3.8z" fill="#6c5402" stroke-width="3.9843" id="path120"/><path d="M-255.8 193.8c-8.4 3-24-8-20.7-13.3 3.5-5.3 19.9 4.4 20.7 13.3z" fill="#00a651" fill-rule="evenodd" stroke="#000" stroke-width="1.0412" id="path121"/><path d="m-276.7 181 1.4 1.2.3.3 2.3 4.1-1.4-3.5 2.6 2 2.2 4.2-1.4-3.7.6.5 2 1.2c.3.9 1.7 3.4 2 4.3l-1.5-4q1.4 1.2 3.2 2c.2.7 1.2 2.5 1.5 3.1l-1.2-2.8h.2l1 .6h.4l4 .5-4.3-.7-1-.5-1.9-1.2 4.8-.1-5.3-.3-2.5-1.8h5l-5.7-.5-.4-.3-2.4-2 5-.2-5.7-.3-1.9-1.6-1.3-1.2-.3.4zm17.5 11.2 1.5.6z" fill="#6c5402" stroke-width="3.9843" id="path122"/><path d="M-252.8 201.6c-6.7 5.9-25.3 1.7-24.1-4.5s20-3.5 24.1 4.5z" fill="#00a651" fill-rule="evenodd" stroke="#000" stroke-width="1.0412" id="path123"/><path d="m-277 197.7 1.7.5.5.1 3.6 3-2.5-2.7 3 .8 3.7 3-2.7-2.8.8.2 2.2.4 3.6 3.2-3-3 3.7.6 2.6 2.3-2.1-2.2h.2l1.1.1.4-.1c1-.3 3-1 3.8-1.1l-4.2 1-1.1-.1-2.2-.4 4.4-2-5 1.8-3-.7 4.6-1.8c-1 .4-4.3 1.2-5.5 1.6l-.4-.1-3-1c1.3-.5 3.6-1.7 4.6-2l-5.5 1.8-2.3-.7-1.7-.7-.1.5zm20.4 3.7h1.7z" fill="#6c5402" stroke-width="3.9843" id="path124"/><path d="M-244.4 222c-4.3 7.8-23.3 10.1-24.3 3.9-1-6.3 17.7-10 24.3-4z" fill="#00a651" fill-rule="evenodd" stroke="#000" stroke-width="1.0412" id="path125"/><path d="m-268.5 226.5 1.8-.1h.4l4.5 1.6-3.4-1.7 3.2-.4 4.5 1.7-3.5-1.8h.8l2.2-.4 4.4 1.8-3.8-1.9 3.7-.6 3.2 1.2-2.7-1.3h.2l1-.3h.1l.3-.3 3.2-2.3-3.6 2.4-1 .2-2.3.4 3.5-3.3-4.1 3.4-3 .3 3.7-3.3-4.6 3.4h-.5l-3.2.2 3.6-3.6c-.8.8-3.5 2.8-4.4 3.7h-4.3v.5zm20.4-3.4 1.5-.6z" fill="#6c5402" stroke-width="3.9843" id="path126"/><path d="M-245.6 228.9c-4.3 7.8-23.2 10.1-24.2 3.9-1-6.3 17.7-10 24.2-4z" fill="#00a651" fill-rule="evenodd" stroke="#000" stroke-width="1.0412" id="path127"/><path d="m-269.7 233.4 1.8-.1h.5l4.4 1.6-3.3-1.7 3.2-.4 4.4 1.7-3.5-1.8h.8l2.2-.4 4.5 1.8-3.8-1.9 3.7-.6 3.2 1.2-2.8-1.3h.2l1.2-.3.3-.3 3.2-2.3-3.7 2.4-1 .2-2.2.4c1-1 2.7-2.7 3.5-3.3l-4.2 3.4-3 .3 3.7-3.3-4.6 3.4h-.4l-3.2.2 3.6-3.6c-.8.8-3.5 2.8-4.5 3.7h-4.2v.5zm20.5-3.4 1.5-.6z" fill="#6c5402" stroke-width="3.9843" id="path128"/><path d="M-226.8 242.6c-4.3 7.9-23.3 10.2-24.3 4-1-6.3 17.7-10 24.3-4z" fill="#00a651" fill-rule="evenodd" stroke="#000" stroke-width="1.0412" id="path129"/><path d="m-251 247.2 1.9-.1h.4l4.5 1.6-3.3-1.8 3.2-.3 4.4 1.7-3.5-1.8h.8l2.2-.4 4.5 1.8-3.8-1.9 3.7-.7 3.2 1.3-2.8-1.3h.2l1.1-.4.4-.2 3.1-2.3-3.6 2.4-1 .2-2.3.4 3.5-3.3-4 3.3-3.1.4 3.7-3.3c-.9.7-3.7 2.6-4.6 3.4h-.5l-3.1.2c1-1 2.8-3 3.6-3.6l-4.5 3.6-2.5.1h-1.7v.5zm20.6-3.5 1.5-.5z" fill="#6c5402" stroke-width="3.9843" id="path130"/><path d="M-292.3 221c8.9-1 18-17.8 12.6-21-5.5-3.3-15.8 12.7-12.6 21z" fill="#00a651" fill-rule="evenodd" stroke="#000" stroke-width="1.0412" id="path131"/><path d="m-279.2 200.3-.8 1.6-.2.5v4.7l-.5-3.7-1.4 2.8-.1 4.8-.4-4q0 .4-.3.7l-1.2 2v4.8l-.3-4.2-2 3.2v3.4l-.2-3-.1.1-.7 1-.3.2-3.4 2c.8-.4 2.9-2 3.6-2.4l.6-.9 1.1-2-4.3 2.1 4.7-2.6 1.4-2.7-4.4 2.3c1-.6 3.8-2.5 4.8-3l.2-.5 1.3-2.9-4.6 2c1-.4 3.9-2.2 5-2.8l1-2.2.6-1.7.5.2zm-10.7 17.8-1.1 1.2z" fill="#6c5402" stroke-width="3.9843" id="path132"/><path d="M-294 204.9c9 1.1 22-12.7 17.6-17.2s-18.5 8.3-17.5 17.2z" fill="#00a651" fill-rule="evenodd" stroke="#000" stroke-width="1.0412" id="path133"/><path d="m-276 188.2-1.1 1.3-.3.4-1.4 4.5.6-3.7-2.1 2.4-1.3 4.6.6-3.9-.5.6-1.6 1.6-1.2 4.6.8-4.1-2.8 2.5-.9 3.4.6-3h-.2l-.9.8-.3.1-3.8 1.2 4-1.5 1-.7 1.5-1.6-4.7.9 5.1-1.3 2.1-2.3-4.8 1.1 5.4-1.7.3-.4 2-2.4-5 .8 5.6-1.5 1.5-2 1-1.4.4.4zm-14.9 14.4-1.4.9z" fill="#6c5402" stroke-width="3.9843" id="path134"/><path d="M-281 220.2c7.7-4.6 9.5-23.6 3.3-24.4-6.3-.9-9.5 18-3.3 24.4z" fill="#00a651" fill-rule="evenodd" stroke="#000" stroke-width="1.0412" id="path135"/><path d="M-277.1 196v1.7l-.1.5 1.7 4.4-1.8-3.3-.2 3.2 1.8 4.4-1.9-3.5v.8l-.3 2.3 1.9 4.4-2-3.8q-.2 2-.6 3.7l1.4 3.2-1.4-2.7v.2l-.3 1.1-.2.4-2.3 3.2 2.3-3.7.2-1 .3-2.3-3.2 3.6 3.3-4.2.2-3-3.1 3.8 3.2-4.7v-.5l.1-3.2-3.5 3.7c.8-.8 2.7-3.6 3.6-4.5v-2.5l-.1-1.8h.5zm-2.9 20.5-.5 1.5z" fill="#6c5402" stroke-width="3.9843" id="path136"/><path d="M-269.7 227c6.7-6 4.9-25-1.5-24.5-6.3.3-5.9 19.4 1.5 24.5z" fill="#00a651" fill-rule="evenodd" stroke="#000" stroke-width="1.0412" id="path137"/><path d="m-270.5 202.5.3 1.8v.4l2.6 4-2.4-2.9.4 3.2 2.6 4-2.5-3v.7l.2 2.3 2.7 4-2.6-3.3.1 3.7 2 2.9-2-2.5v1.4l-.2.4-1.5 3.6 1.5-4V218l-.1-2.3-2.5 4.1 2.4-4.7-.3-3-2.4 4.3 2.3-5.2v-.5l-.6-3.1-2.7 4.3 2.6-5.2-.5-2.4-.4-1.7.5-.1zm1 20.7q0 1-.2 1.6z" fill="#6c5402" stroke-width="3.9843" id="path138"/><path d="M-268.2 258.4c6.7-6 4.9-25-1.4-24.6s-6 19.5 1.4 24.6z" fill="#00a651" fill-rule="evenodd" stroke="#000" stroke-width="1.0412" id="path139"/><path d="m-269 233.9.3 1.7v.5l2.6 4-2.4-2.9.4 3.2 2.6 4-2.5-3v.7l.2 2.3 2.7 4-2.6-3.4.1 3.8 2 2.9-2-2.5v1.4l-.1.4-1.6 3.6 1.5-4v-1.2l-.1-2.2-2.5 4.1 2.4-4.7-.3-3-2.4 4.3 2.3-5.2v-.5l-.6-3.1-2.7 4.3 2.6-5.2-.5-2.4-.4-1.7.5-.1zm1 20.7q0 1-.2 1.6z" fill="#6c5402" stroke-width="3.9843" id="path140"/></g><ellipse transform="matrix(-.9905 .13744 .20293 .9792 0 0)" cx="302.21" cy="111.76" rx="2.2448" ry="2.0911" fill="#e6e6e6" stroke="#000" stroke-width="1.6178" id="ellipse140"/><g fill-rule="evenodd" stroke-width="1.616" id="g143"><path d="m-285.4 154.6 3 1.6c-3.4 1.7-6.7 3.3-9 7.7-.3-5.3 4.8-7 6-9.3" fill="#ccc" stroke="#000" stroke-linecap="round" stroke-linejoin="round" id="path141"/><path d="M-206.5 191c.7-.6 9.4 4.1 13.9 9.5 2.5 3 6 5.1 5.6 6 1 2.9-.3 5 .7 9.5.9 3.5 4.6 12 5.2 15.6l-3.6-.8c-1.7-4.5-5.2-13-7.5-20.7-9.2-4.4-19.7-4-23.9-10.2" fill="#fff" stroke="#6c5402" id="path142"/><path d="m-184.5 234.5-4.2 5.7c-1.7 5.9 6 4.7 8.1 3-2.4-.7-4.4.5-5-1.5 0-3.2 2.4-3.1 3.4-5.2q.4 2.6 6 3.5c-2.8-1.9-4.8-4.8-4.4-6.3l-.7-2.5-3.4-.3c.4 1.2.8 2 .2 3.6z" fill="#666" stroke="#000" id="path143"/></g></g><!-- app4joy --></svg>