<svg xmlns="http://www.w3.org/2000/svg" xml:space="preserve" id="레이어_1" width="517" height="600" x="0" y="0" style="enable-background:new 0 0 517 600" version="1.1" viewBox="0 0 517 600"><style id="style1" type="text/css">.st1{fill:#574601}.st2{fill:#FFDF56}.st3{fill:#DBBD3F}</style><g id="g63"><path id="rect1" d="M0 0h517v600H0z" style="fill:#EB0026"/></g><g id="g62"><path id="path1" d="M219 361c-23 5-24 11-30 16s-8 5-10 2-2 6 5 7c0 0-2 33 2 42s-2 19-15 19c-6 0 6 7 16 5 0 0 3 8 0 13s-21 22-26 21-10-8-11-9-7-14-19-8c-2.6 1.3-4.2 3.9-5 7-2.7.6-5.6 2.7-7.3 8.3-1 2.9 1.5-.5 6.9-.3 1.4 10.2 9.4 19.9 22.4 10 3-1 7 4 7 7s-2 5-7 5-17 7-14 18l.2.6c-1.9 2.5-5.2 8.9 3.6 14.8 2.5 1.9-.2-1.8 1.9-7 4 2.4 9 1.9 13.3.7 7-2 9-10 7-17 1-2 6-5 7-3s5 12 1 17c-3.8 4.8 1.5 22.3 11.6 18.6 1.4 2.3 4.1 4.3 9.4 4.6 3.5.4-2.1-1.8-2.1-9 5.8-4.5 6.8-8.7 6.1-14.2-1-7-4.5-12.5-10.5-10.5 0 0-3-12-1-14s17-16 21-15 9 8 25-1c7-5-13 5-15-11 0 0 6-4 7-8s-10-20-5-36 37-15 37-15L267 367s-25-11-48-6z" class="st1"/><path id="path2" d="M264.6 368.2 250 417.5c-4.8 0-15.4.5-24.2 4-6.1 2.4-11.3 6.3-13.2 12.4-3.6 11.5.5 22.7 3.2 30.1.9 2.4 1.9 5.3 1.8 6-.6 2.4-4.1 5.4-6.2 6.8l-1 .7.2 1.2c.6 4.8 3.1 10.5 11.4 11.3a23 23 0 0 1-8.5 2c-3.3 0-5.5-1.1-7.4-2.2-1-.6-2-1.1-3.1-1.3l-.9-.1c-6.1 0-21.8 15.5-22 15.6-2.3 2.3-1 9.9.5 15.9l.5 2.1 2-.7 1.8-.3c3.5 0 5.5 4.8 6.1 9.2.6 4.6 0 8.2-5.3 12.3l-.8.6v1c0 2.9.8 5.1 1.6 6.7-2.5-.5-4.3-1.6-5.3-3.3l-.8-1.4-1.5.6a5 5 0 0 1-2 .4c-3.5 0-5.6-3.7-6.4-5.3-2.1-4.3-2.1-9-.9-10.6 5.3-6.6-.7-19-.8-19.1a3.4 3.4 0 0 0-3-1.8c-2.7 0-6.5 2.7-7.5 4.8l-.4.7.2.8c.9 3.2.9 6.5-.1 9.2a8.4 8.4 0 0 1-5.5 5.4 23 23 0 0 1-6 .9c-2.2 0-4.1-.5-5.7-1.4l-2-1.2-.9 2.2c-.7 1.7-.9 3.3-1 4.5a8.3 8.3 0 0 1-2.8-4.5 8 8 0 0 1 1.7-5.8l.6-.8-.5-1.5c-.9-3.4-.3-6.6 1.9-9.5 3-3.9 7.9-6 10.1-6 8.1 0 9-4.9 9-7 0-3.8-4.1-9.1-8.2-9.1l-1.5.2-.3.1-.3.2a15.3 15.3 0 0 1-9 3.7c-5.9 0-9.4-6.2-10.2-12.4l-.2-1.7-1.7-.1h-.7c-1.3 0-2.5.2-3.4.4 1.2-2.5 2.8-4 4.9-4.5l1.2-.3.3-1.2c.5-2 1.6-4.5 4-5.7a12 12 0 0 1 5.2-1.4c5.6 0 9.1 5.4 10.6 7.7l.9 1.3.7.8c2.1 2.5 6.5 7.8 11.3 8.7l.9.1c3.5 0 9.6-4.3 15.2-9.3a74.6 74.6 0 0 0 12.1-12.8c3.5-5.8.3-14.4.2-14.7l-.6-1.6-1.7.3c-1.1.2-2.2.3-3.4.3-3.3 0-6.3-.8-8.6-1.6 5.3-.8 9.7-3.3 12.3-7.3 2.7-4.2 3.1-9.4.9-14.3-3.1-7-2.4-32-1.8-41.1l.1-1.8-1.8-.3c-.9-.1-1.7-.5-2.4-1h.1c2.1 0 4.4-1.3 8.3-4.5 1.3-1.1 2.4-2.3 3.5-3.4 3.9-4.1 8-8.4 25.7-12.2 3.8-.8 8-1.3 12.4-1.3h1.6c14 .7 26.7 5.2 31.1 6.9z" class="st2"/><path id="path3" d="M264.6 368.2 250 417.5c-4.8 0-15.4.5-24.2 4-4-3.9-7.6-7.9-8.8-10.5-3-7 5-6 13-9s-3-8 7-19c6-6.6 1.2-15.3-3.6-21.3a97 97 0 0 1 31.2 6.5z" class="st3"/><path id="path4" d="M104 58v387c0 2.2 3.4 4 7.5 4s7.5-1.8 7.5-4V58Z" class="st1"/><path id="path5" d="M111.5 447c-3.6 0-5.5-1.5-5.5-2V60h11v385c0 .5-1.9 2-5.5 2z" class="st2"/><path id="path6" d="M113.5 447c-1.6 0-2.5-1.5-2.5-2V60h5v385c0 .5-.9 2-2.5 2z" class="st3"/><path id="path7" d="M118 185v44s8-5 12 2-2 16 1 15 10-16 13-15 17 3 16 22-10 11-8 15 24 8.5 33.5-8.8C195 242 191 211 191 211s-53-13-56-21 1-15-4-21-13-15-16-15-6-8-14 0c-4 5 1 0 5 3.5s1 16.5 7 18.5 5 9 5 9z" class="st1"/><path id="path8" d="M183.8 258.3a21.3 21.3 0 0 1-13.2 10.5c-2.6.7-5 .9-6.8.9-3.9 0-6.8-.8-8.5-1.6 3.1-1.1 6.2-4.5 6.7-15 1-18.9-12.1-22.5-16.5-23.7l-.9-.3-.9-.1c-2.7 0-4.9 3.2-8.7 9l-2 2.9c.5-3.1.8-7.1-1.3-10.8a8.7 8.7 0 0 0-7.8-4.7h-.1c-1.4 0-3.7.4-4.9.7v-41c.1-1.2.3-2.7 0-4.3-.4-2.6-1.7-5.4-5.4-6.6-2.2-.7-2.6-4.6-3.1-8.4-.5-3.9-.9-7.6-3.3-9.7a7.4 7.4 0 0 0-3.7-1.7c1.5-1.2 2.7-1.8 3.9-1.8 1.3 0 2.4.8 3.6 1.7 1.2.9 2.4 1.8 3.9 1.8 1 .1 5.3 3.3 14.5 14.3 2.3 2.8 2.3 5.9 2.3 9.8 0 3.2-.1 6.8 1.4 10.7 1.9 5.1 18.5 11.2 33.8 15.8 8.7 2.6 17.1 4.8 22.2 6.1.8 5.9 2.7 31-5.2 45.5z" class="st2"/><path id="path9" d="M183.8 258.3a21.3 21.3 0 0 1-13.2 10.5c5.9-11.4 5.7-28.1 1.4-33.8-4-5.3-4.9-19.6-5-28.5 8.7 2.6 17.1 4.8 22.2 6.1.6 6.1 2.5 31.2-5.4 45.7z" class="st3"/><path id="path10" d="M260 343s-14 1-13 5 15 11 17 17 9-8 9-8z" class="st3"/><path id="path11" d="M260 343s-14 1-13 5 15 11 17 17 9-8 9-8z" style="fill:none;stroke:#574601;stroke-width:2;stroke-miterlimit:10"/><path id="path12" d="M226 154s6-3 4-9-6-7-8-7-15 7-19-7 7-17 8-16-7.5 11.5 1.5 15.5 10-4 19 1 5 21 0 26z" class="st2"/><g id="g13"><path id="path13" d="m231.6 158.8-7.7-4.9 1.6-.8c.2-.1 5.2-2.7 3.5-7.8-1.9-5.7-5.6-6.3-7.1-6.3l-1.5.4c-2.9.9-8.2 2.5-12.6.1a12.7 12.7 0 0 1-5.8-8.2c-3-10.5 2.1-14.9 4.5-16.2 1.8-1.1 4.2-1.7 5.2-.7.7.7.3 1.8-.5 3.6-2 4.6-3.5 9.3 1.7 11.6 4 1.8 6.2 1 8.5.2 2.7-1 5.5-1.9 10.6.9 3.1 1.7 5.1 4.9 5.7 9 1 6.9-2 15.1-5.5 18.5zm-3.7-4.8 3.5 2.2a23.7 23.7 0 0 0 4.4-16.3c-.5-3.6-2.1-6.1-4.7-7.6-4.3-2.4-6.4-1.6-8.9-.7-2.5.9-5.3 1.9-10-.2-7.5-3.3-4.3-10.7-2.7-14.3l.5-1.3c-.9.1-2.6.8-4.1 2.3-1.9 1.9-3.8 5.7-1.8 12.6 1 3.4 2.6 5.8 4.8 7 3.7 2 8.5.6 11.1-.2 1-.3 1.6-.5 2.1-.5 1.5 0 6.6.6 8.9 7.7 1.4 4.4-.9 7.6-3.1 9.3z" class="st1"/></g><path id="path14" d="M468.5 86.5c-4 2-11 8-12 12 0 0-3-4-5-8s-9-17-30-23c-10-2-10-14-11-12s-4 9-3 13c0 0-24 6-28 28s-1 43-8 48-18 7-20-10c0-4-8 15-3 25s19 8 29 1c0 0-5 9-3 18 0 0-27-2-26 27 0 6 1-5 13-9 0 0-31 54 8 72 3 0-6-7-2-32s37-34 32-72c0 0 35-2 27-39-1-2-6 16-18 10s-17-11-13-33 24-21 34-18 24 17 15 59-35 54-53 92-13 43-19 50 2 75 5 80 20 3 35 45 3 45-2 45-11 0-19-23-27-64-76-80c0 0-7-25-14-34s-18-28-14-47c0 0 7 5 11 4s-5-8-3-10 8 3 14-1c2-2-10-5-14-17s-6-20-10-21c0 0 8-4 13 3s4-10-5-14c0 0 4 1 3-6 0 0-21 12-26-27 0 0 9 6 20 1 0 0-16-2-14-16s4-19 13-17-3 14 3 17 10-25 8-31-3-7 1-11 14-18 14-24c0 0-9-3-14.5-.5 0 0 0-8-3-10s-48-12-61-8c-3 1-1 4-4 6s-15 5-15 8 2 23 5 26c0 0 22-4 31 6s-5 26-15 30c0 0-19-10-21-16 0 0-11 6-7 15s12 11 12 11v6s-30-3-39 35 0 53 5 59 7 18-3 25-22-1-24 1 0 14 0 14-26 0-30-7-10-15-15-15v68s19-2 28-20c0 0 6 11 4 18s9-6 10-14 8 4 7 11 16-23 34-35c0 0 9 4 11 7s4-7 4-10-8.5-7.5-4.5-10.5 12-12 12-12 1 22 16 35 25 30 26 33-19 14-22 33-9 22-17 19 0 7 8 6 12-5 13 2 4 22 19 28c0 0-10 23 6 31 7 3-6-2 4-25 0 0 20 4 23 12s-3 11 0 12 10-8 10-14c0 0 19 8 21 12s2 31-2 37-10-11-22-7a10.2 10.2 0 0 0-6.6 6.2c-1.9.6-4.3 1.9-5.9 4.3-2 3-2.3 6.9-.9 11.6.2.7.7 2.5 2.4 2.5 1.3 0 1.9-.9 2.5-1.8a12 12 0 0 1 2.5-2.8 8.2 8.2 0 0 0 2 3.1c3 2 12 7 20-3 0 0 2 0 3 3s2 5-2 8c-3.9 2.9-13.6 13.6-3.5 22.5.1 1.9.7 4.4 2.4 6.5 2.3 2.8 5.9 4.2 10.8 4.2h.4c1.3 0 2.1-.4 2.5-1.3.6-1.3-.2-2.4-.9-3.2a13 13 0 0 1-1.7-2.6c4.7-1.6 8.3-5.8 9.9-9.2 3-6-2-12-4-15l5-10s8 3 10 7 5 10 10 10h.2c1.3 2.4 4.2 6.2 9.6 6.2 2.4 0 5.1-.8 7.9-2.5.7-.4 2-1.1 1.9-2.6-.1-1.5-1.4-2-2.4-2.4-1.4-.5-3.6-1.4-5.4-4.1 1.1-2 1.9-4.8 2.2-8.7 1-14-10-14-13-13s-11 0-13-5c0 0 3-25 2-31s15-4 3-36c-2-6-3 10-8 11s-28-16-30-20 7-17 0-43c0 0 20-3 31 14s31 35 34 51 16 23 24 22 28-3 29-29-20-74-17-92 16-29 25-18 0 20 5 18 17-15 6-30c0 0 11-9 12-16 0-4-7 8-22 9s-15-8-29 2c0 0 0-4 7-8s37-19 38-43c0-6-10 11-18 15s-31 15-35 20c0 0 0-11 7-18s35-20 39-44c1-8-3 11-19 15s-30 6-35 16c0 0-1-9 9-26s47-86 51-131c0-22 17-29 19-31s-6.9-3.9-10.9-1.9z" class="st1"/><path id="path15" d="M311 65c-6 4-12.2 26.8-12.2 26.8l-4.2-1.3a166 166 0 0 0-17.9-4.3c-17.4-3.3-32.4-4-32.4-4-.1-8.4-2.9-26.6-2.9-26.6 11-5 9 5 9 5 4-1 6-1 5 4-1 4.9-5.7 3.1-6 3 2 4 9 6 16 6s6-6 6-6-8 0-7-5 8-4 8-4c-1-3.6.3-5.6 2.2-6.3 1.9-.7 4.3-.2 5.8 1.3 3 3 0 7 0 7s6-2 6 4-7 4-7 4c-1 3 1 7 8 9 2.6.7 5.5.9 7.8.8 4-.3 6.3-1.5 3.2-2.8l-1-.4c-3.9-1.7-3-2.9-2-6.6.4-1.5 1.3-1.7 2.4-1.5 1.7.3 3.6 1.8 3.6.5 0-2-2-3 2-5S311 65 311 65z" class="st2"/><path id="path16" d="M407.8 249.5c-10.2 17.4-9.3 26.8-9.3 27.2l.8 6.7 3-6.1c2.1-4.2 6-6.8 11.2-8.9 4.6-1.8 10.2-3.1 16.3-4.6l6.2-1.5a27.2 27.2 0 0 0 14-8.9c-5.8 12.8-18.6 21.8-27.6 28.2-3.6 2.5-6.5 4.5-8.3 6.3a30 30 0 0 0-7.6 19.4v5.7l3.6-4.5c2.1-2.7 11-7.6 19.3-11.9l11.9-6 3.1-1.5c4.2-2.1 8.6-7.2 12.2-11.3l2.7-3c-2.7 19.8-26.9 33.3-35.1 37.8l-1.7.9c-7.8 4.4-8 9.2-8 9.7v3.9l.1-.1 3.1-2.2c5.5-3.9 8.2-4.4 10-4.4 1.6 0 3.1.5 4.9 1l2.3.7c2.2.6 4.8 1.1 8.3 1.1l2.4-.1a34 34 0 0 0 18.2-7.2 49.2 49.2 0 0 1-9.6 10.6l-1.5 1.2 1.1 1.5a18 18 0 0 1 3.5 15.9 19.6 19.6 0 0 1-7.1 10.2c.7-3.5 1.3-9.8-4.3-16.5-2.8-3.3-6.1-5.1-9.6-5.1-8.1 0-15.5 8.9-18.4 21.4l-.5 2.7c-1.6 9.4 2.9 26 7.7 43.6 4.8 17.7 9.8 35.9 9.3 48.7-.5 11.7-4.9 18.1-10.2 21.8a36.7 36.7 0 0 1-16.6 5.2l-.5.1-1.3.1c-6.9 0-17.8-6.3-20.5-20.5-2.1-10.9-11.6-22.6-20.8-33.9-4.8-5.9-9.8-12-13.5-17.8a33.8 33.8 0 0 0-29.1-15.1c-2.3 0-3.8.2-3.9.2l-2.2.3.6 2.2a67.5 67.5 0 0 1 .6 35.2c-.8 3.7-1.4 6.2-.4 8.1 2.3 4.6 24.7 21.1 31.3 21.1l.9-.1c3.7-.7 5.3-5.6 6.7-9.6 1.8 5.3 2.8 9.4 3.2 12.8 1.1 9-2.1 12.1-4.4 14.3-1.5 1.5-3.3 3.2-2.8 5.9.8 4.7-1.2 23.3-2 30.3v.1l-.1.5.2.5c1.8 4.6 7.5 6.6 12.2 6.6 1.3 0 2.4-.2 3.3-.5.4-.1 1.2-.3 2.2-.3 1.4 0 4.1.3 6 2.3 1.8 1.9 2.5 4.9 2.2 8.9-.9 12.1-7 12.1-12 12.1-3.8 0-6.4-5.4-8.2-8.9-2.3-4.6-10.2-7.7-11.1-8l-1.7-.6-6.3 12.6.7 1 .7 1c2.1 3 5.3 7.6 3.2 12-1.6 3.2-5.9 8.7-11.9 8.7-2.6 0-5.4-1.1-8.1-3.4-2.9-2.4-4.3-5-4.3-7.9.1-4.9 4.4-9.8 7.2-11.9 4.9-3.7 3.8-6.9 2.9-9.7l-.2-.5c-1.2-3.5-3.6-4.4-4.9-4.4h-1l-.6.8c-2.8 3.5-6 5.3-9.5 5.3-2.5 0-5.2-.9-7.9-2.7-1-.8-3.4-6.5-2.6-12a8.6 8.6 0 0 1 6.1-7.4c1-.3 2-.5 3-.5 4 0 7.3 2.8 10.1 5.3 2.2 1.9 4.1 3.6 6.3 3.6 1 0 2.5-.4 3.6-2.2 4.3-6.5 4.6-34 2.1-39-2.2-4.3-17.4-11-22-13l-2.8-1.2v3c0 4-3.8 9.3-6.1 11.3.8-2.1 1.7-5.4 0-10-3.3-8.8-22.3-12.8-24.5-13.3l-1.6-.3-.6 1.5c-4.9 11.2-4.5 18.4-3.5 22.7-11-8.1-3-26.9-2.9-27.1l.8-1.9-1.9-.8c-10-4-15.8-12.6-17.8-26.4-.2-1.4-.8-5.8-5.2-5.8-1.3 0-2.8.4-4.4.8-1.6.5-3.5 1-5.6 1.2l-.9.1c-1.8 0-3.6-.6-5-1.4l3 .3c9.6 0 12.7-12.4 14.2-21.7 1.9-12 11.3-20.9 16.9-26.3 3.9-3.7 5.8-5.5 5.1-7.7a113 113 0 0 0-26.6-33.9c-2.1-1.8-4-3.9-5.5-6a56.3 56.3 0 0 1-9.8-27.5l-.2-4.9-.4.5-2.8 3.2c-.1.1-7.9 8.9-11.7 11.7-1.4 1.1-1.8 2.3-1.8 3.1-.2 2.4 1.6 4.4 3.5 6.3.8.8 2 2.2 2.1 2.7 0 1.8-.7 5.5-1.5 7.6a46 46 0 0 0-10.7-6.4l-1-.4-.9.6c-10.8 7.2-20.9 20.3-27.6 28.9l-3.3 4.2a22 22 0 0 0-4.2-10.4c-1-1.2-2.1-1.8-3.2-1.8s-3 .6-3.5 4.4c-.5 3.7-3.3 8.5-5.6 11.5.2-7.3-4.4-15.8-4.6-16.2l-1.8-3.4-1.7 3.4a35.6 35.6 0 0 1-24.2 18.5v-63c3.1 1.6 7.3 6.5 11.3 13.4 4.4 7.6 27.2 8 31.7 8h2.4l-.4-2.3c-.8-5-1.1-10.3-.6-12l3.2.7c2.5.6 6 1.5 9.8 1.5a18.5 18.5 0 0 0 18.7-15.8c.7-5.4-1-11.3-4.4-15.4-9.4-11.3-10.9-30.5-4.6-57.3 7.4-31.1 29-33.5 35.5-33.5h1.3l2.2.2v-9.8l-1.5-.4c-.3-.1-7.1-1.9-10.6-9.9-2.4-5.4 1.9-9.5 4.5-11.4a74.3 74.3 0 0 0 20.8 14.9l.8.4.8-.3a34 34 0 0 0 18.7-20.8c1.1-4.8.1-9-3-12.4a16.1 16.1 0 0 0-3.8-3.1c-1.5-.9-3.1-1.7-4.8-2.3-4.6-1.6-9.7-2-14-2-4 0-7.3.4-9 .6a29 29 0 0 1-1.7-6.2l-.3-1.7c-1.1-5.9-1.9-13.1-1.9-15.7.9-1.1 5.6-2.9 8.2-3.9 2.5-1 4.7-1.8 5.9-2.6 2.1-1.4 2.5-3.3 2.8-4.5.2-1.1.3-1.1.7-1.2 1.8-.5 4.5-.8 8-.8a206.7 206.7 0 0 1 51.3 8.6c1.4.9 2.1 5.4 2.1 8.3v3.1l2.8-1.3c1.2-.5 2.7-.8 4.6-.8 2.6 0 5.3.5 6.9.9a65.3 65.3 0 0 1-13.2 21.1c-4.3 4.3-3.8 6.4-2.1 11.3l.6 1.8c1.3 3.8-.4 20.1-3.8 26.7-.9 1.7-1.5 1.9-1.5 1.9-1-.5-.7-2.1.4-5.6 1-3 2-6.2.5-8.7a6.1 6.1 0 0 0-4.3-2.8 19 19 0 0 0-3.8-.5c-8.2 0-10 7.9-11.6 19.1-.6 4.4.3 8.2 2.6 11.2 1.8 2.3 4.1 3.9 6.3 4.9l-2 .1c-5.8 0-9.8-2.6-9.9-2.7l-3.6-2.4.6 4.4c3.2 25.2 13.1 30.5 20.9 30.5 2 0 3.8-.4 5.2-.8-.1.7-.3 1-.3 1l-.3.1-3 2.5c4.1 1.8 7.8 8.2 8.4 11.4-2.3-2.6-5.2-4-8.7-4-3.3 0-5.9 1.3-6 1.3l-4.8 2.4 5.2 1.3c2.4.6 4.5 7.2 7 14.9l1.6 4.8a29 29 0 0 0 12.2 14.8l1 .7c-.8.3-1.7.4-2.6.4-1.4 0-2.8-.3-4.1-.6-1.1-.3-2.2-.5-3.1-.5-1.2 0-2.1.4-2.8 1.1-2.1 2.1 0 5.1 1.7 7.4l1.4 2.1c-2.8-.1-7.1-2.7-8.5-3.8l-2.5-1.8-.1.3-.6 2.7c-4.6 22 9.8 42.8 14.4 48.6 2.2 2.9 4.5 7.5 6.5 12.5 4 9.8 7.1 20.7 7.1 20.8l.3 1 1 .3c35.4 11.6 60.6 38.1 74.7 78.8 7.8 22.5 14.1 24.3 20.9 24.3 4.6 0 7.2-2.3 8.6-4.2 4.8-6.8 3.2-21.4-4.7-43.5-11.7-32.6-24.6-39.4-31.6-43-1.8-.9-3.1-1.6-3.6-2.4-2.9-5-10.1-71.9-5.2-77.7 2.8-3.2 3.5-6.1 4.6-10.9 1.5-6.5 4.2-17.4 14.7-39.6 7.3-15.5 16-26.5 24.3-37.3 12-15.4 23.4-30 28.8-55.2 10.5-49.2-9.9-59.4-16.4-61.3a39.7 39.7 0 0 0-11.3-1.7c-8 0-21.8 2.8-25.2 21.2-4 22.2.8 28.5 14.1 35.1a12 12 0 0 0 5.7 1.4c5.9 0 9.7-4.8 12-8.4 1.2 8.8-.3 16-4.5 21.4-7.5 9.9-21.3 10.8-21.4 10.8l-2.2.1.3 2.1c2.9 21.7-7.2 33.5-16.9 45-6.9 8.1-13.4 15.8-15.1 26.5a56.2 56.2 0 0 0 1.5 28.8A28.8 28.8 0 0 1 354 247c-6.9-21.6 9.6-50.7 9.7-51l2.6-4.6-5 1.7c-5 1.7-8.2 4.4-10.3 6.8.4-6.1 2.3-11 5.7-14.4a25 25 0 0 1 17.1-6.5h1l2.7.2-.6-2.6c-1.8-8.1 2.8-16.5 2.8-16.6l-.7-2-2.7.9a28.5 28.5 0 0 1-15.7 5.5c-3.4 0-8-1-10.4-5.8-2.5-5-1.2-13.2.3-18.4 2.6 8.4 8 9.8 11.3 9.8a20 20 0 0 0 10.7-3.9c5.1-3.6 5.6-12.7 6.4-25.2.4-7.3.9-15.6 2.5-24 3.7-20.5 26.3-26.4 26.5-26.4l1.9-.5-.5-1.9c-.5-1.8.2-4.9 1.2-7.6 1.5 3.4 4.3 7.8 10.4 9a44.4 44.4 0 0 1 28.7 22c2.1 4.1 5.1 8.1 5.2 8.3l2.5 3.4 1-4.1c.8-3 6.9-8.7 11-10.7.8-.4 2-.6 3.5-.6 1.4 0 2.7.2 3.7.5-4.9 3.2-18 11.6-18.1 31.3-1.4 15.5-6.8 34-13.7 52.4-12 32-28.8 63.6-36.9 77.5z" class="st2"/><path id="path17" d="M302 511s-12 1-8 14c1 4 1-5 12-6z" class="st2"/><path id="path18" d="M321.1 554s-2.5 11.8 11.1 11.7c4.1.2-4.5-2.4-2.2-13.2z" class="st2"/><path id="path19" d="M364.7 540.9s3.7 11.4 15.5 4.5c3.7-1.9-5.1.2-8.6-10.3z" class="st2"/><path id="path20" d="M117 355s-19 0-22-15c-1-5 5 5 16-1 0 0-21-3-16-22 0-3 7 5 11 4s-15-4-7-21c2-2 3 1 8 0s6 10 11 9z" class="st1"/><path id="path21" d="M114.5 352.8c-4.3-.4-14-2.2-17-11.2a15.5 15.5 0 0 0 14.4-.8c.8-.4 1.2-1.3 1-2.1-.2-.8-.8-1.5-1.7-1.6-.1 0-9-1.4-13.1-7.5a13.7 13.7 0 0 1-1.6-10.5l1 .6c2.3 1.5 5.1 3.4 7.7 3.4l1.2-.1c1.6-.4 2-1.4 2-2 .2-1.6-1-2.4-2.5-3.3-3.5-2.2-10-6.2-5.4-16.4l.6.2c.9.3 2.1.7 3.8.7l2.4-.2h.2c1 0 2.1 1.9 3.2 3.6 1.3 2.2 2.8 4.6 5.2 5.3l5 .1z" class="st2"/><path id="path22" d="M119.7 351.7s-4.7 1.7-6.2 1S118 319 118 319l5.4-1.7z" class="st2"/><path id="path23" d="M104 118.7s7 3.7 15 0v-5.2s15-3.5 24-.5c4 0-5-18-14-20s-10-6.2-10-6.2-6-3.5-15-.7c0 0-16 2.8-17-14.2-1-9-13-3-19-17s-2-14-6-19c0 0-13 18-16 49-3 30.9-2 60 28 85 0 .1-13-51.6 30-51.2z" style="fill:#7F7F7F"/><path id="path24" d="M71 164.6c-25.8-24.3-25.6-52.5-23-79.4a113.7 113.7 0 0 1 13.9-45.3c.2.6.2 1.2.3 2 .2 2.5.6 6.2 3.9 13.9a19.5 19.5 0 0 0 13.5 11.8c3.6 1.2 5.1 1.9 5.4 4.6.9 15 12.8 16.2 16.5 16.2 1.6 0 2.7-.2 2.9-.2l.3-.1a20.3 20.3 0 0 1 12.9.2c.9 1.7 3.5 5 11.1 6.6 6.1 1.4 12.3 11.7 13.3 15.6a38 38 0 0 0-8-.8 73 73 0 0 0-15.3 1.8 2 2 0 0 0-1.5 1.9v3.8c-1.7.6-3.6 1-5.4 1-3.9 0-6.6-1.4-6.6-1.4l-.9-.2h-.4c-11.6 0-20.4 3.7-26.1 11-9.1 11.3-8.1 28.2-6.8 37z" style="fill:#FFFFFF"/><path id="path25" d="M100 189s-10 2-6 9 0 8 7 9 10 3 12 3 4-4.3 4-11.6-14-10.4-17-9.4z" class="st1"/><path id="path26" d="M112.9 208c-.5 0-1.4-.3-2.4-.7-2.1-.7-4.9-1.7-9.2-2.3-2.3-.3-2.8-.6-3-.7l-.2-1c-.3-1.3-.7-3.4-2.4-6.3-1-1.8-.6-2.7-.5-3 .8-1.8 4.1-2.8 5.2-3.1l.2-.1.9-.1c4.1 0 13.4 2.9 13.4 7.6.1 6.3-1.4 9.2-2 9.7z" class="st2"/><path id="path27" d="M99 172s-10 2-6 9 0 8 7 9 10 3 12 3 4-4.3 4-11.6-14-10.4-17-9.4z" class="st1"/><path id="path28" d="M111.9 191c-.5 0-1.4-.3-2.4-.7-2.1-.7-4.9-1.7-9.2-2.3-2.3-.3-2.8-.6-3-.7l-.2-1c-.3-1.3-.7-3.4-2.4-6.3-1-1.8-.6-2.7-.5-3 .8-1.8 4.1-2.8 5.2-3.1l.2-.1.9-.1c4.1 0 13.4 2.9 13.4 7.6.1 6.3-1.4 9.2-2 9.7z" class="st2"/><path id="path29" d="M100.4 206s-9.2 1.8-5.5 8.2c3.7 6.3 0 7.2 6.4 8.2 6.4.9 9.2 2.7 11 2.7 1.8 0 3.7-3.8 3.7-10.5 0-6.8-12.9-9.5-15.6-8.6z" class="st1"/><path id="path30" d="M112.2 223.2c-.5 0-1.3-.3-2.2-.6-1.9-.6-4.5-1.5-8.4-2.1-2.1-.3-2.6-.5-2.7-.6l-.2-.9a15 15 0 0 0-2.2-5.7c-.9-1.6-.6-2.4-.5-2.7.7-1.6 3.7-2.6 4.7-2.8l.2-.1.9-.1c3.8 0 12.3 2.6 12.3 6.8.1 5.7-1.3 8.4-1.9 8.8z" class="st2"/><path id="path31" d="m263 362 2.2-6.1 1.2-3c.4-1 .9-2 1.6-3 .4 1.2.5 2.4.5 3.5-.1 1.2-.3 2.3-.7 3.3-.4 1.1-1 2.1-1.8 3a5.7 5.7 0 0 1-3 2.3z" class="st1"/><path id="path32" d="M116 91s-3 2-5 2v20s3 2 4 1 1-23 1-23z" style="fill:#DDDDDD"/><path id="path33" d="M294.6 90.4a166 166 0 0 0-17.9-4.3c1.5-3.6 3.1-8.5 1.2-9.1-3-1-4-13-2-19 1-3 0-4.8-1.3-5.8 1.9-.7 4.3-.2 5.8 1.3 3 3 0 7 0 7s6-2 6 4-7 4-7 4c-1 3 1 7 8 9 2.6.7 5.5.9 7.8.8-1 3.2-.9 8.6-.6 12.1z" class="st3"/><path id="path34" d="M297.5 75.1c-3.9-1.7-3-2.9-2-6.6.4-1.5 1.3-1.7 2.4-1.5.4 3.5.4 6.5-.4 8.1z" class="st3"/><g id="g35"><path id="path35" d="m299.5 93-1-.3a231.8 231.8 0 0 0-54.1-9.6h-.9v-.9c-.1-8.3-2.8-26.3-2.9-26.4l-.1-.7.7-.3c3.9-1.8 6.9-2 8.7-.5 1.7 1.3 1.9 3.6 1.9 5.1 1.7-.3 3.2-.4 4.2.5.9.9 1.1 2.4.6 5-.3 1.7-1.2 3-2.4 3.6-.7.4-1.5.5-2.2.6 2.6 2.2 7.7 3.6 13.6 3.6 1.9 0 3.3-.5 4.1-1.5.7-.8.9-1.9.9-2.6-1.6-.1-4.7-.6-6.2-2.5-.8-1-1.1-2.3-.8-3.6.8-4 4.8-5 7.7-4.9-.5-3.6 1.4-5.2 2.3-5.7a6.6 6.6 0 0 1 7.7 1.1c2 2 1.8 4.5 1.1 6.4 1 0 2.3.1 3.3.9 1.2.9 1.9 2.4 1.9 4.5 0 1.9-.6 3.3-1.8 4.3-1.7 1.3-4 1.1-5.4.9-.1.8.1 1.5.5 2.3 1 2 3.5 3.6 7 4.6 4.5 1.3 9.3.8 10.9.1l-.5-.2c-4.8-1.9-4.9-3.3-3.9-6.9l.3-1.3c.3-1 .7-1.7 1.5-2.1 1.3-.7 2.8 0 4 .4l.4.1-.1-.4c-.6-1.9-.3-3.2 2.8-4.8 3.7-1.9 7.4 1 8.7 2.8l.7.8-.9.6c-4.7 3.1-10.1 20-11.8 26.2Zm-54.1-11.9a234 234 0 0 1 52.8 9.3c1.2-4.3 6.2-20.7 11.4-25.6-1.1-1-3.3-2.7-5.6-1.5-2.2 1.1-2.1 1.4-1.8 2.4.1.5.3 1 .3 1.7s-.4 1.1-.6 1.3c-.7.5-1.6.1-2.6-.3-.7-.3-1.9-.8-2.4-.5-.2.1-.4.5-.4.8l-.3 1.3c-.8 2.8-.8 3.1 2.7 4.5 2.1.8 2.2 1.9 2 2.6-.8 2.4-8.5 2.8-13.6 1.3-5.1-1.5-7.3-3.8-8.2-5.6a6 6 0 0 1-.5-4.7l.3-.9.9.3c.8.2 3.3.6 4.7-.4.7-.5 1-1.4 1-2.7 0-1.4-.4-2.3-1-2.8-1.3-1-3.6-.2-3.6-.2l-3 1 1.9-2.6c.1-.1 2.4-3.4.1-5.7-1.3-1.3-3.7-1.7-5.2-.8-1.4.8-1.8 2.5-1.1 4.8l.4 1.5-1.5-.2c-.2 0-6.1-.8-6.9 3.2-.2.8 0 1.5.4 2 1.2 1.5 4.5 1.8 5.6 1.8h.8l.1.8c0 .1.5 2.9-1.3 5-1.2 1.4-3.1 2.2-5.7 2.2-6.3 0-14.5-1.7-16.9-6.6l-1.2-2.4 2.4 1s1.9.7 3.3 0c.7-.4 1.2-1.1 1.4-2.3.5-2.3.1-3 0-3.1-.5-.5-2.8 0-3.7.3l-1.5.4.3-1.5c.2-.9.4-3.6-1-4.7-1.1-.9-3.1-.7-5.9.5.4 3.5 2.4 17.4 2.7 25.1z" class="st1"/></g><path id="path36" d="M299 101v2l-4 3c2-8.6-6.1-14.2-11.8-16.9 7.3 1.6 12.8 3 13.8 3.6 1.3.9 2 5.4 2 8.3z" class="st3"/><path id="path37" d="m301.2 102.4-2.8 1.5c-.8.5-1.6 1.4-2.4 1.9-.8.6-1.3 1.3-2 1.9l-2 2.2c.1-1.1.6-2.1 1.1-3 .6-.9 1.3-1.7 2.1-2.5.8-.7 1.6-1.4 2.6-1.9.9-.6 1.9-1 2.9-1.3z" class="st1"/><path id="path38" d="M219.4 158.7s.2 3.2 7 5.5c0 0 1.3 3.6.7 5.5-.6 1.9 3.4 1.1 3.5-3 .1-4.2-3-6.3-5.2-7-2.3-.8-6-1-6-1z" class="st3"/><path id="path39" d="M247.3 121.2c-4.6-1.6-9.7-2-14-2-4 0-7.3.4-9 .6a29 29 0 0 1-1.7-6.2c2.2 2 5.1 3.4 8.4 3.4a37 37 0 0 1 16.3 4.2z" class="st3"/><path id="path40" d="M241 98s15-8 24 4l-4-7s0-4-12-2c0 0-6 0-8 5z" class="st3"/><path id="path41" d="m265.3 99.9-.2-.6c-1-3-2.2-6.7-7-7.6-1-.2-2.1-.3-3.3-.3-1.7 0-3.3.2-4.8.3l-3.2.2c-.7 0-1.3-.1-1.6-.3a9 9 0 0 1-1.6-1.1c-.8-.6-1.5-1.2-2.5-1.2l-1.2.3-.2.2v.2c.1.1 2 3 3 4l.1.1-.7.5c-1 .5-2.5 1.3-2.5 3.2v1.3c-.1 3.4-.3 9 4.3 10a16.4 16.4 0 0 0 6.5-.3c1.2-.2 2.4-.4 3.5-.4a6 6 0 0 1 3 .7c1.8.9 3.1 1.9 4.2 2.8 1.1.8 1.8 1.4 2.5 1.4.3 0 .5-.1.7-.3 1-.9 2-10.1 1-13.1zm-21 7.2c-1.9-1-3-3.2-3-6.1 0-4.7 4.8-6.7 4.8-6.7l.6-.2c-3.9 5-2.9 11.2-1.9 12.2l.1.2-.6.6zm9.6-.6-2.9.6-2 .5c-1.5-.4-2.4-1.1-2.9-2.3-1.5-3.6 2.1-10 3-11.6 1.3-.2 2.9-.2 4.8-.3.4.9 2.4 6.2 0 13.1zm4.9 2.1-2.4-1.7c.2-2.9.7-9.6-.1-12-.4-1.1 0-1.5.4-1.6h.3c2.6 0 4.7 4.2 6 6.7.8 1.7.7 7.6.1 9.9a9.8 9.8 0 0 1-4.3-1.3z" class="st1"/><path id="path42" d="M234.3 317a56.3 56.3 0 0 1-9.8-27.5l-.2-4.9-.4.5 12.2-20 1 1c-.1-.1-6.8 25.3-2.8 50.9z" class="st3"/><path id="path43" d="m224.2 283.8 3.4-5.2 5.1-9c1.7-3 3.3-6.1 4.8-9.2 1.6-3.1 3-6.3 4.7-9.4-.9 3.4-1.9 6.8-3.2 10l-2 4.9-2.3 4.8a102.8 102.8 0 0 1-11.6 17.7z" class="st1"/><path id="path44" d="M306.4 332.2c-4-5-9.2-10.5-15.4-16.2-20-18-18-57-15-55l10 7 .1.4-.6 2.7c-4.6 22 9.8 42.8 14.4 48.6 2.3 2.9 4.5 7.6 6.5 12.5z" class="st3"/><path id="path45" d="M307.5 388s6.2-1 5.5 17c-.7 18 .7 27-2.8 27s-9-19-11.7-28c-2.7-9 5.6-18 9-16z" class="st3"/><path id="path46" d="M354.4 474.9c-1.5 1.5-3.3 3.2-2.8 5.9.8 4.7-1.2 23.3-2 30.3-2.9-6.8-6.5-39.1-6.5-39.1 7.3 1.3 12.9-6.2 15.8-11.4 1 9-2.2 12-4.5 14.3z" class="st3"/><path id="path47" d="M198 479s-10 9-14 10-13 12-11 15 23-18 28-20 6-12-3-5z" class="st3"/><path id="path48" d="M132 331s-3 8-8 10 2 9 8 2 4-16 0-12z" class="st3"/><path id="path49" d="M123.9 225.3c-1.5 0-3.8.4-4.9.7v-41c.1-1.2.3-2.7 0-4.3 1 1.4 2 3.2 2 5.3 0 4 3.3 26.9 2.9 39.3z" class="st3"/><path id="path50" d="M119 298v12h4s-3-5-4-12z" class="st3"/><path id="path51" d="m115 309 1.8.2 1.7.2 3.5.3 3.5.2 3.5.1a21.9 21.9 0 0 1-10.7.8c-1.2-.2-2.4-.6-3.5-1.2z" class="st1"/><path id="path52" d="M183.9 527s-6 9-.9 10 7.7-2 6-9c-1.6-7-5.1-1-5.1-1z" class="st3"/><path id="path53" d="M151.3 519.8s-8.7 6.4-4.2 9.1c4.5 2.7 7.9.7 8.7-6.4.8-7.2-4.5-2.7-4.5-2.7z" class="st3"/><path id="path54" d="M141.6 485.5s-10.8.5-8.6 5.2c2.2 4.7 6.2 5 10.8-.5 4.7-5.5-2.2-4.7-2.2-4.7z" class="st3"/><path id="path55" d="M365.8 525.3s-.6 10.8 4.3 9c4.9-1.8 5.6-5.6.6-10.8-5-5.2-4.9 1.8-4.9 1.8z" class="st3"/><path id="path56" d="M333 544.6s-4.2 10 1 10 7.2-3.4 4.2-10-5.2 0-5.2 0z" class="st3"/><path id="path57" d="M313.7 517s-10.8-.7-9.1 4.2c1.7 4.9 5.6 5.7 10.8.7 5.2-4.9-1.7-4.9-1.7-4.9z" class="st3"/><path id="path58" d="M413.5 268.5C404 282 400.1 294.4 395 288c-8-10 8-52 19-65 6-7 19.6-30.9 30.8-51.2a572.1 572.1 0 0 1-37 77.7c-10.2 17.4-9.3 26.8-9.3 27.2l.8 6.7 3-6.1c2.1-4.1 6-6.7 11.2-8.8z" class="st3"/><path id="path59" d="M429.4 296.8c-10.3 9.5-22.8 21-23.4 19.2-.3-.8 0-2.3.5-3.9v1.1l3.6-4.5c2.1-2.6 11-7.6 19.3-11.9z" class="st3"/><path id="path60" d="M434.9 322.5c-10 5.5-21.9 12.1-21.9 9.5 0-1.4.7-3 1.6-4.7l3.1-2.2c5.5-3.9 8.2-4.4 10-4.4 1.6 0 3.1.5 4.9 1l2.3.8z" class="st3"/><path id="path61" d="M413.2 485.1c-.8.5-1.5.8-2.2.9-1.6.4-.5 0 2.2-.9z" class="st3"/><path id="path62" d="M434.5 450.4c-.5 11.7-4.9 18.1-10.2 21.8 6.6-12.8 10.5-35.1-.3-69.3-8.3-26.1-8.3-40.1-6-47.5l-.5 2.7c-1.6 9.4 2.9 26 7.7 43.6 4.8 17.7 9.8 36 9.3 48.7z" class="st3"/></g><!-- app4joy --></svg>