<svg id="레이어_1" x="0px" y="0px" width="850.39px" height="566.93px" viewBox="0 0 850.39 566.93" xml:space="preserve" xmlns="http://www.w3.org/2000/svg"><g id="g1611"><path fill="#FFFFFF" id="rect2" d="M0 0h850.4v566.9H0z"/><circle fill="#d9241d" cx="425.19501" cy="283.46399" r="144.194" id="circle4" style="display:inline"/></g><g id="g12" style="display:inline"><g id="g10" fill="#29176e"><path d="M551.9 314c1-31.2-14-60-17.3-66.1-28.3-53.4-95.6-55.6-99.8-55.4-40 1.2-59.5 29.4-59.2 52.3a35.7 35.7 0 0 0 34.8 36.8c47.5.5 62.3 17.2 62.3 45.5 0 15.6-14 48-60 48-61 0-111.4-48.4-111.4-119.7a133 133 0 0 1 20.2-72.1 144.2 144.2 0 1 0 215 191.8c12.7-27 14.6-35.6 15.4-61.2" id="path8"/></g></g><g id="g1580" style="display:inline" fill="#29176e"><path transform="rotate(40.5 221 108.2)" id="rect14" d="M211.2 58h19.7v100.4h-19.7z"/><path transform="rotate(-49.5 269.2 149.4)" id="rect16" d="M219 139.6h100.5v19.6H219z"/><path transform="rotate(40.5 245.2 128.8)" id="rect18" d="M234.9 78.6h20.6V179h-20.6z"/></g><g id="g1587" style="display:inline" fill="#29176e"><path transform="rotate(139.5 629.3 108.2)" id="rect20" d="M619.5 58h19.6v100.4h-19.6z"/><path transform="rotate(229.5 581.1 149.4)" id="rect22" d="M530.9 139.6h100.5v19.6H530.9z"/><g id="g28" style="display:inline"><path id="polygon24" d="m564.7 97.3 29.1 34.1 15.7-13.4-29.1-34.1z"/><path id="polygon26" d="m630 173.7 15.7-13.4-29.1-34-15.7 13.3z"/></g></g><g id="g1607" style="display:inline" fill="#29176e"><g id="g40" style="display:inline"><path id="polygon36" d="m225 448.2-29.1-34.1-14.9 12.8 29 34z"/><path id="polygon38" d="m217.1 469.2 29.1 34.1 15-12.8-29.1-34.1z"/></g><path transform="rotate(-40.5 245.2 438.1)" id="rect42" style="display:inline" d="M234.9 387.9h20.6v100.4h-20.6z"/><g id="g48" style="display:inline"><path id="polygon44" d="m273.2 407-29.1-34-15 12.8 29.2 34z"/><path id="polygon46" d="m280.3 415.3-15 12.8 29.1 34 15-12.8z"/></g></g><g id="g1598" style="display:inline" fill="#29176e"><g id="g34" style="display:inline"><path id="polygon30" d="m592.2 419.8 29.1-34-15-12.8-29.1 34z"/><path transform="rotate(-49.5 563 438.7)" id="rect32" d="M540.7 428.8h44.8v19.7h-44.8z"/></g><g id="g54" style="display:inline"><path transform="rotate(-49.5 587.1 459.2)" id="rect50" style="display:inline" d="M564.7 449h44.9v20.6h-44.9z"/><path id="polygon52" d="m616.7 440.6 29-34-15.7-13.3-29 33.9z"/></g><g id="g60" style="display:inline"><path id="polygon56" d="m654.4 414.1-28.9 34 15 12.7 28.9-33.9z"/><path transform="rotate(-49.5 611.2 479.8)" id="rect58" d="M588.8 470h44.8v19.7h-44.8z"/></g></g><!-- app4joy --></svg>