<svg width="360" height="216" id="svg2" viewBox="0 0 360 216" xmlns="http://www.w3.org/2000/svg"><g id="g25233" transform="translate(-210 -433.8)"><path id="path2095" d="M210 541.8v-108h360v216H210z" style="display:inline;fill:#ff0000"/></g><g id="g25200" style="display:inline" transform="translate(-205.7 -441.5)"><path id="path2093" d="M417.7 610.5c0-.6-11.5-1-32.5-1s-32.5.4-32.5 1 11.5 1 32.5 1 32.5-.3 32.5-1" style="display:inline;fill:#ffffff"/><path id="path2091" d="M412.7 606c0-1.3-3.7-1.5-27.5-1.5s-27.5.2-27.5 1.5 3.7 1.5 27.5 1.5 27.5-.2 27.5-1.5" style="fill:#ffffff"/><path id="path2089" d="M407.7 601c0-1.3-3.2-1.5-22.5-1.5s-22.5.2-22.5 1.5 3.2 1.5 22.5 1.5 22.5-.2 22.5-1.5" style="fill:#ffffff"/><path id="path2087" d="M402.7 596.5c0-1.2.3-1.2-17-1.2-17.8 0-18 0-18 1.2 0 .6 6.5 1 17.5 1a64 64 0 0 0 17.5-1" style="fill:#ffffff"/><path id="path2085" d="M397.7 592c0-1.2-2-1.5-12.5-1.5s-12.5.3-12.5 1.5c0 1.3 2 1.5 12.5 1.5s12.5-.2 12.5-1.5" style="fill:#ffffff"/><path id="path2083" d="M375.5 576.8c-2.2-14.2-2.7-26.8-1-28.4.8-.9.6-1.6-.9-3.2a7 7 0 0 1-1.9-3.9q-.1-1.7-3.4-3.2c-1.9-.8-4-2.4-4.5-3.5-1.1-2-.5-7.2.8-6.8.3.1 1.7-.6 3-1.5 2.2-1.5 2.3-1.8.7-2.4-1-.4-4.2-.4-7.3 0-4.2.3-6.3 1.1-8.2 3l-2.5 2.6h3.2q3.2-.1 5.3-2c1.1-1.2 2.3-1.9 2.7-1.6.3.3-.7 1.7-2.3 3.2-2 1.9-3.6 2.5-6.2 2.2-3.2-.2-3.7 0-6.4 4.7-6 10.4-6.9 12.5-6.9 17 0 5.3 1.3 5.8 3 1.3 2-5.4 2.6-6.2 5.5-7q2.8-.6 5.6.8 4.6 2.4 3.6.7c-.2-.5.9-1.8 2.4-3.1 3.4-2.8 3.8-1.8.7 1.5-2.2 2.4-1.9 3.3 1.4 4.5a23 23 0 0 1 2.7 7.3c4.3 15.5 9.6 29.5 11.2 29.5s1.4-1.1-.3-11.7" style="fill:#ffffff"/><path id="path2081" d="M350.4 539c-.9-1 .4-3.5 1.8-3.5q1.2.1.8 2-.8 3-2.6 1.4" style="fill:#ff0000"/><path id="path2079" d="M381.7 577.3c-.2-9-.6-12-2-14.3-1-1.6-2.4-5-3.1-7.5-1.3-4.4-1.3-4.4-1.7-1.4-.1 1.7.6 9.7 1.8 17.8l2 15.6q.1 1 1.6 1c1.3 0 1.5-1.7 1.4-11.2" style="fill:#ffffff"/><path id="path2077" d="M387.7 577.4c0-7-.3-10.8-1-10.4q-.9.5-1-.4.1-1 1-1.6c.6-.3 1-2.3 1-4.4 0-6.6 2.6-13.4 6-15.4 1.5-1 3-2.7 3.2-3.9q.4-2.2 4.3-4.2c2.2-1.2 4.1-3 4.3-4 .5-2.3-3.7-6.8-5.7-6a2 2 0 0 1-2.3-.8q-.7-1.6-1.9.5a16 16 0 0 1-5.8 4.1l-4.7 2.5-4.5-2.5c-2.4-1.4-5-3.3-5.7-4.2q-1.3-2-2-.4a2 2 0 0 1-2.3.7c-.8-.3-2.5.5-3.8 1.9q-4.4 4.8 2.7 8.3 3.6 1.8 4 4.1c.2 1.4 1.7 3.2 3.7 4.3 4 2.4 4.5 3.5 5.2 11.9.3 3.6 1 7 1.6 7.8q1 1.2-.2 1.2-1-.1-1 11v11h4.9z" style="fill:#ffffff"/><path id="path2075" d="M374.2 536.5c-1.7-2-1.7-2 .1-2 1 0 2.5.4 3.2.9 1 .6 1 1 0 2-1.2.8-1.9.7-3.3-.9" style="fill:#ff0000"/><path id="path2073" d="M392.8 537.1c-1.3-1.5.4-2.6 4.1-2.6 2 0 2 0-.2 2-2.7 2.4-2.5 2.3-3.9.6" style="fill:#ff0000"/><path id="path2071" d="M392.2 584.4c2.1-12.4 4-29.9 3.4-32-.5-2.1-.7-2-1.4 1.6-.4 2.2-1.6 5.6-2.6 7.5-1.4 2.7-1.9 6.1-2.1 15.3-.2 8.4 0 11.7.9 11.7.6 0 1.5-1.9 1.8-4.1" style="fill:#ffffff"/><path id="path2069" d="m397.1 587.3 5.5-16.8c2.8-8.5 5.1-16.3 5.1-17.2q.1-1.6.8-1.8a5 5 0 0 0 2.2-1c1.2-.7 1-1.3-1-3.4-3.3-3.6-2-4.1 1.6-.7 2.7 2.6 3.1 2.7 5.5 1.5 3-1.5 7.8-.6 9 1.7l2 4.7c1.7 4.6 3 4 3-1.4 0-3.7-1-6.5-4.6-13-4.2-7.7-4.9-8.4-7.6-8.4-3.2 0-6.4-1.4-8.7-3.7-2.4-2.3-.3-2.8 2.1-.5a9 9 0 0 0 5.3 2.2h2.9l-2.7-2.7c-2-2-3.9-2.7-8.2-3a25 25 0 0 0-7.2.1c-1.5.6-1.3 1 1.3 2.6 1.7 1 3.4 2.7 3.8 3.8.9 3-1.3 6.7-4.6 8-1.6.5-3.2 1.9-3.5 2.9-.4 1-1.6 2.8-2.7 4q-1.7 2.1-1 2.3c2.4 0 2.6 9.1.4 23.4-1.1 7.8-2 15-2 15.9 0 2 2.8 2.4 3.3.5" style="fill:#ffffff"/><path id="path2067" d="M417.7 537.5c0-1 .4-2 1-2 1 0 2 2.6 1.3 3.4-1.2 1.2-2.3.6-2.3-1.4" style="fill:#ff0000"/><path id="path2065" d="M356.5 585.8q.2-1.2-1.2-1.3c-2.1 0-3.5-3.7-4.6-12.7-1-8.2-3-12.2-4.8-10-.8 1-.7 2.4.3 5.3a27 27 0 0 1 1.5 6.5c0 3.2 1.8 8.6 3.8 11.7 1.6 2.4 4.2 2.6 5 .5" style="fill:#ffffff"/><path id="path2063" d="M420 583.3c1-2 2.3-6.5 2.8-10 .6-3.4 1.7-7.3 2.4-8.5 1.3-1.9 1.2-2.2-.2-2.8q-1.6-.6-3 1.1c-1.4 2-1.4 2.2-1.7 7.4-.3 6.1-2.8 13.2-4.8 13.8q-2.9.8-1 2.6c1.4 1.5 3.8 0 5.5-3.6" style="fill:#ffffff"/><path id="path2061" d="M340.2 563q4.9-2.2 10.4-10.2c2.4-3.5 2-4.4-2.1-3.6q-2.9.5-2.8 2.7c0 4.2-4.6 9.3-11 12.3l-2.5 1.3 2.5-.6a36 36 0 0 0 5.5-1.9" style="fill:#ffffff"/><path id="path2059" d="M435.7 564.2q-8.5-4-10.1-10.3c-.9-3.4-1.6-4.3-3.7-4.7-3.6-.7-3.9-.2-1.7 3.6a24 24 0 0 0 14.5 12c2.8 1 3.5.5 1-.6" style="fill:#ffffff"/><path id="path2057" d="M380.5 555.8c-1.2-6.8-3.2-10-2.5-3.8.5 3.9 2.3 9.5 3 9.5.2 0 0-2.6-.5-5.7" style="fill:#ffffff"/><path id="path2055" d="M392.2 555.3c.7-2.5 1-5 .5-5.7-1-1.8-1.6-.4-2.5 6q-1.1 9.3 2-.3" style="fill:#ffffff"/><path id="path2053" d="m392.6 527 4.4-3.5h-5.6c-5 0-5.6-.2-6-2.2l-.4-2.3-.1 2.3c-.2 2-.7 2.2-5.2 2.2h-5l2.2 2.4c5.5 5.6 9.6 6 15.7 1.1" style="fill:#ffffff"/><path id="path2051" d="M410 517c.6-1.3-2.5-1.5-24.3-1.5-21.5 0-25 .2-25 1.5s3.4 1.5 24.4 1.5c20.8 0 24.5-.2 25-1.5" style="fill:#ffffff"/><path id="path2049" d="M405.7 512c0-1.3-3-1.5-20.5-1.5-17.7 0-20.3.2-19.8 1.5s3.7 1.5 20.4 1.5c17 0 20-.2 20-1.5" style="fill:#ffffff"/><path id="path2047" d="M400.7 507c0-1.3-2.4-1.5-15.5-1.5s-15.5.2-15.5 1.5 2.4 1.5 15.5 1.5 15.5-.2 15.5-1.5" style="fill:#ffffff"/><path id="path2045" d="M395.7 502.6c0-.5-1.4-1.1-3.1-1.5-6.5-1.3-17.9-.3-17.9 1.5 0 .5 4.7 1 10.5 1s10.5-.5 10.5-1" style="fill:#ffffff"/><path id="path2043" d="M390.7 497.5c0-.5-2.5-1-5.5-1s-5.5.5-5.5 1 2.5 1 5.5 1 5.5-.4 5.5-1" style="fill:#ffffff"/><path id="path2041" d="M386.7 493q-.1-1.4-1.5-1.5-1.3.1-1.5 1.5.2 1.4 1.5 1.5 1.4-.1 1.5-1.5" style="fill:#ffffff"/><path id="path2037" d="M385.3 487.8q-.6-.5-.5 1.3t.6.6q.4-1.2 0-2" style="fill:#ffffff"/></g><!-- app4joy --></svg>