<svg id="svg29" width="970.33" height="648" overflow="visible" viewBox="0 0 970.33 648" xmlns="http://www.w3.org/2000/svg"><path id="rect7358" d="M0 0h970.3v648H0z" fill="#ba0e09"/><path id="rect9530" d="M420.3 0v259.1H0V389h420.3v259H550V388.9h420.2V259H550.1V0z" fill="#ffbf00"/><path id="path5274-8-9-61" d="M202.5 91.8v30.4h-29.7v15.1h29.7v29H218v-29h29.7v-15.1H218V91.8z" fill="#ffbf00"/><path id="path5278-7-2-9" d="M210.7 83.2c-25.6 0-46.3 20.5-46.3 45.8s20.6 46 46.3 46a46 46 0 0 0 46.3-46 46 46 0 0 0-46.3-45.8m0 10c20 0 36.2 16.1 36.2 35.9s-16.2 35.8-36.2 35.8-36.2-16-36.2-35.8 16.2-35.8 36.2-35.8" fill="#ffbf00"/><path id="path5274-8-9-6-3" d="M100 28.4v30.3H70.4V74H100v29h15.5V74h29.7V58.7h-29.7V28.4z" fill="#ffbf00"/><path id="path5274-8-9-6-8-6" d="M304.8 28.4v30.3h-29.7V74h29.7v29h15.5V74H350V58.7h-29.7V28.4z" fill="#ffbf00"/><path id="path5274-8-9-6-1-4" d="M100 157.2v30.4H70.4v15.1H100v29h15.5v-29h29.7v-15h-29.7v-30.5z" fill="#ffbf00"/><path id="path5274-8-9-6-5-8" d="M304.8 157.2v30.4h-29.7v15.1h29.7v29h15.5v-29H350v-15h-29.7v-30.5z" fill="#ffbf00"/><path id="path5274-8-9-61-7" d="M752.6 91.8v30.4h-29.7v15.1h29.7v29H768v-29h29.6v-15.1H768V91.8z" fill="#ffbf00"/><path id="path5278-7-2-9-3" d="M760.8 83.2c-25.6 0-46.4 20.5-46.4 45.8s20.8 45.9 46.4 45.9A46 46 0 0 0 807 129a46 46 0 0 0-46.3-45.8m0 10c20 0 36.1 16.1 36.1 35.9s-16.2 35.8-36.1 35.8-36.2-16-36.2-35.8 16.2-35.8 36.2-35.8" fill="#ffbf00"/><path id="path5274-8-9-6-3-1" d="M650 28.4v30.3h-29.6V74h29.7v29h15.5V74h29.6V58.7h-29.6V28.4z" fill="#ffbf00"/><path id="path5274-8-9-6-8-6-6" d="M854.9 28.4v30.3h-29.7V74h29.7v29h15.5V74H900V58.7h-29.6V28.4z" fill="#ffbf00"/><path id="path5274-8-9-6-1-4-9" d="M650 157.2v30.4h-29.6v15.1h29.7v29h15.5v-29h29.6v-15h-29.6v-30.5z" fill="#ffbf00"/><path id="path5274-8-9-6-5-8-7" d="M854.9 157.2v30.4h-29.7v15.1h29.7v29h15.5v-29H900v-15h-29.6v-30.5z" fill="#ffbf00"/><path id="path5274-8-9-61-0" d="M752.6 480.7V511h-29.7v15h29.7v29.1H768v-29h29.6V511H768v-30.4z" fill="#ffbf00"/><path id="path5278-7-2-9-2" d="M760.8 472c-25.6 0-46.4 20.6-46.4 46s20.8 45.7 46.4 45.7A46 46 0 0 0 807 518a46 46 0 0 0-46.3-45.8m0 10.2c20 0 36.1 16 36.1 35.8S780.6 554 760.7 554s-36.2-16-36.2-35.8 16.2-35.8 36.2-35.8" fill="#ffbf00"/><path id="path5274-8-9-6-3-9" d="M650 417.3v30.3h-29.6v15.2h29.7v29h15.5v-29h29.6v-15.2h-29.6v-30.3z" fill="#ffbf00"/><path id="path5274-8-9-6-8-6-5" d="M854.9 417.3v30.3h-29.7v15.2h29.7v29h15.5v-29H900v-15.2h-29.6v-30.3z" fill="#ffbf00"/><path id="path5274-8-9-6-1-4-1" d="M650 546.1v30.4h-29.6v15.1h29.7v29h15.5v-29h29.6v-15.1h-29.6V546z" fill="#ffbf00"/><path id="path5274-8-9-6-5-8-8" d="M854.9 546.1v30.4h-29.7v15.1h29.7v29h15.5v-29H900v-15.1h-29.6V546z" fill="#ffbf00"/><path id="path5274-8-9-61-8" d="M202.5 480.7V511h-29.7v15h29.7v29.1H218v-29h29.7V511H218v-30.4z" fill="#ffbf00"/><path id="path5278-7-2-9-6" d="M210.7 472a45.9 45.9 0 1 0 0 91.7A46 46 0 0 0 257 518a46 46 0 0 0-46.3-45.8m0 10.2c20 0 36.2 16 36.2 35.8S230.7 554 210.7 554s-36.2-16-36.2-35.8 16.2-35.8 36.2-35.8" fill="#ffbf00"/><path id="path5274-8-9-6-3-3" d="M100 417.3v30.3H70.4v15.2H100v29h15.5v-29h29.7v-15.2h-29.7v-30.3z" fill="#ffbf00"/><path id="path5274-8-9-6-8-6-3" d="M304.8 417.3v30.3h-29.7v15.2h29.7v29h15.5v-29H350v-15.2h-29.7v-30.3z" fill="#ffbf00"/><path id="path5274-8-9-6-1-4-0" d="M100 546.1v30.4H70.4v15.1H100v29h15.5v-29h29.7v-15.1h-29.7V546z" fill="#ffbf00"/><path id="path5274-8-9-6-5-8-1" d="M304.8 546.1v30.4h-29.7v15.1h29.7v29h15.5v-29H350v-15.1h-29.7V546z" fill="#ffbf00"/><!-- app4joy --></svg>