<svg xmlns="http://www.w3.org/2000/svg" id="svg4" width="900" height="600" version="1.1" viewBox="0 0 900 600"><g id="g5"><path id="path1" fill="#fff" d="M0 600V0h900v600z" style="display:inline"/><path id="path2" fill="#38a100" d="M900 600V0L0 600Z" style="display:inline"/><path id="path4" fill="#087bce" d="M0 600 900 0v192L0 792Z" style="display:inline"/></g><g id="g4"><path id="path3" fill="#9c4a08" d="M236.7 324.7c10.3 5.3 19.8 8.3 26.8 3.6 10.3-7-4-32.1-16.6-49.2-12.6-17-29.2-55-13.2-65.7 16-10.7 38 6.4 44.6 33.6 2.9 11.8 10.3 27.3 25.2 24.1 14.8-3.2 13.8-24.2 5.6-46.5a147.7 147.7 0 0 0-77-79.1l12.3-21.7c13 3.3 27.1-2.1 33.7-13.7a26.7 26.7 0 0 0-12.3-37.3A30.5 30.5 0 0 0 226 84.3a26.4 26.4 0 0 0 6.9 33.8l-13 22.9a139 139 0 0 0-22.2-5c.2-3.8.3-7.3-1.1-7.3-3.3 0 0-14.4-2.5-14.4s.8-14.8-2.3-14.8c-3 0 1.5-14.4-1.5-14.4s-.3-15.5-2.8-15.5-.8-14-3.8-14-.3-10.6-7.6-10.6c-7.4 0-4.7 10.7-7.6 10.7-3 0-1.4 13.9-3.9 13.9-2.4 0 .3 15.5-2.7 15.5s1.5 14.4-1.6 14.4c-3 0 .2 14.8-2.3 14.8-2.4 0 .9 14.4-2.4 14.4-1.5 0-1.5 3.1-1.3 6.7-8.2.7-15.8 2-23 3.7l-19.7-34.8 33.1 2.6-68.2-51.2 7.1 81.4 16.4-27 18.7 32.8c-41.1 14.5-60.2 46.5-71.7 87.6-3 11.2-4.2 28.8 8 31.9 11.4 2.7 19.8-6.6 25-18.5 12.3-29 30.5-43.6 45.7-35.3 15.8 8.6 9.2 40.2-9.7 61.5-20.8 23.5-43.4 67.4 3.2 48.3L82 383.7c-4.1 7.3 7.5 12.8 11.5 5.6l45.2-79.4c9-3.7 19.6-7 31.6-7.5v84.2c0 8 11 8.3 11 0v-83.9c10.1 1 21.4 4 33.7 10.2l43.6 76.8c4 7 15.7 1.7 11.6-5.7z" style="display:inline"/></g><!-- app4joy --></svg>