<svg width="566.228516" height="339.458984" preserveAspectRatio="xMidYMid slice" viewBox="0 0 566.228516 339.458984" id="svg5" xmlns="http://www.w3.org/2000/svg"><g id="g6"><path d="M0 339.5h566.2V0H0z" id="path1" style="fill:#de192a"/></g><g id="g5"><path d="M316.7 224h-.8zm76.3 60.2c1.7 1.5 3.9 9 2 12.6-2.6-1.7-5.5-1.4-6.7 1.4-.7 1.7-.9 5-1 5s1.5 3.7 1.4 5h-20c0-1.6 1.2-3.5 2.7-5.3h-11.8c-.3-2.2 6.2-8 8.5-8.8h.6-.7l.4-.6 1.4-2.2q2.2-3.1 2.8-5.8c1.6-11-3-27.6-12.3-34.7l-2.9-2.2 2.9 1.2c-10.3-4.4-24.5-10.5-26.7-13.8l-5-8.4a63 63 0 0 1-8.2 1c-1-.3-4-4-4.5-4.5l-12.2 1.4-4.8.7-.4 33.6-6 4.7-5.4-4.8v-32.1c-9.2 1-20.2 2-27.9 1.8l-6.7-.1.4-.3a30 30 0 0 0-6.7 8.3l-3.9-1.4-4.6-1.7q.3-2.3 1.5-4.2l.9-1.2a3 3 0 0 0 1-3.3h-.1a3 3 0 0 0-2.9-2.2l-.8.2 21.7-30.7a11 11 0 0 1-.6-4.8 17 17 0 0 1 9.6-4.9v-.7c2.1-7 10.1-19 15.3-23-3.3-1.4-5.4-4.4-6.3-5.5l9.7-13 .5-2.6 12.8-.7 4-.4q4.6-.8 4.5-3.7 0-1.6-1.7-1.5l-3.5.4c-5.5.6-12.2.7-16 .7V89.3l.6.4-.1-2s2.2.7 3.8.7c5.3 0 7-4.4 8.5-9l.2-.9q0-1 1.2-1.3H300s-.8 0-.5-.6l.6-1.7c.5-2.8 1.6-3.9 1.6-3.9h-5.6l6-12.7 2.5 2.4v-.2c2.3-2 6.9-4.2 11.2-4.9 4.2 3.7 8.8 8.2 10.1 13.4q.4 2.2-.4 4.5c-.5 2-1.2 4 1.1 5.8l-1.9.5h.2c.7 7.6 8.4 8.2 12 8.2v1c3 .3 7.3 2.6 8.9 5.3h-31q-.4 6.3-.6 13.1-.1 10.5 1.5 20.2a54 54 0 0 0 2.6 9.3l.2.5q-2.4 1.9-4.9 3.5a65 65 0 0 1 7.9 19.2h-5c-.2 4.8-6.9 11.3-13.5 12.3v6.8c0 1.8 0 5.7-2.9 6.1h-.8v9l29.3.5.2.3c0 9.2.6 12.1 5 16.6l3-.4.7-3c-2.6-1.8-3.7-5-4-13.3 2.7 0 6 .1 11.6 1l.2.5c-.1 9.7 1.4 13.5 4.6 16.6l3 .7 1.3-3.2c-3.2-3-4.1-6-4.1-13.6a86 86 0 0 1 24.8 12.3c.3 8.8-2.9 17-2.5 23.5.2 5 2.6 6.9 11.5 14.9 3.1.5 4.7 3.3 6 5.6 1.3 2.4 1.6 2.1 1.6 9.6s-.4 14.4 1.4 21.2M268.2 54.5 364 52l3.9-4.4-4.8-4.7-95-.3c-.5 1.6-.5 4.2 0 6a24 24 0 0 0 0 6m-14.3-14.4c0 2 1.1 2.5 2.1 2.9-1-.4-2-.9-2-3M283 87.6l4.1 1.8v18.1c-2-1.1-14.5-8.5-16.5-10.1l-.1-.1v2.1l-8.6-3.6L260 87h1.2c4.9 0 9.3-2.7 13-5.5-3.7 2.7-8 5.5-12.8 5.6l-.3-.4-3-5.8a71 71 0 0 1-4.9-9.8h-8.7s3.5-9.6 5.8-13.3a8 8 0 0 1-4.5-3.2c-1-1.8-.3-2.6-.3-2.6l5.6-.1V50l-1-.1c-1.8-.8-4.3-2.4-5.5-4.1 2.1-4 6.4-5.2 9.1-5.8l.6-1 7.4 1.3q-.9 4-1 8.5c0 9.2 3.6 16.5 8.8 20l.1 2.1H267c2 2.2 7.3 10.3 7.3 10.3h.1l1-.3c1 0 2 .9 2.4 1.7q.6 1.1 0 1.9l-.2.2.4.4c1.2 1 3.2 1.6 5 2.3m-63-12.7-10.5-3.5.2-2.4 2.2 1-.3-.2.6-2.9c4.2 2 9.2-.8 13.6.7 2.6.8 3.9 2.7 4.2 4.6 20.8 7.9 37.6 27.3 38.2 60.5l-7.7-.6a210 210 0 0 1-40.7-8c1.2-4.1 2-8 .9-11.9l-1 .2c-5.6.4-8.7-2.6-9.3-2.4l-2.7 1.3-2.3-2.7c5.2-3.4 14.5-10.2 20.2-14.3 2.3 3.7 4.3 8.9 3.7 13.8a17 17 0 0 0 3.5-4.3c-.1-1.7-.6-3.9-1-5.3q-1-4.1-2.7-6.8c3.5-2.5 7.2-6.5 7-11.3l-3.7-2.6c.6 3.6-1.3 6.7-6 10.2-2.9-3.8-7.6-9-11.8-10.3q2.6-1.5 5.3-2.8m-27.6 20c3-3.1 10.7-8.7 12-10.3l.8-.9q1-1.5 2-2.2a6 6 0 0 1 6.6 0c2.6 1.4 6.5 5.5 9.2 9-6.3 4.6-17.1 12-20 14a37 37 0 0 0-10.6-9.7m-7 15 .3-.4v.8q-.9 0-1.5.7c-1.2 1.6.2 5.8.2 5.8l1.7.3c1.1 0 1.5-.7 1.5-1 .4-2 .8-2.7 1.7-3.4 2-1.5 3.5-1.6 5.5-1.8 3-.3 3.7-1.3 4.2-2q.4-.5.5-.9v-.3l-.8-1q-4-5.5-9.3-9.1l-2.7 2.3c-2.5 1.8-4.4 4-3.4 10.4 0 0 1.2.3 2-.4m6.8 9 .9-.3-.8-1.6.4-.1a17 17 0 0 0 7.1-5v-.1c.8-.8 2-1 2.5-1h.2l2.2 2.8c-1 1-2 2-2.6 3.2a8 8 0 0 1-2.5 3.2c-1 .7-3.5 1.6-5.3 1.6q-1.4 0-2-.7-.4-.6-.4-1.6v-.2zm61.7 41.8a19 19 0 0 1 4-10q1.5-6.5 2.3-12.3a250 250 0 0 1-44.2-5.2c-2.7 4.9-6 9.2-8.2 12.6-5.5 7.8-9.8 15.6-10.7 17.3 10.8-3.6 34.7-6.5 56.8-2.4m13.9-14.8q.5-3.7.6-7.3l-8.2-.2q-.7 6-2.2 12.3c2.4-2.7 6-4.5 9.8-4.8m-115.4 45.6-1.2-.3q-2.5.2-3.7 2.4-1 2 .7 4zm102.3-15.8-19 40.2L230 226c-5.1-1-13.7-4-13.7-4s-3.8 3.3-6.7 4.2a53 53 0 0 1-26.1-25.8c-1.7-4.2-5.2-6.5-8.7-8.4-1.6-1-7.2 0-9.9 2.1-3 2.5-6.5 7.6-7.3 8.8-.7.9.5 5.8.5 8.4 0 1.2-1.8 4.5-2.7 4-3.8-2.2-6.3 1-7 2.7-.2.9.8 2.6 1.2 3a17 17 0 0 1 3 3.2L138 237c-2.1-2.7-1.8-10.2-.7-14.5a23 23 0 0 1 3.3-14.4l-12.6 5.8c-1.6-3 4.2-13.7 4.2-13.7.5-1.4 3-8.8 6.4-13.8 5.1-7.4 32.8-16.6 32.8-16.6a16 16 0 0 1 13.9 3l5.5 6.4c-.4 3.2-.4 7-.3 7.7h-.1.1v-4.7a117 117 0 0 1 64-6.7M214.7 243s5.6-4.5 11.3-3.7l5.3-7.8c-7 0-24 8.8-16.6 11.5m23-4.7.1.1m1.8 4 5 1.5.6-2.6-7.3-2.7q.5 2 1.7 3.9m94.3-52c1.2.1 8 .6 11.7 1.2.4-9.5-1.9-15.5-6.1-20.3-5.4-.6-11.9-.8-11.9-.8q6 7.7 6 19.7zm-22.2-7.2-7.3 6.4 24.7.6c.1-9.1-1.9-12.4-4.5-16.5q-5.4 6.5-13 9.5m95.5 17c1.5-.5 4.2-.7 4.2-.7s-3 6.4-8.2 9.5q-3.5 2-7.7 1.9c-4.2 0-8.7-1.6-12.3-4.3a21 21 0 0 1-7.9-12l-6.7-3.7q-.2.6.4 1.6 3.2 5.8 5.2 11.4a74 74 0 0 0-23.8-11.5c.4-9.9-2-16-5.3-20.5 4.2 1 6.9 1 26.1 12.8 5.9 3.6 14 9.4 16.7 9.3 2.8-.1 4.8-3.8 4.5-6.7-.6-6.1-4.2-10.8-8-15.7-4.3-5.5-8.6-11.1-8.8-19a25 25 0 0 1 9.8-19.8 39 39 0 0 1 14.8-7.5l1 1.9a12 12 0 0 0-6.6 9c-.4 7.3 3.4 12.8 7.2 18 2.7 4 5.5 7.9 6.7 12.6 0-2.5-2.2-5-1-8.1.7-1.6 2.2-3.3 2.2-3.3s-.6 2.5 1.2 6c9 17 3.9 33-3.8 38.8" id="path2" style="fill:#fff"/><path d="M347.7 197.5q-1.5-.3-2.3-1.3c-.2 10 1.4 13.8 4.6 17l3 .6 1.3-3.2c-3.2-3-4.1-6-4.1-13.6q-.9.8-2.5.5m-119-96c.4 1.9.9 4.5.6 6.5a19 19 0 0 0 3.5-4.3c0-1.7-.6-3.8-1-5.3q-1-4.2-2.7-6.8c3.5-2.5 7.2-6.5 7-11.3l-3.7-2.6c.6 3.6-1.3 6.7-6 10.2-2.9-3.8-7.6-9-11.8-10.3-1.9 1-3.8 2.3-4.6 2.8q2 0 3.7 1c2.6 1.4 6.5 5.5 9.2 9 .2-1.3 1.3-2.5 3.3-2.5h.2a3 3 0 0 1 2.6 3l-.1 1a3 3 0 0 1-3 2.1l-.3.2a24 24 0 0 1 3 7.3m-30 5 .7 1q0-.6.3-1.1l.2-.5.4-.5.4-.3.2-.2.3-.1.4-.2h1.3c2.2 0 3 2.2 2.5 3.8v.1c5.3-3.4 14.8-10.3 20.5-14.5-1.8 0-3-1.6-3-3.1l.1-.4-20 14a37 37 0 0 0-10.6-9.8l-3 2.7q5.3 3.6 9.3 9.2m7.1 12.8-5.4 8.7.4.2c20.7 8.8 55.6 10.2 74.6 10.2 13.4 0 24.9-.7 28.7-1.3q4.7-.8 4.5-3.7 0-1.6-1.7-1.5c-8.2 1.4-22.8 1-22.8 1-28 0-50.6-3.9-78-13.5Zm112.7 17.5c-4.8-12.3-4.5-28.8-3.5-42.6h51.4q4.8 53.9-25.7 70a60 60 0 0 1-22.2-27.4M268 182.2v1a17 17 0 0 0-9.6 4.8q-.2 3 .6 4.8l-16.2 23-5.5 7.7a3 3 0 0 0-1.7 1.4q-.3.3-.3.7l-.9 1.2-4.3-.8 5.3-10.3 20.6-43.3-.9-1.9c-16-2.8-41.4-3.5-63.7 5.6 2-6.7 4.4-11.2 5.3-13.2 10.7-3.6 34.8-6.5 57-2.4q.4-4.7 2.8-8.4c2.6-3.9 7.3-6.4 12-6.4 4.3 0 8.1 2.4 10.2 6l-1.7 2.2c.9 1 3 4.1 6.3 5.5-5.1 4-13 15.6-15.3 22.8m11.9 14.1.4.5c1.3 2.3-.8 5.5-3.3 5.3q-1.4 0-2.3-.6c-.1.5-2.2 8-6.4 14.2H281s1.7-6.8 6-10.5v-15.7Zm31.7-13.1-7.3 6.4 24.7.6c.1-9.1-1.9-12.4-4.5-16.5q-5.4 6.6-13 9.5m17.2 11.6-29.4-.5v-.2l.1-8v-.7h.8c2.9-.5 2.9-4.4 2.9-6.2v-6.8c6.6-1 13.3-7.5 13.6-12.3h4.9q2.9-.1 3.9 1c1.9 2.3 1.6 6.3.6 9.3h1.4q6 7.7 6 19.7-.6-.5-2-.6-1.6 0-2.5.7a3 3 0 0 0-.3 4.6m5 .2q-.9.8-2.4 1-1.5 0-2.4-1c0 9.3.6 12.2 5 16.7l3-.4.7-3c-2.6-1.8-3.7-5-4-13.3m11.9-3.5c-3.5-.5-8-1-11.7-1.1a3 3 0 0 1-.1 4.5c2.6.1 6 .2 11.5 1.2-1.3-1.6-1.3-3.7.3-4.6m2.3-.3a4 4 0 0 1 2.4 1.2c.4-9.9-2-16-5.3-20.5q-2.1-.4-5.5-.7c4.2 4.8 6.5 10.8 6.1 20.3a4 4 0 0 1 2.3-.3m2.4 1.2c8.4 2 19.3 7.9 23.8 11.5q1 2.8 1 5.4a86 86 0 0 0-24.8-12.3c1.2-1 1.3-3.2 0-4.6" id="path3" style="fill:#00aaed"/><path d="m270 69.1 4-5.8c-2.6.4-6.2-1.6-6.2-4.2V37.6c0-2.3 3.8-3.7 5.6-3.2l-4.9-5.7c-5 3.8-7.5 11.2-7.6 20.2-.1 9.5 3.7 17 9.1 20.2m77.8 122c-5.1-.5-4.3 5.6-.1 6.4 4.4 1 4.7-5.8.1-6.3M234 55.5V43.1a6 6 0 0 0-6.3 6c0 3 2.2 6.4 6.3 6.4m11.4-3.6 5.8-.1V50l-1-.1c-1.8-.8-4.3-2.4-5.5-4.1l-10.2.6a10 10 0 0 0 0 5.4zM225.8 94h.2a3 3 0 0 0 3-3.1c0-1.5-1-3-2.8-3-2.3 0-3.3 1.5-3.3 3s1 3.1 3 3.1m-27.5 18.5 2.7-2.1 1.2.2c2.1 2.6 4.8 5.6 3.8 8.3l-.3.5 3.5 1.2s1.3-1 1-3.9c-.2-3-2.3-5.3-5-8.3v.2c.6-1.8-.3-4-2.8-4-2.6 0-3.6 2.2-3 4l-2.6 2q-.7.6 0 1.5c.2.3 1 .8 1.5.4m.9 23.7h.3c2.7-.2 3.9-2.2 3.8-4a3.6 3.6 0 0 0-4-3.5c-2.8.1-4 2-4 3.7 0 1.9 1.4 3.8 3.9 3.8m153.4-5.2H345v-11.2h7.3c2.3 0 3.3 1.2 3.3 1.2v-11s-1.4 1.4-3.8 1.5H345v-7.1c.2-2.8 1.2-4.1 1.2-4.1h-11.6s1.4 1 1.7 3.5v7.8h-7c-2.5 0-3.7-1.9-3.7-1.9v11.6s1.2-1.5 3.6-1.5h7l.1 11.3-8.2-.1c-1.6 0-2.4-1.1-2.4-1.1v11s1.2-1.7 3.7-1.8h7v8.1c-.2 2-2 3.3-2 3.3H347s-1.9-1.6-1.9-3.3v-8.1h7.8c2.1 0 3 1.5 3 1.5V130s-1.2 1-3.1 1m-98.2 44.5 1.5-3-.9-2c-16-2.8-41.4-3.5-63.7 5.6-.5 1.6-.7 4-.8 6.1a117 117 0 0 1 64-6.7M138 237l2.3 3 14.8-13-2.4-2.9zm2.6-29-12.6 6 1.8 3.6 8.5-4.4q1-2.8 2.3-5m123.8 35-3.9-9.2-2.9 8.3-20-7.5q.3-2.6 1.6-4.7l.9-1.2a3 3 0 0 0 1-2.4 3 3 0 0 0-5.8-.8L222.8 244h17v-1.1q-1.4-2.1-2-4.4l18 6.8-10.5 10 13.6-5.8 9 15.9-2.5-17.6 13.8-5.8zm67.2-53.6c-5-.3-5 6.4-.3 6.4 4.2-.1 4.7-6.1.3-6.4M371.8 303h-12.2v3.3h10.1zm-3 5.2v3h19.9v-3zm-82-148h13l-.2 7.3c-2.8 0-4 1.6-4 3q0 3 4 3.5l-.1 5.2-12.5-.1v-5c2.4-.2 4-1.4 3.9-3.5-.1-2.2-1.7-2.9-4-3z" id="path4" style="fill:#fab727"/><path d="M173.3 181.6c-1.6 1.5-5.6 4.5-9 4.7-2.2.2-3-.9-2.9-1.2.1-.4 1.3.4 2.6.4 3.1 0 8-3.4 9-4 .4-.4.4 0 .3 0m194.6 60q.1-.5.5-.2 2 4 5.3 7l3.8 3q2.4-.3 4.4 1.4c2.4 2 1.8 5.3 0 8-.5.8-1.1.5-.8-.2.8-1.3 2.8-4.6.5-7q-2.8-2.7-7.6 0c-.3.2-.7-.3-.4-.5q1.4-1.1 2.7-1.5a33 33 0 0 1-4.3-3.8c-2.7-2.8-3.1-4.3-4-6.2m-42-130.7q1 1 3.3 1.3h7.4v-8.3a6 6 0 0 0-1.2-3.1h10q-.7 1-.9 3.7v7.5h7.2q2.4-.2 3.4-1v9.2q-.9-.6-2.9-.7h-7.7v12h8q2 0 2.8-.6v8.7a4 4 0 0 0-2.6-.8h-8.2v8.5q.2 1.8 1.3 2.8h-10.4q1-1 1.2-2.8v-8.5h-7.3c-1.5 0-2.6.7-3.3 1.2v-9q.6.4 2 .5l8.6.1v-12.1h-7.5q-2.3.1-3.2 1zm3.2 9.4h6.7v10.4H328c-1.4 0-2-1-2.1-1l-.8-1v13.6l.8-1s1.2-1.6 3.4-1.7h6.5v7.7c0 1.7-1.7 3-1.7 3l-1 .7H348l-1-.8s-1.6-1.4-1.6-2.9v-7.7h7.3a3 3 0 0 1 2.6 1.3l.8 1.4V129l-.7.6s-1 .9-2.8.9h-7.3v-10.4h7c2 0 2.9 1 3 1l.7 1v-13.4l-.8.8s-1.3 1.4-3.5 1.5h-6.3v-6.7c0-2.6 1-3.8 1-3.8l.6-.7h-13.8l1 .7s1.3 1 1.5 3.2v7.4h-6.4c-2.4 0-3.4-1.6-3.5-1.7l-.8-1.1v14l.8-.8s1.2-1.3 3.3-1.4m81.3 79.8a23 23 0 0 1-7.8 8.6c-2 1.2-9.9 4.5-19.5-2.3-6.8-4.9-7.7-12-7.7-12l-7.3-4s-.7.8.2 2.4c0 0 3.6 6.5 4.8 10a80 80 0 0 0-22.5-10.7q.4-11.8-4.8-19.4c6.4 1 23 11.5 29.5 15.4 5.2 3.2 9.8 6.4 12.3 6.4 3.6 0 5.3-5 5-7.2a34 34 0 0 0-8.2-15.9c-4.2-5.4-8.5-11-8.6-18.6a25 25 0 0 1 9.5-19.6c3.2-2.5 10-6.6 14.4-7.3l.6 1.2q-5.2 2.9-6.4 9.1c-.5 7.5 3.4 13 7.2 18.4 2.7 3.8 5.5 7.8 6.7 12.4l.8 3.4v-3.5c-.1-2.7-2.1-5.3-1-8l1.3-2q-.1 1.6 1.3 4.7c11.7 23-1.2 37.2-4.6 39zm-36.9 4.2q.7 2.3 1 4.3a89 89 0 0 0-23.6-11.7q.5-.7.6-1.8a4 4 0 0 0-.4-2 75 75 0 0 1 22.4 11.2m-.4 18.2q-1.2 5.4-1.2 10.4c.3 6.2 5 9 11.8 15.3 3.3.2 5.3 4.6 6.2 6.1 1 1.7 1.2 2.1 1.1 8.7 0 0-.6 15.8 1.5 21.4 1.6 1.3 3.7 8.4 2.3 11.9-1-.6-7.2-3.4-7.9 6.1a24 24 0 0 0-9.1-4.7 17 17 0 0 0 3.7-10.5c.7-12 1.4-25.6-11-33-4.5-2.7-33.2-13.5-36.7-18.4-2.3-3.3-7-12-7.1-12.2l-2.7-5.8c-1.2-2.5-3-3-3.2-3q-.5 0-.5.3 0 .4.3.5s1.6.4 2.6 2.6c1 1.8 2 4 2.4 5.2-4.8-.3-11.5.4-26.3 2.4l.3-31 28.8.6c-.3 11.8 2.4 13.7 5.3 16.9l3.5-.5.8-3.6c-3.6-2.4-3.6-6.6-4-12.7 6.2.1 10 .9 10.8 1 .2 3.2-.6 12.1 4.8 17.1l3.6.8 1.5-3.8c-4-3.7-4-8-4.2-13a91 91 0 0 1 24 12q-.2 7.1-1.4 13m15 88.2h-19v-2.1h19zm-28.2-5v-2.4h10.5l-1.5 2.5zm8.1-11.2h.5c3.8.7 6.7 4 6.7 4s-2.4 2-4 4H360c.4-2.2 6-7.2 8.1-8m9 3.8c2 .1 8 3 9.9 5.1a24 24 0 0 1 1.3 4.3h-19.1c.5-3 4.8-7.3 7.9-9.4m-4-12.7c1.3-11.2-3.2-28-12.6-35.1l-.3-.2c4.5 1.9 8.3 3.6 10 4.5 12 7 11.2 20.4 10.6 32.2-.3 4.6-1.9 9.1-4.8 11 0 0-3.3-3.7-7.3-4.3.5-.8 4-5.2 4.3-8.1m-51.8-57.3h-.6c-.7-.3-2.4-2-3.8-3.9l6.4-.3h3l1.7 3.2c-1.8.4-5.3 1-6.7 1m-34.6-68.7c-4.5 0-7.4-3.5-9-5.7l9.5-12.8.5-2.4 12.3-.6 7.8 3.7c-5.9 6-8.3 11-8.4 17.8Zm12.6 7.4c-1.6 0-2.6.7-3.1 1.2q-1 1-1 2.2 0 3.3 4 3.9v4.3h-11.7v-4.2q3.9-.6 4-3.9-.3-3-4-3.3v-6.7h11.9zm0 6.4c-1.6-.2-3.2-1-3.2-3q0-.8.7-1.6.6-.7 2.5-1zm-1 86.2-5.7 4.3-5-4.4-.1-80H299zm-11-91.5q3 .2 3.2 2.6c0 2.1-1.9 2.7-3.1 3zm-33.6 61c4.6-3.9 6.5-5 9-6.5q3-2.1 6-6.3h12.7s1.5-6 5.3-10v21.1a207 207 0 0 1-33 1.7m-7.6 7.9-3-1.1c2.7-5.4 7-10 11.2-14.1 6-5.8 12.7-12.4 15.2-22.8 1 .5 3.4 2.4 4.8 3-.7 2.3-4.8 15-12.1 19.9-1 .7-11.8 6.7-16.1 15m11.9 6 2.7-7.6 3.5 8.5 12.4-1-11.6 4.8 2.3 15.7L259 249l-11.7 5 9.3-8.9-18.4-7-.2-2.8zm-13.7.4-4.4-1.2q-.9-1.3-1.3-2.8l6.1 2.3Zm-4.8.5-15.8-.2 11.2-16.3a3.3 3.3 0 0 0 3.3 2.7h.8c-4.1 6.5 0 12.3.5 13.1zm-24.8-1.1c-1.4-.7-1.3-1.4-1.3-1.7.6-3 11.2-8.5 17.2-9l-4.7 7-1.2-.1c-4.7 0-9 3-10 3.8m16.2-16.8 4.9-9.6h6.2l-5 7a3 3 0 0 0-2 2.3l-.7 1zm-13.7-4c3-3 5.6-9.7 11.9-10.8 1-.2.5-1-.2-.8-6.4.7-9.7 8.5-12.7 11.6a25 25 0 0 1-6.6 4 55 55 0 0 1-25.5-25.5c-1.7-4.2-5.3-6.6-8.9-8.6-.4-.2-5.4-1.6-10.4 2.2-2.6 2-7.3 8.6-7.4 8.8-.8 1.3.5 6 .5 8.7 0 1.1-1.6 3.6-2 3.6q-1.5-.8-2.9-.8c-3 .1-6.2 3.4-4.1 6.3 0 0-5.8-1.3-11.1 1.5a23 23 0 0 1 5.7-17c0-.3 11-16.3 16.2-23 2.2-2.6 13.4-6.4 18.3-3.6 1.7 1 13 9.5 13 9.5s13.7 11.1 16 11.6c.5 0 .8-.6.2-.9-.8-.3-4-2.5-7.9-5.4 10.3-2.7 15.5.2 16.4.8.6.3.9-.5.5-.7-1.4-.8-6.7-3.9-17.7-.7l-7.5-5.8v-4.2c29.2-11.9 56-7.7 63-6.6 0 0-21.9 46.2-24 49.6-3.6-.7-10.7-3-12.8-3.7m-65 2.3-14 12.3c-1.7-2.8-1.4-9.6-.5-13.6 2.7-1.3 4.8-1.7 7.6-1.8h.2l4.2.4c1 .8 2 2 2.5 2.7m2.4 2.8-14 12.5-1.9-2.3 14-12.3zM130 217l-1.4-2.8 11-5q-1 1.8-1.7 3.7zm2.4-16.3c2.5-.3 7.7.2 11.4 2-1 1.5-3 4.6-3.5 5.1l-12 5.6c-.8-2.5 2.6-9.7 4.1-12.7m18-8.6-2.4 3.6q-.2-1 .2-1.8.7-1.5 2.3-1.8m-11.5-5.4c5-7.2 32.2-16.3 32.5-16.4A16 16 0 0 1 185 173l5.4 6.3c-.3 2.6-.4 5.3-.4 6.8-.8-.7-6.7-5.3-11.7-8.5-3.8-2.5-14.9-.6-19.4 3.9l-6.8 9.2c-.5-.1-3.4-.8-5.2 2.5-.7 1.2-.5 3 .5 4.2l-3.1 4.6c-4-2-9-2.6-11.5-2.2 1-3 3.3-9 6.2-13.2m52.8-10.2a122 122 0 0 1 63-5.5l.7 1.6-1.2 2.6c-7.2-1.1-34.3-5.4-63.3 6.5 0 0 0-1.6.8-5.2m5.2-13.1c26.3-7 49.1-3.7 56.2-2.4q-.3 4.6 1.2 9c-5-.8-34.9-5.6-62.3 5.5 1.6-5.4 4.8-12 5-12.1m10.8-17.5c2-3 5.9-8.3 8-12.3q17.8 4 43.6 5a108 108 0 0 1-2.1 11.8c-.5.5-3.8 4.4-4.1 9.7a134 134 0 0 0-55.5 2.1c1.5-2.7 5.4-9.5 10.1-16.3m60.9-1h-.1l.4-5.4h17l-.3 1.1-7 9.4c-1.6-2.1-5-5.2-10-5.2m-10.3 4.5q1.2-5.5 1.8-10.6l7.4.2q0 3.3-.5 6.5-5 .5-8.7 3.9m9.2 32.4a19 19 0 0 1-12.5-12c-4-11.4 2.4-23.3 13.3-23.5 3.6 0 7.6 2.1 9.7 5.5l-1.7 2.4s2.8 4 6 5.5a65 65 0 0 0-14.8 22.1m5.6 10q-3.9-3.1-5-9.1a63 63 0 0 1 15-22.6q1.5.6 3.2.6V175a84 84 0 0 0-13.2 16.6m7.2 8.9a4 4 0 0 0 0-4.2l6-5.8V205a24 24 0 0 0-5.9 10.3h-11.5A57 57 0 0 0 275 202c3.2 1.2 4.7-.4 5.5-1.6m-6.5-8.3 2.8-4.3a55 55 0 0 1 9.8-12v13.4l-6.7 6.4c-.9-.8-3.4-1.8-3.7-2zm-11.8 4.2a9 9 0 0 1-3.3-8.2 17 17 0 0 1 8.7-4.6q1.5 6.9 8.1 10.8c1 .6 3.7 1.5 4.2 2.6q.7 1.5-.1 3-1 1.6-2.6 1.7c-2.6-.1-5-2.3-7.2-3.6a13 13 0 0 0-7.8-1.7M240.4 229c.7-.6 1.5-2 1-3.4l20.9-28.4a11 11 0 0 1 6.4 1.2 47 47 0 0 1-14.9 22.4s-8.6 8.1-11.7 14.6l-4-1.5q.5-2 1.5-3.7zm.3-2.6c0 1.3-.8 2.5-2.6 2.6-1.7 0-2.5-1.3-2.5-2.5 0-1.3.8-2.7 2.5-2.7 1.8 0 2.6 1.4 2.6 2.6m18.2-32.7q.8 1.5 2.5 3.2l-20.3 27.7q-.9-1.5-3-1.7zm-.4-1-16 22.6h-6.4l20-42c2.5 4.5 6.6 7.7 11.4 9.2v.2a18 18 0 0 0-9.4 5.1s-.4 2.9.4 5m-57.6-65 5-8a219 219 0 0 0 78.1 13.6c9.1 0 14.8.1 23.2-1 .2 0 .8 0 1 1.2 0 2.1-2.6 2.9-4.3 3.1-3.7.7-15 1.3-28.6 1.3-19 0-53.8-1.3-74.4-10.1m-1.3 7.9a3.4 3.4 0 0 1-3.8-3.4c0-1.5 1.3-3.2 3.7-3.3 2.3 0 3.4 1.6 3.5 3.1 0 1.6-1 3.3-3.4 3.6m3.6-24.8q1.5-.5 2.3-1.8c2.3 2.7 4.2 5 4.4 7.6.2 2-.4 2.9-.7 3.2l-2.8-.9c1.2-2.7-1.2-5.6-3.2-8.1m-4 8.4a11 11 0 0 1-5.1 1.6c-2.1 0-2-1.3-2-1.8l5-2.5c1.8-1 2.8-4.7 2.8-4.8.7-.7 1.8-.9 2.2-.9l1.9 2.3c-3 2.6-2.4 4.3-4.8 6.1m-.8-6q-.6 1.6-1.7 2.5-1.5 1-3.6 2l-.4-.8c1.8-.8 4.3-2.2 5.7-3.7m-9.5-1.2c-.9.7-1.4 1.6-1.8 3.6 0 .4-.5 1-2.4.5-.4-1.3-1-4.2-.2-5.2.5-.7 1.5-.6 1.5-.6s-.3-3.3.9-4.3q1.3-1 2.4-.2t0 2.2a.4.4 0 1 0 .8.4c1-1.5.5-2.7-.2-3.3-1-.7-2.6-.8-3.6.3q-1.1 1.1-1.2 3.6c-.4.7-1.4.5-1.5.5-1-6 1-8 3.2-9.6l2.5-2.2c6 4.2 9.6 9.7 9.6 9.7-1.4 4-6.2 1.5-10 4.6m3.5-17q5 3 9.6 8.9s-1 0-2 .8q-1 1.3-.9 1.6s-3.7-5.5-9.1-9.2zm14.2-8q.9-.2 2-1.9c.6-1 .9-1.4 1.8-1.2.2 1.5.8 2.2 1.6 3a7 7 0 0 1-4.5.6q-.6-.1-.9-.5m-6.8 1.6c2.1-1.7 4-3.1 4.7-4 .3 1.4.8 4 4.3 3.8 4-.2 5.5-2.3 5.8-2.2l.9.4c.4.1 1.2-.5.6-.9l-1.6-.9c-1-.6-3-1.8-4.4-1.8-1.3 0-1.6.8-2.2 1.7q-1 1.2-2 1.4-.8-1.6-.5-2.5c1.8-2.8 4.9-4.1 8-2.2 2.6 1.5 6.4 5.5 9 8.6L202.9 104q-4.7-6.1-9.9-9.3c1.6-1.6 4.4-3.8 6.8-5.7m14.8-11c4 1.4 8.4 6.3 11 9.5q-2.2.4-2.8 2a40 40 0 0 0-9-8.6q-1.2-.6-2.4-.8 1.4-1 3.2-2m7.5-3.6c.5 1.7 2.2 3 4 3a4 4 0 0 0 3-1.2L232 78c.4 3.2-1.2 6-5.5 9.3a33 33 0 0 0-11-9.8c2.8-1.6 4.6-2.3 6.6-3M209.9 71l.2-1.4 1.6.7h.1c2.6 1.2 7.5 1.7 10.2 2.4v1l-2 .7zm2.6-3.6c1 .4 3.6 1 7 .3a12 12 0 0 1 6.1.2c3.2 1 4.4 3.7 4 5.7-.8 4.6-7.3 3.6-6.8-.7 2.2.5 2.4 1.2 2.8 1.2l.3-.2q.2-.2 0-.6c-3.2-2.4-8.3-1.6-13.9-3.8zm8.7 45a16 16 0 0 0 8.4-4 20 20 0 0 0 3.6-4.6c.8-.6 1.6.1 1.6.1q.4.3.6 0 .3-.3 0-.6s-1-1-2.3-.4c0-1.4-.6-3.4-.8-4.6q-1.2-4.5-2.6-6.6c2.6-2 6.5-5.7 6.8-10.6a56 56 0 0 1 23.6 50.4 203 203 0 0 1-39.8-7.9c1-3.3 1.8-7.2.9-11.1m7.4-21.6c0 1.3-.8 2.6-2.6 2.7h-.2c-1.5 0-2.5-1.4-2.5-2.7 0-1.2.8-2.6 2.9-2.6 1.5 0 2.3 1.3 2.4 2.6m2.8 7.6s.9 3.6 1 5a20 20 0 0 1-2.6 3.5 26 26 0 0 0-3.5-12.6q2-.2 2.8-2 1.3 2 2.3 6.1m-4-10.8q5.9-4.5 5.5-9.1l2.8 1.9c0 4.6-3.7 8.3-6.3 10.4 0-1.3-.7-2.7-2-3.2m-23.6 16.6 18.7-13q.3 2.1 2.3 3l-19 13.4q.2-1.2-.5-2.2a3 3 0 0 0-1.5-1.2m-3.4 6.1-2.3 1.8c-.7.5-1.6-.9-1-1.3l2.2-1.6zm-.5-2.8q0-1.1.6-1.8.8-.9 2.1-.9c1.8 0 2.6 1.3 2.6 2.6s-.9 2.7-2.7 2.7-2.6-1.4-2.6-2.6m19.8 4.2c-5.2.4-8.5-2.4-9.1-2.3q-1 .1-2.7 1.2l-1.7-2.1 19.4-13.8a24 24 0 0 1 3.4 13 15 15 0 0 1-9.3 4m-8.3 4.8a10 10 0 0 0-2.1-5l1.3-.6a16 16 0 0 0 9.4 2.2c.7 3.4 0 6.7-.7 9.3L211 120q.6-1.2.4-3.4m19.2-43.9c13.8 5.5 36.4 20.3 37.3 59.4l-6.9-.5q1.4-37-31.2-56a5 5 0 0 0 .8-2.9M271 97a19 19 0 0 1 6.6-11.6Q280 87 283 88l4 1.7v17.1a298 298 0 0 1-16-9.8m-8.6-1.6-1.8-8h.7c5 0 9.5-2.9 13.3-5.6q.3-.3.8-.4c.8 0 1.7.8 2 1.5q.5.8.1 1.4c-3.6 3.4-7.4 7.8-7.4 14.3zm-4-14.8q-3-5.5-4.5-9.1h13c1.8 2 6 8.5 6.9 9.8a23 23 0 0 1-12.1 5.2v-.1zm-13.3-10c.8-2.1 4-10.2 5.8-13.2-.6-.2-3.4-.8-4.7-3.1q-.7-1.5-.4-2l5.7-.1v-1.7a8 8 0 0 0 5.3-3.7q1-1.4.5-2.7-.4-1-1.3-1.4c-1-.4-1.8-.8-1.8-2.5l.3-.6 6.7 1.1a41 41 0 0 0-.8 8.2c-.2 8.7 3.2 16.4 8.7 20.2v1.5zm-10.4-19.1a9 9 0 0 1 0-4.6l9.7-.6a15 15 0 0 0 5.6 4q.3.3.6.2v.9h-5.4zm18.6-10.9c.3 2.1 1.6 2.6 2.4 2.9q.6.2.8.8.3 1-.4 2c-1.7 2.5-3.9 3.4-5.2 3.4-1 0-4.6-2.3-5.8-3.9 2-3.5 5.7-4.6 8.2-5.2m15-11.3 4 4.6c-2 0-5 1.5-5 3.7v21.5c0 2.6 3 4.6 5.7 4.7l-3.2 4.8c-5.4-3.6-8.7-11.1-8.6-19.7.1-9 2.7-16 7.2-19.6m94.5 14 3.9 3.8-98.4 1c-.4-1.5-.4-3.6 0-5zm.8 8.3-95.3 2.5a18 18 0 0 1 0-5L367 48Zm-76.1 39.5c2 11 12.5 17 21.7 17l4-.2q-.1 9.8 1.4 19.2c-.1 0-4.2-.6-7-.1-2.4.4-3.8 3.1-4.8 5-6.9.7-15.3.6-15.3.6zm3.9-2.2c5.6 0 7.4-4.8 8.7-8.8l.6.6-.1.3.3 1.2.3.4q-.4.1-.7.8-.5 1.8 1.3 2.9 1.1.5 2.2.5c2 0 3.7-1 3.8-1a11 11 0 0 0 5.7-6q3.2 1.1 5.8 1 3-.1 5.1-.5 1.1 7.9 12 8.1c0 1.9-.2 3.1-.8 5H314s-.7 8.7-.6 13.7l-4 .1c-10 0-20.7-7-21.2-18.9q1.4.5 3.4.6m14.8-5-1.4-2.5c-.5-1-1-2-2-2-.7 0-1.6.5-1.6.5q-.6-.1-.7-1.3 0-.7.8-1c.4 0 1.2.5 2 .2 1.4.6 2.8 3.2 2.8 3.2 1.2 2 2 .8 2 .4v-1.1l1.4.2c1 .8 1.2 1.3 1.5 1.9-.4.4-1.5 1.6-1.9 1.7-.5.2-2 .7-3-.3m-3.8-2c0-.6-.7-.7-.9-.5 0-.8 1.2-1 1.4-1q.7 0 1.2 1.5.5 1.2 1.6 2.6.6.6 1.5.8c-.5.2-1.8.8-3 .8a4 4 0 0 1-1.9-.5q-1.2-.7-.9-1.8c.2-.6 1.2-.5 1-2m-2-6.8a8 8 0 0 1 1.5-3.5h2.5v2.8c3.6-.2 3.9-1.4 4.5-1.2q.3 3.2 1.9 4.8.8 1 2 1.6-.4 1.2-1.2 2.2-.2-.7-1.6-1.8c-.4-.3-1.6-.8-2.9 0-.8-.6-2.5-2-2.8-3.1l-.6-1.7-.3 1.8q0 .6-1.7 0H300zm5.3-3.1q1.7-.1 2.4.5c-.2 0-1 .6-2.2.8q.2-.8-.2-1.3m-9-1.2 5.4-11.6c7.6 7.3 13 9 13.2 9q.3-.3 1.2-.3c1.4 0 2 1.1 2 2.2.1 1.2-.6 2.4-2.3 2.5-2 0-2.4-1.8-2.4-1.8zm18.9-14.5c4.4 3.9 8.6 8.2 9.8 13 .8 3.2-2.7 7 .2 10a26 26 0 0 1-6.2.8h-.1c-2.5 0-6-.4-8-2.6q-1.9-2-1.7-5.9h3.6q.9 1.7 3 1.8c2.3 0 3.3-1.8 3.2-3.3s-1-3-3-3l-1.1.1c-2.4-.7-7-3.7-10.2-6.4 2.3-1.8 6.4-3.8 10.5-4.5m21.6 33.4q3.8.6 7.3 3.9h-8c.5-1.6.6-2.4.7-3.9m28 5.7q4.4 51.9-24.7 68c-9-5.8-17-15.7-21.4-26.6-4.7-12.1-4.4-28.4-3.6-41.4zm-55.2 46.2-2.1-.3-6.6-3.2 2.5-.3c4.6-.8 5-2.9 5-4q-.2-2-1.8-2l-3.2.3c1-1.7 2.2-3.7 4-4 2.6-.6 5.8 0 7 .1.8 5 2.7 9.5 2.7 9.6-2.2 1.7-4.8 3.9-7.5 3.8m10.8 18.2h-17.5q.6-10.5 10-18.2h.1a65 65 0 0 1 7.4 18.2m4.1 1.8c2.6 3 1 9.6-1 12a34 34 0 0 1-22.9 12c2.3-1 2.3-4.5 2.3-6.2v-6.4c6.2-1.1 13-7.2 13.5-12.3h4.6q3 0 3.5.9m8 28a4 4 0 0 0-1.8-.4q-1 0-2 .4c.1-8.1-1.6-11.6-4.3-15.7q.8-1.1 1.4-2.8h1a31 31 0 0 1 5.7 18.5m-27.7-.2 6.4-5.7q7.7-3 12.6-9c2.3 3.4 4.2 6.7 4.1 15.3zm4.1-4.9-9.8 8.9v-6.7q5.3-.6 9.8-2.2m-6-23.8H316c-.6 4.3-6.4 10.2-12.7 11.4zm-1-1v19.7c0 1.7 0 5.3-2.4 5.7h-.3l.2-25.5c.1-6.4 2.6-11.4 8.5-17.3a7 7 0 0 0 2.8 0q-8.2 7.6-8.7 17.4m25.1 34.9-27.6-.5 4.3-3.8 23.5.5q-.5.8-.6 1.7 0 1.2.4 2.1m3.5 1c-2 0-3-1.4-3-2.8s.8-2.8 3.3-2.7c2 .1 2.7 1.5 2.7 2.7a3 3 0 0 1-3 2.9m5.8 13-.5 2.5-2.5.3c-4.1-4.3-4.8-7.3-4.8-15.4a4 4 0 0 0 4 0c.2 7.2 1.3 10.6 3.8 12.5m7.2-13a74 74 0 0 0-9.8-.9q.6-1 .6-2t-.4-1.7q4.7.3 9.8 1l-.6 1.2q-.2 1.3.4 2.5m-5.1-24a27 27 0 0 1 5.9 19.5c-3.5-.5-9.1-1-11.1-1q-.1-11.3-5.6-19.1c2 0 6.6.3 10.8.7m14.6 39.1-1 2.6-2.6-.6c-2.8-2.7-4.4-6.3-4.4-15.5a5 5 0 0 0 2.7.9q.6 0 1.3-.3c0 6.8 1 9.8 4 13m-5.3-13.6h-.7c-2.1-.5-3.3-2.4-3.1-3.8q.2-1.8 2.4-1.8h.7c2 .3 3 1.9 3 3.4-.2 1-.8 2.2-2.3 2.2m-3.9-24.9a30 30 0 0 1 5.2 19.2q-.8-.6-2-.7H346c.2-8-1.6-14-5.6-19.1zm-111-117.2q-2.2-.2-3.7-1.7a6 6 0 0 1-1.7-4.3c0-2.6 1.9-5.4 5.4-5.6zm178 105.7c-2.2-4 0-9.2 0-9.3 0 0-5.3 5.3-5.5 7.8q-1.7-3-3.7-5.6c-3.7-5.2-7.4-10.5-7-17.3 1.5-6.9 7-8.8 7-8.8l-1.8-3.3s-6.1 0-16 7.7a26 26 0 0 0-10.2 20.7c.2 8.1 4.7 13.9 9 19.5 3.7 4.8 7.3 9.4 7.9 15.2.1 1.4-.8 5.2-3.8 5.6a81 81 0 0 1-13.2-7.4c-25.2-15.6-26.6-15.2-45.5-16l-1.4-.1c1-3.7.5-7-1.2-9q-1.2-1.4-3.8-1.4c-1.7-6.6-4.3-13-7.3-18l3.2-2.1c8.4 18.5 21.5 25.8 22.3 26.3 31.4-16.3 27.9-57 26.6-72h-20.7a15 15 0 0 0-8.5-5.1V87s-10.7 1-11.9-6.5l2.7-.8c-1.4-1.4-3.6-1.6-2.4-5.4.5-1.4 1-3.5.6-5.6-1.2-6.4-10.8-14.2-10.8-14.2s-6.5 1-11.6 4.8l-2.6-2.8-7.4 15.5h5.4q-.5 1.2-.8 2.7c-.2 1-1.5 2.6.1 3.4l-.2 1c-1.5 4.7-3 8.1-7.6 8.3-.9 0-4.6-1-4.6-1l-.4 1.5-3-1.3c-1.8-.6-3.6-1.2-4.6-1.9q.5-1.1-.2-2.5c-.6-1-1.8-2.2-3.3-2.2l-.7.1c-1-1.5-3.6-5.5-5.6-8h1.7l-.1-2.2 5.4-8.1s-1.4.5-2.8.5c-1.7 0-3.7-.6-4.5-3.3v-3.5l95.7-2.5 4.8-5.5-5.8-5.6-94.7-.2v-4q1.1-2.2 3.7-2.3c1.6 0 4 1 4 1l-7.8-9s-5.1 2.5-7.6 11.9L254 38l-.8 1.1c-2.3.6-6.7 1.7-9.1 5.7l-9.1.6V42c-1.5-.3-8 .3-8.3 7-.1 3.2 1.8 7.6 8.3 7.4v-3.6h9.3q0 .9.5 1.9a8 8 0 0 0 4.1 3.5c-2.2 4.2-5.8 13.7-5.8 13.7h9.5q1.4 3.8 4.7 9.3l2.5 4.6h-1l2.3 10.5 10.4 4.4V99c3.7 2.5 12.3 7.6 14.7 9v24a319 319 0 0 1-17-.4c-.8-29.1-14.8-51-38.4-60.3q-.8-3.5-4.7-4.8c-5.8-1.6-9.8 1.8-14.6-1.2 0 .5-.7 3-.7 3l-2-.8-.4 4.5 8.8 3-7.5 4.5c-1.1 0-3.4.3-6 4.3l-4.7 4a157 157 0 0 0-13 11.1c-4.9 3.5-4.2 7.8-3.7 11.6v.4l.6.1c-.9 2.3.3 5.5.6 6.2v.3h.3q1.2.4 2.1.4 2.2 0 2.6-1.9c.4-1.7.7-2.2 1.3-2.7 2-1.7 5-1.5 5.8-1.7a2 2 0 0 0 1 1.6c-1.5 1-4.2 2.3-5.3 2.9l-.5.3.7 1.5-.7.3s-.4 2 .5 3q.9 1.2 2.8 1.2c5.7-.2 7.8-3.4 8.7-5.4q.6-1.2 1.6-2 1.3 2 .8 3.4l-5.8 9.3c-3.5.2-5 2.5-5 4.8 0 2.1 1.6 5 5 4.7 4.5-.4 5-3.7 5-5l-.3-1.5q4.6 1.5 10.1 3c-2 3.6-5.2 8-6.2 9.6-4 5.4-7.6 11.5-12 19-3.4 6-5 11-5.8 14.6l-4.2-4.8a17 17 0 0 0-10.7-4c-3.2 0-8.7 2-18 6a51 51 0 0 0-19.5 11.7c-3.5 4.8-5.6 11.4-6.6 14-.4.9-5.1 9.5-4.4 13.5l-.1.1 2.7 5.4 7.3-3.8a27 27 0 0 0-.4 7.4c-1 4-1.3 11 .5 14.4h-.1l3.5 4.6 16.3-14.4-3.1-3.6-2.8-3q-1-1-.5-2.7c.2-.7 1.5-3.5 5.4-1.3 1.8 1 3.6-3.8 3.7-5l-.7-8c1.5-2 5-7 7.1-8.5 2.3-1.7 7.8-2.7 8.8-2 2.1 1.2 6.4 3.1 8.3 7.8 5.9 15 23.5 26.5 26.9 26.5 3-.2 7-4 7-4.1 7.8 2.7 14 4 16.1 4.4l-2 2.9c-5.8.3-18.2 5.8-18.8 10.2-.3 2.6 3 3.5 3 3.5s4.8-3.8 9.3-4l-3.3 4.7 19.8.2v-1.4l4.6 1.3.5-2.4 8.1 3-13.3 12.6 17.8-7.4 11.3 19.6-3.2-22 18.8-7.9-20.2 1.7-4.6-11-3.5 9.8-9.7-3.7q2-3.4 5.6-7c9.3.8 25.8-.7 33.1-1.5l.1 31.4 6.4 5.7 7-5.5.4-33.3q9-1.3 15.6-1.9c1.8 2.2 3.5 4.3 4.6 4.5 1.9.4 4.7-.2 8-.9q3.2 5.6 4.7 7.8c2.1 3.2 19.6 11.4 24.1 13 11.2 7.8 15.4 20.8 14.7 35.9 0 1.7-3 6.1-4.2 7.9-6 3-8.8 8.6-8.8 8.6v5.3h9.3l-.2.4v4.5h22v-4.4s-.4-2.8-1.3-4.6c.1-3 .9-6.4 3.4-6.4 1.6 0 3.7 1.6 3.7 1.6s3.7-6.5-1.6-14.7c-1.5-5.8-1.4-12-1.4-18.3 0-.3 1-8-1.3-11.8 0 0-2.7-6.4-6.7-6.7-2.4-2.6-11.2-8.4-11-14q.2-5 1.1-10.2 1.2-5.6 1.4-12.5c0-4.8-1.3-8.3-5.8-17.2l4 2.3c1 4.7 4.1 9.2 8.2 12.2 9.4 7 17.8 4.3 21 2.4 6.3-3.7 9.4-11.5 9.4-11.5l-2.8.3c5.8-6.7 10.5-21.2 1.6-37.8" id="path5" style="fill:#282525"/></g><!-- app4joy --></svg>