<svg height="600" width="1200" id="svg12" viewBox="0 0 1200 600" xmlns="http://www.w3.org/2000/svg"><g id="g13"><path d="M0 0h1200v600H0Z" fill="#ffffff" id="path1"/><path d="M0 150h1200v450H0Z" fill="#c8102e" id="path2"/><path d="M0 300h1200v300H0Z" fill="#ffc72c" id="path3"/><path d="M0 450h1200v150H0Z" id="path4"/></g><g id="g12"><path d="M606 207.4c-62.8 0-113.6 38.8-113.6 86.6s50.8 86.5 113.6 86.5 113.6-38.8 113.6-86.5-50.8-86.6-113.6-86.6" fill="#ffffff" id="path5"/></g><g transform="translate(298 -102.6)scale(.85227)" id="g11"><path d="M286.6 420c1.9 2 2.7 4.7-2.1 4.6l-4 1.5-3.6 5-1.8 3.6c-.6-.4-.6 6.3 2.4 9.6l10.5 5-1.7 3.6-9.1-.7-2.4 3.2 5 5.4 6.4 2.1 9.7-.7 1-4.6 4.3 5.7 3.6 5 3.6 8.6-5 7.1-5 5.7-4.7 6.8H286l-8.3 5.7-4.6 9 1.8 2.4h5l6-5 11.5-5L313 499l6.4 2.1-2.5 4-8.5 7.8-3.6-.3-.4 1.8-5.3 2.5v4.6l9.6 2.1 29.3-23.2 6.4-2.5 6.8-3.5 29.7-7.5 6.4 1 5-.7 32.5 10 15.7-4.3 11-2.5 2.2-2.1.4-1.8 5 4.3 5.3 2.5 3.6 2.5-.4 2.8 5.4-1.4 1.8-4.3-18.6-10.3-16.4 1.8-12.2-29.3-16.7-15.4-34 7.5-27.1 3.2-24-9.6-7.8-12.5-.4-2.5-.7-5.7v-3.2H313l-2.5 1.7v4.3l-16.8-1.8z" fill="#ffc72c" fill-rule="evenodd" id="path6"/><path d="m311 425.4 3.6-3.5v-4.7l3.5 3.2.8 5.7.3 4-6.8.3z" fill="#ea9e00" fill-rule="evenodd" id="path7"/><path d="m804.4 271.3.2.1zM794 285q-3.5 0-5.3 1.5c-.8.8-2.7 1.8-4.3 2.2s-4.8 2-7.2 3.5a25 25 0 0 1-5 2.9c-1.7 0-3.6 5-2.5 6.1 1.4 1.4 7 .2 7.7-1.7q.6-1.3 2-1.4 1.6 0 1.6-1 .1-.9 1-1c.7 0 2.4-.9 4-2a15 15 0 0 1 7.7-2.1c4.1-.2 5.8.4 9.6 3 2.6 1.8 4.7 3.7 4.7 4.3 0 2.2-4.4 9.8-5.7 9.8q-1.2.1-1.3 1t-1 1c-.7 0-2.3.9-3.7 2s-3.7 2-5.2 2c-1.4 0-3.7.7-5.1 1.5-4.3 2.5-14.5 1.9-20.7-1.1-4.5-2.2-6.2-2.5-10.5-2-9.8 1.1-13.3 1.9-15.3 3.2-1 .8-2.6 1.4-3.5 1.4s-2.7.6-4.1 1.4c-4 2-17.7 4.9-23.5 4.8-6.4 0-16.1-2.9-18.8-5.4a27 27 0 0 0-5.1-3.5c-1.6-.9-3.2-1.8-3.5-2.2-.5-.6-3.7-2.4-10.7-6.2-4-2-4.2-2.1-6-.4-1.6 1.7-1.7 1.7-2.4-.1q-1.7-4.4.4-2.5c1.5 1.2 2.7.5 2.7-1.6q.2-1.5-3.8-.7-4 .5-7-1a15 15 0 0 0-5.9-1.6c-1.5 0-4.8-1.4-7.2-3-3.8-2.6-4.7-2.8-5.8-1.7-2 2-.1 6 4.2 8.6q6.5 3.7-.6 5.4c-4.2 1.1-5.1 2.3-4.4 6.4s-6.7 9-8.7 9.8h-.1q.9 1.6.8 4.7c0 3.5.4 4.5 2.2 5.3 1.2.5 2.4 1.8 2.7 2.8.3 1.4 1.2 1.8 3.8 1.5 4.4-.4 4.3-3-.2-4-2-.6-3.6-1.1-3.8-1.3s.2-2.2.8-4.5l1.2-4.2 4.5.5c5 .5 4.7 1.1 2.7-7-1-3.9 6.5-7.1 14.7-6.4 1 0 2.7 2.2 4 4.9a28 28 0 0 0 3.2 5.3c.5.4.6 2.6.2 4.9q-.8 4.4.6 5c.7.5 1.4 2.4 1.4 4.2q0 3.2 1.3 3c1.7-.3 2.7 2.7 1.3 4-.6.7-1.1 2-1.1 3 0 2.4 3.2 2.3 5.5-.2q4-4.3 3 1c-.5 2.3-.3 3.1 1 3.7 1.8.6 8-5 11.6-10.6 1.9-3 3.9-2 3.9 1.7 0 2-1.5 4.1-5 7.6-5.1 5-6.5 8.6-3.2 8.6 1 0 2.7-.7 4-1.6a8 8 0 0 1 4.5-1.4c4 .3 4.3 0 6.7-4.5 1.3-2.5 2.7-4.5 3.2-4.5s.8 2 .8 4.4c0 4.5 1 5.7 4 4.9 2-.5 4.5-6.4 5.4-12.3.4-2.5 1.1-5.2 1.7-6 .8-1.3 1.1-1.2 2.5.5 1.2 1.5 1.4 3.1.8 6.5-1.1 7.5-1 10.5.4 10.5 1.8 0 4.9-5.7 6.3-11.5l1-4.5 1.6 3c1.4 2.6 1.4 3.3-.2 7.8-1.5 4-1.5 5-.4 5.7.7.5 2.1.4 3.2-.3 4.9-3 6.3-3.7 7.9-3.7 1 0 2.5-1.9 3.8-4.5 2.7-5.5 3.6-6.1 5-3.5q2.1 3.6 5.4.5a10 10 0 0 1 4.4-2.1 6 6 0 0 0 4.3-3.2c.8-1.5 2.2-3.4 3.1-4.4 1-1 1.8-3.3 1.8-5.3q.2-6.7 3 0c.8 2 1.7 3.5 2.2 3.5q.7.2.8 2 0 1.8-1 2c-1.6 0-1.2 5.7.5 6.4 2.6 1 1.7 5-2 9-2 2.3-3.4 4.7-3.3 5.6.5 2.4 3.4 2.3 6-.2 5.4-4.9 8.8-7.8 9.2-7.8.2 0 0 1.3-.4 3s-1 5-1.1 7.7l-.3 4.8 3.2-.2c3.8-.4 7.2 1.2 7.2 3.2 0 .7-1.6 2.3-3.5 3.5-2 1.2-3.5 2.6-3.5 3 0 1.5-2.6 1.2-4-.4a19 19 0 0 0-6.2-3c-7.3-2.5-9.2-4-12.2-10.2s-6.5-8.6-9-6.4c-1 .7-1.5 2-1.4 2.9q.4 1.6-2.9 2c-1.7 0-3.9 1-4.9 2.2q-3.3 3.7-5.4-.1-1-1.8-2-2c-.4 0-4.4 2-9 4.6a27 27 0 0 1-9 3.9c-.6-.3-1-2.4-1-4.5s-.4-4.1-1-4.4c-1.4-1-3.9.4-4.5 2.5-1 2.9-10.7 12-12.5 11.7q-1.5-.3-1.2-3.5c.4-4.1-1.3-7.3-3.9-7.3s-3.5 2.6-2.1 6.1c.8 2.4.7 3.4-1.1 6-1.2 1.8-3 3.7-4.1 4.3s-6.3 5.5-11.6 10.9c-9.7 9.7-12.8 11.5-15.7 8.6q-1-1.1-4.7.5c-4 1.7-4.8 4.7-1.9 7.7 1 1 3.3 1.8 5.3 1.8 3.6.1 6-1.7 22.3-17q4.8-4.7 8.5-5.3c4.3-.7 9.8-5.4 11.5-10q.6-1.9 3-1c1.2.4 6 .7 10.8.6 6.5 0 9.8-.5 13.2-2.1 2.5-1.2 5-2.1 5.6-2.1q1 0 1.1-1t1.3-1c.8 0 1.9-1.1 2.5-2.5q2.5-5.6 7.2 2.3c5.5 8.8 6.5 9.7 11 9.6 2.2 0 4.6-.7 5.4-1.3 1.2-1 2.2-.9 5 .4 1.9 1 3.7 2.3 4 3 .7 2 5.3 1.9 9 0 1.7-1 4-1.4 5-1 1.1.2 4-.4 6.3-1.5 4.6-2 6.9-1.5 10.7 2.3 2.5 2.5 8.2 2.2 9.6-.4 1.3-2.3.9-3-5.2-9.2-4-4-5-7.7-2-7.7 2.6 0 9.7 3.5 12.1 6 1.2 1 2.4 2 2.9 1.9 3-.5 4.1.4 4.4 3.4.4 3.8 3 4.8 5.9 2.1 4.4-4 .3-10-7.6-11q-4.4-.7-8.2-4c-5.2-4.6-8-5.1-11.3-1.9-5.1 4.9-11.5.3-9.1-6.5 1.5-4.4.6-7.3-4.5-15.1-6.5-9.9-5.9-12 3.9-13.3 2.6-.4 4.7-1.1 4.7-1.7q.1-.8 1.4-.9c.7 0 2.5-.9 3.9-2s3.3-2 4.2-2 2.2-1.3 2.8-3 2-3 3-3.3c3.8-1 6.3-13.1 3.2-15.7-.8-.7-1.5-2-1.5-3 0-4.2-10.1-8.2-17-8.1m-168.3 39.7-.2-.3q-.5.4.2.3m-.2-.3c.7-.7 3.2-2.8 3-5.5 0-2.8-.4-3.3-2.5-3.3q-2.5-.2-3.4 2.7c-.8 2.3-.6 3 1.5 4.7zm25-8.2q-1 0-2 .9c-2.3 2-3 7.8-1.1 9.9 1.2 1.3 1.5 2.9 1 6.4-.6 4.3-.5 4.7 1.3 4.7 3.7 0 7.3-3.8 7.3-7.6 0-8.2-3.2-14.5-6.6-14.3m80.2 13.2c2 0 6.3 4 6.3 5.8 0 .8-.7 2.5-1.4 3.8-1.3 2.3-1.3 2.3-4-2.4-3-5.4-3.2-6.4-1.2-7zM675 356.5q-1.3 0-3 1.3c-2.6 2.2-3 7.1-.6 10.7 2.2 3.4.7 5.7-3.4 4.8-1.6-.3-5.2.4-9 1.7a19 19 0 0 1-9 1.5q-2.8-.5-5.2.9c-1.4.9-4.2 1.4-7 1.3q-4.7-.2-6.5 1.6-2 1.6-6.4 1.7c-5.6 0-7.1 1-7.1 4.6q0 2.8 2.8 5a11 11 0 0 0 4 2.4c1.8 0 2.4-2.6 1-4q-1.3-1 .8-2.6 3.8-2.7 5 .1c.8 2.1 7.2 1.9 12.1-.5 2.2-1 4.5-2 5-2s2.5-1.4 4.3-3c2.8-2.8 3.6-3 7.7-2.7 2.5.3 5.7 1.2 7 2.1 3.6 2.3 4.8 2 8.8-2.4 3.7-4 5-9 2.7-10.5-.5-.3-1-2.8-1-5.5q0-6.3-3-6.5" transform="translate(-349.7 120.4)" id="path8"/><g fill="#ea9e00" fill-rule="evenodd" id="g10"><path d="m450.3 432.2 2.8 5.7 1.8-.8.7-.8z" stroke="#ea9e00" stroke-width="1.058" id="path9"/><path d="M432.5 410.2c2.8 3.3 1.6 4 2.8 3.3 1.3-.8 3.8 2.5 1.3-.8s-4-3.3-4-2.5" id="path10"/></g></g><!-- app4joy --></svg>