<svg id="svg1" width="340" height="227" viewBox="0 0 340 227" xmlns="http://www.w3.org/2000/svg"><g id="g3"><path id="rect1" fill="#ffffff" d="M0 0h340v227H0z"/><path id="rect2-7" fill="#d72711" d="M0 189.2h340V227H0z"/><path id="rect2" fill="#d72711" d="M0 0h340v37.8H0z"/><path id="rect3" fill="#782121" d="M0 56.8h340v37.8H0z"/><path id="rect3-2" fill="#782121" d="M0 132.4h340v37.8H0z"/></g><g id="g15" fill="#ffd42a"><path id="path4" d="M130.8 66.3c3 .7 5.1 4 6.2 6.7 2.8 7.3 1.9 14 1.5 21.6q-.6 7.3-.8 14.7c9 .7 18.5.2 27.5-.6q-.8-7-1-14.1c0-5.6-1-12.1 1-17.4 2-5 6.9-6.6 11.8-6.7 8.3 0 16.7 1 25 .7 3.7.1 6.9-3.2 10-5 1.7 1.3 4.5 2.7 5 4.9.8 2.2-.8 4.2-2.2 5.7-3.4 3.7-9 4.6-13.8 4.8-8.7.1-17.5-.5-26.2-.5q-.4 6.7-.1 13.5.3 6.6 1 13c8.7-.5 17.7-1.4 26.3-.6 4 .4 7.3 2.6 8.6 6.4 1.8 5.8.5 13 .4 19q-.4 7.4 1 14.7c.7 3.2 2.8 5.7 3.8 8.8-.8 3.1-4.8 6.3-8 4.3-3.4-2.3-5.4-6.8-6.3-10.7a73 73 0 0 1-1-17q.4-7.6.3-15.2c-8-.4-16 .2-24.1.8q.7 7.1.9 14.3c0 5 .5 11-1.6 15.5-2 4.3-6.4 6.1-11 6.3-8.3.2-17.5-1.4-25.8 0-4.4.9-7 5.1-11.2 6a7 7 0 0 1-5.2-6.2c1-3 4.6-5.3 7.3-6.9 7.4-4 15.7-4 23.9-3.7 4 .1 8.5 1 12.4 0 .8-3.5.5-7.4.5-11q-.1-6.8-.7-13.4-11.6.9-23.2 1.2c-4.2-.1-8.7-.3-12.2-3-2.3-1.8-3.2-4.4-3.5-7.2-.3-5.1.3-10.3.6-15.4.3-4.8.8-9.8.2-14.6-.5-3-2.5-5.3-3.6-8-.2-3.2 3-6.4 6.3-5.7"/><path id="path5" d="M151 90c2.9 0 4 2.7 5.5 4.6-1.5 2.1-2.4 5-5.5 5-3 0-4-3-5.4-5 1.5-1.8 2.6-4.6 5.4-4.5"/><path id="path6" d="M189 90c2.8 0 3.9 2.8 5.4 4.6-1.4 2-2.4 5-5.4 5s-4-2.9-5.5-5c1.6-1.9 2.6-4.7 5.5-4.5"/><path id="path11" d="M151 128.1c3-.3 4 2.4 5.7 4.3-1.5 2.4-2.2 5.3-5.7 5.1-3 0-3.8-3-5.1-5.1 1.4-1.6 2.7-4.3 5.1-4.3"/><path id="path12" d="M189 128.1c3-.3 4 2.4 5.7 4.3-1.5 2.4-2.3 5.3-5.7 5.1-3 0-3.8-3-5.2-5.1 1.5-1.6 2.7-4.3 5.2-4.3"/></g><!-- app4joy --></svg>