<svg xml:space="preserve" width="600px" height="400px" style="shape-rendering:geometricPrecision;text-rendering:geometricPrecision;image-rendering:optimizeQuality;fill-rule:evenodd;clip-rule:evenodd" viewBox="0 0 600 400" id="svg1" xmlns="http://www.w3.org/2000/svg"><g id="g2"><path id="_136043096" style="fill:#B00000" d="M0 400V0h600v399.7z"/></g><g id="g1"><path id="_136043144" d="M288 294.8c-28 4.3-28.9 34.3-3 39.7 6-.2 11-3 16.5-5.3h10.8c4.5 1 3.9 1.5 13.9 3.7a19.3 19.3 0 0 0 14.4-35.7c-7.1-1.3-12.2-.3-14.4-5.3 0-5-.8-10.8-.8-15.6-.6-12.8-.3-26.9-.2-32.3 2-36.7 39.2-47 43.4-33 23.2 1.7 47.8-1.4 66.2-21.9-5.2 1.6-19.8 1.7-25.8 1.7-13.3-2.1-17.2-4.6-27.5-6.3-5.4.1-10.9 4-9 10.2 2 6 11.6 5.6 20.9 4.7-6.4 4.4-17.3 3.8-20.3 1.9-5.8-4-8.7-17.8 8.4-20.1 6.2-.8 31.3 12.6 52 5-36.8-7.9-83.5-29.6-80.3 12.4-2.9 2.5-14.8-1.7-17.4-8.2-5.8 3.5-5.3 9.4-2.3 14.7-9.6 0-9.3-1-17-5.1-7.5 3-9.1 12.7-4.7 20q-20.5-2.6-21.1-16.5c-4.4 2.2-8.7 1.6-12.9 1 .4-5.4.1-10.6-1.9-14.6q-8 10.5-22.6 7.5c10.8-15.7-4.5-24.6-24.5-24.3-13.3 0-29.2 17.1-52.1 18.5 12.7 3.9 26.7 1 41-5.2 30.3-12.4 36 24.2.6 17.1 36 .3 19.7-24.2 1.2-15.2-12 4.6-21.5 11.2-39.4 7.5q27.8 28.4 69 10.7c55.3 6.6 40 63.8 38.8 88.3z" style="stroke:#500000;stroke-width:0.1866;stroke-linejoin:round;fill:#F7C200"/><path id="_136048592" d="M274.7 320c4.4 4.2 11.5 3 12.1-4.2-4.2-6.6-7.3-5.6-12.9-3.4q7.5 2 4.5 3.1v3.4c-.5 1-2.5.7-3.7 1z" style="stroke:#500000;stroke-width:0.1866;stroke-linejoin:round;fill:#AB7A00"/><path id="_136046592" d="M340 319.5c2.3-1.6 1.2-1.8-2-2.7q-2-.9-.6-3.4c2.3-.1 3.4 0 3.3-1.2-2.8-2.3-7.7-5.5-9.8 2.4-.3 4.9 5 7.1 9.1 4.9z" style="stroke:#500000;stroke-width:0.1866;stroke-linejoin:round;fill:#AB7A00"/><path id="_136059896" d="M337 252.3a32 32 0 0 1 2.3-6.4c3.6 1.4 10.6-1.9 17.8-6.4-2 9.3-8.4 14.2-20 12.8z" style="stroke:#500000;stroke-width:0.1866;stroke-linejoin:round;fill:#F7C200"/><path id="_136051096" d="M360.8 172.2c-7.6-1-11.5-4.6-11.7-9.7-9.6-12-15.3-11.1-26.5-3-9.8-6.6-22-7.3-32.8 0-13.9-6.7-24.9-5-27.1-.7-2 3.8.7 12.4-13.5 14.3 6.7 3.3 11.5 9.4 8.7 22.4 4.4 1.7 11.9-2 19.6-10.7a63 63 0 0 1 3.3 18c5 1.2 8.7-1.9 13-8-1 9.7.4 18.9 12.7 21.4a20 20 0 0 1 9.7-20.7q9.5 8 11.8 5.4c-.2-7 3.2-12.3 8.3-16.9 1.8 6.2 7.5 13.4 16.2 12.4-1.3-13.7 1.3-20.2 8.3-24.2z" style="stroke:#500000;stroke-width:0.1866;stroke-linejoin:round;fill:#F7C200"/><path id="_136068408" d="M263 65c-24.6 16.2-36.7 49.5-25.7 71 5 13.2 19.2 13.2 23 22.4-1.2 11-7.9 12.9-20.3 12.2a53 53 0 0 1-25-56.5 60 60 0 0 1 48-49z" style="stroke:#500000;stroke-width:0.1866;stroke-linejoin:round;fill:#F7C200"/><path id="_21407192" d="M347.7 65c24.6 16.2 36.8 49.5 25.7 71-5 13.2-19.1 13.2-22.8 22.4 1 11 7.8 12.9 20.1 12.2A53 53 0 0 0 396 114a60 60 0 0 0-48.2-49Z" style="stroke:#500000;stroke-width:0.1866;stroke-linejoin:round;fill:#F7C200"/><path id="_136070832" d="M277 245.6c-16 1.7-27.2-9.9-25.2-22.6 12.5.3 21.9 9.3 25.1 22.6z" style="stroke:#500000;stroke-width:0.1866;stroke-linejoin:round;fill:#F7C200"/><path id="_136075104" d="M284.2 269.3c-1.8-28.8-8.7-49.3-34.8-49q-2.7-7 0-11.2c33.7 6.7 42.2 28.9 38 60.5l-.8 15.8z" style="stroke:#500000;stroke-width:0.1866;stroke-linejoin:round;fill:#F7C200"/><path id="_136083992" d="M277.5 253c0-1.7.4-3.6.3-5.9a25 25 0 0 1-22.8-5c-1.4 7.3 3.5 11.6 22.5 11z" style="stroke:#500000;stroke-width:0.1866;stroke-linejoin:round;fill:#F7C200"/><path id="_136080000" d="M285 293.5c-.7-14-3.4-27-6.1-37.3-5.2.1-9.8.1-15 .6q5.8 18.2 13.6 36.7c2.5-.4 5.2.3 7.5 0z" style="stroke:#500000;stroke-width:0.1866;stroke-linejoin:round;fill:#F7C200"/><path id="_136089336" d="M361.8 221.2c-12.1-1.8-21.9 11-21.2 22.6 7.4.3 26.2-13.7 21.2-22.6z" style="stroke:#500000;stroke-width:0.1866;stroke-linejoin:round;fill:#F7C200"/><path id="_136088328" d="M362 219q5-4.2 2-11.2c-36.7-.2-38.3 35.7-35.1 77.6 4.7-30.4 9-72.3 33-66.5z" style="stroke:#500000;stroke-width:0.1866;stroke-linejoin:round;fill:#F7C200"/><path id="_136089976" d="M339 293.5c3.8-11.8 7.7-25.4 10-39.4-3.6.7-8.5.2-12.2.9a311 311 0 0 0-6.5 37.9c2.8.2 6.1.6 8.6.6z" style="stroke:#500000;stroke-width:0.1866;stroke-linejoin:round;fill:#F7C200"/><path id="_136093944" d="M316.4 334.3c-3.6 5-15.2 6.8-19 0-3.2-1 13.3-6.4 19 0z" style="stroke:#500000;stroke-width:0.1866;stroke-linejoin:round;fill:#F7C200"/><path id="_136105656" d="M293.8 335.7c-2.8-.3-3.4.2-3 1.1-2.4 7.2 24 16.8 33-.5 2.6-1.5-1-2.4-4.4-.6-9 8.8-17.5 6.6-25.6 0z" style="stroke:#500000;stroke-width:0.1866;stroke-linejoin:round;fill:#F7C200"/><path id="_136103280" d="M444 281.3c-10.7 4.4-30.3-1.5-32-17.5 0-20.7 16.7-25.1 29-20.7-15.1-11.8-47.2-11.8-47.2 22.2 1.4 19 30.7 32 50.3 16z" style="stroke:#500000;stroke-width:0.1866;stroke-linejoin:round;fill:#F7C200"/><path id="_136101648" d="M183.3 253.6c-3.2-5.8-8-19-21.6-13.1-1.5 4.4 0 10.4-1.5 13-7.6 6.5-3.1 10.7 3 15 7.4-3 13.6-4.3 16.9-4.3 0-2.8 1.6-7.7 3.2-10.6z" style="stroke:#500000;stroke-width:0.1866;stroke-linejoin:round;fill:#F7C200"/><path id="_136109224" d="M186.3 250.9h9c3 0 6-6 10.6-9 1.6-4.3 1.6-5.8 0-7.3-6-2.8-10.7-4.2-15-1.2-4.6-3-7.6-3-10.8 0-3.3 2.7 1.6 11.5 6.2 17.5z" style="stroke:#500000;stroke-width:0.1866;stroke-linejoin:round;fill:#F7C200"/><path id="_136113152" d="M219.5 256.5c-1.5-5.6 0-10 0-13.1-3-4.4-6.2-4.4-9-1.4-4.6 4.4-7.6 8.9-10.6 11.6 1.4 4.4 3 7.8 1.4 12 7.7 0 12 1.5 16.7 4.4 3.1-1.5 6.1-4.4 4.5-5.8 0-4.2-1.4-6.2-3-7.7z" style="stroke:#500000;stroke-width:0.1866;stroke-linejoin:round;fill:#F7C200"/><path id="_136117528" d="M199.9 293.3s6-2.9 10.6-7.3c4.4-4.5 6-7.1 6-11.6-1.6-2.9-6-4.4-15.2-6-1.4 3.1-6 4.5-9 6 0 4.5 0 7.1-1.4 14.5q6.6 4.4 9 4.4z" style="stroke:#500000;stroke-width:0.1866;stroke-linejoin:round;fill:#F7C200"/><path id="_136121792" d="M189.3 273c-4.6 0-6-3-9.2-7.4-3.3 1.5-12.5 2.9-16.8 7.3-3 4.5-1.6 8.7 9 14.6 6.4 4.5 11 7.4 17 1.4z" style="stroke:#500000;stroke-width:0.1866;stroke-linejoin:round;fill:#F7C200"/><path id="_136130184" d="M190.9 270c-4.6 0-7.6-3-7.6-7.3 0-4.7 3-10.4 7.6-10.4 4.3 0 9 5.7 9 10.4 0 4.4-4.6 7.3-9 7.3z" style="stroke:#500000;stroke-width:0.1866;stroke-linejoin:round;fill:#F7C200"/><path id="_136134464" style="stroke:#500000;stroke-width:0.1866;stroke-linejoin:round;fill:#F7C200" d="m322.9 99.1 8.5 27.2-25-15.6-24.5 15.6 7.6-27.2-23.7-16.8 30.1-1.8 10.5-27.2 9.6 27.2 29.7 1.4z"/></g><!-- app4joy --></svg>