<svg width="900" height="600" id="svg6442" viewBox="0 0 900 600" xmlns="http://www.w3.org/2000/svg"><g id="g12021"><path d="M0 0v600h886.9l13.1-13v-6.8l-13.1-13H600.6V316.3h286.3l13.1-13v-6.7l-13.1-13.1H600.6V32.9h286.3L900 19.8V13L886.9 0H600.6Z" fill="#dc171c" id="path6362" style="display:inline"/></g><g fill="#ffd42a" transform="translate(175.2 83.7)scale(1.26388)" id="g6370" style="display:inline"><path d="M98.3 155.5a24 24 0 0 0-9.4 46.2 13 13 0 0 1-4-9.6c0-7.5 6-13.5 13.3-13.5a11.6 11.6 0 0 0 2-23zm9.4 2a13 13 0 0 1 4 9.5c0 7.4-6 13.5-13.4 13.5a11.6 11.6 0 0 0 0 23.1 24 24 0 0 0 9.4-46.2m-9.4 7.5a2 2 0 1 1 0 4 2 2 0 0 1 0-4m0 25a2 2 0 0 1 2 2 2 2 0 0 1-2 2 2 2 0 0 1-2-2 2 2 0 0 1 2-2M127 122h17v115.4h-17zm-52.9 0h48.1l-24 14.4m-24 86.6h48l-24 14.4M52.4 121.8h17v115.5h-17z" id="path6364"/><circle r="15" cx="98.274002" cy="87.607002" id="circle6366"/><path d="M66.1 89a32.5 32.5 0 0 0 32.2 28 32.5 32.5 0 0 0 32.1-28 37 37 0 0 1-32.1 19.2A37 37 0 0 1 66 89m8.1 50.9h48.1v12h-48Zm0 67.4h48.1v12h-48ZM97.8 37.6c0 1 .3 2.2 0 3-1 2.2-3.3 4.3-3.4 6.1 0 2.9 1.3 4.6 1.7 6.2.8 4.4-3 4.3-2.8.7.2-1.1-.3-3.1-1.4-4-.6.7-.4 1.2-.6 1.8-1 2.8-3.1 4.4-2.6 7.7 2.9 13.3 18.6 8.9 19.2.4.3-3.2-1.5-4.4-2.3-6.6-.3-1-.6-1.5-.6-2.5q.2-1.8.1-3.3c0-.5-.8-.8-1-1.6-.6.7-.3 1.5-.4 2.2-.2 1-1 1.4-1 2.5-.1 1 .3 1.4.3 2.3-.1 1.4-2.3 1-2.6 0q-.4-1.4 0-3.4c.4-2 1.6-4 1.3-6a9 9 0 0 0-3.9-5.5" id="path6368"/></g><g id="g12018" style="display:inline"><path d="M299.4 392.3c-2.3 4.5-18.3 8.8-19.2 14-14.7-13.8-26.4-4.6-32.3-8.3-.9 1.9-.7 2.2-.5 3.8-6-5.4-17 1.8-24 1-.3 3.5-.6 7 .7 9.1-11.2-2.3-12.8 5.7-23.3 4.7-.9 14.2 9.8 23.8 27.2 25.1a34 34 0 0 0-3.6 21.6c7.7-6.1 17-1.2 23-6.6-.9 4 .2 8.8 1.7 11.8 3.7-8 24.3-7.2 30-17.2 4.7 8.6 16.8 11.3 20.3 17.4 3.5-6.1 15.6-8.8 20.4-17.4 5.6 10 26.2 9.1 30 17.2a20 20 0 0 0 1.6-11.8c6 5.4 15.3.5 23 6.6a34 34 0 0 0-3.6-21.6c17.5-1.3 28.1-10.9 27.3-25.1-10.6 1-12.2-7-23.4-4.7 1.4-2.1 1-5.6.7-9-6.9.7-18-6.5-24-1.1.2-1.6.4-2-.4-3.8-6 3.7-17.6-5.5-32.4 8.3-.9-5.2-16.9-9.5-19.2-14" fill="#006628" id="path6372"/><path d="M319.8 409.3c13.2-12.6 19.4-5.5 28.8-8-3.4 17.3-21.7 28-32.2 27.3 7.3-3 15-6.5 17.8-16.4-6 11.3-14.7 12-20.6 15a21 21 0 0 0 6.2-17.9m-4 22.2c5.3 7.2 5.6 12.3 4.5 16.6 9 11.4 19.2 7.7 28.5 15.3a30 30 0 0 0-16.5-31.6h-7.6a35 35 0 0 1 17 18.2c-3.9-6.6-18.7-18.2-26-18.5" fill="#009b3b" id="path6374"/><path d="M332.8 427.2c6 1.1 22.4-7.7 28.8-14.8-1.6 5.3-10.3 12.6-21 15.8l12.3-.8c8.4-6 22-12.4 20.1-21.6-7.6-.2-14.4-6.2-22.8-.6-2.2 11.1-12.3 18-17.4 22m25 .4c5.6-2 15.2-12.7 15.2-12.7 6.9-3.8 12.2 2.7 22.7 4.2.3 12.9-14.2 21-26.2 19.9-2.6-2.6-5.3-5.5-9.6-7.7 7.2.2 18.2-2 23.7-6.6-5.9 1.2-16 4-25.8 3m-20.1 3.7c7 5.2 12.8 12.7 13.6 21.8 6.7 5.9 15 3.1 21 5.7.4-9.7-6.3-25.9-24-28 8.1 4.2 15.6 11.7 16 19-6.2-10-17.1-18.4-26.6-18.5M299.4 396c-8.1 7.5-29.7 10-10.4 31.8-4-8.6-2.2-16.4 10.4-22.6 12.6 6.2 14.4 14 10.4 22.6 19.3-21.9-2.3-24.3-10.4-31.8" fill="#009b3b" id="path6376"/><path d="M299.4 408.5c-10.3 4.3-10.7 10.2-7.6 19.3 1.8-.4 6.3-.4 7.6-.4s5.9 0 7.6.4c3.2-9.1 2.8-15-7.6-19.3m-7.7 23.4c-6.9 13.3 4.7 17.2 7.7 18.9 3-1.7 14.6-5.6 7.7-19q-8-.8-15.4 0" fill="#009b3b" id="path6378"/><path d="M287.4 431.8c-16.8 19.1 4.4 25.4 12 32.7 7.7-7.3 28.8-13.6 12-32.7 3.8 10.8-2.7 17.4-12 22.1-9.3-4.7-15.7-11.3-12-22.1m-8.3-22.5c-13.3-12.6-19.4-5.5-28.9-8 3.5 17.3 21.7 28 32.3 27.3-7.3-3-15-6.5-17.8-16.4 5.9 11.3 14.6 12 20.5 15a21 21 0 0 1-6.1-17.9" fill="#009b3b" id="path6380"/><path d="M283.1 431.5c-5.4 7.2-5.6 12.3-4.5 16.6-9.1 11.4-19.2 7.7-28.5 15.3a30 30 0 0 1 16.4-31.6h7.6a35 35 0 0 0-16.9 18.2c3.8-6.6 18.6-18.2 26-18.5m-17-4.3c-6 1.1-22.5-7.7-29-14.8 1.7 5.3 10.4 12.6 21.2 15.8l-12.4-.8c-8.3-6-22-12.4-20.1-21.6 7.6-.2 14.4-6.2 22.8-.6 2.2 11.1 12.4 18 17.5 22m-25 .4a60 60 0 0 1-15.3-12.7c-6.8-3.8-12.2 2.7-22.6 4.2-.4 12.9 14.2 21 26.2 19.9 2.5-2.6 5.2-5.5 9.6-7.7-7.2.2-18.3-2-23.7-6.6 5.8 1.2 15.9 4 25.8 3" fill="#009b3b" id="path6382"/><path d="M261.2 431.3a32 32 0 0 0-13.7 21.8c-6.6 5.9-15 3.1-21 5.7-.4-9.7 6.4-25.9 24-28-8 4.2-15.6 11.7-16 19 6.2-10 17.2-18.4 26.7-18.5" fill="#009b3b" id="path6384"/></g><g aria-label="ᠮᠣᠩᠭᠣᠯ ᠠᠷᠠᠳ ᠤᠯᠤᠰ" style="line-height:1.25;-inkscape-font-specification:&quot;MongolianScript, Normal&quot;;font-variant-ligatures:normal;font-variant-caps:normal;font-variant-numeric:normal;font-feature-settings:normal;text-align:start;display:inline" font-weight="400" font-size="24px" font-family="MongolianScript" letter-spacing="0" word-spacing="0" writing-mode="tb-rl" fill="#ffffff" stroke-width="1.857" id="g6410"><path d="M475.1 146.8v9.1h-7v-6.4l-12.5-3.6 14.3-3 4.7-1 2.6-.8q2-.7 2-1.9 0-1.6-1.6-4-1.1-2-2.5-3.5 3.3.2 6.7 2.4 3.8 2.2 4 5l8.8 2.2V153l3.6 1.8h-5.3L488 153v-11l-2.7-1.3q-1.6 3.2-11.2 3.8-2 .2-1.2.7z" style="-inkscape-font-specification:&quot;MongolianScript, Normal&quot;;font-variant-ligatures:normal;font-variant-caps:normal;font-variant-numeric:normal;font-feature-settings:normal;text-align:start" id="path6386"/><path d="M475.1 172.6h-7v-5.2q-5.6 0-8.3-.6-6-1.4-6-5.6 0-3.6 5.3-6 4.3-2 8.4-2h7.6zm-7-7V155h-.6q-2.3 0-4.4 1.6-2.3 1.8-2.3 4.2 0 4.7 6 4.8z" style="-inkscape-font-specification:&quot;MongolianScript, Normal&quot;;font-variant-ligatures:normal;font-variant-caps:normal;font-variant-numeric:normal;font-feature-settings:normal;text-align:start" id="path6388"/><path d="m468 178-12.4-3.5 12.5-3.6h7v10.7q10.6 2.2 10.1 8.5-.4 3.1-4.3 4.6-2.2.7-5.8 1.2v1.4h-7v-2q10.2-1.8 11-5.5.9-2.9-1.6-4.7-2.4-2-5.7-2-5.9.8-9.5 5.8l-5-2.8q6-4.1 10.8-4.5z" style="-inkscape-font-specification:&quot;MongolianScript, Normal&quot;;font-variant-ligatures:normal;font-variant-caps:normal;font-variant-numeric:normal;font-feature-settings:normal;text-align:start" id="path6390"/><path d="M475.1 218.4h-7V213l-12.5-3.6 12.5-3.5v-3.6l-12.5-3.5 12.5-3.6h7zm-26.6-4.8q-.2-1.2-2.1-2.6-1.8-1.1-3.2-1.4l1.6-.6q.8-.3 1.6-.9 1.9-1.2 2.1-2.5.3 1.4 2.2 2.6 1.6 1 3.2 1.4-1.7.3-3.2 1.3-1.8 1.3-2.2 2.7m0-10q-.2-1.2-2.1-2.5-1.8-1.2-3.2-1.5l1.6-.5 1.6-1q1.9-1.2 2.1-2.5.3 1.3 2.2 2.6 1.6 1.2 3.2 1.4-1.7.4-3.2 1.4-1.8 1.3-2.2 2.6" style="-inkscape-font-specification:&quot;MongolianScript, Normal&quot;;font-variant-ligatures:normal;font-variant-caps:normal;font-variant-numeric:normal;font-feature-settings:normal;text-align:start" id="path6392"/><path d="M475.1 235.5h-7v-5.2q-5.6 0-8.3-.6-6-1.4-6-5.6 0-3.6 5.3-6 4.3-2 8.4-2h7.6zm-7-7v-10.6h-.6q-2.3 0-4.4 1.6-2.3 1.8-2.3 4.2 0 4.6 6 4.8z" style="-inkscape-font-specification:&quot;MongolianScript, Normal&quot;;font-variant-ligatures:normal;font-variant-caps:normal;font-variant-numeric:normal;font-feature-settings:normal;text-align:start" id="path6394"/><path d="M486 245.6q-11.4.5-30.4-4.3l12.5-5.3v-2.2h7v4.3l-11.2 2q-.4.4.3.7 13.5 2.4 19.8 1.9 6.4-1.2 6.3-7l.2-9.9 6.7 12.8q.7 2 .6 2.7-1 1.7-3.5 2.8-2.4 1.2-8.3 1.5m-10.9 54.6h-7v-5.5l-12.5-3.6 12.5-3.5V284l-12.5-3.5 14.3-3 4.7-1.1 2.6-.7q2-.7 2-1.9 0-1.6-1.6-4-1.1-2-2.5-3.5 3.3.2 6.8 2.4 4 2.4 4 5.1 0 2.8-4.6 4.2l-2.9.7-3.3.3z" style="-inkscape-font-specification:&quot;MongolianScript, Normal&quot;;font-variant-ligatures:normal;font-variant-caps:normal;font-variant-numeric:normal;font-feature-settings:normal;text-align:start" id="path6396"/><path d="M468 304q.1-.9-.9-.5l-9.7 8.3-5.3-3.5 6-4-5.3-4 11.7.3 3.6-2.4h7V316h-7z" style="-inkscape-font-specification:&quot;MongolianScript, Normal&quot;;font-variant-ligatures:normal;font-variant-caps:normal;font-variant-numeric:normal;font-feature-settings:normal;text-align:start" id="path6398"/><path d="M475.1 326.5h-7v-5.3l-12.5-3.6 12.5-3.3v-.2h7z" style="-inkscape-font-specification:&quot;MongolianScript, Normal&quot;;font-variant-ligatures:normal;font-variant-caps:normal;font-variant-numeric:normal;font-feature-settings:normal;text-align:start" id="path6400"/><path d="M492.9 363.7q-5.2-3.5-11.8-6.2l-5.8-2.2-6.8-2.2-12.9-3.5 12.5-3.6v-7q-5.6 0-8.3-.7-6-1.4-6-5.6 0-3.6 5.3-6 4.3-2 8.4-2h7.6V346l-6.5 1.6-4.3 1q7.2.5 13.5 1.4 14.6 2.5 20.7 6.6l5-1-4.8 3.5zM468 337.1v-10.6h-.6q-2.3 0-4.4 1.6-2.3 1.9-2.3 4.2 0 4.7 6 4.8zm0 80v-5.5h-1.3q-13 0-13-6.2 0-3.6 5.5-6 4.6-2 8.8-2v-3.6l-12.5-3.5 14.3-3 4.7-1.1 2.6-.7q2-.7 2-1.9 0-1.6-1.6-4-1.1-2-2.5-3.5 3.3.2 6.8 2.4 4 2.4 4 5.1 0 2.8-4.6 4.2l-2.9.7q-1.5.3-3.3.3v28.3zm0-18h-.6q-2.3 0-4.5 1.7-2.2 1.8-2.2 4.2 0 2.9 2.3 4 .9.4 2 .6 1.3.2 3 .2z" style="-inkscape-font-specification:&quot;MongolianScript, Normal&quot;;font-variant-ligatures:normal;font-variant-caps:normal;font-variant-numeric:normal;font-feature-settings:normal;text-align:start" id="path6402"/><path d="M475.1 418.2q5.7 3.4 9.4 2.7 3.4-1 3.5-2.1l.2-9.4 3 3.8q2.2 3.8 3.5 7.1.3 1.9-2.7 2.9t-6.2.7q-5.4-.4-10.6-3.5v7.5H468v-5.7l-12.5-3.5 12.5-3.6h7z" style="-inkscape-font-specification:&quot;MongolianScript, Normal&quot;;font-variant-ligatures:normal;font-variant-caps:normal;font-variant-numeric:normal;font-feature-settings:normal;text-align:start" id="path6404"/><path d="M475.1 445.5h-7v-5.6q-5.6 0-8.3-.6-6-1.4-6-5.6 0-3.6 5.3-6 4.3-2 8.4-2h7.6zm-7-7.4v-10.6h-.6q-2.3 0-4.4 1.6-2.3 1.9-2.3 4.2 0 4.7 6 4.8z" style="-inkscape-font-specification:&quot;MongolianScript, Normal&quot;;font-variant-ligatures:normal;font-variant-caps:normal;font-variant-numeric:normal;font-feature-settings:normal;text-align:start" id="path6406"/><path d="m475.1 456.3 2.6.8 3.3 1.5q1.6.8 3.3 1.9 6.1 3.6 8.6 7.8-13-8.3-26-5.5l-13-3.3 21.2-6.2L454 447l14.2-3.6h7v2l17.2 4.9q.8.7-.1 1.1z" style="-inkscape-font-specification:&quot;MongolianScript, Normal&quot;;font-variant-ligatures:normal;font-variant-caps:normal;font-variant-numeric:normal;font-feature-settings:normal;text-align:start" id="path6408"/></g><g aria-label="ᠪᠦᢉᠦᠳᠡ ᠨᠠᠶᠢᠷᠠᠮᠳᠠᠬᠤ" style="line-height:1.25;-inkscape-font-specification:&quot;MongolianScript, Normal&quot;;font-variant-ligatures:normal;font-variant-caps:normal;font-variant-numeric:normal;font-feature-settings:normal;text-align:start;display:inline" font-weight="400" font-size="24px" font-family="MongolianScript" letter-spacing="0" word-spacing="0" writing-mode="tb-rl" fill="#ffffff" stroke-width="1.44" id="g6440"><path d="M129 181.2h-7v-11.6l-4 2q-5 2.3-7.2 5.9l-6.6-5 4.7-2.2q4.6-2 13-4v-2h-.4q-13.8 0-13.8-5.8 0-3.8 10.5-7.3-10.5-1-10.5-5.1 0-3.7 5.2-6.3 4.3-2.1 8.5-2.1h7.6q5.4 0 9.7 4 4.5 4 4.5 9.4 0 4.8-4.7 8.7-4.2 3.5-9.6 4.3zm0-19.6q3.2-1.4 5.1-4.2 2-2.8 2-6.2 0-3.7-1.7-7.2-2.2-4.2-5.4-4.4zm-7-9h-.7q-2.4 0-4.4 1.8-2.3 1.9-2.3 4.3 0 2.5 2.7 3.3l1.8.3q1.2.2 2.8.2zm0-13h-.5q-2.5-.1-4.6 1.8-2.3 2-2.3 4.4t2.7 3.2q1.3.5 4.6.5z" style="-inkscape-font-specification:&quot;MongolianScript, Normal&quot;;font-variant-ligatures:normal;font-variant-caps:normal;font-variant-numeric:normal;font-feature-settings:normal;text-align:start" id="path6412"/><path d="M122 203.4V193l-2.6.3q-2.4.7-3.8 2.2t-1 3.5q.3 3.8 7.3 4.3m14.1-9.8q0-5.3-3.5-7.6-2.3-2.1-7.6-2.1-6.5.4-9.5 4.9l-6-4.2q5.6-3 12.5-3.8h6.7q6.2 1 9.7 3.8 4.9 3.7 4.8 9.5 0 4.3-3.8 7.7-3.4 2.5-10.4 3.2v6.1h-7v-6q-4.8.1-9.5-1.2t-4.7-6q.4-2.6 3.1-4.3t6.7-2 11.4 0v11.9q2.9-.4 5-2.8t2.1-7" style="-inkscape-font-specification:&quot;MongolianScript, Normal&quot;;font-variant-ligatures:normal;font-variant-caps:normal;font-variant-numeric:normal;font-feature-settings:normal;text-align:start" id="path6414"/><path d="M107.9 218.1q-3.1 1.5-3 4.6.7 3.4 4 3.3 1.9 0 3.1-1.2 1.2-1.3 1.1-3.2 0-1.5-1.6-2.7-1.5-1.2-3.6-.8m4.8-3q4.5 1.6 4.8 6 0 3-2.3 5-2.5 2.2-6.4 2.2-3-.2-4.9-1.8-1.8-1.6-2.1-4.2-.3-4.3 4.3-7.5 2.6-1.9 7.5-4.2t8.3-2.8h7v23.8h-7v-20.3q-1 0-4.5 1.4-3.6 1.5-4.7 2.4" style="-inkscape-font-specification:&quot;MongolianScript, Normal&quot;;font-variant-ligatures:normal;font-variant-caps:normal;font-variant-numeric:normal;font-feature-settings:normal;text-align:start" id="path6416"/><path d="M146.7 251.5q-5.1-3.5-11.8-6.2l-5.7-2.2-6.9-2.1-12.8-3.6 12.4-5.4v-.6h7v2.4l-5.4 1-5.5 1.1q-.4.3.1.5 7.3.5 13.5 1.5 14.7 2.4 20.8 6.5l5-1-4.8 3.5zM129 316.3h-7v-6l-12.5-3.6 14.3-3 4.7-1 2.6-.7q1.9-.8 1.9-2 0-1.5-1.5-4-1.2-2-2.5-3.4 3.3.2 6.8 2.3 3.9 2.5 3.9 5.2t-4.6 4.1q-1.3.5-2.8.7-1.5.3-3.3.4zm-26.6-5.6q-.3-1.2-2.2-2.5-1.6-1.1-3.1-1.5 1.5-.3 3.1-1.4 2-1.3 2.2-2.5.3 1.3 2.1 2.6 1.7 1 3.2 1.3-1.5.3-3.2 1.5t-2.1 2.5" style="-inkscape-font-specification:&quot;MongolianScript, Normal&quot;;font-variant-ligatures:normal;font-variant-caps:normal;font-variant-numeric:normal;font-feature-settings:normal;text-align:start" id="path6418"/><path d="M129 326h-7v-5.3l-12.5-3.5 12.4-3.3v-.3h7z" style="-inkscape-font-specification:&quot;MongolianScript, Normal&quot;;font-variant-ligatures:normal;font-variant-caps:normal;font-variant-numeric:normal;font-feature-settings:normal;text-align:start" id="path6420"/><path d="M129 324.3V339h-7v-11.2l-4 1.8q-5 2.3-7.2 6l-6.6-5.1 4.7-2.2q4.6-2 13-4z" style="-inkscape-font-specification:&quot;MongolianScript, Normal&quot;;font-variant-ligatures:normal;font-variant-caps:normal;font-variant-numeric:normal;font-feature-settings:normal;text-align:start" id="path6422"/><path d="M122 338h7v14.6h-7v-11l-4 1.6q-5 2.4-7.2 6l-6.6-5 5.1-2.4q5-2.2 12.6-3.8" style="-inkscape-font-specification:&quot;MongolianScript, Normal&quot;;font-variant-ligatures:normal;font-variant-caps:normal;font-variant-numeric:normal;font-feature-settings:normal;text-align:start" id="path6424"/><path d="M122 357.6q0-1-1-.5l-9.7 8.3-5.3-3.6 6-3.9-5.3-4 11.7.3 3.5-2.4h7v17.6h-7z" style="-inkscape-font-specification:&quot;MongolianScript, Normal&quot;;font-variant-ligatures:normal;font-variant-caps:normal;font-variant-numeric:normal;font-feature-settings:normal;text-align:start" id="path6426"/><path d="M129 380h-7v-5.2l-12.5-3.6 12.4-3.3v-.2h7z" style="-inkscape-font-specification:&quot;MongolianScript, Normal&quot;;font-variant-ligatures:normal;font-variant-caps:normal;font-variant-numeric:normal;font-feature-settings:normal;text-align:start" id="path6428"/><path d="M130 381.1q-2.3-.6-5.2 0 3.3 1.6 4.2 2.2v8.1h-7v-6l-12.5-3.6 12.4-3.5h7v.9l11.2 2.5v17.8l-6.6-3.3v-13.8z" style="-inkscape-font-specification:&quot;MongolianScript, Normal&quot;;font-variant-ligatures:normal;font-variant-caps:normal;font-variant-numeric:normal;font-feature-settings:normal;text-align:start" id="path6430"/><path d="M107.9 399.2q-3.1 1.5-3 4.6.7 3.4 4 3.3 1.9 0 3.1-1.2 1.2-1.3 1.1-3.2 0-1.5-1.6-2.7-1.5-1.2-3.6-.8m4.8-3q4.5 1.6 4.8 6 0 3-2.3 5-2.5 2.2-6.4 2.2-3-.2-4.9-1.8-1.8-1.6-2.1-4.2-.3-4.3 4.3-7.5 2.6-1.9 7.5-4.2t8.3-2.8h7v23.8h-7v-20.3q-1 0-4.5 1.4-3.6 1.5-4.7 2.4" style="-inkscape-font-specification:&quot;MongolianScript, Normal&quot;;font-variant-ligatures:normal;font-variant-caps:normal;font-variant-numeric:normal;font-feature-settings:normal;text-align:start" id="path6432"/><path d="M129 423.5h-7v-5.2l-12.5-3.6 12.4-3.3v-.2h7z" style="-inkscape-font-specification:&quot;MongolianScript, Normal&quot;;font-variant-ligatures:normal;font-variant-caps:normal;font-variant-numeric:normal;font-feature-settings:normal;text-align:start" id="path6434"/><path d="M129 444.8h-7v-5.3l-12.5-3.5 12.4-3.6V429l-12.4-3.6q1.7-.4 3.3-1l3.3-1q5.4-1.5 5.8-1.5h7z" style="-inkscape-font-specification:&quot;MongolianScript, Normal&quot;;font-variant-ligatures:normal;font-variant-caps:normal;font-variant-numeric:normal;font-feature-settings:normal;text-align:start" id="path6436"/><path d="M128.7 462.3q-4.5 0-5-.3l.1-1q7.5-.5 10.3-2.7 2-1.6 2-5t-1.8-5.7q-2-2.3-5.3-2.5v10q-4.5 1.6-10.7 1.6-10.6 0-10.6-5.2 0-3.7 5.2-6.3 4.3-2.1 8.5-2.1h7.6q5.7 0 9.6 2.4 4.6 2.8 4.6 8.2 0 4.6-5.3 6.9-4 1.7-9.2 1.7m-6.8-7.5v-10h-.4q-2.4 0-4.6 1.8-2.3 2-2.3 4.4 0 3.6 6 3.7z" style="-inkscape-font-specification:&quot;MongolianScript, Normal&quot;;font-variant-ligatures:normal;font-variant-caps:normal;font-variant-numeric:normal;font-feature-settings:normal;text-align:start" id="path6438"/></g><!-- app4joy --></svg>