<svg id="svg2" width="1200" height="600" viewBox="0 0 1200 600" xmlns:xlink="http://www.w3.org/1999/xlink" xmlns="http://www.w3.org/2000/svg"><g id="g1"><use height="1052.3622" width="744.09448" y="0" x="0" style="fill:#f5bf22" xlink:href="#star" transform="matrix(200 0 0 200 600 300)" id="use25"/><use height="1052.3622" width="744.09448" y="0" x="0" style="fill:#dd0000" xlink:href="#star" transform="matrix(180 0 0 180 600 300)" id="use27"/><use xlink:href="#star" transform="matrix(200 0 0 200 600 300)" id="use25-1" style="fill:#f5bf22" x="0" y="0" width="1" height="1"/><use xlink:href="#star" transform="matrix(180 0 0 180 600 300)" id="use27-7" style="fill:#dd0000" x="0" y="0" width="1" height="1"/><path style="fill:#ffffff;fill-rule:evenodd" id="rect2422" d="M0 0h1200v600H0z"/><path style="fill:#d80514;fill-opacity:1;fill-rule:evenodd" id="rect2420" d="M40 40h1120v520H40z"/></g><g id="g3040" style="fill:#ffffff"><path style="fill:#ffffff;fill-rule:evenodd" id="path12" d="M450 250a383 383 0 0 0 300 0v100a383 383 0 0 0-300 0z"/><path style="fill:#ffffff;fill-rule:evenodd" id="path14" d="M650 150a383 383 0 0 0 0 300H550a383 383 0 0 0 0-300z"/></g><!-- app4joy --></svg>