<svg viewBox="0 0 1199.9997 1600" id="svg13045" xmlns="http://www.w3.org/2000/svg"><g id="g15742"><path style="display:inline;fill:#087c35" id="polygon12987" d="M0 0v904.1l1200-452z"/><path style="display:inline;fill:#087c35" id="polygon12989" d="m0 1600 1200-452.1L0 695.9z"/><path style="display:inline;fill:#e52320" id="polygon12991" d="m62.6 821.7 981.1-369.6L62.6 82.5z"/><path style="fill:#e52320" id="polygon12993" d="M1043.7 1147.9 62.6 778.3v739.2z"/></g><g id="g15723" style="display:inline"><path d="M417.4 510.5c-.2 5.5-19.2 12.2-93 19.1l-1 .1h-1c-73.7-7-92.8-13.7-93-19.2 0-7.6 36.7-9.5 58.2-40.1a76 76 0 0 0 10-20.4h51.7a76 76 0 0 0 10 20.4c21.5 30.6 58.2 32.5 58 40.1" style="fill:#ffffff;fill-rule:evenodd" id="path12995"/><path d="m519 453.2 23.8-18.8-22-21.1 20-23.2-14.9-9.6c-32.4 75.8-110.8 129.3-202.5 129.3-91.6 0-170.1-53.5-202.5-129.3l-14.8 9.6 20 23.2-22 21 23.7 18.9-17.8 25.1 26.7 13.7-13 28.3 28.6 8-7.7 30.4 29.5 2.2-2.2 31.3 29.4-3.8 3.4 31.2 28.2-9.6 9 30 25.8-15.1 14.2 27.6 22.7-20 18.8 24.2 18.8-24.3 22.8 20 14-27.4 26 15 9-30 28.1 9.6 3.5-31.2 29.4 3.8-2.2-31.3 29.5-2.2-7.7-30.4 28.6-8-13-28.3 26.6-13.7z" style="fill:#ffffff" id="path12997"/><path d="M242.1 423a124 124 0 0 0 29.3 47.2 79 79 0 0 0 104 0 127 127 0 0 0 30.8-51.6c.6-3 3.6-4.4 5.6-6.3a30.6 30.6 0 0 0 4.8-39c-1.1-1.8-3-3.3-3-5.6v-46a74 74 0 0 0-20-51.3 80 80 0 0 0-42.5-20.5 151 151 0 0 0-61 1.3 74 74 0 0 0-43.4 27.4 75 75 0 0 0-13.4 41.4c-.3 15.6 0 31.2-.1 46.9.3 3-2.5 5.2-3.8 7.8a31 31 0 0 0 8 39.6c3 2 3.6 5.6 4.7 8.7z" style="fill:#ffffff;stroke:#e52621;stroke-width:5px;stroke-miterlimit:10" id="path12999"/><path d="m310.4 395-7 2.8c3.7 7.3 11.8 10.5 19.7 10.5s16.7-3.2 20.3-10.5l-7-2.8c-1.8 3.7-7.5 5.6-13.3 5.6s-10.8-2-12.7-5.6" style="fill:#e52621;fill-rule:evenodd" id="path13001"/><path d="M300 349.7c0 6.4-6.1 11.7-13.7 11.7s-13.7-5.3-13.7-11.7c0-6.5 6.1-11.7 13.7-11.7s13.8 5.2 13.8 11.7" style="fill:#e52621;fill-rule:evenodd" id="path13003"/><path d="M374.3 349.7c0 6.4-6.2 11.7-13.8 11.7s-13.7-5.3-13.7-11.7c0-6.5 6.1-11.7 13.7-11.7s13.8 5.2 13.8 11.7" style="fill:#e52621;fill-rule:evenodd" id="path13005"/><path d="m298.9 273-5.6 4.8c5.4 5.5 11.7 5.5 16.8 5.6v.7l.7 3.6c.5 2.7 1.1 6.6 1.4 10.5.6 7.8.8 16.8 2.1 22.4l.7 2.8h17.5l.7-3.5c1.3-5.7 1.5-14 2.1-21.7.4-4 .3-7.8.8-10.5a10 10 0 0 1 1.4-3.6v-.7c5-.1 10.7-.2 16-5.6l-4.8-4.9c-4.6 4.6-8.6 4.2-14 4.2h-1.5l-1.4 1.4c-2.4 2.5-2.2 4.5-2.8 7.8l-1.4 11.2c-.5 6.9-1.4 13.5-2 18.2H322c-.7-4.5-1.6-11.3-2-18.2a102 102 0 0 0-1.5-10.5c-.6-3.3-.4-6-2.8-8.5l-1.4-1.4h-1.4c-5.5 0-9.4.4-14-4.2" style="fill:#e52621;fill-rule:evenodd" id="path13007"/><path d="M254.5 348c14.8-11.6 30-22 50.3-21.6l-6.7-12.2a46 46 0 0 0-44 25.5c-1.9 4-1.1 4.7.4 8.2" style="fill:#e52621;fill-rule:evenodd" id="path13009"/><path d="M392.3 348c-14.7-11.6-30-22-50.2-21.6l6.7-12.2a46 46 0 0 1 44 25.5c1.8 4 1 4.7-.5 8.2" style="fill:#e52621;fill-rule:evenodd" id="path13011"/><path d="M303.8 439.3c4.3 0 7 3.2 13 3.2H330c6.1 0 8.7-3.2 13-3.2 0-3.3-4.3-6.5-8.7-6.5h-21.8c-4.4 0-8.7 3.2-8.7 6.5" style="fill:#e52621;fill-rule:evenodd" id="path13013"/><path d="M276.2 339.6C270 341 265 343 260 344.5l2.1 7c6-1.6 11.2-4.5 16.2-5.6 5-1.2 9.2-1 14.7 2.8l3.5-5.6a25 25 0 0 0-20.3-3.5" style="display:inline;fill:#e52621;fill-rule:evenodd" id="path13015"/><path d="M370.2 339.6a23 23 0 0 0-19.7 3.5l3.6 5.6c5.4-3.7 9.7-4 14.7-2.8 5 1.1 10.1 4 16.1 5.6l2.1-7c-5-1.4-10.7-3.5-16.8-5" style="fill:#e52621;fill-rule:evenodd" id="path13017"/><path d="M329 528h-1z" style="fill:#1d1d1b;fill-rule:evenodd" id="path13019"/><path d="M328 528h-1z" style="display:inline;fill:#1d1d1b;fill-rule:evenodd" id="path13021"/></g><g id="g15736" style="display:inline"><path style="display:inline;fill:#ffffff" id="polygon13023" d="m484.4 1032.8 29.2 4.8-10.4 27.7 27.7 10.3-15.4 25.2 25.3 15.4-20 21.8 22 19.9-23.8 17.7 17.8 23.6-26.6 12.9 13 26.6-28.6 7.6 7.7 28.5-29.5 2.1 2.2 29.5-29.4-3.6-3.5 29.4-28.1-9.1-9 28.2-25.9-14.2-14.1 26-22.8-18.9-18.8 22.8-18.8-22.8-22.7 18.9-14.2-26-25.9 14.2-8.9-28.2-28.2 9.1-3.4-29.4-29.4 3.6 2.2-29.5-29.5-2.1 7.7-28.5-28.6-7.6 13-26.6-26.7-12.9 17.8-23.6-23.7-17.7L126 1138l-19.9-21.8 25.3-15.4-15.5-25.2 27.8-10.3-10.4-27.7 29.1-4.8-4.9-29.2 29.5.8.7-29.6 28.9 6.4 6.2-28.9L250 964l11.6-27.3 24.4 16.7 16.6-24.6 20.8 21 20.9-21 16.5 24.6 24.5-16.7 11.6 27.3 27.1-11.7 6.3 28.9 28.9-6.4.6 29.6 29.6-.8z"/><path d="M242.1 1202.3a124 124 0 0 0 29.3 47.2 79 79 0 0 0 104 0 127 127 0 0 0 30.8-51.6c.6-3 3.6-4.4 5.6-6.4a30.6 30.6 0 0 0 4.8-38.8c-1.1-1.9-3-3.4-3-5.7v-46a74 74 0 0 0-20-51.3 80 80 0 0 0-42.5-20.5 151 151 0 0 0-61 1.3 74 74 0 0 0-43.4 27.4 75 75 0 0 0-13.4 41.4c-.3 15.6 0 31.2-.1 46.8.3 3.2-2.5 5.3-3.8 7.9a31 31 0 0 0 8 39.6c3 2 3.6 5.6 4.7 8.7z" style="display:inline;fill:none;stroke:#e52621;stroke-width:5px;stroke-miterlimit:10" id="path13025"/><path d="m301.3 1206.6 6.5-2.2h34.6l4.7 2c0 1.8-7.7 1.8-12.3 3.6H312c-5.2-1.7-10.7-1.6-10.7-3.4" style="fill:#e52621;fill-rule:evenodd" id="path13027"/><path d="M310.3 1159.8c-1.4 1.4-3.8.8-5.8 1.2.1-.3-.3.3-.6.5-.5.6-1.6 1.1-2.9 2.4a14 14 0 0 0-3.5 5.2 12 12 0 0 0 0 8.1 24 24 0 0 0 10.5 7.6 41 41 0 0 0 13.4 1.2 51 51 0 0 0 12.8-2.4c3.7-1.1 7-2.4 8.7-5.8l-5.8-2.3a22 22 0 0 1-4.7 2.3 45 45 0 0 1-11 1.8 38 38 0 0 1-11.7-1.2q-4.7-1.6-5.8-4c-.3-1.3-.8-2.2-.6-3a10 10 0 0 1 2.4-2.9l2.9-2.9c.5-.5 1.3-.7 1.7-1.7a6 6 0 0 0 0-4.1" style="fill:#e52621;fill-rule:evenodd" id="path13029"/><path d="M296.8 1132.1c0 5.4-5.7 9.7-12.9 9.7-7 0-12.9-4.3-12.9-9.7s5.8-9.6 13-9.6c7 0 12.8 4.3 12.8 9.6" style="fill:#e52621;fill-rule:evenodd" id="path13031"/><path d="M375.8 1132.1c0 5.4-5.8 9.7-12.9 9.7s-12.9-4.3-12.9-9.7 5.8-9.6 13-9.6c7 0 12.8 4.3 12.8 9.6" style="fill:#e52621;fill-rule:evenodd" id="path13033"/><path d="m302.5 1069.7-4 4c4.4 4.5 9.1 4.6 13.3 4.7v.6a8 8 0 0 1 1.2 2.9c.4 2.3.3 5.5.5 8.7.5 6.5.7 14 1.8 18.6l.6 2.3h14.5l.6-2.9c1-4.7 1.2-11.5 1.7-18 .3-3.2.8-6.4 1.2-8.7l.6-3v-.5c4.2-.1 9.4-.1 14-4.6l-4.7-4.1c-3.8 3.8-7.1 3.5-11.7 3.5H331l-1.2 1.1c-2 2-1.8 3.8-2.3 6.4q-.8 4.2-1.2 9.3a226 226 0 0 1-1.7 15.2h-3c-.5-3.8-1.2-9.4-1.7-15.2-.2-3.3 0-6-.5-8.7s-1-5-3-7l-1.1-1.1H314c-4.5 0-7.8.3-11.6-3.5" style="fill:#e52621;fill-rule:evenodd" id="path13035"/><path d="M246.1 1114.9c20-4 37.2-6.7 58.9-.4l-.6-13.7a74 74 0 0 0-56 6.2c-4 2-2.7 4.1-2.3 7.9" style="fill:#e52621;fill-rule:evenodd" id="path13037"/><path d="M400.7 1114.9c-20-4-37.1-6.7-58.8-.4l.5-13.7c22.5-6.5 41-1.3 56 6.2 4.1 2 2.7 4.1 2.3 7.9" style="fill:#e52621;fill-rule:evenodd" id="path13039"/><path d="M269.7 1121.8c-6.7 1-13 3-19.2 4l.6 5.9c13.4-2.3 24.5-7.4 37.8-1.8l2.3-5.8a38 38 0 0 0-21.5-2.3" style="fill:#e52621;fill-rule:evenodd" id="path13041"/><path d="M377.3 1121.8a38 38 0 0 0-21.5 2.3l2.3 5.8c13.3-5.6 23.9-.5 37.2 1.8l1.2-5.8c-6.1-1-12.5-3.2-19.2-4.1" style="fill:#e52621;fill-rule:evenodd" id="path13043"/></g><!-- app4joy --></svg>