<svg height="600" width="900" id="svg90" viewBox="0 0 900 600" xmlns="http://www.w3.org/2000/svg"><g id="g94"><path d="M0 0h900v600H0z" fill="#dc241f" fill-rule="evenodd" id="path1"/></g><g id="g93"><g id="g91"><g transform="translate(50.8 -204.5)scale(.5089)" id="g90"><g stroke="#000" id="g41"><path d="M366.7 897.3c4.7-2.2 4.6-6.8 4.5-11.4-.5-9.1-8.9-35.8 6.7-43.6 3-3 3.7-5.8 9-11.2 2.1-4 3.7-11.2 6.5-11.6 1.6-4.2 1.6-8.9 5.9-11.5 3.5-10.1 5.7-11.3 8.2-14.6 1.3-7.4 2.2-9 3.5-10 .7-6.4.6-14 4.3-17.5a37 37 0 0 1 1.8-18.7c-1.3-6.6-3.1-13.2-.4-19.8-1-6-4-10.4-2.4-18.3-2-6.8-8.5-13.3-5.6-20.3q-5.2-6.8-4.2-16c-3-4.5-6.8-8.4-6.5-15.5-2.6-4-6.4-7.4-5.3-14-3-4.4-9.3-7.9-6.6-13.9-4.7-2.6-9.1-5.6-8.4-12.8-9.5-6.8-11.5-11.3-12.4-15.5-7.5-3.2-13.7-10.3-14.4-16.7-7.5-8.1-17.9-13-22.7-24.4 6.8 1.7 14 5.7 21.2 9.8-4.6-8.7 12.3-3.8 15.8 2.3 6.5 1 12.9 2.2 17.3 9.9a26 26 0 0 1 15.5 11.7c6.7 4.1 7.9 5.9 11.3 13.3 5 2.6 7.9 7 10.1 11.7 6 3.9 10.3 8.6 10.8 15.6 7.2 3.6 9 8.8 10 14.6 5.6 2.5 7.2 8.6 8.3 15 6.8 5.5 6.6 11.6 6.7 17.8 7.7 4.7 7.7 13.4 7.2 22.5 5.4 3.6 8.9 9.5 7 21.8a21 21 0 0 1 2.2 19.4c6.7 11 3.9 18.2-.4 24.7 6.5 10 2.7 18.5-3 27.2 4 9.6 1.1 17.3-5.2 24.1 2 12-2.7 18-8.2 23.4 1 10.1-2.6 16.8-9.3 21.2-.4 7.1-4.3 14-9.6 17.8-2 6-3.5 12-11.3 16.1-1.2 4.5-4 12.6-14.6 16.4-4.6 13-21.7 16.2-49.8 8-4.7-1.4-9.2-3.3-15.6-.7z" fill="#009543" stroke-linejoin="round" stroke-width="1.792664" id="path2"/><g transform="matrix(-.51219 0 0 .51219 531.8 390.3)" id="g20"><path d="M294.7 966c-11-30 9-42 4.9-82.3l-7.3-9.8c10 20.4 3 51.4-8.5 83.8z" id="path3"/><path d="M269 942c-.7-30.2 15.8-47 16.6-77.7l-5.6-7.2c6.4 21-7.3 54.8-18.8 76.7z" id="path4"/><path d="M251.3 922.4c-6.2-28.2 19.8-52.7 20.6-82.1l-5.4-8.3c4.7 27.6-13 56.4-23.7 81z" id="path5"/><path d="M232 896c-2.2-27.3 27.6-56 26.7-78.9l-3-6.3c-1.4 26.9-18.5 54.9-32.1 73.8z" id="path6"/><path d="M215 870.9c-5.5-28.6 26-45.6 30-80.4l-4-8c.8 32-20.2 54-33.5 75.2z" id="path7"/><path d="M201.9 847c-5.8-31.3 16.6-35.7 34.2-78l-2.4-8.7c-7.6 31-24.5 50.3-39.6 70z" id="path8"/><path d="M187.6 812.8c-3-31 28.1-45 40.9-76.9l-2.2-5.6c-4.8 16-23.2 45.7-46.1 62.6z" id="path9"/><path d="M174 772.5c-4.1-19.4 31.2-47 49.4-74l1-12a363 363 0 0 1-53.6 70.4z" id="path10"/><path d="M167.1 731.8c-.2-25.2 36.5-44.5 57-72.4l2.2-9.8c-21 26.1-39.4 47-61 65.5z" id="path11"/><path d="M165.7 685.4c10.8-21.6 41.7-41 63-61.5l4.3-10.5c-23 21.2-46 45.4-67.5 62z" id="path12"/><path d="M170 643.5c5.3-18.4 49.1-34 70-60.4l1.9-5.3a258 258 0 0 1-71 53.2z" id="path13"/><path d="M174.4 615.3c11.3-22.3 49.9-35.8 73.8-62.1l2-6.1a484 484 0 0 1-69.8 53.5z" id="path14"/><path d="M188.5 578.7c2.3-17.1 49.1-34.6 72.2-54.6l3.2-8.7a210 210 0 0 1-69.8 46.3z" id="path15"/><path d="M212.2 525.9c16.5-13.3 33.5-17.5 59.3-30.2l3.8-7.3a193 193 0 0 1-60 27.9z" id="path16"/><path d="M225.2 503c10.3-19.4 37.3-19.3 60.8-35.7 11.8-12.2 16.3-21.8 15.4-24-.4-1-5 4.5-5.3 3.2-9 24.2-45.4 35.4-65.5 42.3z" id="path17"/><path d="M245.5 472.7c12.3-14.4 36.7-18.8 56.4-30 8-9.4 18.8-17.7 22.4-28.8l-14.2 6.3c1.4 20.7-38.7 35.3-56.8 40.2z" id="path18"/><path d="M266.6 444.5c17.4-18.4 38.5-20.9 57.7-31.3 10.7-8.6 23.2-14.4 28.2-31.8l-10.9 3.6c-1.2 25.7-47.2 40.1-63.2 43.7z" id="path19"/><path d="M394.5 332.3c-2.3 0-7 2.2-12.6 5.4-5.5 2.5-23.2 12.2-27 12.5a326 326 0 0 0-59 60.3c12.8-8.7 37.3-24.8 56.9-29.5 4.2-9 27-25.6 35.6-35.7 8.2-9.5 9.1-13 6.1-13zm-6.9 7.2c4 .2-3.8 7.3-5.8 10-15 19.5-34.3 29.7-53.5 37.3-21.4 8.4-7.8-1.6-4.7-4.8a172 172 0 0 1 49.9-37.3 44 44 0 0 1 14.1-5.2z" id="path20"/></g><path d="M379.8 597.5q-5.2-12.8-11.5-24.5c-1.2-.4-3-.6-4-1.8-2.9-3.4-18.4-9.3-14.2-2.2 3.2 1.6 13.8-8.7 28.3 28.6z" stroke-width=".51219" id="path21"/><g transform="matrix(-.51219 0 0 .51219 531.8 390.3)" id="g40"><path d="M352.3 1038.7c-43.6-30.8-51.4 1.4-113.4-9.7l-2.3-3.8c21.9 5.5 54.8 1.3 94-5.7l25.8 14.8z" id="path22"/><path d="M327 1017.5c-35.5-25-80.3-6.6-117-19.4l-1.2-4.4c31.2 8.4 54.2 6.8 91.8 5.6z" id="path23"/><path d="M286.8 987.8c-16-17-68.2-8.6-97.7-20.4l-2-6c22.7 11.5 52.3 13 85.4 13.1z" id="path24"/><path d="M255.6 959.7c-5.7-14.8-55.2-16.7-86.2-26.9l-.8-4.8c19.2 5.6 26.4 12.6 72.6 15z" id="path25"/><path d="M226.2 923.9c0-7.7-47.7-21.7-75-33v-5.2c18 7.7 3.6 7.2 67.8 26.4z" id="path26"/><path d="M201 883c.8-8-42.8-23.2-65.7-37l-.5-5.8a321 321 0 0 0 63.7 31.5z" id="path27"/><path d="M180.6 835.6c-15.9-16.7-37-26.1-56-38.6l-3.3-11a171 171 0 0 0 55.2 38z" id="path28"/><path d="M118 744.8c15.7 17.4 36.6 31.4 49.3 45.5l-1.5-9.7c-19.2-11.4-34-25-46.3-40z" id="path29"/><path d="m160.4 755.3-1.8-20.2C136 720.4 129 705.2 118 690.3l-.7 5.9c13.8 22.9 41 38.8 43.2 59z" id="path30"/><path d="M157.6 715.9c-7.5-22.6-26.8-40.1-36-58.4l1.5-5c10.8 19 22.6 37.6 37.6 54.7z" id="path31"/><path d="M157.6 696.7c4.2-32.4-12.8-55.5-23-81.6l2.3-11.5c3 26.2 18 45 27.6 67z" id="path32"/><path d="M161.7 653c2.1-16.6 5.4-31.3-14-82.2l4-4c3.6 21.9 10.6 41 18.2 59.5z" id="path33"/><path d="M169.1 618.7c7-40.2-7.4-58.3-8-82l4.4-6c-1 19.1 4.6 42.8 12.6 66z" id="path34"/><path d="M180.4 580.3c8.2-20.2-5.8-48.5-3.9-74l4.6-4.3c-2.5 26 1.3 42 8.2 60.1z" id="path35"/><path d="M198.3 540.4c-4.2-38.5-2.3-45.8-2-61.4l3.2-3.9c-1.8 20.4-.8 39.4 4.1 56.3z" id="path36"/><path d="M217.7 501.5c-1.1-18-2.7-36.3-1.3-53l7-6.9c-3.6 12.2-6.3 25.8-1 53.5z" id="path37"/><path d="M236.1 475.1a280 280 0 0 1-.7-48l6.1-5.7c-4.8 18.6-3.2 35.7-2 53z" id="path38"/><path d="M257.4 446.5c-.4-15.2-1.9-29.5 2.3-47.9l16.3-15.8c-12.3 17.1-20.5 36.1-14.5 61.4z" id="path39"/><path d="M278.3 425.5c1.8-15.3 5.3-32.6 10.5-49.6 5.9-5.4 18.8-19.4 30.7-19.4 1.6 0-3.3 3.8-1.5 4.5-7.3 2.2-33.4 7-33.3 57z" id="path40"/></g><path d="m322.4 933-9-8.8c70.8-15.5 223-156.6 65.7-325.8 112.4 104.5 89.4 278.2-56.7 334.6z" fill="#009543" stroke-linejoin="round" stroke-width="2.50973" id="path41"/></g><g stroke="#000" id="g82"><path d="M134 905.8c-4.8-2.2-4.6-6.8-4.6-11.4.5-9 4.7-34.1-11-41.9-4-5.7-7.2-10.2-9-10.3-2.5-4.1-2.5-7.2-7.7-11-2.1-4.1-3.7-11.3-6.5-11.7-1.6-4.2-1.6-8.9-5.9-11.5-3.5-10.1-5.7-11.3-8.2-14.6-1.3-7.4-2.2-9-3.5-10-.7-6.4-.6-14-4.3-17.5 1.2-7.1.2-12.5-1.8-18.7 1.3-6.6 3.1-13.2.4-19.8 1-6 4-10.4 2.4-18.3 2-6.8 8.5-13.3 5.6-20.3q5.3-6.8 4.2-16c3-4.5 6.8-8.4 6.5-15.5 2.6-4 6.4-7.4 5.3-14 3-4.4 9.3-7.9 6.6-13.9 4.7-2.6 9.1-5.6 8.4-12.8 9.5-6.8 11.5-11.3 12.4-15.5 7.5-3.2 13.7-10.3 14.4-16.7 7.6-8.1 17.9-13 22.7-24.4-6.8 1.7-14 5.7-21.2 9.8 4.6-8.7-12.3-3.8-15.8 2.3-6.5 1-12.8 2.2-17.3 9.9a26 26 0 0 0-15.5 11.7c-6.7 4.1-7.8 5.9-11.3 13.3-5 2.6-7.9 7-10.1 11.7-6 3.9-10.3 8.6-10.8 15.6-7.2 3.6-9 8.8-10 14.6-5.6 2.5-7.2 8.6-8.3 15-6.8 5.5-6.6 11.6-6.7 17.8-7.7 4.7-7.7 13.4-7.2 22.5-5.4 3.6-8.9 9.5-7 21.8a21 21 0 0 0-2.2 19.4c-6.7 11-3.9 18.2.4 24.7-6.5 10-2.7 18.5 3 27.2-4 9.6-1.1 17.3 5.2 24.1-2 12 2.7 18 8.2 23.4-1 10.1 2.6 16.8 9.3 21.2.4 7.1 4.4 14 9.6 17.8 2 6 3.5 12 11.3 16.1 1.2 4.5 4 12.6 14.6 16.4 4.6 13 21.7 16.2 49.8 8 4.7-1.4 9.2-3.3 15.6-.7z" fill="#009543" stroke-linejoin="round" stroke-width="1.792664" id="path42"/><g transform="translate(-43.2 390.3)scale(.51219)" id="g61"><path d="M318 988c-10.8-11.3 7.1-68.4-2.3-85.7-2-1.6-5.6-5.7-4.6-3.6 9.8 21.1 3 59.6-4.3 79.8z" id="path43"/><path d="M294.7 966c-11-30 9-42 4.9-82.3l-7.3-9.8c10 20.4 3 51.4-8.5 83.8z" id="path44"/><path d="M269 942c-.7-30.2 15.8-47 16.6-77.7l-5.6-7.2c6.4 21-7.3 54.8-18.8 76.7z" id="path45"/><path d="M251.3 922.4c-6.2-28.2 19.8-52.7 20.6-82.1l-5.4-8.3c4.7 27.6-13 56.4-23.7 81z" id="path46"/><path d="M232 896c-2.2-27.3 27.6-56 26.7-78.9l-3-6.3c-1.4 26.9-18.5 54.9-32.1 73.8z" id="path47"/><path d="M215 870.9c-5.5-28.6 26-45.6 30-80.4l-4-8c.8 32-20.2 54-33.5 75.2z" id="path48"/><path d="M201.9 847c-5.8-31.3 16.6-35.7 34.2-78l-2.4-8.7c-7.6 31-24.5 50.3-39.6 70z" id="path49"/><path d="M187.6 812.8c-3-31 28.1-45 40.9-76.9l-2.2-5.6c-4.8 16-23.2 45.7-46.1 62.6z" id="path50"/><path d="M174 772.5c-4.1-19.4 31.2-47 49.4-74l1-12a363 363 0 0 1-53.6 70.4z" id="path51"/><path d="M167.1 731.8c-.2-25.2 36.5-44.5 57-72.4l2.2-9.8c-21 26.1-39.4 47-61 65.5z" id="path52"/><path d="M165.7 685.4c10.8-21.6 41.7-41 63-61.5l4.3-10.5c-23 21.2-46 45.4-67.5 62z" id="path53"/><path d="M170 643.5c5.3-18.4 49.1-34 70-60.4l1.9-5.3a258 258 0 0 1-71 53.2z" id="path54"/><path d="M174.4 615.3c11.3-22.3 49.9-35.8 73.8-62.1l2-6.1a484 484 0 0 1-69.8 53.5z" id="path55"/><path d="M188.5 578.7c2.3-17.1 49.1-34.6 72.2-54.6l3.2-8.7a210 210 0 0 1-69.8 46.3z" id="path56"/><path d="M212.2 525.9c16.5-13.3 33.5-17.5 59.3-30.2l3.8-7.3a193 193 0 0 1-60 27.9z" id="path57"/><path d="M225.2 503c10.3-19.4 37.3-19.3 60.8-35.7 11.8-12.2 16.3-21.8 15.4-24-.4-1-5 4.5-5.3 3.2-9 24.2-45.4 35.4-65.5 42.3z" id="path58"/><path d="M245.5 472.7c12.3-14.4 36.7-18.8 56.4-30 8-9.4 18.8-17.7 22.4-28.8l-14.2 6.3c1.4 20.7-38.7 35.3-56.8 40.2z" id="path59"/><path d="M266.6 444.5c17.4-18.4 38.5-20.9 57.7-31.3 10.7-8.6 23.2-14.4 28.2-31.8l-10.9 3.6c-1.2 25.7-47.2 40.1-63.2 43.7z" id="path60"/><path d="M394.5 332.3c-2.3 0-7 2.2-12.6 5.4-5.5 2.5-23.2 12.2-27 12.5a326 326 0 0 0-59 60.3c12.8-8.7 37.3-24.8 56.9-29.5 4.2-9 27-25.6 35.6-35.7 8.2-9.5 9.1-13 6.1-13zm-6.9 7.2c4 .2-3.8 7.3-5.8 10-15 19.5-34.3 29.7-53.5 37.3-21.4 8.4-7.8-1.6-4.7-4.8a172 172 0 0 1 49.9-37.3 44 44 0 0 1 14.1-5.2z" id="path61"/></g><path d="M108.8 597.5q5.2-12.8 11.5-24.5c1.2-.4 3-.6 4-1.8 2.9-3.4 18.4-9.3 14.2-2.2-3.2 1.6-13.8-8.7-28.3 28.6z" stroke-width=".51219" id="path62"/><g transform="translate(-43.2 390.3)scale(.51219)" id="g81"><path d="M352.3 1038.7c-43.6-30.8-51.4 1.4-113.4-9.7l-2.3-3.8c21.9 5.5 54.8 1.3 94-5.7l25.8 14.8z" id="path63"/><path d="M327 1017.5c-35.5-25-80.3-6.6-117-19.4l-1.2-4.4c31.2 8.4 54.2 6.8 91.8 5.6z" id="path64"/><path d="M286.8 987.8c-16-17-68.2-8.6-97.7-20.4l-2-6c22.7 11.5 52.3 13 85.4 13.1z" id="path65"/><path d="M255.6 959.7c-5.7-14.8-55.2-16.7-86.2-26.9l-.8-4.8c19.2 5.6 26.4 12.6 72.6 15z" id="path66"/><path d="M226.2 923.9c0-7.7-47.7-21.7-75-33v-5.2c18 7.7 3.6 7.2 67.8 26.4z" id="path67"/><path d="M201 883c.8-8-42.8-23.2-65.7-37l-.5-5.8a321 321 0 0 0 63.7 31.5z" id="path68"/><path d="M180.6 835.6c-15.9-16.7-37-26.1-56-38.6l-3.3-11a171 171 0 0 0 55.2 38z" id="path69"/><path d="M118 744.8c15.7 17.4 36.6 31.4 49.3 45.5l-1.5-9.7c-19.2-11.4-34-25-46.3-40z" id="path70"/><path d="m160.4 755.3-1.8-20.2C136 720.4 129 705.2 118 690.3l-.7 5.9c13.8 22.9 41 38.8 43.2 59z" id="path71"/><path d="M157.6 715.9c-7.5-22.6-26.8-40.1-36-58.4l1.5-5c10.8 19 22.6 37.6 37.6 54.7z" id="path72"/><path d="M157.6 696.7c4.2-32.4-12.8-55.5-23-81.6l2.3-11.5c3 26.2 18 45 27.6 67z" id="path73"/><path d="M161.7 653c2.1-16.6 5.4-31.3-14-82.2l4-4c3.6 21.9 10.6 41 18.2 59.5z" id="path74"/><path d="M169.1 618.7c7-40.2-7.4-58.3-8-82l4.4-6c-1 19.1 4.6 42.8 12.6 66z" id="path75"/><path d="M180.4 580.3c8.2-20.2-5.8-48.5-3.9-74l4.6-4.3c-2.5 26 1.3 42 8.2 60.1z" id="path76"/><path d="M198.3 540.4c-4.2-38.5-2.3-45.8-2-61.4l3.2-3.9c-1.8 20.4-.8 39.4 4.1 56.3z" id="path77"/><path d="M217.7 501.5c-1.1-18-2.7-36.3-1.3-53l7-6.9c-3.6 12.2-6.3 25.8-1 53.5z" id="path78"/><path d="M236.1 475.1a280 280 0 0 1-.7-48l6.1-5.7c-4.8 18.6-3.2 35.7-2 53z" id="path79"/><path d="M257.4 446.5c-.4-15.2-1.9-29.5 2.3-47.9l16.3-15.8c-12.3 17.1-20.5 36.1-14.5 61.4z" id="path80"/><path d="M278.3 425.5c1.8-15.3 5.3-32.6 10.5-49.6 5.9-5.4 18.8-19.4 30.7-19.4 1.6 0-3.3 3.8-1.5 4.5-7.3 2.2-33.4 7-33.3 57z" id="path81"/></g><path d="m166.2 933 9-8.8c-70.8-15.5-223-156.6-65.7-325.8C-2.9 702.9 20.1 876.6 166.2 933z" fill="#009543" stroke-linejoin="round" stroke-width="2.50973" id="path82"/></g><g id="g89"><g stroke="#000" id="g88"><path d="M299.4 884.4c1-27.8 3.3-47.2 8-59.4 22-56.8 59 26.6 55.8 62.6-20-6.4-51.1-6-63.8-3.2z" fill="#ffd700" stroke-linejoin="round" stroke-width="2.048759" id="path83"/><path d="m178.4 985.1 146.6-144c15.5-15.7 3.3-24.7-10.4-10.8l-147 145.9c-10 10-1 20.6 10.8 8.9z" fill="#ffd700" stroke-linejoin="round" stroke-width="2.048759" id="path84"/><path d="M262.8 901.7c-8 4.5-12.6 1.5-18.4-1.8l-1.6 2.4 9.7 10z" stroke-width=".51219" id="path85"/><path d="M227.1 917.7c7-3.6 15 4.1 9.6 9.6l6.1-6-9.8-9.5z" stroke-width=".51219" id="path86"/><path d="M305.8 984.9 160.4 837.6c-6.5-6.6.4-21 10.5-10.6l145.8 149.2c7.6 7.8 0 19.8-10.9 8.7z" fill="#ffd700" stroke-linejoin="round" stroke-width="2.048759" id="path87"/><path d="M194.5 806.7c1-1 1.2-.9 2.2-.2 10 7.2 21.2 9.5 27.1 4.4 2-1.6 3.3-1.3 5 .4l11.7 12.2-37.1 36.3 3.8 3.8c-9.7 0-10.4 5.4-8.3 13.2l-6.7-6.4-27.6 27.4c-.8.8-1.2 1.2-2.5-.1l-27.2-28c-1.9-2-1.4-2.6.1-4q29.9-29.3 59.5-59z" stroke-width=".51219" id="path88"/></g><path d="M138.1 869.4c-1.5-1.6-.8-1.7 0-2.5l55.8-55.4c.5-.7.8-.2 1.4.1a31 31 0 0 0 27.6 3c1-.3 1.3-.5 2.1.2l7.6 7.4c2 2 .9 3-.1 4l-67.8 67.1c-1.4 1.4-2.1 1.2-3.4 0z" fill="#ffd700" stroke="#ffd700" stroke-width="1.792664" id="path89"/></g></g></g><g id="g92"><path d="m200.2 112.3-24.8-16.9-24.4 17.8 8.3-29L134.6 66l30.6-.6 9.3-29L184.8 65h30.4L191 84z" fill="#ffd700" stroke="#000" id="path90"/></g></g><!-- app4joy --></svg>