<svg xmlns="http://www.w3.org/2000/svg" xmlns:xlink="http://www.w3.org/1999/xlink" xml:space="preserve" id="svg113" width="2960" height="1480" fill="#fcd116" version="1.1" viewBox="-28 -45 444 222"><g id="g2"><path id="path91" fill="#0038a8" d="M-28-45h444V66L41 174.5Z" style="stroke-width:2.46666;fill:#0f4d98;fill-opacity:1"/><path id="path93" fill="#ce1126" d="M41 66h375v111H-28Z" style="display:inline;stroke-width:2.46666"/><path id="path95" fill="#fff" d="M164.3 66-28 177V-45Z" style="display:inline;stroke-width:2.46666"/></g><g id="g4286" style="display:inline"><path id="path4290" d="M38 77.6a11.8 11.8 0 0 1-9-11.5c0-2 .4-3.4 1.2-5.1 1.2-2.6 3-4.4 5.5-5.6 1.8-.9 3.2-1.2 5.2-1.2s3.4.3 5.3 1.2c2.5 1.2 4.1 2.9 5.3 5.4.5.9.9 2 1 2.6.3 1.4.3 3.9 0 5.3s-1.5 4-2.4 5a12.8 12.8 0 0 1-6.6 4c-1.4.3-4 .3-5.5 0z" style="fill:#fdca00;stroke-width:0.151995"/><path id="path4288" d="m39.3 102.8-1-1.3.5-9.2c.5-8 .6-9.6.3-9.4a296.2 296.2 0 0 0-1.5 15.2c-.1.1-2-1.9-2-2.1A352.8 352.8 0 0 1 38 81.8l-.2-.2-.1.2-1.3 6.6-1.2 6.3-1 .5-1.3.5L37.3 78c0-.1-.2-.3-1.1-.7l-1.3-.4a376 376 0 0 0-7.9 13l-1.5 2.5-.5-1-.5-1.1 2.3-3.5a2836.3 2836.3 0 0 1 5.4-8.3c0-.2 0-.2-6.5 9.1l-2.5 3.6h-1.5l-1.4-.1a397.8 397.8 0 0 1 9.6-11.7v-.3L25.5 84l-6.3 7-2 2.2H14l6.8-6.8a148 148 0 0 0 6.7-7l-7 6.8-6.7 6.8v-3.4l2.2-2A1444.7 1444.7 0 0 1 27.7 77h-.3a389 389 0 0 0-11.7 9.6v-2.9l3.5-2.5c9.3-6.5 9.3-6.5 9-6.5L25.9 76 20 80l-3.5 2.3-1-.5-1.1-.5 2.5-1.5a3337 3337 0 0 1 13-8l-1.1-2.3a2246 2246 0 0 1-17.5 4.2l.5-1 .5-1 6.3-1.4c3.5-.6 6.4-1.2 6.4-1.3.3-.2-1 0-7.2 1l-7.2 1.3-1-1-.9-1a292.5 292.5 0 0 1 15.1-1.6v-.2l-17.6 1-1 .1-1.4-1.2L2.5 66h9.7l9.7-.1c0-.1-3.3-.2-9.7-.2H2.5l1.3-1.2 1.3-1.3 1.1.1a498 498 0 0 0 17.6.9 239.4 239.4 0 0 0-15-1.6l.8-1 1-1 7.2 1.2c6.2 1 7.5 1.3 7.2 1l-6.4-1.3-6.3-1.2-.5-1-.5-1.2 2.2.5 15.3 3.7c.1.1 1.2-2.2 1-2.3A376 376 0 0 0 17 52l-2.5-1.5 1-.5 1.1-.5L20 52a2836.6 2836.6 0 0 1 8.3 5.4c.2 0 .2 0-9.1-6.6l-3.6-2.4v-1.5c0-.8 0-1.5.1-1.4A397.7 397.7 0 0 1 27.4 55h.3l-4.8-4.4-7-6.3-2.2-2V39l6.8 6.8a148 148 0 0 0 7 6.7l-6.8-7-6.8-6.8h3.3l2 2.3A1444.8 1444.8 0 0 1 30 52.8v-.2a389 389 0 0 0-9.6-11.7l1.4-.1h1.5l2.5 3.5c6.5 9.3 6.5 9.3 6.5 9.1 0 0-.6-1.2-1.5-2.4l-3.9-5.8-2.3-3.5.5-1 .5-1.2 1.5 2.6A3337 3337 0 0 1 35 55l1.3-.5c.9-.4 1.1-.6 1.1-.8L33 36.2l1.2.5 1 .5 1.3 6.3a211.7 211.7 0 0 1 1.4 6.8l.2-.2A434.1 434.1 0 0 0 35.6 36a8 8 0 0 1 2-2.1A301.7 301.7 0 0 1 39 49c.3.3.2-1.3-.3-9.3l-.6-9.2 1.1-1.3a10 10 0 0 1 1.2-1.3c.1 0 .2 4.3.2 9.6l.1 9.6c.1 0 .2-3.3.2-9.6v-9.6l1.3 1.3 1 1.3-.5 9.2a37 37 0 0 0-.3 9.3 296.2 296.2 0 0 0 1.7-15c0-.1 2 1.8 2 2a352.8 352.8 0 0 1-2.4 14.3l.1.2s.2-.1.2-.3l1.2-6.5 1.2-6.3 1.1-.5 1.2-.5-4.4 17.5c0 .2.3.4 1.2.8l1.2.4a376 376 0 0 0 8-13l1.5-2.5.5 1.1.4 1-2.3 3.6a2836.6 2836.6 0 0 1-5.4 8.2c0 .2 0 .2 6.6-9l2.4-3.6H60c.8 0 1.5 0 1.4.1a397.7 397.7 0 0 1-9.6 11.7v.2l4.4-4.7 6.3-7 2-2.3h3.3L61 45.7a148 148 0 0 0-6.7 6.9l7-6.7L68 39v3.3l-2.3 2A1444.8 1444.8 0 0 1 54 55.1h.2A389 389 0 0 0 66 45.5l.1 1.4v1.5l-3.5 2.4c-9.3 6.5-9.3 6.5-9.1 6.6l2.4-1.5 5.8-4 3.5-2.3 1 .5 1.2.5-2.6 1.6a3336.8 3336.8 0 0 1-13 7.9s1 2.4 1.2 2.3a2246 2246 0 0 1 17.4-4.2l-.4 1.1-.6 1-6.3 1.3-6.4 1.3c-.3.3 1 0 7.2-1l7.2-1.2 1 1 1 1a292.5 292.5 0 0 1-15.2 1.6v.1c.1.1 15.3-.7 17.6-1h1.1l1.3 1.2 1.3 1.2h-9.7c-6.3 0-9.7 0-9.7.2l9.7.1h9.7l-1.3 1.3-1.3 1.2h-1a498 498 0 0 0-17.7-.9A239.4 239.4 0 0 0 73 69.2l-1 1-1 1-7-1.2c-6.3-1-7.6-1.2-7.3-1 0 0 2.9.7 6.4 1.3l6.3 1.3.6 1c.2.6.5 1 .4 1.1l-2.2-.4L53 69.5c-.2 0-1.2 2.3-1.1 2.4a376 376 0 0 0 13 7.9l2.5 1.5-1.1.5-1.1.5-3.5-2.3a2837 2837 0 0 1-8.2-5.4c-.2 0-.2 0 9 6.5l3.6 2.5v1.5l-.1 1.4A397.6 397.6 0 0 1 54.2 77H54l4.7 4.4 7 6.3 2.3 2V93l-7-6.9a148 148 0 0 0-6.9-6.7l6.7 7 6.8 6.7h-3.3l-2-2.2a1444.7 1444.7 0 0 1-10.7-11.8v.3a389 389 0 0 0 9.6 11.7h-2.9L56 87.7c-6.5-9.3-6.5-9.3-6.6-9l1.5 2.4 4 5.8 2.2 3.5-.4 1-.5 1.1-1.6-2.5a3339.6 3339.6 0 0 1-7.9-13l-1.2.5c-1 .4-1.2.6-1.2.7.5 1.8 4.5 17.5 4.4 17.6l-1.2-.5-1-.5-1.3-6.3a211.7 211.7 0 0 1-1.4-6.8l-.1.2A434.1 434.1 0 0 0 46 96c0 .2-2 2.2-2 2a301.7 301.7 0 0 1-1.6-15 37 37 0 0 0 .3 9.3l.6 9.2-1.1 1.3A10 10 0 0 1 41 104l-.1-9.6c0-6.3 0-9.6-.2-9.6l-.1 9.6c0 5.3 0 9.6-.2 9.6l-1.2-1.3zm4.1-25.4c2.3-.5 4.9-2 6.5-3.9.9-1 2-3.5 2.4-5a15 15 0 0 0 0-5.1l-1-2.6a10.8 10.8 0 0 0-5.3-5.3c-1.8-.9-3.2-1.2-5.2-1.2s-3.3.3-5.2 1.2a11 11 0 0 0-5.4 5.5c-.8 1.7-1 3-1 5s.2 3.3 1.1 5.2a11 11 0 0 0 5.2 5.2l2.5 1c1.4.3 4 .4 5.4 0z" style="fill:#edba00;stroke-width:0.15"/><g id="g4308"><path id="path4310" d="M38.1 72.6c-.4-.3 3.7-.4 5-.2l.5.2h-5.5zm-2.4-8.8c-.7-.4-.2-1.6.6-1.5.8 0 1.1 1 .5 1.5-.2.2-.5.2-.6.2-.1 0-.3 0-.5-.2zm1-.3c.4-.4-.2-1.2-.7-.9-.6.4-.4 1.1.2 1.1.2 0 .4 0 .5-.2zm-.9-.1c-.1-.4.1-.7.5-.7.2 0 .3.2.3.5 0 .2 0 .4-.3.4-.2 0-.4 0-.5-.2zm9.1.5c-.6-.5-.2-1.7.7-1.7.8 0 1.1 1.2.5 1.7a1 1 0 0 1-.6.2l-.6-.2zm1-.4c.5-.5-.1-1.2-.6-.9-.6.4-.4 1.2.2 1.2.2 0 .4-.2.5-.3zm-.8-.1c-.1-.4.1-.7.5-.7.2 0 .4.2.4.5s-.2.4-.5.4a.4.4 0 0 1-.4-.2z" style="fill:#884900;stroke-width:0.15"/><path id="path4312" d="M38 73.2c-.8-.3-1.3-.7-1.2-.8L38 72a11.8 11.8 0 0 1 6.9.4c.1.1-.2.4-.9.7-.6.3-1 .3-3 .3s-2.5 0-3-.2zm6-.4.7-.3-1.2-.3c-1.5-.4-4-.4-5.5 0-.8.3-.9.3-.6.5.7.4 1.4.5 3.7.4 2 0 2.5 0 3-.3zm-5.5-3c0-.3.4-.8.7-.8 0 0 .2.1.2.3 0 .5-.6.8-.9.4zm4 0c-.2-.3-.2-.8 0-.8.4 0 .8.5.7.7-.1.3-.4.2-.6 0Zm-7.7-5.9c-.7-.3-1.3-.8-1.3-1.1 0-.1.4-.4.9-.6a4 4 0 0 1 3.4.3c1 .4 1 .6.8 1-.6.7-2.7 1-3.8.4zm3-.2c.6-.4.7-.6.3-.8-1.5-.7-3-.8-4-.3l-.3.2.4.4c.8.8 2.5 1 3.5.5zm6.1.2c-.6-.3-1-.7-.9-.9l1-.5a4 4 0 0 1 3.4-.3l.8.6c0 .3-.6.8-1.2 1.1-.8.4-2.3.4-3 0zm2.5 0 1.2-.7.4-.4-.4-.2c-.7-.4-2-.4-2.8-.2-1.3.5-1.5.6-1.4.9.3.3.8.5 1.4.6.8.2.7.1 1.6 0zm-7.6-2.2c-1-.9-3-1-5-.4-1.3.4-1.6.4-1-.2.6-.5 2-1 3.2-1 1-.1 1.2 0 1.8.3.8.4 1.9 1.4 1.9 1.6 0 .2-.4.1-.9-.3zm3.3.3c0-.2 1-1.2 1.8-1.6.7-.4.8-.4 1.8-.4 1.2.1 2.6.6 3.2 1.1.7.6.3.6-1 .2-2-.6-3.8-.5-5 .4-.5.4-.8.5-.8.3z" style="display:inline;fill:#b05f01;stroke-width:0.15"/></g></g><g id="g1" style="display:inline"><path id="s" d="m136 66-8.4 2.9-.2 8.8-5.3-7-8.4 2.5 5-7.2-5-7.2 8.4 2.5 5.3-7 .2 8.8z" style="display:inline;fill:#fdca00;fill-opacity:1;stroke-width:2.46666"/><use xlink:href="#s" id="use109" x="0" y="0" style="display:inline" transform="rotate(120 35.3 66.3)"/><use xlink:href="#s" id="use111" x="0" y="0" style="display:inline" transform="rotate(-120 35 65.6)"/><g id="g6633" style="display:inline"><circle id="path7071" cx="-8.9" cy="-11.6" r=".3" style="opacity:1;fill:#884900;fill-opacity:1;stroke-width:0.15"/><circle id="path7085" cx="123.8" cy="66.1" r=".3" style="opacity:1;fill:#884900;fill-opacity:1;stroke-width:0.15"/><circle id="path7076" cx="-8.6" cy="143" r=".3" style="opacity:1;fill:#884900;fill-opacity:1;stroke-width:0.15"/><path id="path6637" d="M-12.2 149a156.7 156.7 0 0 0 2.3-4.4l.7-1.2-2 .8c-1.2.6-2 .9-2 .8 0-.2.8-.6 2-1.2 1.2-.5 1.8-.8 1.7-.9l-3-.6c-2.6-.6-3.2-.7-3-1l3 .6c1.5.3 2.9.6 3 .5l-1.3-1.4c-.9-1-1.3-1.6-1.2-1.7.2-.1 1.9 1.7 2.5 2.6.3.5.6.6.5.3 0-.1 0-1.4-.3-3-.3-2.9-.3-3.4-.1-3.4l.5 3.2.3 3.3.8-1.3 1.1-1.8c.2-.4.5-.7.5-.4l-1 2-1 1.6 3.2-1.2a12 12 0 0 1 3-1.2c.2.2 0 .3-3.1 1.6l-3 1.3 2 .3 2.2.7c.1.1 0 .2-2-.3a26 26 0 0 0-2-.3c-.3 0-.3 0 3.6 4.2.4.5.6.7.4.8 0 0-.4-.2-.8-.7l-3.7-4 .1 2c.2 1.7.3 2.4 0 2.2l-.5-4.2-1.4 2.4c-1.7 3-1.8 3-2 3zm3.8-6c.1-.2-.2-.4-.4-.2-.2.1 0 .4.2.4l.2-.1zm133.3-72.5-1-3.1-.2-.7-.6 2c-.5 1.3-.9 2-1 2l.6-2c.3-1 .5-1.7.4-1.8l-3 2c-1 1-2 1.6-2 1.6-.5 0 .2-.6 2.2-2.1l2.6-2c.4-.2.3-.2-1.8-.2-1.4 0-2.4-.1-2.4-.2l2.3-.1h2.2l-1-.8c-3-2-4.4-3-4.3-3.3 0-.2 0-.3 3.2 2 1.2 1 2.1 1.5 2 1.4l-1-3.9c0-.2.3.4.7 1.5.1.7.4 1.5.6 2l.3.8.6-2a296.8 296.8 0 0 0 1.6-4.4s.2.1.1.2l-1.8 5.8-.1.4.4-.4a28 28 0 0 1 3.1-2.1c0 .2 0 .3-1.6 1.5l-1.6 1.2h3.2c4.3 0 4.3.3 0 .4h-3.2l1.6 1.2a6 6 0 0 1 1.6 1.5c-.3 0-1.4-.8-2.7-1.8-.3-.3-.6-.5-.7-.4-.1.1.1 1 1 3.6a133.4 133.4 0 0 1 .7 2.6c-.2 0-.6-1-1-2.4zm-.9-4.2c.2-.3-.2-.5-.4-.3-.1.1 0 .5.2.5l.2-.2zM-9.9-4.2l.7-6.3c0-.4 0-.3-1.4 1.1-.9 1-1.5 1.8-1.6 1.7-.1-.1.4-.9 1.2-1.7A20.5 20.5 0 0 1-9.6-11 93 93 0 0 1-16-9.8c0-.1.6-.3 2-.6 3.3-.7 5-1.2 4.3-1.2l-2-.7c-1.1-.5-1.9-1-1.7-1 0-.1.9.2 2 .7l1.8.7-1.3-2.4c-1.7-2.9-1.7-3-1.5-3.1l1.7 2.5c1 1.7 1.6 2.7 1.6 2.5l.3-1.9.4-2c.2 0 0 1-.1 2.5-.1.8-.2 1.4-.1 1.5 0 0 1-.9 2-2.1l2.1-2.3c.4 0 .1.5-1.8 2.6l-2 2.4c.2 0 1-.3 2.1-.4 1.8-.3 2.6-.5 1.8-.1-.1 0-2.6.7-3.7.8a1148.9 1148.9 0 0 1 5.8 2.8c-.1.2-1.2-.3-3.1-1a59 59 0 0 0-3-1.3s1 1.4 1.5 2.6c.5 1 .5 1.2.4 1.2a12 12 0 0 1-2-3.4l-.3-.5v.5l-.4 3c-.3 3-.3 3.5-.5 3.5l-.2-.2Zm1.2-7.2c.1-.3-.2-.5-.4-.3-.2.1 0 .4.1.4l.3-.1z" style="fill:#b05f01;stroke-width:0.15"/></g></g><!-- app4joy --></svg>