<svg viewBox="0 0 1200 600" width="1200px" height="600px" xmlns="http://www.w3.org/2000/svg"><g><path fill="#bc0000" fill-opacity="1" d="M0 0h1200v600H0z" id="path2" style="fill:#cc0000;fill-opacity:1"/></g><g id="star"><path id="path11728" d="m200 37.5-8.4 26h-27.3l22 16-8.3 25.8 22-16 22 16-8.4-25.9 22-16h-27.2zm0 13.5 5.4 16.6h17.4l-14 10.2 5.3 16.6L200 84.2l-14.1 10.2 5.4-16.6-14.1-10.2h17.4z" style="fill:#ffd700;fill-opacity:1;stroke:none;stroke-width:0.14999977px;stroke-linecap:butt;stroke-linejoin:miter;stroke-opacity:1"/></g><g style="fill:#ffd700;fill-opacity:1" id="logo" transform="matrix(.98932 0 0 .98674 3.8 3.8)"><path id="rect4165-6" d="m137.4 171.7 18.9 19 17.8-17.7c27 29 55.4 57 82.3 86.1a10.4 10.4 0 0 0 14.7-14.6l-86.6-81.9 24-23.8-33.3-4.6z" style="fill:#ffd700;fill-opacity:1;stroke:none;stroke-width:0.48919073;stroke-miterlimit:4;stroke-dasharray:none;stroke-dashoffset:0;stroke-opacity:1"/><path id="path4179-3" d="M198.3 110.2a85 85 0 0 1 44.5 72.6 41.1 41.1 0 0 1-71.8 27.6l-4.2 3.5a6 6 0 0 0-7 1.8 8 8 0 0 0-6.4 5.3 27 27 0 0 1-15.4 13.6q-4.8 1.7-8.8 5.8c-5.2 5.2-7.8 12-6.3 16.6a4 4 0 0 0 5.3 4.9c4.7 1 11-1.6 16-6.6q4.4-4.4 6-9.5a27 27 0 0 1 14-15.3c2.1-1 3.7-3 4.2-5.2a55 55 0 0 0 40.6 19.1c29.8.7 52-21.2 53.1-52.8a83 83 0 0 0-19.6-53.2 88 88 0 0 0-44.2-28.2" style="fill:#ffd700;fill-opacity:1;stroke:none;stroke-width:0.50003481;stroke-miterlimit:4;stroke-dasharray:none;stroke-dashoffset:0;stroke-opacity:1"/></g><!-- app4joy --></svg>