<svg xmlns="http://www.w3.org/2000/svg" id="svg38" width="900" height="600" version="1.1" viewBox="-1502 0 900 600"><g id="g39"><path id="path1" fill="#006c35" d="M-602 600V0h-900v600z"/></g><g id="g27" fill="#fff" transform="matrix(.52078 0 0 .57116 -1049.1 -223.3)"><path id="path2" d="M-704.4 564c10-28 11-53-1-44-10 8-16 0-8-9 10-13 23-17 26 5 1 17-11 38-17 48z"/><path id="path3" d="M-618.5 721c3 36 13 103 13 126 1 24 4 17 10 4s5-27 4-46c-2-20-3-53-7-98 8-6 15-16 18-22 8-15 10-14 13-2 6 24 30 40 61.9 17 30-21 17-65 4-113 11 2 15-7 8-19-3-7-9-13-14-19s-10-11-15-5c-4 6-9 11-12 15s-3 8 1 18c12 28 20 58 22 75 3 16-3 20-14 20s-26-3-32-27-9-35-8-51 3-27-8-43c-12-16-13-13-16-5-2 9-6 22-2 37 5 22 8 41 11 54 2 9-7 28-19.9 38-3-30-8-70-10-102 17-6 8-29-6-54-10-19-14-11-21 1s-2 17 3 27c-4 8 3 20 6 42 1 14 4 54 7 89-14 0-22-9-27-21-11-25-8-48-3-63s10-38 1-44c-8-6-19 1-26 12-11.9 18-22.9 44-23.9 71-1 11-4 32-9 40-4 8-11 9-18-3-12-19-16-67-15-92 0-12-3-14-7 0-13 48 2 100 13 122s25 17 35-1c15-27 9-51 23-91 8-25 11-6 8 9-7 40-5 105 52 104z"/><path id="path4" d="M-575.5 511c-3 8-1 18 4 24 5 7 14 7 20 2 5-6 5-7 10 1 3 6 13 4 16-2 2-5 4.9-10 2-17-3-7-3-5-5 3-2 13-14 10-15-6 0-15-3-7-7 3-7 15-17 12-17-1 0-11-3-20-8-7z"/><path id="path5" d="M-738.3 812c29-35 65.9-53 84.9-59 12-4 18-9 18 3 1 11 0 12-10 15-23 6-71 30-87 42-8 6-18 13-6-1z"/><path id="path6" d="M-717.4 875c1 10 1 17 1 21 0 7-4 14-6 23-12 43 6 64 16 48 9-16 14-14 13-1-1 43-42 46-45 10-5-57 8-66 12-85 3-13 7-23 9-16z"/><path id="path7" d="M-506.6 789c-4 1-8 3-11 4-18 5-21-2-20-13s2-14 14-9c5 2 11 9 17 18l27-10c-5-11-12-20-23-31-18-18-33-19-48 3-14 21-13 26-12 45s-3 26 12 31c14 5 20 3 29 0 7-2 17-5 27-9 2 10 1 21-5 29-37 44-94 76-118.9 47-14-16-20-41-16-71 4-25-4-14-7-5-9 29-12 71 0 92 17 29 44 42 87 23 42.9-19 84.8-53 82.8-100 0-9-1-17-1-23 4-2 11-7 16-9 1 16-1 36 0 52 2 51-18 66-36 80-24.9 20-58.9 33-87.8 38-69 10-85-34-84-93 0-9 4-15 4-28-1-25-4-21-12 4-7 24-15.9 80 7 126 24 46 105 33 167.9 3 62-30 68.9-87 65.9-144 0-15-1-31-2-48 2-1 3-3 4-4 9 29 51 21 64 4 7-8 7-9 13 0 8.9 13 39.9 17 47.9-1 7-19 6-37 4-51s-5-13-14-6c-10 8-2 9-1 19 4 38-29 35-33-4-2-24-6-15-9-4-14 47-55 56-51 2 1-16-9-11-14-5-4.9 4-8.9 9-13.9 12-3-44-6-94-11-154 12 15 23-2 15-19-6-13-15-42-21-58-5-16-8-11-21 2-12 14-10 17-4 31-2 17 1 34 5 69 3 25 11 77 15 143-6 3-15 9-21 12z"/><path id="path8" d="M-363.8 859c2 7 1 23-2 30-4 9 0 13 6 2 6-12 10-26 7-40-1-10-1-13-10-17-10-4-13 2-16 10-4 10 1 21 15 15z"/><path id="path9" d="M-336.8 639c-12 15-21 37-4 50 9 8 28-1 35-16 7-16 4-18-8-5-17 19-34 2-16-24 12-18 5-22-7-5z"/><path id="path10" d="M-310.8 550c2-4 4-9 5-13 2-6-3-12-7-3-3 7-4 12 2 16l-11 19c-13-11-13-27-8-41 12-31 52-27 41 13-1 6-4 14-8 22 6 8 3 18-9 16-13 21-38 44-81 63-20 9-23 2-8-7 29-19 56-42 73-66z"/><path id="path11" d="M-264.9 554c-16 45-15 88 18 125 19 21 33 11 41-12 9-22 15-44 21-59s11-12 10 2c-3 28-5 73 22.9 90 28 17 70.9-12 85.9-42 45 60 84.9 32 89.9-26 1-18-7-57-12-68-5-12-2-12 5-6 7 7 19 11 13-9-7-19-15-30-26-39-10-9-12-4-16 3s-3 9-9 14c-6 6-5 9 0 20 17 44 33 108 6 114-25 5-41-49-42-73-1-32-5-59-11-76-7-17-9-20-13.9-11-4 7-5 12-9 19s0 9 3 23c15 70 13 102-19 120-32 19-49 1-49-21-1-22-1-49 2-69 2-20 7-23 0-33-7-11-12.9-7-21.9 6-20 28-40 75-47 97-7 23-21 15-30.9-4-11-23-10-64-6-80s2-23-5-5z"/><path id="path12" d="M-129 515c-7 7-7 8-1 17 6 7 15 29 12 52-1 10 1 20 6 2 4-18 3-43-2-58s-11-19-15-13z"/><path id="path13" d="M15.8 774c7-2 14-3 22-5 21-5 9-7-5-16-15-9-21-9-20 1 1 6 1 12 3 20l-26 8c-17-25-6-43 7-62 16-23 42-16 72 5 29.9 21 18 54-11 71-7 4-16 8-27 12 3 7-1 9-10 3-26 9-60 22-84 35 29 2 149 0 172.9-3 24-2 20 2 13 23-7 20-15 18-35 21-32 6-79 20-112.9 34-34 14-22 39 13 52 27 7 24 10 19 26-4 15-4 19-37 14-80.9-13-109.8-58-122.8-93-50 71-99 110-144.9 98-23-5-34-26-36-52-31.9 15-68.8 28-116.8 42-11 4-20-1-5-8 32-16 82-43 122.9-72 4-18 13-43 22-61 5-11 8-7 8 2 0 7-2 25-1 38 7-6 17-12 22-17 27.9-25 58.9-41 37.9-81-9-18-16-31-19-39-18-7-13-17-5-34s11-21 27-2c23 27 26 39 10 37 25 64 19 97-20 135-18 19-37 34-59 46-2 17 5 34 37 29 42-6 89-61 108.9-103-9-35-29-98-41-130-6-16 0-23 5-36 6-13 9-21 16-3 7 17 29 60 39 111 11 51 9 95 35 119 12 11 26.9 18 42.9 22-12-34 13-60 46-72-20-19-51-16-86-18-26-1-23-4-16-27s15-26 34-34c26-10 52-20 79-28z"/><path id="path14" d="M-100 733c-2 14 1 23 6 30s14.9 6 17.9-2c3-9 5-10 11-3 7 7 30 1 19-34-5-14-7-11-7 5 0 25-8 25-17 1-3-9-7-9-8 3 0 23-10 26-16 3-2-10-4-18-6-3z"/><path id="path15" d="M195.6 515c-4 8-7 14 1 20s20 22 15 40c-3 14 0 25 9 5 9-21 2-46-7-62-8-14-13-11-18-3z"/><path id="path16" d="M270.5 880c-9-45-50-117-110.9-211-2-25-3-48-3-69 9 10 15 4 12-9-6-23-15-42-26-68-4-11-15-14-20 2-7 19-8 23 1 36-1 14 4 38 6 60-11-16-25-36-35.9-53 17 7 27 2 12-14-15-17-36-34-49-46s-19-4-17 7c1 11 2 19 1 28s2 15 15 20c26 34 52 69 76 105 3 30 9 63 12 90 8 64 20 147 10 183-8 27 0 39 13-2 11.9-41 10.9-80 3-141-3-24-4-54-7-82 41.9 65 79.8 127 96.8 170 9 23 17 28 11-6z"/><path id="path17" d="M203.6 628c4 12 9 18 12 3 2-13 6-17 8-3 3 14 11 12 13-1 3-13 7-20 9-6 2 15 1 20-1 25-1 4-9 9-15 3-7-6-9-6-14-1-11 10-15 3-17-11-1-12 3-17 5-9z"/><path id="path18" d="M42.8 968c10-6 15-11 23-14 8-4 14-3 8 14-6 20-3 26 10 21 11.9-4 18.9-9 28.9-13 9-4 19-4 5 7-11 9-27 21-36 23-20 5-30-3-26-19 4-15 7-21-5-16-14 6-13 0-8-3z"/><path id="path19" d="M293.5 586c8 7 17 7 12-8s-9-33-14-50-8-21-14-13c-7 9-12 12-17 18-5 5-6 16 0 26 22 151 23 218 26 274s11 82-24 120c-38 41-61 51-78 55-20.9 6-28.9 15 3 13 47-3 54-4 92-49 22-24 33-56 31-130-2-130-20-186-17-256Z"/><path id="path20" d="M362.4 591c14 7 29 11 18-6-11-16-20-43-26-63-7-20-9-19-20-2-17 26-2 51 2 81 14 107 28 216 32 245 4 32 9 53 1 88-3 11 1 14 8 1 28-53 9-99 6-129-5-46-21-168-24-217"/><path id="path21" d="M431.3 672c-2 9-14 9-13-1s0-8 0-16c-1-8 9-13 14-6 6 7 16 29 19 37 4 8 6 6 6-5-1-13-3-25-2-34 1-5 4-11 10-16 7-5 11-6 14 3 2 8 8 9 5 16-4 10-13-10-19 4-3 10 0 38-1 48 0 9-4 22-11 7-5-10-12-27-22-37z"/><path id="path22" d="M428.3 795c0-7 3-9 15-19 10-8 38-28 47-37s16-17 18-6c1 11 3 15-8 21-11 5-40 23-49 30-10 8-23 18-23 11z"/><path id="path23" d="M702 874c-2-14-6-28-24-55-18-26-34-50-50-73-5-60-11.9-124-11.9-158 8 8 14 0 10-13s-12-48-18-63c-5-14-11-11-19 2-7 13-12 19-7 29 2 58 10 114 19 165-16-22-31-43-45-62-1-22-3-44-4-66 9 7 13 5 8-8-4-14-15-43-20-56s-8-13-14.9-3c-11 17-14 29-5 45 1 14 3 29 4 42-9-12-17-24-24-35 9 5 16-3 6-12-9-9-28-24-36-35-9-11-17-11-17-1s1 19 0 28c-2 8-2 16 10 30 23 28 45 57 66 84 8 100 13 164 11 204-1 24-9 38-22 42-13 5-26-4-38-22-22-32-30-26-46.9 2-16 26-27 48-36 67-8 18-22 34-35 10-11.9-24-13.9-51-12.9-70 0-19-3-34-10-4-18 74-7 90 13 106 25 22 33 24 46 5 26-36 33-68 47.9-86 12-14 12-3 18 4 15 19 28 26 49 29 20.9 4 58.8-14 55.8-84-2-42-5-99-9-160 20 28 38 53 52 73 7 40 11 76 9 105-2 33 5 33 12-1 2-14 2-43-1-78 27 36 43 60 54 77 11.9 21 18.9 39 15.9-4z"/><path id="path24" d="M644 543c-6 10-5 12 2 23 7 12 13 34 13 51s6 15 9-1c3-15 2-45-7-66-9-22-12-14-17-7z"/><path id="path25" d="M725 575c11 10 17 7 10-10-8-17-16-35-23-51-8-17-10-13-19-1-10 12-11 21-7 28 19 159 28 242 30 290 4 70-13 109-81 154-21.9 15-46.9 32 6 19 52-13 108-48 102-193-5-130-22-187-18-236z"/><path id="path26" d="M481.6 787.1c-4 6-7 10.4 1 14.9 8 4.4 20 16.3 15 29.7-3 10.4 0 18.5 9 3.7 9-15.6 2-34.2-7-46-8-10.4-13-8.2-18-2.3z"/><path id="path27" fill-rule="evenodd" d="M536.5 975c2.9 3.6 4.8 7-.2 13-4.7 4.3-8 6.7-12.7 11-2.2 3.8-3.6 9.5 3.2 11.3 12.5 3.6 36.1-12 36.1-12.5 4.7-3.5 3.1-10.2 2.7-10.2-2.7-3-8.9-1.2-13-1.7-2 0-3.2-4.1 0-9.9 2.5-3.5 3.4-5.7 5.2-10.1 2-4.3.2-7.2-6.8-9.5-7.2-1.4-10-.7-18 0-4.3.9-5.8 2.8-6.5 8 .3 8 5 7.5 10 10.6z"/></g><g id="g38" transform="matrix(-.26946 0 0 .26946 -1052 45)"><path id="path28" fill="#fff" d="M-690.2 1793.4a79.1 79.1 0 0 1 34-34.7 50.7 50.7 0 0 0 26.3-35.5c3.2-22 1.4-23.7-12.5-12.2-17.8 14.8-38 7.7-38-13.3 0-31.8 47.2-36.7 184-19 102.7 13.3 221 17.3 508.8 17.4 504.3.2 621.3-15 802-104 51.7-25.4 115-64.8 140.7-87.5l46.9-41.2-66.3 26.4c-93 37-238.3 72.3-360.8 87.8-132 16.7-684 17.1-854.2.7-308.9-29.9-338.8-34.6-350-55.6-15.5-28.8-6.7-45.9 13.3-25.9 9 9.1 19.4 13.6 23 10 12.7-12.6 6-43.6-12.3-57a58.2 58.2 0 0 1-20.2-38.2c-1-13.6-4.1-27.1-7.2-30.1-8.3-8.4-37.2 18.8-37.2 35.1 0 8-8.6 14.4-19.2 14.4-10.5 0-24.3 11.2-30.5 25-13.2 29-5.4 42.5 14.7 25.8 19.2-16 31.4 17 14 37.9-16 19.2-35.3 19.3-88.4.1-23-8.2-70.6-15.2-105.9-15.4-59-.5-66.3 2-91.1 31.6-33.5 39.8-34.2 73-2.3 110 24.2 28.1 25.3 28.4 52.1 10.8 15-9.9 27.4-22.5 27.4-28.1 0-18 25.8-11 39.3 10.6 13.8 22.2 58.5 27.9 85.5 10.8 20-12.7 52.4 15.7 52 45.5-.3 20.3-1.4 20.6-14 3.8-16.5-21.6-27.4-13.6-27.4 20.1 0 13.7 8.1 28 18.3 32.2 10.2 4.2 18.2 18.4 18.2 32.6 0 34 23 39.6 37 9z"/><g id="g37" fill="#006c35"><path id="path29" d="M-1278.6 1667.3c0 17.7-13.1 32-29.3 32-16.3 0-29.4-14.3-29.4-32s13.1-32 29.4-32c16.2 0 29.3 14.3 29.3 32z" transform="matrix(.63636 0 0 .58333 -58.8 589.2)"/><path id="path30" d="M-1278.6 1667.3c0 17.7-13.1 32-29.3 32-16.3 0-29.4-14.3-29.4-32s13.1-32 29.4-32c16.2 0 29.3 14.3 29.3 32z" transform="matrix(.63636 0 0 .58333 44 598.5)"/><g id="g36" transform="matrix(-.08778 -.0227 -.0227 .08778 -650.3 1346.9)"><path id="path31" d="M-1278.6 1667.3c0 17.7-13.1 32-29.3 32-16.3 0-29.4-14.3-29.4-32s13.1-32 29.4-32c16.2 0 29.3 14.3 29.3 32z" transform="matrix(4.54731 0 0 4.16837 5521.4 -4701.3)"/><g id="g33" transform="translate(108.3)"><path id="path32" d="M-1278.6 1667.3c0 17.7-13.1 32-29.3 32-16.3 0-29.4-14.3-29.4-32s13.1-32 29.4-32c16.2 0 29.3 14.3 29.3 32z" transform="matrix(4.54731 0 0 4.16837 5658.2 -3877)"/><path id="path33" d="M-1278.6 1667.3c0 17.7-13.1 32-29.3 32-16.3 0-29.4-14.3-29.4-32s13.1-32 29.4-32c16.2 0 29.3 14.3 29.3 32z" transform="matrix(4.54731 0 0 4.16837 5168.2 -3877)"/></g><g id="g35" transform="translate(0 98.9)"><path id="path34" d="M-1278.6 1667.3c0 17.7-13.1 32-29.3 32-16.3 0-29.4-14.3-29.4-32s13.1-32 29.4-32c16.2 0 29.3 14.3 29.3 32z" transform="matrix(4.54731 0 0 4.16837 5941.6 -4428.2)"/><path id="path35" d="M-1278.6 1667.3c0 17.7-13.1 32-29.3 32-16.3 0-29.4-14.3-29.4-32s13.1-32 29.4-32c16.2 0 29.3 14.3 29.3 32z" transform="matrix(4.54731 0 0 4.16837 5101.3 -4428.2)"/></g></g></g></g><!-- app4joy --></svg>