<svg width="900" height="600" id="svg13399" viewBox="0 0 900 600" xmlns="http://www.w3.org/2000/svg"><g id="g13526"><path fill="#a51931" d="M0 0h900v600H0Z" id="path13271" style="display:inline"/></g><g id="g13523"><path d="M417.4 230.6q-3.6 0-7.1 1.5a43 43 0 0 0-19.3 20.3c-1.7 3.7-.4 8.7-.4 8.7s-2 .9-2.6 1.6c-2.9 3-4.9 7-6 11-.6 2-.7 7-.7 7s6.7-1.2 8.6-.3c.8.4 1.4 1.7 1.2 2.6-.7 2-2.5 3.5-4.5 4.5s-6.6.7-6.6.7-1.3 8-.7 11.5c.4 2 2.4 3.6 2.7 5.7a15 15 0 0 1-1 8c-1 2.3-4 3.5-4.7 6a16 16 0 0 0 .7 10.6 13 13 0 0 0 6.3 6.7c2.6 1 5.8 1 8.3 0 3-1.2 5.4-4 7-6.7 1.1-1.8 1.4-4 1.7-6 .2-1.3-.6-2.8 0-4 .5-1 2.7-2 2.7-2s-2.5-.9-3.7-.6a7 7 0 0 0-4.7 3c-1 1.8.4 4.3-.3 6.3-.6 1.6-1.4 3.5-3 4.3a5 5 0 0 1-4.3 0 6 6 0 0 1-3-3c-1-2.2-.7-5 0-7.3.8-3 4-5 5-8q1.7-5.7.6-11.7c-.1-1.2-1.2-2.3-1.3-3.6-.2-2.7 1.7-8 1.7-8s5.5-4.8 9-5.7c2.3-.5 5 1.5 7.3.7 1.8-.6 3.7-2.1 4-4 .2-1.5-3-3-2-4 2.1-2.2 4 3.2 7 2.7 1.4-.3 3.4-.6 4.3-1.7 2.2-2.5 3-6.5 6-8a2 2 0 0 1 1.7 0c4.5 2.2 3.8 15.7 8.8 15 1-.2 2.8-2 3-3 .5-3.2-2.2-9.8-1.5-13 .5-2.1 2.9-3.5 3.3-5.7.4-1.6-1-3.3-.6-5 .4-2.3 3.8-4 3.3-6.3-.6-2.8-4-5.1-7-5.3s-6 2-7.7 4.3c-.7 1 0 2.6-.6 3.7-.7 1-2.5 1.2-3 2.3-1 2.1 3.4 7.5 1 7.3 0 0-4.7-5.8-6.7-7.6-1.3-1.3-4.9-.3-4.3-2 .6-2 4.1.4 6-.3 6-2.3 8.9-10.8 15.3-10.7 4.6 0 8.5 3.6 10.7 7.7 1.2 2.4-2.1 3.9-2.8 6.6l-3.2 12c-1.1 3.7 1.1 8 0 11.7-.8 2.4-2.6 5.2-5.2 5.2-5.7 0-8.8-13.7-8.8-13.7-3.4-2.5-4.4 6.3-8 8.5-2.4 1.5-8.3 4-8.3 4s6.5 4.2 8 7.6c2.1 5.1-1 11.2 0 16.7.4 2.6 2.6 7.6 2.6 7.6l1 6.7c-.3 2.8-1.2 3-.7 9l1 6-1.6 5.3v5.3l10-.3c.4-3 .4-4.9 1.6-10.3l-.5-7.7-2-7.3s-.2-4 .3-6 1.4-5.3 1.6-7.3c.1-2.1-2.7-4.2-1.7-6 1.1-2-1.8-6.7 0-7.7 1.3-.7 1.2 2.3 2 4.2.6 1.4 2.3 2.1 2.3 2.1s9-5 6.8-7.6c-1-1.2-2.3-4-.8-4.3 2.5-.6 3.4 4.4 3 7-.5 4-8.2 7.3-8.2 7.3l-1.8 13 .7 11.6 2.7 7.3c-1.4 4.3-2.8 8.5-.7 11.9h11.3c2.1 0 1.6-2.6 1.5-6.2 0-3 .8-6.6-.8-10a24 24 0 0 1-2.5-8.7c-.3-3-.2-5.9-.8-9-1-4.7 1.4-6.4 6.3-6.6a62 62 0 0 0 33 1.7c.3 3.3 4.8 9.6 11.3 17.3-.7 1.9-1.2 4 0 10.3l-2 7v4.2h10.3l1-7.5-1-8c-.9-10.2.1-12.2 1-14.7l-2.3-11c1.6 1.3 2.4 2.8 5 9.4l-.7 8c-.2 1.5-1.4 4.6 0 9l.7 6.3-1.4 8.5h13.3l-.3-9.5-1.3-2.7v-6.3l-2-5 .3-9.3 6-16s1.3 1.8 1.5 3c1 5.5-2.9 11-2.2 16.6.2 1.5 1.7 4 1.7 4s-1.5 1.9-1.7 3c-.4 3.3.3 7.1 2.4 9.7 2 2.4 8.3 4 8.3 4s-4-4.5-5-7.4c-.9-2.6.6-5.7-.3-8.3-.2-.5-1-1.3-1-1.3s-1-2-1.3-3.6c-1-6.2 3.3-12.8 3.3-19 0-2.9-2.4-8.4-2.4-8.4s.5-11-2-15.6a88 88 0 0 0-38.6-36c-4-2.2-12-2.7-16.6-3-9.6-.7-28.7 2.3-28.7 2.3s-5.2-3.8-12-5.6c-1.4-.4-1.9-2.5-3.3-3a19 19 0 0 0-7.2-1.2m-15.3 25s-1.6 1.7-2 2.6q-.7.6-.5 1.3c.4 1 1.2 2 2.2 2.1s2.4-.6 3-1.6c.8-1.1.2-4 .2-4s1.5 2 1.7 3.3q.2 1.3-.5 2.5c-1 1.5-3 2.2-4.6 3-.7.4-2.3.8-2.3.8s1-1 1.2-1.7c.1-.5-.2-1.3-.2-1.3s-1.9.1-2.5-.7q-1-1.5-.4-3.1t2.1-2.5c.8-.5 2.6-.6 2.6-.6M371.8 271c.9 3.4 4.8 5.3 8.3 6.3l.3-3.4a30 30 0 0 1-8.6-2.9m-4.8 8c1.4 5.8 7.3 7.8 15.5 7.8 6.9.8 8.8-6 3.4-5.3-6.8.2-14.2.7-19-2.5m33.1 72.3q-2.6 0-5 .7c-1.4.4-2.3-.5-3.6 0-2.3.8-7 0-7 0s-1 2.7 1.1 3.7c.9.4 3.3 0 4.9.3 1.5.2 2 1 2.8 1 1.5 0 2.7-1.6 4.2-1.8 2-.3 6 .7 6 .7s.5 1.6-.5 2c-.8.3-2.7 0-3 .6-.7 1-1.2 1.8-.4 2.7 1 1 4.3.4 4.3.4s-1 3.2 0 4.2c.7.8 3.2 0 3.2 0s.8 3.2 2 4c.8.3 2.6 0 2.6 0s-1.2 3.2-.4 4.5c.6 1 2.7.4 3.8.7.8.3.7 1.3 1.5 1.4 2.6.3 7.8-1 7.8-1s-.6 3.4.4 4.6 4.2 1.4 4.2 1.4-.2 1.6.4 2.1c.8.8 2.7-.2 4-.3 1-.1 1.6.6 2.7.3 1.5-.4 3.9-2.5 3.9-2.5s2 4 3.9 5c1.2.6 4.2 0 4.2 0s2.7 1.6 4.3 1.8q4 .4 7.7-1.1c1.3-.5 2.2-1.7 3.2-2.5l4.6-3.5s5.4 1.5 8.2 1.4c1.3 0 2.3-1 3.9-1.4 1.5-.6 3 .4 3.5-.7.4-1-1.7-2.8-1.7-2.8l-2.6-.6-1.4-2s4.5-.8 6.8-.6c1.6 0 3.2.9 5 1 2 .2 3.4 0 5.5-.1 1.2 0 3.2.6 4-.2.3-.4 1.6-1.3 1.5-2.3s-1.8-2-1.9-2.6q.2-3.2.4-3h6.7s0-1.8.7-2.4c.8-.7 2.5.4 3.2-.4 1-1.1 0-4.6 0-4.6s3.2.8 4.6 0c1-.5.6-1.7 1.4-3 .4-.7 1.8-.6 2.2-1.2 1-1.2 1-3.2 1-3.2H511c-4 .2-12 0-12 0h-83.9s-4.2.3-6.4 0q-4.3-.7-8.7-.7" fill="#f4f5f8" fill-rule="evenodd" id="path13273" style="display:inline"/></g><g fill="#f4f5f8" color="#000000" id="g13397" style="display:inline"><path d="M329.8 651.8a100 100 0 1 0 0 200 100 100 0 0 0 0-200m0 3.4a96.5 96.5 0 1 1 0 193 96.5 96.5 0 0 1 0-193m0 1.8a94.8 94.8 0 1 0 0 189.6 94.8 94.8 0 0 0 0-189.6m0 2.8a92 92 0 1 1 0 183.9 92 92 0 0 1 0-183.9m0 15a77 77 0 1 0 0 154 77 77 0 0 0 0-154m0 2.8a74.1 74.1 0 1 1 0 148.3 74.1 74.1 0 0 1 0-148.3m0 2.1a72 72 0 1 0 0 144.2 72 72 0 0 0 0-144.2m0 3.4a68.6 68.6 0 1 1 0 137.3 68.6 68.6 0 0 1 0-137.3" style="text-indent:0;text-decoration-line:none;text-decoration-style:solid;text-decoration-color:#000000;text-transform:none;white-space:normal;isolation:auto;mix-blend-mode:normal" transform="translate(-18.6 -771.8)scale(1.4277)" id="path13275"/><path d="M329.8 661.6q-2.1.1-3.3 1.8-1 1.2-1.1 3l-2.6-.1c-3.9 0-5.4.8-6 1 .6.4 2.1 1.2 6 1.2h2.6q.2 1.5 1 2.8 1.3 1.6 3.4 1.8 2-.1 3.2-1.8.9-1.2 1.2-2.8h2.5c4 0 5.5-.8 6-1-.5-.4-2-1.2-6-1.2h-2.5a6 6 0 0 0-1.2-2.9q-1.2-1.6-3.2-1.8m0 2.3q.8 0 1.4.9.8 1 .8 2.6t-.8 2.5-1.4 1q-.7 0-1.5-1-.6-1-.7-2.5 0-1.6.7-2.6t1.5-1m0 166.6q-2.1 0-3.3 1.8-1 1.2-1.1 2.9h-2.6c-3.9 0-5.4.7-6 1 .6.3 2.1 1.1 6 1.1h2.6q.2 1.5 1 2.8 1.3 1.7 3.4 1.8 2 0 3.2-1.8.9-1.2 1.2-2.8h2.5c4 0 5.5-.8 6-1-.5-.3-2-1.1-6-1.1h-2.5a6 6 0 0 0-1.2-3q-1.2-1.7-3.2-1.8m0 2.2q.8 0 1.4.9.8 1 .8 2.6t-.8 2.6-1.4.9q-.7 0-1.5-1-.6-.9-.7-2.5t.7-2.6q.7-.9 1.5-.9" style="text-indent:0;text-decoration-line:none;text-decoration-style:solid;text-decoration-color:#000000;text-transform:none;white-space:normal;isolation:auto;mix-blend-mode:normal" transform="translate(-18.6 -771.8)scale(1.4277)" id="path13277"/><g fill-rule="evenodd" id="g13281"><path d="M-270.5 529.9q-1.7.1-2.3-.8.5-.9 2.3-.7 1.7-.2 2.3.7-.5 1-2.3.8m0 4q-1.7.1-2.3-.8.5-.9 2.3-.7 1.7-.2 2.3.7-.5 1-2.3.8" style="text-indent:0;text-decoration-line:none;text-decoration-style:solid;text-decoration-color:#000000;text-transform:none;white-space:normal;isolation:auto;mix-blend-mode:normal" transform="rotate(-15 -4871.4 -3553.8)scale(2.68771)" id="path13279"/></g><g fill-rule="evenodd" id="g13285"><path d="M-270.5 529.9q-1.7.1-2.3-.8.5-.9 2.3-.7 1.7-.2 2.3.7-.5 1-2.3.8m0 4q-1.7.1-2.3-.8.5-.9 2.3-.7 1.7-.2 2.3.7-.5 1-2.3.8" style="text-indent:0;text-decoration-line:none;text-decoration-style:solid;text-decoration-color:#000000;text-transform:none;white-space:normal;isolation:auto;mix-blend-mode:normal" transform="rotate(-15 -3956.3 -3674.3)scale(2.68771)" id="path13283"/></g><path d="M-270.5 528.5q-1 0-1.7 1-.6.5-.6 1.4h-1.4c-2 0-2.9.5-3.1.6q.1.5 3.1.6h1.4q0 .8.6 1.5.6.9 1.7 1 1-.1 1.7-1 .5-.7.6-1.5h1.4q2.9-.1 3.1-.6c-.2-.1-1-.6-3.1-.6h-1.4q0-.8-.6-1.5-.6-.9-1.7-1m0 1.1q.4 0 .8.5t.4 1.4-.4 1.4-.8.4-.8-.4q-.4-.6-.4-1.4 0-.9.4-1.4t.8-.5m0 88.5q-1 0-1.7 1-.6.7-.6 1.5h-1.4q-2.9.1-3.1.6c.2.1 1 .6 3.1.6h1.4q0 .8.6 1.5.6.9 1.7 1 1-.1 1.7-1l.6-1.5h1.4q2.9-.1 3.1-.6c-.2-.1-1-.6-3.1-.6h-1.4q0-.7-.6-1.5-.6-1-1.7-1m0 1.2q.4 0 .8.5t.4 1.4q0 .8-.4 1.4-.4.4-.8.4t-.8-.4-.4-1.4.4-1.4.8-.5" style="text-indent:0;text-decoration-line:none;text-decoration-style:solid;text-decoration-color:#000000;text-transform:none;white-space:normal;isolation:auto;mix-blend-mode:normal" transform="rotate(-30 -2465.3 -1275.2)scale(2.68768)" id="path13287"/><path d="M-270.5 528.5q-1 0-1.7 1-.6.5-.6 1.4h-1.4c-2 0-2.9.5-3.1.6q.1.5 3.1.6h1.4q0 .8.6 1.5.6.9 1.7 1 1-.1 1.7-1 .5-.7.6-1.5h1.4q2.9-.1 3.1-.6c-.2-.1-1-.6-3.1-.6h-1.4q0-.8-.6-1.5-.6-.9-1.7-1m0 1.1q.4 0 .8.5t.4 1.4-.4 1.4-.8.4-.8-.4q-.4-.6-.4-1.4 0-.9.4-1.4t.8-.5m0 88.5q-1 0-1.7 1-.6.7-.6 1.5h-1.4q-2.9.1-3.1.6c.2.1 1 .6 3.1.6h1.4q0 .8.6 1.5.6.9 1.7 1 1-.1 1.7-1l.6-1.5h1.4q2.9-.1 3.1-.6c-.2-.1-1-.6-3.1-.6h-1.4q0-.7-.6-1.5-.6-1-1.7-1m0 1.2q.4 0 .8.5t.4 1.4q0 .8-.4 1.4-.4.4-.8.4t-.8-.4-.4-1.4.4-1.4.8-.5" style="text-indent:0;text-decoration-line:none;text-decoration-style:solid;text-decoration-color:#000000;text-transform:none;white-space:normal;isolation:auto;mix-blend-mode:normal" transform="rotate(-60 -1217.8 -96)scale(2.68768)" id="path13289"/><path d="M-270.5 528.5q-1 0-1.7 1-.6.5-.6 1.4h-1.4c-2 0-2.9.5-3.1.6q.1.5 3.1.6h1.4q0 .8.6 1.5.6.9 1.7 1 1-.1 1.7-1 .5-.7.6-1.5h1.4q2.9-.1 3.1-.6c-.2-.1-1-.6-3.1-.6h-1.4q0-.8-.6-1.5-.6-.9-1.7-1m0 1.1q.4 0 .8.5t.4 1.4-.4 1.4-.8.4-.8-.4q-.4-.6-.4-1.4 0-.9.4-1.4t.8-.5m0 88.5q-1 0-1.7 1-.6.7-.6 1.5h-1.4q-2.9.1-3.1.6c.2.1 1 .6 3.1.6h1.4q0 .8.6 1.5.6.9 1.7 1 1-.1 1.7-1l.6-1.5h1.4q2.9-.1 3.1-.6c-.2-.1-1-.6-3.1-.6h-1.4q0-.7-.6-1.5-.6-1-1.7-1m0 1.2q.4 0 .8.5t.4 1.4q0 .8-.4 1.4-.4.4-.8.4t-.8-.4-.4-1.4.4-1.4.8-.5" style="text-indent:0;text-decoration-line:none;text-decoration-style:solid;text-decoration-color:#000000;text-transform:none;white-space:normal;isolation:auto;mix-blend-mode:normal" transform="rotate(-90 -761.2 335.7)scale(2.68779)" id="path13291"/><g id="g13295"><path d="M-270.5 528.5q-1 0-1.7 1-.6.5-.6 1.4h-1.4c-2 0-2.9.5-3.1.6q.1.5 3.1.6h1.4q0 .8.6 1.5.6.9 1.7 1 1-.1 1.7-1 .5-.7.6-1.5h1.4q2.9-.1 3.1-.6c-.2-.1-1-.6-3.1-.6h-1.4q0-.8-.6-1.5-.6-.9-1.7-1m0 1.1q.4 0 .8.5t.4 1.4-.4 1.4-.8.4-.8-.4q-.4-.6-.4-1.4 0-.9.4-1.4t.8-.5m0 88.5q-1 0-1.7 1-.6.7-.6 1.5h-1.4q-2.9.1-3.1.6c.2.1 1 .6 3.1.6h1.4q0 .8.6 1.5.6.9 1.7 1 1-.1 1.7-1l.6-1.5h1.4q2.9-.1 3.1-.6c-.2-.1-1-.6-3.1-.6h-1.4q0-.7-.6-1.5-.6-1-1.7-1m0 1.2q.4 0 .8.5t.4 1.4q0 .8-.4 1.4-.4.4-.8.4t-.8-.4-.4-1.4.4-1.4.8-.5" style="text-indent:0;text-decoration-line:none;text-decoration-style:solid;text-decoration-color:#000000;text-transform:none;white-space:normal;isolation:auto;mix-blend-mode:normal" transform="rotate(240 -497.5 584.9)scale(2.68768)" id="path13293"/></g><g id="g13299"><path d="M-270.5 528.5q-1 0-1.7 1-.6.5-.6 1.4h-1.4c-2 0-2.9.5-3.1.6q.1.5 3.1.6h1.4q0 .8.6 1.5.6.9 1.7 1 1-.1 1.7-1 .5-.7.6-1.5h1.4q2.9-.1 3.1-.6c-.2-.1-1-.6-3.1-.6h-1.4q0-.8-.6-1.5-.6-.9-1.7-1m0 1.1q.4 0 .8.5t.4 1.4-.4 1.4-.8.4-.8-.4q-.4-.6-.4-1.4 0-.9.4-1.4t.8-.5m0 88.5q-1 0-1.7 1-.6.7-.6 1.5h-1.4q-2.9.1-3.1.6c.2.1 1 .6 3.1.6h1.4q0 .8.6 1.5.6.9 1.7 1 1-.1 1.7-1l.6-1.5h1.4q2.9-.1 3.1-.6c-.2-.1-1-.6-3.1-.6h-1.4q0-.7-.6-1.5-.6-1-1.7-1m0 1.2q.4 0 .8.5t.4 1.4q0 .8-.4 1.4-.4.4-.8.4t-.8-.4-.4-1.4.4-1.4.8-.5" style="text-indent:0;text-decoration-line:none;text-decoration-style:solid;text-decoration-color:#000000;text-transform:none;white-space:normal;isolation:auto;mix-blend-mode:normal" transform="rotate(210 -304.5 767.3)scale(2.68768)" id="path13297"/></g><g fill-rule="evenodd" id="g13395"><path d="M-270.5 529.9q-1.7.1-2.3-.8.5-.9 2.3-.7 1.7-.2 2.3.7-.5 1-2.3.8m0 4q-1.7.1-2.3-.8.5-.9 2.3-.7 1.7-.2 2.3.7-.5 1-2.3.8" style="text-indent:0;text-decoration-line:none;text-decoration-style:solid;text-decoration-color:#000000;text-transform:none;white-space:normal;isolation:auto;mix-blend-mode:normal" transform="rotate(-45 -1642 -498.7)scale(2.6878)" id="path13301"/><path d="M-270.5 529.9q-1.7.1-2.3-.8.5-.9 2.3-.7 1.7-.2 2.3.7-.5 1-2.3.8m0 4q-1.7.1-2.3-.8.5-.9 2.3-.7 1.7-.2 2.3.7-.5 1-2.3.8" style="text-indent:0;text-decoration-line:none;text-decoration-style:solid;text-decoration-color:#000000;text-transform:none;white-space:normal;isolation:auto;mix-blend-mode:normal" transform="rotate(-45 -1351.2 -619.2)scale(2.6878)" id="path13303"/><path d="M-270.5 529.9q-1.7.1-2.3-.8.5-.9 2.3-.7 1.7-.2 2.3.7-.5 1-2.3.8m0 4q-1.7.1-2.3-.8.5-.9 2.3-.7 1.7-.2 2.3.7-.5 1-2.3.8" style="text-indent:0;text-decoration-line:none;text-decoration-style:solid;text-decoration-color:#000000;text-transform:none;white-space:normal;isolation:auto;mix-blend-mode:normal" transform="rotate(-75 -949.6 156.3)scale(2.68771)" id="path13305"/><path d="M-270.5 529.9q-1.7.1-2.3-.8.5-.9 2.3-.7 1.7-.2 2.3.7-.5 1-2.3.8m0 4q-1.7.1-2.3-.8.5-.9 2.3-.7 1.7-.2 2.3.7-.5 1-2.3.8" style="text-indent:0;text-decoration-line:none;text-decoration-style:solid;text-decoration-color:#000000;text-transform:none;white-space:normal;isolation:auto;mix-blend-mode:normal" transform="rotate(-75 -792.6 35.9)scale(2.68771)" id="path13307"/><path d="M-270.5 529.9q-1.7.1-2.3-.8.5-.9 2.3-.7 1.7-.2 2.3.7-.5 1-2.3.8m0 4q-1.7.1-2.3-.8.5-.9 2.3-.7 1.7-.2 2.3.7-.5 1-2.3.8" style="text-indent:0;text-decoration-line:none;text-decoration-style:solid;text-decoration-color:#000000;text-transform:none;white-space:normal;isolation:auto;mix-blend-mode:normal" transform="rotate(255 -615.6 472.3)scale(2.68771)" id="path13309"/><path d="M-270.5 529.9q-1.7.1-2.3-.8.5-.9 2.3-.7 1.7-.2 2.3.7-.5 1-2.3.8m0 4q-1.7.1-2.3-.8.5-.9 2.3-.7 1.7-.2 2.3.7-.5 1-2.3.8" style="text-indent:0;text-decoration-line:none;text-decoration-style:solid;text-decoration-color:#000000;text-transform:none;white-space:normal;isolation:auto;mix-blend-mode:normal" transform="rotate(255 -523.2 351.8)scale(2.68771)" id="path13311"/><path d="M-270.5 529.9q-1.7.1-2.3-.8.5-.9 2.3-.7 1.7-.2 2.3.7-.5 1-2.3.8m0 4q-1.7.1-2.3-.8.5-.9 2.3-.7 1.7-.2 2.3.7-.5 1-2.3.8" style="text-indent:0;text-decoration-line:none;text-decoration-style:solid;text-decoration-color:#000000;text-transform:none;white-space:normal;isolation:auto;mix-blend-mode:normal" transform="rotate(225 -395.6 680.5)scale(2.6878)" id="path13313"/><path d="M-270.5 529.9q-1.7.1-2.3-.8.5-.9 2.3-.7 1.7-.2 2.3.7-.5 1-2.3.8m0 4q-1.7.1-2.3-.8.5-.9 2.3-.7 1.7-.2 2.3.7-.5 1-2.3.8" style="text-indent:0;text-decoration-line:none;text-decoration-style:solid;text-decoration-color:#000000;text-transform:none;white-space:normal;isolation:auto;mix-blend-mode:normal" transform="rotate(225 -345.7 560)scale(2.6878)" id="path13315"/><g id="g13323"><path d="M-270.5 529.9q-1.7.1-2.3-.8.5-.9 2.3-.7 1.7-.2 2.3.7-.5 1-2.3.8m0 4q-1.7.1-2.3-.8.5-.9 2.3-.7 1.7-.2 2.3.7-.5 1-2.3.8" style="text-indent:0;text-decoration-line:none;text-decoration-style:solid;text-decoration-color:#000000;text-transform:none;white-space:normal;isolation:auto;mix-blend-mode:normal" transform="rotate(195 -219.5 847.1)scale(2.68771)" id="path13317"/><g id="g13321"><path d="M-270.5 529.9q-1.7.1-2.3-.8.5-.9 2.3-.7 1.7-.2 2.3.7-.5 1-2.3.8m0 4q-1.7.1-2.3-.8.5-.9 2.3-.7 1.7-.2 2.3.7-.5 1-2.3.8" style="text-indent:0;text-decoration-line:none;text-decoration-style:solid;text-decoration-color:#000000;text-transform:none;white-space:normal;isolation:auto;mix-blend-mode:normal" transform="rotate(195 -203.6 726.6)scale(2.68771)" id="path13319"/></g></g><g id="g13331"><path d="m-289.7 503.5-.3.8c-.8 2-.8 4.5-.9 6.8a39 39 0 0 0-31 10.5l-1.8 1.6h2.4c8.7-.1 16.8-.6 27 7.6l1.2-1.4a36 36 0 0 0-25.6-8 36 36 0 0 1 28.6-8.4h1v-.9q0-3.5.6-6.1c11.9 5 17.2 12.3 19.3 18.6l1.7-.6c-2.3-7-8.2-15-21.4-20.2z" style="text-indent:0;text-decoration-line:none;text-decoration-style:solid;text-decoration-color:#000000;text-transform:none;white-space:normal;isolation:auto;mix-blend-mode:normal" transform="rotate(-40 -1851.2 -694.6)scale(2.6877)" id="path13325"/><path d="m-287.1 508-.2 1.1q-.1 3.5.7 6.4c-8.1-1.3-16.2-1-24.4 3l-2.2 1 2.4.4c4.6.9 11.7 1.7 19.1 9.2l1.2-1.2a31 31 0 0 0-17.1-9c7.2-2.8 14.5-3 21.8-1.7l1.1.2-.2-1q-.6-3.2-.7-5.7a35 35 0 0 1 13 13.6l1.5-.8a35 35 0 0 0-15-15z" style="text-indent:0;text-decoration-line:none;text-decoration-style:solid;text-decoration-color:#000000;text-transform:none;white-space:normal;isolation:auto;mix-blend-mode:normal" transform="rotate(-40 -1851.2 -694.6)scale(2.6877)" id="path13327"/><path transform="rotate(-40 -1660.5 -764)scale(2.6877)" d="M-282.8 462.5q-.8.1-1.2.8c-.4.6 0 1.7.8 2.4.1-.5.2-1.6.4-1.8.2-.7 1-.6 1.4-1-.3-.3-1.1-.5-1.4-.4m-11.7 2.9h-.6q-1.2.5-1.9 1.2l-.9 1.1-.2.2v-.8q-.5-.8-1.2-.6c-.5 0-1 .5-1.6.7-1.2.4-.7-.6-1-1q-.6 1.4.1 1.7c1 .4 2.3-1 2.6-.4l-.1 1q-.1.4.4.7t1.1.1q.6 0 1-.4l1-1.5 1-.7c.2 0 1.1 0 1 .5q-.1.6-1 .8-.6.4-1 1.2-.4 1 .7 1.7-.5-1.1.3-1.8c1.3-1.2 4.2-1.5 2.4-3.1q-.7-.5-1.3-.5zm8 1q-.9 0-1.2.6c-.6 1.7 2.8 5 2.8 5s.3-4.7-1.2-5.6zm5.2.5-.8.3c-1.2 1.2-.8 4.9-.8 4.9s2.6-3.5 2.1-4.8q-.1-.3-.5-.4m3.7 2.4h-.2c-1 .4-2 2.4-2 2.4s2.4-.5 3-1.5c.2-.3-.3-.9-.8-.9m-12.3 0q-.6.2-.7.7c.1 1.5 3.8 3.2 3.8 3.2s-1-3.2-2.7-3.8zm-1.6 3.4c-.5 0-1 .8-.6 1.1.8.8 3.2.4 3.2.4s-1.5-1.6-2.6-1.5" style="text-indent:0;text-decoration-line:none;text-decoration-style:solid;text-decoration-color:#000000;text-transform:none;white-space:normal;isolation:auto;mix-blend-mode:normal" id="path13329"/></g><g id="g13339"><path d="m-289.7 503.5-.3.8c-.8 2-.8 4.5-.9 6.8a39 39 0 0 0-31 10.5l-1.8 1.6h2.4c8.7-.1 16.8-.6 27 7.6l1.2-1.4a36 36 0 0 0-25.6-8 36 36 0 0 1 28.6-8.4h1v-.9q0-3.5.6-6.1c11.9 5 17.2 12.3 19.3 18.6l1.7-.6c-2.3-7-8.2-15-21.4-20.2z" style="text-indent:0;text-decoration-line:none;text-decoration-style:solid;text-decoration-color:#000000;text-transform:none;white-space:normal;isolation:auto;mix-blend-mode:normal" transform="rotate(-80 -881.5 222.4)scale(2.6878)" id="path13333"/><path d="m-287.1 508-.2 1.1q-.1 3.5.7 6.4c-8.1-1.3-16.2-1-24.4 3l-2.2 1 2.4.4c4.6.9 11.7 1.7 19.1 9.2l1.2-1.2a31 31 0 0 0-17.1-9c7.2-2.8 14.5-3 21.8-1.7l1.1.2-.2-1q-.6-3.2-.7-5.7a35 35 0 0 1 13 13.6l1.5-.8a35 35 0 0 0-15-15z" style="text-indent:0;text-decoration-line:none;text-decoration-style:solid;text-decoration-color:#000000;text-transform:none;white-space:normal;isolation:auto;mix-blend-mode:normal" transform="rotate(-80 -881.5 222.4)scale(2.6878)" id="path13335"/><path transform="rotate(-80 -798.8 153)scale(2.6878)" d="M-282.8 462.5q-.8.1-1.2.8c-.4.6 0 1.7.8 2.4.1-.5.2-1.6.4-1.8.2-.7 1-.6 1.4-1-.3-.3-1.1-.5-1.4-.4m-11.7 2.9h-.6q-1.2.5-1.9 1.2l-.9 1.1-.2.2v-.8q-.5-.8-1.2-.6c-.5 0-1 .5-1.6.7-1.2.4-.7-.6-1-1q-.6 1.4.1 1.7c1 .4 2.3-1 2.6-.4l-.1 1q-.1.4.4.7t1.1.1q.6 0 1-.4l1-1.5 1-.7c.2 0 1.1 0 1 .5q-.1.6-1 .8-.6.4-1 1.2-.4 1 .7 1.7-.5-1.1.3-1.8c1.3-1.2 4.2-1.5 2.4-3.1q-.7-.5-1.3-.5zm8 1q-.9 0-1.2.6c-.6 1.7 2.8 5 2.8 5s.3-4.7-1.2-5.6zm5.2.5-.8.3c-1.2 1.2-.8 4.9-.8 4.9s2.6-3.5 2.1-4.8q-.1-.3-.5-.4m3.7 2.4h-.2c-1 .4-2 2.4-2 2.4s2.4-.5 3-1.5c.2-.3-.3-.9-.8-.9m-12.3 0q-.6.2-.7.7c.1 1.5 3.8 3.2 3.8 3.2s-1-3.2-2.7-3.8zm-1.6 3.4c-.5 0-1 .8-.6 1.1.8.8 3.2.4 3.2.4s-1.5-1.6-2.6-1.5" style="text-indent:0;text-decoration-line:none;text-decoration-style:solid;text-decoration-color:#000000;text-transform:none;white-space:normal;isolation:auto;mix-blend-mode:normal" id="path13337"/></g><g id="g13347"><path d="M-293.1 529.4a36 36 0 0 0-25.6-8 36 36 0 0 1 28.6-8.4h1v-.9q0-3.5.6-6.1c11.9 5 17.2 12.3 19.3 18.6l1.8-.6c-2.4-6.9-8.3-15-21.5-20.2l-.8-.3-.3.8c-.8 2-.8 4.5-.9 6.8a39 39 0 0 0-31 10.5l-1.8 1.6h2.4c8.3 0 16.2-.5 26 6.8z" style="text-indent:0;text-decoration-line:none;text-decoration-style:solid;text-decoration-color:#000000;text-transform:none;white-space:normal;isolation:auto;mix-blend-mode:normal" transform="rotate(240 -498.4 584.2)scale(2.68768)" id="path13341"/><path d="m-287.1 508-.2 1.1q-.1 3.5.7 6.4c-8.1-1.3-16.2-1-24.4 3l-2.2 1 2.4.4c4.6.9 11.7 1.7 19.1 9.2l1.2-1.2a31 31 0 0 0-17.1-9c7.2-2.8 14.5-3 21.8-1.7l1.1.2-.2-1q-.6-3.2-.7-5.7a35 35 0 0 1 13 13.6l1.5-.8a35 35 0 0 0-15-15z" style="text-indent:0;text-decoration-line:none;text-decoration-style:solid;text-decoration-color:#000000;text-transform:none;white-space:normal;isolation:auto;mix-blend-mode:normal" transform="rotate(240 -498.4 584.2)scale(2.68768)" id="path13343"/><path transform="rotate(240 -458.3 514.7)scale(2.68768)" d="M-282.8 462.5q-.8.1-1.2.8c-.4.6 0 1.7.8 2.4.1-.5.2-1.6.4-1.8.2-.7 1-.6 1.4-1-.3-.3-1.1-.5-1.4-.4m-11.7 2.9h-.6q-1.2.5-1.9 1.2l-.9 1.1-.2.2v-.8q-.5-.8-1.2-.6c-.5 0-1 .5-1.6.7-1.2.4-.7-.6-1-1q-.6 1.4.1 1.7c1 .4 2.3-1 2.6-.4l-.1 1q-.1.4.4.7t1.1.1q.6 0 1-.4l1-1.5 1-.7c.2 0 1.1 0 1 .5q-.1.6-1 .8-.6.4-1 1.2-.4 1 .7 1.7-.5-1.1.3-1.8c1.3-1.2 4.2-1.5 2.4-3.1q-.7-.5-1.3-.5zm8 1q-.9 0-1.2.6c-.6 1.7 2.8 5 2.8 5s.3-4.7-1.2-5.6zm5.2.5-.8.3c-1.2 1.2-.8 4.9-.8 4.9s2.6-3.5 2.1-4.8q-.1-.3-.5-.4m3.7 2.4h-.2c-1 .4-2 2.4-2 2.4s2.4-.5 3-1.5c.2-.3-.3-.9-.8-.9m-12.3 0q-.6.2-.7.7c.1 1.5 3.8 3.2 3.8 3.2s-1-3.2-2.7-3.8zm-1.6 3.4c-.5 0-1 .8-.6 1.1.8.8 3.2.4 3.2.4s-1.5-1.6-2.6-1.5" style="text-indent:0;text-decoration-line:none;text-decoration-style:solid;text-decoration-color:#000000;text-transform:none;white-space:normal;isolation:auto;mix-blend-mode:normal" id="path13345"/></g><g id="g13355"><path d="M-293.8 528.9a36 36 0 0 0-25-7.5A36 36 0 0 1-290 513h1v-.9q0-3.5.6-6.1c11.3 4.7 16.7 11.6 19 17.6l2 .4c-2.3-6.9-8.2-15-21.4-20.2l-.8-.3-.3.8c-.8 2-.8 4.5-.9 6.8a39 39 0 0 0-31 10.5l-1.8 1.6h2.4c8.3-.1 16.2-.5 25.9 6.7z" style="text-indent:0;text-decoration-line:none;text-decoration-style:solid;text-decoration-color:#000000;text-transform:none;white-space:normal;isolation:auto;mix-blend-mode:normal" transform="rotate(200 -247.9 820.5)scale(2.68769)" id="path13349"/><path d="M-290.5 528a31 31 0 0 0-17.1-9.1c7.2-2.8 14.5-3 21.8-1.7l1.1.2-.2-1q-.6-3.2-.7-5.7a35 35 0 0 1 13 13.6l1.5-.8a35 35 0 0 0-15-15l-1-.4-.2 1q-.1 3.5.7 6.4c-8.1-1.3-16.2-1-24.4 3l-2.2 1 2.4.4c4.5.8 11.1 1.6 18.2 8.3z" style="text-indent:0;text-decoration-line:none;text-decoration-style:solid;text-decoration-color:#000000;text-transform:none;white-space:normal;isolation:auto;mix-blend-mode:normal" transform="rotate(200 -247.9 820.5)scale(2.68769)" id="path13351"/><path transform="rotate(200 -235.7 751)scale(2.68769)" d="M-282.8 462.5q-.8.1-1.2.8c-.4.6 0 1.7.8 2.4.1-.5.2-1.6.4-1.8.2-.7 1-.6 1.4-1-.3-.3-1.1-.5-1.4-.4m-11.7 2.9h-.6q-1.2.5-1.9 1.2l-.9 1.1-.2.2v-.8q-.5-.8-1.2-.6c-.5 0-1 .5-1.6.7-1.2.4-.7-.6-1-1q-.6 1.4.1 1.7c1 .4 2.3-1 2.6-.4l-.1 1q-.1.4.4.7t1.1.1q.6 0 1-.4l1-1.5 1-.7c.2 0 1.1 0 1 .5q-.1.6-1 .8-.6.4-1 1.2-.4 1 .7 1.7-.5-1.1.3-1.8c1.3-1.2 4.2-1.5 2.4-3.1q-.7-.5-1.3-.5zm8 1q-.9 0-1.2.6c-.6 1.7 2.8 5 2.8 5s.3-4.7-1.2-5.6zm5.2.5-.8.3c-1.2 1.2-.8 4.9-.8 4.9s2.6-3.5 2.1-4.8q-.1-.3-.5-.4m3.7 2.4h-.2c-1 .4-2 2.4-2 2.4s2.4-.5 3-1.5c.2-.3-.3-.9-.8-.9m-12.3 0q-.6.2-.7.7c.1 1.5 3.8 3.2 3.8 3.2s-1-3.2-2.7-3.8zm-1.6 3.4c-.5 0-1 .8-.6 1.1.8.8 3.2.4 3.2.4s-1.5-1.6-2.6-1.5" style="text-indent:0;text-decoration-line:none;text-decoration-style:solid;text-decoration-color:#000000;text-transform:none;white-space:normal;isolation:auto;mix-blend-mode:normal" id="path13353"/></g><g id="g13363"><path d="M-267.4 524c-2.4-7-8.3-15-21.5-20.2l-.8-.3-.3.8c-.8 2-.8 4.5-.9 6.8a39 39 0 0 0-31 10.5l-1.8 1.6h2.4c8.3-.1 16.2-.6 26 6.7l1.3-1.1a36 36 0 0 0-24.7-7.4 36 36 0 0 1 28.6-8.4h1v-.9c.1-2.2.2-4.5.6-6.1a32 32 0 0 1 19 17.6z" style="text-indent:0;text-decoration-line:none;text-decoration-style:solid;text-decoration-color:#000000;text-transform:none;white-space:normal;isolation:auto;mix-blend-mode:normal" transform="rotate(160 -28 1028.4)scale(2.68769)" id="path13357"/><path d="M-271.1 523.5a35 35 0 0 0-15-15l-1-.4-.2 1q-.1 3.5.7 6.4c-8.1-1.3-16.2-1-24.4 3l-2.2 1 2.4.4c4.5.8 11.2 1.6 18.3 8.4l2-.4a31 31 0 0 0-17.1-9c7.2-2.8 14.5-3 21.8-1.7l1 .2v-1q-.7-3.2-.8-5.7c5.8 3 10 8.5 12.5 12.7z" style="text-indent:0;text-decoration-line:none;text-decoration-style:solid;text-decoration-color:#000000;text-transform:none;white-space:normal;isolation:auto;mix-blend-mode:normal" transform="rotate(160 -28 1028.4)scale(2.68769)" id="path13359"/><path transform="rotate(160 -40.3 959)scale(2.68769)" d="M-282.8 462.5q-.8.1-1.2.8c-.4.6 0 1.7.8 2.4.1-.5.2-1.6.4-1.8.2-.7 1-.6 1.4-1-.3-.3-1.1-.5-1.4-.4m-11.7 2.9h-.6q-1.2.5-1.9 1.2l-.9 1.1-.2.2v-.8q-.5-.8-1.2-.6c-.5 0-1 .5-1.6.7-1.2.4-.7-.6-1-1q-.6 1.4.1 1.7c1 .4 2.3-1 2.6-.4l-.1 1q-.1.4.4.7t1.1.1q.6 0 1-.4l1-1.5 1-.7c.2 0 1.1 0 1 .5q-.1.6-1 .8-.6.4-1 1.2-.4 1 .7 1.7-.5-1.1.3-1.8c1.3-1.2 4.2-1.5 2.4-3.1q-.7-.5-1.3-.5zm8 1q-.9 0-1.2.6c-.6 1.7 2.8 5 2.8 5s.3-4.7-1.2-5.6zm5.2.5-.8.3c-1.2 1.2-.8 4.9-.8 4.9s2.6-3.5 2.1-4.8q-.1-.3-.5-.4m3.7 2.4h-.2c-1 .4-2 2.4-2 2.4s2.4-.5 3-1.5c.2-.3-.3-.9-.8-.9m-12.3 0q-.6.2-.7.7c.1 1.5 3.8 3.2 3.8 3.2s-1-3.2-2.7-3.8zm-1.6 3.4c-.5 0-1 .8-.6 1.1.8.8 3.2.4 3.2.4s-1.5-1.6-2.6-1.5" style="text-indent:0;text-decoration-line:none;text-decoration-style:solid;text-decoration-color:#000000;text-transform:none;white-space:normal;isolation:auto;mix-blend-mode:normal" id="path13361"/></g><g id="g13371"><path d="M-267.4 524c-2.4-7-8.3-15-21.5-20.2l-.8-.3-.3.8c-.8 2-.8 4.5-.9 6.8a39 39 0 0 0-31 10.5l-1.8 1.6h2.4c8.5-.1 16.5-.6 26.3 7l1.4-1.2a36 36 0 0 0-25.1-7.6 36 36 0 0 1 28.6-8.4h1v-.9q0-3.5.6-6.1a32 32 0 0 1 19 17.4z" style="text-indent:0;text-decoration-line:none;text-decoration-style:solid;text-decoration-color:#000000;text-transform:none;white-space:normal;isolation:auto;mix-blend-mode:normal" transform="rotate(120 222.4 1264.5)scale(2.68768)" id="path13365"/><path d="M-290.5 528a31 31 0 0 0-17.1-9.1c7.2-2.8 14.5-3 21.8-1.7l1.1.2-.2-1q-.6-3.2-.7-5.7a35 35 0 0 1 13 13.6l1.5-.8a35 35 0 0 0-15-15l-1-.4-.2 1q-.1 3.5.7 6.4c-8.1-1.3-16.2-1-24.4 3l-2.2 1 2.4.4c4.5.9 11.3 1.6 18.6 8.6z" style="text-indent:0;text-decoration-line:none;text-decoration-style:solid;text-decoration-color:#000000;text-transform:none;white-space:normal;isolation:auto;mix-blend-mode:normal" transform="rotate(120 222.4 1264.5)scale(2.68768)" id="path13367"/><path transform="rotate(120 182.3 1195)scale(2.68768)" d="M-282.8 462.5q-.8.1-1.2.8c-.4.6 0 1.7.8 2.4.1-.5.2-1.6.4-1.8.2-.7 1-.6 1.4-1-.3-.3-1.1-.5-1.4-.4m-11.7 2.9h-.6q-1.2.5-1.9 1.2l-.9 1.1-.2.2v-.8q-.5-.8-1.2-.6c-.5 0-1 .5-1.6.7-1.2.4-.7-.6-1-1q-.6 1.4.1 1.7c1 .4 2.3-1 2.6-.4l-.1 1q-.1.4.4.7t1.1.1q.6 0 1-.4l1-1.5 1-.7c.2 0 1.1 0 1 .5q-.1.6-1 .8-.6.4-1 1.2-.4 1 .7 1.7-.5-1.1.3-1.8c1.3-1.2 4.2-1.5 2.4-3.1q-.7-.5-1.3-.5zm8 1q-.9 0-1.2.6c-.6 1.7 2.8 5 2.8 5s.3-4.7-1.2-5.6zm5.2.5-.8.3c-1.2 1.2-.8 4.9-.8 4.9s2.6-3.5 2.1-4.8q-.1-.3-.5-.4m3.7 2.4h-.2c-1 .4-2 2.4-2 2.4s2.4-.5 3-1.5c.2-.3-.3-.9-.8-.9m-12.3 0q-.6.2-.7.7c.1 1.5 3.8 3.2 3.8 3.2s-1-3.2-2.7-3.8zm-1.6 3.4c-.5 0-1 .8-.6 1.1.8.8 3.2.4 3.2.4s-1.5-1.6-2.6-1.5" style="text-indent:0;text-decoration-line:none;text-decoration-style:solid;text-decoration-color:#000000;text-transform:none;white-space:normal;isolation:auto;mix-blend-mode:normal" id="path13369"/></g><g id="g13379"><path d="m-289.7 503.5-.3.8c-.8 2-.8 4.5-.9 6.8a39 39 0 0 0-31 10.5l-1.8 1.6h2.4c8.7-.1 16.8-.6 27 7.6l1.2-1.4a36 36 0 0 0-25.6-8 36 36 0 0 1 28.6-8.4h1v-.9q0-3.5.6-6.1c11.9 5 17.2 12.3 19.3 18.6l1.7-.6c-2.3-7-8.2-15-21.4-20.2z" style="text-indent:0;text-decoration-line:none;text-decoration-style:solid;text-decoration-color:#000000;text-transform:none;white-space:normal;isolation:auto;mix-blend-mode:normal" transform="rotate(80 606 1626.4)scale(2.6878)" id="path13373"/><path d="m-287.1 508-.2 1.1q-.1 3.5.7 6.4c-8.1-1.3-16.2-1-24.4 3l-2.2 1 2.4.4c4.6.9 11.7 1.7 19.1 9.2l1.2-1.2a31 31 0 0 0-17.1-9c7.2-2.8 14.5-3 21.8-1.7l1.1.2-.2-1q-.6-3.2-.7-5.7a35 35 0 0 1 13 13.6l1.5-.8a35 35 0 0 0-15-15z" style="text-indent:0;text-decoration-line:none;text-decoration-style:solid;text-decoration-color:#000000;text-transform:none;white-space:normal;isolation:auto;mix-blend-mode:normal" transform="rotate(80 606 1626.4)scale(2.6878)" id="path13375"/><path transform="rotate(80 523.3 1557)scale(2.6878)" d="M-282.8 462.5q-.8.1-1.2.8c-.4.6 0 1.7.8 2.4.1-.5.2-1.6.4-1.8.2-.7 1-.6 1.4-1-.3-.3-1.1-.5-1.4-.4m-11.7 2.9h-.6q-1.2.5-1.9 1.2l-.9 1.1-.2.2v-.8q-.5-.8-1.2-.6c-.5 0-1 .5-1.6.7-1.2.4-.7-.6-1-1q-.6 1.4.1 1.7c1 .4 2.3-1 2.6-.4l-.1 1q-.1.4.4.7t1.1.1q.6 0 1-.4l1-1.5 1-.7c.2 0 1.1 0 1 .5q-.1.6-1 .8-.6.4-1 1.2-.4 1 .7 1.7-.5-1.1.3-1.8c1.3-1.2 4.2-1.5 2.4-3.1q-.7-.5-1.3-.5zm8 1q-.9 0-1.2.6c-.6 1.7 2.8 5 2.8 5s.3-4.7-1.2-5.6zm5.2.5-.8.3c-1.2 1.2-.8 4.9-.8 4.9s2.6-3.5 2.1-4.8q-.1-.3-.5-.4m3.7 2.4h-.2c-1 .4-2 2.4-2 2.4s2.4-.5 3-1.5c.2-.3-.3-.9-.8-.9m-12.3 0q-.6.2-.7.7c.1 1.5 3.8 3.2 3.8 3.2s-1-3.2-2.7-3.8zm-1.6 3.4c-.5 0-1 .8-.6 1.1.8.8 3.2.4 3.2.4s-1.5-1.6-2.6-1.5" style="text-indent:0;text-decoration-line:none;text-decoration-style:solid;text-decoration-color:#000000;text-transform:none;white-space:normal;isolation:auto;mix-blend-mode:normal" id="path13377"/></g><g id="g13387"><path d="m-289.7 503.5-.3.8c-.8 2-.8 4.5-.9 6.8a39 39 0 0 0-31 10.5l-1.8 1.6h2.4c8.7-.1 16.8-.6 27 7.6l1.2-1.4a36 36 0 0 0-25.6-8 36 36 0 0 1 28.6-8.4h1v-.9q0-3.5.6-6.1c11.9 5 17.2 12.3 19.3 18.6l1.7-.6c-2.3-7-8.2-15-21.4-20.2z" style="text-indent:0;text-decoration-line:none;text-decoration-style:solid;text-decoration-color:#000000;text-transform:none;white-space:normal;isolation:auto;mix-blend-mode:normal" transform="rotate(40 1577.5 2542.4)scale(2.6877)" id="path13381"/><path d="m-287.1 508-.2 1.1q-.1 3.5.7 6.4c-8.1-1.3-16.2-1-24.4 3l-2.2 1 2.4.4c4.6.9 11.7 1.7 19.1 9.2l1.2-1.2a31 31 0 0 0-17.1-9c7.2-2.8 14.5-3 21.8-1.7l1.1.2-.2-1q-.6-3.2-.7-5.7a35 35 0 0 1 13 13.6l1.5-.8a35 35 0 0 0-15-15z" style="text-indent:0;text-decoration-line:none;text-decoration-style:solid;text-decoration-color:#000000;text-transform:none;white-space:normal;isolation:auto;mix-blend-mode:normal" transform="rotate(40 1577.5 2542.4)scale(2.6877)" id="path13383"/><path transform="rotate(40 1386.7 2473)scale(2.6877)" d="M-282.8 462.5q-.8.1-1.2.8c-.4.6 0 1.7.8 2.4.1-.5.2-1.6.4-1.8.2-.7 1-.6 1.4-1-.3-.3-1.1-.5-1.4-.4m-11.7 2.9h-.6q-1.2.5-1.9 1.2l-.9 1.1-.2.2v-.8q-.5-.8-1.2-.6c-.5 0-1 .5-1.6.7-1.2.4-.7-.6-1-1q-.6 1.4.1 1.7c1 .4 2.3-1 2.6-.4l-.1 1q-.1.4.4.7t1.1.1q.6 0 1-.4l1-1.5 1-.7c.2 0 1.1 0 1 .5q-.1.6-1 .8-.6.4-1 1.2-.4 1 .7 1.7-.5-1.1.3-1.8c1.3-1.2 4.2-1.5 2.4-3.1q-.7-.5-1.3-.5zm8 1q-.9 0-1.2.6c-.6 1.7 2.8 5 2.8 5s.3-4.7-1.2-5.6zm5.2.5-.8.3c-1.2 1.2-.8 4.9-.8 4.9s2.6-3.5 2.1-4.8q-.1-.3-.5-.4m3.7 2.4h-.2c-1 .4-2 2.4-2 2.4s2.4-.5 3-1.5c.2-.3-.3-.9-.8-.9m-12.3 0q-.6.2-.7.7c.1 1.5 3.8 3.2 3.8 3.2s-1-3.2-2.7-3.8zm-1.6 3.4c-.5 0-1 .8-.6 1.1.8.8 3.2.4 3.2.4s-1.5-1.6-2.6-1.5" style="text-indent:0;text-decoration-line:none;text-decoration-style:solid;text-decoration-color:#000000;text-transform:none;white-space:normal;isolation:auto;mix-blend-mode:normal" id="path13385"/></g><path d="m293.6 614.5-.6 1.6c-1.5 3.8-1.5 8.5-1.6 12.9a73 73 0 0 0-58.5 19.7l-3.4 3h4.6c16.3-.2 31.7-1.1 51 14.4l2.1-2.7a68 68 0 0 0-48.2-15.1 68 68 0 0 1 53.9-15.8l1.8.1V631c.2-4.3.4-8.5 1.1-11.7 22.5 9.4 32.4 23.3 36.5 35.1l3.2-1c-4.5-13.1-15.5-28.5-40.3-38.1z" style="text-indent:0;text-decoration-line:none;text-decoration-style:solid;text-decoration-color:#000000;text-transform:none;white-space:normal;isolation:auto;mix-blend-mode:normal" transform="translate(-18.6 -771.8)scale(1.4277)" id="path13389"/><path d="m298.4 623.2-.2 2c-.5 4.4.4 8.2 1.2 12a76 76 0 0 0-45.8 5.5l-4.2 2 4.6.8c8.6 1.6 21.9 3.1 36 17.2l2-2a58 58 0 0 0-32.2-17.1 76 76 0 0 1 41.2-3.2l2 .4-.3-2c-.6-4-1.3-7.3-1.4-10.7a66 66 0 0 1 24.7 25.6l2.6-1.4a66 66 0 0 0-28.3-28.3z" style="text-indent:0;text-decoration-line:none;text-decoration-style:solid;text-decoration-color:#000000;text-transform:none;white-space:normal;isolation:auto;mix-blend-mode:normal" transform="translate(-18.6 -771.8)scale(1.4277)" id="path13391"/><path d="M306.6 634.6q-1.5.3-2.3 1.6c-.7 1.2 0 3.2 1.5 4.6.3-1.1.5-3.1.8-3.6.3-1.2 1.8-1 2.6-2-.6-.4-2-.6-2.7-.6m-22 5.5-1.2.2a7 7 0 0 0-3.4 2.2l-1.8 2-.3.2v-.3l-.2-1q-1-1.6-2.2-1.2c-1 .2-1.9.9-2.9 1.2-2.3 1-1.5-1-2.1-1.7q-.9 2.5.3 3.2c2 .7 4.3-1.8 5-.8.1.3-.4 1.3-.3 1.8q0 .9.9 1.3t2 .3q1-.2 1.7-.9c.8-.7 1.3-2 2-2.7q.7-1 2-1.4c.3 0 2-.1 1.9 1q-.4.9-1.9 1.6-1.2.6-1.9 2-1 2 1.3 3.3c-.5-1.2-.6-2.6.6-3.4 2.5-2.1 7.9-2.8 4.5-5.8-1.2-.5-1.6-.8-2.6-1zm14.9 1.8c-.9 0-2 .5-2.2 1.3-1.1 3.2 5.3 9.3 5.3 9.3s.7-8.8-2.3-10.5zm9.9 1.1q-.8 0-1.4.5c-2.4 2.2-1.6 9.1-1.6 9.1s5-6.4 4-9q-.2-.5-1-.6m7 4.5h-.4c-2 .6-3.7 4.4-3.7 4.4s4.5-.9 5.5-2.7c.4-.7-.5-1.6-1.4-1.7m-23 .1q-1.4.2-1.4 1.3c.2 2.7 7.1 6 7.1 6s-1.9-6.1-5-7.2zm-3.1 6.3c-1 0-1.9 1.5-1.3 2 1.6 1.5 6.2.8 6.2.8s-3-3-5-2.8" style="text-indent:0;text-decoration-line:none;text-decoration-style:solid;text-decoration-color:#000000;text-transform:none;white-space:normal;isolation:auto;mix-blend-mode:normal" transform="translate(-18.6 -771.8)scale(1.4277)" id="path13393"/></g></g><!-- app4joy --></svg>