<svg xmlns="http://www.w3.org/2000/svg" id="svg2" width="900" height="600" version="1.1" viewBox="0 0 900 600"><defs id="defs280"><style id="style6" type="text/css">.fil3{fill:#dededd}.fil12{fill:#000}.fil13{fill:#004990}.fil5{fill:#1e9600}.fil7{fill:#321400}.fil4{fill:#3c6}.fil6{fill:#642800}.fil8{fill:#9696be}.fil2{fill:#e60000}.fil11{fill:#fac300}.fil1{fill:#ff0}</style></defs><g id="g2"><path id="rect4" d="M0 0h900v600H0Z" style="fill:#002b7f"/><path id="rect6" d="M300 0h600v600H300Z" style="fill:#fcd116"/><path id="rect8" d="M600 0h300v600H600Z" style="fill:#ce1126"/></g><g id="g1"><g id="g5611"><path id="_134955752" d="M424 186.3c18.6-8.4 36-8.4 52 0 53.7 64.4 72.2 121.9 55.6 172.6-36.7 34.4-64.4 52.2-83 53.6-28.6-2.1-57.2-31.7-85.9-88.8-.1-43.2 20.4-88.6 61.3-137.4z" style="fill:#ffffff;fill-rule:evenodd"/><path id="path5053" d="m437.2 397.5 12.7 11.5 10.5-10.4z" style="fill:#77d1ff;fill-rule:evenodd;stroke:none"/><path id="path6870" d="m495.8 289.1 8.8 3.8h6.2l4.8 11-9.8 4-11.3-9.7.5-9.4z" style="fill:#5f554f;fill-rule:evenodd;stroke:none"/><path id="_134954568" d="m390.8 290 36.4-.8.4-3.1-35.7-.2z" class="fil1" style="fill:#ffff00;fill-rule:evenodd"/><g id="g4653" style="fill:#ffe223;fill-opacity:1;fill-rule:evenodd" transform="matrix(.22 0 0 .21818 340 180)"><path id="_134955160" d="m770.1 503.9-165.4-3.4-1.7-14.4 162.2-.5z" class="fil1" style="fill:#ffe223;fill-opacity:1"/><path id="_134953976" d="m600.3 475 144.4-27.2 7.2 17.2L603 486.1z" class="fil1" style="fill:#ffe223;fill-opacity:1"/><path id="_134953384" d="m401 475-144.4-27.2-7.2 17.2 148.8 21.1z" class="fil1" style="fill:#ffe223;fill-opacity:1"/><path id="_134952792" d="M590.9 461.7 724.8 413l5 18.3-135 41z" class="fil1" style="fill:#ffe223;fill-opacity:1"/><path id="_134952200" d="m410.4 461.7-134-48.8-5 18.3 135.1 41z" class="fil1" style="fill:#ffe223;fill-opacity:1"/><path id="_134951608" d="m742 364.2-152.9 81.2 7 7.1 150.8-70z" class="fil1" style="fill:#ffe223;fill-opacity:1"/><path id="_134951016" d="m259.2 364.2 153 81.2-7.1 7.1-150.8-70z" class="fil1" style="fill:#ffe223;fill-opacity:1"/><path id="_134950424" d="M749.7 302.4 582 431l7.3 6.5L758 322.3z" class="fil1" style="fill:#ffe223;fill-opacity:1"/><path id="_134949696" d="M251.5 302.4 419.4 431l-7.3 6.5-168.8-115.2Z" class="fil1" style="fill:#ffe223;fill-opacity:1"/><path id="_134949104" d="M719.2 263.2 572 419l7.3 6.4L731.7 281z" class="fil1" style="fill:#ffe223;fill-opacity:1"/><path id="_134948512" d="M282 263.2 429.4 419l-7.3 6.4L269.6 281Z" class="fil1" style="fill:#ffe223;fill-opacity:1"/><path id="_134947920" d="M686.5 218.3 559.5 409l8.2 4.4L702.3 233z" class="fil1" style="fill:#ffe223;fill-opacity:1"/><path id="_134947536" d="m314.8 218.3 127 190.7-8.2 4.4L298.8 233Z" class="fil1" style="fill:#ffe223;fill-opacity:1"/><path id="_134947152" d="M645.6 181.2 544.4 400l9 4.3 112-208.9z" class="fil1" style="fill:#ffe223;fill-opacity:1"/><path id="_134946768" d="M355.7 181.2 456.8 400l-9 4.3-112-208.9z" class="fil1" style="fill:#ffe223;fill-opacity:1"/><path id="_134946384" d="m599 151-72.2 245 9.6.6 85.2-235.4z" class="fil1" style="fill:#ffe223;fill-opacity:1"/><path id="_134946000" d="m402.3 151 72.1 245-9.5.6-85.2-235.4z" class="fil1" style="fill:#ffe223;fill-opacity:1"/><path id="_134945616" d="m564.4 6.8-51.4 382 8.5 1.9 70.7-377.2z" class="fil1" style="fill:#ffe223;fill-opacity:1"/><path id="_134945096" d="m436.8 6.8 51.4 382-8.5 1.9L409 13.5z" class="fil1" style="fill:#ffe223;fill-opacity:1"/><path id="_134944712" d="m490.6 0 3 386.9h12.2L517.9 0Z" class="fil1" style="fill:#ffe223;fill-opacity:1"/><path id="_134944328" d="M499 383.7a107.5 107.5 0 0 1 0 215.3 107.5 107.5 0 0 1-107.3-107.7c0-59.4 48-107.6 107.4-107.6z" class="fil1" style="fill:#ffe223;fill-opacity:1"/></g><path id="_134943608" d="m450.5 183.4 5 10.5 11.7 1.4-8.6 7.9 2.2 11.3-10.3-5.6-10.4 5.6 2.3-11.3-8.7-7.9 11.8-1.4z" class="fil2" style="fill:#e60000;fill-rule:evenodd"/><path id="_134941584" d="M394.9 281.5c4.4-1 6.6-2 6.6-2.8a13 13 0 0 1 4-2.9c1-5.1 2.9-8 5.9-8.8 1.4 0 2.2-1.6 2.4-4.5 0-.8.7-1.4 2.1-1.6a2 2 0 0 0 1.4-.8c1.3-.3 2.4-.3 3.4.2a7 7 0 0 1 1.2 4.3c1.7 9 3.6 15.2 6 18.5 1.4-1.1 2.5-1.4 3.5-.8.6.5 1.4 1 2.5 1.3.6 0 .8.6.7 1.5.8 3 2.2 6 4 8.7 2.7-1.7 4.8-2.3 6.2-1.7 2.8 5.5 6.5 8.2 10.9 8 5.4-4.2 9.9-9.3 13.6-15.2 1.8.5 3.3.5 4.6 0 .5-2.4 1.6-3.5 3.3-3.4 1-.5 1.6-1 1.7-1.5 2.6-.6 4.3-.5 5 .3 1.1 2 2.1 3.1 3 3.2 2.4 1.3 4.3 10.6 5.7 27.8-22.9 30.2-58.5 46.8-107 49.7-19.4-41.6-16.4-68 9.3-79.5z" class="fil3" style="fill:#d0c6c4;fill-opacity:1;fill-rule:evenodd"/><path id="_134940696" d="M393.8 317.4c-.9 2.6-1.8 5-2.9 7 .7.2 1.3.2 1.8 0-.7 1.8-1.6 3.4-3 4.8.6.2 1.4 0 2.5-.5-.4 1.1-1.6 2.5-3.7 4a22 22 0 0 0 5.7 17.6 58 58 0 0 1 7.3-14.7c-1.4-.2-3.4-1.9-6-5-.2-.4.6-.9 2.3-1.3-1 0-2-1.7-2.7-4.9.3-.3.7-.6 1.4-.7a18 18 0 0 1-2.7-6.3z" class="fil4" style="fill:#2dd82d;fill-opacity:1;fill-rule:evenodd"/><path id="_134940312" d="M404.3 310.3c.7 2.2 1.9 4.2 3.6 6-.4.2-.8.2-1.4 0 .6 1.6 1.4 2.4 2.5 2.4a3 3 0 0 1-1.6.8 4.4 4.4 0 0 0 2.4 2.1c-.2.5-.8.8-1.6 1 .4 1.6 1.2 2.6 2.3 3a7 7 0 0 1-2.3.9c.3.6.9 1 1.8 1.4-.6.7-1.3 1.2-2 1.4a14 14 0 0 0 3.7 4.4c3 23.7-3.5 33.2-12.8 25.6-2.6-2.2-2.2-8.6-5.4-15.1 2.9-4.4 4.1-6.8 3.8-7 .4-.7-.2-1.2-1.9-1.5 2.2-1.3 3.7-3 4.5-5-1.2.1-2.1 0-2.8-.4 1.8-1 3-2.9 3.8-5.3h-2.3c3-2.7 4.2-4.2 3.4-4.7-.3.3-1 .3-1.9.3 1.5-1 2.4-2.3 2.5-3.6-.6.5-1 .6-1.4.2 2-3.3 3-5.6 3-6.9z" class="fil5" style="fill:#009f2f;fill-opacity:1;fill-rule:evenodd"/><path id="_134939928" d="m412.7 293.6 2.7-1c.2-.8 0-1.3-.9-1.3-.2-.3 0-.7.6-1.1a12 12 0 0 1 5.8-2c.7.2.6.7-.1 1.4-.6 2 .3 3.4 2.4 4.6 0 1 .2 2 .4 2.7l-1.9.7c.6 6.4 1.4 13.1 2.3 20 1 .5 2 .9 3 1-.2 1.5-.2 3 0 4.3-.8 0-1.7.2-2.6.4.6 7 1 11.5 1.6 13.2-1 8.6-3 14.2-5.5 17l-1.3-57-5 .8a3 3 0 0 0-1.7-1.2l.2-2.5z" class="fil6" style="fill:#975600;fill-opacity:1;fill-rule:evenodd"/><path id="_134939544" d="m427 323-2.6.3-4.5-1.6.8 31.7-12-.4 2.6-30-2.4-1.3v-3l3.3-1 2.6-20.5h-.6l-1.7-1.1.2-2.5 2.7-1 4-.9.1 2.5 4 2.1.1.6-1.9.7-2.2-1.4-.3.3.5 18.5.7 1 .1 3.7z" class="fil7" style="fill:#491d00;fill-opacity:1;fill-rule:evenodd"/><path id="_134936840" d="M478.4 280.8c2.2 1.8 2.7 3.8 1.4 6.2-1.9 3.6-2.6 6.5-2.1 8.6 2-4.5 3.6-5.5 5-2.8 3.6 4.3 6 4 7.5-1-1-4.7-2-7.5-3.3-8.3-.9 0-1.8-1-2.9-3-.5-1-2.2-1.1-5.1-.5 0 .3-.2.6-.5.8z" class="fil8" style="fill:#5f554f;fill-opacity:1;fill-rule:evenodd"/><path id="_134936680" d="M492.6 270a27 27 0 0 0 3.5 7.4c-.6.2-1.1.2-1.6 0a9 9 0 0 0 2.4 4.6c-1 .7-1.5 1.7-1.5 3 .8 1 2.2 2 4.3 3 .1.7-.9 1.4-3 2.2.4.7 1.4 1.5 3 2.5-.6.6-1.5.9-2.9 1 .8 1.6 3.8 3.6 9 6 3.6 24.5-4.7 38.1-24.8 40.8-15.5 1.9-23.7-5.6-24.4-22.3 4.7-2.4 7.4-5.2 8-8.4-.8.4-1.6.4-2.3 0 2.7-1.9 4.1-3.6 4.2-5.2-.5 0-1-.1-1.5-.5 1.3-1.8 2.1-3.8 2.6-6.2a17 17 0 0 0 2.7 6.4c-.5.3-1 .3-1.4 0 1.2 3.8 2.9 5.8 5 6 1.3-2.4 1.7-5.2 1.2-8.5 2-1 3-2.3 2.8-4.2l-1.8.6 3.2-5.1c.6 1.5 1.4 2.9 2.4 4a6 6 0 0 1-1.1-.1c-.1 1.4.4 2.5 1.4 3.3 1.5-1.3 2.5-2.7 3.2-4.2-1.2-.9-2-2-2.4-3.3 3.3-1.5 4.8-2.6 4.5-3.3-1.1.1-1.8 0-1.9-.5 2-1.1 3.1-2.1 3.2-3-1.7 1.2-3 1.7-4.1 1.6l4.5-4.5a3 3 0 0 1-1.4-.8c1.7-1 2.9-2.6 3.4-4.8-.6.2-1 .3-1.4.2 1.8-2.2 2.8-4.8 3-7.7z" class="fil5" style="fill:#009f2f;fill-opacity:1;fill-rule:evenodd"/><path id="_138330800" d="m425 334-.7-2.8c-1 .5-.6 1-1.2 1.8v.6c.7.2 1.2.5 1.8.5z" class="fil3" style="fill:#dededd;fill-rule:evenodd"/><path id="_134935520" d="M434 346.6c-4.1-.6-7.4-5-9.7-13.1 1-1 1.7-1.6 2-2.1.2-.5.1-1-.1-1.3.9-.8 1.6-1.7 2.3-2.6-.6.2-1 .1-1.4-.1.7-.7 1.4-1.5 2.1-2.6-.6.3-1 .3-1.4 0a13 13 0 0 0 2.3-4c-.6.1-1.2.2-1.7 0 1-1.1 2.1-2.8 3.3-5l2.8 5c-.6 0-1 .2-1.3.5.2.8.8 1.7 2 2.8-.3.1-.7.1-1.3-.1.2 1.1 1 1.8 2.4 2 1-2.5 1.2-3.8 1-4a4 4 0 0 1-2-.4c3.4-3.5 5-5.8 4.8-7 .2-.6 0-1-.7-1.3 1.4-1.3 2.1-2.2 2.2-2.8-.5 0-.9-.3-1.3-.7a16 16 0 0 0 3.3-5.1c.6 1.6 1.7 3.2 3.3 4.7-1-.2-1.4 0-1.3.7 0 .4.8 1.1 2 2.2-1 0-1.4.2-1.3 1 .6 1 1.7 1.7 3.3 2.2-1.9 1.2-2.9 2.2-3 2.8-.3.3 1.9 1.5 6.5 3.7 3.2 21.2-3.1 29.4-19 24.6z" class="fil4" style="fill:#2dd82d;fill-opacity:1;fill-rule:evenodd"/><path id="_134935136" d="M442.4 321.9c1.2 3.1 2.5 5.3 3.8 6.5-.6.3-1.2.3-2 0 .7 3.7 2.3 5.9 5 6.6 3.6 11.5.5 15.5-9.1 12a13.3 13.3 0 0 1-2.7-11.7c1.7-.2 2.7-.9 3-2.2a6 6 0 0 1-2 0c1.3-1.4 2-2.5 2-3.4a3 3 0 0 1-1.4-.6c1.5-1.3 2.7-3.7 3.4-7.2z" class="fil5" style="fill:#009f2f;fill-opacity:1;fill-rule:evenodd"/><path id="_134930168" d="M460.5 307.9c.4-1.9 1.8-4 4-6.3-1 3.6-2 5.8-3.2 6.8-.6 0-.9-.2-.8-.5z" class="fil8" style="fill:#5f554f;fill-opacity:1;fill-rule:evenodd"/><path id="_138332128" d="m412.6 342-.1-.3c1.2-1 3.5-2.5 4.6-.5-1 .7-3.3.8-4.5.9z" class="fil5" style="fill:#1e9600;fill-rule:evenodd"/><path id="_138331464" d="M410.9 341.5c0-.6-.1-2.5.4-2.9 2.1.7 2.1.7 2.4 1v.3c-1 .6-1.7 1.3-2.8 1.6z" class="fil5" style="fill:#1e9600;fill-rule:evenodd"/><path id="_138329312" d="M418.8 338.5v1.7l-.5.2c-.5-.1-1.7-.8-2.4-.8.3-.7 2.2-2 3-2v.9z" class="fil3" style="fill:#dededd;fill-rule:evenodd"/><path id="_138341608" d="m414.8 339-2-.7v-.4c.9-.1 3.5-.8 4.2-.4 0 .4-1.8 1.6-2.2 1.6z" class="fil3" style="fill:#dededd;fill-rule:evenodd"/><path id="_138296560" d="M422.9 340.4c-.4 0-.8 0-1.1-.2v-.4c.4-.5.7-.8 1.4-.9l.7.8-.3.5-.7.2z" class="fil3" style="fill:#dededd;fill-rule:evenodd"/><path id="_138291624" d="m421.4 339.3-.3-1.8.4-.1c.4.2 1 .5 1 1-.3.5-.5.7-1.1 1z" class="fil3" style="fill:#dededd;fill-rule:evenodd"/><path id="_138290960" d="M423.8 338.9c-.8-1-.1-1.1.8-1.9.6 0 .6.4.7.9l-1 .2c-.1.5-.1.6-.5.8z" class="fil3" style="fill:#dededd;fill-rule:evenodd"/><path id="_138287544" d="m422.8 337.7-1.3-1.2v-.3l2.7.2v.3c-.5.5-.8.7-1.4 1z" class="fil3" style="fill:#dededd;fill-rule:evenodd"/><path id="_134814536" d="M505 284.6a177 177 0 0 1 3 6.5c0 .3 1.2 1.4 1 2-.4.4-1.1.2-1.6.8 1 1.3 1.6 3.1 4 5.4a9 9 0 0 0-3.1.7 6.5 6.5 0 0 0 4.1 2.8c5.3 17.6 4.7 35-1.7 52.6-41 12.1-77.9 17-110.6 14.7-2-7-1.9-11.9.6-14.5 2.2-.7 3-1.3 2.7-1.7.3-.5-.4-1.7-1.4-2 1.3-.9 2-1.3 2.3-2.6.2-.7-.1-.9-.9-.6.7-1.6 1.2-3.3 1.6-5.1l3.5 5.6c-1 0-1.6 0-1.8.3a10 10 0 0 0 2.1 1.8c-.7.4-1.4.6-2 .6.5 1 1.4 1.3 2.5 1 1.7-.1 5-2.2 1.1-3.9 1.6-.5 2.8-1.5.9-2.1 2.2-.5 1.2-2.3.9-2.4 0 0 2.2-1.3.7-2 1.8-1.3.8-2.2 1.3-2 .3 0 .1 1.8 1.2 2-1.1 1-.4 1.6.7 2.2-1.3.6-1.4 2 .6 2.4-1.1 1.1-1.3 1.1.9 2.4.7.3-2.3 1 1 3.3 1.2.5 1.9.2 2.2-.7.7-.9 1-2.7 0-3 2.2-1.4 2.8-2.6 2.4-3-.3-.5-.8-1-1.5-1.5 1.8-.4 2.7-2 .7-3-.1-1 2.4-.2 2-2.2-.2-.5-.5-1-1-1.5l2.1-2.3c.1-.4 0-1-.2-1.7a15 15 0 0 0 2.9-5c.7 2.3 1.8 3.8 3.1 4.5l-1.4 2.1c.7.7 1.3 1.3 1.9 1.6l-1.6.8c.8.7 0 1.6 1.7 3.8 1-.6 1.4-1.2 1.3-1.9-.7.2-1.3.1-1.8-.1 1.7-2 2.7-3.3 2.8-4.3-.6.2-1.3.3-2.1.3 1.2-1 2-2 2.4-3l-1.8.2c1.7-2.1 2.9-5 3.3-8.9 1.3 4.6 2.7 8.1 4.3 10.5a5 5 0 0 1-1.7 0 7 7 0 0 0 2.6 2.6c-.6.2-1 .6-1.5 1-.3 1.5 0 3 1.3 4.6l2 1.8-1.5.4c1.4 2.4 2.8 3 4.1 1.7 1.8-1.3 2-1.9.6-1.8-.4 0-1 0-1-.2-.3-.2 0-.7.3-1.2l-2.3-.7c3-3.1 4.6-5.2 5-6.4.1-.9-.2-1.3-1-1.2 1.4-1.7 1.8-2.7 1.2-3-.4-.6-1.6-.5-3.6.2 2.2-2.5 3.8-4.9 4.8-7.1l-5-2.2c5-2.1 8-4.3 8.6-6.7-2.6.7-4.2.6-4.7-.2 3-1.6 4.6-3.1 4.8-4.6-2.1.5-3.3.7-3.6.5 2.8-3 4.3-5.2 4.5-6.8a5 5 0 0 1-1.7-.5c2.3-1.8 3.8-5.2 4.7-10a33 33 0 0 0 2.8 9.5c-.6.4-1.2.6-1.9.7 1.4 1.8 3 3.1 4.5 3.8-.8.1-1.8 0-3-.1-.5 2.5.6 4.6 3.3 6.2-1 0-1.6 0-2-.2.2 1.6 1.6 4.2 4.3 7.8-1 0-2.1-.1-3.2-.5.5 1.9 2 3.5 4.5 5-.6.9-2.1 1.4-4.5 1.6 1.7 3 3.8 5 6.2 5.6 2.5-1.1 3.5-2.2 3-3.2-1 .1-2 0-2.7-.5 2-1.5 3-2.9 3.1-4.2-.7.2-1.4 0-2.1-.4 1.2-.7 1.8-1.3 1.7-2-1 .2-2 .1-3.3-.2 3-2.2 4.9-4.2 5.3-6.2-1.5.5-2.7.6-3.6.3 3.5-3.1 4.8-5.3 4-6.4l-2.5.3a14 14 0 0 0 2.6-5.4 7 7 0 0 1-2.7-.3c2.4-1.3 3.8-3.6 4.2-7 .8 2.5 2.3 5 4.5 7.4-.8 0-1.8 0-3-.3.2 1.3 1.5 3 3.7 5.4-.7.4-1.4.6-2.3.6.5.7 1.7 2 3.7 3.6-.5.2-1 .2-1.8 0 .5 1.5 1.8 2.8 4 4-.7.4-1.4.6-2 .5.4 1.1 1.6 2.3 3.4 3.7-1 .3-2 .2-2.9-.1.2 1.9 1.8 3.8 4.8 5.8 1.7-1 2.2-1.7 1.5-2.4-1 .4-1.8.5-2.3.3 1.2-1.3 1.6-2.1 1.2-2.5-.3 0-.7-.3-1-.6 2-2.1 2.6-3.6 2-4.4a3 3 0 0 0-1.2-.6c4.7-2 1.9-2.8.7-3.6 2.9-1.3 1-1.1.7-2 1.3-.4 2.1-1.5 1.5-3.5-.1-.4-.5-.7-1-1a16 16 0 0 0 3.6-7.4c.6 2.7 1.4 5 2.4 6.8a3 3 0 0 0-1.2 1.3 8 8 0 0 0 1.7 1.7c-.5.3-.8.7-1.1 1.3a9 9 0 0 0 2.3 2.4 7 7 0 0 0-1.8 1.2c-.2 1 1.4 2 4.8 3 .8 0 1.3-1 1.4-3.2h-3.1a19 19 0 0 0 2.9-8l-2.4 2c.8-1.9 1-3 .7-3.4-.3-.3-.8-.3-1.6.2 3-3.4 4.2-6 3.5-7.6l-2.3 1.1a9.8 9.8 0 0 0 2.3-4.4c-.3 0-1 0-1.9.2 2-2.1 2.9-3.6 3-4.4-.4.2-.9 0-1.3-.2 1.6-2.3 2.8-4.7 3.8-7.2z" style="fill:#0f3a00;fill-opacity:1;fill-rule:evenodd"/><path id="_134813400" d="M427.7 413.3c26.6-11.1 46.8-23.9 60.6-38.3 1.4-1.5 2.2-5.4 4-4.5 2 1 2.8-.3 2.7-3.3-.1-1.6 1.9-2.5 2.8-3.8a70.5 70.5 0 0 0 12.4-47.1l4-2.7c.2-8.7-5.4-23.3-16.7-43.6a200 200 0 0 1 4.5-15.6c2 .2 3.7.4 5.3.4-4.8-13.8-17.7-27-38.7-39.6l7.4-28.9a83 83 0 0 1 36 33.7c2.4.8 7.6 2 15.5 3.6 11 15.4 18 38.8 21 70.4 3.4 4.5 7.3 9 11.6 13.5-5.9 57.3-45.8 94.9-119.7 112.6-5.6-2.6-9.8-4.9-12.6-6.7z" class="fil11" style="fill:#f1b900;fill-opacity:1;fill-rule:evenodd"/><path id="_134813016" d="M475.3 293.3c-2.5 2.4-3.5 4.4-2.8 5.9a9.5 9.5 0 0 0 2.8-5.9z" class="fil8" style="fill:#5f554f;fill-opacity:1;fill-rule:evenodd"/><path id="_134811816" d="M389.8 316.3c4.2.9 6.3-1.9 6.3-8.2 1.8 0 3.4 1.2 4.8 3.3 2.2-7.8 1.9-13.4-.9-16.6 1.6-1.4 3-2.8 4-4.4 1.6.3 3.1 1 4.5 2a7 7 0 0 1 0 3.4c1.8.1 3.2.5 4.2 1-1.6-5-1.7-8.8-.3-11.4-1.4.1-2.3-.2-3-1V277c2.1-.1 3.3-.6 3.5-1.5a8 8 0 0 1 3.9 4.2c1.6-2.4 1.4-4.1-.4-5.1-2.4-2-2.5-4-.3-6.2 2.4-1.8 4-5.6 2-8.5a12 12 0 0 0-4 1.4c-.4.7-.3 1.8-.5 3.2-.8 2-3 2.3-4.6 3.8-1.1-.1-2.7 3.1-3.4 6.8a13 13 0 0 0-3.4 3c-2 .5-2.4 1.7-3.8 2.3-1.4.4-.4.3-2.3.7.5 0-.7 1.7-5.5 2.5-8.2 14.6-11 25.8-8.7 33.6 4.2.1 6.8-.2 7.9-1z" class="fil8" style="fill:#5f554f;fill-opacity:1;fill-rule:evenodd"/><path id="_134810712" d="M440.3 420a220.5 220.5 0 0 0 61.8-23.9h-7c-16 10.7-34.1 18-54.5 22.3-.8-.1-1-.4-.4-.8 17-4 34.2-11.2 51.8-21.5h-5.6c-11.2 7.4-27 14.2-47.5 20.5-1.8.3-2 .2-.5-.5a248.1 248.1 0 0 0 44.4-20.2h-6.5c-7.2 5.6-21 12-41.2 19.2-1.7.2-2 0-.8-.7a175 175 0 0 0 38.9-18.4h-5c-7 5.4-19 11.2-35.8 17.4-1.3.4-1.6.2-.9-.5a160.9 160.9 0 0 0 34-16.9h-3.7a237.7 237.7 0 0 1-34.1 17.3 110 110 0 0 0 12.6 6.7z" class="fil6" style="fill:#642800;fill-rule:evenodd"/><path id="_134810328" d="M472.3 413.3c-27.4-11.5-48-24.7-61.8-39.6-.8-.9-1.2-2.4-2.4-2.7-1.8-.5-3-1.3-2.3-2.8.3-.7-1-1.2-1.3-1.7a71 71 0 0 1-14.7-50.2l-4-2.7c-.2-8.7 5.4-23.3 16.7-43.6-1.2-5-2.7-10.2-4.5-15.6-2 .2-3.7.4-5.3.4 4.8-13.8 17.7-27 38.7-39.6l-7.4-28.9a83 83 0 0 0-36 33.7c-2.4.8-7.6 2-15.5 3.6-11 15.4-18 38.8-21 70.4-3.4 4.5-7.3 9-11.6 13.5 5.9 57.3 45.8 94.9 119.7 112.6 5.6-2.6 9.8-4.9 12.6-6.7z" class="fil11" style="fill:#f1b900;fill-opacity:1;fill-rule:evenodd"/><path id="_134809520" d="M473 291.2v.3a16 16 0 0 0-3.5.5c1.8-2.4 2.8-4.7 3-6.8l2-.3a23 23 0 0 0-1.4 6.3z" class="fil8" style="fill:#5f554f;fill-opacity:1;fill-rule:evenodd"/><path id="_134808848" d="M430.1 314.4c-.5-1.1.2-1.8 2.3-2 2.5-.7 3.7 0 3.6 2.1-1-.7-1.8-.8-2.7-.1-1.8 1-2.8 1-3.2 0z" class="fil8" style="fill:#5f554f;fill-opacity:1;fill-rule:evenodd"/><path id="_134808464" d="M424.6 301.6a9.8 9.8 0 0 0 1.5-4.1c1.2 0 3 .7 5.1 1.9-1.1.3-1.6.9-1.3 1.7a12 12 0 0 1 1.2 8c-2-5.3-4.1-7.8-6.5-7.5z" class="fil8" style="fill:#5f554f;fill-opacity:1;fill-rule:evenodd"/><path id="_134808080" d="M441.1 298.8c1.2.7 1.5 2.8 1 6.2-.3-1.8-1.3-4.1-2.8-6.8.7-1.2.8-2.6.4-4.2 1 0 2-.4 3.2-1.5-2 4.5-2.6 6.6-1.8 6.3z" class="fil8" style="fill:#5f554f;fill-opacity:1;fill-rule:evenodd"/><path id="_134807440" d="M431.2 283c-.8.4-1.8.6-3 .6 1.7 1.7 3 4.3 3.9 7.9-1-5-1.3-7.9-1-8.5z" class="fil8" style="fill:#5f554f;fill-opacity:1;fill-rule:evenodd"/><path id="_134806800" d="M423.8 286.7c.6-3.3 0-5.2-1.7-5.6-1.1-.4-2.2.3-3.3 2.1 3 .3 4.7 1.4 5 3.5z" class="fil8" style="fill:#5f554f;fill-opacity:1;fill-rule:evenodd"/><path id="_134806416" d="M459.7 420a220.5 220.5 0 0 1-61.8-23.9h7c16 10.7 34.1 18 54.5 22.3.8-.1 1-.4.4-.8-17-4-34.2-11.2-51.8-21.5h5.6c11.2 7.4 27 14.2 47.5 20.5 1.8.3 2 .2.5-.5a248.1 248.1 0 0 1-44.4-20.2h6.5c7.2 5.6 21 12 41.2 19.2 1.7.2 2 0 .8-.7a175 175 0 0 1-38.9-18.4h5c7 5.4 19 11.2 35.8 17.4 1.3.4 1.6.2.9-.5a160.9 160.9 0 0 1-34-16.9h3.7a248 248 0 0 0 34.1 17.3 110 110 0 0 1-12.6 6.7z" class="fil6" style="fill:#642800;fill-rule:evenodd"/><path id="_134805664" d="M512.4 317.4c.7 4 1.2 11.2 1.2 22 .1.8.8 2 2 3.7 1.1 2.2 1 3.6-.1 4.2-1.2.3-2-.7-2.5-2.8-.4-1.7-.5-3-.2-4.2-.3-6.2-.3-13.6-1.2-22.2.4-.4.6-.7.8-.7z" class="fil6" style="fill:#642800;fill-rule:evenodd"/><path id="_134804912" d="M387.8 317.4a121 121 0 0 0-1.2 22c-.2.8-.8 2-2 3.7-1.1 2.2-1.1 3.6.1 4.2 1.2.3 2-.7 2.4-2.8.4-1.7.5-3 .3-4.2.2-6.2.3-13.6 1.1-22.2-.3-.4-.5-.7-.7-.7z" class="fil6" style="fill:#642800;fill-rule:evenodd"/><path id="_134804192" d="M511 334.1c.7 4.4 1.1 11.7 3.1 15.8 1 2 1 3.3-.2 4-1.6.1-2.4-1.4-2.5-4.7 0-9.4-1.3-13.2-1.4-15h1z" class="fil6" style="fill:#642800;fill-rule:evenodd"/><path id="_134803336" d="M389.1 334.1c-.6 4.4-1 11.7-3 15.8-1.1 2-1 3.3.2 4 1.6.1 2.4-1.4 2.5-4.7 0-9.4 1.2-13.2 1.4-15h-1z" class="fil6" style="fill:#642800;fill-rule:evenodd"/><path id="_134802584" d="M531 328c-3.7 7.4-5.7 15-7.8 18.1a5 5 0 0 1-2.5 1.5c-2.6 1.3-3.6 2.6-3.2 3.8 1 1 2.3.7 3.8-1 1.3-1.2 2.3-2.7 3.2-4.5 3.7-6.5 5.4-13.6 6.9-16.7a8 8 0 0 0-.5-1.3z" class="fil6" style="fill:#642800;fill-rule:evenodd"/><path id="_134801832" d="M368.7 328c3.7 7.4 5.7 15 7.7 18.1.6.6 1.4 1.2 2.5 1.5 2.6 1.3 3.7 2.6 3.3 3.8-1 1-2.3.7-3.8-1a16.6 16.6 0 0 1-3.2-4.5c-3.8-6.5-5.5-13.6-7-16.7l.5-1.3z" class="fil6" style="fill:#642800;fill-rule:evenodd"/><path id="_134801112" d="M526.4 346.6c-.5 1-2.9 3.9-7.2 8.7-1.8 2-3.3 2.7-4.5 2-.3-1.3.4-2.5 2.1-3.5l4-2c1-.9 2.7-3 5.3-6 .2.3.3.5.3.8z" class="fil6" style="fill:#642800;fill-rule:evenodd"/><path id="_134800728" d="M531.3 331.8c-.4 5.9-.2 4.3.3 7.7 1.7 4.6 1.6 7.2-.3 8-2.2-.2-2.5-2.8-.8-7.9-.1-3.3-.5-1.6-.1-7-.4.2 0 0 .9-.8z" class="fil6" style="fill:#642800;fill-rule:evenodd"/><path id="_134800344" d="M368.3 331.8c.4 5.9.3 4.3-.2 7.7-1.7 4.6-1.6 7.2.2 8 2.3-.2 2.6-2.8.9-7.9.1-3.3.4-1.6.1-7l-1-.8z" class="fil6" style="fill:#642800;fill-rule:evenodd"/><path id="_134799960" d="M510 344c0 5.9 0 4.3.8 7.7 2 4.4 2 7 .3 8-2.3 0-2.7-2.7-1.4-7.9-.4-3.3-.6-1.5-.6-7l.9-.8z" class="fil6" style="fill:#642800;fill-rule:evenodd"/><path id="_134799240" d="M553.5 333.8c-.7 1-11.1 10.7-15.6 14.5-2 1.8-3.5 2.3-4.5 1.4-.8-.8 0-1.8 2.1-3.1.9-.2 2.2-.6 4.1-1.4.9-.2 10.8-9.2 13.8-12.5v1.1z" class="fil6" style="fill:#642800;fill-rule:evenodd"/><path id="_134798520" d="M346.2 333.8c.6 1 11 10.7 15.5 14.5 2 1.8 3.6 2.3 4.6 1.4.7-.8 0-1.8-2.2-3.1-.8-.2-2.2-.6-4-1.4-1-.2-10.8-9.2-13.9-12.5v1.1z" class="fil6" style="fill:#642800;fill-rule:evenodd"/><path id="_134797800" d="M527.1 346c-1.3 4.3-1.1 6.5.5 6.7 1.6 0 2.1-1.4 1.7-4.6-1.4-3 0-8 .2-11-.5 1-1 1.2-1.2 1.7 0 3.7 0 2.6-1.2 7.2z" class="fil6" style="fill:#642800;fill-rule:evenodd"/><path id="_134796944" d="M372.5 346c1.3 4.3 1.2 6.5-.5 6.7-1.5 0-2-1.4-1.7-4.6 1.5-3 0-8-.2-11 .5 1 1 1.2 1.2 1.7 0 3.7 0 2.6 1.2 7.2z" class="fil6" style="fill:#642800;fill-rule:evenodd"/><path id="_134796224" d="M506.8 358.4c-1 4.4-.7 6.6 1 6.6 1.5 0 2-1.5 1.3-4.7a8 8 0 0 1-.9-4c.5-3.8.6-9 .3-16l-.9 2.2c.4 6.2 0 11.5-.8 16z" class="fil6" style="fill:#642800;fill-rule:evenodd"/><path id="_134795504" d="M393.4 358.4c1 4.4.7 6.6-1 6.6-1.5 0-2-1.5-1.4-4.7a8 8 0 0 0 1-4c-.5-3.8-.6-9-.4-16l1 2.2c-.4 6.2-.1 11.5.8 16z" class="fil6" style="fill:#642800;fill-rule:evenodd"/><path id="_134794784" d="M541.8 347c0-.5 0-.8-.2-1-3.1 3-5.1 4.6-6 4.7-3.7 1-5.7 2.3-6.2 3.6.8.2 2 .4 3.7.5.8-.3 1.8-1.3 3-3 2-1.5 4-3 5.7-4.8z" class="fil6" style="fill:#642800;fill-rule:evenodd"/><path id="_134794032" d="M507.2 346.5a60.9 60.9 0 0 1-2.4 14.6 16 16 0 0 0 1.2 6c.3.3.5 1.1.6 2.2l-3.3.3c-.9-.4-.6-3.3.6-8.5 1.4-6.6 2.2-11.5 2.5-14.8l.8.2z" class="fil6" style="fill:#642800;fill-rule:evenodd"/><path id="_134793360" d="m498 369.7 1.2-6.6c.4.2.7.2 1 .2-.4 1.8-1 4-1.5 6.7l-.7-.3z" class="fil6" style="fill:#642800;fill-rule:evenodd"/><path id="_134792640" d="M524.8 352.3c-.5 1-2.9 3.6-7 7.7-2 2-3.5 2.5-4.5 1.6-.8-.7-.2-1.8 1.9-3.2a32 32 0 0 0 4-1.6 57 57 0 0 0 5.6-5.7v1.2z" class="fil6" style="fill:#642800;fill-rule:evenodd"/><path id="_134792000" d="M500.5 369.7h-1c1.6-5 2.9-9.8 3.8-14.4l.8.6c-1 5.8-2.2 10.4-3.6 13.8z" class="fil6" style="fill:#642800;fill-rule:evenodd"/><g id="g89" style="fill-rule:evenodd" transform="matrix(.22 0 0 .21818 340 180)"><path id="_134791328" d="M851.2 810.6c38.4-52 59.5-102 65.1-151l-5 .7c-4.3 42-23.2 92-63.9 150.2l3.8.1z" class="fil6" style="fill:#642800"/><path id="_134790656" d="M762.2 867.4c34.8-54.6 52.3-106 54.5-155.1l-5 1c-1.4 42.3-16.7 93.4-53.2 154.3l3.7-.2z" class="fil6" style="fill:#642800"/><g id="g93"><path id="_134789800" d="M819.8 820.7a7 7 0 0 0-1.4-4.6c-13 15-21.7 22.9-25.8 23.8-16.2 5.9-25.1 11.9-26.7 18a75 75 0 0 0 16.7 1.1c3.8-1.5 8.1-6.4 12.9-14.5 8.8-7.3 17-15.3 24.3-23.8z" class="fil6" style="fill:#642800"/><g id="g96"><path id="_134789048" d="M834.2 844c-3.6-7.4.6-18.4 12.7-33.2 16.6-30.3 19.3-34.5 26.8-57.1l5.1-1.4c-9.1 27.7-12.3 32.3-28.2 58.2a50.7 50.7 0 0 0-1.9 17.5c.1 4-6.2 28.3-14.5 16z" class="fil6" style="fill:#642800"/><path id="_134788296" d="M865 754.7c-4.5 19.4-11.2 31.2-35.3 77.1a53.7 53.7 0 0 0 0 19.6c-.2 11.6-3.2 17.6-9 18-5-1-6.2-6.5-3.5-16.8a51.3 51.3 0 0 1 7.7-18.6c14.9-26.6 21.8-38.5 35.8-77.5 2.1-1.2 3.5-1.8 4.2-1.8z" class="fil6" style="fill:#642800"/><path id="_134787576" d="M838.7 795.9a5867 5867 0 0 1-24.6 55 59 59 0 0 0-3 24.8c0 10.3-3 15.7-9.1 16.4-6.3-2.2-6.3-10.4 0-24.6 19.2-40.6 30.4-65.1 33.5-73.5l3.2 1.9z" class="fil6" style="fill:#642800"/><path id="_134786824" d="M906.4 832.3a768.1 768.1 0 0 1-65.2 52 22 22 0 0 1-12.7 2c-12.4.5-19 3.8-19.9 9.8 1.9 6.4 7.3 7.5 16.3 3.5a78.2 78.2 0 0 0 21.6-13.8 952 952 0 0 0 59.1-47.3c.4-2 .7-4 .8-6.2z" class="fil6" style="fill:#642800"/><path id="_134786104" d="M851.7 897.3c-3.7 3.1-18.8 11-45.3 23.8-11 5.2-18 5.1-21-.4 1.6-6 6.6-9.6 15-10.7 4.6-.4 11-.6 19.4-.6 5.6-2.5 16.5-8 32.6-16.4a7 7 0 0 1-.7 4.3z" class="fil6" style="fill:#642800"/><path id="_134785720" d="M819.8 817a675.9 675.9 0 0 1-26.4 61c-1.3 22.9-6.4 34.6-15.2 35.2-8.5-4.6-4.9-16.8 10.8-36.6a480.6 480.6 0 0 0 25.8-58c-1.6.4 0 0 5-1.6z" class="fil6" style="fill:#642800"/><path id="_134785000" d="M822.2 926.6c-4.2 3.6-18.5 10.1-42.9 19.5-11.3 5-18.1 4.7-20.3-1.1-1.6-4.7 3-8.1 13.9-10.3 3.6.7 9.9.8 18.7.5 2.5-.3 13.3-4.9 32.6-13.7l-2 5.1z" class="fil6" style="fill:#642800"/><path id="_134784280" d="M761.8 905.1c-12.8 17-16.2 27.1-10 30.5 5.9 3 10.9-2.9 15-17.7-.2-6 1.4-12.4 4.8-19.4 9.5-15 20.8-37.8 33.8-68-3.5 3-6.2 5.5-7.9 7.5a335.4 335.4 0 0 1-35.7 67.1z" class="fil6" style="fill:#642800"/><path id="_134783560" d="M796.4 949.1c.8-2 1.1-3.6.9-4.9-17.7 8.6-28.5 12.4-32.3 11.5-16.2-1.2-26.4.7-30.4 5.9a73 73 0 0 0 13.4 8c4 .1 9.7-2.6 17.4-8.3a196 196 0 0 0 31-12.2z" class="fil6" style="fill:#642800"/><path id="_134782672" d="M783.5 863.7a320.8 320.8 0 0 1-39.2 58.8 85.7 85.7 0 0 0-7.5 27.9c.4 2.3-.3 6-2.2 11.2a92.9 92.9 0 0 0-13.5-5.3c-2.1-3.5 4.5-15.4 19.9-35.7a667.3 667.3 0 0 0 39.8-59l2.7 2.1z" class="fil6" style="fill:#642800"/><path id="_134782000" d="M734.6 961.6c47-40.4 86.8-81 119.2-121.7l-4.6-1.2c-27 35.7-66.3 76.2-117.8 121.4l3.2 1.5z" class="fil6" style="fill:#642800"/><path id="_134781112" d="m710.6 951.3-4.2-1.7a628.3 628.3 0 0 0 44.1-55c1.4 2.2 2.1 3.5 2.1 4.1a361.8 361.8 0 0 1-42 52.6z" class="fil6" style="fill:#642800"/><path id="_134780440" d="M700.8 946.6c6-8.9 12-17.6 18.2-26.2 1.2 1.5 2.3 2.4 3.3 2.6-5.1 7.2-11.6 16-19.6 26.3l-2-2.7z" class="fil6" style="fill:#642800"/><path id="_134779552" d="m916.2 763.8 1.4 5.6c-13.6 22.3-19.8 25.1-47.9 59.4-4.1 6-8.8 7.7-14.2 5-4.2-4.6-3.6-11.7 1.9-21.4 9.3-11.8 9.5-15 29.9-60.7l5.4-1.5c-8.1 21-6.4 21.5-24.2 52.2 5.4-3 10.6-8.7 15.6-17 12.7-16.1 10.5-12.3 22.8-39.1 1.1-1 2.7-.8 4.9.4-13 27.7-14 28.5-32.5 53.5a60 60 0 0 1-2.6 11.7c7.6-5.8 11-4.8 39.5-48z" class="fil6" style="fill:#642800"/><path id="_134778832" d="M875.7 834.5c24.8-29.6 31.8-35.3 47-57l1.5 6c-12.5 17.1-22.2 26-55.4 67-8.6 8.4-15 10.2-19.3 5.7-4-4.8-1.6-9.5 7-13.9 11.8-3.7 18.2-6.3 19.2-7.7z" class="fil6" style="fill:#642800"/><path id="_134778080" d="M928.2 789.4c-48.3 54.5-63.4 70-70.3 72.1a30.8 30.8 0 0 1-12.9 2c-10 .7-15.5 4-16.3 9.8.4 5.4 6 7 16.7 4.7 6-1.6 17.2-11 33.6-28.3 17-16.4 25.6-26.1 50.7-54.4l-1.5-5.9z" class="fil6" style="fill:#642800"/></g><path id="_134777136" d="M763 946.2c-1.4-6.3 6.3-8.8 23.2-7.4-12.5 10-20.3 12.4-23.2 7.4z" class="fil7" style="fill:#321400"/><path id="_134776504" d="M821.3 866.5c6.6.3 7.7-8 3.4-24.7-7.8 14.4-8.9 22.6-3.4 24.7z" class="fil7" style="fill:#321400"/><path id="_134775872" d="M802.7 888.2c6.6.8 8.3-7.4 5.1-24.3-8.7 13.7-10.4 21.9-5 24.3z" class="fil7" style="fill:#321400"/><path id="_134775104" d="M837.4 843.7c6.6 1.7 9.5-6.3 8.7-24.1-11 12.8-13.8 20.8-8.7 24z" class="fil7" style="fill:#321400"/><path id="_134774472" d="M832.3 874.2c-1-6.7 7.1-8.9 24.6-6.5-13.6 9.7-21.8 11.8-24.6 6.5z" class="fil7" style="fill:#321400"/><path id="_134773840" d="M812.4 897c-1.2-6.4 6.6-8.6 23.4-6.7-12.9 9.5-20.7 11.7-23.4 6.6z" class="fil7" style="fill:#321400"/><path id="_134773208" d="M790.3 920c-1.3-6.4 6.5-8.8 23.3-7.1-12.7 9.7-20.5 12-23.3 7z" class="fil7" style="fill:#321400"/><path id="_134772824" d="M851.7 853.7c-3.6-6 3.7-10.5 21.8-13.6-9.9 13.3-17.1 17.9-21.8 13.6Z" class="fil7" style="fill:#321400"/></g><path id="_134771896" d="M616.7 48.6c26.3 19.7 65.2 61 117 123.8 7.4 9.9 7.8 16.8 1.3 20.7-8 3.2-13.9-1-17.6-12.7a82.7 82.7 0 0 0-14.7-34.7 658.2 658.2 0 0 0-87.3-92.5l1.3-4.6z" class="fil6" style="fill:#642800"/><path id="_134771512" d="M611.5 67.7c28.2 21.4 60.1 53 95.8 94.9 7 8.7 7.8 15.7 2.6 21-6 4-14.7.8-26-9.8-39-31.4-67.2-52-84.6-61.6l1.1-4.3a759.7 759.7 0 0 1 77.8 53.8 54 54 0 0 0-9.8-15.7 629.7 629.7 0 0 0-64-52.7l1.5-5.1c17.7 12 40 30 67 54 4.6 2.7 8.7 4.2 12.1 4.6A606 606 0 0 0 610.3 72l1.2-4.4z" class="fil6" style="fill:#642800"/><path id="_134770760" d="M595.4 126.4c19.7 9 51 28.3 94 58 3.8 1.8 9.3 3.4 16.2 4.6 14.2 4.6 20.3 10.3 18.3 17.3-2.5 6.2-7.5 7-15.1 2.6-9.3-6-17.7-13.1-25.4-21.5a745.6 745.6 0 0 0-89.2-56.6l1.2-4.4z" class="fil6" style="fill:#642800"/><path id="_134770008" d="M591.3 141.4c32.6 17.6 71.1 41.6 115.6 72.2a88.3 88.3 0 0 0 29.9 4.7c13.1 3.4 17.2 9 12 16.9-5.5 5.8-15 3.9-28.3-5.7a89 89 0 0 1-18.1-12.7 977 977 0 0 0-112.7-69.7l1.6-5.7z" class="fil6" style="fill:#642800"/><path id="_134769288" d="M757.6 265.5a77.8 77.8 0 0 1-31.6-19.7c-55.1-39.5-101.9-67.5-140.3-84.1l1.7-6c41.4 20.2 89.9 49 145.3 86.3 9.1 4 19 6 29.9 5.8-1.7 7.5-3.3 13.4-5 17.7z" class="fil6" style="fill:#642800"/><path id="_134768432" d="M756.4 193.8A975.8 975.8 0 0 0 652 56.3c-1.2.8-2.7 1.9-4.4 3.3 54.7 62.4 86.1 106 94.3 130.7 1.6 3.6 2.9 9.2 3.9 16.7 2.6 13.8 7.8 20.1 15.6 19 7.1-3.6 5.5-14.3-4.9-32.2z" class="fil6" style="fill:#642800"/><path id="_134767712" d="M654.3 204.7c29.7 19.7 59.6 40.8 89.8 63.4 9.2 5.2 15.5 7.1 19.2 5.7 3.7 5.3 9 13.4 15.6 24.5-12-2.7-27-12.9-45.2-30.7-4-5.6-31-25.2-80.7-58.8l1.3-4z" class="fil6" style="fill:#642800"/><path id="_134766992" d="M697.5 246.8c19.3 16.2 39.8 33.8 61.7 52.7 10.4 7 19.8 9.5 28 7.3l17.8 23.3c-11.4 2.6-25.8-4.8-43.3-22a1061.2 1061.2 0 0 0-66.5-58l2.3-3.3z" class="fil6" style="fill:#642800"/><path id="_134766272" d="M727.5 284a789 789 0 0 1 53.7 47.5c3 2.6 10.2 7.1 21.6 13.7 8.9 7.8 11.3 13.7 7.3 17.9-4.8 2.7-13-4.2-24.8-20.7-18.8-20-37.6-37-56.5-51-.2-2-.6-4.6-1.3-7.5z" class="fil6" style="fill:#642800"/><path id="_134765600" d="M786.8 355.5a512 512 0 0 0-32.6-31.2l.2 5.3a294 294 0 0 1 27.1 25.1c1.3 0 3 .3 5.3.8z" class="fil6" style="fill:#642800"/><path id="_134764928" d="M767.2 211.1c-31.8-57-55.1-95.1-69.8-114.3 1.3-.5 2.9-.9 4.7-1.2 14 17.6 37 55 69 112.3-2 2.8-3.3 4-3.9 3.2z" class="fil6" style="fill:#642800"/><path id="_134764256" d="M772.9 202.6a800.5 800.5 0 0 0-35.8-63.5h4.8c10 13.5 21.7 33.2 35.3 59-2 3-3.4 4.5-4.3 4.5z" class="fil6" style="fill:#642800"/><path id="_134763584" d="M764.4 244c-9.5-18.2-26.1-38.9-49.9-61.8l-3.1 3.3a644 644 0 0 1 50.3 59.3l2.7-.8z" class="fil6" style="fill:#642800"/><path id="_134762696" d="m800.7 197.8 6.7 1.9c15.1 27.8 32.1 67 51 117.6 3.9 8 2.8 14-3.3 18-7.3 1.7-14.5-3.3-21.3-15-6.7-17-27.9-50.1-63.5-99.3l1.8-6.7a709.5 709.5 0 0 1 58 88.2 58 58 0 0 0-8.4-26.8 391.5 391.5 0 0 0-45.2-78.7c-.2-1.8 1-3.4 3.5-5 21.2 30.5 39.3 63 54.3 97.7 4.3 3.3 7.8 6.6 10.7 9.9-1.5-11.5-16.2-45.4-44.3-101.8z" class="fil6" style="fill:#642800"/><path id="_134761808" d="m953.7 537.4 3.7 4.4A784 784 0 0 1 927.7 645c-1.7 6.8-5.7 10-12 9.5-6-2.5-8.3-9-6.7-19.6 4.5-13.8 5.5-44 7.5-91.8l4.8-3.3a463 463 0 0 1-5.2 82.2c4-4.7 7-11.6 8.6-20.7 6.2-19 7.3-41.8 8.8-70 .8-1.3 2.1-2.5 4.7-2.1-1.7 29.1-3.9 58.1-12.3 87 1.2 4 1.9 7.8 2 11.3 5.3-7.9 14.8-41.5 25.8-90.1z" class="fil6" style="fill:#642800"/><path id="_134760784" d="m844.3 592.4 4 4.2c-3 24.9-9.9 58.8-21.3 100.2-1.2 7-5 10.4-11.3 10.4-6.2-2-8.9-8.4-8-19 3.5-14.2 2.4-44.4 1-92.2l4.7-3.7c1.7 21.6 3.4 48.5.4 82.4a42 42 0 0 0 7.2-21.2c4.9-19.3 4.4-42.2 3.9-70.5.7-1.3 2-2.6 4.6-2.4.2 29.2.1 58.3-6.3 87.6 1.5 4 2.4 7.7 2.9 11.1 4.6-8.2 10.6-37.6 18.2-86.9z" class="fil6" style="fill:#642800"/><path id="_134760064" d="M868.1 314.5c-16-44.3-30.8-81-44.4-110.3l7.3 2a3250 3250 0 0 1 49.8 125.2c3.5 14.2 1.5 22.2-5.9 23.9-7.4 1.2-10.8-4-10.3-15.8 3.3-14.7 4.5-23 3.5-25z" class="fil6" style="fill:#642800"/><path id="_134759344" d="M936.3 655.8c12.9-35.3 25-78.9 31.5-103.6l4 4.8c-5.6 19.7-19.3 67.2-36 115.4-5.2 10.6-10.9 14.6-16.9 12-5.8-2.8-5.3-7.7 1.4-14.8 10.3-7.5 15.6-12.1 16-13.8z" class="fil6" style="fill:#642800"/><path id="_134758624" d="M836.1 699c10.4-36.1 17.2-62 22-87l4.2 4.5c-4.2 20-12.2 49.8-25.4 99.2-4.5 10.8-10 15.2-16.1 13.2-6-2.5-5.9-7.5.4-15 9.7-8.2 14.7-13.1 15-14.8z" class="fil6" style="fill:#642800"/><path id="_134757872" d="M852.8 364c-9.9-.6-19-11.8-27.1-33.6a597.8 597.8 0 0 0-61.3-86.4l1.6-6.2c23.5 26.5 44 56 61.6 88.5a62 62 0 0 0 17.2 12.6c4.4 2.4 26 23.8 8 25z" class="fil6" style="fill:#642800"/><path id="_134757120" d="M898.7 682c-6.5-5.1-6.8-16.5-.6-34a511 511 0 0 0 1-95.2l4.5-3.1c1.9 27.9 3.5 68-2 96.7 1 6.6 2.7 12 5.1 16.2 1.7 3.6 5.2 27.4-8 19.4z" class="fil6" style="fill:#642800"/><path id="_134756368" d="M800.7 735.8c-6.9-4.7-7.9-16-3-33.8a511 511 0 0 0-5.6-95l4.2-3.5c3.9 27.7 8.3 67.6 4.9 96.6a44.6 44.6 0 0 0 6.1 15.8c2 3.4 7 27-6.6 20z" class="fil6" style="fill:#642800"/><path id="_134755984" d="M847 210.7c27.9 84 40.7 130.4 38.7 139-1.3 6.2-3.2 11-5.8 14.7-5.4 11-5.2 18.8.4 23.2 5.9 3 11-2 15-14.7 2-7.3-1-24.8-9.1-52.7-7-28-17.6-63.9-32-107.6-4-1-6.3-1.7-7.1-2z" class="fil6" style="fill:#642800"/><path id="_134755216" d="M983.3 567.2c-25 66.2-46.8 117.6-52.8 122a34.3 34.3 0 0 1-11.9 6.6c-9.6 4.4-13.6 9.4-12 14.8 2.6 4.6 8.7 4 18.4-2.2 5.2-3.6 12.4-16.1 21.5-37.6a1663 1663 0 0 0 40.8-99l-4-4.6z" class="fil6" style="fill:#642800"/><path id="_134754080" d="M878.8 600.3c-20.5 67.8-40 129.6-45.8 134.5-3.9 3.6-7.7 6-11.4 7.3-9.2 5.2-12.9 10.4-10.9 15.6 3 4.5 9 3.4 18.2-3.4 5-4 11.2-17 18.8-39 8.6-21.6 24.7-75.5 35.3-110.7l-4.2-4.3z" class="fil6" style="fill:#642800"/><path id="_134753192" d="M760.4 256.7c17.7 16.5 43.3 51.3 77 104.6a64.9 64.9 0 0 0 20.5 11.8c12 7.4 16.5 14.3 13.4 20.6-4 4.7-10.6 2.5-19.7-6.5a62.3 62.3 0 0 1-15-19.5 804.8 804.8 0 0 0-77-105.5c0-2.9.3-4.7.8-5.5z" class="fil6" style="fill:#642800"/><path id="_134752440" d="M888.9 574.9c2.3 18.8 2.2 51.7-1.5 101.1a48 48 0 0 0 7.9 17.3c4.4 10.5 3.7 16.9-1.9 19.3-5.3 1-8.7-3.6-10.1-13.6a44.2 44.2 0 0 1 .3-19.4c.7-28.4 2.8-61.9 1.8-101.6 1.6-1.8 2.7-2.9 3.5-3.1z" class="fil6" style="fill:#642800"/><path id="_134751720" d="M805 330a5893 5893 0 0 1 42.9 59.4 74.4 74.4 0 0 0 24.2 18.3c10.7 6.2 14.6 12.8 11.7 19.6-6.2 5.3-14.7.2-25.8-15.1-31-45-50-71.6-56.9-80-1.3.8 0 0 4-2.1z" class="fil6" style="fill:#642800"/><path id="_134751000" d="M880.7 667c-.6 20.5-3.4 37.8 5.9 57.3 4 9.1 3.2 15-2.5 17.8-7.2.4-10.4-7-9.7-21.8 2.8-43 1.6-44.9 1.4-53.4-1.3-.2 1-.4 4.9 0z" class="fil6" style="fill:#642800"/><path id="_134750248" d="M884.5 280.7a938 938 0 0 1 15 100.5 27 27 0 0 1-5.8 14.5c-6.8 13.5-7.4 22.4-1.7 27 7.8 1.9 12.4-3.1 13.6-15 1.3-9.9.8-20.3-1.4-31.3-5-41.5-9.6-72-13.7-91.2a51 51 0 0 0-6-4.5z" class="fil6" style="fill:#642800"/><path id="_134749496" d="M988.4 615.5c-19 32.8-49 80.5-59.5 94.2a24.2 24.2 0 0 1-11.8 6.2c-12 5-17.3 10.4-15.8 16 4.4 5 10.2 4 17.5-2.8a76.2 76.2 0 0 0 16-20c19-28.3 47.7-73.9 55.3-87.8a37 37 0 0 0-1.7-5.8z" class="fil6" style="fill:#642800"/><path id="_134748776" d="M919.5 377.9c1 5.8.1 26.6-2.6 62.3-1.1 14.8-5.5 22-13.1 21.9-5.4-5.3-6.1-12.7-2.1-22.4 2.3-5 6-11.9 11-20.8a864 864 0 0 0 2.7-44.3 8 8 0 0 1 4.1 3.3z" class="fil6" style="fill:#642800"/><path id="_134748056" d="M973.5 682.8c-2.4 4-44.6 47-65.8 67.8-8.8 8.7-15.8 11-21 7.3-.9-5.9 2.7-10.9 10.7-15 4.3-2 10.6-4.4 19-7.5 4.5-4.2 43.4-43.4 56-56.7a6.2 6.2 0 0 1 1.1 4z" class="fil6" style="fill:#642800"/><path id="_134747672" d="M815.7 362.8a820.8 820.8 0 0 1 48.1 65c23.2 15.3 32.4 27.7 27.7 37.3-10 6.3-20.6-5-32-33.6a583.7 583.7 0 0 0-45.2-62.5l1.4-6.2z" class="fil6" style="fill:#642800"/><path id="_134746952" d="M932.4 426.9c1.2 6.7-.7 25.7-5.6 57.1-1.6 15-6.2 22-13.6 20.8-5.8-1.2-6.6-8.1-2.4-21 3-3.4 7-9.9 12-19.4 1.2-2.8 3-17 5.4-42.8l4.2 5.3z" class="fil6" style="fill:#642800"/><path id="_134746088" d="M873 477.6c10 23.9 18.7 33.6 26 29 6.7-4.3 3.5-13.1-9.5-26.4a52 52 0 0 1-17.5-17c-10-19.2-27-44.9-50.9-77 1 5.6 2.1 9.9 3.2 13 22 28.7 38.3 54.9 48.8 78.4z" class="fil6" style="fill:#642800"/><path id="_134745368" d="M940.3 467.8c-1.6-2-3-3.3-4.6-3.9-1.8 24-4.3 37.6-7.5 41-11.2 16.4-15.4 28.4-12.4 35.8 4.2-1.6 9.7-4.7 16.5-9.4 2.6-4 3.2-11.8 1.9-23.3 3.2-13.2 5.2-26.6 6-40.2z" class="fil6" style="fill:#642800"/><path id="_134744616" d="M842.7 429.5c19.4 32.4 32 58.1 38 77.1a103.9 103.9 0 0 0 24.7 24.9c2.7 1 6.1 4 10.4 9.2a105 105 0 0 0-13.7 11c-5 .1-13.5-14.1-25.4-42.7a812.2 812.2 0 0 0-38-78l4-1.5z" class="fil6" style="fill:#642800"/><path id="_134743944" d="M915.8 540.7c-13.9-74.3-32.3-141-55.3-200l-4 4.2c21 50.3 39.6 116.4 55.8 198.3 1.5-1 2.6-2 3.5-2.5z" class="fil6" style="fill:#642800"/><path id="_134743056" d="m890.4 559.7-4.3 3.4a765.5 765.5 0 0 0-30.9-80c3-.1 5 0 5.5.3a440.8 440.8 0 0 1 29.7 76.3z" class="fil6" style="fill:#642800"/><path id="_134742168" d="m771.3 357.2 6.5 2.2c13.3 27.2 19.4 57 35.3 106 3.3 7.8 2 13.4-4.2 17-7.3 1.2-14-4-20-15.3-5.8-16.5-24.7-49-57-97.6l2.1-6.3c15.7 21.2 33 50.1 52.1 86.7.4-7.2-1.8-15.8-6.8-25.8a368.4 368.4 0 0 0-40-77c-.2-1.8 1-3.3 3.6-4.6 19.2 30 35.2 61.8 48 95.5a70 70 0 0 1 10 9.9c-.9-11-5-35.7-29.6-90.7z" class="fil6" style="fill:#642800"/><path id="_134741784" d="M823.3 463.2a1321 1321 0 0 0-32.1-109l6.9 2.7c7.6 23.4 19.6 64.6 35.7 123.5 2 13.8-.7 21.2-8 22-7.4.5-10.2-4.9-8.5-16 4.7-13.5 6.7-21.3 6-23.2z" class="fil6" style="fill:#642800"/><path id="_134741400" d="M805.2 508.7c-9.7-1-18-12.1-24.8-33.3a566.6 566.6 0 0 0-55.5-85l2-6a442.6 442.6 0 0 1 55.6 87.2c5.5 6 10.9 10.2 16.2 12.9 4 2.5 24.1 23.8 6.5 24.2z" class="fil6" style="fill:#642800"/><path id="_134740264" d="M808.1 363.3c21.4 81.7 30.8 126.5 28.2 134.6a35.5 35.5 0 0 1-6.7 13.5c-6 10.2-6.3 17.5-1.2 22 5.6 3.3 10.9-1 15.7-13 2.5-6.6.7-23.5-5.3-50.6a1399 1399 0 0 0-23.9-104.2l-6.8-2.3z" class="fil6" style="fill:#642800"/><path id="_134739512" d="M717.5 402.6c16.5 16.5 39.7 51 69.8 103.3 3.1 3.5 9.6 7.6 19.5 12.2 11.4 7.6 15.4 14.3 12 20.2-4.1 4.2-10.4 1.9-19-7.1a59.2 59.2 0 0 1-13.4-19.3 763.4 763.4 0 0 0-69.9-104c.2-2.9.5-4.6 1-5.3z" class="fil6" style="fill:#642800"/><path id="_134738656" d="m757.4 474.5 38.8 58.6a72.5 72.5 0 0 0 22.7 18.6c10.2 6.4 13.6 12.8 10.4 19.1-6.3 4.8-14.4-.4-24.4-15.6a1779 1779 0 0 0-51.5-78.8l4-1.9z" class="fil6" style="fill:#642800"/><path id="_134737904" d="M837.5 431.5a861 861 0 0 1 9.5 96.3c-.4 4.4-2.5 8.9-6.4 13.5-7.4 12.5-8.4 21-3 25.6 7.5 2.2 12.2-2.4 14-13.6 1.8-9.3 1.9-19.3.3-29.8a1077 1077 0 0 0-8.7-87.4 49.6 49.6 0 0 0-5.7-4.6z" class="fil6" style="fill:#642800"/><path id="_134737232" d="M879.5 567.3c-5.7-11.8-11.2-23.5-16.4-35.2 2.3-.4 3.9-1 4.7-2 4.5 9.8 9.7 22 15.7 36.7l-4 .5z" class="fil6" style="fill:#642800"/><path id="_134736512" d="M804.9 564.5c-9.1-15.4-21-32.7-35.4-52.2 3.7 10.9 6 17.2 6.7 19 10.4 13.4 18.7 27 24.9 40.6 3 8.8 5.9 15.4 8.7 19.6 5.5-3.5 9.7-6.5 12.8-8.9-4.1-3-10-9-17.7-18.1z" class="fil6" style="fill:#642800"/><path id="_134735840" d="M805.5 595.3a295 295 0 0 0-24.1-43.8l1.5 12c7.4 13 13.7 25 19 36l3.6-4.2z" class="fil6" style="fill:#642800"/><path id="_134735168" d="M813.6 486.2c-1 .3-2.5 1.3-4.6 2.8a489.4 489.4 0 0 1 21 90.4l4.2-1a512 512 0 0 0-20.6-92.2z" class="fil6" style="fill:#642800"/><path id="_134734784" d="M857.2 503.9c1 39.4-.6 62.3-5 68.7a43.2 43.2 0 0 1-10.5 15.2c3.6 6 8 11.4 13.2 16.4 6.4-21.3 8.4-56 6.2-103.8a20 20 0 0 1-4 3.5z" class="fil6" style="fill:#642800"/><path id="_134734112" d="M874.4 565.8a310.2 310.2 0 0 1-9.2 49.5l-3.7-3.8c3.7-14.6 6.7-31.5 8.8-50.7a18 18 0 0 1 4.1 5z" class="fil6" style="fill:#642800"/><path id="_134733480" d="M803.1 734c7.3-1.6 6.1-10.9-3.5-27.8-4.2 17.9-3 27.2 3.5 27.8z" class="fil7" style="fill:#321400"/><path id="_134732848" d="M891.8 709.7c6.3-1.8 4.7-10-4.8-24.3-2.7 16-1.1 24.2 4.8 24.3z" class="fil7" style="fill:#321400"/><path id="_134732080" d="M883 739.6c6.3-1.9 4.7-10-4.9-24.4-2.6 16.1-1 24.3 4.9 24.4z" class="fil7" style="fill:#321400"/><path id="_134731448" d="M901.6 680.3c6.6-1.2 5.9-9.7-2.4-25.5-4.4 16.2-3.7 24.7 2.4 25.5z" class="fil7" style="fill:#321400"/><path id="_134730816" d="M821 727c-5.7-4.8-.3-12.4 16.2-23-4.7 18-10 25.6-16.2 23z" class="fil7" style="fill:#321400"/><path id="_134730184" d="M910.7 710c-3.5-5.9 3.3-11 20.3-15.3-9 14-15.7 19.1-20.3 15.2z" class="fil7" style="fill:#321400"/><path id="_134729552" d="M905.4 731.5c-3.4-5.5 3.1-10.4 19.5-14.6-8.6 13.5-15 18.4-19.5 14.6z" class="fil7" style="fill:#321400"/><path id="_134728920" d="M919.6 682c-5.3-4.5.2-11.2 16.3-20-5 15.8-10.5 22.5-16.3 20z" class="fil7" style="fill:#321400"/><path id="_134728288" d="M922.5 536.4c-7-3.3-3.7-12.4 10-27.2 0 19-3.2 28.1-10 27.2z" class="fil7" style="fill:#321400"/><path id="_134727656" d="M907.5 545.6c-6 4.8-12.6-2.1-20-20.9 17.2 8.2 23.8 15.2 20 21z" class="fil7" style="fill:#321400"/><path id="_134727024" d="M898 503.5c-6.3 4.4-12.5-3-18.5-22.2 16.5 9.3 22.7 16.8 18.5 22.2z" class="fil7" style="fill:#321400"/><path id="_134726392" d="M887 461.2c-6.4 4.2-12.5-3.3-18.1-22.6 16.3 9.7 22.4 17.2 18 22.6z" class="fil7" style="fill:#321400"/><path id="_134725624" d="M881 423.8c-5.1 5.7-12.8-.2-23-17.5 18.3 5.4 26 11.2 23 17.5z" class="fil7" style="fill:#321400"/><path id="_134724992" d="M868.6 390.6c-5 5.8-12.9 0-23.3-17.1 18.3 5 26 10.8 23.3 17.1z" class="fil7" style="fill:#321400"/><path id="_134724360" d="M840.1 564.7c-7-3.2-3.8-12.3 9.5-27.3.5 19-2.7 28-9.5 27.3z" class="fil7" style="fill:#321400"/><path id="_134723728" d="M831.6 530.6c-7-3-4-12.2 9-27.5.8 19-2.2 28.1-9 27.5z" class="fil7" style="fill:#321400"/><path id="_134723096" d="M824.7 498.4c-7.5-1.5-6.5-11.1 3.1-28.8 4.8 18.4 3.7 28-3 28.8z" class="fil7" style="fill:#321400"/><path id="_134722464" d="M807 475.6c-9.5 4.1-14.3-4.8-14.4-26.7 16.9 12.2 21.7 21 14.4 26.7z" class="fil7" style="fill:#321400"/><path id="_134721832" d="M807.4 504.6c-6.4 3.8-12.6-2.6-18.6-19.3 16.6 8.1 22.9 14.5 18.6 19.3z" class="fil7" style="fill:#321400"/><path id="_134721200" d="M815.4 534.6c-6 4.4-12.9-1.3-20.6-17.2 17.4 6.3 24.3 12 20.6 17.2z" class="fil7" style="fill:#321400"/><path id="_134720568" d="M826.7 567c-5.9 4.5-12.9-1-20.9-16.9 17.6 6 24.5 11.6 21 16.9z" class="fil7" style="fill:#321400"/><path id="_134719936" d="M914.2 502.4c-7.1-3-4.2-12.2 8.6-27.7 1.1 19-1.7 28.2-8.6 27.7z" class="fil7" style="fill:#321400"/><path id="_134719168" d="M906.4 457.9c-7.3-2.4-5.1-11.8 6.6-28.2 2.4 18.8.2 28.2-6.6 28.2z" class="fil7" style="fill:#321400"/><path id="_134718536" d="M894.5 420.3c-7.3-2.5-5.1-11.9 6.6-28.2 2.4 18.8.2 28.2-6.6 28.2z" class="fil7" style="fill:#321400"/><path id="_134717904" d="M883.3 384c-7.3-2.4-5.3-11.8 6.1-28.4 2.8 18.8.8 28.3-6.1 28.3z" class="fil7" style="fill:#321400"/><path id="_134717272" d="M874 351.3c-7.7-.5-8-10.1-1-29 7.3 17.6 7.6 27.3 1 29z" class="fil7" style="fill:#321400"/><path id="_134716640" d="M760.6 222c-8.3 2.5-12.4-7.6-12.1-30.2 14.4 15.8 18.4 25.9 12 30.3z" class="fil7" style="fill:#321400"/><path id="_134716008" d="M732.2 189c-8.1 3-12.8-6.8-14.1-29.4 15.4 14.7 20.1 24.5 14.1 29.4z" class="fil7" style="fill:#321400"/><path id="_134715376" d="M720.6 205.5c-4.3 6.2-12.5 1.6-24.8-13.9 18.4 2.8 26.7 7.4 24.8 13.9z" class="fil7" style="fill:#321400"/><path id="_134714744" d="M747.8 230.6c-2.8 7.4-12.3 4.8-28.7-7.9 19.4-1.8 29 .8 28.7 7.9z" class="fil7" style="fill:#321400"/><path id="_134714128" d="M708.4 178.3c-8 7-17.5-2.4-28.5-27.8 24 10.5 33.4 19.7 28.5 27.8z" class="fil7" style="fill:#321400"/><path id="_134569872" d="M853.3 330.3c-9.3 4.2-15.7-6.9-19.1-33.4 19.4 16 25.8 27.2 19 33.4z" class="fil7" style="fill:#321400"/><path id="_134569352" d="M853.7 359.6c-6.3 5.3-13-2.7-20.3-24 17.5 9.6 24.3 17.6 20.3 24z" class="fil7" style="fill:#321400"/><path id="_134568720" d="M815.2 702.7c9.2.9 11.3-10.4 6.5-34-11.8 19.4-14 30.7-6.5 34z" class="fil7" style="fill:#321400"/><path id="_134568088" d="M915.2 651.7c9 1.4 11.8-9.8 8.2-33.6-12.8 18.8-15.5 30-8.2 33.6z" class="fil7" style="fill:#321400"/><path id="_134567728" d="M844.3 592.4c1.3-3.9 5.1-8.3 11.4-13.2.6 9.2-.8 16.4-4.2 21.5l-7.2-8.3z" class="fil7" style="fill:#321400"/><path id="_134567368" d="M812.6 589.7c-2.8-2.3-4.7-8.4-6.5-16 6.3 3 10 6.8 14.2 10.7-2.4 1.5-4.9 3.6-7.7 5.3z" class="fil7" style="fill:#321400"/><path id="_134566728" d="M761.2 253.4c-6.7-2.1-14-3.2-21.8-3.2a33 33 0 0 0 19.7 11l2.1-7.8z" class="fil7" style="fill:#321400"/><path id="_134566088" d="M768 280.8c-5-1.8-9.7-2.4-14-2 3.2 4.8 10.3 9.3 21.3 13.5-4-6.5-6.5-10.4-7.3-11.5z" class="fil7" style="fill:#321400"/><path id="_134565448" d="M793.3 314.8c-7-2.6-12.5-3.1-16.7-1.6 4.9 6.4 13.4 10.8 25.7 13.3l-9-11.7z" class="fil7" style="fill:#321400"/><path id="_134565064" d="M806.7 360.1c-3.4 1.7-7.4-3-12-14 11.5 5 15.5 9.6 12 14z" class="fil7" style="fill:#321400"/></g><g id="g216" style="fill-rule:evenodd" transform="matrix(.22 0 0 .21818 340 180)"><path id="_134564184" d="M148 810.6c-38.4-52-59.5-102-65.1-151l5 .7c4.3 42 23.2 92 63.9 150.2l-3.8.1z" class="fil6" style="fill:#642800"/><path id="_134563376" d="M237 867.4c-34.8-54.6-52.3-106-54.5-155.1l5 1c1.4 42.3 16.7 93.4 53.2 154.3l-3.7-.2z" class="fil6" style="fill:#642800"/><g id="g220"><path id="_134562656" d="M179.4 820.7a7 7 0 0 1 1.4-4.6c13 15 21.7 22.9 25.8 23.8 16.2 5.9 25.2 11.9 26.7 18-3.9.9-9.4 1.2-16.6 1.1-4-1.5-8.2-6.4-13-14.5-8.8-7.3-17-15.3-24.3-23.8z" class="fil6" style="fill:#642800"/><g id="g223"><path id="_134561904" d="M165 844c3.6-7.4-.6-18.4-12.7-33.2-16.6-30.3-19.3-34.5-26.8-57.1l-5.1-1.4c9.1 27.7 12.3 32.3 28.2 58.2a50.7 50.7 0 0 1 1.9 17.5c-.1 4 6.2 28.3 14.5 16z" class="fil6" style="fill:#642800"/><path id="_134561152" d="M134.3 754.7c4.4 19.4 11.1 31.2 35.2 77.1a53.6 53.6 0 0 1 0 19.6c.2 11.6 3.2 17.6 9 18 5-1 6.2-6.5 3.5-16.8a51.3 51.3 0 0 0-7.7-18.6c-14.9-26.6-21.8-38.5-35.8-77.5a11.7 11.7 0 0 0-4.2-1.8z" class="fil6" style="fill:#642800"/><path id="_134560432" d="M160.5 795.9a5867 5867 0 0 0 24.6 55 59 59 0 0 1 3 24.8c0 10.3 3 15.7 9.1 16.4 6.3-2.2 6.3-10.4 0-24.6a1571 1571 0 0 1-33.5-73.5l-3.2 1.9z" class="fil6" style="fill:#642800"/><path id="_134559680" d="M92.8 832.3a768.1 768.1 0 0 0 65.2 52 22 22 0 0 0 12.7 2c12.4.5 19 3.8 19.9 9.8-1.9 6.4-7.3 7.5-16.3 3.5a78.2 78.2 0 0 1-21.6-13.8 952 952 0 0 1-59.1-47.3c-.4-2-.7-4-.8-6.2z" class="fil6" style="fill:#642800"/><path id="_134558960" d="M147.5 897.3c3.7 3.1 18.8 11 45.3 23.8 11 5.2 18 5.1 21-.4-1.6-6-6.6-9.6-15-10.7-4.6-.4-11-.6-19.4-.6-5.6-2.5-16.5-8-32.6-16.4a7 7 0 0 0 .7 4.3z" class="fil6" style="fill:#642800"/><path id="_134558576" d="M179.4 817c10.1 26 18.9 46.4 26.4 61 1.3 22.9 6.4 34.6 15.2 35.2 8.5-4.6 4.9-16.8-10.8-36.6a480.6 480.6 0 0 1-25.8-58c1.6.4 0 0-5-1.6z" class="fil6" style="fill:#642800"/><path id="_134557856" d="M177 926.6c4.2 3.6 18.5 10.1 42.9 19.5 11.3 5 18.1 4.7 20.3-1.1 1.6-4.7-3-8.1-13.9-10.3-3.6.7-9.9.8-18.7.5-2.5-.3-13.3-4.9-32.6-13.7l2 5.1z" class="fil6" style="fill:#642800"/><path id="_134557136" d="M237.4 905.1c12.9 17 16.2 27.1 10 30.5-5.9 3-10.9-2.9-15-17.7.2-6-1.4-12.4-4.8-19.4-9.5-15-20.8-37.8-33.8-68 3.5 3 6.2 5.5 7.9 7.5 11.4 27.6 23.3 50 35.7 67.1z" class="fil6" style="fill:#642800"/><path id="_134556280" d="M202.8 949.1c-.8-2-1.1-3.6-.9-4.9 17.7 8.6 28.5 12.4 32.3 11.5 16.2-1.2 26.4.7 30.4 5.9a73 73 0 0 1-13.4 8c-4 .1-9.7-2.6-17.4-8.3a196 196 0 0 1-31-12.2z" class="fil6" style="fill:#642800"/><path id="_134555528" d="M215.7 863.7c15 27.2 28.1 46.7 39.2 58.8 4.8 11.8 7.3 21 7.5 27.9-.4 2.3.3 6 2.2 11.2a92.9 92.9 0 0 1 13.5-5.3c2.1-3.5-4.5-15.4-19.9-35.7a667.3 667.3 0 0 1-39.8-59l-2.7 2.1z" class="fil6" style="fill:#642800"/><path id="_134554856" d="M264.6 961.6c-47-40.4-86.8-81-119.2-121.7l4.6-1.2c27 35.7 66.3 76.2 117.8 121.4l-3.2 1.5z" class="fil6" style="fill:#642800"/><path id="_134553968" d="m288.6 951.3 4.2-1.7a628.3 628.3 0 0 1-44.1-55c-1.4 2.2-2.1 3.5-2.1 4.1a361.8 361.8 0 0 0 42 52.6z" class="fil6" style="fill:#642800"/><path id="_134553296" d="M298.4 946.6c-6-8.9-12-17.6-18.2-26.2-1.2 1.5-2.3 2.4-3.3 2.6 5.1 7.2 11.6 16 19.6 26.3l2-2.7z" class="fil6" style="fill:#642800"/><path id="_134552912" d="m83 763.8-1.4 5.6c13.6 22.3 19.8 25.1 47.9 59.4 4.1 6 8.8 7.7 14.2 5 4.2-4.6 3.6-11.7-1.9-21.4-9.3-11.8-9.5-15-29.9-60.7l-5.4-1.5c8.1 21 6.4 21.5 24.2 52.2-5.4-3-10.6-8.7-15.6-17-12.7-16.1-10.5-12.3-22.7-39.1-1.2-1-2.8-.8-5 .4 13 27.7 14 28.5 32.5 53.5a60 60 0 0 0 2.6 11.7c-7.6-5.8-11-4.8-39.5-48z" class="fil6" style="fill:#642800"/><path id="_134552192" d="M123.5 834.5c-24.8-29.6-31.8-35.3-47-57l-1.5 6c12.5 17.1 22.2 26 55.4 67 8.6 8.4 15 10.2 19.3 5.7 4-4.8 1.6-9.5-7-13.9-11.8-3.7-18.2-6.3-19.2-7.7z" class="fil6" style="fill:#642800"/><path id="_134551440" d="M71 789.4c48.3 54.5 63.4 70 70.3 72.1a32 32 0 0 0 12.9 2c10 .7 15.5 4 16.3 9.8-.4 5.4-6 7-16.7 4.7-6-1.6-17.2-11-33.6-28.3-17-16.4-25.6-26.1-50.7-54.4l1.5-5.9z" class="fil6" style="fill:#642800"/></g><path id="_134550496" d="M236.2 946.2c1.4-6.3-6.3-8.8-23.2-7.4 12.5 10 20.3 12.4 23.2 7.4z" class="fil7" style="fill:#321400"/><path id="_134549864" d="M177.9 866.5c-6.6.3-7.7-8-3.4-24.7 7.8 14.4 8.9 22.6 3.4 24.7z" class="fil7" style="fill:#321400"/><path id="_134549096" d="M196.5 888.2c-6.6.8-8.3-7.4-5.1-24.3 8.7 13.7 10.4 21.9 5 24.3z" class="fil7" style="fill:#321400"/><path id="_134548464" d="M161.8 843.7c-6.6 1.7-9.5-6.3-8.7-24.1 11 12.8 13.8 20.8 8.7 24z" class="fil7" style="fill:#321400"/><path id="_134547832" d="M166.9 874.2c1-6.7-7.1-8.9-24.6-6.5 13.6 9.7 21.8 11.8 24.6 6.5z" class="fil7" style="fill:#321400"/><path id="_134547200" d="M186.8 897c1.2-6.4-6.6-8.6-23.4-6.7 12.9 9.5 20.7 11.7 23.4 6.6z" class="fil7" style="fill:#321400"/><path id="_134546568" d="M209 920c1.2-6.4-6.6-8.8-23.4-7.1 12.7 9.7 20.5 12 23.3 7z" class="fil7" style="fill:#321400"/><path id="_134546184" d="M147.5 853.7c3.6-6-3.7-10.5-21.8-13.6 9.9 13.3 17.1 17.9 21.8 13.6z" class="fil7" style="fill:#321400"/></g><path id="_134545144" d="M382.5 48.6c-26.3 19.7-65.2 61-117 123.8-7.4 9.9-7.8 16.8-1.3 20.7 8 3.2 13.9-1 17.6-12.7 3.7-16 8.6-27.6 14.7-34.7a658.2 658.2 0 0 1 87.3-92.5l-1.3-4.6z" class="fil6" style="fill:#642800"/><path id="_134544760" d="M387.7 67.7c-28.2 21.4-60.1 53-95.8 94.9-7 8.7-7.8 15.7-2.6 21 6 4 14.7.8 26-9.8 39-31.4 67.2-52 84.6-61.6l-1.1-4.3a759.7 759.7 0 0 0-77.8 53.8c1.3-4 4.5-9.2 9.9-15.7 24.7-22.8 46-40.3 63.8-52.7l-1.4-5.1c-17.7 12-40 30-67 54a32.7 32.7 0 0 1-12.1 4.6c20-24.4 45-49.3 74.8-74.7l-1.3-4.4z" class="fil6" style="fill:#642800"/><path id="_134544008" d="M403.8 126.4c-19.7 9-51 28.3-94 58a65.6 65.6 0 0 1-16.2 4.6c-14.2 4.6-20.3 10.3-18.3 17.3 2.5 6.2 7.5 7 15.1 2.6 9.3-6 17.7-13.1 25.4-21.5a745.6 745.6 0 0 1 89.2-56.6l-1.2-4.4z" class="fil6" style="fill:#642800"/><path id="_134543256" d="M408 141.4a1284.7 1284.7 0 0 0-115.7 72.2 88.3 88.3 0 0 1-29.9 4.7c-13.1 3.4-17.2 9-12 16.9 5.5 5.8 15 3.9 28.3-5.7a89 89 0 0 0 18.1-12.7 977 977 0 0 1 112.7-69.7l-1.6-5.7z" class="fil6" style="fill:#642800"/><path id="_134542400" d="M241.6 265.5a77.8 77.8 0 0 0 31.6-19.7c55.1-39.5 101.9-67.5 140.3-84.1l-1.7-6c-41.4 20.2-89.9 49-145.3 86.3-9.1 4-19 6-29.9 5.8 1.7 7.5 3.3 13.4 5 17.7z" class="fil6" style="fill:#642800"/><path id="_134541680" d="M242.8 193.8A975.8 975.8 0 0 1 347.3 56.3c1.2.8 2.7 1.9 4.4 3.3-54.7 62.4-86.1 106-94.3 130.7a66.2 66.2 0 0 0-3.9 16.7c-2.6 13.8-7.8 20.1-15.6 19-7.1-3.6-5.5-14.3 4.9-32.2z" class="fil6" style="fill:#642800"/><path id="_134540960" d="M344.9 204.7a1939.9 1939.9 0 0 0-89.8 63.4c-9.1 5.2-15.5 7.1-19.2 5.7-3.7 5.3-9 13.4-15.6 24.5 12-2.7 27-12.9 45.2-30.7 4-5.6 31-25.2 80.7-58.8l-1.3-4z" class="fil6" style="fill:#642800"/><path id="_134540240" d="M301.7 246.8a4904.6 4904.6 0 0 0-61.7 52.7c-10.4 7-19.8 9.5-28 7.3a3074 3074 0 0 0-17.8 23.3c11.4 2.6 25.8-4.8 43.3-22a1043 1043 0 0 1 66.5-58l-2.3-3.3z" class="fil6" style="fill:#642800"/><path id="_134539520" d="M271.7 284a789 789 0 0 0-53.7 47.5c-3 2.6-10.2 7.1-21.6 13.7-8.9 7.8-11.3 13.7-7.3 17.9 4.8 2.7 13-4.2 24.8-20.7 18.8-20 37.6-37 56.5-51 .2-2 .6-4.6 1.3-7.5z" class="fil6" style="fill:#642800"/><path id="_134538848" d="M212.4 355.5a512 512 0 0 1 32.6-31.2 82 82 0 0 0-.2 5.3 285.8 285.8 0 0 0-27.1 25.1c-1.3 0-3 .3-5.3.8z" class="fil6" style="fill:#642800"/><path id="_134538176" d="M232 211.1c31.8-57 55.1-95.1 69.8-114.3-1.3-.5-2.9-.9-4.7-1.2-14 17.6-36.9 55-69 112.3 2 2.8 3.3 4 3.9 3.2z" class="fil6" style="fill:#642800"/><path id="_134537504" d="M226.3 202.6c12.9-25 24.8-46.2 35.8-63.5h-4.8a487.3 487.3 0 0 0-35.3 59c2 3 3.4 4.5 4.3 4.5z" class="fil6" style="fill:#642800"/><path id="_134536832" d="M234.8 244c9.5-18.2 26.1-38.9 49.9-61.8l3.1 3.3a644 644 0 0 0-50.2 59.3l-2.8-.8z" class="fil6" style="fill:#642800"/><path id="_134536448" d="m198.5 197.8-6.7 1.9a964.8 964.8 0 0 0-51 117.6c-3.9 8-2.7 14 3.3 18 7.4 1.7 14.5-3.3 21.3-15 6.7-17 27.9-50.1 63.5-99.3l-1.8-6.7a709.5 709.5 0 0 0-58 88.2 58 58 0 0 1 8.4-26.8 391.5 391.5 0 0 1 45.2-78.7c.2-1.8-1-3.4-3.5-5a554.3 554.3 0 0 0-54.3 97.7 72.7 72.7 0 0 0-10.7 9.9c1.5-11.5 16.2-45.4 44.3-101.8z" class="fil6" style="fill:#642800"/><path id="_134535928" d="m45.5 537.4-3.7 4.4A784 784 0 0 0 71.5 645c1.7 6.8 5.7 10 12 9.5 6-2.5 8.3-9 6.7-19.6-4.5-13.8-5.5-44-7.5-91.8l-4.8-3.3c-.3 21.6-.1 48.6 5.3 82.2-4.2-4.7-7-11.6-8.7-20.7-6.2-19-7.3-41.8-8.8-70-.8-1.3-2.1-2.5-4.7-2.1 1.7 29.1 3.9 58.1 12.3 87a51.9 51.9 0 0 0-2 11.3c-5.3-7.9-14.8-41.5-25.8-90.1z" class="fil6" style="fill:#642800"/><path id="_134535544" d="m154.9 592.4-4 4.2c3 24.9 9.9 58.8 21.3 100.2 1.2 7 5 10.4 11.4 10.4 6.1-2 8.8-8.4 8-19-3.6-14.2-2.5-44.4-1.2-92.2l-4.6-3.7a458.4 458.4 0 0 0-.4 82.4 42 42 0 0 1-7.2-21.2c-4.9-19.3-4.4-42.2-3.9-70.5-.7-1.3-2-2.6-4.6-2.4-.2 29.2-.1 58.3 6.3 87.6-1.5 4-2.4 7.7-2.9 11.1-4.6-8.2-10.6-37.6-18.2-86.9z" class="fil6" style="fill:#642800"/><path id="_134534824" d="M131 314.5c16.1-44.3 31-81 44.5-110.3l-7.3 2c-10.3 23.6-27 65.3-49.8 125.2-3.5 14.2-1.5 22.2 5.9 23.9 7.4 1.2 10.8-4 10.3-15.8-3.3-14.7-4.5-23-3.5-25z" class="fil6" style="fill:#642800"/><path id="_134534104" d="M63 655.8a1268.8 1268.8 0 0 1-31.6-103.6l-4 4.8c5.6 19.7 19.3 67.2 36 115.4 5.2 10.6 10.9 14.6 16.9 12 5.8-2.8 5.3-7.7-1.4-14.8-10.3-7.5-15.6-12.1-16-13.8Z" class="fil6" style="fill:#642800"/><path id="_134533384" d="M163 699a945.7 945.7 0 0 1-21.8-87l-4.3 4.5c4.2 20 12.2 49.8 25.4 99.2 4.6 10.8 10 15.2 16.1 13.2 6-2.5 5.9-7.5-.4-15-9.7-8.2-14.7-13.1-15-14.8z" class="fil6" style="fill:#642800"/><path id="_134532632" d="M146.4 364c9.9-.6 19-11.8 27.1-33.6a596 596 0 0 1 61.3-86.4 229 229 0 0 0-1.6-6.2c-23.5 26.5-44 56-61.6 88.5a62 62 0 0 1-17.2 12.6c-4.4 2.4-26 23.8-8 25z" class="fil6" style="fill:#642800"/><path id="_134531880" d="M100.5 682c6.5-5.1 6.8-16.5.6-34a511 511 0 0 1-1-95.2l-4.5-3.1c-1.9 27.9-3.5 68 2 96.7-1 6.6-2.7 12-5.1 16.2-1.7 3.6-5.2 27.4 8 19.4z" class="fil6" style="fill:#642800"/><path id="_134531128" d="M198.5 735.8c7-4.7 7.9-16 3-33.8a511 511 0 0 1 5.7-95l-4.3-3.5c-3.9 27.7-8.3 67.6-4.9 96.6a44.6 44.6 0 0 1-6.1 15.8c-2 3.4-7 27 6.6 20z" class="fil6" style="fill:#642800"/><path id="_134530744" d="M152.1 210.7c-27.8 84-40.6 130.4-38.6 139 1.3 6.2 3.2 11 5.8 14.7 5.4 11 5.2 18.8-.4 23.2-5.9 3-11-2-15-14.7-2-7.3 1-24.8 9.1-52.7 7-28 17.6-63.9 32-107.6 4-1 6.3-1.7 7.1-2z" class="fil6" style="fill:#642800"/><path id="_134529976" d="M15.9 567.2c25 66.2 46.8 117.6 52.8 122 4.1 3.3 8.1 5.5 11.9 6.6 9.6 4.4 13.6 9.4 12 14.8-2.6 4.6-8.7 4-18.4-2.2-5.2-3.6-12.4-16.1-21.5-37.6a1663 1663 0 0 1-40.8-99l4-4.6z" class="fil6" style="fill:#642800"/><path id="_134528704" d="M120.4 600.3c20.5 67.8 40 129.6 45.8 134.5 3.9 3.6 7.7 6 11.4 7.3 9.2 5.2 12.9 10.4 11 15.6-3 4.5-9 3.4-18.3-3.4-5-4-11.2-17-18.8-39-8.6-21.6-24.7-75.5-35.3-110.7l4.2-4.3z" class="fil6" style="fill:#642800"/><path id="_134527952" d="M238.8 256.7c-17.7 16.5-43.3 51.3-77 104.6a64.9 64.9 0 0 1-20.5 11.8c-12 7.4-16.5 14.3-13.4 20.6 4 4.7 10.6 2.5 19.7-6.5a62.3 62.3 0 0 0 15-19.5c18.8-31.8 44.5-67 77-105.5 0-2.9-.3-4.7-.8-5.5z" class="fil6" style="fill:#642800"/><path id="_134527200" d="M110.3 574.9c-2.3 18.8-2.2 51.7 1.5 101.1a48 48 0 0 1-7.9 17.3c-4.4 10.5-3.7 16.9 1.9 19.3 5.3 1 8.7-3.6 10.1-13.6a44.2 44.2 0 0 0-.3-19.4c-.7-28.4-2.8-61.9-1.7-101.6a11.3 11.3 0 0 0-3.6-3.1z" class="fil6" style="fill:#642800"/><path id="_134526480" d="M194.2 330c-6.2 8.4-20.5 28.2-42.9 59.4a74.4 74.4 0 0 1-24.2 18.3c-10.7 6.2-14.6 12.8-11.7 19.6 6.2 5.3 14.7.2 25.8-15.1 31-45 50-71.6 56.9-80 1.3.8 0 0-4-2.1z" class="fil6" style="fill:#642800"/><path id="_134525760" d="M118.5 667c.6 20.5 3.4 37.8-5.9 57.3-4 9.1-3.2 15 2.5 17.8 7.2.4 10.4-7 9.7-21.8-2.8-43-1.6-44.9-1.4-53.4 1.3-.2-1-.4-4.9 0z" class="fil6" style="fill:#642800"/><path id="_134525008" d="M114.7 280.7a938 938 0 0 0-15 100.5 27 27 0 0 0 5.8 14.5c6.8 13.5 7.4 22.4 1.7 27-7.8 1.9-12.4-3.1-13.6-15a95.6 95.6 0 0 1 1.4-31.3c5-41.5 9.6-72 13.7-91.2a51 51 0 0 1 6-4.5z" class="fil6" style="fill:#642800"/><path id="_134524256" d="M10.8 615.5c19 32.8 49 80.5 59.5 94.2a24 24 0 0 0 11.8 6.2c12 5 17.3 10.4 15.8 16-4.4 5-10.2 4-17.5-2.8a76.2 76.2 0 0 1-16-20c-19-28.3-47.7-73.9-55.3-87.8a37 37 0 0 1 1.7-5.8z" class="fil6" style="fill:#642800"/><path id="_134523536" d="M79.7 377.9c-1 5.8-.1 26.6 2.6 62.3 1.1 14.8 5.5 22 13.1 21.9 5.4-5.3 6.1-12.7 2.1-22.4-2.3-5-6-11.9-11-20.8-.8-7.4-1.7-22.2-2.7-44.3a8.5 8.5 0 0 0-4.1 3.3z" class="fil6" style="fill:#642800"/><path id="_134522816" d="M25.7 682.8c2.4 4 44.6 47 65.8 67.8 8.8 8.7 15.8 11 21 7.3.9-5.9-2.7-10.9-10.7-15-4.3-2-10.6-4.4-19-7.5-4.5-4.2-43.4-43.4-56-56.7a6.2 6.2 0 0 0-1.1 4z" class="fil6" style="fill:#642800"/><path id="_134522432" d="M183.5 362.8a820.8 820.8 0 0 0-48.1 65C112.2 443 103 455.5 107.7 465c10 6.3 20.6-5 32-33.6a583.7 583.7 0 0 1 45.2-62.5l-1.4-6.2z" class="fil6" style="fill:#642800"/><path id="_134521576" d="M66.8 426.9c-1.2 6.7.7 25.7 5.6 57.1 1.6 15 6.2 22 13.6 20.8 5.8-1.2 6.6-8.1 2.4-21-3-3.4-7-9.9-12-19.4-1.2-2.8-3-17-5.4-42.8l-4.2 5.3z" class="fil6" style="fill:#642800"/><path id="_134520856" d="M126.1 477.6c-10 23.9-18.6 33.6-25.9 29-6.7-4.3-3.5-13.1 9.5-26.4a52 52 0 0 0 17.5-17c10-19.2 27-44.9 50.9-77-1 5.6-2.1 9.9-3.2 13a403.6 403.6 0 0 0-48.8 78.4z" class="fil6" style="fill:#642800"/><path id="_134520472" d="M59 467.8c1.5-2 3-3.3 4.5-3.9 1.8 24 4.3 37.6 7.5 41 11.2 16.4 15.4 28.4 12.4 35.8a84.6 84.6 0 0 1-16.5-9.4c-2.6-4-3.2-11.8-1.9-23.3a239.7 239.7 0 0 1-6-40.2z" class="fil6" style="fill:#642800"/><path id="_134519720" d="M156.5 429.5c-19.4 32.4-32 58.1-38 77.1a103.9 103.9 0 0 1-24.7 24.9c-2.7 1-6.1 4-10.4 9.2a105 105 0 0 1 13.7 11c5 .1 13.5-14.1 25.4-42.7a812.1 812.1 0 0 1 38-78l-4-1.5z" class="fil6" style="fill:#642800"/><path id="_134519048" d="M83.4 540.7c13.9-74.3 32.3-141 55.3-200l4 4.2c-21 50.3-39.6 116.4-55.8 198.3-1.5-1-2.6-2-3.5-2.5z" class="fil6" style="fill:#642800"/><path id="_134518160" d="m108.8 559.7 4.3 3.4a765.5 765.5 0 0 1 30.9-80c-3-.1-5 0-5.5.3a440.8 440.8 0 0 0-29.7 76.3z" class="fil6" style="fill:#642800"/><path id="_134517776" d="m227.9 357.2-6.5 2.2c-13.3 27.2-19.4 57-35.3 106-3.3 7.8-2 13.4 4.2 17 7.3 1.2 14-4 20-15.3 5.8-16.5 24.7-49 57-97.6l-2.1-6.3a670.7 670.7 0 0 0-52.1 86.7 53.2 53.2 0 0 1 6.8-25.8 368.4 368.4 0 0 1 40-77c.2-1.8-1-3.3-3.6-4.6a521.2 521.2 0 0 0-48 95.5 70 70 0 0 0-10 9.9c.9-11 5-35.7 29.6-90.7z" class="fil6" style="fill:#642800"/><path id="_134517048" d="M176 463.2a1321 1321 0 0 1 32-109l-6.9 2.7c-7.6 23.4-19.6 64.6-35.7 123.5-2 13.8.7 21.2 8 22 7.4.5 10.2-4.9 8.5-16-4.7-13.5-6.7-21.3-6-23.2z" class="fil6" style="fill:#642800"/><path id="_134516664" d="M194 508.7c9.7-1 18-12.1 24.8-33.3a566.6 566.6 0 0 1 55.5-85l-2-6a442.6 442.6 0 0 0-55.6 87.2 58.3 58.3 0 0 1-16.2 12.9c-4 2.5-24.1 23.8-6.5 24.2z" class="fil6" style="fill:#642800"/><path id="_134515912" d="M191.1 363.3C169.7 445 160.3 489.8 163 497.9a35.5 35.5 0 0 0 6.7 13.5c6 10.2 6.3 17.5 1.2 22-5.6 3.3-10.9-1-15.7-13-2.5-6.6-.7-23.5 5.3-50.6a1399 1399 0 0 1 23.9-104.2l6.8-2.3z" class="fil6" style="fill:#642800"/><path id="_134515392" d="M281.7 402.6c-16.5 16.5-39.7 51-69.8 103.3a63.6 63.6 0 0 1-19.5 12.2c-11.4 7.6-15.4 14.3-12 20.2 4.1 4.2 10.4 1.9 19-7.1a59.2 59.2 0 0 0 13.4-19.3 760 760 0 0 1 69.9-104c-.2-2.9-.5-4.6-1-5.3z" class="fil6" style="fill:#642800"/><path id="_134515008" d="M241.8 474.5 203 533.1a72.2 72.2 0 0 1-22.7 18.6c-10.2 6.4-13.6 12.8-10.4 19.1 6.3 4.8 14.4-.4 24.4-15.6a1809 1809 0 0 1 51.5-78.8l-4-1.9z" class="fil6" style="fill:#642800"/><path id="_134514624" d="M161.7 431.5a861 861 0 0 0-9.5 96.3c.4 4.4 2.5 8.9 6.4 13.5 7.4 12.5 8.4 21 3 25.6-7.5 2.2-12.2-2.4-14-13.6a88.5 88.5 0 0 1-.3-29.8 1077 1077 0 0 1 8.7-87.4c1.7-1.6 3.6-3.1 5.7-4.6z" class="fil6" style="fill:#642800"/><path id="_134513952" d="M119.7 567.3c5.7-11.8 11.2-23.5 16.4-35.2-2.3-.4-3.9-1-4.7-2-4.5 9.8-9.7 22-15.7 36.7l4 .5z" class="fil6" style="fill:#642800"/><path id="_134513568" d="M194.3 564.5c9.1-15.4 21-32.7 35.4-52.2-3.7 10.9-6 17.2-6.7 19a209.7 209.7 0 0 0-24.9 40.6c-3 8.8-5.9 15.4-8.7 19.6-5.5-3.5-9.7-6.5-12.8-8.9 4.1-3 10-9 17.7-18.1z" class="fil6" style="fill:#642800"/><path id="_134504416" d="M193.7 595.3a295 295 0 0 1 24.1-43.8l-1.5 12c-7.3 13-13.7 25-19 36l-3.6-4.2z" class="fil6" style="fill:#642800"/><path id="_134504032" d="M185.6 486.2c1 .3 2.5 1.3 4.6 2.8a489.4 489.4 0 0 0-21 90.4l-4.2-1a512 512 0 0 1 20.6-92.2z" class="fil6" style="fill:#642800"/><path id="_134503648" d="M142 503.9c-1 39.4.6 62.3 5 68.7a43.2 43.2 0 0 0 10.5 15.2c-3.6 6-8 11.4-13.2 16.4-6.4-21.3-8.4-56-6.2-103.8 1.8 1.9 3.1 3 4 3.5z" class="fil6" style="fill:#642800"/><path id="_134502976" d="M124.8 565.8c1.5 15.7 4.6 32.2 9.2 49.5l3.7-3.8a366.2 366.2 0 0 1-8.8-50.7 18 18 0 0 0-4.1 5z" class="fil6" style="fill:#642800"/><path id="_134502344" d="M196 734c-7.2-1.6-6-10.9 3.6-27.8 4.2 17.9 3 27.2-3.5 27.8z" class="fil7" style="fill:#321400"/><path id="_134501576" d="M107.4 709.7c-6.3-1.8-4.7-10 4.8-24.3 2.7 16 1.1 24.2-4.8 24.3z" class="fil7" style="fill:#321400"/><path id="_134500944" d="M116.2 739.6c-6.3-1.9-4.7-10 4.9-24.4 2.6 16.1 1 24.3-4.9 24.4z" class="fil7" style="fill:#321400"/><path id="_134500312" d="M97.7 680.3c-6.7-1.2-6-9.7 2.3-25.5 4.4 16.2 3.7 24.7-2.3 25.5z" class="fil7" style="fill:#321400"/><path id="_134499680" d="M178.2 727c5.7-4.8.3-12.4-16.1-23 4.6 18 10 25.6 16.1 23z" class="fil7" style="fill:#321400"/><path id="_134499048" d="M88.5 710c3.5-5.9-3.3-11-20.3-15.3 9 14 15.7 19.1 20.3 15.2z" class="fil7" style="fill:#321400"/><path id="_134498416" d="M93.8 731.5c3.4-5.5-3.1-10.4-19.5-14.6 8.6 13.5 15 18.4 19.5 14.6z" class="fil7" style="fill:#321400"/><path id="_134497784" d="M79.6 682c5.3-4.5-.2-11.2-16.3-20 5 15.8 10.5 22.5 16.3 20z" class="fil7" style="fill:#321400"/><path id="_134497152" d="M76.7 536.4c7-3.3 3.7-12.4-10-27.2 0 19 3.2 28.1 10 27.2z" class="fil7" style="fill:#321400"/><path id="_134496520" d="M91.7 545.6c6 4.8 12.6-2.1 20-20.9-17.2 8.2-23.8 15.2-20 21z" class="fil7" style="fill:#321400"/><path id="_134495888" d="M101.2 503.5c6.3 4.4 12.5-3 18.5-22.2-16.5 9.3-22.7 16.8-18.5 22.2z" class="fil7" style="fill:#321400"/><path id="_134495120" d="M112.2 461.2c6.4 4.2 12.5-3.3 18.1-22.6-16.3 9.7-22.3 17.2-18 22.6z" class="fil7" style="fill:#321400"/><path id="_134494488" d="M118.1 423.8c5.2 5.7 12.9-.2 23-17.5-18.2 5.4-25.8 11.2-23 17.5z" class="fil7" style="fill:#321400"/><path id="_134493856" d="M130.6 390.6c5 5.8 12.9 0 23.3-17.1-18.3 5-26 10.8-23.3 17.1z" class="fil7" style="fill:#321400"/><path id="_134493224" d="M159 564.7c7-3.2 4-12.3-9.4-27.3-.5 19 2.7 28 9.5 27.3z" class="fil7" style="fill:#321400"/><path id="_134492592" d="M167.6 530.6c7-3 4-12.2-9-27.5-.8 19 2.2 28.1 9 27.5z" class="fil7" style="fill:#321400"/><path id="_134491960" d="M174.5 498.4c7.5-1.5 6.5-11.1-3.1-28.8-4.8 18.4-3.7 28 3 28.8z" class="fil7" style="fill:#321400"/><path id="_134491328" d="M192.2 475.6c9.5 4.1 14.3-4.8 14.4-26.7-16.9 12.2-21.7 21-14.4 26.7z" class="fil7" style="fill:#321400"/><path id="_134490696" d="M191.8 504.6c6.4 3.8 12.6-2.6 18.6-19.3-16.6 8.1-22.9 14.5-18.6 19.3z" class="fil7" style="fill:#321400"/><path id="_134490064" d="M183.8 534.6c6 4.4 12.9-1.3 20.6-17.2-17.4 6.3-24.3 12-20.6 17.2z" class="fil7" style="fill:#321400"/><path id="_134489432" d="M172.5 567c5.9 4.5 12.9-1 20.9-16.9-17.6 6-24.5 11.6-21 16.9z" class="fil7" style="fill:#321400"/><path id="_134488664" d="M85 502.4c7.1-3 4.3-12.2-8.6-27.7-1.1 19 1.8 28.2 8.6 27.7z" class="fil7" style="fill:#321400"/><path id="_134488024" d="M92.8 457.9c7.3-2.4 5.1-11.8-6.6-28.2-2.4 18.8-.2 28.2 6.6 28.2z" class="fil7" style="fill:#321400"/><path id="_134487392" d="M104.7 420.3c7.3-2.5 5.1-11.9-6.6-28.2-2.4 18.8-.2 28.2 6.6 28.2z" class="fil7" style="fill:#321400"/><path id="_134486760" d="M115.9 384c7.3-2.4 5.3-11.8-6.1-28.4-2.8 18.8-.8 28.3 6.1 28.3z" class="fil7" style="fill:#321400"/><path id="_134486376" d="M125.3 351.3c7.6-.5 8-10.1.9-29-7.3 17.6-7.6 27.3-1 29z" class="fil7" style="fill:#321400"/><path id="_134485992" d="M238.7 222c8.2 2.5 12.3-7.6 12-30.2-14.4 15.8-18.4 25.9-12 30.3z" class="fil7" style="fill:#321400"/><path id="_134485608" d="M267 189c8.1 3 12.8-6.8 14.2-29.4-15.5 14.7-20.2 24.5-14.2 29.4z" class="fil7" style="fill:#321400"/><path id="_134485224" d="M278.6 205.5c4.3 6.2 12.5 1.6 24.8-13.9-18.4 2.8-26.7 7.4-24.8 13.9z" class="fil7" style="fill:#321400"/><path id="_134484840" d="M251.4 230.6c2.8 7.4 12.3 4.8 28.7-7.9-19.4-1.8-29 .8-28.7 7.9z" class="fil7" style="fill:#321400"/><path id="_134484456" d="M290.8 178.3c8 7 17.5-2.4 28.5-27.8-24 10.5-33.4 19.7-28.5 27.8z" class="fil7" style="fill:#321400"/><path id="_134483936" d="M146 330.3c9.2 4.2 15.6-6.9 19-33.4-19.4 16-25.8 27.2-19 33.4z" class="fil7" style="fill:#321400"/><path id="_134483552" d="M145.5 359.6c6.3 5.3 13-2.7 20.3-24-17.5 9.6-24.3 17.6-20.3 24z" class="fil7" style="fill:#321400"/><path id="_134483168" d="M184 702.7c-9.2.9-11.3-10.4-6.5-34 11.8 19.4 14 30.7 6.5 34z" class="fil7" style="fill:#321400"/><path id="_134482784" d="M84 651.7c-9 1.4-11.8-9.8-8.2-33.6 12.8 18.8 15.5 30 8.2 33.6z" class="fil7" style="fill:#321400"/><path id="_134482424" d="M154.9 592.4c-1.3-3.9-5.1-8.3-11.4-13.2-.6 9.2.8 16.4 4.2 21.5l7.2-8.3z" class="fil7" style="fill:#321400"/><path id="_134482064" d="M186.6 589.7c2.8-2.3 4.7-8.4 6.5-16-6.3 3-10 6.8-14.2 10.7 2.4 1.5 4.9 3.6 7.7 5.3z" class="fil7" style="fill:#321400"/><path id="_134481424" d="M238 253.4c6.7-2.1 14-3.2 21.8-3.2a33 33 0 0 1-19.7 11l-2.1-7.8z" class="fil7" style="fill:#321400"/><path id="_134480784" d="M231.2 280.8c5-1.8 9.7-2.4 14-2-3.2 4.8-10.3 9.3-21.3 13.5 4-6.5 6.5-10.4 7.3-11.5z" class="fil7" style="fill:#321400"/><path id="_134480400" d="M206 314.8c6.9-2.6 12.4-3.1 16.6-1.6-4.9 6.4-13.4 10.8-25.7 13.3l9-11.7z" class="fil7" style="fill:#321400"/><path id="_134480016" d="M192.5 360.1c3.4 1.7 7.4-3 12-14-11.5 5-15.5 9.6-12 14z" class="fil7" style="fill:#321400"/></g><path id="_134478896" d="M380.6 373.6c.8 1.3 1.6 6.4 2 13.2 10 13.8 108.8 17.5 131.4 1 .5-3.9.8-8.6 1.7-14-44.5.4-89.7-.1-135-.2z" class="fil1" style="fill:#fcd116;fill-opacity:1;fill-rule:evenodd"/><path id="_134476576" d="M416.8 400.6c-18.4 0-28.1-1.5-31.1-5.4-1.8-1.7-3.1-5.6-3.4-11.6 9 6.9 14.4 6.8 30.7 6.9 23.5 0 55.2 1 77 0 13.5-.5 23-4 24.5-6.9a37 37 0 0 1-4 13.3c-3.5 3.4-8.1 4.5-22.3 3.9-23.9.7-47.6-.6-71.4-.2z" class="fil2" style="fill:#ce1126;fill-opacity:1;fill-rule:evenodd"/><path id="path4636" d="M503 355.6c-6.8-1-13.5 0-20.2 2.5-4.1-3.1-9-1.3-13.7.8-6.7 2.5-13 2-19.6 3-5.8-.2-10.8 1.9-16.1 3-3.7-2.9-10.2.6-15.4 1.2-4.8 1.6-10.1 1.4-15.5 1.5v6.7l96.8-3.7 4-14.7z" style="fill:#77d1ff;fill-opacity:1;fill-rule:evenodd;stroke:none"/><path id="path4638" d="M498.5 361.3c-21.8-5.4-38.7 6.3-61.4 9 19.6-2.3 37.6-7 59-6.8z" style="fill:#0093dd;fill-opacity:1;fill-rule:evenodd;stroke:none"/><path id="path4640" d="M427.7 366.7c7.8.5 15.7 1.6 22.6-3.2a35 35 0 0 0-11.8 1.7c-2.8.7-7.1 1-10.8 1.5z" style="fill:#0093dd;fill-opacity:1;fill-rule:evenodd;stroke:none"/><path id="_134478512" d="M404.5 371.2c4.3-4.1-3.6-8-4-10-15.7-.4-23 .2-22.6 2 3.2 6.9 12.1 9.5 26.6 8z" class="fil12" style="fill:#550000;fill-rule:evenodd"/><path id="_134478128" d="M493.8 371.2c-4-4.1 3.5-8 3.9-10 15-.4 22 .2 21.7 2-3.2 6.9-11.7 9.5-25.6 8z" class="fil12" style="fill:#550000;fill-rule:evenodd"/><path id="_134477352" d="M482 381.2c19.7-.6 30.3-2.2 33.6-5.8.6-2 1.7-6.2 3.7-12.7-9.6 7.5-15.7 7.4-33.2 7.5-25.3 0-59.2 1-82.6 0-14.5-.6-24.7-4.4-26.2-7.5l4 13c3 2.4 11 4.1 24 5 25.7.8 51.2.1 76.7.5z" class="fil13" style="fill:#002b7f;fill-opacity:1;fill-rule:evenodd"/><g id="g348" style="fill-rule:evenodd" transform="matrix(.22837 0 0 .2293 331.8 172)"><path id="_134475904" d="M746 771.2a185.1 185.1 0 0 1-18 41.3c97.3 10 168.7 10 214.4.2 9.4-23.2 18.6-41 27.3-53.1-123.3-15.7-197.9-11.9-223.8 11.6z" class="fil1" style="fill:#fcd116;fill-opacity:1"/><path id="_134475128" d="M971.8 713.5c-9.6 16-21.4 23.7-35.3 23a1975 1975 0 0 1-118.7-3.9c-31-.3-50.5 3.7-58.8 12.2a49.8 49.8 0 0 0-14 29.6c9.8-8 25.5-11.1 46-9.6 13.2-.5 43.1 1.8 89.8 6.7 45.4 4 74.1 1.3 86.2-8.2 12.4-16 14-32.5 4.8-49.8z" class="fil13" style="fill:#002b7f;fill-opacity:1"/><path id="_134474352" d="M945.5 805.2c-4.1 3.2-18.7 5-43.6 5.2-27.4.6-50.5-.5-69.3-3.3-47-5.1-81.4-4.1-103.3 3-4 7.5-11.3 21-15 28.2 58-13.2 110.8 2.8 172.3 4.5 10.7-.4 22.4-2.2 35-5.4 11-8.4 19-19 23.9-32.2z" class="fil2" style="fill:#ce1126;fill-opacity:1"/></g><path id="_134473760" d="M396.3 349a44 44 0 0 0 4 9.4c-21.6 2.3-37.5 2.4-47.6.1a61.7 61.7 0 0 0-6-12.2c27.3-3.6 43.9-2.8 49.6 2.6z" class="fil1" style="fill:#fcd116;fill-opacity:1;fill-rule:evenodd"/><path id="_134473376" d="M346.2 335.7c2.2 3.7 4.8 5.4 7.9 5.3 7.4 0 16.2-.3 26.3-1 6.9 0 11.3 1 13 2.9 2 2.1 3 4.4 3.2 6.8-2.2-1.9-5.7-2.6-10.2-2.2-3-.1-9.6.4-20 1.5-10 1-16.4.3-19.1-1.9a10 10 0 0 1-1-11.4z" class="fil13" style="fill:#002b7f;fill-opacity:1;fill-rule:evenodd"/><path id="_134472856" d="M352 356.8a90.4 90.4 0 0 0 25 .4 56 56 0 0 1 23 .7l3.4 6.5c-12.8-3-24.6.6-38.2 1-2.4 0-5-.5-7.8-1.2-2.5-2-4.2-4.4-5.3-7.4z" class="fil2" style="fill:#ce1126;fill-opacity:1;fill-rule:evenodd"/><path id="_134465232" d="m512.2 352.8 1.5-3.6c.4 0 .5-.1.7.3l-1.2 3.2c-.3.4-1 1-1 .1z" class="fil1" style="fill:#fcd116;fill-opacity:1;fill-rule:evenodd"/><path id="_138332128_0" d="M412.7 336.6v-.4c1.2-1 3.4-2.5 4.6-.5-1 .7-3.4.8-4.6.9z" class="fil3" style="fill:#dededd;fill-rule:evenodd"/><path id="_138331464_1" d="M411 336c0-.6-.1-2.5.4-2.9 2.1.7 2.1.7 2.4 1v.3c-.9.6-1.7 1.3-2.8 1.6z" class="fil3" style="fill:#dededd;fill-rule:evenodd"/><path id="_138330800_2" d="M420.9 335v-3c1 .4.7 1 1.5 1.6l.1.6a5 5 0 0 1-1.6.9z" class="fil3" style="fill:#dededd;fill-rule:evenodd"/><path id="_138329312_3" d="M419 333v1.7c-.2 0-.4.2-.5.3-.6-.2-1.8-.9-2.4-.9.2-.7 2.2-2 2.9-2v.9z" class="fil3" style="fill:#dededd;fill-rule:evenodd"/><path id="_138341608_4" d="M414.9 333.6c-.1-.2-.7-.3-2-.8v-.4c1-.1 3.5-.8 4.3-.4-.2.5-1.9 1.6-2.3 1.6z" class="fil3" style="fill:#dededd;fill-rule:evenodd"/><path id="_138305448" d="m422.1 332-.2-.2v-.3h.6v.4h-.4z" class="fil3" style="fill:#dededd;fill-rule:evenodd"/><path id="_138301944" d="M413.1 331.2c.3-.7 1.6-1.4 2.3-1.9l2.3 1v.4l-4.6.5z" class="fil3" style="fill:#dededd;fill-rule:evenodd"/><path id="_138301280" d="M411.6 331.1c-.2-.7.1-2.3.2-3 1.1 0 1.4 0 2.5.5v.5l-2.7 2z" class="fil3" style="fill:#dededd;fill-rule:evenodd"/><path id="_138296560_5" d="M422 330.6c-.4 0-.8 0-1-.3v-.4c.4-.4.8-.7 1.4-.7l.7.8-.4.5-.7.1z" class="fil3" style="fill:#dededd;fill-rule:evenodd"/><path id="_138292448" d="M418.7 329.7c-.1-.1-1.6-.6-2.2-1v-.3c.5-.5 1.7-1.6 2.4-1.5l.2 2.8h-.4z" class="fil3" style="fill:#dededd;fill-rule:evenodd"/><path id="_138291624_6" d="M420.6 329.4v-1.9h.3c.4.3 1 .6 1 1-.5.5-.7.8-1.3.9z" class="fil3" style="fill:#dededd;fill-rule:evenodd"/><path id="_138290960_7" d="M423 329.2c-.6-1.1 0-1 1-1.8.6 0 .6.5.6 1l-1 .1c-.1.4-.1.6-.6.7z" class="fil3" style="fill:#dededd;fill-rule:evenodd"/><path id="_138288368" d="M415 328.2c-.5-.4-1.2-.5-1.7-1 .7-.3 3.2-1 4-.5a4 4 0 0 1-2.3 1.5z" class="fil3" style="fill:#dededd;fill-rule:evenodd"/><path id="_138287544_8" d="M422.2 328a161.8 161.8 0 0 0-1.1-1.7c.9 0 1.7.4 2.6.5v.3c-.6.4-.9.6-1.5.8z" class="fil3" style="fill:#dededd;fill-rule:evenodd"/><path id="_138282256" d="M413.2 326c.2-.8 1.5-1.5 2-2 .7.2 2 .4 2.6.9v.2c-3.2.7-3.2.7-4.6.8z" class="fil3" style="fill:#dededd;fill-rule:evenodd"/><path id="_138280824" d="m422.7 325.6-1.3-.4v-.4l.6-.4c.6 0 1 .4 1 1l-.3.2z" class="fil3" style="fill:#dededd;fill-rule:evenodd"/><path id="_138278864" d="m412 325.2.2-2c.7-.2 1.3.2 2 .4-.3.6-1.4 1.6-2.1 1.6z" class="fil3" style="fill:#dededd;fill-rule:evenodd"/><path id="_138275672" d="M424.2 324.7c-.1.5-.1.5-.3.5-.5-.4-1-.8-1-1.5 1.3-.5 1.1-.6 1.3 1z" class="fil3" style="fill:#dededd;fill-rule:evenodd"/><path id="_138273528" d="M420.6 324.6v-1.1c.4-.2.7-.1 1.2 0-.2.5-.6.9-1.2 1z" class="fil3" style="fill:#dededd;fill-rule:evenodd"/><path id="_138269792" d="m418.2 324.3-.3-.3v-.3l.7.1v.4h-.4z" class="fil3" style="fill:#dededd;fill-rule:evenodd"/><path id="_138266240" d="M422.3 323.5v-.4h.4v.3h-.4z" class="fil3" style="fill:#dededd;fill-rule:evenodd"/><path id="_138262848" d="M411 320.8v-2c.8 0 1 1 1.9 1l.4.3v.3l-2.3.4z" class="fil3" style="fill:#dededd;fill-rule:evenodd"/><path id="_138262184" d="m425 321-.3-.7c.3-.4.5-.8 1-.8v1.6h-.8z" class="fil3" style="fill:#dededd;fill-rule:evenodd"/><path id="_138255280" d="M422.6 320c-.5-.3-.9-.3-1.3-.7v-1.2h.4c.3.5 1.3 1.2 1.3 1.9h-.4z" class="fil3" style="fill:#dededd;fill-rule:evenodd"/><path id="_138253800" d="M415.8 319.7c.2-.8 1.1-1.2 1.7-1.6h.2c.2 1.7-.5 1.5-1.9 1.6z" class="fil3" style="fill:#dededd;fill-rule:evenodd"/><path id="_138252400" d="m424.5 318.6.2.1v.5c-1 1-.8.8-1.9-.2l-.4-.7.1-.2 2 .5z" class="fil3" style="fill:#dededd;fill-rule:evenodd"/><path id="_138251712" d="m413.4 319.5-1-.7v-.2c1.3-.2 2.5-.7 3.9-.8-.3.7-1.3 1.2-1.9 1.7h-1z" class="fil3" style="fill:#dededd;fill-rule:evenodd"/><path id="_138245672" d="M414 316.1c.3-.7 1.6-2 2.2-2 1.5.8 1.5.8 1.6 1-.8.9-2.7.8-3.8 1z" class="fil3" style="fill:#dededd;fill-rule:evenodd"/><path id="_138243656" d="m422.3 316-1.5-.7v-.4l1-.6c.4.6.7 1 .8 1.7h-.3z" class="fil3" style="fill:#dededd;fill-rule:evenodd"/><path id="_138242256" d="m413.4 315.2.1-2.6 1.7.7c0 .8-1.1 1.5-1.8 1.9z" class="fil3" style="fill:#dededd;fill-rule:evenodd"/><path id="_138241568" d="m423 315.1-.8-1.3c.2-.4.2-.4.6-.7h.3c.2.2.2.2.3 2a3 3 0 0 0-.4 0z" class="fil3" style="fill:#dededd;fill-rule:evenodd"/><path id="_138239608" d="M418.2 314.4c-.1-.2-.3-.2-1.3-.8 0-.6.8-1 1.2-1.4l.3.1v2h-.2z" class="fil3" style="fill:#dededd;fill-rule:evenodd"/><path id="_138238944" d="M420.4 314.7c-.3-.8-.2-1.7-.1-2.5h.2l1 1.4c-.4.7-.5.7-1.1 1z" class="fil3" style="fill:#dededd;fill-rule:evenodd"/><path id="_138231312" d="m416.8 311.6.2.3-.1.2c-.8.7-1 .8-2 .2v-.2l1.9-.5z" class="fil3" style="fill:#dededd;fill-rule:evenodd"/><path id="_138230648" d="M421.8 313c-.3-.3-.6-.7-.6-1.2.5.1.8.2 1.2.5v.4c-.3.2-.3.3-.6.3z" class="fil3" style="fill:#dededd;fill-rule:evenodd"/><path id="_138219088" d="m415 310.4-.1-.3c.8-1 1.5-2 2.5-.7v.5l-2.4.5z" class="fil3" style="fill:#dededd;fill-rule:evenodd"/><path id="_138218400" d="M421.3 310.5a71 71 0 0 0-.6-.5v-.4l.4-.2c.3.4.5.5.5 1h-.3z" class="fil3" style="fill:#dededd;fill-rule:evenodd"/><path id="_138217792" d="M422.5 310.4c-.7-.8-1.5-1.8-.4-2.5.7.3.9 2.2.4 2.5z" class="fil3" style="fill:#dededd;fill-rule:evenodd"/><path id="_138215096" d="m414 309.5.1-2.3c.5 0 1.2.5 1.6.7-.1.5-1 1.5-1.6 1.6z" class="fil3" style="fill:#dededd;fill-rule:evenodd"/><path id="_138211656" d="M420 309.1v-1.7c.3 0 .5.9.5 1.3l-.6.4z" class="fil3" style="fill:#dededd;fill-rule:evenodd"/><path id="_138210304" d="m418.2 309-1-.7v-.4c.4-.4.6-.8 1.2-.8v1.8h-.2z" class="fil3" style="fill:#dededd;fill-rule:evenodd"/><path id="_138201120" d="M421.2 307.8c-.3-.5-.7-.7-.6-1.4.5 0 1 .2 1.4.5v.4l-.8.5z" class="fil3" style="fill:#dededd;fill-rule:evenodd"/><path id="_138199800" d="m415.7 307.5-.5-.5c0-.6 1.4-.5 1.9-.5-.2.7-.7.9-1.4 1z" class="fil3" style="fill:#dededd;fill-rule:evenodd"/><path id="_138192904" d="M415.4 305.4h-.3c.2-1.4 1.5-1.5 2.3-.8v.4l-2 .4z" class="fil3" style="fill:#dededd;fill-rule:evenodd"/><path id="_138191504" d="M421 305.3c0-.2-.2-.4-.4-.5v-.3l.4-.2.5.4v.5h-.4z" class="fil3" style="fill:#dededd;fill-rule:evenodd"/><path id="_138191504_9" d="M421 301.3c0-.2.2-.3.4-.5v-.3l-.4-.2-.5.5v.4h.4z" class="fil3" style="fill:#dededd;fill-rule:evenodd"/><path id="_138187952" d="M414.5 304.4v-1.5c.5 0 .6.1 1 .4v.2l-1 .9z" class="fil3" style="fill:#dededd;fill-rule:evenodd"/><path id="_138187264" d="m421.8 304.4-.6-1 .4-.5h.3l.2 1.5h-.3z" class="fil3" style="fill:#dededd;fill-rule:evenodd"/><path id="_138182736" d="m417.8 304-.7-.5v-.4c.3-.4.9-1 1.4-1l-.1 1.1v.2l-.1.6h-.5z" class="fil3" style="fill:#dededd;fill-rule:evenodd"/><path id="_138186360" d="M419.8 304c-.2-.5-.3-1 0-1.3.4.3.4.4.4 1l-.4.2z" class="fil3" style="fill:#dededd;fill-rule:evenodd"/><path id="_138179656" d="m416 302.8-.7-.5v-.3l2.1-.5v.4l-1.5 1z" class="fil3" style="fill:#dededd;fill-rule:evenodd"/><path id="_138179656_10" d="M416.6 298.4a87.3 87.3 0 0 0-.5-.6l1.7-.4v.3c-.5.2-.8.6-1.2.7z" class="fil3" style="fill:#dededd;fill-rule:evenodd"/><path id="_138179656_11" d="M420.7 298.8a89 89 0 0 1 .5-.7l-1.7-.4v.3c.5.2.9.6 1.2.8z" class="fil3" style="fill:#dededd;fill-rule:evenodd"/><path id="_138177592" d="m421 302.7-.7-.7v-.2c.5 0 .7 0 1.1.2v.5l-.4.2z" class="fil3" style="fill:#dededd;fill-rule:evenodd"/><path id="_138164832" d="M416 300.6v-.3c.7-.8 1-1 2-.5v.4c-.7.2-1.3.4-2 .4z" class="fil3" style="fill:#dededd;fill-rule:evenodd"/><path id="_138162792" d="M415.3 299.7c-.1-.5-.2-1 .3-1.3l.4.2v.5l-.7.6z" class="fil3" style="fill:#dededd;fill-rule:evenodd"/><path id="_138162792_12" d="M418.6 299.4c0-.5.1-1-.3-1.4l-.4.2v.5l.7.7z" class="fil3" style="fill:#dededd;fill-rule:evenodd"/><path id="_138170248" d="M420 300.1c-.4-.3-.5-.6-.3-1h.7l.4.5-.2.5h-.7z" class="fil3" style="fill:#dededd;fill-rule:evenodd"/><path id="_138169584" d="M421.4 300c0-.5-.2-.6-.1-.8l.2-.1c.2.3.2.5.2 1h-.3z" class="fil3" style="fill:#dededd;fill-rule:evenodd"/><path id="_138140168" d="m421.8 295.3-1.3-.9v-.5c.2-.2.3-.2.7-.3.3.4.8 1 .8 1.6h-.2z" class="fil3" style="fill:#dededd;fill-rule:evenodd"/><path id="_138138816" d="M414.5 295.4c.1-.5.7-1.5 1.2-1.6l1.3.8v.2l-2.5.6z" class="fil3" style="fill:#dededd;fill-rule:evenodd"/><path id="_138134824" d="M414 295.1c-.1-.5-.2-.8 0-1.3l1-.3c0 .4-.8 1.5-1 1.6z" class="fil3" style="fill:#dededd;fill-rule:evenodd"/><path id="_138134056" d="M422.5 295c-.4-.5-.7-1-.8-1.5.7.2 1 .6 1 1.4h-.2z" class="fil3" style="fill:#dededd;fill-rule:evenodd"/><path id="_138132704" d="m417.7 294.2-1.4-.8c.3-.3 1.2-.9 1.6-.5v1.2h-.2z" class="fil3" style="fill:#dededd;fill-rule:evenodd"/><path id="_138132040" d="M420.2 293.6c-.2-.4-.2-1 0-1.4h.2l.4.3c0 .7 0 .8-.6 1.1z" class="fil3" style="fill:#dededd;fill-rule:evenodd"/><path id="_138122096" d="M416.7 291.7c-.2-.5-.2-1-.2-1.4.8-.5 2.1-.9 3-.7v1.3h-1c-.3.4-1.3.8-1.8.8z" class="fil3" style="fill:#dededd;fill-rule:evenodd"/><path id="_134020920" d="M411.2 333.3c.6.7 1.2 1.2 2 1.6-1 .7-1.8 1-2.3 1.1 0-1.6.1-2.5.3-2.7z" class="fil5" style="fill:#1e9600;fill-rule:evenodd"/><path id="_134278664" d="m413.8 335.4.8.2c-.6.5-1.3.8-1.9 1v-.4c.2-.3.6-.6 1.1-.8z" class="fil5" style="fill:#1e9600;fill-rule:evenodd"/><path id="_132341624" d="m412.8 338 1.4.8-1.5-.4v-.5z" class="fil5" style="fill:#1e9600;fill-rule:evenodd"/><g id="flowRoot4967" aria-label="REPUBLICA" style="font-style:normal;font-variant:normal;font-weight:400;font-stretch:normal;font-size:40px;line-height:1.25;font-family:'';-inkscape-font-specification:'';letter-spacing:0;word-spacing:0;fill:#642800;fill-opacity:1;fill-rule:evenodd;stroke:none" transform="matrix(.26102 -.01242 .08588 .21345 268 185.1)"><path id="path5142" d="m67 806.5 4.9.8-.2-12.3 1.4.2h1.1l3.5 13 4.9.7-4.2-14.2 1.2-.6q.6-.5 1-1.3.5-.8.8-2 .3-1.3.3-3.1-.1-4.8-2.2-7.2-2-2.3-6-3l-6.7-1zm4.7-15.8-.1-9.2 1.7.3q2 .3 2.7 1.4.8 1 .9 3.7 0 1.4-.2 2.2-.2.9-.6 1.4-.4.4-1 .5h-1.7z" style="font-style:normal;font-variant:normal;font-weight:400;font-stretch:normal;font-family:TradeGothic;-inkscape-font-specification:TradeGothic;fill:#642800;fill-opacity:1"/><path id="path5144" d="m85.9 808.9 13.6.8.3-4.4-8.7-.5.6-8.6 6.4.4.3-4.4-6.3-.3.6-7.5 8.2.4.3-4.4-13-.7z" style="font-style:normal;font-variant:normal;font-weight:400;font-stretch:normal;font-family:TradeGothic;-inkscape-font-specification:TradeGothic;fill:#642800;fill-opacity:1"/><path id="path5146" d="M104.3 809h5l.9-11.8h2.1q2.3 0 4-.5 1.8-.4 3-1.5 1.2-1 1.8-2.6.7-1.6.8-4 .4-4.5-1.7-6.5-2-2-6.6-2h-7.1zm6.2-15.9.6-8.9h2q1.1 0 2 .3.8.2 1.2.7.5.5.6 1.3.2.9 0 2.2 0 1.3-.3 2.1-.2.9-.8 1.4-.5.5-1.4.7-.8.2-2 .2z" style="font-style:normal;font-variant:normal;font-weight:400;font-stretch:normal;font-family:TradeGothic;-inkscape-font-specification:TradeGothic;fill:#642800;fill-opacity:1"/><path id="path5148" d="M125 801.8q-.1 3.8 1.9 5.7 2 1.8 5.5 1.7 3.6 0 5.7-2 2.2-2 2.3-5.8l.8-21.4-5 .2-.8 21.6q-.1 3-2.8 3.2-2.7 0-2.6-3l.9-21.7-5 .1z" style="font-style:normal;font-variant:normal;font-weight:400;font-stretch:normal;font-family:TradeGothic;-inkscape-font-specification:TradeGothic;fill:#642800;fill-opacity:1"/><path id="path5150" d="m145.8 808.2 7.7.2q2.1 0 3.6-.5 1.5-.6 2.4-1.7 1-1.1 1.3-2.7.5-1.5.5-3.3 0-2.8-1-4.5-1-1.6-3-2.5.9-.3 1.5-1 .7-.6 1-1.4.5-.8.7-1.7l.2-1.9q0-3.7-1.8-5.8-1.8-2-5.8-2.1l-7.3-.2zm4.9-4v-9l1.6.1q2.2 0 3.1 1.2 1 1.2 1 3.4t-.9 3.3q-.8 1.1-2.8 1.1zm0-13v-7.8h2q3.1 0 3.1 4.2 0 1.8-1 2.7-.9 1-2.3 1z" style="font-style:normal;font-variant:normal;font-weight:400;font-stretch:normal;font-family:TradeGothic;-inkscape-font-specification:TradeGothic;fill:#642800;fill-opacity:1"/><path id="path5152" d="m165.4 807.8 12.6.6V804l-7.7-.3.1-25-4.8-.2z" style="font-style:normal;font-variant:normal;font-weight:400;font-stretch:normal;font-family:TradeGothic;-inkscape-font-specification:TradeGothic;fill:#642800;fill-opacity:1"/><path id="path5154" d="M182.7 807.8h5v-28.9h-5z" style="font-style:normal;font-variant:normal;font-weight:400;font-stretch:normal;font-family:TradeGothic;-inkscape-font-specification:TradeGothic;fill:#642800;fill-opacity:1"/><path id="path5156" d="M193.3 800.9q0 1.5.4 3 .4 1.4 1.3 2.4 1 1.1 2.4 1.8 1.4.6 3.3.7 1.8.1 3.2-.4 1.3-.5 2.2-1.4 1-1 1.4-2.4.4-1.3.4-2.9v-3.3l-4.8-.3v3.5q0 1.5-.6 2.2-.5.7-1.8.6-1.5 0-2-.9-.6-.8-.6-2.5l.1-14.9q0-1.6.6-2.4.5-.8 2-.7 1 0 1.7 1 .7.8.7 2.7v2.3l4.8.3V787q0-1.6-.4-3.1-.5-1.5-1.3-2.6-.9-1.2-2.3-2-1.4-.7-3.2-.8-1.9 0-3.3.4-1.4.5-2.3 1.5-1 1-1.4 2.3-.5 1.4-.5 3z" style="font-style:normal;font-variant:normal;font-weight:400;font-stretch:normal;font-family:TradeGothic;-inkscape-font-specification:TradeGothic;fill:#642800;fill-opacity:1"/><path id="path5158" d="m210 808.9 4.5 1 1-6.7 5 1.2.7 7 4.5 1-4.2-32-5.8-1.2zm6.3-10.1 2.1-12.8h.1l1.5 13.6z" style="font-style:normal;font-variant:normal;font-weight:400;font-stretch:normal;font-family:TradeGothic;-inkscape-font-specification:TradeGothic;fill:#642800;fill-opacity:1"/></g><path id="path5121" d="M508.6 349h-.2l-1.7.7c-.5.3-.8.7-1.1 1.2-.2.3-.3.6-.2.8l.1.6.4.4.4.4.2.4-.1.6-.5.5-.6.2c-.2 0-.3 0-.4-.2 0-.2 0-.4.2-.7l-1.3.3c-.2.2-.2.4-.2.6v.6l.4.3h.8a4.2 4.2 0 0 0 1.7-.5 3.7 3.7 0 0 0 1.2-1.3l.2-.8c0-.2 0-.4-.2-.6l-.3-.4-.4-.4-.3-.4.1-.5.4-.5.6-.2h.3l.1.3v.3l1.2-.2.1-.6v-.5l-.4-.3h-.5zm4.7.1a3.4 3.4 0 0 0-1.7.5 3 3 0 0 0-1.1 1.1l-1.8 3.1-.2.7.1.4c0 .2.2.3.4.4l.8.1a3.6 3.6 0 0 0 1.8-.5 2.9 2.9 0 0 0 1-1l1.8-3.2.2-.6v-.5c-.1-.1-.3-.3-.5-.3l-.8-.2zm34.9.2h-.7v.1l-.2.2-.3.1h-.2v-.4h-.6l-.1.4v.2l.2.2h.4a1.7 1.7 0 0 0 .9-.2l.3-.2.2-.3v-.1zm-29.9 0a3.3 3.3 0 0 0-2.1 1 3 3 0 0 0-.5.5l-1.9 3.1-.2.6v.5l.5.4.8.1a3.4 3.4 0 0 0 1.7-.4 3 3 0 0 0 1.1-1l.4-.8h-1.3l-.4.7-.4.5a1 1 0 0 1-.6.1c-.3 0-.4 0-.4-.2l.1-.5 1.8-3 .5-.5.6-.2.4.2-.2.6-.3.4h1.3l.3-.4.3-.6v-.5l-.5-.4-.7-.2h-.3zm3.6.3-3.7 6h1.3l3.7-6H522zm3.5.3-4.8 6h1.2l1-1.4h1.4l-.5 1.4h1.2l2-6h-1.5zm3.6.1-3.4 6 3.3.1.5-.9h-2l3-5.1H529zm-16.2 0c.3 0 .4.1.5.2 0 .1 0 .3-.2.5l-1.7 3.1-.4.5a1 1 0 0 1-.7.2c-.2 0-.4 0-.4-.2l.1-.5 1.7-3 .5-.6.6-.1zm20.5.1-3.4 6.1h1.3l3.4-6zm4.4.2c-.5 0-1 0-1.5.3-.5.2-.9.6-1.2 1.1l-.2.8.1.6.4.4.3.5.2.5v.5a1 1 0 0 1-.5.4l-.7.1c-.2 0-.3 0-.4-.2 0-.2 0-.4.2-.7l-1.3.1a2 2 0 0 0-.2.6v.6l.4.4.7.1a4 4 0 0 0 1.7-.3l.7-.5.6-.7c.2-.2.2-.5.2-.7v-.6a2 2 0 0 0-.4-.5l-.4-.5-.2-.4v-.5l.5-.4.6-.2h.2l.1.2v.5h1.2l.2-.6v-.5l-.4-.3-.7-.1h-.2zm9.8 0H546l-4.3 6.4h1.2l.9-1.5h1.4l-.4 1.3h1.2l1.6-6.2zm-3.5.2h-3.8l-.5 1h1.2l-2.8 5.1h1.3l2.8-5.2h1.3l.5-1zm-18.5.6-1 2.6h-1l2-2.6zm20.6.5-.7 2.6-1 .1 1.7-2.7z" style="font-style:normal;font-variant:normal;font-weight:400;font-stretch:normal;font-size:40px;line-height:1.25;font-family:TradeGothic;-inkscape-font-specification:TradeGothic;letter-spacing:0;word-spacing:0;fill:#642800;fill-opacity:1;fill-rule:evenodd;stroke:none"/><path id="path4598" d="m454.6 373.8-3.7 2.6 7-.1-3.3-2.5zm-63 1.1c.6 1.4 1.3 2.7 1.2 3.8l-.7 10.8c0 .6-1 1.5-1.5 1.8l6.7 1c-.6-.9-1-1-.8-2l.4-6 3.4 6.6c.2.3.1.6-1.1 1.6l7.6.5c-3.3-3.2-3.7-5.8-5-8 1.5.3 2.6.2 2.6-1l.3-6c0-1.1-.8-2-2.5-2.3zm111.7.4-11.6 1.2c.5 1 1.4.8 1.4 3.1l-1 10.1c0 1.1-.7 2.3-1.5 3.6l6.6-.7c-.7-.7-1-1.3-1-1.8l.6-2 3.5-.3.5 1.5c0 .8.4.6-.7 2.3l6.2-.7c-.8-.6-.9-1-1-1.3l-2.8-11.8c-.3-1.2.3-2.2.8-3.2zm-92 1.4c-1.7 0-2.4 1-2.3 1.8l-.7 12.8c.1 1.5 1 2 2 2l8.4.4c2.1 0 2.2-1.2 2.4-2.3l.3-12c.2-2.2-1.2-2.3-2.6-2.3zm76.4.2-6.4.3c1 .9 1.3.9 1.3 2.3l.3 12.2c-.3 1.4-.6 1.6-1 2l7-.4c-.5-.6-1.2-1-1.5-2l-.7-12c0-.6.3-1.7 1-2.4zm-62.5.3 1 3-.5 11.2c0 1.3-.9 1.8-1.4 2.5l6.8.2c-.5-.5-1-.8-1.1-1.9l.4-10.8L434 394h.5l4.2-12.9-.1 11.2c-.2.7-.7 1.4-1.4 2l6.5.3c-.5-.6-1-1.2-1-2l.4-13 1-1.6-7-.2-2.5 8.4-1.8-8.6-7.5-.3zm52.9 0-5.9.3c.4.6 1 1 1 1.8l.6 8.3-4.2-10h-6.2l1.6 2.3-.2 12.3c0 .6-.5 1.3-1 2l6.5-.2c-1-.9-.9-1.2-1-1.6l-.2-8.4 4.2 9.9 6-.1c-1.3-.9-1.4-1.4-1.6-2l-.4-12.8c0-.6.3-1 .8-1.7zm-17.9.8-12 .2c.6.6 1.1 1.3 1.3 2.2l-2.1 11.8a4 4 0 0 1-1.7 2.3h6.4c-.7-.5-.4-1-.4-1.5l.5-2.9 3.3.1.6 2.2c.1.7-.4 1-1 2l7-.1c-.8-.4-1.4-1-1.5-2.4l-1.5-11.7c0-.4.7-1.6 1.1-2.2zm-62.9 0 2.4.4c.2 0 .5.1.4.6v2.7c-.1.1-.1.4-.7.3l-2.3-.3.2-3.6zm100.9 1 1.8 6.6-2.8.3.6-7h.4zm-84 .9 1.8.1c.3.2.7 0 .8 1l-.3 8.6c0 .9-.4 1.1-1 1.2l-1.7-.2c-.6.1-.7-.4-.7-1l.2-8.7c.2-.4 0-1 .9-1zm40.2.5 1 7.4h-3l1.3-7.3.7-.1z" style="fill:#ffffff;fill-rule:evenodd;stroke:none"/><path id="path3852" d="m454.7 373.3-.2.2-3.8 2.6-.8.6h8l1-.1-.8-.6-3.2-2.5-.2-.2zm0 .9 2.2 1.8h-5l2.7-1.8zm-63.7.3.2.5c.7 1.5 1.3 2.7 1.3 3.6l-.7 10.8c0 .2-.2.6-.5.9l-.9.8-.7.5h.9l6.7 1h.8l-.5-.6-.7-.8v-.9l.3-4.7 2.8 5.4v.3l-1 .9-.8.5h1l7.5.6h1l-.7-.5c-3-3-3.5-5.2-4.6-7.3l1.4-.1c.5-.2 1-.7 1-1.4l.2-6v-.1c0-.6-.3-1.1-.7-1.6-.5-.4-1.1-.7-2-1h-.1l-10.6-.7h-.6zm112.9.5h-.6l-11.7 1.2h-.5l.3.4c.3.6.7.8 1 1.1.2.3.4.8.4 1.9l-1 10v.1c0 1-.7 2.1-1.5 3.4l-.4.6.7-.1 6.6-.7h.6l-.4-.5c-.6-.7-.8-1.2-.8-1.6l.5-1.7 3-.2.3 1.2.1.4v.3l-.7 1.3-.4.6h.7l6.3-.8.8-.1-.7-.5-.7-.6-.2-.5-2.8-11.8c-.2-1 .3-1.9.8-3l.3-.4zm-111.8.3 10 .7c.8.2 1.4.5 1.7.8.4.3.5.7.6 1.1l-.3 6c0 .6-.2.8-.6.9-.3.1-.9 0-1.6 0l-.7-.2.3.6c1.2 2 1.7 4.4 4.5 7.4l-6-.4c.3-.2.4-.4.5-.6.2-.3.2-.7 0-.8h.1l-3.4-6.6-.5-1v1.1l-.6 6c0 .5 0 .8.2 1.2l.3.3-5.3-.7.5-.4c.3-.4.6-.8.6-1.2l.7-10.8c0-1-.4-2.2-1-3.4zm110.7.4c-.4.9-.9 1.7-.6 2.9l2.8 11.8.3.6.3.3-4.9.6.5-1v-.5l-.1-.4-.5-1.6v-.3h-.3l-3.5.4h-.3v.3l-.5 1.9c0 .5.2 1 .6 1.6l-5.4.6a7.4 7.4 0 0 0 1.3-3.1l1-10.1c0-1.3-.3-2-.6-2.4l-.6-.6 10.5-1zm-91.5.7c-1.8 0-2.7 1.1-2.6 2.1l-.7 12.8c0 .9.3 1.4.7 1.8.4.4 1 .5 1.5.6l8.5.3c1.1 0 1.8-.3 2.2-.9.4-.5.4-1 .6-1.6l.2-12.1-.1-1.4c-.2-.4-.4-.7-.7-.9a4 4 0 0 0-2-.4l-7.6-.3zm77.2.1h-.8l-6.4.4h-.8l.5.6c.5.4.9.6 1 .9.2.2.3.5.3 1.1l.3 12.2c-.3 1.2-.5 1.4-1 1.8l-.6.7.9-.1 7-.4h.7l-.4-.6c-.6-.7-1.2-1-1.4-1.9l-.7-12c0-.4.2-1.5.8-2l.6-.7zm-63.8.3.1.5 1 3-.4 11.1c0 .6-.2 1-.5 1.3l-1 1-.3.5h.7l6.7.3h.7l-.4-.6-.6-.7-.4-1 .4-8.7 2.9 10.5v.2h1.1v-.2l3.5-10.8v9c-.2.5-.7 1.2-1.4 1.8l-.5.5h.7l6.6.3h.7l-.5-.5a4 4 0 0 1-1-1.8l.5-12.8 1-1.6.2-.5h-.5l-6.9-.2h-.3v.2l-2.3 7.2-1.5-7.3v-.3h-.3l-7.5-.3h-.5zm54 .1h-.6l-6 .3h-.6l.4.5c.5.6 1 1 1 1.7l.5 6.3-3.5-8.2v-.2h-7.1l.4.5 1.5 2.2-.2 12.2c0 .5-.4 1-1 1.7l-.3.6h.6l6.5-.2h.9l-.7-.6c-.5-.4-.7-.6-.7-.8l-.2-.5-.1-6.7 3.5 8.3.1.2h6.2l1-.1-.8-.6c-1.2-.8-1.3-1.2-1.4-1.8l-.5-12.7c0-.5.3-1 .8-1.5l.3-.6zm-67.4.1 7.5.4c.7 0 1.4 0 1.7.3l.5.5v1.1l-.2 12c-.1.6-.2 1.1-.5 1.4-.2.4-.6.6-1.6.6l-8.5-.3c-.4 0-.8-.1-1-.4-.3-.2-.5-.6-.6-1.3l.7-12.7v-.1c0-.6.4-1.4 2-1.5zm75.7.3c-.5.7-.6 1.5-.6 2l.7 12c.2.9.7 1.4 1.1 1.8l-5.6.3c.2-.3.5-.8.6-1.6v-.1l-.3-12.2c0-.7 0-1.2-.3-1.5a3 3 0 0 0-.5-.5l4.9-.2zm-61.4.2 6.8.3 1.8 8.3.2 1.3.4-1.2 2.5-8.1 6.1.1-.7 1.2v.2l-.5 12.9c.1.7.4 1.2.7 1.6l-5.1-.2c.5-.5.9-1 1-1.6l.1-11.2-.6-.2-4.1 12.7-3.4-12.3-.7.1-.4 10.8c0 .6.2 1 .4 1.4l.2.2-5.4-.2.5-.5c.3-.4.6-1 .6-1.6l.5-11.3-.9-2.7zm51.9.1c-.3.5-.5.9-.5 1.4l.4 12.8c.2.5.3 1 1 1.7h-4.9l-4-9.7-.7.2.2 8.4v.1c0 .2 0 .4.2.7l.3.5h-5c.3-.4.7-.9.7-1.5l.1-12.3v-.1l-1.2-1.9h5.3l4.1 9.9.6-.2-.5-8.3a3 3 0 0 0-.7-1.5l4.6-.2zm-16.6 0h-.7l-12 .2h-.8l.5.6c.6.6 1 1.2 1.2 2l-2 11.7c-.3 1-.7 1.6-1.6 2.1l-1 .6h8.6l-.8-.6c-.3-.2-.3-.3-.3-.5v-.6l.5-2.7 2.8.2.4 1.9-.1.6-.8 1.1-.4.5h8.9l-1-.7c-.8-.4-1.3-.9-1.4-2.1l-1.4-11.8v-.3l.3-.5.7-1.1.4-.5zm-63.9.1v.4l-.2 3.5v.3h.3l2.3.4.7-.1.3-.4V379c0-.4 0-.6-.2-.8-.1-.2-.3-.2-.4-.2l-2.4-.4h-.4zm62.6.6-.4.7-.3.6v.6l1.4 11.7c0 1 .4 1.6.8 2l-5.4.2.5-.6c.2-.4.3-.7.2-1.2l-.5-2.1-.1-.3h-.2l-3.4-.1h-.3v.3l-.5 2.9v1.1h-4.8c.5-.5 1-1 1-1.8l2.2-11.9c-.1-.8-.5-1.4-1-2h10.8zm-62 .2 2 .2h.2v2.9h-.3l-2-.2.1-3zm100.8 0-.3.1h-.4l-.2.1v.3l-.6 6.9v.4h.3l2.8-.3h.4l-.1-.4-1.8-6.8v-.2zm-84.2 1c-.5.1-.9.4-1 .6l-.2.7v.1l-.2 8.6.1 1 .4.4h.5l1.7.2c.4 0 .8-.1 1-.4.2-.3.3-.6.3-1v-.1l.3-8.6c0-.6-.2-1-.4-1l-.6-.3h-.1l-1.8-.1zm83.9.2 1.5 5.7-2 .1zm-43.4.3h-.3l-.7.1h-.3v.3l-1.4 7.3v.4h3.7v-.4l-1-7.3v-.4zm-40.5.2 1.7.1.4.2s.2 0 .2.5l-.4 8.6v.7l-.6.1-1.6-.1h-.4v-.8l.2-8.5v-.6l.5-.2zm40 .6.8 6.7h-2.3l1.3-6.7h.1z" style="color:#000000;font-style:normal;font-variant:normal;font-weight:normal;font-stretch:normal;font-size:medium;line-height:normal;font-family:Sans;-inkscape-font-specification:Sans;text-indent:0;text-align:start;text-decoration:none;text-decoration-line:none;letter-spacing:normal;word-spacing:normal;text-transform:none;writing-mode:lr-tb;direction:ltr;baseline-shift:baseline;text-anchor:start;display:inline;overflow:visible;visibility:visible;fill:#642800;fill-opacity:1;fill-rule:evenodd;stroke:none;stroke-width:3;marker:none;enable-background:accumulate"/></g></g><!-- app4joy --></svg>