<svg width="899.99994" height="600" id="svg7580" viewBox="0 0 899.99994 600" xmlns="http://www.w3.org/2000/svg"><g id="g1"><path id="rect16674" style="fill:#ffffff;fill-opacity:1;fill-rule:evenodd;stroke:none" d="M0 0h900v600H0z"/><path id="rect16672" style="fill:#007934;fill-opacity:1;fill-rule:evenodd;stroke:none" d="M0 0h900v300H0z"/><rect width="299.99997" height="599.99994" ry="0" x="-299.99997" y="4.2220458e-005" transform="scale(-1 1)" id="rect16670" style="fill:#d91023;fill-opacity:1;fill-rule:evenodd;stroke:none"/></g><g transform="matrix(-1.875 0 0 1.875 300 0)" id="g4839"><path d="m-206.5 110.7 12.9 31.2 31.2-13-13 31.2 31.2 12.9-31.2 12.9 13 31.2-31.2-13-12.9 31.2-12.9-31.2-31.2 13 13-31.2-31.2-12.9 31.2-12.9-13-31.2 31.2 13z" transform="matrix(-1.02663 0 0 1.02663 -132 -17.6)" id="path4279" style="fill:#e7ca00;fill-opacity:1;fill-rule:nonzero;stroke:none"/><path d="m91.1 97 7.5 18.1 18.1-7.6L80 160zM80 160l-36.7-52.5 18.1 7.6 7.5-18.2zm0 0-63-11.1 18.1-7.5-7.6-18.1zm0 0-52.5 36.7 7.6-18.1-18.2-7.5zm0 0-11.1 63-7.5-18.1-18.1 7.6zm0 0 36.7 52.5-18.1-7.6-7.5 18.2zm0 0 63 11.1-18.1 7.5 7.6 18.1zm0 0 52.5-36.7-7.6 18.1 18.2 7.5z" id="path4255" style="fill:#e7ca00;fill-opacity:1;fill-rule:nonzero;stroke:#da121a;stroke-width:0.60000002;stroke-linecap:round;stroke-linejoin:round;stroke-miterlimit:4;stroke-opacity:1;stroke-dasharray:none;stroke-dashoffset:0"/><path d="m80.2 96 .2 51 3-51 .4.1-2.7 51L87 96.4h.4l-5.6 50.8 8.7-50.3h.4l-8.4 50.4 11.6-49.7h.3l-11.2 49.8 14.3-49 .4.1-14 49.1 17-48h.4L84.6 148l19.7-47.1.4.1-19.4 47.3 22.3-46 .4.2-22 46 24.8-44.5.3.2-24.5 44.7 27.3-43.1.3.2-27 43.3 29.7-41.5.3.2-29.4 41.7 32-39.8.3.3-31.7 40 34-38 .4.3-33.9 38.2 36.2-36 .3.3-36 36.2 38.2-33.9.3.3-38 34.1 40-31.7q0 .3.3.4l-39.8 31.9 41.7-29.4.2.3-41.5 29.7 43.3-27 .2.3-43.1 27.3 44.7-24.5.2.3L91.5 154l46-22 .3.4-46 22.3 47.3-19.4.1.4-47.1 19.7 48.3-16.7v.3l-48 17 49-13.9.2.4-49 14.3 49.8-11.2v.3l-49.7 11.6 50.4-8.4v.4l-50.3 8.7 50.8-5.6v.4L93 159l51-2.7v.4l-51 3 51.1.2v.4l-51 .2 51 3-.1.4-51-2.7 50.7 5.9v.3l-50.8-5.5 50.3 8.7v.4l-50.4-8.4 49.7 11.6v.3l-49.8-11.2 49 14.3-.1.4-49.1-14 48 17v.4L92 164.6l47.1 19.7-.1.4-47.3-19.4 46 22.3-.2.3-46-22 44.5 24.9-.2.3-44.7-24.5 43.1 27.3-.2.3-43.3-27 41.5 29.7-.2.3-41.7-29.4 39.8 32-.3.3-40-31.8 38 34.2-.3.3-38.2-33.9 36 36.2-.3.3-36.2-36 33.9 38.2-.3.3-34.1-38 31.7 40q-.3 0-.4.3l-31.9-39.9 29.4 41.8-.3.2-29.7-41.5 27 43.3-.3.2-27.3-43.1 24.5 44.7-.3.2L86 171.5l22 46-.4.3-22.3-46 19.4 47.3-.4.1-19.7-47.1 16.7 48.3h-.3l-17-48 13.9 49-.4.2-14.3-49 11.2 49.8h-.3l-11.6-49.7 8.4 50.4h-.4l-8.7-50.3 5.6 50.8H87L81 173l2.7 51h-.4l-3-51-.2 51.1h-.4l-.2-51-3 51-.4-.1 2.7-51-5.9 50.7h-.4l5.6-50.8-8.7 50.3H69l8.4-50.4-11.6 49.7h-.3l11.2-49.8-14.3 49-.4-.1 14-49.2-17 48.2-.4-.1L75.4 172l-19.7 47.1-.4-.1 19.4-47.3-22.3 46-.4-.2 22-46L49.2 216l-.3-.2 24.5-44.7-27.3 43.1-.3-.2 27-43.3-29.7 41.5-.3-.2 29.4-41.8-32 39.9-.3-.3 31.7-40-34 38-.4-.3 33.9-38.2-36.2 36-.3-.3 36-36.2-38.2 33.9-.3-.3 38-34.2-40 31.8q0-.3-.3-.4l39.8-31.9L28 197.2l-.2-.3 41.5-29.7-43.3 27-.2-.3 43.1-27.3L24.1 191l-.2-.3 44.6-24.9-46 22-.3-.3 46-22.3-47.3 19.4-.1-.4 47.1-19.7-48.3 16.7v-.4l48-17-49 14-.2-.4 49-14.3-49.8 11.2v-.3l49.7-11.6-50.4 8.4v-.4l50.3-8.7-50.8 5.5v-.3L67 161l-51 2.7v-.4l51-3-51.1-.2v-.4l51-.2-51-3 .1-.4 51 2.7-50.7-5.9v-.4l50.8 5.6-50.3-8.7v-.4l50.4 8.4-49.7-11.6v-.3l49.8 11.2-49-14.3.1-.4 49.1 14-48-17v-.4L68 155.4l-47.1-19.7.1-.4 47.3 19.4-46-22.3.2-.4 46 22L24 129.2l.2-.3 44.7 24.5-43.1-27.3.2-.3 43.3 27-41.5-29.7.2-.3 41.7 29.4-39.8-32 .3-.3 40 31.7-38-34 .3-.4 38.2 33.9-36-36.2.3-.3 36.2 36-33.9-38.2.3-.3 34.1 38-31.7-40q.3 0 .4-.3l31.9 39.8L42.8 108l.3-.2 29.7 41.5-27-43.3.3-.2 27.3 43.1L49 104.1l.3-.2L74 148.5l-22-46 .4-.3 22.3 46-19.4-47.3.4-.1 19.7 47.1-16.7-48.3h.3l17 48-13.9-49 .4-.2 14.3 49-11.2-49.8h.3l11.6 49.7L69 96.9h.4l8.7 50.3-5.6-50.8h.4L79 147l-2.7-51h.4l3 51 .2-51.1h.4" id="path4376" style="fill:#d91023;fill-opacity:1;fill-rule:nonzero;stroke:none"/><path d="M56.4 160a23.6 23.6 0 1 1 47.2 0 23.6 23.6 0 0 1-47.2 0z" id="path4281" style="fill:#e7ca00;fill-opacity:1;fill-rule:evenodd;stroke:#da121a;stroke-width:0.60000002;stroke-linecap:square;stroke-linejoin:miter;stroke-miterlimit:4;stroke-opacity:1;stroke-dasharray:none;stroke-dashoffset:0"/><g transform="matrix(-.42667 0 0 .41013 53.5 163.6)" id="g4283" style="fill:#d91023;fill-opacity:1;stroke:none"><g transform="translate(-30.7 2.1)" id="g4285" style="fill:#d91023;fill-opacity:1;stroke:none"><path d="M9.6-21.9c-11.5-10-26-11.5-34-4-5.8 7.8-5.3 17 1.5 26.5-.5 0-1.5.5-2 1a34 34 0 0 1-2.5-28.5c11-9 26-10 37 5" id="path4287" style="fill:#d91023;fill-opacity:1;stroke:none"/><path d="M-8.4-24.9c-6.5 0-8 1.5-11 4s-4.5 2-5 2.5 0 2 1 1.5 3-1.5 6-4 6-2.5 9-2.5c9 0 14 7.5 15 7s-5-8.5-15-8.5" id="path4289" style="fill:#d91023;fill-opacity:1;stroke:none"/><path d="M3-16.4c-6.4-7-18.4-7.5-23.4.5h2c5-8 17-4.5 18-1v1" id="path4291" style="fill:#d91023;fill-opacity:1;stroke:none"/><circle cx="22" cy="-9" r="4.5" transform="translate(-31.4 -7.9)" id="circle4293" style="fill:#d91023;fill-opacity:1;stroke:none"/><path d="M-20.4-15.9c5 4.5 16 5 23.5-.5l-3.5-.5c-5 5.5-13 5-18 1v-1" id="path4295" style="fill:#d91023;fill-opacity:1;stroke:none"/><path d="M3.6-13.9c-8.5 6.5-17 6-22 3s-5-4-4-4 2 1 6 3 10 2 20-2" id="path4297" style="fill:#d91023;fill-opacity:1;stroke:none"/><path d="M-21 1.1a3 3 0 1 1-4 3 7 7 0 0 1-6.4 4h-1l1 1.5c1 0 4 0 6-1.5a4.5 4.5 0 1 0 4.5-7" id="path4299" style="fill:#d91023;fill-opacity:1;stroke:none"/><path d="M-15 22.1c-4.4-3-6.4-7.5-11.4-7.5-1 0-3 .5-5 1.5h-1l1 1.5c2 0 5-2.5 8.5-.5s5.5 4 8 5" id="path4301" style="fill:#d91023;fill-opacity:1;stroke:none"/><path d="M-16.4 22.1c-10-3-12-1-15-1h-1l1 2c4 0 6-3 15-1" id="path4303" style="fill:#d91023;fill-opacity:1;stroke:none"/><path d="M-15 22.1c-11-1-7.4 5.5-16.4 5.5h-1l1 1.5c11 0 6-6 16.5-7" id="path4305" style="fill:#d91023;fill-opacity:1;stroke:none"/></g><g transform="matrix(-1 0 0 1 -93.6 2.1)" id="g4307" style="fill:#d91023;fill-opacity:1;stroke:none"><path d="M9.6-21.9c-11.5-10-26-11.5-34-4-5.8 7.8-5.3 17 1.5 26.5-.5 0-1.5.5-2 1a34 34 0 0 1-2.5-28.5c11-9 26-10 37 5" id="path4309" style="fill:#d91023;fill-opacity:1;stroke:none"/><path d="M-8.4-24.9c-6.5 0-8 1.5-11 4s-4.5 2-5 2.5 0 2 1 1.5 3-1.5 6-4 6-2.5 9-2.5c9 0 14 7.5 15 7s-5-8.5-15-8.5" id="path4311" style="fill:#d91023;fill-opacity:1;stroke:none"/><path d="M3-16.4c-6.4-7-18.4-7.5-23.4.5h2c5-8 17-4.5 18-1v1" id="path4313" style="fill:#d91023;fill-opacity:1;stroke:none"/><circle cx="22" cy="-9" r="4.5" transform="translate(-31.4 -7.9)" id="circle4315" style="fill:#d91023;fill-opacity:1;stroke:none"/><path d="M-20.4-15.9c5 4.5 16 5 23.5-.5l-3.5-.5c-5 5.5-13 5-18 1v-1" id="path4317" style="fill:#d91023;fill-opacity:1;stroke:none"/><path d="M3.6-13.9c-8.5 6.5-17 6-22 3s-5-4-4-4 2 1 6 3 10 2 20-2" id="path4319" style="fill:#d91023;fill-opacity:1;stroke:none"/><path d="M-21 1.1a3 3 0 1 1-4 3 7 7 0 0 1-6.4 4h-1l1 1.5c1 0 4 0 6-1.5a4.5 4.5 0 1 0 4.5-7" id="path4321" style="fill:#d91023;fill-opacity:1;stroke:none"/><path d="M-15 22.1c-4.4-3-6.4-7.5-11.4-7.5-1 0-3 .5-5 1.5h-1l1 1.5c2 0 5-2.5 8.5-.5s5.5 4 8 5" id="path4323" style="fill:#d91023;fill-opacity:1;stroke:none"/><path d="M-16.4 22.1c-10-3-12-1-15-1h-1l1 2c4 0 6-3 15-1" id="path4325" style="fill:#d91023;fill-opacity:1;stroke:none"/><path d="M-15 22.1c-11-1-7.4 5.5-16.4 5.5h-1l1 1.5c11 0 6-6 16.5-7" id="path4327" style="fill:#d91023;fill-opacity:1;stroke:none"/></g></g></g><g transform="matrix(1.5 0 0 1.5 0 .4)" id="g3911" style="fill:#e7ca00;fill-opacity:1"><path d="m43.5 86 2.4 7.2h7.6l-6.2 4.5 2.4 7.3-6.2-4.5-6.2 4.5 2.4-7.3-6.2-4.5H41z" transform="rotate(-36 415.5 17)scale(1.25 -1.25)" id="path2917" style="fill:#e7ca00;fill-opacity:1;fill-rule:nonzero;stroke:none"/><path d="m43.5 86 2.4 7.2h7.6l-6.2 4.5 2.4 7.3-6.2-4.5-6.2 4.5 2.4-7.3-6.2-4.5H41z" transform="rotate(216 105.5 102.5)scale(1.25)" id="path2923" style="fill:#e7ca00;fill-opacity:1;fill-rule:nonzero;stroke:none"/><path d="m43.5 86 2.4 7.2h7.6l-6.2 4.5 2.4 7.3-6.2-4.5-6.2 4.5 2.4-7.3-6.2-4.5H41z" transform="rotate(168 13.7 118)scale(-1.25 1.25)" id="path2929" style="fill:#e7ca00;fill-opacity:1;fill-rule:nonzero;stroke:none"/><path d="m43.5 86 2.4 7.2h7.6l-6.2 4.5 2.4 7.3-6.2-4.5-6.2 4.5 2.4-7.3-6.2-4.5H41z" transform="rotate(192 86.4 107.5)scale(1.25)" id="path2935" style="fill:#e7ca00;fill-opacity:1;fill-rule:nonzero;stroke:none"/></g><!-- app4joy --></svg>