<svg viewBox="0 0 900 600" width="900px" height="600px" xmlns="http://www.w3.org/2000/svg"><g><path fill="#fff" d="M0 0h900v600H0z"/></g><g id="cross"><path fill="#d9171a" d="m586.2 335.8 32-9.6L671 358l-33.3 8.6 49.4 29.8 33-8.9 52 31.6-33.6 8.1 49.5 29.9 34-8.3 52.2 31.7-32 9.2 57.9 34.8V600h-41.3l-71-43 9.7 34.1-56-33.3-9.3-34.2-48.7-29.2 7.6 33.1-51.4-30.6-9-34.2-49.3-29.5 8.3 33.7-53.3-31.9-8.7-34-77.7-46.5-78 46.5-8.6 34-53.3 32 8.3-33.8-49.4 29.5-9 34.2-51.3 30.6 7.5-33.1-48.7 29.2-9.2 34.2-56 33.3L112 557l-70.7 43H0v-75.4l57.8-34.8-32-9.2L78 448.9l34 8.3 49.5-29.9-33.7-8.1 52.2-31.6 33 8.9 49.4-29.8-33.3-8.6 52.7-32 32 9.7 52.3-31.5-41.9-25-32 9.5-52.8-31.8 33.2-8.7-49.5-29.7-33 9-52.2-31.6 33.7-8.3-49.6-29.8-33.8 8.5L35.9 135l32-9.3L0 81.1V0h28.3l94.8 57-9.6-34.2 56 33.5 9.2 34.2 48.6 29.3-7.5-33.2 51.3 30.6 8.9 34.2 49.3 29.7-8.3-33.7 53.2 32 8.6 34 67.2 40.4 67.2-40.4 8.6-34 53.2-32-8.3 33.7 49.3-29.7 9-34.2 51.2-30.6-7.5 33.2 48.6-29.3 9.3-34.2 55.9-33.5-9.6 34.2 94.8-57H900v81.1l-68 44.4 32.1 9.3-52.3 31.5-34-8.3-49.5 29.8 33.7 8.3-52.2 31.5-33-8.8-49.6 29.6 33.3 8.8-52.8 31.8-32-9.6-42 25z"/></g><!-- app4joy --></svg>