<svg xmlns="http://www.w3.org/2000/svg" xml:space="preserve" id="Слой_1" width="1200" height="800" x="0" y="0" style="enable-background:new 0 0 1200 800" version="1.1" viewBox="0 0 1200 800"><style id="style1" type="text/css">.st0{fill:#E30A17}.st1{fill:#FFFFFF}.st4{fill:none;stroke:#FFFFFF;stroke-width:10;stroke-miterlimit:10}</style><g id="g16"><path id="rect1" d="M0 0h1200v800H0z" class="st0"/></g><g id="g2"><circle id="circle1" cx="547.8" cy="280" r="150" class="st1"/><circle id="circle2" cx="585.3" cy="280" r="120" class="st0"/><path id="polygon2" d="m666.5 280 135.7 44.1-83.8-115.4v142.6l83.8-115.4z" class="st1"/></g><g id="g15"><path id="path2" d="M404.8 555.5a5.2 5.2 0 0 1 6.1-4.1c38.9 8.3 90.9 17.9 152.7 24.6 26.9 2.9 115 12.6 195.9 8.7 49.5-2.4 129.1-4.7 223.8-37.8 37.3-13.1 74.3-36.6 116.7-58.3a205.7 205.7 0 0 1-30.9 53.5 211 211 0 0 1-59.9 50.3 315.7 315.7 0 0 1-83.6 34.7 811.6 811.6 0 0 1-204.8 28c-45.7.6-87.1-2.3-114.1-4.2a1529.5 1529.5 0 0 1-182.9-24l-25.8-5.2a5.3 5.3 0 0 1-4-6.1l3.3-18.4c.6-3.5 20-6.9 20-6.9s-16.8-10.7-16.2-14.1l3.7-20.7z" style="fill:#FEFEFE"/><path id="path3" d="M428.1 600.3A1678 1678 0 0 0 609.9 622c26.9 1.7 68 4.4 113.4 3.8a875.4 875.4 0 0 0 203.5-25.3 440.3 440.3 0 0 0 83.1-31.4c11.6-6 44.5-26.5 44.5-26.5s-58.2 27.5-79 33.7c-53.6 16.2-173.2 32-222.4 34.2-80.4 3.6-168-5.2-194.7-7.8a1627 1627 0 0 1-156.2-23.2l-2.8 15.4 28.8 5.4z" class="st0"/><path id="path4" d="M332.4 460c13.9 84.7-1.7 149.2-41.5 196.8 22.2-4.3 43.6-16.4 64.1-36.2l18.6-98.9c-7.8-38.8-23.4-53.6-41.2-61.7z" class="st1"/><path id="path5" d="M310.4 543.1c-5 13.7-12.8 21.6-24.2 37.4-10.4 11.3-24.1 15.2-30.9 6.7-6.9-8.7-3.1-11.1 2.3-18.5a126.3 126.3 0 0 0 21.1-41.3c9.4-9 19.6-8.7 27-2.5 7.6 6.3 7.8 9.7 4.7 18.2z" class="st1"/><path id="path6" d="M271.6 540.3c-5 13.7-12.8 21.6-24.2 37.4-10.4 11.3-24.1 15.2-30.9 6.7-6.9-8.7-3.1-11.1 2.3-18.5a126.3 126.3 0 0 0 21.1-41.3c9.4-9 19.6-8.7 27-2.5 7.6 6.3 7.8 9.7 4.7 18.2z" class="st1"/><path id="path7" d="M199 524.9a244.1 244.1 0 0 1-25.4 41.9c-10.2 10.9-22.8 9.2-27.9 1.7-6.2-9.2-1.3-13.7 4.1-21.1a108 108 0 0 0 19.3-38.7c9.4-9 19.6-8.7 27-2.5 7.6 6.2 6.6 10.4 2.9 18.7z" class="st1"/><path id="path8" d="M234.9 531.5c-5 13.7-13.2 28.5-24.6 44.4-10.4 11.3-23.6 8.3-30.4-.2-6.9-8.7-3.1-11.1 2.3-18.5a126.3 126.3 0 0 0 21.1-41.3c9.4-9 19.6-8.7 27-2.5 7.6 6.2 7.8 9.6 4.6 18.1z" class="st1"/><g id="g9"><path id="path9" d="M321.2 585.3c-5.8 9.3-18.4 7-23.7.4-6.9-8.7-3.1-11.1 2.3-18.5 11.1-15.1 14.5-30.2 21.1-41.3.2-.4.7-1.1 1-.9 13.6 5.7 9.4 44.1-.7 60.3z" class="st1"/></g><path id="path10" d="M164.5 518.7a244.1 244.1 0 0 1-25.4 41.9c-10.2 10.9-22.8 9.2-27.9 1.7-6.2-9.2-1.3-13.7 4.1-21.1a108 108 0 0 0 19.3-38.7c9.4-9 19.6-8.7 27-2.5 7.6 6.2 6.6 10.4 2.9 18.7z" class="st1"/><path id="path11" d="m131 509.3-2.5-.5-2.5-.2-2.3-.2-2.4.1-2.1.1-2.1.3-2 .4-1.9.6-1.8.6-1.7.9-1.6 1-1.5 1.2-1.3 1.2-1.3 1.5-1.2 1.5-1.1 1.9-.6 1.4-.6 1.4-.3 1.4-.1.7v.6l-.1.3v1.4l.2 1.4.4 1.4.5 1.4.8 1.2.9 1.4.4.3.3.3.5.7 1.2 1.4 1.5 1.2 1.5 1.4 1.9 1.2s1.3 1.2 1.9 1.4c.9.2 20-32 19-32.3z" style="fill-rule:evenodd;clip-rule:evenodd;fill:#FFFFFF"/><path id="path12" d="m325.6 574-4.4-.5 4.4.5z" class="st1"/><path id="_48712048_3_" d="m397.2 517.6-2.6 5.6-2.5 5.7-2.3 5.8-2.1 6-2 6-1.8 6.1-1.6 6.3-1.5 6.3-1.3 6.5-1.1 6.5-1 6.7-.8 6.8-.6 6.9-.5 6.9-.3 7.1-.1 7.2v7.3l.2 7.4.4 7.6.6 7.6.7 7.7.3 2.4-1.1-1.1-1.2-1.4-1.1-1.4-1.2-1.4-1.1-1.6-1.1-1.7-1.1-1.7-1.1-1.9-1-1.9-1-2.1-1-2.2-1-2.3-.9-2.4-1-2.5-.9-2.7-.8-2.8-.8-3-.8-3-.8-3.3-.3-1.5.2-1.1 1.7-9.3.6-3.1 1.8-9.3.5-3 1.8-9.3.5-3.1 1.2-6.2.6-3.1.5-3.1 1.8-9.2.5-3.1 1.8-9.3.6-3.1 3.4-18.5 1.4-1.3 1.9-1.7 1.8-1.6 1.8-1.6 1.9-1.5 1.8-1.5 1.9-1.4 1.8-1.4 1.8-1.3 1.9-1.3 1.8-1.3 1.9-1.2 1.8-1.2 1.9-1.1 1.8-1 1.9-1.1.8-.4-2.5 4.3-2.9 5.4z" class="st1"/><path id="path13" d="M365.2 580.2c3 7.3-.9 13.1 1.7 19.2l45.4-10-38.6-26.5c-4.7 4.8-3.2 11.7-8.5 17.3z" class="st1"/><path id="path14" d="M159.5 563.4c1 36.7 74.1 69.5 163.1 66.8" class="st4"/><path id="path15" d="M195.1 578.1c21.5 26.2 108.9 54 133.4 24.6" class="st4"/></g><!-- app4joy --></svg>