<svg id="레이어_1" x="0px" y="0px" viewBox="0 0 800 533" xml:space="preserve" xmlns="http://www.w3.org/2000/svg"><g id="g24882"><path fill="#ffffff" id="rect24707" d="M0 0h800v533H0z"/></g><g id="g24729"><path fill="#861c32" d="M578.5 285.5c3-4 10-70-18-113s-55-67-60-69-7-6-11-7-5-2-7-3-8-7-11-7-7-2-9-1 5 3 6 5-13-5-19-5-10-2-16-3-7-6-9-4-13-2-16.5 1.5c0 0-21-4-29 0s-36 2-65 20-60 49-75 79-15 42-15 52-4 16-4 20 4 8 3 19 6 58 16 79 47 75 101 92c27.5 9.5 25.5-6.5 34.5-6.5s24-1 32 0 14 0 18 0-4-3 2-5 30 4 38 0 8-5 12-8 42-20 52-35 20-26 23-30 25-51 27-58-3-9 0-13m-28 14c-3 1 0 6 0 7s-4 8-4 10 2 3 0 5l-3 3c-3 3 0 5-1 8s2 4 0 7-4-2-7 2-9 13-10 14-5 6-2 5 2 3 0 6-4 2-6 1-2 3-5 8-12 19-17 19-6 0-10 3-9 4-13 8-14 9-17 9-9 3-14 5-8 0-10 0 3 3-2 5-7-1-10-1-2 3-4 3-3-3-4-2 2 3 0 3-7-3-9 0-8 1-21 0-23-16-23-19 9-2 9-3-5-3-8-6-8-3-10-4-6 0-8-3-3 1-7 0-12-8-21-15-11-15-18-17-23-31-25-37-2-46-2-71 8-57 22-80 42-35 42-35c105-51 167 12 176 19s27 36 32 46 16 58 16 64-3 32-6 33" id="path24709"/><path fill="#861c32" d="M377 411s0 3 7 3 22 0 27 2 3 2 9 1 19-3 17-6-2 0-22 0-22 1-27 1-10-4-11-1" id="path24711"/><path fill="#211917" d="M336 159s-3 7-8 9-15 4-18 5-13 3-13 3-6 3 3 4 10 0 20 0 23-1 27-4 2-7 4-8-10-10-15-9" id="path24713"/><path fill="#211917" d="M386 159s-3 10 5 12 19 3 24 0 7-8 3-8-11 1-15 1 1 1-3 0-12-9-14-5" id="path24715"/><path fill="#211917" d="M293 310s-13 12-13 16 8 1 20-2 18-4 25-5 17-4 20-4 11 2 18 2 20-2 28-2 20 1 24 0 11-1 11-5 0-5-6-4-17 2-23 2-17 0-20 1-18-1-22-1-27 0-32 2-17 1-20 2-8-4-10-2" id="path24717"/><path fill="#211917" d="M333 330s-5 0-7 4-9 13-11 14-4 6-7 6 3 3 8 2 8-2 14-5 13-8 12-10 3-13-9-11" id="path24719"/><path fill="#211917" d="M377 328s1 16 4 20 5 7 9 7 11-7 12-10 6-9 3-10-10-3-13-3-12-6-15-4" id="path24721"/><path fill="#211917" d="M510 223c3-1 20-10 20-13s-2-15-5-16-7 2-14 0-13-3-17-2-5-2-11 0-16 3-19 4c0 0-13-2-15 6s10 7 8 16-2 33-2 39-2 17-1 23 0 37 0 44 3 16 2 19-3 22 0 24 7 0 8-4 0-19 0-23-2-30 3-32 27 0 31-4 23-25 22-31-17-26-22-27-12-4-11-6 20-16 23-17m-15 32c7 3 8 18 7 23s-10 12-14 14-11 5-16 5-4-18-4-23v-33c0-5 2-16 2-21 0-3.2.8-8.5 1.4-11.8a5 5 0 0 1 4.3-4c7.9-.9 25-.2 28.3-.2 4 0 3 3 4 7s-13 12-16 15-9 8-14 14 10 12 17 15" id="path24723"/><path fill="#211917" d="M425.5 195.5c-5 0-35 1-36 0s-3-13-4-13-4-3-6 0 1 13 0 14-18 1-19 0-2-5-1-6-4-9-8.5-7.5c0 0-3 5-3 7s5 8 0 8-12 1-17 0-15-3-19 0-14 8-14 11 5 6 11 4 10-6 19-7 19-3 20-1 1 12 0 14-10 2-15 2-18 1-22 4-4 11 0 14 5 10 5 16 1 14 0 18-5 15-3 19 3 8 12 7 15-5 20-5h20c8 0 25 2 32 0s12 3 18-7 0-22 0-26-2-18 0-20 9-14 8-18-9.5-5.5-20.5-3.5-17 1-17-1-1-12 3-13 4-6 11-5 20 2 24 1 7-6 2-6M357 210q0-2.1.9-3.5a5 5 0 0 1 4-2.6c4-.3 12.8-.7 15.1.1 3 1 2 1 3 3s-1 13-3 14-18 0-20-1 0-6 0-10m-31 19a64 64 0 0 1 18.7-1.1c1.4 0 2.5 1.1 2.6 2.4 1.1 9.7-2.5 9.8-5.3 11.7-3 2-12 4-14 4s-6-15-2-17m59.7.4c.2-2 1.7-3.5 3.7-3.6 5-.2 14.2-.5 15.6.2 2 1 3 0 4 2s0 8-2 10-7 1-9 0-11 1-12 0c-.6-.6-.5-5.3-.3-8.6M396 244c6-2 10 0 11 2s2 29 0 34-8 7-11 9-34 0-40-1-25 2-29 0 0-5-2-14-1-20 2-21 26-5 28-7c1.5-1.5 1.3-12.5 1.1-17.5 0-1.4 1-2.6 2.4-2.6 5.5-.2 18-.7 19.5.1 2 1 0 18 1 20s11 0 17-2" id="path24725"/><path fill="#211917" d="M334.2 267.1c-1.2.5-1.4 2-.5 2.8 1.5 1.4 4.3 3.1 8.3 3.1h21c5 0 11 2 17 0s16-1 17-5-3-4-9-4-18 1-25 0-22 0-24 1c-1.1.6-3.2 1.5-4.8 2.1" id="path24727"/></g><!-- app4joy --></svg>