<svg id="Layer_1" width="600px" height="400px" viewBox="-129.92 -86.615 600 400" xml:space="preserve" xmlns="http://www.w3.org/2000/svg"><g id="g246"><path id="rect1" fill="#ED1C24" d="M-131.1-86.6h600v400h-600z"/><circle id="circle242" cx="291.93" cy="-36.204" r="30.187" fill="#F0A3AB"/><circle id="circle243" cx="-31.948" cy="-36.204" r="30.187" fill="#FECB38"/><path id="rect243" fill="#FECB38" d="M410.1-86.6h60v400h-60z"/><path id="rect244" fill="#39B54A" d="M417.9-86.6h52.2v52.2h-52.2z"/><path id="rect245" fill="#39B54A" d="M417.9 261.2h52.2v52.2h-52.2z"/><path id="polygon245" fill="#39B54A" d="m410.1 113.4 30 26.9 30-26.9-30-26.9z"/></g><g id="g245"><g id="live_paint"><g id="XMLID_1_"><g id="g82"><path id="path1" d="M286 119.5c-6.6 1.5-12.1 10.6-14.8 10.8-1.9 0-2.5-1.3-2.6-3-.2-2.4 1-4.8 1-7.2q0-.8-.3-1.2v-.2q-4 5.5-7.4 11.7c-3.6 6.2-22.4.5-31.6 11 3.7-11.3 16.2-14.5 25.2-21.7q.7-.6 1.3-1.7c4.3-7 5.3-23.4 36.9-25.5q7.7-.4 15 0l2.5.6a59 59 0 0 0 3.9-23q-.6-10.9-6.8-19.5l.5-.2c0-7-1.5-16 4.4-20.8 1.5 5.3.7 11.8 4.3 16.2a48 48 0 0 1 11.9 27.9c1.9 29.5-32.6 61-42.4 61.7q-.4 0-1-.4c-1-1-2.5-3.9-2.7-6.5q-.1-4.7 2.7-9" fill="#9e9297"/><path id="path2" d="M315 70a56 56 0 0 1-3.8 23l-2.6-.4q-7.1-.5-15 0c-31.5 2-32.5 18.3-36.8 25.4l-1.4 1-33 8.3c-25.4 1.7 14.5-12.1 23.1-15.5 7.5-2.7 8.2-10.1 10.9-16.8A52 52 0 0 1 284 83.6q4.8-.3 10.2.5l6-3 3 2 2.4-.2q.3-3 .2-5.8c-.8-12.5-9.4-21-20.2-27.3l.2-.4c-3.5-7.4-9.7-15.2-10.2-23.6q-.2-2.6.5-5.3c5.5 5.9 8.2 16 14.4 18q11.9 4.2 17.8 12.2a36 36 0 0 1 6.8 19.3" fill="#9e9297"/><path id="path3" d="M305.7 77a33 33 0 0 1-.2 6h-2.4q-1.5-.8-2.9-1.8a76 76 0 0 0-11.6-6l2.4-.7q-3.4-8.6-8-13.6c-6.8-7.8-15.9-10.1-28.3-9.8v-.5c-.7-10.2-10.4-15.3-18.5-19.7l.2-.8c9.4 2 18.3 7.5 26.6 10.1 7.4 2.5 15.4 5.5 22.5 9.6 10.8 6.2 19.4 14.8 20.2 27.3" fill="#9e9297"/><path id="path4" d="M256.4 95c-12.1 9-21.2 19.9-29.2 20.4l-6.2.2q-2.6.2-5 .9c-35.3 11.3-11.4-5 14-13.2 5.7-2.7 9-8.7 12.8-14.7 5-8.2 11-16.7 25.6-17.6 6.8-.4 13.7 1.3 20.4 4q6 2.7 11.5 6.1l-6 3q-5.5-.9-10.2-.6A52 52 0 0 0 256.4 95" fill="#9e9297"/><path id="path5" d="m284.9 207.8-.1.4q-.6 1.3-.5 2.5c.3 4.2 7.3 10.3 7.8 17.6q.2 2.8-1.1 6c-.7-3.7-3-8.1-7-8.7h-.1q.8 2 .9 4 .4 4.5-3.3 9.1.2-1.4.1-2.7c-.5-7.6-8.2-11.1-14.3-14.4l-.4.2c-3.4-3.1-7-6.4-8-11.2l-.3-5h.6a27 27 0 0 0 22-14.9h.1a10 10 0 0 0-.4 3.4c.6 9.8 20 6.5 21 23.7l.1 1.5c-4.5-4.5-11.9-7.3-17.1-11.5" fill="#9e9297"/><path id="path6" d="M186.3 106.9q1.4-1.2 3.4-2.2c3.4-2 9-4.8 24.5-10.1 2.6-1.1 6.2-9.3 13.5-17.5a47 47 0 0 1 49-15.6l6.3-.6q4.5 5 8 13.6l-2.4.7a46 46 0 0 0-20.3-4c-14.6.9-20.5 9.3-25.7 17.6l-.6-.5c-12.6 2.1-10.9 16-26.5 17l-10.3.4c-11 .7-14.2 5.5-22.8 6a16 16 0 0 1-4.8-.4c4.6-2 6.8-3.3 8.7-4.4" fill="#9e9297"/><path id="path7" d="m283 60.9-6.3.5a47 47 0 0 0-49 15.6 95 95 0 0 1-19.4 3.8c-11.4.8-20.5-3-21.2-5.2q3.6-1 7.2-1.1c4.6-.3 9.2 0 13.8-.3 1.3 0 10-.8 10-2 2.6-16 18.2-20 32-21l4.6-.2c12.5-.2 21.5 2 28.4 9.9" fill="#9e9297"/><path id="path8" d="M184.9 150.7a9 9 0 0 0-1.6 6 8.7 8.7 0 0 0 9.3 8.2c3.7-.2 8.4-5 8-9.8-.1-2.6-1.8-5.3-4.6-5.1-2.7.1-5.2 5.2-9 6.4-.1-1.6 4.5-3 1.3-5.8zM141.6 139l-.4.3q-3.4-3-7.8-2.6c-6.3.4-12 5.6-11.5 12.3.3 4.6 6.8 11.6 14.8 11a9 9 0 0 0 8.7-8.9c-.2-2.5-2-4.3-5.7-4.1h-.2l-.3-3.7c2.6-.2 3-.6 3-2.2a5 5 0 0 0-.6-2M79 155q-.4 1.2-.4 2c.4 5.6 3.9 11.2 9.6 10.8 3.6-.2 6.2-2.1 6-5.8-.3-4-4.6-7.5-4.4-5.8 0 1.3-1 3.3-3.3 3.5-2.3.1-5.2-2.8-5.3-4v-.5zm51.3 27a27 27 0 0 1-16.3 5.9h-.2q-4.8.4-9.4-.8A27 27 0 0 1 87.6 176c.1 1.6 2.6 5.3-.6 5.5q-1.7 0-4.4-.9a44 44 0 0 1-15-9.8 41 41 0 0 1-13-25.4v-5.8l2.6-4.6c6.1-11.2 6.8-10.6 6.7-14.3v-.9c2 5 5.1 9 11.4 10.4q-4.6-4.8-5-11.1-.1-5.2 2-10.3l.4-.1c3.8 8.8 9.4 19.8 19.7 21.1-5-2.9-6.7-8-7-13.3q-.2-3 .1-5.9c5.6 10.8 13.6 21.8 27.1 21.7-4.8-2.7-9.4-7.6-9.7-13.2-.2-2.6.4-6 3-6.7h.3c2.4 8 11.2 13 19.4 16.5 6.3 2 6.3 6.6 6 2.7-.7-11.2-16-14-16.8-25q0-1.5.3-3.4c13.3 12 29 16.4 31.6 23.6V125c-.8-11-14.6-14-15.1-21.8q-.2-2 .7-3.8c12.3 13 33.1 15 34 22.7-1.3-17.7-25.1-20-25.8-31.2q-.2-2.6.6-5l.5-.8a33 33 0 0 0 28.5 11.5q5-.3 9.8-2c1.5.4 3.6 1.5 3.8 3.7.1 2.1-1 4.2-4.6 4.5a13 13 0 0 0 7.2 4.3c-2 1.2-4.1 2.5-8.8 4.4q2.5.5 4.8.3c8.7-.5 11.9-5.3 22.8-6l10.4-.3c15.6-1 13.9-15 26.4-17l.7.4c-3.7 6-7 11.9-12.8 14.7-25.4 8.1-49.3 24.4-14 13.1q2.4-.7 5-.8l6.2-.2c8-.6 17.2-11.5 29.2-20.5-2.6 6.7-3.3 14.1-10.8 16.8-8.7 3.4-48.6 17.2-23.2 15.6l33-8.4 1.4-1-1.3 1.8c-9 7.1-21.5 10.4-25.2 21.7 9.2-10.6 28-4.9 31.6-11q3.4-6.3 7.3-11.7h.1q.3.8.2 1.3c.2 2.4-1 4.8-.9 7.2.1 1.8.8 3.1 2.6 3 2.7-.2 8.2-9.2 14.8-10.8q-2.8 4.3-2.7 9c.2 2.7 1.6 5.5 2.7 6.5l-.3.6c-.8 2.7-4.4 2.7-4.3 4.8.2 3.4 4.5 6 5.1 9.4q1 4.5 1.3 9.2c.6 9.7-1.2 22.3-6.6 32a27 27 0 0 1-22 14.8h-.6q-5.2.3-10.4-1.2-6-1.6-11.4-5a51 51 0 0 1-10.5-8.4c1.1-1.5 3-2.8 2.9-4.3-.1-1.4-3.3-3.7-7.5-3.4q-2 0-3.8 1c-1.1 1.2-.6 2.1-1.7 2.2q-1.1 0-2.5-.3c-2.6-.8-5.7-2.7-5.8-5.3q-.3-2.4 2.9-5.2-1.7-2.3-4.3-2.3c-2.3.2-5.3 3.6-8.3 3.8q-2.7-.1-4.4-2c-.3 6.8-12.2 5.3-12 8.9l-.2.4a30 30 0 0 1-10 2.3q-5.6.3-10.3-.6c-11.2-1.9-18.6-7.4-27-6.9l-1.8.2c.1-.2-.5.9-2 2.2m127.2-24.6c-.3-5.1-3.7-6.2-5.4-6l-.8.2c-1.9 2.1-4 2.7-6.3 3.3-5.2-4.6 1.3-7.5 1.3-8.5 0-.2-1.8-1.1-3.6-1-5 .3-8.2 7.9-7.9 13.3.4 6.2 7 8.3 13 8 5.4-.4 10.1-3.3 9.7-9.3" fill="#f0a3ab"/><path id="path9" d="m271 243-3.6 6q.8-3 .6-6c-.6-8-6.6-15-12.1-21-4.6-4.9-8.8-9.2-9-13l1.2-4.5q5.3 1.5 10.4 1.3l.3 5c1 4.7 4.6 8 8 11.1 3.7 3.4 7.2 6.4 7.4 10.7.4 3.3-1.3 7-3.2 10.3" fill="#9e9297"/><path id="path10" d="M222.7 280.3c-1.7.4-2.9-.7-3.1-4.6-1-16 32.7-2.5 30.5-37.3q-.3-4-1.2-7.9c3.2 3.7 6 8.4 6.8 19.8a53 53 0 0 0 2.2-17q-.3-4.8-2.3-9.7v-1.2l.3-.4c5.5 6 11.6 12.8 12.1 21q.2 2.8-.5 6l3.5-6.2c-6.6 20.5.3 37.7-12.3 43.3a30 30 0 0 1-11.5 1.8c2.8-3.2 1.7-9 3.7-13l-7.1-.6c-6 2.9-5.7 14-10.8 15.7l-1.1.2a9.4 9.4 0 0 1-9.7-8.7v-.2q0-.5.5-1" fill="#f0a3ab"/><path id="path11" d="M252 151.3c1.7-.1 5.1 1 5.4 6 .4 6-4.3 8.9-9.7 9.2-6 .4-12.5-1.7-13-8-.3-5.4 3-13 8-13.3 1.7 0 3.5 1 3.5 1.1 0 1-6.4 4-1.3 8.4 2.4-.5 4.4-1 6.4-3.3z" fill="#9e9297"/><path id="path12" d="M248.9 230.5c-5-5.7-11-9-12.4-30.6l.2-.4q5.6 3.4 11.5 5l-1.3 4.6c.2 3.7 4.4 8 9 13l-.4.4v1.2h.1a29 29 0 0 1 2.3 9.7 52 52 0 0 1-2.2 17c-.8-11.5-3.6-16.2-6.8-19.9" fill="#9e9297"/><path id="path13" d="m258.7 286.3.2.2c-.3 2.2-1 4.3-1 6.7l.2 1.2a10 10 0 0 1-3.7-6.3v-.5q2.4-.6 4.3-1.3" fill="#9e9297"/><path id="path14" d="M247.1 288.1c-1.3 1.4-3.2 2.5-6.6 2.7h-.7q-3.4 0-6.9-.7c5.2-1.7 4.8-12.8 10.8-15.7l7.2.6c-2.1 4-1 9.7-3.8 13.1" fill="#f0a3ab"/><path id="path15" d="m244 291.2-.2.4h-3.2z" fill="#9e9297"/><path id="path16" d="M226.3 191q-.7 1-.7 2c.2 3.5 8.7 9.5 9.2 16.8.3 4.8-6.2-8.4-15.7-9-3-3.8-6.7-4.7-7-8.8q0-1.5.8-2.8l.9-2.9q1.3.4 2.5.4c1-.1.6-1 1.6-2.3q1.9-.9 3.8-1c4.3-.2 7.4 2 7.5 3.5 0 1.4-1.8 2.7-2.9 4.2" fill="#9e9297"/><path id="path17" d="M194 201.1c.5 1 1 2.4 1.2 5.2.5 6.4-3.7 12-5.3 12h-.2v-.1l-.2-6.4a25 25 0 0 0-3-8.7 35 35 0 0 1-5-15v-3.4l.2-.5c-.2-3.6 11.7-2 12-9q1.7 2.1 4.4 2.1c3-.2 6-3.5 8.4-3.7 1.6-.1 3 .9 4.2 2.2q-3 2.9-2.9 5.3c.2 2.5 3.2 4.6 5.9 5.2l-.9 3q-1 1.3-.8 2.7c.3 4.1 4 5 7 8.8 1.7 2.2 3.1 5.3 3.5 10.5l-.2 5.6c-.5-8.2-7.7-11.8-14-15.5h-.1a24 24 0 0 1 4.7 12c0 1.5-.2 11.3-.5 7.4-.2-4.3-2.3-7.5-5-10.1-4-3.7-9.2-6.4-13-10z" fill="#9e9297"/><path id="path18" d="m181.8 241.3-2.3.4q-2.8.1-4.4-1.4-1.5-1.4-1.7-3.3c-.2-3.4 3.1-7.4 5.4-10l.2-3.7h1.9q3.5-.3 7-1.5l1.9-3.6h.2c1.5 0 5.7-5.5 5.3-12-.2-2.8-.7-4.2-1.3-5.2l.4-.5c3.9 3.7 9.1 6.5 13 10l-.5.2c-3.2 6.8-6.9 14-12.8 17.6l-.8.7-2 1.8c-3.6 3.6-4.7 6.7-6.6 8.7a7 7 0 0 1-2.9 1.8" fill="#f0a3ab"/><path id="path19" d="M145.1 33.8a30 30 0 0 0-12.8-3.2l-.5.1a29 29 0 0 0-9.7-16.9l1.1-.1c13.1-.8 23.3 8.6 36.8 11 8.4 7.5 14 18.7 25.6 21.3 3.3.6 6.3 2.8 9 5.6h-2.8l-7.6.7c-18 1.1-26.2-12.2-39-18.5" fill="#9e9297"/><path id="path20" d="M196 150c2.8-.2 4.5 2.5 4.7 5 .3 5-4.5 9.7-8.1 10-4.4.2-9-3-9.3-8.4q-.2-3.2 1.6-5.9h3.4c3.2 2.7-1.4 4-1.3 5.7 3.9-1.2 6.3-6.3 9-6.4" fill="#9e9297"/><path id="path21" d="M193.7 98.3c.2 3.5-2.2 5-4 6.3l-3.4 2.2a13 13 0 0 1-7.2-4.3c3.6-.3 4.7-2.3 4.6-4.4s-2.3-3.4-3.8-3.8q3.2-1 6.2-3V91c3.3.1 7.3 3.7 7.6 7.3" fill="#9e9297"/><path id="path22" d="M193.3 229.1c1.3 2.6 4.3 4 7.2 3.8-3.1.2-7 .5-9.3-2z" fill="#9e9297"/><path id="path23" d="M144.5 58.4c-3.3-3-6.6-6-10.5-7.9l-4.4-.4a53 53 0 0 0 2.6-15.9l-.4-3.5.4-.1a30 30 0 0 1 12.8 3.1c22.3 18.2 7.6 32.4 43 31.7q-7.6 3.7-15.9 4.4c-13.8 1-21-5.4-27.6-11.4" fill="#9e9297"/><path id="path24" d="m189.8 218.3-1.9 3.6a29 29 0 0 1-9 1.5c-2-.1-3.7-1-4-4.8a14 14 0 0 1 4.6-10.5q3.1-3 6.8-5h.2c1.5 3 2.9 5.8 3 8.7q.2 3 .2 6.3z" fill="#f0a3ab"/><path id="path25" d="m118.9-8 2.9-.3c11.3-.7 23.4 6.7 31 6.2q3-.1 5.8-1.6a35 35 0 0 1-19 6.2c15 3.8 21.7 18.2 43.1 16.8-3.7 3.9-9 5.6-14.4 6q-4.4.3-8.4-.5c-13.5-2.5-23.6-12-36.7-11.1l-1.2.1c-8 1.2-21 8.5-20.4 17.4.2 4 1.7 7 2.8 9.9l-.6.1q-.1-.3-.5-.2c-3 .1-3.4 3.7-3.6 8.1h-2.6c-.1 3-1 6-5.8 8.2v-.1c2.7-2.8 3.3-8 3-13l-.7-4.7C90.8 27.3 81.7 17.7 88.5 15q1.2-.4 3.4-.6a7 7 0 0 1 4 1c2.4-4.3 4.8-9 8-13.2q3.6-5 8.9-8.2a27 27 0 0 1 6-2" fill="#9e9297"/><path id="path26" d="M132.3 99.2a31 31 0 0 1-8.1-16.1c-.7-4-6.1-6.2-7.3-11h-3.3c3.6-1.7 7.6-3 10.2-7a89 89 0 0 0 5.8-15l4.4.4c3.9 1.9 7.1 4.9 10.5 8 2 2.7 4.3 5.6 4.9 9.1C153.3 83.7 171 92 186 91.5a37 37 0 0 1-16 5c-14.3.9-22.6-5-28.5-11.6l-.5.8q-.7 2.6-.6 5c.7 11.2 24.5 13.5 25.9 31.3-1-7.9-22-9.8-34.1-22.8" fill="#9e9297"/><path id="path27" d="M184.6 239.6c-.2 2.8 1.7 5.7 4.1 8-3.4-1.5-6.6-2.3-7-6.3q1.8-.6 2.9-1.7" fill="#9e9297"/><path id="path28" d="M165.4 234.8c-1.6 1-1.8 1.5-3.7 1.6h-.2c-2.8.1-4.1-1-4.8-3q-.5-1.4-.6-3.2-.2-4.3 2-7.9a21 21 0 0 1 12.5-9.1l-.7-5.4 2-.2a43 43 0 0 1 7 .1l.6.4a14 14 0 0 0-4.5 10.5c.2 3.7 1.9 4.6 4 4.8l-.2 3.6c-2.2 2.6-5.6 6.6-5.4 10a5 5 0 0 0 1.7 3.4l-.2.7-1.9-.4-4-.3c-1.9-.3-3.3-1.2-3.6-4.7z" fill="#f0a3ab"/><path id="path29" d="M172.8 242.7c.1 2.7 2.6 4.4 3.1 7.1-3.9-.4-7-3-7.2-7.6q-.1-1 .4-2l4 .3v.5q-.4.8-.3 1.7" fill="#9e9297"/><path id="path30" d="M151.2 219.7c.5-2.7 5.4-10.3 18.7-11.9l.7 5.4a21 21 0 0 0-12.5 9.1l-2.5.1q-.3 0-.4-.2c-1.7-.7-4-1-4-2z" fill="#f0a3ab"/><path id="path31" d="m161.3 186.4-.1.6a12 12 0 0 1-8.6 4q-5 .2-9.4-1.8c-3.6-3.5-8.5-6-12.9-7.2 1.5-1.3 2.2-2.4 2.2-2.4l1.8-.1c8.3-.6 15.8 5 27 6.9" fill="#9e9297"/><path id="path32" d="M161.4 236.4v.3c-1.4.1-1.6 2.4-1.5 3.9q.2 2.3.9 4.8a10 10 0 0 1-5-8c-.2-1.5.3-3.3.8-4q.9 3 4.8 3" fill="#9e9297"/><path id="path33" d="m155.2 222.2-.4.2c-5.3 2.7-6 10.8-6.5 3.5 0-1.3.8-6.1 2.1-6.2h.8v.6c0 1 2.3 1.2 4 2" fill="#9e9297"/><path id="path34" d="M115 103a59 59 0 0 1-9.5-11l-.3.1v-.4c-.8-13.5 3.5-17 8.4-19.5h3.3c1.1 4.8 6.6 6.9 7.3 11a31 31 0 0 0 8.1 16 8 8 0 0 0-.7 3.9c.5 7.7 14.3 10.6 15 21.8v1.9C144 119.5 128.4 115 115 103" fill="#9e9297"/><path id="path35" d="M128.2 192.5c5 3.4 12.1 7 12.4 11v1.5q0 .6.5 1.1c-5.7-5.3-13.5-5.7-20.6-7.7l-4-2.7.1-.4c-1.8-1.9-2-4.3-2.9-6.7v-.7h.2a27 27 0 0 0 16.3-5.9 31 31 0 0 1 13 7.2q4.7 4.3 5.2 10.2c.6 9-6-7.5-19.7-7.3z" fill="#9e9297"/><path id="path36" d="M136.2 150.7c.3-1.5 1.5-3.4 3.4-3.6h.2c3.7-.3 5.5 1.6 5.7 4a9 9 0 0 1-8.7 9c-8 .6-14.5-6.5-14.8-11-.5-6.8 5.2-12 11.5-12.3q4.3-.3 7.8 2.5l.4-.2q.4.7.6 2.1c.1 1.6-.4 2-3 2.3h-1l-3 .2c-4.8.3-6.7 2.8-6.6 5.5 0 .7 1 1.7 2.9 1.6l2.4-.3q1.1-.1 2.2.2" fill="#9e9297"/><path id="path37" d="m139.3 143.5.3 3.6c-2 .3-3.1 2-3.4 3.6l-2.1-.2q-1.3 0-2.5.3c-1.9.1-2.7-.8-2.8-1.6-.2-2.7 1.8-5.2 6.5-5.5l3.2-.2z" fill="#9e9297"/><path id="path38" d="M105.6 107.6c-13.3-.7-21.2-19.4-21.6-24.4-.1-2.8 2.3-5.7 2.1-7.6 0-.7-2-4.6-4.9-4.9l.5-2.5c3.6 2 8.2-4.5 12.1-4.7 1.9-.1 2.3.5 2.7 1q.3.5 1.4.6c.8 0 8.4-9 7.8-18.7q-.3-3-1.3-5.3c-1-3-2.5-5.8-2.7-9.9C101 22.4 114 15 122 14a28 28 0 0 1 10.2 20.5c.3 4.1-1 10.1-2.7 15.8a91 91 0 0 1-5.7 15c-2.6 4.1-6.6 5.3-10.2 7-5 2.5-9.3 6-8.4 19.6v.4c.5 7 2.7 8.5 3 13 .1 2.5-.4 2.4-1 2.4z" fill="#f0a3ab"/><path id="path39" d="M131.5 131.4c.2 4 .3-.6-6-2.6-8.2-3.5-17-8.5-19.4-16.6a14 14 0 0 1-.6-4.6h1.7c.6 0 1 .2 1-2.5-.4-4.4-2.5-6-3-13h.2q4.3 6.4 9.6 11-.5 1.8-.3 3.4c.8 11 16 13.8 16.8 25" fill="#9e9297"/><path id="path40" d="m116.4 195.7 4 2.7c4.4 3.4 8 7.9 8.3 12.7q.3 3.8-2.3 8c-.9-7.4-8.8-9.5-13.6-13.8v.1a17 17 0 0 0-6-3.4l-1 .4-1.2-2.6a18 18 0 0 1-.4-12.3l.1-.5q4.6 1.1 9.4.9v.6c1 2.4 1.1 4.9 2.9 6.8z" fill="#9e9297"/><path id="path41" d="m105.9 202.5 1-.3q3.2 1.1 5.8 3.3a19 19 0 0 1 6 16.8c-7.4-10.6-14.3-12-19.8-14.8l-.3.5q1.2 2.6 1.3 5.2.1 6-3 11.4.4-1.7.4-3.5-.5-3.8-3.5-7.5C90 208.4 84 203 82.1 196.7q-.5-1.5-.6-3.2-.2-3.8 1.9-8.2l.4-.4c2.7 4.6 9.4 4 12.8 8.1 2.2 2.7 3.2 5.5 6.1 7.4l2-.4z" fill="#9e9297"/><path id="path42" d="M29.5 25.8h.1l.5-.3c2.7 5.6 10.2 6 14 10.4l1 1.5c1.4 2.6 1.6 5.4 1.9 8.2q0-.2.4-.2c5.2-.3 2.8 12.5 9.3 12 3-.1 4.6-3.6 4.9-5.7V50c-.4-6.3-5-9.2-9.4-13.2l4.3-.6c-2.5-7.7-1.4-16.3-6.8-23l-6 .6c-.8-6.2-2.7-6-3-11-.6-9.8 8.3-15.6 8-21.3l-.1-1.1c-.4-5.8 3.2-8.1 9-8.5C68-28.7 75-18 83.3-12.7c7 4.5 18.6 3.5 20 14.4q0 .3.7.8c-3 4.2-5.5 9-7.8 13.2a7 7 0 0 0-4.2-1q-2 0-3.4.6l-.8-1.8q-3.5-2-6.3-4.5Q73.8 2.5 70-7h-.3c-1-4-4.2-7.8-8.8-7.5l-1 .2c-3.7 3-8.1 7.8-7.8 13 .1 2.4 3.5 4.2 6.6 5.3l-.5 1.5c3.9 6.4 12.5 11.9 13 19.9q.1 1.8-.3 3.7l1.2.2a10 10 0 0 0-.3 3.4q.1 1.3.5 2.6c1.6 6.6 7.4 9.3 8.3 16.7v.8q0 2.9.2 5.6-2-1-3.7-2.2c1 7.7 2.7 11 4.6 12q-.1 1.4-.5 2.6c-1.6 5.8-6.1 11-13.1 11.4C57 83 47.6 72 43 60.7q-1-2.5-1.7-5c-.7-2.7-3.5-3.8-6.1-4.7l.4-1 4.2-4.4c-2.8-6.4-6.4-11.9-13.2-14.7l-.2-.1c.5-1.9 1-3.9 3-5M96 1.1a5.8 5.8 0 1 0-11.6.8A5.8 5.8 0 0 0 95.9 1" fill="#f0a3ab"/><path id="path43" d="m104 41.3.5-.2a17 17 0 0 1 1.3 5.3c.6 9.6-7 18.6-7.9 18.7q-1 0-1.3-.6l.2-.1c3-4 2.8-10.3 3.1-15.3.2-4.4.7-8 3.5-8.2q.4 0 .6.4" fill="#9e9297"/><path id="path44" d="m72.6 108.6-.3.2a22 22 0 0 0-2 10.2 17 17 0 0 0 5 11.1c-6.4-1.4-9.5-5.5-11.5-10.3s-2.9-10.5-4.6-15.3h-.4q1.4-7.5 1-15.2l1.5-4.1a26 26 0 0 1-11.2-7 41 41 0 0 1-10-16.3l3-1.2C47.6 71.9 57 82.9 68 82c7-.4 11.5-5.5 13-11.4h.1c3 .3 4.9 4.1 5 4.9 0 2-2.3 4.8-2.2 7.5.4 5.1 8.3 23.8 21.6 24.5v1.3q0 1.8.6 3.3h-.4c-2.6 1-3.2 4.1-3 6.8.4 5.5 4.9 10.5 9.8 13.2-13.6.1-21.6-11-27.2-21.7q-.3 3-.1 6c.3 5.2 2.2 10.3 7 13.2-10.2-1.3-15.9-12.3-19.7-21" fill="#9e9297"/><path id="path45" d="M80.8 58.3q2.6 1.3 5.3 1.1 3.4-.2 5.2-2.1c4.8-2.2 5.7-5.1 5.8-8.2h2.7c-.2 5.1-.2 11.4-3 15.4h-.3c-.4-.5-.9-1-2.7-1-4 .3-8.6 6.7-12.2 4.8-1.9-1-3.5-4.4-4.6-12z" fill="#9e9297"/><path id="path46" d="M89.7-4.3c3.2-.2 6 2.3 6.2 5.4a5.8 5.8 0 1 1-6.2-5.4m4.5 5.6a4.1 4.1 0 1 0-8.2.5 4.1 4.1 0 0 0 8.2-.5" fill="#ab7c53"/><circle id="circle46" cx="90.104" cy="1.519" r="4.106" fill="#b3c9bb"/><path id="path47" d="m104.4 187.1-.1.4a17 17 0 0 0 .3 12.4l-2 .4c-3-1.8-4-4.6-6.2-7.4-3.3-4.1-10-3.5-12.7-8q-1-1.6-1.1-4.1v-.2q2.7 1 4.4.9c3.2-.2.7-3.9.6-5.5 4 5.8 10 9.6 16.8 11.1" fill="#9e9297"/><path id="path48" d="M72.1 29.3 71 29q.5-2 .3-3.7c-.5-8-9.1-13.5-13-20l.5-1.4 2 .7 3.3.8c.4 0 1.3-.6 1.5-1.1 1-4 4.9-4 4.5-9.5l-.3-2h.4a40 40 0 0 0 17.7 20.5l.8 1.8c-6.7 2.6 2.4 12.1 5.1 24.3q.6 2.4.7 4.7c.3 5.1-.2 10.2-3 13q-2 2-5.2 2.2-2.7.1-5.3-1.1-.2-2.7-.2-5.6V52h.6q.4-.4 1-.4h1.2c1.3-.1 5.8-5 5.4-10.4-.2-2.6-1.8-5.8-1.9-5.9l.2-1h-1q.6-1.2.4-2.6a5.8 5.8 0 1 0-11.6.7l-3.1.4v-.2q-.1-1.6.2-3.2" fill="#f0a3ab"/><path id="path49" d="m72.2 35.2-.4-2.6 3.1-.3A5.8 5.8 0 0 0 86.2 34h1l-.2 1c0 .2 1.7 3.3 1.8 6 .4 5.4-4 10.2-5.3 10.3h-1.2q-.7 0-1 .4h-.7c-1-7.2-6.7-10-8.4-16.6" fill="#ba7f53"/><path id="path50" d="M86.6 31.6q0 1.5-.4 2.5a6 6 0 0 1-5 3.7 5.8 5.8 0 1 1 5.4-6.2m-1.7.1a4.1 4.1 0 1 0-8.2.5 4.1 4.1 0 0 0 8.2-.5" fill="#ab7c53"/><path id="path51" d="M94 162c.3 3.7-2.3 5.6-6 5.9-5.6.3-9.1-5.2-9.5-10.9q0-.7.4-1.9l2.3.2v.4c0 1.3 3 4.2 5.3 4a3.4 3.4 0 0 0 3.2-3.4c0-1.8 4 1.6 4.3 5.8" fill="#9e9297"/><circle id="circle51" cx="80.759" cy="31.963" r="4.106" fill="#b3c9bb"/><path id="path52" d="M52.6 218q-2.2-.2-4.2-1.1l-.2.3c-4.3.7-18.7 6.6-21.5 7.7l-.5.2-.7-.1a8 8 0 0 1-3.4-3 12 12 0 0 1-2.4-4.4c-.1-2 3.1-6.8 5.9-7.5l-.2-.6 1.2-.3.2-.4a24 24 0 0 0 11.6 2.5 12 12 0 0 0 9-4.6l1-5.1c5 1.2 9.4 2.6 16 2.1 6.2-.4 12.5-2.5 17-7l.5-.1c2 6.4 8 11.8 11.7 16.9l-1 .8a35 35 0 0 1-28.4 12.3H63c-3 2.9-7 4-11.5 4.2h-4.7l-6.5-.2c4-1.1 6.6-7 12-9.5z" fill="#f0a3ab"/><path id="path53" d="M60.9-14.7c4.6-.3 7.8 3.7 8.8 7.6l.3 2c.3 5.4-3.5 5.5-4.6 9.5-.2.5-1 1-1.5 1l-3.3-.7-2-.7c-3-1.1-6.4-3-6.6-5.3-.3-5.2 4.1-10 8-13z" fill="#af2d2d"/><path id="path54" d="M61.5 50v1.7c-.3 2-2 5.6-4.8 5.8-6.5.4-4.1-12.4-9.4-12h-.4c-.3-2.7-.4-5.5-1.8-8L44 35.8l6.2-.7 1.9 1.8c4.4 3.9 9 6.8 9.4 13" fill="#c13d4b"/><path id="path55" d="M63.9 119.8v.8c0 3.8-.6 3.2-6.7 14.3l-3-1.9a9 9 0 0 1-1.4-3.7q0-1.7.9-3.2c2.2-3.7.4-7.5 1.2-11.5q2.9-5.1 4-10.2h.4c1.6 4.9 2.5 10.5 4.6 15.4" fill="#9e9297"/><path id="path56" d="M37.2 156.7A99 99 0 0 1 21.4 123l-1.6-6a24 24 0 0 0-11.5-2h-.8v-.2l-.2-1c-.2-3.6 5.8-7.5 11.2-11.5C24.6 97.6 30 93 25 88.6l-.5-.8q-.8-1-1.5-2.3l2.2-.2h.9c7.4-.6 15.9-5.8 15.4-14l.4 3.4c1.7 27-19 20.7-18.2 31.9.3 4.4 4.7 6.8 9.3 6.5 3.5-.2 5-2.4 4.8-4.9a3 3 0 0 0-2.1-2.8c.8.3 1.6 1 2.2 1s9.2-10.9 9.6-16.1v-.4q1.5 3 1.6 6.1c.4 5.3-1.3 10.7-1 16.1.3 3.4 2 8.5 5.3 11 0-1.2-.5-2.5-.6-3.9q-.2-1.3.7-2.6l1.4-2.2c-.8 4 .9 7.9-1.3 11.6q-1 1.5-.9 3.1.2 2 1.4 3.8l3 1.9-2.5 4.6q-.3 2.5-.1 5v.8c1 10.5 6.6 19.3 13.1 25.5l-.8.3a32 32 0 0 1-20.8-6v-.2.2a41 41 0 0 1-8.8-8.3" fill="#f0a3ab"/><path id="path57" d="m54.9 114.6-1.4 2.1q-1 1.4-.7 2.7c0 1.3.6 2.6.7 3.8-3.3-2.4-5.1-7.5-5.4-11-.3-5.4 1.4-10.7 1-16q0-3-1.5-6.2v.4q-.6-.3-.6-1l-.3-3.4q-.1-2.6.6-5.4L50 78a26 26 0 0 0 11.2 7l-1.5 4q.3 7.8-1 15.1-1 5.3-3.8 10.4" fill="#9e9297"/><path id="path58" d="m56.5 36.3-4.3.6-2-1.8a21 21 0 0 1-6-14.1l-.3-4.4V16q0-1.1-.2-2.1l6-.5C55 20 54 28.6 56.6 36.3" fill="#f0a3ab"/><path id="path59" d="m30 25.5-.4.2-.1.1-.2-2-.2-6C28.5 8.5 24 9.7 23.7 5c-.2-2.7 1.4-4.8 4.8-5 5.4-.3 12.1 11.7 14.4 16.8h.9L44 21a21 21 0 0 0 6.2 14.1L44 36c-3.7-4.5-11.3-5-14-10.5" fill="#c13d4b"/><path id="path60" d="M35.6 105.5h-.7l-.4.1h.4q.4-.2.7 0m.1 0c1 .5 2 1.4 2.1 2.9.2 2.5-1.2 4.6-4.8 4.9-4.5.2-9-2.2-9.2-6.6C23 95.5 43.7 102 41.9 75l-.4-4 2-1.6q2.7 4.9 6.6 8.8l-2.7 2.6q-.7 2.8-.6 5.5l.3 3.3q0 .7.5 1c-.4 5.3-9 16-9.6 16.1-.6 0-1.4-.7-2.3-1" fill="#9e9297"/><path id="path61" d="M54.5 169.5c.3 4.4-2 8.2-4.2 12v-2.8c-.3-4.9-2.9-9-4.3-13.6q4 2.8 8.5 4.3" fill="#9e9297"/><path id="path62" d="m43 60.7-2.8 1.2q-.5-.7-1.4-.8c-.7 0-1.3 1.7-1.4 2.8h-3v-1.6q-.2-4.2-2-8.3 1.7-.8 2.8-3c2.7.8 5.5 2 6.2 4.7q.6 2.4 1.7 5" fill="#9e9297"/><path id="path63" d="M37.4 64c0-1.3.7-2.8 1.4-2.9q1 .1 1.4.8.4.5.4.8 1.2 3.4 3 6.7l-2 1.5v.5c.5 8.4-8 13.6-15.4 14l-.9.1A30 30 0 0 0 34.5 64z" fill="#9e9297"/><path id="path64" d="m40.4 230.6-1 .2c-4 .3-8.7-3.4-12.8-5.9 2.8-1 17.2-7 21.5-7.7l.2-.3q2.1 1 4.2 1l-.2 3.2c-5.4 2.5-8 8.4-12 9.5" fill="#f0a3ab"/><path id="path65" d="M19.6 37.4c0-3.2 2-3.4 4.4-3.5q1.9-1 2.4-3.2l.2.1C33.4 33.7 37 39.2 40 45.5L35.7 50l-.5 1q-2-.5-3.7-1.2c-6-1.7-11.8-9.7-12-11.7z" fill="#f0a3ab"/><path id="path66" d="M24.2 205c-.2-3.8 5.3-4.6 9.9-4.8 6-.4 10.4.4 14.4 1.4l-1.1 5.1a12 12 0 0 1-9 4.7 24 24 0 0 1-11.6-2.6q-2.3-1.4-2.6-3.7" fill="#f0a3ab"/><path id="path67" d="M46 165v.2z" fill="#9e9297"/><path id="path68" d="m46 165.2.2 3c.4 6.1-.3 12.6-6.5 16a23 23 0 0 0 1.6-10.7c-.4-5.3-2-10.7-3.2-15.7q3.5 4.2 7.9 7.4" fill="#9e9297"/><path id="path69" d="M34.4 62.3V64c0 8-3.3 16-9.2 21.5l-2.1.2c-4-7.2-5.1-15.8-12-20.4 2.6-2 2-5.4 3.4-8.2v-.4q1.2 1.4 2.5 2.3c2-3 1.4-4.2 4-4.4 2.8-.2 5.7.5 8.3.3q1.8 0 3.1-.8 1.7 4 2 8.3" fill="#f0a3ab"/><path id="path70" d="M32.4 54q-1.5.7-3.1.8c-2.6.2-5.6-.4-8.4-.3-2.5.2-2 1.4-3.9 4.4l-2.5-2.3a20 20 0 0 1-5.1-11.5c-.4-5.6 3-9.2 5-9.4 1.6 0 3.6.9 5.2 1.7v.6c.1 2 5.9 10 12 11.8l3.7 1.2a7 7 0 0 1-2.9 3" fill="#9e9297"/><path id="path71" d="M35.6 105.5h-1.1l.4-.1z" fill="#9e9297"/><path id="path72" d="M-9.4 140c3.8-8 10.5-17 18.4-17.6q5.3-.1 10.5.5l2-.2a99 99 0 0 0 15.8 33.9v.8c1 15.4-13 20-15.3 24 3-7 4.9-14.5 4.4-21.8v-.3c-3.2 8.2-11.3 9.5-12.9 21.5-2.5-6.1 3-13 2.4-22.3-.3-4.2-1.5-8.4-1.8-12.5-6 5.2-7.7 13.7-16.7 14.3a14 14 0 0 1-4.1-.4c6.2-4 8.2-10.3 10.1-16.2-5.5 1-12.4.8-16 5.8 0-2 1.2-5.6 3.2-9.7" fill="#9e9297"/><path id="path73" d="m22 88.1 2.5-.2.5.8c5 4.3-.4 9-6.5 13.5l-3-3.7c-4.8-4.1-11.2-2.2-16.2-3a20 20 0 0 1-11.7-8 15 15 0 0 1-2.8-7.4l.1-2.3c.5-3.1 2.1-6 2.1-6.2q-.2-1.2-1-2.5l1.2-1.3C-5.8 70-2 72.6.3 75.2l2.8-.4c5 5.2 10.4 10.5 18 12.5q.6 0 1 .8" fill="#775888"/><path id="path74" d="M3.2 74.8.4 75c-2.3-2.5-6.1-5-13-7.4l-.3-3.5c8.2-.5 17.5 1.3 24.2 1.5q-.4 0-.4-.5l.1-.1c7 4.5 8 13.1 12.1 20.4l1.4 2.3-2.3.2q-.5-.8-.9-.8a39 39 0 0 1-18-12.4" fill="#994d64"/><path id="path75" d="M21.4 122.9h-2q-5.1-.5-10.5-.4c-8 .6-14.6 9.7-18.4 17.4l-.6-3.5q-.4-8.8 3.4-14c3-4.3 8-6.9 14.1-7.4h.9q6.2-.5 11.4 1.9.6 1.7 1.7 6" fill="#9e9297"/><path id="path76" d="m26.8 208.9-.2.4-1.2.4c-3.7.9-7.5 1.7-10.3 4.5 1-4.5 4.7-8 9.1-9.1v.1q.2 2.3 2.6 3.7" fill="#9e9297"/><path id="path77" d="m15.5 98.5 3 3.7c-5.4 4.1-11.4 8-11.2 11.5l.2 1v.3c-6 .6-11 3-14 7.4l-.3-.2c-.5-.4-1.3-.8-1.3-1.2-.2-3 .5-6.4.3-9.5-.8-11.4-15.9-10.7-16.4-19.2v-1c.2-2.6 2.6-3.5 5.8-3.7q3-.1 5.8.2l.4-.3c2.8 4.1 7.5 7.1 11.7 7.9 4.8 1 11.3-1 16 3.1" fill="#f0a3ab"/><path id="path78" d="M25.5 225v.2c-4 2.3-4.4 14.5-5 4q-.5-3.6 1.2-6.9l.4-.3q1.6 2.2 3.4 3" fill="#9e9297"/><path id="path79" d="m21.9 181.6-.3.6z" fill="#9e9297"/><path id="path80" d="m10.8 65 .2.1-.1.2z" fill="#9e9297"/><path id="path81" d="m-13 64.3.3 3.4L-14 69q.8 1.4 1 2.6c0 .1-1.7 3-2.1 6.2l-5-.6a4 4 0 0 0-2.6-.8c-2.8.2-5.5 1.4-6.8 3.3l-.2-.2q-1-1.3-1.2-2.6c-.2-3.5 4.1-11.7 17.4-12.5z" fill="#f0a3ab"/><path id="path82" d="m-12.3 87.6-.4.2a36 36 0 0 0-5.8-.2c-3.2.2-5.6 1-5.9 3.8h-.5c-1.6-3-5-5.3-5.2-8.6q-.1-1.8.8-3c1.4-2 4-3.1 6.7-3.3a4 4 0 0 1 2.7.8l5 .6-.2 2.2a14 14 0 0 0 2.8 7.5" fill="#f0a3ab"/></g></g><circle id="circle82" cx="90.096" cy="1.396" r="2.022"/><path id="path83" d="M80.6 30a2 2 0 1 1 .3 4 2 2 0 0 1-.3-4"/></g><g id="blob_brush"><path id="path84" d="M90.7 136.6a1 1 0 0 0-1-1.2h-1.3q-1.5-.4-3 .8-.5-.3-1 .2-.9.7-1.3 1.8v1.3l-.1-.3V138l.1-2.6q.3 0 .4-.6v-.5l.3-.7.1-.1v-.2l-.2 1.5h.1l1-3.2v-.5l.2-.5c.1-.4-.5-.5-.6-.2l-.1.2H84q0-.2-.2 0l-.2.2-1.2 1.5-.2.2-.1.2-.7 1q-.8 0-1.2.7a6 6 0 0 0-.7 2.6q-.3 0-.4.4-.6 1.4-.3 3 0 .6.7.8.1.5.7.5-.3.8.2 1.6l1.8 2 .2.1.2.2q-.8.8-.5 2l-.4.4c-.4.7.4 1.5 1 .9a104 104 0 0 0 6.4-6.8l.2-.5.6-.6.1-.5.1-.2.3-.8q1.4-1.8.2-3" fill="#9e9297"/><path id="path85" d="M188.4 149.3c.4-.4.2-1.2-.4-1.2q-.8.2-1.5.9a4 4 0 0 0-2 3.4c0 .4.7.5.7 0q0-.6.4-1.3l.1.6q.2.3.3 0l.4-.4q0 .5.2.8c.1.4.7.2.8-.2v-2l.2-.1q-.2 1 .3 2c.3.3.9 0 .6-.4q-.5-1-.4-2z" fill="#9e9297"/><path id="path86" d="m222.4 280-.5.5h-.2q0-.5-.7-.6v-.1q-.3-.4-.7 0h-.2l-.5-2.5c-.1-.4-.6-.5-.7 0l-.2 1.4q-.6.2-.6.8t.2 1.3q-.9 2.8.7 5.2 0 .2.3.2l.2 1.3q.3.2.4 0l.3 1q.4.2.4-.3l-.3-.9q.7.3.7-.4l-.3-2.2q.4-.4.4-1l-.2-.6.1-.7h.5l.4-.7q.4 0 .5-.4 0-.3-.2-.5l.3-.6c.3-.2 0-.3-.1-.2" fill="#8f3e5c"/><path id="path87" d="m233.7 297-.2-.2-.1-.4q-.8-.7-.7-1.8 0-.3-.3-.3l-.5-1.1v-.4l.2-.3v-.5c.7.2.8-.8.2-1.1.2-.3 0-.9-.6-.9l-1 .2h-.6l-.5-.1c-.1-.4-.6-.3-.5 0v.1h-.1l-.4-.5c-.3-.5-.9 0-.7.4l.7.9q0 1 1 1.5.3 1.5 1.1 2.9h.2l.3.7a4 4 0 0 0 1.3 1.6q.5.2.6-.2c.6.3 1-.2.6-.5" fill="#8f3e5c"/><path id="path88" d="M243.5 293.5a2 2 0 0 0 0-1.9v-.8q0-.3-.3 0v.4l-.1.1h-.2v.4l-.3.4v-.3q.3-.5 0-.8-.3-.5-.7-.2h-.2v-.2c.3 0 .5-.5.2-.6q-1-.2-1 .8-.4-.2-.6.1c-.4-.6-1.4-.3-1.2.5l.2.8.1 1q.2.4.5.5.2 1 .8 2l1 1.3h.3v.2h.3v.1l.2.1v.1q.3.3.5-.1v-.6c.4.3 1-.4.7-.9l-.4-.7-.1-.5v.2c.2.2.6-.1.4-.4z" fill="#8f3e5c"/><path id="path89" d="M258.3 286q-1.2 0-1.3 1.2l.2.3h-.2l-.2-.1q-.5-.2-.8 0h-.1v-.2c-.3-.4-1 0-1 .4q-.1 2.7 1.4 4.7l.2.1.6.8h.3v.4c0 .4.8.4.7 0h.3l-.1-1q.4-.4 0-1 0-.2-.3-.5l.2-.6.2-.4v-.5l.1-1.3v-.4q.2-.2 0-.4l-.4-.4h.3c.7 0 .6-1.3-.1-1.2" fill="#8f3e5c"/><path id="path90" d="M198.3 232q-1.3 0-2.4-.5-.2 0-.5-.3-.8-.2-1.3-.7l-.5-.6-.4-.3v-.2c-.1-.5-1-.5-.8 0v.3l-.1.5v.4l-.2-.3c-.1-.4-.7-.3-.7.2q0 .8.7 1.4t1.5.5l.5.2q.4.3 1 .3.4 0 .7-.3l1.3.3q.4-.1.4-.5h.9c.3.1.3-.4-.1-.4" fill="#8f3e5c"/><path id="path91" d="m187.8 246.4-.2-.2v-.3l-.5-.3q.5-.4 0-.8l-1-.5q.6-.3.2-1a3 3 0 0 1-1.3-3c.1-.5-.5-.7-.7-.4l-.1.2q-.4-.2-.6.3l-.1 1.1h-.1l-.2-.4c-.1-.5-.8-.3-.8.2v.3l.2.4q-.3 0-.4.3l-.2-.4c0-.3-.5-.3-.6 0q0 1 .8 1.8l.6.9c.4.4 1.1-.2.7-.6l-.3-.3-.1-.3-.3-.2v-.6a6 6 0 0 0 1 2q.9 1.3 2.4 1.6.5.6 1.2 1c.5.1.8-.6.4-.8" fill="#8f3e5c"/><path id="path92" d="m175.3 249.3-.2-.5v-.3l-.3-.3-.7-1.6v-.1a10 10 0 0 0-1.5-3.9q.3 0 .3-.6l.5-.1q.5-.4.2-.9-.4-.4-1-.4h-.8l-1-1c-.4-.2-1 .3-.6.7l.3.4-.4-.1h-.4q-.3-.1-.6.2l-.2.7a5 5 0 0 0 1 4.8l.2.1q.5 1.7 2 2.7.5.2.7-.3l.3.3q.3.3.7.2l.5.4c.4.6 1.3.2 1-.4" fill="#8f3e5c"/><path id="path93" d="M160.8 236.4q-.3-.2-.9-.2 0-.3-.2-.3H158v-.1l-.3-.2-.6-1h-.2v-.2q-.2-.2-.6-.1v.5q-.6.1-.4 1l.1.3q-.9.2-.9 1.2c.3 2 1.2 4.4 3 5.4h.1l.5 1 .3.7q.2.5.6.3v.2c.3.5 1.2.4 1.1-.2q0-.8-.3-1.4v-.5l-.6-4v-.2q.3-.2.2-.5v-.7h.2q.3 0 .3-.3h.1c.3 0 .4-.5.1-.7" fill="#8f3e5c"/><g id="g95" fill="#8f3e5c"><path id="path95" d="M154.7 222.3q0-.2-.4-.5l-.6-.3h-.5v-.1q-.2-.7-.8-.4l-.1.3-.4-.2-.3-.3v-.1l-.2-.1-.2-.3v-.2q0-.6-.4-.3l-.2.2q-.5 0-.9.4-.5.6-.3 1.4l-.7 2.4q-.7 1.6-.5 3.3l.3.2-.1.3h-.1v.3c-.2.5.4.7.6.4l.3-.4.4-.6.6-1q.4.2.7-.3 0-.2.3-.5v-.1q.5-.5.6-1 .6-.9 1.4-1.6v-.2h.5c.4.4 1.3 0 1-.7"/></g><path id="path96" d="m40.6 231.4-.1-.3q-.1-.7-.7-.4h-1.6l-1.1-.1-.3.1h-.5l-.2-.5q0-.2-.3 0v.2q-.4-.3-.7 0l-.2-.5q.3 0 .2-.2-.3-.4-.7.2-.1.8.1 1.4l.2 1q0 1.3.5 2.4v.4l.1.2.7 1.6.8 1.9c.1.3.7 0 .5-.3v-1.2q.4.3.4-.2a4 4 0 0 1-.2-1.9v-.6l.1-.3q.4 0 .4-.4h.2l.3-.3.3-.2 1.7-1.4q.3-.5 0-.6" fill="#8f3e5c"/><path id="path97" d="M54 231.2h-2.2l-.3-.2q-1 0-1.9-.2t-1.8-.2q-.2 0-.3.2-.2 0-.2.3v.3q.3 1.2.8 2.3l.1.7q0 1.3.6 2.3l.2.2v.2c0 .5.8.5.8.1l.1-.6.3-.3v-.2q.8-.4 1.3-1.3v-.2q1-.7 1.7-1.6l.1-.3.3-.1q.4 0 .4-.4.4-.8 0-1" fill="#8f3e5c"/><path id="path98" d="M70.1 226.6c0-.3-.5-.4-.6 0l-.2.1h-.5l-1.4.2h-1.8l-.4.1q-.2-.3-.5 0t0 .5l.1.4h.1l.6 1q.4.5.6 1.2 0 .8.3 1.4 0 .2.2.3l-.3 1.1q0 .3.2.5v.2l.3.3q0 .3-.3.5v.5q.3.3.7.1 1.2-1.6 2-3.5l.2-.2.3-1 .1-.2a4 4 0 0 0 .3-2.3z" fill="#8f3e5c"/><path id="path99" d="M24.5 224.8q0-.3-.2-.3l-.4-.2-.5-.3-.8-1.2-.2-.1.1-.1q0-.4-.3-.3v-.2c-.1-.4-.6-.3-.6 0v1.1l-.2.4v.2l-.4.5-.3 1.6v1.8a7 7 0 0 0-.4 4.4q0 .2.3.3v1c.2.6 1 .6 1 0q.4-.8.5-1.9.3 0 .4-.6v-.7q0-1 .4-2.1l.4-.4q.7-1 1-2 .5-.4.2-1" fill="#8f3e5c"/><path id="path100" d="M25.7 208.5h-.1v-.1l-.4-.4-.2-.2v-.3l-.6-1-.5-.6v-.2q0-.3-.4-.4-.5-.3-.5.3v.2h-.4l-.2.4-.7-.1-.3-.1a2 2 0 0 0-1.3.6v.5q-1.4.6-2.1 1.7l-1.7 1.4q-1 .7-1.5 1.6-.2.5.3.6v.4l.1.2-.2.2q-.2.4.2.2.3 0 .4-.4l.2-.2.4-.2.2-.3 1.3-.5h.3l.2-.1 2-.8 2.2-.7.2-.3h.2q.4 0 .6-.4h.7q.3.4.8.1.3 0 .5-.2c.8 0 .9-.8.3-1m-3-.7h-.5l.6-.3.2.2z" fill="#8f3e5c"/><path id="path101" d="M97.7-.6q.3-1-.5-1.7-.4-.4-1-.6-1.2-1.7-3.4-2.6-.3-.4-1-.2l-.5-.2H90c-.6.2-.7 1-.1 1.3q.8.5 1.5.5l.3.2c2.4 1 4.2 2.2 3.9 5.1q0 .8.4.9c-.5 1.5-1.6 3-2.3 4l-.2.4q-2.4 1.3-5.3.6c-2.5-.5-3.7-2.7-4.7-4.8h-.3C82 9.2 94 11 96.7 5.6v-.2h.1l.8-2.3-.1-.5q.6-1.8.2-3.2" fill="#ba7f53"/><path id="path102" d="m375-.3-2.7-.3q-.3.1 0 .2l2.7.5q.3-.2 0-.4" fill="#ba7f53"/></g><g id="lineart"><g id="g103"><path id="path103" d="M104.5 3.4 104 3l-1-.8-.1-.2q-.2 0-.2-.3v-.4l-.2-.6V.2q-.3-1.2-1-2.5L101-3l-.3-.3-.3-.3-.5-.7-.7-.6Q98-6.1 96.1-7l-4.3-1.7-4.8-1.6q-1.4-.3-2.7-1L83-12l-.3-.2-.2-.2-.6-.5-.6-.4-.6-.5-1.2-1-2.2-2q-4.5-4.4-10-8.2-2.8-1.7-6-2.5l-1.7-.2h-1.8q-1.6 0-3.4.4-1.6.4-3 1.4-1.5 1-2 2.6-.7 1.6-.5 3.3v2.8l-.2.9a15 15 0 0 1-1.5 3.3l-1.9 3q-1.9 3-3.2 6.3-1.2 3.2-1 6.6l.2 1.7.4 1.6 1.3 3q1 3.4 1.2 6.6l.2 3.2v1.6l.2 1.5a19 19 0 0 0 4.2 10.4q3.4 3.9 7 6.7l2.9 2.8q1.2 1.5 2 3 1.5 3 1.4 4.9v1.7H61V50q0-1.6-1.2-4.4-1.5-2.7-4.8-5.5l-3.5-3q-1.9-1.7-3.6-3.9a31 31 0 0 1-2.8-5q-1-2.7-1.4-5.9c-.4-4 0-8.5-1.5-12.6l-1.3-3.1q-.4-.8-.5-1.8L40 3.1q-.3-3.6 1.1-7 1.3-3.4 3.4-6.3l1.9-3q1-1.4 1.4-3.2l.2-.8v-2.6q-.1-1.8.5-3.6a6 6 0 0 1 2.4-3q1.6-1 3.3-1.4 1.8-.5 3.5-.5h1.8l1.8.3q3.5.8 6.3 2.7c3.9 2.3 7 5.5 10.1 8l2.4 2 1.1.8 1.2.8.6.4.3.2.3.2 1.2.6 2.4 1.2c3.3 1.2 6.5 2 9.3 3.3a15 15 0 0 1 4.7 3.8l.5.7q0 .5.3.8.7 1.5 1 2.7l.1.6.1.5.1.5h.1l.1.2 1.4 1z"/></g><g id="g104"><path id="path104" d="m60.2-14-3 2.6L56-10l-1.2 1.6-1 1.6L53-5l-.5 1.9v1.9q.2.8.9 1.5l1.4 1.3q1.6 1 3.5 1.8T62 4.6q1 .4 1.8.4h.3l.3-.2q.5-.3.5-.6l.3-.8.4-.7q.3-.8 1-1.4l1-1.2 1-1.1.4-.7.1-.3.1-.4q.3-.7.3-1.5v-1.4q0-.8-.3-1.5l-.2-.8-.3-.7-.6-1.4-.4-.6-.5-.7-1-1.1-.6-.5-.6-.5-.7-.3-.8-.2-.6-.2h-.7l-1.4-.2.4-1.2.2.4-.6.8q-.3 0-.5-.2l-1.6-1 2-.3 1.8.1.8.2.8.3q.8.4 1.5 1l.7.4.6.6q.7.6 1 1.3.4.3.5.7l.5.7.7 1.5.3.8.2.7.3 1.7v1.7q0 .9-.3 1.7l-.1.4-.2.3-.4.8-1 1.3-1 1.2a6 6 0 0 0-1.2 1.9l-.3.7q-.3.7-.8 1l-.4.2-.3.1h-.3L63 5.6l-1-.2a28 28 0 0 1-7.4-3.1L53 .9q-.8-.8-1-2v-2q.1-1 .5-2l.8-2 1.1-1.7 1.2-1.6 1.4-1.5 3-2.7z"/></g><g id="g105"><path id="path105" d="m95.8 16-1-.5-.9-.3-1-.2h-1l-1 .1-1 .2-1 .2-.5.2-.4.3q-.9.4-1.2 1.3a4 4 0 0 0-.2 2q.2 2 1.2 4 1.6 3.8 3.5 7.7a48 48 0 0 1 3.5 12.5l.1 2.2v2.1q0 2.3-.5 4.4a14 14 0 0 1-1.6 4q-1.3 2-3.4 3l-.6.2-.5.1-1 .3-1.2.1h-1q-2.3-.2-4.4-1.2-2-.9-3.8-2.2l.7-.4.8 5q.7 2.4 1.6 4.6.6 1 1.4 1.8a3 3 0 0 0 2.1.6q1.1-.1 2.2-.8L88 66q2-1.6 4.3-2.6 1.3-.6 2.7-.4.8 0 1.4.4l1 1 .3.1h.5l.3-.2.4-.5 1.5-1.9a30 30 0 0 0 2.6-4.2q2.2-4.5 2.6-9.5v-1.8l-.2-.6v-1.2l-.4-1.2-.2-.6-.2-.6-.4-1.2-1-2.3q-.8-2.4-1.4-4.9l-.4-2.5.2-2.6q.7-2.6 2.3-4.7 1.5-2 3.5-3.7a33 33 0 0 1 13.6-6.6l2.6-.4h2.5q5 .3 10 2l1.1.5 1.2.4 2.4 1 4.6 1.9q4.6 2 9.3 3.5a40 40 0 0 0 12.1 1.9h1.9l.6-.1 1.2-.2 1.2-.2h.6l.6-.2 1.2-.3 1.2-.4 1.1-.4 2.2-1 1-.7 1.1-.7 1-.8.8-.8.5 1h-4a46 46 0 0 1-12.1-2q-2-.6-3.8-1.6l-1.8-1-1.7-1q-1.7-1-3.3-2.3L153 9.5l-3.3-2.2-3.5-1.9q-1.7-.9-3.6-1.6l-1.8-.6-1.9-.5-2-.4-.9-.1-1-.1-2-.1h-4l-2 .2-4 .4v-1l4-.4 2-.2 1-.1 2-.2h3l1 .1 1 .2q1 0 2 .3l2 .5 2 .6 3.7 1.6 3.6 2 3.4 2 3.3 2.2 3.4 2 3.5 1.9 1.7.9 1.7.8 1.9.7 1.9.6 1.8.5 2 .3q2 .4 3.8.4h5.6l-1.2 1-1 .9-.9.8-1 .8-1.1.7q-1.1.8-2.3 1.2l-2.4 1-1.3.3-.6.2h-.7l-1.2.3-1.3.1H168l-1.3.1h-2.6l-2.6-.2-2.5-.5q-1.3-.1-2.5-.5l-2.5-.8a96 96 0 0 1-9.3-4l-4.6-2.1-2.2-1-1.2-.5-1.2-.4a35 35 0 0 0-9.6-2.1h-2.5l-2.5.3a33 33 0 0 0-13.3 6.4q-2 1.5-3.4 3.5a10 10 0 0 0-2.3 6.8l.4 2.4q.5 2.5 1.4 4.8l1 2.3.4 1.2.3.6.1.6.3 1.3.2 1.2v.6l.1.7v1.3q-.2 5.2-2.6 9.8a32 32 0 0 1-4.2 6.4l-.4.5-.3.2-.1.2h-.2v.1h-.8q-.5 0-.8-.3l-.8-.9-1-.3q-1.1 0-2.2.3-2.2 1-4.3 2.6l-2.2 1.3q-1.1.8-2.5.9-1.5 0-2.7-.8a7 7 0 0 1-1.6-2q-1.1-2.4-1.6-5-.7-2.4-1-5v-.9l.8.6q1.7 1.1 3.6 2 2 1 4 1.2h1l1-.2q.6 0 1-.2l.4-.1.5-.2a7 7 0 0 0 3-2.6 12 12 0 0 0 1.6-3.8 24 24 0 0 0 .4-6.2L94 43q-.1-2.1-.7-4.2-1-4.1-2.7-8T87 23a19 19 0 0 1-1.2-4.3 5 5 0 0 1 .2-2.2q.5-1.3 1.5-1.8l.6-.3.5-.2q.6 0 1.1-.3l1-.2 1.2-.1h1l1.2.1 1.1.4 1 .5z"/></g><g id="g106"><path id="path106" d="m95.7 15.5 4.5-8.2a52 52 0 0 1 9-11q.8-.8 1.8-1.4 1-.7 2.1-1.2l2.2-1q1-.5 2.3-.7 2.2-.6 4.6-.9 2.4-.2 4.8.1l1.1.2 1.2.2 1.2.3 1.1.3 2.3.5 2.3.7 4.4 1.4 4.5 1.4q2.2.6 4.5 1 .5.2 1.1.2h2.2l1.2-.1a15 15 0 0 0 4.2-1.4l.5.9-2.4 1.4-1.2.7-1.3.7-1.2.6-1.4.6-1.3.5-1.3.4-1.4.4-.6.3-.8.1-1.4.3-1.4.2H142l-.4-.2h-1.4l-1.4-.1-1.4-.1v-.7l1.4.1 1.4.1h1.4l.4-.2.3-.1.6-.1 1.4-.2 1.3-.3h.7l.6-.3q.8 0 1.4-.3l1.3-.4 1.2-.5 1.3-.6 1.2-.6 1.3-.6 1.2-.7 2.3-1.5.6 1q-2.2 1.2-4.6 1.6l-1.2.1h-2.4l-1.2-.2-4.6-1-4.5-1.4-4.5-1.4-2.2-.6-2.3-.6-2.2-.4-1.1-.2-1.2-.1-2.2-.2H121l-1.1.1q-1.2 0-2.3.4-1.1.2-2.2.7-1 .3-2 1-1.2.4-2 1.1l-2 1.4q-1.8 1.4-3.3 3.2a51 51 0 0 0-5.4 7.5l-4.5 8.2z"/></g><g id="g107"><path id="path107" d="m42.6 16.8-1-2.2a55 55 0 0 0-9-12.5l-2-1.4Q29.3.2 28.2.3q-1.4.1-2.4.8-1 .6-1.5 1.8-.3 1.2-.2 2.5v.3l.1.3.2.5.3.6.3.5 1.7 2 1.4 2.2q1 2.5 1.2 4.8 0 .6.2 1.1V21l.1 2v.8l.1.8v.8l.2.8v.6l.2.6.3 1 .3.7.3.6-.9.4-.2-.6-.3-.7-.3-1-.2-.7v-.6l-.2-.8V24l-.1-1-.1-1.8V18l-.2-1.1q-.1-2.2-1-4.6-.5-1-1.3-2l-1.8-2-.4-.6-.3-.6-.2-.8V6l-.1-.3q-.1-1.5.2-2.9.6-1.5 1.9-2.2t2.7-.9h1.4l1.3.5q1.2.6 2.3 1.5 2 1.6 3.3 3.6a51 51 0 0 1 6.8 11.4z"/></g><g id="g108"><path id="path108" d="m50 13.2.6.8.3.5.3.6.8 1.3.4.9.4.9.7 1.9.5 2 .5 2.3.7 4.4.5 2 .4 1.8q0 .8.3 1.4l.3 1.2.3 1-1.2.3-.3-1-.3-1.2-.4-1.5-.3-1.8v-2l-.8-4.5-.5-2.1-.5-2.2q-.2-1-.6-1.9l-.4-.8-.4-.8q-.3-.8-.7-1.3l-.4-.5q0-.2-.3-.5l-.6-.8z"/></g><g id="g109"><path id="path109" d="m70.4-7.3.5 1 .5 1.3.4.8.4.8 1 1.8q0 .3.3.5l.3.5.7 1 1.4 2 1.6 2 1.8 1.8L81 8l1 .8.4.4.4.3 1.7 1.3.7.5.7.5q.8.3 1.1.8l1 .6-.4.7-1-.6-1.2-.8-1.5-1-1.6-1.3q-.3 0-.5-.3l-.4-.4-1-.8L78.6 7l-1.8-2-1.6-2-1.4-2-.7-1-.3-.5q0-.3-.3-.5l-1-1.8-.4-.9-.3-.8-.6-1.2-.5-1z"/></g><g id="g110"><path id="path110" d="m60.9 4.3.6.9.7 1 1 1.2.6.7.7.7 1.5 1.5 3.4 3 3.6 3 1.6 1.5 1.3 1.4 1.2 1.2.8 1 .6 1-.7.4-.7-.8-.7-1-1-1.2-1.4-1.3-1.5-1.5-3.5-3-3.5-3.1L64 9.3l-.6-.7-.6-.7-1-1.3-.8-1-.6-1z"/></g><g id="g111"><path id="path111" d="m66.2 11.1.4-.2 1-.6.4-.2.2-.1v-.2l.9-.5.7-.5.8-.6.7-.7.5-.7.9-1.4.4-1 .2-.6.8.3-.1.5-.4 1.2-.4.9-.5.8-.6.8-.8.8-.8.7-.8.6-.9.5h-.2l-.2.1-.3.2-1.2.5-.4.2z"/></g><g id="g112"><path id="path112" d="m71.3 14.9.2-.2.8-.5.4-.3q0-.2.4-.5l.5-.5q.1-.4.4-.5l1-1 .8-1 .7-.5.2-.2.5.6-.2.2-.6.6-1.6 2-.5.5-.5.4-.5.5-.5.4-.7.5-.3.2z"/></g><g id="g113"><path id="path113" d="m58.4 5.3.7 1 .8 1L61 8.9l3 3.4 1.8 1.9 1.7 2 1.6 2.2.7 1.1.5 1.2.5 1.1.3.6.1.6q.4 1.2.4 2.2v2l-.2 1.3-.3 1v.2l-.8-.2.2-1.1.2-1.4v-1.8l-.3-2-.1-.5-.3-.6-.4-1.1-.6-1.1-.6-1.2-1.5-2-1.6-2.1-1.8-2-3-3.4-1.1-1.4q-.4-.7-1-1.2l-.6-1z"/></g><g id="g114"><path id="path114" d="m29.8 26-.6.4-.4.4-.4.4-.4.5-.2.5-.3.6-.4 1.2-.4 1.2-.3.6-.3.7-.3.5-.5.6-.5.4-.6.4q-1.6 0-2.9.5-.6.4-.8 1-.4.4-.4 1.2v1l.1.5.6 1.2.8 1.2.9 1.3q.8 1.2 2 2.2l1 1q.5.6 1.1 1l1.2 1 1.3.7 1.3.7 1.4.5q2.2.9 4.4 1.4 2.3.8 4.3 2.4 1 .8 1.3 2l2.4 6.6 2 4.1 1.3 2 1.3 1.9q2.7 3.7 6.1 6.7 3.6 3 7.9 4.5 2.1.6 4.4.6h1l1.2-.2q.6 0 1.1-.3l.6-.1.5-.2q2.2-.6 4-2a15 15 0 0 0 5-7.3q.7-2.2 1-4.5l.8.1q-.1 2.4-.8 4.7a17 17 0 0 1-5.3 8q-2 1.5-4.3 2.3l-.6.2-.6.2-1.2.2-1.2.2h-1.2q-2.4 0-4.8-.6-4.6-1.5-8.3-4.7a36 36 0 0 1-7.7-9l-1.1-2q-1.2-2.2-2.1-4.3c-1-2-1.2-3-1.7-4.4l-.7-2.2q-.4-1-1.1-1.8-1.6-1.4-4-2.1l-4.4-1.5-1.4-.6-1.4-.7-1.4-.8-1.2-1-1.2-1-1-1.1q-1.2-1.1-2-2.3l-1-1.3-1.5-2.8v-.8q-.2-.5 0-.8 0-.9.3-1.6.4-.8 1.2-1.3.9-.4 1.6-.4l1.5-.2h-.1l.5-.3.4-.3.4-.5q0-.2.3-.5l.3-.5.2-.6.4-1.2.5-1.2.2-.6.4-.5.4-.6.4-.5.6-.4.5-.4z"/></g><g id="g115"><path id="path115" d="m73.4 26.7-.6 1.4-.5 1.6-.2 2V33l.3 1.3.8 2.8q.5 1.3 1.4 2.6t1.8 2.6 1.8 2.7l.8 1.3.4.7.3.8.5 1.4.4 1.4.2.6v.7l.2 1.3.2 5.3h-1l-.2-5.2v-1.9l-.2-.6-.4-1.4-.5-1.3-.3-.6-.3-.7-.8-1.3q-.7-1.3-1.8-2.6l-1.8-2.6-1.5-2.8-.5-1.5-.4-1.4-.1-1.4V32l.2-2.2.5-1.7.6-1.3z"/></g><g id="g116"><path id="path116" d="m72.7 35-.2.6-.5 1.8-.6 2.6-.3 1.5-.3 1.5-.2 1.6-.1 1.5v2.6l.2 1.1v.8l.2.7-1 .1v-.7l-.2-.8v-1.1l-.1-.3v-1.1l-.1-1.5v-1.5l.3-1.6.3-1.6q0-.7.3-1.4 0-.8.3-1.4l.4-1.3.6-1.8.3-.7z"/></g><g id="g117"><path id="path117" d="m26.8 30.5.8.4 1 .4 1 .7.7.4.7.4 1.3 1.1 1.4 1.3 1.3 1.4 1.2 1.5 1 1.5 1 1.5.7 1.4 1 2 .3.8-.6.3-.4-.8-1-2-.7-1.4-.9-1.4-1-1.5-1.1-1.5-2.6-2.6-1.3-1-.7-.5-.6-.4-1.1-.6-.9-.4-.8-.4z"/></g><g id="g118"><path id="path118" d="m30.3 25.1.2.4.2.4q0 .3.3.5l.5.7.7.7.7.7 1 .7q2.1 1.4 5.2 2.7 1.5.7 2.9 1.7 1.5 1 2.6 2.3l.5.7.3.4.1.2.1.2.4.8q0 .4.3.8.5 1.7.7 3.4l.7 5.7q.2 1.3.6 2.2l.6 1.6.6 1 .2.3-.8.6-.2-.4-.6-1q-1-1.4-1.4-4-.4-2.7-.6-6l-.7-3-.3-.8-.4-.8v-.2l-.1-.2-.2-.3-.5-.7q-1-1.2-2.4-2.2l-2.8-1.7q-3-1.4-5.2-2.8l-1-.8-.9-.7-.6-.8-.6-.7-.3-.6-.2-.4-.2-.3z"/></g><g id="g119"><path id="path119" d="M46.5 45.9v-.4q.2-.3.5-.4h1.3l.7.3q.8.5 1.3 1.4.9 1.6 1.5 4 .5 2.3 1.5 4.2.6 1 1.5 1.7 1 .5 2 .4l.5-.1.4-.2.9-.4q.8-.6 1.2-1.4 1-1.5 1.2-2.5l.2-.7v-.3h.8v.4l-.2.8a9 9 0 0 1-1.3 2.7 6 6 0 0 1-2.5 2.1l-.6.2H57a4 4 0 0 1-2.5-.5 5 5 0 0 1-1.7-1.9Q51.6 53 51 50.8T49.7 47l-1-1-.5-.3h-.8q-.2 0 0 0v.1z"/></g><g id="g120"><path id="path120" d="M88 33.3v.2l-.2.2-.2.3-.1.2v.3l-.1.2v.8q.3.2.4.7l.6 1.7q.4.9.6 1.9l.2 1V43l-.2 1.1q0 .6-.3 1.1 0 .6-.3 1l-1 2-1.2 1.7-1.3 1.3-.3.2-.4.2-.1.1h-.3l-.1.1h-1.4l-.3.1h-.2l-.1.2-.7-.6.3-.2.3-.2.6-.2h1.6l.1-.1.3-.1.3-.2 1.2-1.2 1.2-1.6.9-1.8.4-.9.3-1 .1-1 .1-1.1v-1l-.2-1L88 38l-.6-1.6-.3-.7-.2-.4v-.8l.1-.3.1-.3q.2 0 .1-.3l.3-.4.1-.3.2-.2z"/></g><g id="g121"><path id="path121" d="m81 8.7.2-.2.2-.5.4-.7L82 6q.3-1.2.2-2.8V-.1q0-1.8 1-3.4.5-.7 1.2-1.2l1.3-.6 1.2-.3.9-.2h.8v.6h-.8L87-5l-1.1.3-1.2.5-1 1a6 6 0 0 0-.8 3v3.5l-.5 4.2-.3.9-.3.5-.1.2z"/></g><circle id="circle121" cx="90.104" cy="1.519" r="4.106" fill="none" stroke="#000000" stroke-miterlimit="10" stroke-width="1.6087"/><circle id="circle122" cx="90.104" cy="1.519" r="5.821" fill="none" stroke="#000000" stroke-miterlimit="10" stroke-width="1.6087"/><circle id="circle123" cx="80.759" cy="31.963" r="4.106" fill="none" stroke="#000000" stroke-miterlimit="10" stroke-width="1.6087"/><circle id="circle124" cx="80.758" cy="31.964" r="5.821" fill="none" stroke="#000000" stroke-miterlimit="10" stroke-width="1.6087"/><g id="g124"><path id="path124" d="M187.4 75v.6l.1.2.6.5q1.3 1.1 4.3 2.2 2.9 1 6.7 1.6 4 .6 8 .4h1l1-.2 2-.3 2-.2q1 0 2-.3l3.6-.6 3.2-.8q1.6-.3 2.7-.7l2-.5 1.9-.5.2.8-1.8.5-2.1.5-2.7.7-3.3.8-3.6.6-2 .3-2 .2-2 .2-1 .1-1 .1a42 42 0 0 1-15-2.1q-3-1-4.5-2.3l-.6-.6q-.3-.4-.3-.7V75z"/></g><g id="g125"><path id="path125" d="m186.2 75.5 2-.4 2-.4 2-.3 2-.2h2l2-.1h8.1l2-.2 2-.1 4-.5 2-.4.9-.3.3-.2.1-.1a24 24 0 0 1 4.8-10.8q2-2.2 4.4-4a30 30 0 0 1 5.2-2.8q5.4-2.3 11.3-3l5.8-.8 3-.1 2.9-.2h3l3 .1 2.8.3 3 .4 1.4.3 1.4.3 1.4.4 1.4.5q.8.2 1.4.6l1.3.6q.8.3 1.3.7l1.3.8 2.4 1.7 2.2 2L286 64l.8 1.2.8 1.2L289 69q1.4 2.6 2.4 5.3l-.7.3q-1.1-2.6-2.5-5.3l-1.4-2.4-.8-1.3q-.2-.6-.8-1.2l-1.7-2.2-2-2.2-2-2-2.3-1.6-1.2-.8-1.3-.7-1.4-.6-1.3-.5-1.4-.5-1.3-.4-1.4-.3-1.4-.3-2.9-.4-2.9-.3h-8.6l-3 .2-5.7.6q-5.7.9-11 3A25 25 0 0 0 223 62q-2 2.1-3 4.8-1.2 2.6-1.7 5.5v.2l-.1.2-.3.2-.5.3-1 .3-2 .5-4 .5-2.1.2h-4l-2 .1h-6.1l-2 .1-2 .2-2.1.3-2 .4-1.9.5z"/></g><g id="g126"><path id="path126" d="m236.4 30.6 3.9 2.1 1.8 1.1 6.3 4.4 1.9 1.9 1.6 2 .7 1 .4.5.2.6.5 1 .4 1 .3.9.2.8q0 .5.2.8v.6l.2 1.3h-.8l-.1-1.1-.1-.7-.2-.7-.5-1.7-.3-1-.5-.9-.3-.5-.4-.4-.6-1-1.6-2-1.9-1.7-2-1.7-2-1.4-2-1.3-1.9-1-3.8-2.2z"/></g><g id="g127"><path id="path127" d="m237.4 30.3-1.2.1v-.6l2.9.7.8.2.6.2 1.4.5 1.5.4 1.3.6q1.6.4 2.8 1l2.7 1.3 2.8 1.1 5.4 2.3 2.7 1 1.4.5.7.3q.2-.2.4 0h.4l5.6 2a131 131 0 0 1 16.2 7.5q2.6 1.5 5 3.2a45 45 0 0 1 8.9 8 34 34 0 0 1 5.6 10.6q.7 2.9 1 5.9V80l-.3 3-.7-.1.2-3-.1-2.9a30 30 0 0 0-3.2-11q-1.4-2.5-3.3-4.8-3.7-4.5-8.6-7.8l-5-3.1a83 83 0 0 0-16-7.3l-5.6-1.9-.3-.2-.3-.3-.6-.3-1.4-.5-2.8-1.1-5.4-2.4L250 35l-2.7-1.1-2.7-1.2-1.4-.5-1.4-.5-1.3-.4-.7-.2-.7-.2-2.9-.7-2-.5 3.3-.2v.8z"/></g><g id="g128"><path id="path128" d="m276.5 20.2-.4 1.3-.2 1.5v3.1l.1 1.2.3 1.3.3 1.3.4 1.3.5 1.3q.2.8.6 1.4l.5 1.3 2.7 5.1 2.5 4.4 1.7 3.2.6 1.2-.7.4-.6-1.2L283 45l-2.5-4.4q-1.5-2.5-2.7-5.2l-.6-1.4-.5-1.3-.6-1.4-.3-1.4-.4-1.3-.3-1.4V26l-.1-.3V23l.6-3z"/></g><g id="g129"><path id="path129" d="m276 20 .8.8q.9.9 2 2.6 1.3 1.8 2.8 4.4t3.5 5.6q1 1.5 2.4 2.9l1.5 1 .4.4.5.2 1 .4q3.9 1.3 8 3.6a36 36 0 0 1 7.3 6q3.5 3.4 5.6 8a36 36 0 0 1 3.7 18.6 53 53 0 0 1-3.1 16.3q-1.2 3.5-2.4 6.3l-1.1 2.5-1 2.1-1 1.7-.7 1.2-.6 1-.5-.3.6-1 .7-1.3.9-1.6 1-2.1q.6-1.1 1.1-2.6a80 80 0 0 0 4.4-13.7 53 53 0 0 0 .4-18 35 35 0 0 0-8.4-16.8 34 34 0 0 0-7.3-5.8 44 44 0 0 0-7.9-3.6q-.4 0-1-.4l-.5-.2-.5-.3q-.9-.5-1.6-1.2-1.5-1.5-2.6-3-2-3-3.5-5.6l-2.7-4.3-2-2.6-.8-.9z"/></g><g id="g130"><path id="path130" d="M308.4 50.4V39.3l.2-1.3.3-1.4.3-1.4.5-1.3.5-1.3.7-1.2 1-1.1 1-1 .5-.4.1.6c1 3.2 1 6.5 1.7 9.6q.4 2.5 1.4 4.6l.7 1 .7.9 1.5 2 1.6 1.9 1.4 2 1.3 2.1 1.2 2.2 1 2.2.5 1.2.4 1.1.8 2.4.7 2.4.3 1.2.3 1.2.4 2.4.3 2.5.2 1.2v1.2l-.2 5-.3 2.4-.4 2.4q-1 5-3 9.4l-.9 2.3-1 2.2-1.2 2.2-1.2 2.1a80 80 0 0 1-11.5 16 93 93 0 0 1-14.6 13.1 37 37 0 0 1-6.6 3.5l-1.2.3-.7.1h-.6l-.2-.1-.4-.2q-.2 0-.3-.3l-.4-.4a11 11 0 0 1-1.9-3.3q-.4-1.2-.5-2.5v-2.5q.8-5.2 4.1-9 3.3-3.9 7.9-6l.3.7q-4.5 2-7.6 5.8a16 16 0 0 0-3.9 8.5v2.4q0 1.2.5 2.3a10 10 0 0 0 1.6 3l.4.5.2.1.2.1v.1h.9l1.2-.4 2.2-1q2.1-.9 4.1-2.4a82 82 0 0 0 20.6-20.5 89 89 0 0 0 9.6-17 54 54 0 0 0 2.9-9.2l.4-2.4.3-2.4q.2-2.4 0-4.8v-2.5l-.3-2.4-.5-2.3-.3-1.2-.3-1.2-.7-2.3-.9-2.3-.4-1.1-.5-1.1-1-2.2-1.3-2.2-1.2-2-1.3-2-1.4-2-1.5-2q-.5-.4-.8-1l-.6-1q-1.1-2.4-1.5-4.8c-.6-3.2-.8-6.6-1.6-9.6l.6.2-1 .9-.9 1-.7 1.2-.6 1.2-.5 1.3-.3 1.3-.2 1.3-.2 1.3-.1 2.7V45l.1 5.5z"/></g><g id="g131"><path id="path131" d="M276.7 61.8 273 61q-1.9-.4-3.6-.5-3.6-.4-7.3-.2h-1.8l-1.9.2-1.7.2-1.8.3-3.5.9-3.4 1a50 50 0 0 0-12.6 7 60 60 0 0 0-14.3 16.3l-4.1 6.1-.6.8-.6.7-.8.7-.4.2-.3.2h-.2l-3.4 1.3-6.9 2.6-6.7 2.6q-3.4 1.4-6.6 3.1l-.8.4-.7.5-1.6 1-1.5 1-.8.4-.8.4q-3.2 1.8-6.7 3.1v-.7q2 .5 4.3.4l1.1-.1 1-.1 1.2-.2 1-.3c3-.7 5.6-2 8.4-3a34 34 0 0 1 8.7-2.2l2.3-.2h2.2l4.5-.2 2.2-.1h1l1.2-.2a17 17 0 0 0 8-3.1q1.8-1.4 3.2-3c2-2.2 3.5-4.7 5.7-6.9q1.7-1.6 3.7-2.7a16 16 0 0 1 4.4-1.4l.2 1a14 14 0 0 0-7.6 3.8q-3 3.1-5.8 6.7-1.4 1.7-3.3 3.1a17 17 0 0 1-8.4 3.2h-1.1l-1.1.1-2.3.1-4.5.2h-2.2l-2.2.2-2.2.3-2.1.5-4.3 1.3-4 1.7-4.4 1.4-1 .3-1.2.2-1.1.1H182q-2.3.2-4.5-.3l-1-.2 1-.5 6.4-3.2.8-.4.8-.5 1.5-1 1.5-1 .8-.5.8-.5q3.2-1.8 6.5-3.4l6.8-2.8 6.8-2.5 3.5-1.2h.2l.1-.1.3-.2.7-.6.5-.6.6-.7 1-1.4 1-1.5 2.2-3 4.3-6A64 64 0 0 1 241.1 65q3.2-1.8 6.6-3 1.8-.7 3.5-1.1l3.6-.9 1.8-.3 1.9-.2 1.8-.2h1.8q3.8-.1 7.3.2 2 .1 3.7.5l3.6.7z"/></g><g id="g132"><path id="path132" d="m302.9 83.4-4.8-3-2.4-1.4-2.5-1.4-2.5-1.2-2.6-1.1a53 53 0 0 0-13.3-3.7l-2.8-.2h-4.2l-1.4.2-1.3.2-1.4.2-2.6.8q-1.4.3-2.6 1-1.3.5-2.4 1.2-2.4 1.4-4.4 3.2a47 47 0 0 0-7 8.5l-6.1 9.4q-1.6 2.3-3.7 4.4-2.1 2-4.8 3.3h-.1a135 135 0 0 0-28.2 12.7l-1.8 1.3q-.8.6-1.4 1.5v.4l1 .2 2-.1 4.4-.9q4.3-1 8.5-2.4l2.2-.6q.6 0 1-.3l1.2-.2 2.3-.2h2.2l2.2-.1h1.1l.3-.1h.3l.5-.1.6-.1.4-.2q.6 0 1-.3l1-.4 1.1-.4q3.9-2 7.3-5l6.8-5.7q6.6-6 14.1-11t16.2-7.5a44 44 0 0 1 17.9-.6l-.1.6a43 43 0 0 0-17.6.7 53 53 0 0 0-16 7.4q-7.4 5-14 11-3.2 3-6.8 5.7a41 41 0 0 1-7.5 5l-1 .6-1 .3-1.1.3-.6.2-.5.1-.6.1h-1.6l-2.3.1-2.2.1-3.3.4q-.5 0-1 .3-1.2.2-2.2.6-4.2 1.3-8.6 2.4l-4.4 1h-2.4l-1.2-.2-.3-.3-.2-.2v-1.1l.8-1 .9-.7 1.8-1.4q1.8-1.4 3.8-2.4a138 138 0 0 1 24.7-10.6h-.1q2.3-1.2 4.4-3.1a26 26 0 0 0 3.5-4.3q3.1-4.6 6-9.4 3-4.9 7.3-8.9a27 27 0 0 1 7.3-4.4l2.7-1 2.8-.6 1.4-.2 1.4-.2 1.4-.2h4.3a43 43 0 0 1 11.1 2l5.3 2 2.6 1.1 2.5 1.3 5 2.7 4.7 3z"/></g><g id="g133"><path id="path133" d="m258 93-.1-.1v-.1h-.1v-.1l-1.6 3.8-1.3 4-1.5 4q-.3.9-1 1.9l-1.2 1.8-1.5 1.5q-.8.8-1.7 1.3l-1 .6-1 .4-2 .7-7.8 3a172 172 0 0 0-21 9.4l-.6.7-.1.2v.3q0 .2.6.3l.9.2 2 .1 4.2-.1 16.5-4.1 8.3-2.1 4-1 4.2-1.1 1-.8 1.2-.7.6-.4.3-.1.4-.2h.3l.4-.1.7-.1v.7l-.5.1h-.3l-.3.2-.3.1-.3.1-.6.3-1 .8-1.3.7-4.2 1.2-4.2 1-8.2 2.1-16.6 4.2h-.1l-4.2.2a13 13 0 0 1-3.3-.4q-.6 0-1.2-.7l-.2-.8q.2-.2.1-.4l.2-.3.8-.7q.9-.8 1.8-1.3l3.7-2q7.7-3.4 15.6-6.3l7.8-3 2-.7 1-.4.9-.5 1.6-1.1 1.4-1.5 1.2-1.7.9-1.8 1.5-4 1.3-4q.7-2 1.7-3.9l.2-.2.1-.1h.6l.3.4v.4z"/></g><g id="g134"><path id="path134" d="m308.5 93.3-4-.1h-4l-4.1.1-2 .2h-1l-1 .1-2 .2-2 .3q-1.1 0-2 .3-1.1 0-2.1.3l-2 .5-1.9.5-3.8 1.2-3.6 1.6-1.7 1-1.7 1-3 2.6-2.6 3a38 38 0 0 0-3.9 7l-1.7 3.7q-.8 2-2.4 3.6l-1.8 1.3-1.8 1.2-1.8 1-1.8 1.1-3.7 2.2-3.6 2.2-1.8 1.1-3.2 2.6-1.5 1.5-1.3 1.5-1.2 1.7-1 1.8-.9 1.9-.7-.5q1.7-2 4-3.3a20 20 0 0 1 4.7-2q2.4-.9 5-1.3l5.1-.7 5-.5q2.6-.3 5-1 1.2-.5 2-1.3l.5-.4.3-.4.6-1q1.2-2.3 2.6-4.5l1.4-2.2 1.4-2 1.5-2.1 1.6-2.1 1.6-2 1.7-1.9q1-.8 1.9-1.8l2-1.7 2-1.6 2-1.4q2.3-1.5 4.7-2.4l1.1-.5 1.2-.5 1.2-.4 1.3-.3 1.3-.4.6-.1.6-.1 2.5-.4.2.7-2.5.5h-.6l-.6.2-1.3.3-1.2.4-1.2.3-1.2.4-1.1.5a38 38 0 0 0-6.6 3.8l-2 1.5-1.8 1.7-1.8 1.7q-1 1-1.7 2l-1.6 1.9-1.6 2-1.4 2-1.4 2.2-1.4 2.1-2.6 4.4-.6 1.1-.4.6-.4.5q-1 1-2.4 1.3-2.6.9-5 1l-5.1.6a70 70 0 0 0-10 1.8q-2.4.8-4.5 2c-2.1 1.3-2.7 2-3.8 3.3l-1.6 1.8.8-2.2.7-2 1-2a18 18 0 0 1 2.7-3.5l1.6-1.5 1.6-1.4 1.7-1.3 1.7-1.2 3.6-2.3 3.7-2.2 1.8-1 1.8-1.2 1.7-1.3 1.6-1.2q1.2-1.3 2-3.2l1.5-3.7a43 43 0 0 1 4-7.3 27 27 0 0 1 6-6l1.8-1 1.8-1.1q1.9-1 3.8-1.7 2-.9 4-1.3l2-.5 2-.5 2.1-.4q1 0 2-.3l2.2-.2 2-.2h1l.2-.1h.8l2-.1h8.3l4 .3z"/></g><g id="g135"><path id="path135" d="M269 119.2v-.4h.7l.2 1v1l-.1 1.2-.2 1-.4 2-.2 1v1q0 1 .2 1.9.4.8 1.3 1h.9l.8-.4 1.6-1.3c2-1.8 3.9-4 6-5.7a19 19 0 0 1 5.5-3q1-.4 2.1-.5v.7a10 10 0 0 0-3.8 1.1 20 20 0 0 0-3.3 2.3l-3 2.7-3 3-1.6 1.3q-.4.3-1 .4l-.3.1h-.8q-.6 0-1.1-.5-.4-.3-.7-.9-.4-1.1-.3-2.1v-1q0-.6.2-1.1l.4-2 .2-1 .1-1v-1.1l-.2-1h.7v.4h-.9z"/></g><g id="g136"><path id="path136" d="m121 12.7 1.5 1L124 15l1.2 1.3.6.7.6.7 2.1 3 1 1.5.7 1.6 1.3 3.4.3.9.2.9.4 1.7.3 1.8.1 1.9V36l-.1 1.8-.2 1.8-.3 1.8q0 1-.3 1.7l-.4 1.8-.4 1.7-.5 1.8-2.2 6.8-1.2 3.4-1.4 3.4-1.5 3.2q-2 3-4.8 4.6l-5.9 2.9q-2.9 1.4-4.9 3.8-.9 1.2-1.5 2.7l-.5 1.5-.2.7-.2.8q-.7 3-.6 6.3v1.6q0 .9.2 1.6 0 1.7.4 3.2.2 1.5.7 3l1 3.1.3.8.1.9.3 1.6q.2.8.1 1.7v1l-.4.5-.6.3h-3.3l-1.7-.4q-.7-.1-1.6-.5-3-1.2-5.7-3.4a36 36 0 0 1-10.8-16.3l-.9-3.2v-.9l-.1-.2v-.7q0-1 .3-1.7l1.7-4.5v-1l-.1-.3q-.7-1.4-1.8-2.6l-1.2-.9-1.3-.4V70q1 0 1.7.5.8.3 1.4 1a11 11 0 0 1 2.2 3.2v1.4l-.6 1.6-1.2 3-.2 1.4v.7l.1.8.9 3.1q1 3 2.6 5.9 3 5.7 7.9 10 2.5 2 5.4 3.2l1.5.4q.7.3 1.6.3l1.5.1h1.6v-.1l.1-.7v-1.5l-.3-1.6-.2-.7-.2-.8-1-3.1-.8-3.2-.3-3.2-.1-1.7v-1.6q-.2-3.4.5-6.6l.2-.8.2-.8.6-1.6 1.6-3q2.2-2.5 5.3-4l5.8-2.8a13 13 0 0 0 4.5-4.2l1.5-3.2q.8-1.6 1.3-3.3l1.2-3.3 1.2-3.4 1-3.5.4-1.6.5-1.8.4-1.7.3-1.8.2-1.7.2-1.7.2-1.8V34l-.2-1.7-.2-1.7-.4-1.7-.2-.9-.2-.8q-.5-1.7-1.2-3.3l-.7-1.6-2.8-4.5-.6-.7-.6-.7-1.2-1.2-1.3-1.2-1.4-1.2z"/></g><g id="g137"><path id="path137" d="m157.8 22.5 1.1 1 .6.4.6.5 1.1 1 1 1 2.2 2.2 2 2.2q1.9 2.3 4 4.4l2 2.2 1 1 1.1 1 1.1 1 1.2.9.6.4.6.4 1.2.8q.8.3 1.3.7l1.3.7 1.3.5 1.4.4 1.5.4 1.4.4.8.3.6.3 1.4.8a18 18 0 0 1 3.5 2.8l1.1 1 .8.8-1.2.1-4.2.3-4.2.3-2.2.2h-4.2l-2.2-.3-2.1-.4-1-.3q-.7 0-1.2-.3a32 32 0 0 1-7.8-3.4l-3.6-2.3-1.8-1.2q-.8-.7-1.7-1.2l-3.4-2.6-3.4-2.5-3.6-2.3q-.8-.6-1.8-1l-1.8-1-1.9-.7-1-.4-1-.3-4-1-2-.3-2.1-.2v-.9h2.1l2.2.3q2.1.3 4.2 1l1 .3 1 .3 2 .9 2 1 1.8 1 3.6 2.4 3.5 2.5 3.3 2.5 3.4 2.6a71 71 0 0 0 7.3 4.2l3.9 1.5 1 .3 1 .2 2 .4 2.1.2 2.1.1h2.1l2.1-.2 4.2-.3q2.1-.2 4.3-.2l-.3.8-1-1-1.1-1q-1.2-1-2.4-1.7l-1.2-.7-.7-.4-.6-.2-1.4-.4-1.4-.4-1.5-.5-1.3-.6q-.8-.2-1.4-.6l-1.4-.7-1.3-.9-.6-.4-.6-.4-1.1-1-1.1-1-1.2-1-1-1-2-2.2-4-4.5-2-2.2-2-2.1-1-1-1.1-1-.6-.5-.6-.5-1.1-.9z"/></g><g id="g138"><path id="path138" d="m144.5 32.8 2.9 2.4 1.3 1.3 1.3 1.3 2.6 2.8 1 1.5q.7.7 1.2 1.5l1 1.5 1 1.6 1.8 3.3q1.4 3.3 3.4 6.5.9 1.6 2.1 2.8a14 14 0 0 0 2.8 2.3l.7.5.8.4 1.6.7 1.7.6 1.8.4 3.6.6 3.6.3 3.6.1h5.9l-2 .9-1.7.8-1.8.7-3.6 1.2-1.8.5-1 .2-1 .2-1.8.3-1.9.3h-1.5l-.4.1h-2q-1.8.1-3.8-.1h-1l-.9-.3-2-.3-.8-.3-1-.2-1-.3-.9-.3-3.5-1.6-3.3-2-1.6-1.1-1.5-1.2-1.4-1.3-1.5-1.2-2.8-2.6-2.9-2.5-1.4-1.2-.8-.6-1.5-1-.4-.3-.4-.2-1.7-1 .3-.5 1.7.9.5.2.3.3 1.7 1 .8.5 1.5 1.2 3 2.5 2.8 2.5 1.4 1.2 1.5 1.2 1.5 1.2 1.6 1 3.1 2 3.4 1.5.9.3.9.3.8.2 1 .3 1.7.3 1 .2h.9q1.8.3 3.7.3h2.9l.9-.2 1.9-.2 1.8-.3.9-.2.9-.2 1.8-.5a35 35 0 0 0 5.3-2l1.7-.7.3.9h-3.7l-3.7-.2q-2 0-3.7-.3-2-.2-3.7-.6l-1.8-.4-1.8-.6-1.7-.8q-.5 0-.8-.4l-.9-.5a16 16 0 0 1-5.1-5.5q-1.8-3.2-3.4-6.5l-1.8-3.2-1-1.6-1-1.5-1-1.5-1.2-1.4-2.4-2.7L148 37l-1.4-1.2-2.8-2.4z"/></g><g id="g139"><path id="path139" d="M143.2 55.9a44 44 0 0 0 3.9 5.4l.8 1.4.8 1.5.4.8.3.8.2.8.2.8.4 1.4.4 1.4.6 1.3.6 1.3.7 1.3.7 1.2.8 1.2 1 1.2.9 1 1 1.1 1 1 1.1 1 1.1 1 1.2.8 1.2.8 1.2.8 1.3.7 1.2.7 1.4.6 1.3.6 2.8 1 2.8.8a37 37 0 0 0 8.7 1.3h4.6l-1.5.8-1.8 1-1.9 1-2 .8-2 .6-2 .6-2.1.4-2.2.4-2.1.2h-6.4q-1.2 0-2.1-.3-1.2 0-2.2-.3l-2-.5a32 32 0 0 1-8-3.4l-1.8-1.2-1.7-1.3-3.2-2.8q-1.6-1.5-2.8-3.2a100 100 0 0 1-7.6-10.2q-1.2-1.6-2.8-3l.5-.7q1.8 1.4 3 3l2.7 3.4 5 6.7 3 3 3 2.8q.7.7 1.7 1.2l1.7 1.2 1.8 1 1.8.9 4 1.4 2 .5 2 .3 2 .3 2.1.2h4.2l2-.2 2.1-.3 2-.5 2-.5 2-.7 2-.8 1.8-1 1.9-1 .2.8h-4.4l-1.5-.1-3-.5-3-.6-2.8-.8-2.8-1-1.4-.6-1.3-.6-1.4-.7-1.3-.7-1.2-.8-1.3-.9-1.2-.9-1.1-1-1.2-.9-1-1-1-1.1-1-1.2-.9-1.2-.8-1.3-.7-1.3-.7-1.3-.6-1.4-.5-1.4-.5-1.4-.4-1.5-.2-.8-.2-.8-.3-.8-.3-.7-.8-1.4-.9-1.5-1.9-2.7-1.8-2.7z"/></g><g id="g140"><path id="path140" d="M185.7 90.7h1.4l.6.2 1.2.6 1.4.8 1.3 1.1q.7.7 1.2 1.6l1 1.7.3 2-.1 1q0 .5-.3 1a6 6 0 0 1-1.9 2.8q-1.1 1-1.8 1.4l-.7.5-.5-.5.7-.6 1.7-1.4 1-1 .7-1.4.2-.8v-.9q.1-.9-.2-1.8-.2-.8-.8-1.6l-1-1.4a11 11 0 0 0-2.6-1.8q-.6-.4-1.1-.5l-.5-.2h-1.3z"/></g><g id="g141"><path id="path141" d="m178.2 94.8.2-.7.3-.2h.4l1 .2q.9.2 1.7.7l.8.6.6.7.3.4.2.5.2.5v.5l.1.5v.5q0 .4-.3 1 0 .4-.4.9l-.3.3q0 .3-.3.4l-.8.5-1 .4-1 .2-.9.1.3-.6.7.8.8.8.9.6 1 .5.9.5 1 .5 1 .3 1.1.3v.8l-1.2-.3-1.1-.4-1.1-.4-1-.6-1-.6-.9-.6-.9-.8-.7-1-.5-.4.7-.1q.5 0 .9-.2l.8-.1.8-.3.7-.5.3-.3.2-.3.4-.8.2-.8v-1.3l-.2-.3-.1-.4-.2-.3-.6-.7-.7-.5-1.6-.7-.8-.1h-.3v.2z"/></g><g id="g142"><path id="path142" d="m117.2 72 .8 2 1.3 2 3.2 3.3q.8.8 1.4 2l.5 1 .2.6v.6q.4 2.3 1.3 4.3.8 2.2 2 4.1a36 36 0 0 0 8.6 10.3 52 52 0 0 0 7.5 5q4 2.2 8.2 4.1c4.2 2 5.7 2.5 8.4 4q2 1 4 2.6l1.5 1.9q.6 1 .8 2.4h-1l-.1-1.4q0-.8-.3-1.4a15 15 0 0 0-2.2-5.4l-.8-1.2-.8-1.2-1-1-1-1.1-1.2-1-1.1-1-2.3-1.7-2.5-1.7-5-3.3-2.3-1.8-2.3-2-1.8-2.3q-.9-1.5-1.2-3v-1.2l-.1-.4v-1.5q0-.8.3-1.6 0-.7.4-1.5l.9.3-.4 1.4-.2 1.4v.7l-.1.8v.6l.1.7q.3 1.4 1 2.6l1.8 2.2a22 22 0 0 0 4.5 3.7l5 3.3 2.4 1.7 2.4 1.8 1.2 1 1 1 1.1 1.1 1 1.2 1 1.2.8 1.2q.8 1.4 1.3 2.8l1 2.9.2 1.5.2 1.5h-1q-.2-2-2-3.5-1.6-1.4-3.7-2.4l-8.3-4q-4.2-1.8-8.3-4a55 55 0 0 1-11.3-8.1 30 30 0 0 1-7-12q-.9-2.2-1.3-4.5V83l-.2-.5-.4-1q-.5-1-1.3-1.8l-3-3.4q-.8-.8-1.4-2l-.5-1-.4-1z"/></g><g id="g143"><path id="path143" d="m105.8 91.9 2 2.7 2 2.7 2.4 2.5 2.4 2.3 2.6 2.3 2.6 2 2.7 2.1 2.8 2 11.7 7a58 58 0 0 1 8.2 6.1q1.3 1.4 1.9 3l-.8.1v-2q0-1.1-.4-2.1 0-.6-.3-1l-.4-1-1-1.8-1.2-1.7-1.5-1.6-3.2-2.9-4.7-4.3q-.8-.9-1.3-1.8l-.9-2.1-.2-2.3a7 7 0 0 1 1.4-4.2l.6.4q-.6.7-1 1.8a7 7 0 0 0 0 4q.2.9.8 1.8l1.3 1.7 1.5 1.5 3.2 2.8a49 49 0 0 1 4.7 4.5l1.2 1.8q.7.9 1 2l.5 1 .3 1 .4 2.2v4.2l-.8-1.9q-.6-1.5-1.7-2.7l-2.4-2.2a52 52 0 0 0-5.7-3.8l-11.6-7-2.8-2q-1.6-1-2.8-2l-2.7-2.2-2.5-2.3q-1.4-1.1-2.4-2.4l-2.4-2.5-2-2.7-2-2.8z"/></g><g id="g144"><path id="path144" d="M115.5 102.6q-.4 1.4-.4 2.7v1.3q0 .8.3 1.4a13 13 0 0 0 2.2 4.8q1.6 2.2 3.7 4l4.1 3.6a30 30 0 0 1 3.9 4l1.5 2.5a14 14 0 0 1 1.3 5.4v1l-.3.1h-.4l-.1-.1-.1-.2-.4-.3-.8-1a11 11 0 0 0-4.6-2.6q-1.9-.7-3.7-1.7l-1.8-.9-1.8-1-1.8-1-1.7-1.2-1.6-1.2-.8-.6-.8-.7-1.4-1.5-1.4-1.5-1.1-1.7-1-1.9-.3-1-.2-.4-.1-.5-.5-2v-1.1l-.2-1 .2-2.1h.6v4l.4 2 .2.4.1.5.4 1 1 1.7 1 1.7 1.3 1.5 1.4 1.4.7.7.8.6q.7.7 1.6 1.2l1.7 1.1 1.7 1.1 1.8 1 1.8 1 3.7 1.6a12 12 0 0 1 5.8 4l.2.2v.1h-.2l-.2.1v-.5l-.4-2.7q-.2-1.2-.9-2.5l-1.3-2.3q-1.7-2.1-3.7-4-2.1-1.6-4.1-3.6a30 30 0 0 1-3.9-4l-1.4-2.5q-.6-1.2-.9-2.7l-.2-1.4v-1.4q0-1.5.4-2.8z"/></g><g id="g145"><path id="path145" d="m84.3 107.6 1 2.2 1.3 2.2 1.2 2.2 1.3 2 1.4 2.2 1.5 2 1.5 1.9L95 124l1.8 1.6 2 1.6 2 1.3 2.2 1.2 2.2.9 2.4.6 2.4.4 2.5.1-.2.7-1.4-.9-1.2-.9-1.3-1-1.2-1a18 18 0 0 1-3.7-5.2l-.3-.8-.2-.7-.5-1.6v-.8l-.1-.8v-1.6q0-1.6.8-3.2a4 4 0 0 1 2.5-2.2l.2.8q-1.4.5-2 1.8a9 9 0 0 0-.8 4.4v.8l.2.7q0 .8.3 1.4l.2.8.3.7q1.4 2.7 3.5 5l1.2 1 1.1 1 1.3.8 1.3.8 1.3.8-1.5-.1-2.5-.2q-1.2 0-2.5-.4l-2.4-.6-2.3-1-2.3-1.1-2-1.4-2-1.6-1.8-1.7-1.8-1.9-1.6-2-1.4-2-1.4-2-1.3-2.1-1.2-2.2-1.2-2.2-1.2-2.2z"/></g><g id="g146"><path id="path146" d="m19.5 37.7-1.8-.8q-1-.5-1.9-.7l-.5-.1H14l-1.6 1.2a9 9 0 0 0-2.5 5.3v.5l-.1.5V45l.1.4.1 1q0 .6.3 1l.2 1 .7 2 1 1.8q.3 1 1 1.7l1.2 1.6 1.4 1.5 1.5 1.3-.7.2.8-1.3.6-1.2q.2-.8 1-1.4.7-.5 1.5-.6h3l2.9.1 1.4.1h2.7l.7-.2.7-.3.6-.3.6-.3.5-.4.4-.5.3-.3.1-.3.4-.6.6-1.2.7.2-.6 1.4-.4.6-.2.4-.2.3-.5.6-.6.4-.7.5-.7.3-.7.3q-.4 0-.7.2H30l-.8.1h-2.9l-3-.2h-2.8q-.7 0-1 .4-.5.5-.8 1.1l-.6 1.3-.8 1.3-.3.5-.4-.4-1.6-1.4-1.4-1.6-1.3-1.7-1.1-1.8-1-2-.7-1.9-.2-1-.3-1-.1-1v-.6l-.1-.5v-2.2l.6-2.1a9 9 0 0 1 2.3-3.6q.7-.9 1.9-1.3h.8l.3-.1h.6l.6.1 2 .7 1.9 1z"/></g><g id="g147"><path id="path147" d="m32.6 53.2.8 2 .6 2.2.4 2.2.3 2.2v4.4l-.2 2.1-.5 2.2q-.2 1.1-.6 2.1l-.7 2.1-.8 2-1 2-1.2 1.9-1.3 1.8-.7.8-.8.9-1.5 1.5-.2-.6h1.4l1.5-.3q.7 0 1.4-.3.7 0 1.4-.4 2.7-.9 5-2.5a14 14 0 0 0 4-4.2q1.4-2.5 1.3-5.4v-1.1c-.1-.4 1.1 0 .7-.1v.4l.2 1.5.2 1.4v1.5l.1 3-.1 3q-.2 2.8-1.2 5.7-.8 2.9-2.7 5.3-1.9 2.5-4.3 4-2.4 1.7-5 3l-2.4 1.6q-1.1 1-1.7 2a6 6 0 0 0-.7 2.6v1.4l.4 1.2a7 7 0 0 0 4 3.6q2.6 1 5.4.4 1.3-.2 2.2-1.2a4 4 0 0 0 .9-2.9v-.4l-.2-.2q-.2-.6-.6-.9l-1-.5H35h.1-.3l-.1-.2-.7-1.2h1.4l.4.1 1.4.7.6.2q.2 0 0 0l.1-.1 1-1a51 51 0 0 0 7.6-12.2q.5-1.3.6-2.7v-2.2l.8 2 .5 1 .2.6.1.5.4 1.1.1 1.1.2 1.1v3.3l-.1 2.2-.2 2.2-.5 4.3-.2 2.2v2.2l.2 2 .5 2.1a15 15 0 0 0 3 5.6l1.4 1.5-.7.4-.1-1-.3-1.1-.1-1.1-.1-.6v-1.9l.3-.6.3-.5 1.3-1.8 1-2 1-1.9.7-2 .7-2 .5-2.2q.4-1 .4-2.2l.3-2.2.2-2.1.2-2.2v-6.7h.9v6.7l-.1 2.2-.3 2.2-.7 4.4-.6 2.2-.7 2.1-.8 2.1-1 2-1.1 2-1.2 1.9-.3.4-.1.5-.1.4v1l.1.5.2 1 .2 1.1.2 1.2.2 1-.9-.6q-.9-.7-1.6-1.5l-1.3-1.9a20 20 0 0 1-2.3-6.3l-.2-2.2V109l.1-2.3.6-4.3.2-2.1q0-1.2.2-2.2V96l-.1-1-.2-1-.1-1-.4-1-.1-.6-.2-.4-.5-1 1-.2q-.1 1.5-.7 3l-1.2 2.7a53 53 0 0 1-6.6 9.8l-1 1-.2.2-.1.2H38l-.1.2h-.5l-.8-.4-1.2-.6h-.7l-.3.1-.7-1 .2-.4.3-.1.1-.1h.3l1 .2q.9.4 1.5 1t.9 1.6v1.7q0 .8-.3 1.6t-1 1.4q-1.1 1.3-2.7 1.5-3 .6-6-.5a8 8 0 0 1-4.6-4l-.4-1.6v-1.5q0-1.6.7-3 .8-1.5 2.1-2.3 1.2-1 2.5-1.7 2.6-1.4 5-3 2.4-1.5 4.1-3.8t2.6-5q1-2.8 1.1-5.7l.2-3v-3.6l-.1-.7-.2-1.5-.1-1.4v-.4c-.6 0 .7.2.6 0v.9q0 3-1.5 5.8-1.6 2.6-4 4.3a20 20 0 0 1-6.7 3.1l-1.5.4q-.8 0-1.4.2H25l-.9.1.7-.6 1.5-1.5.7-.8.6-.9L29 80q.6-.9 1-1.9.6-.9 1-1.9l1-2q.4-.8.6-2l.5-2 .5-2.1.2-2.2.1-2.1v-2.2l-.3-2.2-.5-2-.6-2.1-.8-2z"/></g><g id="g148"><path id="path148" d="M47.5 90.8h-.1l-.2-.2-.3-.3-.1-.7-.1-1.2-.2-2.2v-2.9l.3-1.4.4-1.4.6.2-.2 1.4-.3 1.3V86v-.2 1.3l.2 1.1v1.2l.1.4.1.1.2.1z"/></g><g id="g149"><path id="path149" d="m59.6 104.4 1.2 3.8 1 3.9q1 3.9 2.4 7.6l.9 1.8a16 16 0 0 0 3.4 4.7l1.5 1.3.8.5.9.5q.8.5 1.7.8l2 .6-.4.6-1-1-.9-1.3-.7-1.2-.7-1.3-.6-1.4-.2-.6-.2-.8-.2-.7v-.7l-.3-1.5-.1-1.4V117l.1-1.5.2-1.4.3-1.5.4-1.3.5-1.4.5-1.3.6.2-.5 1.4-.5 1.3-.4 1.3-.2 1.4-.3 1.4v4.3l.3 1.4v.6l.3.7.1.7.2.6q.2.8.6 1.3l.7 1.3.7 1.2.9 1 .9 1.1.8 1-1.1-.3-2-.6-1.9-.8-.9-.5-.8-.5-1.6-1.3a18 18 0 0 1-3.6-5l-.9-1.8q-1.4-3.8-2.4-7.7l-1-3.9-1.2-3.8z"/></g><g id="g150"><path id="path150" d="m72.8 108.4 1.6 3.5.9 1.7.8 1.7.9 1.6 1 1.6 1 1.6 1.1 1.6 1.2 1.4 1.3 1.3 1.4 1.3 1.5 1.1 1.6 1 1.7.7 1.8.6 1.8.4-.3.8-1.2-.8-1-1q-.6-.3-1-.9l-1-1.1-.3-.6-.4-.6-.6-1.2-.5-1.3-.5-1.3-.3-1.3q0-.8-.3-1.4l-.1-1.3V116l-.1-1.4v-1.3q0-1.5.2-2.7h.7l-.2 2.7v3.4l.1.6.2 1.4.2 1.3.4 1.3.4 1.2.5 1.2.7 1.2.3.6.4.5.8 1 1 .9 2 1.6 1.8 1.2-2-.5-2-.3-1.8-.7-1.7-.8-1.7-1-1.5-1.1L82 125l-1.3-1.4-1.2-1.4-1.1-1.5-1-1.6-1-1.7-1-1.6-.8-1.8-.8-1.7-1.6-3.5z"/></g><g id="g151"><path id="path151" d="M40 64.3h-.2l-.2.2-.4.4-.5.5h-.3l-.2.1h-.4q-.5-.3-.6-.8L37 64q0-.7.2-1.3 0-.6.5-1.2l.5-.5.3-.2h.5l.7.1.5.5.4.5.1.3.1.4A43 43 0 0 0 51.7 79l2.3 2 2.4 1.5q1.2.8 2.6 1.3l2.7 1 1.3.3 1.5.2q1.4.3 2.8.1l1.4-.2h.7l.7-.2 1.4-.4 1.3-.4.7-.2.6-.3 1.3-.7.4.7-1.3.6-.7.3-.7.2-1.3.6-1.5.3-.7.2h-.7l-1.5.2h-3l-1.4-.2-1.5-.4a21 21 0 0 1-5.3-2.3 34 34 0 0 1-8.8-7.7l-1.7-2.3q-3.4-4.8-5.3-10.4v-.1l-.1-.4-.4-.4-.4-.3H39q-.3 0-.4.4l-.4 1-.1 1v.5l.2.3h.2l.4-.3.5-.4.1-.1.2-.2h.2z"/></g><g id="g152"><path id="path152" d="m108.3-2-.5.5-.5.7-.7.8-.6 1.1-.6 1.3-.4 1.4-.4 1.5q-.4 1.5-.5 3l-.3 2.7-.2 2.7-.8-.1.3-2.7.3-2.7q.1-1.5.5-3l.5-1.6.5-1.5q.2-.7.6-1.3l.7-1.2.7-.9.5-.6.6-.6z"/></g><g id="g153"><path id="path153" d="m113.4-6-.4.6-.4.8-.6 1-.6 1.2-.6 1.4-.6 1.5-.5 1.7-.4 1.6-.2 1.7-.2 1.5v4.2l-1.3.1V9.1l.1-.7.2-1.4.3-1.5.3-1.7.5-1.7.6-1.6q.2-.9.6-1.6l.6-1.5.7-1.2.6-1 .5-.8.5-.7z"/></g><g id="g154"><path id="path154" d="m119.3-8-.5.6-.5.7-.7 1-.4.5q-.1.4-.4.6l-.7 1.4-.6 1.6q-.4.7-.6 1.7l-.4 1.6q0 1-.3 1.7L114 5v1.4l-.2 2v.9h-.9v-3q.1-1.4.5-3 0-.9.4-1.7l.5-1.8.5-1.6.7-1.6.8-1.5.4-.6.4-.6.7-1 .6-.7.6-.6z"/></g><g id="g155"><path id="path155" d="m87.8 23.9-.2-.1-.2-.2-.4-.4q-.2-.2-.2-.8v-1l.4-.5.6-.2h1q.6 0 1 .4l.9.5 2.1 1.3.6.3.4.1h.4v.8l-.6-.1-.5-.2-.6-.3q-.8-.3-1.4-.9l-1.6-.9-.8-.2h-.8l-.3.1v.1l-.1.6q0 .6.4.8v.1h.2v.1z"/></g><g id="g156"><path id="path156" d="M97.4 23.9H97l-.6.2q-.4 0-.7.3l-.5.1-.4.2-.4.3-.4.2-.8.7-.7.8-.3.5-.2.5-.2 1V30l.1.4.3.6.1.3.1.2.3.5-.7.6-.4-.4-.2-.2-.2-.4-.2-.3-.3-.5-.1-.5-.1-.5v-1.3a5 5 0 0 1 .5-2l.4-.5a7 7 0 0 1 1.9-2l.5-.2.5-.2.6-.2.5-.1.9-.2h1.2z"/></g><g id="g157"><path id="path157" d="m99.1 30.4-.6.2-.6.1-.3.2h-.1l-.2.2-.7.5q-.4.2-.7.6l-.6 1-.4 1-.3 1.2-.3 1.2-.1 2.2-.1 1.5-.1.6h-.8v-2.1l.1-2.2.1-1.3.7-2.7.7-1.2 1-1 .4-.3.6-.3.2-.1h.3l.4-.2h.8l.6-.1z"/></g><g id="g158"><path id="path158" d="m100.2 37.9-.1.2-.6.5-.6.9-.7 1.2-.4 1.5-.2 1.9v6.4a8 8 0 0 1-4 6.2l-1 .7-1 .4-.3-.7.8-.5 1-.6 1-.8a7 7 0 0 0 2-2.9q.4-.8.6-1.9v-6.3l.2-2a7 7 0 0 1 1.3-3l.4-.6.4-.4.5-.5.2-.2z"/></g><g id="g159"><path id="path159" d="M103.6 41.7v-.4h-.6l-.3.1-.3.2q-.6.3-1 1a11 11 0 0 0-1 4l-.3 4.9-.3 5q-.3 2.3-.9 4.2l-.5 1.6-.4.7-.2.6-.5.8-.1.2-.7-.5.1-.2.5-.7.2-.6q.2-.1.3-.6l.6-1.6.8-4 .4-5q0-2.4.3-4.9.1-2.3 1-4.3.6-.8 1.4-1.3l.8-.3h.6q.4-.1.7.4v.9z"/></g><g id="g160"><path id="path160" d="m21 42.5-.4-.3q-.4-.5-1.2-.7h-.8l-.4.1-.4.2q-.5.3-.7.7l-.5 1q-.4 1-.4 2.2v1.6l.1.5.2.8.1.6.3.4-.9.4-.2-.5-.2-.7-.2-1v-2.1q0-1.2.3-2.5a4 4 0 0 1 1.6-2.3l.6-.2.6-.1h1.1l.9.4.5.5.5.4z"/></g><g id="g161"><path id="path161" d="m25 47.2-.2-.1-.2-.1-.2-.1h-.7l-.2.2-.3.3q-.6.7-.7 1.5l-.1.5v.2h-1v-.3l.2-.7q.2-1 1-1.8.1-.3.4-.4l.2-.2.1-.1h.3V46h.5l.5.1.3.2q.3 0 .3.2h.2z"/></g><g id="g162"><path id="path162" d="M29.8 104.3h-.3l-.2.2-.3.2-.1.2-.1.3v.2l-.1.3v.6l.2.6.4.5.4.3.3.2h.2l.3.2h1.4v.7h-1.3l-.3-.1-.3-.1-.3-.1q-.2 0-.3-.2-.4 0-.7-.4l-.5-.7-.2-.7v-1.6l.3-.3.1-.3.4-.4.5-.2.3-.1z"/></g><g id="g163"><path id="path163" d="m55.3 114.2-.2.8v2.2l.1 3v3.1l-.2.8-.3.8-.3.7-.4.7v.1l-.2.4-.2.4-.2.4v.3l-.2.5v1.7l.2.4.2.8.4.8.4.8-.7.4-.5-.8-.4-1-.3-.9v-.5l-.2-.4v-1.5l.2-.5.1-.5.2-.5.2-.5.3-.4.3-.6.2-.7.2-.7.2-.7v-7.5l.2-.8.1-.8z"/></g><g id="g164"><path id="path164" d="m63.9 117.4.2 3v1.5q0 .9-.4 1.6l-.6 1.5-.8 1.3-1.5 2.7-3 5.3-3 5.4v4.9l.1 1 .2.9.2 1 .1 1 .2.9.5 2q.5 1.9 1.3 3.6l.8 1.8.8 1.8 1 1.7 2.2 3.3.6.9.6.7 1.3 1.5 1.3 1.6 2.8 2.8 1.5 1.3 1.6 1.3L75 176a38 38 0 0 0 7 3.7 15 15 0 0 0 4.6 1.1h.4l.5-.1q.2 0 .3-.2h.1l.1-.2.2-.6q0-1-.4-1.9t-.6-2l-.2-1.4 1 1.2.9 1.2 1 1.2 1 1.2 1.2 1 1.2 1.1 1.3 1 1.4.8 1.4.8 1.3.7.7.3.8.3 3 1 1.4.4 1.6.3 3 .3 1.6.1h3.2l1.6-.2h.7l.8-.1 1.6-.3 3-.8.7-.2.7-.3 1.5-.6 1.4-.7 1.3-.8 2.6-1.8q1.1-1 2-2.2l.1-.2h.2l1.3-.1h.6l.6-.1h2.4l1.2.2 1.2.2 2.4.5 4.5 1.5 4.6 1.6 4.5 1.4 2.2.6 2.3.5 2.3.4 2.4.3 2.3.2h4.7l2.3-.4 6.7-1.6q.2 0 .3-.2v.1-.6l.2-.4.5-.6q1.2-.8 2.3-1.2l2.3-.7q2.3-.5 4.3-1.7 1-.6 1.7-1.4a5 5 0 0 0 .8-2v-1.1l-.2-1.1-.2-1.2-.3-1.1-.4-2.4-.1-1.2v-1.2h1v2.2l.5 2.4.3 1.2.2 1.2.2 1.2v1.3q-.3 1.2-1 2.3-.8 1.1-2 1.8a18 18 0 0 1-4.5 1.8l-2.2.7q-1.1.3-1.9 1l-.2.3v.4l-.1.3-.1.3-.2.2-.6.5-2.4.8a43 43 0 0 1-7.2 1.2l-2.4.1H167l-2.4-.1-2.5-.3-2.3-.4-2.4-.5-2.3-.7-4.5-1.5-4.5-1.7q-2.2-.9-4.4-1.5-1.2-.4-2.3-.5l-1.1-.3-1.1-.1-1.2-.1h-2.3l-1.2.2.3-.2q-1 1.3-2.2 2.4a16 16 0 0 1-4 2.8l-1.6.7-1.5.6-.8.3-.7.2-3.2.9-1.6.2-.7.1-.8.1-1.6.2h-3.3l-4.8-.5-1.6-.3-1.6-.4-3-1.1-.8-.3-.8-.3-1.4-.8q-.8-.2-1.4-.8L94 183l-1.3-1-1.2-1-1.2-1-1.1-1.2-1-1.2-1-1.3.7-.3q0 .9.6 1.8l.5 2.1q0 .6-.3 1.2l-.3.3-.3.2-.5.2-.5.1h-1.6q-2-.3-4-1a41 41 0 0 1-10.4-6.3l-1.5-1.2-1.5-1.4-3-2.8-1.2-1.5-1.3-1.6-.6-.8-.6-.8-1.2-1.7-1-1.7-1-1.8-.8-1.9-.8-1.8-.7-2-.6-1.9-.6-3-.2-1v-1l-.2-1v-6.1l.1-.1 3-5.4 3-5.4 1.5-2.6.8-1.3.7-1.3.3-1.5v-4.5z"/></g><g id="g165"><path id="path165" d="M188.3 149.4v-.9q-.2-.3-.1-.7v-7.6l-.1-.5v-.4l.7-.1v5.2l-.2 1.8v1.7l.1.6v.4l.2.5z"/></g><g id="g166"><path id="path166" d="m141 139.6-.7-.6-.9-.5-.6-.3q-.2-.3-.6-.4-1.6-.6-3.8-.7h-1.1l-1.3.3h-.6l-.6.2-1.2.5q-2.7 1.1-4.8 3.5a11 11 0 0 0-2.3 6.1v1.3l.1.5.2.8.3.8q.6 1.6 2 3 2.3 3 5.8 4.4l1.8.6 1 .2.4.1h.4l1 .1h1.7l1-.2a9 9 0 0 0 6.8-6.8v-2.3l-.3-.6a4 4 0 0 0-2.1-1.8q-1.4-.4-2.7-.3c-1.7.2-2.7 1.8-3 3.1v1.4l.2.4q.3.7.9 1h.2q.2 0 0 0h.3l.3-.2v-1.5l1.2-.1.1.2.1.7v.7q0 .5-.4.9-.4.3-1 .4h-1.1q-1.2-.5-1.6-1.6l-.2-.6v-.3l-.1-.3v-1.3q.3-1.2 1.2-2.4a4 4 0 0 1 2.7-1.5q1.4-.2 3.2.4 1.6.5 2.7 2.2.7 1.9.3 3.6t-1.3 3.5q-1 1.6-2.6 2.8a9 9 0 0 1-3.7 1.5q-4 .6-7.7-1a16 16 0 0 1-8.3-8l-.3-.8-.3-1v-.6l-.1-.3v-1q.1-1.8.8-3.5.6-1.8 1.7-3a13 13 0 0 1 6.5-4.4l.7-.2.6-.1 1.3-.2h.6l.6-.1q2.4 0 4.1.8.4 0 .8.3l.6.3 1 .6.7.6z"/></g><g id="g167"><path id="path167" d="m141 137.8.3.2.7.8q.4.6.6 1.5v1.2l.1.3v.7a2 2 0 0 1-1 1q-.7 0-1.3.3l-2.5.2-2.7.1h-.7l-.7.1-1.2.4q-1.3.4-2.2 1.3a4 4 0 0 0-1.1 2.2v1.5l.4.4q1 .5 2 .3l1.8-.1a6 6 0 0 1 3 .2l-.3.7-.3-.1-2.3-.1-1.9.2a4 4 0 0 1-2.4-.5l-.6-.6v-.1l-.2-.2v-.8l-.1-.3v-.7q.4-1.5 1.4-2.6a7 7 0 0 1 2.5-1.6l1.4-.4h.7l.7-.1 2.7-.1q1.3 0 2.5-.3l1-.2q.5-.2.6-.5v-1.7q-.2-.8-.5-1.2l-.6-.6-.2-.2z"/></g><g id="g168"><path id="path168" d="M188.3 148.6q-.8.3-1.5.8t-1.2 1.1q-1.1 1.4-1.5 3a9 9 0 0 0 0 5l.3.9.4.7c1 2 3 3.5 5.2 4.1q1.6.5 3.3 0l.7-.2.8-.3.7-.4.7-.5a11 11 0 0 0 2.3-2.4q1-1.5 1.4-3 .5-1.6.1-3.3t-1.5-2.8-2.8-.8l-1.4.7q-.7.5-1.3 1.2-1 1.5-2.5 2.6-1.4 1.3-3.3 1.8l-.7.3v-.7l.2-.6.2-.3.2-.2.3-.4.4-.3.6-.6.5-.6.2-.4v-.3l.1-.3v-.3l-.2-.4-.2-.3-.3-.3-.3-.3.5-.5.3.4q.2 0 .4.3l.2.4.2.5.1.5v.6l-.1.5-.2.4-1.3 1.4-.2.3q0 .2-.3.3v.6l-.8-.4q1.6-.6 2.8-1.9l2.7-2.3 1.4-1.2.8-.5.4-.3.5-.2q2.1-.5 3.8.9 1.4 1.5 2 3.4a8 8 0 0 1-.1 3.8q-1.1 3.8-4.2 6.2l-.7.5-.9.5-1.8.6q-1.8.3-3.7-.4a9 9 0 0 1-5.7-4.5l-.4-.9-.3-.9-.4-1.8a9 9 0 0 1 2-7l1.4-1.3 1.7-.9z"/></g><g id="g169"><path id="path169" d="m245 155.4-.8-.7-.4-.5-.6-1q-.7-1.1-.6-2.4.3-1.3 1-2.2l1.7-1.7.4-.4.2-.2q0 .1 0 0v.2-.1l-.2-.1-.5-.2q-1-.5-2.2-.5h-.4l-.6.1-.5.2-.5.1-1.7 1.3q-1.5 1.5-2.5 3.5a19 19 0 0 0-1.3 4.3q-.4 2.3-.1 4.4 0 .6.3 1l.4 1q.5 1 1.3 1.7 1.6 1.4 3.8 2 2 .6 4.2.6h2.2l1.2-.2 1-.2a11 11 0 0 0 3.9-1.6 7 7 0 0 0 2.5-3q.9-2 .5-4.2a6 6 0 0 0-1.7-3.7 4 4 0 0 0-2.7-1.1h-.3.1-.5.1l-.7.6-.3.3-.4.3-.8.6-.8.5-.4.2-.4.1-1 .3-.9.3-.9.2zm-.2-1.1.8-.2.9-.2.8-.3.4-.2.4-.1.8-.5.7-.4.4-.3.3-.3.5-.6h.2l.7-.3h.7l1.3.2a6 6 0 0 1 2.2 1.2 6 6 0 0 1 1.5 2l.7 2.4a10 10 0 0 1-.5 4.8q-.9 2.4-3 4-2 1.4-4.4 1.8l-1.3.2h-1.1l-1.2.1h-1.2q-2.3-.2-4.6-1-2.3-.7-4-2.5a8 8 0 0 1-2.2-4.2q-.3-2.3.2-4.7.3-2.3 1.3-4.4t2.7-3.8q.8-.8 2-1.4l.5-.2.6-.2h.9l.3-.1a6 6 0 0 1 2.9.8l.2.2h.1l.2.3v.4l-.1.1-.1.2-.2.3q-.2 0-.5.4l-1.5 1.5a4 4 0 0 0-.9 1.9q0 1 .5 2l.6.8.4.4z"/></g><g id="g170"><path id="path170" d="M182.6 182.1s-.1-.1 0 0l-.3.7-.3 1.2q-.2 1.5 0 3.5v1l.1 1.1.2 1.2.2 1.2a31 31 0 0 0 1.6 5.1l2.7 5.6q1.6 2.8 2.6 6l.5 1.8v.8l.1.5v.4l.1 3.4v2.5-.1h-.2l.2-.1h.1l.7-.5q.3-.2.5-.6l.5-.6.5-.7a14 14 0 0 0 2.3-5.9q.3-1.5.2-3V205l-.3-1.4q-.1-1.4-1-2.5l-1.5-2.2q-.8-1.1-.9-2.4l-.1-1.1v-3.1l.2-1.6.2-2.3v-.8h.8l-.1.8-.2 2.3-.2 1.6v3l.1 1q.1 1.3.8 2.2l1.5 2.1q.8 1.3 1.1 2.8l.3 1.5v1.5q.1 1.6-.1 3.2a18 18 0 0 1-3 7l-.5.6-.7.7-.8.5-.1.2h-.6l-.3-.1v-.2l-.1-.1v-2.7l-.2-3.4v-.8l-.1-.8-.4-1.6q-1.1-3.1-2.7-5.9l-2.7-5.5-1.7-5.3-.2-1.3-.2-1.2-.1-1.1v-1.1a19 19 0 0 1 .5-5l.6-1 .3-.1h.4q.4.3.3.5l.1.3z"/></g><g id="g171"><path id="path171" d="M202.7 185.4v.7l-.2 1v1.6l.1.2.1.8.4 1.7.3.9.3 1 1 2 2.9 4.3q1.6 2.1 3.1 4.9 1.6 2.6 2.2 5.8.4 1.5.5 3.2v3.2l-.2 3.2-.1 2q0 .3-.6.2l-.3-.2v-1.4l-.3-1.6-.4-1.4-.6-1.4-.7-1.3q-1.6-2.4-3.6-4.2t-4-3.2l-3.5-2.6-1.5-1-1.2-1-1.7-1.4-.5-.5.5-.6.6.5.7.6 1 .7 2.6 2 3.5 2.5 4.1 3.2q2.1 2 3.8 4.5l.7 1.4.6 1.4.4 1.6.2 1.6v1.2l-.1-.2-.5.1v.1-1.7l.2-3.2v-3.1l-.4-3q-.7-3-2.2-5.7c-1.8-3.4-4.3-6.3-5.9-9.1l-1-2.1-.4-1-.3-1-.4-1.8v-.8l-.1-.2V187l.1-1 .2-.7z"/></g><g id="g172"><path id="path172" d="m208.5 201 4.7 2.8 2.3 1.5 1.1.9 1 .9 1 1 1 1 .9 1.1.7 1.2q.4.6.6 1.3l.5 1.3q0 .7.3 1.4l.1 1.4h-.8l.2-2V211l-.2-2-.4-1.8-.5-2-.3-.8-.3-1a14 14 0 0 0-3.4-4.4l-3-2.6-1.3-1.6q-.6-.9-.8-1.9v-2q.1-1.2.8-2l.6.4q-.5.7-.6 1.6v1.8a6 6 0 0 0 2 3q1.4 1.4 2.9 2.6 1.5 1.5 2.6 3l1 1.8q0 .4.4 1l.3.9 1 3.9.1 1.9.1 2v2l-.2 1.9h-.8l-.1-1.3-.3-1.3q-.1-.7-.4-1.3l-.6-1.2-.7-1-.8-1.1-1-1-.9-1-1-.8-1.1-.8-2.3-1.5-4.7-2.8z"/></g><g id="g173"><path id="path173" d="m193.8 174.7.4.4.4.4 1 .7.4.3.5.2 1.2.2h1.1l1.1-.4 2.1-1 2.2-1.4 1-.5 1.4-.4h.6l.7.2 1.2.5 1 .8 1 1 .2.2-.2.3-1 .8-.3.5-.4.5-.3.5-.3.5-.4 1v.6l-.1.6.1.6.2.5.2.4.4.5.8.8 1 .7 1 .6 1.1.5 1.2.3 1.1.2h1l.3-1 .8-1.2v-.1a12 12 0 0 1 4.9-1.1h1q.8 0 2 .4a8 8 0 0 1 3.4 2q.5.4.6 1l.1.3v1.2l-.2.2q0 .3-.3.5-.2.5-.6.9-1.4 1.4-2.3 2.8v.3l-.1.2v.6l.1.3q.3.8.9 1.6l2.2 3 2.4 3 2 3.3a16 16 0 0 1 1.4 3.7q0 .6.2 1v1l-.2.7-.2.3-.4.2-.5-.1-1-.7-2.7-2.7a28 28 0 0 0-5.7-4.7q-1.6-1-3.4-1.6l-1.8-.3-1.8-.2v-.9h2l1.8.4q2 .6 3.6 1.6a29 29 0 0 1 6 4.9l2.6 2.7.6.4h-.2v.1-1.1l-.1-.9q-1-3.5-3.2-6.5l-2.3-3-3.3-4.8-.2-.6v-1.1l.3-.6 1.2-1.7 1.2-1.4.5-.7.2-.3.2-.2v-.8q0-.3-.4-.6a7 7 0 0 0-3-1.7l-1.7-.4h-1.9q-1.7 0-3.4.8l.2-.2q-.4.4-.6 1l-.2.5-.5.7-.5.2h-1l-1.3-.2-1.3-.4-1.2-.4-1.1-.6-1-.8-1-1-.4-.5-.3-.6-.3-.6v-2.1l.5-1.2.3-.6.4-.5.4-.5.5-.5 1-1-.1.6-.8-.8-.9-.7-1-.5h-.5l-.6-.1-1 .2-1.1.5-2 1.3q-1.2.8-2.3 1.2l-1.3.4-.6.1h-1.3l-.6-.2-.7-.2-.5-.4q-.7-.3-1-.8l-.5-.5-.4-.5z"/></g><g id="g174"><path id="path174" d="m226.3 190.6 1 1 2.9 2.7 2.2 1.7 1.3 1 1.4 1q3 1.9 7 3.8a39 39 0 0 0 19.2 3.1q2.6-.4 5.2-1.3a23 23 0 0 0 9.3-6.2q1.9-2.2 3.5-4.5 3.1-4.9 4.9-10.4a65 65 0 0 0 2.7-26.2l-.3-2.3q0-1-.4-2.2 0-1-.3-2l-.1-.5-.2-.4q0-.4-.4-.9l-2.1-3q-1.2-1.3-1.9-3l-.4-1.6v-.7l.1-.3.5-.8q1.2-1 2-1.4t1.1-.9l.5-1 1.4.4-.2.4q0 .5-.6 1.1t-1.4 1.3q-1 .5-1.8 1.2l-.2.3v.4q0 .5.3 1.2.5 1.2 1.6 2.6l2.3 3.2.5 1 .2.6.1.5.4 2.2.4 2.2.2 2.4.3 2.3v2.6a66 66 0 0 1-3 21.8 44 44 0 0 1-8.9 15.5 26 26 0 0 1-15.3 8q-5.5.5-10.7-.6t-9-3.1q-4.1-1.8-7-4l-1.5-1-1.3-1-2.2-1.8a32 32 0 0 1-3.8-3.8z"/></g><g id="g175"><path id="path175" d="m281.8 191-.2 1.2v.6l-.1.6v1.1l.1.6.1.4 1 2 1.7 1.5 2 1.3q1 .7 2.1 1l4.3 2.3 2.1 1.2 2 1.5a12 12 0 0 1 2.6 2.7l.7 1 .6 1.1.5 1.2.5 1.2.3 1.2.2 1.2.1.6v.6l.2 1.2v2.3l-.8-.7-.7-.7-.7-.7-1.5-1.2q-1.5-1.2-3.2-2.2l-6.9-4-1.6-1.1q-.9-.5-1.6-1.2l-1.6-1.2-1.4-1.4q-1.5-1.5-2.5-3.3l-.4-.9-.4-1-.3-1-.2-1 .9-.1.2.9.3.9.3.9.5.8q.9 1.6 2.3 3.1.6.8 1.4 1.3l1.5 1.2 1.6 1.2 1.7 1 6.8 4.1 4.9 3.5.8.7.7.7-.8.3v-1.2l-.1-1.2v-.6l-.1-.6-.3-1.2-.3-1.1-.4-1.1-.5-1-.5-1-.7-1-.7-.9-1.7-1.6-2-1.4-2-1.2-4.3-2.2-2.1-1-2.1-1.3-2-1.7q-.8-1-1.1-2.4l-.2-.6v-2.5l.2-.6.3-1.2z"/></g><g id="g176"><path id="path176" d="m236.8 199.9.3 3.4.4 3.4.2 1.7.3 1.7.4 1.7.4 1.7.5 1.7.5 1.6q.4.7.6 1.6l.7 1.6.8 1.4.9 1.5 2 2.6q2.3 2.6 4.8 5.1l2 2.9 1 1.5.7 1.6q.7 1.6 1.1 3.3t.8 3.4l.3 1.7.2 1.7.4 3.5h-.8l.4-1.7.4-1.6.3-1.6.4-1.7.2-1.7.2-1.7.2-1.6v-5l-.2-1.7v-.8l-.2-.8-.3-1.6-.4-1.7-.3-.8-.3-.7-.6-1.6.8-.3.6 1.6.3.8.2.9.5 1.6.3 1.7.2.8.1.9.2 1.7v5.1l-.2 1.8-.2 1.6-.3 1.7q0 .8-.3 1.7 0 .8-.4 1.7l-.3 1.7-.5 1.6-.6 2.3-.2-2.4-.3-3.4-.2-1.7-.3-1.7a32 32 0 0 0-1.9-6.6l-.7-1.5-.8-1.5-2-2.8-4.8-5-2.1-2.9-1-1.5-.8-1.5-.7-1.6-.7-1.6-.5-1.7-.5-1.7-.4-1.7-.3-1.7-.3-1.7-.3-1.7-.4-3.5-.3-3.4z"/></g><g id="g177"><path id="path177" d="M247.2 209v.8l.3.7.5 1.3 1.5 2.4 3.7 4.4 7.9 8.7a52 52 0 0 1 5 7.4l.6 1.4.5 1.3.5 1.5.3 1.4q.4 1.5.4 3v3l-.2 1.5-.3 1.5-1-.4 2.8-5 1.4-2.4 1.3-2.5.5-1.3.4-1.3q.4-1.3.5-2.7v-1.3q0-.7-.3-1.3-.4-1.3-1-2.5a23 23 0 0 0-3.7-4.2l-4.2-3.8a32 32 0 0 1-3.8-4.3 15 15 0 0 1-2.4-5.3l.9-.2q.3 1.4.9 2.6.5 1.2 1.4 2.4 1.6 2.2 3.7 4.1l4.1 3.9q2.2 2 3.9 4.3.8 1.3 1.2 2.8l.3 1.8v1.1q0 1.5-.5 3l-.4 1.3-.6 1.3q-.5 1.5-1.2 2.6l-1.4 2.5-1.4 2.5-1.4 2.5-1.8 3.3.8-3.7.3-1.3q0-.8.2-1.5V242q0-.7-.3-1.4l-.3-1.4-.5-1.3-.5-1.4-.5-1.3a52 52 0 0 0-4.8-7.2q-3.7-4.4-7.8-8.7a55 55 0 0 1-5.4-7.1l-.6-1.4-.1-.8-.1-.8z"/></g><g id="g178"><path id="path178" d="m255.8 226.3-.1-.2-.1-.2-.3-.7v-.7l-.1-.4v-1.5h.8v1.8l.1.7.2.4.1.2v.2l.1.1z"/></g><g id="g179"><path id="path179" d="M267.5 221.4q2.7 1.4 5.3 3l2.5 1.5 1.3 1 1.1.9 1.2 1 1 1.3.8 1.3.3.7.3.7.5 1.5v.7l.2.8v1.5l-.1 1.6-.8-.4 1.1-1.7 1-1.8.4-1 .3-1q.3-1 .3-2v-2q0-.6-.3-1l-.2-1-.8-1.8-1-1.7-1.3-1.6a31 31 0 0 0-4.6-4.3l-3.2-3q-.8-.7-1.3-1.8-.7-1-.6-2.2l1.1-.1q.4 1.8 2 3.2 1.4 1.5 3 2.8l3.3 3q1.6 1.5 2.7 3.4l1 2 .4 1 .3 1 .3 1.1.2 1.1v2.2q0 1.3-.3 2.2l-.3 1.1-.4.8-1 1.9q-.8.9-1.3 1.8l-1 1.3.2-1.7.1-1.4v-1.5l-.1-.7v-.4l-.1-.4-.4-1.3-.3-.7-.4-.7-.7-1.2-1-1.1-1-1-1-1-1.3-1-1.2-.8-1.3-.7-5.2-2.9z"/></g><g id="g180"><path id="path180" d="M284.4 225.9h-.4v-.6h.7l.8.4.7.3.7.4.6.4.6.5.5.6.5.6.4.6.4.7.6 1.4.6 1.4.3 1.5h-.7l.5-1.7.4-1.7v-1.6l.1-.8-.1-.9v-.4l-.1-.4-.2-.9-1.2-3.2-.8-1.5-1.8-3-1-1.5-.8-1.6-.9-1.5-.4-.8-.3-1-.2-.9v-1q.1-.9.5-1.8l1 .4-.5 1.5v.8l.1.8.3.7.3.8.8 1.6.9 1.5 1 1.4 1.7 3 .8 1.6.7 1.7.6 1.7.2 1v.8l.2.8v1l-.1 1.7-.4 1.8-.7 1.7-.4 1.4-.3-1.5q0-.8-.3-1.4l-.5-1.4-.6-1.3-.3-.6-.4-.6-.5-.6-.4-.5-.6-.5-.6-.4-.5-.4-.7-.3-.6-.2-.7-.2-1.7-.3 1.6-.4h.4z"/></g><g id="g181"><path id="path181" d="m249 229.4.2 1 .3 1.1.3 1.6.6 3 .1 1.2.1 1.3v5.9l-.1 1.6v.9l-.2.9-.3 1.7q-.8 3.5-3 6.9a19 19 0 0 1-5.7 5.5 37 37 0 0 1-7.5 3.4l-7.6 2.5q-1.8.8-3.4 1.9a6 6 0 0 0-2.5 6.2v1l.2.8.2.8.3.7q.4.6 1 .7t1.4-.2l2.6-1.5 4.3-3.5q1.9-1.6 3.5-2.6t2.6-1.2h.8l.3-.1v1h-.2l-.6.1-2.3 1.1-3.4 2.5-4.4 3.5q-1.2 1-2.8 1.7-.8.3-2 .2l-.5-.2-.4-.2-.7-.8-.4-1-.2-.8-.2-1v-1q-.2-1.9.4-3.8a8 8 0 0 1 2.5-3.3q1.7-1.1 3.6-2l7.7-2.5q3.8-1.2 7.3-3.2a18 18 0 0 0 8.3-11.8q.3-.8.3-1.7l.2-.8v-.8l.3-1.6v-7.1l-.1-1.1-.2-1.1q0-1-.3-2l-.3-1.5-.2-1.1-.3-1z"/></g><g id="g182"><path id="path182" d="m219.3 277.8-.3.6-.3.7-.1.6-.1.7v1.3q0 .8.3 1.4l.8 2.8.4 1.3.3.6.1.3.2.1-.5.2.6-4.1.6-2.2.3-.5.2-.4.4-.5.4-.4.4.5-.3.4-.3.4-.3.4-.2.5-.5 2-.6 4.1-.1.5-.4-.2-.4-.3-.2-.4-.3-.7-.6-1.4-.8-2.8-.3-1.5v-1.5l.1-.8.2-.7.3-.7.3-.6z"/></g><g id="g183"><path id="path183" d="m223 280.6-.2.2v.1l-.1.2v1.3l.3.9.9 2a9 9 0 0 0 7.8 4.2h.6a4 4 0 0 0 2.4-1.7l.9-1.3q.8-1.4 1.4-2.9l1.3-2.8 1.2-2.5a9 9 0 0 1 2.6-3.4l.6-.5.4-.2.4-.2.4.7-.4.2-.4.3-.5.3q-1.2.8-2.5 3L239 281l-1 2.9-1.3 3.1-.9 1.6q-.5.7-1.3 1.4-.7.5-1.8.8l-.5.1h-1.4a10 10 0 0 1-6-2.8 10 10 0 0 1-1.7-2.4q-.7-1.1-1-2.3l-.2-1v-1.6l.3-.6.3-.3z"/></g><g id="g184"><path id="path184" d="m228.2 289.6.4.5.3.6.6 1.2 1 2.4q.4.5.6 1.1l.7 1 .5.4.5.3.5.3.5.3-.4.4-.6-1.7-.3-1-.3-.8-.3-1-.1-.9v-.5l.1-.5.4-.6.5-.2.3.6-.3.2-.2.3-.1.3v.4l.1.9.3.8.3 1 .3.8.6 1.8.2.8-.7-.3-.6-.3-.6-.3-.6-.4-.5-.5-.8-1-.6-1.3-1-2.4-.6-1-.3-.6-.4-.5z"/></g><g id="g185"><path id="path185" d="M232.4 290.2h-.4v-.6l2 .3 2 .3 2 .2h3l1-.2 1-.2.8-.3a7 7 0 0 0 3-2.2q.7-.7 1-1.7l.5-1.9.6-4q.2-2 1-4l.3-1 .3-1 .6-1 .4-.5q.1-.2.5-.3l1 1.1q-.2.6-.6.7l-.6.8q-.2 0-.3.3l-.3.4-.4 1q-.6 1.8-1 3.8l-.6 4a10 10 0 0 1-1.7 4 7 7 0 0 1-3.4 2.4l-1 .3-1 .2-1.1.2h-3.1l-2.1-.1-2-.3-2-.4-2.8-.5 2.8-.2h.4v.4z"/></g><g id="g186"><path id="path186" d="M247 288.1v-.4h3.1l1.6-.2 1.8-.2 1-.2 2-.6 1-.5 2-1q2.1-1.2 3.8-3.2l.7-1 .6-1.2.5-1.2.4-1.4q1-2.6 1.1-5.5l.5-5.7.4-5.5a94 94 0 0 1 2.1-13.5l.8-3 .6-1.9.2-.6.7.3-.2.6-.6 1.8-.8 2.9a57 57 0 0 0-2.1 13.5l-.4 5.4-.4 5.7q-.3 3-.9 5.7-.6 2.9-2.2 5.3a13 13 0 0 1-5.2 4.2l-1.2.4-1.1.2q-.6 0-1.1.3l-2 .3-2 .3-1.6.2h-3.5l-.1-.1-.2-.3v-.4l.2-.1.3-.2h.2z"/></g><g id="g187"><path id="path187" d="m240.2 290.8-.2.4-.1.4-.1.5v1.3l.4.8a11 11 0 0 0 2.3 3l.3.2h.1v-.4l.2-2v-2q-.1-1 .4-2l.4.5-1.6.1-.9.1-.4.1h-.2s-.1 0 0 0l.1-.1v-.1c0-.2.2 0 0-.3h-.1v-.1h1.5l1.6-.1v.8h-1.7q-.4.2-.8 0h-.8l-.1-.1-.2-.1v-.5h.1v-.1l.2-.1h.1l.2-.2h.5l.8-.2 1.7-.1h.7l-.3.6q-.3.7-.3 1.7v2l-.1 2-.1.6-.6.6h-.8l-.4-.4a11 11 0 0 1-2.9-4.3v-.8l-.1-.3v-.6l.1-.5.4-1z"/></g><g id="g188"><path id="path188" d="M254.7 287.3v1.2l.1.6.2.6q0 .4.3.7l.3.7.5.6q0 .3.4.6 0 .3.4.5l.4.5.7.6.2.2-.4.5-.2-.2-.7-.7-.5-.5-.5-.5-.4-.6-.5-.7-.4-.7-.3-.7-.3-.7V288l-.1-.5v-.4z"/></g><g id="g189"><path id="path189" d="M257.8 294.4v-.3q0-.3-.2-.4V291l.1-.7.5-2.7.2-.9v-.3l.6.1v.4l-.1.9-.5 2.7-.1.7v.7l-.1.6v1.8z"/></g><g id="g190"><path id="path190" d="m14.8 57.1-.2.4-.4 1-.7 3.3-.3 1-.4.9-.5.7-.5.6-.6.5-.4.3-.3.3-.5-1 .4-.1.3-.3.5-.4.4-.5.5-.7.4-.7.2-.8.8-3.3q0-.8.3-1.2l.2-.3z"/></g><g id="g191"><path id="path191" d="M18.5 56h.7l.7.4.9 1.2q.6 1.3.6 2.7v1.3q0 .7-.2 1.3l-.5 1.3-.5 1.2-.7-.3.7-1.6.8-1.5.2-.4.2-.4.3-.4.3-.3.3-.3.4-.3.7-.6.4.6-.7.5-.2.3-.3.2q-.2.1-.3.4l-.2.3-.3.3-.2.3-.7 1.5-.7 1.6-.7-.3a10 10 0 0 0 1.2-3.6v-1.2q0-1.3-.6-2.4l-.7-1-.4-.2h-.6z"/></g><g id="g192"><path id="path192" d="M11.2 66.2h-.4l-.2-.3v-.1l-.2-.3v-1.1l.6.4 1.5 1 1.3 1.3 1.2 1.3 1 1.4 1 1.6.9 1.5.7 1.6.8 1.6 2.6 6.5.8 1.5.8 1.6.9 1.5 1 1.4h-.1l.8.7.7 1q.4.5.4 1.2l.1.6v.6a6 6 0 0 1-.6 2.3l-.2.5-.4.5-.7 1-1.5 1.5-1.7 1.6-1.7 1.4-1.7 1.3-3.6 2.6-3.4 2.7-.8.7-.8.8-1.5 1.6-.5.8q-.3.4-.4 1l-.1.8v.6l.1.5-1 .2v-2.4l.6-1.1.6-1 .7-.9.8-.8.8-.8.8-.8 3.5-2.7 3.6-2.6 1.7-1.4q1-.6 1.7-1.4a18 18 0 0 0 3.7-3.8l.3-.5.2-.4q.5-1 .5-1.9v-1l-.4-.9-.6-.8-.7-.7-1.1-1.6-.9-1.5-.8-1.5L21 83l-3.4-8.1-.7-1.6-.8-1.5-.9-1.5-1-1.4-1.1-1.3-1.3-1.1-1.3-1 .6-.4v.5H11z"/></g><g id="g193"><path id="path193" d="M11.3 66.2 9 66.1l-2.6-.2-3.2-.3-3.9-.4-4.2-.3q-1.2 0-2.3-.2h-6.4l-.6.1-2.4.3-2.2.5-1.1.3-1 .4q-1.2.4-2.1.9-2 1-3.5 2.3l-1.4 1.4-1 1.4q-1 1.5-1.3 2.9l-.2.6v1.6l.7 1.3.3.4-.8.6-.3-.5q-.4-.5-.8-1.6l-.1-.6v-1.3l.2-.8q.3-1.5 1.4-3l1.1-1.6 1.4-1.4q1.6-1.5 3.7-2.5l2.1-1 1.2-.3 1.1-.3q1.2-.4 2.4-.5l2.4-.3h.6l.6-.1h5.9l2.3.1 4.3.4 3.9.4q1.8 0 3.2.3l2.5.2 2.2.1z"/></g><g id="g194"><path id="path194" d="m-20 77.6-.3-.2-.3-.1-.2-.1h-.2l-.4-.2-.6-.1h-1.4l-1.7.5q-.9.2-1.8.8l-1.6 1.2q-.6.7-1 1.7l-.2 2 .1.5.2.4q0 .5.4 1l1 1.5 1.2 1.4 2.3 3.1-1 .5-.1-.2-.3-.6-1.7-2.1-1-1.4q-.7-.7-1.2-1.8l-.5-1-.1-.7-.1-.6q-.2-1.2.2-2.4.3-1.2 1.3-2 .8-.8 1.8-1.4c1-.6 1.3-.7 2-.8l1.8-.5h1.6l.7.1.6.3h.2l.2.2.3.1q.1.3.2.2z"/></g><g id="g195"><path id="path195" d="M-12.7 88.1h-.6l-1.6-.2h-2.6q-1.5 0-3.2.3-1.9.3-2.9 1.9-.4.8-.4 1.8v.6l.2.5v.5l.2.5q.4 1 1.2 1.8.6.8 1.7 1.6 2 1.4 4 2.5 2.3 1.3 4.2 2.6a13 13 0 0 1 4.6 5.7q.5 1.1.5 2.2v.8l.1.3v2.9l-.1 3.4v2.9-.2.2-.1l1 .8-1 1.2-.4-.3-.7-.5-.1-.2-.1-.1-.2-.3v-3.5l.2-3.4v-3.8q-.2-1.9-1.2-3.8-1.1-2-3-3.4t-4-2.6A28 28 0 0 1-21 98q-1-.7-1.9-1.7a8 8 0 0 1-1.5-2.7l-.2-.6v-1h-.1q-.1-1.4.5-2.4a5 5 0 0 1 1.5-1.6l2-.8A17 17 0 0 1-16 87h1.1l1.7.2.6.1z"/></g><g id="g196"><path id="path196" d="m-13.5 68.9.2.5.6 1.6.1.6v.3l-.2.4-.5 1.3q-.7 1.2-1 3-.3.8-.3 1.8l-.1.9v1l.1 1 .3 1 .3 1 .4 1q.9 2 2.3 3.8t3.3 3.2 3.9 2.4T0 95t4.2.2a37 37 0 0 1 7.2.6l1.4.5 1 .5.9.5.5.5.5.4-.9 1-.4-.4-.5-.4-.7-.4-1-.5-1.1-.4q-1.4-.4-3.1-.6H4.3q-2.1 0-4.4-.3a18 18 0 0 1-12-7.3 17 17 0 0 1-2.9-5.2l-.3-1-.2-1.2-.2-1v-2.1l.4-2 1.1-3 .3-.7.2-.3V72l.2-.2v-.2q0-.2 0 0v-.5l-.6-1.4-.2-.6z"/></g><g id="g197"><path id="path197" d="m-12.6 67.4 1.5.5 1.6.6 2 1q1.3.4 2.5 1.1l2.6 1.6 1.2 1 1.3 1 .6.7.5.6 1 1.4.5.7.4.7.4.7.4.8 2 4.2.8 1.2.7 1.1.8 1 1.5 1.5.7.7.6.5 1 1-.8 1.1-1.2-.9L8.6 90 7 88.2l-.9-1.1-.6-1.2L4.3 83 3 80l-.4-.6-.4-.7-.4-.7-.5-.7-1-1.3-.4-.6-.6-.5-1.1-1.1-1.3-1-2.5-1.5-2.3-1.2-2-1-1.7-.5-1.4-.6z"/></g><g id="g198"><path id="path198" d="m1.3 72.4 2.2 2.2 2.3 2.2L8 79q1 1 2.4 2l2.5 2 1.3.8 1.3.7 1.4.7 1.4.7q.3 0 .7.3t.7.3l1.5.5h-.1.2l.2.2.3.2.3.5.2.5.1.5V90q0 .3-.3.5l-.2.4q-.7.8-1.6 1.4-.8.5-1.4 1.2l-.7-.6q.8-.8 1.6-1.3 1-.6 1.4-1.2l.2-.4.2-.3v-1.3l-.2-.3-.2-.3-.2-.1-1.6-.5-.8-.2-.7-.2-1.5-.7-1.4-.7-1.4-.9q-.7-.3-1.3-.9a40 40 0 0 1-5-4L5 77.4l-2.2-2.2-2.2-2.4z"/></g><g id="g199"><path id="path199" d="m86.4 129.2-2.2 2-2 2-.8 1.2-.7 1.2q-.7 1.3-1 2.7v1.3q0 .8.3 1.3.5 1.5 1.2 2.6l.7 1.2.4.6.2.3v.1l.2.1v.3q0 .8-.3 1.6L82 149l-.6-.5 3-2.1 1.5-1.1.7-.6.7-.7.7-.6.5-.8q.7-.7 1-1.5.5-.7.7-1.7l.4-1.8v-.7l-.1-.1v-.4q-.2 0-.3-.3-.6-.5-1.4-.7-.9-.3-1.8-.2-.8.2-1.5.7l-1.4 1.2-.5.7-.2.4-.1.2v.2l.2.1.8.3.3.1h.6l.3.2q.7.6.7 1.4l-1.5.1-.2-.3-.2-.3-.1-.2H84l-1-.5-.5-.5-.2-.4v-.6l.2-.3.2-.4.7-.8 1.5-1.3q.8-.5 2-.8h1q.6 0 1 .2 1 .2 1.8 1 .3 0 .4.4l.1.4v.2l.1.1v1l-.3 2-.8 1.8-1 1.6-.7.8-.7.7-.7.7q-.3.4-.7.6l-1.6 1.1-3.1 2.2-1 .5.4-1 .4-1.4.3-1.3v-.1.1-.1l-.2-.3-.5-.6-.8-1.2a11 11 0 0 1-1.5-4.3V138a9 9 0 0 1 1.7-4.2l.9-1.1 2-2.2 2.3-2z"/></g><g id="g200"><path id="path200" d="m85.7 130.9-.3.3q-.3.5-.5 1.4l-.3 1.5-.3.6-.6-.3.3-.6.3-1.4q0-.8.6-1.5l.2-.3.2-.2h.1z"/></g><g id="g201"><path id="path201" d="M81.2 153h-.5q-.4.2-1 1-.5 1-.7 2.3v1.5l.4 1.7a14 14 0 0 0 1.4 3.5 9 9 0 0 0 2.9 3 8 8 0 0 0 4.5 1.3h.3l.6-.2 1.2-.2 2-1q.9-.8 1.2-1.9.4-1.1.3-2.2a8 8 0 0 0-1.7-4q-.7-1-1.5-1.5l-.4-.2v1a5 5 0 0 1-1.1 2 4 4 0 0 1-2.4 1.2h-1.1q-.3-.2-.5-.1a7 7 0 0 1-3.7-2.7l-.6-1-.2-.4V155l.1-.3 1.3.6-.1.3v.1q0-.1 0 0v.3l.5.6q.6.8 1.7 1.7.6.4 1.3.6l.3.1h1.1q.8 0 1.4-.6t.9-1.4v-.7l.2-.5q.1-.4.5-.4h.5l.6.3q1 .7 1.7 1.7 1.6 2 1.8 4.6.1 1.2-.3 2.6-.4 1.2-1.5 2a8 8 0 0 1-4.8 1.7q-2.6 0-4.7-1.4t-3-3.3c-1-2-1.3-2.6-1.5-3.8l-.4-1.8v-1.6q.3-1.6.9-2.5.6-1 1.2-1.4l.3-.1h.3z"/></g><g id="g202"><path id="path202" d="M83 180.7v1.3l.2.6.2.7.8 1.6q.5.8 1.4 1.5 1 .8 2 1.2l5 2 2.5 1.4 2 2 1.4 2 1.3 1.9.6.7.5.6 1 1 1 .8-.4.7-1.1-.8q-.6-.3-1.1-1l-.6-.7-.6-.8-4.5-5.6q-1-.8-2.3-1.3l-5-2a10 10 0 0 1-3.8-3.2q-.6-.9-.8-1.8l-.2-.8-.2-.6-.1-1.3z"/></g><g id="g203"><path id="path203" d="m83.5 185.4-.5 1.2-.5 1.3a14 14 0 0 0-.7 5.3l.1 1.4.3 1.3.8 2.6 1.3 2.4q1.4 2.3 3.2 4.5c2.2 2.8 4.8 5.5 7 8.5l1.5 2.4q.8 1.2 1.2 2.6t.4 2.9-.4 2.8l-.8-.3 1-1.9.4-1 .4-1 .4-1 .3-1 .2-1 .2-1 .1-1v-3.1q0-.5-.3-1.1v-.5l-.2-.5-.3-1-.4-1 .8-.3.4 1 .3 1.1.1.5.1.6.2 1 .2 1.2v2.2l-.2 1.1-.2 1.1-.2 1-.3 1.1-.4 1.1-.4 1-.4 1-.5 1-.5 1-1.7 3 1-3.4a10 10 0 0 0-1.2-7.7l-1.5-2.3q-3.3-4.2-7-8.5a38 38 0 0 1-4.4-7.1l-1-2.7-.2-1.4-.2-1.4a14 14 0 0 1 .9-5.6l.4-1.3.6-1.3z"/></g><g id="g204"><path id="path204" d="m89 193.4.9 2.5 1 2.4.5 1.2.6 1.2.8 1 .8 1.1 1.8 1.9 2.1 1.5q1.2.7 2.4 1l2.5 1 2.5 1.2 2.4 1.3 1.2.7 1.1.7 1.1.8 1.1.9 3 2.8 1 1 .8 1 .9 1 1.6 2.2-.9.2.2-1.5v-3.2l-.2-1.5-.4-1.5-.4-1.5-.6-1.4-.4-.7-.4-.6-.8-1.3-2-2.4q-.5-.7-1.2-1l-1.2-1-2.7-1.5-1.4-.6.2-.8 1.5.6 1.5.7 1.4.8 1.3 1 1.2 1 1.2 1.3 1 1.3.8 1.3.5.7.3.7.7 1.5.5 1.6.4 1.6.2 1.5v3.3l-.2 1.6-.1 1.2-.8-1-1.6-2.1-1-1-.8-1q-.4-.6-.9-1l-1-1-2-1.7-1-.8-1-.7-1.1-.7-1.2-.7-2.4-1.1-2.5-1-2.4-1.3-2.3-1.4q-1.2-.6-2.2-1.7-1-.8-2-2l-.7-1-.8-1.2-.7-1.2-.6-1.3-1-2.5-.8-2.6z"/></g><g id="g205"><path id="path205" d="m111.7 203.6 1 1 1 .9 1 .8 1.1.8 2.3 1.4 2.3 1.5 1.2.8 1.1.9 1 1 1 1 .8 1.2q.4.6.6 1.3l.5 1.4.2 1.3-.8-.2 1-1.5.3-.9.3-.8.5-1.7.1-.8.1-.9v-.9l-.1-.9-.2-.8-.2-.9-.3-.8-.4-.8-.4-.9-.4-.7-1-1.5-1.2-1.4-1.2-1.4-1.3-1.2-1.5-1.2-1.4-1-1.6-1-1.6-1 .5-.8 1.6 1 1.5 1 1.5 1 1.4 1.3 1.4 1.2 1.3 1.4 1.2 1.5 1 1.6.6.8.4.8.4 1 .3.8.2 1 .2 1 .1 1v2l-.2.8-.5 2-.3.8-.5.9q-.3.8-1 1.6l-.6 1-.2-1.2-.3-1.3-.4-1.2q-.2-.6-.6-1.1l-.7-1-.9-1-1-1-1-.8-1-.8-2.3-1.5-2.3-1.5-1.1-.9-1.1-.8-1-1-1-1z"/></g><g id="g206"><path id="path206" d="m120.6 198 2.7.7 2.7.6 2.7.7 2.7.7 1.3.4 1.3.4 1.3.6 1.3.6 1.3.6 1.2.8 1.2.8 1 1-.5.6q-.8-1-.6-1.9v-1.2l-.1-.4-.7-1.4q-.3-.7-1-1.2l-1.2-1.2-1.2-1-2.8-1.9-5.6-3.7q-1.5-1-2.7-2.2-.6-.6-1.1-1.4t-.6-1.7h.8q0 .6.5 1.3l1 1.3 2.6 2q2.7 2 5.7 3.7l2.7 2 1.4 1 1.2 1.3 1.2 1.4q.5.7.7 1.6l.1.4v1.8l.1.3q0 .3.3.4l-.6.7-1-1-1.1-.7-1.2-.7-1.2-.7-1.3-.6-1.2-.5-1.3-.5-1.4-.4-2.6-.7-2.7-.6-2.8-.6-2.6-.7z"/></g><g id="g207"><path id="path207" d="m114 188.4.2.3.3.8.7 2.5.5 1.2.3.6q0 .3.3.5.2.4.5.6l.2.2-.6.6-.2-.3-.6-.7-.2-.6q-.2-.1-.3-.6l-.5-1.3-.8-2.4q0-.5-.3-.8v-.3z"/></g><g id="g208"><path id="path208" d="m104.6 187.6-.2.8-.3.9-.2 1-.1.7v.7l-.2 1.5v1.7l.2.8.2.8q0 .8.4 1.7l.5 1.5.7 1.4.6 1.2q.4.4.6 1l.5.6.5.6-.5.5-.5-.7-.5-.7-.7-1-.7-1.3-.7-1.4-.5-1.6-.4-1.7-.2-.9-.1-.8v-3.4l.1-.7.2-.7.2-1.2.2-.8.2-.8z"/></g><g id="g209"><path id="path209" d="M129.1 192.5h-.4v-.7q3.3 0 6.5 1.2 3 1.2 5.8 3.2t5 4.3l1.2 1 .6.3.2-.2v-2.3l-.1-.8q0-.8-.4-1.6-.1-.8-.5-1.5-.2-.8-.7-1.4l-.8-1.4-1-1.3-1-1.2-.6-.6-.6-.5-.6-.5-.6-.5-1.3-1-1.4-.9-2.8-1.6-1.4-.7-1.5-.5-1.6-.6-1.5-.4.2-.8 1.6.4 1.6.5 1.5.7 1.5.7 2.9 1.6 1.3 1 1.4 1 .6.5.6.6.6.6.6.6 1.1 1.2q.7.6 1 1.3l1 1.4.6 1.5.6 1.6.4 1.7v.8l.1.2v2.4l-.4.5q-.2.3-.6.2-.7 0-1-.4l-1.3-1q-2.3-2.3-5-4.3a22 22 0 0 0-5.5-3.1q-3-1.2-6.3-1.2v-.6h.4z"/></g><g id="g210"><path id="path210" d="m141.8 188 .8.5q.3.3 1 .4l1.2.5 1.5.5 1.7.4 1.9.2h3l1-.1 1.7-.4 2.4-1 .6-.4q.7-.4 1-.8l.8-.7.6-.6.6.5-.7.7q-.2.4-.8.7l-1 .8-.8.5-.8.3a15 15 0 0 1-4.6 1.1h-3.1q-1 0-2-.3l-1.7-.4-1.6-.5-1.3-.6-1-.4-.8-.4z"/></g><g id="g211"><path id="path211" d="m19.4 123.3-3-.2-2.9-.2H9.1l-1.5.2-2 .5-.7.3-1.3.6-1.2.8-1.2.9-.6.4-.5.5-2 2-1 1.1-1 1.2-1.7 2.4-1.5 2.5-1.4 2.5A69 69 0 0 0-12 147l-.6 2.8-1-.4.8-.9.8-.8 1-.7 1-.6 1-.5 1.1-.5 1.1-.3 1.1-.3 2.3-.4 2.2-.4 2.2-.3q1.1 0 2.2-.4l.2.9-2.3.4-2.2.3-2.2.3-2.2.5-1.1.3-1 .3-1 .4-1 .5-.9.6-.8.6-.7.8-.7.8-1.2 1.4.2-1.8q0-1.5.6-3l1-2.8 2.5-5.4 1.4-2.6 3.4-4.9 1-1.1 1-1.1 2-2.1.7-.5.5-.5 1.3-.8L3 124l1.4-.6.7-.3.7-.3a11 11 0 0 1 3-.5h4.5l3 .2 2.9.3z"/></g><g id="g212"><path id="path212" d="m21 117.9-.5-.3-1.4-.6-1-.5q-.6 0-1.3-.4a23 23 0 0 0-6.7-.9h-2l-2 .3-2.2.5-2 .6-1.1.4-1 .5-2 1-.8.8-1 .7-.7.8-.4.4-.4.4-.7.9-.5.9q-.6.8-1 1.9a25 25 0 0 0-1.5 4.7l-.2 1-.2 1.8v3.8l.1.6.2 1 .4 2-.7.3-.5-2.1v-1.1l-.1-.6V131l.2-1 .1-1 1.3-4 .5-1 .6-1 .6-1 .8-.8.4-.5.4-.4.8-.9 1-.7 1-.7 2-1.1 1-.5 1.1-.4 2.3-.7 2.2-.4 2.1-.3h2a32 32 0 0 1 7 1l1.2.4 1 .4 1.5.7q.6.2.5.3z"/></g><g id="g213"><path id="path213" d="m15.5 129.4-1.2.3-1.2.4-1 .5-1.1.6-1 .7-.9.8-1.5 1.8-.7 1-.6 1.2-1 2.2-1.6 4.6-1.6 4.7q-.8 2.4-2 4.6l-.7 1-.6 1.1-.8 1-.8 1-.8 1-1 .8-1 .8-1 .8-.1-.8 1.6.3h2.6l.9-.1 1.6-.4h.4l.4-.2.8-.3.7-.4.7-.4 1.3-1 .7-.7.6-.6 1-1.3 1-1.4 2-2.8 1.2-1.4 1.1-1.4 1.3-1.2 1.3-1.2.5.7-1.2 1.2-1.2 1.2-1.1 1.3-1.1 1.4-2 2.8-1.1 1.4-1.1 1.4-.7.6-.6.6-1.4 1.2-.8.4-.8.5-.8.3-.4.2-.4.1-1.8.4h-.8l-.3.1h-2.6l-1.6-.3-1-.3.8-.6 1-.7 1-.7.8-.8 1-.9.7-.9.7-1 1.3-2q1.2-2.1 2-4.5l1.6-4.7q.7-2.3 1.7-4.7l1-2.3.6-1 .7-1.1q.6-1 1.6-2l.9-.8 1-.8 1.2-.6 1.2-.5 1.2-.5 1.2-.3z"/></g><g id="g214"><path id="path214" d="M17.5 134.9q-1.2.8-1.7 2.1a14 14 0 0 0-1.5 5.6v3l.3 3 .4 2.8.5 3 .4 3 .2 1.5v3l-.2 1.5-.6 3-.7 3-.7 2.8-.4 1.4-.3 1.5-.1 2.9q0 1.5.6 2.8l-.8.1.4-1.8q0-1 .5-2l.2-.8.4-1 .3-.8.5-.8 1-1.7.4-.8.6-.7.6-.8.6-.7 1.2-1.4 2.6-2.7 1.1-1.5 1-1.4.7-1.2.1-.4.4-.9.2-.4.1-.4.3-1 .2-.8.4-1.8.8.1q0 1-.3 2 0 .8-.6 1.7l-.1.5-.2.4-.4.9-.2.4-.2.5-.5.8-1.1 1.5-1.2 1.5-2.6 2.8-1.2 1.4-.7.7-.5.7-.6.7-.5.8-1 1.6-.4.8-.4.8-.3.8-.3 1q-.3.7-.4 1.7l-.4 1.8-.2 1.6-.5-1.5q-.7-1.5-.7-3a17 17 0 0 1 .5-4.6l.3-1.5.8-2.9.7-2.9.6-2.9.1-1.5.1-1.5V159l-.2-1.5-.3-3-.5-2.9-.5-3-.3-6q.1-1.5.5-3 .3-1.5 1-2.8l.9-1.4.5-.6.3-.2.4-.3z"/></g><g id="g215"><path id="path215" d="m20.3 138.3-.2.6-.2.6v.9q.2.1.2.3a34 34 0 0 1 2.7 5.2l2.2 5.3.4 1.4.4 1.4.4 1.5.6 4.3v3l-.2 2.9q0 1.5-.3 2.9l-.6 2.9-.7 2.8-.9 2.7-1 2.7-1 2.7-1.1-.3a5 5 0 0 1 1.2-1.9q.7-.8 1.5-1.3l3.1-2.4 3-2.5 1.4-1.4 1.3-1.5q.6-.7 1-1.5.6-.7 1-1.7l.9-1.7.3-1 .3-.9.3-.9.1-1 .3-1.8v-4h.8l.1 2v2q0 1.2-.3 2 0 .6-.2 1l-.2 1-.3 1-.4 1-.8 1.8-1 1.7-1.2 1.6-1.3 1.5-1.5 1.5-3 2.5-3.1 2.5-1.4 1.2-1 1.4-1-.3 1-2.7 1-2.7.9-2.8.7-2.7a44 44 0 0 0 1-8.5l-.1-2.9-.4-2.8q-.1-1.3-.5-2.7l-.3-1.4-.4-1.4-1-2.7-1-2.7-1.3-2.6-1.3-2.5-.2-.5v-1.2l.2-.8.2-.7z"/></g><g id="g216"><path id="path216" d="m38.4 157.7 1.7 6.6.4 1.6.4 1.6.3 1.7.2 1.7.2 1.7v1.7l.1 1.7v1.7l-.2 1.7-.4 1.7-.4 1.6-.6 1.6-.6-.5 1.2-.7 1-.9q.6-.4 1-1l.9-1 .7-1.2.6-1.3.2-.6.2-.7.2-1.4.4-2.7V171l-.1-1.4V168l-.2-1.4-.2-2.8h1l.3 2.7.2 1.4v2.8l-.1 1.4a23 23 0 0 1-.7 4.3l-.2.7-.3.7-.6 1.3-1.6 2.5-1 1-1.2 1-1.2.7-1 .6.5-1.1.6-1.6.4-1.5.3-1.7.2-1.6.1-1.6v-1.7l-.1-1.6-.2-1.7-.2-1.6-.3-1.7-.4-1.6-.3-1.6-1.7-6.6z"/></g><g id="g217"><path id="path217" d="m46.3 164.5.3 1q.1.7.4 1l.8 2.1 1.6 4.2.7 2 .2 1.1.3 1.1.1 1.1v1.2l.1 1.1-.1 1.2-.8-.3 1-1.6.9-1.6.8-1.6.4-.8.3-.9q0-.4.3-.8l.2-1 .1-.3v-.5l.2-.9v-1.8l-.1-.8-.2-.9.7-.2.2 1 .1 1v1.8l-.2.9v.5l-.1.4-.3 1-.3.8-.3 1-.4.7-.8 1.7-1 1.6-.9 1.6-.9 1.5.2-1.8v-2.7l-.1-.5-.2-1-.2-1-.3-1.1-.6-2-.8-2-.9-2.1-.8-2.1-.3-1-.4-1z"/></g><g id="g218"><path id="path218" d="m19.7 115.8.2.3.2.7.7 2.5a195 195 0 0 0 7.2 21 79 79 0 0 0 12 18.9 45 45 0 0 0 5.3 4.9 33 33 0 0 0 16.4 6.4l4 .2h1.1l.3-.1.1-.1.2-.1.4-.3.6-.6.7.6-.2.2-.5.5q-.2.4-1.1.7l-.4.1h-.4l-.8.1a36 36 0 0 1-9.3-1 31 31 0 0 1-11.8-5.8 43 43 0 0 1-10.2-11q-4.4-6.6-7.2-13.3a120 120 0 0 1-7.8-23.6l-.2-.6v-.1z"/></g><g id="g219"><path id="path219" d="m81.7 197-.7.7-1 .8-1.3 1-.9.5-.9.5-1 .6-1.1.5-1.2.5-1.4.5-2.9.7a34 34 0 0 1-14.3.2q-3.9-.8-7.9-1.9a40 40 0 0 0-12.2-1q-2 0-4.1.3t-3.8.9l-.8.4-.7.5q-.7.6-.9 1.4v1.6q.4.9.9 1.4 1.2 1.3 2.9 2a24 24 0 0 0 9.3 1.7h.7l.7-.1 1.2-.2q2.3-.6 3.8-1.7l.6-.4.6-.5.8-.8.6-.7.7.5-.7.8-.8.8-.6.6-.7.5a13 13 0 0 1-5.5 2H38l-.4.1A27 27 0 0 1 28 210a9 9 0 0 1-3.3-2q-.6-.8-1-2l-.2-.5-.1-.5v-1.1a4 4 0 0 1 1.1-2l1-.6.9-.5q2-.8 4-1l4.2-.3H39q4.2.3 8.2 1.3l7.8 2a35 35 0 0 0 14-.1l3-.8 1.2-.5 1.2-.5 1.2-.5 1-.5.9-.5.7-.6q.8-.4 1.3-1l1-.7.7-.7z"/></g><g id="g220"><path id="path220" d="M27 210.5h-1.3l-.3.2q-.8.3-1.8 1.1a12 12 0 0 0-3.4 5l-.2.8s0 .2 0 0v.2l.1.2.2.4.8 1.7q1 1.7 2.4 3.1.7.8 1.6 1.3.3.3.8.3h.4l.4-.3 3.9-1.5 3.7-1.6L38 220l3.3-1.2 1.4-.5 1.3-.4 2.1-.9 2-.7.2 1.7h-.4l-1.4.3-1 .2-1.2.3-1.3.4-1.4.5-3.2 1.2-3.5 1.3-7.8 3-.5.2-.1.1H26q-.7 0-1.2-.4-1-.6-1.7-1.4a18 18 0 0 1-2.5-3.3l-.9-1.8-.2-.5v-1.6q.6-1.8 1.7-3.1 1-1.4 2-2.2t2-1.3l.5-.1.4-.1h1.2z"/></g><g id="g221"><path id="path221" d="m45.7 214.4.6.6 1.8 1.3.7.3.7.2.3.2.4.1.8.2.9.1h1q.3.2.8 0h1l1.8-.2 1.8-.4 3.1-.7 2.3-.5.9-.2.2.8-.9.2-2.2.5-3.2.7-1.8.4-2 .2h-3.9l-.8-.3-.4-.1-.4-.2-.8-.3-.7-.4-1.1-.7-.8-.7-.6-.5z"/></g><g id="g222"><path id="path222" d="m26.2 224.2 1.1.7 3 1.9 4.4 2.5 2.5 1a7 7 0 0 0 2.8 0 6 6 0 0 0 2.4-1.2l2-2 3.6-3.5 1.6-1.3 1.4-.9.9-.5.3-.1.3.6-.3.2-.9.4-1.2.8-1.5 1.3-3.5 3.5-2.2 2q-1.2 1-2.8 1.4-1.5.2-3-.2-1.5-.3-2.8-1-2.6-1.2-4.4-2.5c-1.8-1.3-2.2-1.4-3-1.9l-1.1-.7z"/></g><g id="g223"><path id="path223" d="m39.9 230.2 1.2.1 3.3.2 2.2.1h5l2.7-.4a18 18 0 0 0 5-1.5l2-1.1 1-.7.7-.7.6-.8.6-.6.7-1.2.5-.7v-.3l1 .4-.3.3q0 .3-.5.8l-.8 1.2-.6.7-.7.7-.8.8-1 .7q-.9.7-2.1 1.3a25 25 0 0 1-5.2 1.5l-2.8.3h-7.3L41 231h-1.2z"/></g><g id="g224"><path id="path224" d="M63 226.3h1.4l1.6.1h2.1l2.5-.4 2.8-.4 1.4-.4 1.5-.4 2.8-1 1.5-.7 1.3-.7 2.6-1.4 2.3-1.6 1-.8 1-.8 1.5-1.4 1.2-1.2.9-1 .6.5-1 1q-.3.6-1 1.2l-1.7 1.5-.9.8-1 .8-2.4 1.6-2.7 1.5-1.4.8-1.4.6-3 1q-.7.3-1.5.4l-1.4.4-2.8.5q-1.5 0-2.5.3H63z"/></g><g id="g225"><path id="polygon224" d="m21.3 206.6-.7.4-.7.4-.6.6-.7.5-.5.7-.5.5-.5.8-.5.7-.4.7-.3.8-.3.7-.1.8-.7-.3 1.2-1 1.5-.9 1.4-.8 1.5-.5 1.5-.6 1.6-.4 3-.7.2.7-3 .8-1.6.4-1.5.4-1.4.6-1.4.7-1.3.8-1.2 1-.9.8.3-1.1.2-.9.3-.8.3-.8.5-.8.4-.8.6-.7.5-.7.6-.6.7-.6.7-.5.7-.5.7-.5.9-.4.7-.4.9-.3.8-.1.2.6-.8.3-.8.2-.7.3z"/></g><g id="g226"><path id="path225" d="m22 222.5-.3.8-.4 1-.3 1.2-.2.7v.8l-.1.9v.9l.1 1.9.2 1.8v.5l.1.2v-.1h-.2q-.1 0 0 0v-.2l.2-.4.6-1.8 1.3-3.1q.7-1.4 1.4-2l.6-.6h.2l.4.6h-.1l-.5.5q-.6.6-1.3 1.9a26 26 0 0 0-1.9 4.8l-.2.5-.1.3h-.1q0 .2-.3.3h-.3l-.2-.1-.2-.2v-.3l-.1-.5-.2-2-.1-1.9v-1.8l.1-.8.1-.7.4-1.3.3-1 .4-.8z"/></g><g id="g227"><path id="path226" d="M34.9 230.1v1.6s0 .1 0 0v.3l.1.7.2 1.3.4 1.2.2.6.3.6.3.6.3.5.8 1q0 .3.4.5l.4.5-.7.3-.3-1v-1.3l-.1-.1v-2l.2-.5.2-.6.7-1 .5-.4.4-.3q.3 0 .5-.3l.4-.2.5.5-1 .7-.4.2-.3.4q-.4.3-.5.7l-.2.5v.5l-.2.5v1.1s0 .1 0 0v.3l.2 1 .2 1 .4 1.4-1-1-.4-.5-.5-.6-.8-1-.3-.7-.3-.6-.3-.6-.3-.5-.4-1.3-.2-1.4v-.8l-.1-.1V230z"/></g><g id="g228"><path id="path227" d="m47.2 230.9.3 1 .3.8.8 1.8.4 1 .4.9.2 1 .1 1-.7-.2 1-1.7q.1-.4.5-.9l.5-.8 1.3-1.6 1.4-1.3.5.5-1.3 1.3-1.2 1.5-.5.8-.5.7-.8 1.7-.5 1-.2-1.1-.1-1-.3-.8-.3-1-.4-.8-.7-1.8-.4-1-.3-1z"/></g><g id="g229"><path id="path228" d="m64.5 226.4 1.1 2.1.6 1.2.3.5.2.6.2.6.2.7v.6l.1.3v1.6l-.2.6-.2.6-.6-.4.8-.8.7-.9.6-1 .6-1 .4-1 .4-1 .2-1.1.1-1.2.8.1v1.2l-.3 1.2-.4 1.1-.4 1.1-.6 1.1-.7 1-.8.9-.8.8-1.2 1.2.6-1.6.2-.6.1-.5.1-.6V232l-.2-.5-.2-.6-.2-.5-.2-.5-.6-1.1-1.1-2.1z"/></g><g id="g230"><path id="path229" d="m186.5 203.5-.4.2-1 .6q-.7.3-1.5 1l-.9.5-.9.8-1 .8-1 1a17 17 0 0 0-3.4 5l-.6 1.7-.2.8-.1.3v.5l-.1.8v1.6l.1.8q.3 1.6 1.4 2.5a5 5 0 0 0 2.8.6l1.4-.1 1.3-.2q1.3 0 2.3-.3l1.7-.5 1.5-.4.2.8-1.5.4-1.8.4-2.3.4-1.3.2h-1.5q-1.5.1-3.2-.6-.7-.6-1.2-1.4l-.5-1.7-.1-.8v-3l.1-.5.2-.8.6-1.7a15 15 0 0 1 3.7-5.3l1-1 1.1-.9 1-.7 1-.6 1.5-1 1-.5.3-.2z"/></g><g id="g231"><path id="path230" d="M178.8 208h-7.4l-1.5.2h-.8l-.8.2-1.7.2-1.6.5-.8.2-.9.3-1.6.6-1.7.7-3 1.8-1.3 1-1.2 1.3q-.7.4-1 1.2l-.5.6-.4.7q-.9 1.3-1 2.5v.3h.1l.4.3 1 .4 3 1.2.4.3-.5.6-.3-.2-1-.5-1.8-.7q-.5 0-1.1-.4-.3 0-.6-.4-.3-.2-.3-.5v-1.2l.3-.8.4-.7.4-.7.4-.7.5-.6 1.1-1.3 1.3-1.3 1.4-1.1 1.5-1 1.6-1 1.7-.7 1.7-.6.9-.3.8-.2 1.7-.4 1.6-.3.8-.1h.8l1.5-.2h.8l.7-.1h6z"/></g><g id="g232"><path id="path231" d="m170.7 213.5-.4.1-1.2.4-1.6.7-1 .5-1.2.6-1.1.7-1.2 1q-.6.3-1.1 1-.6.3-1.2 1l-1 1.3q-.7.6-1 1.4l-.9 1.5-.3.8-.3.8q-.6 1.6-.6 3.3v1.7l.2 1.6q.3 1.6 1 2.8l1 .8 1.2.3.7.1h1.6q1-.2 1.5-.6l1-.7.4-.2.5.8-.4.2-1 .7-.4.2-.4.2-.6.2-.6.1h-2.5l-1.4-.5q-.8-.4-1.3-1-1-1.4-1.2-3.2l-.1-1.8v-1.7q0-1.9.7-3.6l.3-.9.4-.8.9-1.6 1-1.5 1.1-1.3 1.3-1.1q.6-.7 1.2-1l1.2-1 1.2-.7 1.1-.6 1.1-.5 1.8-.7 1.1-.4.5-.2z"/></g><g id="g233"><path id="path232" d="m169.9 223.7-.7 1-.3.4-.4.6-.9 1.4-.4.8-.4 1-.6 2-.3 1.1v1.1l-.1 1.2v1.2l.1 1.1.1.6.2.5a3 3 0 0 0 1.3 1.7q.8.5 1.9.6l2 .1 2.3.2.6.2.8.2.3.1-.3.8-.3-.1-.7-.3-.6-.1-.7-.1-1.6-.2-2-.1q-1-.1-2.2-.8a4 4 0 0 1-1.5-2l-.4-1.2-.1-1.2V233l.1-.6v-.6l.3-1.2.7-2.1.3-1 .5-.9.9-1.4.4-.6q0-.2.3-.5l.7-.8z"/></g><g id="g234"><path id="path233" d="M179.1 227.3q-1.6 1.8-3 3.9a10 10 0 0 0-2.1 5.6v.5l.2.6q.3 1.1 1.2 1.9t2 1 2.3.2l1.2-.2 1-.3 1-.5q.6-.2 1-.6l1.6-1.9 1.4-2q.7-1.2 1.5-2.1l.8-1 .9-1 .9-1 .9-.8 1.9-1.8 1.1-.8 1-.8 1-.8 1-1q1.8-2 3.3-4.3 3-4.6 5.3-9.5l.8.4-5.1 9.8q-1.5 2.3-3.4 4.5l-1 1-1 1-1.1.9-1.2.7-1 .7-1 .8-.9.8-.9.8-1.5 2-1.3 2-3.1 4.2q-.5.5-1.2.8l-1.2.6-1.3.3-1.3.2q-1.5 0-2.7-.3a6 6 0 0 1-3.7-3.9l-.2-.6v-2.1q.7-2.5 2.2-4.6 1.5-2.2 3.2-4z"/></g><g id="g235"><path id="path234" d="m193.2 228 .2.5.3.5.3.5.3.5.4.4.4.4.4.3.5.4.5.2.5.3.6.2.5.2.6.1h.6l.5.1h.6v.7q-2.5.2-5.1 0l-1.4-.2-1.2-.5-.6-.3-.6-.4-.5-.5-.5-.5.6-.5.4.5.5.4.5.3.5.3 2.3.6q2.4.4 5 0l.1.8h-1.2l-.6-.1-.7-.2-.6-.1-.6-.2-.6-.3-.6-.3-.5-.3-.5-.4-.5-.5-.4-.5-.4-.5-.4-.5-.2-.6-.3-.6z"/></g><g id="g236"><path id="path235" d="m186.3 236.6-.5.6-.3.6-.3.7-.1.8v1.4l.2.8.2.7.6 1.4.5.6.4.7.5.5.5.6 1.1 1.1 1.9 1.6-2.3-.9-2.3-1q-1.2-.4-2.4-1.1l-1-.9-.5-.5-.3-.6-.3-.6-.3-.7v-.6l-.1-.7h.9v.5l.2.6.1.5.2.6.3.5.4.4 1 .8 2 1.1 2.4 1-.4.7-1.2-1.2-.5-.6-.6-.7-.5-.7-.4-.7-.7-1.5-.2-.8-.2-.8V239l.2-.8.3-.9.5-.7.5-.7z"/></g><g id="g237"><path id="path236" d="m169.4 240.5-.3.7v1.6l.1.7.2.8q0 .4.3.8 0 .4.3.7l.4.7 1 1.1.7.5.7.4 1.5.6.9.1.8.2-.5.5-.3-1-.5-1-1.2-2a8 8 0 0 1-1-2.4v-.6l-.1-.2v-1.1l.1-.7 1 .3-.2.5v1l.1.6q.3 1.2.9 2l1.2 2 .6 1.2.4 1.2v.6h-.5l-1-.2-.8-.2a8 8 0 0 1-4.3-3l-.5-.7-.3-.8-.3-.8-.3-.9v-.8l-.1-.5V241l.4-.8z"/></g><g id="g238"><path id="path237" d="M157.2 233.8v-.2h-.1l-.1.2-.3.3-.5 1.7v2.8l.3.8.3.8.4.9.5.7.6.8.6.7.3.3.3.3.7.6.8.5-.6.5-.6-2.3-.2-1.2-.1-1.2v-1.2l.1-1.3q.2-.7.6-1.2l.6-.6.7-.2v.9h-.3l-.3.3-.4 1-.1 1v1.2l.2 1.1.1 1.2.6 2.3.2 1-.9-.5-.8-.6-.8-.6-.4-.4-.3-.3-.7-.8-.6-.8-.5-.8-.4-1-.4-.9-.2-1-.1-.9v-2l.6-2 .3-.4.2-.2.1-.2.2-.1h.3l.2-.1q.3 0 .3.2.3.1.2.3l.1.2v.1z"/></g><g id="g239"><path id="path238" d="M151.3 220.1h-.9l-.3.3-.5 1-.7 3q-.2.8-.1 1.7 0 1 .2 1.8v.4q.1.3 0 .2h-.1v-.1l.3-.3 1-1.5q.8-1.5 1.9-2.6 1-1 1.8-1.4l.6-.4.2-.1.3.7h-.1l-.6.3-1.6 1.4q-1 1-1.9 2.5l-1 1.5q0 .3-.3.4v.1l-.3.2h-.6l-.2-.2-.1-.2v-.3l-.2-.5-.2-1.9q0-1 .2-1.8.2-1.8.7-3.2l.6-1.2.5-.5h.1l.2-.1h.9l.2.1z"/></g><g id="g240"><path id="path239" d="m73 90 .4.9a63 63 0 0 0 4.5 10l2.4 3.7 1.3 1.5a8 8 0 0 0 2.5 2l1 .3.5.1h.5v.6H85l-1.2-.4a9 9 0 0 1-2.7-2.1l-1.4-1.6q-1.3-1.8-2.4-3.8a68 68 0 0 1-5-11z"/></g><g id="g241"><path id="path240" d="m68.7 96.3.4.4.4.5.5.6.5.8.5 1 .8 2.2q.7 2.3 1 4.2l.4 2h-.6l-.5-1.9-1.8-6.2-.5-1-.5-.7q-.1-.4-.4-.7l-.4-.5-.4-.4z"/></g><g id="g242"><path id="path241" d="M55 142.9v2.6l-.1.6-.2.6q0 .4-.2.7l-.2.7-.6 1.4-.9 1.4-1 1.2-1 1.1-1.1 1-.6.3-.5.4-1 .5-.7.4-.6.3-.4-.8.6-.4.7-.4 1-.5.4-.4q.3 0 .5-.3l1-1q.6-.3 1-1l.9-1.1.8-1.2.6-1.3.5-1.3.1-.6.1-.6.2-1v-1.5z"/></g></g></g><!-- app4joy --></svg>