<svg id="Capa_1" data-name="Capa 1" viewBox="0 0 600 400" width="100" height="66.66" xmlns="http://www.w3.org/2000/svg"><g id="g27"><path id="rect1" style="fill:#fff" d="M0 0h600v400H0z"/><g id="f"><g id="g"><g id="b"><path id="rect2" style="fill:#74acdf" d="M0 357.9h600v21H0z"/></g><g id="b-2" data-name="b"><path id="rect3" style="fill:#74acdf" d="M0 315.8h600v21H0z"/></g></g><g id="g-2" data-name="g"><g id="b-3" data-name="b"><path id="rect4" style="fill:#74acdf" d="M0 273.7h600v21H0z"/></g><g id="b-4" data-name="b"><path id="rect5" style="fill:#74acdf" d="M0 231.6h600v21H0z"/></g></g></g><g id="f-2" data-name="f"><g id="g-3" data-name="g"><g id="b-5" data-name="b"><path id="rect6" style="fill:#74acdf" d="M0 189.5h600v21H0z"/></g><g id="b-6" data-name="b"><path id="rect7" style="fill:#74acdf" d="M0 147.4h600v21H0z"/></g></g><g id="g-4" data-name="g"><g id="b-7" data-name="b"><path id="rect8" style="fill:#74acdf" d="M0 105.3h600v21H0z"/></g><g id="b-8" data-name="b"><path id="rect9" style="fill:#74acdf" d="M0 63.2h600v21H0z"/></g></g></g><g id="b-9" data-name="b"><path id="rect10" style="fill:#74acdf" d="M0 21.1h600v21H0z"/></g><path id="rect11" style="fill:#fff" d="M0 0h189.5v189.5H0z"/></g><g id="g26" style="display:inline"><g id="a"><g id="e"><path id="c" d="m94.7 94.7 15 6.3L129 12.2 79.7 88.5l15 6.2L129 12.2" style="stroke:#7b3f00;fill:#c6a511;stroke-miterlimit:210.53;stroke-width:1.62px"/><path id="c-2" data-name="c" d="m94.7 94.7-6.2 15 88.8 19.2-76.4-49.2-6.2 15 82.6 34.2" style="stroke:#7b3f00;fill:#c6a511;stroke-miterlimit:210.53;stroke-width:1.62px"/></g><g id="e-2" data-name="e"><path id="c-3" data-name="c" d="m94.7 94.7-15-6.2-19.2 88.8 49.3-76.4-15-6.2-34.2 82.6" style="stroke:#7b3f00;fill:#c6a511;stroke-miterlimit:210.53;stroke-width:1.62px"/><path id="c-4" data-name="c" d="m94.7 94.7 6.3-15-88.8-19.2 76.3 49.3 6.2-15-82.5-34.2" style="stroke:#7b3f00;fill:#c6a511;stroke-miterlimit:210.53;stroke-width:1.62px"/></g></g><g id="a-2" data-name="a"><g id="e-3" data-name="e"><path id="c-5" data-name="c" d="m94.7 94.7 6.3 15 76.3-49.2-88.8 19.2 6.2 15 82.6-34.2" style="stroke:#7b3f00;fill:#c6a511;stroke-miterlimit:210.53;stroke-width:1.62px"/><path id="c-6" data-name="c" d="m94.7 94.7-15 6.3 49.2 76.3-19.1-88.8-15 6.2 34.1 82.6" style="stroke:#7b3f00;fill:#c6a511;stroke-miterlimit:210.53;stroke-width:1.62px"/></g><g id="e-4" data-name="e"><path id="c-7" data-name="c" d="m94.7 94.7-6.2-15L12.2 129l88.8-19.2-6.3-15L12.2 129" style="stroke:#7b3f00;fill:#c6a511;stroke-miterlimit:210.53;stroke-width:1.62px"/><path id="c-8" data-name="c" d="m94.7 94.7 15-6.2-49.2-76.3L79.8 101l15-6.3-34.2-82.5" style="stroke:#7b3f00;fill:#c6a511;stroke-miterlimit:210.53;stroke-width:1.62px"/></g></g><g id="a-3" data-name="a"><g id="e-5" data-name="e"><path id="c-9" data-name="c" d="M94.7 94.7v15l82-15-82-14.9v15h82" style="stroke:#7b3f00;fill:#c6a511;stroke-miterlimit:193.14;stroke-width:1.49px"/><path id="c-10" data-name="c" d="M94.7 94.7H79.8l15 82 14.8-82H94.7v82" style="stroke:#7b3f00;fill:#c6a511;stroke-miterlimit:193.14;stroke-width:1.49px"/></g><g id="e-6" data-name="e"><path id="c-11" data-name="c" d="M94.7 94.7V79.8l-82 15 82 14.8V94.7h-82" style="stroke:#7b3f00;fill:#c6a511;stroke-miterlimit:193.14;stroke-width:1.49px"/><path id="c-12" data-name="c" d="M94.7 94.7h15l-15-82-14.9 82h15v-82" style="stroke:#7b3f00;fill:#c6a511;stroke-miterlimit:193.14;stroke-width:1.49px"/></g></g><g id="a-4" data-name="a"><g id="e-7" data-name="e"><path id="c-13" data-name="c" d="m94.7 94.7 12.4 12.4 55.6-80.3-80.3 55.6 12.3 12.3 68-67.9" style="stroke-miterlimit:226.33;stroke-width:1.75px;stroke:#7b3f00;fill:#c6a511"/><path id="c-14" data-name="c" d="m94.7 94.7-12.3 12.4 80.3 55.6L107 82.4 94.7 94.7l68 68" style="stroke-miterlimit:226.33;stroke-width:1.75px;stroke:#7b3f00;fill:#c6a511"/></g><g id="e-8" data-name="e"><path id="c-15" data-name="c" d="M94.7 94.7 82.4 82.4l-55.6 80.3 80.3-55.6-12.4-12.4-67.9 68" style="stroke-miterlimit:226.33;stroke-width:1.75px;stroke:#7b3f00;fill:#c6a511"/><path id="c-16" data-name="c" d="m94.7 94.7 12.4-12.3-80.3-55.6 55.6 80.3 12.3-12.4-67.9-67.9" style="stroke-miterlimit:226.33;stroke-width:1.75px;stroke:#7b3f00;fill:#c6a511"/></g></g><circle cx="94.739998" cy="94.739998" r="30.709999" id="circle11" style="stroke:#7b3f00;fill:#f2c916;stroke-width:1.67px;stroke-miterlimit:210.53"/><g id="g19"><path d="M90.5 96.5c-2.4.5-1.6 4-3.7 4.3-2.2.3-3.2 2.6-3 2.4a12 12 0 0 1 6.4-1.9c2.1 0 2.7 1.3 4.5 1.3 1.9 0 2.4-1.3 4.5-1.3 2.2 0 5.1.8 6.4 1.9.3.2-.8-2.2-2.9-2.4-2.1-.3-1.3-3.7-3.7-4.3 0 1 .8.8 1 2.4 0 1.3-2.4 1.3-2.9 0 .5 2.1-1 2.1-2.4 2.1s-3 0-2.4-2c-.5 1.2-2.9 1.2-2.9 0 .3-1.7 1-1.4 1-2.5z" id="path11" style="fill:#7b3f00"/><path d="M82.2 105.6c-2.1 1.6-2.6 2.4-2.9 4.2l1.4-2.2-.3-.2.4.1z" id="path12" style="fill:#7b3f00"/><path d="m80.8 107.5 1 .1z" id="path13" style="fill:#7b3f00"/><path d="M81.8 107.7q2.5.3 4.2 1c1.5-.1 3.5-.5 8.7-.5s7.3.4 8.8.5q1.8-.7 4.1-1c-3 0-6.8-2.1-8.6-2.1-2.1 0-2.7.5-4.3.5s-2.1-.5-4.2-.5c-1.9 0-5.8 2-8.7 2z" id="path14" style="fill:#7b3f00"/><path d="M107.6 107.7q.7 0 1-.2z" id="path15" style="fill:#7b3f00"/><path d="M108.7 107.5h.4zl1.5 2.3c-.3-1.8-.8-2.6-3-4.2z" id="path16" style="fill:#7b3f00"/><path d="M108.7 107.6c-2.8 1-3.7 1.2-5.2 1.1-2.5.8-4.6 1.7-8.8 1.7-4 0-6.2-.9-8.7-1.7-1.5.1-2.4 0-5.2-1.1 8.3 3.6 7.4 4.9 14 4.9s5.6-1.3 14-5z" id="path17" style="fill:#7b3f00"/><path d="m80.8 107.6-.4-.2z" id="path18" style="fill:#7b3f00"/><path d="m108.7 107.6.4-.2z" id="path19" style="fill:#7b3f00"/></g><g id="d"><path d="M79.8 85c-1.3.6-3.4 3.3 0 5.1-2.6-1.8-.5-4.5 0-5" id="path20" style="fill:#7b3f00"/><path d="M73.2 83c1.8 2 3-1.6 9.6-1.6s7.7 4 8.7 3.1c1.1-.8-5.5-5.5-7.7-5.8-2-.3-8.2 1.9-10.6 4.3m7.7 2.4c-1.9 1.6-.3 5 1.6 5s5.3-3.2 3.7-5.3" id="path21" style="fill:#7b3f00"/><path d="M89.7 87.8c-.3-3.2-3-3.8-7.2-3.8s-6.1 3.2-7.7 4c1.9 0 3.5-2.6 7.7-2.6s4.3 0 7.2 2.6m-.8.5c-1-1.6-2.4 1.6-5.3 1.6-3 0-4.6-.8-6.4-2-1.9-1.4 2.6 3.1 5.6 3.1s6.9-1.6 6-2.7" id="path22" style="fill:#7b3f00"/></g><path d="M94.7 114.9c-1.3 0-4.8.8 0 .8s1.4-.8 0-.8" id="path23" style="fill:#7b3f00"/><g id="d-2" data-name="d"><path d="M109.6 85c1.4.6 3.5 3.3 0 5.1 2.7-1.8.6-4.5 0-5" id="path24" style="fill:#7b3f00"/><path d="M116.3 83c-1.9 2-3-1.6-9.6-1.6s-7.7 4-8.8 3.1c-1-.8 5.6-5.5 7.7-5.8s8.3 1.9 10.7 4.3m-7.7 2.4c1.8 1.6.2 5-1.6 5-2 0-5.4-3.2-3.8-5.3" id="path25" style="fill:#7b3f00"/><path d="M99.8 87.8c.3-3.2 3-3.8 7.2-3.8s6 3.2 7.7 4c-1.9 0-3.5-2.6-7.7-2.6s-4.3 0-7.2 2.6m.8.5c1-1.6 2.4 1.6 5.3 1.6 3 0 4.5-.8 6.4-2 1.8-1.4-2.7 3.1-5.6 3.1-3 0-7-1.6-6.1-2.7" id="path26" style="fill:#7b3f00"/></g></g><!-- app4joy --></svg>