<svg id="Layer_1" x="0px" y="0px" width="531px" height="400px" viewBox="0 0 531 400" xml:space="preserve" xmlns="http://www.w3.org/2000/svg"><g id="g24"><path fill="#1B75BC" id="rect1" d="M20 20h491v360H20z"/><path fill="#ed1c24" d="M0 0v400h531V0Zm511 380H20V20h491z" id="path20" style="display:inline"/></g><g id="g23" style="display:inline"><path fill="#cccccc" d="M187.7 267.3c-2.2-6-1.4-3.5-3.5-9.6l22.4-10.4c.9-.3 1.3-1.3 1-2.1l-1.2-3.4a2 2 0 0 0-2.1-1l-24.1 5.4c-7.4-21.4-27.7-90.5-35-111.9-1.4-4.1 6-22.8 29.7-4.8-2 2-7 4.6-10.7 6.7 10.4 1 20.9 4.4 31.3 7.7a384 384 0 0 1-9.3-31.2c-1.8 3.6-1.3 7-4.1 8.2-26.5-18.1-43.2-1.1-54.4-17.5h-.2c1.3 19.2-25.7 24.4-31 48.4-.4 1.5-5.2-2.4-8.9-5.4 5.8 13.2 8.3 22.6 11.8 31.7 3.6-6.9 14-22.3 18.1-29-8 3.5-12.4 6.1-12 5.2 10.2-25.4 26.5-22.7 28.9-16.4 5.6 14.5 28 86.9 37.1 111.4l-22.1 11.2q-1.4.6-1 2l1.2 3.5c.3.8 1.3 1.3 2.1 1l24-6.3 3.6 9.5c-8.1 5.3-11.6 16.6-7.8 27.2 4.4 12.2 16.7 19 27.4 15 10.8-3.8 16-16.8 11.6-29-3.8-10.5-13.4-17-22.8-16m8 36c-6.4 2.2-13.5-1.7-16-8.8-2.2-5.9-.5-12 3.7-15.3q2 2 4 1.4c1.1-.4 2-1.9 2.3-3.7 5.3-.1 10.6 3.6 12.7 9.4 2.5 7.1-.5 14.7-6.8 17" id="path1"/><path fill="#cccccc" d="M138.6 111s25.4 5.2 22.2 20.2c-5.5 26.2-32.5 42.2-24.6 68.7 8.9 29.7 52.3 27.9 55.3 52 1.5 11.4-7.3 12-15.4 13.6-8 1.6-25.5 30.6-24.4 31.7 1.2 1.2 20.5-24.5 33-27 12.7-2.4 19.5-8.5 18.4-17.9-3.2-27.2-55.9-42.2-57.4-58.9-1.2-14.3 26-43.2 26-69.2 0-9-14.2-16.8-22.2-19.9 0 0-4.5-17.6-21.8-17.6L129 92h-4.5s-1.7 8 14 19" id="path2"/><path fill="#cccccc" id="polygon2" d="M304.7 175.5v-31.6h-49V81.6h-31.5v62.3h-49v31.6h49V302h31.5V175.5z"/><path fill="#ed1c24" id="polygon3" d="m409.1 160.7-76.4-20.2 13.2-61.8 77 22.9z"/><path fill="#cccccc" d="M144.7 378.2s-3.5-78.2 93.1-78.2S338 370.7 338 370.7s-20.3-27.2-40-27.2-20.7 25.4-27.7 25.4-3.5-18.5-12.7-18.5c-9.3 0-7.5 12.2-12.7 10.4-5.3-1.7-7.6-10.7-14.2-10.7-6.7 0-16.8 19.8-26.5 19.8s-11.3-20.1-29.9-20.1-29.5 28.4-29.5 28.4" id="path3"/><path fill="#cccccc" d="M362.3 44.7c-6.5-7.5-6.4-12.6-5.8-29.1-6.8 14.6-8.4 19.9-17.6 26.4 5.6 3.5 4.8 14.5 3.1 23.3-3.1.3-5.7 2.1-6.2 4.7-.5 2.5.8 5 3.3 6.6l-.2.6-57.2 231.4 17.6 8.2S338 107.2 345.9 78c3-.4 5.5-2.1 6-4.7.5-2.2-.7-4.6-2.8-6.2 5.3-16.9 7.6-17 13.2-22.5" id="path4"/><path fill="#b2b2b2" d="m43.2 52 4.2-4.6-2.3-4.7 4.7-.6-1.5-3.6 4-1s-2.2-7.7-.8-7.7c1.2 0 5.1 12.5 14.3 14.3a122 122 0 0 1 17.5 4.2c4.7 1.6 3-11 1.4-18.7-.2-1.2 21.6 14.2 21.6 21.8 0 11.6-22 2 1.1 22.7a31 31 0 0 1 6.3 10.2l-4.8-2 2.7 4.7s-11.3-4-15-7.7-15.8-6.2-13-1.4c6 10.6-11 9.8-18.3 11-7 1-11.8.6-19-2.3-1.6-.7 10.9-3 15.6-10 3-4.6 4.7-8.3 8.4-9.6 2.2-.8-3.3-7.9-6.7-11.2C62 54 43.2 52 43.2 52" id="path5"/><path fill="#1b75bc" d="m167.2 332.3 3.8 3.8 2-2-3.8-3.8 1.8-1.8 9.5 9.5-1.8 1.9-4-4-2 1.9 4 4-1.8 1.8-9.5-9.5z" id="path6"/><path fill="#1b75bc" d="m178.8 325-1.8 1.4-1.5-1.9 5.8-4.5 1.5 1.9-2 1.4 7 8.7-2.1 1.6z" id="path7"/><path fill="#1b75bc" d="m190.3 326.4 1.2 2.9-2.1 1.4-5-12.9 2.6-1.7 9.6 9.8-2.1 1.4-2.2-2.3zm.7-3-2-2-2-2.3c.3.8 1 2 1.2 2.8l1.2 2.6z" id="path8"/><path fill="#1b75bc" d="m197.9 325.2-6-12 2-1.2 4.3 3.8 3 2.9h.1c-.7-1.3-2-3.3-3-5.5l-1.4-2.7 2-1 6.1 12-2.1 1.1-4.1-3.6c-1-.8-2.3-2-3-3h-.1l2.9 5.4 1.4 2.7z" id="path9"/><path fill="#1b75bc" d="m208.8 305.8 1.6 5.2 2.6-.8-1.5-5.1 2.5-.8 3.8 13-2.5.7-1.6-5.4-2.6.7 1.6 5.5-2.5.7-3.9-13z" id="path10"/><path fill="#1b75bc" d="m228.2 309.7-3 .3.4 3.6 3.4-.4.3 2.3-6 .7-1.7-13.4 5.9-.7.2 2.3-3.2.4.4 3 3-.3z" id="path11"/><path fill="#1b75bc" d="M239 315.5h-2.6l.1-11.1H234l-.2 11H231l.2-13.5h7.9z" id="path12"/><path fill="#1b75bc" d="m245 302.4-1 13.4-2.7-.2 1-13.4z" id="path13"/><path fill="#1b75bc" d="m252.5 305.8-2.4-.4.4-2.4 7.3 1.2-.4 2.4-2.4-.4-1.8 10.9-2.6-.4z" id="path14"/><path fill="#1b75bc" d="m259 315.2-1.3 2.8-2.4-.6 6-12.4 3 .7-.6 13.7-2.5-.5.2-3.2zm2.6-1.5.3-2.9.3-3-1.3 2.8-1.1 2.6z" id="path15"/><path fill="#1b75bc" d="m284.4 315.8-2.5.2.4-2.1 3.4-.2 2 1-5.3 11.8-2.3-1z" id="path16"/><path fill="#1b75bc" d="M289.9 322.5a3 3 0 0 1 0-3.2c1-2 3-2.3 4.8-1.3 1.6.9 2.4 2.7 1.4 4.4q-.5 1.4-2.8 1.7 1.1 2 .1 4c-1.1 2.1-3.3 2.5-5.2 1.5s-2.7-3-1.7-4.9a4 4 0 0 1 3.4-2.1zm1.2 4.5q.7-1.6-.2-2.8-1.2.1-2 1.4-.9 1.6.2 2.5 1.2.5 2-1.1m1-6.6q-.6 1.2.1 2.3 1.1-.2 1.7-1.2.7-1.3-.1-2-1.1-.4-1.8.9" id="path17"/><path fill="#1b75bc" d="m292.5 331.8.9-1.5 2-.7c2.5-1 4.7-1.7 5.6-3.3q1-1.4-.4-2.4-1.2-.6-2-.5l.7-2q1.2 0 2.9 1c2.4 1.4 2.1 3.5 1.1 5.1-1.3 2-3.6 3-5.8 3.6l-1.1.3 3.3 2.2-1.2 2z" id="path18"/><path fill="#1b75bc" d="m308.4 329.7-2.5-.4 1-2 3.2.6 1.9 1.4-7.8 10.4-2-1.5z" id="path19"/><g id="g21"><path fill="#1b75bc" d="m267.8 318.3 4.2 1.5-.7 2.1-7-2.4.5-1.5 4.3-4-1-5.5.5-1.5 6.7 2.3-.7 2-3.8-1.2.8 4.7z" id="path21"/></g></g><!-- app4joy --></svg>