<svg width="1150.5" height="767" id="svg1322" viewBox="0 0 1150.5 767" xmlns="http://www.w3.org/2000/svg"><g id="g3"><path style="fill:#ffffff;fill-opacity:1;fill-rule:evenodd" id="rect2220" d="M0 0h1150.5v767H0z"/><path d="M519.8 212.7V326H406.5v115h113.3v113.3h115V441H748V326H634.8V212.7z" style="fill:#101f8a;fill-opacity:1;fill-rule:evenodd" id="rect1345"/></g><g id="g1"><path d="M267.6 690.2v-54.7h-19.5v-11.1h52.3v11.1H281v54.7zm100.6 0h-14.4l-5.8-15h-26.3l-5.4 15h-14.1l25.6-65.8h14zm-24.4-26-9.1-24.5-9 24.5zm32 26v-65.8h12.9l27 44v-44H428v65.8h-13.3l-26.6-43v43zm92 0v-65.8h13.3v25.9h26v-26h13.3v66H507v-28.9h-26v28.8zm92 0v-65.8h48.7v11.1H573v14.6h33v11.1h-33v18h36.8v11zm61.6 0v-65.8H674v65.8h-13.3v-54.7h-26v54.7zm65.8 0v-65.8h13.3v65.8zm66.3 0v-54.7H734v-11.1h52v11.1h-19.5v54.7zm100.6 0h-14.4l-5.8-15h-26.3l-5.4 15h-14.1l25.6-65.8h14zm-24.4-26-9.1-24.5-9 24.5zm30-39.8H905v11.1h-29.2l17 20.3-18.7 23.3h32.3v11.1h-47.8V678l17.6-22-16.8-19.7z" style="font-size:92px;font-style:normal;font-variant:normal;font-weight:bold;font-stretch:normal;text-align:start;line-height:125%;writing-mode:lr-tb;text-anchor:start;fill:#ff9900;fill-opacity:1;font-family:Arial" id="text1339"/><path d="m487.3 609 4.8 20.3 3.7-21.3z" style="fill:#ff9900;fill-opacity:1;fill-rule:evenodd" id="path3109"/></g><g id="g2"><path d="m190.1 223.6-19.6-62.9L183 157l38.8 34-13.1-42 11.8-3.7L240 208l-12.8 4-38-33.2 12.7 41zm63.2-19L235.9 141l12.8-3.5 17.4 63.5zm25.1-7-15.4-64 13-3.1 6.8 28.4 19.2-34.7 17.4-4.2-18 30.7 34.8 33-16.8 4-24.8-25.8-8 13.2 4.7 19.4zm64.6-15.2-12.5-64.6 13-2.6 5 25.5 25.5-5-4.9-25.4 13-2.5 12.6 64.6-13 2.5-5.5-28.2-25.6 5 5.4 28.2zm90.6-16.2-7.9-65.4 13.2-1.6 3.1 25.7 25.9-3-3.1-25.8 13.2-1.6 7.8 65.4-13.2 1.6-3.4-28.6-25.9 3.1 3.5 28.6zm87.7-42a36 36 0 0 1 7.8-25.4 30 30 0 0 1 23.2-9.9q15-.3 23.7 8.7 8.9 9 9.2 24.6a35 35 0 0 1-7.8 25 29 29 0 0 1-22.2 9.8q-11.1.3-18-3.4a28 28 0 0 1-11.3-11.3q-4.3-7.5-4.6-18m13.7-.9q.3 11.5 5.8 17t13.1 5.3q7.5-.2 12.7-6 5.1-5.5 4.8-17.4-.3-11.1-5.3-16.7a17 17 0 0 0-13.4-5.3q-8.5.2-13.3 6.1-4.7 6-4.4 17m7.7 5.4-.3-11.1 21.4-.6.3 11.2zM656 158.4l-14.5-.8-5-15.2-26.3-1.4-6.2 14.7-14-.7 29-64.5 14 .8zm-23.2-27.2-7.8-24.9-10.1 24zm30.4 28.2 7.6-65.4 12.8 1.5 21.8 46.7 5-43.7 12.3 1.5-7.6 65.4-13.2-1.5-21.5-45.8-4.9 42.7zm124.4 18-14.2-2.4-3.2-15.7-26-4.5-7.8 13.9-13.9-2.4 36.3-60.6 14 2.3zM768 147.5l-4.9-25.6-12.8 22.6zm41.3 34.6 11.6-53.5-19.1-4.1 2.3-11 51.2 11.1-2.4 11-19-4.2-11.6 53.5zm46-23.3q2.4-9.7 7.1-15.6 3.4-4.4 8.2-7.2 4.8-3 9.8-3.6 6.6-1 14.3 1a31 31 0 0 1 20.3 14.7 35 35 0 0 1 2.1 26.5 35 35 0 0 1-14.7 22 31 31 0 0 1-24.7 2.8 31 31 0 0 1-20.3-14.5 34 34 0 0 1-2.2-26.1m13.4 3q-2.8 10.8.7 17.7 3.6 7 11.3 8.9 7.6 2 14-2.2t9.3-15.4q2.9-11-.6-17.6-3.3-6.6-11.3-8.7t-14.2 2.1-9.2 15.2m68-15.9 43.5 13.6-3.3 10.6-27.9-8.7L959 186l-24.8 16.7 30.9 9.6-3.3 10.6-45.7-14.2 3.7-11.8 23.4-15.8-10.3-23.7z" style="font-size:92px;font-style:normal;font-variant:normal;font-weight:bold;font-stretch:normal;text-align:start;line-height:125%;writing-mode:lr-tb;text-anchor:start;fill:#ff9900;fill-opacity:1;font-family:Arial" id="text1333"/><path d="m448.2 77.2 4.7 20.2 3.7-21.2z" style="fill:#ff9900;fill-opacity:1;fill-rule:evenodd" id="path3984"/></g><!-- app4joy --></svg>