<svg x="0px" y="0px" width="592" height="400" viewBox="0 0 592 400" xml:space="preserve" id="svg26" xmlns="http://www.w3.org/2000/svg"><g id="g27"><path fill="#FFFFFF" id="rect1" d="M40 40h512.2v320H40z"/><path fill="#ED1C24" d="M0 0v400h592.2V0zm552.2 360H40V40h512.2z" id="path1"/></g><g id="g26" fill="#ED1C24"><path id="polygon1" d="M370.6 130.2h-68.7V57.9h-32.4v72.3h-68.8v32.4h68.8v147.2h32.4V162.6h68.7z"/><path d="M285.7 306.4c-44.2 0-82.6-27.6-102.1-68.3 10.6 57.7 52.3 100.7 102 100.7s91.5-43 102.2-100.7c-19.6 40.7-58 68.3-102.1 68.3" id="path2"/><path id="polygon2" d="m394.3 70.5-20.9 27.2 5.9.4-79.8 206.1 4.7 1.8L384 99.8l4.6 4.4z"/><path d="m305.6 242.6 3.5 4.3-41.6 36.1-31.3-160.8a20.6 20.6 0 1 0-7.3 1.3h.5l31 159.9-49.6-21.7 2.4-4.8-24.4-5 17.4 18.8 2.7-5.4 58.2 34 44.6-49.2 3.7 4.6 13.1-22zm-71.6-132-6.9 1.3.9 4.6a13.7 13.7 0 1 1 6.9-1.4z" id="path3"/><path d="M230.8 202.4c0-20.3 31.2-34.8 28.5-55.2-1.7-12.8-40.1-6.4-40.1-15.2 0-14.7 7.5-18.6 5.4-27-2.6-10.1-21.3-11-21.3-11-2 0-10-4-13-4s-5.1 2.3-8.6 3-1.7 2-1.7 2l3 1.4h-3c-5.4 0-9-1-11-2l-2.2-1.3-.6-.6a.5.5 0 1 0-.8.6c.1.1 3.4 4.4 14.7 4.4l4.2-.2-4.5 2s4.8.8 10.2.8 8.7-1 8.7-1 17.4-2.1 19.9 8c2 8.4-6.6 12.3-5.4 27 1.2 14.5 33.4 2.3 35 15.2 2.8 20.4-28.6 29.7-28.6 50 0 30 43.2 31.4 43.2 42.5 0 5-14.2 20.2-14.2 32.7v8.8s2.2-5.5 2.2-9.2c0-12.5 15.2-24 15.4-29.1 1-25.8-35.3-12.5-35.3-42.5M190.2 95q-1.7-.1-1.8-1.1.1-1 1.8-1.1c1.7-.1 1.7.5 1.7 1.1q-.1 1-1.7 1.1" id="path4"/><path d="M168.6 81.2c-3.6-3.6-10-6.5-10-8.1s11.3-3 11.3-9.3-16.4-13.2-38.5-13.2c-10.1 0 6.4 4.4 7 6.2s-7 3 4 3c3.6 0-6 1.5 2 5.7 4.6 2.4-18.5-.3-26-7.7-4-4 0 4.6 5 7.4s-4.6 1.5-8.6-4 0 5.2 5.2 6.7-5 .4-7.4.9-1.5 2.2 7.4 3.2-7.4 1.6-8.7 5.3 9.3-3.3 17.3-1.6 16.9 4.5-2 7c-2.3.2-2.3 1.7 1.1 2.8s-14.7 1-14.7 2.9c0 2.7 8 .3 7.5 2s-14.2 2.6-14.8 5.5 19 1.6 22.4 1.3c23.3-1.7 23-15.6 25-15.6 6.1 0 14 6.9 15.8 12.7l.4.3s2.9-9.8-.7-13.4m-1.7 4q-.7.3-1.3-1t.1-1.7q.7-.2 1.4 1 .5 1.3-.2 1.8" id="path5"/><path d="M80.2 169h-5v6.1h5.7v3.8H70.8v-22.3h9.7v3.7H75v5.2h5.1z" id="path6"/><path d="m92.2 178.9-1.8-10.5-1-7h-.1l-1 7-1.7 10.5h-4.5l4.9-22.3h5l4.7 22.3z" id="path7"/><path d="M108.3 169h-5v6.1h5.7v3.8H98.9v-22.3h9.7v3.7h-5.4v5.2h5.1z" id="path8"/><path d="M110.9 156.4a7 7 0 0 1 3.4 1.5c2 1.7 3.1 4.8 3.4 8.4h.2q.6-5.1 3.2-7.8a8 8 0 0 1 3.4-2.1l.8 4c-2.7 1-4.7 5.3-5.3 9.7l-.3 3.9v4.9h-4.3V174l-.2-3.8c-.4-4.7-2-9-5.2-10z" id="path9"/><path d="M132.9 179.2c-5.1 0-7.2-5.4-7.2-11.5s2.5-11.4 7.5-11.4c5.4 0 7 6 7 11 0 8.5-3 11.9-7.3 11.9m.1-3.7c2 0 2.8-3.4 2.8-8 0-4-.8-7.5-2.8-7.5s-2.9 3.5-2.9 7.6c0 4.5.9 7.9 2.9 7.9m1.8-10v4H131v-4z" id="path10"/><path d="M152.4 169h-5v6.1h5.7v3.8H143v-22.3h9.7v3.7h-5.4v5.2h5.1z" id="path11"/><path d="M156 156.9q2-.4 4.6-.4 3.8-.2 6 1.7c1.4 1.1 2 3 2 4.9q-.1 3.5-2 5.4a8 8 0 0 1-5.4 2h-.8v8.4H156zm4.4 10.1.7.1c2.1 0 3.1-1.6 3.1-3.6s-.8-3.5-2.8-3.5l-1 .1z" id="path12"/><path d="M175.5 156.6v22.3h-4.3v-22.3z" id="path13"/><path d="m183 173.8-1 5.1h-4.3l4.9-22.3h5.2l4.3 22.3H188l-1-5.1zm3.5-3.4-.7-4.7-.7-5h-.1l-.8 5-.8 4.7z" id="path14"/><path d="M413.1 156.6v9h4.5v-9h4.4v22.3h-4.4v-9.3h-4.5v9.3h-4.3v-22.3z" id="path15"/><path d="M437.2 179.2c-5.1 0-7.2-5.4-7.2-11.5s2.5-11.4 7.5-11.4c5.4 0 7 6 7 11 0 8.5-3 11.9-7.3 11.9m.2-3.7c2 0 2.7-3.4 2.7-8 0-4-.7-7.5-2.8-7.5s-2.9 3.5-2.9 7.6c0 4.5.9 7.9 3 7.9m1.7-10v4h-3.7v-4z" id="path16"/><path d="m450.3 173.8-1 5.1h-4.2l4.9-22.3h5.2l4.3 22.3h-4.2l-1-5.1zm3.6-3.4-.7-4.7-.7-5h-.1l-.8 5-.9 4.7z" id="path17"/><path d="M462 178.9v-22.3h4l3.4 8.7 2.4 6.5c-.1-2.3-.4-6.2-.4-10.3v-5h3.8V179h-4l-3.4-8.5-2.2-6.7h-.1l.3 10.2v5z" id="path18"/><path d="m482.5 173.8-1 5.1h-4.2l4.8-22.3h5.2l4.4 22.3h-4.2l-1-5.1zm3.6-3.4-.7-4.7-.8-5-.9 5-.8 4.7z" id="path19"/><path d="M494.9 160.6h-4v-4h12.3v4h-4v18.3H495z" id="path20"/><path d="M511 179.2c-5 0-7-5.4-7-11.5s2.4-11.4 7.3-11.4c5.4 0 7 6 7 11 0 8.5-3 11.9-7.2 11.9m.2-3.8c1.8 0 2.5-3.3 2.5-7.9 0-3.9-.6-7.4-2.5-7.4-2 0-2.7 3.5-2.7 7.5 0 4.5.7 7.8 2.7 7.8" id="path21"/><path d="M524.5 175.1h7.6v3.8h-12.5v-2.7l4.7-8.6-4.6-8.3v-2.7h11.9v3.7h-6.7v.1l3.8 7z" id="path22"/><path d="M192.3 213.2c0 6.7-2.6 9.7-6.5 10.3v6.5h-3.9v-6.5c-4-.6-6.5-2.8-6.5-8.9v-7h4v7c0 3.8.7 5.2 2.6 5.5v-12.5h3.7v12.5c1.8-.2 2.6-2.2 2.6-6.9v-5.6h4z" id="path23"/><path d="m197.3 224.9-1 5h-4.2l4.9-22.3h5.2l4.3 22.4h-4.2l-1-5.1zm3.6-3.4-.7-4.7-.7-5h-.1l-.8 5-.8 4.7z" id="path24"/><path d="M377.3 208q2-.5 4.5-.5 3.9-.1 6 1.8c1.4 1.1 2 3 2 4.9q0 3.5-1.9 5.3a8 8 0 0 1-5.4 2.2h-.9v8.3h-4.3zm4.3 10.1h.7c2.2 0 3.2-1.5 3.2-3.6 0-2-.8-3.4-2.8-3.4l-1 .1z" id="path25"/><path d="m394.6 224.9-1 5h-4.2l4.8-22.3h5.2l4.4 22.4h-4.2l-1-5.1zm3.6-3.4-.7-4.7-.8-5-.9 5-.8 4.7z" id="path26"/></g><!-- app4joy --></svg>