<svg x="0px" y="0px" width="531" height="400" viewBox="0 0 531 400" xml:space="preserve" id="svg22" xmlns="http://www.w3.org/2000/svg"><g id="g23"><path fill="#00AEEF" id="rect1" d="M20 20h491v360H20z"/><path fill="#ed1c24" d="M0 0v400h531V0Zm511 380H20V20h491z" id="path1" style="display:inline"/></g><g id="g22" style="display:inline" fill="#ed1c24"><path d="M319.4 305.8 339.8 142c2.6-1 4.8-4.2 5.4-8.2.6-4.3-.7-8.1-3.1-9.7l7.1-15-3.4-25-10.6 22.3 2 17.5c-2.4 1.2-4.3 4.2-4.9 8-.5 3.3.3 6.5 1.8 8.4L306.3 299q-8.1-3.4-17.1-5V166h40v-30h-40V84h-30v52h-40v30h40v127.9a84 84 0 0 0-68.7 76.1c16-25.9 47.4-43.5 83.7-43.5 36.2 0 67.7 17.6 83.7 43.5-2-27-17-50.4-38.5-64.2" id="path2"/><path d="m251.3 64.6-7.5-8.6v-3.8h-3.5v-5h-4.4s1.2-10.7 0-10.7c-1.8 0-9.5 24.7-25 15.7-7.5-4.4 1.3-18.4.5-19.2s-16 4.4-13.8 19.2c2.3 15-1.3 15.3-9.8 18.9-3.8 1.6-4.2 9-4.2 9l3.3-.9-2.3 3.3s9.8.8 13-2.3c3.2-3.2 9.5-2.4 9.5 3.1s2.5 15.1 9 14.5c14.8-1.6 14-11.7 20.1-14.2s-4.3-2.2-10.3 1c-4.6 2.4 4.7-3-3.6-4.8-3.2-.6 7.1-6.5 8-13.3.2-2 21-1.9 21-1.9m-61 11.4q-1.2.5-1.7-.1-.4-.8.8-1.5t1.7.2q.3.7-.8 1.4" id="path3"/><path d="m222.7 252.6-4.7-22 27.2-8.4a2 2 0 0 0 1.5-2.2l-.9-4.1a2 2 0 0 0-2.2-1.5l-28.4 2.4-14.7-76.7c-1-5 10.3-25.2 34.5-1a72 72 0 0 1-13.2 6c11.7 2.7 23.2 8.3 34.6 13.7-1.7-6.4-4.6-27.3-5.8-37-2.6 3.8-2.6 7.8-6 8.7-27.4-24.8-49.1-8-59.3-28.5h-.2c-1.6 22-33.2 23.8-43 50.4-.7 1.7-5.5-3.5-9.3-7.5 4.5 16 5.9 27 8.5 38 5.2-7.3 19.4-23.3 25.2-30.3-9.8 2.8-15 5-14.5 4 15.6-27.4 33.8-21.7 35.5-14.2 4.2 17.5 10.9 47.2 17.3 76.6l-27 9.3q-1.6.5-1.4 2.3l.8 4q.6 1.6 2.3 1.5l28.4-3.3 4.7 21.7c-10 4.8-15.8 17.1-13.1 29.9 3 14.6 16 24.2 29 21.5 12.8-2.8 20.8-16.8 17.7-31.4-2.7-12.6-12.6-21.4-23.5-22m3.4 42.2c-7.5 1.6-15-4-16.9-12.5-1.5-7 1.4-13.8 6.7-16.9q2 2.6 4.3 2.3c1.4-.3 2.6-1.9 3.3-3.9 6 .7 11.5 5.7 13 12.7 1.8 8.5-2.9 16.7-10.4 18.3" id="path4"/><path d="M245.3 254.3c-3.7-31.3-46.8-43.9-48.5-52.4-3.3-16.3 23.3-12.4 23.3-42.2 0-17.7-25.5-30.9-34.8-34.3-7.5-2.9-8.7-16.5-8.7-16.5-1.3-6.5 4.3-14.9 4.3-16.9s-.8-5.7-1.1-4-4 4-2.7 2.6c1.4-1.4-.3-11-1.1-7.2s-3 7-3 7c-2.2 2.3-7.8 4.8-10 10-2.1 5.3 2.2 11.3 2.2 11.3s1.5 8.6 3.5 16.5c9.2 37.7 41.5 16.8 38.7 34.3s-23 23.3-21.6 39.7c1.7 19.7 49.3 21.2 49.3 54.9 0 13-6.7 12.6-16 14.4s-21.6 29.9-22 35.7c-.5 8-16.8 13.7-15.4 15 1.3 1.4 21-2.7 21-15 0-5.8 6-23.3 20.5-26 14.5-3 23.4-16 22.1-27M170.7 98.5q-.6 1.3-1.4.8-1-.6-.5-2 .6-1.2 1.5-.8.8.6.4 2" id="path5"/><path d="M67.2 261.8v8.2l11-.2-.1-9.2 6.8-.1.2 16.2-40.4.6-.2-15.6h6.8l.1 8.5 9.3-.1v-8.2z" id="path6"/><path d="M86.3 242.4 67 243.5q-6.1.5-12.5.6l12.4 2.7 18.6 4.5-.6 7.1L45.3 247l.7-7.8 41-4z" id="path7"/><path d="m73.1 213.4-1.6 8 10.8 2.2 1.7-9.1 6.7 1.3-3 16-39.8-7.8 3-15.3 6.7 1.3-1.6 8.5 9.1 1.7 1.6-8z" id="path8"/><path d="M52.3 200.9c.3-.9 2-3.2 4.4-4.5 3.8-2 9.7-2.3 16-.7l.2-.4a27 27 0 0 1-12-9 13 13 0 0 1-2.2-6.3l7.3.7c.6 4.8 7.2 10.1 14.4 13.3q3.5 1.7 6.6 2.6l8.5 2.6-2 6.7-8.5-2.6c-2.5-.8-4.2-1.2-6.7-1.8-8.3-1.8-16.6-1.6-19.7 2.7z" id="path9"/><path d="M103.5 179.7c-3.3 7.5-13.6 6.7-23.7 2.2s-17.3-12-14-19.3c3.4-8 14.3-6 22.8-2.3 14 6.1 17.6 13.1 14.9 19.3zm-6-3c1.2-2.8-3.8-6.4-11.4-9.8-6.7-2.9-13-4.4-14.3-1.3-1.3 3 4 6.8 10.8 9.8 7.4 3.2 13.5 4.4 14.8 1.4zM82 167l6.7 3-2.4 5.4-6.7-3z" id="path10"/><path d="m102.3 142.8-4.1 7 9.4 5.6 4.7-8 5.9 3.4-8.2 14-35-20.3 8-13.5 5.8 3.5-4.3 7.4 8 4.7 4.1-7z" id="path11"/><path d="M88.9 123q1.2-3 3.7-6.3c2.5-3.3 5-5.5 8.4-6 3-.4 6.2.9 9 3q5 3.8 5.9 8.2c.8 3.3-.5 7-2.2 9.3l-.8 1 12 9-4.1 5.7zm18.9 5.4.7-.8c2.1-2.8.8-5.8-2.2-8-2.8-2.2-5.8-2.8-7.8-.2q-.5.8-.7 1.5z" id="path12"/><path d="m110.6 95.3 29.9 27.3-4.7 5.2-29.9-27.3z" id="path13"/><path d="m142.8 107.4 5 8-5 4.4-21.2-35.3 6.2-5.6 32.1 25.5-5 4.5-7.3-5.8zm.2-8.5-6.5-5.5-7-6 5.1 7.8 4.6 7.1z" id="path14"/><path d="M391.7 78.7 381 90.8l5.5 4.9 10.7-12.2 5.2 4.6-26.8 30.3-5.2-4.6 11.2-12.7-5.5-4.8L365 109l-5.2-4.6L386.5 74z" id="path15"/><path d="M391.2 137.2c-5-6.4.6-15 9.4-21.8 8.7-6.8 18.7-9.5 23.6-3.1 5.4 6.9-1.5 15.5-8.8 21.2-12 9.3-20 9.2-24.2 3.8zm5.5-3.9c1.9 2.5 7.4-.2 14-5.3 5.8-4.4 10-9.2 8-11.8s-7.8.2-13.7 4.8c-6.5 5-10.4 9.7-8.4 12.3zm15.9-8.7-5.8 4.5-3.7-4.8 5.8-4.4z" id="path16"/><path d="m411.5 149.5-8.7 3.4-3.5-5.8 38.8-14 4.2 7.2-31.2 26.6-3.4-5.8 7.1-6zm8.3 1.9 6.6-5.3 7.3-5.7v-.2c-2.6 1-6.4 2.8-8.6 3.7l-8 3.1z" id="path17"/><path d="m412.9 170.5 37-16.1 2.6 5.8-12.3 11.4c-2.5 2.2-6.5 5.9-9.3 8.2v.1c3.8-1.9 10-5.1 16.9-8l8.2-3.6 2.4 5.6-37 16-2.6-5.8 12-11.1c2.6-2.4 6.6-6 9.6-8.2q-5.5 2.7-16.8 7.7l-8.3 3.6z" id="path18"/><path d="m433.8 198.5-9.3 1.1-2-6.5 41-4 2.4 8-36.8 18.2-2-6.5 8.5-4.1zm7.5 3.8 7.8-3.5 8.4-3.7v-.2l-9.2 1.4-8.5 1.1z" id="path19"/><path d="m462.5 214-1.2-6.2 7.1-1.5 3.8 19.4-7.1 1.4-1.2-6.3-32.6 6.4-1.3-6.8z" id="path20"/><path d="M433.4 246c-.8-8 8.6-12.2 19.6-13.2s20.9 2 21.6 9.9c.8 8.6-9.7 12-18.9 12.9-15.1 1.4-21.7-2.8-22.3-9.5zm6.8-.4c.3 3 6.3 3.5 14.5 2.8 7-.7 13.4-2.2 13-5.4-.2-3-6.6-3.7-14-3-8 .7-13.8 2.5-13.5 5.6" id="path21"/><path d="m441.6 267.6-.1 12.3-6.9-.1.3-20.1h4.8l15.5 8 15.2-7.4 5 .1-.3 19h-6.9l.2-10.7h-.2l-12.7 5.9-13.7-7z" id="path22"/></g><!-- app4joy --></svg>