<svg width="295.6041" height="177.36247" viewBox="0 0 295.6041 177.36247" id="svg2986" xmlns="http://www.w3.org/2000/svg"><g id="g3"><path style="fill:#006600;fill-opacity:1;stroke-width:1.50971;stroke-linecap:square;stroke-miterlimit:3.864;paint-order:fill markers stroke" id="rect3563" d="M0 0h295.6v177.4H0z"/></g><g id="g2"><g aria-label="ΘΕΛΕΙ ΑΡΕΤΗ ΚΑΙ TOΛMH Η ΕΛΕΥΘΕΡΙΑ" transform="matrix(1.034 0 0 .96712 376.3 -59.5)" id="text3586" style="font-size:14.1663px;line-height:1.05;font-family:&quot;a Auto Signature&quot;;-inkscape-font-specification:&quot;a Auto Signature&quot;;text-align:center;text-anchor:middle;fill:#f26600;fill-opacity:1;stroke-width:0.442698"><path d="M-307.7 198.5q0-2.5 1.3-4 1.4-1.3 3.5-1.3t3.5 1.4 1.4 3.8-1.4 3.8-3.5 1.5q-1.5 0-2.7-.8-1.1-.8-1.6-2t-.5-2.4m1.3 0q0 1.8 1 3 1 1 2.5 1t2.5-1 1-3-1-3q-1-1.2-2.5-1.2t-2.5 1-1 3.3m1.5.5v-1.2h4v1.2z" style="font-style:normal;font-variant:normal;font-weight:normal;font-stretch:normal;font-family:Arial;-inkscape-font-specification:Arial;text-align:center;text-anchor:middle;fill:#f26600;fill-opacity:1;stroke-width:0.442698" id="path3616"/><path d="M-296.3 203.5v-10.2h7.4v1.2h-6v3.1h5.6v1.2h-5.6v3.5h6.2v1.2z" style="font-style:normal;font-variant:normal;font-weight:normal;font-stretch:normal;font-family:Arial;-inkscape-font-specification:Arial;text-align:center;text-anchor:middle;fill:#f26600;fill-opacity:1;stroke-width:0.442698" id="path3618"/><path d="m-282.5 193.3 4 10.2h-1.6l-2.6-7.4-.5-1.6-.6 1.6-2.7 7.4h-1.4l4-10.2z" style="font-style:normal;font-variant:normal;font-weight:normal;font-stretch:normal;font-family:Arial;-inkscape-font-specification:Arial;text-align:center;text-anchor:middle;fill:#f26600;fill-opacity:1;stroke-width:0.442698" id="path3620"/><path d="M-277.4 203.5v-10.2h7.4v1.2h-6v3.1h5.6v1.2h-5.6v3.5h6.2v1.2z" style="font-style:normal;font-variant:normal;font-weight:normal;font-stretch:normal;font-family:Arial;-inkscape-font-specification:Arial;text-align:center;text-anchor:middle;fill:#f26600;fill-opacity:1;stroke-width:0.442698" id="path3622"/><path d="M-267.7 203.5v-10.2h1.3v10.2z" style="font-style:normal;font-variant:normal;font-weight:normal;font-stretch:normal;font-family:Arial;-inkscape-font-specification:Arial;text-align:center;text-anchor:middle;fill:#f26600;fill-opacity:1;stroke-width:0.442698" id="path3624"/><path d="m-262 203.5 4-10.2h1.4l4.1 10.2h-1.5l-1.2-3h-4.2l-1.1 3zm3-4.2h3.4l-1-2.8-.8-2-.5 1.8z" style="font-style:normal;font-variant:normal;font-weight:normal;font-stretch:normal;font-family:Arial;-inkscape-font-specification:Arial;text-align:center;text-anchor:middle;fill:#f26600;fill-opacity:1;stroke-width:0.442698" id="path3626"/><path d="M-251.4 203.5v-10.2h3.8l1.6.1 1.2.5q.5.4.8 1t.3 1.4q0 1.3-.8 2.2t-3 .9h-2.6v4zm1.3-5.3h2.7q1.3 0 1.8-.5t.6-1.4q0-.6-.4-1-.3-.5-.8-.7h-3.9z" style="font-style:normal;font-variant:normal;font-weight:normal;font-stretch:normal;font-family:Arial;-inkscape-font-specification:Arial;text-align:center;text-anchor:middle;fill:#f26600;fill-opacity:1;stroke-width:0.442698" id="path3628"/><path d="M-242 203.5v-10.2h7.4v1.2h-6v3.1h5.6v1.2h-5.6v3.5h6.2v1.2z" style="font-style:normal;font-variant:normal;font-weight:normal;font-stretch:normal;font-family:Arial;-inkscape-font-specification:Arial;text-align:center;text-anchor:middle;fill:#f26600;fill-opacity:1;stroke-width:0.442698" id="path3630"/><path d="M-230 203.5v-9h-3.3v-1.2h8v1.2h-3.3v9z" style="font-style:normal;font-variant:normal;font-weight:normal;font-stretch:normal;font-family:Arial;-inkscape-font-specification:Arial;text-align:center;text-anchor:middle;fill:#f26600;fill-opacity:1;stroke-width:0.442698" id="path3632"/><path d="M-223.8 203.5v-10.2h1.3v4.2h5.3v-4.2h1.3v10.2h-1.3v-4.8h-5.3v4.8z" style="font-style:normal;font-variant:normal;font-weight:normal;font-stretch:normal;font-family:Arial;-inkscape-font-specification:Arial;text-align:center;text-anchor:middle;fill:#f26600;fill-opacity:1;stroke-width:0.442698" id="path3634"/><path d="M-209.7 203.5v-10.2h1.3v5l5-5h1.9l-4.3 4.2 4.4 6h-1.7l-3.6-5.1-1.7 1.6v3.5z" style="font-style:normal;font-variant:normal;font-weight:normal;font-stretch:normal;font-family:Arial;-inkscape-font-specification:Arial;text-align:center;text-anchor:middle;fill:#f26600;fill-opacity:1;stroke-width:0.442698" id="path3636"/><path d="m-201.3 203.5 3.8-10.2h1.5l4.1 10.2h-1.5l-1.2-3h-4.2l-1.1 3zm2.9-4.2h3.4l-1-2.8-.8-2-.5 1.8z" style="font-style:normal;font-variant:normal;font-weight:normal;font-stretch:normal;font-family:Arial;-inkscape-font-specification:Arial;text-align:center;text-anchor:middle;fill:#f26600;fill-opacity:1;stroke-width:0.442698" id="path3638"/><path d="M-190.6 203.5v-10.2h1.4v10.2z" style="font-style:normal;font-variant:normal;font-weight:normal;font-stretch:normal;font-family:Arial;-inkscape-font-specification:Arial;text-align:center;text-anchor:middle;fill:#f26600;fill-opacity:1;stroke-width:0.442698" id="path3640"/><path d="M-180.3 203.5v-9h-3.4v-1.2h8v1.2h-3.3v9z" style="font-style:normal;font-variant:normal;font-weight:normal;font-stretch:normal;font-family:Arial;-inkscape-font-specification:Arial;text-align:center;text-anchor:middle;fill:#f26600;fill-opacity:1;stroke-width:0.442698" id="path3642"/><path d="M-175 198.5q0-2.5 1.4-3.9t3.5-1.4q1.4 0 2.6.6 1 .7 1.7 2 .6 1.1.6 2.6 0 1.6-.6 2.8t-1.8 1.8-2.5.7-2.5-.7-1.7-2q-.6-1.1-.6-2.5m1.5 0q0 1.9 1 3 1 1 2.4 1 1.5 0 2.5-1 1-1.1 1-3 0-1.3-.4-2.2t-1.3-1.5-1.8-.5q-1.4 0-2.4 1t-1 3.3" style="font-style:normal;font-variant:normal;font-weight:normal;font-stretch:normal;font-family:Arial;-inkscape-font-specification:Arial;text-align:center;text-anchor:middle;fill:#f26600;fill-opacity:1;stroke-width:0.442698" id="path3644"/><path d="m-159.2 193.3 4 10.2h-1.5l-2.6-7.4-.6-1.6-.5 1.6-2.7 7.4h-1.4l4-10.2z" style="font-style:normal;font-variant:normal;font-weight:normal;font-stretch:normal;font-family:Arial;-inkscape-font-specification:Arial;text-align:center;text-anchor:middle;fill:#f26600;fill-opacity:1;stroke-width:0.442698" id="path3646"/><path d="M-154 203.5v-10.2h2l2.3 7.2.5 1.5.6-1.6 2.4-7h1.8v10h-1.3V195l-3 8.5h-1.1l-3-8.6v8.6z" style="font-style:normal;font-variant:normal;font-weight:normal;font-stretch:normal;font-family:Arial;-inkscape-font-specification:Arial;text-align:center;text-anchor:middle;fill:#f26600;fill-opacity:1;stroke-width:0.442698" id="path3648"/><path d="M-142.2 203.5v-10.2h1.3v4.2h5.3v-4.2h1.4v10.2h-1.4v-4.8h-5.3v4.8z" style="font-style:normal;font-variant:normal;font-weight:normal;font-stretch:normal;font-family:Arial;-inkscape-font-specification:Arial;text-align:center;text-anchor:middle;fill:#f26600;fill-opacity:1;stroke-width:0.442698" id="path3650"/><path d="M-266.9 221.6v-10.2h1.4v4.2h5.3v-4.2h1.3v10.2h-1.3v-4.8h-5.3v4.8z" style="font-style:normal;font-variant:normal;font-weight:normal;font-stretch:normal;font-family:Arial;-inkscape-font-specification:Arial;text-align:center;text-anchor:middle;fill:#f26600;fill-opacity:1;stroke-width:0.442698" id="path3652"/><path d="M-252.7 221.6v-10.2h7.3v1.2h-6v3.1h5.6v1.2h-5.6v3.5h6.3v1.2z" style="font-style:normal;font-variant:normal;font-weight:normal;font-stretch:normal;font-family:Arial;-inkscape-font-specification:Arial;text-align:center;text-anchor:middle;fill:#f26600;fill-opacity:1;stroke-width:0.442698" id="path3654"/><path d="m-239 211.4 4 10.2h-1.5l-2.6-7.4-.6-1.7-.5 1.7-2.7 7.4h-1.4l4-10.2z" style="font-style:normal;font-variant:normal;font-weight:normal;font-stretch:normal;font-family:Arial;-inkscape-font-specification:Arial;text-align:center;text-anchor:middle;fill:#f26600;fill-opacity:1;stroke-width:0.442698" id="path3656"/><path d="M-233.8 221.6v-10.2h7.3v1.2h-6v3.1h5.7v1.2h-5.7v3.5h6.3v1.2z" style="font-style:normal;font-variant:normal;font-weight:normal;font-stretch:normal;font-family:Arial;-inkscape-font-specification:Arial;text-align:center;text-anchor:middle;fill:#f26600;fill-opacity:1;stroke-width:0.442698" id="path3658"/><path d="M-221.5 221.6v-4.3l-4-5.9h1.7l2 3 1 1.8 1.1-1.8 2-3h1.6l-4 5.9v4.3z" style="font-style:normal;font-variant:normal;font-weight:normal;font-stretch:normal;font-family:Arial;-inkscape-font-specification:Arial;text-align:center;text-anchor:middle;fill:#f26600;fill-opacity:1;stroke-width:0.442698" id="path3660"/><path d="M-216.2 216.6q0-2.5 1.4-4 1.4-1.4 3.5-1.4t3.5 1.5 1.3 3.8-1.3 3.8-3.5 1.4q-1.5 0-2.7-.7-1.1-.8-1.6-2t-.6-2.4m1.4 0q0 1.8 1 2.9t2.5 1 2.5-1 1-3-1-3-2.5-1.1-2.5 1-1 3.2m1.5.5v-1.2h4v1.2z" style="font-style:normal;font-variant:normal;font-weight:normal;font-stretch:normal;font-family:Arial;-inkscape-font-specification:Arial;text-align:center;text-anchor:middle;fill:#f26600;fill-opacity:1;stroke-width:0.442698" id="path3662"/><path d="M-204.7 221.6v-10.2h7.4v1.2h-6v3.1h5.6v1.2h-5.6v3.5h6.2v1.2z" style="font-style:normal;font-variant:normal;font-weight:normal;font-stretch:normal;font-family:Arial;-inkscape-font-specification:Arial;text-align:center;text-anchor:middle;fill:#f26600;fill-opacity:1;stroke-width:0.442698" id="path3664"/><path d="M-195.3 221.6v-10.2h3.9l1.5.1q.8.1 1.3.5.5.3.8 1t.3 1.4q0 1.2-.8 2.1t-3 1h-2.6v4zm1.4-5.4h2.6q1.3 0 1.9-.4t.5-1.4q0-.6-.3-1t-.9-.7h-3.8z" style="font-style:normal;font-variant:normal;font-weight:normal;font-stretch:normal;font-family:Arial;-inkscape-font-specification:Arial;text-align:center;text-anchor:middle;fill:#f26600;fill-opacity:1;stroke-width:0.442698" id="path3666"/><path d="M-185.6 221.6v-10.2h1.4v10.2z" style="font-style:normal;font-variant:normal;font-weight:normal;font-stretch:normal;font-family:Arial;-inkscape-font-specification:Arial;text-align:center;text-anchor:middle;fill:#f26600;fill-opacity:1;stroke-width:0.442698" id="path3668"/><path d="m-183 221.6 4-10.2h1.4l4.1 10.2h-1.5l-1.2-3.1h-4.2l-1.2 3zm3-4.2h3.4l-1-2.8-.8-2.1-.5 2z" style="font-style:normal;font-variant:normal;font-weight:normal;font-stretch:normal;font-family:Arial;-inkscape-font-specification:Arial;text-align:center;text-anchor:middle;fill:#f26600;fill-opacity:1;stroke-width:0.442698" id="path3670"/></g></g><g id="g1"><path id="path3580" style="fill:#f26600;fill-opacity:1;stroke-width:1.57665;stroke-linecap:square;stroke-miterlimit:3.864;paint-order:fill markers stroke" d="M168.4 19.5c-5.5 1.8-6.3 8-5.3 12.9 2.8 4.5.3 8-3.7 10.5-2.7 3.5-4.7 10.1-10.3 9-5.4-1-10.6-4.5-15.6-4.2-3.4 2.4-9.7 0-11.7 2.7.2 2.1 5.6 6 .4 5.4-.5-3-7.7-5-4-.8.5 2.9-7 7.5-.7 7.7 1.5-4 11.2-1 4.8 2.2-4 3-9.6 3-13.3 6.7-4.1 2.5-4.4 7.5-9.2 8.5-5.2 4.4-3.6 10.1-1.7 15.5a26 26 0 0 0 8.3 12.7c1.9 1.3 4 2.3 1.5 4.1 1 3 5 3 7.2 3.7 3.3-4.8 7 6.5 9.1 2-5.5-2.3 2-7.7 4.2-3.3 5.4 1.2 11.3-2.9 15.7-.1h13.1c3.5-1.8 7.9 1.3 12 0 8.6 0 17.2.2 25.9-.3-2.6-5 1-9.3.3-14 .3-5 4.6-8.8 3.8-13.8.5-3.9-3.3-6.6-1.8-10.7 1.5-6.4-1.3-12.4-3.2-18.3-.7-5 1.4-11.3-3-15-2.7-1.4-9.4-6.6-10.1-2.5.7 2.8 3.4 4.9 5.3 2 2.5 2.2.5 9.5-2.7 4.8-3.8.4-7 8.6-11 2.4-3-1.6-3.8 6-7 1.2-3.1-6.6-7.2 2.8-10.4 5.4-4.1 3.3-1.7-3 .5-4 3.2-5 6.6-10.6 12.7-12.1 3.5.4 4.7-5.6 6.3-5.3.3 2 0 10.4 2.5 4.8 1.1-5.2 4.7-11.5 1.8-16.7-3.3-1.8-6.9-3.8-10.7-3m1.5 1.8c3 2.8-7.3 9.7-5 3.5 1.3-1.7 3.3-2.5 5-3.5m.6 5.7c4.3 3-4.4 12-3.8 4.8q1.3-2.8 3.8-4.8m4.6 27.2c4.5-1.4 3.4 4.5-.2 4.3-2.9 2.5-11.7-.5-8.9-4.2 2.6.7 5.5 2.7 7-.2zM161.7 56c5.3 4.7-5.4 7.9-6.7 3.9 3.1 0 3.8-3.5 6.7-3.9M140 56c2.4 5.2 9.4 3.9 12.3 6.7-3 3.1-10 1.4-14.2.5a10 10 0 0 0-7.8 9.7c.6 4.9-1.7 11.3 1.5 15 1.2 3-6.6 8-4.2 2.9 3.2-4.5-.6-10.6-4.3-13.5-1.9-.6-4.4 2.3-4.5-1.7 3.8-3.1 8.4-5.7 11.1-10.3 3.3-3 .5-11.6 7.3-9.3zm-12.4 1.6c2.3 1.8-1 7.6-.7 2.3q-.1-1.3.7-2.3m38.3 2c4.6 1.4 3.2 4.4-.1 6.2-4.7 3.9 7.5 5.5 1.8 7.4-4.8 1.4-11-6-5.8-9.2 2.8 0 2.6-2.8 4-4.3m7 1.5c6.1.5-2.3 11.6-2.8 6.3-.3-2.4.3-5.3 2.8-6.3m-47 2c3.5 3.3-3.5 3.5 0 0m60.7 0c.7 4.9.8 9.9 2.4 14.4.5 7.6-11.2 3.6-11.4-.9 2.3-4 5.9-7.2 7.9-11.4q.4-1.1 1-2.1m6.4 3.2c3.7 2.2-2 13.5-2.4 7-.2-2.5.1-5.4 2.4-7m-46.7 0c4.9-1.9 6.2 5.7 7.6 7.8-4.8 3.6-7-6-11.7-4.5-3.3.4-6.8 4.8-1.7 4.6 0-5.5 6.9-1 5.7 2.2-2.4-1.4-4.2-1.8-4.5 1.7-3.6 5.2-6.7-3.8-6.3-7-4.5-7 6.5-4.4 10.2-4.6zM118 69.7c4.7.8-2.5 2.8-.7.5zm-3.4 1.7c3.6 2-5 2.7-4.4 5.8-2.6 3.9-5.6 1-1.8-1.6 1.6-1.8 3.3-4.5 6.2-4.2m59.2 0c3 2.4-6.9 7.5-3 2q1.2-1.7 3-2m-15.2 2.2c3 1.4 11.5 5.7 3.9 4.6-1.4-.7-6.1-2.7-3.9-4.6m-5.1 5c1.8-.7 8.6.8 3.3 1.5-.8 3.2-3.4 6.3-6.3 3.1-3 .3-4 4.3-6.8 5.1-2.8 1.6-4.5 5.3-4.4 7.1-4.4 0-5.1 9.1-9 6 0-5.2 4.6-9.1 6-14.1 1.5-4.7 5.6-7.8 10.6-7.5 2-1.4 4-1.4 6.6-1.2m-48 2c2.5 2-1.5 9.4-2.5 4.4a26 26 0 0 1 2.4-4.5m6.7 1.4c2.5 2.8 10.3.4 7.6 6.7-1.3 6.2-10.1 2-8.8-3.3-2.4-2.3.2-1.3 1.2-3.4m82 1.6c3.2 2.2-1.4 6.6-1.4 9.5-2.8 1.5-6.2-2.7-8.6.6-4-.1-7.8-4.6-2.6-6.5 4-3.4 11.2 6.1 10.8-1.8-.2-1 .8-2 1.9-1.8m-31.1 7.1c4.9 1 1.6 4.2-1.4 3.8-2 5.4 7.6 1.3 8.5 5-1 5.9-7.7 1.5-11.4 3.3-1.6 3.6 8 1.9 7.5 5.6a28 28 0 0 1-15.2 3c-4.1-2 2-6.7 3.3-8.7 4.7-1.8-.3-9 4.8-11.8 1.2 3.5 2-.7 3.9-.2m-63 .1c3.2 3.2-3 3.8 0 0m9.7 3.3c3.2 2.2-4.3 1.2 0 0m44 0c3.6 3.4-6 3.5-.7.4l.3-.2zm-37.7 1.6c5 .2-1.3 6.3-2 1.6-3-1.1 1-1.8 2-1.6m-11.3 0c5 5.5-6.1 1 0 0m78 2c3.8-2.3 9.4 4 3.5 4.6-3.3.4-10.5-.4-10.6 3.5 3.9.5 5.7 2.5 8.8.2 5.3.4-1.3 7.4-4.5 5.3-3-.8-12.6 1.8-8.1-3.5-3.2-4.2 2.1-10.5 7.2-10.4q2 0 3.7.3m-35.4 3.3c6 1.3-5 5.8-2 1.2.5-.6 1.1-1.4 2-1.2m-39.3 1.6c4.7 1.4-3.4 2-.8.3zm30.4 1.7c6 1.7-4.1 2.5 0 0m5 1.8c4.8.2-1.7 2.7-.5.4zm-14 2c3.7 3.4-5.7 3.6-.6.4l.3-.3zm-14.6 1.6c6.8-1.2-3.1 8.7-3.2 1.8-.4-2 1.9-2.1 3.2-1.8m18.7.1c5.3-.7 1.6 3.2-1.2 1-.7-.7.8-1 1.2-1"/><g aria-label="ΖΑΚΥΝΘΟΣ" id="text3592" style="font-size:12.7px;line-height:1.25;font-family:&quot;a Auto Signature&quot;;-inkscape-font-specification:&quot;a Auto Signature&quot;;fill:#f26600;fill-opacity:1;stroke-width:0.264583" transform="translate(379.4 -58.1)"><path d="m-272.2 117.5-2 6.9-1-.3-5.2-7.4-1.5 5.2-1-.3 1.8-6.6 1.1.3 5.2 7.5 1.6-5.6z" style="font-size:12.7px;fill:#f26600;fill-opacity:1;stroke-width:0.264583" id="path3599"/><path d="m-268 109.3-.6 1.1-2.6-.4-2 3.5 2 2-.7 1.1-6.5-7.3.7-1.4zm-4.4.5-4.7-.7 3.2 3.6z" style="font-size:12.7px;fill:#f26600;fill-opacity:1;stroke-width:0.264583" id="path3601"/><path d="m-262.4 102.4-1 1.2-5.5.2.2 1.4 2.4 2-.7 1-7.2-6 .8-.9 3.7 3-.9-6.5 1-1.1.7 6z" style="font-size:12.7px;fill:#f26600;fill-opacity:1;stroke-width:0.264583" id="path3603"/><path d="m-262.4 90.2 1 6 2.6 3.1-1 .8-2.5-3-6-1.8 1-.9 4.7 1.5-.8-4.8z" style="font-size:12.7px;fill:#f26600;fill-opacity:1;stroke-width:0.264583" id="path3605"/><path d="m-249.3 92.8-1.3.8-8-4.8 4.3 7-1 .7-4.8-8 1.6-1 7.4 4.4-4-6.4 1-.6z" style="font-size:12.7px;fill:#f26600;fill-opacity:1;stroke-width:0.264583" id="path3607"/><path d="M-243.6 81.5q.7.4 1.3 1.1t1 1.8q.5 1.1.5 2 0 1-.3 1.8t-.9 1.3-1.5 1q-1 .3-1.8.3t-1.6-.4q-.7-.3-1.3-1-.6-.8-1-1.8t-.5-2 .2-1.8 1-1.3 1.5-1q1-.3 1.8-.3t1.6.3m1.1 3.4q-.6-1.7-1.7-2.3t-2.4-.1-1.7 1.7.2 2.9 1.8 2.3 2.4 0q1.3-.4 1.7-1.6t-.3-2.9m-.9.6-3.6 1.4-.4-1 3.6-1.5z" style="font-size:12.7px;fill:#f26600;fill-opacity:1;stroke-width:0.264583" id="path3609"/><path d="M-232.5 78.9q.6.5 1.1 1.3t.7 2q.2 1 .1 2t-.5 1.6q-.5.8-1.2 1.2-.7.5-1.7.7t-1.8 0-1.5-.6-1.1-1.4-.7-1.9-.1-2q.1-1 .5-1.7t1.2-1.2 1.7-.7h1.8q.8.2 1.5.7m.6 3.5q-.4-1.8-1.4-2.6t-2.3-.5-2 1.4q-.6 1-.2 2.9.3 1.7 1.3 2.5t2.3.5 2-1.3.3-3" style="font-size:12.7px;fill:#f26600;fill-opacity:1;stroke-width:0.264583" id="path3611"/><path d="m-221.1 86.3-7.2.2v-1l3.6-4-3.8-3v-1.2l6.8-.2v1l-5.2.2 3.8 3v.2l-3.8 3.9 5.7-.2z" style="font-size:12.7px;fill:#f26600;fill-opacity:1;stroke-width:0.264583" id="path3613"/></g></g><!-- app4joy --></svg>