<svg xmlns="http://www.w3.org/2000/svg" id="svg69" width="1000" height="500" viewBox="0 0 1000 500"><clipPath id="cp" clipPathUnits="userSpaceOnUse"><path id="path1" d="M377 308h244v32l-18 15-103 48-104-53a35 35 0 0 1-20-31z"/></clipPath><g id="g71"><path id="path2" fill="#0d3692" d="M0 0v500h1000V0z"/></g><g id="g70"><path id="path3" fill="#0d3692" d="M376 179v53h247v-54H376z"/><path id="path4" fill="#bdbdbd" d="m415 197 20 4 14 10 34-13 8-6 20 11 11 10 21-11 6 2 10 6 22-11 3 1 5 1 12 3 23 12v31l-249-1 1-27"/><path id="path5" fill="#bdbdbd" d="M376 273v32h247v-32z"/><path id="path6" fill="none" stroke="#231f20" stroke-width=".6" d="M376 305v-32h247v32z"/><path id="path7" fill="#fff" d="M375 95v80h250V95z"/><path id="path8" fill="#feba35" d="M377 308h247v11c0 13-8 26-20 31l-104 53-104-53a35 35 0 0 1-20-31v-11"/><path id="path9" fill="#fc1921" d="M483 95h34v27h108v26H517v27h-34v-27H374v-26h109"/><path id="path10" fill="#0b0b0b" d="M372 179h252v-6H372z"/><path id="path11" fill="#000" d="M376 270v3h248v-3z"/><path id="path12" fill="#0b0b0b" d="M376 305v3h248v-3z"/><g id="g22" fill="#000"><path id="path13" d="m565 291-4 4h-1c-2 1-3 1-3 3h-1c-1-2-4-2-4 0l-4 1-3-1-1 1h-6c-3 2-2 3-1 5h21l38-1h18l3-1c0-3-1-2-3-3a5 5 0 0 0-3-1l-2 1-3-1-1 1-9-1a6 6 0 0 0-3 0h-1l-3-1c-1-3-3-4-5-3-2-1-4 1-5 2h-5c-2-1-2-2-5-1l-2-4z"/><path id="path14" d="m609 284-3 1h-2l-1 1c-2 1-4-1-5 1h-2c-2 0-5-1-6 1-2-1-4-2-5 0l-3-2-2 1-4 1c-2 1-1 2-1 4l9 1 6-1 6 1h3l1-1 9 1h9l3-2v-2h-1c-1-2-2-5-5-4l-2 1h-1z"/><path id="path15" d="m575 275-5 1h-13c-2 0-5 0-6 3l1 2h22l13 1h9l3-1h11l1-3-6-2h-2l-4 1-3-1h-3c-1-1-2 0-3 1v-1l-11-1z"/><path id="path16" d="M539 284a5 5 0 0 0-3 1c-2-2-3-1-5 0-1 2-3 2-5 2l-2 1c-2-1-3 0-5 1l-2-1-4 1-3 1-4-1-4 1-3 2v1l1 1h51c2 0 3 0 4-2l-2-2-4-1c-1-1-2-2-4-1h-1l-1-2-1-1z"/><path id="path17" d="m488 275-6 3-2-1c-2 0-4-2-6-1-1 1-3 0-4-1-3 2-5 2-7 1l-6 4 1 1c1 2 2 1 4 1h17c1 0 2 0 3-2a4 4 0 0 0 2 2l14-1h1l21 1c2 0 2-2 2-3-1-2-2-2-4-2l-2-1h-1l-8-1-1 1h-4l-2-1-1 1h-3z"/><path id="path18" d="M499 293v-1h-1z"/><path id="path19" d="M498 302v-3l-1-1h-2l-3-1-4-1v-2c-2-3-4-2-7 0h-3l-1-1-1-1h-2c-4-1-5 2-7 4-2-1-3 1-5 1h-2l-1 2a5 5 0 0 0-5 0h-5c-2 1-5-1-5 3l3 2 17-1h33z"/><path id="path20" d="M406 296h8c1 2 0 2 3 2l1 1h4c3 2 1 3 0 4-8 0-16 1-23-1h-10l-4-1 2-3h1c1-2 3-2 5-2l2-2c1-2 3-2 4 0 3 0 4 0 6 2z"/><path id="path21" d="M451 286h3l4 1c1 2 0 3-2 3h-25l-7 1-9-1h-6l-1-1 4-4h6c2 1 4-1 5-1h4c2-1 3-2 4-1l3 2c1-2 3-2 5 0h3c2-2 5 1 8 1z"/><path id="path22" d="M408 276h3l3 1 2 1 4 1c0 2 0 2-2 3h-34l-1-2v-1h1l2-1c2-2 5-2 8-3l1 1h5c2-1 4 1 6 1z"/></g><g id="g33" fill="#0d6826"><path id="path23" d="m610 279-1 1h-10c0-2 3-2 4-3 2 1 5 0 7 2"/><path id="path24" d="m565 293-3 3-4 2-1 1h-4c0 2-3 1-4 2-1 0-3-2-4-1h-2c-1-1-2 0-3 1h-3l1 1h78l-1-1-3-2c-2 2-4 0-5 0-4 2-9-1-13 0-2 2-3-2-5-1-2 0-2-2-3-3l-3 1c-1-2-3 1-4 2-2-2-3 0-5-1-2 1-2-1-4-2-2 2-3-1-4-2z"/><path id="path25" d="M539 285h-1l-2 1-2-1-2 1c-1 2-3 3-6 2l-3 2c-1-2-3 0-5 0h-5c-1 1-3 2-4 1-2 1-3-1-6-1l-3 2 1 1h31l6-1 7 1a15 15 0 0 1 5 0l3-1-1-1c-1-1-4 0-5-2h-2l-1 1-2-3c-1 0-1-2-3-2"/><path id="path26" d="M578 276c3 2 7 1 11 1 1 3 3-1 4 0l5 1v1c-3 3-7 1-11 1h-13c-2-1-5 1-7-1h-14s-1 0 0 0c2-2 7-1 10-2 3-2 6 1 8 0 2 0 4-2 5 0z"/><path id="path27" d="M613 287h4l3 3-2 2-9-1h-9c-3 2-6 0-10 0h-14v-1c2-3 5 0 6-2 2 0 3 2 5 0 1 0 2 3 4 1 3-1 6 1 8-2h5l4-1h2c1 1 2 2 3 1"/><path id="path28" d="M496 278c2-1 4-2 6-1 1-2 3 1 5 0h8c2 2 5 1 6 2l-1 1h-33c-2 0-3 1-4-1 1-2 3-2 5-3z"/><path id="path29" d="M475 277c2 0 3 2 5 1l1 1-1 1-21 1v-1l4-2 7-1z"/><path id="path30" d="m476 294 2 1h3c2 0 4-3 6 0l-1 2c2 1 4-1 6 1l5 2v1h-29l-21 1h-1l1-1 5-1h2a4 4 0 0 1 4 0c1 1 2-1 2-1 3 1 4-3 7-2h1c2-1 2-5 5-3z"/><path id="path31" d="M400 295c3 0 4 3 6 3 2-3 4 1 7 0 1 2 3 1 5 2l4 1-1 1c-7 0-15 1-22-1h-12c0-2 2-1 3-3l3-1c2 0 3-5 5-2z"/><path id="path32" d="M435 285c2-1 3 2 5 1h5l7 1 5 1-1 1h-47l3-3c1 1 3 1 4-1l2 1c4 2 5-3 8-1h2l2-1c1 2 4 4 5 1"/><path id="path33" d="M399 278c3-2 5 1 8 0 1-1 2-2 3-1l4 1c1 2 3 1 5 2l-2 1h-32c-2-2 2-1 2-2 2-2 4-2 6-2 2 1 5-1 6 1"/></g><g id="g39" fill="#000"><path id="path34" d="m580 199-12 6-31 16-4 2-2-3-17-15-1 1-6 2c-2 2-3 2-3 4l8 10c2 2 4 1 6 1l19 4 4 1 13 6 3 1h5c1-3 0-3-3-4l-8-4 5-1 14 1c3 1 3 0 5-3l-11-6 10-2 11 7c5 0 11 4 15-1l1-1 1-2-1-1-8-5v-2c0-3-2-4-4-4a8 8 0 0 1-4-6z"/><path id="path35" d="M537 204v9l1-3 4-2 2 1v1h1c2-1 3 0 4-3a23 23 0 0 0-7-5z"/><path id="path36" d="M616 219c-1 1-4 0-6-1l-6-4c-2-1-1-3 1-4l12 6z"/><path id="path37" d="M537 213v-9l-12 7 3 3c2 2 2 3 5 1l2-1z"/><path id="path38" d="M386 218c-1 1-2 1-2 3l-1 4 1 1 3-1 9 2h2l2-1-3-5-1-1-2-1z"/><path id="path39" d="m486 189-48 26-15 8c-2-1-6-1-7-3l3-1 4-2v-5l5-2c3-1 5-1 5-4h3c2 1 3 2 5 0 1-3-2-4-5-6l-18-7-1 1-1 1-20 10-3 2c1 2 1 4 3 3h3l-2 2-1 1v2l2 2c2 2 3 1 5 1l2 2v3l2 1 11 8h3l7-7 13-1c2 1 5 3 8 2l4-3-1-1-5-3 4-2h5l3 2c3 0 3-3 4-4l6 1h1c2 5 6 5 10 7 3-1 4 0 6-3a70 70 0 0 0-7-9l4-2 7 7 7-2c1-3 1-6-2-7l-8-4 9-3v-1l-1-3c-1-4-5-6-9-7"/></g><g id="g44" fill="#fff"><path id="path40" d="m580 200-43 22-3 2c-2 1-1-1-2-2l-18-15c-3 0-4 2-6 3-1 0-3 1-2 2l7 9c1 2 4 0 6 1l18 4 5 1c5 2 9 5 15 6l4 1-1-2c-3-1-8-1-10-5l2-2 16 1c2 0 4 1 5-1l-12-7c4-2 9-2 13-3l11 7c5 0 10 4 14-1l2-2-9-5v-4c-1-2-2-2-3-2a9 9 0 0 1-5-6z"/><path id="path41" d="m542 203-5 3-10 5c0 2 2 2 3 3 2 1 3-1 5-1 2-1 1-2 2-3v-1l5-2 3 1 3-1z"/><path id="path42" d="m616 217-1 1c-4 1-7-4-10-5v-1z"/><path id="path43" d="m386 219-2 5 1 1c4-2 8 0 11 1h2l-2-4a5 5 0 0 0-2-2z"/><path id="path44" d="m487 190-52 28-12 6c-3-1-8 0-9-5 2-2 5 0 7-2l1-6c3-1 5-3 9-3v-3l5-1 3 2c3-4-13-8-21-11-7 4-15 7-22 12l-1 1v1h1c2-1 3-1 4 1l-2 4c-1 1 0 2 1 2 1 2 3 1 5 1l3 2-1 3 13 8 1 1 8-7 13-2c3 1 4 3 7 3l3-2-6-4 8-4c2-1 4 1 6 2 3 2 2-3 4-4l7 1 1 1c1 5 6 4 10 6l3-1-6-9c2-2 3-3 5-3l7 6 6-1-1-5c-3-2-7-3-10-6l9-3v-2c-1-4-5-6-8-7z"/></g><path id="path45" fill="#000" d="m487 189-38 20-13-10-18-6-44 24 2 2 42-23 17 5 14 10 38-20 13 7 10 5 11 11 21-10h6l11 7 22-11 3 2h5l11 3 24 13 1-2-25-13-11-3-4-1-4-1-22 10-10-6-7-1-20 10-11-10-11-5z"/><path id="path46" fill="#0d6826" d="m615 237-27 8v-1l-62-9-26-2a190 190 0 0 0-27 0 212 212 0 0 0-52 11c-9-3-19-7-29-9a113 113 0 0 0-17-3v40h250v-36z"/><path id="path47" fill="#000" d="m376 231 5 1a196 196 0 0 1 24 6c28 8 54 22 83 26h17c16-1 33-4 49-9a996 996 0 0 0 29-10c13-4 28-8 42-10l-1 2c-32 2-76 30-124 30-44 0-79-28-124-33"/><path id="path48" fill="#000" d="m423 245-4-1a213 213 0 0 1 59-12h33l69 10 8 1 1 1-3 1c-69-10-103-20-163 0"/><path id="path69" fill="#0b0b0b" d="M500 97v-6H371v228a40 40 0 0 0 23 36l106 54v-6l-104-53a35 35 0 0 1-20-31V97zm0 306v6l107-54a40 40 0 0 0 22-36V91H500v6h124v222c0 13-8 26-20 31z"/></g><g id="g69" clip-path="url(#cp)" style="display:inline"><g id="g1" transform="translate(-110)"><path id="path49" fill="#000" d="M496 395v7h8v-7c3-3 6-9 6-11v-66l-1-1-3 3h-1l-2-5-3-4-3 4-2 5h-1l-3-3-1 1v66c0 2 3 8 6 11"/><path id="path50" fill="#ffeb43" d="M498 402v-5a4 4 0 0 0 2 1 4 4 0 0 0 2-1v7h-4z"/><path id="path51" fill="#ffeb43" d="M493 324v6l1 4c0 1 1 1 1-1l2-4-2-3c-1-1-2-4-2-2"/><path id="path52" fill="#ffeb43" d="M508 324v6l-2 4c0 1-1 1-1-1l-2-4 2-3c1-1 2-4 2-2"/><path id="path53" fill="#ffeb43" d="m502 327-2-2-2 2a8 8 0 0 1-2-5l3-5 1-2 1 2 3 6z"/><path id="path54" fill="#ffeb43" d="M493 337v7l1 3h1l2-4-2-4c-1-1-2-4-2-2"/><path id="path55" fill="#ffeb43" d="M508 337v7l-2 3h-1l-2-4 2-4c1-1 2-4 2-2"/><path id="path56" fill="#ffeb43" d="m502 340-2-2-2 3a8 8 0 0 1-2-5l3-6 1-2 1 2 3 6z"/><path id="path57" fill="#ffeb43" d="M493 350v7l1 4 1-1 2-4-2-4c-1 0-2-4-2-2"/><path id="path58" fill="#ffeb43" d="M508 350v7l-2 4-1-1-2-4 2-4c1 0 2-4 2-2"/><path id="path59" fill="#ffeb43" d="m502 354-2-2-2 2a8 8 0 0 1-2-5l3-6 1-1 1 2c1 2 3 3 3 5z"/><path id="path60" fill="#ffeb43" d="M493 364v6l1 4c0 1 1 1 1-1l2-4-2-3c-1-1-2-4-2-2"/><path id="path61" fill="#ffeb43" d="M508 364v6l-2 4c0 1-1 1-1-1l-2-4 2-3c1-1 2-4 2-2"/><path id="path62" fill="#ffeb43" d="m502 367-2-2-2 2a8 8 0 0 1-2-4l3-6 1-2 1 2 3 6z"/><path id="path63" fill="#ffeb43" d="M493 377v7l1 3h1l2-4-2-4c-1-1-2-4-2-2"/><path id="path64" fill="#ffeb43" d="M508 377v7l-2 3h-1l-2-4 2-4c1-1 2-4 2-2"/><path id="path65" fill="#ffeb43" d="m502 381-2-3-2 3a8 8 0 0 1-2-5l3-6 1-2 1 2 3 6-2 4"/><path id="path66" fill="#ffeb43" d="M500 396c2 0 3-5 3-7l-3-7-3 7c0 2 1 7 3 7"/></g><g id="g443" transform="translate(-88)"><path id="path426" fill="#000" d="M496 395v7h8v-7c3-3 6-9 6-11v-66l-1-1-3 3h-1l-2-5-3-4-3 4-2 5h-1l-3-3-1 1v66c0 2 3 8 6 11"/><path id="path427" fill="#ffeb43" d="M498 402v-5a4 4 0 0 0 2 1 4 4 0 0 0 2-1v7h-4z"/><path id="path428" fill="#ffeb43" d="M493 324v6l1 4c0 1 1 1 1-1l2-4-2-3c-1-1-2-4-2-2"/><path id="path429" fill="#ffeb43" d="M508 324v6l-2 4c0 1-1 1-1-1l-2-4 2-3c1-1 2-4 2-2"/><path id="path430" fill="#ffeb43" d="m502 327-2-2-2 2a8 8 0 0 1-2-5l3-5 1-2 1 2 3 6z"/><path id="path431" fill="#ffeb43" d="M493 337v7l1 3h1l2-4-2-4c-1-1-2-4-2-2"/><path id="path432" fill="#ffeb43" d="M508 337v7l-2 3h-1l-2-4 2-4c1-1 2-4 2-2"/><path id="path433" fill="#ffeb43" d="m502 340-2-2-2 3a8 8 0 0 1-2-5l3-6 1-2 1 2 3 6z"/><path id="path434" fill="#ffeb43" d="M493 350v7l1 4 1-1 2-4-2-4c-1 0-2-4-2-2"/><path id="path435" fill="#ffeb43" d="M508 350v7l-2 4-1-1-2-4 2-4c1 0 2-4 2-2"/><path id="path436" fill="#ffeb43" d="m502 354-2-2-2 2a8 8 0 0 1-2-5l3-6 1-1 1 2c1 2 3 3 3 5z"/><path id="path437" fill="#ffeb43" d="M493 364v6l1 4c0 1 1 1 1-1l2-4-2-3c-1-1-2-4-2-2"/><path id="path438" fill="#ffeb43" d="M508 364v6l-2 4c0 1-1 1-1-1l-2-4 2-3c1-1 2-4 2-2"/><path id="path439" fill="#ffeb43" d="m502 367-2-2-2 2a8 8 0 0 1-2-4l3-6 1-2 1 2 3 6z"/><path id="path440" fill="#ffeb43" d="M493 377v7l1 3h1l2-4-2-4c-1-1-2-4-2-2"/><path id="path441" fill="#ffeb43" d="M508 377v7l-2 3h-1l-2-4 2-4c1-1 2-4 2-2"/><path id="path442" fill="#ffeb43" d="m502 381-2-3-2 3a8 8 0 0 1-2-5l3-6 1-2 1 2 3 6-2 4"/><path id="path443" fill="#ffeb43" d="M500 396c2 0 3-5 3-7l-3-7-3 7c0 2 1 7 3 7"/></g><g id="g478" transform="translate(-66 2)"><path id="path461" fill="#000" d="M496 395v7h8v-7c3-3 6-9 6-11v-66l-1-1-3 3h-1l-2-5-3-4-3 4-2 5h-1l-3-3-1 1v66c0 2 3 8 6 11"/><path id="path462" fill="#ffeb43" d="M498 402v-5a4 4 0 0 0 2 1 4 4 0 0 0 2-1v7h-4z"/><path id="path463" fill="#ffeb43" d="M493 324v6l1 4c0 1 1 1 1-1l2-4-2-3c-1-1-2-4-2-2"/><path id="path464" fill="#ffeb43" d="M508 324v6l-2 4c0 1-1 1-1-1l-2-4 2-3c1-1 2-4 2-2"/><path id="path465" fill="#ffeb43" d="m502 327-2-2-2 2a8 8 0 0 1-2-5l3-5 1-2 1 2 3 6z"/><path id="path466" fill="#ffeb43" d="M493 337v7l1 3h1l2-4-2-4c-1-1-2-4-2-2"/><path id="path467" fill="#ffeb43" d="M508 337v7l-2 3h-1l-2-4 2-4c1-1 2-4 2-2"/><path id="path468" fill="#ffeb43" d="m502 340-2-2-2 3a8 8 0 0 1-2-5l3-6 1-2 1 2 3 6z"/><path id="path469" fill="#ffeb43" d="M493 350v7l1 4 1-1 2-4-2-4c-1 0-2-4-2-2"/><path id="path470" fill="#ffeb43" d="M508 350v7l-2 4-1-1-2-4 2-4c1 0 2-4 2-2"/><path id="path471" fill="#ffeb43" d="m502 354-2-2-2 2a8 8 0 0 1-2-5l3-6 1-1 1 2c1 2 3 3 3 5z"/><path id="path472" fill="#ffeb43" d="M493 364v6l1 4c0 1 1 1 1-1l2-4-2-3c-1-1-2-4-2-2"/><path id="path473" fill="#ffeb43" d="M508 364v6l-2 4c0 1-1 1-1-1l-2-4 2-3c1-1 2-4 2-2"/><path id="path474" fill="#ffeb43" d="m502 367-2-2-2 2a8 8 0 0 1-2-4l3-6 1-2 1 2 3 6z"/><path id="path475" fill="#ffeb43" d="M493 377v7l1 3h1l2-4-2-4c-1-1-2-4-2-2"/><path id="path476" fill="#ffeb43" d="M508 377v7l-2 3h-1l-2-4 2-4c1-1 2-4 2-2"/><path id="path477" fill="#ffeb43" d="m502 381-2-3-2 3a8 8 0 0 1-2-5l3-6 1-2 1 2 3 6-2 4"/><path id="path478" fill="#ffeb43" d="M500 396c2 0 3-5 3-7l-3-7-3 7c0 2 1 7 3 7"/></g><g id="g496" transform="translate(-44)"><path id="path479" fill="#000" d="M496 395v7h8v-7c3-3 6-9 6-11v-66l-1-1-3 3h-1l-2-5-3-4-3 4-2 5h-1l-3-3-1 1v66c0 2 3 8 6 11"/><path id="path480" fill="#ffeb43" d="M498 402v-5a4 4 0 0 0 2 1 4 4 0 0 0 2-1v7h-4z"/><path id="path481" fill="#ffeb43" d="M493 324v6l1 4c0 1 1 1 1-1l2-4-2-3c-1-1-2-4-2-2"/><path id="path482" fill="#ffeb43" d="M508 324v6l-2 4c0 1-1 1-1-1l-2-4 2-3c1-1 2-4 2-2"/><path id="path483" fill="#ffeb43" d="m502 327-2-2-2 2a8 8 0 0 1-2-5l3-5 1-2 1 2 3 6z"/><path id="path484" fill="#ffeb43" d="M493 337v7l1 3h1l2-4-2-4c-1-1-2-4-2-2"/><path id="path485" fill="#ffeb43" d="M508 337v7l-2 3h-1l-2-4 2-4c1-1 2-4 2-2"/><path id="path486" fill="#ffeb43" d="m502 340-2-2-2 3a8 8 0 0 1-2-5l3-6 1-2 1 2 3 6z"/><path id="path487" fill="#ffeb43" d="M493 350v7l1 4 1-1 2-4-2-4c-1 0-2-4-2-2"/><path id="path488" fill="#ffeb43" d="M508 350v7l-2 4-1-1-2-4 2-4c1 0 2-4 2-2"/><path id="path489" fill="#ffeb43" d="m502 354-2-2-2 2a8 8 0 0 1-2-5l3-6 1-1 1 2c1 2 3 3 3 5z"/><path id="path490" fill="#ffeb43" d="M493 364v6l1 4c0 1 1 1 1-1l2-4-2-3c-1-1-2-4-2-2"/><path id="path491" fill="#ffeb43" d="M508 364v6l-2 4c0 1-1 1-1-1l-2-4 2-3c1-1 2-4 2-2"/><path id="path492" fill="#ffeb43" d="m502 367-2-2-2 2a8 8 0 0 1-2-4l3-6 1-2 1 2 3 6z"/><path id="path493" fill="#ffeb43" d="M493 377v7l1 3h1l2-4-2-4c-1-1-2-4-2-2"/><path id="path494" fill="#ffeb43" d="M508 377v7l-2 3h-1l-2-4 2-4c1-1 2-4 2-2"/><path id="path495" fill="#ffeb43" d="m502 381-2-3-2 3a8 8 0 0 1-2-5l3-6 1-2 1 2 3 6-2 4"/><path id="path496" fill="#ffeb43" d="M500 396c2 0 3-5 3-7l-3-7-3 7c0 2 1 7 3 7"/></g><g id="g514" transform="translate(-21)"><path id="path497" fill="#000" d="M496 395v7h8v-7c3-3 6-9 6-11v-66l-1-1-3 3h-1l-2-5-3-4-3 4-2 5h-1l-3-3-1 1v66c0 2 3 8 6 11"/><path id="path498" fill="#ffeb43" d="M498 402v-5a4 4 0 0 0 2 1 4 4 0 0 0 2-1v7h-4z"/><path id="path499" fill="#ffeb43" d="M493 324v6l1 4c0 1 1 1 1-1l2-4-2-3c-1-1-2-4-2-2"/><path id="path500" fill="#ffeb43" d="M508 324v6l-2 4c0 1-1 1-1-1l-2-4 2-3c1-1 2-4 2-2"/><path id="path501" fill="#ffeb43" d="m502 327-2-2-2 2a8 8 0 0 1-2-5l3-5 1-2 1 2 3 6z"/><path id="path502" fill="#ffeb43" d="M493 337v7l1 3h1l2-4-2-4c-1-1-2-4-2-2"/><path id="path503" fill="#ffeb43" d="M508 337v7l-2 3h-1l-2-4 2-4c1-1 2-4 2-2"/><path id="path504" fill="#ffeb43" d="m502 340-2-2-2 3a8 8 0 0 1-2-5l3-6 1-2 1 2 3 6z"/><path id="path505" fill="#ffeb43" d="M493 350v7l1 4 1-1 2-4-2-4c-1 0-2-4-2-2"/><path id="path506" fill="#ffeb43" d="M508 350v7l-2 4-1-1-2-4 2-4c1 0 2-4 2-2"/><path id="path507" fill="#ffeb43" d="m502 354-2-2-2 2a8 8 0 0 1-2-5l3-6 1-1 1 2c1 2 3 3 3 5z"/><path id="path508" fill="#ffeb43" d="M493 364v6l1 4c0 1 1 1 1-1l2-4-2-3c-1-1-2-4-2-2"/><path id="path509" fill="#ffeb43" d="M508 364v6l-2 4c0 1-1 1-1-1l-2-4 2-3c1-1 2-4 2-2"/><path id="path510" fill="#ffeb43" d="m502 367-2-2-2 2a8 8 0 0 1-2-4l3-6 1-2 1 2 3 6z"/><path id="path511" fill="#ffeb43" d="M493 377v7l1 3h1l2-4-2-4c-1-1-2-4-2-2"/><path id="path512" fill="#ffeb43" d="M508 377v7l-2 3h-1l-2-4 2-4c1-1 2-4 2-2"/><path id="path513" fill="#ffeb43" d="m502 381-2-3-2 3a8 8 0 0 1-2-5l3-6 1-2 1 2 3 6-2 4"/><path id="path514" fill="#ffeb43" d="M500 396c2 0 3-5 3-7l-3-7-3 7c0 2 1 7 3 7"/></g><g id="g532" transform="translate(1)"><path id="path515" fill="#000" d="M496 395v7h8v-7c3-3 6-9 6-11v-66l-1-1-3 3h-1l-2-5-3-4-3 4-2 5h-1l-3-3-1 1v66c0 2 3 8 6 11"/><path id="path516" fill="#ffeb43" d="M498 402v-5a4 4 0 0 0 2 1 4 4 0 0 0 2-1v7h-4z"/><path id="path517" fill="#ffeb43" d="M493 324v6l1 4c0 1 1 1 1-1l2-4-2-3c-1-1-2-4-2-2"/><path id="path518" fill="#ffeb43" d="M508 324v6l-2 4c0 1-1 1-1-1l-2-4 2-3c1-1 2-4 2-2"/><path id="path519" fill="#ffeb43" d="m502 327-2-2-2 2a8 8 0 0 1-2-5l3-5 1-2 1 2 3 6z"/><path id="path520" fill="#ffeb43" d="M493 337v7l1 3h1l2-4-2-4c-1-1-2-4-2-2"/><path id="path521" fill="#ffeb43" d="M508 337v7l-2 3h-1l-2-4 2-4c1-1 2-4 2-2"/><path id="path522" fill="#ffeb43" d="m502 340-2-2-2 3a8 8 0 0 1-2-5l3-6 1-2 1 2 3 6z"/><path id="path523" fill="#ffeb43" d="M493 350v7l1 4 1-1 2-4-2-4c-1 0-2-4-2-2"/><path id="path524" fill="#ffeb43" d="M508 350v7l-2 4-1-1-2-4 2-4c1 0 2-4 2-2"/><path id="path525" fill="#ffeb43" d="m502 354-2-2-2 2a8 8 0 0 1-2-5l3-6 1-1 1 2c1 2 3 3 3 5z"/><path id="path526" fill="#ffeb43" d="M493 364v6l1 4c0 1 1 1 1-1l2-4-2-3c-1-1-2-4-2-2"/><path id="path527" fill="#ffeb43" d="M508 364v6l-2 4c0 1-1 1-1-1l-2-4 2-3c1-1 2-4 2-2"/><path id="path528" fill="#ffeb43" d="m502 367-2-2-2 2a8 8 0 0 1-2-4l3-6 1-2 1 2 3 6z"/><path id="path529" fill="#ffeb43" d="M493 377v7l1 3h1l2-4-2-4c-1-1-2-4-2-2"/><path id="path530" fill="#ffeb43" d="M508 377v7l-2 3h-1l-2-4 2-4c1-1 2-4 2-2"/><path id="path531" fill="#ffeb43" d="m502 381-2-3-2 3a8 8 0 0 1-2-5l3-6 1-2 1 2 3 6-2 4"/><path id="path532" fill="#ffeb43" d="M500 396c2 0 3-5 3-7l-3-7-3 7c0 2 1 7 3 7"/></g><g id="g550" transform="translate(22)"><path id="path533" fill="#000" d="M496 395v7h8v-7c3-3 6-9 6-11v-66l-1-1-3 3h-1l-2-5-3-4-3 4-2 5h-1l-3-3-1 1v66c0 2 3 8 6 11"/><path id="path534" fill="#ffeb43" d="M498 402v-5a4 4 0 0 0 2 1 4 4 0 0 0 2-1v7h-4z"/><path id="path535" fill="#ffeb43" d="M493 324v6l1 4c0 1 1 1 1-1l2-4-2-3c-1-1-2-4-2-2"/><path id="path536" fill="#ffeb43" d="M508 324v6l-2 4c0 1-1 1-1-1l-2-4 2-3c1-1 2-4 2-2"/><path id="path537" fill="#ffeb43" d="m502 327-2-2-2 2a8 8 0 0 1-2-5l3-5 1-2 1 2 3 6z"/><path id="path538" fill="#ffeb43" d="M493 337v7l1 3h1l2-4-2-4c-1-1-2-4-2-2"/><path id="path539" fill="#ffeb43" d="M508 337v7l-2 3h-1l-2-4 2-4c1-1 2-4 2-2"/><path id="path540" fill="#ffeb43" d="m502 340-2-2-2 3a8 8 0 0 1-2-5l3-6 1-2 1 2 3 6z"/><path id="path541" fill="#ffeb43" d="M493 350v7l1 4 1-1 2-4-2-4c-1 0-2-4-2-2"/><path id="path542" fill="#ffeb43" d="M508 350v7l-2 4-1-1-2-4 2-4c1 0 2-4 2-2"/><path id="path543" fill="#ffeb43" d="m502 354-2-2-2 2a8 8 0 0 1-2-5l3-6 1-1 1 2c1 2 3 3 3 5z"/><path id="path544" fill="#ffeb43" d="M493 364v6l1 4c0 1 1 1 1-1l2-4-2-3c-1-1-2-4-2-2"/><path id="path545" fill="#ffeb43" d="M508 364v6l-2 4c0 1-1 1-1-1l-2-4 2-3c1-1 2-4 2-2"/><path id="path546" fill="#ffeb43" d="m502 367-2-2-2 2a8 8 0 0 1-2-4l3-6 1-2 1 2 3 6z"/><path id="path547" fill="#ffeb43" d="M493 377v7l1 3h1l2-4-2-4c-1-1-2-4-2-2"/><path id="path548" fill="#ffeb43" d="M508 377v7l-2 3h-1l-2-4 2-4c1-1 2-4 2-2"/><path id="path549" fill="#ffeb43" d="m502 381-2-3-2 3a8 8 0 0 1-2-5l3-6 1-2 1 2 3 6-2 4"/><path id="path550" fill="#ffeb43" d="M500 396c2 0 3-5 3-7l-3-7-3 7c0 2 1 7 3 7"/></g><g id="g568" transform="translate(43)"><path id="path551" fill="#000" d="M496 395v7h8v-7c3-3 6-9 6-11v-66l-1-1-3 3h-1l-2-5-3-4-3 4-2 5h-1l-3-3-1 1v66c0 2 3 8 6 11"/><path id="path552" fill="#ffeb43" d="M498 402v-5a4 4 0 0 0 2 1 4 4 0 0 0 2-1v7h-4z"/><path id="path553" fill="#ffeb43" d="M493 324v6l1 4c0 1 1 1 1-1l2-4-2-3c-1-1-2-4-2-2"/><path id="path554" fill="#ffeb43" d="M508 324v6l-2 4c0 1-1 1-1-1l-2-4 2-3c1-1 2-4 2-2"/><path id="path555" fill="#ffeb43" d="m502 327-2-2-2 2a8 8 0 0 1-2-5l3-5 1-2 1 2 3 6z"/><path id="path556" fill="#ffeb43" d="M493 337v7l1 3h1l2-4-2-4c-1-1-2-4-2-2"/><path id="path557" fill="#ffeb43" d="M508 337v7l-2 3h-1l-2-4 2-4c1-1 2-4 2-2"/><path id="path558" fill="#ffeb43" d="m502 340-2-2-2 3a8 8 0 0 1-2-5l3-6 1-2 1 2 3 6z"/><path id="path559" fill="#ffeb43" d="M493 350v7l1 4 1-1 2-4-2-4c-1 0-2-4-2-2"/><path id="path560" fill="#ffeb43" d="M508 350v7l-2 4-1-1-2-4 2-4c1 0 2-4 2-2"/><path id="path561" fill="#ffeb43" d="m502 354-2-2-2 2a8 8 0 0 1-2-5l3-6 1-1 1 2c1 2 3 3 3 5z"/><path id="path562" fill="#ffeb43" d="M493 364v6l1 4c0 1 1 1 1-1l2-4-2-3c-1-1-2-4-2-2"/><path id="path563" fill="#ffeb43" d="M508 364v6l-2 4c0 1-1 1-1-1l-2-4 2-3c1-1 2-4 2-2"/><path id="path564" fill="#ffeb43" d="m502 367-2-2-2 2a8 8 0 0 1-2-4l3-6 1-2 1 2 3 6z"/><path id="path565" fill="#ffeb43" d="M493 377v7l1 3h1l2-4-2-4c-1-1-2-4-2-2"/><path id="path566" fill="#ffeb43" d="M508 377v7l-2 3h-1l-2-4 2-4c1-1 2-4 2-2"/><path id="path567" fill="#ffeb43" d="m502 381-2-3-2 3a8 8 0 0 1-2-5l3-6 1-2 1 2 3 6-2 4"/><path id="path568" fill="#ffeb43" d="M500 396c2 0 3-5 3-7l-3-7-3 7c0 2 1 7 3 7"/></g><g id="g586" transform="translate(65)"><path id="path569" fill="#000" d="M496 395v7h8v-7c3-3 6-9 6-11v-66l-1-1-3 3h-1l-2-5-3-4-3 4-2 5h-1l-3-3-1 1v66c0 2 3 8 6 11"/><path id="path570" fill="#ffeb43" d="M498 402v-5a4 4 0 0 0 2 1 4 4 0 0 0 2-1v7h-4z"/><path id="path571" fill="#ffeb43" d="M493 324v6l1 4c0 1 1 1 1-1l2-4-2-3c-1-1-2-4-2-2"/><path id="path572" fill="#ffeb43" d="M508 324v6l-2 4c0 1-1 1-1-1l-2-4 2-3c1-1 2-4 2-2"/><path id="path573" fill="#ffeb43" d="m502 327-2-2-2 2a8 8 0 0 1-2-5l3-5 1-2 1 2 3 6z"/><path id="path574" fill="#ffeb43" d="M493 337v7l1 3h1l2-4-2-4c-1-1-2-4-2-2"/><path id="path575" fill="#ffeb43" d="M508 337v7l-2 3h-1l-2-4 2-4c1-1 2-4 2-2"/><path id="path576" fill="#ffeb43" d="m502 340-2-2-2 3a8 8 0 0 1-2-5l3-6 1-2 1 2 3 6z"/><path id="path577" fill="#ffeb43" d="M493 350v7l1 4 1-1 2-4-2-4c-1 0-2-4-2-2"/><path id="path578" fill="#ffeb43" d="M508 350v7l-2 4-1-1-2-4 2-4c1 0 2-4 2-2"/><path id="path579" fill="#ffeb43" d="m502 354-2-2-2 2a8 8 0 0 1-2-5l3-6 1-1 1 2c1 2 3 3 3 5z"/><path id="path580" fill="#ffeb43" d="M493 364v6l1 4c0 1 1 1 1-1l2-4-2-3c-1-1-2-4-2-2"/><path id="path581" fill="#ffeb43" d="M508 364v6l-2 4c0 1-1 1-1-1l-2-4 2-3c1-1 2-4 2-2"/><path id="path582" fill="#ffeb43" d="m502 367-2-2-2 2a8 8 0 0 1-2-4l3-6 1-2 1 2 3 6z"/><path id="path583" fill="#ffeb43" d="M493 377v7l1 3h1l2-4-2-4c-1-1-2-4-2-2"/><path id="path584" fill="#ffeb43" d="M508 377v7l-2 3h-1l-2-4 2-4c1-1 2-4 2-2"/><path id="path585" fill="#ffeb43" d="m502 381-2-3-2 3a8 8 0 0 1-2-5l3-6 1-2 1 2 3 6-2 4"/><path id="path586" fill="#ffeb43" d="M500 396c2 0 3-5 3-7l-3-7-3 7c0 2 1 7 3 7"/></g><g id="g604" transform="translate(86)"><path id="path587" fill="#000" d="M496 395v7h8v-7c3-3 6-9 6-11v-66l-1-1-3 3h-1l-2-5-3-4-3 4-2 5h-1l-3-3-1 1v66c0 2 3 8 6 11"/><path id="path588" fill="#ffeb43" d="M498 402v-5a4 4 0 0 0 2 1 4 4 0 0 0 2-1v7h-4z"/><path id="path589" fill="#ffeb43" d="M493 324v6l1 4c0 1 1 1 1-1l2-4-2-3c-1-1-2-4-2-2"/><path id="path590" fill="#ffeb43" d="M508 324v6l-2 4c0 1-1 1-1-1l-2-4 2-3c1-1 2-4 2-2"/><path id="path591" fill="#ffeb43" d="m502 327-2-2-2 2a8 8 0 0 1-2-5l3-5 1-2 1 2 3 6z"/><path id="path592" fill="#ffeb43" d="M493 337v7l1 3h1l2-4-2-4c-1-1-2-4-2-2"/><path id="path593" fill="#ffeb43" d="M508 337v7l-2 3h-1l-2-4 2-4c1-1 2-4 2-2"/><path id="path594" fill="#ffeb43" d="m502 340-2-2-2 3a8 8 0 0 1-2-5l3-6 1-2 1 2 3 6z"/><path id="path595" fill="#ffeb43" d="M493 350v7l1 4 1-1 2-4-2-4c-1 0-2-4-2-2"/><path id="path596" fill="#ffeb43" d="M508 350v7l-2 4-1-1-2-4 2-4c1 0 2-4 2-2"/><path id="path597" fill="#ffeb43" d="m502 354-2-2-2 2a8 8 0 0 1-2-5l3-6 1-1 1 2c1 2 3 3 3 5z"/><path id="path598" fill="#ffeb43" d="M493 364v6l1 4c0 1 1 1 1-1l2-4-2-3c-1-1-2-4-2-2"/><path id="path599" fill="#ffeb43" d="M508 364v6l-2 4c0 1-1 1-1-1l-2-4 2-3c1-1 2-4 2-2"/><path id="path600" fill="#ffeb43" d="m502 367-2-2-2 2a8 8 0 0 1-2-4l3-6 1-2 1 2 3 6z"/><path id="path601" fill="#ffeb43" d="M493 377v7l1 3h1l2-4-2-4c-1-1-2-4-2-2"/><path id="path602" fill="#ffeb43" d="M508 377v7l-2 3h-1l-2-4 2-4c1-1 2-4 2-2"/><path id="path603" fill="#ffeb43" d="m502 381-2-3-2 3a8 8 0 0 1-2-5l3-6 1-2 1 2 3 6-2 4"/><path id="path604" fill="#ffeb43" d="M500 396c2 0 3-5 3-7l-3-7-3 7c0 2 1 7 3 7"/></g><g id="g622" transform="translate(108)"><path id="path605" fill="#000" d="M496 395v7h8v-7c3-3 6-9 6-11v-66l-1-1-3 3h-1l-2-5-3-4-3 4-2 5h-1l-3-3-1 1v66c0 2 3 8 6 11"/><path id="path606" fill="#ffeb43" d="M498 402v-5a4 4 0 0 0 2 1 4 4 0 0 0 2-1v7h-4z"/><path id="path607" fill="#ffeb43" d="M493 324v6l1 4c0 1 1 1 1-1l2-4-2-3c-1-1-2-4-2-2"/><path id="path608" fill="#ffeb43" d="M508 324v6l-2 4c0 1-1 1-1-1l-2-4 2-3c1-1 2-4 2-2"/><path id="path609" fill="#ffeb43" d="m502 327-2-2-2 2a8 8 0 0 1-2-5l3-5 1-2 1 2 3 6z"/><path id="path610" fill="#ffeb43" d="M493 337v7l1 3h1l2-4-2-4c-1-1-2-4-2-2"/><path id="path611" fill="#ffeb43" d="M508 337v7l-2 3h-1l-2-4 2-4c1-1 2-4 2-2"/><path id="path612" fill="#ffeb43" d="m502 340-2-2-2 3a8 8 0 0 1-2-5l3-6 1-2 1 2 3 6z"/><path id="path613" fill="#ffeb43" d="M493 350v7l1 4 1-1 2-4-2-4c-1 0-2-4-2-2"/><path id="path614" fill="#ffeb43" d="M508 350v7l-2 4-1-1-2-4 2-4c1 0 2-4 2-2"/><path id="path615" fill="#ffeb43" d="m502 354-2-2-2 2a8 8 0 0 1-2-5l3-6 1-1 1 2c1 2 3 3 3 5z"/><path id="path616" fill="#ffeb43" d="M493 364v6l1 4c0 1 1 1 1-1l2-4-2-3c-1-1-2-4-2-2"/><path id="path617" fill="#ffeb43" d="M508 364v6l-2 4c0 1-1 1-1-1l-2-4 2-3c1-1 2-4 2-2"/><path id="path618" fill="#ffeb43" d="m502 367-2-2-2 2a8 8 0 0 1-2-4l3-6 1-2 1 2 3 6z"/><path id="path619" fill="#ffeb43" d="M493 377v7l1 3h1l2-4-2-4c-1-1-2-4-2-2"/><path id="path620" fill="#ffeb43" d="M508 377v7l-2 3h-1l-2-4 2-4c1-1 2-4 2-2"/><path id="path621" fill="#ffeb43" d="m502 381-2-3-2 3a8 8 0 0 1-2-5l3-6 1-2 1 2 3 6-2 4"/><path id="path622" fill="#ffeb43" d="M500 396c2 0 3-5 3-7l-3-7-3 7c0 2 1 7 3 7"/></g></g></svg>