<svg width="264.6" height="158.7" viewBox="0 0 264.6 158.7" id="svg16" xmlns="http://www.w3.org/2000/svg"><g id="g26"><path d="M0 158.7h264.6V0H0Z" fill="#fff" id="path2" style="stroke-width:.3"/><path d="M264.6 70.3H0v-.6h264.6Z" fill="#0047bb" id="path8" style="display:inline;stroke-width:.403176"/></g><g id="g18" transform="matrix(1.34392 0 0 -1.34392 -509.5 664.9)" style="stroke-width:.3"><path d="M379.1 426.3c12.3 0 12.4-5.1 24.6-5.1s12.3 5 24.6 5 12.4-5 24.7-5 12.3 5 24.6 5 12.3-5 24.6-5 12.3 5 24.6 5 12.3-5 24.6-5 12.3 5 24.6 5v9.9c-12.3 0-12.3-5.1-24.6-5.1s-12.3 5-24.6 5-12.3-5-24.6-5-12.3 5-24.6 5-12.3-5-24.6-5-12.3 5-24.7 5-12.3-5-24.6-5-12.3 5-24.6 5zm0-19.5c12.3 0 12.4-5.1 24.6-5.1s12.3 5 24.6 5 12.4-5 24.7-5 12.3 5 24.6 5 12.3-5 24.6-5 12.3 5 24.6 5 12.3-5 24.6-5 12.3 5 24.6 5v9.9c-12.3 0-12.3-5.1-24.6-5.1s-12.3 5-24.6 5-12.3-5-24.6-5-12.3 5-24.6 5-12.3-5-24.6-5-12.3 5-24.7 5-12.3-5-24.6-5-12.3 5-24.6 5zm0-19.2c12.3 0 12.4-5 24.6-5s12.3 5 24.6 5 12.4-5 24.7-5 12.3 5 24.6 5 12.3-5 24.6-5 12.3 5 24.6 5 12.3-5 24.6-5 12.3 5 24.6 5v9.9c-12.3 0-12.3-5.1-24.6-5.1s-12.3 5-24.6 5-12.3-5-24.6-5-12.3 5-24.6 5-12.3-5-24.6-5-12.3 5-24.7 5-12.3-5-24.6-5-12.3 5-24.6 5z" fill="#0047bb" id="path3" style="display:inline"/></g><g id="g19" transform="matrix(1.34392 0 0 -1.34392 -509.5 664.9)" style="stroke-width:.3"><path d="M472.4 442.7v20.8H379V474h93.3v20.7h10.4V474H576v-10.5h-93.2v-20.8z" fill="#fff" id="path4" style="display:inline"/><path d="M576 474h-93.2v20.7h-10.4V474H379v-10.5h93.3v-20.8h10.4v20.8H576Z" fill="#d22630" id="path5" style="display:inline"/><path d="M444.8 477.5h-27.3l-38.4 10v7.2zm24-17.5h-24.1L379 442.7h25.4l64.4 16.7zm17.5 18v-.5H511l65.1 17.2h-27zm24-18H537l39.1-10.3v-7z" fill="#d22630" id="path6" style="display:inline"/><path d="M409.8 477.5h-30.7v8zm59 2.6v14.6h-55.1zm17.5 14.6v-14.6l55.1 14.6zm58.2-17.2H576v8zm0-17.5H576v-8.2zm-2.3-17.3-55.9 14.7v-14.7ZM469 457.4v-14.7h-55.2zm-58.7 2.6-31-8.2v8.2z" fill="#0047bb" id="path7" style="display:inline"/></g><g id="g16" style="display:inline;stroke-width:.3" transform="matrix(1.34392 0 0 -1.34392 -509.5 664.9)"><path d="M559.2 404.8c-3.2 0-9.2-1.3-14-9.5-3.5-5.9-5.3-6.8-7.8-8l-.5-.2-.2-.1a19 19 0 0 1-7.3-5.2l-.2.2c19 29.5 22.7 35.5 22.7 35.5l-28-29.1-1.5-1.6-.6.3.7 1.8c1.3 2.6 2.5 3.8 3.6 5 1 1 2 2 3 4.1 1.6 3.2 1.9 5.1 2.2 7.1l.6 3.3c1.2 5.2 3 7 9 11.4l1.2.9s-.6.2-1.6.1h-.4c-2-.2-9.5-1.8-12.9-12.8-2-6.5-3.6-7.9-5.7-9.6l-.5-.4c-3.4-2.9-4.8-4.1-6.2-7.1l3.7 10.4c9.6 26 11 30.7 11 30.7L509 398.5l-2.5-4.2-.3.1a23 23 0 0 0 3.3 9.8c.8 1.3 1.6 2.5 2.1 4.8 1 3.5.8 5.4.7 7.4v3.4c.1 5.2 1.3 7.4 6 12.6l.5.6 1 1.1-1.6-.2c-1-.2-9.3-2.6-10.4-15.5-.7-6.8-2-8.5-3.7-10.7l-.4-.4c-3.3-4.3-4-5.7-4.7-10.7h-.1q0 1.3.3 2.6c4.2 34.9 4.7 41.2 4.7 41.2l-12.2-37.7-1.3-4.2h-.2v.2a18 18 0 0 0 .7 9.6 20 20 0 0 1 0 13l-.9 3.1c-1 5.2-.3 7.7 3 14.2l1 1.8-1.6-.7h-.1l-.1-.1q-1.2-.7-3-2.8c-2-2.5-4.3-7.2-3.2-14.8 1-6.9 0-8.9-1.1-11.4q0-.2-.3-.5c-2-4.6-2.7-6.3-2.4-10.7h-.1l-1.4 13c-2.5 25.7-3.1 30-3.1 30s-.7-4.3-3.2-30l-1.3-13h-.1c.2 4.4-.4 6-2.5 10.7l-.3.5c-1.1 2.5-2 4.5-1 11.4 1 7.6-1.2 12.3-3.3 14.8a12 12 0 0 1-3 2.8h-.1l-1.7.8 1-1.8c3.4-6.5 4-9 3-14.2q-.3-1.7-.8-3c-.6-2-1.2-3.7-1-8.2 0-2.3.5-3.6 1-4.9a17 17 0 0 0 1-5.8q0-2.4-.3-3.8v-.2h-.2l-1.4 4.2-12.2 37.7s.5-6.3 4.7-41.2l.3-2.6c-.8 5-1.5 6.4-4.8 10.7l-.4.4c-1.7 2.2-3 3.9-3.6 10.7-1.2 12.9-9.6 15.3-10.5 15.5q-1.4.3-1.5.2l1-1 .5-.7c4.6-5.2 5.8-7.4 6-12.6v-3.4a19 19 0 0 1 2.7-12.2 23 23 0 0 0 3.3-9.8h-.3l-2.5 4.1c-1.3 2.4-20.5 33.5-20.5 33.5s1.5-4.7 11-30.7l3.8-10.4h-.1c-1.4 3-2.8 4.2-6.2 7.1l-.5.4c-2 1.7-3.7 3-5.7 9.6-3.4 11-10.8 12.6-12.9 12.8h-.3l-1.7-.1 1.2-.9c6-4.4 7.8-6.2 9-11.4l.7-3.3c.3-2 .5-3.9 2.1-7 1-2.2 2-3.2 3-4.3a18 18 0 0 0 4.3-6.7l-.6-.3-1.5 1.6-28 29.1s3.7-6 22.7-35.5l-.1-.2a19 19 0 0 1-7.4 5.2h-.2l-.5.3c-2.5 1.2-4.3 2.1-7.7 8-4.9 8.2-11 9.4-14 9.5q-1.7 0-4-.6s1.3-.3 2.4-.8c6.6-2.8 8.6-4.1 11-8.8l1.3-3c.8-1.9 1.5-3.7 3.7-6.4 1.5-1.8 2.7-2.6 4-3.4a18 18 0 0 0 5.3-5.2h115.7l.8 1.3c2 2.2 3.3 3 4.6 4 1.3.7 2.4 1.5 4 3.3 2.2 2.7 2.9 4.5 3.6 6.4l1.3 3c2.4 4.7 4.5 6 11 8.8 1.1.5 2.4.8 2.4.8a16 16 0 0 1-4 .6m-141.3-28.2-33.4 22.1 21.5-22zm-23.6 0h5.9l-.4.4-1.2 1.2c-5 5.5-10 6.6-13 6.6a11 11 0 0 1-5.9-1.5l1.7-.3c6.9-1.3 9.4-2.1 13-6.4m143 0 33.4 22.1-21.4-22zm23.6 0h-5.8l.3.4 1.2 1.2c5 5.5 10 6.6 13 6.6a11 11 0 0 0 6-1.5l-1.8-.3c-6.8-1.3-9.4-2.1-12.9-6.4" id="path9" style="display:inline"/><path d="M538.3 376.6h10.2l19.4 19.7q-14.8-9.6-29.6-19.7m22 .1.1.2c3.6 4.4 6.2 5.3 13.3 6.7 0 0-7.9 3.7-16.7-5.8l-1.1-1.1z" fill="#ffd200" id="path10" style="display:inline"/><path d="M405.9 394.8c1.8-3.5 1.7-5.3 5-9.3 2.9-3.6 4.7-2.8 8.4-7.3q.7-.7 1-1.6h114.5q.4.9 1 1.6c3.8 4.5 5.5 3.7 8.5 7.3 3.2 4 3.1 5.8 5 9.3 2.5 5 4.8 6.5 11.6 9.3 0 0-8.7 2-15.3-9-3.7-6.5-5.7-7.2-8.4-8.5-4-2-5.6-2.8-7.6-5.3l-1 .8 20.7 32q-13.2-13.6-26.6-27.9l-1.5 1 .8 2c2.6 5.2 4.6 4.9 6.6 9 2.3 4.7 1.8 6.4 2.7 10.3 1.4 5.6 3.3 7.5 9.3 11.8 0 0-9 0-12.9-12.4-2.2-7.2-4-8.3-6.3-10.3-3.5-3-4.8-4.1-6.2-7.2l-1 .5 13 36.4-20.3-33.5-1.3.4q0 1.6.9 4.6c1.5 5.6 3.5 5.8 4.6 10.3 1.3 5 .4 6.6.6 10.7.2 5.8 1.7 8 6.7 13.6 0 0-8.9-1.9-10.1-15-.7-7.5-2.2-9-4.1-11.5-3.5-4.3-4-5.7-4.8-10.9l-1.1.3 4.7 40-12.2-38.4-1 .1a14 14 0 0 0-.5 4.5c.2 5.9 1.9 6 2 10.7.2 6.5-1 7.1-1.8 11.1-1.2 5.7-.2 8.3 3.3 15 0 0-8.1-4.1-6.3-17.2 1-7.6 0-9.4-1.4-12.3-2.2-4.8-2.7-6.3-2.3-11h-1.3l-4 40.7-4-40.7h-1.1c.3 4.7-.2 6.2-2.4 11-1.3 3-2.5 4.7-1.4 12.3 1.9 13-6.3 17.2-6.3 17.2 3.6-6.7 4.5-9.3 3.3-15-.8-4-2-4.6-1.8-11 .2-4.8 1.9-5 2-10.8q0-3-.4-4.5l-1.1-.1-12.1 38c1.7-13.8 3-25.8 4.6-39.7l-1.1-.3c-.8 5.3-1.3 6.6-4.7 11-2 2.5-3.5 4-4.2 11.5-1.2 13.1-10 15-10 15 5-5.5 6.4-7.8 6.6-13.6.2-4-.7-5.6.6-10.7 1.2-4.5 3.1-4.7 4.7-10.3q.7-3 .8-4.7l-1.2-.5c-7.1 12-13.3 22-20.5 33.7 4.8-12.8 8.6-23.7 13.3-36.6l-1-.5c-1.5 3.2-2.8 4.4-6.4 7.4-2.3 2-4.1 3.1-6.3 10.3-3.8 12.4-12.9 12.3-12.9 12.4 6-4.3 8-6.2 9.3-11.8 1-3.9.4-5.6 2.7-10.2 2-4.2 4-4 6.6-9.1l.8-2.3-1.3-.9-26.8 28.2 20.9-32.3-1-.8c-2 2.6-3.7 3.4-7.7 5.5-2.8 1.3-4.8 2-8.5 8.4-6.6 11.2-15.3 9-15.3 9 6.8-2.7 9-4.1 11.7-9.2M394.7 377l.2-.3h4.4l-1.2 1.2c-8.8 9.5-16.7 5.7-16.7 5.8 7.2-1.4 9.7-2.3 13.3-6.7m22.1-.3a1381 1381 0 0 1-29.6 19.7l19.4-19.7zm143.6.3-.2-.3h-4.4l1.2 1.2c8.8 9.5 16.7 5.7 16.7 5.8-7.1-1.4-9.7-2.3-13.3-6.7m-22.1-.3 29.6 19.7-19.4-19.7z" fill="#ffcd00" id="path11" style="display:inline"/><path d="M535.1 377a84 84 0 0 1-57.4 22.1c-21.6 0-42.5-8-57.2-22l-.6-.4h1.2a83 83 0 0 0 56.6 21.7c21.4 0 42-7.9 56.7-21.7h1z" id="path12" style="display:inline"/></g><g id="g17" style="display:inline;stroke-width:.3" transform="matrix(1.34392 0 0 -1.34392 -509.5 664.9)"><path d="m491.7 473.5-.7-.7-3.3-4-2.7 6.8-4-6-3.4 7.2-3.5-7.2-4 6-2.6-6.8-3.4 3.9-.6.9a98 98 0 0 1 1.4-10.1c.1-.6 5.7-1.1 12.7-1.1 7.1 0 12.8.5 12.6 1.1l.1.4v.2l.2 1 .5 2.9z" fill="#ffcd00" id="path13" style="display:inline"/><path d="M490.8 467.3v-.1h-.4a56 56 0 0 1-26 0c-.1.3.3.4.4.5a56 56 0 0 0 25.5 0q.4 0 .5-.4m-3.5-1.3 2-1.5a55 55 0 0 1-23.4 0l2 1.5.2.2h-.3l-2.4.7a56 56 0 0 0 24.3 0l-2.3-.6-.4-.1zm2.9-2.4-.1-.1h-.4a56 56 0 0 1-24.3 0l-.5.1q.1.3.5.4a56 56 0 0 0 24.3 0q.4 0 .5-.4m0 .6-2.3 1.8 2.7.7zm-12.5-1.6q-8.8 0-11.5.6a55 55 0 0 0 23 0q-2.7-.5-11.5-.6m-13 4.1 2.6-.7-2.2-1.7zm-1 6 3.9-4.1-3.1-.7q-.5 2.5-.7 4.9m6.4 2.4q1.6-2.9 3.9-5.8-3.2-.2-6.5-.8 1.5 3.3 2.6 6.6m7.5 1.2c-.1 0 2.6-5.8 3.3-7a51 51 0 0 1-6.7 0q2 3.6 3.4 7m10-7.8q-3.3.6-6.4.8 2.2 3 4 5.9zm4 4.3-.8-5-.4.1-2.7.6q2.1 2.1 3.8 4.3m.5 1.4a50 50 0 0 0-4.2-4.9q-1.5 3.4-2.6 6.8-1.7-3-4.1-6a72 72 0 0 0-3.5 7.2q-1.5-3.6-3.5-7.3-2.4 3-4.1 6l-2.6-6.7q-2.4 2.5-4.3 4.9a94 94 0 0 1 1.5-10.2v-.6q0-.3.5-.4c2.1-.9 11.3-1 12.5-1a64 64 0 0 1 12.7 1q.3.2.3.4v.6l.6 3.4v.4c.4 2 .8 6.4.8 6.4" id="path14"/><path d="M476 466.5h3v1h-3zm3.5-.4h-3.9v1.8h4zm-7.8 1h-.3q-1.5-.1-1.5-.6 0-.2 1.2-.3h.3q.8 0 1.2.3.3 0 .3.3t-1.2.3m-.6-1.4q-1.6 0-1.6.8c0 .6.9 1 1.8 1q1.9.2 2-.7.1-.3-.5-.7zm12.4 1.4q-1.2 0-1.2-.3l.3-.3 1.5-.3q1 0 1.2.3 0 .4-1.5.6zm.6-1.4-1.7.4q-.7.4-.6.7c0 .5 1 .9 2 .8s2-.5 1.9-1.1q-.1-.8-1.6-.8" id="path15" style="display:inline"/></g></svg>