<svg width="2400" height="1200" xml:space="preserve" id="svg20" viewBox="0 0 2400 1200" xmlns="http://www.w3.org/2000/svg"><g id="g21"><path fill="#C8102E" d="M0 0h2400v1200H0z" id="path1"/></g><g id="g23" style="display:inline"><path fill="#007934" stroke="#000" stroke-width="8" d="m1560 500 .1 99.9c.1 132.7 132.4 254.2 239.9 300.1 107.4-45.9 239.8-167.4 239.9-300.1V500h-479.8z" id="path8"/><path fill="#f3cc00" d="m1992.8 673.2 18.7-13-18.7-13.1 3-5.2h-39.1l19.5-33.9h-6l-2-22.7-20.8 9.6-3-5.3-19.5 33.9-19.6-34-3 5.3-20.6-9.6-2 22.7h-6l19.6 33.8H1876l2.7 4.6-16.3 11.4 16.3 11.4-2.6 4.6h34.2l.3.2a444 444 0 0 1-104.9 107.6V624.2l29.7 17V636l19.8-1.7-8.4-18 4.6-2.7-14.8-8.5 33.9-19.6-5.3-3 9.7-20.6-22.8-2v-6l-33.8 19.5v-39l-5.3 3-13.1-18.6-13.1 18.6-5.2-3v39l-34-19.5v6l-22.7 2 9.7 20.6-5.3 3 34 19.5-14.9 8.6 4.6 2.6-8.4 18 19.9 1.8v5.3l29.6-17.1v157a443 443 0 0 1-104.8-107.7l.2-.1h34.2l-2.6-4.6 16.3-11.5-16.3-11.3 2.7-4.6h-17.2l19.7-33.9h-6.1l-2-22.6-20.6 9.6-3-5.2-19.6 33.9-19.5-33.9-3 5.3-20.7-9.6-2 22.7h-6.1l19.5 33.8h-39.1l3 5.3-18.7 13 18.7 13-3 5.3h39l-8.5 14.8h5.3l1.7 19.8 18-8.5 2.7 4.6 17.2-29.6.3-.2a448 448 0 0 0 114.3 115.7v66.5h11.6V795a448 448 0 0 0 114.5-115.6h.2l17.1 29.7 2.6-4.6 18.1 8.5 1.7-19.9h5.3l-8.6-14.7h39.2z" style="stroke:none" id="path9"/><path fill="none" stroke="#000" stroke-width="2" stroke-linecap="round" stroke-linejoin="round" style="fill:none;fill-opacity:1;stroke:#007934;stroke-opacity:1" d="M1800 533.2v82.6m46 13.2-109.4-60.7m17 60.8 109.6-61" id="path10"/><path fill="none" stroke="#000" stroke-width="2" stroke-linecap="round" stroke-linejoin="round" d="m1788 545 12 20.9 12-20.8m-71 39h24l-12-20m106 19.8h-24l12-20" style="stroke:#007934;stroke-opacity:1" id="path11"/><path fill="none" stroke="#000" stroke-width="2" stroke-linecap="round" stroke-linejoin="round" style="fill:none;fill-opacity:1;stroke:#007934;stroke-opacity:1" d="m1960.9 597.8-41.3 71.5m33.3 34.7-64.4-107.3m-15.8 61 125.5 2.1" id="path12"/><path fill="none" stroke="#000" stroke-width="2" stroke-linecap="round" stroke-linejoin="round" d="M1944.5 602v24.1l21-12m-81.2-1.7 21 12-.5-23.3m81.9 70.2-20.8-12.1 20.3-11.3" style="stroke:#007934;stroke-opacity:1" id="path13"/><path fill="none" stroke="#000" stroke-width="2" stroke-linecap="round" stroke-linejoin="round" style="fill:none;fill-opacity:1;stroke:#007934;stroke-opacity:1" d="m1639.1 597.5 41.3 71.5m-33.3 34.6 64.4-107.2m15.8 61-125.5 2.1" id="path14"/><path fill="none" stroke="#000" stroke-width="2" stroke-linecap="round" stroke-linejoin="round" d="M1655.5 601.8v24l-21-12m81.2-1.7-21 12 .5-23.3m-81.9 70.2 20.8-12.1-20.3-11.4" style="stroke:#007934;stroke-opacity:1" id="path15"/><path fill="#fff" d="M1560 300h480v200.2h-480z" id="path16"/><path fill="#C8102E" style="fill:#c8102e;fill-opacity:1" d="M1822.5 300h-45v200.2h45z" id="path17"/><path fill="#C8102E" style="fill:#c8102e;fill-opacity:1" d="M2040 377.6h-480v45h480z" id="path18"/><path fill="none" stroke="#000" stroke-width="8" d="M1560 300h480v200.1h-480z" id="path19"/></g><g id="g22" style="display:inline"><path fill="#012169" d="M0 0h1200v600H0Z" id="path2"/><path fill="#fff" d="M134.2 600H0v-67L1065.8 0H1200v67z" id="path3"/><path fill="#fff" d="m0 67 1065.8 533H1200v-67L134.2 0H0Z" id="path4"/><path fill="#fff" d="M0 200v200h1200V200Z" id="path5"/><path fill="#fff" d="M500 600h200V0H500Z" id="path6"/><path fill="#c8102e" d="M0 240v120h1200V240Zm1200 315.3V600L800 400h89.4zM710.6 200l400-200h89.4L800 200ZM400 200h-89.4L0 44.7V0ZM89.4 600H0l400-200h89.4z" id="path7"/><path fill="#c8102e" d="M540 0v600h120V0Z" id="path20"/></g></svg>