<svg xmlns="http://www.w3.org/2000/svg" xmlns:xlink="http://www.w3.org/1999/xlink" xml:space="preserve" id="svg63" width="2800" height="1400" style="fill-rule:evenodd" viewBox="0 0 2800 1400"><g id="g63"><path id="path1" d="M0 0h2800v1400H0z" style="fill:#fff"/><path id="path2" d="M2000 0h800v1400h-800z" style="fill:#0738ac;fill-opacity:1"/><path id="path3" d="M0 0h800v1400H0z" style="fill:#187b01"/></g><g id="g64"><path id="path4" d="M1180 418h442v180h-442z" style="fill:#fff;fill-rule:evenodd"/><path id="path5" d="M1179 598v141c0 27 6 52 16 76l1-4-2-6 75-183 131 335 131-335 75 183-2 6 2 3a200 200 0 0 0 14-60l1-18V598zm17 219c17 40 46 74 80 102a323 323 0 0 1-80-102m408 2a323 323 0 0 1-78 98 313 313 0 0 0 49-50 236 236 0 0 0 29-48m-142 142a305 305 0 0 1-61 24 56 56 0 0 0 17-4c14-6 30-12 44-20m-123 0a338 338 0 0 0 37 18c11 3 17 6 24 6a304 304 0 0 1-61-24m60 20 1 4 1-3-1 1z" style="fill:#0738ac;fill-rule:evenodd"/><path id="path6" d="M1429 878c-4-21-9-39-4-60 8-35 6-38-1-72-5-26 9-51 6-77-2-27-11-42 0-69l-13 1c-13 24-1 42 0 68 3 27-11 51-6 77 6 28 8 43 1 72-7 24 4 59 8 84z" style="fill:#fff;fill-rule:evenodd"/><path id="path7" d="m1423 818 4 1-1 1v4l-1 2v20l1 2v5l1 2v4l1 1v4l1 2v2l1 2v4l1 1v2l-4 1v-2l-1-2v-3l-1-2v-2l-1-2v-4l-1-2v-3l-1-2v-6l-1-2v-21l1-2v-4l1-2zm-1-72 4-1 1 3 1 3v3l1 3v2l1 3v4l1 2v4l1 2v19l-1 2v4l-1 3v2l-1 3v2l-1 3-1 3v3l-4-1 1-3v-3l1-3v-2l1-3v-2l1-2v-5l1-2v-17l-1-2v-4l-1-2v-4l-1-3v-2l-1-3-1-3v-3zm6-77h4v19l-1 3v4l-1 3v2l-1 3v2l-1 2v3l-1 2v5l-1 2v5l-1 2v14l1 3v2l-4 1v-3l-1-2v-15l1-2v-5l1-3v-4l1-3v-2l1-3v-2l1-2v-3l1-2v-5l1-2zm2-67v-4l2 3-1 2-1 3-1 2v2l-1 2v3l-1 2v19l1 2v4l1 2v4l1 2v2l1 2v5l1 2v8h-4v-5l-1-2v-7l-1-2v-2l-1-2v-4l-1-2v-4l-1-2v-21l1-2v-3l1-2v-2l1-3 1-2 1-3zm0-4h3l-1 3zm-13 0h13v4l-13 1-2-3 2-1zm-2 1h2l-2 1zm4 70h-4v-7l-1-2v-5l-1-2v-2l-1-2v-2l-1-2v-4l-1-2v-5l-1-2v-14l1-3v-2l1-2v-2l1-3 1-2 1-2 1-3 4 2-1 3-1 2-1 2-1 2-1 2v4l-1 2v14l1 2v4l1 2v4l1 2v2l1 2v3l1 2v4l1 3zm-6 76-4 1-1-2v-20l1-3v-4l1-3v-2l1-2v-3l1-2v-3l1-2v-2l1-3v-4l1-3v-9l1-3v-4l-1-3h4l1 2v8l-1 2v8l-1 2v5l-1 2v3l-1 2v3l-1 2v2l-1 3v4l-1 3v2l-1 2v19zm1 74-4-1v-3l1-3v-2l1-3v-2l1-2v-2l1-3v-26l-1-2v-5l-1-2v-2l-1-2v-3l-1-2v-3l-1-2v-3l4-1v3l1 2v3l1 2v3l1 2v2l1 3v4l1 2v9l1 2v8l-1 2v7l-1 2v3l-1 2v2l-1 3v2l-1 3zm4 82 4 1h-4l-1-3v-2l-1-2v-5l-1-3v-2l-1-3-1-3v-3l-1-2v-3l-1-3v-3l-1-2v-6l-1-3v-2l-1-3v-24l1-3v-2l1-2 4 1-1 2v2l-1 2v23l1 3v5l1 3v3l1 3v2l1 3v3l1 3v2l1 3v3l1 2v3l1 2v3l1 2v3l1 2zm4 1-3 7-1-7zm9-23-9 23-4-1 9-24h4zm0-2v2z" style="fill:#fff;fill-rule:nonzero"/><path id="path8" d="m1269 647-70 172-3-8-1 4a326 326 0 0 0 205 170l-32-85zm131 338a326 326 0 0 0 206-170l-2-4-3 8-70-172-98 252z" style="fill:#d51810;fill-rule:evenodd"/><path id="path9" d="m1400 957 131-336 75 184-5 14-70-172-131 336-131-336-70 172-5-14 75-183z" style="fill:#fff;fill-rule:evenodd"/><path id="path10" d="M1621 479v56h-193v63h-56v-63h-193v-56h193v-63h56v63z" style="fill:#d51810;fill-opacity:1;fill-rule:evenodd"/><path id="path11" d="m1428 413 3 3zh-56v7h56l-4-4h7v-3zm-56 188-3-3zh56v-7h-56l3 4h-6v3z" style="fill:#231f20;fill-rule:nonzero"/><path id="path12" d="M1624 598V416l-3-3h-442l-3 3v323c0 76 43 139 101 185 23 19 49 35 75 48 14 6 33 15 48 16 15-1 34-10 48-16 26-13 52-29 75-48 57-46 101-109 101-185zm-441-178h434v319c0 75-42 135-98 180a403 403 0 0 1-74 47c-13 6-31 14-45 15-14-1-32-9-45-15a402 402 0 0 1-74-47c-55-45-98-106-98-180zm-4-7h-3v3zm438 185 4-4v7zm7-182v-3h-3z" style="fill:#000;fill-rule:nonzero;stroke:none"/><path id="path13" d="M1383 913c13-33 3-64 9-95 8-35 7-37-1-72-5-25 9-51 6-77-2-28-12-41 0-68h-13c-5 14-7 15-5 32l5 36c3 26-11 52-6 77 7 37 9 36 0 73-4 22 1 46-4 70z" style="fill:#fff;fill-rule:evenodd"/><path id="path14" d="m1390 818 4 1-1 3v2l-1 3v59l-1 3v3l-1 3v3l-1 3-1 3-1 3-1 3-1 3-4-1 1-3 1-3 1-3 1-3 1-3v-3l1-3v-3l1-3v-58l1-3v-3zm-1-72h4l1 3v3l1 3 1 2v3l1 2v3l1 2v4l1 2v20l-1 2v4l-1 3v2l-1 3v3l-1 3-1 3v3l-4-1v-3l1-3 1-3v-3l1-3v-2l1-2v-2l1-2v-22l-1-2v-1l-1-2v-5l-1-2-1-3v-2l-1-3v-3zm6-77h4l1 3v10l-1 2v7l-1 3v2l-1 3v2l-1 3v2l-1 2v3l-1 2v5l-1 2v5l-1 2v14l1 2v3h-4v-2l-1-3v-14l1-3v-4l1-3v-5l1-2v-2l1-3v-2l1-3v-2l1-2v-3l1-2v-7l1-3v-9zm2-66v-4l2 2-1 3-1 2-1 3v2l-1 2v2l-1 2v19l1 2v4l1 2v4l1 2v2l1 2v5l1 2v8h-4v-7l-1-2v-5l-1-2v-2l-1-2v-4l-1-2v-4l-1-2v-6l-1-2v-6l1-2v-4l1-3v-2l1-2 1-3v-2l1-3 1-2zm0-4h4l-2 3zm-13 0h13v4h-13l-2-3zm-2 1 1-1h1zm-1 32-4 1v-2l-1-1v-13l1-1v-3l1-1v-1l1-1v-2l1-1v-2l1-1v-1l1-1v-2l4 2v1l-1 1v1l-1 1v1l-1 1v2l-1 1v2l-1 1v5h-1v9l1 2v3zm5 37-4 1v-7l-1-1v-6l-1-1v-5l-1-1v-4l-1-2v-4l-1-1v-5l4-1v5l1 1v5l1 1v3l1 1v6l1 1v6l1 1zm-6 77-4 1v-3l-1-2v-18l1-2v-5l1-2v-3l1-2v-2l1-3v-2l1-2v-3l1-2v-5l1-2v-7l1-3v-4l-1-3v-2l4-1v3l1 2v5l-1 3v7l-1 3v4l-1 3v2l-1 3v2l-1 2v3l-1 2v5l-1 2v5l-1 2v14l1 2zm-4 1v-1zm4 72-4-1 1-3 1-3v-3l1-3 1-3v-2l1-2v-5l1-2v-16l-1-2v-4l-1-2v-2l-1-2v-3l-1-2v-3l-1-3v-3l-1-3 4-1 1 3v3l1 3v3l1 2v3l1 2v2l1 2v4l1 2v18l-1 2v4l-1 3v2l-1 3-1 3v3l-1 3zm-4 69-4 1v-3l1-2v-2l1-3v-13l1-2v-39l1-3v-4l4 1v4l-1 2v41l-1 3v9l-1 2v5l-1 2v2zm-4 1v-1zm9 24-9-24 4-1 9 24v1zm4 0-2 5-2-5z" style="fill:#fff;fill-rule:nonzero"/><path id="path15" d="m1179 601-3-3zh442v-7h-442l4 4h-7v3z" style="fill:#231f20;fill-rule:nonzero"/><path id="path16" d="M1268 726a17 17 0 0 1 4 34 17 17 0 0 1-7-33zm264 0a17 17 0 0 0-3 34 17 17 0 0 0 6-33zm-264 63a17 17 0 0 1 4 34 17 17 0 0 1-7-33zm264 0a17 17 0 0 0-3 34 17 17 0 0 0 6-33z" style="fill:#fedc00;fill-rule:evenodd"/><path id="path17" d="M1176 598h7l-4 3h442v-7h-442zl3-4h-3z" style="fill:#000;fill-rule:nonzero;stroke:none"/><path id="path18" d="m1294 124-2 2-2 3-1 1h-2l-3-1h-10v1l1 1 2 3 1 3 1 4v5l-1 1-1 2c-4 7-4 13-8 19-3 4-7 5-11 8l-1 1-1 1v3l1 3 2 2 1 3v1l1 2 1 1 3 1 2 2 1 1v2l3 1h3l5-1 4-1 2 1 2 1 2 1v2l1 4 2 3 3 3c9 6 1 1 7 13l6 13 2 5 11 11 2 1 2 1 2 2 3 1 2 2 1 1 1 3 1 3 1 3c2 14 3 22 2 36-2 17-4 12-15 19l-7 9-2 1h-2l-3 4-3 2-3 3c-10 7-23 12-27 24l-1 3-2 2-1 2-1 1-2 2-2 1-1 1-2 1-1 4-1 1c-8 8-10 15-3 24 5 5 22 5 28 2l21-7c3-3 9-5 13-6 8-1 21-2 28-5 14-6 29-4 44-4h11l5-1 5-1 4 2c6 3 16 4 23 5 26 0 12 0 33 5l2 1h8l2 1c7 3 11 4 19 4l1 2 3 3 4 2h4l4 1 2 1h6l3 1h5l3-1 2-1 1-1c8-10 5-28-6-35-11-9-13-9-19-23-9-15-11-2-10-25 2-15-5-14-4-30v-11l-4-5-2-6c-3-11 2-22 3-34 4-10 2-13 1-23 0-8 3-5 3-16 2-4 3-10 6-12 2-4 4-8 4-12h1v-9l1-4v-9c-3-8 2-4-5-13-4-6-6-4-12-10l-1-1h-3l-3-3h-5l-3-1h-2l-1 1h-7l-2 1-16 7-2 1-3 2-2 2-2 1-1 2-1 2-2 1-3 1-1 2-1 1v1l-1 3-3 2 1 1-1 3-1 1-2 2-1 2v2c-5 12 2 5-6 16l-10 1-4-1-4-1h-3l-4-1-3-1-4-1-4-1c-10-4-11-5-19-10l-2-2-1-1-1-1-2-1-2-2-1 1-1 1-1-2v-2h-2v-4h-1l-1-2-1-1-1-1-1-1-1-1-1-2-3-1v-1l-1 1-2-3v-1h-1l-2-1-1-2-1 1v-1l-2-1v-2h-1l-1-1-1-2-1 1h-1l-1-1-1 2-1 1-2-3-1 1v-1l-1-1-1-1-1 1-2-2-1 2-2-2-1 1h-1l-3-2-2-1c-6-4-13-6-17-11m134 139 3 1 2 3c0 24 44 18 19 56-6 1-10-2-16-2-9-1-19 0-28 1-16 3-28-1-44 4v-3l3-2 1-4 4-17 2-3 1-3 3-2 1-2 1-2v-2l1-5 1-4 3-3h7l3-1 12-3 13-5 3-1 3-1h1zm50 37 2 1 2 1v1l5 14c2 6 5 8 4 16h-5l-2-1-3-2-3-1h-1l-6-1c1-10 0-20 7-28" style="fill:#000;fill-rule:evenodd;stroke:none"/><path id="path19" d="m1300 140 2 1 1 1 2 2 2 3 1 3 1 3-1 1h-1l-5-2-3-3h-1l1-1-1-1-1-1-1-1-3-2-2-1v-1c0-6 1-9 3-14 2 5 3 5 4 11z" style="fill:#fff;fill-rule:evenodd"/><path id="path20" d="m1283 141-2-3-1-4h1l1 1 2 2 2 2z" style="fill:#fff;fill-rule:evenodd"/><path id="path21" d="M1303 135h2l1 1v1h1l3 1 3 2c6 3 3 8 5 11l2-1h6v1l1 1h3l1 1 2 1 2 1v-1l1 1 1 2 2-1v1l1 1h3v1l2 1 1-1 1 1 1 1 2 1 2 2 2 1 1 1 1 2 2 3 1 3 2 2v1l1 1v1h-2l-3 1h-2v1h2l3 1 2 1h-3l-3 1 1 1h2l2 1-3 1-2 1-1 1h1l1 1h3l2 1h-5v2h2v1h4-1l-1 1-4 1h-3v2h2l3 1h2c-2 1-8 0-10 3h11l-2 3-3 1h-4l-1 1 1 1 1 1h2l-5 1-3 2h-1l1 1 2 1h1l-2 1v2l1 1h-1l-1 2h1l-1 1v1l-2 3h-2v1h3l2-1 1-2 2-2 1-2 1-1 3-4 2-2v-2c3-4 7-1 11-4l1 1h2l2 1 3 1 2 1 1 1-2 2-1 2v1l1 1v1l-1 3 1 3v1l1 1 1 2 2 1h-1l-1 2-1 2-2 2 1 2v1l-1 1-3 2-1 2h1l-1 1-3 2-1 3v1h1v1l-1 1-3 3-1 2 2 1h1l-1 3v2l-1 3-1 2v1h2v7l-1 3 1 2-1 2-1 2v1h3l3-1 3-1v-4l1-1v-2l1-3 2-3 2-5 2-3-1-1 2-2v-1l-1-1 1-1 1-1-1-2 1-2 1-1v-1l1-3 1-2v-3l1-3 2-1h2v-4l4-2 1-2h3l1-2 1-1v1l1 1 2-1 2-2-1 5v3h2l1-2 2-1 1-1h1l3-4h4l2-1h1l-1 3v2l1 1 2-1 1-2v8h5l1-2v2l1 1 2-1v1l1 1 1-1 2-2 1-3 1-2 2-4h1l-1-2h-2l-1 1v-2l1-1 2-4 1-3h1l4-2v1h1l2-1 1-1 1 1h1l2-3v2l1 2 3-2h1v1l3-1 2-1 1 1v3l-2 2-1 2v3l3-1h3l1 1v3l-3 3-1 2v2l-1 1v5l1 2 2 1h2v1h4v4l1 3v1l10-9-1-2 1-4-1-1h-2 1l1-2v-5l1-1v-1l1-3v-2l1-2v-3l2-2 1-2v-14l-1-4-2-3-2-2v-1h-3l-2 1h-1l1-3 1-1 1-1-4 2-4 2h-1l3-3 2-3h-1l-1 1-2 1-3 2-2 2-2 1h-1l3-7-1 1-1 1-3 3-2 2-2 2-2 1 1-3v-2h-1l-1 1-1 1-2 3-2 1 1-3 1-3v-1c-4 3-5 7-9 9l2-3 1-3v-1c-6 5-3 5-10 12l-1 1-2 1-1 1-1 2-1 2-1 2-2 1-1 1-1-1-1-1-1 1h-1v-4l1-4h1l-2-1 2-4v-6l1-2 1-3 2-2 1-2v-1l1-4 2-3v-1l-3 1 1-1 2-2 1-2 2-1 1-2-1-1-2 1 2-3 3-3h1-2c2-4 4-2 7-6v-1l2-2 2-2 2-2 3-2 3-1 14-5 2-1h4l2-1 4 2h2v-1h1l2 1 3 2h3v1l2 1 1 1 3 2v1l2-1c3 3 3 5 5 9h-1c2 5 5 14 4 18l-1-1-1-2v4l1 3-1 1h-2l1 1v5l-1 3v3l-1 1v1h-1v2l-1 3-2 2v2l-1 2-1-2-3 11-8 10 2-1h3a65 65 0 0 1-1 34l-2 5-1 5-1 5-1 2-2 2v1l-1 3h1l1-1 1 1 1 1 1 3 2 3 2 2 2 3 1 2c0 8-5 18 0 25l1-1v-1c3 8 7 13 2 21-2 11 3 9-10 13l-1-3 1-3v-1l-3 3-1 3v1h-2l-2-2 1-3 2-2 1-1-5 2-2 3v1l-1 1-1-2 1-2 1-2 2-1 2-2 2-1c8-2 8-6 4-13-11-33-3-17-28-41l-3-4-3-3-3-4-3-4-3-4-2-1-4-2c-10-2-16-4-25 1-5 3-15 8-21 7l-4 1h-3l-1-1-1-1v-2l3-5v-4c-4 11-6 9-12 17l-1 2v4l-1 4v3l-2 3-2 2-1 1-2 2v2l-1 2-2 11c-1 9-4 6-6 11l-2 9-2 2-1 1-2 2-1 1-9 9-2-1-1-1-1-2-1 3-2 2-1-1-1-3-1-2v-1l-1 3-1 3h-1l-2-1 1-4 1-2 1-1h1l1-1h3l2-1c11-6 7-15 11-26 8-40 4-28-4-64h-1l-1 1 2 18-2-1-2-2h-1l-2-3-1-2v-1l-1 1v1c-4-5-1-7-3-13l1-1v-4h1l1-1v-3l1-2h1v-1l1-1 1-1v-4l-2-4v-3l-2 3v4l-1-1-1-1-1 2-1 1v1-2l-2-1-1 4-1 3v1l-1-1-1 3-1 2h-1v8l-2-1-1-3v-3l1-3v-5l1-3 1-2v-1l1-4 1-2-1-1-4 1-2 1h-1v2l-1 3-1 3h-1l-1 1-1-1-1-1-2 2-1 2a19 19 0 0 1 0-18v-1l1-2 1-3 1-2h1c3-6 10-20 8-26v1l-1 3v2l-1 2-1 2v1h-1l-1 2v2l-2 3h-1l-1 2-1 1-1 1-2 2-1 1v1l-2 2-2 1h-1l-1 2-1 1h-1l-1 1-1-4 1-4v-3l1-2 2-2 1-1 1-2-1-2v-1l1 1 1 1-1-3-2-2h-4l1 1-2 2v3h-1l-1 1-2 1v1l-3 1-1 1h-1l-5-1h-6l-4 1h-2l-1-1-1-1 2-2h2l2-1h4l4-1 4-1h2l1-1c-8-3-15 3-23 3l-4-2-1-2-1-2v-2l2-2v-3l-3-2 2-2 2-1h1l1-1 3-2 2-3 2-3 1-3v-2l1-1 2-2 2-3 3-1 2-1h2l1 1 3 2 1 3 2 1 1 1h1l3 3 2 3 2 3v2l1 1h6l2 1v-2l-1-1-1-1h-4l4-2 2-1h1l2-2v-2l1-1 1-1-2-2v-5l-1-1-1-1-2-3-1-3-2-3c-3-4-5-5-7-10v1z" style="fill:#fff;fill-rule:evenodd"/><path id="path22" d="M1278 162v-1l1 1h1l3 2 2 1-2 1-2 1h-1v-3l-1-2zm16 12 2 1-1 1h-1l-2-2h-3l-1-1-2-1h-2v-1h1l1 1h4l2 1z" style="fill:#000;fill-rule:evenodd;stroke:none"/><path id="path23" d="M1309 175h-2v-1h-4l2 2h1l3 1 3-1-1-1zm-5 1-1 1 1 2h3l4 1-2-1-3-2h-1z" style="fill:#000;fill-rule:nonzero;stroke:none"/><path id="path24" d="m1311 186-2-2h-2v2l1 1-2-1h-1l2 3-4-2-3-1v-1h2v-2h1l-1-1v-2c4 1 5 1 8 5z" style="fill:#000;fill-rule:evenodd;stroke:none"/><path id="path25" d="m1337 200 1-1 1-2z" style="fill:#000;fill-rule:nonzero;stroke:none"/><path id="path26" d="m1335 206 3-3 1-2v-1 2l-1 3-2 1z" style="fill:#000;fill-rule:evenodd;stroke:none"/><path id="path27" d="m1328 217-1-2 3-1 2-2v-1l1-1v-1h2l-6 7z" style="fill:#000;fill-rule:evenodd;stroke:none"/><path id="path28" d="m1424 234-2-2-1 3h1z" style="fill:#000;fill-rule:nonzero;stroke:none"/><path id="path29" d="m1443 235-3 9h-1l-1-1 1-5 2-4 1-1h1v1z" style="fill:#000;fill-rule:evenodd;stroke:none"/><path id="path30" d="m1442 246 2 1v-7l-1-1-2 5z" style="fill:#000;fill-rule:nonzero;stroke:none"/><path id="path31" d="M1490 243v2l-1 3v2h-1v2h1v8c1 8-1 5-5 11l1-5-1-3-1-1-1-4-1-2h-1v-2l-1-2 1-1 2-2 2-3 2-2 3-1z" style="fill:#000;fill-rule:evenodd;stroke:none"/><path id="path32" d="M1437 265v2l1 3 1 3 1-1 1-1v-2 2l1 3 2 1v-5l1 1v2l1 1 1 2v1-5l1-1v1l1 2 2 3 1 2v-2l1 1v1l1 3 1 2 1-2v-1h1v1l1 4h2l1 2h2v2l1 2 1 2 1-1 2 4v2l-1 3-1 3v3l-1 2v12l-1 3 1 1 2-2v-2l1-3v-6l1-3 1-3 1-3v-2l2-2 1-3h3c-7 7-6 19-8 27-1 7-2 1-7 9l-2 2-1 2-2 1h-1l-4-1v-2l-1-2-2 3-2 1-1-1-1-2v-2l-1 2-2 2c-1-9 5-7 11-8l1-1 1-3 2-2 1-3 1-3 1-3 1-3 1-3c2-10-4-18-12-22-11-9-14-8-15-24h1zm-95 2c7 21 7 29 2 50-2 5 0 11-5 15l-2 1h-6l-2 2-2 1v1-2h-2l-1 2h-2l1-4 2-3 1-1h1c5-1 11-4 13-9 4-17-1-39-2-57h1v1l2 2z" style="fill:#fff;fill-rule:evenodd"/><path id="path33" d="m1373 289-3 2h-3l2-3 2-1v-1l2 1z" style="fill:#000;fill-rule:evenodd;stroke:none"/><path id="path34" d="M1463 323c-1 3-4 9-7 9v-1l1-1 1-1 2-2 1-2 1-2v-2l1-1z" style="fill:#000;fill-rule:evenodd;stroke:none"/><path id="path35" d="M1444 327h-2l-1 2-1 3v6c5 3 6 0 13 2 12 0 7-7 15-8a71 71 0 0 1 17 5l-4 2-2 2-1 1v5l4 1 1 1h7l3 1c6 0 9-5 14 1 5 5 5 5 8 11l1 2 1 2 1 1 2 2-1 1v1h-2l-5-1-4-1-3-2h-6l-3-1-3-1-2-2-3-1a60 60 0 0 0-14-1h-3l-2-1-4-1-5-1h-4c-9 0-7-1-16-4l-16-2c-10 1-7-1-17-1l-17 2c-14-3-19 2-32 3-9 1-4-2-15 2-7 3-6 3-13 2a46 46 0 0 0-13 3c-9 3-3 3-12 3l-2 1-3 1-2 1-1 1h-2c-5-1-11 1-15 4 3-13 11-15 19-21l14-10c6-5 7-1 14-2v4l2 2h2l2 1 4 1 3-1 2 1h2c6-2 5-7 12-13 4-4 13-7 18-7 12-1 24 0 36-3 14-2 18-2 32 0z" style="fill:#cdcdcd;fill-rule:evenodd"/><path id="path36" d="M1427 364c4 5 13 6 18 5l-1-2c-8 2-15-4-20-9 23-4 30 15 34 33-8 2-13-7-18-9-8-4-19-3-25-7v1l1 1 2 1h2l3 2h3l3 1c7 2 14 5 18 11-13-2-25 0-36-11-5-5-4-5-7-11-3-7-6-7-8-13 8-2 20-3 26 3z" style="fill:#d51810;fill-rule:evenodd"/><path id="path37" d="M1395 361c3 3 4 8 6 12l2 2v1l-1 2-1 2-1 1c-14 1-25-13-38-14v2c8 1 18 9 25 12l4 1 4 1 4 1 2-1 2-1 1-1v-3l6 8c-16 7-32-4-46-11l-4-2-3 1-1 1v3l1 2 2 2 1-1h1l-2-3-2-2v-1h4l3 2 3 2 1 1c4 3 6 2 11 6h-5l-3-3-3-2h-1l-1 1h1l1 1 2 1 1 2-1 1-2 1-3-1h-2c-5-1-4-1-9-4l-2-2-2-1-1-2-2-2c-2-3-3-7-3-11l-3 1-1-1h-1l1-2 1-1 3-1h3c6-2 8-2 14-1l4 1 4 1 3 1 4 2 3 1 4 2 3 1h2l1-1-1-2-2-2-3-2-3-1-3-2-2-1-1 1v-1l-1 1 1 1 1 1 4 1 2 2-5-2-5-2-1-1h-1a29 29 0 0 1 23-2zm76 5c5 5 9 14 16 15h2l2-2-1-2-1-1-9-5c1 5 5 3 8 7h-4l-1-1-2-2-2-2-2-2-1-2-1-2 1-1 1-1h4c6 1 13 3 15 9 3 5 4 9 4 15l-1 2-1 2h-1l-4-1-2-2h-1v1l2 2v1h1l3 2h1l3-1h1v1l-1 2-1 1h-1c-3 1-7-2-8-5l-1 1v1l1 2 2 1 1 2h4v1l3-1h3l2 2c-11 2-17-3-20-12l-1-2-1-2-1-3-1-2-1-2-1-2-2-2-2-1h-2l-1 2v1l2 4 1 2v-3l-1-3 1-1 2 1 1 2 1 2v1a62 62 0 0 0 8 16h-2l-4-1-4-1h-3l-3-1-2-1-3-5v-4l1-1c3 1 5 3 6 6 3 2 1 3 6 6l-1-2-2-1v-1l-1-1-6-11h-4l-1 4v4l3 5h-1l-3-2-1-2-1-2-1-3-1-1v-5l1-4 2-2 1-1h-3l-3 1-3-5-2-4v-1l1-1h10l5 2z" style="fill:#fedc00;fill-rule:evenodd"/><path id="path38" d="m1338 367 2 1h2a19 19 0 0 0 5 12l1 2 1 1 2 2 2 1 1 1h1c-7 6-17 6-27 8 3-5 6-6 11-7l2 1h1v-2c-4-3-6-2-10 0l-3 2-3 2-3 3-2 1h-3l-13-17c-8-11 10-4 14-3h2l3 1h3l2-1 2-1 1-2v-3l-2-2h-1l-2 1 1 2h1v1l-1 1h-8l-3-1-4-1h-1c7-3 15-7 23-5z" style="fill:#d51810;fill-rule:evenodd"/><path id="path39" d="M1435 374c7 1 8-4 14 2l-7-1-5 1h-4l-4-1-4-3-3-2-3-3-2-1c5 1 12 7 16 7z" style="fill:#000;fill-rule:evenodd;stroke:none"/><path id="path40" d="m1525 389 11 5v-1c-12-6-17-7-25-20 7 1 14 3 20 7l3 1 2 1 1 2v2c2 3 5 10 5 13 0 14 0 13-12 13h-7l-5-1-4-2-3-3-3-3-2-2-7-29 2-1 2 1h1l2 1 2 2 3 2 11 11z" style="fill:#d51810;fill-rule:evenodd"/><path id="path41" d="m1305 385-1 1-1 1h-1l-3-1h-3l-3-1-3-1h-1v1c9 4 7 5 18 5v1c-3 4-8 1-12 0l-1 1 1 1 2 1h1l3 1 3 1h3l3-2 2 1 1 1v1l-3 3-2 1h-8c-7-3-9-6-17-8l1 2 2 1h1l1 1c3 3 8 4 12 7v1c-11 1-15-2-24-5l-3 1h-2v1l-1 3v3l1 2h-4l-3-2-1-1-2-4v-6c2-5 10-5 13-7-6-4-6-2-3-7 3-3 7-3 10-5 7-8 18-4 23 5z" style="fill:#fedc00;fill-rule:evenodd"/><path id="path42" d="M1337 379v1l1 1c-15 0-15 5-30-4v-2c8 5 17 2 26 3zm190 23h2l1-1-1-2-2-2c10 3 4 11-4 5-5-3-4-6-8-9-4-5-5-2-8-6 9 2 10 9 18 14z" style="fill:#000;fill-rule:evenodd;stroke:none"/><path id="path43" d="m1291 407-2 2-2 1-2 1c-4-1-11-1-13-4v-2l1-1v-1l2 1h2l7 2 3 1z" style="fill:#fedc00;fill-rule:evenodd"/><path id="path44" d="M1400 445c78 3 84 112 6 123-82 5-94-110-12-123z" style="fill:#0738ac;fill-opacity:1;fill-rule:evenodd"/><path id="path45" d="m1374 491-14 13v13l-13 13h53l-13-13v-13zm52 0 13 13v13l14 13h-53l13-13v-13z" style="fill:#fff;fill-rule:evenodd"/><path id="path46" d="M1387 543v13l-9 9 22 4 22-4-9-9v-13l-13-13zm-27 12-10-11-6-11 3-3 13 13zm88-8-9 9v-13l13-13 4 3zm-74-57h52l-13-13v-13l-13-13-13 13v13zm0 0h-34l7-16 13-15v18zm52 0 13-13v-18l13 14 7 17z" style="fill:#fff;fill-rule:evenodd"/><path id="path63" d="M1400 445c78 3 84 112 6 123-82 5-94-110-12-123z" style="fill:none;stroke:#000;stroke-width:7;stroke-miterlimit:4;stroke-opacity:1;stroke-dasharray:none"/></g><g id="g1" style="fill-rule:evenodd"><g id="b" style="display:inline;fill-rule:evenodd" transform="translate(756 15)scale(2.5313)"><path id="path47" d="m158 402-2-17c-1-5-8-18-8-18s12 10 15 17a46 46 0 0 1 3 20l-2 9z" style="fill:#187b01;fill-opacity:1;fill-rule:evenodd;stroke:#1e501f;stroke-width:1pt;stroke-linecap:butt;stroke-linejoin:miter;stroke-opacity:0.941176"/><path id="path48" d="m160 406-2-22a64 64 0 0 0-9-15" style="fill:none;stroke:#1e501f;stroke-width:1pt;stroke-linecap:butt;stroke-linejoin:miter;stroke-opacity:0.941176"/><path id="path49" d="M177 422c-2 0-13-4-18-4-6 0-13 8-13 8l12-2c5 0 10 4 15 4l16 1z" style="fill:#187b01;fill-opacity:1;fill-rule:evenodd;stroke:#1e501f;stroke-width:1pt;stroke-linecap:butt;stroke-linejoin:miter;stroke-opacity:0.941176"/><path id="path50" d="M147 426s8-5 13-5l21 3" style="fill:none;stroke:#1e501f;stroke-width:1pt;stroke-linecap:butt;stroke-linejoin:miter;stroke-opacity:0.941176"/><path id="path51" d="M232 446s-18-17-20-23-3-27-3-27l12 16 10 20c3 3 10 16 13 17l7 5z" style="fill:#187b01;fill-opacity:1;fill-rule:evenodd;stroke:#1e501f;stroke-width:1pt;stroke-linecap:butt;stroke-linejoin:miter;stroke-opacity:0.941176"/><path id="path52" d="m216 440-41 2-33-11s24 22 33 23c9 2 32-1 36-2a95 95 0 0 1 24-2l18 4z" style="fill:#187b01;fill-opacity:1;fill-rule:evenodd;stroke:#1e501f;stroke-width:1pt;stroke-linecap:butt;stroke-linejoin:miter;stroke-opacity:0.941176"/><path id="path53" d="M241 449c-2 0-20-17-23-23s-8-29-8-29" style="fill:none;stroke:#1e501f;stroke-width:1pt;stroke-linecap:butt;stroke-linejoin:miter;stroke-opacity:0.941176"/><path id="path54" d="M346 489s-21-13-29-16l-101-34a66 66 0 0 1-22-28l-5-23s0 18 4 27 12 18 13 20c-1 0-29-14-37-22s-24-32-24-37l-1-39-2 34s-10-18-10-27c-1-9-2-18 1-22l10-11s-10 6-12 9l-3 5s-3-22-2-25 6-3 6-3l-4-1-4 2s-2-10 0-12c2-3 6-2 6-2l-5-2s-2-5 1-8l4-6-5 2 4-11s-7 10-7 13v23l-9 1 9 1 1 17 2 13-10-9s11 15 12 21l1 7-15-12s17 17 19 21l4 12-9-6-8-3s10 7 13 11c4 4 12 14 16 21l13 19-12-6c-6-3-18-5-18-5l27 13c7 5 28 21 50 29 23 8 89 29 97 33l41 25z" style="fill:#62310e;fill-opacity:1;fill-rule:evenodd;stroke:none"/><path id="path55" d="M144 432s24 19 31 20 26-5 34-5l32 2" style="fill:none;stroke:#1e501f;stroke-width:1pt;stroke-linecap:butt;stroke-linejoin:miter;stroke-opacity:0.941176"/><g id="a"><path id="path56" d="M184 378c-1 1-7-6-10-6-2 0-6 6-6 10s3 9 6 9c2 0 7-5 9-4 1 1-8 15 3 15 11-1 10-4 10-6-1-2-5-6-4-7 1-2 6 3 10 3s5-2 5-6c0-5-1-10-4-9-2 0-8 7-10 3-2-3 4-8 4-12s-1-8-6-7c-6 0-7 3-8 6 0 2 2 9 1 10z" style="fill:#d5105a;fill-opacity:1;fill-rule:evenodd;stroke:#000000;stroke-width:1pt;stroke-linecap:butt;stroke-linejoin:miter;stroke-opacity:1"/><path id="path57" d="M174 359c-1 1 10 24 12 26 3 3 17 16 18 15 2-1-13-13-17-19s-12-24-13-22" style="fill:#62310e;fill-opacity:1;fill-rule:evenodd;stroke:none"/><path id="path58" d="M172 404c1 1 6-11 13-17 2-3 22-20 22-22-1-1-18 16-24 20s-13 18-11 19" style="fill:#62310e;fill-opacity:1;fill-rule:evenodd;stroke:none"/><path id="path59" d="M194 382a6 6 0 1 1-11 0 6 6 0 1 1 11 0" style="fill:#fedd00;fill-opacity:1;fill-rule:evenodd;stroke:none" transform="translate(-1)"/></g><use xlink:href="#a" id="use59" width="744.1" height="1052.4" transform="rotate(168 157 386)"/><use xlink:href="#a" id="use60" width="744.1" height="1052.4" transform="rotate(158 173 358)"/><path id="path60" d="M125 361s-10-10-16-10c-5 0-10 0-10 2s4 1 4 3c0 3-6 1-6 3 0 3 8 7 11 6s14-5 17-4zm-10-24c0 1-7-6-10-6s-5 2-5 4c0 1 3 4 6 4zm3-16-5-1c-2 0-4 3-7 3-2 0-4-2-4-4s3-4 7-4 9 4 9 6zm19-5s4-7 8-7 6 3 6 4c0 2-3 4-6 4s-4-2-8-1zm-9-19s4 0 4 2c0 3 1 5 2 5s3-1 2-4c0-2-1-6-3-6s-4 1-5 3zm-10-2c-2 0-6 2-6 5-1 2 1 3 1 3l5-5zm4-18-6 3c-2 2-1 4 1 5 2 0 0-2 2-4 3-1 3-4 3-4zm2 8s3-2 4 0l4 4c2 0 3-5 1-7l-7-1c-2 0-2 4-2 4zm4-25s1-5 4-7c2-1 5 1 5 2 0 2-2 4-4 4h-5zm0 11 4-5c2 0 3 2 3 3 0 2 0 3-3 3z" style="fill:#d5105a;fill-opacity:1;fill-rule:evenodd;stroke:#000000;stroke-width:1pt;stroke-linecap:butt;stroke-linejoin:miter;stroke-opacity:1"/><path id="path61" d="M124 267s0-5 2-7c1-1 5 1 4 2-1 2-4 2-6 5z" style="fill:#d5105a;fill-opacity:1;fill-rule:evenodd;stroke:#000000;stroke-width:1pt;stroke-linecap:butt;stroke-linejoin:miter;stroke-opacity:1"/><path id="path62" d="M322 480a87 87 0 0 1-19 1c-5 0-17-4-25-4-7 1-20 6-20 6s8 1 11 3l16 4c7 0 19-4 24-5h20z" style="fill:#187b01;fill-opacity:1;fill-rule:evenodd;stroke:#1e501f;stroke-width:1pt;stroke-linecap:butt;stroke-linejoin:miter;stroke-opacity:0.941176"/></g><use xlink:href="#b" id="use62" width="744.1" height="1052.4" style="fill-rule:evenodd" transform="matrix(-1 0 0 1 2800 0)"/></g><!-- app4joy -->
</svg>