<svg xmlns="http://www.w3.org/2000/svg" id="svg2" width="1000" height="700" version="1.1" viewBox="0 0 1000 700"><g id="g3"><path id="path1" fill="#900" d="M0 0h1000v700H0z"/></g><g id="g2"><path id="path2" fill="#fff" d="m150 90 425 170c50.3 22.2 69.8 32 103.2 49.7 34 18 71.6 36.4 100 61.2 23 20.2 46.5 48.5 46.8 79.1.3 33-24.9 64.2-46.8 69L260 610c24-7.5 43.2-14.2 57.8-26.6a74.3 74.3 0 1 1 62.5 5.5c10.5-2.2 19-6.4 34.4-16L575 470.6c19-12.6 35.2-38.6 32.2-61.6-5.2-40.2-47.8-66.3-82.2-89.7z"/></g><!-- app4joy --></svg>