<svg xmlns="http://www.w3.org/2000/svg" id="svg3" width="900" height="600" version="1.1" viewBox="-450 -294 900 600"><g id="g3"><path id="path1" fill="#006da5" d="M-450-294h900v600h-900z"/></g><g id="g4"><path id="path2" fill="#fece60" d="m0-200 40 60-40 40-40-40 40-60L28.9-50l144.3-50L57.7 0l115.5 100L29 50 0 200-28.9 50l-144.3 50L-57.7 0l-115.5-100L-29-50z"/><path id="path3" fill="#fff" d="M0-183.8 28.4-141l-22 22L22-38l110-38L26.4 15.1 0 152.4-26.4 15.2-132-76.2-22-38l15.6-81-22-22zM34.6 20 51 6l81 70.2L30.7 41zm-69.2 0L-51 6l-81 70.2L-30.7 41z"/></g><!-- app4joy --></svg>