<svg xmlns="http://www.w3.org/2000/svg" id="svg3" width="300" height="200" version="1.1" viewBox="0 0 300 200"><g id="g7"><path id="rect5" d="M0 0h300v200H0z" style="fill:#ffa600;fill-opacity:1;stroke-width:12.7009"/><path id="path1" fill="#0e6d46" d="M0 40h300v120H0Z" style="display:inline"/></g><g id="g6"><path id="path2" fill="#fff" d="M120 50s-11 7.5-11.8 36.4c-27.7-8.3-38.2-.1-38.2-.1s3.7 12.8 31 22.4c-16.5 23.9-12 36.4-12 36.4s13.3.5 30.9-22.6c17.6 23 30.9 22.6 30.9 22.6s4.6-12.6-11.9-36.4c27.3-9.6 31-22.4 31-22.4s-10.5-8.2-38.2.1C131 57.4 120 50 120 50Z" style="display:inline"/><path id="path3" d="M120 86.5a16 16 0 0 0-16 16 16.1 16.1 0 0 0 16 16.1 16.1 16.1 0 0 0 16-16 16 16 0 0 0-16-16zm0 5.4a10.7 10.7 0 0 1 10.7 10.6c0 6-4.8 10.8-10.7 10.8-5.9 0-10.7-4.9-10.7-10.8A10.7 10.7 0 0 1 120 92z" style="display:inline;fill:#ffa600;fill-opacity:1"/></g><!-- app4joy --></svg>