<svg xmlns="http://www.w3.org/2000/svg" xmlns:xlink="http://www.w3.org/1999/xlink" id="svg3" width="915" height="640" version="1.1" viewBox="-823.5 -576 1647 1152"><g id="g4"><path id="path1" fill="#0068b2" d="M-823.5-576h1647V576h-1647z"/></g><g id="g3" transform="translate(9) scale(38.5)"><path id="a" fill="#fff" d="M-3-5.3a3 3 0 1 1 6 0 8.4 8.4 0 0 1-3.5 5 8.7 8.7 0 0 0-1-1.8A6.4 6.4 0 0 0 1-5.8a1 1 0 1 0-2 0 6.4 6.4 0 0 0 .9 2 6.2 6.2 0 0 1-1.4 1.5 8.4 8.4 0 0 1-1.4-3z"/><g id="b"><use xlink:href="#a" id="use1" transform="rotate(72)"/><use xlink:href="#a" id="use2" transform="rotate(144)"/></g><use xlink:href="#b" id="use3" transform="rotate(144)"/></g><!-- app4joy --></svg>