<svg xmlns="http://www.w3.org/2000/svg" xmlns:xlink="http://www.w3.org/1999/xlink" id="svg2" width="900" height="600" version="1.1" viewBox="0 0 1500 1000"><g id="g3"><path id="path1" fill="#d84b24" d="M0 0h1500v1000H0z"/></g><g id="g2" fill="#fff" transform="translate(600 440)"><path id="path2" d="M47.3-386.4a60 60 0 0 0 30.3 96.6A300 300 0 1 1-96.8-284 225 225 0 0 0-21-199a200 200 0 1 0 72.7 5.8A200 200 0 0 1-96.5-386.4z"/><path id="a" d="M293.3 140A100 100 0 0 0 402 202.3a450 450 0 0 1-64.4 95.2 200 200 0 0 1-107-68.5 325 325 0 0 0 62.7-89z"/><use xlink:href="#a" id="use2" transform="scale(-1 1)"/></g><!-- app4joy --></svg>