<svg xmlns="http://www.w3.org/2000/svg" id="svg2" width="900" height="600" version="1.1" viewBox="-52.5 -35 105 70"><g id="g2"><path id="path1" fill="#00006b" d="M-52.5-35h105v70h-105z"/></g><g id="g3"><path id="path2" fill="#fff" d="M3-.6a18.6 18.6 0 0 0-3 7.3A18.6 18.6 0 0 0-3-.6V-16h6zm16.2-8a18.6 18.6 0 0 0-6.4.8 15 15 0 0 0-25.6 0 18.6 18.6 0 0 0-6.4-.8 21 21 0 0 1 38.4 0zM.3 10A18 18 0 0 1 19.4-8 21 21 0 0 1 .3 21v-6A15 15 0 0 0 14.9-1.5a12 12 0 0 0-8.3 14.3 14.4 14.4 0 0 1-6.3 1.6zm-.6 0A18 18 0 0 0-19.4-8 21 21 0 0 0-.3 21v-6A15 15 0 0 1-14.9-1.5a12 12 0 0 1 8.3 14.3 14.4 14.4 0 0 0 6.3 1.6z"/></g><!-- app4joy --></svg>