<svg xmlns="http://www.w3.org/2000/svg" xmlns:xlink="http://www.w3.org/1999/xlink" id="svg6" width="900" height="600" fill="#fff" version="1.1" viewBox="-150 -100 300 200"><g id="g8"><path id="path1" fill="#4c0f7b" d="M-150-100h300v200h-300z"/></g><clipPath id="c"><circle id="circle3" r="80"/></clipPath><g id="g7"><g id="a"><circle id="circle1" cy="-36" r="25.5"/><circle id="circle2" cy="-69" r="25.5" fill="#4c0f7b"/></g><use xlink:href="#a" id="use2" transform="rotate(120)"/><use xlink:href="#a" id="use3" transform="rotate(240)"/><g id="g6" transform="scale(.1125)"><path id="path3" d="M-50.1-60.9a9.4 9.4 0 0 1 3-3.8 80 80 0 0 1 94.1 0 9.4 9.4 0 0 1 0 15.3 80 80 0 0 1-94 0 9.4 9.4 0 0 1-3.1-3.9h11a72.4 72.4 0 0 0 81.6-2.3 1.8 1.8 0 0 0 0-3A72.4 72.4 0 0 0-39-60.8zm27.2 0h45.8v7.6h-45.8z"/><g id="g5" clip-path="url(#c)"><circle id="b" cx="-47" cy="-64.7" r="45.6" fill="none" stroke="#fff" stroke-width="7.6"/><use xlink:href="#b" id="use4" transform="scale(-1 1)"/><path id="path4" d="M30.4-18.1a30.6 30.6 0 1 1-60.8 0zm-52.8 7.6a23 23 0 0 0 44.8 0zm-15.5 0a38.2 38.2 0 0 0 75.8 0h7.7a45.8 45.8 0 0 1-91.2 0z"/><path id="path5" stroke="#fff" stroke-width="7.6" d="M-81 19.1h57m48 0h57M-75 38.2H75m-140 19H65M0 25v60"/></g></g></g><!-- app4joy --></svg>