<svg xmlns="http://www.w3.org/2000/svg" id="svg5" width="182.3" height="128.2" version="1.1" viewBox="0 0 182.3 128.2"><g id="g5"><path id="path1" fill="#01a0c7" stroke-width="9.8" d="M0 128.1h182.3V0H0Z" style="stroke-linecap:round;stroke-linejoin:round"/></g><g id="g4" fill="#fff" stroke-width=".1" style="stroke-linecap:round;stroke-linejoin:round" transform="translate(-13.5 -28.3)"><path id="path2" d="M19 54.8c36 3.1 60.1-5.2 92.8-12 31-6.5 47.2-7.8 78 12.8-30.3-5.8-45.2-1.9-87.3 6.5C86.1 65.3 73.6 69.3 62 70a67.3 67.3 0 0 1-43-15.2z"/><path id="path3" d="M19.7 126.5c35.2 6.8 60.1-2.7 92.8-9.5 31-6.5 42-10.4 78 13.7-27.1-6.8-56-2.2-87 6.5-5.7 1.7-26.4 6.3-40.8 6.3-12.8 0-34.6-9-43-17z"/><path id="path4" d="M145.1 62.4c-14.7 0-29.4 3.9-44.9 7-32 6.2-50.4 13-80.5 5.3 5.6 10.8 24.4 19 42.2 18l2.4-.3 5 11.4a185.9 185.9 0 0 1-50.2 1.5c9.1 8.1 32.2 16.2 49.9 15.2 11.6-.7 16.6-2.1 34.2-6 45.9-10.2 57.2-12.3 86.7-7.4a57 57 0 0 0-46.8-17L138 78.5c22-4.1 30.8-3.6 52.5.5a69.5 69.5 0 0 0-45.4-16.6zm-26.3 20.1 4.6 10c-8 1.5-16 3.4-23.8 4.9l-11.2 2.3-4.4-9.9c6-1 12.5-2.4 19.9-4l15-3.3z"/></g><!-- app4joy --></svg>