<svg xmlns="http://www.w3.org/2000/svg" id="svg836" width="3000" height="2000" version="1.1" viewBox="0 0 3000 2000"><g id="g1"><path id="rect833" fill="#3b4aa8" d="M0 0h3000v2000H0z"/></g><g id="g2"><path id="path2492" fill="#fff" d="M1731 661.4c0 136.4-106.5 242.3-244 242.3-116.4 0-194-99.5-194-191.1 0-93.6 64-166.3 157.7-171.6 88.5-5 138.3 55.1 138.3 116.8 0 65.7-48.9 99-99.7 99-58.6 0-97.3-54.2-83.3-116.9 6 35.9 32.2 58.5 60 61.7 28.7 3.3 55.3-15.2 55.3-47.1 0-31.9-25.3-51.8-65.3-51.8-48.7 0-88 38.5-88 93 0 74 53.8 124.4 121 124.4 88.1 0 162-64.2 162-164.3 0-106.8-92.6-179-200.8-179-108.2 0-238.3 91.4-238.3 240.7 0 149 123.8 272 273.5 272 181.7 0 331.7-133 331.7-313.9 0-116-46.6-244.8-165.1-358.3C1980 472.6 2100 746 2100 990c0 329.9-268.6 597.3-600 597.3S900 1320 900 990c0-300.5 227.4-548.4 502-589.1 205.3-30.5 329 122.2 329 260.5z"/></g><!-- app4joy --></svg>