<svg xmlns="http://www.w3.org/2000/svg" xmlns:xlink="http://www.w3.org/1999/xlink" id="svg2211" width="440" height="310" version="1.0" viewBox="0 0 440 310"><g id="g2"><path id="rect5137" d="M0 0h440v310H0z" style="fill:#0088bb"/></g><g id="g1"><path id="path2220" d="M58 249 167 71c7-12.3 20-22 36-22h135l-37.1 59.2c-7.5 13-19.8 20.7-40.7 20.7H231l-15.2 23.8h39c13.3 0 18.4 6.4 12.5 16.8L218.7 249h-35l42.1-68.8h-49.3c-6 0-8.2-4.1-4.5-10.5l38.4-60.7c2.6-4.6 8.5-8.1 15.4-8.1H267c3.7 0 8-3.2 10.1-7l9.1-15.3h-72.7c-9.5 0-20 5.9-23.8 12.6L92.9 249H58z" style="fill:#ffffff"/><use xlink:href="#path5133" id="use3589" width="440" height="310" x="0" y="0" transform="translate(58.1)"/><path id="path5133" d="M299 153.8 242 249h34.8l57-95.2H299z" style="fill:#ffffff"/></g><!-- app4joy --></svg>