<svg xmlns="http://www.w3.org/2000/svg" xmlns:xlink="http://www.w3.org/1999/xlink" id="svg9" width="924" height="660" version="1.1" viewBox="0 0 924 660"><g id="g10"><path id="path1" fill="#942b9d" d="M0 0h924v660H0z"/></g><g id="g9" transform="matrix(32.5 0 0 32.5 462 330)"><g id="b"><path id="a" fill="#fff" d="M-2.2-3.8a2.2 2.2 0 0 1 1-1.5A5.1 5.1 0 0 0 0-6.6a5.1 5.1 0 0 0 1.3 1.3 2.2 2.2 0 0 1 .9 1.5L0 1z"/><use xlink:href="#a" id="use1" transform="rotate(180)"/></g><use xlink:href="#b" id="use2" transform="rotate(60)"/><use xlink:href="#b" id="use3" transform="rotate(120)"/><g id="d"><path id="c" fill="#fc0" d="m-1-2.4-.2-.9a1.3 1.3 0 1 1 2.4 0l-.3 1a.4.4 0 0 0 .7.3L0 .2z"/><use xlink:href="#c" id="use4" transform="rotate(180)"/></g><use xlink:href="#d" id="use5" transform="rotate(60)"/><use xlink:href="#d" id="use6" transform="rotate(120)"/><g id="f"><path id="e" fill="#fff" d="m-.4-1.8-.2-1.4a.6.6 0 1 1 1.2 0L.4-1.8a.6.6 0 0 0 1 .5L0 .6z"/><use xlink:href="#e" id="use7" transform="rotate(180)"/></g><use xlink:href="#f" id="use8" transform="rotate(60)"/><use xlink:href="#f" id="use9" transform="rotate(120)"/><circle id="circle9" r="1" fill="#fc0"/></g><!-- app4joy --></svg>