<svg xmlns="http://www.w3.org/2000/svg" id="svg3" width="1500" height="1000" version="1.1" viewBox="-75 0 150 100"><g id="g4"><path id="path1" fill="#00594c" d="M-75 0H75v100H-75z"/></g><g id="g3"><path id="path2" fill="none" stroke="#fff" stroke-width="9" d="M-.3 82a62 62 0 0 1 15.2-28.5 24.8 24.8 0 0 1 12.3-7.1A7.5 7.5 0 0 1 35 58.1a24.8 24.8 0 0 1-21.3 10.2 39.4 39.4 0 0 1-27.9-13.8 24.8 24.8 0 0 0-13-8.1A7.5 7.5 0 0 0-35 58.1a24.8 24.8 0 0 0 13.7 9.4 14 14 0 0 0 11.7-2.2A47.3 47.3 0 0 0 7 43.8a24.7 24.7 0 0 0 0-17.4 7.5 7.5 0 0 0-14 0 24.8 24.8 0 0 0 0 17.2 7.5 7.5 0 0 0 4.5 4.5"/><path id="path3" fill="#fff" d="M4 83H-6a44.3 44.3 0 0 1 5-13.5zm-6.8-41A3 3 0 0 0 1 43.8a41.8 41.8 0 0 1-5 8.5z"/></g><!-- app4joy --></svg>