<svg xmlns="http://www.w3.org/2000/svg" id="svg830" width="800" height="533.3" version="1.1" viewBox="0 0 800 533.3"><g id="g2"><path id="path824" fill="#fff" stroke="#000" d="M0 533.3h800V0H0v533.3"/></g><g id="g1" fill="#0a92d4"><path id="path826" d="M452.2 164.4c24.7-7 42.5-4.6 53 7.6 13.5 15.8 10.1 41-10.2 75.5-7 11.6-15.5 23.6-25 35.5a145.5 145.5 0 0 1-17 18.4c5.1-29.5 8.5-58.3 9.8-86.9 1-22-4.1-39.4-15-51.9-14.7-16.6-36.3-23.3-64.9-20.7-28 2.8-57 14-86.3 34.2a53 53 0 0 1 36 17.4 55.5 55.5 0 0 1 15.8 37.6c.3 11-1.3 25.7-4.4 44.4a457.7 457.7 0 0 0-6.7 43.3c-1.5 21.8 3.6 39 15.2 51.9a61 61 0 0 0 33 19c13.1 3 28 3 44.6 0 34.5-6.8 68-24.4 100.2-53.2 32-28.8 53.3-60.2 63.9-94.2 5.1-16.1 6.7-30.9 5.4-44.4-1.6-14-6.7-26-15-35.3-12.9-14.8-31.7-21.8-56.4-21.2-24 .5-49.2 8.3-76 23z"/><path id="path828" d="M293 191.7a38.6 38.6 0 0 0-28.8 10.4c-30.2 28.5-49.8 58.9-59.3 91.5a101 101 0 0 0-4.1 43.1c1.5 13.5 6.4 25 14.7 34 12.8 14.8 31.7 21.8 56.4 21.3 24-.5 49.2-8.3 76-23.1a93.1 93.1 0 0 1-26.3 4.1 34 34 0 0 1-26.5-11.6c-10-11.5-10.8-28-2.6-49.9 6.2-16 16.5-34 31.4-53.1a39.4 39.4 0 0 0 8.3-32 42.8 42.8 0 0 0-12.4-23.8 39.2 39.2 0 0 0-26.8-11z"/></g><!-- app4joy --></svg>