<svg xmlns="http://www.w3.org/2000/svg" id="svg2" width="1000" height="720" version="1.1" viewBox="-50 -36 100 72"><g id="g2"><path id="path1" fill="#ec1a24" d="M-50-36H50v72H-50z"/></g><g id="g3"><path id="path2" fill="#fff" d="M-9.7-18.8a21.2 21.2 0 0 0 9.1 40V23a23 23 0 0 1-10-43.4zm-2.2 5.3A18 18 0 0 0-.6 18v1.8a19.8 19.8 0 0 1-13.9-33.3l-3.6-3.8a25 25 0 0 1 1.3-1.2zm3.7-2.5a18 18 0 0 0-1.1.6l-1-1.5a19.8 19.8 0 0 1 1.2-.7zm-2 1.2a18 18 0 0 0-1.1.8l-1.2-1.4a19.8 19.8 0 0 1 1.2-.8zm18.7-6.6A23 23 0 0 1 .6 23v-1.8a21.2 21.2 0 0 0 13.9-36.7l-1 1A19.8 19.8 0 0 1 .6 19.9V18a18 18 0 0 0 5.8-34.8zm.3 3.7a19.8 19.8 0 0 1 3.4 2l1-1A21.2 21.2 0 0 0 9.3-19zM-3-22l1.9-.3v1.8c-.7 0-1.3.2-1.9.4zm-.6 13c1-.2.7-1.8.7-3-.7.4-1.6.8-2 1.4-.4 1 .4 2 1.3 1.7zm7.7-9.5c.4-1.5-2-2-2.2-.5-.2.7 0 1.6 0 2.3.6-.3 2-1 2.2-1.8m-7.7-3.3v2c-.8.2-2.1.6-2 1.7 0 1.2 1.4 1 2.7 1v-1.3h1.8v3.4l1.2-.6c-.1-3-.2-5.8 2.4-6 1.9-.2 3.4 1 3.4 2.8 0 1.4-1 2.1-2 2.8l-2 1.4v1.5c.6-.2 1.1-.6 2-.6 2 0 3.7 2 2.7 4.1C5.6-7.6 3-6.3 0-6v-1.7c1.2 0 2.1-.4 3-.9.8-.4 1.8-1.1 2-2 .1-.8-.6-1.3-1.4-1.2C2.3-11.6 1-10.5 0-10v-3.6l-1.2.6c0 2.1.2 3.9-.8 5a3 3 0 0 1-1.1.8A3 3 0 0 1-6-7.8c-.8-.9-1-2.9 0-4.2.7-1 2.1-1.4 3.2-2v-1.4c-2.6.1-4.5-.3-4.5-2.7 0-2.4 2-3 3.7-3.8z"/></g><!-- app4joy --></svg>