<svg xmlns="http://www.w3.org/2000/svg" id="svg1" width="1350" height="900" version="1.1" viewBox="0 0 1350 900"><g id="g4"><path id="rect1" d="M0 0h1350v900H0z" style="fill:#650065"/></g><g id="g5"><path id="path5" d="m1007.4 322.3-117.3.2C840.3 241.5 775.4 201.1 675 200a249.8 249.8 0 0 0-215 122.5l-117.4-.2L675 519.1l332.4-196.8zm-455.9-16.8 92.3 54.6v-97.7a191 191 0 0 1 62.4 0v97.7l92.3-54.6a191.1 191.1 0 0 1 40 47.5L675 449.8 511.5 353c10.7-18 24.2-34 40-47.5z" style="fill:#fed61c"/><path id="path7" d="M864.1 430a190.2 190.2 0 0 1-139.2 203.6L675 540.3l-49.9 93.1A190.2 190.2 0 0 1 486 430l-55.3-32.7a250 250 0 1 0 488.7 0L864.2 430z" style="fill:#fed61c"/></g><!-- app4joy --></svg>