<svg xmlns="http://www.w3.org/2000/svg" xmlns:xlink="http://www.w3.org/1999/xlink" id="svg5" width="900" height="600" fill="#df4133" version="1.1" viewBox="-315 -210 630 420"><g id="g5"><path id="path1" fill="#006462" d="M-315-210h630v420h-630z"/></g><g id="g6"><g id="b"><g id="a"><path id="path2" fill="#fff" d="M41.2-71.3a47.5 47.5 0 0 1 65-17.4L129.8-75v27.5A47.5 47.5 0 0 1 82.4 0L-10 5z"/><path id="path3" d="M50.9-72.7a88.7 88.7 0 0 1 11.8 10L32.5-32.5a12.3 12.3 0 0 0 11.9 20.6l41.3-11a88.7 88.7 0 0 1 2.7 15.2l-45.5 4a20 20 0 0 1-18.2-31.6z"/></g><use xlink:href="#a" id="use3" transform="scale(-1 1)"/><use xlink:href="#a" id="use4" transform="rotate(-60)"/></g><use xlink:href="#b" id="use5" transform="scale(1 -1)"/><circle id="circle5" r="12.3"/></g><!-- app4joy --></svg>