<svg xmlns="http://www.w3.org/2000/svg" xmlns:xlink="http://www.w3.org/1999/xlink" id="svg3" width="900" height="600" version="1.1" viewBox="-247.5 -90 945 630"><g id="g3"><path id="path1" fill="#fff" d="M-247.5-90h945v630h-945z"/></g><g id="g4"><g id="c"><g id="b"><path id="a" fill="#ed1c24" d="M224.3 106.7c-38-18-46.2-72.4-16.8-98.4A32.3 32.3 0 0 1 231.8.2c16.7 2 29 16.4 26.6 33.8a31 31 0 0 1-18.7 24.5c-15.6 6.7-20.2 29-4.6 42 4.3 4 10.3 3.7 8.8 8.7-1.4 5-11.6 1.3-19.6-2.5m82.8-85.6c22.7 33.4 6.2 82-30.4 91-7.7 1.8-17.1.5-24-4.3a30.4 30.4 0 0 1 19.1-55.4c14-.2 24.7-14.7 23.5-28-.5-5.1-7.4-12.6-2.8-15.6 3.4-2.2 9.9 5.3 14.6 12.3"/><use xlink:href="#a" id="use1" transform="rotate(180 225 225)"/></g><use xlink:href="#b" id="use2" transform="rotate(90 225 225)"/></g><use xlink:href="#c" id="use3" transform="rotate(45 225 225)"/></g><!-- app4joy --></svg>