<svg xmlns="http://www.w3.org/2000/svg" id="svg2" width="900" height="600" version="1.1" viewBox="-495 -330 990 660"><g id="g2"><path id="path1" fill="#3e88c0" d="M-495-330h990v660h-990"/></g><g id="g3"><path id="path2" fill="#fff" d="m324-169-29.2 77.2L177-52.5a188 188 0 0 0-32.3-56.7zm-32.8 86.8L262 5l-74.2 14.8a188 188 0 0 0-8.3-64.7zM-324-169l273.2 91a54 54 0 0 0-29.7 17A108 108 0 0 0-101-27.2l-193.8-64.6zm32.8 86.8 187.6 62.6a108 108 0 0 0 2.4 68.2L-262-5zM-97 58.4A108 108 0 0 0-4 119v72A180 180 0 0 1-178.9 31.3zm-33.5-171.3A180 180 0 0 1-53.1-161 90 90 0 0 0 0-205a90 90 0 0 0 53 44A180 180 0 0 1 4 191v-72A108 108 0 0 0 80.5-61 54 54 0 0 0 0-61a54 54 0 0 0-22.9-16z"/></g><!-- app4joy --></svg>