<svg xmlns="http://www.w3.org/2000/svg" id="svg2" width="900" height="600" version="1.1" viewBox="-13.5 -4.5 27 18"><g id="g2"><path id="path1" fill="#004a8f" d="M-13.5-4.5h27v18h-27z"/></g><g id="g3"><path id="path2" fill="#f98f00" stroke="#fff" stroke-linecap="round" stroke-linejoin="round" d="M.5.5a.8.8 0 0 1 .7.6A7.3 7.3 0 0 0 4 5.5a5 5 0 0 0 2.6 1 8.5 8.5 0 0 0-4.8 1.8.8.8 0 0 1-1-1.1 10 10 0 0 1 .8-.5.8.8 0 0 0 .1-1.2 2.2 2.2 0 0 0-3.3 2.8 8.5 8.5 0 0 0-4.8-1.8 5 5 0 0 0 2.6-1A7.3 7.3 0 0 0-1.2 1 .8.8 0 0 1-.5.5zm-1.7.6a7.3 7.3 0 0 0 0-.4.3.3 0 0 1 .3-.2h.4m1 0h.4a.3.3 0 0 1 .3.2 7.3 7.3 0 0 0 0 .4m.3 5.6a10 10 0 0 1 .2-.2.5.5 0 0 0 .1-.7 2.2 2.2 0 0 0-.2-.3"/></g><!-- app4joy --></svg>