<svg xmlns="http://www.w3.org/2000/svg" id="svg3" width="900" height="630" fill="#fff" version="1.1" viewBox="0 0 900 630"><g id="g4"><path id="path1" fill="#76b138" d="M0 0h900v630H0z"/></g><g id="g3" transform="matrix(2.1 0 0 2.1 303 189)"><path id="path2" d="M20 10h50v40H20zm70 0h40v25a27.5 27.5 0 0 1-25.1 26.4l-31.1 2.7A26 26 0 0 0 50 90v20H10V85a27.5 27.5 0 0 1 25.1-26.4l31.1-2.7A26 26 0 0 0 90 30zm40 60-28.5 4A25.3 25.3 0 0 0 80 95v15H56V90a20 20 0 0 1 20-20z"/><path id="path3" fill="none" stroke="#76b138" d="m15 33.4 30-24 30 24m0 10-30-24-30 24m0 10 30-24 30 24M45 9v42"/><circle id="circle3" cx="105" cy="95" r="15.8"/></g><!-- app4joy --></svg>