<svg xmlns="http://www.w3.org/2000/svg" xmlns:xlink="http://www.w3.org/1999/xlink" id="svg6" width="1000" height="700" version="1.1" viewBox="-500 -350 1000 700"><g id="g7"><path id="path1" fill="#906" d="M-500-350H500v700H-500z"/></g><g id="g8"><path id="path2" fill="#fff" d="M-259.9 100h450.5L88.9-76.1a57.8 57.8 0 0 0-50-28.9H-39a57.8 57.8 0 0 0-50 28.9L-183.8 90h-69.3l113.2-196.1a117.8 117.8 0 0 1 101-58.9H39a117.8 117.8 0 0 1 102 58.9L272 121a26 26 0 0 1-22.5 39h-544z"/><g id="g6" stroke="#ffb300" stroke-width="20"><path id="path3" d="M0-85V40M50-65V0M-50-65V0"/><g id="a"><path id="path4" d="M-30 70h70" transform="rotate(45 40 80)"/><path id="path5" d="M30 25h40" transform="rotate(45 70 35)"/><path id="path6" d="M20-10v45" transform="rotate(45 30 35)"/></g><use xlink:href="#a" id="use6" transform="scale(-1 1)"/></g></g><!-- app4joy --></svg>