<svg id="svg8" width="1e3" height="500" viewBox="-1966 0 3932 1966" xmlns="http://www.w3.org/2000/svg" xmlns:xlink="http://www.w3.org/1999/xlink"><g id="g9"><path id="rect1" fill="#296912" d="M-1966 0h3932v1966h-3932z"/></g><g id="g8" fill="#FDFC02"><path id="star" d="m0 488 23 70.7h74.3l-60.1 43.6 23 70.7L0 629.3-60.1 673l23-70.7-60.2-43.6H-23Z"/><path id="arrow" d="m0 781 32 182-21 20v687l22 23v171l-33-33-33 33v-171l22-23V983l-21-20z"/><use id="use1" y="-392" xlink:href="#star"/><g id="half"><use id="use2" x="486" xlink:href="#star"/><use id="use3" x="486" y="-314" xlink:href="#star"/><use id="use4" x="923" y="-93" xlink:href="#star"/><use id="use5" x="1271" y="255" xlink:href="#star"/><use id="use6" x="1494" y="693" xlink:href="#star"/><use id="use7" transform="rotate(40 0 1326)" xlink:href="#arrow"/></g><use id="use8" transform="scale(-1 1)" xlink:href="#half"/></g><!-- app4joy --></svg>