<svg width="1200" height="600" id="svg28" viewBox="0 0 1200 600" xmlns="http://www.w3.org/2000/svg"><g id="g30"><path fill="#c00" id="rect1" d="M0 0h1200v600H0z"/><path fill="#0080ff" id="rect2" d="M0-.4h201.5V600H0z"/></g><g transform="matrix(.6 0 0 .60288 901.1 129.9)" id="g16"><g transform="matrix(10.084 0 0 10.091 -636.5 -15.9)" id="g15"><path d="M35.6 50q-1.5 0-2.5.6l-.5.2-1.3.3-1.3.1-1.3-.1-1.2-.3-.6-.2q-1-.5-2.5-.5s-.2-.3-.2-.3l-.2.1-.1.1-.2.2.1.2v.1l-.6-.8v-.5h-.6L22 49v-.7h-.8v.3l-.2.3h-.3l-.3-1.3-.1-.3h-.4l-.3.2v.3L20 49l-.2-.2-.8-2.2-.1-.3-.3.1h-.1l-.3.2v.3l.5 1-.1-.1-1-2.1-.1-.3-.3.1H17l-.3.2.1.3-.7-1.2-.1-.3-.3.2h-.3l-.6-.8-.2-.2-.2.2h-.1l-.2.2.1.2.2.3h-.7l.5-1.2v-.2l-.4-.8.7-2.1.1-.3-.2-.1h-.2l-.2-.1-.1.2-.6 1.5-.2-.6.7-2 .2-.4h-.3l-.1-.1-.3-.1-.1.3-.5 1.4-.3-.5.4-2.3v-.3h-.3l-.3-.1v.3l-.3 1.3-.1-.3.2-2.3v-.3h-.4l-.3-.1v.3l-.1 1h-.1V34h-.7v.4l-.1-1.5v-.3h-.7l-.2-1v-.3h-.2l.3-.5 1-1.7 1.3-.6.2-.1V28l-.2-.1v-.3l-.3.2-.7.2.4-.7 1-.7.2-.2-.2-.3-.2-.3-.2.1-.2.2.2-.5.8-.7.2-.2-.2-.2-.3-.3.2-.4.5-.5.2-.2-.2-.2-.1-.1-.2-.2-.3.3 1-1.2.2-.2-.3-.2-.2-.2.6-1 .2-.2-.3-.1v-.1l-.3-.2.5-1.3.1-.3-.3-.1h-.1l-.3-.1v.2l-.6 1.5-.2-1.2.4-1H14v-.6h-.2l-.6-.2.1-.4h2v-.8h-1.5l.2-.2 2.3-.2h.3v-.7h-.3l-1 .1 2.3-.5h.3v-.4l-.1-.3h-.4l1.4-.3.3-.1v-.3l-.1-.1V12h.1l1.2.5h.2l.2-.2.1-.4h-.2l-.5-.3h.2l-.1-.4-.1-.1 1.8.5h.3l.1-.2v-.2l.1-.2-.3-.1-1.2-.4h.3l2.3.3.2.1.1-.3v-.4h-.2l-1-.3 2.4.2h.3v-.7H25h1.7v-.6l1.1-.1h.3v-.8l1.3-.5h.3l-.1-.3v-.2l-.2-.2h-.2l-1.6.6.9-1 1.5-.5 1.5.6.9.9-1.6-.5-.2-.1-.1.2v.2l-.2.2.3.1 1.3.5v.8h1.3v.7h1.9-.4v.7h.3l2.4-.2-1 .2h-.3v.4h.1v.4h.4l2.2-.5.3.1-1.2.4h-.3v.3l.1.2v.2h.4l1.8-.5v.1l-.2.3h.2l-.5.3-.2.1.1.3v.1l.2.3.2-.1 1.2-.6h.1v.4l-.1.3h.3l1.4.5-.4-.1v.7h.2l2.3.5h-1l-.3-.1v.7h.3l2.3.2.2.2h-1.5v.7h2v.1l.1.4-.6.1H46v.4l.2.4h.2l.8-.2.4 1.1-.2 1.2-.5-1.5-.1-.2h-.4l-.3.2.1.3.5 1.3-.2.2h-.1l-.3.2.2.3.6.9-.1.1h-.1l-.3.3.2.2 1 1.2-.3-.3-.2.2-.3.3.2.2.5.5.2.4-.2.2-.1.1-.2.2.2.2.8.7.2.5-.2-.2-.2-.1-.2.2v.1l-.2.3.3.2 1 .7.3.7-.6-.2-.3-.2-.1.3-.1.1-.1.3.2.1 1.4.6 1.2 2.2h-.2v.3l-.2 1h-.6v.3l-.2 1.5v-.4h-.7v2.7l-.1-1v-.3H48v.4l.2 2.3v.3l-.3-1.3v-.3h-.4l-.4.1v.3l.5 2.3-.2.5-.6-1.4v-.3h-.4v.1l-.3.1v.3l.8 2.1-.2.6-.6-1.5v-.2h-.5l-.2.2v.3l.8 2-.3 1v.1l.4 1.3h-.7l.2-.4.2-.2-.3-.2-.3-.2-.2.2-.6.9h-.2l-.1-.1-.3-.2-.1.3L43 46v-.1l.2-.3-.3-.1-.4-.2v.3l-1 2-.2.2.4-1 .1-.3-.3-.1-.4-.2v.3l-.9 2.2-.2.2.3-1.2.1-.3-.3-.1H40l-.3-.1v.3l-.4 1.4H39l-.3-.3v-.4h-.6v.3l-.1.4-.6.3h-.6v.5l-.7.8.3-.3-.3-.2-.3-.2zM34 .2h-.2v.2h-.2l-.2.3-1-.5h-.7v.2l-.1.2.2.1 1.5.7H32L30.3.6V.3h-.5l-.1.2-1.8.9h-1.3l1.5-.8h.2V.2l-.1-.2h-.7l-1 .5-.2-.2-.1-.1-.1-.2h-.2l-.1.2-.9.7-.1-.2-.3-.3-.2.2-1 1 .2-.2-.2-.2h-.1l-.3-.3-.2.2L21.2 3l.5-.8.2-.2-.2-.2h-.1l-.3-.2-.1.2-.8 1.1-.2.1v-.1H20v-.2l.2-.2-.2-.2-.3-.2-.1.3-.7 1.1-.7.4v-.2h.2l-.1-.2.1-.3.1-.3-.2-.1H18l-.2-.2-.2.3-.1.4-1 .9-.2-.2h-.1l-.3-.2-.2.2-.6 1-.2-.2-.3-.2-.2.3-.6 1-.3.4-.5.4-.5.3q-1.2.7-1.2 1.5l-.2.2H11l.3-.8 1.4-4 .3-1.5-.8 1.2-2.9 4.8h-.6v.3l-.1 1.2-.4.8-.4.7-.1.3v.1l-.4.8-.2.3q-1 1.2-.7 2v.4l-.4 1-.3-.9.4-2.2v-.3H6l-.1-.1h-.3v.2L5 15.3l-.7 1 .2-1.6v-.3h-.3l-.3-.1v.3L3.6 16h-.8v.4l.2 1-.2.1h-.4v.4l.3 1.4-.1-.3h-.4l-.3.1v.3l.6 2.1v.1l-.3-.8-.1-.3-.3.1h-.1l-.3.2.1.2.8 2.2v.3l-.6-1.1-.1-.3-.3.1h-.1l-.3.2.1.3 1 2v.6l-1-1.2-.1-.3-.3.2-.3.2.2.3 1.2 1.8-.1 1v.1l.4.5h-.2l-.4.2.1.2.3 1.2-1-2.6-.3-.6-.3-.6v1.4L.9 32l-.3.2.1.2.3.5.1.6-.3.2.2.3.2.3.1.8-.3.2.2.3.5.6L2.8 39q.1 1.4.7 2l-1.2-.7-.2-.2-.2.3-.2.3.3.2L4 42v.6l-1.2-.8-.3-.1-.2.2v.1l-.2.3.3.2 2 1 .2 1 .1.1 1.4.8.4.7.1.4L3.8 45l-1-.5.7 1q2.7 2.5 5 4.2l-.1.3.3.2 1.3.6-.4-.1v.2l-.1.2-.1.2.3.1 2.2.8.6.6v.1l.4.4.8.8.2.1.1.2.3.3-2-.1h-1.2l.6.3.5.3 5.7 1.6v.1L15 58.1l-.6.3.6.3.8.4h.1l.3.1.8.4h.1l.2.2.6.2.2.1.2.1.6.3h.2l.1.2.6.2.2.1h.1l.5.3.2.1h.2l.6.4h.2l.2-.1 2.8-4h.2v.5h.5l1.4-.4q1.4-.5 3-.5h.2q1.6 0 3 .5l1.4.4h.5v-.3l-.1-.2h.3l2.7 4 .2.2.2-.1.6-.3h.2l.2-.2.5-.2h.1l.2-.2.5-.2.3-.1.1-.1.6-.3h.2l.2-.2.6-.2.2-.1h.1l.8-.5h.3l.1-.1.8-.4.6-.3-.6-.3-2.8-1.3v-.1l5.7-1.6.5-.3.7-.3h-1.3l-2 .1.3-.3.2-.2.1-.1.8-.8.2-.2.1-.2h.1l.6-.7 2.2-.8h.3V51l-.1-.2-.1-.2H50l-.1.1 1.3-.6.3-.2-.1-.2q2.4-1.9 5-4.3l.7-1-1 .5-2.8 1.5.1-.4.4-.7 1.4-.8h.1v-.2l.3-.8 2-1.1.2-.2-.2-.3-.2-.3-.2.1-1.4.8.2-.6 2-1.1.2-.2-.2-.2v-.1l-.2-.3-.2.2-1.2.6q.6-.6.7-1.8v-.1l1-2.7.6-.6.2-.3-.2-.1v-.9l.3-.3.1-.3-.2-.1v-.7l.3-.5.1-.2-.3-.2.6-5v-1.3l-.3.6-.2.6-1.1 2.6.3-1.2v-.2l-.2-.1H58l-.2-.1.4-.5v-.2l-.1-.9 1.3-1.8.1-.3-.2-.1-.1-.1-.3-.2-.1.3-1 1.2v-.5l1-2.1v-.3l-.2-.1-.4-.2v.3l-.6 1.1v-.3l.7-2.2.1-.2-.3-.1-.4-.2v.3l-.4.8v-.1l.5-2 .1-.4h-.3l-.4-.1v.3l.2-1.4v-.3h-.3v-.1h-.3l.1-1.1V16h-.6l-.3-1.4v-.3h-.5l-.3.1v.3l.4 1.7v-.1l-.8-1-.4-2.3v-.3l-.4.1h-.4v.4l.5 2.2-.3.9q0-.6-.3-1V15q.2-1-.7-2l-.3-.4-.4-.8v-.3H52l-.4-.8q0-.5-.4-.8V8.4h-.7l-2.9-4.8-.8-1.2.3 1.4 1.7 5-.1-.1-.2-.2q0-.8-1.2-1.5l-.5-.3-.5-.4L46 6l-.6-1.1-.2-.3-.2.2-.2.1-.6-.9-.2-.2-.2.1-.1.1-.3.2-1-.9-.1-.4-.1-.3-.3.1h-.1l-.3.2v.3l.2.3v.1l.1.1V4l-.7-.4-.7-1.1-.1-.3-.3.1v.1l-.3.2.1.2.1.2-.1.1h-.2l-.8-1.2-.1-.2-.3.1-.3.3.2.2.6.9h-.1l-1.5-1.9L37 1l-.3.2-.3.3.2.2-1-1-.2-.2-.2.2v.1L35 1l-.9-.7zm-4.1 1 1.9.9.7 1-1.5-.7-.2-.1-.2.3-.1.4h.2l1.3.7v.7h.2l1 .2-.2.3-1.4-.5h-.3v.3l-.2.3.3.1 1.5.6-1.2.1-.9-.3v-.2l-.1-.1-.1-.3-.3.1-.4.2-.4-.2h-.3l-.1.1v.2l-1 .3-1.2-.1 1.5-.6h.3l-.1-.4-.1-.4-.3.1-1.3.5-.2-.2h-.1l1-.3h.3V4l-.1-.1v-.3l1.3-.6.2-.1v-.3l-.1-.1-.2-.3-.2.1-1.6.7h.1l.8-1z" fill="#5b4431" id="path2"/><path d="M24.7 50.3c1 0 2 .6 2.7.8a8 8 0 0 0 5.2 0q1.1-.5 2.7-.8l-.2.4a5 5 0 0 0-2 3.7c-.2 1-.2 2.3 1.5 3.5-5-1.3-4.1-1.3-9.2 0a3.4 3.4 0 0 0 1.6-3.5 5 5 0 0 0-2-3.7zM46 53.6l1.2-1.2q-1.9-.9-3.9-1.4l-1 .2-.3.2 1.3-.1h.3v.7h-.2l-2.3.2-.5.4 1.6.1h.3v.5l-.1.3h-.3l-1.7-.2c2.6 1.2 4 2.1 5.6.3m-7-4.4-.4-.1v1l.3-.4zm-1.1 0q-.2 0-.5.3l-.1 1.6.4-.4zm-1.3 1.2-.5.4.5.2zM53 46.7q.1-.7.7-1.6c-1.6-.1-3.3.2-4.9 0l-3.5-.2-.7.9-.1 1.5 1.5.1 1.7-.8h.3v.2h.1l.2.4H48l-1 .6v.1l.1.2v.1h.6c2.8.3 4.4.9 5.3-1.5m3.9-7.8q0-.7.3-1.7c-1.6.3-3.1 1-4.7 1.3h-.2l-1.2.9v.2l1-.6.3-.1.1.2v.1l.2.3-.2.1-2 1.2-.3.5 1.5-.5.3-.1v.3h.1l.1.3-.3.1-1.6.6 1.9-.1c2.8-.5 4.5-.4 4.7-3m.8-8.8-.3-1.7-4 2.8-2.4 1.3-.1 1 .5 1.4 1.4-.5L54 33l.2-.3.3.2v.1l.3.2-.2.2-.7.9.1.1h.1v.1h.2c2.5-1.5 4.1-2 3.4-4.4m-1-9.5q-.5-.7-.7-1.5-.9.8-1.6 1.8v.1l-.6 2.3.4-1v-.2l.3.1h.2l.2.2v.2l-.8 2.2v.3l.5-1.1.2-.3.2.1h.2l.2.2-.1.3-.6 1.2c2-1.9 3.2-2.7 2-4.9m-6.1 4.5-.2.2.5.4-.1-.3zm-.6.8v.1l1 1.3.2.2-.1-.6zM52.6 13q-.5-.5-.8-1.2l-1.4 2.5h.5v.2l.4 2.3.3.4-.3-1.3-.1-.3h.3v-.1h.4v.2l.1.2h.2l.3-.1v.3l.4-.5v-.5l-.1-.3h.3l.1-.1q.2-.7-.6-1.7m-2.4 1.7-.4.7c-1.5 2-2.5 3-1.7 4l.8 1.3.3-.4H49l-.2-.3.3-.2h.1l.2-.2-.5-1-.1-.2.3-.1v-.1l.3-.1-.2-1.4v-.3h.2l.1-.1h.3v.2l.4 1.6.3-1.2zm.4 4-.3-.3v.2zM47.3 7.3l-1-.7-.7 3.6c-.6 2.1-1.1 3.2-.1 3.9l1 .7c.3-1.2 1-2.2 1.2-3.4.6-2 1.2-3.1-.4-4m-6.5-3.5q-.6 0-1-.4l.2 3.2c0 2-.2 3 .8 3.4q.5 0 1 .3l.3-3.1c0-2 .3-3-1.3-3.4m-27 49.9-1.2-1.2q2-.9 4-1.4l1 .2.3.2-1.3-.1h-.3v.7h.2l2.3.2.5.4-1.6.1h-.3v.5l.1.3h.3l1.7-.2c-2.6 1.2-4 2.2-5.6.3m7-4.4.5-.1v1l-.3-.4zm1.2 0q.3 0 .5.3l.1 1.6-.4-.4zm1.3 1.2.5.4-.4.2zM7 46.7 6.3 45c1.6-.1 3.3.2 4.9 0l3.6-.2.6.9.1 1.5-1.5.1-1.7-.8H12v.2h-.1l-.2.4h.3l1 .6v.1l-.1.2v.1h-.6c-2.8.3-4.4.9-5.2-1.5m-4-7.8q0-.7-.3-1.7c1.6.3 3.1 1 4.7 1.3h.2l1.2.9v.2L8 39l-.3-.1-.1.2v.1l-.2.3.2.1 2 1.2.3.5-1.5-.5-.3-.1v.3H8l-.1.3.3.1 1.6.6-1.9-.1c-2.8-.5-4.5-.4-4.7-3m-.8-8.8.3-1.7 4 2.8L9 32.5l.1 1-.5 1.4-1.4-.5L6 33l-.2-.3-.2.2-.1.1-.3.2.2.2.7.9-.1.1h-.1v.1h-.2c-2.5-1.5-4-2-3.4-4.4m1-9.5q.5-.7.7-1.5.9.8 1.6 1.8v.1l.6 2.3-.4-1v-.2l-.3.1h-.2l-.2.2v.2l.9 2.2-.1.3-.5-1.1-.2-.3-.2.1h-.2l-.2.2.1.3.6 1.2c-2-1.9-3.2-2.7-2-4.9m6.1 4.5.2.2-.4.4v-.3zm.6.8v.1l-1 1.3-.2.2.1-.6zM7.4 13q.5-.5.8-1.2l1.4 2.5H9v.2L8.7 17l-.3.4.4-1.3v-.3h-.3v-.1H8v.4h-.2l-.4-.1v.3l-.4-.5v-.5l.1-.3H7l-.1-.1q-.2-.7.6-1.7m2.4 1.7.4.7c1.5 2 2.5 3 1.7 4l-.8 1.3-.3-.4h.1l.2-.3-.3-.2h-.1l-.2-.2.5-1 .1-.2-.3-.1v-.1l-.3-.1.2-1.4v-.3h-.2l-.1-.1H10v.2l-.4 1.6-.3-1.2zm-.4 4 .3-.3v.2zm3.3-11.6q.7-.3 1-.7l.7 3.6c.6 2.1 1.1 3.2.1 3.9l-1 .7c-.3-1.2-1-2.2-1.2-3.4-.6-2-1.2-3.1.4-4m6.5-3.5q.6 0 1-.4l-.3 3c0 2 .2 3-.8 3.4q-.5 0-1 .3l-.3-3.1c0-2-.3-3 1.3-3.4" fill="#007cc3" id="path3"/><path d="m28.3 6.1-.9 1-1.4-.2 1-1zl2.2-.8v.1zM28 1.8l-.8 1h-1.5l1-1.2h1.2l1.6-.7h.1zM26 1l1.9-.8-2 1-.5 1.4-1 .6.5-1.6zm-1.4.7L24 3.4l-1.1.5.6-1.6.6-.3L26 .5zm-1.5.7L22.5 4l-1 .5L22 3l.8-.4L24.5 1zm-1.4.7L21 4.8l-.7.3v-.2l.2-1.2.8-.4L23 1.4v.1zm-1.1 0 .8-1.2h.1zm-1.3.2.5-.9h.1l-.4.8zm-1.9 1.3.2-.4.2-.2-.2.6zM18 3h.2l-.1.1zm9.1.5 2-.9H29l-2 .8-1.5-.5-1 .5L26 4zm-1.4.7-1.6-.6-1 .5 1.5.6.7-.3 2.3-.4v-.2zm-1.4.6-1.6-.5-1.1.5 1.6.6.7-.4 2.4-.2v-.1zm-1.5.7L21.2 5l-.8.4v.2l1.3.5.9-.4H25zm-1.4.7-1-.4v.9l.8-.4 2.4.2v-.1zm-1 .8 1 .2h.2zm1.6.3h.1zm4.4-2 2-.8v.1zl-.7 1.4-1.1.4L25 6h.2v-.2zm-1.6.6-.6 1.4-1.1.4.4-1 .3.1v-.6l.7-.3zm.5-.5.3-.3h.3zm-2 1.4-.6 1-1.1.5.1-.3.2-.2.3-.1h.2v-.4l.1-.3h-.3l.1-.3h.9m.2-.7.2-.2h.2l-.2.2zM22 7h-.1l.2-.2h.1zm-.6 1.4-.4.1zm-.8-.4.2-.5h.4zm2.2-2h.2v.1zm-2.3 1.5v.3zm.7-.7H21m6.2 1 2-.6V7l-2.1.8-1.4-.6-1.1.4 1.5.7zm-1.5.6-1.5-.7-1.1.4 1.5.7.7-.2 2.4-.2v-.1zm-1.5.6-1.5-.8-1.1.5 1.5.7.8-.3h2.4V9zm-1.4.5-1.6-.7-1 .4.4.3.3-.2.2.2v.1l.2.2.3.1.9-.3 2.4.2v-.1zm-1.5.6-.2-.1-.3.2h.2l2.4.3zm-1-.5-.3-.1q0 .3-.5.5v.2zm-.3 1.2 2 .5v-.1l-1.8-.5zm-.6 1 .9.4V12l-.7-.4zm-2-5.6-1 .2.5-1.3.6-.1zm-1.2-1.4 1.6-1.3L16.4 5 16 6.5l-.9.8.2-1.7zm-1.2 1-.2 1.7-.5.5-.3-1.3.6-.6 1.4-2v.2zm-1 .5.7-1.3zm-2.4 4v-.2zm-.3-1.1-.1 1.4-1 .8.1-1 .5-1 .5-.5zm-1.3 2v.4l-.2.3.2-.4zm-1-2v-.5zm8.5-2.3-1.3-.1-.9.7 1.7.2.5-.4zm-.8 1L15 7.7l-.7.5v.3H16l.2-.1v-.1h.1l.2-.2 1.2-.5v-.2zm-1.2 1h-1.1v.5l.2-.2.3.1.3-.1.5-.2v-.2zm1-.2h.2l.2-.3-.5.2zM15 9.8l.2-.2h-.1zm-3.4 1h-.2l-1 .7h1l.1-.5zm-.4 1h-.6v.2l-.2.6h.5zm-1.4.2-.5.4v.1h.4zm2.1 0h.2zm-2.4 1.7.2-.9h-.5l-.1.1.3.6zm.9-.6h.4V13zm7.4-2.8h-.1v-.2zm2.4-1.9 1.4-1v.2l-1.4 1zm-2.5.4-.3 1.5-1 .7.3-1.6zm-1.3.8-.3 1.7-1 .6v-.2l.3-1.4.6-.5L17.5 8v.1zm-1.3.9-.1.6-.1-.3v-.2l1.3-1.9zm-2.4 3-.2.3v-.6zm1.9-3.7.1-.3h.1zm-2.2 3-.2 1.2-1 .7.3-1.7.8-.6zm-1.2.4L11 15l-.5.3-.4-.5.2-.8.8-.6.8-2.2v.2zm-1.5 1 .4-2.3h.2l-.5 2.4zm9.5-3.3L21 9.8v-.1L19 11l-1.2-.3h-.3l-1 .7 1.7.3zm-1.3.9-1.7-.3-1 .7 1.7.3.6-.4 2.3-.9zm-1.3.9-1.3-.2v.8h.3l.7-.4 2.3-.6v-.1zm-1.3.9h-.2l-.3.3.3-.1 2.4-.5zm-1.1 1-.3.3.1-.1 2.4-.3zm-1-.2h-.7l-1 .6 1.7.3.2-.1v-.4zm-.3 1.1-1.6-.3-.5.4.3.5.8.1.8-.6H15zm-1.4 1 1 .2v-.1l-1.1-.2zm1.6.3.7.1zm-7.6-1.4-.8 1 .4 1.4.9-1.1zL6 13h-.1zm1 1.6.4-1.8h-.2zm-.2.4-1.2.9-.2 1.1.3-.2v-.5H6zm-1 2.1-.3.2.2.4zm.8.8V20zM4 25v.5zm.1.7v.3-.2M3.6 27v.2zm-.1.6v.1zm.3-10.8.4-2h.1L4 16.9 5 18l-.3 1.1-.2-.1-.8-1.2zm-.2 1.6.2.4v.3l-.3.7-.1-.2v-.8l-.1-2.3zm-.3 1.5v.4l-.5-2.4H3zM2.8 21l-.5-1.6h.2l.4 1.5zm1 3.4-.2.5v-.1l-.2-.3h-.2l-.2.1-.5-.5.2-1-.8-2.2.6 1.4q0 1.1 1.2 2.1m-1.3.1.4.7.5 1.2-.2.7-.4-.7-.2-.3-.3-.4.1-1-1-2.2h.1zm0 3.5-.5-.7v-.6H2l1 1.6-.4-.2zM2 26.4v-.2L.9 24.3H1l1.4 2zM12.5 3.7a59 59 0 0 1-3.5 9l-.3-.6 1.2-2.9L8.5 12v-.1l-.3-.3.4-.7q1.4-3.2 4-7M9 17l-.8 1 .4 1.4.8-1.1zl.4-2.4h-.1zm-1 1.5-.1-.3zm-.1-.3V18m0-.3.6-2h-.2l-.2 1zM5.4 28l-.1.2zm0 .5-.2.1-.3 1.1.6-.3-.2-.3v-.6m.5 2L6 30l-.4-.5-.5.3zM6 19l.4-1.4v.3zm.4-1.4.1-.4h.1v.4zm-.6 3-.1-.2.3-1.1.2 1.5v-.4zm-.4-.3v-1.5h.2v1.6zm0 5.7-.1.4-.7-1.1.6.5zm-1-.7-.2.1-.1-.7.1.2zm.6 2.1v.6l-.9-1.5.1-.4zm-1-.5.8 1.4-.3 1-.2-.2-.7-1 .3-1-.9-2.3h.2zm-.5 1.7-1.2-2.1 1.4 2.2zm6.5-10 .3-2-.5 2.2-1.2.8-.2 1.2 1.4-1zm-.3 1.6-1.4 1-.2 1.2 1.4-1 .1-.7 1-2.2zM9.5 22l-1.4 1-.1 1 1.4-1 .2-.9 1.2-2-.1-.1zm-.3 1.6-1.3 1-.3 1.1 1.4-1 .2-.9 1.4-2h-.1zM9 25l-1.4 1-.2 1.2 1.4-1 .1-1 1.6-1.8h-.1zm-.3 1.6-1.4 1-.2 1.1 1.4-1 .2-1 1.7-1.6-.1-.1zM7 29l-.2 1.2 1.4-1 .2-1 2-1.4h-.1zm.4-10.8.4-2-.3 2.2.9 1.2-.2 1.2-1-1.4zm-.3 1.6 1 1.4-.2 1.1-1-1.3.1-.8-.2-2.4H7zM7 21.4l1 1.4-.3 1.2-1-1.4.2-.8-.4-2.4zM6.6 23l1 1.4-.3 1.2-1-1.4.2-1L6 21zm-.3 1.5 1 1.4-.2 1.2-1-1.4.2-1-.9-2.2h.2zM6 26.1l1 1.4-.2 1.2-1-1.4.2-1-1-2.2zm.7 3-.2 1.1-1-1.4.2-1L4.4 26zM12.3 18l.7-2v-.1l-.8 2zm.6 2 .7-2h-.1l-.8 2.1-1.3.6v.2l-.2.4-.3.6 1.6-.7zm-.5 1.5-1.6.8-.3.8h.1l.1.1 1.2-.5.3-.7 1.4-2h-.1zm-.6 1.5-1 .5-.1.1-.7.8-.1.5.2-.1.2-.2 1-.4.1-.1.3-.7 1.5-1.9zm-.8 1.6-.4.3.1.1zm1.2.4.3-.3-.1-.1-.2.2zm-.8 1.8.7-.5-.6.3zm-.8 1.9 1.1-.6-1 .4zm0-8 .1.2.1.2-.1.4h-.2l-.2-.2zm-.4.8v.1zm.2 1-.2.6-.1.1v-.1zm-.6.8v.1l-.3.6v-.1zM9.6 27l3-3.8c-1.4 3.2-1.9 6-4.1 8.8l-.6-.3L9 29.2l-1.5 2.2L7 31v-.4l1.3-.8.4-1.4 1.8-1.3.2-.2-.1-.2-.1-.1-.2-.3-.2.2zM1 30.1l-.4-3 1.3 3.2v1l-.4-1v-.4l-.3.1zM9 44l.2.7h-.8l-.5-.3-.3-1-2-1.2zm.3 0 .2.8h.4l.6-1.1v-.2l-.7-.3zm1-1.4v-.2l-.2.2zm-4.6-7.9.1.1 1 1-.2-.2-.2.2-1-.6-.2-.7h.2zm-.2.9.7.4-.1.2.2.2.9.7v.2l-.2-.1v.1l-1.2-.6-.2-.8-1.4-2h.1zm.4 1.5.9.5-.2.2.3.1v.1l-.8-.2-.1-.4-1.6-1.9h.1zm-1 .3-.2-.2v-.1l.5.4zm4 5.6.2.9-1.4-.9-.3-.8H8l.6.4-.1.3zM8 37.8l.4.4V38zm1.2 5.4.2.6.3-.5zm.9-.5.1-.2h-.9zm-4 .3.2.6.2-.4zm.8-.4L7 42l-.2-.1-.7-.1v.2zm-1.6-5.7v.2l.5.6zm-.8-.9-.2.3.3 1V37h.2l.2-.3zm-.3-1.7-.3.5.4 1.1v-.2l.2-.2v-.1l.2-.3zm-.6-.7.2.8.2-.3V34zm2.2 9.2.2.9-1.5-.9-.2-1-2-1.2 3.2 1.8-.1.1.2.2zm-.3-1v.3l-.7-.4zM2.7 37l-1.3-1.5h.1L3 37zm-.2-1.5 1.5.9.2 1-.4-.2-1-.5-.2-.8-1.4-2h.1zM2 34l1.4.8L4 36l-1.5-.8-.2-.8-1.2-2h.1zm-.4-1.5-.6-2h.1l.6 2 1 .6.4.3.3 1-1.5-.8zm.5-3-.3-1.1H2l.2.8zM6.2 44l.3.9h.2l.6-1.1-.7-.5zm.8-1.4v.2zm-1 1.5.1.8H6l-1-.5-.3-1-2-1.2V42zm6.5-.1.4.7h-.5v.1l-1-.3-.4-1-2.2-.8zm.3-.2.4 1 .2-.1.5-1.4-.5-.9.9-2.2h-.2zm-5.9-9 1.6.5.5 1.1-1.6-.6-.3-.6-1.5-1.9zm.7 1.4 1.6.6.5 1-1.6-.5-.4-.8L6 34.8h.1zm.6 1.4 1.6.6.5 1-1.6-.5-.3-.8-1.9-1.6zM9 39l1.6.6.5 1.1-1.6-.6-.4-.8-2-1.4.1-.1zm.7 1.5 1.6.6.5 1-1.6-.5-.4-1-2.1-1.1v-.1zm2.2 2 .5 1-1.6-.5-.4-1-2.2-.7V41zm-2.5-8.9L9 35.1l.5 1 .6-1.5-.4-.7-.4-2.3h-.1zm.7 1.4-.6 1.6.5 1.1.6-1.6-.3-.7L10 33zm.7 1.5-.6 1.6.5 1 .6-1.5-.4-.9v-2.4h-.1zm.6 1.4-.5 1.6.5 1L12 39l-.4-.9.2-2.4h-.2zm.7 1.4-.6 1.6.5 1.1.6-1.6-.4-.9.4-2.3zm.1 3 .5 1.2.6-1.6-.4-1 .8-2.2h-.1zm-8.5 3q1.6.7 3 1.6.4 1 1 1.5l-.1.1zM9 48.7h1l.4.3h-.8zM25.3 52l.4 1.7 1 .5-.6-1.7-.5-.3-1.4-2H24zm-1.4-.8.5 1.7 1 .6-.4-1.7-.8-.4-.2-.3zm0 1-.3-1-.2.1v.5zm.5 2 1.2-.3 1 .6-1.6.5-.6-.5zm-.1-1 1 .5-1 .3zm-9.5-2.3H16l-.8.3-2-1.1V50zm-.5.5-.3-.1v-.1l.5.2zm3.9 3h.5v.1h.4l.9-.1.7.8h-1l-.8-.1-.5-.6-.5-.1.2-.1zm3.7 3h-.6l-.1-.1zm-2.3-3.8.1.1h.1v-.3zm.5-.3v.4h.4zm.3 1 .6.6v-.6zm.8 0v1l.3.2.6.1V55H22zm2 1.6v-.4l-.6-.6h-.3v.8zm-.3-2.2 1 .8-1.7.1-.8-.6-2.4.2V54zm.2-.2 1 .8-.2-1.7-.8-.7-.2-2.4h-.1zM14 47.7l1.7-.1 1 .8-1.7.1-.6-.5-2.2-1zm1.3 1 1.7-.1.9.8-1.7.1-.7-.5-2.2-.8V48zm1.2 1H18l.9.7-1.7.1-.7-.6-2.3-.6zm1.2 1h1.7l.9.7-1.7.2-.7-.7-2.4-.4zm1.2 1.1 1.7-.1 1 .7-1.8.2-.7-.7-2.4-.2zm3 .9.8.7-1.7.2-.8-.7-2.3.2zm-6.1-7 .1 1.7 1 .7-.2-1.7-.6-.4-1.3-2h-.1zm1.2 1 .2 1.7.9.7-.2-1.6-.6-.6-1.2-2H16zm1.2 1 .2 1.7.9.8-.2-1.7-.7-.6-1-2.2zm1.2 1 .2 1.7.9.8-.2-1.7-.7-.6-.8-2.3h-.1zm1.2 1 .2 1.7 1 .8-.2-1.7-.8-.6-.6-2.4H20zm1.4 2.7 1 .8-.2-1.7-.8-.6-.2-2.4h-.1zm3.6 5c-4.7-.3-8-1-13.2-2.6 5.5.2 9 .7 13.7 2.1l-.2.3-4.8-1-2.8-.5 3 .6 4.5 1zm-3.7 4-.6-.2 1-1.4-1.2 1.3-.6-.3 1.3-1.5-1.5 1.4-.7-.3 1.7-1.7-2 1.6-.6-.3 2.1-1.9-2.4 1.8-.8-.4 2.8-2-3 1.8-.9-.3 3.4-2 .4.1.5.1.5.5h3.3zm-2-4.4L16 58.8l-.8-.4 3-1.4h1.5m3.4-2 1-.2.7.4.4.3.4-.3.9.5-.5-.5.2-.2h.1l.1-.1-.1.2.3.4v.4l-.7-.3-.3.2.7.6L24 55l2.4 1.6-.1.2-1.8-.7-.8-.6zM9.6 49.6h1.7l.8.8h-1.7l-.5-.5-2-1.2v-.1zm1.1 1h1.7l.9 1h-1.7l-.6-.7-2.2-1v-.1zm1.1 1.2h1.7l-.8.4-.3.1-.4-.3-2.2-.8V51zm-.3-3v.5l.9.9v-1.5zm1.1 0v1.7l.9.8v-.6l-.6-.3-.2-.1.1-.3h.1l.2-.3.2.1.2.1v-.3l-.6-.6-.2-.4h-.1zm1.1 1v.3l.5.2-.3-.2-.5-1.4h-.1zm0 1.1v.4l.1-.1zm0 .7.2.1zm1.2-.9-.2-.9h-.2l.3.9zm3 4.3v-.2l-.4-.1-.4.1z" fill="#fbdd73" id="path4"/><path d="m31.7 6.1.9 1 1.4-.2-1-1zl-1-.4h-.3zm-2.1-.9h-.1M32 1.8l.8 1h1.5l-1-1.2h-1.2l-2.2-1v.2zm2-.7L32.1.4l2 1 .5 1.4 1 .6-.5-1.6zm1.5.7.5 1.6 1.1.5-.6-1.6L36 2 34 .5zm1.4.7.6 1.6 1 .5L38 3l-.8-.4L35.5 1zm1.4.7.6 1.6.7.3v-.2l-.2-1.2-.8-.4L37 1.4v.1zm1.1 0L38.6 2h-.1l1 1.3zm1.3.2-.5-.9H40l.4.8zm1.9 1.3-.2-.4-.1-.2.1.6zM42 3.1h-.1v.1zm-9.1.5-2-.9h.1l2 .8 1.5-.5 1 .5-1.5.6zm1.4.7 1.6-.6 1 .5-1.5.6-.7-.3-2.3-.4v-.2zm1.4.6 1.6-.5 1.1.5-1.6.6-.7-.4-2.4-.2v-.1zm1.5.7 1.6-.6.8.4v.2l-1.3.5-.9-.4H35zm1.4.7 1-.4.1.6v.3l-.9-.4-2.3.2v-.1zm1 .8-1 .2h-.2zm-1.5.3h-.2l.3-.1zm-4.5-2-2-.8v.1zl.7 1.4 1.2.4-.6-1.3h-.2v-.2zm1.6.6.6 1.4 1.1.4-.4-1-.3.1v-.6l-.7-.3zm-.5-.5-.3-.3H34l.6.4zm2 1.4.6 1 1.1.5-.1-.3-.2-.2-.2-.1h-.3v-.4l-.1-.3h.3v-.3h-1m-.2-.7-.2-.2H36l.2.2zM38 7h.1l-.2-.2h.1zm.6 1.4.4.1zm.8-.4-.2-.5h-.4zm-2.1-2H37l.1.1zm2.2 1.5v.3zm-.7-.7h.2zm-6.2 1-2-.6V7zl1.4-.6 1.1.4-1.5.7zm1.5.6 1.5-.7 1.1.4-1.5.7-.7-.2-2.4-.2v-.1zm1.5.6 1.5-.8 1.1.5-1.5.7L36 9h-2.4zm1.4.5 1.6-.7 1 .4-.4.3-.3-.2-.2.2v.1l-.2.2-.3.1-.9-.3-2.4.2v-.1zm1.5.6.2-.1.3.2h-.2l-2.4.3zm1-.5.3-.1q0 .3.5.5v.2zm.3 1.2-1.9.5v-.1l1.8-.5m.6 1-.9.4V12l.7-.4zm2-5.6 1 .2-.5-1.3-.6-.1zm1.2-1.4-1.6-1.3L43.6 5l.2 1.5.9.8-.1-1.7zm1.2 1 .2 1.7.5.5.3-1.3-.6-.6-1.4-2v.2zm1 .5L45.3 5l.7 1.4zm2.5 4V10zm.2-1.1.1 1.4 1 .8-.1-1-.5-1-.5-.5zm1.3 2v.4h.1l.2.3q0-.3-.2-.4zm1-2v-.5zm-8.5-2.3 1.3-.1.9.7-1.7.2-.5-.4zm.8 1 1.7-.1.7.5v.3H44l-.2-.1v-.1l-.3-.2-1.2-.5v-.2zm1.2 1h1.1v.5l-.2-.2-.3.1-.3-.1-.5-.2v-.2zm-1-.2H43l-.1-.3zM45 9.9l-.1-.2zm3.4 1h.2l1 .7h-1l-.1-.5zm.4 1h.6v.2l.2.6H49zm1.4.2.5.4v.1h-.4zm-2.1 0h-.2V12h.1zm2.4 1.7-.2-.9h.5l.1.1-.3.6zm-.8-.6H49V13h.4zM42 10.4h.1v-.2zm-2.4-1.9-1.4-1v.2l1.4 1zm2.5.4.3 1.5 1 .7-.3-1.6zm1.4.8.2 1.7 1 .6v-.2l-.3-1.4-.6-.5-1.5-1.8v.1zm1.2.9.2.6V11l.1-.2-1.3-1.9h-.1zm2.4 3 .2.3v-.6zM45.3 10l-.1-.3H45zm2.2 3 .2 1.2 1 .7-.3-1.7-.8-.6zm1.2.4L49 15l.5.3.4-.5-.2-.8-.8-.6-.8-2.2v.2zm1.5 1-.4-2.3h-.2l.5 2.4zM40.7 11 39 9.8v-.1l2 1.3 1.2-.3h.3l1 .7-1.7.3zm1.3.9 1.7-.3 1 .7-1.7.3-.6-.4-2.3-.9zm1.3.9 1.3-.2v.8h-.3l-.7-.4-2.3-.6v-.1zm1.3.9h.2l.3.3-.3-.1-2.3-.5zm2.5.3.1.1H47zm-1.2.6.3.3-.1-.1-2.4-.3zm1-.2h.7l1 .6-1.7.3-.2-.1v-.4zm.3 1.1 1.7-.3.4.4-.3.5-.8.1-.8-.6zH45zm1.4 1-.9.2v-.1l1-.2zm-1.6.3-.7.1zm7.6-1.4.8 1-.4 1.4-.9-1.1.4-1.2L54 13h.1zM53.5 17l-.4-1.8h.2zm.2.4 1.2.9.2 1.1-.3-.2v-.5H54zm1 2.1.4.2-.3.4zm-.8.8V20zM56 25v.5zm-.1.7v.3-.2m.4 1.2v.2zm.1.6v.1zm-.3-10.8-.4-2h-.1L56 17l-1 1.2.3 1.1.2-.1.8-1.2zm.2 1.6-.2.4v.3l.3.7.1-.2v-.8l.1-2.3zm.3 1.5v.4l.5-2.4H57zm.5 1.2.5-1.6h-.2L57 21zm-.9 3.4.1.5v-.1l.2-.3h.2l.2.1h.1l.4-.5-.2-1L58 21l-.6 1.4q0 1.1-1.2 2.1m1.2.1-.4.7-.5 1.2.2.7.4-.7.2-.3.4-.4-.2-1 1-2.2h-.1zm0 3.5.5-.7v-.6h-.1l-1 1.6.4-.2zm.4-1.6v-.2l1.3-1.9-1.5 2zM47.5 3.7q1.4 4.4 2.8 7.6l.7 1.4.3-.6-1.2-2.9 1.4 2.7v-.1l.3-.3-.3-.7q-1.5-3.2-4-7M51 17l.8 1-.4 1.4-.8-1.1zl-.4-2.4h.1zm1.1 1.5v-.3zm0-.3V18m0-.3-.6-2h.2l.2 1zm2.6 10v.2l-.1-.2m0 .5.1.1.3 1.1-.6-.3.2-.3zm-.6 2V30l.3-.5.5.3zM54 19l-.4-1.4v.3l.3 1.1m-.4-1.4-.1-.4h-.1v.4zm.6 3 .1-.2-.3-1.1-.2 1.5v-.4zm.4-.3v-1.5h-.2v1.6zm0 5.7.1.4.7-1.1zm1-.7.2.1.2-.7-.2.2zm-.6 2.1.1.6.9-1.5-.1-.4zm1-.5-.8 1.4.3 1 .3-.2.6-1-.3-1 .9-2.3h-.2zm.5 1.7 1.2-2.1-1.4 2.2zm-6.5-10-.3-2 .5 2.2 1.2.8.2 1.2-1.4-1zm.3 1.6 1.4 1 .2 1.2-1.4-1-.1-.7-1-2.2h.1zm.3 1.6 1.4 1L52 24l-1.4-1-.1-.9-1.2-2V20zm.3 1.6 1.4 1 .2 1.1-1.4-1-.2-.9-1.4-2h.1zM51 25l1.4 1 .2 1.2-1.3-1-.2-1-1.6-1.8h.1zm.3 1.6 1.4 1 .2 1.1-1.4-1-.2-1-1.6-1.6V25zM53 29l.2 1.2-1.4-1-.2-1-2-1.4h.2zm-.4-10.8-.4-2 .3 2.2-.9 1.2.2 1.2 1-1.4zm.3 1.6-1 1.4.2 1.1 1-1.3-.1-.8.2-2.4H53zm.3 1.5-1 1.4.2 1.2 1-1.4-.2-.8.4-2.4zm.2 1.6-1 1.4.3 1.2 1-1.4-.2-1L54 21zm.3 1.5-1 1.4.2 1.2 1-1.4-.2-1 .9-2.2h-.1zM54 26l-1 1.4.2 1.2 1-1.4-.2-1 1-2.2zm-.7 3 .2 1.1 1-1.4-.2-1 1.3-1.9zm-5.6-11-.7-2v-.1l.8 2zm-.6 2-.7-2h.1l.8 2.1 1.3.6v.2l.2.4.3.6-1.6-.7zm.6 1.5 1.5.8.3.8h-.1l-.1.1-1.2-.5-.3-.7-1.4-2h.1zm.5 1.5 1 .5.1.1.7.8.1.5-.1-.1-.3-.2-1-.4-.1-.1-.3-.7-1.5-1.9zm.8 1.6.5.3-.2.1zm-1.2.4-.3-.3.1-.1.2.2zm.8 1.8-.7-.5.7.3zm.8 1.9-1.1-.6 1 .4zm0-8h-.1l-.1.2-.1.2.2.4.3-.2zm.4.8v.1zm-.2 1 .2.6.1.1v-.1zm.6.8v.1l.4.6v-.1zm.2 3.6-3-3.8c1.4 3.2 1.9 6 4.1 8.8l.6-.3-1.2-2.4 1.5 2.2.6-.3v-.3l-1.4-.8v-.6l-.3-1-1.8-1.2-.2-.2.1-.2.1-.1.2-.3.2.2zm8.7 3.2.4-3-1.4 3.2v1l.4-1v-.4l.3.1h.2m-8.2 14-.2.7h.8l.5-.3.3-1 2-1.2zm-.3 0-.2.8H50l-.6-1.1v-.2l.7-.3zm-1-1.4v-.2l.2.2zm4.6-7.9v.1L53 36l.3-.2v.2l1.1-.6.2-.7h-.2zm.2.9-.7.4.1.2-.2.2-.9.7v.2l.2-.1v.1l1.2-.6.2-.8 1.4-2h-.1zm-.4 1.5-.9.5.2.2-.3.1v.1l.8-.2.1-.4 1.6-1.9h-.1zm1 .3.2-.2v-.1l-.5.4zM51.1 43l-.2.9 1.4-.9.3-.8H52l-.6.4.1.3zm.9-5.2-.3.4V38zm-1.2 5.4-.2.6-.3-.5zm-.9-.5v-.2h.8zm4 .3-.2.6-.2-.4zm-.8-.4V42l.2-.1.7-.1v.2zm1.6-5.7.1.2-.6.6zm.8-.9.2.3-.3 1V37h-.2l-.2-.3zm.3-1.7.3.5-.3 1.1-.1-.1v-.1l-.1-.2h-.1v-.1l-.2-.3zm.6-.7-.2.8-.2-.3V34h.1zm-2.2 9.2-.2.9 1.5-.9.2-1 2-1.2-3.1 1.8v.1l-.2.2zm.3-1v.3l.7-.4zm2.7-4.8 1.3-1.5h-.1L57 37zm.2-1.5-1.5.9-.2 1 .4-.2 1-.5.2-.8 1.4-2zM58 34l-1.4.8L56 36l1.5-.8.2-.8 1.2-2h-.1zm.4-1.5.6-2h-.1l-.6 2-1 .6-.4.3-.2 1 1.4-.8zm-.5-3 .3-1.1-.3.8zM53.8 44l-.2.9h-.3l-.6-1.1.7-.5zm-.8-1.4v.2zm1 1.5-.1.8h.3l1-.5.3-1 2-1.2V42zm-6.5-.1-.4.7h.5v.1l1-.3.4-1 2.2-.8zm-.3-.2-.4 1-.2-.1-.5-1.4.5-.9-.9-2.2h.2zm6-9-1.7.5-.5 1.1 1.6-.6.3-.6 1.6-1.9h-.1zm-.8 1.4-1.6.6-.5 1 1.6-.5.4-.8 1.7-1.7zm-.6 1.4-1.6.6-.5 1 1.6-.5.4-.8 1.8-1.6zM51 39l-1.6.6-.5 1.1 1.6-.6.4-.8 2-1.4-.1-.1zm-.7 1.5-1.6.6-.5 1 1.6-.5.4-1 2.1-1.1v-.1zm-2.2 2-.5 1 1.6-.5.4-1 2.2-.7V41zm2.5-8.9.5 1.6-.5 1-.5-1.5.3-.7.4-2.3h.1zm-.7 1.4.6 1.6-.5 1.1-.6-1.6.3-.7.3-2.4zm-.7 1.5.6 1.6-.5 1-.6-1.5.4-.9v-2.4h.1zm-.6 1.4.5 1.6-.5 1-.5-1.5.4-.9-.3-2.4h.2zm-.7 1.4.6 1.6L48 42l-.6-1.6.4-.9-.4-2.3h.1zm-.1 3-.5 1.2-.6-1.6.4-1-.8-2.2h.1zm8.5 3q-1.7.7-3 1.6-.4 1-1 1.5l.1.1q1.9-1.4 4-3.3M51 48.7h-1l-.4.3h.8zM34.7 52l-.4 1.7-1 .5.6-1.7.6-.3 1.3-2h.1zm1.4-.8-.5 1.7-1 .6.4-1.7.8-.4zm0 1 .3-1 .2.1v.5zm-.5 2-1.2-.3-1 .6 1.6.5.4-.3.2-.2zm.1-1-1 .5 1 .3zm9.5-2.3h-1l.7.3 2-1.1V50zm.5.5.3-.1v-.1l-.5.2zm-3.9 3h-.5v.1H41l-1-.1-.7.8h1l.8-.1.5-.6.5-.1-.2-.1m-3.7 3h.6l.1-.1zm2.3-3.8-.1.1h-.1v-.3zm-.5-.3v.4h-.4zm-.3 1-.5.6v-.6zm-.8 0v1l-.3.2-.6.1V55h.1zm-2 1.6v-.4l.6-.6h.3v.8zm.3-2.2-1 .8 1.7.1.8-.6 2.4.2V54zm-.2-.2-1 .8.2-1.7.8-.7.2-2.4h.1zm9.2-5.8-1.7-.1-1 .8 1.7.1.6-.5 2.2-1zm-1.2 1-1.7-.1-1 .8 1.7.1.7-.5 2.2-.8V48zm-1.3 1H42l-.9.7 1.7.1.7-.6 2.3-.6zm-1.2 1h-1.7l-.9.7 1.7.2.7-.7 2.4-.4zm-1.2 1.1-1.7-.1-.9.7 1.7.2.7-.7 2.4-.2zm-2.9.9-1 .7 1.8.2.8-.7 2.3.2zm6-7-.1 1.7-1 .7.2-1.7.6-.4 1.3-2h.1zm-1.2 1-.1 1.7-1 .7.2-1.6.6-.6 1.2-2h.1zm-1.2 1-.2 1.7-.9.8.2-1.7.7-.6 1-2.2h.1zm-1.2 1-.2 1.7-.9.8.2-1.7.7-.6.8-2.3h.1zm-1.2 1-.2 1.7-.9.8.1-1.7.8-.6.6-2.4h.1zM38 52.4l-1 .8.2-1.7.8-.6.2-2.4h.1zm-3.6 5c4.7-.3 8-1 13.2-2.6-5.5.2-9 .7-13.7 2.1l.2.3 4.8-1 2.8-.5-3 .6-4.5 1zm3.7 4 .6-.2-1-1.4 1.2 1.3.6-.3-1.3-1.5 1.5 1.4.7-.3-1.7-1.7 2 1.6.7-.3-2.2-1.9 2.4 1.8.8-.4-2.8-2 3 1.8.9-.3-3.3-2-.5.1-.5.1-.5.5h-3.3zm2-4.4 3.8 1.8.8-.4-3-1.4zm-3.4-1.9-.9-.3-1 .6-.6-.2-.9.4.6-.5-.5-.2.2.2-.4.5.1.2.7-.2.2.2-.6.6 2.2-1.2-2.1 1.3.1.2 2-.7.6-.5zm13.6-5.6h-1.7l-.8.8h1.7l.5-.5 2-1.2v-.1zm-1.1 1h-1.7l-.8 1h1.6l.6-.7 2.2-1v-.1zm-1.1 1.2h-1.7l.8.4.3.1.4-.3 2.2-.8v-.2zm.3-3v.5l-.8.9v-1.5h.8m-1.1 0v1.7l-.9.8v-.6l.6-.3.2-.1-.1-.3-.2-.3-.3.1-.2.1v-.3l.6-.6.2-.4h.1zm-1.1 1v.3l-.5.2.3-.2.5-1.4h.1zm0 1.1v.4l-.1-.1v-.3m0 .7-.2.1zm-1.2-.9.2-.9h.2zM42 55v-.2l.4-.1.4.1z" fill="#fbdd73" id="path5"/><path d="M14.6 11.8h30.6v30c0 6.1-6.6 5.2-9.7 5.2-2.4 0-3.5 0-5.6 1.9-2-1.9-3.1-2-5.5-2-3.2 0-9.8 1-9.8-5.2z" fill="#1f1a17" id="path6"/><path d="M44.3 43.5v.4l-.2.3-.2.3-.2.2-.2.3-.3.2-.2.2-.3.2-.6.2-.7.3-2.7.3h-2.9l-3 .1a7 7 0 0 0-2.9 1.6l-1-.8q-.6-.4-1.3-.6l-1-.3H21l-2.6-.3-.7-.3-.6-.2-.3-.2-.2-.2-.3-.2-.2-.3-.2-.2-.2-.3-.1-.3-.2-.4v-.4l-.2-.4V30.1h29.3v12.6l-.1.4z" fill="#de411a" id="path7"/><path d="M20.6 27.5h-5.4v-2.9l2.3.4q2.5 1 3.1 2.5m1-1.7.4.3q.5.2.8.6l.3.3.3.7-2.4-.2-.2-.4-.2-.3-.7-.8-1-.7h.8zm-2.1-.8h-1.3l-.5-.3h-.5l-.8-.3h-.6l-.6-.1v-1l1 .1q2.3.4 3.3 1.6m.4-1 .3.1.4.3.6.6.2.3v.1l-.4-.1-.6-.2h-.5l-.2-.4-.2-.2-.4-.3-.4-.3q-.3 0-.5-.3H18q1 0 1.9.4m-2.7-.8h-.4l-.6-.1h-1V22l.9.3q.7.3 1.1 1m.9-.6.4.1 1 .7.1.1h-.3l-1.4-.3h-.3l-.1-.2-.2-.2-.3-.3-.2-.2q.6 0 1.3.3m-1-.9.5.3v.1l-1.2-.2h-.3l-.3-.1-.6-.2v-.2a4 4 0 0 1 2 .3" fill="#fff" id="path8"/><path d="M15.2 29.5v-1.7a31 31 0 0 1 8.5.2l-.6-1.5-1.3-.9c-.2-.8-1-1.6-1.6-1.8q-.2-.5-.7-.9l-1-.5q-1.2-1.5-3.3-1.2v-8.8h29.4v17.1z" fill="#007cc3" id="path9"/><path d="M32.2 15q.4-.4.7 0t.6 1.1q.8.6 1.5.3.3 0 .7-.3.4-.4 0-.6l-.1-.1h.2l.1.1v.3l-.1.3v.4q.4.1 1-.4.4-.5.1-.7.3-.4.7-.4l-.4.2c-.2.6.4 1 .8.7.6.3 1.7-.2 2.1-.8q.4-.7-.2-1-.7-.5-.3-.8.2-.2.5-.2l-.4.2q-.2.4.1.7t.9 0q.4-.1.8-.5.2-.4.1-.7l-.3-.1-.2-.1.3-.1q.3 0 .3.3l-.2.6.3-.5v-.5h-4.7l-.4.2h.6q.2 0 .3.2v.5l-.2-.3c0-.5-.6-.4-.7-.4q-.4.2-.5.5s-.4.7 0 1c.4.2 1-.3 1-.3s-.1.3-.5.4q-.6 0-1-.5c-.2-.3.2 0-.4-.5-.5-.6-1.4-.5-1.4-.5l.4.1q.4.4.3.6 0-.3-.3-.4a2 2 0 0 0-1.5-.4c-.6.1-1 .7-1.2.8l-.6.4q-.5 0-.5-.2c.1-.2.3.1.5 0q.3 0 .5-.2L30 13q-1.6 0-2.1 1.2h3.4z" fill="#fff" id="path10"/><path d="M27 14.3v.8h.5v2q-.9.4-1.4 1.5-.5.8-.5 1.8h-.8v1h-.7V28h12v-6.7h-.8v-1h-.8a4 4 0 0 0-2.5-3.6v-1h.2V15l-1-.7z" fill="#1f1a17" id="path11"/><path d="M27.3 14.5H31v.4h-3.7zm3.2 2.3-.3-.1v-1.5h.4zm-.7-.2h-1.3v-1.4h1.4zm-1.7.1H28l-.2.2v-1.7h.4zm-2.3 3.8v-.6l.1-.2v-.3l.1-.1v-.1l.1-.1v-.2h.1v-.2l.1-.1.1-.1v-.1l.2-.2.1-.2h.1v-.2h.2v-.1l.2-.1v-.1h.2l.1-.2h.1l.1-.1h.1l.2-.1.2-.1h.2l.2-.1v.3l-.2.1h-.2l-.1.1-.2.1h-.1l-.1.2h-.1l-.2.1-.1.1v.1h-.1l-.1.2H27v.2h-.2v.2h-.1v.2h-.1v.2l-.1.1v.1h-.1v.4h-.1v.4l-.1.2v.8h-.8v1h-.7v5.9h-.4v-6.3h.7v-1zm4.2-3.6.2.1.2.1h.1l.1.1.1.1h.2v.2h.2v.1l.2.1v.1l.1.1.1.1.1.1v.1l.2.1v.1l.1.1v.1l.1.2.1.2v.1l.1.1v.2l.1.1v.3l.1.1v.7h.8v1h.8v6.3h-.4v-6H33v-1h-.8v-1.1l-.1-.2v-.2H32v-.2h-.1V19l-.1-.1-.1-.2-.1-.2-.1-.1-.1-.1-.1-.1-.1-.2H31l-.1-.2h-.2v-.1l-.2-.1h-.1l-.2-.2H30l-.2-.1h-.2v-.4zm-1 0h.4v11H29zm3 4.4h.7v1h.7v5.6h-1.1v-5.5l-.1-.1v-.1L32 22l-.1-.2h-.1l-.1-.1h-.1l-.1-.1h-.2l-.1-.1h-.5l-.2.1-.2.2-.1.1-.1.2-.1.2v5.5h-.4V17.5l.3.1.2.1h.1l.1.1h.1v.1l.2.1.1.1.2.2.2.2.1.2.1.2.1.2.1.1.1.2v.2l.1.2v.5zm-3.3-3.8V28h-.4v-5.7L28 22v-.2h-.2v-.1h-.2v-.1h-.2l-.2-.1h-.5l-.1.1h-.1l-.1.2-.2.1v.2h-.1v.2l-.1.1v5.4h-1v-5.6h.7v-1h.7v-1.1l.1-.2v-.2l.1-.2v-.1l.1-.2V19l.2-.1v-.1l.1-.2.1-.1.1-.1.1-.2h.1l.2-.2.1-.1.2-.1.1-.1h.1l.1-.1h.1z" fill="#fff" id="path12"/><path d="M36 27.7c2.9 0 5.7-2.1 8.6-2.2v1c-2.9 0-5.7 1.6-8.5 1.6zm8.6-6.4v1c-2.9 0-5.7 4.2-8.5 4.2v-.4c2.8 0 5.6-4.7 8.5-4.8m0 1.4v1c-2.9.1-5.7 3.3-8.5 3.3v-.3c2.8 0 5.6-3.9 8.5-4m0 1.4v1c-2.9.1-5.7 2.5-8.5 2.5v-.4c2.8 0 5.6-3 8.5-3" fill="#fff" id="path13"/><path d="M34.7 44.2v-1.5h-.6l-.3-.3h-.2l-.1-.2h-.2l-.1-.1h-.5l-.5-.2-.5-.2q-.3 0-.5-.4 0-.3.2-.5l.4-.2h.6l-.1-.4-.3-.4a13 13 0 0 0 4.1-1 13 13 0 0 0 3.3-2l.4-.3-.1-.3-.4-.4-.2-.1h-.3v-.5H40l-.2-.4-.3-.4-.6-.4v-.5h-18v.5l-.5.4-.3.4-.2.4H21v.4l-.4.2-.4.4-.1.3.3.3.7.6 2.7 1.5a13 13 0 0 0 4.1.9l-.3.4-.1.3.5.1q.3 0 .5.2.2.1.2.5-.2.3-.5.4l-.6.2-.5.1-.4.1h-.1l-.2.1-.2.1-.1.1-.3.3h-.6v1.5z" fill="#1f1a17" id="path14"/><path d="m28.3 42 .4-.3.2-.4v-.6l-.2-.1h2.5l-.2.1v.6l.2.4.3.2zm10.3-6.8v.4H21.3v-.4zm0-1q.4 0 .7.3l.3.5H20.3q0-.2.3-.5l.6-.3zm0-.5v.3H21.2v-.3zm-7 5.9a12 12 0 0 0 8-3.2l-.2-.2-.4-.3h-1a5 5 0 0 0-1.6 1.4l-1.3 1.1q-1.3.8-3.6 1.2m-.4-.2h.1c1-.1 1.2 0 2.1-.4 1.8-.6 2.1-1 2.7-1.5l1-1.1c.5-.7-.9-.8-1.3-.3l-.9 1.1q-.6 1-1.9 1.7l-1.7.5m-.4 0h.2l1.7-.5c1.3-.5 1.4-1 2-1.5l.8-1c.4-.7-.9-.7-1.1-.3-.6.8-.6 1.2-1.3 1.9q-.8.8-2.2 1.3m-.4-.2h.1l1.3-.4a4 4 0 0 0 1.7-1.4l.6-1c.3-.7-1-.8-1.2-.3-.3.7-.3 1-.9 1.7a4 4 0 0 1-1.5 1.4m-.3 0q.6-.1.8-.4 1-.8 1.3-1.4l.5-1c.3-.7-1-.8-1.3-.1l-.5 1.5-.7 1.4zm-.1 0a9 9 0 0 0 1.2-2.8c.2-.7-1-.9-1.1 0zM28 40.2h4l-.2-.2-1-.7H29l-1 .7zm4.8 2q.6 0 1 .3h.1-7.6.2l1-.4zm1.9.6v.3h-9v-.3zm0 .5v.6h-9.1v-.6zm-6.1-3.8a12 12 0 0 1-8-3.2V36l.5-.3h1l1.6 1.4q.5.6 1.3 1.1 1.3.8 3.6 1.2m.3-.2h-.2c-.9-.1-1.1 0-2-.4-1.8-.6-2.1-1-2.7-1.5l-1-1.1c-.5-.7.8-.8 1.2-.3l1 1.1q.6 1 1.8 1.7l1.7.5zm.3 0c-.8-.2-1.1-.2-1.8-.5-1.3-.5-1.4-1-2-1.5l-.8-1c-.4-.7.9-.7 1.1-.3.5.8.6 1.2 1.3 1.9q.8.8 2.1 1.3zm.5-.2-1.3-.4q-1.4-.8-1.7-1.4l-.6-1c-.3-.7 1-.8 1.1-.3.4.7.4 1 1 1.7q.4.8 1.5 1.4m.3 0q-.4-.1-.7-.4-1-.8-1.4-1.4l-.4-1c-.3-.7 1-.8 1.3-.1l.5 1.5q.2.8.7 1.4m.1 0a9 9 0 0 1-1.3-2.8c-.2-.7 1.2-.9 1.2 0z" fill="#007436" id="path15"/></g></g><g id="g29" fill="#f8d407"><g id="g23"><path d="M99.2 160.8v-35.3h1.2V196h-1.2z" fill-rule="evenodd" id="path16"/><path id="rect16" d="M97.2 402.6h5V600h-5z"/><g fill-rule="evenodd" id="g22"><path d="M86.1 157.2v-29.9h1.2V187h-1.2z" id="path17"/><path d="M69 154.2v-20.8h1.2V175H69z" id="path18"/><path d="M55 154v-11.7h1.2v23.4H55z" id="path19"/><path d="M113.5 156.7v-29.9h-1.2v59.7h1.2z" id="path20"/><path d="M130.7 153.7V133h-1.2v41.4h1.2z" id="path21"/><path d="M144.8 153.5V142h-1.2v23.3h1.2z" id="path22"/></g></g><g fill-rule="evenodd" id="g25"><path d="M96.2 264.9C55.1 236.6 78 253 61 240.9l-31-22v-27.8c0-31-.1-26.6 1.5-25.1 3.6 3 22.6 14.6 26 17.1 10.7 7.7 23.7 14.7 33 22l5.4 4-.2 29c.3 11 .7 23.2.6 26.7" id="path23"/><path d="M95.8 331.4c-41.1-28.3-18.3-11.8-35.3-23.9l-31-22v-27.8c0-31-.1-26.6 1.5-25.1 3.6 3 22.6 14.6 26 17.1 10.7 7.7 23.7 14.7 33 21.9l5.4 4.1-.2 29c.3 11 .7 23.2.6 26.7" id="path24"/><path d="M95.5 398.4c-41.1-28.3-18.3-11.8-35.4-23.9l-31-22v-27.8c0-31 0-26.6 1.6-25.2 3.6 3.1 22.5 14.7 26 17.2 10.7 7.6 23.7 14.7 33 21.9l5.4 4-.2 29c.3 11.1.7 23.3.6 26.8" id="path25"/></g><g fill-rule="evenodd" id="g28"><path d="M104 265.5c41.2-28.3 18.3-11.8 35.4-24l31-22v-27.7c.1-31 .2-26.6-1.5-25.2-3.6 3-22.6 14.7-26 17.2-10.7 7.6-23.8 14.7-33.1 21.8l-5.4 4.2.2 29c-.3 11-.7 23.1-.6 26.7" id="path26"/><path d="M104.4 332c41.2-28.2 18.4-11.7 35.4-23.8l31-22v-27.8c.1-31 .2-26.6-1.5-25.2-3.6 3-22.6 14.7-26 17.2-10.7 7.6-23.8 14.7-33.1 21.8l-5.4 4.2.2 29c-.3 11-.7 23.1-.6 26.7" id="path27"/><path d="M104.8 399c41.1-28.2 18.3-11.7 35.4-23.8l31-22v-27.9c0-31 .1-26.6-1.6-25.1-3.5 3-22.5 14.6-26 17.1-10.7 7.7-23.7 14.7-33 22l-5.4 4 .1 29c-.3 11-.7 23.2-.5 26.8" id="path28"/></g></g><!-- app4joy --></svg>