<svg width="218.57" height="148.63" clip-rule="evenodd" fill-rule="evenodd" image-rendering="optimizeQuality" shape-rendering="geometricPrecision" text-rendering="geometricPrecision" viewBox="0 0 218.57 148.63" id="svg134" xmlns="http://www.w3.org/2000/svg"><g id="g464"><path id="rect1" d="M0 0h218.6v148.6H0z" fill="#1D82B3"/></g><g id="g463"><path id="polygon1" d="m127.8 89.1.5-.3.6-.3.5-.3.5-.3.4-.3.5-.4.3-.4.1-.2.1-.2.2-.1h.1v-.1h.1l.1-.1.1-.1v-.1l.1-.1v-.1l.1-.1v-2h.5l.1-.1h.1v-.1h.1v-.1l.1-.1.1-.1.1-.2.1-.1.1-.1v-.2l.1-.3.1-.2v-.2l.1-.2v-.5l.1-.2v-.2l-.1-.1v-.4l-.1-.1v-.2l-.1-.2-.1-.2-1.3-1.8v-.6h.4l.2-.1h.1l.1-.1.2-.1.1-.1.1-.1.1-.1v-.1l.1-.1v-.1l.1-.3.1-.2v-.4l-.1-.1-.1-.1V75l-.1-.1-.1-.1-.1-.1-.1-.1-.1-.1-.1-.1-.2-.1-.1-.1-1.1-.5 1.3-.2.3-.1.3-.1.3-.1h.2l.3-.1.3-.1.2-.1.3-.2.2-.1.3-.2.3-.2.2-.2.3-.2.3-.2.3-.2.2-.3.3-.2.2-.2.3-.2.2-.3.2-.2h.1v-.1h.1l.1-.1v-.1l.2-.1h.8l.2-.1h.1l.2-.1h.1l.1-.1.2-.1.1-.1.1-.1.1-.1.2-.2.1-.1.1-.1.1-.2.1-.1.1-.2.2-.2.1-.2.1-.3.1-.2.1-.2.1-.2v-.3l.1-.2v-.6l-.1-.2v-.1l-.1-.2-.2-.2.1-.3h.1v-.2l.1-.1.4-1.7v-.4l.1-.2v-.2l.1-.2v-.2l.1-.2v-.3l.1-.2.1-.2v-.2l.1-.3.1-.2v-.2l.1-.2.1-.2V59l.1-.2.1-.2.1-.3.1-.3.2-.3.1-.2.1-.3.2-.3.1-.3.1-.3.2-.5.1-.2.2-.4.4-.7v-.1l-.3-.2h-.2l-.1-.1h-.3l-.7-.1.4-.7.1-.3.1-.2.1-.4.1-.3v-.6l-.1-.3-.1-.3-.1-.3-.1-.3-.2-.3-.1-.2-.3-.2-.2-.2-.2-.2-.3-.2-.3-.1-.2-.1-.6-.2.5-.5.2-.2.1-.2.2-.2.1-.3.1-.3.1-.2v-1.2l-.1-.3-.1-.3-.1-.2-.2-.3-.1-.2-.2-.2-.2-.2-.3-.2-.2-.1-.3-.1-.2-.1-.3-.1-.6-.1.5-.7.1-.3.2-.2v-.3l.1-.2.1-.3v-.5l-.1-.3-.1-.3v-.2l-.2-.3-.1-.2-.2-.2-.1-.2-.2-.2-.2-.1-.3-.2-.2-.1-.2-.1h-.3l-.3-.1h-.3l-.8.1.5-.7.1-.2V37l.1-.2v-.3l.1-.2-.1-.3v-.2l-.1-.2v-.3l-.1-.2-.2-.2-.1-.2-.2-.2-.1-.1-.2-.2-.2-.1-.3-.1-.2-.1h-.2l-.3-.1h-.5l-.2.1-.8.1.2-.7v-.2l.1-.2-.1-.3v-.5l-.1-.2-.1-.2-.2-.2-.1-.2-.2-.2-.1-.1-.2-.2-.2-.1-.2-.1-.2-.1h-.3l-.2-.1h-.5l-.3.1h-.2l-.6.3v-.9l-.1-.2-.1-.2-.1-.2-.1-.1-.1-.2-.1-.2-.2-.1-.2-.1-.1-.1-.2-.1-.2-.1h-.2l-.2-.1h-.5l-.2.1h-.2l-.2.1-.6.3-.1-.7-.1-.2-.1-.2-.1-.2-.1-.2-.1-.2-.1-.1-.2-.2-.2-.1-.1-.1-.2-.1-.2-.1h-.4l-.3-.1-.2.1h-.4l-.2.1-.2.1-.6.4-.2-.6v-.1l-.1-.2-.1-.2-.1-.1-.1-.1-.2-.2-.1-.1-.2-.1-.2-.1h-.1l-.2-.1h-.8l-.2.1h-.2l-.1.1-.2.1-.4.3-.2-.5-.1-.2-.1-.2-.1-.1-.1-.1-.1-.1-.2-.1-.1-.1-.2-.1-.2-.1h-.1l-.2-.1h-.4l-.2.1h-.2l-.1.1-.2.1-.5.3-.3-.5-.1-.2-.1-.1-.1-.1-.2-.1-.1-.1-.2-.1-.1-.1h-1.1l-.6.3v-.7l-.1-.2v-.3l-.1-.5h.1l-.1-.3-.2-.3-.1-.4-.1-.3-.2-.3-.2-.2-.2-.3-.2-.3-.2-.2-.2-.2-.3-.2-.3-.2-.3-.2-.2-.2-.5-.2-.1-.2v-.3l-.1-.2v-.2l-.1-.2v-.2l-.3-.8.9.2.3.1.4.1.3.1h.3l.2.1.3.1h.1l.2.1.4.1v-4l-.4.1h-.2l-.1.1h-.3l-.2.1-.3.1-.3.1-.4.1-.3.1-.9.2.2-.7.1-.2v-.3l.1-.3V12l.1-.2v-.3l.1-.2.1-.4h-4.1l.1.4.1.2v.3l.1.2v.2l.1.3.1.3v.2l.2.7-.9-.2-.3-.1-.3-.1-.4-.1-.2-.1-.3-.1h-.2l-.2-.1h-.2l-.4-.1v4l.4-.1.2-.1h.2l.2-.1.3-.1h.2l.3-.1.4-.1.3-.1.9-.2-.3.8v.2l-.1.2v.2l-.1.2v.3l-.1.2-.4.2-.3.2-.3.2-.3.2-.2.2-.3.2-.2.2-.2.3-.2.3-.2.2-.2.3-.1.3-.1.4-.1.3h-.1v.3l-.1.5v.5l-.1.7-.6-.3h-1.1l-.1.1-.2.1-.1.1-.2.1-.1.1-.1.1-.1.2-.3.5-.5-.3-.2-.1-.1-.1h-.2l-.2-.1h-.4l-.2.1h-.1l-.2.1-.2.1-.1.1-.1.1-.2.1-.1.1-.1.1-.1.2-.1.2-.2.5-.4-.3-.2-.1-.1-.1h-.2l-.2-.1h-.8l-.2.1H95l-.2.1-.2.1-.1.1-.2.2-.1.1-.1.1-.1.2-.1.2v.1l-.2.6-.6-.4-.2-.1-.2-.1h-.4l-.2-.1-.3.1h-.4l-.2.1-.2.1-.1.1-.2.1-.2.2-.1.1-.1.2-.1.2-.1.2-.1.2-.1.2-.1.7-.6-.3-.2-.1h-.2l-.2-.1h-.5l-.2.1h-.2l-.2.1-.2.1-.1.1-.2.1-.2.1-.1.2-.1.2-.1.1-.1.2-.1.2-.1.2v.9l-.6-.3h-.2l-.3-.1h-.5l-.2.1h-.3l-.2.1-.2.1-.2.1-.2.2-.1.1-.2.2-.1.2-.2.2-.1.2v.2l-.1.3v.2l-.1.3.1.2v.2l.2.7-.8-.1-.2-.1h-.5l-.3.1h-.2l-.2.1-.3.1-.2.1-.1.2-.2.1-.2.2-.1.2-.2.2-.1.2v.3l-.1.2v.2l-.1.3.1.2v.3l.1.2v.3l.1.2.5.7-.8-.1h-.3l-.3.1h-.2l-.3.1-.2.1-.3.2-.2.1-.2.2-.1.2-.2.2-.1.2-.2.3v.2l-.1.3-.1.3v.5l.1.3.1.2v.3l.2.2.1.3.6.7-.7.1-.3.1-.2.1-.3.1-.2.1-.3.2-.2.2-.2.2-.1.2-.2.3-.1.2-.1.3-.1.3v1.2l.1.2.1.3.1.3.2.2.1.2.2.2.5.5-.6.2-.2.1-.3.1-.3.2-.2.2-.2.2-.2.2-.2.2-.2.3-.1.3-.1.3-.1.3-.1.3v.6l.1.3.1.4.1.2.1.3.4.7-.7.1h-.3l-.1.1h-.2l-.3.2v.1l.4.7.2.4.1.2.2.5.1.3.1.3.2.3.1.3.1.2.2.3.1.3.1.3.1.2.1.2v.2l.1.2.1.2.1.2v.2l.1.3v.2l.1.2.1.2v.3l.1.2v.2l.1.2v.2l.1.2v.4l.4 1.7.1.1v.2h.1l.1.3-.2.2v.2l-.1.1-.1.2v.6l.1.2v.3l.1.2.1.2.1.2.1.3.1.2.2.2.1.2.1.1.1.2.1.1.1.1.2.2.1.1.1.1.1.1.2.1.1.1h.1l.2.1h.1l.2.1h.8l.2.1v.1l.1.1h.1v.1h.1l.2.2.2.3.3.2.2.2.3.2.2.3.3.2.3.2.3.2.2.2.3.2.3.2.2.1.3.2.2.1.3.1.3.1h.3l.2.1.3.1.3.1 1.3.2-1.1.5-.1.1-.2.1-.1.1-.1.1-.1.1-.1.1-.1.1-.1.1v.1l-.1.1-.1.1v.4l.1.2.1.3v.1l.1.1v.1l.1.1.1.1.1.1.2.1.1.1h.2l.1.1h.4v.6l-1.3 1.8-.1.2-.1.2v.2l-.1.1v1.2l.1.2v.4l.1.2.1.3v.2l.1.1.1.1.1.2.1.1.1.1v.1h.1v.1h.1l.1.1h.5v2l.1.1v.1l.1.1.1.1v.1l.1.1h.1v.1h.1l.2.1.1.2.1.2.3.4.5.4.4.3.5.3.5.3.6.3.5.3.7.2.6.2.7.2.6.2.7.2.7.1.7.1.8.2.7.1h.7l.7.1.8.1h.7l.7.1h2l.6.1h3.6l1 .1h4.1l1-.1h3.6l.6-.1h2l.7-.1h.7l.8-.1.7-.1h.7l.7-.1.8-.2.7-.1.7-.1.7-.2.6-.2.7-.2.6-.2z" fill="#0A0B0C"/><path d="M138.5 51.8q.1-2 1.9-2.9a2.9 2.9 0 0 1-1.2-5.4h-.6a2.7 2.7 0 0 1-1.9-4.5l-.2-.3h-.4a2.4 2.4 0 0 1-2.2-3.4l-.3-.3-1 .2a2.4 2.4 0 0 1-2.3-2.8l-.2-.2-1 .3c-1.1 0-2-1-2-2.1v-.2l-.4-.1a2 2 0 0 1-1.3.4c-1.1 0-2-1-2-2.1v-.1l-.2-.1a1.9 1.9 0 0 1-3.3-1.3v-.2a1.8 1.8 0 0 1-3.3-.7 1.8 1.8 0 0 1-3.1-.8c-.9 1.7-2.7 3-4.7 3s-3.7-1.2-4.6-2.8q-.4 1.3-1.7 1.4-1 0-1.4-.8-.4 1.4-1.8 1.5-1 0-1.5-.9v.3c0 1-.8 1.9-1.9 1.9q-.8 0-1.4-.7l-.1.1v.2a2 2 0 0 1-3.5 1.6l-.2.2v.2c0 1.1-1 2-2.1 2l-1-.2h-.2v.7q-.2 2.1-2.3 2.3-.6 0-1.1-.2l-.2.2q.3.5.3 1a2.4 2.4 0 0 1-3 2.4l-.2.3a2.7 2.7 0 0 1-2.4 4.5 2.9 2.9 0 0 1-1.2 5.5q1.8.8 2 3c0 1.3-1 2.4-2.2 2.9q.5-.2 1-.1c1 .2 1.9.8 2 .8v.1c-.1.1-1.6 1-2 1.7q-1 1.6-.5 2.5.3.4 1 .5.5 0 .8-.3c.5-.5 1.4-2.4 1.4-2.4v-.2l.1.1s.7.7 1 1.3l-.2-3.4q-.2-4.6.6-8.7c.3-2 1.4-5.3 2.4-7.3s4.3-5.3 6.2-6.6a44 44 0 0 1 11.8-5.9v.2s-5.7 3.1-7.2 4.6a30 30 0 0 0-6.8 9.4A28 28 0 0 0 87 54.7c.2 2.3 1.3 7 2 9.4l.9-.3c.9 0 2 .5 2.2.6l.5-.7a2.8 2.8 0 0 1-3.8-2.6 2.8 2.8 0 0 1 5.2-1.6 43 43 0 0 1-.2-14.4 27 27 0 0 1 4.4-9.5c1.6-2 5-5 6.6-6.6q-.3.3-.7.3a1.4 1.4 0 1 1 1.4-1.5q0 .6-.3 1l.6-.7.3-.2v.3l-2.4 7.7-.2 1q-.7 1.9-1 5a51 51 0 0 0-.2 9.2q.7-.4 1.5-.4l2.3.1a9 9 0 0 1 2.6-3.8h.1l1.7 1.9 1 2 2.2-.2q.8 0 1.6.4v-.9q.2-4.6-.2-8.3-.4-3.1-1-5l-.3-1-2.2-7.7-.2-.3.3.2s5.5 4.9 7.7 7.5c2.1 2.8 4 7.6 4.4 9.5a43 43 0 0 1-.3 15 2.8 2.8 0 1 1 2.6 3.8q-.8 0-1.4-.4l.7.9c.3-.1 1.4-.6 2.3-.6l.9.3c.6-2.4 1.8-7 2-9.4v-3.3q0-5.8-1.7-10.3a30 30 0 0 0-6.9-9.4 50 50 0 0 0-7-4.6l.1.7a1.4 1.4 0 1 1-.2-.8v-.1s5.6 1.6 11.7 5.9c2 1.3 5.2 4.6 6.2 6.6a32 32 0 0 1 2.8 19.3l1-1.2h.1s1 2 1.5 2.5 1.3.3 1.8-.2 0-1.6-.5-2.5c-.5-.7-2-1.6-2-1.6h-.1l.1-.2s1-.6 2-.8q1 0 1.8.4v-.2a3 3 0 0 1-2.8-3m-48.1-3.7a2.5 2.5 0 1 1 0 4.9 2.5 2.5 0 0 1 0-5m.2 10.2a2.6 2.6 0 1 1 0-5.2 2.6 2.6 0 0 1 0 5.2M91 48a2.3 2.3 0 1 1 0-4.6 2.3 2.3 0 0 1 0 4.6m1.2-4.5a2.2 2.2 0 1 1 0-4.4 2.2 2.2 0 0 1 0 4.4m2-3.8a2 2 0 1 1 0-4 2 2 0 0 1 0 4m4.9-6q-.7-.1-1.2-.5a1.8 1.8 0 0 1-1.3 3 1.8 1.8 0 0 1 0-3.6q.8 0 1.2.4a1.7 1.7 0 0 1 1.3-2.8 1.7 1.7 0 0 1 0 3.4m4-4a1.5 1.5 0 1 1-3 0 1.5 1.5 0 0 1 3 0m8.5 16h-5.8v-7h5.7zm0-15.4h.2v6.9H106v-7zm15.6 28a2.6 2.6 0 1 1 0-5.2 2.6 2.6 0 0 1 0 5.2m.3-5.3a2.5 2.5 0 1 1 0-5 2.5 2.5 0 0 1 0 5m1.8-7.3a2.3 2.3 0 1 1-4.6 0 2.3 2.3 0 0 1 4.6 0m-1.4-4.4a2.2 2.2 0 1 1-4.4 0 2.2 2.2 0 0 1 4.4 0m-2.2-3.6a2 2 0 1 1-4 0 2 2 0 0 1 4 0m-5-5.8q-.1.6-.5 1.1.4-.4 1.2-.4a1.8 1.8 0 1 1-1.8 1.8q0-.7.4-1.2-.5.4-1.1.4a1.7 1.7 0 1 1 1.7-1.7m-4.4-3.7a1.5 1.5 0 1 1 0 3 1.5 1.5 0 0 1 0-3" id="path1" fill="#EB8A1B"/><path d="M101.6 38.7a65 65 0 0 1 3.5-9.1l-3.2 3.1a27 27 0 0 0-5.8 9q-.7 2-1 4 2.7-.9 5.7-1.4z" id="path2" fill="#1D82B3"/><path d="M88.5 41q1.6-4.2 6.9-9.4c1-1 3.9-2.8 5.7-3.8a48 48 0 0 0-11.4 6.9A21 21 0 0 0 83.1 52q1.8-1.5 3.6-2.5.3-4.7 1.8-8.6" id="path3" fill="none"/><path d="M88.5 41q1.6-4.2 6.9-9.4c1-1 3.9-2.8 5.7-3.8a48 48 0 0 0-11.4 6.9A21 21 0 0 0 83.1 52q1.8-1.5 3.6-2.5.3-4.7 1.8-8.6" id="path4" fill="#1D82B3"/><path d="M134.5 50.7a21 21 0 0 0-6.7-16 48 48 0 0 0-11.3-7c1.8 1.1 4.6 2.9 5.7 3.9q5.3 5.3 6.9 9.4 1.5 3.9 1.7 8.6 2 1.1 3.6 2.5z" id="path5" fill="#1D82B3"/><path d="M121.5 41.7a27 27 0 0 0-5.9-9l-3.1-3.1a65 65 0 0 1 3.4 9q.6 2.7.9 5.7 3 .5 5.6 1.4-.3-2-1-4" id="path6" fill="#1D82B3"/><g fill="#00A13A" id="g10"><path d="M86.7 51.4v-1.8L83.1 52v.7a65 65 0 0 0 1 8h1.7v.1l.2 1.5v.7l-.7 1.3c.2 0 .9.6 1.1 1.1s.3 2 .3 2v.1h-.2l-1.5-.2q-1.3.2-1.4 1 0 1 .8 1.9 1 .8 2 .7c1 0 3.7-.3 3.7-1.9q0-2.5-.6-2.6l-2-1.4-.1-.1 1.4-.9c-.7-2.4-1.8-7-2-9.3z" id="path7"/><path d="M122.5 56.3a44 44 0 0 0 0-10.6q-2.9-.9-5.7-1.4a45 45 0 0 1 0 7.7h.1v.1l-1 5.6c1.2-.3 2-1.5 2-1.5V56h.1s.6.7.8 1.7a3 3 0 0 1-.2 1.6l.8.7.8 1.6L118 63l-.2 1.9c0 1-1.3 1.4-1.3 1.4h-.1l-1-1.7q-.7-.7-1.6-.6h-.1q-.9 0-1 1.5.2 1.5 1.7 2.6 1.2.8 3.5.5c1.4-.2 2.2-1.2 2.9-2.2s.3-3.7.3-3.8h.4c.2-1 .8-3.5 1-5.3z" id="path8"/><path d="M100.8 44.3q-3 .5-5.7 1.4a35 35 0 0 0 0 10.6v1c.2 1.8.7 4.3 1 5.2h.3v.1s-.4 2.7.4 3.8c.6 1 1.5 2 2.8 2.2q2.3.3 3.5-.5 1.6-1 1.7-2.6-.1-1.5-1-1.5c-.5 0-1.4 0-1.7.6l-1 1.7c-.1 0-1.3-.5-1.4-1.4l-.1-1.9-2.3-1.2v-.1L98 60l.9-.7a3 3 0 0 1-.2-1.6c.1-1 .7-1.6.7-1.6l.1-.1s.8 1.3 2.1 1.6l-1-5.6a35 35 0 0 1 0-7.7" id="path9"/><path d="M134.4 52q-1.7-1.3-3.6-2.4v5.2a73 73 0 0 1-2 9.3l1.2.8.2.1h-.2l-2 1.5q-.5.1-.5 2.6c0 1.6 2.6 2 3.6 2q1 .1 2-.8t.9-1.8-1.4-1l-1.6.1h-.1v-.1s0-1.5.2-2 1-1 1.1-1.1l-.6-1.3-.1-.7.2-1.5 1.7-.1c.3-1.2.6-3.5 1-8z" id="path10"/></g><g fill="#EB8A1B" id="g13"><path d="M93.6 68 92 71.2q-.9 1.3-2.5 1.9 3-.7 6.1-1.2l2.9-.4 1.3-.2a10 10 0 0 1-6.2-3.3" id="path11"/><path d="m125.6 71.2-1.7-3.2a10 10 0 0 1-6.2 3.3l1.4.2 2.8.4q3.2.4 6.1 1.2-1.7-.6-2.4-2" id="path12"/><path d="M108.8 66.2c-.3.5-1.6 2-2.9 3q-1.3 1.1-2.6 1.7a50 50 0 0 1 11 0q-1.4-.6-2.7-1.6c-1.3-1-2.5-2.6-2.8-3" id="path13"/></g><g fill="#FFF500" id="g19"><path d="M113.2 16.4v-3.3l-3.4 1 .6-3H107l.8 3-3.5-1v3.7l3.4-1.3-.7 2.6q.9-.4 1.9-.4t1.6.3l-.6-2.5z" id="path14"/><path d="m116.6 52.3-1.2.6q-.4 3.1-.8 4.5v.3h1z" id="path15"/><path d="M124 51.3c0-2.4-.1-4.9-.4-6.2a29 29 0 0 0-4.4-9.3 82 82 0 0 0-7.4-7.3c.5 1.3 2 6.2 2.2 7.4l.3 1q.6 1.8 1 5a58 58 0 0 1 .2 9.3q.9.4 1.1.7a34 34 0 0 0-.9-13.2c-.7-3.1-3.6-9.5-3.7-9.6h.2l3.6 3.5a29 29 0 0 1 5.9 9c1.3 4 1.3 8 1.3 9.8 0 2 0 3.2-.3 5v1c-.2 1.8-.8 4.2-1 5.2l1.2.1z" id="path16"/><path d="M135.1 46.8a32 32 0 0 0-2.4-7.3c-1-2-4.2-5.2-6.2-6.6a47 47 0 0 0-8.7-4.7 45 45 0 0 1 10.2 6.3 22 22 0 0 1 6.6 18.4 69 69 0 0 1-1 7.9h1.5q.4-2.1.5-5.4.1-4.7-.5-8.6" id="path17"/><path d="M102 57.7h1v-.3q-.5-1.3-.8-4.5l-1.2-.6z" id="path18"/><path d="M102 47.8q0-3.2.3-6 .4-3 1-5l.2-1 2.2-7.3a83 83 0 0 0-7.3 7.3A29 29 0 0 0 94 45a35 35 0 0 0-.4 9.2l.9 6.8v.3l.1 1.3 1.2-.1c-.2-1-.7-3.4-.9-5.3v-1l-.4-5c0-1.6 0-5.7 1.4-9.7 1.3-3.8 4.4-7.6 6-9l3.4-3.6.2.1c0 .1-3 6.5-3.7 9.6a34 34 0 0 0-1 13.1l1.3-.6z" id="path19"/></g><g fill="#EB8A1B" id="g25"><path d="m93.8 63 .6-.2V62z" id="path20"/><path d="m115.1 53-.7.4c-.5.3-1.3 1.5-1.3 2.1 0 .5.2 1.7 1.3 2v-.2q.4-1.3.7-4.3" id="path22"/><path d="m123.3 61.4-.2 1.4 1 .3q-.6-.6-.8-1.7" id="path23"/><path d="M103.2 57.6c1-.5 1.3-1.6 1.3-2 0-.7-.9-2-1.4-2.2l-.7-.4q.3 3.1.7 4.3z" id="path25"/></g><path d="M82.9 50.7c0-7.5 3.3-13.2 6.7-16.2 3.2-2.8 7.4-5 10.1-6.3-2.1.9-5.3 2.4-8.6 4.7-2 1.4-5.2 4.6-6.2 6.6a32 32 0 0 0-2.4 21.2H84a69 69 0 0 1-1.1-10" id="path26" fill="#FFF500"/><g fill="white" id="g70"><path d="M102.5 26.6q1.3-.2 1.6-1.5-.3-.4-.4-1.2a1.6 1.6 0 0 0-2.8 1v.1l.2.7q.5.8 1.4.9" id="path31"/><path d="M99.3 27.3a1.6 1.6 0 1 0 0-3.1 1.6 1.6 0 0 0 0 3.1" id="path32"/><path d="M96 28.6a1.7 1.7 0 1 0 0-3.4 1.7 1.7 0 0 0 0 3.4" id="path33"/><path d="M92.3 30.3a1.9 1.9 0 1 0 0-3.8 1.9 1.9 0 0 0 0 3.8" id="path34"/><path d="M88.6 32.3a1.9 1.9 0 1 0 0-3.8 1.9 1.9 0 0 0 0 3.8" id="path35"/><path d="M85 35a2.2 2.2 0 1 0 0-4.3 2.2 2.2 0 0 0 0 4.3" id="path36"/><path d="M81.6 38.5a2.2 2.2 0 1 0 0-4.4 2.2 2.2 0 0 0 0 4.4" id="path37"/><path d="M79 43.3a2.5 2.5 0 1 0 0-5 2.5 2.5 0 0 0 0 5" id="path38"/><path d="M80 46a2.7 2.7 0 1 0-5.4 0 2.7 2.7 0 0 0 5.4 0" id="path39"/><path d="M76.1 54.7a3 3 0 1 0 0-5.8 3 3 0 0 0 0 5.8" id="path40"/><path d="M113.6 25q.1 1.5 1.6 1.6 1 0 1.4-1l.2-.6q-.1-1.5-1.6-1.6-1 0-1.4.9l-.1.4z" id="path41"/><path d="M116.8 25.8a1.6 1.6 0 1 0 3.2 0 1.6 1.6 0 0 0-3.2 0" id="path42"/><path d="M120.1 27a1.7 1.7 0 1 0 3.4-.1 1.7 1.7 0 0 0-3.4 0" id="path43"/><path d="M123.5 28.4a1.9 1.9 0 1 0 3.8 0 1.9 1.9 0 0 0-3.8 0" id="path44"/><path d="M129.1 28.5a1.9 1.9 0 1 0 0 3.8 1.9 1.9 0 0 0 0-3.8" id="path45"/><path d="M130.5 32.9a2.2 2.2 0 1 0 4.3 0 2.2 2.2 0 0 0-4.3 0" id="path46"/><path d="M133.8 36.3a2.2 2.2 0 1 0 4.5 0 2.2 2.2 0 0 0-4.5 0" id="path47"/><path d="M136.2 40.8a2.5 2.5 0 1 0 5 0 2.5 2.5 0 0 0-5 0" id="path48"/><path d="M143 46a2.7 2.7 0 1 0-5.3 0 2.7 2.7 0 0 0 5.4 0" id="path49"/><path d="M144.5 51.8a3 3 0 1 0-5.8 0 3 3 0 0 0 5.8 0" id="path50"/><path d="M94.3 61.1a2.6 2.6 0 1 0-5.3 0 2.6 2.6 0 0 0 5.3 0" id="path51"/><path d="M90.6 53.3a2.4 2.4 0 1 0 0 4.8 2.4 2.4 0 0 0 0-4.8" id="path52"/><path d="M90.4 52.8a2.3 2.3 0 1 0 0-4.6 2.3 2.3 0 0 0 0 4.6" id="path53"/><path d="M93 45.7a2.2 2.2 0 1 0-4.3 0 2.2 2.2 0 0 0 4.3 0" id="path54"/><path d="M92.1 39.3a2 2 0 1 0 0 4 2 2 0 0 0 0-4" id="path55"/><path d="M94.2 35.8a1.9 1.9 0 1 0 0 3.7 1.9 1.9 0 0 0 0-3.7" id="path56"/><path d="M96.5 32.7a1.7 1.7 0 1 0 0 3.4 1.7 1.7 0 0 0 0-3.4" id="path57"/><path d="M99 30.3a1.6 1.6 0 1 0 0 3.2 1.6 1.6 0 0 0 0-3.2" id="path58"/><path d="M101.6 28.3a1.4 1.4 0 1 0 0 2.9 1.4 1.4 0 0 0 0-2.9" id="path59"/><path d="M104 29.2a1.3 1.3 0 1 0 0-2.7 1.3 1.3 0 0 0 0 2.7" id="path60"/><path d="M126.1 63.7a2.6 2.6 0 1 0 0-5.2 2.6 2.6 0 0 0 0 5.2" id="path61"/><path d="M127.1 53.3a2.4 2.4 0 1 0 0 4.8 2.4 2.4 0 0 0 0-4.8" id="path62"/><path d="M127.4 48.2a2.3 2.3 0 1 0 0 4.6 2.3 2.3 0 0 0 0-4.6" id="path63"/><path d="M126.9 47.9a2.2 2.2 0 1 0 0-4.3 2.2 2.2 0 0 0 0 4.3" id="path64"/><path d="M125.6 43.3a2 2 0 1 0 0-4 2 2 0 0 0 0 4" id="path65"/><path d="M123.6 39.5a1.9 1.9 0 1 0 0-3.7 1.9 1.9 0 0 0 0 3.7" id="path66"/><path d="M121.3 36a1.7 1.7 0 1 0 0-3.3 1.7 1.7 0 0 0 0 3.4" id="path67"/><path d="M118.8 33.5a1.6 1.6 0 1 0 0-3.2 1.6 1.6 0 0 0 0 3.2" id="path68"/><path d="M116.2 31.2a1.4 1.4 0 1 0 0-2.9 1.4 1.4 0 0 0 0 2.9" id="path69"/><path d="M113.7 26.5a1.3 1.3 0 1 0 0 2.7 1.3 1.3 0 0 0 0-2.7" id="path70"/></g><path d="M108.8 23.6h5l-.2-1.9H110v-3.6l-1.1-.2-1.4.2v3.6H104a5 5 0 0 0 0 2z" id="path71" fill="#EB8A1B"/><g fill="#FFF500" id="g74"><path d="M108.8 23.8h-5a5 5 0 0 0 5 4.1 5 5 0 0 0 4.9-4z" id="path72"/><path d="M110.1 18.1v3.4h3.5a5 5 0 0 0-3.5-3.4" id="path73"/><path d="M107.2 18.2a5 5 0 0 0-3.2 3.3h3.2z" id="path74"/></g><path d="m143.3 54.5-1.5 1h-.2s-1.2-.8-2.1-.6l-1.7.7c.3.2 1.4 1 1.8 1.6q.7 1 .8 2 0 .5-.3.8c-.5.5-1.5.7-2 .2s-1.2-2-1.4-2.4c-.3.2-1 1-1 1.4l-.2 1.6v.1l-3.6.1-.2 1.4v.6l.8 1.4s-1 .7-1.2 1.2l-.2 1.8 1.5-.2q1.5.2 1.6 1.3a3 3 0 0 1-.9 2 3 3 0 0 1-2.1.8s-4 0-4-2.2c0-1.9.4-2.5.7-2.8l2-1.3c-.4-.2-1.4-1-2.2-1-1 0-2.3.6-2.3.6h-.1s-.5-1-1.6-1.5c-1-.3-2.1-.4-2.4-.4l.1 1.6q.1 1.2-.4 2.2-1 1.7-3 2.3-2.4.3-3.7-.6c-1-.6-1.7-1.8-1.7-2.7q.1-1.7 1-1.7h.2c.5 0 1.5 0 1.8.7l.9 1.6c.2-.1 1-.5 1.2-1.2v-2l2.3-1.2c0-.2-.5-1.1-.8-1.4l-.9-.8a3 3 0 0 0 .3-1.7q-.3-1-.6-1.4c-.3.3-1.2 1.6-2.8 1.6-1.7 0-2.3-1.5-2.3-2.5 0-.8 1-2 1.4-2.3l2.2-1.2a6 6 0 0 0-2.8-1h-2.4s-.4-1.2-1-2l-1.5-1.8c-.2.2-1 1-1.5 1.8l-1 2h-2.4c-1.2 0-2.5.8-2.9 1l2.2 1.2c.5.3 1.5 1.5 1.5 2.3 0 1-.7 2.5-2.4 2.5s-2.5-1.3-2.7-1.6a4 4 0 0 0-.7 1.9l.3 1.1-1 .9-.7 1.4 2.2 1.2.2 2c0 .7 1 1 1.1 1.2l1-1.6c.3-.7 1.2-.7 1.8-.7q1 0 1.2 1.7-.2 1.6-1.8 2.7-1.2.9-3.6.6c-1.5-.2-2.3-1.3-3-2.3q-.5-1-.5-2.2l.2-1.6c-.3 0-1.5 0-2.5.4a3 3 0 0 0-1.5 1.5h-.1s-1.4-.6-2.3-.6-1.9.8-2.2 1l2 1.3q.5.3.6 2.8c0 2.1-3.9 2.2-4 2.2a3 3 0 0 1-2-.9 3 3 0 0 1-1-2c0-.5.8-1.2 1.7-1.2l1.5.2c0-.3 0-1.4-.3-1.8l-1-1.1H85l.8-1.5v-.6l-.1-1.4H82v-.1l-.1-1.6c-.1-.5-.8-1.2-1-1.4-.2.4-1 2-1.4 2.4-.5.5-1.5.3-2-.2l-.3-.7q.1-1.2.7-2c.4-.8 1.6-1.5 1.9-1.7l-1.7-.7c-1-.2-2.2.6-2.2.6h-.1l-1.5-1c-.9-.4-1.8-.1-2 0l.2.5c.3 0 1.4 0 2 .5l1 .8c.1 0 .8-.4 1.4-.4h1.4l-.3.2s-1 .7-1.3 1.4-.5 2.1-.1 2.8q.7 1 1.6 1.1 1.2 0 1.8-.5c.4-.4.8-1.6.8-1.6l.1-.3.1.3s.4 1 .4 1.7v1c.3-.1 1.4-.4 2-.4H85v.1l-.4 1.4c-.1.4-.8 1-1 1.2q.2 0 .9.7.9 1.1.7 1.4h-.1s-1.6 0-2.3.9a2 2 0 0 0-.5 1.3c.1 2.2 3 3.4 4 3.5s3.3-.4 4-1.5.8-2.9.6-3.5c-.1-.7-1.3-2.2-1.3-2.2l-.2-.2h.2c.1 0 1.3 0 1.9.3l1 .6q0-.3.7-1.1c.6-.6 1.7-.9 1.8-1h.1v.2l.1 2.4s1.5 3.3 4.2 3.5c2.4.3 4.5-.4 5.4-1.6.7-1.1 1-2.8 1-3.6 0-.6-.9-1.6-1.9-1.6q-1.6 0-2.2.6l-1.2 1.1-.1-.1v-1.1l.4-1.1-1.1-.3-1.3-.5h-.2l1-1 .7-.8-.2-1.7.2.1s1 .7 2.2.7c.8 0 3.3-.5 3.3-2.6s-.7-2.8-1-3l-2-1.2h.2s1.3-.3 2.3-.3l1.8.3c0-.3.2-1.2.6-1.9.4-.8 1.3-1.9 1.3-1.9V48l.2.1s.8 1.1 1.2 2c.4.6.6 1.5.6 1.8l1.9-.3c.9 0 2.2.3 2.2.3h.3l-2.1 1.3c-.3.1-1 .8-1 2.9s2.5 2.6 3.4 2.6c1.1 0 2.1-.7 2.1-.7h.2l-.2 1.6.8.8.8.9h.1l-1.4.6-1.2.3.4 1 .1.6v.6l-.1.1-1.3-1.1q-.6-.5-2.2-.6c-1 0-1.8 1-1.8 1.6 0 .8.2 2.5 1 3.6s3 1.9 5.3 1.6c2.8-.2 4.2-3.5 4.2-3.5.2-.4.2-1.9.2-2.4v-.1a4 4 0 0 1 1.8.9l.8 1.1c.2 0 1-.6 1-.6.5-.3 1.7-.3 1.8-.3h.2l-.1.2s-1.2 1.5-1.4 2.2c-.1.6-.1 2.3.6 3.5.7 1.1 3 1.6 4 1.5 1.1 0 4-1.3 4-3.5v-.1q0-.8-.4-1.2c-.8-.8-2.3-.8-2.3-.8h-.1v-.1q-.1-.2.6-1.4l1-.7c-.3-.2-1-.8-1-1.2-.3-.5-.4-1.3-.4-1.4v-.1h1.7l2 .4v-1c0-.7.3-1.7.3-1.7l.1-.3.1.3.8 1.6q.7.5 1.8.5 1 0 1.7-1.1c.4-.7.2-2-.1-2.8s-1.4-1.4-1.4-1.4l-.2-.2h1.4q1 .1 1.4.4l1-.8c.6-.4 1.7-.5 2-.5l.2-.5c-.3-.1-1.2-.4-2 0" id="path75" fill="#EB8A1B"/><path d="M120.5 70.3c1.8-.8 3.4-2.5 3.4-2.5l.1-.2v.2s.9 2 1.7 3.3a6 6 0 0 0 4.4 2.3q1.8.2 4-.6a14 14 0 0 0 4.5-3.4l-.3-.7q-.3-1.1.7-2.4c.8-1.2 2-1.8 2.7-1.5l.2-.6.4-1.6a26 26 0 0 1 2.6-7.4c-.3 0-1.2.1-1.7.4l-1.1 1s-.8-.5-1.4-.5h-.8c.3.3 1 .8 1.2 1.3q.3.8.3 1.8 0 .7-.3 1.2-.7 1.2-1.8 1.2-1 0-2-.6l-.7-1.4-.3 1.4v1.2h-.1l-2-.4h-1.5l.3 1.2c.2.5 1 1.2 1 1.2l.2.1h-.1l-1 .9-.6 1c.3 0 1.6.2 2.3 1a2 2 0 0 1 .5 1.4c0 2.3-3 3.6-4.1 3.7s-3.5-.4-4.3-1.6a5 5 0 0 1-.6-3.7c.1-.5 1-1.7 1.3-2-.4 0-1.2 0-1.5.2l-1.2.7v-.1l-.8-1.2c-.5-.4-1.3-.7-1.5-.8l-.2 2.4c0 .1-1.5 3.3-4.3 3.6-2.5.3-4.7-.4-5.6-1.7s-1-2.9-1-3.7c0-.7 1-1.8 2-1.8q1.7 0 2.4.6l1 1v-.9l-.6-1.3 1.4-.3 1.2-.4-.8-.8-.8-.8.2-1.4q-.7.5-2.1.6c-1.4 0-3.6-.8-3.6-2.8 0-2.2.7-2.9 1-3l1.7-1q-.8-.3-2-.3l-1.9.3V52a7 7 0 0 0-1.8-3.7l-1.2 1.8c-.4.8-.6 1.9-.6 1.9v.1l-2-.3-2 .2 1.7 1c.3.2 1 1 1 3 0 2.1-2.2 2.9-3.5 2.9q-1.6-.1-2.1-.6l.1 1.4-.8.8-.7.8 1.1.4 1.3.3h.1l-.5 1.3v.9l1-1q.6-.5 2.3-.6c1.1 0 2 1 2 1.8s-.2 2.5-1 3.7-3 2-5.5 1.7c-2.8-.3-4.3-3.5-4.4-3.6l-.1-1.7v-.7q-.6.2-1.5.8-.8 1-.8 1.2v.1l-1.2-.7c-.4-.2-1.2-.3-1.5-.3.2.4 1.1 1.6 1.2 2.1l.1 1q.1 1.2-.7 2.7c-.7 1.2-3.2 1.8-4.2 1.6-1.1 0-4-1.4-4.2-3.7v-.1q0-.8.5-1.3c.8-.8 2-1 2.4-1l-.6-1-1-.8-.1-.1v-.1s1-.7 1.1-1.2l.3-1.2h-1.5l-2 .4V61q-.1-.8-.4-1.4l-.7 1.4q-1 .6-2 .6t-1.8-1.2q-.3-.5-.3-1.2 0-1 .4-1.8t1.2-1.3h-.8c-.6 0-1.4.4-1.4.4l-1.2-.9c-.5-.3-1.4-.4-1.7-.4l1.7 3.9 1 3.5.3 1.6.3.6c.7-.3 1.9.3 2.7 1.5q.8 1.3.7 2.4 0 .4-.4.7l.5.5c1.1 1 2.8 2.5 4 3q2.2.6 4 .5c1.6-.1 3.6-1 4.4-2.3.9-1.4 1.7-3.3 1.7-3.3v-.2l.1.2s1.6 1.7 3.4 2.5a8 8 0 0 0 8.8-1.2 20 20 0 0 0 2.9-3h.2s1.4 1.8 2.8 3a8 8 0 0 0 4.3 2 8 8 0 0 0 4.5-.8m-11.7-6.8c-1.5 0-2.7-2-2.7-4.3s1.2-4.2 2.7-4.2c1.4 0 2.7 1.9 2.7 4.2s-1.3 4.3-2.7 4.3" id="path77" fill="#FFF500"/><g fill="white" id="g80"><path d="m78.7 69.3.4-.6q.2-1-.7-2.3c-.8-1.2-1.9-1.8-2.5-1.4l-.4.6q0 1 .7 2.3.9 1.2 1.9 1.5z" id="path78"/><path d="M141.7 65q-1.2-.5-2.6 1.4-.8 1.3-.6 2.3l.3.6h.7q1-.1 1.8-1.4 1.3-2 .3-2.9" id="path79"/><path d="M111.3 59.2c0-2.2-1.2-4-2.5-4s-2.5 1.8-2.5 4 1 4 2.5 4c1.3 0 2.5-1.7 2.5-4" id="path80"/></g><path d="M111.5 30.5h-5.3V37h5.3zm-.4 6h-4.5V31h4.5z" id="path81" fill="#FFF500"/><path id="polygon81" d="M106.6 36.4h4.5V31h-4.5z" fill="#00A13A"/><path d="M111.3 39H106v6.5h5.2zm-5 5.9v-5.4h4.5V45z" id="path82" fill="#FFF500"/><path id="polygon82" d="M110.8 39.5h-4.4v5.4h4.4z" fill="#DA251D"/><g fill="#FFF500" id="g86"><path d="M87 77.8c.3.2.3 1.7.3 2.3s0 2.3-.3 2.5q-.3.4-1.3.8L86 86l.3.2V86c0-2.8 10-5 22.6-5s22.6 2.2 22.6 5v.2l.2-.2q.3-.3.2-.6v-1.9l-1.3-.8c-.2-.3-.2-2.1-.2-2.5 0-.6 0-2 .2-2.3q.4-.3 1.4.2v-1c-.3 0-7-1.8-11-2.3l-2.9-.4a48 48 0 0 0-18.5 0l-2.8.4c-4 .5-10.7 2.2-11 2.3v1q1-.5 1.3-.2m26.5 1.7h-2.8l-2-.1H107c-1.2.2-2.5.2-2.8.1-.7-.1-.7-1.3-.7-2.2q-.1-1 .5-2c.6-.5.6-.5 2-.7h5.8c1.4.2 1.4.2 2 .8q.6 1 .5 2c0 .8 0 2-.7 2.1m6-3.6h.4c.8-.1 1.6-.2 3.3 0 1.8.3 4 .8 4.3 1.5q.3 1.1.2 2.2c0 .7-.2 1.5-.7 1.6h-1l-2.1-.6c-1.4-.3-3.5-.3-3.7-.3q-.6.1-1.1-.4t-.5-1.4v-.2c0-1.6 0-2.3 1-2.4L90 77.4c.3-.7 2.5-1.2 4.4-1.5q2.3-.2 3.2 0h.5q1 0 .8 2.4v.2q0 1-.4 1.4-.6.5-1.2.4c-.2 0-2.3 0-3.6.3l-2.2.6h-1c-.4-.1-.7-1-.7-1.6s0-1.6.2-2.2z" id="path83"/><path d="M88.7 87c0-2.3 8.8-4 20-4 11.4 0 20.2 1.7 20.2 4q0 .9-1.8 1.6 4-1.1 4-2.7c0-2.7-10-4.9-22.3-4.9s-22.4 2.2-22.4 5q.1 1.6 4 2.7-1.6-.7-1.7-1.6" id="path86"/></g><path d="M108.8 90.8c10.8 0 19.9-1.8 19.9-3.8 0-2.1-9.1-3.9-20-3.9C98 83.1 89 85 89 87s9.1 3.8 19.9 3.8" id="path87" fill="#EB8A1B"/><path d="M132.1 74.3s-5.8-1.5-10.2-2.1l-2.8-.4c-3.4-.5-6.5-1-10.3-1q-5.5.1-10.3 1l-2.9.4c-4.3.6-10.1 2.1-10.2 2.1-.6.2-1.3.7-1.2 1.6q0 .4.5.7t.9.2s7-1.8 11-2.4l2.9-.4a56 56 0 0 1 18.6 0l2.8.4c4 .6 11 2.4 11 2.4q.6 0 1-.2t.4-.7q0-1.3-1.2-1.6" id="path88" fill="#FFF500"/><path d="m90.6 81 .8-.1 2.2-.6c1.4-.3 3.5-.3 3.8-.3q.4 0 .9-.3.3-.3.3-1.2v-.2q.2-2.2-.6-2l-.4-.1q-.8-.2-3.2 0-3.8.6-4.1 1.2-.3 1.2-.2 2.2 0 1.2.5 1.3m.8-3.4q.1-.5 3-.8 1.6-.2 2.2 0h.3q.8 0 .6 1.4v.1q0 .6-.3.8-.3.4-.8.3l-2.5.1-1.5.4h-.7q-.5-.1-.5-1z" id="path89" fill="#EB8A1B"/><path d="m91.5 77.7-.1 1.3q0 .6.4.7h.5l1.6-.3c1-.2 2.4-.2 2.6-.2l.6-.2q.4-.2.2-.7v-.1q.1-1.3-.4-1.3h-2.5q-2.9.5-2.9.8" id="path90" fill="#00A13A"/><path d="M119 78.3v.2q0 .9.3 1.2.3.4 1 .3c.2 0 2.3 0 3.6.3l2.2.6h.8q.5-.1.6-1.3l-.2-2.2q-.4-.6-4.1-1.2c-1.7-.2-2.5-.1-3.3 0h-.4q-.7-.1-.6 2m1-.1q-.2-1.5.6-1.4h.3q.6-.2 2.3 0 2.9.3 3 .8.3.7.2 1.4t-.6 1l-.6-.1-1.5-.4-2.6-.1q-.3 0-.8-.3-.2-.2-.2-.8z" id="path91" fill="#EB8A1B"/><path d="M120.2 78.2q0 .5.2.7.3.3.7.2c.2 0 1.7 0 2.6.2l1.5.3h.6q.3-.1.4-.7 0-.7-.2-1.3.1-.3-2.8-.8h-2.5q-.6-.1-.5 1.3" id="path92" fill="#00A13A"/><path d="M114 77.3q.1-.9-.6-1.8c-.4-.4-.4-.4-1.7-.6h-.2c-1.4-.2-2.7-.1-2.7-.1l-2.8.1h-.1c-1.3.2-1.3.2-1.8.6q-.6.9-.5 1.8.1 2.1.5 2h2.8l1.9-.2 1.9.1c1.1 0 2.4.2 2.7 0q.5.2.5-1.9m-1.4 1.2H105c-.6 0-.6-1-.6-1.3q-.1-.6.5-1.2c.4-.3.4-.3 1.5-.4h.1l2.3-.1h2.3c1.1.2 1.2.2 1.6.5q.6.6.5 1.2c0 .3 0 1.2-.6 1.3" id="path93" fill="#EB8A1B"/><path d="m111.1 75.8-2.3-.1h-2.3c-1.1.2-1.1.2-1.5.5q-.5.4-.4 1 0 1 .4 1.2l2-.1h5.6q.3 0 .4-1 .1-.7-.4-1.1c-.4-.3-.4-.3-1.5-.4" id="path94" fill="#DA251D"/><path d="M84.9 79q1-.5 1.1-.2c.2.2.2 1.2.2 1.7s0 1.6-.2 1.8l-1.2.7q0 .3.2.3c.5.1 1.5-.6 1.9-.9.2-.3.2-4.1 0-4.4-.2-.2-1 .2-1.4.3q-.2 0-.8.8z" id="path95" fill="#EB8A1B"/><path d="M84.6 82.8q.7-.1 1.3-.7c.2-.2.2-3 0-3.2-.1-.1-.7.2-1 .3q-.2 0-.6.7v1.3q0 1.5.3 1.6" id="path97" fill="#DA251D"/><path d="M131.5 82.3c-.2-.2-.2-1.4-.2-1.8s0-1.5.2-1.7q.3-.2 1.2.2l.1.1c-.2-.5-.7-.8-.7-.8-.4-.1-1.2-.5-1.4-.3-.3.3-.3 4.1 0 4.4s1.3 1 1.8 1l.3-.4z" id="path99" fill="#EB8A1B"/><path d="M132.6 79.2c-.2-.1-.8-.4-1-.3a9 9 0 0 0 0 3.2q.6.6 1.4.7.3-.1.3-1.6V80c-.2-.5-.7-.7-.7-.7" id="path101" fill="#DA251D"/></g><g id="g134"><path id="polygon101" d="m119.7 123.8-2.9.4-3 .2-2.9.2-2.9.1h-5.7l-2.9-.1-2.8-.3-2.8-.2-2.7-.4-2.8-.4-2.7-.5-2.7-.6-2.6-.6-2.7-.7-2.5-.8-2.6-.8-2.5-.9-2.5-1-2.5-1-2.4-1.1-2.3-1.1L58 113l-2.3-1.3-2.3-1.3-2.7-1.7 1.1-.2.5-.1.5-.1.5-.1.4-.1.5-.1.5-.1.5-.1.5-.1.4-.2.5-.1.5-.1.5-.2.5-.2.5-.2.5-.1.5-.2.5-.3.5-.2.5-.2.5-.3.5-.2.6-.3.5-.3.5-.3.5-.3.5-.3.6-.4.5-.3.6-.4.5-.4.7-.5 1.3 1.1 1.2 1 1.3 1 1.3.9 1.4.8 1.4.9 1.5.7 1.6.8 1.6.7 1.7.7 1.8.6 1.8.6 1.8.6 2 .5 2 .5 2 .4 2.2.4 2.2.3 2.3.3 2.3.3 2.4.2 2.5.1 2.6.1 2.6.1h5.5l2.9-.1 2.9-.1 3-.2 3.1-.2 3.2-.3 3.4-.3-.3-.5-.2-.5-.2-.5-.3-.5-.3-.5-.3-.5-.3-.5-.4-.6-.3-.5-.7-.9h1.5l.1.1h.5l.2.1h.2l.1.1.2.1h.2l.1.1.2.1.2.1.1.1.2.1.2.1v.1-.9l-.1-.2v-.4l-.1-.2v-.4l-.1-.2v-.2l-.1-.2v-.2l-.1-.2v-.2l-.1-.2v-.1l-.1-.2-.1-.2v-.2l-.1-.2-.1-.2-.1-.2-.1-.1v-.2l-.1-.2-.1-.2-.1-.2-.1-.2-.1-.2-.1-.1-.1-.1-.1-.1v-.1l-.1-.1h-.1v-.1h-.5l-.1.1-.2.1.1.2.1.2v.5l-.1.2-.1.2-.1.2-.2.1-.2.1-.2.1h-.5l-.2-.1-.2-.1-.1-.1-.2-.2-.1-.2-.1-.2v-.5l.1-.2.1-.2.2-.2.1-.1h.1-.2l.1-.6v-.3l.2-.3.2-.2.2-.2.3-.2.3-.1.3-.1.3-.1h.8l.3.1.4.2.3.2.4.3.3.3.1.2.2.2.1.2.1.2.1.2.1.2.1.2.2.2.1.2.1.2.1.2v.2l.1.2.1.3.1.2.1.2.1.3.1.2v.2l.1.3.1.2v.3l.1.2v.3l.1.2.1.3v.3l.1.2v.6l.1.2.1-.2v-.2l.1-.2.1-.2.1-.1.1-.2.1-.2.1-.1.1-.2.1-.1.1-.2.1-.1.1-.1.1-.2.2-.1.1-.1.1-.1.1-.1.2-.1.1-.1.1-.1.1-.1.6-.3-.1 1.1v1.9l.1.6v1.1l.1.6.1.5.1.5v.2l.1.1h.1l.1.1.1.2v-.1l.1-.1v-.3l.1-.1v-.1l.1-.1.1-.2.1-.1.1-.1.1-.1.1-.1.2-.1.1-.1.2-.1h.1l.2-.1h.5l.2.1h.2l.2.1h.1v-.3l.1-.1v-.2l.1-.2.1-.1.1-.1.1-.1.1-.2.1-.1.1-.1.1-.1.2-.1h.1l.2-.1h.9l.2.1h.2l.2.1v-.5l.1-.1v-.2l.1-.1.1-.1.1-.1.1-.2.1-.1.1-.1.2-.1.1-.1h.2l.1-.1h.9l.2.1h.2l.2.1v-.3l.1-.1v-.1l.1-.1v-.2l.1-.1.1-.1.1-.2.1-.1.2-.1.1-.1.2-.1h.1l.2-.1h.9l.1.1h.2v-.3l.1-.1v-.3l.1-.1.1-.1.1-.2.1-.1.1-.1.1-.1.2-.1.1-.1.2-.1h.1l.2-.1h.5l.2.1h.2l.2.1.3.1.1.2.1.1.1.2.1.1.1.1-.1-.1v-.9l.1-.2v-.3l.1-.2v-.1l.1-.1.1-.2.1-.1v-.2l.1-.1.1-.1.1-.1.2-.2.1-.1.1-.1.1-.1.2-.1.1-.1h.1l.2-.1.1-.1h.2l.1-.1h.3l.2-.1h.9l.2.1h.3l.1.1h.2l.1.1.1.1h.2l.1.1-.1-.2v-.2l.1-.3.1-.3.1-.2.2-.2.2-.1.2-.1.3-.1h.4l.3.1.2.1.2.2h.1v.1l.1.1.1.1.1.1.1.1v.1l.1.2.1.2.1.2v.5l-.1.2-.1.2-.2.2-.2.2-.3.1-.2.1h-.6l-.2-.1.1.1v.1l.1.2v.1l.1.1v.5l.1.2v.3l-.1.1v.5l-.1.1v.2l-.1.1v.2l-.1.1-.1.2-.1.1-.1.1-.1.2-.1.1-.1.1-.1.1-.1.1-.2.1-.1.1-.1.1-.2.1h-.1l-.1.1-.2.1h-.3l-.1.1h-.9v.9l-.1.2-.1.1-.1.2-.1.1-.1.1-.2.1-.1.1-.2.1h-.4l-.2.1-.2-.1h-.4l-.2-.1-.2-.1v.1l.1.1v.3l-.1.2v.2l-.1.1-.1.2-.1.1-.1.2-.1.1-.2.1-.1.1h-.2l-.2.1h-.8l-.2-.1-.2-.1-.2-.1-.2-.1h.1v.3l-.1.3-.1.3v.2l-.1.1-.1.2-.2.1-.1.2-.2.1-.1.1-.2.1h-.2l-.2.1h-.6l-.3-.1-.2-.1-.2-.1v.4l-.1.3-.1.2-.1.1-.1.2-.2.1-.2.1h-.1l-.2.1h-.8l-.3-.1h-.2l-.2-.1-.2-.1-.2-.1.1.2.1.2.1.2-.1.3-.1.3-.1.2-.1.2-.1.1-.2.1-.1.1-.2.1h-.2l-.2.1h-.4l-.2-.1h-.2l-.3-.1-.2-.1h-.2l-.2-.2v.6l-.1.3-.1.2-.1.1-.1.1-.1.1-.1.1-.1.1h-.2l-.1.1h-.2l-.1.1h-.3l-.2-.1h-.2l.1.2.2.4.3.4.2.4.3.4.3.4.3.3.3.4.3.3.3.3.9.9-.9-.1h-.2l-.2-.1h-.5l-.2-.1h-.2l-.2-.1h-.1l-.2-.1h-.2l-.2-.1-.2-.1h-.1l-.2-.1-.2-.1h-.2l-.1-.1-.2-.1-.2-.1-.2-.1v.5l.1.2v.7l.1.2v.4l.1.2v.4l.1.2v.2l.1.2v.2l.1.2v.2l.1.1.1.2v.2l.1.2.1.2v.2l.1.2.1.1.1.2.1.2.1.2.1.2.1.2.1.2.1.1.1.1v.1l.1.1.1.1.1.1h.5l.1-.1.2-.1h-.1l-.1-.2v-.2l-.1-.3.1-.2v-.2l.1-.2.2-.2.2-.1.2-.1.2-.1h.4l.2.1.2.1.2.1.1.2.1.2.1.2v.5l-.1.2-.1.2-.1.2-.2.1h.1v.6l-.1.3-.1.3-.2.2-.3.2-.2.2-.3.1-.3.1-.4.1h-.3l-.4-.1-.4-.1-.3-.1-.4-.2-.3-.3-.3-.3-.2-.2-.1-.2-.1-.2-.1-.2-.2-.2-.1-.2-.1-.2-.1-.2-.1-.2-.1-.2-.1-.2-.1-.2-.1-.3-.1-.2-.1-.2v-.2l-.1-.3-.1-.2-.1-.2v-.3l-.1-.2-.1-.3v-.2l-.1-.3v-.2l-.1-.3-.1-.3v-.5l-.1-.3v-.2l-.1-.4.1-.1v-.4l-.1.2-.1.2-.1.2-.1.2-.1.2-.1.2-.1.2-.2.1-.1.2-.1.2-.1.2-.1.1-.2.2-.1.2-.1.1-.1.2-.2.1-.1.2-.2.1-.1.1-.1.2-.2.1-.1.1-.1.2-.2.1-.7.5.3-1.1.1-.5v-.4l.1-.5.1-.5v-2.4.3l-3.2.9-3 .7-3 .7-3 .6-2.9.5z" fill="#0A0B0C"/><path d="M137.5 119.8c-32 9.6-63 3.8-86.1-11 5-.8 10.3-2.3 16.2-6.8 12.1 11 33.5 16.1 68.7 12.4q1.3 2.5 1.2 5.4" id="path102" fill="white"/><path d="M162.7 102.6a3 3 0 0 0-4.2 4.2 3 3 0 0 0 4.2-4.2m-16.1 24.6a.9.9 0 0 0 1.2-1.3.9.9 0 0 0-1.2 1.3m-5.1-7.9-.3 1.7q.5 4.6 2.6 7.3c1.4 1.9 4 1 3.8-.5a2 2 0 0 1-1.3-.3q-.9.6-1.5-.6a14 14 0 0 1-1.9-6.4zm-7.7-16a.9.9 0 0 0-1.3 1.2.9.9 0 0 0 1.3-1.3m5 7.8.4-1.7q-.5-4.5-2.6-7.3c-1.5-1.9-4-1-3.9.5q.7 0 1.3.3 1-.6 1.6.6a14 14 0 0 1 1.8 6.4zm-5.2-2.2q5.9 8.3 4 15.6a12 12 0 0 0 3.7-5.3l-2.4-7.4c-2-2.5-3.7-3-5.3-3m10.6 8.1q1.4.3 1.8-.6c.4-.8 0-.9-.6-1.3a10 10 0 0 1-2.7-2.6q.5 2.4 1.5 4.5m-2.2-11q-.5 10.4 5.2 15.3-2.8-.1-5.6-2.2l-2.4-7.7c.3-3.2 1.4-4.5 2.8-5.3m12.9.8q1.1 1.3 3 2.5 1.7.7 2.2-.5v-1a3 3 0 0 1-2.5-2l-.8-1q-1.6-.6-2.2.5-.5.9.3 1.5m-11.2 6.4c.7.9 1.5 1.3 2.8 2.2 1 .6 2.3.6 2.6-.3s0-.9-.7-1.3a10 10 0 0 1-2.6-2.6q-1.6-.7-2.2.5-.6.8 0 1.5m2.8-1.7c.7 1 1.5 1.3 2.8 2.3 1 .6 2.2.5 2.6-.3q.4-1-.7-1.4a10 10 0 0 1-2.6-2.6q-1.6-.5-2.2.5t0 1.5m5.8-3q1.1 1.3 3 2.5c1 .6 2 .1 2.2-.6.3-.9-.2-1-.8-1.5a9 9 0 0 1-2.5-2.5q-1.5-.5-2.2.5-.5.9.3 1.5m-3 1.4a15 15 0 0 0 3 2.8c1.1.6 2 0 2.4-.8q.4-1-.6-1.3a10 10 0 0 1-2.7-2.7q-1.6-.5-2.2.5t0 1.5m13.6-7.7q.5.1.5.6c0 .5 1 .4 1.4 0q.6-.6.1-1.4l-.5-.5q-.7-.7-1.4-.1-1 1 0 1.4" id="path103" fill="#EA952F"/><path d="m162.5 102.9-.1-.2h-.1l-.2-.1-.2-.1-.2-.1h-.2l-.2-.1H160l-.1.1h-.1l-.2.1-.2.2-.2.1v.1h-.2v.2h-.2v.2h-.1v.2l-.1.1-.1.1v.3h-.1v.3l-.1.1v1.1l.1.2.1.2v.1l.1.1v.1l.2.1v.1l.1.1.1.1.1.1.1.1h.1l.1.2h.2l.2.1v.1h.3l.1.1h1.5l.1-.1h.1l.1-.1h.1l.2-.1v-.1h.2v-.2h.2v-.2h.1l.1-.2.2-.2v-.2l.1-.1v-.1l.1-.2v-.3l.1-.1v-1l-.1-.1v-.2h-.1v-.2l-.1-.1-.1-.1v-.1l-.2-.1zm-15.7 24h.2l.1.1h.4v-.1h.1v-.7h-.1l-.1-.1h-.6v.3l-.1.1v.3zm-4.4-2.2v.2l.2.3v.2l.1.2.1.2.1.2v.2l.2.2v.2l.2.2v.2l.2.2.1.2.1.1.1.2.2.2v.1l.3.3.3.2.3.2.2.1.3.1h1.1l.2-.2h.2l.1-.2.1-.2v-.1h-.2l-.2-.1h-.2l-.2-.2-.2.1h-.9l-.1-.2h-.2v-.2h-.2v-.2l-.2-.1v-.2l-.2-.2v-.2l-.2-.2v-.2l-.2-.2v-.2l-.2-.2v-.2l-.1-.2-.1-.2v-.2l-.2-.2v-.4l-.1-.2-.1-.2v-.2l-.1-.2v-.2l-.1-.2v-.4l-.1-.2v-.4l-.1-.2v-.7l-.1-.2v-.3l-.2-.2h-.2v-.2h-.1l-.1-.1h-.1l-.1-.1v.1l-.1.4-.1.4v.5l.1.3v.5l.1.3v.2l.1.3.1.2v.3l.1.2v.2l.2.3v.2zm-8.9-21.2h-.5v.1h-.1v.2h-.1v.4h.1l.1.2h.5l.1-.1.1-.2zm3.9.7-.1-.2-.1-.2-.1-.2-.1-.2-.1-.2-.2-.2v-.2l-.2-.1-.1-.2-.1-.2-.3-.2-.2-.3-.3-.1-.3-.1-.3-.1h-1l-.2.2h-.2l-.1.2-.2.2v.1h.5l.2.2h1.3l.1.1.1.1.1.1.1.2h.1l.1.2.1.2.1.2.1.2.2.2v.2l.1.2.1.2.1.2.1.2v.2l.2.2v.2l.1.1v.2l.1.2.1.2v.2l.1.2v.2l.1.2v.2l.1.2v.5l.1.2v.4l.1.2v1h.1l.1.1.1.1h.1l.1.1v.1h.2v.2h.2v-.2l.2-.8v-.4l-.1-.3v-.3l-.1-.2v-.3l-.1-.2v-.3l-.1-.2-.1-.3v-.2l-.1-.3-.1-.2v-.2l-.1-.2-.1-.3v-.2l-.2-.2v-.2l-.1-.2-.1-.2zm1 18.5-.1.4v.3l.1-.2.1-.1.2-.2v-.1l.2-.2.1-.1.1-.2.2-.1v-.2l.2-.2.1-.1.1-.2.1-.2.1-.1.1-.2.1-.2.1-.2.1-.2.1-.2.1-.1v-.2l.2-.2v-.2l.1-.2v-.5l-.1-.2v-.2l-.1-.3-.1-.2-.1-.2v-.3l-.1-.2-.1-.2-.1-.2v-.3l-.2-.2v-.2l-.2-.5v-.2l-.2-.2v-.3l-.1-.2v-.2l-.2-.3v-.2l-.1-.2v-.3l-.2-.2v-.2l-.1-.3v-.2l-.2-.3v-.4l-.2-.1-.2-.2-.2-.2-.1-.2-.2-.2-.2-.2-.1-.1-.2-.2-.2-.1-.1-.1-.2-.1-.1-.2h-.2l-.1-.1-.2-.1-.1-.1h-.2l-.1-.1-.2-.1h-.3l-.1-.1h-.3l-.2-.1h-.2l.3.4.3.5.4.5.3.5.3.6.2.5.3.5.2.5.3.5.2.5.2.5.1.5.2.5.2.5v.5l.2.5.1.5v.5l.2.5zm5.5-7.3v.3h.1l.1.2v.1l.1.2v.1l.1.1v.2h.2l.2.1h.6v-.1h.2v-.1h.1v-.2l.2-.2v-.2l-.1-.1-.1-.1-.2-.2-.2-.1-.3-.2-.2-.1-.2-.2-.2-.2-.2-.1-.2-.2-.2-.2-.2-.1-.1-.2v.4l.1.1v.2l.1.1v.1l.1.2v.1zm-4.2-5v.7l-.1.2v.2l.3.7v.2l.3.8v.2l.3.7v.3l.2.4v.3l.1.2.3.8v.2l.3.7v.3l.5 1.4v.1h.1l.2.2.1.1.2.1.2.1.2.1.1.1.2.1.2.1.1.1.2.1.2.1h.1l.2.2h.2l.1.1h.2l.2.1h.1l.2.1.2.1h.1l.2.1h.3l-.1-.1-.3-.4-.3-.3-.3-.4-.3-.4-.3-.4-.2-.4-.3-.4-.2-.5-.2-.4-.2-.5-.2-.4-.2-.5-.2-.5-.2-.5-.1-.5-.1-.5-.2-.5v-.5l-.2-.6v-.5l-.1-.6-.1-.5v-1.2l-.1-.6v-1.8.1h-.2l-.1.2h-.1l-.1.2-.1.1-.1.1-.1.1-.1.2v.1l-.2.1v.2l-.1.1-.1.2v.2l-.2.1v.2l-.1.2v.2l-.1.2v.3l-.1.2zm16.2-3h.2l.2.2.2.2.1.1.2.2.2.1.2.2.2.1.3.2.2.1.2.2h.1l.2.1h.3l.1.1h.5v-.1l.2-.1.1-.1v-.1h.1v-.5l-.1-.1h-.1l-.2-.1-.2-.1h-.1l-.2-.1v-.1h-.2l-.1-.2h-.1l-.1-.1-.1-.1-.1-.1-.2-.2v-.1l-.2-.2-.1-.1-.1-.2-.1-.2v-.1l-.1-.1v-.1l-.2-.2h-.1l-.1-.2-.1-.2-.1-.1-.1-.1-.1-.1h-.2l-.1-.1h-.7l-.2.1-.1.1-.1.1v.1l-.2.1v.1l-.1.2v.4h.1v.1l.2.1v.1l.2.2.2.1.1.2.2.2zm-11.8 5.7.1.1.2.2h.1l.1.2.2.1.1.2h.2l.2.2.2.1.1.2.4.2.3.2.2.1.2.2h.2l.1.1.2.1h.4l.1.1h.7v-.1h.2v-.2l.1-.1v-.2l.1-.2v-.1l-.2-.1-.2-.1-.2-.2-.2-.2-.2-.1-.3-.2-.2-.2-.2-.1-.2-.2-.1-.2-.2-.1-.2-.2-.1-.2-.2-.1-.1-.2-.2-.2-.1-.2-.1-.1v-.1h-.3l-.1-.1h-.8l-.1.1-.2.1v.1l-.1.1-.2.2v.2l-.1.1v.3l.1.1.1.1v.1zm2.8-1.7.1.2.2.1v.1l.2.2h.2l.1.2.2.1.2.1.1.2.2.1.4.3.2.1.3.2.2.1.1.1h.2l.2.2h1.2l.1-.1h.1v-.2h.1v-.5l-.1-.2h-.2l-.2-.2-.2-.2-.3-.2-.2-.1-.2-.2-.2-.2-.2-.1-.2-.2-.1-.2-.2-.2-.2-.1-.1-.2-.2-.2-.1-.1-.1-.2-.2-.2-.2-.1h-1l-.1.1-.2.2-.1.1v.1l-.1.1v.1l-.1.1v.4l.1.1.2.2zm5.7-3.2.2.2.1.1.2.2.2.2.1.1.2.2.2.1.2.2.2.1.2.2.2.1.2.2.2.1.2.2.2.1.2.1h.1l.2.1h.8l.1-.1v-.1h.1v-.2h.1v-.2l.1-.1v-.3l-.1-.1-.1-.1-.1-.1h-.1l-.1-.1-.1-.1h-.1l-.3-.2-.2-.2-.2-.2-.2-.1-.2-.2-.1-.1-.2-.2-.2-.2-.1-.1-.2-.2-.1-.1-.1-.2-.2-.1v-.2l-.2-.2-.2-.1h-1.1v.1l-.1.1-.2.2v.2h-.1v.1h-.1v.3l.1.1v.1h.1v.2zm-3 1.5.2.2.1.2.2.1.1.2.2.2.2.1.2.2.1.2.2.1.2.2.2.2.3.2.2.1.2.2.2.1.2.1h.1l.2.1h.7v-.1h.2v-.1l.2-.1v-.1l.1-.1v-.1l.1-.2.1-.2v-.2l-.2-.2h-.1l-.3-.2-.2-.2-.2-.2-.2-.1-.2-.2-.2-.2-.2-.1-.2-.2-.2-.2-.2-.2-.1-.1-.2-.2-.1-.2-.2-.1-.1-.2-.1-.2h-.1l-.2-.1h-.9l-.2.1-.1.2h-.1v.1l-.1.2-.1.1v.6h.1z" id="path104" fill="#F2B004"/><g fill="#F9D000" id="g115"><path id="polygon104" d="m153.7 112-.2-.2-.2-.1-.2-.2-.3-.2-.2-.1-.2-.2-.2-.2-.2-.1-.2-.2-.2-.2-.1-.2-.2-.2-.2-.1-.1-.2-.2-.2-.1-.2-.1-.1h-.1l-.1-.1h-.5v.1h-.1l-.1.1-.1.1v.1l-.1.1-.1.1v.1l.1.1v.1h.1l.1.2.2.2.1.1.2.2.1.1.2.2.1.2.2.1.2.2.2.2.2.1.2.2.2.2.2.1.2.2.2.1.1.1z"/><path id="polygon105" d="M156.6 110.4v-.3h-.1l-.1-.1-.1-.1-.1-.1-.2-.1-.2-.1-.2-.2-.2-.2-.2-.1-.2-.2-.2-.2-.2-.1-.2-.2-.1-.1-.2-.2-.1-.2-.1-.1-.2-.2-.1-.2-.1-.1h-.1l-.1-.1h-.4v.1h-.2l-.1.1-.1.1v.1l-.1.1v.1l.1.1.1.1.1.1.1.2.2.1.1.2.2.1.1.2.2.1.2.2.1.1.2.2.2.1.2.2.2.1.2.2.2.1.2.2.2.1.1.1h.3l.1.1h.1l.1-.1z"/><path id="polygon106" d="m151.1 113.3-.2-.2-.2-.1-.3-.2-.2-.2-.2-.1-.2-.2-.2-.2-.2-.2-.2-.1-.2-.2-.2-.2-.1-.2-.2-.1-.2-.2-.1-.2-.1-.2-.2-.1-.1-.1h-.5l-.1.1h-.1v.1h-.1v.1l-.1.1v.1h-.1v.3l.1.1h.1l.1.2.1.1.1.1.2.2.1.1.1.1.2.1.1.1.2.1.2.2.2.1.3.3.3.1.2.2.2.1.1.1h.2l.1.1h.2l.1.1h.6z"/><path id="polygon107" d="m148.3 114.9-.2-.1-.2-.2-.2-.1-.3-.2-.2-.2-.2-.2-.2-.1-.2-.2-.2-.2-.2-.2-.2-.1-.1-.2-.2-.2-.1-.2-.2-.1-.1-.2-.1-.2h-.7l-.1.1h-.1l-.1.1-.1.1v.1l-.1.1v.2h.1v.1l.1.1.1.1.1.2.1.1.2.1.1.1.1.1.2.2.1.1.2.1.2.1.2.1.4.3.2.2.2.1.2.1.1.1.2.1h.1l.2.1z"/><path id="polygon108" d="m159.2 108.5-.2-.1h-.1l-.1-.1-.2-.1-.1-.1h-.1l-.1-.1-.2-.1-.1-.1-.1-.2-.1-.1-.2-.2-.1-.1-.1-.2-.1-.2-.1-.2-.1-.2h-.1v-.1l-.1-.1-.1-.1-.1-.2-.1-.1-.1-.2-.1-.1h-.7l-.1.1h-.1v.1l-.1.1-.1.1v.2l.1.1.1.1v.1l.2.1.1.2.2.1.1.2.2.1.2.2.1.1.2.2.2.1.2.2.2.1.2.2.2.1.2.2.2.1.2.2h.1l.1.1h.6l.1-.1h.1v-.1l.1-.1h-.1z"/><path id="polygon109" d="m144.1 118.9-.3-.4-.2-.4-.3-.5-.2-.4-.2-.5-.2-.5-.2-.4-.2-.5-.1-.5-.2-.5-.1-.6-.2-.5-.1-.5-.1-.6-.1-.6v-.5l-.1-.6v-.6l-.1-.6v-1.4l-.1.1-.1.1-.1.1v.1l-.1.2-.1.1-.1.2v.1l-.1.2-.1.2v.2l-.1.1v.2l-.1.3v.2l-.1.2v.2l-.1.3v.5l.2.7.1.2.2.8.1.2.2.7.1.3.2.4v.3l.1.2.2.7.1.3.2.7.1.2.5 1.5.1.1.2.1.1.1.2.1.2.1.1.1.2.1.1.1.2.1.2.1.1.1h.2l.2.1.1.1h.2l.1.1h.1l-.2-.3-.3-.4z"/><path id="polygon110" d="M144.7 116.3h.5v-.1h.1v-.1l.1-.1h-.1l-.1-.1-.2-.2-.3-.1-.2-.2-.2-.2h-.1v.1l.1.1v.1l.1.1.1.2v.1l.1.1z"/><path id="polygon111" d="m138.9 114.4-.1-.3-.1-.2-.1-.2v-.3l-.1-.2-.1-.3-.1-.2v-.2l-.1-.3v-.1l-.1-.1-.2-.2-.1-.2-.2-.1-.2-.2-.1-.2-.2-.1-.2-.2-.1-.1-.2-.1-.1-.1-.2-.1-.1-.1-.1-.1-.2-.1h-.1l-.2-.1-.1-.1h-.1l-.1-.1.1.2.3.5.3.5.3.6.3.5.2.5.3.5.2.6.2.5.2.5.2.5.2.5.1.5.2.5.1.5.1.5.1.6v.5l.1.5v.5l.1.5v1l-.1.4v.5-.1l.1-.1.2-.2.1-.2.1-.1.1-.2.1-.2.1-.1.1-.2.1-.2.1-.2.1-.1.1-.2.1-.2v-.2l.1-.2.1-.2.1-.1-.1-.2-.1-.3v-.2l-.1-.2-.1-.3-.1-.2v-.2l-.1-.3-.1-.2-.1-.2v-.2l-.1-.3-.1-.2-.2-.5v-.2l-.1-.2-.1-.2-.1-.3-.1-.2z"/><path id="polygon112" d="m136 102.8.2.2.1.2.1.2.1.2.1.2.1.2.1.2.1.2.1.2.1.2v.2l.1.2.1.2v.2l.1.2.1.2v.2l.1.2v.2l.1.3v.2l.1.2v.2l.1.2v.4l.1.3v.7l.1.2v.1l.1.1v.1l.1-.4v-.1l-.1-.3v-.2l-.1-.3v-.2l-.1-.3v-.2l-.1-.3v-.2l-.1-.3v-.2l-.1-.2-.1-.3v-.2l-.1-.2-.1-.2-.1-.2v-.3l-.1-.2-.1-.2-.1-.2-.1-.2-.1-.2-.1-.1-.1-.2-.1-.2-.1-.2-.1-.2-.1-.1zl-.2-.3-.3-.1-.2-.2-.2-.1h-.2l-.3-.1h-.2l-.2.1h-.2l-.1.1h.5l.2-.1h.2l.2.1h.2l.2.1.1.1.2.2.1.1.1.1z"/><path id="polygon113" d="M133.1 103.8v.2h.1v-.1h.1v-.1z"/><path id="polygon114" d="m144.8 128.2-.1-.2-.1-.1-.2-.1-.1-.2-.1-.1-.1-.2-.1-.2-.1-.2-.1-.2-.1-.2-.1-.2-.1-.2-.1-.2-.1-.2-.1-.2-.1-.2-.1-.2v-.2l-.1-.2-.1-.2v-.2l-.1-.2v-.2l-.1-.3v-.2l-.1-.2v-.2l-.1-.2v-.4l-.1-.3v-.4l-.1-.2v-.6l-.1-.1-.1-.1v.8l.1.2v.3l.1.2v.3l.1.2v.3l.1.2v.3l.1.2.1.2v.3l.1.2.1.2v.2l.1.2.1.3.1.2.1.2.1.2v.2l.1.2.1.1.1.2.1.2.1.2.1.2.1.1.2.2.1.2.1.1.2.2zl.2.2.3.1h.2l.2.1.2-.1h.4l.1-.1h-.4l-.2.1-.2-.1h-.2l-.2-.1h-.2z"/></g><path id="polygon116" d="M161.7 102.8h-.2l-.1-.1h-.3l-.2-.1h-.4l-.1.1h-.3l-.1.1h-.2l-.1.1h-.1l-.1.1-.1.1-.1.1-.1.1-.1.1h-.1v.1l-.1.1v.1l-.1.1v.1l-.1.1v.1l-.1.1v1.2l.1.1v.1l.1.1v.1l.1.1v.1l.1.1v.1l.1.1.1.1h.1l.1.1v.1h.1l.1.1.1.1h.2l.1.1h.2l.1.1h.9l.1-.1h.2l.1-.1h.2v-.1l.1-.1h.1l.1-.1.1-.1h.1l.1-.1v-.1l.1-.1.1-.1v-.1l.1-.1v-.1l.1-.1v-.2l.1-.1v-1l-.1-.1v-.2l-.1-.1v-.1l-.1-.1v-.1l-.1-.1-.1-.1-.1-.1-.1-.1-.1-.1h-.1l-.1-.1z" fill="#DEA817"/><g fill="#FFF500" id="g123"><path id="polygon117" d="M150.4 108.9v.2l.1.2.2.1.1.2.1.1.2.2.2.1.1.2.2.1.2.2.1.2.2.1.2.2.2.1.3.2.2.2.1.1h.2v.1h.2v-.1h.2v-.1l-.1-.1-.3-.2-.2-.1-.2-.2-.2-.2-.3-.2-.2-.2-.2-.1-.1-.2-.2-.2-.2-.2-.2-.2-.1-.2-.2-.1-.1-.2-.1-.1z"/><path id="polygon118" d="m155.5 109.7.3.2.1.1h.2v.1h.2l-.1-.1-.1-.1h-.1l-.2-.2-.3-.2-.2-.2-.2-.1-.2-.2-.2-.2-.2-.1-.1-.2-.2-.2-.1-.1-.2-.2-.1-.2-.2-.2-.1-.1v-.1h-.3l-.1.1h-.1l.1.1.2.2.1.1.2.2.1.1.2.2.2.1.1.2.2.1.2.2.1.1.2.1.2.2.2.2z"/><path id="polygon119" d="m150.2 112.9-.3-.2-.2-.2-.2-.2-.2-.2-.2-.1-.2-.2-.2-.2-.1-.2-.2-.2-.2-.2-.1-.1-.2-.2v-.1h-.3v.1h-.1l-.1.1.1.1.1.1.1.2.1.1.1.1.1.1.2.1.1.1.2.1.1.1.2.1.2.2.4.2.2.2.2.1.2.2h.1z"/><path id="polygon120" d="m147.5 114.6-.2-.2-.2-.2-.3-.2-.2-.1-.2-.2-.2-.2-.2-.2-.1-.2-.2-.1-.2-.2-.1-.2-.2-.2-.1-.2h-.1l-.1-.1h-.1v.1h-.2v.1l-.1.1h.1l.1.2.1.1.1.1.1.1.2.1.1.1.1.1.2.2.1.1.2.1.2.1.4.3.2.1.2.2.2.1.1.1h.1z"/><path id="polygon121" d="m156.7 106.7-.1-.2-.1-.2-.1-.1-.1-.1-.2-.2-.1-.1h-.3v.1h-.1l.1.1.2.1.1.2.2.1.1.2.2.1.1.2.2.1.2.2-.1-.1-.1-.2z"/><path id="polygon122" d="m143.1 118.7.2.1.1.1.2.1.1.1-.2-.4-.3-.5-.2-.4-.2-.5-.3-.4-.2-.5-.2-.5-.1-.5-.2-.5-.2-.5-.1-.6-.1-.5-.1-.6-.2-.5v-.6l-.1-.6-.1-.6v-.6l-.1-.6v.1l-.1.2v.2l-.1.1v.2l-.1.3v.4l-.1.3v.2l.2.8.1.2.2.7.1.3.2.7.1.2.1.5.1.3.1.2.2.7.1.3.2.7.1.2.4 1.3v.1l.2.1.1.1z"/><path id="polygon123" d="m138.3 115.1.2.5.1.5.1.5.2.6.1.5.1.5v.5l.1.5v1.6h.1l.1-.2v-.2l.1-.1.1-.2.1-.2.1-.2.1-.1.1-.2v-.3l-.1-.3v-.2l-.1-.2-.1-.2v-.3l-.1-.2-.1-.2-.1-.3v-.2l-.1-.2-.1-.2-.1-.3-.1-.4-.1-.3-.1-.2-.1-.2v-.2l-.1-.3-.1-.2-.1-.2-.1-.3v-.2l-.1-.3-.1-.2-.1-.2v-.3l-.1-.2-.1-.3-.2-.2-.1-.2-.2-.2-.2-.1-.1-.2-.2-.1-.1-.2-.2-.1-.1-.1-.1-.1v.1l.3.5.3.5.3.5.2.6.3.5.2.5.2.6z"/></g><path id="polygon124" d="M161.5 103.1h-.2l-.1-.1h-.5l-.1.1h-.3v.1h-.2l-.1.1h-.1v.1h-.1l-.1.1-.1.1-.1.1v.1h-.1v.1l-.1.1v.1l-.1.1v.4l-.1.1v.3l.1.1v.3l.1.1v.2h.1v.1l.1.1v.1h.1l.1.1v.1h.1l.1.1.1.1h.2l.1.1h.1l.1.1h.9l.1-.1h.1l.1-.1h.2v-.1h.1l.1-.1.1-.1.1-.1.1-.1v-.1l.1-.1.1-.1v-.2l.1-.1v-1l-.1-.1v-.1l-.1-.1v-.1l-.1-.1-.1-.1v-.1l-.1-.1h-.1v-.1h-.1l-.1-.1z" fill="#0A0B0C"/><path id="polygon125" d="M161.4 103.3h-.9l-.1.1h-.2v.1h-.2v.1h-.1l-.1.1v.1h-.1v.1h-.1v.1l-.1.1-.1.1v.2l-.1.1v.8l.1.1v.2l.1.1v.1h.1v.1l.1.1.1.1.1.1h.1v.1h.1l.1.1h.1l.1.1h.2l.1.1h.5l.1-.1h.2l.1-.1h.1l.1-.1.1-.1h.1v-.1h.1l.1-.1.1-.1v-.1h.1v-.2l.1-.1v-.2l.1-.1v-.6l-.1-.1v-.2l-.1-.1v-.1l-.1-.1v-.1h-.1v-.1h-.1l-.1-.1v-.1h-.1z" fill="#004F81"/><path id="polygon126" d="m160.6 106.4-.5-1.3-1.1-.4 1.2-.5.4-1.1.5 1.1 1.2.5-1.1.4z" fill="#004F81"/><path id="polygon127" d="m159.1 104.7 1.1-.5.4-1.1.4 1.2 1.2.4-1.1.4-.5 1.1-.5-1.1z" fill="#2C6693"/><path id="polygon128" d="m159.2 104.7 1.1-.4.3-1 .4 1 1 .4-.9.3-.5 1.1-.4-1.1z" fill="#5981A8"/><path id="polygon129" d="m159.4 104.7.9-.4.3-.9.4 1 .9.3-.9.3-.4 1-.4-1z" fill="#84A5C3"/><path id="polygon130" d="m159.5 104.7.8-.3.3-.8.3.8.8.3-.7.3-.4.9-.4-1z" fill="#C3DCE3"/><path id="polygon131" d="m159.7 104.7.7-.3.2-.7.3.7.7.3-.6.2-.4.8-.3-.8z" fill="#86BBDB"/><path id="polygon132" d="m159.8 104.7.6-.3.2-.5.3.6.5.2-.5.2-.3.7-.3-.7z" fill="#52A2D2"/><path id="polygon133" d="m160 104.7.5-.2.1-.5.2.5.5.2-.4.1-.3.7-.2-.7z" fill="#008ECA"/><path id="polygon134" d="m160.1 104.7.4-.2.1-.3.2.3.4.2-.3.1-.3.5-.2-.5z" fill="#007CC3"/></g><!-- app4joy --></svg>