<svg id="svg11" width="900" height="600" viewBox="0 0 900 600" xmlns="http://www.w3.org/2000/svg"><g id="g13"><path id="path1" d="M0 300h900v300H0z" fill="#007000" stroke-width="2.4495"/><path id="path2" d="M0 0h900v300H0z" fill="#0070ff" stroke-width="2.4495"/><path id="path3" d="M0 200h900v200H0z" fill="#fff" stroke-width="2"/></g><g id="g12"><circle id="circle3" cx="450" cy="300" r="75" fill="none" stroke="#ffd700" stroke-width="10"/><circle id="circle4" cx="450" cy="300" r="16" fill="#ffd700" stroke-width="2"/><g id="g5" transform="matrix(2 0 0 2 450 300)"><path id="path4" d="M0 0h25" stroke="#ffd700" stroke-width="2"/><circle id="circle5" cx="25" r="5" fill="#ffd700"/></g><g id="g6" transform="rotate(-30 784.8 -689.7)scale(2)"><path id="path5" d="M0 0h25" stroke="#ffd700" stroke-width="2"/><circle id="circle6" cx="25" r="5" fill="#ffd700"/></g><g id="g7" transform="rotate(-60 484.8 -239.7)scale(2)"><path id="path6" d="M0 0h25" stroke="#ffd700" stroke-width="2"/><circle id="circle7" cx="25" r="5" fill="#ffd700"/></g><g id="g8" transform="matrix(0 -2 2 0 450 300)"><path id="path7" d="M0 0h25" stroke="#ffd700" stroke-width="2"/><circle id="circle8" cx="25" r="5" fill="#ffd700"/></g><g id="g9" transform="rotate(240 311.6 20)scale(2)"><path id="path8" d="M0 0h25" stroke="#ffd700" stroke-width="2"/><circle id="circle9" cx="25" r="5" fill="#ffd700"/></g><g id="g10" transform="rotate(210 265.2 89.7)scale(2)"><path id="path9" d="M0 0h25" stroke="#ffd700" stroke-width="2"/><circle id="circle10" cx="25" r="5" fill="#ffd700"/></g><g id="g11" transform="matrix(-2 0 0 -2 450 300)"><path id="path10" d="M0 0h25" stroke="#ffd700" stroke-width="2"/><circle id="circle11" cx="25" r="5" fill="#ffd700"/></g><path id="path11" d="M450 300v50" stroke="#ffd700" stroke-width="4"/></g><!-- app4joy --></svg>