<svg width="453.04" height="304.58" id="svg25" viewBox="0 0 453.04 304.58" xmlns="http://www.w3.org/2000/svg"><g id="g27"><path d="M0 304.6h453V0H0z" fill="#0064b1" id="path1"/><path d="M0 130h205.6V0H0z" fill="#fff" id="path2"/><path d="M247.5 130H453V0H247.5z" fill="#00a54d" id="path3"/><path d="M0 304.6h205.6v-130H0z" fill="#ed1b21" id="path4"/><path d="M247.5 304.6H453v-130H247.5z" id="path5"/></g><g id="g26"><g id="g25"><path d="M60.7 12.5h84.2V109c0 2.4-1.5 5.3-5 5.3h-32.8c-1.9 0-3.9 3.5-4.4 4.2-.4-.7-2.4-4.2-4-4.2h-33c-4.2 0-5-3-5-5.6z" fill="#34b7eb" id="path6"/><path d="M60.7 106.6c8.2-5.6 28.1-4.2 42-4.2 14 0 28.4-2.4 42.2 3.8v3.9c.1 2.2-1.5 4.2-4.9 4.2h-32.6c-1.9 0-4 3.6-4.6 4.3-.4-.6-2.6-4.3-4.3-4.3H66c-4.1 0-5.2-1.8-5.2-4.2z" fill="#00a54d" id="path7"/><path d="M145 105.8h-.4q-2.2-1-4.6-1.7l-5-1.2.4-1.3.3-.7 1.2-.5.5-.3 1.6-1.2 1.4-2q1.3-2.1 1.3-4.5 0-3.4-1.7-6.2a12 12 0 0 0-5.1-3.9q-3-1.4-6.2-1.8c-2.2-.4-4.4-.3-6.5-.5s-4.1-.5-5.7-2a3.4 3.4 0 0 1 .6-5.4c.9-.5 2.1 0 3 .2q.5 0 .6.7v.5c0 1.6.9 3 1.8 4q.8.8 2 .9.9-.2 1.6 0 .3.2.5.1v-.7c-.3-.7-1.4-.6-1.6-1.4q0-.3.2-.3l.4.5a3 3 0 0 0 1.9.6q1.6 0 2.6-1.1c1-1.4 1.7-3.2 1-5l-.8-1.8q0-.5.3-1h-.3c-.7.2-.9 1.4-.7 2.1.1.7-.3 2.4-1 2.5v-.5l-.2-1.2v-.8c0-.4-.3-.1-.4.1q0 .5-.3 1t-.7.9c-1.1.6-2.8 0-3.8-.7l-.6-.5q-1.2-.8-2.5-1.2c-2.3-.8-5 .3-6.4 2.5a6 6 0 0 0-1 4.6A5 5 0 0 0 115 81c3.5 2 8.3 1.1 12 1.5q3 .3 5.7 1.6c2 1 3.8 1.9 5.2 3.8q1 1.6 1.2 3.5.1 1.4-.4 2.7-.4 1.1-1.2 1.9-.6.1-.5-.5l-.4-1q-.6-1.4-1.8-2.7a23 23 0 0 0-6.3-5.6c-2-1-2.6-1-4.8-.5q-2.4.7-4.9 1t-5.1-.2q-.4 0-.7-.3-.3-1.3-1-2.8-.2-.5-.8-.9c-.1 0-1.3-.9-1-1.1l.2-.1c.2-.1 1.4-.8 1-1l-.4-.2q-1.3-.5-2-1.7l-1-2-.5-.8q0-.3.2-.3l1.6-.5.4-.5c.2-.2-.2-.2-.3-.2h-.6c-1.2-.4-1.7-1.3-2.5-2.2 0-.2-.6-.6-.4-.8l.1-.2q.9-.7 1.2-1.9v-.7l-.9.4q-1.3.3-2.4-.5-1-.6-1.7-1.3a7 7 0 0 0-3-1.1q-1.2-.1-2.5.2-.5.1-.4-.2l.3-.4.3-.6v-.3l-.4.1q-1.1.6-2.5.6h-1.8c-.3-.1 0-.3 0-.4 0-.3-.5 0-.6 0q-.5.3-1.2.3h-.3c-1.2 0-2.6.4-3.4 1.3q-.2.4-.6.2l-1.3.1-.5.4-.9.6-1.3.5q-.3 0-.3.2c.2.5 1.3.6 1.7.5h.2c.4-.1 1.4 0 1.5.5 0 .3-.9.7-1 .8q-1.5.6-2.8 1.9-.5.4-.3 1.2 0 .4-.2.5l-.6.4-1.7 1.2q-1.2.8-2.3 1.9l-1 1.1q-.7.8-.1 1.7 0 .3.3.3c.2 0 0 .5 0 .6q.2.6.5.9h.5l.3.2c.2.2 1 .4.3.7s-2.2 1-2.5 1q-1.1.3-1.8-.8-.3-.6-.1-1.2c.2-.7 1.4-1.1 1-2q-.2-.3-.3 0t-.2.5l-.5.5Q71 82 71.2 84.2q.3 1.5 1.6 1.8 1.1.3 2.3-.3c.5-.3 2.5-1.8 2.7-1.6q.2.3 0 .5l-.3.5q0 .3-.3.2-.6 0-1 .2-.4.5-.5 1.2t.6.8q.3 0 .2.4-.1 1 .5 2 .3 1-.2 2c0 .2 0 1 .2.9l.2-.3q0-.3.3-.5l.6-.5q.3-.5.4-.1.3.3.5 0l.4-.8v-.2c.2-.1.2.5.5.2l.4-1 .3-.7v-.8q-.1-.6.4-.6l.8-.2 2.7-.8c.2 0 .7-.2.6.2l-.8 2.4v.8q-.3 1.3-1.2 2.4-.6.7-1.4 1c-.3 0-.8.2-.3.6l1.2.5 1.3.3q0 .4-.6.5-.7.3-1.4.2-.5-.1-.2.4.8.6 1.5.7l-3.6 1q-2 .4-3.9.1h-2.6l-3.8 1.6-2 .7q-.9.2-1.8 1-.5.6 0 1.4.2.4 0 .7-.3.7-.2 1.4-2.2.6-4.2 1.6h-.3v1.6q0-.6.6-.9 1.2-.8 2.4-1.3l1.3-.5h.4l.3.4c.2.1.6.4.5 0q0-.4.2-.7c.2-.3.3.3.4.4l.7.6q.3-.1.2-.4v-.7c.4-.4.4 0 .5.3l.2.4q.1.3.4.4h.2c0-.4 0-1.3.4-1.2q.5 0 .9-.4l.5-.6.8-.3h.3l.3.6v.1c0 .3 0 .9.4 1l.2-.5q0-.4.3-.6c0-.1.6-.2.7 0l.1.1q.1.4.5.7c.3.1.3-.4.3-.6q.1-.3.5-.5.5 0 .7.7l.8.5q.3 0 .2-.3v-.5c.4-.6.8-.2 1.2-.4l.2-.1h.5l2 .2.7-.1.8-.4.8-.1.3-.2q.3 0 .4.5c-.1.1-.5.4-.4.6.1.3 1 0 1.2 0 .5-.3 1-.2 1.4-.5.5-.3.3-.6.7-.8l.4.1q.4.5 0 .9c-.4.7-1.4.4-1.8 1l-.1.3q.1.1.4 0 .4 0 .8.3a3 3 0 0 0 2.2.6q1.2 0 2-1c.1-.2.6-1 .8-1v.3q0 .4-.4.8-.2.3.2.5c.4.2 1.3 0 1.6-.2q.4 0 .7-.4h.4q1.2.8 2.4.2c.2 0 .8-.5.7-.6q0-.3-.3-.4-.5-.1-.6-.4c-.1-.3.5 0 .5 0h.6l6 1.3h.6l1.2-1.3q.1-.2.5-.2h.3q0 .6.3 1c0 .2.6.8.6.2q-.1-.5.4-.6h.5v.5q.2.6.6 1c.4.2.3-.4.4-.6q.3-.4.7-.3.3 0 .4.3l.3.5c.2.4.4 0 .6-.2.3-.4 1 0 1.3-.2l.2-.3q0-.2.3-.2h.7l2.3-.3.4-.1.6.2h1q.6 0 1.1-.4l.6-.1v.1q.3.2.7 0h.6c.2.3-.3 1-.4 1.2l-.3.3-.5.6-.2.4c.2.2.5-.2.7-.2l1.8-.2q.4 0 1-.4.2-.1.1.1c0 .6.6.1.8 0l.7-.5q.4-.6.7 0l.8.8.5.2 1 .2q.7 0 1.2-.4t1-.5h.7s.4.2.4 0v-.3q-.2-.5-.7-.7c-.5-.1-1.6.1-1.8-.7v-.1q.1-.2.4-.1h.8l4 .7h1q.4-.2.5-.6l.1-.3 3.4.8a23 23 0 0 1 6.8 3.4zM78 81.4l-.1.2-.2.7.1.1H79q1.8-.2 2.8 1.2l.3.3h.2l.1-.3v-1q-.3-1-1-1.4l-.6-.2-2.1.3zm.4 3c0 .3.2.9.4 1q.1.2.4.3h1c.2-.1 1-.3 1.1-.5v-.1q0-.3-.3-.5-.5-.5-1-.6-.8-.2-1.3-.1h-.2l-.1.2z" id="path8"/><path d="m76.5 83.4-2 .8q-1.6.2-2.2-1.2c0-.3-.2-.6-.3-.1q-.4 1.2.4 2 .4.3 1 .4.7 0 1.3-.3l1.9-1.1c1.3-.7 3.1-1 4.5-.1l.5.3c.5.1-.2-.6-.3-.6-.8-.8-1.5-.8-2.5-.9-.6 0-1.8.5-2.3.8" fill="#f00" id="path9"/><g fill="#fff" id="g10"><path d="m77.1 81.6.2.2.1.2h.2v-.7h-.3l-.1.2m.7 3.7v.2h.4v-1H78l-.1.4zm4.2-9.9.2.1h.2v-.8h-.3l-.2.3zm1.8-.1h.2l.2-.2h.2l.2-.2v-.2h-.9l-.1.1v.3zm-1-.1.1-.2h-.2zm27.3 29.4q.3-.2.3-.5v-.2h-.4v.5zm-2-.3.2-.3.3-.2-.1-.1h-.2l-.2-.1zm-1.7-.5.2-.2v-.3h-.2v.1l-.1.2zm-40.8-.3v1l.2.1.3-.1.2-.2.2-.1.1-.3.1-.3v-.3l-.2-.2-.2-.1h-.2l-.3.1zm1.4.5v.8l.1.1h.1l.2-.3.2-.3.3-.2.2-.2v-.2l-.3-.1h-.7v.2zm1.4.1v.5l.1.2.2-.2v-.2l.1-.3.1-.2v-.1h-.4zm7.6-.4.3.1.3-.8H76v.4zm-1.7.1v-.1l.2-.2v-.4h-.5l-.1.1v.3l.2.2zm-1.8 0 .5-.4-.2-.2q-.2-.3-.3-.2l-.1.2v.3z" id="path10"/></g><g fill="#ffe400" id="g18"><path d="M116 71.5q-.8.3-1.4 1a5 5 0 0 0-1.1 2.8v2l.1.5v-1.9q.3 0 .2.3l.1 1.7q0 .5.4.9.5 1 1.5 1.4h.2l-1-.9-.4-.4s-.5-1-.3-1l.3.6.5.6.8.6.9.6.9.3 1.2.3h1.4l1.8.2 1.6.2 1.3.1h.3l-.1.1h-.4q-.8.2-1.4.1h-.8l-.7-.1h-.2l.4.2h1.1l1 .1h1q1-.2 2.3 0c2.9.4 6.2 1.6 8.5 3.5a10 10 0 0 1 2.4 2.5c1.6 2.6 2.5 6.3-.1 8.3l-1.7 1h-1l-.1-.4-.1-.3-.4-1.4q0-.3-.2-.2l-.1-.2-.3-.4h-.4q-.2-.2.1-.5c.1-.3-.4-.3-.6-.2h-.3q0-.3.2-.3.4 0 .4-.2t-.2-.2h-.4l-.4.2-.1-.2q.2-.4.5-.3l.3-.1V92h-.9l-.3.2q-.2.2-.3 0V92q.4-.3.7-.2h.3v-.3h-1.1l-.3.1c-.2.2-.3-.2-.2-.3l.6-.1h.5v-.3q-.4-.3-1-.2h-.4v.1q-.4.1-.3-.1c0-.3.7-.2 1-.3l.2-.1-.6-.2h-.7l-.4.2-.1-.2.3-.2h.9l.1-.2q-.1-.3-.5-.3h-.3q-.6-.1-1 .2l-.2-.1q.2-.4.6-.4h.5q-.2-.3-.4-.2h-1v-.2h1c.2-.3-.5-.6-.6-.6a16 16 0 0 0-3.3-1.5h-2l-1.1.3h-.5q-.1.2 0 .2c0 .1.4.1.3.3l-.5.7q-.5.7-1.1 1l-3.5 2.1-.7.4-.5 1-.2.8-.4 2.3.3.9.5.6.6.7.6.2 1.7.3q1.8.2 3.6.7l.8.3s.6.2.6 0l-.7-.3-1-.4q-1-.4-2.3-.5l-.6-.1-.4-.1.1-.1h.5l.6.1h.6l.5.2h.3l-.1-.1-.6-.2-.9-.3c-.1 0-.7-.3-.7-.5q.1-.2.4 0l1 .4 2.1.8s.6.2.6 0l-.4-.1-.7-.3q-.3 0-.4-.3h.1l.9.2 1.8.7.4.3h.3c0-.3.3 0 .4 0l.3.3.3.2.2.3c.3.2.6 0 .6.4q0 .4-.3.4h-.2l-.3-.1h-.3q-.3 0-.3.2t-.3.4h-.2l-.3.2-1 .7h-.4q-.5 0-.8-.3l-.3-.2h-.2l-.5-.2-.2-.1v-.2h1.3q.7-.2 1.5 0l.2-.2h.5l.1-.2-.4-.2-.2-.1c-.2-.3-.5 0-.8 0l-.4-.1h-.5q-2.1 0-4.1.4l-3.6.6h-1l-.6-.3-.8-.2q-.5-.3-1.1-.2-.2 0-.5.3l-.7.6-.6.8q-.2.4 0 1 .1.2 0 .4l-.2-.4-.2-.1-.1.4v.1c0 .2.5.3.6.3l.6-.1.3-.6h1.1l1.6-.3q.3 0 .3.2v.1h.6l.9-.2h.4q0 .3.3.5.7.4 1.4 0 .3-.4.8-.4h.2l.6.1h1.2q.6 0 .4.7v.4l-.2.3-.2.3v.3h.2l.5-.2.5-.3.2-.5.4-.7v-.2q-.1-.1-.2.1l-.5 1h-.2l-.1-.1.1-.6v-.7s0-.6.2-.5l.2.5v.1-.5c0-.3.4 0 .5 0h.4q.2 0 .3.2v.7l.2.6v.7q.3.1.4-.2l.6-.7.1-.2c.2 0 .4.6.5.3v-.4q-.4-.4-.4-1 0-.3.2-.4h.5v-.1h.5l.1-.2h.5q0 .2-.2.2-.2.1-.3.5v.4c0 .2 0 .8.3.8v-.3q0-.8.3-1.3l.2-.4.3-.1h.3l.4-.2.3.1.3.3.6.1h1.1s.7 0 .6.2l-.5.2h-1.6q-.3.1-.3-.1t-.3-.1q-.2 0-.2.2h-.1c-.2 0-.3-.3-.5 0l-.2.3q0 .3.3.2h.6l1.6-.1q1.5 0 2.9.2h.8q.4-.3.5-.9l.2-.6q.3-.8.2-1.5-.6 0-1.2-.4-.4 0 0-.3v-.3H132v-.1l.2-.3.7-.4.1-.3.1-.3q-.2-.2-.4 0l-1.4.4-.4.1h-.8l-.1-.3.2-.1.4-.2.6-.5.4-.3.3-.6v-.6h-.4l-.3.2-.2.3q-.3.6-.7.9h-.6c.2-.1 1.1-.4.9-.7q-.4-.1-.6.1-.9.5-1.8.3-.7 0-1.3-.5-.9-.4-1.3-1.3l-.5-1v-.4q.2-.2 0-.4v-.5l.3-.3h.3c.2.1-.4.5-.2.6h.1q.2 0 .2.3l.2.2q.1.3-.2.3l-.1-.2q-.2 0 0 .3.4.8 1.3 1.1 1.3.8 2.7.6 1 0 1.8-.3l.3-.4.2-.2q.3.2.3.5.1 1-.2 2l-.4.5 1.1-.1q.4-.3.6-.8 0-.3.2-.2v.5l.1.9v.2q0 .3.2.2l.3.2v.6l1 .1s.4 0 .3.3q0 .5.3.5l1-.3a5 5 0 0 0 2.2-2l1-2c1.2-3.7-.4-8.6-3.4-10.9a21 21 0 0 0-5.8-3q-2-.6-4-.7l-4.5-.3-3.9-.5a5 5 0 0 1-3.4-3c-.6-1.2-.3-2.8.5-3.9q.7-.8 1.6-1.2 1.5-.5 3 0 .4 0 .8.3l.6.5q.2 0 .3.4v.2l.1.2.4.4 1 .6.4.4v.2q-.5-.1-.8-.4c-.1 0-.4-.3-.5 0l.2.4.2.5.4.4v.3h-.2l-1-1.2-.2-.2c-.2-.2.2.6.2.7l.3.4q0 .2.2.3c0 .1.5.4.3.5q-.2.1-.4-.2l-.4-.5-.3-.3s-.2-.5-.2-.2l.3.6q0 .3.4.6.6.6 1.3.7l.7.1c.1 0 .6.2.6-.1l-.1-.4q-.4-.9 0-1.8l.1-.4h.2v.4q.2 1.1 1.4 1.3.4.3.7.2h.2c.2-.1-.3-.3-.4-.3q-.3 0-.6-.4h.3l.6.2h.7v-.6l.7-.5 1-1s.7-.6.5-.8c-.2-.1-.4.3-.4.3q0 .3-.3.5-.4.6-1 .8-.2.2-.5.2l.1-.3.4-.1 1-1c0-.1.3-.5 0-.4l-.3.2-.3.4-.2.2-.5.3-.5.3q-.3-.2-.1-.5l.2-.2.1-.4q.3-.3.3-.8c0-.3-.4.2-.5.3l-.4.4q-1 .6-2 .3l-.8-.1h-.2l.2.2c0 .3-.5 0-.6 0q0-.2-.2-.3l-.4-.2-.5-.2-.2-.1-.1-.1v-.2l-.2-.3a5 5 0 0 0-1.7-1.2q-1-.5-2.2-.6l-1.4.2c-.7.2-.7.2-1 .5m9.5 31.5v-.6h-.1v.4zm.7 1q.3 0 .5.3l.2.1v.1h-.3v.2l.4.1h1.4v-.1l-.2-.2q-.2 0-.3-.2l-.3-.2h-.4l-.5-.2q-.3 0-.5-.3l-.3-.6.1.6zm-1.7-13.6v.1l.3-.3.3-.4.2-.1.1-.2v-.1h-.2l-.5.6zm.5 0-.2.2-.2.3.1.2.1-.1.4-.6.4-.2.3-.2v-.2h-.4l-.2.2zm0 .9-.3.3v.3h.1l.3-.4q0-.3.3-.5l.2-.1.2-.2h.2l-.1-.3h-.3l-.3.3zm0 .7-.2.5q.3 0 .4-.3l.1-.3.2-.2.2-.2v-.2l-.4.2q-.3.2-.4.5m5.6 4.7-.2.1-.2.1v.1h.4l.3-.2.4-.3.4-.5v-.2h-.1l-.1.2q-.1.3-.4.4zM132 98q-.2.2 0 .2h.4l.3-.2.2-.2v-.2l-.4.2zm-13.2 4.3v.4q.4-.2.3-.6l-.2-.2-.2.1zm.5.4.2-.6-.2-.2-.1.3zm.4-.3v.2h.2l.2-.4-.3-.2h-.2zm.8-1.6.2.2.3.1q-.1-.4-.4-.5h-.3zm.6 0 .3.2.2.1v-.2l-.2-.2-.2-.2-.4-.1c-.1.1.3.4.3.4m.8.1.2.1q0 .2.2 0l-.3-.3-.2-.1q-.1 0 0 .2m-2.6-9.5-1 .7-.5.4-.2.2v.1l.5-.2 2.5-1.5h.4l.2-.1v-.2q-.2-.2-.5 0l-.5.1zm-1.8 1.7-.3.3v.2l.4-.3q.2 0 .4-.3l1.1-.6.5-.2.2-.2v.1h-.4l-.4.2zm0 .5-.5.5v.2q0 .2.2 0l.1-.1-.1.2-.3.5q0 .2.2.2l.1.1.1.2.2.2v.4l.3.1h.2l.3.2h.4q0 .3.3.3 0 .2.3.1v-.3l-.1-.4h-.5v-.3h-.5l.2-.3h-.2l-.1-.2q0-.2.3-.2.1-.1 0-.2h-.4l-.1.1v-.2l.4-.2.2-.2v-.1h-.4l-.3.2-.2.2v-.1l.2-.3.9-.5.1-.2v-.1h-.5l.3-.2.4-.3.4-.2v-.2h-.3l-.9.6zm-5 9.7q0 .2.2.1h.5l.3-.1h.3l.3-.1h.1l.1-.2H113l-.4.1zm-2.3-3.1-.4.3-.4.4-.4.4-.4.5.2.6.2.4-.1.2-.2-.3-.2-.3-.1-.2h-.2v.8l.2.3.4.1.5.1h.5l.2-.3-.1-.4-.1-.4.2-.6.6-.9.3-.4.2-.2v-.2h-.6zm-2.8.9-.2.2v.2l-.1.2v.5l.2.3.1.3v.1l-.3-.2-.2-.3-.1-.2h-.2v.4l.2.2.3.3h.7v-.6l.2-.8.5-.8.3-.3.1-.2v-.1h-.5l-.4.1-.3.3zm17.6-2 .5.3.4.2h.2q0-.2-.2-.3l-.3-.2-.3-.2-.4-.1-.3-.2h-.6q-.1-.2-.2 0l.4.1zm6.4-1.9.4-.2.1-.4-.7.6zm-2-21.7h.3l.4-.3V75l-.3.1-.2.1zm-15 3.9h.2v-.1l-.2-.1-.1-.3-.2-.2v.3z" id="path11"/><path d="M86.3 69c.1-.2 0-.7-.2-.6s.1.5.2.6m1 22-.2.6c-.1.2-.5 1.3-.3 1.2l.1-.1q.3-1 1-2v-.2q-.4.1-.6.5M90 66.9q-.6.3-.8 1 0 .4-.2.3c-.5-.2.4-1.3.6-1.5l.2-.3c0-.2-.8.3-.8.3s-.5.3-.4.1q.2-.3.6-.5l.4-.3h-.3c-.6.1-1.3.7-1.8 1l-.3.5v.2q-.5.2-.6-.2-1-.6-2 0l-.5.4q-.2.1.1.2h.6q.7.3 1 .9.2.2.2 0t-.2-.5l-.4-.4.5.2.3-.2q.5.1.5.5t.3.2l.1-.1q.2.1.1.4l.3.1q0 .4-.2.7l-.3.6h-.3l-.3-.2v-.1L86 70l.1-.4-.1-.1h-.3l-.3.6q-.9 1.4-2.4 1.8l-.4.1c-.2.1-.4.6-.4.7 0 .2.5 0 .6 0h.4l1.5.3h.7q.4-.1.7.2c0 .4-1.1.4-1.3.4h-2.2v.2h.7l1.9.3.6.1-.3.4-.3.4-.3.3h-.4l-.7.3-.4.1.1.2h.4l1-.2q.3 0 .1.3l-.4.3q-1.2.6-2.6.2-.5-.2-.8.4l-2 1.3-.1-.2.7-.6.3-.3V77c.1-.2.9-.5.7-.7V76c.2 0 1.1-.8 1-1l-.2.1-.1.2h-.2c-.1 0-.4.6-.6.5l.2-.4.2-.3.5-.5V74l-.4.1-.8.6-3.5 3q-.7.4-.8.7l-.2.7q-.1.3.1.7c.3.2.2-.3.3-.4q.2-.4.6-.3h.4q.4-.1.5.2-.1.3-.5.4c-.2.2-.8.5-.8.9q0 .3.4.6l.8-.3 2.1-.5c.4 0 2-.5 2.3-.3s1 1 1.1 1.4q.7 1.6-.5 3-1.2 1.2-2.8 1.5l-1.1.2c-.3 0-1 0-1-.4v-.2h-1q-.5-.1-.4.4t.4.6h.3q.3 0 .2.4 0 .3-.2.5a1 1 0 0 0 0 1l.5.9q.3.7 0 1.3s-.3.5-.2.6c.2 0 .7-.7.7-.8q.2-.4.1-1s0-.7.1-.5c.2.2.3 1.2.6 1.2l.2-.4q.1-.8-.2-1.7c.2-.3.6.7.7.8q0 .5.4.4c.3-.4.1-1.5-.1-1.8l-.3-.4q0-.2.2-.3l.6-.2 4.7-1.7.8-.3h.5l1.2-.9s.6-.4.6-.2l-.2.4q-1.2 1-2 2.3t-1 2.9l-.3 1.5.2.6-.3.6-.6 1-.2.4q.2.3.6.1h.5l.3-.8.6-3.2.3-1q0-.2.2-.3c.3-.2.9-1.1 1.3-1.2v.1l-.2.4-.8 1q.2 0 .3-.2s.6-.4.7-.3q0 .3-.4.5-.7.6-.9 1.9v1c0 .3.3-.3.3-.4l.4-.5c.1-.2 1.3-1.6 1.5-1.2q0 .2-.3.3l-.4.4a6 6 0 0 0-1.2 2.3v.8q0 1.8.7 3.5l.3.5h.1l-.2-.5q-.6-1.6-.5-3.3l.1-.3q0-.1.1 0V94q.1 1.6.8 3s.5.8.6.6v-.4l-.3-.8-.4-1.6V94l.2.2v.9c0 .1.1.6.2.5v-.5a7 7 0 0 1 1.5-4.4l.4-.3v-.6c0-.2-.3.2-.3.2l-.7.8H89l.3-.9-.2-.4a7 7 0 0 1 .5-5.9q.3-.8 1-1.2.3 0 .2.3l-.4.2-.4.7c.1-.1.5-.5.7-.4s-.2.3-.3.4q-.5.3-.5 1l.7-.7q.3-.2.4 0v.2l-1 .7q-.4.6-.4 1.3l.6-1c.1-.2.8-.9 1-.7v.2l-.5.4c-.8.7-1 2.3-1.2 3.4l.1 1c.3.4.4-.6.4-.7q0-1.3.3-2.5s.3-1 .5-.7v.6l-.3 1q-.4 2.3.7 4.4a7 7 0 0 0 2.6 2.8l.5.2-.2-.4-.7-1c-.5-.9-.1-2 .4-3q.6-.8 1.5-1.6.6-.7.7-1.5v-.3h.1v.2q-.1 1.5-1 2.5l-1 1.4-.3 1.4q0 .5.2.8c.3.4.5-.6.6-.8q.4-1.3 1.2-2.5l.8-2-.1-1.8-.2-1.2q-.2-1.2.4-2.2l.1-.3h.2l-.1.4q-.5 2 .4 3.9a4 4 0 0 0 3 2c.1 0 .8.1.8 0q-.2-.5-.6-.5-1.1-.5-1.3-1.8-.3-1.2 0-2.4s0-.4.2-.4v.9q-.1 1.3.3 2.5c.2.3.2 0 .2-.1l-.2-1.6q.2-1.3.1-2.5V82h.1c.2 0 .2.6.2.8v2.6-.2l.3-1.3q.3-1.7-.3-3.2 0-.3-.3-.4l-.1-.5c.1-.2-.5-.6-.5-.8l.1-.2.3.2.6.8s.1.4.2.2v-.3c.2 0 .2.5.2.5 0 .1.3.9.4.8v-.5l-.3-1.4c0-.1.1-.6.3-.5q.1.1 0 .4-.1 1 .3 2 .6 1.5 1.8 2.3 1.4.7 2.8.4l.3-.1q-.7-.8-1.6-1.1t-1.5-1.2l-.1-.3c0-.3.3.2.4.2l.8.7s.9.5.8 0c-.1-.2-.6-.1-.6-.4s.2 0 .3-.1V81l-.1-2.2q-.2-1.5-.6-2.8-.3-.7-.8-1.2-.3 0-.3-.4c.2-.3.7.4.8.5l.4.7q.8 2 .8 4.2v.9c0 .1.3 1.3.6 1v-.3q.1-.6-.1-1.2l-.3-1.8q0-.9-.4-1.7l-.6-1.6s-.5-.7-.3-.6l.5.5q.7 1.2 1 2.4l.1.9s.1 1.2.3 1V79l-.2-2.3q-.2-1-1-1.8-.2-.5-.8-.8l-.2-.1v-.2l.7.4q.7.5 1 1.2.4.4.5 1 .8 1.6.8 3.6v1c.1.7.4 1.9.8 2.4q.4.2.4.5-.1.4-.5.5l-1.2.3-1.2-.3c-.1 0-.5 0-.3.3l.3.2c.7.5 1.2 1.9 1.5 2.6q.7 1.3.7 2.7l-.2 1v.6h.2v-.5l.2-1.8v-.2h.2v.3l-.2 2.3V93q0 .2.2 0v-.7l.1-.8.2-1V89l.2.2q.2.7 0 1.5l-.1.9v1.8h.2V93l.1-2 .2-1q0-.8-.3-1.5c0-.2-.3-.9-.2-1 .1-.2.3.2.4.3l.2.4q.3.3.4.8v2.5l.1 2.2q0 .4.4.6l-.1-1v-1l.2-2.5a6 6 0 0 0-.5-2.2l-.3-.8-.5-.6-.5-.6c0-.1-.4-.6-.2-.8.3-.1.8.6 1 .8q.6.6.8 1.4 0 .3.3.3.2-.2 0-.6l-.2-.5-1.1-1.3-.4-.3q-.1-.2.1-.2.4 0 .6.4l.4.3 1 1.4.5 1.4.2.7c.2 1 1.1 2 2.2 1.9q.4 0 .7-.3h.4-.7q-.6.1-1.1-.5-.8-1-.8-2.3l-.1-1c-.2-1-1-1.8-1.5-2.5q-1-1-1.5-2l-.3-.6q0-.4-.5-.4l.8 2q1.2 1.3 2.1 3l.2.4h-.1l-.3-.4q-.5-.8-1.1-1.4l-1-1.1c-1-1.5-1-3.3-1.4-5.1v-.7q.2-.7.1-1l-.1-.4-1.2-1.6a9 9 0 0 0-2.6-1.7l-.5-.2v-.2q.5-.2 1 0 1.2.3 2.3 1l.9 1q.2.3.6.2l.8-.1c.2-.2-.4-.3-.4-.3q-1-.3-1.9-1-1-1-2-1.6l-2.3-.8c-.1 0-.6-.3-.4-.5s.9.3 1.1.1c.2 0-.2-.2-.2-.2l-.7-.2a9 9 0 0 0-3.5.2h-.3v-.2l.7-.4q2.3-.6 4.6 0 1 .4 2 .2c.4-.1-.2-.2-.3-.2l-1-.2-1.9-1c-.3-.4.4-.3.3-.4l-.4-.2q-1-.4-2-.4c-.2 0-.8 0-.7-.2 0-.3 1.2-.3 1.4-.2h.5q.1-.2 0-.2l-1.2-.4a8 8 0 0 0-5.5 1.8l-.5.3-.3-.1.3-.4.7-.6s.5-.3.3-.4H94l-.4.6-.5.2q-.6.3-1 .8c0 .1-.1.5-.3.3v-.6q0 .3-.3.4l-.2-.2q.2-.5.6-.9l.9-.5 1.3-.3.4-.2-1.4.1q-1 .2-1.8 1s-.3.3-.3 0l.3-.4q1.4-1 3-1.2l.2-.1c.1-.1-.3-.2-.3-.2h-1.9q-1.2.1-2.3 1M76.8 79.7l-.2-.1q-.1.1.2.1" id="path12"/><path d="M108.7 80.7q.6.2 1.2.1.3 0 .4-.4h-.3q-.7.2-1.4-.2l-.3-.2-.1.2q.1.3.5.5m1.7 3 .3.2.4.7q0 .2.4.4c.2-.2-.2-.8-.3-1l-.7-.7q-.2-.2-.5-.2l.2.3zm-9.2-1.2.8 1c0 .1.5.7.7.5l-.1-.3-.2-.2-1.1-1.4-.3-.4-.2-.1v.5zm.4 1.4c.2.1.5.6.7.5.2-.2-.3-.5-.3-.6l-.4-.4-.4-.4h-.1l.2.4q0 .3.3.5M100 89l.7.1-1-.3h-.1zm-16.2 5.2q.3.3.7 0c.1-.2-.5-.3-.6-.1zm2-2.4-.1.4-.3 1.3-.3.7q-.3.8-.9 1.2c0 .1-.3.3 0 .4h.2l.9-.2.6-.1v-1.9l-.2-.2.1-.4.4-2.3v-.3H86v.3z" id="path13"/><path d="M101 84.2v1.6l.3 1.5.3.7.2.3.5.4v.3l-.4.2q-.3 0-.1.2v.2q-.1.3-.4.2h-.4q-.2 0-.3.2l.2.7q.3 1 .8 1.8c.3.4 1.2.9 1.7 1q1 .4 2 .4l.5-.1q.2 0 .2-.2h-.5l-.7-.3a2 2 0 0 1-.7-1.1v-1l-.1-.4.2-1 .1-.8v-1.4h.1l.1.2.1.4v1.6l-.2.4v1.4q0 .6.4 1.1l.2.4.4.2v-.1l-.2-.6-.2-.4-.2-.6q-.3-.8-.1-1.7l.2-.8a6 6 0 0 0-.2-2.8l-.2-.4h-.2v.6q-.4-.2-.4-.4l-.1.1v.3l.3 1v.2l-.2-.1-.1-.5-.4-1.2-.2-.4-.2-.3-.2-.2h-.2l-1-.4c-.1 0-.8-.4-.6-.6h.2l-.2-.4q-.3 0-.2.3zm1.5 1.4.3.3.2.1v.2l.2.2.1.4-.2-.1q-.4-.7-1-1h-.3q0 .3.3.4.3 0 .4.3.5.4.6.9l.3.9q0 .3.2.2h.3q.2-.4 0-.7l-.2-.8q-.2-1-1.1-1.6-.4 0-.1.3m2.7 1.1.1.6v2l-.2.6v.9l.2.9v-1.8l.2-1.5v-.9q0-.7-.4-1.4l-.1-.3v.3z" id="path14"/><path d="m120 88.5-.2.3-.1-.3h-.3q-1 .8-2.3 1l-.5-.1c0-.3.6-.4.7-.4l.6-.1.7-.3h-.2l-.4.1-.8.1H116v-.3h.8c.1 0 1.2 0 1.2-.2h-2l-.5-.1V88q.2-.2.5 0h2.1v-.2h-.3l-1.6-.1-2.2-.3-.5-.1q-.3.2 0 .5v.4q.2.6.9.8h.8q.3 0 .3.2a5 5 0 0 1-1 2.2q-.7 1-1.7 1.7t-1.8.7q-.4-.1-.6.4.2.5.7 1 .6.4 1.3.5c.1 0 .5 0 .4.3l-.2.3-1.2 1.2c-1.3 1-2 1.5-3.6 1.3q-2-.2-3.2-2l-.4-.4q-.3 0-.5.3l-.6 1q-.4 1.3.6 2.1l.5.4q.3.1.2.3 0 .3-.4.5-3 1.6-5.8-.4l-1-.9q-.2-.2-.3 0-.3.1-.4.5t-.7.7a11 11 0 0 1-3.5 1.7l-.4.1v.5q.1.6-.1 1.1l-.1.3h.2c.2-.1.5-.7.6-1v-.3l-.2-.1v-.2q.4.1.5.4l.3.1v-.6q-.1-.3.1 0l.4.8q.5.5 1 .6h.9l.2-.1v-.2h-.3l-.5-.3-.3.1-.2.1q-.4-.1-.6-.4l-.3-.5v-.3l.4-.1h.2l.1-.1.2-.2 1.3-.6h.6l.4.3.3.1 1 .3.7.1q1.7 0 3.4.4l1.1.2q.4 0 .6-.2l1-1.2.5-1.4v-.4l-.1-.3-.5-1-.2-.8h.1q.3.1.3.4l.7.9q.5.6.6 1.5l-.2.8-.4 1.2h.4l.2-.6.3-.8q.5-.8 1.4-1.2h.6l.8.1.7-.4 1 .2 1-.2q.4-.2.7-.1 1 0 2 .4l.7.1.6-.3 1.2-.8.4-.3-.2-.2-.3.3-1.4 1-.3.1v-.1l.2-.2.4-.3.5-.4.2-.2q.3 0 .3-.2-.2-.2-.4 0l-.4.4q-.3 0-.6.4l-.3.2h-.1q0-.3.3-.4l.4-.3.3-.2q.2 0 .2-.3h-.4l-1 1s-.3.3-.3.1q0-.3.3-.4l.4-.4.5-.5q-.4-.3-.8.2l-.5.5v-.3l.3-.3.3-.3-.1-.2q-.7-.4-1-1.1c-.1-.7.4-2 .6-2.6a8 8 0 0 1 1.4-2.4q.7-.6 1.6-1 2-.7 3.8-2l.5-.6.2-.3v-.2l-.4.3q0 .2-.2.2-.1-.2 0-.4h-.3l-.2.3-.2.4h-.2q0-.5.3-.7l.3-.3h-.4q-.6.5-.9 1.2m-24 13.8h.2zm-.7-.2v.2q.3 0 .5-.2l.2-.1-.2-.1q-.3 0-.5.2m-1 1.5s.4 0 .2-.1c0 0-.3-.7-.4-.5v.3q0 .2.2.3m-1.9.8.3-.3v-.1q-.4.2-.3.4m25.1-4.6v.2l.5-.2.3-.3.2-.1v-.2q-.4 0-.6.2zm-.7 0-.3.4h.2l.3-.1.5-.5.2-.2h-.4zm-.9.3v.2q.5 0 .6-.4l.3-.3.3-.2h-.3q-.3.1-.6.5zm-.7-4.9v.3c.3.1.4-.4.4-.5l.2-.4v-.3l-.3.4z" id="path15"/><path d="M96.7 91.1v.7l.2.5q0 .3-.3.1-.2-.3-.2-1v-.6s.3-.6.1-.7l-.2.2-.6 1.5c-.2.7.3 1.8.6 2.4q.7.8 1.6 1.2s.6.3.5 0v-.3q-.5-1 0-2l.3-.2v.5q-.3.4-.2.7c0 .3.2-.4.2-.4l.4-1 .4-.3c.2-.1-.1.4-.1.4q-.5.7-.5 1.5l.2 1q0-1.2.6-2.1l.5-.8q.2-.2 0-.5l-.3-1.2v-.5q0-.3-.3-.2l-1.5-.4q-.3 0-.4.4l-.5 1.2s-.2.9-.4.6q-.1-.4.1-1l.2-.5.2-.6c0-.1.3-.5.1-.4l-.1.2q-.4.7-.6 1.6m3 2.8s0 .6.1.3l.2-.4.2-.5.2-.6c-.1-.1-.4.5-.5.6zM95 94q.1.7.7 1.1l.5.4v.2q-.1.2-.4.1h-.7v.5q0 2-.9 3.7-.5.8-1.2 1.3l-.2.2q0 .2.2 0l.4-.1c1.4-.8 2.1-2.4 2.2-4v-.6l.1-.1c.2.1.2.7.2.9q0 1.5-1 2.8c0 .2-1 1-.8 1.1l.5-.2 1.3-1.4q.3-.6.4-1.4l-.1-.5-.2-1.4c.2-.3.3.4.3.5l.2.7q.1.5.5 1 .8 1.4 2.2 1.7.8.4 1.7.5l.8-.1-.7-.1q-1.5-.4-2.8-1.2-.7-.5-1-1-.3 0-.3-.4h.1l.1.1 1 1c.7.3 1.7.9 2.4 1q.4.2.3-.2-.3-.6-.2-1.2t.7-1l.4-.4.1-.3.2.1-.3.5q-.3.5-.2 1.1v.6l.3.4v-.3q-.3-1.4.5-2.5l.6-1.2v-.4c-.2 0-.3.5-.4.6h-.1l.1-.5q.3-.5.2-1c-.1-.1-.3.5-.3.6s0 .6-.2.5 0-.5 0-.6l.1-.6-.1.2-.1.3-.1.3h-.1q.2-.7 0-1 0-.2-.2-.2l-.8-.8q0-.2-.3-.1l-.2.1c-.2.5-.6 1.6-.3 2.1q.5 1 1.7 1h.2c.3 0 0 .2 0 .3q-.8.8-1.9.7-.7-.1-1.6-.5l-1.9-1.7c-.8-.7-1-2-1.3-2.3zm7.2 4.7q0 .2.1 0 0-.4.3-.7t.1-.6l-.3.4-.2.7zm-1.3.7q0 .4.3.8l.1.3h.3l-.1-.5q-.4-.5-.3-1 0-.3-.2-.4-.2.3-.1.8m11.7-8.4v.2h.7l.3-.1.1-.1q0-.2-.2-.2h-.2l-.4.2zm-2.5-.6.3.3q.4.4.8.3l-1-1.4v-.1l-.1.1zm1.4 1.4h1v-.2h-.5q-.8 0-1.5-.3l-.2-.1h-.1v.2l.2.1q.5.3 1.1.3m-.4.7h.6l-1-.2h-.5v.2zm-2.9.7.2.6.1.2.1.1v-.4l-.1-.7v-2l-.2.8z" id="path16"/><path d="M89.3 94.7q0 1 .6 2 .5.8.6 2l-.3 1v.4q.3 0 .4-.3l.3-.5q.3-.9 0-1.9l-.3-1.1q-.6-1.2-1-2.5v-1.2l-.1-.1h-.1v.3l-.2.3zm.5-2.4q-.1 1.1.4 2.2c.3.8.9 1.7 1 2.2l.2 1.5v.4h.2l.1-.2v-.6q.1 0 0-.4l-.2-.7-.3-.6-.6-1.5v-.2h.1l.3.5 1 2.4v1.4l.2.2v.4l-.2.4-.1.3-.4.3q-.4.5-1 .8l-.4.2-.1.2.1.2h.6l.8-.6.9-.9.8-1.4q.3-.8.3-1.7v-1.5l.2.2q.3.8.2 1.5 0 .9-.2 1.6 0 .7-.6 1l-.6.9-.2.2v.1h.2l.2-.2 1.3-1.5q.5-.8.6-1.8l.1-.9v-.3l.1-.1v-.7h-.3q-1.6-.5-2.7-1.5-.9-1.1-1.3-2.5l-.2-.5h-.2v.1q-.3.6-.3 1m1.7 7.8q-.2 0-.1.1zm17.7-4.4.2.1q.1 0 0-.2l-.2-.2h-.2zm-.2.4h-.2zm-4.7 0 .5.6.6.5.8.6 1.4.5q1.1.3 2.2-.1l.3-.1v-.1h-.3c-.5.2-1.5.2-2 .1q-.7 0-1.2-.4l-1.2-.8-.4-.6-.3-.3-.3-.3-.1.1zm.7-.4-.2-.2v.2zm.2-.2.4.6.3.1-.2-.3-.2-.5-.2-.4h-.3zm1.6-.8-.7.1-.4.1v.5l.3.3.5.6.6.5q1.5.8 2.9.3l1-.5v-.2l-.6-.3h-.3v.3h.2v.1H109l-1.4-.6-.3-.4V95h.2l.2.1.1.1V95q0-.2.2-.2l.2-.1v-.2l-.1-.3-.2.1h-.2zm-.5 1 .6.6h.2l-.1-.2-.3-.3-.4-.4-.3-.3h-.1v.2zM83.6 97l-3.7 1-1.4.1H76l-.6-.2-.8.2H73q-1 .3-1.7.9-.8.6-1.3 1.4-.3.8-1 1.3l-.2.3-.1.2-.2.2.2.5-.5-.2v.2l.2.4h.7l.3-.2h.4q.4-.5.4-1 .1-.3.4-.4l.5-.2.7-.1.2-.2.1-.2q.6-.7 1.7-.8h.3l.8-.8q.4-.2.8 0l.7.2q.3 0 .4-.2t.6-.2q.8-.2 1.4 0 .3 0 .3-.2h-.6l.5-.2h1q.2-.2.4-.1.3.2.5.1h.2v.1h-.5l-1 .2v.1l.7.2 1 .1q.9 0 1.8-.3l.3-.1c.1 0-.2 0 0-.2l.5-.3s.5-.2.2-.2H84c-.2 0-.8.2-.9 0l.3-.1 1-.3 1-.3.3-.1v-.1H85l-2 .7-.6.2v-.2q0-.2.6-.2l2.5-.7.6-.1.2-.1H86l-.9.2h-.3l-.2.1-.4.2-2 .5-.4.2V98l.2-.1.5-.2.6-.2 1.7-.7.8-.3h.4v-.2l-.5.1zm-3.3 2.2h.3L82 99l.3-.1v-.1H82zm.9.2h.4L83 99h-.4l-1 .2q-.3 0-.3.2m-13.5.8-.8.2q-.3 0-.5.4v.8l-.3-.1v.3l.1.5.6-.5.6-.4q.3-.2.3-.6l.2-.3.5-.3.5-.2s.4-.2.3-.3H69zm.8.7-.3.3-.3.3-.5.3-.2.2v.3l.3.2v.1q-.3 0-.5-.3l-.1-.1q-.2.3.1.5.3.4.6.5t.1-.3l.2-.6.9-.8.4-.7.3-.4q0-.2-.2-.2l-.3.1q-.3.2-.5.6m16.7-4h.6l.3-.1v-.2h-.5z" id="path17"/><path d="M74.8 100.4q-.4.4-.5 1l.1.4c0 .1.5.6.3.6h-.3q-.2.2-.4 0l-.1.2q.2.3.7.3l.7-.2q.2-.2 0-.4v-.7l.6-1.2.2-.4q-.1-.2-.4-.2-.5.2-.9.6m-2 .8q-.2.2-.1.6l.3.4q.2.4.5.2l.2-.3v-1s.3-.5 0-.5l-.3.1zm-.3 1.4.3.3c.1.1.8.7 1 .3q0-.4-.3-.4h-.3l-.2-.3-.5-.4-.1.2zm13-3.6q-.9.1-1.8.5l-.8.2-1.4.2H80l-.6-.2h-1.9q-.3 0-.4.3l-.4.6-.4 1 .2.4.3.5q-.2.2-.3-.1l-.4-.6-.3-.1-.1.4.2.5.3.1h.8q.5 0 .9-.3l.1-.3q0-.4.3-.3l.7.4h4.2s.5 0 .3-.2l-.4-.2h-.5l-.2.2v-.3l.1-.2q.2-.4.3-.3h.3q.2-.1.4 0h.2q0-.2.4-.3l.9-.4s.3 0 .1.2l-.4.2-.5.1-.2.2h.2l.7-.3q.2.1 0 .2h-.1l-.4.2H84v.3l.5-.2.1.1-.3.2q-.2 0-.2.2 0 .6.2.9h.2l.9-.1.5-.4.2-.3q.4 0 .7-.3v-.1h-.5v-.2h.4v-.1l-.3-.1v-.2h.4q.5 0 .7.4l.3.6q.2.5.2 1.2l-.1.3v.1q.3-.1.4-.4v-.2l.2-.3h.1v.4q-.3.9-1.1 1l-.3.2v.2l.7-.3.8-.7.1-.2.2.1-.1.4-.4.3-.3.3-.1.1h.1l1.2-.6.2-.1v.1l-.2.4H89v.2h.6q.8-.4 1.4-1.1l.2-.3c.2-.4-.2-.4-.4-.4q-1.3.1-2.4-.7l-.3-.4c0-.1-.4-.4-.2-.5h1l.7-1v-.8l-.6-1q-.1-.4-.4-.3l-.6.1zm-6 2.8v-.2s-.4.3-.1.3m.3 0 .1-.2zm.5 0v-.2zl-.1.3zm.2.2.3-.3v-.2l-.2.3zm.5 0h.2s.3-.5.2-.6h-.2v.3zm.4 0 .3-.2.1-.5-.2.2-.1.2zm.4 0 .5-.5v-.3l-.4.4s-.2.4 0 .4m6.8 3h-.3q.1.3.4.2l.9-.1q.2-.1 0-.2z" id="path18"/></g><path d="M93.7 90v-.7l-.1-.5q-.3.2-.3.5l.1.4zm4.8-3.8q.2.8.8 1.4c0 .1.5.4.6.2l-.3-.3a3 3 0 0 1-.9-1.6c0-.1 0-.6-.3-.3zm3.8-5q.6 1.1 1.8 1.7s.6.3.7 0l-.5-.3q-.6 0-1-.6-.7-.6-1-1.5l-.1-.2c-.3.2 0 .7 0 .9m-3-10c-.3 0-.7-.4-.9 0q0 .2.4.2h.6q.2-.2.4 0 0 .2.3.3t.2.2v.2l.2.1q.7.4 1 1l.1.4c0 .3-.3-.1-.3-.2-.1-.2-.4-1-.7-.9s.1.4.1.4q.4.5.6 1.2l.5 1.2s.1.5 0 .4q-.3-.1-.3-.4l-.4-1.4-.2-.3-.2.1.2.4.2.5v.6c.1 0 .3.6.1.6s-.3-.6-.4-.7c0-.1 0-.5-.1-.4q-.3 0-.1.4a2 2 0 0 0 1.1 1.6q.4.3.7.1h.3v.1q-.4.3-1 .3-1 0-2-.6T98.1 75l-.2-.4v-.2l-.1-.3h-.1l-.1.6h-.3q0 .4.2.6.6.7.7 1.6v1l-.1 1.1-.1.5.1.6.3.2v.5c.2.1.3-.3.4 0l.3.8q0 .3.3 0V81l-.6-1-.4-.7.2-.7.1.4.2.6q.2-.2.1-.5v-.4l.3-.9v-.4q0-.4.2-.4l.3.2 1.2.5q1.7.6 3-.5v-.3q0-.2-.3-.2c-.6-.3-.9-1.2-1-1.9q-.5-1.3-1.2-2.5-.7-.9-1.6-1.3l-.4-.1q-.2 0-.2.3m-6 .6v.6q0 .2.2.2l.4-.1 1 .1s.5.4.5 0l-.2-.2q-.6-.4-1-.3h-.5l.5-.3q1.2-.2 2 .6c.1 0 .5.4.6.2q0-.3-.3-.5-1.3-1.2-2.8-.5zm.2 1.2q.1.3.4.2h.4q.3.2.7.1c0-.3-.6-.5-.8-.5q-.5 0-.7.2m3.9 6q-.2.4 0 .7.4-.2.3-.5l.2-1c0-.1.2-1 0-.9s-.3.6-.3.8zm-1.6-8.6q.2.4.6.2s.7-.3.5-.5h-.6q-.4 0-.5.3m-.9-1s-.5.3-.3.5q0 .2.3-.1.6-.6 1.4-.7s.7-.2.6-.4c-.1-.1-.7 0-.8.1zm-.5-.7-.5.2c-.1 0-.6.3-.4.5s.3-.2.4-.1c.2 0 0 .4.2.4q.2 0 .3-.2.2-.3.6-.5l1.1-.4.4-.2v-.2l-.7.2-.5.2-.3.1v-.1l.3-.2.8-.3.4-.3q0-.3-.2-.1-1 .3-1.9 1m-7.3 2v.2h.4c.2.2.6-.3.4-.4h-.4l.2-.3V70c-.3 0-.6.5-.6.7m.8 2.2s-.5.6-.4.7h.2q.3.5.7.6.2 0 .3-.3c0-.2.6-1.2.9-1.2l.3.6-.4 1.2q-.2.3 0 .5h.1q.2-.1.3-.4h.3l.2-.4q.3-.6.2-1t-.2-.7q-.3-.5-.9-.6-.9.2-1.6 1m1.4-2.3q-.9.2-1.6.7l-1 .7-.5.1c-.1 0-.2.7 0 .8h.5l.4-.4.4-.6c.7-.6 2.9-1.2 3.5-.3q.5.8.5 1.7 0 1.4-1.1 2.4-.3 0-.3.4c0 .4.6 0 .4.3 0 .1-.4.6-.2.7q.4-.2.5-.6l.1-.5v-.2c.2-.2.2.2.2.2l-.2.7s-.2.4 0 .4l.3-.3.2.2q.4.5.1 1.1-.2 1.4-1.5 2l-.4.4q-.3.3.2.4.4.3.7.3l.8-.3 1.1-.9c.1 0 .5-.4.3-.5l-.2.1-.8.8-.5.2.3-.4q.9-.6 1.3-1.6.1-.4 0-.8 0-.3-.1.2-.3 1.2-1.2 2h-.2c-.2.1.2-.4.3-.4q.5-.7.8-1.6.4-1.3 0-2.7-.1-.5-.5-1l.4-.6v-.2l.2-1c-.1-1.7-2-2.2-3.2-1.9m4 3.8q0 .2.4.6.3.7.3 1.6s0 .8.2.5c.2-.2 0-.9 0-1.1l-.2-1s-.2-.5 0-.4.3.5.4.6q.2.7.1 1.4s0 .5.2.4 0-1.1 0-1.3v-.4q.5.5.3 1v.8h.2v.6q-.1 1.1-.7 2.1c-.5.6-1.3 1.4-2 1.3q-.4 0 0-.2l.2-.4c0-.3-.3 0-.4 0q-.5.6-1.1.7s-.4 0-.3.1l.6.2h.5c1.2 0 2.5-.5 3-1.7.6-1 .5-2.4.6-3.6v-.6l-.4-.1c-.1-.2 0-.8-.5-.6-.2 0-.3-.5-.5-.6h-.4q-.3 0-.4-.3l-.2.1zm-4.7 7v.2c0-.1-.5-.6-.5-.3v.5l-.2-.3-.4.2c-.3-.1-.1.7-.3.8l-.3-.4v.4q0 .3-.2.3t-.3.4-.1.7l.2-.2q0-.2.2-.1l.3-.2h.2l.2-.4.1-.3v.4l.4-.1.7-.4q.2-.2.2-.5l.1-.3v-.4q0-.3-.2-.5-.3.2-.1.6m5.3.8-.7.6-.4.6q-.7 1.5-1 3.2s0 .6.1.5h.2v.4l.2.4q0 .3.2.5v-.2q0-1.7.8-3.2l.6-.8.2-.2c0-.3-.4 0-.5 0q-.7.8-1 1.8l-.2.7v-.2l.2-.9.6-1.3.6-.6q0-.2.3-.2.4-.2 0-.4H94q0-.3.2-.4l1-.8.2-.1v-.3c-.2-.3-1.1.7-1.4.9m-.8 4.1-.4 2 .1.4q.3 0 .2.3l.1.6c.2 0 .2-.5.2-.6l.1-.7.1-.5q0-.4-.2-.1l-.1.2q-.1.3-.2 0 0-1.2.6-2l.1-.3h-.1q-.5.2-.5.7m1.6 1.7-.6.9v.4c.2.2.4-.3.4-.4l.7-1q.9-1 .7-2.2v-1l-.1-.6c-.3 0-.3.8-.3 1q0 1.5-.8 3m-3-12.8c.2-.3-.3-.7-.2-.2zM78.2 23.1l2.7 2 .7.4v.2l-1-.3q-2.3-1.2-4.4-2.8-1-.7-1.8-1.6s-.7-.7-.6-.3l.2.5a17 17 0 0 0 3.1 4.6c1.3 1.3 3.6 2.8 5.2 3.5l.5.4q-.4 0-1.1-.3l-2-1a28 28 0 0 1-4.7-3q0 .4.3.7a9 9 0 0 0 2.3 2.7 21 21 0 0 0 5.6 3.6q.2 0 .3.3h-1.1q-1.8-.3-3.5-1.2l-1.7-.8h-.3l.4.5 2.3 2 2.6 1.4q.8.4 1.8.6s.6.2.5.4l-1.3-.1q-1-.1-2-.6s-.5-.3-.5-.1l.2.2 1.4 1c1.2.7 2.9 1.2 4.2 1.2 0 0 .7 0 .5.2l-.3.2-2.3.2h-.8c-.2.2 1 .6 1.5.8q.8.4 2.1.4c1 .1 2.7.2 3.7-.3q0 1 .3 1.8 0 .4.4.1l1.2-.8v.5c0 .3.1 1.6.7 1.3l1.2-.8.2.8.4 1c0 .3.4-.1.5-.2l.6-.6c0 .2.5 1 .8.9l.6-.8.3.2h.5l.4-.7q.3-.7.6 0 .3.2 0 .6 0 .3-.4.5l-.5.3c-1 .2-2.7.5-2.6 2V46q0 .5-.6.5-.5-.1-.4.2.4.3.7.3l.7-.1q.2.1.1.4 0 .8.3 1.4.1.3-.2.4l-.5.4c-.2.2-.7.8-.9.3q0-.7-.3-1.4t-.6-1.1l-.4-.4q-.7-.2-1 .5-.1.3-.4.2l-.4.2c-.1 0-1.2.6-1 .8q.3.2.5-.1h.7l.4.2q-.9 0-1.2.9l-.2.4-.3.3c0 .2-.3 1 .2 1q.2.1.2-.2l.1-.2q0-.2.3-.1.3 0 .2.2v1.1q0 .5.4.8c.4.3.4-.4.5-.6l.4-.1.4-.1h.3c.1.2.8.9.7 1 0 .2-.5-.1-.6-.1-.3-.1-.5.4-.6.6q-.1.3-.4 0c-.2 0-.4-.5-.6-.2-.2.4.3 1 .5 1.2q1.2 1.2 2.3.2.7-.8.4-1.9l-.2-.6q0-.4.2-.6l.7-.8 2-1.2 1-.5q.5.1.3-.4l-.2-1.3q-.1-.5.1-.6h.5l.3-.3q.3-.2 0-.3a1 1 0 0 1-.6-.8v-.4c.3-.4.8 0 1 .3.8.7.6 2.6 0 3.4a3 3 0 0 1-1.6 1q-.5 0-.6.4.2.5.8.5s.4 0 .3.2a7 7 0 0 1-2.3 1.8q-.4 0-.4.3l.5.5q.7.6 1.7.8.2 0 .1.1-.5 1-1.2 1.6l-.5.4c-.3.3.7.4.8.4a4 4 0 0 0 3.6-1q.2 1.5 1.3 2.6.2.3.4 0l.3-.3q.6-1.1 1-2.4c1 .4 2.2 1 3.7 1 .2 0 .7.2.6-.2l-.3-.4q-.7-.7-.9-1.8.8-.3 1.2-.9c.1 0 .8-.6.5-.7h-.4a3 3 0 0 1-1.5-.9l-1.3-1.3.6-.4.3-.2q.1-.3-.2-.3l-.3-.4q-.8-.6-1.2-1.6c-.3-.8-.5-2.5.5-2.6q.3 0 .5.2.1.8-.6 1.3c-.1 0-.5.2-.3.4l.8.2c.2 0 .8-.1.7.2l-.5 1q.1.6.7 1 .8.7 1.7 1l1 .5q.4.3.5 1l.2.7q-.1 1 .4 1.7c.5.8 1.5.7 2 0l.4-.6c0-.1.4-.7.1-.7l-.4.1c0 .2-.4-.1-.6-.1l-.6.1v-1.5l.2-.7q.3 0 .4.2 0 .4.4.7t.7-.3l.3.3.2.4q.3 0 .5-.2 0-.5-.4-1l-.2-.7q0-.4-.4-.6-.1-.1 0-.4.1-.1.4 0l.7.5h.2c.1-.5-.5-1.3-.8-1.4q-.4 0-.3-.3-.2-.6-.8-.4l-.2-.1q.1-.3.5-.3c.1 0 .8.3.7-.2s-.9-.5-1.3-.5q-.3 0-.4-.2-.4-.3-.8-.2-.6.4-.8 1-.4 1-.2 2v.6h-.3l-.4-.4-.5-.4q-.4-.1-.4-.4l.1-.3.2-.4.7-1.7q.1-.4.5-.3.9-.1 1.3-1.1.1-.4-.2-.3l-.2.1q-.7.3-1.3-.3-.3-.9-.8-1.5-.5-.3-1.2-.3l-.5-.1q-.5-.5-.5-1t.3-.7h.2c.3.2 0 .4.2.7 0 .3.8 1 1 .7.2-.1.4-.7.6-.7q.3.1.5.4l.6.7q.3-.3.4-.7c.1-.3.2-.7.6-.4l.1.1c.2.2 1 .7 1.1.4l.3-1q.1-.6.4-.3.4.5.9.7c.3.1.4-.5.5-.7v-.7q.3 0 .5.3c.2.2.9.6 1 .1s.2-1.3 0-1.6v-.3l.2.2c.8.4 2.6 0 3.5-.2q1.8-.5 3.1-1.7s.5-.3.4-.5l-.5.1-.8.3-2 .1q-.4 0-.7-.2l.4-.1 1.6-.5q2-.8 3.7-2.3c0-.1.9-.7.8-.9h-.4l-1.1.7-3 .9s-.8.1-.8 0c0-.2.6-.3.7-.4q1.8-.5 3.5-1.6a16 16 0 0 0 3.8-3.6l.2-.2q0-.2-.2-.1l-.2.2a17 17 0 0 1-7.8 3h-.6l.1-.1h.4a17 17 0 0 0 5.2-2A13 13 0 0 0 130 26v-.6l-.3.3q-1.1 1-2.5 1.6l-3.3 1s-.4 0-.3-.1c0-.2.5-.3.6-.3a15 15 0 0 0 6.8-5.2s.3-.4 0-.5l-.4.2q-1.6 1.5-3.7 2-.4.3-.5 0t.3-.3l1.4-1q1.7-1.6 2.7-3.7s.6-1 .3-1q-.4.2-.6.5l-1.4 1.3q-3 2.3-6.7 3l-3.5.4-2.1.5q-.5.3-.6 0 0-.4-.3-.7s-.3-.6-.4-.4l-.2.3q-.4.8-1.2 1.4l-.4.2-1.2.4c-1.3.5-3 1-3.2 2.7q0 1.4.5 2.6.4.5.6 1.2c.4 1 .3 2.3-.6 3l-.5.2c-.4 0-.1-.4 0-.5l.3-.5q.5-.4-.1-.5t-.6-.6l.7-.6c0-.1.5-.7.2-.9h-.1q-.4 0-.7-.3-.7-.5-.2-1.1l-1-1.2c-.1-.4.4 0 .5 0v-.5l-.2-.3c0-1 .1-1.8-.6-2.5l-.2-.2q-.2-.2.1-.3c.4-.2 1-1 1.1-1.4 0-.1.6-1.5 0-1.1l-.3.3c-.5.7-1.7.5-2.5.4H103l-1 .2q-.5.4-.8 1h-.3q-1.2-.1-2 .7-.3.5-.2 1.2c0 .1.1.7.3.6q.4-.1.7-.4.5-.2 1.1-.1.4 0 .6.4-1 0-1.8.4-.5.4-1.2.3L98 27v-.8c-.2 0-.4.6-.5.7q0 .8.2 1.5 1.3 1.4 2.5.2l.5-.4q0 .6.2 1 .3.7 1 .9l-.5.5q-.5.4-1.2.4h-.4q-.3 0-.3.3.3.6.9.7l.2.1c.2.3-.5.5-.6.5q-.7.3-1.3.2-.4 0-.5.2c0 .3.6.6.9.6l-.2.3q-.6.4-.9 1 0 .6-.2 1.1 0 .3-.2.1-1.4-.5-2.2-1.8-.8-1.1-.4-2.6.6-.9 1.4-1.7 1.2-1.2.4-2.8-.4-.6-1-1-1.3-.8-2.7-1.2l-.5-.2q-.9-.7-1-1.9 0-.5-.3-.2-.4.4-.5 1l-.2 1-1.5-.4-5-1q-2.7-.6-5-2-2.4-1.3-4.3-3.4-.1-.1-.2 0v.3l.5 1.2c.7 1.3 2 2.8 3 3.7m23.7 5.1q.4 0 .6-.4l-.5-.3-1 .4q.4.4.9.3M112 49l.3-.1.1-.3V48h-.2l-.1.2-.1.2zm.5.8h.4l.2-.1v-.1q0-.2-.3-.1l-.3.1zM94 49.3q.2 0 .6.4l-.1-.5-.3-.3h-.6zm-1.3 1.2.5.1v-.5H93z" id="path19"/><path d="m103.6 25.5.2-.1.2-.1h.2l.2-.2V25l-.3-.1h-.7z" fill="#fff" id="path20"/><g fill="#ffe400" id="g21"><path d="m99.6 27.6-.8.3q-.7 0-1-.5 0 .6.5 1t1 .2q.8-.4 1.5-1l.5-.2h.3v-.2h-1.1q-.4 0-.9.4m-.3-2.2v.7h.3l1.1-.2q.7.2 1.2.8l.5.5.3.1.3.1h.2v-.1q0-.2-.2-.3t-.2-.2l-.9-1-.6-.8v-.2H100zm3.5 2.8-.2.1-.4.2h-.5l-.6-.2.1.5q0 .3.4.6l.4.3h.5q.3 0 .3-.2l.3-.5.3-1v-.2h-.3l-.2.2zm-2.1-2.5h.6v-.2h-.5l-.3-.1h-.2l.1.2zm10.9 21.2-.2.3-.1.4-.1.3V50q.1.1.4 0v-.9l-.1-.4.1-.8v-.3h.6l.2.2q.2 0 .2-.3l.1-.2V47l-.1-.1-.2-.2-.2-.2q-.3 0-.6.3m1 1.9.2.2.2-.1h.2l.3.1.1-.2.2-.2h.3v-.2l-.1-.1V48h-.1l-.2-.2h-.3l-.2.2-.2.1-.2.3zm0 1.4h-.2v.2h.3q0-.2.2-.2h.3l.2.1v.4l.2.2h.1l.1-.2.1-.1.2-.2-.1-.4q-.3-.3-.6-.2h-.3l-.2.3zm-4.7-2.7-.2.3q-.2.1-.3.4l.1.5.2.3.2.1.2.2.4.1.7.3 1.5.8.6.5V52l.2.7v.2q0 .2.2.1v-1.8l.2-.3.3-.3-.1-.3h-.2l-.1-.1h-.4l-.1.4-.2-.1-.3-.3-.4-.4-.9-.5-.7-.4-.3-.3-.3-.1-.1-.1-.1-.1v-.2l.1-.2h.5l-.1-.2-.2-.1v-.1h.5l-.1-.2h-.2V47l-.2-.2h-.2l-.2.1zm3.9 6.4q0 .3.3.4t.4.1h.3l.2-.3-.1-.2v-.3l-.1-.1h-.2l-.2.1-.1.2-.3-.1q0-.2-.2-.3h-.2q0 .3.2.5M94 54l.1.2v.1h-.5v.2l.6.2h.2l.3-.1.3-.2.2-.2V54l-.4-.2-.4-.3-.2-.2-.2.2v.4m-1-6h-.5v.1h.4v.2l.2.1h.4l.2-.1.2-.2.4.4.1.2h.2v-.1l-.2-.2-.1-.2-.2-.3-.3-.3h-.3q-.2 0-.2.2l-.1.1zm-.4 3.5h.7l.1-.3q0-.2-.4-.3h-.5l-.1.2v.2zm5.5-4.3h-.3l-.7-.2.2 1.7v.3l-.7.5-.7.6-.5.5-.4.3-.2-.2-.3-.3-.6-.6-.4-.2q-.2 0-.5-.3h-.6v.1l-.1.2H92l-.2.3v.2h-.4l-.2.3v.2h.2l.1-.1q0-.2.3-.2h.4l.3-.5q.1-.2.4-.2l.3.3.2.4v.7h.5l.2.2.2.2.2.3.2.2.2.1v-.5l1-1 .5-.4.6-.5.8-.5.9-.5v-.4l-.1-.8V47l-.3-.2q-.3-.1-.2.1z" id="path21"/></g><g fill="#999" id="g24"><path d="m122.4 24.2-1.4.3-1.6.1h-.2q0 .3.3.3l2-.2h.2l-.4.2-.8.4h-.7c0 .1-.3.4 0 .4h.3l.9-.2 1.6-.6 2-1q.5-.2.7-.5h-.4q-1.2.6-2.5.8m-2.2 2.3q-.5 0-.6.2v.3h-.2l-1 .8v.2l.8.4v.3l-.2.1c0 .1.4 0 .4 0l1-.2a22 22 0 0 0 4.9-2.3l.3-.4h-.5a14 14 0 0 1-5 .6m.5.7-1.2.2-.4.3q-.1.2 0 .2.8.2 1.2 0l1.2-.3 1.2-.5.1-.2h-.4zm.6 2.2q-1.1.2-2.3.1h-.6q-.4 0-.4.3t.2.3v.1h.3l1.4-.1q.8 0 1.4-.3l.3.1-.1.1-.6.3-2.6.8-.3.2v.2h.2l3-.9a13 13 0 0 0 3.2-1.6h-.3zm-3 3-.3.3h.4q1 .3 2 .1h.5l-.3.2-1.4.4h-1.5q-.3 0-.3-.2l-.2-.1-.2.1s-.4.2-.3.3l.3.4q0 .3.2.2h.4a15 15 0 0 0 4.7-1.4l.4-.2h-.7q-1.4 0-2.6-.3l-.7-.1q-.3 0-.5.4m-2.7 2.8.1.1h.6l.1.1v-.2q-.2-.3-.6-.1zm1.2-.4.4.2q.6.3 1.3.2h.4q.1 0 0 .1l-.4.2h-1.7.1q.7.4 1.6.2l1.8-.5V35l-2.5-.4q-.4-.2-1 0zm.2 2q.4.4.9.4l.3.2h-1l-1.4-.9-.7-.1-.2.2.1.2.3.7.2.8s-.8-.8-.9-1.1q0-.4-.4-.4v.6q.6.9 1.4 1.5l.3.1v-.6q-.1-.8-.5-1.4l-.1-.2v-.1c.5 0 1 .6 1.4.8l1.4.2 1.3-.1q.2 0 0-.2-1-.1-1.7-.6l-.9-.7-.4-.2h-.4q.4.6 1 1m-3 1.5v.5l-.3-.1-.4-.7-.2-.3-.2.1.2.6.8 1 .2.3q.2 0 .3-.2v-.2q0-1-.3-1.9l-.2-.1h-.3v.2l.2.4zm-1.8 0 .1.2.2.6s0 .6-.2.6l-.2-.1-.4-.5-.1-.4-.3-.3-.2.1v.2l.4.5.3.6.4.6q.2.3.3.2l.2-.1.2-.6v-.8l-.3-.9q-.2-.3-.4-.1zm-1.6 1.6-.2-.2-.1-.4q0-.3-.2-.3l-.1.1v.4l.3.6.1.5h.2l.2-.3V39q-.2 0-.2.3zm-1.4-.2-.2.3h-.1l-.1-.5-.3.1.1.4.2.5.2.2.1-.2.3-.6.3-.8V39l-.1-.2h-.2l-.1.4z" id="path22"/><path d="M116 25.6h1.3v.1l-.2.2.1.1.3-.1.4-.2.3-.4v-.1h-.8l-.8.2h-.5zm-1 1.2q-.2.1 0 .3h1.2l1-.2.4.1v.2l-1 .2q-.5.1-.7.5v.2h.4l.3-.2.9-.3 1-.5v-.3l-.2-.1q-.8-.2-1.7-.1l-1 .1zm0 2q-.1 0 0 0h.3l1.3-.2h.8c0 .2-1 .5-1.2.6h-.2v.5l2-.7s.4-.3.2-.4c-.2-.3-1-.3-1.4-.3h-1.1zm.4 1.6.1.1.5-.1 1 .1v.1l-.8.2-.6.3v.1q0 .4.4.6l.6.3q.1.2-.1.3l-1.8.4v.2l.3.3.7.7-.6.2c-.4 0-1.2 0-1.5.3l-.1.1q0 .2.2.3l.6.7q.2 0 0 .1H113v.6q-.5 0-.7-.3h-.2v.8l-.2-.2-.3-.1-.5.2q-.5 0-1 .4l-.1.2h.4l1.3-.5.5.5h.2v-.9l.8.3h.2v-.2l-.1-.4V36h1.2q.3 0 .3-.2l-.1-.3q-.5-.4-.6-.7v-.1c.2-.2 1-.1 1.4-.1l.7-.2V34c0-.4-.7-.6-1-.9l.1-.2 1-.2q.8-.1 1.3-.6v-.3c-.1 0-.7-.1-1-.3q-.2 0-.3-.2l.2-.2q.6 0 1-.3l.3-.2v-.2l-.9-.4-1-.2h-.1l-.2.1zM87.8 26l1.4 1 .8.5v.3h-.4q-.9-.1-1.8.2s-.5.1-.3.3q.5.4 1.2.6l1.5.1-.3-.3-.2-.1-.5-.1-.4-.1v-.2h1l.4-.1q.4-.4 1-.5l.1-.1v-.2l-.2-.1-1.8-.6-.2-.2v-.1h.2l1.5.3V26h-.2l-1.4-.3h-1.3zm.9 3.6-.5.2-.1.1v.2l.2.1.4.2 1 .3h.3l.2-.3-.1-.2h-.2l-.7-.1.1-.2h1.2l.3-.3v-.2h-.5zm0 2.2-.4.2q0 .2.2.3l1.5.4h.9q.2 0 .2-.2V32H91l-1 .2-.5-.1q.2-.3.7-.3h.4l.2-.2-.1-.2-.3-.3H90q-.8.2-1.4.7m1.5 1.8q-.3 0-.3.3c-.2.2.2.3.3.4H92V34q0-.2-.2-.2-.4-.2-1 0h-.1q0-.3.3-.3l.2-.2h-.3q-.4 0-.7.3m1 2.1q.1.3.5.2l1.1-.1q.4 0 .5-.4v-.2q-.3-.1-.5.1l-.8.3q-.2 0-.1-.2l.5-.2.2-.1v-.2h-.3l-.5-.1v.2zm1.5 1.5q0 .2.3 0l.8-.2h.2v-.3h-.6v-.5h-.2l-.2.1-.1.4zm1.9-.6q0 .5-.3.8l-.1.2h.3q.6 0 1-.4h.2v1.1l.2-.2.9-.6h.5v-.2l-.7-.1-.5.3V37H96q-.3-.2-.6-.1l-.5.4V37l.2-.5-.1-.3h-.4z" id="path23"/><path d="M95.7 28.2q0 .6-.4 1.2l-1 1.4v.5h.1l.4-.8.7-.9q.5-.7.4-1.5-.3-1-1.4-1.5l-.3-.1H94l.3.2q1 .4 1.4 1.5m-3.9-1.6c.4.9 1 1 1.6 1.3q-.9 0-1.8.4l-.5.3c-.2.1.3.3.4.4l1.5.3q.3.1.5.4h.2l.4-.7-.1-.1h-1l-.6-.1q-.4-.1 0-.4l1.2-.2h.7v-.3q-.2-.3-.6-.3h-.2l-.6-.3V27h1v-.1l-.5-.1-1.2-.8-.6-.9-.1-.2-.1.1c-.2.4.2 1.3.3 1.6m-.3 3.7q-.3 0-.4.4 0 .3.3.4.4.3 1 .3h.4v.3q.1.1-.1.2-.7.2-.9.8c0 .6.7.7 1.1.6h.4l.2-.1v-.3q0-.2-.2-.3H93c-.1 0-.6.2-.7.1v-.1l.5-.3.4-.1V31l-.1-.3h-.3q-.5.2-1 0v-.3c0-.1 1-.4 1.4-.4h.3v-.2l-.2-.2h-.2q-.9 0-1.6.6m1.6 4 .1.3h.9l.3-.2v-.2l-.2-.1-.4.1-.3.1.1-.2.2-.2-.1-.5h-.3l-.2.5zm1 1.4q0 .3.2.4.4-.1.8-.5l.7.7.7.3h.4l-.2-.1-1.2-.9-.3-.4q-.1-.2-.4 0v.2l-.2.1h-.1V35q.2 0 .2-.2l-.3-.3-.2.4zm8.2-4.3.3.7.2.3.5-.2q.3 0 .4-.6h-.1l-.2.2v-.5h-.2l-.1.7h-.2v-.1l-.2-.8c0-.1 0-.5-.3-.3zm2.7.4-.1.2h-.2v-.4l-.2-.3-.2.2.1.5s.2.7.4.6l.2-.3q.4-.5.5-1.2-.3 0-.4.2zm2.3-.1-.1.2q-.2.2-.4-.3 0-.2-.2-.3h-.1v.6l.3.2q.3.3.5.3.3-.1.4-.5V31q0-.3-.3-.2l-.2.2.1.2zm-2.9-2v.5h-.3l-.1-.3-.2.2v-.5l-.4.1v.4q.2.4.6.7.3 0 .6-.4l.3-.7-.1-.2-.2.2zm1.8-.1v.7q-.2.3-.3 0l-.1-.4-.1-.1c-.2-.2 0-.6-.3-.6q-.3 0-.2.3l.1.3q0 .4.3.7.1.5.5.5.4-.2.6-.8v-.6c0-.2 0-.7-.3-.7q-.3.2-.2.7m-.2-1.7q-.2.4-.6.1h-.3v.1q0 .3.3.5h.5l.2-.4v-1.2q0-.2-.2 0zm1 0 .4.2c.3 0 .2-.6 0-.6l-.2.1-.2-.2q-.3 0-.1.2zM101.6 38v.3q.2.6.6 1l.2.4q.3.1.5-.1.7-.5 1-1.4l.1-.4q-.1-.4-.3 0v.2h-.1q0-.2-.3-.1l.1.5v.1l-.2-.2v-.2h-.1v.4l-.1.2v.4l-.2-.4-.1.4v-.6l-.2-.1c-.2 0-.2.4-.3.4V38q-.1 0 0-.1v-.3c-.2-.2-.4.2-.4.2zm2.7.3.1.6.8 1q.7-.6 1-1.6v-.9h-.2v.6q0 .4-.4.2-.2 0-.2.2l-.1.5-.1.2v.2q-.2-.2-.2-.5v-.4q-.2 0-.1-.2h-.2q-.2 0-.2.2v-.9q0-.3-.2-.1zm3.4-.8q0 .3-.3.5-.3-.2-.3-.6 0-.2-.2-.3t-.2.4l.2.4q0 .4.4.7c.3.2.4-.3.5-.4l.2-.5q.4-.5.2-1.1 0-.1-.2 0h-.2zm0-2.4.5.5.4.2h.1v-.4q0-.3-.3-.4h-.2l-.5-.4-.2-.3h-.2c-.3.1.3.7.3.8m-1.2-.3-.2.3v.6q-.1.2-.2 0l-.1-.6q0-.4-.4-.4-.2 0 0 .3c0 .6 0 1.5.7 1.7h.2l.3-1 .2-1.3q-.4 0-.5.4m-1.7 1.2-.2-.2-.2.1v.2q0 .3-.3.3l-.1.1c-.1 0 0-.5-.2-.6l-.2.2v-.6l-.2-.1-.3.4.2.2.5 1.1.3.1q.3 0 .5-.4.5-.5.6-1.2v-.4h-.4zm-5.4 1.2.1.7.1.4v.3l.2.1.3-.1q.6-.4.8-1v-.3h-.4l-.1.2q0 .3-.4.5v-.2l-.1-.3.2-1q.1-.2 0-.4h-.2l-.3.1-.1.6zm1.8-3.5-.2.7V36l.3.8q0 .2.1.1.6-.2 1-.9l.2-.3q.1-.3-.1-.5-.3 0-.4.4v.4h-.1v-.3l-.2.3h-.2l.2-.5-.1-.2h-.1l-.3.4v-.3l.2-.6h-.2l.1-.6q.2-.3.2-.7l-.3.1zm1-.2.3 1c.6 0 1-.7 1.1-1.2v-.7q0-.1-.2 0t-.2.4-.2.2l-.1.2-.1.2h-.1V33l-.2.3h-.1l.2-.7-.1-.1q-.3.1-.3.4v-.7l-.1.1q-.3.3-.1.7zm1.9.4q0 .5.4.5.4-.2.5-.7v-.3l-.1-.1h-.1c-.2-.1-.1.3-.2.3l-.1-.4h-.1v.2q-.3-.1-.3-.4 0-.1 0 0-.2 0-.1.3zm2-1.5.1.5s0 .4-.1.2V33q0-.4-.3-.6l-.2.2h-.2v.7l.5 1 .2.3.3-.1.2-.8c.2-.5.3-1.5-.3-1.6q-.4 0-.2.4m1 .8q.3.4.8.7.3.1.2-.2-.2-.4-.1-1 0-.2-.2-.2c-.3 0 0 .2-.2.3h-.1v-.2q-.4-.3-.5 0zm-5.6 9.2.1.5q.1.4.5.3t.5-.5q.1-.1 0-.4l-.3.1v.1l-.2.3q-.4-.2-.3-.5V42q.1-.2-.1-.3t-.2.2zm-.7-3.7-.1.5q-.2.8.2 1.4l.2.6q0 .2.3 0l.6-.8-.1-.3-.2-.1V40v.2l-.1.4-.3.1c-.3 0-.4-.8-.4-1q0-.3.2-.5t0-.6q0-.2-.2 0zm3.6 1.4v-.3q0-.2-.2-.1l-.1.2zm-2.2.7.3.4.3.4.3.3h.4l.3-.4.5-1-.1-.2q-.3 0-.4.3v.1h-.2v.3h-.2c-.2 0-.1.5-.2.6h-.1V41h-.4v-.2l-.2-.4-.3.2zm3.5-1v.9l-.1.4-.2-.1q.1-.6-.1-1h-.3v.5l.2.5q0 .3.3.5.4.3.7-.3l.3-.6v-.8h-.2l-.3.7h-.1l.2-.7s.2-.4 0-.4zm-2 3.2c.1.2.5.8.7.7q.3-.1.5-.6v-.6l-.2.2-.2.2q0 .3-.3.2l-.2-.3q0-.4-.3-.4c-.2 0 0 .5 0 .6m-.9 1.1.2.4h.3l.2-.3.2-.3q.2-.1 0-.4h-.2l-.2.2v.3l-.2-.2q0-.5-.4-.5h-.2l.1.4zm0-20h2.9q.7.1 1.4-.2v-.2h-4.2zm8.3 11.3v.3h.3l.2-.2.2-.2v-.2h-.4l-.1.2zm1.3-.8.3.2h-.8v.2l.5.1.5.1h.4V35l-.9-.8h-.2l-.1.3zm1-3.1.1.1h1q.2.2-.2.4h-.8l-.3.1-.3.8 1 .5.1.1-.1.2-1-.2h-.3v.2l.2.2h.9q.5 0 1-.3c0-.2-.6-.4-.7-.4l-.5-.2-.2-.4 1-.3q.4 0 .7-.3l.2-.3-.3-.2-.5-.3h-.8l-.1-.2h-.2v.2zm-.5-1.6h.2l.7-.1h.5l-.3.3q-.4 0-.8.3l-.1.2.2.1h.2l1-.4q.4 0 .7-.4v-.3l-.7-.2h-1.3q-.3 0-.3.2zm-.2-2.9-.4 1v.3h.1l1-.2h.3v.2l-1 .4h-.2v.5l.1.2h.3V29l1.3-.7.6-.6c-.2-.2-1.4 0-1.7 0l-.4.2v-.2l.6-.6q.4-.1.6-.6l.2-.3V26h-.2l-.3.2zm-14.3 13v.8h.4l.4-1 .1-.4.1-.2v-.2H99l-.1.4-.2.7q-.2 0-.2-.2l.1-1v-.3l-.2-.1-.1.4zm-.8 0-.2-.3-.3.1v.4l.3.6h.1l.2-.3.3-1-.1-.1-.2.2zm-2 .5q0 .5.2.6l.4-.4.4-.8v-.5h-.1l-.1.3-.3.6-.2.2-.2-.8v-.4q0-.2-.2 0h-.1zm-2-1.3c0 .2-.2 1.3 0 1.5.3 0 1-.8 1.1-1.1l.4-1v-.2l-.3.2-.2.3-.3.6-.2.2v-.2q0-.5.3-1 0-.3-.2-.3c-.3 0-.5.7-.6 1m-1-.8-.3.5H92l.2-.9v-.2H92l-.3.5c0 .3-.2 1-.1 1.3q.6-.1 1-.7l.6-.8.2-.2q.2 0 .2-.2v-.3l-.6.1q-.4.4-.6.9M85 34.4l1.5.4c1 .1 3 .3 3.4.5q.1 0 0 .1l-.5.2-3 .6h-.3c.2.2 1.1.4 1.7.4h3l-.7.5-2.4 1s-.4 0-.4.2l.2.1h2.3a4 4 0 0 0 2.3-1l.1-.1.2-.4q0-.2-.1-.1l-.3.2q-.9.7-1.9.9h-.5l-.1-.1.8-.4q.9-.2 1.6-.8l.2-.1q0-.2-.2-.2h-3.6l.1-.2.7-.1q1-.1 1.6-.7.2-.1 0-.2l-1.2-.3-3-.3H86v-.1h3q.3-.1 0-.2h-.4l-3.3-.2-.8.1zm-2.8-6.1q1.1.8 2.4 1.3l2 .9c.2.1.9.4 1 .6v.1H87l-4.2-.6-1-.1q-.4 0 0 .2 1.2 1 2.6 1.6 1.8.8 3.9 1.2h.6q.3 0 .3-.2l-.2-.1-.8-.3q-2.5-.4-4.9-1.5l-.2-.2h.5q1.5.5 3 .7H88l.5-.6.3-.1q-.2-.4-.5-.5l-.7-.3-.3-.2v-.4l-.4-.1-1.2-.3a22 22 0 0 1-4.4-2l.1-.1.8.3a20 20 0 0 0 5.1 1.3q.4 0 .1-.2l-.4-.2-.2-.2v-.2l.3-.2v-.2h-.9a24 24 0 0 1-5.5-.9v.2l.1.2zm-.2-3.7 1.5.9a16 16 0 0 0 4.5 1.6v-.3q-.8-.6-1.8-.7l-2.7-1-1.2-.7v-.1l.7.1 1 .3 1.4.3 1 .2.5-.1v-.2h-.3l-1.4-.2-2.4-.6-.7-.2-1.5-.7h-.1v.3l1.5 1m5.7.4h.3l-.2-.2h-.7v.1h.2zm10.8 18.9h-.2l-.1.2H97v.2h.4v.8H97l-.2.3v.6l.1-.2.1-.3h.2v.7l.1.3q0 .2.3.1l.2-.3.2-.6.2-.3h.3v.9l.1.2.2.2h.1l.1-.2.1-.2v-.4L99 45l.2-.8.2-.2-.1-.2-.2-.2-.3-.1-.2.1m.8-.3h.2v-.2H99v.1zm.3-.1h.2v-.1l.1-.2-.2-.1h-.2zm8.3.8h.2v-.2h-.3zm-.2.5-.1.2-.1.2h.5l.1.2v.2l-.1.3v.5l.2.3v.1h.2l.1-.2.2-.4.1-.2h.2v-.2h.2l.2.3.3.1h.3v-.4l-.4-.3-.3-.3h-.4l-.1-.2.1-.2.1-.1h-.4l-.3.2v-.2q0-.2.3-.2l.3-.1v-.2h-.5l-.4.3-.1.2zm-6.9 8.2-.9 2.1-.5 1-.2.2h.4c.8-.1 1.8-1 2.2-1.7l.1-.2v-.9l-.1-.1q-.3 0-.4.3l-.3.6-.4.6-.4.3v-.2l.8-1.4q.3-.5.7-.8l.1-.1V52h-.4zm-1.5-.5-.8.6-.1.3.3.2q.4.2 1 .1l.2-.2.2-.5h-.2l-.3.3-.3.2V53l.3-.3a5 5 0 0 0 1.4-1.8v-.2h-.2l-.2.2zm2-1.7v.5l-.4.6-.3.6.4-.2.5-.5q.3-.4.4-.9v-.3l.3-.3v-.2h-.3l-.5.5zm-1.2-.6-.3.3.1.1h.5l.7-.2.3-.2v-.2l-.3.1-.6.2v-.1l.7-.5.6-.4.4-.4v-.3h-.2l-.4.4c-.2.2-1 1-1.5 1.2m5.3-.4v.2h-.4l.6.1.5-.1.2-.3h-.4l-1-.7-.2-.1q-.2 0 0 0v.2zm2.5 4 .4-.1-.3-.2-.5-.2-.3-.2v.4zm-2-2.2.2.3-.4-.1-.4-.3-.2.1.2.3.4.3h.4l.6.5.2.2v-.4l-.7-1q-.2 0-.5-.3l-.3-.3h-.2v.1l.2.3zm-.6 1.5.1.2.3.3.5 1v.1h-.2l-.1-.2-.2-.4h-.2l-.1.6v.2l.5.4 1 .5h.5l-.2-.4-1-1.7-.4-.7-.3-.2h-.2zm-2.7-2-.2 1.2v.6l.2.8.5 2q0 .5.2.6h.2q.4-.5.5-1a13 13 0 0 0 .7-3.2v-.7l-.2-.2v.1l-.1.7v.4l-.1.2h-.1v.7h-.5v1.3l-.1.1-.1-.1-.3-.7-.3-1.5v-1.3q.1-.2 0-.2v-.1l-.2.1zm8.5-23.7-.2.4-.1.3h.2q.2 0 .3-.4 0-.3.3-.5l.3-.2.2-.2q0-.2-.2-.1l-.4.2zm-1.3 8.5v.2a3 3 0 0 0 1.3-1.6v-.1h-.1l-.5.9zm1.3-5v-.2l-.2-1.7-.2-.1-.1.1c0 .2.2 1.6.4 1.9m.2 1.3h.2v-.3h-.3zm0 1.4v.2zl.1-.7v-.2h-.2z" id="path24"/></g></g><path d="M60.2 12.1h85.1v97q0 2.3-1.5 4a5 5 0 0 1-3.8 1.6h-32q-1.7 0-2.8 1.2a8 8 0 0 0-1.6 2.7l-.8 2.1-.7-2.1q-.4-1.4-1.5-2.7a4 4 0 0 0-2.6-1.2H65.8q-3.2 0-4.5-1.8-1.1-1.6-1-3.8zm.8.8v96.2q-.1 1.9 1 3.3.8 1.4 3.8 1.5h32.1q2 .1 3.1 1.4 1.2 1.5 1.8 3 .5-1.6 1.8-3 1.2-1.3 3.3-1.4H140q2.1-.1 3.2-1.3a5 5 0 0 0 1.3-3.5V12.9z" id="path25"/></g><!-- app4joy --></svg>