<svg width="1024" height="683" viewBox="0 0 1024 683" id="svg104" xmlns="http://www.w3.org/2000/svg"><g id="g106"><path fill="#a32638" id="rect1" d="M0 0h1024v683H0z" clip-rule="evenodd" fill-rule="evenodd"/></g><g id="g105" clip-rule="evenodd" fill-rule="evenodd"><g fill="#9b7d23" id="g3"><path d="M671.8 533.7h.1q0 1.3 1.2 1.4h.2q-.3 1.4.2 2.5c1.3 3.4 3.9 4.4 4.4 5.6.2.3.3-.7.5-.4 2.6 2.8 7 4.8 11 2.8 2.6-1.7 2.1-5.4.3-7.6-2.2-2.5-5.6-4-7.2-4.8.1-.3.6-.9.4-1-1.6.4-5.7-1.2-7.7 0q-.7.4-1.1 1-.4-.9-1-.9h-.1q-.5.8-1.2 1.4m31-49.7c-7.7-1.8-9 4.8-13 4.9-2.1 0-1-2.2-3.2-3a1 1 0 0 0 .7-1q1.4 1 3 1c4.4 0 6.7-2.5 8.3-2.5.4 0-.6-.6-.3-.8 4.4-1.6 8.7-5.6 8.3-11-.6-3.9-5.1-5-8.4-4-3.8 1.3-7.2 4.5-8.9 6-.2-.3-.6-1-.8-.9-.4 2-4 5.9-3.6 8.8q0 .8.5 1.6-1 0-1.4.8-.1.5 0 .8l-.6.9c-2.9.4-3.6 4.9-6.3 5.3-.4 0-1.7-.5-2-1.8-1.2-2.6-3.7-11.2-9.7-19.9l-7.5-10.3c.2 4.5-6-.1-9.1 5.8-1.3 2.4 0 5.3-1.5 7.5-1.2 1.7-3.6-1.3-5.2 2.6-2.6 6.4-6.4 12.5-8.9 18.3-2.8 6.5-.7 13-3.4 17.5 11.5 5.7 19.6 17.7 44.3 17.8 1.2-.7 1.8-1.4 2.5-1 2.4-.3 5.7 2.5 8 3.5s4-1.4 6.3-2.1c4-1.2 8.4 7.3 14 4.6 2.6-1.2 1.4-2 3-3 2.5-1 8.1 5.4 11.8 3 3.1-2 1.4-4 2.7-5 1.7.1 4.8.7 6.9-.6q2-1.4 2.3-3c1-5.7-4.3-5.5-4.4-7.5 0-2 4.5-1.7 1.6-7.2-2.6-3.6-5.6-.7-7.8-2.1-1-.2 2.4-2.5-1.4-4.8-1.8-1-7-1.3-8-1.3-1-1.3-1.2-2.1-2.2-3 .6-1.9 5.1-3 6.4-5.2 1-1.6.9-4.3-.2-5.4-3.3-3-6.3-2-10.2-.2-1.9-.5.3-3.2-2.7-4m-53.5 76.2c-3.7-2-4.9-.2-4.7-7.4 0-3.2-5.7-1.8-9.4-3.4-5-3 2.3-4.6-3.2-8-.6-.4-7.9-1.4-11.6-2-1.5-.4-.3-2.8-.6-4.8l-.3-.2.3-.1c-.3-1.4-1.5-2.4-4.8-2.2-1.2.1-5.9 1.6-8.2.4-.4-4-1.8-3.7-3-4-3.3-1-5.7 1.8-7.9 1.4-4-2.2-.6-1.6-4.4-3.7-3.6-.5-9 2-12.7 1.8q4.5 5 8.3 11c6.7 10.4 11.6 19.6 19.1 21q.9 0 2 .3c2.8.7.6 6.2 5.1 6.6 4.6.9 3.2-2.9 5.1-2.2 2.2.8 3 5.4 6.6 5.3 3 .2 2.1-2.9 4-2.5 2.2.3 3.2 4.1 7.2 3.5 3.5 0 3.2-4.3 5.2-5.4 5.6 2.8 14.3-.4 7.9-5.4M574.9 524l.2-.1c.8.3 1.8 0 2-.7l.1-.3q1.5 1 3 1c4.4 0 6.7-2.5 8.4-2.5.4 0-.7-.6-.3-.8 4.4-1.6 8.7-5.6 8.3-11-.7-3.9-5.2-5-8.4-4-3.9 1.3-7.2 4.5-9 6-.2-.3-.6-1-.7-.9-.4 2-4 5.9-3.7 8.8q0 .9.6 1.6-1 0-1.4.8-.3.5 0 .8l-.2.2zm120-105.8c-2.2-.8-4.3-1.5-6-.8-2.6 1.1-3 4.2-3.4 3.8a4 4 0 0 1 .6-4.9c1.7-1.5 5.7-2 6.6-3 2.4-2.5-.2-3.7.2-5 .7-2.5 8.7-5.3 9.9-6.9.8-1.2 1.3-2.5 0-4.2s.4-3.3 2.7-5c6.9-7 1.5-9-.6-9.4-.7-.2 5.1-4.9 6-8.7.5-3-4-5.2-4-5.6 9.9-12.4-3.4-14.7-7.8-7.7-1 1.6-3.6-3.2-6.2-2.3-1.1.4-3.7 2.3-4.3 2.9l1.9-3.7q2.6.7 5.4-1.2c4-1.6 5.3-4.7 6.9-5.4.3-.1-.9-.3-.6-.6 3.5-3 6-8.4 3.6-13.3-2-3.3-6.6-2.8-9.3-.6a29 29 0 0 0-6 8.9l-.5-.3-.8 1.5c-.6 2.5-2.2 6.3-1.1 8.2q.4 1 1 1.7c-.6.2-1.7.7-1.7 1.2q0 .5.3.8l-2.5 7.6c-1.3-.4-4-2-5.5.3-1.6 2.4-1.4 10.2-3.2 9-1.1-.7-2.5-1.9-4.7-.8.2-1.4.6-3.6-.1-4.5s-3.3-.1-3.6-1.7c-.4-2.3 2-7 2-9.3-.2-2.3-3-1.7-3.7-2h-.1l-.1-.1h-.1v-.1h-.1v-.1h-.2v-.2h-.1l-.1-.2-.1-.1-.4-1-.2-1.3q.2-2.7.1-5.3 0-1.2-.6-2c-1.4-2.2-5.7 1.5-6.1-.6-.4-6.4-4.2-10.8-6-6.8-.7 2-1.3.2-2-.8-3.5-4-3.2-4.7-8-5.3-2 1.2-1.8 6.2 1 10.8.8 2 .2 2-.9 2.8-6.3 4.2 4.6 12.3.4 14.2-6 4.1 3.9 9.1 2.6 12.2-3 1-4.6 3.3-3.2 5 2 2.4 6.4 5.2 6 7.2 0 3.1-4.3 6.2.2 9.3.8.6 1.8 1.2 1.8 2.2-.6 2.9 4.1 16 15.7 30.4C679 444 690.3 464 689.8 470v.1c.8-.6 3.1-1.5 4.2-2.9 1-1.3.5-3.5-.3-5-1.5-3.2 10.4 1.9 11-8.8 0-1.1-1.8-3.3.7-4.9 5.2-1.5 9-5.8 7.1-9.4-.4-.8-3.3-1.4-2.5-3.6 6.2-3.8 7.5-10.5 3.4-11.7-4.6-1.4.6-4 1.4-7.5a7 7 0 0 0-1-5.4c-1.4-1.9-5.5-1.5-9 3.6-2 .4-1.4-2.7-3.3-3.3-4.7-1.5-5.1 7.1-6.6 7.1m21.8-158.5c-2.4.8-3.2 1.8-6.1 3.5-2.7.7-1-2.3-4.3-2.6-4.3-.3-6.3 4.2-8 7.5-1.5 2.2-.7-2.8-5.9-2.3-3.4.3-5.8 5.4-7.7 9.4-1 .6-1.5-.8-3-1.5l1.6-4.5q1.6-.1 1.7-1.4v-.3q1.6.4 3.1-.2c4.1-1.6 5.4-4.7 7-5.4.3-.1-1-.3-.7-.6 3.5-3.1 6-8.4 3.6-13.4-2-3.3-6.6-2.7-9.2-.5-3.1 2.6-5 6.8-6 8.9-.4-.2-1-.8-1.2-.6.4 2-1.5 7-.1 9.5q.5.8 1.1 1.3-1 .4-1 1.3 0 .5.3.8l-1.2 4.7a6 6 0 0 0-3.4.7c-3.5 4-2.8 4.7-4.4 10.3-1.3 2.4-1.3-1.3-5.3 1.8-.8 1.8-1.6 4.3-2.3 6 4.9 6.8 15 19.3 21.3 30.3h.2c1.2.2 4.2.2 5.2-1 1.3-1.4.5-4 .7-3.9 2 .6 7.2-1 8.7-3.2s-.7-5.5 1-5.4c5.4-1 7.7-1.1 10.3-4.8 1.4-4.9-4.4-3.5-.8-6 3.2-2.4 5.4-2.3 8.4-7 1-6.6-6.3-5-1.3-8.1 2.5-2.3 8.2-8.4 2.1-10.3-3.7-1.2 2.2-5.6 1.3-10.2-1-2.2-2-3.4-5.7-2.8M692.1 235c-.4-1.5 1.3-2.5 2-3 10-5.4 4.9-7.8 3.5-10.1-1.2-1.9 3.5-2.7 4.6-4.3.9-1.2 1.9-3.6.6-5.2-1.4-1.7-4.4-.1-2.9-2 3.5-7.2 2.1-11 0-11.5-1.2-.2-2.6.7-2.5 0 1.4-15.2-8.4-10-10.2-3.6-1 1.5-2.2-1.4-4.6 0-1.1.5-1.5 4.4-2.3 4.4-5-3 5-16-5.2-14.7-3 .4 3.3-12.2-5.6-12.2-2.4 0-4.3 2.8-5.2.3-.4-6.4-6.3-11-8.3-5-.8 2-2 1.8-2.7.9-3.5-4-5-6.5-10.3-5.2-2 1.2-3 4.1-.2 8.8.8 1.9-1.6 2-2.7 2.7-6.4 4.2 7 7.3 2.7 9.3-6 4 6.7 8.1 5.4 11.2-2.3 2.6-2.1 4.8-.7 6.5 1.9 2.4 9.1 4.5 8.8 6.5-1.1 5.4 5.9 8.3 6.1 13.5-2 2-1.7 1-3.9 4.7-1 1.9-2.2-2.5-5.4-.4-2 1.3-2.6 6.9-3.3 8-.8 1.2-4.8.4-5.5 4-.7 3.2 1.8 9.1 1 10.6-1.3 2.3-3.3-.4-4.3 5.7-.7 4.3 4 6.7 2.8 8.9-.9 1.6-3 3.4-2.4 6.7.9 4.7 4.1 11 5.4 15.1a54 54 0 0 1 20.8-20l.3-.7c0-1.7 4.6-4.3 8.7-7.3l2.1-1.7c3-2.4 5.2-5 4.2-7.7-1.2-3 4.6-5 7.7-7.1 3.2-2.2 1.5-6 1.5-6.1" id="path1"/><path d="M488 526.2q2.5 1 4 3c1.2 1.4 2.2 3 3.5 3.3h1a10 10 0 0 1 6 1.1c2.6 1.9 3.8 4.8 5.6 7.2l.4.5v-.3c.2.7 3.5 3.2 3.8 3.8 1 2-.6 2 0 4-7.4 2.5-14 10.6-20.7 18.4-1.5-.8-3.2-1.8-2.9-4.9a96 96 0 0 1 19.1-15c-4.5 1-9.4.7-14.3 4.6-1.2.8-4 .8-4.8.2-1-.8 0-2.7-1.3-2.5-2.5.2-5 4.8-8.3 4.3-1.2 0-2.3-2.9-3.8-2.7-3 .3-2 5.1-7.5 2.2-4-4-3.7-3-8-.2-6.5 0-1.4-3.2-2.4-4.8s-2.7-.9-3.9-.4c-1.8.7-6.3 1-7.4-1.1-.6-1.7 1.3-4.3 2.2-4.5 3.5-.7 6.3-1 2.8-4-2.4-2 3.3-4.9 8-3.6 5.6-.6-2.6-6.5 3.6-7.4.7 0 5.6 2.7 9.2 2 2.7-.4-.1-8.2 7.8-4.4 1 .5 2.8 3.4 5 3.2 1.3-2 2.4-2.2 3.3-2" id="path2"/><path d="M536 526.4q-2.6 1-4 2.9c-1.3 1.4-2.3 3-3.6 3.4l-1-.1c-1.6-.2-4.7.2-6 1.1-2.6 2-3.7 4.8-5.6 7.2l-.3.5v-.3c-.3.7-3.6 3.2-4 3.9-1 2 .7 2 0 4 7.5 2.4 14.1 10.6 20.8 18.3 1.5-.8 3.3-1.7 3-4.8a96 96 0 0 0-19.2-15c4.6.9 9.4.7 14.4 4.6 1.1.7 4 .8 4.7.1 1-.8 0-2.6 1.4-2.5 2.4.3 4.9 4.9 8.3 4.4 1.1 0 2.3-2.9 3.8-2.7 3 .3 2 5.1 7.5 2.2 4-4 3.7-3 8-.2 6.5 0 1.3-3.3 2.3-4.8 1-1.6 2.7-1 4-.5 1.8.7 6.3 1.1 7.4-1 .6-1.7-1.3-4.3-2.3-4.6-3.4-.7-6.3-1-2.7-4 2.3-2-3.3-4.8-8.1-3.6-5.6-.6 2.7-6.4-3.5-7.4-.7 0-5.7 2.8-9.3 2.1-2.7-.5.2-8.3-7.8-4.4-1 .5-2.8 3.3-5 3.1-1.2-2-2.3-2.2-3.2-2" id="path3"/></g><path d="M394.3 245.9h235.4v221a29 29 0 0 1-29 29.1h-59.4c-5.4 0-27.4 2.3-29.3 16.7-1.9-14.4-25-16.7-28.9-16.7H423a29 29 0 0 1-28.6-29z" fill="#abd3f1" id="path4"/><path d="M642.6 166.7c0 2.5 1.3 3.7 2.1 7-.3 2.4-5.4 1.9-4.8 4.3.6 2.1 3.8 2 5.7 5.6-.4 2.3-4 2.5-2.3 4.3 2.3 2.6 4.8 3.2 6.9 6.7 0 3-3.3 3.8-1.7 6 2.3 3 9.5 5.4 10.2 8q0 1-.7 2.5c.2 2.2 5.4 6 5.8 10.4.9-.3 1.5-.2 4-.9q.3-4-.4-8.5c0-.2-6.6-3-6.6-3.3s6.4 1.9 6.3 1.6q-.8-4.2-2-8.5c-.1-.3-11.2-4.2-11.3-4.5 4.8-1 10.8 2.8 10.7 2.4l-2.4-7.5c-1.4 0-11.1-4-14.9-7 9.2 0 13.5 4.1 13.3 3.7-4.2-7.7-10.4-15-14.3-22.6-1.6-2-3.1-.8-3.6.3m48.7 23.8c-2 1.6-1.2 4-3.2 6.7-2 1.3-3.4-2.3-4.9-.2-1.3 1.7-.4 1.8-2 5.7-2 1.1-5.3 0-6 2.4-1.4 4.5 1.4 4.4.1 8.3-2.3 1.9-5.5 2.3-6.1 5q-.2 1.4-.1 3.1c1.6 3.6.2 7.6-1 9.7.7 3.5 5.4-1 5.9 3.3.4 4-2 3.4-2.4 7.3 0 2.1 2.4.9 3 4 0 4.4-8 8.6-1.8 11.7 2.2-1.6 3.9-15.3 5.9-17.6.1-.2-5.9-15.1-5.7-15.3s5.7 4.8 6.5 12.2c1.8-2.2 2.4-7.4 4-10.3-1.6-1-6.7-11.7-6.5-12 3.9 3 7 10.6 7.1 10.3 1.4-2.2 2-7.6 3.5-9.9-1-1-5.2-5.5-5.4-10.3 5 4.2 5.6 7.5 5.8 7 3.1-8.1 2.9-12.2 6.2-20.2.5-2.4-1.7-1.2-3-1M664.5 223a26 26 0 0 0-4.8 5.4c-2.8 2.2-5-1.6-6.4.1-1.3 1.7-1.1 3.3-1.4 7-2 2.2-5.5 1.4-6 3.8-1.1 4.4 3 6.4 1.7 10.2-2.5 2.9-3.6 2-4.8 4-.8 5.5 2 4.5 2.6 10.3-.4 2.8-2.4 1.4-2.8 5.3 1.6 5.4 3.4 9.5 5.4 14.5a72 72 0 0 0 3.6-14.4c0-.2-7-13-6.8-13.2s6.4 3.3 7.3 10.7c1.7-2.2.7-6.4 2.2-9.3-1.5-1-5.6-11.1-5.4-11.4 3.8 3 5.8 9 6 8.7 1.4-2.1 1.1-6 2.5-8.2a16 16 0 0 1-3.7-9.4c5 4.2 4.9 6.4 5 6 3.2-8.2 4.3-10.6 7.7-18.6.5-2.4-.8-1.9-2-1.5m51.5 38.7c-2.4.7-2 2.8-5 4.5-2.6.7-2-3.7-5.4-4-4.3-.3-5 5.7-6.6 9-3.7 3.3-2.4-6.7-8-3.5-2.8 1.6-2.7 6.4-5.4 9.4-3.4 1.7-3.2-4.5-7.8-.9-3 4.8-1.7 4.4-3.4 10-2.4 3.2-3.7-2-5.6 1.4-.7 1.9-1.3 4.5-1.9 6.2l2 3.2 8.4 11.2 1-1.5c.2-.3-3.3-15.5-3-15.6.2-.2 3.1 1.6 4.6 14.3 2.4-1.3 5.2-5.8 7.7-8-.4-2-3-16.4-2.6-16.6 2.8 4.4 4.2 15.2 4.5 15 2.1-1.5 5.5-5.4 7.7-7.4-.5-1.3-2.2-9.6-1.9-14.2 3 5.7 3.2 12.1 3.6 11.8 7-6.1 14.6-17.3 20.7-23.3-.8-2.3-2.4-1.7-3.6-1M710 412c-1.7.7-2.5 2.3-4.5 3.8-1.9.7-2.8-3.6-5.2-3.6-3.1 0-1.6 5-4 7.5-2.1 2-3.4-3.3-7.2-.6-2 1.4-1 5-2.8 7.4-3.2 3-4.3-.3-7.4 2.6-1.6 3.2.4 6.3-3.3 9.3 3.2 4.3 7.7 11 9 12.6 0 0 .5-1.7 1.2-3.1.1-.2-3.4-13-3-13.4A36 36 0 0 1 687 447c1.7-1.2 2.7-4.6 4.4-6.3a83 83 0 0 1-1.4-13.3c2.4 3 2.3 12 2.5 11.8 1.5-1.2 4.3-6 5.7-7.6-.4-1 .5-7 .4-10.4 2.5 4 .8 8.7 1 8.5 4.6-5 9-12.4 13-17.2-.7-1.6-1.8-1-2.6-.5m-5.7-52.9c-1.6.5-2.3 1.6-4 3.3-3.2 1.7-4.7-3-7.1-2.7-3.1.5-2.8 5.7-5.6 8.6-2.8 2.3-3.4-4.2-6.8-1-.5.5-.2 6.6-2.2 9.1-1.3 1.6-5.6-2.4-7.3 1-.9 1.7-1.7 4.3-1.6 6.5 0 1.2.4 3.8-1.2 5.8-4-.2-4.8 2.3-5.2 3.3-1.5 3 1.4 7.1.6 9.2-2.8 3.4-2.2-.1-4.9 3.2-1 3.4 1.8 7.3-.3 10.6 3.8 3.8 6.2 8.6 7.8 10l3.1-8.5c0-.2-3.7-13-3.4-13.6.1-.1 1.4 1.4 4.5 10.1.7-.6 2.6-5.5 5.3-10.2.2-.5-4.6-17.3-4.4-17.7s5.5 15.8 5.8 15.4c3-5.1 6.4-10 7.1-11-.7-1.3-3.4-14-3-14.2 2.7 2.6 3.8 12.8 4 12.6 1.2-1.4 5.7-7.2 6.9-9-.5-.8-.5-7-1-10.3 3 3.6 2 8.6 2.1 8.3 3.9-5.5 11.6-13 15-18.3-1-1.4-3.5-1.2-4.2-.5m6.9 129.6c-1.6-.4-3 .6-5.4 1-3.5-.2-1.7-3.6-4-4.6-2.8-1.3-6.5 3.4-10 5-5.5 1.5-3.1-3-7.7-2.1-.7 0-3 1.8-6 4-1.6 1.2-3.7-4.3-7-2.4-1.6 1-1.7.4-2.8 2.3-.6 1-2.7 4.2-5.1 5-3.2-2.3-4.4-1.4-5.4-.8-2.9 1.8-3.2 8-5 9.4-4.2 1.3-3.8-.5-7.8.8-2.7 2.2-3.6 7.5-6.1 10q4.4 3.3 10 6.3l4.3-2.2c.1 0-1.5-11.4-1-11.7.1 0 2.5 4.5 2.2 10.8.8-.2 6-5 10.8-7.4.4-.2.3-13.2.7-13.4s.1 12.3.6 12l7.2-3.2c.1-1.5 5.8-14.7 6.2-14.6.9 3.7-4.8 13.8-4.6 13.7 1.8-.5 9.6-4.8 11.5-5.6 0-1 5.1-6.3 6.5-9.4-.7 4.5-4.6 8.5-4.3 8.3 6.8-5.2 20.5-6.8 26.2-9.5 0-1.7-3-1.8-4-1.7m-64.2 72c-3.6-2-4.7-.2-4.6-7.2 0-3.2-5.5-1.8-9-3.4-4.9-2.8 2.1-4.3-3.2-7.7-.6-.4-7.6-1.3-11.2-2-2.6-.5 3-7.5-5.3-7-1.2.1-5.7 1.5-7.9.3-.5-3.9-1.8-3.5-2.8-3.8-3.3-.9-5.6 1.8-7.8 1.4-3.8-2.2-.5-1.6-4.3-3.6-3-.4-7.4 1.4-10.8 1.7l4 5.1c4 1.6 8.7 2.9 9.9 3.3.5.2 10.8-1.9 11.1-1.7.4.1-8.8 2.7-8.4 2.9 5.6 2.1 7 3.3 8 3.8a57 57 0 0 1 13.2-2.2c-3.5 2.6-11.8 2.3-11.5 2.8 1 1.7 7.4 4.7 9.4 5.6.7-.7 10.6-1.2 13.7-2.4-3.7 2.6-11.7 3.9-11.2 4.2a182 182 0 0 0 30.4 13c1.2-1.2-1-2.5-1.7-3.2M573.5 543c-3.5-.7-5.7-1.4-2.2-4.5 2.4-2-4.2-3.1-8-3.1-5.6-.7 3.2-6-3-7-.7 0-5.8 2.7-9.3 2-2.8-.5.8-8-6.6-4.2-1 .5-2.6 4-5.1 3.8-2-3.4-1.8-2.3-2.8-2.1-3.4.5-5.3 5.4-7.5 5.9l-4.3-.4c-3.4 1-8.7 12.1-12 13.2-.4 1.7-2.3.7 1.6.4a41 41 0 0 1 15-6.7c.4 0 6-8.6 6.3-8.6.5 0-3.7 7.7-3.2 7.7 6-.3 7-.8 8.1-.8.8-1.3 6.6-8.3 6.9-8-2.1 3.8-5.7 7.5-5.1 8 1.5 1 6.2.3 8.3.3.4-1 5-3.6 7.5-6-2.4 4-5 6.5-4.5 6.6 8.2.6 16.6 4.7 23 6.4.5-1.7-2.1-2.7-3-3m85.6-82.5c-4.6 6.4-5 .8-7.5 3-.5.5-2.6 4.5-2 8.2-1.2 3.6-4.2.7-5.7 3.5-1.8 3.2 2 8.2-.3 11-2.8 1.7-4 2.5-4.2 3.3-.7 3.3.5 4.1-.4 6.2-2.3 3-2.8.6-5.6 3.9-1 2.5-1.2 8-1.8 12l2.9 1.7a90 90 0 0 0 8-9.9c.1-.2-1.4-10.9-1-11.4 0-.1 2.2 4.4 2.5 10.1.7-.5 2.4-2.1 5.3-6.7.2-.4-2.2-13.4-2.4-17.3 0-.3 2.2 4 3.4 8.4 1 3.5.8 7.6.9 7.4 3.3-5 5.7-8.5 6.5-9.4a88 88 0 0 1-3-16.4c2.5 2.7 4 14.2 4.1 14 3.3-5 5.2-8.8 7.2-12l-.6-.8zm-16.7-122.6c1 2.1 2.7 5.6 2.7 8.1-1 3.4-1.3 1.8-2.7 3.8-1.9 2.5 3.3 5.9 3.3 9.9-.4 3.5-2.2 1-2.4 5.7 0 .7 3.4 4.3 3.7 7.5.3 2.1-5.8 1.7-3.5 4.8 1.3 1.8 4.7 2.7 6 6.8.4 1-1.7 4.3-1.4 6.9 2.2 3 4 4.7 4.4 5.7 1.2 3.2-.9 5.3 0 7.3a9 9 0 0 0 .8 3l.1.4c.7 1.4 1.8 2.8 3.5 5.5-.3-6.8-1-10.8-.8-21.6 0-1.2-5.5-10-5.6-10.4s5 4.5 5 4c-1.5-5.3-.6-5.2-.8-6.4a48 48 0 0 1-7.6-10.8c3.6 1.3 7.4 5.8 7.4 5.5 0-1.9-1-7.3-1.4-9.4-1-.3-4.8-3.6-6.4-7.7 4.3 1.8 5.8 5.7 5.8 5.4-.8-9.8-6.2-20.9-8.8-27.2-1.7-.3-1.8 1.4-1.3 3.2m22.2-162.6c-2 4.3-3.7 10-2.8 16 3.2-3.7 3.3-12.4 2.8-16m33 34.9c-4.7 1.2-9.7 1.6-9.1 4.2 1.7 1.1 6.7-1.5 9-4.2M715 288c-4.7-.9-16-1.2-16.6.5 1 1.8 13.4 1 16.6-.5m-5 141.8c-3.4-.3-10.7.6-11 2 1 1.1 8.8-.7 11-2m-11.2-41.4c-4.4-.4-12.7.8-13.1 2.5 1.2 1.5 10.2-.8 13.1-2.5m4.8-9.4c-4.4-.4-9.8-.8-10.2 1 1.2 1.5 7.3.7 10.2-1m-45.4-24.6c-2.5 3.7-5.5 8.1-4.3 9.4 2-.3 4.3-6 4.3-9.4m3.8 8c-2.6 3.6-6.6 13.4-5.3 14.6 2-.2 5.2-11.3 5.3-14.6m4.3 11.5c-2.5 3.6-10.4 15.4-9.1 16.6 1.9-.2 9-13.3 9.1-16.7M696.8 249c-1.7-2.7-5.5-2.3-7.7-.4-3.2 2.7-5 7.2-5.4 8.3-.8 3 3.6 6.2 6.6 5.4 4.5-.6 9.2-7.6 6.5-13.3m7.8 89.2c-1.7-2.7-5.6-2.3-7.8-.4-3.2 2.7-5 7.2-5.4 8.3-.7 3 3.7 6.2 6.6 5.5 4.5-.6 9.3-7.7 6.6-13.4m.5 133.9c-.6-3.2-4.3-4.2-7-3.3-4 1.3-7.4 4.9-8.2 5.7-1.8 2.6 1.1 7.2 4.2 7.6 4.3 1 11.4-3.7 11-10m-16.7 72.4c2.2-1.4 1.8-4.5.3-6.3-2.2-2.6-6-4-6.8-4.4-2.5-.6-5 3-4.4 5.5.5 3.6 6.3 7.5 10.9 5.2M670 242c-4.6 1.2-11.6 2.3-11 4.9 1.8 1 8.7-2.2 11-4.9m4.4-43.3a27 27 0 0 0-6.2 15c4-3 6-11.4 6.2-15m17 34.6c-4.7.2-6.6.8-11.6 4.5 1.2 3.3 8.7-2.4 11.6-4.5m3.9 74.6a26 26 0 0 0-15.5-1c-.3 3.6 12 1.7 15.5 1m6.1 139c-3.3-1-10.4.9-14.7 2.2 0 2.6 12.2-1.4 14.7-2.1m-38.3 46c-3.3-1-7.8.8-12.1 2 0 2.6 9.6-1.2 12.1-2m9-9.3c-3.2-1-9.4-2.1-13.9 1 0 2.6 11.5-.2 14-1m35.2 44.4c-.2-3.5-.1-7-4.6-10.2-2.4 1 3 8 4.6 10.2m5.7-1.8c-.1-2.4 0-4.9-3.2-7-1.7.6 2 5.6 3.2 7m-13.6-18.4c-2.5-2.4-7.5-6.1-13-5.3-1 2.4 10.5 4.8 13 5.3m-10.7 7.4c-6.2-2.9-7.9-7-13.3-7.3-1.6 2 9.7 7.8 13.3 7.3m-10.2 4.3c-2-2.9-7-3.8-12-6.8-2 4.3 9.6 5.8 12 6.8m-14.7 6.2c-1.9-2.9-5.2-3.5-9.5-5.4 0 5.4 7.1 4.4 9.5 5.4m-39.2 38c0-3.5-4.8-8.4-7.2-12.5-3.2 4.5 5.7 10.3 7.2 12.5m-64-16a30 30 0 0 0-9-8c-.7 4.3 7.2 7 9 8m57 13.6c0-3.4-8.6-12.2-11-16.2-3.2 4.5 9.6 14 11 16.2m-64.9-12.1c-1.1-2.5-7.8-6.9-10.9-9-.8 4.3 9.2 7.9 11 9m52.6 4.5c0-3.5-7.8-10.5-10.2-14.5-3.1 4.5 8.7 12.3 10.2 14.5m-64.5-4.2c-1.1-2.5-6-6.2-9-8.3-.9 4.3 7.2 7.2 9 8.3M685.6 414c-4.2.6-9.7 1.8-15 2.6 3.2 3 7.9 1.6 15-2.6m-20-153c-4.8.1-7.9 3-12.9 6.6 1.3 3.3 10-4.5 12.9-6.6m6.2-78a41 41 0 0 0-4.8 19.4c3.4-3.5 5.1-15.9 4.8-19.4m22.8 39c-4.6.9-9.9 1.5-10 4 1 1.8 7.5-1.5 10-4m11.7 76c-4.6-1.2-16.8-1.6-17.9.6 0 2 14.5.6 17.9-.6m1.2 142.3c-3.4-.5-14.2-.3-14.8 1.4.2 1.4 12.5-.3 14.8-1.4m-12.3-39.6c-4.4-.7-17 2.6-17.8 4.8.2 1.8 14.8-3.3 17.8-4.8m-26-150c-4.7.9-13.5 3.6-13.6 6 .9 1.8 11-3.4 13.6-6m49.5 254.1c-2-1-4-1.8-6.6-1 .7 2.7-6.6 4.5-7.6 4.5-3.5.3.6 3.7-1.7 6 .1 0-1 1.6-2.9 2-3.4.8-6.6-1.1-7.4 1.3.1.8-.7 3.6-3.4 4.3-4.8 1.1-7.5-2.6-10.9.2-.8.6-1.2 3-2.5 4-2.4 1.6-5.8 2-2.5 2.2 2.6.5 5.2-1.7 6.2-5 .6-1.3 5.2.8 6.8.9 5 .7 6.6-2 7.7-4.9-.2-1.4 4 0 7-1 1.9-.7 2.2-1.6 2.4-2.7.6-.7 10.2-5.5 10.5-5.4s-9.5 5.7-9 5.8l3 .7 2.9 1c.3 0 8.4-3.3 8.6-3.2.4.2-7.1 3.8-6.6 4 8.4 3 15.4 7 16.2 6.9 2.4-.3 2.6-4.9-2.7-6.2-2.1-4 3-3.8 2.1-6.9-1.4-4.8-6.2 0-9-1.5-1.9-1.1 1.9-3.7-.6-6m-186.2 56.8-1.8 2.2c-1.9-3.6-5-6.8-7.5-10 3.5 2.1 6.9 4.4 9.3 7.8m-.7 3.4c-.8-.8.9-2.1 1.3-3l1.3 1.5c-.3.8-1.1 2.5-2.6 1.5m63.3-54.7c-.5-3.2-4.3-4.2-7-3.3-4 1.3-7.4 4.9-8.1 5.7-1.9 2.6 1 7.2 4.1 7.6 4.4 1 11.4-3.7 11-10" fill="#f2d300" id="path5"/><path d="M665 348.8h.5c1.8-2.5 1.9-3.6 1.7-6.2-10.1-10-25.3-27.8-25.3-37.9-1.5-17.4 16-37 32.4-42 3-1.3 2.8-3.5 2.3-5.2l2.1-1.6c4.9 7-7.5 14.9-15.6 32.8 3 5.6 20.4 25.5 26.6 39.8 6.1 14.3-2.6 19.6-4.4 24.3-2 5.5-9.6 19.8-13.1 17.6v4.1l-.5.2c.3-1.4.7-3.6 0-4.5s-3.3-.1-3.6-1.7c-.4-2.3 2-7 2-9.3-.2-2.3-3-1.7-3.7-2-2.4-1-1-5.3-1.4-8.4" fill="#0f5a26" id="path6"/><path d="M683.9 351.5c4-4.9 7.4-12.8 5.7-16.3-7.4-25.1-35.5-42.3-30.7-62.5a60 60 0 0 0-15 24c-2.9 14 7.8 25.6 18 37.5 8.3 9.5 17.7 19.4 11.2 34.1 7.8-8 6.4-8 10.8-16.8" fill="#008d21" id="path7"/><path d="M684.6 350.5c-3.3-16.5-14.6-27-24.5-40.1-6.5-8.6-10.4-21-8.8-29l-2.3 4c.5 25.8 15.3 29.9 27.8 51.7 2.6 4.5 4 10.5 6 16.8.5-1 .8-2 1.8-3.4" fill="#d82819" id="path8"/><path d="M689.8 469.9c.5-6-9.2-27-22.4-43.6-11.6-14.4-17.8-26.4-17.2-29.2-1.8-.2-.7 4.3-2.3 10.6-2.3 9.4-6.2 18.7-6.2 21.2a30 30 0 0 0 4.9 16.6c5 8 11.8 16.8 17.6 25.1 6 8.7 9.7 16 10.8 18.5 1.4-1 2.4-5.1 4.7-7.6 4.5-4.8 10-9 10-11.6" fill="#0f5a26" id="path9"/><path d="M687.8 470c.5-5.4-9-26.1-21-41.2-10.5-13.2-17-22-16.4-24.6-1.7-.2.1 1-1.3 6.7-2.1 8.5-5.5 16.8-5.5 19-.4 3.4 2.4 10 5.7 15.4 4.6 7.3 10.4 15.2 15.7 22.8 5.4 7.9 9.6 14.5 10.6 16.9 1.3-1 1.6-3.9 3.7-6.2 4-4.3 8.5-6.4 8.5-8.8" fill="#008d21" id="path10"/><path d="M682.5 476c-4.3-14-12.3-24.4-21.5-36.6a69 69 0 0 1-13.4-23.6c-.7 1.1-.6 3.3-1.3 4.5 7.6 19 16.7 22.8 28.4 43.2 2.4 4.2 4 8.6 5.7 14.4.5-1 1.2-1 2-2" fill="#d82819" id="path11"/><path d="M674.5 528.5c-26.2-2.8-36.4-19.9-55.7-20.9-6.3-.7-15.5 3.4-22.7 10-7.6 4-11.5 6.7-12 9.4v.3c2.6-.6 5.3-1.4 7.4-1 3.8 2 .4 1.4 4.4 3.7 2.2.3 4.6-2.4 8-1.5 1 .3 2.5 0 3 4 2.2 1.2 6.9-.3 8-.4 3.4-.2 4.6.9 4.9 2.2l-.3.1c5.1 3.3 10.2 5.5 14.8 8.1 6.8 3.8 12.6 7.4 15.4 6.4 5.9-.8 7.6-5.3 12.8-9 2.7-2 6-3 8-4.9 3.7-3.4 4-5.8 4-6.5" fill="#0f5a26" id="path12"/><path d="M671.9 530c-3.5.4-9.6-2.3-19.4-6.1-14.8-5.8-21.8-14.7-36-14.2-3.6.1-7.8.7-12.8 3.7-4.4 2.6-8.5 7.4-14 9 2.6 0 22.4 4.6 35 12 10.5 6.3 20.2 12.9 24.7 12.3 7-.1 8.5-7.4 13.4-9.3 8.7-3.2 9-6.5 9-7.4" fill="#008d21" id="path13"/><path d="M659.1 540.3c-14-1.4-21.5-9.8-34.9-16.3a60 60 0 0 0-24-8c1-.9 1.7-1.2 2.7-2a77 77 0 0 1 28.3 11.3c10.8 6.3 21 13 29.9 13-1 .7-1.3 1-2 2" fill="#d82819" id="path14"/><path d="M473.1 512c3.6-.8 8.2 3.1 14.5 5.8 9.3 3.8 17.3 2.2 20.9 23.5-2.3-3.2-4.6-7.4-6.8-8-2.9-.9-1.8-1.2-6.2-.8-2.1-.5-3.6-4.6-6-5.6-1-.4-2.8-2.1-4.8 1.3-2.2.2-4-2.7-5-3.2-8-3.8-5 4-7.8 4.5-3.6.6-8.5-2.2-9.2-2-6.2.8 2 6.7-3.5 7.3-4.8-1.3-10.5 1.5-8 3.6 3.4 3 .6 3.3-2.9 4-1 .2-2.8 2.8-2.2 4.5 1.1 2.2 5.6 1.8 7.4 1 1.2-.4 3-1 4 .5 1 1.6-4.2 4.8 2.3 4.8l2.5-1.4q-1.2 1.8-3 3.8c-11.3 13.5-19 8.8-29.5 7-7.4-1.3-11.8 1-13.6-2.4 8.5-.4 13.6-10 20.7-21.1 10.6-16.6 25.3-28.1 36.2-27" fill="#902c16" id="path15"/><path d="M550.9 512c-3.6-.8-8.2 3.1-14.5 5.8-9.3 3.8-17.3 2.2-20.9 23.5 2.3-3.2 4.6-7.4 6.8-8 2.9-.9 1.8-1.2 6.2-.7 2.1-.6 3.6-4.6 6-5.6 1-.4 2.8-2.2 4.8 1.2 2.2.2 4-2.6 5-3.1 8-3.9 5 3.9 7.8 4.4 3.6.6 8.5-2.2 9.2-2 6.2.8-2 6.7 3.5 7.3 4.8-1.2 10.5 1.5 8 3.6-3.4 3-.6 3.3 2.9 4 1 .2 2.8 2.9 2.2 4.5-1.1 2.2-5.6 1.8-7.4 1.1-1.2-.5-3-1.1-4 .4-1 1.6 4.2 4.8-2.3 4.8l-2.5-1.3 3 3.8c11.3 13.5 19 8.7 29.5 7 7.4-1.3 11.8 1 13.6-2.5-8.5-.4-13.6-10-20.7-21.1-10.6-16.6-25.3-28.1-36.2-27" fill="#0f5a26" id="path16"/><path d="M551.8 513.3c-3.8 0-8.4 3-14.1 5.5l-4.5 1.7 8 6c1.5-.7 2.7-2.8 3.4-3.1 7.2-3.5 5.7 4.5 8.2 5 3.2.6 8.3-2 9-1.9 7.7 2-1.1 6.6 4 7.1 4.3-1.1 10.5 2.7 8.4 4.5-3.2 2.8-1.8 2.7 1.4 3.4 2.9.2 4.3 4 3.7 5.5-1 2-2.2 3.7-8 2.2-1.6-.1-2.4-1-3.3 0-.6 1.4 4.5 6.3-3.6 4.9 10.3 12.2 17 9.6 26.5 8 6.7-1.1 6.8-.2 11-1.3-8.3-7.5-10.5-12-17-22.1-9.7-15-23.2-26.4-33.1-25.4" fill="#008d21" id="path17"/><path d="M557.2 527.7a48 48 0 0 0-15.8-10.8l2.9-1.3a62 62 0 0 1 15.7 11.3l-.8.2-1 .1c-.1.2-.7.3-.8.3zm29.2 35.2c-5.2-4-8.3-8.5-11.3-13.3h.4c.7-.3 1.6-.2 2.2-.6 3.6 6 6.9 11.4 12.2 13.2z" fill="#d82819" id="path18"/><path d="M379.3 237.4c-.7-.8-.8-1.4-2.4-1.8.5-2-.1-5.2-1.3-6.8-3.7-4.9-8.9-8.8-8.8-15 0-6 9.5-6.7 14.8-12.8-1-7.6 2.8-9.6 8.4-14.5 3.8-3.4 7.6-8.8 10.3-9.5 20.9-.3 22.5 18.3 33.2 32.1 12.3-9 15.9-14.4 24.3-13.2 13.4 3.8 15 13 30 19.3 12.3 5.2 17.9 1 24.2 8.9 0 5-.3 7.7 0 13.4-3.2-4.1-10.7-2-25-5-13-2.8-23.7-15-36.5-15.6-.5 9.1-5 6.5-10 10-5.7 4-7.6 9.2-14.1 8.4-12.3-1.5-20.3-23-22.5-25.2 0-1.5-4 2-7.7 6-2.2 2.3-3 5.5-5.4 7.6-3 2.6-5.6 2.4-8.8 1.9.9 5.5-2 11-2.7 11.8" fill="#902c16" id="path19"/><path d="M644.7 237.4c.7-.8.8-1.4 2.4-1.8-.5-2 .1-5.2 1.3-6.8 3.7-4.9 8.9-8.8 8.8-15 0-6-9.5-6.7-14.8-12.8 1-7.6-2.8-9.6-8.4-14.5-3.8-3.4-7.6-8.8-10.3-9.5-21-.3-22.5 18.3-33.2 32.1-12.4-9-15.9-14.4-24.4-13.2-13.3 3.8-15 13-29.8 19.3-12.4 5.2-18 1-24.3 8.9 0 5 .3 7.7 0 13.4 3.2-4.1 10.4-4 25-5 13.1-1 23.7-15 36.5-15.6.4 9.1 5 6.5 10 10 5.7 4 7.6 9.2 14.1 8.4 12.3-1.5 20.3-23 22.5-25.2 0-1.5 4 2 7.7 6 2.2 2.3 3 5.5 5.4 7.6 3 2.6 5.6 2.4 8.8 1.9a18 18 0 0 0 2.7 11.8" fill="#0f5a26" id="path20"/><path d="M653.3 209.4c-2.4 0-10.5-5.6-12.3-7 0 2.8-3.8 6.2-6.2 10-2.7 4.2-4 8.3-.2 11 4.3 3 8.4 1.4 10.8-2.1 1.6-2.3 2-6 3.2-8.2 1.5-2.8 4.7-3.3 4.7-3.7" fill="#008d21" id="path21"/><path d="M646.7 206.2c-.5 0-1-.8-2-1.2-.7.4-2.8 1-4 3.3s-1.7 6-3.3 8.3a8 8 0 0 1-5 3.4q.3.6.2.9c2.8.3 5.2-1.2 6.8-3.5s2-6 3.2-8.2c1.5-2.8 4.1-2.7 4.1-3" fill="#d82819" id="path22"/><path d="M624.3 179.2c-3.5-.8-9.3-.3-14.5 4.4-6.5 5.9-11.9 18.5-17.6 26.4-6.2 8.5-12.6 11.6-13.9 11.6.3 2.6 3.1 2.3 6.3 4.6 3.4 2.3 6.7 5.2 8 6.8 3 2.5 10.1-.2 14.5-5.4 5-6 13.9-24 19.8-30.3 7.4-8 11.5-3.6 12.9-3.6-3.2-3.3-12.7-12-15.5-14.5" fill="#008d21" id="path23"/><path d="M587.9 228.5c16.1-5.4 23-42.9 43.5-43-1.3-.6-1.4-1.5-2.7-2-22.2 3.3-23.4 34.6-43.3 43.3 1.2.4.9.9 2.5 1.7" fill="#d82819" id="path24"/><path d="M452 197.3c13-2 17.5 10 31.3 17.4 14.8 7.7 21.2 3 28.7 10.5v10.5c-9.5-5.3-16.7-2.4-26.5-5.5-12-3.8-28.3-17.8-35.7-15-.4-2.3-3.3-14.8 2.2-17.9" fill="#d82819" id="path25"/><g fill="#f8f100" id="g29"><path d="M450.6 198.6c13-2 18.8 10 32.6 17.2q3.1 1.7 5.9 2.7c10.7 4 16.5 1.6 22.9 8v1.3c-2.8-4.7-11.1-5.5-18.6-7a50 50 0 0 1-11.9-4.9c-11.9-7.3-20.7-19.3-31.7-16 0 0 .3-.8.8-1.3" id="path26"/><path d="M449.5 200.6c13-2 19.8 10 33.7 17.2q3.1 1.7 5.9 2.7c10.7 4 16.5 1.6 22.9 8v1.3c-2.8-4.7-11.1-5.5-18.6-7a50 50 0 0 1-11.9-4.9c-11.9-7.3-21.4-19.2-32.4-16z" id="path27"/><path d="M449.2 212.1c1.8 0 2.6-1.3 13.4 3.3 6 2.5 13.5 9.5 26.8 13 8.2 1.3 12.4-.2 22.6 4.3v1.3c-9.5-5.2-16-3.1-23.2-4.6-13.2-2.8-32-18.7-39.3-15.9z" id="path28"/><path d="M449 210.2c3.3-.7 6.4-.2 10.2 1.6 3.6 1.6 9.9 4.8 14 7.3a57 57 0 0 0 17.4 7.5c7 1.4 11.8-.4 21.3 4.4v1.2c-9.5-5.2-16.4-3-23.4-5a71 71 0 0 1-15.2-6.8c-9.5-5.7-19.4-10.9-24.2-9z" id="path29"/></g><path d="M572 197.3c-13-2-17.5 10-31.3 17.4-14.8 7.7-21.3 3-28.7 10.5v10.5c9.5-5.3 21.6-4 26.8-5 9.3-1.7 28-18.3 35.4-15.5.4-2.3 3.3-14.8-2.3-17.9" fill="#008d21" id="path30"/><path d="M575.3 205.9c-9.2-1.6-21.3 8.9-35.1 15.2-11.5 5.2-23.8 2.8-28.1 8 0 1.2-.1 1-.2 2.1 5.3-6 19.5-3.7 28.7-8 13.5-6.4 21.7-16 34.5-15 .2-1 .2-.7.2-2.3" fill="#d82819" id="path31"/><path d="M383.4 235h257.2v239.8c0 17.6-14.2 32-31.7 32H544a32 32 0 0 0-31.8 28 32 32 0 0 0-32.5-28h-65a32 32 0 0 1-31.3-32z" fill="#9b7d23" id="path32"/><path d="M500 497a50 50 0 0 0-17-3.4h-58.2a28.5 28.5 0 0 1-28-28.5V440L500 472.2zm14.6 6.5a13 13 0 0 0-2.6 6.4 13 13 0 0 0-2.8-6.5l3 1.5zM627.2 440v25a28.5 28.5 0 0 1-28.4 28.4h-58.1c-2.8 0-10 .7-16.4 3.2v-24.5zM396.8 248.7h230.4v166.8l-115 36.5-115.4-36.6z" fill="#003399" id="path33"/><path d="m629.7 417.6-117.4 37.1-118-37V245.8h235.4zm-108.2 83v-30.3L629.7 436v31a29 29 0 0 1-29 29h-59.4a50 50 0 0 0-19.8 4.6m-127.2-64.5L503 470.3v30.8a49 49 0 0 0-20.6-5H423a29 29 0 0 1-28.6-29.1zM388 239.6h248v232c0 17-13.7 30.6-30.6 30.7H543c-12.7 0-29 6.4-30.9 21.6-2-15.2-20.7-21.6-30.5-21.6h-63.4a31 31 0 0 1-30.1-30.7v-232" fill="#f2d300" id="path34"/><path d="M473.3 299.5c20.7-14.2 30.2-30 38.8-50.2v-.5l.2.3v-.3.5c8.7 20.3 18.2 36 38.9 50.1-2 8.6-11.7 11.6-16.7 6.7-1.2 2.6-3.8 3.9-7.3 2.9a153 153 0 0 0 54.2 42c-3.1 7.4-8.9 11.2-18 7.6-2.7 6.3-9.7 7.4-14 3.8 0 1.7-2 3.1-2.2 3 20.6 16.1 42.5 28 66.7 38.5-2.8 7-14.4 13.2-24 10.4-1.2 6.5-13.2 12-20.7 5.4-2.9 8.8-17.7 10.3-21.6 4.8-5.2 7.8-17.8 7.4-22.9 2.1 0 6.3-1.5 13.2 6 13.2-2.7 2.4-7.3 4-11.4 3-2.3 1-4 3.1-7 2.8v.2h-.2c-3 .2-4.6-2-6.9-3-4.1 1-8.7-.5-11.5-2.9 7.6 0 6.1-6.9 6.1-13.2-5.1 5.3-17.7 5.8-22.9-2-4 5.5-18.7 4-21.6-4.8-7.5 6.5-19.5 1-20.7-5.6-9.6 2.9-21.3-3.2-24-10.3a300 300 0 0 0 66.7-38.5c-.3.1-2.2-1.3-2.2-3-4.3 3.5-11.3 2.5-14.1-3.9-9 3.6-14.8-.2-17.9-7.6 22-11 41-24.7 54.2-42q-5.4 1.3-7.3-2.9c-5 5-14.7 2-16.7-6.7" fill="#9b7d23" id="path35"/><path d="M476.3 300.8A91 91 0 0 0 512 256v-1l.3.5.2-.5v1a91 91 0 0 0 35.7 44.7l-.7 2c0 .2-4.2-1.8-4.3-1.6-.2.3 3.6 2.8 3.4 3q-.8 1.3-2 1.9c-.2 0-4.3-3.5-4.5-3.4-.5.2 3 4 2.3 4l-2 .2c-.5-.1-3.6-3.3-4-3.4-.5-.1 1.6 2.9 1.2 2.6q-2.3-.8-4.2-2.7-.2 1.6-1.4 2.8c-.3.3-2.8-2.2-3.2-2s1.2 3.1.6 3.3l-1.6.2c-.4 0-3-4-3.3-4-.5 0 1.2 4 .8 4-.5 0-2.1-1.9-2.6-2-.3 0 .4 1.7 0 1.6 11.4 18 35.2 34 56 44.5l-.7 1.3c-.1.3-8-4-8.2-3.6s7.3 5 7.2 5.3q-.7.8-1.5 1.3c-.5.4-7.8-4.3-8.3-4-.6.1 5.6 5.3 5 5.4q-1.5.2-3 0c-.5 0-5.7-4.5-6.2-4.6-.7-.1 3.2 4.1 2.4 3.9l-4.2-1.4c-.1.3-2.5-2-2.6-1.9s2 3 2 3.3l-1.8 2.3c-.4.3-4.6-3.7-5-3.4-.3.2 3.3 4.8 2.9 5q-1.3.6-2.6.7c-.6 0-3.4-4.2-4-4.3s1.2 3.9.6 3.6l-2-1.1c0 1.7-5.4 7.5-5.7 7.4a307 307 0 0 0 65.7 38.1h.1l-3 3-6.7-4.6 5 5.8-4.2 1-6-4.8 4 5.5-3.9.2-7-5.7 4.4 5.9-5-.6-5.6-4.3 5.7 7.3-1.6 2-5.7-5.4 4.7 6.7-2.6 1.4-5.4-5.6 3.9 6.3-3.4.4-5.1-6 2.7 5.6-4.4-2.4-4.6-5.8 2.7 6.4-1.9 2.9-3.8-5.3 2.3 7-3 2-3.6-5.5 1.4 6-4 .5-2.9-5.3.4 5-4.5-1.7-2.7-5.7.7 5.4-2.3 2.8-2-5.2-.3 6.3-4.2 1.1-1.6-5.1-.8 5.2-4.2-.7-1.2-5.3-.7 4.5-3.8-2.2-1.1-6-.5 5.5-1.8 2.5-.9-5.6-.6 6.7-2.8 1.4-.6-5.6-1.2 6.2-2.8.5-.4-4.4v.2l-.5 4.3-2.8-.5-1.2-6.2-.6 5.6-2.8-1.3-.6-6.8-.9 5.6-1.8-2.5-.5-5.5-1.1 6-3.8 2.2-.7-4.4-1.2 5.2-4.2.7-.8-5.2-1.6 5.2-4.2-1.2-.3-6.2-2 5.1-2.3-2.7.7-5.5-2.7 5.7-4.6 1.7.5-5-2.9 5.3-4-.5 1.4-6-3.6 5.4-3-2 2.3-7-3.9 5.4-1.8-3 2.7-6.3-4.6 5.8-4.4 2.4 2.7-5.6-5.1 6-3.4-.4 3.9-6.3-5.4 5.6-2.6-1.4 4.7-6.7-5.7 5.5-1.7-2 5.8-7.4-5.7 4.3-5 .6 4.4-6-7 5.8-3.8-.2 4-5.5-6 4.8-4.2-1 5-5.8-6.8 4.6-3-2.9h.2a314 314 0 0 0 65.7-38.2c-.3 0-5.6-5.8-5.7-7.4l-2 1.1c-.6.3 1.2-3.7.6-3.6-.6 0-3.4 4.3-4 4.3a6 6 0 0 1-2.6-.7c-.4-.2 3.2-4.8 2.8-5-.3-.3-4.6 3.7-4.9 3.4L464 357c0-.3 2-3.1 2-3.3s-2.5 2.2-2.6 1.9l-4.2 1.4c-.8.2 3.1-4 2.4-3.9-.5.1-5.7 4.6-6.2 4.7l-3-.1c-.6-.1 5.6-5.3 5-5.5s-7.8 4.4-8.3 4.1l-1.5-1.4c-.2-.2 7.4-5 7.2-5.3s-8.1 4-8.3 3.6l-.6-1.2c20.8-10.4 44.6-26.5 56-44.5-.4 0 .3-1.6 0-1.6-.5 0-2 1.9-2.6 1.9-.4 0 1.3-4 .8-4s-2.9 4-3.3 4q-1 0-1.6-.2c-.6-.1 1-3 .6-3.3s-3 2.4-3.2 2a5 5 0 0 1-1.4-2.7 13 13 0 0 1-4.2 2.7c-.4.2 1.7-2.8 1.2-2.7-.4.2-3.5 3.3-4 3.4h-2c-.6-.1 2.8-4 2.2-4.2-.1 0-4.2 3.5-4.4 3.4q-1.2-.6-2-1.8c-.3-.3 3.6-2.8 3.4-3-.1-.2-4.2 1.7-4.3 1.5z" fill="#f2d300" id="path36"/><path d="M482 329.4h60.4V385c0 4-3.3 7.4-7.5 7.5h-15.2c-3.8 0-7 2.8-7.4 6.4a7.5 7.5 0 0 0-7.5-6.4h-15.5c-4-.1-7.3-3.5-7.3-7.5z" fill="#9b7d23" id="path37"/><path d="M484.7 332.2h55v50.9c0 3.8-3 6.7-6.8 6.8h-13.8c-2.9 0-6.5 1.4-6.9 4.7-.4-3.3-4.6-4.7-6.8-4.7h-14.1c-3.7-.1-6.6-3-6.6-6.8z" fill="#dfbe66" id="path38"/><path d="M537.7 373.7v8c0 3.5-2.8 6.3-6.3 6.4h-12.8c-3.3 0-6 1.2-6.4 4.3-.4-3-3-4.3-6.3-4.3h-13.1a6.3 6.3 0 0 1-6.1-6.3v-8z" fill="#0f5a26" id="path39"/><path d="M536.8 375v6.1a6 6 0 0 1-6 6h-12.5c-2.5 0-5.7.2-6.1 3.2-.4-3-4.1-3.1-6-3.1h-12.6a6 6 0 0 1-6-6V375z" fill="#008d21" id="path40"/><path fill="#902c16" id="rect40" d="M486.7 334.3h51v37.6h-51z"/><path d="M487.8 335.5h49v35.1h-13l-4.1-6.5h-2.5c-.5-4.8-5.2-4.6-8.1-7-.8-4.4-4.7-3.4-6.5-.7q-1 1.4-1.1 3.4c-.1 2.4 1.1 4.6 4.1 3.6l.7.7h-4l-2.5 6.5h-12z" fill="#d82819" id="path41"/><g fill="#0f5a26" id="g43"><path id="polygon41" d="m493.6 377.9 3.4.9.7-2.9.8 2.9 3.6-.9-2.9 2.2h2.9v1.5h-8.5v-1.5h2.7z"/><path id="polygon42" d="m522.7 377.9 3.3.9.8-2.9.7 2.9 3.7-.9-2.9 2.2h2.9v1.5h-8.5v-1.5h2.6z"/><path id="polygon43" d="m507.8 379.9 3.3.9.8-2.9.7 2.9 3.7-.9-2.9 2.2h2.9v1.5h-8.5v-1.5h2.6z"/></g><g fill="#902c16" id="g57"><path d="M527.5 365.4q1 .2 1.2 1.2a1.2 1.2 0 1 1-1.2-1.2" id="path43"/><path d="M525.8 368a1.2 1.2 0 0 1 0 2.3 1.2 1.2 0 0 1 0-2.3" id="path44"/><path d="M493.7 367a1.5 1.5 0 1 1 0 3 1.5 1.5 0 0 1 0-3" id="path45"/><path d="M530.5 365.4a1.2 1.2 0 1 1 0 2.3 1.2 1.2 0 0 1 0-2.3" id="path46"/><path d="M528.9 368a1.2 1.2 0 0 1 0 2.3 1.2 1.2 0 0 1 0-2.3" id="path47"/><path d="M493.7 360.3a1.5 1.5 0 1 1 0 3 1.5 1.5 0 0 1 0-3" id="path48"/><path d="M530.5 360.2a1.2 1.2 0 1 1 0 2.3 1.2 1.2 0 0 1 0-2.3" id="path49"/><path d="M491.4 363.7a1.5 1.5 0 0 1 0 3 1.5 1.5 0 0 1 0-3" id="path50"/><path d="M528.8 362.8a1.2 1.2 0 0 1 0 2.3 1.2 1.2 0 0 1 0-2.3" id="path51"/><path d="M497.8 367a1.5 1.5 0 1 1 0 3 1.5 1.5 0 0 1 0-3" id="path52"/><path d="M533.7 365.4a1.2 1.2 0 1 1 0 2.3 1.2 1.2 0 0 1 0-2.3" id="path53"/><path d="M532 368a1.2 1.2 0 0 1 0 2.3 1.2 1.2 0 0 1 0-2.3" id="path54"/><path d="M535.3 368a1.2 1.2 0 0 1 0 2.3 1.2 1.2 0 0 1 0-2.3" id="path55"/><path d="M495.6 363.7a1.5 1.5 0 1 1 0 3 1.5 1.5 0 0 1 0-3" id="path56"/><path d="M532 362.8a1.2 1.2 0 0 1 0 2.3 1.2 1.2 0 0 1 0-2.3" id="path57"/></g><path d="M498.8 114a52 52 0 0 1 50 12.5A51.2 51.2 0 0 1 484 205l-4.1-4.2 2.1-2.5 13.5 5.6 3.2 2.8-.2-2.5 4.2 2.9.1-2.5 4.6 2.4-.4-2.5 5.8 1.8-.6-2.4 5.5 1.1-.3-2.5 5.5.6-1-2.3 5.3.2-2-2 9.1-4.7 3-4.8 4.3-1.2-2-1.8 4.7-2.2-2-1.9 3.8-1.8-1.9-1.6 3.7-2.4-2.2-1.4 3.6-3.2-2.2-.9 3.2-3.7-2.2-.6 2.7-4-2.4-.2 2.5-4-2.2-.2 2-4.2-2.4.4 1.4-4.8-2.1.6.8-5.2-1.8.8v-5.5l-1.8 1.2-.5-5.6-1.6 1.6-1.2-5.6-1.6 1.4-1.4-4.8-1.2 1.4-1.7-4.5-1.2 1.5-1.8-3.9-1.1 1.3-2-3.6-.8 1.5-2.4-3-.6 1-2.3-2.6-.6 1.1-2.5-2.3-.4 1-3-2.5-.5 1.2q-2.6-1-7-1.2z" fill="#989898" id="path58"/><path d="M517.5 113.5a54 54 0 0 1 30.1 14.6 49 49 0 0 1-62 75.3q-1.7-1-3-2.3l.9-1 11.2 5 4.7 3.5V206l4.3 3v-3l4.7 2.6-.4-3 6 2-.6-2.6 5.3 1-.4-2.8 5.8.7-1.1-2.5 5.6.3-3.5-4.4 8.7-4.5 3.6-2.7 5.9-1.3-2.3-2.3 5-2-2.4-2 4-1.9-2-1.8 3.8-2.4-2.3-1.6 4-3.2-2.6-.9 3.4-4-2.5-.5 2.7-4.1-2.5-.3 2.6-4-2.3-.2 1.8-4.5-2.2.4 1.3-5-2.3.9 1-5.6-2.2 1v-6.3l-2 1.7-.4-6.2-1.8 2.1-1.2-5.7-1.6 1.8-1.7-5.1-1.1 1.6-1.8-4.5-1.2 1.5-2-4.2-.8 1.8-2.3-3.7-.7 1.7-2.6-3.1-.5 1.2-2.5-3-.5 1.4-2.5-2.3-.4 1-3-2.4-.5 1h-.4q-1.7-.6-4.3-.7l-5.6-.8q5.6-.8 11.6-.2" fill="#b6c6c8" id="path59"/><path d="m482.8 151.4 6.8-6.8 78.6 70.9c3.4 11-3.4 17.8-14.3 14.3z" fill="#9b7d23" id="path60"/><path d="m485 151.6 4.9-4.8c18.7 16.8 57.1 53.4 75.8 70.3 2.4 7.9-2.4 12.7-10.2 10.2z" fill="#f2d300" id="path61"/><path fill="#989898" id="polygon61" d="M529.3 141.6 486.9 184l-15.7-15.7 27.9-27.8z"/><path fill="#b6c6c8" id="polygon62" d="m523.7 143.8-37 36.9-12.1-12.2 25.2-25.2z"/><path d="M508.1 357c2 2.4 4.5 2 7.2 4.5 3 3.3-.6 7.1-3.7 5.7-3.8-1.4-4.5-4.5-6.8-4.9z" fill="#9b7d23" id="path62"/><path d="M507.7 357.5c.8 1.3 2.1 1.8 3.5 2.4l.1.5a3 3 0 0 1-1.5 3 3 3 0 0 0 2.1-3.2l1.4.8h-.3l.2.6q.2 1.8-1.8 2.9 2.5-1 2.5-3.1l.7.5c2.8 3 0 6-2.7 4.7-3.8-1.5-4-4.4-6.8-4.9z" fill="#dfbe66" id="path63"/><path fill="#9b7d23" id="polygon63" d="M522.7 370.7h-21.8l2-5.7h16.3z"/><path d="M503.7 365.9h7l-.2.7a1.1 1.1 0 1 0 2-.7h5.9l2.4 3.9h-.9l-2-3.2h-2.4l2 3.2h-2.8v-3.2h-1.3v3.2h-7v-3.2h-1.3v3.2h-2.7z" fill="#dfbe66" id="path64"/><path d="M507 355c1.5.7 1.9 3 .9 5.1-1 2.2-3 3.4-4.4 2.7s-1.8-2.9-.9-5c1-2.2 3-3.4 4.4-2.8" fill="#9b7d23" id="path65"/><path d="M506.8 355.9c1 .6 1.3 2.3.5 4-.7 1.7-2.3 2.7-3.4 2.1-1.2-.5-1.5-2.3-.7-4q1-2 2.5-2.3c1 .5 1.2 2 .5 3.4q-.9 1.6-2.2 2 1.7 0 2.7-2.2c.5-1 .5-2.3 0-3" fill="#dfbe66" id="path66"/><path d="M352.2 533.7h-.1q0 1.3-1.2 1.4h-.2q.3 1.4-.2 2.5c-1.3 3.4-3.9 4.3-4.4 5.6-.2.3-.3-.7-.5-.5-2.6 2.9-7 4.8-11 2.9-2.6-1.7-2.1-5.4-.3-7.6 2.2-2.5 5.6-4 7.3-4.9-.2-.2-.7-.8-.5-.8 1.6.3 5.7-1.3 7.7-.1q.7.4 1.1 1 .4-1 1-.9h.1q.4.7 1.2 1.4m-31-49.7c7.7-1.8 9 4.8 13 4.9 2.1 0 1-2.2 3.2-3a1 1 0 0 1-.7-1q-1.4 1-3 1c-4.4 0-6.7-2.5-8.3-2.5-.4 0 .6-.6.3-.8-4.4-1.6-8.7-5.6-8.3-11 .6-3.9 5.1-5 8.4-4 3.8 1.3 7.2 4.5 8.9 6 .2-.3.6-1 .8-.9.4 2 4 5.9 3.6 8.8q0 .7-.5 1.6 1 0 1.4.8.2.5 0 .8l.6.9c2.9.4 3.6 4.9 6.3 5.3.4 0 1.7-.5 2-1.8 1.2-2.6 3.7-11.2 9.7-19.9l7.5-10.3c-.2 4.5 6-.1 9.1 5.8 1.3 2.4 0 5.3 1.5 7.4 1.2 1.8 3.6-1.2 5.2 2.7 2.6 6.4 6.4 12.5 8.9 18.3 2.8 6.5.7 13 3.4 17.5-11.5 5.7-19.6 17.7-44.3 17.8-1.2-.7-1.8-1.4-2.5-1-2.4-.3-5.7 2.5-8 3.5s-4-1.4-6.3-2.1c-4-1.2-8.4 7.3-14 4.6-2.6-1.2-1.4-2-3-3-2.5-1-8.1 5.4-11.8 3-3.1-2-1.4-4-2.7-5-1.7.1-4.8.7-6.9-.6q-2-1.4-2.3-3c-1-5.7 4.3-5.5 4.4-7.5s-4.5-1.7-1.6-7.2c2.6-3.6 5.6-.7 7.8-2.1 1-.2-2.4-2.5 1.4-4.8 1.8-1 7-1.3 8-1.3 1-1.3 1.2-2.1 2.2-3-.6-1.9-5.1-3-6.4-5.2-1-1.6-.9-4.3.2-5.4 3.3-3 6.3-2 10.2-.2 1.9-.6-.3-3.2 2.7-4m53.5 76.2c3.7-2 4.9-.2 4.7-7.4 0-3.2 5.7-1.8 9.4-3.5 5-2.9-2.3-4.5 3.2-8 .6-.3 7.9-1.3 11.6-2 1.5-.3.3-2.7.6-4.7l.3-.2-.3-.1c.3-1.4 1.5-2.4 4.8-2.2 1.2.1 5.9 1.6 8.2.3.4-4 1.8-3.6 3-4 3.3-.8 5.7 2 7.9 1.5 4-2.2.6-1.6 4.4-3.7 3.5-.5 9 2 12.7 1.8q-4.4 5-8.3 11c-6.7 10.4-11.6 19.6-19.1 21q-.8 0-2 .3c-2.8.7-.7 6.2-5.1 6.6-4.6.9-3.2-3-5.1-2.2-2.2.8-3 5.4-6.6 5.3-3 .2-2.1-2.9-4-2.5-2.2.3-3.2 4-7.2 3.4-3.5 0-3.2-4.2-5.2-5.3-5.7 2.8-14.3-.4-7.9-5.4m74.4-36.2-.2-.1c-.8.3-1.8 0-2-.7l-.1-.3q-1.5 1-3 1c-4.4 0-6.7-2.5-8.4-2.5-.4 0 .7-.6.3-.8-4.4-1.6-8.7-5.6-8.3-11 .7-3.9 5.1-5 8.4-4 3.9 1.3 7.2 4.5 9 6 .2-.3.6-1 .7-.9.4 2 4 5.9 3.7 8.8q0 .7-.6 1.6 1 0 1.4.8.2.5 0 .8l.2.2zM329 418.2c2.2-.8 4.3-1.5 6-.8 2.5 1 3 4.2 3.4 3.8 1.2-1.8.5-3.9-.6-4.9-1.7-1.5-5.7-2-6.6-3-2.4-2.5.2-3.7-.2-5-.7-2.5-8.7-5.3-9.9-6.9-.8-1.2-1.3-2.5 0-4.2s-.4-3.3-2.7-5c-6.9-7-1.5-9 .6-9.4.7-.2-5.1-4.9-6-8.7-.5-3 4-5.2 4-5.6-9.9-12.4 3.4-14.7 7.8-7.7 1 1.6 3.6-3.2 6.2-2.3a23 23 0 0 1 4.3 2.9l-1.9-3.7q-2.6.7-5.4-1.2c-4-1.6-5.3-4.7-6.9-5.4-.3-.1.9-.3.6-.6-3.5-3.1-6-8.4-3.6-13.3 2-3.3 6.6-2.8 9.3-.6 3 2.6 5 6.8 6 8.9l.5-.3.8 1.5c.6 2.5 2.2 6.3 1.1 8.2q-.4 1-1 1.7c.6.2 1.7.7 1.7 1.2q0 .5-.3.8l2.5 7.6c1.3-.4 4-2 5.5.3 1.6 2.4 1.4 10.2 3.2 9 1.1-.7 2.5-1.9 4.7-.8-.2-1.4-.6-3.6 0-4.5.8-.9 3.4-.1 3.7-1.7.4-2.3-2-7-2-9.3.2-2.3 3-1.7 3.7-2h.1l.1-.1h.1v-.1h.1v-.1h.2v-.2h.1l.1-.2.1-.1.4-1 .2-1.3q-.2-2.7-.1-5.3 0-1.2.6-2c1.3-2.2 5.7 1.5 6.1-.7.4-6.3 4.1-10.7 6-6.7.7 2 1.3.1 2-.9 3.5-3.9 3.2-4.6 8-5.2 2 1.2 1.8 6.2-1 10.8-.8 2-.3 2 .9 2.8 6.3 4.1-4.6 12.3-.4 14.2 6 4-4 9-2.6 12.2 3 1 4.6 3.3 3.1 5-1.9 2.4-6.4 5.2-6 7.2 0 3.1 4.4 6.2-.1 9.3-.9.6-1.8 1.2-1.8 2.2.6 2.9-4.1 16-15.7 30.4-13 16.6-24.3 36.6-23.8 42.6v.1c-.8-.6-3.1-1.5-4.2-2.9-1-1.3-.5-3.5.3-5 1.5-3.2-10.4 1.8-11-8.8 0-1.1 1.8-3.3-.7-4.9-5.2-1.5-9-5.8-7.1-9.4.4-.8 3.3-1.4 2.5-3.6-6.2-3.8-7.5-10.5-3.4-11.7 4.6-1.4-.6-4-1.4-7.5a7 7 0 0 1 1-5.4c1.4-1.9 5.5-1.5 9 3.6 2 .4 1.4-2.7 3.3-3.3 4.7-1.5 5.1 7.1 6.6 7.1m-21.9-158.5c2.5.7 3.3 1.8 6.2 3.5 2.7.7 1-2.3 4.3-2.6 4.3-.3 6.3 4.2 8 7.5 1.5 2.2.7-2.9 5.9-2.3 3.4.3 5.8 5.4 7.7 9.4 1 .5 1.5-.8 3-1.6l-1.6-4.4q-1.6-.1-1.7-1.4v-.3q-1.6.3-3.1-.2c-4.1-1.6-5.4-4.7-7-5.4-.3-.1 1-.3.7-.6-3.5-3.1-6-8.5-3.7-13.4 2-3.3 6.7-2.7 9.3-.5 3.1 2.6 5 6.8 6 8.9.4-.2 1-.8 1.1-.6-.3 2 1.6 7 .2 9.5q-.5.8-1.1 1.3 1 .4 1 1.3 0 .4-.3.8l1.2 4.7q1.3-.2 3.4.7c3.5 4 2.8 4.7 4.4 10.3 1.3 2.4 1.3-1.3 5.3 1.8l2.3 6c-4.9 6.8-15 19.3-21.3 30.3h-.2c-1.2.2-4.2.2-5.2-1-1.3-1.4-.5-4-.7-3.9-2 .6-7.2-1-8.7-3.3s.7-5.4-1-5.3c-5.4-1-7.7-1.1-10.3-4.8-1.4-4.9 4.4-3.5.8-6.1-3.2-2.3-5.4-2.2-8.4-6.9-1-6.7 6.3-5 1.3-8.1-2.5-2.4-8.2-8.4-2.1-10.3 3.7-1.2-2.2-5.6-1.3-10.2 1-2.2 2-3.4 5.7-2.8M332 235c.4-1.5-1.3-2.6-2-3-10-5.5-4.9-7.8-3.5-10.1 1.2-1.9-3.5-2.7-4.6-4.4-.9-1.1-1.9-3.5-.6-5.1 1.4-1.7 4.4-.1 2.9-2.1-3.5-7.1-2.1-11 0-11.4 1.2-.2 2.5.7 2.5 0-1.4-15.2 8.4-10 10.2-3.6 1 1.5 2.1-1.4 4.6 0 1 .5 1.5 4.4 2.3 4.4 5-3-5-16 5.2-14.7 3 .4-3.3-12.2 5.6-12.2 2.4 0 4.3 2.8 5.2.3.3-6.4 6.3-11 8.3-5 .8 2 2 1.8 2.7.8 3.5-3.9 5-6.4 10.3-5 2 1.1 3 4 .2 8.7-.8 1.9 1.6 2 2.7 2.7 6.4 4.2-7 7.3-2.7 9.3 6 4-6.7 8.1-5.4 11.2 2.3 2.6 2.1 4.8.7 6.5-1.9 2.4-9.2 4.5-8.8 6.5 1.1 5.4-5.9 8.3-6.1 13.5 2 2 1.7 1 3.9 4.7 1 1.9 2.2-2.5 5.4-.4 1.9 1.3 2.6 6.8 3.3 8s4.7.4 5.5 4c.7 3.2-1.8 9.1-1 10.5 1.3 2.4 3.3-.3 4.3 5.8.7 4.3-4 6.7-2.8 8.9.9 1.6 3 3.4 2.4 6.6-.9 4.8-4.1 11.1-5.5 15.2a54 54 0 0 0-20.7-20l-.3-.7c0-1.7-4.6-4.3-8.7-7.3l-2.1-1.7c-3-2.4-5.2-5-4.2-7.7 1.2-3-4.6-5-7.7-7.1-3.2-2.2-1.5-6-1.5-6.1" fill="#9b7d23" id="path67"/><path d="M381.4 166.7c0 2.5-1.3 3.7-2.1 7 .3 2.4 5.4 1.9 4.8 4.3-.6 2.1-3.8 2-5.7 5.6.4 2.3 4 2.5 2.3 4.3-2.3 2.6-4.8 3.2-6.9 6.7 0 3 3.3 3.8 1.7 6-2.3 3-9.5 5.4-10.2 8q0 1 .7 2.5c-.2 2.2-5.3 6-5.8 10.4-.9-.3-1.5-.2-4-.9q-.2-4 .4-8.5c0-.2 6.6-3 6.6-3.3s-6.4 1.9-6.3 1.6a92 92 0 0 1 2-8.5c.1-.3 11.2-4.2 11.3-4.5-4.8-1-10.8 2.8-10.6 2.4l2.3-7.5c1.4 0 11.1-4 14.9-7-9.2 0-13.5 4.1-13.3 3.7 4.2-7.7 10.4-15 14.3-22.6 1.6-2 3.1-.8 3.6.3m-48.7 23.8c2 1.6 1.2 4 3.2 6.7 2 1.3 3.5-2.3 4.9-.2 1.3 1.7.4 1.8 2 5.7 2 1.1 5.3 0 6 2.4 1.4 4.5-1.4 4.4-.1 8.3 2.4 1.9 5.5 2.3 6.1 5q.2 1.4.1 3.1c-1.6 3.6-.2 7.6 1 9.7-.7 3.5-5.4-1-5.9 3.3-.4 4 2 3.4 2.4 7.3 0 2.1-2.4.9-3 4 0 4.4 8 8.6 1.8 11.7-2.2-1.6-3.9-15.3-5.9-17.6-.1-.2 5.9-15.1 5.7-15.3s-5.7 4.8-6.5 12.2c-1.8-2.2-2.4-7.4-4-10.3 1.6-1 6.7-11.7 6.5-12-3.9 3-7 10.6-7.1 10.3-1.4-2.2-2-7.6-3.5-9.9 1-1 5.2-5.5 5.4-10.3-5 4.2-5.6 7.5-5.8 7-3.1-8.1-2.9-12.2-6.2-20.2-.5-2.4 1.7-1.2 3-1m26.9 32.5a26 26 0 0 1 4.7 5.4c2.8 2.2 5-1.6 6.4.1 1.3 1.7 1.1 3.3 1.4 7 2 2.2 5.5 1.4 6 3.8 1.1 4.4-3 6.4-1.7 10.2 2.5 2.9 3.6 2 4.8 4 .8 5.5-2 4.5-2.6 10.3.4 2.8 2.4 1.3 2.8 5.3-1.6 5.4-3.4 9.5-5.4 14.5a72 72 0 0 1-3.6-14.4c0-.2 7-13 6.8-13.2s-6.4 3.3-7.3 10.7c-1.7-2.2-.7-6.4-2.2-9.3 1.5-1 5.6-11.1 5.4-11.4-3.8 3-5.8 9-6 8.7-1.4-2.1-1.1-6-2.5-8.2.9-1 3.5-4.6 3.6-9.4-4.9 4.2-4.8 6.4-5 6-3-8.2-4.2-10.6-7.6-18.6-.5-2.4.8-1.9 2-1.5M308 261.6c2.4.8 2 2.9 5 4.6 2.6.7 2-3.7 5.4-4 4.3-.3 5 5.7 6.6 9 3.7 3.3 2.4-6.7 8-3.5 2.8 1.6 2.7 6.3 5.4 9.4 3.4 1.7 3.2-4.5 7.8-.9 3 4.8 1.7 4.4 3.4 10 2.4 3.2 3.7-2 5.6 1.4.7 1.9 1.3 4.5 1.9 6.2l-2 3.2-8.4 11.2-1-1.5c-.2-.3 3.3-15.5 3-15.6-.2-.2-3.1 1.6-4.6 14.3-2.4-1.3-5.2-5.8-7.7-8 .4-2 3-16.4 2.6-16.6-2.8 4.3-4.2 15.2-4.5 15-2.1-1.5-5.5-5.4-7.7-7.4a55 55 0 0 0 1.9-14.2c-3 5.7-3.2 12.1-3.6 11.8-7-6.1-14.6-17.3-20.7-23.3.8-2.3 2.4-1.7 3.6-1m6 150.3c1.7.7 2.5 2.3 4.5 3.8 1.9.7 2.8-3.6 5.2-3.6 3.1 0 1.6 5 4 7.5 2.1 2 3.4-3.3 7.2-.6 2 1.4 1 5 2.8 7.3 3.2 3 4.3-.3 7.4 2.7 1.6 3.2-.4 6.2 3.3 9.3-3.2 4.3-7.7 11-9 12.6-.1 0-.5-1.7-1.2-3.1-.1-.2 3.4-13 3-13.4A36 36 0 0 0 337 447c-1.7-1.2-2.7-4.6-4.4-6.3.5-1.4 1.8-13.2 1.4-13.3-2.4 3-2.3 12-2.5 11.8-1.5-1.2-4.3-6-5.7-7.6.4-1-.5-7-.4-10.4-2.5 4-.8 8.7-1 8.5-4.6-5-9-12.4-13-17.2.7-1.6 1.8-1 2.6-.5m5.7-52.9c1.6.5 2.3 1.6 4 3.3 3.2 1.7 4.7-3 7.1-2.7 3.1.5 2.8 5.7 5.6 8.6 2.8 2.3 3.4-4.2 6.8-1 .5.5.2 6.5 2.2 9 1.3 1.7 5.6-2.3 7.3 1.1.9 1.7 1.7 4.3 1.6 6.5 0 1.2-.4 3.8 1.2 5.8 4-.2 4.8 2.3 5.2 3.3 1.5 3-1.4 7.1-.6 9.2 2.8 3.4 2.2-.1 4.9 3.2 1 3.4-1.8 7.3.3 10.6-3.8 3.8-6.2 8.6-7.8 10l-3.1-8.5c0-.2 3.7-13 3.4-13.6-.1-.1-1.4 1.4-4.5 10.1-.7-.6-2.6-5.5-5.3-10.2-.2-.5 4.6-17.3 4.4-17.7s-5.5 15.8-5.8 15.4c-3-5.2-6.4-10-7.1-11 .7-1.3 3.4-14 3-14.2-2.7 2.6-3.8 12.8-4 12.6-1.2-1.4-5.7-7.2-6.9-9 .5-.8.5-7 1-10.3-3 3.6-2 8.6-2.1 8.3-3.9-5.5-11.6-13-15-18.3 1-1.4 3.5-1.2 4.2-.5M313 488.7c1.6-.4 3 .5 5.4 1 3.5-.3 1.7-3.6 4-4.6 2.8-1.3 6.5 3.4 10.1 5 5.4 1.5 3-3 7.6-2.1.7 0 3 1.7 6 4 1.6 1.2 3.7-4.3 7-2.4 1.6 1 1.7.3 2.8 2.2.6 1 2.7 4.3 5.1 5.1 3.2-2.4 4.4-1.4 5.4-.8 2.9 1.8 3.2 8 5 9.4 4.2 1.3 3.8-.5 7.8.8 2.7 2.2 3.6 7.5 6.1 10q-4.4 3.2-10 6.3l-4.3-2.2c-.2-.1 1.5-11.5 1-11.7-.1-.1-2.5 4.5-2.2 10.7-.8 0-6-4.8-10.8-7.3-.4-.2-.3-13.2-.7-13.4s-.1 12.3-.6 12l-7.2-3.2a103 103 0 0 0-6.2-14.6c-.9 3.7 4.8 13.8 4.6 13.7-1.8-.5-9.6-4.8-11.5-5.6 0-1-5.1-6.3-6.5-9.4.7 4.5 4.6 8.5 4.3 8.3-6.8-5.2-20.5-6.8-26.2-9.5 0-1.7 3-1.9 4-1.7m64.2 72c3.6-2 4.7-.2 4.6-7.2 0-3.2 5.5-1.8 9-3.4 4.9-2.8-2.1-4.4 3.2-7.7.6-.4 7.6-1.4 11.2-2 2.6-.5-3-7.5 5.3-7 1.2.1 5.7 1.5 7.9.3.5-3.9 1.8-3.5 2.8-3.8 3.3-.9 5.6 1.8 7.8 1.4 3.8-2.2.5-1.6 4.3-3.6 3-.4 7.4 1.4 10.8 1.7l-4 5.1c-4 1.6-8.7 2.9-9.9 3.3-.5.2-10.8-1.9-11.2-1.7s9 2.7 8.5 2.9c-5.6 2-7 3.3-8 3.8a57 57 0 0 0-13.2-2.3c3.5 2.7 11.8 2.3 11.5 3-1 1.6-7.4 4.6-9.4 5.5-.7-.7-10.6-1.2-13.7-2.4 3.7 2.6 11.7 3.9 11.2 4.2a182 182 0 0 1-30.4 13c-1.2-1.2 1-2.6 1.7-3.2m73.4-17.8c3.5-.7 5.7-1.4 2.2-4.4-2.4-2 4.2-3.1 8-3.1 5.6-.7-3.2-6 3-7 .7 0 5.8 2.6 9.3 2 2.8-.5-.8-8 6.6-4.2 1 .5 2.6 4 5.1 3.8 2-3.4 1.8-2.3 2.8-2.1 3.4.5 5.3 5.4 7.5 5.9l4.3-.4c3.4 1 8.7 12 12 13.2.4 1.7 2.3.7-1.6.4a41 41 0 0 0-15-6.7c-.4 0-6-8.6-6.3-8.6-.5 0 3.7 7.7 3.2 7.7-6-.4-7-.8-8.1-.8-.8-1.3-6.6-8.3-7-8 2.2 3.8 5.7 7.5 5.2 8-1.5 1-6.2.3-8.3.3-.4-1-5-3.6-7.5-6 2.4 4 5 6.5 4.5 6.6-8.2.6-16.6 4.7-23 6.3-.5-1.6 2.1-2.6 3-2.9m-85.6-82.4c4.6 6.4 5 .8 7.5 3a13 13 0 0 1 2.1 8.1c1.1 3.7 4 .8 5.6 3.6 1.8 3.2-2 8.2.3 11 2.8 1.7 4 2.5 4.2 3.3.7 3.3-.5 4.1.4 6.2 2.3 3 2.8.6 5.6 3.8 1 2.6 1.2 8.1 1.8 12l-2.9 1.8c-3-3.4-7.6-8.9-8-9.9 0-.2 1.4-10.9 1-11.4 0-.1-2.2 4.4-2.5 10.1-.7-.5-2.4-2.1-5.3-6.7-.2-.4 2.2-13.4 2.4-17.4 0-.2-2.2 4-3.4 8.5-1 3.5-.8 7.6-.9 7.4l-6.5-9.5a85 85 0 0 0 3-16.3c-2.5 2.7-4 14.2-4.1 14-3.3-5-5.2-8.8-7.2-12l.6-.9zm16.7-122.6c-1 2.1-2.7 5.6-2.7 8.1 1 3.4 1.3 1.8 2.7 3.8 1.9 2.5-3.3 5.9-3.3 9.9.4 3.5 2.2 1 2.4 5.7 0 .7-3.4 4.3-3.7 7.5-.3 2.1 5.8 1.7 3.5 4.8-1.3 1.8-4.7 2.7-6 6.8-.4 1 1.7 4.3 1.4 6.9-2.2 3-4 4.7-4.4 5.7-1.2 3.2.9 5.3 0 7.3a9 9 0 0 1-.8 3l-.1.4c-.7 1.4-1.8 2.8-3.5 5.5.3-6.8 1-10.8.8-21.6 0-1.2 5.5-10 5.6-10.4s-5 4.5-5 4c1.5-5.3.6-5.3.8-6.4 1.4-.5 7.8-10.4 7.6-10.8-3.6 1.3-7.4 5.8-7.4 5.5 0-1.9 1-7.3 1.4-9.4 1-.3 4.8-3.6 6.4-7.7-4.3 1.8-5.8 5.7-5.8 5.4.8-9.8 6.2-20.9 8.8-27.2 1.7-.3 1.9 1.4 1.3 3.2m-22.2-162.6c2 4.3 3.7 10 2.8 16-3.2-3.7-3.3-12.4-2.8-16m-33 34.9c4.7 1.1 9.7 1.6 9.1 4.2-1.7 1.1-6.7-1.6-9-4.2M309 288c4.7-.9 16-1.3 16.6.5-1 1.8-13.4 1-16.6-.5m5 141.8c3.4-.3 10.7.6 11 2-1 1.1-8.8-.7-11-2m11.2-41.4c4.4-.4 12.7.8 13.1 2.5-1.2 1.5-10.2-.9-13.1-2.5m-4.8-9.4c4.4-.4 9.8-.8 10.2 1-1.2 1.5-7.3.7-10.2-1m45.4-24.6c2.5 3.7 5.5 8.1 4.3 9.4-2-.3-4.3-6-4.3-9.4m-3.8 8c2.6 3.6 6.6 13.4 5.3 14.6-2-.2-5.2-11.3-5.3-14.6m-4.3 11.4c2.5 3.7 10.4 15.5 9.1 16.7-1.9-.2-9-13.3-9.1-16.7M327.2 249c1.7-2.7 5.5-2.3 7.7-.4 3.2 2.7 5 7.2 5.4 8.3.8 3-3.6 6.2-6.6 5.4-4.5-.6-9.2-7.6-6.5-13.3m-7.8 89.2c1.7-2.7 5.6-2.3 7.8-.4 3.2 2.7 5 7.2 5.4 8.3.7 3-3.7 6.2-6.6 5.5-4.5-.6-9.3-7.7-6.6-13.4m-.5 133.9c.6-3.2 4.3-4.2 7-3.3 4 1.3 7.4 4.9 8.2 5.7 1.8 2.6-1.1 7.2-4.2 7.5-4.3 1.1-11.4-3.6-11-10m16.7 72.4c-2.2-1.4-1.8-4.5-.3-6.3 2.2-2.6 6-4 6.8-4.4 2.5-.6 5 3 4.4 5.5-.5 3.6-6.3 7.5-10.9 5.2M354 242c4.6 1.2 11.6 2.3 11 4.9-1.8 1-8.7-2.2-11-4.9m-4.4-43.3a27 27 0 0 1 6.2 15c-4-3-6-11.4-6.2-15m-17 34.6c4.7.2 6.6.8 11.6 4.5-1.2 3.3-8.7-2.4-11.6-4.5m-3.9 74.6q6.5-2.7 15.5-1c.3 3.6-12 1.7-15.5 1m-6.1 139c3.3-1 10.4.9 14.7 2.2 0 2.6-12.2-1.4-14.7-2.2m38.3 46c3.3-1 7.8.7 12.1 2 0 2.6-9.6-1.2-12.1-2m-9-9.3c3.2-1 9.4-2.1 13.9 1 0 2.6-11.5-.3-14-1m-35.2 44.3c.2-3.4.1-7 4.6-10 2.4.8-3 8-4.6 10m-5.7-1.7c.1-2.4 0-4.9 3.2-7 1.7.6-2 5.6-3.2 7m13.6-18.4c2.5-2.4 7.5-6.1 13-5.3 1 2.4-10.5 4.8-13 5.3m10.7 7.4c6.2-2.9 7.9-7 13.3-7.3 1.6 2-9.7 7.8-13.3 7.3m10.2 4.3c2-3 7-3.8 12-6.8 2 4.3-9.6 5.8-12 6.8m14.7 6.2c1.9-2.9 5.2-3.5 9.5-5.5 0 5.5-7.1 4.5-9.5 5.5m39.2 38c0-3.5 4.8-8.4 7.2-12.5 3.2 4.5-5.7 10.3-7.2 12.5m64-16a30 30 0 0 1 9-8c.7 4.3-7.2 7-9 8m-57 13.6c0-3.5 8.6-12.2 11-16.2 3.2 4.5-9.6 14-11 16.2m64.9-12.1c1.1-2.5 7.8-6.9 10.9-9 .7 4.3-9.2 7.9-11 9m-52.6 4.5c0-3.5 7.8-10.5 10.2-14.5 3.1 4.5-8.7 12.3-10.2 14.5m64.5-4.2c1.1-2.5 6-6.2 9-8.3.9 4.3-7.2 7.2-9 8.3M338.5 413.9c4.2.6 9.7 1.8 15 2.6-3.2 3-7.9 1.6-15-2.6m20-153c4.8.1 7.9 3 12.9 6.6-1.3 3.3-10-4.5-12.9-6.6m-6.2-78a41 41 0 0 1 4.8 19.4c-3.4-3.5-5.1-15.9-4.8-19.4m-22.8 39c4.6.8 9.9 1.5 10 4-1 1.8-7.5-1.5-10-4m-11.7 76c4.6-1.2 16.8-1.7 17.9.6-.1 2-14.5.6-17.9-.6m-1.2 142.3c3.4-.5 14.2-.3 14.8 1.4-.2 1.4-12.5-.3-14.8-1.4m12.3-39.6c4.4-.7 17 2.6 17.8 4.8-.2 1.8-14.8-3.4-17.8-4.8m26-150c4.7.9 13.5 3.6 13.6 6-1 1.8-11-3.5-13.6-6m-49.5 254.1c2-1 4-1.8 6.6-1-.7 2.7 6.6 4.4 7.6 4.4 3.5.4-.6 3.8 1.7 6-.1 0 1 1.7 2.9 2 3.4.9 6.6-1 7.4 1.4-.1.8.7 3.6 3.4 4.2 4.8 1.2 7.5-2.5 10.9.3.8.6 1.2 3 2.5 4 2.4 1.6 5.8 2 2.5 2.2-2.6.4-5.2-1.7-6.2-5-.6-1.4-5.2.8-6.8.9-5 .7-6.6-2-7.8-4.9.3-1.4-4 0-6.9-1-1.9-.7-2.2-1.6-2.4-2.7-.7-.8-10.2-5.5-10.5-5.4s9.5 5.7 8.9 5.8l-3 .7-2.8 1c-.3 0-8.4-3.3-8.6-3.2-.4.2 7.1 3.8 6.6 4-8.4 3-15.4 7-16.2 6.9-2.4-.3-2.6-4.9 2.7-6.2 2.1-4-3-3.8-2.1-6.9 1.4-4.8 6.2 0 9-1.5 1.9-1.1-1.9-3.7.6-6m186.2 56.8 1.8 2.2c1.8-3.6 5-6.8 7.5-10a28 28 0 0 0-9.3 7.8m.7 3.4c.8-.8-1-2.1-1.3-3l-1.3 1.5c.3.8 1.1 2.5 2.6 1.5M429 510.2c.5-3.2 4.3-4.2 7-3.3 4 1.3 7.4 4.9 8 5.7 2 2.6-1 7.2-4 7.5-4.4 1.1-11.4-3.6-11-10" fill="#f2d300" id="path68"/><path d="M359 348.8h-.5c-1.9-2.5-1.9-3.6-1.7-6.2 10.1-10 25.3-27.8 25.3-38 1.5-17.3-16-37-32.4-41.8-3-1.4-2.8-3.6-2.3-5.3l-2.1-1.6c-4.9 7 7.5 14.8 15.6 32.8-3 5.6-20.4 25.5-26.6 39.8-6.1 14.3 2.6 19.6 4.4 24.3 2 5.5 9.6 19.8 13.1 17.6v4.1l.5.2c-.3-1.4-.7-3.6 0-4.5s3.3-.1 3.6-1.7c.4-2.3-2-7-2-9.3.2-2.3 3-1.7 3.7-2 2.4-1 1-5.3 1.4-8.4" fill="#902c16" id="path69"/><path d="M340.1 351.5c-4-4.9-7.4-12.8-5.7-16.3 7.4-25.1 35.5-42.3 30.7-62.5a60 60 0 0 1 15 24c2.9 14-7.8 25.6-18 37.5-8.3 9.5-17.7 19.4-11.2 34.1-7.8-8-6.4-8-10.8-16.8" fill="#d82819" id="path70"/><g fill="#f8f100" id="g74"><path d="M379 293.6c3 14-8.3 27.7-18.5 39.6-8.3 9.5-16.6 19.4-11.7 33l-2.4-2.8c-2-13.4 4.6-21.6 12.2-30.6 8.1-9.4 22.4-23.1 19.6-41.1z" id="path71"/><path d="M377.1 289.3c3 14-7.1 28.9-17.8 40.3-8.6 9.3-16.6 19.9-14.2 32-1-1.6-1-1.4-1.8-3.3-.9-9.7 7.2-20.5 14.8-29.4 8-9.5 21-23.5 18.2-41.5.6 1.2.5.9.8 2" id="path72"/><path d="M334.3 340.3a81 81 0 0 1 16.5-31c9.2-12.6 18.4-23.8 15.7-35.2.8 1 .6.7 1.5 1.6 1.3 12-7.6 22.5-16.3 34.3-7.2 9.7-14.4 19.7-16.4 33.3z" id="path73"/><path d="M335.9 344.6a89 89 0 0 1 17.3-34.6c8.9-12 17.3-22.7 15.6-33.6l1.4 1.8c.4 11.6-8 21.7-16.4 33.2a82 82 0 0 0-16.9 35.4c-.2-.6-1-1.6-1-2.2" id="path74"/></g><path d="M334.2 469.9c-.5-6 7.7-27.3 21-43.9 11.5-14.5 19.2-26.1 18.6-29 1.8 0 .7 4.4 2.3 10.7 2.3 9.4 6.2 18.7 6.2 21.1.5 3.8-1.2 10.8-4.9 16.7-5 8-11.4 16.5-17.2 24.9-6 8.6-10.1 16.1-11.2 18.7-1.4-1-2.4-5.1-4.7-7.6-4.5-4.8-10-9-10-11.6" fill="#902c16" id="path75"/><path d="M336.2 470c-.5-5.4 8.7-27.5 20.7-42.6 10.5-13.1 17.3-20.7 16.7-23.3 1.7 0-.2 1 1.3 6.8 2.1 8.5 5.5 16.8 5.5 19 .4 3.4-2.4 10-5.7 15.4-4.6 7.3-10.8 15.8-16 23.4-5.5 7.8-8.9 14.4-9.9 16.7-1.2-1-2-4.3-4-6.6-4.2-4.3-8.6-6.4-8.6-8.9" fill="#d82819" id="path76"/><g fill="#f8f100" id="g80"><path d="M379.5 426.1c.3.8.2.6.3 1.3.5 3.4-2.4 10.6-5.7 15.9-4.6 7.3-10.8 15.8-16 23.4-5.5 7.9-9.3 14.9-10.3 17.2l-.7-1.3c2.6-5.5 5.9-10.1 9-15.2 4.8-7.7 11.7-16.2 16.4-24a50 50 0 0 0 7-17.3" id="path77"/><path d="m378.6 423.3.3 1.3c.5 3.4-2.5 10.6-5.8 16-4.6 7.4-10.9 16-16.2 23.6-5.5 8-9.3 15.1-10.3 17.5l-.8-1.4c2.6-5.6 6-10.3 9.1-15.3 4.9-7.9 11.9-16.4 16.6-24.3 3.5-5.8 5.8-11 7-17.4" id="path78"/><path d="M336.8 471.7c-.5-6.6 9-27.8 21-43 10.7-13.3 17-20.3 16.4-22.9l.5 3.2c-5.7 9.3-17 20.8-22.7 30a89 89 0 0 0-14.2 33.6c-.6-.4-.2-.1-1-.9" id="path79"/><path d="M338.6 473.5c-.5-6.4 8.6-27.2 20.3-41.9 10.3-12.8 16.5-19.4 16-21.9.2 1.5 0 1.6.4 3-5.5 9.1-16.6 19.7-21.7 28.6-6.5 11.4-13 21.4-13.9 33.1z" id="path80"/></g><path d="M349.5 528.4c28.5-3.9 36.4-19.8 55.7-20.8 6.3-.7 15.5 3.4 22.7 10 7.6 4 11.5 6.7 12 9.4v.3c-2.6-.6-5.3-1.4-7.4-1-3.8 2-.4 1.4-4.4 3.6-2.2.4-4.6-2.3-8-1.4-1 .3-2.5-.1-3 4-2.2 1.2-6.9-.3-8-.4-3.4-.2-4.6.8-4.9 2.2l.3.1c-5.1 3.3-10.2 5.5-14.8 8.1-6.8 3.8-12.6 7.4-15.4 6.4-5.9-.8-7.6-5.4-12.8-9-2.7-2-6-3-8-4.9-3.7-3.4-4-5.8-4-6.6" fill="#902c16" id="path81"/><path d="M352.1 530c3.5.4 11.3-3.5 21-7.3 14.9-5.7 20.2-13.5 34.3-13 3.7.1 7.9.7 12.9 3.7 4.4 2.6 8.5 7.4 14 9-2.6 0-22.4 4.5-35 12-10.5 6.3-20.2 12.8-24.7 12.3-7-.1-8.5-7.5-13.4-9.3-8.7-3.2-9-6.5-9-7.4" fill="#d82819" id="path82"/><g fill="#f8f100" id="g86"><path d="M352.5 531.5c3.5.3 12.4-4.2 22.2-8 16-6.2 20.6-15 41.2-12.2l1.5.5c-6.2 0-13-.6-18.3 1.2-8.4 3-15.5 8.2-23.9 11.4-7.2 2.7-15 7.2-22 8.1-1-.8-.1 0-.7-1" id="path83"/><path d="M354 533.3c3.5.4 12.4-4.1 22.2-8 16-6.1 17.8-14 42.6-12.6l1.8.8c-6.2-.1-16.3.2-21.6 2-8.3 3-13.9 7.6-22.3 10.8-7.2 2.6-14.7 7.1-21.6 8-1-.7-.5 0-1.1-1" id="path84"/><path d="M431.2 521.1a114 114 0 0 0-34.9 12.1c-10.5 6.3-21.3 13-25.8 12.4l-1-.7c11.5-1.5 23.4-12.5 36.2-17.6 7-2.8 16.5-5.6 23.8-7.1 1.2.5.6.6 1.7 1" id="path85"/><path d="M429.1 519.5a114 114 0 0 0-34.9 12.1c-10.5 6.2-21.4 13-25.9 12.4l-.7-.7c11.6-1.6 23.2-12.5 36-17.6a155 155 0 0 1 23.8-7.2c1.2.6.6.7 1.7 1" id="path86"/></g><path d="M472.2 513.3c3.8 0 8.4 3 14.1 5.5l4.5 1.6-8 6.1c-1.5-.7-2.7-2.8-3.4-3.1-7.2-3.5-5.7 4.5-8.2 5-3.2.5-8.3-2-9-1.9-7.7 2 1.1 6.5-4 7.1-4.3-1.1-10.5 2.7-8.4 4.5 3.2 2.8 1.8 2.7-1.4 3.3-2.9.3-4.3 4.2-3.7 5.6 1 2 2.2 3.7 8 2.2 1.6-.1 2.4-1 3.3 0 .6 1.3-4.5 6.3 3.6 4.9-10.3 12.2-17 9.6-26.5 8-6.7-1.2-6.8-.2-11-1.3 8.3-7.6 10.5-12 17-22.1 9.7-15.1 23.2-26.4 33.1-25.4" fill="#d82819" id="path87"/><g fill="#f8f100" id="g93"><path d="m474 513.4 2 1a28 28 0 0 0-18.4 7.2c-3.1 2.9-6.7 6.3-9.9 10.1-2.6 3.2-5 6.7-6.9 9.5-4.4 6.7-8.7 14.7-15.3 20h-1.7c8.3-7.6 10.7-12.3 17.1-22.3 9.7-15.1 23.2-26.4 33.1-25.5" id="path88"/><path d="m477.7 515 2 .8c-5.6-.2-14 2.4-18.7 6.2a74 74 0 0 0-17 19.5c-4.5 6.7-8.7 14.6-15.4 20H427c8.3-7.6 10.7-12.3 17.1-22.4 11.4-17.3 23.8-25.2 33.7-24.2" id="path89"/><path d="M456.8 554.3a30 30 0 0 1-3.7 4.7q-1 1.5-3.2 3.1l-1.8.6a55 55 0 0 0 7.5-8.7q.6.4 1.2.3" id="path90"/><path d="M489.4 520q-4.4 2.5-7.8 5.7l-.7-.7q3-3 7.5-5.5z" id="path91"/><path d="M487 519c-3 1.9-4.7 2.8-7 5l-.7-.7c2-2 3.7-3 6.6-4.7z" id="path92"/><path d="M455 553.1q-1.5 2.2-3.3 4.3-2.5 3-5.7 5.9l-1.5.1a77 77 0 0 0 11.6-14c-.5 1.6-1.3 2.7-1.1 3.7" id="path93"/></g><path d="M370.7 209.4c2.4 0 10.5-5.6 12.3-7 0 2.8 3.7 6.2 6.2 10 2.7 4.2 4 8.3.2 11-4.3 3-8.4 1.4-10.8-2.1-1.6-2.3-2-6-3.2-8.2-1.5-2.8-4.7-3.3-4.7-3.7" fill="#d82819" id="path94"/><path d="m372.8 208.8 1-.5c2 1.2 2.2 1.7 3.7 3.2 1.6 2 2.6 7.5 4.3 9.2q2.9 2.7 7.4 2.7l-1.2.8c-3.2 0-6.4-2-7.5-3.6-1.6-2.3-2-5.8-3.4-8-1.7-2.6-4.3-3.5-4.3-3.8" fill="#f8f100" id="path95"/><path d="m374.5 208 1-.5c2 1.2 2.1 1.6 3.7 3.2 1.6 2 2.4 7.2 4.1 9 1.8 1.8 4.5 2.3 7.4 2.5l-.8.8c-3.2-.1-6.6-1.6-7.7-3.2-1.6-2.3-2-5.8-3.4-8-1.7-2.6-4.3-3.5-4.3-3.9" fill="#f8f100" id="path96"/><path d="M399.8 179.2c3.4-.8 9.2-.3 14.4 4.4 6.5 5.9 11.9 18.5 17.6 26.4 6.2 8.5 12.5 11.6 13.9 11.6-.3 2.6-3.1 2.3-6.3 4.6a48 48 0 0 0-8 6.8c-3 2.5-10.1-.2-14.5-5.4-5-6-13.9-24-19.8-30.3-7.4-8-11.5-3.6-12.9-3.6 3.2-3.3 12.7-12 15.5-14.5" fill="#d82819" id="path97"/><g fill="#f8f100" id="g101"><path d="m387 191 .8-.8c1.2-.1 6.1-2.3 13.3 7.3 3.2 4.3 5.2 7.8 7.8 11.7 2.2 3.3 4.5 7.2 7.8 11.9 6.6 9.7 10.5 10.5 15.6 10.8l-.8.8c-3.7 0-8.8-1.4-13.6-8-3.6-5-7-10.6-10-15.2-4-6.2-7.2-11.1-8.4-12.4-7-8.8-12.5-5.7-12.5-6" id="path98"/><path d="m388.5 189.5.8-.8c1.3-.1 6.1-2.3 13.3 7.3 3.2 4.3 5.2 7.8 7.8 11.7 2.2 3.3 4.5 7.2 7.8 11.9 6.6 9.7 10.5 10.5 15.7 10.9l-.8.8c-3.8 0-8.8-1.5-13.6-8.1-3.7-5-7-10.6-10-15.2-4-6.2-7.3-11-8.4-12.4-7-8.8-12.6-5.7-12.6-6" id="path99"/><path d="m398 180.8.8-.7c6.7-1 13.6 3.2 17.2 8.7 2.2 3.4 9.3 15.4 12.6 20.1 6.6 9.7 11 12.7 16.4 14.2l-1 .8a25 25 0 0 1-13.6-10.7c-3.6-5-12.4-19.3-15.5-23.9a19 19 0 0 0-17-8.5" id="path100"/><path d="m396.6 182 .8-.7c6.7-1 13.6 3.3 17.2 8.8 2.2 3.3 9.3 15.4 12.6 20 6.6 9.8 10.6 12.7 16 14.1l-1.5.7c-4.4-1.5-7.6-3.5-12.7-10.5-3.6-5-12.4-19.2-15.5-23.8a19 19 0 0 0-17-8.6" id="path101"/></g><path d="M489.7 367a1.5 1.5 0 1 1 0 3 1.5 1.5 0 0 1 0-3" fill="#902c16" id="path102"/><path d="m457.3 215 .1-.2c2.7-2.6 8.3-4.4 11-7 3.4-3.4 3.8-7.8 7.3-11.2L487 208c-3 3-8.2 4.3-11.2 7.3-3.1 3.1-4 7.8-7.1 11h-.1a8 8 0 0 1-11.4-11.4" fill="#9b7d23" id="path103"/><path d="M459.6 216c2.4-2.4 7.1-4.3 9.5-6.7 3-3 3.8-6.5 6.8-9.6l8 8.1c-2.6 2.7-6.8 4.2-9.5 6.9s-3.9 6.6-6.6 9.4h-.1c-2.8 2.8-7 3.3-9.1 1-2.3-2.2-1.8-6.3 1-9" fill="#f2d300" id="path104"/></g><!-- app4joy --></svg>