<svg id="svg4" width="600" height="300" viewBox="0 0 600 300" xmlns="http://www.w3.org/2000/svg"><g id="g5"><path id="rect1" fill="#ffd900" d="M0 0h600v300H0z"/><path id="rect2" fill="#fff" d="M0 0h600v225H0z"/><path id="rect3" fill="#0039a6" d="M0 0h600v150H0z"/></g><g id="g4" fill="#ffd900"><path id="path3" d="M110.7 82.5a40 40 0 1 0 78.6 0 40 40 0 0 1-78.6 0"/><circle id="circle3" cx="150" cy="80" r="30"/><path id="path4" d="M149.7 10c.2 1.7 1.2 3 2.2 4.4q1 2.2.3 4.5c-.2 1.5-.5 3.3.5 4.6 1 1.4 2 3.1 1.8 5 0 2-1.3 3.7-1 5.7.4 1.2 1.9 2.9 2.7.8 1-1.6-.5-3.4 0-5.2.3-1.7 1.7-3.2 1.3-5 0-1.7-2.3-3.3-.5-4.8.6-.7 1.7-2.2 1.6-.3 1 1.2 2.3 2.6 2.1 4.4s-.8 3.8.8 5.1c1.7 1.8 3.1 4 3.2 6.5q.4 3.5-1.8 6.3a14 14 0 0 1-6.4 3.6q-2.8.1-4.8 2.2c-1.6 1.4-3.2 0-4.3-1.3-1.7-.7-3.7-.5-5.5-1a9 9 0 0 1-5.7-4.5q-1.6-3.6-1.1-7.4c0-2 1.2-3.8 2.6-5.2 1.3-1.2.8-3.2.8-4.8.7-1.8 2.6-2.7 3.6-4.3 1.2-1.5.9 2.1.9 2.9 0 1.3-1.4 2-1.1 3.4-.2 1.7 1.9 2.5 2 4.2.8 1.6-1 3.3.1 4.8.6.8 2 2.5 2.2.6q1.3-2.3 0-4.8c-.2-1.7-1.7-3.3-.9-5 .6-1.7 2.5-2.5 2.7-4.4.2-1.7-1-3.1-1.2-4.7-.5-1.9.4-4 1.8-5.3z"/></g><!-- app4joy --></svg>