<svg id="svg7" width="450" height="300" viewBox="0 0 450 300" xmlns="http://www.w3.org/2000/svg" xmlns:xlink="http://www.w3.org/1999/xlink"><g id="g8"><path id="path1" d="M0 0h450v300H0" fill="#fff"/><path id="path2" d="M42 204.2h409v96H42" fill="#DA251D"/><path id="path3" d="M42 0h409v177.2H42" fill="#2B7338"/></g><g id="g7" transform="translate(-.6)" stroke="#fc0" stroke-width="2"><g id="b" transform="matrix(1 0 0 1.0034 -97.5 -4.5)"><path id="path4" d="M119.7 90c-3.6 1-5.6 5.4-3 9.3 3 4.5 9.6 4.2 13-.5s1.7-11.2-2.6-15.2a12 12 0 0 0-18.4 3c-5.2 8.6-1 18.1 4.8 24.8l10.7 10.5c5.8 6.7 10.1 16.2 4.8 25a12 12 0 0 1-18.2 3c-4.4-4-6-10.5-2.7-15.2s10.1-5 13-.5c2.5 4 .6 8.4-3 9.3" fill="none" stroke="#fc0" stroke-linecap="round" stroke-width="3.9866"/></g><g id="g6" fill="none"><use id="use4" transform="matrix(1 0 0 1.0087 0 -77.6)" y="150" width="100%" height="100%" stroke="#ffcc00" stroke-width="3.9654" xlink:href="#b"/><path id="path5" d="M22 11.6c-3.5.9-5.5 5.4-3 9.3 3 4.5 9.7 4.2 13-.5 3.5-4.7 1.8-11.2-2.5-15.2A12 12 0 0 0 11 8c-5.2 8.7-1 18.2 4.8 25l10.7 10.5c5.8 6.7 10 16.3 4.8 25-4.1 7-13 8-18.2 3.1-4.4-4.1-6.1-10.5-2.7-15.2 3.4-4.8 10-5 13-.6 2.5 4 .6 8.5-3 9.4" stroke="#fc0" stroke-linecap="round" stroke-width="4.0067"/><path id="path6" d="M22.6 234.9c-3.6.9-5.6 5.4-3 9.3 3 4.5 9.6 4.2 13-.5s1.7-11.2-2.6-15.2a12 12 0 0 0-18.4 2.9c-5.2 8.7-1 18.2 4.8 25l10.7 10.5c5.8 6.7 10.1 16.3 4.8 25-4 6.9-13 8-18.2 3-4.4-4-6-10.4-2.7-15.2s10.1-5 13-.5c2.5 4 .6 8.5-3 9.4" stroke="#fc0" stroke-linecap="round" stroke-width="4.0067"/></g></g><!-- app4joy --></svg>