<svg width="169.33" height="112.89" fill-rule="evenodd" viewBox="0 0 169.33 112.89" id="svg20" xmlns="http://www.w3.org/2000/svg"><g id="g21"><path fill="#d61a0c" id="rect10" d="M0 0h169.3v112.9H0z"/><path fill="#fecc00" id="rect11" d="M0 75.3h169.3v18.8H0z"/></g><g transform="translate(21.6 -39.3)scale(1.2778)" id="g20"><g fill-rule="nonzero" id="g13"><path d="m54.5 44.9.2-.2.4.1q1-.4 2.2-.5c1.2 0 3.1.1 4.1 1q1.2.9.9 3 .3.1.2.5l-.1.2q.5 1 .6 2c.4.3 2.9 1 2.9 1.7q.7.6 1 1.8l.4 1.5.2.4q.4.7 0 1.3.5.6.5 1.2 0 .3.2.5l.8 1 1.2 1.4 2.4 3.5c.5 1 1.1 1.3 1.9 2.2q2 2.8 3 6.2l.8 2.4.4 1.9v.6q0 1.2.6 2.2c-1.7-1-1.9-2.2-2.3-4l-.3.6q-.6-.9-.7-1.9v.2q-.5-.8-.6-1.5v.4c-.9-.8-1-2.4-1.1-3.5q0-1.6-.9-2.8 1 2.6.8 5.1H74q.2.9 0 1.8.3 1.3.1 2.5 1 1.9 1.6 3.7.3 1.2.7 1.7.3.3 1 .5l-.1 3.6q-.4 2-.5 4l.1 1.3v2.8a3 3 0 0 0-2.4 2h-5.6q.7-2.2 3.3-2.3 0-.6.6-1.2c.7-.8 1.5-2 1.5-3.2q.1-1.6 0-3.2-.3-1.5-1.1-2.6-.7-1.2-1.1-2.5-.6-1.5-2-2.3.4 1.6.2 2.8l.2 2.2q.2.4 0 .9-.3 1-1 2l-1.4 2.5q-1.3 2.4-1.9 5-2 .6-3.2 2h-5.3q.6-2.2 2.7-2.4l1-.1c.8-.2.7-.5 1-1q.3-.5.9-1 .8-.7 1.2-1.4c.8-1 1.8-3 2-4.2.1-1.1 0-3-.3-4.2-.3-1-1.5-2.6-2-5q-1-1.1-1.9-2.4-1.6.9-4 .9l.2.4h-1.4l.1.2a5 5 0 0 1-3 .2l.4.3h-2.7c.7 2.4 1 5 .3 6.8q.5 3 .3 5.8.1.8.6 2.1 0 1.3-.3 2.7v.2c-1.2-.3-2.6 1.7-3 2h-5q.2-1.1 1.2-1.8.8-.6 1.8-.7.4 0 .6-.6.5-.8 1.4-1.3l.5-.5c.3-.9 0-2.8-.3-3.7-.2-.8-.4-2.3-.9-3q-.5-.4-.7-1c-.2-1.3-1-3-1.4-4q-.3 1.2-1.2 2c-.2 1.9-.8 2.5-1.3 3.4q-.4.8-.4 1.4a25 25 0 0 0-.2 5.3v1.8q0 .3-.3.4-1.7.8-2.6 2.3h-5.5q.3-1.3 1.3-2 .8-.4 1.8-.6h.2q.5-.3.6-.8t.6-1l.8-.6q.5-.3.6-.9l.4-3.2c.1-1.6.1-2.3-.8-3.6q.4-1.8 0-3.7l-.5.4V80l-1 .5q.4-.6.4-1.5-.5.4-1.2.6 1-1 .7-2.1 0-.9-.5-1.6l-1.7 3q-1 1.7-1 3.5-.5-.7-.7-1.5c-.2.3-.2 1.1-.2 1.4l-.7-.9a3 3 0 0 1-1.8 2q.7-1 .6-2.2-.1 1-1 1.8 0-1-1.1-1.9a9 9 0 0 1-3.1-4c0 .8 0 1.2.2 2q-1.8-1.6-2-4.2-.2.7-.2 1.6c-.5-.8-1-2.4-.7-3.4l-1 .7q.8-1.3.6-3l-.9.9q.4-1.8.4-3.7 0-1.5.5-2.8l-.5.3v-.2q-.4.4-1 .6l.3-.6a2 2 0 0 1-1.2.6q.7-.9.7-2.1c0-1.3-.3-2.9.4-4l-1.3.6q-.6.5-1.1 0l-.4-.6q-.8 0-1.1-.6-.3-1 .4-1.8c.4-1.4 1.4-1.8 2.8-2.4l1.8-.9c.8-.5 1.8-1.3 2-2.3q.3-.8-.4-1.5l1 .5q.2-.6-.2-1 .8.1 1.2 1c.2-.1.2-.8.2-1l.9 1.8q.4-.7.4-1.5.6.6.8 1.6.4-.5.4-1.2.5.5.6 1.2.3-.4.3-1 .5.7.5 1.5l.7-.5v.8l.4-.5v1.1l.4-.1v.9h.1v.9c.8 0 1.3.9 1.7 1.5l.7 2.2q.4 1.3.2 2.2.3 1.3.2 2.5l-.3-.2v1.3c.8-2.4 1.7-4.3 3.6-6.2q1.5-1.6 3.4-2.6c.3-1.3 1-3 2.2-3.8q0-1.4.6-2.4-.4-.2-.1-.5Q46 48 46 47c.5-2.2 3-2.8 4.9-2.8q1.5 0 3.5.6" id="path11"/><path d="M33.9 54.3q-.2.5-.8 1-1.1.6-1.3.4c1.1-.1 2-1.1 2-2.2l-.2.2q-.3.9-1.2 1 1.4-.9 1.1-2l-.5.5v-.9l-.5.4q0 .9-.3 1.1h.5q0 .3-.3.7c-.2.2-.8 1-1.3 1.2q-1 .4-1.5 0c.8 0 1.3-.7 1.8-1.2q-1.1 0-2.2.5 1.1-1 2.5-.6-.6 1-1.3 1.3.1.1 1-.5l1-1.2h-.8l-1.8.2q-.9.2-1 .5c.2-.6 1-.7 1.3-.8q.9-1.7 0-3 0 .7-.5 1.2.2 1.4-1 2.4c.8-1 1.2-2.3.3-3.8l-.3 1s-.4-.9-.8-1.2v.7l.6 1.3c.2 1-.6 1.7-.6 1.7a2.4 2.4 0 0 0-.2-2.9l-.5-.4c.5 1.5-1 3-2.1 3.6l-1.8.9-1.3.6q-1.1.7-1.2 1.3.2-.3.6-.4.6-.4 1-.3.3.1 0 .5l-1 .2q-.6.2-1 .7t-.2 1.1q.4.6.9.5l1.4-1 1.5-.8.2.3.1.3h-.6l-.6.2q-.4.1-1 .6-1.1.3-.4 1 0 .5.8 0 1.4-.7 2.4-1c-1.4 1.5-1.2 2.8-1.2 4.7q0 1.1-.3 1.6.7-.2 1-2c0-1.4.3-3.6 1.2-4.2-1 1.7-.8 3.5-1 4.5q-.1 1.5-.3 1.6.6-.6.8-1.4c.6-1.6.4-2.5 1.2-3.8-.7 1.8 0 2.4-1.4 5q2-2.1 2-5c.2.8 0 1.8 0 1.8.4-.5.6-1.4.7-1.8l-.2-.3q1 .5 1.9.2-.1.1-.9-.4 1.3.2 1.6-.3-.2.1-1.3-.4c1.1.3 1.4-.2 1.5-.3 0 0-.8 0-1.2-.5 0 0 .8.4 1.4.3q1-.2 1-.4c0-.2-.7.2-1.7-.3 1 .4 2.5 0 2.9-1q-1 0-1.7-.4 3.1.5 3.2-2.1zm-3.5-.5h1q.4-1.2 0-2.5-.2.6-.6 1zm1.1 0h.5q.5-1.1.2-2.2l-.4.6c0 .4 0 1.3-.3 1.6m14.6.5-.2-2.2a8 8 0 0 0-2 3.7 14 14 0 0 0-5.9 6 22 22 0 0 0-2 6.7h-.5c1-2 .9-5.9 1-5.9l.3.2c0-1.8-.6-2.7-.6-2.7l.4.4q0-1.3-.7-2.5l.4.3-.7-1.8q-.4-1-1.5-1.4-.2 1.3-1.7 1.5l.4.1s-.5 1-1.1 1.3c0 0-.5.6-1.2.8l-.6.4h.5s-.3.6-1.2.7l.3.2s-.7.6-1.8.2c0 0-.4 1.7-1 2.2 0 0-.4 1.4-1.1 2.2q-.6 1.3-.7 3.4l-.2 2.9.5-.8q.5 1.5 0 3 .7-.8 1-2.7 0 1.7-.4 2.6a6 6 0 0 0 .2 2.4 6 6 0 0 1 .8-2.3q-.6 2.8 1.1 5.1c-.1-1 .2-2.4.5-2.8-.5 2.2 1.4 3.9 3 5.5q.8.7 1.2 1.6.5-.7.5-1.4c.1-.6-.2-1.5.2-2 0 0-.2 1 .2 1.7q.4 1.2-.1 2 1.4-1.2 1-3c.3.5.2 1.3.6 1.7 0-.7.5-1.4.7-2q-.2.9.3 1.8.2-1.3 1-2.5c1.2-2.2 2.5-3.6 2-6.3.7 1.5 0 3.1 0 3.1s.4.5.7 1.8q.1 1-.2 1.6c.2-.1 1.4-1.3 1-4.6.6 3.1-.4 4.2-.4 4.2l-.1 1.4s1-.6 1.2-1.6c0 .7-.5 1.4-.5 1.4v1q.4-.2 1-2.2c0 1.5-.5 2-.5 2 .5 1.1.2 3.5 0 3.8 1 1.3 1 2.3.8 3.7l-.4 3.6-.7.7-.8.7-.4.8q-.2.6-.8 1l-1.6 1q-.4.7-.4 1.1h4q.5-1 1.4-1.6l1-.6.3-.3v-3.3c0-2 .3-4 .4-4.5q0-.6.6-1.4a6 6 0 0 0 1-2.8c.6-.6 1-1.8 1.3-2.6 1.4-1.6 1.4-4.6.7-6.5q.6 1 .7 2.6c.3-1.2.3-2.7 0-3.7q.3.1.3.6c.7-2.2-.3-4.2-.6-4.9.8 1.2 1.6 2.9.8 5.3a9 9 0 0 1-.4 3.4c1.6.8 4.4.7 5.4.7l-.4-.6q1.7.6 3.3.2l-.6-.6q1 .3 2 .2l-.1-.4c1.3.2 3-.3 4.2-.9-2-3.3-2.2-7.2-1.5-11q-1.9.7-3.9.3-2.7-.5-5.4.4c-2.7.8-5.5-.3-6.2-3a14 14 0 0 1 .9-7.8m6.2 36q0-2.8-.4-5.7-.3-1.9-1.2-3.6s1 1.4 1.4 3q.3-1.2.2-2 0-1-.9-2 .6.3.9 1-.3-2.1-.7-3.3-1.7 0-3.3-.6s0 1.7-1.2 3.2l1 2.1.6 2.2q.1.5.6.9t1 3.7q.5 2.9.3 3.3t-.7.6q-.9.6-1.4 1.4-.1.5-.6.6a4 4 0 0 0-1.8 2h3.6c.6-.7 1.5-2 2.9-2a7 7 0 0 0 .2-2.7q-.4-1-.5-2M77 83.8l-.8-.4q-.4-.5-.9-1.9-.6-2-1.6-3.7.4-2.3-.8-3.7l.8.7q.1-1.6-1-2.7.6.3 1.1 1c0-2.8-.7-4.6-1-5.3l-.7-.5c.5 1.3.8 3 .1 4.3v-.1q0 2.3-.2 2.4l-.1-.2c0 .9-.4 1.8-.4 1.8l-.2-.1c.1.7-.2 1.5-.2 1.5l-.1-.2c0 1-.8 2.5-1 3q2 1.3 2.2 2.4.4 1.4 1.2 2.6a7 7 0 0 1 1 2.6q.3 1.4 0 3.5c0 1.4-1.2 2.8-1.6 3.3l-.5 1q-1.7.6-2.4 2h4.3a3 3 0 0 1 2.3-2q.2-1.3 0-2.6v-1.2a40 40 0 0 0 .6-7.5M63 51.4l-.1 1.1a11 11 0 0 1-.6 10.4q-.5.9-1.3 1.3a15 15 0 0 0 3 13.4l-1.2-5c1 2.6 1.6 5.7 2.5 7.9l1.2 2.6s.5 3.2.3 4.2a13 13 0 0 1-4 6.5c-.4.6-.3 1.2-1.3 1.3h-.3c-1.5.5-2 1.6-2.2 2h3.8c.3-.4 1-1.2 3.2-1.9.1-.4.6-2.7 2-5l1.3-2.6q1-1.5 1-2v-.5q-.4-.8-.3-2.3.2-1.6-.1-3c.5-1 1.1-3.2 1-4.2l.2.6q.2-.9 0-1.8l.4.6c.2-.4.3-1.8.2-2.5l.2.7c.2-.5.2-2-.2-2.7l.5.7q.6-2.3-.6-4.8l1.7 1.4a6 6 0 0 1 1.3 3.2c.2 1 .1 2 .6 3l.4-1.1c0 .3.2 1.9.4 2.3l.3-.7v.8q0 .6.4 1.5l.4-.8c.3 1.4.5 3 1.7 4q-.3-.8-.4-2a26 26 0 0 0-4.2-10.4q-1-.9-2-2.1c-.2-.5-1.4-2.6-2.1-3.5L68 59.6l-.3-.8a4 4 0 0 0-.8-1.6l.5.2q.2-.9-.8-1.3h.5c-.3-.8-.3-1.5-1.2-2l.6.1q-.4-1-1.3-1.5h.3q0-.4-2.6-1.3" fill="#c1c1c1" id="path12"/><path d="m63.7 76.2-1-3.6-.1-1 2.8 7c1 2.7 1.9 4.1 1.9 4.1-.4 1.2-.1 3.2-.1 3.2.6-1.2 2.1-2.2 2.1-2.2l.2-2-.1-2.2a10 10 0 0 0 .9-5.3l.7 1.2c0-1-.4-2.1-.5-2.1q.3 0 .4.3c.5-2.4-.3-4-.3-4l.9.7a9 9 0 0 0-1.3-5.4l.6.2c-.2-.6-1.3-2.1-1.7-2.8q-1-1-1.9-2.4c-.5-1-.4-2.2-1.2-3l.5.1c0-.8-.8-1.5-.8-1.5h.5q0-1.2-1-1.6h.6c-.2-1-1.3-1.4-1.3-1.4l.4-.2-1.5-.4c.7 1.5 1.6 3.7 1.5 6 0 2.3-1.2 4.8-2 5.5l-1.6 1.5c-.3.3-.5 2.1-.5 2.1l.4-1.3-.3 3 .3-.8c.2 1.1 0 2.5.1 3.4l.2-1s.3.5.3 1c0 .3.2 1.9.6 3.2v-1s.4 1.3 1.3 2.7m-30.6 5.2v-1.2q0-1 .4-1.4v1.4l.4 1c.4-.7.5-2 .9-3 .3-.8 1.1-1.6 1.1-1.6-1.1 1.9-.9 4-.9 4l.8-1.3c.1-1.4 1.8-3.8 2.2-4.6.5-1 .7-2.4.7-2.4l.5.4q.2 1 0 1.7l.2.5v.8l.2-.5.2.5v1l.1-.6.2.7L40 78l.7-1.8v-1.7l.1 1.9a8 8 0 0 1-.1 3l.6-.9.2-.2c0 .9-.4 1.8-.4 1.8q.5-.6.8-1.4l.1.3-.3 1.5.3-.5v.6c-.2.3-.3 1-.3 1l.3-.7v.4l-.1.8.2-.3c.3 2.4 0 2.9 0 2.9s.5.6.6 1.4l-.4 5.2c-.1 1.2-1 1.4-1.7 2q-1 1.3-.9 1.4h.4a2 2 0 0 1 1.5-1.5c-.8.5-1.2 1.6-1.2 1.6h.6c.4-1 1.3-1.2 1.3-1.2-.7.4-1 1.3-1 1.3q.7.2 1.5-.3.6-.7.3-2.5c0-1.3 0-3.8.2-4.5q.2-1 0-1.1l.4-1.2c.4-1 .5-3 .5-3 .5 2.1-.3 3.4-.3 3.4 1.3-1.5.9-3.4.9-3.4 2-2 1.2-4 1.2-4 .2 1.9-.5 2.6-.5 2.6a6 6 0 0 0-1.6-3.6c1 2.2.1 4.2.1 4.2s.1-1.6-.8-2.8a9 9 0 0 1-1.6-3.6v-1.7c-1.9-.3-1.6-3-1.6-3l-.8 1c-.7-1.5 0-4.6 0-4.6l-.5.3c0-1.6 1-4 1-4l-.8.5c.3-2 2.4-4.8 2.4-4.8-1.9 2-2.9 4.2-3.4 5.7l-1 3.6c-.6 1.4-1.9 1.3-2.5-.1q-.4-1.1-.3-2.2l.4.2-.3-.9.4.2c0-.3-.4-1-.4-1l.6.3-.5-.9.6.2-.5-1 .6.3c-.3-1.3-1.2-2.3-1.2-2.3.6.2 1 .8 1 .8V61l.5.3c-.1-.3-1-1.3-1-1.3l.9.4-.5-.5c.2-1-.7-1.7-.7-1.7l1.1.5c0-.3-.5-.6-.5-.6 0-1-.7-1.4-.7-1.4q1.1.2 1.2.4l-1-.8-.8.5-.2.2c-.7.9-2.5 2.5-4 4a12 12 0 0 0-3 5.1c-.5 1.7-.2 4.4-.2 4.4l.4-1.2c.4 1.1.1 2.2 0 2.9v1.7c.4-1.3 1.2-2.3 1.2-2.3 0 .6-.3 1-.3 2.5a6 6 0 0 0 .5 2.7A6 6 0 0 1 29 74c-.8 3.2 1.2 5 2.5 6.2s1.4 1.7 1.4 1.7zm7.7-2.1.3-.4zm-3.2 17.4h3c.1-.3.6-.9.9-1 0 0-1.6-.4-2.4-.2q-1.4.2-1.5 1.2m14-17-.3-1.1s-2-.1-2.4-.3c0 0-.1 1.4-.4 2.1L49 83l1.6 3.5c.3.9.7 3 .8 4.5v2.5s-.7.1-1.4.6l-1 1h.6s1-1 1.7-1.2c0 0-1 .8-1.2 1.2l.8.1.5-.4.6-.2c.1 0 .5-1 .4-1.8q-.2-1.4-.7-2.1l-.1-2.7-.2-3c0-.7 0-2-.4-2.7-.3-.8-1-1.8-1-1.8h.3s1 .6 1.3 1.4c0 0 0-1.5-1.4-3h.4s.5.2 1 1m-4.8 17h2.4c.3-.5 1.2-1.2 1.2-1.2H49q-1.4-.2-2.2 1.2m13.6-23c-.7.7-2.4.7-2.4.7v.3c-.6.3-1.7 0-1.7 0v.3c-.4.5-2.2.4-2.2.4-.6.5-2 .1-2 .1v.3c-1.4.7-3-.3-3.4-.6v.6c1 .4 2.2.5 2.2.5l2.2.8-1-.8h1.7l2.1.4-1-.6 1-.1 1.7.4-.6-.6.7-.1 1.4.2-.8-.4.8-.2 1.2.2-.7-.4 1.4-.4zm-12.6-4s.6 1 .5 2l-.7-1.1zm-.4 1.3s.8 1.1.7 2l-.6-1.1.3 1.5s-.6-1.1-1.1-1.3c0 0 .7 1.3.6 2q-.4-1.4-1-2.3c.3.2 1 0 1.1-.8m-.3 5.4s-.8-2.6-2-3c0 0 1.5 3.1 1.2 5 0 0-.8-1.9-1.5-2.3 0 0 1 1.9.7 3.5 0 0-1-2.7-2.5-3.7l.8 2q.3 1.5.2 2.2s-.4-1.5-1.1-2.5-1.4-2.7-1-4.1c0 0 1.4-.2 1.7-1.6 0 .3.3 1 1.1.8q1-.4 1-1s1.5 1.4 1.4 4.7m23.7 20.3H74q.3-.7.8-1.2-2.5-.5-3.9 1.2m5-13.2.8 1-.3 2.4-1-.7s.5 1.2.6 2.6l.1 3.7c.1.7.2 2-.5 2.3s-1.8 0-1.8 0 1.3-2 1.4-3.7-.1-4.4-.5-5.7c0 0 .7.1 1 .5 0 0 .4-1 .2-2.4m-3.1-8.3.4 1.2q0 .6.6 2.3c.4 1 1.3 3.4 1.2 4 0 .6-.5 1.9-.5 1.9s-.7-.8-1-1.7c-.4-1-1.2-2.1-1.4-2.5-.3-.4-.3-1.6 0-2.5zm-13.1-9.8h-3c-1.8 0-4.7 1.2-7.3.8-2.7-.4-4.7-2.4-4.7-4.8q0-2.1.5-3.2.2-2 1-4l-.1-.4q-.3 0-.7.5c-1 1.3-.7 2-.7 2s-.5.2-.6.8c0 0-1.2 0-2.6 2.1-1.5 2-1.7 3.5-1.7 3.5l1-.3s-1.2 2-1.4 3.7l.8-.3s-.9 2.5-.6 4.5l.9-1s-.5 3.2 1 3.3c1.6.1 2-1.4 2.2-1.9 0 .4.4 1.7 1 1.4.8-.4.8-1.3.8-1.3s.4.8 1 .6 1.4-1.8 1-4.4q1 1.1 1.4 2.7.7 1.5 0 3.7v1c.3.4 1 1.2 2.3 1.1l-1-.6h1.3s.9.4 1.7.3l-1-.5.7-.1s1.5.6 2.4.3l-1.7-.6 1.3-.3s1.2.7 2.3.6l-1.8-.8 1.1-.3s1.4.6 2.4.2l-2-.4.8-.5s1.5.2 2-.1h-1.5l.4-.5s.9 0 1.5-.4h-1.2l.3-.7 1-.2-1-.1q.4-2.7.5-5.4m17.1 10.8q-.2-1.2 0-2.5-.5.5-.7 1l-.2-2.8q-.5.5-.6 1.2l-.3-2q-.2-1.1-1-3.1s2.8 4.1 3.4 7.2zm-9.4 13.4C65.7 92 64.6 94 64.6 94l1.4-1.5-.5 1.3c0 .3.1 1-.3 1q-.9.3-1.8-.6s1.4-1 2.2-2.6l1.9-3.7v.9s.9-1.4 1-2c.2-.6 0-1.1-.5-.7-.5.3-.4-.4 0-.7.6-.7 1.5-.8 1.5-.8l.4.8zm-5 7H60s.2-.7 1.4-1a4 4 0 0 1 2.3 0 3 3 0 0 0-1.3 1m15.3-20.5s.4 1.1.4 2q-.2 0-.4-2M33.2 55q.6-.7.6-1.5l-.2.2q0 .3-.4.6-.7.6-.9.5h.8c-.4.4-1.2.4-1.2.4l-.4.4q1 0 1.7-.6m.3-2.3-.1.1q-.1.9-.7 1.5.8-.6.8-1.6m-.5.4v-.8l-.2.2-.1 1zm-3.4 2.6q.5 0 .8-.3-.4.3-1.2.2l.8-.3 1-.6-1 .3-1 .5q0-.3-.3-.3l1-.6a3 3 0 0 1 2-.2q-.6 1-1.3 1.3.1.1 1-.5l1-1.2h-.8l-1.8.2q-.9.2-1 .5l.4-.5.3-.4c.4-.3 1-.6.7-2.1l-.5 1q-.2 1.1-1 1.8l-.4.2-.2-.2c.7-.8.8-2.2.3-3.2q0-.2-.3-.5v.8l.3.9q.1 1.2-.5 1.5v.1l-.4.6s-.2 1-1 1.3c-.7.2-1.6 0-2.3.3s-3.5 1.7-3.7 2.3c-.1.5.4.5.6.5l1.3-.8q.8-.4 1.4-.4l.3.2.1.3h-.6l-.4.2-1.5 1.1v.3l.2.2.6-.3 1.3-.6h1l-.3.7q-.3.7-.4 2.8l.5-2.2q.2-1.3 1-1.5l-.5 1.4-.2 1.3s.6-2 1-2.7l.3-.1-.8 1.9L25 63l.7-2.3q.6-1.8.8-1.8v.2l-.2 1q0 1.5-.6 3s.6-1 .7-1.9l.2-2 .3.2.2.8-.2 1.4v.3q.5-.4.2-2.4.6.5 1.7.7h.3q-1.4-.3-2.6-1.4l.5-.2s1.4 1.4 2.5.9c0 0-.6.2-2.4-1l.7-.3s1.2.8 2 .6h.3l-.6-.2-1.6-.5.4-.4q1.2.7 2.5.7l.5-.3h-1l-2-.5.3-.3s2.9 1 3.7-.5l-1-.2c-.4 0-1.6-.3-2.4 0l.2-.8zm2.2.8q2 0 2.2-2l-.2.5c-.9 1.7-3.4 1.2-3.4 1.2zm-10.5.4q.3-.3.8-.3l1-.4 1.9-.6q1.2-.4 2-1c1-.7 1.2-2.1.5-3.1 0 0 0 1-.4 1.7l-1 1-1.8 1.2c-1.2.6-1.9.7-2.9 1.4zm10.9-5.3q0 .3-.2.3l-.1 1.8a4 4 0 0 0 .3-2.1m-.7.2-.2-.5v.1c.2 1.3-.3 2.2-.3 2.2q.6-.8.5-1.8" fill="#fff" id="path13"/></g><g id="g16"><path d="M54.1 47.4q0-.5.4-.5v-1.7q-2-.6-3.5-.6c-1.6 0-4.2.6-4.6 2.5q-.1.8.3 1.6 3.6-1.2 7.4-1.3m1.1 9.6-.3.2-.3-.1q-1.8 1-3.9 1-3 .1-4.2-2.5l-.3-.9c-.8 2.3-1.3 5-.7 7.2.6 2.6 3.2 3.7 5.8 3a12 12 0 0 1 5.6-.5q3.2.8 5.2-1.6c1.9-2.7 2-7.1.7-9.8l-.1.5c-.7 2.4-2 3.9-5 3.9q-1 0-2.5-.4m-.6-8.5q-.4.2-.5-.4-3.8.1-7.4 1.4a8 8 0 0 0 0 6q1.3 2.4 4 2.3 2 0 3.8-1 .3-4.1.1-8.3m1.2-.4q0 .4-.4.4l-.1 8.2q1.5.4 2.5.4 2.4 0 3.8-1.8.5-.8.8-2 .7-2.2-.3-4.3l-1.9-.5a21 21 0 0 0-4.4-.4m-.5-1.1q.5-.2.5.4a26 26 0 0 1 6.2.8q.3-1.8-.7-2.7c-1-.8-3-1-4-.9q-1.1 0-2.1.5z" fill="#e08600" fill-rule="nonzero" id="path14"/><path d="M46.7 49.3a22 22 0 0 1 7.6-1.4l.2-.2h-.2q-2.8 0-5.7.7l-2 .6v.2m9-1.4a23 23 0 0 1 6.6.8l-.1-.2-1.9-.5q-2.3-.4-4.7-.4l-.1.1zm-.6 9v-8.5l-.1-.2-.2.1q.2 4.3 0 8.5l.1.2zm0-9.7-.2-2q-.1-.4-.3 0l.2 2zm-.6 1.1.3-.3-.2-.1-.2.2q-.2.3.1.2m.8-.7.3-.2q0-.2-.2-.2l-.3.2zm.2.5-1-.9q-.1-.1-.1.2l1 .9q.3 0 .1-.2m0-2.4V47l.3.3q2.4 0 5 .5c1 .2 1-.6.8-1.3l-.2-.3c-1.4-1.4-5-.8-6-.4m.2 3.8q-.1 2.4.4 4.9c.2 1 0 1.7 1.5 1.7 3.4.2 5-2.5 4.6-5.8q-.4-.9-1.2-1.2-1.8-.6-3.6-.7c-1.4-.1-1.7-.2-1.7 1.1m-8.6-1c-1-2.8 3.4-4.2 7.2-3l.1 1.4-.3.3q-3.7.1-7 1.2m7.3 0q.2 3 0 6c-.2.9 0 1.7-1 2-1.5.4-4.2.5-5.2-.6q-1-1.4-1-4.5c0-.8-.1-1.6.9-1.9q3-1 6-1.2zM46 56.1q2.2 3.3 7.1 2.1a18 18 0 0 1 4.4-.2 6 6 0 0 0 5-2.3q.4 9.3-7.5 7.5-1.3-.4-2.4.1c-2.6 1.5-5.2 2.4-6.5-.8q-.9-3.3 0-6.4" fill="#fecc00" fill-rule="nonzero" id="path15"/><path d="m26.8 54.4-.2.1-.4-.2c1.5-1.1 1.5-2.2 1.5-2.2.3 1-.4 1.9-1 2.3m1.9 2.7.2-.4c.9-.2 1.9.4 2.7.4-.6.5-2.1-.1-2.9 0M33 57v-.3h.2a5 5 0 0 1-1.4 3.2l1.2.1c-1.9 1-2.5 2.9-2.5 2.9 1.9-.5 2 0 2 0-1.3.3-1.8 1.5-1.8 1.5.9-.1 1.5.3 1.5.3-1.7.9-2 2.5-2 2.5.9-.5 2-.8 2-.8-3.2 3.1-1 5.8-1 5.8-2.3-1.7-.6-4.7-.6-4.7l-1.3 1c.1-2.5 1.9-3.7 1.9-3.7-.9 0-1.7.8-1.7.8a7 7 0 0 1 1.7-2.6c-1.1.3-1.9 1.1-1.9 1.1.7-2.5 2.7-4 2.7-4-1 .1-2.3 1.3-2.3 1.3.5-1.2 1.7-2.2 2.5-3S33 57 33 57m4 9.6.3-.7s1 2.6 1 4.7-1 3.8-1 3.8c0-.7-.3-1.5-.3-1.5q-.5 1.9-.7 2l-.2-.3c0 1.6-1.2 3.1-1.2 3.1l-.2-.3-.6.9-.4-.8c0 1-.9 1.5-1 2.3-.2-1 .4-1.4.6-2.3s-.2-2-.2-2c.5.6 1 2 1 2 .5-.8 0-2.2 0-2.2.6.5.9 1.4.9 1.4 1-1.4.8-3.7.8-3.7l.5 1c.6-1 .4-3 .4-3l.6 1.6c.8-2.6-.2-6-.2-6m23.3 28.7q-1.3 0-2.2 1.8h.6q.7-1.7 1.6-1.8m-13 0c-1 0-2 .9-2.2 1.8h.7q.6-1.5 1.5-1.9m-9.7.2.9-.5q-2.3.2-2.6 2.1h.7q0-1 1-1.6m33.8-.2q-2 .8-2.2 1.8h.4c.2-.3.7-1.3 1.8-1.8m-2.1-11.6q.6.1.2-.4l-.4-.6-.4-1.3q.2-1-.5-2.6s1-1.2 1-3.8l.7.3-.1-1.8.6.4-.3-1.7.4.4q.1-.6-.4-2.6l.5.2s-.3-1.7-.7-2.7c0 0 .6.3.7.6 0 0 .2-1.6-1-3.6-1-2-2.7-2.8-2.7-2.8s2 1.1 2.9 5.2q0-.2-2-1s1.4.7 1.6 3c0 0-.7-.8-1.5-1.2 0 0 1.5 1.2 1.5 3.4l-1.3-1.3s1.1 1.2 1.1 2.9c0 0-.7-.7-1-1.3 0 0 .8 1.6.8 3L68 73l.1.7c.8 1 .2 3.4-.5 4.4l-.7-.5 1 1.2q.4.8.5 2 0 .8.2 1.4c0 .2.2.7-.4 1.2q-.7.7-.9 1.5.6-1.2 2-1.3m-9.9-18.4 1 .3c-.9.7-1.8 1.6-2.9 1.8-1 .3-1-.2-.9-.8 0 0-.4.7-1.4 1.2q-1.4.8-1.2.3l.1-.7s-2.3 2-4.8.5c0 .1 3 .8 5-1.3q.2.1 1.1-.5l-.7 1.5c.6 0 1.9-1.3 2.5-1.7q-.3.4-.3 1 0 .4 1-.1a5 5 0 0 0 1.5-1.5" fill="#cdc9c6" id="path16"/></g><g fill-rule="nonzero" id="g19"><path d="M26.9 55v.3a.7.7 0 0 1-1.3 0q-.4.3-.7.3 0-.4.3-.6 0-.3.3-.4t.5-.2h.9l.3.1.2.3z" id="path17"/><path d="M26.1 55.2a.1.1 0 0 1-.2 0l-.1.1a.3.3 0 1 0 .6-.2z" fill="#fff" id="path18"/><path d="m25.2 55.3 1.8-.6h-.2q0-.2-.4-.1-.1-.2-.4 0-.2 0-.3.2-.3 0-.3.3z" fill="#c1c1c1" id="path19"/></g></g><!-- app4joy --></svg>