<svg id="svg7" width="2e3" height="1250" clip-rule="evenodd" fill-rule="evenodd" viewBox="0 0 2e3 1250" xmlns="http://www.w3.org/2000/svg"><g id="g9"><path id="rect1" fill="#ffdf00" d="M0 0h2000v1250H0z"/></g><g id="g8" fill="#a2260b"><path id="path1" d="m1289.9 235.8 56.6-56.5v56.5h56.5l-56.5 56.6L1403 349h-56.5v56.5l-56.6-56.5-56.6 56.5V349h-56.5l56.5-56.6-56.5-56.6h56.5v-56.5zm-36.6 20v-28.3l36.6 36.6 36.6-36.6v28.3h28.3l-36.6 36.6 36.6 36.6h-28.3v28.3l-36.6-36.6-36.6 36.6V329h-28.2l36.5-36.6-36.5-36.6z"/><path id="path2" d="m710 235.8 56.6-56.5v56.5h56.6l-56.6 56.6 56.6 56.6h-56.6v56.5L710.1 349l-56.6 56.5V349h-56.6l56.6-56.6-56.6-56.6h56.6v-56.5zm-36.5 20v-28.3l36.6 36.6 36.5-36.6v28.3H775l-36.6 36.6L775 329h-28.3v28.2l-36.5-36.5-36.6 36.6V329h-28.3l36.6-36.6-36.6-36.6z"/><path id="path3" d="m1000 115.5 56.6-56.6v56.6h56.5l-56.5 56.6 56.5 56.5h-56.5v56.6l-56.6-56.6-56.6 56.6v-56.6H887l56.5-56.5-56.5-56.6h56.5V58.9zm-36.6 20v-28.3l36.6 36.6 36.6-36.6v28.3h28.3l-36.6 36.6 36.6 36.5h-28.3V237l-36.6-36.6-36.6 36.6v-28.3h-28.3l36.6-36.5-36.6-36.6z"/></g><g id="g7" fill="#a2260b"><path id="polygon3" d="m1190.9 617.7-28.3 28.3-14.1-14.2 14.1-14.1-21.2-21.2-35.3 35.3 63.6 63.7 42.4-42.4v-56.6l-70.7-70.7L1035 632.2V970h965v-30h-935V644.6l76.4-76.4z"/><path id="polygon4" d="m809.1 617.7 28.3 28.3 14.1-14.2-14.1-14.1 21.2-21.2 35.3 35.3-63.6 63.7-42.4-42.4v-56.6l70.7-70.7L965 632.2V970H0v-30h935V644.6l-76.4-76.4z"/><path id="polygon5" d="m773.7 511.6-21.2-21.2 35.4-35.3 56.5 56.5-49.5 49.5h-56.5l-70.7-70.7 84.8-84.8h56.6L965 561.5v42.4L787.9 426.8l-63.7 63.6 49.5 49.5 28.3-28.3-14.1-14.1z"/><path id="polygon6" d="m1226.3 511.6 21.2-21.2-35.4-35.3-56.5 56.5 49.5 49.5h56.5l70.7-70.7-84.8-84.8h-56.6L1035 561.5v42.4l177.1-177.1 63.7 63.6-49.5 49.5-28.3-28.3 14.1-14.1z"/><path id="polygon7" d="m929.3 356.1-14.1 14.1 14.1 14.1 28.3-28.2-49.5-49.5-63.7 63.6L1000 525.8l155.6-155.6-63.7-63.6-49.5 49.5 28.3 28.2 14.1-14.1-14.1-14.1 21.2-21.2 35.4 35.3-56.6 56.6-49.5-49.5v-56.6l70.7-70.7 84.9 84.9v56.5L1015 553.2V1000h985v250H0v-250h985V553.2L823.2 391.4v-56.5l84.9-84.9 70.7 70.7v56.6l-49.5 49.5-56.6-56.6 35.4-35.3z"/></g><!-- app4joy --></svg>