<svg width="800" height="526" viewBox="0 0 800 526" id="svg123" xmlns="http://www.w3.org/2000/svg"><g fill="#09f" id="g2"><path d="M194 0h406v526H194zm109 129c-6.2 6-10.6 13.5-17 19.3 2.5-8.5 10-14.3 13.1-22.5-6 2.8-8.3 9.4-13 13.5 1-4.4 4.4-7.6 6-11.7a12 12 0 0 0-6.6 6q-4.2 10-6.4 20.6c-.9 4.1-4 7.3-6 11-2.7 4.2-3.9 9.5-7.8 13a125 125 0 0 1 7.2-27.2l-1.6-.9c-3.1 4.7-4.8 10-6 15.4l-1.4-2.4c1-4.5 3.9-8.7 2.8-13.4a15 15 0 0 0-4.2 9.9c-2.7 9.2-1.2 19-2.7 28.3l-3.7 1.1q0-3.1-.6-6.2c-3 6.8-2.4 14.5-2.1 21.8-4-4.2-1.1-10.6-4.4-15-2.5 11 4.2 20.9 8.7 30.4-.7 7.9-1 15.8-1.8 23.7h-1c-.5-9.8-.7-19.9-4.5-29-1 1.3-2.6 2.4-2.3 4.3.3 8.5 3.2 16.7 3.8 25.2-3.4-3.9-3.7-9.2-5.6-13.8-1.7-4.4-1.8-9.6-5.1-13.2-1.5 6.7 3.3 12.6 3 19.3-4.6-4.3-3.3-11.6-7.4-16-1 7 2.5 13.5 5.8 19.4 1.5 2.7 3.6 5.2 4.2 8.3 2.7 12 8.5 23 11.4 35-2.5-2.1-3.8-5-5.3-7.8-3.4-5.8-6.4-12-10.6-17.3q-1.4-1.6-3.2-2.5c-1 5 3 8.7 5 12.8 2.9 5.6 7.5 10.1 9.8 16-8.7-6-13.9-15.9-22-22.6.7 7 7.4 11 10 17-5.4-2.5-8-8.4-12.6-12 .4 2.7 1.1 5.3 3 7.3 6 6.6 13.5 11.5 21 16l-2.3-.1.6.7c-1.2-1-2.8-1.4-4.2-2 1.6 4.5 5.3 7.6 7.9 11.5 3.9 5.5 8.9 10.3 11.8 16.5-8.7-5.5-14.8-14.5-24.1-19q0 2 1 3.7c5.3 6.4 13.3 10 18.4 16.6q-6-2.8-11.7-6.2c-4.2-2.2-8-5.5-12.7-7 3.1 6.9 11 8.8 16 13.7-6.4-1.7-11.3-6.6-17.7-8.4 1.5 2.4 3.4 4.7 5.9 6 7.5 4.3 16 5.7 24.3 7.7 2.8.5 4.2 3.2 6 5.2 3 4.2 7.2 8 9 13-8.4-5.1-14-14.1-23.6-17.5.5 1.5.7 3.1 2 4.1 5.4 5.4 12.4 9 17.6 14.5-9-1.8-15.8-9-24.4-12q.8 1.4 1.8 2.7l-1 3-1.6-.9c.4 4 4.4 5.8 7.6 7.4 8.8 4 18.5 5.6 27.9 7.6 3 1.4 5.2 3.8 7.8 5.8 3.2 2.7 6.8 5 9.2 8.5-9.4-3.1-17.2-10-27-12 .4 1.2.7 2.7 2 3.4q8 4.9 16.8 8.1 2.5 1 4.2 3c-9.2-.8-17.5-5.4-26.6-6.6 4.4 5.3 11.7 5.7 17.5 8.4-6 1-11.3-2.5-17-3 .9 1.4 2 2.9 3.7 3.4 9.2 3.7 19.3 2.2 28.9 3 7.1 3.6 12.9 9.4 19.9 13.3q1.6 1 2.8 2.6c-8.8-1.1-15-8.8-23.6-10.5.4-2.6-4-.4-1.5.6 3.6 2.8 7.9 4.7 11.2 7.8-3-.3-6-1.1-9-1.4 1 1.4 2 2.8 3.7 3.4a50 50 0 0 0 22.2 3.9c3.4 4.5 9.4 4.5 14.5 6 4.5 1.3 9.6.9 13.7 3.5-9.5 1.4-18.9-1.6-28.3-.7.7.9 1.4 2 2.7 2 6.7 1.3 13.5 1.9 20 3.5-6.8 1.7-13.7-1.3-20.5.2 10.5 5.1 22.3.4 33-1.5 5.5-.3 11.1-.7 16.5.6-6.6 1.7-13.5 2-20 4-1.9.8-5 .7-5.2 3.1 2.9.6 5.9 0 8.8-.6l19.1-4.5c-3.8 5.6-11.4 5-16.2 9 3.5.8 7-.2 10.5-.9l.5 2.3c7 .6 12-5.5 16-10.5q4 3.1 8.9 2.6.8-2.6 1-5.3c-1.7-3.7-6.2-2.6-9.5-2.7-2.2-8.2-6-16.8-13.3-21.7 3.1 5.7 8.7 10.4 9.2 17.3-6.5-4.3-9-12.6-16-16.5 2.5 5.4 7 9.5 9.8 14.7-4.4-2.1-7.3-6.2-11-9.3q-2.2-1.7-4.4-3.7-2-4.1-3.7-8.3l-1.4.8q2.4 5.8 3.7 11.8l-2.8-.2c-2.8-4.8-4.3-10.2-7.4-14.8-.7 5.8 3.8 10.6 4.2 16.3-4.6-4.5-6.2-11.2-11.4-15.2 1 7.7 8.4 12.5 10.5 20-5-4.3-7-10.9-11.4-15.5-1-1.5-3-1-4.5-1.1l-.5-.8q.3-4.6 0-9.3h-1.4c0 5.2 1.2 11.8-3.7 15.3-1.6-6.3 0-12.7-.4-19l-1.6 1c-2 5.4-.8 11.2-1.6 16.7-1.2-5.3-1.7-10.7-2.5-16-.2-1.8-1.5-3.1-2.5-4.5v1.2l-2.2 3.2c-.1-2-2-3-3.1-4.4-.5 5.3 1.8 10.3 2 15.5-4-5.4-7.5-11-11.6-16.4-.4-5 1.7-10.4-.6-15.2-.9 6.4.1 13.4-3.7 19l-1.1-.3c-1.3-7 .3-14 .1-21l-2.1.1c-.3 5.7 0 11.3-.8 16.9-1.4-5.4-1.5-11-2.8-16.5a4 4 0 0 0-2.3-3.2q-1.1 2.3-1.9 4.8l-1-4h-2.7c.9 5 2.5 10 3.4 15-3.2-3.5-5.4-7.9-8.3-11.6 2.4-5.5 4.9-11.1 5.3-17.2-1.8 1.9-2 4.6-2.9 7a18 18 0 0 1-5 7.9l-1-.4c-.3-6.6 4.8-12.5 3.5-19.2q-2 3.1-3 6.7-.7-4.5-2.3-8.7l-.2-2.2c-.9 1-1.9 1.9-1.9 3.3q-1 7-1.1 14-.1 2-1 3.6c-.6-5.9 0-11.7 0-17.6q0-2.6-1.8-4.4c-2 5-.8 10.5-1.5 15.7-1.6-3.7-3.3-7.4-4-11.4a42 42 0 0 0 6.6-21.3c-1.8 4.2-3 8.7-4.7 12.9-1.3-1-3.6 1-2.7 2.4l-1.3.1c.5-6.7 3.7-12.8 4.6-19.4-1.1.7-2.5 1.3-2.7 2.8l-1.8-.2-1.5-3.3-.3-3.4q-1.2 1-1.7 2.4l-2.5 1c.2-2-.8-4.3.8-5.7 4.5-4.9 9-10 10.8-16.4-5.4 5.2-8.6 13-16.3 15.4 2.3-8.7 11-13.8 13.5-22.4-4.8 3.1-7 8.7-10.9 12.7 0-6.8 6.3-11.8 5.6-18.7-5 6-7.3 13.4-9.7 20.5l-2 .7c2.4-8 7.4-15.3 7.2-23.8-5.8 3.5-3.7 11.7-7.9 16.4-.4-5.9 0-11.8-.3-17.6 7-2.6 14.7-5.3 19.2-11.6-6 2.6-11.3 7.7-18.3 7.6l1.4-3c5-1.5 9-4.7 13.2-7.4a10 10 0 0 0 3.6-3.8c-5.2.4-8.5 5.6-13.8 5.7 3.7-4.3 9.1-7.2 11.5-12.5-8.3 2.1-11.2 11-18 15.2q.9-3.3 3.6-5.5c4.5-3.6 9.3-7.5 11.4-13q-1.3-.3-2.7-.1c-3 2.6-5.3 6-8.4 8.6 1.4-4.8 2.9-9.7 5.3-14 6-2.3 13.2-3.3 16.9-9.2-4.4 1.4-8.2 4.2-12.6 5.4q-3 .8-5.7-1c5.4-2.5 10.7-4.8 15.8-7.9a7 7 0 0 0 2.8-3c-3.5 1-6.8 2.7-10.4 3.3 2-4.3 7-5.7 9.3-9.8-7.1 1.8-11.9 7.8-17.6 11.9 4-6.6 12.3-9.2 15.5-16.5-5.6.7-8.4 6.3-13 8.8 1.3-4 3.6-7.5 5.8-11a30 30 0 0 0 13 .4l-1.7-1.8c-5 0-10 .3-15-.7l-1.7-2.4c7.6-.8 15.2.2 22.8-.4q-1.4-.8-3.2-1a21 21 0 0 0-10.3-1.4q2.1-.7 4-1.6l.9-.2c1 1 3.9.6 4-1.1q3 .2 5.5-1.9h-1.2l-1.7-1.4 1-2 2-1.9c-5.1-1-9.8 1.7-14.8 1.9 3.2-3.3 7.5-5.1 11-8 4.2-4 10 1.8 14.7-1-5.2-1.8-10.8-2.6-15.6-5.5-1.2-.7-1.8-2-2.5-3.1 7.5.7 14.6 4.8 22.4 3.9-5.7-3.7-13.2-2.6-18.6-6.6 7 .6 14 1.4 21 .9l.4-1.3c-6.6-2.6-14-.4-20.7-2.5 6-.2 12.2.2 18.2-.7 1.6 0 2.7-1.2 3.8-2.1-4.7-1.1-9.5 0-14.2-.3l-3.3-3c3.3-2.8 6-6.2 9.8-8.2 1.2.4 3.1.6 2.7 2.3-3.9 2-7.9 3.9-10.8 7.2 5-.2 9.6-2.9 14.2-4.8 3.9 1 7.6 2.5 11.5 3-1.5-2.7-4.6-3.6-7.4-4.5-2.9-1.8-6.1-3.4-7.4-6.8 6.6 2.6 12.5 6.7 19.5 8.3-.7-1-1.3-2.2-2.5-2.6-4.1-2-8.5-3.4-12.5-5.8 6.5.3 12.5 3.6 19 3.3a20 20 0 0 0-8.6-3.7c-3.1-.8-6.8-.4-9.3-2.7 6.2.8 12.3 3.3 18.7 2-3-3.4-8-2.3-11.5-4.4 5.2-1.4 10.7-1.8 15.6-4.2l-2.2-1.3c-4.4.4-8.5 2.5-13 2 5.5-4.2 12.8-5.9 17.2-11.4-10.1 2-17.7 10.2-27.5 13 5.5-7.3 14.6-11 19.4-18.9l-2.7.5c-7 3.6-11.4 10.7-18.2 14.6 3.4-7.7 10.2-13 14.9-19.8-4.8 1.1-7.4 5.6-11.3 8 1.6-3.8 5-6.5 6.5-10.4-10.3 4.8-12 17.1-17.3 25.8m192.7-26c2 5.5 7.6 8.8 9.3 14.4-5-3.8-7.8-10.6-14.3-12.4 4.2 7.2 11.7 12.1 14.5 20.1-3.7-3-7-6.5-10.7-9.5-3-2.4-5.8-5.6-10-5.6 2.4 3.7 5.9 6.6 9.2 9.4 3.7 3 8.2 5.4 10.6 9.7-9.6-3.6-17.7-10.7-27.7-13.6.8 1.2 1.4 2.6 2.7 3.3 5 3.5 10.8 5.6 15.9 9-5.7 0-10.9-2.6-16.5-2.6l1.2 2.1c5.2 1.9 10.8 2.5 16.2 3.7q-5.6 1.3-11.1 1.8l-2.5 1.2 3.2 4.1-2 1.7c6.4 0 12.3-3.5 18.8-3.4-4.5 2.6-9.5 4-14 6.2l-.6 2.2c5.6-1.7 10.5-5.1 16-7l2 1q-6.4 4.4-13.2 8.1c4.1.5 7.8-3.6 11.8-1.8 4.2 1.6 8.6 2.8 12.2 5.6-4.7.3-9.5-.4-14.2.2.8 3 4.2 2.7 6.6 2.9q7.3 0 14.5 1c-6.1 1.6-12.5.1-18.6 1.3q-1.3.6-2.3 1.5c4.6.5 9.4.7 13.8-.8q4.5 0 8.9.2c-5.7 4.3-14 2.2-19.7 6.7 7.9.4 15.4-2.5 23-4.5l-.6 2.3c-5 4.2-12 4-17.5 7.1 4.2.7 8.3-.5 12.4-1.2 4.2 2.5 7.8 6.3 12.5 8.3l.3 2c-4.6-1-9.2-3.2-14.1-2.8 3.2 6.2 11.3 4.2 16.9 6.3-5.7 1.9-11.3-3.3-17-.5 5.7 3.4 12.5 2.6 18.6 4.6-5 1-10 .3-15 .5l-1.7 2.4c7.6 1.2 15.5-2 22.8.8a40 40 0 0 1-10 3.1c-3-.5-6.6-1.4-9 1q3.4.5 6.7.7c.1 3.2 2.3 5.7 4.6 7.7q5.8 4.6 11.2 9.7c-7-3-11.3-10.4-18.9-12 3.7 5.4 10.3 7.8 14.3 13-5.3-1.8-9.8-5.6-15.5-6 5 5.3 12.7 6.8 18.6 11-1.4 1.9-3.7.7-5.6.4-4.2-1-7.8-3.6-12-4.6 4 5.7 11.5 6.2 17.3 9q3.2 7 5.9 14.3c-3.9-2.9-6.7-7-10.2-10.2l-1.3 2 .5.9-1.2 2.5-1-1-1.5.6c3.2 5.2 8.6 8.4 12 13.4-5-1.9-9.3-5.6-14.4-7.3 1.1 2.8 4.2 3.8 6.6 5.5 4 2.8 9 4.8 12 8.9-7-.2-12.3-5.3-18.6-7.4a35 35 0 0 0 16.3 10c1.2.6 3.3 1 3 2.9l.2 16.2c-4.8-4.5-2.8-13.2-8.4-16.9-.6 9 5.9 16.3 6.8 25a11 11 0 0 1-2.9-5 49 49 0 0 0-8.6-17.4c0 2.3.1 4.7 1.2 6.8 2.6 5.4 5.6 10.6 7.5 16.4-5.2-5.4-8-13-14.2-17.3 3.2 8.4 10.4 14.3 14 22.5-7.7-2.2-11.6-10-16.6-15.7 1.6 7.6 7.2 13.1 12.5 18.3-2 7.5.3 15.1 0 22.7h-.9c-1-7-.5-14.2-2.2-21.1l-2-.3c-.4 6.8 1.5 13.4 1.2 20.2-2.7-5.4-2.2-12.4-6.9-16.6.6 7.5 5 14.2 5 21.9-6.4-4-6.4-12-9.5-18-.5 7.5 3.6 14.2 6.3 20.8.6 4.1-1.6 8-3 11.8-.8-5 .5-10.9-2.5-15.2l-1 3-2.2 2-.8-4.4c-1.3 1.7-2.3 3.7-1.7 6l-2.6 3.5c-.3-2-1.7-3.6-3.4-4.8 1.3 6.5 4.1 12.5 4.9 19.1-6.3-2.5-6-10-9.2-14.9 0 6.2 2.8 12 5.3 17.4q-3.4 5.7-7.2 11.1c0-5.2 2.4-10.1 2-15.4a10 10 0 0 0-3.1 4.2c-2 6-1.6 12.4-3.5 18.3-1.4-7.7 3-15 1.4-22.6l-2.2 3c-1.5 5.8-1.1 11.8-2.2 17.6-1-5-1-10-1.3-15 0-1.4-1-2.5-1.7-3.6-1 7.6.8 15.2-.3 22.8-5.5-5-3.7-13.1-5-19.7-2.1 5-.3 10.2-.6 15.3q-1.5 2.8-3.5 5.2c-2.7 3.6-4.5 7.8-7.4 11.2.3-5 1.3-9.8 1.6-14.7-1 .8-2.9 1-3 2.6-1 4.6-1.2 9.5-2.7 14-1.1-5.5 2-11 .2-16.5l-2.1 2.2q-1.2 3.3-2 6.6l-1.6-1.5q-.5-2.7-1.3-5.4l-1.2 2.2c-.4 5.8 1.3 11.6.4 17.5-5.9-3.5-3.8-11.2-4.6-16.8-2.6 5.4-.3 11.5-.7 17.2q-4.3 3.4-8.8 6.6c1.7-4.9 6.7-8.1 7-13.5q-3.5 2.2-6.6 4.5c1-2.1 2.3-4.3 2-6.7-5.3 4.1-6.7 11-11.4 15.7 1.3-5.1 3.2-10 4.8-15l-1.3-1.2c-2.1 4.8-3.8 10-6.6 14.4h-3c1-4.4 3.1-8.5 4-13-3.8 2.7-3.5 8.3-7.5 10.8-4.3 3.1-7.6 7.2-11.6 10.5 1.7-5.6 6.9-9.3 8.2-15-6.4 4.9-9.3 12.9-15.7 17.7.4-7 6.3-11.6 8.8-17.8q-2.5 1.6-4.3 3.9a48 48 0 0 0-8.5 18c-3-.1-6-.2-9 .7q0 3.8.9 7.4c3.3.3 6.2-1 9-2.7 3.1 4 6.4 8.6 11.6 10l5 1.6 1-2.5c3.1.4 6.6 1.6 9.5-.5H447c-3.9-3-9-3.2-13-5.7q-.8-1.3-1.3-2.7c8.9 1.9 17.6 5.1 26.8 5-1.8-3.2-6-3.3-9-4.2-5.3-1.4-11-1.2-16-3.4q12.6-1.4 25 1.2l-1 .1a45 45 0 0 0 24 .5l1.1.1c-2.5-2.2-6.1-2.2-9-1q-5.6.3-11-.1c6.3-1.7 12.9-2 19.3-3.3 1.4 0 2.3-1.2 3.2-2.1q-7.1-.1-14.2.4c-4.9.2-9.7 1.4-14.6.6q1.7-1.4 3.8-1.8a185 185 0 0 0 19.2-4.2c2.6-.7 4-3.5 6.7-3.8 5.4-.9 11-.3 16.3-2.2 3.3-1.3 7.1-2.5 9-5.8-3.3.6-6.5 1.8-9.8 2.5 2.9-4.4 8.7-5.3 11.6-9.7-8.1 1.3-14.2 7.4-21.6 10.3-1.5 1-2.7-.6-4-1.3l-.6.1c2.6-.3 4.7-2 6.7-3.7 1 0 2.3.1 3.2-.7 4.4-3.2 8.3-7.3 13.4-9.3 5.9-.6 11.8.1 17.7-.8 5.4-.7 11.5-1.2 15.3-5.7-6.4.2-12.2 3.8-18.6 3.6 6-3.4 13.6-3.7 18.6-8.8-9.2.4-17.4 6-26.6 6 5-3.2 10.5-5 15.7-7.7 3-1.6 6.9-3 7.4-6.7-10 2-17.8 9-27.2 12.6 3.6-5.2 9.2-8.4 13.9-12.5 3.8-3.9 9.5-2.7 14.2-4.6q10-1.4 19-6.2c2.6-1.3 4.5-3.6 6.2-6l-6.4-.2q3-2.1 4.7-5.4c-8.3 3-14.8 9.9-23.5 12 4.7-5.8 11.9-8.9 16.7-14.6 1.2-1 1.2-2.6 1.6-4l-1.4-2c7.4-1.8 15-3.9 21-9 1-.8 1-2.3 1.6-3.4-5.9 2.7-11.1 6.7-17.3 8.8 5-5 13-7.2 16.2-14-8.7 3.1-15.5 10.2-24.4 13 5.2-6.2 12.7-10 18-16.2.8-1 .9-2.5 1.3-3.8-5.2 2.1-9 6.3-13.4 9.7-3.6 2.7-6 7-10.4 8.7 5.3-9.1 12.6-16.8 18.8-25.3l.7.7-2.6-3.8c7.8-5.5 17.5-10.4 20.8-20-5.1 1-6 7.7-11 9.1l.4-1.7c3-4.3 6.5-8.3 7.7-13.5-3 1.8-5.3 4.7-7.5 7.4-3.6 2-5.9 5.4-8.5 8.4l-1.5-1.5q5.4-7 9.4-14.9c1.2-1.9.5-4 .2-6a84 84 0 0 0-11.9 17.9l-3 2.4-.5-2.5c3.1-8.8 7-17.4 8.6-26.6 4-8.2 10.8-16 9.2-25.8q-1.5 1.5-2.1 3.6c-1.4 5.3-2.8 10.7-6.3 15 .9-7.6 5.5-14.8 3.7-22.6-2 2.6-2.5 5.9-3.3 9-1.4 6-3.6 11.7-5.4 17.6l-1.8.7c1.4-8 3.6-15.8 3.4-24 .4-1.8-.8-3.5-1.7-5-5.3 9-2.1 19.8-5 29.3-2-6-.9-12.3-1.8-18.4-.5-2.7-.9-5.6.6-8 4-8.8 10-18.2 6.9-28.2-1.8 3.4-1 7.3-1.8 11-1.7-3.3-2-7-2.6-10.7-.4-2.3-.6-4.9-2.6-6.4-.4 5.8 0 11.7-.2 17.5-.1 3.2 0 6.7-1.9 9.5-1-6.1-.9-12.3-1.2-18.5 0-4-1.6-7.9-1.6-12 0-8 0-16.4-2.6-24.2a18 18 0 0 0-3.6-6c-.8 3 .9 6 1.6 8.9q1.8 5.6 1.7 11.5-2.4-8-5.3-15.8c-.7-1.8-2.2-3-3.6-4.1 1.7 9.4 5.6 18.4 6.7 28-3.5-3.5-5-8.3-7.6-12.4-2.1-4-5.2-7.4-6.3-11.8-1.6-6.2-3-12.5-5.5-18.4-1.4-3.3-3.7-6.7-7.5-7.4 2 4 5.4 7.3 6.3 11.9-4.6-4.7-7.3-11.3-13.5-14.3 3.2 8.1 10.3 14 13.2 22.2-6-4.6-9.7-11.5-15.2-16.7-2.7-2.2-3.7-5.6-5-8.7-3.2-7-6.2-15.5-13.9-18.8m-4.3 76.5a14 14 0 0 0-7.8 8.2c-2.2 6.9-5.7 13.3-8 20.1-3.3 7.7-4.5 16-6.9 23.9-.5 2.7-3.5 3.2-5.7 3.8-8-.9-16-2.1-24-1.2-9 0-17.6 3-26.3 4.6-5.5 1.2-10.8-1.6-15.5-4-5.6-3.1-12.1-4.2-17.8-7.2-4.6-7.7-8.7-15.7-14.3-22.8.4-1.9 1.5-3.7 1.3-5.7-1.7-2.6-5.2-2-7.9-2.4-1-2.4-3.1-5.6-6.1-4.3-6 3.7-13.4 1.4-19.6 4.2-2.6 1-4.5 3-6.7 4.7-3 1.3-6.4 1.5-9.5 2.4q0 3.3.3 6.7l-5.2-.1q-1.6 2.2-3.7 3.8l3.5-1.1-.2 2.7q3.8 1.5 7.1-.6l2.1 3.6a15 15 0 0 0-9.3 6.7c-5.4 8.7-5 19.7-9.8 28.7 2 3.1 5.8 5.6 6.3 9.4-3.7 1-8.9 1.6-10.3 5.9-.8 3.7-1.2 7.5-2.3 11.2l3.2-.5.1 2.8c5.4-3.3 11.9-3.6 17.6-6l2.6.3-.1-.9 1.3-1.7 2 1.3 8-1.1h5.3q.1 3.4.5 6.8L333 283q-3.4.3-6.7.8c-7.6 1.4-15.4.2-23.1.7-4 .7-6.2 4.4-7.1 8l5.6-1c-.9 3.6-2.5 7-2.5 10.7 2.2-1.7 4.4-3.6 7-4.7v7c2-1.2 3.3-3.7 5.8-3.8 5.2-.3 9.3-3.7 13.8-6q7.3 0 14.7.3c.2 3.2.5 6.4 2.2 9.2 1.2 4 3 8.5 7.1 10.3 5.9-8 3-18.5 3.8-27.7.7 2.1 0 4.7 1.4 6.5l16.8-.9c2.2.2 3.6-1.7 5.1-2.9 4 1.3 8 1.5 12.1 1.7q18-.3 34.9-6.6c-.8 3-3 6-2.1 9.3 1.4 4.7 7.5 7.9 5.6 13.4-4.8 1.8-9.4-1.4-14.1-.9-4 1.9-9.5 2.3-10.6 7.4 2-.3 4.6-2.8 6.3-.7-.6 4-2.9 7.7-4 11.6 4.4-2.1 9.4-6 14.2-2.6l-1.3 5.6c4.1-2.3 8.8-3 13.4-3.2 3.1-3.4 7-6.3 11.5-7.8 3.6-1.3 7.7-.8 11.1-2.8-1.2-5.1-6-8.2-7.6-13 4.5-.6 9.6.8 13.6-2 2-1 2.3-3.6 3.2-5.6a59 59 0 0 0 21.2 6.8c-2.1 4-7 4.3-10.2 7-3.2 3-9.2 2.8-10.4 7.8 3.4-.4 6.7-1.6 10.1-1 .3 3.8-.6 7.6-.7 11.4a32 32 0 0 1 13.1-7c2.9 3.3 6 6.6 9.7 8.9a46 46 0 0 1 7.7-20.5q.5-4.5-.3-9c-2.2-3-6.2-3.7-8.8-6.2-2.3-2.4-5.1-4.7-6.1-8-3.6-9.4-1-20-4.5-29.4-.7-2.3-3.2-4.4-2.2-7 2.7-2.2 6-3.4 8.4-6 4-3.8 6.7-8.9 9.2-13.8 4-8.4 1.7-18 3.3-27a97 97 0 0 1 6-23.7q-8.9-.8-17.2 2.8" fill="#ffffff" id="path3" display="inline"/><path d="M0 0h194v526H0z" id="path1"/><path d="M600 0h200v526H600z" id="path2"/></g><g id="g123" display="inline"><path d="M303 129c5.3-8.8 7-21.1 17.3-26-1.5 4-4.9 6.7-6.5 10.5 4-2.4 6.5-6.9 11.3-8-4.7 6.9-11.5 12-14.9 19.8 6.8-3.9 11.2-11 18.2-14.6l2.7-.5c-4.8 7.9-13.9 11.6-19.4 18.8 9.8-2.7 17.4-11 27.5-12.9-4.4 5.6-11.7 7.2-17.1 11.4 4.4.6 8.5-1.6 13-2l2.1 1.4c-5 2.3-10.4 2.7-15.6 4 3.6 2.2 8.5 1 11.5 4.4-6.4 1.4-12.5-1.1-18.7-1.8 2.6 2.2 6.2 1.8 9.3 2.6q4.7.8 8.6 3.7c-6.5.3-12.5-3-19-3.3 4 2.4 8.4 3.8 12.5 5.8 1.2.4 1.8 1.6 2.5 2.6-7-1.6-13-5.7-19.5-8.3 1.3 3.4 4.5 5 7.4 6.8l-4 1.5c-4.7 1.9-9.2 4.6-14.3 4.8 3-3.3 7-5.2 10.8-7.2.4-1.7-1.5-2-2.6-2.3-3.9 2-6.6 5.4-9.9 8.1l3.3 3.1c4.7.3 9.5-.8 14.2.3-1.1.9-2.2 2-3.8 2-6 1-12.1.6-18.1.8 6.7 2.2 14-.1 20.6 2.5-7.4 1.3-14.8-.7-22.3-.1l.9.5c5.5 4 13 3 18.6 6.6-7.8 1-14.9-3.2-22.4-4q.9 2 2.5 3.2c4.8 2.9 10.4 3.7 15.6 5.4-4.7 2.9-10.5-2.8-14.7 1-3.5 3-7.8 4.8-11 8 5 0 9.7-2.9 14.8-1.8l-2 2c-6.4 2.3-13.6 1.7-19.6 5.3 2.3 1.5 4.5 3.3 7.2 3.8 3.4.6 6.8.3 10.2.3q1.8.3 3.2 1.2c-7.6.5-15.2-.5-22.8.3l1.7 2.4c5 1 10 .7 15 .8l1.7 1.7c-4.3 1-8.7.5-13-.3-2.2 3.5-4.5 7-5.9 10.9 4.7-2.5 7.5-8.1 13-8.8-3.1 7.3-11.4 10-15.4 16.5 5.8-4 10.5-10 17.6-11.9-2.3 4-7.4 5.5-9.3 9.8 3.6-.6 6.9-2.3 10.4-3.3a7 7 0 0 1-2.8 3q-7.6 4.3-15.8 7.9a7 7 0 0 0 5.7 1c4.4-1.2 8.2-4 12.6-5.3-3.7 5.8-11 6.8-17 9a72 72 0 0 0-5.2 14c3.1-2.5 5.4-5.9 8.4-8.5h2.7c-2 5.6-6.9 9.5-11.3 13.2a10 10 0 0 0-3.7 5.4c6.8-4.1 9.7-13 18-15.2-2.4 5.3-7.8 8.2-11.4 12.5q-1.9 2.5-3 5.5l-1.5 3c7 0 12.2-5 18.3-7.6-4.5 6.3-12.2 9-19.2 11.6.2 5.9-.1 11.8.3 17.6 4.3-4.7 2-12.9 7.9-16.4.2 8.5-4.8 15.9-7.2 23.8l2-.7c2.4-7.1 4.8-14.6 9.7-20.5.7 7-5.7 12-5.5 18.8 3.8-4.1 6-9.7 10.8-12.8-2.5 8.6-11.2 13.7-13.5 22.4 7.7-2.4 11-10.2 16.4-15.4a42 42 0 0 1-10.8 16.4c-1.7 1.4-.7 3.7-.9 5.6.5 6.6-1.9 13.3.4 19.7 1.5-6.8.6-13.8 2.1-20.6q.6-1.4 1.7-2.4l.3 3.4q-.2 5.5-1.3 10.8c-.3 2.7-1 5.6.3 8 1 1.7 2.6 3 4 4.3l.5 3c.7 3.9 2.4 7.6 4 11.3.7-5.2-.6-10.7 1.5-15.7a6 6 0 0 1 1.7 4.4c.1 5.9-.5 11.7 0 17.6a7 7 0 0 0 1-3.6q0-7 1.2-14c0-1.4 1-2.4 2-3.3v2.2c.3 6-1 11.8-.5 17.8q1.9-4.5 3-9.1.9-3.6 3-6.7c1.2 6.7-4 12.6-3.6 19.2l1 .4a18 18 0 0 0 5-8c.9-2.3 1-5 3-6.8-.5 6-3 11.6-5.4 17 3 3.9 5 8.2 8.3 11.7-.9-5-2.5-10-3.4-15h2.6l1.1 4c1.2 6.1 2 12.3 3.6 18.4 1.8-7.8-2-15.4-1.7-23.2a4 4 0 0 1 2.3 3.2c1.3 5.4 1.4 11 2.8 16.5.8-5.6.5-11.2.8-16.9l2.1-.2c.2 7-1.4 14-.1 21q.5.3 1.1.4c3.8-5.6 2.8-12.6 3.7-19 2.3 4.8.2 10.1.6 15.2l11.6 16.4c-.2-5.2-2.5-10.2-2-15.4 1.2 1.3 3 2.4 3.1 4.3 1.2 6 1.7 12.3 4.2 18 1-7.2-2.6-14-2-21.2v-1.2c1 1.4 2.3 2.7 2.5 4.5.8 5.3 1.3 10.7 2.5 16 .8-5.5-.3-11.3 1.6-16.6l1.6-1.1c.5 6.3-1.2 12.7.4 19 4.9-3.5 3.8-10 3.7-15.2h1.4q.3 4.6 0 9.2l-1 6.4q5 3.8 10.3 7.1c-2.5-4.5-5.8-8.5-8.8-12.7 1.6.1 3.4-.4 4.5 1.1 4.5 4.6 6.4 11.2 11.4 15.5-2-7.4-9.5-12.2-10.5-20 5.2 4 6.8 10.7 11.4 15.2-.4-5.7-5-10.5-4.2-16.3 3.1 4.6 4.6 10 7.4 14.8l2.8.2q-1.3-6-3.7-11.8l1.4-.8 3.7 8.3q2.1 2 4.4 3.7c3.7 3 6.6 7.2 11 9.3-2.8-5.2-7.3-9.3-9.7-14.7 6.8 4 9.4 12.2 15.9 16.5-.5-6.9-6-11.6-9.2-17.3 7.3 5 11 13.5 13.3 21.7 3.3.1 7.8-1 9.4 2.7q0 2.8-1 5.3-4.8.4-8.8-2.6c-4 5-9 11.1-16 10.6l-.5-2.3c-3.5.6-7 1.6-10.5.8 4.8-4 12.4-3.3 16.2-9l-19.1 4.5c-3 .5-6 1.2-8.8.6.3-2.4 3.3-2.3 5.1-3 6.6-2.2 13.5-2.3 20-4-5.3-1.4-10.9-1-16.3-.7-10.8 2-22.5 6.6-33 1.5 6.7-1.5 13.6 1.6 20.5-.2-6.6-1.6-13.4-2.2-20-3.4-1.4 0-2-1.2-2.8-2 9.4-1 18.8 2 28.3.6-4.1-2.6-9.2-2.2-13.7-3.5-5-1.5-11-1.5-14.5-6-7.6 0-15.4-.5-22.2-3.9q-2.4-1.1-3.7-3.4c3 .3 6 1.1 9 1.5-3.3-3.2-7.6-5-11.2-7.8l1.5-.7c8.5 1.7 14.8 9.4 23.6 10.5q-1.2-1.6-2.8-2.6c-7-4-12.8-9.7-20-13.3-9.5-.8-19.6.7-28.8-3-1.7-.5-2.8-2-3.8-3.5 5.8.6 11.2 4.1 17.1 3.1-5.8-2.7-13-3.1-17.5-8.3 9.1 1 17.4 5.7 26.6 6.5a10 10 0 0 0-4.2-3 94 94 0 0 1-16.8-8.1c-1.3-.7-1.6-2.2-2-3.5 9.8 2.1 17.6 9 27 12.1-2.4-3.5-6-5.8-9.2-8.5-2.6-2-4.9-4.3-7.8-5.8-9.4-2-19-3.6-27.9-7.6-3.2-1.6-7.2-3.3-7.6-7.4l1.7.9c4.9 3 9.8 6.2 15.4 7.5-4.7-3.6-10.1-6.4-14.5-10.5q-1-1.3-1.8-2.8c8.6 3.2 15.3 10.3 24.4 12.1-5.2-5.6-12.2-9.1-17.6-14.5-1.3-1-1.5-2.6-2-4 9.5 3.3 15.2 12.3 23.6 17.5-1.8-5.2-6-8.9-9-13.1-1.8-2-3.2-4.7-6-5.2-8.2-2-16.8-3.4-24.3-7.6a16 16 0 0 1-5.9-6c6.4 1.7 11.3 6.6 17.7 8.3-5-4.9-12.9-6.8-16-13.6 4.7 1.4 8.4 4.7 12.7 7q5.8 3.2 11.7 6.1c-5-6.6-13-10.2-18.4-16.5q-1.1-1.7-1-3.8c9.3 4.6 15.4 13.5 24.1 19-3-6.2-8-11-11.8-16.5-2.6-3.9-6.3-7-8-11.4q2.3.6 4.3 2c4.5 5.2 8.3 11.1 12.9 16.4q-1.5-6.3-4.2-12.2c-1.2-2.8-4.4-3.6-7-5-7.5-4.4-15-9.3-21-16a12 12 0 0 1-3-7.1c4.6 3.5 7.2 9.4 12.6 11.9-2.6-6-9.3-10-10-17 8.1 6.7 13.3 16.6 22 22.6-2.3-5.9-6.9-10.4-9.7-16-2.1-4.1-6.1-7.8-5.1-12.8q1.8.9 3.2 2.5c4.2 5.4 7.2 11.5 10.6 17.3 1.5 2.8 2.8 5.7 5.3 7.8-3-12-8.7-23-11.4-35-.7-3.1-2.7-5.6-4.2-8.3-3.3-6-6.9-12.4-5.8-19.4 4.1 4.4 2.8 11.7 7.5 16 .2-6.7-4.6-12.6-3.1-19.3 3.3 3.6 3.4 8.8 5 13.2 2 4.6 2.3 10 5.7 13.8-.6-8.5-3.5-16.7-3.8-25.2-.3-1.9 1.3-3 2.3-4.3 3.8 9.2 4 19.3 4.4 29h1.1l1.8-23.7c-4.5-9.5-11.2-19.4-8.7-30.4 3.3 4.4.3 10.8 4.4 15-.3-7.3-1-15 2-21.8q.8 3 .7 6.2l.7 15q.1 3.5 1.9 6.6c.8-7.5.6-15.1 1.1-22.6 1.5-9.5 0-19.2 2.7-28.4q.4 5.3 1.2 10.7l1.6-4.8q1.5-8.2 6-15.4l1.6.9a125 125 0 0 0-7.2 27.2c4-3.5 5.1-8.8 7.9-13 1.9-3.7 5-6.9 5.9-11q2-10.7 6.4-20.6c1.1-3 3.7-4.8 6.5-6-1.5 4.1-4.8 7.4-6 11.7 4.8-4.1 7.2-10.7 13.1-13.5-3.1 8.2-10.6 14-13.1 22.5 6.4-5.8 10.8-13.3 17-19.4m-.8 6.5c-3.6 2.3-5.8 6-9 8.8q-3.5 2.9-5.7 6.7c6-3.4 10.8-8.4 16.3-12.4-.4-1.1-.1-2.8-1.6-3.1m-21.8 25c-2.2 2.9-3.7 6.3-5.8 9.3-1.9 2.7-3.9 5.4-4.7 8.6 3-1.7 4.8-4.8 6.7-7.6q3.1-4.6 6.6-9-1.4-.8-2.8-1.3m4.2 4.1q-3.6 3.5-5 8.3c4-1.2 7.2-4.2 9.7-7.6-1.6-.3-3.2-1.2-4.7-.7M262.9 189c.2 7-2 13.7-1.4 20.7 2.9-4.8 2.6-10.8 4-16 1-2.3-1.2-3.5-2.6-4.7m6 2.9-.7 3.2q-2 4-2.2 8.5c1-1 3-1.5 2.5-3.2 1.4-2 3-3.9 3.3-6.3-.4-1.3-2-1.5-3-2.2m-9 29.8q0 8.3-.6 16.5c2.3-4.9 3.6-10.2 5.3-15.3-1-1.6-3-1.2-4.7-1.2m-8.7 32.8c1.5 5.2 3.5 10.3 4.9 15.6q.4 2.4 2.2 4.1.5-8.7-.4-17.6-3.4-.9-6.7-2.1m11.8 39.1q1.3 5 3.4 10l-.4 2.1 2 .3q.2-5.6-.2-11.2l.2-1.5q-2.5 0-5 .3m9.3 31.3q3.3 4.6 6.9 9c0-3.8-2-7.3-3.5-10.8zm19.3 24.8q4 4.7 9.3 7.9-3.1-5.4-6.4-10.6c-1.1.7-4.2.7-2.9 2.7m26.6 14.2-1.8 4.2c3.7 4.2 8.2 7.6 12.4 11.3a63 63 0 0 0-10.6-15.5m-8 8.8a85 85 0 0 0 22.3 13.9c-4-4.7-9.2-8-13.9-12q-2.1-2-4.6-3.4-2 .6-3.8 1.5m35 13.6q-.8 1.8-1.3 3.7 6.6 2.3 13.3 3.8a51 51 0 0 0-12-7.5m27.8 1.7q1 3 3.4 4.8c3.5 3 6.5 6.7 11 8.4-1.6-3.4-4.8-5.5-7.5-8q-3-3-6.9-5.2m-36.3 4.5c2.9 2 6.3 2.4 9.6 3.3 5 1.2 9.9 2.5 15 2.9-5.4-3.3-11.6-4.6-17.6-6.1-2.3-.7-4.7-.3-7 0m33-.3c-1.2 1.2.7 3.4 2 2.3 1.2-1.2-.8-3.4-2-2.3m4.5 6.3h5.1q-2-2.4-4.4-4.4zm0 1.6-1.1 2.5h7.2z" fill="#359435" id="path4"/><path d="M495.7 103c7.7 3.2 10.7 11.7 14 18.7 1.2 3 2.2 6.5 4.9 8.7 5.5 5.2 9.2 12.1 15.2 16.8-3-8.3-10-14.2-13.2-22.3 6.2 3 8.9 9.6 13.5 14.3-.9-4.6-4.3-7.9-6.3-12 3.8.8 6 4.2 7.5 7.5q3.4 9 5.5 18.4c1.1 4.4 4.2 7.9 6.3 11.8 2.6 4 4.1 9 7.6 12.4-1-9.6-5-18.6-6.7-28 1.4 1.2 2.9 2.3 3.6 4q3 7.9 5.3 15.9 0-6-1.7-11.5c-.7-3-2.4-5.8-1.6-9a18 18 0 0 1 3.6 6.1c2.5 7.8 2.5 16.1 2.6 24.3 0 4 1.5 7.9 1.6 11.9.3 6.2.3 12.4 1.2 18.5 1.8-2.8 1.8-6.3 2-9.5.2-5.8-.3-11.7.1-17.5 2 1.5 2.2 4.1 2.6 6.4.6 5.5.1 11 .4 16.4q1.3-2.8 2.2-5.7c.8-3.7 0-7.6 1.8-11 3.2 10-3 19.4-7 28.2-1.4 2.4-1 5.3-.5 8 1 6.1-.2 12.4 1.8 18.4 2.9-9.5-.3-20.4 5-29.3 1 1.5 2 3.2 1.8 5 .1 8.2-2.1 16-3.5 24l1.8-.7c1.8-5.9 4-11.6 5.4-17.6.8-3.1 1.3-6.4 3.3-9 1.8 7.8-2.8 15-3.6 22.6 3.4-4.3 4.8-9.7 6.2-15a8 8 0 0 1 2.1-3.6c1.6 9.7-5.2 17.7-9.2 25.8-1.6 9.2-5.5 17.8-8.6 26.6a40 40 0 0 0-3 10.3q4.3-4.5 6.5-10.2a82 82 0 0 1 11.9-17.9c.3 2 1 4.2-.2 6a95 95 0 0 1-9.4 15 32 32 0 0 0-4.5 8.1 63 63 0 0 0 14.5-15.1c2.2-2.7 4.4-5.6 7.5-7.4-1.1 5.2-4.8 9.2-7.7 13.5-2.4-2.7-3.4 3.2-.3 1.7 4.9-1.4 5.8-8 10.9-9.2-3.3 9.7-13 14.6-20.8 20.1-3.2 2.3-7 3.6-9.9 6.3-2.2 3.7-3.3 8-4.2 12.3 5-5.4 8.9-12 14-17.3l2 1.8c-6.2 8.5-13.5 16.2-18.8 25.3 4.3-1.8 6.9-6 10.5-8.7 4.3-3.4 8-7.6 13.3-9.7-.4 1.3-.5 2.7-1.3 3.9-5.3 6-12.8 10-18 16.2 8.9-2.9 15.7-10 24.4-13-3.3 6.7-11.1 8.8-16.2 14 6.2-2.2 11.4-6.2 17.3-8.9-.5 1.2-.6 2.6-1.6 3.5-6 5-13.6 7-21 8.8-3.7 1-8.1 1.2-10.8 4.4q-6.4 7.2-11.3 15.4c8.5-5 14.4-13.6 23.5-17.6-.4 1.3-.4 3-1.6 4-4.8 5.6-12 8.7-16.7 14.5 8.7-2.1 15.2-9 23.5-12a13 13 0 0 1-4.7 5.4c-4.1 2.2-8.6 4.1-11.3 8-1.7 2.7-4.7 3.6-7.5 4.4-4.6 1.9-10.4.8-14.2 4.6-4.7 4-10.3 7.3-13.9 12.5 9.4-3.6 17.3-10.6 27.2-12.6-.5 3.8-4.4 5.1-7.4 6.7-5.2 2.6-10.8 4.5-15.7 7.7 9.3 0 17.4-5.6 26.6-6-5 5.1-12.6 5.4-18.6 8.8 6.5.2 12.2-3.4 18.6-3.6-3.8 4.5-10 5-15.3 5.7-5.9 1-11.8.2-17.7.8-5.1 2-9 6.1-13.4 9.3-.9.8-2.1.7-3.2.7 4-3.3 8.4-6 12.4-9.5l-1-2.3c-.3-1.7-2.3-1.2-2.8 0L501 373l-5.1 4q-5.7 4.4-10.5 9.6l2.6-.3h.7c1.2.6 2.4 2.1 3.9 1.2 7.4-3 13.5-9 21.6-10.3-2.8 4.4-8.7 5.3-11.5 9.7 3.2-.7 6.4-1.9 9.6-2.5-1.7 3.3-5.6 4.5-9 5.8-5.2 2-10.8 1.3-16.2 2.2-2.7.3-4.1 3.1-6.7 3.8a185 185 0 0 1-19.2 4.2q-2 .4-3.8 1.8c4.9.8 9.8-.4 14.6-.6q7.1-.4 14.2-.4c-.9 1-1.8 2-3.2 2.1-6.4 1.4-13 1.6-19.3 3.3l-4.1.4a79 79 0 0 0-25-1.2c5 2.2 10.7 2 16 3.4 3 1 7.2 1 9 4.2-9.2.1-18-3.1-26.8-5l1.2 2.7c4.1 2.5 9.2 2.7 13 5.7a55 55 0 0 1-13.9-2.1l1.5 4-1.7-.5c-5.3-1.4-8.6-6-11.7-10-2.8 1.7-5.7 3-9 2.7q-1-3.7-.8-7.4c2.9-1 6-.8 8.9-.7a48 48 0 0 1 8.5-18q1.8-2.3 4.3-3.9c-2.5 6.2-8.4 10.8-8.8 17.8 6.4-4.8 9.3-12.8 15.7-17.7-1.3 5.7-6.5 9.5-8.2 15 4-3.3 7.3-7.4 11.6-10.5 4-2.5 3.7-8 7.5-10.8-.9 4.5-3 8.6-4 13h3c2.9-4.5 4.5-9.6 6.6-14.4l1.3 1.2c-1.6 5-3.5 9.9-4.8 15 4.7-4.6 6.1-11.6 11.4-15.7.3 2.4-1 4.6-2 6.7q3.2-2.4 6.6-4.5c-.3 5.4-5.3 8.6-7 13.5q4.6-3.1 8.8-6.6c.4-5.7-1.9-11.8.7-17.2.8 5.6-1.2 13.3 4.6 16.8 1-5.9-.8-11.7-.3-17.5l1-2.2q1 2.7 1.4 5.4c.3 3.6.5 7.2 1.6 10.6 1.2-5.1 1.4-10.4 2-15.7l2-2.2c1.8 5.5-1.2 11-.1 16.5 1.5-4.5 1.6-9.4 2.7-14 .1-1.5 2-1.8 3-2.6-.3 5-1.3 9.8-1.6 14.7 3-3.4 4.7-7.6 7.4-11.2q2-2.4 3.5-5.2c.3-5-1.5-10.4.7-15.3 1.2 6.6-.6 14.8 4.9 19.7 1.1-7.6-.7-15.2.3-22.8.7 1.1 1.7 2.2 1.7 3.6.3 5 .3 10 1.3 15 1.1-5.8.7-11.8 2.2-17.5q1-1.7 2.2-3c1.7 7.6-2.8 14.8-1.4 22.5 2-6 1.5-12.3 3.5-18.3.5-1.7 1.8-3 3-4.2.6 5.3-2 10.2-1.9 15.5q3.9-5.4 7.2-11.2c-2.5-5.5-5.3-11.2-5.3-17.4 3.2 5 2.9 12.4 9.2 14.9-.7-6.6-3.6-12.6-4.9-19q2.8 1.5 3.4 4.7l4 12.8 1-5.2 3 4.5c0-6.4-.9-12.8-.7-19.2l1-3c3 4.3 1.7 10.2 2.5 15.2 1.4-3.8 3.6-7.7 3-11.8-2.7-6.6-6.8-13.2-6.3-20.7 3 6 3 14 9.5 17.9 0-7.7-4.4-14.4-5-22 4.8 4.3 4.2 11.3 6.9 16.7.3-6.8-1.5-13.4-1.2-20.2l2 .3c1.7 7 1.2 14.1 2.2 21.2l1-.1c.2-7.6-2-15.2-.1-22.6-5.3-5.3-10.9-10.8-12.5-18.3 5 5.6 8.9 13.4 16.7 15.6-3.6-8.1-11-14.1-14.1-22.4 6.3 4.2 9 11.8 14.2 17.2-1.9-5.8-4.9-11-7.5-16.4q-1.4-3.2-1.2-6.8 6.1 7.8 8.6 17.5a11 11 0 0 0 2.9 5c-1-8.7-7.4-16.1-6.8-25 5.6 3.6 3.6 12.3 8.4 16.8l-.1-16.2c.2-1.8-1.9-2.3-3.1-2.8-6.1-2.1-12.2-5-16.3-10.1 6.3 2.2 11.6 7.2 18.6 7.4-3-4.1-8-6-12-9-2.4-1.6-5.5-2.6-6.6-5.4 5.1 1.7 9.3 5.4 14.5 7.3-3.5-5-9-8.2-12.1-13.4l1.6-.6 1 1c5 4.6 9.2 10.4 15.4 13.8-3.4-6.7-10.8-9.7-14.3-16.3l-.5-.8 1.3-2c3.5 3.2 6.3 7.2 10.2 10.2q-2.7-7.4-5.9-14.4c-5.8-2.8-13.2-3.3-17.3-9 4.2 1 7.8 3.6 12 4.6 2 .3 4.2 1.5 5.7-.4-6-4.1-13.6-5.7-18.7-11 5.7.4 10.2 4.3 15.5 6-4-5.2-10.6-7.6-14.3-13 7.6 1.7 12 9 18.9 12q-5.4-5-11.2-9.7c-2.3-2-4.5-4.5-4.5-7.7q-3.5-.2-6.8-.6 4.5-.2 9-1a40 40 0 0 0 10-3.2c-7.3-2.8-15.2.4-22.8-.7l1.7-2.5c5-.2 10 .6 15-.5-6-2-13-1.2-18.5-4.6 5.6-2.8 11.2 2.4 16.9.5-5.6-2-13.7 0-16.9-6.2 4.9-.5 9.5 1.6 14.1 2.8l-.3-2c-4.7-2-8.3-5.9-12.5-8.4-4.1.8-8.2 2-12.4 1.2 5.6-3 12.6-2.9 17.6-7.1l.5-2.3c-7.6 2-15.1 5-23 4.5 5.7-4.5 14-2.4 19.7-6.7-3-.3-6-.1-8.9-.2l-11.5-.7c6.1-1.2 12.5.3 18.6-1.3q-7.2-1-14.5-1c-2.4-.2-5.8.1-6.5-2.9 4.6-.6 9.4 0 14-.2-3.5-2.8-8-4-12-5.6-4.1-1.8-7.8 2.3-12 1.8q6.9-3.7 13.3-8l-2-1c-5.5 1.8-10.4 5.2-16 6.9l.5-2.2c4.6-2.3 9.6-3.6 14-6.2-6.4 0-12.3 3.3-18.7 3.4l2-1.7c5.9-2 12-2.3 17.8-4.6q-2.6-1-5.3-.5-7 1.6-14.1 2.6l.9-2.8q5.6-.4 11-1.8c-5.3-1.2-10.8-1.8-16-3.6l-1.3-2.2c5.7 0 10.8 2.7 16.5 2.7-5.1-3.4-10.9-5.6-16-9q-1.6-1.4-2.5-3.4c9.9 3 18 10 27.6 13.6-2.4-4.3-7-6.6-10.6-9.7-3.3-2.8-6.8-5.6-9.1-9.4 4.1 0 7 3.2 10 5.6 3.6 3 6.9 6.5 10.6 9.5-2.7-8-10.3-13-14.4-20 6.4 1.7 9.1 8.5 14.2 12.3-1.7-5.6-7.3-8.9-9.3-14.4m16.7 32.6c-.1 1.1-.1 2.4 1 3.1 4.5 4.3 9.1 8.7 14.8 11.5-3.1-4.9-7.8-8.4-11.6-12.7-1.2-1-2.4-3-4.2-2m-5.6 5.9c4 2.9 8.3 5.7 13.2 7q-4.6-4.8-10-9zm26.2 20c4.8 5.3 8 12 13.2 17q-.6-3.4-2.5-6c-3.2-4.2-5.7-8.7-8.5-13.1zm-5.4 5.2c4 3 8 6 12.4 8.6q-4.4-6.1-9.1-12c-1 1-4 1.5-3.3 3.4m23.5 22.9c-.8 2.8.8 5.7 1.2 8.5 1 3.9.4 8.5 3.3 11.7q-.2-10-2.2-19.8zm-7 3.7a116 116 0 0 0 6.8 10q-1.2-6-3.6-11.8zm-9.3.7a170 170 0 0 1 12.3 11.1c-1.5-4.1-3.1-8.5-6.4-11.6q-3 0-5.9.5m17.2 27.5c1.5 5 3.7 9.9 5 15l1.5.7c-1.2-5.4-1.3-11-1.4-16.5zm7.6 34.4a84 84 0 0 0-.7 18c2.5-2.8 2.9-6.5 3.9-9.8q1.5-5 3.3-9.7-3.3.4-6.5 1.5m-9.8 36.1c-.6 4.8.3 9.6.7 14.4q1.8-6.4 4.3-12.5zm-7.6 30.2a36 36 0 0 0-3.2 10.3c2.1-2.2 4.4-4.5 5.6-7.3.2-1.5-1.5-2.1-2.4-3m-25 35c3.6-2.5 7.2-5 10-8.5l-2.4-2.2a39 39 0 0 0-7.6 10.8m-18 7.2c-2.7 2.5-4.3 5.9-6.6 8.7a32 32 0 0 0-3 5.3 14 14 0 0 0 4.6-2.8l3.3-4c1.5 1.3 4.5-1 3.3-2.7l1-.2c-.7-1.5 0-5-2.6-4.3m-45.2 29c4.8-2.4 7.2-7.8 9-12.6-4.5 2.9-7 7.9-9 12.6m16.2-5.7c-1-1.5-3.7.2-2.9 1.8q-2 1-3.6 2.6 6 0 11.4-2.8L472 386zm-35.7 9a10 10 0 0 0-2.9 4.5c3.2-1.9 6-4.4 8.7-6.7 2-1.8 5-3.4 4.2-6.6zm12.1-4.5c-1.3 1.1.6 3.5 1.9 2.1 1.3-1.1-.5-3.5-1.9-2.1m11 6.3c7.8-1.5 15.8-3 23.4-5.7a5 5 0 0 0-4.9-.8c-6.4 1.6-12.9 3.2-18.6 6.5m-15-3c-1.9.3-1.7 3.7.4 2.8 1.9-.4 1.7-3.8-.4-2.9m-5.7 7.4h8l-.2-2.6z" fill="#359336" id="path5"/><path d="M498.2 133c1.8-.5 3.6-.1 5.3.3-5.7 2.3-12 2.8-17.8 4.7l-3.1-4.1 2.4-1.2-1 2.8q7.2-1 14.2-2.6" fill="#9fd692" id="path6"/><path d="M302.2 135.4c1.5.3 1.2 2 1.6 3-5.5 4-10.4 9.1-16.3 12.5q2.2-3.8 5.7-6.7c3.2-2.8 5.4-6.5 9-8.8" fill="#dbfeea" id="path7"/><path d="M512.4 135.5c1.8-1.2 3 1 4.2 2 3.8 4.2 8.5 7.7 11.6 12.6-5.7-2.8-10.3-7.3-14.8-11.5-1.1-.7-1.1-2-1-3.1" fill="#defee3" id="path8"/><path d="m506.8 141.3 3.3-2q5.1 4.2 9.9 9c-5-1.3-9.2-4.1-13.2-7" fill="#e6fff8" id="path9"/><path d="m312.1 145 4-1.6c2.9.9 6 1.8 7.5 4.5-4-.5-7.6-2-11.5-3" fill="#86b0a8" id="path10"/><g fill="#4e8151" id="g15"><path d="M262 159.6c.2-3.7 1.7-7.3 4.3-9.9 1.1 4.7-1.9 9-2.8 13.4l1.4 2.4-1.6 4.8q-.8-5.4-1.2-10.7" id="path11"/><path d="M502.7 157.5q1-.9 2.3-1.5l11.5.7a33 33 0 0 1-13.8.8" id="path12"/><path d="M278.2 298.4c.2-1.5 1.6-2 2.7-2.8-.9 6.6-4 12.7-4.6 19.4l1.3-.1c1.4.1 2.4-1.1 2.7-2.4 1.8-4.2 2.9-8.7 4.7-12.9.5 7.6-3.2 14.8-6.6 21.3l-.5-3q-2.3-1.8-4-4.2c-1.4-2.4-.6-5.3-.3-8l.4 5.1c2-4 2.9-8.3 4.2-12.4" id="path13"/><path d="M527.4 322.7c-.5-2.3.4-4.3 1.7-6l.8 4.3c.7 4.1 1.4 8.5-.3 12.4a56 56 0 0 1-2.2-10.7" id="path14"/><path d="m459.6 407 4-.5q5.6.4 11 .2l8 .8c-7.7 2-16.2 1.8-24-.5z" id="path15"/></g><path d="M290.1 156.9c7.5-.6 14.9 1.4 22.3.1l-.3 1.3c-7 .5-14.1-.3-21.1-.9z" fill="#789d9b" id="path16"/><g fill="#d1ffc3" id="g23"><path d="M280.4 160.4q1.5.4 2.8 1.2-3.4 4.5-6.6 9.1c-1.9 2.8-3.6 6-6.7 7.6.8-3.2 2.8-6 4.7-8.6 2-3 3.6-6.4 5.8-9.3" id="path17"/><path d="m270.4 294.8 2.5-1c-1.5 6.9-.6 14-2 20.7-2.4-6.4 0-13.1-.5-19.7" id="path18"/><path d="M373 388q3.7 2.2 6.8 5.2c2.7 2.4 5.9 4.5 7.4 7.9-4.4-1.7-7.4-5.4-11-8.4q-2.3-2-3.2-4.8" id="path19"/><path d="m434.5 396.6 10-8.9c.8 3.2-2.2 4.8-4.2 6.6-2.8 2.3-5.5 4.8-8.7 6.7q.9-2.6 3-4.4" id="path20"/><path d="m374 398.5.8-4.4q2.4 2 4.4 4.4z" id="path21"/><path d="m374.2 400.1 6 2.5H373z" id="path22"/><path d="M436.8 402.7q3.9-1.5 7.8-2.6l.3 2.5z" id="path23"/></g><g fill="#d3fdd5" id="g26"><path d="m533 161.3 2.2-2.1c2.8 4.4 5.3 9 8.5 13q2 2.9 2.5 6c-5.2-4.9-8.4-11.6-13.2-17" id="path24"/><path d="M563.3 189c.6 3.5.9 7.3 2.6 10.6q-.9 3-2.2 5.7c-.3-5.5.2-11-.4-16.4" id="path25"/><path d="M336.6 392.4c2.3-.2 4.7-.6 7 0 6 1.6 12.2 3 17.6 6.2-5.1-.4-10-1.7-15-3-3.2-.8-6.7-1.3-9.6-3.2" id="path26"/></g><path d="M527.6 166.4c-.6-1.9 2.2-2.4 3.3-3.5l9 12q-6.3-3.8-12.3-8.5" fill="#f6fef2" id="path27"/><path d="M284.6 164.5c1.5-.5 3.1.4 4.7.7a19 19 0 0 1-9.8 7.6q1.5-4.8 5-8.3" fill="#eefef7" id="path28"/><g fill="#110a0b" id="g32"><path d="M491.4 179.4a35 35 0 0 1 17.3-2.8q-4.7 11.4-6.1 23.7c-1.6 9 .8 18.6-3.3 27-2.5 5-5.1 10-9.2 13.8-2.3 2.6-5.7 3.8-8.4 6-1 2.6 1.5 4.7 2.2 7 3.4 9.4.9 20 4.5 29.4 1 3.3 3.8 5.6 6.1 8 2.6 2.5 6.6 3.2 8.9 6.1q.6 4.5.2 9.1c-4.5 6-6.5 13.3-7.7 20.5a42 42 0 0 1-9.7-9 33 33 0 0 0-13.1 7.1c0-3.8 1-7.6.7-11.5-3.4-.5-6.7.7-10 1.1 1.2-5 7.1-4.8 10.4-7.8 3.1-2.7 8-3 10.1-7-7.3-1.1-14.7-3-21.2-6.8-.9 2-1.1 4.5-3.2 5.6-4 2.8-9 1.4-13.6 2 1.6 4.8 6.4 7.9 7.6 13-3.4 2-7.5 1.5-11.1 2.9a27 27 0 0 0-11.4 7.7c-4.7.3-9.4.9-13.5 3.2l1.3-5.5c-4.8-3.6-9.8.4-14.2 2.5 1.1-4 3.4-7.5 4-11.6-1.7-2.1-4.3.4-6.3.7 1-5 6.7-5.5 10.6-7.4 4.7-.5 9.3 2.7 14.1 1 2-5.6-4.2-8.8-5.6-13.5-.9-3.2 1.3-6.2 2.1-9.3Q407 291 389 291.2c-4-.2-8.2-.4-12-1.7-1.6 1.2-3 3.1-5.2 3l-16.8.8c-1.3-1.8-.7-4.4-1.4-6.5q0-3.3.2-6.5c3.5-2.8 1.6-7.2.6-10.7-1.5-4.6-1.3-9.6-2.8-14.3-1.6-3.9-4.8-7-5.5-11.4q-1.4-8.2-6-15.1c-2-3.3-5.8-6.1-5.4-10.5l5.3-1-5.3-2.2 4-1.8-7-.3 3.3-3q-4.5.7-9 1.9c.4 2 .9 4 2.4 5.6q-4 .5-7.9 1.2l-2-3.6a7 7 0 0 1-7.2.6l.2-2.7-3.5 1q2.2-1.5 3.7-3.7l5.2.1q-.3-3.3-.3-6.7c3.1-.9 6.5-1.1 9.5-2.4 2.2-1.7 4-3.7 6.7-4.7 6.2-2.8 13.7-.5 19.6-4.2 3-1.3 5.1 2 6.1 4.3 2.7.4 6.2-.2 7.9 2.5.3 1.9-1 3.7-1.3 5.6 5.6 7.1 9.7 15 14.3 22.8 5.7 3 12.2 4 17.8 7.3 4.7 2.4 10 5.1 15.5 3.9 8.7-1.6 17.3-4.6 26.3-4.6 8-.9 16 .3 24 1.2 2.2-.5 5.2-1.1 5.8-3.8 2.3-8 3.5-16.2 6.8-23.9 2.3-6.8 5.8-13.2 8-20.1 1.4-3.6 4.2-6.7 7.8-8.2m-1 3.8c-1.4 2.3-4.4 3.4-5 6.3q-1.6 7.4-6 13.6l4.3.6-.3-2.7q1.3 1.3 2.2 2.6l-2.4 2.4 3.2 2.3 2-3.5-.8-.9q2.1-3.6 4.8-6.9l-2.4-2.5c1.2-.3 2.5-.1 3.7-.2l-1.1-1q2-2.2 3.5-5l-1 .4-1-1.5q.3-2.2.9-4.3-1.8.6-3.3 1.4zm-156.9 18.3-.2 3.5 2.2-.3.2-3.4zm143 9.4 2.8 2.2a28 28 0 0 0-3.8 3.7l5.9-2c-.6 2.6-3.6 2.9-5.6 4l-.6 2.1q4-1.9 8.1-3.6 1.1-3.5 3-6.5c-1.3-2.1-2.4-4.7-5-5.6q-2.2 3-4.8 5.7M368.1 244l.1 2.5 7.3-2 .2-2.3q-3.9.8-7.6 1.8m-2.8 7c3.4-1.2 7-2.2 10.2-4.1-3.6.5-7.7 1.1-10.2 4.2m0 3a13 13 0 0 0 7.3-3.5c-3-.2-5.3 1.7-7.4 3.5m2 1.8-.9 1.1c.9 3 4.3-1.8.9-1.1m84.5.6q2 4 5.6 6.5c-1-2.7-2.7-5.4-5.6-6.5m-1.2 2.9c.6 2.6 4.2 4 3.7 6.7-2.7 0-3.6-3.6-6-4.6q2.7 3.4 5.7 6.6c-3.2 2.2-4.2-3-7-3.9l7 9.3.9-.9-1.1-2c1.2-1.6 1.4-3.8 2.6-5.4-2-2-3.6-4.1-5.8-5.8" id="path29"/><path d="M488.4 188.3c3.2-.7-.6 3.6-2 2.2-1-1.3 1-2 2-2.2" id="path30"/><path d="m478.9 211 4-2.6 1.5 3-2.5-.7-.7 2.7q-1.5-1-2.3-2.5" id="path31"/><path d="m340 281.5.8-.3q-.7 6.3.1 12.7c-5 .5-10 .4-15.1.9-4.5 2.2-8.6 5.6-13.8 6-2.5 0-3.9 2.5-5.8 3.7v-7c-2.6 1-4.8 3-7 4.7 0-3.7 1.6-7.1 2.5-10.6q-2.9.4-5.6 1c1-3.7 3-7.4 7.1-8.1 7.7-.5 15.5.7 23.1-.7q3.3-.5 6.7-.8t7-1.5" id="path32"/></g><path d="M272.8 183.1c6-3.6 13.2-3 19.6-5.3l-1 1.9 1.7 1.4q-8-.1-15.6 2.8l6.4.4q-1.9.9-4 1.6c3.5 0 7-.2 10.3 1.3-3.4 0-6.8.2-10.2-.3-2.7-.5-4.9-2.3-7.2-3.8" fill="#9cd490" id="path33"/><path d="M277.5 184q7.6-3 15.6-2.9h1.2a8 8 0 0 1-5.6 1.9q-2-.1-4 1l-.8.3q-3.1 0-6.4-.4" fill="#4c8b51" id="path34"/><path d="M284.8 184a6 6 0 0 1 4-1c-.1 1.7-3 2.1-4 1" fill="#72aebd" id="path35"/><g fill="#fbf9fa" id="g40"><path d="m490.4 183.2 1.3 1q.4.6.9.8l-2.1 3.5 3.6-1.3 1 1.5q-4 1.5-7.8 3.7l5.3.9 1.1 1q-1.9-.1-3.7.2l-2.4.8 1.8 3.2-3.8 3.4 2 2 .9.9q-1.2 1.6-2 3.5l-3.3-2.4 2.4-2.3q-1-1.4-2.2-2.6l.3 2.7-4.3-.6c3-4 4.8-8.8 6-13.6.6-2.9 3.6-4 5-6.3m-2 5.1c-1 .1-3 1-2 2.2 1.4 1.4 5.2-3 2-2.2m-2.2 4.9q.9.9 0 0m0 3.2c-1.6 3 3.4.2 0 0m-3 1.8c.3 3.4 3-1.6 0 0" id="path36"/><path d="m333.5 201.5 2.2-.2-.2 3.4-2.2.3z" id="path37"/><path d="M365.2 254.2c2-1.8 4.5-3.7 7.4-3.5q-3.2 2.9-7.4 3.5" id="path38"/><path d="M451.7 256.6c2.9 1 4.6 3.8 5.6 6.5q-3.6-2.6-5.6-6.5" id="path39"/><path d="M450.5 259.5q3.1 2.7 5.8 5.8c-1.2 1.6-1.4 3.8-2.6 5.4l1 2-.8 1-7-9.4c2.8.9 3.8 6 7 4q-3-3.3-5.7-6.7c2.4 1 3.3 4.5 6 4.6.5-2.7-3.1-4.1-3.7-6.7" id="path40"/></g><path d="m491.7 184.3 3.3-1.4-1 4.3-3.5 1.3 2-3.5z" fill="#868188" id="path41"/><path d="m255.7 189 3.7-1c-.5 7.5-.2 15.1-1.1 22.6-1-2-2-4.3-1.9-6.7 0-5-.6-10-.7-14.9" fill="#f7fff1" id="path42"/><path d="M263 188.9c1.3 1.2 3.5 2.4 2.5 4.6-1.4 5.3-1.1 11.3-4 16-.6-6.9 1.6-13.7 1.4-20.6" fill="#ebfdee" id="path43"/><path d="M487.3 192.4q3.7-2.3 7.8-3.7l1-.3q-1.5 2.6-3.5 4.9z" fill="#827e7f" id="path44"/><path d="m551 189.3 2.4.3a104 104 0 0 1 2.2 19.9c-3-3.2-2.3-7.8-3.3-11.7-.4-2.9-2-5.7-1.2-8.5" fill="#d6ffe4" id="path45"/><g fill="#fbfcf4" id="g47"><path d="M268.9 191.8c.9.7 2.6 1 3 2.2-.4 2.4-2 4.4-3.4 6.3l-.3-5.3z" id="path46"/><path d="m338 276.3 2.4-3-.4 8.2-2.4-.9-.5-1.2z" id="path47"/></g><path d="M527.3 193c2.4-2.4 6-1.4 9-1q-4.5 1-9 1" fill="#8fbd38" id="path48"/><path d="m544 193 3.3-1.8q2.4 5.8 3.6 11.8a116 116 0 0 1-6.8-10" fill="#eefff7" id="path49"/><path d="M486.2 193.2q.9.9 0 0" fill="#292627" id="path50"/><path d="M534.8 193.7q3-.6 6-.5c3.2 3 4.8 7.5 6.3 11.6q-5.9-5.8-12.3-11.1" fill="#ecfdf9" id="path51"/><path d="M266 203.5q0-4.6 2.2-8.5 0 2.7.3 5.3c.5 1.7-1.6 2.2-2.5 3.2" fill="#95c977" id="path52"/><path d="m487.6 195.3 2.4-.8 2.4 2.5a72 72 0 0 0-4.8 7l-2-2 3.8-3.5z" fill="#797675" id="path53"/><path d="M486.1 196.4c3.5.2-1.5 3 0 0" fill="#444041" id="path54"/><path d="M483.3 198.2c3-1.6.2 3.5 0 0" fill="#312b2d" id="path55"/><g fill="#c9c4c2" id="g57"><path d="M476.5 210.9q2.6-2.7 4.8-5.7c2.6.9 3.7 3.5 5 5.6q-1.9 3-3 6.5-4.1 1.7-8 3.6c0-.5.3-1.5.5-2 2-1.2 5-1.5 5.6-4.2l-6 2.1q1.8-2 3.9-3.7zm2.4 0q.8 1.5 2.3 2.5l.7-2.7 2.5.8-1.6-3z" id="path56"/><path d="M325.8 294.8c5-.5 10-.4 15.1-1q.7 5.3 1.8 10.5a20 20 0 0 1-2.2-9.3q-7.4-.6-14.7-.2" id="path57"/></g><g fill="#fcfcfd" id="g59"><path d="M326 211.9q4.5-1.2 9-2l-3.3 3.1 7 .3-4 1.8 5.3 2.3q-2.7.3-5.3 1l-4 .9-2.3-1.8a10 10 0 0 1-2.3-5.7" id="path58"/><path d="m368 244.1 7.7-1.8-.2 2.3-7.3 2z" id="path59"/></g><path d="m328.4 217.5 2.2 1.8q5.4 6.8 9.9 14.3c3 5.3 2.8 11.7 6 16.9q3.2 4.6 4 10c1 6.7 3.4 13 3.3 19.8q-.4 3.2-.2 6.5c-.9 9.2 2 19.6-3.8 27.7-4.1-1.8-5.9-6.3-7-10.2l-1.9-10.4q-.8-6.4 0-12.7l1.2-6q.9-10.8.3-21.6H339c-1.7 7.5.7 15.2-1 22.7l-.8 3a75 75 0 0 1-4.5-18.2c-.1-3.4.5-6.7.6-10-1.3-4.4-5.2-7.7-5.6-12.3-.2-3.8.3-7.5.3-11.2-1.9.7-4.3 1-5.3 2.8-1 5.5.4 11 2 16.1 1.6 3.9-.2 7.8-1.7 11.4-3 5-2.7 11-3 16.7l-1.4 1.7a47 47 0 0 1-.6-14.3 20 20 0 0 0-.9-10c-1.6.5-1.7 2.3-2.2 3.7q-.7 2.7-2 5.2c-2.3 3.2-3.5 7-2.6 11l-2.9 1.2.4-9.6c-.5-3.8-4.3-6.3-6.3-9.4 4.9-9 4.4-20 9.8-28.7a15 15 0 0 1 9.3-6.7l7.9-1.2" fill="#fc0812" id="path60"/><path d="m330.6 219.3 4-1c-.3 4.4 3.4 7.2 5.5 10.5q4.6 6.9 6 15.1c.6 4.3 3.8 7.5 5.5 11.4 1.5 4.6 1.3 9.6 2.8 14.3 1 3.5 2.9 7.9-.6 10.7.1-6.8-2.4-13.1-3.3-19.8-.4-3.6-2-7-4-10-3.2-5.2-3-11.6-6-16.9-2.8-5-6.4-9.7-9.9-14.3" fill="#d6685f" id="path61"/><path d="m552 221.2 5-.8c.2 5.5.3 11 1.5 16.5l-1.5-.7c-1.3-5.1-3.5-10-5-15" fill="#edfdee" id="path62"/><path d="M259.8 221.6c1.6 0 3.6-.4 4.7 1.2-1.7 5.1-3 10.4-5.2 15.3q.4-8.2.5-16.5" fill="#f9fef3" id="path63"/><path d="M322.6 230.4c1-1.9 3.4-2 5.3-2.7 0 3.7-.4 7.4-.3 11 .4 4.7 4.3 8 5.6 12.3-.1 3.4-.7 6.7-.6 10.1l-9.9 1.2q0-2.3.2-4.4c1.5-3.6 3.3-7.5 1.8-11.4a33 33 0 0 1-2.1-16.1" fill="#fcfdfb" id="path64"/><g fill="#e3ffd8" id="g68"><path d="M542.9 228.9c3.5 6.5 11 9.6 14.3 16.2-6.2-3.3-10.3-9.1-15.4-13.7z" id="path65"/><path d="m274.9 295 1.5 3.2 1.8.2c-1.3 4.1-2.2 8.5-4.2 12.4l-.4-5q1-5.4 1.3-10.9" id="path66"/><path d="M254.5 333.8c4.4 4.1 9.8 6.9 14.5 10.5-5.6-1.4-10.5-4.6-15.4-7.5z" id="path67"/><path d="M457.5 398.4c5.7-3.3 12.2-5 18.6-6.5a5 5 0 0 1 4.9.8c-7.6 2.7-15.6 4.2-23.5 5.7" id="path68"/></g><g fill="#76ab7c" id="g70"><path d="M266.6 243.5c5.2-.1 8.5-5.3 13.7-5.7q-1.3 2.5-3.6 3.8c-4.3 2.7-8.3 6-13.2 7.4q1.3-3 3-5.5" id="path69"/><path d="M549.2 343.6c2.7-4 7.2-6 11.3-8q3.1-.1 6.4.1a17 17 0 0 1-6.2 6q-9 4.7-19 6.2c2.8-.8 5.8-1.8 7.5-4.3" id="path70"/></g><g fill="#f8fdf4" id="g72"><path d="M365.3 251.2c2.5-3 6.6-3.7 10.2-4.2-3.1 2-6.8 2.9-10.2 4.2" id="path71"/><path d="M547.8 325.8c2.7-3.2 7-3.4 10.8-4.4l1.4 2.2c-9.1 4-15 12.7-23.5 17.6a98 98 0 0 1 11.3-15.4" id="path72"/></g><path d="M314.8 255.7c.5-1.4.6-3.2 2.2-3.7 1.4 3.2 1.2 6.7 1 10l-1 .3-.2-8z" fill="#ea816c" id="path73"/><path d="M339 253.6h1.4c-1 6.6.3 13.2 0 19.8l-2.4 2.9c1.6-7.5-.8-15.2 1-22.7" fill="#e67466" id="path74"/><path d="M340.4 253.6h2q.6 10.8-.3 21.5l-1.7-1.7c.3-6.6-1-13.2 0-19.8" fill="#3e0200" id="path75"/><path d="m251 254.4 6.8 2.1q1 8.9.4 17.6a8 8 0 0 1-2.2-4.1c-1.4-5.3-3.4-10.4-5-15.6" fill="#f9fdf8" id="path76"/><path d="m314.8 255.7 2-1.5.2 8-3.2.7-1-2q1.3-2.4 2-5.2" fill="#ffe6f8" id="path77"/><path d="M559.6 255.6q3.1-1.1 6.5-1.5c-1 3.2-2.4 6.4-3.3 9.7-1 3.3-1.4 7-3.8 9.7q-.7-9 .6-18" fill="#fcfef6" id="path78"/><path d="M367.2 256c3.4-.7 0 4.2-.9 1.1z" fill="#868083" id="path79"/><path d="M319.8 274.6c.4-5.6.1-11.6 3-16.7v4.4a88 88 0 0 1-1 13.6z" fill="#df7167" id="path80"/><path d="M310.2 271.9c-.9-4 .3-7.7 2.6-11l1 2 .3.4c-1.5 2.8-2.4 5.8-4 8.6" fill="#d76e63" id="path81"/><g fill="#120a0b" id="g83"><path d="m322.7 262.3 9.9-1.2a151 151 0 0 0 2.7 12.6l-5.6 1q-3.9.8-7.8 1.2 1-6.7.8-13.6" id="path82"/><path d="M297.4 269.4c1.4-4.3 6.6-5 10.3-5.9l-.4 9.6 2.9-1.2c1.5-2.8 2.4-5.8 3.9-8.6l2.1 2q.2 5.8-.2 11.5c-5.7 2.5-12.2 2.8-17.6 6v-2.7l-3.3.5c1.1-3.7 1.5-7.5 2.3-11.2" id="path83"/></g><path d="m313.8 262.9 3.2-.6 1-.2a47 47 0 0 0 .5 14.2l.1 1-2.6-.4q.5-6 .2-11.7l-2.1-2z" fill="#871419" id="path84"/><g fill="#f0ffd1" id="g88"><path d="M570 276.6c2.6-3 5-6.5 8.5-8.4a63 63 0 0 1-14.5 15.1q1.6-4.5 4.5-8.2z" id="path85"/><path d="M277.6 314.9c-1-1.5 1.4-3.5 2.7-2.4-.3 1.3-1.3 2.5-2.7 2.4" id="path86"/><path d="M289.9 320q1.6 4.2 2.4 8.6-1.1 4.6-3 9c-.5-5.9.8-11.8.6-17.7" id="path87"/><path d="m470.2 387.5 1.8-1.6 3 3.2a24 24 0 0 1-11.3 2.8q1.6-1.6 3.6-2.6 1.7-.5 3-1.8" id="path88"/></g><g fill="#defec7" id="g90"><path d="M559.8 282.3q.7-5.4 2.9-10.3c0 .6.3 1.9.5 2.5l3-2.4a33 33 0 0 1-6.4 10.2" id="path89"/><path d="m479.8 369.6 2-6.6c-.6 5.3-.8 10.6-2 15.7-1.1-3.4-1.3-7-1.6-10.6z" id="path90"/></g><path d="M578 276c-3.1 1.5-2.1-4.4.3-1.7z" fill="#7ba6c7" id="path91"/><path d="m329.7 274.8 5.6-1 1.8 5.6.5 1.2 2.4.9q-3.5 1-7 1.5l2.6-1.4q-.4-3.4-.5-6.8z" fill="#ad7e7a" id="path92"/><path d="m340.4 273.4 1.7 1.7-1.3 6-.8.4z" fill="#fb818b" id="path93"/><path d="M558.2 293.2c2.9-2.7 6.7-4 10-6.3l2.5 3.8-.7-.7-2-1.8c-5.1 5.4-9 11.9-14 17.3 1-4.2 2-8.6 4.2-12.3" fill="#effeef" id="path94"/><path d="M250.6 290h2.3c2.6 1.4 5.8 2.2 7 5 1.9 3.9 3 8 4.2 12.2-4.6-5.3-8.4-11.2-13-16.5z" fill="#f2fef1" id="path95"/><path d="M549.8 291.7q2.6.9 5 2-2.5 6-4.3 12.4c-.4-4.8-1.3-9.6-.7-14.4" fill="#e1ffee" id="path96"/><path d="m263 293.5 4.9-.3-.2 1.5-1.4 8.8a68 68 0 0 1-3.4-10" fill="#f4fdf8" id="path97"/><path d="m266.3 303.5 1.4-8.8q.5 5.6.2 11.2l-2-.3z" fill="#bfd59a" id="path98"/><g fill="#c2fec8" id="g102"><path d="m530 321 2.1-1.9c-.2 6.4.6 12.8.7 19.1l-3-4.4-1 5.2-4-12.8 2.6-3.5q.5 5.4 2.2 10.7c1.6-4 1-8.3.3-12.4" id="path99"/><path d="M304 344.4q.7-2.5 1.8-4.8c-.2 7.8 3.5 15.4 1.7 23.1-1.6-6-2.4-12.2-3.6-18.3" id="path100"/><path d="m331.8 365 2.2-3.1c-.6 7.2 3 14 2 21.2-2.5-5.7-3-12-4.2-18" id="path101"/><path d="M454 393.2c2-4.7 4.5-9.7 9-12.6-1.8 4.8-4.2 10.2-9 12.6" id="path102"/></g><g fill="#edfee4" id="g104"><path d="M542.2 321.9c1 .9 2.6 1.5 2.4 3-1.2 2.8-3.5 5-5.6 7.3q.9-5.4 3.2-10.3" id="path103"/><path d="M517.2 357c2.1-4 4.3-7.8 7.6-10.8l2.4 2.2c-2.7 3.5-6.4 6-10 8.6" id="path104"/></g><g fill="#e2fedf" id="g106"><path d="m272.3 324.8 3.3-1.8c1.5 3.5 3.6 7 3.5 10.9q-3.6-4.5-6.9-9.1" id="path105"/><path d="M291.6 349.6c-1.4-2 1.7-2 2.8-2.7q3.4 5.2 6.4 10.6a35 35 0 0 1-9.3-8" id="path106"/></g><path d="M318 363.8c4.2 4.7 8.2 9.7 10.7 15.5-4.2-3.7-8.7-7-12.4-11.3z" fill="#f7fdf5" id="path107"/><path d="M499.2 364.2c2.5-.8 1.9 2.8 2.6 4.3l-1 .2c-1.5.2-2.4 1.5-3.2 2.6l-3.4 4.1-1.6-2.5c2.3-2.8 4-6.2 6.6-8.7" fill="#f5fdfa" id="path108"/><path d="M497.6 371.3c.7-1.1 1.7-2.4 3.2-2.6 1.2 1.7-1.8 4-3.3 2.6" fill="#95bb37" id="path109"/><path d="M503.3 370.8c.5-1.3 2.5-1.8 2.8-.1z" fill="#64aca7" id="path110"/><path d="M310 372.6q1.9-.9 3.9-1.5 2.5 1.5 4.6 3.4c4.7 4 10 7.3 13.9 12a85 85 0 0 1-22.3-13.9" fill="#f3fef1" id="path111"/><path d="m503.3 370.8 2.8-.1 1 2.4c-4 3.3-8.4 6-12.4 9.4-2 1.6-4 3.4-6.7 3.7l-2.6.3c3-3.6 6.8-6.5 10.5-9.5l5-4.1z" fill="#ccedcd" id="path112"/><path d="M489.6 378.2q1.2-2.8 3-5.3l1.6 2.5a14 14 0 0 1-4.6 2.8" fill="#9bdc89" id="path113"/><path d="m495.9 377 5-4.1z" fill="#6fa1a4" id="path114"/><path d="M304.5 379c-2.4-1 1.9-3.3 1.5-.7z" fill="#d3da78" id="path115"/><path d="m347.7 376.5.5.8c3 4.2 6.3 8.2 8.8 12.7-3.6-2-7-4.6-10.3-7z" fill="#e9feed" id="path116"/><path d="M345 386.2q6.6 2.8 12.1 7.5-6.8-1.5-13.3-3.8z" fill="#e5ffed" id="path117"/><path d="M467.3 389.3c-.8-1.6 2-3.3 3-1.8q-1.3 1.4-3 1.8" fill="#5fb5a4" id="path118"/><path d="M369.5 392.2c1.3-1.1 3.3 1.1 2.1 2.3-1.3 1.1-3.2-1-2-2.3" fill="#7cdd73" id="path119"/><path d="M446.6 392c1.3-1.3 3.2 1 1.9 2.2-1.3 1.4-3.2-1-1.9-2.1" fill="#76d66f" id="path120"/><path d="M442.5 395.3c2-1 2.3 2.5.4 2.9-2.1.9-2.2-2.5-.4-2.9" fill="#bcf2a5" id="path121"/><path d="M474.6 406.7c3-1.3 6.6-1.3 9.1 1l-1-.2z" fill="#b1c95a" id="path122"/><path d="M433.1 414.6c4.6 1.2 9.2 2.2 14 2h1.2c-2.9 2.2-6.4 1-9.6.6l-1 2.5-3.1-1.1z" fill="#92c8ac" id="path123"/></g><!-- app4joy --></svg>