<svg xmlns="http://www.w3.org/2000/svg" id="svg12" width="630" height="420" viewBox="0 0 630 420"><g id="g13"><path id="path1" d="M0 0h630v420H0z" fill="#283595"/><path id="path2" d="M0 0h630v240H0z" fill="#fdf100"/><path id="path3" d="M0 0h630v180H0z" fill="#ec1a23"/></g><g id="g12" stroke="#000"><path id="path4" d="m38.8 156.7.1-48h-2l.2-3.7h1.7l.1-18h2.2l.2-19.5-6.4-8.5-.1-18.2h8.7V50h4.4v-9.2h8.2v9h3.7l-.2-9.1H69v18L62.3 68l.2 18.9h15.4v11.7h5L82.7 87h16v11.7h5.4V87.1h16.4v11.7h5.3V87.1H141l-.1-19.2-6.7-9.4V41h8.8v9h4.5v-9h8l.1 9h3.8v-9h8.8v18l-6.2 9v19h2.6l.1 18.2h1.3v3.4h-1.4l.1.1v48.7l-48.8-.3V123l-.2-3.3-1.3-3.7-3.1-2.9-3.6-2.6-4.6-1h-4.3l-4.5 1-3.2 2.9-2.8 3.3-1.3 3.6-.1 2.3V157z" fill="#fff" stroke-width=".905"/><path id="path5" d="M62.4 86.9h-1v12H56V87H41m100 .1h1v11.8h5V87.1h15.2m-39.5 70-.1-3.2h-6.7 7.4v-4.3h-7.5 6.5V145H116l7.2-.2v-3.7h-7.3 6.4v-4.4h-6.4 7.4v-4.5h-7.5 6.5v-4.6h-6.5 7.4v-4.4h-7.4 5.5v-5.5l-5.6 2.1 6.9-2.6-2.9-5-5.6 4 4.4-3.2-3.3-4-4.2 3.8 5.4-5-5-3.7-3.3 6.3 2.7-5.3-6-1.4-1.5 5.7 1.9-7.3h-4m-21 54.5v-2.8H87h-7.5v-4.3h7.6-6.6V145h6.3l-7-.2v-3.7H87h-6.4v-4.4H87h-7.4v-4.5H87h-6.5v-4.6H87h-7.5v-4.4H87h-5.5v-5.5l5.6 2.1-6.8-2.6 2.8-5 5.7 4-4.4-3.2 3.3-4 4.2 3.8-5.5-5 5.1-3.7 3.2 6.3-2.7-5.3 6.1-1.4 1.5 5.7-1.9-7.3h3.9m63.4 6.5-49.3.1m49-3.6-51.7.1m-74.2 3.5h48.6M39 105l50.9.2" fill="none" stroke-width=".905"/><path id="path6" d="M95.3 99v5.3m-12.3-5v5.7m-12.3-5.8.1 6.4m-12.6-6.3v6m-11.8-6v5.6m61.2-5.8-.1 5.2m12.4-5v5.7m12.2-5.8v6.4m12.6-6.3v6m11.7-6v5.6m-79 48.8v3.6m-13.2-3.6v3.4m6.8-9.6.1 6.2m6-12.2v6.1m-12.7-6v6m-6.2.2v6m-6-.1.1 3.4m-6-9.5v6m6-12.1-.2 6.2M46.2 136l-.1 5.7m12-5.9v5.9m12.6-5.9.2 6m6.3-12.4v6.3m-6.5-12v5.6m6.3-11.7.1 6.1m-12.8-6.1.1 6.2m-12.3-6v5.7m-5.9-12v6.3m12-6.3-.2 6m12.8-6v6.2m6.3-9v2.6m-12.6-2.4v2.4m-12.4-2.4.1 2.6m12.1 18v6.2m-12.2-6.3v6.4m-5.6-12.3v5.8m11.6-5.7.1 6m67.3 24.1v3.6m13.2-3.6v3.4m-6.8-9.6-.2 6.2m-6-12.2v6.1m12.7-6 .1 6m6.2.2-.1 6m6-.1v3.4m6-9.5v6m-6-12.1.1 6.2m6-11.7v5.7m-12-5.9v5.9m-12.6-5.9-.1 6m-6.3-12.4v6.3m6.4-12v5.6m-6.3-11.7v6.1m12.7-6.1v6.2m12.2-6v5.7m6-12v6.3m-12-6.3.1 6m-12.7-6v6.2m-6.3-9-.1 2.6m12.7-2.4-.1 2.4m12.4-2.4v2.6m-12.2 18v6.2m12.3-6.3v6.4m5.6-12.3v5.8m-11.7-5.7v6M89.2 93.2v6m-24.2-6v6m-12.4-6.1v6m61.5-6v6m24.3-6v6m12.3-6v6.2m13.8 54.2-41 .3m41.1-6.3h-42m42-5.9H123m41.4-5.8h-41m41-6.4h-42.1m42-6-41.1.2m41-5.9-42.6-.1m43-6.2-47.3-.1m-78.5 42.2 40.4.3m-40.5-6.3h41.5m-41.5-5.9h41M38.8 136h40.3M39 129.5h41.5m-41.5-6 40.6.2M39 117.8l42-.1m-42-6.2 46.4-.1m22.4-24.5v6.5m24.6-6.5v6.5m24.5-6.5v6.5m-61.6-6.5v6.5m-24.6-6.5v6.5m-24.5-6.5v6.5M39 99.3h126m-17.7-6h17.5m-38.8 0h15.7m-37.1.1h15.7m-37 0h15.6m-37.4 0 16.8-.3m-39.3.4 16.7-.2m.4 4.4 5.6-.1m-5.8-4.8 5.6-.1m-5.6-4.4 5.6-.1m-4.3-.1.1 4.8m-5.6-9.3.1 3.2m-.1-12.7v4.7m0-14 .1 4.3m5.4 9.6v4.8m-11-4.7.1 4.8M57 69.2V74m-11-4.7.1 4.8m11-14.2v4.8m-11-4.7.1 4.8m16.2-9.1V60m-10.8-4.7.1 4.4m-11-4.2V60m16.4-9v4.3m-11-4.3.1 4.4m16.5-9 .1 4.3m-11.1-4.4v4.4m-11-4.4.1 4.4m.5 33 21-.2m-21-4.5 21.2-.2m-21.1-4.7 21.1-.2m-21.3-4.5 21-.2M39.6 65l25.3-.2M35.5 60l32-.2m-32.6-4.2 34-.2M35 51l34-.2m-9-4.4h5.9l2.8-.1m-21 0 8.7-.1m-21.5.3 8.7-.1m103.7 51.4-5.6-.1m5.8-4.8-5.6-.1m5.6-4.5h-5.6m4.3-.1-.1 4.8m5.6-9.3-.1 3.2m.1-12.7-.1 4.7m0-14V69m-5.4 9.6v4.8m11-4.7-.1 4.8m-10.8-14.4-.1 4.8m11-4.7V74m-11-14.2v4.8m11-4.7-.1 4.8m-16.2-9.1V60m10.8-4.6-.1 4.4m11-4.2V60M146 51v4.3m11-4.3-.1 4.4m-16.5-9-.1 4.3m11.1-4.4v4.4m11-4.4-.1 4.4m-.5 33-20.8-.2m20.8-4.5-20.8-.2m20.7-4.7-20.7-.2m21-4.5-21.2-.2m22.8-4.2-24.9-.2m28.8-4.8-32.2-.2m33-4.2-34.1-.2m34-4.5-34-.2m9-4.4h-5.9l-2.8-.1m21 0h-8.2m21 .2-8.7-.1" fill="none" stroke-width=".452"/><path id="path7" d="M102.3 32.2c9.6 0 10 9.6 3.7 11 2.5-3.3 2.6-5.5 1.9-7.3.1 2-.3 3.6-2.2 3.8 1.4-5.5-3.5-4.9-3.9-5.4z" fill="#ffd211" stroke-width=".173"/><g id="g10" fill="#ffd211"><path id="path8" d="M100.6 22h.5v-1.2h.8V20h-.8v-.9h-.5v.8h-.8v.7h.8zm3.4 10.2 2.2-3.4c4.4-4.7-3.1-8.5-5.3-4.3-2.6-4-9.6-.7-5.2 4.4l2.2 3.2z" stroke-width=".181"/><path id="path9" d="M101.9 23a1 1 0 1 1-2 0 1 1 0 0 1 2 0z" stroke-width=".204"/><path id="path10" d="m95.8 29 10.3-.1m-6.9 3.3h3.5l.1 34.8h-3.5z" stroke-width=".181"/></g><path id="path11" d="M108 54.7c-3.5.4-2.7-4.8 1.6-4 3.2 1.1 5.3 5.3 4.8 8-5.4 29.2-46.7-5.6-15.1-13V47c-11.5 2.6-10.5 22 6 17.4l-.2 2.3c2.7-.1 11.6-9.7 2.4-14.2q-.4.8.5 2.1z" fill="#ffd211" stroke-width=".173"/><path id="path12" d="M99.3 57.2c-2 3-7.3 11.6-11 5.6-.8 2.5 2.5 9.9 11-4.2zm3.5-10.5c3-.3 2 2.2 0 2.2-10.2 1.8-8.7-8.7-5.4-10.8l-2-.9c1.2-1 2.6-3 3.8-2.8v-2.2q-1.9.5-3.5 2.5V32q-4.3 6.3-3.8 9.4c2.3 19.2 24.7 4.2 10.9 4.2z" fill="#ffd211" stroke-width=".173"/></g><!-- app4joy --></svg>