<svg width="215.16" height="142.57" clip-rule="evenodd" fill-rule="evenodd" image-rendering="optimizeQuality" shape-rendering="geometricPrecision" text-rendering="geometricPrecision" viewBox="0 0 215.16 142.57" id="svg127" xmlns="http://www.w3.org/2000/svg"><g id="g128"><path id="rect1" d="M0 0h215.2v142.6H0z" fill="#00A652"/><path id="polygon1" d="M0 59.5h215.2V0H0z" fill="#E40102"/><path id="rect127" d="M0 58.7h215.2v25.2H0z" fill="white"/></g><g id="g127"><path id="polygon2" d="M115.8 37.9h-18v1.3h18z" fill="#DA251D" display="inline"/><path d="M96.5 50.5q5-.6 11.8-.6c3.6 0 7-.2 9.8.4 3.8.7 6.5 1.7 7-.5l-.1-.3 1.7-.8-.9-1-.5-.7.1-.6c1.4.3 1.5-.2 1.4-1q0-.4-.2-.6l-.5-.3 1.6-3.6q.6-.3 1-1 .8.5 1.6.2 1.4-.5 1.1-1.9c1.1-1 .2-3-1.3-3 2-3.2 1.7-7.5 1.1-10-1.3-4.7-5.5-8.4-13.3-8.9v-.1l-1.2-.1-1.2 2q-1.4.3-2.8.3l.2-.8-1.1-.2c-.7.7-2.5 1.4-3.4 1 2-.4 2.8-2.2 2.8-4l-.2-.2q-.1-1-.8-2l-1.3-2.8 2.5 1.1V5.7l-2.5 1.1 1.1-2.4h-4.8l1.1 2.4-2.4-1v4.7l2.4-1-1.2 2.7q-.7.8-1 2c0 2 .8 3.7 2.6 4.2l-.3.2q-1.9-.2-2.8-1.5l-1 .8.2.7q-1.6 0-3.1-.3l-.8-1.8h-1l-.2.2c-8.3.2-13.2 3.8-14.4 8.5a16 16 0 0 0 1.4 10.5c-2.6 0-2.4 1.6-2 3l1.2-.2v.2l2.1 1.1q.5 1.7 2.1 2l.4.1 1.2 2.4-.6.4-.2.2v.4q0 1.6 1.4 1v.1L88.7 48l1.6 1v.2c-.5 3.2 1.2 2.3 6.2 1.4" id="path2" fill="#1F1A17"/><path id="polygon3" d="m90.4 46.7.7.5.7.4-.7.6-.6.5-.7-.4-.7-.5.6-.6z" fill="#F2C12E"/><path id="polygon4" d="m125 47.2.5.7.5.6-.7.3-.8.4-.5-.7-.5-.7.8-.3z" fill="#F2C12E"/><path id="polygon5" d="m107.7 44.2 1.2.7 1.2.8-1.2.7-1.3.7-1.2-.7-1.2-.8 1.3-.7z" fill="#F2C12E"/><path d="M102.4 31.8a46 46 0 0 0-3.6-15H98c1.6 3.7 3 9.1 4 15.2z" id="path5" fill="#FFCC00"/><path d="M111 18.1q-1.4 4-2.2 9.9h-.1l-.1-.1-.2-.1-.3-.1-.2-.1a1.4 1.4 0 0 0 .2-2.5 1.7 1.7 0 0 0 .4-3 2 2 0 0 0 .5-3.1q1.2-.3 2-.9m-4.6 9.9-.2-1.3q.2.7.9 1h-.4l-.2.2zm0-5.9a1.7 1.7 0 0 0 .5 3q-.8.3-.8 1.2-.8-4.9-2.1-8.2.8.6 2 .9a2 2 0 0 0 .5 3.1" id="path6" fill="#FFCC00"/><path d="M107.6 14.2q1.7 0 3 .4v.1q0 .8-.2 1.4a11 11 0 0 0-5.6 0l-.3-1.5q1.4-.4 3-.4" id="path7" fill="#FFCC00"/><path d="M110 16.7a3 3 0 0 1-2.4 1.3q-1.7 0-2.7-1.6a12 12 0 0 1 5.2.3" id="path8" fill="#FFCC00"/><path d="m107.3 8.4-.5 1.1-.8 1.7a4 4 0 0 1 3.1 0l-.7-1.7-.5-1 1.1.4 1.8.8V6.4l-1.8.9-1.1.5.5-1.1.8-1.8H106l.9 1.8.5 1-1.1-.4-1.9-.9v3.3l1.9-.8z" id="path9" fill="#FFCC00"/><path d="M110.4 14q-.1-1.3-1.3-2v2z" id="path10" fill="#FFCC00"/><path d="M106.8 11.7v2.1h1.6v-2a3 3 0 0 0-1.6 0" id="path11" fill="#FFCC00"/><path d="M104.7 14q.1-1.3 1.3-2v2z" id="path12" fill="#FFCC00"/><path d="M112.4 17.9a43 43 0 0 0-3 11.2v-.3l-.2-.3-.1-.1-.1-.1q1-6.6 2.8-10.6z" id="path13" fill="#FFCC00"/><path d="M103.4 17.7q1.6 4.1 2.8 10.4l-.1.1-.1.2-.1.2-.1.3q-1.2-6.5-3-10.8z" id="path14" fill="#FFCC00"/><path d="M107.5 19.2a1.1 1.1 0 0 1 0 2.3 1.1 1.1 0 0 1 0-2.3" id="path15" fill="#FFCC00"/><path d="M107.5 22.4a1 1 0 0 1 0 2.2 1 1 0 0 1 0-2.2" id="path16" fill="#FFCC00"/><path d="M107.5 25.7a.7.7 0 0 1 0 1.4.7.7 0 0 1 0-1.4" id="path17" fill="#FFCC00"/><path d="M96.3 38c-1.3-.4-2.5-2.6-.9-3.5-.8 1.2-.2 2.8 1 3.5" id="path18" fill="#FFCC00"/><path d="m100.6 33.5-.1-.9q-1.6.2-3.1.7l.1.4h.2l.3.3.3.3.3.4.2.4.1.6v1.2l1.8-.3-.1-.2-.2-.1-.2-.2-.1-.3-.2-.9v-.2l.1-.3.1-.3.1-.2.2-.2z" id="path19" fill="#FFCC00"/><path d="m111.6 40-.9-.3.2-1.6.4.1h.5z" id="path20" fill="#FFCC00"/><path d="m103 40 .6-.3-.1-1.4h-.6z" id="path21" fill="#FFCC00"/><path d="M98.6 27.4 97 24l-3.2 1q.9 1.6 1.6 3.4z" id="path22" fill="#FFCC00"/><path d="M94.9 29.6q-2 .8-3.4 1.9l1.1 3q1.7-1 3.5-1.7z" id="path23" fill="#FFCC00"/><path d="m101.8 39.8-.5-2.5-2.4.8c.8 1.3 1.5 1.5 3 1.7" id="path24" fill="#FFCC00"/><path d="m97.7 19.1-.4-1.4-.4-.8-2.9.3 1.5 2.2z" id="path25" fill="#FFCC00"/><path d="m100 27.2-.7-2.9-.2-.6q-.6 0-1.1.2l1.5 3.3z" id="path26" fill="#FFCC00"/><path d="m98.9 23-1-3.3q-1 0-2 .3l1.7 3.1z" id="path27" fill="#FFCC00"/><path d="m96.7 23.3-1.8-3.2-3.2 1 1.8 3.1z" id="path28" fill="#FFCC00"/><path d="M100.3 31.8 99 28.3l-3.2 1 1.3 3.2q1.4-.5 3.2-.7" id="path29" fill="#FFCC00"/><path d="M90.8 21.5q-2 .8-3.4 2l1.7 3q1.5-1 3.5-1.9z" id="path30" fill="#FFCC00"/><path d="M93 25.3q-2 .8-3.5 2l1.6 3.4 3.4-2z" id="path31" fill="#FFCC00"/><path d="m88.8 19.1-.5.2q-1.5 1-2.5 2.2l1 1.4q1.5-1.2 3.4-2z" id="path32" fill="#FFCC00"/><path d="m94.4 19.4-1.4-2q-1.7.4-3.2 1l1.4 2q1.4-.6 3.2-1" id="path33" fill="#FFCC00"/><path d="m87 35.5.6-1-2-3.3q-.8 1.3-1.2 2.7l.7 1.5.4-.2h1l.3.2z" id="path34" fill="#FFCC00"/><path d="M84.1 33.2q.5-1.4 1.2-2.6l-1.8-2.4a12 12 0 0 0 .6 5" id="path35" fill="#FFCC00"/><path d="M88.8 27.7q-1.5 1.2-2.6 2.7l2 3.3q1-1.4 2.3-2.5-.8-1.9-1.7-3.5" id="path36" fill="#FFCC00"/><path d="M86.5 24.1A14 14 0 0 0 84 27l1.8 2.9q1.1-1.6 2.7-2.7z" id="path37" fill="#FFCC00"/><path d="m83.5 26.2.1.2q1-1.6 2.5-2.8l-.9-1q-1.2 1.6-1.7 3.6" id="path38" fill="#FFCC00"/><path d="m89.3 33.2-1 1 .9 1.3.5.1.5.4.3-.3.3-.1.2-.1h.2l.9-.7-1.2-2.9z" id="path39" fill="#FFCC00"/><path d="m94.1 34.6-1.1.7 1 3 .7-.3a4 4 0 0 1-.6-3.4" id="path40" fill="#FFCC00"/><path d="m93.6 39-.4-1-.7.6v.1l.1.2v.2l.1.2v.2z" id="path41" fill="#FFCC00"/><path id="polygon41" d="m95 40.4.2-1.3-.8.4z" fill="#F2C12E"/><path d="M89.7 40.2q1.1 1.1 2.8 1.3c2 .2 3.9-.8 4.4-2.4v-.5l.4-.2.6-.3h.2l.2.3a5 5 0 0 0 4.2 2.1c2.3 0 4.2-1.4 4.5-3.3h1.3c.3 1.9 2.2 3.3 4.6 3.3q2.8-.1 4-2l.1-.1.2-.4 1.1.5v.3h.1v.3c.5 1.6 2.4 2.6 4.4 2.4q1.7-.2 2.8-1.3l.6.7q-1 1-2.5 1.4c-2.6.8-5.3-.2-6.3-2.1a7 7 0 0 1-4.2 1.4q-3.5-.1-5.3-2.2h-.4a7 7 0 0 1-5.4 2.2 7 7 0 0 1-4.2-1.4c-1 2-3.6 2.9-6.2 2.1q-1.5-.5-2.6-1.4z" id="path42" fill="#FFCC00"/><path d="m114.3 33.5.1-.9q1.6.2 3.1.7l-.1.4h-.2l-.3.3-.4.3-.2.4-.2.4-.2.6v1l.1.2-1.8-.3.1-.2.2-.1.2-.2.1-.3.2-.9v-.2l-.1-.3-.1-.3-.1-.2-.2-.2z" id="path43" fill="#FFCC00"/><path d="M113.6 39.8h-.5l.5-2.5 2.6 1-.6.8-1 .5z" id="path44" fill="#FFCC00"/><path d="m117.5 18.7.6-1.3.3-.9 3 .6-1.7 2z" id="path45" fill="#FFCC00"/><path d="m114.8 26.6.8-2.8.2-.6q.6 0 1.1.3l-1.7 3.2z" id="path46" fill="#FFCC00"/><path d="m116 22.5 1.3-3.2 2 .4-2 3z" id="path47" fill="#FFCC00"/><path d="m118.3 23 2-3 3 1.1-1.9 3q-1.5-.7-3.2-1" id="path48" fill="#FFCC00"/><path d="m114 31.2 1.6-3.3 3.1 1-1.5 3.2z" id="path49" fill="#FFCC00"/><path d="M124.3 21.6q1.8 1 3.2 2.2l-2 3q-1.5-1.3-3.2-2.2 1-1.7 2-3" id="path50" fill="#FFCC00"/><path d="m126.4 19.3.5.3q1.4 1 2.3 2.3l-1 1.3q-1.5-1.2-3.3-2.2z" id="path51" fill="#FFCC00"/><path d="m120.8 19.3 1.5-1.9q1.6.4 3 1.2l-1.4 1.8z" id="path52" fill="#FFCC00"/><path d="m115.9 27.2 1.8-3.3q1.5.4 3.1 1.2l-1.8 3.3q-1.5-.7-3.1-1.2" id="path53" fill="#FFCC00"/><path d="M121.7 25.5q1.8.9 3.3 2.1l-1.9 3.4q-1.4-1.2-3.2-2.2z" id="path54" fill="#FFCC00"/><path d="M125.6 28.2q1.5 1.3 2.5 2.8l-2.2 3.2q-.9-1.5-2.2-2.7z" id="path55" fill="#FFCC00"/><path d="m131.2 26.8-.1.2q-.9-1.6-2.4-3l1-1q1.2 1.7 1.5 3.8" id="path56" fill="#FFCC00"/><path d="M119.7 29.4q1.8 1 3.1 2.3l-1.6 2.8q-1.5-1.2-3.2-2z" id="path57" fill="#FFCC00"/><path d="m124.7 33.8.8 1.2-.3.1-.5.1q-.3 0-.5.3h-.2l-.2-.1h-.9l-.2.1-.2.1-.8-.6 1.6-2.8q.8.7 1.4 1.6" id="path58" fill="#FFCC00"/><path d="m121.7 36 .3.2v.2l-.2.7v.2q0 .4.3.7l-.3.6v.2l.1.4.3.4.3.3.6.4-.2.3a4 4 0 0 1-2.2-.2l-1-1z" id="path59" fill="#FFCC00"/><path d="M127 35.8q0-.5-.4-1l2.1-3.2q.8 1.3 1.1 2.8l-.4.9-.8-.2h-.5l-.5.2z" id="path60" fill="#FFCC00"/><path d="M130.1 33.7q-.3-1.4-1-2.6 1-1.4 2-2.3a12 12 0 0 1-1 5" id="path61" fill="#FFCC00"/><path d="M128.3 24.5q1.4 1.5 2.4 3l-2 2.7q-1-1.5-2.5-2.9z" id="path62" fill="#FFCC00"/><path d="m116.6 16.3 1 .2c-2.1 4.7-4 10-5.2 15.1l-.3-.2-.3-.1a93 93 0 0 1 4.8-15" id="path63" fill="#FFCC00"/><path d="M107.6 33c.8 0 1.5 1 1.5 2s-.7 2-1.5 2-1.5-1-1.5-2 .6-2 1.5-2" id="path64" fill="#FFCC00"/><path d="M100.5 35c.1-1.2 1.2-1.5 1.9-1-1.6-1.5 1.9-3 3.1 0-1.4.7-2.3.7-4 .9 1.6 0 2.4.1 4 .9v.1c-1.2 3-4.7 1.6-3 .2l-.1-.1c-.7.5-1.8.2-1.9-1" id="path65" fill="#FFCC00"/><path d="M107.4 28c1.2.2 1.5 1.3 1 2 1.5-1.6 3 2 0 3.2-.7-1.5-.7-2.4-.9-4 0 1.5-.1 2.3-.9 4h-.1c-3-1.2-1.6-4.8-.2-3.2h.1c-.5-.7-.2-1.8 1-2" id="path66" fill="#FFCC00"/><path d="M114.5 34.9c0-1.1-1.1-1.4-1.9-1 1.6-1.6-2.1-3-3.3-.2q1.4.8 3 1c-1.4 0-1.8.3-3 1.3 1.3 2.8 5 1.4 3.3-.1.8.4 1.8.1 2-1" id="path67" fill="#FFCC00"/><path d="M107.5 32q0 .4.3.7h-.5z" id="path68" fill="#FFCC00"/><path d="m104.6 34.8 1.1.2v-.5z" id="path69" fill="#FFCC00"/><path d="m110.3 34.8-.8.5v-.9z" id="path70" fill="#FFCC00"/><path d="M96.5 34.1q1.3 0 1.8 1.6c.2 1-.3 2-1.1 2-.8.2-1.7-.5-1.9-1.5s.4-2 1.2-2" id="path71" fill="#FFCC00"/><path d="M119.1 34c-.8-.2-1.8.5-2.1 1.5-.3 1.1.1 2.2 1 2.4.8.3 1.8-.3 2.1-1.4s0-2.1-1-2.4" id="path72" fill="#FFCC00"/><path d="M86.7 39q.8-.6 1.8.2 1 1 .5 1.8c-.5.8-1.2.3-1.8-.3q-1-1-.5-1.7" id="path73" fill="#FFCC00"/><path d="m90.5 36.6-.2.5H90c.2-1.3-2.4-1.7-2 1q1.5.7 2.9-.2c-.8.8-1 1-1.3 2 1 1.4 3.7 0 1.9-1.4v-.2c2.5-.3.5-3.6-1-1.7" id="path74" fill="#FFCC00"/><path d="m86.2 38.3.9.1c.2-.8.2-1 0-1.8-.6-1.1-2-1.3-2.1.2h-.1c-1-1.3-2.5-.2-1.8 1.2q.8-.1 1.7-.5.3.5 1 .5l.2.2z" id="path75" fill="#FFCC00"/><path id="polygon75" d="m84.4 38.4 1.6.9v-.4l-.4-.3-.6-.5-.5-.1z" fill="#FFCC00"/><path d="m89.4 39.5.8-1q-.7.3-1.4.2z" id="path76" fill="#F2C12E"/><path d="M122.6 36.5c.5-.8 1.4-.6 1.7 0h.1c-.3-1.1 2.6-1.2 2.2 1.3-.3.6-2-.2-3.1-.6.7.6 1 .9 1.5 1.8v.7c-2 .8-3.6-1.6-1.6-1.7-.7 0-1.3-.6-.9-1.5" id="path77" fill="#FFCC00"/><path id="polygon77" d="m124.7 38.1 1 .6v-.2l-.2-.3-.4-.3h-.4z" fill="#FFCC00"/><path d="m107.6 43.1 2 1.3 2.2 1.2-2.1 1.2-2 1.3-4.2-2.5zm0 .7 1.6.9 1.5 1-1.5.8-1.6 1-1.5-1-1.6-.9 1.6-1z" id="path78" fill="#FFCC00"/><path d="M105.7 47.5c-5.9.2-11 1-13.8 2.2l.5-.4 2-1.8-2-1.4-.6-.4c3-1.2 8.2-2.1 14.3-2.3l-3.6 2.2 2.5 1.6zM96.3 45l3.2-.4q1.4 0 1.7 1.4 0 1.4-1.4 1.7l-3.1.3q-1.5 0-1.7-1.3 0-1.4 1.3-1.7" id="path79" fill="#FFCC00"/><path d="M109.1 43.4c6.8.2 12.6 1.2 15.3 2.6l-1.2.5-2.3 1 1.7 1.8c-3-1-7.7-1.6-13-1.8l.6-.3 2.6-1.6-2.6-1.5zm9.3 1.5-3.2-.4q-1.4 0-1.7 1.3 0 1.5 1.3 1.7l3.2.4q1.4 0 1.7-1.3 0-1.5-1.3-1.7" id="path80" fill="#FFCC00"/><path id="polygon80" d="m124.7 46.5-.3.2-2.3.9 1.7 2 .3.2.1-.7-1.1-1.3 1.5-.7z" fill="#FFCC00"/><path id="polygon81" d="m90.9 45.8.7.5 1.9 1.3-1.9 1.6-.7.6v-1l1.5-1.2-1.5-1z" fill="#FFCC00"/><path d="m108.5 42.2.1.2.5.3h-1l-.3-.5v-.1l-.5-.3q.8-.3 1.2.4m-.3-.4h.7q.3 0 .6.4l.1.2q.2.3.4.3-.8.1-1.3-.5V42zm1 0q1-.2 1.4.7l.4.2q-.8.3-1.3-.5l-.1-.2zm1 0h.5q.4 0 .7.5l.1.2q.1.3.4.3h-.8l-.4-.5v-.2zm1 0q.9-.1 1.3.8l.3.3-.8-.1-.4-.5v-.2zm1 .1q.9-.2 1.3.7l.3.4-.9-.2-.3-.4v-.2zm1 0q.9 0 1.2.8.2.3.4.3-1 .1-1.2-.5v-.2zm.8.1q1-.1 1.4.8 0 .3.3.3l-.9-.1-.3-.4v-.2zm.9.1q1-.1 1.4.8 0 .3.3.4l-.9-.2-.3-.4v-.2zm1 .2q.9-.1 1.3.8l.3.3h-.7l-.2-.2-.3-.4v-.2zm.9 0q1 0 1.1.9l.3.3-.7-.1-.2-.5v-.1zm.7.2q1-.1 1.2.8 0 .3.3.3l-.8-.1-.2-.5zm.8.1h.5q.5.4.5.8l.5.4-.8-.2-.2-.4V43zm-10.2 0q-.4.2-1 0l-.3-.4v-.1l-.6-.3h.6q.6 0 1 .6 0 .3.3.3m-1 0q-.4.1-.8 0l-.4-.3V42l-.5-.3q.8-.1 1.4.6 0 .3.3.3m-1 .1h-.7l-.4-.4V42l-.5-.3h.5q.5 0 .8.6.1.3.4.3m-.8 0h-.8l-.4-.4v-.1l-.5-.3h.5q.5 0 .8.5.2.3.4.3m-.9 0q-.4.2-.8 0-.2 0-.4-.3v-.2l-.6-.2.5-.1q.7 0 1 .6 0 .2.3.3m-.9.1h-.8q-.3 0-.4-.4l-.1-.1-.5-.3h.5q.6 0 1 .5 0 .3.3.3m-.8 0q-.4.2-1 0l-.3-.3-.1-.2-.4-.2q.8-.1 1.3.5.2.3.5.3m-1 .1q-.3.2-.8 0l-.4-.3v-.1l-.7-.3c.6 0 1.1-.2 1.5.5q.2.3.5.2m-.8.1h-.9l-.4-.3v-.1l-.6-.2q.8-.5 1.4.4zm-.9.1h-.9l-.4-.3-.1-.1-.5-.2q1-.4 1.4.4zm-.9.1q-.4.2-.9.1-.2 0-.4-.4l-.2-.1-.3-.2h.3q.6-.2 1 .4.2.3.5.2m-1 .2c-.4 0-.9.3-1.3-.3l-.1-.1-.3-.2h-.3q.6-.2 1.1 0 .3 0 .5.3t.5.3m-.9.1-.9.2q-.2 0-.5-.4l-.1-.1-.6-.2q.8-.4 1.5.1l.1.2zm-1 .2-.9.2-.5-.4-.2-.1-.4-.1.3-.1q.7-.2 1 .2l.2.1zm-1 .2-.4.1h-.4l-.6-.2-.1-.2h-.5l.7-.3q.3 0 .7.3l.1.1q.3.3.6.2m-1 .3-.6.1-.8-.2-.2-.1-.4-.1c.5-.2 1-.5 1.4 0h.2q.2.3.5.3m-1 .2c-.7.3-.8.2-1.5-.1h-.5q.6-.6 1.4 0h.2q.3.2.5.1m-.7.3-.3.1c-.8.3-1.1-.4-1.9-.1 1.2-.8 1.3 0 2.2 0m-.8.3-.5.1-.2.1-.6-.1-.2-.1h-.5q.7-.5 1.4 0zm-.8.3-.5.2h-1l-.4-.2V45q.5-.2.8.1zm-.6.3-.5.2h-.3v-.5q.3.4.8.3m-.6.3-.2.1zm29.3-3.2.7.2q.4 0 .4.5l.5.6-.8-.3-.4-.5v-.1zm1 .3q1-.1 1.1.7.2.4.6.5-.7 0-1-.2l-.3-.6v-.1zm.9.2q1 0 1.2.7.1.4.4.6c-.5-.1-.4 0-.8-.3l-.3-.5-.1-.2zm1 .2q1 .1 1.2.8.1.4.4.6l-.8-.2-.3-.6-.1-.2zm1.2.4q.8 0 1 .8 0 .5.3.6-.5 0-.7-.3l-.3-.6V44zm.9.3q.3 0 .5.2.4.1.5.7.1.4.4.6l-.7-.2-.4-.7v-.2zm1 .4q.4.2.7.7 0 .4.3.5v.3h-.1l-.4-.3-.2-.6V45zm.8.5h.2v.5l-.1-.2v-.1z" id="path81" fill="#FFCC00"/><path d="M106.1 48.1q.9 0 1.5.2l.2.4.1.2.7.3c-.9.2-1.2.2-1.8-.5l-.1-.2z" id="path82" fill="#FFCC00"/><path d="M105 48.2q.8-.3 1.3.1l.3.4.1.2.6.4c-.8.1-1.1 0-1.7-.6l-.1-.2q-.2-.3-.5-.3" id="path83" fill="#FFCC00"/><path d="M103.7 48.2q.8-.2 1.4.2l.2.3.2.2.6.4q-1.2.4-1.8-.5l-.1-.3z" id="path84" fill="#FFCC00"/><path d="M102.3 48.3q.6-.2 1.2 0h.3l.3.5.1.2.6.3h-1.2q-.3-.1-.5-.5l-.2-.2q-.2-.3-.6-.3" id="path85" fill="#FFCC00"/><path d="M101 48.4q.6-.2 1.2-.1.3 0 .4.2l.2.3.2.2q.3.3.5.3-.5.2-1.2 0-.4 0-.6-.4l-.1-.2q-.2-.3-.6-.3" id="path86" fill="#FFCC00"/><path d="m99.8 48.5 1.1-.1q.3 0 .4.2l.2.3.1.2.6.3H101q-.4-.1-.6-.5l-.1-.1q-.2-.3-.6-.3" id="path87" fill="#FFCC00"/><path d="M98.6 48.6q.6-.2 1.1-.1l.4.1.2.3v.2q.4.4.7.3l-1 .1q-.5-.1-.6-.5l-.1-.1q-.2-.3-.7-.3" id="path88" fill="#FFCC00"/><path d="m97.7 48.7.9-.1q.3 0 .4.2l.2.2v.2l.6.3h-1q-.2 0-.5-.4V49q-.3-.3-.6-.3" id="path89" fill="#FFCC00"/><path d="m96.7 48.8.9-.1q.2 0 .3.2l.2.2.1.2.5.3h-.9q-.4 0-.5-.3l-.1-.2q-.2-.3-.5-.3" id="path90" fill="#FFCC00"/><path d="m95.8 49 .8-.2q.2 0 .3.2l.2.3.1.1.5.3h-1q-.3 0-.4-.3l-.1-.2z" id="path91" fill="#FFCC00"/><path d="M94.8 49.2q.4-.2.9-.2l.2.1.2.3.1.1q.3.3.5.3l-1 .1-.3-.4-.1-.1q-.2-.3-.5-.2" id="path92" fill="#FFCC00"/><path d="m94 49.3.8-.1.2.1.2.2v.2l.5.2-.8.1q-.3 0-.4-.3l-.1-.2z" id="path93" fill="#FFCC00"/><path d="M93.3 49.5q.4-.3.9 0v.2l.2.1q.2.3.4.2l-.7.2q-.3 0-.4-.4z" id="path94" fill="#FFCC00"/><path d="m92.6 49.7.6-.2.2.1.2.3.4.3-.6.1q-.4 0-.4-.3-.2-.3-.4-.3" id="path95" fill="#FFCC00"/><path d="M92 50q.1-.2.6-.3l.2.1.1.2v.1l.4.2-.5.2q-.3 0-.4-.3z" id="path96" fill="#FFCC00"/><path d="m91.4 50.2.6-.2h.2l.1.2v.1q.3.3.5.2l-.5.2q-.3 0-.4-.3t-.5-.2" id="path97" fill="#FFCC00"/><path d="M91.4 50.3h.2l.2.2.4.2-.3.2c-.7 0-1.1-.5-.5-.6" id="path98" fill="#FFCC00"/><path d="m123 49.8.6.2c.5.4.2.8 0 .7q-.2 0-.2-.4V50z" id="path100" fill="#FFCC00"/><path d="M122.1 49.6q1-.1 1 .6 0 .3.3.5-.4 0-.7-.2l-.2-.6q0-.3-.4-.3" id="path101" fill="#FFCC00"/><path d="M121.3 49.3q.7-.1 1 .7l.4.5-.6-.2h-.2l-.2-.5v-.1z" id="path102" fill="#FFCC00"/><path d="M120 49q1-.1 1.5.7 0 .4.4.6c-.8 0-1 0-1.4-.8l-.2-.2z" id="path103" fill="#FFCC00"/><path d="M118.7 48.8q.5 0 1.3.3l.2.4.1.2.5.4-1-.2q-.4-.2-.6-.6l-.2-.2z" id="path104" fill="#FFCC00"/><path d="M117.3 48.7h1.1l.3.2.2.4.2.3.4.3-1-.1-.7-.6-.1-.3z" id="path105" fill="#FFCC00"/><path d="M115.8 48.5q.9-.1 1.5.3l.2.4.2.2.5.3c-.9 0-1.1.2-1.7-.7l-.2-.2q-.2-.3-.5-.3" id="path106" fill="#FFCC00"/><path d="M114.4 48.4q.9-.3 1.5.3l.3.3.1.3.6.3h-1.2l-.7-.7-.1-.2z" id="path107" fill="#FFCC00"/><path d="M112.9 48.3q1-.2 1.6.2l.2.4.2.2.6.4H114l-.6-.7-.1-.2q-.2-.3-.5-.3" id="path108" fill="#FFCC00"/><path d="M111.3 48.2q1-.2 1.7.2l.2.4.2.3q.2.3.5.3h-1.1q-.4-.2-.7-.6l-.1-.3q-.2-.3-.7-.3" id="path109" fill="#FFCC00"/><path d="M110 48.1q1-.2 1.6.3l.3.4.1.2.5.3h-1.1q-.4-.2-.7-.6l-.1-.2z" id="path110" fill="#FFCC00"/><path d="M108.6 48.1c.6 0 1.2-.2 1.6.3l.2.3.2.3.6.3H110q-.4-.2-.7-.6l-.1-.2z" id="path111" fill="#FFCC00"/><path d="m108.4 48.1.4.2.3.4.1.2.6.4h-1q-.5-.2-.7-.6l-.2-.2q-.2-.4-.6-.4z" id="path112" fill="#FFCC00"/><path d="M107.6 39.7q.6 1 1.6 1.7-1.6-.3-3.1 0z" id="path113" fill="#F2C12E"/><path d="M117.3 40.7q-.7.6-1.8 1l3.1.5q-.8-.7-1.3-1.6" id="path114" fill="#F2C12E"/><path d="m98 41 1.3.7-2.2.4z" id="path115" fill="#F2C12E"/><path d="M128.3 38.2q-.8-.6-1.8.3-1 1-.5 1.8.8.5 1.8-.3c1-.8.8-1.4.5-1.8" id="path116" fill="#FFCC00"/><path d="m129.5 36.3-.1.5v-.2c.1-1.1-2.2-1.5-2.1 1q1.3.7 2.6-.2c-.7.7-.8 1-1.2 1.8.7 1 3-.3 1.8-1.2v-.1c2.2-.4.4-3.3-1-1.6" id="path117" fill="#FFCC00"/><path d="m128.7 38.6.5-.7-.8.2q.2.1.3.5" id="path118" fill="#FFCC00"/><path d="m89.1 41.8 1.2 2 2.2-.6a7 7 0 0 1-3.4-1.4" id="path119" fill="#F2C12E"/><path d="m126.6 41.5-1.1 2.5-2.4-1q1.8-.3 3.5-1.5" id="path120" fill="#F2C12E"/><path d="m94.5 40.6-.7-.9-1 .5-.5.5v.3q1.5.1 2.2-.4" id="path121" fill="#F2C12E"/><path d="M112.3 18.6a67 67 0 0 0-2.5 10.5h.1l.2.2.2.1.2.4.2.4v1.2l.7.1q1.3-6.7 4-13.1z" id="path122" fill="#F2C12E"/><path d="M102.8 18.8q1.7 5 2.5 10.2h-.2l-.2.1-.2.2-.2.1-.2.4-.2.4v1.4l-1.2.2q-.8-6.9-3.2-13.3 1.5.3 3.1.3" id="path123" fill="#F2C12E"/><path d="m118.1 45.2-2.7-.3q-1.1 0-1.4 1 .1 1.1 1.1 1.4l2.8.3q1.1-.1 1.3-1.1 0-1.1-1-1.3" id="path124" fill="#F2C12E"/><path d="m96.6 45.2 2.8-.3q1.2 0 1.3 1 0 1.1-1 1.4l-2.8.3q-1.2 0-1.4-1 .1-1.1 1.1-1.4" id="path125" fill="#F2C12E"/><path d="m110 39 .2-1.2-1-.8-.3.2c.1.9.5 1.2 1 1.8" id="path126" fill="#F2C12E"/><path d="m104.2 39.5-.2-1.2q1-.1 1.8-1.3l.5.3q-.5 1.5-2.1 2.2" id="path127" fill="#F2C12E"/></g><!-- app4joy --></svg>