<svg width="1200" height="800" viewBox="0 0 1800 1200" id="svg10" xmlns="http://www.w3.org/2000/svg"><g id="g11"><path id="rect1" d="M0 0h1800v1200H0z" fill="#0051BA"/><path id="rect2" d="M0 0h1800v800H0z" fill="white"/></g><g id="g10"><path d="M383.2 473c-38.9 0-67-29.6-105.2-29.9-33.7-.2-60.1 28.7-107 28.5q1.5-46.1-1.9-92.2C160.6 259.6 266.5 162 386.6 162s221.6 97.5 217.5 217.5c-2 21-4.8 37.7-3 91.3-46.8 0-71.5-28.7-106.7-28.3-36.3.4-72.4 30.5-111.2 30.6z" id="path2" stroke="#ccc" stroke-width="1" fill="#fff"/><path d="m386.6 379.4-207 56-2-56c-4-115.3 93.6-209 209-209s216.6 93.9 209 209l-3.4 52.4z" id="path3" fill="#0051BA"/><path id="polygon3" d="m385.5 164.5 29.1 34.8 37.4-24.6 16.9 42.1 43.1-11.9 3.1 45.2 44.7 2.1-11 44 41.8 15.8-24 38.4 34.1 27.9-40.6 43.5 32.4 15.2-207.2-39.2-205.6 41.9 32.1-23.8-40.1-35.4 34.8-29-24.6-37.4 42.1-16.9-11.9-43.2 45.2-3.1 2.1-44.7 44 11.1 15.8-41.9 38.4 24.1z" stroke="#fff" stroke-width="8" stroke-linejoin="bevel" fill="#D81E05"/><path d="m386.6 379.4-168.2 64a180 180 0 1 1 338-4.3z" id="path4" fill="#fff"/><path d="M386.6 379.4 227.7 440a170 170 0 1 1 318.4-1.7z" id="path5" fill="#D81E05"/><path d="M179.6 435.4c44.2-32.4 97.4-70.9 131.3-114.7h17l33.3 50.8 31.6-29.4h17.8l37.8 40.7 23.3-23.5 18.3.6c26 34.5 66 54.6 102.2 72l1.8 29.4-91-47.5-256.3 5.9-67.3 39.5z" id="path6" fill="#fff"/><path d="m179.3 464.7.4-25c35.8-22.7 68-47.3 98.8-76.6l-8.7 23.8 19.8-23.4-8.3 30.5 23.4-24.6 3.2 35.7 15.5-36 18.6 25-.4-22.3 57.2 43.3-27-34.6 25 16.7 6.7-21.8 32.6 29.7-4-21 58.4 32.2-33-27 22.2 7.5 3.2-11.1 23.4 14.7-7.5-19.9a438 438 0 0 0 93.6 57.6l2 27c-36-4.8-66.3-30.7-103.8-29.7-34.5 1-70.3 29.5-106.9 30.5-36.2-.2-69.7-30.5-105.8-30.7-32-.2-66.6 29.7-98.6 29.5" id="path7" fill="#000"/><path d="M312.7 320.7h12.5c6.2-14.7 11.8-29.9 11.3-45a20 20 0 0 0-9 8.1c-1-7-3.1-13-7.4-18.7a32 32 0 0 0-8.9 17.4 16 16 0 0 0-7.6-6c-.6 14.8 3 29.5 9 44.2z" id="path8" stroke="#fff" stroke-width="5" fill="#D81E05"/><path d="M395.5 342.4H408c6.3-14.7 11.8-29.9 11.4-45a20 20 0 0 0-9 8c-1-6.9-3.2-13-7.5-18.7a32 32 0 0 0-8.9 17.5c-1.8-2.8-4-4.4-7.5-6-.6 14.8 2.9 29.5 9 44.2z" id="path9" stroke="#fff" stroke-width="5" fill="#D81E05"/><path d="M474.4 360h12.5c6.2-14.8 11.8-30 11.4-45a20 20 0 0 0-9 8c-1-6.9-3.2-13-7.5-18.7a32 32 0 0 0-8.9 17.5c-1.9-2.8-4-4.4-7.5-6-.7 14.7 2.9 29.4 9 44.1z" id="path10" stroke="#fff" stroke-width="5" fill="#D81E05"/></g><!-- app4joy --></svg>