<svg xml:space="preserve" width="600" height="300" viewBox="0 0 600 300" id="svg11" xmlns:xlink="http://www.w3.org/1999/xlink" xmlns="http://www.w3.org/2000/svg"><defs id="defs1"><path id="big" fill="#FFB000" d="M0-23c2-14 3-21 0-21s-2 7 0 21"/><path id="small" fill="#FFB000" d="M0-23c1-10 1.5-14 0-14s-1 4 0 14"/></defs><clipPath id="mid"><circle cx="300" cy="150" r="49" id="circle1"/></clipPath><g id="g12"><path fill="#E02010" id="rect1" d="M0 0h600v300H0z"/><path fill="#007030" id="rect2" d="M0 0h600v200H0z"/><path fill="#0090D0" id="rect3" d="M0 0h600v100H0z"/></g><g id="g11"><circle fill="#FFB000" cx="300" cy="150" r="20" id="circle3"/><path fill="white" clip-path="url(#mid)" d="M300 145c-15-15-78 40-78 40l169 4s-68-62-90-44Z" id="path3"/><path fill="#007030" clip-path="url(#mid)" d="M301 162c-20-18-38 16-60 4 11 50 125 55 115-2-18 2-35-25-55-2" id="path4"/><circle cx="300" cy="150" r="48" stroke="#FFB000" stroke-width="4" fill="none" id="circle4"/><g id="L"><use transform="rotate(-75 247.7 -120.5)" xlink:href="#small" id="use4"/><use transform="rotate(-64 270 -165)" xlink:href="#big" id="use5"/><use transform="rotate(-56 291 -207.1)" xlink:href="#big" id="use6"/></g><use transform="rotate(30 300 150)" xlink:href="#L" id="use7"/><use transform="rotate(60 300 150)" xlink:href="#L" id="use8"/><use transform="rotate(90 300 150)" xlink:href="#L" id="use9"/><use transform="rotate(120 300 150)" xlink:href="#L" id="use10"/><use transform="rotate(75 52.3 270.5)" xlink:href="#small" id="use11"/></g><!-- app4joy --></svg>