<svg width="600" height="400" image-rendering="optimizeQuality" shape-rendering="geometricPrecision" id="svg18" viewBox="0 0 600 400" xmlns:xlink="http://www.w3.org/1999/xlink" xmlns="http://www.w3.org/2000/svg"><g id="g18"><path d="M0 0h600v400H0z" fill="#fff" id="path1"/><path d="M0 300h600v100H0z" fill="#00923f" id="path2"/><path d="M0 350h600v50H0z" fill="#007cc3" id="path3"/></g><g id="g19"><use xlink:href="#B" stroke="#da251d" stroke-width="7.273" fill="#0093dd" id="use3"/><g id="g6" stroke-width="1.818"><use xlink:href="#B" fill="#f8c300" id="use4" stroke="#f8c300"/><g id="g5" stroke-linejoin="round"><path d="M387.4 59.8c-6 .6-10.6 1.7-15.1 7-11 1.2-16.4 7.4-17 17.2q-12.2 8.8-8 27c-9.6 6-13.4 13.7-8.8 23.2l.1 22.3q1.2 4.6 4.6 9c-7 10.9-3.8 20.7 9.3 26.7 0 18.7 10.3 24 25.6 23q3 4.1 9.3 6.3l.1-161.9z" stroke="#007cc3" fill="#007cc3" id="path4"/><path d="M387.4 59.8c-6 .6-10.6 1.7-15.1 7-11 1.2-16.4 7.4-17 17.2q-12.2 8.8-8 27c-9.6 6-13.4 13.7-8.8 23.2l.1 22.3q1.2 4.6 4.6 9c-7 10.9-3.8 20.7 9.3 26.7 0 18.7 10.3 24 25.6 23q3 4.1 9.3 6.3" fill="none" id="path5" stroke="#fff" stroke-linecap="round"/></g></g><g id="g7" stroke-linejoin="round" stroke="#fff" fill="#da251d" stroke-width="1.455"><path d="M241.2 72.4q-10.5 2.6-16.4 7.4v-21q5.9 4.8 16.4 7.4-2.6-10.5-7.5-16.4h21.1q-4.8 5.9-7.4 16.4 10.4-2.6 16.3-7.5v21.1q-5.8-4.8-16.3-7.4 2.6 10.4 7.4 16.3h-21q4.8-5.8 7.4-16.3z" id="path6"/><circle cx="244.273" cy="44.727" r="4.545" id="circle6"/></g><g stroke-width="1.395" id="g8" stroke-linejoin="round" stroke="#fff" fill="#da251d"><circle cy="219.742" cx="-69.208" transform="rotate(270)" r="4.533" id="circle7"/><circle cy="-268.689" cx="69.208" transform="rotate(90)" r="4.533" id="circle8"/></g><circle cx="244.273" cy="93.636" r="4.545" id="circle9" stroke-linejoin="round" stroke="#fff" fill="#da251d" stroke-width="1.455"/><g fill="none" id="g14" stroke-linejoin="round" stroke="#fff" stroke-linecap="round" stroke-width="1.818"><path d="M387.4 92c-14.2 1.8-20.8 10.2-16 27.8m-1.7-12.2c-13.4 2-21.2 8-22 20" id="path9"/><path d="M382.3 93q-2.5-4 2-10m-1.7-4.6c-5.6 4.7-7.8 10-5.2 16.7m-12 4.4a8 8 0 0 0-.4 9.2m-1.8-16.3c-5.5 4.5-7.7 10.1-4.2 18.3m4.5-23.6c-10.3 4.5-13.8 13.3-9.2 26.7m33 27q-5.4-5-1.4-9.5m1.5 16.9c-9.5-5.8-12.6-12.6-6-20.7m6 27.2c-15.7-8.7-21.3-19.8-6.8-31.4m6.8 77.2c-27-10-28-27.8-4-40.3m-16-39.3c-17 15-21.7 31.1 2.3 49.8" id="path10"/><path d="M374 166.4q-15.1-9.7-14-24m17.4 21.4c-6.4-3.6-9.7-9.8-13-15.4m8.8 4.1c1.4 3.1 4 5.3 8 8.8M372 176c-1.5 8.4 5 13.8 15 17.8" id="path11"/><path d="M377 178.4c-.2 4.3 3.5 7.4 10.2 9.6m-26-16.4c-6.6-.3-13.7-1.6-18-6.1m16.3 15.4q-5.2-4.3-2.7-9.6m-4.5-1q-3.9 8.5 4.7 14.8m-2.2 2.7c-8-5-10.7-10.2-6.3-18.7m4 23.3c7 1.8 13 .9 19.4-.6m3.6 12.2c-.5 5 .2 8.5 2.4 11.5" id="path12"/><path d="M364.6 202.2c3.1 3.3 6 5.6 11 5.4" id="path13"/><path d="M359 201q6 11.4 17 10.5" id="path14"/></g><path d="M309.4 133h-25.1l-3.7 4.3H273v-15.8c-20.7-18.2 8-31.1 17-53.3zm-3.1 14.6 2.2 3.5-18.4 61c-9-22.1-37.6-35-17-53.2v-15.8h7.7l3.7 4.4h22zm5.2 5.9c4.2 2.1-.3 5.8 16 2.7l2.4 2.5c7.8-5.2 16.4.6 29.8 3-8-9.7-8.9-20-1.4-31a36 36 0 0 0-21.7 5h-11.4q-4.8-3.1-12-3.2l-21.5-70.1q.4-1.3.4-2.4 4.2 2.3 7.4 0c3.1-2.2 6.2.5 13.7-.7-7 .3-10.4-2.8-13.8-1.3q-4.5 1.7-7.1-1.6.1-2.7-.4-5.5c-1.6-10.7-15.6-.7-4.9 2.7 5 28.6-49.6 46.2-25.6 70.8V137h-24.8q1-3 3.3-5.5-10.3 4.4-24.4 8.6a283 283 0 0 1 24.4 8.5 22 22 0 0 1-3.3-5.4h24.8V156c-24.2 24.5 30.3 42.2 25.6 70.7-10.7 3.5 3.3 13.3 5 2.8q.4-2.8.3-5.5c1.8-2.2 4.2-3 7-1.6 3.5 1.4 7.2-1.7 13.9-1.3-7.5-1.1-10.7 1.4-13.7-.7-2.1-1.7-4.7-1.3-7.4 0l-.4-2.4 19.8-64.7z" stroke-width="1.273" id="path15" stroke-linejoin="round" stroke="#fff" fill="#da251d"/><g fill="#f8c300" id="g17"><path d="M310 137.5c-.3 1.4 3.2 1.6 4.6 1.6 3 0 2.8 1 4.4 3.3 4.2 5.2 5.3 3 6.5 4.7-1.2 1-4.1-2.2-4.1 1.8 0 6 7 7.3 7.6.6.5-6.4-.7-7.7-4.4-11.5-1.6-1.6-13.2-4.4-14.3-.5zm.5 4.5c-3 .4-1.3 3 1 2.5 3.7-.9 6.8-3.4-1-2.5m.9 4.5c-2 1-.6 3.3 2 2 4.1-2 5.2-5.2-2-2m2.7 3.5c-1.6 1-.4 3.3 2 1.6 3.6-2.3 3-4.9-2-1.6m3 2.7c-1.6 1.3.4 3.1 2 1.1 2-2.5-.3-2.5-2-1m31.2-9.8c-1-5.4 1.6-4 1.8-6.7-10.6.9-12 3.3-7.3 10.3 1-3.8-2.2-4.7 1.5-6.5q0 2.6 1.6 5c.6-2-.5-4.8 1-5.7.3 1.2.5 2.7 1.4 3.6m-13.7 6.4c-.1-3 .2-5.8 1.3-7q.1 3.5 2 5.3-.5-5.3.7-6.3c-2.1-1.5-3.2-2-4.7-2.2-.9 4.7-.5 8.4 1 10.2z" id="path16"/><path d="m284 138.7-1.2 1.5h23.3l1.3-1.5z" id="path17" stroke-linejoin="round" stroke="#f8c300" stroke-width="1.091"/></g><path d="m309 137-1.5 2m-21.8-2-1.4 2m4.9-2-1.5 2m5-2-1.5 2m4.9-2-1.5 2m5-2-1.5 2m4.9-2-1.5 2m5-2-1.5 2" fill="none" id="path18" stroke-linejoin="round" stroke="#f8c300" stroke-linecap="round" stroke-width="1.091"/></g><defs id="defs18"><path id="B" d="M300.3 262.7a21 21 0 0 1 21-18.7l44.6-1c11.8 0 21.3-9.5 21.3-21.4V37.3H212.8v184.3c0 11.9 9.8 21.3 21.5 21.3l44.5 1.1c11 0 20 8.2 21.3 18.7z"/></defs><!-- app4joy --></svg>