<svg width="900" height="600" viewBox="0 0 900 600" id="svg759" xmlns="http://www.w3.org/2000/svg"><g id="g760"><path fill="#d20000" id="rect1" d="M0 0h900v600H0z"/><path fill="#0039a6" id="rect2" d="M225 0h450v600H225z"/></g><g id="g759"><path d="M559.3 278.8a3.5 3.5 0 0 0-3.5 3.4l.3 1.4-11.3 21.9 2 .9 10.9-21.2.4.2v17.8h2.1v-17.7l.7-.2 11 21.1 1.8-1-11.2-21.8.3-1.4a3.5 3.5 0 0 0-3.5-3.4" fill="#faeb00" stroke="#ed9718" stroke-linecap="round" stroke-linejoin="round" stroke-width="1.00001" id="path2"/><path d="M481.1 262.4c-22.4 31.5-18.5 62.5 1.3 93.3-27-12-96.2-39.4-87.3 6.2-20-41-23.8-96.3 30-133 2.2 6.9 8 7.3 13.5 8.2 2.4 3 2.6 9.1 9.6 5.7 4 5 8.5 9.1 14.8 8.8 3.7 6 8 11.5 18.1 10.8" fill="#faeb00" stroke="#ed9718" stroke-linecap="round" stroke-linejoin="round" stroke-width="1.00001" id="path3"/><path d="m424.9 229.4-1.1.8c-50 48-38 74.8-30.4 111.9-1.4-9.4 33.4-75 75-54.8a84 84 0 0 1 12.2-24.7q-7.2.3-11.2-2.9a26 26 0 0 1-6.5-7.8c-6.4.2-10.8-3.8-14.8-8.8a8 8 0 0 1-4 1 4 4 0 0 1-2.6-1.6c-1.3-1.5-2-3.7-3-5.2a32 32 0 0 1-8-1.8 10 10 0 0 1-5.6-6.1" fill="#f8c300" id="path4"/><path d="M446 227.8 338.2 334.2l.8 5.3c36.3-39 72.6-75 108.9-112.2Z" fill="#ed9718" id="path5"/><path d="M448.4 233.3c-20.7 24.4-66.8 76.5-107.6 109.7l-.1 3.7c40.8-34.4 73.6-73.2 108.2-111.9Z" fill="#ed9718" id="path6"/><path d="M446.5 240.4a1498 1498 0 0 1-97.7 117.4l1.6 1.3a1371 1371 0 0 0 96-117.5Z" fill="#ed9718" id="path7"/><path d="M416 377.6c.8-.8 28.7-139.3 28.7-139.3h1.4l-27 140Z" fill="#ed9718" id="path8"/><path d="m445.8 240.3-20 139.8h2.4l18.7-139.3Z" fill="#ed9718" id="path9"/><path d="M447 243.3c-3.9 47.8-5.6 90.6-12 137.5h2.8c5-47.2 7-89.9 10.7-137.7Z" fill="#ed9718" id="path10"/><path d="m463.7 348 12.3 38.2h2.4q-6.2-18.6-12.1-37.3z" fill="#ed9718" id="path11"/><path d="M449.3 253.8c24.5 38.7 51.2 78.9 79.3 117l-1.8 2.4a1580 1580 0 0 1-79-118Z" fill="#ed9718" id="path12"/><path d="M449.3 267c20.8 33.1 43.6 68.8 64 101.6l-2 1.2c-21.9-32.8-42.8-68.3-63.2-101Z" fill="#ed9718" id="path13"/><path d="M449.3 282.5a845 845 0 0 0 60 92.2l-3.1 1a608 608 0 0 1-57.7-92Z" fill="#ed9718" id="path14"/><path d="M470 350.4q7 16.5 12.7 34.3h2.4q-5.6-16.7-12-33z" fill="#ed9718" id="path15"/><path d="m425.1 222.5-2.5 5 66.7 39.7q-3-2.7-6.3-5.3c-10.2-12.8-17.2-25.6-30.5-38.3l.4 3.5a230 230 0 0 0 28.4 33.4c-15.7-12.6-33.5-23-50.5-34.2l11.5-.4 4-3-18.9 1.2z" fill="#faeb00" stroke="#ed9718" stroke-linecap="round" stroke-linejoin="round" stroke-width="1.00001" id="path16"/><path d="M381 351.3c-1.5-2.5 2.1-6.7 5-5.1 4.4 2.3.4 7.2-1.9 7 1.2.9 1.7 3 .2 6.4 3.4 2.6 2.7 5 3.9 7.6-3-2-6.7-2.4-7.6-6.3-1.1-1.8-.1-4.2.1-6.4a40 40 0 0 0 .2 10l-10.1-5.3c1.8-4 3.6-8 10.1-8" fill="#faeb00" stroke="#ed9718" stroke-linecap="round" stroke-linejoin="round" stroke-width="1.00001" id="path17"/><path d="M399.6 357c-1.9-2.2.9-7 4-6 4.8 1.6 1.8 7-.5 7.3 1.3.6 2.2 2.7 1.4 6.2 1.2 3.7 1.7 6 3.4 8.3a11 11 0 0 1-6.9-6.3c-1.4-1.6-.9-4.1-1-6.3a43 43 0 0 0 2.4 10.1l-11.4-3.8c1.1-4.2 2.1-8.5 8.6-9.6" fill="#faeb00" stroke="#ed9718" stroke-linecap="round" stroke-linejoin="round" stroke-width="1.00001" id="path18"/><path d="M417.3 360.4c-2.1-2.3.3-8.1 3.5-7.2 4.8 1.3 2.3 7.9 0 8.4 1.4.6 2.5 2.8 2 7 1.6 4 2.3 6.6 4.1 9.2a11 11 0 0 1-7.4-6.6c-1.5-1.7-1.2-4.7-1.6-7.2a55 55 0 0 0 3.4 11.5l-11.7-3.3c.7-5 1.3-10 7.7-11.8" fill="#faeb00" stroke="#ed9718" stroke-linecap="round" stroke-linejoin="round" stroke-width="1.00001" id="path19"/><path d="M435.5 364c-2-2.3.3-8 3.5-7.1 4.9 1.3 2.4 7.8.1 8.4 1.4.5 2.4 2.8 2 7 1.5 4 2.2 6.6 4 9.1a11 11 0 0 1-7.3-6.5c-1.6-1.8-1.3-4.7-1.6-7.2a55 55 0 0 0 3.3 11.4l-11.5-2.3c.7-5 1.2-11 7.5-12.8" fill="#faeb00" stroke="#ed9718" stroke-linecap="round" stroke-linejoin="round" stroke-width="1.00001" id="path20"/><path d="M455.7 364.2c-2.4-2-.8-8 2.5-7.6 5 .8 3.4 7.6 1.3 8.4 1.4.4 2.7 2.5 2.8 6.6 2.1 3.9 3.2 6.3 5.4 8.6a12 12 0 0 1-8.3-5.6c-1.8-1.5-1.8-4.4-2.5-6.8a55 55 0 0 0 4.8 10.8L450 378c0-5-.3-11 5.7-13.7" fill="#faeb00" stroke="#ed9718" stroke-linecap="round" stroke-linejoin="round" stroke-width="1.00001" id="path21"/><path d="M475.4 364.2c-2.3-2-.5-8 2.8-7.5 5 1 3.2 7.7 1 8.4 1.4.4 3.9 1.8 3.8 6 3 1.4 6.2 2.5 8.3 5-3.5-.9-7.5.7-11.7-1.3-1.7-1.6-2.5-4.5-3.1-7a55 55 0 0 0 4.5 11l-11.7-1.1c.1-5 0-11 6.1-13.5" fill="#faeb00" stroke="#ed9718" stroke-linecap="round" stroke-linejoin="round" stroke-width="1.00001" id="path22"/><path d="M493.8 360.8c-1.8-.7-.9-6.6 2.5-7 3.9-.3 3.3 5.5 1.4 6.8 1.4 0 1.8.3 5.4 4.7 3.2.6 6.7.8 9.4 2.6-3.6.1-7 2.7-11.6 1.9-2.1-1-3.8-3.7-5-5.8a56 56 0 0 0 7.4 9.3l-11.6 2c-1.2-4.8-3-10.5 2.1-14.5" fill="#faeb00" stroke="#ed9718" stroke-linecap="round" stroke-linejoin="round" stroke-width="1.00001" id="path23"/><path d="M455.7 364.2c-2.4-2-.8-8 2.5-7.6 5 .8 3.4 7.6 1.3 8.4 1.4.4 2.7 2.5 2.8 6.6 2.1 3.9 3.2 6.3 5.4 8.6a12 12 0 0 1-8.3-5.6c-1.8-1.5-1.8-4.4-2.5-6.8a55 55 0 0 0 4.8 10.8L450 378c0-5-.3-11 5.7-13.7" fill="#faeb00" stroke="#ed9718" stroke-linecap="round" stroke-linejoin="round" stroke-width="1.00001" id="path24"/><path d="M301 318c-1 9.1 4.1 7 5.4 9.3q6-2.6 10.5.6-2-2.6-3.4-5.7c-6.8-.3-9-2.4-12.5-4.2" fill="#d20000" id="path25"/><path d="M585.8 294.1h-.5c-17.4 5.3-33.9 11.8-54 11.1-12-.3-19.9 11.4-18.8 17.3s2 7.7 11.2 11.5v9.8c-15.3-6.3-18 5.3-16.6 9.4 3 8.5 14 3.1 9.5-5 10.4 16.8-43.1 30-68.6 30.3-37 .4-74.2-19-104.3-37.6l-5.7.4c3.5-5.9 1.8-17-1.1-22.3a95 95 0 0 0-11.3-15.5l-1.5-1.2c-6 .8-16.6-3-13.3 7-6.2 0-11.1 1-9.5 7.5 12.3-.9 11.5 6.7 15.6 11.1q-4.5-3.1-10.5-.6c2 8.1 6.7 8.9 13.2 4.6 3.5 1.6 0 4-2.8 6.4 1.6 1 8.8 3 8.4-7.7 1.1 5.8-1.6 9.8-6.8 12.9 10.2 4 9.2-3.6 10-7-.3 29.7-46.6 33.2-16.8 69.1C325 421.8 401.1 440 448 439.3c57-.8 109.8-21 125.7-34.4 42.5-36 16.8-50.4 8-61.1l1.3-11.6h-9c-3.5-1.4-.7-17 3.5-21.9-.5 9 10.4 16.5 18.5 7.5 9.5-10.6-5.3-23.8-10.2-23.7Zm-242.8 37q-.2 0-.5.3l.5-.1z" fill="#faeb00" stroke="#ed9718" stroke-miterlimit="5" stroke-width="2.00002" id="path26"/><path d="m585.3 294.5-.5.1c-17.2 5.2-33.4 11.6-53.4 11-11.7-.4-19.6 11.3-18.5 17.1s2.3 7.2 11.4 11l-.1 9.6a116 116 0 0 0 57 0l1.1-10.4-8.4-.2c-3.6-.8-1.8-17.7 4-23.3-.9 9.1 10 17.1 17.4 8.7 10-10.6-4.9-23.7-10-23.6" fill="#f8c300" id="path27"/><path d="M324.1 302.3c3.9-1.6 6.8-4.2 9.7-7.1a14 14 0 0 1-2.2 10.7c2.3-1.7 6.2-6 7.2-3.2.5 1.6-1.3 3.5-5.7 6.5l10.8-2.2c-1.3 1.8-4.2 4 .1 5.7q-2.6 2.2-3 4.7s3-1 4.5-.4c.2.9-3.4 3.7-4.4 6.1.1-.4 5-1.8 5.4-1.3.3 3.5 1.3 6.4-4 9.6 9.6-2 2.3 6.7 1.2 9.5l-5.7.4c3.5-5.9 1.9-17-1.1-22.3a76 76 0 0 0-12.8-16.7Z" fill="#faeb00" stroke="#ed9718" stroke-width="1.00001" id="path28"/><path d="m342.5 318.7-.5.5-2.6 2.7-.5-1.3 1.9-1z" fill="#ed9718" id="path29"/><path d="m343.6 332.5 1.1.3q.6.3.4 1.5a13 13 0 0 1-1.1 3.2l-1 2.3-3.1.2a20 20 0 0 0 1.2-7.3zm1.7-9.4a7 7 0 0 1-.7 3.2 11 11 0 0 1-3.6 3.6l-.7-5a28 28 0 0 1 5-1.8m-4.2-14.2a3 3 0 0 0-.6 1.5 3 3 0 0 0 1.3 2.5c.7.2-.2.7-.5 1a11 11 0 0 0-2 3.2l-.6 3a34 34 0 0 0-3.1-5.5L333 311zm-3.4-5.8c-.1-.2 0 .3-.2.3a8 8 0 0 1-1.7 2.1 36 36 0 0 1-4.3 3.3l-.5-.8c-.3-.2.2-.3.4-.5q2.3-2 4.7-3.7zq.1 0 0 0m-5-5.3a21 21 0 0 1-3.4 8.2l-1.7-2-1.3-1.5a27 27 0 0 0 6.4-4.7" fill="#ed9718" id="path30"/><path d="M316.6 307c-2.1 0-3.6 1.3-2.2 2.8q.1-1 2.4-1.1c2.3-.1 2.4.5 2.4 1.1l-.3.6c2.6 0 4.9-.2 6-1.9-2.8.6-4.6-1.3-7.9-1.5z" fill="#ed9718" id="path31"/><path d="M347.2 346.3c1.3-7.4 5.4-7.5 8.8-9.4 8-7.8-7.7-12.2-8.8-19-1-5.8 1.6-12 1.8-17.3.3-5.7-6.3-10-5.5-14.9a21 21 0 0 1 13.9 20.8c.7-5.4 1.2-11-.5-17 9.6 4.5 15 11 7 24.2 4.1-4.2 4.5-9.7 6-14.8 4.6 3.8 3.8 13.8-.4 20.9 2.6-2.1 5.3-6.7 5.3-6.7 4.3 8-2.5 14.2-5.4 21 4.3-2.3 7.2-5.8 10.6-8.8-.4 3 2.6 10.8-11.2 17.6 1.8.1 3.5.5 5.2-.2-1.1 3.2 0 7.7-7.3 7.5 1 .3-4.6 2.8-5 2.6l3-.5c-.8 1.5 1.8 7.9-7.7 4.7.4.7 1.9 1 3 1.4-2.8 2.4-5.5 5.1-9-.5-.4 1 .7 1.8 1.8 2.8-6.3 2.4-9.7 1.2-8.1-6.3-1 4.8-9 4-7.2-3.4-3.3-6.5 4.4-8.5 9.7-4.7Z" fill="#faeb00" stroke="#ed9718" stroke-width="2.00002" id="path32"/><path d="M361.2 296a8 8 0 0 1 3 8.9c-.5 3-2.2 5.4-3.5 8-.8 2.6 2.4 5.1 4.8 3.7 1.4-.6 3-3.5 3.3-3.5-.5 2.2-2 4.1-2.6 6.3-.5 2.6 3 4.7 5.2 3 1.4-1-1.2 3-1.7 4.1-1.4 2.4-3 4.7-3.7 7.4-.4 2.5 2.8 4.4 5 3.1 1.2-.5 4.8-3.4 2.3-1-2 2-4.6 3-6.8 4.6-2.1 1.8-.7 5.5 2 5.6 2.7.4-1.7.9-2.7.9-1.8 1-3.4 2.5-5.7 2.8-2 .4-1.5 3.7-2 4-2-1-4 1.5-4.5 2-1.6-2.2-5.5-1.3-5.9 1.3-.2.7.4-2.2.3-3-.1-2.8-4-4-5.8-2-.5 1-1.5 3.2-1.6.8 1-1.8-.7-3.8-.2-5.2 2.5-.8 4.4 1.4 6.7 1.7 2.4.2 3.5-2.2 3.7-4.2.4-2.8 3.2-4 5.6-4.9 3.2-1.3 5-4.7 5.2-8 0-4.8-4.4-7.8-7.7-10.8-1.8-1.6-3.9-3.4-3.6-6 0-5.7 2.5-11.2 2-17-.3-1.2-1.1-3.2 0-1a18 18 0 0 1 1.8 9.4c.3 2.6 4.3 3.7 5.9 1.5 1.2-1.8.8-4 1.1-6z" fill="#ed9718" id="path33"/><path d="M346.5 365.4c37.9 17 80.4 27.8 122.2 20.7 26-4.2 50.5-15 71.8-29.9-30 25.4-70 41.7-110 37.7-29.8-3-58.2-14-84-28.5" fill="#f8c300" id="path34"/><path d="M335 367.8c5.3 12.8 19.2 19.2 31.6 24a219 219 0 0 0 94.7 10.2c24-2.8 49-8.5 68.3-23.4a47 47 0 0 0 15.5-20.6c-5.3 19-23.3 31.2-41 38.7a180 180 0 0 1-113.6 6.5c-18-4.9-36.7-11.4-49.8-25.1a25 25 0 0 1-5.7-10.3" fill="#f8c300" id="path35"/><path d="M326.8 367.3c-3.2 13.7 7.6 25.8 19 32 24.4 13.6 53 17.3 80.5 18.3 33 .5 67-4 96.7-18.7 16.3-8.3 32-22.2 33.7-41.2.4-9 .5 6.5-1 9.1-5.8 20.8-25.7 33.8-44.7 42.1a205 205 0 0 1-144.4 3.5c-15.5-6-32.6-14.2-39.3-30.2a24 24 0 0 1-.5-14.9" fill="#f8c300" id="path36"/><path d="M532.7 403a36 36 0 0 0 18-11.6 52 52 0 0 0 12.8-25.4c.6-3.7 1-7.7-.8-11-1-1.3 2 .7 2 1.5a25 25 0 0 1 2.4 13.8 33 33 0 0 1-7.7 20 40 40 0 0 1-21.2 12.4 21 21 0 0 1-5.5.3" fill="#f8c300" id="path37"/><path d="M547.4 402.6a23 23 0 0 0 17-7.3 38 38 0 0 0 8.9-26.5c-.2-5.8-1-11.9-3.9-17.1-.6-1-1.4-1.7 0-.7 3.7 3 5.6 7.7 7.2 12 2.2 7.1 3 15 .8 22.1A27 27 0 0 1 558 403a24 24 0 0 1-10.6-.3" fill="#f8c300" id="path38"/><path d="M559 406.3a47 47 0 0 0 28-34.8c1-6.6.3-14-4.1-19.5-.7-.9-4.1-3.3-1.4-1.9 5.6 3 8.3 9.3 9.3 15.1a32 32 0 0 1-7.3 26.5 45 45 0 0 1-24.5 14.6" fill="#f8c300" id="path39"/><path fill="#ed9718" id="rect39" d="M561.3 320.7h4v15.8h-4z"/><path fill="#ed9718" id="rect40" d="M543 322.6h4v15.8h-4z"/><path fill="#ed9718" id="rect41" d="M552.2 321.5h4v15.7h-4z"/><path d="M584.1 302.3c-5-.3-9.4 2.8-14 4.3-7.8 3-16.1 6.3-24.8 5.7-5.9-.1-12-1.7-17.7 0-4 1-5.9 5.3-5.9 9.1l-.2 3.6c1.7-2.5 3-5.8 6.3-6.8 2.8-.3 4.1 2.8 5 4.9.7 2.6-2.2 4.4-4.2 5.6-1.8 1.3-4.8 1.8-6.2 3 0 2.1 1.7 1.3 3.2.6 3.4-1.5 7.4-3.2 9-6.8 1.1-2.9-1.2-5.6-2.9-7.8-2.5-3.4-5.4-1.9-7.3.1.8-3 4.3-4.3 7.3-4.3 8-.2 16.1 2 24-.1 8.3-1.8 16-5.3 23.8-8.5 2.6-1 6.5-1.2 8 1.6a5.7 5.7 0 0 1-2.4 7.7c-2.7.5-2.4-3.6-3.7-4-2.6-.4-.9 2.6-.3 3.8a4 4 0 0 0 6.9.5c3.1-3 3-9-1-11.3a7 7 0 0 0-2.9-.9" fill="#ed9718" id="path41"/><path d="m446 157.7-.4 220.8h4.8l-.4-220.8z" fill="#faeb00" stroke="#ed9718" stroke-linecap="round" stroke-linejoin="round" stroke-width="1.00001" id="path42"/><path d="M443.7 227.4h8.6a1.5 1.5 0 0 1 1.6 1.3v.4a1.5 1.5 0 0 1-1.6 1.3h-8.6a1.5 1.5 0 0 1-1.6-1.3v-.4a1.5 1.5 0 0 1 1.6-1.3" fill="#faeb00" stroke="#ed9718" stroke-linecap="round" stroke-linejoin="round" stroke-width="1.00001" id="path43"/><path d="M453.7 225.5c0 1.7-2.5 3-5.7 3s-5.8-1.3-5.8-3 2.6-3 5.8-3 5.7 1.3 5.7 3" fill="#faeb00" stroke="#ed9718" stroke-linecap="round" stroke-linejoin="round" stroke-width="1.00001" id="path44"/><path d="M452.6 220.7c0 1.3-2 2.4-4.6 2.4s-4.6-1-4.6-2.4c0-1.2 2-2.3 4.6-2.3s4.6 1 4.6 2.3" fill="#faeb00" stroke="#ed9718" stroke-linecap="round" stroke-linejoin="round" stroke-width="1.00001" id="path45"/><path d="M451.7 154.3a3.8 3.8 0 0 1-7.5 0h0a3.8 3.8 0 0 1 7.5 0" fill="#faeb00" stroke="#ed9718" stroke-linecap="round" stroke-linejoin="round" stroke-width="1.00001" id="path46"/><path d="M559.3 256.7a3.4 3.4 0 0 0-1 6.7v17.8h2v-17.8a3.4 3.4 0 0 0-1-6.7Z" fill="#faeb00" stroke="#ed9718" stroke-width="1.00001" id="path47"/><path d="M492.9 282.6c10.7 1 12.8-3.7 20.9-5 2.2-.4 3.5 2.1 6.3 2.2 3 0 10.2-9.5 16.7-10.3 2.1-.2 4.1 3.1 6.6 2.2 2.2-.9 5.6-9 15.2-8l-.3 5.2c-11.9 1.6-8.7 10.7-15 11.2-2.6.2-4.3-4-7-3.8-5.5.5-7.7 9-13.2 10-3.4.6-5.3-3.4-9.6-3-8.8.8-10 8.1-20.6-.7" fill="#faeb00" stroke="#ed9718" stroke-linecap="round" stroke-linejoin="round" stroke-width="1.00001" id="path48"/><path d="M443.4 377.6 399 438c2.4 3 6.4.8 9.5-1.8l36.1-58.2Z" fill="#faeb00" stroke="#ed9718" stroke-width="1.00001" id="path49"/><path d="M464.3 374.9 426.4 437c-1.7 3.3 3.9 4.8 6.8 1.7l32.5-63.7Z" fill="#faeb00" stroke="#ed9718" stroke-width="1.00001" id="path50"/><path d="m380.5 361.1-70 57c3.1 1.8 11.5 1 15.1-3l56.2-53.2Z" fill="#faeb00" stroke="#ed9718" stroke-width="1.00001" id="path51"/><path d="m401.5 367.8-65.1 62.6c5.6.3 11.2.3 14.5-4.1l51.8-57.6Z" fill="#faeb00" stroke="#ed9718" stroke-width="1.00001" id="path52"/><path d="M421.2 374.3 365.4 436c3.2 3.2 8.4 1.3 11.3-3l45.6-57.8Z" fill="#faeb00" stroke="#ed9718" stroke-width="1.00001" id="path53"/><path d="m483 372.7-32.2 71.5c-2 4.1 3.7 4.6 6.2 1l27.2-72.2Z" fill="#faeb00" stroke="#ed9718" stroke-width="1.00001" id="path54"/><path d="m503 366-26.5 79.1c-2 6.7 5.8 4.5 7.8.6l19.6-79.4Z" fill="#faeb00" stroke="#ed9718" stroke-width="1.00001" id="path55"/><path d="M446 158.8c-11 9-16.4-1.6-23.2.4-11.2 3.2-11.5 15.1-23.8 10.3 3.3 19.2 1.8 39 2.7 58.5 2 1 5-6.4 7.5-7 4.6-1 5.7 1.3 8.4.7s4.4-3.8 7-4.4c2.5-.5 5 1.5 7.4 1 5.4-1.2 6.8-8 13.9-8.7a198 198 0 0 1 0-50.8Z" fill="#faeb00" stroke="#ed9718" stroke-width="1.00001" id="path56"/><path d="M319.2 309.8q-.1 1.1-2.4 1.2c-1.3 0-2.4-.5-2.4-1.2q.2-1 2.4-1.1c2.2-.1 2.4.5 2.4 1.1" fill="#d20000" id="path57"/><path d="M439.8 184.3a3 3 0 0 0-2 0 3 3 0 0 0 1.8-2.3l-1.7.3a3 3 0 0 0 1-2.4 4 4 0 0 0-1.9.6 2.5 2.5 0 0 0 .7-3.6l-2.3 2.7a8 8 0 0 0 1.4-2.8c.2-.9 0-2.3-1-2.7a33 33 0 0 1-2.5 5.4l-.4-.2a5 5 0 0 1-1.2 2.2l-.3-.3c-.5 1-2 2.5-2.5 3.3a1 1 0 0 0 .4 1.6 1 1 0 0 1 .4 1.2 1.5 1.5 0 0 1-2.4.4 1 1 0 0 0 .4-1.9 1 1 0 0 1-1.2.6l-.8-.4a1 1 0 0 0 1.2-1 1 1 0 0 1-1.3 0 2 2 0 0 1-.6-1.6 4 4 0 0 1 1-2h.4l.5-.2h1.2a1 1 0 0 1 .5.8q1-.9-.6-1.3l1.4.6a1 1 0 0 0 1.3-.1 1 1 0 0 0 .4-1.2l-.5.6-1.5-.2h-1.3a2 2 0 0 1 2.2 0l.3-.8a1.3 1.3 0 0 0-1.6-1.4.3.3 0 0 0-.4-.2l-.1-.2a3 3 0 0 0 2-1c.7-1-.6-1.8-.3-2.7l1.4.4.2.4c.3 1-.6 1.2-.3 2l.7 1.1-.2.7a1 1 0 0 0 .8-1.3l-.5-.7a1 1 0 0 0 1.4.2q.3 0 .2.5a1 1 0 0 0 .4-.8.5.5 0 0 0-.7-.4c-.2 0-.5.3-.6 0-.1-.6.8-.7.5-1.6a2 2 0 0 0-1.5-.6l-.5-.4q-.8-1-1.3-.7l-.7.6-.5.4a2 2 0 0 0 .3 1.5l.5 1.1a2 2 0 0 1-1.4 1.1l-.1-.2.3-.8q.2-1.4-1.1-1.3h-.3v.1h-.2v-.2l.1-.3-.1-.2-.1-.2.2.1v-.8h-.1l-.1.2h-.1l.1-.2h-.8v.1l.2.1v.1l-.2-.1v.7h.1l.2-.1v-.1l-.1.2v.3l.2.3v.2h-.1v-.2l-.4.1q-1.2.4-.7 1.5l.4.8v.1a7 7 0 0 1-2.6-1.2l-.1-.1v-.6l.4-1.5c.4-1.3-.4-1.7-1.5-1.8h-.5v.1h-.2v-.2h-.2l.2-.5-.2-.3h.2l-.4-.5.5.3-.1-1-.5.3.3-.4h-1l.3.5-.5-.3.2 1 .4-.3-.3.5h.2l-.1.3.3.5h-.2v.2h-.2v-.1l-.4.1c-1.1.3-1.8 1-1.1 2.2l.8 1.3v.6a7 7 0 0 1-2.3 2v-.2l.3-.9q.2-1.2-1.1-1.3h-.3v.2h-.2v-.8h.1l-.3-.2.3.2v-.8l-.3.2.2-.3-.8.1.2.3-.3-.2.1.8.3-.3-.2.3v.3l.2.2v.2h-.1v-.1h-.4q-1.2.4-.7 1.6l.4.8v.2a2 2 0 0 1-1.6-.8l.1-1.2a2 2 0 0 0 0-1.5l-.6-.3-.8-.4q-.6-.1-1.1 1l-.4.4a2 2 0 0 0-1.3 1c-.1 1 .8.8.8 1.4q-.1.3-.5.1a.5.5 0 0 0-.6.6 1 1 0 0 0 .6.7q-.3-.4 0-.6a1 1 0 0 0 1.3-.4l-.3.8a1 1 0 0 0 1 1l-.3-.6.4-1.1c.2-1-.8-1-.7-2l.1-.5 1.2-.6c.6.7-.5 1.9.3 2.6a3 3 0 0 0 2.2.5h.1v.3a.3.3 0 0 0-.4.3 1.3 1.3 0 0 0-1.3 1.7l.5.6a2 2 0 0 1 2.2-.5l-1.3.4-1.4.5-.6-.4a1 1 0 0 0 .7 1 1 1 0 0 0 1.2-.2l1.3-.8q-1.6.6-.3 1.4a1 1 0 0 1 .3-1l1.1-.2.5.2.4-.3a4 4 0 0 1 1.4 1.8 2 2 0 0 1 0 1.7 1 1 0 0 1-1.4.2 1 1 0 0 0 1.4.8l-.7.5a1 1 0 0 1-1.3-.2 1 1 0 0 0 .8 1.7 1.5 1.5 0 0 1-2.4.2 1 1 0 0 1 .1-1.2 1 1 0 0 0 0-1.7c-.6-.7-2.4-1.8-3.2-2.7l-.1.4a5 5 0 0 1-1.8-2l-.3.4a34 34 0 0 1-3.7-4.7c-1 .6-.7 2-.3 2.8a8 8 0 0 0 2 2.4c-.4-.2-2.5-1.9-3-2a2.6 2.6 0 0 0 1.6 3.3 4 4 0 0 0-2-.2 3 3 0 0 0 1.6 2 4 4 0 0 0-1.8.2 3 3 0 0 0 2.2 1.8 3 3 0 0 0-1.8.5 2 2 0 0 0 2.2 1.4 3 3 0 0 0-1.6 1 2 2 0 0 0 2 .6l-.6.5h-.1v.1l-.1.3-.2.4.1.2v.2l-.6-.2a1 1 0 0 0 .5 1l.3.3.6.3a.3.3 0 0 0 .5 0v.1l.4.4q0 .3.4.4l2.7 4.8a.4.4 0 0 0 .2.5v.2h.3l.2.8.4.6.2.6-.3 1 .3.3a.5.5 0 0 0 .7.6l.6.4.5.2q-.2.5.4.7l.4.2.5.1v-.5l-.3-1-.1-.4.7-.5a5 5 0 0 1 2.4-1.3l1-.1 1.1-.3.1-.2-.4-.6-.2-.3h.7a1 1 0 0 0 .4-1c-.3.2-1 .5-1.2-.2a1 1 0 0 1 1.4-1.2c.6.1 1.7 1.4 1 2a1.4 1.4 0 0 0-.9 1.4 1 1 0 0 1 1-.5l-1.8 1.1-1.5 1.2q-.7 0-.3-.7a1 1 0 0 0-1 .7 1 1 0 0 0 .5 1 1 1 0 0 0-.5 1.5c.2.5.8.5.6 1.2l.6-.6v-.6a1.4 1.4 0 0 0 1 1.2 1.3 1.3 0 0 0 1.5-.4 2 2 0 0 0 1.7.9l.8-.4a2 2 0 0 0 1.1 1 2 2 0 0 0 1-1.2l.8.1a2 2 0 0 0 1.4-1.1 1.3 1.3 0 0 0 1.6 0 1.4 1.4 0 0 0 .6-1.4l.3.5.6.5c-.3-.6.3-.7.4-1.3a1 1 0 0 0-.8-1.3 1 1 0 0 0 .1-1.1 1 1 0 0 0-1-.5q.5.6-.2.8l-1.7-.8-2.1-.7a1 1 0 0 1 1.2.3 1.4 1.4 0 0 0-1.2-1.2c-.9-.5-.1-2 .5-2.2a1 1 0 0 1 1.6.9c0 .7-.8.6-1.2.5a1 1 0 0 0 .7.7h.9v.1c0 .7-.4.8-.2 1h1.6q.8 0 1.6.3l1.8.1 1 .5c.6 0 .5.2.8.2l.8-.5h.8l.4-.5.6-.3v-.4a2 2 0 0 0 .8-1.2l.2-.2v-.4l-.1-.4-.1-.2a2 2 0 0 0-2-1.6l-.4-.5.6.3-.2-1.1-.4.4.3-.6-1.2.2.4.4-.5-.3v1.2l.5-.4-.3.5a2 2 0 0 0-1.5 2v.2a.2.2 0 0 0 0 .4l.1.3a.2.2 0 0 0 .3.2l.1.3-.5.6a5 5 0 0 1-2.3-.2l-1-.5-.2-.5.4.2v-.3a1 1 0 0 0 1 .3 1 1 0 0 1-.4-1 1 1 0 0 0 1.6-.5.5.5 0 0 1-.8-.1c-.2-.3.1-1.2-.3-1.9a2 2 0 0 0-1.6-.7l.1-.3a1.3 1.3 0 0 1-1.7-.4h.6a2.4 2.4 0 0 1-.5-2.6l.1-.1.9.4.2-.2.3 1.7c0 .5.6.4 1 .6.2-.4.8-.4.6-1l-.4-1.6 1 2.1c.3.6.8.3 1.2.5.2-.4.7-.6.4-1.2l-1.3-2.2 1.7 2.3c.3.5.9.2 1.3.3 0-.4.5-.8 0-1.4l-2-2.1 2.5 2.2a2 2 0 0 0 1.3 0 1 1 0 0 0-.3-1.3l-1.7-1.2 2 1a2 2 0 0 0 1.3-.3c-.3-.7 0-1-1.8-1.6 1.6.4 2.2 0 2.6-.4a2 2 0 0 0-1.2-1 2 2 0 0 0 1.7-1 3 3 0 0 0-1.8-.7 2 2 0 0 0 2-1.8m-23.3 12.5.1.3a2 2 0 0 0-1.3 1c-.3.8.2 1.6.2 2a.5.5 0 0 1-.8.3 1 1 0 0 0 1.7 0 1 1 0 0 1-.1 1.1 1 1 0 0 0 .8-.4v.2l.4-.3.1.5-.5.4-1.6.7a1 1 0 0 1-1.2-.5q-.4-.6-1-.2h-.3l-.3-.2-.2-.6-.5-.6q-.2-.1 0-.2l-.2-.1a.4.4 0 0 0-.4-.5l-2.5-4-.2-.2-.3-.4a.3.3 0 0 0-.1-.5v-.1l.2-.1 1.7-1.4-1.4 1.4a1 1 0 0 0 0 1.1v.2a2 2 0 0 0 1.3-.2c.1-.1 1.6-2.5 1.9-2.7l-1.5 2.5c-.3.7.3 1 .4 1.3q.7 0 1.2-.5c.2-.5.9-2.2 1.2-2.6l-.9 2.4c-.1.7.5.7.7 1.1.3-.3 1-.2 1.1-.8l.4-2.2v1.6c0 .6.5.5.9.8q.6-.1.8-.8v-1.7l.2.2.7-.6h.1c.6.7.8 2.2.2 2.8l.6-.2a1.2 1.2 0 0 1-1.6.7m4.3 9.3c-.5 0-1-.2-.7-.7l.6.3zm7.5-1.6q.3.7-.5.8l-.1-.4zm-6.5-1.4-.7 1.6q-.7-.2-.3-.8c.2-.5 1.3-1.3 1.8-2.1zm1.4.8a10 10 0 0 0 0 3c-.9-.3-.6-2-.3-2.8a12 12 0 0 0 .5-3.1c.3.6 0 2.3-.2 3m2.4 2.7a10 10 0 0 0-.7-2.9c-.3-.6-1-2.2-.9-2.8a12 12 0 0 0 1.3 3c.4.6 1 2.2.3 2.7m1.7-3.4q.4.6-.1.9l-1.1-1.4-1.1-1.2c.6.7 2 1.2 2.3 1.7m-3-24.2a2 2 0 0 1-1.4 0l1 .5a3 3 0 0 1-2 1 1 1 0 0 0 .9.2 8 8 0 0 0-1 4 8 8 0 0 0-1.9-3.7 1 1 0 0 0 .9-.4 3 3 0 0 1-2.2-.5l.8-.7-1.3.3a2 2 0 0 0 1.4-1.2l-2 .4a6 6 0 0 0 2.7-1.7l1.4-.1a6 6 0 0 0 3 1h-2a2 2 0 0 0 1.7.9" id="path58"/><path d="M406.7 192.7h-.2z" fill="gold" id="path59"/><path d="m412.2 201.7.3-.4q.2.3-.2.6t-.6-.1z" fill="gold" id="path60"/><path d="M412.2 200.9a.4.4 0 1 1-.7.4l-.2-.6a.3.3 0 1 0 .4-.2z" fill="gold" id="path61"/><path d="M411.6 200.5v.2h-.2z" fill="gold" id="path62"/><path d="m411.4 200.3.2-.4a.3.3 0 0 1-.1.5.3.3 0 0 1-.5 0z" fill="gold" id="path63"/><path d="m407.9 195 .3-.2v.3z" fill="gold" id="path64"/><path d="m407.8 194.2.3.2a.3.3 0 0 1-.3.4l-.3-.3z" fill="gold" id="path65"/><path d="m408.2 195.3.1-.1 3.1 4.7v.3h-.4z" fill="gold" id="path66"/><path d="M406.4 192.4q-.3-.3 0-.4.1-.2.2.3z" fill="gold" id="path67"/><path d="M406.9 192.4q-.3-.2-.1-.3t.2.2z" fill="gold" id="path68"/><path d="M407.6 192h.1v.4l.1-.3.1.1-.2.4.3-.3v.1l-.2.3.2-.2v.2l-.2.1h.3v.1h-.3.2v.2h-.4.3v.2a.2.2 0 0 0-.3.3h-.1v-.6h-.1.2a.3.3 0 0 0-.1-.5z" fill="gold" id="path69"/><path d="M407.4 193.6h.2a.4.4 0 0 0 .5.2l-.2.2-.5-.1v.4a.2.2 0 0 1-.4 0l.1-.4v-.2z" fill="gold" id="path70"/><path fill="gold" id="polygon70" d="m406.4 194 .6.3z"/><path d="M406.2 193.3a.3.3 0 0 0 .4.3v-.2h.1l.2.3h.2v.2h-.5v-.2l-.1.3h-.2l.1-.3-.1.3h-.2l.2-.3-.2.2-.2-.1.3-.2-.3.1-.1-.1h.4l-.5-.1v-.2h.4-.4v-.2z" fill="gold" id="path71"/><path d="m407.2 193 .3.3-.2.4h-.4l-.2-.5z" fill="gold" id="path72"/><path d="M406.7 193.1h-.5v-.1l.3-.2.3.1v-.3l.2-.1h.3l-.2.1-.1.3v.1z" fill="gold" id="path73"/><path d="M406.2 192.7q-.1-.1 0-.2l.2.2z" fill="gold" id="path74"/><path d="M415.1 206.2a.1.1 0 0 1-.2 0l.3-.1z" fill="gold" id="path75"/><path d="M415 206a.3.3 0 0 1-.5 0l.6-.3z" fill="gold" id="path76"/><path d="M414.6 205.6a.4.4 0 0 0 .3-.5q.3.4-.2.6-.4.3-.7-.1z" fill="gold" id="path77"/><path d="M413.7 203.2a4 4 0 0 1 1.1 1.8l-.3.5-.5-.1a.4.4 0 0 0 .5-.6l-.2-.6-.1.4h-.3v-.2a.4.4 0 0 0 0-.6l-.2.3v-.1l.1-.2.1-.1z" fill="gold" id="path78"/><path d="m413 202.4-.1.3.2.7-.3.2-.7-1.4.5-.3z" fill="gold" id="path79"/><path d="M435.8 200.3h-.1z" fill="gold" id="path80"/><path d="M437 200.4h-.2v-.2z" fill="gold" id="path81"/><path d="M438.1 199.2a23 23 0 0 0-4.4.6.1.1 0 0 1 0-.2 21 21 0 0 1 4.3-.5z" fill="gold" id="path82"/><path d="m435 197 .2 1.5-1.5.3a2 2 0 0 1 1.3-1.8" fill="gold" id="path83"/><path d="M436.2 198.8h-.2v-.2z" fill="gold" id="path84"/><path d="M436.7 198.7h-.2z" fill="gold" id="path85"/><path d="m437.3 198.7-.1.1-.1-.1Z" fill="gold" id="path86"/><path d="m437.9 198.7-.2.1-.1-.1z" fill="gold" id="path87"/><path d="m437.6 199.2.2-.2v.2z" fill="gold" id="path88"/><path d="m437.1 199.2.1-.1h.1z" fill="gold" id="path89"/><path d="m436.6 199.2.2.1Z" fill="gold" id="path90"/><path d="m436 199.3.1-.2.2.1z" fill="gold" id="path91"/><path d="m435.5 199.3.1-.1h.2Z" fill="gold" id="path92"/><path d="M435 199.4h.2z" fill="gold" id="path93"/><path d="m434.4 199.5.1-.1h.1z" fill="gold" id="path94"/><path d="M434 199.6h.1z" fill="gold" id="path95"/><path d="M434 199v.2h-.2z" fill="gold" id="path96"/><path d="m434.6 199-.1.1h-.2Z" fill="gold" id="path97"/><path d="M435 198.9h-.1z" fill="gold" id="path98"/><path d="M435.6 198.7v.2h-.2q.3 0 .2-.2" fill="gold" id="path99"/><path d="M435.5 198.2h.1v.2Z" fill="gold" id="path100"/><path d="m435.4 197.6.2.1-.1.2z" fill="gold" id="path101"/><path d="m435.4 197.1.1.1v.1z" fill="gold" id="path102"/><path d="m436 197.3-.2-.1.1-.2Z" fill="gold" id="path103"/><path d="m436 197.8-.2-.1.2-.2z" fill="gold" id="path104"/><path d="m436 198.3.1-.3z" fill="gold" id="path105"/><path d="m433.7 199.2.2.2-.2.2-.2-.2z" fill="gold" id="path106"/><path d="M433.7 199.6a.1.1 0 0 0 .2-.2z" fill="gold" id="path107"/><path d="m438.2 199-.1.1-.3-.1a.2.2 0 0 1 .2-.3.2.2 0 0 1 .2.3" fill="gold" id="path108"/><path d="M438 199a.1.1 0 0 0 .2-.1z" fill="gold" id="path109"/><path d="M435.9 198.6a.1.1 0 0 0 0-.2z" fill="gold" id="path110"/><path d="m436 198.5-.2.2-.2-.2.2-.2z" fill="gold" id="path111"/><path d="m435.8 198.1.1-.2z" fill="gold" id="path112"/><path d="m436 198-.2.2a.2.2 0 0 1-.3-.2l.2-.2z" fill="gold" id="path113"/><path d="M435.7 197.6a.1.1 0 0 0 .1-.2z" fill="gold" id="path114"/><path d="M436 197.4a.2.2 0 0 1-.3.3l-.2-.2a.2.2 0 0 1 .2-.3z" fill="gold" id="path115"/><path d="M435.9 196.9a.2.2 0 0 1-.2.3.2.2 0 0 1-.3-.3l.2-.2a.2.2 0 0 1 .3.2" fill="gold" id="path117"/><path d="M435.3 199.3a.1.1 0 0 0 .2-.2z" fill="gold" id="path118"/><path d="M435.5 199a.2.2 0 0 1-.2.3l-.2-.2.2-.2z" fill="gold" id="path119"/><path d="M434.8 199.4a.1.1 0 0 0 .1-.2z" fill="gold" id="path120"/><path d="m435 199.2-.2.2a.2.2 0 0 1-.3-.2l.2-.2a.2.2 0 0 1 .3.2" fill="gold" id="path121"/><path d="M434.2 199.4a.1.1 0 0 0 .2-.1z" fill="gold" id="path122"/><path d="m434.4 199.3-.1.2a.2.2 0 0 1-.3-.2l.2-.2z" fill="gold" id="path123"/><path d="M437.5 199h.1" fill="gold" id="path124"/><path d="M437.4 198.7a.2.2 0 0 1 .3.2l-.2.2-.2-.2z" fill="gold" id="path125"/><path d="M437 199.1a.1.1 0 0 0 0-.2z" fill="gold" id="path126"/><path d="M437.2 199a.2.2 0 0 1-.3.2l-.2-.2.2-.2z" fill="gold" id="path127"/><path d="M436.4 199.1a.1.1 0 0 0 .1-.2z" fill="gold" id="path128"/><path d="m436.6 199-.2.2-.2-.2.1-.2a.2.2 0 0 1 .3.2" fill="gold" id="path129"/><path d="M435.9 199.2a.1.1 0 0 0 .1-.2z" fill="gold" id="path130"/><path d="m436 199-.1.2a.2.2 0 0 1-.3-.2l.2-.2a.2.2 0 0 1 .3.2" fill="gold" id="path131"/><path d="M433.5 199h.1l1.8-.4-.2-1.7h.1v.1l.2 1.8-1.8.2-.1.1" fill="gold" id="path132"/><path d="m436 196.7.3 1.8 1.7-.1h-.1l-1.7.2z" fill="gold" id="path133"/><path d="M435.6 195.8c0 .3.4 0 .5-.1v.6l-.4-.2q-.2.3.2.5h-.6l.1-.4q-.2-.1-.5.2v-.6l.4.2q.2-.3-.2-.5h.6v.1z" fill="gold" id="path134"/><path d="m437.9 198.3-1.5.1-.1-1.5a2 2 0 0 1 1.6 1.4" fill="gold" id="path135"/><path d="m438 199.5-.6 1-.3-.1-.5-.3.1.4v.5h-.3l-.4-.6a.4.4 0 0 0-.5-.3l.1.3a.5.5 0 0 0-.3.7 2 2 0 0 1-1.4-1.1 18 18 0 0 1 4-.5" fill="gold" id="path136"/><path d="m437.3 199.8-.2.2z" id="path137"/><path d="m437.4 199.7-.2.4z" id="path138"/><path d="m437.7 199.7-.4.5z" id="path139"/><path d="m436.6 201.3-.2.3-.8.2.6-.3.1-.2z" fill="gold" id="path140"/><path d="m437.1 201-.5.3v-.2h.3a.3.3 0 1 1 .2 0" fill="gold" id="path141"/><path d="M414.3 205.1h-.7l-.2-.1v-.1l.1.1h.2v-.1l.2-.2c.2 0 .6.1.4.4" fill="gold" id="path142"/><path d="M412.5 204.1v.2l.2-.1v.2h.4l.5-.2a.2.2 0 0 1 .2.3q-.1.3-.5.2t-.8-.2l-.2-.4z" fill="gold" id="path143"/><path d="M412.2 203.1q.3.3-.1.6l.1-.2.2.2.2.1v-.1l.3.1.3-.2.3.2q.1.3-.2.4l-.7-.3h-.5c-.4-.1 0-.6 0-.8" fill="gold" id="path144"/><path d="m419.5 201.5.4.4q.2.3-.3.4l-1.4.1h-.4l-.1-.2a.3.3 0 0 1-.2.4l-.1-.3a.2.2 0 0 1-.2.4l-.1-.3q0 .3-.2.4l-.1-.3a.3.3 0 0 1-.2.5l-.2-.3q.1.4-.1.4l-.1-.2a.4.4 0 0 1-.2.5l-.1-.3-.3.6-.9.6-.4-.7h.7l.4-.3-.5.2a1 1 0 0 1-1-.4h.7l-.7-.4v-.3.3l-.4-.2-.1.1.3.2a.3.3 0 0 1-.5.4l-.1-.5.4-.6a.3.3 0 0 1 .6 0 1 1 0 0 0 1 .8 3 3 0 0 0 1.6-.6h.3a.1.1 0 0 0 0-.2h.3v-.1q.2-.2.3 0v-.2l.2-.2a1 1 0 0 0 .6-.8l.4.7.2-.5.4.1z" fill="gold" id="path145"/><path d="m429.8 200.3.3.2v.2h.2v.1a.2.2 0 0 1 .4 0v.1q0-.2.3 0h.1l1.2.2a2 2 0 0 0 1.8-.6l.2.2h-.2c0 .1.5.1.3.4h-.2.2-.2v.2h1l-.7.3.1.1h.2l.2.2v-.2l.2.1v-.3l.2.1v-.3.2-.3h.2a.4.4 0 0 1 0-.6.3.3 0 0 1 .6.1v.4l-.3.2-1 .9-.6-.2-1.2-.5h-1l-.2-.2v.1a.2.2 0 0 1-.3-.2v.2a.2.2 0 0 1-.3-.2v.2a.2.2 0 0 1-.3-.2v.2a.2.2 0 0 1-.3-.3v.2a.3.3 0 0 1-.4-.3v.2l-.3-.2v.2q-.3 0-.2-.4l-.1.4h-1.5l.2-1.2.4.4.2-.7a1 1 0 0 0 .8.6" fill="gold" id="path146"/><path d="m413.2 202.3-.1-.2h.3z" fill="gold" id="path147"/><path d="m413.3 204.9-.3-.2z" fill="gold" id="path148"/><path d="M423.5 198.4a2 2 0 0 0-1.6-1l-1.4.1a1.3 1.3 0 0 1-1.6-1.3l-1-8.4 4.2-.5 4.3-.5 1 8.4a1.3 1.3 0 0 1-1.2 1.7l-1.4.2a2 2 0 0 0-1.3 1.3" fill="#d20000" id="path149"/><path d="M422.8 190.3v.4l.3-.2v-.2z" id="path150"/><path d="M426.6 195.4h-.3v.2h-.3v.1h.3l.1-.1zl.2-.1h.1l.2-.1v.5l-.4.1-.3.2h-.5l-.2.2-.2-.2h-.4l-.4.7h-.8l-.7.2c-.1-.4-1-.1-1-.1l.3-.3-.5-.2-1 .3a1 1 0 0 1-1-.5l-.1-.5-.3-.3h.4l.1.2.1.4.4.2v-.5h-.2l.2-1v-.9l.3-.3-.2-.8v-.5h-.3q-.2.2 0 .5l-.2 1.1v-.4l-.3.7v-.3l-.3.6-.1-.8h-.1v-.5a2 2 0 0 1 .1-1.3q.5-.7 1.3 0l.8-.5-.3-.4.5-.1v-.1l-.7-.1-.2.2h-.2v.1h-1.1l.2-.4-.3-.1v-.3l-.3-.2.4-.6.6-.5v-.8l-.1-.3h.1l.2.2h.1l.2.3v.4l1.2.2v-.2h-.4l-.2-.2.2-.3.4-.2c.3-.4 1 0 1 .5l-.3.3-.2.3.3.3.1.4.3-.1h.1l.1-.2h-.2l.3-.3.1-.2h-.1l.4-.3h-.1l.5-.2-.2-.2.6-.1h.3l.3.3h.1v.2l.5.2h-.3l.2.4.3 1v.2s-.7.5-.7.3l-.2.2.4.8v.4c.3 0 1-.5 1.2-.2v.7l-.3.9-.2.2h-.4l.1-.6h.3v-.2l.1-.5c0-.2-.8.3-1.2.4l.4.9.1.5.3.6.2.3h.2q.3-.5.6-.4l.1.1h-.2v.2l-.1.1h-.1z" id="path151"/><path d="m423.5 189.2.3-.2h-.3l.6-.2h-.3l.5-.2-.2-.2a1 1 0 0 1 1 .3l-.3.1.4-.1-.2.2.3.6h.2l.4.8v.3l-.3.1-.2-.2-.1-.1-.6-.4v-.5 1.1l-1.6-.6-.1.1v.2q-.2-.1-.1-.3l.2-.1.1.1.2-.2h-.1l.2-.3h-.2z" fill="#fff" id="path152"/><path d="m421.8 188.1.3-.1h.4q.6.4.3.7h-.3v.1h-.1v-.1h.1v.1l-.2.3-.4-.4v-.1l-.2.1h.1-.2q-.2 0-.2-.2z" fill="#fff" id="path153"/><path d="m421.2 196.3.2-.2v-.4a1 1 0 0 1 .7-.6l.7.2.6.2v-.2l-.3-.1-.3-.3-.8-.5v-.4l-.1-.3-.8.7a2 2 0 0 0-.2 1.5z" fill="#d20000" id="path154"/><path d="M424.1 195.4h.2l-.7-1.2-.1-.3h-.2l-.1-.5h-.2v.1l-.4.8.7.6.4.2z" fill="#d20000" id="path155"/><path d="m424.3 195.1.2-.3h.3v.1h.2v.1q.1 0 0 0v.5l.2-.5v-.2l-.2-.1.3.1q-.1-.1 0-.2v.1l.3.3v.1l-.6-1-.1-.3a1 1 0 0 0-.9-.7h-.2l.2.5q.4 0 .4.2h-.4q-.1.1-.2 0h-.2l.1.3z" fill="#d20000" id="path156"/><path d="m424.7 190 .1.6.5.1v-.3z" fill="#d20000" id="path157"/><path d="m420 189.2.2-.1.2.7h.1l-.7.8.2-.5-.3.3v.1h-.2l.6-1-.5.7h-.1l.2-.5-.2.3h-.2z" fill="#0039a6" id="path158"/><path d="m421.3 190.1.4.6-.5-.1z" fill="#0039a6" id="path159"/><path d="m421.2 189.8.1.3-.2.6-.1.2h-.2Z" fill="#0039a6" id="path160"/><path d="m421.1 189.7-.3.8-.2.4h-.3l.6-1.1v-.2z" fill="#0039a6" id="path161"/><path d="M420.6 189.8h.3l-.7 1.2h-.1l.1-.3v.1l-.2.2h-.3z" fill="#0039a6" id="path162"/><path d="M421.3 189.7h.2v.4Z" fill="#0039a6" id="path163"/><path d="M420.8 188.9a2 2 0 0 1 1.3.3q.2.3 0 .4l-.1-.3-.4-.2h-.6Z" fill="#0039a6" id="path164"/><path d="m420.6 188.9.2.3h-.1z" fill="#0039a6" id="path165"/><path d="M423.7 193.1v.3l-.1-.2Z" fill="#d20000" id="path166"/><path d="m423.5 192.6.2.5h-.2z" fill="#fff" id="path167"/><path d="M425.3 191.5a1 1 0 0 1 0 1z" fill="#fff" id="path168"/><path d="M425.3 188.9h.3-.2" fill="#fff" id="path169"/><path d="m423.2 191.1.2.7-.1.2-.4-.7z" fill="#d20000" id="path170"/><path d="M425.8 190.5h-.1Z" id="path171"/><path d="m423.7 189.4-.2.3Z" id="path172"/><path d="m424 189.2-.2.2q0-.1-.2 0Z" id="path173"/><path d="M424.7 188.7h-.3z" id="path174"/><path d="m425 189.5.3.2h-.1Z" id="path175"/><path d="m422.5 189.3.1.3z" fill="#fff" id="path176"/><path d="M422.2 189h.2Z" id="path177"/><path d="m422.2 188.2.3.1h.2v.3l-.1-.2zl-.2.1z" id="path178"/><path d="M422.2 188.6h.2z" id="path179"/><path d="m420.2 187.9.1.2z" fill="#fff" id="path180"/><path d="M420.2 188.5v-.2l.2-.1h.1-.1.2l-.2.1h.2l-.1.1h.1v.1h-.1v.2l.1.6h.3l.2.4h-.7v-.2l-.2-.7z" fill="#fff" id="path181"/><path d="M425.4 190.7h.1z" fill="#fff" id="path182"/><path d="m423 192.9.1.4-.3-.4z" fill="#fff" id="path183"/><path d="m423 193.4-.1.4-.4.4c0 .5 1.2.8 1.3 1l-.2.1-.4-.2-.3-.2-.8-.5v-1.1z" fill="#fff" id="path184"/><path d="m421 196 .1.2h-.4z" fill="#fff" id="path185"/><path d="m423.6 195.4.2-.1.2.1z" fill="#fff" id="path186"/><path d="m423.3 193.6.1.3z" fill="#fff" id="path187"/><path d="m423.4 192.1.4 1 .2.7h-.2v-.5z" fill="#fff" id="path188"/><path d="m424 193.6.2.2h-.2Z" fill="#fff" id="path189"/><path d="M423.6 191.7a2 2 0 0 1 1.3 0 1 1 0 0 1 .3.9l-.1.3-.1-.4v.4l.3.7.1.3.1.4.5 1-.2.1-.2-.4-.5-.9-.1-.3-.4-.5-.3-.2-.2-.1-.1-.2v.2h-.2l-.2-.5.3-.1-.3-.5a.1.1 0 0 1 0-.2" fill="#fff" id="path190"/><path d="M425 191.7a.1.1 0 0 0 .2 0l.1.8v.1z" fill="#fff" id="path191"/><path d="M425 191.6h.2z" fill="#fff" id="path192"/><path d="M425 191.5a2 2 0 0 0-1.4.1z" fill="#fff" id="path193"/><path d="M425.1 191.5h.2z" fill="#fff" id="path194"/><path d="m426.4 192 .2.1v.6l-.2.8-.3.2v-.3h.1v-.2l.1-.1v-.6l-1 .3.2-.5z" fill="#fff" id="path195"/><path d="M426 193.3v.5h-.2z" fill="#fff" id="path196"/><path d="m426.1 195.3.1.2h-.4z" fill="#fff" id="path197"/><path d="M425 191.5h-1.6l-.1-.3-.2-1a5 5 0 0 0 2 .9l.1.3z" fill="#fff" id="path198"/><path d="m423.2 190 1 .5 1 .3-.1.2-.8-.2z" fill="#fff" id="path199"/><path d="M419.7 191.9a1 1 0 0 1 1 .2v.2a.2.2 0 0 0-.4 0v1.3l-.3-.8.1.7-.2.4v-.7l-.3 1V193v.6-.3a2 2 0 0 1 0-1.4" fill="#fff" id="path200"/><path d="m420.5 188.6 3.3 5.7.7 1.2-.8-1.2Z" fill="#fff" id="path201"/><path d="M422.4 190.6h.1z" fill="#fff" id="path202"/><path d="M422.4 190.3h.2v.2h-.2z" fill="#fff" id="path203"/><path d="m422.4 190 .2.1v.2h-.2z" fill="#fff" id="path204"/><path d="M422.7 189.7c.2 0 0 .6 0 .9h-.1v-.2h.2-.2v-.3h.2-.2v-.4" fill="#fff" id="path205"/><path d="m422.7 190.7-.1-.1v-.1z" fill="#fff" id="path206"/><path d="m422.4 190.8.4.2.4 1q0 .6.3 1.1l.2.4v.3h-.1l-.9-1.6v-.3.1-.3l-.2.3-.3-.7v-.3h-.2l-.4-.6v-.7l.2.1-.1-.2h-.5l-.2-.4h.3l.7.1v.3a.1.1 0 0 0 .2 0v-.3l-.2-.2v-.2l.4.3.2.7v.2h-.2v-.2.1h-.3v-.2.9-.6h.3v.5h-.2.2zh-.1.4z" fill="#fff" id="path207"/><path d="m421.8 191 .3.4-.3-.1z" fill="#fff" id="path208"/><path d="M421.7 191a.3.3 0 0 0 .3.4l-.2.1-.2-.2-.2-.2z" fill="#d20000" id="path209"/><path d="m421.7 191.5.2 1.2.1.5.8-.3.2.4h-1l-.1.5-.8.6a2 2 0 0 0-.1 1.5l-.4.3v-.4h-.1l.2-1v-.8l.3-.4-.2-.5a1 1 0 0 1 .3-1.2z" fill="#fff" id="path210"/><path d="m422.6 192.3-.3.1a1 1 0 0 1-.5-.8l.3-.1Z" fill="#d20000" id="path211"/><path d="m423 190.6.2.5h-.3l-.1-.3Z" fill="#d20000" id="path212"/><path d="m425.2 188.9.4.4-.3.1-.2-.5" fill="#fff" id="path213"/><path d="m423.5 191.7.4.7h-.3l-.2-.4z" fill="#fff" id="path214"/><path d="m421.9 191.8.2.6h.5l.3.4-.8.3z" fill="#fff" id="path215"/><path d="m423.3 192 .2.5h-.1z" fill="#fff" id="path216"/><path d="m423.8 196.7.1.1z" fill="gold" id="path217"/><path d="M424.1 196.5h.1" fill="gold" id="path219"/><path d="M425.6 196.2h.1l.2-.3a.1.1 0 0 0-.2 0h.1z" fill="gold" id="path221"/><path d="M420 195.6v.2h-.1q0-.3-.2-.3z" fill="gold" id="path223"/><path d="M421.4 196.2v.3l.2.1-.2-.1z" fill="gold" id="path224"/><path d="m421.1 196.5.2.2zv-.3z" fill="gold" id="path225"/><path d="M421 196.4v.3l-.1-.2z" fill="gold" id="path226"/><path d="M420.6 196.3q-.1.3.2.4l-.2-.2z" fill="gold" id="path227"/><path d="M420.3 196.3v.2z" fill="gold" id="path228"/><path d="M420.2 196.3v.2z" fill="gold" id="path229"/><path d="m421.6 196.1.1.2h-.1a.1.1 0 0 1 0-.2" fill="gold" id="path230"/><path d="M421.7 195.5h.1v.1z" fill="gold" id="path231"/><path d="M420 196v.2z" fill="gold" id="path234"/><path d="M421.8 196.4h.1z" fill="gold" id="path235"/><path d="m424.2 196-.2.2q.2 0 0 0l-1 .4-.1.2h-.5l.6-.3h.2z" fill="gold" id="path236"/><path d="M424 196.3h-.1" fill="gold" id="path237"/><path d="M422.5 196.3v.2z" fill="gold" id="path238"/><path d="M422 196h.1zl-.1.3z" fill="gold" id="path239"/><path d="M422.2 196.5v-.3l.3-.1h-.3z" fill="gold" id="path240"/><path d="m422.1 195.2.3.4zh.1l.3.5v-.4.3h.2l-.1-.3v.5-.1.2h-.2v-.1h-.1v.2l-.3.1.2-.2-.3-.1-.3.2.2-.3h.3l-.2-.2h-.3q.2-.2.5 0l-.3-.2z" fill="gold" id="path241"/><path d="m422.7 195.2.2.2v.5-.4z" fill="gold" id="path244"/><path d="M420 195.8q.2 0 0 0" fill="gold" id="path245"/><path d="M423 195.3v.4z" fill="gold" id="path248"/><path d="M426.5 195h.1v.1" fill="gold" id="path250"/><path d="M423.3 195.4v.4z" fill="gold" id="path251"/><path d="M423.5 195.5v.2z" fill="gold" id="path252"/><path d="M423.4 195.6v.3z" fill="gold" id="path253"/><path d="m423.7 195.6.1.1v.1z" fill="gold" id="path255"/><path d="m424 195.5.1.1" fill="gold" id="path256"/><path d="m423.6 195.6.1.2z" fill="gold" id="path259"/><path d="m422 195.9-.1.1h-.1z" fill="gold" id="path260"/><path d="M423.1 195.7v.2z" fill="gold" id="path261"/><path d="M423.2 195.7v.4z" fill="gold" id="path262"/><path d="M424.8 195.5h.3l-.2.1.1.1z" fill="gold" id="path263"/><path d="m423 195.8-.1.1z" fill="gold" id="path264"/><path d="M425.3 195.5h.1z" fill="gold" id="path265"/><path d="m424 195.7.2.2z" fill="gold" id="path267"/><path d="M425.5 195.5h.2z" fill="gold" id="path268"/><path d="m424.2 195.7.1.2Z" fill="gold" id="path270"/><path d="M423.6 195.8v.3z" fill="gold" id="path271"/><path d="M420 196.2h.2z" fill="gold" id="path272"/><path d="m422.5 196 .3.1z" fill="gold" id="path273"/><path d="M423.3 196h.1Z" fill="gold" id="path275"/><path d="m424.4 195.8.1.1z" fill="gold" id="path276"/><path d="M426.7 195.6h.1l-.1.2z" fill="gold" id="path279"/><path d="M424.4 196.1v.2q-.3 0-.3.2-.3 0-.4.3h-.4z" fill="gold" id="path287"/><path d="m423.7 196.3.2.1z" fill="gold" id="path294"/><path d="M426.3 196v.2z" fill="gold" id="path296"/><path d="m424.8 196.1-.2.2-.2.2.2.1h-.3l.3.2h-.4l.3-.5z" fill="gold" id="path297"/><path d="m423.5 196.4.1.2z" fill="gold" id="path299"/><path d="M423.3 196.5h.2v.1z" fill="gold" id="path300"/><path d="M424.6 196.4h.1" fill="gold" id="path301"/><path d="m423.1 196.6.2.1z" fill="gold" id="path302"/><path d="m423 196.7.3.1z" fill="gold" id="path304"/><path d="M424.6 196.5h.2z" fill="gold" id="path305"/><path d="M420 177.3a7 7 0 0 1-2.8 1.7 7 7 0 0 0 2.5-1.7Z" fill="#009aff" id="path307"/><path d="M419.5 177.3a7 7 0 0 1-2.7 1.7 8 8 0 0 0 2.4-1.8z" fill="#009aff" id="path308"/><path d="M412.4 175.7c1 .4-.3 1.8 0 2.8a2 2 0 0 0 1.2.8 1.2 1.2 0 0 1-1.5-1.2c.1-.7.9-2 .1-2.2-.5-.1-1 .6-1.8.8-.6.2-1.9.3-1.6 1.2l.7.5q.4.8-.3 1-.8-.3-.8.2c0-1 1 0 1-.6a1 1 0 0 0-.4-.8l-.4-.5c0-1 1.2-1 1.9-1.2l1.3-.7z" fill="#009aff" id="path309"/><path d="m411.4 175.3-.6.4zh.1l-.6.4.8-.3h.3l-1.1.6-1 .4.4-.6a1 1 0 0 1 .7-.7z" fill="#009aff" id="path310"/><path d="M409.8 177v.7l.2-.7h.1a1 1 0 0 0 .3 1.3 1 1 0 0 1 .3 1.4c-.1.3-.6 1-.2 1.3a.8.8 0 0 1-.3-1.3l-.1-.8a1 1 0 0 1-.6.7c-.3 0-.9-.3-1 .2q0-.5.7-.3c.9 0 .7-1 .3-1.3-.4-.2-.9-.6-.3-1v.6-.6h.2v.6-.7h.2l.1.7z" fill="#009aff" id="path311"/><path d="m412 176 .2.7v-.7c.5 0 0 1.1-.1 1.6a1 1 0 0 0 .2 1.4l-.6-.7v-1a1 1 0 0 0 0-1.1h.1l.2.6z" fill="#009aff" id="path312"/><path d="M429 173.9c-.8.5.6 1.7.6 2.6a2 2 0 0 1-1 1.1 1.2 1.2 0 0 0 1.2-1.5c-.2-.6-1.3-1.8-.6-2.1.5-.2 1.2.3 2 .4.6 0 1.8-.1 1.8.7l-.6.7q-.3.9.5.9.8-.5.9 0c-.2-.9-1 .2-1.2-.3l.3-.8.2-.7c-.2-.9-1.4-.6-2.1-.7l-1.5-.4z" fill="#009aff" id="path313"/><path d="m429.9 173.2.6.3-.8-.2v.1l.6.2h-1.1l1.2.3 1 .2-.4-.5a1 1 0 0 0-1-.5z" fill="#009aff" id="path314"/><path d="M421.8 177a7 7 0 0 0 3.2 1.1 7 7 0 0 1-2.8-1.1z" fill="#009aff" id="path315"/><path d="M422.4 177a7 7 0 0 0 3 1 8 8 0 0 1-2.7-1.2z" fill="#009aff" id="path316"/><path d="m431.7 174.5.2.8zh-.1a1 1 0 0 1 0 1.3 1 1 0 0 0 0 1.5c.2.2.8.7.5 1.1a1 1 0 0 0 0-1.3v-.8a1 1 0 0 0 .7.6c.3 0 .8-.4 1 0q-.2-.6-.7-.2c-.9.3-1-.8-.6-1.1.3-.3.7-.8 0-1l.1.5-.2-.6v.6l-.2-.6h-.1v.7l-.1-.7z" fill="#009aff" id="path317"/><path d="M429.5 174v.8l-.1-.7c-.5.1.2 1.1.4 1.6a1 1 0 0 1 0 1.3 1 1 0 0 0 .6-.8l-.3-.9a1 1 0 0 1-.2-1.1h-.2v.6z" fill="#009aff" id="path318"/><path d="m427.3 179 .1-.3v-.1z" fill="gold" id="path319"/><path d="m426.6 178.7.4.2v-.3z" fill="gold" id="path320"/><path d="m415.9 180-.5.2v-.3z" fill="gold" id="path321"/><path d="m415.2 180.3-.2-.2v-.1z" fill="gold" id="path322"/><path d="M414.9 180a.4.4 0 0 0 .4.4l-.2.1-.4-.5z" fill="gold" id="path323"/><path d="M427.5 178.5a.3.3 0 0 1-.3.5l.2.1.3-.6z" fill="gold" id="path324"/><path d="M426.9 181a1.4 1.4 0 0 1 1.8.7.4.4 0 0 0-.2-.6 2 2 0 0 0-1.6 0" fill="gold" id="path325"/><path d="M427.5 180.6c1.5-.1 1.6.5 2.3.6a1 1 0 0 0 1.2-.6l-1.2.2-1.5-.3z" fill="gold" id="path326"/><path d="M428.7 178.4a8 8 0 0 1-2.5 2.8l.7-.3a4 4 0 0 1 1.8-1 2 2 0 0 1 1.3.2 1 1 0 0 0 0-1.1 1.4 1.4 0 0 0-1.3-.6" fill="gold" id="path327"/><path d="M416 182.3c-.4 0-1.4 0-1.6 1a.4.4 0 0 1 .1-.6s.3-.5 1.6-.4" fill="gold" id="path328"/><path d="M415.4 182c-1.5.2-1.5.8-2 1a1 1 0 0 1-1.4-.3h1.1l1.4-.7z" fill="gold" id="path329"/><path d="M413.8 180.1a8 8 0 0 0 3 2.2l-.8-.2a4 4 0 0 0-2-.6l-1.1.5a1 1 0 0 1-.4-1 1.4 1.4 0 0 1 1.3-.9" fill="gold" id="path330"/><path d="M415.8 179h.1Z" fill="gold" id="path334"/><path d="M415.8 179h-.1z" fill="gold" id="path339"/><path d="M415.3 179h.1" fill="gold" id="path345"/><path d="M415 179h.2z" fill="gold" id="path347"/><path fill="gold" id="polygon349" d="M414.9 179.2h.1z"/><path fill="gold" id="polygon351" d="m414.7 179.2.1.1z"/><path d="M415.1 179h-.1z" fill="gold" id="path353"/><path d="M414.9 179h-.1z" fill="gold" id="path354"/><path d="M414.7 179.1h-.1z" fill="gold" id="path355"/><path d="m415.5 178.9-1.1.1zh1.1z" fill="gold" id="path358"/><path d="m414.4 179.3 1.1-.2 1.2-.1-1.2.2z" fill="gold" id="path359"/><path d="m415.5 176.2-.3.3-.3-.2.3-.3z" fill="gold" id="path361"/><path d="M415.2 175.4h.2v.3l-.2-.1.1.3h-.3v-.3l-.2.1v-.3h.2l-.1-.2h.3z" fill="gold" id="path362"/><path d="M416.4 178.6h-.1.3z" fill="gold" id="path363"/><path d="M414.6 178.8h-.2.3" fill="gold" id="path364"/><path d="m416.2 178.5-.5.2h.4z" fill="gold" id="path367"/><path d="M414.8 178.7h-.1zh.5z" fill="gold" id="path368"/><path d="m416.8 178.4-.2.1v.1h.1z" fill="gold" id="path369"/><path d="m414.1 178.7.2.2v-.1z" fill="gold" id="path370"/><path d="m416.5 178.4-.1.1z" fill="gold" id="path371"/><path d="M414.4 178.6v.2h.2v-.1Z" fill="gold" id="path372"/><path d="M414.5 178.6h.1z" fill="gold" id="path373"/><path d="m416.4 178.3-.1.2z" fill="gold" id="path374"/><path d="M416.4 178.3h-.3l-.1.2h.2z" fill="gold" id="path375"/><path d="m414.5 178.5.2.1h.3l-.2-.1z" fill="gold" id="path376"/><path d="m416.6 178.2-.1.2v.1l.3-.1z" fill="gold" id="path377"/><path d="M414.2 178.5v.2h.1l.1-.1z" fill="gold" id="path378"/><path d="m416 178.2-.5.5.6-.5" fill="gold" id="path379"/><path d="m414.8 178.4.6.3z" fill="gold" id="path380"/><path d="m415.9 178.1-.1.3v-.3" fill="gold" id="path382"/><path d="M415 178.2v.2z" fill="gold" id="path383"/><path d="m416.8 178-.1.1.1.2.1-.2z" fill="gold" id="path385"/><path d="m416.5 178-.1.2h.1v.1l.1-.2" fill="gold" id="path386"/><path d="m414.3 178.3.1.2v-.3" fill="gold" id="path387"/><path d="m414 178.3.1.2v-.3" fill="gold" id="path388"/><path d="m414.3 178.2.3.2h.3z" fill="gold" id="path389"/><path d="m416.4 178-.4.2h.3z" fill="gold" id="path390"/><path d="M414.7 178.1h.1Z" fill="gold" id="path391"/><path d="m415.8 178-.3.3v.3l.2-.2z" fill="gold" id="path392"/><path d="M415.6 178v.2z" fill="gold" id="path393"/><path d="M415.2 178v.2z" fill="gold" id="path394"/><path d="m415 178 .2.5.2.1-.1-.3z" fill="gold" id="path395"/><path d="m417 177.8-.2.2z" fill="gold" id="path396"/><path d="m413.8 178.1.1.3v-.3" fill="gold" id="path397"/><path d="M414.1 178v.3l.1.1v-.3" fill="gold" id="path400"/><path d="M415.4 178v.7l.1-.4z" fill="gold" id="path401"/><path d="M416.1 178h-.1v.1z" fill="gold" id="path402"/><path d="m416.3 177.8-.2.2h.3z" fill="gold" id="path403"/><path d="M415.9 177.8v.3l.2-.1z" fill="gold" id="path404"/><path d="m414.8 178-.1.1.2.1z" fill="gold" id="path405"/><path fill="gold" id="polygon405" d="M415.6 177.7h.1z"/><path d="m416.8 177.6-.1.2.1.1.1-.1z" fill="gold" id="path406"/><path d="m414 178-.2.1.2.2.1-.2z" fill="gold" id="path407"/><path d="M415.3 177.7h.1" fill="gold" id="path408"/><path d="M416.6 177.8v.3l.2-.1z" fill="gold" id="path409"/><path d="M416.4 177.6v.3l.2-.1z" fill="gold" id="path410"/><path d="M414.4 178.1h.2z" fill="gold" id="path411"/><path d="m414.3 177.8-.2.3.2.1.1-.2z" fill="gold" id="path412"/><path d="M416 177.6v.2l.1.1.2-.1z" fill="gold" id="path413"/><path d="M414.6 177.7v.3l.2-.1z" fill="gold" id="path414"/><path d="M415.5 177.6a.1.1 0 0 1 0 .2h-.1l.1.2z" fill="gold" id="path415"/><path d="m415.2 177.6.1.5v-.4" fill="gold" id="path416"/><path d="M416 177.5v.2z" fill="gold" id="path417"/><path d="m414.7 177.6.1.2Z" fill="gold" id="path419"/><path d="m417 177.4-.2.1.2.2z" fill="gold" id="path420"/><path d="M413.8 177.7v.4l.1-.2z" fill="gold" id="path421"/><path d="m416.6 177.4-.1.1.1.3.2-.2z" fill="gold" id="path422"/><path d="M416.2 177.4v.3l.2-.1z" fill="gold" id="path423"/><path d="m414.4 177.6-.1.2.2.2.1-.3z" fill="gold" id="path424"/><path d="M414 177.6v.3l.1.2.1-.3z" fill="gold" id="path425"/><path fill="gold" id="polygon427" d="M415.5 177.5h.1z"/><path fill="gold" id="polygon428" d="M415.1 177.5h-.1v.1z"/><path fill="gold" id="polygon430" d="m415.1 177.3-.1.1v.1z"/><path d="M416 177.2v.3l.2-.1z" fill="gold" id="path430"/><path d="m414.6 177.4-.2.2.2.1.1-.1z" fill="gold" id="path431"/><path d="M415.2 177.3v.3a.1.1 0 0 1 0-.2z" fill="gold" id="path432"/><path d="M416.7 177.1v.4l.2-.2z" fill="gold" id="path433"/><path d="M414.2 177.4v.4l.2-.2z" fill="gold" id="path434"/><path d="m413.9 177.4-.1.3.1.2.2-.3z" fill="gold" id="path435"/><path d="m416.4 177.1-.2.2.2.2.2-.2z" fill="gold" id="path436"/><path fill="gold" id="polygon438" d="m415.5 177.1.1.1h.1v-.1z"/><path fill="gold" id="polygon439" d="M415.1 177.2h-.2v.1z"/><path d="m416.8 177 .1.3z" fill="gold" id="path439"/><path d="m413.8 177.3-.1.3z" fill="gold" id="path440"/><path d="m416.2 177-.2.2.2.1.2-.2z" fill="gold" id="path441"/><path d="m414.4 177.2-.2.2.2.1.2-.2z" fill="gold" id="path442"/><path d="m416.5 176.9-.1.2.2.2.1-.2z" fill="gold" id="path443"/><path fill="gold" id="polygon443" d="M415.5 177h.2z"/><path fill="gold" id="polygon444" d="m415 177-.1.1z"/><path d="m414 177.2-.1.2.2.2z" fill="gold" id="path444"/><path d="m416.5 176.9.2.2v-.1z" fill="gold" id="path445"/><path d="m414 177.1-.2.2z" fill="gold" id="path447"/><path fill="gold" id="polygon448" d="M414 177.1h.1z"/><path d="M416 176.8v.3l.1-.2z" fill="gold" id="path448"/><path d="m414.5 177-.1.1.2.2z" fill="gold" id="path449"/><path d="m416.3 176.8-.1.1.2.2z" fill="gold" id="path450"/><path d="m414.2 177-.1.1.1.2.2-.2z" fill="gold" id="path451"/><path fill="gold" id="polygon451" d="M415.5 176.8h.2v-.1z"/><path fill="gold" id="polygon452" d="M415 176.9h-.2z"/><path d="M414.5 176.9h-.2v.2z" fill="gold" id="path452"/><path d="m416 176.7.2.2v-.2z" fill="gold" id="path453"/><path d="M415.2 176.8h.1z" fill="gold" id="path454"/><path d="M415.8 176.7v1.2l.1-1.2z" fill="gold" id="path455"/><path d="m414.6 176.8.4 1.2z" fill="gold" id="path456"/><path d="M415.4 176.7h-.1v.3a.1.1 0 0 1 0 .2h.1v.4z" fill="gold" id="path457"/><path d="m415 176.7.2.5v-.4z" fill="gold" id="path458"/><path d="M425.8 178h-.2 1.1l1.2-.2h-1.2z" fill="gold" id="path462"/><path fill="gold" id="polygon463" d="m427.3 177.7-.1.1z"/><path fill="gold" id="polygon474" d="M427.4 177.6h.1z"/><path fill="gold" id="polygon475" d="M427.2 177.6h.1z"/><path d="M427 177.7h-.1v.1z" fill="gold" id="path478"/><path d="M426.4 177.7a.1.1 0 0 0 0 .2l.1-.1" fill="gold" id="path482"/><path d="M425.8 177.6h-.3v.2l1.2-.2h1.1v-.2l-1.1.2z" fill="gold" id="path487"/><path d="M427.5 177.3h.2z" fill="gold" id="path488"/><path d="M425.8 177.5h-.2.3z" fill="gold" id="path489"/><path d="m427.3 177.3-.4.2h.4l.2-.2z" fill="gold" id="path492"/><path d="M426 177.4h-.2l.2.2h.4z" fill="gold" id="path493"/><path d="m428 177.1-.2.2z" fill="gold" id="path494"/><path d="M427.6 177.1v.2h.1z" fill="gold" id="path495"/><path d="M425.6 177.3v.2h.2z" fill="gold" id="path496"/><path d="m425.6 177.3.2.1z" fill="gold" id="path497"/><path d="m427.6 177-.1.2z" fill="gold" id="path498"/><path d="m425.7 177.2.2.2h.2l-.1-.2z" fill="gold" id="path499"/><path d="M427.4 177h-.1l-.2.2h.3l.2-.2z" fill="gold" id="path500"/><path d="M427.8 177h-.1v.2l.3-.1z" fill="gold" id="path501"/><path d="m425.5 177.5-.2-.1z" fill="gold" id="path502"/><path d="M425.4 177.2v.2l.1.1v-.2z" fill="gold" id="path503"/><path d="m427.3 177-.6.5z" fill="gold" id="path504"/><path d="m426 177.1.6.4z" fill="gold" id="path505"/><path d="M427 176.9v.2z" fill="gold" id="path507"/><path d="M426.1 177a.1.1 0 0 1 .2 0z" fill="gold" id="path508"/><path d="m428 176.7-.2.2.2.2z" fill="gold" id="path510"/><path d="m427.7 176.8-.2.1zv.2l.1-.2z" fill="gold" id="path511"/><path d="m425.5 177 .1.2v-.1z" fill="gold" id="path512"/><path d="M425.2 177v.4l.2-.2z" fill="gold" id="path513"/><path d="m425.5 177 .3.2h.1v-.1h.1z" fill="gold" id="path514"/><path d="m427.6 176.7-.4.3h.2z" fill="gold" id="path515"/><path d="M425.9 176.9h.1z" fill="gold" id="path516"/><path d="m427 176.7-.3.3v.3l.2-.2z" fill="gold" id="path517"/><path d="m426.8 176.7-.1.1v.1z" fill="gold" id="path518"/><path d="m426.2 176.8.2.4.1.2v-.4z" fill="gold" id="path520"/><path d="M428.1 176.5v.2z" fill="gold" id="path521"/><path d="m425 176.9.1.2z" fill="gold" id="path522"/><path d="M425.3 176.8v.4l.2-.2z" fill="gold" id="path525"/><path d="m427.8 176.5-.1.2.1.1.2-.1z" fill="gold" id="path526"/><path d="M426.6 176.7v.7z" fill="gold" id="path527"/><path d="m427.3 176.7-.2.1z" fill="gold" id="path528"/><path d="m427.4 176.5-.1.2h.3z" fill="gold" id="path529"/><path d="M427 176.5v.3h.1l.1-.1z" fill="gold" id="path530"/><path d="m426 176.6-.1.2.2.1z" fill="gold" id="path531"/><path fill="gold" id="polygon531" d="M426.7 176.5h.1v-.1z"/><path d="m428 176.3-.2.2.2.2.1-.2z" fill="gold" id="path532"/><path d="M425.1 176.6v.3l.2-.1z" fill="gold" id="path533"/><path d="m427.6 176.3-.1.2.1.1v.1l.2-.2z" fill="gold" id="path535"/><path d="M425.5 176.9h.3l-.1-.2z" fill="gold" id="path536"/><path d="m425.5 176.5-.2.3.2.1.1-.2z" fill="gold" id="path537"/><path d="m427.3 176.3-.2.2.2.2.1-.2z" fill="gold" id="path538"/><path d="m425.8 176.5-.1.2.2.1z" fill="gold" id="path539"/><path d="M426.6 176.4v.4z" fill="gold" id="path540"/><path d="M426.4 176.4v.4l.1-.2a.1.1 0 0 1 0-.2" fill="gold" id="path541"/><path fill="gold" id="polygon541" d="M426.7 176.3h.1v-.1z"/><path fill="gold" id="polygon542" d="M426.3 176.4h-.1v.1z"/><path d="M426 176.4h-.2l.2.2z" fill="gold" id="path542"/><path d="M427.1 176.2v.3l.1-.2" fill="gold" id="path543"/><path d="m428.1 176-.1.3.1.2z" fill="gold" id="path545"/><path d="m425 176.4-.1.1v.3l.2-.2z" fill="gold" id="path546"/><path d="m427.8 176-.2.3.2.2.1-.2z" fill="gold" id="path547"/><path d="m427.4 176.1-.1.2.2.2z" fill="gold" id="path548"/><path d="m425.6 176.3-.1.2.1.2.2-.2z" fill="gold" id="path549"/><path d="m425.3 176.4-.2.2.2.2.1-.3z" fill="gold" id="path550"/><path fill="gold" id="polygon551" d="M426.7 176.2h.1v-.1z"/><path fill="gold" id="polygon553" d="m426.3 176.2-.1.1z"/><path d="M426.5 176.1a.1.1 0 0 0 0 .2z" fill="gold" id="path554"/><path fill="gold" id="polygon554" d="M426.7 176h.1v-.1z"/><path fill="gold" id="polygon555" d="M426.3 176.1h-.1v.1z"/><path d="M427.2 176v.2l.2-.1z" fill="gold" id="path555"/><path d="m425.8 176.1-.2.2.2.2z" fill="gold" id="path556"/><path d="m426.3 176 .1.3v-.2" fill="gold" id="path557"/><path d="m428 175.8-.2.3.2.2z" fill="gold" id="path558"/><path d="m425.4 176.1-.1.2.1.2.2-.2z" fill="gold" id="path559"/><path d="M425 176.2v.4l.2-.2q0-.2-.2-.2" fill="gold" id="path560"/><path d="m427.6 175.9-.2.2.2.1.1-.1z" fill="gold" id="path561"/><path d="M426.4 176h.1" fill="gold" id="path562"/><path d="m428 175.7.1.2z" fill="gold" id="path563"/><path fill="gold" id="polygon563" d="M426.7 175.9h.1z"/><path d="m425 176-.1.3.1-.2" fill="gold" id="path564"/><path d="M427.3 175.7v.2l.1.2.1-.2z" fill="gold" id="path565"/><path d="m425.6 175.9-.2.2.2.2.1-.2z" fill="gold" id="path566"/><path d="m427.7 175.6-.1.3.1.1.2-.2z" fill="gold" id="path567"/><path fill="gold" id="polygon567" d="M426.7 175.7h.1v-.1z"/><path d="m425.2 175.9-.1.2.2.2z" fill="gold" id="path568"/><path d="m427.7 175.6.2.2v-.1z" fill="gold" id="path569"/><path d="M426.4 175.7v.2l.1-.1" fill="gold" id="path570"/><path d="m425.2 175.9-.2.1v.1z" fill="gold" id="path571"/><path d="M427.2 175.6v.2l.1-.1z" fill="gold" id="path572"/><path d="m425.7 175.7-.1.2.2.1z" fill="gold" id="path573"/><path d="m427.5 175.5-.1.2.2.1z" fill="gold" id="path574"/><path d="m425.4 175.7-.2.2.2.2.1-.2z" fill="gold" id="path575"/><path fill="gold" id="polygon575" d="M426.7 175.6h.1v-.1z"/><path fill="gold" id="polygon576" d="m426.2 175.6-.2.1z"/><path d="m427.2 175.4.1.2.1-.2z" fill="gold" id="path576"/><path d="m425.7 175.6-.3.1.2.2z" fill="gold" id="path577"/><path d="M426.4 175.5v.2l.1-.1z" fill="gold" id="path578"/><path d="m427 175.4-.1 1.3z" fill="gold" id="path579"/><path d="M425.9 175.5h-.1l.4 1.3z" fill="gold" id="path580"/><path d="M426.6 175.4h-.1v.7h.1v.2z" fill="gold" id="path581"/><path d="M426.3 175.4v.6-.4a.1.1 0 0 1 0-.2" fill="gold" id="path582"/><path d="m426.4 174.7-.3.3.3.2.3-.3z" fill="gold" id="path583"/><path d="m426 174 .2.2h-.3v.3q.2-.2.3-.1v.2h.3l-.1-.3h.3v-.3q-.2.2-.4.1l.1-.2z" fill="gold" id="path584"/><path d="M419.1 176.2v-.2l.2.1z" fill="gold" id="path586"/><path d="m419 176-.2-.3.3.2z" fill="gold" id="path587"/><path d="M419.9 175v.2Z" fill="gold" id="path588"/><path d="m422 175.4.2-.2Z" fill="gold" id="path589"/><path d="M422.5 175.5h-.1" fill="gold" id="path590"/><path d="m422.9 174.8-.1-.2.2-.2z" fill="gold" id="path591"/><path d="m422.7 175.2-.2-.3.2-.2.2.1z" fill="gold" id="path592"/><path d="m422.7 175.2-.3.2-.1-.2.2-.2z" fill="gold" id="path593"/><path fill="gold" id="polygon593" d="M422.1 175h-.1z"/><path d="m422.2 175.1.2-.3.2.2z" fill="gold" id="path594"/><path d="m422.3 174.6.2-.2.2.2-.2.3z" fill="gold" id="path595"/><path d="m422.5 174.3.2-.2.3.2-.2.3z" fill="gold" id="path596"/><path d="m423 174.3-.2-.3.1-.3.1.2z" fill="gold" id="path597"/><path d="m422.5 173.7.1-.3q.2 0 .3.3l-.2.3z" fill="gold" id="path598"/><path d="M422.7 173.1v.2l-.3-.3z" fill="gold" id="path600"/><path d="m422.1 173.4.2-.4.3.3-.2.3z" fill="gold" id="path601"/><path d="m421.7 174 .2-.2.3.2-.2.3z" fill="gold" id="path602"/><path d="m422 173.7.1-.3.3.3-.2.2z" fill="gold" id="path603"/><path d="m422.3 174 .1-.3.3.3-.2.3z" fill="gold" id="path604"/><path d="m422.3 174.6-.3-.3.2-.2.3.3z" fill="gold" id="path605"/><path d="M421.5 175v-.2z" fill="gold" id="path606"/><path d="m421.8 174.7.2-.2.2.1z" fill="gold" id="path607"/><path d="m421.8 174.7-.2.2z" fill="gold" id="path608"/><path d="m421.4 174.4.3.2-.2.2h-.1z" fill="gold" id="path609"/><path d="m421.5 174.3.2-.2.2.2-.2.3z" fill="gold" id="path610"/><path d="M421.5 174h.2l-.3.3Z" fill="gold" id="path611"/><path d="m421.5 173.6.1-.1.3.2-.2.3-.2-.2z" fill="gold" id="path612"/><path d="M422 173.4v.3l-.4-.3.2-.3z" fill="gold" id="path613"/><path d="m422.3 173-.2.3-.3-.2.2-.2z" fill="gold" id="path614"/><path d="m421.8 173-.2-.1v-.1h.3z" fill="gold" id="path615"/><path d="m421.5 173 .3.1-.2.3Z" fill="gold" id="path616"/><path d="m422.2 175.2.2.3h-.3z" fill="gold" id="path617"/><path d="m419.4 175.7-.2.2v-.3z" fill="gold" id="path618"/><path d="m419.3 175.5.2.2z" fill="gold" id="path620"/><path d="M419.7 175.2h-.2l-.4-.4.8.3z" fill="gold" id="path621"/><path d="M420 175.6h-.3l-.5-.2h.6z" fill="gold" id="path622"/><path d="m422.2 175-.4.4h-.3l.2-.2z" fill="gold" id="path623"/><path d="M421.7 175.7h-.6a1 1 0 0 1 1-.2z" fill="gold" id="path624"/><path d="M420.5 175.9h-.6l-.4-.2a1 1 0 0 1 1 .2" fill="gold" id="path625"/><path d="M420.7 175.8a1 1 0 0 1-1-.5 1 1 0 0 1 1 .5" fill="gold" id="path626"/><path d="m420.6 175.6-.2-.2-.3-.7.4.4z" fill="gold" id="path627"/><path d="m420.8 175.7-.2-.6v-.6l.3.6z" fill="gold" id="path628"/><path d="m420.9 175 .3-.4v.7l-.3.3z" fill="gold" id="path629"/><path d="M420.9 175.7a1 1 0 0 1 .8-.7 1 1 0 0 1-.8.7" fill="gold" id="path630"/><path d="M421.3 175.1v-.3h.1z" fill="gold" id="path631"/><path d="m420.1 175 .1.3h-.1l-.1-.3z" fill="gold" id="path632"/><path d="M420.5 174.8v.2l-.1-.1z" fill="gold" id="path633"/><path d="m421 174.8-.1.1v-.3z" fill="gold" id="path634"/><path d="m422.2 174.6-.3.4h-.4z" fill="gold" id="path635"/><path d="M420.8 172.1a.4.4 0 0 1-.4.5.4.4 0 1 1 0-.8z" fill="gold" id="path636"/><path d="m420.3 171 .5-.2v.5l-.4-.1c-.2 0 .1.4.1.4h-.5l.2-.3q-.2-.2-.5.1v-.5l.4.2c.2 0-.1-.4-.2-.4l.5-.1z" fill="gold" id="path637"/><path d="m420.1 174.7-.6-1.8h.2z" fill="gold" id="path638"/><path fill="gold" id="polygon638" d="m420.1 173-.2.1v-.1z"/><path fill="gold" id="polygon639" d="m420.1 173.3-.2.1v-.1z"/><path fill="gold" id="polygon640" d="M420.2 173.5h-.2v-.1z"/><path fill="gold" id="polygon641" d="m420.2 173.7-.1.1-.1-.1z"/><path fill="gold" id="polygon642" d="m420.2 173.9.1.2h-.2z"/><path fill="gold" id="polygon643" d="M420.3 174.1v.2h-.1v-.1z"/><path fill="gold" id="polygon644" d="m420.3 174.4-.1-.1z"/><path d="M420.3 174.6v.2Z" fill="gold" id="path644"/><path fill="gold" id="polygon645" d="M420.9 174.3h.1v.2z"/><path fill="gold" id="polygon646" d="M420.9 174.1h.1v.1z"/><path fill="gold" id="polygon647" d="M420.9 173.9h.2z"/><path fill="gold" id="polygon648" d="M420.9 173.6h.2l-.1.2h-.1z"/><path fill="gold" id="polygon649" d="M420.9 173.4h.2z"/><path fill="gold" id="polygon650" d="M420.8 173.2h.3l-.1.1z"/><path fill="gold" id="polygon651" d="M420.8 172.9h.3l-.1.2h-.1z"/><path d="M420.3 173a.1.1 0 0 0 .2 0 .1.1 0 0 0 0-.2z" fill="gold" id="path651"/><path d="M420.6 173.2h-.2v.2a.1.1 0 0 0 .2-.2" fill="gold" id="path652"/><path d="M420.4 173.6h.2v-.1z" fill="gold" id="path653"/><path d="M420.5 173.7a.1.1 0 0 0 0 .2.1.1 0 0 0 .2-.2.1.1 0 0 0-.2 0" fill="gold" id="path654"/><path d="M420.6 174.2v.2z" fill="gold" id="path655"/><path d="M420.8 174.1v.6l-.2-.2a.1.1 0 0 0 .1-.2z" fill="gold" id="path656"/><path d="M420.5 172.7h.1l.1 1.4v-.9l-.1-.1v-.4" fill="gold" id="path657"/><path d="m420.3 173.5-.1-.7h.1z" fill="gold" id="path658"/><path d="M420.4 174.1v-.5z" fill="gold" id="path659"/><path d="M420.6 174.5v.2l-.2-.6v.1a.1.1 0 0 0 0 .2.1.1 0 0 0 .2 0" fill="gold" id="path660"/><path d="m420.6 174-.1.1z" fill="gold" id="path661"/><path d="M421.2 172.7h.2l-.1 1.9h-.1Z" fill="gold" id="path662"/><path d="m419.2 175.6-.1.2-.3-.1.1-.3z" fill="gold" id="path663"/><path d="m418.5 175.3.1-.2.3.2-.2.3z" fill="gold" id="path664"/><path d="m418.6 175 .2-.2.2.2-.1.3z" fill="gold" id="path665"/><path d="m419 175-.2-.2.2-.4.2.2v.3z" fill="gold" id="path666"/><path d="m419.3 174.6.3.2v.1h-.5z" fill="gold" id="path667"/><path d="m419.8 174.6.1.3h-.3q0-.3.2-.3" fill="gold" id="path668"/><path d="m419.3 174.6.2-.3.3.2-.2.3z" fill="gold" id="path669"/><path d="m419.8 174.5-.2-.2.1-.2Z" fill="gold" id="path670"/><path d="m419 174.4.2-.3.3.2-.2.3z" fill="gold" id="path671"/><path d="m418.7 174.1.2-.3.3.2-.2.3z" fill="gold" id="path672"/><path d="m418.5 174.5.2-.4.3.3-.2.3z" fill="gold" id="path673"/><path d="m418.3 175 .3.2v.2z" fill="gold" id="path674"/><path d="M418.4 174.8v-.2q.3 0 .3.2l-.1.3z" fill="gold" id="path675"/><path d="m418.1 174.4.1-.2.2.3-.1.3z" fill="gold" id="path676"/><path d="m418.2 174.2.2-.4.3.3-.2.4z" fill="gold" id="path678"/><path d="m418.1 174 .2-.4v.2l-.1.4Z" fill="gold" id="path679"/><path d="m418.3 173.6.3-.2-.2.3z" fill="gold" id="path680"/><path d="m418.4 173.8.2-.4.3.3-.2.4z" fill="gold" id="path681"/><path d="m419 173.2.1.2-.2.3-.2-.3z" fill="gold" id="path682"/><path d="m419.4 173.7-.2.3-.3-.3.3-.3z" fill="gold" id="path683"/><path fill="gold" id="polygon683" d="m419.5 173.6.1.2z"/><path d="M419.6 174v.3l-.4-.3.3-.2h.1z" fill="gold" id="path684"/><path d="m419.5 173.6-.3-.2.2-.2Z" fill="gold" id="path685"/><path d="m419.3 173-.1.3-.2-.3z" fill="gold" id="path686"/><path d="m419.2 175.5-.2-.2v-.2l.3.1v.1h-.2z" fill="gold" id="path687"/><path d="m419.6 174.9.3.1z" fill="gold" id="path688"/><path d="m423 173.6-.3-.4v.1z" fill="gold" id="path689"/><path d="m422.7 175.3-.1.4-.1-.2z" fill="gold" id="path690"/><path d="M422.2 175.8h-.4l.2-.2h.5z" fill="gold" id="path691"/><path d="M422.5 175.7h-.2z" fill="gold" id="path692"/><path d="M419.3 177a9 9 0 0 0 3.2-.4v.1l-1.6.4z" fill="gold" id="path693"/><path d="M421 176a.1.1 0 0 0 0 .2z" fill="gold" id="path695"/><path d="M421.3 176.3h.1Z" fill="gold" id="path698"/><path d="M421.3 176.2h-.2z" fill="gold" id="path705"/><path d="M421.6 176.2h-.2v-.1a.1.1 0 0 1 .2 0" fill="gold" id="path706"/><path d="m421.9 176.1-.1.1h-.1v-.1a.1.1 0 0 1 .2 0" fill="gold" id="path707"/><path d="M422.4 176.2h-.1" fill="gold" id="path709"/><path d="M420.6 176.3h.1" fill="gold" id="path712"/><path d="M420.3 176.4h.1" fill="gold" id="path714"/><path fill="gold" id="polygon719" d="M419.5 176.6h.1z"/><path d="M420.6 176.2a.1.1 0 0 1-.2 0 .1.1 0 0 1 0-.2.1.1 0 0 1 .2.1" fill="gold" id="path720"/><path d="m420.3 176.3-.1.1h-.1a.1.1 0 0 1 0-.2.1.1 0 0 1 .2.1" fill="gold" id="path721"/><path d="M420 176.4h-.2z" fill="gold" id="path722"/><path d="M419.7 176.4h-.1z" fill="gold" id="path723"/><path d="M419.5 176.5a.1.1 0 0 1-.2 0z" fill="gold" id="path724"/><path d="M420.8 176.3a.1.1 0 0 1 0-.2h.1a.1.1 0 0 1 0 .2" fill="gold" id="path725"/><path d="m419.3 176.4 1.5-.5h1.6v.2l-1.6-.1z" fill="gold" id="path726"/><path d="m419.3 176.8 1.6-.4h1.6-1.6z" fill="gold" id="path727"/><path d="m419.5 176.9 1.4-.3h1.4l-1.4.3z" fill="gold" id="path728"/><path d="M419.6 175.9h.2l-.4.2-.3-.1z" fill="gold" id="path729"/><path d="M418.8 173.5v-.2z" id="path730"/><path d="m419.4 174.1-.1-.1.1-.1z" id="path732"/><path d="M419.8 174.9h-.1v-.2z" id="path733"/><path d="M419.5 174.7h-.2l.2-.3z" id="path734"/><path d="m419.2 174.5-.1-.2v-.1z" id="path735"/><path d="m419 174.9-.1-.1v-.2z" id="path736"/><path d="M418.8 175.1h-.1v-.2z" id="path737"/><path d="m419.1 175.4-.1-.1v-.1z" id="path738"/><path d="M419 175.7h-.2l.1-.2z" id="path739"/><path d="m418.5 175-.1-.2v-.1z" id="path740"/><path d="m418.7 174.6-.2-.1.2-.1z" id="path741"/><path d="m419 174.2-.2-.1v-.2z" id="path742"/><path d="M418.6 173.9v-.3z" id="path743"/><path d="m418.4 174.3-.1-.1v-.1z" id="path744"/><path d="m422.7 174.6-.1.1v-.2z" id="path745"/><path d="m422.4 174.9-.1.2v-.3z" id="path747"/><path d="m422.5 174.4-.2.1v-.3z" id="path748"/><path d="m422.7 174-.1.2v-.3Z" id="path749"/><path d="m422.9 173.7-.2-.2z" id="path750"/><path d="M422.2 173v.2l-.1-.3z" id="path751"/><path d="m422.6 173.3-.1.2v-.3z" id="path752"/><path d="m422 173.4-.1-.2z" id="path753"/><path d="M421.8 173.7v.2l-.1-.3z" id="path755"/><path d="M422.1 174v.2l-.1-.3Z" id="path756"/><path d="m421.9 174.3-.1.2v-.3z" id="path757"/><path d="m422.9 174.3-.1-.2Z" id="path759"/></g><!-- app4joy --></svg>