<svg id="svg29" width="600" height="400" viewBox="0 0 600 400" xmlns="http://www.w3.org/2000/svg"><g id="g29"><path id="path1" d="M0 0h600v400H0z" fill="#f91301" fill-rule="evenodd"/></g><g id="g28" transform="translate(49.2 39.7)scale(.98512)" fill-rule="evenodd"><path id="path2" d="M266.5 113.8c14.6-4.7 11.8-12.6 14.3-17a6 6 0 0 1-4-4.3l-17.4-4.2-.9 22.4z" fill="#ffffff"/><path id="path3" d="M268.3 90.8c-.6 1.4-3.5 11.7-4.3 13.6v-1.3l3.6-12.5zm2 .6-5.7 19.5-.4-.5 5.6-19.1zm1.2 19.2 4.9-17.3.3 1-4.6 16zm3.2-17.9-5.3 19-.5.1 5.3-19.3zm-10.6 8.2-.2-1.9c0-1.8.7-4.6.7-4.6h-1.8l-.1-1.1c1.1.2 2.9 0 3.8-.9zm-43 31.5-.3.6v.6l.3.5zm0 5.2h-1l-.5.2-.4.1v.3l.5.7-.6 1.2-.7.7q-1.6.6-3.1.3l.3.6.2.6c1 0 1.9 1.4 1.9 1.4q1.5-1.3 2.2-1.7l1-.1zm-1.7 22c.8 0 1.7.8 1.7.8v-1.5c-.4.1-1.6.5-1.7.7m1.7 1.7c-.3.6-2.4 1.8-2.5 2.6l1.9 2.7.6 1.1zm0 10.2-.5.8-.2.3-.2.3-.2.3-.6.9v.7l.8.6.4.3.5.3zm55.6 64.5q-.6 1-1.4 1.8l-.6.6-.5.6-1 .3h-.1a7 7 0 0 1-5 2.8l-2.7.1-.2-1c-1-.2-2.7 0-3-.5-.5-.8-.3-2.5-.5-2.9l-3-.3c0 .2.3-1.5.3-2.5l.2-3.1q-.9-.2-1.5-.8c0 .8-.9 1.3-1.4 1.8l-.9.1c0 .7.6 1.4.2 2.1.1 2.2-2 1-2 4-.2.4-.6 1-1 1-1.1.5-2.2-1-3 .1-.6.6-1.3 1.3-2.2 1.2l-1.3-.7c-.7.5-1.6 1.1-2.5.6-.4-.5-.6-1.3-1.3-1.4q-1.3.1-2.3.7c-.9.1-2 .2-2.5-.9-.8-1.4 2-2.3.2-3.6q-.7-.4-1-1.1 0-1.6 1.3-1.8c.6-.6 2.3.1 2.2-1.1 0-.5-.3-1-.7-.7-1.3.7-2.8.5-4 1.4-.5-.1-.8.8-.6 1.4q.4 1-.4 1.8-.4.3-1 .4l-.6-.3c0 1 0 2.5-.8 3.2-.7 0-1.3-.6-1.6-.7-.8.7-1.5 2.2-2.7 2-.8-.3-.5-1.7-1.4-1.6-.5.5-1.2 1.6-2 1.3-.7 0-.8-.7-1.5-.5-.9.8-1.7 1.9-3.1 1.6-.7-.3-.7-1.1-1-1.7-.5.6-.6 1.2-1.7 1.6q-1.2 0-2.3-.3c-.9 1-1.8 2-3.1 1.9s-1.5-.9-1.8-1.6c0-.7 1-1.8 0-2q-1 .1-1.8-.5c-.5-.7-1.5-1-1.6-2q0-.3-.3-.1c-.6 1.2-1 2.7-2.5 3.2q-.9.5-1.9.2c-1.7-.6-.3-2.5-.9-3.3-.9-.1-1.6.2-2.4-.1q-1.2-.1-1.6-1-.2-1.5.4-2.4c.8-.7 3-1.6 3-1.6q-.7-1-1.1-2.2c-.8 0-2.1.4-2.8-.2-.5-.4-.8-2.1 0-2.9q-1.5.1-2.1-1.1c-.8-1-.2-3.3.3-4.4-.7-.4-1.5-1.1-1.5-2.2-.1-1.8 2-2 3.2-2.2.5-1 .1-2.1-.3-3-.5 0-.4.6-.8.8-1 .9-2.5 1.2-3.7.6-1-.4-1-1.8-1.1-2.8 0-.9.8-1.4 1.2-2 0-1-1.2-.4-1.7-1-1.8-2.5 1.4-3.3 2.1-3.6.1-1-1.1-.2-1.6-.6q-.7-.6-1.2-1.4c0-1.2.7-1.9 1.2-2.8-.4-1-1-2.1-.1-3.1q.1-.6.7-.8l1.1-.2q.6-.4.8-1c-1.2-.8-2.7-1.5-3.1-3q.1-1 .6-1.9v-.4c-1-.7-2.8-1.4-2.3-2.9a4 4 0 0 1 1.4-1.5c-1.2-3.2.5-3.6 1.5-3.8.5 0 1.8.4 2.2 1.2q.3.6.7.5.2-.7.7-1.5a8 8 0 0 1 .2-4.6c-.2-.8-.6-1.5-.3-2.3 0-1.4-1.8-.4-2.4-1.3-1.6-.7.3-2.8-1.4-3q-1.3-.8-1.3-2.4 0-.7.6-.9c.5-.2 1.2 0 1.6-.5 0-.7-.7-1-1-1.5q-.2-1.7 1-3c0-.8-.6-2 .5-2.6-.5-.5-1.5-.1-2-1-.7-.7-.7-2.5-.3-3 .4-.8 1.6-.3 1.8-1.1q0-1.6.9-3 .8-1 2-1 1.8.8 2.5 2.5l.2-.7c-.8-1.4-1-4.4-.2-6v-2c-.5.4-1 1.6-1.9 1.7q-1.2.2-2.2-.4c-1.6-.8 0-2.8-.7-4-1.3-.4-3-1-3.1-2.7 0-1.7 1.4-3 1.9-3 .8-.2 1.5.7 2.3 0 .2-1.3-.6-2.1-.1-3.3l1.7-2q.3-.5.3-1.3c-1.2-3.5-.1-4.8 1.1-5.4.4-.6-.3-.6-.8-.8q-1.4-1.2-1.2-2.8c0-2.5 1.9-1.3 2.1-1.6l-1-2.2q.3-1.1 1.3-1.6c.8-.5 1.8 0 2.7-.4-.7-1-2.5-1.6-2.3-3-.2-.6.4-2.2 2.6-1.5l.3-.9q-.3-1.8 1.4-2.7.8-.3 1.5.4l1.2.7.6-.7q-1-.9-1-2.3c-.4-.7-.2-1.7 1-2.1.5-.4 1.1.2 1.4-.3-.3-1.2-.4-3 .8-3.2q.8-.7 2-.2t2 1.6c1 .6 1.8-1 2.9 0q.9.7 1 1.6v2.1c.5.2 1-.6 1.6 0 .3.5.8 1.1.5 1.8 0 1.5-1.5 1.5-1.9 2.8.5.4 1.5.7 1.5 1.5q-.2 1.5-1.2 2.5c0 .3-.4 1-.1 1 1.6-1.2 2.3-2 3.4-1l.2-.2.6-.3.6-.4h.1l.3-.2.8-.3.8-.3.4-.2c3.7-2 4.9.7 5 1l.1 1.6.1 1.2c.6.7 2.4 1 3.6.8q.6-2.8 2.4-2.9a6 6 0 0 1 2.2.3l-.4-1.1h1.2v-.1a9 9 0 0 1-4.9-6.8 26 26 0 0 0-2.6-7.8l-.5-.6.8-.2c.4-.1 1.8-.5 2.6-1.7q.4-.7.4-1.7l-.2-.5-.2-.4-.7-.8 1.1-.1 1-.1h.4q.3-.8.1-1.5v-2.2l.1-.4h.5l2.2-.3q.9 0 1.5-.4v-.2l-.3-.8v-.3l.2-.2c.8-.8 2.6-1.6 4.1-1.9s3.2 0 3.3 2l2.2.1-.2-.7v-.4l.2-.2a12 12 0 0 1 10.4-2c2.7.7 4.6 2 4.6 2l.3.3v.3l-.4 1.2h1.8l.1-2.2.1-.2c.7-1 2.2-.9 3.3-.6q2 .6 3.7 1.7l.3.2v.3l-.1.4-.2.5c1 .4 3.8 1 4 1l.5.1-.1.6c-.2.9 0 2.9.1 3.7l1.5.7.3.1v.4c-.2 2.9 3 3.7 3 3.7l.7.2-.4.7q-.8 1-1.9 5c-.9 6.8-2.5 8.2-6.8 9.7v.3h2.2l-.2 1.1h.3c3.4-.9 4 2 4 3.3.4.3 1.9 0 2.5-.3l.6-1.8.9-2a9 9 0 0 1 4.8-1c2.2-.2 4.1 1 5 2 .1-.1 2.6-2.8 3.2-3l-.9-7.9c0-1.3 2.3-1.8 2.6-1.6l.4.2.3.2q.6.8 1.3 1.1a4 4 0 0 1 2 .8l1.3 1.2c.7.9 2.2 2 2.3 2.4l.4 1.1.9 1 1.2.7q1.2.6 1.6 2l1.8 1.2c.6.6 1.3 2 1.3 2 .3.6.8 2 .8 2.6q1.4 4 1.4 9.7c.6 4 2.3 6.2 2.5 8l-.1 3.4c-.2.9-.2 1.4-.6 2.6l-.5 1.5-.6 1.3c-.5.8-1.9 2-3 2.7-.1 0 .4 7.4.6 7.4l1 .3.3.2c2.8 1.4 7.2 4.5 3.6 12l-.1 3.3.1 3.2q-.1 2-1.5 2.9l-1.3 1-1 .7c0 3.7 0 8-1 11l.7.5.6.4 2-4.1h.1q1.4-.1 2.1.8l.7.8.6.8q.6 1.3.4 3.5l.2 5.8q-.3.2-.4.7v1.6q0 1.8-.3 4.7.4 2 1 3.4l.6 2c.1.4-.7 1.8-1.1 2.5l-.6 1.1-.4.9-.2 1.6c0 .5-.3 1.4-.3 1.4s-2 .7-2.9.6c0 .6.4 2 .5 2.7.7 2 1 4.5-.6 6.3 0 .4 0 3-1.1 3.5 0 0-1.2-.5-1.6-.5l.6.4c.5.3 1 .4 1.1 1.2 0 0 0 1-1.2 2.2l-1 .8-.8.7v1.4c-.1.3-.3.2-.3.5l-.1.7s-1.5 1.4-2.2 1.7l-.8.8-1.5.8-.4.6-.2.3c-.4.4-1.5.3-1.5.3 0-.1-.7-.4-1-.8l-.2.6-.5.7c-.4.5-2.8.4-3.2.4q-.5.2-.9.9s-6.5.9-7.5-1.5c-.4 0-.9.6-1.3.6h-1.3c-.8.4-2.7.7-2.7.7-.5 0-.9-1-1.1-1.2-.4 0-1.4.9-1.7 1H282c0-.4-3-7.1-3.8-9.2l-1.3 1.4zm12.9-113-.9-.7q-.3-.4-1.3-1l-2.2-.9-1.4 2.7q-.8 1.6-2.6 2.6c-2.2 1.2-5 1.8-6.8 1.1v.7h15.4v6c.1-.4 1.9-2.7 3-2.9l2-.2 1.6-.2-1.5-1.3-1.4-1.3a10 10 0 0 1-3.7-4l-.3-.6zm-53.7 4.6V126c-1.8 1-3.8.8-5.8.5-1.4-.3-3.5-1-4-3.3l-1.5-3.2v-.1c-.7.4-3.8 1.8-3.7 2.1 0 0-.3 3.2-3.5 4.1l.2.6-1.1 1.1-2.3.7-1 .3c-.9 1.2-2.4 2.3-2.3 3.9.5-.2.9.2 1.2.2.1-1-.2-1.8.4-2.5.5-1 1.4-1 2.3-1.3l.5.2.5.2.5.4.3.3h.5s2.3-2.2 4 .2v-3zM221 178.9c-.5.2-2.3 1.3-2.7 1l.2.4c1.6 1.7 1 3.6-1.2 3.6h-1.6l-1-.2.7.4c.2.7.6 1-.6 2-1 1-2.1 1-3.4 1.4 2.5 2 5.1 3.6 7.3 6.2q1.3 1.7 2.3 3.8v-1.8zm1 23.6-.3 1.5q-.8 1.5-1.1 3.1c1-.5 2-1 3-.6q.8.5 1.1 1.2c.3.6-.2 1.2-.3 1.8a3 3 0 0 1 1.7 1.1q.3 1.6-1 2.9c-.1.4.5.5.6.5q.2-1.2 1.1-2 .8-.4 1.5 0c.5-.5.4-1.2 1.1-1.6l.6-.3c-2.4-.6-6.2-2.4-8-7.6m10.3 8q.3.4.8.6l1-.7zm23.1 3.9h.8q.6.5 1 0v-.1l2-.4 3.8-.9a39 39 0 0 1 6.3-.6c1.1.3 2.9 1 3 1.9q.4.5.5 1.1a7 7 0 0 1 6.1-2.2q.5-1.7 2-2.8h-16.4c-2.4 0-4.2 1-5.5 2l-1.4 1.4-.3.4-.2.2q-.2.4-.9 0l-.5-.4-1.5-1.3a11 11 0 0 0-5.5-2.3h-12.5l1 .9.6.5.8.9q.3-.3 1-.4c1.1-.1 3.1-.3 5.6.4q5 1.2 9 1.5zm31.2-6.7 1-.1h2.8l-1.1-2-.8-1.4q-.8 2.2-1.9 3.5m3.1-13q1.2-1.7 2.7-3.2l3-3.2-3.6-6.8-2-2.5zM277.1 95a5 5 0 0 0 2.5 2 24 24 0 0 0-2 7.1c-.7 4.5-3.3 5.6-4.9 6z"/><path id="path4" d="m275.9 93-5 17.8-.8.4 5.1-18.4zm-6.6-2-5.6 18.9-.6-.6c.9-2 5.6-18.4 5.6-18.4zm-22 18.5-.5.4-5-18.7.6-.3zm-7-17.9 5.1 19.6-2 1.6-2.3-.8-5-19.3q1.9-.3 3.9-1zm-.9 20-.6-.2L234 93h.5zm18-20.3v20.4l-2.1 1-2.2-1.1V91.3zm-6.5 0v19l.6.4V91.4zm8.7.2.1 19.1-.6.3V91.5z" fill="#ee062c"/><path id="path5" d="m273.7 92.4-5.5 19.7-1.6.6-1.4-1.5 5.6-19.7z" fill="#0055ee"/><g id="g13" fill="#ffc33c"><path id="path6" d="M266.2 87.6c0 .5.2.4.7.7.5-.3.4-.4.7-.8-.3-.2-1.3-.3-1.4.1m-19.8 22.7-.5.4-5-19.2.4-.2c.9 3.2 4.9 18.1 5 19m3.4-16.5.6-1.2c-.1.2 0 17.4 0 17.4l-.6-.2zm-2.6 1.2s1.1.2 2.1-.6v15c-2.2-1.7-2.1-5.5-2-9.8q.2-2.9-.1-4.6m11.3 16.3-.6.3v-20h.6zm-6.5-.2.5.3.1-19.9h-.5zm7-20.6c.6 0 1.4 1.1 3.2 1.2q2.6.3 4.8-1.4l-.2-.3c-1.2.3-3.3 1.3-7.9.5m11.6-3.4q1.6.7 4 1v.8l-3-.3c.6.4 2 .7 3 .8v.6l-2.8-.2a9 9 0 0 0 2.8.8l.2 1q-1.6-.4-3.1-1c-1.3-.4-2.3-.2-2.4-1.6 0-.4.5.2.6 0zm-5-2.8c0-.7 2.7-.3 4.8 1.1 0 .4-.6 2.1-1 2.6 0 0-2-2.2-4-1v-.8c.7-.2 1.5 0 2-.2q-1.3-.5-2-.5V85l2.1-.3zm-24 4-.7 1.3c0-.4-.7-1 .6-1.4m1.7-.2c0 .4-.2.3-.7.7q-.4-.3-.7-1c.3 0 1.3-.2 1.4.3m-4.2-.4q.2 1 .6 1.8c0 .2.6-.3.6 0 0 1.4-1.1 1.4-2.4 1.7q-1.3.5-3 .8l.1-1q1.7-.2 2.7-.7l-2.6.2V90q1.7-.2 2.9-.8l-3 .3v-1q2.4-.2 4-.7m4.7-3.3.2.2-2.4.8h2.6v.4l-2.4.8 2.3-.1-.1.9c-2-1.2-4 1-4 1l-.9-2.5a8 8 0 0 1 4.7-1.5m-6.8 26.4a8 8 0 0 1-4.1-6.1q-.7-3.7-2.3-7 1.3-.4 2.4-2zm1.1.4-.5-.2-4.2-15.8.3-.6c.3.8 4.2 15.3 4.4 16.6M261 110l-.6.3V92.7q.2.8.6 1.4zm2.7-14.7c-.4 1.6-.3 2.6-.3 4.6.1 4.3.3 8-1.9 9.7v-15c1 .8 2.2.7 2.2.7m-23 16.5-.5-.2-5.1-18.9h.5zm6-9.1v2.5c-1-4.3-2.6-10-3.7-14.2l.8 1zm1-9.5v.8h-1.5c.5 1.1.6 3 .5 4.2v2.3l-2.2-8c1.7 1.2 3.1.7 3.1.7m3.2-3c-.6 0-.8 1-2.6 1A8 8 0 0 1 243 90l.3-.3c1 .3 3.9.8 7.6.6M265 87v.7a6 6 0 0 0 2 1.4c-1.5 1.4-7.7 1.2-8.6.2q-.2-.2 0-.6c.7 0 1.1.9 2 .5 0 0 1-1.3 1.3-2.3.7.5 2.8.4 3.3.1m-6.9.3c-.2.8-.6 1.3-.3 2.4-.8-.5-1.7-1.6-1.5-2.4h-2.2c-.1.1.2 1.3-1 2.1l-.7.4q.6-.7.4-1.3l-.4-1.2a8 8 0 0 1 5.7 0m-9.5-.9.9 2.6c.8 1 2.2-.5 2.6-.1.1.5-.4.4-.6.5-4 1-8-.4-8.2-.3q1.1-.3 1.3-1.1l.2-.7.1-1c1 .5 3.5.3 3.7.1m1.3 1.2-.2-.6c.8-.6 2-1.2 2.7-1.8l-3 1-.1-.3c.7-.6 1.8-1 2.5-1.6l-2.8 1-.1-.5c1.5-1.7 6.3-2 6.3-2 2 0 4.5.9 6.5 2l-.1.4-2.8-1 2.5 1.7-.1.4-2.8-1q1.3.8 2.5 1.8l-.2.5c-2-1-3.3-2-7.7-1.2a13 13 0 0 0-3 1.2m21 29.9s-1.1 1.2-.5 4.4h-30.6c.6-2.7 0-4.4 0-4.4zm-1.7.8h.6l-.4.4c-.5.7-.2 1.7 0 2.4l-28.3.1-.2-3zm-.8 2.2q-.2-.8 0-1.6H242l.1.7-.1 1zm-12.7-6.7c1 0 5.2-1.4 6.4-2.5a9 9 0 0 0 4.1 2.3c-1-.7-3.4-3.4-3.6-3.5-.5.7-6.9 3.7-6.9 3.7m16.3 10.8.7.8.1 1.7h-35.3v-1.8q.5-.3.8-.7zm-.8-1.4.5.8h-33.4l.5-.8zm1-7.6c-.2.4-.9.7-.9.7h-32.3l-.5-.7zm.8-1.7-.2 1H238l-.5-1zm-17.8-.2c-1 0-5.4-1.5-6.7-2.5a10 10 0 0 1-4.5 2.4c1-.7 3.6-3.7 4.2-4 .5.8 7 4.1 7 4.1"/><path id="path7" d="M195.4 153c0 .8.1 1.8 1 2 1.2.4 1.4-1.3 2.2-1.9q.4 0 .8.3c1.3 1.5-1.3 3.2.3 4.7 1 0 1.7-1.4 2.6-.5.8 1.6-1.3 2.2-1.2 3.6q.6.4 1.3 0c.3-.3.6-.1 1-.2 1 2.4-1.8 4-1.9 6.2q-.1.2-.4.2a34 34 0 0 1-3.5-6.8c.2-1.8.6-4.3 1.3-5.8l-.2-.2c-.9 1.6-1.8 3.2-1.8 5.1q-1.7-2.5-2.6-5.5c0 1.5.7 3 1.2 4.5-1.2-.3-2.3-1-3.5-.7l-.2.1q.7.4 1.5.6c1.5 1 3.7 1.7 3.8 3.9-.8-.6-2-.3-3-.8q-.3 0-.4.4c.3.6 1 .3 1.5.7 1.4.9 3.4 1.5 3.8 3.4q-1.1 0-2.2-.4l-.6.3c1.2.7 2.7.8 3.7 1.7q.4.1.4.5L196 167q-.8-.7-.4-1.6l.3-1.4c-.5-.6-1.3-.6-2-.8-.3-.4-1.2 0-1.2-.9-.7-1.5 2-1.2 1-2.6-.7-1-2-.4-2.8-1.3q-.4-.7-.1-1.4c.6-.3 1.6-.2 1.9-1 .5-1.2-.5-3.5 1.5-3.8q.9 0 1.2.8m4 10.4-.1-.1a7 7 0 0 1 1.9-4.3zm2 2.8-.2.2c-1-.3-.3-1.6-.2-2.3q.7-1.2 1.6-2-.4 2-1.2 4.1m18 5q.2 1.6-1 2.7c-.2.5-.2 1.4.2 1.7.7.5 1.6.7 1.7 1.7 0 2.6-3.6.3-3.6 2.9.3.8 2 .8 1.5 2-1.7 1.3-3.5-1-5 .6l-.2 1c.4.8 1.8 0 1.2 1.3-1.4.8-3 .2-4.3 1.5-.2 0-.8-.3-.5-.7l1.7-2.6q1.4-.7 2.5-1.8l-2 .3c.6-2.1 3.5-2.3 5-3.6l-.3-.1q-1.4 0-2.7.5 1.1-2.5 3-4.5.3-.7 1-1.5v-.2h-.3c-1.7 1.3-2.2 3.4-3.8 4.7q-.1-2.3-1-4.5l-.2.3-.2 6.2c-.2.5-1.2 1.7-1.2 1.7-.4-1.7-.7-3.6-2-4.9-.3.7.3 1.4.4 2.2q.3 2 .3 4c-.2.3.1 1-.4 1.2-.5-1-.6-2.4-1.7-3-.4.5.2 1 .1 1.5.5 1.2 1.2 2.5.8 3.8-1.1-.2-.3-1.3-.5-2-.2-1.5-3-3.3-.5-4.5 1-1-.2-1.9 0-2.9q.2-1.3 1.4-1.8c.9-.4 1.6 1.2 2.3 0 .5-.8-.4-2 .5-2.6a3 3 0 0 1 1.6-.5c.7.3 1 1.3 1.9 1.3q1.6-.3 2.3-1.7c.6-.2 1.8-.7 2 .4m-17.5 1.7c-.7.1-1.5.5-1.6 1.3q.3 1.5.8 2.7-1.9-3.3-3.5-6.7-.7-.9-.9-1.9c2.4.3 4.5 2.2 5.2 4.6m9.2-2.2c-.5.8-.8 1.2-1 2.1l.1.6q-1.2-.3-2.5.4-1 1-1.3 2.2c0 .6.5 1.3.2 2-.6.8-1.3 1.6-1 2.7l1 3-1.6-2c.8-5 1.3-10.2 3.7-14q1.4 1.4 2.4 3m-8-3.6-.5-.1q0-1 .6-1.8zm4.8-.4-1 2.4q-.5-1.4-1.4-2.9l-.3.2c.6 2.4 1 5.3.3 7.8-1-1.5-1.4-3.3-2.8-4.5 0 .2-.2.8 0 1a22 22 0 0 1 2.2 5.7q0 .8-.4 1.1-.5-1.2-1.6-2.3h-.4a11 11 0 0 1 1.4 5.7h-.2q-.8-3-2.2-5.9c0-1.1 1.3-.4 1.7-1.3.6-2.2-2.2-3-1.8-5 .2-.6 1-.4 1.6-.4s1 1.6 1.7.5l-.5-2q-.4-1.7.7-2.8c1.5-.3 2.2 1.7 3 2.7m-13.2-2.2q-.7 1.3.2 2.6c1 .6 1 1.8 1.4 2.7-1.3 0-2.7-.8-4-.2l.3.3q2.4.3 4.6 1.7.5.5.7 1-2-.4-4.1-.2l-.3.2c1.5.8 3.3 1 5 1.8.6.6 1 2 1.4 3.4-.4.2-2.4-.7-3.9-.4-.2-.8 0 .1-.3-.6a3 3 0 0 0-1-3q-.6.1-1.7-.4-.3-.1-.5-.7c-.1-.8.7-1.8-.5-2.2q-1-.3-1.4-1.4c.7-.9 2.4 0 2.4-1.6-.1-1-1.2-1.6-.8-2.6.2-.4 0-1 .4-1.2q1 .2 2.1.8"/><path id="path8" d="M203.4 114c-1-.3-.7-1-2.9-1.4q2.6 2.1 4.5 4.7l.1.3c-1-.3-2-1.2-3.3-1.1q2 1.3 3.8 2.8c.5.2.5 1.5.7 2.4-1-.6-1.7-1.2-3-1.2l.9.7q1.8 1.4 3 3.3v3.4q-.3-1.1-1.3-1.6-1-.2-2 .4.2-1.3-.3-2.4a3 3 0 0 0-1.7-.9c.7-1.7-1.7-2-1.2-3.5q.6-.4.8-1.1-.3-.7-1-.9-.8.3-1.5 0-.6-.4-.5-1.2 0-.5.5-.5.8.2 1.4-.7c.3-2-3-2-2-4 .8-.4 1.6.8 2.3 0q.5-.7.5-1.5 1.3 1.8 2.2 4m-5.8 2.4q-.1 1.7 1.3 2.4l1 .3q-.4 1-.1 2c.5.8 1.4 1.3 1.2 2.3l-.5.1c-.2.3-.8.6-.7 1.2-.3.1-.2.6-.5.6-.8 0-1.4-.8-2-1 .4-2-2.5-1.9-2-3.7.9-.5 2 1.4 2.5-.2.2-.7-.4-1.1-.6-1.6-.2-.7-.8-1.3-.5-2zm15.4-13c-.6 1.3-1.4 2.3-1.6 4q-.5 0-.6-.4c0-1.5 1-2.8 2-3.7zm-2.6-1.5c.4.2.8.6 1.3.3q.7-.8 1.6-.4c1.6 1.3-1.1 3.3.9 4 .4 0 1-.4 1.4 0q.3.6-.1 1.3c-.8.5-1.8 1.4-2.1 2.4-.2 1.4 2.7.6 1.3 2.3q-.5.8-1.3 1.2h-.3s-1 0-1.5.8a43 43 0 0 0-2.2-9.7l-1.1-2.1-.1.4a20 20 0 0 1 1 4q-1.5-.8-2.9-1.2h-.1q3.3 2.3 3.4 3.2l.4 2.2c-1-.2-2.2-1.1-3.5-1.2l.1.2a15 15 0 0 1 3.4 2.4q.3.9.2 1.9c-1-.2-1.8-1.2-3-.8q2 1 3.1 2.6v1.4c-.7-.6-.7-2-1.8-1.9-.7-.4-1.7-.8-2-1.6-.3-1 .7-1.6.2-2.3-.8-.9-2.2-1.3-1.6-2.7.4-.8 2-.3 1.8-1.6-.5-1.2-2-.3-2.2-1.4q-.2-.8.1-1.6c.8-.4 1.6 1 2.2 0 .3-1.4-.8-2.8.4-3.8 1.3-.5 2.5.6 3 1.7m-2 29.7h-.2q-.6 0-.5-.6v-.6l.1-.4v-.5q0-.5.2-.9v-1.5l.4.4q.4.7.4 1.4v1.5zm-3 8.7-.2-.7v-.7l.3-.2.1.3q.4.4.6 1.2l.5 1.2-.4.2zm-.3 7 .3-1.3h.4l.2 1.4q0 .8-.2 1.4l-.2.3-.2-.3q-.5-.7-.3-1.4M219 115c0 1-.3.8-.5 1.6.5.8.7-.2 1.5-.1.4.2.3 1.5.3 2-.4.2-1 1.8-1.5 1.8-.7.3-.4.5-.8.7.4 1 2 1.7 1 2.8-.4.4-1.6 1.2-2 1.1q-.7-.6-1.4-.3-.5.3 0 .7.7.4.4 1.2c-.4 1.4-2.2.5-3 1.5-1.8 1.5-3.6 3.3-3.5 5.7.6.5-.3 1-.2 1.6a5 5 0 0 0 .4 3.1c.4 0 .4-.7.6-1-.4-1.1-.3-2.5.5-3.3q.2-.3.6-.2.1.7.5 1.2c.5-.2 1.2-.2 1.3-.8.4-1.4-.7-3 .7-3.8h1.2q.6.9 1.5 1.1c1.1-.1 2-1.8 3.3-.8q-2.8 2.6-5.4 5.5.9-1.8.4-4l-.2.2c-.6 1.1-.6 2.5-1 3.7q-.4 2-1.8 3.3.1-1.6-.3-3.2l-.2-.2v.3c-.4.7-.1 1.4-.3 2.2-.2 3.2-2 5.7-3.2 8.5q-.5.9-.4 1.8c1-1.2 1.3-2.7 2-4l2.4-4 5-2.2q-1.2-.2-2.4.2l-1.3.3q.5-1.2 1.6-1.4 1.8-.9 3.8-1.5l.4-.5c-1-.6-2.1 0-3 .2 1.1-1.6 2.8-3 4.3-4.3 0 1-1 1.6-.4 2.5.3.8 1.3.8 1.3 1.7-.2.3 0 .3-.4.5-.8.5-2.4 0-3 1.2 0 .6 1 1 .6 1.7-.1.6-.9.8-.9.8l-1.7.2c-.6-.2-1 .2-1.6.3q-.3.4-.1.9.4.1.8.5c-.3 1.2-1.9 1-2.7 1.7q-1 .2-1.8 1c-1.8 1.8-2.2 4.3-3.8 6l-.2-.4c.2-2.6 1.8-4.7 1.2-7.4-.7-3.4-3-6.2-4.6-9.2-1.6-2.2-3.8-3.8-5.8-5.7-.2 0-.6-.4-.8-.2 1.8 2 2.7 2.4 4.6 4.3.6.4 2 3.1 2.2 3.8-.5-.2-1 .3-1-.6-.5-1.3-1-3-2.5-3.3q-1-.2-1.6.5-.6.8-.8 1.7c0-.8-1-1.6-1.4-2.3 0-.4.6-.6.7-1-.1-1.7-1.2-3-.6-4.7q.7-.8 1.6-.3c.7.3 1.1 1.7 2 1 1.5-.3.7-2.8 2.6-2 1.5.9-.1 2.8 1.2 3.7.8 0 .7-.5 1.1-1-.1-.1 1-.7 1.4 0 1.3 1.2 0 2.8.4 4.3q.4.6 1 .5c.4.9.6 2.2 0 3 0 2-1 4.4.3 6.2l.4-.3c.1-3 0-6 .8-8.7q.9-1.4 1-3c2-3.3 3.4-6.8 5.4-10q1.2-1.7 2-3.4v-.1c-1.4 1.2-2 2.9-3.1 4.3-.2-1.3.5-3.5-1-4.3-.9 1.1 0 2.5 0 3.8.3 1.4-.3 2.8-1 3.8-.6-1.4-.5-3.2-2-4.2-.5.9.4 1.6.5 2.4.2 1.4.7 3.2-.2 4.5-.2-.5 0-1.2-.5-1.6l-.1 3c-.4-1-2-1.6-1.3-3.4q-.2-.4.3-.6l1.2-.7c.3-1.7-2.4-2.9-.8-4.6q.3-.2.5.1.5.2 1 0c1-.7.3-2.4 1.2-3.2q.5-.6 1.2-1.1c1.2-.3.8 1.4 2 1.3 1.4 0 2-2.2 3.5-1.3zm-17.1 12.5c.2.8-.2 2.1-.5 2.9l-.3-3.4c.7-.6.6.1.8.5m2.6 3c.2.8-.2 2.1-.5 2.9l-.2-3.4c.6-.6.5.1.7.5m2 3c.1.8-.3 2.1-.5 2.9l-.3-3.4c.7-.6.6.1.7.5m12-10.7c-.4 1.1-5 2-5.8 3 .2-1 1.4-2 2.3-2.4 1-.5 2.3-1 3.4-.6m1.1-4.5c-1.6 1.7-3.8 2.2-5.3 3.8 0-.7 3.6-3.6 4.8-4q.3 0 .5.2m-19.2 15.2c.3.8.8 1.5.7 2.3q.2.7.6 1c.5.1 1-.7 1.6-.2s.8 1.3 1.2 2c-.6 2.6 3 3.9 2.4 6.3v.3c-.7-2-2.9-2.7-4-4.6-1.5-1.5-2-3.6-3-5.3-.2 1.7.6 3.3 1 4.9-2.2-.2-3.6-2.2-4.8-3.8-.3-.3-.2-1-.7-1.3l-.2.2a21 21 0 0 0 1.7 4l-4 .2c1 .4 2.6.4 3.7.8-1 1.3-2.1 2.3-2 4 1-1.3 1.4-2.6 2.9-3.6 1-.1 2.4.3 3.2.6-.6.9-1.8 1.7-1.5 2.8 1.2-2.8 4.3-1.7 5.4-.3.3.6.9.5 1.1 1.2-1 0-2.1 2.3-3.1.7q.1-1-.4-1.6c-1.8.7-1.6 3.6-3.8 3.2-.7-1 .4-2.3-.8-3.2q-.7-.1-1.3.3-.4.7-1.2 1.3-1 .3-1.7-.5c-.9-1.2.8-2.5-.5-3.6-.9-.8-2.7-.4-2.7-2q0-1.4 1-2.1c1 0 2.4 1.1 3.1-.4.4-1.3-1-3.5 1-3.8 1.6.5.6 3.1 2.6 2.5.7-1-.1-3.4 1.7-2.8zm13.6 23.2-.2 1.7q-.7-.4-1-1.4.4-.4 1.2-.3m2.3 1.4-1.2 1.8c-.6-.2-.5-1-.4-1.4v-1.7a2 2 0 0 0 1.8-1v-.5c0 .8.3 2-.2 2.8m-7.3-8.8-.2-.2v-.5l.2-.4.2-.2.1.2.2.6v.2l.1.2.1.2-.2.1q-.3 0-.5-.2m12-3.7c0 1.3-1.2 2.2-.7 3.5q.7 1 .3 2-.3 0-.3.3c-.6.2-1.3-.9-1.7 0q.4 1 .4 2c-1.4 1.2-3-.4-4.5 0-.4 0-.2.4-.2.8.4.4 1.1.7 1.2 1.4l-.3.2c-1.2 0-2.5-.3-3.4.6q-.4-.3-.7-.8 1-.5 2.3-.6l.1-.2c-.7-.4-1.6-.2-2.4-.3.5-1 5.2-2.1 5.9-2.2q-1.6-.6-3.5-.2l-1 .3c.7-1.3 1.6-1.4 2.9-1.9q1.5-.4 3-.4l.4-.3q-1.7-.8-3.5-.4 1.2-1.5 2.8-2.6 1.4-.9 3-1.2m-8 .6c-.7-.3-.4-1.1-1-1.3a2 2 0 0 1 1.3-.7zm8-1h-.6c-1.8.5-3.3 1.8-4.9 2.9 0-1.2.5-2.5-.2-3.5l-.7 3c-.2 1-.4 1-.6 1.9-.3.3-1.8 2-2 2-.5-1.3.1-3-.9-4l-.1.2c0 2.4.2 4.8-1.2 6.7h-.2c-.5-1.3 0-3-1.1-3.9q-.2 1.3 0 2.5c-.7-.2-.6-.8-1-1.3-.2-.9.6-1.4.8-2.1h.3l1 1q.5 0 .8-.3c.4-1.5-1-4 1-4.5h.2c.4.6.1 1.8 1.1 2q.8-.3 1.3-1c-.2-1.5 0-2.7 1.4-3.5q.8 0 1.2.8.2.8.8 1.1c1.4-.4 2.1-2.2 3.7-2zm0 12.5c-1 1-2.6.7-3.3 1.9 0 .2.3.8.6.9.6.3 1.3-.5 1.6.4-.4 1-1.5 1.2-2 2-.9-.5-1-.9-1.7-1.6q.3-2 1.4-3.8 1.2-1.4 2.7-2.6c-1 .2-1.8 1.5-2.9 1.8l-.1-1.7c.6.2 1.2-.3 1.8-.5q1.3-.8 1.3-2.3l.5-.2zm-15.6-45.9q-.2 1.5.4 2.8 1.3 1.2 2.8 2c.7 1-1 1.4-.8 2.6q-.3 1.8 1 3-.4.8-1.2 1.2c-.7-4.8-2.9-9-5-13.2q-.8-.9-1.2-1.9.3-.2.7-.2c.9.1 2.8 3.2 3.3 3.7"/><path id="path9" d="M204.7 190.9c-1 1.4-.5 3.5-1.2 5.1q-.8-.7-.5-1.5-.3-.2-.1-.5.4-1.3 1-2.4c.4-.2.3-1.2.8-.7m-10.6-6c.6-.2.4-1 .9-1.3 1 1.4.7 3.2.8 5-.3.3-1 .3-1.2.8q-1-2-2.3-3.9c-.5 0-.6-.9-1-.6 0 1 .9 1.8 1.3 2.8-.7 0-1.6-.8-2.4-.2 1.2 1.2 3.7 1 4 3.1-.3 1 .6 1.8 1.1 2.6l-2.7-.5-.2.1c.6 1 2 1.3 3.1 1.9q-.4.9 0 2 1 1.1 2.6.7 0 1.4.8 2.3l-2-.1c-.8-1.4-2.4-1.1-3.6-1.3q-.5-.5-.3-1.2c.3-.7 1.3-1.2.8-2-.8-1-2.3-.9-2.7-2.2-1-1 .7-1.7.5-2.8-.9-.9-2.8-1-2.5-2.6.4-.8 2.3-.8 1.4-2q-.6-1.1-.2-2.2c1.5-.9 2.2 1.3 3.4 1.8zm-2 13.4q.2.6.8.8c1 .7 2.4 0 3.3 1.1q-.3 1 .3 1.8 0 .5-.7.6-1.5-.4-2.8.3c-.9-.2-1.2 1-1.7 1.2-.3-.3-1-.5-.9-1-.4-1.1 1.6-1.3 1-2.5 0-1-1.4-2.5 0-3q.6.1.7.7m16.2.7c-.7 2.5.8 4.3 0 6.8l-.2.7c-.1-.4-.5-.9-.4-1.4-.5-2.2-1-4.6-.7-7q.9 0 1.3.9m1.4 1c0 .3-.4 1.2-.6 1.4l-.1-1.9zm-6.5 1-2-.7 1 .2zm-4.8-.3c1.6-.3 2.9.8 4.4 1l1.5.3-2 1.1-3.2-.9-.1.1c.9.6 1.4 1.1 2.5 1.3l-.9.6q-2.6.4-5.3.5h-.1c1 1.2 2.6.7 4 1-.4.4-3.3 1.6-5.7 2q1.3.4 3 .4-2.3 2.7-4 5.6 2-2.5 4.3-5c.1 1-.4 2.5.4 3.4.4-.2.2-.8.4-1.1.2-1 0-2.4.4-3.3l1.7-1.4q.4 1.2 1 2.2l.1-.2v-2.9l2.2-1.1c.2.6-.1 1.5.5 1.7.7-.7-.2-2.7 1.3-2.8-.2 1 0 2.3-.8 3.1-.5.2-1.4-.9-1.7.2l.3 2.5q0 .8-.5 1.3c-1 .1-1.8-2.3-2.6-.6-.3 1.5.5 3.6-1.4 4.2q-.6.2-1-.2c.1-.7.3-1.4-.3-1.8-1.3-.4-1.7 1.2-2.6 1.8q-.9.5-1.8.4c-1-.4-.8-1.4-1-2.2.2-1.3 2.8-2 1-3.4-.6-.2-1.4 0-1.7-.5-.2-.7.6-1 1-1.2q1.1-.1 1.6-1.1c-.3-.6-.8-1-.5-1.6.8-1.2 2.4-.2 3.5-.6q.9-.2 1.2-1.1c.4-.6-.5-1-.1-1.6.3-.1.6-.4 1-.1m12.6.3c-1.2.7-.8 2.3-1 3.5q-.1 1.2.2 2.4l-1-.1c-.1-2 .2-4.7.7-5.5.1-.6.8-.8 1.1-.3m3 3.2v2.4q-1.4.3-2.8.3c-.7-1.3 0-2.8-.2-4.3l.2-1.3c1 .7 1.9 2 2.8 3m1.5 3.8-.5.2c.1-.9-.4-1.6-.2-2.5.3.7 1 1.4.7 2.3m2.9 3.4q-.5-.1-.8-.5l-1.7-.8-.2.2c1.5 1.2 3.2 2.6 3.5 4.5-1-.2-2.4-.6-3.4-.2 1.2.8 2.8 1 4 1.8q.6.5.8 1.3c-.9.2-2 0-2.6.7.5 1 1.5 0 2.2.6v.3l-2.9-.1a1 1 0 0 1-.3-1q.6-.6.4-1.4c-.5-1.4-3.2-.2-2.8-2.3q.8-.7 1.1-1.5c-.3-1.1-1.3-2.2-.6-3.4.3-.6.9-.5 1.3-.8q.1-1.5 1-2.6l.4-.2c-.3 1.9.2 3.6.6 5.4m1.1-4.6c.1.5.4 1.4.9 1.7 1 0 1.5-1 2.7-.6q.5.5.1 1.2c0 .5-.7.8-.3 1.4.6.6 2.3-.3 2 1.3q-1 1-1.2 2.3c.3 1 2.4.5 1.6 1.7-.5.6-1.3 1-1 2 1.1.4 0 1.4.3 2.2.5 1 1-.3 1.4-.6 0-.9-.6-1.5-.7-2.3a3 3 0 0 0 1.8-1c0-1.1-.6-2 .3-3 .7-.3.8.9 1.6.1.8-.7.6-2.2 2-2.4.4-.2.3.2.7.3.4.3.3.5.7.9-.1 1.2-.7 2.8 0 3.8-.1.4.7.9.6 1.3q-1.9.3-3.6 1 .4-2.5 1.4-4.7c-.8-.3-.7.7-1 1l-.5 1.3c-.5-.6-.6-1.5-1.4-2l-.1.2c.1 1.6 1.5 3 .5 4.7-.4 0-.3-.7-.8-.7q-.1-.7-.8-1c-.2.1-.4-.2-.5 0 .2 1.2.9 1.7 1 2.7h-.3q-1.4 1-3.2 1.4c-.4-.5-1-.3-1.4-.6 0 .3-.4.5-.3.7l.5.7c-1.2.6-2.6 0-3.8-.2l-.7-.5c-.3.2 0 .5.1.7l2 1.2q-.5.6-1.3 1-1.9 0-3.8-.3l-.2.2 2.5 1.1-2.7 2.5c.2.3.6 0 .8 0 1-.6 1.8-1.6 2.8-2 .2.9-.7 1.7 0 2.5q.4-.3.5-.7c.8-1.3.3-3.4 2.2-3.7.3.8.2 1.8.9 2.5.4-.2 0-.6 0-1 .3-.9 2-3.4 2.5-3.6q0 1 .3 1.7c.4-.7.4-1.6.8-2.2l1.6-.8c-1.2 1-.1 3.4-1.4 4.5h-.6c-.5-.4-.4-2-1.4-1.4-.7.8 0 1.8.3 2.6q-.2 1.1-1.1 1.8c-1 .2-1.3-1-1.8-1.5-.4-.1-.6.4-.8.7q0 1.5-.8 2.7c-.6.4-1-.3-1.4-.2-.4-.6-.1-1.6-.7-2-1.4 0-1.6 2.2-3.2 1.7q-.8-.2-.9-.9c-.6-1.5 2.1-1.7 1-3.2l-1-1q-.1-.8.3-1.3c1-.5 2.7.7 3.1-.8 0-.6-.3-1.5.5-1.7 1.7-.7 2.6 1.7 4.3.8.4-.5-.3-1 0-1.7.7-.4 1 .9 1.6.6q.3.2.4 0c-1.6-1-.3-2.5-.6-3.9q0-1.4.5-2.5l-.1-.1c-1.5.6-1.4 2.3-1.7 3.7l-.9-1.3q.1-3.2 1.4-6c-.7.8-1.8 1.5-2 2.7q-.4.5-.3 1.3l-.5-.9q-.9-3-1-6.3v-.6q1-.1 1.3.8m-5.7 3.6q0 1.4.8 2.3-.2.9-.8 1.5-.6-.5-.8-1.2-.4-1-.2-2zm23.8 3.2.2 1c-.7.8-1.6.9-2.5 1.2-.3-1.4-1-2.8-.6-4.3l1.4-.3q1 1 1.5 2.4m-25.4-.6c.3 1.8 2 3 3.3 4.2h.7l-.3 2a11 11 0 0 1-5-7.8c1.4-.6.8 1 1.3 1.6m21.7-1q-.2 2.2.4 4.2l-.7.1c-1.1-2.4-.4-3.6.2-4.4zm3.2 4.7q-1.5 0-2.8 1l-.1-.3 3-1.4zm-30.5 9.5c-.9-.1-1.7-.8-2.7-.8l.3-1.8c1.3 0 1.7 1.7 2.4 2.6m-6.3.8-1 1.3c-.8 0-1.8.7-2.4-.2q0-1 .2-1.9l1.2-.9c.8.5 1.2 1.4 2 1.7m5.6.2c.7.8 2-.2 2.4 1q.8.5 1.2 1.2c-1.3 0-2.6-.6-4-.5v.1c.6.9 2 .8 2.7 1.4-.4.3-3.3.8-6-.2 0 .2-.6 0-.5.4 1 .5 1.9 1.5 3.1 1.5-1.5 1-3.4 1.3-4.8 2.7.9-.1 1.7-.8 2.5-1.1l1.7-.6c0 .9-1.8 2.7-1.3 3.6 1-2 4.1-5 4.8-5 0 .8-.5 1.6-.2 2.4 0 .2-.3.4 0 .5l.4-.3 1.1-3.1 1.7-.6 1.7.7c-.2 1.1.3 2.9-1 3.3-.6.4-1-.6-1.6-.1-.5.8-.6 1.8-1.3 2.4-.4-.2-1 0-1.2-.5q.1-.8-.5-1.3c-2.5.4-1.6 4.3-4.6 4-.4-1.1.7-3.4-1.2-3.5q-1.2.3-2.5 0-.6-.6-.3-1.3c.2-.8 1.3-.8 2-1.3q.7-.3 1.3-1.2c-.3-.4-.2-1.2-.9-1.2-.2-.5-.8-1.2-.5-1.8q.5-.7 1.3-.4c.6.2 1.3 1 2 .3 0-.9-.8-1.7.1-2.3q1.6-.2 2.4.8m-3.8-.1q.2.3.1.6l-1.6-.4v-.1zm29.7 2q-1.8 2.2-2.5 4.6-.4-.2-.5-.8.7-.3 1.1-1c0-.7-.7-1.3-.6-2 1-.4 1.5-.7 2.5-.8m2.8 3.2q-.5 0-1 .3c-.1 1 1 2 0 2.7-.4-.2-.9-.7-1.3-.4-.7.9-.3 2-.4 3-.6.4-1-.8-1.6-.6-.6.7-1.1 1.7-2 2.2q-.1-1.7.7-3.2 0-.7.3-1.3c.4.2.3.7.6 1l.6.8v-1c-.1-1-.7-2.2 0-3q.5-.9 1.2-1.5c.4 1 .5 2 1.2 2.8.3-.2 0-.5 0-.8.1-1-.3-2 0-3.1.4.7.7 1.9 1.7 2m-5.9-.9q0 .6-.4.7-.6.2-.8.6c.1 1 1.4 2 1 3.1-.2.7-.8.2-1.1 0s-.7-.7-1.1-.5l-.5.4c-.2 1 .4 2.8-.8 3.4-1 .2-1.5-.4-2.2-.7-.8.7-1.6 2-2.8 1.8q-.2-1.2-1.1-2 .7.5 1.9.2c0 .3-.3.5 0 .7q1-2.6 2.5-5c.4.7 0 1.8.3 2.6l.3.2.3-2.6c.3-1.1.3-2.5 1.5-3 .3 1-.3 2.4.7 3 .5-1 .2-2.4.5-3.6q.6-.3 1.3-.4.1.6.5 1.1m-12.4.8q0 .6-.6.9l-2.6.4.3-2zm6.5.4q0 .6-.4.8-.9 0-1.6-.4c-1.2 1.4 1.7 3.2-.6 4.4-1.1.6-1.8-1.6-2.6-.3 0 1 .4 2.2-.5 3-1 .4-2-.8-3 0-.7.6-1.3 2.3-2.5 1.7q-.5 0-.6-.6c-.1-1 1.1-2 0-2.9h-1.7c-.8-.7.5-1.2.6-1.8l.3-1.2c.7 0 1.5.4 2-.2.6-1.1 2-1 2.9-1-.3 2.2-2.8 1.5-4 2.3.7.9 1.8 0 2.7 0 0 1.4-.9 2.5-1.2 3.7.5-.3.5-1 1-1.4q.3-1.5 1.2-2.6c.3.7.1 1.8.9 2.4l.2-.2c-.2-1 .1-5.2 1.6-5.3.4.6.2 1.6.9 2q0 .4.6.6l.1-.2a9 9 0 0 1-.8-3q2.2 0 4.2-.5zm-.8 2.1-.3.2-.2-.6q.6-.1.5.4m6 3.1-.2.9q-.5-.6-1.1-.8l-.2-1.3c.5.5 1.6.3 1.4 1.2m-19.6-26.3q0 .4.2.4c-.2.7-1.3.7-1.3 1.6l-.5 2.7-.1.2c-.5-.6-.2-1.7-.5-2.4l-2 1.4-.3.5q-.1 3 .4 5.5c-1-1.2-1.1-3-1.5-4.5q-1 .8-1.8 1.8l-.2 4.7c-.7-1-.5-2.4-1.1-3.4-1.3 1-1.9 2.6-3.1 3.7-.6-.8.5-1.4.9-2l2-2.4c-1.1-.3-2.4.1-3.5-.4q.1-.3.5-.3l4-.4q1-.6 1.6-1.4l-.2-.3-2.7-1c.1-.6 1 0 1.5-.1.6-.3.9.5 1.3 0 1.5.7 2-1 3-1.8-.3-.2-.4 0-.6-.3a2 2 0 0 1-1.5-.2q-.3-.1-.4-.5c.8-.3 1.6 0 2.4-.1.9 0 2 .4 2.5-.5.4 0 .6-.5 1-.5M200 187c.8-.1 1-1.8 2-1.4.4.4 1.2.6 1.3 1.3.7 1.4-1.1 2-.9 3.3q.4.4.8.3c.8-.3 1.3-1.6 2.3-1.4 1.6 1.8-.8 3.2-.8 5q.3.3.8.1.2-.5.8-.6c.3.8.8 1.7.3 2.6.1.4-.3.6-.4 1 0 1-.4 1.5-.2 3 .4 2.2.4 4.7 1.5 6.7h.2c-.5.6-.3 1.8-.1 2.5q.9 1.5 2.4 2 .5 2.6 1.7 4.8 1.9 2.4 4.2 4l-.5 1.3c-2-.9-3.4-2.8-5-4.4q-1-1.5-1.6-3.3l-.4-.4q-.4 1.3.1 2.7c.1.5-.4.8-.6 1.1-.7.2-1.5-.3-1.8.5-.3 1.6 1 3.3.2 5-.3.4-1 .1-1.4.1q-.7-.7-1.6-.4c-1 1 .2 3-1.3 3.7q-1.2.1-2.2-.5c-.4-.4-.3-1-1-1.4-1.3-.6-1.8 1.5-3.2 1-.7-.7-.5-1.7-.4-2.6-.3-1 1-1.6.3-2.4-.4-.4-1.2-.5-1.2-1.2-.2-.7.5-1 .9-1.4q1.3.2 2-1c.3-.4 0-1 .2-1.4q1.8-.1 2.7-1.7.4-1.5.3-3c.7.4 1.3 1.3 2.2.7.4-.8 1.5-.4 2.2-.3q1.2.3 2.2-.1l.2-.5.1.3h.2q0-1-.6-2-1-3-1.1-6.3-.4-.7-.4-1.6c-.8-1.3.2-2.9.1-4.4q.4-.7.6-1.6v-.1q-.6.4-.6 1c-1 .7-1 1.8-1.4 2.8a15 15 0 0 1-3-5c.2-1.8 0-4 .7-5.7v-.1q-.7 1-1.2 2.1-.3.7-.3 1.4-1.3-2.2-2.3-4.6l-.1.1c.3 1.6 1.1 3 1.5 4.6-.9 0-1.8-.8-2.7-.3 1.3 1 2.8 1.6 3.8 2.8l.6 1.4c-.9-.3-2-1-3-.4 1.4 1 3.2 1.7 4.3 3.1-.6.1-1.3-.3-2-.3l.1.4c1.3 1 3 1.2 3.9 2.8-1.4-1.4-3.4-1.3-5.2-1.8-.2-.8.8-1.7-.2-2.4-.8-.7-2 .6-2.8-.4 0-1 1.7-1.8 1-3-.7-.7-2-1.2-2.1-2.2 0-1.3 2.2-1.1 1.7-2.6-.1-1.1-.3-2.6.4-3.4 1.7-.8 1.8 1.4 2.8 2m8.9 21.1 1 .2s-.2.8.5 1.5q-.8 0-1-.2c-.4-.2-.5-1.5-.5-1.5m-.1-.7c0 .3.3.1.4.3 1-.1 2.1.4 3.2 0l1.7-.3q.3.8 0 1.6a5 5 0 0 1-4.2 1.5c-.7-.1-1.1-1-1.4-1.5 0-.5-.4-1.5.3-1.6"/><path id="path10" d="m257 229.5-1-.6c.2-.4.7 0 1 0zm-10.5-2.7.2-1.4 2.3.5q-.2 0-.3.2-1.2.7-1.3 2.1l.2.9q-1.6 0-2.2 1.3-1.9.6-3.9.7l-.1.3q.3.3.7.4h2.6q-.5 1-1.3 1.7c-1.6.5-3.4.6-4.9 1.1q1.8.8 3.7.3-1.4 1.8-2.2 3.8h.2c1-1.4 3.4-4 3.4-4q0 1.3.3 2.4.3-2.3 1.4-4.2c1.6.8-.6 2.5.7 3.7.6.5.2 1.4.1 2-.4.6-.6 1.6-1.5 1.6-.6.2-.8-.4-1.3-.7-.4-.1-.6-.7-1-.8-1.2.2-2.5 1.7-3.7.4-.4-1.2 1.5-1.9.5-3-.5-.6-1.5-.7-1.3-1.7.3-.3.5-.8 1-.7q1 .1 1.9-.5t.4-1.6q-.3-.4-.3-.9c.4-.6 1-.7 1.6-1.3 1.3-.2 2.8-.3 3.6-1.6zm6.4-.3.2.3-1 1.3c-1 .1-2-.5-2.8-.2q1 .7 1.7 1.7-.8 1.1-2 1.4c-.8.3-1.6-.5-2.2.2.6.5 2.3.8 2.3.8 0 .6-.5 1.2-.3 1.7q.7-.7 1-1.6l.9-1.2 1 2.9.3.2c0-5 .5-5.7 1-5.8.3.9.1 2 1.1 2.5.1-.3-.4-3-.2-3.7l.4-.4h2.9l.2.6q0 .5-.3.8l-1.5-.1q-.3.1-.4.4c-.5 1.6 2.5 1.8 1.2 3.4-.6.6-1.8-.4-2.2.6-.1 1.2.9 2.2.1 3.3q-.8 1-2 .5-.5-.8-1.5-1c-1.5-.1-1.7 2.2-3.3 1.7l-.9-.6c.2-1 .2-2 .8-2.8q0-.7-.6-.8-.4 0-.7-.5-.2-1 .4-1.7c.6-1 2.8.1 2.5-1.4-.3-.5-.8-.8-.7-1.5.3-.5.8-.3 1-.6q.8.3 1.4-.1l.3-.4h.5zm-.3 11q.1 1-.7 1.5c-1 .6-1.7-1-2.6 0-.6.3-.6.8-1 1q-.8 0-1.5-.2c0-.7.5-1.4.4-2.1.4 0 .7.5 1.2.3 1-.3 1.5-1.8 2.6-1.7zm11.8-.8q-1.5.2-2.9 0c-.4-.5-.1-3.1-.4-3.9.3 0 1 .4 1 .7l.3 2.5c.2-.3.4 0 .7-.2l-.1-2 1.3 1.8zm-1.2 3.3-.3-2.3h1.7l.2-.1.4 2.5zm3.5.8h-.1l-.4-1-.1-1q-.1-.8-.7-1.4l-.4-2.3-.8-1-1-1.4.3-1 6.8 8.3-.2.1q-1.6 1-3.4.7m5.5-7.9 1.2 1.8 1.2 1.5.1.1v.1c-.2.8-1.1 1.1-1.7 1.2h-.1c-2.9-3-5-5.9-7.7-9l-.1-2.4.4-.6.3-.2.4-.8h.3q.4.6.4 1.6t.2 1.9q0 1.7 1.7 2.6 2.2.4 3.4 2.2m-11.8-2.2c0 .6-.4 1.4.1 1.8q0 2 .3 3.8l-1 .2c.3-1 0-2.8.2-4.2.3-.5-.2-1.3.4-1.6m15.4 4.8-.2-.1q-2-1.6-3.4-3.7l-.2-.3h.4l1.4.5 1.2.3q1.3.3 2.5.2h.4zm-12.6-7.4-.6-.6-.9-1v-.1l-.1-.5h.2l3.2-1 .3.1-.2.3-.4.3-.4.5q.4.8.3 1.7l-1 1.8h-.2l.1.2v.3l-.3.8-.5 1q-.5.7-1.6 0h-.1l-.1-.8v-.5q.1-.4-.4-.5h-.4l-.5.3q-.4.3-1.2.3h-.2v-.2a4 4 0 0 1-.5-2.1v-.1q.7-1 .3-1.7l3-.6a2 2 0 0 1-.3 1.6l-.5.6-.5.6.3-.2q.6-.3.9-1l.2-.4.3.4q.4.7.5 1.6v.7l.1.2v-.4q.2-.7.1-1.6v-.5l.5.2.3.2zm5.6 5.9 3.3 4.5v.2q-.3.7-1 .5l-7.1-8.6.1-.4.2-.3q.3-.3.7-.4 2.1 2.3 3.8 4.5"/><path id="path11" d="M306.4 165.7q-.2.8-.8 1.4h-1q.6-.8 1.6-1.4zm1.8 1.7-1 1.6h-2c.6-.5 1-1.6 2-1.4zm-3.5.5c-.2.4-.6 1.1-1.1 1.2h-1.5c.6-.5 1.4-1.6 2.6-1.2m1.5 2.1h.6zm1.5-.1c-.3.3-.2 1.4-.8 1.4h-1.5l.6-1.2.2-.1h.6zm-4.5 1.4c-.1-.2-1.6-.7-1.9-.7l3.5-.3c0 .2-.4.8-.6 1-.3 0-.8.5-1 0m5.4.8c-.5.2-.9 1.5-1.6 1l-1.6-.6a7 7 0 0 1 3.2-.4m-9.8 14.4-1.7 1.3v-.2q-1.5-3-3.4-5.6l-1.8-2.8q-1-1.4-1.6-2.9c0-1 1.2-2.2 1.8-2.6l.1-.1.2.2c2 4.1 4.5 8.3 6.4 12.6m10.7-7.6-.4.2.3-1.5q3.3-2.7 6.7-5l.3-.2v1.3q-3.1 3.1-7 5.2m-.5-3.2v1.4a4 4 0 0 1-.9 2.4q-1.3 1.3-2.4 1.8l-.8.4-.4.3-.2.4-.1-.4a56 56 0 0 1-2.4-9.6v-.2h.1l1.2.3h.1l1 5.4.1.3-.2-5.3.3.1 2.3 1v2.1l.1.1.6-1.7h.2l1.4.8.1.1v.3m-7.2 8.1-.2-1.4c-.7-3.5-1.8-6.9-2-10.4v-.3l.8.3 3 11.1zm-1.5 1.3v.2l-.5.2h-.3l-.2.1-6.2-12.7.2-.4.1-.4q.3-.3.8-.4l.1.1q3.3 6.6 6 13.3m.8-1h-.3q-.9-1.4-1.4-3l-1.1-3q-.9-3.2-2.7-6v-.9l1.8.1v.2q2.4 6.1 3.7 12.5m8.6-7.7v-.4q.1-.7.5-1.2l.3-.4.3-.4 5.4-4h.2q.3.5.2 1v.1zm2.3-6.3 4.7-3.5v.4c0 1.2-.9 2.1-1.8 2.9l-1.5 1-1.4 1-.5.4zm3.2-5q1.1-1.4 2.6-2.7l.4-.4v.6a5 5 0 0 1-2.2 3.2l-1.5 1-1.5 1.3-.3-.3zm-3.4 2.1-.1-.2-.4-1-.2-1 5-7.3.2.1q.8.4 1.1 1.2l.6 1.5zm1.4-6.8-2.3 3.4-.2.2-.7-.7v-.2q2-3.6 4.3-7v-.2h.2q.6 0 .5.4l.1.2v.2h.2v.2zm-.7-5.3 1.2.4-1.3 2.3-.4-.2zm-3.2 9.6c1.5 2 2 5 .8 7.3-.5.8-1.1 1.7-2.1 1.6l2.1-2c-.4-.8-1.3-.4-2-.4l.5-1.3 1.6-.6c0-.3-.2 0-.3-.2l-1.7-.2c.4-1 .9-1.2 1.3-2.4l-2.6.4.8-1.4c.3-.1 1.3-.2 1.4-.5-.6-.3-.5.3-2-.1.4-.4.6-1.1 1.3-1.2.5.1.5.7 1 1"/><path id="path12" d="M289.9 152.9c.8 0 1.1.3 1.8 1q.3 1.3 1.3 2.4l-3-.9-.1-.3zm0-3.1c1 .3 1.2 0 1.2 1.3l.1 1.2-1.3-.7zm0-3.3c.6.4 1.2.3 1.4 1-.2.6-.2 1.4-.3 1.2l-1.1-.7zm0-2.7c.8.7 1.5 1 1.3 2-.4-.6-.7-.4-1.3-.8zm0-4.3c1.3 1.3 3 3.7 2.1 4.6l-2.1-2zm21.4-18.6h-1.9l.3-.4q.8-1.4 2.3-2l.2-.2.7 2.3h-.2zm1.7 1.4v.6h-.2l-4.7-.2-.7-.1.6-.3q1-.6 2.3-.4h2.5q.3.2.2.4m-7.6 2.6 1-1.3 6.9.1v1.1zm-2.2 2.3 1-1.3h9v.8zm5.2 2.5-5.2-.3-1.7 1-.1-.1q-.6-.6-.1-1.1l.4-.5.3-.3v-.1l1-.3h10.2l.7 1.3h-.3q-2.4.6-5.2.4m.7 5.8-.3.1.4-5 4.8-.1.5 1.7h-.1c-.7.7-4.6 3-5.3 3.3m-1.9 1.2v-.3q-.5-2.7-.2-5.5v-.2l.6-.1h.7v5.5zm-1 .7v.2h-.6l-1.4-6.8h.2l.7-.1h.9v.2zm-1.3 1-.2.1v.1q-.2.2-.5 0h-.1q-1.3-3.6-2-7.1v-.2h.9v.1c.5 2.3 1.5 4.5 2 6.9m-4 0q1.9 3.4 3.1 7l1.5 2.6 1.2 2.7-.5 2-.2-.7q-1.6-4.4-4-8.4-2.7-4-4.7-8.2l-1.5-3.7h.2l.6-.2h.7q1.7 3.6 3.6 7m2.1.8-.4.2-1.8-3.4q-.9-1.7-1-3.7v-.3h1v.2a30 30 0 0 1 2.2 7m-9.7 3.3-.2.4-.2-.4-1.4-2.7q-.6-1.5-1.6-2.4v-.2c-.2-.7 1.3-3.4 1.7-4h.3q1.3 1.6 2.5 4l2 4.2.4.6-.6-.3c-.4-.2-2.5 0-3 .8m12.3 3.5v-.6q4.7-2.9 9.6-5.3l.4-.2-.6 1.7-9 4.7q-.3 0-.4-.3m1 1.9-.4-.4.2-.2q3.5-2.2 7.3-4l.4-.3-.1.5q-.4.9-1 1.3l-1.4.7zm-9.5-10.9q1.5 2.6 2.4 5l.2.5-.4-.2q-.5-.1-.9-.4l-.4-.2h-.4v-.2a24 24 0 0 0-2.4-4.6l-1.3-2.3-1-2.3-.2-.2.2-.1q.7-.2 1.3 0h.1zm18.7.1v1.4h-.1c-3.5 2.2-7.1 3.7-10.5 5.9l-.2.1-.5-1.2.1-.1q3-2.2 6-4l-.9-.7-5.5 3.5-.4-.6-.1-.5v-.2q5.3-4.5 11-7.6h.3l.6 2 .5 1.7v.2zM301 109.7q-.2 0-.5-.3l.1-5.3.3.1q1.5 1 1.3 2.3l-.3 1.4-.1 1.5v.1h-.1q-.3.4-.7.2m2.9-.6-.5 1.4v.1h-.2q-.9 0-.8-.6v-.5l.1-.5.4-2.7.3.2.2.1.3.1q.5.1.5.7 0 .8-.3 1.7m1.4 3.3h-.2q-1.1-.7-.7-1.5l.2-.8.2-.6v-.3h.3l.7.5.6.6h.2l-.1.2zm2.4 1.6-.5.5-.4.4v.3l-.3-.2q-1.2-1.4-.5-2.3 0-.2.3-.5l.3-.4.4-.6v-.2h.2q.3 0 .5.3l.3.5.2.5.1.2.1.2q0 .9-.7 1.3m2.3 1-.5.8q-.5.9-1.5 1l-.7-.8 2-2.8h.2l.6.4q.3.1.5.7v.1zm-.5 4.3v-.3l-.4-.8q-.2-.5 0-1.1l1.7-2 .2.2q.5.3.6.8v.5l.2.4v.1zm-12.3-10.1-.1-.2q-.5-1.5-.8-3.1l-.3-3.2v-.1q.5-.7 1.2-.7t.7.9l2 .8v5.4c-.3.3-2.2 1-2.4 1h-.3zm4.7 4.9-1.2 2.4h-.4l-.1-5.9.3.1 2.2.6h.2v.2a9 9 0 0 1-1 2.6m-3.2 16.4h-.3q-1.9-2-4-3.7a33 33 0 0 1-3.8-4h-.1l.7-1.9.2.2 1.8 2 1.7 2.3q1.7 2.2 4 3.4h.2v.1q.3.9-.4 1.6m-1.8-4q-2.9-3.6-5.4-7.2v-.1q0-1.8 1-3.2l.2-.3.2.3c2 3.4 3.3 7 5 10.5l.2.5zm2.3 1-.2.4-.1-.4a136 136 0 0 0-5.1-12.9l.8-.8v.2q.8 1.2 1.2 2.6l1 2.7q.9 2.7 2.6 5 .7 1.7-.2 3.2m-4.1-14.4-.3-.3 1.9-1.5.2-.1.1.2 1.8 5q1 3.2.8 6.5l-.1.5-.3-.4c-1-1.5-2-4-2.9-6.1l-1-2.8-.4-1zm3.3.8-.6-2.7v-.1q.2-.7.8-.6h1l.1.1.2 6.4-.4-.6a8 8 0 0 1-1-2.5m5.5 7.7c.2.4-.3.5.1.8 1-1.7 1.4-3.7 2.6-5 1-.1 1.1 1.8 1.6 2.4v.5l-7.8 8.2c.4-1.3-.2-3 1-4l3.5-9.5c2.3 2-.5 4.5-1 6.6m-3.4-2.8q.1-.8 1-2.9l1.6-3.2.2-.3 1 1.1-3.3 10-.4-.1zm-4.5 31c-.5.9-1 1.8-2 1.4q0-.6.4-1.1zm3-.2c-.7.6-1.4 1.6-2.5 1.4l.5-1.2zm-5.5.6-.9 1.4-.3-1.1zm3.4 3.6-1.6.1q.1-.7.5-1.6l2.6-.5zm4.5-2.3-1.8 2.2h-1.3l1-2q1-.3 2.1-.2m-6.5 1q-.6 1.2-1.5 1.6-.1-.5-.5-1zm4.6 5.8q0-.6.4-1.1l1.1-.4h.4zm-2 1q-.8-.3-1.4-1l2.8-.8zm2.4-3-1.3.2.8-1.9 2-.3h.2zm-2.9.4-1 .3.5-1.9 2-.3zm-1.5-1.4-.8 1.1-.6-.7zm-2 7.6q-1 .7-1.9 1.7c.5-1.3.4-2.6 1.4-3.7q.4.9.4 2m2.7-2.3c-.6.7-1.5.9-2 1.6q.3-1.6.9-2.8.9.4 1.1 1.2m-4.5.7-1.4 1.4-.3-2.5c.1-.4 1-1 1.2-1zm2.7-2.5-1.8 1.7c.1-1-.3-2 .6-2.7.4.4 1.3.4 1.2 1m-2.4-1.3-2 1.5c.2-.3-.3-1.4.2-1.7q1 0 1.8.2m8-10.2c-.8.6-1.5 1.7-2.7 1.2q.2-.8.7-1.4zm-4.1 1.3h-1.4q.3-.8 1-1.4h1.5zm-1.4-1.4c-.4.9-1.3 1-1.7 1.8 0-.3-.6-.2-.6-.2v-1.4zm4.6-4c3.2 1.8 5.3 6 6 9.5-1 1.4-2.1 3.1-3.7 3.5.5-.5.4-1.5.8-2 .2-.2 2-.2 2-.2l-1.2-.4q.4-.8.6-1.7l-1.7 1.8h-.7q.1-1.2.7-2.3h1l.6-1.2-1.1.7-.9-.1.4-1c-.9.3-1.6 1.3-2.6 1l.7-1.4 1.8-.1-.5-.3.8-1.2q-.9.3-1.7 1l-.6-.1c.3-.3.4-1 .7-1.2l.5-.2-.4-.3.5-.9c-.4.2-1.1 1.1-1.8.6l.6-1.2q-1 .6-2.3 1l-.5-.1.5-1.6-1.9 1.5h-1.2l.6-2-2.2 2h-.6c.4-2 1.8-3.5 3.4-4 1 0 2.5.3 3.4 1m-8 21.8-.6.6c-.9.2-.5-1.1-.5-1.7l.8-.7z"/><path id="path13" d="m318.4 212.4-.1.2-.3.2-.5.2-1 .3h-1l-1.7.2-2.6.2q0 .5-.4.8l7-.2h.2v.2q.4 1.4-.8 1.4l-1 .1h-.7q-3-.5-5.9.1l-3 .4-3-.2c-1.4 0-1.2-.6-1-1.1l.2-.3v-.2q-.1-.2-.5-.2h-.1l-.2-.8v-.8h.2q8.1-.9 16-.9h.3l-.1.3zm-4.8-5.2 5-1.1h.1l.1.1.2.7.2.7v.2h-.2q-7 1.1-14 1.9h-.4l.4-1.7.4-1.1h.1q6.3-2 12.8-3.4h.2l.1.8v.4h-.1l-4.6 1.9-.2.3zm-.5-11.3a47 47 0 0 0-3.6 7.9l-.2.2-.1.1q-.2.3-.6.2h-.1v-.3a36 36 0 0 1 3.6-8.8l4.8-8.2.1-.2.2.1q.4.2.4.6v.7zm2 .4-2.8 5.7v.1l-.6.3-.4.2-.5.4.2-.6q.8-2.4 2-4.7l2.5-4.4 3.2-5 .1.5q0 .6.3 1.1t.1 1.3q-2.9 2.3-4.2 5.1m-4.6.4-1.4 2.5v-.7l-.8-9.6v-.2h.3l.8.2h1zm-3 7.3-.3-.5c-1.6-4-2.7-7.4-3.7-11.6v-.2c.6-.8 2.3-2.6 3.4-2.8h.2l1.2 12zm4.4-10.2-.4-.1q0-2 .6-4l.1-.1h.2q.4.1.7.5l.2.3.2.2h.1zm5.7 3.2-1.3 1.6q-.6.7-1 1.7 0 .6-.6.7h-.7l-.5.4.2-.6q1.8-4.2 4.8-7.7h.6v.1q0 2.2-1.5 3.8m-11.1 7.6q.2.6.1 1.2v.1h-.5v-.1l-.5-2.3q-.2-1-.9-1.8h-.5v-.2l-.6-1.8-1-1.8c-.4-1.2-.7-2.5.2-4l.2-.3.2.4c1.2 3.2 2 6.1 3 9.6zm10.3-4.4v-.3q0-.7.5-1.3l1.2-1.2.2-.2.1.3v1l-.5 1.1v.1zm-16.8 3-.8 2q-.5 2-2.3 3.4l-.3.3v-.5c.3-2.5 1.3-5 1.7-7.5v-.1h.2c.7-.4 2-.9 2.7.5v.2q-.9.8-1.2 1.7m10.1 1.5-.2-.4q1.2-1 3-1.8l3.3-1.3 1.2-.3 1.2-.2h.3v1.6h-.2c-2.8 1-5.8 1.3-8.6 2.4m-10 3.5q-.1.4-.4.7l-.3.6v.2h-.2l-.5-.2-.2-.2v-.1l-.2-.2v-.1q1-1.6 1.7-3.3t1.8-3.4h.5l.6-.2-.4.5q-1.4 2.6-2.3 5.7m-4.6-.5v.2h-1.1l.7-4.6.4-.2h.6l.4-.4v.5q-.3 2.4-1 4.5m8.5-.2-.2.4-.1.5c-.2.6-.5 1.4-1.4 1.6l-.2.4q0 .4-.2.7 0 1-1.2.7l-.4-.3-.3-.3v-.1q0-1.1.6-1.9l.5-.7.5-.7q.3-2.5 2.2-4.3l.2-.3.1.3.6 1.5a3 3 0 0 1 0 1.8v.1q-.6.2-.7.6m-10.9 5.9-.4.6v-.7q0-1.2.3-2.2l.4-2v-.2h.2l.7.1.7.1h.3v.3zm-2.6 6.8h-.7v-.2l.4-4.1q.1-2.2.7-4V210q-.2-1 1-1.1h.3v1.7l-.3 1.5q-.3 1.5-.2 3zm-1.5.1h-.4l-1.9-11h.2a8 8 0 0 1 2.9-.3h.2v.2a94 94 0 0 1-1 11.1m30.1-9.8q-8 .8-15.8 1h-.2v-.8h.2c5.4-.5 10.6-1.3 16.2-1.4h.1v.1q.1 1-.5 1.1m-19.8 2.3.4.4q.4.6-.1 1.2l-4.6 5.3q-.8.8-1.7.4l-.7-.1h-1v-.2c0-1.9 1-3.7 2-5.3l2.9-4.8v-.1h.1c1 0 1.4.8 1.7 1.4v.1l-3.1 4.7v.5l1.7-2.1 1.8-1.8h.1zm-11.8 7.1v.2h-.7v-.1q0-1.2-.6-2.4l-.9-2.4a10 10 0 0 1-.8-5l.2-.2.3-.2h.3l.2-.1.2-.1v.2a60 60 0 0 1 1.8 10.1m-2-.5v.3h-.2q-1.5-.6-2.3-1.9l-2.4-3.8c.1-.8.3-1.8 1.2-2.2h1.9l.1.2c.4 2.5 1.4 4.8 1.7 7.4m-8.2-4.2-.2.3-.3.2q-.5.6-1.4.1h-.1v-.2q.4-.6 1-.8l1.3-.3.1.4zm22.2 3.5q-1.3.7-2.7 1.2l-.5.3.2-.5q.8-1.5 2-2.7l2.4-2.2.2-.1h.1q.4.3.5.8l.2.9v.1q-1 1.5-2.4 2.2m-19.9-2.6-.2.2h-.2l-.1.2h-.1l-.5-.1h-1.3l.5-.4.4-.4.2-.3.3-.3q.7-.6 1.4.4 0 .6-.4.7m1.8 1.2-1.6-.2v-.2q.1-.6.7-.8.7-.1.9.7zm-7.6.2h-.1v-.2q.4-1 1.2-.8l.6.2h1l-.2.3c-.6 1-1.7.8-2.5.5m3.8 1.3-1.4-.7.1-.2q1-1.3 2.6-.9l.3.1-.2.2zm37-.2.2 1.2v.2l-7 .2-.1-3h6.6v.2zm-32.6-.1-3.3.7.4-.5q1.1-1.4 2.8-.8zm33 6.6-.8 1-7-1.3.5-3 .1-.1q1.8-.4 3.7-.4l3.7-.1h.2l.3 1.5a4 4 0 0 1-.7 2.4m-17.4-.1q-.7.3-1.2-.4l-3.5-3 .5-.3 5 2.5h.1v.3a2 2 0 0 1-1 .9m-4-1.6 2 1.8.2.3-1.2.1h-.1l-2-1.8q-1.2-.8-2-2l-.3-.3h1.4zm20.5 5.2h-.2q-2 0-3.8-.5l-3.5-1h-.2l.5-1.3h.2q1.6.5 3.4.6l1.7.2 1.8.4h.1zm-.7 3.2-2.3 2.1-5.8-5.4.3-.9h.2c2.9.5 5.2 2.1 7.5 3.8zm-4.1 6-.7.4-.5.1-4.6-7.8q-.1-.7.4-.9l.3-.2.3-.2v-.2l.2.1a19 19 0 0 1 5.7 6.3v.1q-.2 1.9-1.1 2.4m-21.8 4.2-.5.2q-.7.3-1.2-.4-2.7-5.5-4.8-11.2l-.2-.3 1 .2 6.4 11.2h-.2zm3.8-1.3v.3a3 3 0 0 1-1.8.6l-.2-.1q-3.4-5.2-6.3-10.7l-.2-.2h.3q1.5-.2 2.1 1l.6 1 .6.9q2.1 3.8 4.9 7.2m8.3-9.2 2-.9q.6.5.7 1v.5l.2.4.3.5zm-15.9 10.2h-.5l-.2.2-.1-.3-2.2-4.5a23 23 0 0 1-1.8-4.7v-.2l1.3-1.1v.2q2.3 5 3.9 10v.2zm18.3-.2-.2.1v.1h-2.6l-10.5-6.7q-1.5-1.5-2.4-3.4l-.3-.5.6.3a187 187 0 0 1 15.4 9.4zm1.2-2q0 .3-.4.6h-.2l-6.1-4q-3.2-2-6-4.2l-.5-.5 3 .3 10.6 7.1-.1.2zm-3.4-6.6 1.8.8c1.2.6 2.2 1.4 2 3.3l-.1.2h-.3l-3.9-2.4q-1.9-1.4-3.8-2.5l-.3-.2.3-.2q1.2-.4 2.6 0zm7.6 6.3-.5.2a6 6 0 0 1-1.7-2l-.9-2.4.4-.1 1.4 1.8 1.3 2 .1.1v.1zm-14.8 2.8v-.2q.3-1-.4-2t-1.3-1.8l-.5-.7.7.4q3.7 2.2 7.2 4.6l.5.3h-.6c-1.8.2-3.9.3-5.5-.6m12.4-1.2h-.2l-.1-1.7h.2q.3 0 .5.2t.3.4c.2.5-.5 1-.7 1"/></g><g id="g18" fill="#00daee"><path id="path14" d="m207.3 218.4.9-.1q1.3 1.7 3 3l-2.4-3.4c.3-.3 0-.6.2-.9 1 1.6 2.6 3.1 3.9 4.5q-1 1.3-.6 3c0 .6 1.4.8.8 1.6-.3.7-1.3 1.4-.9 2.3q.7 1.3 2 1.6c.8.2 1.2-.5 1.7-.6q.3-.5.9-.8c.2.7.2 1.6 1 2q1.2 0 2-.3 1.2-1 1-2.3c.5 0 .5.5 1 .6 1.2 0 2.3-1 2.9-2.1-.2-1.3 1-.6 1.6-1.1 1.7-1.8 0-4 2.5-5.5q2-.7 4-.8c.1 1.6-.2 5.5-.2 5.5l-.4 3c-.8.4-1.3.1-2.2.4-2.7 1.3-7.3 3.6-13.6 3-2.9-.6-5.3-1-7.3-3.7q-1.8-1.4-2.5-3.5v-.1l2 1.6-1.5-2.3.3-.6q.6.8 2 1.7l-1.8-2.7-.1-1.7q1.1 1.6 2.7 2.8zm27 .7q1-.9 2.4-1l.1 1.2a5 5 0 0 0-2.5 0zm2.4 2q-1.4-.3-2.5-.2v-1l2.6-.3v1.4m0 1.6q-1.5 0-2.8.2l.2-1.1 2.6-.5zm.2 1.8a8 8 0 0 0-3.2.1l.1-1 3-.5zm.7 1.7a8 8 0 0 0-4 .2v-1q1.5-.5 3.4-.5l.3 1v.2h.1zm7.5.9c-.2.6-1 .6-1.5.9-3.3.4-7-1.5-10.1-.2v-.6c1.3-.3 2.8-1 4.3-1q.8.6 3.6 1zm-4 2.1c-1.8 1.4-4 2.7-6.6 2q-.6-.4-.5-1.2c.2-.3.2-1 .8-1 1.5-.7 5.8.2 6.3.2m4.5-4.4-.3 1.1c-1.6-.3-5.8.5-6.8-1.4-.4-.6.4-.8.6-.9 1.7 0 4.2.2 6.5 1.2m60.7-7.4v.8l-3.8 3c1-.6 2.6-1.1 3.9-2v.7l-4 3.2c1-.6 2.8-1 4-2v.7c-1.2 1.1-3 2.2-4.2 3.1 1.2-.6 2.8-.9 4-1.8v.7q-2.2 1.8-4.3 3.2l3.2-1.2-1.2 2c-4.7 4.4-12.7 2.4-18.7 2l-4.4-.8q-1.3-4.1-2-8.5c3.4-1.7 6.5.7 9.8.9l6 5.8q3.2-.2 5.2-2.9.2-.7-.2-1c-1.1-1-2.5-1.2-3.7-1.9a10 10 0 0 0 6.5-4h2.5l-2 1.7c.6-.5 2.4-1 2.9-1.5zm-28.9 3.4.2 1c-1.1 0-2.6.3-3.6.5q2-.1 3.8.4l.2 1.1q-2-.2-4 .2 2 .1 4.1.5l.2 1q-2.1-.2-4.1.2c1.4.3 3 .2 4.3.7l.2 1c-1.4-.5-3.3 0-4.7 0q2.6.1 4.9.9v.3c-3.9-1-7 3.5-10.2.7.2.2-.6-.2 0-.8 1.8-1.6 3.9-.5 4.9-3.1-.1-2.2-.7-4.6-.7-6.7q2.3.2 4.1 1.5-1.6 0-3.3.4 2-.1 3.7.2m-6 3.2c1.2.3.8 1.3.4 1.6-1.2.2-2.6 1.1-3.7 1.6-.2-.7 0-2-.2-3q1.9-.6 3.5-.2m6.8 7.3-1 .1h-1l-.8-.1-.8-.4v-.2q.4-.7 1.3-.8l.8-.2.6-.1 2.5.2v.3q-.6 1-1.6 1.2M238.4 216l.1-1q2.1-.4 4.5-.4-1.8-.4-3.6-.4c1.4-.6 3.5 0 5 0 3 .9 6.8 1.4 10.2 1.7 5.3.5 9-1.8 14-1.9q1 0 1.6.6-1.8 0-3.5.4 2.1 0 4.1.3l.4 1c-1.2-.2-3 .2-4.2.4 1.4-.2 2.9.3 4.2.6l.1 1q-2.1-.4-4.4.2 2.3 0 4.5.5l.1 1q-2.2-.3-4.4.2c1.5.2 3.1.1 4.5.7v1c-1.3-.6-3.2-.1-4.6 0q2.5.1 4.7.8v.1c-5.6-.6-10 2.9-17.6 2.2-5.4-.5-8.4-1.7-13.6-3l-2 .2a15 15 0 0 1 4.2-.7c-1.3-.1-2.9-.5-4.2-.2v-1q2-.4 4-.5a10 10 0 0 0-4-.2v-1q2-.5 4.3-.5-2.2-.6-4.4-.2v-1c1.4-.3 2.8-.8 4.3-.6-1.2-.2-3-.6-4.3-.3m23.3 3.5h.2v-.2z"/><path id="path15" d="M205.3 206.3c.2 1.3.9 2.4 1.1 3.7l-2.8-.1c-.3-1.2.5-2.1 1.2-2.9zm15.5-2.6-.3.6c-1-1-2-2.4-3.1-3.4l2.7 4.4v.2c-.5-.2-.3-.3-1-.6q-1.3-1.5-2.6-2.7l1.7 2.7-.7.1-2-1.8 1.4 2q-.7.3-1 .7c-1.3-3.8-5-6.9-8.4-9-.2-1.4.5-2.7-.6-4-.8-.5 0-1.5 0-2.3q0-1.7-1.3-2.4-.6-.3-1.2.2c.3-1.6-.8-2.6-1.6-3.8-1-.8-1.8.7-2.6 1q-.3-1-1.3-1.6-.8-.2-1.7-.2l-1.5-1.7v-.7q1 1.2 2.4 2l-2.5-3v-.7c.9 1 2 2.2 2.9 2.6l-2.6-3.3q0-.3.2-.5c.8.9 2 2.2 3 2.9l-2.3-3h1q1.2 1.5 2.4 2.2l-1.6-2q2.7.6 4.5 3.3c.9 1 7.5 6.8 8.3 7.3 4.2 2.8 5.1 3.7 7.8 7.1q1.3 1.8 2 3.8l-2.4-2.5 2.6 4.7-.2.5-3-3.4zm-24-19.8q-.2 0-.5.3l-.3-1.1zm19.2-13-.5.3c-.7-.5-1.3-.7-2.1-1.4l.9 1.3-.8-.6-1.1-.3q-3.6-4.6-7.7-9a1 1 0 0 0-.6-1c-.3-.2-1.2 0-.8-.6.3-.8.6-1.8 0-2.5q-.6-.8-1.5-1c-.4 0-.8.4-1.2.4q.4-1.5 0-3l-.7-.8q-1-1.3-2.1-2.4v-1q1.1 1.7 3 2.7l-3-3.4v-.4l.7.3c.8.9 2 2.2 3 2.8l-2.2-2.9q.3 0 .5-.4 1.4 1.6 2.8 2.5l-2.4-3q.3-.2.5-.6c.8 1 2 2.2 3 2.7l-2.6-3 .6-.7q.4.8 1.1 1.2l1.3.1c-.2 1.6 0 1.7.5 2.9 2.8 3.2 6.5 8 9.8 10.6 0 0 4 4.3 5.7 7.5l-2.7-2.8 3.3 5q0 .5-.3.6c-1.1-1.2-3.1-4-4.2-4.9l1.8 3.4-.6.2-2-2.2 1.5 2.5-.5.5-2-1.7zm-17.1-18.7h-.8l-.2-1z"/><path id="path16" d="M293.5 204.6q-.4 1.5-.5 3h-.3l-.4-.3q.5-1.4 1.2-2.7m18-16.7q-1.1-.3-2.2-.3l2.8-1.8zm-20 18.3q1-2.7 2.3-5.2c-1.2 1.5-2 2.7-2.7 4.4zm20.8-21.5-3 2.9c-1.7-.1-3.4 0-4.8 1.1-2.1 1.7-2.7 4.2-3.3 6.6q.4 2.9 1.6 5.3-.1.6-.6.3c-.6-.6-.8-1.4-1.6-1.8q-1.6-.2-3 1l-1 1.7q-1.4-.2-2.4.8-.3.4-.3.8-1.2 1.4-2 3.3-.8-1-1.3-2.1l.2.2c.7-2 1.3-4.3 2.7-6a13 13 0 0 0-3.2 4.8l-.2-.6c.5-1.9 1.1-4.2 2.4-5.6a9 9 0 0 0-2.6 4.4l-.2-1.4q.6-2.4 2-4-1.2 1-2 2.3v-.2c2-5.6 7.7-8.9 12-12.5q5.5-3.6 10.8-7.4v.8q-1.7 1.4-3.3 3l3.3-2v.7l-3.1 2.9 3-2v.7q-1.6 1.3-3.1 3l3-2zM290 172.2V171q1.1-2.8 3-5.1-1.5 1.2-2.5 2.6c1.9-5.5 9.3-8.2 13.2-12.5 2.2-2.3 5-4.6 5.2-7.8.4-.6 1.4-1 2-1.3l.1 1.7-3.2 3 3.3-2v.6a23 23 0 0 0-3.1 3l3.2-2v.5l-3.3 3.1 3.4-2.2v1q-1.8 1.3-3.5 3.1l3.5-2.2v.8q-1.9 1.4-3.4 3.2l3.3-2.2v1q-1.8 1.3-3.4 3l3.2-2-.1.7c-2.4 4.2-4.2 3-11.9 11.4-1.8-.5-3.6-1.7-5.4-.6.2-.2-.2.2-.1 0l-1 1c-.7.7-1.4 1.8-2.3 2.4v-.3c.7-1.6 2-3.3 2.9-4.8a16 16 0 0 0-3 4"/><path id="path17" d="M231.6 117c.4 2 .8 4.4 1.4 6.3.6 1.1 3 1.6 3 1.6l-1.8.7c-3.2.4-4.6-.4-6-1q-.8-.4-1-1.3c.3-.7 1.7-.3 1.6-1.2l-1-5.8c.3 0 2.4 1.5 3.8.7m-4.3 3.2.5 1.8-.9.4c-.3-.4-.7-1.9-1-2.3-.2-.1 1.1-.3 1.4 0m10-4.7c1.6.7 1.4 4.5 1.4 4.5l-.8 2.6s-2.6-2-4.3-1v-.6q1.2-.7 2.7-.6l-1-.3c-.5 0-1.4 0-1.9.3l-.1-.6a6 6 0 0 1 2.8-.8v-.1c-.7-.1-2.2-.1-3 .3v-.6c.6-.6 1.7-1 2.4-.9l-1.4-.2q-.9 0-1.2.5l-.2-.8c.4-.6 2.2-1 2.5-1-.4-.2-1.3-.3-1.7-.1q-.5 0-1 .4v-.4s.7-4 4.8-.6m-17.4 5.4 1.6-2.3-.1-2.4-.6-.6-.7-.1c.2-.5 0-.3 0-.7l-.4-.7 3.2-1.7q1-.5 1.8-.5t1.3.7v.6q-.6-.4-1.4-.3t-1.7.7l3.2-.1.2 1.1-1-.1q-1.2.2-2.3.7 1.6-.3 3.4 0v.7q-1.6-.2-3.1.7c1.3-.4 2.3 0 3.2 0l.1.7q-1.5-.2-3 .7c1.3-.4 2.2 0 3.1 0v.3q-.7 0-2.2.5c-.5 0-3.6 1.3-4.6 2m15.6 1.5.4 1.4q-1-.2-1.9-.7c-.8-1.2 1.2-1 1.5-.7"/><path id="path18" d="M280.3 117.8c-.3 1.4-1.4 3.4-.3 4.7q.9.2 1.4.8c0 1.6-3.5 2.3-5.2 2.3h-.9l-.7-.6c.2-.4 2-1.6 1.9-2.2l1.5-5.3s1.4.8 2.3.3m-7.1 6.6c-.1-.1-.7-.4-.6-.7l1.8-.7c0 .3-1.1 1-1.2 1.4m10.2-4.1-1 2c-.4-.6-1.7-.2-1.7-1.1.2-.9 1.7-1.3 2.7-1m-6-4.7-.8-.3c-.4-.2-1.3 0-1.7 0 .3 0 1.8.4 2.3 1l-.2.8q-.3-.4-1.1-.4t-1.4.2q1-.1 2.4.8l-.2.7c-.8-.4-2.2-.4-2.8-.3v.1q1.4 0 2.6.8l-.2.8c-.3-.5-1.5-.4-2.1-.4l-1 .2q1.5-.2 3 .7l-.2.8q-.3-.7-1.4-.7-.9 0-1.4.2c.7-.2 2 .4 2.6 1v.2c-1.2-.4-2.6.7-3.5 1.2l-.6-1-.2-.8v-2.8l.3-1.4c1.4-1.8 3.7-3 4.9-2.5.7.3.7 1.1.7 1.1m12.7 5.9a17 17 0 0 0-4.7-2.3l-.4-.1q-1.7-.5-3.2-.3l.2-.8c1.2.1 2.3-.5 4 0q-1.5-.9-3.4-.7l-.5.4.4-1c1.1 0 2.3-.6 3.8-.1q-1.6-.9-3.3-.7l-.3.2.3-.8c1-.2 2.6-.4 3.6-.1q-1-.5-2.3-.7-.6 0-1 .2l.2-.8 3.6.1q-.8-.5-1.7-.7-.7-.1-1.5.4h-.3q.4-.7.7-.7h.1a8 8 0 0 1 7.7 1.4l-.2.4-.4.8a8 8 0 0 0-1.4 5z"/></g><path id="path19" d="m256.2 213.6-1.6-1.3a11 11 0 0 0-5.8-2.4h-16.5l-1.7-.2q-1.6-.3-3.6-1.5c-2.7-1.8-5.4-5.4-5.4-12.5v-67.6h67.7V196c0 7.2-2 10.7-4 12.4q-1.5 1.2-2.9 1.4-1.1.2-1.2.1h-16.6a9 9 0 0 0-5.8 2.2l-1.5 1.4-.5.7z" fill="#ee062c"/><path id="path20" d="M247.3 128v82h-11v-82z" fill="#0055ee"/><path id="path21" d="M247.8 210v-82h-1v82z" fill="#ffffff"/><path id="path22" d="M235.7 128v82h1v-82z" fill="#ffffff"/><g id="g27"><path id="path23" d="M235.8 210v-82h-.5v82z"/><path id="path24" d="M237.2 210v-82h-.5v82z"/><path id="path25" d="M247 210v-82h-.6v82z"/><path id="path26" d="M248.2 210v-82h-.5v82z"/><path id="path27" d="M272.1 197c0 .4-1.4 1.8-1.3.6l-.7-.7 1.8-.6zm4-46.7.5.1q.7.7.3 1.3t-1.3 0q-.4-.2-.5-.7v-.4s.4-.4 1-.3m-5.5 23.5c.7 1.5 1.8 3.4.7 5.3q-.6.6-1.5.4c-1-.4-.5-2-1.5-4.1 0 0-.5-1.3-1.4-2.8q-1.1-4-1.7-7.7 1.3 0 2.2-1.2l-1.4-2q1.4-.1 1.8-1.4c-.4 5 .9 9.5 2.8 13.5m-14.7-41.3c.2 2.7-1.2 4.2-1.2 4.2l-2.6 3c1-.5 4-.5 4-.5l1-.1c1.4-.7 3.4-.5 5 .1 1.2-.2 3.5-.4 4.8.5.9.5 1.2 1.5 2 1.8l1.2.4q0 .7-.7 1.2l1 .4c0 .7-1.3 1.4-1.3 1.4.7 1 .3 2.9 0 4.2l-.8-.4q.2 2.2-.6 4l.9.6q-.4 1.2-1.5 1.8c.3 1-.3 2.3 0 3.4q.2.7.8 1.2.4-4.8 3-8.5c0-1.2-1.5-.3-1.5-.3-.7-2.3 2-5.2 4.8-2.9 1-.8 5.8-1.2 5.9 3 0 1.3-.6 2.8-1.7 3.5-1 .7-4.2 1.1-5.7-.4q-.7 1.3-1.2 3.3c-1.7 6.3 1 11.4 3.3 16.5 1.1 2.6 1.8 7 .2 9.4-1.6 2.1-3.5 3.2-6.3 2l-1.3 5.8q3.6.1 6.4-2c.7-.1 1.5-.4 2 .2q.8.6 1.1 1.4c.2.6-.1 1.3-.1 1.3.9 1.6.5 3.8 1 5.6.4.7 1 2 .4 2.7q-.9 1-2 1c-1.1.7-1.8 2.2-3 3-.7.6-1.4-.4-2.2 0-.8.2-1.6 1.5-2.5.6-.5-.2-.9.8-1.5.4l-1-1v-1q-.5 0-1-.5l.2-1.3c-.8-.3-.9-1.2-1-1.8 0-.5.9-1.5 1.3-2-.5.2-2.1 1.1-2.7 1-1 0-1.5 0-2.1-.8q-.5-.8-.5-1.7c-1.4-1.8-2-4.4-2.4-6.6q-3.7.7-7.5.8c-.4 2.2-1.6 4-2.6 5.8.2 1 .5 1.4.2 2.8q-1.2 1.2-2.7 1.1c-.5.9-1.2 2.3-2.3 2.6-.8.1-1.2 1.4-2.1 1.6-.8.1-1.7.6-2.3-.2-.4-.5-1 .4-1.4-.2l-.6-.5c-.5.3-1.3.8-2 .2q-.4-.9-.4-2.1-.7-.6-1-1.6c0-.7 1.4-1.7.2-2.1q-.5-.4-.4-.6c.3-.8.5-2 1.5-2.2.8.2 1.2-.6 1.8-1 1.1-.4 2.6-.2 3.2.7l.4 1 2-1c.2-3.3 0-6.7.8-9.7 0-.8 0-2 .4-2.6q1.2-1 2.7-1.2c3.7-3.3 11.7-3.9 11.7-3.9s-.3-2.2-.5-2.3c.1 0-4.2-3-5.2-2.5l-6.8 4.1q-2.2 1.4-4.8 2c-1.5.5-1.2-.4-2-.8-.2.4-1.5 1.7-2.4-.3-.5.2-.8 1.2-1.3.5l-.5-.6-.5-2q.2-.7.4-.8c.2-.1-1.1-1.9-.4-2.8-.2-.8-.2-2.4-.2-2.4 0-.6 1.3-1.1 1.3-1.1l-.8-2.3c1.8-.7 5.3-1.8 5.2-3.8s-1-2.3-2.8-2.6c0 0-2.6-.2-4.1 1.3l-1.4-2.2c2-2 5.4-2.4 7-2 1.9.4 4.4 1.6 5.2 4 1.8 4.7-2.7 7.6-3.6 8q.2.8-.2 1.5l1.4 1.3c2-1.4 3.7-3.5 5.5-5.2q0-1.8.6-3.4c-2-3.3-4.3-6.3-6-9.8q-.5.1-1-.4l-.9-1-.8-.2-4.6 4.3-1.9-2.5 5-5c-.4-1.4.6-4.2 1.7-3.9 0-.8 1.1-1.9 1.8-2l.3.1c.2-.5.1-.9 1-1.2q1-.1 1.7.5c2-1.8 3.5-3.5 5.5-5.4l-1.7-1.9c1-1.2 3.6-3.4 3.6-3.4 1.8-1 2.8-1.1 4.1-.8 1.5.4 1.5.7 1.6 2.2m-4.5 7.3-1-1q-2.8 2.9-5.7 5.6c.5 1 1 3.6 1 3.6s3.1 3.5 4.8 4.8c.3 0 2.4-1 2.5-1q1.9-1 2-3.4h-.5c.1 0-2.8.1-3.7.6-.8.3-.8-2.2-.8-2.3l.3-1.1c-.7-1.2-.5-2.2-.5-2.3l-.1-.6c-.4-1.4-.4-1.8 0-2.3.7-.6 1.2-.4 1.7-.6"/></g><path id="path28" d="M273.2 192.4a11 11 0 0 1-6.6 1.2v-.5c2.5.5 5.2 0 7.2-1.5.2-.3 0 .5-.6.8m-6.5-47.7c.6.4 1.2-.3 1.6.9v2.1c-.6-1.3-.6-1.5-2.4-1.8q-.5-.2-.3-.7l.5-1q.2.5.6.5m-4.6 17.8c0-.3-1.1-2.3-1.3-2.6-.3-.8-1-1.7-1-3.4v-5.3l-.7 2.6a9 9 0 0 0-.4 3.3c-.2 1.4.8 3.7.8 3.7.8 1 2.2 1.6 2.6 1.7m1.2-8.1.6 2.8q.5 1.8 1.7 2.4s-.6-1-.5-1.5c0 0 0-1.2-.2-2.1a4 4 0 0 0-1.6-1.6m-.8-8.9h.4a15 15 0 0 0 .1 6.1c.3 1 2.4 1.9 2.4 1.9l-1.3-2.2c-.8-1-1-4.6-1.1-5.7h.4l.3 1.3q0 .5.3 1c.4.7.8.7 1.3 1q1 .7.9 2.2v-.2.1q.5-.7.5-1.5c0-1.6-1.6-1.6-2.4-2.5l-.6-1.3 1-.3c.2 1.1 1.3 1.2 1.8 1.5 1.3 1 1 3 .6 4.4l-.3 1.1c-.6-.1-1-1-1.2-1.2v1q.4 1 1.6 1.4c-.5.8-1.4.7-2 .7q.6.3.9 1.1c.2 1.1-.3 2.3 0 3.4q.3.8.8 1.3-.5.7-1.4.6c-1-.2-2-2-2-2s1.6 3.9 2.7 4.7c-.6.6-1.3.2-1.8-.3-.9-.8-1-2.2-2-3l-.3-.4.5 1.1a7 7 0 0 0 1.5 3.3q-2.1 0-3.8-1.5c.1 1 1.5 2.8 1.5 2.8-4.8-1-6.2-4.1-6.8-8 0-1 .3-3.8.5-4.6-1 2-2 3.8-1.7 6.2q-.1 1.2-1.3 2a6 6 0 0 1-2.1.7c.7-.6 1.8-1.4 2-2.5q0-2.4 1-4.4-1.7 2.1-2.3 4.8-.9 1.8-2.7 2.3 1-1 1.8-2.2v-.1q-1.2.3-2 0l-.4-.6c1.7-1 1-3.3 2.5-4.5 1.4-1.8 3.2-1 4.8-3.2.9-1 .9-1.9 1-3.2q.9-.2 1.6-1 0 1.3-.9 3c.6-.7 1.4-2.2 1.6-3l.2-1.5v-.3l.8.1v2.3c-1.4 2.2-2.4 5.3-3 6.7-.9 2.3-.4 4-.4 4a8 8 0 0 0 1.5 3l1.3 1.4.9.9-1.7-2.7-.6-1.7q-.6-2.9.5-5.8.8-3.4 2.4-7l-.6.7.1-1 .2-.9q.4 0 1-.5l.5.4c-.4 3.7-1.2 6.6-.7 9.6 0 0 .3 1.6.7 2.2.5 1 1.8 2.1 1.6 1.8-.8-1-1.5-4-1.5-5l.2-2.5q.6-2.9-.1-6zm-3.2 20.7c-.4 0-1.4-.1-1.3-.4-.3.5-.3 1.4-1.2 1.7.3-1-.2-1.4-.4-2.2 0 .8-.7 2.9-1.5 3.2l.3-1.8c.3-2.8-.2-3-.3-5.8.8 3.4 4 4.8 4.4 5.3m1-24.4c-.8 0-1-.8-1.7-.8-.3.1 0 .3 0 .5l.6.5h-1.7l-.5-.8-1 .3c.8-.6 1.8-1.4 3-1q.8.4 1.3 1.2m1.7-1.5c2 0 4.5-.8 5.5 1.6l1.3.7-.9.7q.5.4 1.2.5-.6.5-1 .5c-.6.2-1-.5-1.2-.8q-.2-1.6-1.7-2.5-.7-.4-1.4-.2 1.5.4 2 2 .2 1-.4 1.7c-.9.8-2 .6-3.1.4l-.6-.3q.8-.7 1.3-1.8.6-.3 1 .4-.1.7-.7 1 .8.3 1.2-.5.2-.8-.3-1.5l-1.4-.6a4 4 0 0 1-3 2.9h-2q0 1.2-.8 2.2c-1.7 1.4-4 .2-6 1.2q-.2-.9.7-1.2c1.5-.4 3.5.3 4.6-1 .3-.5-.2-1-.6-1.4-1.7-.3-3.3.3-4.8.4q-.2-.8 0-1.4c1.2-1 3.2-.6 4.8-.6q-.4-.5-1-.6-1-.3-2.2-.2v-.6c-.6.1-1.4.6-1.7.3l-.2-.7c2.3-1.4 5.5-.2 8-1.3q1.9 0 3.4.7m-6.5 5.2c-1 .9-2.3-.4-3.5.1l-.7.6c-.3-.7.5-1 .9-1.1 1.1-.4 2.2.5 3.3.4m-13.6 17.7c-.1 2-2 4-3.6 4.5l-.9-.5-1.7.8-.5-1.3c.9-.3 4.3-1.7 4.6-3.8.4-3-1.3-4.2-3.5-4.4-.8 0-2 0-4.2.9l-.3-.5q3.2-2 6.6-1 3.6 1.3 3.5 5.3m-4 8.3q0 .6-.2 1c-.3 0-1-.5-1.7 0 0 0-1.1.5-1.4 1.1l-.2-.4q0-.8.7-1.4s1.5-1 2.2-.7q.5.1.6.4m-3.8-.5 1.4-.7q1.2-.5 2.2-.2l.2-.7q-.6-.7-1-.8a7 7 0 0 0-2.3 1q-.4.5-.5 1.4m38.9-22.5.4.6c.5 1.3.8 3.4 2.3 3.8 1.1.4 2-.4 2.3-1 .5-1.6-1-2.4-1.4-2.5l-1.8.2-.3-.8q1.4-.5 2.5-.3c.6 0 3.2 1.6 1.5 4.4-.7 1.3-2.8 1.2-3.5 1-2-.3-2.8-1.9-3.3-3.6-.2-1.3-1.6-.7-1.6-.7.6-1.7 2.5-1.6 2.9-1.1m-1.2 4.7c-2.3 3.9-2.5 9-1.2 13.6 1 5.1 5.8 9.3 3.6 15-.5 1.6-2.4 2.7-3.8 2.7q-1.4 0-2.4-.8c-.2 1-1.7 6.4-2 8.1.5.9 2.6.4 3.5.2 2-.4 2.7-.6 4.5-1.6q.6-.4 1.3 0 .4.4.1 1v.2q.9 2.2 1 4.9 0 1 .7 2 .3 1-.4 1.3-1 .1-1.8.5c-1 .8-1.2 2.6-2.7 2.7-.8.1-1.7-1-2.3 0l.2.3q-.6.7-1.6.3-.3-.1-.4-.4l-.7.7q-.4-.7 0-1.8.4-.9 1.5-.7c.2-.3.6-1 1.1-1l.9.2.5.7 1.6-1-.5-.6c-.4 0-.9.7-1.1.1q0-.5-.3-.8.9-.2 1.5-1.2t0-2.2q.4-.4.8-.2l.5 1c1 0 .5-.8.5-1q.2-.2-.6-1c-.9 0-1.6.7-2.5 1-2 .6-6.9 1.4-7.2 1.4-.4.8-2.1 1.5-2.7 0v-.5l-.1-.5c-3.4-3.7-3.2-12-2.8-16.9l.1-1.8-.8-3s2-1.7 2.4-2.6h-.2c-1.7 2.3-3.5 1.9-3.5 1.9l4-3.7h-.4c-1.7 1.6-3.6 3.7-5 3 1.8-1.1 4.3-3.6 4.3-3.6h-.3s-2.9 3-4.9 2.7l-.7-.7c.6-.9.5.1.6-1 .8.1 1.8-.9 2.1-1.7q1 1.3 2.3-.9c.7.5 1 .3 2.5-.4l-.9-1.3c1 .9 3 .6 3.6.2l-1-1q.8.4 1.4.3c.4 3 1 5.4 2 8.3.9.9 2 3.1 2.2 6.2q.5.9 1.5 1.2 1.8.2 2.7-1.7c1-1.9 0-4.1-.7-5.8-3.1-5.7-4.1-14.4-.9-20.3l.5-.6zm-8.2 23 .2.2c-2.1 1.9-2.4 5.2-2.8 7.8-.3 3.3.1 9.5 2.5 9.8q1 0 1.2-.5c.2.2-.7 1.5-1.2 1.6q-1.3-.1-2.1-1.5c-2-4.4-1-10.8.1-14.6l.1-.2-.4-2h.1l.7 1.4q.9-1.4 1.6-2m6.7 23.3q-.9 0-1.4.6c-.1 0-.2-.5-.4-.2l-.5.3.2.4c-.7 0-1.2.8-1.6 1.4q-.4 0-.4-.3.1-1 .6-1.8c.5-.5 1.4-.1 1.7-1l1.3-.2zm-1-1.7c-.4.3-1.2-.1-1.4.7l-.3-.3-.6.5.2.2q-.9 0-1.3.9l-.2.4q-.3-.1-.4-.6c.5-.9 2-2.5 2.9-2.5q.7 0 1.2.7m-30.8-2.1.3.5c-.6 0-1.6-.2-2 .3l-.4-.4-.8.5q.4.4 0 .7c-.4.1-.7-.3-1 0l-.4-.3q0-.5.4-.8c.1-.2.8 0 1-.2l1.2-1c.3 0 1.4-.1 1.7.7m19-17.1c-.3 2.2 0 3.8-.2 6.2-1.3.6-4.4 2-8.1 2.3q-1.5 0-1.6-.8-.2-.7.6-1.5c-.2 0-1 .3-.9 1.8q1 1.4 2.8 1 3.7-.3 7-1.4l.2 1.8a28 28 0 0 1-10 .8l-.4 4.4q.7-1.5 1-3.2h1.2c-.3 2.3-1.5 4-2.5 5.9l.2 2c0 .6-.7.8-1 .9-.6 0-1.2-.2-1.6.5-.7 1-1.3 2.2-2.5 2.6q-1 1.4-2.5 1.2-.5-.4-.8-1-.4 0-.7.3v.3c-.6.4-1-1-1.5-.4l-1 .2.1-1.2q1.1-1.5 2.8-1.6.4 0 .6.5 0 .3.3.5l1.7-1-.3-.8-1.1.5q-.4-.6-1-.8h-.8l-.4-.6-.8.5c.7.7-.5.6-.7 1l-.5.8q-.5 0-.7-.5 0-1 .7-1.5c.7.2 1.1-.7 1.7-1 .6-.2 1.5-.5 2 0 .4.3.3.7.6 1l.8-.4-.3-.9q1.6-.5 3-1.7c.2-3 0-6 .6-8.8q.1-.4.4-.5c.4-.2-.1-.9-.2-1-.6-2.1 1.2-2.5 2-2.4h.7q-.1-.6.5-.9a24 24 0 0 1 10.7-3.1m-5.3-9.8s-4.2 4.3-9.4 5.8q-.7 1-2 1.2l.6-.4q1-.3 1.1-1.3c4.7-.5 10-6.6 10-6.8zm-14.3 5 .2.5 1-.1.1.5c0-.7-1-1.5-.2-2.2l-.2-.7c.6.5 1.2 1.2 2 1l1-.8 5.8-5.5c2-1.2 4.8-.7 6.4-2.9.3 2.6.1 5.3-1.9 7q-1 .7-2.3 1.3-3.6 2.9-7.7 4.9c-1 .3-2 1-3 .3-1.2-1.4-1.5-1.4-2.3-1.5-.3 0-.5.5-.9.3q0-.3-.3 0l-.7.7c0-.3-.3-.6-.1-.9 0-.2.6-.4.3-.7q0-.7.7-1.2 1-.6 2 0m-1.6 3.3q0-.5.6-.5t.6.5-.6.6-.6-.6m3.4-30.6c0 .4.5.8.5.8v1.1c-.4 0-1.2-.3-1.3-.8-.1-.3.2-.9-.2-1V145q.2-1.1 1.1-1.3zm-1.8 1.8q.2.3.6.4.2.8-.1 1.4-.5 0-1.2-.8c-.3-2.6-.3-2.5.7-3.6zm11.7 5.4c-1.3 1.3-1.2 3.2-2.4 4.6q-.3.4-.8.4.3 1.3 1.6 2.2l-.6.9-.2-.1-4.6-7.2q-.7-1-1-2c.4 0 1-1.2 1-1.2l3.4 5.8v-.2l-3.2-6.2v-.5q1 0 1.6-.3l.7-1zm-16.1.2-.6-.7 3.5-3.5q-.1.3.4 1zm9.4-10.6.4 1.2 7-7 1.4 1.3 2.7-3.1a4 4 0 0 0 .6-2.5q.2-2-1.7-1.9-.9 0-2.4.8l-3 2.7 1 1.1 1.6-1.6s.7-.7 1.4 0c1 .9-.2 2-.2 2s.2-.6-.3-1c-.3-.2-1 .6-1 .6zm-.8-.7c0 1 .9 2.1.2 3-.5.5 0 1 .1 1.4a1 1 0 0 1-1 .2q-.3-.7-.8-1c-.3-.4.4-1-.1-1.4 0-3.2.7-2.5 1.6-2.2m2 6.5c-.8.3-2-.1-2.3 1q0 1-.6 1.5t-1 0c-1.2-1.1-.5-.4-.5-2 .4 0 .8.3 1.4 0q.2-.8 0-1.4l1.1.1q.8-.1 1.2-1.1c.2-.8-.3-.8.6-1.7.4 1 .9 2.6 0 3.6m9 13.9c-1.7 1.5-4.1 1-5.8 2.5.2-1 1.5-1.5 2.3-2l.6-.3-2.8.7q.3-.8 1.1-1.2 3.2.2 5.6-2c.3 1-.4 1.7-1 2.3m-.9-8.3c-1.3 1-.5 3.2-2.1 4l-1.4.3c2-.9 1.3-3.8 3.5-4.4z" fill="#ffc33c"/></g><!-- app4joy --></svg>