<svg xml:space="preserve" width="600" height="300" viewBox="0 0 600 300" id="svg3" xmlns="http://www.w3.org/2000/svg"><g id="g4"><path fill="white" id="rect1" d="M0 0h600v300H0z"/><path fill="#008040" id="rect2" d="M0 100h600v100H0z"/></g><g id="g3" fill="white"><path d="M331 119c16 1 19 21 27 35 8 15 12 16 12 19s-10 5-21 5c-18 0-54-12-54-12s20-48 36-47" id="path2"/><path stroke="#008040" stroke-width="2" d="M239 179c23-1 39 12 64 13 26 0 29-12 29-15-7-3-9-12-12-18-7-15-13-49-34-50-24-1-31 51-47 70z" id="path3"/></g><!-- app4joy --></svg>