<svg width="420" height="280" fill-rule="evenodd" viewBox="0 0 420 280" id="svg200" xmlns="http://www.w3.org/2000/svg"><g id="g4"><g transform="matrix(15 0 0 5 -4920 -986.5)" fill-rule="nonzero" id="g3" color="#000000"><path transform="scale(.8)" d="M410 246.6v70h35v-70z" fill="#e51919" id="path1"/><path fill="#fff" id="rect1" d="M328 213.3h28v12h-28z"/><path id="rect2" d="M328 225.3h28v12h-28z"/><path transform="scale(.8)" fill="#f5c501" id="rect3" d="M410 276.6h35v10h-35z"/></g></g><g transform="translate(-328 26.7)" id="g200"><g transform="translate(485.4 58.7)scale(.37252)" id="g199"><g fill-rule="evenodd" id="g6"><path d="m26.7 148-1.2.5-.8-.9-.3-.5-.4-.1 1.2-.2q.5 0 .9-.2l.2.9zm-5.2-1.5h-.1l-1.3.2-1.2.5-1 1-.5 1.1-.1 1.4.4 1.8.4.2-.1.2-.5.6-.2.6-.2.5-.1 1.2v1l1 1 .3.4v.1l-.3.8v.9l-.8-.3-.9-.2h-1.8l-.9.2-.8.4-1 .7-.6 1.5-.8.3-.9.4-.7.5-.7.6-.5.7-.3.7-.2.8v1.6l.3.7.4.7.6.7.7.5.9.3.8.2-.2.7.2 1.4.6 1.2.9 1 1.2.7 1.4.3 1.5-.3.7-.5.4 1.1.5.7.8.5 1 .3 2.4.1h.6l.7-.2 1.2-.4 1-.4.6.4 1.7.8.9.2.9.1h.9l.8-.2 1.7-.7-.3.8v.7l-.1.6v.7l.2.7.4.6-.4.3-.5-.6-.6-.4-.7-.4-.8-.1h-.8l-.8.2-.7.4-.7.5-.8.7-.4.8-.2.8v.8l.2.6.3.9-.3.3-.9 1-.4.9-.1.6-.9-.4-1.2.2-1 .5-1.8 1.2h-1.4l-.7.2-.9.1-.8.4-.8.6-.6.8-.3.9-.2.7v.8l.2.7.3.6.4.5q.6.7 1.4 1.2.3.3.4.8v1.5l.1.6.3.6.5.6.6.5.7.3h.5l1.5.4v.8l.1.8.3.8.5.7.5.5.7.4q.7.3 1.6.3l-.2.2-.5.4-.5.6-.3.7v1.6l.2 1 .1.3h-.3l-.9.8-.6.8-.4 1-.2 1v1l.2 1 .5 1 1 .8-.5 1.3v.7l.2 1.2.7 1.1 1 .9 1.1.5h.2l-1 .5-.8.7-.7 1.2v1.2l-.5-.2-.6-.1-.6-.1H20l-1 .1-1 .8-.6.6-.3.4-.6-.4-1.5-.6h-1.9l-1.3.4-.7.3-.6.5-.4.5-.3.6-.3 1-1.3-.3h-1l-1.4.4-1.2 1L4 236l-.2.3-1.2.6-.7.4-.8.7-.5.8-.4 1L0 241l.1 1.5.8 1.1.9.7.8.3 1.1.1v.5l.3.6.4.6.5.6.6.4.7.3H7l1 .2.7-.2-.4.2-.9.7-.5 1v1.2l.3.7q-.7.7-1.1 1.6l-.3.8v1.6l.2.8.3.7.5.7.6.5.7.5.9.3 1 .2h1l1-.2.6-.3.9.5.7.2 1 .1h1l1-.2.9-.3.8-.4.8-.6.5-.5 1 .2h.5l1.3-.2.8-.3.6-.4.6-.5.4-.5.4-.5.3-.6.3-1.1q.1-.4.5-.4l1.6-.3 1-.6.7-.6.6-.6.4-.7.1.1.8.5.8.2h.9l1.4-.1.2-.1.5 1q1.3 2.4 3.7 4l.2.8-.2.1-1 1-.7 1.3-.3 1-.1 1.1v1.1l.2.6.3.6.3.6.5.5.9.6.8.5.9.2H43l1.5-.4.7.4.7.2.7.2h1.5q1.2 0 2.2-.5v.3l-.1.7.1.8.4.7.5.7 1 1.4.6 1.6.4 1 .7.6.8.5.9.3.8.1H58l1-.3 1.5-1.5.2-.1.6.3 1 .3h2l1-.3 1-.4.8-.8.6-.9.6-1 .3-1.1q0-.5.5-.7 1.3.3 2.5.3h1l2-.1 1.8-.4 3.1-1v.5l.3 1.3-.5.5-.4.6-.3.7-.2.7v.8l.1.8.3.9.7.8.7.6.8.5.8.3.8.1h.8l1.8-.1 1-.8 1.4 1h2.1l.8-.2.8-.3.3.3-.5.7-.2 1.1v1l.1 1 .5.8.8.6.9.3.6.1.3 1.5.4.8 1.2.8 1.1.5 1.2.1 1.1-.1 1.1-.4 1-.6.8-.9.3-.3h1.4l.9-.2.8-.5q-.3.7-.2 1.6l.2 1.2.4.5.9.8 4 2.2 3 1.5 1 .8 1.3.7 1.1.3.8-.2.6-.1.6-.3.5-.4.4-.6.3-.6v-.5l1-.8.8-.6q1.4-1.5 3.3-2.5l1-.2 1-.4 1-.5.8-.7.6-.7.6-.8 1-1.7.2-.5 2-2.2q2.3-2.5 4.9-4.8l.8.2.8 1 .4.4.5.4.6.2h1.4l2.8 2.8 3.2 2.9.9 1.3.5 1.5.5.8 1.9 1.6 1 .3a16 16 0 0 1 3.8 2.4l1.3 1.5-.1.4.1.9.4.8.6.7 1 .4 1.2.1 1.5-.5 2.5-.6h1.5l2.7-1h.6l2.3-.2 1-.2 1-.5.9-.7.7-1.1.3-.7v-.8l-.1-.8-.4-.7-.6-.6-.6-.5-.7-.4-1-.4-.7-.2-1.6-.8-6-3.3-7.4-5.2-6.7-4.4.6-.3.6-.4.5-.6.4-.7.2-.8-.1-.8v-.2l2 1.1a29 29 0 0 0 4.5 2q1 0 2 .3h3.4l.8-.2 1.9-.7.7-.4.1.3.5.9.6.8 1 .6 1.3.3-.1.7-.2.8-.2 1 .1.8.2.8.3.6.4.6.5.5 1.6.8q.3.6.3 1.3v.9l.3 1 .7 1 1.2.8 1.6.4h1l.5 1 1.2.7 1.2.5h1.2l1.3-.2 1.1-.5 1-1 .6-1.1.1-.7 1.2-.4.7-.3 1-1.4.3-1.3-.3-1.1-.6-1 .6-.5h.3l.8.3h.9l.8-.1 1.2-.3.6-.4.5.4 1 .4h1.7l1.4-.2 1-.4.8-.5.5-.6.4-.6.4-.7.2-.7v-1.5l-.5-.7-.8-1 .1-.1.4-1.2v-.8l1.7.6 2.4.7 2.1.4h2.1l1.2-.4q.6-.2 1 .3l.3 1.1.2.7.3.6.3.4.4.5.5.4.5.3.5.3.5.3.6.1.6.1h1.2q1.1 0 2.1-.5l.6.7.5.5.8.4.8.3h2l1.6-.4 1.1-1 .6-1 .5-1.5.1-.3.7-.3.8-1 .4-.8.3-.8v-1.2l1.1.1h1.1q1.5-.2 2.8-.8l.1.2 1.1.4 1.1.2h1l1-.3 1-.5.7-.6.6-.7.5-.8.4-.9.2-1v-.9l-.1-1-.4-1-.6-.8-.9-.8.2-1.1-.2-.8q2.6-1.6 4-4.3h.1l1.2.3h.8l.8-.2.8-.3.4-.4.6 1 .8 1 1.1.5 1 .2 1 .2.2.5.1.7.4 1 .6.7.6.6.8.5.8.3.8.3h1.2l.7-.3.3.3.8.8.9.6 1 .4 1 .2h1l1.1-.2 1.2-.6q.6-.3 1 .1l1.1.2h2l.8-.4.8-.4.6-.6.6-.6.4-.7.3-.7.1-.8v-.8l-.2-.9-.4-.8-.6-.7-.5-.4q0-.8.3-1.4v-.9l-.4-1-.5-.4h.2l1.2-.2 1.2-.7.5-.3.4-.5.2-.5.3-.9h.2l1.2-.4.8-.5.7-.6.5-.6.3-.7.2-.7v-1.6l-.3-.8-.5-1-.6-.5-.7-.5-1.6-.7-.4-1.3-.5-.9-.6-.8-1-.7-1.3-.2-1.3.2-.8.3-.1-.4-.3-.7-.6-.7-1.3-.7-.8-.3h-2l-1.6.6-.7.3-.4-.7-.8-.8-1-.6-1-.3-1.2.1-1 .3-.5.3v-.3l-.1-.7-.3-.7-.5-.6-.5-.5-.7-.4-.7-.2-.4-.1h.3l.9-.4.8-.5.7-.7.6-1 .3-1V221l-.4-.9.8-1 .5-.7.2-.9v-.9l-.1-.9-.4-.8-.6-.7-.7-.6-1-.6.5-.8.3-1-.1-1.2-.6-1.1-1-.8-.3-.1 1.2-.2 1.1-.5 1-1 .5-1 .2-1.5 1.5-.2 1-.3.8-.7.6-1 .3-1v-2l.6-.4.5-.3.5-.4.5-.6.3-.5.2-.6.2-.6.1-.7v-.7l-.3-.6-.6-1-1-.9-1.1-.3-1-.1h-1.5l-1.9-1.4-.8-.5h-1.6l-.6.1v-.4l-.4-1.1-.9-1-.6-.4.2-.6.3-1.1V183l-1-1.4-1.7-1h-2.1l-.6.3-.5.3-1.3 1-.3-.2.3-.5.4-1.4-.1-1.4-.4-.9 1.8.7 1 .2h1l1-.3 2.2-1q.3-.3.7-.4l1.5.8.5.3.6.2.7.2h.8l.8-.1.8-.3.8-.5 1-.8.4-.9.2-.6.7.3.9.2h1.8l1-.3.8-.6.7-.8.5-1 .1-.8q0-.7-.3-1.3l1.1-.2.9-.2.8-.6.5-.8.5-.9.2-1-.1-1-.3-1-.6-.8-.7-.8-1-.5-1-.4q-.4 0-.6-.3l-.2-.7-.6-1-1-.7-1-.4h-2l-1 .2-1 .3-.2-2 .8-.1.7-1.8V155l-.3-1-.5-.9-.3-.3.4-.8.2-.4.1-.8v-.5l-.1-1.1-.5-1-.7-.8-.9-.6-1-.4h-.6l.8-.7.5-.6.8-1 1.2.5 1 .3h1.1l1.2-.1 1-.5 1-1 .5-1.1.1-1.1h1.4l1-.2.8-.6.6-.7.4-.8.2-.8v-.6h.4l1-.4.9-.6.7-.7.5-.9.2-1 .1-.9-.1-1-.4-1-.7-1.2-.9-.8-1-.4-1-.2h-1.7l-.2-.5-.4-.6-.5-.5-.7-.3-.6-.3-.9-.2h-.8l-1.6.5.2-1v-.8l-.3-.8-.4-.6-.4-.5-.3-.4.3-.5.3-.6.2-.8-.2-1.5-.3-.7-.4-.7-.5-.6-.7-.5-.6-.3-.8-.2-.7-.2h-1.5q-.7.1-1.5.5l.1-.7v-.7l-.1-.8-.4-.8-.5-.7-.6-.5-.8-.4-.8-.1-2-.2-.4-.6 1-.9.4-.6.2-1v-1.4l-.3-.6-.4-.6-.3-.3h.8l1.4-.6 1-1.1.2-.4.2-.4v-.4l2.4-1 .7-.4.8-.6.6-1 .3-.8.2-.8V97l-.3-.8-.4-.7-.5-.6-.6-.5-1.1-.6-.4-.6-.5-.9-.7-.7-.9-.6-.9-.3h-.2V90l-.1-.8-.4-.6-.5-1 .6-.5.7-1 .5-1.1.1-1.2-.1-1.2-.6-1-.9-1-1.2-.6-1.6-.2q-1.1.2-2.1.6l-1-.8-1.2-.4-1-.1-1.1.2-.8.4-.7.6-.9 1.1-.5-.3-1.3-.1h-.8l-.8.2-.7.4-.6-.9-1-.8-1.2-.5h-.4l2-2.2.4-.8.4-.7.4-.8.2-.9.1-.8v-1l-.2-.8q-.4-1.2-1-2.1l.5-1.4.1-.6v-1.5l-.2-.5-.5-1-1.5-1.5.2-1v-.9l-.3-1-.7-.8-1.2-1-1.7-.4V57l-.5-.8-.4-.6-.5-.5-.6-.4-.6-.4-.6-.2-.7-.2h-1.3l-.7.1-.6.2-.6.3-.6.4-.5.5-.4.5-.6 1.2-.1.6v1h-.1l-1.1 1.4-.4.5-.2.7-.1.4-.7.2-.6-.5-.6-.3-1.6-.3h-1.1l-1 .3-1 .5-.6.8-.4.9-.2 1v1.5l.4.6.4.6v.2l-.3 1v1l.3.8.4.7 1 1.1.1 1.3-.8-.5-1-.4h-2l-.9.4-1 .5-.6.7-.4.7-.2.8-.1.8v.8l.2.6-.6 1-.2 1 .1 1.1.4 1 .5.9.4.3-.2.3-.2.7v.9l.2.7.3.6-.6.1-.6.3-1.2.7-.8 1-.2 1.2v1l.7 2v.3l-.2 1.7v.6l.3.7 1 1.1.7.6.8.4 1.5.5v1l.2.6.4.8 1.5.8q.8.4 1.7.4l-.5 3-.3 1a29 29 0 0 1-4.2 7.7l-.5.6q-.7 1.3-.9 2.8v1.7l.2.8.3.9.8 1.7a37 37 0 0 0 4.2 5.8l.9 1.1q.7.7 1.2 1.6l-.9.2-.7.4-.2-.1-.2-.4-1-.6-1-.2h-1l-1 .3-1 .4-.7.7-.4.6-.2.3-.3.5-.1.6v1l.1.8.4.9-.2.2-.3.5-.3 1v1.3l.4 1 .6.6.6.5.8.4-.3.7-.1.6v.7l.2.7-.7.4-.7.8-.4 1-.1.9v1l.4.8.7.8.6.2 1 .8.2.7.2.9.6 1 1 1 1.5.5.8.2h.9l.8-.3.4 1-.6.4-1.2-.6-1.5-.2-1.4.3-1.2.7-.9 1-.6 1.1-.3 1.3.2 1.3.2.9.4.7.7 1-.2.3-.3 1v.9l.2.8.4.6.9 1.2h-.3l-.7.4-.6.4-.6.6-.4.6-.4.7-.1.9v.8l.1.8.4.7.5.6-.2.2-.2 1v1l.3.8.5.8.3.4-1.7 1.9-.8 1.3-.4 1a13 13 0 0 0-.7 3.7q-.1 3.1 2 5.5l-.1 6.6q0 1.5-.3 2.8l-.8 2.3-.1.8-.1.8v.8l.2 1.8a15 15 0 0 0 2 4.6l1.8 2.7 3.2 4.7 1 1.9q1.6 3 3.5 5.9l.3.5-4.7 4-.4.3-.5.3-.6.6-1.1 1.1-1.6 2.1v-.7l-.8-.7-.8-1.3-.4-.5-.5-.5-.4-.3-.5-.2-.6-.2h-2l-.7.4-.9.5-.4.5-.2.5-.4 1v1.2q-.3 2.4 1 4.4-2.1.4-4.2 1.3v-.2l-.5-.5-.3-.3.2-.4v-1.8l-.4-1-.5-1-.7-.7-.8-.7-1-.4-1.2-.1-1.2.1-1 .4-.8.5-.5.6-.9 1.3-.5-.2h-.8l-.9.2-1.7 1-.4.4-.3-.4-.6-.3-.6-.3-.8-.2h-1.8l-.8.4-.5.4-1.4 1.1-.8.1-1.2.3-1.1.5-1 .7-.8 1v.2l-.8-.8-.6-.1-.7-.7-.5-.2-.2-.3-.7-.6-.8-.3-.7-.2-1.8-.3-.7-.1-1.5-.3-4.7-1.3h-1.7l-1 .2-1 .5-.8.6-.7.8-.6.8-.5.8-1 1.8-1.5 4-.5 1-.3 1q-.6 1.3-1.5 2.2l-1.2-1.4-1.3-1.3-.5-.3-.7-.3-.7-.2h-.8l-.9.1-.5.2-2 .6-1.5.5-.6.3-.5.5-.5.8q-1.1 0-2.1.2l-1.2.1q-1-1.1-1.7-2.6-1.7-3.7-3.7-7.5l-.9-1.2-1.4-1.7-.6-.4-.6-.4-.6-.4-.7-.2-.8-.2h-1.6l-.5.2-2.4-.3-2.6-.4h-1.5l-.7.1-.8.2-.7.3-.7.4-1.3 1.3-.6.8q-1.2 1.5-1.8 3.4l-.4-.5-.5-.6-.6-.4-.7-.4-.7-.3-.7-.2-.7-.1-.3-.4-.6-.6-.9-.5-1.1-.4h-1.3l-1.4.4-.7.3-.5.4-.3.4-.6-.8-.8-.7-1-.3h-1.3l-.3.2-.8-1.2-.4-.5-.6-.5-.7-.4-.8-.3h-1.6l-.8.1-.7.3-.6.3-.5.5-.5.5-.3.5-.4.6-.2.6-.1.6-.1.6v.7l.1.7-.8.8-.1.2q-2-.8-4.3-1.2l.5-.5.3-.7.3-.7.2-.7v-2.3l-.2-.8-.3-.7-.5-.7-.6-.6-.7-.4-1-.3-1-.1-1 .2-.8.4-.7.5-.5.7-.4.8v.2l-.3.1-.6 1v.6l-1.9-1.9a39 39 0 0 0-4.4-3.8l-3-2.9.4-.8c2.3-3.3 4-7 6.4-10.2l.1-.1.4-.5 3.6-5.1.8-1.7.3-.9.3-.8.1-1V205l-.3-1q-.7-1.4-1-2.8-.3-2.7 0-5.5v-3c1.6-1.7 1.9-4.2 1.7-6.5a11 11 0 0 0-1.2-3.5l-1.6-2.5-.8-.9.8-1 .3-.6v-.6l.1-.6-.1-.9-.3-.4.5-.6.4-.8.2-.8v-.7l-.2-.8-.3-.8-.5-.7-.7-.5-.7-.5-.7-.2.5-.5.4-.5.3-.6.1-.6.2-1.5v-1.2l-.1-.4.8-1.2.3-1 .1-.6-.1-1.4-.5-1.3-.9-1-1-.8-1.2-.5-1.4-.1-1.4.3-.8.5-.8-.3.7-1h.6q1 .2 2.2.2l1-.4.7-.5.5-.6.4-.7.3-.7v-1.5l.9-.5.6-.5.6-.7.5-1 .1-1.3-.1-.8-.3-.8-.4-.6-.6-.6-.4-.1v-1.5l-.3-.8.8-.5.7-.5.8-.8.5-1.3-.2-1.5-.4-.7-.3-.3.3-.6.2-.8V133l-.3-.8-.4-.8-.6-.7-.6-.5-.7-.3-.6-.1h-1.4q-.8 0-1.4.6H67l-.8.6-.2.2-.7-.4-.8-.1h-.3l1-1.5 2.7-3.1 1.4-2q.6-.8 1-1.8.7-.9 1-1.7l.2-.6v-.4q.4-1.2.3-2.3l-.2-1.5-.3-1-1.4-2.3L68 109a17 17 0 0 1-1.4-3.6q-.4-1.5-.6-3.2v-.3l.7-.1 1.2-.6.8-.7.5-.9.3-1.2 2.1-.7.5-.4.4-.4.3-.4.5-.5.4-.9v-.8l-.1-1.2.2-.3.3-.7.3-.7v-1.6l-.1-.8-.4-.9-.5-.8-.6-.7-1-.5h-.4v-.3l.2-.8q0-1-.3-1.7 1-.9 1.2-2.1v-1.7a5 5 0 0 0-.8-1.9l.1-.3.1-.8v-.7l-.1-.7-.3-.7-.5-.7-1-.9-.6-.3-.5-.2-.7-.1H67l-.6.1-.6.2-1.2.7.1-1.3 1.2-1 .4-.4.3-.7v-1q.2-1-.3-2l.2-.2.4-.7.2-.8v-1.6l-.4-.7-.5-.6-.5-.5-.7-.4-.8-.2-.8-.1h-.8l-.8.1-.8.4-.8.4-.3.2-.4-.2q-.1-.8-.7-1.6-.5-.7-1.1-1.2l-.2-1.3-.3-1-.4-.9-.7-.7-.7-.5-.9-.4-.8-.2H52l-.9.3-.8.4-.7.5-.6.7-.5.9-.3.9v.2l-1.4.2-.7.4-1 1-.4.5-.2.7v.6l-.1 1.3-.9.7-.5.5-.5.8-.3 1.3v1.8l.7 1.6-.5.9-.2.5-.2.7-.3 1.7.2 1.3.3 1.1.6 1 .6 1 1.6 1.7h-.3l-.7.3-.6.5-.6.8q-.5.3-.7.7L41 81h-2.2l-.8.2-.7-1-.6-.5-1-.6h-2.5l-.4.2-.5.2-.7.3-.4.6-.4-.2-1.4-.5H28l-1.3.5-1 .8-.7 1.2-.2 1.4.2 1.4.1.7.4.6.4.6 1.2 1-.3.3-.5.5-.2.7v1.2h-.7l-.7.2-.8.5-.5.5-.4.6-.7 1.3-.8.3-.9.6-.6.7-.5.9-.3.9v1l.1.9.6 1 1 .8.9.4 1.5.6.7.5.3.8.3.4a7 7 0 0 0 2 1.7l1 .1-.2.4-.3.7-.2.7v1.2l.2.6.1.4.3.5.8.6-.4 1h-1.1l-1 .2-.5.2-.6.3-.5.4-.4.6-.4.6-.2.7-.1.8.1 1-.4-.4q-1-.3-2-.2l-1-.1h-.6l-.7.2-.7.3-.7.5-.6.7-.5.8q-.3.5-.3 1.2v.4q0 .8.5 1.3l.7 1-.5.4-.6.7-.3.7-.2.7v2h-.1l-1-.3h-1.6l-.8.3-.8.4-.6.6-.6.8h-.5q-1 0-1.7.2l-.7.1-.7.3-.7.5-.6.6-.5.7-.4.7-.2.9v.9l.2.8.4.9.4.7.7.7 1.3.8.5.2v.5l.1.7.3.7.4.6.5.6.6.4.7.3 1 .2h.7l.3-.2.2 1 .2.6.5.7.6.6.7.5.7.3.8.2.8.1h.8l.7-.3.8-.3.4-.3 1.3 1.5.5.4zm14.1 29.7.7-.7q1-.7 2-1.8l.6.5 1.8 1.5q1.5 1.8 2 4.2l-.4-.8-.4-.7-1.1-1.4-1.4-.5a8 8 0 0 0-3.8-.3m3.5 8.5.7.5-.4.2zm-11 41.3 1.1-.5.7-.6.6-.4 1.4.7h1.5l1.2-.2 1-.5.6-.7 1-1.5h.8l.8.2H40l1-.5-.8 1.6-2.4 5-.3-.2h-1l-1 .2-1 .4-1 .7-.5 1-.1.3-.2.2v-1l-.1-.8-.3-.6-.4-.6-.6-.6-.3-.3-.3-.2-1.1-.3-1.6-.9m15-8.2-.3-1.2h.3l.7-.2zm4-6.5q0-.8-.3-1.4l.8.7zm-17.5 24 1.6 1.7-.5-.1zm1.2 7v-.3q0-.4.4-.8l.8.2-.2.3-.4.1zm75.9 38.1.2-1.1v-1.6l.1-.4.4-.2 1.1-.5 1-.8.5-1 .1-1v-1l-.5-1.8.8-.4.8-.4.8-.8.2-.5 7.2 2.3 2 .4h2.1L118 275l-1 .7a59 59 0 0 1-6.8 3.7l-1.5.2-.7.1-.8.3zM251 242.1l-.2-.1v-.6zm.6-6-.4.7h-.3zM254 226q-1 .3-1.7.8h-.6l-.7.3-.6.4-.4.4-.4.5-.2.6-.4 1-.1.6-.4-.6-.7-.8-.8-.5-1-.4h-1.3l-.6.2-.8-1.3q-1.4-2.7-2.4-5.6l.3.3.7.3.5.2.5.3h1l.8-.4.5 1 .5.8.9.8 1.2.6 1.5.1 2-.4.3-.5q.7.7 1.7 1zm-14.6-7.7-1.1-1.9.4.2h.7zm-4-6.2-1-1.3 1.3-1q-.3 1-.3 2.2zm7-27v.3h-.2zm3.6-9.2-1-.2-1.5.3-1 .5-.6.2-1 .6-.8.8-.5 1-.3 1v1l.1 1q-.3-.6-.4-1.3 0-1 .3-1.8l.4-1.2.6-1.1.8-1 .8-.9 1.9-1.1zm12.5-28.9-.8.4-.7.6-.6.6-.3-.3-1-.2.4-.5.3-1 1.1.3.9.1zm-8.6 3.3-.6 1-.2.5h-2l.2-.8.5-1.5.8.5zm.9-7.5-.3.2H249l.6-.7h.8zm-2.7-15.9q0 .3-.2.5l-.8.1-.7.3-.2.1-.3-.2q1.2-.2 2.2-.8m-4.4 6.7q0 1.2.3 2.3l.3 1.4-2.4-3.1h.7l.7-.5zm-3.4-7-.4.2-.8.4-.7.6-.6-1 .4-.3zM228 81.5l1.1.5.2.6.1 1.3-1.5-1.3v-.3zm-4.9 75.8.9-.7.9.5.7.3.8.3.8.1h.7l-.3.5-1.3-.4h-1.6l-.5.2-.4.2zm-164.4 0-.1.2-.3.7-.3-.2-1.6-.2h-.6.4l.8-.3.6-.4.3-.2zm-3 .5-.7.2-.7.4-.3-.6h1.2zm-1.5-76.3-.1 1.1-.4.3-1.1 1q0-1 .3-2zm-6.5 5.4.4-.1v.3zm-14 40 1 .5 1.3.2-.1.1-.4.5q-.7-.5-1.4-.7l-.3-.2v-.3zm6.8-.5h.2l2 .1h1.1l.2.2-.3.6-.9-.4-.6-.3zm-2.2 7.3h.6l.2.2.7.1-1.8 2.5q.3-1.4.3-2.8m-7 9.2.2-.3 1.3.1.2.3h-.3l-1-.2zm1 7.5h.5l.4-.3 1-.5.8 2.3-1-.2h-1l-.3-.5zm43.6 99.8-1.8.3-.2-.4q1-.3 1.8-1.2l1.9 1zm129-.6q.8-.2 1.3-.6.7.8 1.5 1.2l-.2.2-1.2-.3zm22.8-50.3-.4 1.8-.1 1.8-.5-.8q-.8-1.2-1.3-2.5l-.4-1.4-.3-.4.2-.2.7-1 1.4-1.4q.2 1.2.6 2.2l.2.8zm-171.4-2.5.9 1.2-.2.3-.7 1.6-1.5 2.4-.2-1V200l-.6-1.4v-1l.5-1.3.2-.6v-.5l1.4 1.2zm179.2 7.5-.5.4.3-.8zM49.1 120.8l-.6 1.3q-1 1.4-1.8 3s-.6-.4-.6-.7c0-.8.6-1.3.8-2.6l.6-1.7c0 .7 1 .7 1.6.7" fill="#2c2c2b" id="path4"/><path d="M102.8 242c-.3 0-1.6-2.8-4.3-1.6q-1.7.9-1.4 2.7c-1.1.3-.7 1.5-1.1 1.6-.6-.7-.3-1.3-.3-1.9-.3-1.9-1.4-3.8-3.3-2.7q-.3.3-1-.1c-.7-1.2-1.1-2.5-2.7-2.9-3-.5-4.8 2.9-3.4 5 .2.6-.3.7-.5.7-1.9.2-.3 2.5-1.9 1.8-1.8-1.2-2.7-1.1-7.4-2.2-.8-.1-1-1.5-.4-1.5 3.3 1.1 4-5.1 1.4-6.2-1.6-.8-3.3.4-3.4 1.9-1.3.4-1.3 4.2.7 4.2v1a6 6 0 0 1-3.4-2.6c-1.7-1.7-3.1-3.5-5.5-5.3a37 37 0 0 1-4.9-4.5c-.4-.6.7-2 1.2-2.7 2-3 3.7-6.7 6-9.8l.4-.3c3-4 6-7.6 4.6-12.3l-1-2.8c-.5-3.2.3-6.4 0-9.4 1.6-1.3 1.9-4.3 1.6-6.2-.4-2.3-2.1-5.1-4.3-6.7 0-.5.5 0 .8-.5.8-.9 1.4-1.4 1.1-2.7-.3-.5-1-.8-.3-1.6 1.1-.7 1.4-2.5.4-3.5-1.1-1.2-2.5-.8-3.2-.8-.5-.4-.5-1-1.3-1.2.1-.4 1.6-.4 2.1-1 1.3-.8 1.4-1.7 1.4-3 .5-1.2-.7-1.7-.5-1.7 1.1-1 1.5-1.6 1.7-2.7.1-2.8-3.1-4.6-5.1-2.8-.6.2-.6.4-.9.4-1.8-1.8-4.5-1.1-5.1.8 0 1-1 1.2-1.7 1l-.6-.6c-1.4-.3-2.1-.3-3.1 1.3-1.7-1.9-2.4-4.3-3.7-6.7 1.4 1 2.3 2.5 4.7 2.4 1.8 0 2.1-1.6 2.8-1.2l1.3.8c.9.5 1.9.8 2.9-.1 1.5-1 .8-2.9 3.5-2.2l1.6.1c1.5-.4 2-2 1.7-3 .4-1.8 2.7-1.2 2.7-3.9q-.2-2.3-2.7-1.7c1.1-.7 1.1-2.3.5-3.3-.5-1.9 3.6-1.7 2.7-4.3-.5-1-1.5-1.3-.8-1.9.8-.5.8-2.8-.3-3.9-.7-.7-2.3-.7-3 0-1.3 0-1.3 2.2-2.3 1-1-1-3-.6-3.4 0-.4.4-1.1 1.2-1.1 2.1 0 .6-.6.7-.7.7-.4-1 3-6.6 3.4-7.2 1.8-2.1 2.8-3 4.1-5.1l.9-1.4c.3-.5 1-1.5 1.1-2v-.4q.9-3.4-1.4-6.2c-.7-1.5-1.9-3.1-2.6-4.7-1.1-2.6-1.1-3.7-1.5-6.1 0-.7-.6-1.8-1.6-2 1.1-1.5 2 .3 3.4 0 2.3-.7 1.2-3 2.6-3.4 1.1-.2 2.1-.4 2.7-1.4 1.4-1.2 0-2.3.5-3.1.9-1 1.3-2.7 0-4.3-.7-1.4-3.4-.4-4-1.2 1-.6 2.2-1 2-2.6 0-.7-.8-.8-.7-1.8q1.3-.5 1.6-1.7.3-1.7-1-3c.6-1 .6-2.8-.6-3.6-.7-.7-2-.9-3-.5-1 .3-1.5 1.3-2 1.7q-2.5-.3-3.8 1.6 0 .8-.5 1.5c-.2.7-2.6-.6-4.3 2-.4 1 0 2.2-.7 3-1.4 1-2.7 2-2.7 3.6-.6 2 .4 3.5 1.7 4.6 1.1.8-.7 2-.9 3-1.1-.8-2-3.8-2-5-.7-1.9-.2-4.5-.2-6.8q0-1 .7-2.4c2-.8 6.4-1.3 6.8-4 0 0 .6-.2.6-.5q2.3 0 3.5-2c.9-.7.2-2.8 1-3.2.9-.7 1.9-1.1 1.4-2 .5-1.1-.5-1.8-.2-2.6 2.7-2.6-1.3-5.6-4.3-2.7-1 .5-1.3-.8-2.6-.3q.4-1.2-.4-2.2c-.1-.5-1.6-1-1.4-2.3 0-4.6-6.6-4.3-6.6 0-.5 1-2.2.3-3 1.3-1 .8-.6 2-.6 3.2 0 .5-2 1-2.2 2.4-.4 1.4 0 2 .7 3.4.3.6-1.1 2-1.1 3.1-1.3 5.6 8 8.4 6.1 11.8l-.8-.4q-.6-2.1-2-2.7c-.7 0-1.9-.6-2.5.5-.2.7-1 .8-1 1.4q-.1 1.4.6 2.1c1 1.1 4 1.2 4.3-.5 1.8 0 1.5 3.5 1.8 4.6-.3.8.3 1.2 0 1.7.6 1.3.6 2.3 1.5 3.6 0 .5.4 1.6.4 2.4a6 6 0 0 0-2.4.3c-.2-.6.1-1.1.1-1.8-.1-2.3.1-4.7-1.3-6.5-1-1-3.7-.1-4.4-2.1-.7-1.7-1.8-4.2-4-4.1q-1.2 0-1.7.5c-1 .8-1.7-2-2.8-2.4q-1.6-.1-2.6.4c-.4.5-.5 1.5-1.5 1.2-2.7-2.1-5.6-.5-4.7 2.6.1 1.3 1.5 1.8 2.3 2.8.4 1.2-1 1.2-1.2 2.2l.2 2 .7.8c-.9-.4-2.7-.8-3.6-.1-1 .8-1 2.3-2.1 2.7-1.7.3-2.7 2.7-1.7 4 1.7 1.5 4.2 1.1 4.5 3.2q.4.8 1.6 1.5c2.1.6 2.8-2.2 5.1-1.5 1 1 2.7 2.4 4.1 1.5 1.7 0 2.6-2.2 3.6-2.6h1.7c-1.9 1.5-2.3 4.7-1 6.7-1.7 1-1.3-1-2.6-2.3q-1-.9-2.7-.4l-1 .6H34q-2.4-1.7-4.9.1c-1 1.2-.5 2.6-.2 3 .5.5 1.2.8 1.2 1.9-1.1.8-.3 1.2-1 1.7s-1.4.2-2.4.4q-1.6.1-2 2.3 0 1.4 1.2 2.5c.8.4 1.8.4 2.2 1.6 0 1.6.5 2.8 2.6 2.8 2.7 1 3 3.7 5.5 3.8 1 0 2.5-.1 3.5-.8v-.5l3 .2c2 0 2.2.2 3.4 1.5q-.9 1.1-1.2 2.3v.2c-.3.6-1 .6-2.1 1q0-1-.2-1.6l-.5-.2-.3-.2-2.7-.1-.4.3c-.5 0-2.2 0-2.2 2.1 0 1.1 1.4 2 3 2 .4.6 3.3.2 3.7-1.7.2-.2.9-.2.7-.2 0 1-1.1 2.3-2 3.6l-.1.1a36 36 0 0 0-5.3 8.2q-.4.5-.3.6l-.5-1-.5-1v-.4l.2-1.4c0-.8.4-1 .8-1.9.5-1 1-3.2.3-5.4q-1-2.8-3.2-3l-.9-1v-.5c-.7-.6.4-3-2-3.7-1-.3-1.5 0-2.4-1a7 7 0 0 0-.9-3.1c-.5-.5-1.4-1-2.4-.4-1.1 0-1.1-.1-1.2-.5q-.6-.9-1.3-1.3l-1.4-.1c-1-.1-2.3-.3-3.3 1.6q-.5 1 .1 1.5l1 1.6.4.6-.4.5c-1.8.4-1.8 2.3-1.7 3q-.1.4.6 1c-1 .6-.6 1.4-1.6 1.8-.4 0-.8-1-1.4-1-1.3-.5-2.8 0-3.4 1.8-.9.3-1 .3-1.7.3-1.3 0-2.6 0-3.6 1.6-.8 1-.1 3.5 1.3 4 .4.5 1.9.6 1.9 1.8q-.3 2.1 2 2.6c1 0 1.7-.8 2.4.1.2.5-.2 2 1.1 3q2 1.5 4 0c.5-.2 1.3-.2 1.5-.1.8 1 1.6 2.3 2.6 2.4.3.6 2.1.3 2.6.2q1.8-.3 4.2-2.6c.6-.4 1-1.4 1.6-2 1.4.6 2.4 0 3.3 1q0 .6 1 1.4l.2.7v.2l-.1 1.7v.8q-1 .2-1.1 0c-.3-1.5-1.3-2.7-3-2.3q-.8-.4-2.2 0h-.2c-1.6.5-1.8 3.6.5 3.6.6 1 2 1 3 1 .1-.2.7-.3 1-.6l.3-.8c.7.2 1 .4 1.7 0q.5 2.1 1.1 3.8c1.4 1.4 1.4 4.5 2.2 6 .4 1.7 2 3.5 1 5.2-.6-1.6-.2-2.4-1.3-3.8-.5-.8-1.9-1.7-1.9-3-.3-2.1-1-2.6-3.2-2.6-2.6.2-1.6-4.4-5.6-3.8-1 .2-1.7.8-2.5.8-.2 0-1.7-1.6-1.7-1.8-2.6-1.2-5.4.4-4.3 3.3.6.2.8 1 .8 1.6-1.4 1-1.4 1.6-1.4 3.1.6.7 1.4.8 1.4 2.2-1 1.3.2 1.3.3 2.5 0 .3-1.1 1-1.7.7q-3.5-1.7-5.4 0c-.5 1-.5 2-1.4 2-4.3.9-4.1 6.1.1 5.9.5 0 1.3 0 .6 1.3-1.1 2.4 2 5.3 4.3 3.1.8-.1.3-.3 1.3-.3 1 1.8.4 3 2.8 3a7 7 0 0 0 4.4-1c1.4-.2 1.4.6 2.7 1 3.3 2 7.4-2.3 7.4-2.3q1.4-.9 2.4-2.5c.9 0 3.4 2.1 4.1 2.8a10 10 0 0 1 2.4 5.5c0 1.1-.4 2.6-.4 3.4-1.4 0-2.1 0-3.1-1.2 1.1-1.6.3-2.8-.9-4.2-1-.4-3-1-4.2-.5-1.3.1-1.4 2.1-1.2 3 .6 1 1.2 1.2 1.3 1.7 1.2 1.2 2.7 1 4.1.4.2.8.8 1 .9 1.2.3.3 2.6 1 3 .6-1 2.4 1.1 4.6 1.3 7.3.2.2 1.4 1.8 1 1.8-.9-.9-1.5-1-2-2 0-2.7-1.3-6.6-4.6-4.7l-.7.1c-1-.6-.6-2.8-2.6-3.5-.5-.8-1.8-1-2.8.3-1 .1-1-.3-1.8-1.2q-1.5-1.3-3.6.6c-.9 1.4 0 2.2.6 3.6-.5.8-.9.2-1.5 1-1.4 1.3-.8 3.4.6 4.5 0 0 .2.4-.6.4q-.6.1-1-.4c-2.5-3.8-3.4-1.5-5.5-.3-1.6.3-3.7-.2-4.4 1.4-1.7 3.4 3 3 2.3 6 0 1.1.1 2 1.7 2.2.7.6 2.3 0 2.7 1.1-1 4.2 3.1 4.5 6 2 1.8 0 .1 1.8 1 2.5-1.9 1.6-5.9.8-4.9 4.4q.4 1 1.4 1.4 0 .6-1.4.5c-2.3.7-2.7 3-1.7 4.8.4.4 1.3.8 1.4 1.2 0 .8-.7 1.3-.7 2.3 0 2.3 3.9 3.6 5 1.9 1.7-1.3 1.4-1.1 3.4 0 3 .4 2.8-1.8 4.1-3l1.7.1c2.3.7 3-1 3.4-3l-.5-2.4c.7-.8 1.5 0 2.7-.7 3.7-2 .8-6.5 0-9.4h.1c1.4 2 4.3 3 5.8 5.2-1.8 1.7-2.8 4.2-4.4 6.3l-3.2 6.5c-.2.4-3.4 7.3-3.6 7-1.3-1.1-4.1-.6-4.1 1.5-1.1.5-1 2-1 3-.1-.2-.6-.2-1-1q-1-.6-1.6-1.4 1.2-2.5-.4-3.7 0-.5-1.3-.6c-1.5-1.2-3.4-1.9-4.4.3 0 1.3 0 2 1 2.4.6 2.5 2.3 3 4.4 2.7l4.4 4.6-1.1.6-3.4-.6c-1.4-1.7-2.1-3.2-4-4.6-2-2-3.1-3.8-6.2-3.2-1.7 1-1.2 3.2-3.6 1.5q-1.2-1-3-.6c-1.8.6-1.8 1.2-2.1 2.6-1.1 1.9-4.6-1.6-5.6 2.3q-.1.7-.8 1.3c-1.9.7-3.4 1.5-3 4.5 1.1 2 2.9.7 3.6 1.9q-.1 2.2 2 2.4c2 .4 2.8-1.6 4-.2 0 1.2.4 1.5 1 2 0 .4 0 .5-1 .5-2-.1-4 1.5-2 3.1-3.5 2-2 7 2.4 5.9 1.7-1 1.5 0 3 .4 2 .4 4-.4 5-2.2.8 0 1.5.7 2.3.4a3 3 0 0 0 2.9-2.4c.3-2 1.8-2 3.1-2.3 3.7-1.8 2.8-6.7 1.1-9.4.3-.9.9-1.4.9-2.1.8-1 2.3.1 3.4.3l1.7-.2c0 .7-.7.7-1.1 1.1l-1 1.6c-2.2.6-2.6 3-1.4 4.6q.2 2.8 2.8 2.3c1.1 0 1.1-1.3 1.1-2.3.2.3.7 1.2.7 1.8 1.3 2.3 2 4.3 4.6 5.7.8.4 0 1.3.8 1.8q-.4 1.1-1 1.4c-1 .7-2.4 4-.7 5.5 1.9 1.5 2.9 1 5 .4 2.6 2 6.3.7 7.7-1.8q.8.9 1.8.6c-.1 2-4.7 2.9-1.4 6 .9 1 .9 1.3 1.3 2.8.6 1.6 2.8 1.8 4 1.4 1.4-1.4 2-2.5 3.7-1.4 1.8.7 4 .3 5-2.3.4-1.5.4-2.1 2-2.7 5 1.2 9.5-.8 14-2.4-1.3 1.2-1.8 1.2-1.8 3 0 .6.7 2 .2 2.1-1.1.8-1.8 2.3-1.1 3.7 1.1 1.7 2.7 1.7 4.4 1.5.7-.5.7-.7 1.6-1.1.8.1.7.6 1.8 1.2 2.6.1 2.7-.3 4.1-1.9 0 0-.5.8-.1 1.5 1.3 1.6 2.3.8.6 3-.7 2.3.3 3 2.4 3 .4.7.1 1.7.7 2.6 1.8 1.7 4.5 1 5.5-1.2.5-.7 1.6.2 2.7-.3 3-1.4-.2-4.5 2.9-5.5 2.7-1 1.7-2.8 1.1-5 .4-2 3.3-.7 3.1-4 5.4 2.1 10.1 4.3 15.5 3 1.7-.2 2.7-.3 3.9-.6q-.7.9-2.4 1.6c-5.9 3-11.1 7.3-17.2 10-1.7.4-3-.3-4 2q-.3.9 0 1.4c0 1 4.8 3 7.8 4.6q1.3 1.3 2.6 1.5 1.8-.1 1.7-2c.5-.5 1-.6 1.7-1.3 1.2-1 2.7-2.4 4.2-3.2 3.2-.4 3.9-2 5.1-4.2.2-.8 1.6-2.2 2.6-3.1q2.6-2.9 5.7-5.4c.8.5 2.1 0 2.5 1.2 1 1.2.8 1.2 2.5 1h.2l3.5 3.3c2 2 4.2 3.1 5 6.2.2.6 1 1.1 1.6 1.7 2.5.6 6.3 3.3 7.1 5.5-.7.3-.1 2.6 2 1.6 1-.4 2.9-1 4.6-1q.9 0 2.7-.7c2.1-.7 4.2.4 5.5-2q.9-1.6-2.1-2.9c-1.1-.1-1.1-.4-2.1-1q-3.4-1.5-6.7-3.5c-2.6-1.7-5-3.7-7.4-5.2l-8.3-5.6 1-1q2.9-.9 2-2.8l-.7-.5c1.6-1.9 3.6-.7 5.3.4a13 13 0 0 0 9.4 1.9q3.7-1.4 4.4-2.6c-.3 1.6.1 4 2.1 4.4 3 0 .7 3 1.1 4.5.2 1.4 1.3 1.8 2.6 2.3 1.7 2.2-.7 4.5 3.3 5.2 1.8 0 1.5 0 2.4 1.3 1.8 1.7 5 1 5.1-2 .6-.8 1.6-.7 2.3-1 2.4-2.4-1.7-3.5.3-4.8q1-.5.5-2.3c1.4 1.8 2.3 2 4.6 1.5 1.8-1.5 1.1-.4 3.1.3 1.3 0 1.8 0 3-.5 1.3-.8 1.8-2.4 1.3-3.2l-1.5-1.8c2-2.1.2-4.3-1.2-4.4 0-.6 5.6 1.3 6 1.6q2.9 1 5.2 1c1.1 0 1.6-1 3.3-.3 1 .7 1 1.5 1.5 2.8 1 2.2 3.9 3 6.1 1.4 1.5.4 1.5 1.9 3 2.1 4.8.8 2.9-3.5 5.3-4.2 3.2-3.2-2.2-5.5-1.9-6 1.6-.2 1.9-1.3 2.9.8 1.8 2 4.2 1.3 6.6.2 4.2 3.6 8.3-3 4.7-5.6-1.7-1 .8-2.6-1.5-3.5 3.5-1.1 5.2-4.6 6-7.5.2 1.2.4 2.3 1.4 2.3 1.2.4 2.8-.1 2.8-2.3 1.1-1.3.3-4-.7-4.3l-.6-.3c.3-1.9-.5-1.6-2.2-2.1v-.6q1.5.2 3.4-.1c.1 0 .1-.2 1.4-.2 0 .7.8 1.4.8 2.3-1.4 2.9-1.8 5.3 0 8.4 1.5 2.3 4 0 4.4 3 0 1.8 2 3 3.5 3 .8-.6 1-.6 1.8-.3q2.5 3.3 5.5 1.8 1.5-.9 2.6-.2c4 1.2 6.5-4 2.7-5.4 0-1.6 1.4-3.2-.8-4-.5-.2-2.6-.2-2.6-.3.7-.7 1-.7 1-1.8 1.4-1.5 2.4.6 4.4 0 1.4-.8 1.4-.8 1.7-2.5l2.1-.7c1.9-.8 1.7-2.3 1.6-3.1-.1-2-2.1-2-3.4-2.9-.7-2.4-1.3-4.3-4.4-2.8l-1.2.3c-.8-.7 0-2-1.5-2.7-2.4-1.8-5 1.9-6.1 0-2-5.2-8.3 1.7-10 3.6l-1 1.4-.8 1.3c-1.7 0-3 .6-4.6 0 1.2-1.3 2.9-2.8 4.1-4.3 1 .7 4.6-.3 4.7-2 .5-.3 0-.6.5-1 2.5-2.7-1-5.4-4-2.7-2-.8-3.1 3.7-2 4.6-1.1.8-1.7 1.1-2.1 2.2 0-1.1.4-2.6-.9-3.1-.4-1.7-2.3-3.3-4.3-1.5-.1-.2-1-2-1.5-2.6-1.7-2.8-2.7-7.4-4.9-10.4a37 37 0 0 0-4.8-6.8q2.2-2 4.6-3.7.7-.7 1.2-1.5h.5c-.6 2.3-4.2 9.7 1.4 9.7q.6 0 1 .3c0 1.6-.7 4.8 2 5.5.8.7 1.5-1 2.4-.5 1.3 1.5 1.3 4.6 5 3.4q.4-1 1.5-1.1c.2.2 1.2 1.5 2.4 1.7 2 0 4-1 3.7-3.2-1-2-.5-1.4.8-3 1-1.3.4-3-1.5-3.9l-1.8-.7v-.4c1.8-1 2.5-3.6-.2-4.3a17 17 0 0 0-3.4-1.5c1-1 0-1.6.3-2 .9-.8 1.3-.2 2.1.2 2 1.4 4.7 1 4.9-1.8q-.2-.8.1-1.3c2.7-.6 4.1 0 4.1-3.3-.4-1.7.6-2 1.7-2.6.8-.4 1.5-2.3 1-2.8-1-2.6-3.8-1-4.6-1.7l-2.3-1.7c-1.6 0-2.3 0-3 1.5-.4.2-1.9 1.8-1.9.5 1.8-1.2 2.5-4.3 0-5.3-2-.4 2.5-3.5-1.5-5.1q-1.5-.2-3 1.3c-.1.4-.7 1-1.4.3-1.9-1.2-3.3-.1-4.3 1-.3.9-.3 3-1.5 2.5-1.6-1.6-3.7.4-4.5 1.8v1c-.4 1.3 0 2-1 2.9l-1 1q0-.8.2-1c.7-1.5.8-3 1.7-4.7.3-1 .7-3 .1-3.7 1.2.3 3.2.2 3.9-1 2.1.9 4.2-.7 5.4-2.5 1.3-2.7-1.9-5-4.3-3.1-1.8 0-3.1 3-1.8 4.6-1 1-1.5 1.2-3.2 1.2 0-1-.7-1.9-.7-3a10 10 0 0 1 6.7-8.7c2.4 2 5.7 6.8 9.5 4.8l1.7-1c2.7-1.3 3.9 3.5 7.3.2.8-1.2.4-4 2.5-1.9 1.5.7 3.6.7 4.3-1.3.3-1.1-.7-1.5-.7-2.6 1.3-1 3.3 0 4-1.6 1.1-1.7 0-3.8-2-4.2a3 3 0 0 1-1.7-1.1c-.3-2.6-2.6-2.3-5-1.6-.6.4-2.7.4-2.7-.7 1-.4 1-1.8.3-2.8q.2-1 1.4-1.3c1.6-2.5-1.7-3.6-1-4.3.9-1 1-1.2 1-2.1 0-2.2-2.5-3.3-3.8-2.2-1.7.7-2.2 3-3.9 1.3q-2.8-1-4.5 2.2c-.4.4-.1 1-1.1 1.5-2-.1-3.2-.3-4.2 1.6-.4 1-.1 1.5-.1 2-1.9.7-2.1 2.2-2.3 4-.1.2-.7 2-1 1.7-1.1-2.4 1.3-4.6 2-6.7.4-1.1.4-2.9 1.4-4q.1-1 .9-3l.3-1.3q.6.6 1.4 0c.8 2 5.1 1.2 4.5.4 1.9-.2 2.3-2.8.6-3.6-.4-.4-1.8-.4-2.4.1-1.7-.5-3 .4-3 2.2l-1.1.1c0-1.2-.3-2.6.3-3.5.7-1.2.8-1.4 1.8-2.4h2.3c2.1 2.5 5 5.8 8.8 4.3 1.6-1 1.4-3.1 4-2.2 1.7 1 4.5 1 4.5-2.1-.1-.9-.1-1.5 1.3-1.3 2.1.7 3.1-.6 3.1-2.4 0-1 .3-1 1.6-1.2 1.8-.4 2.7-2.4 1.8-4.5-1.2-2.5-3-1.3-5.2-1.6-.3-1.7-.3-2-2.2-2.4-.5 0-1.5.1-2 .7-1.8 1.2-1.2-.6-2.4-1l.7-1.2c.5-1.5-.7-2.6-1.7-3.3 0-.8 1.5-1.3 1.2-2.8 0-3.1-5.4-3.6-6-1-.3.9-1.3.6-1.7 0-2.6-.5-2.4 2-3 3.8l-.7.7c-4.8.2-2.1 3.3-4.5 5.4-3.2-.4-3.9 4.2-3.2 6.8l.3 1.7c1 2.7 1.9 2.7.6 4.8l-.6.8c-1.7-4.2-5.7-7.7-7.7-12v-.3l.2-.2.7.2q.5 2 3.1 2.1c.9-.9 3.7-.4 3.4-2.8-.1-1.7-2.1-1-2.5-2-2 0-3.4 0-4 2-1.9 0-1.9-1.7-3-3 0-1 1.1-1.5 1.7-1.9 1.3 0 3.6.4 4.7 0 1.1 2.2 4.3 1.4 6 0 1.3-1.6 1.3-2.4 4.2-2.7 1.5-.2.9-2.5 1.6-3.5.7-.7 2-.7 2.6-1.5.8-1 1.2-2.5.1-3.7-.6-.9-3-.6-4.3-1q-.1-.9-.8-1.6c.1-1.1 1.1-1.5 1.7-2.3.8-2.9-2.7-3.7-4.8-3.3-1 .6-.9 1.5-2 0-3.7-1.2-3.3 4.5-5.7 3.1a5.4 5.4 0 0 0-.7-7v-.1h1.7c2.5 2.6 4.5 4 7.8 1 2.3-.2 3.3 2.5 5.5 1.1.5-.5 1-.8 1-1.7 1-1 2.9-1.4 4.2-2.3 1-1.5.7-3.1-.5-3.8-1.4-.8-1.5-.8-2-1.7-1-2-2.7-2-4.5-1.3 0-.1.6-.4.7-.8 1.1-1.9.1-2.5-.7-3.9 0-1 .4-1 1.1-1.8 1.7-1.7 1.2-4.8-1.8-4.8-.7.1-1.7.4-2 .8-1.1.3-1.1-.8-2-1.2-2.1-1.1-3 .5-4 1.9-.7 1-1.3-.3-2.2-.3-3-.7-3.3 3.5-4.9 4.7-.6.7-2.3.7-3 .7-3 .7-2.1 6.9-2.1 9-.6 0-2.1 0-2.4-.5l.3-1.2c.3-.8 1-2 1.1-3 .7-.8.7-3.6.7-4.6s-.3-3.2 1.4-3.2c.2.4 1.3 1.6 2.2 1.2 2.2.5 4-2 2.1-4-1.4-1.8-4.5-.3-4.5 2q-.6 0-.9.4h-.1c-.5-1.6 0-2.3.8-3.7 2.3-1.7 6.7-5.8 4.8-9.2-.4-1.2-1-1.2-1-2q2.2-3.4-1-5.4c-1-1.6 1-2.4-1.5-4.3-1.9-.4-2.6-.4-2.6-2-1.1-2.6-5-2.6-6-.2-.5 1.1 0 2-.6 2.6-1 1-1.9 2-1.5 3.4-1.1-.2-1.5.1-2.1.4-1.1.1-1.1-1-2.3-1.1-2.2-.7-3.5.7-3.4 2.7 0 .8 1.3 1.6 1 1.9-1.1 1.9 0 3 1.3 4.2 0 1-.2 3 1.6 3.9.8.8 2.2 1 2.7 1 1.2 3.3 5 3.2 7.5 4.7q.7 1.3.7 3c-.1 2.8 0 8.6-2.3 10.9l-1.3-2.3c0-.5.8-.7 1.2-1.2 1.4-1.5 1.3-4 .4-5.7-.8-1.5-2.4-1.8-2.7-3 .4-1.3-.4-2.8-1.7-3.3-1.1-.6-3.3-.5-3.3-2.2-.4-1.2-2.7-1.2-3.8-1.2-.6-.8-1.3-1.8-2.3-2a3 3 0 0 0-2.4.2c-1.4.6-1.6 2.3-.8 3.8-1.8 1.4-1 3.8.8 4.7 0 1-.8 1-.8 1.4q.2 2.3 1.8 2.8c-.4 1.1-2.6.4-3.4 1-2.7 1.2-.6 3.3-.6 5-.1.5-.5 2 0 2.4 1.3 1.9 3 1.2 3.9 2.2.4.6-.2 1.5.4 2.3 1.1.6 1.4.8 2.1.8.9.1 2-1.4 2.9 0-2 .8-1.6 3.8-2.2 5.2-.8 3-3 6.8-5 9.2a6 6 0 0 0-.7 2.2c-.5 3.4 4 8.5 6 11 .9.6 4.8 6.4 4.3 7.4-.2 0-1-.1-1-.7 0-2.2-2.2-3.8-4.3-2.2-.3 1.3-1-.2-1.7-.4-.6-1.4-3.5-.9-4 .4-.7.9-.3 1.3-.3 2.2.2.7.8 1 .5 1.6-.9.7-.9 1.7-.9 2.3.4 1.5 2.3 1.4 2.3 2.2.6 1-.7 1.5-.1 3q.9.9 1 1.2-.7 0-1.6.3c-1.7.6-1.6 3.3-.3 3.5l.9.6c1.5-.2 0 3.4 3.2 4.1 1.7.5 1.9-.8 3.1-.3.9.6 0 2.2 1.6 2.5q1.1.9 2.4.1c.5-.1.6-.8 1.6-1q1-.1 1.1.5c1.6.9 3.2 1.3 4.6 0 .7 0 1.3-1.1 2-1.5l-1.7 3.2c-.8 1.4-1.2 2.4-2.2 3.5-.4-.8-.4-1-1.4-1.3-.7-.3-1.8 0-2.3.5-1.5.8-1.1-.7-2.1-1.7-.6-1.3-3.6-1.7-4.5 0q-.3 0-1.2-.6c-2.1-1.7-5.4 1-4.5 3.4.3 1.9 2.1 2.3 1.4 3.4-1.4 1.3 0 2.5.7 3.5q2.1.4 2.1.7c-.7.5-.7 1-1.1 1.6-1.1-.3-2.3-.4-3.3.8-1 1-.8 3 .5 3.5v1.1c-1 1 0 3.2 1.5 3.7l-.7.6c-2.4 2-3.4 3.7-3.7 6.4-.3 1.6.2 4.6 1.9 6v5c0 1.7 0 4.3-.5 5.3-.3 1.3-1.2 3.1-.8 4.9 0 2.4 2.3 5.7 3.7 7.7 1.1 1.8 3.5 4.9 3.8 5.7 1.4 2.7 3.3 6.2 4.7 8 .4.6-5.5 5-5.8 5.5-3.3 1.9-4.1 6.5-7.8 7.4 0-.5-.3-1 .2-1 .9-.3 1.3-2 1.2-3.4-.9-.7-.9-1.6-2-2.6-.4-.4-1.7-.8-3 .1-1 1-1 5.7.9 6.1q.7.4 1.5.2.3.9-.1 1.2c-2.9.4-6.3 1.2-8.7 2.5.1-.9-.3-2-.8-2-1.5-.5-.2-1-.2-2.3 0-2.1-1.7-3.9-4-3.4-2 .6-1.5 2-3 3.2-.5 0-1-1.1-2.7-.2-2.4 1-.7 3.3-1.5 4.6-.4-1-1.4-.8-1.4-1.9.2-1.9-.3-2.3-1.7-2.7-1.7-.3-2.3 1.1-3.7 2-2.9 0-5.3 1.7-4.2 4.4-1-1-2-1.5-3-2.6-.8-.1-1-1-1.8-1-1.1-1.7-2.4-1.2-4.3-1.7-2-.1-4.4-1.2-6.6-1.6-4.3-.6-5.9 7.5-7.1 9.6a8 8 0 0 1-3.3 4.6c-2.1-1.1-3-5-6.3-3.7l-3.2 1.1c-.9.3-.9 1.4-1.5 1.8a9 9 0 0 0-3.2 0c-.6 0-.7.5-1 .5-4.1-2.7-6.3-16.9-12.7-14.7-2.7.1-7-2-9 .4-1.8 1.6-3.5 4.2-3.2 7.1-1.6 1-2-1.5-2.4-2.4-.7-1.2-2.3-1.9-3.7-1.9m-62.6-70.7q-1-.7-2.3-1 .7-.5 1.3-1.2.7.9 1 2.2M56.7 234c.6.8 1.8 2.3 2.3 3.3l.6.9-3.4-.3-1.7.1a7 7 0 0 1 1.3-3.7l.5-.7q.3.1.4.4m176-113.3q.5.6.6 1.3l1.8 3c0 .2.6-.4.6-.7.3 0-.6-1.3-.6-2.6q-.5-.7-.6-1.7-1 .9-1.8.7m-183.6 0-.6 1.3q-1 1.3-1.8 3s-.6-.4-.6-.7c0-.8.6-1.3.8-2.6l.6-1.7c0 .7 1 .7 1.6.7m8.2 121.9q-1.3.5-1.5 1.5s-.3.5-.6.5c-.6 0-.6-.8-.6-.8q-.5-.5-.4-1.2zm7.8.3c.7.2 1.9.9 2.9 1.2q1.2.7 2.7 1.3l.3.4c-.9.6-2.2-.4-3-.6-2.2-.6-2.9-1.1-4.3-1.8-.3 0-1.3-.5-1.8-.5l-1-.3c1.8-.3 2.1 0 4.2.3m159.4-.3a6 6 0 0 1 1.8 1.5s0 .5.6.5c.3 0 .3-.8.3-.8q.3-.5.2-1.2zm-8.3.5q-.6.6-1.7.7c-1 .5-3.1 1.6-4.3 1.6v.4c.9.6 2.7-.4 3.9-.7 1.8-.8 4-1.3 5.5-2.2l1.2-.3h-.3.3c-1.7-.6-2.5 0-4.6.5m-139.7 4.3c1.7 1 4.6 2 6 2.5-.9.5-3.3.8-4.3 1-1.1.3-4.5 1.3-5.1.6 0 0-1.6-2-.9-2.6.9-.2 2.2-.5 2.7-1.7q1 0 1.6.2m129 0c-.8.7-4.5 2-6.2 2.5 1.1.3 4.3.8 4.8.8.9.3 4 1.5 4.3.8.3-.3 1.8-2 1.4-2.6-1.1 0-2.1-.2-2.7-1.7q-.8 0-1.5.2m26-60q-.2.9-1.2 1.6-2.7 3.2-5.8 6.4c-.6 1-2.2 2-.9 3.2.3 1.8 1.1 2.9 2.1 4.6q1 1.5 2.2 2.3c.5-.8.5-1.3.8-2.5 0-1.5 0-1.8.3-2.9q.2-.3.3-1c.3-2-.6-2.8-.9-4.5l.6-2q.2-.4 1-.3c.3-.3.6-.8.9-.5 0 .2.5.5.5.8.7-1.8 1.6-3.8 1.9-6.1v-1.8q-.4 1.4-1.9 2.7m-181.1 0q.1.9 1 1.6 2.9 3.6 6 6.4c.5 1.2 2 2 1 3.2-.5 1.8-1.4 2.9-2.4 4.4l-1.8 2.5c-.3-.8-.3-1.3-.9-2.5l-.2-2.6c0-.5-.6-1.5-.6-1.8-.4-1.7.6-2.3.8-4l-.2-2c-.3-.3-1-.3-1.3-.3-.3-.3-.3-.8-.6-.5q-.6.3-.8.8l-1.9-6.1v-1.8c.6 1 .9 1.8 1.9 2.7M235 196v1.7l-.7 4.6c-1 1.6-1.6 4.4-1.8 5.8l-.2.8c.4 0 .4-.8.7-.8l3-2.5 1.4-1.2c-.3-.7-.4-.7-.7-1 .3-1.7.3-2.6-.7-3.7q0-1.5-.4-2.4c0-.3.4-1.8-.6-1.3m-74.6 59.5c-.6.6-1.6 1-1.6 1.2a11 11 0 0 0 3.7-.4q.5-.5.6-1.5c-.3-.4-.1-.8-.6-1-.8.8-1.1 1-2.1 1.7" fill="#8a5a33" id="path5"/><path d="M119.6 250.4q.4 4.6-1.3 8.6l.3.2h.2q1.8-4 1.5-8.6-.4-.4-.7-.2z" fill="#e8edbb" stroke="#2c2c2b" stroke-width=".144" id="path6"/></g><g id="g10"><g fill-rule="evenodd" id="g9"><path d="M49.3 99.4c2.8 4 3.4 7 3.8 9.7.6 1-.3 9.2-2.1 7.7l-2.7 2.5c2.4-1.2-3.7-8-6.3-11.5-1-2-.7-4.7.7-6.1a8 8 0 0 1 6.6-2.3M70 210.2c2-5.5-3-11 .4-20.5 1.8-3.6-.4-7.8-3.9-10q-.4 0-.7.2l1.6 1.7c2.1 1.5 3.4 4.8 2 7.2-.7 1-1.9 2-2.7 2.8-2.1 2.5-5 4.4-6.1 7.3q-1 2.6-2.6 4.8c-2.5 3.6-6.2 6.5-9 10-2.8 3.3-5 8.6-6.5 12.7l-3.1 6c-1 1.5-2.8 4-3.3 6-.8 3.1-.7 5.5.2 8.3s2.8 6.4 4.4 6.4c2.1-3.2 4.4-.9 5.2-2.4 2.2-6.2 8.3-3.8 8-4.5-5.8-7 9.4-26.3 13.2-32.4 1-1.8 2.1-1.6 2.9-3.6M84.6 263c-4-.8-13.5 4-14.1 2.3-1.6-4 5.7-8.6 3.1-12.6 2.4.4 4.4.3 9.4-1.3 1.1-.3 3.3 10 1.6 11.6M62.8 104l-2-2.1c.7.8-.5 4.8-.4 5.5-.9 5.7-6 10.3-10.2 16.4a137 137 0 0 0-13.4 21.7c1.3 11.4 4.8 3.6 3.7 20.9-.7 2.1.7 6.6 2.4 8l-.7-2.6c-3.8-15 12.8-29.2 15.5-37.5 4.5-6.3 8.8-12 11.2-16 .4-2.9-5.8-9-6-14.3M53 161.5c1 3.8-4.1 4-5.7 6.5-.1.5-.8 5.8-1.1 5.5C46 173 43 163 48.6 156l.6-.9a16 16 0 0 1 3.8 6.5m14.6 27.3c0 .3-7.6 6.9-7.5 7.2l-.1.4q-.7-.2-1.5-1.1c-2.4-2.9-6.8-7-9-10.3-.2-.4 14.9-4 14.7-4.3.6-.7 5.7 4 3.4 8.1M55.1 97.6l4.3 3.5v2.4l-.7 4.3-2.1 5.7-.8-10-1-3.2s.2-3 .3-2.7m114.5 147.3c.1.1-.3.1-.3.1-.6.5-4 2.2-6.5 7 1 1.2 2.2 3 1 4.6q3.8-.2 8-.7c1.5-1.4 2.6-6.4 1-8.7-.4-1-2.2-2.5-3.2-2.3m28.4 5.8c-3.4 5.2.3 8-.7 11.9 4.8 1.3 11.4 3.9 13.7 2.4-4.7-6-2.9-10.8-3.9-12.3-3.7-.3-6-2-9-2m14.2-41c-3.7-3.8 3.4-11.2-1.1-20.3-1.7-3.6.7-7.8 4-10q.4 0 .7.2l-1.6 1.7c-8 6.5 4.6 12 6.8 17.3q1.1 2.6 2.5 4.8c3.8 5.1 9 8.7 11.9 14.2 2.4 4.8 4.1 10 7 14.7.7 1.5 2.7 4 3 6 1 3 .7 5.7 0 8.2-7.2 8.8-3.6 7.1-4.3 6.5-.3-.3-6-2-5.7-2.3 1.1-1.2-.6-5.8-7.2-4.4-.2 0-.6 0-.3-.2q2.1-3.1 1.5-6.4c.2-3-2.1-6.2-3.7-8.2-3-2.9-5-8.3-7-11.5q-1.6-2.9-4-6.4c-1.2-1.7-2-2-2.5-3.9m4.4-30c-2.4 2.6-4.8 5.1-4 6.8.5 2.3 7 6.6 9.2 9.4 1.5 0 7.8-8 8.6-9.6l.9-1.5c.1 0-14.7-5.4-14.7-5.1m11.7-17.4c1.1 5.4 7 1.3 7.1 10.4 2.4-8.1 1.4-11.2-3.3-17.9zm-5.3-60.5c-3.4 2.2 1.9 11.1 2.2 11.4h.3c0-3.4-.9-8 .8-11q.6-1 .6-2.3c-1.3 1.3-2.4 1.5-3.9 2m9.7-2.4c-1.3.5-2.4 2.8-2.8 4-1.9 4.8-1.9 8-1.2 10.5.7 2.7.3 4.3 4.6 6-1.2 0 3.7-8.9 6.4-10.9 1.4-2.7.8-6.2-.7-7.6a7 7 0 0 0-6.3-2m8.5 66.7c.9 2.1-.7 6.6-2.4 8l.7-2.6c1.7-5.5.4-10.9-2.8-15.9-2.9-3-5.4-6.6-8.1-10-3.1-4.6-4.9-9.6-7.3-14.4-.4-1.1-1.5-2.7-2.5-3.8-2.2-2.2-6.3-7-6.6-10a37 37 0 0 0 7.9-15.6c.8-.2 1.4 0 2-.4-.8 1-1.3 1.4-1.5 2.9 0 4.7 2.9 8.6 5.8 12.3 2 2.3 4.5 4.4 6 6.5 1.7 2.4 3.1 6 4.6 8.6.2.4 1 1.5 1.1 2 1.4 2 7 8.7 6.8 11.5 1.3 4-5 8.1-3.7 20.8m-130.6 89.8c-.9 2-1.6 8.3 0 9.4l.1-.2c-.3-.5 16.2 5.4 21.9 1.8 0-3.1-2.1-9.7.1-12.3-1-.1-.7-.7-1.3-1.2-2.4-3.5-3.5-6.8-5.5-10.4-2.1-5.2-7.1-1.8-12.2-3.5-1.6.6-3.4 3.3-3.1 7.8.1 2.3 1 6.5 0 8.6m32-4.1c-3 1.8-2.2 2.3-8.3 3.5-1 1.2-.6 3.2-.3 4.6-.7 1.7-1 7.1.6 8.2 2.8 0 2.7 2.9 8.5 3.1l.6.2c3.4-1.5 4-3.6 6.8-4.4q.5-.2.1-.5c-.5-2.2.7-4-.2-5.7-1.5-1.5-1.3-3-2.5-5.1-1-1.2-1.7-3-3.2-4q-.8-.4-2 0m16.1-10.9c-3.2 2.2-5 10.2-8.8 13.7.9.1 1 4 2.2 5.5 2.7-1.2 6.6-4.3 8.2-6.3q1.2-1.7 2.4-3.8l.9-1.5c2.2-3.6 3.8-4.2 5.4-4.9-2.9-1.8-10.5-.9-10.3-2.7m4 21.8c0 .1-8.2.5-8 .7 2.6.5 4.6 3 7.6 3.4 3.5.1 6.8-1.1 8-4.5-3.2 0-1.8.4-7.6.4" fill="#354990" id="path7"/><path d="M53.9 57.6c1.2 1.1 0 2.4 1 3.3.6.7 1 .3 1.3 1 .5.8.3 2-.3 2.6-.5 1.4 1 1.5 1.1 3q.1 1-.2 1.7l-.7 1.6q-.3.8-.2 1.2 1 .7 1.4 2c.2.8.5 1.6-.3 2.9-1.2 1.4-3.4 1.7-5 2.3-.5.2-1.4.5-1.6.2-.6-1 0-.8.8-1 1.4-.5 3.3-.7 4-1.6l.3-.3c.3-1.3 0 0-1.2.5-2 .9-2.8.4-4.4.6v-1.5c2.3-.1 3-3.1 4.3-3.6.6-.1 1.1 0 .5-.3q-.5 0-1.2.3c-1 .5-1.7 2-2.7 2.5q-.4.2-.9.2c-.3-1 0-2.3.1-2.8q.1-.7.6-1.2c1.3-1.3 2.7-3.7 4.7-4.1q.2 0 .2-.3-.7 0-2 .8c-1.2.6-2 1.9-3 2.7.5-1.8 0-4 .9-5.7q1-2 .8-4.3H52c-.4 2.8-1.8 4-2 6.3q-.6-2.2-1.6-4 0 .7.3 1.3.4 2.1 1.1 3.9c0 1.4-.2 2.2-.5 3.3l-.1.5q-.4 1.7-.2 3.5c-1.4-.7-1.6-2.7-2.4-4q-.3-.5-.6-.2.2 0 .5.6c.3.5.5 3.3 2.3 4.4l.2.4v2.6q0 .3-.2.2a20 20 0 0 1-3.6-4.1c-.7-1.3-.5-3.1 0-3.7.3-.6 1-1.3.7-2.2s-1.4-1.7-.9-3c.4-.7 1.3-.8 1.8-1.4q.8-.7.2-2 0-.7.3-1.3.5-.7 1.7-.5 1.5-.2 2-1.6-.2-1 .6-1.8 1-.5 2.2 0m14.6 18c.8 1.1-.4 1.8-.3 2.8q.8.6 1.2 1.4c0 1.5-.6 1.7-1.4 2.3q-.6.6-.3 1.2c.3.6.7.9.5 1.8-1 1.5-2.7.5-3.2 1.9-.2 1 .6 2.3-.4 3.3a8 8 0 0 1-4 2c-1.5.4-3.8.6-4.4.2-.3-.4.1-.4.2-.7A14 14 0 0 0 61 91c1.1-.4 1.7-.7 2.4-1.8q-.5.1-1.3.8-2.4 1.1-5.2 1.2c.7-.5.8-1.8 2-2q2.6-1.2 5.5-1.6v-.3c-2 0-3.8.7-5.5 1.1l-.5.2c1-1 1-2.8 2.7-3.4q2.1-.5 4.3-1.3l1.6.1-.4-.3c-1.7-.6-2.7.5-4.8.7l-1 .2c2-2.8 2.7-3.1 4.6-5q.8-.7 1.4-1.8-.3-.1-.4 0c-1.2 1.7-3 2.4-4.6 4.4 0-1.4 1.3-2.6 1.6-4L63 78c-.3 1.3-2.4 2.7-2 5a24 24 0 0 0-3 4v-.4q-.2-.9-.2-2.1l.2-2q0-.2-.2-.3-.8 3-.7 6-.2 1.2-1.1 1.8c-.4-.5-.2-1.2-.5-1.8q-.2 0-.3.2c0 .8-.2 1.7.5 2.4-.4 1-1 .1-1.2-.2a4 4 0 0 1-.3-4.3q1.5-1.1 2.2-2.5c.6-1 0-1.9.6-2.6 1.3-1.8 4.1-.2 4.6-2.8q.2-.9 1-1.3c1-.3 1.6.1 2.4-.3.9-.6 1.4-2.3 2.9-1.6zm-35.3 31.9c.1 0 .3.4.6.3 1.1.1 1.2-1.1 2.4-1 1.8.4 1.2 3.1 3 3.3.8.1 2.1-.7 2.3 0 .8.9 1 2.9 1.8 4.2.6.7 1.8.6 2 1.5a7 7 0 0 1 .9 3 8 8 0 0 1-1 4.5q-.4 0-.6-.6c-1.1-1.2-.2-4-.9-5.7q0-.7-.7-1.3c-.1.3.4 1 .4 2v3c-.7-.1-.7-1-1.2-1.4l-1.2-1.6c-1.1-1-.5-2.4-1-3.7v-2.5q-.2.1-.3.4c-.1.8-.2 1-.1 1.9v2.2q-1.2-1.6-2.8-3c-2.6-2.6-3.5-4-3.8-4 0 .8 3.7 4.7 4.3 5.4q0 .3-.3.2-.7-.2-1.6-.8c-1-.5-1.3-.5-2-.6l-.7.1c0 .3.3.1.5.2q.7 0 1.7.6c1 .5 2.2 1.6 3 1.2.7.6 1.5 1.8 1.7 2l1.8 2.3.3.5c-1.3-.3-3.3 0-4.5-1l-1.2-1.2q-.2 0 0 .3a5 5 0 0 0 4.3 2.4c1 .3 2-.1 2.9 1.4l.2.4c-2.6-.1-5.5.5-6.9-1.4q-.2-1-1.1-1.4c-1.3-.3-2.5-1.1-2.4-2.5.5-1.9-1.5-2-2-3-.3-.6-.6-1.3 0-2 .1-.3.7-.7.6-1.4l-.3-.8q-.5-.4-.8-.9-.7-.5-.5-1.5.3-.7 1.1-.9c1.4-.1 1.8.9 2 .9m-11.8 11.3.8 1q.4.5 1.1.9c1.1.3 1.6-.6 2.4 0 .8 1 .2 2.6 1.4 3.5 1 .7 1.8.3 2.4.5 1.8.8.5 3.1 1.8 4.5.4.3.6.7 2 1 .7.2 1 1 1.3 1.4q.6 1.7.4 3.5-.2 2-1.5 3.4H33q-.7-2-2-4c.1-1 .4-2.4 0-3.4l-.6-1.4q0-.4-.2-.4c-.3 1.1 1 2.8.2 4.2h-.3q-1-2-2.4-3.8c-.4-.6-.2-1.5-.3-2.3-.3-1-.1-1.2-.3-2q0-.4-.2-.3l-.1 3.2-3.2-4-2.8-3.7h-.2l1.6 2.8q.9 1.6 2.2 2.9v.3c-1.3-.7-3.4-.5-4.7-2v.1l.3.5c1.3 1.5 2.8 1.2 4.4 2q1 .5 1.7 1.7l.6 1c.3.6 1 1.8 1.8 2.5q.3.5.1.5l-2.2-.8-1.3-.5-.7-.2a5 5 0 0 1-3-1.3c0-.1-.4-.3-.3-.1q1 1.6 3.5 2c1.7.8 3.7 1.3 5.2 2.3.6 1.4 1.7 2.6 2 4q-.6.6-1.9.5H29c-2.3 0-2.8-.2-3.8-.5-.7-.3-1-.5-1.6-1.4q-.6-1-.2-2c0-2-3-1.8-3.7-3.1q-.4-.6 0-1.7c.5-.6 1.1-1 .9-2q-.2-1-1.5-1.4-.6-.1-1-.8 0-1 .7-1.7 1-.3 1.3-1.3c.3-1.6-2-1.7-1.2-3.8q.4-.6 1.3-.7t1.3.4M70 133.6q.4.5 0 1.4-.7.4-.7 1.3l.2.5q.8.7.6 1.3c0 1.3-1.4 1-2 1.8q-.8 1-.5 1.5c.2 1.1 1 2.6-.2 3.2-.7.4-1.6.3-2.3.6q-1.3.5-1.8 1.8c.2 1.3-.6 2-1.2 2.8-1.2 1.2-3.7 1.4-5.3.7l-2-.9q0-.3.3-.6c1-.2 3 0 4.2.5q1 .1 2-.2l.7-.5-1.3.2c-1 .1-1.3-.2-2.2-.4q-1.2-.4-1.7-.3c0-.6.7-.6 1-.9l3-2.3h1.5c1.3-.3 1.6-.7 2.5-.7.4 0 1.3-.4 1.5-.7l-1.3.3h-1c-.8.2-1.7.6-2.3.3q0-.3.4-.6l2-2c.6-.5 3-.6 3-.7-.1-.4-1.8-.3-2.1-.2.1-.3.7-.8.7-1A16 16 0 0 0 68 136c-.4-.3-2.2 3.4-4.3 5q0-1.4.3-2.7l.7-2.6-.2-.1c-.4 1.2-.8 1.7-1.2 3s-.1 2.3-.9 3.6q-1.5 1.6-3.2 3l-1 .7c-.4-1.1.5-2.5.7-3.6q.3-.8 0-1.7 0-.4-.3-.3c.1 2.3-1.6 4.2-1 6.2q-1.9 1.5-3.8 2.6l-1.4.3c-.2 0-.7 0-.6-.4q1.4-1 2.6-2.7a48 48 0 0 0 5-9c.6-.6.8 0 1.7-.2 2.1 0 1.2-3.4 3.1-3.2.7 0 1 1.1 2.2 1s1.3-2 2.8-1.7q.5 0 .8.4m-1.7 25.6q.4.8.2 1.8c-.1 1.3-2.6 2.3-1.2 3.4 1 2-.8 2.5-2.4 2.9-.8.2-1.7 1.3-1 2.6q0 .9-.5 1.5c-1.3 1.3-3.4-.3-4.5 1.8l-.3 1c.3 4-7 2.6-9.4 2.8q.3-.9 1-1.5c.5-.8 1.8 0 2.6 0l2.3-.3h1.6v-.3c-.5 0-1.2-.4-1.8-.2q-2 .3-3.4-.4.5-1 1.7-2c1-.6 1.4-2.4 3.2-1.5 2 .5 3.3-.6 5-.3.3-.1-.2-.3-.3-.4-1-.3-1.7.2-2.5.3q-1.3-.2-2.4-.6c.6-1 1.4-1.5 2.3-2.3q2.3 0 3.8-.8c.6-.1 3-.2 3-1h-.1c-1.6.7-3.4.3-5 1h-.6c0-.4.6-.4.8-.8 1.2-1 1.7-2 3-2.8.7-.6 2.1-1.4 2.7-1.8-.7-.5-4.2 2-4.7 2.5l-.4.4c0-1.2 1.2-2 1.2-3.5l-1.8 2.7q-.7 1-1 2.1a61 61 0 0 0-5.9 5.3s-.2.3-.4.1q.2-1.2.7-2.4c.1-.9 1.2-2.5.9-3.3q-.9 1-1.5 2.8c-.7 1.6-.5 3.5-2 4.7-1.3 1.1-1.6 1.8-2.5 3.3-.2 0-.4.5-.7.4 0-3.2-1.6-8.5 2.3-10 2.2-.4 2.9-.5 4.1-2.4 0-1.6.4-3 2.3-2.8.9.3 1.6 1 2.6.5 1.4-.6.6-2 2.5-2.8q1.5 0 2.5 1c1.6.3 1-1.5 3.1-1.2zm-41 3.6q1 0 1.7-.2c.5-.2 1-1 2.2-.6 2.9 1.4 4.7 5 5.2 8-1.9.1-4-1.4-5-2.8-.8-1.1-3.7-4.6-3.7-3.2q2.2 2 3.7 4.3c-.5 1-2.7 0-5.4-.3q-2.2-.4-3.7-2l-3-1.4q-.5-.4-.8-.3c-.2.6 4 2.2 4.4 3.2l-2-.3-2.6-.2c-.5-.1-4.4-.1-6.1-.4 0 .6 2.2.7 2.6.7q2.4.1 5.3.5c1.6 0 3.5 1 4.9 1-1.3.5-4 3.2-5.5 2.4l-.2.1q.1.4.5.5c2.9.4 5.3-3.5 7.7-2.7 1.2.4 2.6.4 3.8.8-1.8.7-3.1 2-5.1 2.5v.4c2.3-.4 4-2 6-2.8a8 8 0 0 1 3.4 1.4c-.7 1-2.6 2.5-3.2 3-1.2 1.1-3.2 1.7-4.2.5-1.2-1-2-1.3-3.6-1-1.3.4-2.3 2.1-4 1-.9-.8-.3-2.1-1.5-2.6-1.8-1.2-3.2 1.3-4.7.8-1.4-1.1.3-2.3 0-3.2-.5-2.5-3.4-1.2-3.8-2.2-.9-1.2.7-2.2 2-2 2-.2 1.5-1.3 1.8-2.5q.6-1 1.6-.6 1.3.8 2.8 1c2.3.2 2.8-2.4 4.3-2.8 2-.3 2.2 2 4.2 2m-3.1 29.6q.6 1.6 2 2 1.3 0 1.9-.5.5-.8 1.5-1.3c1.3-.2 2 .6 2.5 1.4.4 1.3 2 2.2 3.2 1.8q.7-.3 1.7-.4c1.9 0 2 1.9 2.5 3.1l1.1 3.3v.1c-.9 0-1.5-.9-2.8-1.5-1-.6-1.9-.5-2.2-1.5-.5-1-.9-1.8-2.2-2.5-1-.7-1-1.3-1.7-1.4l.5.6.5.9c.6.7 1.5 1 1.8 1.8l.3.6-1.4-.4c-2.4-1-2.3-.7-3.5-1-1.4-.1-1.8-1.8-3.2-2-.7-.5-1.8-.3-2.3-1.1l-.6-.8c-.2.4.4 1 .7 1.4l.7.4 1 .5q.8.3 1.2 1l-1.7-.4-1.9-.2-1.7-.4c-.3-.2-.5 0-1.2-.3l-2-.9q.6.7 1.6 1.2c1 .3 1.7.9 5 1.1q2.3.7 4.5 1.6l-.1.3q-.5 0-.8.3c-1.2.3-3 1.1-4.3 1.4l.3.1 2.7-.6 2.1-.6a4 4 0 0 1 3-.3l2 .8.9.4 1.1.7q.3 0 .3.3c-1.2.3-3 1.4-4 2-.4.2-1 .4-.9.6.7 0 3.3-1.4 4.3-1.7q.7-.4 1.3-.3l1.8.6c0 .7-.7 1-.9 1.1-2 1.6-4.8 2-7.2 3l-.3.1c-.5-.4-.2-1.3-.3-1.9a2 2 0 0 0-1-1.3q-.8-.6-2-.2c-1.2.2-1.5 1.9-3 1.6-1.3-.6-.3-2.5-.9-3.4l-.2-.4q-.8-.6-2-.5c-.8 0-1.6.2-2-.4-.4-.8.2-1.4 0-2.2q-.3-1.5-2-2.2c-.4-.3-1-.6-.8-1.4q.2-.6.9-.8c1.3 0 3 .3 3.9-.6.3-.4.3-.7 1-1q.8-.4 1.3.3M4.9 242q-.7-.4-.6-1.4 0-.6.7-1c3.3-.5 2.2-3 3.2-3.5.8-.5 2.1.3 3.3.2a2 2 0 0 0 1.8-1.5c-.2-3 2.7-1 3.9-.3 2.3.7 3.1-1.4 3.6-2.3 1.6-1.3 6.1 3.5 7 5.2H27c-1-.8-4-3.5-5.3-3.9-.2.5 3.4 2.8 3.7 3.6l-6.8-.1c-1.6.4-4.5-1.7-4.8-1.5.6 1.2 2.5 1.1 2.3 2.2-4 0-7.2 1.7-10.3 3.3 1.7.2 4.8-2.1 7.2-2.1-1 .8-.9 2.3-1.7 3-.3.8-1.7 1-1 1.1 3.3-.8 1.4-4.5 6.4-4.8l2.3-.4h3.7l-3.6 4.7q-.7 1-2 1.4c0 .4.4.2.7.3 4.1-1.7 5-8.3 9-5.7-.6.2-3.7 3.6-3.7 3.7 1.9.2 5-6.2 6.2-2.2-1.2 2.2-3.7 6.7-6.4 6.6-1.5 0-2.3-.8-3-1.5-1.6-1-3.2 2.1-5 2-1.2-.1-1.5-1.3-2-2.2-1.6-2-3.3.6-4.5 0-1-1.9.1-2.7-3.4-2.9m55.6 2.3c.6.4 6.8 2.6 7.2 2.6 0 0-4 1.4-4.2 1.6a16 16 0 0 1-6.6-1.2c-.1 0-.5-.4-.3 0 1 1.4 4 1.4 4.4 2-.4.6-2 1-2.5 1.4-1 .2-1.4-.2-2.6 0-1.9.2-3.4.4-4.4-.5l-.3.1c1.1 1.6 3.4 1 5.5 1.2.1.4-2.2 1-3.7 2a16 16 0 0 0-3.2 2.3q-1 .7-1.8 1h-3.9l.3.3 2.8.4s-3.1 2.2-3.7 3.1v.5c.7-.5 7.8-5.9 8.3-5.2-.8 1.2-1 3.2-2 4l-.8.7c.4.2.5-.2.8-.3 2-1 3.2-5.6 3.3-5.6l1.4-1 4.8-2.4c1-.4 3.5-2 4.9-2-.2 2.3-2.8 4.6-2.5 6.9.6-2 2.6-4 3-6s2.6-1.9 3.5-2.3c2.8-.5 1 2.4.6 3.7-.4 1.2-3 5.6-5.5 6.3-1.3.4-4.3-1.1-5 .2-1.6 1.1-1.3 3.4-4 3.2-.8.2-2.1-1-3.3-.1-.9.7-1.3 3-4.1 2.4-.7 0-2-1.5-3.2-.7-1.6 1.3-3.4-.2-3.2-2 0-1.8 4-2.6 2.1-4.5q-.4-1.6.6-2.7c.7-1.3 4.5.3 4.6-2v-.7c-.1-2.3 2-3.6 4.5-2.5 3.5.6 3.5-4.8 7-4.6zm1-11q1.7 1.8 3.8 3.2c2.7 2.7 3.5 5.9 8.6 7l5.4 1.3 4 1.5 1 .4q.9.3 1 1 0 .3-.3.5l-2.6-1c-1.4-.4-2.1-.7-3.2-.9-.3.5 0 .4.7.6l3.8 1.7q.7.3.7.7l-.1.6-2-1c-2.8-1.2-4-1.3-6.2-2.6q-1.7-1-2.2.2c-.2.8-1.3 1.3-2 1.2 0-1.8 2.6-1.5.7-2.3l-.4-.2-4.8-2.2c-4.2-2-8.9-1.4-13.4-1.4q-.2-.8 0-1.7c3.1-1.3 7.6.6 11 1 .8 0 1.5.2 1.5-.3l-2-.7c-1.3-.8-2-5-4.5-5.1.9.6 3 3.3 2.1 4-.5 0-4.6-6-5.1-6.6l1.2-2q1.5 1.6 3.2 3.1m38.8 22.7c-1 .9-1.7 2.7-3.5 2.3q-1.2-.2-1.4-1.6c-.2-.7 1.9-6 .6-6.5-.1 0 .2 1-.6 3.7l-.5 1.5s-3.5-5.7-3-6.2l1-4.6q.5-.7.2-.8c-1 .2-1.3 4-1.7 4.4-.7-.5-2.4-7.5-3.4-7.2.5 1 1.6 4 1.8 5.3-.2.2-1.9-1.3-2.7-1.7-.6.3 3 2.6 3.1 3 .9 1.8 1.3 3.8 2.4 5.5.1 1.5-3.3-.4-4.3-2q-.7-.5-1-.5c-.3.3.1 0 .7 1a8 8 0 0 0 4.4 2.8c.9-.3 1.7 2.2 2.3 3.5l.1.7a9 9 0 0 1-3.9-.2q-2.4 0-3.6-1.7-.7-.6.2-2c0-2.2-3.4-2.8-2-4.9.3-.6 1.2-.6 1.5-1.3.5-.6-.2-1.7-.6-2.2-.6-.6-2-.9-1-2.2.4-.7 1.6-.2 1.5-1-.7-2.2-1-4.4 1.3-4.2 1.3 0 1.7 3.5 3.3 3 .4-.5 1.5-.5 2-.3 1.2.7 0 3 .9 3.8 1.5 1.9 3-.7 4 1.4.4 1.6-1.1 3.6.6 4.7 2 .6 2.7 3 1.3 4.5m3.2 1.1q.6.4 1 1.1l-5.1 2c-1.4.5-2.5 1.3-4 1.6-1.5-.4-5 0-5.9-.8q-.3-.4-.3-.1c1 1.6 4.6 1.1 4.8 1.7l-6 4.4c-1-.4-1.4.6-3.2 0l-.6-.2c.4 1 1.9.8 2.9.8 0 .7-2.6 2.9-3.2 3.4.4.8 7.3-5.9 8.1-6 0 1.4-1.3 3.4-1 4.6.3 0 .1-.7.6-1.6q.8-1.6 1.1-3.4c2.2-1.2 5.1-2.8 6.9-3.6.7-.2-.4 1.7-.5 2.1-.5 1.6-1.8 3.2-1.5 3.2 1-.2 3-5 3.2-5.7.3-.4 4-1.5 4.6-1.4 1.5 2.5-1.6 7-4.8 6.4-3 .6-3.8 7.5-7.4 4.4-1-.2-1.7.5-2 1-1.6 3.6-2.9 1.6-4.5 1q-.4-.3-1 0c-2.4 2.5-6.6.4-2.4-2.2.5-1 0-1.3-.6-1.9q-.5-1.4.2-2c.8-.6 2.4-.9 3.3-1.6q.5-.4.5-1.3c-1.3-3.3.7-4.1 4.2-3 4.2.7 8.5 0 10.7-3.8.8 0 1.3.7 1.9 1m16 .3-.9 1.6c.2 0 9.5 1.2 8.7 2.2-.5.2-3.9-.5-5-.8-1.2-.2-2.5-.8-4.1-.5l-.4 1q4.7-.1 9 1.3l2.6.6c0-.8-.6-.6-1.1-1v-.2h1.3c-.2-.5.5-1.6-.1-1.5-3.3-.4-6.5-2.7-10-2.7m-84-174.7c.5 1 1 2.2 2.6 2.2 1 0 1.2-1.2 2.3-.8 1.2.5 1.3 2.6 2.3 3.8.3.4 1 1.6 2.3 1.3.7 0 1.7 0 2.1.6 1.1 1.6 1 4.4 1 5.8l-.1.7-1.3-1q-1.5-1-1.9-2.8.3-1.5-.5-2.5c-.3-.2-.3-.6-.9-.4-.1.3.3.3.3.4q.7 1.4.6 3.2l-2.6-1.7c-1.1-.5-1.7-3-1.8-3.3-.3-.9-.9-2.2-1.2-2.3q-.2-.2-.3 0c.6 1.2.9 1.6 1 2.8 0 .5.3 1.2.5 1.3l-.8-.2c-1-.6-5.2-3.5-7-4q0-.2-.6-.2c-.3.1 0 .3 0 .4q3 1.3 5.2 3.4v.1a12 12 0 0 1-4.4.1q-.5-.1-.8.2l.4.2 1.7.3c1.6 0 3.4-.3 4.7.4q.7.2 1 .6 1.6.8 2.8 2c-.4.3-1 0-1.7.3-1.8.2-3.1 1.2-5 .4q-.1 0 0 .2c1.3 1.1 3.6.4 5.2 0a11 11 0 0 1 3 0c.4.2 1.8 1.3 2.4 2.3a10 10 0 0 1-4.3 2.2c-1.3.4-2 .5-3.1-.1-.9-.7-.3-1.3-1-1.7-1-1-3.6.2-4.4-1.4-.3-1-.2-2.2-1.3-2.6q-.8-.5-1.4-.6c-.9-.2-2-1-1.4-2.4 0-.8 1-.8 1-1.6.4-1.8-1.9-2.3-2.2-3.7-.1-.8-.3-1.3.6-1.9 1.8-.2 2.3 1.7 3.8 1.1q.5-.2.9-.8 0-.7.8-1 .9 0 1.4.7m17 12.9c.6 1 .3 2.6.3 3.4v2.5l-.2.3q-.2-.5-.8-.3c0 .6 1 1.5 1.3 2.2.1 1.9 1.3 2.6 1.5 4.6-.5 1.2.2 2.8-.2 4 0 .9-.3 2.5-.6 3.4l-.3 1.4 1.3-1.5c.5-.8.5-1 .5-2.3.3-1 0-2.6.2-3.8.1-1.5-.2-3.2-.4-4.3.1-.4-.7-2.2-1-4.6-.2-1.4 0-3-.6-4.5l-.7-.2q0-.3-.3-.3m-6.2 102.8q0 1 .5 1.9.2 1 .7 2.1c.6 1.8 1.5 4.3 1.9 6v.5c-.2 0-.7-.8-1-1l-2.9-2.1-1.1-1.4c.5-.2.7-.3 1-1.2-.1-1.4-.1-2 .2-3.1q.4-1.6.4-2.7zm2.1-44.8c0 .8-1.6 3.1-2 3.7q-2 3.1-2.3 6.7c-.2 2.5.1 7.2.8 9q.4 1.3 1 2.2c1.5 3.6 2.3 5.9 1.3 10q0 1.4.2 2.7.5 2 1.3 4.1l1 3q.8-.7 1.2-1.6c.2 0 0-.2.3-.2 0 .5.6.5.8.9 0 1.2-3.2 7.3-1.2 7.6q0-1.5.5-2.6l.1.6c-.1.5 1.2 5.7 1.5 6.9 0 1-1.7-2.2-1.8-2-.3.2.5 2.2 1 3.4q-.9.6-1.3 1.3c-.3-4-2.4-7.7-3.2-11.7-.9-3-.9-4.8-2-7.8l-.7-1.9c-1-3.2 1.2-6.2.2-9.4l-.9-3.2-.6-2.2a19 19 0 0 1-.1-11.9q.8-2.4 2.3-4.6l2-2.9.5-.4zM131 271.4l-5 4c-2 1.6-5.8 4.2-6.4 3.7.1-1.3 5.7-4 7-5.7.1-1.3-5.4 3-8 4.7-1.8 1.1-6.3 3.4-6.4 4 1.2.5 3.8-2 5.3-2.3.6.4-.2 1-1 1.3q-1.9 1.2-3.3 2.3.2 1 1 1.2c1.1.1 9.8-6.8 9.6-5.3 0 .3-4.3 3-5 3.6-.4.4-3.9 2.3-3.6 3q.2.4.5.4c3.2-3 7.4-5 10.3-8.3q2.5-2.7 5.3-5.3c1-.9 2-1.4 2.8-2.5 0-1-2.8 1-3.1 1.2m16.3-.6q2.6 2.1 5.5 4c2.3 1.6 5 3 6.8 4.7l4.8 3.7q1.8 1.5 4 2.2v.3c-.1.1-1 .3-1.6.2q-1.4-1.3-3-2.4c-1-.7-3.8-2.7-4.7-3.5l-2.9-2c-2.1-1.4-3.7-3-6-4.2-1.3-.7-2.1-2-3.6-2.3l-.4.4q1.1 1.4 2.6 2.4c1.7.6 2.7 1.9 4.1 2.8q1.5 1.4 2.8 3c1.8 2.6 4.8 3.6 7 5.8.8.4 2 3 4 1.9q1-.5 2.3-1.5.7-.4 1.6-.5c.6-.5-.6-.9-1.1-1.1-3-1.2-5.5-2.7-8.5-5-2-1.5-4-3.3-6.4-4.5l-6.7-4.6zm20-12.3-2.3.3c-3.5 0-6.2-.2-9.5 1q-.8.6-2.1 1l-1 .3h-.5v1c.8 0 3-.9 3.5-.6l2.5.2q3.5 0 6.5-.7h5q.8 0 1.4.2 1.9-.2 3.5-.8 0-1.2.6-2.1c-2.4-.1-5 .4-7.6.2m14.2-2.5c1 .9 1.7 2.7 3.4 2.3.8 0 1-1.2 1.5-1.6.2-.7-2-6-.7-6.5.2 0-.2 1 .6 3.7l.5 1.5s3.5-5.7 3-6.2l-1-4.6c-.2-.3-.7-.7-.2-.8 1 .2 1.3 4 1.7 4.4.8-.5 2.5-8 3.5-7.2-.5 1-1.6 4-1.8 5.3.1.2 1.8-1.3 2.6-1.7.7.3-2.9 2.6-3 3-1 1.8-1.4 3.7-2.4 5.3-.2 1.6 3.2-.3 4.3-1.9q.4-.3 1-.4c.3.5-.6.5-.7 1a8 8 0 0 1-4.4 3c-1-.4-1.6 2.2-2.2 3.4q-.3.3 0 .5c1 .2 2.7.3 3.6-.1q2.5 0 3.7-1.7c.2-.3.5-1.2-.2-2 0-2.2 3.4-2.8 2-4.9-.4-.6-1.2-.6-1.6-1.3-.4-.6.2-1.7.6-2.2.7-.6 2-.9 1-2.2-.3-.3-1.3-.4-1.5-1 .7-2.2 1.1-4.4-1.2-4.2-1 .8-1.7 3.5-3.4 3-.4-.5-1.4-.4-1.9-.3-1.3.7-.1 3-1 3.8-1.4 1.9-2.5-.9-4 1.4-.3 1.6 1.1 3.6-.5 4.7-2.1.6-2.8 3-1.3 4.5m-3.3 1.1q-.6.4-.9 1.1l5 2c1.5.5 2.5 1.3 4 1.6 1.6-.4 5.3 0 6-1l.3.1c0 1.4-4.6 1.1-4.8 1.7l5.9 4.4c.6 0 2.2.5 3.4-.2h.5c-.4 1-2 .8-3 .8 0 .7 2.7 2.9 3.2 3.3-.3.9-7.2-5.8-8-5.9.1 1.4 1.3 3.4 1 4.6-.3 0-.1-.7-.7-1.6-.3-1.2-1-2.1-1-3.4-2.3-1.2-5.2-2.8-7-3.6-.7-.2.5 1.4.6 2.1.2.9 1.8 3.2 1.5 3.2-1-.2-3.1-5-3.3-5.7-.2-.4-4-1.5-4.5-1.4-1.5 2.5 1.5 7 4.7 6.4 3 .6 3.8 7.5 7.4 4.4 1-.2 1.8.6 2 1 1.6 4.5 4 .4 5.6 1 1.7 2.4 6.5.4 2.3-2.2-.4-1 0-1.3.7-1.9 1.3-3.2-4.3-2.2-4-4.9 1.3-3.3-.8-4.1-4.2-3-4.2.7-8.5 0-10.8-3.8-.7 0-1.2.7-1.9 1m42.9-13c-.6.4-6.7 2.7-7.2 2.5 0 0 4 1.7 4.4 1.7 1 .4 5.6-.6 6.5-1.2l.2.1c-1 1.3-3.9 1.3-4.4 2 .7.8 2 1 2.6 1.3.8.2 1.2-.4 2.4-.2 1.8.3 3.6.7 4.6-.2h.2c-1 1.6-3.3 1.1-5.6 1.2 0 .4 2.5 1.1 3.8 2 1.5.9 2.4 1.4 3.3 2.3q1.2.9 1.7 1h4.1v.2c-1 .8-2 .4-3.3.6 0 .2 3.3 2.2 3.7 3.2v.5a38 38 0 0 0-8.2-5.5c.7 1.2.8 3.3 2 4.2q.6 0 .8.8l-.8-.5c-2-1-3.3-5.6-3.3-5.6a4 4 0 0 0-1.5-1l-4.7-2.3c-1-.5-3.4-2-4.7-2 0 2.1 2.6 4.5 2.3 6.7-.8-2-2.7-3.9-3-5.8s-2.6-1.8-3.6-2.4c-2.8-.5-.8 2.4-.5 3.6.5 1.4 3 5.8 5.5 6.5 1.2.3 4.3-1.1 5.1.3 1.3 1 1.2 3.2 3.9 3 .9.2 2.2-1.5 3.2 0 1 .8 1.5 3 4.2 2.3.6 0 2.1-1.3 3.3-.8 1.4 1.4 3.4 0 3.1-1.8.1-2-4-2.7-2.2-4.4q.6-1.8-.6-2.9c-.5-1.2-4.5.2-4.6-2v-.8c0-2.2-2-3.5-4.5-2.4-3.5.7-3.5-4.7-6.8-4.4zm56.7-2.5c.4-.4.7-.6.5-1.5q0-.4-.8-.7c-3.3-.6-2.1-3.2-2.9-3.7-1.5-.8-3.7 1.7-5.3-1.2.3-3.1-2.7-1-4-.2-2.2.6-3-1.7-3.6-2.5-1.5-1.2-6 3.6-6.8 5.2h.8c1.2-.8 4-3.5 5.5-3.8 0 .5-3.9 2.7-4.1 3.5h6.9c1.8.3 4.5-1.8 5-1.4-.7 1-2.6 1-2.4 2 4 0 7.2 1.7 10.3 3.3-1.7.3-4.8-2-7.2-2 .9.8.8 2.1 1.7 3 .4.5 1.7 1 1 1-3.3-.7-1.5-4.9-6.3-4.7-1-.3-1.3-.3-2.4-.4h-3.6l3.5 4.7a4 4 0 0 0 2.2 1.4c0 .5-.7.3-.8.3-2.5-.8-4-5.6-6.6-6.3-.2 0-1.2-.2-2.3.3.3.1 3.5 3.8 3.5 3.8-1.8.5-5-6-6.2-2 1.3 2 3.7 6.6 6.3 6.6 1.7 0 2.2-1 3-1.5 1.8-1 3.4 2.2 5 1.8 1.4 0 1.5-1.3 2-2 1.7-2 3.4.5 4.7 0 1-2-.3-2.7 3.4-3m-20.4-49.4c-.2.9-1 1.9-1.7 2q-1.4.2-2-.6l-1.5-1.3c-1.4-.1-2 .6-2.6 1.6-.5 1.3-2.1 2-3.2 1.7q-.8-.3-1.8-.4c-1.7 0-1.7 2-2.3 3.2l-1.2 3.3c.9 0 1.7-.9 2.8-1.5.8-.4 1.9-.4 2.1-1.4.7-1 1-2 2.2-2.6 1-.8.9-1.3 1.7-1.5.1.4-.3.5-.4.7l-.4.8c-.6.9-1.6 1.1-1.8 2l-.3.6 1.2-.4c2.4-1 2.4-.8 3.5-1 1.5-.3 2-2 3.2-2.2.8-.3 2-.3 2.3-1 .1-.1.5-.6.7-.6.2.5-.5.9-.7 1.1q-.3.4-.6.5l-1 .4q-1 .4-1.2 1l1.6-.3c.4-.4 1-.1 1.8-.2.8-.2 1.1-.2 1.8-.5l1.1-.2c1-.3 1.2-.7 2-.8l-1.4 1c-1.2.3-2 1-5.2 1.2a26 26 0 0 0-4.4 1.6v.4l1 .2q1.7.8 4 1.2v.4q-1.4-.1-2.8-.8c-1 0-1.3 0-2.2-.3-.6-.6-2.2-.7-2.9-.5-.3 0-1.3.8-2 .8l-.9.4-1.3.6-.1.5c1.3.2 3.3 1.2 4 2.1q1 0 .8.6c-.8 0-3.3-1.6-4.3-2l-1.4-.3c-.6.3-.8.7-1.6.8 0 .7.9 1 .9 1.2 2 1.4 4.6 2 7.2 3h.3c.4-.4.2-1.5.2-2q.2-.9 1-1.2c.8-.3 1.3 0 2 0 1.3.2 1.6 1.6 3.2 1.2 1.1-.3 0-2.3.6-3.2.4 0 0-.3.4-.5q.5-.7 2-.4c.9-.1 1.6.1 1.9-.4.5-.7 0-1.4 0-2.3 0-1.2.8-1.6 2.1-2.2.3-.3 1-.5.8-1.3 0-.5-.6-.8-.9-.8-1.2 0-3 .3-4-.7q-.2-.5-.8-1-.8-.2-1.5.3m-24.1-39c-.3 1.1 1.5 3.3 1.8 4 1.6 2.2 2.1 4.1 2.6 6.5.2 2.7-.2 7-1 9-1.8 3.4-3.4 8.8-2.3 12.3l-.1 2.7-1.3 4.2-1.1 3q-.6-.6-1.2-1.6l-.3-.2c0 .5-.5.5-.8 1 0 1 3.2 7.2 1.3 7.4q0-1.6-.3-2.6h-.4c.2.6-.9 4.5-1.1 5.6q1.6.3.5 3.4.7.4 1.3 1.2c.5-4 2.4-7.6 3-11.7 1-3 1-4.8 2.2-7.7l.8-2c.2-1 .5-1.5.3-2.7-.9-3.2-1.1-5.4 0-8.4a32 32 0 0 0 1.8-8.5l.2-.8c-.2-1.5-.5-4.8-1-6.2q-.7-2.3-2.4-4.7c-.7-1.1-1.4-1.7-2-3q-.1-.4-.5-.2m21.1 9.4q-1 .1-1.8-.1c-.4-.3-1-1-2.2-.8q-3.1 2-4.4 5.3-.2 1.4-.8 2.8l1.6-.1a8 8 0 0 0 3.5-2.7c.9-1 1.9-3 3.6-3.4q-2.3 2-3.5 4.6l.7.3q2.7-.2 4.8-.8c1-.2 1.5-.2 2.7-1.3l1.1-.8 2.8-1.2s.5-.5.8-.5q0 .6-.8 1c-.7.4-3.4 1.6-3.6 2.6l1.8-.5c1-.2 1.2-.2 2.6-.2 1.8-.2 3.9 0 5.7-.3l.6.1c0 .2-.5.2-.6.2q-1 .6-2 .5c-1.9 0-3.3.2-5.3.3s-3.3.7-4.8 1c1.2.6 2.6 2 3.6 2.4q.9.5 1.7 0v.2q-.1.4-.4.5c-2.4.4-3.6-1.8-5.7-2.5-.6-.2-1-.6-1.7-.2l-1.4.2q-1 .4-2 .3l-.6.2 1 .3c1.5 1 2.2 1.9 4.3 2.2v.5c-1.3-.2-2-.5-3-1q-.6-.7-1.3-1c-.8-.2-1.1-.7-2-1q-1.5.4-2.7 1.2l-.7.3c.8 1.5 2.8 3 3.5 3.5q.9.7 2.2 1 1-.1 2-1c1.2-1 2-1 3.2-1 1.4.3 2.5 2.7 4.3 1.5.6-.8 0-2.4 1.3-3 .5-.3 1.3 0 2.1 0 .8.3 1.7 1 2.6.6q.7-.2.5-1c0-.8-1-1-.8-2 .2-.6.3-1 1.4-1.6 1.4-.2 2.6 0 2.8-.6q.4-.5 0-1.2-.2-.9-2-.9-.5 0-1.2-.6-.7-.2-.6-1.2.1-.6-.1-1c-.1-.5-.6-.2-1.3-.2q-1.4.9-3.1 1c-2.1.2-2.6-2.2-4.2-3-1.8-.4-2.2 2-4.2 2.1m-41-3.7q-.6.7-.3 1.8c.2 1.2 1.2 1.2 1.5 2.2q0 .8-.2 1.5-.8.8 0 1.9c1 1.2 4 1.2 3.3 3.6q0 .9.3 1.5c1.2 1.3 2.6 0 3.6.7q.8 0 1.1 1 .2.3.3 1-.3 1.1.8 1.9 1.2.9 3 1c2.5.2 3.4-.3 5.9 0a5 5 0 0 0-1.3-1.8c-.3-.7-1.8 0-2.5 0-.3.2-1.9 0-2.3-.2l-1.8.2v-.5c.7 0 1.3-.4 2 0q2 .2 3.3-.7-.4-1-1.5-1.8c-1.2-.5-1.5-2.4-3.4-1.5-1.2.3-1.5 0-2.7 0q-1-.4-2.2-.4c-.3-.1.2-.3.2-.4 1-.2 1.9.3 2.5.3q1.5-.1 2.5-.5a6 6 0 0 0-2.5-2.2q-2-.1-3.7-.9c-.8-.2-1.4 0-2.3-.3l-.8-.8h.4q.9.4 2.4.5 1.2 0 2.4.6h.7c-.2-.3-.7-.3-.8-.8-1.2-1-1.8-2.1-2.9-2.9l-2.8-1.8h.5c1.6.8 3.1 1.4 4.2 2.6l.3.1q0-.7-.6-1.3a3 3 0 0 1-.7-2c.5.2.3.6.7.8.3.6 1.1 1.2 1.3 2q.7.8 1 2l2.4 2.2c1 .6 1.6 1.5 2.7 2.3q.6.3.7.9c.2 0 .3.3.5 0 0-.8-.5-1.5-.6-2.4q-.3-1.2-1.2-2.8l.2-.6c.8.9 1 1.7 1.6 3l.3 1.3c.4 1 .4 2 1 3l.5.5c1.5 1 1.8 2 2.9 3.4 0 0 0 .4.3.1 0-1 0-1.5.2-2.8v-.6c0-.9.6-2.3 0-3.3q-.1-1.3-1-2.2-.5-.7-1.4-1c-.8 0-1 0-1.7-.3-1.1-.1-1.8-1.3-2.4-2.3 0-.3 0-1.8-.5-2.4q-.7-.7-1.8-.6c-1 .4-1.6 1.2-2.6.8-1.3-.4-.8-2.3-2.8-3-1-.1-1.4.4-2.3 1-1.6.4-1-1.4-3.2-1.1zm-1.8-25.5c-.3.4 0 .6.2 1.4q.7.5.6 1.4l-.3.6q-.7.3-.6 1.2c-.2 1.2 1.4 1 2 1.8.8.7.6 1.4.4 1.5 0 1.1-.6 2.4.5 3.2.5.4 1.5.2 2.2.4.6.5 1.7 1 1.8 2-.1 1.2.6 2 1.2 2.8 1.2 1.1 3.8 1.2 5.2.6l2-.7v-.7a9 9 0 0 0-4.4.4q-1.3.4-2-.2c-.2 0-.8-.2-.8-.5l1.4.2q1.2 0 2.2-.3 1.1-.5 1.6-.5c0-.4-.8-.4-.9-.7q-1.6-1-3.1-2.4h-1.5c-1.1-.2-1.4-.5-2.3-.4-.4-.1-1.4-.6-1.6-1l1.3.2q.3.3 1 .2c.7.2 1.6.6 2.3.3 0-.5-.4-.3-.4-.6q-1-.8-2-2.2c-.6-.2-3-.4-3-.7 0-.4 1.5-.2 2-.2 0-.2-.6-.5-.7-.7a15 15 0 0 1-2-4c.2 0 2 3.4 4.1 5.2q0-1.5-.3-3-.6-1.4-.7-2.4.1-.4.2-.3l1.2 3.1c.4 1.4.1 2.8.9 4q1.4 1.3 3.2 2.5.2.7 1 .7c.2-1.1-.6-2.4-.8-3.4-.2-.8 0-1.2 0-2.1h.2c0 2.3 1.8 4.3 1.1 6.2q2 1.6 4 2.7.6 0 1.3.3c.1-.2.6-.2.6-.4q-1.5-1-2.5-3a33 33 0 0 1-5-8.9c-.8-.5-1.1 0-2-.2-2.4 0-1.1-3.2-2.7-3.2-1 0-1 1.5-2.3 1-1.5 0-1.5-2-2.9-1.7zm48.9-14.6q-.6.2-1 .8-.4.5-1.2 1c-1.1.4-1.4-.6-2.3 0-.8.9-.2 2.4-1.5 3.3-.9.8-1.6.6-2.3.8-1.8.7-.6 2.9-1.8 4.3q-.3 1-2.3 1c-.8.4-.8.7-1 1.1-.7 1-.4 2-.4 3.5q.3 2.1 1.4 3.7h.4q.7-2 1.9-3.7c0-1.5-.4-2.7.2-3.7.5-.8.6-.8.6-1.4l.2-.1c.2 1.5-1 2.5-.2 3.7h.2l2.3-3.5q.3-.8.3-2c.4-1 .4-1.5.4-2.4h.3v3l3.1-4c1.3-1.9 2.3-2.7 2.9-3.7 0 .8-1 2-1.5 2.8q-.7 1.4-2.1 3v.2c1.2-1 3.8-1 4.6-2v.2c-1 1.5-2.8 1.7-4.8 2.5-.5.1-1.2 1.1-1.7 1.7l-.3.7c-.4.8-1.2 2-2 2.7 0 .1-.3.3 0 .3l2.8-1 1-.2.2-.2q2.1-.1 3.2-1.6l.3.1c-1 1.7-1.8 1.9-3.5 2.4s-3.7 1-5.2 2.2c-.5 1.4-1.8 2.5-2.2 3.9q.9.4 2 .3h1.2c2.3 0 2.2 0 4-.3.5-.4.7-.5 1.4-1.4q.6-1.1 0-2.2c.8-1.7 3-1.8 4.1-2.8 0-.6.3-1.2 0-1.7q-1-1-.8-2.3 0-1 1.1-1.2 1-.1 1-.9.3-1.1-.5-1.5c-.5-.3-1.3-.8-1.3-1.2-.2-2 2.4-2.5 1.1-4.2q-.6-.7-1.3-.7-.6 0-1 .7m-12-11.6q-.3.5-.7.5c-1 0-1.1-1.2-2.3-1-1.9.4-1.4 3-3 3-.5.2-2-.2-2.3.5-1.3.5-1 2.7-2 4-.3.6-1.5.4-1.9 1.4a8 8 0 0 0-.7 3.2c-.5 1.5.2 3 1 4.4q.3-.2.5-.7c1.1-1.4.1-3.9.9-5.7q0-.8.5-1.2c.4.4-.3 1-.3 2v3c.7 0 .7-1.2 1.2-1.5q.7-.6 1.3-1.5c1.1-1 .5-2.5.9-3.8v-2l.1-.4h.3q.4 1 .3 2.3c-.3.7 0 1.4-.3 2l2.6-2.8 3.9-4.1c.3.9-3.5 4.8-4.1 5.5l.2.1c.4-.3 1.3-.6 1.7-.7q1.4-.6 1.8-.6h.7q.3.7-.3.3l-1.5.5q-1.4.9-3 1.5c-.6.5-1.5.9-1.7 2l-2.1 1.9v.6c1.3-.5 3-.3 4.2-1.1l1.1-.9q.4.1.3.2a5 5 0 0 1-4.3 2.2q-1.8.5-3.1 1.7l-.2.3c2.6 0 5.6.7 7-1.5 0-.5.3-1.4 1-1.5 1.3-.2 2.9-1.5 2.3-2.5-.4-1.7 1.8-1.7 2.1-2.9q1-1 0-2c0-.3-.6-.5-.6-1.4q.3-.3.4-.7c.2-.1.8-.5.8-1q.6-.6.5-1.5-.2-.6-1.1-.9c-1.5 0-1.8.8-2.1.8m-2-24.6c-.6.8-1.3 2.2-2.7 2.2-1 0-1-1.5-2.3-.8-1.2.5-1.3 2.4-2.5 3.5 0 .5-.9 1.7-2.1 1.5-.8 0-1.8 0-2.1.5-1.3 1.8-1.2 4.4-1.2 6l.2.5a3 3 0 0 0 1.3-.9c.8-.7 1.8-1.5 2-2.9q-.3-1.3.6-2.4c0-.3.5-.6.5-.3v.3q-.8 1.5-.5 3.1.9-.7 2.5-1.5c1.1-.6 1.6-3.1 1.8-3.5l1-2.3q.4 0 .4.2l-1 2.5q0 1.2-.4 1.7c.3 0 .5-.5.9-.5.7-.5 5-3.4 6.7-4.2h.8v.5q-3 1.2-5.4 3.3v.1q2.4.5 4.4.3.8-.2 1 0-.2.3-.5.2l-1.8.3c-1.4.2-3.5-.3-4.6.5l-1 .4-2.8 2c.5.5 1.1 0 1.8.5 1.8 0 3.1 1.3 5 .3q.3.1 0 .2c-1.5 1.2-3.6.5-5.2 0q-1.3-.3-3 0c-.4.2-2 1.3-2.5 2.3q2.1 1.5 4.4 2.2c1 .4 2.6.5 3 0 .8-.5.3-1.4 1-1.7 1-.9 3.6 0 4.3-1.5.5-.8.3-2.2 1.4-2.7l1.5-.6c.8 0 2-.7 1.5-2.2-.3-1-1.2-1-1.2-1.6-.3-1.7 2-2.2 2.2-3.8 0-1 .5-1.3-.5-1.7-1.8-.5-2.2 1.4-3.9 1q-.7-.4-.7-.7-.4-.8-1-1c-.6-.2-.8.2-1.4.7m-33.2-7.1c-1 1.2.5 2 .3 3-.3.2-1.2.2-1.3 1.1-.4 1.2 1 2 1.6 2.5.4.3 0 .8 0 1 0 .7-.6 1-.5 2 .5 1.3 2.6.3 3.2 1.8.3 1-.6 2.3.6 3.3.8 1.2 2.4 1.6 3.9 2 1.4.3 3.7.5 4.4.2q.3-.6-.3-.7-1.8 0-4.4-1c-1.2-.2-1.6-.7-2.4-1.7q.8.2 1.2.7 2.4 1 5.2 1.2c-.8-.4-.8-1.7-1.9-2a18 18 0 0 0-5.7-1.5V87q3 0 5.7 1.2h.6c-1.1-1-1.1-2.7-3-3.4-1.3-.1-2.6-.9-4-1.3q-.8-.2-1.6 0v-.3c2-.7 3.5.7 5.3.7l.9.3c-1.8-1.7-3-3.4-4.9-5.3l-1.3-1.5h.5l4.6 4.6c0-1.7-1.2-2.9-1.6-4.2h.1c1 1.7 2.3 2.8 2 5q1.8 1.8 3.2 4.1v.1-2.8l-.2-2h.3q.7 3 .6 6c.3.6.4 1.4 1.2 1.7.5-.3.2-1.2.5-1.7l.2.2c0 .7.3 1.7-.3 2.4.2 1 .8 0 1.1-.2 1-1.2 1.2-3.1.3-4.4-.3-.8-2-1.3-2.4-2.5-.5-.7 0-2-.5-2.5-1-1.5-4-.7-4.4-2.9-.3-.3-.3-1.2-.9-1.4-.8-.1-2 .2-2.6-.1-.9-.7-1.5-2.4-2.8-1.7zM228 57.2c-1 .8 0 2.7-1 3.7-.6.6-1.2.2-1.4 1-.3.8-.5 1.8.3 2.5.4 1.3-1.3 1.7-1.1 3q-.5 1.2 0 1.9c.3.6.8.7.9 1.3l.2 1.2q-1 1-1.4 2c-.4.8-.5 2.2.3 2.9 1.3 1.3 3.4 1.8 4.9 2.3.5.1 1 .6 1.8.1q.4-.7-1-.9c-1.3-.4-3-.4-4-1.7h-.3c.5-.8.7 0 1.3.2 1.7 1 2.7.7 4.3.8 0-.6.2-1.5 0-1.8-2.4-.5-3.1-3-4.3-3.2-.1 0-.6 0-.6-.4q.8 0 1.5.4l2.6 2.3c.5 0 .6.4 1 .2.2-1-.2-2.2-.3-2.7q0-.7-.4-1.2c-1.5-1.5-2.8-3.8-4.9-4.2v-.2q1.4.1 2 .7c1 .7 1.9 2 3 2.7-.4-2 0-4-1.1-5.5-.3-1.4-.9-2.7-.8-4.4h.2c.3 2.2 1.8 3.8 1.9 6.1h.1q.6-2 1.7-4 0 .9-.3 1.4c-.3 1.3-.3 2.6-1.1 3.9 0 1.5.2 2.3.5 3.5v.4q.4 1.6.3 3c1.2-.7 1.6-2.2 2.2-3.4q.3-.7.8-.5c0 .4-.6.5-.6.7-.3.5-.7 3-2.4 4.4v3l.1.2c1-1.1 2.3-2.9 3.5-4q1.3-1.9 0-3.8c-.2-.6-.9-1-.6-2 .2-1 1.4-2 .9-3.2-.7-1.2-3.3-1.5-2-3.2q0-.8-.3-1.6-.7-.5-1.5-.5c-.7 0-1.9-.4-2.2-1.6q.2-1-.7-1.7-1-.8-2 0m-7.6 176q-1.8 2-3.9 3.1c-2.7 2.8-3.7 6-8.7 7.1l-5.4 1.3-4 1.5q-.3.3-.8.4-.9.3-1 1l.2.7c1-.5 1.4-.9 2.5-1.2q1.6-.6 3.1-.7c.4.6-.7.5-.7.6q-1.9.4-3.6 1.4-.5.3-.7.8v.5c1.4-.5 1.6-.6 2-.9 3-1.2 4.3-1.5 6.2-2.9 1.5-.3 1.8-.5 2.2.5.3 1 1.3 1.4 2 1.2 0-1.8-2.6-1.4-.7-2.3l.4-.2 5-2.2c6.6-2.4 8.5-1.4 13.3-1.4v-1.7c-3.2-1.3-7.7.7-11 1-.9 0-1.7.2-1.7-.3a5 5 0 0 0 2.1-1c1.4-.7 2.1-4.7 4.5-4.7-1 .7-2.9 3.2-2.2 4 .6 0 4.2-5.5 5-6.4l-1.5-1.8zm4.4 1-2 3.3c-.4 0-.4.5-.6.6 1 0 2.4-.2 3.3 0h1.9a6 6 0 0 0-1.5-3.8l-.4-.6q-.4 0-.7.4" fill="#f5c501" id="path8"/><path d="M40.2 171.3q-1-.7-2.3-1 .7-.5 1.3-1.2.7.9 1 2.2m188-75.3-.2 2.6a16 16 0 0 1-1.3 6.1c-.6 2.4-.5 5.5-.4 7.7 0 .5.4 1.5.5 2q.3 1.7 1.3 2.4h.3c-.1-1-1-3.7-1-5.2V109q-.2-2.3.9-4.2l1.4-3q.2-.1-.4-.3l-.2-.4c-.6-.2-.2-1.2-.2-1.8l.4-3.2v-.6q-.4.5-1 .6m13.3 75.2q1-.7 2.3-1.2-.7-.3-1.3-1.2-.7 1.2-1 2.4m-75.6 86c-1.6.3-3.7 0-5.4.4h-2.4q-.5 0-.2.2c1.2.1 1.7.4 3.1.2h1.7q3-.2 6.3-.2c.8-.3 1.7-.1 2.5-.4l2.7-.2.6-.1q-.1-.3-.6-.3c-2.9-.1-5.5.4-8.3.4M56.7 234.1c.6.8 1.8 2.3 2.3 3.3l.6.9-3.5-.3-1.6.1a7 7 0 0 1 1.3-3.7l.5-.7q.3.1.4.4M233.9 97.9a10 10 0 0 1 5.2 2.2c.3.2 1 0 1.2 0v-.4l-4.7-2zm-3.8.2 2.1-.2h.2q-1.1-.5-2.2-.3zm-.2 1.5c0 .3-.3.8.2.8.3 0 .5-.5.8-.6l.5-.5z" fill="#f5c501" id="path9"/></g><path transform="scale(.8)" d="m289.3 165.6-.4.2c0 .2.3 1.5 1.3 1.5q.5.1 0-.6c-.3-.3-.5-1-.9-1.1m-1.8.5-.4.2c-.1.1.6 2 1.1 2.5h1l-.3-.6c-.5-.7-.6-1.5-1.3-2zm-1.6.6h-.2q-.3.9.3 1.5.5 1.1 1.4 2 .5.3.6-.1-.2-.6-1-1.9c-.5-.8-.6-1.6-1-1.5m-1.7.6-.1.2c-.2 1 1 3 1.7 3.7.3 0 .6.3.9-.2-.4-.4-1.7-2.7-2-3.7zm-1.3.8q-.3 0-.7.3c.4.6 1.9 4.1 2.9 4.1q.4-.1.3-.7c-1-.6-1.2-1.4-1.8-2.6q0-.5-.4-1zm-2 .4q-.4 0-.6.3c.7 2.2 1.2 3.7 2.6 5.3q.9.2 1-.4l-2.7-5.1z" color="#000000" fill="#fff" fill-rule="nonzero" id="path10"/></g><g fill-rule="evenodd" id="g198"><path d="M206.6 85h-131l.2 135.6c0 29 58.8 5.2 65.2 22.2 6.2-17 65.4 6.8 65.4-21.7z" id="path11"/><path d="m80.8 227.3 1 1.2 1.2 1 1.5.8 1.7.7 1.9.7 2.1.5 2.3.3 5.1.5 5.5.1 20-.2 5.3.2 2.5.3 2.4.5 2.2.6 2.2.8 2 1.1 1.3 1.1 1.3-1 2-1.2 2-.8 2.3-.6 2.4-.5 2.5-.3 5.3-.2 20.1.3 5.6-.1 5-.4 2.4-.4 2.2-.5 1.9-.6 1.7-.7 1.5-.9 1.2-1 1-1 .8-1.2.6-1.5.4-1.8.1-2.2.2-132.8H78.7l.2 132.4.1 2.2.4 1.9.6 1.5z" fill="#fff" id="path12"/><path d="m201.5 227.3-1 1.1-1.2 1-1.4.9-1.7.7-2 .6-2.1.5-2.3.4-5 .5-5.6.1-7.7-.1-92.7-106.7V88h38.8l86 98.7-.1 33.7-.2 2.2-.4 1.8-.6 1.5z" fill="#354990" id="path13"/><g transform="translate(-183 -298.9)" id="g20"><g id="g16"><path d="M279.5 439.1c-1-.9-3-2.2-3.5-3.3-.7-.2-1-2-1.6-2v-.3c-.2 0-2.6-3.4-2.7-3.6h-.2v-.3c-.8 0-3.4-6.6-3.8-7.7-1-4.3-3.1-9.4-2.2-13.8.2-1.1 1.3-2.4 2.4-2.5 1.7 0 4.5 1.5 5.7 1.8h.3c.3-3.2-2.6-6-2.8-7.6l-4.4-2.2c.7-3.2 5.3-2.8 5.6-4.2 1.7-1 3.8-.9 4.7 0 2.9 2.5 2.7 5 5.5 6.9h.2c-.5-2.3-1.7-4-2.1-6 0-3.5.7-3.6 3.5-3.9 2.7 0 4.8.2 7.6 1.1q3 2 6.6 3.4v.2c1 .6 2.1 1.7 3.3 2.3v.4c1.2.6 1.7 2.2 3 3v.1h.2v.3h.2v.2h.2v.3h.2v.2h.2c.2 1 3.2 3.6 4 5.2.5 0 .7 1.1.6 1.7-1.6-.3-2.7-.3-4-1-.2.4-.2.4-.1.9-1.5 0-2.1-.7-3.3-1.4v-.2h-.6v.5q-1.2 0-2-.4c-.3.7-1.1.4-1.5.4v-.2h-.2v-.3h-.2v-.2h-.2v-.3h-.2v-.2h-.4v1.5q-.9 0-1.5-.6v-.2h-.5v.7c-.6 0-.6 0-1-.3l-.3.1.5 1.4c0 .6 1 .8 1.2 1.5l1 .5v.2c.6.4 1.4 1.3 2.2 1.5v.2l1.8 1.3v.2c2.6.4 6 .7 8.4 2.5 0 1.3-1 1.3-2 1.7v.4l.6 1.3h.2c-.1 2.2-1 1-1.6 1.5.6 1.3 1 1.7-.5 1.9l-2.5-.7q.5 1 .5 2.2h-1.4v-.2l-.8-.4q0 .7.4 1.3v.4c-.7.2-.8 0-1.3-.1v-.3h-.3v-.3h-.3c0 .7.5 1.5.5 2.3l-.5.2c0-.3-2-.6-2.2-.7 0-.4-1.3-1.4-1.4-1.5 0-.4-.9-1-1-1v-.2h-.3c0-.4-2.3-2.6-2.6-2.7v-.2l-.6-.3-.2.7h-.2l-.3.8h-.1v.2c-1.2.7-1.6.5-2.6-.2 0-.3-1-1.1-1.2-1.7h-.1l-.9-2.4h-.2v-.3c-.9-.5-2.2-1.3-3-1.5v-.2h-.4v-.2l-1.1-.6-.2.1c0 1 .4 2.6.2 3.5h-.7c-.3 1 .7 3.1-.9 3v-.3l-.9-.4-.1 2.7-.4.2.2.8h.2c.6 1.4 1 2 1 3.8h-.6v.2c.3.8 1.3 3 1 4h-.6q.2 1.4.2 3.4l-.7-.4c0 .9.5 1.5.4 2.4z" id="path14"/><path d="M315.9 481.4c-1-1-3-2.3-3.5-3.4-.7-.2-1-1.9-1.6-2v-.2a25 25 0 0 1-2.7-3.7h-.2v-.3c-.8 0-3.4-6.6-3.8-7.7-1-4.3-3.1-9.4-2.2-13.7.2-1.2 1.3-2.5 2.4-2.5 1.7-.1 4.5 1.5 5.7 1.7h.3c.3-3.2-2.6-5.9-2.8-7.6l-4.4-2.2c.7-3.1 5.3-2.7 5.6-4.2 1.7-1 3.7-.9 4.7 0 2.8 2.6 2.7 5 5.5 7l.2-.2c-.5-2.1-1.7-3.8-2.2-5.8 0-3.6.8-3.7 3.6-4 2.7 0 4.8.2 7.6 1.1q3 2 6.6 3.4v.2c1 .7 2.1 1.8 3.2 2.4v.3c1.3.7 1.8 2.2 3.1 3v.2h.2v.2h.2v.3h.2v.2h.2v.3h.2c.2.9 3.2 3.5 4 5 .5 0 .6 1.2.6 1.8-1.6-.3-2.7-.3-4.1-1v1c-1.5 0-2.2-.7-3.3-1.4v-.2q-.4-.3-.6 0v.4q-1.2 0-2-.3c-.3.6-1.1.3-1.5.3v-.2h-.2v-.2h-.2v-.3h-.2v-.2h-.2v-.3h-.4v1.6q-.9-.1-1.5-.6v-.2h-.5v.7c-.6-.1-.6-.1-1-.4l-.3.2.3 1.3h.2c0 .6 1 .8 1.1 1.5.7.5.7.5 1 .5v.2c.6.4 1.5 1.3 2.3 1.5v.3l1.8 1.2v.2c2.6.4 6 .8 8.4 2.5 0 1.3-1 1.3-2 1.7l-.1.4.7 1.3h.2c-.1 2.2-1 1-1.6 1.5.6 1.4.9 1.7-.5 1.9l-2.5-.7q.5 1 .5 2.3H339v-.3l-.8-.4q0 .6.4 1.4l-.1.4c-.6.1-.7 0-1.2-.2v-.2h-.3v-.4h-.4q.5 1.2.6 2.4l-.5.1c0-.3-2-.6-2.2-.7 0-.3-1.3-1.4-1.5-1.5 0-.4-.8-.9-1-1v-.1h-.2c0-.5-2.4-2.7-2.6-2.8v-.2l-.6-.2-.3.7h-.1l-.3.7h-.1v.3c-1.2.6-1.6.4-2.6-.3 0-.3-1-1-1.2-1.7h-.2l-.8-2.4h-.2v-.3l-3-1.5v-.2h-.5v-.2l-1-.6-.2.1c0 1 .4 2.6.2 3.6l-.7-.1c-.3 1 .7 3.2-.9 3v-.3l-.9-.3-.1 2.6-.4.3.2.7h.2c.6 1.5 1 2 1 3.8h-.6v.2c.3.9 1.3 3 1 4h-.6q.2 1.5.2 3.4l-.8-.4c0 1 .6 1.6.5 2.4z" id="path15"/><path d="M352.3 523.6c-1-1-3-2.2-3.5-3.4-.7-.1-1-1.8-1.7-2v-.2c-.2 0-2.5-3.4-2.6-3.7h-.2v-.2c-.8 0-3.4-6.6-3.8-7.7-1-4.3-3.1-9.4-2.3-13.8.3-1.2 1.4-2.4 2.4-2.5 1.8 0 4.6 1.5 5.8 1.8l.3-.1c.3-3.1-2.6-5.8-2.8-7.5l-4.4-2.3c.7-3.1 5.3-2.7 5.6-4.1 1.7-1.1 3.7-1 4.7 0 2.8 2.5 2.7 5 5.5 6.9l.2-.1c-.5-2.2-1.7-3.8-2.2-5.8 0-3.6.8-3.7 3.5-4 2.8 0 5 .2 7.7 1q3 2 6.6 3.4v.2c1 .7 2 1.8 3.2 2.4v.3c1.3.7 1.8 2.2 3 3l.1.2h.2v.3h.2v.2h.2v.2h.2v.3h.2c.2 1 3.2 3.6 4 5.1.4 0 .6 1.2.6 1.8q-2.3-.2-4.1-1.1v1c-1.5 0-2.2-.7-3.3-1.4v-.2h-.6v.4q-1.3 0-2-.3c-.3.6-1.1.4-1.5.3v-.2h-.2v-.2h-.2v-.3h-.2v-.2h-.3v-.2h-.3v1.5c-.8 0-1-.4-1.5-.6v-.2h-.5l-.1.7c-.6 0-.6 0-1-.3l-.2.1.3 1.4h.2c0 .6 1 .7 1.1 1.5l1 .5v.2c.6.4 1.5 1.3 2.3 1.5v.2l1.8 1.5c2.6.4 6 .7 8.3 2.4 0 1.4-1 1.3-2 1.8v.4l.7 1.2h.2c-.1 2.3-1 1-1.6 1.6.6 1.3.9 1.6-.5 1.8l-2.5-.6c.1.5.6 1.4.5 2.2h-1.5v-.3l-.7-.3q0 .6.4 1.3l-.1.4c-.6.2-.7 0-1.2-.2v-.2h-.3l-.1-.3h-.3c.1.7.6 1.5.5 2.3l-.4.2c0-.3-2-.7-2.2-.7 0-.4-1.3-1.5-1.5-1.5 0-.5-.8-1-1-1v-.2h-.2c0-.5-2.4-2.6-2.7-2.7v-.2l-.6-.3-.2.7h-.2l-.2.8h-.2v.2c-1.1.7-1.5.4-2.5-.2 0-.3-1-1.1-1.2-1.7h-.2c-.3-1.3-.3-1.3-.8-2.5h-.2v-.2a12 12 0 0 0-3-1.5v-.2h-.5v-.3l-1-.6-.2.2c0 .9.4 2.5.1 3.5h-.6c-.3 1 .7 3.1-1 2.9v-.2l-.8-.4-.1 2.7-.4.2.2.7h.2c.6 1.5 1 2 1 3.8l-.6.1v.2c.3.8 1.2 3 1 4l-.7-.1.3 3.4-.8-.3c0 .9.6 1.5.5 2.4z" id="path16"/></g><g fill="#bcbec1" id="g19"><path d="m271.7 397-2.7-.2-.2-.3c1-.7 1.6-1.1 2.8-1q.3.6.4 1.5zm4.8 1-.5-.9-.4.2v.3c-.7-.2-1-1.1-1.6-1.5v-.2l.8-.4c.8 0 2.7 1 2.1 2.5zm-5.8.4q-.2-.3-1-.7l.1-.2q.8 0 1.6.7v.1zm8.1.1q-.9-1-1-2 .9.5 1.3 2zm18.4 1.7c-1.7-.8-2.9-1-3.2-3.4 1.2.6 1.2.6 2.5 1 .1.3 1 1.6 1 2.4zm6 .4-2.4-.9c-1-.2-3-.3-3.2-1.7 1.2.1 2 .8 3.2 0 .4 0 2.3 1.7 2.7 2.5zm-7.6.3-.2-.3q.1-.2.5-.1l-.1.3zm-1.6.6-.2-.5c-1-.3-1.8-2-2-3l1.2.5c.3.4 1.9 2.3 1.9 3-.5-.2-.5-.3-.9 0m-1.2.7-1-1q1-.7 1.6.9zm-5.6.5c-.7-.5-2.7-1-2.6-2.1 1-1.4-1.4-4.1-2-5-.3-2-.4-2.8 1-3.6 4.3-.8 7.9.1 11.9 2.4l.1.4.1-.1c1.1.4 1.8 1.5 2.8 2.1v.3l-3.7-1q-1.6-1-3-2.3l-.2.2 1.4 3.2c-.8.4-2.9-1.4-3.6-1.9q.1.7.9 1.5l1 3-.2.1-2.3-.8c0 .8.4 1.1.4 1.8-1.2-.1-1.8-.9-2.6-1l.9 2.8zm4.2.6c-.8-1-.8-1.4-1.2-2.3.5 0 1.5 1.3 2 1.8l-.1.5zm-7.9.4c-.4-.4-1.1-1-1-1.5l1.1.7v.7zm6.6.8-1-.7-.1-.3h-.2l-.2-1.4q2-.1 2 2.4zm9 1.5-.5-.5v-.3c-1.1-.6-3.6-2.5-2-3.7.9.6 2 3.2 2.7 4.4zm2 .1c-1.4-1-1.9-3.1-3-4l-.4-.7.1-.1 1.2.1c1 1.4 2.3 2.7 2.5 4.7zm-4.4 0c-1.1-.7-1.8-2.3-2.7-2.7v-.2c1.8-.3 1.7 1.3 2.8 2.2v.6zm-2 .3c-.5-.6-1.7-1.7-1.8-2.4l.5-.1c.5.6 1.5 1.3 1.5 2.4zm13.8.3-1.6-1v-.2c-1.1-.6-3.3-2.6-3.6-3.7l1.8.3q.3.6 1 1l2.6 3.5zm-3.2.5-1.7-1.2c-.6-1-1.7-2-2-2.8h-.2l-1.5-2.2v-.2q.8 0 1.5.4 1.8 2.6 4.1 4.6zm-11.8.3q-1.2-1-2-2.2l-.4-.2v-.3l1.3.2c.1.8 1 1 1.3 2.5zm-8.6 0c-1.4-1.6-1.6-2.5-3.2-2.8l-.1.1c.3.5 1 1.5 1 2.2-.6 0-2.6-4-2.8-5-.7-.2-1.3-1.2-1.2-1.8.6.4.8 1.4 1.8 1.8 0 1.2.7 1 .8 1.8.5.3 1 .8 1.6.3.2.5.3.2.4 1 .8 0 1.7 1.3 2 2.4zm4.7 1.8c-.6-1-1.8-1.6-1.8-2.5q1.6.4 2.2 2.4zm.7 1.5c-.1-.4-1-.8-1.2-1.2v-.3l1.7 1.2v.3zm-9.6.6q.1-.2-.4-.3-.2-.6-.7-.9.7.2 1.3 1zm3.6 2-1.5-1.2c.3 0 2 .7 2 1.1zm-1.4 1.1c-.5-.4-1-.3-1.1-1l1.7.4v.6zm5.8.7c0-.2-.7-.5-1-.8q.6-.1 1.1.4v.3m-1.5 1c-.4-.3-2.9-.8-2.6-1.6.7 0 2.3.6 2.7 1.3zm-9.8 1-1-2q.4-.2 1-.2l.3.9-.3.1.1 1.2zm29 .4-2.7-1.4q2 0 4 .9zm-25.1.5c-1.6-2.6-1-1.2-.7-3.6h.2q.6 1.6.7 3.6zm-5.2 1.3c-1-.4-1.2-2-1.3-2.9h.3v-1c.7 0 .7 0 .9.2.3.9.8 2.6.4 3.7zm30.5 1q-.6-.5-1.1-.5c-2-1.8-4.7-2.6-6.4-4.3.5-.5 2.4 1 3.1 1.3 1.1.4 3.8 1.2 4.3 2.4q.5.2.9 1zm-27.7.5c0-.3-1-1.7-1.2-2.3h.4v-.5h.4q.4 1.2.6 2.8zm1.8.6c-.7-.6-.9-.4-1-1.2h.3c.2-1.5-.7-2.6-1.5-3.4-.3-1.4-1-2-.7-3.4h.3c.7 1.3.3 2 1 3.3 1 .2 1.7 2 1.9 3.3h.1l.2 1.4zm8.8.1c-.5-.5-1.4-2.2-1.2-2.8l1.3.1.4 1.6h1.4c-.2.5-1.4 1-1.9 1.1m15.8.5c-3-1.2-5-4.4-7.7-6.1l-.4-.1-.1-.5c1.5.2 2.2 1.1 3.7 2.2v.2c1 .7 4.7 2.4 5.3 4.3zm-2.2 1.6c-2-1.2-3-3.8-4.8-5l-1.3-1.5.7-.6 4.3 4.4c.3 0 .2.4.7.5 0 .7.5 1.7.4 2.2m-24.4.4c-1-.8-1.9-2.9-2.3-4q.4.2 1 .2v-.3c.4.1 2 3.2 1.8 4zm22.3.5c-.5-.5-1.7-1.6-1.9-2.2h-.2v-.2c-1.2-.8-2-2-3-2.6 0-.5-1.2-.8-1.4-1.5h.8l-.5-1.5c1 .3 3.4 2.3 3.7 3.4.4 0 1.7 2 2.3 2.6 0 .8.4 1 .4 1.9zm-1.2 2.2c-.7-.5-1.5-1.9-1.9-2q-.3-.6-.8-.8c-2-2.7-3.3-3.7-5.8-5.3 2.7-.8 2-.4 4.5 1.8 1 1.3 2.3 2.2 3.6 3.5.2.7.7 1.8.6 2.7zm-20.2 1.2-1.1-.6a22 22 0 0 0-3-4.3c-.8-1.9-1-3.3-1.3-5.3h.2q.5 1.4 1.4 3.2h.1c.3 1.3 1.5 2.3 1.9 3.6q1.6 1 2.1 3.4zm-7.2.1v-.2h-.2c-.1-1-1.1-2.2-1.5-3a46 46 0 0 1-3.7-15.6c.7-2 .6-1.9 2.4-2.4 2.2 0 4.5 3.5 6.7 2 0-2-1-4.4-1.4-6.2-.7-1.3-4.2-4.5-1-4.3 0-.5-.4-.5-.6-1h-.5c0-1-.4-1.8-.2-2.6 1.4-.7 1.4-1.5 3.2-1.5.9.5 2.2 1 2.2 2.4q.4.7 1.2 1.2l.1-.2.3.3c.8 1.6 2.2 3 2.5 5-.7-.1-1-1-1.2-1.5h-.2v-.3q-.5-.4-.7-1h-.3c.6 1.1 1.3 2.8 2.5 3.3.3.4 1.3 2.3 2 1.7l1.4 1.2c.4.8.8 2.2 1.7 2.6l-.8-1.7h-.1v-1l-2.4-2v-.3l.3-.1v-.3q-.6-.2-.8-.7h-.2v-.3l1 .4c1.2 1.2 2.4 4.2 4.3 4.6-.3-1.1-.8-1.3-1.4-1.9l-1.1-1.4q1.4.1 2 2c1.3 1 2 2.5 3.5 3.6l.3.5-.1.2c.3.6.8.8 1.1 1.5l-.5-.2v.3h.2v.3q.6.2 1 .6l.3-.2c-.5-1.4-1.2-1.4-1.8-2.3.6-.9-1-2-1.4-2.2-.5-.8-1.2-2-1.8-2.1v-.3c1.2.6 3 2 3.7 3.4h.3a10 10 0 0 0 2.2 3.4c1 .2 3.6.7 4 1.9l.6.2v.3h-4.4q.7.7 1.3 2c-1.2-.4-3-1.5-4.1-1.4v.2c0 .3.6.9.7 1.3l.3.2q.1.4.7.4v.6c-1.8-.3-3.4.2-5 .2-2.3-.4-5.7-1.4-7.2-3-.5-1.2-.7-1.9-1.8-2q-.1-.8-.7-.7c.3.8.7 1.6.3 2.7h-.3q-.7-1.3-1.5-2c-.2-1-.7-2.2-1.4-2.5 0 1.2 1.4 2-.2 3.6l-.2-.2a6 6 0 0 0-1.4-3.3c0 1.5.6 2.3 0 4h-.2l-1.6-2.6q.2 1.3.7 2.7v1.6c-.8-.3-.9-1.2-1.4-1.3 1 3.2 1.9 5.5 1.6 9.3-1-.2-1.4-3.7-1.6-4.5h-.1c-.4-1.3-.8-3.8-1.7-4.3 0 2.3 1.1 5.6 1.7 7.9l.6 5zm7.6 4c-2-2.2-3.7-5.7-5.2-8.2v-.7c1 .2 1.3 2.8 2.4 3.4 1.1 1.8 2.7 3 3 5.6zm-.4 3c-1.5-1.2-2.7-3.7-3.6-5.4h-.2q0-.4-.3-.8h-.2c-.3-1-.3-1-1.6-3.5l.5-.1v-.2h.5l3.6 6.4h.2c.6 1.4 1.3 1.5 1.4 3.6zm-.9 1.3c-1.7-1.4-3-3.5-4.3-5.4-1.3-1-1-2.7-1-4.2h.2c1 2.2 2.5 4.2 3.3 6.4.2 0 2 2.2 1.8 3.2" id="path17"/><path d="m308 439.3-2.6-.3-.2-.3q1.2-1.1 2.8-1 .3.7.4 1.5zm4.8 1-.4-1-.4.2v.3c-.7-.2-1.1-1.1-1.6-1.4v-.3l.8-.3c.8 0 2.7 1 2 2.4zm-5.7.3-1-.7v-.2q1 0 1.7.7v.2zm8.1.2c-.5-.8-1-1.2-1-2q.9.4 1.3 1.8zm18.4 1.7c-1.7-.9-2.9-1.1-3.2-3.4l2.5.9c.1.3 1 1.6 1 2.4zm6 .3-2.4-.9c-1.1-.1-3-.3-3.2-1.6 1.2 0 2 .7 3.2 0 .4 0 2.3 1.6 2.7 2.4zm-7.7.3-.1-.3q.1-.2.4 0v.2zm-1.5.6-.2-.5c-1-.2-1.8-2-2-3l1.2.6c.3.4 1.9 2.2 1.8 2.8q-.4-.1-.8.1m-1.2.7-1-1q1-.7 1.6.9zm-5.6.5c-.7-.4-2.7-1-2.6-2.1.9-1.4-1.4-4.1-2-5-.3-1.9-.4-2.8 1-3.6 4.3-.8 7.8.1 11.9 2.5v.4l.2-.2c1.1.4 1.8 1.5 2.8 2.2v.2l-3.7-1q-1.6-1-3-2.3l-.2.2 1.4 3.2c-.8.4-3-1.4-3.6-1.9q0 .8.9 1.5l.9 3-.1.2-2.3-1c0 .9.4 1.2.3 2-1-.2-1.7-1-2.5-1l.9 2.7zm4.2.6c-.8-1-.8-1.3-1.2-2.3.5 0 1.4 1.3 2 1.8l-.1.5zm-8 .4c-.3-.4-1-1-1-1.4q.8.3 1.2.7v.6zm6.7.9-1-.7-.1-.4h-.2l-.2-1.4q2-.2 2 2.5zm9 1.4-.5-.5v-.3c-1.2-.5-3.6-2.5-2-3.7.9.6 2 3.3 2.7 4.4zm2 .1c-1.4-1-1.9-3.1-3-4l-.4-.6v-.2l1.3.1c1 1.5 2.3 2.7 2.5 4.7zm-4.4 0c-1.1-.6-1.8-2.3-2.7-2.6v-.3c1.8-.2 1.7 1.3 2.8 2.2v.7zm-2 .3c-.5-.6-1.7-1.6-1.8-2.3l.5-.2c.5.6 1.5 1.3 1.5 2.4zm13.8.4-1.6-1v-.2c-1.1-.7-3.4-2.7-3.6-3.7l1.7.2q.4.6 1 1.1l2.7 3.5zm-3.2.4-1.7-1.1c-.6-1-1.7-2.1-2-2.9h-.2q-.7-1.3-1.5-2.2v-.2q.8 0 1.5.4 1.8 2.6 4.1 4.6zm-11.8.3c-.7-.7-1.7-1.4-2-2.2l-.4-.1v-.3l1.3.1c.1.8 1 1 1.3 2.5zm-8.6 0c-1.4-1.6-1.6-2.5-3.2-2.8l-.1.2c.3.4 1 1.4 1 2.2-.6-.1-2.6-4-2.8-5-.7-.3-1.3-1.3-1.2-1.9.6.5.8 1.4 1.8 1.9 0 1.1.7 1 .8 1.7.4.3 1 .9 1.6.3.2.5.3.3.4 1 .8 0 1.7 1.3 2 2.4zm4.7 1.8c-.6-1-1.9-1.6-1.9-2.5 1 .5 2 1 2.3 2.4zm.7 1.5c-.2-.4-1-.7-1.2-1.2v-.2l1.7 1.1v.3zm-9.6.6q.1-.2-.4-.2-.2-.7-.7-1 .7.2 1.3 1.1zm3.6 2-1.5-1.2c.3 0 2 .7 2 1.2zm-1.4 1.2c-.5-.5-1-.4-1.1-1l1.7.3v.6zm5.8.6c0-.2-.7-.4-1-.8.5 0 .5 0 1.1.4v.3zm-1.5 1c-.4-.3-2.9-.7-2.6-1.6.7.1 2.3.6 2.7 1.3zm-9.8 1-1-2 1-.2.3 1h-.3zm29 .4-2.7-1.3q2 0 4 .8-.7.5-1.3.5m-25.1.5c-1.6-2.5-1-1.2-.7-3.5h.2q.6 1.5.7 3.5zm-5.3 1.4c-.8-.5-1.1-2-1.2-3h.3v-1l.9.2c.3 1 .8 2.6.4 3.7zm30.6 1q-.6-.6-1.2-.6c-2-1.8-4.6-2.6-6.3-4.2.5-.6 2.4.9 3.1 1.3 1.1.4 3.8 1.1 4.3 2.3q.4.2.9 1zm-27.7.4c0-.3-1-1.7-1.2-2.3h.4v-.5h.4q.5 1.3.6 2.8zm1.8.6c-.7-.5-.9-.3-1-1.2h.3c.2-1.5-.7-2.6-1.6-3.3-.2-1.5-.9-2-.6-3.5h.3c.7 1.3.3 2.1 1 3.4 1 .1 1.7 1.8 1.9 3.3h.1l.2 1.3zm8.8.2c-.5-.6-1.5-2.3-1.2-2.9l1.3.1.4 1.6h1.4c-.2.6-1.4 1.1-1.9 1.2m15.8.5c-3-1.3-5-4.5-7.7-6.2h-.4l-.1-.6c1.5.2 2.2 1.1 3.7 2.2v.2c1 .7 4.7 2.4 5.3 4.4zm-2.2 1.5c-2-1.2-3-3.7-4.8-5l-1.3-1.5.7-.6 4.3 4.4c.3 0 .2.4.7.5 0 .7.5 1.7.4 2.2m-24.4.4c-1-.7-2-2.8-2.4-3.9q.5.2 1.1.1v-.2c.4 0 1.9 3.1 1.8 4zm22.3.5a7 7 0 0 1-1.9-2.1h-.2v-.3c-1.2-.8-2-2-3-2.6 0-.5-1.2-.8-1.4-1.5h.8q-.2-.9-.5-1.4c1 .3 3.3 2.2 3.7 3.3.4.1 1.7 2 2.3 2.6 0 .8.4 1 .4 2zm-1.2 2.2c-.7-.5-1.6-1.8-1.9-2q-.3-.5-.8-.8c-2-2.6-3.3-3.6-5.8-5.3 2.7-.7 2-.4 4.5 1.8q1.6 1.8 3.6 3.6c.2.6.6 1.8.6 2.6zm-20.2 1.2-1.1-.6a22 22 0 0 0-3-4.3c-.8-1.8-1-3.2-1.3-5.2h.2q.5 1.5 1.3 3.1h.2c.3 1.3 1.5 2.3 1.9 3.6.9.9 1.9 1.8 2.1 3.4zm-7.2.1v-.2h-.2c-.1-1-1.1-2.2-1.5-2.9a46 46 0 0 1-3.7-15.7c.7-2 .6-1.9 2.4-2.4 2.2 0 4.5 3.6 6.7 2 0-2-1-4.4-1.5-6.2-.6-1.2-4.1-4.5-.8-4.3-.2-.5-.6-.5-.7-.9l-.5-.1c0-1-.4-1.8-.2-2.6 1.4-.6 1.4-1.4 3.2-1.4.8.4 2.2.9 2.2 2.4l1.2 1.1.1-.1.3.2c.8 1.6 2.2 3 2.5 5-.7-.1-1-1-1.2-1.5h-.2v-.3q-.5-.4-.7-1h-.3c.6 1.1 1.3 2.9 2.5 3.3.3.5 1.3 2.3 2 1.7l1.4 1.2c.4.9.8 2.2 1.6 2.7l-.7-1.8h-.1v-1l-2.4-2v-.3l.3-.1v-.2q-.6-.3-.8-.8h-.2v-.3l1 .5c1.2 1.2 2.4 4.1 4.3 4.5-.3-1.1-.8-1.3-1.4-1.9l-1.1-1.4c.7 0 1.7.8 2 2 1.2 1 2 2.5 3.5 3.6l.3.6-.1.1q.6.7 1 1.6l-.4-.2v.2h.2v.3l1.3.4c-.5-1.4-1.2-1.4-1.8-2.3.6-.9-1-2-1.4-2.2-.5-.7-1.2-1.9-1.8-2.1v-.3c1.2.7 3 2 3.7 3.4h.3a10 10 0 0 0 2.2 3.4c1 .3 3.5.7 4 1.9l.6.2v.3h-4.4l1.3 2c-1.2-.4-3-1.5-4.1-1.4v.2c0 .3.6.9.7 1.4h.3q.1.5.7.5v.6c-1.8-.3-3.4.2-5.1.2-2.2-.4-5.6-1.3-7-3-.6-1.2-.8-1.8-1.9-2q-.1-.6-.7-.7c.3.9.7 1.7.3 2.7h-.3q-.7-1.2-1.5-2c-.2-1-.7-2.2-1.4-2.5 0 1.3 1.4 2-.2 3.6l-.2-.2a6 6 0 0 0-1.4-3.3c0 1.5.6 2.3 0 4h-.2l-1.6-2.6c0 1 .5 1.7.7 2.7v1.6c-.8-.3-.9-1.2-1.4-1.3 1 3.3 1.8 5.5 1.6 9.3-1-.1-1.4-3.6-1.6-4.5h-.2c-.3-1.3-.7-3.8-1.6-4.2 0 2.3 1.1 5.5 1.7 7.8l.6 5zm7.6 4c-2-2.1-3.7-5.6-5.2-8.2v-.6c1 0 1.3 2.7 2.4 3.3 1.1 1.8 2.7 3.1 3 5.6zm-.4 3c-1.5-1.2-2.7-3.6-3.6-5.3h-.2l-.3-.9h-.2c-.3-1-.3-1-1.6-3.5h.5v-.3h.4l3.7 6.5h.2c.6 1.3 1.3 1.4 1.4 3.5zm-1 1.4q-2.4-2.4-4.2-5.5c-1.3-1-1-2.6-1-4.2h.2c1 2.2 2.5 4.2 3.3 6.5.2 0 2 2.2 1.8 3.2" id="path18"/><path d="M344.4 481.5q-1.3 0-2.6-.3l-.2-.3q1.2-1 2.8-1l.4 1.5zm4.8 1-.4-.9-.4.2v.2c-.7-.2-1.1-1-1.7-1.4v-.2l.9-.4c.8 0 2.7 1 2 2.4zm-5.7.4-1-.8v-.1q1-.1 1.7.7v.1zm8 .1q-.8-1-1-2 1 .5 1.4 1.9zm18.5 1.7c-1.7-.8-2.9-1-3.2-3.4l2.5.9c.1.3 1 1.7.9 2.4zm5.9.4-2.4-1c-1 0-2.9-.3-3.1-1.6 1.2 0 2 .8 3.1 0 .5 0 2.4 1.7 2.8 2.5zm-7.6.2-.1-.2q0-.3.4-.1v.3zm-1.5.6-.2-.4c-1-.3-1.8-2-2-3l1.2.5c.3.4 1.9 2.2 1.8 2.9-.5-.1-.4-.2-.8 0m-1.2.8-1-1q1-.7 1.6.8zm-5.6.5c-.7-.5-2.7-1.1-2.6-2.2.9-1.4-1.4-4-2-5-.4-1.8-.4-2.7 1-3.5a16 16 0 0 1 11.9 2.4v.4l.2-.2c1 .5 1.8 1.6 2.8 2.2v.2l-3.7-1-3-2.2-.2.1 1.4 3.3c-.9.3-3-1.5-3.6-2q0 1 .9 1.6c.8 2.3.8 2.3.9 3l-.1.1-2.3-.9c0 .8.4 1.2.3 1.9-1.1-.1-1.7-1-2.5-1l.9 2.8zm4.2.6c-.8-1-.8-1.4-1.2-2.4.5.1 1.4 1.3 2 1.9l-.1.5zm-8 .3c-.3-.3-1-.9-1-1.4l1.2.7v.6zm6.7.9-1-.7-.1-.4h-.2l-.2-1.4q2-.1 2 2.5zm9 1.5q-.2-.5-.5-.5v-.4c-1.2-.5-3.6-2.5-2-3.6.8.6 2 3.2 2.7 4.4zm2 0c-1.4-1-1.9-3-3-4q-.3-.2-.4-.6v-.1h1.2c1 1.5 2.4 2.8 2.6 4.8zm-4.4 0c-1.1-.6-1.8-2.3-2.7-2.6v-.3c1.8-.2 1.7 1.3 2.8 2.2zm-2 .3c-.5-.5-1.7-1.6-1.8-2.3q.2-.2.5-.2c.5.6 1.5 1.4 1.5 2.5zm13.8.4-1.6-1v-.2c-1.1-.6-3.4-2.6-3.6-3.7l1.7.2q.4.7 1 1.1l2.7 3.5zm-3.3.5-1.6-1.2c-.6-1-1.8-2-2-2.8h-.2l-1.5-2.3v-.1q.7 0 1.5.3 1.7 2.6 4 4.7v1.3zm-11.7.2c-.7-.6-1.7-1.3-2-2.1l-.5-.2.1-.3 1.3.2c0 .7 1 .9 1.3 2.4zm-8.6 0c-1.4-1.6-1.6-2.5-3.2-2.7l-.1.1c.3.5 1 1.5 1 2.2-.6-.1-2.6-4-2.9-5-.6-.3-1.2-1.3-1.1-1.9.6.5.8 1.5 1.8 1.9 0 1.1.6 1 .8 1.7.4.3 1 .9 1.5.4.3.4.4.2.5 1 .8 0 1.7 1.2 2 2.3zm4.7 1.9c-.6-1-1.9-1.6-1.9-2.5q1.7.4 2.3 2.4zm.7 1.4c-.2-.4-1-.7-1.3-1.2v-.2l1.7 1.2v.2zm-9.6.6-.4-.2q-.2-.7-.7-.9.7.1 1.3 1zm3.6 2-1.5-1.1c.3 0 2 .6 2 1.1zm-1.4 1.2c-.5-.4-1-.4-1.2-1l1.8.4v.5zm5.8.6-1.1-.7c.6 0 .6 0 1.2.3zm-1.5 1c-.5-.2-2.9-.7-2.6-1.5.7 0 2.2.5 2.7 1.3zm-9.8 1.1-1-2q.3-.3 1-.2l.3.9-.3.1zm29 .4-2.7-1.4q2 0 4 .9zm-25.2.5c-1.5-2.6-1-1.3-.6-3.6h.2q.6 1.6.6 3.5zm-5.2 1.3c-.8-.5-1.1-2-1.2-3h.3v-.9c.6 0 .6 0 .9.2.3.9.8 2.5.4 3.6zm30.6 1-1.2-.6c-2-1.7-4.6-2.5-6.3-4.2.5-.6 2.4 1 3 1.3 1.2.4 3.9 1.1 4.4 2.4q.5 0 .8 1zm-27.7.5c-.1-.3-1-1.7-1.2-2.4h.3l.2-.4h.3q.4 1.2.6 2.8zm1.8.6c-.7-.6-.9-.4-1-1.2h.3q0-2.2-1.6-3.4c-.2-1.4-.9-2-.6-3.4h.3c.7 1.2.3 2 1 3.3 1 .2 1.6 1.9 1.9 3.3h.1l.1 1.4zm8.8.1c-.6-.6-1.5-2.3-1.2-2.9 1 0 1 0 1.3.2l.3 1.6h1.5c-.2.5-1.4 1-1.9 1.1m15.7.5c-3-1.3-5-4.4-7.6-6.2h-.4l-.1-.5c1.5.2 2.2 1 3.6 2.2v.2c1.1.6 4.8 2.3 5.4 4.3zm-2.1 1.6c-2-1.2-3-3.8-4.8-5l-1.3-1.5.7-.7 4.3 4.4c.2 0 .2.5.7.6 0 .7.5 1.6.4 2.2m-24.4.4c-1-.8-2-2.9-2.4-4q.5.3 1.1.2v-.3c.4 0 1.9 3.2 1.8 4zm22.3.4a7 7 0 0 1-1.9-2l-.2-.2v-.2c-1.2-.7-2-2-3-2.6 0-.5-1.2-.7-1.4-1.4h.8l-.5-1.5c1 .3 3.3 2.3 3.7 3.4.4 0 1.7 2 2.3 2.5 0 .8.4 1.1.4 2zm-1.2 2.3c-.7-.6-1.6-1.9-2-2q-.2-.6-.7-.8a21 21 0 0 0-5.8-5.4c2.7-.7 2-.4 4.4 1.8 1.2 1.4 2.3 2.3 3.7 3.6.1.7.6 1.8.6 2.7zm-20.2 1.2c-.6-.5-.6-.5-1.1-.6a22 22 0 0 0-3-4.3c-.8-1.9-1-3.3-1.3-5.3h.2q.5 1.5 1.3 3.1l.2.1c.3 1.3 1.5 2.2 1.9 3.5.9 1 1.9 1.8 2.1 3.5zm-7.2 0h-.3c0-1-1-2.3-1.4-3a46 46 0 0 1-3.7-15.7c.7-2 .6-1.8 2.4-2.3 2.2 0 4.5 3.5 6.7 1.9 0-2-1-4.3-1.5-6.1-.6-1.3-4.1-4.6-.9-4.4 0-.5-.5-.4-.7-.9h-.4c0-1-.4-1.8-.2-2.6 1.4-.7 1.4-1.5 3.2-1.5.8.5 2.2 1 2.2 2.4l1.1 1.1h.2l.3.2c.8 1.5 2.1 3 2.5 5-.7-.2-1-1-1.2-1.5h-.2v-.4q-.5-.3-.7-1h-.3c.6 1.2 1.3 3 2.5 3.4.2.4 1.3 2.3 2 1.7l1.4 1.1c.4 1 .7 2.2 1.6 2.7l-.7-1.8h-.2v-1l-2.3-2v-.2l.3-.2v-.2q-.6-.3-.9-.8h-.1v-.2l1 .4c1.2 1.2 2.4 4.2 4.3 4.5-.3-1-.8-1.3-1.4-1.8l-1.2-1.5c.8 0 1.8.8 2 2 1.3 1 2 2.6 3.6 3.7l.3.5-.1.1 1 1.6-.4-.2v.3h.2v.2l1 .6.2-.1c-.4-1.5-1.1-1.5-1.7-2.3.6-1-1-2-1.4-2.2-.5-.8-1.2-2-1.8-2.2v-.2c1.2.6 3 1.9 3.7 3.4h.3a10 10 0 0 0 2.2 3.4c1 .2 3.5.6 4 1.8l.6.3v.2q-2.4.3-4.4 0l1.3 2c-1.3-.4-3-1.4-4.1-1.4l-.1.2.8 1.4.3.1q.1.4.7.4v.6c-1.8-.2-3.4.2-5.1.2-2.2-.3-5.7-1.3-7.1-3-.5-1.2-.7-1.8-1.8-2q-.2-.7-.7-.6c.3.8.7 1.6.3 2.6h-.3q-.7-1.1-1.5-2-.4-1.7-1.4-2.5c0 1.3 1.3 2-.2 3.7l-.2-.2a6 6 0 0 0-1.4-3.3c0 1.4.6 2.3 0 4h-.2l-1.6-2.7q.2 1.3.7 2.8v1.6c-.8-.3-.9-1.3-1.4-1.3 1 3.2 1.8 5.5 1.6 9.2-1-.1-1.4-3.6-1.6-4.5h-.2c-.3-1.2-.7-3.7-1.6-4.2 0 2.3 1 5.6 1.7 7.9l.5 5zm7.6 4.1c-2-2.2-3.7-5.7-5.2-8.2l-.1-.7c1 .1 1.4 2.7 2.5 3.4 1.1 1.7 2.7 3 3 5.5zm-.4 3c-1.5-1.2-2.7-3.7-3.6-5.4h-.2l-.3-.9h-.2c-.3-1-.3-1-1.6-3.4l.5-.1v-.3l.4.1 3.7 6.4h.2c.6 1.3 1.2 1.5 1.4 3.6zm-1 1.3c-1.6-1.5-3-3.6-4.2-5.4-1.3-1-1-2.7-1-4.2h.2c.9 2.2 2.4 4.1 3.3 6.4.2 0 2 2.2 1.8 3.2" id="path19"/></g></g><path d="M81 73a8 8 0 0 0-.2 3.8l.1 1-2.2-2.3a3 3 0 0 0-2.5-1.1 4 4 0 0 0-4 3.9 5 5 0 0 0 .5 2.4c.5 1 1.8 1.7 2.6 2.3l.9.7q3.2 2 6.6 2 3.2.1 5.3-2.2l2.1-2.7q.3 3 1.3 4.3l1 1a18 18 0 0 0 7.8 5.3 20 20 0 0 0 12.3-.4 16 16 0 0 0 7.3-6l2-3.2a189 189 0 0 1 38.3-.4l2 3.5a16 16 0 0 0 7.4 6 20 20 0 0 0 12.3.5q4.7-1.7 7.9-5.4l.9-.9q1-1.3 1.3-4.2l2 2.6a7 7 0 0 0 5.4 2.3q3.4 0 6.7-2.1l.8-.7c.9-.6 2.1-1.4 2.6-2.3a5 5 0 0 0 .4-2.4q0-.8-.2-1.4-.5-1.2-1.5-1.9a4 4 0 0 0-2.2-.6q-.6 0-1.1.2-.8.3-1.4.9l-2.2 2.3.1-1q.4-2-.2-3.8l-8.3-7c-2.9-1.5-4.2.3-5.3 1.8l-1 1.1-2 1c-1.8.6-3.3 1.1-3.1 4.4q.1 2.8-.4 4.4t-2.7 2.8c-2.3 1.4-3.5.4-5-.8l-1-.7 3-1.3-1.5-2-1-1.1.3-1c2.5.4 2.6-.4 2.4-2l-.3-1-1-.5 2.8-6.3a5 5 0 0 0 1.9-1.6q1.3.7 2.8.2c1.3-.6 2.6-1.8 2-3.4 2-1.9.4-5.4-2.4-5.5a25 25 0 0 0 2-17.5c-2.3-8.4-9.8-15-23.6-15.8V21l-2.2-.2-2 3.7q-2.7.5-5 .4l.4-1.4-2.1-.4c-1.2 1.3-4.4 2.6-6 2 3.5-.8 5-4 5-7.4l-.3-.1A6 6 0 0 0 146 14l-2.2-5 4.3 1.9V2.3l-4.3 2 2-4.3h-8.6l2 4.3-4.4-2V11l4.3-2-2 4.9h-.1q-1.4 1.5-1.7 3.7h-.1c-.1 3.4 1.4 6.4 4.7 7.3l-.6.4c-2-.3-4-.9-5-2.6l-2 1.4.5 1.3c-2 0-3.4-.2-5.5-.5l-1.4-3.2h-1.7l-.3.2c-14.8.4-23.5 6.7-25.6 15-1 4.8-.9 13.5 2.4 18.8q-1.9-.7-3.5.8c-1.7 1-.2 2-.5 3l.4 1.4q1.1 0 2.3-.3l-.1.4 3.7 2a5 5 0 0 0 3.8 3.6h.6l2.3 4.4-1 .6-.4.4-.2.8q0 2.6 2.6 1.8v.1l-2.8 2.6 2.9 2v.2l-2 1.3c-1.5 1.2-2.8 2.2-5.1.8q-2.2-1.2-2.7-2.8t-.3-4.4c.2-3.3-1.4-3.8-3.2-4.5l-2-.9-1-1.1c-1-1.5-2.4-3.3-5.3-1.7l-6 4.8c-.3.3-2.2 1.8-2.3 2.1" id="path20"/><g fill="#4d8a7a" id="g23"><path d="m110.9 75 2.5 1.7-1.1 1-1.1 1-1.2-.8-1.3-.9z" id="path21"/><path d="m172.4 76 1 1.1.8 1.2-1.3.6-1.4.6-.9-1.2-.9-1.2 1.4-.6z" id="path22"/><path d="m141.7 70.6 2.1 1.4 2.2 1.3-2.3 1.3-2.2 1.3-2.1-1.4-2.1-1.4 2.2-1.2z" id="path23"/></g><g fill="#fc0" id="g60"><path d="M132.2 48.7c-1-11.3-3.5-21-6.4-26.8h-1.4a109 109 0 0 1 7.1 27.2z" id="path24"/><path d="M147.7 24.4a88 88 0 0 0-4 17.5l-.3-.2h-.1l-.4-.2-.4-.2-.4-.1a2.4 2.4 0 0 0 .2-4.5 3 3 0 0 0 .7-5.3 3.6 3.6 0 0 0 1-5.5 10 10 0 0 0 3.6-1.5m-8.4 17.4-.3-2.1q.4 1.1 1.6 1.5l-.7.3-.4.2zm.2-10.4a3 3 0 0 0 .7 5.3q-1.2.7-1.4 2.2-1.5-8.6-3.7-14.6 1.5 1.1 3.6 1.6a3.6 3.6 0 0 0 .8 5.5" id="path25"/><path d="M141.4 17.4q3.2 0 5.6.8a6 6 0 0 1-.6 2.6 19 19 0 0 0-9.8 0 6 6 0 0 1-.6-2.7q2.3-.6 5.4-.7" id="path26"/><path d="M146 21.9a6 6 0 0 1-4.5 2.2q-3.2-.1-4.7-2.8a21 21 0 0 1 9.1.6" id="path27"/><path d="m140.9 7.1-.9 2-1.3 2.9a6 6 0 0 1 5.5 0L143 9l-.9-1.9 2 1 3.2 1.4V3.6L142 6l1-2 1.4-3.2h-5.9L140 4l.9 2-2-1-3.2-1.4v5.9L139 8z" id="path28"/><path d="M146.5 17.2a5 5 0 0 0-2.4-3.7v3.7z" id="path29"/><path d="M140 13v3.7h3V13a5 5 0 0 0-3 0" id="path30"/><path d="M136.3 17.2a5 5 0 0 1 2.4-3.7v3.7z" id="path31"/><path d="M150 23.9a76 76 0 0 0-5.2 20l-.1-.3-.1-.4-.2-.3-.3-.4-.1-.2a74 74 0 0 1 5-18.7z" id="path32"/><path d="M134 23.6q3 7.5 5 18.5l-.2.2-.2.4-.2.3-.1.4v.1a96 96 0 0 0-5.3-19.2z" id="path33"/><path d="M141.3 26.3a2 2 0 0 1 0 4 2 2 0 0 1 0-4" id="path34"/><path d="M141.4 32a2 2 0 0 1 0 3.9 2 2 0 0 1 0-3.9" id="path35"/><path d="M141.3 37.8a1.3 1.3 0 0 1 0 2.5 1.3 1.3 0 0 1 0-2.5" id="path36"/><path d="M121.5 59.7c-2.3-.7-4.6-4.8-1.6-6.3-1.5 2.1-.4 5 1.6 6.3" id="path37"/><path d="m129 51.7-.2-1.6q-2.8.3-5.5 1.1l.3.8h.3l.6.5.6.6.4.6.4.8.2 1v1.8l-.1.4 3.3-.6-.3-.2-.3-.3-.3-.4-.2-.4q-.3-.7-.4-1.6v-.5l.2-.5.2-.4.2-.4.3-.3z" id="path38"/><path d="M148.7 63q-.9 0-1.6-.4l.2-2.7.7.1h.9z" id="path39"/><path d="m133.3 63 1-.4-.1-2.3h-1z" id="path40"/><path d="M125.5 40.9q-1.3-3.3-2.8-6-3 .5-5.7 1.6l2.9 6q2.7-1 5.6-1.6" id="path41"/><path d="M118.9 44.8q-3.3 1.4-6 3.3l2 5.3q3-1.6 6.2-2.9z" id="path42"/><path d="m131.3 62.9-1-4.4q-2.3.5-4.3 1.4c1.5 2.2 2.8 2.7 5.3 3" id="path43"/><path d="m123.9 26.1-.8-2.4-.5-1.6-5.2.6 2.6 3.9z" id="path44"/><path d="m127.8 40.4-1-5-.4-1.1-2 .2 2.7 6z" id="path45"/><path d="m126 33-1.8-5.8q-1.8 0-3.5.4l3 5.7z" id="path46"/><path d="M122.1 33.6q-1.5-3.1-3.2-5.6-3 .6-5.6 1.7l3.1 5.5a38 38 0 0 1 5.7-1.6" id="path47"/><path d="m128.5 48.6-2.3-6q-3 .5-5.6 1.5l2.3 5.8q2.7-.9 5.6-1.3" id="path48"/><path d="M111.6 30.4q-3.3 1.4-6 3.5l3.1 5.4q2.8-2 6.1-3.4-1.5-3.1-3.2-5.5" id="path49"/><path d="M115.4 37q-3.3 1.5-6 3.5l2.9 6.2q2.7-2 6-3.4z" id="path50"/><path d="m108.1 26.1-.9.4a21 21 0 0 0-4.4 3.8l1.7 2.5q2.8-2 6-3.5z" id="path51"/><path d="m118 26.6-2.4-3.4q-3 .5-5.6 1.6l2.3 3.5q2.7-1 5.7-1.7" id="path52"/><path d="m104.9 55.3 1-2-3.4-5.8a20 20 0 0 0-2.3 4.9l1.3 2.6.7-.4h.5q.8-.1 1.4.2l.5.2z" id="path53"/><path d="M99.8 51.2q.8-2.5 2-4.7-1.5-2.3-3-4.2a22 22 0 0 0 1 8.9" id="path54"/><path d="M108.1 41.4q-2.7 2.1-4.6 4.7l3.4 6q1.9-2.6 4.3-4.5-1.5-3.4-3-6.2" id="path55"/><path d="M104.1 35a25 25 0 0 0-4.5 5l3.3 5q1.8-2.5 4.6-4.8-1.7-3-3.4-5.2" id="path56"/><path d="m98.7 38.7.2.4q1.8-2.7 4.5-5l-1.7-2q-2 3-3 6.6" id="path57"/><path d="m109 51.2-1.7 1.8 1.5 2.2 1 .2.8.6.6-.4.4-.3.4-.1.4-.1 1.5-1-2.1-5.3z" id="path58"/><path d="m117.6 53.6-2 1.2 1.7 5.4 1.2-.6a7 7 0 0 1-.9-6" id="path59"/><path d="m116.6 61.4-.6-1.7-1.4 1 .1.2.2.4.1.3v.4l.1.4z" id="path60"/></g><path d="m119.2 64 .3-2.3-1.5.6z" fill="#ebce1f" id="path61"/><g fill="#fc0" id="g96"><path d="M109.7 63.5a8 8 0 0 0 5 2.4c3.6.4 6.9-1.5 7.7-4.3l.1-.5v-.2l.1-.2v-.1l.7-.3q.6 0 1-.4l.4-.2.3.6v.1a9 9 0 0 0 7.4 3.8c4.1 0 7.6-2.6 8-6h2.3c.5 3.4 4 6 8.1 6 3.2 0 6-1.5 7.3-3.8l.4-.7 2 .9.1.1v.4l.2.5c.9 2.8 4 4.7 7.7 4.3a8 8 0 0 0 5-2.4l1 1.3q-1.8 1.7-4.5 2.6c-4.6 1.3-9.3-.4-11.1-3.9q-3 2.3-7.5 2.6a12 12 0 0 1-9.4-4h-.8q-3.2 3.8-9.4 4-4.6-.2-7.5-2.6c-1.8 3.5-6.5 5.2-11.1 3.9q-2.7-1-4.5-2.6z" id="path62"/><path d="m153.4 51.7.2-1.6q3 .3 5.5 1.1 0 .4-.3.8h-.2l-.7.5-.5.6-.5.6-.3.8-.3 1v1.8l.2.4-3.3-.6.3-.2.3-.3.3-.4.2-.4q.3-.7.4-1.6l-.1-.5-.1-.5-.2-.4-.2-.4-.3-.3z" id="path63"/><path d="M152.2 62.8h-1l1-4.3q2.3.6 4.6 1.7l-1 1.3-2 1z" id="path64"/><path d="m159.1 25.4 1-2.3.6-1.5 5.2.9q-1.5 1.6-3 3.7z" id="path65"/><path d="m154.2 39.5 1.5-5 .4-1 2 .3-3.1 5.8z" id="path66"/><path d="m156.6 32.2 2.1-5.7 3.5.7-3.4 5.4z" id="path67"/><path d="m160.4 33 3.5-5.4a38 38 0 0 1 5.6 2.1l-3.5 5.4a38 38 0 0 0-5.6-2" id="path68"/><path d="m153 47.6 2.7-6 5.5 2-2.6 5.7q-2.7-1-5.6-1.7" id="path69"/><path d="M171.1 30.5q3.1 1.7 5.8 4l-3.5 5.2a33 33 0 0 0-5.9-3.9q1.8-3 3.6-5.3" id="path70"/><path d="m174.9 26.5.8.5a21 21 0 0 1 4.3 4l-2 2.3a32 32 0 0 0-5.7-3.9z" id="path71"/><path d="m165 26.4 2.6-3.3q3 .7 5.5 2l-2.6 3.3q-2.6-1.2-5.5-2" id="path72"/><path d="m156.2 40.5 3.2-5.8q3 .8 5.6 2l-3.3 5.9q-2.5-1.2-5.5-2.1" id="path73"/><path d="M166.6 37.4q3.1 1.7 5.8 3.8l-3.3 6a32 32 0 0 0-5.8-3.8q1.6-3.3 3.3-6" id="path74"/><path d="M173.5 42.2q2.6 2.3 4.4 5l-3.9 5.7q-1.5-2.5-4-4.8z" id="path75"/><path d="m183.4 39.7-.2.4q-1.6-3-4.2-5.3l1.8-1.8q2 3 2.6 6.7" id="path76"/><path d="M163 44.4q3 1.8 5.5 4.1l-2.8 5a36 36 0 0 0-5.7-3.7z" id="path77"/><path d="m172 52.2 1.3 2-.3.4h-.3l-.9.1-1 .6-.2-.2-.4-.1h-1.5l-.3.2-.4.2h-.2l-1.2-1.1 2.9-4.9z" id="path78"/><path d="m166.6 56.1.4.4v.2q-.4.7-.3 1.4v.4q0 .6.5 1.1l-.4 1.1v.4l.2.6.4.8.5.5 1.2.7-.4.6a8 8 0 0 1-3.9-.5l-1.7-1.7q1.7-3.3 3.5-6" id="path79"/><path d="m176.1 55.8-1-2 4-5.5q1.3 2.4 1.9 5l-.9 1.5-1.3-.4-1 .1-.8.4z" id="path80"/><path d="M181.5 52q-.6-2.4-1.8-4.7l3.4-4a22 22 0 0 1-1.6 8.8" id="path81"/><path d="M178.3 35.7q2.4 2.4 4.1 5.3l-3.6 4.8a26 26 0 0 0-4.3-5.1q2-3 3.7-5" id="path82"/><path d="m157.5 21.2 1.8.3c-3.8 8.3-7 17.6-9.2 26.8l-.6-.4-.5-.2c2.1-9 5-18.2 8.5-26.5" id="path83"/><path d="M141.4 51c1.5 0 2.7 1.4 2.7 3.3s-1.2 3.4-2.7 3.4-2.6-1.5-2.6-3.4 1.2-3.4 2.6-3.4" id="path84"/><path d="M128.9 54.3c.2-2.1 2-2.6 3.3-1.8h.1c-2.9-2.7 3.3-5.2 5.5 0a19 19 0 0 1-7 1.7c2.7-.1 4 .1 7 1.5v.3c-2.1 5.4-8.4 2.8-5.5.2v-.1c-1.3.9-3.2.3-3.4-1.8" id="path85"/><path d="M141.2 42c2 .2 2.6 2.1 1.7 3.4l.1.1c2.6-3 5.1 3.3 0 5.7h-.1c-1.2-2.7-1.3-4.3-1.6-7.2 0 2.7-.2 4.1-1.5 7.1l-.3.1c-5.3-2.3-2.8-8.6-.2-5.7h.1c-.9-1.4-.3-3.3 1.8-3.5" id="path86"/><path d="M153.8 54.1c-.2-2-2.1-2.4-3.4-1.6v-.1c2.8-2.9-3.8-5.3-6-.4 2 1 3.3 1.4 5.4 1.8-2.4-.1-3.2.5-5.1 2.3 2 5 8.6 2.5 5.6-.2l.1-.1c1.3.8 3.2.3 3.4-1.7" id="path87"/><path d="M141.4 49q0 .7.4 1.3h-.8z" id="path88"/><path d="m136.2 54 2 .6v-1.3q-1 .5-2 .7" id="path89"/><path d="M146.3 54q-.8.3-1.5.8v-1.5z" id="path90"/><path d="M121.8 52.8c1.4-.3 2.9 1 3.2 2.7s-.5 3.5-2 3.7-3-1-3.3-2.7.6-3.4 2-3.7" id="path91"/><path d="M162 52.7c-1.6-.5-3.3.7-3.8 2.6s.2 3.8 1.7 4.3c1.6.4 3.3-.7 3.8-2.6s-.2-3.8-1.7-4.3" id="path92"/><path d="M104.4 61.3c.7-.7 2.1-.4 3.2.6s1.5 2.4.8 3-2 .6-3.2-.4c-1-1-1.4-2.4-.8-3.2" id="path93"/><path d="m111 57.2-.3.9h-.5c.5-2.3-4.1-3-3.6 1.7q2.7 1.2 5.2-.4a8 8 0 0 0-2.3 3.5c1.9 2.6 6.7.2 3.4-2.4l-.1-.2c4.5-.7 1-6.6-1.7-3" id="path94"/><path d="M103.5 60.3h1.6c.3-1.3.3-1.6 0-3-1-2.1-3.5-2.4-3.8.2h-.2c-.7-1.1-2.3-1.7-3.2-.2-1.1 0 .4 1.8.6 2h-.6v.3c1.3-.2 2-.3 3.2-.9.4.8.7.8 1.6 1l.5.3zm-1.7-1.4h.6v-.3l-.6-.4h-.2v.5z" id="path95"/><path d="m100.3 60.4 2.8 1.5v-.6l-.6-.6-1-.9h-1z" id="path96"/></g><path d="m109.2 62.4 1.3-2c-1 .5-1.3.5-2.3.5.5.6.7.8 1 1.5" fill="#ebce1e" id="path97"/><g fill="#fc0" id="g136"><path d="M168 57c1-1.5 2.6-1.1 3.1 0h.3c-.6-2 4.5-2.1 3.8 2.3-.5 1-3.6-.4-5.5-1a7 7 0 0 1 2.7 3.1v1.3c-3.6 1.5-6.4-2.8-3-3l.1-.2c-1.2.2-2.3-1-1.5-2.5" id="path98"/><path d="m171.8 59.9 1.8 1v-.4l-.4-.4-.7-.6h-.7z" id="path99"/><path d="m141.5 68.8 3.7 2.2 3.7 2.2-3.7 2.2-3.7 2.1-7.3-4.3zm0 1 2.8 1.7 2.8 1.7-5.6 3.3-5.5-3.3 2.8-1.7z" id="path100"/><path d="M138.1 76.6a76 76 0 0 0-24.4 3.9l.8-.7 3.7-3.2-3.8-2.6-1-.7a77 77 0 0 1 25.4-4l-1.9 1.1-4.5 2.8 4.5 2.7zm-16.7-4.7 5.7-.6c1.5-.2 2.8.9 3 2.3.2 1.5-.9 2.8-2.4 3l-5.6.7c-1.5.1-2.9-1-3-2.4-.2-1.5.9-2.8 2.3-3" id="path101"/><path d="M144.2 69.3a69 69 0 0 1 27.2 4.6l-6.3 2.5 3 3.4c-5.4-1.8-13.7-3-23.1-3.2l1.1-.7 4.6-2.7-4.6-2.8zm16.4 2.5-5.7-.6c-1.4-.2-2.8.9-3 2.3-.1 1.5 1 2.9 2.4 3l5.7.7a2.7 2.7 0 0 0 .6-5.4" id="path102"/><path d="m172 74.8-.6.2-4.1 1.7 3 3.5.4.4.3-1.2-2-2.4 2.7-1.1z" id="path103"/><path d="m111.8 73.4 1.3 1 3.3 2.3-3.3 2.8-1.2 1V79l2.5-2.2-2.6-1.9z" id="path104"/><path d="m143.1 67.1.2.3q.3.5.8.6-.8.1-1.6-.1-.3-.1-.6-.7l-.2-.3q-.3-.5-.8-.6c1-.1 1.7-.2 2.2.8m-.5-.7h1.1q.8 0 1.2.7l.1.3q.3.6.8.6-1.6.5-2.3-.9l-.2-.3zm1.6 0q1.8-.5 2.7 1.2l.7.5q-1.6.4-2.4-1l-.2-.3q-.3-.3-.8-.4m1.8 0h1q.8 0 1.3.9l.2.3q.2.5.6.6a2 2 0 0 1-1.4-.2q-.3 0-.7-.7l-.1-.3zm1.8 0q1.8-.2 2.5 1.3.2.4.5.6-.8 0-1.4-.2-.4-.1-.8-.8l-.1-.3q-.3-.4-.7-.5m1.7.2c1.2 0 2 0 2.5 1.3q.3.5.6.5-1 .1-1.7-.2l-.5-.7-.1-.3q-.4-.5-.8-.6m1.8.1q1.8-.2 2.3 1.3.3.5.7.5c-1.3.1-1.7 0-2.2-1l-.1-.2zm1.5.1q1.8-.2 2.5 1.4l.6.6q-.7 0-1.6-.3-.2-.1-.5-.7l-.1-.3q-.5-.6-.9-.7m1.7.2c1.1 0 2 .1 2.4 1.4q.2.5.6.6a3 3 0 0 1-1.6-.3q-.2-.1-.5-.8v-.2q-.5-.6-1-.7m1.7.3q1.8-.3 2.4 1.3.2.5.4.6l-1-.1-.5-.2q-.2-.1-.5-.8v-.3zm1.6.1q1.5-.1 2 1.4l.5.6-1.2-.2q-.2-.1-.4-.8v-.3q-.4-.6-1-.7m1.3.2c1.1 0 1.7.2 2 1.5l.6.6q-.7 0-1.3-.3l-.4-.8-.1-.3q-.3-.6-.8-.7m1.4.2 1 .2c.7.1.6 1 .7 1.2q.4.5 1 .8-.8 0-1.5-.4-.3-.1-.4-.8v-.3zm-18.1.2q-.7.2-1.6-.1-.4-.1-.7-.7l-.1-.3q-.4-.5-1-.5l1.1-.1q1.1 0 1.6 1.1.3.5.7.6m-1.8 0H139q-.4-.2-.7-.8l-.1-.3-.8-.5q1.5-.3 2.4 1 .2.5.6.6m-1.7 0h-1.3l-.7-.7-.1-.3q-.4-.5-.8-.5l.8-.1q.9 0 1.6 1 .2.5.5.6m-1.5 0q-.8.2-1.4 0-.3 0-.7-.7l-.1-.3q-.4-.4-.8-.4l.8-.1q1 0 1.6 1 .2.4.6.6m-1.6.1q-.8.2-1.4 0-.4 0-.7-.7l-.2-.3q-.3-.3-.8-.4l.8-.2q1 .1 1.7 1.1.2.5.6.5m-1.6.1h-1.5l-.7-.7-.2-.3q-.3-.4-.7-.4h.8q1 0 1.6.9.3.5.7.5m-1.4.1h-1.7q-.3 0-.7-.7l-.1-.2q-.3-.4-.7-.5c1-.1 1.8-.1 2.2.9q.5.6 1 .5m-1.7.1q-.8.2-1.5 0-.3 0-.7-.6l-.1-.2q-.5-.5-1.1-.4c1-.2 1.9-.4 2.6.7q.3.6.8.5m-1.6.2H128q-.3 0-.7-.6l-.1-.3q-.4-.3-1-.3c1-.3 2-.4 2.6.7q.3.4.7.5m-1.5.1q-.7.2-1.5.1-.4 0-.8-.6l-.2-.3q-.4-.3-.8-.3 1.5-.7 2.5.7.3.4.8.4m-1.6.3-1.5.1q-.4 0-.9-.7l-.2-.2-.7-.4.6-.1q1.1-.1 1.8.8.4.4 1 .5m-1.6.2c-1 .2-1.8.5-2.5-.5l-.2-.2-.4-.3h-.6q1-.4 2-.2.4.2.7.7.4.5 1 .5m-1.8.3-1.6.2q-.4 0-.9-.6l-.2-.3-1-.2c1-.4 1.7-.7 2.7.2l.2.2q.3.4.8.5m-1.8.3c-.7.2-.8.3-1.5.2q-.6 0-1-.5l-.2-.3-.8-.2.7-.2q.9-.4 1.8.4l.2.2q.4.4.8.4m-1.6.4-.9.2h-.7q-.5 0-1-.5l-.2-.2q-.4-.2-.9-.2l1.2-.4q.6-.1 1.3.4l.2.3q.5.4 1 .4m-1.8.4-1.2.3a2 2 0 0 1-1.3-.4l-.4-.3q-.4-.2-.8-.1c.9-.4 1.7-.8 2.6-.1l.2.2q.4.4 1 .4m-1.7.5c-1.5.5-1.6.3-2.8-.3h-1q1-1 2.6-.1l.3.2q.4.3.9.2m-1.5.4-.5.3c-1.4.5-2-.7-3.3-.3 2-1.4 2.2.1 3.8 0m-1.4.6-1.2.4q-.6 0-1.1-.3l-.3-.1q-.5-.1-.8 0c1-.7 1.3-.6 2.4-.1zm-1.3.4q-.4.4-.9.5h-.9l-.7-.4v-.3c.5-.4 1 0 1.5.2zm-1 .6-1 .4h-.5v-.8q.3.5 1.4.4m-1.3.7-.2.1V74zm52.2-5.7 1.2.2q.5.1.8 1 .3.7.8 1-.7 0-1.5-.5-.4-.2-.7-.8l-.1-.4zm1.7.3c1.2.2 1.5.3 2 1.3q.4.7 1 1c-.8 0-1.1 0-1.7-.5q-.4-.2-.6-.9l-.1-.3zm1.5.5c1.5 0 2 .3 2.3 1.3l.6 1c-.8-.2-.6-.1-1.3-.5q-.4-.2-.6-1l-.2-.3zm2 .4c1 .2 2 .3 2 1.4q.3.8.8 1.1-.8 0-1.5-.5-.5-.3-.5-1l-.2-.3zm2 .6c1 .2 1.6.4 1.7 1.5l.6 1q-.9-.2-1.3-.6-.3-.3-.5-1v-.3zm1.5.6q.6 0 1 .3.8.3 1 1.3.2.7.6 1.1-.7-.1-1.3-.5-.5-.4-.6-1.2v-.3zm1.7.7q1 .3 1.5 1.3 0 .6.4.8v.6l-.2-.1-.6-.4q-.3-.4-.4-1.1V72zm1.5.8.4.2v.8l-.1-.4v-.3z" id="path105"/><path d="M138.9 77.6q1.6-.2 2.6.4l.4.6.2.4q.7.6 1 .6c-1.4.3-2 .2-3-1l-.2-.3q-.4-.6-1-.7" id="path106"/><path d="M136.8 77.7c1-.1 1.7-.3 2.5.3l.4.7.2.4q.6.5 1 .5c-1.4.3-2 .2-3-1l-.2-.3q-.4-.4-.9-.6" id="path107"/><path d="M134.6 77.8c.9-.2 1.7-.4 2.4.2l.5.7.2.4 1 .5c-1.4.4-2.2.4-3-.9l-.2-.4q-.5-.5-1-.5" id="path108"/><path d="M132 77.9q1.1-.3 2.2-.1.4 0 .6.3l.4.6.3.4q.6.5 1 .6a4 4 0 0 1-2 0q-.6-.2-1-.9l-.3-.3q-.3-.6-1.1-.6" id="path109"/><path d="M129.8 78q1-.2 2-.1.6 0 .8.3l.4.6.2.4q.6.5 1 .5-1 .3-2 .1-.8-.2-1.1-.9l-.3-.3q-.4-.5-1-.6" id="path110"/><path d="M127.7 78.2q.9-.2 1.9-.1.4 0 .7.3l.3.5.3.4q.4.5 1 .6-1 .2-2 0-.7-.2-1-.8l-.2-.4q-.4-.5-1-.5" id="path111"/><path d="m125.6 78.4 2-.2q.3 0 .5.3l.4.6.2.3q.6.5 1 .6-.9.2-1.8 0-.7-.1-1-.8l-.2-.3q-.3-.5-1.1-.5" id="path112"/><path d="m123.9 78.6 1.6-.2q.4 0 .7.3l.3.5.2.4q.6.5 1 .5l-1.7.1q-.7-.2-1-.8l-.2-.3q-.3-.5-1-.5" id="path113"/><path d="M122.1 78.9q.7-.3 1.7-.3l.5.3.4.5.1.3q.6.6 1 .5l-1.7.2q-.5-.3-.9-.8l-.2-.3q-.2-.4-.9-.4" id="path114"/><path d="M120.5 79.1q.7-.2 1.5-.2.4 0 .6.3l.3.4q0 .2.2.3.5.6.8.5l-1.6.2q-.5-.3-.9-.8l-.1-.2q-.3-.4-.8-.5" id="path115"/><path d="M118.8 79.4q.7-.2 1.5-.2.3 0 .5.2l.3.4.2.3q.5.5.8.5l-1.6.2-.7-.7-.2-.2q-.3-.4-.8-.5" id="path116"/><path d="M117.4 79.8q.5-.4 1.3-.3l.5.2.3.4.1.3q.5.4.8.4-.7.2-1.5.2-.5-.2-.7-.6l-.2-.3q-.2-.3-.6-.3" id="path117"/><path d="M116 80.1c.6-.2 1-.5 1.6-.1l.3.4.1.2q.4.4.8.4-.6.3-1.3.3l-.6-.6-.2-.2q-.2-.4-.7-.4" id="path118"/><path d="M114.8 80.5q.5-.3 1.2-.4l.3.2.3.4.1.2q.4.4.7.4-.4.2-1.1.2-.5-.1-.6-.5l-.2-.2q-.2-.3-.7-.3" id="path119"/><path d="M113.8 80.9q.3-.4 1-.4l.4.2.2.3.1.2q.4.4.7.3-.3.4-1 .3-.4-.1-.6-.5l-.1-.1q-.3-.4-.7-.3" id="path120"/><path d="M112.8 81.4q.3-.4 1-.5l.3.2.2.3.2.1q.4.4.7.3-.4.3-.9.3t-.7-.4l-.1-.1q-.3-.3-.7-.2" id="path121"/><path d="m112.8 81.4.3.1.3.3.2.2q.4.3.7.2l-.6.3c-1.2.2-2-.9-1-1" id="path122"/><path d="M168.8 80.6q.6 0 1.1.3c.8.8.3 1.4 0 1.3q-.5 0-.3-.7v-.3q-.3-.5-.8-.6" id="path124"/><path d="M167.3 80.2c1 .1 1.6.1 1.8 1.1q0 .6.4.8-.5 0-1.1-.3-.4-.5-.4-1-.2-.4-.8-.6" id="path125"/><path d="M165.7 79.7c.9.1 1.7.2 2 1.2q.2.7.6 1l-1.1-.4-.3-.2q-.4-.1-.4-.7v-.3z" id="path126"/><path d="M163.6 79.3c1-.1 2.2 0 2.5 1.2q.3.7.8 1c-1.4-.2-1.6 0-2.5-1.4l-.3-.4z" id="path127"/><path d="M161.2 78.9c.6 0 1.4-.2 2.3.5l.4.7.2.4 1 .6a5 5 0 0 1-2-.3q-.6-.4-1-1l-.3-.5z" id="path128"/><path d="M158.8 78.6q1 0 1.9.2.3 0 .5.3l.4.7.2.4.9.5-1.8-.2q-.8-.3-1.2-1l-.3-.5z" id="path129"/><path d="M156.1 78.3c1-.2 2-.3 2.6.5l.4.7.3.4 1 .5c-1.6 0-2 .3-3.2-1.2l-.2-.4z" id="path130"/><path d="M153.5 78c1-.1 2.1-.2 2.8.6l.4.6.3.5 1 .6-2.1-.2q-.9-.4-1.3-1l-.2-.5q-.4-.5-1-.6" id="path131"/><path d="M150.9 77.9q1.6-.4 2.8.4l.4.7.3.4 1 .7a5 5 0 0 1-2.3-.1q-.8-.4-1.1-1.1l-.3-.5z" id="path132"/><path d="M148.2 77.7c1 0 2-.2 2.8.5l.5.7.2.4q.6.5 1 .6h-2q-.7-.5-1.2-1.1l-.2-.4q-.5-.6-1.1-.7" id="path133"/><path d="M145.8 77.7q1.8-.5 2.8.4l.4.7.3.4q.6.5 1 .6h-2q-1-.5-1.3-1.1l-.2-.4q-.5-.6-1-.6" id="path134"/><path d="M143.4 77.6c1-.1 2-.3 2.7.4l.4.7.3.4q.6.6 1 .6a5 5 0 0 1-2 0q-.8-.4-1.2-1l-.3-.5q-.3-.4-1-.6" id="path135"/><path d="m143 77.6.7.4.4.6.2.5 1 .6h-1.8l-1.2-1-.2-.5q-.5-.5-1.1-.6.8-.2 2 0" id="path136"/></g><g fill="#f3d944" id="g139"><path d="M141.6 62.7a10 10 0 0 0 2.7 3 17 17 0 0 0-5.5 0c1.2-1 1.8-1.8 2.8-3" id="path137"/><path d="M158.8 64.4c-1.2 1-2 1.3-3.4 1.9l5.6.8c-1-1-1.5-1.5-2.2-2.7" id="path138"/><path d="M124.4 64.8q1.1 1 2.4 1.4l-4 .7q1-1 1.6-2" id="path139"/></g><g fill="#fc0" id="g142"><path d="M178.2 60c-.7-.7-2.1-.5-3.2.5s-1.5 2.4-.8 3.2q1.2 1 3.2-.5c1-1 1.4-2.5.8-3.2" id="path140"/><path d="m180.5 56.7-.3.8V57c.3-2-3.9-2.5-3.7 2q2.4 1 4.6-.4a7 7 0 0 0-2 3c1.2 2 5.2-.4 3-2v-.3c4-.6.8-5.8-1.6-2.7" id="path141"/><path d="m179 60.6.8-1.1-1.4.3z" id="path142"/></g><g fill="#ebce1f" id="g145"><path d="m108.7 66.4 2.1 3.6 4-1.2q-3.4-.3-6.1-2.4" id="path143"/><path d="m175.2 65.8-2 4.5-4.3-1.7q3.4-.6 6.3-2.8" id="path144"/><path d="m118.3 64.3-1.2-1.6-2 .8q-.1.7-.8 1v.4q2.5.3 4-.6" id="path145"/></g><g fill="#c33" id="g151"><path d="M150 25.1q-3 9.2-4.6 18.7l.3.1.3.2.3.3.4.6.3.7.1.8V48l1 .3q2.4-12.1 7.3-23.3-2.6.3-5.5.2" id="path146"/><path d="M133 25.5q3 9 4.4 18.1l-.4.1-.4.2-.3.3-.3.2-.4.7-.3.7-.1.8v1.6l-2 .4q-1.5-12.1-5.7-23.6 2.6.5 5.5.5" id="path147"/><path d="m160.2 72.4-4.9-.5q-2 0-2.4 1.9c-.4 1.9.8 2.2 2 2.3l4.9.5c1.1.1 2.2-.7 2.3-1.9.2-1.1-.7-2.2-1.9-2.3" id="path148"/><path d="m122 72.5 5-.5c1.1-.2 2.2.7 2.3 1.8q0 2-2 2.4l-4.8.5c-1.2 0-2.3-.8-2.4-2-.1-1 .7-2.1 2-2.2" id="path149"/><path d="m145.7 61.4.3-2.2q-.9-.5-1.6-1.3l-.7.4c.3 1.5 1 2.1 2 3.1" id="path150"/><path d="m135.4 62.2-.3-2c1.4-.3 2.2-.8 3.3-2.3l.7.4q-.8 2.8-3.7 4" id="path151"/></g><g fill="#fff" id="g197"><path d="m141.6 71.3.6 1.6 2.9.4-2.9.3-.6 1.6-.6-1.6-2.8-.3 2.8-.4z" id="path152"/><path d="m110.2 77.2 2.7-.5h-2.8l.8-1.3-1.7 1.6 2 1.4z" id="path153"/><path d="m161 74-.1-.5c-.6-.8-5.6-1-5.9-.7q-.6.3-.4.7c.9.5 1.3.6 2.3.7.4-.7 1.5-.6 2.1.2h.2q.3-.7.7 0z" id="path154"/><path d="m121 74 .2-.5c.5-.8 5.5-1 5.8-.7q.5.3.5.7c-1 .5-1.3.6-2.3.7-.4-.7-1.5-.6-2.2.2h-.2c0-.5-.6-.4-.6 0q-.6 0-1.2-.4" id="path155"/><path d="m172.7 78.2-2.5-1 2.6.5-.5-1.2 1.3 1.7-2 1z" id="path156"/><path d="m142.4 6 4.6-2v3.7l-.4-3z" id="path157"/><path d="m142 7.1 1.7 4.4a6 6 0 0 0-3.8-.2q1.5-.4 3-.5z" id="path158"/><path d="m140 5.8-4.2-1.9v2.8l.3-2z" id="path159"/><path d="M139.7 1.2h4.3l-1.6 3.4.4-3q-1.5-.4-3.1-.4" id="path160"/><path d="m176 46.1 3.6-5.7 1 2.2-.6-2.8 1.5-3.2-2 2.6c-.6-1.1-1.2-1.7-2.3-3l-1.1-1.2-1.5-1.2 2.4-3.2q.8.6 2.2 2.5c-1-1.8-1.4-2-2-2.8l.7-1.2-.4-.6-.9 1.2c-2.1-1.8-3-2.2-5.9-4l.9-1.2-.9-.4-1 1.3c-2-1-5-1.9-7.2-2.2l.5-1.2-.6-.1-.6 1.2-2.4-.2-.2.6 2.3.2-1.5 3-1.3-.1-.3.9 1.2.2-3 6.6-.9-.2-.2 1 .7.1L152 47l1.6-3.9 5.2 2-2.2 6c-2-.5-2-.6-4.2-1l4 1.3-2.7 9 3.5-8.7 1.3.4-1.2-.8 2.7-6c2.7 1.6 3 1.9 5.2 3.5l-1.3 3.1 1.6-3 4.3 3.2q-1.8-2.1-3.9-3.9l4-6.8c2.6 2.3 3.1 2.8 5.2 5l-4 7.7 4.4-7.2q1.5 1.2 2.6 2.7c-1.3 2.4-1.4 2.5-3 5.9 1.4-2 2.2-4 3.3-5.6l1 1.6-.8-2 4.1-6.1-4.3 5.8zm-.6-.4-5-5.3 3.7-5.8c.2.2 3 2.2 5 5zm-6.3-4.6-3.6 6.8c-1.8-1.3-2.9-2-5.2-3.4l3.3-6.8c2.8 1.5 3.2 1.8 5.5 3.4m-10 3-5.3-1.8 3-7c2.2.6 3.7 1 5.8 2zm4-7.8q-2.5-1.2-5.8-2l3-6.4c2.8.8 3.1 1 6.4 2.3zm6.6 3.8c-2.4-1.6-3.5-2.4-5.5-3.4 1.2-2.1 2-4 3.4-6q2.9 1.4 5.8 3.4zm4.3-6.8c-3-2.2-3.1-2.1-5.8-3.7l2.2-3.3c1.6.7 3.9 2 6 3.7zm-6.7-4.1c-3.1-1.4-3.5-1.4-6.4-2.3l1.4-3.1q3.3.5 7.2 2z" id="path161"/><path d="m106.4 46.9-3.7-5.8-1 2.2.6-2.7-1.5-3.3 2 2.6q.8-1.3 2.3-2.9l1.1-1.2 1.5-1.2-2.4-3.3L103 34c1-1.8 1.4-2 2-2.9l-.7-1.2.4-.5 1 1.2c2-1.8 2.8-2.2 5.8-4l-.9-1.2 1-.4.9 1.2c2-.9 5-1.8 7.2-2.1l-.5-1.3h.6l.7 1.2 2.3-.3.2.6-2.3.2 1.5 3.1 1.3-.2.3 1-1.1.2 2.9 6.5h.9l.2.8-.7.2 4.3 11.7-1.6-3.8-5.2 2 2.2 5.9 4.2-1-4 1.4 2.7 9-3.5-8.7-1.3.3 1.2-.7-2.6-5.9c-2.8 1.5-3.1 1.8-5.3 3.4l1.3 3-1.6-2.9-4.2 3.2q1.7-2.2 3.8-4l-3.9-6.7a52 52 0 0 0-5.3 5l4 7.7-4.4-7.3-2.6 2.7 3 6-3.3-5.6-1 1.6.8-2-4.1-6.1 4.3 5.7zm.5-.4 5-5.3-3.7-5.8c-.1.2-3 2.2-5 5zm6.3-4.7 3.6 6.9c1.9-1.4 2.7-2 5.3-3.4l-1.7-3.5-1.7-3.3c-2.8 1.5-3.2 1.8-5.5 3.3m10 3.1 5.3-1.8q-1.4-3.6-3-7c-2.2.6-3.7 1-5.8 2l1.8 3.4zm-4-7.8q2.5-1.3 5.8-2.1l-3-6.3c-2.8.8-3.1.9-6.4 2.3zm-6.5 3.8c2.3-1.6 3.4-2.4 5.5-3.5-1.2-2-2-4-3.4-6-2.2 1-3.9 2-6 3.5zm-4.4-6.8c3-2.2 3.2-2.2 5.8-3.7L112 27c-1.6.8-3.9 2.1-5.9 3.8zM115 30c3.1-1.4 3.6-1.4 6.4-2.3l-1.4-3.1q-3.3.5-7.2 2z" id="path162"/><path d="M158.7 60q-1.3 5.6-8.6 4.4c5.2 0 7.3-2.5 8.6-4.4" id="path163"/><path d="M173.4 63.8c-1.8 3.1-5.7 4-10.4 1.6 4.8 1.2 7.9.8 10.4-1.6" id="path164"/><path d="M124.5 60.4c0 2.2 1.5 6 9.7 4-7.2.4-8.2-2.1-9.7-4" id="path165"/><path d="M110.3 64.7c.9 1.5 6.6 5.2 11.7-1.1a10 10 0 0 1-11.7 1" id="path166"/><path d="M158.8 58.5c-1.5-2.8 1.1-7.2 4.2-5-3.3-.6-4.9 2.3-4.2 5" id="path167"/><path d="M122.3 59c3.3.5 3.4-6.3-.6-5.9 3.4 1.3 2.8 5.6.6 6" id="path168"/><path d="M132.5 56.3c-1.8 2 1.2 4 4.2 1.3-3.7 2-5 0-4.2-1.3" id="path169"/><path d="M132.5 52c-1.4-1.8 1-3.5 3.7-1.5-3.2-1.3-4.3.3-3.7 1.5" id="path170"/><path d="M132.4 52.8c-2.2-1.6-4.3.9-2.9 2.6-.6-1.8.6-3 2.9-2.6" id="path171"/><path d="M144.2 13.9c1.5 1 1.7 1.4 2.1 3.2-.7-1.5-1-2-2-3.2" id="path172"/><path d="M142.7 13h-.7l-.2 2.1 1 1.4z" id="path173"/><path d="M138.2 14v.3q-1 .9-1.3 2.5l-.2-.2q.4-1.5 1.5-2.7" id="path174"/><path d="M136.6 18.3v-.1c4-.8 5.7-1 10.1 0 0 1.2-.1 1.5-.4 2.4-3.1-.6-5-.8-8.4-.2v-.2c3-.5 5.1-.6 8.1 0q.3-.6.3-1.6c-4-1.2-6-1-9.7-.3" id="path175"/><path d="M145 22.8q-3.4 2.4-6.8.2v-.3q3.5 2 6.9-.8z" id="path176"/><path d="M141.8 26.5c.4 0 1.6.8 1.2 2.2-1.5 1-.2-1.2-1.3-1.5-.4-.1-1.2 0-1.2-.3q.4-.7 1.2-.4" id="path177"/><path d="M141.9 32.4c.4 0 1.4.7 1 1.8-1.2.9-.1-1-1-1.3q-.8 0-1-.2.3-.6 1-.3" id="path178"/><path d="M141.7 38c.2 0 .9.4.6 1.1-.8.6 0-.6-.6-.8q-.6 0-.7-.2.2-.3.7-.2" id="path179"/><path d="M139.6 44.4c.3-3.4 4.3-2.1 3.2.5-.7-2.8-2.8-1.7-3.2-.5" id="path180"/><path d="M142.6 46c2.3-3 4.8.6 1.7 4 2.4-4.8-.1-5.1-1.7-4" id="path181"/><path d="M139.5 46c-1.9-2.5-4.4 0-1.6 3.8-2-4.7.4-4.5 1.6-3.8" id="path182"/><path d="M150.3 52.3c1.5-1.6-1-4.4-4.8-1.6 3.4-2 5.3-.3 4.8 1.6" id="path183"/><path d="M150.4 56.3c1.7 1.4-.9 4-4.4 1.6 3.2 1.3 4.9.1 4.4-1.6" id="path184"/><path d="M150.6 52.7c1.7-1 3.4.6 2.4 2.3 0-1.5-.5-2.7-2.4-2.3" id="path185"/><path d="M143.5 56c1.2-3.8-2-6-3.2-4.1 1.5-1 3.5 1 3.2 4.2" id="path186"/><path d="M143.1 55.7c.4-4.2-2.6-4.6-2.5-3.3q2-.7 2.5 3.3" id="path187"/><path d="M176.5 59.9c2.5-.7 2.4 2.9-.3 3.8 1.2-1.2 2.3-3.3.3-3.8" id="path188"/><path d="M183.8 57.5c-.4-2.1-3-2.3-3.7.4.9-1.7 2.7-2.6 3.7-.4" id="path189"/><path d="M180 57.4c.4-2.3-3.3-2.4-3.5 1.3.6-2.7 2.8-3.3 3.5-1.3" id="path190"/><path d="M175 59.2c.3-.7 0-2-.7-2.7s-1.9-1.2-2.7-.2l-.1.5c1-1.9 3.6.3 3.5 2.4" id="path191"/><path d="M171 57.2c-1-1.8-3.4-.8-3 1.3.2-2.2 2-2.3 3-1.3" id="path192"/><path d="M105.5 61c-2.1 0-1.7 3.6 2 4.3-2-1-3.7-3.2-2-4.2" id="path193"/><path d="M105 60c1-2-1.5-5.7-3.4-3.4 2.5-1 3.4 2.1 3.4 3.4" id="path194"/><path d="M101.2 57.8c-.7-1-2.6-1.9-3.2-.3q1.5-1 3.2.3" id="path195"/><path d="M110 58c-.1-2.8-3.6-1.6-3.4 1.7.1-1.6 2-4.1 3.4-1.6" id="path196"/><path d="M114.8 58.7c0-3.2-3.4-2.8-4.1-.4 1.3-1.8 3.6-2.1 4 .4" id="path197"/></g><path d="M78.8 81.8q1.1-.1 1.8-1.2l.3-1.5-1.3-1.6v1l-.6.8a3 3 0 0 1-2.2.4L78 81zm8.5-8.1q-.8-.6-2.4-.5l-2.4.1-.8.1q-.5 1.5-.1 3.3l.1 2.1v.3q0 1-.4 1.8-1.3 2-3.7 1.8l-1.6-.1.6.4q3 2 6.2 2 2.8 0 4.7-2l2.6-3.4q-.2-1.7-.8-3.3t-2-2.6m-3.5-2.2 5.9-4.8c2.3-1.2 3.4.3 4.3 1.5l1.2 1.4 2.2 1c1.5.5 2.7 1 2.6 3.6q-.2 3 .4 4.8a6 6 0 0 0 3 3.2c2.8 1.6 4.2.5 6-.9l1.6-1 .1 1.2q0 1 .5 1.5a9 9 0 0 1-4.5 3.7q-3 .9-6 1.2-3 .1-5.8-1v-.1h-.1L93 85.5l-.8-.8q-1-1.2-1.2-3.9-.1-2.2-.8-4.3a7 7 0 0 0-2.5-3.5q-1-.5-2.9-.5h-2.3zm28.5 11.8a10 10 0 0 1-5 4.1q-2.9 1-6.2 1.3-3 .1-5.8-1 2.2 2 5.2 3 4.6 1.6 11.9-.5c2.3-.7 5-3 7-5.7l1.5-2.6a70 70 0 0 0-8.6 1.4m-34.7-1.4h.2l-.3-.3a8 8 0 0 1-2-2.8q-.3-1 .3-1.4l.4-.3.5-.1.3.2 1.2 1.6.4-.2.2-.3v-.9a3 3 0 0 0-.7-1.4l-.6-.5-.2-.1-.2-.1-1-.2a3 3 0 0 0-2.9 2l-.2 1.2q0 1.5.4 2C74.2 82 76 82 77.6 82m-1-4.1q-.2 0-.3.2l-.2.4v.1h.1q.4.6 1.4.5zm126.9 4q-1.2-.2-1.9-1.2l-.3-1.5 1.3-1.6.1 1q.2.6.5.8a3 3 0 0 0 2.2.4l-1.2 1.4zm-8.6-8.1q.8-.5 2.4-.5l2.4.1.8.1q.5 1.5.1 3.3l-.1 2.1v.3q0 1 .5 1.8c.7 1.4 2.2 1.8 3.6 1.8l1.6-.1-.6.4q-3 2-6.2 2-2.8 0-4.7-2l-2.6-3.4q.2-1.7.8-3.3t2-2.6m-25.5 8.9c1.3 2 2.9 4 5.5 4.8q3 1 6.2 1.3 3 .1 5.8-1a16 16 0 0 1-5.2 3q-4.6 1.6-11.9-.5c-2.3-.7-5-3-6.9-5.7l-1.8-3zm29-11c-2-1.8-5-4.1-5.9-4.9-2.3-1.2-3.4.3-4.3 1.5l-1.2 1.4-2.1 1c-1.6.5-2.8 1-2.7 3.6q.3 3-.4 4.8a6 6 0 0 1-3 3.2c-2.7 1.6-4.2.5-6-.9l-.9-.6v.4c-.2.7-.2 2-1.2 1.7h-.2a9 9 0 0 0 4.6 3.9q3 .9 6 1.2 3 .1 5.8-1v-.1h.1l2.2-1.3.9-.8q1-1.2 1-3.9.2-2.2.9-4.3a7 7 0 0 1 2.5-3.5q1-.5 2.9-.5h2.4q-1.2-.7-1.4-1m6.2 10.3h-.2l.3-.3q1.2-1 2-2.8.3-1-.3-1.4l-.4-.3-.5-.1-.3.2-1.2 1.6-.3-.2-.3-.3v-.9a3 3 0 0 1 .7-1.4l.6-.5.2-.1.2-.1 1-.2a3 3 0 0 1 2.9 2l.2 1.2q0 1.5-.4 2c-.8 1.6-2.6 1.6-4.2 1.6m1-4.1.3.2.2.4v.1h-.1q-.4.6-1.4.5z" fill="#c33" id="path198"/></g></g></g><!-- app4joy --></svg>