<svg width="900" height="600" viewBox="0 0 900 600" id="svg33" xmlns="http://www.w3.org/2000/svg"><g id="g36"><path id="rect1" d="M0 .3h900v600H0z" fill="#FFFFFF"/></g><g id="g35"><path d="M90 517.5c33 0 64.5-13.1 86.4-36l3.6-3.8 3.6 3.8c21.9 22.9 53.3 36 86.4 36 33 0 64.5-13.1 86.4-36l3.6-3.8 3.6 3.8c21.9 22.9 53.3 36 86.4 36s64.5-13.1 86.4-36l3.6-3.8 3.6 3.8c21.9 22.9 53.3 36 86.4 36 33 0 64.5-13.1 86.4-36l3.6-3.8 3.6 3.8c21.9 22.9 53.3 36 86.4 36s64.5-13.1 86.4-36l3.6-3.8v-77.8c-22 23.1-54.2 37.6-90 37.6s-68-14.5-90-37.6c-22 23.1-54.2 37.6-90 37.6s-68-14.5-90-37.6c-22 23.1-54.2 37.6-90 37.6s-68-14.5-90-37.6c-22 23.1-54.2 37.6-90 37.6s-68-14.5-90-37.6c-22 23.1-54.2 37.6-90 37.6S22 423 0 399.9v77.8l3.6 3.8c21.8 22.9 53.3 36 86.4 36" id="path1" fill="#157dc1"/></g><g id="g34"><path d="M900 492c-23.5 22.6-56 35.5-90 35.5s-66.5-12.9-90-35.5c-23.5 22.6-56 35.5-90 35.5s-66.5-12.9-90-35.5c-23.5 22.6-56 35.5-90 35.5s-66.5-12.9-90-35.5c-23.5 22.6-56 35.5-90 35.5s-66.5-12.9-90-35.5c-23.5 22.6-56 35.5-90 35.5S23.5 514.6 0 492v108h900z" id="path2" fill="#e42913"/></g><g id="g33"><path d="M550 98.5V271c0 21-14.1 36.4-33.5 36.4h-43.7a23 23 0 0 0-22.9 19.8 23 23 0 0 0-22.9-19.8h-43.6c-19.4 0-33.5-15.3-33.5-36.4V98.5z" id="path3" fill="#157dc1"/><path id="polygon3" d="M550 140H350V98.5h200z" fill="#e42913"/><path id="polygon4" d="M416.7 152.5h-33.3V140h33.3z" fill="#FFFFFF" stroke="#000000" stroke-width="1.14"/><path id="polygon5" d="M450 152.5h-33.3V140H450z" fill="#FFFFFF" stroke="#000000" stroke-width="1.14"/><path id="polygon6" d="M483.4 152.5H450V140h33.4z" fill="#FFFFFF" stroke="#000000" stroke-width="1.14"/><path id="polygon7" d="M516.7 152.5h-33.3V140h33.3z" fill="#FFFFFF" stroke="#000000" stroke-width="1.14"/><path id="polygon8" d="M550 152.5h-33.3V140H550z" fill="#FFFFFF" stroke="#000000" stroke-width="1.14"/><path id="polygon9" d="M383.4 152.5H350V140h33.4z" fill="#FFFFFF" stroke="#000000" stroke-width="1.14"/><path id="polygon10" d="M433.4 140H400v-12.6h33.4z" fill="#FFFFFF" stroke="#000000" stroke-width="1.14"/><path id="polygon11" d="M466.7 140h-33.3v-12.6h33.3z" fill="#FFFFFF" stroke="#000000" stroke-width="1.14"/><path id="polygon12" d="M500 140h-33.3v-12.6H500z" fill="#FFFFFF" stroke="#000000" stroke-width="1.14"/><path id="polygon13" d="M533.3 140H500v-12.6h33.3z" fill="#FFFFFF" stroke="#000000" stroke-width="1.14"/><path id="polygon14" d="M550 140h-16.7v-12.6H550z" fill="#FFFFFF" stroke="#000000" stroke-width="1.14"/><path id="polygon15" d="M366.7 140H350v-12.6h16.7z" fill="#FFFFFF" stroke="#000000" stroke-width="1.14"/><path id="polygon16" d="M375 127.4h-16.6v-12.5H375z" fill="#FFFFFF" stroke="#000000" stroke-width="1.14"/><path id="polygon17" d="M400 140h-33.3v-12.6H400z" fill="#FFFFFF" stroke="#000000" stroke-width="1.14"/><path id="polygon18" d="M408.4 127.4h-16.7v-12.5h16.7z" fill="#FFFFFF" stroke="#000000" stroke-width="1.14"/><path id="polygon19" d="M441.7 127.4H425v-12.5h16.7z" fill="#FFFFFF" stroke="#000000" stroke-width="1.14"/><path id="polygon20" d="M475 127.4h-16.6v-12.5H475z" fill="#FFFFFF" stroke="#000000" stroke-width="1.14"/><path id="polygon21" d="M508.4 127.4h-16.7v-12.5h16.7z" fill="#FFFFFF" stroke="#000000" stroke-width="1.14"/><path id="polygon22" d="M541.7 127.4H525v-12.5h16.7z" fill="#FFFFFF" stroke="#000000" stroke-width="1.14"/><path d="M550 98.5V271c0 21-14.1 36.4-33.5 36.4h-43.7a23 23 0 0 0-22.9 19.8 23 23 0 0 0-22.9-19.8h-43.6c-19.4 0-33.5-15.3-33.5-36.4V98.5z" id="path22" fill="none" stroke="#000000" stroke-width="2"/><path d="M375.3 170.6a10.8 10.8 0 1 1 17.1 13.3 10.8 10.8 0 0 1-17.1-13.3zm-2.4 20.6a17.7 17.7 0 1 0 21.8-27.8 17.7 17.7 0 0 0-21.8 27.8z" id="path23" fill="#FFFFFF" stroke="#000000" stroke-width="1.14"/><path d="M475.3 297.2a7 7 0 0 1-2.8-4.6c4.1.3 9 2.3 17.3 1.7 11-.9 13.2-4.4 18.8-8.5 4-2.9 8.2-2.8 12-1.7-2.4-3.5-2.9-8-1.3-12 2.6-6.5 5.5-9.4 3.6-20.3-1.4-8.2-4.6-12.5-5.8-16.4q2.8-.2 5.1 1.6a42 42 0 0 0-11.5-13.9c1.4 3.5-.8 14.3.4 17.5 1.5-2 2.5-3.8 3.8-4.3.7 1.7 4.6 14.4.8 20.4-3.9 6.2-11.1 7-19.3 1.6-6.3-4.2-77.2-56.6-91.1-67.3 2.5-4.9 1.1-11-3.3-14.3a11.7 11.7 0 0 0-16.3 2.3c-3.8 5-2.9 12.1 2 16a11.5 11.5 0 0 0 14.7-.2c13.8 10.9 81.7 67 87.3 72.2 7.3 6.7 8.2 13.8 3.1 19.1s-18.2 4.5-20 4.1c.1-1.4 1.6-2.8 3.2-4.7-3.4-.4-13.4 4.3-17 3.8 4.2 4 14 7.6 16.3 7.9zm-74.7-106.9c-2.3 3.2-6.8 4-10 1.7s-4-6.8-1.7-10 6.8-4 10-1.7l.4.4a7 7 0 0 1 1.3 9.6z" id="path24" fill="#FFFFFF" stroke="#000000" stroke-width="1.14"/><path d="M383.5 188a10.7 10.7 0 1 1 4.2-.7 7 7 0 0 0 2.7 4.3q1 .8 2 1.1 3.2-1.7 5.3-4.5a17.7 17.7 0 1 0-10.5 6.4q-2.9-2.6-3.7-6.6z" id="path25" fill="#FFFFFF" stroke="#000000" stroke-width="1.14"/><path d="M422.4 208c-8.9 10-26.2 22.1-26.2 22.1l-3.8-5.4 43.4-48.4 5.7 3.1a175 175 0 0 1-19.1 28.6z" id="path26" fill="#FFFFFF" stroke="#000000" stroke-width="1.14"/><path id="line26" d="m431.2 181.5 7.1 3.8" fill="none" stroke="#000000" stroke-width="1.14"/><path id="line27" d="m429.5 183.4 7.4 4" fill="none" stroke="#000000" stroke-width="1.14"/><path id="line28" d="m427.8 185.3 7.8 4.3" fill="none" stroke="#000000" stroke-width="1.14"/><path id="line29" d="m397 219.7 4.5 6.6" fill="none" stroke="#000000" stroke-width="1.14"/><path id="line30" d="m398.7 217.8 4.8 6.9" fill="none" stroke="#000000" stroke-width="1.14"/><path id="line31" d="m400.5 215.9 5.1 7.3" fill="none" stroke="#000000" stroke-width="1.14"/><path d="m383.4 284.5 2.8-2.3-2-2.5-2.8 2.2c-2.3-1.4-5.2-.7-6.6 1.6s-.7 5.2 1.6 6.6 5.2.7 6.6-1.6q1-2 .4-4z" id="path31" fill="#ea9b00" stroke="#000000" stroke-width="1.14"/><path d="M526.4 196.6q-1.1-3.2-3.4-5.7 2.5-.8 4.6-2.5a15.1 15.1 0 1 0-22.2-19.9 15 15 0 0 0-4.7-4.6c-7.1-4.5-16.4-2.4-20.9 4.7s-2.4 16.4 4.7 20.9q4 2.5 8.8 2.4l-2.8 2.2-4 .7-.1 2.5-1.5 1.2q-1.6-.9-3.2-.1-1.2 1.3-.6 3l-99 77.7 4.2 5.4 99.1-77.7q2 1 3.1.1 1.3-1.4.6-3l1.6-1.2 2.5.5 1.7-3.8 2.7-2.1a15.1 15.1 0 1 0 28.8-.7zm-11.1 14.6a10.4 10.4 0 0 1-12.5-14.5l.6-1.2-2.4-3.2 3.4-2.7c2.3 1.6 5.4 1 6.9-1.3a5 5 0 0 0-.3-6.1 5 5 0 0 0-7.1-.9 5 5 0 0 0-1.7 5.5l-3.4 2.7-2.5-3.1-1.4.4q-4.2.9-7.8-1.4c-3.6-2.3-4-3.8-4.6-6.5a10.4 10.4 0 0 1 20.1-5.5l.1.4.1.4.3 2.1 4.7-.1a10.4 10.4 0 1 1 8.1 10.3l-1.2 4.6 2 .7c5.2 2.6 7.3 8.8 4.7 14a9 9 0 0 1-6.1 5.4z" id="path32" fill="#ea9b00" stroke="#000000" stroke-width="1.14"/><path id="polygon32" d="m384.6 270.8 3 3.9 7.4-5.8-3-3.9z" fill="#ea9b00" stroke="#000000" stroke-width="1.14"/><path id="polygon33" d="m397.8 259.1-2.8-.3-.3-3.7-5.6-7.1-4.1 3.2 5.2 6.8-3.9 3.1-5.3-6.8-4.2 3.2 5.3 6.9-4 3-5.3-6.7-4.1 3.2 5.7 7.2 3.4 1.2-.3 2.7 1 .6 19.6-15.4z" fill="#ea9b00" stroke="#000000" stroke-width="1.14"/></g><!-- app4joy --></svg>