<svg x="0" y="0" width="600" height="400" viewBox="0 0 600 400" xml:space="preserve" id="svg105" xmlns="http://www.w3.org/2000/svg"><g id="g106"><path fill="#D20000" d="M0 0h601.5v400.8H0z" id="path1"/></g><g id="g105" stroke="#000" stroke-width="1.5"><path fill="#008E1F" stroke-linecap="round" stroke-linejoin="round" d="M601.5 400.8c-27.6-54.7-99.3-93.5-183.5-93.5-84 0-155.7 38.8-183.3 93.4" id="path2"/><path fill="#008E1F" stroke-linecap="round" stroke-linejoin="round" d="M366.8 400.8c-27.6-54.7-99.2-93.5-183.3-93.5S27.5 346 0 400.7" id="path3"/><path d="M487.2 394.8c-11.6-31-35-51.7-69-70.4a244 244 0 0 0-117.4-28.7c-90 0-165.8 44.4-188.5 105" fill="#008e1f" stroke-linecap="round" stroke-linejoin="round" id="path4"/><path fill="#008E1F" stroke-linecap="round" stroke-linejoin="round" d="M369.6 400.8c-35.6-35.5-92.8-58.5-157.6-58.5s-121.9 23-157.5 58.5" id="path5"/><path fill="#008E1F" stroke-linecap="round" stroke-linejoin="round" d="M516.8 400.8c-35.9-32.2-90.3-52.7-151.5-52.7-61.1 0-115.7 20.5-151.5 52.6" id="path6"/><path fill="#FFD700" d="M303.8 185.3c-.2-15 9-15.9 13.8-26.5 4.7-10.6 4.5-20.4-10.8-23.2-30.8-1.3-16 39.1-3 49.7zM201.5 176c10.6-10.6 17.8-4.6 28.7-8.6s17.7-11 9.1-24c-20.6-22.9-39.2 16.1-37.8 32.7z" id="path7"/><path fill="#FFD700" d="M206.6 92.6c8 12.7 16.5 8.3 26 14.7 9.7 6.4 15 14.6 3.8 25.4-25 17.8-34.8-24.2-29.8-40.1zm35.2 158.3c4.1-14.5-4.7-17.8-6.5-29.3s.9-20.8 16.4-19.7c30.1 6.7 5.2 42-10 48.9z" id="path8"/><path fill="#FFD700" d="M248.4 240.1c3.4-5.5 2.4-10.8 3.2-16 .5-3 3.8-11.5-1.5-9.9-8.9 2.6-.8 18.2-1.7 26z" id="path9"/><path fill="#FFD700" d="M224 236.3c4.6-14.3-4.2-17.9-5.6-29.3s1.5-20.9 17-19.2c30 7.6 4.1 42.1-11.3 48.5z" id="path10"/><path fill="#FFD700" d="M246.8 201.8c-.2-15 9.1-16 13.8-26.6s4.6-20.4-10.8-23.2c-30.8-1.3-16 39.2-3 49.8zm-45.1 34c5.7-14-2.7-18.3-3.1-29.8s3.3-20.7 18.6-17.7c29.1 10 .4 42.2-15.4 47.4z" id="path11"/><path fill="#FFD700" d="M209.5 225.8c4.1-5 3.6-10.5 5-15.5.8-3 5.1-11-.4-10-9 1.6-2.9 18-4.6 25.5zm-24.2-20.6c9-12 1.9-18.2 4.4-29.7S198 156.4 212 163c25.7 17-10.1 41-26.7 42z" id="path12"/><path fill="#FFD700" d="M195.3 197.5c5.2-4 6.1-9.2 8.7-13.9 1.5-2.6 7.7-9.4 2.1-9.8-9.2-.7-7.2 16.8-11 23.7z" id="path13"/><path fill="#FFD700" d="M167.2 173.2c15-1.8 14.6-11.2 24.5-17.2s19.6-7.2 24.5 7.5c5.5 30.3-36.7 21-49 9.7z" id="path14"/><path fill="#FFD700" d="M179.7 175.2c6.5 1.1 11-2 16-3.2 3-.7 12.2-.9 8.7-5.2-6-7.2-17.1 6.3-24.7 8.4zm239 30c-9-12-1.9-18.2-4.4-29.7S406 156.4 392 163c-25.7 17 10.1 41 26.7 42z" id="path15"/><path fill="#FFD700" d="M408.7 197.5c-5.2-4-6.1-9.2-8.7-13.9-1.5-2.6-7.7-9.4-2.1-9.8 9.3-.7 7.3 16.8 11 23.7z" id="path16"/><path fill="#FFD700" d="M437.7 174.3c-15-1.5-14.7-10.9-24.8-16.8-10-6-19.7-7-24.3 8-5 30.5 37 20.3 49 8.8zm-36.4 61.4c-5.7-13.9 2.7-18.2 3.1-29.7s-3.2-20.7-18.6-17.7c-29.1 10-.4 42.2 15.5 47.4z" id="path17"/><path fill="#FFD700" d="M393.5 225.8c-4.1-5-3.6-10.5-5-15.5-.8-3-5.1-11 .4-10 9 1.6 2.9 18 4.6 25.5zm-27.8 19c-4.8-14.2 4-17.9 5.1-29.4 1.2-11.5-1.9-20.8-17.3-19-29.7 8.2-3.2 42.2 12.2 48.5z" id="path18"/><path fill="#FFD700" d="M358.6 234.4c-3.7-5.3-3-10.7-4-15.8-.5-3-4.3-11.3 1-10 9.1 2.2 1.7 18.1 3 25.8zm-16.5 9c-6-13.9 2.5-18.3 2.8-29.8s-3.5-20.6-18.9-17.4c-29 10.4.1 42.2 16 47.3z" id="path19"/><path fill="#FFD700" d="M334.1 233.5c-4-5-3.7-10.4-5.2-15.5-.9-2.9-5.2-11 .2-10 9.2 1.5 3.1 18 5 25.5zm18-12c-3.4-14.6 5.5-17.5 7.7-29s0-20.9-15.6-20.3c-30.3 5.5-7 41.8 8 49.3z" id="path20"/><path fill="#FFD700" d="M346 210.6c-3.1-5.6-1.8-11-2.4-16.1-.4-3-3.5-11.7 1.9-10 8.8 3 0 18.3.7 26zm-17.9 31.9c-1.9-15 7.3-16.9 10.7-28 3.5-11.1 2.3-20.7-13.3-22-30.7 2.4-11.4 41 2.6 50zm50.6-5.6c-3.4-14.6 5.7-17.5 8-28.8 2.5-11.3.3-21-15.4-20.5-30.5 5.2-7.4 41.7 7.4 49.3z" id="path21"/><path fill="#FFD700" d="M401.3 235.7c-5.7-13.9 2.7-18.2 3.1-29.7s-3.2-20.7-18.6-17.7c-29.1 10-.4 42.2 15.5 47.4z" id="path22"/><path fill="#FFD700" d="M393.5 225.8c-4.1-5-3.6-10.5-5-15.5-.8-3-5.1-11 .4-10 9 1.6 2.9 18 4.6 25.5zm-9-23.5c-9-12-1.8-18.4-4.3-29.7-2.4-11.3-8.2-19.2-22.3-12.6-25.8 16.8 10 41.2 26.6 42.3z" id="path23"/><path fill="#FFD700" d="M374.5 194.6c-5.2-4-6-9.4-8.6-13.9-1.5-2.6-7.6-9.4-2-9.8 9.2-.7 7.1 16.9 10.6 23.7z" id="path24"/><path fill="#FFD700" d="M394.9 194.4c-9-12-1.8-18.4-4.2-29.7s-8.2-19.2-22.4-12.6c-25.7 16.8 10 41.2 26.6 42.3z" id="path25"/><path fill="#FFD700" d="M385 186.7c-5.3-4-6-9.4-8.7-13.9-1.5-2.6-7.6-9.4-2-9.8 9.3-.7 7.2 16.8 10.7 23.7zm53.2-49.1c-13.6 6.2-18.3-2-29.9-2s-20.5 4-17 19.2c11.3 28.6 42.4-1.2 46.9-17.3z" id="path26"/><path fill="#FFD700" d="M428.7 145.8c-5 4.3-10.4 4-15.4 5.6-2.9.9-10.8 5.5-10 0 1.2-9.2 18-3.6 25.4-5.6zM415 164.2c-14.8-2.1-14.3-11.5-24-17.7s-19.5-7.6-24.7 7c-6 30.1 36.3 21.8 48.8 10.7z" id="path27"/><path fill="#FFD700" d="M402.5 165.8c-6.4 1-10.8-2.2-16-3.6-2.8-.8-12-1.2-8.5-5.4 6-7.1 17 6.6 24.5 9zm38.1-47c-14.8 2-14.4 11.3-24.2 17.6-9.7 6.2-19.5 7.6-24.6-7.3-6-30.1 36.4-21.5 48.8-10.4z" id="path28"/><path fill="#FFD700" d="M412.3 126.2c-12.1 9-18.3 1.8-29.6 4.1s-19.3 8.2-12.8 22.3c16.8 25.8 41.2-9.7 42.4-26.4z" id="path29"/><path fill="#FFD700" d="M404.5 136.3c-4 5-9.3 6-14 8.6-2.5 1.5-9.4 7.6-9.7 2-.7-9.2 16.8-7 23.7-10.5zm2.7-65.2C401 84.8 392 81.5 383.2 89s-13 16.3-.4 25.6c27.1 14.6 31.3-28.2 24.4-43.5z" id="path30"/><path fill="#FFD700" d="M405.2 83.7c-1 6.4-5.3 9.7-8 14.2-1.6 2.6-4.6 11.2-7.6 6.5-5-7.8 11.3-14.3 15.6-20.7zm-.9 19.9c-9.8 11.3-17.4 5.8-28 10.5s-17.1 12.1-7.6 24.6c22 21.4 38-18.7 35.5-35.1z" id="path31"/><path fill="#FFD700" d="M398.9 115c-2.7 6-7.8 8-11.6 11.4-2.2 2-7.6 9.6-9.2 4.2-2.7-8.9 14.9-10.6 20.9-15.6zm-17.6-66.4c-3 14.7-12.4 13.6-19.2 23s-8.8 18.9 5.6 25c29.8 7.9 24-34.9 13.6-48z" id="path32"/><path fill="#FFD700" d="M394 86.4c-10 11.2-17.5 5.5-28 10-10.7 4.7-17.3 12-8 24.5 21.7 21.9 38.3-18 36-34.5z" id="path33"/><path fill="#FFD700" d="M388.6 97.7c-2.8 5.8-8 7.8-11.9 11.2-2.3 2-7.7 9.3-9.2 4-2.5-9 15-10.4 21-15.3zM360 37.5c-1.2 14.9-10.6 15-16.3 25s-6.6 19.9 8.5 24.3c30.5 4.3 19.6-37.5 7.8-49.3z" id="path34"/><path fill="#FFD700" d="M362.5 49.9c1.3 6.3-1.6 11-2.6 16.1-.6 3-.5 12.1-5 8.8-7.3-5.6 5.7-17.3 7.6-25zm3.8 18.1c-4.1 14.5-13.4 12.7-21 21.4s-10.3 18.2 3.6 25.4c29 10.2 26.6-32.8 17.4-46.8zm-12-36.3c-8.6 12.2-1.4 18.3-3.6 29.6s-7.8 19.5-22 13.1c-26.2-16.3 9-41.3 25.6-42.7z" id="path35"/><path fill="#FFD700" d="M344.5 39.7c-5.2 4-5.9 9.4-8.4 14-1.5 2.7-7.4 9.6-1.9 10 9.4.4 6.9-17 10.3-24z" id="path36"/><path fill="#FFD700" d="M347.4 56.1c-5.3 14-14.5 11.4-22.7 19.5S313 93 326.1 101.3c28 12.6 29.3-30.5 21.3-45.2z" id="path37"/><path fill="#FFD700" d="M366.2 85.9c-12.1 8.8-7.2 16.9-12.8 27s-13.6 16-25 5.4C308.5 94.5 349.8 82 366.1 86z" id="path38"/><path fill="#FFD700" d="M354.3 90.2c-6.1 2.2-8.5 7-12.4 10.6-2.3 2-10.2 6.7-5 8.7 8.7 3.5 11.9-13.8 17.4-19.4z" id="path39"/><path fill="#FFD700" d="M387 103.9c-13.5 6.7-10 15.4-17.3 24.4-7.2 9-16 13.4-25.6 1-15.3-26.7 27.5-32 43-25.4z" id="path40"/><path fill="#FFD700" d="M374.6 106.3c-6.4 1.1-9.6 5.5-14 8.4-2.5 1.7-11.1 5-6.3 7.8 7.9 4.8 14-11.6 20.3-16.1z" id="path41"/><path fill="#FFD700" d="M386.4 124.8c-12.6 8.3-8 16.6-14.2 26.4s-14.3 15.2-25.3 4.2c-18.4-24.7 23.4-35.2 39.5-30.6z" id="path42"/><path fill="#FFD700" d="M387.5 161.7c-13.7-6.4-18.4 1.8-30 1.7-11.4 0-20.4-4.2-16.7-19.4 11.4-28.6 42.3 1.6 46.7 17.7z" id="path43"/><path fill="#FFD700" d="M378 153.5c-5-4.3-10.4-4.1-15.4-5.7-2.9-1-10.7-5.6-10-.1 1 9.2 17.8 3.7 25.3 5.9z" id="path44"/><path fill="#FFD700" d="M363 187.2c-7-13.3-15.7-9.6-25-16.6-9.2-7-13.8-15.6-1.8-25.6 26.4-16 33 26.6 26.8 42.2z" id="path45"/><path fill="#FFD700" d="M342.8 200c-4.2-14.5-13.4-12.6-20.9-21.5s-10.2-18.2 3.7-25.4c29-10 26.5 33 17.2 46.9z" id="path46"/><path fill="#FFD700" d="M342.8 187.4c0-6.6-3.8-10.5-5.8-15.4-1-2.8-2.8-11.8-6.5-7.7-6.2 7 9 16 12.2 23zm-57.9 10.5 6.8 8.8-.9 28.6c-2.6 19.9-4.6 39.2-11.3 63.3 7 6.8 14.4 5.7 22 5.7s14.9 1 22-5.7c-6.8-24-8.8-43.4-11.4-63.3l-1-28.6 6.9-8.8z" id="path47"/><path fill="#FFD700" d="M311 217.8c-4.1-14.4-13.4-12.6-20.9-21.4s-10.2-18.3 3.7-25.5c29.1-10 26.5 33 17.2 47z" id="path48"/><path fill="#FFD700" d="M311 205.2c0-6.5-3.7-10.4-5.7-15.3-1.1-2.9-2.8-11.9-6.6-7.8-6.2 7 9 16 12.2 23z" id="path49"/><path fill="#FFD700" d="M327.6 212.8c-4-14.4-13.3-12.6-20.8-21.4-7.6-8.9-10.3-18.3 3.7-25.5 29-10 26.4 33 17.1 46.9z" id="path50"/><path fill="#FFD700" d="M327.6 200.2c.1-6.5-3.7-10.4-5.7-15.4-1.1-2.8-2.8-11.8-6.5-7.7-6.2 7 9 16 12.1 23z" id="path51"/><path fill="#FFD700" d="M320 184.2c-1.8-14.9 7.5-16.8 11-27.8s2.4-20.7-13.1-22C287 136.3 306 175 320 184.2z" id="path52"/><path fill="#FFD700" d="M343 168.5c-3.8-14.5-13-13-20.4-21.8-7.3-9-10-18.5 4.1-25.4 29.2-9.5 25.9 33.5 16.4 47.2zM341.6 25c-9.6 11.6-2.9 18.2-5.9 29.4s-9 18.7-23 11.4c-24.8-18.2 12.2-40.6 28.9-40.8zM165.7 135.7c13.8 5.7 18.3-2.7 29.8-3.2S216 136 213 151.2c-10 29-42.3.3-47.5-15.5z" id="path53"/><path fill="#FFD700" d="M162.3 118c15 1.3 15 10.7 25 16.5 10.2 5.7 20 6.6 24.3-8.5 4.4-30.4-37.4-19.7-49.3-8z" id="path54"/><path fill="#FFD700" d="M174.7 115.6c6.5-1.3 11 1.6 16.2 2.7 3 .6 12.1.5 8.7 5-5.6 7.3-17.3-5.8-24.9-7.7zm23-46C204.2 83.3 213 80 222 87.5s13 16.3.4 25.6c-27.2 14.6-31.4-28.3-24.5-43.5z" id="path55"/><path fill="#FFD700" d="M199.8 82.2c1 6.4 5.3 9.7 8 14.2 1.6 2.6 4.6 11.2 7.6 6.5 5-7.8-11.3-14.3-15.6-20.7zm23.3-33.8c3 14.7 12.3 13.6 19.1 23s8.8 18.9-5.6 25c-29.8 7.8-23.9-34.9-13.5-48z" id="path56"/><path fill="#FFD700" d="M245 36c1 15.1 10.3 15.3 15.8 25.5s6 20-9.2 24c-30.5 3.6-18.7-38-6.6-49.4z" id="path57"/><path fill="#FFD700" d="M242.3 48.4c-1.5 6.3 1.3 11 2.2 16.2.5 3 .1 12.1 4.6 9 7.6-5.5-5.2-17.6-6.9-25.1zM264 24.5c10 11 3.8 18 7.3 29.1 3.5 11 10.2 18.2 23.5 10.2 23.9-19.5-14.2-39.9-31-39.3z" id="path58"/><path fill="#FFD700" d="M274.8 31.2c5.6 3.3 7 8.6 10 12.8 1.8 2.5 8.6 8.5 3.1 9.5-9.1 1.7-8.9-16-13.2-22.4z" id="path59"/><path fill="#FFD700" d="M304.9 12.1c-.2 15 9 16 13.8 26.6 4.7 10.6 4.5 20.4-10.8 23.2-30.8 1.3-16-39.2-3-49.8z" id="path60"/><path fill="#FFD700" d="M301.3 24.2c-2 6.3.5 11 1 16.4.3 3-.7 12.1 4 9.2 7.9-4.8-4-17.8-5-25.6zM282 50.4c9.2 11.8 2.3 18.2 5 29.5s8.6 19 22.7 12.2c25.3-17.7-11-41-27.7-41.7z" id="path61"/><path fill="#FFD700" d="M292.2 57.8c5.3 3.8 6.2 9.1 9 13.6 1.7 2.6 7.9 9.3 2.4 9.9-9.3.9-7.7-16.7-11.4-23.5z" id="path62"/><path fill="#FFD700" d="M333.4 55.9c-9 12-2 18.2-4.6 29.6-2.5 11.3-8.5 19.1-22.5 12.3-25.6-17.2 10.5-41 27.1-41.9z" id="path63"/><path fill="#FFD700" d="M323.3 63.5c-5.2 3.8-6.1 9.2-8.8 13.7-1.5 2.7-7.7 9.4-2.2 9.9 9.2.8 7.4-16.8 11.1-23.6zm-74.7-32.4c9.5 11.5 2.8 18 5.8 29.3 3 11.2 9.3 18.7 23 11.4 25-18.2-12-40.5-28.8-40.7z" id="path64"/><path fill="#FFD700" d="M269.2 46.7c6.4 13.5 15.2 10.3 24.1 17.7s13 16.4.6 25.7c-27 14.7-31.5-28.2-24.6-43.4z" id="path65"/><path fill="#FFD700" d="M271.2 59.1c1 6.4 5.3 9.7 8.1 14.1 1.6 2.6 4.7 11.3 7.6 6.5 5-7.8-11.4-14.2-15.8-20.6z" id="path66"/><path fill="#FFD700" d="M250.3 56.7c7.6 13 16.2 8.8 25.6 15.5s14.5 15 2.9 25.6c-25.7 17-34-25.3-28.5-41z" id="path67"/><path fill="#FFD700" d="M253.5 69c1.6 6.2 6.2 9.1 9.4 13.4 1.8 2.4 5.6 10.7 8.2 5.8 4.3-8.3-12.7-13.3-17.6-19.2z" id="path68"/><path fill="#FFD700" d="M278.9 70.3c1.9 15 11.3 14.6 17.4 24.4s7.4 19.5-7.4 24.5c-30.3 5.6-21.1-36.5-9.9-48.9z" id="path69"/><path fill="#FFD700" d="M277 82.9c-1 6.4 2.1 10.9 3.3 16 .7 2.9 1 12.1 5.3 8.5 7.2-6-6.4-17.1-8.6-24.5zm-44.1-12.3c8.8 12.2 17 7.3 27 13s15.8 13.7 5.3 25.2c-23.9 19.4-36.2-21.8-32.3-38z" id="path70"/><path fill="#FFD700" d="M237.3 82.5c2.2 6 7 8.5 10.6 12.4 2 2.2 6.6 10.1 8.7 5 3.5-8.6-13.8-12-19.3-17.4z" id="path71"/><path fill="#FFD700" d="M211.8 93.6c14 5.3 18.2-3.2 29.7-4 11.5-.6 20.8 2.8 18.2 18.2-9.3 29.4-42.3 1.5-47.9-14.2z" id="path72"/><path fill="#FFD700" d="M190.2 147.6c13.7-6 10.7-15 18.4-23.6s16.8-12.5 25.7.2c14 27.5-29.2 30.7-44.1 23.4z" id="path73"/><path fill="#FFD700" d="M202.6 145.9c6.4-.8 9.8-5 14.4-7.7 2.6-1.5 11.4-4.4 6.8-7.5-7.8-5.2-14.7 11-21.2 15.2zm5 65.8c8.1-12.6.6-18.3 2.3-29.9s7-19.6 21.6-13.9c26.7 15.3-7.4 41.7-24 43.8z" id="path74"/><path fill="#FFD700" d="M217 203.4c5-4.2 5.5-9.6 7.9-14.3 1.4-2.8 7-9.9 1.5-10-9.4 0-6.2 17.2-9.4 24.4z" id="path75"/><path fill="#FFD700" d="M209.3 174c14-5.5 11.4-14.6 19.4-23 8-8.2 17.1-11.8 25.6 1.3 12.9 28-30.2 29.5-45 21.6z" id="path76"/><path fill="#FFD700" d="M221.9 172.7c6.5-.6 10-4.7 14.7-7 2.7-1.5 11.4-4 7-7.3-7.5-5.5-15 10.4-21.7 14.3zm46 72c3.9-14.6-5-17.7-7-29.1s.4-21 16-20c30.2 6 6.1 41.8-9 49z" id="path77"/><path fill="#FFD700" d="M230.8 216.4c11.6-9.4 6.3-17.2 11.4-27.6S255 172 267 182c20.7 22.8-19.9 37.4-36.3 34.4z" id="path78"/><path fill="#FFD700" d="M242.3 211.5c6-2.5 8.1-7.5 11.8-11.3 2.1-2.2 9.8-7.2 4.5-9-8.8-3-11 14.4-16.3 20.2z" id="path79"/><path fill="#FFD700" d="M263.7 217.8c3.2-14.6-5.9-17.4-8.3-28.7s-.4-20.9 15.3-20.7c30.4 5 7.7 41.6-7 49.4z" id="path80"/><path fill="#FFD700" d="M269.7 206.7c3-5.7 1.7-11 2.2-16.1.3-3 3-11.8-2.1-9.9-8.7 3.1.3 18.3-.1 26zm-27-18c7.5-12.9-.2-18.4 1-29.9s6.1-20 20.9-15c27.4 14.1-5.6 42-22 45z" id="path81"/><path fill="#FFD700" d="M251.7 180c4.7-4.4 5-9.9 7.1-14.7 1.2-2.8 6.7-10.1 1-10-9.3.3-5.3 17.4-8 24.6zm24 23.2c8.3-12.4 1-18.4 2.8-29.8s7.3-19.6 21.7-13.6c26.6 15.6-8 41.6-24.5 43.5z" id="path82"/><path fill="#FFD700" d="M285.2 195c5-4.2 5.6-9.7 8-14.3 1.4-2.7 7.3-9.7 1.6-9.9-9.3-.2-6.4 17.2-9.6 24.2zm-12-6.6c3.6-14.7 13-13.3 20-22.4 7.2-9.1 9.5-18.6-4.8-25.2-29.5-8.9-25 34-15.1 47.6z" id="path83"/><path fill="#FFD700" d="M272.8 175.7c-.3-6.5 3.2-10.6 5-15.5 1-2.8 2.3-12 6.1-8 6.5 6.7-8.2 16.4-11.1 23.5z" id="path84"/><path fill="#FFD700" d="M253.2 168.1c9.3-11.8 17.2-6.7 27.5-12s16.3-13 6.2-25c-23.1-20.3-37 20.6-33.6 37z" id="path85"/><path fill="#FFD700" d="M258 156.4c2.4-6 7.4-8.3 11-12 2.2-2.1 7-10 9-4.6 3.1 8.7-14.2 11.4-20 16.7z" id="path86"/><path fill="#FFD700" d="M279.7 170.5c8-12.7 16.3-8.4 26-14.8 9.8-6.4 14.9-14.7 3.6-25.5-25.2-17.7-34.6 24.4-29.6 40.3z" id="path87"/><path fill="#FFD700" d="M283.2 158.4c1.8-6.2 6.4-9 9.7-13.1 2-2.4 6-10.5 8.5-5.6 4 8.4-13 12.8-18 18.7zm-68.5-36.2c13.8 6.1 18.3-2.2 30-2.3 11.5 0 20.5 3.8 17.2 19-11 29-42.4-.6-47-16.7z" id="path88"/><path fill="#FFD700" d="M224.5 130.2c4.9 4.3 10.4 4 15.4 5.5 2.9.9 10.8 5.4 10-.1-1.3-9.2-18-3.4-25.4-5.4z" id="path89"/><path fill="#FFD700" d="M235.9 98.4c9.1 12 17 6.8 27.3 12.3 10.2 5.5 16.2 13.2 5.9 25-23.4 20-36.8-21-33.3-37.3z" id="path90"/><path fill="#FFD700" d="M240.6 110.1c2.3 6.1 7.3 8.3 11 12.1 2 2.2 6.8 10 8.7 4.7 3.3-8.7-14-11.5-19.7-16.9z" id="path91"/><path fill="#FFD700" d="M244.2 130.2c14.6-3.3 17.6 5.7 28.9 8 11.3 2.5 21 .3 20.5-15.4-5-30.3-41.7-7.4-49.4 7.4z" id="path92"/><path fill="#FFD700" d="M255.2 124.2c5.8-3.2 11-1.8 16.2-2.4 3-.3 11.7-3.2 9.8 2-3.1 8.8-18.2 0-26 .4z" id="path93"/><path fill="#FFD700" d="M236.7 107.6c15 0 15.8 9.3 26.4 14.1s20.3 4.8 23.4-10.5c1.7-30.7-39-16.4-49.8-3.7z" id="path94"/><path fill="#FFD700" d="M248.8 104c6.2-1.7 11 .8 16.4 1.4 3 .3 12-.6 9 4.1-4.8 8-17.7-4.2-25.4-5.4z" id="path95"/><path fill="#FFD700" d="M263.7 89.2c9.7 11.4 3 18.1 6.3 29.2s9.5 18.7 23.1 11c24.6-18.6-12.8-40.3-29.4-40.2z" id="path96"/><path fill="#FFD700" d="M303.4 61.7c.4 15 9.8 15.6 14.8 26s5.3 20.2-10 23.6c-30.6 2.5-17.4-38.6-4.8-49.7z" id="path97"/><path fill="#FFD700" d="M300.2 74c-1.7 6.3 1 11 1.8 16.2.4 3-.2 12 4.4 9 7.7-5.1-4.6-17.6-6-25.3z" id="path98"/><path fill="#FFD700" d="M335.1 67.6c-6.6 13.5 1.4 18.4 1.1 29.9s-4.7 20.3-19.7 16.3c-28.4-12 2.5-42.3 18.7-46.3z" id="path99"/><path fill="#FFD700" d="M326.7 77c-4.4 4.9-4.3 10.3-6 15.2-1 2.8-5.8 10.6-.3 10 9.2-1 4.1-17.8 6.4-25.3z" id="path100"/><path fill="#FFD700" d="M337.2 147.6c-4-14.4-13.3-12.6-20.8-21.5s-10.2-18.2 3.7-25.4c29-10 26.5 33 17.1 46.9z" id="path101"/><path fill="#FFD700" d="M337.2 135c.1-6.6-3.7-10.5-5.7-15.4-1-2.8-2.8-11.8-6.5-7.7-6.2 7 9 16 12.1 23zM272 149.6c9.6-11.5 17.3-6 27.8-11s16.9-12.5 7.2-24.7c-22.5-21.1-37.7 19.2-35 35.7z" id="path102"/><path fill="#FFD700" d="M277 138.2c2.6-6 7.6-8 11.5-11.7 2.2-2 7.4-9.6 9-4.3 2.9 8.8-14.6 11-20.5 16z" id="path103"/><path fill="#FFD700" d="M302.8 159.1c4-14.4 13.3-12.6 20.8-21.4 7.5-8.9 10.2-18.3-3.6-25.4-29-10-26.5 33-17.1 46.9z" id="path104"/><path fill="#FFD700" d="M302.8 146.5c-.1-6.5 3.7-10.4 5.7-15.4 1-2.8 2.8-11.8 6.5-7.7 6.2 7-9 16-12.1 23z" id="path105"/></g><!-- app4joy --></svg>