<svg width="900" height="600" id="svg38" viewBox="0 0 900 600" xmlns:xlink="http://www.w3.org/1999/xlink" xmlns="http://www.w3.org/2000/svg"><defs id="defs6"><linearGradient id="b"><stop stop-color="#c0c0c0" offset="0" id="stop1"/><stop stop-color="#f7f7f7" offset=".5" id="stop2"/><stop stop-color="#c0c0c0" offset="1" id="stop3"/></linearGradient><linearGradient id="a"><stop stop-color="#d4af38" offset="0" id="stop4"/><stop stop-color="#ffd90d" offset=".5" id="stop5"/><stop stop-color="#d4af38" offset="1" id="stop6"/></linearGradient><linearGradient id="n" x1="25.719" x2="104.84" y1="251.69" y2="373.66" gradientTransform="translate(-745.7 -302.4)scale(1.3268)" gradientUnits="userSpaceOnUse" xlink:href="#b"/><linearGradient id="m" x1="39.346" x2="132.15" y1="221.86" y2="174" gradientTransform="translate(-745.7 -302.4)scale(1.3268)" gradientUnits="userSpaceOnUse" xlink:href="#b"/><linearGradient id="l" x1="228.88" x2="314.68" y1="169.16" y2="227.5" gradientTransform="translate(-745.7 -302.4)scale(1.3268)" gradientUnits="userSpaceOnUse" xlink:href="#a"/><linearGradient id="k" x1="-759.19" x2="-751.8" y1="108.78" y2="108.78" gradientTransform="translate(1493.6 94.7)scale(1.3268)" gradientUnits="userSpaceOnUse" xlink:href="#b"/><linearGradient id="j" x1="-124.18" x2="-116.78" y1="761.95" y2="761.95" gradientTransform="translate(-59.6 -1495.4)scale(1.3268)" gradientUnits="userSpaceOnUse" xlink:href="#b"/><linearGradient id="i" x1="479.12" x2="509.03" y1="557.54" y2="590.98" gradientTransform="translate(-1111.4 -1002.3)scale(1.3268)" gradientUnits="userSpaceOnUse" xlink:href="#a"/><linearGradient id="h" x1="432.55" x2="476.11" y1="600.5" y2="600.5" gradientTransform="translate(-1111.4 -1002.3)scale(1.3268)" gradientUnits="userSpaceOnUse" xlink:href="#b"/><linearGradient id="g" x1="390.13" x2="450.86" y1="608.51" y2="552.53" gradientTransform="translate(-1111.4 -1002.3)scale(1.3268)" gradientUnits="userSpaceOnUse" xlink:href="#a"/><linearGradient id="f" x1="456.64" x2="506.18" y1="616.69" y2="616.69" gradientTransform="translate(-1113.1 -1002.3)scale(1.3268)" gradientUnits="userSpaceOnUse" xlink:href="#a"/><linearGradient id="e" x1="405.04" x2="454.58" y1="616.57" y2="616.57" gradientTransform="translate(-1113.1 -1002.3)scale(1.3268)" gradientUnits="userSpaceOnUse" xlink:href="#a"/><linearGradient id="d" x1="228.88" x2="314.68" y1="169.16" y2="227.5" gradientTransform="translate(-745.7 -204.3)scale(1.3268)" gradientUnits="userSpaceOnUse" xlink:href="#a"/><linearGradient id="c" x1="228.88" x2="314.68" y1="169.16" y2="227.5" gradientTransform="translate(-745.7 -106.2)scale(1.3268)" gradientUnits="userSpaceOnUse" xlink:href="#a"/></defs><g id="g39"><path fill="#c42730" id="rect6" d="M0 0h900v600H0z"/></g><g id="g38"><path d="M92.7 450C64.3 461.6 26.8 474.4 0 466.4V600h900V457c-31.3 9.7-63 18-103.8-7-44.4 17.9-86.4 29.5-112.4 0-38.4 14.4-77 25-118.1 0-38.1 15.6-76.3 27.6-115.7 0-39.4 10.6-70 31.1-120.8 0-34.5 16.8-90 29.5-116 0-38.4 14.4-77.4 34.9-120.5 0" fill="#2e418a" id="path6"/><path d="M94.8 534.2c-29.1 12-67.9 25-94.8 15.7v20.9c24.3.5 53-9.6 75.7-19 43.2 35 82.2 14.5 120.6 0 26 29.5 81.4 16.9 116 0 50.7 31.2 81.4 10.7 120.7 0 39.4 27.7 77.6 15.7 115.7 0 41 25 79.7 14.5 118.1 0 26 29.5 68 18 112.4 0 48.2 29.6 83.7 12.7 120.8 1.8v-11.8c-30.6 9.4-61.8 16.8-101.7-7.6-44.4 17.9-86.4 29.5-112.4 0-38.4 14.4-77 25-118 0-38.2 15.6-76.4 27.6-115.8 0-39.3 10.6-70 31.1-120.8 0-34.5 16.8-90 29.5-116 0-38.3 14.4-77.3 34.9-120.5 0M92.7 479C64.3 490.6 26.8 503.4 0 495.4v20.2c23.8 0 51.5-9.9 73.6-19 43.1 35 82.2 14.5 120.6 0 26 29.5 81.4 16.9 116 0 50.7 31.2 81.3 10.7 120.7 0 39.4 27.7 77.6 15.7 115.7 0 41 25 79.7 14.5 118 0 26.1 29.5 68 18 112.5 0 49 30.2 85 12 122.9 1.2v-11.9c-31.3 9.8-63 18.1-103.8-6.9-44.4 18-86.4 29.5-112.4 0-38.4 14.4-77 25-118.1 0-38.1 15.6-76.3 27.6-115.7 0-39.4 10.6-70 31.1-120.8 0-34.5 16.8-90 29.5-116 0-38.3 14.4-77.4 34.9-120.5 0" fill="#ffffff" id="path7"/></g><g transform="translate(357.8 174.6)scale(.4174)" id="g37"><path transform="translate(-749.4 -305.8)" d="M469.2 6.8H12.3l228.5 263.8z" fill="#c42730" id="path8"/><path transform="translate(-749.4 -305.8)" d="M245.3 573q3.8-7 10-12.3c9.4-8 23-12.6 42.5-12.6H448c10.7 0 17.2-1.3 21-4.7 3.7-3.4 5.7-9.8 5.7-22V14.2l-229.4 265z" fill="#183883" id="path9"/><path transform="translate(-749.4 -305.8)" d="M6.8 14.2v507.2c0 12.2 2 18.6 5.8 22s10.2 4.7 20.9 4.7h150.2c19.5 0 33.1 4.5 42.6 12.6q6 5.3 10 12.3V279z" fill="#0093dd" id="path10"/><path transform="translate(-749.4 -305.8)" d="m6.8 14.2 229.5 265V573q2.5 4.4 4.5 9.3a67 67 0 0 1 4.5-9.3V279.2l229.4-265V6.8h-5.5L240.8 270.6 12.3 6.8H6.8z" fill="#d4af38" id="path11"/><path d="m-742.5-305.3-6.9 5.9L-513-26.7v314.1h9v-314l236.3-272.9-6.9-5.8-234 270z" fill="#ffffff" id="path12"/><path d="M-749.4-305.8v521.5c0 12.9 2.1 21.6 8 27 5.8 5.3 14.3 6.5 25.5 6.5h150.2c18.5 0 30.2 4.1 38.1 10.9 8 6.7 12.5 16.4 15.7 28.2l3.3 12.2 3.2-12.2a54 54 0 0 1 15.7-28.2c8-6.8 19.6-11 38.1-11h150.2c11.2 0 19.7-1 25.5-6.4s8-14.1 8-27v-521.5zm6.8 6.8h468v514.7c0 12.2-2.1 18.5-5.8 22-3.8 3.3-10.3 4.7-21 4.7h-150.2c-19.5 0-33.1 4.5-42.5 12.5a52 52 0 0 0-14.5 21.7 52 52 0 0 0-14.6-21.7c-9.4-8-23-12.5-42.5-12.5h-150.2c-10.7 0-17.2-1.4-21-4.8-3.6-3.4-5.7-9.7-5.7-22z" fill="#d4af38" id="path13"/><path d="m-568 50-1 1.2-2.6 24.6-21.4 9.1h20.4l-1.3 12.6-22.2 8.4h21.3l-1.4 13-24.9 8h24.1l-3.9 37.5-5.6 22.1h3.2l15.2-11.4 15.2 11.4h3.3l-5.5-22.1-4-37.5h24l-24.9-8-1.4-13h21.4l-22.3-8.4-1.3-12.6h20.5l-21.4-9.1-2.6-24.6zm0 10.7.6 7h-1.4zm-1 9h1.8l.6 5.3h-3zm1 6.6 1.6.6.7 6.6h-4.7l.7-6.6zm-3.9 1.5-.6 6.2h-15.1zm7.6 0 15.8 6.2h-15.2zm-5.5 7.7h3.4l-1.7 2.7zm-1 2 1.6 2.6-2.3 3.7zm5.5 0 .7 6.3-2.3-3.7zm-2.8 4.5 2.8 4.4-2.8-.5-2.7.5zm0 5.7 4 1 .7 6.3h-9.3l.6-6.4zm-6 1.7-.6 5.6h-15.7zm12 0 16.3 5.6h-15.6zm-10 6.5h8l-4 4.3zm-1 2 3.7 3.8-4.5 4.9zm10 0 .4 4 .4 4.7-4.5-5zm-5 5.3 4.3 4.6-4.3-1-4.3 1zm0 5 6.2 1.8.7 6.1H-575l.6-6.1zm-8.2 2.4-.6 5.5h-18zm16.5 0 18.5 5.5h-18zM-575 127h13.8l.7 6.5-7.6 8.5-7.6-8.5zm-1 9.1 6.6 7.3-8.3 9.3zm15.8.1 1.7 16.5-8.2-9.2zm-7.8 8.7 9.9 11.1.8 8.2h-21.6l.9-8zm-9 21.3h17.8l-8.9 6.6zm-2.4.5 9.5 7.2-14.1 10.8zm22.6 0 4.6 18-14.1-10.8z" fill="#ffffff" id="path14"/><path d="M-711.5 31.6v36.7l84.4 125h20.5v-8.8h-9.5L-682.7 86l15.7 5.8 60.4 92.8 5.8 8.9h12.2v-8h-6.3l-58.3-88.6 18.7 7 54 89.6h10.5v-7h-5l-50.8-79.4 11.5 4.3 50 82.1h6.8v-6.1h-6.4l-45.7-79.2V87z" fill="url(#n)" id="path15"/><path d="M-614.3 111.3V88l-12.9-6.8v25.2zm-40.4-44.5v29.5l20.2 7.4V77.4zm-37.1-19.6v35.3l24.8 9.2V60.2z" fill="#cfcfcd" id="path16"/><path d="M-696.9 39.5v5l-1.6-.9h-3.7V68l80.8 116.5h5.3l-75.7-112.1V52.8l5.7 3v-5.6l23.5 12.4v22.5l65.3 100.7 2.4-.3-58.3-88.7 6.6 2.5-8-10.9v-16l1.4.8v-5.6l21.5 11.3v25.9l53.5 81.6h3.1l-50.7-79.4 5.4 2-6.8-9.6V86.8h1.4V82l13.2 7v17.4l47.4 80.8h1.3l-45.7-79.1V87z" fill="#666666" id="path17"/><path d="M-711.5 68.3v125h84.4z" fill="#c1c1c1" id="path18"/><path d="m-652.5-40.9 10.2-5.2h13.7l41-23.7s16-5.4 19.5 0c2.4 3.7-5.4 12.2-5.4 12.2l-44 25.4L-637.9 3l-17.3 10 10.3-28.7-25 13.7s-6.5 3.6-10.5 3c-10-1.7-14.7-13.2-26.2-21.1 0 0-5 5.4-9.3 8 0 0 .2-7.6 4.3-11l-7.4-2.4s5.7-5.8 14.6-4.6c9.1 1.3 21.5 15.4 33.8 8.2l26-15c-3.6.3-5.6-2.1-8-3.9" fill="url(#m)" id="path19"/><path d="M-432-79.6c25.6 3.3 30.7 9.8 46.2 17 7.1-.8 16-.2 21.3 3-.7 3.8-1 8-4.7 9.7 7.7 7.5 15.7 14.7 23.1 22.6 1.4 1.4-1.7 2.3-3.3 2.8 4 2.9 8.8 5.4 11.7 9 19 1.5 24.4 7.1 24.4 7.1-9 1.7-20 8.4-20.7 21.8q-4.2-2.1-16.4-24.5c-3 1-5.3 1.8-7.5.1q-11.1-8.7-24-15.3s-2.5 4.2-3.1 8.4c-.8 4.5-5.7-4.5-7-12-40-19.1-49-35.9-50.8-43.7-1.4-6.7 6-6.6 10.8-6" fill="url(#l)" id="path20"/><path d="M-442.5-78a.6.6 0 0 0-.2 1 12 12 0 0 1 6 8.4.6.6 0 1 0 1-.2A13 13 0 0 0-442-78z" id="path21"/><path d="M-429.7-76.8q-1.5.2-1.6 1.7.1 1.5 1.6 1.6 1.6-.1 1.6-1.6-.1-1.6-1.6-1.7" id="path22"/><path transform="rotate(45.7)scale(-1 1)" fill="url(#k)" id="rect22" d="M486.6 165h9.2v148.1h-9.2z"/><path transform="rotate(-45.7)" fill="url(#j)" id="rect23" d="M-224-555.3h9.1v141.7h-9.1z"/><path d="m-481.6-256.8 39.6 40.4c1.8.5 4.8.8 6-1.7l-3.8-23.4-28-28.7z" fill="url(#i)" id="path23"/><path d="M-533.9-215.3h50.6l7.2 19.5h-65z" fill="url(#h)" id="path24"/><path d="M-550.7-242.4c.5 3.9 3.3 8.1 3.3 8.1l-6.4 6.6s-2.8-1.8-11.3-4.8c-9.7-3.5-25 36.6-28.7 37.6-2-6.6 11.7-38.6 25.8-51.7 14.5-13.4 39-26.4 54.8-22.6-12.8 8.6-38.2 21.3-37.5 26.8" fill="url(#g)" id="path25"/><path d="M-499.7-193.8h50.6l7.2 19.5h-65z" fill="url(#f)" id="path26"/><path d="M-568.1-194h50.5l7.3 19.6h-65.1z" fill="url(#e)" id="path27"/><path d="m-532.4-64 17 23.7h6.8l-23.6-23.5zm23.8 23.7 23.5-23.5-23.5 16.8zm0 0 23.7 23.8-17-23.8zm0 0-23.6 23.6 23.6-16.8z" fill="#d4af38" id="path28"/><path d="m-532.4-16.5 23.8-23.8h-6.7zm47.5 0-23.7-23.8v6.8zm0-47.5-23.7 23.7h6.7zm-47.5 0 23.8 23.7V-47z" fill="#ffd700" id="path29"/><path d="m-508.6-87.4-6.7 40.5 6.7 6.6zm0 47.1h47.1l-40.4-6.6zm0 0V7l6.7-40.5zm0 0h-47.2l40.5 6.7z" fill="#d4af38" id="path30"/><path d="M-555.7-40.3h47l-6.6-6.6zm47 47.2v-47.2l-6.6 6.7zm47.2-47.2h-47.1l6.6 6.7zm-47.1-47v47l6.6-6.6z" fill="#ffd700" id="path31"/><path d="M-432 18.5c25.6 3.4 30.7 9.8 46.2 17.1 7.1-.9 16-.3 21.3 2.8-.7 3.9-1 8-4.7 9.8 7.7 7.5 15.7 14.7 23.1 22.6 1.4 1.4-1.7 2.3-3.3 2.8 4 2.9 8.8 5.4 11.7 9 19 1.5 24.4 7.1 24.4 7.1-9 1.7-20 8.4-20.7 21.8q-4.2-2.1-16.4-24.5c-3 1-5.3 1.8-7.5.1q-11.1-8.7-24-15.3s-2.5 4.2-3.1 8.4c-.8 4.5-5.7-4.5-7-12-40-19.1-49-35.8-50.8-43.7-1.4-6.7 6-6.6 10.8-6" fill="url(#d)" id="path32"/><path d="M-442.5 20a.6.6 0 0 0-.2 1.2c2.9 1.5 5.2 4.3 6 8.3a.6.6 0 1 0 1-.2A13 13 0 0 0-442 20z" id="path33"/><path d="M-429.7 21.3q-1.5.2-1.6 1.7.1 1.5 1.6 1.6 1.6-.1 1.6-1.6-.1-1.6-1.6-1.7" id="path34"/><path d="M-432 116.6c25.6 3.4 30.7 9.8 46.2 17.1 7.1-.9 16-.3 21.3 2.8-.7 3.9-1 8-4.7 9.8 7.7 7.5 15.7 14.7 23.1 22.6 1.4 1.4-1.7 2.3-3.3 2.8 4 3 8.8 5.4 11.7 9 19 1.5 24.4 7.1 24.4 7.1-9 1.7-20 8.4-20.7 21.8q-4.2-2.1-16.4-24.5c-3 1-5.3 1.8-7.5.1q-11.1-8.7-24-15.3s-2.5 4.2-3.1 8.4c-.8 4.5-5.7-4.5-7-12-40-19.1-49-35.8-50.8-43.7-1.4-6.7 6-6.6 10.8-6" fill="url(#c)" id="path35"/><path d="M-442.5 118.2a.6.6 0 0 0-.2 1.1c2.9 1.5 5.2 4.3 6 8.3a.6.6 0 1 0 1-.2 13 13 0 0 0-6.4-9.2z" id="path36"/><path d="M-429.7 119.4q-1.5.2-1.6 1.7.1 1.5 1.6 1.6 1.6-.1 1.6-1.6-.1-1.6-1.6-1.7" id="path37"/></g><!-- app4joy --></svg>