<svg width="900" height="600" id="svg126" viewBox="0 0 900 600" xmlns="http://www.w3.org/2000/svg"><g id="g129"><path fill="#ffffff" fill-rule="evenodd" id="rect1" d="M0 0h900v600H0z"/></g><g id="g128"><path d="M0 0v600h92.5l20-20-17.1-17.1L81 577l5.7 5.8 8.6-8.6 5.6 5.7-14.2 14.3L69.6 577l20-20-20-20 17.2-17 14.2 14.3-5.6 5.7-8.6-8.6-5.7 5.8 14.3 14.3 17.1-17.2-20-20 20-20-17.1-17.1L81 491.5l5.7 5.6 8.6-8.5 5.6 5.7-14.2 14.3-17.2-17.1 20-20-20-20 17.2-17.2 14.2 14.3-5.6 5.7-8.6-8.6-5.7 5.7 14.3 14.3 17.1-17.1-20-20 20-20-17.1-17.2L81 405.7l5.7 5.7 8.6-8.5 5.6 5.6-14.2 14.3-17.2-17 20-20.1-20-20 17.2-17.2 14.2 14.3-5.6 5.8-8.6-8.6-5.7 5.7L95.4 380l17.1-17.2-20-20 20-20-17.1-17L81 320l5.7 5.7 8.6-8.6 5.6 5.8-14.2 14.3L69.6 320l20-20-20-20 17.2-17.1 14.2 14.3-5.6 5.7-8.6-8.6-5.7 5.7 14.3 14.3 17.1-17.1-20-20 20-20L95.4 220 81 234.3l5.7 5.7 8.6-8.6 5.6 5.8-14.2 14.3-17.2-17.2 20-20-20-20 17.2-17.1 14.2 14.3-5.6 5.6-8.6-8.5-5.7 5.7 14.3 14.3 17.1-17.1-20-20 20-20-17.1-17.2L81 148.6l5.7 5.7 8.6-8.6 5.6 5.7-14.2 14.3-17.2-17.1 20-20-20-20 17.2-17.2 14.2 14.3-5.6 5.8-8.6-8.6-5.7 5.6 14.3 14.3 17.1-17-20-20.1 20-20-17.1-17.2L81 62.8l5.7 5.8 8.6-8.6 5.6 5.7L86.8 80 69.6 62.8l20-19.9-20-20L86.8 5.7 101 20l-5.6 5.7-8.6-8.6-5.7 5.8 14.3 14.3L112.5 20l-20-20z" fill="#a92211" id="path1"/></g><g id="g130"><g id="g127"><path fill="#b17842" stroke="#b17842" stroke-width="0.9375" id="rect2" d="M463.3 122.3h85v5.5h-85z"/><path d="M505.8 31.2q-6.1 5.8-11.5 12.5c4.3 3.3 7.8 7 11.5 10.4q5.2-5.4 11.5-10.4-5.4-6.7-11.5-12.5zm-36 17.7a46 46 0 0 0-6 11.3q5.3 3.4 10.1 7.4c1.9-4 3.6-8 6-12q-5-3.5-10.1-6.7zm72 0q-5.1 3.2-10 6.8 3.2 6 5.9 11.9 4.8-4 10.1-7.4-2.2-6-6-11.3zm-51.5.2a162 162 0 0 0-12.7 21.6q5.9 5.6 10 11.1 2.5-6.7 6.8-13.3 2.6 3 5 6.1-6.5 10.2-10.2 20.2-6-9.7-14.1-18.3-4.8 11.3-7.6 22.6a236 236 0 0 0-19-31.3c6.1 1.8 9.8 3.7 13.3 6.7l-1.8 2.3 6.4 9.6q2.3-6.9 5.1-13.3c-9.6-9.3-25.1-20.3-41.3-21.5a166 166 0 0 1 33.2 61.6l-.9.3.8 10.2q42.6-4.6 85 0l.8-10.2q-.5 0-.8-.2c7-22 17.4-44.3 33.2-61.7-16.2 1.2-31.8 12.2-41.4 21.5q2.9 6.5 5.2 13.3l6.3-9.6-1.8-2.3c3.5-3 7.1-5 13.3-6.7q-10.8 15.1-19 31.3-2.8-11.2-7.5-22.6a105 105 0 0 0-14.2 18.3 102 102 0 0 0-10.2-20.3l5-6q4.3 6.6 7 13.3 4-5.6 9.8-11c-3.7-7.5-7.4-14.3-12.7-21.7q-8.7 7.8-15.5 16.4-6.7-8.7-15.5-16.4zm15.5 35.2c4 7.2 7.1 15 8.6 22.5q-8.5-.6-17.1 0a77 77 0 0 1 8.5-22.5z" fill="#d1a345" stroke="#b17842" stroke-linejoin="round" stroke-width="0.9375" id="path2"/><path d="m531 118.8 8-2.7-7.9-4-8.2 2.6zm-33.9-4.5 8.7-3.7 8.7 3.7-8.7 3.4zm-16.4 4.5-8-2.7 7.8-4 8.2 2.6z" fill="#b17842" id="path3"/><path d="M548.4 123.6c2.6 1.4.5 4.5 0 4.2-5.4-2.8-23.7-4.7-42.6-4.5-19-.2-37.2 1.7-42.5 4.5-.6.3-2.7-2.8 0-4.2 5.4-2.7 23.6-4.6 42.5-4.5 19-.1 37.1 1.8 42.6 4.5zm1-13.8c1.6.8 1.5 4.5-.3 3.7-5.3-2.3-24.4-4.2-43.3-4-19-.2-38 1.7-43.3 4-1.8.8-1.9-3-.2-3.7 5.2-2.3 24.6-4.2 43.5-4 19-.2 38.3 1.6 43.5 4z" fill="#d1a345" stroke="#b17842" stroke-linejoin="round" stroke-width="1.875" id="path4"/><path d="M358.5 127.4v306.4a36 36 0 0 0 35.3 37h74.8c12.1 0 19.8 4 25 9.4a40 40 0 0 1 9.5 17.6l.5 1.6h4.4l.5-1.6a40 40 0 0 1 9.5-17.6 33 33 0 0 1 25-9.3h74.8a36 36 0 0 0 35.3-37V127.3zm5.6 5.6h283.4v300.8c0 18-13.7 31.4-29.7 31.4H543a39 39 0 0 0-29 11.2c-3.9 4-6.3 8.4-8.1 12.7a39 39 0 0 0-8.1-12.7 39 39 0 0 0-29-11.2h-75c-16 0-29.6-13.4-29.6-31.4z" color="#000000" style="text-indent:0;text-transform:none" id="path5"/></g><g id="g126" display="inline"><g fill="#1f1a17" fill-rule="evenodd" stroke="#1f1a17" stroke-width="0.28037" id="g8" display="inline"><path d="M501 201.4c1-2.5 3-4.3 6.3-3.8 2 .2 2.6.4 4 1.8.8.7 1 3.1 1.5 3.4-1.1 2.3-5.8 2.2-7.7 1.1-1.6-.9-3.5-.4-4.2-2.5z" id="path6"/><path d="M485.6 300.2q-3.9 0-6.9-2.3c-2.4-1.8-5.3-4.3-5.6.1-.2 1.8-3.8-5-3.8-2 0 .7-.5 3-.2 3.5 1.5 2.4-7.3-2.7-8.2-3.3-2.2-1.6-3.2-4-5.1-6-.7-2-4.1-7.3-5.5-9.5-2.8-4.5-5.8-4.4-6.4-6-1.8-4.6-8.2-18.3-14.7-14.3-2.6 1.6-1.5-11.5-1.5-14.3 0-9.4.3-18.4 10-7.8 10.6 11.4 16.3 17.6 30.8 23.7 6.4 2.6 10.2-9.2 15.6-9 10.2 12.3 14 36 1.5 47.2z" id="path7"/><path d="M504.2 380.9c-1-.6-2.7-4.2-5-4V391c0 3.9-2 7.7-1.2 9-2.1-.9-3-4.5-3.6-4.4-.4.4.7 2.9 1 6.7.8 7.6 3 13.2 1 15.6-.8 1-5.2 2.2-7.6 4.3-3.7 3-7 7-7.7 7.4-4.4 2-7.9 1.9-17.7 1.9a27 27 0 0 0-14.2 4.4c0-1.5.1-2.2.6-3.7.6-2.3 2-2.7 2-2.7-.2 0-3 .4-5.7 2.8-2.6 2.3-1.8 2-1.9 2-2.3-3.4 4.4-8.2 3.8-8.4-1.7-.7-6.9 3.7-8.2 4-.7-2.8 7-8.4 7-8.2-.2.8-6 2.6-6.8 3-.1-.7-.2-2.6 2.7-4.2 4.8-2.5 8-3 14.3-3.4 4-.2 7.3.2 9.5-.7a12 12 0 0 0 5.1-3.6 14 14 0 0 0 2-12.7c-1-2.8-2.4-4.2-2.8-5.2-1.2 1-2.7.8-3 2.7-1.8-2.3-2-7.1-3.2-8-.9-.6-3.4 2.5-3.8 4.7-.4-4.4.3-13.3-.7-13.5-.7 2-2.1 2.1-3.8 3q1-1.3 1.8-3.9c1-3.5.5-8.5.6-9.7.2-7 2.1-13.5 4.5-17.9 3.5-6.4 12.3-9.1 17.7-13.7a48 48 0 0 0 12.8-19.4c1.3-8.5-5.3-12.2-6.4-11.3q-.7-.6-1.2-1.3c-3.2-4.1-1-10.4-3-15.3-1.2-3.2-2-5.9-3-4-.8-1.9-.7-1-1.2-4.4s2.5-16.2 2-16c-2.9.8-3 1.8-4.5 2.1 1-2 2-3.3 3-5.5 1.4-3 3.6-8.2 4.7-10.3 1-2.1 4-6.2 4.4-7-2.1.7-4.5 3.1-5 3.2-.2-1.3 3-5.4 3.1-9.4 0-2.5-2-4.5-3.5-6a9 9 0 0 0-6.1-2.4c-1.5 0-2.5 1.2-3.1 1.3q-.8.2-.8-3.6c0-.7 0-1.5.6-1.6 1.2-1 4.3-1 7-.2 1.8.5 3.6 2 4.5 2.2 6 1.4 7-4 3-6.6-2.2-1.4-6-1.1-9.4-1-2 .1-3.9.8-5.3.5-.7-.2-1.5-1.3-1.8-1.9-.4-.7-1.1-2.5-2.3-3.8-1-1.3-2.5-2.3-2.6-3.4 0-.5.7-1.3 1.1-1.6 3-2.3 9.3-3.7 14-4.5 3-.5 4.5 0 6.8-1.4 2-1.2 6.1-4.5 8.4-4.7 3-.1 6.5.4 9.7.9 1.1.1 2 .7 3 .7 4-1.1 10.4-5.3 12.6.5q.6 1.6 1 3.9-.2 1.2 0 2c.2.6 2 .7 3.3 2 3.6 3.4 9 10 10.8 11.8q1.6 1.8 1.5 2.2c-.2.3-2-.4-2.5-.1q-.3.6.8 3c1 2.5 6.9 4.6 9.5 6.2.6.4 1.4 1.5 1.3 1.9-.7 0-3.6.2-2.6 2.8q.5.7 3.8 1.8c4.1 1.4 9.4 5.7 10.5 7.1l2.5 3.4c.8 1 1.8 1.8 0 2-.4 0 .2 2.7 1.4 2.7-12 16.5-21.5 34.1-10 53.2 3.1 5.3 20 14.7 26.6 12.2 1.3 1.5 6.9 7.5 5.9 10.6-1.6-.6-1-1.2-.8.6l.4 5.4c.3 3.2-2.1-.3-3.9-.3-2.5 0 .3.8 1.7 2.8a64 64 0 0 1 4.2 17.2c.4 3 4.6 5.5 5.8 7-3.1-1-.8 4.8 2.4 10 2.3 3.8 5.2 7.7 7 11.3 1.1 2.6 5.1 10 3.2 12.6-1 1.3-3.2 2.5-5.2 5a37 37 0 0 0-7.6 18.2c-.7 8-9.2 8.6-15 10.1-2.8 3.4-3.4 3-4 3-.9-1-.5-2.2-.3-5 0-.3-1 .8-2.4 1.5-2 1-4.8 2-5.3 2.2-.2-.9 1.2-3.7 1-3.4-.3.5-1.8.6-3.2 1.3l-3.1 1.8c0-1.1-.7-.2 0-2.8l.6-1.9c-.1 0-2.6.3-3.6 1.2a9 9 0 0 1-3.2 2c0-1 .8-3.5 2.1-5.2 1.5-2 3-3.8 5.4-4.4 2.6-.6 5.5-.3 7.7-2.4 2.9-2.8 7-8 8.2-12.5 1.9-7.1.8-17-7.8-19.1-1.3-.3-.8 1.8.6 3.1-1.1 1.5-5.5-4-6-3.4-.1 1.3 0 3 1 4-.9.2-1.8-1.3-3.5-2.6-3.6-2.7-4.4-2.8-8.4-2.8 4.8-6.5 9.6-14.3 4.5-23.8-15-28.2-40.6-4.4-50.7 9.4a20 20 0 0 0-3.8 8.7z" id="path8"/></g><g stroke="#1f1a17" stroke-width="0.28037" id="g11"><path d="M511 205.5c2.4.8 4.3-3.4 7.5-1.6 2 1.2 2 3.5 2 5.6" fill="none" id="path9"/><path d="M581.4 324.2c1.9 1.2.6.5 2 2.4l-.8-.2c2.4 2.7 2.1 1 3.2 4.5-1-.6-1.7-1.8-2.9-2 1 1.3 2 3.4 2.1 5l-1.7-1.9c0 1.7 2.1 3.6 1.6 6-1.4-1-2-1.7-3.8-2.3l.4 1.4c-1-.5-4 0-5-.4l1.6-13c1.1.4 2.1-.3 3.3.5z" fill="#a92211" fill-rule="evenodd" id="path10"/><path d="M502.6 207.7c-1.8.5.8 2.4-1.8 2.8-1.8.3-3.3 1.2-5.3 1.2" fill="none" id="path11"/></g><g fill="#a92211" fill-rule="evenodd" id="g14"><path d="m486.2 235.9.8-.5.2.6.8-.5-.4 1.1 1.2-.9v1.3l-.4 1.2h.3c-.2 2-.5 4.3-.3 5.5l6.3-2.1.2.7-.5 1.3.7-.5.3.7-.8 1.5 1-.9.2 1 2.2-1-1.3 2-.5.6-.5 1-.8-.4-2 1 .3-4-2.5 1.8-1.3 2.3 1.3-.3-5.7 6.7c-2 3.2-4.3 6.6-6 10l5-2.9.1 2.2 4-6.5-.2 6.8 2-3.8.9-1.6c.9 2 .5 2.6 1.4 6l1.4-4 .3 3 1-2.2.6 2.1.6-2 .8 1.8 1.2-2.2.7 1.2 26.8-4.1.2-2.1-.2-1.3 3.1-5v.7l1.2-1.6-4.2-5.8-.7 3.2-5.8-4.7v2.5l-.9 3-1.4-1.5-1.3-2.5-.5 1.6-1.4 1.7-1.6-1-.2-1 1.8 1.1 1-1 .2-2.2h.6l2.6 3.5.4-2.3-.2-3 5.5 3.8.2-4.1 1.4.8.2-.7 4.3 4.6.3-3.6 2.6.7-2-3.5 5.2 2.4-1.9-3 6.9 2.3-4-4.8 5.6 2.4-3.6-4.7 5 2.4-4.7-4.2h.9l-7.3-4.2 3.8.9-1.7-3.5 2-1-3.5-3.3-1 2.6-4 .7.5 1.3-2-.3.3 2.4-1.5-.8 2.1 2.6h-.5v1.3l-2.4-1.3v3l-2.9-1.6.3 3.7-3.8-2.3-.8 5.6-3.2-3.8 2 .9 1.2-4 3.1 1.6.5-3.3 2.8 1.8-.7-3.8 2 1-1.3-2.1 2.2.3-.9-2.7 2.1.6s-1-1.4-.7-1.4h3l-1.9-2 3.8.7-2.3-1.6.6-.1 2.4-.2c-.5-1-2.9-.8-2.2-2.5.2-.6-2-2-2.7-2.2v-.7h1.2c0-.5-1-1.5-1.6-1.5l-3.2-1.2c-1 0-1.2-1.2-1.1-2.2l-.2-2.6c-.3-3.1-.8-4-2.5-5-3.4-2.1-10 1.7-10.2 1.5-.6 0-6.6-1.3-8.7-1.6-1.9 0-3.4-.3-4.6 0-4.8 1.5-5.4 4.6-9.7 5.5-5.5 1-7.5 1.3-11.5 2.2-3 1.1-3.7 2.4-4.3 5.2a6 6 0 0 0 3.4 7c1 .2 10.7-1.1 12-1 4.4.2 10.1 8 6.3 10.5-2.5 1.4-13.2-3-16.8-3-3.8 0-2.8 2.8-1.8 2.6 2.8-.5 1.5-.6 4.2 0s6.6 1.2 8 3.5z" id="path12"/><path d="M574 343.9c-.2.1-1.7-.3-2.4-.3 1 1.6-1.8-.8-2-.8-1.7-.4 5.7 5.8 4.6 5.3.3.8 1.8-12.3 5-10.4a21 21 0 0 1 6.2 11.3c0 .8-2.4-1.3-2.2-.6.5 1.5 2.6 4 3 5.3.2.7-3.3-.7-3 0 2.6.3 2.6 2.8 3.8 4.7l-1.7-.2 4.4 5-5-3.4 5.3 5-4-1.5 5.1 3.7-6-2 7.6 5.4-6.2-.4 7.6 3.5h-5.5c.6 1 4-.2 6.9 2.5 1 .9 2 3 3.2 4.7l3.9 6.8 2.3 4.4c.3.5.9 5.5.2 6a41 41 0 0 0-10.5 15l-.9 3.6c-.6 2-2.2 8.8-3.8 10-1.7 1.2-1.4 1.3-3.2 2l-.4 1-.3-1-1.4.7-.6-1-1.4 2-.4-1.9-1.2 1.5-.3-1.3-.9-.4-3 1.1 2-3c-5.8 4.3-4.6 3-5.8 1.1 0 0-1.6.1-1.6 0-.2-.3 4.4-3 4.2-3.3 0-.2-4.5 2.2-4.7 2.2l-1.3.7-1.6-.7-.3-.5 2.6-1.3 3.3-2c1.2-1.3 2.8-2.2 4.9-4.5-1.9-.6-5.7 3.6-7 4.6l-3.7 1.7-1.2.4-.5.2-.8-.3-.6-1.8 2.8-.5 1.3-.5 2.2-1.4-.9-.2 5.5-3.3-2.1-.3 3.6-1.4-1.7-.8 4.4-6h-1.4l2.2-1.4H579l2.6-2h-1.4l2.4-1.6H581l2.6-2-2-.5-1.8-1.6.5-6.5-1.3.2.5-2-1.3 1.2v-3.4l-1.2 2.2-.7-2.2.9-2.6-1.6 2.4.3-4.4-1 3.2-.8-5.1-.2 5-1.9-6.6.5 5.5-2.8-4.2.8 5-3-3.8.6 4.9-4.3-5.5q-.2 2.6.3 5.6l-7-3.5 1.2-6.2 6-3.2 5.9-9.3c3-7 .6-22.2 6-27.4q1.6-.5 2.7 0c.5.4-4.8 5.3-4.8 5.4z" stroke="#1f1a17" stroke-width="0.28037" id="path13"/><path d="m459.3 290.3.6-3.5c.4 1.3 1.1 4.6 1.5 5.6v-5l1.7 6.6.4-4 1.3 5.1v-4l3.9 8.5c0-.2-.2-6 .4-8.3l1.1 3.4.9-3 .3-.4.9.4.4 1 .7-.4 1 .5.8-1 1 1.8.8-1 .7.9.8-.4 1 1.7 1.1-.5 2.2 4v-.6c-5-12-5-28.6.2-41.5-2.4 1-9 6.8-11.5 7.4-1.4 0-1.1-.2-4-1a37 37 0 0 1-16.6-9.4c-4-3.8-15.6-18-18.9-17.2v2c0 1.4-1 1.4 0 3q.7 1.3 1.7 2.7c1.6 2.8 0 3.1-.1 6.6-2.6 1.7-3.3 7.5-.7 9.6 1 .7 2.5 0 4 1.4 1.4 1.4 4.2 5.4 4.6 6 .8 1.2 1.6 6.3 3.6 8 1 .9 2.7-1.4 3.6 0q5 7.6 10.5 15" id="path14"/><path transform="translate(-62.2 -34)scale(.31152)" stroke="#1f1a17" stroke-width="0.9" id="polygon14" d="m1961.8 888.8 26 13.9-13.3-2.9 9.6 6.9-17.8-3.4 19.7 8-14.5-2.9 23.5 10.9-14.5-3.7 15.1 8-11.5-1.3 12.7 6.2-10.2-1.4 8.4 5.4-42.3 14.2-43.7-1.6-12.1-16.6 4.8-8.1 7.3-4.5 5.1-3.5.6-5.1-7.9 1.9 12.7-16.9-13.3 6.1 6.4-7.2 10.2-3.2 4.6-2.4 14.8-.3-1.5-5.9 34.7 12.3z"/></g><g fill-rule="evenodd" id="g17"><path d="m501.1 354.6.3 1.1c-1.8.5-2-3.1-3.8 3.5l-1 .3-.3 2-1-.2-4.2 4.1.2 1.7-3 2.6v.8l.4-.8c1 0 1.9 3.1 1.9 3.8 0 1.3-1 1-.3 2.4l.3-.5c2.5.4-.4-1.1 2.5-.3 1.7-2.5.7-6.6 2.9-9 .9-.9 2.7-6.4 3.7-7 1 0 3.3 1.5 3.9 2.5-.1-3.3 2.3 4.5 1.5.2-.8-4.1-.6-2.6.8.2 1.6 2.8-.6-4.1-.4-4.3.2-1 2.4 5.9 2.8 3.1 0-1-2.5-5.9-1.5-5.4.3.3 3 6.4 2 2.5 0-.2-2.4-7.3-.6-3.3s.3-2-.3-3.2l.1.9-2.2-.2-.7-1-.6 1.7-.8-.4.1 1.2-.2-.2z" fill="#1f1a17" id="path15"/><path d="m488.3 370.5.9 7.4-.5.2-2.6-2.3-1 .1c0 1 1.6 5.3 1.6 7v1.4c0 .7 0 .5-.4 1l-1.6-1.5-.2.2-.3 2-.7.3 1.4 1.1v2h.3l.4-.5.3-1 2.3-.8.1-1 .2-.2-.4-2v-1.6c0-1 0-.5.5-1.1l1 2.1c1.3-.5.7-5.9.7-7.4-.7-1.5.3-1.1.3-2.4 0-.7-.9-3.8-2-3.8z" fill="#1f1a17" id="path16"/><path d="m561.2 433 6.4-5c.8-5.7-6.9 2-6.4 5" fill="#d1a345" id="path17"/></g><path class="fil0 str4" transform="translate(-62.2 -34)scale(.31152)" fill="none" stroke="#1f1a17" stroke-width="8" id="polyline17" d="m1740 988.4-6.9 36.1 10.9-11.9"/><g fill-rule="evenodd" id="g21"><path d="m567.2 433.2 5.8-3.5c1.3-5.2-7.4.6-5.8 3.5" fill="#d1a345" id="path18"/><path d="m556 431 7.3-5.6-1-1.6h-.9c-2-.4-5.5 6-5.4 7.2" fill="#d1a345" id="path19"/><path d="M511.2 206c.1 2.4 3 3.2 4.7 1.7l-.7-1.6.4-.3 2 .8.9-.8c2.7.3 1.5 2.8 2.2 3.8 1.2-1.9-.5-5-2.8-5.8-1.9-.7-5.8 1-6.7 2.1" fill="#1f1a17" id="path20"/><path d="m502.2 200.7 7.5.6h.5l.8-.1c-.3-1.3-2.7-2.8-4.2-2.8h-1.3c-1.2 0-3.4 1-3.3 2.3" fill="#a92211" id="path21"/></g><g fill="none" stroke="#1f1a17" id="g31"><path d="M495.9 211.9c1.2 0 1.9 0 2.9-.4.3 0 .5-.4.9-.4.6 0 3-.7 3-1.2s-.5-.9-.5-1.5.5-.6.8-.8" stroke-width="1.2461" id="path22"/><g stroke-linejoin="round" id="g30"><g stroke-width="1.2461" id="g29"><path d="M509.3 211h1.9" id="path23"/><path d="M507.9 212.5q1.3.1 2.4.4h.9" id="path24"/><path d="m506.9 214.2 2.1.2 1-.1" id="path25"/><path d="M505.2 215.8c.5 0 .5.1.9.3q1 .2 2.3.1" id="path26"/><path d="M504 217.2q2 .7 4 .6" id="path27"/><path d="M501.5 218c0 .6 2.5.9 3.4.9" id="path28"/><path d="m499 219.3 1.2.4q1.5.4 3 .4" id="path29"/></g><path d="M457.8 277.7a19 19 0 0 0 1.7 4.6l.6-2.6 1.4 5 .9-4 1.3 4.8c0 .1 1-2.9 1-2.6l1.5 4.3.6-3 1.4 2.7.4-2.4.8 2.3s.1-2.6.4-2.2l1.4 2.4.2-2.4 1.1 1.6s.3-2.6.4-2.5l1 2" stroke-width="0.62305" id="path30"/></g></g><g fill="#d1a345" fill-rule="evenodd" id="g34"><path d="m448.3 425.1 2-.8.3-.2c-.1-.8-.6-1.6-.6-1.6l-1-.3c-2.6 0-6.4 2.8-6.6 5 3.3 0 2.8-1.8 5.9-2" id="path31"/><path d="M451.5 428.1v-.5l.2-.3-2.9-1c-1.8 1.2-4.2 3.3-3.6 5.8 1 .1 2.1-.8 2.7-1.5 1.4-1.3 1.6-.8 3.5-1.6z" id="path32"/><path d="M453.8 428.7c-1.8 1.1-3.6 3-3 5.4 1 .2 1.9-1.3 2.5-2 2.7-1.3 6.4-.1.5-3.4" id="path33"/><path d="M441.3 423.8c.9-.4 3.8-2 6.2-2.7l.3-1.2-.2-.9c-2 .5-6.6 1.8-6.3 4.8" id="path34"/></g><g fill="none" stroke="#1f1a17" stroke-width="0.62305" id="g41"><path d="M473.2 217.6q-.5.7-.2 1.6v.3" id="path35"/><path d="M474.5 218.1c-.3.5-.2 1.7.2 2.2" id="path36"/><path d="M475.5 218.3c-.2.5-.1 2 .8 2" id="path37"/><path d="M476.8 218.2c-.7.7.3 1.9.8 2" id="path38"/><path d="M478 218c-.9 1 .4 2.2 1.2 1.8" id="path39"/><path d="M479.3 218.2c0 .6.3 1.6 1.2 1.3" id="path40"/><path d="M480.6 218.2c0 .3.4 1 1.1 1" id="path41"/></g><path d="m480.4 339.6-6.6 4a37 37 0 0 0-8.7 10c-3.2 4.6-3.8 9.7-4.7 15l.1 3.7 1.5-3.4-2.5 7.4 4.6-7.2-3.7 9.4 4.7-7.3-3.3 10.7 5.4-9.4-6.4 15.1 6.3-12.3-5.4 14.7 5.5-13-3 11 4-8-2.4 9 2.9-6-2 8.6 2.8-6.5-1.7 9.6 3-6.7-1.8 7.3 2.8-4.6-.3 4.7 1.8-1.6v3.7c.5-.3 1.3-1.6 1.9-2.1l-1 4.6 2-2.6-1 4.5c.7-.6 1-.5 1.7-1l-1.3 2.7 1-.2-1.6 2.3 1.3-.6-1.6 2 1.8-.3-2.3 1.7 2-.2-2.7 1.6 2.6-.4-3 1.6h2l-2.6 1.3 1.6.8c-1 .5-1.6 0-2.6.5l1.7.9-3 .3 4.2 1.6-5.4-.8c-3.2 1.4-2.4 1.4-9 1.8-4.8.3-5 .5-9.8 2.1.3.7 0 1.2.3 1.5.6 1 1.3 1 1.5 1.2.4.9 1.2.7 1.5 1.8.3 1 0 2.7.6 3.4l1.6 1.2q.9.9 1.8 1.2c1.1.8 1.6.6 2.8.7l.8-.8.3-.6.5-.4v.8l-.5 1 .4.4 1.7-2 .2.5-.3.6-.4.9h.4l.8-.9.3-.7.4-.4.4.2-.4.6-.7 1.2h.6l1.2-1.1.5-.6-.8 1.6h.6l1.5-1.6c0 2.9 4.3 1.1 6.7 1.2 3.4 0 5-1.4 7.6-3.5 2-1.8 3.1-4 4.6-5.2 4.5-3.4 8.6-3.8 9-6.2.6-6-1.8-12.3-2-17.3 0-1.7.1-1.9.5-4 .2-.5 2 1.6 2.7 3.5.2-1.7-.6-6.1-.8-6.8l1.7 1.8c.2-2.4-1.1-4.6-1.7-6.8.5.9.6.5 1.6 2.2-.2-2-2.1-6-2.1-7 .8.6 2 2.9 2.3 3.2q.1-.4-1.2-6.6l1.3 2.8-.8-5.1.9 1 .1-2.8 1.5 1.4.3-2.4 1.8 3.8-.5-4.3 2 5.8-.3-5.8 1.3 1.4-1.1-5.4c1.5 3.3 1.4 3.1 2 3.8-.2-1.4-1-3.4-1.2-5.4l1.4 2.2-.7-5 1.3 2.4-.2-2.8 1.5 2.9.5-2 .7 5.9 2.6-7.6-4.3-23.8.7-1.5-5.7-11.9-1.4.9-1.1.5c4.8 7 9.3-6.7.5-.3l-5.5-7.7-.4 7.8-.6-4.5-.5 4.7-.9 4.3h-.6l.5-4c-1 2.5-.8 4.6-1.7 7.2V329l-1.2 5.6-.3 1-.2-4.3-.9 4-.8 1.7.2-4.4-2 6 .7-4.3-2 7 .3-4.5-2 5.8v-4l-2.6 4.7z" fill="#a92211" fill-rule="evenodd" stroke="#1f1a17" stroke-width="0.28037" id="path42"/><path d="m481.3 282.3 2.3 4.3.8-5.2 1 3 1.5-5 1 2.5 1.7-3.5 1 3.4 3-7.3-2.7 3.9-.6-4.2-2.2 4.2-1.1-1.7-1.2 4.2a35 35 0 0 0-.6-8c-.8 2.2-1 4.4-2.6 8.8l-.6-4.4-3.5 6.5 2.8-16.4 1.7-3.7 1.1 3.3 2.6-5.4-.3 7.4 3.4-5.4 2.3 4.7 2.9-5 .3 3.1 1-2.8.5 1.1 1.4-2 .6.3 1-1.3 2.5 63.6-2.7-2.6c.3-6.5-1.6-2.4-1.5-9.8l-.5 7.2-1.2-5.4-1.4 2.7.4-7-1.5 2.3.6-3.9-1.8 1.7.3-5.5-2 3.3-.5-5.8-1.4 3.5-.2-5.3-2 5-.4-7.8-1.4 2.3-.4-8.6-2.2 1.1z" fill="#a92211" fill-rule="evenodd" stroke="#1f1a17" stroke-width="0.28037" id="path43"/><g fill="none" stroke="#1f1a17" stroke-linejoin="round" stroke-width="0.93457" id="g49"><path d="M599.4 390c.8 1.2 2.2 1.4 2.6 3l.3 1.8.2 1.4" id="path44"/><path d="M598.5 392.3c.7.8 2 2 2.3 3q0 .6.4 1 .3.6.3 1.2" id="path45"/><path d="M598.3 394.2q1.7 2.2 2 4.9" id="path46"/><path d="M598.2 396.3c0 1 1 2.2 1.3 3.1q.4.7.4 1.4" id="path47"/><path d="M597.2 398q.1 1 .6 1.8.4.3.4.6.3.8.3 1.6" id="path48"/><path d="M596 400.1q.3 1 .7 1.7a9 9 0 0 1 1.2 2.4" id="path49"/></g><path d="m596.8 404.4-1 .1v-.3h-.1v-.3h-.1v-.1l-.1-.1v-.1l-.1-.1v-.1l-.1-.1v-.1l-.1-.1-.1-.1v-.2h-.1v-.2l.9-.4v.3h.1v.2h.1v.1l.1.1v.1l.1.1v.2h.1v.2h.1v.2h.1v.2h.1v.4zm0 1.4-1-.1v-1.1l1-.2v1.3" fill="#1f1a17" id="path50"/><g fill="none" stroke="#1f1a17" id="g76"><g stroke-linejoin="round" id="g65"><path d="m594.1 403.7.8 1.8q.3.5.3 1" stroke-width="0.93457" id="path51"/><path d="M593.8 406.7q-.2.8 0 1.8 0 .3.2.5l.1.6" stroke-width="0.93457" id="path52"/><g stroke-width="0.31152" id="g56"><path d="m487 388-.6-5.3 2.8 2.3-2-9.7 5 5.5s-2.5-12.7-2-11.4l3.7 6" id="path53"/><path d="M491.9 366.8c1 1.3 1.7 2 2.1 3.6q.5 1.6.5 3.6" id="path54"/><path d="M493.5 364.4c.5 1.1 1.4 2 1.6 3.2q.3 1.7.8 3.3" id="path55"/><path d="M494 362.6c.4 1.5 1.7 3 2.4 4.4.7 1.3.5.8.5-.6q-.1-2 .1-4 0 1 .2 1.9c.5 1.7.2-1.7.2-2.4 0-3.6 1 4 1 .6 0-.4 0-4.7.7-1.9.7 2.7.6-1.5.6-2l.2-2.3c.2-1 1.1 2 1.5 1.6.5-.6.8-2 .8-2.9" id="path56"/></g><g stroke-width="1.2461" id="g64"><path d="M491.6 389.6q1.2.9 1.6 2 .4 1 .3 2" id="path57"/><path d="m489.6 388.5 1.7 3 1 2.2q0 1 .3 2" id="path58"/><path d="M489.4 390.3c1.2 1.8 3 4.6 3 6.8" id="path59"/><path d="m489.9 392.6.7 1.7q.7 1.3.6 3" id="path60"/><path d="M489.5 394.4c0 1.2.9 2 1 3v2.2" id="path61"/><path d="M488.6 397.6c0 1 1.2 1.4 1.4 2.3v1.9" id="path62"/><path d="m487.8 398.6.2 2.7q.1.9-.4 1.5" id="path63"/><path d="M486.3 400.5v2c0 .4.2 1-.5.4l-.6-1c-.7-1-.7 1.3-.7 1.7l-.2.4c-.4-.3-.5-1.3-1-1.3-.3 0-.2.7-.3 1-.4 1.5-.3-.3-.3-.8s-.5-1-.5-1.6" id="path64"/></g></g><g stroke-width="0.62305" id="g70"><path d="M477.1 421.7c.4-.4 1.7-.6 1.7-.6l1.2-1.5 1 .4 1.7-2.3" id="path65"/><path d="M484.1 415.6v.4l-.2.4-.2.4-.2.7v.6" id="path66"/><path d="M486 414.2q0 1-.4 1.8v.2c0 .2-.3 1-.5 1" id="path67"/><path d="M487 412.7c-.2 1.3.2 3.3-.9 4" id="path68"/><path d="M488.7 410.4c0 1.2.2 3-.4 4 0 .3-.9 1.5-.9 1.7" id="path69"/><path d="m489.5 412.2.6 2.1.3.6c.3.8.2.2.3-.5q.2-1.2.1-2.4c0-2.3 0 2.6.8 2.3.5-.3.4-4.2.4-5.1 0-1.7 0-.5.2.3 0 .3.5 3.4 1 2.6.9-1.2.6-2.8.6-4.1" id="path70"/></g><g stroke-linejoin="round" stroke-width="0.31152" id="g75"><path d="M437.2 258.7c-.2.3-.2 1.1-.2 1.5v.7q.3.5.3 1" id="path71"/><path d="M438.4 259.3v1.8c0 .6-.2 1.9 0 2.3" id="path72"/><path d="M439.4 260.8q-.2 1.3 0 2.5l.2 2" id="path73"/><path d="M440.9 262.7c-.4 1.3 0 3.3.1 4.6" id="path74"/><path d="M441.3 261.7c.3.9.3 3.3.3 4.3l.2 3" id="path75"/></g></g><path transform="translate(-62.2 -34)scale(.31152)" fill="#1f1a17" id="polygon76" d="M1618 972.9v-.6l.1-.6.1-.6v-.7l.1-.7v-.6l.1-.7.1-.7.1-.7.1-.7.1-.6v-.7l.1-.6.1-.6.1-.6v-.5l.1-.5.1-.4v-.4l.1-.4v-.4l.1-.2.9.3v.6l-.1.4-.1.4v.4l-.1.5-.1.5v.6l-.1.6-.1.6-.1.6-.1.7v.6l-.1.7-.1.7-.1.7v.7l-.1.6-.1.7v.6l-.1.6v2.9l-.1-.1-.3 1.3-.3-.2-.2-.4-.1-.3v-2.2z"/><path d="M443.5 266.5a12 12 0 0 0-.5 6.2" fill="none" stroke="#1f1a17" stroke-linejoin="round" stroke-width="0.31152" id="path76"/><path d="M443.9 267c-.7 2.7-.3 6.8 0 7.6" fill="none" stroke="#1f1a17" stroke-linejoin="round" stroke-width="0.31152" id="path77"/><path transform="translate(-62.2 -34)scale(.31152)" fill="#1f1a17" id="polygon77" d="m1627 988.3-.1-.9-.2-1-.2-1-.1-1.1-.2-1-.1-1.1-.1-1.1-.2-1-.1-1.1-.1-1v-1.1l-.1-1-.1-1v-3.7l.1-.9.1-.8.1-.7.1-.7.2-.6.2-.6.9.4-.1.4-.2.6-.1.6-.1.7-.1.8-.1.8v3.6l.1 1 .1 1.1v1l.1 1 .1 1.1.2 1 .1 1.1.1 1 .2 1.1.1 1 .2 1 .1 1 .2.9.2 1 .2.9.1.8.2.8.2.7.1.7.2.6.1.6.2.5-1 .3-.1-.5-.2-.6-.2-.7-.1-.6-.2-.8-.1-.8-.2-.9-.2-.8z"/><g fill="none" stroke="#1f1a17" stroke-linejoin="round" stroke-width="0.31152" id="g89"><path d="M445.7 269.4q-.3 1-.3 2c0 .6.9 4 1 4.4" id="path78"/><path d="M446.6 270c.1 1.6.5 4.2 1.4 5.5" id="path79"/><path d="M448.8 271.2c-.2.8-.2 4.7.4 5.1" id="path80"/><path d="M450.9 275c-.5 1.5.1 3.4.4 4.8" id="path81"/><path d="M452.8 277.4c-.3 1 .5 5.8 1.1 6.6" id="path82"/><path d="M454 279c.1 1.4.8 2.8.8 4.2 0 1 .6 1.8.7 2.6" id="path83"/><path d="M456.2 280.3c-.7 1.8.3 5.7 1 7.3" id="path84"/><path d="m458.5 284.6.1 1.4.5 2c0 .4.2 2 .4 2.4" id="path85"/><path d="M460 289q.3 1.8 1 3.4l1.5 2.6" id="path86"/><path d="M465.5 294.8c-.5 1.5 0-.5 0 .5l.3 1.2.4 1.5.8 1.5" id="path87"/><path d="M476.6 262.4c0 1.4-1.6 2.6-2 4q-.3 1.7-.3 3.7" id="path88"/><path d="M475.3 263.4c-.4.8-1.9 2.7-2.1 3.7q-.2 1.1-.2 2.5" id="path89"/></g><path d="m473.9 264.4-.2-.2v-.1l.1-.1.1-.1v-.1h.1v-.1h.1v-.1l.1-.1v-.1h.1v-.1h.1v-.1l.1-.1.1-.1v-.1l.3.2-.1.1v.1h-.1v.1l-.1.1v.1h-.1v.1h-.1v.1l-.1.1-.1.1v.1h-.1v.1h-.1zm-.2-.2.2.2h-.2zm-1.3 4.1h-.3v-1.5l.1-.1v-.3l.1-.1v-.1l.1-.2v-.2l.1-.1.1-.1v-.1l.1-.2h.1v-.2l.2-.1v-.1l.1-.1.1-.1.1-.2h.1l.1-.2.2-.1.2.2-.1.1-.1.1-.1.1-.1.1-.1.2h-.1v.2h-.2v.2l-.1.1v.1l-.1.1v.1l-.1.1v.1l-.1.1v.2l-.1.2v.2l-.1.1v.9l-.1.1z" fill="#1f1a17" id="path90"/><g fill="none" stroke="#1f1a17" stroke-linejoin="round" stroke-width="0.31152" id="g95"><path d="M473.2 262.6c0 .7-.7 1.7-1.2 2.2l-.4.8-.4.9" id="path91"/><path d="m471.3 262.5-.9 2.3" id="path92"/><path d="M469.9 262.5c-.5 0-1 1-1.2 1.5" id="path93"/><path d="m468.2 262.1-1.5 1.5" id="path94"/><path d="M466.6 262.2c-.6-.2-1.6.7-1.7 1.2" id="path95"/></g><g fill-rule="evenodd" stroke="#1f1a17" id="g98"><ellipse transform="rotate(-7.8 1773.7 -3522.5)scale(.15195)" rx="9.7937002" ry="10.159" fill="#1f1a17" stroke-width="0.9" id="ellipse95" cx="0" cy="0"/><path d="M492.5 207.7q0 1.1 1 2 1 .7 1.9.7c.9 0 2.3-1.2 2-3.2-2.6-.4-2.8-.1-5 .5z" fill="#ffffff" stroke-width="1.2461" id="path96"/><path d="m493.4 207.6.3 1.4c.6 1 2.9 1 2.9-.5 0-.3 0-1.6-.4-1.6l-1.6.2z" fill="#1f1a17" stroke-width="0.28037" id="path97"/><path d="M495 209.2q.6-.2.8-.7.2.3.1.7t-.5.2z" fill="#ffffff" stroke-width="0.28037" id="path98"/></g><path d="M461.7 227c6 0 9.2-3.6 15.4-3.6q4.5 0 8.2.8c1.4.3 3 .3 4.4 1 2.3 1.4 2 4 .2 4.5-1.4.3-3.5.3-4.5 0-3.8-1.2-11.2-4.1-15-2.3q-2.5 1.2-5.5 1.3c-.9 0-1.7.2-2.5-.2-.5-.2-1.7-1.2-.7-1.5z" fill="none" stroke="#1f1a17" stroke-linejoin="round" stroke-width="0.62305" id="path99"/><g fill-rule="evenodd" id="g104"><path d="M461.7 227c6 0 9.2-3.6 15.4-3.6q4.5 0 8.2.8c1.4.3 3 .3 4.4 1 2.3 1.4 2 4 .2 4.5-1.4.3-3.5.3-4.5 0-3.8-1.2-11.2-4.1-15-2.3q-2.5 1.2-5.5 1.3c-.9 0-1.7.2-2.5-.2-.5-.2-1.7-1.2-.7-1.5" fill="#a92211" id="path100"/><g stroke="#1f1a17" id="g103"><path d="M480.3 221.3c.1.1-.3 1.7-.3 2q0 1-.3 2.1c0 .1-.4 1.5-.6 1.3-.9-1-2-3.6-2-5z" fill="#ffffff" stroke-width="0.93457" id="path101"/><path d="m453 424.2 1-.2c.2-.2 2.1-1 2.4-1l4.3-.7 1-.5 1-.3 1.3-.2-.4.3-1.2.6.8.5-.6.3-4.9.4-4.2 2.4-.7-1.6z" fill="#1f1a17" stroke-width="0.28037" id="path102"/><path d="m455.2 428.3 1.4-1.6 1.5-.4 2.4.4-2.4.6-1.4.8c-.2 0-1 .6-1 .6z" fill="#1f1a17" stroke-width="0.28037" id="path103"/></g></g><g stroke="#1f1a17" id="g105"><path d="m450.8 421.7 1.5-.6 1-.3q.7-.3 1.6-.4.6 0 1-.3" fill="none" stroke-width="1.8691" id="path104"/><path transform="translate(-62.2 -34)scale(.31152)" fill="#d1a345" fill-rule="evenodd" stroke-width="0.9" id="polygon104" d="m2049 1500.7 5-5.1 6.6-3.7 3.6-1.4-3.8-3.2-3-.2-4.5.3-5.7 4.7-2.5 5.8-.8 3.9v2.3z"/><path d="m486.2 207.3 3.8-.7c2.1-.6 4.4-2.5 6.5-3.3v-.2h-1l-1.6 1-2 1.4-2 1.1" fill="none" stroke-width="0.28037" id="path105"/></g><g fill-rule="evenodd" id="g107"><path transform="translate(-62.2 -34)scale(.31152)" fill="#1f1a17" stroke="#1f1a17" stroke-width="0.9" id="polygon105" d="m1784.6 766.8-4.3 2.4-3.2 2-4.2 1.3.2-.4 6.7-4 2.5-1.7 3-2.1 2.2-1.7 1.7-1.3 5.2-.6-.9 1.5-4.4 2.1z"/><path d="M471.4 211c-1.2.2-5 .7-4.6 2.6a4 4 0 0 0 1.1 2c.5.4 1.9 3.1 2.8 2.4 1-.8 1-.7 1.1-1.8q.1-.9-.6-1.6c-.3-.5 1.3-1 1.5-1.6.5-1.2-1-1.5-1.3-2z" fill="#1f1a17" stroke="#1f1a17" stroke-width="0.28037" id="path106"/><path d="M469.9 210.9q-.4 0-.7.3l-.6.3c-.9.4.1 1.3.8.7l.8-.9c.4-.3 0-.5-.3-.4" fill="#ffffff" id="path107"/></g><path d="M484.2 255.3c-1.6 2.7-5.7 8.3-6.4 11.2 1-1 5.2-2.8 5.9-3.4" fill="none" stroke="#1f1a17" stroke-width="2.4922" id="path108"/><path d="m424 162.7-2.6.4-3.6 35.9-25.7 1.4v4.6l31.9 4.2 31.7-4.2v-4.6l-25.6-1.4-3.7-35.9z" fill="#405a9f" id="path109"/><path fill="#405a9f" id="rect109" d="M417 202.9h13.9V425H417z"/><g fill="#d1a345" stroke="#405a9f" stroke-width="2.8125" id="g112"><path transform="rotate(45)" id="rect110" d="M411.8-187.7h7.6v7.5h-7.6z"/><path transform="rotate(45)" id="rect111" d="M415.2-136h7.6v7.5h-7.6z"/><path transform="rotate(135)scale(1 -1)" id="rect112" d="M-184.3 463.5h7.5v7.5h-7.5z"/></g><path fill="#d4cac6" id="rect113" d="M421.3 202.9h5.3v68.8h-5.3z"/><g fill="#d1a345" stroke="#103e6f" stroke-width="0.9375" id="g117"><path id="rect114" d="M408.5 197h30.8v13.5h-30.8z"/><g id="g116"><path d="M424 406.3c-2 1.7-2.8 3.3-3.4 4.7l1.9 4c-1 .2-3.4 0-5.6.5v9.5c0 1.7 2 5.7 7 5.7s7-4 7-5.7v-9.5c-2.2-.5-4.5-.3-5.4-.4l1.8-4.1c-.6-1.4-1.3-3-3.3-4.7z" id="path114"/><path d="M424 361.9c-4 0-5.4.4-7 1-1.3 1.2-1.3 4.7 0 6.1 2.2.3 3.7.6 7 .6s4.6-.3 6.9-.6c1.2-1.4 1.2-4.9 0-6a15 15 0 0 0-7-1.1z" id="path115"/><path d="M424 295.6c-4 0-5.5.4-7.1 1-1.2 1.2-1.2 4.7 0 6.1 2.2.2 3.8.6 7 .6s4.7-.4 7-.6c1.2-1.4 1.2-4.9 0-6.1-1.7-.6-3-1-7-1z" id="path116"/></g></g><path d="M569.7 368.4c13-27.7 8.9-71.8 11-108 0 0-11-2.2-39.7-2.2s-39.8 2.2-39.8 2.2c2.1 36.2-1.9 80.3 11 108a56 56 0 0 0 28.8 29.9 56 56 0 0 0 28.7-29.9z" fill="#405a9f" stroke="#d1a345" stroke-width="2.8793" id="path117"/><g fill-rule="evenodd" id="g120"><path d="m535.4 309 6.2-6.4 6.3 6.3-6.3 6.3zm6.2 10.5L531.2 309l10.4-10.5 10.5 10.5zm27.2 2-6.2 6.3-10.5-10.4 2-2.1 8.5 8.4 2-2.1-10.4-10.5-10.5 10.5 10.5 10.4 2-2-8.3-8.4 2.1-2.1 10.5 10.4-6.3 6.3-12.6-12.5-12.5 12.5-6.3-6.3 10.5-10.4 2 2-8.3 8.4 2 2.1 10.5-10.4-10.4-10.5-10.5 10.5 2.1 2 8.4-8.3 2 2-10.4 10.5-6.3-6.2L527 309l-12.6-12.5 6.3-6.3 10.5 10.4-2.1 2.1-8.4-8.3-2 2 10.4 10.5 10.4-10.4-10.4-10.5-2.1 2 8.4 8.5-2.1 2-10.5-10.4 6.3-6.3 12.5 12.6 12.6-12.6 6.3 6.3-10.5 10.4-2-2 8.3-8.4-2.1-2.1-10.5 10.5 10.5 10.4 10.5-10.4-2.1-2.1-8.4 8.3-2.1-2 10.5-10.5 6.2 6.3-12.5 12.5z" fill="#d1a345" id="path118"/><path d="M417 232.4a22 22 0 0 0-1.3 21.3q.4 1.6 2 1.8c.2 0 1.7 3.2 2.5 3.7.3.2 3.5 2.8 3.5 1.2s-2-3.9-2.7-5.3c-.1-.1 1.3 1.2 3.3 1.9 2.8 1-2.2-6.6-2.8-7.4-.2-.2 2 .7 3 1 3.8.8.5-2.6-.3-3.8-1-1.4-4-2.8-1.3-2.8 4.6 0 1.5-1.7 0-4-1.9-2.5-3.7-5.4-6-7.6" fill="#1f1a17" id="path119"/><path d="M416 235.7c0 4.4-2.5 8.5-.8 12.8.2.6 2.4 6.3 3.1 3.8.7-2.4-.9-3.5-.5-5.5.6-2.8-1-5.4.2-8.3.6-1.5-.2-3.8-2-2.8" fill="#a92211" id="path120"/></g><g fill="#bb9858" fill-rule="evenodd" id="g124"><path d="M419.1 237.6c-1.4 0-.8 2.2-.5 3 1 2.2 2.7 2.8 5 2.8.7 0 0-.3-.3-.8q-.6-.6-1.4-1.1l-1.8-2z" id="path121"/><path d="M420.3 244.9c-.4-.4-2.3-.4-1.6 1.2a7 7 0 0 0 5.5 3.8c.9 0-1.3-2-1.6-2.4z" id="path122"/><path d="M420.8 250.3c-.6-.5-1-1.3-1.7-.4-1.7 2.3 2.7 5.2 4 6.4q.8 1 .5-.3c0-.9-1-2.6-1.5-3.4z" id="path123"/><path d="M420.2 255.6c-.2-.4-.6-2-1.2-2-1.3-.2-1 1.6-.5 2.4l2 2.8c.5.7 3 2.9 2 .6l-1-2z" id="path124"/></g><path d="M432 234.4c-.7-.2-1.4-.9-2.4-.6-1.2.4-3.2 3-4.1 4.3-.2.2-1.8 2-1.6 2q1.4.2 2.8-.5c1-.6 1.5-1.3 2.6-1.3.4 0 2.8.4 2.8-.2z" fill="#1f1a17" fill-rule="evenodd" id="path125"/><path d="M431.3 234.7c-.6 0-1.3-.4-2.1-.1-1 .4-2.5 2.4-3.1 3.4l-1.2 1.5q1.4.1 2.4-.6.9-1 2-1.3c.4 0 2.2 0 2-.4z" fill="#bb9858" fill-rule="evenodd" id="path126"/></g></g><!-- app4joy --></svg>