<svg width="426" height="285" viewBox="0 0 426 285" id="svg397" xmlns="http://www.w3.org/2000/svg"><g id="g399"><path fill="#a8002c" id="rect1" d="M0 0h426v285H0z" paint-order="markers fill stroke"/></g><g id="g398" fill-rule="evenodd"><g id="g3"><g transform="translate(264.8 183.4)" fill="#fff" id="g1"><path d="M10 17.8c.8-1.2 1.9-4.3 1-5S9.5 9.7 8.5 8Q7 5.2 6 3.8C5.2 2.9 4.6.6 3.8.6c-.7 0-1-.6-2.4 0s-1.3 1-1.3 1S0 4 .6 5.2s-.1 3.1 1 4.8c1.3 1.6 1.8 3 3.1 4.1s1.5 2.1 1.8 3 .8 1.8 2.2 1.3z" id="path1"/></g><g transform="translate(113 19.6)" fill="#161413" id="g2"><path d="M101.8 1.8c1.6 1.1 3.6 0 5.4.7a7 7 0 0 1 .6 6.2c-.7.8-.8 2.1-2 2.6q-1 .2-1.3.8c0 1.8 1 3 1.7 4.4q1.3 2.4 1.3 5.9.3.4.2 1l-.2.2c.6 2.2-.5 3.8 0 6.2-.8 1.8-.4 3.3-.4 5.3-.5.8.2 1.3 0 2.1 0 .7 1.3 1 2 .7 3.3-2.2 6.3-6.4 11.8-4.8 1.7 1.3 4 1.2 6 .4q3.5-.5 7.1-.4.6 0 .6-.7c-.4-1.5-1.9-2.4-3-3.5q0-.9.8-.9c2 .6 4.4 0 6.1 1q.7 0 1-.5c0-.8-.9-1.9 0-2.4q1.1.6 1.8 1.2 2.4 1 4.3 2.5c.6.8.6 2 1.8 2.4 2.5-.3 5.8-2.2 8.2-.3q2.4 1.5 2.8 4.3c.4 1.1 2.7 1.4 2 2.7-.8.3-1.5-1-2.3-.3-.3.4-.7 1-.3 1.2q1.3.8 1.5 2.1c1.1 1 .3 3 .8 4.3 2.8 3.3 5 7 7.6 10.5 1.6 2.4 4.9 3.5 6.2 6.2 0 1.3-.3 3 .3 4 .5.8.1 2-.2 2.7-1 .5-1.3 2.3-2.9 1.5q-1-1.6-2.9-2.8-.6-.3-1 .3c.5 1 1.6 1.6 2 2.8.4.2 0 .7-.2.8-1.6.1-3.3-.8-4.7-1.5-1.5-1-1.5-3-3.9-3.2-3.3-1.3-7-2.4-10.7-2.5-1 .3-.7 1-.7 1.8.1 1.6.8 3 1.3 4.3-.2 1.5 1.3 1.7 1 3.3l2 4q1.2 2.2 1.8 4.9c.5.3.4 1.3.9 1.6.2.4-.2 1.4.5 1.6.3 1.3.9 2.2 1.2 3.5 1.6.2.4 2.3 1.6 2.8 1.6.6 2 2.4 3.6 2.7 1 1 1.7 2.3 2.6 3 .3 1.3 1.4 1.9 2.2 2.6q.3 1.6 1.3 2.8c.4 1.6 1.4 2.5 1.4 4q1 1.2 1 2.6c.6.8.2 2.3 1 3.2.4.4 0 1.5 1 1.9 1.6 0 3.3-.9 4.7-1.7 1.9-1.5 5-2.4 5.8-4.8q1-1.8 3.4-2.4c1.2-.1 2.3.8 2.8 1.5.7 1.3.6 3 1.3 4.3s1.2 2.8 2.6 3.9c-.1.6.7.6 1 1 .5 1.6 1.6 2.6 2.4 3.8.5 1 1.5 1.7 2 2.8 1 .4 1 1.4 2.3 2q1.9 1.3 3.3 3.1c.4 3.3-.3 7.4.7 10.5q0 2 .9 3.5c.7.6.1 2.3.6 3 0 2-.7 3.6-.7 5.6q-.2.4-.8.1c-2.2-2.2-5.6-3.7-7-6.4l.5-2c1-1.8 1.6-3.6 3-5.1 0-.7.5-1.5 0-2.3-.9-1.7-1.1-4.2-4-4-1.1-.5-.5-2-.9-3 .4-.4.1-1 .2-1.7-1.1-2.7-4-4.2-5.4-6.6l-4-3H187c-1.3 2-4.3 2.8-5.1 5.2-.5 0-.6.7-.8 1.1l-7.7 7.7q-.3.8.7 1c2.2-.4 4.7-.3 6.6-1.2 2.6 0 4 1.8 5.4 3.4q.3 3.8 2.5 6.6c0 .8.7 1.1 1 2 1 2.4 2.9 4.6 4.6 6.7q1.4 1.5 2.8 3.4c.6.8 0 2.6.5 3.7-.5.8.1 1.6.1 2.5.4.7.3 2 .9 2.6a10 10 0 0 0 2.9 6.4c.5 1 .2 2.7.7 3.9q0 1 .4 2.5c-.2 1 .3 2.3-.9 2.5a23 23 0 0 1-8-5.4c-1-1.6.6-3 .7-4.7.6-1 1.4-3 .5-4.5.7-3.8-3.5-4.4-4.4-7.4-.8-1.4 1-1.7.4-3.4-1.2-2.4-3.3-4-5-5.9-1.4-.8-2-2.1-3.1-3q-.3-1-1.4-1.7c-1.6-.4-3 .5-4.5.7-3.8.6-6.6 2.7-10 4.1-1.3-.2-1.8 1.2-3 1-3 2-6.3 2.3-9.2 4.1-1.4.2-2.8 1-4 1-2.2 1-4.7 0-7 .2q-.8.8-1.2 1.7c.1 1.2 1.2 1.5 1.5 2.3q1.3 2.5 3.3 4.5a24 24 0 0 0 2.7 4c.6.2.5-.6.9-1v-.5c1.1-.4 1 1 1.6 1.5.1.5-.8 1.6.4 1.7h.7c-.3 1-1.5 1.7-.4 2.4 0 2.1 1 3.5 2 5 1 .3 1.4 1.8 2.4 1 .6.2 0 .6 0 1 .3 1.5 1.4 2.4 1.6 3.8.3.7 1.4 1 2 .6 1.4-.6 1.3-2.2 1.4-3.6-.8-.4 0-2-1.1-2-1.1-.5-.4-2.3-1.7-2.5q.3-.3.4-1-.8-.2-1.1-.8c.4-.5.4-.5 0-1q-.4 0-.5-.9-1.1-.5-2.2 0-.7.8-.7 2.1c.5 1 .2 2.5 1.4 3.1l.1.5c-1.3-.7-1.3-2.1-2.1-3 .3-1.7-.2-3.8 1.3-4.7.5-.4-.1-1-.6-1.2-.5-.3-1 .3-1.3.3.2-.5 1.2-1 .6-1.8-.2-.2-1-.2-1.5 0l-.7.6q.2-.9 1.3-1.3c.8-.2 2.2-.6 3 .1q1.4 1.4 1.5 3.4c.6 1.3 1.5 2.4 1.8 3.8.6 1 1 2.3 1.7 3q.5 1.2 1.8 1.4c1.1-.9 2.3-.1 3.3.3 1.1.4.8 1.6 1.7 2 1.2 2.5 1.9 5.3 3.5 7.6 1.3 2 2.3 4.4 4 6.2.3 1 1.4 1.7 2.4 2.1-.1.6-.8.7-1.3 1-.8 1.1-2.7-.4-3.4 1-.3 1.3 2.1 2 .7 3.2-1.2.2-2.6.4-3.3 1.3q.1.6.5.8c-.4 1-.8 2.5-.3 3.7-1 1.6-1.2 4-2.3 5.4-.7 1.2-2 2-2 3.5q-1.9 1.8-3.8 3.2c-.5.8-1.5 1.2-2 1.8-1 .5-1 1.5-2.2 1.5-.4.6.2.6 0 1.2-.6 1.2-.4 3.5-2.5 3.4-.4 1-2.5.6-2.3 1.9.4 1.5 2.2 2.2 3.6 3.2 2.3.8 3.7-1.6 5.9-1.7 1.5-.4 3.4-.2 4.3.8 1.2-.2 2.7-.2 3.7.6.7.6 0 2 1 2.3q1 .2 1.7 1c-.4.9.7 1.2.1 2-1.2-1.6-3.4-2-5.4-2.3-1 .2-2.5 0-3.4.7-.4 1.6 1.7 1.5 2 2.8-.3.5.4.8 0 1h.2c-.6.7.4 1.1-.1 1.7-1.2-.2-.7-1.9-2.3-1.9-1-1-2.4.3-3.7.3-.5-.1-1.3-.3-1.6.4-.3 1 .8 1 .8 1.6.3.7.8 1.9.3 2.7-.3-2.1-3-2.6-4.4-3.9q-2.3.1-4.4-.5c-2.5.7-4.6 1.7-7.3 1.7-1 .1-2.4.6-3.3-.1-.5-.6-1-1.7-2.3-1.6-1.8-.2-4.6-.2-5.9 1.2-1.3 0-3.3-.8-4 .6l-.5 1c-.6 0-.4-.7-.8-1.1q.6-2 2.3-3.4c.2-1.3 1.7-2 3.2-2.2 1 .2 1.8-.8 2.3-1.5-.1-.5.3-1.3-.3-1.6-.7-1-3-.5-2.5-2.3-.1-1 1.2-1.6.1-2.4l-6.6 1a7 7 0 0 1-3 2.7c-1.1-.1-.8-1.3-1.3-1.9-.2-.7-1.1-.8-1.6-1.1-1-.5-1.4 1-2.3.3l-1.2-.8c-2.7-.2-5.2-1.8-7.8-1-2.5 0-3.4-2-5.4-2.7-1.3-.2-2.2-1.5-3.8-.8-.8.6-.8 1.7-1.7 2.2-.5 1.3 0 2.3.5 3.2 1 1.7 3.3 2.4 4.8 3.6 2.3 1.3 3.4-1.7 5.6-.9-.1 1.5 1.8.9 2.5 1.5 1.4.7 1.8 2 2.3 3.3v.5c-1.3-.2-1.7-1.3-2.7-1.8-2-.9-3 1.3-5 .4q-.6.3-.9.9c.2.5.3 1.4 1.1 1.5 1.8-.6 3.5.6 4.5 1.7.8 1.3.6 2.9.2 4.3-.5-.2 0-1.2-.3-1.5 0-1.1-.9-1.2-1.6-1.7-1.1-.3-2.2.5-3.4.5-2.5-.1-4.5-.1-6.6-1.2-1.6 0-3.5.4-5.2-.1q-.8 0-1.3.6c.2 1 .9 1.5 1 2.4 1.3.5 1 2 1 3.3q-.2.3-.5 0 0-1.5-1.2-2.2c-1.6.6-3.4.2-4.4-.6-.8-1.6-3.2-1.5-5-1.6-2-.9-3.2-3.7-6.2-2.3-1-.2-1.7-1.4-3-.8-2.3.2-4.7 3-6.9.7-.3-.5-1.4-.3-2-.1q-1.5 1.4-2.7 3.2c-1.4-1 .3-2.1.6-3.2a4 4 0 0 1 2.8-2.7c.5.1 1.5.2 2-.4q.2-1.7 2-2.4c2-1 3.8.3 6.2 0 1.4-.4 3-.6 3.7-1.8q.3-1-.2-1.7c-1.5-1.1-3-2.7-4.6-3.8-.5-.4-.3-1.1-.6-1.7.5-.5.3-1.5.8-2 .3-2.7 4-3.2 4.4-5.9 0-1.2-1-2-1.5-3-.3-1.5-1-2.6-.7-4.5-.9-1-2.3-.8-3.2-1.4-1.5.6-3.8 0-4.3 1.7.2 1.3 1.3 1.7 1.2 3.2q-.2 2 .5 3.7c-.6 1.7-.7 3.7-2 5-.1 1.6-1.8 2-2.2 3.2-1.6 1-3.3 1.4-4.8 2.6q-3.1 0-6.4.6c-1.1-.6-2.9-.2-3.6-1.4-2.6-.6-3-3-4.8-4-1-1-1.3-2.5-2.2-3.4q-.7-2.7-.6-5.5c.3-2.3.7-4 .2-6.4-1.3-.6-2.8-.5-4.2-.9-2.2-1.5-5.7 0-7.8-1.9q-1.1-.6-2.5-.2c-.2 1.8-.2 3.8-1.4 5-.2.7.4.8.6 1.1.2 1.3 1.3 2.3 1.5 3.6 1.2 1.5 2 3.5 3.4 4.8q1.8 1.2 2.5 3.4c.7.5.5 1.8 1.2 2.3-.2 1 .7 1.4.6 2.3-1 1-3 .1-4.4.7a14 14 0 0 1-5.9-2 6 6 0 0 1-1-5c-.3-1.5.6-2.5-.1-4q.1-1.7-.4-2.8c-.2-3-3.3-4-4.1-6.4l-.8-2.3c.5-1.7 1.8-3 3.1-4.3q.3-1.1-.7-1.6c-2-.4-3-2.4-4.4-3.5l-1.5-2.1c-.5-1-1.3-2-1.1-3.3a9 9 0 0 1-.4-7.3q1.5-6.5 4.6-11.5c.1-1.1 1-1.8 1.7-2.8 1.5-.8.5-3.7 1-5.4l-.1-4.5c-1.2-1.7-1.4-4-3-5.4l-.5.1a37 37 0 0 1-6.5 5.6q-3.1 2.4-4.3 6.4l-1.1 5.1c0 1.4-.7 2.1-.5 3.8q-.3 1.6 0 3.3l-.2 1c-1.2-.6-1.2-2.2-2.2-3q-1-1.6-1.4-4V167c.3 0 0-.4.1-.8 0-1.2-.8-2-.9-3.2-.7-.4.1-2-.6-2.3.4-1.6-.6-3 .2-4.2-.3-.8.5-.8.3-1.6.6-1.4.7-3 1.7-4.1.2-1.6 1.3-2.3 2-3.3 1.1-1.6.9-4 1.6-5.8a3 3 0 0 0-1.7-2.1c-1.7-.5-3-1.7-4.6-2.5-1.3-1.5-3-2.8-3.1-5-.7-1.5-.6-3.1-.9-4.8.4-.2-.2-.6 0-1 .7-3 2.5-5.6 6-6.5 1.1-.4 3.1.8 3.5-.8.4-2.2-.7-2.9-.7-4.5.8-.8 1 1 1.7 1.3-.1.7.6 1.2.8 1.6 0 1.4 1.5 2 1.2 3.2q0 3.5-.3 6.6h-.2c.4.2 0 .5 0 1-.4.2-.4-.4-.7-.6-.7-1.8-2-3.3-4.3-3.6.1-.7 1-.8 1-1.5q-.2-.8-1.3-1c-1.7.8-4 1.5-4.5 3.2.2 1-.5 1.5 0 2.2-.4.2-.2.8-.3 1.1.5.7.1 2.2 1 2.6 1 2.9 3.8 5.2 7.4 5.6q1-.3 1.4-1c.3-3 1.4-5.3 2.1-8q.8-3.3 2.5-6.2c-.1-.9.7-1 1-1.8.4-1.2 1.3-1.9 1.7-3.3l1.5-1.5c2-1.8 2.9-4.4 5.7-5.6 3.6-3.4 10.5-4 15-1.7 3 1.6 6.2 3.3 8.8 5 2.5 1 3.6 2.7 6.1 3.5 2.4-.8 4.1-2.2 6.8-2.4q3.3-1.2 7-1.2 1 0 1.5-.7c.6-1-.6-1.6-.6-2.6-.4-1.6-3.7-.2-3-2.8 0-.2.4-1.9-.7-1.7-3.7-.4-7.3-2-8.6-5.1-1.2-1-3-1.7-4.5-2.4-2.5-1.3-5.4-1.6-8.5-2.1-1.9 1-4.7 0-6.6.8-3.9.6-7.8 1-11.4 2.4-.4 0-1 .4-1.2 0s-.4-1-.2-1.7q1.2-3.2 3.5-5.6a8 8 0 0 1 1.8-4.6c1.5-2.4 5.3-3.3 5.5-6.9-.5-2.7-2.5-4-2.2-7.3 1.3-1.9 2.2-4 5-4.8q4.6-1 8.7-2.5 3-1.7 2.4-5.9-.5-1-1.6-1.5c-2.6-.2-4.8 1.7-7.3.8q-.8-.5-.8-1.5c1.7-2.5 3.1-5 6-6.5q1.5-1.1 2.9-2.7-.2-2-.7-4c-.4-1.9-1.7-3-3-4.2q-.6-.5-.4-1.2l.3-1.2c0-1.8-1.6-2.5-1.3-4.6-.8-2.5-3.8-3.4-5.3-5.6 0-.9.8-1 .7-2 1.3-1.6-.5-3-1-4.3-1.1-.8-1.2-2.3-2.4-3.2-.7-1.5-2.1-2.3-2.7-4a52 52 0 0 1-5.2-7q-.1-1.3 1-1.6c1.4.2 1.6 1.6 2.7 2 1.7 3 4.3 5.3 6.6 8q1.5 2.3 3.8 3.8c1.8-.1 3.3.6 4.6 1.3q.5 1 .7 2.4c.6 1 1.6 1.7 1.5 3.3.7.4.7 1.6 1.6 2q3 1 3.9 3.7c-.2.9.5 1.3 0 2q.4 1.3 1 2.4c1 1 1.2 2.7 2.4 3.8 1.2 1.9 2.7-.5 4.1-.9 3.2-2.7 7.8-6.4 13.1-4.8 1.5 1.4 3.8 1 5.8 1q2.3.5 4.5 1.4c.9 0 1-.9 1.5-1.3.3-1 .5-2.4 1-3.2 0-1.3 1.3-2.1.6-3.7.4-1.6 0-2 .5-3.6a12 12 0 0 1 2.7-6.6c.8-1 1.8-1.9 1.9-3.4-1-.7-1.9.1-2.7.5-1.2.9-3 .5-4.5.5-1.3-1.3-3.5-.3-5.3-.5-2.2.3-4.2-1.6-5.3-3q.2-.3.5-.3a7 7 0 0 0 4.5 0c0-.2.3-.6 0-.8q-3.7-1.7-6.6-4.3c-.3-.1-.3-.7 0-.8 2.7-.9 4.4 1.7 7.4 1 4.2.7 6.2-2.7 9.4-4.2L97.6 0c2 .1 2.5 1.6 4.3 1.8" id="path2"/></g></g><g fill="#fffefc" id="g24"><g transform="translate(190.1 21.8)" id="g4"><path d="M18.5.8Q15.5 3 13 5.4c-2.6.7-5.2 3-8.2 1.6C3.3 6 1.1 5.4 0 4c.6-.8 1.8.4 2.6.5 1.5.4 3.3-.1 4.1 1.3 2.7-.3 5-1.7 7-3-.4-.4-1 .1-1.7.1.5-1.1 2.4-.9 3-2 .3 0 .9-.3 1.3 0 .8-.2 1.5-.9 2.3-.5z" id="path3"/></g><g transform="translate(207.7 21.8)" id="g5"><path d="M9.3 1.9q0 .3-.3.5c-2-.9-4.4-1-6.2.2-1-.2-2 .7-2.8.3 0-1 1.3-1 2.1-1.7 2.3-.3 5-1.2 7 .2z" id="path4"/></g><g transform="translate(217.2 22.6)" id="g6"><path d="M2.5 1a7 7 0 0 0-.3 3.5Q2 5.6.8 6.4l-.6-.2C.4 5 1.3 4 1.3 2.7 1.8 2 0 .6 1.5 0q.9.1 1 1" id="path5"/></g><g transform="translate(215.8 24.4)" id="g7"><path d="M1.8.6c.4.7-.2 1.3-.2 2q-.2.5-.7.2C1.1 1.6.1 1.3 0 .4.5 0 1.6 0 1.8.6" id="path6"/></g><g transform="translate(209.7 24.1)" id="g8"><path d="M6.2 2.1q0 1.7-1.3 2.4C4 4 5 2 3.5 1.8Q2 1 .1 1.4C0 0 1.5 1.4 2.1.6Q5 .3 6.2 2" id="path7"/></g><g transform="translate(143.8 25.7)" id="g9"><path d="M2.7 2.4c1 .8 1 2 2.5 2.5.1 1 1.6 1.2 1.5 2.3 1 .5 1.7 1 1.5 2.3 1.6.5 2.2 2 3.2 3.1-.2.1 0 .6-.6.6-.4-.5-1.5-.4-1.3-1.3-.3-.2-.5.2-.9-.1-.8-.6.4-1.4-.4-2.1q-.6.4-1.2-.2c.3-1-1.1-.9-.6-2 .2-.9-1.5-.2-1.3-1.3-1.6.2-.7-1.6-2-2C2.6 3 .9 1.8 0 .4L.1 0c1.3.4 1.4 1.8 2.6 2.4" id="path8"/></g><g transform="translate(205.9 26)" id="g10"><path d="M1 .5C.9.7.3.9 0 .5c0-.4.8-.5 1 0" id="path9"/></g><g transform="translate(200.8 26)" id="g11"><path d="M12.6 1.3c.1 1.3-1 1.9-1.9 2.6C9 4.9 7 6 4.6 6.2c-.5-.7.5-1 .7-1.7q2.1-1.1 4.5-1.3v-.4Q6 3 3 4.8h1.2q0 .8-.8.7-.8.3-.7-.4c-.5.2-1.7.4-2.2.3C0 4.8.9 4.4 1 4 3.8 2.4 6.8.6 10.7 1c.4-1 1.7-.3 1.9.3" id="path10"/></g><g transform="translate(193.2 28.3)" id="g12"><path d="M9.4.1c-.4 1.4-2.2 1.9-3 3A8 8 0 0 1 .2 4q-.1-.8.6-.8C4.1 3.5 6.2 1 9 0z" id="path11"/></g><g transform="translate(215.3 28.3)" id="g13"><path d="M1.2.2c.2.6-.4.9-.7 1L0 1Q.1 0 1.2.2" id="path12"/></g><g transform="translate(217 29.8)" id="g14"><path d="M1.3.2Q.9.8.3.8C0 .2.8 0 1.2.2" id="path13"/></g><g transform="translate(211 29)" id="g15"><path d="M3 2.6c.2.6.7 1.4.2 2.1-.6.2-1.4.7-2.4.4q-.6-.4-.3-.9h.2c-.3-.4-.7-1-.3-1.4 0-.7 3-2.9 2.7-.3" id="path14"/></g><g transform="translate(215 31)" id="g16"><path d="M2 3c-.2.3-1 0-1.3 0C0 2.5 0 1 0 0c1.5.4 1.6 1.8 2 3" id="path15"/></g><g transform="translate(209.4 32.6)" id="g17"><path d="M1.3.4q.1.4-.7.7L0 .8Q0 .3.6 0q.5 0 .7.4" id="path16"/></g><g transform="translate(210 34.6)" id="g18"><path d="M5 2.1c-.6 1.3.9 3-.8 3.6-1.5-.2-2.8 1.1-3.8 0 0-.9 1.1-1.6.3-2.3C.6 3.2 0 3.3.2 3l.5-.5C.6.7 2.6.8 3.5.2 5 0 4.8 1.3 5.1 2.2" id="path17"/></g><g transform="translate(215.4 35.3)" id="g19"><path d="M3 1.5c-.4 1.6 1.2 2.2.3 3.4-.4.5-.4 1.3-1 1Q.6 5.4.4 4C1 2.7 0 1.1.8 0 1.8.1 2.2 1 3 1.5" id="path18"/></g><g transform="translate(154.8 38.2)" id="g20"><path d="M5.4 1.5c-1.2.3-2.8-.2-3.6.7-.9.3-.5 1.7-1.6 1.3Q0 1.7 1.4.4C2.8.8 5 0 5.4 1.5" id="path19"/></g><g transform="translate(207.4 38.8)" id="g21"><path d="M2.1.5Q2 1.5.8 1.6L0 1.3Q0 .5.7 0q.8-.1 1.4.4" id="path20"/></g><g transform="translate(153.8 38.9)" id="g22"><path d="M6.4 2.1C6 3.4 7.9 3.4 7.9 4.6c-1.4-.5-1.5 1-2.7 1.3-.5.2-1.2.6-1.3 1q0 .7.6.4c1.3-.5 2-2.2 3.5-1.6q.2 1.5-.6 2c-.6.8-2.1.2-1.9 1.5.2.5.6 1.9-.4 1.9-2.4-.3-2.3-2.9-4.4-3.7C.4 7 0 6.1.4 5.7q.5-.6.8-1.3C2.7 3.3 3.5 0 6.4 2" id="path21"/></g><g transform="translate(206.7 41.2)" id="g23"><path d="M12.5 2.2q.3.6 0 1.1c-1.7-.4-2.8 1.3-4.5.8v-.8c-.4 0-1 .6-1.3 0-.2-1-1.4-.8-2.1-1.2-1 .3-2.5.1-2 1.7-.3.2-.9 1-.1 1.3C3.8 5 4.6 7 6 5.7c1 .2.4 1.6.5 2.5-.1.5-1 .5-1 1.1-.2 1.2 1.2.8 1.8 1.4.8 0 1.7-.5 1.3-1.5.4-1 0-2.6 1-3a7 7 0 0 0 2.7.6c.7 1.7-.8 2.6-.6 4-.7 1.5-1.2 3-2.5 3.8-.4.8-.7 1.7-1.7 2-2.3 1-2.8-1.4-4.4-2l-1.5-2.7c.3 0 .2-.5.2-.7-.5 0-.2-.5-.5-.6.6-.7-.2-1.2-.4-1.8-.9-.3.5-1.4-.7-1.6 0-.5.6-.8.3-1.4-.3 0-.3-.7 0-.9.6-.4-.3-2 .7-2.4q0-.6.2-1Q5 0 8.8.1q2.1.9 3.7 2" id="path22"/></g></g><g id="g28"><g transform="translate(156.2 42)" fill="#161413" id="g25"><path d="M3.2 0C2.8 1.3 1.6 1.9.6 2.7 0 3 .2 2.5 0 2.4.8 1.4 1.6.2 3.2 0" id="path24"/></g><g transform="translate(204.5 41.7)" fill="#fffefc" id="g26"><path d="M2.1 1C2 2.6 2 4 .8 4.9q-.8 0-.8-.7c.1-.8 1.2-.8.8-2C1 1.6.5.7 1.2.4q.8-.5 1 .7" id="path25"/></g><g transform="translate(214.1 42.9)" fill="#161413" id="g27"><path d="M1.4 1c-.5-.4-.8.2-1 .4C0 1.1.7.8.5.4q.7-.5 1.1 0z" id="path26"/></g></g><g fill="#fffefc" id="g37"><g transform="translate(209.5 44.9)" id="g29"><path d="M2.1.7c-.1.6-1 .6-1.4.2C0 1 .7.5.7.1q1-.1 1.4.6" id="path28"/></g><g transform="translate(162 45.7)" id="g30"><path d="M1.2.7q-.1.8-.8.5Q-.1.5.4 0q.8.1.8.7" id="path29"/></g><g transform="translate(213.6 45.7)" id="g31"><path d="M2 1.2q-.6 1.7-.5 3.3 0 .6-.8.7C0 5.2.5 4 .4 3.4c.3-.1 0-.7.2-1h.1C.4 1.8.7 1.5.6.8Q.4.5 1 .1c.7-.1.8.6.9 1" id="path30"/></g><g transform="translate(216.8 46)" id="g32"><path d="M1.8.4v.4C1.3 1.1.4 1 0 .6L.5 0q1-.1 1.3.4" id="path31"/></g><g transform="translate(159.4 47.4)" id="g33"><path d="m7.8 1.2.3 1.3c-.3.6-1.3.3-1.9 0-.5-.4-1.4 0-2 .3-1 1-2.4 1.8-1.8 3.8.3.4 0 .8 0 1.2-.2.4-.9.3-1.2 0a4 4 0 0 1-1-3.3q-.1-1.2.9-2.1C1.9 1.4 2.7.2 4.5.2q2.1-.2 3.3 1" id="path32"/></g><g transform="translate(203.9 48.2)" id="g34"><path d="M2.8 3.4c0 1.3 1.2 1.8 1.4 3q1 2 3 3.4c.2.2.2 1 0 1.2-1.8.4-2.4-1.5-3.3-2.3-.5-1.4-2-1.9-1.7-3.8C2 3.2 0 1.6 1 0c1.7.2 1 2.6 2 3.4" id="path33"/></g><g transform="translate(247.5 48)" id="g35"><path d="M8.8 2.7c.7.8 2.5 1.2 1.8 2.5-1.3.2-2.4-.8-3.3-1.4-.5.3-1.3.6-1.5-.1l-1-.9c-.4 1.2-1.6-.7-2.2.5V4C.8 4.7 1 2.6.4 2c0-.5-.4-.6-.3-1 1.4-1 3.2.4 4.7.3z" id="path34"/></g><g transform="translate(213 50.3)" id="g36"><path d="M.1.1 0 0z" id="path35"/></g></g><g transform="translate(249.5 50.3)" fill="#161413" id="g38"><path d="M.2.6 0 0l.2.4z" id="path37"/></g><g fill="#fffefc" id="g42"><g transform="translate(162.7 51.6)" id="g39"><path d="M3.2 1.6c.3 1.8 2.3 2.4 2.7 4 .6.5 1.9.3 2 1.2C7.4 8.2 9.3 8 9 9.2c.8.8 2 1 2 2.3.3.4 1 .4 1 .9 0 1.3 1.4 1.4 1.7 2.3 1.2.5.8 2 2 2.3.1 1.1 1 1.5 1.5 2.2q.6 1.6 2.1 2.7c.6 1 .5 2.4 1.7 2.8.5 2 2.5 2.7 3.2 4.4 2.6 2.4 4 5.5 6.4 7.9.6 2 2.4 3.2 3.3 4.8 1.6.8 2 2.5 2.9 3.7q2.6 3 4.6 6.2c0 1.4 1.7 1.8 2 3 .3 1.3 1.6 2 2.3 2.9l4.1 5.3c0 1.3 1.2 1.9 1.5 3 0 1.7 2.4 1.7 2.5 3.2 1.5 1.1 2 2.4 3.3 3.6.6 2 2.3 3.3 3.2 5 1.4.9 1.6 2.8 2.7 3.6.3 1 1.7 1.3 1.3 2.6 2 1.9 3 4.3 4.5 6.6.8.7 1 1.7 1.7 2.3q3.8 5.1 7.1 10.5 1.2 1.6 2.9 3 2.4 4.1 5.5 7.6c.5 2 2.6 2.6 3 4.6 1.4.8 1.2 2.7 2.5 3.5a61 61 0 0 0 5.2 7.7c0 .8 1.2 1 .7 1.9-.8.4-1.4-.4-2-.9-.8-1.2-1-3-2.8-3.7q-.9-1.9-2.2-3.3-2.2-1.3-2.9-4c-1.6-.6-2-2.1-3.1-3.3-.6-1.3-1.1-2.8-2.5-3.6q-.9-.8-1.2-2.2c-.3-1.3-1.8-2-2.4-3.2-1.4-2-2.3-4.2-4-6L70 95.1q-1.5-.5-1.7-2c-.6-1-1.8-1.6-2.1-2.8-.5-.2-.4-.9-.7-1.1 0-.7-.7-1-1-1.3-.6-1.4-2-2.1-2.3-4-.8-1-2-2-2.4-3.3-1.9-1.8-2.5-4.6-4.7-6.3l-7-8.8c-.9-1.5-2.3-2.7-3-4.4-2-2-3.5-4.7-5.5-6.7a4 4 0 0 0-2.3-3c-1-2.5-3.4-4.4-4.7-7-1-.7-1.5-2-2.5-3q-1.6-1.7-2.8-3.8-1.3-2-3-4c-.6-1.2-1.8-2-2.6-3.2q-1-.9-1.7-2.2c-1.2-2.3-3.4-4-4.6-6.3l-6-8.6c-2.2-2-3.5-4.7-6-6.7-.5-.2.1-1.4-.8-1.5-1.2.3-1.2-.7-2-.9C0 3.1 0 1.1.9.2q.9-.2 1.6 0-.2 1 .7 1.4" id="path38"/></g><g transform="translate(258.9 51.2)" id="g40"><path d="M11 3q1.2 1 .7 2.3c-1.2.6-1.1-.8-1.6-1.3s-.8-1.4-1.5-1.8c-.2.9.8 1.3.5 2 1 .5.8 1.6 1.1 2.4 0 1.2 1.2 2.1.4 3-.6.4-1-.2-1.2-.5l-.2-2.4c.1-.6-.4-1.5-.5-2.2-2.2.7-1-2-2.3-2.4-1.6-.5-3.3 0-4.8.5.6.7 1.2-.1 2 0 1.1.1 2.4 0 3.1.7.4 1 .8 2.5.1 3.2-1.5-.1-1-2-1.6-2.6C3.9 3.4 2 4 .9 3.3c.2-.7-.9-.4-.9-1C1.2.6 3.7 1.1 5.7.6 8 0 10.2 1.4 11 3.1" id="path39"/></g><g transform="translate(252.2 52)" id="g41"><path d="M2 1.2c0 .4-.8.4-1.2.3S0 .8.4.4C1 0 2 .6 2 1.2" id="path40"/></g></g><g transform="translate(211.4 52.8)" fill="#161413" id="g43"><path d="M3.9 1q-.2.8-1 1.2C2.1 1.3 0 3.1.5 1.1 0 .9.4.7.4.4c1-.4 2.8-.4 3.5.7" id="path42"/></g><g fill="#fffefc" id="g52"><g transform="translate(212.6 53.5)" id="g44"><path d="M1.5.7Q.8 1 .1.5C0 0 .5 0 .7 0q1-.2.8.7" id="path43"/></g><g transform="translate(227 53.1)" id="g45"><path d="M20.7 1c.1.6-.6 1-1.1 1.2-4-.6-8.4-.2-12 1.5v.2l5.8-1.2q2.5 0 4.7.5c.7.3 0 1-.4 1.2-1.7.4-3-.7-4.7-.6-3.6 0-7 1.5-8.8 3.7.6 1.6-1 2-1.3 3.3l-.7 1C3.3 13 1.5 14 1 15.2q-.8.2-.7-.8c.5-3 .7-6 3-8q2.6-4 8.6-5.6c2.7 0 5.4-.7 8.2-.3z" id="path44"/></g><g transform="translate(203.9 54.9)" id="g46"><path d="M1.4.8q0 .5-.5.7-1 0-.7-1C.4 0 1.4.3 1.4.9" id="path45"/></g><g transform="translate(233.8 55)" id="g47"><path d="M19.6.8q-.4 3.1 1 5.3l.5.1c.2-1.7-1-2.8-.6-4.9q.3-.4.8 0c-.2 1.8.8 2.8 1.6 4.1.4-1.2-.6-1.7-.8-3q0-.6.5-1c.8-.1.7.7.7 1.3.3.2.3 1 0 1.2Q24 5.4 25 6.7c.4.1.2-.3.4-.5q-.7-.8-.8-2.2.8.2.8-.6-.2-.8 0-2c1.2-.7 2.9-.3 4.1.2q.4.3.3.6c-.6.6-1.4-.4-1.9.3.1 1 1.4.4 2 1 0 .5-.6.4-.6.9.2.8 1.4.5 2.3.8.2.6 0 1.4.8 1.5 1.7-.1 2.8 1 4.6 1 .2.5.7.5.7.9-.3 1-1.3.1-1.8-.1q-.4-.7-1.3-.7v.7c.6.6 2 .3 2.3 1.2-.3 1.8-2.8.2-3.7 1.6q-.3.4 0 .7c1 .5 2.2-.8 2.7.4q-.6-.2-.7.6.7 1.3 2.5 1.8.8-.1 1.5-.5c.7.4 2.2 0 2.4 1.2-.7.4-2-.5-2.3.4.4.6 1.2.1 1.8.5q0 .4-.4.7c.4 1 2.6.7 3 1.9-.7.7-1.9-.6-2 .4.8.9 2.5.3 3 1.2l-.7.7c.3.4 1.1.4 1.6.7 0 .6-.7.5-1 .7.1.7 1.8.3 2 1.3 1-.2.9.7 1.2 1.2.8.4 1.5-.5 2 .1 0 .4-.5.4-.5.7 1 .6 2.6.3 3.2 1.3.3.3.1.9.3 1.3-1.1.6-2.3-.1-2.8 1-.3 1 2 3.1-.2 3.7-1 0-1-.7-1.4-1.1l-.1-2c-.3-.3-.8 0-1.2-.4s.2-1.3-.5-1.6c-.7.4-1.6-1-2 0 .3 1.1-1.2.9-1.2 1.6-1.2.6-.7-1.3-2-.8-.4-.7-1.1 0-1.5-.7-.5.4-1.4.3-1.5-.1v-.3c-.6-.2-1 .7-1.4 0-.1-.6-.6-.7-.6-1.3-.4-.1-1 .7-1.4.1l-.6-1.5c-.8 1 .4 1.8 0 2.6q-1-.2-1.3-1 .1-.7-.4-1.1c-.3.2-1 .3-1.1 0-.6-1-.3-2.5-.9-3.3-.4 1.5.3 2.3.5 3.6q-.5.4-1 0c-.9-1.6-.9-4-1.8-5.5-.4.1-.1.6-.1.8q.3 2 1 3.6 0 .6-.3 1-.6 0-1-.5c0-1.4-.8-2.4-.5-3.7 0-1.2-.8-1.8-.4-3.2h-.5c-.6 2.3 1 3.8.7 5.8q-.3.4-.8.2-.9-2.7-1-5.7-.1-.6-.5-1c-.8.3 0 1 0 1.5-.2 1.9.9 3 .8 5-.5.3-.7-.2-1-.3q-.6-.8-.6-2c.3-.4-.3-1 0-1.6-.4-.8 0-2-.4-2.8-.6-.3-.1.7-.5.9q.1 1.3.5 2.7l-.4 1.4c-2-1.2-.6-4.7-1-7q.3-.3.2-1-.3-.2-.5 0c-.2 1.3-.4 3-.3 4.2-.3 1.2-.5 3.2.2 4-.1 2 1.2 3.1 2.1 4.4l2.3 1.4q.1 1-.5 1-1.1-.6-1.8-1.4c-.3.9.9 1.6 1.3 2.3-.2 1.2 1 1.5.8 2.6-.3 1.2 1.7 1.2.8 2.6.3 1 1.3 1.5 1.7 2.2q0 .6-.2.9-.6-.5-1-.4c0 1.2 2.4 1.5 1.8 2.8h-.6l.1.5c1 1 2.8 1.4 2.5 2.8-.6.6-1.3-.4-1.5 0 1 1.4 2.7 2.1 3.4 3.6-.4.8-1.3 0-1.6-.4q-.1-.3-.5-.2c.2.6 1 1.1 1.5 1.7l2.1 2.7q-.2 1-1 .5c-.7-.6-1-1.5-2-2-.1.6.6 1 1 1.5q1.3 1.5 2.7 2.8.4.5 0 1h-.8q-.1-.6-.7-.7c-.3.1.1.2 0 .4q1.9 1 2.4 3c-.3.5-1.2.5-1.6 0q-1-1.3-2.3-2.2c-.3.6.4 1 .8 1.2q1 1.4 2.5 2.4c.3 1.1 1.3 1.7 1.3 3-1.8.8-2-1.7-3.4-2 .3 1.2 1.5 1.5 1.8 2.6.7 1.4 2 2.6 2.6 4-.2.3-.6.8-1 .4q-1.8-2.6-4-4.7c-.2 1.4 1.4 2.2 2 3.2.7 1.4 1.9 2.6 2.7 3.8 0 .5-.8.8-1.2.3a10 10 0 0 0-2.7-3.7h-.2c0 1 .8 1.4 1.2 1.7L37 72q.2.5-.1.8l-1.2-.5c-.1.2-.4.8-.7.4q-.9-1.2-2-2.2l-.3.2c1.3 1.7 3 3.3 4 5.3v.5c-1.3.3-1.1-1-2-1.4-1-.8-1.1-2-2-3q-.5 0-.7.3c1.2 2.5 3.7 3.8 4.6 6.3-.2.2-.2.7-.7.4h-.3c-1.5-1.6-2.4-3.5-3.8-5.1q-.2 0-.2.2l2.7 4.3c-.3.5-.9.3-1.3.2l-3.2-4q-.4.5 0 .8c.5 1 1.9 1.5 1.5 2.7-2 .7-2.2-1.5-3.3-2.2s-1.5-1.7-2.6-2.3c-.3.6.3.7.4 1l1.7 1.5q.3.7-.2 1c-1.8.3-3.3-.5-5-.5-1.1-1.4-1.6-3.3-2.8-4.5-1-.8-1.6-2.3-2.8-3q-.2 0-.2.2 0 .5.6.8l3.8 5.3c.2.6-.5.7-1.1.7-1.6.1-1.3-1.4-2.1-1.9q-6.4-6.9-12.2-14.1c-1.7-2.3-3.3-4.9-5-7q-.1-.9.5-1.3l.6.1c2 2.5 3 5.6 5.1 7.8q2.1 3.2 5 5.7a8 8 0 0 0 2.2 2.2c.1-.1.5 0 .3-.3-1.8-2.6-4.7-4.6-6.3-7.3-1.4-1.1-2-2.6-3-4C3.4 53.8 1.4 51.6.6 49q0-.7.3-1.2l.9.4c2.4 5.6 7 9.7 10.8 14.4l2.5 1.8q.6-.1.2-.7c-6.1-5-10-11.2-14.1-17.5a3 3 0 0 1-.4-2.8c1.4-.2 1.3 1.6 2 2.4 1 1.4 1.2 3.2 2.6 4.4.4 1.1 1.7 1.8 2.1 3 1.8 2.1 3.3 4.4 5.8 6 .4 1 1.4 1.6 2.2 2.2l.6-.2q-1.4-1.6-3.1-3.1-3.4-3-5.7-6.9c-1-.7-1.5-1.9-2.2-2.7l-3.8-6.6C.9 40.6 0 40 .3 38.3c.4-.1.3-1.2 1-.8.6 2 2.1 3.3 2.7 5.4q1.7 3.5 4.1 6.7l.6 1c2.1 2.5 4 5.1 7 7 .2 0 0-.2.3-.2-.5-.9-1.4-1.2-1.9-2-2.6-1.7-3.7-4.5-5.7-6.8l-2-3.3q-1-1.4-1.7-2.9-1.4-2.2-2.6-4.6C2 37 1 36.8 1 36c-.5-.2 0-1.3-.4-1.7q-.1-3.3.4-6l.7-2.8c.5-.9-.3-2 .5-3 .5-1 0-2.5.8-3.2.9-3.5 2.6-6.5 4-9.7q1.3-2 3-4 .4-.5 1.2-1c1-1.7 3.3-2.9 5.4-3.7.7-.8 2.6-.8 3 0" id="path46"/></g><g transform="translate(215.4 55.5)" id="g48"><path d="M2.6.8C2 1.6 1.8 2.5.7 3.1Q.1 2.8 0 2 .5.8 1.8.2c.6-.2.7.3.8.6" id="path47"/></g><g transform="translate(266 56.3)" id="g49"><path d="M1.8 2.7q-.4.6-1 .2C.8 2.1 0 .7.8 0c1 .5.6 1.8 1 2.7" id="path48"/></g><g transform="translate(204.8 56.5)" id="g50"><path d="M.6.7C.5.8 0 .8 0 .5Q0 .2.5 0c.2.1.6.6 0 .7" id="path49"/></g><g transform="translate(160 56.2)" id="g51"><path d="M1.7 1.9c-.2.3-.9.3-1.2.1C.4 1.6 0 1 .4.7 1.2 0 2 1 1.6 2" id="path50"/></g></g><g transform="translate(251.6 57)" fill="#161413" id="g53"><path d="M.5 0C.4 1.3 1 2.1 1 3.3c.3.8 1.1 1.3 1 2.4-.7 0-1-.9-1.3-1.3L0 .6Q0 .2.5 0" id="path52"/></g><g fill="#fffefc" id="g57"><g transform="translate(258 57)" id="g54"><path d="M.2.5H0L.2 0z" id="path53"/></g><g transform="translate(162 57.4)" id="g55"><path d="M2.7.7c.4.5.1 1.2.6 1.5 2.6.5 2.7 3.1 4.4 4.3Q8 7.7 9 8.2c.6 1.1 1.4 2.2 1 3.5-.6 2.4.3 4.6 1 6.4q.1.6-.7.7c-.9 0-.9-1-1.3-1.5q.1-1.2-.5-1.9 0-2.2.2-4.2c.2-.4-.3-.4-.2-.7-.6.1-.2.8-.4 1.2q.5.5 0 .8c0 .2-.4.6-.8.3-.6-.8-.3-2.6-.1-3.6-.2-.4-.5.1-.6.1-.6 1.8.5 3 .4 4.7 0 .5-.7.5-1 .4q-1-1.5-.7-3.2l.4-3.8c-.9.4-.6 1.7-.6 2.6-.3.4-.5 1.4-1.2.8q-.3-1.2 0-2.4C4 7 4.7 6 4.7 4.7c-.6-.2-.6.4-.8.6-.8.7.6 3.4-1.2 3.3-.8-1.4-.2-3.8 0-5.4-.5 0-.5 1-1.2.6-.3-.9.3-2.4-1-2.5Q-.1.5.5 0c1 0 1.3 1 2.2.7" id="path54"/></g><g transform="translate(232.9 57.5)" id="g56"><path d="M9.5.6v.6C6 1.4 2.8 1.2.3 2.9L0 2.7C1 1.4 3.2.2 5.3.1c.4-.1 1 .5 1.2-.1 1 .1 2.3 0 3 .6" id="path55"/></g></g><g id="g71"><g transform="translate(249.8 57.7)" fill="#161413" id="g58"><path d="M1.2 2.4c.2 1.1 1.2 2 1 3-1-1.2-1.4-2.8-2-4.2C.4.9 0 .2.5 0c.3.7.1 1.9.6 2.4" id="path57"/></g><g transform="translate(248.2 59)" fill="#161413" id="g59"><path d="M1.2 1.5c.3 1.2.6 2.7 1.9 3v.8C1.8 5.2 1.5 3.8.9 2.8 1 1.8 0 1.1.5 0c.7.1 0 1.3.7 1.5" id="path58"/></g><g transform="translate(228.9 59.4)" fill="#fffefc" id="g60"><path d="M14 .5C13.8 2 11.7.9 10.8 2c-4.2.2-7 3.2-9 5.8-.4.6-.4 1.4-1.2 1.7q-.7.1-.6-.8a15 15 0 0 1 2.5-3c1-1.7 2.4-3.2 5-3.5l.2-.3c-2.6-.5-4 1.6-5.6 3h-.6C2 3.4 3.3 2.8 4 1.7 5.7 1.5 7 .6 8.9.2l5-.2z" id="path59"/></g><g transform="translate(246.9 60)" fill="#161413" id="g61"><path d="M1 1.6c.6 1.6.9 3.2 2.3 4q.1.5-.2.6C1.6 5 .5 3.4.6 1.2.5.7 0 .4.5 0q.5.6.6 1.6" id="path60"/></g><g transform="translate(207.2 60.9)" fill="#fffefc" id="g62"><path d="M1.8.8q-.3.7-1 .7T0 .8C0 .5.5.4.7.2c.6-.2.7.5 1 .6" id="path61"/></g><g transform="translate(245.2 61.8)" fill="#161413" id="g63"><path d="M1.4 1.3c.8 1.3 1.4 3 2.4 4.1v.3Q3 5.4 2.6 4.5c-.8-.8-.8-2.3-1.9-3H.6c-.4 1.3.3 2 .7 3 .3 1.6 1.9 2.3 2 3.7L2.7 8A13 13 0 0 1 0 1C.7 1 .6.5.8 0q.5.4.6 1.3" id="path62"/></g><g transform="translate(222 61.8)" fill="#fffefc" id="g64"><path d="M16.7 1c-1.5 2.4-5.2 3.2-6.3 5.8-1 2-1.2 4.2-3 5.2a9 9 0 0 0-4.3 6c-1.2.5-1 2.8-2.9 2.1-.2-2 .7-3.3 1.6-4.8 0-.7.8-1 .8-1.9q.6-1.5 1.6-2.8c.6-.7 2-1 1.6-2.2.2-.2 0-1 .8-.7q.5.1.4.9 1.7-1.5 2.7-3.8c1.3-2 3.4-3 5.5-4.3.6 0 1.6-.5 1.5.4" id="path63"/></g><g transform="translate(244 64.2)" fill="#161413" id="g65"><path d="M.5 0C1.5 2.6 2 5.4 4 7.3v.4c-.7 0-1-1-1.4-1.3-.7-1.3-1-2.9-1.9-4C.8 1.6 0 1.3.2 0z" id="path64"/></g><g transform="translate(232.4 64.2)" fill="#fffefc" id="g66"><path d="M6.8.5c-.3 1.3-2.3 1.1-3 2.2l-3 3H.1c-.2-1.1.9-1.3 1.3-2.2L6.1.1q.6-.1.7.4" id="path65"/></g><g transform="translate(258.3 65.5)" fill="#161413" id="g67"><path d="m1.6.6.8-.1c0 1.3-.3 3.4.2 4.8-.1.6.6 1 .1 1.5-.6-.4-.5-1.6-.8-2.3v-3h-.7c-.4.9-.3 2.3 0 3-.3 0-.1.3-.4.2Q.4 4.1.5 3.1C.9 2.9 0 1.5.8.9Q.7.3 1.1 0z" id="path66"/></g><g transform="translate(184.1 65.7)" fill="#fffefc" id="g68"><path d="M2 .5Q1.8 1.5.8 2q-.7.2-.8-.6Q.2.5 1.4 0 2 0 2 .5" id="path67"/></g><g transform="translate(243.1 66)" fill="#161413" id="g69"><path d="M.8 1.3q1.4 3.5 3.4 6.4v.5c-.8 0-1-1.1-1.5-1.7C2 4.2 0 2.5.4 0q.4.4.4 1.3" id="path68"/></g><g transform="translate(261.5 66)" fill="#161413" id="g70"><path d="m.7 3 .1 1.2c0 1.2.5 2.2.4 3.3H.9C0 5.7.4 2.8 0 .5L.4 0z" id="path69"/></g></g><g fill="#fffefc" id="g75"><g transform="translate(184 66.4)" id="g72"><path d="M4.5.6c-.3.7-1 1.2-1.2 2 .4 0 .7-.8 1.4-.4.5 1-.2 1.7-.7 2.3q-.9-.1-1.3-.7-.7.7-1 1.5c.4.1.8-.7 1.4-.4q.2 1.3-.9 2.2-.8-.1-.8-.9-.7.5-1.2 0C0 5.2.6 4.3 1 3.7 1.2 2 3.1 1.5 3.5 0q.9 0 1 .6" id="path71"/></g><g transform="translate(218 66.5)" id="g73"><path d="M20.5.4q-1 2.6-2.7 4.8l-.7 1c-1.6 1.1-1.2 3.7-3 4.6-1 1.8-3 3.3-5 4.3-.5.3-1.3.6-1.3 1.3.8.2 1.2-.9 2.2-1h.4v.5a24 24 0 0 1-4.2 3.4l-.7-.2c-1.4 1.2-3 2-3 4.1-1 1 .7 2.8-1.2 3.2-1.3-1.2-.1-3.2-.5-5l.5-2q1.9-2.2 4.5-3.5c1-1 1.5-2 2.4-2.7 1.7-2.5 4-4.2 5.5-6.7 1.1-1.2 1.8-2.6 3-3.8C18 2 18.4.6 19.7 0q.6 0 .8.4" id="path72"/></g><g transform="translate(222.3 67)" id="g74"><path d="M2.2 1q.4.4 0 .9c.5.5 1.3.5 1 1.3-.3.1-.1.3-.4.3.1.2.4.9 0 .9-.6 0-.4-.5-.6-.5C2 3.3.6 3.2 1 1.9Q.3 1.8.1.9C.2 0 1.8.5 2.2 1" id="path73"/></g></g><g id="g83"><g transform="translate(262.8 67.5)" fill="#161413" id="g76"><path d="M.7 1.4c-.2 2.1 1 3.7.7 5.4-.6 0-.5-.7-.6-1.1L.2 2C.5 1.3 0 .5.2 0c.6.2.2 1 .5 1.4" id="path75"/></g><g transform="translate(242 67.6)" fill="#161413" id="g77"><path d="M.8 1.6C1.3 3 2.4 4 2.8 5.3c.7 1.3 1.3 3 2.4 4.1l.1.7q-.7 0-1.2-.7C3.1 6.1.5 4 0 .1c.8-.1.8.8.8 1.5" id="path76"/></g><g transform="translate(272.7 68)" fill="#fffefc" id="g78"><path d="M.7.5H0L.2 0q.4 0 .5.5" id="path77"/></g><g transform="translate(192.1 68.8)" fill="#fffefc" id="g79"><path d="M4.7 1c-.1.9.4 1.5.1 2.5-.2 1 .3 2.3-.4 3.3-.4 1-1.7 1.3-1.7 2.6-.1.7-1.3.6-1 1.6-.5 0-.8.9-1.3.3-.4-.1-.2-.6-.3-.8q1.1-.3 1-1.4c.8-1 1.1-2.5 1.8-3.6 0-.8.6-1.6.2-2.6.2-1.1-.4-1.7 0-2.7Q4.5 0 4.8 1" id="path78"/></g><g transform="translate(264.6 69)" fill="#161413" id="g80"><path d="M.7 1.6q0 2.1.4 3.6.1.8.7 1.2v.5h-.4Q.4 5.8.6 4.2-.1 2.2.4 0c.5.4 0 1.3.3 1.6" id="path79"/></g><g transform="translate(172 70)" fill="#fffefc" id="g81"><path d="M2 1c0 2 .8 3 1.2 4.8 0 .5-.6.5-.8.7q-.9 0-1-.6C1.3 4.7.4 4 .6 2.4.6 1.5 0 .6.8 0c.7-.1.8.5 1.2.8" id="path80"/></g><g transform="translate(241.2 70)" fill="#161413" id="g82"><path d="M1.3 2q1.4 3.3 3.3 6.2c.1 1.3 1.2 1.7 1.3 3-1.5-1-1.8-3-3-4.3L0 .5.1 0c1 .2.5 1.5 1.2 2" id="path81"/></g></g><g fill="#fffefc" id="g89"><g transform="translate(191.6 70)" id="g84"><path d="M3.2 1.2v.6C3 2 2.9 2.9 2.2 3q-.4.8-1.1.9a1 1 0 0 1-.9-.8C0 2 1.3 1.8 1.3.7c.5-.7 2-.7 1.9.5" id="path83"/></g><g transform="translate(195.8 70.2)" id="g85"><path d="M3.5 1c.5 1.5-.7 1.8-.2 3 .8.2.5-.8.8-1.3.7 0 .1 1.3.5 1.5v.5c.8.5.5-.8 1-.5L6 5.7h.4c.2-1-.3-2.2.3-2.8.8 0 .6.8.8 1-.4.6 0 1.2 0 1.8.2 0 .4.3.5 0L8.1 4h.4c.7.8-.8 2.6.7 2.2.3-1.3 0-1.2.3-2.4h.2c.3 1 0 1.5.4 2.4h.3V3.5c1.1 0 .6 1.7 1.3 2.2.3.2.2-.3.4-.3l-.4-2c.2-.1 0-.7.6-.5q0 1.4.4 2.5c.6.3.4-.6.7-.7.6 0 .3 1.5 1 1 .3-.9-.4-2 0-2.8 1.5.4 1 2.8 3 2.2v-.6c.7-.4.7.6 1 1 0 1.6.7 2.7.6 4.3-.5 1-1.6.7-2.5.7-.5.1 0 1-.6 1.3q-.7 0-1-.6c-.4 1.2-2-.7-1.7 1l.3 1.6q.1-.7.6-1.2c.4.2 1 .4.7 1 .3.7-.3.5-.4 1q-.7 0-.9-.6c-.5 0 0 .6-.3.7-.5.1-1.2.4-1.2-.2v-3.7c-.5.2-.3.6-.6.9 0 1.1.3 3.3-.2 4.4q-1 .2-1.2-.7l.4-4c-.9 0-.3 1.4-.7 2q.3 1.2-.6 2c-1 0-.7-1.1-1-1.6l.3-.3c-.3-.2 0-1.1 0-1.7l.2-2c-.5-.4-.6.3-1 .2l-.4-1.2c-.6.6-.5 1.7-.7 2.6a6 6 0 0 0 0 3q-.1.8-1 .6c-.4-2.2.4-4 .3-6.3H6c.1-.5-.3-.2-.3-.6-1 1.6-.6 4.2-.9 6.2-.4.2-.4.8-1 .4l-.3-.2q0 .8-.8 1.3-.5-.2-.8-.8c.3-.5.1-1.2.7-1.5l.8.4q.4-1.9.5-3.8.5-.3.5-1.1.7-.8.4-1.7c-1 .5-.7 2.2-1.4 3h-.6c0-1.1.6-1.8.6-3q-.5.1-.8 1c-.4 1-.1 2.5-.6 3.5.1.5-.4.6-.5.8q-.6.1-1-.5c-.5-.7.3-1.1.3-1.9.6-.2.1-1 .5-1.4 1-1.4-.1-4.2 1-5.5 0-1-.3-2.5.3-3 .7-.3.8.4 1 .8" id="path84"/></g><g transform="translate(199.7 70.6)" id="g86"><path d="M1.2.8c.1.4-.4.6-.5.7Q0 1.5 0 .8 0 .3.5 0c.4 0 1 .4.7.8" id="path85"/></g><g transform="translate(219.7 70.6)" id="g87"><path d="M1.5.5c.1.8 1 1.1.5 2-.7.3-1.2-.4-1.4-.7C.5 1.3 0 .8.4 0q.8 0 1.1.5" id="path86"/></g><g transform="translate(211 70.8)" id="g88"><path d="M2.1.6c0 1 .8 1.6.3 2.5-.8.3-.8-.5-1.1-.7C1.3 1.5 0 .6 1.1 0Q2 0 2 .6" id="path87"/></g></g><g id="g109"><g transform="translate(265.7 70.8)" fill="#161413" id="g90"><path d="M.8 0c-.2 1.3.5 2.7.7 4v1l-.4-.2C.8 3.3 0 1.8.6 0z" id="path89"/></g><g transform="translate(222 71)" fill="#fffefc" id="g91"><path d="M2.1 1.4q.1.8-.5.8C.7 2.2.5 1.3 0 .7.2.6 0 0 .5 0c1 0 1.3.8 1.6 1.4" id="path90"/></g><g transform="translate(215 71.1)" fill="#fffefc" id="g92"><path d="M5.8 2.4q.1 1.6-.5 2.5 0 .8-.5 1.1-1 .1-.7 1.2-.2.3-.4.3c-1.3-.7-1.3 1.1-2 1.3-.5.2-1.1.7-1.5.2-.2-1.8.5-4 0-5.8.4-.4 0-1.3.4-1.6.6-.2.8 1.2 1.2.3L1.3.5q.4-.4 1-.1c.4.8.4 2 1.2 2.3.4-1-1-1.8 0-2.7 1.2.4 1 1.9 2.3 2.4" id="path91"/></g><g transform="translate(267.6 71.9)" fill="#161413" id="g93"><path d="M.7 1.4c.1 1.3.7 2.1.7 3.4q-.8-.2-.8-1c.1-1-.4-1.6-.4-2.4Q0 1 .2.2c.5-.2.4.7.5 1.2" id="path92"/></g><g transform="translate(185.6 72)" fill="#161413" id="g94"><path d="M.1.2 0 0h.1z" id="path93"/></g><g transform="translate(168 72)" fill="#fffefc" id="g95"><path d="M1 .8q-.2.6-.8.5C0 .7 0 .6.2 0q.7.2.7.8" id="path94"/></g><g transform="translate(239.8 72.2)" fill="#161413" id="g96"><path d="M1.8 2c1.6 3.3 3 6.8 5.5 9.5v.6h-.6C4 8.8 3 4.5.2 1.1 0 .7.5.4.6 0z" id="path95"/></g><g transform="translate(208.3 73)" fill="#fffefc" id="g97"><path d="M1 .7v.4Q0 1 .1.4L.5 0c.2.1.6.2.4.7" id="path96"/></g><g transform="translate(239.2 74.3)" fill="#161413" id="g98"><path d="M.6.2q.9 3 2.2 5.3l2 3.8c1 1.5 1.8 3 3.2 4.2v.6c-1.6-.7-1.9-2.6-3.2-3.6C3.1 7.3 1 4 0 .4Q.2-.1.6.2" id="path97"/></g><g transform="translate(191.4 74.3)" fill="#fffefc" id="g99"><path d="M1.9 1.8C1.5 2 1.4 2.9.7 3Q0 3 .1 2 .2 1.2.8.7c.8-.7 1.2.4 1 1" id="path98"/></g><g transform="translate(269.7 75)" fill="#161413" id="g100"><path d="M1.3 2.8q-.4 0-.7-.4Q0 1.3 0 0q1 1 1.2 2.8" id="path99"/></g><g transform="translate(237.8 77)" fill="#161413" id="g101"><path d="M1.2 0a41 41 0 0 0 8.2 14.3c0 .3.3.3.1.8h-.4A54 54 0 0 1 1 2c.4-.6-1-1.8.2-2" id="path100"/></g><g transform="translate(220.4 77.3)" fill="#fffefc" id="g102"><path d="m14 1-.5 2.4c-1 2.7-4 4-5.6 6.1q-.9.6-1.7.5-3 2.5-4 6.4c.7-.1.5-1.4 1.2-1.8q0-.6.5-.6.3.5.2 1.2c-.6 1.4-.4 3.3-1.3 4.6v.6c0 .1 0 1-.2 1.4-.5.2-1 .8-1.8.6-.8-.6.3-1.7-.3-2.5.2-1 1-1.8 1.3-2.6-.4-.1-.9.4-1.3 0-.3-1.2.3-2.5.6-3.6l2.7-3.8C7.4 7.2 11 4.4 13 .6c.4-.6 1.2-.1 1 .3" id="path101"/></g><g transform="translate(237.8 79.3)" fill="#161413" id="g103"><path d="M.6.8a52 52 0 0 0 9 15.2q0 .5-.4.4c-3-3-5-6.6-7-10.4l-2-4.5C0 1.2 0 .4.2 0c.5 0 0 .7.4.8" id="path102"/></g><g transform="translate(201.9 81)" fill="#fffefc" id="g104"><path d="M1.8 1c-.6 1 .4 2.3-.8 3-1-.3 0-1.5-.3-2.6.4-.5.2-1 .5-1.4q.8.1.6 1" id="path103"/></g><g transform="translate(198.3 81)" fill="#fffefc" id="g105"><path d="M.8.8c0 .3-.6.3-.7.1Q0 .4.2.1c.6-.1.6.4.6.7" id="path104"/></g><g transform="translate(237.2 82.8)" fill="#161413" id="g106"><path d="M1.5 3.2c.9 1.3 1.3 3 2.3 4.2 2.2 4.1 5.2 7.7 8 11.2-1 .1-1.3-1-2-1.5A42 42 0 0 1 .8 2Q.2 1.3 0 .2L.2 0c1 .7.9 2.2 1.3 3.2" id="path105"/></g><g transform="translate(229.2 83.6)" fill="#fffefc" id="g107"><path d="M4.4.1c0 1.7 0 3.8-.6 5.2-.1 1-1 1.5-.7 3q-.4 1.4-.4 3-.2 1.7-2 2.5l-.6-.1q0-1.9.4-3.6c.4-1 .2-2.4.7-3.5.2-1.8 1.5-3 1.9-4.6.3-.7.2-2 1.3-1.9" id="path106"/></g><g transform="translate(236.5 84.8)" fill="#161413" id="g108"><path d="M1.9 4.1c.3 1.4 1.3 2.4 1.6 3.7q2.9 5 6.6 9.3c.9 1.3 2.6 2.1 3.2 3.7-1.3-.2-2-1.7-2.8-2.5C9 16 6.6 14.5 5.5 12c-1-1.9-2.6-3.2-3-5.4-.6-.6-.7-1.5-1.2-2.5L0 .1.1 0c1 1 1 2.8 1.8 4.1" id="path107"/></g></g><g fill="#fffefc" id="g114"><g transform="translate(224.4 86.1)" id="g110"><path d="M6.7 0c0 1.2-.5 1.8-1 2.7C4.3 4 5 6.5 4 8c-1 1-1.3 2.6-2.7 3-.4-1.2.7-1.3 1-2.2l.8-2v-.3c-1.3.8-1.2 2.8-2.5 3.7H0c.1-1.7 1-2.9 1.3-4.4 1-1 .5-3 2.1-3.3C4.7 1.8 5.1 0 6.7 0" id="path109"/></g><g transform="translate(283.6 86.1)" id="g111"><path d="M3 .7q.2 1.8-.9 2.6-.6.6-1.4.1c-.3-.2-.7-.7-.3-1 .3 0 .9.3 1.1-.2.1-.8-.2-1.7.7-2q.7-.1.9.5" id="path110"/></g><g transform="translate(277.3 87.6)" id="g112"><path d="M3.9 2.5c.1.4-.4.4-.6.4a5 5 0 0 1-3-2C0 .1.4.1.6 0c1.5.2 2 1.6 3.2 2.5" id="path111"/></g><g transform="translate(221.2 87.4)" id="g113"><path d="M1 1c-.2.3-.3.8-.9.6C0 1.6.1.8.5.5c.3-.5.8 0 .6.6" id="path112"/></g></g><g transform="translate(235.7 87.6)" fill="#161413" id="g115"><path d="M.7 1.2c1.2 1.2.8 3.3 2 4.6Q3 7.1 4 8.1q1.8 3.9 4.7 7 2 3.2 4.8 5.5 0 .3-.2.2l-.8-.3Q6.8 14.8 3 7.7C2 6.9 2.2 5 1.4 4.2Q.8 2.2 0 .4L.2 0c.4.2.2.8.5 1.2" id="path114"/></g><g transform="translate(181.5 94.1)" fill="#0080c6" id="g116"><path d="m1.8 1.2-.7 1C.6 2.3 0 2 .2 1.3.2.7.8.4 1.1 0q.7.2.7 1.2" id="path115"/></g><g fill="#fffefc" id="g126"><g transform="translate(221.8 95.8)" id="g117"><path d="M6.8 1c.2 2.4-1.6 3.5-3 5-1 .5-2 2-3.3 1.2C0 6.8.5 6.5.5 6c.7-.8 1.9-1.3 2.7-1.9L6 .1q1-.2.8.8" id="path116"/></g><g transform="translate(203.9 95.9)" id="g118"><path d="m1.8 2-.6.5Q.5 2.4.2 2C.2 1.2 0 .4.7.1 2 0 1.4 1.3 1.7 2" id="path117"/></g><g transform="translate(202.4 96)" id="g119"><path d="M1.3 1q0 .5-.4 1-.7 0-.9-.7Q-.1.5.5 0c.6-.1.6.5.8.8" id="path118"/></g><g transform="translate(206.1 97.4)" id="g120"><path d="M1.2.6c.1.3-.4.6-.5.7C0 1.6 0 .8 0 .5.4 0 1.2.2 1.2.5" id="path119"/></g><g transform="translate(218.7 97.6)" id="g121"><path d="M14.8 1.8c.2.6-.5.7-.8 1.1q-.8 2.2-1.7 4c-1.5 1.5-2 3.5-3.7 4.6-2.8 2.8-5.7 5.5-7.4 9q-.3.6-.7.8-.6-.3-.5-1.2c.6-1.1 1.7-2 2.1-3.5.8-2.3 4-3 5-5.2 1.6-1 2.4-2.7 3.7-3.9.9-1.5.9-3.6 2.2-4.8.3-1 .3-2.1 1.1-2.7.9.1.7 1 .7 1.8" id="path120"/></g><g transform="translate(217.6 97.8)" id="g122"><path d="M14 1C12.6 5.4 7 6.6 3.5 9L.8 11.5q-.9.1-.7-.7C.4 9.1 2 8.5 2.7 7.2c2-1.4 5.3-1.5 7-3.4 1.1-1 2.6-2 3.1-3.2.4-.6 1.6 0 1.2.5" id="path121"/></g><g transform="translate(207 98.8)" id="g123"><path d="M8 1.5c0 .7-.7 1-.3 1.6q-.1 1-.4 1.7-.9.7-2.4.5-.8-1-.5-2.6c-.9-.7-2.4.1-2.9-1q-.5.6-1.1.4C0 2 0 1.1.4 1c.5-.3 1 .2 1.3.5.4-1.2 2-.1 2.9-.3 1 0 3-1.1 3.4.4" id="path122"/></g><g transform="translate(219.7 101.7)" id="g124"><path d="M13.9 2.5c-.2 0 0 .7-.1 1-.7.9-.4 2.3-1.2 3-.4 3.2-5.3 3-6.5 5.4-.6 2-2.8 2.6-3.3 4.5l-1.9 3q-.7.3-.9-.6c.5-2 2.5-3 3-5.1l2.4-3.2Q11.3 6.6 13.2 0c.8.2.7 1.4.7 2.5" id="path123"/></g><g transform="translate(217 103)" id="g125"><path d="M12 .5c-.5 1.4-2.5 1.9-3.3 3-2.8.6-3.9 2.9-5.9 4.2 0 .5-.7.9-.4 1.5 1.1.2 1.3-1.2 2.2-1.5C5.9 7.3 6.2 5.3 7.9 6c-.7 1.3-2.4 1.8-3.3 3-1.8.9-1.4 3.3-3.2 4q-1 .3-1-.4l.5-1c-.3-.2-.9 0-.9-.4l1-3c.9-2 3.2-3.4 5.1-5.1Q9 1.8 11.3 0q.7 0 .7.5" id="path124"/></g></g><g id="g130"><g transform="translate(266.8 109.2)" fill="#161413" id="g127"><path d="M.5.7Q.2.6 0 0c.2.1.7.4.5.7" id="path126"/></g><g transform="translate(233.8 109.3)" fill="#fffefc" id="g128"><path d="M1.5.7c0 1 .6 1.3 1 2q2 3.8 5 7c.7.5 1 1.5 2 1.8 2 3.2 4.9 5.8 7.5 8.8q.3.6-.3.8c-1.7-.1-2-2-3-2.8-2-1.8-3.3-4-5.3-5.8q-.3-1-1.3-1.7C4.8 7.7 2 5.1 0 1.6Q0 .6.5.1q.8-.1 1 .6" id="path127"/></g><g transform="translate(146.9 111.7)" fill="#161413" id="g129"><path d="M.6 1.4C.4 1.5.4 2 0 2 .2 1 1 .6 1.3 0c.2.6-.6 1-.7 1.4" id="path128"/></g></g><g fill="#fffefc" id="g135"><g transform="translate(225 111)" id="g131"><path d="M4.5 2.4c-.7 1-2.4 1.1-3 2.3C1.2 5 .7 6 0 5.3 0 4 1.2 3.7 1.8 2.6c.8-.2 2.8-2.6 2.7-.2" id="path130"/></g><g transform="translate(233.1 113)" id="g132"><path d="M4.7 4.4Q6 6.7 8 8.2q3.4 4.3 7.3 8.3-.1.8-.8.6c-1.7-.1-2.2-1.6-3-2.4-3-3.2-5.4-6.7-8.3-10C2.7 3.1.1 2.8.2.7.4 0 1.3.5 1.6.7 2.4 2.2 4 3.1 4.7 4.4" id="path131"/></g><g transform="translate(229.8 113.7)" id="g133"><path d="M2.6 1.3q-.4 1-1.5 1.6-1 .4-1.1-.8Q.7.8 2.1 0q.7.2.5 1.3" id="path132"/></g><g transform="translate(192.8 113.8)" id="g134"><path d="m3.2.7.2.1c-.5 1-1.5 1.8-2 2.7-.5.2-.8.6-1.2.2-.2-1.3 1-1.3 1.2-2.2l1-1.5q1 0 .8.7" id="path133"/></g></g><g id="g140"><g transform="translate(252.5 114.5)" fill="#161413" id="g136"><path d="M1 1.3Q.4.9 0 .1L.2 0q.8.3.9 1.3" id="path135"/></g><g transform="translate(224.3 114.6)" fill="#fffefc" id="g137"><path d="m4.8 1.2-2 3.2a5 5 0 0 1-2 3.3q-.6-.1-.8-1L.8 4c1-1.4 1.8-2.7 3.3-3.8.8-.1.7.6.7 1" id="path136"/></g><g transform="translate(232.4 115.9)" fill="#fffefc" id="g138"><path d="M1.4.5C3 1.8 3.7 3.8 5.5 4.8c2.2 2.7 4.4 5.8 6.9 8.3 0 .4 0 1-.6.8-1 .1-1-1-1.7-1.4Q7.7 9.9 5.7 7.2c-.9-.5-1.2-1.3-1.8-1.9C2.7 3.8 1 2.6.2.7 0 0 1.1.2 1.4.5" id="path137"/></g><g transform="translate(252 116.5)" fill="#161413" id="g139"><path d="m1.4 1.7 1.3 1.8c-1.2-.7-1.6-2-2.7-3V0q1 .8 1.4 1.7" id="path138"/></g></g><g fill="#fffefc" id="g145"><g transform="translate(187.5 116.8)" id="g141"><path d="M17.4 1q-.3.1-.2.5c.6 0 1.2-.8 1.9-1 .1-.4 1-.5 1.4-.3v1.3c-.8.6-2 1.4-3.3 1-.1 1.3-1.5 1.3-2.4 1.9l-2.2 1.1c-1.9 2-4.8 2-7.5 2.4-1-.7-2.7-.1-4-.5Q-.1 7 0 5.5C.7 5 1.3 3.5 2.5 4v.3c1-.4 1-1.4 1.9-1.8.3-.3.3 0 .4 0 0 1.1-1 1.6-1 2.5 0 .3.6.2.6 0C4.4 3.6 6 3.2 6 2c.4-.2.6-.7 1-.4 0 1.7-1.4 2.4-1.5 4 .1.2.3 0 .4.2.6-2 2-3 2.4-4.9.3-.3.8-.7 1.2-.3.5.5 0 .8 0 1.2C8 2.4 8 4 7.3 5.2c1 0 1-1 1.6-1.8.5 0 .3.5.3 1q-.3.1-.1.4l1.5-.2c.4-.5.6-1.4 1.6-1.3v.8c.8-.3 1-2.6 2.4-1.4.8-1 1-2.6 2.7-2.6z" id="path140"/></g><g transform="translate(223 117.4)" id="g142"><path d="M1.4.2q.2 1-.7 1.6C.1 2 .4 1.4.1 1q0-1 1.3-.8" id="path141"/></g><g transform="translate(274.7 117.8)" id="g143"><path d="M2.2 1.8c.3.7.4 2 0 2.7.3 1-.2 2.4.3 3.5-.7 1-.1 3-.6 4.3q-.5.5-1.2.3c-.7-2.7.4-5 .2-7.5.2-.6 0-2.6 0-4q0-.7.6-1.1c1 0 .3 1.4.7 1.8" id="path142"/></g><g transform="translate(231.6 118.1)" id="g144"><path d="m3.5 2.7 6.6 7.5.4 1.2c-2.1.4-2.8-1.6-3.9-2.8-.1-.8-1-1.2-1.5-1.7C3.5 5.4 2.8 3.4.8 2.4.8 1.8 0 1.6.4.7c1.6-.7 2 1.5 3.1 2" id="path143"/></g></g><g transform="translate(251.2 119)" fill="#161413" id="g146"><path d="M3.3 3.5c0 .5.8.9.2 1.2L.7 1C.5.6 0 .5 0 0c1.5.6 2 2.5 3.3 3.5" id="path145"/></g><g fill="#0080c6" id="g162"><g transform="translate(180 52.8)" id="g147"><path d="M15.2 4.5q4.4 2.8 9.7 4.5c.2.2 0 .8 0 1-.5.5-1.5.5-2 .2s-1.1-.3-1.3-.9c-.5.4-.5 1.3-1.2.7l-1-1.4q-.4.4-1 .4l-1.3-1.6q-.2.8-1 .4-.3-1.6-1.6-2.1c.1 0 .2.9-.1 1.1-1.4 0-1.4-1.5-2.6-2q-.7.6-1.3 0l-1-1c-.3 0-.9.4-1.3 0q0-.5-.3-.7c-.5.4.3.9-.1 1.4-1.7 0-1-2-2.4-2.1L6 3.8q-.5.2-.8-.3L4.1 2.1c-.6.6.6 1 0 1.7-1 .4-.7-.9-1.3-1-.6.1-1 1.4-1.9.6-.8-.2-.2-.7 0-1.2s1.6.3 1.7-.7v-.4C4.5.5 6.7 0 8.7.7q3.8 1.3 6.5 3.8" id="path146"/></g><g transform="translate(231.4 53)" id="g148"><path d="M2.4.6c0 .7-.7.8-1.1 1-.6.2-1.3 0-1-.8C.2.6.2.1.6.1q1-.2 1.7.5" id="path147"/></g><g transform="translate(219.7 53.2)" id="g149"><path d="M11.4 1c-.8.4-1.3 2.2-2.4 1.1-.9.5-.9 1.4-1.6 2.1q0 .9-.6 1.3c-.7.2-.2-.7-.3-1.1l.3-1c-.7.4-1 1.4-1.1 2.1-.8.6-.4 2.4-2 2l-.2-1.1c-.4.7-2 .6-2.3 1.5Q.5 8 0 7.5q.1-1 1.2-1.5c3.6-1.8 5-5.4 9.4-6q1-.1.8 1" id="path148"/></g><g transform="translate(193.5 54.3)" id="g150"><path d="M8.4 2.7c0 .4.2.1 0 .4s-.9.4-1.3.2c-.7-.4-.9-1-1.8-1q-.2.4-.1.8c-1.4.3-.8-2.2-2.4-1.3-.6-.2-1.6 0-2-.6C.7.8 0 .7.4.2a14 14 0 0 1 7.4 2z" id="path149"/></g><g transform="translate(224.6 55.8)" id="g151"><path d="M7.3.7C5.3 2.5 3.8 4.5 2 6.2 1 6 1.7 8 .4 7.3c-.4-.2-.4-1 0-1.2q.2-.3.8 0a9 9 0 0 1 2.3-3.9A9 9 0 0 1 7 0q.4.1.3.7" id="path150"/></g><g transform="translate(174.8 57.4)" id="g152"><path d="M17 2.8c3 .9 5 2.5 7.3 4a14 14 0 0 0 9.3.5q.6.1.8.8c0 1.4-2.2.7-2.7 1.8q-1.2-.2-1.9.8c-1.2-.3-1.8-.8-3-1q-.4.8-1.2.7c-.7-.4-.6-1.2-1.3-1.4q0-.4-.3-.4c0 .8-1 1.3-2 .8-.8-.6-1.3-2.2-3-1.5-1.1-.4-1.1-1.7-2.3-2.1q0-.4-.4-.5l-.2.1c.2.4.6.8.2 1.2-1.2.2-1.7-1-2.5-1.5q-.7-1.2-2.3-1.7l-.2.4c.4.6 1.5.6 1.2 1.6-.4.1-1 .4-1.2-.1q-1-1.6-2.7-2.7c-.5.2.2 1.3-.6 1.3-1.3-.4-2-1-3-1.7v1C3.4 4 2.4 2 1 3q-1 0-1-.8C.6.2 3.7 1 5.3 0q6.3.3 11.8 2.8" id="path151"/></g><g transform="translate(220.5 61)" id="g153"><path d="M2.1.6q0 1-1 1.5-1 0-.9-1.2.2-.6 1-.8c.3-.1 1-.1 1 .5" id="path152"/></g><g transform="translate(155.5 69.7)" id="g154"><path d="M7.4.1 6.8 2c.2.2.4.8.6.4q.2-.6.7-1c.7-.2.4 1 .9 1 .7-.2 1.6 0 1.8.7.4 1.3 1.2 2.2 1.2 3.8.3 1 0 2.2.4 3q-.1.5-.6 1c-1 0-1-1-1-1.7 0-1.3-.4-3-1.1-3.9l-.5-.1c0 1.2 1 1.7.8 3 0 .4-.6.3-.8 0Q9 6.6 7.4 5.7C5 5.4 3 6.9.4 6.6Q0 6 .4 5.1c1-1 1.5-2.4 2.8-3.2 1 .1-.6 1.6.7 1.3.3-.3.2-.8.8-1 .5.2.1 1.7 1 1-.3-1.4 1.1-1.7 1.1-3q.2-.3.6 0" id="path153"/></g><g transform="translate(168 76)" id="g155"><path d="M1.5.6q.2 1.2-.4 2C.2 2.6.2 1.8 0 1q0-.7.5-1 1 0 1 .6" id="path154"/></g><g transform="translate(164.7 79.2)" id="g156"><path d="M1 1c-.2.4-.8.4-1 .2Q0 .3.5 0q.8.3.6 1" id="path155"/></g><g transform="translate(144.5 85.2)" id="g157"><path d="m28.3 1-2.7 1.8q-.2.3 0 .6c.3.4.4 0 .7-.1l4-2.6.7.4c-.4 1.4-2.4 1.5-3 2.7q0 .7.6.4c1-1 2.6-1.7 3.6-2.9.7-.1 1.1-1.3 2-.5v.5Q32.4 2.3 31 4c.2.6 1 .2 1-.1.3-1 2-.7 2.3-1.7.3 0 1-.4 1.3 0 .1 1-1.3 1-1.2 2 1 .3 1-.7 1.7-1 .8-.5 1.7-1.6 3-1 .4.3 0 .5 0 .9q-1.5.4-2.3 1.1c1 1.3 1.9-.5 3-.5q1-.5 1.7.2c.1 1.5-2.1.7-2.4 1.6.4.5.8 0 1.3 0 .8.3 2.3-.3 2.4.6-.1 1.6-2.3 1.2-2.6 2.5-.8.4-.6-.6-.8-.8-.6.3-1.8.2-2.3 1-1.5 0-1.2 1.8-2.8 2-.2.7-1 1.1-1 2H33c.4-.4-.1-.9-.2-1.3-.6 0-.5.7-.7 1.2q-.1 1-1.1 1.6-.6-.3-.4-1 .3 0 .2-.3l-.3-.2c-.4.5-.3 1.1-1 1.1-.5.1-.3-.4-.7-.4-1.6 0-1.7 2.4-3 1.2l-1.6 1.6-1-.5c-.7 1.3-2.7-.4-2.7 1.5-.1.5.4.3.5.6 4.8-.6 9.2-2.2 13.5-3.6.9-.8 1.8-.5 2.7-.6.7-.5 1.7-1 2.6-.6q0-1 1-1.2c.3-.1.4.5.8 0q-.1-.8.5-1.2c.3-.2 1-.3 1.3.1.3-.8-.4-1.3.6-1.6q.6 0 1.1.6.2.7-.6 1h-.9v1.3c-.4.7-2 0-1.5 1-.5.8-2.2 0-1.7 1-.1.5-.6 1-1.3.6-.3.4-.3-.3-.7 0 .1.7.5 1.2-.2 1.4-1 .4-1.9-.3-2.7-.3.2.3 1 .7.4 1.3q-.6.7-1.7.2l-1.3-.6c.1.5.7.5.5 1.2-.4.5-1.5.5-2 .2q-.5-.3-1.1-.2c-.1.5.5.8-.2 1.2-1.1.5-2.4-1.7-2.8.1-.4.6-1.6.2-2 .7l.4.4c3 .4 6.7 0 9.8-1l6.2-2.1c1.5-.5 2.4-1.5 3.9-2 .7-.1.5.7.5 1.2-.1.7-1.3 1-1.3 1.9l-2.1 3c-.3 1-1.3 1.3-2 2-.8.3-.8-.4-.6-1q1-1.2 1.6-2.7v-.8l-.5.2c-1.4 2.7-3 5-6 6.7-.6.1-.7-.4-1-.5-.1-1 1-1.2 1.6-1.9.9-1 1.8-1.5 2.4-2.7-.4-.2-.5.2-.7.2-2 1.7-3.3 3.6-5.6 4.8q-.4-.1-.9-.7l2.6-2.8-.1-.3c-2.1 1-2.5 3.8-5.2 4.2q-.6-.4-.5-1.1 1.3-1.4 2.8-2.5c-.4-.5-.7.2-1.1.2-1.3 1-2.2 3-4.3 2.6-.2 0-.2-.6 0-.6q1.7-.8 2.6-2.2c-.8 0-1.2 1-1.9 1.3-1 0-1.3 1.5-2.6.8.4-1 1.7-1.4 2.2-2.5H25c-1.2.9-2 3-4 2 .2-1.4 2.2-1.5 2.7-2.7q-1.2 0-2 1c-.7.6-1.4 2-2.7 1.4q.6-1 1.5-1.7.1-.4-.2-.4c-1.3.2-1.7 2.2-3.2 1.5 0-.7.7-.8.7-1.5-1.4 0-1 2-2.6 1.7-.5-1 1.2-1.3.8-2.1-1.3.4-1.2 2.6-3.2 2.1 0-1 1.2-1.4 1.6-2.5-.4-.2-.6.2-.9.3-.8.7-1.5 2.1-2.9 1.8-.1-1.1.8-1.2 1-2-1.1 0-1.5 1.2-2.3 1.8-.2.4-1 .4-1.4.2-.4-1 1.4-1.1 1.3-2.4-1.3.2-1.4 1.6-2.5 2.2q-.7.6-1.6.5c-.6-.6.3-1 .4-1.4q.8-.4.9-1.4c-1.6.3-1.7 2.8-3.7 2.6-.1-1.3 1.9-1.3 1.7-2.6-1 .3-1.1 1.4-2.3 1.4l.1-.7C1 21 1.4 22.9 0 22.3v-.7q1.6-3.2 5.5-4.2c1.6-.2 2.5-1.4 4-1.3 1.2-1 3.2-.2 4.8-.6q2.2 0 4.4-.3c1.7-1 3.8-.6 5.2-1.8 1-.4 2.1-.3 2.8-1.1 1.1-.8 3.2-.9 3.2-2.5h.1v-.5c-1-.2-1 1.7-2 .8-.2-.3.4-.6 0-.7-.7.6-1 2-2 1.7 0-.9.7-1.2.3-2.1-.7.2-.5 1.1-.7 1.6s-.9.8-1.2.4c-.3-.8.3-1.2.1-2-.5.5-.5 1.6-1.3 1.4l-.2-2h-.1c-.2 1.6-.2 3.3-1.2 4q-.7 0-.6-.7c.1-.9.5-1.6.3-2.6-.2-.1.4-1.3-.4-1-.3 1.8.3 4.2-1.2 5-1.2-.4 0-1.4-.4-2.5.3-.6 0-1.6.2-2.5-.6 0-.5.7-.5 1.2.1 1-.4 1.8-.1 2.8q-.3 1-1 1c-.4.2-.3-.3-.6-.5.5-2 .3-2.8.4-5.2q-.4-.2-.6.1c-.4 1.8.6 4.4-.8 5.2q-.7 0-.5-.8v-1.5q.2-.3.1-.7-.1-1.2-.6-2.2c-1 .3 0 1-.2 1.6 0 .7.5 1.1.3 2-.4.3.3 1.9-.7 2-.4.2-1 0-.8-.7.1-1.6.5-4-.3-5.1q-.4.2-.2.8c0 1 .4 1.7.3 2.7-.4 0 0 .5-.1.4-.2.7 0 1.6-.9 1.9-.8-.8 0-2.9-.4-4.1L12 7.4q-.3 0-.3.3l.3 3.4c-.7.3.6 1.7-.7 1.7h-.5c-.2-.8.3-.9.5-1.1-.6-1-.5-2.6-.7-4-.1 0-.2-.3-.6 0 0 1.6 1.3 3.8-.2 4.7-.7 0-.6-.9-.7-1.4 0-1.2-.5-2-.6-3.2-.7.3.2 1 0 1.6 0 1 1 2.3-.3 2.6q-.4.1-.8-.5c-.5.2-.3.9-1 .5.2-.3-.2-1 .3-1l.6.4c.2-1-.4-1.4-.6-2.2q-.3.6-1 .2C5.2 8.2 4 7.8 4.2 6.1c1-1.4 1.7-3 3.6-3.7q.9-.5 1.9-.4c0 .4.3 1 .8.6q1.2-1.3 3.5-1.4c-.2.7-1.5.8-1.5 1.6 1 .5 1-.6 1.5-.8 1-.1 1.5-1.4 2.7-1q-.4 1-1.9 1.7v.7h.7c1.3-1 1.8-2.5 3.6-3l.7.2-.1.6c-.9.8-2.1 1.4-2 2.6 1.5-.4 2-2.2 3.5-2.9h.5c-.1 1.1-2 1.5-1.6 2.6 1.3-.8 2.4-2 4-2.7.5.3 0 1-.3 1.2-.2.5-1 .5-1 1.2q.4.6.9.1C24.9 2.1 25.8 0 28.3.5z" id="path156"/></g><g transform="translate(140.6 109)" id="g158"><path d="M12.4.1q5 .4 9.7 1c2.4 1.5 5.7 1.1 8 2.4.4 1.3 1.5 0 2.3.4 1 .1 2.1.5 3 0 .6 0 1.6 0 1.6.7.5-.2.7-1 1.5-1q1.5.8 2.3-.2c1.3.6 1.8-.3 2.7-.8 1.3-1.3 3.5-1 4.7-2.4.7-.2 1 .3 1 .6 0 1-.7 1.3-.7 2.1-.3.6-.2 1.8-1.3 1.5L47 3c-.8 1.1-.5 3.3-2.6 3.5q-.9-.2-.4-1c.3-.7 1.1-1.2 1.2-2-.7-.3-.8.5-1.2.8-.6 1.3-1.1 3.3-3 3.1-.4-.4.2-.9.2-1.4q.8-.6.8-1.6c-.6.2-1 1.2-1.5 1.9-1 .4-.8 2-2.4 1.8q-.6-.6.2-1.1 1-.8 1.4-2.2c-1.7 1.5-2.8 3.6-5.4 4.6q-.7 0-.9-.7.3-.8.9-1.1c1-.9 2.3-1.3 2.8-2.6-1.2.3-2 1.5-3.2 2-.8.6-1 1.9-2.5 1.4-.2-.1-.2-.8 0-1 1.3-.4 2-1.5 3-2.2-.8-.2-1.4.7-2.1 1s-1.1 1.2-2 .9c-.3-.1-.3-.8 0-.8q.8-.3 1.1-1.1c-1.1-.1-1.5 1.6-3 1.2 0-.6.6-1 .8-1.3-.7 0-1.9 1-2.6.3-.2-.7.6-.4.4-1.1-.9 0-1.6 1.5-2.5.7l.1-1.1c-.5 0-1.4 1.2-2 .1-.2-.2.6-.4 0-.6-.7.4-1.3 1.3-2.1.7-.5-.2.1-.5.1-.8q.2-.1.3-.5c-.5-.3-.3.5-.9.5-.5.3-.8 1-1.6 1-.7-.6 1.7-2.5-.3-1.6q-.3 1-1.5 1.6L16 4c0-.7.6-.8.6-1.5-1 .1-1.3 1.2-2.1 1.8l-.5-.2c-.4-1 1.3-1 .7-2-1 .5-1.5 2.4-2.8 1.5 0-.5 1-1 .2-1.3-.2 1.1-1.4 1.7-2.2 2.5H9c-.1-1 1-1.4.8-2.4-1.4.7-1.3 2.7-3 3.2q-.9-.1-.7-1c-.5-.1-.5.6-1.1.6-.4.4-.6 1-1.2 1-1.2-.9.8-1.2 1-2 .3-.6.9-.9.9-1.6-.6 0-.9.7-1.4 1-.6.8-1.5 1.4-1.7 2.3q-.5.1-1-.1c0-1.7 2-2 2.2-3.3-1.4.7-2.1 2-3 3-.7.4-.8 0-.9-.4 1.2-1.9 2.4-4 4.6-5z" id="path157"/></g><g transform="translate(179 116.4)" id="g159"><path d="M7.4 1.3c-1 .8-.5 3.5-2.7 2.5.1-.3-.2-.1-.2-.4-.6.6-.6 1.8-1.8 1.9q-1-.1-1-1c-.2 0-1 .6-1.3 0C0 4 .4 3.4.6 3c.6-.7 1.8-.4 2.3-1.1.6-.2 1.5 0 1.7.3v.1c.8 0 .7-1.1 1.2-1.6s2-.6 1.6.7" id="path158"/></g><g transform="translate(174.2 119.3)" id="g160"><path d="M2.6 1q-.1.4-.5.6Q1 2 .2 1.3C.4.9 0 .2.6 0c.8.1 2 .1 2 1" id="path159"/></g><g transform="translate(177.2 119.3)" id="g161"><path d="M1.8 1c-.5.3-.4.9-1 1q-.9 0-.7-.8 0-.8 1-1.2c.5.1.4.7.7 1" id="path160"/></g></g><g id="g168"><g transform="translate(198.1 119.8)" fill="#fffefc" id="g163"><path d="M.2.4H0L.2 0q.2 0 0 .4" id="path162"/></g><g transform="translate(230.9 121.2)" fill="#fffefc" id="g164"><path d="M4.7 3.5c1 1.6 3 2.6 3.2 4.4q-.2.3-.7.2c-1.3-.7-2-2-3-3C2.8 3.5 1.1 2.5 0 .7Q0 .2.5 0c2 .6 3 2.2 4.2 3.5" id="path163"/></g><g transform="translate(249.8 121.3)" fill="#161413" id="g165"><path d="M5 5.2c.7.8 1 1.7 1.7 2.5V8c-1-.6-1.4-1.6-2-2.8L3.2 3.4.4.7C.4.4 0 .2.4 0c2 1.3 3 3.5 4.7 5.2" id="path164"/></g><g transform="translate(207.3 122.4)" fill="#fffefc" id="g166"><path d="M3.8 1.9c-1.2.7-2 2.5-3.7 1.6q0-1 .7-1.5c1.2.1 1.7-2 3-1z" id="path165"/></g><g transform="translate(266.8 124)" fill="#161413" id="g167"><path d="M2.4 2.7A7 7 0 0 1 0 0c1.2.6 1.7 1.9 2.4 2.7" id="path166"/></g></g><g fill="#fffefc" id="g181"><g transform="translate(231.6 125)" id="g169"><path d="M5 3.9c0 .8-1.2.6-1.6.3-1.3-1-2-2.4-3-3.4Q-.1.3.4 0c1.4 0 2.2 1.3 3.1 2q1 .9 1.4 1.9" id="path168"/></g><g transform="translate(200.7 125.6)" id="g170"><path d="M3.9 1c.2.8-1 .5-1.5.5l-.2-.2q-.2 1-1.1 1.4-.6 0-.9-.5C0 2 0 1.2.2 1 .7.6 1.6.7 2 1.1q0-.8.7-1.1Q3.8-.1 4 1" id="path169"/></g><g transform="translate(201.7 125.8)" id="g171"><path d="M5.7.8Q5.3 2 4.2 2.2q-.2.6-.9 1.1c-1.6-.4-1.2 2.4-3 1.3Q0 4 .2 3.6c.1-1 1.2-.8 2-.9-.4-.2.1-.6 0-1 .7-.4 2 .2 2-.9.1-.4 1.6-.8 1.6 0" id="path170"/></g><g transform="translate(120.1 125.8)" id="g172"><path d="M32.3 1c4.1 1.1 6.3 4 10 5.6q1.6 1.2 3.8 2c0 .5.2.5 0 1-1.6.5-3.1-.8-4.8 0q-5.4 1.2-10.3 3.5-.6 0-.5-.4.8-1 2-1.3c1.5-1.2 3.8-1.7 5.8-2.4v-.4c-1.9 0-3.7 1-5.4 1.5-2.2 1-3.6 2.6-5.5 3.8-.4 1-1.7 1.6-2 2.7-1.8 1-1.8 3.5-3.5 4.6h-.6c-.2-1 .6-1.2.5-1.9 2.1-2.8 3.9-5.9 6.8-8.1q3.3-2.7 8.2-3.4c0-.6-.6-.4-.8-.5-6.3.8-10 5.2-13 9.3-.9 1.5-2 2.6-2.4 4.6-.5.7-.5 2-1.5 2.4-1.3.8.8 1.1-.1 2.2q0 1.2-1 1.9-.4-.1-.4-.5l-.2-.1q-.6.9-.6 2.2c-.8 1.2-.8 3-1.3 4.6-.3 2-.3 4.6-1.1 6.4q-.8.2-1-.4c0-1.3.4-2.4.3-4 .8-1.4.2-3.9 1-5.3l2.1-5.4a28 28 0 0 1 6-10.2q1.2-1.8 2.5-3.3c2.4-2 4.6-4.3 8.2-4.8v-.3c-1.2-.2-2.4.5-3.6.8-3 1.9-6 4-7.5 7-3.8 4.4-6 10.1-8 15.9 0 1-.9 1.3-.5 2.3-.5 1.6-.4 3.4-.7 5-.5 1.9.1 4.5-1.2 5.6-.7 4-4.6 5.4-6.1 8.6q-.7 2-1.7 3.4-.6 0-.7-.7c.9-3.9 3.8-6.2 6-9.2 1.7-2.4 2-5.8 2.5-8.9a49 49 0 0 1 1.7-7.9q.9-3.6 2.7-6.5c.3-2 1.9-3 2.3-4.7 2.1-2.2 3.2-5 5.7-7.2 2.2-1.4 4.2-3.5 7.4-4.2-.3-.6-1.4-.2-1.9-.1a19 19 0 0 0-8.5 6.6c-.7.6-.6 1.5-1.3 2-.9 1.5-2.2 2.8-3 4.4-1.3 3.2-3.3 6-4 9.6-.3 1.4-1 2.7-.8 4.3-.8 1.3-.6 3.3-1.1 4.8q-.3 2.5-1 4.8c-.8 3.6-4.4 5.5-6 8.8q-.4.3-.7-.5c.7-1.8 2.5-2.8 3.3-4.7q1.2-1.2 1.8-3c.6-.5.4-2 1-2.6q.4-3.7 1.2-7.4c.6-2.4.7-5 2-7-.3-1.6.9-2.2 1-3.8l3-5.4 3-3.7v-.3h-.5a42 42 0 0 0-8.8 17.8c0 1.8-.6 3-.6 4.8-1 1.8-.7 4.3-1.7 6 0 2.2-1.5 3.1-2 4.9-1.4 1.6-3.1 3.2-3.4 5.6-.7.6 0 2.1-1.2 2.6v.4l-.5-.1c.3-.8-1-1.1-.3-2 .1-1.2 1-2 1.7-2.8.4-.4.3-1.4.8-2 1.8-2.3 3.4-4.7 3.8-8 .6-1.4.3-3.4.8-4.8.2-1.3 0-3 .8-4.1.5-3 1.9-5.6 3-8.4.6-.7.8-1.8 1.5-2.5q1.6-4.9 5.4-8.3 1.6-2 3.7-3.3l3-2.3c-.6-.8-1.4.5-2 .6q-2.1 1.5-3.7 3-.7.3-.9-.4c-1.7.7-3 2.4-3.7 4q.1.3.5.1c0 1.1-.8 1.7-1.1 2.5q-2.8 5-4.9 10.3-.6 1.1-1 2.7-.8 2.6-1 5.6c-1 2-.2 5.2-1.4 7.1-1 3-3 5-4.1 7.9-.7.3-.7 1.2-1 1.9q-.7.2-1-.1c0-4 3-5.7 4.4-8.8.4-.3.3-.9.7-1.6s.8-2.5.2-3.5c-.4-.9.2-1.8.2-2.8.6-.7.4-2 .9-2.7q.1-1.2.7-2.2c-.2-.8.6-1.3.3-2.5.7-2 2.4-3.5 2.5-6.1l-.2.1q-.5 1.3-1.3 1.9-.8-.3-1-1.2 1-3.7 3-7.2.5-1.7 2-2.9v-.6C15 8.1 17 4.8 21.2 2.8 24 1.3 27.7 0 31.3 1z" id="path171"/></g><g transform="translate(212.3 126.5)" id="g173"><path d="M1.5 0C1.3.6.5.8 0 1Q.3.2 1.5 0" id="path172"/></g><g transform="translate(205.7 126.7)" id="g174"><path d="M5.5 0c.2.4 0 1 .4 1h.7c0 .2-.2.8.1.6C7.7 1.3 8.6.1 10 .3c.5 1.3-2.5 1.2-1.8 2.5.9-.1 1.8-1 2.7-1 0 1.1-2 .8-2 2 1-.3 2.4-1.7 3.7-1.2-.7.8-2.3 1-2.6 2q1.5-.3 3-1.4h.3c0 .8-1.2.6-1.3 1.4.8.3 1.4-.8 2.4-.3-.3 1-2 .7-2 1.8 1 0 2.4-1.3 3.1-.3h-.2c.3.4 1 .2 1 .8-.7.4-1 2.2-2.4 1.5l-.3-.2c-1.1.4-2 1.2-3.4.6 0-1.2-1.9.3-2-.9-.4.2-1.2.2-1.5-.3v-.5l.1-.2-.1-.1c-.5 0-1 1-1.8.4 0-.6-.6-.4-1.1-.3h-.2c-.2-.3-1.3-.1-1-.8l.2-.2v-.2c-.7 0-.8 1-1.6 1q-1 0-.9-1.1C.7 4.7 1.5 4 1 3 1.6 1.4 3.8.7 5.5 0" id="path173"/></g><g transform="translate(231.6 127.1)" id="g175"><path d="M1.9 1.2q0 1-.7 1-1.1 0-1-1Q0 .5.3.2c.9-.2 1 .7 1.5 1" id="path174"/></g><g transform="translate(297.9 126.9)" id="g176"><path d="M4.5 1.2q.2.6-.6.8h-.1c.7.6 1.9.5 1.5 1.7-1 1.8-2.4-1.2-3.7.4C1 4.1.1 3.5.5 2.6c-.5-.4 0-.8.2-1.3.6-1.3 2.8-.8 3.8-.1" id="path175"/></g><g transform="translate(199 127.6)" id="g177"><path d="M1 .1Q1 .8.5 1-.1.7.4.1z" id="path176"/></g><g transform="translate(200 130)" id="g178"><path d="M1 .2q.1.6-.4.6C.2.8 0 .2.4 0l.7.2" id="path177"/></g><g transform="translate(230.7 130)" id="g179"><path d="M4.5 3.7q2.5 3 5.2 5.7c.9 1.2 1.5 2.5 2.7 3.6.8-.4-.3-.9-.3-1.3q-1.4-2-3-3.8C8.6 6.7 7.5 6 6.8 5A14 14 0 0 1 3.2.8Q3 .3 3.9.2l.8.3C6.1 2.5 8.2 4 9.3 6l3.2 3.6c.6.5.7 1.5 1.5 1.7.3-.7-.2-1-.6-1.5C11.1 6.7 8.1 4 6 .7c0-.6.9-.6 1.3-.5q2.9 4.3 6 8c.8.9 1 2.2 2.2 2.4 0-.8-.9-1.2-1.2-2-2-2.6-4.3-5-6-7.8.2-.6 1-.6 1.4-.3 1.6 3 4.6 5.2 6 8.5q.1.2.7.2-.2-.8-.7-1.7c-1-.9-1.2-2.3-2.4-3-.8-1.3-2.1-2.3-2.5-3.8.7-.6 1.3 0 2.2.1.9 2 3 2.9 3.5 5 1 .7.7 2 1.8 2.6.2-1.7-1.2-2.4-1.6-3.8l-2.4-3.2q-.1-.7.5-.8c1.8.7 2.6 2.5 3.7 3.6.6 1.2 1 2.3 2.1 3q.6-.2.4-.7c-1-1.7-2.5-3.2-3.6-4.7.4-.7 1.7-.3 2.4-.2.5.9.6 2 1.6 2.4.2-1-.9-1.3-.4-2 1.5-.4 1.5 1.5 2.3 2.5.4.3.4 1.5 1.2 1.2.1-1.5-1.6-2.3-1.3-3.7.7-.4 1.4.4 2 .6.4.3.2 1.9 1 1.4.2-.5-.3-.8.2-1.2q2.5.1 5.3 1c2.2 1.6 3.2 4 4.6 6q-.1.9-1 .6-.9-1.6-2.3-3c-.1.1-.5.3-.1.5 1.3 1.2 2 2.7 3 4 1.3 1 1.6 3 2.1 4.6 0 .3-.7.5-.9.2q-.8-1-1.2-2.6c-1.4-1.8-2.3-4-3.7-5.9h-.3c.1 1.1 1 2 1.6 2.9 1 1.6 2.2 3.3 2.7 5.3l-.2.4c-.9-.2-1.1-1.1-1.6-1.8q-1-2-2.5-3.8c-.2.8.6 1.3 1 2 .8 2.5 2.8 4.1 3.5 6.4 0 1-1 1.1-.7 2.3 1.3 1.2 2 3.3 4.6 3.2 2.1-.5 4.5.3 6.5-.5 2-.6 4.6-.5 6.8-1.3l5.4-.4c1.2 0 2.6-.4 3.7.3q1 1.6 2.3 3.2h.4c-.7-1.3-2-2.4-2-4.1 2-.3 3.3 1.6 4 3l1.3 5.3c-1.6.8-2.9-1-4-1.7-.7 0-.6-1.5-1.3-.6-1.2 0-1.2-1-2-1.6 0 1.5-1.7.4-2 1.6-1.4-.6-2.4-1.8-3.8-2.3q-.3.3.1.4c1 1 3.2 1 2.7 2.6-1.5 1-2.3-.7-3.5-1.2-1.3-.1-1.8-1.4-3-1v.2c1.6 1 3.6 1.5 4.6 2.6q-.1.6-.8.7c-2.7-.3-4.6-1.7-6.7-2.9h-.7c.8 1.3 3 1.8 4.1 2.9.1 1-.8.8-1.3.8-1.5-.4-2.5-1.4-3.9-1.7-1.4-.5-2.4-1.8-4-1.5l.3.5C45 29.6 47 30.2 49 31c0 .3.6.6.1 1-2.7.3-5-1.5-7-2.6q-2.6-1.7-5.6-2.8-.1.5.3.6c3.5 2.2 6.8 3.8 10.4 5.7.5.3 0 .7-.2 1-2.4 0-5.2-1.4-6.8-2.8q-4.6-2.2-8-5.5-1.7-1.8-3.6-3.2c0 1 1 1.5 1.6 2.2 3.5 3.3 7.4 6.6 12 9q.8.6.4 1.4c-1.8.6-3.5-1-5-1.8-2.5-2.6-6.2-4.2-8.2-7.2-2-1-2.3-2.8-3.7-4-.6-1.6-1.8-2.8-2.7-4.1q-.3 0-.4.4 3.7 6.1 8.8 11c1.8 1 3.1 2.3 4.9 3.3-.1.5.3.5 0 .7-.6 1-1.8-.2-2.5-.4-.3-.9-1.5-1.1-2.2-1.6q-3.5-3.2-6.9-6.8c-1.8-2.1-3-4.7-4.6-7q-.3 0-.3.3 1.2 2.7 2.8 4.8c2.1 3.4 5.2 6 8.1 8.9 1.6 1 3.5 1.6 4.6 3 .2.7-.6.8-1.1 1-3.5-.9-5-4-7.3-5.8Q22.3 25 19.2 19c-1-.4-.7-1.5-1.4-2-.5 1.4 1.3 1.9 1.3 3.3q2 3.3 4.3 6.2c1.5 2.8 4.5 4.5 6.2 7 .4.4 1.3.6 1.1 1.3 0 .4-.7.6-1 .4-.3-.4-1-.2-1.3-.4l-3.8-4.6c-1.5-2.5-3.8-4.5-5.2-7-1.5-2-2.2-4.6-3.9-6.5q-.2.6 0 1a67 67 0 0 0 5.8 9.2c1.8 1.7 2.7 4.2 4.6 6 .2.7 1.8 1 .8 2-.3.1-.8-.3-.9.2-.4-1.2-2.2-1.4-2-3-2.1-2.2-3.2-5.1-5.2-7.1-.5-1.2-1.5-1.8-1.6-3.2-.4-.2-.4.2-.5.2.3 2.2 1.9 3.2 2.6 4.9l3.3 4.3q-.1.7-1 .4c-1.8-2.5-4-5-5.5-7.7-.1 0-.5-.4-.6 0-.2.5.4.6.4 1q2 3 4.3 5.5c.4 1.2 2 1.7 1.8 3.2q-.7.4-1.3-.1c-1.8-2.1-3-4.5-4.8-6.5-.3-.4-.3-1-.9-1-.4 1.1.6 1.8 1.3 2.5q1 .8 1.1 2.1c.1.4-.5.8-.8.4-.7-1-1.8-1.7-2-3-.6-.4-.4-1.4-1-1.7-.4.2 0 1-.7.8-1.2-.1-.8-1.5-1.7-1.9-1.5-1-.9-3.4-2.5-4.3-1.2-.7-1.7-2-2.3-3.1q-1.5-2.2-3.4-4.5c-.7-1.7-2.2-3-2.7-5 .5-.4 1 0 1.2.3q3.7 5 8.2 9.2.3.1.3-.2c-1.6-2.2-3.7-4-5.3-6L.8 6.8c-.2-.8 2-1.1.6-2q0-.5.7-.7c1 .4 1.3 1.4 1.9 2.1 1.3.7 1.3 2.4 3 2.9.7 1 1.2 2 2.3 3q.8 1.4 2 2.9l.4.2.2-.2C10 12.5 8.5 9.8 6 7.8A31 31 0 0 0 .1 1.3Q.1.3 1 0c2 .5 2.3 2.6 3.6 3.7" id="path178"/></g><g transform="translate(225 130.6)" id="g180"><path d="M1 .8q-.2.4-1 .1Q0 .4.6.1c.5-.1.6.4.5.7" id="path179"/></g></g><g id="g188"><g transform="translate(208.5 131.2)" fill="#161413" id="g182"><path d="M.2.5Q0 .3.4 0C.7.2.2.4.2.5" id="path181"/></g><g transform="translate(211.2 132)" fill="#161413" id="g183"><path d="M0 .4.4 0z" id="path182"/></g><g transform="translate(274.2 131.4)" fill="#fffefc" id="g184"><path d="M3.2 1.4c.3 1 .8 2.6.1 3.7q-.9.7-2.1.2c-.4-.4-1-.8-.8-1.6C0 2.9.2 2 .2 1.3c.5-1.3 2.5-.6 3 .1" id="path183"/></g><g transform="translate(212.8 132.3)" fill="#161413" id="g185"><path d="M0 .5.7 0h.4z" id="path184"/></g><g transform="translate(271.1 132.2)" fill="#fffefc" id="g186"><path d="M2.6 3q-.3.5-.7.5C.5 3.2 0 2 0 .7c1-.7 1 .7 1.8 1z" id="path185"/></g><g transform="translate(213.9 133.6)" fill="#161413" id="g187"><path d="M.1.1 0 0h.2z" id="path186"/></g></g><g fill="#fffefc" id="g196"><g transform="translate(264.8 134)" id="g189"><path d="m2.8 2.6 6.9 10.8q0 .9-.4 1.3c-1.2.5-1-1-1.4-1.5Q6.7 11 5 9.3C4.9 7.7 3.5 7 3 5.7 2.2 3.9.9 2.5 0 .8Q0 .3.8 0c1.2.5 1.3 1.9 2 2.6" id="path188"/></g><g transform="translate(221.3 134)" id="g190"><path d="M1.8.7V1c-.4.5-1.2 1-1.8.5Q.1.5 1 .1q.5 0 .8.6" id="path189"/></g><g transform="translate(290 134.3)" id="g191"><path d="M4.4.5c-.2 1-.9 1.5-.5 2.6.6 0 .3-.9.7-1.2q0-.6.8-1 .8.6.5 1.8c-.6 1.5-1.3 3.5-3.4 3.5C.9 6 2 8.2 1 8.6q0 .7-.4.8H0c0-2.3.6-4 .8-6.1.6-.7.6-2.1 1.8-2 .3 1.2-.8 1.4-.2 2.6q.4-.9.5-1.9c.3-.7.2-1.5.6-1.9q.8-.2.9.4" id="path190"/></g><g transform="translate(175.3 134.9)" id="g192"><path d="M14.1 1.2v.7c-1.4.5-2.6-.3-4 .1q-4.6.7-8.7 2.6c-.6-.1-1 .2-1.4-.1.4-1.8 2.5-2.1 4-3.2C7 0 10.6.3 13.7.7z" id="path191"/></g><g transform="translate(268 135.2)" id="g193"><path d="M2.7 2.4c1 2.2 2.5 4 3.3 6.3.5.6 1.4 1.2 1 2-1.6.4-1.6-1.4-2-2.2L0 .7Q.1.1.4 0C1.8.2 2 1.5 2.7 2.4" id="path192"/></g><g transform="translate(160.8 136.2)" id="g194"><path d="M4.4.2c0 .9-.6.9-1.2 1L.2.8Q0 .8 0 .6C1 0 3 0 4.4.2" id="path193"/></g><g transform="translate(193.2 136.2)" id="g195"><path d="M2.2 1c.2.5-.6.4-1 .5Q.4 1.4 0 .8C.5 0 1.8.6 2.2 1" id="path194"/></g></g><g transform="translate(233.7 136.8)" fill="#161413" id="g197"><path d="M7.9 9.4v.3h-.5C5.2 6.2 2 3.5 0 0c2.7 3 5.8 5.9 7.9 9.4" id="path196"/></g><g fill="#fffefc" id="g207"><g transform="translate(136.3 136.9)" id="g198"><path d="M1.8.1Q1.3 1.2 0 2C0 1 1 .6 1.5 0z" id="path197"/></g><g transform="translate(197.7 137)" id="g199"><path d="M1.5.6c0 .5-.3 1.2-1 .7C.4 1.2 0 .7.4.5c.2-.5 1-.3 1.1 0" id="path198"/></g><g transform="translate(185.2 137)" id="g200"><path d="M4.4.8c0 1-1.2.7-1.7 1C2 1.2 0 2.5 0 .8 1 0 2.7.5 4 .5z" id="path199"/></g><g transform="translate(193.8 137.7)" id="g201"><path d="M8 .6q-.2.6 0 1.4c.4-.4.4-1.2 1.2-1l-.4 4.5c0 1.1-.6 2-.2 3.1-.7 1 .8 1.9-.1 2.8.3 1.2 0 2.7.3 4-.4.9.3 1.4 0 2.5.6 1 0 3.3.6 4.5h.3C9.9 18 9.2 16 9 12V9.3c-.3-2.8.6-4.7.6-7.4.2-.2 0-.6.4-.6 1 .4 0 1.9.4 3q-.7 5.4-.1 11.2c-.4 1.7.6 2.6.3 4.4.1.6-.1 1.3.5 1.9.5-.4 0-1.2.1-1.8-.3-.2.1-1-.2-1.3 0-2.2-.3-3.3-.4-5.4.1-.2.4-.6 0-.7-.2-1.5.5-2.7 0-3.9v-.8c.4-.4-.1-.7 0-1.2.1-1.4.5-2.6.4-4 0-.6.6-.8.6-1.4h.2c-.2.8.5 1.4 0 2.1.1 1.8-.4 3-.2 4.8q-.2.6 0 1.3c-.2 1.4.5 2.4 0 3.7.3 2.3.2 4.8.7 7 0 .6-.3 1.6.3 1.8h.3c0-2.2-.6-4.5-.4-7.2-.8-1.2.2-2.7-.2-4.1-.4-2.6.3-5 0-7.8.4-.4-.2-1.7.6-2q.6.2.7.7c-.3 2.5-.4 5.8-.5 8.7.3 3.1.2 6.6.7 9.7-.2.2-.2 1 0 1.4l.4.4q.2-.3 0-.9c-.3-1.1.2-2.5-.2-3.6.4-2.4-.8-4 0-6.2-.6-2.3.2-4.4 0-6.8.2-1-.2-2.6.9-3 .3 0 .8.3.5 1-1.1 1-.2 3.5-.7 4.7.5 1.6-.3 3 .2 4.4.2.8-.5 1.3 0 2 .2 2.1-.4 4.7.4 6.4a3 3 0 0 0 0 2c.7.2.3-1 .4-1.4-.5-3.5-.3-6.6-.1-10.3l-.2-.2c0-2.9.2-5.2.3-7.8l.5-1.2q.7 0 .8.6L16.7 4c-.4 2.1.1 5-.4 7q.3.8.2 1.8l-.1.3c0 1.7-.3 3.7.3 5.2h.1l.2-4.6c.3-1.1 0-2.7 0-3.6V6.8h.3l-.2-.6c.2-1 .1-3 .7-4.2q.2-.6.8-.4c.7 1.2-.5 1.7-.1 3.1-.6 2.2-.7 5.2-.4 7.9q-.4 3 0 6.1c0 .5-.3 1.3-1 .7l-.3-.8c-.3.1 0 .7 0 1V21c-.4 1.1 2.5 1 1 2-3.2 1-6.6 1.1-9.8 2l-6.5.6q-.6-.1-1-.7c0-2.2-.5-4.4-.1-6.4 0-.1 0-.8-.2-1.2-.2-1.2.4-2.1.2-3.4v-.1c0-1.6.9-3.3.4-5.2l1-4.6c.2-1 0-2.1.6-2.8.2-.4.7-.1.8 0Q3 3.5 2.5 5.4 2 6.6 2.2 8q-.4 1.5-.3 3.8h-.1c-.3.5 0 2-.3 2.7.3.3 0 1 .1 1.3v1q-.2 4 .8 7.4h.2c.5-.4 0-1 0-1.6-.4-1.7 0-3.7-.4-5.2q.4-1.6 0-3.2c0-2.6.7-4.7.6-7.4.7-.6 0-2.2.6-3q.1-1.3.7-2.5.2-.3.5-.3C4.8 2.2 4 3.5 4 5c-.7.8-.2 2.5-.6 3.5-.2 1-.2 2.6 0 3.6-.3.7 0 1.9-.3 2.6.1 3 .6 5.4.8 8.3.5 0 .2 1.5 1 .8-1.2-2.9-.8-7-1.1-10.4-.1-.5.3-.5 0-.7-.1-1.5.3-2.8.2-4L5 3q0-.7.8-1c.5 2.6-1 4.3-.5 7.3a9 9 0 0 0 0 4.3c-.6 2.9.3 5.6.5 8.3q0 .8.7 1.2l.2-.1c-.2-1.2-.8-2.4-.6-4-.3-.8 0-2.3-.2-3-.2-.4.2-.6.1-1q-.3-3.6 0-7c-.4-1 .7-2.2.3-4 .2-.2.7-.7.3-1q-.3-.6-.1-1.3c.3-.3-.2-1.2.6-1.5q.7 0 .8.5" id="path200"/></g><g transform="translate(285.9 137.6)" id="g202"><path d="M1.8 1.5c0-.3.6-.8 1.1-.4 0 .3.6 1.8-.5 1.8q-.5-.3-.6 0c0 .9-.3 1-.7 1.2C0 4.5.5 3.1 0 3 0 2.1.6 1.5.1.7.2.5.6 0 1.1.2c.3.4 0 1.2.7 1.3" id="path201"/></g><g transform="translate(272.4 137.8)" id="g203"><path d="m1.8 1.5-.3.5C.5 2.2.5 1.2.1.7Q0 .3.5 0c1 0 .4 1.4 1.3 1.5" id="path202"/></g><g transform="translate(215 137.8)" id="g204"><path d="M10.5.5c0 1-.6 1-1 1.5-2 2.1-4.4 3.9-6 6.2.7.4.9-.5 1.4-.8 1.6-1.2 2.5-2.8 4-4.2h.8c0 1.2-.7 1.6-.9 2.6-2 2.2-4.8 4-6.6 6.6v.2l.5-.1 4-3.9h.8v.6c-1.5 2.2-3.5 4-5 6.1.3.4 1-.1 1.2-.3 1-1.2 2.3-2.4 3-3.8q.5-.9 1.4-1 .6 0 .5.9c-1.5 2.6-4.4 4.3-6.1 6.8-1.3-.3-2 2-2.5.4q.9-1.4 2.2-2.6c-.7-.3-1.1 1-2 .4 0-1.5 1.7-1.8 2-3.3-.8 0-.9 1.2-1.8.9 0-1.2.7-1.8 1-2.7.2-.4-.2-.4-.3-.5H.9Q1.3 9 2.2 8L1 8.2c-.3-.3.2-.8.3-1.1 1.5-1.2 3.5-2 4.6-3.6q2-1.5 4-3.4.5 0 .7.4" id="path203"/></g><g transform="translate(276.3 137.8)" id="g205"><path d="M2.1 2c.6 1.3.1 3.3 1 4.1.3 1 .3 2.4.8 3.3-.5 1.8 1.3 3.8-.6 4.6q-1 0-1-1-.4-2.4-.4-4.5c-.2-1-.1-2.3-.6-3.2.1-.7-.4-1-.1-1.8C.7 2.5 0 1.2.6.1 1.9 0 1.4 1.5 2 2" id="path204"/></g><g transform="translate(192.5 137.5)" id="g206"><path d="M2.8 1.4c-1-.1-2 .7-2.8 0 .1-1.4 1.9-.1 2.8-.3z" id="path205"/></g></g><g transform="translate(291.9 138.3)" fill="#161413" id="g208"><path d="M.2.6C0 .4.4.2.4 0z" id="path207"/></g><g fill="#fffefc" id="g213"><g transform="translate(137.1 138.8)" id="g209"><path d="M52 1c.3 1.1-1 .8-1.6.8-6.3-.9-11 3-14 6.6l.2.2C39 6.4 41.3 3.9 45 2.8c2.6 0 5-1.3 7.2 0 .3.6-.5.9-1 .9-4.2-.6-8.8.9-10.8 4 1 .4 1-.8 1.8-1 .5-1.2 2.3-1 3-2 2.5-.1 5-1.2 7.2-.1.5 1.4-.4 2.8.1 4.1-.1 3-1 6.1-.5 9.3-.4 1 .5 1.8 0 2.6.2.4-.3 1.2 0 1.5q-.2 1.6-.2 3.6c-.1.4-.8 1-.3 1.6-.5 1-.3 2.3-.9 3.2.5.1 1.2-.2 1.3.2q.2 1-.3 1.5-.6.2-1 0l-.2-1-.7.4c-.8-1.2.3-2.3 0-3.7.1-1 .6-2 .2-3.2-.8 1.7-.2 4.2-1 5.8a4 4 0 0 1-1.3 4.2q-.7 0-.9-.5c-.3.7 0 1.7-.9 2q-1 0-.7-.9 0-2.4.8-4.3 0-1.7.4-3v-2.2q.2-.1 0-.4-.9 1.6-.7 3.7c-.4 2.6-1.3 5-.9 7.8-.4-.1-1.4 1-1.6 0-.4-1.6.3-2.6.6-4q.3-1 .2-2.4c-.3-.2-.2.4-.5.6.2 1.5-1 2.5-.7 4.2q-.3 2.6-1 5c-.1.5-.8.3-1 0q.3-2.6 1-5c.1-.4.6-1 .4-1.6-1.1.7-.5 2.8-1.6 3.8.2 1.4-1 2.5-.8 4q-.2.8-1 .8c-1-1 .3-2 .3-3 .6-.5 0-1.6 1-2-.4-1.1.6-1.3.1-2.4h-.2L37.2 43c-.4.4-.7 1-1.5.7.3-2 1.3-3.9 1.9-5.8l.6-2.2c-.4-.5-.6.2-.7.4 0 1.7-1.2 2.6-1.3 4.2-.9 1.8-1 4.2-3.2 4.7.3-1.3 1-2.3 1.3-3.5.2-1 1.2-1.7 1-3 .5-.6.4-1.4.7-2q-.2-.4-.5 0c-1 2.9-1.8 6-3.5 8.4q-.6.6-1.4 1c.6-1.8 1.7-3.4 2.1-5.4.2-.8 1-1.3.6-2.3-1.4.2-.6 2.1-1.4 2.7.1 1.3-1 1.5-1 2.8-.5.7-.7 1.7-1.6 2-.7-.2 0-.8 0-1.2q.9-1.8 1.6-3.7 0-.6-.2-1c-1 1.4-1.3 3.2-2.3 4.7Q28 46 26.9 47c-.2.1-.3.7 0 .7 1 .1 1.5-2 2.7-.6.2-.5 1-.5 1.4-.2 1-1.8 3-.3 4.7-1.3 1.6-.3 3.2-1.3 4.7-1.8q.8-.3 1.4.4.2 1.7-1 2.4c-.9.5-1-1.1-1.5 0 .2.9-.2 1.3-.3 2q-.7.6-1.7.3-.3-.4-.3-1c.2-.4.6-.5.3-1-.4-.3-.2.3-.4.5q-.5 2-1.4 3.7c-.5.3-1 .8-1.6.5-.7-1.3 1-1.9.3-3-1.2 1.2-.6 3.7-2.3 4.6a1 1 0 0 1-1-.7c-.5.4 0 1.4-1 1.4-.6.2-.8-.2-.8-.4q.1-1.4.5-2.6c-1 .1-.6 1.6-1.1 2.3q0 1.1-1 1.6-.6-.2-.8-.9.5-1.1.5-2.2c-.5 0-.3.6-.6 1-.1.4-.6 1-.1 1.5q-.2.9-1 1.3-.8 0-1-.7c0-.9.6-1.2.7-2-.2 0-.3-.3-.6 0-.3 1.1-.3 2.7-1 3.7q-.4.5-1.1.2 0-1.5.4-2.4c-.9.1-.6 1.3-1 2-.1.6 0 1.5-1 1.5-1.3-.2.2-2-.6-2.4-.9.6.4 2.8-1.1 3-.4.4-.6 0-1-.2-.3-1 .4-1.8 0-2.6-.6.2-.3 1.2-.4 1.6.3.2-.1.6 0 1.1q-.4.4-1.2.4c-1-.3 0-2-.7-2.3-.7.6.4 1.4-.4 2a1 1 0 0 1-1.1.1c-.3-.4-.3-1.3-.7-1.5-1.1.6 0 1.5-.4 2.5.2 1-.3 1.4-.1 2.2-1.8 2-2.7 4.5-4 6.9-.1.4-.5.9-.4 1.6h.4c1-1.5 1.6-3.4 3-4.7q1-.1 1.1.7c-.5 1.2-.8 2.4-1.9 3.2q-.4 1.6-1.5 3c-.1.5 0 1.3-.7 1.6-.8 0-1.7-1-2-.1 0 .2-.5.8 0 .9.3-.1 1-.6 1.3-.1.2.7.5 1.2 0 1.7-.5.3-1 .5-.7 1.2.2.3.2 1 0 1.2-.4.2-1 .1-1 .7v1.3c-2 .5.9 3-1.3 3.5q-.4.9-1.4.9c-.4-.3-1-1.1-1.4-.4-.3.5-.1 1-1 1.2-.9-.1-1-.8-1.3-1.5-.4-1.8 1.1-2.3 1.6-3.6a7 7 0 0 0 2.4-4.6c.8-2.3 2.2-4.2 2.8-6.8q.7-1.3 1-3c1-1.8 1-4.4 1.3-6.7-.3-1.4.4-2 .6-3.3 2.1-1.5 4.7-3 6.7-4.6a9 9 0 0 0 4.2-6c-.4-.3-.2-.8-.3-1 .4-1.2.1-2.7.6-4 0 0-.3-.4 0-.7-.2-1 .1-2.5-.2-4-.5-1.1.2-2.2.1-3.2.2-4-.4-8.5.6-12-.1-2 1-3.1 1-5l.2-.2.4-2.1c.4-.9 1.1-1.3.9-2.6q.7-2.2 2-4.2c1-2 2-3.8 4-4.9 1-.6 1.6-1.8 3-1.4.6.7-.7 1.5-1.1 2-2.3 2.6-3.8 5.6-5.5 8.6 0 1.3-1 2-1 3.5-.5.8-.5 2.1-1 3-.3 1.7-1 3-.7 5-.3 1.2 0 2.7-.3 4-.3.5 0 1.7-.3 2.2v1.5c0 1.6 0 3.8.4 5.3-.5 2.5.5 5.8-.1 8.6.2.3.3-.1.6-.1l.2-3c-.4-3 .2-4.2-.1-7.2.2-1.8-.5-3.3 0-5-.4-2.6.7-4.4.2-7 .4-.3 0-1.2.4-1.6 1-3.6 1.6-7.2 3.5-10.2.2-.9 1-1.7 1.4-2.7 1.2-1.7 2-3.7 4.3-4.6l.7.2c0 1.7-2 2.2-2.9 3.3-.2 1.1-1.3 1.7-1.6 2.8q-1.6 2.4-2.4 5.6a14 14 0 0 0-1.4 5.1q-.1 1-.5 2c-.5 1.2 0 3.3-.4 4.6.2.5.2 1.3 0 1.5.2 2-.5 3.6 0 5.5-.4 1.4-.1 3-.1 4.4v.1c-.4 1.5.4 3 0 4.6l-.6 3.5h.2l.4-.4c.8-1.9.5-4.2.8-6.4-.6-3.3 0-7.1-.1-10.8.2-1 .2-2.6 0-3.8q0-.7.4-1.5l.5-3.4c.4-2.6 1.4-4.6 2.1-6.8 1.3-3.8 3.8-6.6 6.5-9.2l.8-.1c.4 1.1-1 1.7-1.6 2.5q-2.1 3.2-3.9 6.5c-.7 2.1-1 4.4-2 6.3l.1.8c.2 1.6-1 2.2-.6 4q-.2.3-.2.8.2.3.3.1l1.3-5.9q.6-3.6 2.4-6.5a15 15 0 0 1 3-5.1q1.5-2.4 4.3-4.3C42.9.6 47.7 0 51.8.7z" id="path208"/></g><g transform="translate(212.4 139.2)" id="g210"><path d="M1.8 3q-.4 3.1-.6 6.7c-1.2 0 .4 1.7-1 1.3-.2-.5.2-.8.3-1C0 9.8.2 9.4 0 9c.2-.3.2-1.2 0-1.6l1-7q.5-.5 1.1-.2c.4 1-.7 2-.3 2.9" id="path209"/></g><g transform="translate(214.3 139.3)" id="g211"><path d="M2 1.2c.1 1-.7 1.6-.8 2.6H.5c-.5-.9.3-2 .3-3C.8 0 2.5.2 2 1.2" id="path210"/></g><g transform="translate(191.5 139.6)" id="g212"><path d="M3 1.3c.3 1-1 .6-1.1 1.2l1 .3c.2 1-1 1-1.7 1q-.9 0-1.2-.6L.1 1 .8.2c.5.3 1-.2 1.3.3-.1.4.6.7.8.8" id="path211"/></g></g><g transform="translate(200.8 140)" fill="#161413" id="g214"><path d="M.8 3.3c-.6 1 .4 2.2-.2 3.3.3.8-.4 1.4 0 2.1.3.8-.4 1.4 0 1.9-.6 2 .5 3.4.2 5.4l.5 3.8-.1.1c-1-1.5-.5-4.4-1-6.2C0 11.5.1 9 0 7c.5-.6 0-2 .4-2.7C0 3 .4 1.8.4.8L.7 0C1 1.2.6 2.4.8 3.3" id="path213"/></g><g fill="#fffefc" id="g221"><g transform="translate(286.8 140.9)" id="g215"><path d="M2 1.3q0 1.6-.6 3c-.1.3-.8.3-1 0 0-.3-.4-.5-.3-1 .3-.6-.1-2.1 1-2.6-.3-.3.2-.5.2-.7q.3.8.7 1.3" id="path214"/></g><g transform="translate(189.4 143)" id="g216"><path d="M4.6 1.5c-.2.4-1 .1-1.2.7.4.2 1 .2 1 .5.2.7-1 .4-1.1 1 .5 0 1.4.3 1.2 1.1s-1.4.3-1.6 1c.5.3 1.3.2 1.5 1 0 .5-1.1.5-1.6.9.3.4 1.4.3 1 1.1-.3.4-1 .3-1 .7q.9 0 1.2.6c.2.9-1 .5-1 1l1 .7q.2.8-.5 1l-1.3.3c0 .6 1.8-.1 1.8 1 0 .4-.6.4-1 .7.4.4 1.1.6 1 1.3-.3.6-1.4.4-1.6.9.5 0 1.5-.3 1.6.6s-3 .9-.5 1.2c.3 0 .3.5 0 .6l-.4.4c0 .3.6.2.8.5.6.7 1.6.7 2.7.9 1 0 2.7-1 3.3.2.6.2.5-1 1.3-.5.6 0 0 1.1.6 1.2 1-.7 1.3 1.2 2.1.2.1 0 .6 0 .6-.2.3-.5-.2-1.7.6-2 .7 0 .3 1.2.8 1.3.4-.4-.2-1.4.5-1.5.8.1.4 1 .8 1.5.7-.3-.1-1.1.4-1.7.2-.1.7-.5 1-.1 0 .5.5.9.2 1.6.9.2.9-1 1.7-.5q0-1 .6-1.3c1.2 0 .7 1.2 1 1.8-.7 1-1.5 2.4-3.4 2.1-5.6.8-10.8 2-16.6 2.5-.8-.1-.8-1-1.3-1.5q.1-1.2-.3-2c-.5-4 .6-6.9.2-10.9.4-.6 0-1.6.2-2.2q0-2.2.6-3.7c-.7-1 .6-1.5 0-2.6.1-.5.1-1.6.6-2 1 .3 2.6-.9 2.5.6" id="path215"/></g><g transform="translate(313 146)" id="g217"><path d="M3.9 3.9c.2.7-.5 1.2 0 1.9q.3 1 0 2c-.2.3-1 .3-1 0-.4-.6 0-1.8-1.1-2C1.5 4.6 0 3.7.8 2.4 2.1 2.2.5 0 2.4 1q1.4.9 1.5 2.8" id="path216"/></g><g transform="translate(224.3 147.3)" id="g218"><path d="M8.5 1.2c.1.5-.4.7-.4 1 .6.3 1.3 0 1.7.6q-.2.8-.8 1-.7 0-1.2.2v.2c.7.2 2-.2 2.3.5 0 1.2-1.5.7-2 1.3.5.8 2.1-.3 2.6.8-.2.9-1.4.7-1.9 1.3.6.7 1.7-.3 2.3.4 0 1.5 1.1 3.2 0 4.6-2.1 1.5-5 1.2-7.6 2.1-.6-.8-1.9 1-1.9-.6 1.6.5.8-1.4 2.2-1.3-.3-.2 0-.8-.4-.8-1 .1-2.3.8-3.3.3q-.1-1 .6-1.5c2.1-.8 4.8 0 6.2-1.8.2-.9 0-2 .2-3-.3-.7-1-1.2-.5-2-.5-.7-.4-1.7-.6-2.5q0-1.2.5-2c.8.1 1.3.8 2 1.2" id="path217"/></g><g transform="translate(139.2 148.9)" id="g219"><path d="M1.8 0Q1.7 2.2.5 3.5q-.7-.2-.3-.7C.7 1.8.5.2 1.8 0" id="path218"/></g><g transform="translate(126.8 149.1)" id="g220"><path d="M1.5.4q0 1.3-1 2Q0 2.2.2 1.3C.4.8.7 0 1.5.3" id="path219"/></g></g><g transform="translate(168.8 150.2)" fill="#161413" id="g222"><path d="M4 0c-.7 2.5-2 4.6-3 6.8L.3 10Q0 9.6 0 9c.6-.8.1-2 1-2.6q0-.9.4-1.8t1-1.8c0-1.3.8-1.9 1.3-2.8z" id="path221"/></g><g fill="#fffefc" id="g230"><g transform="translate(226 150.9)" id="g223"><path d="M1.3.7q0 .8-.7.6T.4.3c.3-.3 1.1 0 .9.4" id="path222"/></g><g transform="translate(211.9 151.2)" id="g224"><path d="M1.7 1.5c-.3.5-.2 1-.9 1-.8 0-.3-1-.4-1.4.3-1.1 1.3 0 1.3.4" id="path223"/></g><g transform="translate(228.4 152.5)" id="g225"><path d="M1.5 1.4c-.2.5 0 1-1 1.2Q0 2 0 .8.2.3.6 0q1 .3 1 1.4" id="path224"/></g><g transform="translate(210.3 152.4)" id="g226"><path d="M11.9.8c-.6.4-.4 1.6-1.2 2-.1 1-1.6 1-2.2 1.8-.5.7-1.6 1-1.6 1.9 1.1-.4 2.3-2.7 3.5-1-.6 2-2.9 2.5-4.5 3.8.7.1 1.2-.7 1.9-.3.7 1.7-2.4 1.6-2.6 3 .8.1 1-1 2-.8.7.2.5.8.2 1.4-.6 1-2.3 1-3 2.1.9.5 1.5-.8 2.3-.3 0 1-1.3 1-1.3 2 1 0 1.9-1.3 3-1.3.7 1.2-1.5 1-1.6 1.9.5.3 1 0 1.4 0 .4.6 1.2.8 1.1 1.6.6.4 1-.1 1.5.5.4 1 2.2 1.2 1.7 2.7-.6.8-1.9.3-2.8.7-1.6 0-2.9 1.9-4.5.7a9 9 0 0 0-1-3.4q-.5-3-3.4-4.3C0 14 2 13.1 2.5 11.8c1-.7.3-2.5 1.5-3.2q.7-.6 1-1.3c-.3-.2-.9.2-1-.4 0-1.5 1.5-2 2.4-3 2.2-.4 3-2.5 4.6-3.8q.8 0 .9.7" id="path225"/></g><g transform="translate(235.7 153.8)" id="g227"><path d="M2.4 2.8c0 .4-.4.6-.3 1 .5.2 1-1 1.6-.3.2.9.3 2.4-.2 3-.8.2-.8-.7-1.1-1.2v-.7c-.4 0-1 .6-1.3.1L.2 1.3C.4.9 0 .1.6 0c1.3.4 1.8 1.8 1.8 2.8" id="path226"/></g><g transform="translate(225.6 154)" id="g228"><path d="M1.4.8c-.1.4-.8.4-1 0C0 .5.6.1.9 0q.5 0 .5.8" id="path227"/></g><g transform="translate(212 154.4)" id="g229"><path d="M1.2.7q0 .8-.6 1.2Q0 1.7 0 1 .1.3.7 0q.5.1.5.7" id="path228"/></g></g><g fill="#161413" id="g234"><g transform="translate(292.7 154.5)" id="g231"><path d="M1.4 1.8C1.1 1.2 0 .8 0 0h.4z" id="path230"/></g><g transform="translate(291 155.3)" id="g232"><path d="M.5.5Q.2.5 0 0z" id="path231"/></g><g transform="translate(288.6 154.9)" id="g233"><path d="M1.9 1.5q-1 0-1.9-.8c.8-.7 1.3.6 1.9.8" id="path232"/></g></g><g id="g240"><g transform="translate(228.6 155.7)" fill="#fffefc" id="g235"><path d="M1.2.7c.1.5-.4.4-.6.5Q-.1 1 0 .4C.4 0 1.3 0 1.1.7" id="path234"/></g><g transform="translate(136 156.7)" fill="#fffefc" id="g236"><path d="M1.6 1.4c0 .4-.4 1-1.1.7C0 1.3.5.6 1 0c.7 0 .4.8.5 1.4" id="path235"/></g><g transform="translate(294.6 156.9)" fill="#161413" id="g237"><path d="M.4.7 0 0l.8.4z" id="path236"/></g><g transform="translate(232.9 156.9)" fill="#161413" id="g238"><path d="M1 .2Q.9.7.3.5C0 0 .8 0 1.1.2" id="path237"/></g><g transform="translate(315.3 157.3)" fill="#fffefc" id="g239"><path d="M2.6 1.9c-.1 1.2 1 2 .2 3-1.3.4-1.7-.8-2.6-1.2C0 2 .5 1.2 1 0c1.2 0 1 1.4 1.6 2" id="path238"/></g></g><g fill="#161413" id="g244"><g transform="translate(230.2 158.5)" id="g241"><path d="M2.1 1.2c-.1.4-.5 1.2-1 .6C.9 1.4 0 1.2.6.6.9 0 2.4.2 2 1.2" id="path240"/></g><g transform="translate(186.7 159.4)" id="g242"><path d="M.8 1c-.4.7 0 2.2-.4 3C0 2.8.4 1.1.6 0q.4.2.2 1" id="path241"/></g><g transform="translate(229.1 159.4)" id="g243"><path d="M.8 1.3C.2 1.4.4.8.1.6Q.1.3.6 0c1 .2-.1.7.2 1.3" id="path242"/></g></g><g fill="#fffefc" id="g248"><g transform="translate(220.7 160.4)" id="g245"><path d="M17.2 1c-.1 2.3-.7 4.7-.8 6.8q0 1-.9 1.6c-.4 0-.7-1-1.1-.4-.4 0-.6 1.2-1.2.4-1-1.7.8-3.5.3-5.6q.2-.2 0-.3c-.5.3-.3 1-.7 1.6q.2 1.8-.3 3.5 0 .3-.5.5c-1.2-.4-.2-1.8-.3-2.7Q12 5.3 12 4c-1 .7-.8 2.2-.8 3.5-.7.7 0 2.3-.6 2.9.1.7-.4 1-.2 1.6q-.4.7-1.2 1.2c-.7 0-.5-.7-.7-1.2a16 16 0 0 0 1.2-7.5c-1 .2-.3 1.6-.6 2.2l-.7 3.2c.2.8-.4 1-.2 1.8l-.5.8c-.5 0-.6-.5-1-.6.4-.4-.2-1 .3-1.4 0-1 .7-1.5.7-2.6L8.2 6V4.6c-.7-.2-.3.3-.5.5 0 1.6-.9 2.3-.9 4-.4.3 0 1.4-.4 2l-.3 1q-.5.3-1-.2l1-6c-.7 0-.2 1.4-1 1.6q-.6 0-.5-1 .2-.3.1-1H5v-.2c-.7.2-.7 1.2-.7 1.8q-.2.8-.9 1.5c-1 0-.6-1-.7-1.8q.2-.1.1-.4c-.5 0-1 .2-1.2-.5-.2 0-.6.7-1 .2-.5-.3 0-.7 0-1 .3 0 .6-.3.8 0l.2.4c1-.7 1.3-2.2 3.2-2C8.7 3 13 2 16.4.1c.7-.1.6.6.8.8" id="path244"/></g><g transform="translate(312 161.3)" id="g246"><path d="M4.8 2.5c0 .3-.6.7 0 1 .4.5 1.2.5 1 1.3-.1.7-1 .5-1.6 0q.2 0 0 0H4c.5.5 1.2 1 .8 1.6-.8.3-1.4-.4-1.7-.9C2 4.5 0 4 .6 2.1Q.8.5 2.5 0C3.3.7 5 1 4.8 2.5" id="path245"/></g><g transform="translate(238.2 161.5)" id="g247"><path d="M1.4 1q-.2.1.1.4c.3 0 .9-.6 1.2 0q.1.8-.5 1.2-.4 0-.7-.7-.5.8-1.1.3C0 1.6 0 1.4.4.7L.8 0q.6.4.6 1" id="path246"/></g></g><g id="g255"><g transform="translate(184 161.1)" fill="#161413" id="g249"><path d="m1.8.8-.3 1.3c-.4 1.3-.2 3-.7 4.4.5.7-.2 1.2 0 1.9-.7.3-.2 1.6-.8 2l.2-3.1c.7-.6.4-2.1.6-3-.2-1 .6-1.5.1-2.2.2-.6.6-2.1.9-1.3" id="path248"/></g><g transform="translate(253.1 162.3)" fill="#fffefc" id="g250"><path d="M1.2.7q.1.7-.4.8C.1 1.6.2 1.1.1.7c-.1-.7 1-.5 1 0" id="path249"/></g><g transform="translate(241.2 162.9)" fill="#fffefc" id="g251"><path d="M1.5.7q0 .7-.7 1-.6-.1-.7-1C0 .4.5.4.5.1q.8 0 1 .6" id="path250"/></g><g transform="translate(235.2 163.4)" fill="#161413" id="g252"><path d="M.8 1.4c0 .4-.4.8 0 1.2l-.6 2Q0 2.6.5 0q.5.4.3 1.4" id="path251"/></g><g transform="translate(237.1 165)" fill="#fffefc" id="g253"><path d="M2.2.6c.2.7-1.4.7-.4 1.4.2.2.2 1 0 1.3q-1 .4-1.3-.4C0 1.8 2 2 .9 1c-.2-.5.3-.8.6-.9q.7.2.7.6" id="path252"/></g><g transform="translate(165.1 165.3)" fill="#161413" id="g254"><path d="M.2 1C.2.8 0 .3.4 0v1z" id="path253"/></g></g><g fill="#fffefc" id="g262"><g transform="translate(119.9 165.7)" id="g256"><path d="M4.6 1.2C3.9 3.7 2 5.3.9 7.7c-.2.2-.8.2-.9 0 0-.9.4-1.3.4-2.3q2-2.3 3.4-5c.7-.4 1 .2.8.8" id="path255"/></g><g transform="translate(182.4 167.5)" id="g257"><path d="m26 1.3-.4 3.3c-.5.2-.4.8-1.1 1-1.4-.3-.4-1.6-.5-2.5 0-.7.4-1.1.1-2-.3 0-.4.7-.5.9q-.1 2-.4 3.8H23V6l1.3-.1c.2.3.6.8.2 1q-.6.5-1 .3l-.5-.8c-.5.7-.3 1.6-.9 2.2-.4.4-1.1.1-1.5-.1q.1-.8-.1-1.6c-.2.4-.6 1.3-1.2.9-1-1.2.1-2.4.3-3.6V2.7h-.2c0 1.8-1 2.7-1 4.4-.4.2-.5 1-1.2.7q-.5-.4-.5-.9c-.7.3-.6 2.3-2 1.7-.7-.6.1-1.7 0-2.4L14 7.8 13.5 9q-1.4 0-1.4-1.1.2-1.4 1-2.7c-.1-.6.6-1 .2-1.7-1.3.7-.7 4.2-3.2 3-.3-.4 0-1-.2-1.4-.1.2-.5.4-.4.8A9 9 0 0 1 7.2 10c-.3 0-.8-.8-1 0-.3.4 0 1-.8 1-.3.2-.5-.4-.8 0l-.1.5q-.6.2-.8-.2c0 .2-.4.5-.3 1h-.1c.4.7-.1 1.2-.4 2-.5 0-1.3.5-1.4-.3q-.8.5-1.1-.1c0-.6-.4-1.8.5-1.8.4 0 .9.7 1 0 .2-.6-.4-.7 0-1.1q.8-.6 1.5 0 .1-.8.8-.8.6 0 .5-.9-.2-.8.4-1.2.6-.2 1 0-.1.6.4.5c.2-1.4-.4-2.5.4-3.7.8-.2.5-1.1.8-1.7.9-1 2.7.5 3.4-.8C15.2 1.8 19.2.7 23.3 0l.7.8c.5 0 .3-.9 1-.9 1 0 .7.8 1 1.3" id="path256"/></g><g transform="translate(138.6 168.2)" id="g258"><path d="M1.9 1c-.4.4-1.3.5-1.7.2C0 1 0 .5.2.5.7 0 2 0 2 .9" id="path257"/></g><g transform="translate(224.2 168)" id="g259"><path d="M1.6 2.2q0 .6-.8.7C.6 2.5 0 2.2.2 1.4.5 0 2.5.6 1.6 2.2" id="path258"/></g><g transform="translate(209.7 168.7)" id="g260"><path d="M4.4 3.7c-.3 0-.2.5-.6.4C2.8 3.4 1.4 2.8.6 2 .6 1.5 0 1 .4.5.8.4.7 0 1.2 0c1.7.6 2.7 2.1 3.2 3.7" id="path259"/></g><g transform="translate(237.1 168.8)" id="g261"><path d="M1.6.6q.1 1-.5 1.3C.5 2.4.4 1.3 0 1q0-.6.6-1c.6 0 .7.5 1 .6" id="path260"/></g></g><g transform="translate(203.2 169.2)" fill="#161413" id="g263"><path d="M.5 4.2 0 5.3C.4 3.8.7 1.6 1.4 0c0 1.4-.8 2.7-1 4.2" id="path262"/></g><g transform="translate(207.8 170.6)" fill="#fffefc" id="g264"><path d="M3.3 1.3C4.3 2.6 7 3 6.3 5c-1 1.3-1.4-.5-2.5-.3C3 3.5 0 3.1 1.4.6c.8-.6 1.3.3 1.9.7" id="path263"/></g><g fill="#161413" id="g268"><g transform="translate(196.8 171.2)" id="g265"><path d="M.4 2.5C0 1.5.4.7.7 0c0 .7.1 2-.3 2.5" id="path264"/></g><g transform="translate(199 171.3)" id="g266"><path d="M.1 1.8C.2 1.2 0 .4.4 0 .4.5.6 1.4 0 1.8" id="path265"/></g><g transform="translate(192.5 171.4)" id="g267"><path d="M0 .4V0h.2z" id="path266"/></g></g><g id="g272"><g transform="translate(307.3 172)" fill="#fffefc" id="g269"><path d="M2.5 2.5q-.2.5-.7.7Q.3 2.4 0 .6C.2.2 1.2 0 1.5.6s1.2.8 1 1.9" id="path268"/></g><g transform="translate(216.4 174.8)" fill="#fffefc" id="g270"><path d="M11 4.4v1.1c-.4.6-1.3 0-1.6.5.8.4 2 .1 2 1 .3.7-.6.8-1.2.8-2.8-1-6.4-.5-8.6-2.6Q.6 4.6 0 3.8c.2-.4 0-1 .8-1h.7l.1-1.2c.9-.9 2.8-.3 4-1C9 0 8.7 3.3 11 4.4" id="path269"/></g><g transform="translate(218.4 177.6)" fill="#161413" id="g271"><path d="M7.2 3C4.6 2.6 2.6 1.3.5.4L0 0c2.6.8 4.6 2.2 7.2 3" id="path270"/></g></g><g fill="#fffefc" id="g284"><g transform="translate(140.8 178)" id="g273"><path d="M3.2.7q0 .7-.6 1C1.2.8 1.2 3.2 0 2Q0 1.1.5.5q1-.6 2.2-.1z" id="path272"/></g><g transform="translate(179.3 180.4)" id="g274"><path d="M3.2.8q.1.8-.4 1.7c-.3.8-1.3-.7-1.5.4l-.1.5C.7 3.2 0 2.8 0 2.1q-.1-.8.6-1c.5-.2 1 .2 1.2 0-.2-.7.4-.7.7-1.1q.7 0 .7.8" id="path273"/></g><g transform="translate(120.1 181.4)" id="g275"><path d="M1.8 1.8q0 .9-.2 1.5-.5.4-1-.1C0 2.4.5 1 .8.2c1-.2.7 1 1 1.6" id="path274"/></g><g transform="translate(139.5 181.9)" id="g276"><path d="M4.4.8c-.9.8-2.4.1-3.5.7-.3.3-.9 0-.9-.4C.1.4 1 0 1.8 0q1.5.2 2.6.8" id="path275"/></g><g transform="translate(308.5 182.2)" id="g277"><path d="M2.1 1.9c0 .5.3 1.5-.5 1.8Q1 3.7.5 3.2C.2 2.4 0 .7.6.2 1.6 0 2.4.6 2 1.8" id="path276"/></g><g transform="translate(140 183.4)" id="g278"><path d="M3.5.7c-.4 1-2 .8-3 1.2Q-.2 1 .5.5q1.2 0 2-.5c.4.1 1 .2 1 .7" id="path277"/></g><g transform="translate(259.5 183.9)" id="g279"><path d="M2 .2C3.3 2 5.8 3.3 5.3 6c-.4.4-1 .1-1.4-.1q0-1.8-1.5-2.1C2.4 2 0 1.8 1.2 0z" id="path278"/></g><g transform="translate(306.1 187)" id="g280"><path d="M5 1.5c.8.5 1.7 1 1.7 2-.3 1-2.7-.7-2 1-.8.4-.5 2.3-2 1.7-.5-1-2.7-1.6-1.6-3.1.7-.3.3-1.6 1-2 .4-.3 0-1 .6-1.1C4 0 4.1 1.2 5.1 1.5" id="path279"/></g><g transform="translate(138.5 187)" id="g281"><path d="M4.5.8c-.7.8-2.4.5-3.6 1-.3 0-.9-.3-.9-.7C.1 0 1.4.2 2.2 0c.7.2 2 .1 2.3.8" id="path280"/></g><g transform="translate(194 187.4)" id="g282"><path d="M6.2 2.2c-.3 1.1-2-.4-1.7 1.1-1.2.6-1.4-1-2.4-1 .3.8 1.3 1 2 1.8q-.1.6-.4.8C1.5 5.3 1.5 3.4 0 3q0-1.3.7-1.6.5 0 .6-.4 0-.6.5-.7c1-.4 1 .9 1.9.8C3.5.7 3.2.2 4 0c.8.5 2.5.8 2.2 2.2" id="path281"/></g><g transform="translate(138.9 188.2)" id="g283"><path d="M3.9 1.2c0 1.3-1.7.1-2.5.6-.6.3-1-.2-1.4-.4C.2 0 2.4 1.2 3.4.8z" id="path282"/></g></g><g transform="translate(168 189)" fill="#161413" id="g285"><path d="M.2 1.5Q0 .6.6 0h.1z" id="path284"/></g><g fill="#a8002c" id="g289"><g transform="translate(138.2 138.4)" id="g286"><path d="M24.7.7c.2 1-.6 1-.8 1.8-.5 1.2-1.5 2-1.8 3.3q-.9 1.4-1.4 3.3-.9 1.6-1.5 3.5.1 2-.4 3.5.1 2.7-.4 5c.2.2-.1.2 0 .5.2 1-.7 1.4-.3 2-.3.5 0 1.6-.3 2.2-.4 3 .7 4.8.3 7.8.7 1.4 0 4 .6 5.3 0 2 .4 3.3.1 5.3a11 11 0 0 1-4 7c-1.7 1.7-4 2.9-6 4.3-1.1 1.3-2 2.6-1.6 4.7l-.3.2c.3.3 0 1 0 1.6l-.8 3.8-.4 2.5q-.6.6-1.2.7C2 67.7 1.9 64.5 2 62.2c.5-2.6.7-5.3 2.1-7.2q1.6-3 2.5-6 .3-1.9.8-3.5c0-1.7.3-3.8-.3-5.2.2-1.5-.5-3-.7-4.5A9 9 0 0 0 5 32.2c0-1.3-1-1.7-1-2.8a4 4 0 0 1-1.4-1.8c-.8-1-2.7-1.2-2.5-3 .9-.8.9-2.5 1.3-3.6q.4-3 1-5.8c1-1.2 1-2.7 1.7-3.8 2-3.3 4-6.5 7.8-8.6C15 .8 19.4 0 23.4.4z" id="path285"/></g><g transform="translate(190.6 175.6)" id="g287"><path d="M61.5.4C64.8 3.8 67 8 70.3 11.5v.5c-.7.4-1.4-.5-1.7 0 1 1.3 2.3 2.1 3.5 3.3 1.8.1.2 2.6 2.2 2.3C74 19 75 19 75 20q.7.6.9 1.6-.2.6-.9.5c-1.1-.2-1.5-2.2-3-1.6.3 2.4 1.9 4.1 3.2 5.9 1.6 1 .5 2.8 1.7 4.1.7.8 1 1.9 1.9 2.7 1.3 1.9 1.9 4.3 2.8 6.4.4.8-.3 1.3 0 1.9q2 .4 2.7 1.5c-.3 1.4-.5 2.7-1.5 3.5.2 1.2-.8 1.7-1.2 2.4-2 1.2-3.2 2.8-5.4 3.6-1.5 1.7-4 .5-6 .9-.7-1-2.1-1.1-3-1.8a8 8 0 0 1-1-4.6c-1-.7-.5-1.9-1-2.8.2-.7-.4-1.3 0-2 0-1 .9-1.4.5-2.7q.9-2.1 1-4.8c1-1.6.4-4.2 1-6 .4-2.2.7-5.4-.8-6.8-1.9-2.7-6.1-3.8-9.9-3-3 .5-5 2.7-8.2 1.8q-3.6-1.6-6.6-3.6c-3-3-7.7-3.8-11.1-6.1q-.5-.2-.6.3c.8 1.8 3.3 2.6 3.2 5L34 19v.8q-.5 1.6-2 2.5.7.8 2 1c.4.9 1.5 1.5.9 2.6q0 .9-.5 1.2a15 15 0 0 1-6.1-.6c-2.9.4-5-1-8-1-3-.9-6.5-.7-9.3-2.4q-1-.2-1.7.4c-.2 1.7 2 1.3 3 1.8 1 .9 2.4 1.1 3.2 2.2q1.9 1.7 2.9 4.2.6.9 1 2.4 0 .8-1 1.1c-2.1 0-4.5-.4-6.6.2q-2.5 1-4.8.2c-2-1.4-4-3-4.3-5.5-2.7-2.5 1.3-4 1.9-6 2.5-2 5.5-3.6 6.8-6.4.5-1 2.1-1.5 2.1-3 1.6-.8 1.6-2.7 3.1-3.5q3.6-.3 7-1c6.4-.5 12.8-.8 18.7-3 3-1 6.5-1.9 9-3.6 1.2-.2 2-1.1 3.1-1.3 1.6-.8 3.3-1.1 4.4-2.3q1.2 0 2.7.4" id="path286"/></g><g transform="translate(149.3 189)" id="g288"><path d="M38.3 1c-.1 2.3-.8 4-1.5 6 0 .8-1.6.8-1.3 1.7-1.2 1.9-4.9 2.5-3.3 5.6.8 1.6 3.4 1.7 4.2 3.4.5 1.1 1.9 1.5 1.8 3-.9 1-2.5 0-3.8.5-2.7.1-5 1.3-7.2 2.6-1 .1-1.6-.5-2.6-.5-3 0-4.7 2.7-7.8 2-2-1-4.3 0-6.6-.4-2.2-2.2-6-.3-8.3-2.3Q.5 22.4 0 21.3C.1 20 1.5 19.6 1.4 18c1.7-2 2.3-5.4 5.6-6 1.6-1 4-1 5.6-1.9 2.7-.6 4.7-2 7.5-2.6.6-.2 1.3-.7 2.2-.7 1.6-.7 3-2 5-2C30 3 33.5 2.4 35.8.5c.7-.6 2.2-.6 2.5.3" id="path287"/></g></g><g fill="#fffefc" id="g300"><g transform="translate(225 190.5)" id="g290"><path d="M1 1.5q0 .5-.6.3C0 1.2.4.8.6.2c1-.2.8.9.5 1.3" id="path289"/></g><g transform="translate(227.8 191)" id="g291"><path d="M2.1 1c4.1 2.3 8 5.2 12.6 6.5.4-.3 1.2 0 1.4-.4 0-.5-.7-.5-.4-1 3-1 6.3-2.3 9.5-.8 1.9.6 3 1.8 4.2 3 .6.5 0 1.1 0 2 .3.7.3 2 0 2.8.3.7-.3 1.6 0 2.7-.4.3 0 1-.5 1.4-2-1.4-3.3-3.2-5.8-4l-.1.5c1.7 1.1 3.9 2 4.8 3.6q.6.3 1 0c.5 1.4-.5 2.3-.3 3.5-1 .5-.2 2.9-1.9 1.8-.3-1.4-2.3-1.9-3.7-2.3-1.1-1-2.8-1.6-2.9-3.2 1.2-.3 1.7 1.3 2.9 1.2-1.7-1.3-2.9-3-4.9-4q0-.8.8-.8 1 .2 1.3-.2V13c-1.7-1.2-4.2-1.3-5.1-3.1-2-1.5-4.9-1.5-6.5-3.3-2.8-1-4-3.4-6.5-4.8C2 .8 0 .9.5 0Q1.4.3 2 1" id="path290"/></g><g transform="translate(189.4 191.2)" id="g292"><path d="M6 1.9q0 .7-.6 1c-1.3-.9-.6 1.2-1.7.6h-.2c-.2.3 0 .9-.6 1-.8-.1-.2 1.2-1.1 1.2q-1-.2-1.6-.9c-.2-.2-.2-1 0-1.1 1.1 0 1.1-1 2-1.1q0-1 .3-1.4C2.2.8 2.5 0 3 0c1.1.1 2.6.7 3 1.9" id="path291"/></g><g transform="translate(264.6 191)" id="g293"><path d="M1.9 1.6q-.7.5-1.3.2C.4 1.4 0 .9.4.6c.5-.6 1.7.2 1.5 1" id="path292"/></g><g transform="translate(225.3 191.9)" id="g294"><path d="M2.7 1.3c-.2.3 0 1.2-.2 1.4.7 0 .4-1.2 1.3-.8 0 .7-.7 1-.5 1.8.5-.2.7-1.3 1.4-.9 0 .9-.7 1.3-.5 2 .9-.3.6.9 1.5.4q.2-.4.7-.3c-.6 1.5 1.3.5 1 1.7.5.1.8-.8 1.6-.4L7.9 7.9c1 .2 1.2-1.5 2.3-.6.4 1.4-1.1 1.7-1.5 2.7-.6.1-1.6.7-2.1 0 .1-.7-.7-.7-.6-1.4-1.2.1-1.8-.8-3-.8-.3-.7.4-1.3-.5-1.7.2-.8-1-.3-1.2-1C.5 4.8.1 3.6.3 2.8L.1 1.6C0 .5 1.3.8 1.5 0c.7.1.2 1.6 1.2 1.3" id="path293"/></g><g transform="translate(133.2 192.8)" id="g295"><path d="M2.8.4c-.4.3.1.5.1.9C2.2 2 1.8 3.1.5 3.1 0 2.7.5 2.4.7 2S2.4 1.4 2.1.7V.1q.6-.1.7.3" id="path294"/></g><g transform="translate(265.9 193.3)" id="g296"><path d="M1.8 1c-.2.4-.2 1-.9 1.2C0 2.2.2 1.3.2.6.6 0 1.6.4 1.8.9" id="path295"/></g><g transform="translate(133.3 195.3)" id="g297"><path d="M3.5 0c0 1-1.1 1.3-1.6 1.8q-.4 1-1.4 1-.6-.2-.5-.8c1-.7 2-2 3.5-2" id="path296"/></g><g transform="translate(272.3 195.8)" id="g298"><path d="M9.5 3c.2.7.6 1.2.2 1.7-1 .5-1.5 1.5-2.7 1.9-.2.7-.8 1.6 0 2.2.2.2.5 1.2 1 .4Q8.1 7.8 9.2 7q.6-.5 1.5-.3 2 1.5 2.1 4.1c-.8.9.5 1.6 1 2 .6 1 1.7 1.6 1.3 3.2-.7.6-1.7-.3-2.1.3.5 1.1 1.4 2 1.1 3.5.4.3.6 1.2.6 1.5-.2.6-1.2.4-1.6.1-1-.4-.8-1.5-1.6-2-.4-.8-.4-2-1.3-2.6 0 .5.6 1.3 0 1.8-.2.4-.7.1-1 0-.5-.5 0-1.6-.8-1.9-.3.5 0 .7 0 1.2-.2.7 0 1.5-1 1.8h-.6c.2.6.2 1.6-.4 2l-1.2-.4q-.3.7-1 .8c-1 0-.5-1.3-1.1-1.6.2-.8 0-2.1 1.1-2.4.7.5.7 1.6.7 2.4.8.1.3-1 .4-1.4-.4-.5.1-1.6-.5-1.8l-.3.5c-1-.5-.5-1.9-1.2-2.5.2-3-2.8-3.8-3.3-6.3q.2-.7.8-1c1-.6 2.5.7 3-.5-.6-.6 0-1.4 0-2 .2-1.3 2.4-1 1.9-2.2q-1.2-.4-1.5-1.4 0-.8.6-1.5 1-.6 2.4 0C8.4 1 8.7 2.2 9.5 3" id="path297"/></g><g transform="translate(266.7 195.8)" id="g299"><path d="M2.7 1c-.1.9-1 1.2-1.5 1.7Q.3 3 0 2.2.2 1 1.2.2C2 0 2.4.6 2.7 1" id="path298"/></g></g><g id="g314"><g transform="translate(249.7 196.5)" fill="#161413" id="g301"><path d="M2.6.8Q1 .8 0 .4V0l2.6.6z" id="path300"/></g><g transform="translate(249.1 197.4)" fill="#161413" id="g302"><path d="m5.8 2-.1.5C4.2 1.5 1.9.9 0 .5 0 0 1 .3 1.5.5 3 .8 4.8 1 5.8 2" id="path301"/></g><g transform="translate(268 197.5)" fill="#fffefc" id="g303"><path d="M3 1q0 .8-.6 1.1-1 .7-2 0-.4-.4-.2-1C1 .7 2.5 0 3 .9" id="path302"/></g><g transform="translate(132.2 198)" fill="#fffefc" id="g304"><path d="M5 .6c0 .8-1 .8-1.5 1l-1 1.5c.8.2 1.7-1.2 2.6-.6-.2 1-1.2 1.2-1.6 2 .5 0 1.3-.6 2-.1l-.3.4Q3.3 6.1 1.9 7.4q-1 .1-1-.8.3-.2.4-.5c-.5-.3-.8.7-1.3.1v-.5c.4-1.1 1.9-1.1 2-2.3-.3 0-1 .7-1.6.3C.4 2.6 1.3 2 2 1.5c1-.2 2.1-1.5 3-1" id="path303"/></g><g transform="translate(248.8 199.2)" fill="#161413" id="g305"><path d="m6.4 2-.3.5C4.5 1.5 2.5.5.2.5 0 0 .2.2.4 0c2.2 0 4.2 1 6 2" id="path304"/></g><g transform="translate(208.6 199.8)" fill="#fffefc" id="g306"><path d="M28.5.6c-.2.8-1 1.4-1.5 2.2 1.7.6 3.2-.7 4.8-1 4 0 3.7 4 5.5 6 2 1.3 2.3 3.6 2.4 6-1 1.2-.8 3-1 4.7-.8 1.4.4 2.2.6 3.4 1.1 1.9 3.8 2.7 4.6 4.7 0 1-1.8.6-2.2 1.6.5.4 1.4.7 1.3 1.5q-.7 2-1.8 3.8c-1 0-1 1.4-1.9 1.7-.2 1.6-1.8 1.9-2 3.4-.8.7-1 2-2.2 2.3-.2.7-1.4.4-1.4 1.3q-.4.3-1 .2 0 1.5-1.2 1.5c.3 1.2-1.1 1.6-1.6 2.5-.3.1-.8.4-1.3 0q0-1.5-.7-2.5c-.2-.4.3-.6.3-1q.6 0 1 .3c.5-.2-.1-1.4.6-1.3 1-.2.8 1.2 1.3 1 0-.7-1-1.8 0-2.3l.7.2.1-1.1q.6-.2 1.2.1c.4-.5-.8-1.8.5-1.9l.7.3c.2-.5-.3-1.6.4-1.7.5.3.9-.1.9-.3-.1-.6-.3-1.7-1-1.1-.2.5-.8 0-1 .4-2.2 1.3-4 3-6.2 4.3-.4-.1-1.4.2-1.3-.5s1.1-1.1.5-2c-.2-.4.5-.4.7-.7.5 0 1 .5 1.2 0 0-.8 1-.4 1-1s-1-1.2-.5-1.8c.2-.3 1-.3 1.3-.1.2.2 0 .8.6.6.3-.7-.9-1-.3-2H32l.1.3q.4 0 .3-.3c0-.6-.5-1 0-1.7 0-.2.7-.2 1 .1q.2.4.5.5c.2-.8-.6-1-.5-1.9.7-.2 1.2.7 1.8.4.5-1-2.1-2 0-2 .2.1.5.6 1 .3q0-1.1-1-1.6-3 2-6.1 3.8l-6 4c-.4 1-1.7 1.1-2 2-1.2.7-2 1.6-3.5 1.7-.8.1-.9-.6-1-1.1.3-.8-.6-2 .3-2.6h.7c.2.3.4 0 .5 0-.2-1.2-1.5-1.8-.3-3 1.3.4.8 2 1.7 2.6.4-.1.2-.6.3-1l-1-1.6q-.1-.9.7-.8c1.4.2.4 2.1 1.6 2.8V32q-.5-1-.7-2.4.6-.5 1.1 0c.3.8.2 1.9.7 2.4.4 0 .2-.8.2-1.1 0-.5-.6-1.1-.2-1.7 1.6-.5.6 1.7 1.6 1.9.7-1.5-1.2-1.9-.4-3.4.6-.3 1 .2 1 .6l.7 1.9c.8-.6-1.2-3.6 1-3-.4-.6.1-1 .1-1.6.8-.3 1.1.3 1.3.7q.3 1.2.8 2c.4-.7-.2-1.7-.2-2.6-.3-.6-.7-2-.3-2.4q.4-.3.8 0c.6.7.4 1.8 1 2.5q.2-.2 0-.7-.4-1.4-.5-3c0-.3.8-.3 1 0l1.1 3.3c1 0 .1-.9.3-1.6 0-1-.8-1.5-.7-2.8.4-.3 0-.9.3-1 1.3-.2.8 1.4 1.6 2 .3-.8-.3-1.7-.6-2.7 0-.3-.2-1.5-1-.8-1.7 1.5-4.3 2.5-5.8 3.9-2.3.2-3.3 2-5.4 2.6l-4.3 2c-2 .4-3.6 3.6-5.8 1.5-.6-.7-.2-1.3 0-2.2.3-.6 1.7.2 1.6-.9q-.3-.5 0-1c1-.3 1.7 1.5 2.5.2-.1-.6-.5-1.2.3-1.5q.7-.5 1.6-.1c.2-.4 0-.9.3-1q.7-.1 1 .4l.2.7.3-.4c-.3-.2-.3-1 0-1.3.9 0 1.1-1.1 2-.4.3-.4.2-1 .8-1 .5 0 .8.7 1.3.3 0-.5-.8-1.1-.2-1.5 1.1-.5 1.3.6 2 .9l.2-.4c-.6-.1-.3-1-.3-1.5 1-.7 1.3 1.2 2 .6q-.2-.6-.2-1.4c.2-.5 1-.3 1.3 0 0 .4.8.7 1 .2v-.7c-2.3-.6-4.3.7-6.3.8-3 .3-5.6 1.2-8.5 1.5-2.5.6-4.8 1.7-7.4 2q-1-.3-1-1.1c.4-2.4-.9-3.4-1.4-5.2 0-.4-.6-.4-.3-1 .3-.2 1.2-.2 1.5.3.7 1 .5 2.8 1.5 3.6q.4.1.3-.4L4 12.6q-.4-.3-.7-1 .3-.8.7-1 .9.2 1 1.2c-.3.1-.3.8 0 1 1.4 1 1 3.3 2.2 4.5.2.4.1-.1.4-.1-.9-1.5-.9-3.8-2-5q-.2-1 .4-1c1.2.5 1.3 1.8 1.6 2.7.5 1.2.8 2.6 1.7 3.4.4-.1.1-.7.1-.8-.7-1-.7-2.4-1.3-3.4l.5-.4c1.3.5 1 2.1 1.9 3q.1.6.7 1l.5-.2c-.7-1.3-1.7-3-1.6-4.6.9-.4 1 .5 1.3 1 .4 1.1.7 2.4 1.7 3.1l.2-.2c-.3-1-1-1.9-1.2-3.2 0-.5.8-.5 1.1-.2l.8 2c.5.6.5 1.4 1 1.7.4-1.1-.7-1.6-.5-2.8 1.5-.2 1.4 1.4 2.1 2.1.7-.6-.6-1-.6-2s1.3.1 1.1-1c.3-.4 1 0 1.2.2a3 3 0 0 0 1 2.5q.4-.3 0-.7t-.3-1.3a1 1 0 0 1 1.2.2q-.1 1 .5 1.5h.4c0-.4-.5-.8-.2-1.4 1 .5 1.5-1 2.3 0 0 .3.3.1.4.3 0-.4-.4-.4-.1-.7 1.1 0 1.3-1.3 2.4-.6.5 0 .5-.6 1-.6 1 .7 1.2-.6 2.2-.1.6 0 1-.9 1.7-.4.2.2.5.7.8.4.2-.5-.3-.7-.3-1.1-2.7-1.4-5.5-1.4-8.7-1.4q-3.4-.8-7-1c-1.8-.9-4.3-.5-6.2-1.4-1-1.3-3-.8-4.6-1.6s-3.3-1-4.8-2q-.2-.7.5-1c3.5.6 7.4.7 11 1.5q.8-.2 1.6.3c3 .4 6.2 0 9.2 0l3-.8c.4-.3.2-.8.4-1 1-.7 1.2-2.2 2.6-2.2z" id="path305"/></g><g transform="translate(249.5 200.6)" fill="#161413" id="g307"><path d="m5.8 2.4-.1.4c-.5 0-.6-.6-1.1-.7L0 .2.2 0q3.4.3 5.6 2.4" id="path306"/></g><g transform="translate(249.5 202.2)" fill="#161413" id="g308"><path d="M6.2 3v.3c-.7-.2-1.3-1-2-1.4L0 .2.2 0c2.2.5 4.6 1.2 6 3" id="path307"/></g><g transform="translate(132.6 203.8)" fill="#fffefc" id="g309"><path d="M6.1.8c-.6 1.6-3.4 1.6-4.2 3Q1 4.6.2 4C0 4 0 3.2.2 3.2 1.8 1.9 3.5 0 6 .6z" id="path308"/></g><g transform="translate(277.7 204.6)" fill="#161413" id="g310"><path d="M4.5 0c0 1.4 0 2.7-1 3.2q-1.7.2-3-.7l-.5-1c1 .1 2 1.4 3.4.9 1-.4.1-1.8.7-2.4z" id="path309"/></g><g transform="translate(250.2 205.5)" fill="#161413" id="g311"><path d="M5.3 5.3c-1 .1-1-1-1.5-1.4L0 0q3.2 2.2 5.3 5.3" id="path310"/></g><g transform="translate(134.6 207)" fill="#fffefc" id="g312"><path d="M5.7.7c-.2.8 1.5 0 1.2.8C6.7 2.7 5.2 3 4.5 3.7 3.3 4.5 2.8 5.9 1.3 6c-.6-.8.2-1.4.5-2 .4 0 .4-.6.6-.8-1 0-1 2-2.4 1.2q.3-2 1.8-3Q3.3 0 5.4.1z" id="path311"/></g><g transform="translate(278.6 210.4)" fill="#161413" id="g313"><path d="M1 1c-.5.5 0 1.6-.4 2.3H.2C.5 2.3 0 .7.6 0c.3 0 .1.6.3 1" id="path312"/></g></g><g fill="#fffefc" id="g318"><g transform="translate(137.2 210.4)" id="g315"><path d="M4 .1c-.1 1.3-1.4 1.8-1.8 3Q2 3.9.8 4q-.8.1-.8-.7C1 2 1.8.6 3.6 0z" id="path314"/></g><g transform="translate(177.9 211)" id="g316"><path d="M11.2 1c.3 1.5-.7 2.9-1.2 4.2-.6 1-1.8-.3-2.3.6q-1-.1-.8-1c.3-.2.5-.7 1.1-.6q0 .5.5.3c0-.7.8-.8.7-1.6-.7 0-.5 1.1-1.3.8v-.4c-1.3.2-1.4 4.1-3 1.9l1.5-2.5C4.9 3 3 2.6 2.2 4c-.3.2-.3-.4-.8-.1-.3.2-.1.8-.7.8q-.9 0-.7-1c0-1.4 1.2-2 2-2.8Q6 0 10.1.2z" id="path315"/></g><g transform="translate(189 211.2)" id="g317"><path d="M9.5 1.7c3.2 0 6-1.6 9.1-1.1.7.1 1.9.3 2.2 1 .3 1.8-2 2-2.9 2.9-2 1.5-2.8 3.9-4.2 5.9-.3 1.3-.9 3.4-.6 5.1-.1.8.8 1.8-.3 2.3q-.6-.1-.8-.7c-.2-.8-.2-2.3 0-3-.2-1.5.5-2.2.5-3.5.8-1.8 2.2-3 2.8-5q1.5-1.6 3.3-2.9v-.3c-2.5.7-3.5 2.8-5 4.3-1 .8-1.2 2.5-2 3.4q-.1 1.3-.4 2.4c-.5 1.2 1 3-.6 3.4q-.9-.2-.8-1.4c.2-1.5-.3-3.3.3-4.5.6-1.9 1.8-3.3 2.9-5 .8-.5 1.1-1.7 2.3-2.2-2.3.1-2.8 2.4-4.3 3.6a9 9 0 0 1-2 3c-1.2-.7 0-1.9 0-2.7.8-.7 1.1-1.5 1.8-2.3-.2-.5-.8 0-1 0-1.7 1.6-2.3 4-3.2 6q-.7 2.4-.5 4.8 0 1 .3 2l.9 4.6c.6-.5.6-1.7 1-2.4.3-1.3-1.1-1.6-.5-2.7-.1-1-.6-2-.3-3 .2-1.5 0-2.9.7-3.7l.8.1c-.4 4.3.4 7.7.3 11.7-.3.3-.6 1-1.3.8l-.7-.8c-.3.3-.2 1.3-1 1.5-1 0-.6-1.2-.8-2 .5-.7-.2-1.3 0-2.1.2-1.3-1.1-2.4-.8-4.2l-.1-4.2c.8-1 .8-2.6 1.9-3.5C6 6.1 8 6 7.3 4.9 5.8 5.3 6.1 8 4.1 7.3c.1-1-.7-.6-1.3-.8q-.5.3-1.2-.1v-.6c.5-.5.4-1.8 1.2-2.1v-.5c-.8.3-1 1.3-1.4 1.9q0 .7-.8 1Q-.1 5.8 0 5c.7-2 1.4-3.8 3.4-5 2.3 0 4.3 1 6.1 1.6" id="path316"/></g></g><g id="g324"><g transform="translate(236.8 212.3)" fill="#161413" id="g319"><path d="M.6.6C.5.5 0 .5.2 0z" id="path318"/></g><g transform="translate(277.3 212.4)" fill="#161413" id="g320"><path d="M.1.4 0 0l.1.2z" id="path319"/></g><g transform="translate(147.6 212)" fill="#fffefc" id="g321"><path d="M4.8 1.5c-.3 1.3-1.7 2-2 3.2q-.5 1.2-1.5 2-1 .1-1.3-.5c0-.9.8-1.3 1-2q-.9 0-1-.8c0-1.2 1.3-1.3 1.2-2.3 1-1.1 2.8-.3 3.6.4" id="path320"/></g><g transform="translate(165 213.4)" fill="#fffefc" id="g322"><path d="M10.2 1.2c-.7 1 .2 2.1.6 3q.1.9-.6 1.3c-1.2.2-.8-1.4-1.6-1.8a2 2 0 0 0 .5 1.7c.8.6.8 1.7 1.1 2.5.2.7-.7.8-1.2.5s-.4-1-1-1.3l-.5.8C6 8 6.6 6.2 5.7 5.8q-.3 0-.5.3c0 .8 1.8 1.4.6 2.1l-1-.2c0 .5 0 1-.8 1C2.8 8.4 2.2 7.2.8 6.6 0 5.9.8 5.1 1 4.1A12 12 0 0 1 9.1 0q1.2.2 1.1 1.2" id="path321"/></g><g transform="translate(226 213.4)" fill="#161413" id="g323"><path d="m1 1.4-.4-.1L0 0q.7.6 1 1.4" id="path322"/></g></g><g fill="#fffefc" id="g329"><g transform="translate(149.1 213.3)" id="g325"><path d="M9 1.2v1.2c-1.8.5-1.8 2.3-3.3 3 .3.4-.2 1-.3 1.6-.2.2-1 .4-1 0q-.2-.9.4-1.5.4 0 .6-.2c-.2-1 1-1.6.8-2.6C4.6 3.7 4.4 6 3 7.2q-.5.2-.4-.6c.4-1.3.7-2.8 1.9-3.7-1 0-1.2.8-1.7 1.2-.5 1-.3 2.4-1.4 2.6-1.3 0-.4-1-.4-1.6.9-1 1.2-2.5 2.4-3.3C4.6.5 7.4 0 9 1.2" id="path324"/></g><g transform="translate(250.8 213.4)" id="g326"><path d="M4.4 1.8c0 .7 0 1.4-.9 1.5q-1 .1-2-.4C1 2.2 0 2 .1 1c1.3-.9 3.1.2 4.2.9" id="path325"/></g><g transform="translate(180 214.7)" id="g327"><path d="M1.8.5q0 1.3-1 1.9c-.7 0-.8-.6-.8-.9C.2 1 .2.1 1 0q.8 0 .8.5" id="path326"/></g><g transform="translate(155.6 214.7)" id="g328"><path d="M10.4 1.4C10 2.4 9.2 2.7 9 3.8 7.5 4.8 7.3 7 5 7.3c-.3-1.2 1.1-1.6 1-3-1.5.5-1 3.7-3.3 3q-.9.1-1.3-.5c.3-1.1-1.1 0-1.3-1C0 4 1.4 3.5 2 2.3 3.4 0 6.7 0 9.5.4c.3.4 1 .4.9 1" id="path327"/></g></g><g fill="#161413" id="g333"><g transform="translate(192.2 214.8)" id="g330"><path d="M.5.1Q.5.7.2.7C0 .6 0 0 .5.1" id="path329"/></g><g transform="translate(148.9 215.2)" id="g331"><path d="M.5.2q0 .5-.5.5C.2.6 0 0 .5.2" id="path330"/></g><g transform="translate(236.9 215.3)" id="g332"><path d="M1.7.2Q1.3 1 .3.6C0 .5.4.6.4.2q.7-.2 1.2 0" id="path331"/></g></g><g transform="translate(202.5 215.6)" fill="#fffefc" id="g334"><path d="M6.5 1.2c-1.6 1.6-3.6 3-4 5.3-.9.3-.5 1.6-1 2.2q0 .5-.2.8c0 1.3.8 2 .5 3.6 0 .8 1.1 1.6.2 2.3q-.8-.1-1-.8l-.6-3.2q0-.5-.3-1C0 6 2.6 3.4 5 .5Q5.3.2 6 0q.8.2.6 1.2" id="path333"/></g><g fill="#161413" id="g341"><g transform="translate(193.5 216)" id="g335"><path d="M0 .8C.1.6 0 .1.5 0 .8.5.1.6 0 .8" id="path334"/></g><g transform="translate(141.5 216.4)" id="g336"><path d="M.1 3.2H0L1.3.4l.3-.4c0 1.3-1 2.1-1.5 3.2" id="path335"/></g><g transform="translate(241.7 217.4)" id="g337"><path d="M.8 1.4c-.2.3-.2-.2-.4-.3C.4.6 0 .4.4 0c.5.1.2 1 .4 1.4" id="path336"/></g><g transform="translate(159.7 217.8)" id="g338"><path d="M1.2 0C1.2.7.6.7.4 1.2H0z" id="path337"/></g><g transform="translate(171.7 217.8)" id="g339"><path d="M1 1.4v.8C.3 2 .3 1 0 .5Q0 0 .4 0c.8 0 .2 1.2.7 1.4" id="path338"/></g><g transform="translate(157.6 219.6)" id="g340"><path d="M.5.5H0Q.2-.1.5 0z" id="path339"/></g></g><g id="g353"><g transform="translate(207.5 219.6)" fill="#fffefc" id="g342"><path d="M2.2.7c-.3.7.6.2.9.6.4 1-.4 1.6-.2 2.8-.5.1-.2 1-.9 1-.6.2-.2-1.3-1-.6q-1 0-.8-.8.2-1.4.7-2.3C.7.7 1.2.4 1.6.2c.6-.2.5.4.6.5" id="path341"/></g><g transform="translate(204.7 220.5)" fill="#fffefc" id="g343"><path d="M2.6 1.5c-.1 1.8-1.4 3.2-.7 5.2-.3.8.6 1.8-.3 2.1q-.3.3-.7.2C0 7.2.5 5.2.6 3.2 1 2.2 1.2.7 2.2 0c1.2 0 .2 1 .4 1.5" id="path342"/></g><g transform="translate(169.4 220.6)" fill="#161413" id="g344"><path d="M.5.7 0 .2.1 0q.5.2.4.7" id="path343"/></g><g transform="translate(159.6 221)" fill="#fffefc" id="g345"><path d="M8.7 2c.3.2.3 1 0 1.2-1 1 1.5 2.3-.5 3-1.5 0-1.5-1.7-2.3-2.8l-.4.1c.2 1 1.7 2 .9 2.9-.6 0-1.3-.3-1.7.4q-.7 0-.8-.7-.6.6-1 1.4c0 .6.4 1 0 1.3q-1.3.4-1.8-.6c-1.1-1.1 0-2.7.2-4 .3-.9.3-2 1.2-2.4Q3.3.3 5 0c1.7 0 2.9 1 3.7 2" id="path344"/></g><g transform="translate(246.8 224.3)" fill="#161413" id="g346"><path d="M.6 1C0 1.1 0 .4 0 .3c.2-.3.8.1.6.6" id="path345"/></g><g transform="translate(140 224.9)" fill="#fffefc" id="g347"><path d="M1.2.4C1.3.7.8.8.6.8L0 .6Q0 0 .5 0t.7.4" id="path346"/></g><g transform="translate(245 225.2)" fill="#161413" id="g348"><path d="m1.8 1.4-.2.2C1.1 1.2 0 1 0 0c1 .2 1.3.8 1.8 1.4" id="path347"/></g><g transform="translate(164 225.7)" fill="#161413" id="g349"><path d="M.7.8Q.1.8.1 0q.5.3.6.8" id="path348"/></g><g transform="translate(140.8 226)" fill="#fffefc" id="g350"><path d="M1.2 1C.7 1.4.4.9.2.7Q.1 0 .4 0q.9 0 .7 1" id="path349"/></g><g transform="translate(271.6 225.8)" fill="#fffefc" id="g351"><path d="M2.6.6q0 .5.2.8c-.4 1 .5 3-1 3-1.8-.5-.2-2-.5-3.2q0-.7.5-1c.6-.2.6.4.8.4" id="path350"/></g><g transform="translate(234.8 227.4)" fill="#161413" id="g352"><path d="M.4 1.4Q0 1 0 0q.6.4.4 1.4" id="path351"/></g></g><g fill="#fffefc" id="g357"><g transform="translate(198.3 228.4)" id="g354"><path d="M2.2 1.4c.3 1 0 1.5 0 2.5-.2.5-1 .3-1.4.5-.8-1.5.6-2.6.5-4.2l.2-.2q.7.3.7 1.4" id="path353"/></g><g transform="translate(141.8 228.9)" id="g355"><path d="M2 .8C2.1 2.4 3.5 3 4.2 4.1c.6 1 2 2 1.6 3.3q-1.4.9-3 0-.6-.5-1.5-.8L.8 2.9C.2 2.4.5 1.3 0 .6Q.3 0 .8 0q.8.2 1.2.8" id="path354"/></g><g transform="translate(251 229.7)" id="g356"><path d="M2.7 1q.5 2.8 2.8 4C6 6.2 6.7 6.9 7.1 8c1.1 1.8 4 3 2.2 5.9-1.2.6-2.4 2.8-4 1.4v-.5h.1v-.3c-1 .4-1.6 1.9-2.7 2.4-.3.3-1 .5-1.2 0v-.4c.9-1.2 2.6-1.7 2.6-3.2q1.3-1.5 2.5-2.5.1-.4-.1-.5c-1 .5-1.3 1.5-2.1 2-.7.9-.9 2.5-2.4 2.3v-.7c1-1.4 1.8-2.7 3.3-4q.7-.1.8-1c-.8 0-1 1.6-2 .9 0-1 1-1.3 1-2.2-.6.2-1 1.6-1.6.6l.6-1c-.6 0-.8 1.1-1.6.8-.9-.7.2-1.4.3-2q-.6.1-1-.4c-.3-.4.2-.6.4-1-.2-.4-.7.3-1-.1C0 3.3 1.6 2.4 1 1q.1-.7.7-1c.7-.1.8.5 1 1" id="path355"/></g></g><g transform="translate(169.5 229.7)" fill="#a8002c" id="g358"><path d="M4.1.8q.4.6.4 1.6c-.6.4-.7 1.1-1.6 1.5q-1.2.3-2-.6c-.9-.8.5-1.5.5-2.5C2 0 3.5.1 4.1.8" id="path357"/></g><g fill="#fffefc" id="g365"><g transform="translate(263.4 229.8)" id="g359"><path d="M3 .8c-.3.8-.3 2-.8 2.7q0 .8-.7 1.3-1 .1-.7-1 .6-.1.4-.9-.5.4-1.2 0 0-.7.7-.9h.7c0-.8-.1-1.6.6-1.9q.7 0 1 .7" id="path358"/></g><g transform="translate(205 230.2)" id="g360"><path d="M1.8.5c-.7 1.1 1 1.1.6 2.3-.5 1-.2 2.5-1.2 3Q.4 6 0 5.5l.7-2c.1-.7 0-1.8.7-2.1C1.2.9.4.5 1.2.1q.4 0 .6.4" id="path359"/></g><g transform="translate(159.6 230.2)" id="g361"><path d="M3 2c.8 1 2.4 1 3.4 1.7.2.7-.6.8-1.2.8h-.5c.4 1 1.9.6 2 1.5q-.1.6-.8.7l-1-.2q-.3.4 0 .7c.6.8 3 .2 2.5 1.6-2.1 1-3.6-1-5.4-1.9C1.3 5.4 0 4.4.5 2 .2 1.6.2.8.5.5.8.4 1.3 0 1.6.4c.3.8 1.1.9 1.5 1.6" id="path360"/></g><g transform="translate(267 230.2)" id="g362"><path d="M1.5 1.2c0 .4-.6 1-1 .7C0 1.3.5.9.5.5c.6-.5 1.4 0 1 .7" id="path361"/></g><g transform="translate(201 230.5)" id="g363"><path d="M2.4.7a6 6 0 0 1-.2 2.5C2 4.2 1.6 5.3.6 5.5c-.5.2-.4-.2-.6-.4C1 3.8 1.4 2 1.4.5c.3-.5.8 0 1 .2" id="path362"/></g><g transform="translate(266.4 231)" id="g364"><path d="M3.8 0c-.3.8.3 2-.6 2.2.1.6-.5 1-.3 1.8.3.2.6-.2.8-.3 0-.4 0-1.1.7-1 1-.2.3.8.5 1.3-.7.7 0 2.1-1 2.5h-1c0-.4-.4-.8 0-1.3v-.3c-.7-.3-.3.8-.5.9Q1.9 6.8.8 7C.5 7 0 6.7.2 6c.6-.7 1.4-1 1.4-2.2C2.7 3 2.5 1.2 3.2 0z" id="path363"/></g></g><g transform="translate(245.6 232.4)" fill="#161413" id="g366"><path d="M.7.6Q.6 1 .2.9L0 .1c.5-.1.5.4.7.5" id="path365"/></g><g fill="#fffefc" id="g370"><g transform="translate(264 232.3)" id="g367"><path d="M3.8.2c-.1 2-1 3.3-1.6 4.9q-.5.8-1.5 1C0 6.1.2 5.4 0 5c.4-1.4 2.1-2 2.6-3.6 0-.6.3-1.3 1.2-1" id="path366"/></g><g transform="translate(201.7 232.2)" id="g368"><path d="m3.3 2.1-1 2.6q-.7.8-1.8.4C0 4.5.8 4 .9 3.8 1.5 2.6 2.4 1.6 2.7.5c1.2-.5.5 1 .6 1.6" id="path367"/></g><g transform="translate(172.8 233.3)" id="g369"><path d="M5.9 2.6c.2.5.5 1.5-.1 1.9-1.7 0-1.4-2.3-2.6-2.6.3.8 1 1.4 1.2 2.3q.4.5.4.9-.5 1.1-1.7.6-.3-.7-.6-1-.5.8-1.7.4C.4 4.6.8 3.4 0 2.9q-.1-1 .5-1.5c.8.2 1.7 0 2.6.2C3 1.2 2.4.5 3 .1 4.9 0 5 1.6 5.9 2.6" id="path368"/></g></g><g transform="translate(244.5 233.7)" fill="#161413" id="g371"><path d="M.6.7Q0 .7 0 .2L.1 0q.6 0 .5.7" id="path370"/></g><g fill="#fffefc" id="g378"><g transform="translate(142.3 237)" id="g372"><path d="M4.2 5.5c.4.2 0 .3 0 .5C3 6.2 1.4 5.7.7 4.8q-.6-1-.7-2.2.1-1 .5-2.1C.9 0 1.8 0 2.2.5c1.5 1 1.8 2.6 2 4.2z" id="path371"/></g><g transform="translate(189.8 236.4)" id="g373"><path d="M6.2 1.3c0 1.2-2.3 1.3-1 2.7.6 1.3.7 3 2.7 3 0 .7.6 1.1 0 1.6-2.7 1.4-5-1-7.3-1.8C0 6.2.2 5.1 0 4c.4-.3.1-1 .8-1 1 0 .3 1.4.9 1.7.3-1 .3-2.5 1.1-3.2.9 0 .8.5.8 1.2-.3.2-.8.7-.5 1q.9-.5 1-1.8c.3-.5 1.7-1.9 2-.6" id="path372"/></g><g transform="translate(200.8 238)" id="g374"><path d="M6.8 1.4c.3.7-.3.7-.7 1q-.5-.3-1.2-.2-.3.5-.8.9c-.4-.3-.6.2-.8.4C2.3 4 .6 4 0 3.1c0-.4 1-.9.2-1.2-.2-.7.5-.7.9-.8 1-.2 2.8.8 3.1-.5 1.1-.6 2.2.2 2.6.8" id="path373"/></g><g transform="translate(146.4 238.4)" id="g375"><path d="M1.6 1c-.4 1.2 1.1 1.8 0 2.5C0 3.7 1 1.8.2 1.1Q.1.3.7.2c.7-.2.8.5 1 .9" id="path374"/></g><g transform="translate(148.6 242)" id="g376"><path d="M1 .6Q.2.8 0 .2q.3-.3 1 0z" id="path375"/></g><g transform="translate(199 241.7)" id="g377"><path d="M3.5 2.5c1.3 1 3.3 1.3 2.7 3.4q-.6.8-1.7 1.3c-1.6.3-2-1-3-1.5q-.2-2-1-3.7C1 1.6 0 1 .8 1 1.4.6 2.2 0 3.1.4c.3.6-.2 1.7.4 2" id="path376"/></g></g><g transform="translate(238 243.3)" fill="#161413" id="g379"><path d="M.2.8C0 .8.2 0 .2.1S.3.8.1.8" id="path378"/></g><g fill="#fffefc" id="g397"><g transform="translate(262.9 244.3)" id="g380"><path d="M3.5.6C3.1 1.4 2 1.9 1.1 2Q0 2.2 0 1.8C.2.8 1.7.4 2.7 0q.8-.1.8.5" id="path379"/></g><g transform="translate(206.8 244.9)" id="g381"><path d="M2.8.7q-.2.9-1 .8c.4.5 1.6.1 1.6.9l-.2.4c.5.4 1.5.6 1 1.4.3.4 1 0 1.2.4 0 1-1.3 1-2.1 1.5-1 0-2 .7-3 .1-.2 0-.2-.7 0-.9l.8-.6c-.3-.3-.3-1 0-1.2h.2C1.2 3 0 3.2 0 2.4c0-.5.7-.6 1-.9C1 1.1.3 1.2.3.7l.9-.7q1 0 1.5.6" id="path380"/></g><g transform="translate(252.8 244.5)" id="g382"><path d="M3.3 1.9Q2.3 3.5.7 4.7 0 4.5 0 4c0-1 1.4-1 1.8-1.9C2 1.7 4 .1 3.3 2" id="path381"/></g><g transform="translate(264 246.3)" id="g383"><path d="M2.8.2c0 .6-.7.7-1 1.1.6.1 1.1-.6 1.7-.1.3.4 0 .6 0 1C2.6 2.6 2 3.7.6 3.4q-.6 0-.6-.8C.4 2 1.5 2 2 1.3c-.6 0-1.6.8-2 0C0 .3 1.4.5 2 0z" id="path382"/></g><g transform="translate(256.7 246.2)" id="g384"><path d="M5 3c.3 1.1-.4 1.2-1 1.7q-1.1.3-2.1-.1-.4-.7-1.2-.8-.6-.4-.7-1C.6 1.7 1 0 2.7.5Q4.3 1.6 5 3" id="path383"/></g><g transform="translate(196.7 247.8)" id="g385"><path d="M1.3.5v.2H0Q0 0 .5.1q.5-.1.8.4" id="path384"/></g><g transform="translate(275.7 248.8)" id="g386"><path d="M5 1c-.5.4-1.2 0-1.7 0 0 1.2-1.8.9-2.6 1.2-.7 0-.7-.7-.3-1.1 1 .3.9-1.1 1.8-.7l1 .3q0-.5.6-.7c.4.1 1.5.1 1.1 1" id="path385"/></g><g transform="translate(282.3 248.9)" id="g387"><path d="M1.4.4Q1.3.9.7.9L0 .7Q0 .3.6 0q.5 0 .8.4" id="path386"/></g><g transform="translate(196.2 249.2)" id="g388"><path d="M2.6 1.5q-1 .6-2.2.5C0 1.6.4 1.2.6.8c.7-.2 2.3-.8 2 .7" id="path387"/></g><g transform="translate(268.6 249.7)" id="g389"><path d="M3 0c.2 1.2-1.2 1-2 1.3-.4 0-1-.2-.8-.8Q1.4 0 3 0" id="path388"/></g><g transform="translate(211 251.3)" id="g390"><path d="M3.5 1C4 1 5 1 4.8 1.5s-.6.5-.6.9c.4 0 1.5-.1 1.6.4 0 1-1.3 1-2 1.1q-.6-.1-.6-1c-.8 0-2.4.3-2-1.1-.6-.1-1.2-.3-1-1 .6-.9 2-.8 3-.8z" id="path389"/></g><g transform="translate(277 251.8)" id="g391"><path d="M.8.8H.1C0 .3.4.3.4 0l.5.4z" id="path390"/></g><g transform="translate(265.5 251.7)" id="g392"><path d="M5.7 1.6c.4.6 0 1.2-.2 1.7s-.8.1-1.1 0C4 2.6 4 1.3 2.9 2 2.2 1.2 0 3 .2 1c.4-.4 1.1.2 1.6-.2C3 .5 5.4 0 5.7 1.6" id="path391"/></g><g transform="translate(197 252)" id="g393"><path d="M2.6.5q.3.7-.6.8t-1.5.1C0 1.1.5.6.5.2q1.3-.4 2 .3" id="path392"/></g><g transform="translate(255.8 252.5)" id="g394"><path d="M3.5 1.2v.4c.5.2 1-.5 1.7 0q0 .4.3.5.7-.5 1.6-.2.3.5-.4.8c-1.2-.3-2.1 1-3-.1q0 1-1.2.7c-.6-1-1.6.6-2-.5L0 1.6C.6.8 2 1.8 2 .5c.8-.5 1 .4 1.5.7" id="path393"/></g><g transform="translate(195.2 253.4)" id="g395"><path d="M6 .8c-.1 1 1.8 1 .6 2 .1.7 1.2.1 1.5.7s-.3 1-.7 1c-1 0-2.1.3-3-.1v-.9c-.4.2-1.2.6-1.8.2-.2 0-.4-.6-.1-.9s1.6-.4 1.9-1C2.8 1.6 1.3 3.4 0 2 .8 0 3.8.6 5.7.6z" id="path394"/></g><g transform="translate(271.4 254.3)" id="g396"><path d="M1 .2Q1 .8.8 1C.5.7 0 .7.2.2q.5-.2.9 0" id="path395"/></g></g></g><!-- app4joy --></svg>