<svg width="1500" height="1000" viewBox="0 0 1500 1000" id="svg162" xmlns="http://www.w3.org/2000/svg"><g id="g163"><path fill="#e21c2a" id="rect1" d="M0 0h1500v1000H0z"/></g><g transform="translate(-218.9 -406.4)scale(1.3708)" fill-rule="evenodd" id="g162"><path d="m341.3 482.6 1.6 1.5q3.3 3 6.7 5.8l.5.4.5.6.8 1.4.3 1.4a12 12 0 0 1-1 5.2 21 21 0 0 1-2 4 51 51 0 0 1-5.5 6.9l-6.2 6.6-.3.3a71 71 0 0 0-7.8-1.9l-2.8-.4 2.7-1.8 2.3-.6.1-.4 1-2.8.4-1.6.4-1.2.6-1.4.7-1.3.8-1.3 1.4-1.7 3-3.1 1-.9q.7-.7 1.6-1h.5l.3-.2 1.3-1.4.3-.5.2-.6v-1.2l-.2-.4-.3-.5-.4-.3-.7-.6-1.2-1.4-.4-1-.1-2v-2zM306 373.7q-1.5-.4-3.1-3.2l-.7-1.4c-.6-1.1-.2-2.5-1.2-3.4-.6-.5-.6-.9-.8-1.6l-.2-1.8h-.4l-.2-1.4v-2.1l.2-1 .2-1 .3-1 .3-1 .4-.9.5-.8.5-.8.6-.8.7-.7.3-.3.4-.3.4-.2.4-.3.4-.2.4-.3.3-.1.1-1.1v-1.3l-.6-1.4-1.2-1.6-.6-.6.6-.5 1.8-.5.9-.2 1.5-.1h3.6l.6.2.6.1.7.2.6.2.6.3.7.3.6.3.5.4.6.4.6.5.5.6.5.6.6 1 1 2a13 13 0 0 1 1.2 5.5l-.2 3.6-.3 2.5q0 1.4.3 2.7l.1.3.7 1 .2.1a2 2 0 0 0 1.7.2l1.3-.8q1-1 1.8-2.3l.8-1.2 1-1.3 1-.7a5 5 0 0 1 2.8-.5h.6l.3.1.3.2.2.1.2.2.2.2.4.4.8 1.6.9 1.8.3.3.4.2h.2q.4.3.9.2.5-.2.8-.8l1.3-1.8-.2 2.5-.4 1.6-.4.8q0 .3-.4.5 0 .3-.3.4l-.5.3-.6.2q-.8.3-1.7.1-.4 0-.8-.3l-.2-.1q-.4-.4-.6-1-.4-1.1-1.2-1.9l-.6-.2h-.7l-.4.2-.5.4q-1.6 1.4-2.7 3.2l-1.2 1.7-.4.5a6 6 0 0 1-4 1.6h-.7l-.6-.2-.7-.1-.2-.1-.9-.4-.3-.2h-.2l-.6-.5 1.3 2.5h.1l8.5-.6 6.3-.6a170 170 0 0 1 17.2-.5l1.5.2.2.2.2.4.2-.1.5-.2.5-.2h.5l.5-.1h1.7l.5.1.3.2.4.2.4.2.3.2.2.3.3.3.2.4.1.3.1.4v1.4l-.1.4-.2.5-.3.5v.2l15.4 5.5 1.3-.3-.3 2-.4 2-.3 1.7-.2.8-.2.6-.2.6-.2.6-.3.4-.2.5-.3.4-.2.3-.3.3-.3.3-.4.2-.3.2-.4.2-2.5 1-1.6.6-1.1.7-.7.3-.7.5-.7.4q-.7.6-1 1.2-.9 1.2-1 2.5v1l.1.1.5.4.3.4.2.4v.2l-.2.8-.2.3-1.6 1.9-1 .7-1.2.5h-.9l-1.3-.2-1.1.1-1.2.4-1 .5-.5.4-1.1 1.5q-.8 1.3-1.3 2.8l-1.3 2.5-.6 1h-.2l-.2.1h-1.1l-.6-.2h-.3l-1.1 1.1-2 2-.7.4-1.7.4h-2.9l-.8-.3-.9-.3-.5-.2-.5-.2-.5-.3-.5-.3-.5-.4-.6-.3-.6-.5-.6-.4-.6-.6-.7-.6-.6-.6-.7-.7-.8-.7-.7-.8-.8-.9-.8-1-.8-1-.8-1-.9-1.1-1.8-2.5-2-2.8-1.1-1.7-.5 1.6-.3.5.1.6.2.4 1.4 3.9.2.5h.3l.9 2.8h-.2l4.6 12.2h.1l.2.2 3.5 3.2 1.7 1.3 1.6 1c9.8-4.2 18.5-6 29.4-.5a10 10 0 0 1 2.1-2.7 40 40 0 0 1 5.4-4.1l2.5-1.2 1.3-.4 1-.2.9-.2h3l1 .2 3.4 1 1 .4 1.6.8 1 .5 1 .7 1 .6 1 .7.8.8.8.8.8.9.7.9.6 1 .6.9 1.1 2.6.7 4a33 33 0 0 1-.4 7.2l-.2 1.2-1 4.5-.5 1.5q-1.6 4-2.8 8.1l-.4 1.5-.6 2.2-.3 1.4-.2 1.5v3.8l.3 1.8 1 2 1.9 2.3.7 1-1.4.1-.4.1h-3l-1-.3-1-.2-1-.4-1-.4-.9-.4-.9-.6-.8-.6-.4-.3-.3-.3-.4-.4-.3-.4-.3-.3-.3-.4-.3-.4-.2-.5-.3-.4-.1-.4-.3-.6-.3-.6-.3-.6-.4-1.2-.4-1.3-.3-1.2-.1-1.3-.2-1.2v-2.5a41 41 0 0 1 1-7.3l1-3.2.3-1.5.2-1.6.1-.7.1-.8v-.8l.1-.8v-2.4l-.2-.7v-.8l-.3-.7-.2-.7-.2-.7-.3-.6-.3-.7-.4-.6-.5-.6-.5-.5-.5-.5-.6-.5-.6-.4-.8-.4-.7-.4-.9-.3-1-.3-1-.2-1.4-.2q-1.3.1-2.5.5l1.2 1.4a25 25 0 0 1 2.5 4l1 3 .5 3.4v.6l.2.5a9 9 0 0 1-.2 3.7l-.3.8-.2.6c-.6 2.5-1.2 4.4-.8 6.5v1.3h-.4v.3l-.1-.3h-.1l-.4 1-.7 2a129 129 0 0 1-6.7 13l-2.3 3.6-.2.2-.2.3-.2.4v.4l-.2 1.8v.8l.6 3.6.7 3.2 1.1 2.4 1.5 2.6q.3.9.4 1.9v.4l-.2.4-.2.3-1.2 1-1.4 1.2-4.3 5a38 38 0 0 0-2.8 5l-.5 1.3-.5 1.2-1 3-.7 2.4-.3.3-.3.4-.5.5h-.2l-.5.2-2.3 1.1-.4.3a12 12 0 0 0-2.6 2.2l.3.1 4.4 2.5 6.2 3.9 2.6 1.4 2.7 1a30 30 0 0 0 6.4 1.5h2.1l.6-.1.5-.1.4-.1.5-.2.4-.1.4-.2.4-.2.3-.2.3-.3.3-.2.3-.3.3-.2.4-.6.4-.6.3-.6.2-.6.1-.6.1-.6v-.8q0-.9-.4-1.9l-1.4-3a71 71 0 0 1-4-11.6l-.5-1.8-.4-1.8-.2-1.6-.1-1.5v-2.7l.2-1.2.2-1.2.3-1 .4-1 .5-.9.5-.8.6-.7.6-.7.7-.6.6-.5.7-.4.8-.5.7-.3.7-.3.7-.3.7-.2.7-.1.7-.2.6-.1 3.2-.2h.5a16 16 0 0 1 5.3 1.8l1.7 1.3.5.5.5.6.6 1 .3.6a21 21 0 0 1 1.4 4.3l.2 4.1-.4 1.6a12 12 0 0 1-2.6 3.6h-.5l-.8 1-.4-.2-1 1.6-.4-1.7-.1-.6-.4-.8-.3-.5-.5-.7-2-2.3-.4-.5-.6-.7-.2-.6-.3-.6v-.6l-.1-.3v-.7l.1-.2v-.3l.2-.3.1-.2.3-.5.6-.6.4-.3.9-.6 1.5-.6-.5-.7-1.3-1-.3-.2-1.5-.5H380l-.6.1-.7.2-.5.2-.5.3-.5.3-.4.4-.4.4-.3.5-.3.5-.3.5-.2.5-.1.6-.2.7-.1.6v.7l-.1.7v1.5l.1.7.1.8.1.8.2.8.2.7.2.8.2.8.3.7.3.8.3.7.3.8.3.7 2.8 4.9.2.3 1.3 2.4 1 2.7q1.2 2.5 2 5.3l.2 2.6-.3 3-1 2.7-.7 1.3-.4.5-.3.5-.4.4-.3.5-.4.4-.4.4-.8.7-.9.7-.9.5-.9.5a27 27 0 0 1-9.2 2.7l-1.3.1h-2.6a48 48 0 0 1-7.8-1 58 58 0 0 1-6.7-2.5v.2l-.2 2.2.2 1.2.1.4.3.6q.6.8 1.4 1.3l.4.4.9 1q.3.4.3 1v.3l-.1.7-.3.3-2 2.7a24 24 0 0 1-3.9 4.1 10 10 0 0 1-2.6 1.2 14 14 0 0 1-4.4.3l-1.1-.2-3-1-.5-.2q-1.1-.2-2.2 0l-1 .4-.6.5-.3-.9v-.8l.3-.4.6-.7-2.5.7-1.5 1 .7-1.8.1-.2.4-.5.3-.3.5-.4 1.3-.6H330l.1-.2-.8-.2 1.5-.7.2-.2.3-.3.3-.3.4-.3.4-.2.4-.1.3-.1.4-.1h.5l.4-.1h1.2l.8.2 2 .5 1.9.6 1.2.3h.2l.4-.2.4-.2.5-.4.2-.3.3-.5.2-.5v-1l-.3-.4-.3-.3-.3-.2-1.6-.5h-6.5l-1.3-.2-1.4-.2-1.3-.2-1.2-.4-1.3-.3-1.1-.4-5-2.6q-1.7-1-3.2-2.3l-1.6 1.3-2.1 1.3-2.1 1.3h-.1v1l.6 2.2 1.2 2.2 1 .8.5.4.4.5.1.2.1.8v.2a4 4 0 0 1-2 2.6l-1.1.5-2.5.4-2.8.4h-3.2l-6-.4-2 .3-2 .7-1.8 1.2-1.3 1 .1-1.6.4-1.3.5-1 .3-.3 1.3-1.4a13 13 0 0 0-3.2 1.1l-1.3.8-1.2.8.2-1.6.2-.6.2-.6.2-.5.3-.5.4-.4.4-.4-.8.2-1.9.2-1.8.2-1.8.2-1.7.1-1.7.1h-7.8l-1.7-.2-1.6-.3h-.3l-.1-.1q-.3 1.5-1.2 2.9l-.7.9-.4.3-1-.2q-2-.4-4.1-.6H257l-2.1.6-.7.2-3.2.4h-4l-4.7-1-5.3-1.5-1-.3-.5.2a12 12 0 0 1-4.9 1.2h-.5l-6.2-1.7-1.2-.4h-1.4a8 8 0 0 0-3.7 2.1l-.7.7-.3-1v-.8q0-1.5.7-3l-1.8 1.2-1.5 1 .4-2 .8-1.6.5-.6q.8-.9 1.8-1.4l-1-.1-1.5-.3 1.4-1 .8-.5.9-.4 1-.4 1-.4 1-.4 1.3-.2 1.3-.2h.7l.7-.1h3.8l.8.2.9.1.9.2.9.2.9.2 1 .3.9.3 1 .3 1 .4.7.3.6-.3a10 10 0 0 1 3-.5 43 43 0 0 1 6.7.1l5.7.6q.1-.8.5-1.5l.4-1.8-.2.5-.3.2h-.1l-.2.1h-.3l-.3-.2q-2-1-3.7-2.4l-.8-.8-1 .3-2.9.8-1.3.3h-1.6l-.7-.1-.6-.2-.3-.1-.4-.2-.3-.2-.3-.2-.3-.2-.8-.8-3.8-3.1a89 89 0 0 1-6.5-5.7l-.6.5-.7.3-.6.2h-1.6l-2.6-1.1-2.6-.9h-2l-.8.3-2 1 2-3.3-1.8.3-1.8.8-.7.5-1.3 1.2.3-1.8.1-.4.5-1q.7-.7 1.5-1.2l-1.2.1-2.8.4 3.1-1.8 4.5-1.8 3.6-.8 1.6-.2h1l5.6.4a11 11 0 0 1 2.8 1.1l1.5 1a88 88 0 0 0 10.2 5.4 36 36 0 0 1-1.7-5.2 15 15 0 0 1-.2-4.1l.1-1.6h-.2a9 9 0 0 0-5.5 2.6l-1.2-.9-1.2-1-2.3-1.4-1.2-.6-1.9-.5a11 11 0 0 0-4.5.5l-2.6 1-4.6 3-1-1.5-.8-1.3-1.5-1.8a10 10 0 0 0-3.3-2l-1-.4-1-.4-.6-.4-.5-.4-.5-.5-1-1.4-.6-1-.8-2.3-.4-1.3 9-2 .2-.2v-.5l.3-2 1-2.3.5-2.1.1-1-.2-1.7-.3-1.8-.2-2.7v-.2l.3-.6.3-.2.7-.6a49 49 0 0 0 9.3-8.8l2-2.7 1.7-2.3 1-1.7.6-1.8.8-1.9 1-1.1 1.8-1.2a3 3 0 0 1 1.6 0q1.2.2 2.4.7l1.9.5h.3l1.7-.5.5-.1 2.4-1.3-4-2.5-3-2.5-1.7-2-3-4-3.8-3.7-1.2-.8-.6-.5h-.6l-1 .9-1.5 2-1.4 2.2a12 12 0 0 0-.8 3.7v4.8l-.1.5-.4.6-.4.3-.4.3-1 .4q-.2 0-.5.3-.5.5-.6 1.4l.2.5.4.7a9 9 0 0 1 .6 3l.1.4.4.6.5 1 .1.3-1.5 2.1a19 19 0 0 1-5.1 4.3l-1.1.8v-2l-.6-4.5v-2q0-1.4.4-2.7.3-1.6.2-3.3l-.5-1.7-.2-.7v-1.3l1.1-1.5 1-1.1.6-1 .8-1.4a105 105 0 0 0 3.7-9.6l1-4.5v-.3l.7-1.2.6-.3.8-.2 4-.3h2q.5 0 .8.3l.6.5.5.6.6.5 3.8 2.7 3.7 1.7.7.3q4.2 1.5 8.2 3.7l-.3-4.3h-.3l1.1-2.2.6-2a78 78 0 0 1 4.1-9.8q3.3-6 6.3-12l-.6-.1-1-.3h-.2l-.3-.1-.6-.5-.7-.9v.2l-.2-.7v-.4q-.3-1-.1-1.9l-1.1.1q-1.6.1-2.9-1l-.8.6-1.8 1-.9.3-.8-.1-.2-.2-.3-.5h-1.4q-.4.4-1 .4H240q-.2 0-.5-.3l-1.8-2-.5-.3q-.6-.2-1-.8v-.2l-.2-.7v-.8l.9-3.7.1-.5h.1l.7-2.6h.1l1-3.2a64 64 0 0 0 1.7-7v-.4q-.3-.4-.3-1l-.2-1.7.1-.7 1-4.8q-1-.4-1.9-1.2L238 384l-1.2-1 2-.4a21 21 0 0 0 4.6-1.9l-.2-.6-.6-1.4-.4-.4q-.8-.4-1.4-.5h-1.6l-2.1.4 1.4-1.3.8-.6q.8-.5 2-.5l-1.5-.5-1.8-.4 2.8-1 1.2-.4h2.3q.8 0 1.4.3l-.3-.2-1.3-.8 1.5-.4h1.5l1.5.4q1.4.8 2.5 1.8l1 1 .8-1.4.8-1q.3-.7.8-1l1.1-1.2 1 2q1-.7 2.1-1l.9-.2a7 7 0 0 1 3.6.8q1.2.7 2.4 1.1.8.3 1.4.2l4.4-.2 1.5-.1-1 1.1-.5.5.1.1 2.4 1.2-.3-6.2-1.5.1h-.5l-.4-.2-.4-.2-.3-.3-.1-.4-.1-.3v-.4q.1-.4.5-.6h-.2l-.3-.1-.1-.1-.2-.2-.1-.2-.1-.1-.1-.2v-.9l.1-.1.3-.4-.2-.3-.1-1v-.3q.2-.5.8-.8-.3-.4-.2-.8v-.2q0-.4.4-.7l.2-.2h2l.3.1-.4-11.5v-1l-2.2-1v-2.3l2.2 1V344h-4.7v-2.3h4.6v-1.4h-3.3V338h3.2v-3.5h2.6v3.5h2.8v2.3h-2.7v1.4h4v2.3h-4l.1 3.7 2.5 1v2.4l-2.5-1 .4 10.5h.8l.4.1 1.7 1 .4.4.8 1 .4 1.2q.4 1.2.5 2.6a52 52 0 0 0 4.4 6.4l6 7.5c3.4-2.1 7-3.6 11.6-6.6l1.5-.3h1.3q.3 0 .3-.3m-29.5 137 .1-.4V508l-.2-.4-.2-.8-.4-.9-.4-.8-.7-1.3-2.7-3.8-1.2-1.8-.7-1.3.7-.8a58 58 0 0 1 6.5-5.8l.5-.4-.6-18.5-2.8-.7-3-.9-.3 1v.4l-.3.8-.1.3-.4 1.4-.2.6-.4.4-.4.4-.6.2-1.4.4h-8.8l-5-.1-9.3-1-3-.3-2 .3-2 1q-1.8 1.4-4 2.4l-.6.2-1.8 1-.6.7-.9 1.7-.5 1.5q-1.6 4.6-3 9.4l-.3.7-.8 1.7-.4.4-.5.3-1.3.3-1.7.2q-.9.2-1.3 1.3v.1l-.1.5q0 .4.2.6l1.1 1q1 .5 1.7 1.2a82 82 0 0 0 9.8-4.8l10.1-5.6 3.7-1.6 2.7-1 3.8-1 1-.2 1.4-.1h1.9l.4.2h.5l1.2.5 1.7 1 .3.3-1.3 8-.7 6.7 3.9 1.2 3.5 2.1 2 2a17 17 0 0 1 2 3.3 27 27 0 0 1 2 7l.4 3 .7-.3.5-.3.4-.4.4-.4.3-.5.8-1.7.3-2v-2.5l-.2-1-.5-1.9 1 .8zm3-132.7v.3l.2.1v.2l-3.2-1-.2-7q1.4 3.8 3.2 7.4M301 391l.4 7.7v1l-6 2.4-.3-.6q-1-2.4-1.7-5h.3v-.3h.7q1-.6 1.8-1.5l.7-.7-1.7-.4a13 13 0 0 1-3-1.2l-2-1.6h.1c3.7 1 7.7.2 10.7.2m-18.3 81.5-1.3-.2-1.6-.3.6 16.3 4.5-2 4.3-1h1.4l3 .4 2 .3 10.5 1.5 2.1.2 3 .3 2.1.1h5.2l1.1-.2 1-.1 5.3-.9c-.8 1.4-1.7 2.2-2.6 3.5l-.5.7-.4.7-.3.7-.2.6-.2.7-.2 2.2.3 2.1.6 2.1a24 24 0 0 0-8.9.9l-.7.4a7 7 0 0 0-3 6.8c-2.6-.4-5.5-2.3-9 .2l-1.2 1.2-1 1.6-.8 2v.2l1.1.3 1.6.8 1.2 1 .8 1.1.2.5h.2v-.1a92 92 0 0 1 9.3-2.4h.1l5.4-3.7q3.8-2.6 7.4-5.4l1.8-1.4 1.1-1 1.5-1.3.8-1 .4-.4.4-.5.3-.5.3-.4.3-.5.2-.5.2-.5.2-.5.1-.5.2-.5.1-1.2.2-1.7v-.9l-.1-.2-.7-.5a175 175 0 0 1-9.7-10.1 140 140 0 0 1-7.6-9.8 126 126 0 0 1-10.7 1.6l-8 .6h-1.6q-.4.7-1 1 0 .3-.3.5l-.3.3h-.1l-.5.3-1 .2h-.5a43 43 0 0 1-8.5-1.3l-1.5-.4-.1-.1-.2-.1v-.2l-.1-.2v-.3l.1-.1.3-.3 1.2-.4zM252.2 411a34 34 0 0 0 5.9 5l2.3 1a63 63 0 0 0 1.7-7.5v-2q-.4-2.7-1.1-5.3l-1.4 1-3.2 2.1-.5.4-4.1 3v.2l.2.3v.2q0 .7-.3 1.3h.3z" fill="#2c2c2b" id="path1"/><g fill="#f5f6f6" id="g99"><path d="M286.8 419.6q1.5 1.2 3.1 1.7l-2.4 2.5-1-3.9z" id="path5"/><path d="m290.2 417.7-.4 2.2 2.8-3.1q-1.3.2-2.4.9" id="path6"/><path d="m288.8 418.2-.7 1.5q.3.6 1.1.7l.3-2.5z" id="path7"/><path d="m291.6 412.7.4 2.4 1-.4z" id="path8"/><path d="m289.7 410.4 1 5.2.8-.3-1-5z" id="path9"/><path d="M285.8 417.2q2.3-.4 4.3-1.4-.4-2.7-1.1-5.4l-5 .3v.2l.2.2v.4l.1.1v.2l.1.2v.1l.1.2v.3l.1.1v.2l.1.1v.2l.2.6.2.7v.2l.1.2v.1l.1.3.1.4z" id="path10"/><path d="M294.1 410a9 9 0 0 0 2.1 3.2l.9-.9-1.4-1.5c-.3-.3.3-.6.5-.2q.6.9 1.3 1.3l2-1.8-.9-.6-4.3.5z" id="path11"/><path d="M293 410.2a8 8 0 0 0 2.3 3.9l.7-.7c-1.2-.8-1.7-1.5-2.4-3.3z" id="path12"/><path d="M291.4 410.3a8 8 0 0 0 2.9 4.9l.7-.8c-1.5-1.2-2-2.6-2.8-4.2z" id="path13"/><path d="m282 404.6 1.9.9a19 19 0 0 0 4.7-.9v-.1l-.5-.9-.4-1.1-.3-1.2-.2-1.6v-3.4l-1-.5q-1.3-.6-2.4-1.6l-.2-.2-1-1-1.5-2.1-1.1-1.8-.6-.3-.5-.2-.4-.3-.4-.4-.7-.6-.5-.8-.2-.2.3 8.1q3.1 4.5 5 10.2" id="path14"/><path d="m261.5 381 .3.2h.2l.2.2.3.1.2.2h.2l.3.2.2.1q6.5 3.6 11 9l-.2-7h-.6l-1.9-.1a14 14 0 0 1-3.3-1.2l-2.7-1.8-.9-.7a9 9 0 0 1-3.3.2z" id="path15"/><path d="M276.7 385.3c2 3.5 3.9 3.8 7.3 3.5l-1.7-1.3q-1.2-1-2.1-2-.2-.3 0-.4t.3 0l2 2 2.2 1.7 1-.1-.2-.2-.1-.1-4-4.2q-.2-.1 0-.4h.3l2.2 2.5-3.3-6.1-.6.5-1.4 1.3h.1q-.8.8-1.8 1.3l-.3.2z" id="path16"/><path d="M277.7 384a27 27 0 0 0 4.7 4.2q.2 0 0 .3 0 .4-.3.1a26 26 0 0 1-4.8-4.3v-.3q.3-.2.4 0" id="path17"/><path d="M280.7 389.3c1 1.5 2 3.4 3.5 4.5l2.3 1.7-2.6-3v-.4h.4l3.4 3.8 2.4.4a23 23 0 0 1-4.9-4.4v-.4h.4a23 23 0 0 0 5.5 4.8q1 0 2.2-.4l-2-.8q-2.6-1.3-4.6-3.2v-.3q.3-.2.4 0 1.9 1.8 4.4 3 1.3.7 2.5 1 1-.5 1.8-1.4c-3-.7-4.2-1.4-6.5-3.5l-.2-.3h-.4l-1-.5-.7-.3-.4-.2-.3-.2h-.1l-2.5.2h-2l-.8-.1z" id="path18"/><path d="M287.7 396.4q-.4 5 1.4 8 .6 0 1.2-.4l.4-.1-2-3.4.2-.3q.2-.2.3 0l2 3.5 1-.4-2.3-3.1v-.3q.4-.1.4 0l2.3 3.2 1-.3a17 17 0 0 1-2.4-3.2q-.1-.2.1-.3h.3a12 12 0 0 0 2.5 3.3l.8-.3c-1-1.6-1.5-3.9-2-5.8q-2.6.5-5.2 0" id="path19"/><path d="M277.6 382.3q-.5.5-1 .6v-.8z" id="path20"/><path d="M279.2 380.8 278 382l-1.4-.4v-1.3z" id="path21"/><path d="m276.5 378.2 3.4 1 .3.7-.7.6h-.2l-2.8-.7z" id="path22"/><path d="m271 375.7 3 1.5v3.8l-2.4-.8-.2.1.1.3 2.6.8v2.1a11 11 0 0 1-8-3l-.6-.4q1-.2 1.7-.6 1.4 1.4 2.5 2 1 .7 2.8 1.2l.3-.1q0-.3-.2-.3-1.7-.5-2.7-1.1t-2.3-2q2.1-1.1 3.5-3.5" id="path23"/><path d="M258.4 445.6h-.3z" id="path24"/><path d="M258.7 445.6h-.2z" id="path25"/><path d="M259 445.6h-.2z" id="path26"/><path d="M259.8 445.5h-.3z" id="path28"/><path d="M260.1 445.5h-.2z" id="path29"/><path d="M260.5 445.5h-.2z" id="path30"/><path d="M248.7 444.9h-.2" id="path40"/><path d="M263.2 395.5v-.1z" id="path45"/><path d="m257.8 383.6-1 2.8.5-.1c-.2-.8.5-1.7.7-2.5z" id="path50"/><path d="M256.9 373.4q1-.6 2.2-1 1.4-.1 2.7.2c1.4.4 2.7 1.5 4.1 1.8 1.9.3 3.9-.1 5.8-.2q-1.1 1.3-2.8 1.6-3 .6-5.8.1c-.7 0-.5.7 0 .6q3.9.6 7-.5l-1.3 1.6c-2.6 0-4.6 0-7.2-.7-.5-.1-1 .6-.2.6q3.1.8 7 .7l-1.7 1-4.6-.8-1.6-.4c-1-.5-1.4.3-.4.4q2.5 1 5.5 1-2.2 1-6 0l-1.2-.2-.4-3z" id="path51"/><path d="M259 380a19 19 0 0 1-1.3 6.2h.3q.6 0 1 .4h.2q0 .2.2.3 1.8-3 1.6-6.3z" id="path52"/><path d="m255 386.4 1-.3.5.5q0 .3-.3.4z" id="path53"/><path d="M247.8 385.5c2.9 0 4.8.3 8 2l-.2 1.1c-3.5-2.2-5-2.5-8.5-2.3l.1-.1z" id="path54"/><path d="M257.9 389.6a1.5 1.5 0 0 1 0-3 1.5 1.5 0 0 1 0 3" id="path55"/><path d="M248 410.4a1.8 1.8 0 0 1 0-3.6 1.8 1.8 0 0 1 0 3.6" id="path56"/><path d="M247.5 406.4a159 159 0 0 0 7-13l1.7-4 1.2.9a42 42 0 0 1-5 11.8l-2 3.4-.9 1.3-.6-.4h-.3q-.5-.2-.9-.1z" id="path57"/><path d="m240.9 391.5 1-4.8h.3l2.5.4h.9l-.2.2q-.7.4-1.8 1.4l-1.4 1.3q-1 1-1.3 1.5" id="path58"/><path d="m255.1 416-4.6-4.4v.5c-.1 1.2-.2 1.4.3 2.7.7 1.3 2.9 1.6 4.3 1.2" id="path59"/><path d="M245 416.2h1.2l.2-1 .2-.3.2-1.3-.2-.3q-.5-.3-1-.3l-1 .1q-.2.1-.2.4 0 .6.4 1l.2 1.1z" id="path60"/><path d="m238.3 405.9-.5 2c2.6 0 5.2-.3 8 .6q0-1.2 1.1-2c-2.7-.8-5.6-.7-8.6-.6" id="path61"/><path d="M243.6 401.2c-.4 1.7 1 1.4 1.2 0q.4-2.7 2-4.9-.6.3-1.5 0l-1.1 1.9q-.5 1.3-.6 3" id="path62"/><path d="m284.5 468.7-1.2 3.2h.8v-.1h.2v-.1h.2v-.1l.3-.1.1-.1.5-.4.2-.2h-.2v-.1h-.3v-.1h-.5v-.1l.7-.7.6-.7-1.2-.4z" id="path63"/><path d="m279.7 471.4 1.3.2q.5-1.8 1.4-3.5l-2.8-1z" id="path64"/><path d="m271.7 464.4-.2 5 5.7 1.4-.1-4.4-3.3-1 .9.8c.3.2.2.6-.5.3-1-.4-2.5-2.1-2.5-2.1" id="path65"/><path d="M248.6 455.8c2-2 4.1-3.9 6.7-4v.3a19 19 0 0 0 0 7.2c.2 1.7 1.2 1.8 2.5 2.2s3.1.2 3 1.6l-.2.8a20 20 0 0 0-11.3-.5z" id="path66"/><path d="m270.5 471 .3-1z" id="path67"/><path d="M219 497.3q.6-1.4 1.9-1.7c2.2-.5 3.2.5 4.3-3.2q1.4-5 3.2-9.8c1.3-3.6 1.3-3.5 4.6-5.1q2-1 4-2.4c2.4-1.6 4-1.5 6.6-1 8 1 14.9 1.3 22.7 1 3.6 0 3.5-1.4 3.9-3l.2-.7a86 86 0 0 1-24.8-1.6c-2.9-.7-4.7-1-7.5.5l-3.8 2.5a15 15 0 0 0-5.5 6l-8.6 15.4c-1.4 2.5-1 2.1-1.3 3.1" id="path68"/><path d="M221 500.5c-2.8-.3-3.6 1.6-3.1 4l1.2 6.2c1.6-1.4 3.6-2.5 3.7-4.7 0-1.6-.6-5.6-1.8-5.5" id="path69"/><path d="m248.4 459.4.5 4.1-1.4.5-1.8.7-.7.3-.9.2c-2.5-1.6-5.2-3-7-5.1-2.9-3.3-5.1-7.5-9.5-10.3-.3-.2-.8-.8-1.5-.6-.8.2-1.8 1.5-2.9 3-1.3 1.7-2.6 3.8-2.4 9.7 0 1.2.4 2.4-1.9 3l-.8.6q-.5-.7-.4-1.5c.2-3.1 1.4-6 1.7-9.1q.3-2.4 2.7-4.3c1.4-1 2-4 4.5-3.6 3.9.5 7 3 10.2 5.4 3.4 2.5 8 4.4 11.6 7" id="path70"/><path d="M214.3 489.5q0 .6.5 2c.6 1.5 2 2.5 2.8 3.9.5.9 0 2-.7 2.7q-2.4 3-3.9 5.7c0-3.2 1.4-3.5 2-7.6.1-1.4-1.1-5.6-.7-6.7" id="path71"/><path d="M233.8 466.9h-.2z" id="path72"/><path d="M212.9 470c.4-2.7.5-3.9-.3-5.5q-.7-1.3.5-2.5 1.9 1.5 3 3.2c.5.8.2 2-.4 2.7q-1 1.1-2.8 2" id="path73"/><path d="m316 471.8 6.4-2 7.3-.1.1.3.3.6.3.5.4.6.5.6.5.7.5.7.7.7.6.8.8.8.9.9.9.9 1 1 1 1 2.4 2 .2 2.7c.1 1.8-.2 3.1 1 4.6l1 1q3.1 2.1-.4 4.7-1.5 0-4 2.8a21 21 0 0 0-6.6 10.3l-1.1 3.7-2 .5q-2.1 1-3.4 2.3l-3.4-.2h-1.6l-6.8.3 4.6-3.1c8.6-6.4 15-10.2 15.4-16.4l.3-3-1-1q-9.8-9-16.9-19.2" id="path74"/><path d="m318.7 462 .7-.3-.2.2z" id="path75"/><path d="m316.7 462.6.7-.2-.4.2z" id="path76"/><path d="M329.2 466.5a91 91 0 0 1-34 6.8l1.9-2.4 2.6-.6.5-.2.6-.3.2-.2c9.4-1.4 18.7-3 27.7-6q.5 1.4.5 3" id="path77"/><path d="M293 472q.8.7 1.3 1.6l-.2.2-1 1.1-1.9-1.6h.3l.9-.4z" id="path78"/><path d="M292.7 475.2c-.5.4-1 .3-2.4.3q-4.5-.3-7.6-1.3c-2.6-.4-1-.7-.2-1l.3-.2a36 36 0 0 0 5.6 0l1.4-.1z" id="path79"/><path d="m295.8 446.8 1 .5c1.9.7 3.1 2 2.9 5.6-.1 2.6-.5 5.3-.2 8 .1 1.8 1 3.6 1.7 5.3 1.2 3-1 3.7-4.4 4.2q-.9 1.5-2.1 2.8l-1.1-1.4.2-.2q.5-.5.6-1.2l.2-.7.7-1.5.7-1 .3-.3 1-1.5v-.2l.3-.5v-.6l.1-1.7q0-1.3-.4-2.6l-.4-2.7z" id="path80"/><path d="m286.6 446.3 1.3-.4 1 2q.8 1.5 2 3.1l1.5 2.9a16 16 0 0 1 .9 4.4l.2 2.8.1 1.7-.2 1.6a11 11 0 0 1-1.6 3.2l-1.1 1.4-.3.3-.8-.5-.4-.2-.5-.3 2.5-3.3c1.3-1.6 1.5-1.7 1.2-3.9l-.8-3.5z" id="path81"/><path d="M285.3 443.3c5-.5 8.5.5 13.3 2.4l.6 2.7-.4-.5-1.4-1-1.7-.6-.2-.1h-.2l-.2-.1h-.1l-4.1-1h-1.7l-1.5.3-.7.2-.7.2z" id="path82"/><path d="M292.5 418q-1.5 1-2.2 2.6l1.1.8h.2a97 97 0 0 0 7.6 5l1.2.7q2.8 1.5 6 2.9l-.4 1.8 7.7-.2v2.1q4.6.4 9.1-1l.7 1.1c2.6-.3 5.5-.9 9-2.8 3-1.5 0-2.6-1.3-3.5-1.7-1.2-3.2-2.9-4.8-4.2l-4.6 1.5L318 412l-1.4.7h-.2l.6 13-5.6.3.5-11.6h-1.4L306 426l-5-1.9 4.7-10.9-1.5-.4-7 8.6z" id="path83"/><path d="M302 409q3.9 2.1 7 4.5c3.4-2.5 10.3-5.1 12-4.1l-.3-1.3c-3.8-.6-7 1.2-10.4 3l-1.1.6-4.8-3.1h-.6z" id="path84"/><path d="m318 410.3 4.2 13.9 3.7-1.3-4.7-12.8a6 6 0 0 0-3.3.2" id="path85"/><path d="m312.5 412.4-.6 13.1q2.3 0 4.6-.3l-.7-14.6z" id="path86"/><path d="m306.5 412.6-4.8 11.2 4 1.6 4.6-12-1.5 1z" id="path87"/><path d="M292.7 417.6q3.7-4.2 8.4-8.1l3.5 2-7.5 9.2z" id="path88"/><path d="m320.8 382 .3-.3c.6 1.8 1 6-1 11.1h-.5c1.4-3.8 1.3-7.3 1.1-10.8" id="path89"/><path d="m305.2 408.5 4 2.6c4.4-2.6 8.2-4.2 11-3.6l-1.5-4.1-2.2.1c-.7 0-.7-.6 0-.5h2v-1a63 63 0 0 0 3.9-15.6q-.9 4-2.2 7.8l-2.5.1-4.9 6.9-.1.1a56 56 0 0 1-7.5 7.2" id="path90"/><path d="M303.8 377.8h.5a20 20 0 0 0-3.4 12.4l-.4.1q-.9-5.6 3.3-12.5" id="path91"/><path d="M297 378.6q1.8-.2 3.4-.6-.2.3.3.6l1.4-.7-1.2 1.4c-.3.4.2.8.6.5l1.2-1.5q-1.4 2.8-2.3 5.5l-.3 1.9-.1 4.6h-.2V385c0-.6-.6-.4-.6 0l.2 5.4h-.3V385c0-.6-.7-.4-.7 0l.2 5.4h-.3v-5.1c0-.5-.7-.3-.6 0l-.1 2.2q-.5-4.5-.5-8.9" id="path92"/><path d="m296 379.2.5-.3q0 6.4 1.2 11.6h-.4q-1-5.2-1.4-11.3" id="path93"/><path d="m295.2 379.6.4-.1q0 5.7 1.3 11h-.3q-1.6-4.9-1.4-11" id="path94"/><path d="M305.6 388.1c-.3-.4.3-1 .7-.5q2.4 3.3 5.9 4.7c2.3.9 5 1 7.7 1.2-4.6.8-7.8 0-10.1-1.3l-1.5-1.3-.6-.5h-.1z" id="path95"/><path d="M315.8 380.5c1 1.4 2.1 1.5 3.5 1.2q3-.8-.3-1.7-1.7-.6-3.5-.5-2.2-.1-3.8 1.3a28 28 0 0 0-5.4 5.8l1.4 1.7a29 29 0 0 1 5.7-7.2c.6-.5 1.8-1.6 2.4-.6" id="path96"/><path d="m315.2 380.8.4.5q.2.3-.1.6a42 42 0 0 0-4 9.5q-1.9-1-3.4-2.6a29 29 0 0 1 6.5-8q.3-.3.6 0" id="path97"/><path d="m316.6 381.9.8.3c.7.3.5.3.5 1q-.3 4.7-1.5 8.7c-.3.8-.1.7-1 .7q-1.3-.1-2.5-.5c-.8-.4-.9-.3-.6-1.1q1.3-4.7 3.4-8.6c.3-.5.3-.7.9-.5" id="path98"/><path d="m318.7 382.4 1-.2q.5 0 .6.5a22 22 0 0 1-1 9.5q-.2.7-.8.6h-1.2q-.6 0-.3-.8 1.4-4.4 1.4-9 0-.4.3-.6" id="path99"/></g><path d="M305 377.9q4.8 0 9.5 1l-1.6.5a4 4 0 0 0-1.8 1q-3 2.6-6.2 7.1-.3.8.4 1.2l1.8 2a23 23 0 0 0-3.3 4.5L302 399l-.5-7.9c-.2-4.4 0-8.8 3.5-13.2" fill="#fff" id="path100"/><g fill="#f5f6f6" id="g126"><path d="m313.7 373.1 4.5-3 1 1.7z" id="path101"/><path d="M309.8 373.6h1.4l6.3-3.8-2.5-.9q-2 3-5.2 4.7" id="path102"/><path d="M300.1 361.9c4.1-.2 8.1-.8 11.2-2.5 0 0-.3 9.3 6.6 9.8q-1.1-3.6-1-8.2c.1-2.6.8-4.7-.3-7a8 8 0 0 0-2.4-3q-3.4-2.7-7.8-1.6c-4.4 1.5-7 7.1-6.3 12.5" id="path103"/><path d="M268.3 422q.7-1 1.2-2.5h-1.7z" id="path104"/><path d="m266.7 423 1.2-.5-.6-3.1h-.6z" id="path105"/><path d="M264.9 423h1.3v-3.7h-.2a7 7 0 0 0-1.1 3.7" id="path106"/><path d="M263 422.3a2 2 0 0 0 1.3.6q.3-1.6 1-3.7l-.5-.1a13 13 0 0 0-1.7 3.2" id="path107"/><path d="m263.4 418.9-.8.6v2.1l1.7-2.6h-.2z" id="path108"/><path d="m261 420.2 1.5-1.2.1-.3-1.7-.4z" id="path109"/><path d="m259.5 420.7 1-.2-.2-2.3h-.1l-.4-.2z" id="path110"/><path d="M257.3 420.4h.2l1.5.3.2-2.9-.4-.2z" id="path111"/><path d="M255.6 419q.3.7 1.2 1.2l1.5-2.8h-.1l-.6-.3z" id="path112"/><path d="M255.4 416.6v1.8l1.7-1.6-.2-.1z" id="path113"/><path d="M274 419.7h.7v4l-.7.1z" id="path114"/><path d="M272.6 419.8h.7q.3 2 .3 4l-1.3.2q0-2 .3-4.2" id="path115"/><path d="m275.4 419.7.2 3.7h-.3z" id="path116"/><path d="m271.7 419.8-1.2 3.3q.4.7 1.2.8 0-2 .3-4.1z" id="path117"/><path d="m270 419.8-.5.8q.2 1 .6 1.9l1-2.7z" id="path118"/><path d="M282.9 418.9h.6l1.1 2.7-1 .7z" id="path119"/><path d="M282 419h.4l.7 3.5-1 .2z" id="path120"/><path d="M281 419.1h.4v3.6l-1.4-.2z" id="path121"/><path d="m286.2 418.5.2.8-1.4 1.8-.8-2.4z" id="path122"/><path d="m279.6 419.3-1 2.6.8.4.9-3.1z" id="path123"/><path d="m278 421.2.2.2.7-2h-1z" id="path124"/><path d="M251.8 411.3c2.5 2.6 4.1 4.2 6.2 5.3s4.6 1.6 8.7 2c5.3.7 10.4.1 15.6-.5 4.5-.4 6.9-.8 11-3l.5.2a23 23 0 0 1-11.4 3.3c-5.2.6-10.4 1.2-15.8.6-4-.5-6.6-1-8.8-2.2a24 24 0 0 1-6.3-5.4q-.2 0 0-.4z" id="path125"/><path d="M259.2 389.6q1.5 1.6 2.6 3.4 2.3 4.2-.7 8.1c-1.7 2-3.4 2.5-5.5 4l-4.5 3.4-.7-.7q-.1-.4-.5-.6l1.2-2 1.8-2.8a73 73 0 0 0 3.7-7.8l1.4-4.5z" id="path126"/></g><path d="M260.8 417.3c.9-2.6 1.7-5.9 1.9-8.3s-.7-5-1.3-7.5l.6-.8.5-.8.4-.8.2-.9.1-.8v-1.7l-.1-.8-.3-.8-.9-1.9-1-1.4-1.4-1.6a2 2 0 0 0 .2-1.8l1-1.9.7-2.2.1-2.3q7.6 4 13 10l.4 13.3h-1.2l-.2.2h-.2l-.2.2-.2.2-.1.2v1l-.2.1h-.2l-.1.2-.2.2-.2.2-.2.3v1l.1.1.1.2h.1l.6.4q-.2 0-.3.3l-.1.1v.2l-.1.2v.6l.2.3.2.3.8.4-.2.3v.6l.2.1v.2l.3.2 1.6.5.2 5.3h-7.2a56 56 0 0 1-7.4-1.2m14.8 6.6.6 18-5.2 1.7c-9.6 2.8-16.4 2-22.7 1.2 2.4-8.5 7.1-15.5 10.7-23.2l.2-.4h.2l1.1-.2.5-.2.7-.4.4-.3v1.8l.5.8v-.1l.3.2q.6.5 1.3.6h.5l1.5.2h.5l.3-.1 1-.4v.2l1-1.4.2-.4.2.6.3.6.6 1.1v-.1q.3 0 .4.3l.7.4h.4l.4.1 1.3-.1h.6v-.1l.7-.2.5-.1zm1.7-21.4-.3-8q3.1 4.5 5 10l-2.8-1.3q-.7-.5-1.6-.7zm6.7 8.2 1.9 6.6-8 .9-.2-4.7h1.8q.6 0 1-.2.4 0 .7-.3a14 14 0 0 0 2.6-2.3zm2.5 9.2 1 4a59 59 0 0 0-5.2 6l-.4.7-.3.6v.3l-.1.3v1.1l1.9 6-.3.4-4.4 1.7-.7-19 .4.4.7.3.3.1.4.2h.7l1 .2h.5l1.3-.3h.4v-.1l.3-.2.8-.6.4-.3.2-.3z" fill="#fff" id="path127"/><path d="M212.5 473q0-1.2.3-2.3c.5-3.2.7-4.4-.2-6.2-.6-1.3 0-1.8 1-3.1q.9-1 1.8-2.6a51 51 0 0 0 5.2-15.1c.4-1.4 1-1.5 1.6-1.5q3.7-.4 6-.3c.8 0 .9.7 1.7 1.3a24 24 0 0 0 8 5c4 1.4 8.2 3.5 11.7 5.4v.5l-1 1-.6.5.9 8-1.4.4-1.8.7-.7.3-.9.2c-2.5-1.6-5.2-3-7-5.1-2.9-3.3-5.1-7.5-9.5-10.3-.3-.2-.8-.8-1.5-.6-.8.2-1.8 1.5-2.9 3-1.3 1.7-2.6 3.8-2.4 9.7 0 1.2.4 2.5-1.9 3-1 .4-1.3 1.5-1.5 2.3 0 .6.6 1 .7 1.5q.5 1.3.5 2.6c0 1 .8 1.3 1.1 2.3q-2.4 3.9-6.6 6.2c0-2.4-.6-4.4-.6-6.8" fill="#fff" id="path128"/><path d="M217.2 553.7s3.4-3.2 5.9-2.3c2.4.8 7.1 2 7.1 2s1.5.5 4.8-1q.6-.3 1-.3c1.7.4 9.5 3.2 13.7 2.8 7.8-.3 4.8-1.9 12.7-1.2q2.6.2 5 .7c.9-.6 1.7-2.5 2-4 .4-2.3-.2-4.6-.4-7q.2-.2.4 0c.4 2 1 5.2.7 7-.4.3 27.5 4.1 48.9-12a27 27 0 0 0 18.5 6.8c1.8 0 3.5-.3 5.2.3 2.5.8 1.9 4.7-1.2 5.2-1.8.2-7.7-3.7-10.4 0-.4 0 2.7 0 2.1.7-.5.2-3.4.4-4 2.4.5-.3 2.7-1 4.2-.9.8 0-2.2 1.2-1.7 2.5.4-.4 2.5-1 3.7-.5 2.4.8 3.4 1.5 6 1.4q4.2-.1 6.4-2.5 2.4-2.6 4.5-5.6c.7-1 0-2-.7-2.6-2.5-1.8-3-3-2.5-6.6.5-4.4-.7-9.6-2.4-12.9 0-.2.5-.4.5-.2 2.6 4.3 2.6 10.4 2.8 12.5a34 34 0 0 0 19.3 3.2c5.3-1 10.8-2.7 13.8-8.4a12 12 0 0 0 1-8.8l-2.8-7.3-1.4-2.5-2.9-5c-3.8-7.6-4.5-19 4.6-18.7 2 0 4.8 1.7 5.1 3.5-.5-.2-4.7 1.1-4.3 4 .3 3.1 4.4 4.5 5 8.3q1.2-2 2-5c.3-1.3.5-2 .2-3.4a9 9 0 0 0-2.2-4.2c-.1-.1.4-.4.5-.3 3.4 3.3 2.6 7.8.5 12.2 2.3-2.7 2.8-8.7 1.9-11.2-1-2.4-2.5-3.4-4.3-4.9-.1 0 .2-.5.3-.4 2.9 2.1 6.8 4.8 4 14 0 .5-1 2-.7 1.6q1.6-1.5 2.3-3.3c1-2.3 0-8-2-11s-6.8-4-8.5-4c-1.6 0-17.7.2-12 20 3.7 12.7 5 12.4 5.8 16 .5 2.8-1.4 8-8.5 7.8q-5.2-.3-9.9-2.8c-5.1-2.4-10-6.7-15.6-8.6a51 51 0 0 0-38-1.7c-.7.2.2 1.6-.2 2-2 2-4.5 3.1-6.5 4.4l-1.5 1.2c-1.2 1.7-2 4-2.2 6-.5 3-2.8 3.9-5 5 1.1 1 1.6 1 3 1.6a23 23 0 0 1-10.2 1.4 32 32 0 0 1-14.6 1.5c-1-.1.9-1.5 1.6-2.4-3.4-.4-4.7-2.2-5.4-4.3-.7-2.2.9-4.6 1-5.4-1.6.4-1.8 1.8-3.2 2.9-.8.6-.9-.3-.4-1 .6-1.3 1.4-2.7 2.6-2.8 0-.4-.6-1.6-1.2-1.1-1.3.7-1.1 1.7-2.3 2.7q-1.2 1-.8-.4.6-1.5 1.5-2.6c.2-.4 1-.7.7-1.1q-.3-.6-.8-.6t-.8.3q-1.1.9-2.4 1.6-1 .3-.3-.9c.4-.8 2.1-1.5 2.3-2.1 0-.4-1.7-.3-2.1-.4-.4 0-4.6 0-1.3-1.1a7 7 0 0 1 5.8 1.2c1.5 1 2.8 3 3.5 4.5a27 27 0 0 1 8.2-5.3c-.6-3.6-1.2-9-3.6-12.5-2-2.9-5.2-5-8.5-5.8q-3.1-.9-6.4-.1-3.6 1-6.5 3.7a30 30 0 0 0-4.1 6c-.7 1.6-1.2 3.7-1.2 8.2 0 3.1 1.6 6 3 9 1.3 3.1 2.6 5.6 4.7 8.2 1 1.2 3.1 2.2 4.3 2.9.5 0 .3-1.3 1-1.2s.5 1 .4 1.4c-.2 1.1-.7 1.9-1 3.4-10.4-1.4-15.5-.7-16.3.1-11-4.5-18-2.3-21.6.2.8.3 2.8 0 2.8.3-2.4 1.3-4 2.4-4.4 4.8 1.4-.8 3.2-2.1 3.6-1.8q.3 0 0 .4l-.6.8c-.5 1-1 2.3-.6 3.4m59.2-41.4c5 4.1 2.7 9.3-.9 11.9-2.2 1.6 2.6 5.3 4.6.5 1.5-3.5 6.9-6.4 11.4-9 2-1.2 4.2-2.5 7-1.5 3 1 4.3 3.1 3.9 5-.2.5-.8.5-1.2 1.1-3 2.1-6.8 3.1-8.2 7.5l-2.8 2.4 1.7 2.2c-1 1.8-3.2 2.8-5.4 3.7l2.7 1.6a15 15 0 0 1-8.5.7 30 30 0 0 1-13.8 1.8l1.8-2.2c-8.4-1.4-9.3-9.6 4.7-15.9 3.1-1.4 3.8-6.4 3-9.8m14-4.2q0 2.5.3 5l-1.6-.4a15 15 0 0 1-10.1 9.2l.2-1.4q6.7-2.4 8.7-8.2l-1.4-.5zm22 35.3c.1 2.3 1.4 5.3 3.3 6.5 1.1.6.7 1.8 0 2.7-1.2 1.4-2.8 1.4-4.5 1.7-2 .3-4.3.6-5.9.3-6-1-9-.5-12.5 2.2 0-2.2 1.9-3.7 3.9-5.1q-4 .2-6.9 2.2c.4-3.4 3-4.2 6.6-3.9a7 7 0 0 1 8.3.1l.4-.4-3.8-1.6q6-1.9 11.1-4.7m-68.8-13.9q1.6 5 5 9c-2.7.7-6.5 2.7-9.3 0s-6.8-5.3-11.2-9.7c-2 2.2-3.7 1.3-5.9.2q-3-1.7-6.2-.4l1.6-2.6c-2 .1-4 .1-5.8 2 .2-1.3 1-2.2 3.4-3.3q-.8-.4-3.2 0c4-2.4 10-3.8 15.4-3.1 2.5.3 3.5 1 5.6 2.4q5.4 3.1 10.6 5.5m44-10.1 1.3-1.1q1.9-1.6 4-2.8l1.8-.5h1.8q.8.2 1.5.7.4.4.6 1 1.3.3 2 .8.9.5 1.1 1.3l-.1.3h-.4q-.1-.8-.9-1.2-.6-.4-1.6-.7a74 74 0 0 0-7.5 7.5q-.2-.2 0-.3a47 47 0 0 1 7-7.4q0-.5-.5-.9t-1.3-.6q-.7-.1-1.6 0-1 0-1.7.5a21 21 0 0 0-3.9 2.7l-1.3 1q-.1.2-.4 0zm-9.6 10.3v.6q2.1.3 4 0c1.3 0 2.7-1.3 3.7-2.7q.3-.5-.4-.3-.9.5-1.7.6-.6 0-.8-.3-.6-.5-1.7-.3-1 .4-1 1.2-.2.8.3 1.3-1.2.1-2.4-.1m3-1.1.2.2.5.3h.2v-.4l-.1-.2-.2-.2-.1-.1-.2-.2v-.4h.4l.2.1.2.2h.2l.1.2.1.2v1l-.1.3-.5.2h-.6l-.2-.2-.2-.1-.1-.2-.1-.3h-.1v-.7h.2l.2.1z" fill="#ffdc00" id="path129"/><path d="M238 383.3c1.6 1.4 2.5 2.6 5 3.1 2.7.6 3.8 0 4.5-1.5h-.2a6 6 0 0 1-2.7-2.2l-.9-1.5q-2.4 1.5-5.7 2.1" fill="#f5f6f6" id="path130"/><path d="M282 432.7c-.8-2 3.8-6.4 8.4-11.2l.2-.1.8.6a100 100 0 0 0 7.7 5l1 .5 4.4 2.2a80 80 0 0 0-9.8 4.7c-1.2.4 0 2 .6 3.4l2.8 7a23 23 0 0 0-13-2z" fill="#f5e6e6" id="path131"/><path d="M304.2 343.1c.1-.2 10.2-3.3 14.7 3.8 1 1.5 2 4 2.2 5.7.4 5.3-.7 6.5-.4 9q.2 3.7 2.8 3.8c2.2 0 3.3-2 4.8-4.2 1-1.3 1.6-2.8 4.6-2.7 2.8.1 2.3 5 4.6 5.1q1.5.8 2.4-.8c-.1 1.8-.7 3.6-2.6 3.8-1 0-1.8 0-2.2-1.2q-1.3-3-3.4-2.2a11 11 0 0 0-3.2 3.2c-.9 1.1-1.4 2.4-2.6 3.3q-1.4 1-3.2.9l-.1-1.4-.5.1v1.3l-.6-.2.1-1.4h-.5l-.1 1.3-1-.4q0-.7.3-1.3l-.4-.3q-.4.6-.4 1.3l-.5-.4q0-.6.7-1l-.4-.6q-.7.6-.7 1.1-.4-.4-.6-1l.9-.8-.2-.5-.9.9-.2-.9.9-.8-.1-.8-.9.8v-1.4l.8-.4v-.7l-.8.5v-.2l.1-2.9q.4-2.6.1-5a10 10 0 0 0-1.7-3.3q.6-.7.8-1.5l-.5-.3q0 .8-.6 1.3l-.4-.4q1-1.5 1.1-3.1h-.5a6 6 0 0 1-1 2.8q0-.3-.4-.4c.6-1.6.8-2.8.8-4.6h-.6v2.5l-.6 1.7-.3-.2v-1.3h-.4v1l-.5-.3v-1.2q-.4-.4-.5.2v.7l-.6-.2-.2-1.3q0-.3-.2-.5-.1-.1-.3.4v1.2l-.7-.2V347q0-.6-.3-.8-.3-.1-.5.1l.3.8v1.5h-.6v-1.2l-.4-1.7c-.2-.4-.6-.7-.6 0l.5 1.6v1.2h-.7l-.1-2.3q-.4-1.2-1.1-2.3l-.3-.3q-.3 0-.4.3c.5.9 1.3 2 1.4 3v1.6l-1.3.2q.3-3.4-2-5.5" fill="#f5f6f6" id="path132"/><path d="M270.9 365.5c-.8 0-.8-1.9 0-1.7h1.9c-.6.5-1.3 1 .1 1.7zm0 2 6.3-.2c.9 0 1-1.3 0-1.2h-6.4c-1 0-.6 1.3 0 1.3m.6.8 4.9-.2c2-.1.3 1.5-1 1.6l-3.3.2c-1.5 0-1.5-1.6-.6-1.6m0-6.4c-.7 0-.9 1.3 0 1.3h1.2c.8 0 1-1.3 0-1.3zm1.8 3.6h3.8c-.5-.8-.5-1.2-1.4-.7l-1.4.5zm21.3 14.4-3.4 1.7c-3.9-4.8-8.5-10.1-10.9-14.4-.3-2.8-.4-4.3-3-5.7-2-1-3 .8-4.2 2.7-.6 1 .5.6 2 .1q1-.2 1.7-.6.9-.4.7.1l-.5.5q.7.1.6 1.5 2 .6 0 2 .6 1.8-1.4 2.3h.5c2.8 6.8 5.3 13 9.2 18 2.2 2.7 8.4 2.3 10.2 2.7q-1.6-4.9-1.5-10.9m13 11.2q3.8 3.7 9.4 3.3a47 47 0 0 1-10 12 9 9 0 0 1-5.2 2.1q-8.2 1.4-18.2 1.7l-2 1.9c-1.1.8-1.3.9-2.6 1-4.3 0-6.5-1.2-4.8-2q.2-.2-.1-.5c-1 .7-2.6-1.3-.6-1.6.2 0 .2-.7 0-.7-2.2.4-1.4-2.4.1-1.5q.5.1.2-.2c-2.4-2.7 3.1-1.8 5.5-1 1.2.3.9-.4.4-.5l-1.2-.3c-1-.2-1.5 0-1.6-1.1q-.1-1.5 2.1-.1l4.8 2.4c2.6-.1 4.3-.6 6.7-1.5l11.7-4.6q1.5-4.6 5.5-8.8m-16.4 30.7c-.1 2.8-2.5 4.7-4.3 6.8a8 8 0 0 0-1.7 7.8q1.1 3.3 2.7 6.2 2.4 0 4.3.3l-.1-1.3a6 6 0 0 0-1.9-3.8q-.8-.8-1.3-1.8-.3-1 .1-2.1c.6-1.3 2.1-1.8 3.3-2.4q3.8-1.7 7.6-4.1l-.8-.5a93 93 0 0 1-7.7-5zm-2.8 24c.8 2.4 2.4 4 3.8 6.4 1.5 2.5 1.6 6 1.8 8.9.6 3.2-1 5.9-3.2 8.4l.2.2 1.4 1 .3.3.5.4.8-1.1c.7-2.9 1.7-3.2 2.6-4.7 1.5-2 0-5.7-.2-8.5l-1.1-10.5q-3.7-1.3-7-.8m-4.8 26.8q2.8.3 5.6-.1l-3-1.4-1.7 1zm4.8-4q2.3 1.3 4.3 3c-.7 1.1-.8 1.2-2.1 1.2a17 17 0 0 0-5-2.6l1.6-2z" fill="#fff" id="path133"/><path d="m277.4 369.4 9 14c.9 1.4 1.3 2.4 3 3q2.5 1 5.8.4l1 4c-2-.4-8 0-10.3-2.6-4-5.2-6.4-11.3-9.2-18h-.5q.8-.4 1.2-.8m23 33.5c6.3-1.5 11-4 14.5-8.5h2.1a47 47 0 0 1-10 12 9 9 0 0 1-5.2 2.1q-8.1 1.4-18.2 1.7l-2 1.9c-1.1.8-1.3 1-2.6 1l-1.1-.1 2.6-2c1.2-.8 1.3-1 1.6-2.4l.3-2.7q1.1 1.5 1.2 3.5c8-1.1 16.4-1.1 23.3-6.3-2.4.2-4.2-.2-6.5-.2" fill="#f5e6e6" id="path134"/><path d="M306.6 409.4c1.7-2 4-3.2 6.4-4.5q1.4-.6 2.8-.1c1.2.3.9 2 .6 2.2-.6.5-1.8.5-2.6.7-1 .4-2 1.3-3 1.7l-2 1.4zm-13.4 13.2q3.3 2.3 7.1 4.5l1.4-2.7-.7-.3 4.7-10.9-1.5-.4-7 8.6-2-1.4zm13 7.3h.2l-.4 1.9 7.7-.2v2.1q3 .1 6-.2l-3-14.2.3 6.4-5.6.3.3-7.9zm16 3 .6-.2.7 1.1q3.7-.2 8.7-2.6v-.2c.4-.8.2-.7-.5-.9l-1-.2c-1.4-.4-2.4-.6-3.3-1.5a20 20 0 0 1-3.4-4.3l-2.2.7L318 412q-.5 1-.5 2.8c.5 7.2 2.7 11.6 4.4 16.8z" fill="#fff" id="path135"/><path d="M321 357.8q-1.8 1.5-2.4 3.4c-.5 2-.4 5.2.9 6.7 2.4 2.7 5.5-.3 6.7-2.2 1-1.7 2.7-3.5 4.8-4 1-.4 2.4-.1 3.3.6 1.3 1 1.3 3.3 2.4 3.6.8.3 1.6-.4 2-1q.5-.5.7-1.4-.8.6-1.8.2c-2.4-.3-1.9-5-4.7-5.2-3 0-3.7 1.4-4.6 2.7-1.5 2.3-2.6 4.2-4.8 4.3q-2.6-.2-2.8-3.9-.2-1.9.3-3.8m-13.8-15.4q1 1 1.7 2.2.3-.6 0-1.4l-.6-.9zm2.6-.1h1l.2 1.4c0 .3 0 1-.2 1zm3.6.5.8.3.3 1.6q0 .8-.3 1.3-.2-1.9-.8-3.2m4.4 15.5v-1l1.8-1.6c.5-.4.6-.3.6-1v-.5c.3.7.4.7.1 1.5-.5 1.6-1 2-2.5 2.6m-.1-3.3-.2-.3c.7-1.3 1.4-2 2.6-3.1.1.7.2.7-.2 1.3-.7 1.2-1 1.5-2.2 2.1m-.7-1.4-.5-.8q1.4-1.2 2.3-4 .3-.3.4 0c-.5 2.6-1 3.6-2.2 4.8m0-7.7q.3 2-.2 3.8.9-1.2 1.3-2.8-.3-1.1-1-1" fill="#fff" id="path136"/><path d="m300 377 2-1.4q0 .8-.3 1.4zm2.4-.1q1.5 0 2.9.2c.5-1.1.4-1.4.4-2.6-2.9.1-2.4-.3-3.3 2.4m3.8.5c11.6 1 23.8 4 34.8 7.1 4-5.9 8-10 12.4-13.2a68 68 0 0 0-16 0l-11 1c-3.7.2-6.8.4-10.5 1.3q-2 .6-4 .8c-1.4.2-4 0-5.4.1q0 1.5-.3 2.9m16.3 5a42 42 0 0 1-2.3 17.5c11.1 16.8 16.7 18.8 20.1 19 4 0 4.5-2.1 6.5-4 .6-.5 2 .6 2.5 0 1.8-2.3 2.5-6.6 4.8-8q2.5-1.6 5-1c1.3.3 2.6-.8 3.7-2.2 1.6-2 .2-1.7-.2-2.6-.8-1.5.8-4.6 2-5.4 8.2-5.6 9.6-.5 11.5-13.5-5.3 1.3-10.5 2.7-15.8 3-9 .2-3.9-4.8-1.2-8.4 3.8-5.3-2.9-7.8-7.3-3.3-4.2 4.2-8 8.2-11.2 13-4.3-3.6-10.6-4.8-18-4m37.3-5.6 14.9 5.3-12 2.4h-1.9l-1.3.1h-1.3l-.5-.1-.5-.1-.4-.1-.3-.1-.3-.2-.2-.1-.1-.2-.1-.1v-.2l-.1-.2v-.6l.2-.3.1-.3.3-.7.7-1 2.5-3.2.2-.3" fill="#00a9df" id="path137"/><path d="m336.7 388.2 37.8 1.4c-1.6 3.5-3.9 2.2-9.3 5.7l-.2.1zm7.4 29.6 2.7-2.8c.4-.4 1.2 0 1.9.1l-21-13.4 16.2 16.1zm10-11q2.5-1.4 5-.9c1.3.3 2.6-.8 3.7-2.2.9-1.1.8-1.5.6-1.8l-1.3-.9-30.4-8.4z" fill="#0092cd" id="path138"/><path d="M270 338.7h3.3v-3.6h1.5v3.6h2.8v1.2h-2.8v2.5h4v1.1h-4l.2 4.7 2.5 1v1.2l-2.5-1v.5l.4 11-.3.2-.3.2-.9 1-.4-12.3v-1.3l-2.3-1v-1.1l2.2 1v-4h-4.6v-1.2h4.6v-2.5H270zm5.7 31.9 1.1 32-.1.1-.2.3-.1.4q0 .6.2 1h-1.2l-1.2-34zm1.5 42.8 3 88.4h1l-1.4 11.4-2.2-11.4h1.2l-3.1-88.5h.4l.6.1zm-3-43v-.2h.3z" fill="#ffdc00" id="path139"/><path d="M296.2 435.3c1.6-1.8 6-2.9 9.5-4.4l-.2 1.4h1l6.7-.2v2.1h4.3a30 30 0 0 0 5.1-.9l.7 1 4-.6 1.2-.4-.2.8a23 23 0 0 1-12.7 18.8c-5.6 2.7-6.8 2.5-15.6 3.6v-.4a27 27 0 0 0-1.1-10.8l-.4-1c-1.3-3-1.7-5.7-2.3-9" fill="#ac4882" id="path140"/><path d="M352.2 508.9v.1zm17.5-52.7-1 2.7a109 109 0 0 1-8.9 16.5c-2 1.7-.5 7 .4 11.3q.4 1.4 1.2 2.6 1 1.3 1.6 3c.6 2-.3 1.8-1.7 3.1a31 31 0 0 0-9 13c-1.5-.6-3-.9-3.6.4a27 27 0 0 1 4.6-7.7l4.4-5.2c1.4-1.5 2.5-3.1 1.7-5.4a90 90 0 0 0-5.4-12.9c-.4-1-.7-1.9.2-3.2 4-5.8 8.5-11.2 10-18h-1.6 6.5v-.1zm-1.4-8.2h.8l2-.2h.2l-.2.6q.3 3-.4 5l-.3-1.2-.2-.3-.9-2.2-.6-1.1zm-32.7-14.7-.5 1.9-1.4 6q2.4 1 4.7 1.6l1.3.3-.4-1.6-.6-2.2-.7-1.8-1.7-3zm10.6 10.5-1.7 3.6c1.8.8 3.8 1.2 6.8.7h.3l-.7-1-.3-1.2.2-1.3.6-1 1-.7.7-.2.6-.1h.5l1 .4 1 .8.3.7.3 1v.5l1-.5-1.4-2.2a34 34 0 0 0-7.3-12.5q-2.7-2.6-5.8-5l-4.2 1.3c6.3 5.3 11 10.8 12.1 16.6-1.7.6-3.3.2-5 .1m1.7-19c4 .2 7.9.6 10.6 2.2 8.8 5.3 8.6 10.4 10.2 15.5l-1.3.3-.2.3h-.1l-1.2-.2h-.6l-1.1.5-.9.8-.4 1.1v1.3l.4 1.1.1.2c-2.3.8-4.5 1.5-6.7-.2q1.5-1.2 1.9-3.4 2.4.4 4.3-.3c-2.1-7-6.5-13.6-15-19.2M369 446l-.2 1.4 2.7-.1a8 8 0 0 0 .2-4.3l-1.6.2q.4 1.3-1.1 2.8m-29.3 2c-2.4 2.5-2.6 5.3-2 8.6h.9c0-2.3.3-1.5.7-.2h1v-2q.4-.4.7 0c.1.2-.2 1 0 2l1.7.4q-.5-2-.5-3.1 0-1.5.6-.2l.5 3.3h1.2l-1.3-8.5q-1.7.9-3.5-.3m4 .1 1.5 8.8 1-.2c.3-4.2.5-5.3-2.5-8.6m12.5 1.7 2 5c.3.7-.2 1.1-.6.2l-2.2-5c-.3-.4.3-1.4.8-.2m-4.2-1.2q-1.2 3-1 7.6h3.6l-.1-1.3c-.1-.7.6-.7.6 0l-.1 1.4 1.2-.1-.8-3.2q.1-1 .7-.4c.4.4.6 3 .7 3.6a6 6 0 0 0 2.6-.2c-.8-5.4-2.5-6.6-3.7-7.6h-.4l-.3.1-1.2.3-1.2-.2zm12 .2c-1 2.4-1 4.7-1.2 7h3.1l.1-.8c0-.5.6-.5.6 0v.9h.7v-.7q.5-.7.7.1v.5h.6q-.3-2-.4-4.1.1-1.4.6-.1.4 2 .4 4.2l1.1-.1c0-3.4-.8-4-1.4-5.8l-.9-1.4h-.4l-.4.3-1.2.3-1.2-.2-.3-.2zM334 429l2.2-.9a27 27 0 0 1 8.5 14.6h-1.2l-.2-.2-.4-.2-1.2-.2h-.6l-1.1.5-.9.9-.4 1v1.3l.4 1.2.2.1-.1.2c-2.6.9-4.8.2-6.6-1.1zm-47.7 30.2-4.8 12.4 1 .1 5-11.3z" fill="#f5f6f6" id="path141"/><path d="M238.8 377.4q1.2-1.3 3.5-1v-.6q.7.6 1.2 1.6c1.5 2.7 3.1 5.4 5.4 6.2l1.1 1q-1.5.3-2.9-.4a8 8 0 0 1-3.5-4.6c-.5-1.3-.8-1.6-1.3-1.9q-1.4-.7-3.5-.3m6.7-4.4q1.5.9 2.1 2.5l.2 1.1v.4l.4 4.5.2.5.9 1.3c.4.3 1.3 1.2 1.5 1q-.6-.8-.8-1.5 0-1.5.2-2.9l1-2.5c.6-1.2.8-1.4-.2-2.2-2-1.6-3.2-2.8-5.5-2.2m10-1.1c2.7 4.6 2.7 7.4 2.3 10.5-.3 1.7-1.2 3.2-2.8 3.6-.6-.8-1.3-1.5-1.2-2.9l.4-2c.4-1-.4-1-.6 0-.2 1.2-.7 2.4.2 4.2l.6.8-1-.2q-1.1-1.5-1-3.6a10 10 0 0 1 1.4-3.4 5 5 0 0 0 .5-2.3v-1c0-.2-.6 0-.6.2l-.1.9c-.3 1.6-1.3 3-1.8 4.5a5 5 0 0 0 .3 3.7c-.7-.7-1.6-1.2-1.7-3.2 0-1.8 2-6.7 5-9.8m-9 12.5-1-.7a9 9 0 0 1-1.8-2.5q-1.3.9-2.9 1.4a8 8 0 0 0 5.7 1.8m10.4-11q1-.6 2.2-1 1.4-.1 2.7.2c1.4.5 2.7 1.5 4.1 1.8 1.9.3 3.9-.1 5.8-.2q-1.1 1.3-2.8 1.6-3 .6-5.8.1-.7.1-.3.6l-5.2-1.4zm6.1 3.1h.8l-.4.1zm8-.8 3 1.5v3c-1.4-.2-3.3-1.4-4.7-2.2q1-1 1.8-2.3m5.5 2.5 1.6.5-1 .6-.6.4z" fill="#fff" id="path142"/><g fill="#f5f6f6" id="g145"><path d="M254.4 376.2q1.6.9 1 3.3-1 1.4-1 3.1.2 2.1 1.2 3.2l-.6.2c-.6-.8-1.3-1.5-1.2-2.9l.4-2c.4-1-.4-1-.6 0-.2 1.2-.7 2.4.2 4.2l.6.8-1-.2q-1.1-1.5-1-3.6a10 10 0 0 1 1.4-3.4 5 5 0 0 0 .5-2.3z" id="path143"/><path d="M239.8 374.8a7 7 0 0 1 5.8-.4c1.5.5 1.7 1.1 1.7 2.6q-.2 4.7 1.6 6.6c-2.3-.8-3.9-3.5-5.4-6.2q-.7-1.4-2-2.1z" id="path144"/><path d="M363.2 428.5a13 13 0 0 1 4-4.6c3.3-2.8 8-5.3 13.3-4 6 1.4 11.4 5.1 14 10.6a24 24 0 0 1 .7 12.8c-1.2 8.1-6 15.7-6 23.9-.1 4.5 2 6 3.5 8.1-4.7 1-11.1-1.8-12.8-6.2-3.3-6.3-2.5-13-.7-19.2 2.2-7.6 3-19-9.2-20.5-1.4-.2-2.8.4-4.1.8q-1.4-1-2.7-1.7" id="path145"/></g><path d="M359.2 426.5c3 1.7 6.2 2.6 8.9 6 2.7 3.5 3.4 7 3.6 10l-2.4.1-.4-1.2-1-3.8-.5-1.5-.4-1-.5-1-.3-.5-.3-.5-.7-1-.4-.5-.4-.5-.5-.5-.5-.5-.5-.5-.6-.5-.6-.5-.7-.5-2.3-1.5z" fill="#fff" id="path146"/><g fill="#f5f6f6" id="g149"><path d="M365.9 443.3a2.6 2.6 0 0 1 0 5.3 2.6 2.6 0 0 1 0-5.3" id="path147"/><path d="M353.7 443a2.6 2.6 0 0 1 0 5.3 2.6 2.6 0 0 1 0-5.2" id="path148"/><path d="M341.8 442.7a2.6 2.6 0 0 1 0 5.2 2.6 2.6 0 0 1 0-5.2" id="path149"/></g><path d="M363.2 428.5a13 13 0 0 1 4-4.6q3-2.7 7.4-4c3.2.5 6.1 1.2 8.6 3a13 13 0 0 1 5.6 12.2c-.2 4.6-1.6 8-3.6 11.2.5-3.7 1-7.6-.4-11.4-2.2-5.3-6.1-6.7-9.9-7.8q-3.5-.9-7 .5l-3.1 1.9zm15.5-9 1.8.4q4.5 1.1 8 3.6c1.5 2.3 3 4.6 3.6 7.1q1.3 5 .3 10c-1.4 6.3-4.2 12.2-6.2 18.3-.4-1.9-1-3.7 0-6.5 1.4-3 3.2-5.7 3.9-9 1-5.1 1.6-12.5-3.2-17.9-3.5-4-5.7-5-8.2-6m2 35.6a28 28 0 0 0 5 18.1c-2-2-4.4-3.7-5.8-8a15 15 0 0 1 .8-10.1m2.2-2.7c.6 6.3 1.1 12.6 5.8 20.5q-3.7-2-6-8.7a23 23 0 0 1 .2-11.8m-9.8-24c6.4 3 11.2 8 8.3 22.8 2.4-4.8 3.7-11.5 1.6-16-2.6-5.7-6.7-6.4-9.9-6.9m-29.5-2.9 3.4-.7 1.4 1 1.5 1 1.4 1.1 1.3 1.1 1.2 1.1 1.1 1.2 1 1.1 1 1.2 1 1.2.7 1.2.8 1.2.7 1.2.6 1.3.6 1.2 1 2.8-2.6.3-.9-.1-.6-.1-.3 1-1-1.7a71 71 0 0 0-3.6-7.6l-1-1.5-1-1.5-.9-1-1.1-1.2-3-2.7zm-7.2 2.2 1.8-.8 5.9 5.5 1.3 1.6.9 1 1.1 1.5.7 1 .6 1 .5 1.1.5 1 .4 1.1.5 1.7q-1 .2-1.7.1l-2.5-.2h-.5c-.8-.1-.5-.4-.7-1l-.6-2-.4-1.3-.5-1.3-.6-1.4-.8-1.4-1-1.4-1-1.5-1.2-1.5-1.4-1.5zm-.7 13.7 3.3 1-.2-.8-.6-2.1-.7-1.8-1.7-3.2-1.5 6.4zm21.4 7.2 1.8.6h1.4l1.5-.3 1.8-.5-.8 2.7-.4 2.3-.1 3h2c-1.6 6.8-6.2 12.2-10 18-1 1.3-.7 2.2-.3 3.2q3.2 6 5.4 12.9c.8 2.3-.3 4-1.7 5.4l-4.4 5.2a27 27 0 0 0-4.7 7.7c.8-1.3 2.2-1 3.8-.5-1.2 2.5-1.4 4.3-2 6q-.4.6-1 1a15 15 0 0 0-6.2 4.1h-.2l-1-.5-.6-.2-3.9-1.6-.3-.1.1-.1c3.2-3.5 6.6-6.7 9.5-10.5q2.9-3.6 4.6-7.9c1.6-4.8.6-7.3-1-8.7-4.1-3.2-8-7-11.8-10.4-12-11-8.5-13-10-15.7q-13.4 4-27.6 5.9l.2-.1.3-.3.1-.2.1-.2.1-.2v-.2l.1-.3v-1l-.2-.6-.2-.5 1.2-.7c.4 0 .6.4 1 .4.3-.1.3-.6.7-.7l1.5.4c.4 0 .3-.5.7-.6s.6.4 1 .3.8-.7 1.3-.8l1.4.1c.4 0 .7-.5 1-.6h1.2l.5-.5h1.6l1-.7 1.4.2 1-.7c.3-.1.8.2 1.2 0s.5-.8.9-1q.7-.4 1.5-.4.1-.6.7-1c.6-.4 1.1 0 1.6-.2.4-.4.2-1 .5-1.4s.7 0 1-.2.6-1 1-1.2c.4-.3 1-.2 1.3-.6s0-1 .4-1.4 1-.5 1.4-1q.5-.7.8-1.5l1-1 .4-1.9c.1-.5.4-.5.7-.9l.5-1.2 2 1 1.8.3 2-.2.5-.2-.3.3-1 1.5-.7 1.7-.3 2a17 17 0 0 0 .4 3.8l.9-.1 1-.2h1.4l.6.1 1.4.3h2.2v.2l.6-.2.8-.1.4-.1.2-3.6-.2-1.8-.6-1.4-2-2.6.7.3a12 12 0 0 0 6.7.6h.1a14 14 0 0 0-1 5v3.1h3.9v.2l1-.1 1-.1h2.6l1-.3-.4-1.9-.3-1.2-.7-2-.5-1-.5-.8-.5-.4q-.4-.4 0-.5m-28.7 21.9-3 3.3a49 49 0 0 0 9.7 15.1c1.2 1.3.8 2-.1 2.6l-1.3.5v.1q.2 1-.2 2.9c-.4 6.2-6.8 10-15.5 16.4l-4.5 3.1a51 51 0 0 1 6.8-.3h1.6l3.4.2q1.3-1.2 3.3-2.3l2-.5.6-1.6-4.5.2q.7-1.9 1.6-3.4 3.3-5.3 8.3-10.8 1.6-1.9 3-4c1.3-1.6.5-2.8 0-4-1-2.2-1.4-4.5-2.8-6.5-1.3-1.9-3.4-3-4.9-4.7-1.4-1.8-2.3-4.3-3.5-6.3" fill="#fff" id="path150"/><path d="M333.2 431.2h.2l-.2 2.8-4.5 1.3v-.2l.1-.9.2-1 .3-.2q1.9-.6 3.8-1.7zm0 3.6-.2 1.5q-2.6.5-4.8 1.2l.1-.5.2-1q2.2-.8 4.6-1.2m-.3 2.4-.1 1.7-5.3 1 .2-.4.2-.8.2-.5q2.2-1 4.8-1m-.2 2.5-.1 1.8h-5.7l.2-.4.2-.5zm-.2 2.5-.1 1.3-6.4-.1.4-.8.2-.4zm-.2 2v1.5l-7.5-.2.1-.1.4-.7.3-.4zm-.1 2.2v.1l.3.3-.3.6-.2.5-.2.3-.3.3-3.7-.7q-2.5 0-4.3-.6l.5-.6.3-.3zm-1 2.7-.2.9q0 .5-.2.8l-.5.4-.1.2a9 9 0 0 1-4.4-1.3q-1.7-1-3.4-1.5l.3-.3.2-.4 5.5.7zm-1.4 2.8-.2.5-.4.8-.8.5-.2.1-2-1.4-2.3-.8q-1.8-.8-2.8-1.8l.6-.5.1-.2q2 .7 4.5 1.9 2 .7 3.5 1m-2.1 2.4q-.3.3-.3.7v.6l-.6.2h-.3l-4-2.6-2.7-2.4.3-.2.4-.3q1.2 1 3.2 1.7 1.3.3 2.5 1.1zm-1.8 1.9-.4.6-.2.3-.2.2h-.6q-1.8-1-3.3-2.3-1.6-1.4-3-3l.9-.6.2-.1 2.8 2.2zm-2 1.6-.1.4v.3l-.3.4h-1.2q-1.1-1.6-2.7-2.7a9 9 0 0 1-3.1-3.2l.4-.2.8-.5 2.8 2.8zm-2.3 1.6-.2.4-.2.2h-.1l-1 .3-1.4-1.7q-1.5-1.4-2.8-3-.5-.8-.9-1.9l.9-.4 1.4 1.7c1 1 2.4 1.8 3.3 3zm-2 1.2-.3.5-.3.4h-.2l-.6-.1-3-3.1q-1.4-1.7-2.4-3.6l1.6-.7q.2 1.3 1.2 2.2 2.2 2 4 4.4m-2.2 1-.3.3-.2.2-.5-.1-.8-.1a28 28 0 0 1-3.5-4.6l-.8-2 .7-.3.8 1q1 1.5 2.2 2.9 1.4 1.4 2.4 2.7m-2.3.4-.1.1-.2.1-.2.3-.4.1h-1l-1.2-1.8-1.4-2.5-.8-2.7 1-.2c.5 1.2.7 2.5 1.7 3.4zm-2.5.7-.2.3-.1.1h-.9l-1.7-2.5q-.8-1-1.2-2.3-.2-1.1-.2-2.4l1-.2q.2 1.5.6 2.8.7 1.4 1.8 2.7zm-1.7.6-.4.2-.3.3-.4-.1-.7-.1h-.3l-.7-1.9-1.3-2.8-.5-1.8v-.9l1.1-.1h.2q-.2 1.1.2 2.2 1.3 2.6 3.1 5m-2.5.5-.4.2-.4.4h-.2l-.4-.2h-.5l-.7-1.7q-.8-2-1.3-4.3v-1.8l1.2-.1v1.6q.7 2 1.8 4zm-2.4.6-.1.3-.3-.1-1.1-.3-.6-1.6-.8-4-.2-2 .9-.2q0 1.2.3 2.4.8 2.8 2 5.5m-2.2.2-.3.3-.1-.1-.3-.1h-.4l-.4-1.6-.8-3.9-.2-.7q-.4-.2-.6 0 .6 3.2 1.4 6.3l-.7.5-.6-1.4-.8-2.4-.2-2.4V457l2.4-.3q.2 2.4.7 4.8zm-19.7-23.1a12 12 0 0 1-3.3 4.8c-.3.4-.4 1.3-.4 1.8l.2 1 .3.4.3.2.2.3q.6-1.2 1.4-3.7l1.1-2.1.6-1.7zm-2.6 9.2v.8q0 .3.4.5l.4.2 1-2.4 1-1.8q.7-1.5 1-3.2l-.5-1.3-.4.8-1.5 3.3-.7 2.3zm1.4 2v.7q.1.4.4.6l.5.1q1.5-3.3 2.5-7.1l-.6-1.3-.5 1.2q-.2 1.2-.8 2-1.3 1.6-1.6 3.6m1.6 2.3v.7l.2.8.2.2 1.5-3.5.8-4.2-.5-1zm.8 2.2v.7q0 .2.2.3l.6.5 2.4-6.7-.9-2-.9 4q-.6 1.7-1.4 3.2m1.4 1.7 1.4 1.5q.8-3.1 1.2-6.6l-.4-1q-1.4 3-2.2 6.1m2 2.7.3.5v.2h.5q.9-2.9.8-6.2l-.6-1.3q-.6 3.3-1 6.8m1.3 1.2.5.7.5.2h.1v.1l.2-.3c.3-1.9.2-3-.3-4.6v-.7q-.4 2.5-1 4.6" fill="#ffdc00" id="path151"/><path d="m224.1 551.7 6.1 1.7s1.5.5 4.8-1q.6-.3 1-.3c1.7.4 9.5 3.2 13.8 2.8 7.7-.3 4.7-1.9 12.6-1.2q2.6.2 5 .7c.9-.6 1.7-2.5 2-4l.1-1.6-2.9-.2c-2.6.2-7.2 1.4-10.2 1.7s-3.6 0-7.5 0-9-2.5-13.3-2c-3 .5-9.4 2-11.5 3.4m45-8.4h.3c.4 2.1 1 5.3.7 7-.4.4 27 4.2 48.2-11.3l-.6-1.6q-14.2 5-27.1 5.7c-7.6.5-14.4-.2-21.7-.4zm26.6 9h.6c2-.4 3.5-.8 5.6-.4 1.9.3 4 .9 6 .7 2.7-.3 4.4-1 6.5-4q.6.9 1.3 1.3c1.1.6.7 1.8 0 2.7-1.2 1.4-2.8 1.4-4.5 1.7-2 .3-4.3.6-5.9.3-6-1-9-.5-12.5 2.2 0-1.8 1.3-3.2 3-4.4m9.3-2.6q3.7-.5 8.4-2.7a10 10 0 0 1-1-3.6q-4.9 2.9-11 4.7zm-82.6-20.6c7.3-2.1 7.2-2.2 14.8 2.2a25 25 0 0 0 8.5 3q1.1 2.3 3 4.2c-2.8.7-6.6 2.7-9.4 0s-6.8-5.3-11.2-9.7c-2 2.1-3.6 1.3-5.7.3m64.7 4.2q-3 2.6-6.2 5h-.2a30 30 0 0 1-13.8 1.9l.4-.5 6-.6c5.3-.8 9.8-3.6 13.8-5.8m-17-10a28 28 0 0 0-6.6-11.5c-3-3-7-4.1-10.8-2.8a9.6 9.6 0 0 0-6.3 11c1.3 7.6 5.5 11.6 9.8 15.6 1.5 1.5 4 2.8 4.1 5.5.2 3-1.3 5.6-4.1 5.5-1.5 0-1.5-.4-2-1 .4-1.6 1-2.4 1.1-3.5 0-.5.2-1.3-.4-1.4s-.5 1.3-1 1.2c-1.2-.7-3.3-1.7-4.3-2.9-2.1-2.6-3.4-5-4.8-8.2-1.3-3-2.8-5.9-2.9-9 0-4.5.5-6.6 1.2-8.1.7-1.6 3-5 4.1-6.1q2.9-2.7 6.5-3.7a15 15 0 0 1 14.9 6c2.4 3.5 3 8.8 3.6 12.4zm-1.1.6q-1.2-3.1-4-5.8c-2.2-2-5-3.8-8-3.2q-1.7.4-3.3 1.3c-2.3 1.6-2.7 3.7-2.3 6.4q.8 4.4 3.2 7.7 1.4 2.4 3.6 5a9 9 0 0 0 4.1 2.8q2.4.4 2.9-.5-2.4-1.3-3-3.6l-.6-.1a8 8 0 0 1-5-4 13 13 0 0 1-2.2-6v-1c-1 0-1.7-.3.3-1a7 7 0 0 1 5.8 1.2c1.5 1 2.8 3 3.5 4.5 1-1 3-2.6 5-3.7m-3.8 12.9q0-2.5.7-4.9c.8-3.1 5-7 7.6-9.8-11.8 5.2-13 11.8-8.3 14.7m30.6-12.4 10.7-2.9c9.9-2.8 19.2-4.7 28.8-1.2 3.3 1.1 6.3 2.7 9.5 4l-1.4-4.3-2.2-.8a51 51 0 0 0-38-1.7c-.7.2.2 1.6-.2 2-2 2-4.5 3.1-6.5 4.4zm36.3 29.8q2.2-.8 4.7-1c2-.1 3.7 1.2 6.6.4 2.5-.7 5.6-3.4 8.8-5.3-1.5 1.9-2.8 4-4.4 5.5a9 9 0 0 1-6.4 2.5c-2.6.1-3.6-.6-6-1.4-1.2-.4-3.3.1-3.7.5q-.2-.6.4-1.2m17.1-22.8c6.4 2.3 14 4.7 19.8 4.8 6.7.2 9-1 10.3-4.8 1.2-4 .1-6.3-1.1-11-1.2-4.5-5.4-11.7-6.2-16.4q-1.4-7.1 1.5-11.2c2-3 5.1-3.6 8.6-3.9q1.8 0 4.1.6-.2.1-.2.4c1.8 1.5 3.3 2.5 4.3 5 .9 2.4.4 8.4-2 11.1 2.2-4.4 3-8.9-.4-12.2-.1 0-.6.2-.5.3q1.4 1.3 2.2 4.2c.3 1.3.1 2.1-.2 3.3q-.8 3-2 5c1.3-5.6 1-8.2.3-10-.3-1-1-2.6-1.5-3.3a7 7 0 0 0-4.6-2.5c-9.1-.2-8.4 11.2-4.6 18.7l2.9 5.1 1.4 2.5q1.6 4 2.7 7.3 1.3 4.6-1 8.8c-2.9 5.7-8.4 7.4-13.7 8.4a34 34 0 0 1-19.3-3.3c-.1-1.4-.2-4-.8-6.9" fill="#f6cd73" id="path152"/><path d="m272.3 528.8-2.4-.7.6-2 2.1.4q0 1-.4 2.3m-.5 3 .4-2.6-2.4-.8-.7 2.7zm-.2 2.7-1.8-.6q-.6 0-1.2-.4l.4-2 2.8.7zm1-5.2 2.5.5q.1 1.5.6 2.8l-2.5-.5-1-.2zm.4-2.8-.4 2.4 2.4.5-.2-1.7v-1zm-6.4 4.2-.5 1.8 2.2.8q0-1 .4-2zm.7-3 .7.1 1.4.5-.4 1.6-.3 1-2-.6zm.5-2-.4 1.6q.4 0 .7.2l1.4.5.7-2zm5 17-2.3 2-1-2 2-1.8zm2 2.7L273 543l-2.4 1.9 1.5 2.9zm3-3.2-2.8 2.9-1.6-2.2 3.2-2.6zm2.3 2.7-1.8-2.6 2.7-2.7 1.8 2.5zm-3 3.1 2.8-2.9-1.8-2.6-2.9 2.9zm7.8-3.5-1.6-2.4 2.2-2.3 1.9 2zm-2.8 3.1 2.6-2.8-1.7-2.4-2.7 2.8zm-3 3.2-1.7-2.5 2.7-2.9 1.1 1.7.6.8zm13.5-10-2.3-1.7 2.4-2.6 2 1.8zm-2.8 3.1 2.5-2.8-2.2-1.7-2.2 2.4zm-2.8 3.3 2.6-3-2-2-2.4 2.6.4.6zm-2.8 3.3-1.9-2.6 2.6-2.8.4.6 1.4 1.8zm11.1-7.6 2-2.5-2.3-1.8-2.1 2.4zm-2.9 3.6-1.8-1.8-.5-.5 2.5-3 2.5 2zm6-1.3-2.8-2.1 2-2.4.6.4 2.2 1.7zm4.4-11 2.6-3.3 3.1 2-2.6 3zm-2.8-1.4 2.4 1.3 2.7-3.4-2.2-1.3zm-2.8 2.6L295 534l-2 2.3 2 1.7zm2.7 1.8-2.4 3-2.3-2 2.3-2.6zm3.3 2.1-1.1-.7-1.9-1.2-2.4 3 2.9 2zm-2.8-2.2 3 2 2.3-2.8-3.2-1.8zm-2.6-1.7 2-2.4 2.4 1.4-2 2.5zm-2.5-1.7 1.9-2.1 2.3 1.3-2 2.3zm14.7 4.5.5-.5 1.8-2.3-1.5-1-2-1.4-2.5 3.2 1.2.6zm-2.5 3.3-3.7-2.3 2.2-2.7 1.3.7 2.5 1.3zm-3 3.5-3.5-2.3 2.5-3.2 3.7 2.3zm7-15.8-3-2-2.8 3.4 3 2zm3.5 2.6-2.5 3.3-3.4-2.3 2.7-3.4q1.7 1.1 3.2 2.4m3.4 2.5-.2-.2-2.6-2.3 3-4 2.9 2.6zm-2.6 3.1 2.1-2.5.3-.3-.2-.2-2.7-2.4-2.5 3.3zm-2.3 2.7-3.1-1.7.4-.5 1.8-2.3 3 2.1zm-2.8 3.2 2.6-2.9-3.2-1.7-2.3 3zm14-10.3-2.7-2.6 2.7-3.5 3 2.6zm-3.5 4 3.2-3.7-2.6-2.6-3.1 3.8zm9.6-5-2.6-2.5 3.2-3.8q1.3 1.2 2.4 2.6zm-3.5 4 1.2-1.3 2-2.4-2.5-2.6-3.1 3.6 2.3 2.5zm-3.4 4 3.2-3.7-.2-.3-2.3-2.4-3.2 3.7zm9-5.5q.8-.7 1.3-1.5l1.7-2-1.8-2.4-3.1 3.7zm-3.3 4.2 3.2-3.9-2-2.3-3.2 3.8zm-3.4 4-2-2.5 3.1-3.7 2 2.5zm12.6-8-2.4-3.8 2.7-3.3 2.5 3.6zm-3 3.5 2.8-3.2-2.5-3.8-1.6 2-1.3 1.6.1.1q1.4 1.6 2.6 3.3m-3.7 3.9-2.3-3.1 3.2-4v.1q1.5 1.7 2.6 3.3l-.5.6zm9-3.7 2.8-3.5-2.1-3.4-2.8 3.5zm-2.7 3.3-2.3-3.2 2.7-3.2 2 3.4zm4.9.9-2-3.9 2.8-3.5 2.2 4zm-2.7 2.4 2.4-2.2-2-3.7-2.4 3zm4 0 1-1 2.2-2-1.3-2.5-3 3.4zm1.2 2.5 3.3-2.7-1.1-2.5-2 1.9-1.3 1.1zm1.5 3.3-1.4-3 3.4-2.6 1.1 2.6zm9.1-18-.5.6-2.4 2.8-1.5-3.8 1.8-2 1-1q.9 1.6 1.6 3.4m2.2 4.4L357 533v-.3l2.4-2.8q.7 2.3 1.7 4.5l-.2.2zm4.7 2.2-1.3-3.3-.6-1.5 3-3.5 1.6 4.3q-1.5 2-2.7 4m12.1-3.3-2.4-5.8.7-1.9 3.2 3.7zm5.8-6-1.6 4.5-2.3-2.6.8-2.2.6-1.7zm-2.4-2.4 2.5 2 1.8-4.4-3-.9zm-1.4-4 2.4.6-1.3 3.2-2.2-1.7zm4.4-3.9-2.3-.1-2 3.7 2.5.6zm-1-3.5-1.5 3H376l.9-2.6q0-.6.3-1zm-6.7-18.2-.9 1.2-.7 1-.8-.4-3-1.7 2-1.8.7-.6q1.4 1 2.7 2.3m-61.8 17.6 2.2 1.6-2.5 2.6-2-1.7.4-.5zm-68 32.4 2.4-1.6 1.4 2.6-2.5 1.9-.8-1.6zm-3.2 2.2 1.5 2.8.4-.3 2.3-1.6-.8-1.7-.6-1.1zm-4.1-2-.5.4-.2-.2v-.2zm3 .6-2.5-.5-.8.7 1.4 2.6 2.5-1.6zm.2-.3-.9-1.6 3-1.8 1.5 2.8-2.9 2-.5-1 .7.2.2-.1-.1-.3zm-2.3-.5 1.1-.9.7 1.2zm14.4 2.7-2 2.2-1.4-3-.4-.7 3.4-2.3 1.6 2.6zm3.7 2.1-2-3.2 1.9-2.1 2 3.4zm12.7-7-2.2 1.8-2-2.5 2.2-2.2zm-7.6 2.6 1.8 2.4 1-.8 2.4-2.1-2.2-2.5-2.3 2.3zm-23.8-15.3 1.6-.4 2.2-.6.9 2.6-4 1.4zm-.5-2.7.2 1.2.3 1.1 1.5-.4 2.1-.6-.9-2.4zm-2.8.8 2.5-.7.2 1.2.2 1.1-2.3.6zm-.6-2.2.5 1.9 2.5-.7-.6-3-1.5.5-1.2.3zm23.3-10.7 1.9-1.7 1.4-1.3v3.8q-1.5.7-2.9 1.7zm12.5 2.2v.3h.3l2-2.5-.1-.3h-.3zm-4.9-6.6-.2.1.1.2.8.2v.2q-.2 0 0 .2h.2l.2-.3 2.3.6-1 .7v.2q.2.2.2 0l1.3-.8 2 .3q0-.2-.2-.2l-1.4-.4 1.7-1v-.2q0-.2-.2 0l-1.8 1-.2.1-2.4-.6a10 10 0 0 1 3.8-2.4v-.2q0-.2-.2-.1a10 10 0 0 0-4 2.6zm-4.4-9.4-.7 4.2 3.2-.5.5-2.4q0-.2.3-.2l.1.3-.5 2.2 3.2-.4.2.1q0 .3-.2.2l-3.3.5-.5 1.8 2.6-.2h1.4l1.2-.8.3.1-.1.3-.7.4h1l.1.2q0 .2-.2.2h-1.5l-3 1.6h-.2v-.3l2.5-1.4h-.8l-2.6.3-.1.3-.3.1q-.3 0 0-.2v-.2l-.8.1-.2-.1q0-.2.2-.3h.8l.5-1.8-3.2.5v.4l-.2.1q-.2 0-.2-.2v-.2h-.5l.1-.3h.5l1-4.7zM244 530.8l-2.8.9-1-2.4 1.3-.5.1-.2-.3-.1-1.1.4-.5-1.2-.5-.2.2.5.4 1q-1.5.8-3.2 1.2l-.6-3 .6-.1q.2 0 .2-.3t-.3 0h-.5l-.3-1.1-.2-.1q-.2 0-.2.2l.3 1.2-1.5.4-1.1.4-1.2-4.5-.4-.2v.1l1.2 4.7-4.3 1.2.3.3 4.1-1.2.3 1 .5 1.9-2 .5-.4.1.3.3h.1l2-.6.6 2.2-.6.1.3.3h.4l.1.4.5.4-.2-1 2.3-.5.6 3-.6.2.4.3h.3l.1.4.5.4-.2-1 4-1.4q.8 2.2 1.3 4.6h.4l-1.4-4.8 3-1.1-.1-.4-3 1.2-.9-2.7q1.5-.3 2.9-.9zm65 14.3-.6.8v.2h.2l1.3-1.4zm-3 1.3.5.3h.3v-.3q-.2 0-.3-.2zm-2.6 2.6-1.1-.8.5-.6-.7.2v.2l-.2-.1-.4.1.3.2zm-.2.3 1.1.9h.3v-.1zm-1.9-.5h.4l-1 1.4h-.3q-.2-.2 0-.2zm-5.8 1.2 1.6 1.5h.2q.2-.2 0-.3L296 550zm-1 0-.3.3v.2h.3l.4-.5zm-4.2 2 .2.3h.3v-.2q0-.3-.3-.4zm22.1-7.7-.8-.4-.4.2 1.3.7zm-10.2-25q0-.2-.3 0v.2q.3 0 .3-.3m-27.3 5.5.1-3.2q-.1-.4-.4 0v4.8l-1.6-.3.7-4.2-.3.2-.8 4-2-.3.8-2.2q0-.5-.3-.2l-.9 2.3-2.6-.4-.2.2-.4 1.6q-.6 0-1.2-.4l-.3.3 1.4.5-.7 2.7-2.6-1-.2.4 2.7 1v.1l-.5 1.8-3-1.2v.3l3 1.3-.8 3q0 .6.3.2l.8-3.1 2.2.8-.2 2.6q.2.4.4 0l.2-2.5 1.1.4 1.8.5v.8q.1.4.3 0v-.7q2.7.8 5.4 1.3.5-.1 0-.4l-5.3-1.2.2-2.3 1 .2 2.7.4v.4q.4.4.4-.1v-.2q2.9.4 5-.2c.4 0 .3-.4 0-.3q-2.2.4-5.1.1l-.6-2.7.7.1q.5-.1 0-.4h-.8l-.3-2.8 1.1.2h.2l-.7-.5h-.6v-.8q-.3-.4 0-.9m-20.6 16.4-.6-.6-2.4-2.6v-.2h.3l2.4 2.6.4.5zm-12.5-20.8v.4l3.1.2-1 2.9-1.9-.2.1.4 1.7.1-1 2.4.3.5v-.2l1-2.6 2 .1-.4 2.5-2.4.2-.2.1.1.3h.1l2.4-.3-.3 2.9h-.6q-.2 0-.2.2t.2.2h.5l-.1 1.3.1.3q.3 0 .2-.2l.2-1.5 2-.3-.1 2.9H246l-.2.2.2.4.4-.2h1.2l-.1 2.8.2.2.2-.1v-3h2v3.1l-1.7.2-.1.3.2.1 1.6-.2.2 2q.3 0 .2-.2v-1.8l4-.6q.3 0 .2-.2l-.2-.1-4 .5v-3.1h1.6l.1-.3-.1-.2-1.6.1v-1l-.1-.2q-.2 0-.2.2v1h-2V530l1.7-.2.2-.2q0-.2-.3-.2l-1.6.2v-1l-.1-.3q-.2 0-.2.2v1.2l-2 .2.4-2.8 2-.2q.2 0 .2-.2t-.2-.1l-2 .1.3-2.3 1.4.1.2-.2-.2-.2-1.4-.1v-.1l-.1-.2-.2.1v.2l-1.8-.2 1-2.9 1.7.1.1-.2-.1-.1-1.5-.1.1-.5-.1-.2-.2.1-.2.5zm.2-3 4.6.9.1.2q0 .2-.2.2l-4.5-.9zm.8-3.2 2 .6 2.2-1.6-2.4-2.2q.2-.2.3 0l2.4 2 .5-.4h.3v.3q-.3 0-.5.3l.6.5v.3h-.3l-.6-.6-2 1.5 1.9.6v.3q0 .2-.1 0l-2.2-.6-2.9 2.2.1-.5 2.4-1.8-1.8-.6zm3.8-6-.2.2 3 3.5q0 .2.2 0 .2 0 0-.2zm3-2.6a13 13 0 0 0 2.1 4.3v.2h-.3a17 17 0 0 1-2-4.3zm3-1.4 1.1 4.9-.1.2q-.2 0-.2-.2l-1.2-4.8zm18.6 13q-1.3 0-2 .4-.9.4-1.3 1h-.3v-.2q.6-.7 1.4-1.2.7-.3 2.2-.5zM260 529.6l.2-.4h-.1l-3 1-.1-2 1.1.2.2-.3h-.2l-1.1-.2v-1.7q0-.2-.2-.2l-.2.1v1.8l-4.2-.1.3-2.7h3.4l.4-.3-3.7-.1.6-1.8h.2q.1.2.3 0v-.1q-.7-.1-.1-.6l.3-.6.5-.7q0 .5.3.8h.3l-.4-1.1 1.7-2 .4 2.4-.9.6h.6l.3-.2v.2h.4v-.4q1.3-1 2.7-1.7l-.1 3 .3.2v-.2l.2-3.2 2.9-1.3-1.8 4-.8.2q-.2 0-.2.2t.2.2l.7-.1-.3.7v.3l.3-.1.4-1 3.1-.3-1.9 2.8v.3h.3q1.1-1.5 2-3.2l3.6-.6-.1-.2-3.2.4q.8-1.5 1.4-3.2l-.2-.2-.2.1q-.6 1.8-1.5 3.3l-3.1.4 1.8-4.2 1.1-.5 1-.4v-.2q0-.2-.2-.1l-1 .3-.7.4.6-1.4-.1-.2h-.3l-.7 1.8-3 1.4v-4l.7-.7v-.3h-.3l-.5.6v-1q0-.2-.3-.2l-.1.2v1.3l-1.5 1.5-1.7 1.6-.6-4.2-.2-.1q-.2 0-.2.2l.7 4.4-1.8 2a31 31 0 0 0-3-5.4v.3l2.7 5.4-1.1 1.8-4.6-2.8h-.2v.3l4.6 2.9-.7 2-3.2-.1-.2.2q0 .3.2.2h3.1l-.1 1-.2 1.8-1.3.3q0 .3.2.2l1-.1.3 3q0 .3.3.2l.1-.2-.3-3h4.3v2.3l-3 1.5q-.2 0-.1.3h.2l3-1.5.1 3.4.2.1.2-.1-.1-3.5zm2.4 4.4-4.9 1.9-.2-.1v-.2l5-2zm40.7-14.5 2.4 1.4q1.5 1 2.8 2.3v.3h-.3q-1.2-1.3-2.7-2.3l-2.5-1.5zm29.2-3.6h-.4l-2.3 2.1-2-2.4.5-.4-.5-.1-.3.3-.3-.4h-.5l.5.6-1.2 1-2.3 1.7-2.2-2.2-.3-.3 1.3-1.2h-.5l-1 1-1.1-1h-.5l1.3 1.2-3 3-2.4-1.7 2.4-2.5h-.5l-2.2 2.3-2.1-1.6.2-.3-1 .2.2.2-1.8 2-.5.5-1.1-.8-1.2-1-.5.2 1.4 1 1.1.9-2.2 2.5q-.2 0 0 .2t.2 0l2.3-2.5 2 1.6-.6.7v.3h.2l.8-.8.9.7q0 .2.2 0v-.2l-.9-.7 2.5-2.6 2.3 1.7-.8 1v.3h.3l.8-1 .2.1h.3v-.3l-.2-.1 3-3 .2.3 2.2 2.2-.8.6v.3h.2l.9-.7.6.7h.3v-.3l-.6-.6 2.2-1.7 1.2-1 2 2.3q-.8.8-1.9 1.3v.3q0 .1.2 0l2-1.3 1.8 2.1q0 .2.3 0v-.2l-1.8-2.1zm4.7 1.4-1.2 1 .4.8 1.6 2.4v.3h-.3l-1.6-2.5-.4-.7-.5.4-3 2.6h-.3v-.3l3-2.5.6-.5-1.3-2 .6.2 1 1.6 1-1zm4.7 2-.4-.2-1.3 1-2.5 2v.2h.3l2.4-2zm4 1.8-3.9 2.9v-.3l3.6-2.8zm35.9-30.3.4-1.9-.4-.4-1.6-1.7h.5l1.4 1.5.2.2v-.6l.3-1.1h.4l-.3 1.2-.1.8 1.4 1.8.8-1.6-1.4-2h.5l1 1.6.2-.2.5-.8h.3l-.5 1-.2.4.5.8 2.4 4h-.3l-2.8-4.5-.8 1.7v.3l-.3-.2-1.4-1.8-.4 1.5zm-2.7.3h.4l-.4-1.2 1.4 1 .6-.1-2.2-1.4-.7-2.3h-.4l.7 2-.6-.3-1.9-1.1-.4.2 2 1.2 1 .5zm-30.4 37.2.1.4 1.3-1.3 1.8 4.8-2 2.2.2.9.2-.3v-.3h-.1l1.9-2.1 1.4 3.9-2 2.4.4.1 1.8-2.1 1.3 3.2.4.2-1.4-3.8 2.5-3 .4-.4 1.8 4.3-2.7 3 .4.2 2.4-2.8 1.3 3.6h.4l-1.4-4 2.3-2.6 2 4.9-1.2 2h.4l1-1.6.6 1.7h.4l-.8-2q1.2-2 2.7-4l.5 1.3 1.8 4.5h.4l-2-4.6-.7-1.6 2.3-3 .6 1.4 1.2 2.8-1.5 5 .3-.1h.1l1.3-4.4 1.5 3.7h.4l-1.7-4.3.4-1.3 1.6-4.5 1.7 4.2.7 1.7-1.3 3.7.5-.1 1-3 .8 2.2.3-.1-1-2.7 1.5-4.3 2.3 2.7-1 3.2q.3 0 .5-.3l.8-2.6 1 1.1.3-.3-1.1-1.2 1.6-4.6 2 1.8.2-.3-2.1-1.9 1.9-4.7.8.3v-.4l-.7-.2.4-.8-.2-.5-.5 1.2-3-.8 2-4.2h.1l-.3-.7-.1.3-2.3-.2 1.4-2.7-.4-.7-3.3-.6 1-3.3-.2-.4-1.2 3.6h-.3l-3.4-.4 1.3-3 .6-1.2 2.6.3-.2-.4-2.3-.2 1-2.3-.2-.5-1.1 2.7h-1.3l-2.2-.2q.7-1.6 1.6-3h2.8l-.1-.4h-2.5q.7-1.2 1.7-2.2h.1l-.1-.4h-.1l-3-.9-.7-.2 1.4-2.1 2 .9-.1-.4-1.7-.8.7-1 .9-1.2v-.7l-.1.2-2.6-2.3q.9-.8 1.8-1.3l1.1 2 .2-.5-1-1.7q1-.7 2.3-.9l.3-.4q-1.6 0-2.8 1l-.3-.5-.4-.8 3.3-.3.3.6.3-.3-.2-.4h.7l.8-.5-1.6.2-1-2.5-.4-1.2-.3.2.4 1.1.9 2.4-3.4.4-1-1.8-.4.2 1 1.6h-.2l-2.3.4-.2.4 3-.4q0 .5.4.9l.3.4-1.9 1.5-2-1.9-.3.4 2 1.7-.7.7-2 1.8-.2-.1v.7l.2-.2 3.9 2.2-1.5 2.2-2.4-1v.5l2.2.8-1.6 2.2.1.5 1.8-2.6.8.3 2.9.8-1.7 2.2h-3.6l.1.2 2.5.2h.8l-1.6 3h-.8l.2.4h.5l-.3.6.1.6.5-1.2 2.4.2h1.1l-2 4.2h-.9l.2.3h.6q0 .5-.3.8l.2.5.5-1.2 3.6.4h.2l-.4 1-1 2.8H374l.2.4h1.3l-.6 1.6.1.6 1-2.3h3.2l-1.9 3.7-2-.5v.4l1.8.4-1 2-.8-.7-.1.4.8.6-.4.7v.2h.3l.4-.7 2.2 1.8-.7 1.7-.7 2-3.1-3.6.2-.5-.8.9-.5 1.4-.3-.7-.3.2.4 1-1.6 4.9-.3 1-1-2.4-.8-1.6 1.6-2h-.6l-1.1 1.6-.6-1.2h-.4l.7 1.5-2.2 3-1.6-4.4.3-.3-.9-.1.2.4-3 3.5-1.8-4.5.5-.5-.4-.1-.2.2-.2-.4-.4-.2.3 1-2.4 2.8-1.6-3.4 1.4-1.4-.3-.2-1.2 1.2-1.3-2.6-.6-.3 1.6 3.2-1.1 1.2-1.7 1.8-1.8-4.7.4-.4 1.8-1.6-.3-.2-1.8 1.5-.3.3-1.5-4.1-.5-.3 1.8 4.7zm-.4 1-.3.4h-.3v-.2l.5-.6zm-78.2 15.9v.4l.6-.5 1.5 3-1.7 1.7-.1.5 2-2 .4.8.9 1.7h.4l-1-1.9-.4-.8 2.6-2.6 1.9 2.7-2.6 2.6h.5l2.3-2.3 1.8 2.4h.6l2.6-2.8 1.8 2.6h.5l2.6-3 2 2.5h.4l-2.2-2.8 2.7-3 .5.5 1.8 1.8-2.8 3.4h.5l2.5-3.2 2.4 2.2h.4l-2.5-2.5 2.7-3.3 2.8 2-3 3.7h.6l2.7-3.4 2.5 1.9.4-.2-2.7-2 2-2.4 3.6 2.3-1.3 1.6.6-.2 1-1.2.9.5.4-.2-1-.6 2.6-3.3 2.8 2 1-.5 2.3-2.8 1.2.7.4-.2-1.4-.8 2-2.4 2 1.4.3-.2-2-1.4 2.1-2.6.2-.3 2.5 2.5-1.4 1.6.3.3 1.4-1.6 2.4 2.6-.9 1 .3.2.9-1 2 2.5.8.3-.2-.2 3-3.7 2.3 3-2.2 2h.4q1-.7 2-1.7l1.6 2.4h.4l-1.7-2.6 3-3.2.5-.5 2.3 3.3-2.5 3.2h.4l2.3-2.9 2 2.8h.7l2.2-2 1 2.2-.8.6.3.3.7-.6 1 2.2-3.2 2.8-.4.4-.2-.3h-.6l.5.5-2 2v.2h.3l2-1.9 2.7 3.2q.2-.2 0-.3l-2.5-3.1 3.6-3.2 1.4 3-1.1 1q-.2.1 0 .3 0 .2.2 0l1.1-1 .7 1.4.3.6.3-.3-.3-.4-.7-1.6 3-3 .7 1.5.3-.3-.6-1.4 1.4-1.4-.2-.3-1.4 1.3-1-2.6.5-.4-.2-.3-.6.4-1.1-2.5.7-.5v-.5l-.9.7-1.3-2.6 2.4-3.1v-.6l-2.6 3.4-2.2-4 3.9-4.8-.2-.4-4 4.9-2.1-3.4 1.4-1.9v-.3h-.3l-1.3 1.9-2.5-3.6.9-1.2h-.3l-.8 1-.4-.6q0-.2-.2 0-.2 0 0 .2 0 .3.4.6l-2.8 3.3-1.8-2.3 2.3-3.2h-.2l-2.4 3-2.4-2.6.8-.9v-.3h-.3l-.8 1-.3-.3h-.2q-.2.2 0 .2l.3.3-3.3 3.8-3-2.6 2.1-3.1h-.2l-2.2 3-2.5-2-.3.1v.3l2.6 1.8-2.7 3.4-3-2.6 1.7-2.4v-.2h-.3q-.7 1.2-1.7 2.3l-2.5-1.8q-.1.1 0 .2l2.3 2-3 4q-1.5-1.4-3.1-2.5l3-3.7v-.3h-.3l-3 3.8-3.1-2 .4-.6v-.2h-.3l-.5.6-.9-.5h-.2v.3l1 .5-2.8 3.4-2.2-1.3 1.2-1.4v-.2q-.1-.2-.3 0l-1 1.5-1.5-.9-.3.1.1.3 1.4.7-2.9 3.4-2.3-1.3 1.3-1.3v-.3h-.3l-1.3 1.4-1-.5h-.3v.3l1 .5-1.8 2-2.4-1.5-.1.3 2.2 1.6-2 2.2-1.8-1.7-.3.3 1.8 1.7-2.3 2.6-.9-.6-.4.1 1 .8-2.2 2.4-1.8-2.1.5-.6-.5.1-.2.2-.2-.2h-.4q0 .3.3.5l-2.3 2.3-1.7-2.5.1-.1-.7-.1.1.2-2.7 2.7-1.2-2-.8.2-3 2.4v-.1l-1.2-1.6h-.9l-1.7 1.4h-.2v.2l-.6.4v.3h.3l.4-.3 1 2zm-48.2 6h.2a37 37 0 0 1 14-3l.2.4.2.3-4.8 4.5h.6q2.3-2.4 4.4-4.2.9 1.2 1.3 2.6l-.8.4.5.2.5-.3.1.5.4.1-.2-.8 2.6-1.5 1.5 2.9q-.3 0-.6.4h.5l.3-.1.1.3h.5l-.3-.5.4-.4 2.2-1.6q.8 1.6 1.2 3.3h.4l-1.3-3.5 2.5-1.8.4.7 1.4 3-1.6 1.7h.5l1.3-1.3.5 1.2h.4l-.6-1.5 2.1-2.2 1-1.2 2.1 3.3-1.1 1.2.7-.2.6-.7.3.4.4-.1-.4-.5 2-2 1.3 2.2h.5l-1.5-2.4 2.4-2.4 1.8 2.5-2.7 2.3h.5l2.4-2 1.5 2.4h.5l-1.8-2.7 1-.8 2.4-2.2 2.6 3.2.1-.4-2.4-3 2-1.9.3.4h.2v-.3l-.2-.3q.2 0 0-.3h-.1l-2-2.8 1.8-1.9h-.5l-1.6 1.6-.5-.5a48 48 0 0 0-5.2-4.8h-.2v.3a48 48 0 0 1 5.6 5.3l-2.2 2.2-.6-.6-7-7q-.3 0 0 .2l6.7 7 .6.6-2.4 2.4-.6.6q-2.7-3.4-5.6-6.4v.4q2.7 3 5.3 6.2l-2.3 2.3-2.1-3.4.4-.4v-.3h-.3l-.3.4-1-1.6h-.3c-.3 0 0 .1 0 .2l1 1.7-2 2-1.5-2.5.7-.5q.2 0 0-.2 0-.2-.2 0l-.7.4-.9-1.4h-.4l1 1.6-3.3 2.2-1.4-2.7 1.9-1.3h-.6l-1.5 1-.7-1.2h-.4l.8 1.4-2.4 1.7-1.5-2.8.7-.3H242v.2q-1.5.7-2.8 1.8l-.7-1.4-.3.2.7 1.4-1.5 1.1h-1.5q-1.4-2.1-3.5-4.1h-.2q-.2.1 0 .3a30 30 0 0 1 3.3 3.7l-4.2.2q-5 .7-9.7 2.8zm34.3-47.7h-.4l.4 4.7q0 .2.2.2l.1-.2q0-2.4-.3-4.7" fill="#f7ad73" id="path153"/><path d="M280.3 446.2a5 5 0 0 0-.3 2.6c.2 1 .8 1 1 1.6s-.1 1 .2 1.6q.7.6 1.2.8c.4.3 0 .6.4 1.3s1 .4 1.1.7l.1 1.4q.5.9.8 1.1l.1 1c.2.3.5.3 1 1l-3.4 8.8-3-1-.6-20.3zm-3.2 20.2-3.3-1c-1.2-.8-1.8-1.8-2.7-2.7q.3 4.6-.7 8.7c-8.4.3-16.6.4-24.8-1.6-2.9-.7-4.8-1-7.5.5-1.5.8-3 2-3.8 2.5a15 15 0 0 0-5.5 6l-8.6 15.4c-1.5 2.6-1 2.1-1.3 3.2-.4 1.6 1 2.2 2.1 3-2.8-.2-3.6 1.7-3.1 4.2l1.2 6.1-4.2 3.3c-2 1.4-1.8.8-1.8-1.5v-6.9c2 0 3.8-.8 4.3-2l-4.4.3q1.4-3 3.9-5.8c.6-.8 1.2-1.8.7-2.7-.8-1.5-2.2-2.5-2.8-4-1-2.4-.5-2 1.4-3.6a48 48 0 0 0 9.6-9.7c1.4-1.9 2.5-3.1 3.6-5.2.9-1.5.4-3.6 3-5.3 1.5-1 1.4-1 5.7.5 1.9.6 4.6-.8 6.6-2.2 1.5-1.3 2.9-1.3 4.3-1.8 3.5-1.4 7.7-.6 11.5.3l.2-1.3c.2-1.4-1.6-1.2-3-1.6s-2.2-.5-2.5-2.2-.6-4.9.2-7.4c3-.4 5.5-1.2 6.1-3.4 4.3 3.2 8.3 3.5 11.7-3q1.5 1 3.2 1.3zm10.6-5 .3.4q.5.2.6.8l1 .3.5 1c.2.2.9 0 1 .6l-2.9 3.6-.8-.4h-.4l-.2.2-.3.3-.1.2-.2.3-.3.3-1.2-.3h-.1z" fill="#fff" id="path154"/><path d="M277 511.4c1.3-5.5-3.5-9.5-6.2-14.4q3.3-3.6 7-6.5l.5 10.8H277l1.6 8.8zm3.3-22.5c3.6-2.1 7.3-3.4 11-3 11.7 1.2 21.9 4.5 33.8 1.5-4.3 3.8-4.8 7.8-3.5 12l-23.8-7.4q-1.2.5.5 1.4a84 84 0 0 0 19.2 6.2c-4.2-.2-6.6 2-8.2 5.5l-19.9-8.1c1 1.7 9.1 6 15 9.3-4 .8-6 2.9-7.3 7q-1.7-2-5.2-3.5c-.1 1.6 3.9 2.2 4 3.6l-.9.1a10 10 0 0 0-3 1.3l-.6.3-5.5 3.3 1.3-1.4.6-.8.5-.7 1.1-2.2 1.8.4-.4-6.7-5.2 5 1.7.6a15 15 0 0 1-2 3.2L283 518l-.3.2q-.9-4-2.2-7.4l1.2-9.4h-1z" fill="#009240" id="path155"/><path d="m204 506.4 8.5-1.9v9l.3 1.2v.1l.1.2h.1l.1.2h.9l1.3-.9 3.7-2.9.4-.3 2.3-2 .7-.7.4-.7.2-.6.2-.6v-2.3l-.4-1.7-.1-.5-.2-.6q5.4-2 10.7-5.3 5.8-3.6 11-5.9c4-1.7 9.9-4.3 14.2-2.6l2 1.1q-1.5 7.5-2 14.5l-2.3-.2-1.9.2a14 14 0 0 0-5 2.2q-1.3.8-2.4 2l-1.9 2.3-2.6 4.6-.7 3q-2.2.4-3.3 1.2v-.3a97 97 0 0 1 8.4-21.2c-3.5 1.5-8 10.7-12.3 21.7a12 12 0 0 0-7-3.2 15 15 0 0 0-8.7 2.9 83 83 0 0 1 26.5-23.6c-16.3 6-23.1 15.5-29.9 23.3q-1.4-3.3-6-4.9c-4-1.2-4.4-4.5-5.3-6.8" fill="#009240" id="path156"/><path d="M250.3 408.3c.9.5 1 .5 1.1.9q.2 1.2-.7 1.3-.5.1-1-.4a2 2 0 0 0 .6-1.8" fill="#fff" id="path157"/><path d="M238.4 413.6v-.3q-.2-.5 0-.8l.7-.3a3 3 0 0 1 1.5.4l.4.2q.3 0 .2.3t-.4.1l-.4-.1q-.3-.3-.7-.3h-.9v.8q0 .3-.2.3t-.2-.3m-1-5-.7 3.7q-.2 1.6 1.3 2c.9.8 1.4 1.7 2.3 2.4h3.2q1.4 0 1-1.5l-.5-1.1c-.3-.8-.3-1.8 1.6-1.6 1 .1 2 .4 1.6 2.1l-.5 1.3q-.2 1.7 1.3 1l2.5-1.5c-.2-.8-.7-1.5-.6-2.2 0-.3.3-3.3-.6-2.7q-.5.4-1.2.4-1.7-.1-2.3-1.9l-.9-.2-1-.2-1.4-.2h-5zm6.8-13.3q.2 1.1 0 3l1-2q2.5.6 1.6-1.5 1.8-.6 2-2.6c-.9.5-1.6 1.5-3 1.4l-.8.2c-1.2.3-.9.6-.8 1.5m-3.3-1.8.3 1.6a43 43 0 0 1-2.6 10.3c2.7-.3 5.5-.5 8.2.6 3.8-5.3 6.4-11 8.8-16.8q-2.6-1.6-5.5-2.4-2.3-.6-4.7.5-.7.4-1.8 1.4l-1.4 1.3c-1.6 1.6-1.6 1.4-1.3 3.5m9.5 14.4q1.2-1.6 2.6-3.1c5.4-5.7 8.6-7.9 6.2-15.2l-1.1.5h-.1l-2.4 7-2.7 5.3-1.8 2.8-1.2 2z" fill="#fff" id="path158"/><path d="M270.5 448.8q.9-.8 1.4-1.8l-1.1-1.6-.9.2zm-1.6 1 1.1-.6-.6-3.5-.7.2zm-1.4.4.4-.1.4-.1v-4l-1 .2zm-1.7 0h1.1l-.2-4-.7.2zm-2.6-1.1h.2l.7.4.7.3.4.2.2-3.5-1 .1zm-4.6 1.6q.6-.2 1.1-.6.3 0 .6-.4l.3-.4.3-.4.4-1.2 1.3 1h.2l1-2-2.4.3-2 .2h-.9zm-1.6.4 1-.2v-3.7h-.8zm-1.1.2h.5l.2-4h-.5zm-1.7.2h.4l.5-.1h.2l.2-4h-.9c-.7 1.7-.9 2.2-.4 4.1m-1.5.5.4-.1.5-.2c-.4-2-.3-2.6.3-4.3h-1zm-1.6 1 1-.7.3-5h-1.2q-.3 2.9-.1 5.7m-2.6 0 1.1.6v.5l1-.7q-.4-3 .1-6h-.9q-.3 2.7-.2 5.2l-.3.2q-.3 0-.2-.2 0-2.6.3-5.3h-1zm-1-5.8-.1.3.3 5 .3.2v-5.4zm23.8-1.8 1.6-.5-.7 1.5zm4.2-1.3-1.9.6q.6.9 1.6 1.2zm3.3 2 1-.2q-.4-1.5-1-2.5zm-2.5-2.3-.7 2.3.8.1zm6-.2q1-1.3 1.2-2.2l-2.4.8zm-2 2q1-.4 1.7-1.5-.7-1-1.7-1.6l-1 .4zm-1.6-3 5.2-1.9-.4-1.5-4.8 2zm-30.6 2.7-.7 1.4c12.8.6 20.2-.6 28.9-3.4v-1.1l-5 1.7q-5.2 1.5-10.6 1.9c-4.2.2-8.4-.3-12.6-.5m21.4-50q2.6 4.3 3.3 10v.8l-.2.1h-.2l-.1.2-.3.2-.1.2-.2.3v1l.1.1.1.2.1.1.6.3q-.3 0-.3.3l-.1.1-.1.2v.8l.2.3.2.3.4.2q-.1 3.6-.9 7.6l-3.5-.1c2-7.9 2.6-15 1-23.2m1.4 28.8q-2.2 9-6.3 21l-2.3.2-2.1-2.5q3.9-10.2 6.5-18.4l.3-1 1-.3v.2l1-1.4.2-.4.2.6.3.6.6 1.1v-.1q.3 0 .4.3zm-8.3-1.4q-3 5.9-6.1 10.6-2.9 5.6-4.4 12l-3.8-.5c2.4-8.5 7.1-15.5 10.7-23.2l.2-.4h.2l1.1-.2.5-.2.7-.4.4-.3v1.8z" fill="#f5f6f6" id="path159"/><path d="M262.8 394.1q2.1 1.6 2.9 5.5c1 7.1.8 12.5-1.2 18.4l-3.7-.8a36 36 0 0 0 1.9-8.2c.2-2.5-.7-5-1.3-7.5l.6-.8.5-.8.3-.8.3-.9.1-.8v-1.7l-.1-.8z" fill="#f5f6f6" id="path160"/><path d="M306.8 386v.6q.2.8.9 1c.3.1.5-.5.6-.8l.5-3.3zm2.4 1v1.5q-.2 1 .5 1.4l1.1.5q.5.3.5-.6c.1-2.6 1.8-6 3.4-9a24 24 0 0 0-5.5 6.2m4.3.2q-.5 1.5-.6 3.2-.1.7.2 1.2c.3.3 1.7.5 2 .4q.8-.1 1-1c.7-2.5.7-5.2 1-7.8v-1.1l-.5-.2c-.6-.2-.6 0-.9.5q-1.3 2.4-2.2 4.8m-9-30.8c.5-1.7 1.2-5 3.3-4.4q1.7.4 3.2 1.9c.9.7.7 1.3.7 1.7v2.4a16 16 0 0 0-7.2-1.6m-4.4 5.5a26 26 0 0 0 11.3-2.6q-5.6-.6-11.4 1.1z" fill="#fff" id="path161"/><path d="M310.7 360.1h.2v1.5l.2.8.3 1.4.2.4.1.5.2.5.2.4.3.5.2.4.3.5.4.4.3.4.4.3.5.4c-2 2.6-3.8 4.6-6.6 5.2-1.2.1-2.6-.3-4-2.2.5.3.6.3 1.3.4q-.5.7.4.6h.4c.6-.2.5-.1.2-.7a3 3 0 0 0 1.3-1.3q-1-.2-2 .2-1.1 0-1.7.6l-.5-.9-.8-1.3q-.4-1.3-.5-2.4l1.4-.9v4l.5.3v-5.4l-3-.1a6 6 0 0 1-.5-2.3q5.7.1 10.3-2.2m-9.2 5.5-.5-.4h2.4v.4zm3.6 5.6c.6 0 .7-.1 1.2-.4 0 .7-1 .6-1.2.4m-.7-1.7q.1-.3.6-.4.4 0 .5.4-.1.3-.5.3-.6 0-.6-.3m4.4-6.4v-.5q-2.1.5-3.5 2 .4.6.7.6h1c.6 0 .7 0 1.3-.3l1-.7h-2.6q.5-.8 2.1-1" fill="#fff" id="path162"/></g><!-- app4joy --></svg>