<svg width="450" height="300" viewBox="0 0 450 300" id="svg10" xmlns:xlink="http://www.w3.org/1999/xlink" xmlns="http://www.w3.org/2000/svg"><g id="g11"><path fill="green" id="rect1" d="M0 0h450v300H0z"/><path fill="#0038a8" id="rect2" d="M0 0h450v264H0z"/><path fill="#fff" id="rect3" d="M0 0h450v204H0z"/></g><g transform="rotate(-45 201.7 171)scale(7.955)" id="g10" display="inline"><path id="horns" fill="#0038a8" d="M0 3V2h1v1h1V0h1v1h1v1H3v1h1V2h1v1h1v1H3v1h1v1h1V5h1v1H5v2z"/><use x="5" y="5" xlink:href="#horns" id="use3"/><use x="10" y="10" xlink:href="#horns" id="use4"/><use x="15" y="15" xlink:href="#horns" id="use5"/><use x="20" y="20" xlink:href="#horns" id="use6"/><use x="25" y="25" xlink:href="#horns" id="use7"/><use x="30" y="30" xlink:href="#horns" id="use8"/><use x="35" y="35" xlink:href="#horns" id="use9"/><use x="40" y="40" xlink:href="#horns" id="use10"/></g><!-- app4joy --></svg>