<svg width="1350" height="900" id="svg57" viewBox="0 0 1350 900" xmlns="http://www.w3.org/2000/svg"><g transform="translate(0 7.2)" id="g3"><path transform="translate(0 -7.2)" fill="#fff" id="rect1" d="M235-110.7h863.8v1130.1H235z"/><path fill="#2f418c" id="rect2" d="M-41.1-63H331V981H-41.1z"/><path fill="#d03528" id="rect3" d="M1002.8-74.8h432.9V949.6h-432.9z"/></g><g id="g58"><g transform="translate(369 49.8)" id="g55" display="inline"><path d="M129.6 192.3v357s0 14.5 10.4 23c11 9 23.8 8.1 23.8 8.1l102.6.4s15.2 0 22.6 11.1a65 65 0 0 1 9.4 22.6v.8-.4l.1.4v-.8c.5-2.9 2.3-13 9.3-22.6 9-12.1 23.3-11.5 23.3-11.5h102s13.7.9 23.7-8c11-9.7 10.5-23.2 10.5-23.2v-357H298.4z" id="path4"/><path d="M132.4 195.2v318.6h24.8a80 80 0 0 0-7.1-19.7c-7-14.2-10.4-15-10.4-18s10.1-11.7 6.5-23.4c-2.6-8.2-10-5.8-11.2-7.3-1-1.5-2-16.6 2.4-39.3s10-41.6 17.9-61.4c10.2-26 32.4-70.2 38-74.9 1.2-1 7.3 6.3 7.3 6.3s12.3.3 15 1.2c2.7 1 7.1 6 7.1 6s5.5 1.3 8.1 2.3c3 1.2 4.7 2 6.3 4.8-3.8 9.3-4.8 4.6-10.6 12.5-3.6 1.6-8 .2-11.1 2.5-5 3.6-6.5 18.2-6.5 18.2s8 1 15-2.9c6.5-3.4 10.7-8.3 19.4-14.6 10.4-7.5 20.4-8.8 20.4-8.8l4.5 8.6c-5.6 1-6.3.5-14.5 9.7s-7.5 12.5-15.7 21.6c-8.2 9-13.3 9.3-19.2 13.1 6.7 1 24-2.7 28.4 1.5 3.7 3.7 3 7 2 10.2-.9 2.4-6.5 3.6-6.5 3.6s-3.7-.9-10-.8c-8 .1-7.5 5.6-13.8 7-5.2 1.2-13-.2-13-.2s.7 3 9.5 2.7c-4.7 12.2-20.2 34.5-20.2 34.5s13.1 2.4 20 10.1c8.3 9.3 3 19 3 24.3 0 6.8-2 12.5 4.7 19.9s16.7 5.5 16.7 5.5l-.2 10.7h-21.5s-9.6-9.6-19.7-16c.3-3.2 2.9-11-.7-13.6-7.2-5.3-16.5-4.3-16.5-4.3l1.1 14.3s-3.6 3.2-7.5 8.7c-4 5.5-5.4 9.1-5.4 9.1s-1.5 11 2.2 21.4c1.8 5.2 5.4 5.4 5.4 5.4s10.4-1 14.6 2.1c2.6 2 3 5.2 2.9 7.4h205.3c-.2-2.2 0-5.7 2.7-7.7 4.3-3.2 14.7-2.2 14.7-2.2s3.6-.1 5.4-5.3c3.6-10.5 2.1-21.4 2.1-21.4s-1.4-3.7-5.3-9.2c-4-5.5-7.6-8.7-7.6-8.7l1.1-14.3s-9.2-1-16.4 4.3c-3.6 2.6-1 10.4-.7 13.5-10.1 6.5-19.7 16.1-19.7 16.1h-21.5l-.2-10.7s10 1.8 16.6-5.5c6.8-7.3 4.7-13 4.7-19.9 0-5.3-5.2-15 3-24.2 7-7.8 20-10.2 20-10.2s-15.4-22.2-20.1-34.5c8.7.3 9.4-2.6 9.4-2.6s-10.7.6-15.9-.6c-6.3-1.4-10-7.4-17.9-7.5h-6.6s-3.4-.3-5-2.9c-1.6-2.3-1.2-8.6 1.4-10.7 5.2-4.2 24.7.7 31.5-.3-6-3.9-9.9-2-19.2-9.6-9.3-7.7-8.7-11.6-15.7-21.7-7.8-11-8.6-9.3-14.2-10.2-6.6-2.9-3.3-10.3-3.3-10.3s9.7-2.5 20 5c8.8 6.3 17.2 13.4 26.9 17.8 7.3 3.4 15 3 15 3s-1.5-14.6-6.4-18.3c-3.1-2.3-7.5-.9-11.1-2.5-5.8-7.9-6.8-3.2-10.6-12.5 1.5-2.9 3.2-3.6 6.3-4.8 2.6-1 8-2.4 8-2.4s4.4-5 7.2-5.8c2.7-1 15-1.3 15-1.3s6-7.3 7.4-6.2c5.5 4.6 27.3 48.9 37.9 74.8 8 19.9 15 38.7 19.3 61.4s4.5 38.6 3.4 40c-1.1 1.6-11-1.6-13.6 6.6-3.6 11.7 6.5 20.5 6.5 23.4 0 3-3.5 3.8-10.4 18a77 77 0 0 0-7.2 20h28V195.3z" fill="#cccccc" id="path5"/><path d="M242.3 370h-12.7s-.2-11.4 1-12.8c1.6-6 12.7-13.3 20.3-20.5 7.5-7.3 16.9-19.4 16.9-19.4l-.5 14a178 178 0 0 1-24.5 21.5z" fill="#ddb523" stroke="#8c5700" stroke-width="1px" id="path6"/><path d="M347.4 370h12.7s.2-11.4-1-12.8c-1.5-6-12.7-13.3-20.3-20.5-7.5-7.3-16.9-19.4-16.9-19.4l.5 14a185 185 0 0 0 24.5 21.5z" fill="#ddb523" stroke="#8c5700" stroke-width="1px" id="path7"/><g id="g9"><path fill="#ffffff" stroke="#767479" id="rect7" d="M323.6 214.9h5.2v26.8h-5.2z"/><path d="M325.6 200c-.1 0-.5 2.7-2 6-1.7 3.8 1.2 6.6 3.1 8.8 0-1.9.5-3.5 1.3-6.5 1-3.9-1.2-5.8-2.4-8.3z" fill="#d23225" stroke="#4a0000" id="path8"/><path fill="#ffffff" stroke="#767479" id="rect8" d="M254.5 214.8h5.3v26.7h-5.3z"/><path d="M256.5 199.9c-.1 0-.5 2.6-2 6-1.7 3.8 1.3 6.6 3.1 8.8 0-2 .6-3.6 1.3-6.5 1-4-1.2-6-2.4-8.3z" fill="#d23225" stroke="#4a0000" id="path9"/><path fill="#ffffff" stroke="#767479" id="rect9" d="M289.3 213.3h5.2V240h-5.2z"/></g><g fill="#ddb523" id="g15"><path d="M286.7 237c.3 6.7 3 10.7 3 10.7s-3.8 9.3-3 20.6H297c0-14-2.5-20.8-2.5-20.8s2.5-4.3 2.6-10.5z" stroke="#8c5700" id="path10"/><path d="M263 300.5s7-5.5 6.4-19.2c14.6-2.5 12.8-15.2 21.8-15.3 9.3 0 10.2 11.5 23 15.3 1 13.7 8.9 19.2 8.9 19.2z" stroke="#8c5700" id="path11"/><path id="rect11" d="M273.8 302.9h39.6v70.3h-39.6z"/><g stroke="#8c5700" id="g14"><path transform="rotate(-90)" id="rect12" d="M-373.1 267.5h66.5v6.2h-66.5z"/><path transform="rotate(-90)" id="rect13" d="M-373.1 312.5h66.5v6.1h-66.5z"/><path d="M293.9 322.5a64 64 0 0 0-27.4 5.3l.4 7.3a56 56 0 0 1 26.3-5.8c10.6 0 19.1 2.6 25.8 6.1v-8.2a65 65 0 0 0-25.1-4.7z" id="path13"/><path d="M293.7 343.7a63 63 0 0 0-27 4.6v8a56 56 0 0 1 26.2-5.8c10.7 0 19.2 2.6 26 6.1v-8.1a65 65 0 0 0-25.2-4.8z" id="path14"/></g></g><path d="M236 402.8h117.3s-20.4-39.8-60.7-39.4-56.6 39.4-56.6 39.4z" fill="#d9251c" stroke="#8c5700" id="path15"/><g fill="#ddb523" id="g25"><path d="M236 405v72l58.7-67.6 58.8 67.6v-72l-58.8.3z" id="path16"/><g stroke="#8c5700" id="g24"><g id="g23"><g id="g19"><path d="M240.2 430s1.5 1.2 2.9 4.3-1.3 5.5 1.6 10c2.8 4.5 11 3 12.6-1.2s.4-7.4-3-8c-3.3-.5-5.4 3-5.7 4.4-.8-.1 0-4.6-2.4-6.7s-6-2.9-6-2.9z" id="path17"/><path d="M245.8 478.4h-10.3s5.3-15 9.8-21.5c5.6-7.9 16.2-12.3 16.2-12.3s-.7-7.9 2.7-13c4.5-6.8 12.8-8.7 18.3-15.6 2.2-2.7 2-10 2-10h10.3v5.3s-.9 5.3-4 8.6c-4.8 5.4-16.1 13-19 18.6-3.4 6.5-2.7 13.5-2.7 13.5s-7.6-.6-15.7 7.8a52 52 0 0 0-7.6 18.6z" id="path18"/><path d="M343.8 478.4H354s-5.2-15-9.8-21.5c-5.5-7.9-16.1-12.3-16.1-12.3s.6-7.9-2.7-13c-4.5-6.8-12.8-8.7-18.4-15.6-2.1-2.7-2-10-2-10h-10.2v5.3s.9 5.3 3.9 8.6c4.9 5.4 16.2 13 19.1 18.6 3.4 6.5 2.7 13.5 2.7 13.5s7.5-.6 15.7 7.8a52 52 0 0 1 7.6 18.6z" id="path19"/></g><path id="rect19" d="M237.4 402.8h115.4v5.1H237.4z"/><path stroke-width="1.0084" id="rect20" d="M232.5 370h6.8v108.2h-6.8z"/><g id="g22"><path d="M350.7 429.7s-1.6 1.3-3 4.3 1.4 5.6-1.5 10-11 3-12.6-1.1c-1.7-4.2-.5-7.5 2.9-8s5.4 3 5.7 4.3c.9 0 0-4.5 2.4-6.6 2.4-2.2 6.1-2.9 6.1-2.9z" id="path20"/><path id="rect21" d="M351 370.1h6.7v108.1H351z"/><path d="M266 412s3.7 0 4.4 3.7-3.5 5.1-5.8 2.7c-2.6-2.9-5.1-9.4-14.6-8.4s-12.3 17.1-.7 18.7c8.4 1.2 8-6.4 8-6.4s-3.6 3.2-6.8 2c-3.1-1.4-3-8.6 3.5-8.2s7.8 7.6 14.5 7.8c6.8 0 8.1-6.2 6.1-10-2-4-8.7-2-8.7-2z" id="path21"/><path d="M324.9 412.3s-3.8 0-4.5 3.8 3.5 5 5.8 2.6c2.6-2.8 5.1-9.4 14.6-8.3s12.3 17 .7 18.7c-8.3 1.1-8-6.5-8-6.5s3.6 3.3 6.8 2c3.2-1.4 3-8.6-3.5-8.2s-7.7 7.7-14.5 7.8-8.1-6.1-6-10 8.6-2 8.6-2z" id="path22"/><path id="rect22" d="M221.4 478.2h154.8v16.9H221.4z"/></g></g><path transform="matrix(.88624 0 0 .93038 34 33.8)" d="M304 485.3a4.8 4.3 0 1 1-9.5 0 4.8 4.3 0 1 1 9.6 0z" stroke-width="1.1013" id="path23"/></g></g><path transform="translate(.2)" d="M301.1 485.3a2 1.8 0 1 1-4 0 2 1.8 0 1 1 4 0" fill="#8c5700" id="path25"/><g fill="#ddb523" stroke="#8c5700" id="g33"><g id="g32"><g id="g31"><path d="M299.4 493.6c3.2-5.3 11.5-13.4 20-13 5.2 0 7.3 3.5 7 7-.4 3.5-4.3 6.8-8.2 5.5-4-1.3-4-5.1-4-5.1s2.5 2.4 5.2 1.6c2.7-.9 3.5-6.2-1.9-6-5.7.1-13 6.5-18 10z" id="path26"/><path d="M346 494.4c3.1-5.4 11.4-13.4 19.9-13 5.2 0 7.3 3.4 7 7-.4 3.5-4.3 6.8-8.2 5.5-4-1.4-4-5.2-4-5.2s2.5 2.5 5.2 1.6 3.5-6.1-1.9-6c-5.7.2-13 6.6-18 10z" id="path27"/><path d="M299.3 493.6c-3.2-5.3-11.4-13.4-20-13-5.1 0-7.3 3.5-6.9 7s4.2 6.8 8.2 5.5 4-5.1 4-5.1-2.5 2.4-5.2 1.6c-2.7-.9-3.5-6.2 1.8-6 5.8.1 13.1 6.5 18.1 10z" id="path28"/><path d="M322.7 494.4c3.2-5.4 11.4-13.4 20-13 5.1 0 7.3 3.4 7 7-.4 3.5-4.3 6.8-8.3 5.5-4-1.4-4-5.2-4-5.2s2.6 2.5 5.2 1.6c2.7-.8 3.5-6.1-1.8-6-5.7.2-13.1 6.6-18.1 10z" id="path29"/><path d="M276.2 494.4c-3.2-5.4-11.5-13.4-20-13-5.2 0-7.3 3.4-7 7 .4 3.5 4.3 6.8 8.3 5.5 4-1.4 3.9-5.2 3.9-5.2s-2.5 2.5-5.2 1.6c-2.6-.8-3.5-6.1 1.9-6 5.7.2 13 6.6 18 10z" id="path30"/><path d="M252.6 494.4c-3.2-5.4-11.5-13.4-20-13-5.2 0-7.3 3.4-7 7 .4 3.5 4.3 6.8 8.2 5.5 4-1.4 4-5.2 4-5.2s-2.5 2.5-5.2 1.6-3.5-6.1 1.8-6c5.8.2 13.1 6.6 18.2 10z" id="path31"/></g><path id="rect31" d="M203.1 495.2h191.2v16.4H203.1z"/></g><path transform="matrix(.88624 0 0 .93038 34 50.3)" d="M304 485.3a4.8 4.3 0 1 1-9.5 0 4.8 4.3 0 1 1 9.6 0z" stroke-width="1.1013" id="path32"/></g><path transform="translate(.2 16.5)" d="M301.1 485.3a2 1.8 0 1 1-4 0 2 1.8 0 1 1 4 0" fill="#8c5700" id="path33"/><g fill="#ddb523" stroke="#8c5700" id="g42"><g id="g41"><path d="M299.2 508.3c-3-4.5-10.9-11.5-19-11.1-5 0-7 3-6.7 6 .4 3 4 5.8 7.9 4.7 3.8-1.1 3.7-4.4 3.7-4.4s-2.3 2-4.9 1.3-3.3-5.2 1.8-5.1c5.4.1 12.4 5.6 17.2 8.6z" id="path34"/><path d="M277.4 509.3c-3-4.8-11-12-19-11.6-5 0-7 3.1-6.7 6.2s4 6.1 7.8 5c3.8-1.2 3.7-4.6 3.7-4.6s-2.3 2.1-4.9 1.4c-2.5-.8-3.3-5.5 1.8-5.4 5.4.2 12.5 5.9 17.2 9z" id="path35"/><path d="M255 509.7c-3-5-11-12.6-19-12.2-5 0-7 3.2-6.6 6.6.3 3.3 4 6.4 7.8 5.1 3.7-1.2 3.7-4.8 3.7-4.8s-2.3 2.3-4.9 1.5c-2.5-.8-3.3-5.8 1.8-5.7 5.4.2 12.4 6.2 17.1 9.5z" id="path36"/><path d="M232.3 509.3c-3-4.8-10.7-12-18.6-11.6-5 0-6.9 3-6.6 6.2s4 6.1 7.7 5c3.7-1.2 3.7-4.6 3.7-4.6s-2.3 2.1-4.8 1.4-3.3-5.5 1.7-5.4c5.3.2 12.2 5.9 16.9 9z" id="path37"/><path d="M299.9 508.3c3-4.5 11-11.5 19-11.1 5 0 7 3 6.7 6-.4 3-4 5.8-7.8 4.7s-3.8-4.4-3.8-4.4 2.4 2 5 1.3c2.5-.7 3.3-5.2-1.8-5.1-5.5.1-12.5 5.6-17.3 8.6z" id="path38"/><path d="M321.8 509.3c3-4.8 11-12 19-11.6 5 0 7 3.1 6.7 6.2-.4 3.1-4 6.1-7.9 5-3.7-1.2-3.7-4.6-3.7-4.6s2.4 2.1 5 1.4c2.5-.8 3.2-5.5-1.8-5.4-5.5.2-12.5 5.9-17.3 9z" id="path39"/><path d="M344.2 509.7c3-5 10.9-12.6 19-12.2 4.9 0 6.9 3.2 6.5 6.6-.3 3.3-4 6.4-7.7 5.1-3.8-1.2-3.8-4.8-3.8-4.8s2.4 2.3 5 1.5c2.5-.8 3.2-5.8-1.8-5.7-5.5.2-12.5 6.2-17.2 9.5z" id="path40"/><path d="M366.8 509.3c3-4.8 10.7-12 18.7-11.6 4.8 0 6.8 3 6.5 6.2-.4 3.2-4 6.1-7.7 5-3.7-1.2-3.6-4.6-3.6-4.6s2.3 2.1 4.8 1.4 3.2-5.5-1.8-5.4c-5.3.2-12.2 5.9-16.9 9z" id="path41"/></g><path d="M321 239.1c.5 4.8 1 8.8 2.8 9.3 0 2.3-.6 6.8-6.6 7-7.4.3-10.5-5.1-16-5.2-5.4 0-8 3-8.4 6.6s1.3 7.4 6.7 7.3 6.4-6.7 2.3-7.8c-1.4-.4 1.2 3.4-2.4 3.8-3.8.4-4.3-6.2 1.9-6 6.2 0 10.9 5.7 17.4 4.4 7.2-1.3 8.7-6.6 9.5-10 1.9-.6 2.7-4.6 3-9.4z" id="path42"/></g><path d="M291.2 198.4s-.4 2.6-2 6c-1.6 3.8 1.3 6.6 3.2 8.8 0-2 .5-3.6 1.2-6.5 1-4-1.2-5.9-2.4-8.3z" fill="#d23225" stroke="#4a0000" id="path43"/><g fill="#ddb523" stroke="#8c5700" id="g53"><g id="g47"><path d="M275.8 291.3s9.6 7.4 16.7 7.5 17-7.1 17-7.1-4.9-7-7.5-10.4c-3.2-4-4.8-12-10-11.8-5.1.1-6.1 7.8-9 11.8z" id="path44"/><path d="M270.3 301s5-6 5-16.2c3.1 0 4.3-.2 7 0A29 29 0 0 1 279 301z" id="path45"/><path d="M314.4 301s-5-6-5-16.2c-3.1 0-4.3-.2-7 0a29 29 0 0 0 3.3 16.1z" id="path46"/><path d="M289.7 276.2v15c.5 2.8 5 2.8 5.3 0l.2-15c-.8-2.3-4.7-2.4-5.5 0z" id="path47"/></g><path stroke-width="0.99698" id="rect47" d="M269.2 281.2h45.3v4.7h-45.3z"/><path stroke-width="1.0535" id="rect48" d="M262.3 300.5h61.5v6.3h-61.5z"/><path transform="rotate(-90)" stroke-width="1.0388" id="rect49" d="M-373.1 262.3h71.8v6.7h-71.8z"/><path transform="rotate(-90)" stroke-width="1.041" id="rect50" d="M-373.1 317h72.1v6.7h-72.1z"/><g id="g52"><path d="M366.1 229.8a5.8 5.8 0 0 0-4.8 9l-9.1 13-5.7-4.1.1-1.5a5.8 5.8 0 1 0-11.6 0c0 3.3 2.6 5.9 5.9 5.9q1.5 0 3-1l5.8 4.2-87.8 125 3 2.2L353 257.7l6.6 4.6-.2 1.4a5.8 5.8 0 1 0 11.6 0 5.8 5.8 0 0 0-9-4.8l-6.6-4.7 9.4-13q.6.3 1.2.2a5.8 5.8 0 0 0 0-11.6z" id="path50"/><path d="M218.8 225.5a4 4 0 1 0 0 8h.3l5 7.3-5.4 3.7-1.6-.3a4 4 0 0 0-4 4 4 4 0 0 0 8 0v-.3l5.4-3.7 7 10.1a5 5 0 0 0 .3 3.9c.9 1.8 2.7 3 4.4 2.9l2 2.9a10 10 0 0 0 1.5 7c1.9 3.3 4.8 5.3 7 5l2 2.8q-.4 2 .8 4.1 1.6 2.4 3.8 2.6l15.9 22.7c.3 2.3 2 5.9 4.6 9.6a27 27 0 0 0 7.4 7.6l1.8 2.5c0 1 .1 2.8 1 4.1q1.7 2.5 4 3.2l16.2 23 15.5 23.3 2.6-2s-20.6-31.4-31.1-46.3q.3-2.4-1.2-4.5c-1-1.4-2.4-2.8-4.1-3l-1.5-2.2c-.4-2.4-2-6-4.7-9.8a27 27 0 0 0-7.5-7.5l-16-22.8q.6-2-.8-4.3-1.6-2.5-4-2.5l-2.1-3.2q.7-3-1.5-7c-1.9-3.4-4.8-5.4-7-5l-1.6-2.4a5 5 0 0 0-.3-4.1 5 5 0 0 0-4-3l-7-10 5.1-3.5 1.5.3a4 4 0 0 0 4.1-4 4 4 0 0 0-4-4.1 4 4 0 0 0-4 4v.5l-5 3.4-5.1-7.3q.3-.7.3-1.6a4 4 0 0 0-4-4z" id="path51"/><path d="M262.4 239.1c-.5 4.8-1 8.8-2.8 9.3 0 2.3.6 6.8 6.6 7 7.4.3 10.5-5.1 16-5.2 5.4 0 8 3 8.4 6.6s-1.3 7.4-6.7 7.3-6.4-6.7-2.3-7.8c1.4-.4-1.2 3.4 2.4 3.8 3.8.4 4.3-6.2-1.9-6-6.2 0-10.9 5.7-17.4 4.4-7.2-1.3-8.7-6.6-9.5-10-1.9-.6-2.7-4.6-3-9.4z" id="path52"/></g></g><path d="M132.3 515.4v31.9s-.7 13 9.3 21.9c10 9 25.9 8.2 25.9 8.2h98.7s14-.1 22.8 9.6a36 36 0 0 1 9 16.1v1l.2-.5v.5-1a37 37 0 0 1 9.2-16.1c8.7-9.7 22.8-9.6 22.8-9.6H429s15.9.7 26-8.2c10-9 9.3-22 9.3-22v-31.8H298zm106.2 4.9 8 9.6c6.4 0 11.7.4 14.7.8 11.6 1.6 12.5 4.3 17.4 5.5 4.4 1 8.6 1.5 8.6 1.5s-5.3 4-8.3 5.4c-3 1.3-9.3 2.4-9.3 2.4s6.4.2 8.5 1c2.2.8 4.2 3 4.2 3s-5.1.5-7.6 1c-8.3 1.4-16.1 5.3-24.7 5.5l-12.7.3c-1 1-2.4 2.5-2.5 4s1.7 4.7 1.7 4.7-9.3 1.4-14.2 1.3c-5 0-15.2-1.9-15.2-1.9l4.3-8-2.6-.1a380 380 0 0 1-19.5-1.2l-4 7.3-15.1-2.2 2.8-6.4q-9-1-13.4-.5c-3 .5-6 2.5-8.8 4.5-2.8 1.9-8.3 7-8.3 7s-.6-6.7 1.2-10 6.1-5.9 6.1-5.9-3.7-3-5.4-5.8c-1.7-2.9-4.4-11.3-4.4-11.3s14.7 8.3 22.6 8.3q6.7 0 13.7-1.3L171 533l18.6-8.8 6.7 10.5c6.5-1 12.1-2 18-2.5l-5.4-10zm108.4 0 29 2-5.2 9.5c4 .8 13.7 2.7 17.1 3.1l7-10.7 18.1 8.8-5.3 5.8q6.8 1.3 13.5 1.3c7.6 0 22-8.3 22-8.3s-2.7 8.4-4.3 11.3c-1.7 2.8-5.3 5.8-5.3 5.8s4.2 2.6 6 6c1.7 3.2 1.2 10 1.2 10s-5.2-5.1-8.2-7.1c-2.6-1.9-5-4-8.6-4.5a83 83 0 0 0-13 .5l2.8 6.4-14.9 2.2-3.8-7.3c-6.8.5-13.6 1-19.2 1.2h-2.5l4.3 8.1s-10 1.9-14.9 2c-4.8 0-13.9-1.4-13.9-1.4s2-3.2 1.8-4.7-1.6-3-2.5-4q-7 0-12.4-.3c-8.4-.2-16-4.1-24.2-5.6l-7.4-1s2-2 4-2.9c2.2-.8 8.4-1 8.4-1s-6.1-1.1-9-2.4c-3-1.4-8.2-5.4-8.2-5.4s4.1-.4 8.4-1.5c4.8-1.2 5.7-4 17-5.5 3-.4 8.4-.9 14.7-.8z" fill="#056a9e" id="path53"/><path d="M247.3 531.4c-10 .2-22.1 1.1-31.6 2-14.1 1.5-42.5 8-51.2 8a38 38 0 0 1-13.4-2.7c-3-1.2-8.8-4.4-8.8-4.4s1.6 5.4 3.6 8.5 4.8 4.6 6 6.2c-1.6 1.3-2.2 1-5.3 4-3.2 3.2-3 9.2-3 9.2s3.3-3.4 6.5-5.6 6.4-4.2 9.9-4.6c3.4-.4 39.9 2.8 52.2 3 12.4 0 35 .1 40.2-.6 6.9-1 13.4-3.7 20.3-5 2.2-.4 6.7-.9 6.7-.9s-.9-.7-3.6-1.4-9.2.3-10.2-1.2c1.5-2 7.2-2.2 10.9-3.4 3.7-1.3 7.2-3.8 7.2-3.8s-3.9-.7-5.8-1.3c-5.4-1.4-6.3-3.4-15.8-5.1q-5.6-1-14.9-.9m10.9.4c1 1-7.4 5.5-7.8 12.5-.2 5.2 6.2 9.2 5.1 9.8-1 .7-7.2-4.3-6.9-9.7.5-7.3 8.5-13.5 9.6-12.6m-8 .8c1 1-7.3 5-8 11.5s5.1 9.2 4.1 10.1-6.6-4.4-6-9.6c.6-7 9-13 9.9-12m14 3.8q2.6.1 2.8 2.4c0 1.2-1.2 2.3-2.7 2.3s-2.7-1-2.7-2.3 1.2-2.4 2.7-2.4m-31.1 2.5 4.3 7.5-8.6.3zm-8.7.8 3.8 7-7.5.2zm-8 .6 3.4 6.5h-7zm-8.2.8 3.5 6-7.1.2zm-8 .7 3.3 5.5h-6.8zm-8.2.6 3 5-6 .2zm-8 .8 2.8 4.4-5.8.2zm-8.2.6 2.9 4-6 .2zm-7.7.7 2.2 3.5-4.6.2z" fill="#e6e6e6" id="path54"/><path d="M338.5 531.4c9.8.1 21.5 1 30.8 2 13.8 1.4 41.5 7.9 50 8 5 0 9.7-1.5 13-2.8 3-1.2 8.6-4.3 8.6-4.3s-1.5 5.4-3.5 8.5-4.7 4.5-5.8 6.2c1.5 1.2 2 .9 5.1 4s2.9 9.1 2.9 9.1-3.2-3.4-6.3-5.6-6.3-4.1-9.6-4.6c-3.4-.4-39 2.9-51 3-12.1 0-34.2.2-39.2-.6-6.7-1-13.1-3.7-19.8-5-2.2-.4-6.6-.8-6.6-.8s.9-.8 3.6-1.4c2.7-.7 9 .3 10-1.3-1.6-2-7-2.1-10.7-3.4s-7.1-3.8-7.1-3.8l5.7-1.2c5.2-1.4 6.2-3.5 15.4-5.2 3.5-.7 8.6-.9 14.5-.8m-10.6.3c-1 1 7.2 5.6 7.5 12.6.3 5.1-6 9-5 9.8 1 .7 7-4.4 6.7-9.7-.4-7.4-8.2-13.6-9.2-12.7m7.7.8c-.9 1 7.2 5 8 11.5s-5.2 9.2-4.2 10.2 6.5-4.5 6-9.7c-.7-7-8.8-13-9.8-12m-13.7 3.8c-1.5 0-2.6 1.1-2.6 2.4q.2 2.1 2.6 2.3c1.4 0 2.6-1 2.6-2.3s-1.2-2.4-2.6-2.4m30.4 2.5-4.2 7.6 8.4.2zm8.5.8-3.7 7 7.4.2zm7.9.6-3.4 6.6h6.8zm8 .8-3.6 6 7 .2zm7.7.7-3.2 5.5 6.6.1zm8 .7-2.8 5 5.8.1zm7.9.7-2.8 4.4 5.6.2zm7.9.7-2.8 4 5.8.1zm7.5.7-2.1 3.4 4.5.2z" fill="#e6e6e6" id="path55"/></g><g transform="translate(0 7.2)" id="g57"><path d="M604.4 404.2c-2.5-.2-4 4.8-12.1 5.1 0 0-1-10-1-15.6 7.4.2 20.3-4.9 25.9 1.7 2.7 3.1 2.9 11.2-1 12.3-8.3 2.2-9.3-3.4-11.8-3.5" id="path56"/><path d="M723.1 403.4c2.5 0 3.3 5.3 11.7 6 0 0 1.2-10.8 1.6-16.5-7.4-.3-19.5-5.7-25.4.8-2.7 3-3.7 11 .1 12.3 8 2.8 9.5-2.6 12-2.6" id="path57"/></g></g><!-- app4joy --></svg>