<svg width="899.91" height="600" viewBox="0 0 899.91 600" id="svg92" xmlns="http://www.w3.org/2000/svg"><g id="g93"><path fill="#fff" d="M0 .4h899.1v599.4H0z" id="path1"/><path fill="#008e1f" d="M651.8 0h248.1v600H651.8z" id="path2"/><path d="M399.2 0h98.9q.1 150.1.4 300l.3 300h-99.6V-.2" fill="#0039a6" id="path3"/><path fill="#d20000" d="M0 0h248.1v600H0z" id="path92"/></g><g id="g92"><path d="M249 427h150.2v6.5H249zm249.1-.2h152.7v6.5H498.1z" id="path4"/><path d="M399.2 425.8h99.4v9.2h-99.5z" fill="#fff" id="path5"/><path d="M392.4 231.7h114v-8.3a59 59 0 0 0-37.7-36.3l-2.1-.6v-6H432v6.2l-1.3.3a60 60 0 0 0-38.4 36.5v8.5" fill="gold" id="path6"/><path d="m311.6 419.9-4.5-1.3 5.9-5 4.9 1.1z" fill="#d20000" id="path7"/><path d="m311.6 419.9-4.5-1.3 5.9-5 4.9 1.1z" fill="none" stroke="#000" stroke-miterlimit="22.93" stroke-width=".62" id="path8"/><path d="m304.2 418-4.5-1.4 5.8-5 4.9 1.2q-3.1 2.8-6.2 5.1" fill="#d20000" id="path9"/><path d="m304.2 418-4.5-1.4 5.8-5 4.9 1.2q-3.1 2.8-6.2 5.1z" fill="none" stroke="#000" stroke-miterlimit="22.93" stroke-width=".62" id="path10"/><path d="M280.4 200.9a6 6 0 0 1 8.7-2.9c3.7 3.4 3.2 4.2 6 8.8 1 1.8 3.5 4 6 7a70 70 0 0 1 13 27.6c3.3 15-1.9 28.4-7.4 39.5-3.8 6.5-8 12.6-11.3 19.4-2.5 5.4-5 9.9-4.8 16.9.2 4.2 1.4 8.4 6.9 7.2a12 12 0 0 0 6.2-5.1l1.8-2c-.6 6.4.4 13-1.9 17.9a14 14 0 0 1-10.9 4.9 13.5 13.5 0 0 1-14.5-9.7c-8.9-24.6 3.9-68 3.9-85.8 0-21.9-8.1-34.6-1.7-43.7m23.2-46.2a11 11 0 0 0 .6 6.5c-.4-5.7-.5-10.8 3.4-13.9 3.7-2 8.2 1 9.5 5.7 0-2 1.6-6 3-5.5 2 0 1.4 4.4 2.9 6.4a61 61 0 0 1 17.6 9.5c2.3 1.8 4.1 2.2 4.4 4.7.6 6.3-5 6.6-12.2 5.3-1.5 1.4 2.4 2.7 4 2.9a2.3 2.3 0 0 1-1.3 2.7 45 45 0 0 1-11 .3c-2.9.2-3.7 5.4 1.6 7.8a103 103 0 0 1 39 27.7l-32.8 20.1a103 103 0 0 0-28.4-42.3 34 34 0 0 1-9.4-21.4 19 19 0 0 1 9.2-16.5" id="path11"/><path d="M328.3 160.2a4 4 0 0 1 2.8 3.7c0 1.7-3 1.4-5.1.5a3 3 0 0 1-2.3-3.8c.4-1.3 2.5-1.3 4.6-.4" fill="#fff" id="path12"/><path d="M327.9 160.8a1.5 1.5 0 1 1-1.5 1.5 1.5 1.5 0 0 1 1.5-1.5" id="path13"/><path d="M342 164.3a9 9 0 0 1 4.8 2c1.5 3-1.8 5.3-2.1 4.6a4 4 0 0 0-.6-2.8c-.8-.2-1.2.8-1.4 1.3a7 7 0 0 1-.7-5.1" fill="#fff" id="path14"/><path d="M342 164.3a9 9 0 0 1 4.8 2c1.5 3-1.8 5.3-2.1 4.6a4 4 0 0 0-.6-2.8c-.8-.2-1.2.8-1.4 1.3a7 7 0 0 1-.7-5.1" fill="none" id="path15"/><path d="M337 175c2.7-.2 5.2.8 8.2-.8a6.6 6.6 0 0 1 9.2.2c1.8 1 4.8-.3 6.8-.5a5 5 0 0 1-6.2 5c-2.7-.2-3-2-6-2.2-2.5 0-2.8 2.4-4.8 2.6-4-.4-4.1-2.8-7.3-4.2" fill="#d20000" id="path16"/><path d="M322.2 181.5c.4-2.2 1.8-2.4 5-2.1a2.2 2.2 0 0 0-.9 3.8c3.4 4 13 9 20.4 15.1a104 104 0 0 0-21.8-11.7 5 5 0 0 1-2.8-5.1" fill="#fff" id="path17"/><path d="M322.2 181.5c.4-2.2 1.8-2.4 5-2.1a2.2 2.2 0 0 0-.9 3.8c3.4 4 13 9 20.4 15.1a104 104 0 0 0-21.8-11.7 5 5 0 0 1-2.8-5.1" fill="none" id="path18"/><path d="M309.9 152.2c1.4-1 3.4.7 3.4 3.2-2.5-.5-3.2.7-3.6 4.4-1.8-1.7-2-6.3.1-7.6" fill="#fff" id="path19"/><path d="M397.3 180.5c-2.5-3.4-13.2 2.8-7.8 14 .9 22.7-14.6 21.5-25.2 16a66 66 0 0 1 10.4 24.5c0 .3 16.3-8 20.5-19.6 2.3-10 9.6-34.5 2-35" id="path20"/><path d="M401 180.4a3 3 0 0 0-4.2.8 1.3 1.3 0 0 1-.6-2.4 4 4 0 0 1 4.8 1.6" fill="#fff" id="path21"/><path d="M401 180.4a3 3 0 0 0-4.2.8 1.3 1.3 0 0 1-.6-2.4 4 4 0 0 1 4.8 1.6z" fill="none" stroke="#000" stroke-miterlimit="22.93" stroke-width=".62" id="path22"/><path d="M402.5 183a3 3 0 0 0-4.2.8 1.2 1.2 0 0 1-.6-2.4 4 4 0 0 1 4.8 1.6" fill="#fff" id="path23"/><path d="M402.5 183a3 3 0 0 0-4.2.8 1.2 1.2 0 0 1-.6-2.4 4 4 0 0 1 4.8 1.6z" fill="none" stroke="#000" stroke-miterlimit="22.93" stroke-width=".62" id="path24"/><path d="M402.7 185.8a2.5 2.5 0 0 0-3.5.5l-.1.2a1.1 1.1 0 0 1-.6-2 4 4 0 0 1 4.2 1.3" fill="#fff" id="path25"/><path d="M402.7 185.8a2.5 2.5 0 0 0-3.5.5l-.1.2a1.1 1.1 0 0 1-.6-2 4 4 0 0 1 4.2 1.3z" fill="none" stroke="#000" stroke-miterlimit="22.93" stroke-width=".62" id="path26"/><path d="M341 344.3a52 52 0 0 1 10-42.6c-1.8 8.8-2.3 14.4 6.1 16.7 21.8 11.3 24.3 22.2 17 55.4-2.3 5.1 3 13.8 9.2 18.8 7 .8 15.5-2 18 5.7.1 6.6-5.4 11.8-15 10.9-15-4.1-15.4-19-25.6-29.1.5-6.7 3.9-10.4-.9-16.1-4.4-6.6-15.8-6.6-18.8-19.9" id="path27"/><path d="m331.8 233.9 32.5-20.4c8.1 10.5 11 19.7 15 30.5 2.8 6 5 5.2 8.8-2s5-8 9.1-10.3h14.6v2.5c0 4.5 0 11.6-10.7 14.9-4 .3-5.9-.9-8 1.4-3.8 4.7-2.6 16.7-10.2 16.7-7-.5-11.4-7-18.5-16.5 1.6 4 2.4 7.3 6.3 10.3-5.3 22.7-11.4 26-19 37.9-5.8 9.8-12.8 17.7-13 34.3-.7 8.6 2.3 14.8 1.3 24.5-.6 5-1.6 15.1-9.9 20.8-7.2 6.5-18.7 2.9-26.8 7.5-2.8 2.4-4.8 10.2-3.3 17.5a3.7 3.7 0 0 0 3.6 3.7c7.9-1 14 .5 15.3 6 .5 5-13.3 10.5-18.4 9.3-5.7-1-9.3-9.9-10.4-16v-20.3c.6-12.7 17.1-6 14.1-27.4a31 31 0 0 1 1.6-22.2c0-11.9-1-22.7 6.2-33.5 10.6-22.1 25.5-42.6 19.8-69.1" id="path28"/><path d="M389.5 407.3q1-1.4 2.6-.3a8 8 0 0 1-1 6.7c-.3-2.7-2-4.9-1.6-6.4" fill="#fff" id="path29"/><path d="M389.5 407.3q1-1.4 2.6-.3a8 8 0 0 1-1 6.7c-.3-2.7-2-4.9-1.6-6.4z" fill="none" stroke="#000" stroke-miterlimit="22.93" stroke-width=".62" id="path30"/><path d="M393.2 407a1.6 1.6 0 0 1 3-.5c.9 2.8-.8 4.4-1.6 6.5.2-3.6-1-3.2-1.4-6" fill="#fff" id="path31"/><path d="M393.2 407a1.6 1.6 0 0 1 3-.5c.9 2.8-.8 4.4-1.6 6.5.2-3.6-1-3.2-1.4-6z" fill="none" stroke="#000" stroke-miterlimit="22.93" stroke-width=".62" id="path32"/><path d="M396.9 404.6c0-1 2.2-1.8 2.8-.5.8 2.9-1 4.2-1.8 6.2.7-3.5-.9-3.2-1-5.7" fill="#fff" id="path33"/><path d="M396.9 404.6c0-1 2.2-1.8 2.8-.5.8 2.9-1 4.2-1.8 6.2.7-3.5-.9-3.2-1-5.7z" fill="none" stroke="#000" stroke-miterlimit="22.93" stroke-width=".62" id="path34"/><path d="M399.7 401.6c0-1 1.2-2.3 2.2-.4 1 2.6-1 4-1.7 5.7 1.1-3.9-1-3.6-.5-5.3" fill="#fff" id="path35"/><path d="M399.7 401.6c0-1 1.2-2.3 2.2-.4 1 2.6-1 4-1.7 5.7 1.1-3.9-1-3.6-.5-5.3z" fill="none" stroke="#000" stroke-miterlimit="22.93" stroke-width=".62" id="path36"/><path d="M307.1 420a2 2 0 0 1 2.6-.2 5 5 0 0 1-1 5.3c-.3-2.1-2-4-1.6-5.1" fill="#fff" id="path37"/><path d="M307.1 420a2 2 0 0 1 2.6-.2 5 5 0 0 1-1 5.3c-.3-2.1-2-4-1.6-5.1z" fill="none" stroke="#000" stroke-miterlimit="22.93" stroke-width=".62" id="path38"/><path d="M310.8 419.9a1.7 1.7 0 0 1 3-.5c.9 2.2-.8 3.4-1.7 5 .3-2.8-.9-2.4-1.3-4.5" fill="#fff" id="path39"/><path d="M310.8 419.9a1.7 1.7 0 0 1 3-.5c.9 2.2-.8 3.4-1.7 5 .3-2.8-.9-2.4-1.3-4.5z" fill="none" stroke="#000" stroke-miterlimit="22.93" stroke-width=".62" id="path40"/><path d="M314.5 417.9c0-.8 2.2-1.5 2.7-.5.8 2.3-1 3.4-1.9 5 .9-2.7-.7-2.5-.8-4.5" fill="#fff" id="path41"/><path d="M314.5 417.9c0-.8 2.2-1.5 2.7-.5.8 2.3-1 3.4-1.9 5 .9-2.7-.7-2.5-.8-4.5z" fill="none" stroke="#000" stroke-miterlimit="22.93" stroke-width=".62" id="path42"/><path d="M317.2 415.5a1.1 1.1 0 0 1 2.2-.3c1 2-1 3.1-1.7 4.5 1.2-3-1-3-.5-4.2" fill="#fff" id="path43"/><path d="M317.2 415.5a1.1 1.1 0 0 1 2.2-.3c1 2-1 3.1-1.7 4.5 1.2-3-1-3-.5-4.2z" fill="none" stroke="#000" stroke-miterlimit="22.93" stroke-width=".62" id="path44"/><path d="M412.2 230a5 5 0 0 1-2.2 5.6c-.4 2 1.2 3.3 2.1 1.7a9 9 0 0 0 0-7.4" fill="#fff" id="path45"/><path d="M412.2 230a5 5 0 0 1-2.2 5.6c-.4 2 1.2 3.3 2.1 1.7a9 9 0 0 0 0-7.4z" fill="none" stroke="#000" stroke-miterlimit="22.93" stroke-width=".62" id="path46"/><path d="M410.4 230.7a4 4 0 0 1-2.2 5.2c-.4 1.9 1.5 3 2.5 1.6a7 7 0 0 0-.3-6.8" fill="#fff" id="path47"/><path d="M410.4 230.7a4 4 0 0 1-2.2 5.2c-.4 1.9 1.5 3 2.5 1.6a7 7 0 0 0-.3-6.8z" fill="none" stroke="#000" stroke-miterlimit="22.93" stroke-width=".62" id="path48"/><path d="m586.7 419.5 4.6-1.3-6-5-4.8 1.3z" fill="#d20000" id="path49"/><path d="m586.7 419.5 4.6-1.3-6-5-4.8 1.3z" fill="none" stroke="#000" stroke-miterlimit="22.93" stroke-width=".62" id="path50"/><path d="m594.3 417.5 4.5-1.3-5.9-5q-2.4.7-4.9 1.2 3 2.7 6.3 5.1" fill="#d20000" id="path51"/><path d="m594.3 417.5 4.5-1.3-5.9-5q-2.4.7-4.9 1.2 3 2.7 6.3 5.1z" fill="none" stroke="#000" stroke-miterlimit="22.93" stroke-width=".62" id="path52"/><path d="M618 200.8a6.2 6.2 0 0 0-8.7-2.9c-3.7 3.4-3.3 4.3-6 8.8-1.1 1.8-3.6 4-6 6.9a70 70 0 0 0-13 27.7c-3.4 14.8 1.8 28.4 7.3 39.3 3.9 6.5 8.1 12.6 11.4 19.5 2.4 5.4 5 9.8 4.8 17-.2 4.2-1.4 8.2-7 7a11 11 0 0 1-6-5l-2-2c.7 6.4-.4 13 2 17.9a15.2 15.2 0 0 0 25.4-4.8c8.9-24.6-4-68-4-85.7 0-21.8 8.2-34.5 1.7-43.6m-23-46.4a11 11 0 0 1-.7 6.5c.4-5.7.5-10.6-3.4-13.8-3.7-2.1-8.2 1-9.6 5.7 0-2-1.4-6-3-5.5-2 0-1.2 4.3-2.8 6.3a61 61 0 0 0-17.5 9.6c-2.3 1.8-4.2 2.2-4.5 4.7-.6 6.3 5 6.6 12.2 5.3 1.5 1.5-2.4 2.7-4 2.9a2 2 0 0 0 1.3 2.6 45 45 0 0 0 11 .4c2.8.2 3.7 5.4-1.6 7.9a103 103 0 0 0-39 27.6l32.8 20a103 103 0 0 1 28.4-42.2A34 34 0 0 0 604 171a19 19 0 0 0-9.1-16.6" id="path53"/><path d="M570.1 160a4 4 0 0 0-2.8 3.7c.1 1.7 3 1.4 5 .5a3 3 0 0 0 2.4-3.7c-.5-1.4-2.5-1.4-4.5-.5" fill="#fff" id="path54"/><path d="M570.5 160.6a1.5 1.5 0 0 0 0 3 1.5 1.5 0 0 0 1.6-1.4v-.1a1.5 1.5 0 0 0-1.5-1.5z" id="path55"/><path d="M570.5 160.6a1.5 1.5 0 0 0 0 3 1.5 1.5 0 0 0 1.6-1.4v-.1a1.5 1.5 0 0 0-1.5-1.5z" fill="none" stroke="#000" stroke-miterlimit="22.93" stroke-width=".62" id="path56"/><path d="M556.5 164.1a9 9 0 0 0-5 2c-1.5 3 1.9 5.4 2.2 4.7a4 4 0 0 1 .6-2.9c.8-.2 1.2.7 1.4 1.3a7 7 0 0 0 .8-5.1" fill="#fff" id="path57"/><path d="M556.5 164.1a9 9 0 0 0-5 2c-1.5 3 1.9 5.4 2.2 4.7a4 4 0 0 1 .6-2.9c.8-.2 1.2.7 1.4 1.3a7 7 0 0 0 .8-5.1" fill="none" id="path58"/><path d="M561.3 174.8c-2.6-.2-5.1.9-8.2-.8a6.4 6.4 0 0 0-9 .2c-1.9 1-4.9-.3-7-.5a5 5 0 0 0 6.2 5c2.8-.2 3-2 6-2.1s2.8 2.3 4.8 2.5c4-.4 4-2.8 7.2-4.2" fill="#d20000" id="path59"/><path d="M576.2 181.3c-.5-2-1.8-2.3-5-2 1.8 0 2 2.4 1 3.7-3.4 4-13 9.1-20.4 15.2a101 101 0 0 1 21.7-11.7 5 5 0 0 0 2.7-5.2" fill="#fff" id="path60"/><path d="M576.2 181.3c-.5-2-1.8-2.3-5-2 1.8 0 2 2.4 1 3.7-3.4 4-13 9.1-20.4 15.2a101 101 0 0 1 21.7-11.7 5 5 0 0 0 2.7-5.2" fill="none" id="path61"/><path d="M588.5 152c-1.4-1-3.5.7-3.5 3.2 2.5-.5 3.3.7 3.6 4.4 1.9-1.7 2-6.3-.1-7.6" fill="#fff" id="path62"/><path d="M500.6 180.2c2.4-3.4 13.1 2.8 7.8 13.9-.6 22.7 14.8 21.3 25.4 15.9a64 64 0 0 0-10.2 24.4c0 .3-16.3-7.9-20.7-19.4-2.4-10-10-34.4-2.3-34.9" id="path63"/><path d="M495.7 181a3 3 0 0 1 4 .5l.2.3a1.3 1.3 0 0 0 .6-2.5 4.4 4.4 0 0 0-4.8 1.6" fill="#fff" id="path64"/><path d="M495.7 181a3 3 0 0 1 4 .5l.2.3a1.3 1.3 0 0 0 .6-2.5 4.4 4.4 0 0 0-4.8 1.6z" fill="none" stroke="#000" stroke-miterlimit="22.93" stroke-width=".62" id="path65"/><path d="M495 183.2a2.4 2.4 0 0 1 3.4.4l.2.2a1 1 0 0 0 .4-2 4 4 0 0 0-4 1.4" fill="#fff" id="path66"/><path d="M495 183.2a2.4 2.4 0 0 1 3.4.4l.2.2a1 1 0 0 0 .4-2 4 4 0 0 0-4 1.4z" fill="none" stroke="#000" stroke-miterlimit="22.93" stroke-width=".62" id="path67"/><path d="M498.3 178.8a2.5 2.5 0 0 1 3.4 1l.2.2a1.1 1.1 0 0 0 .7-2 4 4 0 0 0-4.3.8" fill="#fff" id="path68"/><path d="M498.3 178.8a2.5 2.5 0 0 1 3.4 1l.2.2a1.1 1.1 0 0 0 .7-2 4 4 0 0 0-4.3.8z" fill="none" stroke="#000" stroke-miterlimit="22.93" stroke-width=".62" id="path69"/><path d="M557.3 344.1c2.7-22.4-2.3-31.2-9.9-42.6 1.8 9 2.3 14.6-6.2 16.8-21.8 11.3-24.2 22.2-17 55.3 2.3 5.1-3 13.9-9.2 18.8-7 .8-15.5-2-18 5.9-.1 6.5 5.4 11.6 15 10.7 15.1-4 15.5-18.9 25.6-29-.5-6.8-3.9-10.4 1-16.1 4.3-6.6 15.7-6.6 18.7-20" id="path70"/><path d="M566.7 233.7 534 213.3c-8 10.5-11 19.7-15 30.5-2.8 6-5 5.2-8.8-2s-5-8-9.1-10.3h-14.5a7 7 0 0 0 0 2.6c0 4.4 0 11.4 10.7 14.8 4 .3 5.8-.8 8 1.5 3.8 4.5 2.6 16.5 10.2 16.6 6.9-.6 11.3-7 18.5-16.5-1.7 4-2.5 7.2-6.4 10.3 5.3 22.7 11.4 26 19 37.8 5.8 9.9 12.9 17.7 13 34.4.7 8.5-2.3 14.7-1.2 24.5.4 4.8 1.4 15 9.8 20.8 7.2 6.4 18.7 2.8 26.8 7.5 2.9 2.3 4.8 10 3.3 17.4a3.7 3.7 0 0 1-3.5 3.7c-8-1.1-14.2.5-15.4 5.9-.5 5 13.3 10.4 18.5 9.3s9.2-9.9 10.3-16v-20.3c-.7-12.7-17.2-6-14-27.3a31 31 0 0 0-1.6-22.2c0-12 1-22.7-6.2-33.5-10.7-22.2-25.6-42.6-19.9-69.1" id="path71"/><path d="M508.9 407q-1-1.4-2.6-.3a8 8 0 0 0 1 6.8c.3-2.7 2-5 1.6-6.5" fill="#fff" id="path72"/><path d="M508.9 407q-1-1.4-2.6-.3a8 8 0 0 0 1 6.8c.3-2.7 2-5 1.6-6.5z" fill="none" stroke="#000" stroke-miterlimit="22.93" stroke-width=".62" id="path73"/><path d="M505.1 406.8a1.6 1.6 0 0 0-2.8-.6c-1 2.9.7 4.5 1.7 6.5-.5-3.6.7-3.1 1.1-5.9" fill="#fff" id="path74"/><path d="M505.1 406.8a1.6 1.6 0 0 0-2.8-.6c-1 2.9.7 4.5 1.7 6.5-.5-3.6.7-3.1 1.1-5.9z" fill="none" stroke="#000" stroke-miterlimit="22.93" stroke-width=".62" id="path75"/><path d="M501.5 404.3c0-1-2.3-1.8-2.7-.4-.8 2.8 1 4.1 1.8 6.2-.7-3.5.8-3.2 1-5.8" fill="#fff" id="path76"/><path d="M501.5 404.3c0-1-2.3-1.8-2.7-.4-.8 2.8 1 4.1 1.8 6.2-.7-3.5.8-3.2 1-5.8z" fill="none" stroke="#000" stroke-miterlimit="22.93" stroke-width=".62" id="path77"/><path d="M498.8 401.4c0-1-1.3-2.3-2.2-.4-1 2.6.9 3.9 1.6 5.7-1.2-3.9 1-3.7.6-5.3" fill="#fff" id="path78"/><path d="M498.8 401.4c0-1-1.3-2.3-2.2-.4-1 2.6.9 3.9 1.6 5.7-1.2-3.9 1-3.7.6-5.3z" fill="none" stroke="#000" stroke-miterlimit="22.93" stroke-width=".62" id="path79"/><path d="M591.3 419.7a2 2 0 0 0-2.5-.3h-.1a5 5 0 0 0 1 5.4c.3-2.2 2-4 1.6-5.2" fill="#fff" id="path80"/><path d="M591.3 419.7a2 2 0 0 0-2.5-.3h-.1a5 5 0 0 0 1 5.4c.3-2.2 2-4 1.6-5.2z" fill="none" stroke="#000" stroke-miterlimit="22.93" stroke-width=".62" id="path81"/><path d="M587.6 419.5a1.8 1.8 0 0 0-3-.5c-.9 2.3.7 3.6 1.6 5.2-.3-2.9 1-2.5 1.4-4.7" fill="#fff" id="path82"/><path d="M587.6 419.5a1.8 1.8 0 0 0-3-.5c-.9 2.3.7 3.6 1.6 5.2-.3-2.9 1-2.5 1.4-4.7z" fill="none" stroke="#000" stroke-miterlimit="22.93" stroke-width=".62" id="path83"/><path d="M584 417.5c0-.8-2.3-1.4-2.7-.4-.8 2.4 1 3.4 1.8 5-.9-2.8.7-2.6.9-4.6" fill="#fff" id="path84"/><path d="M584 417.5c0-.8-2.3-1.4-2.7-.4-.8 2.4 1 3.4 1.8 5-.9-2.8.7-2.6.9-4.6z" fill="none" stroke="#000" stroke-miterlimit="22.93" stroke-width=".62" id="path85"/><path d="M581.1 415.2a1.1 1.1 0 0 0-2-.3c-1 2 .8 3 1.6 4.6-1.3-3.2 1-3 .4-4.3" fill="#fff" id="path86"/><path d="M581.1 415.2a1.1 1.1 0 0 0-2-.3c-1 2 .8 3 1.6 4.6-1.3-3.2 1-3 .4-4.3z" fill="none" stroke="#000" stroke-miterlimit="22.93" stroke-width=".62" id="path87"/><path d="M486.2 229.8a5 5 0 0 0 2.2 5.6c.3 2-1.2 3.2-2.2 1.7a9 9 0 0 1 0-7.3" fill="#fff" id="path88"/><path d="M486.2 229.8a5 5 0 0 0 2.2 5.6c.3 2-1.2 3.2-2.2 1.7a9 9 0 0 1 0-7.3z" fill="none" stroke="#000" stroke-miterlimit="22.93" stroke-width=".62" id="path89"/><path d="M488 230.5c-.6 3.6.4 3.8 2.2 5.2.3 1.9-1.5 3-2.5 1.6a6 6 0 0 1 .3-6.8" fill="#fff" id="path90"/><path d="M488 230.5c-.6 3.6.4 3.8 2.2 5.2.3 1.9-1.5 3-2.5 1.6a6 6 0 0 1 .3-6.8z" fill="none" stroke="#000" stroke-miterlimit="22.93" stroke-width=".62" id="path91"/></g><!-- app4joy --></svg>