<svg width="450" height="300" id="svg2" viewBox="0 0 450 300" xmlns="http://www.w3.org/2000/svg"><g id="g3"><path fill="#e00000" id="rect1" d="M0 0h450v300H0z"/><path fill="#fff" id="rect2" d="M150 0h150v300H150z"/></g><g id="g2"><path fill="#00f" d="m200 0-2 6-2 6v6c0 10 8 23 8 33s-8 23-8 33 8 23 8 33-8 23-8 33 8 23 8 33-8 23-8 33 8 23 8 33-8 23-8 33c0 4 2 12 4 18h50c-2-6-4-14-4-18 0-10 8-23 8-33s-8-23-8-33 8-23 8-33-8-23-8-33 8-23 8-33-8-23-8-33 8-23 8-33-8-23-8-33c0-6 2-12 4-18z" id="path2"/></g><!-- app4joy --></svg>