<svg width="480" height="320" fill-rule="evenodd" viewBox="0 0 480 320" id="svg117" xmlns="http://www.w3.org/2000/svg"><g fill-rule="evenodd" id="g2"><path d="M0 0h480v320H0z" fill="#e21c2a" id="path1"/><path d="M0 255.8h480V320H0z" fill="#008ed1" id="path2"/></g><g id="g117"><g fill-rule="evenodd" id="g6"><path d="M177.3 181.8V39.3h134.9V185l-.2 1.8-.1 1.7-.3 1.6-.3 1.6-.5 1.5-.5 1.4-.5 1.4-.7 1.4-.7 1.3-.8 1.2-1 1.2-.9 1.2-1 1-1.1 1-1.2 1-1.3 1-1.3.8-1.4.8-1.5.8-1.5.7-1.6.7-1.7.6-1.8.5-1.8.5-1.9.5-2 .4-2 .3-2.1.3-2.2.3-2.2.2-2.3.2H271l-1.3.1-1.3.1-1.2.2h-1.3l-1.2.2-1.1.2-1.2.2-1.1.2-1 .3-1.1.2-1 .3-1 .3-1 .3-1 .3-.8.4-.9.3-.8.4-.8.4-.7.4-.8.5-.6.4-.7.4-.6.5-.6.5-.6.5-.5.5-.5.5-.4.6-.4.5-.8 1.2-.8-1.3-.4-.5-.5-.6-.5-.6-.6-.5-.6-.5-.7-.5-.7-.5-.7-.5-.8-.4-.9-.4-.9-.5-.9-.4-1-.3-1-.4-1-.3-1.1-.4-1.1-.3-1.2-.3-1.2-.2-1.2-.3-1.2-.2-1.3-.2-1.4-.2-1.3-.2-1.4-.2-1.4-.1-1.4-.1-1.4-.1-1.5-.1-1.5-.1h-1.5l-2-.2-2-.3-2-.3-1.8-.3-1.8-.4-1.7-.4-1.7-.5-1.6-.5-1.6-.5-1.5-.7-1.4-.6-1.4-.8-1.3-.7-1.3-.9-1.2-.8-1.1-1-1-1-1-1-1-1.1-.9-1.2-.8-1.2-.7-1.3-.7-1.3-.6-1.4-.5-1.5-.5-1.5-.4-1.6-.3-1.6-.2-1.7-.2-1.8-.1-1.8z" fill="#2c2c2b" id="path3"/><path d="M177.8 173.6V40h133.8v133.7H297l-4.5-56.9 4.7-6.5v-6.7h-6.6v3.4h-3.8v-3.4h-6.3v3.5h-3.8v-3.5h-5.8v6.7l4.3 6.5v3.2l-1.5-1.3v-2.8l-3.1-2v2.7l-2-1.7V112l-2.7-2v2.6l-2.7-2V108l-2.8-2.6v3.5l-1.3-1v-4.7l4.5-6.4V90h-4.1v-.1l-.1-.1v-.1h-.1l-.1-.1h-.2v-.1h-1.3l-.4-.2.1.2-.2-.1v-.1l-.1-.1h-.1l-.1-.1-.1-.1h-.1l-.1-.2h-.2l-.1-.2h-.2l-.2-.2-.3-.1-.1-.1h-.2V88h-.2l-.1-.1-.3-.1v-.1l-.1-.1h-.1v-.1h-.1l-.2-.2v-.2l-.2-.2v-.2l-.1-.2-.1-.2v-.2l-.2-.2v.1l-.2-.2-.1-.1-.1-.2-.2-.1V85h-.2l-.2-.2-.1-.1-.2-.1-.1-.1h-.2l-.2-.2h-.4l-.2-.1-.3-.1v.1-.1l-.1-.1-.1-.2h-.1v-.1l-.1-.1-.1-.1v-.1h-.2v-.1l-.2-.1-.1-.1-.1-.1h-.4v-.6l.1-.2V82l.1-.1v-.4l.1-.2v-1.1l.1-.2v-.8.2l.1.1v.2l.1.1v.1l.1.1v.1l.1.1v.1l.1.1v.1l.1.1v.1l.1.1v.1l.1.1v.1h.1v.3h.1v.4l.1.1v1l-.2 1 .5-1.1v.1l.1.1v.1l.1.1.1.1.1.1h.4l.1-.1.1-.1.1-.2.1-.2.1-.1.1-.2v-.2l.2-.1V82l.1-.2v-.1l.2-.2v-.3l.1-.2v-.2l.1-.1v-.2l.1-.2v-.2l.1-.1v-.4l.1-.1v-.6.7l.1.2v1l.1.2v.4l.1.2v.1l.1.2v.2l.1.2v.2l.1.2v.2l.2.1v.2l.1.2v.2h.2v.2h.6v-.1l.1-.2.1-.1v-.3l.1-.2v-.5l.1-.1v-.8l.1-.2V79l.1.3v.1l.1.2.1.2v.2l.1.2v.1l.2.2v.3l.2.2v.2l.1.2.1.1v.2l.2.2v.1l.1.2.1.1.1.2.1.2.1.1.1.2.1.1.1.2.1.1.1.2.1.2h.2v.1h.4l.1-.1.1-.1v-.3l.1-.2v-1.9l-.1-.1v-.4l-.1-.1v-.2l-.1-.1v-.2l-.1-.3v-.2l-.1-.1v-.3l-.1-.2v-.2l-.1-.1v-.2.1l.2.2.2.2.2.2.1.2.2.2.2.2.2.2.2.2.2.2.2.2.2.2.2.2.2.2.3.1.2.2.2.2.3.1.3.2h.3v.1h.5V82h.1v-1l-.1-.1v-.2l-.2-.2v-.3l-.1-.2-.1-.1-.1-.2v-.2l-.2-.1v-.2l-.1-.1-.1-.2-.1-.1v-.2l-.2-.1v-.2l-.2-.1V78l-.2-.1v-.1l-.4-.5v-.1l-.2-.2-.2-.1-.1-.2-.1-.1.3.1.2.2.2.1.2.1.2.2h.2l.2.2h.2l.2.2h.2l.2.2h.2l.2.1.2.1h.2l.2.2h.4l.2.1h.2l.2.1h.2l.2.1h.1l.2.1h.9l.1-.1h.1v-.1l.1-.1v-.1h.1v-.8l-.2-.2V77h-.1l-.1-.2-.2-.2-.2-.2v-.1l-.2-.2h-.1l-.2-.2v-.1l-.2-.2h-.2v-.2l-.2-.1-.2-.1-.1-.1-.2-.1-.1-.2h-.2l-.1-.2h-.2l-.1-.2-.2-.1-.1-.1-.2-.1-.2-.1-.1-.1-.2-.1-.1-.1h.1l.3.1h.2l.3.1h.2l.2.1h.3l.2.1h3.2l.2-.1h.3l.2-.1h.3v-.1h.1l.1-.1.2-.1v-.1h.1v-.1h.1v-.2l.1-.1v-.5l-.1-.1-.1-.1-.1-.1v-.1h-.1v-.1h-.2V72l-.1-.1-.2-.1v-.1h-.2l-.1-.2h-.2v-.1h-.2l-.1-.2h-.2l-.2-.2h-.3l-.1-.1-.1-.1h-.2v-.1l-.3-.1h-.2v-.1h-.2l-.2-.1-.2-.1h-.1l-.2-.1h-.1l-.3-.2h-.6.8l.4-.1.4-.1.4-.1.4-.1.3-.2.4-.1.3-.2.3-.2.3-.2.3-.2.3-.3.2-.2.3-.3.2-.2.2-.3.2-.3.1-.3.2-.2v-.3l.2-.3v-.6l.1-.3v-.6l-.3.3-.1.1-.1.1v.1h-.1v.1h-.1v.1l-.2.1-.1.1h-.2v.1h-.2v.1h-.4l-.2.1h-2l-.3-.1h-.6v-.1h-1.4l.2-.1.4-.1.4-.2.4-.1.4-.2.4-.2.3-.2.3-.2.3-.2.3-.2.3-.3.2-.2.2-.3.2-.3.2-.3.2-.3.1-.3.2-.3v-.3l.2-.4v-.3l.1-.4v-2.3l-.3.5v.2l-.2.1-.1.1-.1.2-.2.1v.2h-.2l-.1.2-.2.1-.1.2h-.1l-.2.2-.1.1-.2.1-.2.1-.1.1-.2.1-.2.1h-.2l-.2.2h-.1l-.3.1h-.2l-.2.1h-.2l-.2.1h-.3l-.2.1h-.6l.4-.3.4-.3.3-.3.3-.3.3-.3.3-.3.3-.3.2-.3.2-.3.2-.4.2-.3.1-.4.1-.3.2-.4v-.3l.1-.4v-.4l.1-.3v-2.4l-.3-1.1-.1.8v.2l-.1.1v.3l-.1.2v.2h-.1v.2h-.1v.2h-.1v.2h-.1l-.1.2-.2.2-.2.1v.1l-.2.1v.1h-.2l-.1.2h-.2l-.1.1h-.2l-.2.2h-.3l-.2.2h-.1l-.1.1h-.2l-.1.1-.1.1-.2.1h-.1l-.1.2h-.1l-.2.2-.2.2h-.1l-.1.1-.1.1-.1.2h-.1l-.1.2h-.1l-.1.2-.1.1-.1.1v.1l-.2.2-.1.2-.1.1v.2h-.2v.2-.7h.1v-.1h.1v-1h-.1v-.1h-.1l-.2-.2v.4h-.1v.1l-.1.1h-.1v.1h-.5V57h.1v-.2h.1v-.1h.1l.1-.1h.1v-.1h.1l.1-.1h.1v-.1h.1v-.1h.1V56h.1l.1-.1v-.3h.1v-.9l-.1-.2v-.2l-.1-.1V54h-.1v-.2l-.1-.1v-.1l-.1-.1v-.1l-.1-.1-.1-.1V53l-.1-.1h-.1v-.2h-.2v-.1l-.1-.1h-.1l-.1-.2h-.2l-.1-.2h-.2l-.1-.1h-.1l-.1-.1h-.1l-.2-.1-.2-.1h-.2l-.2-.1h-.7l-.1.1h-.2v.1h-.1v.1l-.1.1-.1.1-.1.1v.2h-.1v.1l-.1.1v.1h-.1V57l-.1.1v.2h-.1v.1h-.1v.1h-.1v.1h-.1v-.1h-.1v-.1h-.1v-.1h-.2l-.1-.1.1-.1V57h.1v-.2l.1-.1v-.3l.2-.8.1-.2.1-.2V55h.1v-.3h.1v-.9l-.1-.1v-.1l-.1-.1v-.1h-.1v-.1h-.1V53l-.1-.1-.1-.1h-.1v-.1h-.1v-.1h-.1l-.2-.1-.1-.1h-.2l-.1-.1h-.3v-.1h-.5V52h-.1v-.2l-.1-.1v-.1h-.1v-.1h.2v-.1h.1V51l-.1-.1h-.2v-.2h-.1v-.1h-.4v.1h-.1v.1h-.1v.1h-.1l-.1.1v.3h.2v.2h.1v.1h-.1v.2l-.1.1v.3h-.7l-.1.1h-.2v.1h-.2v.1h-.2v.1h-.1l-.1.1-.1.1-.1.1h-.1v.1l-.1.1-.1.2-.1.1v.1l-.1.2V55h.1v.2l.1.1v.2h.1v.3h.1v.1l.1.1v.1l.1.1v.1l-.1.1v.4h-.5l-.3-.1.1.2v.1l.1.1v.1l-.2.1v.1h-.2v.1h-.1v.1h-.1l-.1.1h-.1v.1h-.6v-.1h-.2l-.1-.1v-.1h.1l.1-.1.1-.1v-.1h.1v-.3h-.1v-.1h-.1v-.1h.1v-.1h.1v-.7l.1-.1v-.3h-.1v-.1h-.1v-.1l.1-.1V55l.1-.2.1-.2.1-.2v-.2h.1V54h.1v-.2h.1v-.3l.1-.1v-.2l.1-.1V53l.1-.2v-.2l.1-.1v-.4l.1-.2v-1.2h-.1v-.2l-.1-.1v-.1h-.1v-.1l-.1-.1V50h-.2v-.1h-.1l-.1-.1-.1-.1-.1-.1-.1-.1h-.1l-.1-.2h-.2v-.1l-.2-.1h-.1V49h-.2v-.1h-.2l-.1-.1-.2-.1h-.2v-.1l-.5-.1h-.1v-.1h-.5l-.1.1-.1.1-.1.1-.1.2h-.2v-.2l.1-.1v-1.2h-.1v-.1l-.3-.7.6.1v-.9l-.6.3.2-.6h-.9l.2.6-.6-.3v1l.6-.2-.2.5v.1h-.1v.2h-.1v.2l-.1.1v.9l.1.1v.1h.1v.1h-.2v-.1l-.1-.1h-.1v-.1h-.1v-.1h-.1l-.2-.1h-.4l-.4.2h-.3v.1h-.2l-.1.1h-.1l-.1.1h-.1l-.1.1-.1.1h-.2v.1l-.1.1h-.1l-.1.1-.1.1h-.1v.1h-.1v.1h-.1v.1h-.1v.1h-.1v.1h-.1v.1l-.1.1-.1.1v.1l-.1.1v.1l-.1.1v.2l-.1.1v1.6h.1v.4h.1v.3l.1.1v.2l.1.1.1.2v.2l.1.1v.1l.1.1v.1l.1.1v.1l.1.1v.1l.1.2.1.2v.1l-.1.1v.4h.1v.6h.1v.1h.1v.1h-.1l-.1.1v.1h-.1v.3l.1.1.1.1.2.1h-.1l-.1.1h-.3v.1h-.5l-.1-.1-.2-.1-.1-.1-.2-.1-.1-.1V57h.1l.1-.3h-.5l-.1.1h-.2V56l.1-.1v-.1h.1v-.3h.1v-.2l.1-.2V55l.1-.1v-.3h.1v-1h-.1v-.2h-.1v-.1h-.1v-.1h-.1V53l-.1-.1h-.1v-.1h-.1v-.1h-.1l-.1-.1h-.1l-.1-.1h-.1l-.1-.1h-.1l-.1-.1h-.2v-.1h-.6v-.4h-.1v-.1l-.1-.1v-.2h.1l.1-.1V51l-.1-.1h-.1v-.2h-.1v-.1h-.4v.1h-.1v.1h-.2v.1h-.1v.4h.2v.2h.1-.1v.1l-.1.1v.5h-.9l-.1.1h-.2v.1h-.1l-.2.1-.1.1-.1.1-.1.1-.1.1-.1.1-.1.1-.1.1v.1l-.1.1v.2l-.1.1V55h.1v.2h.1v.2h.1v.1l.3.7v.1h-.1v.2l.1.1v.3h.1v.1h.1v.1h-.1v.1h-.1v.1h-.1l-.1.1v.1h-.1l-.1-.1-.1-.1v-.1l-.1-.1V57l-.1-.2v-4h-.1v-.2h-.1v-.1l-.1-.1-.1-.2h-.1V52h-.2v-.1h-.2v-.1h-.2l-.2-.1h-.8l-.2.1-.2.1h-.1l-.1.1h-.1l-.1.1h-.1l-.1.1-.1.1h-.1l-.1.1-.1.1h-.1v.2h-.2v.1l-.1.1-.1.1-.1.2h-.1v.2h-.1v.2l-.1.1-.1.1v.2l-.1.2-.1.2v.3h-.1V56h.1v.1l.1.1.1.1v.1h.1l.1.1h.1l.1.1h.1v.1h.1v.1h.1v.1h.1v.1h.1v.3h-.5V57h-.1v-.3l-.1-.3-.2.1-.1.1h-.1v.2l-.1.1v.8h.1l.2.1v.7-.1l-.2-.1v-.2l-.1-.1-.2-.1v-.2h-.1l-.1-.2-.1-.1-.1-.1-.1-.1-.1-.1-.1-.1-.1-.2h-.1l-.1-.2h-.2v-.1l-.2-.1-.1-.1-.1-.1-.1-.1h-.2l-.1-.2h-.1l-.2-.1-.1-.1h-.1l-.2-.1-.1-.1h-.2l-.2-.1-.1-.1h-.2l-.2-.2h-.1l-.1-.1-.2-.1-.2-.2-.2-.1v-.1l-.2-.1v-.1l-.1-.1V54l-.1-.1v-.1l-.1-.1v-.1l-.1-.1v-.1l-.1-.1V53l-.1-.2v-.2l-.1-.2-.2-.8-.2 1V54l-.1.4v1.1l.1.4.1.4.1.3.1.4.1.3.2.4.2.3.2.4.2.3.2.3.3.3.2.3.3.3.3.3.4.3.3.3.4.3h-1l-.3-.1h-.2l-.2-.1h-.2l-.2-.2h-.2l-.2-.1-.2-.1h-.1l-.2-.2h-.2l-.1-.2h-.2l-.2-.2-.1-.1-.1-.1-.2-.2h-.1l-.1-.2-.2-.1V59l-.2-.1-.1-.2-.1-.1-.2-.1v-.2l-.4-.5v2.7l.2.3v.4l.2.3.1.3.2.3.1.3.2.3.2.3.2.3.3.2.2.3.3.2.3.2.3.2.4.2.3.2.4.2.4.1.4.2h.5l.2.1h-1.4v.1h-.6l-.3.1h-.6l-.3.1h-1.6l-.2-.1h-.1v-.1h-.2v-.1h-.1v-.1h-.2v-.1l-.1-.1-.1-.2h-.1l-.1-.1v-.1l-.3-.3v1.5l.2.3v.3l.2.2.2.3.2.3.2.3.2.2.2.3.3.2.3.3.3.2.3.2.3.2.3.2.3.1.4.2h.4l.3.2h.4l.4.1h.8-.4l-.2.1h-.1l-.1.1-.3.1h-.1l-.2.1h-.1l-.1.1h-.2v.1h-.2l-.1.1h-.2l-.1.1h-.1l-.2.2h-.2l-.1.1-.2.1-.2.1-.1.1h-.2v.2h-.2l-.1.1-.2.1-.2.2h-.1l-.1.1-.1.1v.1h-.1l-.1.1v.1l-.1.1v.1h-.1v.7l.1.1.1.1h.1v.1h.1l.1.1.2.1h.3l.2.1h.2l.3.1h.5l.2.1h2.9l.2-.1h.3l.2-.1.3-.1h.2l.2-.1h-.2l-.1.2h-.2l-.1.2h-.2l-.2.2-.1.1-.2.1-.1.1-.2.1-.1.1-.2.2h-.1l-.2.2-.1.1-.2.1v.1l-.2.1-.2.2-.2.2-.1.1-.2.2-.2.2-.1.1-.1.2-.1.1-.1.1v.2l-.2.1v.5h-.1v.4h.1v.1h.1v.1h.1l.1.1h.2v.1h1.1l.2-.1h.2l.2-.1h.2l.1-.1h.2l.2-.1.2-.1h.2l.2-.2h.2l.2-.1.2-.1.2-.1.2-.1.2-.1.2-.1.2-.1.2-.2h.3l.2-.2.2-.2h.2l.1-.2-.2.2v.2l-.2.1v.1l-.2.2v.1l-.2.2v.1l-.2.2v.1l-.2.1v.2l-.2.1v.2l-.2.1v.2l-.1.1-.1.2-.1.1v.2l-.2.1v.2l-.1.2-.1.1v.2l-.1.2-.1.1v.2l-.1.2v.1l-.1.2v.3h-.1v.4h.1v.1h.2v.1h.6l.4-.3.2-.1.3-.2.2-.2.2-.1.2-.2.3-.2.2-.2.2-.2.2-.2.2-.2.2-.2.2-.2.1-.2.2-.2.2-.2.1-.2.2-.2.1-.2v.4l-.2.4v.4l-.1.2v.1l-.1.2v.3l-.1.2v.3l-.1.2v.3l-.1.1v2.1h.1v.1h.1v.1h.5l.1-.1.1-.2.1-.2.1-.1.1-.2.1-.1.1-.2.1-.1.1-.2.1-.2.1-.1.1-.2.2-.2v-.2l.1-.1.1-.2V81l.2-.2v-.1l.1-.2v-.2l.1-.1V80l.2-.2v-.4l.1-.1V79v.4l.1.2v2.2l.1.2v.6l.1.1v.4l.1.1v.2h.1v.2h.1v.1h.1v.1h.5l.1-.1v-.1l.1-.2.1-.2V83l.2-.1v-.4l.1-.2v-.2l.1-.2v-.2l.1-.1v-.2l.1-.2v-.6l.1-.2v-1.6.1l.1.2v.5l.1.2v.3l.1.2v.2l.1.2v.1l.1.2v.2l.1.1.1.2v.2l.1.1.1.2v.2l.2.1v.2l.1.2.1.1.1.2.2.2.1.1.2.1h.3l.1-.1v-.1h.1V83l.1-.2.6 1-.2-1v-1.4l.1-.1v-.1l.1-.1V81l.1-.1v-.2h.1v-.2h.1v-.2h.1V80h.1v-.2h.1v-.2h.1v-.2l.2-.3v2.3l.1.2v.3l.1.2v.2l.1.2v.2h.1l-.1.1-.2.1h-.1v.1h-.1l-.1.1-.2.1v.1l-.2.1v.1l-.1.1h-.1v.1l-.1.1v.1h-.1v.2h-.1v.1-.1h-.4l-.2.1h-.2l-.2.1-.1.1-.2.1h-.2l-.1.2-.2.1-.1.1-.2.1v.2l-.2.1-.1.2-.2.1v.2l-.2.1v.2l-.2.2v.2l-.1.2v.2l-.2.2v.2l-.2.1-.2.1v.1h-.1v.1l-.3.2h-.3v.1l-.2.1h-.1l-.4.2-.1.1h-.1l-.1.1-.1.1h-.1l-.1.1-.1.1h-.1l-.1.2h-.1l-.1.1h-.1v.2h-.2v.1-.2l-.3.2h-1.5v.1h-.1v.1h-.1v.1h-.1v.2h-4.7v6.8l4.4 6.4v4.7l-1.2 1v-3.5L227 108v2.7l-2.6 1.9v-2.7l-2.8 2v3l-2 1.6v-2.8l-3 2.1v2.8l-1.5 1.3v-3.2l4.3-6.5v-6.7h-5.9v3.5H210v-3.5h-6.4v3.5h-3.7v-3.5h-6.6v6.7l4.6 6.5-4.4 57zm70.8-115h-.2v.1h-.1v.1h-.1v.1l-.2.1v.1h-.1v.1h-.1l-.1.1h-.1v.1h-.3l-.5.1.4.3h.1v.1h-.1v.1h-.1v.1h-.1v.1l-.1.1-.1.1v.1l-.1.1v.1h-.1v.1l-.5.5v.1h-.1v.2h-.1v.1l-.1.1v.1l-.1.1v.3h-.1v.3l-.1-.1v-.3h-.1V62l-.1-.1v-.1l-.1-.1v-.1h-.1v-.1l-.1-.1-.5-.5v-.2h-.1v-.1l-.1-.2h-.1v-.1h-.1v-.2h-.1l-.1-.1-.2-.2h.1l.5-.3h-.7v-.1h-.2v-.1h-.1v-.1h-.1v-.1h-.1V59h-.1l-.1-.1-.1-.1-.1-.1-.1-.1h-.1l.1-.1h.1l.1-.1.2-.1h.1l.1-.1.1-.1h.1V58h.1v-.2h1.1l.1.1h2.6l.2-.1h.1l.1.1h.1v.1h.2v.1h.1v.1h.2v.1h.1l.1.1zm2.6 115H239V160l.2-.2v-.3l.1-.2.1-.3.2-.2.1-.2.2-.3.1-.2.2-.2.2-.2.2-.2.2-.1.2-.2.3-.2.2-.1.3-.2h.2l.3-.2.2-.1.3-.1h.3l.3-.2h3.3l.3.1h.3l.2.2h.3l.3.2.2.1.3.2.2.1.2.2.2.2.3.1.2.2.2.2.1.2.2.2.2.3v.2l.2.2.1.3.1.2.1.3v.2l.1.3v13.3m-17-82.1v2h6v-.2l-.1-.1v-.3l-.1-.2v-.5l-.1-.2v-1.3l.1-.2v-.1l.1-.2V90l.1-.3.1-.2v-.2l.2-.2V89v.1l-.2.2-.1.2-.2.2-.1.2h-.1v.1h-.1v.1l-.1.1-.1.1v.1h-.1v.2h-.2v.3h-.1v.1l-.1.1v.2h-.1v.3h-.1v.3h-.1v.3l-.1.5-.3-.6v-.2l-.1-.2v-.2l-.1-.2V91l-.1-.1v-1.4l.1-.2v-.1l.1-.2.1-.2.1-.1v-.2l.2-.1v-.1l.1-.2.1-.1v-.2l.2-.1v-.1l.2-.2h-.2v.1l-.3.2h-.2v.2h-.4v.1h-.1v.1h-.1l-.1.1h-.1v.1h-.1v.1h-.1v.1h-.1v.1h-.1v.1h-.1v.2h-.1l-.1.1v.1l-.1.2v.1h-.1l-.4.9.1-1v-.6l-.1.1h-.1l-.1.1h-.1v.1h-.2v.1h-.1l-.1.1-.1.1h-.1l-.1.1h-.1v.1h-.1l-.1.1h-.1v.1h-.1v.1l-.3.1v.1h.1v.1h.1l.1.1v.5l-.1.1h-.1v.5h.1v.1l.1.1.1.1.4.4-.5-.1h-.3v-.1h-.1l-.1-.1zm15.3.8v1.2h.4v-.6h-.1v-.2l-.1-.2v-.1h-.1zm1.1 1.2h5.4v-1.7l-.5.1.3-.4h.1v-.1h.1v-.9l-.1-.2V90h.2l.1-.1-.2-.2-.1-.1h-.1v-.1h-.2v-.1h-.1v-.1h-.1v-.1h-.2V89h-.1l-.1-.1h-.1l-.1-.1h-.1l-.1-.1-.1-.1h-.2v.4l.1 1-.3-.7v-.1l-.1-.1V89h-.1v-.2h-.1v-.1l-.1-.1-.1-.1-.1-.1-.1-.1v-.1h-.1l-.1-.1-.2-.1h-.2v-.1h-.2v-.1h-.2v-.1h-.2l-.2-.2-.1-.1h-.1l-.1-.2v.1l.1.2.2.2v.2l.1.1.1.2.1.1v.1l.1.2.1.1v.2l.1.1v.2l.1.1v.2l.1.2v1.7l-.1.2v.2l-.2.2-.2.6-.1-.5v-.4l-.1-.1v-.2l-.1-.1v-.1l-.1-.1v-.2h-.1v-.1h-.1v-.2h-.1v-.1l-.1-.1-.1-.2-.2-.2-.1-.2h-.1v-.1l-.1-.1h-.1v-.2h-.1v-.1l-.2-.1V89h-.1l-.1-.1v.2l.2.2v.2l.1.2v.3l.1.2v.2l.1.1v.2l.1.2V93l-.1.2-.1.1zm4-36.6H252zm6.2 1-.1.3v.1l-.1.1v.1l-.1.1v.1h-.1v.1l-.1.1-.1.1v.1h-.1v.1h-.1v.1h-.1l-.1.1-.1.1h-.1l-.1.1h-.1l-.2.1-.2.1-.1.1h-.1l-.2.2h-.2v.1h-.1l-.1.1-.1.1-.1.1h-.1l-.1.1-.1.1-.1.1-.1.1v.1h-.1v.1h-.1v.1l-.3.3-.1.1h-.1v.2h-.2v.1h-.1l-.1.2h-.2l-.1.2h-.1l-.1.2h-.1l-.2.1v.1h-.2v.1h-.1l-.1.1h-.1l-.2.2h-.1v.1h-.2l-.2.2-.1.1h-.1l-.1.1-.2.1v.2h-.2v.2h-.1l-.1.2v.1h-.1v.2h-.1v1.6-.1h.1v.1l.1.1.2.4v.8l.2 1.1v-.1h.1v.2l.1.1v.2l.2.3v.3l-.1.1v.6l-.2-.3v-.2l-.2-.2v-.1l-.2-.2-.1-.2-.2-.1-.1-.2-.2-.1-.1-.2h-.2l-.4-.3v-.4l-.1-.1v-.2h-.1v-.2l-.1-.1v-.1h-.1v-.2h-.2v-.2h-.1l-.1-.2h-.2v-.2l.1-.1v-1.7h-.1v-.2l-.3-.3v-.8h-.1.2l.5.3-.3-.5-.1-.1v-.5l.1-.3.1-.1.1-.1.2-.2h.1l.1-.1.2-.1h.1l.1-.1h.7l.1.1.2.1.1.1v.1h.2v.2l.3.3v-1l-.1-.1-.1-.1-.1-.1h-.1v-.1h-.3l-.1-.1h-.1.2l.5.2h.2l.1.2h.2l.1.1h.1l.2.1.1.1h.1l.2.1.2.1h.3l.1.1h.6l.1-.1h.1v-.1h.1l.1-.1v-.1l.1-.1.3-.6-.4.3h-.2l-.1.1h-.7V61h-.2v-.1h-.1v-.1h-.1l-.1-.2h-.2l-.1-.1-.1-.1h-.1l-.1-.1h-.2l-.1-.1h-1l.1-.1h.2l.1-.1h.2v-.1h.5l.1-.1h.8l.1.1.1-.1.1-.1v-.1h.1l.1-.1h.1v-.1h.5l.1.1h.1v.1l.1.1.1.2.2.3.1-.4v-.1l.1-.1v-1l-.1-.1v-.1l-.1-.1-.1-.1.2-.2h.1l.2-.1.1-.1.1-.1.2-.1.2-.2.1-.1v-.1l.1-.1.1-.1v-.2l.1-.1v-1.2l-.1-.1v-.1l-.1-.1h-.1V55h-.1l-.1-.1v-.1h-.1v-.1h-.1v-.1l-.1-.1v-.1h-.1v-.2l-.2-.2.1-.2h.1v-.1h.1l.1-.1.1-.1h.1l.2-.1h1.5l.1.1h.1l.1.1h.1l.4.6v.1l.1.1v.6l-.1.1v.1h-.8l-.1.1h-.1v.1h-.1v.1h-.1v.1l-.1.1v.1h-.1v.3h-.1v.7h.1v.2h.1v.1l.1.2h.1l.1.2h.1l.1.1.1.1h.1v.1h.2v.1h.1v.1h.2l.4.2-.2-.4h-.1v-.1l-.1-.1v-.1h-.1v-.2.2h.1v.1h.1v.1l.1.1h.2v.1h.4m-24.6-1h2.4zm-6.1 1v.3h.1v.2h.1v.2l.1.1v.1h.1v.1h.1v.1l.1.1.1.1.1.1h.1v.1h.1l.1.1.2.1h.1l.1.1h.1l.2.1.1.1h.1l.1.1.1.1h.1l.2.2h.1v.1h.1l.1.1h.1v.1h.1v.1h.1v.1h.1v.1l.1.1.1.1v.1l.4.3v.1h.2v.2h.1l.1.1.2.2h.1l.1.2h.1l.2.2h.2v.1l.1.1h.1l.2.2.4.2.1.1h.1l.1.1h.1l.1.2h.1l.2.1.1.1.1.2h.1l.1.2h.1v.2h.1v.1l.1.1v.3h.1v1.4l-.1-.1-.1.1v.1l-.3.4v.8l-.1 1.1-.1-.1v.1l-.1.1v.2h-.1v.1l-.1.3v1h.1l.1-.3.1-.2.1-.2.1-.1.1-.2.2-.2.1-.1.2-.2.1-.1.2-.2h.1l.4-.3V68l.1-.2v-.2l.1-.2.1-.2v-.1l.1-.1.2-.2v-.1l.1-.1h.1v-.2h.2v-1.3h-.1v-.6l.1-.1v-.1h.1v-.1l.3-.3v-.8h.1-.1l-.6.3.3-.5v-.1l.1-.1v-.4l-.2-.3-.1-.1h-.1l-.1-.2h-.2v-.1h-.1l-.1-.1h-.2v-.1h-.7l-.1.1h-.1v.1h-.2v.1l-.1.1-.2.2-.3.3v-.8l.1-.1v-.2h.1V61h.2l.2-.1h.1l.2-.1h.1-.3l-.4.2h-.2l-.2.2h-.1l-.1.1h-.2l-.1.1-.2.1-.2.1h-.1l-.1.1h-.3l-.2.1h-.6v-.1h-.2v-.1l-.1-.1-.1-.1v-.1h-.1l-.2-.6.4.3h.2v.1h.7l.1-.1h.1l.1-.1.1-.1h.1v-.2h.3v-.1h.1v-.1h.2l.1-.1h.2l.1-.1h1.1V60h-.2l-.1-.1h-.2v-.1h-.6v-.1h-.8l-.2.1v-.1h-.1v-.1l-.1-.1h-.1v-.1h-.1v-.1h-.5l-.1.1h-.1v.1l-.1.1-.1.2-.2.3-.2-.4v-.4h-.1v-.8h.1v-.1l.1-.1.1-.1.1-.1-.2-.2h-.2l-.1-.1-.2-.1v-.1l-.2-.1-.2-.2-.2-.1V57l-.1-.1v-.1l-.1-.1v-.1l-.1-.2v-.9l.1-.1v-.1l.1-.1.1-.1.1-.1h.1v-.1h.1v-.1h.1v-.1l.1-.1v-.1h.1v-.2h.1v-.1l.1-.2v-.2h-.1l-.1-.1-.1-.1h-.1v-.1h-.2l-.1-.1h-1.5l-.1.1h-.1l-.1.1h-.2l-.4.6v.9h.1v.1h.8v.1h.2v.1l.1.1.1.1v.1h.1v.1l.1.2v.8l-.1.2v.1h-.1v.2h-.2v.2h-.1l-.2.1v.1h-.2v.1h-.1v.1h-.2v.1h-.1l-.4.2.2-.4.1-.1v-.1l.1-.1v-.2.2l-.1.1v.1h-.1v.1h-.1l-.2.1z" fill="#008ed1" id="path4"/><path d="M177.8 181.8v-8h133.8v9.5c.2 19-13 28.6-37.8 30-15 .3-25.2 4.3-29.1 10.6-3.8-6.8-16.8-10.5-33.1-10.9-21.7-1.8-34-11-33.8-31.2" fill="#009240" id="path5"/><path d="m244.7 209.3-.3-.3v1h-1.6l-.1-.1h-.1l-.2-.1-.1-.1h-.1l-.1-.1-.1-.1-.1-.1h-.1l-.1-.2-.1-.1-.3-.2-.3-.3-.3-.2-.2-.2-.3-.2-.3-.3-.3-.2-.3-.1-.4-.2-.3-.2-.3-.2-.3-.2-.3-.1-.4-.2-.3-.1-.3-.2-.4-.1-.3-.1-.4-.2h-.3l-.3-.2h-.4l-.3-.2h-.4l-.3-.2h-.4l-.3-.1h-.4l-.3-.2h-.7l-.4-.1h-.4l-.4-.1h-.4l-.3-.1h-.4l-.4-.1-.3-.1h-.4l-.3-.1h-.3l-.4-.1-.3-.1h-.3l-.3-.2h-.3l-.3-.1-.3-.1-.3-.1-.3-.1-.2-.1-.3-.1-.3-.1-.2-.2h-.3l-.2-.2-.2-.1-.3-.2-.2-.1-.2-.2-.2-.2-.2-.1-.3-.3.3-.7.2-.6.2-.6.2-.6.2-.5.7-1.8.2-.6.2-.6.2-.6.3-.6.2-.6.4-1.2.2-.6.2-.6.3-.6.2-.6.2-.6.2-.6.7-1.8.4-1.2.2-.6.2-.6.3-.6.4-1.2.3-.7h.3v.1h1.3l.6-1.8.2.3v.1l.1.1h.1v.1l.1.1.2.1.1.1h.1v.1h.2v.1h.2l.2.1h.6l.1.1h1.5l.3-.1h.7l.3-.1h1.3l.3.1h.3l.3.2h.3l.4.1.3.1.3.2.3.1.3.2.3.1.4.2.3.2.3.2.3.2.3.2.3.2.3.3.4.3.3.2.3.3.3.3.3.3.3.3.3.4.3-.4.3-.3.3-.3.3-.3.3-.3.3-.2.4-.3.3-.3.3-.2.3-.2.3-.2.3-.2.3-.2.3-.2.4-.1.3-.2.3-.1.3-.2h.3l.4-.2h.3l.3-.1h.3l.3-.1h.7l.3-.1h1.3l.3.1h.7l.2.1h1.2l.1-.1h.3l.1-.1h.1v-.1h.2v-.1h.1l.1-.1.1-.2h.1v-.1h.1v-.2l.3-.3.6 1.8h1.4l.2-.1.3.7.4 1.2.3.6.2.6.2.6.2.6.2.6.7 1.8.2.6.2.6.2.6.3.6.2.6.2.6.4 1.2.2.6.3.6.2.6.2.6.2.6.7 1.8.2.5.2.6.2.6.2.6.3.7-.3.3-.2.1-.2.2-.2.2-.2.1-.3.2h-.2l-.2.2-.3.1-.2.2h-.3l-.3.2h-.2l-.3.2h-.3l-.3.2h-.3l-.3.1-.3.1h-.3l-.3.2h-.7l-.3.1-.4.1h-.3l-.4.1h-.4l-.3.1h-.4l-.4.1h-.4l-.4.1h-.3l-.4.1-.3.1h-.4l-.3.2h-.4l-.3.1-.4.1-.3.1-.4.1-.3.1-.3.1-.4.2-.3.1-.4.1-.3.2-.3.1-.4.2-.3.1-.3.2-.3.2-.4.2-.3.2-.3.1-.3.2-.3.3-.3.2-.2.2-.3.2-.3.3-.3.2v.1h-.1v.1h-.2v.1l-.1.1h-.1v.1h-.1v.1h-.2l-.1.1-.2.1h-.2l-.1.1H245v-1z" fill="#2c2c2b" id="path6"/></g><g fill="#dedede" fill-rule="evenodd" id="g10"><path d="M244.6 186.3V209c-5.2-4.6-10-6-14.5-6.5a10 10 0 0 1-6-2.1l6.9-19.8q.7 1.5 3.6 1 5-.8 10 4.6m-2.2 16h-.2l-.1-.1-.3-.2-.2-.2-.3-.2-.3-.1-.2-.2-.3-.1-.2-.2-.2-.1-.3-.1-.2-.2h-.3l-.2-.2-.2-.1-.2-.1-.3-.1h-.2l-.2-.2h-.2l-.3-.1-.2-.1h-.2l-.2-.1h-.2l-.2-.1h-.2l-.2-.1h-.5l-.2-.1h-.7l-.4-.1h-.7l-.4-.1h-.7l-.3-.1h-.9l-.3-.1h-.6l-.2-.1h-.5l-.3-.1h-.4l-.2-.1h-.3l-.2-.1h-.1l-.2-.1-.2-.1-.1-.1-.2-.2h.2l.1.1.2.1.2.1h.3l.2.1h.1l.2.1h.5l.2.1h.7l.3.1h.6l.3.1h.6l.3.1h1.1l.3.1h.8l.3.1h.7l.2.1h.4l.2.1h.2l.2.1.3.1h.2l.2.1.2.1.2.1h.3l.2.2h.2l.2.2h.3l.2.2.2.1.3.1.2.2.3.1.2.2.3.1.2.2.3.1.2.2.3.2.3.2zm.2-1.2-.3-.1v-.1l-.3-.2-.3-.2-.2-.1-.3-.2-.2-.2-.2-.1-.3-.1-.2-.2-.2-.1-.3-.1-.2-.2h-.2l-.2-.2h-.3l-.2-.2h-.2l-.2-.1-.2-.1-.2-.1h-.2l-.3-.1-.2-.1h-.2l-.2-.1h-.4l-.2-.1h-.4l-.2-.1h-.9l-.4-.1h-.6l-.4-.1h-.9l-.3-.1h-.9l-.2-.1h-.8l-.2-.1h-.4l-.2-.1h-.3l-.2-.1h-.1l-.1-.1h-.2l-.1-.1-.1-.1-.1-.2h.2v.1h.1l.1.1h.1l.1.1h.3l.2.1h.3l.2.1h.4l.3.1h.7l.3.1h.9l.3.1h1l.3.1h.7l.4.1h.7l.2.1h.4l.3.1h.2l.2.1h.2l.2.1.2.1h.2l.2.1.2.1.2.1.3.1.2.1.2.1.2.1.3.1.2.1.2.2.3.1.2.1.2.2.3.1.2.2.3.2.2.1.3.2.2.2zm-.1-1.4-.2-.1-.1-.1-.3-.2-.2-.2-.3-.1-.2-.2-.2-.2-.3-.1-.2-.1-.2-.2-.2-.1-.3-.1-.2-.1-.2-.1-.2-.1-.2-.1-.2-.1-.2-.1-.2-.1h-.2l-.2-.2h-.4l-.2-.1h-.2l-.2-.1h-.2l-.2-.1h-.4l-.2-.1h-.7l-.4-.1h-.7l-.3-.1h-.9l-.3-.1h-.9l-.3-.1h-.7l-.2-.1h-.4l-.2-.1h-.4l-.1-.1h-.3l-.1-.1h-.1l-.1-.1h-.1v-.1h-.1l-.1-.2h.2v.1h.1l.1.1h.2l.2.1h.1l.2.1h.3l.2.1h.6l.3.1h.7l.3.1h.9l.3.1h.6l.3.1h1.1l.3.1h.6l.2.1h.4l.2.1h.2l.2.1h.2l.2.2h.4l.2.2h.2l.2.1.2.1.3.1.2.1.2.1.2.2h.2l.3.2.2.1.2.2.2.1.3.2.2.2.3.1.2.2.3.2.3.2zm0-1.4-.3-.2h-.1l-.2-.2-.3-.2-.2-.2-.2-.1-.3-.2-.2-.1-.2-.1-.2-.2-.3-.1-.2-.1-.2-.1-.2-.1-.2-.1-.2-.1-.2-.1h-.2l-.2-.2h-.2l-.2-.1h-.2l-.2-.1h-.2l-.2-.1h-.1l-.2-.1h-.6l-.2-.1h-1l-.3-.1h-1l-.3-.1h-1.1l-.3-.1h-.5l-.2-.1h-.4l-.2-.1h-.4l-.2-.1h-.3l-.1-.1h-.2v-.1h-.2v-.1h-.1l-.1-.1v-.1l-.1-.1h.1l.1.1h.1v.1h.2v.1h.3l.2.1h.1l.2.1h.4l.2.1h.4l.3.1h.7l.3.1h.8l.3.1h1.3l.3.1h.9l.2.1h.4l.2.1h.2l.2.1h.2l.2.1h.1l.2.1.2.1h.2l.2.2h.2l.3.2h.2l.2.2h.2l.2.2.2.1.2.1.3.2.2.1.2.2.3.1.2.2.2.2.3.1zm0-1.4-.2-.2h-.1l-.3-.2-.2-.2-.2-.1-.2-.2-.3-.1-.2-.2h-.2l-.2-.2-.2-.1-.2-.1-.2-.2h-.2l-.2-.1-.2-.1-.2-.1h-.2l-.2-.2h-.2l-.2-.1h-.2l-.2-.1h-.2l-.2-.1h-.4l-.2-.1h-.5l-.2-.1H235l-.4-.1h-.9l-.2-.1h-1.1l-.2-.1h-.5l-.2-.1h-.6l-.2-.1h-.1l-.2-.1h-.2l-.1-.1h-.1l-.1-.1h-.1v-.1l-.2-.1v-.2h.1v.1h.1v.1h.1l.1.1h.1l.1.1h.3l.1.1h.3l.2.1h.4l.2.1h.7l.3.1h1.1l.2.1h1l.3.1h1l.2.1h.4l.2.1h.3l.2.1h.2l.2.1h.2l.2.1.2.1h.2l.2.2h.2l.2.1.2.1.2.1.2.1.2.2h.3l.2.2.2.1.2.2.2.1.3.2.2.1.2.2.2.2zm0-1.5-.3-.1-.3-.2-.3-.2-.2-.1-.3-.2-.2-.1-.2-.2h-.2l-.2-.2-.2-.1-.2-.1-.2-.1-.2-.1-.2-.1h-.2l-.1-.2h-.2l-.2-.1h-.1l-.2-.1h-.2l-.1-.1h-.2l-.1-.1h-.4l-.1-.1h-.5l-.2-.1h-1.4l-.3-.1h-1.1l-.2-.1h-.7l-.3-.1h-.6l-.2-.1h-.3l-.2-.1h-.2v-.1h-.3l-.1-.1h-.1l-.1-.1-.1-.1-.1-.1v-.2h.1v.2h.2l.1.1h.1l.1.1h.1l.2.1h.3l.2.1h.3l.2.1h.7l.2.1h.7l.3.1h1.1l.3.1h1.3l.2.1h.5l.1.1h.3l.2.1h.2l.1.1.2.1h.2l.1.1.2.1h.2l.2.2h.2l.2.2h.1l.2.2h.2l.3.2.2.1.2.2.2.1.2.1.3.2.2.2.3.1zm0-1.4-.3-.2-.3-.1-.2-.2-.2-.1-.2-.2h-.3l-.2-.2-.2-.1-.2-.1-.2-.1-.2-.1-.1-.1-.2-.1-.2-.1-.2-.1h-.1l-.2-.1-.2-.1h-.1l-.2-.1h-.2l-.1-.1h-.2l-.1-.1h-.4l-.1-.1h-.8l-.3-.1h-1.5l-.3-.1h-.7l-.3-.1h-.6l-.3-.1h-.5l-.2-.1h-.3l-.2-.1-.2-.1h-.1l-.1-.1h-.1v-.1h-.1l-.1-.1v-.3.1h.1v.1h.1v.1h.1l.1.1h.1l.2.1h.2l.2.1h.3l.2.1h.4l.2.1h.6l.3.1h1l.3.1h1.5l.2.1h.6l.2.1h.3l.1.1h.2l.2.1h.1l.2.1h.2l.1.1.2.1h.2l.2.2h.1l.2.1.2.1.2.1.2.1.2.2h.2l.2.2.2.1.2.2.3.1.2.2.2.1zm-.1-1.4-.3-.2-.3-.2-.2-.1-.2-.1-.2-.2-.2-.1-.2-.1-.2-.1-.2-.1-.2-.1-.2-.1-.1-.1h-.2l-.2-.2h-.3l-.1-.2h-.3l-.2-.1h-.1l-.1-.1h-.3l-.2-.1h-.3l-.1-.1h-.6l-.3-.1h-.6l-.2-.1h-.8l-.3-.1h-.9l-.1-.1h-.7l-.2-.1h-.5l-.2-.1h-.2l-.2-.1h-.2v-.1h-.1l-.1-.1-.1-.1v-.2l.1.1.1.1h.1v.1h.2l.2.1h.4l.2.1h.5l.2.1h.6l.2.1h1l.3.1h.5l.3.1h.8l.2.1h.6l.1.1h.3l.2.1h.1l.1.1h.2l.1.1h.2l.1.1h.2l.1.2h.2l.2.1h.1l.2.2h.2l.2.2h.1l.2.2h.2l.2.2.3.1.2.2.2.1.2.2zm0-1.4-.3-.2-.2-.1-.2-.2-.2-.1-.2-.1-.2-.1-.2-.1-.2-.1-.1-.1-.2-.1-.2-.1-.2-.1h-.1l-.2-.1-.1-.1h-.2l-.1-.1h-.2l-.1-.1h-.2l-.1-.1h-.1l-.2-.1h-.3l-.1-.1h-.6l-.1-.1h-.7l-.3-.1h-.7l-.3-.1h-.7l-.2-.1h-.6l-.2-.1h-.5l-.2-.1h-.2l-.2-.1h-.2l-.1-.1h-.1l-.2-.1v-.1l-.1-.1v-.1h.1v.1h.1v.1h.2l.1.1h.3v.1h.5l.2.1h.5l.2.1h.7l.2.1h.7l.2.1h.8l.3.1h.5l.2.1h.4l.2.1h.2l.2.1h.3l.1.1h.2l.1.1.2.1h.1l.2.1.1.1h.2l.2.2h.1l.2.1.2.1.2.1.2.2h.2l.2.2.2.1.2.1.2.2zm0-1.5-.3-.1-.2-.2-.2-.1-.2-.1-.2-.2h-.2l-.2-.2h-.1l-.2-.2h-.2l-.1-.1h-.2l-.1-.2h-.3l-.2-.1-.1-.1h-.2l-.1-.1h-.3l-.1-.1h-.3l-.1-.1h-.4l-.1-.1h-.7l-.3-.1h-.7l-.2-.1h-.7l-.2-.1h-.8l-.2-.1h-.4l-.2-.1h-.3l-.2-.1h-.2v-.1h-.2v-.1h-.1v-.1l-.1-.2h.1v.1h.1v.1h.2v.1h.3l.2.1h.4l.1.1h.5l.2.1h.8l.2.1h.7l.3.1h.7l.3.1h.5l.1.1h.5v.1h.2l.2.1h.2l.2.1h.1l.2.1h.1l.2.1.1.1h.2l.1.2h.2l.2.1.1.1.2.1.2.1.2.1.1.2h.2l.2.2.2.1zm0-1.2-.2-.1-.2-.2-.2-.1-.2-.1-.2-.1-.1-.1-.2-.2h-.2l-.2-.1-.1-.1-.2-.1h-.1l-.2-.2h-.1l-.2-.1h-.1l-.2-.1h-.1l-.1-.1h-.2l-.1-.1h-.3l-.1-.1h-.3v-.1h-.6l-.1-.1h-.5l-.3-.1h-.9l-.2-.1h-.7l-.2-.1h-.7l-.1-.1h-.4l-.1-.1h-.2l-.1-.1h-.2v-.1l-.1-.1-.1-.2h.1l.1.1.1.1h.1l.1.1h.3l.1.1h.5l.1.1h.7l.2.1h.8l.2.1h.7l.2.1h.6l.1.1h.6l.1.1h.3v.1h.2l.2.1h.1l.1.1h.2l.1.1h.2l.1.1.2.1h.1l.2.2h.1l.2.1.2.1.1.1.2.1.2.1.2.2h.2l.2.2.2.1zm0-1.4-.2-.2-.3-.1-.2-.2h-.2l-.1-.2-.2-.1-.2-.1-.1-.1-.2-.1h-.2l-.1-.2h-.1l-.2-.1h-.1l-.1-.1h-.2v-.1h-.3l-.1-.1h-.2l-.2-.1h-.3l-.1-.1h-.6l-.3-.1h-.6l-.2-.1h-.7l-.2-.1h-.7l-.2-.1h-.6v-.1h-.4l-.2-.1h-.1l-.1-.1-.2-.1v-.1l-.1-.2h.1v.1l.1.1h.1l.1.1h.2v.1h.6l.1.1h.6l.2.1h.8l.2.1h.6l.2.1h.7l.1.1h.6l.1.1h.3l.2.1h.2l.1.1h.2v.1h.2l.1.1h.2l.1.1.2.1h.1l.2.2h.1l.2.2h.2l.1.2.2.1.2.1.2.2.2.1z" id="path7"/><path d="m230.3 182.4-1.6-.1-7 19.1c2.1 2 5.2 2.5 9.4 3 3.7.5 7.7 2 10.5 4.6.7.6 1.2 1.1 2.6 1v-1l-.2-.3-.5-.4-.4-.3-.5-.4-.5-.3-.5-.4-.4-.3-.5-.3-.5-.3-.4-.3-.5-.2-.4-.3-.5-.2-.5-.2-.4-.2-.5-.2-.4-.2-.4-.1-.5-.2-.4-.1-.5-.2-.4-.1-.4-.1-.5-.1-.4-.1-.4-.1h-.5l-.4-.1-.4-.1h-.4l-.5-.1h-.9l-.2-.1h-.4l-.2-.1h-.5l-.2-.1h-.2l-.2-.1h-.2l-.2-.1h-.2l-.2-.1-.2-.1h-.1l-.2-.1-.2-.1h-.2l-.2-.2h-.1l-.2-.2h-.2l-.1-.1-.2-.1-.1-.1-.2-.1-.2-.2h-.1l-.1-.2-.3-.2.3-.7 3.2-9.2.2-.7z" id="path8"/><path d="M244.8 186.3V209c5.2-4.6 10-6 14.5-6.5q3.6-.2 6-2.1l-6.9-19.8q-.7 1.5-3.6 1-5-.8-10 4.6m2.2 16h.2l.1-.1.3-.2.2-.2.3-.2.3-.1.2-.2.3-.1.2-.2.2-.1.3-.1.2-.2h.3l.2-.2.2-.1.2-.1.3-.1h.2l.2-.2h.2l.3-.1.2-.1h.2l.2-.1h.2l.2-.1h.2l.2-.1h.5l.2-.1h.7l.4-.1h.7l.4-.1h.7l.3-.1h.9l.3-.1h.6l.2-.1h.5l.3-.1h.4l.2-.1h.3l.2-.1h.1l.2-.1.2-.1.1-.1.2-.2h-.2l-.1.1-.2.1-.2.1h-.3l-.2.1h-.1l-.2.1h-.5l-.2.1h-.7l-.3.1h-.6l-.3.1h-.6l-.3.1h-1.1l-.3.1h-.8l-.3.1h-.7l-.2.1h-.4l-.2.1h-.2l-.2.1-.3.1h-.2l-.2.1-.2.1-.2.1h-.3l-.2.2h-.2l-.2.2h-.3l-.2.2-.2.1-.3.1-.2.2-.3.1-.2.2-.3.1-.2.2-.3.1-.2.2-.3.2-.3.2zm-.2-1.2.3-.1v-.1l.3-.2.3-.2.2-.1.3-.2.2-.2.2-.1.3-.1.2-.2.2-.1.3-.1.2-.2h.2l.2-.2h.3l.2-.2h.2l.2-.1.2-.1.2-.1h.2l.3-.1.2-.1h.2l.2-.1h.4l.2-.1h.4l.2-.1h.9l.4-.1h.6l.4-.1h.9l.3-.1h.9l.2-.1h.8l.2-.1h.4l.2-.1h.3l.2-.1h.1l.1-.1h.2l.1-.1.1-.1.1-.2h-.2v.1h-.1l-.1.1h-.1l-.1.1h-.3l-.2.1h-.3l-.2.1h-.4l-.3.1h-.7l-.3.1h-.9l-.3.1h-1l-.3.1h-.7l-.4.1h-.7l-.2.1h-.4l-.3.1h-.2l-.2.1h-.2l-.2.1-.2.1h-.2l-.2.1-.2.1-.2.1-.3.1-.2.1-.2.1-.2.1-.3.1-.2.1-.2.2-.3.1-.2.1-.2.2-.3.1-.2.2-.3.2-.2.1-.3.2-.2.2zm.1-1.4.2-.1.1-.1.3-.2.2-.2.3-.1.2-.2.2-.2.3-.1.2-.1.2-.2.2-.1.3-.1.2-.1.2-.1.2-.1.2-.1.2-.1.2-.1.2-.1h.2l.2-.2h.4l.2-.1h.2l.2-.1h.2l.2-.1h.4l.2-.1h.7l.4-.1h.7l.3-.1h.9l.3-.1h.9l.3-.1h.7l.2-.1h.4l.2-.1h.4l.1-.1h.3l.1-.1h.1l.1-.1h.1v-.1h.1l.1-.2h-.2v.1h-.1l-.1.1h-.2l-.2.1h-.1l-.2.1h-.3l-.2.1h-.6l-.3.1h-.7l-.3.1h-.9l-.3.1h-.6l-.3.1H254l-.3.1h-.6l-.2.1h-.4l-.2.1h-.2l-.2.1h-.2l-.2.2h-.4l-.2.2h-.2l-.2.1-.2.1-.3.1-.2.1-.2.1-.2.2h-.2l-.3.2-.2.1-.2.2-.2.1-.3.2-.2.2-.3.1-.2.2-.3.2-.3.2zm0-1.4.3-.2h.1l.2-.2.3-.2.2-.2.2-.1.3-.2.2-.1.2-.1.2-.2.3-.1.2-.1.2-.1.2-.1.2-.1.2-.1.2-.1h.2l.2-.2h.2l.2-.1h.2l.2-.1h.2l.2-.1h.1l.2-.1h.6l.2-.1h1l.3-.1h1l.3-.1h1.1l.3-.1h.5l.2-.1h.4l.2-.1h.4l.2-.1h.3l.1-.1h.2v-.1h.2v-.1h.1l.1-.1v-.1l.1-.1h-.1l-.1.1h-.1v.1h-.2v.1h-.3l-.2.1h-.1l-.2.1h-.4l-.2.1h-.4l-.3.1h-.7l-.3.1h-.8l-.3.1h-1.3l-.3.1h-.9l-.2.1h-.4l-.2.1h-.2l-.2.1h-.2l-.2.1h-.1l-.2.1-.2.1h-.2l-.2.2h-.2l-.3.2h-.2l-.2.2h-.2l-.2.2-.2.1-.2.1-.3.2-.2.1-.2.2-.3.1-.2.2-.2.2-.3.1zm0-1.4.2-.2h.1l.3-.2.2-.2.2-.1.2-.2.3-.1.2-.2h.2l.2-.2.2-.1.2-.1.2-.2h.2l.2-.1.2-.1.2-.1h.2l.2-.2h.2l.2-.1h.2l.2-.1h.2l.2-.1h.4l.2-.1h.5l.2-.1h1.1l.4-.1h.9l.2-.1h1.1l.2-.1h.5l.2-.1h.6l.2-.1h.1l.2-.1h.2l.1-.1h.1l.1-.1h.1v-.1l.2-.1v-.2h-.1v.1h-.1v.1h-.1l-.1.1h-.1l-.1.1h-.3l-.1.1h-.3l-.2.1h-.4l-.2.1h-.7l-.3.1h-1.1l-.2.1h-1l-.3.1h-1l-.2.1h-.4l-.2.1h-.3l-.2.1h-.2l-.2.1h-.2l-.2.1-.2.1h-.2l-.2.2h-.2l-.2.1-.2.1-.2.1-.2.1-.2.2h-.3l-.2.2-.2.1-.2.2-.2.1-.3.2-.2.1-.2.2-.2.2zm0-1.5.3-.1.3-.2.3-.2.2-.1.3-.2.2-.1.2-.2h.2l.2-.2.2-.1.2-.1.2-.1.2-.1.2-.1h.2l.1-.2h.2l.2-.1h.1l.2-.1h.2l.1-.1h.2l.1-.1h.4l.1-.1h.5l.2-.1h1.4l.3-.1h1.1l.2-.1h.7l.3-.1h.6l.2-.1h.3l.2-.1h.2v-.1h.3l.1-.1h.1l.1-.1.1-.1.1-.1v-.2h-.1v.2h-.2l-.1.1h-.1l-.1.1h-.1l-.2.1h-.3l-.2.1h-.3l-.2.1h-.7l-.2.1h-.7l-.3.1h-1.1l-.3.1h-1.3l-.2.1h-.5l-.1.1h-.3l-.2.1h-.2l-.1.1-.2.1h-.2l-.1.1-.2.1h-.2l-.2.2h-.2l-.2.2h-.1l-.2.2h-.2l-.3.2-.2.1-.2.2-.2.1-.2.1-.3.2-.2.2-.3.1zm0-1.4.3-.2.3-.1.2-.2.2-.1.2-.2h.3l.2-.2.2-.1.2-.1.2-.1.2-.1.1-.1.2-.1.2-.1.2-.1h.1l.2-.1.2-.1h.1l.2-.1h.2l.1-.1h.2l.1-.1h.4l.1-.1h.8l.3-.1h1.5l.3-.1h.7l.3-.1h.6l.3-.1h.5l.2-.1h.3l.2-.1.2-.1h.1l.1-.1h.1v-.1h.1l.1-.1v-.3.1h-.1v.1h-.1v.1h-.1l-.1.1h-.1l-.2.1h-.2l-.2.1h-.3l-.2.1h-.4l-.2.1h-.6l-.3.1h-1l-.3.1h-1.5l-.2.1h-.6l-.2.1h-.3l-.1.1h-.2l-.2.1h-.1l-.2.1h-.2l-.1.1-.2.1h-.2l-.2.2h-.1l-.2.1-.2.1-.2.1-.2.1-.2.2h-.2l-.2.2-.2.1-.2.2-.3.1-.2.2-.2.1zm.1-1.4.3-.2.3-.2.2-.1.2-.1.2-.2.2-.1.2-.1.2-.1.2-.1.2-.1.2-.1.1-.1h.2l.2-.2h.3l.1-.2h.3l.2-.1h.1l.1-.1h.3l.2-.1h.3l.1-.1h.6l.3-.1h.6l.2-.1h.8l.3-.1h.9l.1-.1h.7l.2-.1h.5l.2-.1h.2l.2-.1h.2v-.1h.1l.1-.1.1-.1v-.2l-.1.1-.1.1h-.1v.1h-.2l-.2.1h-.4l-.2.1h-.5l-.2.1h-.6l-.2.1h-1l-.3.1h-.5l-.3.1h-.8l-.2.1h-.6l-.1.1h-.3l-.2.1h-.1l-.1.1h-.2l-.1.1h-.2l-.1.1h-.2l-.1.2h-.2l-.2.1h-.1l-.2.2h-.2l-.2.2h-.1l-.2.2h-.2l-.2.2-.3.1-.2.2-.2.1-.2.2zm0-1.4.3-.2.2-.1.2-.2.2-.1.2-.1.2-.1.2-.1.2-.1.1-.1.2-.1.2-.1.2-.1h.1l.2-.1.1-.1h.2l.1-.1h.2l.1-.1h.2l.1-.1h.1l.2-.1h.3l.1-.1h.6l.1-.1h.7l.3-.1h.7l.3-.1h.7l.2-.1h.6l.2-.1h.5l.2-.1h.2l.2-.1h.2l.1-.1h.1l.2-.1v-.1l.1-.1v-.1h-.1v.1h-.1v.1h-.2l-.1.1h-.3v.1h-.5l-.2.1h-.5l-.2.1h-.7l-.2.1h-.7l-.2.1h-.8l-.3.1h-.5l-.2.1h-.4l-.2.1h-.2l-.2.1h-.3l-.1.1h-.2l-.1.1-.2.1h-.1l-.2.1-.1.1h-.2l-.2.2h-.1l-.2.1-.2.1-.2.1-.2.2h-.2l-.2.2-.2.1-.2.1-.2.2-.3.2zm0-1.5.3-.1.2-.2.2-.1.2-.1.2-.2h.2l.2-.2h.1l.2-.2h.2l.1-.1h.2l.1-.2h.3l.2-.1.1-.1h.2l.1-.1h.3l.1-.1h.3l.1-.1h.4l.3-.1h.5l.3-.1h.7l.2-.1h.7l.2-.1h.8l.2-.1h.4l.2-.1h.3l.2-.1h.2v-.1h.2v-.1h.1v-.1h.1v-.2h-.1v.1h-.1v.1h-.2v.1h-.3l-.2.1h-.4l-.1.1h-.5l-.2.1h-.8l-.2.1h-.7l-.3.1h-.7l-.3.1h-.5l-.1.1h-.5v.1h-.2l-.2.1h-.2l-.2.1h-.1l-.2.1h-.1l-.2.1-.1.1h-.2l-.1.2h-.2l-.2.1-.1.1-.2.1-.2.1-.2.1-.1.2h-.2l-.2.2-.2.1zm0-1.2.2-.1.2-.2.2-.1.2-.1.2-.1.1-.1.2-.2h.2l.2-.1.1-.1.2-.1h.1l.2-.2h.1l.2-.1h.1l.2-.1h.1l.1-.1h.2l.1-.1h.3l.1-.1h.3v-.1h.6l.1-.1h.5l.3-.1h.9l.2-.1h.7l.2-.1h.7l.1-.1h.4l.1-.1h.2l.1-.1h.2v-.1l.1-.1.1-.2h-.1l-.1.1-.1.1h-.1l-.1.1h-.3l-.1.1h-.5l-.1.1h-.7l-.2.1h-.8l-.2.1h-.7l-.2.1h-.6l-.1.1h-.6l-.1.1h-.3v.1h-.2l-.2.1h-.1l-.1.1h-.2l-.1.1h-.2l-.1.1-.2.1h-.1l-.2.2h-.1l-.2.1-.2.1-.1.1-.2.1-.2.1-.2.2h-.2l-.2.2-.2.1-.2.2zm0-1.4.2-.2.3-.1.2-.2h.2l.1-.2.2-.1.2-.1.1-.1.2-.1h.2l.1-.2h.1l.2-.1h.1l.1-.1h.2v-.1h.3l.1-.1h.2l.2-.1h.3l.1-.1h.6l.3-.1h.6l.2-.1h.7l.2-.1h.7l.2-.1h.6v-.1h.4l.2-.1h.1l.1-.1.2-.1v-.1l.1-.2h-.1v.1l-.1.1h-.1l-.1.1h-.2v.1h-.6l-.1.1h-.6l-.2.1h-.8l-.2.1h-.6l-.2.1h-.7l-.1.1h-.6l-.1.1h-.4v.1h-.3l-.1.1h-.2v.1h-.2l-.1.1h-.2l-.1.1-.2.1h-.1l-.2.2h-.1l-.2.2h-.2l-.1.2-.2.1-.2.1-.2.2-.2.1-.3.2z" id="path9"/><path d="m259.1 182.4 1.5-.1 7 19.1c-2 2-5.1 2.5-9.3 3a20 20 0 0 0-10.6 4.6c-.6.6-1.1 1.1-2.5 1v-1l.2-.3.4-.4.5-.3.5-.4.5-.3.5-.4.4-.3.5-.3.5-.3.4-.3.5-.2.4-.3.5-.2.4-.2.5-.2.4-.2.5-.2.4-.1.5-.2.4-.1.5-.2.4-.1.4-.1.5-.1.4-.1.4-.1h.5l.4-.1.4-.1h.4l.5-.1h.8l.3-.1h.4l.2-.1h.5l.2-.1h.2l.2-.1h.2l.2-.1h.2l.2-.1.1-.1h.2l.2-.1.2-.1h.2l.2-.2h.1l.2-.2h.2l.1-.1.2-.1.1-.1.2-.1.1-.2h.2l.1-.2.2-.2-.2-.7-3.2-9.2-.2-.7z" id="path10"/></g><path d="M195.7 177.6v5l-.3-.2-.1-.1v-.1h-.1v-.1h-.1v-.1h-.1v-.1h-.1v-.1h-.1v-.1l-.3-.1v-.1h-.2v-.1h-.3l-.2-.1v-3.8h1v1.4-1.4h.6v-.1h1.3v6.3-.2l.1-.2h.1v-.2l.1-.1.1-.1v-.1l.2-.1.1-.2h.1l.1-.1h.1l.1-.2h.2l.1-.1h.2v-.1h.3v-4.6h1v.5l.3-.1v4h.4l.1.1h.2l.1.1h.1l.2.1.2.2h.1l.1.1.1.1.1.1h.1l.1.2.1.1.1.1.1.1v.2l.2.1v.3l.1.1v-1.1l-.2-1v-.9l-.1-1v-1l-.2-1.1v1.4l.1.1v2.5l.1.1v1.1l-.2-.2-.1-.1-.1-.1-.1-.1h-.1v-.1h-.1v-.1h-.1v-.1h-.1v-.1l-.4-.1-.1-.1h-.2v-.1h-.4l-.2-4h1v1.5-1.5h.3l.1-.1h.4l.2-.1 1-.1.1.9.1.7v.7l.1.7v2.2l.1.7v.7l.1-.1v-.3l.1-.1.1-.2.1-.2.1-.1v-.1h.2v-.2h.2v-.1l.2-.1v-.1h.2l.1-.1h.1l.1-.1h.2l.1-.1h.1v-2.9l-.1-.4v-1.5h.9v2.4l.1.2v2.4l.1.2v1.6h.1l.2.4v.3l.1.2v.3l.1.2v.5l.1.2v.9l-.1.2.3-.2.1.4.1.3.1.3.1.2v.3l.1.2v.2l.1.2v.8-.1l.5.5.2.4.2.2.1.3.2.3.1.3.1.2.1.3.1.2.1.2.1.2v.2-.2l.5.4.3.2.2.3.2.2.2.2.2.3.2.2.2.2.2.2.1.2.2.2.1.2.1.2.2.2v.2l.1.2.1.2v-.1l.2-.2.4.4.3.2.2.2.3.2.3.2.2.2.2.2.2.2.3.2.2.2.1.2.2.2.2.2.1.2.2.2v.2l.2.2v.2l.1.2v1.1l-.1.2-.1.1-.1.2-.2.1-.2.2-.2.1-.1.1 1.4 1.2.2.2v-1.2l-.1-.1-.1-.3-.5-.2.6-.1h.4l.1-.1h1.3l.2.1h.2l.2.1h.2l.2.1.2.1h.2l.2.2h.2l.3.2.2.1.2.1.3.2.2.1.2.2.3.1.3.2.2.2.3.2.3.2.1.2h.1l.2.2.2.2.1.1.2.1.1.1.1.1.2.1.1.1.1.1.2.1.1.1.2.1.1.1h.1l.2.2h.2l.1.2h.2l.1.1h.2l.2.2h.1l.2.1h.2l.2.1h.1l.2.1.2.1h.3v.7h-.2v.1h-.3l-.1.1h-.4v.1h-.2l-.4.2v-.3l.1-.1v-.2h-.1v-.1h-.1l-.1-.1h-.1v-.1h-.3v-.1h-.2l-.2-.1h-.1l-.2-.1h-.2l-.2-.1h-.1l-.1-.1h-.1l-.2-.1v-.1h-.2v-.1h-.2v-.1h-.2v-.1l-.2-.1-.2-.1-.1-.1-.1-.1h-.1v-.1l-.3-.2h-.1l-.1-.1-.1-.1-.3-.2-.1-.1-.2-.1-.2-.1-.1-.2h-.2l-.2-.2-.1-.1-.2-.1-.2-.2h-.2l-.1-.2h-.2l-.2-.2-.1-.1-.2-.1-.2-.1h-.1.2l.1.2.1.1.1.2h.1l.1.2.1.1v.2l.1.1v.3l.1.1v1l-.1.2-.1.2.7.5-.9-.2-.1-.1h-.3v-.1h-.2l-.1-.1h-.3v-.1h-.3l-.2-.1-.1-.1h-.1l-.3-.1-.2-.2-.2-.2-.2-.1-.2-.2-.2-.2-.1-.1-.2-.2-.2-.1-.2-.2-.2-.1-.1-.2-.2-.1-.2-.2-.2-.1-.1-.2-.2-.1-.2-.1-.2-.2-.1-.1-.2-.2h-.1v-.1h-.6l-.4-.1h-.3l-.3-.1h-.3l-.3-.1-.3-.1-.3-.1-.3-.1-.3-.1-.3-.1-.3-.1-.3-.2-.2-.1-.3-.1-.3-.2-.2-.2-.3-.1-.3-.2-.2-.2-.3-.2v.8l-.1.2-.1.1-.1.2-.2.1-.1.2-.2.1-.2.1-.1.1 1.2 1.2.2.3v-1.7l-.5-.2h2.2l.2.1h.2l.1.1h.2l.2.2h.2l.2.1.2.1.1.1.2.2h.3l.2.2.2.2.2.1.2.2.2.2.3.2.2.2.2.2.3.2.1.1.1.1.1.1.1.1.1.2h.2v.2h.2l.1.2.1.1.1.1.2.1v.1l.2.1.1.1.2.1.1.1.1.1h.2l.1.2h.1l.2.2h.1l.2.1.1.1h.2l.2.1.1.1h.2l.2.1.1.1h.3v.6l-.1.1h-.2v.1h-.4v.1h-.5l-.4.2.1-.3v-.4h-.1l-.1-.1h-.1l-.1-.1h-.1l-.1-.1h-.1l-.2-.1h-.1l-.2-.1-.2-.1h-.1l-.1-.1-.1-.1h-.2v-.1h-.2v-.1h-.2v-.1l-.1-.1h-.1l-.1-.1v-.1h-.2l-.1-.2h-.1v-.1h-.2v-.1l-.1-.1-.2-.1v-.1h-.1l-.1-.1-.2-.2-.2-.1-.1-.2-.2-.1-.1-.1-.2-.1-.1-.2h-.2l-.1-.2-.2-.1-.1-.2h-.2l-.1-.2-.2-.1-.1-.1-.2-.1-.1-.1-.2-.1.2.2h.1l.1.2.1.1.1.2v.1l.1.1v.2h.1v.4l.1.1v.7l-.1.1v.3l-.2.2.6.6-.7-.3h-.1l-.1-.1h-.1l-.1-.1h-.2v-.1h-.1l-.2-.1h-.1l-.1-.1h-.3v-.1h-.2v-.1l-.3-.1-.2-.2-.1-.2-.2-.1-.2-.2-.1-.2-.2-.1-.1-.2-.2-.1-.2-.2-.1-.2-.2-.1-.1-.2-.2-.1-.1-.2-.2-.1-.1-.2-.2-.1-.1-.1-.2-.2-.1-.1-.2-.2h-.5l-.3-.1-.3-.1h-.3l-.3-.1-.3-.1-.2-.1-.3-.1-.3-.1-.2-.1-.3-.2h-.3l-.2-.2-.3-.2-.2-.1-.2-.2-.3-.2-.2-.1-.3-.2-.2-.2-.2-.2-.2-.2-.2-.2-.3-.3-.2-.2-.2-.2-.2-.3-.2-.2-.2-.3-.2-.3-.1-.3-.5-.6.7.3h.2-.2l-.2-.2-.2-.2-.2-.2-.2-.2-.1-.1-.2-.2-.2-.2-.1-.3-.2-.2-.1-.2-.2-.2-.1-.3-.1-.2-.2-.3v-.3l-.3-.6.3.2v-.1l-.2-.2-.2-.1-.1-.2-.1-.2-.2-.2-.1-.2-.1-.2-.1-.2-.1-.2-.1-.3-.1-.2-.1-.2v-.3l-.2-.2-.1-.6.3.2h.2l.1.2v-.1l-.2-.2-.1-.1-.1-.2-.1-.1-.1-.2-.1-.2-.1-.1v-.2l-.1-.2v-.2l-.1-.2v-.2l-.1-.2v-1.2l.2.2.1.1v.1h.1v.2h.1v.4h.1l.2.1h.2l.1.1h.2l.1.1.2.1h.1l.2.2.2.1.1.1.1.1.2.1v.2h.2v.2l.2.1v.2-.6l-.2-.5h-.2l-.2-.1h-.1l-.2-.1h-.2l-.1-.2h-.2l-.1-.1h-.2l-.1-.2h-.2l-.1-.2h-.1l-.2-.2v-.1l-.2-.2v-.1l-.2-.1v-.2l-.2-.2v-.1l-.1-.2v-.2l-.2-.2v-.6l-.1-.3v-1.2l.3.2-.2-.2v-.3l-.2-.2v-.3l-.1-.2v-.3l-.1-.2v-4.3h.4l.2-.1h.3v3.4l-.1.2v.2h.2v.1h.2l.1.1h.2v.1l.2.1.2.1.1.1.1.1h.1v.2h.2v.2l.1.1.1.1v.1l.1.2.1.1v.1l.1.2v.1-6m3.8 6v.3l-.1.1h.1l.4.1-.2-.2v-.1zm.4 2.5v.3l-.1.2v.4h-.1.3v.4l.2.2v.5l.1.3v.2l.1.2v1-.1l.4.5.2.3.1.3.2.3-.3-.6.4.1.2.2h.2-.2l-.1-.2-.2-.2v-.1l-.2-.2-.1-.1-.1-.2-.1-.2-.1-.2v-.1l-.2-.2v-.5l-.1-.2v-.2l-.1-.2v-.8l.2.2.1.1.1.1.1.1v.2h.1v.3h.2l.2.1h.1l.2.1h.2l.1.1h.2l.2.1.1.1.1.1h.2l.1.2h.2v.2l.2.1.1.1.2.1v.2h.2l-.2-.5-.2-.5h-.4l-.2-.1h-.2l-.1-.1h-.2l-.2-.2h-.2l-.1-.1h-.2l-.1-.2h-.2l-.1-.2-.2-.1-.1-.1-.1-.1-.2-.2v-.1l-.2-.2v-.1l-.2-.2v-.2l-.2-.2zm1.8 6v.3l.1.2v.2l.1.2v-.3l.4.5.3.2.2.3.1.2.1.1h.2v.1-.1l-.3-.2-.1-.1-.2-.2-.1-.2-.2-.2-.1-.2-.2-.2-.1-.2-.1-.2zm2.8 4.4v.1m-1-10.8.2.5.1.8.2.5v-1h.1v-.2l.1-.1.1-.1.1-.1v-.1l.2-.1v-.1l.2-.1h.1l.1-.2h.3l.2-.1.1-.1h.4v-.5h-.1l-.1.2h-.1l-.1.2h-.1l-.1.1-.2.1h-.1l-.1.1h-.2l-.1.1h-.3l-.2.1h-.6m.9 3.1.2.6.3.8.1.2v-.9l.1-.2v-.1l.1-.1.1-.1.1-.1.1-.1.1-.1.1-.1h.2l.1-.1.2-.1h.1l.2-.1h.2v-.6h-.2v.2h-.2v.2l-.2.1-.1.1h-.1l-.2.2h-.1l-.2.1h-.2l-.1.1h-.2l-.2.1zm1.5 3.2.4.8.5.7v-.3l-.1-.2v-.7l.1-.1.1-.2.2-.2.2-.1.1-.1h.2l.1-.2h.2v-.2l-.1-.1v-.1h-.1v-.2l-.2.2-.1.2v.1l-.2.1v.1l-.2.1-.1.1h-.2l-.1.1-.1.1h-.4zm2.3 3.4.3.3.8 1 .5.5-.2-.2v-.2l-.1-.1v-.2l-.1-.1v-.3l-.1-.2v-.5l.1-.2h.1l.1-.2.1-.1.1-.1.2-.1v-.3h-.1v-.2h-.1v-.2l-.1-.1v-.1.4l-.1.2v.1l-.1.1-.1.2-.2.2-.2.1-.1.1h-.2l-.1.1h-.1zm3.2 3.6 1.2 1 .9.9-.2-.2-.1-.2-.1-.1-.1-.2-.1-.1v-.2l-.1-.1-.1-.2v-1.1h.1v-.2l.2-.1v-.1l.2-.1-.1-.1-.1-.1-.1-.2h-.1v-.1h-.1v.4l-.1.1-.1.2-.1.1-.1.1-.2.2h-.1l-.2.2-.2.1zm-6.7-16.9h.1l.1-.1h.1l.2-.1v-2.1l-.1-.1v-2.2h-.9v3.8l.1.2v.7h.3zm-1 .9h.1l.1-.2.3-.4V180l-.1-.1v-2.4h-1v2.2l.1.2v1.9l.1.1v1.1l.1.5zm7.8 17.2-.5-.5-.6-.6h-.6l-.3-.1h-.2l-.3-.1h-.3l-.3-.1-.3-.1h-.2l-.3-.2h-.3l-.2-.2h-.3l-.2-.2v.1h.1l.1.1.1.1.1.1.2.1v.1h.5l.3.1h.2l.3.1h.2l.3.1.2.1h.2l.3.2h.2l.2.2h.3l.2.2h.2l.2.2.2.1zm-3.1-3.3-.3-.3-.6-.7-.4-.4h-.7l-.2-.1h-.3l-.2-.1h-.3l-.2-.2h-.2l-.3-.1-.2-.1-.2-.1-.2-.1-.2-.1.1.1.1.2.1.1h.2l.2.1h.5l.2.1.2.1h.2l.3.2h.2l.2.1.2.1.2.1.2.1.2.1.1.2h.2l.2.2.2.1.2.2.2.1zm-3.1-4-.4-.7v-.1h-.4l-.2-.1-.3-.1h-.2l-.2-.1-.2-.1h-.3l-.2-.2h-.1l-.2-.2h-.2l-.2-.2-.2-.1v-.1.2l.2.2v.2h.1l.2.1h.5l.2.1h.1l.2.1h.2l.1.1.2.1.2.1h.1l.2.2h.1l.2.2.2.1.1.1zm-2.5-6.3v-.7l-.2-.4h-.5l-.1-.1h-.2l-.1-.1h-.3l-.2-.1v-.1h-.2l-.2-.1v-.1h-.2l-.1-.2h-.2v-.2h-.1v.3h.1v.2h.3l.2.1h.3l.1.1.2.1h.1l.2.1v.1h.2l.1.2h.2v.2h.2v.2l.2.1v.1l.1.1zm-6-1.3v.6l.2.8v.5-.3l.1-.1v-.4l.1-.2.1-.2.1-.1v-.1l.2-.1v-.1h.1l.1-.2h.1l.2-.1.2-.1h.1l.2-.1h.1l.2-.1h.2v-.4h-.1v.1l-.2.1v.1h-.2l-.1.1-.1.1h-.2l-.1.1h-.3l-.1.1zm.6 3.2.1.5.3.8v.2-.6h.1v-.3l.1-.1v-.1l.2-.2.1-.1.1-.1.1-.1h.1l.2-.1.1-.1h.1l.2-.1h.2l.1-.1v-.5l-.2.1v.2h-.2v.2h-.2l-.1.1h-.2l-.1.1-.2.1h-.3l-.1.1zm1.2 3.2.4.7.4.8v-.3h-.1v-.9h.1v-.2h.1l.1-.2h.1l.1-.2h.1l.2-.1.2-.1h.2v-.3h-.1v-.3h-.1l-.1.1v.1l-.2.1v.1l-.1.1-.1.1-.2.1-.2.1-.1.1h-.3l-.2.1zm2 3.4.2.3.7 1 .4.5v-.1l-.1-.2v-.1l-.1-.2v-.1l-.1-.2v-.9l.1-.2.2-.2.2-.2h.2v-.3h-.1v-.2l-.1-.1v-.2h-.1v-.1.4l-.1.1v.1l-.1.2h-.1l-.1.2-.2.2h-.2l-.1.1-.2.1zm2.7 3.6 1 1.1.8.8-.1-.2-.1-.1-.1-.2v-.2l-.2-.1v-.3l-.1-.2v-1l.1-.1.1-.1.1-.1.1-.1h.1v-.2l-.2-.1v-.1l-.1-.2h-.1v.3l-.1.2-.1.1-.1.2-.1.1-.2.1-.1.1-.2.1-.2.1zM198 182h.2l.2-.1V178l.1-.2v-.4h-.8v2.4l-.1.2v2zm-.9.8.2-.2.3-.4v-4.1l.1-.3v-.4h-.8v1.6l-.1.1v4.1zm6.3 17.1-.5-.6-.5-.6h-.5l-.3-.1h-.3l-.2-.2h-.3l-.2-.1h-.3l-.2-.2h-.3l-.2-.2-.2-.1-.3-.1-.2-.1v-.1.1l.1.1.1.1h.1v.1h.1v.1h.1v.1h.1l.2.1h.2l.3.1h.2l.2.1.2.1h.3l.2.2h.2l.2.2h.2l.2.2h.2l.2.2.2.1.2.2h.2l.2.2zm-2.8-3.4-.2-.3-.5-.7-.3-.4h-.4l-.3-.1h-.2l-.3-.2h-.4l-.2-.2h-.2l-.2-.2h-.2l-.2-.2h-.2l-.2-.2.1.2.1.1v.2h.5l.2.1h.2l.2.1.2.1h.2l.2.2h.2l.1.2h.2l.2.2h.2l.1.2.2.1.2.2h.2l.1.2.2.2zm-2.6-4-.3-.6v-.2h-.4l-.2-.1h-.2l-.2-.2h-.2l-.2-.1-.2-.1-.2-.1-.2-.1-.1-.1-.2-.1-.2-.2h-.1l-.1-.2v.1l.1.1.1.2.1.2v.1h.3l.2.1h.3l.2.1.1.1h.2l.1.1.2.1.1.1.2.1.1.1.1.1.2.1.1.2h.1zm-2-6.3V185h-.5l-.2-.1h-.2l-.2-.1v-.1h-.2l-.1-.1h-.2v-.2h-.2l-.1-.1-.1-.1-.1-.1-.1-.1v.5h.4l.2.1h.1l.2.1.2.2h.1l.2.1.2.2.2.2.2.2v.1l.1.1.1.2" fill="#795a2f" fill-rule="evenodd" id="path11"/><g fill="#f7d400" fill-rule="evenodd" id="g17"><path d="M195.6 177.5h-.7v4l.6.8zm-2.4 5.2c.5.8.9 1.7 2.4 2q0-1.2-1-2.3.7.9.7 1.8c-1-.2-1.5-1-2-1.5m.4 3.1c.5.9 1 1.7 2.4 2q-.1-1.6-1.1-2.4.7 1 .8 2c-.9 0-1.5-.9-2-1.6m.7 3.2c.4.7.6 1.4 2.7 2a4 4 0 0 0-1.6-2.4q1 1 1.1 2c-1-.2-1.6-1-2.2-1.6m1.3 3.6q1.3 1.4 3.3 1.9a6 6 0 0 0-2.3-2.6q1.2 1 1.6 2c-.9 0-1.7-.7-2.6-1.3m1.8 3.3c1.2 1 2.5 2 4 2.1q-1-1.5-2.8-2.6 1.4 1 2 2.1-1.5-.2-3.2-1.6m2.8 3.8a9 9 0 0 0 4.6 2.2q-1.2-1.7-3.4-2.8 1.6 1 2.6 2.3-2.2-.5-3.8-1.7m-6.2-22v3.5l.6.3v-3.9zm-1 .1v4q.4 3.1 3 3.2v-.4q-.4-2.8-2.4-3v-4zm3.4 10.3c-1.9-.4-3.2-1.5-3.1-4.4l.3.2.1.8q1.9.3 2.4 2v.2l.2.7zm1 3.4q-3.7-.8-3.6-4.5l.2.3.2.6q1.8.3 2.6 2v.1l.3.6.2.6zm2 3.4q-4-.6-5-4.7l.4.2.4.8q1.8.1 3.1 2l.3.4.4.6zm2.8 3.6q-4.5-.6-6.3-4.9l.5.2.4.8c2.3.3 4 2 5.4 4m3.4 4q-4.8-.7-7.6-5.3l.6.3.8.8a8 8 0 0 1 4.5 2.2l.5.6.1.1.1.2.2.1v.1l.2.2.1.1.2.2.1.1h.1z" id="path12"/><path d="M217.2 208.4c.7-.2 1.4-.1 1.2-.7q-2.8-1-4.4-3c-2.6-2.4-4.3-2.8-5.7-2.6q2.7 1.2 5 3.4c.8.7 1.5 1.4 3 1.9q1 .3.8 1m-12.3-9.6c0 .7 0 1.4 1.6 3 1.2-.6.9-1.5.3-2.4l.2.3.3.2.2.2.3.2q.4 1.2-1 2h-.1l-.3-.3q-2.9-3-1.2-4.2l-.7-.9.2-.2.1.1.2.2.2.2.3.2.2.1.2.2h.1l-.8-.2.5.6.2.3.2.3.2.2.3.3v.1q.8 1.4-.2 2a4 4 0 0 1-1.5-2.5m-3-3.4c0 .7 0 1.4 1.1 2.6q1.6-.3.5-2.3.6 1.5-.5 1.9-1-1.1-1.1-2.2m-.6-3q.5 1.9-1 2.2-.8-1.4-.5-2.5 0 1 .6 2 1-.1.9-1.7m-1.4-3.1q.2 1.6-1.5 1.8-.5-1.2.1-2.3-.3 1 0 2 1-.1 1.4-1.5m-2-3.5q-.6.8-.5 2.1c1.3 0 1.7-.7 2-1.6q-.7 1.2-1.8 1.3c-.2 0 .1-1.8.4-1.8m-.1-3.1q-1 .9-.9 2.2 1.7 0 2.1-1.6-.8 1.2-1.8 1.3 0-1 .6-2m13.2 23.6c.7-1.4.2-2.8-2.6-4q.2.8 0 1.7l.8.6.6.6q.1-.8-.1-1.4.6 1 .7 2zm-7.7-7.8q1.7-.7 1-2.2l-.2-.3-.2-.2-.1-.2-.2-.3-.2-.2-.1-.3-.2-.3-.2-.4-.9-1v.2l.5 1.2c-1.4.6-.8 2 .1 3.3zm-2.8-3.5c1.6-.3 2-1.6 0-5l-.1.3.3.9q-2.1.5-.9 2.7l.3.4zm-2-3.5q2.7 0 1.4-4.4l-.3.2.1.8q-2.3.5-1.5 2.6zm-1.2-3.1q2.5-.1 2.4-2.8v-.4l-.1-.2v-.3l-.2-.6-.2.2v.8q-2.4.2-2 3h.1zm-.5-3.2q2.2.2 2.6-2l-.1-.2v-.2l-.1-.2v-.6l-.1-.3V180l-.1-.5V178h.3v-.1h.1v-.3h-.6v4.4q-1.8.4-2 2.3v.9m1-3.3.6-.2v-4l-.5-.1zm-.9 1 .6-.7.1-4.7h-.6z" id="path13"/><path d="m220.3 206.7-2.1-.7-5.4-4.7c-9.9-9.8-9.8-11.3-10.7-23.7h.7c1.1 7.9-2.6 14 17.5 29" id="path14"/><path d="M201.8 177.7h-.7l.1 4.2.8.7zm-2.2 5.4c.6.8 1 1.7 2.6 1.9q0-1.2-1.2-2.3.8 1 .8 1.9c-1-.1-1.6-.9-2.2-1.5m.6 3.2q.6 1.4 2.7 2-.2-1.8-1.4-2.5.9 1 1 2c-1 0-1.6-.8-2.3-1.5m.9 3.2c.4.7.7 1.4 3 2a4 4 0 0 0-1.8-2.4q1 .8 1.3 2-1.6-.4-2.5-1.6m1.6 3.7q1.4 1.4 3.7 1.7-1.2-1.9-2.6-2.4 1.3.8 1.8 2c-1 0-1.9-.8-2.9-1.3m2.2 3.3c1.4.9 2.8 2 4.4 2q-1.2-1.4-3.1-2.6 1.4 1 2.3 2-1.8-.2-3.6-1.4m3.2 3.7c1.5 1 3 2 5.1 2q-1.5-1.7-3.8-2.6 1.8.9 2.9 2.2-2.4-.4-4.2-1.6m-8-22.3.2 3.6.7.3-.2-4zm-1 .2.2 4c.3 2.3 1.7 3 3.3 3.2v-.3q-.5-3-2.7-3l-.1-4zm4.2 10.5c-2-.4-3.5-1.5-3.6-4.4l.3.1.2.9a3 3 0 0 1 2.7 1.8v.3l.2.7zm1.3 3.3q-3.9-.7-4.2-4.4l.3.3.2.6a4 4 0 0 1 3 1.9v.2l.3.5.3.6zm2.4 3.4q-4.4-.3-5.7-4.5l.4.2.5.7q1.9 0 3.5 1.9l.3.4.5.6.4.6zm3.2 3.6a8 8 0 0 1-7-4.7l.4.2.6.8c2.4.2 4.3 1.8 6 3.7m3.9 3.8q-5.2-.3-8.5-5l.7.3 1 .8a9 9 0 0 1 4.8 2l.6.6.1.1.2.2.1.1.2.2h.1l.2.2.1.2h.2v.2z" id="path15"/><path d="M227 208.2c.7-.3 1.4-.2 1.2-.8q-3.1-1-4.9-2.9c-3-2.3-4.8-2.6-6.4-2.3q3 1.2 5.7 3.2c1 .7 1.7 1.4 3.3 1.8q1.2.3 1 1M213 199c0 .7.2 1.4 2 2.9 1.3-.8.7-1.7-.1-2.7q1 1.5 0 2.2a4 4 0 0 1-1.9-2.4m-3.4-3.4c0 .7.1 1.4 1.4 2.6 1.2-.2 1-1.2.4-2.4q.7 1.5-.5 2a5 5 0 0 1-1.3-2.2m-.9-3q.7 1.8-.9 2.2-.9-1.2-.7-2.5 0 1 .8 2 1-.1.8-1.7m-1.6-3.2q.2 1.6-1.5 2-.8-1.2 0-2.4-.4 1 0 2 1.1-.1 1.5-1.6m-2.3-3.5q-.8 1-.5 2.3c1.4 0 1.8-.9 2-1.8q-.7 1.3-1.8 1.4c-.3 0 0-1.9.3-1.9m-.5-3.1q-.9 1-.7 2.3 1.7-.2 2.1-1.8-.8 1.3-1.8 1.5-.2-1.2.4-2m15.8 23.4c.6-1.4 0-2.8-3.1-3.8q.3.8.2 1.6l.8.7.7.5q0-.8-.2-1.4.7 1 .9 2zm-4.8-3.8c2.4-1.4.5-3.5-2.6-5.8l-.2.4.8 1q-1.8 1.3 1.6 4zm-4-3.6c2.3-1 1-3.1-1.7-5.6v.2l.5 1.2c-1.4.7-.6 2.2.4 3.4zm-3.2-3.6c1.6-.3 2-1.7-.4-5.1l-.1.4.4.9q-2.2.7-.7 2.8l.3.4zm-2.4-3.4q2.9-.2 1.2-4.6l-.3.2.2.8q-2.5.6-1.5 2.8zm-1.5-3.2c2-.2 3.1-1.4 2-4.5l-.2.2v.8q-2.6.6-1.9 3.2v.1zm-.7-3.2c1.8 0 3-.8 2.6-3.2l-.2-4.8h-.7l.2 4.6q-1.9.4-2 2.5zm.9-3.5.5-.2-.1-4.2h-.6q0 2.3.2 4.4m-1 1 .6-.6-.1-4.8h-.7z" id="path16"/><path d="m211 206.6-1.8-.8q-2.8-2.7-4.7-4.8c-8.6-10-8.5-11.5-8.6-23.6h.6c.6 7.8-3.1 13.5 14.6 29.2" id="path17"/></g><path d="M291.9 177.6v5l.3-.2.1-.1v-.1h.1l.1-.2h.1l.1-.2h.1v-.1l.3-.1v-.1h.2v-.1h.3l.2-.1v-3.8h-1v1.4-1.4h-.6v-.1h-1.3v6.3-.2l-.1-.2h-.1v-.2l-.1-.1-.1-.1v-.1l-.2-.1-.1-.2h-.1l-.1-.1h-.1l-.1-.2h-.2l-.1-.1h-.2v-.1h-.3v-4.6h-1v.5l-.3-.1v4h-.4l-.1.1h-.2l-.1.1h-.1l-.2.1-.2.2h-.1l-.1.1-.1.1-.1.1h-.1l-.1.2-.1.1-.1.1-.1.1v.2l-.2.1v.3l-.1.1v-1.1l.2-1v-.9l.1-1v-1l.2-1.1v1.4l-.1.1v2.5l-.1.1v1.1l.2-.2.1-.1.1-.1.1-.1h.1v-.1h.1v-.1h.1v-.1h.1v-.1l.4-.1.1-.1h.2v-.1h.4l.2-4h-1v1.5-1.5h-.3l-.1-.1h-.4l-.2-.1-1-.1-.1.9-.1.7v.7l-.1.7v2.2l-.1.7v.7l-.1-.1v-.3l-.1-.1-.1-.2-.1-.2-.1-.1v-.1h-.2v-.2h-.2v-.1l-.2-.1v-.1h-.2l-.1-.1h-.1l-.1-.1h-.2l-.1-.1h-.1v-2.9l.1-.4v-1.5h-.9v2.4l-.1.2v2.4l-.1.2v1.6h-.1l-.2.4v.3l-.1.2v.3l-.1.2v.5l-.1.2v.9l.1.2-.3-.2-.1.4-.1.3-.1.3-.1.2v.3l-.1.2v.2l-.1.2v.8-.1l-.5.5-.2.4-.2.2-.1.3-.2.3-.1.3-.1.2-.1.3-.1.2-.1.2-.1.2v.2-.2l-.5.4-.3.2-.2.3-.2.2-.2.2-.2.3-.2.2-.2.2-.2.2-.1.2-.2.2-.1.2-.1.2-.2.2v.2l-.1.2-.1.2v-.1l-.2-.2-.4.4-.3.2-.2.2-.3.2-.3.2-.2.2-.2.2-.2.2-.3.2-.2.2-.1.2-.2.2-.2.2-.1.2-.2.2v.2l-.2.2v.2l-.1.2v1.1l.1.2.1.1.1.2.2.1.2.2.2.1.1.1-1.4 1.2-.2.2v-1.2l.1-.1.1-.3.5-.2-.6-.1h-.4l-.1-.1h-1.3l-.2.1h-.2l-.2.1h-.2l-.2.1-.2.1h-.2l-.2.2h-.2l-.3.2-.2.1-.2.1-.3.2-.2.1-.2.2-.3.1-.3.2-.2.2-.3.2-.3.2-.1.2h-.1l-.2.2-.2.2-.1.1-.2.1-.1.1-.1.1-.2.1-.1.1-.1.1-.2.1-.1.1-.2.1-.1.1h-.1l-.2.2h-.2l-.1.2h-.2l-.1.1h-.2l-.2.2h-.1l-.2.1h-.2l-.2.1h-.1l-.2.1-.2.1h-.3v.7h.2v.1h.3l.1.1h.4v.1h.2l.4.2v-.3l-.1-.1v-.2h.1v-.1h.1l.1-.1h.1v-.1h.3v-.1h.2l.2-.1h.1l.2-.1h.2l.2-.1h.1l.1-.1h.1l.2-.1v-.1h.2v-.1h.2v-.1h.2v-.1l.2-.1.2-.1.1-.1.1-.1h.1v-.1h.2v-.2h.2l.1-.1.1-.1.3-.2.1-.1.4-.2.1-.2h.2l.2-.2.1-.1.2-.1.2-.2h.2l.1-.2h.2l.2-.2.1-.1.2-.1.2-.1h.1-.2l-.1.2-.1.1-.1.2h-.1l-.1.2-.1.1v.2l-.1.1v.3l-.1.1v1l.1.2.1.2-.7.5.9-.2.1-.1h.3v-.1h.2l.1-.1h.3v-.1h.3l.2-.1.1-.1h.1l.3-.1.2-.2.2-.2.2-.1.2-.2.2-.2.1-.1.2-.2.2-.1.2-.2.2-.1.1-.2.2-.1.2-.2.2-.1.1-.2.2-.1.2-.1.2-.2.1-.1.2-.2h.1v-.1h.6l.4-.1h.3l.3-.1h.3l.3-.1.3-.1.3-.1.3-.1.3-.1.3-.1.3-.1.3-.2.2-.1.3-.1.3-.2.2-.2.3-.1.3-.2.2-.2.3-.2v.8l.1.2.1.1.1.2.2.1.1.2.2.1.2.1.1.1-1.2 1.2-.2.3v-1.7l.5-.2h-2.2l-.2.1h-.2l-.1.1h-.2l-.2.2h-.2l-.2.1-.2.1-.1.1-.2.2h-.3l-.2.2-.2.2-.2.1-.2.2-.2.2-.3.2-.2.2-.2.2-.3.2-.1.1-.1.1-.1.1-.1.1-.1.2-.3.2-.2.2-.1.1-.1.1-.2.1v.1l-.2.1-.1.1-.2.1-.1.1-.1.1h-.2l-.1.2h-.1l-.2.2h-.1l-.2.1-.1.1h-.2l-.2.1-.1.1h-.2l-.2.1-.1.1h-.3v.6l.1.1h.2v.1h.4v.1h.5l.4.2-.1-.3v-.4h.1l.1-.1h.1l.1-.1h.1l.1-.1h.1l.2-.1h.1l.2-.1.2-.1h.1l.1-.1.1-.1h.2v-.1h.2v-.1h.2v-.1l.1-.1h.1l.1-.1v-.1h.2v-.1h.1l.1-.2h.2v-.1l.1-.1.2-.1v-.1l.2-.1.2-.2.2-.1.1-.2.2-.1.1-.1.2-.1.1-.2h.2l.1-.2.2-.1.1-.2h.2l.1-.2.2-.1.1-.1.2-.1.1-.1.2-.1-.2.2h-.1l-.1.2-.1.1-.1.2v.1l-.1.1v.2h-.1v.4l-.1.1v.7l.1.1v.3l.2.2-.6.6.7-.3h.1l.1-.1h.1l.1-.1h.2v-.1h.1l.2-.1h.1l.1-.1h.3v-.1h.2v-.1l.3-.1.2-.2.1-.2.2-.1.2-.2.1-.2.2-.1.1-.2.2-.1.2-.2.1-.2.2-.1.1-.2.2-.1.1-.2.2-.1.1-.2.2-.1.1-.1.2-.2.1-.1.2-.2h.5l.3-.1.3-.1h.3l.3-.1.3-.1.2-.1.3-.1.3-.1.2-.1.3-.2h.3l.2-.2.3-.2.2-.1.2-.2.3-.2.2-.1.3-.2.2-.2.2-.2.2-.2.2-.2.3-.3.2-.2.2-.2.2-.3.2-.2.2-.3.2-.3.1-.3.5-.6-.7.3h-.2.2l.2-.2.2-.2.2-.2.2-.2.1-.1.2-.2.2-.2.1-.3.2-.2.1-.2.2-.2.1-.3.1-.2.2-.3v-.3l.3-.6-.3.2v-.1l.2-.2.2-.1.1-.2.1-.2.2-.2.1-.2.1-.2.1-.2.1-.2.1-.3.1-.2.1-.2v-.3l.2-.2.1-.6-.3.2h-.2l-.1.2v-.1l.2-.2.1-.1.1-.2.1-.1.1-.2.1-.2.1-.1v-.2l.1-.2v-.2l.1-.2v-.2l.1-.2v-1.2l-.2.2-.1.1v.1h-.1v.2h-.1v.4h-.1l-.2.1h-.2l-.1.1h-.2l-.1.1-.2.1h-.1l-.2.2-.2.1-.1.1-.1.1-.2.1v.2h-.2v.2l-.2.1v.2-.6l.2-.5h.2l.2-.1h.1l.2-.1h.2l.1-.2h.2l.1-.1h.2l.1-.2h.2l.1-.2h.1l.2-.2v-.1l.2-.2v-.1l.2-.1v-.2l.2-.2v-.1l.1-.2v-.2l.2-.2v-.6l.1-.3v-1.2l-.3.2.2-.2v-.3l.2-.2v-.3l.1-.2v-.3l.1-.2v-4.3h-.4l-.2-.1h-.3v3.4l.1.2v.2h-.2v.1h-.2l-.1.1h-.2v.1l-.2.1-.2.1-.1.1-.1.1h-.1v.2h-.2v.2l-.1.1-.1.1v.1l-.1.2-.1.1v.1l-.1.2v.1-6m-3.8 6v.3l.1.1h-.1l-.4.1.2-.2v-.1zm-.4 2.5v.3l.1.2v.4h.1-.3v.4l-.2.2v.5l-.1.3v.2l-.1.2v1-.1l-.4.5-.2.3-.1.3-.2.3.3-.6-.4.1-.2.2h-.2.2l.1-.2.2-.2v-.1l.2-.2.1-.1.1-.2.1-.2.1-.2v-.1l.2-.2v-.5l.1-.2v-.2l.1-.2v-.8l-.2.2-.1.1-.1.1-.1.1v.2h-.1v.3h-.2l-.2.1h-.1l-.2.1h-.2l-.1.1h-.2l-.2.1-.1.1-.1.1h-.2l-.1.2h-.2v.2l-.2.1-.1.1-.2.1v.2h-.2l.2-.5.2-.5h.4l.2-.1h.2l.1-.1h.2l.2-.2h.2l.1-.1h.2l.1-.2h.2l.1-.2.2-.1.1-.1.1-.1.2-.2v-.1l.2-.2v-.1l.2-.2v-.2l.2-.2zm-1.8 6v.3l-.1.2v.2l-.1.2v-.3l-.4.5-.3.2-.2.3-.1.2-.1.1h-.2v.1-.1l.3-.2.1-.1.2-.2.1-.2.2-.2.1-.2.2-.2.1-.2.1-.2zm-2.8 4.4v.1m1-10.8-.2.5-.1.8-.2.5v-1h-.1v-.2l-.1-.1-.1-.1-.1-.1v-.1l-.2-.1v-.1l-.2-.1h-.1l-.1-.2h-.3l-.2-.1-.1-.1h-.4v-.5h.1l.1.2h.1l.1.2h.1l.1.1.2.1h.1l.1.1h.2l.1.1h.3l.2.1h.6m-.9 3.1-.2.6-.3.8-.1.2v-.9l-.1-.2v-.1l-.1-.1-.1-.1-.1-.1-.1-.1-.1-.1-.1-.1h-.2l-.1-.1-.2-.1h-.1l-.2-.1h-.2v-.6h.2v.2h.2v.2l.2.1.1.1h.1l.2.2h.1l.2.1h.2l.1.1h.2l.2.1zm-1.5 3.2-.4.8-.5.7v-.3l.1-.2v-.7l-.1-.1-.1-.2-.2-.2-.2-.1-.1-.1h-.2l-.1-.2h-.2v-.2l.1-.1v-.1h.1v-.2l.2.2.1.2v.1l.2.1v.1l.2.1.1.1h.2l.1.1.1.1h.4zm-2.3 3.4-.3.3-.8 1-.5.5.2-.2v-.2l.1-.1v-.2l.1-.1v-.3l.1-.2v-.5l-.1-.2h-.1l-.1-.2-.1-.1-.1-.1-.2-.1v-.3h.1v-.2h.1v-.2l.1-.1v-.1.4l.1.2v.1l.1.1.1.2.2.2.2.1.1.1h.2l.1.1h.1zm-3.2 3.6-1.2 1-.9.9.2-.2.1-.2.1-.1.1-.2.1-.1v-.2l.1-.1.1-.2v-1.1h-.1v-.2l-.2-.1v-.1l-.2-.1.1-.1.1-.1.1-.2h.1v-.1h.1v.4l.1.1.1.2.1.1.1.1.2.2h.1l.2.2.2.1zm6.7-16.9h-.1l-.1-.1h-.1l-.2-.1v-2.1l.1-.1v-2.2h.9v3.8l-.1.2v.7h-.3zm1 .9h-.1l-.1-.2-.3-.4V180l.1-.1v-2.4h1v2.2l-.1.2v1.9l-.1.1v1.1l-.1.5zm-7.8 17.2.5-.5.6-.6h.6l.3-.1h.2l.3-.1h.3l.3-.1.3-.1h.2l.3-.2h.3l.2-.2h.3l.2-.2v.1h-.1l-.1.1-.1.1-.1.1-.2.1v.1h-.5l-.3.1h-.2l-.3.1h-.2l-.3.1-.2.1h-.2l-.3.2h-.2l-.2.2h-.3l-.2.2h-.2l-.2.2-.2.1zm3.1-3.3.3-.3.6-.7.4-.4h.7l.2-.1h.3l.2-.1h.3l.2-.2h.2l.3-.1.2-.1.2-.1.2-.1.2-.1-.1.1-.1.2-.1.1h-.2l-.2.1h-.5l-.2.1-.2.1h-.2l-.3.2h-.2l-.2.1-.2.1-.2.1-.2.1-.2.1-.1.2h-.2l-.2.2-.2.1-.2.2zm3.1-4 .4-.7v-.1h.4l.2-.1.3-.1h.2l.2-.1.2-.1h.3l.2-.2h.1l.2-.2h.2l.2-.2.2-.1v-.1.2l-.2.2v.2h-.1l-.2.1h-.5l-.2.1h-.1l-.2.1h-.2l-.1.1-.2.1-.2.1h-.1l-.2.2h-.1l-.2.2-.2.1-.1.1zm2.5-6.3v-.7l.2-.4h.5l.1-.1h.2l.1-.1h.3l.2-.1v-.1h.2l.2-.1v-.1h.2l.1-.2h.2v-.2h.1v.3h-.1v.2h-.3l-.2.1h-.3l-.1.1-.2.1h-.1l-.2.1v.1h-.2l-.1.2h-.2v.2h-.2v.2l-.2.1v.1l-.1.1zm6-1.3v.6l-.2.8v.5-.3l-.1-.1v-.4l-.1-.2-.1-.2-.1-.1v-.1l-.2-.1v-.1h-.1l-.1-.2h-.1l-.2-.1-.2-.1h-.1l-.2-.1h-.1l-.2-.1h-.2v-.4h.1v.1l.2.1v.1h.2l.1.1.1.1h.2l.1.1h.3l.1.1h.8m-.6 3.2-.1.5-.3.8v.2-.6h-.1v-.3l-.1-.1v-.1l-.2-.2-.1-.1-.1-.1-.1-.1h-.1l-.2-.1-.1-.1h-.1l-.2-.1h-.2l-.1-.1v-.5l.2.1v.2h.2v.2h.2l.1.1h.2l.1.1.2.1h.3l.1.1zm-1.2 3.2-.4.7-.4.8v-.3h.1v-.9h-.1v-.2h-.1l-.1-.2h-.1l-.1-.2h-.1l-.2-.1-.2-.1h-.2v-.3h.1v-.3h.1l.1.1v.1l.2.1v.1l.1.1.1.1.2.1.2.1.1.1h.3l.2.1zm-2 3.4-.2.3-.7 1-.4.5v-.1l.1-.2v-.1l.1-.2v-.1l.1-.2v-.9l-.1-.2-.2-.2-.2-.2h-.2v-.3h.1v-.2l.1-.1v-.2l.1-.1v.4l.1.1v.1l.1.2h.1l.1.2.2.2h.2l.1.1.2.1zm-2.7 3.6-1 1.1-.8.8.1-.2.1-.1.1-.2v-.2l.2-.1v-.3l.1-.2v-1l-.1-.1-.1-.1-.1-.1-.1-.1h-.1v-.2l.2-.1v-.1l.1-.2h.1v.3l.1.2.1.1.1.2.1.1.2.1.1.1.2.1.2.1zm5.3-16.7h-.1v-.1h-.2l-.2-.1V178l-.1-.2v-.4h.8v2.4l.1.2v2zm.9.8-.2-.2-.3-.4V178l-.1-.1v-.6h.8v1.6l.1.1v4.1zm-6.3 17.1.5-.6.5-.6h.5l.3-.1h.3l.2-.2h.3l.2-.1h.3l.2-.2h.3l.2-.2.2-.1.3-.1.2-.1v-.1.1l-.1.1-.1.1h-.1v.1h-.1v.1h-.1v.1h-.1l-.2.1h-.2l-.3.1h-.2l-.2.1-.2.1h-.3l-.2.2h-.2l-.2.2h-.2l-.2.2h-.2l-.2.2-.2.1-.2.2h-.2zm2.8-3.4.2-.3.5-.7.3-.4h.4l.3-.1h.2l.3-.2h.4l.2-.2h.2l.2-.2h.2l.2-.2h.2l.2-.2-.1.2-.1.1v.2h-.5l-.2.1h-.2l-.2.1-.2.1h-.2l-.2.2h-.2l-.1.2h-.2l-.2.2h-.2l-.1.2-.2.1-.2.2h-.2l-.1.2-.2.2zm2.6-4 .3-.6v-.2h.4l.2-.1h.2l.2-.2h.2l.2-.1.2-.1.2-.1.2-.1.1-.1.2-.1.2-.2h.1l.1-.2v.1l-.1.1-.1.2-.1.2v.1h-.3l-.2.1h-.3l-.2.1-.1.1h-.2l-.1.1-.2.1-.1.1-.2.1-.1.1-.1.1-.2.1-.1.2h-.1zm2-6.3v-.9h.5l.2-.1h.2l.2-.1v-.1h.2l.1-.1h.2v-.2h.2l.1-.1.1-.1.1-.1.1-.1v.5h-.4l-.2.1h-.1l-.2.1-.2.2h-.1l-.2.1-.2.2-.2.2-.2.2v.1l-.1.1z" fill="#795a2f" fill-rule="evenodd" id="path18"/><g fill="#f7d400" fill-rule="evenodd" id="g24"><path d="M292 177.5h.7v4l-.6.8zm2.4 5.2c-.5.8-.9 1.7-2.4 2q0-1.2 1-2.3-.6.9-.7 1.8c1-.2 1.5-1 2-1.5m-.4 3.1c-.5.9-1 1.7-2.4 2q.1-1.6 1.1-2.4-.7 1-.8 2c.9 0 1.5-.9 2-1.6m-.7 3.2c-.4.7-.6 1.4-2.7 2a4 4 0 0 1 1.6-2.4q-1 1-1.1 2c1-.2 1.6-1 2.2-1.6m-1.3 3.6q-1.3 1.4-3.3 1.9a6 6 0 0 1 2.3-2.6q-1.2 1-1.6 2c.9 0 1.7-.7 2.6-1.3m-1.8 3.3c-1.2 1-2.5 2-4 2.1q1-1.5 2.8-2.6-1.4 1-2 2.1 1.5-.2 3.2-1.6m-2.8 3.8a9 9 0 0 1-4.6 2.2q1.3-1.7 3.4-2.8-1.6 1-2.6 2.3 2.2-.5 3.8-1.7m6.2-22v3.5l-.6.3v-3.9zm1 .1v4q-.4 3.1-3 3.2v-.4q.4-2.8 2.4-3v-4zm-3.4 10.3c1.9-.4 3.2-1.5 3.1-4.4l-.3.2-.1.8q-1.9.3-2.4 2v.2l-.2.7zm-1 3.4q3.7-.8 3.6-4.5l-.2.3-.2.6q-1.7.3-2.6 2v.1l-.3.6-.2.6zm-2 3.4q4-.6 5-4.7l-.4.2-.4.8q-1.8.1-3.1 2l-.3.4-.4.6zm-2.8 3.6q4.5-.6 6.3-4.9l-.5.2-.4.8c-2.3.3-4 2-5.4 4m-3.4 4q4.8-.7 7.6-5.3l-.6.3-.8.8a8 8 0 0 0-4.5 2.2l-.5.6-.1.1-.1.2-.2.1v.1l-.2.2-.1.1-.2.2-.1.1h-.1z" id="path19"/><path d="M270.5 208.4c-.8-.2-1.5-.1-1.3-.7q2.8-1 4.4-3c2.6-2.4 4.3-2.8 5.7-2.6q-2.6 1.2-5 3.4c-.8.7-1.5 1.4-3 1.9q-1 .3-.8 1m12.2-9.6c0 .7 0 1.4-1.6 3-1.2-.6-.9-1.5-.3-2.4l-.2.3-.3.2-.2.2-.3.2q-.4 1.2 1 2h.1l.3-.3q2.8-3 1.2-4.2l.7-.9-.2-.2-.1.1-.2.2-.2.2-.3.2-.2.1-.2.2h-.1l.8-.2-.5.6-.2.3-.2.3-.2.2-.3.3v.1q-.8 1.4.2 2c1.1-1 1.3-1.7 1.5-2.5m3-3.4c0 .7 0 1.4-1.1 2.6q-1.6-.3-.5-2.3-.6 1.5.5 1.9 1-1.1 1.1-2.2m.6-3q-.5 1.9 1 2.2.9-1.4.5-2.5 0 1-.6 2-1-.1-.9-1.7m1.4-3.1q-.1 1.6 1.5 1.8.5-1.2-.1-2.3.3 1 0 2-1-.1-1.4-1.5m2-3.5q.6.8.5 2.1-1.7-.1-2-1.6.7 1.2 1.8 1.3c.2 0-.1-1.8-.4-1.8m.1-3.1q1 .9.9 2.2-1.7 0-2.1-1.6.8 1.2 1.8 1.3 0-1-.6-2m-13.2 23.6c-.7-1.4-.2-2.8 2.6-4q-.2.8 0 1.7l-.8.6-.6.6.1-1.4q-.6 1-.7 2zm7.7-7.8q-1.7-.7-1-2.2l.2-.3.2-.2.1-.2.2-.3.2-.2.1-.3.2-.3.2-.4q.3-.6.9-1v.2l-.5 1.2c1.4.6.8 2-.1 3.3zm2.8-3.5c-1.6-.3-2-1.6 0-5l.1.3-.3.9q2.1.5.9 2.7l-.3.4zm2-3.5q-2.7 0-1.4-4.4l.3.2-.1.8q2.3.5 1.5 2.6zm1.2-3.1q-2.6-.1-2.4-2.8v-.4l.1-.2v-.3l.2-.6.2.2v.8q2.4.2 2 3h-.1zm.5-3.2q-2.2.2-2.6-2l.1-.2v-.2l.1-.2v-.6l.1-.3V180l.1-.5V178h-.3v-.1h-.1v-.3h.6v4.4q1.8.4 2 2.3v.9m-1-3.3-.6-.2v-4l.5-.1zm.9 1-.6-.7-.1-4.7h.6z" id="path20"/><path d="m267.3 206.7 2.1-.7 5.4-4.7c9.9-9.8 9.8-11.3 10.7-23.7h-.7c-1.1 7.9 2.6 14-17.5 29" id="path21"/><path d="M285.8 177.7h.8l-.2 4.2-.8.7zm2.2 5.4c-.6.8-1 1.7-2.6 1.9q0-1.2 1.2-2.3-.8 1-.8 1.9c1-.1 1.6-.9 2.2-1.5m-.6 3.2q-.6 1.4-2.7 2 .3-1.8 1.4-2.5-.9 1-1 2c1 0 1.6-.8 2.3-1.5m-.8 3.2c-.5.7-.8 1.4-3.1 2a4 4 0 0 1 1.8-2.4q-1 .8-1.3 2 1.5-.4 2.6-1.6m-1.7 3.7q-1.4 1.4-3.6 1.7 1.1-1.9 2.5-2.4-1.3.8-1.8 2c1 0 1.9-.8 2.9-1.3m-2.2 3.3c-1.4.9-2.7 2-4.4 2q1.2-1.4 3.1-2.6-1.4 1-2.3 2 1.8-.2 3.6-1.4m-3.2 3.7c-1.5 1-3 2-5.1 2q1.4-1.7 3.8-2.6a9 9 0 0 0-2.9 2.2q2.5-.4 4.2-1.6m8-22.3-.2 3.6-.7.3.3-4zm1 .2-.2 4c-.3 2.3-1.6 3-3.3 3.2v-.3q.5-3 2.8-3v-4zm-4.2 10.5c2-.4 3.5-1.5 3.6-4.4l-.3.1-.2.9a3 3 0 0 0-2.7 1.8v.3l-.2.7zm-1.3 3.3q3.9-.7 4.2-4.4l-.3.3-.2.6a4 4 0 0 0-3 1.9v.2l-.3.5-.3.6zm-2.4 3.4q4.4-.3 5.7-4.5l-.4.2-.5.7q-1.9 0-3.5 1.9l-.3.4-.5.6-.4.6zm-3.2 3.6a8 8 0 0 0 7-4.7l-.4.2-.5.8c-2.5.2-4.4 1.8-6 3.7m-3.9 3.8q5.1-.3 8.5-5l-.7.3-.9.8a9 9 0 0 0-5 2l-.5.6-.1.1-.2.2-.1.1-.2.2h-.1l-.2.2-.1.2h-.2v.2z" id="path22"/><path d="M260.7 208.2c-.8-.3-1.5-.2-1.3-.8q3.1-1 5-2.9c3-2.3 4.8-2.6 6.3-2.3q-3 1.2-5.7 3.2c-1 .7-1.7 1.4-3.3 1.8q-1.2.3-1 1m13.8-9.1c0 .7-.1 1.4-2 2.9-1.3-.8-.7-1.7.1-2.7q-1 1.5 0 2.2c1.4-1 1.7-1.7 2-2.4m3.4-3.4c0 .7-.1 1.4-1.3 2.6q-1.7-.4-.5-2.4-.6 1.5.5 2a5 5 0 0 0 1.3-2.2m.9-3q-.7 1.8.9 2.2 1-1.2.7-2.5 0 1-.8 2-1-.1-.8-1.7m1.6-3.2q-.2 1.6 1.5 2 .8-1.2 0-2.4.4 1 0 2-1.1-.1-1.5-1.6m2.3-3.5q.8 1 .6 2.3c-1.5 0-1.8-.9-2-1.8q.6 1.3 1.7 1.4c.3 0 0-1.9-.3-1.9m.5-3.1q1 1 .7 2.3-1.7-.2-2.1-1.8.9 1.3 1.8 1.5.3-1.2-.4-2m-15.8 23.4c-.6-1.4 0-2.8 3.1-3.8q-.3.8-.2 1.6l-.8.7-.7.5q0-.8.2-1.4-.6 1-.9 2zm4.9-3.8c-2.5-1.4-.6-3.5 2.5-5.8l.2.4-.8 1q1.8 1.3-1.5 4zm4-3.6c-2.4-1-1-3.1 1.6-5.6v.2l-.5 1.2c1.4.7.6 2.2-.4 3.4zm3.1-3.6c-1.6-.3-2-1.7.4-5.1l.1.4-.4.9q2.1.7.8 2.8l-.4.4zm2.4-3.4q-2.8-.2-1.2-4.6l.3.2-.2.8q2.6.6 1.5 2.8zm1.5-3.2c-2-.2-3.1-1.4-2-4.5l.2.2v.8q2.6.6 1.9 3.2v.1zm.7-3.2c-1.8 0-3-.8-2.5-3.2l.1-4.8h.7l-.2 4.6q1.9.4 2 2.5zm-.9-3.5-.5-.2.1-4.2h.6q0 2.3-.2 4.4m1 1-.6-.6.2-4.8h.6z" id="path23"/><path d="m276.5 206.6 2-.8 4.6-4.8c8.6-10 8.5-11.5 8.6-23.6h-.6c-.6 7.8 3.1 13.5-14.6 29.2" id="path24"/></g><g fill-rule="evenodd" id="g38"><path d="M245.2 156h-1.5l-1.3-2.3.3-.1h.4l.4-.1h.4l.3-.1h2.6l.4.1h.4l.3.2-1.3 2.3zm1.5 0q1.5.3 2.6 1.1l2-2-.2-.1-.3-.2-.4-.2-.3-.2-.3-.1-.4-.2-.3-.1-.4-.1-.4-.1-.3-.1zm2.7 1.2q1.1 1 1.6 2.2l2-.5.7-.2v-.4l-.2-.3-.1-.4-.2-.3-.1-.3-.2-.3-.2-.3-.3-.3-.2-.2-.3-.3-.2-.2-.3-.2zm1.7 2.4.2 1.5v4l2.5.1v-6.4l-.7.2zm.2 5.7v5.2h2.5v-5.2zm0 5.3v3.1h2.6v-3.1zm2.7 3.1h4.6V167H254v6.8m4.7 0h5.4l-.5-6.7h-5zm5.6 0h.6V167h-1.2zm.7 0h5.8l.4-5.2v-.9l-6.2-.5zm6 0h.1v-3.3zm.3 0h6.2v-6h-6.1v.8zm6.4 0h6.2v-6h-6.2zm6.3 0h6.3v-6h-6.2zm6.4 0h6.4l-.5-6h-5.8zm5.9-6.2-.5-6.3H288v6.3h8.2m-.5-6.5-.4-5.3h-5v5.3zm-.5-5.4-.4-5.6h-6.6v5.6zm-.4-5.7-.4-5.2h-3.6v5.2zm-.4-5.3-.4-4.5h-5.3v4.5zm-.4-4.7-.4-5H290v5h4.1m-.4-5-.3-4H291v4zm-.3-4.1-.2-3.2H290v3.2zm-.3-3.4-.3-4h-7.5.2l.1.1.1.2.2.1.1.2.1.1.2.2v.2l.2.2.1.2.1.2.1.2.1.3.1.3.1.2v.3l.2.3v.7zm-.3-4.2-.2-3.2H290v3.2zm-.2-3.3-.3-3.2h-5.5v3.2zm-.2-3.3 4.6-6.4h-26l4.2 6.4zm4.6-6.5v-6.5h-6.3v3.4h-4v-3.4h-6.2v3.5h-4v-3.4H271v6.4zm-21.7 6.6-.1 3.2h5v-3.2zm-.3 3.4-1.6-1.4V116l-2.5-1.7v6.9l3.9 2zm-4.2-6-.2-.1v2.8l-2.2-1.9v-3l-2.5-1.8v2.6l-1.3-.9v5.8l2 1 2.4 1.3 1.8 1zm-6.3-2.3-1.5-1V108l-2.6-2.4v3.4l-1.3-1 .5 7 1.5.7 3.4 1.8zM259 108v-4.7h-8v6h7.6zm0-4.9 4.3-6.3H227l4.4 6.3zm4.3-6.5v-6.5h-3.8v.5h.1v.7l-.2.2v.4l-.3.6v-.9h-.1v-.2h-.1l-.5-.2.5-.1h.1-.4l-.1-.1h-.1v-.1h-.1l-.1-.1v.1h-.1v1.3l-.1.1v.1h-.1l-.3.3v-1h-.1v-.1l-.1-.3h-.2v-.1h-.1v-.3h-.3v.3l-.1.2-.1.1h-.1v.1h-.2v.1h-.1v2h-5.6l-.2.2v.2l-.1.1-.5.6.1-.6v-.6h-.5v-1 .1h-.1v.1h-.1l-.1.1-.3.2v-.5h.1v-.9l-.1-.1v-.1l-.1-.1v-.1l-.1-.1V91l-.2-.3v-.1l-.2-.2v-.1V92l-.1.1v.2l-.1.2-.1.2v.1l-.1.1-.1.2-.2.2v.1l-.2.2v.1l-.6.6.2-.7v-.3l.1-.2v-1.4l-.1-.2V91l-.1-.1v-.3l-.1-.2v-.5h-.1v.4h-.1v.4h-.1v.2h-.1v.2h-.1v.2h-.1v.1l-.1.1v.1l-.2.1v.1h-.1v.2l-.3.1-.2-.2-.1-.2-.1-.1v-.1h-.1v-.2h-.1V91h-.1v-.2h-.1v-.2l-.1-.2v-.2h-.1v-.4h-.1v.3l-.1.1v.4l-.1.2v.5l-.1.1v.5l-.1.1v1.5l.3.7-.5-.6-.2-.1v-.2h-.2V93l-.1-.1-.1-.2-.1-.2v-.1l-.1-.1v-.2h-.1v-.4l-.1-.1v-1.3l-.1.3-.1.1-.2.2v.2l-.1.1v.1l-.1.1v.3l-.1.1V93l-.2-.2h-.1l-.1-.1-.1-.1-.1-.1v-.3h-.1l-.1.2v.1l-.1.2v.1l-.1.1v1.8l-.4-.6V94l-.2-.2v-.1l-.1-.2h-6.2V91h-.2v-.1.1h-.1v.2h-.2v.1h-.1v.2h-.1v.3h-.1v.9l-.3-.2v-.1h-.1v-.1l-.1-.1v-1.4h-.2l-.1.1h-.1v.1h-.5.1l.4.2-.4.1v.1h-.1v.3l-.1.1v.7l-.3-.6v-.4l-.2-.2v-1.1H227v6.4zm-7.2-5.9v.5-.1h.1v-.3m-11 18.6h5.7v-6h-11.4v6zm0 .2h-6.6v5.5h13.2v-5.5zm0 5.6h-7.9v5.6h4.3v-.5l.1-.3.1-.2v-.3l.2-.2v-.2l.1-.2.1-.2.1-.2.1-.2.2-.1v-.2h.2l.1-.2.1-.1.2-.1.1-.1.2-.1.2-.2h.3l.2-.1h.1l.2-.1h.1l.2-.1h1.2l.1.1h.2l.1.1h.2l.1.1.2.1.1.1h.2l.1.2h.1l.2.2v.1l.2.1.1.2.1.1.1.2.1.2.1.2.1.2.1.2.1.2v.3l.1.2.1.3v.3l.1.2h4.2v-5.6zm0 18h6.2v-6.3H249v5.3h-7.6v-5.3H239v6.3zm0 5.3h.3v-5.2h-.5v5.2zm0 5.6h3.9v-5.5h-7.7v5.5zm0 5.2h1.1v-5h-2.1v5zm0 4h.9l.4.1h.4l.4.1h.4l.3.1.5.1v-4.3H242v4.3h.4l.4-.1.4-.1h.4l.3-.1zm.4-20v5.2h6.2v-5.2zm6.4 0v5.2h6.2v-5.2zm6.3 0v5.2h3.1l-.4-5.2zm2.7-.1-.5-6.3h-1l-.1 6.3zm-.5-6.5-.4-5.7h-1.8v5.7zm-.4-5.9-.5-5.6h-6.3v5.6zm-.5-5.7-.5-6.6-.4 1.1h-.4v5.5zm-1.4 0v-5.5H252v5.5zm1.5.2.5 5.6.9.4V116zm.5 5.7.5 5.8 3.8 1.1v-5zm.5 6 .5 6.2 6 .8v-5l-1.7-.5zm.5 6.3.4 5.2 3 .3v-5zm3.5.5v5l.3.1 2.6.3 3.3.5v-5.1l-4.7-.6zm6.3.9v5l2.6.3v-.6l.4-4.3zm3 .2.3-3.9-7-2.1v5.1h.2zm.3-4 .2-3.3-3.5-1.6v3.9zm.3-3.4.3-4.1-5.7-3v4.6zm2.6-4.2V120h-2l-.2 3.2zm-2.2.1-.3 4.1h2.2v-4zm-.3 4.3-.3 3.2h2.9v-3.2zm-.3 3.3-.3 4h1v-4zm-.3 4-.4 4.4v.6h3.5v-5zm-14.9-1.8h-7.7V127h7.8zm11.7-3.4-4.8-1.4-1.4-.4v-5l.6.4 3.7 1.7 1.9.9zm-12.7-3H252V121h6zm-6.3 0h-3V121h3zM269 125l-3.2-1.4-4.6-2.2V116l5 2.6 2.8 1.5zm17.8-5v-3h-6.4v3zm2 20.3H281v4.4h7.8zm-8 0h-7.1l-.4 4.3v.2h7.6V140m-7.2 0-.5-.1v4.6l.1-.2zm-.6-.1-6.8-.9-1.1-.2v5.2l3.6.3 4.2.2zm-8-1-3.4-.5v.4l.4 5.1 3 .2zm-3.5-.5H257v5.5h4.7l-.4-5zm-4.5 0h-7.8v5.5h7.8zm33.8 6.2h-6.2v5.2h6.2zm-6.3 0h-6.2v5.2h6.2zm-6.4 0h-4.8l-.4 5v.2h5.3v-5.2m-5 0H272v5.1h.9v-.2zm-1.3 0-6.3-.4v5l2.6.3 3.7.2zm-6.4-.4h-.3l-3-.1.3 5 3 .2zm-3.5-.1h-2.7v5h3zm-2.8 0H253v5h6.2zm-6.4 0h-6.2v5h6.2zm35.6 5.8h-8v5.6h8zm-8 0H273l-.4 5.6h7.7zm-7.5 0h-.3v4.1zm-.5 0-6.7-.5h-1v5.5h.4l7.3.6zm-7.9-.6h-2l.5 5.4 1.5.2zm-2.1 0h-5.7v5.4h6.1zm-5.8 0h-7.9v4.3h.2l.4.2h.4l.3.2.4.2.3.2.3.1.3.2h5.3zm-5 5.6.3.3.3.2.1.1v-.6zm.9.8.2.2.3.3.2.3.2.3.1.3.2.4.1.3.1.4.1.4v.3l.1.4v1.1h4.6V155h-6.2zm1.6 4.9v6.1h2.3v-6.1zm34.1.5h-7.8v6.3h7.8zm-8 0h-7.8v6.3h7.8zm-8 0-.6 6v.3h.7v-6.3m-.2 0-7.6-.5v6.1l2.4.3 4.7.4v-.3zm-7.7-.5h-.9l.5 6 .4.1zm-1 0h-6.8v6h7.3zm-4.5-.2h4.5l-.4-5.5h-4zm4.6 0 1.7.1V155l-2.1-.1zm1.8.2 6.2.3v-5.4l-6.2-.5zm6.4.3h.4l.4-5.3h-.9zm.5 0h5.8v-5.3h-5.4zm5.9 0h6.2v-5.3h-6.2zm6.3 0h6.2v-5.3H284zm3.2-23.1V135h2.5v4.9H284v-1.6h3.7zm0-3v-4h3.5v4zm0-4.1v-3.2h2.5v3.2zm-2.1-7.6-.2-.1-.1-.1h-.2v-.1h-.3l-.2-.1h-.4V120h6.1v3.2zm-1.7-.5h-.2l-.2.1-.2.1h-.2l-.2.2h-.2v.1h-5V120h6.3zm-1.6.6v.1l-.2.1-.2.2-.1.1-.1.2-.2.1v.2l-.2.2-.1.1-.1.2-.1.2v.2l-.2.2v.2l-.1.2v.2l-.1.1v.2l-.1.2v.9H277v-4zm-1.9 4.3v3.2h-2.7v-3.2zm0 3.3v4h-4.9v-4zm0 4v3.4h3.5v1.6h-6.2V135zM243.6 156q-1.5.3-2.6 1.1l-2-1.9.1-.2h.1l.3-.2.3-.2.4-.2.3-.1.4-.2.3-.1.4-.1.3-.1.4-.1zm-2.7 1.2q-1.2 1-1.7 2.2l-2-.5-.6-.2v-.4l.2-.3.1-.4.2-.3.1-.3.2-.3.2-.3.2-.3.3-.2.2-.3.3-.2.3-.2v.1zm-1.7 2.4-.2 1.5v4l-2.5.1v-6.4l.7.2zm-.2 5.7v5.2h-2.6v-5.2zm0 5.3v3.1h-2.6v-3.1zm-2.7 3.1h-4.6V167h4.6v6.8m-4.7 0H226l.6-6.7h4.9zm-5.6 0h-.6V167h1.2zm-.8 0h-5.7l-.4-5.2v-.9l6.1-.5zm-5.8 0h-.3v-3.3zm-.4 0h-6.2l-.1-6h6.2v.8zm-6.4 0h-6.2v-6h6.2zm-6.4 0H200v-6h6.2zm-6.3 0h-6.4l.5-6h5.8zm-5.9-6.2.5-6.3h7.6v6.3zm.5-6.5.4-5.3h5v5.3zm.4-5.4.5-5.6h6.6v5.6zm.5-5.7.4-5.2h3.6v5.2zm.4-5.3.3-4.5h5.3v4.5zm.4-4.7.3-5h3.8v5zm.4-5 .3-4h2.4v4zm.3-4.1.2-3.2h3.2v3.2zm.2-3.4.4-4h7.4l-.2.1-.2.2-.1.1-.1.2-.2.1v.2l-.2.2-.1.2-.1.2-.2.2v.2l-.2.3v.3l-.1.2-.1.3v.3l-.1.4v.3zm.4-4.2.2-3.2h2.6v3.2zm.2-3.3.3-3.2h5.4v3.2zm.2-3.3-4.6-6.4h26l-4.3 6.4zm-4.6-6.5v-6.5h6.3v3.4h4v-3.4h6.1v3.5h4v-3.4h5.6v6.4zm21.7 6.6.1 3.2h-5v-3.2zm.2 3.4 1.6-1.4V116l2.6-1.7v6.9l-4 2zm4.3-6 .2-.1v2.8l2.2-1.9v-3l2.5-1.8v2.6l1.3-.9v5.8l-2 1-2.5 1.3-1.7 1zm6.3-2.3 1.5-1V108l2.6-2.4v3.4l1.3-1-.6 7-1.5.7-3.3 1.8zm5.5-3.8v-4.7h8v6h-7.5zm13.4 25.2v5.2h-6.2v-5.2zm-6.3 0v5.2h-6.2v-5.2zm-6.3 0v5.2h-3.2l.4-5.2zm-2.8-.1.5-6.3h1.1l.1 6.3zm.6-6.5.4-5.7h1.8v5.7zm.4-5.9.5-5.6h6.3v5.6zm.5-5.7.5-6.6.4 1.1h.4v5.5zm1.4 0v-5.5h6.2v5.5zm-1.6.2-.4 5.6-1 .4V116zm-.4 5.7-.5 5.8-3.9 1.1V123zm-.5 6-.5 6.2-6 .8v-5.1l1.7-.5zm-.5 6.3-.4 5.2-3 .3v-5zm-3.5.5v5l-.4.1-2.5.3-3.3.5v-5.1l4.7-.6zm-6.3.9v5l-2.6.3v-.6l-.4-4.3zm-3 .2-.3-3.9 7-2.1v5.1zm-.3-4-.3-3.3 3.6-1.6v3.9zm-.3-3.4-.3-4.1 5.7-3v4.6zm-2.7-4.2V120h2l.3 3.2zm2.3.1.3 4.1h-2.3v-4zm.3 4.3.3 3.2h-3v-3.2zm.3 3.3.3 4h-1v-4zm.3 4 .3 4.4v.6h-3.4v-5zm14.8-1.8h7.8v-6.3H231zm-11.6-3.4 4.7-1.4 1.5-.4v-5l-.7.4-3.6 1.7-2 .9zm12.7-3h6.1V121h-6.1zm6.2 0h3V121h-3zm-17-1.9 3.2-1.4 4.5-2.2V116l-5 2.6-2.8 1.5zm-17.8-5v-3h6.4v3zm-2 20.3h7.8v4.4h-7.8zm8 0h7.1l.3 4.3v.2h-7.5V140m7.2 0 .5-.1v4.6h-.1v-.2zm.6-.1 6.7-.9 1.2-.2v5.2l-3.6.3-4.3.2zm8-1 3.4-.5v.4l-.4 5.1-3 .2zm3.5-.5h4.3v5.5h-4.7l.4-5zm4.5 0h7.8v5.5h-7.8zm-33.8 6.2h6.2v5.2h-6.3zm6.3 0h6.2v5.2h-6.2zm6.3 0h4.9l.4 5v.2H212zm5 0h1.3v5.1h-.9v-.2zm1.4 0 6.2-.4v5l-2.5.3-3.7.2zm6.4-.4h.2l3.1-.1-.3 5-3 .2zm3.5-.1h2.7v5h-3zm2.8 0h6.2v5h-6.2zm6.3 0h6.3v5h-6.3zm-35.5 5.8h7.9v5.6H202zm8 0h7.4l.4 5.6H210zm7.5 0h.3v4.1zm.4 0 6.8-.5h1v5.5h-.5l-7.2.6zm8-.6h2l-.5 5.4-1.6.2zm2 0h5.8v5.4h-6.2zm5.9 0h7.9v4.3h-.3l-.3.2h-.4l-.3.2-.4.2-.3.2-.4.1-.3.2h-5zm5 5.6-.4.3-.2.2-.2.1v-.6zm-.9.8-.3.2-.2.3-.2.3-.2.3-.2.3-.1.4-.2.3v.4l-.2.4v1.8h-4.6V155h6.2zm-1.7 4.9v6.1H234v-6.1zm-34 .5h7.8v6.3h-8zm8 0h7.8v6.3h-7.9zm7.9 0h.2l.4 6v.3h-.6zm.3 0 7.5-.5v6.1l-2.4.3-4.6.4v-.3zm7.7-.5h.8l-.4 6-.4.1zm1 0h6.8v6h-7.3zm4.4-.2h-4.4l.4-5.5h4zm-4.5 0-1.7.1V155l2-.1zm-1.8.2-6.3.3v-5.4l6.3-.5zm-6.4.3h-.4l-.4-5.3h.8zm-.5 0h-5.8v-5.3h5.3zm-6 0H206v-5.3h6.2zm-6.2 0H200v-5.3h6.2zm-2.8-23v-3h-2.6v4.9h6.3v-1.6h-4zm0-3v-4h-3.6v4zm0-4.1v-3.2h-2.6v3.2zm2.1-7.6.2-.1.1-.1h.1l.2-.1h.2l.1-.1h.5V120h-6.2v3.2zm1.7-.5h.3l.2.1.2.1h.2l.2.2h.2v.1h4.9V120h-6.2zm1.5.6.2.1.1.2.2.1.1.2.1.1.2.2v.2l.2.1v.2l.2.2v.2l.1.2.1.2v.2l.1.2v.1l.1.2v.2l.1.2v.7h3.1v-4zm2 4.3v3.2h2.7v-3.2zm0 3.3v4h4.9v-4zm0 4v3.4h-3.5v1.6h6.2v-5z" fill="#dedede" id="path25"/><path d="M209 138.2h-4.8v-9.9l.1-.2v-.4l.1-.2v-.2l.1-.2v-.2l.1-.2v-.1l.2-.2v-.3l.2-.1v-.1l.1-.1v-.1l.2-.1v-.1l.1-.1h.1l.1-.1.1-.1h.1l.1-.1h.1l.1-.1h1.2l.1.1.1.1h.1l.1.1.1.1v.1h.2v.2h.1l.1.2v.1l.2.1v.2l.1.1v.2l.1.1v.2l.1.1v.2l.1.2v.2l.1.2v.4l.1.2z" fill="#fff" id="path26"/><path d="M203.1 138.2v-2.4h1v2.4zm0-2.5v-3.8h1v3.8zm0-4V127l1.2.6-.1.2v.5l-.1.3v3.2zm0-4.9q.3-1.5 1-2.4l.7 1.5v.2l-.1.1v.1l-.1.2-.1.2v.1l-.1.2v.2l-.1.2zm1.1-2.5q.6-.8 1.2-1.1l.6 1.7h-.1l-.1.1h-.2v.1l-.2.1-.1.2h-.1l-.1.2h-.1v.2zm1.3-1.2q.7-.3 1.1-.2.6 0 1.1.2l-.6 1.8h-.2l-.1-.1h-.7zm2.4 0q.9.6 1.5 1.7l-.8 1.5-.1-.2-.1-.2-.2-.2v-.1l-.1-.1-.1-.1h-.1l-.1-.2h-.1l-.1-.1h-.1l-.1-.1h-.1zm1.6 1.8q.6 1.2.6 2.3l-1 .7v-.1l-.1-.2v-.2l-.1-.2v-.2l-.1-.2v-.1l-.1-.2zm.6 2.5v4.4h-1V128zm0 4.5v3.8h-1v-3.8zm0 3.9v2.4h-1v-2.4z" fill="#dedede" id="path27"/><path d="m245.2 116.8-.5.1.5 1.6h.1l.5-1.6zm.6.2q1.4.3 2.3 1.7l-1 1v-.2l-.2-.1v-.1l-.2-.1-.2-.2h-.2l-.1-.1h-.1l-.1-.1h-.2v-.1h-.2l-.2-.1zm2.3 1.8q.5.8.6 2l-1 .5v-.8l-.1-.2-.1-.1v-.2h-.1l-.1-.2zm.6 2.2v4.5h-.9v-4.1zm0 4.7v3.8h-.8v-3.8zm0 4v2.3h-.8v-2.3zm-4.3-12.7q-1.4.3-2.2 1.7l1 1v-.2l.1-.1.1-.1.1-.1h.1l.1-.2h.3v-.1h.2l.1-.1h.1l.2-.1.2-.1h.1zm-2.3 1.8-.5 2 .9.5v-.5l.1-.2v-.1l.1-.2v-.1l.1-.2h.1v-.2h.1zm-.6 2.2v4.5h1v-4.1zm0 4.7v3.8h1v-3.8zm0 4v2.3h1v-2.3z" fill="#dedede" id="path28"/><path d="M245.2 132h2.5v-11l-.1-.2v-.1l-.1-.2v-.1l-.1-.2v-.1l-.2-.1v-.1l-.1-.1v-.1l-.2-.1v-.1l-.1-.1-.1-.1h-.1l-.1-.1-.1-.1h-.1l-.2-.1-.2-.1h-.1l-.1-.1h-.2l-.2-.1h-.6v.1h-.3l-.2.1-.2.1v.1h-.2v.1l-.2.1-.2.2-.1.2h-.1l-.1.2-.1.2-.1.1v.2l-.1.1v.2l-.1.1v.4l-.1.1V132z" fill="#fff" id="path29"/><path d="M281.2 138.2h4.8V128l-.1-.2v-.4l-.1-.2v-.2l-.1-.2-.1-.1v-.2l-.1-.1-.1-.2v-.1l-.2-.1v-.1l-.1-.1v-.1l-.2-.1v-.1h-.2v-.1l-.1-.1h-.1l-.1-.1h-.1l-.1-.1H283l-.1.1-.1.1h-.1l-.1.1-.1.1-.1.1h-.1v.2h-.2v.2l-.1.1v.1l-.2.2v.3l-.1.1-.1.2v.1l-.1.2v.2l-.1.2v.4l-.1.2v10" fill="#fff" id="path30"/><path d="M287.2 138.2v-2.4h-1v2.4zm0-2.5v-3.8h-1v3.8zm0-4V127l-1.2.6v.2l.1.3v3.7zm0-4.9q-.4-1.5-1-2.4l-.8 1.5.1.2v.1l.1.1.1.2v.2l.1.1v.2l.1.2v.2zm-1.1-2.5q-.6-.8-1.2-1.1l-.6 1.7h.1l.1.1h.1l.1.1.1.1h.1l.1.2h.1v.2h.2v.2zm-1.3-1.2q-.7-.3-1.2-.2l-1 .2.6 1.8h.1l.2-.1h.7zm-2.4 0q-1 .6-1.5 1.7l.8 1.5.1-.2v-.2h.2v-.2l.1-.1.1-.1.1-.1.2-.2.2-.1.2-.1h.1zm-1.6 1.8q-.6 1.2-.7 2.3l1.1.7v-.3l.1-.2v-.2l.1-.2v-.2l.1-.1.1-.2zm-.7 2.5v4.4h1V128zm0 4.5v3.8h1v-3.8zm0 3.9v2.4h1v-2.4z" fill="#dedede" id="path31"/><path d="M237 52.7q-.2-.3-.6-.3-1.2.3-1.7 1.2-.3.9.3 1.9l.3.7h.3l.2-.1h.2l.1-.1h.8l.2-.1h1.2l.2.1h.2l.2.1h.3l.1.1h.1l.3-.7c.3-.7.7-1.4 0-2.2a3 3 0 0 0-1.4-.9q-.4-.1-.5.3l.2.4v-.3h.2v.3l.1.1v.9h-.1v.4h-.1v.3h-.1v.2h-.1v.2h-.1v.1h-.2V55l-.1.1v.4h-.1v.1l-.1.2v-.2l-.1-.1v-.2h-.3v-.1h-.1v-.3h-.1v-.3h-.1v-.3h-.1v-.7h-.1v-.8h.3v.3z" fill="#1f1717" id="path32"/><path d="M240.3 56.9q-2 .3-4.2.2-1.3 0-1.3.9.8 0 1.2.6v-.4q-.5 0-.6-.4l.1-.2q.3.7 2 .2l-.1-.3c0 .3 1 .2 2.1 0zm-3.2 5q1.2-1.5 2.6.2l-1.3-2-2.1-1.2-1.5-.9q-1.2.6-.6 1.9.9-1.3 1.6-.1 1.2-.5 2.7.7.5.3.3.5c-1.6-.3-1.7.3-1.7 1m.2-1.6q-.6 0-1.2.6-.2.2.1.1l1-.2q-2.5 1.6-3 .3.9.5 1.6-.4.7-.5 1.5-.4m0 .3q.6 0 1 .2.3 0 0-.2-.5-.2-1 0m-.6-2.4h-.3c0 .2.8.9 1.1-.1h-.4v.3q-.3.2-.4-.2m-.5.1q0-.1 0 0 .2.6.8.4.8-.1.6-.7 0-.2.2 0 .1.7-.7 1-.8 0-1-.7m.9.9q.8.7 2.6.7-.3-1-1.3-2h-.5q.2.4-.3 1 .5-.6.8-.4.2.3-.1.2t-.4.2q1.3-.2 1.5.7 0 .3-.3.1-.8-.6-2-.5m1.2-.2q.6-.1.8.4zm.7-.8.4.7q1.3.1 2-.2v-.3q-.6-.8-1.3-1l-.6.2 1.1.8q.2.1 0 .2zm-.3-.4.1.2 1.2.2q-.6-.5-1.3-.4m.9 1.4 1 .7-.6-.7q-.3-.1-.4 0m.2.4c.2.4-.2.8 2.2 1.6q-.1-1.2-1.1-2h-.6l1.1 1.6c-.4-.1-1-.8-1.6-1.2m-1 .5q1.6 1.9.9 3c.8-.4 1.3-1.1.2-3q.4 1 .2 2-.5-1.7-1.4-2m.4 0 .7 1-.3-.9zm1.2 2.8-.4.4q-.2 1.6.5 2.5c.7-.4.7-1.5.9-2.4l-.5-.8-.4 2.3c-.2 0 0-1.2-.1-2m.3-.6q-.4.6 0 .9zm0-1c.3 1 .5 1.9 1.5 2.5.6-1.2-.4-2.8-.9-2.7q.6 1.2.5 2-.5-1.1-1.1-1.8m-.2-.5q.8.2.8 1zm2 1.1.1 1.2 1.2 1.3c.6-.1.2-1.3 0-2.3l-.8-.4q.8 1.5.5 1.9zm-.3-.4q.5-.3 1 1zm-1-2.5q.2-.1.8.5zm0 .2.5.6h2q-.5-.1-1-.8-1-.7-1.2-.1l1.2.7zm.7.9.4 1 2 1q.4-.1.2-.8l-1-1.3h-.7q.7.7 1 1.6zm.4 0 .9.7-.6-.7zm2.4 1.4q.1.6-.3.8.6.2 1 .8-.1-1-.7-1.6m-.1 1.1q.4.2.4 1.1zm-.6-.2c.2.1.5 2 .5 2.6s.2 1.3.8 1.8c0-1.6 0-3.1-.2-3.6v2.4c-.3-2.6-.7-3.2-1-3.2m-1.4 1q0 .6-.4.7l.1.4.7-.6zm.1 1c-.7.5-1.8 1.6-1 4.3l1.1-1q0-1.2.5-2.1l-.3-.6q-.2 1.2-.9 2.1zm.3-.2-.2.8q.2-.3.2-.8m.2-.1a2 2 0 0 0 .5 1.7q.6-.7.6-1.5-.7.7-1-.2m.2 1.7a5 5 0 0 0 0 4q.5-.4.8-1.3l-.1-2.8c-.2.5-.2 2-.5 2.7q0-1.6-.2-2.6m.3.2v1zm.6-.6q-.4 3.3.9 4.7v-3q-.7-.5-.9-1.7m0 3.6-.2 2q.3 1.8 1 3.7-.7-.1-1.2-2.5c0 1 0 2 1 3.6l.5-1.2q-.8-2.3-.6-4.7zm-1 1q-.5.8-.4 2.3zm.9 1.8q-.2 1.2.5 2.3zm-.3-2.4a14 14 0 0 0-1 5.4c-.4-1-.3-3 0-5v-1a9 9 0 0 0-.9 4c0 1.4.2 2.8 1.6 3.9-.4-.3-.4-2.6 0-4.2.2-.2.5-3.2.3-3.1m-2.4-5.6q0 1.5-.8 2.1 0 1 .2 1.7l.4-.4v-.7h-.2q.4-1.5.4-2.7m.2 0q.2.3 0 .5zm.3.4q.2.6-.3 1.1 0-.6.3-1.1m-2.2.2q-.4.3-.2 1v1l.6-.6q-.5-.7-.4-1.4m.4 1.8c-.8.3-1.5 1-1.7 3q1.6-.3 2.2-1.6l-.2-.8-1.4 1.6zm.3 0q-.3 0-.3.4zm-2.1 2.2c-1.9 1.2-2.5 4-1.5 6q-.2-.8.6-1.7 1.5-1.8 2.2-3.6-.5.5-1 .5-1 1.3-1.8 3-.3-1 1.4-3.2zm2.9-.8-.4.3q-.3.5-1 1.1-.3 3.2.8 5.9-.1-2 .8-3.6t1.2-3.2l-.9.7-1.3 3.7c-.3-1 .4-2.5.9-4zm.2 1.3q-.5 1-.7 2.3s1.2-3.1.7-2.3m-1.8 1c-1.4 2-2.1 4.1-.4 6.6q-.4-2.1.7-3 0-.7-.3-1.3-.5.8-.8 2.3-.1-2 .7-3.5zm0 1.5q-.3.3-.4 1.2zm-1.4.6-1 1.2q0 1.3 1 1.8-.4-1.5 0-3m1.7 1.7a3 3 0 0 0-.4 3q.3-.8.8-1.1zm.4 1q-.1 1.4 1.5 2.7-.7-1.5 0-3a7 7 0 0 1 0-3.3q-1.4 2-.8 4.4zm1.6 0q-.6 1.3.3 3l-.6-.1-.4 1.2q-.3 3.9 1.6 5.8c-.6-2 0-3.8.3-5.6v-1.3l-.4.3-.5 4.9q-.7-2.1.2-5l-.2-.5q-.5-1.2-.1-2.2 0-.3-.2-.5m.4.9q0 1 .3 2.2.7-.3.7-1-.7-.6-1-1.2m.2 2.6q-.4 1.8-.4 3.6zm-2.2-2.4a7 7 0 0 0-.4 7.2 3 3 0 0 1 .3-2.2q.9-1.5 1.2-3.4l-.4-.4a13 13 0 0 0-1.4 3.8q0-2.5 1-4.3zm.5 1q-.4.2-.7 1.7.5-.9.7-1.8m2.8-3.7a6 6 0 0 0 1.4 5.6q-.4-1.3 0-2.3c-.9-1.1-1.1-2.2-1.4-3.3m-.4 6.6q-.5 1.3-.4 2.9.8-.6.4-2.9m.2 2.5q-.3.5-.7.6l.2 1.4q.7.1.8-1 0-.6-.3-1m.3-5.2h-.2c-.2 3-.2 6.1 1.4 7.7q.6-2 .2-5.6l-.4-.5a18 18 0 0 0 .1 5 12 12 0 0 1-.7-5.8zm.8 4.6a9 9 0 0 1-.2-3.4l.2.3q-.2 1.5 0 3.1m-3 1.4q-1.2.4-1.7 2.3 1.5.2 2.3-1l-.1-.4-1.5.6 1.2-1zm.4.7q-.4 0-.5.4zM236.5 70c-1.1-1.2-1.8-.8-2.4 0q1.2-.5 2.4.2.3 1.3-1.7 1.3-1-.5-1.6-2 .5-.8 1.9-1.2 1.5.3 1.4 1.7m-.7-.3q-.5-.5-1.1 0zm.5 1.7q-.3.3-.8.3a4 4 0 0 0-.4 2.2l1.3-.1-.2-1.2-.6.8q.1-1.2.7-2m-1 .3-.9-.2q-.4 1-1.6 1.5-1 1.1-1 2.5 0 .4.3.3 2.3-.1 3-1.8-.4 0-.2-.8l-2.3 1.6q1-1.7 2.5-2.2zm-1.6 2 1.3-1v.4q-.8 0-1.3.6m2.6-1.8-.4.6.4-.2zm-.7 2.2h-.4q-.2.8-.8 1.2-.3 1.6.8 2.8 1.5-1 1.6-3.5l-.3-.7q-.8 1.5-1.3 3 0-1.5.4-2.8m.3-.1q-.4.9-.5 1.8l.8-1.9zm1.2-.3V75h-.2a3 3 0 0 0 .5 2.4q.7.8 1 .1.4-.5.4-1.4l-.5-1-.3 1.6q-.4-.9-.3-1.8a2 2 0 0 1-.6-1.2m.8 1.3v1.2l.2-1zm-1.2 1.4-.6 6q-.3-2.4-.1-4.8l-.8.7q-.1 2.6.4 5 .3.8.7.2 1.1-2.8.8-6.2-.3-.4-.4-.9m.7 1.3q-.2 2.8 1.5 5.4.5.6.7-.4c-1-2.3-.7-4.3-.1-5.8l-.4-.5-.4 1.2q0 2 .2 3.9-.8-1.5-.9-3.5-.3.1-.6-.3m.8.3q0 1.2.4 2-.2-1-.1-2.1zm-2-.4.2-.5q0 1.8-.3 3.5zm-1.5.3.4.4q-.6 3-2.4 5.4-.5.3-.6-.2c-.2-1.9.4-3.5.8-5.1l1.3-2.4.2 1.2q-1.3 2.2-1.8 5.2zm-.7-2.4q-1.1 4-5.2 6.5-1 .3-.7-.5c.4-1.9 1.6-3.3 2.7-4.8l.9-.9q.4.3 1 .2-1.8 2.2-3.3 4.4 2.4-2.4 4.6-4.9m-1 .4h.4l-2.6 2.9q1.3-1.5 2.2-3m-1.3-1.5v1.3a13 13 0 0 1-6.5 3c-.9-.2-.8-.7-.7-1.2a14 14 0 0 1 6-4.5q.7.4 2 0l-.1.4c-1.9.6-4 2.4-6 3.8zm.4-.7c-.4.7-2.2 1.5-3.6 2.3q1.8-1.4 3.6-2.3m1.8-2.5.4.3c-1.3 2-3.5 1.8-4.8.5q.3-1.4 1.8-2l1.8-.1.4.7q-1.8.3-3 1.1zm-.3-.4q-1 0-2 .5l2.2-.2zm-4.2 1.4.8.7a10 10 0 0 1-7.6.9q-1.3-.7 0-1.6 1.8-1.4 4-2 1.5.2 3.1-.7l1.2.4-1.5 1.6q-3 0-5.7 1.4 2.9-.7 5.7-.7m-.1-.5q-2 0-3.6.6l3.6-.3zm.3-2.3c-4.6 2-9-1.8-8.7-4.7.6.7.8 1.5 4.2 1q1.5-.2 3 0 1 .3 2 .2l.3.3q-1.2.4-1.9 1.3h-3.4q-1.4.2-1.8-.3-.2.5 1.8.8 1.8 0 3.4.3zm-1.4-1.4q-1.6-.3-3.3-.3 1.6-.2 3.3-.1-.1.2 0 .4m5.7.5-1 1v.2q-3 .6-4.5-2 .9-.8 2.2-1.4.9.5 2.5.3.2.5.7 1c-2-.2-3 0-4 .5q2.1-.1 4.1.4m.5-.3-.2.2q-1.2-.6-2.5-.5.7-.2 2.4 0zm2.1.8q-.5-1.2-1.8-.8a3 3 0 0 1-1.6-2.5c.6-.3 1.3-.8 1.7-.5q2 1 2 2.8c-.6-1.5-1.4-1.7-2.3-1.4q1.8.6 2.3 1.9zm-1-2.2q.6.1.8.6zm-2.4-.4c-2.4.4-3.4-1-4.3-2.7q1.2-.8 2.6-.7 1 1 2.8 2l-.9.4q-1.5-1-3-1.2l2.6 1.6zm-1.5-1.7q1 .2 1.5.9-.7-.3-1.5-1M237 67a4 4 0 0 0-2.2-2.2q-1.1-.7-1-3.3 1.3 1.4 2.7 2.1a2 2 0 0 1 1 2.1c-.9-1.9-1.8-2.1-2.6-2.3q2.1 1.3 2.1 3.6m-1-3q.9 1.1 1.2 2.3l.2-.3a4 4 0 0 0-1.4-2m-1.4 1c-4-2-4.8-4.3-4.6-6.8.3.6.6 1.3 1.8 1.7q1.1.6 1.8 1.5v1q-1.3-1.5-2.6-1.7 1.4 1.1 2.7 2.6 0 .7.9 1.7m-1-2.2q-.2-.5-.8-.9zm-3.7 3q-8.8-1-8-7.6 1.3 2.8 5.5 3.1 1.1.8 3 1.6-1.1.1-1.9.7-3-1-5.1-2.3 1.3 2.1 5.4 3 .4.7 1.1 1.4m-1.2-1.8q-2.5-.5-4.2-1.8 1.6 1 4 1.6zm2.5-1.2h-.6c-6-2.5-7.6-6-6.8-10.4.3 1.2.5 2.4 2.6 3.1q2.2 1 3.4 3.2v1.2q-2.9-1.6-5-3.7c1 1.6 2.1 3.2 5.2 4.6zm-5.3-5.4c.8 1 1.7 2 4 3.1v-.3c-.8-.3-3.6-2.6-4-2.8m18 26.2q-.7 1.4 0 2.6 0-1.2.6-1.6zm-.5.7q-.1.2-.4 0l.2.9-.9 1.5q-.2 1.6.4 2.4c.1-1.2 1-2.3 1-2.9l-1 1.4q.5-1.3.6-2.2zm-1 0 .1.3-1 1.6q.8-.4 1.3-1.2l.1.1q-.5 1.8-2 2 0-.9.5-1.8.4-.2 1-1m-2.5 0q-3 .8-3.3 5.1a3 3 0 0 1 1.8-1.8q1.5-.9 2.4-2.1h-1q0 .3-.7.8l-1.8 1.2q.2-.7 1-1.5 1.3-.7 1.6-1.6m-.3 1v.3q-.7.6-1.5 1l1.5-1.2m1.4.4q-.7.8-1.6 1.4c-1 1.5-1.9 3-.9 5q.2-1.3 1.2-2.3l1.9-2.6-.8.1-2.1 3q.5-1.5 2-3.4zm3.7-1 .2.2-.3.7h.2q-.2 1 .3 2-.9-.4-1.2-1h.2q0-1.5.6-1.9m-1 2.1-.3.7q-.1.8.4 1.7.7-.7.7-1.6l-.2-.2q0 .6-.4 1.1zm-1.7 0-1.2 2q-1.5 3.3 0 5.5-.2-1.3.6-2.5.9-1.6.9-3-1 1.6-1.7 3.6.2-2.4 1.5-4.2zm.1 1.7q-.6.8-.9 1.9zm-1.5-1.2q-.3.1-.7 1zm2.6.7q-.3.6-.3 1.4h-.4q-.1.8-.5 1.7c-.4.6-.8 1.2-.4 1.5l.3.2q-.2-.9.3-1.8c1.2-2.2 1.1-2.6 1-3m.2.9-.5 1.3c-.1 1-.3 2 1 3.5-.5-1.2.3-3.5.3-4.5q-.7 1.2-.8 3.5c-.4-.6.1-2.8 0-3.8m.4.5a1 1 0 0 0-.2 1q.3-.6.2-1m-7.1-1.8-.2.9-1.8 1.1c.2-.5 1.1-1 1.7-1.5V88zm-.5.4a6 6 0 0 0-2.7 2.3q0 .4.2.4v.4h-.7q-.3-.3.1-.8 1-1.5 3-2.3m-1.5 1.2q-1 .7-1 1.3 0 .4.5.3.7 0 .6-.6-.7-.5-.1-1m-.2 1.8h-.3q.1.6.8.7zm-1.6.2q-.1.8.2 1.2l.2-1q-.3 0-.4-.2m.5-1.6q-1 .2-1.6.9 0 .4.2.4c.6.1 1-.7 1.4-1.3m-1.7 1.4.3.2q-.3.2-.3.7-.2-.4 0-.9m-.3-.3q0 .2.2.3-.2 0-.2.3zm1.4-1.1q-1.4-.2-1.3 1 .4-.7 1.3-1" fill="#bb9c61" id="path33"/><path d="m237.4 53 .2.5q0 .5-.2.5t-.3-.5.3-.4m0-.4q.5 0 .6 1 0 .4-.2.6h-.1v.1l-.1.1v-.1h-.2v-.1h-.2v.1h-.3l-.2-.8q0-.9.6-1" fill="#1f1717" id="path34"/><path d="m237.4 52 .1.2q0 .2-.2.3l-.1-.3q0-.3.2-.3" fill="#9b7d52" id="path35"/><path d="m237.4 51.9.1.3-.1.3q-.2 0-.2-.3zm0-.3q.3 0 .3.6v.4h-.6l-.1-.4q0-.5.3-.6" fill="#2f2929" id="path36"/><path d="m237.4 53.1.2.4q0 .5-.2.5t-.3-.5.3-.4" fill="#bb9c61" id="path37"/><path d="M239.1 56.9q-1.5-.4-3.5 0h-.3v-.3q1.8-.6 4-.1l.2.2q-.2.3-.4.2" fill="#bb9c61" id="path38"/></g><g fill="#423929" fill-rule="evenodd" id="g44"><path d="M237.2 56.3h.3v.2h-.3z" id="path39"/><path d="M236.2 56.5v-.1h.2v.2h-.2z" id="path40"/><path d="M235.5 56.6h.2v.2h-.2z" id="path41"/><path d="M239 56.6h.2v.1h-.2z" id="path42"/><path d="M238.2 56.4h.2v.2h-.2z" id="path43"/><path d="M237.9 56.4v-.1zm0 .3v-.1h.1m-1.1-.3v-.1zm0 .3-.1-.1h.2zm-1-.1v-.1h.2zm.1.2v-.1zm3-.3h-.2zm0 .3h-.2l.1-.1z" id="path44"/></g><g fill-rule="evenodd" id="g65"><path d="M235.3 56.5q-.3 0 0-.2 2-.7 4.1 0 .4.2 0 .2h-.1l-.2-.1h-.3v-.1h-.6l-.1-.1h-1.9l-.2.1h-.3l-.1.1h-.2z" fill="#8a7348" id="path45"/><path d="M236.9 54.3q.3 0 .2.8zm.3.1.1 1.2.2-1.1-.1-.2zm.6-.1q-.2 0-.2.8z" fill="#bb9c61" id="path46"/><path d="m237 55.2-.1-.1-.1-.2v-.1l-.1-.2v-.2h-.1v-.5l-.1-.2v-.8q0-.2.1 0V54l.1.2v.3h.1l.1.3v.2q.2 0 .1.2m.8 0v-.1l.1-.2v-.1l.1-.2v-.1l.1-.2v-.4h.1v-1q0-.2-.1 0v1.2l-.1.1v.3h-.1v.3h-.1v.2q-.2 0-.1.2" fill="#ac925a" id="path47"/><path d="M238.2 54.7v.2h-.2zm.1-.4v.2h-.2v-.1zm0-.3h.2v.1h-.2zm.1-.2v.1zm0-.2h.2v.2h-.2zm0-.2v.1zm0-.2h.2v.2h-.2zm0-.4h.2v.2h-.2z" fill="#8a7348" id="path48"/><path d="M236.5 54.7h-.2v.2h.2v-.1zm-.2-.4-.1.2h.2v-.1m0-.3h-.2v.1h.2zm-.1-.2v.1zm0-.2h-.2l.1.2h.2zm0-.2v.1zm0-.2v.2h.1l.1-.1zm0-.4h-.2l.1.2h.1z" fill="#8a7348" id="path49"/><path d="m234.8 55 .3.2-.2.1.1.1.1-.2.6.3-.4.6h.1l.4-.5.6.3h.1l-.7-.4.4-.6v-.2l-.6-.3.4-.5v-.2l-.5-.3.4-.5v-.2l-.5.7-.3-.2.2.2-.5.6-.1-.1v.4l.1-.2.7.4-.4.6-.3-.2zm1 .4-.6-.3.4-.6.6.3zm-.2-1 .4-.6-.6-.3-.5.5z" fill="#b5925a" id="path50"/><path d="m235 54.5-.1.2-.1-.1zm.7.4.1.1-.1.1-.1-.1zm-.4.6v.2l-.2-.1zm.6.2.1.1-.1.2-.1-.2q0-.1 0 0m.4-.4.1.1-.1.2-.1-.2zm-.8-1.5.1.2q0 .1-.1 0h-.1zm-.6-.4.2.2-.2.1zm.5-.5.1.1v.2l-.2-.2q-.1-.2.1 0m.4.3.2.1-.2.1z" fill="#797739" id="path51"/><path d="m239.9 55-.3.2.1.1v.1l-.2-.2-.5.3.3.6-.4-.5-.6.3h-.2l.7-.4-.4-.6v-.2l.6-.3-.3-.5v-.2l.5-.3-.5-.5v-.2l.6.7.3-.2-.3.2.5.6.2-.1-.1.1.1.2v.1l-.2-.2-.7.4.4.6.4-.2zm-1 .4.6-.3-.4-.6-.6.3zm.2-1-.4-.6.6-.3.5.5z" fill="#b5925a" id="path52"/><path d="M239.7 54.5h-.2q0 .3.2.2t0-.1zm-.7.4-.2.1.2.1zm.3.6v.2l.2-.1zm-.5.2-.2.1.2.2v-.2q0-.1 0 0m-.4-.4-.2.1q0 .2.2.2.1 0 0-.2zm.8-1.5q-.2 0-.2.2 0 .1.2 0h.1zm.5-.4-.1.2.1.1.1-.1zm-.5-.5v.3q.2 0 .2-.2t-.2 0m-.4.3-.1.1.1.1h.1z" fill="#797739" id="path53"/><path d="m237.1 54 .1.2h-.2zm-.2-.3.1.2h-.2zm0-.3v.2h-.2zm0-.4.1.1v.2l-.2-.2q0-.2.1 0m.2-.2v.2zm.5 1.3v.2l.2-.1zm.2-.4-.1.2h.2zm0-.3v.2h.2zm0-.4-.1.1v.2q.2 0 .2-.2t-.1 0m-.2-.2a.1.1 0 1 0 0 .2.1.1 0 0 0 0-.2" fill="#705f54" id="path54"/><path d="m237.4 50.8.1.1-.1.1h-.2zm-.4.3-.2.1.2.2.2-.2zm.4 0v.2h-.2zm.3 0 .2.1-.2.2-.2-.2zm-.3.3-.2-.1z" fill="#796142" id="path55"/><path d="M234.2 55q-.2-2.1-2.3-1.7c-1.1.2-2.2.8-2 2.2q.1.7 1 1 .3.5.2.8-.1-.5-.7-.9-.9-.3-.7-1.6.4-2 2.2-2.8c1.4-.6 2 .1 2.4 1zm-4.2 1.7c-.5.2-.3 1-.2 1l.2-.2.1.3q.5 0 .7-.5-.8.1-.8-.6" fill="#70c1eb" id="path56"/><path d="M234.1 55.3q-.3 1.7.6 2.3-.7-.8-.6-2.3" fill="#70c1eb" id="path57"/><path d="M230.7 54c-.7.7-1.2 1.5-.2 2.1.4.2.8.2.7.9q0 .4-.4 1c.7-.3 1.6-1.2 1.3-2s-.9-.8-1-.7c-.6.3-.7-1-.4-1.2m3.8 4c-1.9-.8-1.9-1.7-1.5-2.6l.9-1.2V57q.4.6.8.7z" fill="#0079c5" id="path58"/><path d="M254 52.7q0-.3.5-.3 1.2.3 1.7 1.2.3.9-.3 1.9l-.3.7h-.4l-.1-.1h-.3V56h-.9l-.1-.1h-1.3l-.2.1h-.2l-.2.1h-.2l-.2.1-.4-.7c-.2-.7-.7-1.4 0-2.2a3 3 0 0 1 1.4-.9q.4-.1.6.3l-.3.4v-.3h-.2v1.5h.1v.3h.1v.3h.1v.2l.1.1.1.1h.2V55v.2l.1.1v.3l.2.2v-.4l.1-.1h.3V55h.1v-.3h.1v-.3h.1V54h.1v-1.3h-.2v.3z" fill="#1f1717" id="path59"/><path d="M250.6 56.9q1.9.3 4.1.2 1.5 0 1.3.9-.6 0-1.2.6v-.4q.6 0 .6-.4v-.2q-.3.7-2 .2l.1-.3h-.1c0 .3-1 .2-2 0q-.7-.3-.8-.6m3.2 5q-1.2-1.5-2.6.2l1.2-2q1.2-.5 2.2-1.2l1.4-.9q1.2.6.7 1.9-.9-1.3-1.6-.1-1.2-.5-2.8.7-.4.3-.3.5c1.6-.3 1.8.3 1.8 1m-.3-1.6q.8 0 1.2.6.3.2 0 .1l-1-.2q2.5 1.6 3 .3-1 .5-1.7-.4-.8-.5-1.5-.4m0 .3-1 .2q-.1 0 0-.2.6-.2 1 0m.7-2.4h.2c.1.2-.7.9-1-.1h.4v.3q.3.2.4-.2m.5.1q0-.1-.1 0 0 .6-.8.4-.7-.1-.6-.7 0-.2-.1 0-.2.7.7 1 .8 0 .9-.7m-.9.9q-.8.7-2.6.7.2-1 1.3-2h.5q-.1.4.3 1-.5-.6-.9-.4 0 .3.2.2t.4.2q-1.3-.2-1.5.7 0 .3.3.1.8-.6 2-.5m-1.2-.2q-.7-.1-.8.4zm-.7-.8-.5.7q-1.2.1-2-.2v-.3q.6-.8 1.3-1l.7.2-1.2.8.1.2q.7-.3 1.6-.4m.3-.4-.2.2-1 .2q.4-.5 1.2-.4m-1 1.4-1 .7.7-.7q.2-.1.4 0m-.2.4c-.2.4.2.8-2.2 1.6q.2-1.2 1.2-2h.6l-1.1 1.6c.3-.1 1-.8 1.5-1.2m1.1.5q-1.6 1.9-.9 3c-.9-.4-1.3-1.1-.3-3q-.3 1-.2 2 .6-1.7 1.4-2m-.5 0-.7 1 .4-.9zm-1.1 2.8.3.4q.3 1.6-.4 2.5c-.7-.4-.7-1.5-.9-2.4l.4-.8.4 2.3c.3 0 .2-1.2.2-2m-.3-.6q.3.6 0 .9zm0-1c-.3 1-.5 1.9-1.5 2.5-.7-1.2.3-2.8.9-2.7q-.6 1.2-.5 2l1-1.8m.1-.5q-.6.2-.7 1zm-1.9 1.1-.2 1.2-1.1 1.3c-.7-.1-.2-1.3 0-2.3l.7-.4q-.7 1.5-.4 1.9zm.3-.4q-.6-.3-1 1zm1-2.5q-.2-.1-.8.5zm0 .2q-.4.3-.5.6h-2q.4-.1 1-.8 1-.7 1.1-.1l-1.1.7zm-.7.9-.4 1-2 1q-.6-.1-.2-.8t1-1.3h.7q-.8.7-1 1.6zm-.5 0-.8.7.6-.7zm-2.3 1.4q-.2.6.3.8-.7.2-1 .8 0-1 .7-1.6m.1 1.1q-.4.2-.4 1.1zm.5-.2-.4 2.6q0 1-.8 1.8c0-1.6-.1-3.1.2-3.6v2.4c.3-2.6.6-3.2 1-3.2m1.5 1q0 .6.4.7l-.2.4-.6-.6q0-.3.4-.6m-.1 1c.6.5 1.8 1.6 1 4.3l-1.1-1q0-1.2-.5-2.1l.2-.6q.3 1.2 1 2.1-.5-1.5-.6-2.7m-.3-.2q.2.5.1.8zm-.3-.1a2 2 0 0 1-.5 1.7 3 3 0 0 1-.6-1.5q.7.7 1.1-.2m-.1 1.7q.7 1.7 0 4-.6-.4-.8-1.3v-2.8c.2.5.3 2 .6 2.7q0-1.6.2-2.6m-.4.2v1zm-.6-.6q.3 3.3-.8 4.7l-.1-3q.8-.5 1-1.7m.1 3.6.1 2-.8 3.7q.5-.1 1-2.5.3 1.3-1 3.6l-.4-1.2q.7-2.3.6-4.7zm1 1q.4.8.4 2.3zm-.9 1.8q.1 1.2-.5 2.3zm.2-2.4a14 14 0 0 1 1 5.4c.5-1 .3-3 0-5l.1-1c.5 1.3.8 2.2.8 4 .1 1.4-.1 2.8-1.5 3.9.3-.3.4-2.6 0-4.2-.2-.2-.5-3.2-.4-3.1m2.4-5.6q.1 1.5.9 2.1 0 1-.2 1.7l-.4-.4v-.7h.2q-.5-1.5-.5-2.7m-.2 0v.5zm-.2.4q-.3.6.3 1.1zm2.2.2q.4.3.1 1v1l-.5-.6q.4-.7.4-1.4m-.4 1.8c.8.3 1.5 1 1.7 3q-1.7-.3-2.2-1.6l.2-.8 1.4 1.6zm-.3 0q.3 0 .2.4zm2 2.2c2 1.2 2.5 4 1.6 6q0-.8-.6-1.7-1.6-1.8-2.2-3.6.4.5 1 .5 1 1.3 1.8 3 .3-1-1.5-3.2zm-2.8-.8.4.3q.3.5 1 1.1c0 2.1 0 4.1-.9 5.9q.3-2-.8-3.6-.9-1.7-1.2-3.2l1 .7 1.3 3.7c.3-1-.4-2.5-1-4zm-.3 1.3q.6 1 .8 2.3s-1.2-3.1-.8-2.3m2 1c1.3 2 2 4.1.3 6.6q.3-2.1-.7-3l.2-1.3q.6.8.9 2.3 0-2-.8-3.5zm-.2 1.5q.5.3.4 1.2zm1.4.6 1 1.2q.1 1.3-1 1.8.5-1.5 0-3m-1.7 1.7q1 1.2.5 3-.2-.8-.8-1.1.3-1 .3-2m-.3 1c-.1 1-.3 1.8-1.5 2.7q.8-1.5-.1-3a7 7 0 0 0 0-3.3q1.4 2 1 4.4zm-1.6 0q.6 1.3-.3 3l.5-.1.4 1.2q.4 3.9-1.5 5.8c.5-2 0-3.8-.3-5.6v-1.3l.3.3q.5 2.4.6 4.9.7-2.1-.2-5l.2-.5q.4-1.2.1-2.2 0-.3.2-.5m-.4.9q0 1-.3 2.2-.7-.3-.8-1 .9-.6 1-1.2m-.2 2.6q.4 1.8.3 3.6zm2.2-2.4a7 7 0 0 1 .4 7.2 3 3 0 0 0-.4-2.2q-.8-1.5-1.2-3.4l.5-.4a13 13 0 0 1 1.3 3.8q.1-2.5-.9-4.3zm-.5 1q.3.2.7 1.7-.6-.9-.7-1.8m-2.8-3.7a6 6 0 0 1-1.5 5.6q.5-1.3 0-2.3c1-1.1 1.2-2.2 1.5-3.3m.4 6.6q.3 1.3.4 2.9-.8-.6-.4-2.9m-.3 2.5q.3.5.7.6l-.1 1.4q-.8.1-.8-1zm-.2-5.2h.2c.2 3 .2 6.1-1.5 7.7-.5-1.2-.2-3.3-.2-5.6l.5-.5q.3 2-.2 5c1-2.1.9-4 .7-5.8zm-.8 4.6a9 9 0 0 0 .1-3.4l-.1.3zm3 1.4q1.1.4 1.7 2.3-1.5.2-2.4-1l.2-.4 1.4.6q-.4-.6-1.2-1zm-.4.7q.3 0 .5.4zm5.4-13.7c1.2-1.2 1.9-.8 2.4 0q-1-.5-2.3.2-.3 1.3 1.7 1.3 1-.5 1.6-2-.6-.8-1.9-1.2-1.5.3-1.5 1.7m.7-.3q.6-.5 1.2 0zm-.5 1.7.8.3q.6 1 .4 2.2l-1.2-.1.1-1.2.7.8a4 4 0 0 0-.8-2m1 .3 1-.2q.3 1 1.6 1.5.9 1.1 1 2.5 0 .4-.3.3-2.3-.1-3-1.8.3 0 .2-.8 1.2.7 2.3 1.6c-.7-1-1.5-2-2.5-2.2zm1.7 2-1.3-1v.4q.6 0 1.3.6m-2.6-1.8.4.6-.4-.2zm.7 2.2h.4q.2.8.8 1.2.2 1.5-.8 2.8-1.6-1-1.6-3.5l.3-.7 1.3 3q0-1.5-.4-2.8m-.3-.1.5 1.8-.9-1.9zm-1.3-.3V75h.3a3 3 0 0 1-.5 2.4q-.6.8-1.1.1-.4-.5-.4-1.4.3-.2.6-1l.3 1.6q.4-.9.3-1.8.5-.6.5-1.2M253 75v1.2q0-.6-.3-1zm1.2 1.4.6 6q.3-2.4.1-4.8l.8.7q0 2.6-.4 5-.3.8-.7.2-1.2-2.8-.8-6.2.3-.4.4-.9m-.7 1.3a10 10 0 0 1-1.5 5.4q-.5.6-.7-.4c1-2.3.6-4.3 0-5.8l.5-.5.4 1.2q0 2-.2 3.9.7-1.5.8-3.5.4.1.7-.3m-.9.3q0 1.2-.3 2v-2zm2-.4q0-.3-.2-.5l.4 3.5zm1.5.3-.3.4q.6 3 2.4 5.4.3.3.5-.2c.3-1.9-.4-3.5-.7-5.1q-.8-1.2-1.3-2.4l-.3 1.2q1.4 2.2 1.8 5.2zm.7-2.4q1.3 4 5.2 6.5 1 .3.8-.5c-.4-1.9-1.6-3.3-2.7-4.8l-1-.9q-.4.3-1 .2 2 2.2 3.4 4.4zm1 .4h-.4l2.7 2.9q-1.3-1.5-2.2-3m1.4-1.5v1.3c2.4 1.9 4.5 2.6 6.4 3 1-.2.9-.7.7-1.2a14 14 0 0 0-5.9-4.5q-.8.4-2 0v.4c2 .6 4 2.4 6 3.8q-2.7-1.3-5.2-2.8m-.4-.7c.4.7 2.2 1.5 3.6 2.3q-1.8-1.4-3.6-2.3m-1.8-2.5-.4.3c1.2 2 3.4 1.8 4.8.5q-.3-1.4-1.9-2l-1.8-.1-.3.7q1.8.3 2.9 1.1zm.3-.4q1 0 2 .5l-2.2-.2zm4.1 1.4-.8.7q3.7 2 7.6.9 1.4-.7.1-1.6-2-1.4-4-2-1.4.2-3.2-.7l-1.1.4 1.5 1.6q3 0 5.7 1.4a26 26 0 0 0-5.8-.7m.2-.5q2 0 3.6.6l-3.6-.3zm-.3-2.3c4.6 2 9-1.8 8.7-4.7-.6.7-.8 1.5-4.2 1q-1.5-.2-3 0-1 .3-2.1.2l-.2.3q1.2.4 1.8 1.3h3.5q1.4.2 1.8-.3.2.5-1.9.8-1.6 0-3.3.3zm1.4-1.4q1.5-.3 3.3-.3-1.5-.2-3.4-.1.3.2 0 .4m-5.7.5 1 1-.1.2q3 .6 4.5-2-.9-.8-2.2-1.4-.8.5-2.5.3 0 .5-.7 1c2-.2 3 0 4 .5q-2-.1-4 .4m-.6-.3.3.2q1.3-.6 2.5-.5-.7-.2-2.4 0zm-2 .8q.5-1.2 1.8-.8 1.4-1 1.6-2.5c-.6-.3-1.3-.8-1.7-.5q-2 1-2 2.8 1-2 2.3-1.4-1.8.6-2.3 1.9zm1-2.2q-.6.1-.8.6zm2.4-.4c2.3.4 3.4-1 4.3-2.7q-1.2-.8-2.6-.7-1.2 1-2.8 2l.8.4q1.5-1 3-1.2l-2.5 1.6zm1.5-1.7q-1 .2-1.6.9zM254 67a4 4 0 0 1 2.2-2.2q1.1-.7 1-3.3-1.3 1.4-2.8 2.1a2 2 0 0 0-1 2.1c1-1.9 1.8-2.1 2.7-2.3Q254 64.7 254 67m1-3q-1 1.1-1.2 2.3l-.2-.3q.6-1.5 1.4-2m1.4 1c4-2 4.8-4.3 4.5-6.8q-.2 1-1.7 1.7-1.2.6-1.8 1.5v1q1.3-1.5 2.5-1.7l-2.7 2.6q0 .7-.8 1.7m1-2.2q.1-.5.8-.9zm3.7 3q8.8-1 8-7.6a7 7 0 0 1-5.6 3.1q-1 .8-2.9 1.6 1.1.1 1.8.7 3-1 5.2-2.3-1.4 2.1-5.5 3-.3.7-1 1.4m1.2-1.8q2.5-.5 4.2-1.8-1.7 1-4.1 1.6zm-2.5-1.2h.6c5.9-2.5 7.6-6 6.7-10.4-.2 1.2-.5 2.4-2.5 3.1a7 7 0 0 0-3.4 3.2v1.2q2.8-1.6 5-3.7a11 11 0 0 1-5.2 4.6zm5.2-5.4c-.7 1-1.6 2-4 3.1v-.3c1-.3 3.7-2.6 4-2.8m-18 26.2q.8 1.4 0 2.6 0-1.2-.6-1.6zm.5.7q.3.2.4 0l-.1.9.8 1.5q.4 1.6-.3 2.4c-.2-1.2-1-2.3-1-2.9l1 1.4q-.6-1.3-.7-2.2zm1.1 0q0 .2-.2.3.7.8 1 1.6-.7-.4-1.2-1.2l-.2.1q.6 1.8 2 2 .2-.9-.4-1.8-.5-.2-1-1m2.4 0q3.1.8 3.4 5.1a3 3 0 0 0-1.8-1.8q-1.6-.9-2.4-2.1h1q0 .3.7.8 1 .5 1.7 1.2 0-.7-1-1.5-1.3-.7-1.6-1.6m.4 1v.3q.7.6 1.5 1l-1.5-1.2m-1.4.4 1.5 1.4c1 1.5 2 3 1 5q-.2-1.3-1.2-2.3l-2-2.6.9.1 2 3q-.3-1.5-1.9-3.4zm-3.8-1q0 .2-.2.2.4.4.4.7h-.3q.3 1-.2 2 .8-.4 1.2-1h-.3q.1-1.5-.6-1.9m1 2.1.3.7a3 3 0 0 1-.3 1.7q-.7-.7-.8-1.6l.2-.2q0 .6.5 1.1zm1.8 0 1.2 2q1.5 3.3 0 5.5 0-1.3-.6-2.5-.9-1.6-1-3 1 1.6 1.8 3.6-.2-2.4-1.5-4.2zm-.2 1.7q.7.8 1 1.9zm1.5-1.2q.5.1.8 1zm-2.5.7q.3.6.3 1.4h.3q0 .8.6 1.7.7 1 .4 1.5l-.3.2q.2-.9-.4-1.8c-1.2-2.2-1-2.6-1-3m-.2.9.5 1.3c.1 1 .3 2-1 3.5.4-1.2-.3-3.5-.3-4.5q.7 1.2.8 3.5c.4-.6-.2-2.8 0-3.8m-.5.5q.4.4.3 1zm7.2-1.8.2.9 1.8 1.1c-.2-.5-1.1-1-1.8-1.5l.1-.1zm.5.4q1.7.8 2.7 2.3 0 .4-.2.4v.4h.7q.3-.3-.2-.8-.8-1.5-3-2.3m1.5 1.2q1 .7 1 1.3-.2.4-.6.3-.6 0-.5-.6.7-.5 0-1m.1 1.8h.4q-.1.6-.8.7.4-.4.4-.7m1.7.2q0 .8-.3 1.2l-.1-1q.3 0 .4-.2m-.5-1.6q1 .2 1.5.9.2.4 0 .4c-.7.1-1-.7-1.5-1.3m1.7 1.4-.3.2q.3.2.3.7zm.3-.3q0 .2-.2.3l.1.3zm-1.4-1.1q1.3-.2 1.3 1-.5-.7-1.3-1" fill="#bb9c61" id="path60"/><path d="M253.5 53q-.2.1-.3.5t.3.5.3-.5q0-.4-.3-.4m0-.4q-.7 0-.7 1 0 .4.3.6l.1.1v.1h.1v-.1h.2v-.1h.2v.1h.2q.3-.3.3-.8 0-.9-.7-1" fill="#1f1717" id="path61"/><path d="m253.5 52-.1.2.1.3.2-.3q0-.3-.2-.3" fill="#9b7d52" id="path62"/><path d="m253.5 51.9-.2.3q0 .3.2.3t.2-.3-.2-.3m0-.3q-.3 0-.4.6l.2.4h.5l.1-.4q0-.5-.4-.6" fill="#2f2929" id="path63"/><path d="m253.5 53.1-.2.4q0 .5.2.5t.2-.5-.2-.4" fill="#bb9c61" id="path64"/><path d="M251.7 56.9q1.7-.4 3.6 0h.3l-.1-.3a7 7 0 0 0-3.9-.1q-.3 0-.2.2t.3.2" fill="#bb9c61" id="path65"/></g><g fill="#423929" fill-rule="evenodd" id="g71"><path d="M253.7 56.3h-.4v.2h.3z" id="path66"/><path d="M254.7 56.5v-.1h-.2v.2h.2z" id="path67"/><path d="M255.4 56.6h-.2v.2h.2z" id="path68"/><path d="M251.9 56.6h-.2v.1h.1z" id="path69"/><path d="M252.7 56.4h-.3v.2h.2z" id="path70"/><path d="M253 56.4v-.1h-.1zm0 .3v-.1h-.1m1.1-.3v-.1zm0 .3v-.1h-.1m.9-.1v-.1h-.1m0 .2v-.1h-.1zm-3-.3h.1zm0 .3h.1v-.1z" id="path71"/></g><g fill-rule="evenodd" id="g96"><path d="M255.6 56.5q.3 0 0-.2a7 7 0 0 0-4.2 0q-.2.2 0 .2h.2l.2-.1h.2l.2-.1h.4l.2-.1h1.9l.1.1h.4v.1h.3z" fill="#8a7348" id="path72"/><path d="M254 54.3q-.3 0-.2.8zm-.3.1-.1 1.2q-.2-.5-.2-1.1l.1-.2zm-.7-.1q.4 0 .3.8z" fill="#bb9c61" id="path73"/><path d="M254 55.2V55h.1v-.3h.1v-.3l.1-.1v-.7h.1V53q0-.2-.2 0v1.4l-.1.1v.3h-.1v.3h-.1zm-1 0v-.4h-.1v-.3h-.1v-.3l-.1-.2v-1q0-.2 0 0v.8l.1.1v.4l.1.1v.2l.1.2v.1zl.1.2z" fill="#ac925a" id="path74"/><path d="M252.7 54.7v.2h.1v-.1zm-.2-.4-.1.2h.2v-.1m0-.3h-.2v.1h.2zm0-.2h-.2l.1.1zm0-.2h-.2v.2h.2zm-.1-.2v.1zm0-.2h-.2l.1.2h.1l.1-.1zm0-.4h-.2l.1.2h.1z" fill="#8a7348" id="path75"/><path d="M254.4 54.7v.2h-.2zm.1-.4v.2h-.1l-.1-.1zm0-.3h.2v.1h-.2zm.2-.2v.1h-.1zm0-.2v.2h-.2zm0-.2v.1zm0-.2v.2h-.2zm0-.4v.2h-.2z" fill="#8a7348" id="path76"/><path d="m256 55-.2.2.1.1v.1l-.2-.2-.5.3.4.6h-.1l-.4-.5-.6.3h-.1l.6-.4-.4-.6v-.2l.6-.3-.3-.5v-.2l.5-.3-.5-.5v-.2l.6.7.3-.2-.3.2.5.6.2-.1v.4l-.2-.2-.6.4.4.6.3-.2zm-.9.4.6-.3-.4-.6-.6.3zm.2-1-.4-.6.6-.3.5.5z" fill="#b5925a" id="path77"/><path d="M255.9 54.5v.2l.2-.1zm-.7.4-.2.1.2.1zm.4.6h-.2l.2.2zm-.6.2-.1.1v.2q.2 0 .2-.2 0-.1-.1 0m-.4-.4-.2.1.2.2zm.8-1.5-.1.2q0 .1 0 0h.2zm.5-.4-.1.2.1.1.2-.1zm-.5-.5v.3l.2-.2q0-.2-.2 0m-.4.3v.2h.2q0-.2-.2-.2" fill="#797739" id="path78"/><path d="m251 55 .3.2-.1.1v.1l.2-.2.5.3-.4.6h.1l.4-.5.6.3h.1l-.7-.4.4-.6h.1v-.2l-.7-.3.4-.5v-.2l-.5-.3.4-.5v-.2l-.5.7-.3-.2.2.2-.5.6-.1-.1v.4l.2-.2.6.4-.4.6-.3-.2zm1 .4-.6-.3.4-.6.6.3zm-.2-1 .4-.6-.6-.3-.5.5z" fill="#b5925a" id="path79"/><path d="m251.2 54.5-.1.2-.1-.1zm.7.4.1.1v.1l-.2-.1zm-.4.6h.2l-.2.2zm.6.2.1.1-.1.2-.1-.2q0-.1.1 0m.4-.4.1.1v.2l-.2-.2zm-.8-1.5.1.2q0 .1-.1 0h-.1zm-.5-.4v.3l-.2-.1q0-.2.2-.2m.4-.5.2.1-.2.2zq0-.2 0 0m.4.3.2.1-.2.1z" fill="#797739" id="path80"/><path d="m253.8 54-.2.2h.2zm.1-.3a.1.1 0 1 0 0 .3.1.1 0 0 0 0-.3m.1-.3a.1.1 0 1 0 0 .2.1.1 0 0 0 0-.2m0-.4a.1.1 0 1 0 0 .3.1.1 0 0 0 0-.3m-.3-.2a.1.1 0 1 0 0 .2.1.1 0 0 0 0-.2m-.4 1.3a.1.1 0 1 1 0 .2.1.1 0 0 1 0-.2m-.2-.4a.1.1 0 1 1 0 .3.1.1 0 0 1 0-.3m-.1-.3.1.1-.1.1h-.1zm0-.4a.1.1 0 1 1 0 .3.1.1 0 0 1 0-.3m.3-.2v.2l-.1-.1z" fill="#705f54" id="path81"/><path d="m253.5 50.8-.2.1.2.1h.1zm.4.3-.1.2-.2-.2zm-.7 0-.2.1q0 .2.2.2zm.3.3-.2.1.2.1z" fill="#796142" id="path82"/><path d="M256.6 55q.3-2.1 2.3-1.7c1.2.2 2.3.8 2 2.2q0 .7-1 1-.4.5-.1.8 0-.5.7-.9.8-.3.6-1.6-.3-2-2.2-2.8c-1.3-.6-2 .1-2.3 1zm4.3 1.7c.4.2.3 1 .1 1l-.1-.2-.2.3-.6-.5q.7.1.8-.6" fill="#70c1eb" id="path83"/><path d="M256.7 55.3q.4 1.7-.6 2.3.8-.8.6-2.3" fill="#70c1eb" id="path84"/><path d="M260.2 54c.7.7 1.2 1.5.2 2.1-.4.2-.8.2-.8.9l.5 1c-.7-.3-1.6-1.2-1.3-2s.8-.8 1-.7c.6.3.7-1 .4-1.2m-3.8 4c1.9-.8 1.9-1.7 1.5-2.6l-1-1.2V57q-.4.6-.7.7z" fill="#0079c5" id="path85"/><path d="M245.4 67.5c0 1-.3 1.9 0 2.8q.3-1.5 0-2.8m-.5 2.7q0 2 .5 4.1.5-2 .6-4.1l-.6.2zm.5 4.7q0 .6-.4 1l.2.5q-.4 1.3.2 2.6.7-1.3.3-2.6l.2-.5zm-10.9 2.6q-.9 1.5-1.3 3.2l1.4-3zm21.9 0q.8 1.4 1.3 3.2l-1.4-2.9zm-11 6q.2 1-.6 2h.3q-.4 1.2.3 2.4.8-1.2.4-2.5h.2q-.5-.8-.6-2m-.2 4.5c-.1-.3 0 1.3.2 2l.4-2c0 .1-.5.2-.6 0m-.5-.4.2.2q0 1.4.6 2.8.5-1.4.5-2.8l.2-.2q0 .6.3 1.1.1 1.8-1 3.2-1-1.2-1.2-3.1z" fill="#bb9c61" id="path86"/><path d="M245.4 47.5v.1h-.1v.9l.1.1h.1v-.1l.1-.1v-.8z" fill="#927961" id="path87"/><path d="M245 49q.3 0 .3.3t-.3.3-.2-.3.2-.3m-.3.6q.2 0 .2.2t-.2.3-.3-.3.3-.2m-.2.6q.2 0 .3.3l-.3.3q-.3 0-.3-.3t.3-.3m.1.6q.3 0 .3.3t-.3.3-.2-.3zm.4.6q.3 0 .3.3t-.3.2-.2-.2.2-.3m.8 0q.2 0 .2.3t-.2.2-.3-.2.3-.3m.4-.5q.3 0 .3.2t-.3.3-.2-.3.2-.2m.2-.6q.2 0 .2.2t-.2.3-.3-.3.3-.2m-.2-.7q.3 0 .3.3t-.3.2-.2-.2.2-.3m-.3-.6q.2 0 .2.3t-.2.3-.3-.3.3-.3" fill="#927961" id="path88"/><path d="M245.4 47.4q.3 0 .4.7c0 .7-.2.6-.4.6q-.3 0-.3-.6 0-.8.3-.7m0-.3q.6 0 .7 1c0 1-.3 1-.7 1q-.5-.1-.6-1c0-1 .3-1 .6-1" fill="#b5925a" id="path89"/><path d="M245.4 56.5c1.8 0 3.2.3 3.2.6v.3h.1q.5 0 .5-.3c0-.5-1.7-.9-3.8-.9s-3.8.4-3.8.9l.5.3h.1v-.1h.1l-.1-.2q0-.2.2-.2l.1-.1h.3v-.1h.5v-.1zm1.9 1h-3.5v.1l-.1.1a16 16 0 0 0 3.7 0z" fill="#bb9c61" id="path90"/><path d="M242.2 58.6q1.6-.5 1.6-1.9l-1.3.2q-.1.8-1.3 1 .4.4.4.6z" fill="#70c1eb" id="path91"/><path d="m247.2 56.8 1.1.2q.1.7 1.3 1l-.4.6q-.2-.2-.4 0-1.6-.7-1.6-1.8" fill="#70c1eb" id="path92"/><path d="M241.8 56q-.2.4.2.6h.1l.1-.1h.3v-.1h.2q0-.3.3 0v-.1h.6l.2-.1h.5q0-.4.3 0h1.7q.1-.4.3 0h1.1l.1.1h.4l.1.1h.2l.2.1h.2v.1q.5 0 .2-.6l-.3-.1h-.2l-.2-.1-.4-.1h-.3l-.3-.1h-.4l-.3-.1h-.7l-.2-.1h-1.2q-.2.4-.4 0h-.2l-.2.1h-.5l-.2.1h-.2q0 .4-.3.1h-.1l-.2.1-.3.1zm.5 0h.2v.3h-.4V56zm1.3-.3h.2v.3h-.4v-.3zm1.9-.1h.1l.1.1v.2h-.4v-.3zm1.8 0h.1v.4h-.3v-.3zm1.3.3h.1v.1h.1v.3h-.3V56z" fill="#bb9c61" id="path93"/><path d="M241.7 55.5q-.2.2 0 .4 3.6-1.3 7.4 0 .4-.2 0-.4-3.8-1-7.4 0" fill="#bb9c61" id="path94"/><path d="m242.3 56 .2.1-.2.2-.2-.2q0-.2.2 0m1.3-.3.2.2h-.4zm1.9 0h.1l-.1.2-.2-.1zm1.8 0 .1.1-.1.2-.2-.2zm1.3.3.2.1q0 .2-.2.2l-.1-.2q0-.1.1 0" fill="#927961" id="path95"/><path d="m245.5 54.3.1.3q0 .2-.2.2l-.1-.2z" fill="#c9c55a" id="path96"/></g><g fill="#bb9c61" fill-rule="evenodd" id="g99"><path d="M244 53q-.3 1 1.2 1.2-1-.3-1.1-1.1m-.6 0q0 1.4 1.9 1.4-1.5-.2-1.9-1.4m-.3.4q.1 1.3 2 1.2-1.3-.2-2-1.2m0 1q.7.8 2 .4zm3.7-1.3q.4.8-1.1 1.1 1-.3 1.1-1.1m.7-.1q0 1.4-1.9 1.4 1.5-.3 1.9-1.4m.3.4q-.1 1.3-2 1.2 1.3-.2 2-1.2m0 1q-.7.8-2 .4z" id="path97"/><path d="m245 52 .2 2.2h.5l.2-2.1h-.3V52h-.1v-.2h-.1v.1h-.1v.1z" id="path98"/><path d="m244.4 51.4.6 2.4V52h-.2l-.1-.1v-.3h-.2zm2 0q0 1.2-.6 2.4l.2-1.8.1-.1v-.3h.3z" id="path99"/></g><path d="M246.4 49.5q.3-.4.4.2v.7h-.1v-.1h-.1v-.7zm-1.9 0q-.3-.4-.4.2v.6l.1-.1h.1v-.6z" fill="none" id="path100"/><g fill-rule="evenodd" id="g111"><path d="M244.2 49.2q-.3-.2-.4.3-.1 2.2 1 4.5h.1v-.4h-.1v-.3h-.1V53l-.1-.2v-.1l-.1-.1v-.3l-.1-.1v-.3l-.1-.2v-.9h-.1v-.2l-.2-.3v-.9zm2.5 0q.3-.2.4.3 0 2.2-1 4.5h-.1l-.1.1v-.4h.1v-.3h.1v-.2l.1-.1v-.3h.1v-.3l.1-.1V52l.1-.1v-.3l.1-.2V51l.1-.1v-.1l.2-.4v-1z" fill="#bb9c61" id="path101"/><path d="M244.7 49q-.3-.5-.8-.5t-.9 1.6a5 5 0 0 0 1 3.3V53l.1-.4v.6l.1.1v.1l.1.1.1.1.1.1h.1v.1-.2l-.1-.2-.1-.1v-.2l-.1-.1v-.2l-.1-.1v-.2l-.1-.1v-.2l-.1-.1v-.3l-.1-.1v-.3l-.1-.2v-.5l-.1-.2v-1.4h.1V49h.4l.3.1v.1h.1z" fill="#bb9c61" id="path102"/><path d="m243.8 48.7-.2.1q0 .2.2.2t.1-.2zm-.4.7-.2.2.2.2.2-.2zm0 .8q-.2 0-.2.2l.2.1.1-.1zm0 .7-.1.2.1.1.2-.1q0-.2-.2-.2m.2.8-.2.1.2.2q.2 0 .2-.2zm.2.7q-.2 0-.2.2l.2.1.2-.1z" fill="#c9c55a" id="path103"/><path d="M246.2 49q.3-.5.8-.5t.9 1.6a5 5 0 0 1-1 3.2V53l-.1-.4v.6l-.1.1v.1l-.1.1-.1.1-.1.1h-.1v.1-.2l.1-.2v-.1l.2-.2V53l.1-.1v-.2l.1-.1v-.2l.1-.1V52l.1-.1v-.3l.1-.2v-.5l.1-.2v-1.3l-.1-.1-.1-.1h-.3l-.3.1v.1h-.1z" fill="#bb9c61" id="path104"/><path d="m247.1 48.7.2.1q0 .2-.2.2l-.1-.2zm.4.7.1.2-.1.2-.2-.2q0-.2.2-.2m0 .8q.2 0 .2.2l-.2.1-.2-.1zm0 .7.1.2-.1.1-.2-.1q0-.2.2-.2m-.2.8.1.1-.1.2q-.2 0-.2-.2zm-.2.7.2.2-.2.1-.2-.1q0-.2.2-.2" fill="#c9c55a" id="path105"/><path d="M245.4 49.6q.5 0 .6.9c0 .9-.3.8-.6.8q-.5-.1-.5-.8 0-1 .5-1" fill="#bb9c61" id="path106"/><path d="M241.8 55.3q-.9-1.6-1.2-3.3-.2-1.4.8-2.1.8-.9 2-1.2v.1h-.1v.1l-.1.1v.2h-.1v.2l-.1.2v.4h-.1v1.4l.1.1v.4h.1v.2l.1.2v.2l.1.1.1.2v.8l.1.2h.1v.1l-.1-.1h-.1v-.1h-.1v-.2h-.1l-.2-.3v.5l.1.2.1.1v.1h.1v.1h.1l.2.1.1.1h.2l.1.1h.1-.6l-.1-.1h-.3l-.2-.1.1.2h.1v.1h.1v.1h.2v.1h.2l.1.1h-.4l-.3.1h-.2l-.2.1h-.3l-.2.1zm1.7-2.3.1.2h.1v.2l.3.2v.1l-.1-.1-.1-.1v-.1h-.1v-.1l-.1-.1z" fill="#927961" id="path107"/><path d="M249.1 55.3q.9-1.6 1.2-3.3.1-1.4-.8-2.1-.8-.9-2-1.2v.1h.1v.1l.1.1v.2h.1v.4h.1V52h-.1v.2l-.1.2v.2l-.1.1-.1.2v.8l-.1.2h-.1v.1l.1-.1.1-.1.1-.2h.1l.2-.3v.5l-.1.2-.1.1v.1h-.1v.1h-.2v.1h-.1l-.1.1h-.2l-.1.1h-.1.6l.1-.1h.3l.2-.1-.1.2h-.1v.1h-.1v.1h-.2v.1h-.3v.1h.4l.3.1h.2l.2.1h.3l.2.1zm-1.7-2.3-.2.2v.2l-.3.2v.1l.1-.1.1-.1v-.1l.1-.1v-.1z" fill="#927961" id="path108"/><path d="m242.9 51.4-.4.6.6.3v.3l-.8-.3-.6 1 1 .5.2-.3v.4h.1v.2h.1l.1.1-.6-.2-1-.4-.3.4v-.2l-.1-.2v-.1l-.1-.2V53h-.1l.4.2.7-1.1-1.2-.5-.2.3v-.6h.1l.8-1-.5-.1.1-.1h.1V50l.5.1.9-1V49h.1l.2-.1v.2l-1 1.1.8.3v.3l-1-.3-.7 1 1.1.3.6-1v.5m-.2 2.9-.4.7h-.2l-.2.1.7-1zm.4-1.2.2-.2v.4z" fill="#bb9c61" id="path109"/><path d="m248 51.4.4.6-.6.3v.2l-.1.1.9-.3.6 1-1 .5-.2-.3v.3l-.1.1v.2h-.1l-.1.1.6-.2 1-.4.3.4v-.2l.1-.2v-.1l.1-.2V53l-.3.2-.7-1.1 1.2-.5.2.3v-.6h-.1l-.8-1 .5-.1-.1-.1h-.1V50l-.5.1-.9-1V49h-.3v.2l1 1.1-.8.3v.3l1-.3.7 1-1.1.3-.6-1zm.2 2.9.4.7h.2l.2.1-.7-1zm-.4-1.2-.2-.2v.4z" fill="#bb9c61" id="path110"/><path d="m241.8 50.9.3-.1v.2h.3v.2l-.2.1v.3h-.2l-.1-.2h-.3v-.2h.2zm.5 1.8h.2v.2l.4-.1v.3h-.3v.3h-.1v-.2l-.4.1V53h.3zM241 52h.3v.3h.4v.2h-.4v.3h-.2v-.2h-.3v-.3h.3zm.6 1.8h.2v.2h.3v.2h-.2v.3h-.2v-.2h-.3v-.2h.3zm1.1.6h.2v.2h.3v.2l-.7.2v-.3h.2zm6.4-3.6-.3-.1v.2h-.3l-.1.2.3.1v.3h.2v-.2h.4v-.2h-.3zm-.5 1.8h-.2l-.1.2-.3-.1v.3h.3v.3h.1v-.2l.3.1V53h-.2zm1.3-.6h-.3v.3h-.4v.2h.3v.3h.3v-.2h.3v-.3h-.3zm-.6 1.8h-.2v.2h-.3v.2h.2v.3h.2v-.2h.2v-.2h-.2zm-1.1.6h-.2v.2h-.3v.2l.7.2v-.3h-.2zm-5.6-4.5h.2v.2h-.2zm5.7 0h-.2v.2h.2z" fill="#c9c55a" id="path111"/></g><g fill="#927961" fill-rule="evenodd" id="g115"><path d="M245.6 46.1h-.3v-.5h.5z" id="path112"/><path d="M245.7 46.2v.3h.5V46z" id="path113"/><path d="M245.6 46.6h-.3l-.1.5h.6z" id="path114"/><path d="M245.2 46.2v.3h-.5V46z" id="path115"/></g><path d="m245.4 46.1.2.2q0 .3-.2.2l-.2-.2z" fill="#bb9c61" fill-rule="evenodd" id="path116"/><path d="M247.2 57.4v-.2h-.1v-.5h-3.2v.7h.9l.1.1h2.2" fill="#705f54" fill-rule="evenodd" id="path117"/></g><!-- app4joy --></svg>