<svg id="svg65" width="1800" height="1200" clip-rule="evenodd" fill-rule="evenodd" image-rendering="optimizeQuality" shape-rendering="geometricPrecision" text-rendering="geometricPrecision" viewBox="0 0 1800 1200" xmlns="http://www.w3.org/2000/svg"><g id="g66"><path id="rect1" d="M0 0h1800v1200H0z" fill="#FFFFFF"/><path id="rect2" d="M0 0h750v450H0z" fill="#DA251D"/><path id="rect3" d="M1050 750h750v450h-750z" fill="#DA251D"/><path id="rect4" d="M1050 0h750v450h-750z" fill="#0071B4"/><path id="rect5" d="M0 750h750v450H0z" fill="#0071B4"/></g><g id="g65"><path id="path5" d="M857.2 748.7q-9.5.4-19 1.5c-10.7 1.1-21.7 2.7-32.5 2.7a46 46 0 0 1-16.7-3.8c-16-7.3-22.4-22.7-22.6-39.5V453.3h264.8l.1 255.6a52 52 0 0 1-6.3 26q-5.8 10.2-16.5 15.2-7.6 3.2-16 2.7c-17.3-1.5-34.7-4.1-52.2-4.1a42 42 0 0 0-19.5 4.4c-7.4 3.6-16.8 10.4-19.4 18.6l-1.3 4.1-1.3-4a28 28 0 0 0-11.1-13.4 57 57 0 0 0-30.5-9.7" fill="#684833"/><path id="path6" d="M767.7 454.7h262.2l.1 254.2c0 27.4-17 43.9-37.3 42.5-17.5-1.4-34.9-4-52.4-4-15.6-.9-36.2 11.3-40.2 24-4-12.8-24.1-23.8-42.9-24-17.2.4-35.1 4.1-51.5 4.2-19.2-1-37.6-12.7-38-42z" fill="#DA251D"/><path id="path7" d="M932.5 603.8q1.3-.6 2.2.5.6 1.3-.4 2.2l-.4.4-.4.4 2.8-1.2c1.7-.8 4-2 6-1.9h1l.4 1.1q.3 1.1-.5 2c3.3-.7 7.5-1.2 9.8 0l.8.4v1l-.1.9 6.4-.2-.2.5h1.9c-.3 1.1-.4 2.5-1.4 3.2h.2c2.3 0 4.7.2 6.1 2.4l.1.2v.1c2 4.8 6.2 8.6 10 12h.1l.1.2c2.8 4 3.8 11.8 4.9 16.5l.4 1.9-1.9.1a5 5 0 0 1-3.6-1.2c1.7 2.3 3 4.6 1.3 7.5a7 7 0 0 0-1.2 4.1l.6 3.9q.2 1.7-.6 3.3a2 2 0 0 1-1.1 1.1q-1.1.3-2-.4l1.3 4c1 3 1.7 5.7 1.3 9l-.3 2.1-2-.8h-.2q1 2.5 2 4.5c1.6 3.2 4.6 7.7 3.7 11.4l-.2.5-.3.3c-4.5 4-10 7.4-14.6 11.4-3.2 1.9-15.7 3.2-18.1-.9-.9-1.4.1-3.7 2.2-5.7q1.4-1.3 3-2.2c1.2-.8 4.5-2.5 5-3.8.2-.3.5-1.3.5-1.7a17 17 0 0 0-3.3-6.7l-1 6.3-2.1-1.7c-2.6-2-4.8-9.3-5.6-12.9-1.3 4.3-3 .8-3.7-1L940 674l-.7-1.4v.2c0 1.4.1 3.8-1.7 4q.6 1.6 0 3.1l-.4 1.8 1 3.7c1.4 5.6 1.7 11.9-3.7 15.5-2.4 1.6-6.5 3-9.3 3.8q-3.5 1-7.2 1.7c-2.4.1-11.7 0-12.3-4.5v-.2c0-4.2 6.4-6.2 9.5-7.7 1.5-.8 5.2-2.5 5.7-4.2v-1.1l-.6-1.2q-.5-1.1-.6-2.3l-.2-2-.6.2q-1.4.2-2-1l-.6-1.1-1.2-3.3-1.6-4.4q-.4-1-.3-2.3h-.2c-1.3-.5-1.7-2-2.1-3.1-.3 1-.7 2.1-2 2.2q-.5 0-1-.3l-2.1-1.8c-.5 1-1 2.2-2.4 2l-2.7.1c-1 .1-2.1.6-3 .1-.7-.3-1.4-2.5-2-1.8l-1 1.4h-.4v1l-.2 2.2-1.2-.6.2 2.1v3.6l-1.5-1.3-.2 7.8-2.2 2.2q-.4 1.3-.3 2.5c0 2.1.2 5-1.9 6.3l-1.1.4v.8h-.5v.5l-.2 2.3c-.3 2.2-1 5.5-4 5.3q-10.5-.2-20.4 3.3a1.6 1.6 0 0 1-2.2-1.1q-1.5.6-2.5-.5-.9-1.3 0-2.4h-.1l-1.5-.7.6-1.5q.2-.6.6-1.1c1.6-2 4.7-2.7 7-3.4 2.7-.8 5.3-1.5 5.3-4.7v-1.6h.6c0-.8 0-2.1-.3-2.5h-.6l-.5-.7c-1.2-1.9-.3-4.7-.7-5.5h-.2l-1.1-.2-.3-1-.3-2.1-.2-2.9-.2-1.4-.2.2q-1.5.6-2.8-.8l-.3-.3-.1-.5a29 29 0 0 0-2-5.6l-.5-.7a10 10 0 0 1-3.4 6.2c-.8.8-2 1.7-3.1.6q-.3 0-.3-.4c-2 1.3-8.8 3.3-6.2-.7l-3.9 3.5a1.7 1.7 0 0 1-2.5-.5l-.3.3c-.8 4.6-5.2 5.7-5.6 9.2v.3l-.2.3c-.4.8-.5 1.5-1.2 2.3q-1.2 1.2-2.7 1.4c-5.3 1-6 .6-8.5-4.1q-.8-2.2-.4-4.5l.2-.6.4-.3.5-2q.4-1.5 1-2.9c1-1.7 2.3-3.4 2.8-5.4l.1-.1c.4-1 1-1.4 1.4-2.2q.3-.4.2-.8v-.7l.4-.5q1-1.5 1.7-3c1.5-3 2.8-5.7 5.9-7.1q2-1.7 4.3-2.6c1.3-.6 3-1.3 4-2.2h.1c1.5-1 3.3-1.5 4.5-2.7l1-1-.6-2.2a8 8 0 0 1-.1-3.3l.2-2.3c-1.1.7-2.4 1.4-3.6.7-1-.6-1.3-1.9-1.7-3l-.7.5c-.7.5-1.7 1-2.6.3q-.6-.3-.7-.8a3 3 0 0 1-1.8 1.6l-1 .4-.8-1a5 5 0 0 1-.9-2q-.7 1-2.2 1h-1l-.4-1.1-.2-.5c-1-1.5-4.4-2-6-2.4q-2.7-.2-5.3-.8c-3.7-.7-5-2.2-6.6-4.4l-1.1-1.4c-1-2.5-.7-5.5-1.2-6l-1-.5v-1l-.2-1q-.2-1 0-1.7l.1-.8.8-.4c3.5-1.6 8.3-2.8 11-5.8l.6-.8.3.1 1.6-2.6c.6-1 1.8-3.4 2.7-4.1v-.1c2-1.3 4-2.9 6.4-4q-.3 0-.4-.3c-1.5-1.6-1-4.3 0-6 1-1.6 2.9-3.8 4.8-3.8h.4c.4.2 1.8 1.3 3 1.6 1 .3 2.2.7 2.1 2 2.4-1.4 5-1.7 7.6.2 2.2 1.8 2 5.8 1 8.5l1.2-1.2c1.9-1.3 3.7-1.2 5.7-1.8l2-.6v2.7l-.1.2h1.9c1.2-.2 3-.5 3.9.7q.5 1.2 0 2.2a32 32 0 0 0 6.6-2.9c3.2-3 7-3.5 11.3-3.1 2.7.2 5.8 1 8.4 1.6l11.7 3 13.4 3.5c1.2.3 5.7 1.4 7 1.3q1.8-.7 3.7-1c1.9-.1 3-.3 4.8-1m-82.3-2.2-.2.2-1 .9.7-.2zm1.3 1.4v.1l.3.5.2-.3.2-.3zm3 3.3" fill="#1F1A17"/><path id="path8" d="M843.6 598.4c.2 1.4.8 2.7 2.2 2.7.8 0 2-1.6 2.3-2.6s.4-2.4-.2-2.9c-.4-.3-1.8.7-2 0-.3-2-1-1.4-1.7-.6-1.1 1.3-.7 2.6-.6 3.4" fill="#1F1A17"/><path id="path9" d="M921.7 675.2c.3-1.9-.3-4.4 1.3-4.6 2.4-.3 1.5 4.9 4 4.8 1.7 0 1.1-4.1 2.5-3.8 6 1.5 1.8 4.8 6.5 5.7 1.1.3-.4 4.2-.3 4.6l1 4c1.3 5 1.7 10.6-3 13.7-4.2 2.8-21.8 8-19.4 4s-3.1-.5-4-.8c2.3-4.6-2.6 1-2.9-1 0-3 5.5-4.7 8.6-6.3 4-2 7-3.7 6.6-6.7-.2-1.1-1-1.8-1.2-3.7-.4-2.8-.1-6.6-2.8-3.2-.4.5-3.3-8.3-3.5-8.8-1-2.7 1.2-5.1 2.8-2.1 2 3.6 3.8 4.2 3.8 4.2m-81.9-83.5c-.7 1.4-2 2.4-1.9 4.4-7.7 4.4-5.6-5.7-1.2-5.7 2.3.5 5.9 1.2 3.1 1.3m84.7 15.7c3.7-1.6 3.5-.3 8.6-2.1 1.2-.6-2.8 2-2.1 3.8 2.5 1.2 8-3.4 11.2-3.2 0 .2-2.4 2.5-1.1 3.4 3.1-.7 8.8-1.8 11.1-.6 0 1.3-2 1-1.5 2.6l8-.2c-.1.6.8.5 1 .5-.6 1-2.8 1.1-3.2 2.3 2.4 1.8 7-.3 8.9 2.5 2 5 6.1 8.9 10.3 12.6 2.5 3.5 3.6 11.6 4.6 15.9-3.6.2-4.5-4.6-6.7-7-4.2 5.8 6.1 8.9 3 14.1-3.1 5.4.5 7.8-1.1 11.5-.6 1.2-3-3.6-3.7-.5.7 5.3 3.8 8.6 3 14.6-1.4-.5-1.3-3.1-3-2-.6 6 7.5 13 6 18.6-4 3.5-10.3 8.3-14.4 11.8-3.5.3-7.4 0-10.5 1.3 0-4-.5-1.2-2.8-1.2.8-.4 1-1.6 1.2-2.4-.7-.2-2.7.5-3.4 1.2 1-5 8.8-6.3 10.2-9.6.3-.6.7-2 .6-2.6-.4-2.4-3-8.4-6.1-9.3l-1 6.1c-2.5-2-4.6-7-5-10.4.6-3-3-5.4-3-1.2-1-1.4-5.8-15.2-5.8-5 0 9.8-3.5-13.8-6-13.3-2.2 2.6 1 7.6-.2 10.5-.8 1.8-1.7-1.9-3.5-2.7-1 8.3-1 .8-4.3 1.7-.9.2-2 .7-2.8.5-2-.3-3.2-4.5-4.4-2.7-5 8-3-3.4-6.6-1.3-.2.1-.6 3.5-1 3.3-1.4-.8-1.3-1.1-2.6-2.1-2-1.6-1.8 2.1-2.8 2-4.5-.4-5.5 2.3-6-4.2 1.2.4-.2-10.7-3.8-9.4-.3 1.4 1.5 7 .2 7l-.7 6.4c-.7 0-.4 1.9-.5 2.5a28 28 0 0 1-1.9-6.7c-1.2-1-1-3.5-1.7-3.3-1.4 5.6 2.3 8.7 2.3 13.9-3.8-3.3-1 .4-1.4 2l-.2 7.3-2 2c-1.3 2.6.4 7-1.6 8.3-1.2.7-2-1.8-2 1-.8 0 0 8.3-2.9 8.1q-11.4-.3-21 3.4c-.5.2 3.2-1.5.9-2.9-3 2.2-6 3.2-2-1-.6-1-1.6.2-2.6-.2 1.8-4.6 13-2.1 13-9.8.9 0 1.2-5.6-1-5.7-1.3-1.8.8-6-2.2-6.2-.4-1.5-.2-10.4-2.3-9.4-1 .4 0 3.3-1.8 1.6-.8-3.7-3.4-6.4-3.4-10.6-.5-.5-1.7-.2-1.7.7-.4-1.3 0-9.2-1.6-9.4-2.1 3.6-1.1-.5-2.9-2 .3-1.6-.2-3.1 0-4.8-2.3.1-.1-5-3.3-2.6-.8-2.6 1.7-6.5-1.5-7.2-4.2 3.4-2.4-.2-4.8-2.9-5.3 5-1-.2-4.6-.7-1.2.7-.5 2.8-2.1 3.4-.7-.9-.6-2.8-1.4-3.6-1.9-.4-1.4 2-3 2-1.7-5.8-16.5-3.1-15.6-7q5 .2 7.8-3.4c-1-1.6-2.7 0-4.2 0-2 1.8-5-.6-7.5.3-1.6-2 .5-5.6-1.8-6.6 0-.8-.4-1.5-.3-2.3 4-1.8 8.6-3 11.5-6.2 1.1.3 4-6.5 5.1-7.3 2.7-1.8 6.8-5.1 10.3-4.5.3 3.9 2.7 1.9 4.6 1.5-.2-2-2.8-3.1-1.2-5.4 2.5-2.6 5.3-4 8.2-1.9 1.8 1.5 1.2 5.8 0 7.5-3.4 2.6-3.6 4.8 1.2 3.5.7 1.1-1.2 3.5 2.4 3-.1.3-1.3 1.7-.5 2 2.1.9.7.1 1 2 1.6 1.7 2.2-1 3.3-1.5-3.5-1.3 2.1-3.7.3-4.2l-3.4-1c1.7-2.3.9-2.9-1.2-2.9 1.2-2.2 4.2-2 6.2-2.6 0 .7-1.6 1-1.6 2.2 6.3 1 10.2-2.3 5.5 3.5 2.3.8 9.4-2.7 11-3.7q1.4-1.6 4.2-2.4v5.4c.5 2.2 2.6 4.2 6.3 4.2h39v-.7q1.5.3 1.8 0m-95.6 6c.5 2.8 1.1 2.1-4 1-1-.3 2-6.9 4-1m9 18.6c1.3.2 2.8.2 3.5 1.5q.5.5.7-.3c0-2.7 4 1 4.1-2.8 0-1.7 1.2-1.3 2.6-1.3q2 .1 2.6-2c-1.6.6-2.2.7-4.3.4-1-.2-2.3-.7-2.3.9 0 .8.4 2.2 0 2.5-.3.1-1.3 0-1.7-1.1-.3-.7-1.3-1.7-1.6-.7-.3 1.2-.3 2.2-2.5 1.7-.2 0-1.2-.8-1.5-1-1.6-.8-2.2 1.7.4 2.2m15.5 24.7c-.4 1.8-2.4 3-1.1 5 3.6-.8 3-1.7 2.6 1.3 0 .2-1.5 3.6-.5 3.6 6.2 0-1.5 7.3-1.4 6.6a3 3 0 0 0-.5-2c-1.6 1.9-4.1 2.6-6.4 3.3.2-.2 1.4-3 .5-2.8l-1.5.3-4.6 3.5c-.9.7 2-6.1-3.3.5-.5 4.4-5.2 5.2-5.7 9.6-.6 1.1-.6 2.5-2.3 2.6.5-1.1-1-2.6-1.3-3.3-1.1.2-.8 2.3-1.3 3.3-1-.5 0-3.7-2.2-2.8-1.1.6 0 1.8-1.1 2.3.2-1.3-2-3.3-1.6-5.9.8-.5.7-1.9 1-2.8.8-3 3-5.2 3.9-8.2.6-1.3 2-2 1.7-3.8 2.5-3.3 3.2-8 7.3-9.8 2.2-2.1 6.2-3 8.5-4.8 2.4-1.6 4-2.3 6.3-3.8 2.4 1 .8 3.9 1 5.6 0 1-1.1 3 2 2.5" fill="#E1DFE2"/><path id="path10" d="M919 556.4h3.7V608h-39c-3.7 0-5.8-2-6.2-4.2l-.1-1V552c.2-2.3 2.4-4.6 6.7-4.8h35.4l-.8 1.3a7 7 0 0 0 0 7.5z" fill="#1F1A17"/><path id="path11" d="M887.7 557.2h34.2v50h-34.2zm19.5 14.8h3v3h-3v2.7h6v3h-6v6.3l3.4 2v3.2l-3.4-2v5.4H904v-7.1l-3.5-2v-3.3l3.5 2v-4.5h-6v-3h6V575h-3v-3h3.1v-2.9h3zm-2.3-2h1.4v2.8h3.2v1.4h-3.2v4.3h6.1v1.4h-6v7.5l3.4 2v1.5l-3.5-2v5.9H905V588l-3.5-2v-1.4l3.5 2v-6.7h-6v-1.4h6v-4.3h-3.1v-1.4h3.1zm-13-8.6h25.7V603h-25.7zm.9.8h3.7l-3.7 3.8zm4.8 0H912l4.9 5v30l-5 4.9h-14.2l-4.8-4.9v-30zm15.4 0h3.8v3.8zm3.8 36.2v3.7H913zm-20.3 3.7h-3.7v-3.7z" fill="#C0A062"/><path id="path12" d="M884.2 548H918q-.7 1-1 2.4h-27.7v.7H917v2.6h-25.5v.7H917q.3 1 .9 2h-33.8c-7.6 0-7.6-8.5 0-8.5" fill="#FFFFFF"/><path id="path13" d="m895.8 529.1-5.4-14 1.7.4a32 32 0 0 0 15.3 0l1.7-.4-5.3 14L917 524l-.5 1.8q-1.8 7.5 0 15.2l.5 1.8-12.4-5 4.6 11.7-1.8-.4q-7.6-1.8-15.3 0l-1.7.4 4.6-11.6-12.5 4.9.5-1.8q1.8-7.5 0-15.2l-.5-1.8z" fill="#1F1A17"/><path id="path14" d="m883.9 525.5 13.5 5.3-5.5-14.4a33 33 0 0 0 15.7 0l-5.5 14.4 13.5-5.3a32 32 0 0 0 0 15.7l-12.7-5 4.7 11.9a33 33 0 0 0-15.7 0l4.7-12-12.7 5a32 32 0 0 0 0-15.6" fill="#E1DFE2"/><path id="path15" d="M878.2 554.7v1.7l.1.2q.4 1.5 1.7 2.4 1.6 1 3.6 1l3.2-.1v-2.8h-2.7q-4.4-.2-6-2.4m6.2 33h.7v10.7h-.7zm-2.5-.7h.7v10.7h-.7zm-2.4-.7h.6v10.6h-.6zm5-19.3h.6v10.7h-.7zm-2.6-.6h.7V577h-.7zm-2.4-.8h.6v10.7h-.6zm-1.3-7.4v1.6l.1.2q.4 1.6 1.7 2.4 1.6 1 3.6 1h3.2v-2.8h-3.2q-2.1 0-4-1-.9-.5-1.4-1.4m0 3.4v14.7l.1.8q.4 1.6 1.7 2.4 1.6 1 3.6 1h3.2V564h-3.2q-2.1 0-4-1-.9-.6-1.4-1.5m0 17.1v1.7l.1.2q.4 1.5 1.7 2.4 1.6 1 3.6 1h3.2v-2.8h-3.2q-2.1 0-4-1-.9-.6-1.4-1.5m0 3.5v13l.1 1.6q.4 1.6 1.7 2.4 1.6 1 3.6 1h3.2v-15.5h-3.2q-2.1 0-4-1.1-.9-.5-1.4-1.4m0 16.2v1.7l.1.2q.4 1.5 1.7 2.4 1.6 1 3.6 1h3.2v-2.8h-3.2q-2.1 0-4-1-.9-.6-1.4-1.5m0 3.5v1.8c.6 2.5 3.2 3.5 5.5 3.5h3.1v-2.8h-3.2q-2.1 0-4-1.1-.9-.6-1.4-1.4" fill="#C0A062"/><path id="path16" d="M972.6 389.6a29 29 0 0 1 4.7 1.4c3.6 2 5.2 5.5 0 6.7q-3.5.8-6.4 3a31 31 0 0 0-8.2 10.6 103 103 0 0 0-5.6 13.3c-2 5.7-3.8 11.7-6.3 17.3a13 13 0 0 1-6 6.7 38 38 0 0 1-15.8 3.2q-30 1.2-60.3 0a38 38 0 0 1-15.7-3.2 13 13 0 0 1-6.1-6.7c-2.5-5.6-4.3-11.6-6.3-17.3q-2.3-6.9-5.5-13.3c-2-4-4.7-8-8.3-10.6q-2.9-2.2-6.5-3c-1.3-.3-3-1-3.2-2.6-.3-2.3 3.2-4.3 5.1-4.8l3-.7a57 57 0 0 1-6.8-30 39 39 0 0 1 10.8-24.6c7-7 16-10.7 25.8-11.1 9.6-.5 19 2 27.7 6v-.8c0-7.4 5-13.7 12-15.6v-7.4h-6.1l-5.2 8H879v-24.4h4.3l5.2 8h6v-8.9l-10-6.5v-5H913v5l-10 6.5v9h6l5.2-8h4.3V314h-4.3l-5.2-8h-6v7.4a16 16 0 0 1 12 16.4c8.6-4 18-6.5 27.6-6s18.9 4.1 25.8 11.1c6.5 6.7 10 15.4 10.8 24.7.8 10.4-2 20.7-6.8 29.9" fill="#1F1A17"/><path id="path17" d="M971.7 389.4a56 56 0 0 0 6.8-29.7c-.7-9-4.2-17.6-10.6-24.1a38 38 0 0 0-25.3-11c-9.3-.4-18.5 2-27 6l-10.2 39.2q1.5.7 2.9 1.9l10.1-39.5c42.3-18.3 71.7 17.6 50.4 57zm-79.4-19.6L882 330.5a57 57 0 0 0-27-5.8c-9.5.4-18.5 4-25.2 10.9a38 38 0 0 0-10.6 24.1c-.8 10.4 2 20.6 6.8 29.7l2.9-.2c-21.3-39.4 8.1-75.3 50.4-57l10.1 39.5q1.5-1.2 3-2" fill="#7A6842"/><ellipse id="ellipse17" cx="874.13" cy="321.29" rx="5.6977" ry="5.6799" fill="#1F1A17"/><ellipse id="ellipse18" cx="874.13" cy="321.29" rx="4.892" ry="4.8767" fill="#92C6C7"/><ellipse id="ellipse19" cx="856.98" cy="318.86" rx="5.6977" ry="5.6799" fill="#1F1A17"/><ellipse id="ellipse20" cx="856.98" cy="318.86" rx="4.892" ry="4.8767" fill="#92C6C7"/><ellipse id="ellipse21" cx="838.5" cy="322.28" rx="5.6977" ry="5.6799" fill="#1F1A17"/><ellipse id="ellipse22" cx="838.5" cy="322.28" rx="4.892" ry="4.8767" fill="#92C6C7"/><ellipse id="ellipse23" cx="823.62" cy="333.38" rx="5.6977" ry="5.6799" fill="#1F1A17"/><ellipse id="ellipse24" cx="823.62" cy="333.38" rx="4.892" ry="4.8767" fill="#92C6C7"/><ellipse id="ellipse25" cx="815.04" cy="349.7" rx="5.6977" ry="5.6799" fill="#1F1A17"/><ellipse id="ellipse26" cx="815.04" cy="349.7" rx="4.892" ry="4.8767" fill="#92C6C7"/><ellipse id="ellipse27" cx="923.58" cy="321.29" rx="5.6977" ry="5.6799" fill="#1F1A17"/><ellipse id="ellipse28" cx="923.58" cy="321.29" rx="4.892" ry="4.8767" fill="#92C6C7"/><ellipse id="ellipse29" cx="940.73" cy="318.86" rx="5.6977" ry="5.6799" fill="#1F1A17"/><ellipse id="ellipse30" cx="940.73" cy="318.86" rx="4.892" ry="4.8767" fill="#92C6C7"/><ellipse id="ellipse31" cx="959.21" cy="322.28" rx="5.6977" ry="5.6799" fill="#1F1A17"/><ellipse id="ellipse32" cx="959.21" cy="322.28" rx="4.892" ry="4.8767" fill="#92C6C7"/><ellipse id="ellipse33" cx="974.08" cy="333.38" rx="5.6977" ry="5.6799" fill="#1F1A17"/><ellipse id="ellipse34" cx="974.08" cy="333.38" rx="4.892" ry="4.8767" fill="#92C6C7"/><ellipse id="ellipse35" cx="982.66" cy="349.7" rx="5.6977" ry="5.6799" fill="#1F1A17"/><ellipse id="ellipse36" cx="982.66" cy="349.7" rx="4.892" ry="4.8767" fill="#92C6C7"/><path id="path36" d="m888.7 372.3-10.1-39.5a51 51 0 0 0-26.7-4.3 33 33 0 0 0-29.2 31.5 53 53 0 0 0 7.2 29.2q5.1 0 9.5 3.2 4.1 3.1 6.6 7.6c0-6.4.9-13.5 3.3-19.1 1.8-4 4.7-8.1 9.4-8.9 4.5-.7 8.7 2.3 11.6 5.5 3.9 4.2 6.7 9.9 8.7 15.4a35 35 0 0 1 9.7-20.6" fill="#DA251D"/><path id="path37" d="m909 372.3 10.1-39.5a51 51 0 0 1 26.7-4.3A33 33 0 0 1 975 360c.8 10-2.2 20-7 28.9l-.2.3q-5.1 0-9.5 3.2-4.1 3.1-6.5 7.6c-.2-6.4-1-13.5-3.4-19.1-1.7-4-4.7-8.1-9.4-8.9-4.5-.7-8.7 2.3-11.6 5.5a46 46 0 0 0-8.6 15.4 35 35 0 0 0-9.8-20.6" fill="#DA251D"/><path id="path38" d="M899.2 313.8a15.4 15.4 0 0 1 14 21.1 4 4 0 0 0-3.8-5.5 4 4 0 1 0 3.7 5.6 15.4 15.4 0 0 1-28.5 0 4 4 0 0 0 7.8-1.6 4 4 0 1 0-7.8 1.5q-1.1-2.7-1.1-5.7c0-8.4 6.7-15.2 15-15.4a4 4 0 1 0 .7 0m-.3 8a7.3 7.3 0 1 1 0 14.6 7.3 7.3 0 0 1 0-14.5" fill="#C0A062"/><path id="path39" d="m884.5 336.6 3.2 12.5v-.8a4.1 4.1 0 1 1 .2 1.4l5.2 19.7q5.8-2.6 11.5 0l5.2-19.7a4.1 4.1 0 0 1-8-1.4 4.1 4.1 0 1 1 8.2.8l3.2-12.5a16.2 16.2 0 0 1-28.7 0m14.4 13.9a8.2 8.2 0 1 1 0 16.4 8.2 8.2 0 0 1 0-16.4" fill="#C0A062"/><path id="path40" d="M820.5 397c3.6.8 9.5 2.8 15.3 13.9 4.8 9.2 8 22 11.8 30.7 2.1 4.7 6.2 8.9 21.1 9.4q30.1 1.2 60.3 0c14.9-.5 19-4.7 21-9.4 3.9-8.7 7.1-21.5 12-30.7 5.7-11 11.6-13.1 15.2-14 5.4-1.3 1.3-4.9-2-5.8-14.7-4.4-21.1 5.5-24.3 12.2.8-39.2-22.3-39.8-32.5-6.9-4-36.6-35.2-36.6-39.1 0-10.2-33-33.3-32.3-32.5 6.9-3.2-6.7-9.5-16.6-24.4-12.2-3.2 1-7.3 4.5-1.9 5.8" fill="#FFFFFF"/><path id="path41" d="M898.9 429.4c10.7 0 22.7 1 33 4.2 4.3 1.3 14 4.8 14 10.5 0 1.7-.7 2.1-2 2.8a36 36 0 0 1-15 3q-30 1.2-60.1 0a35 35 0 0 1-15-3c-1.3-.7-2-1.1-2-2.8 0-5.7 9.7-9.2 14-10.5 10.3-3.1 22.3-4.2 33-4.2" fill="#1F1A17"/><path id="path42" d="M892.3 383.3q2 .1 2.4 2h3.8v-3c-4.1-.6-1-7 2-4 1.4 1.4.6 3.8-1.3 4v3h3.8c.7-4.1 7-1 4 2a2.4 2.4 0 0 1-4-1.3h-3l8.7 15.1-.6.3-8.9-15.2v4.5l6.8 11.8-.6.3-6.2-10.6v12.3h-.7v-12.3l-6.2 10.6-.6-.3 6.8-11.8v-4.5l-8.9 15.3-.6-.4 8.8-15.1h-3.1c-.7 4-7 1-4-2q.6-.7 1.6-.7m7.7-4.4c-2.2-2.3-4.3 2.8-1.1 2.8 1.4 0 2.2-1.8 1.1-2.8m6.5 5.6c-2.2-2.3-4.3 2.8-1.1 2.8 1.5 0 2.2-1.8 1.1-2.8m-13 0c-2.3-2.3-4.3 2.8-1.2 2.8 1.5 0 2.2-1.8 1.2-2.8" fill="#1F1A17" fill-rule="nonzero"/><path id="path43" d="M909.7 407.4c1.2 0 2.1 1 2.2 2.1l3.8.3.2-3c-4-.8-.7-7 2.3-3.8 1.3 1.4.4 3.8-1.6 4l-.2 2.9 3.8.2c1-4 7.1-.7 3.9 2.3-1.3 1.3-3.8.4-4-1.6l-3-.2 7.7 15.7-.7.3-7.7-15.9-.4 4.6 6 12.2-.6.3-5.5-11-.8 12.2h-.7l.8-12.3-6.9 10.2-.6-.4 7.6-11.3.4-4.5-10 14.6-.6-.4 9.8-14.4-3-.2c-1 3.9-7.1.6-4-2.3q.8-.7 1.8-.6m8-3.9c-2.1-2.4-4.6 2.5-1.4 2.7 1.5.1 2.3-1.6 1.4-2.7m6.1 6c-2.1-2.3-4.5 2.6-1.4 2.8 1.5 0 2.4-1.6 1.4-2.7m-13-.9c-2.1-2.3-4.6 2.6-1.4 2.8 1.5 0 2.4-1.6 1.4-2.8" fill="#1F1A17" fill-rule="nonzero"/><path id="path44" d="M888 407.4c-1.2 0-2.1 1-2.2 2.1l-3.8.3-.2-3c4-.8.7-7-2.3-3.8-1.3 1.4-.4 3.8 1.6 4l.2 2.9-3.8.2c-1-4-7-.7-3.9 2.3 1.3 1.3 3.8.4 4-1.6l3-.2-7.7 15.7.7.3 7.7-15.9.4 4.6-6 12.2.6.3 5.5-11 .8 12.2h.7l-.8-12.3 6.9 10.2.6-.4-7.6-11.3-.4-4.5 10 14.6.6-.4-9.8-14.4 3-.2c1 3.9 7.1.6 4-2.3q-.7-.7-1.8-.6m-8-3.9c2.1-2.4 4.6 2.5 1.4 2.7a1.7 1.7 0 0 1-1.4-2.7m-6.1 6c2.1-2.3 4.5 2.6 1.4 2.8a1.7 1.7 0 0 1-1.4-2.7m13-.9c2.1-2.3 4.6 2.6 1.4 2.8a1.7 1.7 0 0 1-1.4-2.8" fill="#1F1A17" fill-rule="nonzero"/><path id="path45" d="M939.4 411.3c1 .4 1.7 1.6 1.5 2.7l3.7 1.2 1-2.7c-3.4-1.7.4-7 3.1-3.2.8 1.2-.2 3.8-2.5 3.4l-1 2.8 3.6 1.2c1.4-2.5 5.3-.9 4.4 1.9-1 2.7-5.1 1.6-4.6-1.2l-3-1 3.5 17.1-.8.1-3.4-17.3-1.4 4.3 2.6 13.3-.7.1-2.4-12-4 11.6-.7-.2 4-11.6-9.3 8-.5-.5 10.3-9 1.5-4.2-13.4 11.5-.5-.5 13.2-11.4-2.9-1c-1.9 3.6-7-1.3-3.1-3.2q.8-.5 1.8-.2m8.7-1.6c-1.4-2.9-5 1.2-2 2.2 1.4.5 2.6-1 2-2.2m4.3 7.4c-1.4-2.9-5 1.2-2 2.3 1.4.4 2.7-1 2-2.3m-12.3-4.3c-1.4-2.8-5 1.3-2 2.3 1.4.5 2.6-1 2-2.3" fill="#1F1A17" fill-rule="nonzero"/><path id="path46" d="M858.3 411.3a2.4 2.4 0 0 0-1.5 2.7l-3.7 1.2-1-2.7c3.4-1.7-.4-7-3.1-3.2-.8 1.2.2 3.8 2.5 3.4l1 2.8-3.6 1.2c-1.4-2.5-5.3-.9-4.4 1.9 1 2.7 5.1 1.6 4.6-1.2l3-1-3.5 17.1.8.1 3.4-17.3 1.4 4.3-2.6 13.3.7.1 2.4-12 4 11.6.7-.2-4-11.6 9.3 8 .5-.5-10.3-9-1.5-4.2 13.4 11.5.5-.5-13.2-11.4 2.9-1c1.9 3.6 7-1.3 3.1-3.2q-.8-.5-1.8-.2m-8.7-1.6c1.4-2.9 5 1.2 2 2.2-1.4.5-2.6-1-2-2.2m-4.3 7.4c1.4-2.9 5 1.2 2 2.3-1.4.4-2.7-1-2-2.3m12.3-4.3c1.4-2.8 5 1.3 2 2.3-1.4.5-2.6-1-2-2.3" fill="#1F1A17" fill-rule="nonzero"/><path id="path47" d="M931 386.2c1 .3 1.9 1.3 1.8 2.5l3.7.9.7-2.9c-2.7-1-1.5-5.1 1.4-4.5 2.8.7 2.1 4.9-.7 4.7l-.7 2.8 3.7.9c1-2.7 5.2-1.4 4.5 1.4-.6 2.8-4.9 2.1-4.6-.7l-3-.7 5 16.7-.6.1-5.2-16.8-1 4.4 4 13-.7.2-3.7-11.8-2.7 12-.7-.2 2.7-12-8.4 9-.5-.4 9.3-10 1-4.4-12.1 13-.5-.6 12-12.7-3-.7c-1.2 2.7-5.3 1.4-4.6-1.4.3-1.3 1.6-2 2.8-1.8m8.4-2.6c-1.7-2.7-4.8 1.8-1.7 2.5 1.4.4 2.5-1.2 1.7-2.5m5.1 7c-1.7-2.7-4.9 1.7-1.8 2.5 1.5.3 2.6-1.3 1.8-2.5m-12.7-3c-1.7-2.6-4.9 1.8-1.8 2.5 1.5.4 2.6-1.2 1.8-2.5" fill="#1F1A17" fill-rule="nonzero"/><path id="path48" d="M866.8 386.2q-2 .6-1.9 2.5l-3.7.9-.6-2.9c2.6-1 1.4-5.1-1.5-4.5-2.8.7-2.1 4.9.8 4.7l.6 2.8-3.7.9c-1.4-3.6-7 0-3.5 2.9 1.2.9 3.8 0 3.7-2.2l3-.7-5.2 16.7.7.1 5.2-16.8 1 4.4-4 13 .8.2 3.6-11.8 2.7 12 .7-.2-2.7-12 8.4 9 .6-.4-9.4-10-1-4.4 12.1 13 .5-.6-12-12.7 3.1-.7c1.4 3.6 7 0 3.5-2.9-.7-.5-1.8-.3-1.8-.3m-8.5-2.6c1.7-2.7 4.8 1.8 1.8 2.5a1.7 1.7 0 0 1-1.8-2.5m-5.1 7c1.7-2.7 4.9 1.7 1.8 2.5a1.7 1.7 0 0 1-1.8-2.5m12.7-3c1.7-2.6 4.9 1.8 1.8 2.5a1.7 1.7 0 0 1-1.8-2.5" fill="#1F1A17" fill-rule="nonzero"/><path id="path49" d="M963.5 397.2q1.6 1 1.1 2.8l3.4 1.8 1.4-2.6c-2.8-2 1.1-6.8 3.7-2.5 1 1.5-1.9 3.3-3 2.9-1.3 2.3-.6 1-2.5 3l-15 9.3-.4-.6 14.8-9.2-2.7-1.4c-2 2.7-6.8-1.2-2.6-3.7q.9-.3 1.8.2M963 409l-8.6 5.4-.4-.6 9.9-6.1zm9.5-12.1c-1-3-5.2.4-2.4 2 1.3.6 2.8-.6 2.4-2m-8.4 1.9c-1-3-5.2.4-2.4 2 1.3.6 2.8-.6 2.4-2" fill="#1F1A17" fill-rule="nonzero"/><path id="path50" d="M834.2 397.2q-1.6 1-1.1 2.8l-3.4 1.8-1.4-2.6c2.8-2-1.1-6.8-3.7-2.5-1 1.5 1.9 3.3 3 2.9 1.3 2.3.6 1 2.5 3l15 9.3.4-.6-14.8-9.2 2.7-1.4c1.7 2.3 5.4 0 4-2.6-1-2-3.2-1-3.2-1m.6 11.8 8.6 5.4.4-.6-9.9-6.1zm-9.5-12.1c1-3 5.2.4 2.4 2-1.3.6-2.8-.6-2.4-2m8.4 1.9c1-3 5.2.4 2.4 2-1.3.6-2.8-.6-2.4-2" fill="#1F1A17" fill-rule="nonzero"/><path id="path51" d="M898.9 430c25.6 0 46.5 6.3 46.5 14 0 1.5-.6 1.8-1.8 2.5a36 36 0 0 1-14.7 3q-30 1-60.1 0a36 36 0 0 1-14.7-3c-1.2-.7-1.8-1-1.8-2.4 0-7.8 20.9-14.1 46.6-14.1" fill="#DA251D"/><ellipse id="ellipse51" cx="813.26" cy="368.61" rx="5.6977" ry="5.6799" fill="#1F1A17"/><ellipse id="ellipse52" cx="813.26" cy="368.61" rx="4.892" ry="4.8767" fill="#92C6C7"/><ellipse id="ellipse53" cx="817.94" cy="386.55" rx="5.6977" ry="5.6799" fill="#1F1A17"/><ellipse id="ellipse54" cx="817.94" cy="386.55" rx="4.892" ry="4.8767" fill="#92C6C7"/><ellipse id="ellipse55" cx="984.44" cy="368.61" rx="5.6977" ry="5.6799" fill="#1F1A17"/><ellipse id="ellipse56" cx="984.44" cy="368.61" rx="4.892" ry="4.8767" fill="#92C6C7"/><ellipse id="ellipse57" cx="979.76" cy="386.55" rx="5.6977" ry="5.6799" fill="#1F1A17"/><ellipse id="ellipse58" cx="979.76" cy="386.55" rx="4.892" ry="4.8767" fill="#92C6C7"/><ellipse id="ellipse59" cx="898.85" cy="329.15" rx="6.6163" ry="6.5956" fill="#DA251D"/><ellipse id="ellipse60" cx="898.85" cy="317.83" rx="3.3863" ry="3.3757" fill="#92C6C7"/><ellipse id="ellipse61" cx="909.35" cy="333.44" rx="3.3863" ry="3.3757" fill="#92C6C7"/><ellipse id="ellipse62" cx="888.35" cy="333.44" rx="3.3863" ry="3.3757" fill="#92C6C7"/><ellipse id="ellipse63" cx="898.85" cy="358.69" rx="7.5848" ry="7.5611" fill="#DA251D"/><ellipse id="ellipse64" cx="905.88" cy="348.34" rx="3.4782" ry="3.4673" fill="#92C6C7"/><ellipse id="ellipse65" cx="891.82" cy="348.34" rx="3.4782" ry="3.4673" fill="#92C6C7"/><path id="path65" d="M917.8 290.5h-3l-5.2 8h-7.4v-10.1l10-6.5v-3.7h-26.8v3.7l10 6.5v10.1h-7.3l-5.2-8h-3v22.8h3l5.2-8h7.4v8a16 16 0 0 1 6.7 0v-8h7.4l5.2 8h3z" fill="#C0A062"/></g><!-- app4joy --></svg>