<svg id="svg6" width="160" height="106" clip-rule="evenodd" fill-rule="evenodd" image-rendering="optimizeQuality" shape-rendering="geometricPrecision" text-rendering="geometricPrecision" viewBox="0 0 160 106" xmlns="http://www.w3.org/2000/svg"><defs id="defs1"><style id="style1">.str2{stroke:#1F1A17;stroke-width:0.0762}.fil4{fill:none}</style></defs><g id="g6"><path id="path1" d="M0-.4h160v106.8H0z" fill="#fff"/><path id="path2" d="M.1-.4v85.6L140.5-.4z" fill="#da251d" stroke="#da251d" stroke-width=".076627"/><path id="path3" d="M21.6 106.4 160 17.7v88.7z" fill="#0093dd" stroke="#0093dd" stroke-width=".076627"/></g><g id="g5"><path id="path4" d="M13.7 8.1q.4.4.5.9.8.2 1.5.9.8-.1 1.5.3l1.7.7h2.7q.8 0 1.5.3a6 6 0 0 0 2.4 0c.7 0 3 .3 3.5 1l.5.6q.2 0 .3.4c.7.6 2.3 1.4 3 .4q.2-.3 0-1c-.7-1.5-3.2-1.8-4.7-1.6h-1.7c-1 0-2.5.2-3.4-.2q-.8-.4-1.7-.6c-1-.4-.8-1.7.2-1.7 1.5-.6 3 1 4 .7l2.2-.2h2.5c2 .5 4.6 1.3 5 3.7.3 2-2 4-4 3.3 0 .7.8 2.5 1.6 2.8.4.2 1 0 1.3.4l.9 2.2c0 .4-1 1.7-1.1 2.2h-4.3c-.4-.5.4-1.8.3-1.6q.5-.6 1.2-.9-.2-.3-.5-.3l-2-1.3v.3c-.6.6-.4 1.6-1 2.1-1 .3-1.2 1.2-1.7 1.7H18q-.1-1.8 1.6-2.4c-.5-.5-1-1.5-1.5-1.7-.4.5-.4 1-.8 1.5q-.8.2-1.3.7c-1 .5-1 1.3-1.2 2h-5q.2-2 2.3-2.5c.3-.7 1-1 1.4-1.9l.6-2.1c-1-.4-2-1.5-2.5-2.5q-.5-.2-.8-.6c-.5 0-1.2-.4-1.5-.2l-1-.1c-.6.2-1-1.6-.4-2l1-.2c-.6-.1-1.2.4-1.7-.3-.2-.2.1-.5 0-.8-.6 0-.5-1 0-1.2l.6-.2.6-.3c.9 0 1.4-1 2.3-.8H12c.4-.2 1.3-.4 1.6.1m10.6 9.4c-.2.7.2 2 .4 2.6q-.5.6-1.2 1l-.9.3c0-.6.2-1.3-.4-1.6l-.9-1.7c1.2 0 2-.5 3-.6" fill="#1f1a17"/><path id="path5" d="M14.2 20.6q-.6.2-.5-.3zM14 20l1 .5c0 .3-1 0-1.1-.2zm11.8-.2h.4q-.4.3-.9.2v-.2q.2-.2.5 0m-5.8-.3-.5.5q-.2 0-.2-.2h.3q.1-.3.4-.4m-5.8 0h.6l1.3.7-1.7-.4q-.4 0-.3-.5zm12.6 0c-.5 0-1.4 0-1.7-.3q.8 0 1.7.3m3.7-.5c-.1.2-1 .6-1.1.4zm-10.4 0c.1.1-.9.5-1 .5l-.3-.2h.4q.5 0 1-.4m-5 .2c.2 0 1 .5 1.2.7l-2-.8v-.2q.5 0 .8.3m4.4-.5-.9.2v.1q-.5 0-.7-.2h.5zm10.8-.3-.5.2-.5.4h-.6zm-4.5.1c.3 0 1.2.2 1.4.4-.7-.3-1.6.1-2.2-.3-.2-.4.7-.1.8-.1M15.5 18l1 .7-2-.6c0-.6.8-.1 1 0m10.1-.4 1.3.4-1.6-.2s-.4-.1-.2-.3zm-10 0 .7.4 1.3 1-.5.6-.3 1c-1 .1-2.4 1.3-2.5 2.4h-4c0-.6 1-1 1.4-1l.6-.3q1-1 1.7-2.2l.5-2c0-.3 1 .1 1.2.1m14.5-.2-.5.2-1 .6-.4-.2q.9-.5 2-.6m-10.5-.1-.8.3c-.4.1-1 1.1-1.4.6l-.2-.1q.5 0 1-.3.7-.5 1.4-.5m10-.4q-.3 0-.6.3c-.4 0-.6.5-1 .5 0 0-.5 0-.5-.2.5.1.7-.4 1-.4zm-10.6-.2-.5.1-1.3 1q-.5 0-.7-.2l1.4-.8zm10-.3c-1-.1-1.2 1-2 .7h-.4c.2-.2.5 0 .7-.3q.7-.5 1.7-.5M18 16.2l-.5.2-.8.8H16c0-.2 1.8-1 2-1.1m-2.1-1c-.2.5-.4 1.3-.7 1.5h-.4l.7-1zm-.8-.4-.2.8c-.3 0-.6.6-.7.8q-.4 0-.5-.2c.5 0 1-1.3 1.5-1.7zm11.9.6c.6 0 1.7 0 2 .5h-2l-.8-.4-.6-1.1c.5.6.6.8 1.4 1M14.2 14c0 .5-.8 1.8-1.4 1.2q1-.4 1.3-1.2m4.3-.1.6.6c.4.4 0 .8 0 1q-.2-.2-.2-.5c.2 0-.4-1-.4-1.1m10-.4q0 .5.3 1-.8-.6-1-1.6.5.2.7.6m-6-.7.5 1.4c0 .6.7 1 .4 1.8q0-.8-.6-1.3c-.3-.4-.2-1.4-.3-2m-2.4 0q0 .5.4.8.3 1 .2 2l-.2.6v-1.2l-.5-2.3zm7.2 0q.3 1 .7 1.6l-.8-.5-.9-1.3q.5 0 1 .4m-1.7-.3q.4 0 .5.5c0 .2.3 1.3.7 1.3l.6.6c-1.2-.6-1.6-1-2-2.1l-.4-.4zm-1.3-.1q.3 0 .5.3s.3 2 .2 2.3q0-.7-.5-1 0-.8-.3-1.3l-.3-.4zm-1 0c.4 0 .6 1 .7 1.5l.4.7.1 1c-.3-1-1-1.6-1-2.4-.2-.3-.5-1-.8-1h.7m-12.1.8h-.6q.6-.4 1-1.1 0 .7-.4 1m7.5-1.3c1.2.2 4-.6 3.7 1.4-.3.6.4 1 .2 1.7l-.5-1c-.3-.3 0-.8 0-1.3q-.2-.4-.5-.4c-.8.7.2 1.8-.2 2.5v.8V14l-1-1.8-.4-.2c-.7.9.4 1.7 0 2.7q0-.5-.3-1c-.5-.4 0-1.5-.8-1.7-.4.2-.3 1 0 1.4-.4 0-.5-1.4-.6-1.7q-.2 0-.3-.2zm-5-.1c-.1.5-1.6 3-2.3 2q1.4-.5 2.3-2m3.6-.3c.7.5.4.7.2 1.5l.2.9q-.1.8-.5 1.4c0 .5-.6.7-1 1.2L17 15l.3-1.2c0-.6-.7-.3-1 0l.3-.4q.7-1 .6-2m-.5-.3.2.3v.2l-1 1.6c0 .2-.2.9-.5 1l.8-2q.3-.7-.2-1c-.2.8-.7 2-1.3 2.7 0-.2.6-1.5.5-1.8q-.2 0-.4.3c-.1-.3.4-1.3.5-1.5q.7-.3 1.4.2m-7-.1q.7.6 0 1.4c0 .4-1 .2-1.4.2q.9 0 1.4-.6l-.2-1-.6-.2c-.2-.2.7 0 .8.2m.8-.4q.5.9-.3 1.6c-.1-.2.5-1-.1-1.4q-.4-.4-1-.3v-.1c.6 0 .9-.3 1.4.2m4.3-.1c.2.3 0 1.2-.3 1.5v-.2c-.1.2-.8 1.3-1 1.3 0-.3.6-1.3.6-1.7 0-.2.2-1 0-1.3zm-3.2-.5.4.9c0 .3 0 1.3-.2 1.5-.1-.2.2-1.2-.2-1.4l-.5.7H11l.2-.7q0-.6.2-1.1zm2.2 0-.4 1.3c-.6.4-1 1.7-1.7 1.8.8-.6.7-1.4 1-2.2.4-.4.5-1 .5-.1.3-.2 0-.7.4-1zm-4.6-.1-1.4.8v-.2c.5-.2.7-1 1.3-.7m3.5-.7q0 .5-.6.8c0-.4.4-.6 0-1 0-.3.5-.1.6.2m.5 0q.2.8-.4 1.2-.2 0-.3-.2.4-.7.3-1.5zm-.2-.9q.4.4.5.9c.4.3.8.2 1 .6l.8.5h1.2c1.7 1.3 3 1 5 1q1 0 1.8.4h2l2 .4c.9 0 1 .8 1.7 1v.2q1.5 1.4 3.3 1c.2 0 .8-.2.9-.6.3-.2.2-1.1 0-1.4 0-.8-1.6-1.6-2.3-2l-2-.1c-1.8-.1-4.6.6-6-.2l-1.9-.7c.1-.4 1.1-.4 1.4-.4 1 .3 2 1 3 .7a18 18 0 0 1 5 0c1.5.4 3.4 1 4 2.7.4 1.8-1.5 3.4-3.2 3q-.7 0-1.2-.4 0 .6.4 1.2.3 1.6 1.5 2.7c0 .4 1.3.6 1.6.7q0 1 .7 2-.5.6-.8 1.4h-3.4c0-1 1-1.5 1.9-1.5l-1-1-2-1.4-.3-.4-1.2-1c-1.9-1.2-3.3-1-5.3-.4h-1.3l-.3-.5q0-.3-.3-.3l-1.2-1 .2.5q.2.3.8.6h.2q.1.9.4 1.6c.5.7.6 1.6 1.3 2.2 0 .5-.2 2 .1 2.3q.2 0 .3-.2c.2-.4.8-1 1.3-.8.2 0 1.5-1 1.8-1.3l-.6-1.4c0-.5-.3-1.1 0-1.6-.2-.5 2.4.5 2.5.5l1 1-.4.4a5 5 0 0 0-.7 2q-.4.4-.7.4l-1 1.4h-7.1c.4-1.3 1-1.2 1.5-1.4 0-.2.3-.7 0-.8q-.5-.8-1.2-1.4-.3-.4-.7-.6-1.1-.5-1.8-1.4l-2.2-1q-1-.6-1.7-1.4l-.4-.8q-.6-.2-1-.7-.6 0-1.1-.3.5 0 .7-.6h-.2c-.4.4-1.8 1-2.3.3v-.6H8v-.3c.2 0 0 .4.3.3.1.2 1-.2 1-.5.4-1.3-1.3-.6-1.9-.8v-.6q.6-.2.5-1c.9-.4 2 .4 2.9.4q0-.6-.4-.6H9.3s.3-.5.5-.5c.2-.2 2 0 2.2 0l.6-.3zM7.6 9.5c0 .3-.3.8-.6.5v-.2q.2-.2.6-.1m1 1.8-.2-.1v.4l-.3-.3q-.2 0-.2.3l-.2-.4zm.6.4q-.1.4-.8.5 0-.5.8-.5" fill="#fff500"/></g><!-- app4joy --></svg>