<svg width="2751" height="1834" id="svg50" viewBox="0 0 2751 1834" xmlns:xlink="http://www.w3.org/1999/xlink" xmlns="http://www.w3.org/2000/svg"><g id="g53"><path fill="#038cd4" d="M0 0h2751v1834H0z" id="path1"/></g><g id="g52"><path fill="#ffffff" d="m349.9 145.2-98.2-53.5L350 38.2zm0 183.4L251.7 275l98.2-53.5zm0 183.4-98.2-53.5L350 405zm0 183.4-98.2-53.5 98.2-53.5zm0 183.4-98.2-53.5 98.2-53.5zm0 183.4-98.2-53.5 98.2-53.5zm0 183.4-98.2-53.5 98.2-53.5zm0 183.4-98.2-53.5L350 1322zm0 183.4-98.2-53.5 98.2-53.5zm0 183.4-98.2-53.5 98.2-53.5zM373 0 204.6 91.7 373 183.4l-168.4 91.7L373 366.8l-168.4 91.7L373 550.2l-168.4 91.7L373 733.6l-168.4 91.7L373 917l-168.4 91.7 168.4 91.7-168.4 91.7 168.4 91.7-168.4 91.7 168.4 91.7-168.4 91.7 168.4 91.7-168.4 91.7L373 1834zm-67.4 0L137.2 91.7l168.4 91.7-168.4 91.7 168.4 91.7-168.4 91.7 168.4 91.7-168.4 91.7 168.4 91.7-168.4 91.7L305.6 917l-168.4 91.7 168.4 91.7-168.4 91.7 168.4 91.7-168.4 91.7 168.4 91.7-168.4 91.7 168.4 91.7-168.4 91.7 168.4 91.7H0V0Z" id="path2" display="inline"/></g><g id="g51"><g fill="#ffcc01" stroke="#000" stroke-linecap="round" stroke-miterlimit="8" stroke-width="7" id="g4"><path d="M1654.3 1283.3c-50.1 42.7-15 65.2-26 107.2 23-25.5 18-52.2 21.2-21.7 4.8 31.7-7.6 41.5-16.4 59.7 32.7-10.5 32.4-30.5 27.9-8.7-20.2 77.2 17.2 46-2.7 105.2-16.5 24.5-74.3 102.8-110 97-38 0-38.8-18-60.5-18-35.3 0-26.8 36-32.3 44.5.5 32.3 16 29.3 16 29.3-5.5 56.5 50.3 51.5 61.8 44 29.5 63 97.5 4 119.7-26 27.5 31.5 38.1 26.2 62.8 4 24.7-22.5 11.2-37.5 4.7-53.8 89.5-61.7 71.5-132 112.8-156 9-13-13.6-35.1-13.6-55.2 0-7.4 8.2-20.8 19-15.5 13.7 36.6-8.6-12 13.2-46 10.2-15.8 3.1 7 13.1 13.3a55 55 0 0 1 13.3-28.8v-127.3h-224z" id="path3"/><path d="M1085 1137.3c-36.4.5-87.3-6.7-107-20.2-45.8-31.4-67-77.4-67-107.8 0-36.7 27.8-66.8 27.8-89.6 0-38.2-26.5-53-32-53a33 33 0 0 0-29.2 15.8c-16-23.2-52.5-20-58.1 21.7-24-6.6-45-2.7-45 23.5 0 50.7 43.1-9.4 33.1 81.5-24.2 4.7-21 53.5 2.4 52.5-1 15 11.3 44.3 24.8 91.5l4.7-29.2c5.7 39.1 39 78.6 66.7 104.2 28.2 26.1 49.4 45.7 75.7 113.2 3.6-25.6 21-3.6 25.7 6.2 12.8-24.6 51-37.2 75.9-50.6z" id="path4"/></g><path fill="#f0f1f3" stroke="#000" stroke-linecap="round" stroke-miterlimit="5" stroke-width="7" d="M1088.8 1123.8c-53.2 151.7 6 221 103 273.7l169.5 45.8c50.3 1.8 94.4-6 132-25.2 21.8-6.3 42.9-13.4 56.3-27.5l-12-1.2 33-20.5c5.9-3-5.2-7.8-5.2-7.8a116 116 0 0 1 32.1-20.4c4.7-1.8-4-9.2-4-9.2 32.8-34.3 73.3-59 126-69.4V1063H1159z" id="path5"/><path fill="#cde" d="M1362 1440c11.2 0 22.3.3 33.3-.6 2.5-9.9 2.6-19.9 11-30.7 2.2 10.8 5.5 18.3 11.5 16.8.2-10.8 5.5-19.4 10.2-28.2a88 88 0 0 1 44.3 7c-.5-4.9-5-8.1-7.8-12a73 73 0 0 1 46.8-10.3c1.4-8.4-6.3-8.8-10-12.7 15.7-14.5 37.2-18.3 60.2-19.5-1.9-8.3-11.4-7.7-19.2-9a284 284 0 0 1 58-20.8l3.6-3.5c-2-5-8-4.4-12.8-5.5 11-7.1 23.7-9 35.5-13.4 30.3-20 56.8-30.2 81.8-36.2v-35.9h-354.9zm-184-330.5c-5.5 40.4-6.8 82.4-63.2 101.5 9.3 12.7 24 20.5 48.7 19.3-10.4 28.9-24 54.5-52.2 65 10.9 13.2 27.2 13.7 45.5 9.7-11.3 12-16.3 30.7-11.5 58.8a298 298 0 0 0 46.2 29.7l57.3-311z" id="path6"/><g stroke="#000" id="g18"><path fill="#ffcc01" stroke-linecap="round" stroke-miterlimit="8" stroke-width="7" d="M1211.8 918.3c-2.4 45.7-13.2 72-34.7 87-27 18.8-54.9 34.6-68.8 59.2l16.6-4.2c-18.6 20.5-37.5 41.3-50.3 65.7 19.4.3 38.8-6.2 57.5-13.9l-4.6 33.7a88 88 0 0 0 59.1-38c5.1 10.8 6 22.6 4.4 34-.2 4.6 5.5 1.7 5.5 1.7-3.3 25.7-9 51.3-35.2 71.1a25 25 0 0 0 23.2-4.7c0 16.4 1.8 40.5-25.1 69.8-22.5 20.9 16.5-.3 19.4-1-1 9-5.2 18.5-8 27.3-8 16.8 4.2 4 14-1.8-32.5 35.9-9 61.4-12.4 91 17.5-19.3 14.6-45.7 17.8-15.2 4.8 31.8-7.6 41.5-16.3 59.8 32.6-10.5 32.3-30.5 27.8-8.8-20.2 77.3 17.3 46-2.7 105.3-16.5 24.5-74.2 102.7-110 97-38 0-38.7-18-60.5-18-35.2 0-26.7 36-32.2 44.5.5 32.2 16 29.2 16 29.2-5.5 56.5 50.2 51.5 61.7 44 29.5 63 97.5 4 119.8-26 27.5 31.5 38 26.3 62.7 4s11.3-37.5 4.8-53.7c89.5-61.8 71.5-132 112.7-156 9-13-13.5-35.2-13.5-55.2 0-7.4 8.1-20.9 19-15.6 13.6 36.6-8.7-12 13.1-45.9 10.2-15.8 3.2 6.9 13.2 13.3.3-7 5.2-17.4 9.8-27.2 13.4 0 28.7.8 40.4 4l-4.5-8.6c9.3 1 15.4-13.7 46.6-9.8 0-4.4-5.5-6-11.3-10.3a102 102 0 0 1 59.8-22.9c-1.2-2.7-17.5-4.2-22.8-5.3a354 354 0 0 1 66.8-24.8c-2-2-16.6-4.6-16.6-4.6 19.3-15.5 120.3-41.2 136.8-27.4a61 61 0 0 0-26.5 40.5c54.8-30 74.4-.9 138.5 34.5 8 1.9 22.3 0 28.8-5 7 7.5 3.3 8.4 16.9 16.8a147 147 0 0 1 22.1 57.5c4.6-4.4 7-16.8 10-24.2 6 7 11.4 17.6 16 27.7 5.4 11.5 6.2-4.2 7.2-11 5.2 46.8 44.2 44.8 59.7 73.2-.9-28-27-49.6.1-28.9 24.5 18.7 20.4 21.8 31.8 50.9 12.5-24-.7-47.3 13.3-24.7 39.8 63.6 40.4 22.3 67.8 61.2 12.7 18 16 63.7 16 78.8 0 31.8-22.3 35-44.5 35-26 0-24.2-8.8-41.2-8.8-17.4 0-31.3 9.8-29.8 36.8.9 15.8-1.2 33.1 21.3 41.5 5.4 48.5 52.8 43.6 67.5 29 33.1 55 87.7-2.9 101.7-25.5 10.5-17 23.8-32.5 23.5-47 9 3 58.5 17.5 59.3-30.5.3-24-5-34-36.3-42.5 17.5-134-50.1-159.5-37.4-208 .2-3.5-9.7-12.7-24.5-15.2-28.8-4.8-42.7-34.2-18.7-36.8-17.8-10.2-33.5-41.8-29.7-46.6 2.2-2.7 14.4 11.3 18.4 6.4-9-12-7.6-18.1-14.8-33-12.8-26.3-28.6-51.3-7-23.3 20.8 33.6 3-30.3-21-48.8l-16.6-27.5c19.6-3 98.3 1 98.3-105 0-137.5-168-151-168-199 0-40.5 135.8-32.6 135.8-180.2 0-35-13.7-43.3-31.8-43.3-10.5 0-35.7 4.3-28.2 49.3-10 116-136.3 85.4-136.3 178 0 98 157.8 95 157.8 180.2 0 15.8-7.5 30-32.8 30-61.7 0-144.6-74-247-74-107.8 0-218.5 57-305.7 55-46.8-1.1-10.5-24-67.8-30.2-22.6-2.5-20.4-20-26.2-44.5 0 0 11.5 3.3 14.7 5.7-8-8.2-14.4-27.6-18.5-41.5 14.8-1.5 27 5.7 16.8-5.4-18.7-20-23.5-37.7-33.5-56.7l22.5 1.7c-14.5-18.8-22.8-40-33.7-56.6-10-15.4-22.7-26.7-31.3-44.3l-20.2-85.6c-7-29.9-10.7-41-17.5-41.1-7.6 0-12.6 28.6-76.8 28z" id="path7"/><path fill="#e20514" stroke-linecap="round" stroke-miterlimit="8" stroke-width="5" d="M1133 878.5c-19.9-27.2-36.6-19.7-111.7-19.7-8.7 0-46.7-7.2-46.7-45.3 0-16.7 7.1-35 26.4-35 6.3 0 16.8 4.6 16.8 14.4 0 7.7-11.3 12.5-11.3 20.4 0 18.7 47.8 4.2 106.8 4.2 39.5 0 62 23.1 62 61z" id="path8"/><path fill="none" stroke-miterlimit="5" stroke-width="6" d="M1499.5 1070.5c7 26.4 11.6 55.6 11.3 84L1498 1139c8.2 32.8-4.2 45.9-5 56.5l-12-21.7c-1.7 20.8-4.3 42.9-11 56.2" id="path9"/><path fill="#fff" stroke-miterlimit="5" stroke-width="6" d="M1073.5 882c-1-7.1-6.8-42.2 8.6-59.9-1.8 17.2 4 35.3 21.5 51.7m-67.8-82.5c2.7 21.3 8 41.2 22.7 56 0-17.2.2-34.5 5.5-52.3" id="path10"/><path fill="#fff" stroke-linecap="round" stroke-miterlimit="5" stroke-width="4" d="M1128.3 872.5c-3.7-9.2-.4-18 4.9-26.8 1.7 10 4.7 19.6 12 27.7m-32.6-1.2c-3.7-9.2-.4-18 5-26.8 1.6 10 4.6 19.6 11.8 27.7m-32-.9c-3.7-9.2-.5-18 4.8-26.8 1.7 10 4.8 19.6 12 27.7m12-80.6c-3.2 9.4.6 18 6.4 26.5a53 53 0 0 1 10.3-28.3m-32.4 1.7c-3.1 9.4.7 18 6.5 26.5a53 53 0 0 1 10.3-28.4m-32.4 2.4c-3.1 9.4.6 18 6.5 26.5a53 53 0 0 1 10.2-28.4m-32.3 3.1c-3.2 9.5.6 18.1 6.4 26.5a53 53 0 0 1 10.3-28.3m-32 2.7c-3.1 9.4.7 18 6.5 26.5a53 53 0 0 1 10.3-28.3" id="path11"/><path fill="#ffcc01" stroke-linecap="round" stroke-miterlimit="8" stroke-width="7" d="M1057.3 869.3c-28.5 0-36.6 70.4 18.5 101l-3.3-8.5c-11.6-43.7-3.5 15.3 49.6 18.2-11.2-7-16.4-16.5-20.6-22.7-15-29.3 4.1 2.3 12.4-3.5-13-27.7.5-31.8 10.6-38.5 32.6-15.2 34.4 10.8 43.5 31.2 4.8-18.7 4-30.7 4-30.7-1.6-34 1 3 20 10.2 8.5 2.3-2-15.5 11.5-44.6 3 29.5 2.4 47.2 28 58.2-6.9-38.8 4.3-46 20.9-69-8.6 30.2 8.6 56.4 22.5 70.9-6-28.7 14-55.2 19.3-82.2-4 35 20.4 55.5 29 63.2-10.3-64.4 39.5-76 3.3-142 0 0 18.6 8.6 36 8.6 24.3 0 34.6-50.6 34.6-76.4 0-21-8.1-24.5-13.8-24.5-8.2 0-27.3 11.3-81.5 11.3-35.3 0-51-31.7-110.5-31.7-40 0-56.8 17.5-60.5 17.5-17.3 0-56.5-11.2-92.8 5.2-30.2 8.1-27.9 35.5-14.2 41.3-21 33.7 5.5 68.7 29.2 65.7 30.1-3.9 76.4-11.6 91.1-5 12.3 5.3 34.9 53.9 27.7 70.8-7 16.4-76.5 6-114.5 6z" id="path12"/><g fill="none" stroke-linecap="round" stroke-miterlimit="8" stroke-width="7" id="g17"><path d="M819.5 904.3c-1.7 27.2 16.5 28.5 16.5 28.5-2.5 7.5-1 55-1 55m42.6-105.3c-14 25 2.1 36.3 2.1 36.3-10 19.5-11 39.7-12.7 60m-8.4 30c-19.1 28.2-21.1-5.8-51 .5m2.4 52.5c10-.4 19.8-.6 29.8-3.8" id="path13"/><path d="M1471.5 1677.8c-1-19.5 6.5-35.8 31-35.8 8.3 0 46.6 22.3 77.8-1.8m-46.8 74.3c-8-14.2-5.5-46 26-46 17.1 0 39.3 7.9 47.8-21.7m45.7 49c6-9.3 11.4-19.4 16-31.3" id="path14"/><path d="M1415.6 1370.7c3.2-6.6 6.2-12.9 7.7-17.5 25.7-71.6-7.7 36.4 15-8.4 7.9-15.7 11-16.6 14-45" id="path15"/><path d="M1012.3 1689c-1-19.5 6.4-35.7 31-35.7 8.2 0 46.6 22.2 77.7-1.8m-46.7 74.3c-8-14.3-5.6-46 26-46 17 0 39.3 7.8 47.7-21.8m45.8 49q9-13.7 16-31.2" id="path16"/><path d="M1196.5 1143.5c26.3-13.8 44.5-30.1 52.3-61 12 14.3 15.5 31 20.2 26.8 13.9-14.3 29.6-27 33.3-50.8-3.4-16.7 2.7-14 16.2-2.2" id="path17"/></g></g><path d="M1344.8 995.4c8 36.6-25.8 65.7-25.8 65.7l-5-5s24.9-19.1 30.8-60.7" id="path18"/><path d="M1852.1 1326.3c-19.6-22.7-37.6-52.3-47.2-56.5 5 16.8 19 32.8 42.6 61.8z" id="path19"/><g fill="none" stroke="#000" stroke-linecap="round" stroke-miterlimit="8" stroke-width="7" id="g21"><path d="M1996.8 1086.8c37.4 18.7 65.3 48.8 86 76.7" id="path20"/><path d="M2018.3 1712.8c-7.5-25.8 6.7-43 26.7-43 7.5 0 16.6 3 27 3 15.8 0 37.4-4.7 46.3-18m28.2 1c-2.9 24.1-15 29.5-37.5 29.5-18.9 0-44.2 19.2-24 48.5" id="path21"/></g><g id="g24"><path d="M1162.6 729.3c-5-4.8-8.7-10.5-17.2-15-25-13.6-61.1-14.4-79.9-14.5 50.1-10 72 8.8 88.8 8.8 7.6 0 19.6-10.7 35.5-10.7 28 0 55 31 52.7 32.4-3.3 1.9-13-9.1-19.6.6-7.8 11.3-12.8 25.9-31.7 25.9-15.6 0-28-10-28.6-27.5" id="path22"/><circle cx="1191" cy="728.813" r="23.939" fill="#fff" id="circle22"/><circle cx="1190.875" cy="728.688" r="12.625" id="circle23"/><circle cx="1201.688" cy="726.813" r="12.314" fill="#fff" id="circle24"/></g><g id="g36"><path id="a" fill="#fff" stroke="#000" stroke-width="4" d="M779.1 998.9c1.8 8.7 7.6 19.7 23.1 20.1 20.3.5 17.2 24-5 24-14.5 0-27.3-18.4-18-44.1z"/><use transform="rotate(76 -437 -63.2)scale(1 -1)" xlink:href="#a" id="use24"/><use transform="rotate(-83.6 -61.8 25)scale(-1 1)" xlink:href="#a" id="use25"/><use transform="rotate(115 252.5 -44)scale(1 -1)" xlink:href="#a" id="use26"/><g id="b"><use transform="rotate(165.8 98.2 1497)scale(-1 1)" xlink:href="#a" id="use27"/><use transform="rotate(165.5 66.3 1478.4)scale(-1 1)" xlink:href="#a" id="use28"/><use transform="rotate(166 59 1451.2)scale(-1 1)" xlink:href="#a" id="use29"/><use transform="rotate(-110 1260.8 1223)" xlink:href="#a" id="use30"/></g><use transform="translate(459.3 -11)" xlink:href="#b" id="use31"/><g id="g35"><use transform="rotate(-25.3 7621 -2533)scale(1 -1)" xlink:href="#a" id="use32"/><use transform="rotate(156.3 540 1668.6)scale(-1 1)" xlink:href="#a" id="use33"/><use transform="rotate(156.7 530.7 1640)scale(-1 1)" xlink:href="#a" id="use34"/><use transform="rotate(-146 1622.4 1120)" xlink:href="#a" id="use35"/></g></g><path fill="#d79500" d="M2153.3 1100.5c1.8-.2 4.4-.3 5 .2-1.2 1.2-5.5 1.1-6.1.4-.2-.3.5-.6 1.1-.6m-142.6-247.8s-2.8-1.5-3.5.6c-1 2.5 2.4 4.4 2.4 4.4zm.3 15s-6.1-.4-7-7c-.7-4.3 5.5-2.5 5.5-2.5q0 4.9 1.5 9.4m12.3 41.4c-1.2-.2-3 1-1.5 1.5 1.2.4 4-.1 3.3-1.3q-.8-.3-1.8-.2m67.5 16.7c11.2 6.4 21.8 14 32.2 21.8-2.3.7-5.5 0-7.5-2.1-2.8-2.9-4.7-5-8.4-7.6-4.7-3.2-6.3-1.7-14.5-5.8-2.3-1.2-2.6-4.4-1.8-6.3m-96.2-19.6c-1.6-.4-4 1.6-2 2.8 1.5.6 5.2-.4 4.2-2.4q-1-.6-2.2-.4m-36.8-47.2c-1.4.1-2 4-1.1 5.4.6 1 4.8 1.9 5.6.3.9-1.7-2.8-6-4.5-5.7m.7 24c2.6.6 6 0 8.4-2.4 1.8-1.9 2.6-5-.3-6.7-2.4-1.4-7.8-2.3-10.1-1.2q.4 5.2 2 10.4M2108 771c-4.4.8-3.8 8.6-.1 12.3l8.3-9.4c-.6-1.5-4.3-3.4-8.2-2.8m-20.3-60-4 11.6c4.2 2.6 10 9.4 15.2 9.3 4.7-2.4.9-9-1.7-11.6-2.2-2.3-6.4-8.2-9.5-9.2m-21.8 40.4-7.4 7.5a30 30 0 0 1-1.7 20.9c-3.8 2-10.6-1.3-11.9 4.4-1 2-2.8 5.8 1.2 4.8 10.6.7 18-8.4 25.6-14.3 5.5-4.9 4.3-14.1.8-19.7-.9-1.4-2.7-4-6.6-3.6m-.3 39.4c-5.7 1.3-6 9.1-8.7 13.3-2 8-11.7 8.4-16 14.2-.7 4.2 5.5 3 7.6 1.7a206 206 0 0 0 23.8-13.4c5.6-5.2 1.6-17-6.7-15.8m21.2-24.4c-8.2 1.3-9.7 11.3-8.6 18.2.7 5.2 2.5 14.4 6.2 18.5q8.6-5.3 15.5-12a249 249 0 0 0-7-22c-1.3-2-3.9-2.8-6-2.7M2011.5 881c2.9 0 5.3.4 6.8-1.7q-3.9-4.3-6.3-9c-7.9 1.5-5.7 10.7-.5 10.7m48.1 26.6c-6.6 1.5.3 9.5 1.9 12.3 4.8 5.4 10.3 14.6 18.8 12.7 3.5-.5 6.5-5 5.4-10a595 595 0 0 0-26-15m42.7 99c2.8 4 8 15 8.8 18.2 2.2.9 6 2 7.6 3.7 4.8 2.4 3.6 4.7-.4 7.4-7.2 2.2-5 10.1 1.3 10 4-2 8.2-5.9 10.2-9.7-.3-7.6 1.9-15.7-.5-23-6-4.9-19.5-7.6-27-6.6m-33.4-40c-8.7.1-14 .9-14 .9a412 412 0 0 1 21 13.6 142 142 0 0 0 29-5c3.8-2.7-1.7-7-4.6-7.7-10.2-2.4-21-1.5-31.4-1.7m40.6 14.3c-6.1.7-19.5 5.8-19 12l6 6.1c5 0 30.7 1.5 27.8-9.6-1.4-6.8-8.7-8.7-14.8-8.5m10.6-25.2c-4.3.3-12.2 1.3-12 7 2.8 5 9.5 6.4 14.1 9.3 2 .8 4.8.8 4.4 3.7 3 5 6.9 11.6 13.4 11.9 8.1-4.9 13-.3 12-9.4-5.2-8.7-12.6-14.8-19.2-21.4q-6.2-1.5-12.7-1.1m22.6 35.1c-5.5.4-13.1 6.3-9 12.1a65 65 0 0 0 37 11.4 94 94 0 0 0-9.1-21c-3.8-.6-15-2.5-18.9-2.5m17.9 29.3c-4.7.5-11.4 1.7-13.4 6.6 2.4 6.5 9 10.6 13.2 16.1-1.6 5-4.6 11-2.4 16 7.6.3 11.1-8.8 12.2-15 1.1-5 1.2-7.7 5.3-10.2a113 113 0 0 0-2.1-10.3c-3.7-3.7-10.8-3.3-12.8-3.2m12.5 77c-6.5-2-10 11.5-23.7 10.5-4 .4-11.4 2.6-10.2 7.8 3.1 5.3 10.5 2.6 15.5 2a22 22 0 0 0 15.3-10.4q1.8-4.8 3-9.8m-159.5-274.5c-2.5.6-8.4 1-7.9 4.4 3.3 1 9.4 0 10.1-3.9-.5-.7-1.5-.5-2.2-.5m-13.5 13.7c-4.9.3-4.8 9.1.7 8 5.3.2 5.1-8.2 0-8zm-12.6 38.8c-4.3-.6-6.2 5-2.5 7.2 3.7 3.1 10.3 4.8 14.4 1.7.8-5.1-7.7-9-11.9-8.9m-11-30.6c-5.4.6-8 9-3 12.2 4.2 3 6 9.2 11.1 10.8 2.9 1 5.3-1.1 4.3-4-.8-7.5-3-18.7-12.4-19m15.1-28.4c-5.5.3-10.4 5.1-12.1 10.1.7 4.5 6.6 1.4 9 0 3-2.4 8.7-4.3 8.7-8.6-1.2-1.7-3.8-1.4-5.6-1.5m50.1-22c-7.5 0-13 6.7-16.2 12.7 0 4.5 6.5 2.6 8.7.9 4.8-1.9 14.1-4 10.8-11.3q-.8-2.3-3.3-2.2m63.4-85c-3.2.4-8.6 5.1-5.2 8.1 3.6 1.3 9.4-3.6 7.5-7.4q-1-.8-2.3-.7m4.6-10c-4 1.2-2 8.3 2.3 6.2 2.9-.6 3.9-4.5.5-5.3q-1.3-.9-2.8-.9m-1-27.9c-3.6.6-7.2 4.8-7 8.5.6 2.7 3 5.3 5.8 3 3.9-2.2 9.8-4.2 11-8.9-1.8-2.8-6.9-2.1-9.8-2.6m15.6 10c-4.5-.7-6.6 5.7-2.5 7.8 3.8 4.6 12.7-2.7 8.4-6.9-1.7-1-3.9-1-5.9-1m11.1 18.6c-5.5 1.2-12.7 3.8-14.7 9.5 2.1 3.6 7.8.6 10.8-.2 3.4-1.5 8.1-4.2 8.1-8.2-1-1.1-2.8-1.1-4.2-1.1m-21.3 22.5c-6.5 2-5.3 11-5.7 16.3 0 5-5 7.9-6 12.7-1.4 2.8-2.8 6.8 1 8.4 2.5 1.8 6.3 4.7 8.3.6 5-5 5.8-13.4 12.3-17 3.7-7-.6-16.7-7.2-20.4q-1.4-.7-2.7-.6m-28.4 15.9c-7.6-.4-9.5 9.2-6.1 14.5 2.2 4.4 8.3 9.3 13 4.9 8-4.4 6-18.7-3.7-19.2zM1969 885.5c-2.3 1.6.8 5.5 1.3 7.6 3.4 7 11.9 14.7 19.8 9.8.7-3-4.3-5.2-5.7-7.7-4.4-4-8.8-10-15.4-9.7m32 11.6c-2.3-.7-4 1.5-1.8 3 1.7 2.6 7.6 5.5 9.3 1.8-.2-3.5-4.6-5-7.6-4.8m22 29.3c-4.6 2-10 3-14.5 5.4-2.5 4.5 4.5 6 7.7 6.1 5.2 1.3 13.1 1.1 14.8-5.1-1.1-3.1-4.4-6.4-8-6.4m10.9-23.6c-2.6 1.4 1 5.5 2 7.3 3.4 4 7.3 9 12.5 10.2 2.9-3.2-.4-8.7-2.4-11.7-3-3.5-7.7-5.4-12.1-5.8m11.9 45.8c-4.8 1.7-2.8 10.3 2.3 10.3 4 1.1 8.6 4.4 12.2 4.2.2-5.5-6-8.9-9.6-12-1.6-1-3-2.4-5-2.5m9.5-14.4c-7.8 1.1-18.3-1.4-23.6 5.8-2 5.2 6.7 7.4 9.4 3.5q3.7-6.4 8.7-1c6.9 4.7 11.7 14 20.5 15 6.2-1.3 5.8-9.7 2.5-13.6-2.8-5.6-8-10.6-14.6-9.7zm33.6 4c-7.2-.7-7.7 9-5.2 13.6 1.7 6.2 10 10.8 15.2 5.4 7.9-7.5 0-20.1-10-19m28.8 133.8c-3.5-.7-5.7 2.2-4.6 5.5 1.9 2.6 6.7-.2 8.4-2.2 2.4-3-1.3-3.7-3.8-3.3m24.7-13.8a41 41 0 0 0-11.8 9.2c-1 3.5 2 5.2 4.7 3.4 5.6-1.1 7.4-8 7.3-12.6zm-1.2-22c-5.6.7-12 5.9-9.7 12.1.1 3.7 1.4 9.8 6.4 7.9 3.8-.4 5.5-3.6 6.5-6.7 1.3-3.1 6.4-5.3 5.8-9a12 12 0 0 0-9-4.4m20.8 29c-3.3.6-8 2.1-8.9 5.6 2.5 4.7 10.3.7 11.2-3.6.3-1.4-1-2.3-2.3-2m6.9 14c-4 0-13.7 5-8.3 9.3 4.3-.3 9.8-3.8 10.2-8.4-.2-.8-1.2-1-2-1m-21.4 5c-4.5-1.2-11.4 3.7-6.8 7.9 4.3 1.5 10.8-1.5 11.5-6.1-.5-2-3.2-2-4.7-1.9m-.3-12.2c-8.2 2.5-12.8 10.7-19.7 15.4-2.6 1.3-4 7.8.2 7 6.4-2.5 7-10.7 13.2-13.7 2.3-3.4 9.3-2.1 9.2-7.1-.4-1.2-1.7-1.8-2.9-1.6m-39.5 13.5c-6.8 1.6-13 5.7-20.3 4.1-5.5-.3-14.6-2.5-16.2 5-.7 5.1 6.8 3.4 9.7 4.2 5-.8 7.5 3.8 11.2 5.8 6-3.6 11.1-9.3 18.7-9.5 3.6 0 8-5 3.9-7.6q-3.2-2-7-2m32.8 13.6c-3.6 0-7.1 3.6-10 3.6-.1-4.8-7-2.2-9.3-.7-8 6.8-20.2 9-25.9 18.3.3 3.3 5.7 1.8 8 2.3 7 1 12-4.2 17-8.2 6.7-3.6 11-10.7 19-12 1.1 0 5.8-3 1.2-3.3m2.2 27.3c-5.7 1.2-12.4 3-16.2 7.8 0 4.5 6.7 2.1 9.3 1.7 3.9-1.1 11.7-3.2 10-8.6-.7-1-2-1-3-1m-33.6 19.7c-2 .1-7.3 1.4-5.7 4 2.8 1 8.2.2 8.9-3-.6-1.1-2.2-1-3.2-1m5.6-20.8c-11.1 2.4-20 10.3-30.6 13.8-2.5 1.8-8.3 3.3-7.9 7 7.4 1 14.7-3.3 21.4-5.8 6.8-3.6 14.6-7.5 18.9-14 0-1-1.2-1-1.8-1m-32.9 9c-1.9-.5-4 3.2-1 2.7 1.8.2 4.3-3 1-2.8m-6.6-25c-3.3 2.9-3.5 8.6-5.2 12.7-1.1 3-2.2 7.7 2.4 8.3 3.2 1.7 7.8 1.6 9-2.6.6-3.2 4.6-4.3 5.4-7-1-6.4-4.6-11.5-11.6-11.4m-28.6-27c-5.8 1.1-3.2 8.1-4.3 12-2.9 4.3 3.6 8 5.6 11.2 4 3.3 7.5 9.5 13 10 1.7-4-3-8-3.7-12-3.4-6.2 5.5-11 3.8-17-4-1.1-8.9-.5-12-3.8q-1.2-.5-2.4-.4m-21.4-8.2c-3.7.7-6.9 3.1-11 2.1-4.4-.8-9 6.3-3.5 8.2 6 1.1 11.2 5 17 6.2 2.1-2.1 1.6-6.4 2.8-9.2 1.3-4.1-.5-8.1-5.3-7.3m-254.3 482c-2.8-.9-8.2 1.9-5.7 5 3.7.2 6.7 2.4 9.8 4.3 2.5-1.3 4.2-5 4.3-7.8-1.6-2.4-6-1.1-8.4-1.5m-30.5 27c-5.7-.2 1 9.8 4.4 5.5 4-3.3-.5-6.4-4.4-5.5m-27-13.2c-4 .5-.3 6.4 2.6 5.5 2.5-.1 10.3 1.2 9-.8-3.7-2-7.3-4.8-11.6-4.7m-25.7 22.2c-5.3-.3-1.7 8.1 2.3 6.3 3.4-.6 4.6-6.7 0-6.2zm-5.7-27.8c-3 .6-4.6 3.7-7.5 4.6-2.2 1.4-3.8 5-.1 5.6 5.8 2.3 10.9-3.8 14.6-7.2.1-2.7-5.2-2.9-7-3m-33 17.8c-3.3.5-6.1 4.6-9.4 1.4-3-1.6-2.2 2.4-.5 3.4 3.1 5.2 12.2 1.5 12-3.9-.3-.8-1.3-1-2-.9m10.3-33.5c-3.4 1.2.8 6.2 2.8 6.9 2.8-.4 6.2-5.6 1.6-6.2q-2.2-.7-4.4-.7m35-7.6c-3.6 1-9.9 5.8-5.6 9.5 3.6 2.2 8.2-2 11.9 1 3.2 2.5 9.9 3 10-2.4.1-3.6-3.4-5-6.4-5.4-3.4-1.3-5-6.8-9-3zm37-9.7c-5.7 1.1-10.2 8.1-5.2 12.8 2.8-.4 4.6-4.4 8-3.4 2.4 1.1 8.3-.3 5.4-3.5-3-.8-6.2-1.8-7-5.3q-.4-.7-1.2-.6m5 22.2c-2.6 1.9 1.9 5.4 3.1 7 2.2 3 6.5 4.3 9 .8 3.5-4-3.2-7-6.6-5.6-2.1-.1-3.5-2-5.6-2.2m-3.4-71.4c-4.7.6.4 9.5 2.8 5.1 1.3-2.3.4-5.5-2.8-5m-2.2 18c-5.3 0-11.4 2.1-13.2 7.5-4.2 2.6-12.1 5.2-10.2 11.7 2 5.4 9.5 1.8 13.3.4 7.8-3.5 16.8-6 23.6-11.2-.7-5.6-8.4-8.8-13.5-8.4m39.1 26c-4.4 2.8-9.7 3.6-14.6 5-1.8 2.2-1 7 2.9 6.1 3.7.8 10.8-1.7 8.9 4.5-.3 2.6 1.8 9.2 5 5.7 2.2-3.5 7.5-3.2 9.4-6.3-2.8-3.8-8.5-6-8.4-11.4-.6-1.3-1.4-3.6-3.2-3.6m1.5-22.5c-4.6 2-4.5 8.8-3.9 13 2.2 3.7 5.2-2 5.3-4.2.6-2.5 3-8.2-1.4-8.8m19.7 3.8c-2.6 1-1.7 5-4.4 6.3-4.1 2-3.4 6.4-1.4 9.6.5 4 6.3 4.5 6.8.4.6-5.1 6.7-13.6-1-16.3m11-26.7c-3.7 1.6-4.3 10 .4 10.7 3.8-2.4 5.7-9.1-.3-10.7m-24.8-12.4c-4 2.7-4.4 10 .7 12 3.6 3.6 5.4-3.2 5-5.9-1.2-2.3-3.2-5.3-5.7-6.1m24.6-36c-6.2 1.2-6.7 9.4-11 13.3-5 3.2-4.8 10.3-.6 14 6.3 6 12.1 13.5 20.3 16.8 2.9-1.2-1.2-5-2.1-6.5-1.7-2.6-7.5-6-3.2-9 2.7-1.8 6-5.2 2.5-8.3-4.8-5.7-1.4-14.1-4.5-20.2q-.7-.3-1.4-.2m5-34.2c-6.1-.6-5.3 7.2-4.3 11.1 1.1 3.8 2.9 9 6.8 10.4 4.6-2.8 2-9.6 6.1-13.1 2.7-2.7 1.5-6.7-2.2-7.4a18 18 0 0 0-6.4-1m-20.3 11.1c-4.8 1.6-6.9 11.9-.4 12.3 4.1-2 6.5-11.3.4-12.3m-19.4 13.6c-7.8 2.1-7.5 13-4.7 19 .6 3 3.4 4.4 6.2 3 5.6 0 6.3-7.7 6.9-12-.3-4.3-3.7-9.7-8.4-10m-26.1 22.5c-5.2 3-3 10.7-2.6 15.6 4 11.1 1.6 23.8 7.4 34.3 1.7 2.6 5.5 7.9 8.3 3.4 4.1-9.6 1.3-20.7-.6-30.6-2.5-8-5.2-17.2-11.9-22.7zm4.6-83.3c1 2.4 9-1.1 7.7-2.9-.8-1-8.2 1.7-7.7 2.9m-11.8 34.2c-3 .1-5.4 6.6-1.1 5.8.9-1 3.4-5.3 1-5.8m10.9-8c-4 .7-8.4 6-4.2 9.4 3.4 3.2 5.5 8.2 2.7 12.6-1.7 5.2-6 9-8 13.9-1.6 4.3 1 9.8 6.2 9 6.5-2.4 5.9-11.1 6.6-16.8q-.2-13 2.9-25.5c-1-2-4.1-2.7-6.2-2.6m-25.3 18.2c-4.9 2.2-1.8 9.8-4.7 13.2-2.3-.8-5.3-3.3-6.9.1-3.6 3.9-1.1 8.8.6 12.8 1.2 9.9-1.5 23 8.3 29.4 5.1 0 9.4-4.9 12-9 3-4.6 1-10.1-2.3-14-1.6-4.6-2-9.6-4.3-14.1-1.9-5.8 2.1-12.6-1.1-17.8q-.7-.7-1.6-.6m-4.5 66.5c-7.6 1.5-11.8 9.4-10.3 16.6-.5 4.1 2.9 8.2 7.1 6.3 10-1.3 14.9-16.7 5.9-22.1a5 5 0 0 0-2.7-.8m-40.6 44.7c-2.5.1-5 4.3-1.8 5.1 2 3.4 2.8 7.6 5.7 10.4 3.8-3 9.4-3 12.8-6 1.7-5.8-6.5-6.5-10.1-8-2.2-.6-4.4-1.5-6.6-1.5m10-23.4c-4 1.4-6.7 7.7-4.8 11.6a40 40 0 0 1 11.3 3c5 .5 3.5-6.2 1.5-8.5-1.8-2.7-4.4-6.2-8-6.1m-6.1-28.4c-2.4 0-4.1 3.2-6.2.5-2.1-.6-7 1.2-5.7 3.8 4.4 2.6 10.8 2.8 13.1 8.3 1.4 1.6 3.2 7 5.6 3.6 3-4.1 11.9-3.5 12-9.6-5.1-2.5-12.8-.7-16.6-5.7-.1-1-1.5-1-2.2-1m8.3-28.3c-4.6 2.5-10.2 2-15.1 3-.6 5.3-2.2 11.3 4.8 12.7 3 1.9 8.9 5.1 11 .3 1.6-5.4 8.6-6 10.8-10.6-1.5-3.9-7.2-4.4-10.8-5.4zm-15.2-52.1c-3.5 1-3 6.8-1 9 1.5 7.7 6.9 14.7 5 22.8.1 2.7 0 8.8 3.8 8.9 6-4 9.2-12.5 17-13.4 3-3.8-3-7.9-4.1-11.4-2.5-5.6-5-12.3-11.9-13.8-2.8-1-5.8-2-8.8-2.1m32.4-13.5c-5.1 3-7 9.7-4.4 15 1.6 3.9 5.8 10.3 10.6 7.6 5.4-6 2.5-16.5-3.2-21.4-.9-.5-1.9-1.3-3-1.2m26.2-5c-4 1.1-5.3 6.2-7.2 9.3 2.3 2 4 9.3 8 7.4 4.5-4 5.1-13 0-16.7zm43-.1c-4.5 1.1-10.4 3.5-12 8.2 2.4 5.3 8.5 8.6 8.5 15 1.5 6-1.4 14 3.2 19 4.4.2 5.1-6.5 6.7-9.5 1.6-7-3-13.6-3-20.6-1.2-3.8.1-8.2-.7-11.8-.8-.5-1.8-.3-2.7-.3m-12-18.4c-4 .4-8.5 7.3-3.3 9.5 2.3.8 6.8 5.3 8.5 1.8.4-4.4 1.8-12.2-5.2-11.3m-24.4-24c-6 0-9.4 8-4.8 12 3 2 8.3 4.5 11.9 2.2 4.8-4.6 2-14.6-5.5-14zm-27.4-5.3c-7 2.7-11.6 14-5.6 19.7 5.1 1.2 7.5-5.7 9-9.5 1.4-3.7 1.2-9-3.4-10.2m-23.3 27.8c-4.1.3-11.6.5-11.1 6.3-1.2 3-5.9 6-1.9 9 4.2 3.4 10.3 3.1 14.1 7.1 3.2 2.2 5.4-4 8.6-5 3.9-3.6 10.3-5 12.8-9.8-3.1-3.4-9.3-.9-13.2-3.2-3.2-1.3-5.5-4.8-9.3-4.4m-18.7-49c-4.1 1.3-7 5.4-11.5 5.8-3.6.7-8.4 1.9-7.6 6.7-.3 3.3-.4 7 1.8 9.5-1.6 6.6-11.2 9.8-10.4 17.2 2 4.9 9-1.1 12.1 2.8 3.2 3.3 7 11.5 12.6 7.5 4.9-4.5-4-11.6 1-16.3 3.7-3.7 5.5-7.6 2.5-12.3-2.2-4.5-.7-9 2-12.8 1-2.5 1.2-8-2.5-8.1m35.1 3a36 36 0 0 1-10.3 6.2c-6.6 5-14.6 11-14.2 20.2 0 4.5-1.6 9.8-.2 14 7.6-5 9.5-15.3 14-22.7 1-3 3.2-4.4 5.7-5.6 2.8-3 6.3-7.7 5.4-12zm19-2.9c-5.2 2-11.3 7.6-8.4 13.6 1 3.4 2.9 9.2 7.6 7.2 3.9-1 8.2-5 11.9-1.1 6 3.7 13.4-.7 18.7-3.8 2.2-2.1 4.2-8.2-.2-8.7-5.7-3.5-11.8-6.8-18.8-6.1-3.6 0-7.2-1-10.8-1m42 20.8c-7 1.7-4.6 10.8-.7 14.4 3.3 2.8 6.8 7.8 11.5 7.4 5.6-4.4.3-11.4.2-17-2.1-3.4-6.3-8.8-10.5-5zm36.3 19.6c-3.4-.1-10 2.5-6.9 6.8 4.6 5.5 6.4 15.7.1 20.6-2.3 1.8 1.1 5.6 1.6 7.8 1.5 2 2.4 8 5.8 6.8 3.2-5.3 4.4-13.6 11.6-15.3 4-.3 8.3-2.9 7.2-7.6.5-7.4-2-18.8-11.1-19q-4 1.6-7.6 0zm47.9 9.5c-6.6 2-12.7 5.7-19.2 8.2-1.3 2.4 2.8 4.7 1.6 7.6a41 41 0 0 1-10 16c-4 3.4-.7 10.8 4.2 10.3 3.9-3 5-8.5 9.4-11 6.4-5.6 8.6-14.4 15-20 2.2-2.5 7.6-7.6 2.6-10.2q-1.6-1-3.6-.9m267.2 183.2c-2 1.7 2.4 4.8 4.2 5.1 3.1.3-1.4-4.6-4.2-5.1m22-12.7c-5.2.8-2 9.7 2 9.9 1-2.3 3.8-2.6 6-3.2 4.4-2-1.3-5.9-3.7-6.2q-2.2-.6-4.3-.5m2.3-21.3c-4.6 1 1.5 9.2 3.4 4.7.4-2-1.2-4.7-3.4-4.7m25.3 2.7c-3.2-.4-6.1 5-1.8 5.5 3.3 1.1 7.4-4.7 3-5.5zm14 14.5c-3.6-.9-6.5 2.3-5 5.8.6 2.3 4.8 6.4 5.6 2 0-2 0-3.8 2.4-4.3 2.7-.7 2-3.8-.6-3.4zm-2 32.1c-3.6 1.8-9.7.3-10.6 5.7-1.4 2.7-.3 9.4 4 7.6 2.6-4 7.4-4.8 11.1-7 1-2.5-1.7-6.5-4.4-6.3m-25.2-9.5c-3.7 1.5-9.5 2.3-11 6.5 1.6 3.6 6.7 5.1 10.4 5.5 2.3-2 2.1-6 4.5-8.3 0-1.7-2.2-3.7-3.9-3.7m2.3 28.1c-2.7 1.4-5 4.2-7.7 5.5 2.4 2.6 9.3 7.3 11.6 2.2.5-2.8-.6-7.3-4-7.7m52.8-5c-5.8 2.7-13.6-.2-17.7 5.8-4.8 3.7-3.6 4.6 1.3 4.9 2.7 2.7 7.2 1.5 9.2-1.5 2.6-2.8 8.1-4.5 8.6-8.7q-.6-.7-1.4-.4m-4.6-30.3c-4.2 1.6-7.3 6.2-12.2 5.5-3.3 2 1 4.9 3.4 4.6 4.2 1 11.3 3.2 12.5-3 .5-2.6-.4-6.9-3.7-7m10.8-26c-3.3 2.6-7.7 5.6-9.4 9.4.4 2.7 2.9 5 5 2.3 2.2-2.2 7.5.5 8-2.9-.6-2.8-.7-7.3-3.6-8.7m-20-10c-2.3 2.1-5.3 6.1-4 9.3 2.7.9 4.2-4.8 7-1.8 1 1.5 4 3.1 4 0 1-2 1.8-6.4-2-5.5-2.3.5-3.4-1.2-5-2m-3-18c-2.8-.9-7.6 2.9-4 5 3 0 8 1.4 10-1.5 1.4-3.7-3.7-3.5-6-3.4m-30.4-.8c-4.2.4-3.2 6.2 0 7.3 6.2 4.4 8-8.5 0-7.3m-35.4 18c-4.3 2.6-8.6 5.2-13.7 5.2-1.2 1.3-1.7 3.2-3.8 3.8-2.3 1.2-2.4 6.5 1.1 4.8 3.9-2 8.3-3 12.2-.7 3.9.8 4-5.5 4.8-8 0-1.4 1-4.2-.6-5m-10.7-21c-7.3-.5-4.6 9.2 1.2 7.5 2.2-.2 6-2.1 3.3-4.6-1-1.4-2.4-3.2-4.5-2.9m62.6-35.7c-3.7 2 1.8 9 4 4.8.2-2-2-4.5-4-4.8m-28.5-.4c-4.5-.2-3.4 5.3-1 7.2 7 8.7 17.6 14.8 28.5 17.1 3-.4 8.2 1.6 10-1.5-.2-9.3-11.1-12.4-18.4-14.6-6.2-2.9-12-7.8-19.1-8.2m-18.5 18.3c-4.2 0-9.9 4-6.6 8.5 2.4 5 8 8.2 13.5 6.2 3.7-.1 4-3.5 4.9-6.1 1.9-2.8-3.4-4.6-5-6.2-2-1.3-4.3-2.6-6.8-2.4m-60 16c-4.5 1 .1 6.7 1 9 1.2 2.1 3.8 9.6 7 6 2.8-2.1 10.3 0 10.3-5.1-2.5-5.4-9.6-6.7-14.6-9.1q-1.8-.8-3.7-.8m32.4-56.1c-2.8-.3-3.3 4 0 3.2 2 1 6.4-1.1 3-2.8q-1.4-.6-3-.4m-46.6 12.1c-4.4-.2-9.8 4.1-6.7 8.7 3.4 7.1 12 8.6 17.2 14q11 7 21.8 14.4c4 1.5 11 2 12.9-2.6-1.6-5.2-8.9-5.6-13-8-11.9-4.4-17.7-16.4-26.2-24.7a9 9 0 0 0-6-1.8m1-21c-3.3-.6-5.6 4.4-1.6 5 4.4 1 7.7-5 1.8-5zm26.7 10c-6 .7-5 8.3-2.4 12 3.5 4.3 10.4 2.6 15.1 4.8 8.7 2.6 17.3 9 26.7 5.3 5.5-4.5-2-13.8-8-11.6-6.6 1.6-14.8 6.7-20.3 0-3.4-3.4-6-9.7-11.1-10.5m76.5-27.9c-5 3-10.5-1.2-15.4-.7-.8 5 5 9.1 9.2 11 5.8 1.5 13.2.6 17.6-3.6.7-3.6-4.8-5.7-6.5-8.3zm-34.2 9.5c-4.8.6-2.5 6-1.7 8.8-4.2 0-9.5-4.4-13.4-1.4 0 4.4 6.3 5.8 9.8 6.6 7.5 0 11.6 7.9 18.3 10.2 4 3.4 8.9 10.1 14.8 6.2 4.4-2.4 9.7-8.3 5.4-13.1-6.9-9.3-20-8.4-28.1-16a9 9 0 0 0-5.1-1.3m-32.6-21.6a5.4 5.4 0 0 0-5 8.4c1.5 4.9 9.7 9.4 13.4 4.4 1.4-5.4-1.9-13.3-8.4-12.8m-29.7 12.5c-5 .6-1.9 6.6.2 8.6 2.7 3.6 9.5 8.9 13 3.9.2-6.9-6.5-12.6-13.2-12.5m-44 21.2a20 20 0 0 0-11 23.8c3.5 4.4 7.8-2 9.6-4.8 1.4-4.6 6.1-5.8 10.2-4.9 4.1-.3 4.7-5.6 1.5-7.6-2.9-2.6-6.1-6.1-10.2-6.5m-5.8-33c-2-.4-4.7.5-2.4 2.9 3.4 6.7 7 14.5 14 18 3.5 1.3 8.4-1.2 9.6-4.4-5.4-6-10.9-12.6-18-16.3q-1.6-.4-3.2-.2m22-19c-5.1-.2-7.2 7.4-3.3 10.4 3.2 5.8 12.7 6.6 16.9 1.9 3.2-7.7-7.3-13.2-13.6-12.3m76.4-39c-3.7 1.4-8.3 4-9.6 7.8 5.3 4.6 13.4 3.7 20 5.1 5.4 0 5.6-8.2.7-9.7a29 29 0 0 0-11-3.2m0 27.5c-3.9.6-6.4 5.8-2.7 8.5 7 7.4 14.7 14.9 23.7 19.7 2.1 1.5 7.6 1 5.4-2.6a80 80 0 0 0-25.4-25.5zm-29.7 8.6c-5 1.5-3 10.7 2.3 10.7 8.9.2 15.6 7 20.8 13.5 2.4 1.8 6.5 6.6 9.5 4-.2-8-8.1-13.1-14.5-16.4-5.7-3.6-10.6-8.3-16.5-11.6zm-15.4-1.8c-5 .2-3.3 6.7-.4 8.7 2 3.4 6.7 4.8 8.8.8.4-1.6-.3-1.8 1.4-1.7.4-5.5-5.3-7.4-9.8-7.8m-16.8-28.3c-4 1.4-.2 7 1 9.3 1.5 4.8 10.5 3.9 8.5-1.8-1-4.2-5.3-7.1-9.5-7.5m4.8-18c-3.3 1-7 6.4-3 8.8 6 3.3 12.8 6.5 14.5 13.7 1.8 4.1 4.2 9 9 9.5 5.3 2.3 9.5 9.6 15.8 8.2 2.4-4.7-1.5-10.5-6.4-11.8-4.7-3.3-11.6-1.7-15.7-5.7-4.5-7-5.4-17-12.5-22.2zm10-19.5c-5.5-.2-3 7.2-.8 9.6 7 8 15.5 17.4 26.7 19 5-.2 4.6-6.7 1.8-9.4-6.9-8.6-15.2-20.4-27.8-19.2m19.2-12c-3.3-.7-4.5 3-1.7 4.6 7.2 5.5 15.7 9 22.8 14.8 1.8 2.2 7 2 6-1.7-5.4-9.8-15.2-18.7-27.1-17.7m-1.4-38.6c-1.9 2.7 1.8 6.5 1.1 9.7-1.1 4.2-.6 13.5 6 10.9 5-1.5 10.8 1.7 15.4-.6 1.4-4.7-4.7-8-7.4-10.9-4.7-3.4-9.4-7.7-15.1-9m-32.1 4.3c-4.3 3.1-6.4 9.2-7.9 14.2 1.7 3.3 7.2 1.7 10.1 3.7 3 2.3 6.4 4.6 10.6 3.8 4.7-.7 10.7 1.2 14.7-1.5-3.2-6.7-9.5-12-15.7-16-4-1.2-7.6-4-11.8-4.2m33.9-46.9c-5 2.3-3.2 9.9-4.2 14.2-.4 3.8-.7 10.7 4.2 11.3 4-3.5 9.8-3.4 13.5-6.9 3.2-5.9-4.2-10.3-7.2-14.4-1.9-1.6-3.7-4.2-6.3-4.2m-20.1-4.3c-2.5 2.8-.9 8.3 1.6 10.9 1.1 2.2 4.1 1.6 3.1-1-.8-3.2-1.1-8.8-4.7-10m-12.1-36c-6.1-.6-10.9 7.7-6 12 4.4 2.6 10.7 1 14 5.8 2 3 6.1 5 8.8 1.5 4-2 2.5-6.8-.7-8.7-4.1-3.3-8-7.1-12.2-10.2q-2-.6-3.9-.4m-33.2 9c-4 .6.3 5 1 6.6q17.3 26.3 34.3 52.9c2.2 4 9.6 7.6 11.6 1.6 2.5-12.1-7.2-22.2-14.2-31-7.4-11-16.6-21.4-27.7-28.9q-2.3-1.2-5-1.2m13.4 64.1c-5 1.6-5.8 10.3.3 10.9 3.6.2 4.8-5.8 3-8.3-1-1-1.8-2.5-3.3-2.6m5.2 42.9c-6.5 1.7-4.7 11-.3 14 1.2-.6 1.5 2.2 3.4 1 3.8.1 6-3.1 5-6.7-.8-3.7-4.6-7.2-8-8.3m-16.8-12.9c-4.7 1.4-1.6 8.5 2 9.6 1.7 1.2 5.8 1.3 4.8-1.8-.5-3.4-3-7.7-6.8-7.8m-13.7 40.1c-7.3 1-6.4 11-3.4 15.8 4 5.4 11.3 7 15.5 12.4 2.4 3 8.3 7.7 11 2.6 1.4-7.6-4.8-13.8-7.6-20.3-3.2-5.5-8.9-10.2-15.5-10.5m.2 51.2a10 10 0 0 0-8.5 8.4c-4.5 3.8 1 13.1 6.5 9.1 4.8-2.3 11.9-5.2 10-11.8-.8-3.2-5-5.2-8-5.7m-62.2 28.1c-4.4 4.5-1.4 12.3-4.8 17.6-2.3 2.8-3 7.8 1.5 8.9 4.1 1.6 11.1 4.7 14.2 0a14 14 0 0 0-3.4-11.6c-3.6-1.5-2.7-6.5-1.2-9.3.5-3.2-3.9-4.9-6.3-5.6m27-8c-3.5 0-6 3.3-4.4 6.7 1.5 8.4 6.2 16 10.5 23.1 1.6 1.9 6.6 5.1 7.3 1 1.2-4.2-1.7-11.3 3.3-13.6 2.6.5 8-1 4.9-4.3-5-4.1-11.2-6.3-16-10.7-1.6-1-3.5-2.2-5.5-2.1m-5.6-24.4c-3 1.7-.3 6.8 1.5 8.7 2.6 2.2 9.3 6 10.9 1 1-5.7-4.6-9.2-9.6-9.4q-1.5-.4-2.8-.3m2.6-51.8c-7 1.3-13 7-12.6 14.4.1 9.7 8.3 17.5 17.6 19 10.5 4.5 16.7 17 28.5 18.6 3.8.2 5-4.4 2-6.5-4-6.8-11.2-10.8-16.3-16.5-5.3-9.9-7.6-23-18.1-29zm-4.7-53.3c-9-.2-13.9 9.8-12.4 17.7-.7 7.7 3.2 15.9 11.3 17.6 9 2.5 18.1 4.9 26.5 9.1 6 5.7 15 7.7 23.2 6.6 2.1-2.3-1.4-6.2-2-8.8-1.7-5.4-7-8-12.3-7.2-6.9.3-16.3 0-18.4-8-3.9-8.4-2.6-19.9-10.4-26a10 10 0 0 0-5.5-1m25.3 0c-6 0-5.8 8.4-4.9 12.6 1.1 5.5 5.4 12.2 12 9.8 6.6-.9 4.3-9.4 3.6-13.8.2-3.6-1-7-5-7.5q-2.7-1.2-5.7-1.1m9.8-59.5c-5.6-.1-10.4 3.4-14.7 6.4-.6 6.4 1 14-.8 19.8-4.7 3.5-9.6 9-9.5 15.2 3.3 1.3 7.4-3.5 10.5 0 4 3.7 8.4 7.9 14.3 6.3 4.4.6 9.4-2 8.9-7 1.1-3.6-2.2-7.8 0-11 5-.9 12.6-.2 14.7-6.2-.2-5.4-6.3-8.1-8-13-4-4.5-8.5-11.1-15.4-10.5m-30-126.4c-3.5.2-7 5.6-3 7.8 5 5.8 13.2 5 19.4 9 4 .9 7.4 7.1 11.7 3.4 2-4 .5-9.4-1.6-13-7.4-5.4-17-3.4-25-7.1zm-20 33.9c-3.3.9-6 3.7-8.4 6 4.6 6.2 6 14.3 10.5 20.6 3.8 2.6 3.2-6.2 7.6-5.1 3.6-.2 8.8-3.2 8.3-7.3a64 64 0 0 0-18-14.2m35.4 24c-6.6-.4-14.7 2-17.5 8.6 2.8 8 12.8 9.8 19.7 12.9 8 2.8 17.4 3 23.1 10 5.2 4 11.8 10.5 19 8.3 6.2-3 7-11.9 1.9-16.4-8.8-11.1-20.2-24-35.7-23.1zm-1.4 39c-8.6 1.7-11 14.5-20.3 14.5-9.6-2.2-17.2-9.2-25.9-13.3-4.6 0-9.2 6-5.3 10 4 4 7.2 11 13.7 9.2 14-.5 28.7-1.3 41.3-7.9 6.5-2.8 3.8-13.6-3.5-12.5m-77.2 23c-2.5 3.6-9.2 7.1-7 12.2 4.4 6.7 12.4 8.6 19.7 10 11 5 22.2 9.6 34.4 9.8 4.8.5 11 1.4 13.6-3.9 1.2-2.4 5.6-5.2 4.3-8-5.6.8-11 4-16.8 2.5a68 68 0 0 1-31.1-15.6c-3.8-1.6-6.4-5.7-11-6q-3-.7-6.1-1m17.1 35.5c-8.1-.8-16.9 6.3-14.8 15a30 30 0 0 0 22 22.9c12.6-1.3 17.2-18 10.9-27.7a18 18 0 0 0-18-10.1m-.7 47.6c-5 0-9.3 4-8.3 9.3.5 11.6-2 24.1 2.5 35.2 4.2 8.2 13.5 17.6 23.4 13.9 9.6-6 7.3-19 6-28.5-1.4-12.9-8.6-29.5-23.6-30m6.5 77.6c-4.3.6-1.6 6.8-1 9.4 2.5 4.5 4.9 9 5.7 14.3 3.1 2.3 8-.1 11.5-.7 3.3-.7 7.9-4.2 4.6-7.7-5.5-5.6-10.5-13.4-18.6-15.2q-1-.2-2.2-.1m-31-7.9c-3 1.8-7.2.2-10.4 1-1 9.1 4.8 19.3 14.4 20.5a29 29 0 0 0 7.9-18c-2.4-2.9-8.4-3-11.9-3.5m-21-58.7c-5.4.4-10.7 5.6-8.7 11.3 0 7.6 5.4 13.8 12 16.8 8.6 5.9 16.1 14.3 26.3 17 4.7-.3 2.4-6.9 1.5-9.6-4-10.2-8.3-20.4-14-29.7a37 37 0 0 0-17.1-5.8m-12.9-17.7c-6 .5-13.8 7.1-10.8 13.5 1.4 3.5 5 2.6 6.8 0q3.3-5.2 8.3-9c1.8-2.8-1.8-4.9-4.3-4.5m8-43.2c-7.1.9-14.2 6.3-13.5 14-.8 5.6.4 12.4 6.5 14.3 3.8 2.5 9 .4 11.7 4.8 6.6 6.8 12.9 14.7 21.5 19 4.6-.5 9.5-2.9 12.8-6 .4-7.3-6.2-12.9-10.2-18.3-2.6-3.6-6.5-5.6-10-8a36 36 0 0 0-12-18q-3.2-1.6-6.9-1.8m-26.4-1.9a36 36 0 0 0-11.5 15.8c-.5 5.7 1 14.2 7.3 16.2 3.7.3 8.5-2 10-5.3-1.6-6.2-7.8-11.8-4.7-18.6 0-2.2 1.3-6.7-1-8m16.6-37c-2.8.7-7.1 2-8 5 1.1 5.4 5.9 8.9 10.2 11.5.7 5.2-1 12.8 4.8 15.6 4-2.7 6.1-9.3 12.1-8 2.7 0 9.6.7 7.7-4-5-8.4-14.3-13.4-22.2-18.9-1.4-.7-3-1.4-4.6-1.3m-21.3-25.8c-3 .8-7.4 2.6-8.1 5.8 2.2 3 6.5 3.3 9.2 6 7.2 4 17.4 9 24.6 2.3 2.4-1.9 5.6-7.1 1-8.5-8.4-3.4-17.8-4.5-26.7-5.6m38.4-57.5c-3.8-.7-9.6 3.5-5.7 7.1a19 19 0 0 0 15.6 4.7c3.1-1.4 3.7-5 1-7.2-2.2-4.2-6.6-5-11-4.6m5.7 30.4c-3 4.1-9 7.4-10 12.7 2.3 5 9.5 7.4 10 12.7-1.3 6.3-1.8 16 6.2 18.1 4.6.5 5-6.6 9.4-7.6 1.5-3.6 3.8-7.2 7.6-9 3.7-2.2 9.5-4.7 10.2-9.5-2.8-4.3-6.8-8-7.8-13.2-3.1-6.3-11.7-3.2-17.2-4.2q-4.2-.2-8.4 0m38.4-16c-4.1 1-9.1 6-5.1 10 4.8 6.6 15.3 11.5 22.7 6.7.5-5.7-5.4-10-9.2-13.5a15 15 0 0 0-8.4-3.2m-15.4-23.5c-2.9-.3-6 1.2-5.2 4.6.2 5.6-2.8 13.5 2.5 17.5 3.8 1.6 4.2-4.7 7.3-5.7 3.2-3.2 11.1-5.7 9.5-11.5-2.9-4.5-9.2-4.8-14-4.9m13.5-20c-2.2 2.9-5.2 8.3-.6 10.6 14.3 8.9 31 12.8 45.7 21 3 2.7 10.6 3.2 10.8-2.1-8.4-8.8-19.8-14.3-30.5-20-8.3-3.5-16.7-7.3-25.4-9.4m9.8-22c-2.7 3.2-3.5 8.8-2.6 13 2.5 3 7.6.5 10.6 3.4 3 1 5.7 5.2 9 4.8 2.3-2.5 7-4.7 7-8.5-3.6-6-13-1.5-17.2-7.2-2.2-1.8-4-4.4-6.8-5.5m-32.6-10.6c-3.3 1.1-11.7-1.5-9.6 4.2 0 5.7 2.7 12.4 9.1 12.8 4.7 2.4 9.6 7 15.4 4.5 3.1-.8 3.2-4 1-6-2.6-3.8-1.7-11.1-7.4-12.2-2.7-1.5-5-3.9-8.5-3.3m-79.5 20.3c-5.4.2-8 7.5-3.6 10.8 6.8 4.2 14.6-2 21.9.3 11.2 2 20.6 11.6 32.3 11.4 5.4-2.4 11.7.8 17.1 1.8 3.3 1 9 1.1 11-2.2-2.2-4.1-7-6.5-10.2-9.8q-13.6-.8-26.4 3.7c-6 1.2-11.5-3.9-17-5.6-8.3-3.3-16-9.5-25.1-10.4m14.8 20.4c-2.6-.3-9.2 2.3-6.1 5.6 5.6 4.1 13.8 9.1 20.7 5.4 4.5-3.3-2-8-5-9.2a22 22 0 0 0-9.6-1.8m2 24c-3.7.7-10.8 4.8-6.7 9 1.3 1.9 4.2 5 6 2 3.8-2 10.6-1.5 12.2-6a27 27 0 0 0-11.6-5m19.5 19c-5 1-11.5 2.8-14.3 7.4 2 2.5 1 6.9 4.9 8 6 3.3 14.9 5 19.8-1.3 3.2-1.9 5.8-6.2 2.3-9.2a18 18 0 0 0-12.7-4.9m-37.7 13.1c-4.6.2-9 2.7-9.6 7.7-2.3 5.5 3.1 10 3.4 15.5 3.3 3 8.7-.3 9.6-4.3 3.4-5.5 5.4-16.9-3-19zm5.3 43.5c-7 1-8.7 11.4-4.7 16.5 3.4 4.3 7.9 9.4 13.5 10.2 3.5-2.5 1.9-8 3.8-11.5.6-4.1 4.2-11-.6-13.7-3.8-1.3-8-1.4-12-1.5m-27 10.5c-4 1.3-10.4 3.3-10.4 8.2 3.9 5.4 12 1.2 17 4.8 2.2.8 8.7-.2 5.5-3.6-3.3-3.6-7-8.5-12.2-9.4m-13.9-25.2a38 38 0 0 0-13.2 10.9c2.8 4.2 10 4.3 14 1.5 2.9-1.8 8.2-4.5 7.1-8.5-2.3-1.7-5-3.3-7.9-3.9m-31.7 11.8c-4.8 1-10.7-.8-14.9 1.8-.4 5.4-5.8 8.5-7.6 13 3 .8 6.5-1.3 9.6-.2 6.6.6 9.9-6.7 15.2-9.2.6-1.8.8-6-2.3-5.4m43-45.3c-9 0-17.5 4-26.2 4.4-15.2-3.1-31.8-6.1-46.7-.7-4 3.8-5.4 10.1-6.2 15.4 1.8 9.8 13.1 14.2 22.1 12.6a28 28 0 0 0 20-7.8c13.4-9 31-7 45-14.2 1.7-2 4.4-5.4 3.3-7.9q-5.3-2.2-11.3-1.8m-18-41c-8.1.5-18.4 3.6-21.4 12 .2 7 9 9.4 14.6 11.1 9.5 2.3 17.5-5.7 27-4.7 5.4.1 16 .1 15.4-7.7-4.4-6.2-12.4-7.7-19.4-8.4a55 55 0 0 0-16.2-2.3m5.9-22.5c-3-.2-5.8 3.8-2.5 5.7 3.2 2.6 7.7 8.7 12.4 6 3.3-4.5-3-8.6-6.3-10.8q-1.7-1-3.6-.9m40.6-40.6c-8.6.7-19.4 2.8-23.8 11 6 6.4 16 6 24 7.7 14.5 1.6 29.4 4.9 43.8 1.8 5-.8 3.7-7.1.2-9.1-11.1-8-25.6-8.5-38.6-11.2q-2.7-.3-5.6-.2m-57.2 16.9c-5 .8-14.4-1-15.2 6.1.9 6.8 10 7.2 15 8.9 5.4.5 8.9-5.7 11-9.5-3.2-2.7-6.2-6.4-10.8-5.5m-47.4 6.7c-4.3.6-5.8 5.7-7.4 8.9a42 42 0 0 0 19.2 12.2 31 31 0 0 0 16.7-9.7c-1.2-4.3-7.4-4.7-10.9-6.4-5-.9-10.8-.5-15-4.4q-1.1-.8-2.6-.6m-40.7 20.2a27 27 0 0 0-17 14c3 6 9.5 9.7 16.3 9 7-.4 15.1 2 21.3-1.9 2.5-3 6.4-7 5.9-11.2-2.5-4.8-7.7-6-12.3-7.5a41 41 0 0 0-14.2-2.4m58.4 11.5c-11.1 0-15.7 11.4-21.6 18.8-10.3 9.7-25.8 7-38.5 5-10.7-1.6-24.5-1.2-30.3 9.8-5 8.4-.2 19.6 8.7 22.9 7.9 4.3 17.5 3.8 26.1 2.5 14.9-7.5 23.8-23 39.3-29.9 3.2-1.9 6-4.8 10-4.6 9.3-4.4 18.1-11 24-19.5.8-3.2-4.8-2.4-6.6-3.6q-5.5-1.4-11.1-1.4m-62.6 77.1c-17.1-.6-34.8 11.7-37.5 29-1.2 7 7.9 7.6 12.4 9.4 10.2 2.5 19.4 10.3 30.5 8 15-2.2 31.2-10.2 36.3-25.5-.4-7.5-7.8-13-14.3-15.5-8.6-4-18-5.7-27.4-5.4m-2.4 58.3c-6.7.7-14.1.5-20.1 3.3-6.8 1.6-15.7.3-20.3 7-6.7 8-15 17.3-14.4 28.4 3 7.6 13.6 5.7 19.2 2.2 7.8-6 14.6-13.3 23.4-18 8.1-6.4 19-11 23.3-20.6-3.3-2-7.3-2.5-11.1-2.3m-75 45.3c-6.4-.1-14.5 7.3-10.6 13.8 3 3.7 7.5-1.9 9-4.5.6-3.2 8-5 5-8.7a6 6 0 0 0-3.3-.6m-66.8 24.7a50 50 0 0 0-11.9 16.7c-.5 5.8 1.9 14.3 8.4 15.5a13 13 0 0 0 9.8-5.8c-2.8-5.9-8.2-12-4.9-18.9.1-2 1.4-6.9-1.4-7.5m23.7-4.9c-6 1.9-6.7 11.7-2 15.4 3 2 5.8 7.7 10 6.2a38 38 0 0 0 4.3-17.8c-1.5-4.2-8.9-3.1-12.3-3.8m66.8-89.1c-4.5 1.7-8.3 5.7-12.9 7.6a168 168 0 0 0-29 20.4c-5.8 2.4-12.1 3.6-18 6.1a31.4 31.4 0 0 0-25.1 36c3.6 9.2 16.8 8.5 23.5 3.1 7.4-4.4 11.4-12.1 17.5-17.9 13.9-8.7 28.6-16.3 40.7-27.6 5.6-3.5 9.6-9.2 9.3-16-.4-3.7 4.1-10.5-1.8-11q-2.1-.8-4.2-.7m-2.5-52.2c-10.1.3-17.8 7.3-24 14.6-7.7 8.7-16.4 19.2-16.3 31.5.9 7.7 10.4 7.8 16.1 6.1a73 73 0 0 0 39.8-26.7c3.7-6.5 2.2-15.6-2.2-21.2-4.7-.9-8.3-5.1-13.4-4.4m9.9-67.8c-11.6.5-18 12-26.6 18.2-10.2 7.4-24.4 11.4-30 24-2 4.7-7.1 8-8.8 12.5 1.7 12.5.9 25.5 3.8 37.8 2.2 2 4-3.3 5.5-4.4 12.5-18.1 31.3-30.2 46.3-46 9.1-10 21-18 27-30.4 3.1-6.8-5.5-10.8-11-11.3a30 30 0 0 0-6.2-.4m-100.4 19.2c-7.6 5.4-2 15.5-2.5 23 1.1 7.5-1.5 18.4 7 22.5 5 2.5 8.8-2.7 10-6.9 2-3.9 4.1-9 9.2-8.8 9.6-6.8 14.7-18.3 19.8-28.7 2.8-4.5-2-9.2-6.6-8.7h-3c-11.4 1.1-23.6 2-33.9 7.6m21.1 77.3a61 61 0 0 0-31 20.2c-5.2 5.8-4.5 15.5 2.2 20 7.9 5.8 17.9 8.2 27.2 10.7a31 31 0 0 0 19.3-16.3c2.7-7.5-5.2-12.8-6.3-19.7-2.2-3.7-.2-9-3.5-12a17 17 0 0 0-7.9-3m-39.4 76.3c-9.4 1.2-20 1.3-28 7.1-6.6 6.7-1.6 16-.8 23.8.1 7-2 17.2 6 21 3.9 2.2 8-.4 9.2-4.5 2.6-4 3.8-11.3 9.9-11 5.6-3.6 5.5-11.7 8.1-17.3 1-5.5 4.5-11.2 3.6-16.8-1.8-2.4-5.3-2.2-8-2.3m-20.2 60.7c-6.7-.3-8.8 8.1-8.9 13.3 1.5 9.7 10.2 17 18.7 20.6 5.5-.6 3.8-8.1 5.3-11.9.6-6 5.1-12 3.3-18-3.8-4.6-11.2-2.8-16.5-4zm-12.1 24.6c-6.4-.4-12.8 5.4-12.8 11.7.8 5 7.5 4.3 9.1.3 2-3.9 8.1-6.2 7.6-10.9-1-1.2-2.6-1.1-4-1.1m-9.7 24.5c-6.6 1.8-7.7 12.4-15.7 11.5-2.6 0-8.3 1.4-7.6 4.7 7 2.7 15.4 5.5 22.3.7 1.5-.6.8-2.2 2.6-1.5.4-2.5 3.9 0 4.8-2.7 4.1-5.1-1-11.8-6.4-12.7m-118.2 132.5c-4 1.6-9.3 1.3-13 3.7-1 3.2-.6 7.4 2.5 9-1.2 5.7-8.7 9.8-6.1 16.4.8 4.6 5-.2 7.2-.8 4.3-2 11.3 1.2 13.1-5 4.6-6.5.8-14.6-1-21.4q-.7-1.8-2.7-2m-11-44.6c-9.2 1.5-16.6 7.7-24.4 12-1.3 3-.6 6.9-.5 10 5.1-.6 11-.5 13.4 5 2.3 3.5 5.7 7 10.4 5.5 3.2.3 6.6-2.4 4.3-5.5-1.1-2.5-3.8-6.5.6-7.4 5.7-.6 12-9.2 4.1-11.7-2.3-.9-6.7.6-5.7-3.5-.2-1.6.4-5-2.3-4.4m-14.3-30.4c-6.6 2.7-10 10.5-11.6 17-.6 3.5-1.2 9.8 2.9 11.1a41 41 0 0 0 14.6-22.7c2.6-6-2-4.8-6-5.4m53.2-37c-5.5 2-11.2 7-11.7 13 .8 2.5 4.7-.4 5.1 2.7 4.6 10.7-5.3 19.7-7.8 29.6-.5 2.8-3.3 7.4-1 9.7a42 42 0 0 0 16.9-34c1.5-6.4 2.7-13.8.4-20.3q-.7-.8-1.9-.6m23-43.1c-5 2.3-7.2 7.6-6.3 12.8 1.9 6.9-7 10.3-5.7 16.8 2.5 3.2 7-1.4 10-1.6 5-.5 12.7-4 10.6-10-1.2-5.4.8-12.6-5.2-15.7-1.1-.7-2.1-2-3.5-2.3m-55.2 25.7c-11.2 1-20.3 10.8-22.3 21.5-.3 6-.5 12.4 0 18.2 6.5.9 13.5-.5 17.6-6 5.9-5.3 9.3-12.3 13.2-19-2.1-5-4.3-10.7-8-14.7zm-2-42.5c-9.4 1.7-14 11.7-17 19.7-2 3.6.6 8.6 5 7.3 8.2-2.8 13.2-11.5 16.6-19 1.3-3-1-8.2-4.7-8m39.3-35.2c-2.9 1.3-5.2 3.5-8 5-3.7 3.6-9.5 6.6-10.7 12 2.7 3.3 7 7 5 12-2.3 10-10.3 18.6-10 29.2.6 2.7 5.1.3 4 4.3.9 5.9-.8 12.6 1.6 18 3.8 2.6 8.5 0 9.6-4.2 2.7-6.4 10.4-14 5-21.1-1.8-4.2-4.5-9-9.9-8.4-4.2.2-3.5-4.6-1.8-7 5.1-13.1 13.3-24.7 18.7-37.6.2-1.7-2.2-2.2-3.5-2.2m52.7 29c-4.6 2-10.5 3.2-13.7 7.1.8 3.5.5 7.3 1.2 10.6 3 0 7.8-1 9-4.2.7-3.9 5.4-6 5.2-10.6.1-1.2-.2-3-1.7-3m15.6-46c-2.5.9-3.2 4.2-6.2 4.7-6.8 1-3.4 8.9-5 13.6.4 4-4.5 8.5-.3 12 1.2 3 6.5 4.5 7 .2 2-5 1.7-10.7 3.3-15.8 1.7-4.3 8.5-8.7 4-13.4q-1.2-1.3-2.8-1.3m-31.4-1c-14.5.9-22.2 16.7-23 29.5-.6 6.5 0 15.6 6.6 18.8 9.5-3.7 15.8-13.7 17.6-23.6 1.1-6.6 3-13.2 4.6-19.7-.4-2.7-3-5.4-5.8-5m-10-24c-11 4.7-17.7 16-21.8 26.8 2.1 3.8 7.5-.2 10-1.8 7.7-5.5 15.2-14.8 13.5-24.7q-.7-.5-1.8-.3m-5.8-48.6c-11.6 3.1-19.6 13.5-27.4 22-1.9 3.1-6.6 6.8-5.3 10.7 10.7 2.5 18.5-7 25.4-13.5 5-5 10.2-10 13.6-15.8-1.9-1.4-3.7-3.5-6.3-3.4m52.1-5.1c-6 1-10 6.5-15.4 9.2-6 3.6-11.8 10.7-7.9 18 3 5.4 7.4 12.7 2.2 18.2-2.8 3.1-7 7.6-2.9 11.5 2.8 3.3 6.3 7.4 10.7 8.1 6.7-3.2 9.5-11.3 15.3-15.9a46 46 0 0 0 5-32.7c-3-5-3.5-11-3-16.8-1.1-.5-2.8.4-4 .4m20.6-48.3c-2.4 2-5.5 2.7-8.3 3.5-2 3.7-3.3 9.8-.1 13.2 2.3.8 4.4 2.8 2.4 5.3-1.6 3-5 8.4 0 10 4.6 1.6 8.2-3 7.7-7.3.4-5.3 9.2-5.3 8.4-10.7-3.7-4.3-6.4-9.4-9.7-14zm9.2-49c-4.9.8-2.2 7.6-3.7 10.9-.4 6.2-5.4 11.3-5.5 17.4 4 2.3 9.6.5 14.2.5 3-1.1.6-5.7 2.2-8 2.8-6.6 1.9-15.9-4.3-20.2a6 6 0 0 0-3-.6m-24.5-31.7c-8.3 4.7-20.8 7-23.8 17.5 1.3 3.7 6.8 1.2 9.7 1.4 10.2-1.9 21.2-.7 30.9-4.7 2.8-3.2-3.2-6.7-4.5-9.3-3.4-3.2-6-10.5-11.2-5.4l-.9.4zm-3.9 34.8c-8.7 2.5-15.4 10-24.7 11.1-10.2 2-19.5 9-24.9 17.7 2.2 10 5.8 21 .3 30.7a38 38 0 0 0-3 28.2c3.8 6.2 12 2.5 16.9-.2 6.9-4 15.1-6.9 20.6-12.8.2-2.3-2.7-4.2-1.3-6.8 2.4-10.5 14.3-15.8 15-27a55 55 0 0 1 6.2-24.2c2.2-5 4.4-12.6-1.8-15.8a5 5 0 0 0-3.3-.9m-87.2 47.8c-19.5.1-36 15.7-42.7 33-2 5-.9 14 6.2 13.4 9.9 0 20-2.5 28-8.4a47 47 0 0 0 18.2-14.5 22 22 0 0 0 6-13.3c-1.2-7.5-8.8-10.8-15.7-10.2m2.7 54.4c-20.5 2.2-38.1 15.5-51.6 30.3-3.9 4.2-9 12-3 16.8 6.5 5 16.4 8.6 17.8 17.9-1 5.8 4.8 10.5 9.4 13 4.8 2 11.2 1.9 13.5-3.7 3.6-6.3 10.2-12.2 10-19.8-2.1-4.6-8.7-1.9-12.6-2.7-3-.2-9.6 1.1-8.4-4 2-9.8 11.6-15.6 17.5-23 5.6-6.4 12.1-12.9 15.3-21-.3-3.6-5.1-3.9-7.9-3.8m-49.6 84.7c-10.6 2.6-17.7 12.5-23.2 21.3-4.3 6.3-.9 13.6.1 20.2.7 4-3 9.1 0 12.4 7.9 3 13-5.4 16.7-10.8 4.7-7.6 7.6-16 12.3-23.6 2.5-5.9 3.3-15.4-3-19.1q-1.5-.6-2.9-.4m-30.1 91c-6 0-9.9 5.6-14.3 8.7-1.6 5.1-3.4 13.5 2.8 16 6 .8 13 1.8 18.7-.7 3.8-3 8.6-6 8.3-11.6 1-5.1-1.6-10.8-7.2-11.5q-4-1-8.3-1m-12.6 41.1c-6.5 1-7.5 9.3-9 14.5-1.4 5.1-.4 11.4 5.2 13.4 4.7 1.7 7.3-5 9.5-8 1.5-4.4 8.1-9.3 3.1-13.5-2-3-4.7-6.7-8.8-6.4m13 44c-5.8 2.2-2.8 9.3-1.9 13.6 2.9-2.3 9.2-8.4 4.1-12.2-.6-.5-1.3-1.4-2.2-1.4m8.6 23.2c-4 2-8.4 7.8-5.3 12.3 3.6 4.7-2.8 9.2-1.9 14.2-.6 5.4-7 12.6-.9 17 4.1 2 9.7 2.4 13.8.6a24 24 0 0 0 6.6-19.9c-.5-5.4 1-11.9-1.6-16.7-3.6-.5-6.3 4.5-9.4 4.3-1-3.2 2.4-10-1.3-11.8m25.6 63.9c-4 1.2-11.7.6-12.3 6 1.1 4.6 5.6 7.8 8.8 10.4 1.2-4.8 4.6-8.5 7.3-12.3.5-2.4-1.2-5-3.8-4.1m-18.1 36.8c-8.3 1.6-3.2 15-11.4 17-3.6-.8-3 3.2-1 4.7 1.6 3.7 6.4 4.8 8.9 1.2 4-5 9.1-10.7 9.7-17.4-.4-3-3-5.7-6.2-5.5m-17.4-18.4c-3.5 1.3-6 6-3 9.1 2.4 1.4 4.7-3.4 5-5.5.2-1.4-.3-3.5-2-3.6m-15.4-28.5c-6.6 2.7-8.7 11-10.2 17.4-1 5.2-2.6 13.8 4.1 15.8 6.9-1.2 11.2-8.4 10-15.1-1-5.2 2.4-10.8 0-15.6-1-1.2-2.2-2.6-4-2.5m-108 94c-3.6.8-2 6.3 1 7 3 3 13.6.8 9.9-4.3-3.2-1.9-7.4-2.1-11-2.6m47.1-37.1c-6.3 3.1-12.6 6.5-19.7 7.6-4.5.2-8.8 4.8-7 9.2 7.6 1.4 15.9.5 23.2-1.7 4-2.3 11.3-7 7.1-12.4-.8-1.1-2-2.8-3.6-2.7m21.3 25c-3.8.4-7 8.8-1.7 9 4.5.6 8.8-5 4.3-8.1q-1-1-2.6-.8m14.1-23c-4 1.7-1.3 7.7-.2 10.7 1.5 3.4 5 .5 4.5-2.2.4-3-.1-8.6-4.3-8.5m-6.6-28.6c-4.7.5-5.8 8.8-1.2 10 3.9-.6 6.7-5 3.6-8.3-.5-.9-1.3-1.8-2.4-1.7m-27.5-5.4c-3.3 1.1-.5 6.4-.8 9 .8 5.6 7 11.5 12.8 10 4.3-3.2-2.7-6.1-3.9-9 .9-2.1 3-4.8-.7-6-2.1-1.6-4.5-4-7.4-4m31-38.6c-6.1 1.6-9.8 9.3-8.4 15.2 1.6 5 7.3 9.7 12.5 6 4.5-3.4 3.7-10.5 2.9-15.5-1.2-2.8-3.8-5.8-7-5.7m-25.1-2.3c-5.2 1.3-4.2 9 .3 10.6 5.3 2.7 7.2-6 3.7-8.9a5 5 0 0 0-4-1.7m50.4-63.9c-5.3 1-10.4 5.5-11.9 10.6 2.3 12.3.2 25.3 4.1 37.3 1.1 4.6 6.6 5.7 9.7 2.5 4.5-2.6 7-8.2 3.9-12.8-3.8-4.6-12.7-7.8-10.4-15.3 2.5-6.8 8.4-12.4 9.7-19.6-.8-1.8-3.2-2.8-5-2.7m-34.5-7.2c-4.3-.7-9.3 1.5-9 6.5-.2 8.9-.6 17.8-4.1 26-1.2 5.8-5 12 0 17 1.4 3.3 6 8.7 8.8 3.3 2.8-9.5-.6-20.4 4.1-29.6 1.8-6.1 6.4-10.4 9.2-16 1.9-3 .2-8.3-4.2-7.2zm-12.3-22c-2.3-.3-7.8.8-5.7 4 2.6.6 9.7.9 8.5-3.5-.8-.7-2-.4-2.8-.4m17-29.8c-3.5 1.2-2.6 7-3.6 10-.6 5.3-.8 13.5 4.8 16 4.7.3 13.6.3 12.8-6.6-1.3-6.1-2.7-13-6.7-18a17 17 0 0 0-7.2-1.4m-28.4-23.2c-7.7.6-8.5 9.8-4.3 14.8 2 4.9 2.2 13.8 9.3 13.5 6-1.7 10.7-9.3 6.4-14.9-2.8-4.5-4.8-13.3-11.4-13.4m48.9-16.9c-8.7.2-15.3 7.1-21 12.8-2.7 3.1-.2 8.7 4.2 7.5 9.8 1 20.2-2 25.9-10.5 2.3-3.6-2.4-12.9-8-9.8zm-41.3-34.2c-4.5 2.7-7 9-7.2 14.1 1.6 5.5 5.2 13 12.2 11.2 3.8-2.6 5.4-8 6.7-12.3a23 23 0 0 0-11.7-13m67.5-55c-16.2.2-34 8-41.5 23-3.3 6.2-1 13.4 3.9 18 8.7 11.1 1.2 26.4 5.7 38.9 1.6 4.7 6.5 6.5 11 5.3 6.8.1 6.2-8.6 7-13.2 1.1-7.9 0-16 .3-23.8 6.6-16 21-29 23-47-.3-2.5-7-.5-9.4-1.1m-88.4 5.2c-3.2 1.3-2.9 6.1-3.3 9.1-.3 4.6 1.4 10.5 6.9 10.8 3.6 1 11.3.8 9.7-4.9-2-6.3-6.8-12.7-13-15zm95.7-80.6c-11.6 1.1-20.2 10.4-30 15.7-14.1 10.2-31.5 17.8-40.4 33.7-3.5 6.8-9.4 15.4-5.3 23.1 6.6 8.8 20 7.6 28.7 2.7a122 122 0 0 0 58.2-57.7c3.2-6 2.1-15-5.4-16.7q-2.8-.8-5.8-.8m-57.8-25.3c-13.3 1.3-26.6 11-29 24.6-2 7.7-7.7 13.9-8.6 21.9-2.5 9.4-8.2 20.2-3.3 29.8 1.4 2.7 4.6 4 6.4.8a391 391 0 0 0 33.8-37c1.5-5.4 7.9-7.3 11.2-11.5 5.2-4 9.3-10.5 6.3-17-2-6.9-8-12.7-15.6-11.7h-1zm84.1-45a66 66 0 0 0-40.4 18.9c-3.6 4.4 2 8.8 6 9.8 3.7 1.5-2 5.6-2 8.2-2.6 7-7.4 14.5-6.6 22.2 5.9 2.4 12.8 2 18.7 4 10-3.6 16-12.6 20.6-21.7 2.4-3.5 4.2-7.8 1.8-11.8.7-3.2 4.7-4.9 5.7-8.3 2.4-5.2 6.9-10.4 6.9-16.3-1.9-3.8-6.8-5-10.7-5m39.7-57c-9 2-13.6 11.8-21.3 15.8-5.7 1.6-2.2 9-3.7 12.9-2 3.7-9.2 7.1-6.7 12 7 2 13.2-4.9 17.5-9.6 3.8-5.5 5.7-12.3 11-16.8 2.5-3.8 8-8.8 5.5-13.7q-1-.7-2.3-.6m42.7-13.2c-11.7 2.5-19.8 13-26.8 22-10.3 16.1-18.6 33.5-27.8 50.2-2.5 6-1.6 17 6.9 17 14.3-4.6 24.5-16.7 36-25.8 9-8 20.1-14.7 24.7-26.4a26 26 0 0 0 2.1-26.4 17 17 0 0 0-15-10.6M1020 1197c1.4 1.3 4.9-6.5 3.6-7-.5-.3-4.5 6.4-3.7 7m22 5.9c-6.2 1.6-4.9 10-3.4 14.7.9 3 4 5 6.7 2.5 6.8-4.1 6-17.3-3.3-17.2m-29.6 3.9c-2.6.6-8.2 3.3-4.7 6.4 1.9 4.1 6.8 6.5 10.6 3.3 3.1-1.3 4.7-5.8.7-7.2-2-1.1-4.2-2.6-6.6-2.5m29 31.1c-4.6.5-13.7 2.5-12.2 9 3.6 3.8 9.8 5 13.9 1 4.1-1.6 5.2-7.3.8-9.3a5 5 0 0 0-2.6-.7m21.2 19.2c-4 .4-8.3 2.6-9.8 6.3-7.7 1-16.5 2.7-22.3 8.4.6 2.8 5.7 1.8 7.8 2.8 9.5 2.7 19.7-3.3 23-12.4 0-2.2 5.5-2.8 3-4.9zm-30.4 35c-8.3 1.3-16.4 2.8-24.8 3-6.6 1.4-10 10.5-5.5 15.7 2 6.1 9.9 5 13.6 1.2 5.8-6 14.8-9 19.2-16.3 1-1.8-.5-4-2.5-3.7m-83-42.8c-3.3.4-6.3 2.4-2.7 5.6 8.9 14.2 24.4 21.9 39.6 27.3 3.8 1.1 10.8 4.6 12.3-1.3 2.1-5.9-6-7-9.3-9.6q-19.5-9.7-37.5-21.6a5 5 0 0 0-2.3-.4m22.2-12.2c-4.1 1.5-.4 6.8 1.5 8.8 7 7.4 18 8.2 27.1 11.6a57 57 0 0 0 31.2.8c3.8-3-1.5-6.8-4.5-7.5a12 12 0 0 0-13.8 1c-10.1 1.2-21.7-.6-29.1-8.4-3.7-2.7-7.7-5.9-12.4-6.3m17.1-11.3c-7.4.6-6.5 11.6-1.1 14.5 3.1 2.6 7.4 4 10.8 1 2.5-1 5.1-3 3-5.7-2.7-4.4-7.1-9.7-12.7-9.8m-2-23.8c-2.5-.4-4.5 4.5-1.3 4 1.2-.4 4.5-4.1 1.3-4m-8.9-18.2c-5.4-.6-11.6 4.2-9 10 3.8 5.8 11.2 1 15.8-1.1 3.8-1.4 9.5-3.5 11.8 1.4 1.9 2.3 4.5 7.9 7.9 4 4-2.3 4.3-7.7 2.4-11.4-8.8.7-17.5-.7-26-2.8zm70-12.7c-5.5 1.9-2.2 8.8-.7 12.4 1.5 4 6 11.2 11 7.5 4.4-3.1 6-9.4 2.1-13.6-3.5-2.8-8-5.5-12.4-6.3m13.8-27.6c-5.7.2-6.9 12.2.2 10.7 5.4 1.1 6.1-6.3 6-9.9a21 21 0 0 0-6.2-.8m-56.4 13c-2.9.3-8.6 1.6-8.2 5.2 6 6 17.7 3.8 21.7 12.5 1 3.1 2.7 6.3 6.3 6.5 2.4 2.3.8 8.2 4.5 8.9 4.5-.8 8.2-8.3 3.9-11.1-1.7-.7-7.4-.6-4.7-3.5 1.4-2.2 5.3-6.8 2.5-9-5 .6-9.3-3-13.8-4.5-3.8-2.2-7.4-5.8-12.2-5m-19.2-14.4c-3.2-.2-6.8 2.8-4.4 6 1.6 4 7.3 1 9.3-1 0-2.1-2.5-5.2-4.9-5m-21.5 10.7c-3.7 0-8.4 1.5-8.3 5.9-3.3 4 3 8.3 6.3 9.5 5.5 3.4 15.3-2.7 11.5-9.3a9 9 0 0 0-9.5-6.1m-23 44c-5.5.8-9.9 6-11.8 11 2.3 8 11 11.5 18.5 12.8 5.2.5 8.7 8 14.3 4.8 3.4-1.9 1.1-6.5 2-9 3.5 1.5 11.6 3.3 12.4-2.1-3.7-4.9-11.6-.4-15.7-5-3-3.5-7.8-4.7-11-7.6-.4-3.7-5.6-5-8.6-5m-28.3-13.5c-4.7.4 1.2 9 3.2 4.3.9-2.4-.1-5-3.2-4.3m-1.9-22.5c-4.3-.3-7.4 5-4 8.4 5.5 9.6 18 9.1 26.2 15.5 2.7 1 5.3 1.7 7.5 3.3 3.4 1.3 9.8-.5 7.3-5.1-6.9-11-19.5-17.4-31.5-21.4a19 19 0 0 0-5.5-.7m20.8-24c-6.7.6-2.4 11.1 3 10.3 3.3-.6 5.5-4 2.6-6.7-1-2.2-3-4.1-5.6-3.6m-28.6 3c-2.5.4-9.5 0-8.3 4.2 2.7 3.1 8.2 2.8 11.7 1.4 2.6-3 .5-6.4-3.4-5.5m25.7-28c-4.7 0-3.8 7.3.7 6.4 3.3 1 6.6-3.3 3-5.3q-1.6-1.2-3.7-1.1m367.7-100c-5.7 3-10.4 9.8-10 16.4 1 3.2 4.4 7 7.9 6.7 4-5.1 2.4-12.5 3.2-18.6-.4-1 .5-4.3-1-4.5m22-20c-4.8 1.6-3.2 8.5-5.3 12.2-2 7-5.1 15.7-1.1 22.4 2.8 2.8 8.8 3.4 9.5-1.5 2.2-9.6 5.4-20.6 1.2-30.1-1-1.4-2.4-3-4.3-3m54-.9c-5.5 2.4-8 9-11.3 13.8-2.5 5.5-7.6 10.3-9.3 16 1.2 2.8 5.1 9.1 8.5 5a98 98 0 0 1 17.3-13.7c6-6 1.5-16.3-4.2-21zm-2-33c-6.2-.6-12.4 3.4-12.7 9.9-.5 6-1.8 13.9 2.9 18.4 4.3-2.2 5.4-8.7 10.5-10 5.7-3 9.2-11.2 4-16.3a5 5 0 0 0-4.8-2m32.8 10.5c-13.6 1.5-22.8 19.6-15.3 31.3 5.4 7 18.4 5.8 20.1 16 1.3 4.4 3 12 8.7 12.3 8-4.2 8.3-15.2 7.4-23.1a78 78 0 0 1-4.3-20.6c-1.1-8.6-7.2-16.6-16.6-16M1401 922c-7.4.7-15.4-.5-22.4 2.3-5.8 4.8-1.4 12.8.2 18.6 3.6 9.2 11.6 19.6 22.5 18.7 8.6-3.7 9.7-14.6 9.1-22.8-.6-5.4 1-13.4-4.5-16.7q-2.4-.2-4.9 0m-55.6 3.7c-4.9-.5-5.2 5.3-3.4 8.4 1.6 7.2 8.9 10.7 15.7 10.4 1.9-.3 6.4 1.7 7.1-.7-4.3-6-7.7-13.4-13.9-17.6q-2.7-.6-5.5-.5m-49 8.7c-3.8.8-1 6.6-1 9.2q2.5 10.5 5.8 20.7c6.2-.8 13.8-2.4 17.6-7.8 1-11.5-11.8-21.6-22.3-22.1m-43.6-.8c-3.6 2.1-.6 8 1.6 10.1 2.3 2.6 9.2 1.3 6.9-3a14 14 0 0 0-8.5-7m36.6-23.8c-2.4 2.5-2.9 7.7-1.7 11 3.2 2 8-1.9 5.6-5.4-1-1.9-1.7-5-3.9-5.6m48.8-26c-5.8-.6-4.8 6.7-4.7 10.3-1.2 5.2.2 9.3 5.7 10.1 2.3 1 7.4 1.9 6.7-2.2-1-6 5-11.8 2-17.4-3-1.3-6.6-.6-9.7-.8m38.4-13c-10.5 1.2-12.5 13.6-12.5 22.2-.1 7.8.7 17.5 7.3 22.6 6.3 1.7 10.2-7 16.7-5.6 4-.5 12.3-2.2 9.7-8-2.7-10.7-3.4-24.8-15-30q-3-1.4-6.2-1.2m-19.4-67.7c-3.3 1.7-1.4 7-2.3 10-.1 16.6-2.5 33.7 2.4 49.8 2 2.9 4.7-2.3 7.3-2.4 9.7-3.4 21.9-1.1 30.3-8 3.1-5.4-4-9.6-6.7-13.6a236 236 0 0 1-28.3-34c-.8-.8-1.6-1.9-2.7-1.8m-44.7 17.3c-6.2 2.5-1.7 10.5-5.5 14.8-2.3 2.6-4.9 8.1 0 9.6 3.5 2.8 7.5-.5 8-4.3a51 51 0 0 1 8.2-15c-3.6-2.1-6-10.1-10.7-5.1m-7.5-29.2c-2.6 1-1.2 5.2-3.6 6.8-2 2.6-.4 6.6 3.2 5.8 3.4-.3 8.7 1.4 11-1.8-1.5-4-6-9.8-10.6-10.8m-24.5 21.5c-8.3 2.4-12.4 11.8-14.7 19.4-2 4.8 2.5 7.8 5.8 10 2.6 2 7.7 7.4 10.4 3 1.2-5.6 3.4-11 7.5-15.2 4.3-4.8 3-12.8-3.2-15.2-1.8-.9-3.7-2-5.8-2m-46.5 27.6q0 8.6-4.8 15.5c-1 2.8-2 9.3 2.9 8.2 4.3-.1 8-3.2 8.5-7.5 2.5-4.2 11-6.2 8.9-12.2-3.1-5-10.7-4.3-15.5-4m13-34.6c-4.6.1-2.3 6.3-6.1 7.6-2.6 1.6-8.3.7-7.6 5.4 1 5.3 6 11.9 12 11 5.3-3 6.4-9.9 10.8-13.9 3-5.2-4.6-10.2-9-10m-20-17.5c-3.9 3-8.4 6.2-10.5 10.5 1.9 5.3 10 11 15 6 4.4-3 1.5-11.3-4-10.2-2.9-.4-.5-1.4.2-2.4.3-1.2.5-3.4-.8-3.9m19.8-19.4c-3.6.7-1.3 5.7-4.7 7-3 1.4-7.6 6-4.6 9 3.6-.4 7.7-3 10.7.5 4 2.6 4.7-3.7 4.2-6.3.4-4-.6-9.8-5.6-10.2m28.6 9.4c-6.1 2.5.5 11.3-4.7 14.8-3 2.3-3.7 10.5 2 8.8 3.7-1.6 7.5-6.6 11.9-3.1 3.3 3 8.6-.4 7-4.6-3.5-5.5-9-9.5-13-14.5q-1.4-1.4-3.2-1.4m15.5-18.7c-3.3 2-6.6 7-4.9 11 3.2.9 8.9 1.6 10.8-2 .9-3.3-2.8-8-5.9-9m-29.8-9c-4.2-.3-.4 3.9-.7 6-2 6.6 4.2 4.2 8.3 3.6 2.3-.6 8.7-1.6 6.6-5.1a25 25 0 0 0-14.2-4.4m13-14.2c-2.8-.7-4.5 2.4-1.3 3.5 3.9 1.6 8.3 5.2 12.6 4.1 3-6.6-7-8-11.2-7.6m95.9-24.2c-17.8 10.5-39.3 6.7-59 7.5-5.6.3-12-.7-17.3.4 8.4 8 16 17 21.3 27.2 5.3 6 14.6 3.6 21.5 2.7a55 55 0 0 0 37.3-24.5c3.7-5.5 7.4-12.2 7-18.8z" id="path36"/><path d="M1194.8 776.4c17 29.3 21 54.5 20.2 89.1 12-26.3 1-74.4-15.6-94.3-6.6-9.2-10.4-1.7-4.6 5.2" id="path37"/><path d="M1023.9 736.4a30 30 0 0 0 13.1-16.1c6.2-6.6 15.7-10.8 18.5-19.8-6.1-2.8-12.2-5.7-15.4-11.5-23.7 4.4-36 25-16.2 47.4" id="path38"/></g><g id="g50"><path fill="#fed6a5" stroke="#000" stroke-linecap="round" stroke-miterlimit="8" stroke-width="7" d="M1491.5 237.5a571 571 0 0 1-6 55.5c-23.8 14.8-44 70.4-50.5 104.5 1 25.7-2.8 51.9 3.5 77 4.3 15.1-.5 53.3 19 45 7-.6 13.6-2 19-6 3.2 17.3 5.7 35 12 51-2.1 13-3.7 25.5 4.6 41.1-3.5 31 12.7 57.4 36.7 39.4 1.4 13.6 8.9 24.6 22.2 24.5 15 0 18-13.3 18.5-26q4.8 7.1 15 7c17.2-.5 17.6-20.3 19.5-31.6 2.1 4.5 6 9.1 13.5 9.1 16.8 0 21.5-16.7 21.5-45.5 5.8-16 6-32.6 4.5-49.5 6.4-22.3 5.5-44.9 6.3-66.5 21-73.7 4.3-157.3-11.1-174.2l-2.2-54.8z" id="path39"/><path fill="#fac185" d="M1494.7 241q-1.7 26.2-5.7 52.6l-.3 1.5-1.3.9c-10.7 6.6-21.7 23.7-30.5 43.4a287 287 0 0 0-18.4 58.5c.7 19.3-1.1 38.5.4 57 14.3-17.2 10.2-48.4 16.1-72.9 6-24.7 16-48.1 35.5-66 18.4-17 42.7-14.7 69-3-11.2-20-27.4-28.3-47.8-26.7l2-.6 13.7-44.7zm141.1 42.8-42.5.5c38.6 36.2 54.8 82 48.7 143.7-1.3 13.3-4.4 29.6 5.4 37.4a289 289 0 0 0 .1-148.1 66 66 0 0 0-10.4-22.7l-.9-1zm-90 102.5c-22.1 8-45.5 20.7-47.8 1.2-15 26.3-16.9 59.3-11.2 96.3 15.5-8.5 19.4-28.8 23.2-49 2-11.2 56.5-35.8 35.8-48.6m-102 87.9h-1.7c2.2 8.7 2 21.4 3.7 31a24 24 0 0 0 3.7 10.6q1 1.2 2.3 1.3a8 8 0 0 0 4.3-.8l.5-.2h.6l1.2-.2c3.5-18.7 6.2-41.5-14.7-41.7m170.5 3.4-7 2.4-3.3 128.5 4.2 8.9c1.5 3.3 3.4 6 7.6 6.8a78 78 0 0 0-2.2-29.4c4.5-16.7 2.4-32.6.4-48.5 5.5-23.1 4.4-46 .3-68.7m-99 5.1c-1.8 25.3-4 50.5 1.5 75a219 219 0 0 0 3.7 46.8c-.2 14-1 28.2 2.7 40.5a33 33 0 0 0 4.4-2.8l3.1-2.3-6.2-154.1zm63 .6-19.5 2.4q3.9 39.4 0 76.8c1.7 16.2 2.7 32.3-.8 47.3 2.5 20.6 2.6 40.1-4.8 56.2 5.6-.4 8.3-2.7 10.4-6.4a41 41 0 0 0 3.4-16.3l.5-10.4 5.9 8.6q2.3 3.6 6.3 4.8a94 94 0 0 0-2.8-41.4c4.2-17 3.7-33.7 1-50.3q7.2-36 .3-71.3" id="path40"/><g fill="none" stroke="#000" stroke-linecap="round" stroke-miterlimit="8" id="g42"><path stroke-width="5" d="M1560.4 312.9c-17.1-30.3-44.2-31.5-74.9-19.9m10.8 95-8.2 20.8-4.6 26.2c-3.2 26.5 11.6 53.2-5.5 75.8m47.9-24.3c-1.3 23.7-3.3 46.8 3.1 70.5a97 97 0 0 0 1.8 47.5c-1.7 12.8-.8 25.7-.5 38.5m37.5-156.4c3.2 23 6.4 45.1 0 68.9 2.8 14.2 3.7 29.9-.8 50a145 145 0 0 1 2.5 33.5m36.5-158c2.4 20.4 2.1 40.4-.5 61.3 2.8 15.8.7 31-1.7 46.2 1.5 8.7.8 17.3.5 26" id="path41"/><path stroke-width="4" d="M1514.4 482.1c8.4 5.3 16.5 3.9 24.5 1.3m14.7.2c7 2.2 14 4.1 25.7-1.5m14.6-1.9c5.7 1.1 11.5 2 23.1-5m-129.9-91.6c5.9 3.6 12 5.5 19.2 2.1m114.8-86.6q13.5 18 14.4 38.9m-96.6 94.6c16.7-4.2 24.4-21.1 36-31.6 10.8-9.8 28.2-15.5 33.3-27.6m3.8 22.4c-5 11.1-14 15.6-22.2 22.6-7.6 6.3-11.4 14.5-24.2 17.9m-45.3-118.5c-13.7 1.7-26.5 6-35.8 23m64.6 42.3c-21.4 26.2-29.4 29.2-61.1 29.1m152.6 56.7c4.7 0 7.4-.6 10.2-3.3m-21 122.8c5-1.4 8.1-4.8 10-7.5m-6.5-40.5c4.5-1.2 7.4-4 10-7.1m-47.3 15.5c4.5-1 7-3.8 9.6-6.4m-11.5 52.7q5.8-1.7 9.7-6.5m-46.4 22.6c3.8-1.4 7.4-3.1 9.8-6.8m-26.8 5.6c-3.4-1.8-7.5-3.3-9.7-5.7m-26.2 6.2c-4.3-1.6-8.6-3.2-10.9-8.4m4.2-34.1c-3.4-1.5-7.1-2.3-9.5-6m49.5.5c-3.1-1.8-6.6-3.4-8.4-5.9m28.8 6.9a15 15 0 0 0 9.8-6.9m-90.5-121.9c4.4-2 5.8.3 5.8.3m-43.2 40c25.5-5.3 22.2 29.3 17.7 43" id="path42"/></g><g fill="#fff" stroke="#adc7d6" stroke-linecap="round" stroke-miterlimit="8" id="g49"><circle cx="1383" cy="140.75" r="129.812" stroke-width="10" id="circle42"/><circle cx="1615.5" cy="98" r="181.006" stroke-width="11" id="circle43"/><circle cx="1499" cy="-97.5" r="240.463" stroke-width="11" id="circle44"/><circle cx="1218.25" cy="24.75" r="175.003" stroke-width="11" id="circle45"/><circle cx="1032.25" cy="-67.5" r="156.5" stroke-width="10" id="circle46"/><circle cx="1799.375" cy="89.375" r="135.875" stroke-width="10" id="circle47"/><circle cx="1966" cy="-17" r="175.501" stroke-width="11" id="circle48"/><circle cx="2119.25" cy="-50.25" r="131.273" stroke-width="10" id="circle49"/></g><path fill="#fff" stroke="#adc7d6" stroke-linecap="round" stroke-miterlimit="8" stroke-width="5" d="M1018.5 55.3a146 146 0 0 1-92.7-58.5M995.3 9A52 52 0 0 1 971-3.5M1169 59a40 40 0 0 1-19.7-19.2m25.2 65.2c-23.9-5.9-39.2-22-49.7-43.7m75.7 98.5c-45.4-9.4-81.4-35.1-105.5-81.8m330.8-73.2a44 44 0 0 1-29-10m47.7 54.2c-20.3-.4-35.6-10.6-49.2-24.2m89.2 75.7c-33.7-.3-65.7-8.2-94.7-30.5m-27.8 70.5-5.2-4.5m-15 46.3q-9.3-5.9-15.5-16.3m.7 59.8a99 99 0 0 1-36.7-39.3m65.5 52.3c33.8 5.6 70.2.4 112.7-29.8m-74.7-10a70 70 0 0 0 55.7-21.5m-34.7-15.5c9.2 0 17-5.2 24.2-11.7m115.5 81.4c-32.9-15.6-61-41-78.5-87.2m75.8 39.3a68 68 0 0 1-32.3-39.8m43.5.8-7.5-6.3m27-99.5c19.8-7.2 33.6-16.4 45.5-42.5m-51.7 86A158 158 0 0 0 1673-3m-18.7 171a42 42 0 0 0 25.5-13.2m-46.5 50c26.6 1.4 46-8.7 60.7-26.6m74.7 17.1c44.6 4.9 102.5-17.7 123.8-51.3m-89.2 12.8a66 66 0 0 0 60.2-29.6m-44-7.5c9.5-.7 15.7-5.1 21.3-10.5m156.7-59.4c9.7-.9 16.6-6.2 23-12.3m-39 49.5c24.3 1.3 43.8-10.7 60.8-30m-96.5 67.8c45.5 6.8 105.5-20.1 127-52.5m45.2-17.5c33-3.7 74.2-30.1 93.3-59.3M2141 9a42 42 0 0 0 24.3-13m-575.8 248.8c44 9.5 100.9-12.2 127.5-45.3" id="path49"/><path fill="none" stroke="#000" stroke-linecap="round" stroke-miterlimit="8" stroke-width="6" d="M869.7-72.6A164 164 0 0 0 971.3 83.2a163 163 0 0 0 79.7 10.7 181.6 181.6 0 0 0 210.2 106.6c25 52.8 86.9 85 144.3 74.2a138 138 0 0 0 78.8-43.5 187.4 187.4 0 0 0 269.7-7.5 142 142 0 0 0 168.8-64.6 182 182 0 0 0 189.4-68.7c1.4-3.6 4.3-4 7.7-3.4 58.4.7 114.4-40.7 130.6-96.9" id="path50"/></g><!-- app4joy --></svg>