<svg xml:space="preserve" width="450" height="300" viewBox="0 0 450 300" id="svg1" xmlns="http://www.w3.org/2000/svg"><g id="g2"><path fill="#47a5ae" id="rect1" d="M0 0h450v300H0z"/></g><g id="g1"><path fill="white" d="M217.3 261.8c-.3-.7-1.1-.8-1.1-.2q0 .6.6.7t.5-.5m-1.3-.7c.3-.5-.2-1.5-.8-1.5q-1.1 0-.7 1.3c.3.6 1.1.8 1.5.2m2.9-.2q.6-.6 0-1.2c-.8-.7-1.9-.3-1.9.6q0 1 1.2 1.2zm1.2-2.6q0-1.4-1.5-1.2-.8.2-.8.9-.1.9 1.1.8 1.1 0 1.2-.5m-13.7-3c0-2.6 0-2.7 1.8-4.7 1.6-1.7 1.8-2.2 1.8-3.6q0-1.6.6-2.2.7-.5 1.2-1.7t1-1.3 1.8-1.2 1.9-1.2q.5 0 .5-.3.1-.4 1.3-.6 1.4-.2 1.6-1.3.6-2.2-2.2-1.1-2.8 1-4.1.3-.7-.3-1.1-.1a8 8 0 0 0-1.7 3.3l-1 2.7c-1.5 3.5-1.6 3.7-2.1 5.7q-.5 1.9-1.9 3.3t-1.8 2.5q-.2.9-.6 1.4c-.5.6 0 1.6.8 1.6q.7 0 1.2.6 1.3 1.8 1-2.1m21.7-5.9q.8-.8.9-1.3t.3-.5q.4-.1.7-1 .6-1-.1-1.1c-1-.4-1.2-.3-3 1.3l-2.2 1.6c-.6.2-.1 1.3.9 1.8s1.2.3 2.5-.8m-50.2-1q0-.7.6-1.2c.3-.2.7-1.3 1-2.3.4-1.8.5-2.9.4-9.1 0-1.9.1-4.3.4-5.4.4-1.8.6-2.1 2.1-2.8l1.6-.8 2.4 1.3c2.7 1.3 3.5 1.4 6.7.3 2.2-.7 2.6-.5 2.6 1.5 0 1.2 1.1 4.1 1.6 4.1q.3.1.8 1.3l1.2 2.6q.9 1.6 1.3.6.4-.6.3-3.3c-.1-1.5 0-3.1.2-3.4q.4-.7-.5-3l-1.6-4.1c-.9-2.5-2.7-3.9-4.3-3.5-1.6.5-4.4-.4-5.9-1.9-1.1-1-3.5-5.4-3.5-6.4-.1-1-4.8-5.2-8.6-7.6-1.7-1-4.3-7-4.8-10.9l-.6-3.2-.5-4.4c-.1-1.4-.3-2.9-.5-3.4q-.4-1-.1-1.6c.2-.3.4-1.5.6-2.6s.5-2.7.8-3.4c.7-1.6.7-3.2.1-7.2-.4-3.2-.4-3.3.4-4.1q.8-.8 1.2-.8.5-.1 1.7-1t1.7-1 .5-.3l2.9-1.1c4.2-1.2 7.1-.8 9.8 1.7.5.4 2.3 1.6 4 2.5 1.9 1.1 4.2 2.8 5.6 4.2a9 9 0 0 0 2.6 2.2q.2-.3-.5-2-.8-1.6-.9-2.2c0-1.1-1.3-2.6-2.8-3a10 10 0 0 1-6.5-5.2 48 48 0 0 0-6.5-10.5l-.8-1.3c-.9-.9-4.2-5.3-4.8-6.6l-2.5-3.4c-2.9-3.4-3.5-4.2-3.7-5.3l-.7-1.8a13 13 0 0 1-1.4-2.9c-.5-1.2-1.4-3-2-3.9a11 11 0 0 1-2.3-5.5c0-1.3-1.4-3.2-2.3-3q-.7 0-1.6-.7l-1-.7.7-1.1c.9-1.1.9-.9-1-4.2-.7-1.2-1.8-2.3-2.4-2.3q-.4.1-.6 1c-.2 1.9-1.1 1.6-1-.3q0-3.6-2.7-5.6-1.4-1-2-2.6c-.8-2.4-1.1-4.5-.7-4.6.2 0-.3-1.8-1.1-3.9-1.2-3.6-1.3-3.9-.8-5q.6-1.3.8-.5.2.7-.1 1.3c-.3.6-.1 2.4.3 2.4s1.7-4.1 1.5-5.1q-.7-3.4-2.4-6.3c-.7-1.1-1.4-2.4-1.5-3-.3-1.2-1-1.1-1 .2 0 1.2-.6.7-2.9-2.5-2.5-3.6-3-4.7-1.8-5.1q1.2-.5 1.7 2.1c.3 1.1 3.1 3.4 3.3 2.7q0-.6-1.1-2.4a9 9 0 0 1-1.2-2.6c0-.9-1.9-2.7-2.8-2.7q-.7 0-1.1-1.2a4 4 0 0 0-1.3-1.5q-.8-.4-.9-1.1c0-.7-2.1-3.8-3.1-4.6-.6-.5-.9-4.7-.4-5.4.9-1.1-2.5-6.7-4.1-6.7q-.6-.1-1-1c-.6-1.2-1.6-1.1-1.8.1q-.1.8.8 1.8t.5 1-1 .6-.9.3c-.2-.2-1.6-.3-3-.3l-2.6-.1 2.2 2.1c2.5 2.4 5.4 4.4 5.9 4.1s1.1 1.8 1 4.1q0 4.5 1.4 1.9c1-2.5 2.1-2.2 1.6.4q-.4 2.5-2.1 1.6-.8-.5-.8.2 0 1.2.4 1.1.2 0 .6.9t.1.9q-.2.1-.1 1.4c.1 1.4 0 1.6-1.8 2.7q-1.7 1.2-2 1l-.4-2.1q-.4-1.7-.6-1.9c-.6 0-2.8 1.3-2.8 1.6l-1.3 1.8c-1.6 1.9-1.6 2.9.2 6.1 1.9 3.5 3.1 7 3.1 9q0 2.5 1.7 8.5c.3.9-.4 2.2-1 1.8q-.3-.1-.3.7 0 .9-.4 1.3c-.5.5.7 3.3 1.3 3.1.9-.4 1.3.5 1.7 4 .7 4.8.8 5.4 1.4 5.4 1.1 0 2.6 1.9 2.8 3.4.1 1.1.5 1.9 2.1 3.5 1.1 1.1 2.2 1.9 2.3 1.8.5-.3 1.9.2 1.9.8q.1.4.8 1.1.7.6.8.5 0-.2.7.1.7.5.5 1.1c-.1.8 2.2 4.6 3.5 5.5 1 .7.9 1.6-.3 1.4-1-.3-1.1-.2-1.7 4.7-.5 3.1-.3 3.7 2 8.6.8 1.6 1.4 3.1 1.4 3.4s.5 1.5 1.2 2.6 1.2 3 1.4 4.3.6 3.3 1.1 4.6c1.8 4.7 2.6 8.5 2.7 12.4.2 4.1.3 5.5.9 9.4.5 2.8.3 3.6-1.4 5.4l-1.2 1.3 1 .8 2.1 1.3q1 .6 2.3 2.9a20 20 0 0 0 2.5 3.6c1.4 1.4 2.1 2.6 3.8 6.6q.5 1.2.5 7.2c0 8.1 1 10.9 5.3 15.6 1.6 1.7 1.6 2 .9 3.9q-.5 1.2-.4 1.5.1.2-.3.8c-.4.3-.8 1.6-.9 3-.2 1.3-.4 2.7-.6 3-.3.7.3 2.7 1.2 3.7a22 22 0 0 1 2.7 6.9q1 4.3 2 3.4.4 0 .9 1.2c.6 1.5 1.3 1.9 1.3.7m49.6-17.2c2.1-1.9 2.6-2.8 3.1-4.5.4-1.2 1.4-3.3 2.2-4.7a11 11 0 0 0 1.6-3.1c0-1 1.1-1.9 2.4-1.9q2.2 0 5.2-5.3c2.2-4.1 2.8-4.8 4.9-5.7s4.1-2.8 4.2-4l-.1-3.6q-.1-.3-1.1-.3c-1.6 0-4.6 2.1-5.3 3.6q-.5 1.3-.9 1.6-.4.2-.2.6c.5.8-1.8 3.4-3.8 4.3-1 .4-1.3.3-2.3-.5q-2.5-1.9-2.4 1.9 0 2-.9 2.9t-.9 1.6c0 .6-.2.8-2 1.2q-1 .2-.8.8c.3.8-.2 2.3-1.2 3.5-.5.6-1.1 1.7-1.2 2.3q-.4 1-1.1 1.8c-.7.5-.7.7-.3 1.6.6 1.4.6 1.6-.5 2.1q-1 .4-.7 1.1.2.9-.7 1t-.8 1.2c0 1 .7 2.9 1 2.9.1 0 1.3-1 2.6-2.4m32.9-37.7c1.3-.9 2.6-2.7 2.6-3.6 0-.4 1-1.7 2.3-3q2.3-2.3 2.3-3.3c0-1.5.9-3.4 2-4.7q1-1 1.3-2.3l.7-1.6c.9-1.1-.6-1.4-3-.5-1.1.4-1.4.8-1.5 2.5l-.3 1.5q-2.2 1.5-3.3 3.2c-.8 1.2-.9 1.8-.8 3.2l.2 1.8-1.8.8c-1.8.8-1.9.8-2.1 2.9l-.5 2.9q-.4 1.7 1.9.2M275 167q0-1.2-1.2-.6-.6.2 0 .9c.5.7 1.2.5 1.2-.3m.7-1.9c.6-.6-.2-1.4-1.1-1.2q-1.4.4-.3 1.2.7.9 1.4 0m-4.1-4.2c-.2-.8-1.8-1-2.2-.3s.5 1.4 1.5 1.2q1 0 .7-.9m16.3-7.6q.5-.6 1.2-2.3l1-2.2q.3-.4.3-1.4c0-.5.5-1.8 1-2.8q1.6-3-.9-1.7-1 .5-1.3 1.8a15 15 0 0 1-1.6 4.5l-.3 1.1q-.1 1.5-2 2.3-.9.3-.3.8c.5.6 2 .6 2.9-.1m5.9-15.5q.5-.2-.3-1.2c-.7-.9-.7-.9-1.4-.3q-.7.7-.1 1.3.8 1 1.8.2m2.7-6.3c.2-.4-.9-1.8-1.3-1.4-.3.3.2 1.9.7 1.9q.2 0 .6-.5m-.8-.2-.2-.6q0-.5.4 0t.3.7q-.2.2-.5-.1m2.1-5.3c0-1.4-.5-2.4-1.1-2-.5.3-.6 3.4-.2 3.8.5.5 1.3-.6 1.3-1.8m.5-8.5q.1-.5-.5-1.2c-1.3-1.2-2.4-.4-1.1.9q1.3 1.5 1.6.3m-2.3-5.7q-.5-.4-1.3-.1l-.9.3.9.5c1.1.5 2 .1 1.3-.7m15.3-1.8c0-.5-1.1-1.1-1.8-1.1q-.5.1-.5.4v1q0 .7.7.9c.7.1 1.6-.6 1.6-1.2m-7.9-6.7q0-.2-1.2-.3-1.6 0-.9.5c.4.5 1.7.4 2.1-.2m0-5.8c.2-.7.6-1.7.9-2.1 1.1-2 .1-3.2-1.6-1.9-.5.4-.7 1-.7 3.1q.2 4.3 1.4.9m-2.7-3q.3-1.5-.6-1.6c-.5 0-1.9 1.6-1.7 2 .4.7 2 .3 2.3-.4m13.5-2.4c.5-.8-.8-1.6-2.1-1.3q-1.7.5-.9 1.5c.4.4 2.8.3 3-.2m-6.9-4.7q.9-1.1-1.1-1.6-1-.4-1.3.6c-.4 1.3 1.3 2 2.4 1m-6.8-2c0-.8-1.6-1.4-2.4-.9-1.1.5-.4 1.5 1.1 1.5q1.3 0 1.3-.6m8-3.8c.6-1 .6-1.2 0-3a6 6 0 0 1-.5-3.3q.6-2.2-1.8-2.1c-1.2 0-1.2.1-.7 1.2q.4.7.2 1.2c-.5.8-.6 5.7-.2 6.5.6 1.1 2.2.9 3-.5m-9.6-7.4q0-.6-.6-1.4-.8-1-1.2-.3-.5.5.1 1.4c.7.9 1.7 1.1 1.7.3m11.3-11.4q2.3.1 2.2-.9t2.4-4.7c1.4-2 1.5-3 .8-6.1-.5-2.1-.5-2.3.1-2.8s.7-.6-.4-2.8c-.7-1.3-1.7-2.6-2.2-3-1-.6-1-.6-1.2 0l-.8 2.2q-.6 1.5-.1 2.5c.7 1.8.6 5.2-.1 6q-.7.6-1.1.5t-2.2 2.1q-1.7 2.1-2.2 2.3c-.5 0 .2 1.1.9 1.3q.6.2 1 1.5.6 3 1.3 2.3.4-.5 1.6-.4m-6.6-2.4c0-.9-.1-.9-1.4-.3q-1 .6-.5.8 1.7.8 1.9-.5m2.6-15.7c.2-1.2-1-2.1-2.2-1.9q-2.3.7-1.6 2.1c.5 1 3.6.9 3.8-.2m12.1-1.1c.9-1.1 1-1.6.8-3.2q-.2-2.9-1.5-2.8c-.7.1-2.5 1.2-1.8 1.2q.2 0-.6.6c-.7.6-.8.9-.7 2.2q.3 1.7 1.3 2.5l1.3.9z" id="path1"/></g><!-- app4joy --></svg>