<svg width="419.51" height="279.5" clip-rule="evenodd" fill-rule="evenodd" image-rendering="optimizeQuality" shape-rendering="geometricPrecision" text-rendering="geometricPrecision" viewBox="0 0 419.51 279.5" id="svg353" xmlns:xlink="http://www.w3.org/1999/xlink" xmlns="http://www.w3.org/2000/svg"><defs id="defs23"><linearGradient id="u" x1="103.01" x2="106.54" y1="174.56" y2="174.56" gradientUnits="userSpaceOnUse"><stop stop-color="#75C5F0" offset="0" id="stop1"/><stop stop-color="#006194" offset="1" id="stop2"/></linearGradient><linearGradient id="z" x1="104.74" x2="105.54" y1="173.9" y2="173.9" gradientUnits="userSpaceOnUse"><stop stop-color="#C38A13" offset="0" id="stop3"/><stop stop-color="#9C711B" offset=".65882" id="stop4"/><stop stop-color="#AC6F1E" offset="1" id="stop5"/></linearGradient><linearGradient id="p" x1="80.449" x2="81.616" y1="117.88" y2="117.88" gradientUnits="userSpaceOnUse"><stop stop-color="#DAAF4F" offset="0" id="stop6"/><stop stop-color="#F2AE6B" offset=".70196" id="stop7"/><stop stop-color="#CA9900" offset="1" id="stop8"/></linearGradient><linearGradient id="j" x1="80.034" x2="80.877" y1="117.11" y2="117.11" gradientUnits="userSpaceOnUse" href="#id2"/><linearGradient id="i" x1="120.46" x2="120.46" y1="120.1" y2="121.15" gradientUnits="userSpaceOnUse"><stop stop-color="#183573" offset="0" id="stop9"/><stop stop-color="#183573" offset=".14118" id="stop10"/><stop stop-color="#0073A6" offset=".70196" id="stop11"/><stop stop-color="#00427C" offset="1" id="stop12"/></linearGradient><linearGradient id="h" x1="111.98" x2="115.51" y1="174.56" y2="174.56" gradientUnits="userSpaceOnUse" href="#id0"/><linearGradient id="g" x1="112.97" x2="113.77" y1="173.9" y2="173.9" gradientUnits="userSpaceOnUse" href="#id1"/><linearGradient id="f" x1="136.9" x2="138.06" y1="117.88" y2="117.88" gradientUnits="userSpaceOnUse" href="#id2"/><linearGradient id="e" x1="137.64" x2="138.48" y1="117.11" y2="117.11" gradientUnits="userSpaceOnUse" href="#id2"/><linearGradient id="d" x1="122.32" x2="122.32" y1="169.73" y2="169.73" gradientUnits="userSpaceOnUse"><stop stop-color="#005C8E" offset="0" id="stop13"/><stop stop-color="#48B0E1" offset=".23137" id="stop14"/><stop stop-color="#40B5EB" offset=".65098" id="stop15"/><stop stop-color="#006194" offset="1" id="stop16"/></linearGradient><linearGradient id="y" x1="122.32" x2="122.32" y1="169.74" y2="169.74" gradientUnits="userSpaceOnUse" href="#id9"/><linearGradient id="w" x1="122.32" x2="122.32" y1="169.73" y2="169.73" gradientUnits="userSpaceOnUse" href="#id9"/><linearGradient id="v" x1="122.33" x2="122.33" y1="169.69" y2="169.69" gradientUnits="userSpaceOnUse" href="#id9"/><linearGradient id="t" x1="81.181" x2="81.181" y1="162.98" y2="162.98" gradientUnits="userSpaceOnUse"><stop stop-color="#005C8E" offset="0" id="stop17"/><stop stop-color="#48B0E1" offset=".21176" id="stop18"/><stop stop-color="#42B5EA" offset=".45098" id="stop19"/><stop stop-color="#40B5EB" offset=".45098" id="stop20"/><stop stop-color="#006194" offset="1" id="stop21"/></linearGradient><linearGradient id="s" x1="111.29" x2="111.29" y1="169.93" y2="169.93" gradientUnits="userSpaceOnUse"><stop stop-color="#439CD5" offset="0" id="stop22"/><stop stop-color="#004873" offset="1" id="stop23"/></linearGradient><linearGradient id="r" x1="122.32" x2="122.32" y1="169.71" y2="169.71" gradientUnits="userSpaceOnUse" href="#id9"/><linearGradient id="q" x1="81.19" x2="81.19" y1="162.93" y2="162.93" gradientUnits="userSpaceOnUse" href="#id15"/><linearGradient id="a" x1="107.23" x2="107.23" y1="169.93" y2="169.93" gradientUnits="userSpaceOnUse" href="#id16"/><linearGradient id="o" x1="137.32" x2="137.32" y1="162.93" y2="162.93" gradientUnits="userSpaceOnUse" href="#id15"/><linearGradient id="n" x1="137.33" x2="137.33" y1="162.98" y2="162.98" gradientUnits="userSpaceOnUse" href="#id15"/><linearGradient id="m" x1="122.32" x2="122.32" y1="169.75" y2="169.75" gradientUnits="userSpaceOnUse" href="#id9"/><linearGradient id="l" x1="123.58" x2="123.58" y1="170.69" y2="170.69" gradientUnits="userSpaceOnUse" href="#id9"/><linearGradient id="k" x1="94.93" x2="94.93" y1="170.69" y2="170.69" gradientUnits="userSpaceOnUse" href="#id9"/><linearGradient id="c" x1="120.46" x2="120.46" y1="120.1" y2="121.15" gradientUnits="userSpaceOnUse" xlink:href="#i"/><linearGradient id="b" x1="111.29" x2="111.29" y1="169.93" y2="169.93" gradientUnits="userSpaceOnUse" xlink:href="#s"/><linearGradient xlink:href="#i" id="linearGradient354" gradientUnits="userSpaceOnUse" x1="120.46" y1="120.1" x2="120.46" y2="121.15"/><linearGradient xlink:href="#u" id="linearGradient355" gradientUnits="userSpaceOnUse" x1="103.01" y1="174.56" x2="106.54" y2="174.56"/><linearGradient xlink:href="#s" id="linearGradient356" gradientUnits="userSpaceOnUse" x1="111.29" y1="169.93" x2="111.29" y2="169.93"/><linearGradient xlink:href="#s" id="linearGradient357" gradientUnits="userSpaceOnUse" x1="111.29" y1="169.93" x2="111.29" y2="169.93"/><linearGradient xlink:href="#i" id="linearGradient358" gradientUnits="userSpaceOnUse" x1="120.46" y1="120.1" x2="120.46" y2="121.15"/><linearGradient xlink:href="#u" id="linearGradient359" gradientUnits="userSpaceOnUse" x1="103.01" y1="174.56" x2="106.54" y2="174.56"/><style type="text/css" id="style1">.fil2{fill:#0093DD}</style></defs><g id="g354"><path fill="#ffffff" id="rect23" d="M0 0h419.5v279.5H0z" stroke-width="0.999996"/><path transform="matrix(2.24463 0 0 -2.24148 -34.5 454.1)" clip-rule="evenodd" fill-rule="evenodd" image-rendering="optimizeQuality" shape-rendering="geometricPrecision" id="polygon24" d="M15.4 119.5V77.9h186.8v41.6z" stroke="#1F1A17" stroke-width="0.0762" fill="#0093DD" display="inline"/><path transform="matrix(2.24463 0 0 2.24148 -34.5 -174.6)" id="polygon23" d="M202.2 77.9v41.6H15.4V77.9z" stroke="#1F1A17" stroke-width="0.0762" fill="#DA251D"/></g><g transform="matrix(2.24373 0 0 2.24148 -34.7 -174.5)" fill-rule="evenodd" id="g353"><path d="M121.7 107.1s0-.4-1-.6l-.5-.7-1.7-.7q.1-.1-1.5-.8l-2.6-.6s-1.3-.6-2.8.8q.2.3-.2.4-.7 1-2 1.1-1.5 0-2.2-1.2c-1.6-1.8-3.1-1-3.1-1l-2.6.4q-1.7.9-1.5 1l-1.7.6-.5.6c-1 .3-1 .7-1 .7-3 2.3-2.2 4.2-2.2 4.2q.8 2 1 2l-.6.4 1 .8c.4 1 1.1 1.3 1.1 1.3.5 1.2 1.9 1.3 1.9 1.3q.1 1 .3 1l.4 1.8.5 1c.4.6.4.4.4.4 6.2-1.6 8.4-1.4 8.6-1.4 0 0 2-.3 8.7 1.4 0 0 0 .2.4-.3l.5-1.1.4-1.9q.2 0 .3-.9s1.4-.1 1.9-1.3c0 0 .6-.2 1-1.3q.2 0 1-.8l-.5-.3s.4-.1.9-1.6c0 0 1.2-2-2.1-4.7m-10.3-2.2" id="path52" fill="#8F5444"/><g fill="#f8c300" id="g93"><path d="m102.7 109.9-2-.3.6 1.5h.6q-.1.8-.7 1.5h.4q.7-.8.6-.9l.4.2-.6 1 .2.2c.1-.1.7-.6 1-1.5l-.8-.4h1z" id="path53" fill="#F8C300"/><path d="m100.3 105.5 1.7.6.3-1.6a6 6 0 0 0-2 1" id="path54" fill="#F8C300"/><path d="m102 106.4-1.8-.6.1 1.8 1.8.4z" id="path55" fill="#F8C300"/><path d="m98.8 110.4.4.2 1.7.4-.5-1.5-2.2-.7z" id="path56" fill="#F8C300"/><path d="M96 109q1.2.9 2.4 1.3l-.6-1.7-1.5-.8-.6.7z" id="path57" fill="#F8C300"/><path d="m97.7 112.8.4.6h.3v-.4z" id="path58" fill="#F8C300"/><path d="m100.4 108 .3 1.2 1.8.4-.3-1.2z" id="path59" fill="#F8C300"/><path d="m97.7 108.2-.2-1.3-.8.8z" id="path60" fill="#F8C300"/><path d="M97 112q-.8-1.1-1.3-2.8l-.4-.2q-.5 1-.5 1.4a8 8 0 0 0 2.1 1.7" id="path61" fill="#F8C300"/><path d="M98.1 108.4q1.2.5 2.2.7l-.3-1.3q-1.3-.4-2.1-1z" id="path62" fill="#F8C300"/><path d="m100 107.4-.1-1.8c-1.3.2-1.8 1-1.8 1z" id="path63" fill="#F8C300"/><path d="M98.4 112.7q.2-1.1.6-1l-.4-1-2.4-1.2q.5 1.6 1.2 2.8z" id="path64" fill="#F8C300"/><path d="m115.7 109.9 2-.3-.6 1.5h-.1l-2 .2z" id="path65" fill="#F8C300"/><path d="m118.2 105.5-1.8.6-.3-1.6a6 6 0 0 1 2 1" id="path66" fill="#F8C300"/><path d="m116.4 106.4 1.8-.6-.1 1.8-1.8.4z" id="path67" fill="#F8C300"/><path d="m119.6 110.4-.4.2-1.7.4.5-1.5 2.2-.7z" id="path68" fill="#F8C300"/><path d="m122.6 109-2.6 1.3.6-1.7 1.3-.6c.6 0 .4.4.6.6q.1.2 0 .4" id="path69" fill="#F8C300"/><path d="m120.7 112.8-.4.6h-.2v-.4z" id="path70" fill="#F8C300"/><path d="m118 108-.3 1.2-1.8.4.3-1.2z" id="path71" fill="#F8C300"/><path d="m123 111.5.7-.6c-.3 2-1.2 2.3-1.2 2.3q.5-1.5.4-1.7" id="path72" fill="#F8C300"/><path d="m121.2 112.6 1.6-1a4 4 0 0 1-1.3 1.6l-.8.2z" id="path73" fill="#F8C300"/><path d="m120.7 108.2.2-1.3.8.8z" id="path74" fill="#F8C300"/><path d="M121.5 112q.7-1.1 1.2-2.8l.2-.1c.7.3.6 1.1.7 1.3a8 8 0 0 1-2.1 1.7" id="path75" fill="#F8C300"/><path d="M120.3 108.4q-1.2.5-2.2.7l.3-1.3q1.3-.4 2.1-1z" id="path76" fill="#F8C300"/><path d="m118.4 107.4.1-1.8c1.3.2 1.8 1 1.8 1z" id="path77" fill="#F8C300"/><path d="M120 112.7q-.2-1.1-.6-1l.4-1q1.3-.4 2.4-1.2-.5 1.6-1.2 2.8z" id="path78" fill="#F8C300"/><path d="M100.4 111.3q-.4 0-.9.4.5.4.8 1.2l.2-.1-.5-1 .6-.1.3.9h.3l-.3-1.5z" id="path79" fill="#F8C300"/><path d="M104.2 113q-.8.4-2 .1l.2.4h1.1v.4h-1l-.1.2q.9.3 1.6.1.3-.6.2-1.2" id="path80" fill="#F8C300"/><path d="m100 114.1-1.3.6.8.8q1-.5 1.2-.8l-.3-.2-.6.5-.2-.2q.2 0 .6-.4z" id="path81" fill="#F8C300"/><path d="M100 113.9v-.3h-1q.2-.5 0-.6l1 .3.2-.3q-.5 0-1.5-.4-.3.5-.3 1.2 1 .1 1.6 0" id="path82" fill="#F8C300"/><path d="M96.5 114.3v-.8l.9.6-.5 1.2V114z" id="path84" fill="#F8C300"/><path d="m97.2 115.4 1-.5.3.9-1 .1q.7-.4.6-.5z" id="path85" fill="#F8C300"/><path d="M100.5 113c-.7 1.1.6 1.5.6 1.5z" id="path86" fill="#F8C300"/><path d="M101.1 112.7c.7.5.8 1.2.8 1.2.5-.5-.2-1-.2-1z" id="path87" fill="#F8C300"/><path d="M100.8 112.8c0 .6.4 1.2.4 1.2l.5.3-.6-1.5z" id="path88" fill="#F8C300"/><path d="M121.4 114.3v-.8l-.9.6.5 1.2V114z" id="path89" fill="#F8C300"/><path d="m120.7 115.4-1-.5-.3.9 1 .1q-.7-.4-.6-.5z" id="path90" fill="#F8C300"/><path d="M117.4 113c.7 1.1-.6 1.5-.6 1.5z" id="path91" fill="#F8C300"/><path d="M116.8 112.7c-.7.5-.8 1.2-.8 1.2-.5-.5.2-1 .2-1z" id="path92" fill="#F8C300"/><path d="M117.1 112.8q-.2 1-.4 1.2l-.5.3.6-1.5z" id="path93" fill="#F8C300"/></g><path d="M104.9 103.8c-2.8 3.2 1.7 8.8 1.7 8.8l1.4-.2V106q-.8-.6-.7-.7c-.8-1.2-2.4-1.5-2.4-1.5" id="path94" fill="#DB214C"/><path d="M113.6 103.8c2.8 3.2-1.7 8.8-1.7 8.8l-1.4-.2V106q.8-.6.7-.7c.8-1.2 2.4-1.5 2.4-1.5" id="path95" fill="#DB214C"/><path d="m116.4 114.7-.4-.2s-3 1-5.5-.8l1.3.5s.6-.5.5-1.3l-1.7-.3 1.6-.8s0-.8-.8-1.2l-1.4 1V110s-.6-.4-1.4 0l.2 1.7-1.6-1s-.7.2-.8 1l1.6.8-1.8.6s0 .7.6 1.3l1.4-.8c-.6.6-3 2.3-6.1.8l-.3.3a7 7 0 0 0 7.3-.8h-.3q-.6-.5-.7-1.1.1-1.1 1.2-1.2 1.2 0 1.3 1.2 0 .9-1 1a6 6 0 0 0 6.8 1" id="path96" fill="#F8C300"/><path d="M109.5 111.5q.4 0 .7.3l1-.6q.4.3.3.5l-1 .5v.6l1 .2q.1.5-.1.5l-1-.3q-.3.5-1 .6-.9 0-1.2-.7l-1 .4q-.3-.3-.2-.5.8-.1 1.1-.3l.2-.6-1.1-.5q.1-.5.3-.5l1 .7.6-.2v-1.2c.3-.3.5 0 .5 0z" id="path97" fill="#8F5444"/><g fill="#f8c300" id="g102"><path d="M108.9 113.6v-1.8c-1 1.2 0 1.8 0 1.8" id="path98" fill="#F8C300"/><path d="M109.8 111.8v1.8s1-.7 0-1.8" id="path99" fill="#F8C300"/><path d="M109.4 113.7c.6-1 0-2 0-2-.6 1 0 2 0 2" id="path100" fill="#F8C300"/><path d="m101.5 114.8-.6-.1s-1.3 2.3-2.9 1.7l.4.3c2-.2 2.8-1.4 3-2" id="path101" fill="#F8C300"/><path d="M117 114.7h-.4c1.1 2.3 3.2 2 3.2 2l.2-.2s-1.9-.2-3-1.8" id="path102" fill="#F8C300"/></g><g fill="#8f5444" id="g107"><path d="M109.5 99.3c.3-.3.3-1 .3-1h-1l.3 1z" id="path103" fill="#8F5444"/><path d="m109 99.5-1-.2q-.3.7-.1.8l1-.2z" id="path104" fill="#8F5444"/><path d="m109.1 100-.2 1q.8.2.9 0l-.3-1z" id="path105" fill="#8F5444"/><path d="m110.7 99.3-1 .2v.4q.8.3 1 .2c.3-.4 0-.8 0-.8" id="path106" fill="#8F5444"/><path d="M109.2 99.4q-.2 0-.2.2v.2l.2.2h.2l.2-.2v-.2q0-.2-.2-.2z" id="path107" fill="#8F5444"/></g><path d="m100.7 117.6.7-.2q.2 0 .2-.2v-.6l-.3-.2-.7.2-.2.2v.7q0 .2.3.1" id="path108" fill="#F8C300"/><path d="m99.4 118 .7-.2.2-.2v-.7l-.2-.1-.7.2-.2.2v.7z" id="path109" fill="#F8C300"/><path d="M109.3 101.1c1.3 0 2.5 1.1 2.5 2.5s-1.2 2.4-2.5 2.4q-2.3-.1-2.5-2.4.1-2.3 2.5-2.5" id="path110" fill="#8F5444"/><path d="M109.3 101.6a2 2 0 1 1 0 4 2 2 0 0 1 0-4" id="path111" fill="#F8C300"/><path d="M128.2 156.8v-35.7H90.4v36.7c.3 6 7 6.6 7 6.6h9.1c2.6 0 2.8 2.6 2.8 2.8 0-.2.2-2.8 2.8-2.8h9s6.8-.7 7.1-6.6z" id="path112" fill="#75C5F0"/><path d="m123.7 158.3-.1.2-.9 1.7c-1-.2-.5-.5-.2-1l.4-.8.4-.4v-.2l-.1-.6-1.1-3.6c0-.2-.2-.8-.4-1q-.3-.4-1-.7l-.3-.4-1.3-.8-1.4-1.2-.8-.4-.1-.2-1-.7-.3-.4-2-2.3h-.1l-.1 1-2.1.8h-.2l-.2.1h-.3l-.8.1h-1.1q-.4.2-.9 0c-.1 0-.2-.6-.6-.8l-.4 2.5c-.2 1-.6 2.6-.4 3.6v1.8c0 1 .7 4 .3 4.7l-.5.8-.3.8-.5.1c-.2 0 .3-1 .4-1.1l.5-1.2v-1l-.4-3.2-.4-1c-.2-.8 0-1.3-.2-2l-1-2.8q-.3-.7-.4-1.7v-.1l-.4.2c-.3.1-.4-.3-.7-.1-.3 0-.1.2-.6.1q0 .3.3.4-.2 0-.5-.4v-.4l-.2-1-.3-2 .3-.2-.4-1.7v-1l.4-1 .5-2v-2.1q1.3-.2 1.4-1.6c-.6.2-.5.4-.8.7-.6.4-1.3.3-2 .7l-.5.5-.5.1q.7-.5 1-1.2c-.7-.1-1 .4-1.5.5h-.7c-.3-.2.5-.8.7-1v-.1h-.7l1.3-1.6c.6-1 .1-1.2 1.2-1.8l.3-.3h1q-.1.3.3.3.8-.1 1 .5c1.1-.9 2-2.3 3.3-2.8v.5q0 1.3-1.2 1.8-1 .4-1.9 1 .4.3.7.9c.9 1.5.5 4 1 5.8q0 .8.4 1.5c1.5-.1 2.8.6 4.2.7q1.6.2 3-.3.5-.2 1.3-.2.6 0 1 .4h.1q2.1 1.3 3.2 3.7l.1.4.2 2v.6l.1.2v.3l.1.3.1.2v.3q.7 1.2 2 2 .4 0 .7.3t.2.6l.7 3.1v.6c.3.7.9 2 .7 3M103 147.9l.7.4-.9 2.7-.3.6-.2 1-.5 1v.3l-.8 2.8-.2 1h-.2l-.2.4-1 1-.6-.1c.4-.6 1.2-1.2 1.4-1.7v-.2h.1v-.3l.1-.2.1-.3v-.2q.5-1.2.7-2.8v-.6.2l.5-.4v-.8l.4-.9zm2.6 6-.1-.4-.2-2-1-2.8q-.3-.7-.4-1.7v-.2s-.4-.8-.5-1.4q-.1-.2.4-1.7l-.7.7s.6-2 2.2-2l-.5-.9-1 1.1s0-1.6 1.2-1.6l-.2-.7-.8.8q-.2 0-.2-1.6l.2-2q-.1-.1 0-1.6s.7-1 .8-1.8q.2.3.1.6v.6l.2-.2v1.2h.1v.5l-.1.4v.3h.2v.2s0 .5-.3.6c0 0-.1.4.5.3q.1.1-.4.5l.4.3-.4.5h.6l-.3.4.2.3s1.7-.2 3.5.2c0 0 2.8.7 5.3-.4l.4.1v.2h.5v.1l.1.2h.2v.2h.4v.4q.3 0 .5.2v.2h-.1v.1l.3.1.6.4v.3h-.2q0 .2.2.3v.2l.3.2-.1.2q0 .2.3.4 0 .2-.2.3l.2.3v.1q-.2 0-.2.3l.3.3v.3h-.2v.3l.3.2v.4q-.2 0-.2.2l.3.2h.1q0 .3-.3.3v.2l.4.3-.2.4h.4l-.3.5.6.6s-.5 0-1.6-.8c0 0-2-1.1-3.4-3.3l-.7-.8v.4h-.2l-.1.7h-.4v.2l-.4-.3v.8s-1-1.5-2.1-1.9l-.3.2-.1-.4-.3.5s-.3-.8-.8-1.3l-.3.7-.3-1-.2.6-.5-.8c.1.2.7 1.1-.3 2l.7-.1-.5.5q-.1.1.5.2l-.5.5.6.1-.7.7s-.1 1-1 1.8c0 0 .5 1.2 0 2.7l-.1 1 .1 1z" id="path113" fill="#605D5C"/><g fill="#fbfdfd" id="g119"><path d="M100.9 134.6h.6v-.4l.4-.2v-.2q.5-.1.3-.2c1-.5.9-1.4.9-1.4-.3-.8-1.3-.8-1.3-.8l.9-.2-.5-.2h1l-.5-.1q-.5 0-.3-.3h-1l-.3.3c-1 .6-.6.8-1.2 1.8l-1.3 1.6h.7v.2c-.2.1-1 .7-.7.9h.7c.6 0 .8-.6 1.5-.5h.3zm-1.3.8h.1m.4-.1" id="path114" fill="#FBFDFD"/><path d="m101.9 140.1-.1.2s-.1 1.6.5 2.5l.5-1s-.8-.8-1-1.7" id="path115" fill="#FBFDFD"/><path d="m101.9 147-.3.6v.8l-.1 1v1.4l-.2.9q-.2 0-.2 1.2l.5-.4v-.8l.4-.9 1-3q0 .2-1.1-.7" id="path116" fill="#FBFDFD"/><path d="m98.6 159 .6.2.6-1.5c-.7.6-1.2 1.3-1.2 1.3" id="path117" fill="#FBFDFD"/><path d="m105.8 159.3-.7 1.8h.7s-.2-1 0-1.8" id="path118" fill="#FBFDFD"/><path d="m122.1 160 .5.3c0-1.1.5-2.2.5-2.2-.7 1-1 2-1 2" id="path119" fill="#FBFDFD"/></g><path d="M119.6 143v.2q.2 0 0 0c-.4.2-.7-.8-1-1q.7 0 1 .8" id="path120" fill="#605D5C"/><path d="M118.1 148.8q.4-.3.3-.4l-.4-.1.2-.4q-.6-.2-.5-.3v-.2q.4 0 .4-.2l-.1-.1q-.2 0-.3-.2l.2-.2v-.4l-.3-.2v-.3h.2v-.3q0-.2-.3-.3 0-.2.2-.3l-.2-.4q.2-.1.2-.3t-.3-.3v-.1l.1-.2-.3-.2v-.2q-.2-.1-.2-.3h.2v-.3l-.6-.4h-.4v-.1l.2-.1v-.2q-.1-.2-.5-.2v-.3l-.4-.1v-.2h-.2l-.2-.2h-.4v-.3h-.4c-2.5 1-5.3.3-5.3.3-1.8-.4-3.5-.2-3.5-.2l-.2-.3q.4-.4.3-.5h-.6l.4-.4-.4-.3.4-.5c-.6.1-.5-.3-.5-.3.4-.1.3-.6.3-.6v-.1l-.2-.1v-2.4q0 .3-.3.2v-.3l.1-.3v-.6c-.2.9-.8 1.8-.8 1.8q-.3 1.5-.1 1.6l-.2 2 .2 1.6.8-.8.1.7c-1.1 0-1.2 1.6-1.2 1.6q1-1.1 1.1-1c.4.3.4.9.4.9-1.5-.1-2.1 2-2.1 2l.7-.8q-.6 1.5-.4 1.7c0 .6.6 1.4.6 1.4q-.2 1 0 1l.1 1 .3 1 .5 1.1.3 1.9.1.6.3.6.3-.7-.1-1 .1-1c.5-1.5 0-2.7 0-2.7.8-.7 1-1.8 1-1.8l.7-.7h-.6l.5-.6q-.6-.1-.5-.2l.5-.5-.7.2c1-1 .4-1.9.3-2l.5.7q.1-.6.2-.5l.3 1q.4-.7.3-.8c.5.5.8 1.3.8 1.3l.3-.5.1.4.3-.2c1 .4 2.1 2 2.1 2v-1l.3.4.1-.3q.3.2.4 0l.1-.5h.3l-.1-.5.7.8c1.4 2.2 3.4 3.4 3.4 3.4q1.6.9 1.6.7-.7-.5-.6-.6" id="path121" fill="#FBFDFD"/><g fill="#f8c300" id="g124"><path d="m118.3 118 .6.3.2-.1v-.7l-.1-.2-.6-.3-.2.1zm-1.2-.4.7.2h.1l.1-.7-.1-.2-.7-.3q-.2 0-.2.2v.8m-1.3-.3.8.2.1-.1.1-.7-.1-.2-.8-.2-.1.1zm-1.3-.3.8.2.2-.1-.1-.9-.8-.1h-.2v.7zm-1.3-.2.8.1.2-.1v-.6l-.1-.2-.8-.1h-.2l-.1.7q0 .2.2.2m-1.4-.1h1v-.7l-.1-.2h-1zm-1.4-.1 1-.1v-.7l-.1-.1h-1l-.1.7q0 .2.2.2m-1.5 0 1-.2.1-.6q0-.2-.2-.2l-1 .2v.6zm-1.4 0 1-.2v-.6l-.1-.2h-.9l-.2.2v.6zm-1.4 0 1-.2v-.6q0-.2-.2-.2l-1 .3v.6zm-1.4.2h.8l.2-.2v-.7l-.2-.1h-.9l-.1.2v.7zm-1.4.2 1-.3v-.6l-.3-.2-1 .3.1.7q0 .2.2.1m-1.3.3.7-.2q.2 0 .2-.2l-.2-.7-.8.1-.2.2v.7z" id="path122" fill="#F8C300"/><path d="m118.6 120-.5-.3-.2.1v.7l.1.2.4.2.2-.2zm-1-.4-.7-.3q-.2 0-.2.2v.8l.8.2h.2v-.7zm-1.2-.4-.8-.2-.2.1.1.9.8.2.1-.1.1-.7zm-1.3-.3-.8-.2-.2.2v.6l.1.2.8.2.2-.2v-.6zm-1.3-.3h-1v.7l.1.2.8.1.2-.1zm-1.3-.1-.8-.1-.2.1v.9h.9l.2-.1v-.7zm-1.4-.2-1 .2.1.8h.8l.2-.1v-.7zm-1.4 0-1 .1v.7l.2.2 1-.2v-.6q0-.2-.2-.2m-1.4 0-1 .2v.6l.2.2h.8l.2-.2v-.7zm-1.4 0-.8.1-.1.2v.6q0 .2.2.2h.7l.2-.3v-.6q0-.2-.2-.2m-1.3.2h-.8l-.2.3v.6q0 .2.2.1h.8l.2-.2v-.7zm-1.4.1-.8.2-.1.2v.6q0 .2.2.2l.8-.2.1-.2v-.6zm-1.3.3-.8.1-.2.3v.6q.1.2.3.1l.7-.1.2-.2v-.7zm-1.3.3-.8.2-.1.2v.7h.2l.7-.1.2-.2v-.7zm-1.3.3-.5.2v.2l.3.7h.3l.1-.3z" id="path123" fill="#F8C300"/><path d="M108.4 117.5c.2.7 1 .6 1.2.6s1 .1 1.2-.5c0 0-.2-.6-1.2-.6s-1.2.5-1.2.5m10.6 1.2q-.4-.7-.9-.2-.3-.7-.9-.5h-.1l-1-.3q-.8-.6-1.1-.1-.4-.6-1-.3h-.2l-1-.2h-.1q-.7-.5-1.2 0-.3-.5-1-.2h-.3s.7 0 1 .6q-.6.7-.8.6.9.2 1-.2.3.4 1.1.4l-.7-.8q.5-.4.9-.4l-.2.2v.8q0 .2.2.2l1 .2.2-.2v-1q.3 0 .7.6-.6.7-.8.6.9.2 1-.1.3.4 1 .5-.2 0-.6-.8.5-.5.8-.4l-.1.2-.1.8q0 .2.2.3l.9.2.2-.1v-1q.3 0 .8.7-.7.5-.8.4.7.4 1 0 0 .5.6.7l-.3-1q.3-.3.5-.2m-19.6-.3q.3-.1 1 .2h-.1q-.4 1-.6 1 .8-.2.9-.6.3.3 1 0-.1.1-.7-.5c.3-.7.9-.8.9-.8h-.2q-.7-.3-1 .4-.5-.4-1 .2zm8.5-1q.8-.6 1-.5h-.1q-.7-.4-1.2.1-.5-.5-1.1 0h-.2l-1 .1h-.2q-.7-.3-1 .3-.6-.5-1.2 0l-.1.1-1 .2q-.2 0-.2.3v.8l.3.1 1-.2.1-.2v-.8l-.1-.2q.3 0 .8.3l-.7.9q.9-.1 1-.5.3.4 1.1.1-.1.2-.8-.6.5-.5.9-.6l-.2.2v.9l.3.1h1l.2-.3v-.8l-.1-.2q.3 0 1 .4h-.1q-.6.8-.8.8 1 0 1.1-.3.3.3 1.1.2-.1.1-.8-.7" id="path124" fill="#F8C300"/></g><g fill="#8f5444" id="g132"><path d="M103.7 104.9v.3l-.3.3-.4-.2-.3.1v-.4q0 .3.3.3.4.1.7-.3z" id="path125" fill="#8F5444"/><path d="M103.5 106q0 .4-.2.5h-.6l-.2-.6q.2.5.5.5.5 0 .5-.5" id="path126" fill="#8F5444"/><path d="m103.5 107-.1.5h-.2q-.3 0-.5.2l-.2-.6q0 .3.5.4.3 0 .5-.4" id="path127" fill="#8F5444"/><path d="m103.7 108-.1.5h-.1q-.3 0-.5.2a.5.5 0 0 1-.3-.7q0 .5.5.5.3 0 .5-.5" id="path128" fill="#8F5444"/><path d="m104 109-.1.5h-.2q-.3 0-.4.2l-.3-.6q0 .3.5.4.3 0 .4-.4" id="path129" fill="#8F5444"/><path d="M104.2 110v.3q-.3 0-.5.4l-.5-.5v-.1q.2.3.5.4.5 0 .5-.4" id="path130" fill="#8F5444"/><path d="M104.7 111v.2q-.3 0-.4.4a.5.5 0 0 1-.6-.5v-.2q.2.5.5.5.5 0 .5-.5" id="path131" fill="#8F5444"/><path d="M105.3 111.9q-.5.1-.5.5l-.5-.5v-.1q0 .3.5.4.3 0 .5-.4" id="path132" fill="#8F5444"/></g><path d="m104.3 104-1.6.4c-1 3.2.4 6 1.6 7.7v-.5a.5.5 0 0 1-.6-.5v-.4l-.5-.5v-.1l.1-.4-.3-.6v-.4l-.3-.6v-.4l-.2-.6v-.1q0-.4.2-.5l-.1-.6.1-.5v-.7q.3-.4.7-.4.4.2.3.7v-.1.3l-.3.3.1.4v.2q0 .3-.2.4l.2.6-.1.4.3.6-.1.4q.3 0 .4.5v.5q.2 0 .3.5v.3q.4 0 .4.5v.4q.6 0 .6.6v.2-.1.1q.5 0 .5.5l.4.2c-2.4-3.6-2.5-6-2.5-6-.2-2 .6-2.6.6-2.6" id="path133" fill="#F8C300"/><path d="M113.1 111.9q.5.1.5.5.5 0 .5-.5v-.1q-.1.3-.5.4z" id="path134" fill="#8F5444"/><path d="m114.1 104 1.6.4c1 3.2-.4 6-1.6 7.7v-.5q.5 0 .6-.5v-.4q.4 0 .5-.5v-.1l-.1-.4.3-.6v-.4l.3-.6v-.4l.2-.6v-.1q0-.4-.2-.5l.1-.6-.1-.5v-.7q-.3-.4-.7-.4-.5.2-.3.7v-.1.3l.3.3-.1.4v.2q0 .3.2.4l-.2.6.1.4-.3.6.1.4q-.3 0-.4.5v.5q-.2 0-.3.5v.3q-.4 0-.5.5v.4q-.5 0-.5.6v.2-.1.1q-.5 0-.5.5l-.4.2c2.4-3.6 2.5-6 2.5-6 .2-2-.6-2.6-.6-2.6" id="path135" fill="#F8C300"/><path d="M117.8 114.1q.8.5 1.4.6l-.8.8q-1-.5-1.2-.8.4 0 .6-.6m.1-.2v-.2q0-.4-.2-.7.5 0 1.4-.4.4.5.4 1.2-1 .1-1.6 0m-.4-2.6q.4 0 .9.4-.5.4-.8 1.2-.3-.3-.9-.3l.3-1.5zm-1.5-.2q.1.7.7 1.5-.7 0-1 .5c-.1-.1-.7-.6-1-1.5zm-2.2 1.9q.8.4 1.8.1a1 1 0 0 0 0 1q-1 .3-1.7.1-.3-.6-.1-1.2" id="path136" fill="#F8C300"/><path d="m100.1 128.6.2-.6.5.6.3.6.1.2.2.4c-.1.7-.3.5-.4.8-.3.5-1-1.3-.9-2" id="path137" fill="white"/><path d="m117.5 114.6.2-.2q.4.4.6.4l-.2.2zm.3-1.3 1-.3v.5l-.9.1zm0-1.5-.4 1-.4-.2.3-1zm-2.1 0q-.1.1.6.8-.3 0-.4.3l-.6-1zm-1.3 1.7h1.1v.4h-1.1z" id="path138" fill="#8F5444"/><path d="m116.4 153.2.2.3-1.3 1.6-1.2 1.4-.3.6q-.4.2-.6.6l-.2.3-1.4.4q-.3.3-.8.3c-.5-.3.4-.5.7-.6l.9-.5.5-.1a19 19 0 0 0 2.3-3.7l-.6-.7q-1.4-1.3-1.4-3.7v-.6q.3-.2.9-.2l1-.3h.2l.3.4q.3.2.1.5l-.1 2q.1 1.2.8 2" id="path139" fill="#605D5C"/><path d="m99.2 135.7.3.4h.4l.4-.6v-.2h-.5l-.5.3" id="path140" fill="#DA251D"/><g fill="#f8c300" id="g142"><path d="M107.3 124.6h-.3l-.2.1-.4.4-.5 1-.2.2-.1.2-.4.5h-.7l-.1-.6h-.1l-.1.1q-.3.3-.3.7v1l-.2.5-.5.8-.2.5-.3.4v.2h.9q.3 0 .3-.3l.2-.5.3-.7c.4-.4.9-.3 1.1-.7v-.2l-.3.1-.5.2.2-.5.8-.7q.6-.4 1.2-.4l.8-.5.2-.3h-1.3v-.3l.2-.6h.1z" id="path141" fill="#F8C300"/><path d="M102.7 123.5v1l.2.6.1.1h.4q.5-.1.6-.5h.2q0 .4-.4.7l-1.1 1.5-.2.8-.1 1.8-.1.7-.3.2h-.6v-.5q.4-1.5-.2-2.9l-.1-.2q-.3-.6-.2-1.2l.3.6q0 .2.3.3.3.2.6 0v-.4l.2-1.8.2-.4.2-.2z" id="path142" fill="#F8C300"/></g><path d="M122.8 150.7q-1.7-.5-2.5-2c-.6-1.7 0-3.6-.3-4.4l.9-.2-1-1.7q-.2-.4-.8-.6h-.8l-.8-.6a7 7 0 0 0-2.6-1.1c-1.3-.2-2.5.5-3.9.5q-1.7-.1-3.1-.7-.7 0-1.3-.3c-.2-.2-.5-2.5-.6-3q0-2-.5-3.6l-.6-1.1c.5-.4 1.5-.7 2-1.3q.6-.9.5-2.4-1.4.4-2.2 1.2l-.9 1h-.4l-.3.2h-.9v-.2l.2-.3h-.4l-.2-.3v.4l-.3.2h-.6v-.5l.1-.9-.2-.3-1-1.2-.4 1q0 1.6.7 2.5-.4.1-.7 1.1l-.5.1v.2h.4q-.6 1-1.4 1.7-.2.3-.2.7v.6l.8.4c.2 0 .2.5.4.6 1 .4 1.3-.8 2.3-.6q.3 1.4 0 3.2c-.1.7-.7 1.3-.8 2l.2 1.8q0 1.6.2 3l.2 1.2v1.4c-.2 1 0 2.1-.3 3q-.1.5-.4.8v1.6q-.3 2-1 3.5l-.6.6q-.7 1-1.8 2c.6.2.6 0 .2.7q1 .1 2-.4c.6-.4.4-1.7 1.4-1.3l.6-2 .2-1.8.5-1.5.5-.7.1-1 1.3-2.2q.7 1.3.9 2.8v1l.3.6q.3 1.6.3 3.1l.1 1.6a6 6 0 0 1-1 2.3l-.8 1c.6.1.6 0 .5.5.6 0 1.5-.2 1.8-.5.3-.5.4-1.5.6-2l.5.2c.2-1.8-.4-3.4-.5-5.1v-1.7l.1-.1-.1-.5q0-1.2.3-2.2l.3-1.7q1.6 0 3.1-.3l-.5 1 2.3-.7q0 1.6.6 2.7l1.2 1.6.5.7v.2q-.8 1.3-1.8 2.5l-.4.5q-.7.5-1.6.7l-2 1.5q.8.1.3.6c1.8.1 2-.4 3-1q.3-.4.4-.1t.5 0q1.2-1.4 2.1-3l2-2.3v-.1l-.8-1.5q-.2-1.4.1-2.5l1.7 1.1c1 .7 2.8 1.5 3.4 2.6q.6 1.2.8 2.6c.2.5.6 1.6.5 2q-.1.5-.4.8l-.6 1.2-1.1 1.3c.7.2.6 0 .5.6q1 0 1.7-.3c.3-.3.6-1.7 1-2.2q.4.2.6.1c.1-1.5-.5-2.8-.9-4zm-3.2-7.7v.2q.1 0 0 0c-.4.2-.7-.8-1-1q.7 0 1 .8m4.1 15.3-.1.2-.9 1.7c-1-.2-.5-.5-.2-1l.4-.8.4-.4v-.2l-.1-.6-1.1-3.6c0-.2-.2-.8-.4-1l-1-.7-.3-.4-1.3-.8-1.4-1.2-.8-.4-.1-.2-1-.7-.3-.4-2-2.3h-.1l-.1 1-2.1.8h-.2l-.2.1h-.4l-.7.1h-1.1q-.4.2-.9 0c-.1 0-.2-.6-.6-.7l-.5 2.4c-.1 1-.5 2.6-.3 3.6v1.8c0 1 .7 4 .3 4.7l-.5.8-.3.8-.5.1c-.2 0 .3-1 .4-1.1l.5-1.2v-1l-.4-3.2c0-.3-.4-.7-.4-1l-.2-2-1-2.8q-.4-.7-.4-1.7v-.1l-.4.2c-.3.1-.4-.3-.7-.1-.3 0-.1.2-.6.1q0 .3.3.4l.5.3v.1l.6.4q-.2 1.5-.8 2.7l-.3.6-.2 1-.5 1v.3l-.8 2.8-.2 1h-.2l-.2.4-1 1-.6-.1c.4-.6 1.2-1.2 1.4-1.7v-.3l.2-.2v-.2l.1-.3v-.2q.5-1.3.7-2.8v-.6l.2-1 .1-.9v-1.3l.2-1.1v-.8l.3-.5v-.4l-.2-1-.3-2 .3-.2-.4-1.7v-1l.4-1 .5-2v-2.1c1-.2 1.2-.6 1.4-1.6-.6.2-.5.4-.8.7-.6.4-1.3.3-2 .7l-.5.5-.5.1q.7-.5 1-1.2c-.7-.1-1 .4-1.5.5h-.7c-.3-.2.5-.8.7-1v-.1h-.7l1.3-1.6c.6-1 .1-1.2 1.1-1.8l.4-.3h1q-.2.3.3.3.8-.1 1 .5c1.1-.9 2-2.3 3.3-2.8v.5q0 1.3-1.2 1.8-1 .4-1.9 1 .4.3.7.9c.8 1.5.5 4 1 5.8q0 .8.4 1.5c1.5-.1 2.8.6 4.2.7q1.6.2 2.9-.3.6-.2 1.4-.2.6 0 1 .4h.1q2.1 1.3 3.2 3.7l.1.4.2 2v.6l.1.2v.3l.1.3.1.2v.3q.7 1.2 2 2 .3 0 .7.3.2.2.2.6.2 1.5.7 3.1v.6c.3.7.9 2 .7 3m-7.3-5.1.2.3q-.7.7-1.3 1.6l-1.2 1.4-.3.6q-.4.2-.6.6l-.2.3-1.4.4q-.3.3-.8.3c-.5-.3.4-.5.7-.6l.9-.5.5-.1a19 19 0 0 0 2.3-3.7l-.6-.7q-1.4-1.3-1.4-3.7v-.6q.3-.2.9-.2l1-.3h.2l.3.4q.3.2.1.5l-.1 2q.2 1.2.8 2m-16.3-24.6.2-.6.5.6.3.6.1.2.2.4c-.1.7-.3.5-.4.8-.3.6-1-1.3-.9-2m-.9 7q0 .3.3.5h.3q.4-.3.4-.6v-.2h-.4z" id="path143" fill="#605D5C"/><path d="m101.2 132.7.2-.4q.6.5-.2.4" id="path144" fill="#DA251D"/><path d="m122.5 120.5-.6.4h-3.5l.3-.7c1.5 1 3.4.4 3.5.4zm-3.2-.4.7.2z" id="path145" fill="url(#linearGradient354)"/><path d="M125 117.6c.9 1.5 2.2 1.6 2.2 1.6.8-.6 1.9-1 2.2-1.2h-.3c-.2-.1-1.4-.7-1.4-2.3v-.2h-.4a3 3 0 0 0-2.1 1.4l-.3.6m-.1-.2" id="path146" fill="#007CC3"/><path d="M122 116.5s.2-1.7 2.7-2.4l.5.1 2 1 .1-.1.7.1v.6c0 1.4 1.2 1.8 1.2 1.8h.5q.3-.2.3-.5.2-.3 0-.8-.2-.2-.6-.1l-.4.3v.6h-.5l-.4-.9h.7q.4-.4.6-.4.6 0 .9.2c.3.4.1 1.2.1 1.2s-.1.6-.5.8h-.8s-1.4-.6-1.4-2.3v-.2h-.3a3 3 0 0 0-2.2 1.4l-.4.8v.4c-.1 0-.8 2.3-2.6 2.5-.1 0-2 .6-3.5-.4l.1-.2v-.1h.2c.6 0 2.1-.5 3-3.4" id="path147" fill="#75C5F0"/><path d="M129.3 118q-.8-.1-1-.7z" id="path148" fill="#007CC3"/><path d="M129 117s.8 1.2 0 0l-.1-.4q.2-.3.5-.3h.3l.2.1q.1.5 0 .8 0 .3-.3.5h-.5l-.7-.5z" id="path149" fill="#007CC3"/><path d="M137.4 117.3c-.5 0-.5.5-.5.5.3.6 1.2.2 1.2.2z" id="path150" fill="url(#f)"/><path d="M137.7 117c.8-.3.4.4.4.4-.5.1-.4-.3-.4-.3" id="path151" fill="url(#e)"/><path d="M134.8 120c-.5-1.4-.8-1.4-.8-1.4h-1.1c-2.3-.4-1.1-2-1.1-2-2.8-1.4-.6-2.5-.6-2.5-2.1-2.1.4-2.2.4-2.2-.2-1.8 1-2 2-1.6.6.4 1 1.2 1 1.2 1.7-.7 1.4 2 1.4 2 2 .9.4 3 .4 3 .6 1.2-.2 2.1-.2 2.1q.7-.2.7-.4c-.6-1.1.6-1.2.6-1.2.8-.8 1 .6 1 .6.4 1-1.1 1-1.1 1-.7 1-1.4.9-1.4.9 0 1.3-.5 1.9-.5 1.9q0 1.1.2 1.2c.2-2.6 1.6-1.6 1.6-1.6.1-2.6 1.5-1.7 1.5-1.7 0-1.5 1.3-1.5 1.3-1.5 1.4.8.6 2.3.6 2.3 2.3-1 1.6 1.7 1.6 1.7-.2.5-.7.7-.7.7 1.2 2-1.7 1.9-1.7 1.9 0 1.7-1.8 1-1.8 1-.6-.1-1 .3-1 .3l-.5.3h-.8c-.9 0-1 1-1 1q-.6 0-1.2-.3c-.4-1.1-1.1-1.4-1.1-1.4l-1.3-.1c-1.5-.1-.8-1.7-.8-1.7q-1.5-.2-1.7-.9V121h-.3c0-1.6 1.5-.9 1.5-.9 0-1.7 1-1.6 1.6-1.3.3.2.5.7.5.7 1.6.2 1.2 1.8 1.2 1.8 2 .3 1.2 2 1.2 2l-.2 1c.7-.8.5-1.6.5-1.6q-.2-1.7 0-1.5c.1-.6-.4-.6-.4-.6-.5.7-1 0-1 0-1-.9.2-1.2.2-1.2.8-.8.8.4.8.4q.6.1.5.2" id="path152" fill="#8F5444"/><path d="M132.4 112.5s-1.7 1.1.6 2.4c0 0 .5 0 .2.4 0 0-1.6 1.2 1.2 2.3 0 0 1.2.5.6 2.4 0 0-.5 2-.2 4.3q.2.1.1-1s0-1.2.3-2.3c0 0 1.2-1.7.8-4.7 0 0 1.5-1.7-.3-2.5 0 0 .3-1 0-1.6 0 0-.3-.9-1.4-.3q-.1.1.1 2 .7-1.4.6-1.6c.7 1.3 0 2.4 0 2.4-.4 1 .1 1.3.1 1.3q.6-.9.8-.9c-.6 1.4-.5 3.3-.5 3.3-1-4.1-2-4.4-2-4.4q.8-.2.8 0c-1-2.4-2-3.4-2-3.4-.6 1 .2 1.9.2 1.9" id="path153" fill="#F8C300"/><path d="M135.8 125.5c-1 .2-1.4 1.5-1.4 1.5l-.6-.2c-.2-1.5-1.4-2-1.4-2-1.2-.8-.5-1.3-.5-1.3-1.8-.9-2-1.8-2-1.8-.3-.7.5-.8.5-.8-.7-1.6.7-2 .7-2-.4 2 1 3.4 1 3.4 1 1.3 1.7 3 1.7 3-.5-2-.3-2.9-.3-2.9q-.6.6-.5.7c-1-1.8-.6-3-.6-3-.7.5-.6 1.2-.6 1.2-.4-1.5.8-1.5.8-1.5.7.5.2 1.6.2 1.6-.3.6.2.3.2.3.9-.6 1 .1 1 .1.4.7 0 1.6 0 1.6q0 1.3.1 1.2c.4.6.2 1.5.2 1.5.7-1.5 1.2-1.7 1.2-1.7q.2 0 .5-1.7s-.2-.7.3-1.4c0 0 .4-.4 1 .2 0 0 .3.5.3 0l.2-1.1s.8-1.4 1.4-.8c0 0-.2 1.5-1.8 3.2 0 0 0-.7-.6-1.2 0 0 0 1.2-1 3 0 0 2.4-2.4 4.6-3.4q-.1-.2-1.1-.1c.9-1.7.8-2.8.8-2.8.6.8.1 2 .1 2 1.2 1.2-.7 2-.7 2-1.1.6-.9.7-.9.7.6 1.2-.8 1.3-.8 1.3-1.3.3-1.3.8-1.3.8 0 .5-.8.4-.8.4z" id="path154" fill="#F8C300"/><path d="m137.5 139.5-.1-1.3s-.4-1.2 1.5-1.1c0 0-.3-.7 0-1.6 0 0 .4-1 1.4-.2 0 0-.1-.9 1-1.3 0 0 1.4-.1 1 2 0 0 .8-.2 1 .6 0 0 .7-1.2 1.8-.7 0 0 1.5 1.6-1 3.1 0 0 1 1.9-2 2 0 0-.5 1-2 .7 0 0-1.1-.5-1.9.6l-.4.8q0-1.9-.2-3.3z" id="path155" fill="#8F5444"/><g fill="#f8c300" id="g158"><path d="M143.4 137s0-.5-.5-.7c0 0-1-.3-1.8 1.6 0 0-.8-1-1.6.2l-.3 1s-1 .4-1.4 2.7v.3c.2-.4.7-1 2-.8 0 0 1.8.6 2.1-.8 0 0 2.9.5 1.6-1.7 0 0 2.2-1.2 1.4-2.5-1 2-3.3 3-3.3 3l-3.1 1.5q.4-1 .6-.9c.8-.4 1-1.1 1-1.1q.1.7 0 .8c1.9-1.3 2.2-2.5 2.2-2.5q0 1.6-.2 1.7c1.3-1 1.3-1.8 1.3-1.8" id="path156" fill="#F8C300"/><path d="M141 136.4c-.2-1.3.4-2.2.4-2.2.8 1.2-.5 2.2-.5 2.2" id="path157" fill="#F8C300"/><path d="M139.8 135.4c0 1.8-.7 1.5-.7 1.5-.2-1.7.7-1.5.7-1.5" id="path158" fill="#F8C300"/></g><g fill="#007cc3" id="g165"><path d="M133 147q.2 0 .2-.2l.1.1.6-.5-.2-.1.1-.2c.6.6.8 1.4.8 1.4a8 8 0 0 1 .6 2.6l-.3-.4h-.2l-.3-.1c-1.3-1-.8-1.8-.8-1.8q0-.6-.6-.7" id="path159" fill="#007CC3"/><path d="m132.2 148.4.1-.2.5.5.1-.8q.7 1.5 1.3 1.8-1.2-.6-2-1.3" id="path160" fill="#007CC3"/><path d="m131.4 149.7.1-.2h.4v.2z" id="path161" fill="#007CC3"/><path d="m135.6 152-1 .8a6 6 0 0 0-2.8 3.9 14 14 0 0 1-1.6-3s-.1-1.6.5-2.3l-.2-.1q1 0 1.1-.2c.5 1.5 2 .5 2 .5.8-.5 1.3-.2 1.3-.2z" id="path162" fill="#007CC3"/><path d="M134.3 141.4c2 1.8 2.9 3.7 3.1 4.4v.5s-1.5-.2-.7 2.1c0 0 .2.5-.4 1.3v.1h-.2l-.1-1s.3-.7-.4-1.9c0 0-.5-1.1.4-2.3l-.1-.3-.4.2c-.3.3 0 0 0 0v-1q0-.2-.9-1.1s.3.4.1 1.2q-.2-.1-.3 1.3s0 .5-.2.1v-.7l-.1-1.1s-.3.1-.2-1z" id="path163" fill="#007CC3"/><path d="M132.7 125.5q.5.3 1 1.3l-.7-.4h-.4q.2 2.7 0 3.6l-.3-.7s-1.2-2.9.5-3.6zm3.7.5-.2.1v.2q.3.1.4.5l-.6.2-1.2.1c0-.2.1-1 1-1z" id="path165" fill="#007CC3"/></g><g fill="#75c5f0" id="g177"><path d="M136.4 127.4q.5-.2.6-.5t-.4-1l-.4.2v.2q.4.1.4.5l-.6.2q0 .2-1.2 0h-.8v-.1h-.2v-.1h-.1l-.7-.4h-.4q.2 2.7 0 3.6l.2.4.5.4.5.1h.6c.6 0 .3-.3.3-.3l.2-.6v-.3q.1-1 .7-1.1z" id="path173" fill="#75C5F0"/><path d="M129.8 135.6c0 1.6.6 2 .6 2q.7-.8 1.3-.2c.4.4.4 1 .4 1 2-1.2 1.3 2 1.3 2 1-.2 1 .5.9 1 2 1.8 2.9 3.7 3.1 4.4v-.4 1c0-.1 0-1.2.4-1.7 0-1.5 0-3.6-.2-5 0 0-.8-2-2.2-3.3 0 0-2.5-1.9-2.3-3.8 0 0 .3-1.1-.8-3.3 0 0-1.2-2.9.5-3.6l-.1-.3h-.1q-1 .6-1.1 1.8v-.2c-.6 1.2-.9 1.3-.9 1.3-1.2 1.4-.5 3.4-.5 3.4-.5 1.8-.3 3.9-.3 3.9" id="path176" fill="#75C5F0"/><path d="M130 154.5v-.2s.5 2.3-.3 5.3c0 0-.5.5.7 2.2l2.5 3.1s2.2 1.6 1 4h.4l.5.3v.3c.2.6-.3 1-.3 1h1.4l1.6-3.5.2-.8a5 5 0 0 0 0-3.4c-.1-1.7-3.4-3.9-3.6-4-2.5-1.4-4-5.1-4-5.2v.1s0-1.6.6-2.3l-.4-.3c-.7.8-.6 2.6-.6 2.6v.1z" id="path177" fill="#75C5F0"/></g><g fill="#8f5444" id="g180"><path d="M141.5 131s-.4-1-1.8 0c0 0 .4-.4.1-1.6 0 0 1.3-.6.8-2.3 0 0-.3-1.3-2 .6 0 0-1-1-2 1 0 0-1.5-.8-1.7 1 0 0 .3 1.4-.8 2l-.6.2q.2-.3.3-1l-1-.4q.4 1.2.3 1.6v.5l.3 1.4s1.2-.7 2.2 0c0 0 1.4 1 1.7 0 0 0 2.2 1.2 2.5-.7 0 0 2.2-.3 1.7-2.2" id="path178" fill="#8F5444"/><path d="M133.8 134.8h.7c1.3-1 1.6.3 1.6.3.6 1.1-.7 1.2-.7 1.2q.1 0 0 0z" id="path179" fill="#8F5444"/><path d="m135 149.7-.7-.6c-.5-2.7-1.8-2.2-1.8-2.2-.3-2-1.7-1.2-1.7-1.2-1.3-1.5-2-.2-2-.2l-.2.8v3.1l.3.3c.7.8 1 .4 1 .4q0 1 .4 1l.2.2q1 0 1.1-.2c.5 1.5 2 .5 2 .5.8-.5 1.3-.2 1.3-.2 1.8 1 1.5 3 1.5 3l-.5 1.4-.8.5c-.5 0-.4-.4-.4-.4 1-1-.3-1.3-.3-1.3-1.2-1-1.2.5-1.2.5-.6 1 .8 1 .8 1q.5.9.6.8l-.4 1.2-.3.6.2.1 1 .7.5-.4q.6-.1.5.1c.5.7 1 .5 1 .5.5 0 .4.6.4.6.7 1.6 1.7.7 1.7.7q1 1.2 1.7 1c.5 0 .7-.6.7-.6 3 .4 2.6-1.6 2.6-1.6-.3-1.1-1.5-.4-1.5-.4.4-1.6-2.1-1.2-2.1-1.2-.3-1.6-2.2-.5-2.2-.5l-.4.2c-.9.4-1.1 0-1.1 0q-1.1-.3-1-.1c0-.6 1-1 1-1 .7-.4 1.2 0 1.2 0 2 1.2 2.5-.4 2.5-.4 3.1.7 2.3-1.3 2.3-1.3 1.7-.2 1.5-1.5 1.5-1.5-.1-1.6-1.7-.9-1.7-.9.7-2.3-.6-1.9-.6-1.9-.7.1-1.2.6-1.2.6-1.2-1-2 .5-2 .5-.8-.2-1.4.7-1.4.7l-.1-.8c1.1-1.8 2.6-1.5 2.6-1.5q1.4-.2 1.7-.6l.2-.2v-.8c2-.5 1.8-1.4 1.8-1.4 0-1-.6-.9-.6-.9 1.7-2 .4-2.6.4-2.6-1-.4-1.5 1-1.5 1q-.5-.2-.6-.1c.4-2.2-1-2.2-1-2.2-1.3.2-1.3 1.5-1.3 2h.2c.1.3.2-.1.2-.1-.3-2.1 1-1.7 1-1.7v.1c0 2.5-1.8 4.4-1.8 4.4a8 8 0 0 0-1.6 3.2c1-1.5 1.7-1.7 1.7-1.7q-.6-.2-.7 0c1-1.7 2.8-2.2 2.8-2.2-.7-.3-1.1 0-1.1 0 .5-1 .8-1 .8-1 2.1 1-.7 2.4-.7 2.4.4 1.4-1.4 2-1.4 2-2 1-1.5 3.7-1.5 3.7l-.3.3q-.7-3.4-.5-4v-.2q-.3-.2-.2-.9s.3-.7-.4-1.9c0 0-.5-1.1.4-2.3l-.1-.3-.4.2c-.3.3 0 0 0 0v-1q0-.2-.9-1.1s.3.4.1 1.2q-.2-.1-.3 1.3s0 .5-.2.1v-.7l-.1-1.1s-.3.1-.2-1c0 0 1.3-2-.5-1.8 0 0 .8-3.2-1.3-2q.1-.2-.4-1c-.4-.5-1.3-.5-1.6 1l-1.5.4v3a2 2 0 0 0 1.3.6c0 2 1.4 1.8 1.4 1.8.8 1.2 1.4 1.2 1.4 1.2 1.5.4 1.9 2.1 1.9 2.1a8 8 0 0 1 .6 2.6zm3.3-5.3c-1 .3-.9 2-.9 2s-1.5-.3-.7 2l-.2 1h.2c.6-1 .2-1.5.2-1.5-.4-1.2.4-1.4.4-1.4l.4.2c0 .3.1-.2.1-.2q0-1.7.5-2" id="path180" fill="#8F5444"/></g><g fill="#f8c300" id="g194"><path d="M140.2 127.3c1 .6-.6 2-.6 2 .6 1-.1 1.6-.1 1.6q-1.5.4-1.6.2c.4 1.4-.9 1.2-.9 1.2-2-.2-3.5.6-3.5.6.6-1.6 1.7-2 1.7-2 0-2.5 1.5-2 1.5-2 .3.4.3 0 .3 0 .3-1.5 1.2-1.2 1.2-1.2.6.2.3.5.3.5l-.7 1.3-.2-1c-.7 1.9-2.5 3.2-2.5 3.2 3.8-2.1 5-4.4 5-4.4" id="path181" fill="#F8C300"/><path d="M141.3 131c.2 2-1.3 1.4-1.3 1.4.8-.3 1.3-1.3 1.3-1.3" id="path182" fill="#F8C300"/><path d="M139.5 133v-.2l-1.8.8c.8 1.1 1.8-.6 1.8-.6" id="path183" fill="#F8C300"/><path d="M135.7 135.1q-.2-.6-.4-.5c-.7.2-.3 1.1-.3 1.1z" id="path184" fill="#F8C300"/><path d="M136 135.4c.3.8-.3.4-.3.4-.2-.5.3-.4.3-.4" id="path185" fill="#F8C300"/><path d="m142.7 152-1.1.4q.9-1.2 1-1.1.2.4.1.6" id="path186" fill="#F8C300"/><path d="M140.5 151.8c0-.7-.2-.6-.2-.6-1.1.6-1 1.8-1 1.8z" id="path187" fill="#F8C300"/><path d="M141.3 153.5s-.2-1.5-1.5 0c0 0-.3.4-.4.2l-.5-.4s-.5-.5-1.2 1.2q0-.2-.8.5s-.5.1-1.7 2.5l.6-.8s2.4-2.1 5.2-3.2c0 0-.7.2-.6.9 0 0 1.7-1 3.3-.5 0 0-1.8.1-5.5 1.5 0 0 .6-.1 1.2.8 0 0-1.9-.7-3.2.3 0 0 1-.3 3 .3 0 0 1.4.5 1-1 0 0-.4-.7.4-.1 0 0 1.9 1.4 2-.9 0 0 2.3 0 1.2-1.6 0 0-.8-.9-2.3.4z" id="path188" fill="#F8C300"/><path d="M134.6 154.9c.4.8-.6.9-.6.9-1-.3 0-.8 0-.8.4-.4.6-.2.6-.2" id="path189" fill="#F8C300"/><path d="m134.2 154.6-.7.3c0-.8.7-.3.7-.3" id="path190" fill="#F8C300"/><path d="M140.9 159.7c1.8.2 1.6-.8 1.6-.8 0-1.1-2-.6-2-.6-.7-1.2-1.5-.6-1.5-.6-1.2.6-2.2.3-2.2.3-1.5-.1-2 .7-2 .7 1.4-.3 1.7.4 1.7.4.2.4 1 .4 1 .4q.9 1.3 1 1.2c.4.4.6-.4.6-.4.6 1 1.1 1 1.1 1 1 0 1.4-.4 1.4-.4 1.4.2 2.3-.9 2.3-.9-2.3.7-5-.9-5-.9l-2-.6q2.4 0 2.6-.2-.4.5-.6.5c1.5.4 3-.2 3-.2-.3.7-1 1-1 1" id="path191" fill="#F8C300"/><path d="M135.8 149.7c-.2-3.4-.7-4.3-.7-4.3-.2-1 0-2.1 0-2.1-.7 1.3-.4 2.8-.4 2.8-1-1-.7-1.6-.7-1.6 0-1-.5-1.2-.5-1.2-.5-1 .1-1.3.1-1.3.7-1.5-1.2-1.2-1.2-1.2 0-2.5-1.5-1.2-1.5-1.2-1.2-1.6-1.9-.6-1.9-.6a6 6 0 0 1 2 2.5c.5-.6.6-1.6.6-1.6.3 1.4.2 1.6.2 1.6-.4 1.1.3 1.4.3 1.4.2-.9.5-.9.5-.9 0 1.2.5 2.3.5 2.3-1-1.1-1.8-1-1.8-1q-1.2-.7-1-.8c.1.7.8 1 .8 1l2.4 1.8c.8.7.7 1.1.7 1.1.2.7.7.8.7.8z" id="path192" fill="#F8C300"/><path d="M129.1 141.1s-.7-.5 0 0m0 0c.8.6 2 1 2 1-1.1.1-2-.3-2-.3q-.4-.3-.4-.8v-.2z" id="path193" fill="#F8C300"/><path d="M136 151.8c-.8-1.9-1.6-2.2-1.6-2.2-1.3-1-.8-1.8-.8-1.8-.2-1-1.3-.7-1.3-.7-.3-1.7-1.6-1.1-1.6-1.1 0 1.4.6 1.6.6 1.6 0-1 .3-1 .3-1 .4 1.6 1.2 2 1.2 2l.1-.7a5 5 0 0 0 1.4 2c-3.5-2-4.8-4-4.8-4-.2-.6.2-.6.2-.6-.4-.1-.7.4-.7.4-.2 1.6 1 2.2 1 2.2-.9 1.2.3 1.5.3 1.5 1 .3 1.6 0 1.6 0 .1 1.8 1.2 1 1.2 1 1.7-.3 2.9 1.4 2.9 1.4" id="path194" fill="#F8C300"/></g><path id="polygon194" d="m133.6 146.1-.6.5.3.4.6-.6z" fill="#87C3DD"/><path d="M140.5 142.7c0 2.5-1.8 4.4-1.8 4.4a8 8 0 0 0-1.6 3.2c1-1.5 1.7-1.7 1.7-1.7h-.7c1-1.7 2.8-2.2 2.8-2.2-.7-.3-1.1 0-1.1 0 .5-1 .8-1 .8-1 2.1 1-.7 2.4-.7 2.4.4 1.4-1.4 2-1.4 2-2 1-1.5 3.7-1.5 3.7l-.3.3c-1.2-5.2 0-4.5 0-4.5.6-1 .2-1.5.2-1.5-.4-1.2.4-1.4.4-1.4l.4.2c0 .3.1-.2.1-.2 0-2.3.8-2.3.8-2.3q.8.3.7.4c.1.2.2-.2.2-.2-.3-2.1 1-1.7 1-1.7" id="path195" fill="#F8C300"/><path d="M142.3 146.3c1.2-1.5 1-2.2 1-2.2-1.1-.1-1.1.8-1.1.8q.2 1.2.1 1.4" id="path196" fill="#F8C300"/><path d="M130 169h-.4c.2-.5.9-1.5 1.8-1.8 0 0 2-.7 2.8-.1q0-.6-.3-1c-.1 0-1.3 0-2-.4q-.1-.2.2-1.8l-.2-.2-.6-.7q-.1-.1-.5 2.5-.2-.1-1 .5v-.7h-.3s-.4.5-.4 1.7c0 0-.6.6-.8 2.2q-1.2.2-3.2 1s.4-.9 1.4-1.5c0 0 2.2-.8 1.2-2 0 0 2.5-2 .6-2.9 0 0 .8-1.5-.3-2.3v-.6l-.4.5-1.2 1.3-.6.7-1 .4-1.2.6-1.1 1.2q-.1.2.5.8s.8 0 .5.8c0 0-.5 1.5.5 3.3 0 0-1.7.9-4.5.6q.5.5.4 1v.3c2.2-.1 5-.7 5-.7l3.4-1.3c.4.6 0 1 0 1-1.2.2-.7 1.2-.7 1.2.7.8 2 0 2 0 .4-.5-.5-1.2-.5-1.2.3-.9-.2-1.3-.2-1.3s1.7 0 1.3 1.8c0 0-.7 2.4 1.1 1.6l-.1.9s-.1 1.9 1.4 1.5c0 0 0 1 1.7 1.4 0 0 1.4.2.9-2.4 0 0 .7 0 1-.8 0 0 .7.6 2 0 0 0 2.4-1.7-1.1-2.2 0 0 .3 0 .1-.8 0 0 .3-.8-2.7-.6 0 0 .5-.4.3-1 0 0 .4-.8-2.2-.5 0 0-.8-.9-2.6 0" id="path197" fill="#8F5444"/><g fill="#007cc3" id="g201"><path d="m118.2 170.2-.6-.6-.3-.5v-.3q1-.5 1.2-.3 1 .7 1.9.8v.3l.3.5s0 .9 1 .4q.2 0 .8.5a10 10 0 0 1-3 .1c-.5-.6-1.4-1-1.4-1z" id="path199" fill="#007CC3"/><path d="m125.3 171.5.6-.2 1.2-.1 1.4-.2-.2.4c-1.2.2-.7 1.2-.7 1.2.7.8 2 0 2 0 .4-.5-.5-1.2-.5-1.2v-.2h.1v-.3h1v1s-.7 2.4 1.1 1.6l-.1.9-.4.1s-3.3 1-5.6.8c.4-1.6-2.3-1.3-2.3-1.3 0-1.2-1.1-1.2-1.1-1.2l-1 .2c-.4.4-1 .1-1.2 0l.2-.6c2.3-.1 5-.7 5-.7z" id="path200" fill="#007CC3"/><path d="m123.6 170.7-.5.1q0-.3-.8-.8v-.6c1 .3 1.5 1 1.5 1.1h.1z" id="path201" fill="#007CC3"/></g><g fill="#8f5444" id="g212"><path d="M109.9 176.4a6 6 0 0 0 2.6 1.3c1.5.5 2.1 2 2.1 2 1 1.5 1.6 1.2 1.6 1.2 2-.7 3.8-.7 3.8-.7 1.3 0 1.2-.3 1.2-.3a9 9 0 0 1-3-1.7c-1-.7-1.8-.6-1.8-.6l-.8-.5c-2.5.3-4.7-.8-4.7-.8q-.1.2-1 .1" id="path210" fill="#8F5444"/><path d="M117.5 176q.8.5.9.3c-.4 2.5 1.3 2.1 1.3 2.1 2 2.4 2.8.6 2.8.6q0-.8-.2-.9c1 0 1.3-.6 1.3-.6 3.1.6 3-1.1 3-1.1 0-1-1.5-1-1.5-1 .7-1.7-2.2-1.4-2.2-1.4 0-1.2-1.1-1.2-1.1-1.2l-1 .2q-.7.3-1.3 0l-.8.8s-1 .7-1.2 1.8z" id="path211" fill="#8F5444"/><path d="M122.5 171q-.6-.6-.7-.5c-1.2.5-1.1-.4-1.1-.4-1-1.5.8-1.3.8-1.3 1.2-.5.8 1.2.8 1.2.6.2.8 1 .8 1z" id="path212" fill="#8F5444"/></g><g fill="#f8c300" id="g218"><path d="M120 172c3.9-.2 7.1-1.4 7.1-1.4 2.2-1.3 2.1-1.9 2.1-1.9a16 16 0 0 1-9.5 2.7z" id="path213" fill="#F8C300"/><path d="M122 169.4s-.2.8-.6 1c0 0-.7.2-.4-.4 0 0 .5-.3.6-1 0 0 .5-.3.4.4" id="path214" fill="#F8C300"/><path d="M119 176.1c-.1 1.2.3 1.8.3 1.8.6.7.5 0 .5 0-.1-1-.9-1.8-.9-1.8" id="path215" fill="#F8C300"/><path d="m121.8 178.5-1.4-.8c.4 1.6 1.5 1.5 1.5 1.5.6-.2-.1-.7-.1-.7" id="path216" fill="#F8C300"/><path d="M126.1 176.2c-.3-.8-1-.5-1-.5.7.3.5.7.5.7-.6.6-2.2 0-2.2 0-1.8-.7-2.8-1.6-2.8-1.6l-1.6-1.2 3 .2c-1 .3-1.1.7-1.1.7q.6.6.7.5c1.5-.6 2.5-.1 2.5-.1-.7.8-1.5.7-1.5.7 1.5.3 2.3-.2 2.3-.2.8-.6-.5-1-.5-1-1.4-.5-1.9-.1-1.9-.1.3-.7-.5-1.2-.5-1.2q-1.5 0-1.5.2-.8.2-1.1 0l-.7.5-.1.5c-.3.6.6.6.6.6 0 1.5 2 1.5 2 1.5.7 1.8 2.5.7 2.5.7 2.7.7 2.4-1 2.4-1" id="path217" fill="#F8C300"/><path d="m111.9 176.7-1.1-.4-.3.2a9 9 0 0 0 2.6.7c1.4.6 1.8 1.5 1.8 1.5.7 1.5 1 1.8 1 1.8-.3-1.3.5-1.3.5-1.3 2.1.1 3.6.6 3.6.6a8 8 0 0 0-3.5-1.6q-1.5-1-2-1-1.6-.1-2.6-.5" id="path218" fill="#F8C300"/></g><path d="m113.8 173.8-.1.3-.7-.3z" id="path219" fill="url(#g)"/><path d="M115.7 171.2q-1.1.2-1.6 0a2 2 0 0 0-.1-1.4c-.5-1-.3-1.8-.3-1.8.5-.5 1.2-.2 1.3-.1h1q-.8 2.3-.3 3.3m-2.9 2.6q2.1 0 3.6-.6h.1v-.1l.1-.1h.1v-.1h.1l.1-.2h.1q-.5-.1-1-.9l.5.6c-1.7.6-4.4.8-4.4.8 1-.2 1.8-1.4 1.8-1.4h2l-.2-.6q-1.1.2-1.6 0v.2l-.1.1v.1l-.1.1v.1l-.1.2h-.1v.1l-.8.7h-.1l-.8.4v.4zm1.3-2.5" id="path220" fill="#007CC3"/><g fill="#75c5f0" id="g226"><path d="M111.2 170c1-1.9 1.5-2.2 1.5-2.2.6-.4 1.6-.6 1.6-.6h-.1l1 .2q.6.2 1 .1 1 .2 1 1 .2 1.2.3 1.1.9.8 1 .7 1 1 .5 1.6a2 2 0 0 1-1.4 1c-.7.2-1 .9-1 .9-.4 1.5-1.1 2-1.2 2-1.1 1-1.7.8-1.8.8q-.8 0-1.2-.2l-.6-.2-.5-.2.2-.4q.4-.7.5-1.6c.7.1 2.5.5 3.1 1.4-.9.8-1.3.7-1.3.7s.4.1 1.3-.7c.1 0 .7-.4 1-1.8a2 2 0 0 1 1-.9c-.7-.3-2.4-1.3-1.1-4.7l-1-.1s-.8-.4-1.3.1c0 0-.2.8.3 1.8 0 0 .6 1-.4 2.3q-.3.6-1.6 1.1v-.4c-.2-1.5-.7-2.9-.7-2.9z" id="path226" fill="#75C5F0"/></g><path d="M116.6 173.9s.3-.7 1-.8c0 0 1-.2 1.4-1q.5-.8-.5-1.7l-.3-.1v-.1s2 1 1.7 2c0 0-.3 1.2-1.2 1.7 0 0-1 .7-1.2 1.8.1 1.3-1.2 1.4-1.2 1.4-2.7.6-5.4-.7-5.4-.7l.3-.4.1.1.5.2q.1.2 1.9.4h-.1s.7.2 1.9-.9c0 0 .7-.3 1-1.8" id="path227" fill="#007CC3"/><path d="M115.5 175.3c-.6-1.1-2.8-1.6-3.5-1.7v.4c.7.1 2.6.5 3.2 1.5z" id="path228" fill="url(#h)"/><path d="M116 171.8q.3.6.5.6c-1.7.6-4.4.8-4.4.8 1-.2 1.8-1.4 1.8-1.4z" id="path229" fill="#8F5444"/><path d="m116 171.9.3.3-3.5.6.9-.7z" id="path230" fill="#F8C300"/><path d="M127.4 162h.2c1.1 1.2.2 2.2.2 2.2 1.6.7-.4 2.6-.4 2.6.6 1.5-1.6 2-1.6 2-.9.5-1.5 2-1.5 2 .5-2.4 0-2.3 0-2.3-.7-1.9.6-2 .6-2-1-1.1-.7-1.8-.7-1.8a5 5 0 0 0 2.3-1.5c.4 1.7-.1 2.6-.1 2.6q-.9-1.3-1-1.2l.4 2-.8-.6q.2 1.1.4 1-.5 1.8-.3 2c.7-1 1.8-1.5 1.8-1.5q-1 0-1.1.2 2.4-2.6 2.3-2.7l-1.5 1c.8-2 .8-3.5.8-3.5z" id="path231" fill="#F8C300"/><path d="M134.6 176.5c-.9-.3-1.6-1.8-1.6-1.8 0 1.2.5 2 .5 2 .6.6 1.1-.2 1.1-.2" id="path232" fill="#F8C300"/><path d="m138 164.9.4-.5c-.2-1.2.7-1 .7-1 1.6-.7 1 1 1 1 .4 1.4-1.3.6-1.3.6q-.4.6-1 .6z" id="path233" fill="#8F5444"/><g fill="#f8c300" id="g241"><path d="M140 164.4c.2.5-.6.6-.6.6-1.2-.7-.3-1.4-.3-1.4 0 .4.8.8.8.8" id="path234" fill="#F8C300"/><path d="m140 164.2-.1-.7h-.5c0 .6.7.7.7.7" id="path235" fill="#F8C300"/><path d="M134.2 166.7c-2.7-.7-5 2.1-5 2.1 1-2.6 4.2-2.6 4.8-2.6z" id="path236" fill="#F8C300"/><path d="M128.2 171.7s.8 0 1 .3c0 0 .4.7-.2.5 0 0-.4-.4-1.2-.3 0 0-.3-.4.4-.5" id="path237" fill="#F8C300"/><path d="M128.8 172.8s-.5.4-.8-.2z" id="path238" fill="#F8C300"/><path d="M132.1 173.5c-1 1.4 0 2 0 2 .3-.9 0-2 0-2" id="path239" fill="#F8C300"/><path d="m136.8 172.3.1-1s.2-1.1-1.8-.4c0 0-.8.6-1-.4 0 0 1-.6-.1-1.4 0 0-.2-.3-1.9.2 0 0-.7-.8-2.7 0l-.2.1s1 .2 1.4.7c0 0-.3.4.5.6 0 0 .5-.2 1 1 0 0 .6 2.4 1.6 1 0 0 1 3.1 2.2 1 0 0 .2.6 1.8.2 0 0 1.8-1-.2-1.5.5.7-.3 1-.3 1-1.7 0-2.6-1.1-2.6-1.1-1.6-1.8-3.4-2.6-3.4-2.6h2.6c-1 .3-.6.7-.6.7.5 1 1.6 1.2 1.6 1.2 1.5-.4 1.7.2 1.7.2-1.1 0-1.4.5-1.4.5 1.3.6 1.7 0 1.7 0" id="path240" fill="#F8C300"/><path d="m137.8 166.6-.2.5s1.5 1.2 3.7 2.1c0 0 1.5.9 1.6-.9q-.1-.1.4 0s.4.8 1.7.6c0 0 .7 0 .3-2 0 0 1.9.1 1.5-1.8a9 9 0 0 1-5.5 2.5l.8 1c-1.3-.4-2-1.2-2-1.2l-1.6-.3c1.7 0 2.9-.5 2.9-.5q-.3.6-.5.6c2.4-.4 2.8-1.6 2.8-1.6l-.3 1.3c1.4-.6 1.3-.8 1.3-.8.5-1.6-.5-1.4-.5-1.4q-1.1.3-1 .5-.7 1-.9.8c-.2-1-1-.7-1-.7a2 2 0 0 0-1.4 1.3h-1z" id="path241" fill="#F8C300"/></g><path d="m137.7 166.6-.1.5s1.5 1.2 3.7 2.1c0 0 1.5 1 1.6-.9q-.1-.1.4 0s.4.8 1.7.6c0 0 .7 0 .3-1.9 0 0 1.9 0 1.5-1.9a9 9 0 0 1-5.5 2.5l.8 1c-1.3-.4-2-1.2-2-1.2l-1.6-.3c1.7 0 2.9-.5 2.9-.5q-.3.6-.5.6c2.4-.4 2.8-1.6 2.8-1.6l-.3 1.3c1.4-.5 1.3-.8 1.3-.8.5-1.6-.5-1.4-.5-1.4q-1.1.3-1 .5c-.4.8-.9.8-.9.8-.2-1-1-.7-1-.7a2 2 0 0 0-1.4 1.3c-.5.3-1 0-1 0zm0-.3q1.5 0 1.5.2.4 0 .5-.2l.4-.5c.7-1 1.5-1 1.5-1q.8.5.6.7c1.2-.7 1.2-.9 1.2-.9 1.4-1 1.7.5 1.7.5.8-1.6 1.8-.5 1.8-.5 1 1.7-1.2 2.6-1.2 2.6l.1.3c1.4.4.9 1.6.9 1.6 0 1-2.2 1-2.2 1-1 2-2.8 0-2.8 0-1.4 1-2.5-.9-2.5-.9.2 1-.3.7-.3.7-.8 1.3-1.4 0-1.4 0-1-.7.3-1.4.3-1.4q-.4-.7-.6-.6z" id="path242" fill="#8F5444"/><path d="M109.3 170.3c.3-.1 1-.4 1.4-.1l.6-.3s1.9 4.5-.4 6.4c0 0-.7.5-1.4 0h-.2z" id="path243" fill="#007CC3"/><path d="m96 120.5.6.4h3.5l-.3-.7c-1.5 1-3.4.4-3.5.4zm3.2-.4-.7.2z" id="path244" fill="url(#linearGradient358)"/><path d="M93.5 117.6c-.9 1.5-2.1 1.6-2.1 1.6L89 118h.3c.2-.1 1.4-.7 1.4-2.3v-.2h.4a3 3 0 0 1 2.1 1.3v.1l.3.6m.1-.2" id="path245" fill="#007CC3"/><path d="M96.5 116.5s-.2-1.7-2.7-2.4l-.5.1q-.1.2-2 1l-.1-.1-.7.1q-.2.5 0 .6c0 1.4-1.2 1.8-1.2 1.8h-.5q-.3-.2-.3-.5-.1-.3 0-.8.2-.2.6-.1l.4.3v.6h.5q.3-.3.4-.9h-.7l-.5-.4q-.7 0-1 .2c-.3.4-.1 1.2 0 1.2 0 0 0 .6.5.8h.7s1.4-.6 1.4-2.3v-.2h.3s1.5.2 2.2 1.4l.4.8v.4c.1 0 .8 2.3 2.6 2.5.1 0 2 .6 3.5-.4v-.2h-.1v-.1h-.2c-.5 0-2.1-.5-3-3.4" id="path246" fill="#75C5F0"/><path d="M89.2 118q.8-.1 1-.7z" id="path247" fill="#007CC3"/><path d="M89.6 117s-.9 1.2 0 0l-.2-.1q.2-.3.1-.4-.1-.3-.4-.3h-.4l-.2.1q-.2.5 0 .8 0 .3.3.5h.5l.7-.5z" id="path248" fill="#007CC3"/><path d="M81.1 117.3c.5 0 .5.5.5.5-.2.6-1.2.2-1.2.2z" id="path249" fill="url(#p)"/><path d="M80.9 117c-.9-.3-.5.4-.5.4.5.1.5-.3.5-.3" id="path250" fill="url(#j)"/><path d="M83.7 120c.6-1.4.9-1.4.9-1.4h1c2.3-.4 1.1-2 1.1-2 2.8-1.4.7-2.5.7-2.5 2-2.1-.5-2.2-.5-2.2.2-1.8-1-2-1.9-1.6-.7.4-1.1 1.2-1.1 1.2-1.7-.7-1.4 2-1.4 2-2 .9-.4 3-.4 3-.6 1.2.3 2.1.3 2.1q-.8-.2-.8-.4c.7-1.1-.6-1.2-.6-1.2-.8-.8-1 .6-1 .6-.3 1 1.1 1 1.1 1 .7 1 1.4.9 1.4.9 0 1.3.5 1.9.5 1.9q0 1.1-.2 1.2c-.2-2.6-1.6-1.6-1.6-1.6 0-2.6-1.5-1.7-1.5-1.7 0-1.5-1.3-1.5-1.3-1.5-1.4.8-.5 2.3-.5 2.3-2.4-1-1.7 1.7-1.7 1.7.2.5.7.7.7.7-1.2 2 1.7 1.9 1.7 1.9 0 1.7 1.8 1 1.8 1 .6-.1 1 .3 1 .3l.5.3h.8c1 0 1 1 1 1q.6 0 1.2-.3c.4-1.1 1.1-1.4 1.1-1.4l1.4-.1c1.5-.1.7-1.7.7-1.7q1.4-.2 1.8-.9V121h.3c-.2-1.6-1.5-.9-1.5-.9-.1-1.7-1.1-1.6-1.7-1.3-.3.2-.4.7-.4.7-1.7.2-1.3 1.8-1.3 1.8-2 .3-1.2 2-1.2 2l.2 1c-.7-.8-.5-1.6-.5-1.6q.2-1.7 0-1.5c-.1-.6.5-.6.5-.6.4.7.8 0 .8 0 1.1-.9 0-1.2 0-1.2-.8-.8-.9.4-.9.4q-.6.1-.5.2" id="path251" fill="#8F5444"/><path d="M86.1 112.5s1.7 1.1-.6 2.4c0 0-.4 0-.2.4 0 0 1.6 1.2-1.2 2.3 0 0-1.2.5-.6 2.4 0 0 .6 2 .3 4.3 0 0-.4-.2-.2-1 0 0 0-1.2-.3-2.3 0 0-1.2-1.7-.8-4.7 0 0-1.5-1.7.3-2.5 0 0-.3-1 0-1.6 0 0 .3-.9 1.4-.3q.2.1-.1 2-.7-1.4-.6-1.6c-.7 1.3 0 2.4 0 2.4.4 1 0 1.3 0 1.3l-.8-.9c.5 1.4.4 3.3.4 3.3 1-4.1 2-4.4 2-4.4q-.8-.2-.8 0c1-2.4 2-3.4 2-3.4.6 1-.2 1.9-.2 1.9" id="path252" fill="#F8C300"/><path d="M82.7 125.5c1.1.2 1.4 1.5 1.4 1.5l.6-.2c.2-1.5 1.4-2 1.4-2 1.2-.8.5-1.3.5-1.3 1.8-.9 2-1.8 2-1.8.4-.7-.5-.8-.5-.8.7-1.6-.6-2-.6-2 .3 2-1.2 3.4-1.2 3.4-.9 1.3-1.6 3-1.6 3 .5-2 .3-2.9.3-2.9q.6.6.5.7c1-1.8.6-3 .6-3 .7.5.6 1.2.6 1.2.4-1.5-.8-1.5-.8-1.5-.7.5-.2 1.6-.2 1.6.3.6-.2.3-.2.3-.9-.6-1 .1-1 .1-.4.7 0 1.6 0 1.6q0 1.3-.1 1.2c-.4.6-.2 1.5-.2 1.5-.7-1.5-1.2-1.7-1.2-1.7q-.2 0-.5-1.7s.2-.7-.3-1.4c0 0-.4-.4-1 .2 0 0-.3.5-.3 0l-.2-1.1s-.8-1.4-1.4-.8c0 0 .2 1.5 1.8 3.2 0 0 0-.7.6-1.2 0 0 0 1.2 1 3 0 0-2.4-2.4-4.6-3.4q.1-.2 1.1-.1c-.9-1.7-.8-2.8-.8-2.8-.6.8-.1 2-.1 2-1.2 1.2.7 2 .7 2 1.1.6.9.7.9.7-.5 1.2.9 1.3.9 1.3 1.2.3 1.2.8 1.2.8.1.5.8.4.8.4z" id="path253" fill="#F8C300"/><path d="m81 139.5.1-1.3s.4-1.2-1.5-1.1c0 0 .3-.7 0-1.6 0 0-.4-1-1.4-.2 0 0 .2-.9-1-1.3 0 0-1.4-.1-1 2 0 0-.8-.2-1 .6 0 0-.7-1.2-1.8-.7 0 0-1.5 1.6 1 3.1 0 0-1 1.9 2 2 0 0 .5 1 2 .7 0 0 1.1-.5 1.9.6l.4.8q0-1.9.2-3.3z" id="path254" fill="#8F5444"/><g fill="#f8c300" id="g257"><path d="M75.1 137s0-.5.5-.7c0 0 1-.3 1.9 1.6 0 0 .7-1 1.5.2 0 0 .3.6.3 1 0 0 1 .4 1.4 2.7v.3c-.2-.4-.7-1-2-.8 0 0-1.8.6-2.1-.8 0 0-2.9.5-1.6-1.7 0 0-2.2-1.2-1.4-2.5a8 8 0 0 0 3.3 3l3.1 1.5c-.1-.7-.6-.9-.6-.9-.7-.4-1-1.1-1-1.1q-.2.7 0 .8c-1.9-1.3-2.2-2.5-2.2-2.5a3 3 0 0 0 .2 1.7c-1.3-1-1.3-1.8-1.3-1.8" id="path255" fill="#F8C300"/><path d="M77.6 136.4c.1-1.3-.5-2.2-.5-2.2-.8 1.2.5 2.2.5 2.2" id="path256" fill="#F8C300"/><path d="M78.8 135.4c0 1.8.6 1.5.6 1.5.2-1.7-.6-1.5-.6-1.5" id="path257" fill="#F8C300"/></g><g fill="#007cc3" id="g264"><path d="M85.5 147q-.2 0-.2-.2l-.1.1-.5-.5.1-.1-.1-.2c-.6.6-.8 1.4-.8 1.4a8 8 0 0 0-.6 2.6l.3-.4h.2l.3-.1c1.3-1 .8-1.8.8-1.8q.1-.6.6-.7" id="path258" fill="#007CC3"/><path d="m86.3 148.4-.1-.2-.5.5-.1-.8q-.7 1.5-1.3 1.8 1.2-.6 2-1.3" id="path259" fill="#007CC3"/><path d="m87.1 149.7-.1-.2h-.3v.2z" id="path260" fill="#007CC3"/><path d="m83 152 .9.8c2 1.3 2.6 2.8 2.8 3.9 1-1.5 1.6-3 1.6-3s.2-1.6-.5-2.3l.2-.1q-1 0-1.1-.2c-.5 1.5-2 .5-2 .5-.8-.5-1.3-.2-1.3-.2z" id="path261" fill="#007CC3"/><path d="M84.2 141.4c-2 1.8-2.9 3.7-3.1 4.4v.5s1.5-.2.7 2.1q-.2 0 .4 1.3v.1h.2l.1-1s-.3-.7.4-1.9c0 0 .5-1.1-.4-2.3l.2-.3.3.2c.3.3 0 0 0 0v-1q0-.2.9-1.1l-.1 1.2q.1-.1.3 1.3s0 .5.2.1q.2.2 0-.7l.1-1.1s.4.1.2-1z" id="path262" fill="#007CC3"/><path d="M85.8 125.5q-.4.3-.9 1.3l.6-.4h.4v3.6l.4-.7s1.1-2.9-.6-3.6zm-3.7.5.2.1v.2q-.4.1-.3.5-.1.1.5.2l1.2.1c0-.2 0-1-1-1z" id="path264" fill="#007CC3"/></g><g fill="#75c5f0" id="g273"><path d="M82.1 127.4q-.4-.2-.6-.5t.4-1l.4.2v.2q-.4.1-.3.5l.5.2q0 .2 1.3 0h.7v-.1h.2v-.1h.2l.6-.4h.4v3.6l-.2.4-.5.4-.5.1H84c-.5 0-.3-.3-.3-.3l-.2-.6v-.3q-.1-1-.7-1.1z" id="path272" fill="#75C5F0"/></g><path d="M88.8 135.6c-.2 1.6-.7 2-.7 2q-.7-.8-1.3-.2c-.4.4-.4 1-.4 1-2-1.2-1.3 2-1.3 2-1-.2-1 .5-.9 1-2 1.8-2.9 3.7-3.1 4.4v-.4 1c0-.1.1-1.2-.4-1.7 0-1.5 0-3.6.2-5 0 0 .8-2 2.2-3.3 0 0 2.5-1.9 2.4-3.8 0 0-.4-1.1.8-3.3 0 0 1.1-2.9-.6-3.6l.2-.3q1.2.6 1.1 1.8v-.2c.7 1.2.9 1.3.9 1.3 1.2 1.4.5 3.4.5 3.4.5 1.8.4 3.9.4 3.9" id="path275" fill="#75C5F0"/><path d="m88.5 154.5.1-.2s-.6 2.3.2 5.3c0 0 .6.5-.7 2.2l-2.5 3.1s-2.2 1.6-1 4h-.4l-.5.3v.3c-.2.6.3 1 .3 1h-1.4L81 167l-.2-.8c-.6-1.6 0-3.3 0-3.4.1-1.7 3.4-3.9 3.6-4 2.5-1.4 4-5.1 4-5.2v.1s0-1.6-.6-2.3l.4-.3c.7.8.6 2.6.6 2.6v.1z" id="path276" fill="#75C5F0"/><g fill="#8f5444" id="g279"><path d="M77 131s.4-1 1.8 0c0 0-.4-.4-.1-1.6 0 0-1.3-.6-.8-2.3 0 0 .3-1.3 2 .6 0 0 1-1 2 1 0 0 1.5-.8 1.7 1 0 0-.3 1.4.8 2l.6.2-.3-1 1-.4-.3 1.6v.5l-.3 1.4s-1.2-.7-2.2 0c0 0-1.4 1-1.7 0 0 0-2.2 1.2-2.5-.7 0 0-2.2-.3-1.7-2.2" id="path277" fill="#8F5444"/><path d="M84.7 134.8h-.6c-1.3-1-1.7.3-1.7.3-.6 1.1.7 1.2.7 1.2q-.1 0 0 0z" id="path278" fill="#8F5444"/><path d="m83.6 149.7.7-.6c.4-2.7 1.7-2.2 1.7-2.2.3-2 1.8-1.2 1.8-1.2 1.2-1.5 1.9-.2 1.9-.2l.2.8v3.1l-.3.3c-.7.8-1 .4-1 .4q0 1-.4 1l-.2.2q-1 0-1.1-.2c-.5 1.5-2 .5-2 .5-.8-.5-1.3-.2-1.3-.2-1.8 1-1.5 3-1.5 3 .4.6.5 1.4.5 1.4l.8.5c.5 0 .4-.4.4-.4-1-1 .3-1.3.3-1.3 1.2-1 1.2.5 1.2.5.7 1-.8 1-.8 1q-.5.9-.6.8.5 1.1.4 1.2l.3.6-.2.1-1 .7-.5-.4q-.6-.1-.5.1c-.5.7-1 .5-1 .5-.5 0-.4.6-.4.6-.7 1.6-1.7.7-1.7.7q-.8 1.2-1.7 1c-.5 0-.7-.6-.7-.6-3 .4-2.6-1.6-2.6-1.6.3-1.1 1.5-.4 1.5-.4-.4-1.6 2.1-1.2 2.1-1.2.3-1.6 2.2-.5 2.2-.5l.4.2c.9.4 1.1 0 1.1 0q1.1-.3 1-.1c0-.6-1-1-1-1-.7-.4-1.2 0-1.2 0-2 1.2-2.5-.4-2.5-.4-3 .7-2.2-1.3-2.2-1.3-1.8-.2-1.6-1.5-1.6-1.5.2-1.6 1.7-.9 1.7-.9-.7-2.3.6-1.9.6-1.9.8.1 1.2.6 1.2.6 1.2-1 2 .5 2 .5.9-.2 1.4.7 1.4.7l.1-.8c-1.1-1.8-2.6-1.5-2.6-1.5q-1.4-.2-1.7-.6l-.2-.2v-.8c-2-.5-1.8-1.4-1.8-1.4 0-1 .6-.9.6-.9-1.7-2-.3-2.6-.3-2.6.8-.4 1.4 1 1.4 1q.5-.2.6-.1c-.4-2.2 1-2.2 1-2.2 1.3.2 1.3 1.5 1.3 2h-.2c-.1.3-.2-.1-.2-.1.3-2.1-1-1.7-1-1.7v.1c0 2.5 1.8 4.4 1.8 4.4a8 8 0 0 1 1.6 3.2c-1-1.5-1.7-1.7-1.7-1.7q.7-.2.7 0c-1-1.7-2.8-2.2-2.8-2.2.7-.3 1.1 0 1.1 0-.5-1-.8-1-.8-1-2.1 1 .7 2.4.7 2.4-.4 1.4 1.5 2 1.5 2 2 1 1.4 3.7 1.4 3.7l.3.3q.8-3.4.5-4v-.2q.3-.2.2-.9s-.3-.7.4-1.9c0 0 .5-1.1-.4-2.3l.2-.3.3.2c.3.3 0 0 0 0v-1q0-.2.9-1.1l-.1 1.2q.2-.1.3 1.3s0 .5.2.1v-.7l.1-1.1s.4.1.2-1c0 0-1.3-2 .5-1.8 0 0-.8-3.2 1.3-2q-.1-.2.4-1c.5-.5 1.3-.5 1.6 1l1.5.4v3q-1.1.8-1.3.6c0 2-1.4 1.8-1.4 1.8-.8 1.2-1.4 1.2-1.4 1.2-1.5.4-1.9 2.1-1.9 2.1a8 8 0 0 0-.6 2.6zm-3.3-5.3c1 .3.8 2 .8 2s1.5-.3.7 2l.2 1h-.2c-.5-1-.2-1.5-.2-1.5.4-1.2-.4-1.4-.4-1.4l-.3.2c-.2.3-.2-.2-.2-.2q0-1.7-.4-2" id="path279" fill="#8F5444"/></g><g fill="#f8c300" id="g293"><path d="M78.3 127.3c-1 .6.6 2 .6 2-.6 1 .1 1.6.1 1.6q1.5.4 1.6.2c-.4 1.4 1 1.2 1 1.2 2-.2 3.4.6 3.4.6-.6-1.6-1.7-2-1.7-2 0-2.5-1.4-2-1.4-2-.4.4-.3 0-.3 0-.3-1.5-1.3-1.2-1.3-1.2-.6.2-.3.5-.3.5l.7 1.3.2-1a8 8 0 0 0 2.5 3.2c-3.8-2.1-5-4.4-5-4.4" id="path280" fill="#F8C300"/><path d="M77.2 131c-.2 2 1.3 1.4 1.3 1.4-.8-.3-1.3-1.3-1.3-1.3" id="path281" fill="#F8C300"/><path d="M79 133v-.2l1.8.8c-.8 1.1-1.8-.6-1.8-.6" id="path282" fill="#F8C300"/><path d="M82.8 135.1c0-.5.4-.5.4-.5.7.2.3 1.1.3 1.1z" id="path283" fill="#F8C300"/><path d="M82.5 135.4c-.3.8.3.4.3.4.2-.5-.3-.4-.3-.4" id="path284" fill="#F8C300"/><path d="M75.8 152q1.3.3 1.1.4-.9-1.2-1-1.1-.2.4-.1.6" id="path285" fill="#F8C300"/><path d="M78 151.8c0-.7.2-.6.2-.6 1.1.6 1 1.8 1 1.8z" id="path286" fill="#F8C300"/><path d="M77.2 153.5s.2-1.5 1.5 0c0 0 .3.4.4.2l.5-.4s.5-.5 1.2 1.2q0-.2.8.5s.5.1 1.7 2.5l-.6-.8s-2.4-2.1-5.1-3.2c0 0 .7.2.5.9 0 0-1.7-1-3.3-.5 0 0 1.8.1 5.6 1.5 0 0-.7-.1-1.3.8 0 0 2-.7 3.3.3 0 0-1.1-.3-3 .3 0 0-1.5.5-1-1 0 0 .4-.7-.5-.1 0 0-1.8 1.4-2-.9 0 0-2.2 0-1.2-1.6 0 0 .8-.9 2.3.4z" id="path287" fill="#F8C300"/><path d="M84 154.9c-.5.8.6.9.6.9.8-.3-.2-.8-.2-.8-.3-.4-.5-.2-.5-.2" id="path288" fill="#F8C300"/><path d="m84.4 154.6.6.3c0-.8-.6-.3-.6-.3" id="path289" fill="#F8C300"/><path d="M77.7 159.7c-2 .2-1.7-.8-1.7-.8 0-1.1 2-.6 2-.6.7-1.2 1.5-.6 1.5-.6 1.3.6 2.2.3 2.2.3 1.5-.1 2 .7 2 .7-1.4-.3-1.7.4-1.7.4-.2.4-.9.4-.9.4l-1 1.2c-.5.4-.7-.4-.7-.4-.6 1-1 1-1 1-1 0-1.5-.4-1.5-.4-1.4.2-2.3-.9-2.3-.9 2.3.7 5-.9 5-.9l2-.6q-2.4 0-2.6-.2.4.5.6.5c-1.5.4-3-.2-3-.2.3.7 1 1 1 1" id="path290" fill="#F8C300"/><path d="M82.7 149.7c.2-3.4.7-4.3.7-4.3.2-1 0-2.1 0-2.1.8 1.3.4 2.8.4 2.8 1-1 .8-1.6.8-1.6q.2-1.3.4-1.2c.6-1 0-1.3 0-1.3-.8-1.5 1-1.2 1-1.2 0-2.5 1.6-1.2 1.6-1.2 1.2-1.6 2-.6 2-.6-1.7 1.2-2.1 2.5-2.1 2.5-.5-.6-.6-1.6-.6-1.6-.3 1.4-.2 1.6-.2 1.6.4 1.1-.2 1.4-.2 1.4-.3-.9-.6-.9-.6-.9.1 1.2-.5 2.3-.5 2.3 1-1.1 1.8-1 1.8-1q1.2-.7 1.1-.8c-.2.7-.9 1-.9 1l-2.4 1.8c-.8.7-.7 1.1-.7 1.1-.2.7-.7.8-.7.8z" id="path291" fill="#F8C300"/><path d="M89.4 141.1s.7-.5 0 0m0 0c-.7.6-2 1-2 1 1.2.1 2-.3 2-.3q.4-.3.5-.8v-.2z" id="path292" fill="#F8C300"/><path d="M82.5 151.8c.8-1.9 1.6-2.2 1.6-2.2 1.3-1 .8-1.8.8-1.8.3-1 1.3-.7 1.3-.7.3-1.7 1.6-1.1 1.6-1.1 0 1.4-.6 1.6-.6 1.6.1-1-.3-1-.3-1-.4 1.6-1.2 2-1.2 2l-.1-.7a5 5 0 0 1-1.4 2c3.5-2 4.8-4 4.8-4 .2-.6-.2-.6-.2-.6.4-.1.7.4.7.4.2 1.6-1 2.2-1 2.2.9 1.2-.3 1.5-.3 1.5-1 .3-1.5 0-1.5 0-.2 1.8-1.3 1-1.3 1-1.7-.3-2.9 1.4-2.9 1.4" id="path293" fill="#F8C300"/></g><path id="polygon293" d="m85 146.1.5.5-.3.4-.5-.6z" fill="#87C3DD"/><path d="M78 142.7c0 2.5 1.8 4.4 1.8 4.4a8 8 0 0 1 1.6 3.2c-1-1.5-1.7-1.7-1.7-1.7h.7c-1-1.7-2.8-2.2-2.8-2.2.7-.3 1.1 0 1.1 0-.5-1-.8-1-.8-1-2.1 1 .7 2.4.7 2.4-.4 1.4 1.5 2 1.5 2 2 1 1.4 3.7 1.4 3.7l.3.3c1.3-5.2 0-4.5 0-4.5-.5-1-.2-1.5-.2-1.5.4-1.2-.4-1.4-.4-1.4l-.3.2c-.2.3-.2-.2-.2-.2 0-2.3-.8-2.3-.8-2.3q-.8.3-.7.4c-.1.2-.2-.2-.2-.2.3-2.1-1-1.7-1-1.7" id="path294" fill="#F8C300"/><path d="M76.2 146.3c-1.1-1.5-1-2.2-1-2.2 1.1-.1 1.1.8 1.1.8q-.2 1.2-.1 1.4" id="path295" fill="#F8C300"/><path d="M88.5 169h.4c-.2-.5-.8-1.5-1.8-1.8 0 0-1.9-.7-2.8-.1q0-.6.3-1c.2 0 1.4 0 2-.4q.2-.2-.2-1.8l.9-1 .4 2.6q.2-.1 1 .5v-.7h.3q.2 0 .5 1.7.2-.1.8 2.2 1.1.2 3 1s-.3-.9-1.3-1.5c0 0-2.2-.8-1.2-2 0 0-2.5-2-.6-2.9 0 0-.8-1.5.3-2.3v-.6l.4.5 1.2 1.3.6.7 1 .4 1.2.6 1.1 1.2q.1.2-.5.8s-.8 0-.5.8c0 0 .6 1.5-.5 3.3 0 0 1.7.9 4.5.6q-.5.5-.4 1l.1.3c-2.3-.1-5-.7-5-.7l-3.4-1.3c-.5.6 0 1 0 1 1 .2.6 1.2.6 1.2-.7.8-2 0-2 0-.4-.5.5-1.2.5-1.2-.2-.9.2-1.3.2-1.3s-1.7 0-1.3 1.8c0 0 .7 2.4-1.1 1.6l.1.9s.2 1.9-1.4 1.5c0 0 0 1-1.7 1.4 0 0-1.4.2-.9-2.4 0 0-.7 0-1-.8 0 0-.7.6-2 0 0 0-2.4-1.7 1.1-2.2 0 0-.2 0 0-.8 0 0-.4-.8 2.6-.6 0 0-.5-.4-.3-1 0 0-.3-.8 2.2-.5 0 0 .8-.9 2.6 0" id="path296" fill="#8F5444"/><g fill="#007cc3" id="g300"><path d="m100.3 170.2.6-.6.3-.5v-.3q-1-.5-1.1-.3-1.2.7-2 .8v.3l-.3.5s0 .9-1 .4q-.2 0-.7.5a10 10 0 0 0 2.9.1c.5-.6 1.4-1 1.4-1z" id="path298" fill="#007CC3"/><path d="m93.2 171.5-.5-.2-1.3-.1-1.4-.2.2.4c1.2.2.7 1.2.7 1.2-.7.8-2 0-2 0-.4-.5.5-1.2.5-1.2v-.5h-1l-.1.3v.7s.7 2.4-1.1 1.6l.1.9.4.1s3.3 1 5.6.8c-.4-1.6 2.4-1.3 2.4-1.3 0-1.2 1-1.2 1-1.2l1 .2c.4.4 1 .1 1.3 0l-.3-.6c-2.3-.1-5-.7-5-.7z" id="path299" fill="#007CC3"/><path d="m95 170.7.4.1q.1-.3.8-.8v-.6c-1 .3-1.5 1-1.5 1.1z" id="path300" fill="#007CC3"/></g><g fill="#8f5444" id="g311"><path d="M108.6 176.4c-1.4 1.1-2.6 1.3-2.6 1.3-1.5.5-2.1 2-2.1 2-1 1.5-1.6 1.2-1.6 1.2-2-.7-3.7-.7-3.7-.7-1.4 0-1.3-.3-1.3-.3a9 9 0 0 0 3-1.7c1-.7 1.8-.6 1.8-.6l.8-.5c2.5.3 4.8-.8 4.8-.8q0 .2 1 .1" id="path309" fill="#8F5444"/><path d="M101 176q-.7.5-.8.3c.3 2.5-1.4 2.1-1.4 2.1-2 2.4-2.8.6-2.8.6q0-.8.2-.9c-1 0-1.3-.6-1.3-.6-3.1.6-2.9-1.1-2.9-1.1 0-1 1.4-1 1.4-1-.7-1.7 2.3-1.4 2.3-1.4 0-1.2 1-1.2 1-1.2l1 .2q.7.3 1.3 0l.8.8s1 .7 1.2 1.8z" id="path310" fill="#8F5444"/><path d="M96 171q.6-.6.7-.5c1.2.5 1.1-.4 1.1-.4 1-1.5-.7-1.3-.7-1.3-1.3-.5-.9 1.2-.9 1.2-.6.2-.8 1-.8 1z" id="path311" fill="#8F5444"/></g><g fill="#f8c300" id="g317"><path d="M98.6 172c-4-.2-7.2-1.4-7.2-1.4-2.1-1.3-2-1.9-2-1.9a19 19 0 0 0 6.2 2.5l3.2.2z" id="path312" fill="#F8C300"/><path d="M96.5 169.4s.2.8.6 1c0 0 .7.2.4-.4 0 0-.5-.3-.5-1 0 0-.5-.3-.5.4" id="path313" fill="#F8C300"/><path d="M99.6 176.1q-.2 1.8-.4 1.8c-.6.7-.5 0-.5 0 .1-1 .9-1.8.9-1.8" id="path314" fill="#F8C300"/><path d="m96.7 178.5 1.4-.8c-.4 1.6-1.5 1.5-1.5 1.5-.6-.2.1-.7.1-.7" id="path315" fill="#F8C300"/><path d="M92.4 176.2c.3-.8 1-.5 1-.5-.7.3-.5.7-.5.7.6.6 2.2 0 2.2 0 1.8-.7 2.8-1.6 2.8-1.6l1.6-1.2-3 .2q1.3.6 1.1.7-.6.6-.7.5c-1.5-.6-2.5-.1-2.5-.1.7.8 1.6.7 1.6.7-1.6.3-2.4-.2-2.4-.2-.8-.6.5-1 .5-1 1.4-.5 1.9-.1 1.9-.1-.3-.7.5-1.2.5-1.2q1.5 0 1.6.2.6.2 1 0l.7.5.2.5c.2.6-.7.6-.7.6 0 1.5-2 1.5-2 1.5-.7 1.8-2.4.7-2.4.7-2.8.7-2.5-1-2.5-1" id="path316" fill="#F8C300"/><path d="m106.6 176.7 1.1-.4.3.2c-1.4.6-2.6.7-2.6.7-1.4.6-1.8 1.5-1.8 1.5-.6 1.5-1 1.8-1 1.8.3-1.3-.5-1.3-.5-1.3-2.1.1-3.6.6-3.6.6a8 8 0 0 1 3.5-1.6q1.5-1 2-1 1.6-.1 2.6-.5" id="path317" fill="#F8C300"/></g><path d="m104.7 173.8.1.3.7-.3z" id="path318" fill="url(#z)"/><path d="M102.8 171.2q1.2.2 1.6 0a2 2 0 0 1 .1-1.4c.5-1 .3-1.8.3-1.8-.5-.5-1.2-.2-1.3-.1h-1q.8 2.3.3 3.3m2.9 2.6q-2.1 0-3.6-.6v-.1h-.1v-.1h-.1l-.1-.1h-.1l-.1-.2h-.1q.5-.1 1-.9-.3.6-.5.6c1.7.6 4.4.8 4.4.8-1-.2-1.8-1.4-1.8-1.4h-2l.2-.6q1.2.2 1.6 0v.2l.1.1v.1l.1.1v.1l.1.1v.1h.1v.1l.8.7h.2l.7.4v.4zm-1.3-2.5" id="path319" fill="#007CC3"/><g fill="#75c5f0" id="g325"><path d="M107.3 170c-1-1.9-1.5-2.2-1.5-2.2-.5-.4-1.6-.6-1.6-.6h.1l-1 .2q-.6.2-1 .1-1 .2-1 1-.1 1.2-.3 1.1-.9.8-1 .7-1 1-.5 1.6a2 2 0 0 0 1.4 1c.7.2 1 .9 1 .9.4 1.5 1.1 2 1.2 2 1.1 1 1.8.8 1.8.8q.8 0 1.2-.2l.6-.2.5-.2-.1-.4q-.5-.7-.6-1.6c-.6.1-2.5.5-3.1 1.4.9.8 1.3.7 1.3.7s-.4.1-1.3-.7c0 0-.7-.4-1-1.8a2 2 0 0 0-.9-.9c.6-.3 2.3-1.3 1-4.7l1-.1s.8-.4 1.3.1c0 0 .2.8-.3 1.8 0 0-.6 1 .4 2.3q.3.6 1.6 1.1v-.4c.2-1.5.7-2.9.7-2.9z" id="path325" fill="#75C5F0"/></g><path d="M102 173.9s-.3-.7-1-.8c0 0-.9-.2-1.4-1q-.5-.8.5-1.7l.3-.1v-.1s-2 1-1.7 2c0 0 .3 1.2 1.2 1.7 0 0 1 .7 1.2 1.8 0 1.3 1.2 1.4 1.2 1.4 2.7.6 5.4-.7 5.4-.7l-.3-.4-.1.1-.5.2q0 .2-1.9.4h.1s-.7.2-1.9-.9h.1s-.7-.3-1.2-1.8" id="path326" fill="#007CC3"/><path d="M103 175.3c.7-1.1 2.8-1.6 3.5-1.7v.4c-.7.1-2.6.5-3.2 1.5z" id="path327" fill="url(#linearGradient359)"/><path d="M102.6 171.8q-.4.6-.6.6c1.7.6 4.4.8 4.4.8-1-.2-1.8-1.4-1.8-1.4z" id="path328" fill="#8F5444"/><path d="m102.5 171.9-.3.3 3.5.6-.9-.7z" id="path329" fill="#F8C300"/><path d="M91.1 162c-1.1 1.2-.2 2.2-.2 2.2-1.6.7.5 2.6.5 2.6-.7 1.5 1.5 2 1.5 2 1 .5 1.6 2 1.6 2-.6-2.4 0-2.3 0-2.3.6-1.9-.6-2-.6-2 .9-1.1.6-1.8.6-1.8a5 5 0 0 1-2.2-1.5c-.5 1.7 0 2.6 0 2.6q.9-1.3 1-1.2l-.4 2 .8-.6q-.2 1.1-.4 1 .5 1.8.3 2a5 5 0 0 0-1.8-1.5q1 0 1.1.2-2.4-2.6-2.3-2.7l1.5 1c-.8-2-.7-3.5-.7-3.5z" id="path330" fill="#F8C300"/><path d="M83.9 176.5c.9-.3 1.6-1.8 1.6-1.8 0 1.2-.5 2-.5 2-.6.6-1.1-.2-1.1-.2" id="path331" fill="#F8C300"/><path d="m80.5 164.9-.4-.5c.2-1.2-.7-1-.7-1-1.6-.7-1 1-1 1-.4 1.4 1.3.6 1.3.6q.4.6 1 .6z" id="path332" fill="#8F5444"/><g fill="#f8c300" id="g340"><path d="M78.6 164.4c-.3.5.5.6.5.6 1.2-.7.3-1.4.3-1.4 0 .4-.8.8-.8.8" id="path333" fill="#F8C300"/><path d="m78.5 164.2.1-.7h.5c0 .6-.6.7-.6.7" id="path334" fill="#F8C300"/><path d="M84.3 166.7c2.7-.7 5.1 2.1 5.1 2.1-1.1-2.6-4.2-2.6-4.9-2.6z" id="path335" fill="#F8C300"/><path d="M90.3 171.7s-.8 0-1 .3c0 0-.4.7.2.5 0 0 .4-.4 1.2-.3 0 0 .3-.4-.4-.5" id="path336" fill="#F8C300"/><path d="M89.7 172.8s.6.4.9-.2z" id="path337" fill="#F8C300"/><path d="M86.4 173.5c1 1.4 0 2 0 2-.3-.9 0-2 0-2" id="path338" fill="#F8C300"/><path d="m81.7 172.3-.1-1s-.2-1.1 1.9-.4c0 0 .8.6.9-.4 0 0-1-.6.1-1.4 0 0 .2-.3 1.9.2 0 0 .7-.8 2.7 0l.2.1s-1 .2-1.4.7c0 0 .3.4-.5.6 0 0-.5-.2-1 1 0 0-.6 2.4-1.6 1 0 0-1 3.1-2.2 1 0 0-.2.6-1.8.2 0 0-1.8-1 .2-1.5-.5.7.3 1 .3 1 1.7 0 2.6-1.1 2.6-1.1 1.6-1.8 3.4-2.6 3.4-2.6h-2.6c1 .3.6.7.6.7-.5 1-1.6 1.2-1.6 1.2-1.5-.4-1.7.2-1.7.2 1.1 0 1.5.5 1.5.5-1.4.6-1.8 0-1.8 0" id="path339" fill="#F8C300"/><path d="m80.8 166.6.1.5s-1.5 1.2-3.7 2.1c0 0-1.4.9-1.6-.9q.1-.1-.4 0s-.4.8-1.6.6c0 0-.8 0-.4-2 0 0-1.9.1-1.5-1.8a9 9 0 0 0 5.5 2.5l-.8 1c1.3-.4 2-1.2 2-1.2l1.6-.3c-1.7 0-2.9-.5-2.9-.5q.3.6.5.6c-2.3-.4-2.8-1.6-2.8-1.6l.3 1.3c-1.4-.6-1.3-.8-1.3-.8-.5-1.6.5-1.4.5-1.4q1.1.3 1 .5.8 1 .9.8c.2-1 1-.7 1-.7a2 2 0 0 1 1.4 1.3h1z" id="path340" fill="#F8C300"/></g><path d="m80.8 166.6.1.5s-1.5 1.2-3.7 2.1c0 0-1.4 1-1.6-.9q.1-.1-.4 0s-.4.8-1.6.6c0 0-.8 0-.4-1.9 0 0-1.9 0-1.5-1.9a9 9 0 0 0 5.5 2.5l-.8 1c1.3-.4 2-1.2 2-1.2l1.6-.3c-1.7 0-2.9-.5-2.9-.5q.3.6.5.6c-2.3-.4-2.8-1.6-2.8-1.6q.1 1.3.3 1.3c-1.4-.5-1.3-.8-1.3-.8-.5-1.6.5-1.4.5-1.4q1.1.3 1 .5c.4.8.9.8.9.8.2-1 1-.7 1-.7a2 2 0 0 1 1.4 1.3c.5.3 1 0 1 0zm0-.3q-1.5 0-1.5.2-.4 0-.5-.2l-.4-.5c-.7-1-1.5-1-1.5-1q-.7.5-.6.7c-1.2-.7-1.2-.9-1.2-.9-1.4-1-1.6.5-1.6.5-1-1.6-1.9-.5-1.9-.5-1 1.7 1.2 2.6 1.2 2.6l-.1.3c-1.4.4-.9 1.6-.9 1.6.1 1 2.2 1 2.2 1 1 2 2.9 0 2.9 0 1.3 1 2.4-.9 2.4-.9-.2 1 .3.7.3.7.8 1.3 1.5 0 1.5 0 .9-.7-.4-1.4-.4-1.4q.4-.7.6-.6-.6-1.4-.5-1.6" id="path341" fill="#8F5444"/><path d="M109.3 170.3c-.4-.1-1-.4-1.5-.1l-.6-.3s-1.8 4.5.5 6.4c0 0 .7.5 1.3 0h.3z" id="path342" fill="#007CC3"/><path d="M109.3 102.4q1.1 0 1.2 1.2 0 1-1.2 1.2-1.2-.2-1.3-1.2.1-1.2 1.3-1.3" id="path343" fill="#8F5444"/><path d="M109.3 103q.5 0 .5.6t-.5.5l-.6-.5q0-.5.6-.6" id="path344" fill="#F8C300"/><path d="m97.2 112.6-1.6-1q0 .4.3.7l1 1 .8.1zm-1.7-1-.8-.7c.3 2.1 1.2 2.3 1.2 2.3" id="path345" fill="#F8C300"/><path d="M101.4 132.1q.3-.3 0-.4l-.3.8c-.4 1 1.6.3 1-.3q-.2-.3-.7-.1m-.2.6.2-.4q.6.5-.2.4" id="path346" fill="#605D5C"/><path d="M100.2 128.3q.7 1 1 2l.2-.5-.2-.4v-.2l-.4-.6-.5-.6z" id="path347" fill="#605D5C"/><path d="M108.4 110h.3q0-.2-.1-.1 1-.4 1.4 0c.2-1.6.3-2.5.3-4.1a3 3 0 0 1-2 0z" id="path348" fill="#F8C300"/><g fill="#8f5444" id="g352"><path d="M109.7 107v.3l-.2.2h-.4l-.2-.4v-.5q.3-.3.6-.1t.2.4" id="path349" fill="#8F5444"/><path d="M109.7 108v.5q-.2.3-.6.1l-.2-.4h.1q.4.2.6-.1z" id="path350" fill="#8F5444"/><path d="M109.5 107.5q.3.2.1.6t-.6.1q-.3-.1 0-.5.1-.3.5-.2" id="path351" fill="#8F5444"/><path d="M109.7 109.2v.5h-.7q-.2 0-.1-.3v-.5q.3-.4.6-.1.3 0 .2.4" id="path352" fill="#8F5444"/></g><path d="M128.9 156.7v-36.3H89.7V158c.4 6.3 7.3 7 7.3 7h9.4c2.7 0 2.9 2.8 2.9 3 0-.2.2-3 2.9-3q-.2.2 9.4 0s7-.7 7.3-7v-1.2m-.7.1v-35.7H90.4V158c.3 5.8 7 6.5 7 6.5h9.1c2.6 0 2.8 2.6 2.8 2.8 0-.2.2-2.8 2.8-2.8h9s6.8-.7 7.1-6.5z" id="path353" fill="#F8C300"/></g><!-- app4joy --></svg>