<svg width="600" height="400" viewBox="0 0 600 400" id="svg59" xmlns:xlink="http://www.w3.org/1999/xlink" xmlns="http://www.w3.org/2000/svg"><defs id="defs12"><linearGradient id="c" x1="519.09" x2="536.67" y1="256.77" y2="262.43" gradientTransform="translate(-259.5 52)scale(.99962)" gradientUnits="userSpaceOnUse" xlink:href="#a"/><linearGradient id="d" x1="546.1" x2="561.46" y1="224.85" y2="224.85" gradientTransform="translate(-259.5 52)scale(.99962)" gradientUnits="userSpaceOnUse" xlink:href="#a"/><linearGradient id="e" x1="575.97" x2="598.07" y1="183.29" y2="186.81" gradientTransform="translate(-259.5 52)scale(.99962)" gradientUnits="userSpaceOnUse"><stop stop-color="#a80" offset="0" id="stop1"/><stop stop-color="#d4aa00" stop-opacity="0" offset="1" id="stop2"/></linearGradient><linearGradient id="f" x1="588" x2="599.49" y1="222.87" y2="245.29" gradientTransform="translate(-259.5 52)scale(.99962)" gradientUnits="userSpaceOnUse"><stop stop-color="#a80" offset="0" id="stop3"/><stop stop-color="#d4aa00" stop-opacity="0" offset="1" id="stop4"/></linearGradient><linearGradient id="g" x1="529.02" x2="526.49" y1="307" y2="326.06" gradientTransform="translate(-259.5 52)scale(.99962)" gradientUnits="userSpaceOnUse" xlink:href="#a"/><linearGradient id="h" x1="556.88" x2="561.99" y1="273.82" y2="295.46" gradientTransform="translate(-259.5 52)scale(.99962)" gradientUnits="userSpaceOnUse" xlink:href="#a"/><linearGradient id="i" x1="517.58" x2="517.58" y1="10.213" y2="-27.381" gradientTransform="translate(-259.5 52)scale(.99962)" gradientUnits="userSpaceOnUse"><stop stop-color="#a00" offset="0" id="stop7"/><stop stop-color="#d40000" offset=".2465" id="stop8"/><stop stop-color="#d40000" offset=".72148" id="stop9"/><stop stop-color="#f00" offset="1" id="stop10"/></linearGradient><linearGradient id="a"><stop stop-color="#a80" offset="0" id="stop11"/><stop stop-color="#a80" stop-opacity="0" offset="1" id="stop12"/></linearGradient><radialGradient id="b" cx="710.2" cy="106.48" r="55.722" gradientTransform="matrix(1.2476 0 0 1.1866 -615.5 31.7)" gradientUnits="userSpaceOnUse"><stop stop-color="#a80" offset="0" id="stop5"/><stop stop-color="#a80" stop-opacity="0" offset="1" id="stop6"/></radialGradient></defs><g id="g60"><path fill="#d40000" id="rect12" d="M0 0h600v400H0z"/></g><g transform="translate(206.4 89.1)scale(.50332)" id="g59"><g fill-rule="evenodd" id="g18"><path d="M370.8 375.7c0 24.6-20 44.7-44.7 44.7H218.2a35 35 0 0 0-33.6 28.8 35 35 0 0 0-33.6-28.8H46c-24.8 0-44.8-20-44.8-44.7V.7h369.6z" fill="#ffd500" stroke="#d4a900" stroke-width="1.4994" id="path12"/><path d="M367 375.7V4.5H5v371.2a41 41 0 0 0 41 41h105a39 39 0 0 1 33.5 21 39 39 0 0 1 33.4-21H326a41 41 0 0 0 41-41" fill="#007ccc" id="path13"/><path d="M367 375.7V4.5H5l351.5 398.7a41 41 0 0 0 10.6-27.5" fill="#fff" id="path14"/><path d="M81.7 141.9c-3.4 0-9.6 1.4-10.5 2.6q-.7 1-2.3.2-2.8-1-2.7 1.6c0 2.6 1.2 3 6.7 2.4l7-1.1 2-.4v3.2c0 3.2-1.4 7.8-2.3 7.5-1.2-.4-4.6.8-4.6 1.5a6 6 0 0 0 1.2 2.4c.7.8 1.3 2.2 1.3 2.9s.6 2 1.3 3c.6 1 .5 2.1 1.3 2.6-1.2 31.7-1 63.4-1 95.1-.9-.1-.9.3-1 1q0 1-.6 1.2c-.3 0-1 1.5-1.6 3.5-1 3.3-3.4 7.1-3.4 5.4 0-1-4.7-1-6.4-.2q-2.4 1.5.3 6.6c.9 1.6 1.4 2.9 1 2.9q-.2.1-.5 1.6c0 .9-.8 3.2-1.7 5q-1.6 3.4-1.6 6.6c0 2.5-.1 3-1 2.7a7 7 0 0 1-2.1-2.7c-1-1.9-1.5-2.3-2.5-2q-1.2.2-1.3.9c0 .3-.5 1.3-1.2 2.1s-1.4 2.7-1.6 4-.8 2.6-1.3 2.8q-.9.5-1 1.6c0 1.8-1.8 7-2.8 8.3q-1 .9-.9 6c.2 6.3-1 9.7-2.7 8-.9-.9-2.4-.7-2.9.3-.3.6-.9 3.2-1.3 5.8s-1.2 6.6-1.7 8.8-1 6.6-1.2 9.8c-.1 3-.4 6.2-.6 6.9 0 .7 0 1.6.2 1.9.6 1 2.7.9 2.7-.2 0-1.3 1.7-.9 2.2.6.2.8.5 2.6.5 4q.3 5 3.3 4.4 1.3-.2 1.8.3t1.6.6q1.2 0 2.8 3.6c1.4 3 1.8 3.5 3.2 3.2q1.6-.3 2.8.8c1 .9 1.7 1 4.6.4a53 53 0 0 1 16.7 0c.3-.3 2.2-.6 4.2-.8l5.2-.6c.7-.1 3.4.1 5.9.5q4.4.6 4.9 0c.4-.6 3.2-.5 15.8.2 8.9.4 10.2.4 12.6 0 6.6-1 7-1 7.5.6.4 1 .6 1.4 1.6 1.4h3q4-.5 4.7-1.5t.8-.6.8-.2a19 19 0 0 1 5.8-.7c2.8 0 5.8-.4 6.7-.8 2-.8 3.5-4.5 2.7-6.7-.2-.8-.4-3.1-.5-5.2 0-4 .2-3.8-5.6-6.9q-2.6-1.5-2.5-2.1.3-.4-.3 0c-1.1.5-5.2-1-5.5-2.2-.4-1.3 0-5 .8-7.8.4-1.1.8-3.3 1-5 .2-1.6.7-3 1-3.3.3-.1.8-1.6 1-3.1.2-1.6.7-2.8 1-2.7.8.2 5-3.6 5-4.5s-3-2.6-4.4-2.6q-1 0-1.5-.4-.7-.4-2.5-.6l-11.9-.8q-.9-.2-1.8-1.7-.8-1.7-2.3-1.2-1.3.2-1.5-.2-.2-.7-2.8-1.3c-2.6-.6-3.2-1.2-3-2.8q.2-.4-.4-.2c-.7.5-2-2.3-2-4.5 0-1-.5-2.4-1.2-3.3s-1.2-2-1.2-2.5q-.1-1-.7-1.6c-.4-.3-1-2.2-1.3-4-.8-4.4-1.4-5-4.1-4.6q-2.4.5-2.2-.7 0-.9-1.3-1.4c-.7-.2-1.6-1.3-2.1-2.4a56 56 0 0 1-2.7-7.9c-.2-.8-1.3-2.5-2.5-3.7a12 12 0 0 1-2.4-3.6c-1-3.3-3-6.7-4.4-7.3-1.2-.6-1.4-1-1.2-2.2q.4-1.4-.2-1.5-.8-.1-1.4-1.3.1-48.1-1.7-95.3v-.2l.9-1q.7-.5.8-2c0-.7.6-2 1.3-2.8 1.5-1.8 1.5-2.3 0-3.3-1.3-.8-1.7-3.5-.7-4.6s1-3-.2-5.5c-.6-1.3-.9-2.7-.7-3 .3-.5 2.6 0 3.8.6.3.3 2.6.4 5 .4 4 0 4.4-.1 4.5-1.3q.3-1.2-2-2.3c-1.2-.7-2.6-1-2.8-.8q-.5.2-1.3-.6-.7-.9-2.5-.6c-.9.2-3.3 0-5.4-.4-2-.4-4.3-.7-5-.6-2 .1-3 0-5.5-.3zm7 6.4 1.3 1.4c.8.9 1.4 2 1.4 2.4l.2 2q0 1-1 1.3-1.5.3-1.2-1.4c0-.2-.2-1-.6-1.4q-.7-.7 0-1.1.5-.4.3-1.8z" fill="#808080" id="path15"/><path d="M142.3 375.8q.6 0 .6.6t-.6.7a.6.6 0 0 1-.6-.7q0-.5.6-.6m-63-.2q.4 0 .4.8.2 2.2-.7.6a1 1 0 0 1 .2-1.2zm37.5-1.7q.9 0 1 .7 0 .5-.7.6-.5 0-.3.5t-.7.5-.5-.9l.3-1.1q0-.3 1-.3m7.4-1.2 2 .5c1 .4 1 .5-.3 1.3q-1.1.7-1 0 .3-.5-.5-.6t-1-.6q0-.5.8-.6m18.5-1.3q.2 0 .2 1 0 .8-.5.9t-.3-1q.3-.8.6-.9m-44.8 0q.8 0 1.3.6.2.6-.9.6T97 372q0-.5 1-.6m-42.8 0q.4 0 .7.6t-.3.6-.6-.6.2-.6m38-.2h.3q1 0 1.1.6-.1.8-1.1.8-1.4 0-.3.6t-.4.9c-1.5.4-2.8-.8-2.1-1.8.4-.6 1.5-1 2.4-1m-6.6-.1q.5 0 1 .3.8.5.7 1-.4.1-1.3-.4-.7-.5-.5-.9zM62 371l.9 1c1 1 1.7 1.3 3.1 1q1.7-.2 2.3.2.1.6-1.4 1.6c-2 1-4.5.5-4.5-1l-.4-2q-.2-.9 0-.8m13.6 0q1.2 0 1.3 1.5c0 1.2-1 1.2-1.9 0q-.7-.9 0-1.3.2-.2.6-.2m61.5-.1q-.8 0-1.7.9-1 1.1.2 1 1 0 1.7-1 1-1.1-.2-1m-52.4-.6.4.4q.7.8.5 1.1-.4.3-.8-.8-.4-.7-.1-.7m14.8 0q.6 0 .7.6t-.3.6-.7-.6.3-.6m-40.9 0q.5 0 .9.9.3.9-.5 1-.8-.1-.8-1t.4-1m101-3.1q.3.5 0 1.2-.3.8-.3-.3zm-4.3-1c1.7 0 3.3.1 3.2.5s.1 2 .6 3.4c.7 2.4.6 3 0 3.7-1 1-1 1-2.5.1a2 2 0 0 1-1-1.8q0-1.2-.6-1c-.7.2-4.1-4-3.6-4.5s2.2-.5 3.9-.5m-38.8-1.6q-1 0 .7 1.5c1.6 1.6 3 2 3 1 0-.8-2.5-2.5-3.7-2.5m-15.4 0q-1.5 0-1.6.4.1.5 1.6.7 1.5 0 1.6-.5-.1-.5-1.6-.6m40-1.3c-1 0-1.8 2.7-1.5 4.5s1.8 2.2 2.4.6c.5-1.1-.3-5.1-1-5.1m-55-1.9a1 1 0 0 0-1 1c0 1.1 1.3 1 1.7-.2q.1-.7-.7-.8m1.7-.5q-.2 0-.2 1 0 1.1.4 1.6c.7.8.8 0 .3-1.5zm53.3-.1q-.7 0-.7.7 0 .4.7.3l.6-.7q0-.3-.6-.3m-67.4 0c-.9 0-.7 1.8.2 2q.7.3 1.3 0c.6-.2-.8-2-1.5-2m25.5-.6c-1.2 0-2.6 3.3-1.6 3.7q.7.2.7 1.2c0 1.6 1-.3 1.4-2.9.4-1.6.2-2-.5-2m-34-.4q-.7 0-.6.4c.4.7-3.2 2.6-3.7 2q-.4-.2-.4.7-.2 1.2 1.6.4 1.7-.6 2.2-.3t.2-.6.4-.8q.8 0 1.1-.9.1-.9-.7-1m16.6-.1q-.5.1-.6.8 0 1 .7.8c1-.3 1-1.3.1-1.6zm14.2-1.1q-1 .3-.5 1.2 1 .8 1.8-.2.2-.5-.6-.9zm16.7-2.2q-.5 0-.3.6t.7.6q.3 0 .3-.6t-.7-.6m17.7-.5h.7q.8.4-.3.4t-.9-.3zm-55.2-.3q-.4 0-.7.8-.2.5.8.6t.8-.8q-.3-.6-.9-.6m45.3-.2h-.6l-1.8.3q-.5 0 .3.7 1.6 1.2 3 0c1-.5.4-1.1-.9-1m-60.2-1q-1.6 0-2.4.8-1.1 1-2 .2-.8-.6-1.3-.3c-.4.4-4.8 1.5-7 1.7-1.7.2-3 1-2.5 1.8.4.6 11.9.2 13-.5q.6-.2 1.6.7c1 1 1.1 1 2.5-.7a7 7 0 0 0 1.4-2.2c0-1-1.7-1.5-3.3-1.5m35.7-1-.2 1q0 .9.6 1 .5-.1.2-1zm7.3-.3-1.8.1c-2.9.4-3.3.6-3.3 1.9 0 1.6 1 2.4 2 1.7q1-.4 2.6-.6 2.8-.2 3 3.5c0 1.6 1.3 1.7 1.7.1.2-.7 1.2-1.6 2.1-2q1.7-.7 1.9-1.2c0-.2-1.5-1.2-3.3-2-2.2-1.1-3.3-1.5-4.9-1.5m-19.9 0h-.2q-.7.4-.7.7t.7.3.6-.7q0-.4-.4-.4m10-.3c-1.9 0-4 1.3-4 2.4q0 .8 1.8 0c1-.3 2.2-.5 2.7-.4s1-.3 1-.9q.5-1.1-1.5-1m-13.3 0q-.3 0-.4.2-.4.4 0 1.1.6 1 .8 0 .3-1.1-.4-1.3m51.1-2q.4 0 .6 1.8.6 4.5-.6 1c-.4-1-.5-2.2-.2-2.6zm14.5-2.7q.4 0 .5.6.3.9-.3 1t-.3 1l.2.8q-3-1.1-.8-3 .3-.4.6-.4m-42.4-1q-.6.1-.6.7t.6.6.6-.6-.6-.6m-11.3 0c-.6 0-1.3 1.6-1.3 2.6 0 .7.2.7 1.5.2.9-.3.7-2.7-.2-2.7m53.5-3.1q.5.1.2 1-.4.8-.9.9t-.2-1q.4-.7.9-.9m-97.7-9.1q-.3 0-.3.6 0 .9.5 1t.6-.7q0-.5-.6-.9zm88.5-1.4-.3.1q-.5.3-.6.7l.6.2q.6 0 .7-.6 0-.4-.4-.4m-63.3-.9c-1.2 0-2.1 5.8-1.3 8.3.6 1.6.5 1.9-.5 1.9-1.5 0-1.7 1-.3 1.4q.9.5 1 1.4 0 1 1 .7t1.5-.4q.5-.2.6-1.6c0-1 .4-2.5 1-3.5.5-1.1.8-2.4.6-2.9q-.3-.9.2-.5.6.1 1.3-.6.8-1 0-1-.5-.1-.6-1.1 0-1.2-1.7-1.6c-1 0-2.2-.4-2.6-.5zm55-1q-.6.3.6 2 1.7 2 1.8-.4 0-1.2-.4-1-.5.3-1.3-.2-.4-.4-.7-.3m-33.8-.6c.9 0 2.2 1 2.2 1.9q-.1.6-1-.6-1.3-2-.7.5c.4 2 .3 2-.7 1s-1-2.2-.1-2.7zm-24.2-.1-.5.1q-.3.4.8.4t.4-.4zm-10.4-1.1H59c-.9.4-.9.6 0 2 .8 1.2.8 1.4-.4 1.7q-1.4.4-1.3-1 .1-1.1-1-.8-.9.3-1.8.3c-1 0-1 .6-1 1.3s-.6 2.4-1.5 3.8c-1.6 2.4-1.7 2.5-2.8 1.6q-2-1.8-2-.3 0 .6-.8 1.6t-.6 1.6q.3.6-.6 1.7c-.5.5-.8 1.9-.8 3 .3 2.9.4 3.1 1 1.7.3-.8 1.3-1.7 2.1-2 2.4-1 6.2-.3 7.2 1.2q.8 1.1 2 1.2 1 .1 2 1 .8.8 1.1.3.5-.6 1.3 0l1.5.6c.8 0 .4-3-.6-3.8q-.8-.7-.4-1.5l.6-1.6c.7-6.5.8-8.2.2-8.5q-.6-.5-.6-2.2-.2-2.8-2.2-3m59.4-1q.7.1.7.7t-.7 1q-.5.2-.6-.6 0-1 .6-1m30.7-.3.4.1q1 .5.7 1-.4.7.8.3t1.7.2q.3.6-.5.7t-1.2 1q-.8 1.6-3 .2c-.8-.5-.8-.7.2-1.5q1-.9.8-1.6-.2-.4 0-.4m-1.8 0q.7 0 0 .4-1.5 1.2-2 .1-.2-.4 1.3-.5zm-8.4-.2h1.5q1.5 0 1 .7-.6 1 .4 0 1.9-1.9 3 1.1c1 2.3.7 5.3-.4 4.2-.4-.5-.6-1.7-.6-2.6q.3-2-1-1.7-1.1.1-2.5-.8zm-63.9-1.3c-.7 0-1.3 1-.8 1.5q1.2 1 1.4-.5 0-.9-.6-1m57.3-1.9q.6.1.6 1.3t-.2 1.2q-.3 0-.6-1.2t.2-1.3m-5.7-.6q-.5.1-.6 1.3 0 1 .6 1.2.7-.2.7-1.2 0-1.2-.7-1.3m-41.6-1.9-.6.6-.6 1.5q-.1.5.6.1t.7-1.5zm-33.4 0q.5 0 .6 1 .1 1.4-.7.5c-.6-.6-.5-1.5.1-1.5m72.2-.5 1 .2c4.8 1.5 6 2.1 5.8 3q0 1 .5 1 .5.1.5 1.3c0 1.5 2.8 3.5 3.9 2.8q.9-.5.4 1c-.2.6 0 1.6.5 1.9 1 .8 1.6 3.2.8 3.2q-.4 0-.5-.7t-.7-.6-.3.5-.5 1.3q-1 .7-1.1.1c-.1-.3-1.1-.7-2.1-1q-2.7-.8-.6.8c1 .9 1.3 1.9 1.2 4.4 0 1.9-.2 3.3-.6 3.3q-.5 0-.2 1.2a3 3 0 0 1-.4 2.2c-.7.9-.8.8-1.5-.3q-.8-1-1.9-.8-1.5.6 0-.4c.6-.3 1.4-.6 1.6-.4q.5.1.6-1.2l.4-3.1q0-1.5.6-1.6 1.6.1-2-3.6c-1.5-1.5-3-2.7-3.6-2.7q-.7 0-1-.4c-.2-2 0-4.6.3-6.4a4 4 0 0 0-.5-3.6q-1-1.4-.6-1.4m-51-1.2q-.7.2-1.2 3.3c-.3 2.3-.2 2.4.6 1.3.5-.7 1-2.1 1-3.1q0-1.5-.4-1.5m12.2-2q-.5 0-.2.6l.6.6q.3 0 .3-.6t-.7-.7m18.6-2q.3 0 .3.6t-.8 1.3q-1.1 1-.6-.6.5-1.2 1.1-1.3m-4.9-1.2q.8 0 1.2.6.2.6-.3 1.8-1 1.6-.5-.3.3-1.4-.4-1.7t0-.4m-35-.6q-1.1-.2.2 1.1 1.2 1.3.4 1.7t0 1.3q.9 1.2 1.7-.4c.8-1.1.8-1.4-.1-2.6q-1.2-1-2.1-1.1m2.8-.7q-.4.1.6 1a4 4 0 0 1 1.3 2.1q.1 1.3 1.3 2.3c1.4 1 1.6.9 2.5-1.8q.6-2.1 2.2-2c2.6-.2 3.1-.3 3.1-.9 0-.8-7-.7-8 .1q-.8.8-1.6 0-.7-.7-1.4-.8m15.3-.3q-1 0-1.6.7c-1 1.3-.5 2 .6 1q.8-1 1.6 1.1.6 2 2 1.5 1.2-.4 1.1-1-.1-.9.3-1.9t0-1q-.7 0-1.3 1-.7 1.5-.7.1c0-1-1-1.5-2-1.5m10.9-.3q-.7 0-1 .6t.6.7 1-.7q0-.5-.6-.6m-2.6-.3-1 1.4q-.8 1.4-.6 2c.7 1.1 1.6 0 1.6-1.7zm28-2.2q1.1 0 .7 1-.3.8.7.9 1.3-.2.1 1-1.2 1.3.3.6 1.1-.3.7.3t-1.7.6-2.2 1-.4.3c.4-.8.6-2 .8-4.6q.1-1 1-1.1m-10.4-4.5q.6.1 1 .7c.7 1.1.1 1.2-.8.2q-.8-.7-.2-.9m-20.1-2.2-2.4.3q-.3.1.5 1c.7.9 2 1 2.4.1q.6-1.4-.5-1.4m-4.7-1.9q-.6 0-1.3.6t.2 1.7c1.6 1.8 3.4.3 2.2-1.7q-.5-.7-1-.6m3.8-.2q-1 0-1 .6t.6.6 1-.6q.3-.5-.6-.6m-29-.8q.4 0 2 1.2 4.2 3.1 6.5.6c1-1.2 2.6-1 2.4.4q0 .9-.3 0-1-2-2 1.4c-.8 2.2-1 2.3-5.2 3.1-1.2.2-2-1.2-1.5-2.2q.3-.5-.6-.6-1.8 0-.2 1.8.9.8 0 1.5t-.8.3q-.1-.4-1.3.6-1 1-1.2 2.3c0 .6-.3 1.7-.7 2.4-.8 1.5-1.8 1.5-1.8 0q0-1.2.7-1.3.9 0 0-.6t-.4-.7q.6-.2.8-1.7c.1-.9.6-2.5 1-3.5.6-1 1-2.3 1-2.8q0-.7.6-.8t.7-1q0-.3.3-.4m25-6.2q-.7 0-1 .7-.4.5.1.6.7 0 1-.6t-.2-.7m-14.1-5.7c.3 0 .6 1.3.5 2.9q0 2.7-.7 2.8c-1 0-1.7 2.6-.9 3.6q.8.8 0 1.2-.7.3-.7-.7 0-.8-.7-.6c-1.1.8.2-3 1.4-4 1.5-1 1.6-2.1.2-1.5q-1.4.6-.2-1.2.8-1.4.7-2 0-.4.4-.5m27.9-1.3q.4 0 .6 2 .4 1.6-.9 1.8c-1 .1-1 0-.7-1.6q.6-2.1 1-2.2m-.1-1.8q.5 0 .6.3l-.6.7q-.5.2-.6-.3t.6-.7m-24.4-1.7q-.3-.1-1 3.1-.3 1.6.2 1.7.7-.1.7-1 0-1.2.7-2 .9-.7 0-1.4-.3-.4-.6-.4m24.2-1.2.2.1q.5.4.6 1.3 0 1.2-.6 1t-.6-1.4q0-.9.4-1m-28.2-5.8q.4 0 .6.4c.8 1.2 6.4 1.4 8.4.3 2.3-1.4 4-.6 3.3 1.6-.7 2.5-.8 6.4-.2 8.4q.4 1.7-.2 2.4-.8.7 0 .7t.5.6c-.8 1.2.3 3 1.6 2.7 1.7-.5 2.6-2.9 1.8-5q-.4-1.4 0-1.5c1.1 0 .3-3.2-.9-3.5-1.1-.4-1.1-.5.4-1.3.8-.4 2-.8 2.6-.8q1 0 1-.7t1-.4q.8.3 1.2-.6c.5-1.3 2.9-.8 3.2.7.9 3.7 1.3 8.5.9 8.6-.7.3.1 3.6.9 3.8q.5 0 1-.6.5-1 1.8-.2c1 .6 1.2 1.2 1.1 4.6v4l-1.9-.2q-2.4-.2-.8.7 2.8 1.9-2 1.3c-2.3-.2-3.1 0-3.4.7q-.3.9.8.9t1.7.7q.5.6 1.6.4 1.3-.4 2.2.5c1 1 2.7 1.2 2.7.3 0-.4 1.2-.7 2.5-.7 2.8 0 4.3 1.2 6 4.4q2.1 4.2-2.1 3.6c-3.5-.6-7.9-.9-8.7-.6q-.7.3-.4 4.7c.3 3.8 0 4.6-.9 5.3s-1 .8.8 1.3a6 6 0 0 1 2.4 1.1q.5.7 1.2-.2.9-1 2.8-.8c1.9.2 2.1 0 2.1-1.4q0-1.5-.7-1.6-.5 0-.6.6t-1.2.6c-1.1 0-1.1 0-.3-1.8 1.2-2.2 1.1-2.2 2.5-.9q1 1.2 1.8.2 1-.6 2.5-.5c.8.1 2-.1 2.5-.6q1.2-1.1 1 0-.1 1-1.3 1.5-1.3.4-1 1.5c.3 1.3-.5 3.2-1.4 3.2q-.8.1-3.1 1.5-2.6 1.4-2.8 3.6-.5 1.9-1 1.5-.5-.7-2-1.2-1.6-.5-2.7-2-2-2.9-5-.3c-1.2 1.2-1.2 1.5-.4 3.6.4 1.3.8 3.2.8 4.2q-.1 1.7 1 2.8c1 .8 1.3 2 1.4 4.6.2 2.9.4 3.7 1.3 4q1 .1 1.5-.4t1.6-.2 1.2-.2c.2-.5-.7-.8-1.6-1-1.3-.4-1.5-.7-1.5-3.2 0-1.6.3-3 .7-3.2q.4-.2.5.4.1.5.5.3.5-.1.3 1.1-.4 1.5 1 1.4 1.3 0 1.3-.4c0-.8-1.5-4-2-4.4-1-.7-1.3-5.4-.5-6q.8-.5.5 1.2c-.3 1.6-.2 1.7 1 1.3.8-.2 2.5-1.4 3.8-2.8s3-2.6 3.7-2.8c1.5-.4 3.9-3.8 3.3-4.7q-.2-.4.6-.8c.5-.2 1.4-1.4 1.9-2.6q1.4-3.3 2.5-1.7.3.5-.5.9-.9.3-.6 2.6c.2 2 .1 2.3-1.6 2.7q-3.4.6-.6 3.5l1.5 1.4.1-2.3q.2-2.6 1-1.7c.9.9.6 5.7-.5 6.4q-.7.4.1.4c.7 0 .7.6-.3 3.2-.7 2-.7 6.8.1 7.9.6.9.6 1.3-.7 2.6l-1.4 1.6 1.4 1.8c1.3 1.8 1.3 1.8 2.5.5q1-1 1.5-1.2c.7 0 2.6 2.1 2.3 2.7q0 .5 1.7 1.3 1.7.7 1.9 1.8c0 1.1 1.6 2 2.6 1.4q.5-.2.2 1.3c-.4 1.6-.4 1.6.9.8q1.2-.8 1.3-1.6.1-.7 1.3-.8 1.1 0 1.2-.6.2-.4 2 .2 1.7.7 1.8 1.6-.1 1.3.7.1.6-1.2 1 .1.3 1 1.7.8 1.4-.4 2.3-.4a3 3 0 0 0 1.7-1c.7-1 .8-1 1.4-.2q.7.9.7.4t.4 0c.7.8 5.4 3.6 5 2.9q-.4-.6.7-.4 1 .1 1.3.8.2.5 1 .3t1.3.3q.2.6-.6 1-.8.3-1.2-.2c-.5-.7-3.7-.2-4.5.8-.3.4-1.4.7-2.4.6s-2.3.2-2.7.5c-1 .9-1 3.7-.1 3.7q.8 0 0 .9-.7.8-.4 1.2.1.4-1.5 1.2-1.8.8-2 1.5c0 1.1-2 1.7-2.8.9q-.9-.6-1.9-.2t-1.9-.8c-.8-1.2-1-1.2-2.3.2-1.8 1.7-2.2 1.8-2.6.5q-.3-.9.1-.7.7.3 1.3-.9c.7-1.3.6-1.3-3.2-1.1-3 .1-4 .4-4 1.1q0 1-2.4 1c-1.2 0-2.3-.1-2.3-.5q0-.4.6-.5l1.3-.3 1.2-.2q.5 0 .6-.6c0-.3-2-.6-4.7-.7-3.8-.1-4.7 0-4.7.9q-.2.8-1.7 1.3c-1.3.4-2 .1-3-1.2q-1.2-1.6-2.5-1.7a4 4 0 0 1-2.2-1c-.7-.5-2.2-1-3.5-1.2-1.4 0-2.7-.3-2.8-.4h-.9l-5.2.4c-4 .2-4.8.5-6.1 2-1.1 1.3-1.8 1.6-3 1.3-1.8-.5-3-3-1.4-3q.8 0 .7-.8-.4-.6-1.2-.5l-2 .2a1 1 0 0 0-1 1q0 1.2-.6.2t-1-.2-1.7.1c-1.3-.7-5-.2-5 .7q.2.5 1.1 1.2 1.6.7-.6.6-1.7 0-1.4-.7t-.6-1.6c-1-.7-1.1-1-.5-2q1.6-2.6-.4-1.3-1.2.6-1.3 1.5c0 1-2 1.6-4.6 1.6q-1.8 0-1.3-.8.4-1-1.2-.8-1.3 0-1.8-.4c-.2-.3-1.6-.7-3.2-.8-6.1-.6-6.9-.8-7.6-1.5q-.6-.7-.2-.7c1.3.2 2.3 0 2-.5q-.5-.5-1.8-.4t-2.2-.5q-.7-.5-1.5-.2c-.5.4-.7-.9-.3-5.4q.6-9.4 2.8-12 .7-1 .4-1.1c-.9 0-.7-4.2.3-5.3q.6-.9.2-1.3c-1.2-.7 0-2.7 1.7-3.1 2.8-.5 4.9-3.3 4.5-5.6q.1-.5 1.4-.2l2.4.7q1.1.4 1.2 1.3t1 .8c1.6-.4 4.1-6 4.3-9.8.2-3.3.7-4.3 3.4-6.7l3.3-3q4.4-4.2 9-4.3c3 0 4.1-.4 4.1-1.3 0-.3-1.2-.4-2.6-.2-5.8.8-5.8.8-6-2.5a28 28 0 0 1 .4-5.8q.6-2.8-.3-4.2l-1.3-2.6q-.4-1-.8-.8c-.3.2-.3-.8 0-2.2s.1-2.7-.1-2.9q-.5-.3-.3-.9.4-.5-.3-.6-.9.1 0-1c.7-.7.6-1-.3-1.8q-1.1-.9-.7-1.3zm20-8.8q.9 0 .9.8t-1 .6-1.2.4q-.6.9 1 .5 1.7-.3 1.8.1c0 .6 2.7.6 3.5 0q.7-.6 1.6.5.9 1 .1.5-.9-.3-1.6 0a7 7 0 0 1-2.6.7l-3.8.5-2.4.3q-.4.1-.6 1.5-.4 1.2-.4.5-.2-.6-.7-.4-.5.3-1-.6-.3-1-1-1-.5.1-.3.5 0 .5-1.6.7-1.7 0-1.8-.5c0-.8 2.7-1.6 3.9-1.2q.8.3 1.7-.5l2.9-2.5q1.6-1.4 2.7-1.4m.5-98.6a2540 2540 0 0 1 1.7 95.1c-4.4.2-6.8 0-9.8 0-.5-31.7-1-63.4 1-95.1 3.5-.2 5.4 0 7 0m4.1-7.9.6.1q.6.3.1 1.1t-1 .1q-.5-1 .3-1.3m-5.7-3.4h.4q.8.5.5 1-.5 1.1-1-.3-.2-.7.1-.7m-3.9-1c1.6 0 1.6 0 .5 1.3q-1.5 1.4 0 1.3 1 0 .7 1.3c-.2 1.7-1.5 2.3-2 1q-.5-1-1.5-.8t-1-.7q0-.7.6-.8t.2-.5c-.8-.7.9-2 2.5-2m10-13.2q.8 0 1.2.6.8 1.2-1 0-.8-.5-.1-.6m-7.8-.3h.2l1 .4q1.1.9.8 2.1-.6 2.7-2.1 1.5-.8-.4-.3-.5t-.1-.5q-.7-.5-.2-2 .4-1 .7-1m-7.1 0q.7 0 .5.5c-.3 1-2.3 1.4-2.3.5q.1-.5 1.2-1zm12.3-.3q.8 0 1.2.6.3.4-.5.9-1.5.4-1.6-1 0-.5.9-.5" fill="#fff" id="path16"/><path d="M269 270.3q-4.7 11.6-12.4 23.3c-7.6 11.3-8.4 24-11 36.3-2.8 13.9-11.6 19.9-20.5 25 38.4-12 60.4-44 44-84.6" fill="#ffd500" id="path17"/><path d="M269 270.3c-2.5 31.6-15.2 81-43.9 84.6 38.4-12 60.4-44 44-84.6" fill="url(#c)" id="path18"/></g><path d="M269 270.3q-4.7 11.6-12.4 23.3c-7.6 11.3-8.4 24-11 36.3-2.8 13.9-11.6 19.9-20.5 25 38.4-12 60.4-44 44-84.6z" fill="none" stroke="#d4a900" stroke-width="1.4994" id="path19"/><path d="M290.4 232q-4 7.8-7.7 15.7a56 56 0 0 0-4.6 36.8 78 78 0 0 1-1.8 37c18.7-17.8 27.6-39.4 18.1-67.8a88 88 0 0 1-4-21.7" fill="#ffd500" fill-rule="evenodd" id="path20"/><path d="M290.4 232c-7.8 34.7 6.4 58.3-14.1 89.4 18.7-17.7 27.6-39.3 18.1-67.7a88 88 0 0 1-4-21.7" fill="url(#d)" fill-rule="evenodd" id="path21"/><path d="M290.4 232q-4 7.8-7.7 15.7a56 56 0 0 0-4.6 36.8 78 78 0 0 1-1.8 37c18.7-17.8 27.6-39.4 18.1-67.8a88 88 0 0 1-4-21.7z" fill="none" stroke="#d4a900" stroke-width="1.4994" id="path22"/><g fill-rule="evenodd" id="g25"><path d="M176.8 376.3a21 21 0 0 1 14.8-13q9-2.2 18.1-3c22.3-2.6 41-10 57.6-25 17.8-16 31.6-37.7 39.5-58.2l-2-.7c-9 23.3-27.4 48.4-50 63.7-22.2 15.1-49.3 16.5-75.2 19.2q-4.6 8.7-6 17.3 1.5 0 3.2-.4" fill="#ffd500" id="path23"/><path d="M329.5 191.3c-6.6 8-15.4 15.4-20.9 24.3-7 11.5-6 24.2-3.7 38.5 1.6 10-.1 19.9-2 29.8 5.9-9.3 12-18.6 18.5-26.2 11.3-13.2 12.7-28.7 8.1-45.9-2-7.2-1-14.2 0-20.6" fill="#ffd500" id="path24"/><path d="M329.5 191.3c-17 27-9.7 61.7-26.4 93 5.9-9.3 11.9-19 18.3-26.6 11.3-13.2 12.7-28.7 8.1-45.9-2-7.2-1-14.2 0-20.6" fill="url(#e)" id="path25"/></g><path d="M329.5 191.3c-6.6 8-15.4 15.4-20.9 24.3-7 11.5-6 24.2-3.7 38.5a62 62 0 0 1-2.8 28.7 145 145 0 0 1-47.3 58c-22.2 15.1-49.3 15.8-75.2 18.5a54 54 0 0 0-6 17.3q1.4 0 3.2-.4a21 21 0 0 1 14.8-12.9 122 122 0 0 1 18.1-3 100 100 0 0 0 57.3-26c15.9-14.4 29-32.2 37-50.7a80 80 0 0 1 5.8-10.3q5.7-8.5 11.6-15.6c11.3-13.2 12.7-28.7 8.1-45.9-2-7.2-1-14.2 0-20.6z" fill="none" stroke="#d4a900" stroke-width="1.4994" id="path26"/><path d="M355.7 240.4a64 64 0 0 1-23.8 19 60 60 0 0 0-17.8 12.6c-10 10.4-12 24.3-24.5 36.1 10-6 20-9 29.8-11.7 23-6.2 36.2-24.2 36.3-56" fill="#ffd500" fill-rule="evenodd" id="path27"/><path d="M355.7 240.4a76 76 0 0 1-15.5 24c-15.2 17.4-36.9 27.4-50.6 43.7 10-6 20-9 29.8-11.7 23-6.2 36.2-24.2 36.3-56" fill="url(#f)" fill-rule="evenodd" id="path28"/><path d="M355.7 240.4a64 64 0 0 1-23.8 19 60 60 0 0 0-17.8 12.6c-10 10.4-12 24.3-24.5 36.1 10-6 20-9 29.8-11.7 23-6.2 36.2-24.2 36.3-56z" fill="none" stroke="#d4a900" stroke-width="1.4994" id="path29"/><path d="M313.4 366.2a55 55 0 0 0-36.9-20 127 127 0 0 0-54.2 9.9c9.9 1.9 40.7 21.6 74.6 12.9 5-2.2 11-2.3 16.5-2.8" fill="#ffd500" fill-rule="evenodd" id="path30"/><path d="M313.4 366.2c-24.2-9.5-60.3-9.9-91.1-10.1 9.9 1.9 40.7 21.6 74.6 12.9 5-2.2 11-2.3 16.5-2.8" fill="url(#g)" fill-rule="evenodd" id="path31"/><path d="M313.4 366.2a55 55 0 0 0-36.9-20 127 127 0 0 0-54.2 9.9c9.9 1.9 40.7 21.6 74.6 12.9 5-2.2 11-2.3 16.5-2.8z" fill="none" stroke="#d4a900" stroke-width="1.4994" id="path32"/><path d="M333.5 303.7c-22.7 16.6-47.4-2-79 39.5 12-2.8 21.4-1.8 33.2-.9 18.2 1.4 34-7.4 45.8-38.6" fill="#ffd500" fill-rule="evenodd" id="path33"/><path d="M333.5 303.7c-26.5 34.1-51.5 16.7-79 39.5 12-2.8 21.4-1.8 33.2-.9 18.2 1.4 34-7.4 45.8-38.6" fill="url(#h)" fill-rule="evenodd" id="path34"/><g fill="none" stroke="#d4a900" id="g42"><path d="M333.5 303.7c-22.7 16.6-47.4-2-79 39.5 12-2.8 21.4-1.8 33.2-.9 18.2 1.4 34-7.4 45.8-38.6z" stroke-width="1.4994" id="path35"/><g stroke-width=".99962" id="g41"><path d="M269 270.3c-2.5 31.6-15.2 81-43.9 84.6" id="path36"/><path d="M290.4 232c-7.8 34.7 6.4 58.3-14.1 89.4" id="path37"/><path d="M329.5 191.3c-17 27-9.7 61.7-26.4 93" id="path38"/><path d="M355.7 240.4a76 76 0 0 1-15.5 24c-15.2 17.4-36.9 27.4-50.6 43.7" id="path39"/><path d="M313.4 366.2c-24.2-9.5-60.3-9.9-91.1-10.1" id="path40"/><path d="M333.5 303.7c-26.5 34.1-51.5 16.7-79 39.5" id="path41"/></g><path d="M367 375.7V4.5H5v371.2a41 41 0 0 0 41 41h105a39 39 0 0 1 33.5 21 39 39 0 0 1 33.4-21H326a41 41 0 0 0 41-41z" stroke-width="1.4994" id="path42"/></g><path d="M236.4 19.3h68.3c3.4 0 6.2 3 6.2 6.5V30c0 3.5-2.8 6.4-6.2 6.4h-68.3a6.3 6.3 0 0 1-6.2-6.4v-4.3c0-3.6 2.8-6.5 6.2-6.5zm0 50a6.3 6.3 0 0 1-6.2-6.5v-4.3c0-3.5 2.8-6.4 6.2-6.4h68.3c3.4 0 6.2 2.9 6.2 6.4v4.3c0 3.6-2.8 6.5-6.2 6.5h-24.4l-4.4 6.6q-1 1.4-2.8 1.2H268a3 3 0 0 1-2.9-1.2l-4.3-6.6zm31.2 1a3 3 0 1 0 5.9 0 3 3 0 0 0-6 0z" fill="#ffd500" stroke="#d4a900" stroke-width="1.4994" id="path43"/><path d="M236.5 25.8h68v37h-68z" fill="url(#i)" stroke="#a90000" stroke-width="1.4994" id="path44"/><g fill="#ffd500" id="g47"><path d="M270.5 81.9a9.3 9.3 0 1 1 0 18.6 9.3 9.3 0 0 1 0-18.6zm-5.3 9.3a5.4 5.4 0 1 0 10.7 0 5.4 5.4 0 0 0-10.7 0z" stroke="#d4a900" stroke-width="1.4994" id="path45"/><path d="M270.5 70.2q2 .2 2.2 2.2v14q-.2 2.1-2.2 2.3c-1.1 0-2.1-1-2.1-2.2v-14c0-1.3 1-2.3 2.1-2.3z" stroke="#d4a900" stroke-width="1.4994" id="path46"/><path d="m305 205-34.5-15.2-34.4 15.2 3.8-37.5-25-28 36.7-8 19-32.5 18.8 32.6 36.8 8-25 28z" id="path47"/></g><path d="m305 205-34.5-15.2-34.4 15.2 3.8-37.5-25-28 36.7-8 19-32.5 18.8 32.6 36.8 8-25 28z" fill="url(#b)" id="path48"/><g fill="#ffd500" fill-rule="evenodd" id="g52"><path d="m236.1 205 3.8-37.5 30.6-9.9z" id="path49"/><path d="m214.8 139.5 36.8-8 19 26.1z" id="path50"/><path d="m251.6 131.6 19-32.6v58.6z" id="path51"/><path d="m326.2 139.5-36.8-8-18.9 26.1z" id="path52"/></g><g fill="none" stroke="#d4a900" id="g58"><g stroke-width=".5" id="g57"><path d="m326.2 139.5-86.3 28" id="path53"/><path d="m301.1 167.6-86.3-28" id="path54"/><path d="m305 205-53.4-73.4" id="path55"/><path d="M270.5 99v90.8" id="path56"/><path d="M289.4 131.6 236.1 205" id="path57"/></g><path d="m305 205-34.5-15.2-34.4 15.2 3.8-37.5-25-28 36.7-8 19-32.5 18.8 32.6 36.8 8-25 28z" stroke-width="1.9992" id="path58"/></g><path d="m305 205-34.5-15.2v-32.2z" fill="#ffd500" fill-rule="evenodd" id="path59"/></g><!-- app4joy --></svg>