<svg id="svg52" width="900" height="600" viewBox="0 0 900 600" xmlns="http://www.w3.org/2000/svg"><g id="g49" fill="#f8d501"><path id="path1" d="M0 0h900v600H0z" fill="#c60001"/><path id="path49" d="M0 511.2h900v30H0zm0-144.1h900v30H0z"/></g><g id="g56"><g id="g54"><g id="g53"><path id="path2" d="M142.4 73.7q-6.8 0-13.7 4.5c-20.1 13.7 2.7 40 2.7 40q3-.3 6.6 1.7c5.7-6.8 11.4-13.4 26.2-4.3 3.2-3.3 4.9-7.4 13.1-7.4s10 4.1 13.2 7.4c14.8-9 20.5-2.5 26.1 4.3q3.7-2 6.7-1.8s22.8-26.2 2.6-40q-6.8-4.5-13.7-4.4c-16-.3-30.7 15.9-34.9 27-4.1-11.1-18.8-27.3-34.9-27" fill="#c60001"/><path id="path3" d="M142.2 71q-7.5-.1-15 4c-24.7 14.6.6 43.9.6 43.9q1.7-.6 3.6-.8s-22.8-26.2-2.7-40q7-4.5 13.7-4.4c16.1-.3 30.8 15.9 35 27 4-11.1 18.7-27.3 34.8-27q6.9 0 13.7 4.5c20.2 13.7-2.6 40-2.6 40q1.8 0 3.5.7s25.4-29.3.6-43.8q-7.5-4.3-15-4c-16.2 0-31 13.4-35 24.4-4.1-11-19-24.4-35.2-24.5zm-6.3 48 .6.2zm82.8 0-.6.2z" fill="#f8d501" stroke="#000000" stroke-linejoin="round" stroke-width=".75377"/><path id="path4" d="M216.2 145.8a38.9 8.2 0 1 1-77.8 0 38.9 8.2 0 1 1 77.8 0z" fill="#c60001" stroke="#000000" stroke-linejoin="round" stroke-width=".75377"/><path id="path48" d="M200.5 225.7H198l-1.2 3.7s-1.3.7-2.1 1.5h5c0-.6-.6-1.7-.6-1.7zm-7.1-.9-2.8 4.5c-1.7.3-3.7.9-3.4 1.8s1.6-.2 2.2-.3c-.1.8-.2 1 .5 1.1q.5-.1 1.3-.7c.6.3 1 1.3 1.8.7.3-.4-.1-2.2-.1-2.2l3-4.2z" stroke="#000" stroke-width=".35894"/></g><g id="g14" fill="#f2f2f2" stroke="#000000" stroke-linejoin="round"><path id="path5" d="M177.3 108.3c-8.2 0-9.9 4-13.1 7.3-14.8-9-20.5-2.5-26.2 4.3-5.7-3.2-10-1.6-13.8 1 6.3 8 11.7 16.1 14.2 24.9 0-4.6 17.4-8.2 39-8.2 21.4 0 38.8 3.6 38.8 8.2 2.5-8.8 8-17 14.2-25-3.8-2.5-8-4-13.8-.9-5.6-6.8-11.3-13.4-26.1-4.3-3.3-3.3-5-7.4-13.2-7.4z" stroke-width=".71788"/><g id="g7" stroke-width=".35894"><path id="path6" d="M239.6 114.2a4.2 4.2 0 1 1-8.3 0 4.2 4.2 0 1 1 8.3 0zm4.4-8.7a4.2 4.2 0 1 1-8.4 0 4.2 4.2 0 1 1 8.3 0z"/><path id="path7" d="M246.3 96.4a4.2 4.2 0 1 1-8.3 0 4.2 4.2 0 1 1 8.3 0zm-3.5-7a4.2 4.2 0 1 1-2.8-7.8 4.2 4.2 0 1 1 2.8 7.8z"/></g><path id="path8" d="M233.7 80.1a4.2 4.2 0 1 1 5-6.6 4.2 4.2 0 1 1-5 6.6zm-2.7-7.3a4.2 4.2 0 1 1-6.9-4.7 4.2 4.2 0 1 1 7 4.7z" stroke-width=".35894"/><g id="g10" stroke-width=".35894"><path id="path9" d="M221.9 67.3a4.2 4.2 0 1 1-8.4 0 4.2 4.2 0 1 1 8.4 0zm-10.8.1a4.2 4.2 0 1 1-8.3 0 4.2 4.2 0 1 1 8.3 0z"/><path id="path10" d="M199.3 73.9a4.2 4.2 0 1 1-2.8-7.8 4.2 4.2 0 1 1 2.8 7.8zM115 114.2a4.2 4.2 0 1 0 8.4 0 4.2 4.2 0 1 0-8.4 0zm-4.3-8.7a4.2 4.2 0 1 0 8.3 0 4.2 4.2 0 1 0-8.3 0zm-2.4-9.1a4.2 4.2 0 1 0 8.4 0 4.2 4.2 0 1 0-8.4 0zm3.5-7a4.2 4.2 0 1 0 2.8-7.8 4.2 4.2 0 1 0-2.8 7.8z"/></g><path id="path11" d="M121 80.1a4.2 4.2 0 1 0-5-6.6 4.2 4.2 0 1 0 5 6.6zm2.6-7.3a4.2 4.2 0 1 0 6.9-4.7 4.2 4.2 0 1 0-7 4.7z" stroke-width=".35894"/><g id="g13" stroke-width=".35894"><path id="path12" d="M132.8 67.3a4.2 4.2 0 1 0 8.3 0 4.2 4.2 0 1 0-8.3 0zm10.7.1a4.2 4.2 0 1 0 8.3 0 4.2 4.2 0 1 0-8.3 0z"/><path id="path13" d="M155.3 73.9a4.2 4.2 0 1 0 2.8-7.8 4.2 4.2 0 1 0-2.8 7.8z"/></g></g><g id="g18" fill="#f8d501" stroke="#000000" stroke-linejoin="round"><path id="path14" d="M163 73.1c-.8.7-1.5 1-2.7 2.6a64 64 0 0 1 13 33l4-.5 4 .4a64 64 0 0 1 13-33c-1.2-1.4-1.8-1.8-2.7-2.5-4.4 2.2-8.1 5-14.3 5.5-6.1-.4-9.9-3.3-14.3-5.5z" stroke-width=".75377"/><path id="path15" d="M174.7 42v6.4H170v4.4h4.8v4.7h5.2v-4.7h4.8v-4.4H180V42z" stroke-width=".35894"/><path id="path16" d="M188 67.9a10.8 10.8 0 1 1-21.4 0 10.8 10.8 0 1 1 21.5 0z" stroke-width=".35894"/><path id="path17" d="M163 73.1c4.4 9 12 19.7 12 35.3a21 21 0 0 1 4.6 0c0-15.6 7.7-26.3 12-35.3-4.4 2.2-8.1 5-14.3 5.5-6.1-.4-9.9-3.3-14.3-5.5z" stroke-width=".75377"/><path id="path18" d="M177.3 57.1c-1 .1-2.5 0-3.2.7v9a46 46 0 0 1-7.4-1 11 11 0 0 0 .5 5.7 60 60 0 0 0 20.2 0q1-2.7.5-5.6-3.7.7-7.3.9v-9.2q-1.6-.5-3.3-.5z" stroke-width=".35894"/></g><g id="g19" fill="#999999" stroke-width=".35894"><path id="path19" d="M190.3 122s-3 3.2-3.2 5.2 1.4 5.8 1.4 5.8 3.6-3.3 4.6-5c.6-1 1-5 1-5h-1.3c-.2 3.7-2 4.2-3.3 6 0 0-.6-1-.6-1.5 0-2 2.5-5 2.5-5-.3-.8-.7-.6-1-.5m12.9-7.2s-3 3.1-3.2 5.1 1.4 5.8 1.4 5.8 3.6-3.3 4.6-5c.6-1 1-4.9 1-4.9h-1.3c-.2 3.6-2 4.2-3.3 5.9 0 0-.6-.9-.5-1.5 0-1.9 2.4-5 2.4-5-.2-.8-.7-.5-1-.5m8 12.6s-2.8 3-3 4.8c-.3 2 1.2 5.4 1.2 5.4s3.4-3 4.3-4.6c.6-1 1-4.6 1-4.6h-1.2c-.3 3.4-2 3.9-3.1 5.4 0 0-.5-.7-.5-1.3 0-1.8 2.2-4.6 2.2-4.6-.2-.8-.6-.6-1-.5m9.7-4.8s-2.8 2.9-3 4.8 1.3 5.3 1.3 5.3 3.3-3 4.3-4.6c.5-1 1-4.6 1-4.6h-1.3c-.2 3.4-2 3.9-3 5.5 0 0-.6-.8-.6-1.4 0-1.7 2.3-4.6 2.3-4.6-.3-.8-.7-.5-1-.4m-46-9.9s-3 3.2-3.2 5.2 1.4 5.8 1.4 5.8 3.6-3.3 4.6-5c.7-1 1.1-5 1.1-5h-1.4c-.2 3.7-2 4.3-3.3 6 0 0-.5-.9-.5-1.5 0-2 2.4-5 2.4-5-.2-.8-.6-.6-1-.5m-10.8 11s3 3.2 3.3 5.2-1.4 5.8-1.4 5.8-3.6-3.3-4.7-5c-.6-1-1-5-1-5h1.4c.2 3.7 2 4.2 3.3 6 0 0 .5-1 .5-1.5 0-2-2.4-5-2.4-5 .2-.8.6-.6 1-.5m-10.4-6.6s3 3.1 3.2 5.1-1.4 5.8-1.4 5.8-3.6-3.3-4.6-5c-.6-1-1-5-1-5h1.3c.2 3.7 2 4.3 3.3 6 0 0 .5-.9.5-1.5 0-2-2.4-5-2.4-5 .2-.8.7-.6 1-.5m-10.4 9.9s3 3.2 3.3 5.2-1.5 5.8-1.5 5.8-3.6-3.3-4.6-5c-.6-1-1-5-1-5h1.3c.3 3.7 2 4.2 3.3 6 0 0 .6-1 .6-1.5 0-2-2.5-5-2.5-5 .3-.8.7-.6 1-.5m-10.3-5.9s3 3.2 3.3 5.2-1.4 5.8-1.4 5.8-3.6-3.3-4.6-5c-.6-1-1.1-5-1.1-5h1.4c.2 3.7 2 4.2 3.3 6 0 0 .5-1 .5-1.5 0-2-2.4-5-2.4-5 .2-.8.7-.6 1-.5"/></g><g id="g24" fill="#f2f2f2"><g id="g23" stroke="#000000" stroke-linejoin="round" stroke-width=".35894"><path id="path20" d="M178.4 85.4a3.3 3.3 0 1 1-2.2-6.1 3.3 3.3 0 1 1 2.2 6.1z"/><path id="path21" d="M178.2 91.2a2.7 2.7 0 1 1-1.8-5 2.7 2.7 0 1 1 1.8 5z"/><g id="g22"><path id="path22" d="M178 96.4a2 2 0 1 1-1.3-3.6 1.9 1.9 0 1 1 1.2 3.6zm0 4.4a1.9 1.9 0 1 1-1.3-3.5 1.9 1.9 0 1 1 1.2 3.5zm0 5a1.9 1.9 0 1 1-1.3-3.5 1.9 1.9 0 1 1 1.2 3.5z"/></g></g><path id="path23" d="M101.9 145.7v101.6a75.6 75.6 0 0 0 75.4 75.7c41.7 0 75.5-34 75.5-75.8V145.8l-8.4 5.5-8.3-5.5v17.5h-16.9v-17.5l-8.3 5.5-8.4-5.5v17.5h-16.8v-17.5l-8.4 5.5-8.3-5.5v17.5h-17v-17.5l-8.2 5.5-8.4-5.5v17.5h-16.9v-17.5l-8.3 5.5z"/></g></g><g id="g55"><path id="path24" d="M101.9 145.7v101.6a75.6 75.6 0 0 0 75.4 75.7c41.7 0 75.5-34 75.5-75.8V145.8l-8.4 5.5-8.3-5.5v17.5h-16.9v-17.5l-8.3 5.5-8.4-5.5v17.5h-16.8v-17.5l-8.4 5.5-8.3-5.5v17.5h-17v-17.5l-8.2 5.5-8.4-5.5v17.5h-16.9v-17.5l-8.3 5.5z" fill="none" stroke="#000000" stroke-width="1.0768"/><path id="path25" d="M173 226.3c-4 0-5 3-5 3h-3.3v1.3l-38.9-.4c-3-.5-3.4-.9-4.6-1.3-1.3 2.2-2.4 5.6-2.4 8s1.1 6 2.4 8.2c1.2-.4 1.6-.9 4.6-1.3l87-.9c4.6.6 8.4 1.6 10 4.1.8.1 1.2 1.2 2.4 0 2.2-1.9 1.2-4.6 2.8-6.3q1.1-1.1 3-1.6.9 2.4 2.6 2.5c1.7 0 3.1-2.1 3.1-4.6s-1.4-4.6-3-4.6q-1.8.1-2.8 2.4a6 6 0 0 1-2.9-1.6c-1.6-1.7-.6-4.4-2.8-6.3q-.7-.6-1-.5c-.5 0-.9.5-1.3.5-1.7 2.5-5.5 3.6-10 4.2l-32.8-.4v-1h-1.8s-1.4-3.4-5.4-3.4"/><path id="path26" d="M234.4 236a.8 2.3 0 1 1-1.6 0 .8 2.3 0 1 1 1.6 0" fill="#ffffff" opacity=".88095"/><rect id="rect26" x="130.97" y="231.95" width="71.375" height="1.6665" rx="5.9849" ry=".83325" fill="#f2f2f2"/><g id="g29" stroke="#000000" stroke-linejoin="round" stroke-width=".53841"><path id="path27" d="m187 243.2-40.6.4v11.2h20.3l20.6 34.4h25l-2-3.3c-5.1-8.4.6-19.6-13.3-21.7z" fill="#f8d501"/><path id="path28" d="m199 243-12 .2 10 21c13.9 2 8.2 13.3 13.2 21.7l2.2 3.3 9-6.3-2.1-3.3c-5-8.4.6-19.6-13.3-21.7z" fill="#c60001"/><path id="path29" d="m199 243-6 .1 8.5 18c13.9 2 8.2 13.2 13.3 21.7l2 3.2 4.6-3.1-2.1-3.3c-5-8.4.6-19.6-13.3-21.7z" fill="#c60001"/></g></g><g id="g46" fill="#f8d501"><g id="g42" stroke="#000000"><g id="g40" stroke-width=".53841"><path id="path30" d="M157.5 235.6a26.6 26.6 0 1 0 0 53.2 26.6 26.6 0 0 0 0-53.2zm0 3.8a22.8 22.8 0 1 1 0 45.6 22.8 22.8 0 0 1 0-45.6z"/><path id="path31" d="M150.5 240.8c2.6 2.5 5.7 4.6 4.8 7-1 2.6-1.2 3.2-1.2 3.9 0 1.8 1.6 3.4 3.4 3.4s3.4-1.6 3.4-3.4c0-.7-.3-1.3-1.2-3.8-1-2.5 2.2-4.6 4.8-7-1.3 1.1-4 1.9-7 1.9s-5.7-.8-7-2z"/><path id="path32" d="M157.5 239.4q-3.8 0-7.3 1.2c1.2 1.3 4 2.2 7.3 2.2q5.2-.2 7.3-2.2-3.5-1.2-7.3-1.2zm21.3 15.8c-2.4 2.6-4.6 5.7-7 4.8s-3.1-1.2-3.8-1.2c-1.9 0-3.4 1.5-3.4 3.4s1.5 3.4 3.4 3.4c.7 0 1.3-.3 3.8-1.2 2.4-1 4.6 2.2 7 4.8-1.1-1.4-2-4-2-7s.9-5.7 2-7z"/><path id="path33" d="M180.3 262.2q0-3.9-1.2-7.3c-1.3 1.2-2.2 4-2.2 7.3s.9 6 2.2 7.2q1.2-3.4 1.2-7.2zm-29.8 21.3c2.6-2.4 5.7-4.6 4.8-7s-1.2-3.2-1.2-3.8c0-2 1.6-3.4 3.4-3.4s3.4 1.5 3.4 3.4c0 .6-.3 1.3-1.2 3.7-1 2.5 2.2 4.7 4.8 7-1.3-1-4-1.9-7-1.9s-5.7.8-7 2z"/><path id="path34" d="M157.5 285q-3.9 0-7.3-1.2c1.2-1.3 4-2.3 7.3-2.3q5.2.2 7.3 2.3-3.5 1.1-7.3 1.2zm21.3-29.8c-2.4 2.6-4.6 5.7-7 4.8s-3.1-1.2-3.8-1.2c-1.9 0-3.4 1.5-3.4 3.4s1.5 3.4 3.4 3.4c.7 0 1.3-.3 3.8-1.2 2.4-1 4.6 2.2 7 4.8-1.1-1.4-2-4-2-7s.9-5.7 2-7z"/><path id="path35" d="M180.3 262.2q0-3.9-1.2-7.3c-1.3 1.2-2.2 4-2.2 7.3s.9 6 2.2 7.2q1.2-3.4 1.2-7.2zm-44.1 7c2.4-2.6 4.6-5.8 7-4.8s3.1 1.2 3.8 1.2c1.9 0 3.4-1.6 3.4-3.4s-1.5-3.4-3.4-3.4c-.7 0-1.3.2-3.8 1.2-2.4.9-4.6-2.2-7-4.8 1.1 1.3 2 4 2 7s-.9 5.6-2 7z"/><path id="path36" d="M134.7 262.2q0 3.8 1.2 7.2c1.3-1.1 2.2-4 2.2-7.2s-.9-6.1-2.2-7.3q-1.2 3.4-1.2 7.3zm2.8-10.2c3.5-.1 7.3-.7 8.3 1.6 1.1 2.4 1.4 3 1.9 3.5a3.4 3.4 0 0 0 4.8 0 3.4 3.4 0 0 0 0-4.8 18 18 0 0 0-3.5-1.8c-2.4-1-1.8-4.8-1.6-8.4q-.3 2.9-3.6 6.4a11 11 0 0 1-6.3 3.5z"/><path id="path37" d="M141.4 246a23 23 0 0 0-4.3 6c1.7.1 4.4-1.2 6.7-3.5 2.3-2.4 3.7-5 3.6-6.8q-3.3 1.6-6 4.3zm36.1 6c-3.5-.1-7.3-.7-8.4 1.6-1 2.4-1.3 3-1.8 3.5a3.4 3.4 0 0 1-4.8 0 3.4 3.4 0 0 1 0-4.8 18 18 0 0 1 3.5-1.8c2.4-1 1.8-4.8 1.6-8.4q.2 2.9 3.6 6.4c2.1 2.1 4.6 3.4 6.3 3.5z"/><path id="path38" d="M173.6 246q2.7 2.8 4.3 6c-1.8.1-4.4-1.2-6.7-3.5-2.3-2.4-3.7-5-3.6-6.8q3.3 1.6 6 4.3zm-36.1 26.3c3.5.1 7.3.8 8.3-1.6s1.4-3 1.9-3.5a3.4 3.4 0 0 1 4.8 0 3.4 3.4 0 0 1 0 4.8c-.5.5-1.1.7-3.5 1.8s-1.8 4.8-1.6 8.4c-.2-1.8-1.4-4.2-3.6-6.3-2.1-2.2-4.6-3.5-6.3-3.6z"/><path id="path39" d="M141.4 278.3a23 23 0 0 1-4.3-6c1.7 0 4.4 1.2 6.7 3.6 2.3 2.3 3.7 5 3.6 6.7q-3.3-1.6-6-4.3zm36.1-6c-3.5.1-7.3.8-8.4-1.6-1-2.4-1.3-3-1.8-3.5a3.4 3.4 0 0 0-4.8 0 3.4 3.4 0 0 0 0 4.8c.5.5 1.1.7 3.5 1.8s1.8 4.8 1.6 8.4c.1-1.8 1.4-4.2 3.6-6.3 2.1-2.2 4.6-3.5 6.3-3.6z"/><path id="path40" d="M173.6 278.3q2.7-2.7 4.3-6c-1.8 0-4.4 1.2-6.7 3.6-2.3 2.3-3.7 5-3.6 6.7q3.3-1.6 6-4.3z"/></g><path id="path41" d="M165 262.2a7.6 7.6 0 1 1-15 0 7.6 7.6 0 1 1 15 0z" stroke-width=".48387"/><path id="path42" d="M160.1 262.2a2.6 2.6 0 1 1-5.2 0 2.6 2.6 0 1 1 5.2 0z" stroke-width=".53836"/></g><g id="g45" stroke-width=".35894"><path id="path43" d="M202 173.1c-1.8 12.2-12.1 19.4-12.3 23.2 0 3.1 5.7 9.4 6.6 15l4.7 1.4.7-2.4c1-4.2 0-9 3.5-12.9-1.4-1.3-2 .3-2.8 1.1l2.7-9.3c-1-.6-1.8.3-2.6.6 2.9-5.7.2-11.1-.4-16.7z" stroke="#000000" stroke-linejoin="round"/><path id="path44" d="M198.6 212c-.9-5.6-6.6-11.9-6.5-15 .1-3.8 10.4-11 12.3-23.2.6 5.5 3.3 11 .5 16.7.8-.4 1.5-1.2 2.5-.7l-2.6 9.4c.8-.8 1.4-2.4 2.8-1.1-4.2 4.6-2 10.5-4.3 15.3 10-13.3 6.3-49.5 25.6-37-14-6.4-14.6 15-18.5 29 6-6.6 6.8-31.8 18.7-18-7.6-7.3-11.7 12.9-17.2 22.8 6.8-5.6 13.5-24 20.3-11.6-14.8-4.1-15.7 29-34.5 27.1-16.1-1.6-12.7-18.2-14.3-32.5-.2-1.7-5.1-3-4.8-5s2.7-3 5.2-2.4c7.9 1.9-.5 18.4 14.8 26.2"/><path id="path45" d="M179.3 186.7c-2 .5-3.7 1.4-6 1.2-.3 2 1.4 2.3 2.3 2.3l4.8.3c-1-.7-2-1.5-1.8-2.4q0-.8.7-1.4z" stroke="#000000" stroke-linejoin="round"/></g></g><g id="g47" stroke-width=".35894"><path id="path46" d="M181.9 187.4c1.6-1 2.5.3 3.4 1.2-1.1-.2-2.3 0-3.4-1.2m0-10.9q-1.1.1-1.2 1.1 0 1.1 1.2 1.2l.5 3.4.2 3.4h.8l-.2-3.5q-.1-2-.6-3.6a1.2 1.2 0 0 0-.7-2m-3 2a1.2 1.2 0 1 0 .3 2.4q1.4 2.3 1.8 4.8h.7q-.4-3.1-1.9-5.3.3-.3.3-.7 0-1-1.2-1.1m7.5.2q-1 0-1.1 1.2 0 .5.3.8-1.2 2.3-1.6 5l.7.4q.3-2.9 1.6-5h.1a1.2 1.2 0 0 0 0-2.4"/><path id="path47" d="M198.6 212c-.9-5.6-6.6-11.9-6.5-15 .1-3.8 10.4-11 12.3-23.2.6 5.5 3.3 11 .5 16.7.8-.4 1.5-1.2 2.5-.7l-2.6 9.4c.8-.8 1.4-2.4 2.8-1.1-4.2 4.6-2 10.5-4.3 15.3 10-13.3 6.3-49.5 25.6-37-14-6.4-14.6 15-18.5 29 6-6.6 6.8-31.8 18.7-18-7.6-7.3-11.7 12.9-17.2 22.8 6.8-5.6 13.5-24 20.3-11.6-14.8-4.1-15.7 29-34.5 27.1-16.1-1.6-12.7-18.2-14.3-32.5-.2-1.7-5.1-3-4.8-5s2.7-3 5.2-2.4c7.9 1.9-.5 18.4 14.8 26.2z" fill="none" stroke="#000000" stroke-linejoin="round"/></g><g id="g52" fill="#f2f2f2"><path id="path50" d="M225.5 231.2q-1.4 2-1.5 4.7v2a9 9 0 0 0 1.8 4.7q.6.7 1-.1.2-.7-.1-1.6a7 7 0 0 1-1-3v-2q0-1.8 1-3.3.4-.8-.1-1.6-.5-.5-1 .2" color="#000000" opacity=".999" stop-color="#000000" style="font-feature-settings:normal;font-variant-alternates:normal;font-variant-caps:normal;font-variant-east-asian:normal;font-variant-ligatures:normal;font-variant-numeric:normal;font-variant-position:normal;font-variation-settings:normal;inline-size:0;isolation:auto;mix-blend-mode:normal;shape-margin:0;shape-padding:0;text-decoration-color:#000000;text-decoration-line:none;text-decoration-style:solid;text-indent:0;text-orientation:mixed;text-transform:none;white-space:normal"/><rect id="rect50" x="206.88" y="231.69" width="11.632" height="2.9385" rx="3.0533" ry="1.4693" opacity=".999"/><rect id="rect51" x="206.67" y="239.37" width="11.632" height="2.9385" rx="3.0533" ry="1.4693" opacity=".999"/><rect id="rect52" x="204.72" y="235.57" width="16.494" height="2.9385" rx="2.8852" ry="1.4693" opacity=".999"/></g></g><!-- app4joy --></svg>