<svg width="600" height="400" id="svg551" viewBox="0 0 600 400" xmlns="http://www.w3.org/2000/svg"><g id="g554" transform="translate(-119.7 -143)" fill-rule="evenodd"><path d="M119.9 143.2h599.6v399.6H119.9Z" fill="#ffcc00" id="path1" transform="matrix(1.0007 0 0 1.001 -.3 -.3)" display="inline"/><path d="M299.8 143.2h107.9v399.6h-108Z" fill="#ffffff" id="path2" transform="matrix(1.0007 0 0 1.001 -.3 -.3)" display="inline"/><path d="M119.9 288.8h599.6v108.5H119.9Z" fill="#ffffff" id="path3" transform="matrix(1.0007 0 0 1.001 -.3 -.3)" display="inline"/></g><g id="g553" transform="translate(-119.7 -143)"><g transform="matrix(1.0007 0 0 1.001 -.3 -.3)" id="g550"><g id="g552"><path d="M379.5 321.7v48c-1.4 14.6-20.7 2.2-25 12.2-3.8-10.4-25.3 2.8-25-12.2v-48z" fill="#2c2c2b" id="path4" display="inline" fill-rule="evenodd"/><path d="m384.9 379.3.3 1.1c0 .6-.1 1.7-.4 2.2q-.2.6-.7 1v-.1q.9-1 .4-1.5-.3-.2-.8 0c.9-.8 1.3-3.2-.3-1.8-.2-3.2-2.8-2-2.3.1.2.4-.9-.4-1 .1q-.1.8.6 1.8c-.4-.2-1.2-.5-1.4-.2-.3.5.3 1.3.6 1.8-.2-.3-1.3.3-1.6.5 0-1.3-2-.5-3.2 0q-.5-.3-.1-.5l2-.9s2.8-2.1 2.7-2.2v-1l2.4-2c.3-.3-.5-1.7-2.5-3.3-1.3 1-2 2.1-3.6 3.4-1.4 1.6-.8.7-1.3 1.4-.8-1.3-2.3 2-2.3 2.3-1.1-.3-1.7 1.9-2.2 2.4q0-.3-.5-.4l-1-.1q-.7 0-1 .4l-.5-.2c-.7-1-1.4-2.1-2.2-2.2-1.6-2.5-2.9-2-4.2-1.5q-2.4 1.4-4.1 3.1c-1.2-.8-3.1-.8-4.8.3l-2.5-2.6c-1.5-1.7-2.8-1.5-4.2-.3q-4 0-4.1 2.2-.4 1.2.3 2.5l-1.4.3c1.3-2.7-1.4-3-3-.8-.1-1.8-1-2.4-2-3.1.2-2.1-.8-2.5-2.5-3q-.4-2.7-3.2-2.3c-.8-1.4-1.6-1.2-2.7-.6a14 14 0 0 0 1.4-4.3q0-5.4-3.5-8.2l-2.2-1.5c.6-.2 1.9-.1 1.2-1.8q-.1-.3.3-.7c1.4-.2 2-.6 1.5-2.5 1.3 0 2.6-1 1.7-3 1.3-2.2 0-3-2-2 2-1.8 2-4.2 2.2-6.3l-1-3.3c.7-.2 1.2-.8 1-2.7 1.5-.9 2.3-1.9.7-3.9 1.3-4.3-2-3.8-3-1.8q-2.5.1-1.8 2.5-1.2.1-1.2 1 0-.2-.3-.5c0-.2-.2-1 0-1.3.7-1.3.3-.5.7-1.6.1-.3.9-.2 1-.5l2.5-2.6q2-.3 1.6-2.8 1.6-1.4.6-2.6c.7-1 1-1.8-.2-3 .2-1.3.3-2.2-1-2.4l.1-.4c.7-.8 1.6-1.5.8-3 1.1-.8 1.8-1 1.4-2.3l3-1.8c-.5 1-.7 3.2-.4 4.4q.8 1.5 2.1 1.8c5.2 1 9.7 1.3 14.9 1.6q.1.2.5.3l.3-.5q.3 1.2 1.8.8.8.9 2.2.6l1 .7 1-.7q1.1.2 2-.7c1.1.3 1.9.4 2-.8q0 .3.3.4 0 .3.4.5l.2-.4c3.8 0 8.6-.2 12.5-1.1l3.6-1.5c1-.8 1.7-1.7.8-4 .3-1 1-2 1.1-2.7l2.8 1.9q.1.6 1 1.1-2.3.3.4 2.1-.5.1-.4.7t.9 1.3c-2.7.2-3.5 2.1-3.6 4.3.6.7 1.5 3.5 2 4.3 0 .5 0 1.2.9 1.5-1.4.6-.2 1.2 1 2-.7 0-.4.6-.5.7.4 1 .6 1.7 2 1.7q.1.8.5 1.2-.7-1-1.2-.1-.4-.8-1-1l-.8-2.4c-1.8 2.4-2 2.8-2.4 4.7q1 2.4 2.5 4.3l1.6 1.2-.7.8c-1.9 2.7-2 4.4-1.4 6.3l1.2 1.7-2.2-1.7a12 12 0 0 0-.6 5.7l1.6 1q.2 1.2 1.5 1.7c0 .8-.3 1.4 1.7 1.4-.9.4-1.5 1.8.8 1.7-1.1 1-.1 1.8.3 1.7q-3.4 2.8-5 6.8c-1 2.2-.7 3.9-.4 5.6q1 3.2 2.6 4.3-.1.9.4 1.6.5.3 1-.2zm10-21.5-.3 2-1.8-.3c.8-.8 1.5-1 2.2-1.7m0 2.2.5-2.7.1-.2a4 4 0 0 0-.3-2.4 3 3 0 0 0 2.4-1c.6-.3 1.5-.3 1.7-.4q1.5-4.4-.7-7.1l-4 3.1c.8-.8.9-1.1 1.2-2.3l3-3c1.2-5.3-.6-6.4-3.6-6.1l-2.7 4.7c-.8 2.8-.5 1.2-.7-.6l-1.8 1c1.7-1.9 4.2-4.6 5.8-6.8 2-3.5.6-5.6.2-6.5l2.8-.8c2.5-4-1.4-5.5-2.8-5l-.2.3v-.8q.6-.3 1-1c.9-.6 2.3-.9 2.5-1.9.6-2.3.1-4-3.5-4.6l-1.6 2.8-.3-.8-2.8-5c.7-.3 2-1 1.1-1.4l4-1.8c.2-.7 3.8-6.3-3-7.8-1.3 1.7-2 3.5-3.2 5.3l-.8 1.5v-1q1-.7.8-2 .4-.2.7-.8l.2-1q.7-.3.7-1 2-2.2 3.6-4.3c-.5-5-3.2-4.6-6.2-3.4a30 30 0 0 0-1.8 5.8q-1 .6-.5 2-1.2.3-.6 2-1-.4-1 .5v.7l.2 1c-.1 0-7.1-4.7-11.5-4.6-2.1.2-2.6 1.3-2.8 2.6.2 2.4-.5 3.7-1 4.9-.7 2 .3 2.2 2 3-1.3.3-3.5.4-5 .5q-.1-1-1.3-1.6v-1.3H364v1.3c-1.8.8-1.8 2.4-1.2 3.5q-1.5.3-2.6-.4c.4-.1 1.4.5.8-.7 1.4.3 1.2-.2 1.3-.6-.7-.3-.4-.6-.4-1q0-.7-.3-1.2-.5-.4-1.2-.5v-.2q-1 0-1.6-.3v-1.8q.5 0 .6-.3l.6.2q0 1 .3 1.7.8 1 1.5-.3c1 1.5 1.8.6 1.9 0 1.3.6 1.5.3 1.8-.7.9.2 1.6.4 1.2-1.3 1 .3 1.8.6 1.3-1 .6-.3 1.8 0 .8-1.6 1.1-.5.9-1.1.2-1.6 1.6-.9 1-1.3 0-1.6 2.2-2.1.4-1.8 0-1.8 1-1.9 1-1.9-.6-1.7 1.3-1.6.9-3.4 0-2.8q.3-1.7-.9-2.7l-2.6 4h-.4q-.3 1-1.1 1.6-1.4.9-2.8 2.5-.8 1-.2 1.7.7 1 0 1.4-.7.2-1.2-.2.7-.7.5-1.5l-.2-.4-1 .5q.8-.5.8-1.3-.9.2-1.7-.4-.3-1 1-2c.9.1 1.7-1 2 .8l.6-.4v-.5q1 .6 2-.2v-1.2q-.3.3-.9.5.4-.4.4-.9-.1-1-1.3-1.2c1.5-.4 1.3-1.3 1.3-2.6l.8.4c.2.6-.3.7-.4 1.5q.5.9 0 2 1.4 0 1.6-1.2c.3-.2.3.2.5.3q.4-.1.6-.8-.1-.7-.7-1l.2-1c-.8-.8-1.2-1.2-2.2-1.7q-.8 0-1.5.3c-.2.2-.6.1 0 3-.1.2-.7.2-.7.1.2-.6.6-1.2.1-2l-1-.2v-.4h.3v-.6h-.3v-.3h-.8v.3h-.3v.6h.3v.4h-.3c-.7 0-1 .6-1 1q0 .6.4 1.3-1.5-.4-2.1-1.3.1-1.3.8-2.2c0-.7-.1-1.4-2-1.5v-.5h.3v-1h-.4v-.2h-.8v.3h-.4v1h.4v.4c-1.1 0-2.3.5-2.2 1.3.3 1.1.6 1.3.8 2.4q-.7.8-1.7 1.3.5-.9.5-1.4c-.2-.9-1-.9-1.4-.9v-.4h.3v-.6h-.3v-.3h-.8v.3h-.3v1c-1.2 0-1.3 1-.7 2.1 0-.2-.6-.2-.7-.5 0-.6.7-1.6.5-2.2l-1.2-1q-.6-.1-1.2.4c-.7 1-1.2.6-2 1.3q-.6.6.5 1.7c-.4 0-1 0-.8.8l.4.7h.3c0-.7.2-.5.4-.5l-.1.5q.5.8 1.4.9.2-.2 0-.5c-.4-.2 0-.8.3-1.4.2-.7-.5-1.4-.4-1.8l.6-.3c0 1.2-.5 2.4 1.4 2.6l-.8.4c-.9.8-.3 1.5 0 1.7l-1-.1v.2c0 1 1.2 1.3 2 1-.2.3.1.8.6.6 1-1.3 1.3-.3 2-.5.3.4 1 .7.9 1.9q-.2.5-1.3.6c-.3.4.2.7.5 1l-1.2-.5q-.6 1 .2 2.1c-.4.2-1.3.2-1.3-.6.4-.8 1.1-1 .2-2.5l-2-2-.4-.4c-.2-.2 0 .1-.3 0q-.7-.6-1-1.7l-.5.2-2.6-3.9c-1.5.4-1.3 1.7-.7 2.9-1.6-1.6-1.5 1.6-.7 2-2.4-.4-.9 1.3-.4 1.9-1.6 0-1.3.8-.2 1.8-1.8.5-.1 1.2.1 1.8-1.3.8-.1 1.3.2 1.8q.2.7-1 1.3c0 .6 0 1.5 1 1.4.1.4.1.6 1 .8l1.3 4.2.6.4c-1.7 0-2.5-.2-4.2-.6q1.2-1.1.8-2.9-.9-1.7-1.5-3.5v-1.5c0-2-.4-1.8-2-1.8a19 19 0 0 0-8.7 3.5q-1.3 0-1.7 1.8c-.1 0-.6.1-.4 0 .6-1.1-.7-2-.8-2.4 1-1 .9-2.8-.3-3.3 0-1.3.7-2.3-1.7-3.7q0-2.7-2.3-2.3c-1.3-2.3-2.4-2.2-3.7-1.5-2.2-.8-2.8.7-1.7 2.5q-1.2 2 .8 3.2-.2 1.3 1.3 2.2v.2q-1-.7-1.9 0c-1.7-1.8-3.7-.1-2 2.3-.2.6-1.4 1.2.9 3q-1.2 2 2 2.9c-.1 1.2.1 2.4 2 2.6q0 .8 1 1-1 1.3-1.6 2.7-.7-.6-1.7-.8-.8-1.9-2.7-1.3c-2.6-.9-3 .6-2 2-.6 1.1-1 2 .7 2.4l.2.5q-.4 2 1.6 2.2c-.1.5-.4 1 .3 1.6l-.5.3c-3-.6-3.6 1.9-1.4 3-.3 1.8 0 2.4 1.8 2l.4.1c-1.3 2.4-.8 5-.3 7.5-2.3-.7-2.5.4-2 2.6q-1.1 1.5.6 3.1c-.6 1.2-.8 2.4.5 2.8 1.2.4.4.9.7 1-1-.8-2-.5-2 0-2.8-1-3.1 1.8-1.8 2.8-.5 1-.5 2 1 2.2q0 2.2 2.4 2l.3.4a8 8 0 0 0-.7 4.5c0 .1.5 0 .5.3v1.3q-2 1.8 0 3.5-.2 1 .1 1.6c-.7-.2-1.6.6-1.9 1.3q-1.5-.5-2.2 1.6-2.7 1.6.2 2.8 0 1 1.2 1.4-.7.6-.9 1.4c-3.8 1-2 3.3-.2 3.2q.8 3.1 3 .6 1.6 1 3-.7c1-.5 1 .9 2.5.3v.6c-.1.3-.8.6-1 .3-2.1-1-3 .8-3 1.9q-3 .6-2.3 2.3c-1.7 1.3-1.2 2.1.3 3-.6 2.6 1.7 3 3 .8 1 .1 2 .2 2.7-2.6q.8.2 1.3 0a5 5 0 0 0 .9 2.5c-.6.4-.5 1-.5 1.5-2.7 1.2-2 2-.9 3-2.4 2.3.7 5.7 3 2.2 1.2.4 2.2.4 3-1.3 1.3.8 4.1 1.2 4.4 1.2q.4.1.5.6c-1 1.5.1 4.5 3 2 1.2.8 2.9.4 2.8-1.1 3.2-.3 2.8-1 2.8-1.3a18 18 0 0 0 8-3.3q.5.1.8.4c-3 1.4-6 2.7-8.6 5.3-.2 1 .5 1 1.4 1q1.4 1.1 2.3 0 1 .7 2.3.2c1.3-1.4 9.2-7.2 8.8-7 1 .1 3 .2 4.4 0 2.6 2 4.5 3.9 7.4 6.4 1.8.9 4.4.5 4-.7-1.9-1.6-3.8-2.5-6-4q1.3-.6 2.2-1.4 3 2 7.4 2.7l1 3.2c2.6.7 3.9.4 6.3 0l-2.3-3c2.5.1 5-.3 7.8-2.3a19 19 0 0 0 2.2 3.3c1.3 0 4.6-3 4.4-4a20 20 0 0 0-3.7-3.2c.8-1 1.4-2.2.7-5q.2 0 .3-.2 1.2 2 2 0c.4 1 1.3 2.3 2.4 1.4q1.2 1.3 3 2.2c3.7-1 3.4-5 3.4-5q-2-1-4.3-1.2-.8-.9-1.8-.6-.1-.4-.5-.7h.4q1 0 1.6-.3c1 .3 2.6.8 3.7.8.7-.9.4-5-.7-6q-1.3 0-2.5.2-1 0-1.6.6 0-.4-.6-.3.3-.8-.2-1.4 1.6.4 1.5-.4c.9.2 3.2.3 4 .1 1.8-1 1.6-4.6 0-5.6a8 8 0 0 0-3.8 1.3q0-.7-1.2-.3v-.2c.5-.2 1.6-.5 2.2-1 .7-3.4 0-4.8-1-5.3m-10.3-50.2 1.8 1.8q0 1-.3 1.7l.4-.4.3-.9.2.2v.3c-.7 1-.6 1.5-1.2 1 .2-1.2.7-2-.8-1.7.1-.5.6-1.3-.5-1.7zm2.5 2-.2-.1.4-1.1q.5 0 .9-.6-.2.6 0 1c-.7-.7-1 0-1.1.8m-.6-.6-1.9-1.8-.2-.2.6-1.5h.2c-.8 1.4 0 2.4 1.3 3.2zm1.1 7.9.1.2 1.2-1.5-.7-1q-.8 0-1.3-.4.3.5-.1.7c.8-.4 1.9-.7 1.2 1.3zm0 .5-.1-.3q-.5 1-2 1.1h-.8q.5 2 .2 4h.4q.2-2.1 1-1.9c-.3-.7-.4-2.2 1-2.6zm8 4v.8q-.7.6-.9 1v-.7q.6-.4.5-1zm-6.5-6-.5-1h.1c.4.1 1.5-.6 1.3-.2zm1.2 10.9-.3-1.4.2-.2q.6.3 1.6.1l.6-.2.1.1-.7 1q-.7-.6-1.5.6m4.1-3.6v1l-1.4.7h-.1q.6-.4.9-1.2zm-44.6-8v-.5l1.4-.3.2-.4-.3-.6q1-.2 1-.9-1-.1-.8-.8.7-.6 1.5.6c-.4.6-1.2 1.2-1 1.8-.2.2-1.8 1.3-2 1.1m7-2.8q1.1 0 .7-.8-.5-.2-1 .1-.5.6-.3 1l.9.9v.5l2 1q.4-.2 0-.5-.7 0-1.3-.3v-.9q-1.1-.4-1-1m-14.2-4.5 1.6 3.3-.1.4.3.5 2.4-.1c.5-.3.3-1.2.5-1.9l1-.6v-.3q.9 0 1.7-.3v-1.8l-.4-.3-.6.5c-.2 2.5-1.3 1.8-1.8 1.2-.2.7-1.8 1.3-1.9 0-1.4 1-2 .4-1.7-.6q-.5.2-1 0m10.5-14q1.5-1 2.9 0l-.5.1.7.7-.4.1.7.6-1.8.5q0 .6.7.7l-.9 1.9-.8-2q.4 0 .7-.6l-1.5-.7.6-.4-.4-.3.4-.5zm36.4 78v.4l.4.1c.6-.5 1-1 2-.7l.6-.5a3 3 0 0 1-1.5-.6c-.2.8-1.5 1.2-1.5 1.3m1.4-60.3.5 1-1 1.3-.1-.8q.7-.7.6-1.5m1.8 3.3-.6.8.3 1.6h.5c.1.1.5-.3.7-.4zm-5.3 20.3c-.3.5-.4.3-.8.8l-.2-.9zm-1.3 10 1 1.9v.3c-.5-.4-1-1.3-1.4-1.6zm5.7 10.6-1.7 1 .5-1.2q.4.3 1.2.2m1.9-3.8-.5.7c.3.1 1 .2 1 .6 1-.3-.2-1-.5-1.3m-6 14q-.2.5-.1 1.3-1.1-.6-1 1.4-.5.1-.8.6l-.2-1.8c-.9 0-1.2.5-1.9 1q.8-1.2 4-2.5m-4.3 3 .6 2.4.1.7h-.5c-.2-.5-.8-1.6-.8-2.4q0-.5.6-.7M348 385.6a8 8 0 0 0 2.4 2.8q.9.6.9 0-.8-.7-1.5-1.8-1.1-.4-1.8-1m-21.6-9.4q-.4.9-1 1.5l1.6 1.8q0-.7.3-1.6c-.4-.3-.8-1.2-1-1.7m-1.4 4q-.5-.2-1 .5.4 2 1.5 2.8.4-.8 1.3-1.3zm5 5.2q-.9.3-1 .9c1.1.6 3 .7 4 .4-.8-.3-2-1.3-3-1.3m-11.9-13v.3q.6.3 1 1l.3-.4zm-6.8.4q0-.3.7-.5l1.4.9zm3.6-.3a2 2 0 0 1 1.6-.2q-.6.3-.7.6-.4-.3-1-.4m4.3-13v-1.8c-.6-.3-.6.6-.9 1zm.5 7.4c0 .4.6.7 0 1.8l1.6 1c.5.2.7 1.4.6 1.5l.6-1.4.3-1.2zm2-20.6c-.7.3-1.3 1.4-1.4 2.3q0 .3.3.2c.7-.1 1.3-1.2 1.5-2.2q-.1-.3-.4-.3m-1.1-1.3-1.2 2.3q.2.9.5.8.5-1.3 1.5-2.2zm-1.8-2-.3 1.2.3.4q.8.3.8 1.5c0-.3.5-1.1.6-1.4zm1.5-7.7c.3-1.2.6-1.4-.6-2.2-.7.3-1.6-.5-1.8-1 0 0-.4-.2-.3 0zm2.5-15.7c0-.5.2-1.7.4-2l-.5-.6-1 1.6c.3 0 1 .4 1.1 1" fill="#2c2c2b" id="path5" fill-rule="evenodd"/><path d="M333.7 316.3c2.2 1 4.4 1 6.7 1.3l2.1.2 1.7.3q.5.9 1.5 1c.1 0 .5-.6.5-1l2.3.2c-.4.8 0 1.1 0 1.5-5.2-.4-17-.8-15.6-2.8z" fill="#e21c2a" id="path6" fill-rule="evenodd"/><path d="M345.8 317.4q.3.2.2.4h2.5c-.4-.5 0-1.2.2-1.5-1.3.3-1.6.5-2.9 1" fill="#008ed1" id="path7" fill-rule="evenodd"/><path d="m336 314.8 1.2.4c2.2.5 3.7.5 5.7.6-.2 1.2.9 1.7 1 1.9 0 0-10.8-1.1-9.7-1.8z" fill="#008ed1" id="path8" fill-rule="evenodd"/><path d="M367.1 314c2.6 0 4-.1 6.1-.8l1.8.5c-1.3.5-4.4 1.4-8 1.5z" fill="#ffffff" id="path9" fill-rule="evenodd"/><path d="M360.7 318.2c6.9.1 13.6-1.3 15.6-2.8.1-.1.9-.6.7 0 .2.6.3.6-.4 1.5-3.9 2.4-8.8 3-16 3z" fill="#e21c2a" id="path10" fill-rule="evenodd"/><path d="m360.4 316.5 2.5 1c.6 0 1.9 0 2.3-.4q1.9-1.5 1.7-1.6c0-.1 4.5.1 8.4-1.6l1.6.4c.4 1.6-8.5 3.4-16.3 3.6z" fill="#008ed1" id="path11" fill-rule="evenodd"/><g fill="#a75e22" fill-rule="evenodd" id="g17"><path d="m374.7 379.4 4.9-4.8.3.3-3.1 3h.2l3.2-2.8.2.3-2.9 2.7.8-.3 2.6-2 .2.3-2.2 1.7.2.4 2.3-1.7.2.3-3 2.5.1.2 3.2-2.4v.5l-3.5 2.9.1.3.8-.6.2.5-2.7 2q-1 .7-2.2 1-.1.6.4 1c1.8-1 3.4-1.3 3 0q1.4-.9 2.1-.7c0-.7-1.9-2.7.9-1.6-1.4-2.2-.4-2 .4-1.8-.4-1.7 1.2-3.4 1.7-.2 1.6-1 1.4-.1.4 1.6l.2.2q1.3-.4.2 1.2v.4c-.2.4-1 .5-.3 1 .8.2 2.2 0 2.1.8.9.3 2.4 0 1.9 1.4l1.5 1.1 2.3 2.1-.2.6-2.4-2.2v.6l2 2-.4.3-1.7-1.7-.5.2 1.8 2-.5.3-1.9-2.2-1-.3 2.5 3-.5.3-2.4-3.3-.4.2 2.3 3.5-.5.2-2.1-3.3q-1.2-.7-1.6-1.8c-.7.3-2-.5-2.3-1.3-.6 1-1.7.7-2.9.2-.9 1-1.8.2-2.6.2-.4 1-1 .8-2.7.2.5.8 1.5 1.8 1.2 2.4 1 .4 2.1 1.3 1.3 1.8l.9.8 2.1 3-.3.1-2-2.6h-.3l1.8 2.7-.5.2-1.5-2.6-.2.3 1.2 2.3h-.6l-.9-1.9h-.5l.8 2-.6-.1-.6-2-.4-.3.5 2.2-.4-.1-.6-2.3-.4-.3.6 2.5h-.4l-1-3q-.6-.6-.4-1.3c-1.3 0-1.2-1-1.6-1.8-.7.4-1.1-1-1.5-1.5-1 0-1.3-1.2-1.9-2l.4-2.4c.7-.3 1.4-1 2.6.1.8-.8 1.1-2.7 2.3-2.4.3-.7 1.3-3.3 2.2-2.3" id="path12"/><path d="M383.7 374h.7l-.2-1-.2-1-.4-1.2.3-.4.5 2.2.2-.2-.5-2.3.2-.2.5 2.3.3-.2-.5-2.2.3-.2.4 2.1.2-.1-.3-2.2h.2l.3 2q.5-.5 1-.7c.1-1.2 0-1.8 1-1.5q-.2-2.4 1.3-2.3c.2-1 .3-2.2 1.5-1.8 0-.7.3-2.1.9-2.2l.4-2.3.4-.2-.4 2.1.2.4.6-2.7.4-.2-.4 1.6q.3-.6.8-.6l.3-1h.5l-.5 1.2q.3.3.2.7l1-1.6.3.2-1 2-.6.7.7-.1 1.4-2 .2.5-1.2 1.7q.2 0 0 .5l1.4-.8v.5l-1.6.9-.2.4 1.8-.9-.2.6-2.4 1.2v.2l2.4-1.1v.4l-2.3 1q0 .4-.4.7c.9-.2 1.6-.5 1.7.2l1.5-.8q1-.5 2.5-.6l.1.3-2.7.7.1.3 2.9-.8.2.3-3 .8v.2l3-.7.2.3-3.4.7-.1.3 3.5-.7v.3l-1.8.4.4.2 1.6-.1v.4h-1.5l-.4.5h1.8v.3h-4.1l.8.5 3 .1-.2.4-2.5-.2v.3l2.3.2-.4.2-2-.1q-.9 0-2.1-.3c.1.9-.9.8-1.8.7.3.2.8 1.3.4 1.3-.2.2-.9.3-2.2-.5-.4.5-.5 1-2 1.5q.4.2 0 1 .7-.3 1 .1.7-1.2 1.9-1 1.4-1.2 2-.2.8-.6 1.4-.6l2.9-.3.3.4-2.9.3v.4l3-.2.2.4-3.4.3-.1.3q.9-.4 2 0h1.7l.1.6-1.6-.1-.6.4 2.2.5v.4l-3-.7-.2.2.7.7 2.5.5-.1.5-2.5-.6-.5.3 3 .7-.2.4-3.8-1c-.2.3-1.2.5-1.8.3 0 .3-.7.3-.8.4q1.2 0 1 1c.4-.2 1.4-.4 2 .4l1.3.2 3 1-.1.2-2.8-.8v.2l.6.5 2.2.7v.4l-2.1-.7q0 .2-.3.5l2.3 1-.2.5-2.4-1.3q-.7.2-1.7-.1l3.5 2-.2.4-2.9-1.7.1.6 2.2 1.5-.3.4-2.1-1.5-.4.4 1.9 1.2-.5.2-2-1.3q-.6-.5-1-1.2-1.1 1.4-2.6-1.5c-.4 1-.7 1.9-1.8.3-.5.2-1 .5-2.1-.6-1.6 0-1.8-1.5-1.8-2.5q-1.4 1-1.4-.5l.4-1.4c-.7-.3-1-1.9-.5-2.4" id="path13"/><path d="m388.6 344.2.6.8v-1.4l.5-.3v2.2l.3.7.2-3h.5l-.2 3.3.5-.3.2-3.5.5-.3v2.6l.7-.9q0-.8.5-1.7l2.5-4.3h.5l-2.2 4h.4l2.4-4 .4.2-1.7 2.8h.4l2-2.7.4.2-1.8 2.7.1.6 2.2-2.8.1.8-2.2 2.6v.7l2.4-2.7.1.8-2.6 2.5v.6l2.5-2.5v.8l-2.6 2.3-.2.7 2.7-2.4v.6l-2.9 2.7-.3.4q-.4 1.5-2.1 3.2l1.7-.9 3.5-2.7.3.5-3 2.2h.4l2.8-1.8.2.4-2.7 1.7.4.2 2.3-1.4.1.6-2 1.1v.4l2.1-1v.4l-2 1v.3l2-.9v.6l-2 .8v.2l2-.5-.2.5-1.7.6v.4l1.6-.4v.5l-2 .4q0 1-2.1 1l-1.5-1-.8 1c2.6 1-.9 3.9-2.3 2.5l-.8 1.4q-1 1.2-2.6 2.3c-.3 0-2-.1-.6-1.7-.9 0-2.2-.3-1-1.6-2-.3-1.6-1.1-1.6-1.6q-1.2-.3-1.6-1.5l-1.6-1.2-.2-.8 2 1.7v-.4l-2-2v-.5l2.3 2.2h.5q-.5-.3-.6-1l-2-1.7v-.5l2.1 1.7v-.5l-2-1.7v-.5l2.3 1.9.2-.3-2.3-2 .2-.6 2.7 2.6c.5.7 1.5 1.1 1.4 2q1-1 2 1.9c.9-1.2 1.2.3 2.1.9-.1-.7-.3-1.6.4-2q-.9-1 0-2.3a4 4 0 0 1-2.4-1.7l.2-.7c-.9-.7-1.8-2.3-.3-2.2 0-.6 0-2 1.1-1.9z" id="path14"/><path d="m391.5 314.8-2.8 3.8q-.9.6-1.2 1.6-1.4 0-1 2.5-.9.3-.9 2h-1.1c.6-1.7 0-3-.2-4.5l-.5-.3.4 2-.4-.4-.3-1.7-.7-.9.4 2.5-.4-.5-.4-2.4-.4.1.3 2.2-.2.3-.6-2.4-.4.4.6 2.4v.3l-.9-2.4-.3.5 1 2.7v.4l-1.2-2.6-.4.6 1.4 3.1v.6l-1.3-2.8v.9l1.6 3.4c.3.6.4 1.5 1.3 1.8-.4.8-1.4.9.8 2-1.3 1.3.8 2.4 1.3 2.3l.8 1.9c-.8-.2-1.2-1.1-1.6-.1q-.5-.9-1.3-1.4l-.7-2-.2.4.5 1.7-.2.3-.8-1.4-.2.4.9 1.8v.7l-1.1-2-.2.4 1.5 2.5-.3.3-1.4-2.4-.1.6 1.5 2.6-.2.2-1.4-2.2-.2.7 2.3 3.7 2 1.2 1.8-2.2-.4-1.6c.6 0 1.4.3 2 0 2-1.7 3.5-3 5-5.4q2.6-.7 2.4-1.4l3.3-.9.2-.6-2.3.7.2-.5 2.3-.8.3-.7-2.5.8v-.2l2.3-1v-.7l-2.3 1.3.2-.4 1.9-1.3-.5-.5-1.6 1.3-.3-.4 1.5-1.1-.7-.3-1.3 1.3-.3-.2 1.3-1.2h-.9l-1.5 1.8q-1.8.6-2.7 2.2c-1.2-.4-1.2.3-2 .7l-.3-1.8.4-.5c1.3.5 3 .2 3.6-1.5a2 2 0 0 0 1.2-1.7c.5-.2 1.4-.6 1.4-1.2.7-.3 1.9-.7 2.5-1.4l.2-.6-1.8 1.2-.1-.6 2-1.4v-1l-2 2v-.4l1.8-1.9-.2-.6-1.4 1.7-.2-.2 1.2-1.7-.5-.4-1.2 1.8h-.5l1.3-2-.4-.2-1.4 2.1-.5.2 1.4-2.4-.5-.1-1.5 2.6c-.8.1-1.7.1-1.9 1.8-.4 0-1.2.3-1.5 2l-1.8 1q.9-1.6.5-2.4l2-2.7v-.7l-1.7 1.9v-.6l2-2.5-.2-.6-2.3 2.9-.2-.4 2.4-3.2z" id="path15"/><path d="M382.2 309.9c-.5 0-.7 1.1-.5 2.2-.3 1-.3.7.8 2-.7.4-1.8.4.6 2-.9.4-1 .7.5 1.9-1.6.5.2 2 1.7 2.2l1.7-.7c.8-1.3 1.6-3-.5-2l.3-1.2 1.4.2c2.3-.5 2-1.3 1.5-1.8 1.1-.4.9-1.3.8-1.8q1.7-.7 1.4-1.6c.8-.3 1.6-.7 1.3-.8l2.4-.9.4-.7-2.6 1 .5-.4 2.4-1.2.2-1-2.5 1.7.1-.6 2.7-2 .1-.7-2.8 2.3-.2-.3 2.9-2.7v-.7l-3.2 3v-.6l2.6-3-.3-.4-2.6 2.9-.2-.6 2.1-2.7-.6-.2-2 2.6-.5.1 1.9-3-.4-.3-2.2 3.7c-.8.7-1.3 2.1-1.9 3.2q-1.2.6-1.3 2.3c-1-.5-.8.2-1 1.7-.5 0-.9 1-1 1.6q.1-.4-.6-1c-.3-.4.8-1.9-1-1.5.5-.7.4-1.8-.4-1.9q0-.7-.2-1.2l.6-1.7-.5-.2-.4 1.3-.3-.1.4-1.7-.5-.2-.3 1.8h-.5l.3-2-.5-.2-.2 2.2c-.1.6-.4 1 .1 1.7" id="path16"/><path d="m387.2 310.4-.6.1c-.6-.3-2.3-1.6-.9-3-.5-1.3-.3-2.8.9-2-.7-1.2-.2-2.3.5-2.2-.4-1 0-2 .3-2.1l1.7-5.7.4-.2-1.6 5.3.6-.8 1.4-4.7.7-.2-1 3h.4l1.2-3 .7-.2-1.4 3.2.4.2 1.5-3.4.5.1-1.8 3.6.3.3 2-3.6.4.3-2.3 3.7.2.4 2.4-3.7.3.6-2.7 3.7v.6l2.8-3.9.2.6-3 3.9-.2.6 3.4-4.2v.7q-1.7 2.2-3.6 4.3c-.2.6-.1.7-.8 1 .3.4 0 1.4-.8 2 .5.6-.2 1.6-.8 2 .3.5.1 1.4-.3 1.8z" id="path17"/></g><g fill-rule="evenodd" id="g32"><path d="M379.3 322v47.3c-1 14.9-20.5 2.4-24.9 12-3.6-9.8-25.3 3-24.6-12v-47.2h49.5" fill="#ffcc00" id="path18"/><path d="M354.7 378.1c-3.9-3.6-11.1-2-15.9-2.5a17 17 0 0 1-4.3-.6q-.7-.2-1.3-.6l-.6-.5q-.4-.4-.6-1l-.3-.8-.1-1.2V350h45.7v20l-.1 1.3-.4 1-.4.9-.8.9-1 .6-1.5.5c-5.6 1.1-14-1.2-18.4 3" fill="#0062aa" id="path19"/><path d="M331.3 323.4h46.4v25.4h-46.4z" fill="#2c2c2b" id="path20"/><path d="M331.7 323.7h45.7v24.8h-45.7Z" fill="#56c7ed" id="path21"/><path d="M324.2 370q-.5 2-1.5 3.7l-.5.7 1.2 1.5.6-.9q.7-1.1 1.3-2.5l.2-1-.7-.9z" fill="#008ed1" id="path22"/><path d="M325.8 372.3c1.1 2 .7 3-.9 5.1l-1.1-1.4c1-1.5 1.5-2 2-3.7" fill="#e21c2a" id="path23"/><path d="M319 365c-.1.4-.4.9 0 1.1.5.6 6.4 2 7.9 7.3 1.2-1.5-1-5.2-7.9-8.4" fill="#e21c2a" id="path24"/><path d="M317.5 361.6v.8c.4.6 1.3.7 1.4 1q-.2.8.4 1.4l4.5 2.5c.7.6 2.6 2.3 3 3l.8 1.3c1-4.3-6-8.3-10-10" fill="#008ed1" id="path25"/><path d="M323.9 369.6q-.4 2.4-1.9 4.6l-1-1.2c1.1-.7 1.7-2.8 2-4 0-.2-.1-.1.9.6" fill="#ffffff" id="path26"/><path d="M327.7 307c1.6-1.5 8.5-4.2 10-2.8l-.1 1c-1.8-.5-7.9 1.6-9 3.2q-.1-.9-1-1.3" fill="#ffffff" id="path27"/><path d="M329 308.4c.7-.8 7.7-4 8.6-2.5 0 1.1.3 1.6.6 2.3l-1.2-.4a13 13 0 0 0-7.8 2.5c-1 .7-.7-1.5-.3-2" fill="#008ed1" id="path28"/><path d="M329.3 310.7a18 18 0 0 1 5.4-2.4c1-.2 1.5-.4 2.9 0 1 .3 1.5 1.5 1.7 2.3q-1-.7-2-.6c-4.4.4-6.7 2.9-8.4 3.7-.4-.4-1-.7-.8-.8.8-.5 1.8-1.2 1.2-2.2" fill="#e21c2a" id="path29"/><path d="M332.5 312q1.7-1.2 4.2-1.6c.2 0 1-.3 1.3 0s-.4.8-.6 1c-1.9 1.3-4 2-5.5 3.9 0-.7.3-2.5.6-3.3" fill="#008ed1" id="path30"/><path d="m335.7 310.7 1-.3c.2 0 1-.3 1.3 0s-.4.7-.6 1l-.6.4z" fill="#004b95" id="path31"/><path d="M338.4 310.5c3.7 1.8-5.8 5.3-6 6.7-2.1-3 5.8-5.2 6-6.7" fill="#e21c2a" id="path32"/></g><g fill="#ffcc00" fill-rule="evenodd" id="g37"><path d="M324 306.4c.1.5.7.9.9 1.4.3 1-.8 1.6-.8 2-.4.3-.1 2.5-.6 2.3-.2-.3 0-1.5-.6-1.5q-.8-.1-.8-.4l-.2-1c0-.3 0-1-.4-1.1-1.2-.4-1.3-1-1.2-1.6q0-.8-.7-1.2-.4-.2-1.1-.2-1 0-1-.8l-.2-.9c-.2-.4-1.9-1.2-1.3-2.4-1.3-.2-2-1.6-.8-2.9-1.4-1.5-.5-3.2 1-2q.9-.5 1.6-.5 1.1.2 1.5 1.3c.1.3.8.5 1.3.6h.3q1.1.1 1 1.5c0 1.1 2 1.3 2 3q0 .8-.3 1.3 1.1.8 1 1.4 0 .7-.6 1.7" id="path33"/><path d="M322.4 313.2c0-.1.7 1.8-.3 2.5-1-.2-.8.1-1.7-.7-1 .3-2 .7-2.1-1-2.7 0-1.8-1.2-2-2.4-2.2-.5-2.7-1-2-2.9q-1.3-.6-1.4-1.6 0-.8.6-1.2a2 2 0 0 1-.8-1.5q0-1 .9-1 .9.2 1.1 1.2.3-.8 1.1-.8c.5 0 1.4.5 1.6 1.5l1 .1c1.4-.1 1.4 1.3 1.4 2.3 2.2.8 1.3 2 1.8 3.1 1.3-.1 1.6 2 .8 2.4" id="path34"/><path d="M327.2 307.4c1.2 0 1 2 .9 2.8q2 1.4-.3 2.5l-.1.4q2.6 1.6-.4 3.2c.3.8.8 2.1-.7 2.8q.6 1.3-1.5 1.4c-.4 0-.5.4-1 .3q-.5-.2-.6-.7-.9-.6-.1-2.7-1.6-1.1-.3-2.6c-.8-1.7 0-2.2 1-2.7 0-1-.1-3 1.4-3 .5 0 .4-1.7 1.7-1.7" id="path35"/><path d="M312.8 366.2c1.6 0 1.5 1.8 1.5 3q.9.4 1.5.9c.3.2.9 1.8 1.2 1.9-.2 0-1.1 0-1.3-.3-.1.3-1 .7-1.3.4-.6 1.3-1.8.5-2.6-.3-.2.3-1 .7-1.4.6-.5 0-.9-.8-.8-1.3-1.3 0-2.2-1.5-.2-2.1 0 0 0-2 1.9-1.5.9 0 .3-1.3 1.5-1.3" id="path36"/><path d="M324.5 377.5c0 .4 4.5 4.2 4 4.5s-.8.9-1.7-.4c-.1-.3-1.5-2-1.8-1.9q-1 .2-1.4.5c0 .7-.3 1.6-1 1.6-1.4 0-1.2-1.1-2.3 0-.3 1.7-2.2 2.2-2.3 1.6l-1 .6q-.8 3.1-2 2c-.2 0-.5.5-.7.5-.5 1.2-2 1.8-2.1.3l.2-1.3c-2.2-.2-1.6-2.2-.2-2.8-1.2-1.2 1.1-1.7 2-2 0-1.4 1-3 2.8-1.6l1.1-.5c.2-1.8 2.9-1.8 3.5-.1.9 0 1.3.3 2.1.8 1.1-.5 1.3 0 .3-1.2l-2.3-2.7h-1.4c-1 1-2.9 3.3-4.3 1.4h-.1q-.5.4-.9.4-.3.6-1.2.7-.7.1-1.3-.4l-.8.3q0 1-.9 1c-.8 0-.7-1.5-1.1-1.5q-1.7-.2-1.9-1.3c0-.6 1.2-1.3 2.1-1.4q0-1.4 1.5-1.4 1-.1 1.6.5.4-.7 1.6-.7.7 0 1.3.3c.3-1.6 2.3-.5 2.8.4l1.3.6.4.4.3-.1c-.3-.4-1.7-2.1-2-2.1q-.5 0-1-.6-.7 0-.9-1.2c0-.3-.8-.4-.8-1-2.2-1-1.1-1.8-1.6-3-1.1-.7-.8-1-1-2.7-1.3-.8-1-2.6 0-2.9-.4-3.5 1.4-3.4 2.1-1 0 0 2-.5 1.5 2 .5 1.3 2.1.7 1.7 2.9q-.2.9-.4 1c2 1.9.8 2.3.8 3.8.4.2 1 1.6.5 2.1.3 1 3 3.6 4.9 5.6" id="path37"/></g><g fill="#ffcc00" fill-rule="evenodd" id="g41"><path d="m337.9 384.3 1.5 1.3c-.6.9-1.8.7-2 .6-.1-.2-.3-.8.5-1.9" id="path39"/><path d="m329.2 383.5.8-.3q.6.3.8.8v.6l.6.3c1 .5.8.1 1.9.9 0 .4-.1.8-1.1 0l-1.3-.7c-.6 0-.6-.3-1.2-.1-2.7 1.2-.1 3.5-2.4 3.5l-1 .5c-.2.4-.2 1.3-.2 1.5-.6 1-1.5.5-2 1.2s-.6 1.2-1.6 1.3c-.4-.3-.8 0-1.2-.3-.5.5-1.3 1.7-2 1.7q-1.4-.5-1.4-1c-.1-.7.6-2.2 1-2.4q-.9-.8-1-1.3c0-.6 1-1.2 1.8-1.5v-.4c-.4-1.2 1.5-1.8 2.7-1.7.4-2 1.7-1.6 3.3-1.7-.1-1.5 2.3-2.5 3.5-.9" id="path40"/><path d="M337.6 391c-.4 2.8.4 3-1.8 3q-1 0-1 .4c-.4 2.2-2.1 1.3-2.6 1-2.2 2.3-3.7 0-2.3-1.7-1.2-.8-.5-2.6 1.3-2.6-.5-1.7 1.6-2.3 2.3-2.3 0-2 2-1.8 3-1.6 0-.1.7-.2-.6-.5-1.8-.5-2.8-.7-2.3-1.6-.5-.4-1.9-.4-1.9-1-.1-.4-.5-1.2-1-1.2-.8 0-1.7-.2-1.7-1 .5-2.3-1.6-.7-1.7-2.6q-.1-.7.4-1.5c-.3-.1-.6-.7-.7-.9q-.5-.8.3-1.1c.6-.4.9-.2 1.9.7.6-.2 2.3 0 2.7 1.6q.1 1 1.1 1c1 0 1.8 1.4 1.6 2.6 1 .7 1.8 1 1.5 2.7.8.7.6 1 .9 2 0 .6 1.3.2 1.7.3.6-.6 1 1 1 1.4-2 .7-.2.3-1.2 1.5.4.3 1 1.4-.1 1.4z" id="path41"/></g><g fill-rule="evenodd" id="g46"><path d="m339.2 386.2 2.4-.6.6 1q-1 .6-2.2 1c-.1-.2-.2-1-.8-1.4" fill="#ffffff" id="path42"/><path d="m340.3 387.9 2-.8 1.4 1.5q-2 1-4.2 1.7-.3-.4-.4-1v-.6z" fill="#008ed1" id="path43"/><path d="M338 391.5q1 .1 1.5-.9l4.5-1.6c.3.5.6.4 1.5 1a19 19 0 0 1-7.5 2.7z" fill="#e21c2a" id="path44"/><path d="m341.6 382.2.8.3c0 2.3 1.6 4.8 5.7 7.4l-.8.4c-3.7-1.8-6.5-4.9-5.7-8.1" fill="#e21c2a" id="path45"/><path d="m342.8 382.5 1.8 1c0 1.3 1 3 5.1 5.9l-1 .3q-6.1-4-6-7.2" fill="#008ed1" id="path46"/></g><g fill="#ffcc00" fill-rule="evenodd" id="g49"><path d="M338.4 395.8q5.4-4.3 13-6.7c-.2.1.4.2 0 .3a49 49 0 0 0-12.6 7.1z" id="path47"/><path d="M339.8 396.3a53 53 0 0 1 11.8-6.8v.3a63 63 0 0 0-10.5 7c-.6.2-1.1-.3-1.3-.5" id="path48"/><path d="M342.4 396.3c1.1-1.3 6.5-4.9 9.5-6.4l.3.2c-2.2 1.7-8 6-8.5 6.6q-1.2.3-1.3-.4" id="path49"/></g><g fill-rule="evenodd" id="g116"><path d="M346.3 380.3c4.7 4 7.3 8.4 6.6 9l-.4.4q-4.2-6-8.3-8.8l1.4-.1z" fill="#008ed1" id="path50"/><path d="M347.8 379.9c1.4.8 4.7 3.8 5 6.3l.1 1.4c-1-2-3-5-6.3-7.5q.5-.4 1.2-.2" fill="#ffffff" id="path51"/><path d="M343.8 381a48 48 0 0 1 5.6 5.1l-.8-.3a14 14 0 0 0-7-3.8q.5-.9 2.2-1" fill="#e21c2a" id="path52"/><path d="M347 384.8q1.2 2.8 3.7 4.1l-.6.3q-5.3-3.8-5-5.6z" fill="#ffffff" id="path53"/><path d="m352.4 383.5 1.3-.6c.7.9 1 4.6.3 6.7h-1c.7-2 .2-4.2-.6-6.1" fill="#e21c2a" id="path54"/><path d="M354 382.9h1.4q1 3.7.2 6.8l-1.3-.1c.5-1.5.9-4.2-.2-6.7" fill="#008ed1" id="path55"/><path d="m355.8 383.1 1 .3q1 3.5.2 6.2h-1c.4-1.9.2-3.6-.2-6.5" fill="#ffffff" id="path56"/><path d="M357.2 383.4c2.2-2.4 4.3-3.8 5.8-3.3l.7.7q-3.5 0-6.3 3.1z" fill="#ffffff" id="path57"/><path d="M357.6 384.3q2.9-3.3 6-3c.2.3.1 1.2.2 1.5-2.2 0-4 .7-6.2 3.2z" fill="#008ed1" id="path58"/><path d="M357.7 386.3q3.6-3.4 5.9-3l-.5 1a9 9 0 0 0-5.4 3.2z" fill="#e21c2a" id="path59"/><path d="M358.4 389.6c4.8-3.6 5.7-6 5.7-8.5l1 .8c-1 3.9-2.6 6.1-5.7 8q-.7 0-1-.3" fill="#ffffff" id="path60"/><path d="M359.5 390.2q4.7-2.1 6-8l.8.9c-.2 2.6-3 7-5.7 7.7q-.6 0-1-.6" fill="#008ed1" id="path61"/><path d="M361 391.1c3-1.2 4.6-3.6 5.7-7.6l.6 1c-.8 3.5-2 5.4-5.3 7z" fill="#e21c2a" id="path62"/><path d="M366.1 388.8a11 11 0 0 0 4.5 1.8c.2.6.3 1.1 1.3 1.5v.4q-4.6-.9-6.6-2.7z" fill="#e21c2a" id="path63"/><path d="M367.2 386.8c.9 1.6.3 1 1.9 2q.3.8 1.3 1.6c-1.8-.4-1.8-.6-4-1.9z" fill="#008ed1" id="path64"/><path d="M374.9 389.5c3.9-.2 7.2 0 7.8-.8l1 .4.4.6q-3.5 1.8-7.8 1.6c.1-.5-.7-.9-1.4-1.2z" fill="#008ed1" id="path65"/><path d="M374.2 388.5c1.6.6 1.8 0 2.2-.5.3.3 1.7.6 2.5-.2 1.1.4 2 .8 2.7 0q0 .6.7.7c-.1.7-4.6.7-7.5.7-.2-.1-1-.8-.6-.7" fill="#ffffff" id="path66"/><path d="M376.4 391.5c2.3.4 6-.6 7.8-1.5l.7.7a12 12 0 0 1-7.7 2.1q-.7-.3-1-.7.4-.3.2-.6" fill="#e21c2a" id="path67"/><path d="M371.7 304.1c1.8-1.7 4.7-1.5 10.1 1.8l-.2 2c-4.4-3.3-7.3-3.9-9.9-2.7z" fill="#ffffff" id="path68"/><path d="M371.7 305.6c2.2-1 5-1 9.8 2.7v2c-4.8-3-7.5-4-10-3z" fill="#008ed1" id="path69"/><path d="M371.2 307.9c1.7-1 4.9-.7 10 2.8v1.6q-7.2-5.4-10.4-3z" fill="#e21c2a" id="path70"/><path d="M372.5 308.9q2.7.4 5.4 2.3l-.5 1.6c-.7-1.3-7.3-2.5-6-3.3z" fill="#008ed1" id="path71"/><path d="M370.8 309.8c.8 1 5.6 1.8 6 3l.4 1.5c-.6-.6-5.4-1.9-5.6-2q-2-.9-1.3-1.8z" fill="#e21c2a" id="path72"/><path d="M328.8 386.7c1.2.6 3.4.7 5.4.2-1 .7-1 1.2-1.1 1.5-1.8.3-4 .2-4.5-.2q.3-.4.2-1.5" fill="#ffffff" id="path73"/><path d="M328.4 388.7q.8.4 3 .3c-.3.6-1 1.2-.7 1.8l-1.1.3q-1.5 0-3.1-.7c-.2-.8.3-1.7 1.9-1.7" fill="#008ed1" id="path74"/><path d="M326.4 390.7c1.1.5 1.8.6 3 .7q-.6.8-.4 1.2-3 0-4.1-1c.8-.3 1.4-.2 1.5-.9" fill="#e21c2a" id="path75"/><path d="m387 381.4 1.2.5c-.4 1.7-1.7 2.4-2.4 3l-.4-.2a6 6 0 0 0 1.6-3.3" fill="#008ed1" id="path76"/><path d="M385.5 380.6q.4.6 1.2.6a6 6 0 0 1-1.6 3.5l-1.4-.3c1.2-1 1.8-2 1.8-3.8" fill="#ffffff" id="path77"/><g transform="matrix(1.8723 0 0 1.8717 234.4 -297)" fill="#ffcc00" id="g111"><path d="M76.3 361q.5-.4.8-.3.1.2-.3.7-.3.3-.7.3v-.3z" id="path78"/><path d="M75.4 361q.3-.5.5-.2.1.5-.2 1.2v.2l-.4.1-.1-.1q-.1-.4.2-1.1" id="path79"/><path d="M74.2 361.8q.4-.6.6-.2.1.5-.2 1.2t-.6.2z" id="path80"/><path d="M73.1 363.1q.5-.6.6-.2t-.2 1l-.5.4q-.2-.5.1-1.2" id="path81"/><path d="M76.4 361.9q.5-.1.4.3-.2.4-.8.5t-.5-.3.9-.6" id="path82"/><path d="M77.6 364q.8-.1.5.2t-1 .5q-.7 0-.5-.3.3-.3 1-.5" id="path83"/><path d="M79.4 363h.6q-.1.5-.7.8h-.5v-.1q0-.3.6-.7" id="path84"/><path d="M79.5 362q.5-.3.5 0 0 .5-.6.8l-.3.2v-.3H79q.1-.4.5-.7" id="path85"/><path d="M77.7 363.4q-.3-.5 0-.5.4 0 .9.6l.1.4h-.4q-.3-.1-.6-.5" id="path86"/><path d="M78.1 362.5q-.2-.5 0-.4.5 0 .8.6.2.5 0 .5-.5-.2-.8-.7" id="path87"/><path d="M78.7 361.5q0-.6.3-.3t.3.9l-.4.4q-.3-.3-.2-1" id="path88"/><path d="M80 364.4q.8 0 .6.3-.3.4-1 .4-.5 0-.6-.2.5 0 .7-.3v-.2z" id="path89"/><path d="M81.3 365q.5.1.2.5-.3.2-.8.2l-.4-.2q-.1-.2 0-.4.4-.4 1-.1" id="path90"/><path d="M75.3 362.8q.7 0 .5.3-.3.3-1 .5H74v-.2q.4-.4 1.2-.6" id="path91"/><path d="M74.3 364q.5 0 .5.2l-.5.3q-.3.3-.7.2h-.3q-.3-.3 0-.4.2-.3 1-.4" id="path92"/><path d="M75.3 364.4q.5 0 .3.3-.1.3-.7.4l-.5-.1q-.3 0 0-.3.1-.3.9-.3" id="path93"/><path d="M72.2 363.8q.5.2.3.6-.3.2-1 0-.5-.1-.2-.5.3-.3 1-.1" id="path94"/><path d="M76 363.9q.6 0 .7.2t-.6.4l-.7-.2q0-.3.6-.4" id="path95"/><path d="M72 365.4q-.1.5-.5.4-.3-.4-.3-.9.1-.5.5-.3.3.2.3.8" id="path96"/><path d="M72.8 366.5q-.1.5-.4.3t-.2-1q0-.5.4-.2z" id="path97"/><path d="M73.7 367.4q-.1.4-.5.3-.3-.4-.2-1t.4-.2.3.9" id="path98"/><path d="M73.1 364.7q.6.4.2.6t-1-.1-.1-.6 1 .1" id="path99"/><path d="M74 365.7q.4.3 0 .5l-1-.2q-.4-.3 0-.5z" id="path100"/><path d="M75.1 365.4q.5.3.2.6l-1-.2q-.5-.4-.2-.6.5-.1 1 .2" id="path101"/><path d="M76.5 365.2q.5.3.1.5-.3.1-1-.2-.4-.3 0-.5.3-.1 1 .2" id="path102"/><path d="M78.1 365q.6.5.2.7-.4.3-1.1-.1-.6-.4-.2-.6.5-.2 1.1 0" id="path103"/><path d="M79.7 365.6q.3.5-.1.6t-.8-.5v-.4l.3-.2q.3.1.6.5" id="path104"/><path d="M81 366.3q0 .7-.3.6-.5 0-.7-.7-.2-.5.2-.6.5.1.7.7" id="path105"/><path d="M82.1 366.3q.4.4 0 .6-.4 0-.8-.3 0-.2-.2-.3v-.2h.8z" id="path106"/><path d="M79 364q.6 0 .5.4-.3.3-1 .5-.7 0-.6-.3.3-.4 1-.5" id="path107"/><path d="M74.6 366.7q.3.4 0 .5-.5 0-.8-.3-.3-.5 0-.6.5 0 .8.4" id="path108"/><path d="M75.4 367.6q.4.2 0 .4-.2.1-.8-.1-.4-.3-.1-.5z" id="path109"/><path d="M74.4 368.4q0 .5-.4.3-.3-.2-.2-.8 0-.5.4-.4.3.4.2.9" id="path110"/><path d="M75.4 368.8q0 .5-.2.5-.4-.1-.6-.7 0-.5.2-.5.4.1.6.7" id="path111"/></g><path d="m340.3 305.7-.4 1.1-.6.3q-.1.4.4.8l.7.2q0 .3.2.5l.3.2.4.2 1.3 4.2.5.3q0 .7.3 1.2v.5c0 .5-.5 1 .1 1.6l.4.2a3 3 0 0 0 1.4 1.7h.4l.1-.6q0-.4-.2-.5l-.7-1.9-.5.3c-.2.1-.3-.6 0-1l-.3-.7q-.1-.6-.5-1l.1-.5-1.9-4 .4-.9c0-.3-.4 0 0-1.3q-.2 0-.3-.6l-.5.4-.2-.5h-.5l-.1-.2z" fill="#ffcc00" id="path112"/><path d="M364.5 310.9h.5v.4h.4v.4h-.4v.4h-.5l.1-.4h-.5v-.4h.5z" fill="#ffcc00" id="path113"/><g transform="matrix(1.8723 0 0 1.8717 234.4 -297)" fill="#ffcc00" id="g115"><path d="M69.6 325.5a1 1 0 1 1 0 2.1 1 1 0 0 1 0-2.2" id="path114"/><path d="M61.9 324.7q-.4.3-.8.2v.1l-.5.2c-.2 0-.2.9-.4 1.2l.1.2.5-.2v.5l.3-.2v.2l.2-.2v.2q-.3.3-.9.4-.5.3-.9.1l-.3-.5H59l-.3.2q-.1.3 0 .4h-.3l-.1-.4q-.3.1-.2.4v.3l.6.7h.3v-.6q-.2 0-.2-.3l.2-.2.2.3v.3l.1.1q1.4-.7 3-.7l-.2-.5q.3 0 .5-.2c-.8-.1-.5-1 .2-.9q.3.1.5.5 0 .6-.4.8h.5l-1.8 1c-.3.2-.2-.2-.3-.3q-.6.3 0 .9-.3 0-.3.2 0 .7.2.8l.3-.6q0 .8.6.7h.4q.4.4 1 .3l.6.4q.3 0 .5-.4.5.2 1-.4l.9.2q.2-.1.2-.7.3 0 .4.5v-1.1c.1-.9-.2-.5-.2-.8q-.1.5-.8 0-.7-.2-1-.6h.2l-.1-.2-.4-.6q.1-.4.5-.6h.4c.7.8.2.8-.2.8q.2.3.6.2v.6q1.6 0 2.8.7 1.5-.1 1.4-.7l-.2-.1-.2.3h-.3v-.3h-.3v.3l-.3-.2-.2-.2-.4.2q-1.2.1-1.5-.5l.1-.1h.4v-.2l.1-.2.4.2.2-.2q-.2 0-.2-.4.2-1-.8-1l-.1-.1q-.4.1-.8-.2 0 .6-.6.7h-1.1l-.4.6-.4-.6z" id="path115"/></g></g><g fill="#ffcc00" fill-rule="evenodd" id="g121"><path d="m367.4 293.9.7.9v1.1l-1.7 2.6 2.3-2.3.3.8c-.5.7-.6 1.5-1.4 2.2 0 .2 1-.2 1.6-.3q.2.8-1.2 2 .7 0 1.3-.2.3 0 .4.2-.6 1-1.6 1.6.8 0 1.5.2.3.6-1.4 1.1l1 .7q0 .7-1.1.8.7.6.6 1-.3.4-1.3.4.4.6.4 1.1-.1.8-2.4-.6l.9 1q.4.6.1.9-.5.3-1.3-.4-.8-1.2-1.5-1.6 1 .9 1.3 2.2.2.5-.2.7-.6.1-1-.4l-1-2v.4c.2.5.6 1.4.5 1.8q.1.4-.2.8-.6-.2-.9-.5l-.4-2-.3.2.2 1.2q-.3 1.5-1.2.5l-.2-1.5q-.6-.1-.8-.5a1 1 0 0 1-1 .5v-5.3q.6.2.8-.5.3 0 .2.6-.1.4-.8 1 .9.8 2.1.3.7-.2.2-1.5l-.3-.9q.2-1 2.6-3v.2q.8-.7 1.4-1.7h.2q1.6-1.8 2.6-3.8" id="path116"/><path d="M341.5 294q-.4 0-.6.6.2 2 1.6 3.7l-2.2-2q-.2.1-.3.7c.3 1.1 1.2 1.6 1.7 2.3q-1.3-.5-2.3-.6.4 1 1.5 2-1-.2-1.8.1.6 1 2 1.6-1 0-1.8.3.3.7 1.6 1.2-.9 0-1.3.6.2.8 1.3 1 1.5 0 3-.5h.4l-.3.7c-1.1.4-1.4.7-1.8 1q-.3.7-.1 1.2l.6-.2q-.6.7-.4 1.5.4.2.8 0 .8-.4 1.2-1a5 5 0 0 0-.5 2q.4.2 1 0l1-1.4s-.4 1.9.2 1.8 1-.8 1.3-1.2q-.1.8.7 1 .4.3.7-1.1c0-1 0-.5-.3-1.3s.1.7.5.6q.5 0 .6-.6l.7.4.3-.3.1-5s-.5.3-1-.3 0 1.5.6 1.3q.8-.3 0 .3-.6.5-1.6.5t-.7-1.3c.2-1 .5-.7.5-1q.2-.6-.4-1.4l-2-2c-.5.3-1-.7-1.5-1.6-.1.5-1.5-1.4-3-3.7" id="path117"/><path d="M348.6 295.6q-.6 0-1-.4-.4-.1-.4-.9c.2-.3.3-.5.5-1.5q-.4-.7-1.2-1c-.1 0-.9.8-1.4 1l-1 .3-.3.6.6 1.2-.1.2-.6.3q-.3.3 0 .6.1-.3.6-.4h.7l-.3.7q-.1.1.2.5.3.2.6.1l-.3-.3.4-1c.4-.2-.1-1.2-.2-1.8l.2-.5 1-.3v2q.1.4.7.6l1.2.3s.4-.3 0-.3" id="path118"/><path d="M360.6 295.8h-4c0 .1-.4 0-.3.2l.4.4-.3.2.6.4-1.6.7.6.3-1.6 2.9q-.5-1.6-1.4-3.1h.6l-1.5-1 .6-.3-.3-.2.5-.5h-2.2q0-.3-.3-.5l-1.6.1-.7.7-1.3.8q-.1.9.3 1l1-.2.6.2-1.3.3q-.5.2-.8.1h-.5q0 .5.6.6l1-.1.8-.3-.4.5v.5l.6-.6.8-.2.8.2.3-.1q.6.4 1 1.2.3 1 .1 1.5-.6.4-1.2.5l.7.6-.4.6h7.3l-.5-.6.6-.1.5-.5q-.8.1-1.5-.7l.2-1.3a3 3 0 0 1 1.2-1.1l.8-.1q1-.5 1.4.8.3-.1 0-1.1.7.6 1.6.5.7-.4.5-.8-.1.6-2.6 0 .4-.6 1.5-.2.8 0 .4-1.3-.3-.3-1.2-.3 0-.3-.4-.6" id="path119"/><path d="M361.2 295.7q.7-.3.6-.7l-.4-1.8.2-.5.3-.4.9-.1c1 .7 1.4.7 2.1 1.5l-.2 1.2.6.3.1.4-.2.4-.3-.3-.7-.1q.2.4 0 .8 0 .5-.4.5h-.3l.2-.8-.2-1q.3-.4.4-1.2l-.2-.4q-.9-.4-1.3-.3l.1.9v.8l-.5.5c-.3.3-1.2.5-.8.3" id="path120"/><path d="M353.1 294.2q-.6.8-1.6 1.3l.1.2q1-.2 2.2-1h1.2l2.2 1 .7-.1q-1.1-.5-2-1.4z" id="path121"/></g><path d="M358.5 295.4h2v.4h-2Z" fill="#fff8b3" fill-rule="evenodd" id="path122"/><g fill="#ffcc00" fill-rule="evenodd" id="g125"><path d="M359.4 292v.3h-.3v.3h.3v.9l-.6-.2h-.2q-.7.5-.6.8l.5 1.6h2l.5-1.5v-.4l-.8-.4-.4.1v-.9h.2v-.3h-.3v-.3z" id="path123"/><path d="M349.5 292v.3h-.3v.3h.3v.9h-.8q-.6.3-.5.6l.5 1.4v.2l2 .1.4-1.6q.2-.3-.4-.7h-.8v-.9h.2v-.3h-.2v-.3z" id="path124"/><path d="M354.2 288.9v.3l-.3.1v.4l.3.1v.9h-.6l-1.3.5c-.4.7.4 1.7.5 2.5l.2.5h2.9l.7-2.5-.4-.7-1-.2-.5-.1v-1h.3v-.4h-.3v-.4z" id="path125"/></g><g fill-rule="evenodd" id="g205"><g transform="matrix(1.8723 0 0 1.8717 234.4 -297)" fill="#ffffff" id="g150"><path d="M60.2 317.7q0-.2.3-.3l.1.2z" id="path126"/><path d="M61 316v-.1z" id="path128"/><path d="M61.2 316v-.2z" id="path129"/><path d="M60.9 316v-.2z" id="path130"/><path d="M61 315.9v-.2h.1z" id="path131"/><path d="M61 315.8v-.2z" id="path132"/><path d="m68 317.7-.2-.1.1-.1q.2 0 0 .2" id="path133"/><path d="M66.2 316v-.1h.1z" id="path135"/><path d="M66.5 316v-.2z" id="path136"/><path d="M66.1 315.9v-.1h.1z" id="path137"/><path d="M63.6 315.5h-.1v-.1h.2z" id="path140"/><path d="M63.3 315.4h.2z" id="path141"/><path d="M63.3 315.2h.1z" id="path142"/><path d="M63.5 315.2h.1z" id="path143"/><path d="M63.6 315.1v-.1z" id="path144"/><path d="M63.5 315v-.1z" id="path145"/><path d="m63.2 314.9.1-.2v.2" id="path146"/><path d="M63 314.7v-.1h.1z" id="path148"/><path d="M63.3 314.6v-.2h.1v.2" id="path149"/><path d="M63.2 314.5v-.2z" id="path150"/></g><path d="M364.7 313.5h.2v.3h-.2zm-19.4 5 .4-.2v.3zm-.3-.2q-.3 0-.3-.4.8.2 1-.2v.3q-.4.3-.7.3m-.4-.6-.7-.5h.1q.4.4.9 0v.3q0 .2-.3.2m.4.1q.3-.3.2-.8l-.1-.2-.1.3v-.8l-.3.2.2-.4h-.2q0-.2.2-.2c0 .2 1 2 0 2m-.6-.6-.9-.5v-.1q.6.2 1.2.1v.4zm-.3-.6q-1.1-.4-.7-1h.2v.4l.8.2v.4zm-.2-.6-.2-1.4h.3c.5.8-.2.8.2 1.4zm-.5-1.6h-.2l.9-.4v.2q-.3.3-.7.2m-.1-.4q-.2-.1-.1-.4l.4-.1q.2.1.1.4h-.4m-.4-.7h-.1l.7-.3q0 .4-.6.3M340 308h.2v-.3l-.5.2.2-.1h-.3l.2-.2h-.4v-.2l.3-.1-.4-.1h.6l.2.2h.3v.5h-.4m.5.5-.1-.1v-.1c.4 0 .2-.3.5-.5q.1.7-.4.7m.9.9v-.3h.5-.1q0 .3-.4.3m-.2-.5q-.2-.2-.2-.5l.5-.1v.4zm.5-.8q-.3 0-.5-.3c.6.1.3 0 .6-.2v.4zm-1.5-1-.1-.2h.2zm.3-.1-.1-.2h-.4l.1-.1h.3zm-.5-.6.2-.2v.2zm.4-.3v-.2h.2v.1zm.2.5-.3-.2.4-.2zm.2.3.2-.5h.2l-.2.4zm.5.4q0-.6.5-1.1v.2q-.2 0-.1.2l.2-.1v.1l-.2.2h.2l-.3.1v.1h.2l-.3.2v.1zm-.4.4q-.3-.1-.3-.4l.5-.2v.6zm2 5.2-.2-.4c0-.4-.5-1.5-.7-1.7l-.4-1.3h.2c.2.5 1.3 3 1.3 3.4zm12-22 .2-.2c2.9.2.8 2 .8 3.6.7.5 1.4 1.4 2.5 1.3-.1-.9-1.1-1.8.1-2.2v.3c-.9 0-.3 1-.1 1.5h.2l-.1.1.6-.1h-.1v-.3.1l-.4-1.7q.4-.1.6.2v-.9h-.3v-.3h.3v-.4h.5v.4h.3v.3h-.3v.9c.5-.5 1 0 1.2.3q.1.9-.4 1.8c2.7.4-1.3-3.5 2.3-3.5.3.1 2 1.3 2.2 1.7 0 .4-.4.9-.2 1.1 1 .2.7 1.3.2 1.2v-.3h-.7c.4.7-.4 1.4-1 1.3.1-.8.3-.7 0-1.7 0-.7.6-1 .2-1.8l-1-.3c.1 1.6.1 2.5-1.8 2.6q.2 0 .3.4c1.4 0 1.8 1 .9 2q-.7-.6-1.5-.3c1 .2 1.7 1 2.4 0h.2c-.1 1.4-1.3 1.3-2.2.6 0 .5.4.9-.3 1.1 0-1.8-1.7-.5-2-.8-1.7 1-2 3 .4 2.9q-.3.8-1.2.9c.4.5 1.2.6 1.4-.1.9.1 0 1.4-.5 1.6 1.2 1.2 3.4.2 1.8-1.5-.6-1.2 2.5-3.5 2.8-3.6q.7-.6 1.2-1.5h.3q1.5-1.7 2.6-3.9h.2c1.9 2.2-.8 3.8-1 4.5l2.1-2.1h.1c.6 1-.3 2.3-1 3l1.6-.3c0 .7-.7 1.6-1.2 2 .4 0 1.2-.4 1.6 0 0 .7-.8 1.2-1.4 1.6q.7 0 1.4.3v.3q-.6.5-1.3.8 1.8 1.1-.3 1.5.6.3.8 1c-.6.7-.8.3-1.4.5 1.5 2.6-2 .5-2.1.5.7.6 1 .8 1 1.8-.3.5-.8 0-1.2 0-.1-.5-1.2-1.6-1.5-2v.1c.4.6 2 2.1 1 3-1.4 0-1.5-1.3-2-2.4 0 1 1.2 1.8.3 2.9-1.5-.2-1.2-1.3-1.5-2.6 0 1 .3 1.7-.4 2.5-1 .4-1-1.6-1-2l-.8-.4-.9.4v2c.6.6 1 .4 1.6.4v.2c1.7.3 1.6.6 1.5 2.4q.2.3.5.2c-.2 1-1.1.2-1.4.3l.2 1-.7-.4v.2l-.3-.2c-.5 1 2.4 1.4 3.2.8a2.1 2.1 0 0 1 1.3-3.4v-.4l-.3.2v-.8l.4.1-.1-.4h.8l-.2.5.5-.2v.8l-.4-.2v.4a2 2 0 0 1 1.5 3c-.6 1.3-1.3 2.2-3.2 2.2q-2.5-1.2-5.3-1.4l-.2-.1v-1q-.7 0-1-.7c1.6.6 1-1.9-.4-1-1.6 1.4.4 1.6.4 2.6l-.6-.2c.6.4 2.3 1.5 3 1.5q.2-.2.1-.6c1.3.3.6 1.2 1 2.2l-.2 1.7h-.2l-.6-1.2c-.2 2.4-1.2 1-2 1.3-1 .9-1 .6-2.1.6q-.4.5-.9.7l-.9-.7c-.6.1-1.9.1-2-.7q-1.7.7-2-1-.3.4-.3.8c-.7-.4-1-1.6-.3-2-.6-.5-.4-1.8.5-1.7l.1.7c.7 0 2.8-1.4 3.4-1.8q-.5 0-.9.3c0-1 1.6-1 .6-2.3-1.6-1.3-2.5 1.3-.7 1q-.3.7-1.2.6l.4.7v.3a9 9 0 0 0-5.5 1.4v.2c.4.2.4 1.3.1 1.4l-.2-.1c-.2.2-1.6-1.2-1.7-1.8-1.2-.3-.4-1.7-.4-2.3l-.2-.2-.2-1-.4-.2-1.4-4.3c-.4-.3-.8 0-1-.8q-1-.2-1-1.2c.8-.1.8-.7 1.1-1.4h.5c0 .4.3 0 .6.3l.1.4.5-.4.2.6 1.6-.8.3-.7c-.8.6-4.4 1.2-4.6-.5q.4-.5 1-.7-1-.5-1.3-1.2.6-.3 1.4-.3c-.6-.3-1.5-.9-1.6-1.6.3-.2 1.2-.2 1.6-.2l-1-.9h.1q-.4-.4-.4-1c.6 0 2 .4 2 .4-.8-.8-1.9-1.7-1-2.9l1.9 1.9h.1c-.6-.7-2.6-4-.6-4.2.7 1.2 1.5 2.8 2.6 3.8l.4-.2c0 .6.7 1.7 1.3 1.8v-.1h.2c.4 1.4 2.6 1.7 2.4 3.4-.4.7-1 1.2-.3 2q1 .6 2-.4c-1 0-1-1-.7-1.5.3 0 1 .9 1.5 0q-.6 0-.8-.6c2.1-.2 1.5-2 .3-3.1-.7.4-1.4-.8-2.3.6h-.2c-.2-.4.2-.7.2-.9-.9.5-2 .8-2.3-.5 1.6.3 1 0 2.6-.3-.6-.2-1.1.3-1.6.3-1.2-1.6.8-1.7 1-2.2h.3c-2.7-.3-1.6-1.2-1.8-2.8l-1 .4c-.1.8.4 1 .4 2q-.4.4-.5 1.1l.3.3c-1 .2-1.6-.6-.8-1.1h-.8q-.2 0-.2.3h-.1c-.7-.8-.1-1 .6-1v-.2c-.6-.7-1.2-1.4 0-1.9 1.8-.3 1.4-2.4 3.5-.3 0 1.3-1.6 2.4.7 2.8-.2-.9-1-1.7.1-2.1v.2c-.8.2-.2 1 0 1.6h.1v.2l.5-.2-.1-.3v.2l.1-.1-.5-1.7.6.2v-.9h-.2v-.3h.2v-.4h.5v.4h.3v.3h-.3v.9c.6-.5 1.2 0 1.3.4q-.1.9-.5 1.7 1.3-.2 2.2-1.3c.1-1.2-2-3 .2-3.5v.3h-.3c-1 .4 0 1.6 0 2.3h.1v.1h.2v.1l.8-.2h-.1v-.1l-.6-2.5.6-.1.2.2.2-.2v-.8h-.4v-.7h.4v-.3h.6v.3h.4v.7h-.4v.8zm8.9 25 .5-.4-.1-.4q.5.3.7 1l.3-.1q0-.3.3-.5v-.2h.1l.3.3q.4-.4.6-.9H363q.2.8.9 1.1m-1-1.9h.2v.3h-.2zm.4 0h.2v.3h-.2zm.4 0h.2v.3h-.2zm.4 0h.3v.3h-.3zm2.3 0h.2v.3h-.2zm-.4 0h.3v.3h-.3zm-.4 0h.2v.3h-.2zm-.4 0h.2v.3h-.2zm-.5 0h.2v.3h-.2zm-1.4 1.7.2.2v.1l-.2.1v.2l.5.1h-.5v.1l.6.2.2-.4h.2v-.5h.4v.5q-.6.7-1.2.8a16 16 0 0 0-5.4-1.5q0-.5.3-1h.2q0 .3.2.5l.3-.4.4.5c1 .7 2.7 1.2 3.8.5m.6.4h.1zq0-.2.1 0m1.7 0v-.4l.4.1v.1c0 .6-1.1.8-1.6.8q.5-.4 1.2-.4zm-1-5.1h.3v.4h.5v.2h-.5v.4h-.3v-.4h-.3v-.3l.4.1zm0 2h.3v.2h-.3zm0-.4h.3v.2h-.3zm0-.3h.3zm-1.7 2.3h3.7v-.1H363m1.3-2.3v1.3H363q.3-.9 1.2-1.3m-1.3 1.5h1.6V312v1.6zm2.1-1.5v1.6h1.6-1.5V312m1.6 1.3h-1.3v-1.2q.9.2 1.3 1.2m-6.8-1.5-.6-.3.7.2m.3 2.4-.1-1.3c.2.2.2 1.3.1 1.3m.3 0q-.2-.4-.1-.7v.1c.5-.3.2-1.1.2-1.4h.2v-.2c.4.6-.3 2.2-.3 2.1m-.7-1c-.2-.2-.8-.7-.8-.9q.3 0 .5.3v-.1l-.5-.5.7.3v-.3c.5 0 1.1.5.7 1-.2-.1-.4-.7-.7-.6zm1.6.6-.5-.3q.4-.7.3-1.4v.1-.1q-.3-.7-.9-.7l.3.6-1.1-.8c1.7 0 2 .1 2 2 0 .3.5.6-.1.6m-3-2.7.2-.4.9.3zm.9.8-1.4-.2q.4-.2 1 0v-.1l-.7-.3q.7 0 1.2.6zm-.4.8q-1-.6-2-.4c.8-.7.3 0 1.4 0v-.1l-.6-.3c.9 0 1.2.8 1.2.8m-1 1.6h-.2c1-.3.6-1.4 0-1.8 1 0 1.1 1 .6 1.8zm1 0-.2-1.5q.8.6.2 1.6m.6.1-.2-1.4c.1.1 1.6 1.4.2 1.4m-11 0c0-.7-.7-2-.1-2.3.1.7-.1.8.3 1.7l.1-.3c0 .2 0 .8-.2.8m-.9-.6h-.1v-.2c.6-.4-.2-2.3 1.1-2.3-1.2 1 0 2.5-1 2.5m.9-1.7q0-1 1-.8-.6.2-1 .8m.1 1.1c-.3-.8.4-1.8 1.2-1.8l-.3.6h-.4s-.6.4-.3.5q.1-.3.5-.3zm1.3-2-.6-.1q.6-.1 1-.5l.2.5zm.3 1.3q.2-.4.6-.5v-.2h-1q.3-.5.9-.6-.4.2-.5.5.6-.4 1 0-.1.3-.4.4v.1l1-.3v.2zm-.7 1.9v-1.5l-.4.2q.1-.6.6-1h.6c-.7 1-.2 1.7-.8 2.3m.7-.1c-.2-.5-.5-1.4.2-1.6-.3.7-.1 1.6-.2 1.6m.6 0c-1.1-.9-.1-2 1.1-2-1.2.1-1.7 1.5-.4 1.9q-.3.2-.7.1m2.2-1.3-1-1 .2-.1.4.5v-.5zm-.5 1.9c.7-.5.7-.5.8-1.3.3.7.3 1.5-.8 1.3m1.1-.6c0-.6-.5-1.1-.4-1.4q.4.5.6 1.2zm-.1-1.3-.6-1h.1l.2.4h.1v-.5c.4 0 .2 1.1.2 1.1m2.7-.3.1-.8h.3l-.1.5.5-.5c0 .3-.6.7-.8.9m-.8.3.3-1h.1v.5l.3-.6q-.1.7-.7 1.1m-.9.9q-.6-1-.9-2c.6.2.8 1 1 1.4q.1-.7.8-1.3-.2 1-.8 1.9m0 1.2c-.2-.5-.8-1.5-.7-1.9q.8 1 .8 1.5c0-.4.6-1.5.7-1.7 0 .6-.4 1.7-.7 2.1m-2.7 2.5c-.5-.6 1.3-1.6 1.8-2.2v.1c-.5.6-1.4 1.3-1.6 2.1zm-1 2.4c-1-.4-.9-1-.9-1.8-.6.1-.5 1.1-.9 1.3-.5-1.7.3-1 .5-1.8-.7-.1-.7-1-.3-1.3.3 1.7 2.6-.5 3.4-.9.5 0 .6-.7 1.3-1.1-.4.8-3.8 3.2-1.9 3.5-.3.5-.8.9-1 .1h-.2c-.5 1.6 1.3 1 1.1 1.6zm4.6-5.9q0-.5.2-.8h-.2.2l.3-.4q-.1.7-.4 1.2m.8.9v-.2q-.9-.4-.4-1c.2 1 .5.5.8 1h-.3zm2.3 5.1q-.7-.4-1.5-.4v-.1c.2-.4 2-.6 1.2-1.5h-.8l.3-.2-.5.1c1.5-1-2-2.6-2-3.9.6 1.2 3.8 3.5 4.7 2.5q.5.6-.3 1 1 .7.5 1.8-.1-.7-.8-.9c0 .7 0 1.6-.8 1.6m-2.8-.6c0-1.3-.9-3.3-.8-4.3.1.4.2 1.4.6 1.6 0 0 .8 3.3.2 2.7m0 1q-.4-.2-.5-.5c2.3 0 0-4.2-.1-5 .4 1.3 2.2 4 1 5v.1q.4 0 .6-.4v.4l.5-.2-.5.4.1.1h-.1zm-1.2.3c-.7-.7-.3-.3-.3-1.2l-.6.1c0-1.6.6-3 .8-4.5.2.2 0 4.1 0 4.7h.3v-4.7q.6 2.2.8 4.5l-.6-.1c.3 1 .2.7-.3 1.2m0 .5-.7-.8c.4 0 .4.4.9.4l.5-.4q-.1.6-.6.8m-1.8-.8q-.6-.2-1-.6h.5q.2-.9-.7-.9v-.3q.9-.4.7-1.2l1.6-2.2v-.1l.3-.6c.1 1-2.7 5.2-.3 5.5-.5.4-.5.4-1 .4m.6-.9c-.7-1.2.5-3.5 1-4.6l-.2 1v.4c-.2.2-.8 3.2-.8 3.2m-7.7-3v-.4l.3-.2q-.9-.1-.7-1h-.1v.2h-.4c.1.5-.4.5-.4 0q.4-.4 1-.6l.2.8c1.2 1 3.2-.4 4-.6l.5-.5.2.5.2-.5c.2 0 .6.9.6 1.1a10 10 0 0 0-5.4 1.3m.6-1c-1-.4-.2-1.1-1.3-1.1l-.2.1c-.5-.6-.4-1.2-1-1.7l.2-.3-1.8-4q.2 0 0-.3c.2-.1.1-.6.3-.5q-.2.5 0 1c.7.7 1.3.1 1.7-.4q-.2.5-.2 1.6c.9.6 1.6-.6 1.8-1.2 0 .8-.4.6.1 1.6.9 0 1 0 1.4-.8 1.3 1.3 1.7.2 1.7-1.3h.2q.4-.2.6-.5l.6.4v2.1c-.7.5-.8.5-1.6.5v.2c-1.9.3-.7 1.8-1.6 2.5.2.9.8.3 1.2.3l-.2 1 .8-.5v.3q.3 0 .4-.3v.2q-1.5 1-3 1m18.4-16c0-.9 2-2.4 2.4-3.4-.4.1-1.4 1.5-1.8 2l-.1-.2c0-.8 2-3.1 2.4-4.2 2 1.4-2.3 5.5-3 5.8m.9.6q.1-.8-.4-.6l1-.8-.1-.1h.1c.6-.4 2.3-2.4 2.7-2.5.5.7-.7 2-.7 2.1zm.3 1c.1-.2 1.5-1 1.6-1.3-.6.3-1.7 1.2-2.3.9q1.8-1.7 4.2-2c-.5 1.2-2.1 2.5-3.5 2.5m-.2 1.3-.2-.2 2.5-1c-.5.1-1.7.6-2.2.5.1-.4 3.2-1.4 4-1.2-1 1.5-2.4 1.7-4.1 1.9m-.3 1c.8-.6 1.6-.5 2.7-.7-.3-.2-1.8 0-2.2 0l.9-.2.1-.1v.1q1.4-.4 2.9-.1c0 1.2-4 1-4.4 1m2.3 1.3-2.4-.3c.7-.5 1.2-.3 2-.3l-1.7-.2-.1-.2c1.3 0 2.8-.5 3.9.5-.7.6-.8.5-1.7.5m0 1.5-2.6-1v-.2l1.7.5v-.2l-1.8-.6c.6 0 3.9.1 3.9 1.2q-.5.4-1.1.3m-.5 1.3c-1-.3-2-1.2-2.7-1.7.3-.5 1.4.8 1.9.7-.3-.5-1.3-.6-1.4-1l1.5.5v-.1.1c.6.3 1.5.6 1.3 1.4zm-1.1 1.2c-.6-.2-2-2-2-2.2l1.5 1.3c.2 0-1.3-1.6-1.4-1.9.2.2 3.8 2.8 1.9 2.8m-1.6.9c-.6-.4-1.4-2.4-1.4-2.8l1.2 2v-.1l-.9-2c.7 0 2.2 2 1.5 2.9zm-1.5.4c-.7-.2-1.2-2.3-.9-2.8.2.3.5 1.8.7 2q0-1-.3-1.9h.2c.4 1 1 1.8.5 2.7zm-2 0c-.5-.5-.7-2-.1-2.4.2.2 0 1.2.2 1.7l.2-1.6h.2c.3.6.4 2.1-.4 2.2m-2.3-2c.3-.4.5-.1.7-.8l-.6.5q-.1-.9.1-1.6c.2.2.1 1 .1 1.3.4-.3 0-1 .5-1.2 0 .4.2 2-.8 1.7m1.5-.1c-.8-.4-.5-1-.5-1.8l.2-.2.3 1v-.7l.4.1s.1 2-.4 1.6m1.3-.3-.7-.4v-1l.2-.1.3.8.1-1.1c0 .2.8 2.3 0 1.8m1-.6q-.8-.4-.8-1.2c.4 0 .4.5.7.6l-.2-1c.5.7 1 .9.6 1.6zm1-.5c-.3-.2-1.3-1-1.2-1.3q.5 0 1 .6l-.4-.7c.3-.2.8.4 1.1.6q.1 1-.5.8m.7-1-1-.6v-.1l.8.2c-.1-.4-.6-.3-.7-.6.2 0 2.2.2 1.4 1zm-1-5c.1-.6 1-1 1.3-1.7-.2 0-.8.6-1 .8 0-.6 1-1.5 1.3-2.1 1 .6-1.2 2.7-1.6 3m.2 1-.2-.2 1.2-.7v-.1c-.5 0-1.3.7-1.7.7.8-.6 1.7-1.6 2.7-1.5l-.3.9v-.1q-.8.7-1.7 1m0 .8c.3-.4 1.4-.5 1.5-.7l-1.5.2v-.2c1 0 1.3-1 2.2-.4 0 1-1.5 1.2-2.3 1m.2 1v-.2l1.2-.2v-.1q-1 0-1.6-.2c.6-.1 1.6-.6 2.2-.2 1 1-1.5 1-1.8 1m1 1.2c-.3-.1-1.3-.3-1.5-.6h1.2l-1-.3c.3-.3 1.9-.3 2 .5q-.3.3-.7.4m-5.4 1.6c-.7-.4-.3-.7-.2-1.3h-.2l-.1.2v-1c1.4 1 3.6.5 2.5-1.5-1.2-1 1.4-2.6 2-3.1 0 1-.8 1.8-1.5 2.4v.2c.6-.3.7-.5 1.4-.5.5.8-.7 1-1 1.1l-.1.2c1.9 0 1.6.9.1.8v.2c.7.3 1 0 .9 1-.7.4-.8.2-1.2-.3h-.3c0 .3.5.4.5.9-.5.6-1-.1-1-.6h-.2c.3 1.8-.8 1.3-.8.2h-.2q.1 1-.6 1.1m-.5-2.5v-.6q.6 0 .8-.4 0 1-.8 1m-8.4 0q-.6-.4-.5-1l.7.3v.3h-.2v-.2l-.4-.2q0 .5.5.6v.1m-2.2 6.3c-.8-.5-.4-1.2-.3-2h.5l-.2.9c.2 0 .3-1 .4-1.1.6.7 0 1.3 0 2zm-2 .2c-.5-.9.2-2.7 1-2.9.5.9.3 2.9-1 2.9m-1.9-.4c-.4-1 1.1-2.8 2-3 .2 1.1-.7 2.9-2 3m-1.1-1h-.5c-.1-1.5 1.3-1.9 2.4-2.7.2 1-.9 2.7-2 2.8m-.7-1.3c-.4-1 .6-1.5 1.8-1.8q-.4.4-1 .6v.1c.7 0 1-.6 1.7-.5-.4.6-2.1 1.1-2.5 1.6m-1.6-2.5q-.6-.2-1-.8c.8-.8 2.9-.4 4-.4-.2.3-1.8.3-2.2.3v.1c.6 0 1.8-.2 2.2.3q-1.5.5-3 .5m3.1-1.4c-1 0-3.8 0-4.2-1.3 1.4-.2 2.1 0 3.6.5l-2-.2v.2q1.4.2 2.8.8zm-.5-1.2c-1.4-.2-3-.6-4-1.8.5-.5 3.8.4 3.9 1l-2.6-.6v.1c1 .3 2.4.6 3.2 1.2zm-.2-1.3a6 6 0 0 1-3-2.2h.6q-.2-.3-.8-.2c.2.8 1.4 1.4 1.8 2-1-.4-1.8-1.5-2-2.2 1-.2 2.5 1.4 3.2 1.2v.1q.6.3 1 .8c-1 0-.5-.2-2.8-1.3v.2l2.5 1.4q-.2.2-.5.2m.4-1.2c-.7-.4-4.3-3-3-3.7q1.8 1.8 3.9 3.4c-1.2 0-2-1.6-3-2 0 .7 2 1.4 2.2 2.3zm.8-.5c-.1-.2-4.9-5-2.6-5.6.4 1.2 2.6 3.2 2.5 4.2l-.6-.6-.3-.4-.1-.2h-.1c-.2-.3-.6-1.2-1-1.2.4 1 1.7 2.7 2.4 3.8zm6 8.5q-.7-.7-.5-1.7c.6.2.5.7.6 1.4q-.3 0-.3-.2h-.1q0 .3.3.4zm-1.2.1c-.7-.6-.5-.8-.4-1.7l.2-.1v1l.3.1v-1.3l.2-.1c.1.2.3 2.6-.3 2.1m-1.5-.3c-.7-.9.1-.9.4-2h.1l-.2 1.3.5-.9v.1c0 1 .1 1.4-.8 1.5m-1-.5c-.8-.2.2-1.4.4-1.6l-.2 1c.2 0 .4-.5.5-.6h.3c-.4.7-.3 1-1 1.2m-1.2-.6c-.9-.3.4-1.5 1-1.4q-.5.3-.8.8c.4-.1 1.3-.9 1.4-.9-.5.8-.7 1.5-1.6 1.5m-.7-1-.5-.1c0-.9 1-1 1.7-1q-.3.4-.7.5v.1l.8-.2q-.6.7-1.3.8m-.4-1q-.5-.1-.5-.5c.5-.4 1.5-.8 2.1-.3h-.8v.2h.9v.2zm0-1.1q-.7-.2-.9-.7c.7-.7 1.5-.3 2.4 0l-.1.1h-1.2v.2h1v.3zm1.4-1c-.8-.2-2.3-.2-2.3-1.3.9-.2 1.3.1 2.2.5v.2l-1.4-.4v.2l1.5.5zm-.1-1c-.8-.4-1.9-.7-1.7-1.7a5 5 0 0 1 2.4 1.4c-.3.2-1.2-.6-1.5-.6q.4.5 1 .9zm.5-.8c-.3-.4-2.7-2.4-1.5-3.1.3.6 1.3 1.3 1.2 1.9l-.8-.5s1.3 1.8 1 1.7m2.5 5.3c-.5-.3-.3-.5-.3-1.1h-.1q-.1 1-1 .8c0-.7.3-.7.4-1.2-.6 0-.7.8-1.5.3 0-1 .2-.7 1-1q-1 .1-1.3-.6c.4-.6.7-.3 1.4-.3-.4-.5-1.4-.2-1.4-1.1 1-.8 1.4.4 1.8.3 0-.8-2-1.5-1.5-2.8h.1c.6.8 3.1 2 2 3.3-1.2 1.8.8 2.8 2.1 1.6q.1.4-.1.7c.2 1.4-.7 1.5-.8.2h-.2q0 .7-.6 1m-3.4-9.5-.2-.1c0-.7.4-1 .4-1.8h-.2q0 .5-.5.6c.9-.7-.3-1.1-.2-1.7l.2.3h.1v-.4l.1.4c.4 0 0-.3.2-.5.8 1.4.7 1.5.1 3.1zm1.7-2.7v-.9h.2c0 .2 0 1-.2.9m-1.3-1.3c.3 0 .4-.6.7-.5v.1h.3-.2l.4.1zm2.7 3c-2.5-.6-1-1.4-1-2.9-.3-.3-3 .5-3 .7 0 .7 1.4 1.9-.3 1.8.3-.2.5 0 .7-.4-1-1.7-1.2-1.6 1.1-2 3.5-1.5.5 1.1 1.8 2.3l1 .4zm.6-.1c.5-.4 1.5-.2 1.8 0zm.5 1-.1-.3h.4zm-1.1 2.4q.4-.7 1.3-.7v.1q-.7 0-1.2.6zm-1.3-.3-.6-.3 2.8-.4q-1 .6-2.2.7m3.2 0c-1-1.1-1.6-1.4-3-1-.6-1 0-1.3.8-1.5q1 1.4 2.4 2.4-.1.2-.2 0m1.9-1.3-.7-.5h.3zq0 .2 0 0m1.2.2q-.8-.2-1.4-.8c.5 0 1 .6 1.6.8zm-2 .5c-.4-.3-1-1-1.5-1q0 .3.4.6c-.6 0-1.6-1.3-1.5-1.9 1-.2 2.9 0 4 0-.7 1-2.9 0-3.6.4q0 .5.3.6c.7-.7 2.2-.4 3.1-.4-.3.3-1.2.3-1.5.3v.1c.4.2 1.2 1.9.4.7l-1-.7c.2.3 1 1 1 1.4zm.4 1.6c-.7-1.5-3.2-2.3-3.4-3.7.2.1.7 1 1 1.2 1 1 1.9 1 2.5 2.4zm.7-.3q-1-1-2-1.7.5.5 1.2.6l-.3-.7q.8.8 1.1 1.9m.6 0-1.3-2c.6 0 1.4 1.5 1.4 2.1m.8-.1-1.4-1.8c.6 0 1.1 1.1 1.5 1.7zm.7 1.1c0-.4-1.1-2.5-1.1-2.6l.8-.2-1.8-.9.6-.3v-.1h-.3l.5-.7h-1.5c2-.4 2.5-1.7 4.4-.3l1.2.4-1.3-.3q.1.5.7.9l-.4.2q0 .3.6.3c-.2.6-1.5.6-2 .5q.4.7 1 .7c-.3.5-1 2.2-1.4 2.4m0 1.1-1.4-3q.9 1 1.3 2.4zm2.4 1.5v-.4l.3.4zm-1 0v-.2zm-.8 0 .2-.5q.1.6-.2.5m-.3 0v-1q.2.4.2 1zm-.7 0 .3-.8c0 .5.2.8-.3.8m-.4 0 .2-.4v.4zm-2.7 0a3 3 0 0 0 1.3-1.8c0 .6-.5 2-1.3 1.8m.7 0q.3-.2.5-.7.1.7-.5.7m.7 0q0-.8.4-1.4.1.9-.4 1.4m.6 0 .2-.4v.4zm.5 0v-.9.4h.2v-.7q.1.6-.1 1.4zm0-1.6q-.4-.9-.4-1.7v.1h.2v-.6c0 .3.5 2.2.2 2.2m-1.4 0c0-.7-.3-1.8-.2-2.3q.4 1 .2 2.3m.4.2q0-1.1-.3-2.1l.3.5h.2l-.2-1c.1.3.7 2.6 0 2.6m-1.2.8-.5-.2a2 2 0 0 0 1.1-.8q-.1.6-.4 1zm2.7.1c0-.8-.4-1.6-.3-2.3 0 0 .7 2.8.3 2.3m1.6.5q-.3-.6-.1-1.4v.7h.2zm.4-.5q-.1-1 .2-2zm.6.4c-.3-.6-.4-.8-.2-1.5q.3.6.3 1.6m.9.1q-.8-.7-.6-1.8l.2.8.1-.1v-.8q.4.9 1.4 1c-.5.4-.8 0-1.3 0q.2.5.7.9zm-.5-1.9c0-.5 0-1.5.4-1.8zm-.4.5q-.2-.9-.1-1.7h.1l.3-.2zm-1.5.9c0-1.1.1-1.5.5-2.5zm-.3-1c-.1-1 .3-1.3.9-2.2zm.9 0a4 4 0 0 1 .6-3l-.5 1.4h.2l.9-1.2c0 .3-1 2.3-1.2 2.9m-.3-2.2c0-.1 1-1.8 1.4-1.6zm.8 0q.3-1.1 1.1-1.7h.1zm.5.2 1.3-1.8c0 .3-.5.5-.5 1l1-.8c-.3.3-1.5 1.6-1.8 1.6m.3-1.9.5-.6h.3zm2.3-1.1.5-.2v.3zm-2 1.5 1-1.2c-.3 0-1.4 0-1.6-.3q1.8 0 3.4.3l.2-.6c-1.3-.2-2 .5-3.8-.2 1-.4 3-.3 4.1-.2 0 .6-.7 1.7-2 2.2q.5-.3.7-.7c-.4 0-1.1.7-1.2.6l.7-.9c-.5 0-1.1.7-1.4 1zm.1 1.6c1-1.6 2.6-1.7 3.4-3.5h.2c-.2 1.2-2.7 2.6-3.5 3.6m3.4-.6q-.3-.6-1-.6c.3-.2 1.2.1 1 .6m1.4-.2q-.8-.2-1.5-.7c.5 0 1 .5 1.8.5l.4-.2q-.3.5-.7.4m-3.4 0c0-.3 1.6-1.4 2-1.8 1-1.6 2.2.5 1.2.8-1-.9-2.4.7-3.2 1m5-2 .2-.5q0 .4-.2.5m-1.4-2.1c0-.5-.5-1-.2-1.4.1.2.5 1.4.2 1.4m1.8 1.8q0-.6-.6-1.1c0-.8.7-1 .5-1.8l.5.2c-.2 1.6-.7.8.7 1.8v.1l-1.1-.4c0 .3.3 1 0 1.2m-2.7-1c1.5-1-1.6-4.4 2-2.5.7 0 1.4 0 1.5 1-.6 1.4-.4.6.4 1.2v.1c-.6-.3-1 0-.8-.9.2-.2.5-.4 0-.8-.3-.3-2.2-.8-2.8-.8-.2.3 1.1 2.4-.3 2.8m2-2.6-1.2-.5h.2v-.2l.5.2v-.2q.4.3.6.7m-6 2.5q-1-.4-1.7-1.1zm-.5 0q-1.1-.4-1.8-1.2zm-2.7-1.1v-.2h.6v.2zm-.1.2h-.1 1zm-2.3.9.5-.2v-.1s.8-.9 1-.8c-.3.3 0 .2-.8.7q.6-.1 1-.7h.4c-.4.3-1 1-2.1 1m7 .2c.2-.4 1.4-.4 1.7 0zm1.7-1.3v-.4l-.2-.4.2.2.3-.1.2.4q-.2 0-.2-.3h-.2c0 .3.3.5-.1.6m-.8.8.1-.6.2-.6h-.2.2v-.5h.2v.5l-.1.4v-.1.2h.2l-.1.1-.2-.2v.5-.2l.1.2-.1.1-.1-.1zm-.4 0-.3-1.4h-.1l.1-.1v-.2l.2.3v.6h.2-.2c0 .1.2.8 0 .8m.1-1.7h.3l-.1 1.7c-.2-.6-.2-1.5-.2-1.7m0-.3v-.2h.3v.2zm0-.4v-.2h-.2v-.2h.3v-.3h.2v.3h.3v.2h-.3v.2zm-8.7 2.4h-.1v-.1zm-.1-.7v-.2h.1v-.2l-.2-.4v.1h.4l.2.4-.2-.4-.1.1v.4zm-.7.7v-.6h.1l.1-.5h-.1l.2-.6h.1v.5q-.3.5 0 .3v.2h.2l-.2.2-.1-.2v.3l-.1.3v-.2zm-.3-2.4v-.2h-.3v-.2h.3v-.3h.2v.3h.3v.2h-.3v.2zm0 .5v-.3h.2v.3zm-.2 2-.3-1.5v-.3h.1l.2.4h-.1.1v.2h-.1v.3h.2-.1c0 .1.2.8 0 .8m.2-.1v-1.7h.3l-.1 1.7zm6.1-1q-1.3-.2-2.6 0v-.3a5 5 0 0 1 2.7 0zm-.3-2.5v-.2zm.2.5v-.4h.2zm.2.1v-.2h.2l-.2-.6q-.2 0-.2-.4h.1l.1.1v.2q.3 0 .3-.3.4.3.5.8c-.2.1-.3-.4-.3-.5h-.2v.3l.2.3zm-.5 0v-.2l.2.1zm1 0-.1-.1h.3v.2zm-.3.3q0-.3.2-.2v.1zm-.7 0 .3-.2-.1.2zm.9.3v-.2h.1v-.2q.1.3-.1.4m-.5 0-.1-.1.1-.2h.1zm-.3.2h.2zm-.4.1.2-.4h.1v.2h-.2zm1 .3-.3-.2v-.2q.3 0 .2-.2h.2v.2h-.2zm-1 0 .4-.2v.2zm.7.1h-.2q0-.2.4 0zm-1.4-4.6v.4h-.3v.3h.3v.5h.3v-.5h.4v-.3h-.4v-.4zm.4 4.4c0-.6.2-2.2.6-2.4.1.2-.3 2.2-.6 2.4m-.6 0c-.2-.6-.6-2-.4-2.4.2.2.6 2.1.4 2.4m.3 0-.3-2.5q.3-.3.8 0l-.3 2.5zm-5.5 21.1v-.8h.2zm8.1 3.4c-.3-.8-1.4-1.6-1.6-2.2h.1c.2.8 1.8 1 1.7 2.2zm.4.8-.2-.2h.8q-.3.3-.6.2m.2.4h.4zm-1 .3c0-1-1.1-3-1-3.2q.5.9 1.2 1.7h-.1q0 .7.7 1v.4zm-5.4 0-.4-.4v-.2l.4.2z" fill="#a75e22" id="path151"/><g transform="matrix(1.8723 0 0 1.8717 234.4 -297)" fill="#ffffff" id="g203"><path d="M59.6 324.5q-.2-.2 0-.5v.1c0 .5.2 0 .4 0q0 .4-.4.4" id="path152"/><path d="M59.7 324q0-.5.3-.7 0 .3-.3.7" id="path153"/><path d="m58.8 323.9.5-1h.1c0 .2-.4.9-.6 1" id="path154"/><path d="M57.8 323.8q0-.5.2-.5l-.2.4.5-.1z" id="path155"/><path d="M58.2 323.3q.1-.4.6-.6-.1.5-.6.6" id="path156"/><path d="M57.6 322.2v-.1l.8-.2q-.3.3-.8.3" id="path157"/><path d="M56.8 321.7q-.4 0-.4-.4l.3-.1-.3.2.6.3z" id="path158"/><path d="m59.8 321.7-.1-.1v-.2.2z" id="path159"/><path d="m59.8 321.6.4-.2v.1z" id="path160"/><path d="M58.7 321.5h-.3v-.2l.4-.2-.2.2.3.1z" id="path161"/><path d="M59.7 321q-.4-.2 0-.3l-.1.2z" id="path162"/><path d="M57.3 321c-.3-.1-1-.2-1-.6h.6l-.5.1 1 .5" id="path163"/><path d="m60 321-.2-.1v-.1h.4v.1z" id="path164"/><path d="m60.1 320.4-.3-.2.4.1v.1z" id="path165"/><path d="m59.7 320.4-.2-.3c.4-.3.2.3.2.3" id="path166"/><path d="M57.3 320.2c-.3-.1-1.1-.4-1.2-.8l.8.1h-.6z" id="path167"/><path d="M57.5 318.5q-.6-.5-1-1.2l.2.2q.2.5.8 1" id="path168"/><path d="m58.4 317.7-1.2-1.6q-.2.6.3 1v.1q-.6-.5-.4-1.2h.1l1 1.3z" id="path169"/><path d="M58.8 322.1h-.1q0-.4.3-.4c-.1.2-.3 0-.2.3h.3z" id="path170"/><path d="M59.2 322.6v-.4h.1zh.3z" id="path171"/><path d="M59.8 322.9q-.1-.3.1-.4zl.2-.1q0 .3-.3.2" id="path172"/><path d="M59.8 319.4q-.3-.2-.2-.5c.1 0 .6.4.5.5l-.4-.3z" id="path173"/><path d="M60.3 322.1v-.3.2h.1v.1z" id="path174"/><path d="m60.4 322 .1-.4q.1.3-.1.3" id="path175"/><path d="m60.6 324.4-.2-.3.2.2.2-.2z" id="path176"/><path d="m61 322.3-.2-.2v.1z" id="path177"/><path d="M61.6 322.2h-.1v-.2zl.1-.2z" id="path178"/><path d="M61 322.2v-.3z" id="path179"/><path d="M61.6 322v-.2z" id="path180"/><path d="m60.4 323.2-.1-.3.1-.1v.3q.2 0 .3-.2 0 .3-.3.3" id="path181"/><path d="M61.2 323.3q-.2 0-.2-.3zl.1-.2z" id="path182"/><path d="m60.5 320-.3-.4s.5.4.4.5z" id="path183"/><path d="M59 318.8q-.4-.3-.2-.8l.2.3-.2-.1q0 .4.3.7" id="path184"/><path d="m58.6 319.5-.1-.4.5.2h-.4z" id="path185"/><path d="M58.6 320.2q-.4 0-.4-.4h.5l-.3.1z" id="path186"/><path d="M58.6 321q-.3-.1-.4-.4l.5-.1-.3.2.3.2z" id="path187"/><path d="M57.1 323.7v-.3h.1v.2" id="path188"/><path d="M58.6 324.3v-.6l.1.1v.4l.3-.2z" id="path189"/><path d="M63.2 329.8c-.6-.3-.2-1.8.3-2-.3.6-.7 1.1-.4 1.7z" id="path190"/><path d="M66.1 329.7q.4 0 .5-.3s0-.4.1-.2q.1.4-.4.5" id="path191"/><path d="M65.9 329.6q.6-.2.4-.9c.3.2 0 1-.4 1" id="path192"/><path d="M62 329.6c-.7-.6.1-1.6.7-1.8 0 .3-.9.4-.9 1.3l.2.4z" id="path193"/><path d="M61.2 329.2q0-.4.4-.7h-.3v-.1h.6z" id="path194"/><path d="M67 329q-.7-.8-1.7-1.3c.3.2 1.6.8 1.6 1.4" id="path195"/><path d="M62.3 329v-.2h.2v-.1h.1q0 .3-.3.2" id="path196"/><path d="M66.7 328.4q.4 0 .4-.3 0 .4-.3.3" id="path197"/><path d="M66.3 327.3v-.4.2l.2.1z" id="path198"/><path d="M61.7 327.2h.3z" id="path199"/><path d="M62 327.2v-.1" id="path200"/><path d="M62.1 326.7h.1l-.2-.1v-.1l.3.2z" id="path201"/><path d="m60.4 326.5.1-.2v.2" id="path202"/><path d="M61.4 326q0-.4.3-.4z" id="path203"/></g><path d="M354.5 312.7c-.7-1.5-3 .2-3.8-1.8v-7.6h7.5v7.7c-1 2-3.2 0-3.7 1.7" fill="#e21c2a" id="path204"/><path d="M354.7 311.8c-.1-.2-1.2-.3-1.5-.3v-.1l.4-.1q-.4-.4-.6-.4v.1c0 .2-.8.2-1 .2-.8-.3-.7-.6-.6-1.4q.3-.2.2-.5h.2c0 .5-.5 1.4.2 1.4l.2-2q.4-.5.2-1.3c-.3.5 0 1-.6 1.5v-.3l-.3.5v-.4l-.3.4.1-.5h-.3c1-2.1 1.1-1.6 1.8-1.5l.5-.3v-.4h.3l-.2-.2v-.1q-.3 0-.4.2h-.9l-.3-.2v-.2q-.2 0-.3-.3v-.5c1-.9.8-.3.9-1.7h.1v.2q.7 0 .4.7l.8.2-.2-.2v-.3q.5-.3 1.2-.3.4.4.1 1l-.5.1.4 1h.1v-.3q.1-.4.6-.7l-.2-.2.6-.2-.2-.4q.7 0 1.1.5h.4l-.2.2.4.1v.2h-.2v.5l.1 1c-.6.3-.7-.2-.7 0l.3 1.2.9-.1c.3.3-.3 2-.9 1.7 0-.8.5-.5.5-1.2l-.9.4.6 1.8q.2-.2.7-.2v.2l-.6.3v.2l.7-.1-.1.3-.6.1-.1.2h-.2l-.1-.2-.1.2h-.2q-.1-.2-.5-.2l-.4.6-.4-.1z" fill="#2c2c2b" id="path205"/></g><g fill="#ffffff" fill-rule="evenodd" id="g213"><path d="M354.4 311.5h-.2l.7-.2-.2.2z" id="path206"/><path d="M353.8 311.4v-.2l.2.1.1-.1h.2q-.1.3-.5.2" id="path207"/><path d="M355.3 311.4v-.2h.3z" id="path208"/><path d="m354.5 311.2.5-.1z" id="path209"/><path d="M353.7 311v-.3l-.4.2v-.3q.4 0 .4-.3h-.4l.1.2q-.2 0-.2-.3h.9v.1h-.2q-.3.4 0 .6z" id="path210"/><path d="m355.9 311-.2-.2.4-.1z" id="path211"/><path d="m354.7 310.8-.2-.2v-.2q.2 0 .2.3h.1l.3-.1-.3.2" id="path212"/><path d="m356.6 310.8.1-.2h-.4v.2l-.2-.3h.5q-.5 0-.9-.2v-.2h-.2v-.1l-.2-.1-.5-1.2-1-2.4q.5-.3.6.2h-.3l.8 2.5.7.1-.1-.2-.4-.2-.2-.9h.4v-.5h1q.2.4 0 .9l-.2-.2.8 2.8z" id="path213"/></g><path d="M352.9 310.7h-.3c-.4-1.3 1-2.4 1-1.3q.8.5.6.7c-1.4-.8-1.3.6-1.3.6" fill="#e21c2a" fill-rule="evenodd" id="path214"/><g fill="#ffffff" fill-rule="evenodd" id="g217"><path d="m354.4 310.5-.1-.2z" id="path215"/><path d="m355 310.4-.6-.3q-.1-.6-.6-.8 0-.3-.2-.5l.1-.5h.3l.1-.2-.5-.1c0 1-.4.7-1 1.1 0 .5-.3.8-.1 1.4q-.1.1-.4 0l.3-1.5c.1-.7.3-.6.2-1.1v-.5q0-.2-.2-.1l-.3.9-.3.2.1-.3q-.2 0-.3.3h-.1l.4-.7h-.2l-.2.5q.1-1.6 1.2-1l.7-.3.2.8.6.2.2.6h-.5v.1h.3q0 .3-.2.5.4.8 1 1.2z" id="path216"/><path d="M356.1 310.3q-.3 0-.3-.4 0-.2.3-.2-.5-.8-.8-1.7h.1c.1.6.9 1.5 1.1 2.2z" id="path217"/></g><path d="m355 310-.8-.8.3-.6z" fill="#e21c2a" fill-rule="evenodd" id="path218"/><g fill="#ffffff" fill-rule="evenodd" id="g226"><path d="M357 309.2v-.3q.5-.2.5-.9l-1 .2q.3-.5 1-.4l.1.1c-.1.7 0 .9-.6 1.3" id="path219"/><path d="m354.9 307.9-.3-1 .2-.1.1.6v.2l.2-.2v.5z" id="path220"/><path d="M354 307.7c-.3-.2-.6-1-.6-1.3h.2l.2.6h.1z" id="path221"/><path d="M356.5 307.7v-.2z" id="path222"/><path d="m356.2 307.2-1-.1c-.3-.3-.5-1-.3-1.2h.1v.3l.2-.1v-.1l1 .4-1-.2 1.2.5v.5z" id="path223"/><path d="M354.6 306.6q-.3-.6-.1-1.3l.1.6q.2.2 0 .1v.2h.1v.4" id="path224"/><path d="m357 306.4-.6-.5v-.7c-.4 0-.3.7-.3 1l-.8-.3c0-1.4.8-1.3 1.5-1v.5q.3.4.3 1z" id="path225"/><path d="M356.6 306.3q-.4 0-.4-.3z" id="path226"/></g><g fill-rule="evenodd" id="g236"><path d="m352.2 306.3-.4-.2q.6-.3.8-.8c-.3 0-.8.6-.6.5q-.3 0-.4-.2l.7-.7h-.1l-.6.5v-.2q.3-.4.8-.6-.2.8.7.7l.2.6-.5.3.3-.6q-.3.1-.4.6l-.2-.2q.3-.1.4-.5z" fill="#7092c6" id="path227"/><path d="m353.7 306.1-.3-.8.4.1v-.2h-.5l-.1-.4.6-.2z" fill="#ffffff" id="path228"/><g transform="matrix(1.8723 0 0 1.8717 234.4 -297)" fill="#ffffff" id="g235"><path d="m67 323.3-.1-.3.1.2q.3 0 .2-.3.1.3-.1.4" id="path229"/><path d="m67.2 322.3-.1-.2zv-.1z" id="path230"/><path d="M70.6 318.6c.2-.4.9-.6 1-1.1l-.6.4.6-.6q-.1 1-1 1.3" id="path231"/><path d="M70.9 317.2c0-.3.4-.7.2-1l-.5.7.5-1q.2.8-.2 1.3" id="path232"/><path d="M68.6 324.5q-.4-.2-.3-.4zq.2-.1.2-.5zm-1-.1q-.3-.2-.2-.5 0 .4.2.4l.2-.3s0 .5-.3.4m1.8-.2-.3-.3h.1q.4.5.3-.1h.1q.1.3-.2.4m.9-.5q-.3 0-.4-.3.1.2.4.3v-.3q.3.2 0 .3m-2.6-.5-.2-.3.2.2v-.3h.1zm3.1 0-.2-.2h.4l-.2-.3q.3.1.3.4zm-2.5-.3q-.2 0-.2-.3l.3.2v-.2zm.5-.4q-.2 0-.3-.2zv-.3q.3.1 0 .3m2.2-.1v-.1h.6l-.3-.3q.3 0 .4.3zm-3.2-.3-.1-.1zv-.2zm-.6 0v-.2zm2 0-.1-.1h.3v-.3.2zm-1.5-.2v-.2zm.5-.1h.2l-.1-.4.2.4zm2.8-.2h.5l.2-.2-.5-.2q.4 0 .6.2-.3.3-.8.2m-2.8 0-.2-.1v-.2zm1.3-.1.2-.2-.1-.1q.2 0 .2.2zm-1.1-.5.1-.1h-.1v-.2l.2.2zm-.3 0v-.2h.3v.1zm1.4-.2.3-.1-.3-.2c.5 0 .5.4 0 .3m1.7 0 .7-.2-.3-.1h.4q-.3.4-.8.4m-3.3-.4.4-.1zm.4 0 .2-.1v-.2h-.3.4q0 .2-.3.3m1.3-.2c0-.2.3-.4 0-.3v-.1l.3.1zm-2 0q0-.4.3-.4zm3.7-.2.6-.4h-.4l.6-.1c0 .2-.6.5-.8.5m-2.9-.6v-.2l.2-.2zm1.1 0 .1-.2-.3.1q.1-.3.5-.2 0 .2-.3.3m1.6 0q.2-.4.6-.7l-.6.2v-.1l.7-.3q-.2.5-.7.9m-1.8-1 .2-.4v.4-.1z" id="path233"/><path d="M66.6 322.4q-.2 0-.2-.2h.4z" id="path234"/><path d="M66.5 322v-.2h.2l-.2.3" id="path235"/></g></g><g fill="#ffffff" fill-rule="evenodd" id="g244"><path d="M355 305.8v-.1c.4-1 .3-.7.9-1.2v-.2q.6 0 .7.3h-.7c-.7.4-.8 1.2-.8 1.2" id="path236"/><path d="M356.7 305.7v-.3z" id="path237"/><path d="M354 305.3v-.4q.2 0 .3.3z" id="path238"/><path d="M352.8 305.2c-.7-.6-.3-2 0-1.2l-.1.3z" id="path239"/><path d="M353 304.7v-.2h.4z" id="path240"/><path d="M354 304.8q0-.4.4-.6l.2.1v.2l-.1.2z" id="path241"/><path d="M354.6 304.7q.3-.7-.4-.7 0 .2-.2.3v-.2c-.4.5-.3 0-.5 0q.5-.4 1.1-.3.4.3.1.8" id="path242"/><path d="M338.2 313.4q-1 .8-2 1.2c2.1.6 3.8.8 6.7.9q.3-.1.2-.4l-.3-1c-2.5 0-3-.4-4.6-.7" id="path243"/><path d="m344.4 314 .3.6.6-.1c.5.2.4.8.8 1q1 0 1.7-.3c0-.1.2-.7.1-.8h-.5q-.6 0-.6-.4z" id="path244"/></g><g fill-rule="evenodd" id="g260"><path d="M319.9 370.2q.2-.3.6-.5 1 0 1 1.3c.1 1-.6 1.4-1.1 1.2-.2.1-.7-1.8-.5-2" fill="#ffcc00" id="path245"/><path d="M320 369.2q.2 0 .3.3l-.4.2-.3-.2q0-.3.3-.3" fill="#ffcc00" id="path246"/><path d="m321.5 376-.4 1.1.9.9.6-1z" fill="#008ed1" id="path247"/><path d="m322.8 377.4-.5.8 1.2.5.3-.1z" fill="#ffffff" id="path248"/><path d="M321.3 375.8h-.9l-1.2 1q.9 0 1.4.3z" fill="#e21c2a" id="path249"/><path d="m323.6 381.7-.8.6.8 1.8q.8-.3 1.7 0-1.4-1-1.7-2.4" fill="#ffffff" id="path250"/><path d="M322.3 382.2h-.3l-.7-.5-.6.3c-.2 1 .7 2.8 1.3 3.6q.3-.7 1.2-1.4z" fill="#008ed1" id="path251"/><path d="m320.3 383-1 1q0 1.2.8 2.2l1.4-.6z" fill="#e21c2a" id="path252"/><path d="M338.2 384c1.1-1.2 2.5.1 1.2 1.2z" fill="#ffcc00" id="path253"/><path d="M359.8 386.2c.3-.6 1.8-1.2 2.8-1.3q-.5.8-1.2 1.5c.5-.1-1.6.4-1.6-.2" fill="#ffffff" id="path254"/><path d="m358.3 387.5 1-1q.7.3 1.6.4l-1 .9q-.7-.3-1.6-.3" fill="#e21c2a" id="path255"/><path d="M357.6 389.1c0-.2 0-1 .4-1.2q.8.2 1.5.1l-.8 1c-.5.3-.6.2-1.1.1" fill="#008ed1" id="path256"/><path d="M366.9 395.4q1.3 0 1.5.5-.1.5-1.5.6t-1.5-.6q.2-.5 1.5-.5" fill="#ffcc00" id="path257"/><path d="m358.5 390.4 4 1.7c1.4.9 3.4 2 4.7 3-.9-.2-2.2.4-2.4.8-2-1.6-4.2-3.8-6.3-5.5" fill="#ffcc00" id="path258"/><path d="M388.4 382.2q-.6 2-2.4 2.8c.2.2-.1.4.1.4l2 .5c.7 0 .5-3 .3-3.7" fill="#e21c2a" id="path259"/><path d="m313.5 355-.3 1-.1.9q.4.8 1 1.1 1.2 0 1.5 1.2.1.4.5.5c1 .2 1.2.3 1.5 1.6 3.7 1.6 6.7 3 9.6 6.7-1.5-4.4-4.2-5.2-7.6-7.5L318 359l-1.2-.9c-.4-.2-1.3-.6-1.6-1z" fill="#ffffff" id="path260"/></g><g fill="#ffcc00" fill-rule="evenodd" id="g266"><path d="M324.2 331c-.1-.6-.8-2 .3-2.9.2-.2.1-1 .2-1.2q-1.1-.8.1-2s-.2-.9 0-1.3c-.5-.4-1.5-.9-.6-1-.5-1.2.5-2.2 1.8-1.9 1-1.3 2.2-.3 1.5 1.8 1.4 1 .7 1.7 0 2.8 1.5 1.4-.8 2-.5 2.9l.2.9c0 .6-.9 1.2-1.6 1 0 0-1.7 2-2.5 2.7q-.6.6-.6.3c-.3-.3.6-1 1.7-2.1" id="path261"/><path d="M323.6 323c1.7.6.7 2.3-.1 3.1 1.9 1.5 0 2.1-.2 3 1 2.3-1.2 3-1.2 3.9 0 1.1-.6 1.7-.7 1.7-.3 0-.3-2-.3-2.3-.8-.5-1-1.6-.7-2.4-1.5-1-1.1-2.1-.7-3.4q-1.7-1.4-.2-2.8c-.3-1-.2-2.8 1.2-3 .8-3.8 1.8-.6 2-.6 1.4 0 1.2 2 .9 2.9" id="path262"/><path d="M313.6 323c-2.5-.8-1.2-1.2-1.8-2.7-1.1-.4-1.6-.8-.5-2.2-1.2-1-.7-2.5 1.5-1.6.8-.9 2.7.6 2.4 1.2 2 .2 2 1.4 1.8 3 .8 0 1.6 1 1.6 1.7.3.7.5.8.5 1.2q-.1.4-.5.8-.2.7 0 1.6c.2.2 1.1 1.9.1 1.9q-.3-.1-.4-.7 0-.4-.7-.7c-.6.2-1.9 0-2-.8l-.2-1q-2.2.4-1.8-1.7" id="path263"/><path d="M319.9 331c-.1.2.4 1.5.9 1.5v.5c.5 1.3-1-.4-1.4-.3q-1 .3-1.1-.7l-.7-.6c-.4-.2-1.5.3-2-.1-.8-.5-.5-1-1.2-1.5-.8-.5-2.4.9-2.4-.8l.2-1q-1.4-.5-1.4-1.7c0-1 1.5-1.4 2.2-.9l.8-.3c.5-.2 1.4-.1 1.3.7q.5.3.5.9c0 .1 2.7-.3 2.5 1.3.3.3 1 .2.9.7 0 .8 1.1 1 .9 2.4" id="path264"/><path d="m327.9 338.4-1 .6c-.4.2 0 1.2 0 1.4q-.1 1.3-.8 1.3-.3 0-.5-.3c-.9-1.1-3.3-3.6-3.3-4q.1-.8 1-1l.1-1.2q0-1 1.2-1l.5-.2c.8-1.7 3.2-2 2.7.3-.2.6-.6 1.3 0 1.8q.6.7.7 1.2 0 .7-.6 1" id="path265"/><path d="M313.9 339c.2.7 1 .4 1.5.4 1.6.2.5 1.7 1.4 2.1 1.1.5 1.9 1 1.2 2.6 0 .4.4 1 .7 1 1 .3 0 1.4.1 2.1.2 1.3.9.9.9 2q-.1.9-.6 1.2-.4.5 0 1.1c.1.4.6.7.3 1-.2.2-1-1-1.3-1-1.4 0-1-1-1-2.3q-1.2-1.8-2-1.4-1 .4-1.1-.3c.1-.5-.1-1.3-.7-1.5-2.3-.7 0-2.5-.7-3-.9-.4-1.4-1.4-.5-2.7-1.5-3 1.5-3 1.8-1.3" id="path266"/></g><g fill-rule="evenodd" id="g272"><path d="M326.6 345.5c-1.3-1.7-11.7-12.8-11.8-14.4.7.9 1.6.8 2.2.6a98 98 0 0 0 8.2 10c1.3 1.3 1.8 4.2 1.4 3.8" fill="#ffffff" id="path267"/><path d="M325.5 348.6c.5.8-.1 2.2-.2 2l-1-2-2.6-2.9-1.9-2c-2.4-2.6-3-3.2-3-3.8q-.4-1-1.6-1c-.8 0-1.5-1.7-1.7-3.2l-.2-2.1c0-.3 2.4 3.8 3.9 5.3 3 3 6.7 6.7 8.3 9.7" fill="#e21c2a" id="path268"/><path d="M322.5 341.3c.1.1 3.4 3.7 3.8 4.6l.3 1.2c0 1-.3 2.2-.4 2l-1.3-2.2c-1-1.8-2.8-3.5-3.6-4.3-1.5-1.8-6.7-7-7.8-9.4q0-1.7.8-3s.4 2.2 1.7 3.7l3.3 4z" fill="#008ed1" id="path269"/><path d="M323.6 348.4q.7.5.8 1.2-.7 1.2-1.5 2-.7.8-1.5 1.1-.1-.5-1.6-.8c.6-.3 1.6-.8 2-1.3z" fill="#008ed1" id="path270"/><path d="M322.5 347q.8.7.9 1.2l-2 2.3c-.8.6-1.7 1.3-1.8.8q.2-.8.7-1.4.1-.6.3-.6.8.3 2-2.2" fill="#ffffff" id="path271"/><path d="M324.6 350.2s-.2.5-1.7 1.8c-1 .8-2 1.6-1.1 1.6l.9-.2c.3 0 .8-.9.9-1.1q.5-.7 1-.8c.4 0 0-1.4 0-1.4" fill="#e21c2a" id="path272"/></g><path d="M318.1 356.5h.1v-.1" fill="none" id="path273"/><g fill-rule="evenodd" id="g500"><path d="m319.3 357.3-1.3-.4c-.2 0-1.5.6-1.4-.2-.7-1.7-1.4-.6-1.8-1l-1.3-2c-2.4 0-2.1-.6-2.5-1.8 0-.4-1-.3-1.1-.8q-.2-.6.2-1.3-.7-.6-.8-1.1-.1-.9 1-1.2c.3 0 1 .1 1.2.3.2-.4.5-1 1.1-.7s.4 1 1.1 1c2.4.2 2.8.3 2.8 2.8 0 1.3 3 .5 2 3-.4 2 2.9.9 2.3 1 .6.9-1.5 2.2-1.5 2.4" fill="#ffcc00" id="path274"/><path d="M326.6 351.5c1.6.3 0 2 .1 2.2q.4.7.2 1.3 0 .8-.9 1.2c-.6-.1-1.6.4-1.2.7s.2.6.3.9c.2.8-.8 1-1.3 1q-.2-.1-.6.4c-.3.5 0 .9 0 1.2 0 .7-.6.7-1 .9h-.5q-.5-.5-1.4-.8c-.7-.4-.8-.4-.8-1.5q0-1.5.7-2 .7-.1 1-1.2 0-2 1.7-2 .5 0 .7-.6.2-1 1-1.2h.8q.6-.5 1.2-.5" fill="#ffcc00" id="path275"/><g transform="matrix(1.8723 0 0 1.8717 234.4 -297)" fill="#2c2c2b" id="g285"><path d="M40 356v.3h1l-.4.5v.1l.8-.7 1.6.3v-.2l-.7-.2-.6-.7q-.3 0-.2.1 0 .3.3.5z" id="path276"/><path d="M42.6 351q0 1.5.6 2.8-.3 0-.6-.4-.2 0-.2.2.4.6 1 .9l.5 1-.6-.3q-.4 0 0 .3.2.4.7.4l.5.8q.3.1.3-.1-.4-.5-.6-1.2.3-.9.3-1.7-.1-.2-.2 0l-.2 1.2q-.5-1-.7-2l.3-1.5q0-.2-.2 0l-.3 1-.4-1.3q-.1-.1-.2 0" id="path277"/><path d="M40 359.7c.5-.1 1.7-.5 2.7-.5l-.7.7.1.2.8-1h1l-.2.3v.2l.6-.5h.5q.2 0 .1-.2l-3.3.2-.6-.5h-.2l.4.6q-.6 0-1.1.3-.7.3-.1.2" id="path278"/><path d="m47 361.2-1.3.3-2 .1v.3l1.3-.2-1.5 1q-1 .3-1.7.8-.2.2 0 .2l1-.4-.8.9q0 .3.2.1.4-.7 1.1-1v.9q0-.6.4-1.3l1.4-.9-.2.8h.4l.3-1 1.5-.4z" id="path279"/><path d="M49.4 364.1q.2 0 .1.2l-1 .8-.2 1.6H48l.2-1.3-1.2 1.1-.2 1.7q-.2.2-.2 0V367l-.9 1q-.2 0-.1-.2l1.5-2-1 .3q-.3 0 0-.2l1.4-.5z" id="path280"/><path d="m55 365.7-1.3 1-1.4.6q-.5.2 0 .2l.8-.2-.7.8-1.2.5v.2l.8-.1-.5.8q0 .3.2.1l.8-1 .2.7q0 .3.2 0l-.2-1L54 367v1q0 .4.3 0v-1.3l1-.7q.1-.3-.2-.3" id="path281"/><path d="M50.2 360q-.3 0-.2.2l1 1-1-.2v.2l1.4.5.7.8-.8-.1v.3l1.2.3.7.7-.9-.1q-.1 0 0 .2l1 .3.6.5q.3 0 .2-.2l-.7-1v-.9q-.3-.3-.4-.1v.6l-1-1v-1q0-.3-.3-.1.2.3 0 .8-.7-.9-1.5-1.6" id="path282"/><path d="M41.8 340.2h.3s.7 1.9.8 1c.2-1.4.4-.7.2.7l.8 1.5c.2.3.1-1 .5-.8.1 0-.4 1-.2 1.5.8 1.5.4 1.5.3 1.5l-.3-.6q-.5-1-1-1-.3-.3.3-.1c.7.4 0-.6-.7-1.8-.3-.4-1.3-.5-1.3-.9 0-.2 1 .5.9.3s-.7-1.1-.6-1.3" id="path283"/><path d="M41 345.2c0-.6 1 1 .6-.1-.2-.4.2-.8.4.5q0 .3.3.5c1 .8.7.7 1 .8s-.6-1.1-.2-1c.6.2 0 .8 1.2 2 1 1 .7 1 .5 1.2-.8-.9-.6-.8-2-1.3q-.2-.2.2-.2c1.5.3.7 0-.6-1-.3-.3-1.2 0-1.3-.3 0-.2 1.1.1 1 0-.3-.3-1.2-.9-1.2-1.1" id="path284"/><path d="M49 347q.4 0 0 .3s-1.2 1.1-.4.7c.3-.2 1.2 0-.6.4q-.4.1-.6.6c-.2.3-.6.7-.3.6.8-.1.7-.4.7 0 0 .2-.8 0-1.3.8-.7.9-.3.7-.6.6l.1-.4v-1q.1-.5.3 0c0 .8 0 .5 1-.8.1-.2-.4-.8 0-1 .3 0 .2.7.4.6.2-.2 1-1.4 1.4-1.4" id="path285"/></g><path d="M319.2 315.5q.9 0 1.2-.2.2.5.8.6a9 9 0 0 0-3.3 4.8l-.6-.3q.2-1 0-2 .6-1.3 2-2.9" fill="#ffffff" id="path286"/><path d="M321.5 316h.7l.2.6-1.6 2.6q-.4.7-.4 1.3-1 .2-1.4 2l-.3-1-.5-.6q.8-3.1 3.3-5" fill="#008ed1" id="path287"/><path d="M321 354q-.2.2-.9-.3l-.7-1c.5 0 2.1-.7 1.5 1.2" fill="#ffcc00" id="path288"/><path d="M319 353.1q-.3.6 0 1.4.6.5 1.4 0z" fill="#ffcc00" id="path289"/><path d="M313 357.3c.2.5.4.5.7.8l-.5.5c-.4.1-.4-.6-.2-1.3" fill="#008ed1" id="path290"/><path d="M314.7 356q.4 1 1.2 1.3c.2.3.6 0 .2-.7q-.6-.7-1.4-.5" fill="#008ed1" id="path291"/><path d="M316.4 357.6c.6.1 1.3-.6 2-.2q0 .8-.6 1.2-.5-.6-1.4-1" fill="#e21c2a" id="path292"/><g transform="matrix(1.8723 0 0 1.8717 234.4 -297)" fill="#2c2c2b" id="g300"><path d="M42.7 321.8c.4 0 1.6 1.9 2.3 2.3 0-.2-.4-1.9 0-1.4.3.5.2 1.7.4 2q1.5 2.3.8 1.8l-.6-.8-1.4-.5q-.4-.3 1.1.1c.3.1-.4-.9-1.4-2-.3-.3-1.2-.2-1.5-.5-.2-.2 1.2.2 1 0s-1-1-.7-1" id="path293"/><path d="M48.9 325.2c.8-1.4-.4 2.4-.1 2l.2-.2h.2q.8-.2-.6.7l-.2 1.2q-.3.4-.4 0c0-.3.4-1.4.3-1.6-.6-1.3-.3-1.8 0-.4.2.6.3-1 .6-1.8" id="path294"/><path d="M46.8 330.2c.1 0 .1 1.6.4 1.5l.2-.4q.2-.2-.2.7v1.2c0 .4.5-.2.3.1q-.4.7-.5 1.3c-.1 1.3-.3 1.2-.4 1v-.6l-.7-1.6c0-.2.4.3.5.5.6 1.4.4 0 .4-1.6 0-.4-1-1-.7-1.2.1-.1.6 1 .7.7s-.3-1.7 0-1.6" id="path295"/><path d="M49.3 330.7c-.2.7-.5 1.6-.1 1.2.5-.6 1-.5-.3.4l-.2.4q-.3.3-.2-.1c0-.2.4-.8.3-1q-.5-1.4.1-.6.2.2.2-.2.2-.5.2 0" id="path296"/><path d="M49 337.5c.3-.3.3 0 .2.1-.3.7-.7 1.5-.3 1.2.7-.4 1.3-.2-.4.4l-.4.7q-.3.1-.2-.2l.6-1.1c-.2-.7-.4-1.5.2-.7.2.3 0 .1.3-.4" id="path297"/><path d="M41.5 333.3q.6-.2 1.2.1c.4.2-.4-.8 0-.6l.2.3.3.4q.8.8 1.4 1.1c1 .6.6.7.4.7h-.2c-.5-.8-1.3-.4-1.6-.5l.6-.3c.5 0-.4-.6-.9-.5q-.6.3-1 .2c-.3-.2 1-.3.9-.5-.3-.2-1.5-.3-1.3-.4" id="path298"/><path d="M41.6 328.2c.6 0 1.5 1.7 1.9 2.2.1.3 0-1.7.2-1v1.3l1 1.8q0 .4-.2.3c-.6-1.3-1.2-.8-1.7-1.3q0-.2.4 0c1.2.5.4-.3-.5-1.7-.3-.4-1.1-.2-1.3-.5s1.1.3 1 0c0-.2-1-1-.8-1" id="path299"/><path d="M44.3 318c.6 0 1.6 2.2 2 2.7s-.2-1.8.2-1.2c.3.5 0 1.6 0 2q1.2 2.5.6 2l-.7-1.5-1.3-.8h.6c1 .6.4-.2-.5-1.6-.2-.4-1.3-.4-1.5-.7s1.4.3 1.3 0-1-.9-.7-.9" id="path300"/></g><path d="M396.2 334c-3.6 4-6.3 5.8-10.4 10.1-1.4 1.7-2.8 3.7-2.8 4.6l1.2 1.4c0-2.2 1.6-3.4 2.8-5 2.9-3 7.7-7.3 9.2-11" fill="#e21c2a" id="path301"/><path d="m395 330.6-1.7.5a32 32 0 0 1-5.5 6.2c-3.8 3.2-5.8 6.9-5.8 7.8v1.2a23 23 0 0 1 5.4-7.2c2.7-2.5 5.9-5.2 7.7-8.5" fill="#ffffff" id="path302"/><path d="M395.7 330.2c-.8 3.6-13.4 13-13.3 16.6l.3 1.3c2.2-5 9.6-10.4 13.4-14.6q.5-2.7-.4-3.3" fill="#008ed1" id="path303"/><path d="M384.7 349q-.2 1 0 1.6c0 .3 4.8 4.4 4.4 3.7V353c-1.6-.8-3-2.5-4.4-4.2" fill="#e21c2a" id="path304"/><path d="M385.3 347.6c-.2.9-.4.9-.4 1.1 0 .5 4.6 4.7 4.2 4v-1.5c-1.5-1-2.4-2-3.8-3.6" fill="#008ed1" id="path305"/><path d="M395 354.9c-.6 1-1.2 1.8-3 3-4.9 2.6-8.6 5.4-10.2 9.5 4-4 2.6-2.5 12.7-9.7.4-.4 1-1 .4-2.8" fill="#ffffff" id="path306"/><path d="m381 372.6.2-3.4c1.3-3.2 7.9-7.3 11-9.4l-.7.8-.3 2-.7.8c-3.3 2.2-8.5 4.7-9.4 9.2" fill="#008ed1" id="path307"/><path d="M381.3 373.1c.3-3.3 3-5.7 8.4-8.8-.1.6-.8 1.5-1.2 2.4q-.6 0-1 .7c-3.3 1.6-4.7 2-5.6 5.5l-.3 1.4z" fill="#e21c2a" id="path308"/><path d="M382.5 371.9c-1.1 2.4-.3 3.9 1.2 5.3l.2-.6s-1-1.2-.6-2.5c0-.4-.7-1.6-.8-2.2" fill="#e21c2a" id="path309"/><g transform="matrix(1.8723 0 0 1.8717 234.4 -297)" fill="#ffcc00" id="g452"><path d="M80.5 327.8q.4-.5.7-.4.1.2-.1.9-.3.5-.7.3z" id="path310"/><path d="M80.2 326.9q.4-.6.7-.4.1.3-.1.8-.4.6-.7.4-.1-.2.1-.8" id="path311"/><path d="M80 326q.4-.6.6-.4.1.3 0 .8-.5.6-.7.4-.2-.3 0-.8" id="path312"/><path d="M79.8 325q.2-.4.4-.3v.8q-.3.5-.5.3z" id="path313"/><path d="M79.1 324q0-.5.2-.6.3.1.4.8.1.5-.1.6t-.5-.7" id="path314"/><path d="M78.8 325v-.5q.4 0 .6.5.3.5 0 .6t-.6-.5" id="path315"/><path d="M79 326.2q-.5-.5-.2-.6t.7.4.1.6l-.7-.4" id="path316"/><path d="M79.2 327.3q-.5-.4-.3-.6.3 0 .8.3.5.4.2.6-.3 0-.7-.3" id="path317"/><path d="M79.5 328.3q-.4-.5-.2-.6t.7.2q.5.5.2.6t-.7-.2" id="path318"/><path d="M80.7 323.8q-.2-.6 0-.7.4 0 .6.6v.7q-.5 0-.6-.6" id="path319"/><path d="M80.9 322.7v-.7q.4 0 .7.6.1.6-.1.8-.4 0-.6-.7" id="path320"/><path d="M81.3 321.6v-.7q.4 0 .7.6.1.7-.1.8-.4 0-.6-.7" id="path321"/><path d="M81.6 320.5q-.1-.7.1-.8.4 0 .7.7.1.7-.1.8-.4 0-.7-.7" id="path322"/><path d="M81.8 323.5q.4-.3.6-.2.2.4-.3.7-.5.5-.6.2t.3-.7" id="path323"/><path d="M82.2 322.4q.4-.5.6-.2t-.3.7q-.5.5-.7.2t.4-.7" id="path324"/><path d="M83.3 325.1q.7-.1.7.1 0 .4-.7.6-.7 0-.7-.2t.7-.5" id="path325"/><path d="m82.6 326 .7.1q0 .3-.5.6H82q0-.4.5-.6" id="path326"/><path d="M82.3 327q.5-.2.6 0 0 .4-.6.6-.7 0-.7-.2t.7-.5" id="path327"/><path d="M84 324.2q.7-.1.8.1 0 .3-.7.5-.7.1-.7-.1t.7-.5" id="path328"/><path d="M84.5 323.2q.7-.1.7.2t-.7.6q-.7 0-.7-.2 0-.4.7-.6" id="path329"/><path d="M83.9 322.4q.4-.5.6-.3l-.1.8q-.4.6-.7.4-.1-.2.2-.9" id="path330"/><path d="M83 323.7q.1-.6.5-.5.2.1 0 .8 0 .6-.4.5-.2-.1-.1-.8" id="path331"/><path d="M82.3 324.6q.1-.6.5-.5.2.1 0 .8 0 .6-.4.5-.2-.1 0-.8" id="path332"/><path d="M81.7 325.6q0-.6.4-.6.3.1.2.7t-.3.6q-.2-.1-.3-.7" id="path333"/><path d="M81.2 326.6q.2-.5.5-.4t.1.7q-.1.5-.4.4-.2-.2-.2-.7" id="path334"/><path d="M82.5 321.2q.5-.5.7-.2t-.3.8q-.5.3-.7.2-.1-.3.3-.8" id="path335"/><path d="M83 320q.5-.4.8-.1 0 .3-.4.7-.5.5-.8.2-.2-.3.4-.7" id="path336"/><path d="M83.3 319q.4-.3.6-.2 0 .4-.3.7-.4.3-.6.2z" id="path337"/><path d="m82.7 318.4.5-.5q.3.3.1.8t-.5.5q-.2-.1 0-.8" id="path338"/><path d="M82.8 319.6q0 .5-.2.6t-.4-.7q0-.5.2-.6t.4.7" id="path339"/><path d="M78.8 332.4q-.5-.5-.3-.8.4 0 .8.3.5.5.3.8-.4 0-.8-.3" id="path340"/><path d="M78.8 331q0-.6.2-.7l.4.6q0 .6-.2.7z" id="path341"/><path d="M79.6 331.6q0-.6.3-.7t.3.7q0 .6-.4.7-.2 0-.2-.7" id="path342"/><path d="M79.4 339.9q-.3-.5-.2-.8.3 0 .8.3.5.5.2.8z" id="path343"/><path d="M79.3 338.8q-.3-.4-.2-.6.4-.1.7.2.5.5.2.7z" id="path344"/><path d="M79.2 337.3v-.7q.4 0 .6.5v.7q-.5 0-.6-.5" id="path345"/><path d="M80 337.8q0-.6.4-.6l.2.8q-.1.5-.4.5-.3-.1-.2-.7" id="path346"/><path d="M80.4 339q0-.6.3-.6.3.2.3.8t-.4.5q-.3-.1-.2-.7" id="path347"/><path d="M82 336.4q.5-.4.8-.3 0 .3-.3.8-.5.4-.7.3-.1-.4.3-.8" id="path348"/><path d="M83.8 335.4q.7 0 .6.3 0 .4-.7.4t-.7-.3.8-.4" id="path349"/><path d="M83.6 336.3h.3l-.4.6q-.6 0-.6-.3t.7-.3" id="path350"/><path d="M84.8 334.7q.7 0 .7.3t-.7.4-.7-.3.7-.4" id="path351"/><path d="M85.9 334q.5-.1.6.2t-.7.3q-.5 0-.6-.2 0-.4.7-.4" id="path352"/><path d="M86 333h.7q0 .4-.5.6-.5.3-.7 0 0-.2.5-.6" id="path353"/><path d="M82.1 335.2q.5-.4.7-.2t-.2.8q-.5.5-.7.2t.2-.8" id="path354"/><path d="M83.3 334.4q.5-.4.7-.3.1.3-.2.8-.5.4-.7.3-.1-.3.2-.8" id="path355"/><path d="M84.6 333.6q.4-.4.7-.3.2.4-.3 1t-.7.2.3-.9" id="path356"/><path d="M81.9 334.3q.4-.5.6-.2t-.2.8q-.5.4-.7.2t.3-.8" id="path357"/><path d="M82 333.1q.5-.5.7-.2t-.3.8q-.3.4-.7.2z" id="path358"/><path d="M83 331.9q.4-.6.6-.5.3.1.1.8-.2.6-.5.5-.3-.2-.1-.8" id="path359"/><path d="M83.9 330.8q.3-.6.5-.5.3.2.1.9t-.5.5-.1-.9" id="path360"/><path d="M84.7 329.8q.3-.6.5-.5.3.3.1.8t-.5.5 0-.8" id="path361"/><path d="M86 329.3q.6-.4.8 0 0 .3-.5.7t-.8 0q0-.3.5-.7" id="path362"/><path d="M85.6 330.5q.6-.1.8.2-.1.3-.8.5-.7.1-.8-.2.1-.3.8-.5" id="path363"/><path d="M84.7 331.5q.7 0 .8.2 0 .4-.8.6-.7 0-.7-.2 0-.4.7-.6" id="path364"/><path d="M84 332.5q.7-.1.8.2 0 .3-.7.5-.7 0-.8-.2 0-.4.7-.5" id="path365"/><path d="M82 332q.5-.5.7-.2t-.3.8-.6.2.2-.8" id="path366"/><path d="M82.1 330.8q.5-.4.7-.2t-.2.8q-.5.5-.7.2t.2-.8" id="path367"/><path d="M82.2 329.5q.5-.5.7-.2t-.2.8q-.5.4-.7.2t.2-.8" id="path368"/><path d="M81 328.6q.5-.4.8-.3 0 .4-.3.8-.5.4-.7.3-.2-.3.3-.8" id="path369"/><path d="M79.9 329.3q-.5-.4-.3-.6t.8.3q.5.4.2.6t-.7-.3" id="path370"/><path d="M82.4 337.2q.5-.4.7-.2v.1l-.8 1h-.2q0-.4.3-.9" id="path371"/><path d="M81 338q-.3-.4-.2-.7.3 0 .8.3.5.5.3.7t-.8-.3" id="path372"/><path d="M80.9 336.7q-.5-.5-.3-.7t.8.3.3.7q-.4 0-.8-.3" id="path373"/><path d="M81 335.6q-.6-.5-.3-.7t.8.2.2.7q-.3.1-.8-.2" id="path374"/><path d="M80 332.8q.3-.6.6-.5t0 .8q-.1.6-.5.5-.2-.2 0-.8" id="path375"/><path d="M80.7 334.3q-.3-.5 0-.7.4 0 .7.5t0 .7q-.4 0-.7-.5" id="path376"/><path d="M79.7 334.7q-.5-.4-.3-.6l.8.1q.5.3.3.7-.2.1-.8-.2" id="path377"/><path d="M79.2 333.6q-.5-.5-.3-.7t.8.2.3.7q-.3.1-.8-.2" id="path378"/><path d="M80 335.9q-.5-.3-.4-.6t.7 0q.5.1.4.5-.1.2-.7 0" id="path379"/><path d="M81 333.3q-.3-.5 0-.6t.5.5q.2.5 0 .6-.4 0-.6-.5" id="path380"/><path d="M81 332q0-.6.3-.7.4.1.4.8 0 .5-.3.6-.4 0-.4-.7" id="path381"/><path d="M81.3 330.5q0-.5.2-.6t.4.7q0 .5-.2.6t-.4-.7" id="path382"/><path d="M80.6 360.9q0-.6.4-.4.3.2.3.9 0 .5-.3.4-.3-.4-.4-1" id="path383"/><path d="M81.5 361.8q-.1-.7.2-.8.3 0 .6.7.1.6-.2.7t-.6-.6" id="path384"/><path d="M81.7 361q-.7-.4-.4-.7.3-.1 1 .1.5.3.4.6z" id="path385"/><path d="M80.5 360.5q-.3.5-.5.3-.1-.2.1-.7t.5-.4z" id="path386"/><path d="M82.9 360.7q-.6-.4-.5-.6h1q.7.4.4.6t-1 0" id="path387"/><path d="M82.6 362q-.2-.7.1-.9.4.1.6.8.3.7-.1.8-.4 0-.6-.7" id="path388"/><path d="M83.9 362.5q-.2-.6.1-.7t.7.7q.1.6-.2.7t-.6-.7" id="path389"/><path d="M84.1 361.5q-.7.1-.7-.1 0-.4.6-.6t.7.1q0 .4-.6.6" id="path390"/><path d="M85 361.8q-.5 0-.5-.3t.7-.3q.6 0 .6.3-.1.3-.7.3" id="path391"/><path d="M86 362.4q-.5-.3-.4-.5.3-.3.8 0 .6.1.5.4-.2.3-.9 0" id="path392"/><path d="M85 362.8q-.1-.8.2-.8t.7.7q0 .7-.2.8-.3 0-.7-.7" id="path393"/><path d="M81.4 360q-.5.4-.6.2t.4-.8q.5-.4.7-.2 0 .4-.5.8" id="path394"/><path d="M81.8 359q-.5 0-.5-.2t.6-.5q.6-.1.6.1 0 .4-.7.6" id="path395"/><path d="M82.6 358q-.7 0-.7-.2.1-.3.8-.6.7 0 .7.2-.1.3-.8.6" id="path396"/><path d="M81 357.6q0-.7.3-.6.3.2.2.9t-.3.6-.3-1" id="path397"/><path d="M80.2 358.4q0-.6.3-.5.4.1.5.9 0 .6-.4.5-.3-.1-.4-.9" id="path398"/><path d="M79.7 359q0-.5.3-.4t.3.7-.3.4-.3-.7" id="path399"/><path d="M81.5 356.7q0-.6.2-.7.3.2.5.8 0 .6-.3.7z" id="path400"/><path d="M82 355.6q0-.8.3-.7t.5.8q0 .7-.3.7-.4-.1-.4-.8" id="path401"/><path d="M82.8 354.5q0-.7.3-.7t.3.8-.3.7-.3-.8" id="path402"/><path d="M83.5 353.4q0-.6.4-.7.3.1.3.8t-.4.7q-.3-.1-.3-.8" id="path403"/><path d="M83 357q-.5.3-.6-.1.1-.3.8-.6.7 0 .6.2t-.7.6" id="path404"/><path d="M84 357.4q-.5-.3-.3-.5h.7q.5.4.3.6z" id="path405"/><path d="M84.5 356.7q-.5-.3-.3-.5.2-.1.8.1t.4.5q-.3.2-.9 0" id="path406"/><path d="M85.7 356.5q-.5-.2-.3-.5l.7.1q.6.3.4.5h-.8" id="path407"/><path d="M86.7 356q-.6 0-.5-.3t.7-.3q.5 0 .5.3z" id="path408"/><path d="M83.6 356.1q-.7.1-.7-.1.1-.4.8-.6t.7.2q-.1.3-.8.5" id="path409"/><path d="M85.1 355.6q-.4.5-.6.2l.4-.8q.4-.5.6-.2.1.4-.4.8" id="path410"/><path d="M86 355.6q-.4.3-.6.2 0-.4.4-.8t.6-.2q0 .3-.4.8" id="path411"/><path d="M84.2 355h-.6q0-.5.6-.7.7-.3.7 0 0 .4-.7.6" id="path412"/><path d="M85 353.7q-.7.4-.7.1t.5-.8q.5-.4.7 0 0 .3-.6.7" id="path413"/><path d="M85 352.6q-.3.5-.5.4-.1-.2 0-.8.2-.5.4-.4.1.3 0 .8" id="path414"/><path d="M82.5 359.7q-.5.5-.6.2t.4-.8q.4-.4.6-.2 0 .4-.4.8" id="path415"/><path d="M83.6 359.3q-.4.4-.6.3 0-.4.3-.9.5-.5.6-.2t-.3.8" id="path416"/><path d="M84.7 359q-.5.4-.6.2-.1-.4.2-.9.5-.5.6-.2t-.2.8" id="path417"/><path d="M85.5 358.9q-.4.5-.5.2t.2-.8.6-.2-.3.8" id="path418"/><path d="M83.7 360.3q-.5-.3-.4-.5h.8q.5.3.3.5z" id="path419"/><path d="M84.7 360.1q-.5-.2-.4-.5l.9.1q.5.3.4.5z" id="path420"/><path d="M85.6 359.8q-.6-.1-.4-.4h.8q.6.3.4.5h-.8" id="path421"/><path d="m86.1 359.2-.5-.1q.1-.3.8-.4.5 0 .5.2-.1.3-.8.3" id="path422"/><path d="M80.4 349.3q-.5-.1-.4-.5.3-.3 1-.1t.4.5-1 .1" id="path423"/><path d="M81.1 350.2q-.6-.2-.4-.5.3-.3 1-.2.7.3.4.5t-1 .2" id="path424"/><path d="M81.6 351q-.6.1-.5-.2t.7-.5q.6 0 .5.3-.1.4-.7.4" id="path425"/><path d="M79.6 348.4q-.6-.4-.4-.6.3-.3 1 0t.4.6z" id="path426"/><path d="M79.5 347q0-.8.2-.8.4 0 .6.7t-.1.7-.7-.7" id="path427"/><path d="M82.4 349.2q.4-.6.6-.4.2.4 0 1-.4.7-.7.4-.1-.4.1-1" id="path428"/><path d="M84.3 348.4q.5-.2.6 0 0 .6-.6.8t-.7 0q0-.5.7-.8" id="path429"/><path d="M84.4 347q.7-.2.7.1 0 .5-.7.9-.5.3-.6 0 0-.5.6-1" id="path430"/><path d="M83.7 347.2q0 .6-.2.5t-.5-.7.1-.5.6.6" id="path431"/><path d="M84 346q0 .5-.3.5t-.5-.7q-.1-.6.2-.5t.5.6" id="path432"/><path d="M82.8 345.5q.4.5.1.6t-.8-.4q-.3-.5 0-.6t.7.4" id="path433"/><path d="M82.3 344.4q.4.4 0 .6l-.7-.4q-.4-.5-.1-.6t.8.4" id="path434"/><path d="M83.3 345q-.2.3-.4.2-.3-.2-.1-.6 0-.4.4-.3.2.2 0 .6" id="path435"/><path d="M82.3 343.6q-.2.3-.4.2t0-.6q0-.3.3-.2t0 .6" id="path436"/><path d="M82.9 344q-.2.6-.4.4t-.1-.7q0-.6.4-.4.2.3 0 .8" id="path437"/><path d="M84.2 344.8q0 .6-.3.5-.4-.2-.3-.9 0-.6.3-.5.3.2.3 1" id="path438"/><path d="M84.8 343.7q0 .6-.4.5-.3-.2-.3-.9t.4-.5.3.9" id="path439"/><path d="M85.2 342.6q0 .5-.3.4t-.3-.7.3-.5q.3.3.3.8" id="path440"/><path d="M86 342.1q-.4.5-.6.3t.1-1q.4-.5.6-.2.1.4-.1 1" id="path441"/><path d="M83.6 348.4q0 .5-.2.5t-.5-.6q0-.5.2-.5t.5.6" id="path442"/><path d="M84.5 346q.6-.3.7 0 0 .5-.6.8t-.7 0q0-.5.6-.8" id="path443"/><path d="M85.5 345.9q.1-.6.4-.4.3.3 0 .9 0 .4-.4.3-.1-.2 0-.8" id="path444"/><path d="M86.4 346.5q.5-.1.6.1 0 .4-.6.6-.5 0-.6-.2 0-.4.6-.5" id="path445"/><path d="M86.3 347.4q.5 0 .4.3h-.8q-.6 0-.4-.2t.8-.1" id="path446"/><path d="M86.2 345.7q.2-.3.4-.2v.5q0 .3-.3.2t0-.5" id="path447"/><path d="M84.8 344.7q.5-.2.6 0 0 .5-.6.9-.5.3-.6 0 0-.5.6-.9" id="path448"/><path d="M85.3 343.6q.7-.3.7 0 0 .4-.6.8-.7.3-.7 0 0-.5.6-.8" id="path449"/><path d="M85.7 342.6q.4-.3.6 0-.1.4-.5.6-.5.3-.6 0 0-.4.5-.6" id="path450"/><path d="M81.6 348.5q.1-.6.5-.5.3.3.2 1t-.5.5q-.3-.4-.2-1" id="path451"/><path d="M80.7 347.7q0-.7.3-.6t.5.8q0 .7-.4.6t-.4-.8" id="path452"/></g><path d="m392 319-1.1 1.4.4.7 1-.9.4-.7z" fill="#004b95" id="path453"/><path d="m390.7 320.7-.5.6q.3.7-.4 1.8l1-.5.3-1.2z" fill="#e21c2a" id="path454"/><path d="m335.4 354.6-.8-.3.3-.6 1.8-.2.5-.7.8.2c1-.5 3 0 4.3.1l.3-1.1.5-.6.9-.3.1 1.8h.7l1-.4.8-.9 1-.3.5-1 .9-.2 1.8 1 1.5.7 1.4.4 1-.2 3 1 1.3 1.8.7 1.1 2.3.7 1 .4 1-.1 1 .6 1.2.3h1l1 .6 1.6.6 1.4.5 1.4 1.7-.7 1.2.4.5c0 .8-.8 1.8-1.4 2.7-.4 0-1 .4-1.5.1q.1.6-.1 1.1l1.4.3q.1.9-.2 1.6c-.7.3-1 .7-1.8.8q-.2.4 0 .7c1.2.3 2.1 0 3 0q.4.7 0 1.4l-.2.8v.9q-1 .5-2 .3 0-.3-.4-.6c-.4-.2-.6.3-1 0l.5 1.5-.5.7q-.8.4-1.7.4l-.2-.8-.8-.1-2.4.3h-1.2q-.4.1-.4-.4l.3-.7q-.6.2-1.2 0l-.5-.4-.7.2-.7-.5-.6.6c-.6.5-.5 1.2-.7 1.8q-1 .1-1.5-.4l-1.1-.1-.7.4-.5.3-.6-.8c0-.7-.6-.4-.7-.6-.3.3-.3.7-1 .7h-1l-.7.6-1.7-.2.2-.9-.9-.4-.2-.6-1 .7c-.9.3-.8-1-1.2-1.3q.4-1.1 2-1.6c.7-.8-.4-1.4-.9-1.4l-.9.5h-1.8l-1.4-.3-1.9-.1-.2-.6-1.6-.6-.4-.7-.6-.2c.2-.5-.4-.9-.6-1.3l1.1-.6c1-.9.9-1.8 1.3-2.4H337l-1-.7v-1l-.4-1-1.8.3c-.9-.3-.5-1.2-.7-1.8q-.8-.2-.6-1.2c-.3-.1-.8 0-.8-.5q.4-.7.2-1.5l1.1-.3 1 .2.6-.6z" fill="#2c2c2b" id="path455"/><path d="m335.9 354.3-1-.1.2-.3 1.7-.1.6-.5.7.2q.6-.4 1.6-.3v5.4H336v.7h-2.5q-.7-.3-.5-1.2l-.8-.3q.3-.6.2-1.3l1-.2.8.3.8-.8s1.1-1.4 1-1.5m5.5-1 1.2.2.2-1 .4-.7.5-.1.1 1.6h1l1-.3.9-.9 1-.4.6-1 .7-.1 1.8 1 1.3.6 1.4.4h1l3 .8 1.2 1.8.7 1 2.2.7 1.3.4 1-.1.7.5 1.7.4h.8l.5.5 1.7.6.5.1h-24.4v-.6h-4zm29.3 6.3.2.1 1.2 1.5-.7 1.2.4.6c0 .7-.8 1.5-1.3 2.4q-.7.1-1.4-.2a5 5 0 0 1-.4 2l1.6.3c0 .5.1.5-.2 1q-.7.4-1.8.7c0 .2 0 1.2.2 1.4 1.1.3 1.9 0 2.9 0v.6l-.4.9v1q-1 .6-1.5-.4l-1-.1c-.4-.2-.6.2-1 0l.7 1.7-.3.6c-.7.1-.5.5-1 .4l-.3-.8-1.5-.2-2 .3-1 .1c-.3.2.2-.6.2-.9l-.7-.4h-1.4l-.6-.4-.3.3-.8-.5-.8.5c-.6.4-.4 1.3-.6 2q-1 0-1.6-.6h-1l-.7.2-.3.4-.5-.9c-.3-.5-.8-.3-1-.5-.2.2-.2.7-1 .7l-.8.1-.7.6-1.2-.2.2-.6c-.3-.4-1.2-.3-1-1l-.6-.2-1 .4c-.8.3-.3-.4-.7-.8q.6-.9 2-1.5c.5-1.2-.9-2-1.3-1.7l-1 .5-1.7-.1-1.4-.2h-.4v-9.5h4v-.8zm-31 9.5-1.4-.5-.4-.6-.6-.2c.1-.5-.3-.6-.4-1l1-.6c1-.8.8-2.1 1.3-2.7l-1.8-.1-.8-.5-.3-1.5-.5-.6-1.6.2c-.8-.2-.6-.8-.7-1.4h2.4v.7h3.8z" fill="#ffcc00" id="path456"/><path d="M340 353.4h1.2v5.5h4v1.2h-4v9.8H340V360h-4v-1h3.9z" fill="#ffffff" id="path457"/><path d="M373.8 361.2v-.6h-1.5v-.4l1.5-1.4h.4v1.4h.5v.4h-.5v.6zm0-1v-1l-1.1 1zm1.3 0 .1-1.4h1.7v.4h-1.4v.5h.8l.7.1.2.6q0 .4-.2.6l-.9.2-.9-.1v-.5l1 .2.5-.1.1-.3-.1-.3h-1.5" fill="#ffffff" id="path458"/><path d="M360.6 328.2v8.5l8.2 12.2-14.8-.1 1.8-12.1V334l-1-1-.8 1v2.7l-5.4 12.1h-7l7.6-12.1v-8.5h-.6V326h1.6v1h1.1v-1h1.8v1h1v-1h1.8v1h1.1v-1h1.8v1h1.1v-1h1.5v2.3z" fill="#2c2c2b" id="path459"/><path d="m342.3 348.6 7.1-11.8h11l7.8 11.8z" fill="#ffcc00" id="path460"/><path d="m353.8 336.6-5.6 12.2h6.1l1.8-12.2z" fill="#2c2c2b" id="path461"/><g transform="matrix(1.8723 0 0 1.8717 234.4 -297)" fill="#ffcc00" id="g499"><path d="M61.7 333.4h.8v-.5h.8v.5h.7v-.5h.8v.5h.8v-.5h.7v.5h.8v-.5h.6v1h-6.6v-1h.6z" id="path462"/><path d="M64.3 336h.2l.1.2v.3H64v-.4z" id="path463"/><path d="M61.4 337.2h1.1v.6h-1Z" id="path464"/><path d="M66.1 337.2h1.2v.6H66Z" id="path465"/><path d="M62.6 337.2h1v.6h-1Z" id="path466"/><path d="M65.1 337.2h1v.6h-1Z" id="path467"/><path d="M63.2 337.9h.4v.6h-.4Z" id="path468"/><path d="M65.1 337.9h.4v.6H65Z" id="path469"/><path d="M64 336.5h-.8v.6h.4z" id="path470"/><path d="M65.4 336.5h-.8l.5.6h.3z" id="path471"/><path d="M62 337.9h1.1v.6H62Z" id="path472"/><path d="M65.6 337.9h1v.6h-1Z" id="path473"/><path d="M65.5 336.5h1.2v.6h-1.2Z" id="path474"/><path d="M63.1 336.5h-1v.6h1z" id="path475"/><path d="M61.4 337.9h.5v.6h-.5Z" id="path476"/><path d="M66.8 337.9h.5v.6h-.5Z" id="path477"/><path d="M66.8 336.5h.5v.6h-.5Z" id="path478"/><path d="M62 336.5h-.6v.6h.5z" id="path479"/><path d="M62 335.7h-.6v.7h.5z" id="path480"/><path d="M62.2 334.9h-.8v.7h.5v-.3z" id="path481"/><path d="M66.5 334.9h.8v.7h-.6v-.3z" id="path482"/><path d="M63.2 334.9h1v.7h-.8v-.3z" id="path483"/><path d="M65.5 334.9h-1.1v.7h.9v-.3z" id="path484"/><path d="M62.9 335.7h-.4v.7h.4z" id="path485"/><path d="M63.8 335.7h-.4v.7h.4z" id="path486"/><path d="M66.2 335.7h-.4v.7h.4z" id="path487"/><path d="M65.3 335.7h-.5v.7h.5z" id="path488"/><path d="M63.1 334.9h-.9l.3.4v.3h.4v-.3z" id="path489"/><path d="M66.4 334.9h-.8l.2.4v.3h.4v-.3z" id="path490"/><path d="M64 334.4h-.6v.4h.6z" id="path491"/><path d="M65.3 334.4h-.6v.4h.6z" id="path492"/><path d="M66.7 334.4H66v.4h.7z" id="path493"/><path d="M62.7 334.4H62v.4h.7z" id="path494"/><path d="M67.2 335.7h-.5v.7h.5z" id="path495"/><path d="M64 335.7v.4l.3-.3v-.1z" id="path496"/><path d="M64.7 335.7v.4l-.3-.3v-.1z" id="path497"/><path d="m64 336.6-.3.5v1.4-1.4l.5-.5z" id="path498"/><path d="m64.5 336.6.4.5v1.4h.1v-1.4z" id="path499"/></g></g><g fill="#d9dbdc" fill-rule="evenodd" id="g505"><path d="m338.2 313.4-1.9 1.2 1.7.4 1.4-1.4z" id="path500"/><path d="M328.6 306.4c-.6.2-.5.2-1 .7q.8.5.9 1.2c.5-.5.3-.3 1-.7z" id="path501"/><path d="m322.5 347.1-.8 1.6.6.8 1-1.3q-.2-.7-.8-1" id="path502"/><path d="m323 369-.5 1.4.9.9.5-1.7z" id="path503"/><path d="m381.1 305.5 1 .5q-.5 1-.5 1.9l-1-.8z" id="path504"/><path d="m373.2 313.3 1.8.4-1 .3-1 .3-1-.7z" id="path505"/></g><g fill="#004b95" fill-rule="evenodd" id="g509"><path d="m336 314.8-1.9 1.1c0 .5 1.1.6 2.2.8l1.5-1.4z" id="path506"/><path d="M329.6 308c-.6 0-.5.2-.7.4-.7 1.4-.3 2.5.3 2l1-.6q-.2-1-.6-1.9" id="path507"/><path d="m323.6 348.4-1.3 1.7.8 1.3c.4-.3 1-1.2 1.3-1.8-.1-.6-.3-.7-.8-1.2" id="path508"/><path d="m324.2 370-.6 1.6 1.3 1.9.8-1.9q-.6-.8-1.5-1.6" id="path509"/></g><path d="M354 336.8h1.9l-1.8 11.8h-5.5z" fill="#ffffff" fill-rule="evenodd" id="path510"/><g fill="#004b95" fill-rule="evenodd" id="g514"><path d="m385.3 347.7-.4 1 1.2 1.5.7-1z" id="path511"/><path d="M380.5 307.6q.9.3 1.1.8 0 1.6-.2 1.8l-1.4-.9z" id="path512"/><path d="M372.5 309q.8 0 1.7.3l-1.2 1.4-1.4-.6q-.8-.3-.2-.6z" id="path513"/><path d="m375.3 313.9 1.6.4c.2.6-1.2 1.2-2 1.5l-1.5-1.2 2-.7" id="path514"/></g><g fill="#b42c30" fill-rule="evenodd" id="g524"><path d="m333.8 316.3-1 .8c-.3.5.6 1 1.7 1.3l1.5-1.4z" id="path515"/><path d="M338.5 310.5q-.6.8-1.6 1.4l1.2 1.2 1-1c.5-.7-.1-1.5-.7-1.6" id="path516"/><path d="M329.3 310.7c0 .6.3 1.3-1.2 2.2l1 .9q.7-.4 1.3-1c.3-.4 0-2.2-.3-2.6z" id="path517"/><path d="M323.8 350.8c0 .5 0 .3-.6 1 .2.2 0-.2.4.5q.5-.6 1.1-.9.2-.5-.1-1.2z" id="path518"/><path d="M325 374q.5.6 1 1.6c.8-.8.3-2.5-.2-3.3 0 0-.4 1.4-.7 1.8" id="path519"/><path d="M382 373.7c0 .4 0 1.3.3 1.7q.3-1.4.7-2.2l-.5-1.3z" id="path520"/><path d="M384.7 349c0 .4-.3 1.3.1 1.9l.7.7q.3-.7.6-1-.5-1-1.4-1.7" id="path521"/><path d="M381.3 310.7c-.1.5.2 1.1 0 1.7-.5-.3-1.4-.8-1.7-1.2l.3-1.4c1.4 1-.5-.2 1.3.9" id="path522"/><path d="M370.8 309.8c.3.5 1.4.8 2 1.1l-1.2 1.4q-.7-.2-1.2-.7c-.7-.5 0-1.5.4-1.8" id="path523"/><path d="m376.8 315 .5.4q.1.9-.9 1.6l-1.2-1q.9-.4 1.6-1" id="path524"/></g><g fill-rule="evenodd" id="g529"><path d="m322.6 317-1 1.6q.8 0 1.1 1 0-1 .4-2-.1-.3-.5-.6" fill="#e21c2a" id="path525"/><path d="M351.5 310v.7q.8.6 1.5.3l-.3-.1q-.6.2-1-.3-.2-.3-.2-.7" fill="#ffffff" id="path526"/><path d="m355 309 .3 1 .6-.2.3.5h.3l-.2-.6-.2-.6-.4-.5h-.4l.3.5z" fill="#e21c2a" id="path527"/><path d="m356.9 310.5.8-.3v.1l-.4.1-.3.2z" fill="#ffffff" id="path528"/><path d="M356.8 311.2h.2l.7-.4h-.9z" fill="#ffffff" id="path529"/></g><g fill="#96a69b" fill-rule="evenodd" id="g533"><path d="m353.1 310.3-.1.3h-1l.3.2h.8z" id="path530"/><path d="m355.6 310.5-.3.2-1 .2.8.2-.1.5.6-.6z" id="path531"/><path d="m355.2 310.5.2-.4.6.3-.2.2-.3-.2z" id="path532"/><path d="m356 311 .3-.2.5.1-.2.1h-.3z" id="path533"/></g><g fill-rule="evenodd" id="g536"><path d="m383.3 370.6-.6.8q.2 1.3 1 2.4h.5q-.3-1.7-.9-3.3" fill="#008ed1" id="path534"/><path d="m393 326.6 1.5-.8v-.9l-.8.4s0 .7-.8 1.2q0 .2.2 0" fill="#273785" id="path535"/><path d="m391.8 327.9.7-1v-.1c-.2.1-1.9.3-2.2 0l-.3.2.2 1.6q.4-.8 1.6-.7" fill="#e21c2a" id="path536"/></g><path d="m388.9 326.9.5 3 .8-.1q.1-1.5-.4-3z" fill="none" id="path537"/><g fill-rule="evenodd" id="g549"><path d="m388.5 316.7.5 1 1.1-1.5z" fill="#004b95" id="path538"/><path d="m395.2 323.7.3-.2v1l-.8.9v-.7q.6-.3.5-1" fill="#ffffff" id="path539"/><path d="m386.9 316.4-.1.8c.7-.3 1.4-.3 1.2.7l-.4 1.2v.3q.8-.8 1.3-1.6l-.7-1.1z" fill="#e21c2a" id="path540"/><path d="m384.5 309.6 2 1.7-.4 1.8.4-.2q0-.6.3-1h.3l-.4 1q-.1.4-.6 1 0-.2-.4-.3l.3-1.2q0-.7-1-.6.4-1.4-.6-1.7s.2-.5.1-.6" fill="#004b95" id="path541"/><path d="m395 357.9-.3 1.9q-.9-.3-2.1-.2z" fill="#008ed1" id="path542"/><path d="m319.3 347.5 1.1-2.5 1 1q-1 1-1.6 2-.4 0-.5-.5" fill="#ffcc00" id="path543"/><path d="M320.7 334.5q.2.4.5.5l-.2 1.2-.5-.6z" fill="#ffcc00" id="path544"/><path d="m386 346.9 1.3 1.8-.2.4-1.5-1.7z" fill="#ececed" id="path545"/><path d="m383.3 370.5-.6.9.5 1.5q.1-.5.7-.8z" fill="#004b95" id="path546"/><path d="M341.6 382.3a4 4 0 0 0 0 2l1.1.1-.4-2z" fill="#b42c30" id="path547"/><path d="M342.8 382.5q0 1 .2 1.9l2 .4-.4-1.4z" fill="#004b95" id="path548"/><path d="M345 383.7q0 .7.4 1.2l2 .8-.4-1z" fill="#d9dbdc" id="path549"/></g></g></g></g><!-- app4joy --></svg>