<svg width="902.05" height="599.33" viewBox=".057 -9.623 902.05 599.33" id="svg672" xmlns="http://www.w3.org/2000/svg"><g id="g674"><path fill="#DA251D" id="rect1" d="M.1-9.6h899v599.3H.1z"/><path fill="#398FCA" id="rect2" d="M452.6-9.6h449.5v599.3H452.6z"/></g><radialGradient id="g" cx="180.32" cy="522.38" r=".4963" gradientTransform="matrix(2.8346 0 0 -2.8346 -56 1676.2)" gradientUnits="userSpaceOnUse"><stop stop-color="#fff" offset="0" id="stop105"/><stop stop-color="#fff" offset=".4588" id="stop106"/><stop stop-color="#1F1A17" offset="1" id="stop107"/></radialGradient><radialGradient id="f" cx="178.27" cy="522.38" r=".4963" gradientTransform="matrix(2.8346 0 0 -2.8346 -56 1676.2)" gradientUnits="userSpaceOnUse"><stop stop-color="#fff" offset="0" id="stop108"/><stop stop-color="#fff" offset=".4588" id="stop109"/><stop stop-color="#1F1A17" offset="1" id="stop110"/></radialGradient><radialGradient id="e" cx="204.05" cy="522.44" r=".4971" gradientTransform="matrix(2.8346 0 0 -2.8346 -56 1676.2)" gradientUnits="userSpaceOnUse"><stop stop-color="#fff" offset="0" id="stop145"/><stop stop-color="#fff" offset=".4588" id="stop146"/><stop stop-color="#1F1A17" offset="1" id="stop147"/></radialGradient><radialGradient id="d" cx="202" cy="522.44" r=".4971" gradientTransform="matrix(2.8346 0 0 -2.8346 -56 1676.2)" gradientUnits="userSpaceOnUse"><stop stop-color="#fff" offset="0" id="stop148"/><stop stop-color="#fff" offset=".4588" id="stop149"/><stop stop-color="#1F1A17" offset="1" id="stop150"/></radialGradient><radialGradient id="i" cx="156.03" cy="522.44" r=".4968" gradientTransform="matrix(2.8346 0 0 -2.8346 -56 1676.2)" gradientUnits="userSpaceOnUse"><stop stop-color="#fff" offset="0" id="stop185"/><stop stop-color="#fff" offset=".4588" id="stop186"/><stop stop-color="#1F1A17" offset="1" id="stop187"/></radialGradient><radialGradient id="h" cx="153.99" cy="522.44" r=".4968" gradientTransform="matrix(2.8346 0 0 -2.8346 -56 1676.2)" gradientUnits="userSpaceOnUse"><stop stop-color="#fff" offset="0" id="stop188"/><stop stop-color="#fff" offset=".4588" id="stop189"/><stop stop-color="#1F1A17" offset="1" id="stop190"/></radialGradient><g id="g673"><g fill="none" stroke="#1F1A17" stroke-width="1.0583" id="g14"><path d="M616.7 298.4a92 92 0 0 0 3.6-37.8c-1.3-6.1-4.6-13.4-6.9-13.4h-20l-1-5.8c-.7-6.5 1-18.6 2.8-22s7.3-11.7 11.8-16 9.5-13.3 10-19.3-1.2-11.4-6.5-14.5q-4.2-2.4-7.6-4" id="path2"/><path id="line2" d="m602.9 165.6-14-7.9"/><path d="M589 157.7q3.7-2.3 5.7-5a10 10 0 0 0-.2-10.6q-1.9-2.6-4.4-3.6l.6.1-1-.2-3.4-1c-8.3-2.4-26-7.6-31-9.3-8.4-2.8-18.3 13-35.2 26.2-21.4 16.7-36.2 20.5-36.2 20.5" id="path3"/><path id="line3" d="m483.9 174.8 34.6 4.6"/><path d="M518.5 179.4s19-5 33.4-17.8" id="path4"/><path id="line4" d="m551.9 161.6 19.2 13.9"/><path d="m571.1 175.5 2.1 1.6c2.6 2 5.6 1.4 9.3-.3v.1c.7 11.2-10.3 22-16.8 31.5s-6.2 32.5-5.2 39c1 6.3 4.1 23.6 13 24.4h-.3" id="path5"/><path id="line5" d="M573.2 271.8h1.1"/><path id="line6" d="M574.4 271.8h11.5"/><path d="M586 271.8q-.6 9.1-4.5 19.6a114 114 0 0 0-7.3 37.8c1.4 28.2 7.5 60 6.5 76.8-.4 5.7.7 23.3-10 30.6-10.8 7.2-21 14-27.7 21.7q-2.9 3.4-5 5.2" id="path7"/><path id="line7" d="m538 463.5-.5-9.6"/><path d="M537.5 454c0-6.5-9.7-16.9-36.2-6s-32.1 11.3-40.1 11.8q-10 .6-19.7 0c-8-.5-13.7-1-40.2-11.8s-36.2-.5-36.2 6" id="path8"/><path id="line8" d="m365.1 453.9-.4 9.6"/><path d="M364.7 463.5q-2.2-2-5-5.2c-6.8-7.7-17-14.5-27.7-21.7-10.7-7.3-9.7-24.9-10-30.6-1.1-16.8 5-48.6 6.4-76.8.3-6.6-2-24.4-7.3-37.8q-4-10.5-4.4-19.6" id="path9"/><path id="line9" d="M316.7 271.8h11.6"/><path id="line10" d="M328.4 271.8h1"/><path d="M329.4 271.8h-.2c8.8-.8 12-18 13-24.4 1-6.5 1.2-29.5-5.3-39s-17.5-20.3-16.8-31.5v-.1c3.7 1.7 6.7 2.3 9.3.3l2-1.6" id="path11"/><path id="line11" d="m331.5 175.5 19.2-13.9"/><path d="M350.7 161.6a90 90 0 0 0 33.4 17.8" id="path12"/><path id="line12" d="m384.1 179.4 34.7-4.6"/><path d="M418.8 174.8s-15-3.8-36.3-20.5c-16.9-13.3-26.7-29-35.2-26.2a1330 1330 0 0 1-34.5 10.3l-1 .2.8-.1q-2.5 1-4.5 3.6a10 10 0 0 0-.1 10.5q2 2.9 5.7 5" id="path13"/><path id="line13" d="m313.7 157.7-14 7.9"/><path d="M299.7 165.6q-3.4 1.6-7.6 4c-5.3 3-7 8.5-6.5 14.5s5.5 15.1 10 19.4 10 12.3 11.8 15.8a57 57 0 0 1 1.9 27.9h-20c-2.3 0-5.7 7.3-7 13.4-1.9 8.7.2 29.3 3.6 37.8 4.2 10.7 7.7 21.6 8.4 29.6 1.7 20-7.6 64.9-5.9 91 .8 12.5 7.3 31.7 20.5 40.6 9.6 6.5 18.1 14 23.5 20.2 7 8 14.2 13 24.7 14.5 9.4 1.4 16-.7 18-7l3.3-10.2c7.4.7 16 4.1 26 8 12.9 5.2 22.6 6.6 34 7.7 7.3.7 18.5.7 26 0 11.2-1 21-2.5 34-7.6 9.8-4 18.4-7.4 25.9-8.1l3.2 10.2c2 6.3 8.6 8.4 18 7a38 38 0 0 0 24.7-14.5c5.4-6.2 14-13.7 23.5-20.2 13.2-8.9 19.7-28.1 20.5-40.6 1.7-26.1-7.6-71-5.9-91 .7-8 4.2-18.9 8.4-29.6" id="path14"/></g><g stroke="#EB891B" stroke-width=".0762" id="g74"><path d="M537.5 454c0-6.5-9.7-16.9-36.2-6s-32.1 11.3-40.1 11.8q-10 .6-19.7 0c-8-.5-13.7-1-40.2-11.8s-36.2-.5-36.2 6l-.5 20.3 4.5 3.5c9.3-2.9 21 1.6 35.2 7.3 13 5.2 22.7 6.6 34 7.7 7.4.7 18.6.7 26 0 11.3-1 21-2.5 34-7.7 14.3-5.7 26-10.2 35.2-7.3l4.5-3.5z" fill="#FFF500" id="path15"/><path d="M537.5 454q0-.9-.2-1.6c-3-5.9-13.3-11.4-35.2-2.4-26.5 10.8-32.2 11.3-40.2 11.8-6.8.4-14.4.4-21.2 0-8-.5-13.6-1-40.1-11.8-22-9-32.3-3.5-35.3 2.4l-.2 1.5-.4 17 1 1.6 4.5 3.5c9.2-2.9 20.9 1.6 35.2 7.3 13 5.2 22.7 6.6 34 7.7a137 137 0 0 0 57.9-7.7c14.3-5.7 25.9-10.2 35.1-7.3l4.5-3.5 1-1.5z" fill="#DA251D" id="path16"/><path d="M537.5 454v-.6c-3.6-5.4-14-9.9-34.7-1.4-26.5 10.8-32.2 11.3-40.2 11.8-6.9.4-15.7.4-22.6 0-8-.5-13.7-1-40.2-11.8-20.6-8.5-31-4-34.6 1.4v.5l-.4 14.8 2 2 4.5 3.4c9.2-2.8 20.8 1.7 35.1 7.4 13 5.1 22.7 6.5 34 7.6 7 .7 14.8.7 21.8 0 11.3-1 21-2.5 34-7.6 14.3-5.7 26-10.2 35.2-7.4l4.5-3.5 2-2z" fill="#FFF500" id="path17"/><path d="M537.5 454.5c-4.1-5-14.5-8.5-34-.5-26.5 10.8-32.2 11.3-40.2 11.8-7 .5-17 .5-24 0-8-.5-13.7-1-40.2-11.8-19.5-8-29.9-4.5-34 .5l-.3 11.1 3 3.2 4.5 3.5c9.3-2.9 20.9 1.6 35.2 7.3 13 5.2 22.7 6.6 34 7.7 6.8.7 12.8.7 19.6 0 11.3-1 21-2.5 34-7.7 14.3-5.7 26-10.2 35.2-7.3l4.5-3.5 3-3.2z" fill="#DA251D" id="path18"/><path d="M383.5 458.4c.6-2-3.6-3-6.1-2.2s-6.1 2.9-8.9 1.6-3.2-2.6-3.4-3.9l-.7 15 13.1 9z" fill="#FFF500" id="path19"/><path d="M377.2 458.3c-2.5.9-6.1 2.9-8.9 1.6-2.4-1-3-2.3-3.3-3.4l-.6 12.3 13.1 9 5.7-18.3c-.8-1.4-4-1.9-6-1.2z" fill="#DA251D" id="path20"/><path d="M377 460.4c-2.5 1-6.1 3-8.9 1.7q-3.1-1.6-3.2-3.2l-.5 10 13.1 9 5.2-16.7c-1.2-1-3.9-1.4-5.7-.8z" fill="#FFF500" id="path21"/><path d="M376.8 462.6c-2.5.8-6.1 2.8-8.8 1.6q-3-1.5-3.2-3l-.4 7.6 13.1 9 4.6-14.7a7 7 0 0 0-5.3-.5z" fill="#DA251D" id="path22"/><path d="M292.1 169.6c-5.3 3-7 8.5-6.5 14.5s5.5 15.1 10 19.4 10 12.3 11.8 15.8c1.7 3.5 3.5 15.6 2.7 22S308 254 308 254s-3.3 17.2 3.7 17.4c4.8 0 12.7.4 16.7.5 9.5.3 12.8-18 13.8-24.4s1.3-29.5-5.2-39-17.5-20.3-16.8-31.5c.7-9.6 3.3-25.3-28-7.3z" fill="#FFF500" id="path23"/><path d="M340 247.4c1-6.5 1.3-29.5-5.2-39s-17.5-20.3-16.8-31.5c.4-5.9 1.5-14-4.8-15.3q-6.1.7-19 8c-5.2 3-7 8.5-6.4 14.5s5.5 15.1 10 19.4 10 12.3 11.7 15.8 3.5 15.6 2.8 22.1-2.3 12.5-2.3 12.5-3.3 17.3 3.8 17.4l13.9.3c8.6-1.2 11.4-18 12.3-24.2z" fill="#DA251D" id="path24"/><path d="M337.9 247.4c1-6.5 1.2-29.5-5.3-39s-17.5-20.3-16.7-31.5c.3-5.3 1.3-12.4-3.2-14.7q-5.9 1.4-16.3 7.4c-5.3 3-7 8.5-6.5 14.5s5.5 15.1 10 19.4 10 12.3 11.7 15.8 3.5 15.6 2.8 22.1-2.3 12.5-2.3 12.5-3.3 17.3 3.8 17.4l10.2.2c8.1-1.8 10.8-18 11.8-24.1z" fill="#FFF500" id="path25"/><path d="M335.8 247.4c1-6.5 1.2-29.5-5.3-39s-17.5-20.3-16.7-31.5c.3-4.7 1-10.8-1.9-13.8q-5.4 1.9-13.4 6.5c-5.3 3-7 8.5-6.5 14.5s5.5 15.1 10 19.4 10 12.3 11.8 15.8 3.5 15.6 2.7 22.1-2.2 12.5-2.2 12.5-3.4 17.3 3.7 17.4l6.3.1c7.9-2.1 10.5-18 11.5-24z" fill="#DA251D" id="path26"/><path d="M290.4 170.9s6-5.2 16.5-.8 17.4 11 22.5 7c5.6-4.3 12.2-10.5 12.2-10.5L326 150.7z" fill="#FFF500" id="path27"/><path d="M308.4 168.6c10.5 4.5 17.4 11 22.5 7 4-3 8.4-7 10.7-9L326 150.7l-29 16.5c2.8-.6 6.6-.6 11.4 1.4z" fill="#DA251D" id="path28"/><path d="M309.9 167.1c10.5 4.5 17.4 11 22.5 7a127 127 0 0 0 9-7.6L326 150.7l-26 14.7q4-.7 9.9 1.7z" fill="#FFF500" id="path29"/><path d="m326 150.7-23.1 13.1q3.5-.2 8.5 1.8c10.5 4.5 17.4 11 22.5 7 2.5-2 5.3-4.2 7.5-6.2z" fill="#DA251D" id="path30"/><path d="M319.6 161a31 31 0 0 1-11.6-8.4c-2.2-3.1-1.9-7.6.1-10.5s4.5-4 7.7-4.6l13.7-3.2 26.1 23.7-26.8 19.5c4.6-5.4-2-12.9-9.2-16.5z" fill="#FFF500" id="path31"/><path d="m355.6 158-26.1-23.7-13.7 3.2-3.3 1q-1.5 1-2.5 2.6a10 10 0 0 0-.2 10.5c2.2 3.2 6 5.5 11.7 8.3 6.9 3.5 13.3 10.6 9.6 15.9z" fill="#DA251D" id="path32"/><path d="m355.6 158-26.1-23.7-13.7 3.2q-1.2.2-2.3.6-.9.8-1.7 2c-2 2.8-2.3 7.3-.1 10.4s6 5.5 11.6 8.4c6.7 3.4 12.9 10.1 10 15.3z" fill="#FFF500" id="path33"/><path d="m355.6 158-26.1-23.7-13.7 3.2-1.2.3-1 1.2a10 10 0 0 0-.1 10.5c2.2 3.1 6 5.4 11.7 8.3 6.5 3.3 12.5 9.8 10.1 15z" fill="#DA251D" id="path34"/><path d="M329.4 271.8c-3.5-.1-4.6-2.8-4.4-5.1.1-2.4 1.5-4.5 2.8-6.5s3.2-4.9 2-8.9c-1-3.3-3-4.1-4.5-4.1h-9.8l-3.4 24.6z" fill="#FFF500" id="path35"/><path d="M322.8 266.7c.2-2.4 1.5-4.6 2.9-6.6s3.2-4.8 2-8.8c-1-3.3-3-4.2-4.5-4.2h-7.7l-3.4 24.7h14.7c-2.7-.5-4.1-3.2-4-5.2z" fill="#DA251D" id="path36"/><path d="M320.7 266.7c.2-2.4 1.5-4.6 2.9-6.6s3.2-4.8 2-8.8c-1-3.3-3-4.2-4.5-4.2h-5.6l-3.4 24.7h12.6c-2.8-.5-4.1-3.2-4-5.2z" fill="#FFF500" id="path37"/><path d="M311.9 138.6c5.9-1.7 10.9 2 14.2 3.7a85 85 0 0 1 21.5 16.3 88 88 0 0 0 36.5 20.8l34.7-4.6s-15-3.8-36.3-20.5c-16.9-13.3-26.7-29-35.2-26.2-6.6 2.2-35.4 10.5-35.4 10.5z" fill="#FFF500" id="path38"/><path d="M346.4 128.4c-5.6 1.9-21 6.4-29.3 8.7 4.4.1 8.2 2.7 10.9 4.1a85 85 0 0 1 21.5 16.4 88 88 0 0 0 36.5 20.7l28.3-3.8c-5-1.7-17.6-7-33.8-19.7s-25.9-27.5-34-26.4z" fill="#DA251D" id="path39"/><path d="m344.9 129-24.5 7.2c3.8.5 7 2.7 9.4 4a85 85 0 0 1 21.5 16.3 88 88 0 0 0 36.5 20.8l22.3-3c-6-2.3-17.4-7.7-31.7-19C362.6 143 353 128.6 345 129z" fill="#FFF500" id="path40"/><path d="m343.1 129.5-19.7 5.8c3.3.8 6.1 2.7 8.3 3.8a85 85 0 0 1 21.5 16.4 88 88 0 0 0 36.5 20.7L406 174c-6.4-2.7-16.8-8-29.7-18-15.5-12.3-25.1-26.6-33.2-26.5z" fill="#DA251D" id="path41"/><path d="M318.6 266.7c.2-2.4 1.5-4.6 2.8-6.6 1.4-2 3.2-4.8 2-8.8-1-3.3-3-4.2-4.5-4.2h-3.4l-3.4 24.7h10.5c-2.8-.5-4.1-3.2-4-5.2z" fill="#DA251D" id="path42"/><path d="M375.6 466.6c-6.2 1-9.2-.5-16-8.3s-16.8-14.5-27.6-21.7-9.7-24.9-10-30.6c-1.1-16.8 5-48.6 6.4-76.8.3-6.6-2-24.4-7.3-37.8a62 62 0 0 1-3.2-36.2c1-3.2 4.7-8.1 7.8-8h-36.5c-2.3 0-5.6 7.3-6.9 13.4-1.9 8.7.2 29.3 3.6 37.8 4.2 10.7 7.7 21.6 8.4 29.6 1.7 20-7.6 64.9-5.9 91 .8 12.5 7.3 31.7 20.5 40.6 9.6 6.5 18.1 14 23.5 20.2 7 8 14.2 13 24.7 14.5 9.4 1.4 16-.7 18-7 5.8-17.8 8.4-28.9 8.4-28.9-.7 2.8-1.6 7.2-7.9 8.2z" fill="#FFF500" id="path43"/><path d="M376 468.7c-7.6 1.2-11.3-1.3-18-9-6.4-7.3-16.1-14-26.4-20.9l-.8-.5c-11.4-7.7-10.5-25.9-11-32.2-1-16.3 5.1-48.7 6.5-76.9.3-6.6-2-24.4-7.3-37.8a62 62 0 0 1-3.2-36.2c1-3.2 4.6-8 7.6-8h-32c-2.3 0-5.6 7.3-7 13.4-1.8 8.7.2 29.3 3.6 37.8 4.3 10.7 7.7 21.8 8.4 29.8 1.7 20-7.7 65.2-6 90 .8 12.4 7.3 31.6 20.4 40.5 9.6 6.5 18.1 14 23.5 20.2 7 8 14.6 12 25 13.4 7 1 12.6-1.1 15.8-5q4.3-13.3 6.3-20.9-1.9 1.6-5.4 2.3z" fill="#DA251D" id="path44"/><path d="M376.3 470.8c-8.6 1.3-13-1.9-19.9-9.7a137 137 0 0 0-26.8-21c-12.2-8.2-11.4-27-11.9-33.8-1-16.2 5.1-48.9 6.4-77a115 115 0 0 0-7.2-37.9 62 62 0 0 1-3.3-36.2c1-3.1 4.5-7.8 7.6-8h-27.7c-2.3 0-5.6 7.3-7 13.4-1.8 8.7.2 29.3 3.6 37.8 4.3 10.7 7.7 22 8.4 30 1.7 20-7.8 64.6-6.2 88.8.8 12.5 7.3 31.7 20.4 40.6 9.7 6.5 18.2 14 23.5 20.2 7.1 8 14.8 10.7 25.3 12.2 6 .9 11-1.4 14.2-4.8l4.9-16a15 15 0 0 1-4.3 1.4z" fill="#FFF500" id="path45"/><path d="M376.6 472.9c-9.5 1.5-14.6-2.2-21.8-10.4-6-7-15.5-13.3-25.6-20.1l-.8-.5c-13-8.8-12.3-28.1-12.8-35.5-1-16.2 5-49 6.4-77.2.3-6.6-2-24.4-7.2-37.8a62 62 0 0 1-3.3-36.2c1-3 4.4-7.7 7.4-8h-23.3c-2.3 0-5.6 7.3-7 13.5-1.8 8.6.3 29.2 3.7 37.7 4.2 10.7 7.7 22.1 8.3 30.2 1.7 20-8 63.9-6.4 87.7.8 12.5 7.3 31.7 20.5 40.6a126 126 0 0 1 23.5 20.2c7 8 14.4 9.5 25 11a15 15 0 0 0 13.2-4.6l3.4-11.4z" fill="#DA251D" id="path46"/><path d="M519.1 458.4c-.6-2 3.6-3 6.1-2.2 2.5.9 6.2 2.9 9 1.6s3.2-2.6 3.3-3.9l.7 15-13 9z" fill="#FFF500" id="path47"/><path d="M525.4 458.3c2.5.9 6.1 2.9 8.9 1.6 2.5-1 3.1-2.3 3.3-3.4l.6 12.3-13 9-5.8-18.3c.8-1.4 4-1.9 6-1.2z" fill="#DA251D" id="path48"/><path d="M525.6 460.4c2.5 1 6.1 3 8.9 1.7 2.2-1 3-2.2 3.2-3.2l.5 10-13 9-5.3-16.7c1.2-1 3.9-1.4 5.7-.8z" fill="#FFF500" id="path49"/><path d="M525.8 462.6c2.5.8 6.1 2.8 8.9 1.6 2-1 2.8-2 3.2-3l.3 7.6-13 9-4.7-14.7a7 7 0 0 1 5.3-.5z" fill="#DA251D" id="path50"/><path d="M610.5 169.6c5.3 3 7 8.5 6.5 14.5s-5.5 15.1-10 19.4-10 12.3-11.8 15.8a58 58 0 0 0-.5 34.6s3.4 17.2-3.7 17.4c-4.8 0-12.7.4-16.7.5-9.5.3-12.8-18-13.8-24.4-1-6.5-1.3-29.5 5.2-39s17.5-20.3 16.8-31.5c-.7-9.6-3.3-25.3 28-7.3z" fill="#FFF500" id="path51"/><path d="M562.6 247.4c-1-6.5-1.2-29.5 5.3-39s17.5-20.3 16.7-31.5c-.4-5.9-1.5-14 4.8-15.3q6.1.7 19 8c5.3 3 7 8.5 6.5 14.5s-5.5 15.1-10 19.4-10 12.3-11.8 15.8a57 57 0 0 0-.5 34.6s3.3 17.3-3.7 17.4l-14 .3c-8.5-1.2-11.3-18-12.3-24.2z" fill="#DA251D" id="path52"/><path d="M564.7 247.4c-1-6.5-1.2-29.5 5.3-39s17.5-20.3 16.7-31.5c-.3-5.3-1.3-12.4 3.2-14.7q5.9 1.4 16.3 7.4c5.3 3 7 8.5 6.5 14.5s-5.5 15.1-10 19.4-10 12.3-11.7 15.8a59 59 0 0 0-.5 34.6s3.3 17.3-3.8 17.4l-10.2.2c-8.1-1.8-10.8-18-11.8-24.1z" fill="#FFF500" id="path53"/><path d="M566.9 247.4c-1-6.5-1.3-29.5 5.2-39s17.5-20.3 16.8-31.5c-.3-4.7-1.1-10.8 1.8-13.8q5.4 1.9 13.4 6.5c5.3 3 7 8.5 6.5 14.5s-5.5 15.1-10 19.4-10 12.3-11.7 15.8a59 59 0 0 0-.5 34.6s3.3 17.3-3.8 17.4l-6.3.1c-7.9-2.1-10.5-18-11.4-24z" fill="#DA251D" id="path54"/><path d="M612.2 170.9s-6-5.2-16.5-.8-17.4 11-22.5 7a209 209 0 0 1-12.2-10.5l15.7-15.9z" fill="#FFF500" id="path55"/><path d="M594.2 168.6c-10.5 4.5-17.4 11-22.5 7-4-3-8.3-7-10.6-9l15.6-15.9 29 16.5c-2.8-.6-6.7-.6-11.5 1.4z" fill="#DA251D" id="path56"/><path d="M592.7 167.1c-10.5 4.5-17.4 11-22.5 7-3.1-2.4-6.6-5.4-9-7.6l15.5-15.8 25.8 14.7q-3.8-.7-9.8 1.7z" fill="#FFF500" id="path57"/><path d="m576.7 150.7 23 13.1q-3.5-.2-8.5 1.8c-10.5 4.5-17.4 11-22.5 7l-7.5-6.2z" fill="#DA251D" id="path58"/><path d="M583 161a31 31 0 0 0 11.7-8.4 10 10 0 0 0-.2-10.5c-2-2.8-4.5-4-7.7-4.6l-13.6-3.2L547 158l26.9 19.5c-4.7-5.4 2-12.9 9-16.5z" fill="#FFF500" id="path59"/><path d="m547 158 26.2-23.7 13.6 3.2q1.8.3 3.4 1 1.4 1 2.4 2.6c2 2.8 2.4 7.3.2 10.5s-6 5.5-11.7 8.3c-6.8 3.5-13.2 10.6-9.6 15.9z" fill="#DA251D" id="path60"/><path d="m547 158 26.2-23.7 13.6 3.2q1.2.2 2.3.6 1 .8 1.7 2c2 2.8 2.3 7.3.2 10.4-2.2 3.2-6 5.5-11.7 8.4-6.7 3.4-12.9 10.1-10 15.3z" fill="#FFF500" id="path61"/><path d="m547 158 26.2-23.7 13.6 3.2 1.2.3 1 1.2c2 2.8 2.3 7.3.1 10.5s-6 5.4-11.6 8.3c-6.5 3.3-12.6 9.8-10.2 15z" fill="#DA251D" id="path62"/><path d="M573.2 271.8c3.5-.1 4.6-2.8 4.5-5.1s-1.5-4.5-2.9-6.5-3.2-4.9-2-8.9c1-3.3 3-4.1 4.5-4.1h9.9l3.3 24.6z" fill="#FFF500" id="path63"/><path d="M579.8 266.7c-.2-2.4-1.5-4.6-2.9-6.6s-3.2-4.8-2-8.8c1-3.3 3-4.2 4.5-4.2h7.8l3.3 24.7h-14.7c2.8-.5 4.1-3.2 4-5.2z" fill="#DA251D" id="path64"/><path d="M582 266.7c-.3-2.4-1.6-4.6-3-6.6s-3.1-4.8-2-8.8c1-3.3 3-4.2 4.6-4.2h5.6l3.3 24.7h-12.6c2.8-.5 4.1-3.2 4-5.2z" fill="#FFF500" id="path65"/><path d="M590.7 138.6c-5.8-1.7-10.9 2-14.2 3.7a85 85 0 0 0-21.5 16.3 88 88 0 0 1-36.5 20.8l-34.6-4.6s14.8-3.8 36.2-20.5c17-13.3 26.8-29 35.3-26.2 6.5 2.2 35.3 10.5 35.3 10.5z" fill="#FFF500" id="path66"/><path d="M556.2 128.4c5.7 1.9 21.1 6.4 29.3 8.7-4.4.1-8.2 2.7-10.9 4.1a85 85 0 0 0-21.5 16.4 88 88 0 0 1-36.5 20.7l-28.3-3.8c5-1.7 17.6-7 33.9-19.7 16-12.6 25.8-27.5 34-26.4z" fill="#DA251D" id="path67"/><path d="m557.8 129 24.4 7.2c-3.8.5-7 2.7-9.4 4a85 85 0 0 0-21.5 16.3c-14.6 15.1-36.5 20.8-36.5 20.8l-22.2-3a125 125 0 0 0 31.6-19c15.8-12.3 25.4-26.8 33.6-26.4z" fill="#FFF500" id="path68"/><path d="m559.5 129.5 19.8 5.8c-3.3.8-6.2 2.7-8.3 3.8a85 85 0 0 0-21.5 16.4 88 88 0 0 1-36.5 20.7l-16.4-2.2c6.4-2.7 16.8-8 29.7-18 15.6-12.3 25.2-26.6 33.2-26.5z" fill="#DA251D" id="path69"/><path d="M584 266.7c-.1-2.4-1.5-4.6-2.8-6.6s-3.2-4.8-2-8.8c1-3.3 3-4.2 4.5-4.2h3.5l3.3 24.7H580a5 5 0 0 0 4-5.2z" fill="#DA251D" id="path70"/><path d="M527 466.6c6.2 1 9.2-.5 16-8.3s16.9-14.5 27.6-21.7 9.7-24.9 10-30.6c1.1-16.8-5-48.6-6.4-76.8-.3-6.6 2-24.4 7.3-37.8a62 62 0 0 0 3.2-36.2c-1-3.2-4.7-8.1-7.8-8h36.5c2.3 0 5.6 7.3 7 13.4 1.8 8.7-.3 29.3-3.7 37.8a117 117 0 0 0-8.4 29.6c-1.7 20 7.6 64.9 5.9 91-.8 12.5-7.3 31.7-20.5 40.6-9.6 6.5-18 14-23.5 20.2-7 8-14.2 13-24.7 14.5-9.4 1.4-16-.7-18-7-5.8-17.8-8.4-28.9-8.4-28.9.8 2.8 1.6 7.2 7.9 8.2z" fill="#FFF500" id="path71"/><path d="M526.7 468.7c7.5 1.2 11.2-1.3 17.9-9a136 136 0 0 1 26.5-20.9l.7-.5c11.5-7.7 10.6-25.9 11-32.2 1-16.3-5.1-48.7-6.4-76.9-.3-6.6 1.9-24.4 7.2-37.8a62 62 0 0 0 3.3-36.2c-1-3.2-4.7-8-7.7-8h32c2.3 0 5.7 7.3 7 13.4 1.9 8.7-.2 29.3-3.6 37.8a118 118 0 0 0-8.4 29.8c-1.7 20 7.7 65.2 6 90-.7 12.4-7.2 31.6-20.4 40.5-9.6 6.5-18.1 14-23.5 20.2-7 8-14.6 12-25 13.4-7 1-12.6-1.1-15.8-5q-4.4-13.3-6.3-20.9 1.8 1.6 5.5 2.3z" fill="#DA251D" id="path72"/><path d="M526.3 470.8c8.6 1.3 13.1-1.9 19.9-9.7a137 137 0 0 1 26.8-21c12.2-8.2 11.5-27 11.9-33.8 1-16.2-5-48.9-6.4-77-.3-6.7 2-24.5 7.2-37.9a62 62 0 0 0 3.3-36.2c-1-3.1-4.5-7.8-7.5-8h27.7c2.2 0 5.5 7.3 6.9 13.4 1.8 8.7-.2 29.3-3.6 37.8-4.3 10.7-7.7 22-8.4 30-1.7 20 7.8 64.6 6.2 88.8-.8 12.5-7.3 31.7-20.4 40.6-9.6 6.5-18.1 14-23.5 20.2-7 8-14.8 10.7-25.3 12.2a16 16 0 0 1-14.2-4.8l-4.9-16q1.9 1 4.3 1.4z" fill="#FFF500" id="path73"/><path d="M526 472.9c9.5 1.5 14.6-2.2 21.8-10.4 6-7 15.6-13.3 25.6-20.1l.8-.5c13-8.8 12.3-28.1 12.8-35.5 1-16.2-5-49-6.4-77.2-.3-6.6 2-24.4 7.3-37.8a62 62 0 0 0 3.2-36.2c-1-3-4.4-7.7-7.4-8H607c2.3 0 5.6 7.3 7 13.5 1.8 8.6-.2 29.2-3.6 37.7a120 120 0 0 0-8.4 30.2c-1.7 20 8 63.9 6.4 87.7-.8 12.5-7.3 31.7-20.4 40.6-9.7 6.5-18.2 14-23.5 20.2-7.1 8-14.5 9.5-25 11a15 15 0 0 1-13.2-4.6l-3.5-11.4z" fill="#DA251D" id="path74"/></g><g stroke-linejoin="round" id="g82"><path d="M416.9 119c-.6-13-2.7-27.5-7.4-46.6a79 79 0 0 1 30.7 38.3l-7 41.4q-7.4-17.2-16.3-33z" fill="#E77817" stroke="#E77817" stroke-width=".1764" id="path75"/><path d="m439.3 112.5-6.1 38.8c-3.2-6.5-9-18.3-14-29-.6-12-3.7-33.1-6.2-45 9.4 7.7 20.5 19 26.3 35.2z" fill="#F8C300" stroke="#F8C300" stroke-width=".0762" id="path76"/><path d="M485.2 119c.6-13 2.6-27.5 7.4-46.6a79 79 0 0 0-30.8 38.3l7 41.4q7.4-17.2 16.4-33z" fill="#E77817" stroke="#E77817" stroke-width=".1764" id="path77"/><path d="M463.3 112a446 446 0 0 0 6.2 39c3.2-6.7 9-23 12.7-29.4a189 189 0 0 1 6.6-43.5 93 93 0 0 0-25.5 34z" fill="#F8C300" stroke="#F8C300" stroke-width=".0762" id="path78"/><path d="M394 190a220 220 0 0 1 114.6 0l4.7-17.4a202 202 0 0 0-124.8 0z" fill="#FFF500" stroke="#E77817" stroke-width=".1764" id="path79"/><path d="M505.8 185.4c.7-2.8 3-10.2 2.5-10.3a207 207 0 0 0-114.7 0h-.1l.2.7 3 9.6q54.5-13.2 109.1 0z" fill="#F8C300" stroke="#F8C300" stroke-width=".0762" id="path80"/><path d="M388.5 172.2c-7-28-19.3-48.7-33.1-67.6a63 63 0 0 1 49 45.6 344 344 0 0 0-22.1-62.7c24.3 15 42.2 36.3 50.8 66.5 5.4-30.3 10.6-61 15-93.4-9.2-.6-11-12.5-1.8-13 .1-13.2 10-14.7 10 0 8 1.7 7 13-1.8 13 4.4 32.3 9.6 63 15 93.4a112 112 0 0 1 50.9-66.5 344 344 0 0 0-22.1 62.7 63 63 0 0 1 49-45.6 187 187 0 0 0-33.2 67.6 217 217 0 0 0-125.6 0z" fill="#FFF500" stroke="#E77817" stroke-width=".53" id="path81"/><path d="M436 159.6a2576 2576 0 0 0 15.2-92.4l.1-.5v.5q7 46.3 15.2 92.4-15.2-.9-30.4 0zm15-102.3-4.4-1-1.2-.8-.8-1-.3-1v-.8l.2-.4.6-.4 4.9-1 .7-6.8.7-2.1.6 1.7.6 6.6 4 1.7.7.6.4.8v1l-.2.8-.6.7-.9.5zM471.8 160a119 119 0 0 1 39.4-61.5 423 423 0 0 0-20 64.1q-9.8-1.7-19.4-2.6zm25.8 4c7-20.7 15.3-43.7 38.5-51.8l1.2-.5a194 194 0 0 0-25.7 54.2l-.4 1.4q-6.7-2-13.6-3.4zm-67-4q-9.7 1-19.3 2.6a416 416 0 0 0-20-64.1 119 119 0 0 1 39.3 61.5zm-25.8 4-1.9.3-11.7 3a190 190 0 0 0-26-55.6c23.4 9 32.3 30.9 39.6 52.2z" fill="#F8C300" stroke="#F8C300" stroke-width=".0762" id="path82"/></g><path d="M337.8 174v230c0 26.1 16 29.2 26.2 29.2h63.3c11.5.1 22.3 8 24 24.4 1.7-16.1 12.4-24.4 24-24.4h63.4c10.3 0 26.1-4 26.1-28.6V174z" fill="#0093DD" stroke="#1F1A17" stroke-linejoin="round" stroke-width=".8" id="path83"/><g stroke-linejoin="round" stroke-width=".0762" id="g92"><path d="M446.4 199.7q-7.2.9-14-3.5c-3.4-2.2-9-2.6-11.2 0-3 3.6 1.2 8.5 6.8 7.8 1.4 4 5.7 5 10.9 3.7q3.8-1 7.8-3.7-.5-2.2-.3-4.3z" fill="#AAA9A9" stroke="#1F1A17" id="path84"/><path d="M434 197.7c-2.4-1.3-4.2-2.4-6.9-2.7q-2.3-.2-4.3.7-1.9 1-2 2.9c.5 3.8 4.9 5.1 7.6 4.9 1.2 3.1 3.3 4.3 7.2 4.2q5.6-.6 10.3-3.8l.2-.1q-.4-1.7-.4-3.3v-.2h-.2c-4 .5-8-.7-11.6-2.7z" fill="#fff" stroke="#AAA9A9" id="path85"/><path d="M444.4 202.7q-8.7-1.2-16.1 1.4l-1.1-.2q3.3-1.1 7-1.6a26 26 0 0 0-14-3.4q0-.3.2-.4 7.4 0 13.8 3.8 4.8-.5 10.2.4zm1.7-2c-2.9.4-6.4.8-9.2-1q-3.1 1-6.5-1.3-4.1-3.1-8.7-2.6 4.7-.6 9 2.3 3.2 2.5 6.2 1.5c2.9 2.2 6.2 2 9.2 1z" fill="#1F1A17" stroke="#1F1A17" id="path86"/><path d="M446.4 199.6q0-.4 1-1c-1.2-1-2.4-2-3.6-2q0-2.7-3-4.8l1.2-3.2-1.4 2.7-1.1-3q1 7.3 6.9 11.3z" fill="#AAA9A9" stroke="#1F1A17" id="path87"/><path d="M443.5 196.7c0-2-.9-3.2-2.4-4.5l-.4-.2c.7 1.6 1.6 3.5 2.8 4.7zm.2.2q1.2 1.3 2.5 2.3l.7-.6c-1-.8-1.9-1.7-3.2-1.7z" fill="#fff" stroke="#AAA9A9" id="path88"/><path d="M447.1 205.9c-5.3 1-11.6 3-14.1 9.8a7 7 0 0 1-2.5 3.7q1.4 0 2.7-2.4.4 1.5.9 2.3-.4-1.4-.5-3.6 3.2-.4 3.3-4.9c2 1.8 3.3.6 4.3-2.1 1.7 1.6 4-.1 6.2-2.3z" fill="#AAA9A9" stroke="#1F1A17" id="path89"/><path d="M437 210.5c2 1.6 2.9.6 3.8-1.5l.3-.8c2.2 1.9 4.2-.2 6-1.9l-.1-.1q-3 .6-5.9 1.7-2.2 1-4.2 2.6zm-.4.2v.2a14 14 0 0 0-3.1 4.3l-.1.3q2.4-.3 3-2.8v-.4l.2-.5z" fill="#fff" stroke="#AAA9A9" id="path90"/><path d="M448.9 208q-6.4 1-11.2 7.5c3.1 1.8 2 3.2-1.2 4.5q.3 3-.6 5.2c2 .7.8 2.2-.3 3.9q1.2-.7 2-2.8.7 2.4 2 2.8c-.8-.6-1.5-1.4-1.5-3.5q1.3-2.7 2.2-7.4 3-7.6 9.2-9.6z" fill="#AAA9A9" stroke="#1F1A17" id="path91"/><path d="M437.3 226.3v.1l.4-.9.2.7v-.6q1.3-3.3 2-6.9.5-1.7 1.4-3.2 2.5-5 7.6-7v-.1c-4.5.8-7.9 3.4-10.7 6.9v.1l.2.2c1 .7 1.8 1.5 1.1 2.8l-.2.3q-1.2 1-2.5 1.4c0 1-.6 5-.1 5.2q.5.4.6 1z" fill="#fff" stroke="#AAA9A9" id="path92"/></g><g stroke-linejoin="round" stroke-width=".0762" id="g101"><path d="M457.9 199.7q7 .9 14-3.5c3.3-2.2 9-2.6 11.1 0 3 3.6-1.2 8.5-6.8 7.8-1.4 4-5.7 5-10.8 3.7q-4-1-7.9-3.7.5-2.2.3-4.3z" fill="#AAA9A9" stroke="#1F1A17" id="path93"/><path d="M470.3 197.7c2.3-1.3 4-2.4 6.8-2.7q2.3-.2 4.3.7 1.9 1 2 2.9c-.5 3.8-4.9 5.1-7.6 4.9-1.2 3.1-3.3 4.3-7.2 4.2q-5.6-.6-10.3-3.8l-.2-.1q.9-1.2.4-3.3v-.2h.2c4 .5 8-.7 11.6-2.7z" fill="#fff" stroke="#AAA9A9" id="path94"/><path d="M459.8 202.7q8.8-1.2 16.1 1.4l1.1-.2q-3.3-1.1-7-1.6c4.7-2.3 9.3-3.8 14-3.4q0-.3-.2-.4-7.4 0-13.8 3.8-4.7-.5-10.2.4zm-1.7-2c2.9.4 6.4.8 9.2-1q3.2 1 6.5-1.3 4.2-3.1 8.7-2.6-4.6-.6-9 2.3-3.1 2.5-6.2 1.5c-2.8 2.2-6.2 2-9.2 1z" fill="#1F1A17" stroke="#1F1A17" id="path95"/><path d="M457.9 199.6q-.2-.4-1-1c1.2-1 2.3-2 3.5-2q0-2.7 3-4.8l-1.2-3.2 1.4 2.7 1.2-3q-1.2 7.3-7 11.3z" fill="#AAA9A9" stroke="#1F1A17" id="path96"/><path d="M460.7 196.7c0-2 .9-3.2 2.5-4.5l.3-.2c-.7 1.6-1.6 3.5-2.8 4.7zm-.2.2q-1.2 1.3-2.5 2.3l-.7-.6c1-.8 2-1.7 3.2-1.7z" fill="#fff" stroke="#AAA9A9" id="path97"/><path d="M457 205.9c5.4 1 11.7 3 14.2 9.8a7 7 0 0 0 2.5 3.7q-1.4 0-2.7-2.4-.4 1.5-.9 2.3.4-1.4.5-3.6-3.2-.4-3.3-4.9c-2 1.8-3.3.6-4.3-2.1-1.7 1.6-4-.1-6.2-2.3z" fill="#AAA9A9" stroke="#1F1A17" id="path98"/><path d="M467.3 210.5c-2 1.6-3 .6-3.8-1.5l-.4-.8c-2.2 1.9-4.2-.2-6-1.9h.1v-.1q3 .6 6 1.7 2.1 1 4 2.6zm.3.2.1.2a14 14 0 0 1 3 4.3l.1.3q-2.4-.3-3-2.8v-.4l-.1-.5-.1-.5z" fill="#fff" stroke="#AAA9A9" id="path99"/><path d="M455.3 208q6.4 1 11.2 7.5c-3.1 1.8-2 3.2 1.2 4.5q-.3 3 .6 5.2c-2 .7-.8 2.2.3 3.9a6 6 0 0 1-2-2.8q-.7 2.4-2 2.8c.8-.6 1.5-1.4 1.5-3.5a42 42 0 0 1-2.2-7.4q-3-7.6-9.2-9.6z" fill="#AAA9A9" stroke="#1F1A17" id="path100"/><path d="M467 226.3v.1l-.4-.9-.3.7v-.6q-1.3-3.3-2-6.9-.5-1.7-1.4-3.2a14 14 0 0 0-7.6-7l.1-.1c4.4.8 7.8 3.4 10.6 6.9v.1l-.2.2c-1 .7-1.8 1.5-1.1 2.8l.2.3q1.2 1 2.5 1.4c0 1 .6 5 .2 5.2q-.6.4-.7 1z" fill="#fff" stroke="#AAA9A9" id="path101"/></g><g stroke="#1F1A17" stroke-linejoin="round" stroke-width=".0762" id="g104"><path d="M447.9 198.5c-1.9-1.6-3.1-3.6-.6-5.5 1-.8 2.7-1 4-1.2.6 0 1-1 1.1-1.7.2.6.5 1.7 1 1.7q1.8.3 3.4 1.3c2.6 1.8 2.2 4.2-.1 5.4q-4.5-1-8.8 0z" fill="#1F1A17" id="path102"/><linearGradient id="c" x1="176.8" x2="181.7" y1="522.77" y2="522.77" gradientTransform="matrix(2.8346 0 0 -2.8346 -56 1676.2)" gradientUnits="userSpaceOnUse"><stop stop-color="#AAA9A9" offset="0" id="stop102"/><stop stop-color="#fff" offset=".4902" id="stop103"/><stop stop-color="#AAA9A9" offset="1" id="stop104"/></linearGradient><path d="M448.1 198.3c-1.8-1.5-3-3.4-.5-5.3a8 8 0 0 1 3.7-1c.6-.1 1-1 1.1-1.7.2.6.5 1.6 1 1.7q1.7.1 3.2 1.2c2.5 1.7 2 4-.2 5q-4.2-.7-8.3 0z" fill="url(#c)" id="path104"/></g><circle cx="455.15" cy="195.41" r="1.642" fill="#1F1A17" stroke="#1F1A17" stroke-linejoin="round" stroke-width=".0762" id="circle104"/><path d="M455.2 194a1.4 1.4 0 0 1 0 2.8 1.4 1.4 0 0 1 0-2.8" fill="url(#g)" id="path107"/><circle cx="449.34" cy="195.41" r="1.642" fill="#1F1A17" stroke="#1F1A17" stroke-linejoin="round" stroke-width=".0762" id="circle107"/><path d="M449.3 194a1.4 1.4 0 0 1 0 2.8 1.4 1.4 0 0 1 0-2.8" fill="url(#f)" id="path110"/><g stroke-linejoin="round" stroke-width=".0762" id="g114"><path d="m451.6 191.8-.7-3.5q-3.8.2-7.4-1.8 2.8 2.7 7.3 3.2l.4 2.2z" fill="#AAA9A9" stroke="#1F1A17" id="path111"/><path d="M450.8 189.4v-.9q-2.9.2-5.4-.8a10 10 0 0 0 5.4 1.7z" fill="#fff" stroke="#AAA9A9" id="path112"/><path d="m453.2 191.8.7-3.5q3.7.2 7.5-1.8-2.9 2.7-7.3 3.2l-.4 2.2z" fill="#AAA9A9" stroke="#1F1A17" id="path113"/><path d="m454 189.4.1-.9q2.7.2 5.3-.8a10 10 0 0 1-5.3 1.7z" fill="#fff" stroke="#AAA9A9" id="path114"/></g><g stroke="#1F1A17" stroke-linejoin="round" stroke-width=".0762" id="g117"><path d="M446.8 204c-.3-1.3-.6-2.5-.3-4.4q.3-.8 1.4-1.3 4.2-1 8.6 0 .8.4 1.4 1.5.8 2 0 4-.9 3.2-2.8 4.6a5 5 0 0 1-5.5.1q-1.7-.7-2.8-4.4z" fill="#1F1A17" id="path115"/><radialGradient id="l" cx="179.33" cy="519.48" r="2.1808" gradientTransform="matrix(2.8346 0 0 -2.8346 -56 1676.2)" gradientUnits="userSpaceOnUse"><stop stop-color="#fff" offset="0" id="stop115"/><stop stop-color="#DEDEDD" offset=".451" id="stop116"/><stop stop-color="#AAA9A9" offset="1" id="stop117"/></radialGradient><path d="M447.2 204q-.6-1.7-.3-4 .3-1 1.3-1.3 4-1 7.8 0 1 .4 1.5 1.5.7 1.7-.1 3.6-.7 2.9-2.5 4.3a5 5 0 0 1-5 0q-1.7-.6-2.7-4z" fill="url(#l)" id="path117"/></g><g stroke="#1F1A17" stroke-linejoin="round" stroke-width=".0762" id="g123"><path d="M459.9 220.5q.2-7.6-5.8-11.4a8 8 0 0 1-3.6 0 12 12 0 0 0-6.6 11.3c0 6.7 4.7 12.3 8.4 15.5 3.7-3.7 7.5-8.7 7.6-15.5z" fill="#1F1A17" id="path118"/><linearGradient id="o" x1="176.54" x2="181.83" y1="512.84" y2="512.84" gradientTransform="matrix(2.8346 0 0 -2.8346 -56 1676.2)" gradientUnits="userSpaceOnUse"><stop stop-color="#AAA9A9" offset="0" id="stop118"/><stop stop-color="#fff" offset=".3882" id="stop119"/><stop stop-color="#fff" offset=".502" id="stop120"/><stop stop-color="#fff" offset=".6196" id="stop121"/><stop stop-color="#AAA9A9" offset="1" id="stop122"/></linearGradient><path d="M459.3 220.6q.2-7-5.3-10.6-1.5.5-3.4 0a11 11 0 0 0-6.1 10.6c0 6.2 4.3 11.4 7.8 14.3 3.4-3.4 7-8 7-14.3z" fill="url(#o)" id="path122"/><path d="M458.9 216.6h-13.8q-.4 1.3-.6 3h14.8q0-1.6-.4-3zm-.7-1.8-.5-1.1h-11.3l-.6 1zm-13.7 6.3q0 1.5.4 3h14l.4-3zm1.1 5 1.3 2.7h10.2q.7-1.3 1.2-2.7z" fill="#838281" id="path123"/></g><g stroke-linejoin="round" stroke-width=".0762" id="g132"><path d="M513.6 199.5q-7.1.9-14-3.5c-3.4-2.1-9-2.6-11.1 0-3 3.6 1.2 8.5 6.8 7.9 1.3 4 5.7 5 10.8 3.6q4-.9 7.9-3.6-.6-2.3-.4-4.4z" fill="#AAA9A9" stroke="#1F1A17" id="path124"/><path d="M501.2 197.5c-2.3-1.3-4.1-2.4-6.8-2.6q-2.3-.2-4.4.7-1.9.9-1.9 2.8c.5 3.8 4.9 5.1 7.6 5q1.5 4.5 7.1 4t10.4-3.7l.1-.1-.3-3.3v-.1h-.2c-4.1.4-8-.8-11.6-2.7z" fill="#fff" stroke="#AAA9A9" id="path125"/><path d="M511.7 202.5q-8.9-1.2-16.2 1.4l-1-.2q3.2-1.1 7-1.5a26 26 0 0 0-14-3.5l.1-.4q7.4 0 13.9 3.9 4.7-.6 10.2.3zm1.7-2c-2.9.4-6.4.8-9.2-1q-3.2 1-6.5-1.3-4.2-3.1-8.8-2.6 4.8-.7 9 2.4 3.2 2.3 6.3 1.5c2.8 2 6.2 2 9.2 1z" fill="#1F1A17" stroke="#1F1A17" id="path126"/><path d="M513.6 199.5q.1-.6 1-1-1.7-2-3.5-2 0-2.8-3-5l1.2-3-1.4 2.6-1.2-3q1.2 7.3 7 11.4z" fill="#AAA9A9" stroke="#1F1A17" id="path127"/><path d="M510.8 196.5q-.1-2.7-2.5-4.4l-.3-.3a14 14 0 0 0 2.8 4.7zm.2.3 2.4 2.2h.1l.6-.6c-.9-.8-1.8-1.7-3.1-1.6z" fill="#fff" stroke="#AAA9A9" id="path128"/><path d="M514.4 205.7c-5.3 1-11.6 3-14.2 9.9a7 7 0 0 1-2.5 3.7q1.5 0 2.7-2.5.5 1.6 1 2.4-.6-1.5-.5-3.6 3.2-.5 3.3-5c2 1.8 3.3.6 4.3-2.1 1.7 1.6 3.9 0 6.1-2.3z" fill="#AAA9A9" stroke="#1F1A17" id="path129"/><path d="M504.2 210.3c2 1.6 3 .7 3.8-1.4l.3-.9c2.3 2 4.3-.2 6-1.8v-.1q-3 .5-6 1.7-2.2.9-4.1 2.5zm-.3.3h-.1a14 14 0 0 0-3 4.5l-.1.2q2.4-.3 3-2.8v-.4l.1-.4v-.5z" fill="#fff" stroke="#AAA9A9" id="path130"/><path d="M516.2 207.9q-6.4 1-11.2 7.4c3.1 1.8 1.9 3.2-1.3 4.5q.3 3-.6 5.2c2.1.7.9 2.3-.2 3.9q1.1-.7 2-2.7.6 2.3 1.9 2.8c-.8-.7-1.4-1.5-1.4-3.5q1.2-2.8 2.2-7.5 2.9-7.5 9.2-9.6z" fill="#AAA9A9" stroke="#1F1A17" id="path131"/><path d="M504.5 226.1v.2l.4-1 .2.7v-.6q1.5-3.3 2-6.9.5-1.7 1.4-3.2 2.6-5 7.7-7l-.1-.1c-4.4.8-7.8 3.4-10.6 6.9l-.1.1.3.2c1 .7 1.8 1.5 1.1 2.8l-.3.3q-1 .9-2.5 1.5c.1 1-.5 4.8 0 5q.5.5.5 1.1z" fill="#fff" stroke="#AAA9A9" id="path132"/></g><g stroke-linejoin="round" stroke-width=".0762" id="g141"><path d="M525.1 199.5q7.1.9 14-3.5c3.4-2.1 9-2.6 11.2 0 3 3.6-1.3 8.5-6.9 7.9-1.3 4-5.6 5-10.8 3.6q-3.9-.9-7.8-3.6.5-2.3.3-4.4z" fill="#AAA9A9" stroke="#1F1A17" id="path133"/><path d="M537.5 197.5c2.3-1.3 4.1-2.4 6.8-2.6q2.3-.2 4.4.7 1.8.9 1.9 2.8c-.4 3.8-4.8 5.1-7.6 5q-1.5 4.5-7.1 4-5.7-.5-10.3-3.7l-.2-.1q.8-1.2.3-3.3v-.1h.2c4.1.4 8-.8 11.6-2.7z" fill="#fff" stroke="#AAA9A9" id="path134"/><path d="M527 202.5q8.9-1.2 16.2 1.4l1.1-.2q-3.3-1.1-7-1.5c4.6-2.4 9.2-3.9 13.9-3.5v-.4q-7.4 0-14 3.9-4.6-.6-10.2.3zm-1.6-2c2.8.4 6.3.8 9.2-1q3.1 1 6.5-1.3 4-3.1 8.7-2.6-4.7-.7-9 2.4-3.2 2.3-6.2 1.5c-2.9 2-6.2 2-9.2 1z" fill="#1F1A17" stroke="#1F1A17" id="path135"/><path d="M525.1 199.5q-.1-.6-1-1 1.8-2 3.5-2 0-2.8 3-5l-1.1-3 1.4 2.6 1.1-3q-1.1 7.3-6.9 11.4z" fill="#AAA9A9" stroke="#1F1A17" id="path136"/><path d="M528 196.5q0-2.7 2.4-4.4l.3-.3a14 14 0 0 1-2.8 4.7zm-.3.3q-1 1.2-2.4 2.2l-.7-.6c.9-.8 1.9-1.7 3.1-1.6z" fill="#fff" stroke="#AAA9A9" id="path137"/><path d="M524.3 205.7c5.4 1 11.6 3 14.2 9.9a7 7 0 0 0 2.5 3.7q-1.5 0-2.7-2.5-.4 1.6-1 2.4.5-1.5.6-3.6-3.3-.5-3.4-5c-2 1.8-3.3.6-4.2-2.1-1.7 1.6-4 0-6.2-2.3z" fill="#AAA9A9" stroke="#1F1A17" id="path138"/><path d="M534.6 210.3c-2 1.6-3 .7-3.9-1.4l-.3-.9c-2.3 2-4.2-.2-6-1.8v-.1q3 .5 6 1.7 2.3.9 4.1 2.5zm.2.3h.2a14 14 0 0 1 3 4.5v.2c-1.7-.3-2.4-1.1-3-2.8v-.8l-.1-.5z" fill="#fff" stroke="#AAA9A9" id="path139"/><path d="M522.6 207.9q6.4 1 11.2 7.4c-3.2 1.8-2 3.2 1.2 4.5q-.3 3 .6 5.2c-2 .7-.9 2.3.3 3.9a6 6 0 0 1-2-2.7q-.8 2.3-2 2.8c.8-.7 1.5-1.5 1.4-3.5a42 42 0 0 1-2.2-7.5q-2.9-7.5-9.1-9.6z" fill="#AAA9A9" stroke="#1F1A17" id="path140"/><path d="M534.2 226.1v.2l-.4-1-.2.7v-.6q-1.4-3.3-2-6.9-.5-1.7-1.4-3.2a14 14 0 0 0-7.7-7l.2-.1a17 17 0 0 1 10.5 6.9l.2.1-.3.2c-1 .7-1.9 1.5-1.2 2.8l.3.3q1.1.9 2.5 1.5c0 1 .6 4.8.1 5q-.5.5-.6 1.1z" fill="#fff" stroke="#AAA9A9" id="path141"/></g><g stroke="#1F1A17" stroke-linejoin="round" stroke-width=".0762" id="g144"><path d="M515.1 198.3c-1.8-1.5-3-3.6-.5-5.5 1-.8 2.7-1 4-1.2.5 0 .9-1 1-1.7.3.7.6 1.7 1.1 1.8q1.9.2 3.4 1.2c2.6 1.8 2.2 4.2-.2 5.4q-4.4-.9-8.8 0z" fill="#1F1A17" id="path142"/><linearGradient id="b" x1="200.53" x2="205.43" y1="522.84" y2="522.84" gradientTransform="matrix(2.8346 0 0 -2.8346 -56 1676.2)" gradientUnits="userSpaceOnUse"><stop stop-color="#AAA9A9" offset="0" id="stop142"/><stop stop-color="#fff" offset=".4902" id="stop143"/><stop stop-color="#AAA9A9" offset="1" id="stop144"/></linearGradient><path d="M515.4 198.1c-1.8-1.5-3-3.4-.6-5.2a8 8 0 0 1 3.8-1.2c.6 0 .9-1 1-1.6.3.6.6 1.6 1 1.7q1.8.2 3.2 1.2c2.5 1.7 2.2 4-.1 5.1q-4.1-.9-8.3 0z" fill="url(#b)" id="path144"/></g><circle cx="522.41" cy="195.24" r="1.642" fill="#1F1A17" stroke="#1F1A17" stroke-linejoin="round" stroke-width=".0762" id="circle144"/><path d="M522.4 193.8a1.4 1.4 0 0 1 0 2.8q-1.3-.1-1.4-1.4c-.1-1.3.6-1.4 1.4-1.4" fill="url(#e)" id="path147"/><circle cx="516.6" cy="195.24" r="1.642" fill="#1F1A17" stroke="#1F1A17" stroke-linejoin="round" stroke-width=".0762" id="circle147"/><path d="M516.6 193.8a1.4 1.4 0 0 1 0 2.8q-1.3-.1-1.4-1.4c-.1-1.3.6-1.4 1.4-1.4" fill="url(#d)" id="path150"/><g stroke-linejoin="round" stroke-width=".0762" id="g154"><path d="m518.9 191.6-.7-3.5q-3.7.3-7.5-1.8 2.9 2.7 7.3 3.2l.4 2.2z" fill="#AAA9A9" stroke="#1F1A17" id="path151"/><path d="M518 189.2h.1l-.1-.8q-2.7 0-5.3-.9 2.4 1.7 5.3 1.7z" fill="#fff" stroke="#AAA9A9" id="path152"/><path d="m520.5 191.6.6-3.5q3.8.3 7.5-1.8-2.9 2.7-7.3 3.2l-.4 2.2z" fill="#AAA9A9" stroke="#1F1A17" id="path153"/><path d="M521.3 189.2v-.8q2.8 0 5.4-.9a10 10 0 0 1-5.4 1.7z" fill="#fff" stroke="#AAA9A9" id="path154"/></g><g stroke="#1F1A17" stroke-linejoin="round" stroke-width=".0762" id="g157"><path d="M514 203.9c-.2-1.4-.6-2.6-.2-4.4 0-.5.7-1.2 1.3-1.3q4.3-1 8.6 0 .9.3 1.4 1.4c.7 1.3.4 2.6 0 4q-.9 3.2-2.8 4.7a5 5 0 0 1-5.4 0q-1.8-.7-2.8-4.4z" fill="#1F1A17" id="path155"/><radialGradient id="k" cx="203.06" cy="519.54" r="2.1811" gradientTransform="matrix(2.8346 0 0 -2.8346 -56 1676.2)" gradientUnits="userSpaceOnUse"><stop stop-color="#fff" offset="0" id="stop155"/><stop stop-color="#DEDEDD" offset=".451" id="stop156"/><stop stop-color="#AAA9A9" offset="1" id="stop157"/></radialGradient><path d="M514.5 203.9c-.3-1.3-.7-2.5-.3-4.2q.2-.7 1.2-1.2 4-.9 8 0 .7.4 1.3 1.5.8 1.7 0 3.6c-.7 1.8-1.3 3.5-2.6 4.3a5 5 0 0 1-5 .1q-1.6-.7-2.6-4.1z" fill="url(#k)" id="path157"/></g><g stroke="#1F1A17" stroke-linejoin="round" stroke-width=".0762" id="g163"><path d="M527.2 220.3c0-5.2-1.8-8.7-5.8-11.4a8 8 0 0 1-3.7 0 12 12 0 0 0-6.5 11.4c0 6.6 4.6 12.2 8.4 15.4 3.6-3.7 7.5-8.7 7.6-15.4z" fill="#1F1A17" id="path158"/><linearGradient id="n" x1="200.27" x2="205.55" y1="512.9" y2="512.9" gradientTransform="matrix(2.8346 0 0 -2.8346 -56 1676.2)" gradientUnits="userSpaceOnUse"><stop stop-color="#AAA9A9" offset="0" id="stop158"/><stop stop-color="#fff" offset=".3882" id="stop159"/><stop stop-color="#fff" offset=".502" id="stop160"/><stop stop-color="#fff" offset=".6196" id="stop161"/><stop stop-color="#AAA9A9" offset="1" id="stop162"/></linearGradient><path d="M526.6 220.4c0-4.8-1.6-8-5.4-10.6q-1.5.4-3.4.1c-3.3 1.7-6 5.1-6 10.5-.1 6.2 4.3 11.4 7.7 14.3 3.4-3.4 7-8 7.1-14.3z" fill="url(#n)" id="path162"/><path d="M526.2 216.4h-13.9q-.5 1.5-.5 3h14.8q0-1.5-.4-3zm-.7-1.8-.6-1h-11.2q-.4.4-.6 1zm-13.8 6.4q0 1.5.5 2.9h14l.4-3zm1.2 5q.5 1.4 1.3 2.6h10.1q.8-1.2 1.3-2.6z" fill="#838281" id="path163"/></g><g stroke-linejoin="round" stroke-width=".0762" id="g172"><path d="M377.5 199.5q-7.1.9-14-3.5c-3.4-2.1-9-2.6-11.1 0-3 3.6 1.2 8.5 6.8 7.9 1.3 4 5.7 5 10.8 3.6q4-.9 7.9-3.6-.6-2.3-.4-4.4z" fill="#AAA9A9" stroke="#1F1A17" id="path164"/><path d="M365 197.5c-2.2-1.3-4-2.4-6.7-2.6q-2.3-.2-4.4.7-1.9.9-1.9 2.8c.5 3.8 4.9 5.1 7.6 5q1.5 4.5 7.1 4t10.4-3.7l.1-.1-.3-3.3v-.1h-.2c-4.1.4-8-.8-11.6-2.7z" fill="#fff" stroke="#AAA9A9" id="path165"/><path d="M375.6 202.5q-8.8-1.2-16.2 1.4l-1-.2q3.2-1.1 7-1.5a26 26 0 0 0-14-3.5l.1-.4q7.4 0 13.9 3.9 4.7-.6 10.2.3zm1.6-2c-2.8.4-6.3.8-9.1-1q-3.2 1-6.5-1.3-4.2-3.1-8.8-2.6c3-.4 6.3.3 9 2.4q3.2 2.3 6.3 1.5c2.8 2 6.2 2 9.1 1z" fill="#1F1A17" stroke="#1F1A17" id="path166"/><path d="M377.5 199.5q.1-.6 1-1-1.7-2-3.5-2 0-2.8-3-5l1.2-3-1.4 2.6-1.2-3q1.2 7.3 7 11.4z" fill="#AAA9A9" stroke="#1F1A17" id="path167"/><path d="M374.7 196.5q-.1-2.7-2.5-4.4l-.3-.3a14 14 0 0 0 2.8 4.7zm.2.3 2.4 2.2h.1l.6-.6c-.9-.8-1.8-1.7-3.1-1.6z" fill="#fff" stroke="#AAA9A9" id="path168"/><path d="M378.3 205.7c-5.3 1-11.6 3-14.2 9.9a7 7 0 0 1-2.5 3.7q1.5 0 2.7-2.5.5 1.6 1 2.4-.6-1.5-.5-3.6 3.2-.5 3.3-5c2 1.8 3.3.6 4.3-2.1 1.7 1.6 3.9 0 6.2-2.3z" fill="#AAA9A9" stroke="#1F1A17" id="path169"/><path d="M368 210.3c2 1.6 3 .7 4-1.4l.2-.9c2.3 2 4.3-.2 6-1.8v-.1q-3 .5-6 1.7-2.2.9-4.1 2.5zm-.2.3h-.1a14 14 0 0 0-3 4.5l-.1.2q2.4-.3 3-2.8v-.4l.1-.4v-.5z" fill="#fff" stroke="#AAA9A9" id="path170"/><path d="M380 207.9q-6.2 1-11.1 7.4c3.1 1.8 1.9 3.2-1.3 4.5q.3 3-.6 5.2c2.1.7.9 2.3-.2 3.9q1.1-.7 2-2.7.7 2.3 1.9 2.8c-.8-.7-1.4-1.5-1.4-3.5q1.2-2.8 2.2-7.5 2.9-7.5 9.2-9.6z" fill="#AAA9A9" stroke="#1F1A17" id="path171"/><path d="M368.4 226.1v.2l.4-1 .2.7v-.6q1.5-3.3 2-6.9.6-1.7 1.4-3.2 2.6-5 7.7-7l-.1-.1c-4.4.8-7.8 3.4-10.6 6.9l-.1.1.3.2c1 .7 1.8 1.5 1.1 2.8l-.3.3q-1 .9-2.5 1.5c.1 1-.5 4.8 0 5q.5.5.5 1.1z" fill="#fff" stroke="#AAA9A9" id="path172"/></g><g stroke-linejoin="round" stroke-width=".0762" id="g181"><path d="M389 199.5q7.1.9 14-3.5c3.4-2.1 9-2.6 11.2 0 3 3.6-1.3 8.5-6.9 7.9-1.3 4-5.6 5-10.8 3.6q-3.9-.9-7.8-3.6.5-2.3.3-4.4z" fill="#AAA9A9" stroke="#1F1A17" id="path173"/><path d="M401.4 197.5c2.3-1.3 4.1-2.4 6.8-2.6q2.3-.2 4.4.7 1.9.9 1.9 2.8c-.4 3.8-4.8 5.1-7.6 5q-1.5 4.5-7.1 4-5.7-.5-10.3-3.7l-.2-.1q.8-1.2.3-3.3v-.1h.2c4.1.4 8-.8 11.6-2.7z" fill="#fff" stroke="#AAA9A9" id="path174"/><path d="M391 202.5q8.7-1.2 16 1.4l1.2-.2q-3.4-1.1-7-1.5c4.6-2.4 9.2-3.9 13.9-3.5l-.1-.4q-7.4 0-13.9 3.9-4.7-.6-10.2.3zm-1.7-2c2.8.4 6.3.8 9.1-1q3.2 1 6.6-1.3 4-3.1 8.7-2.6-4.6-.7-9 2.4-3.2 2.3-6.3 1.5c-2.8 2-6.1 2-9.1 1z" fill="#1F1A17" stroke="#1F1A17" id="path175"/><path d="M389 199.5q-.1-.6-1-1 1.8-2 3.5-2 0-2.8 3-5l-1.1-3 1.4 2.6 1.1-3q-1.1 7.3-6.9 11.4z" fill="#AAA9A9" stroke="#1F1A17" id="path176"/><path d="M391.8 196.5q.1-2.7 2.5-4.4l.3-.3a14 14 0 0 1-2.8 4.7zm-.2.3q-1 1.2-2.4 2.2l-.7-.6c.9-.8 1.9-1.7 3.1-1.6z" fill="#fff" stroke="#AAA9A9" id="path177"/><path d="M388.2 205.7c5.4 1 11.6 3 14.2 9.9a7 7 0 0 0 2.5 3.7q-1.5 0-2.7-2.5-.4 1.6-1 2.4.5-1.5.6-3.6-3.3-.5-3.4-5c-2 1.8-3.3.6-4.2-2.1-1.7 1.6-4 0-6.2-2.3z" fill="#AAA9A9" stroke="#1F1A17" id="path178"/><path d="M398.5 210.3c-2 1.6-3 .7-3.9-1.4l-.3-.9c-2.3 2-4.2-.2-6-1.8v-.1q3 .5 6 1.7 2.3.9 4.1 2.5zm.2.3h.2a14 14 0 0 1 3 4.5v.2c-1.7-.3-2.4-1.1-3-2.8v-.8l-.1-.5z" fill="#fff" stroke="#AAA9A9" id="path179"/><path d="M386.5 207.9q6.3 1 11.2 7.4c-3.2 1.8-2 3.2 1.2 4.5q-.3 3 .6 5.2c-2 .7-.9 2.3.3 3.9a6 6 0 0 1-2-2.7q-.8 2.3-2 2.8c.8-.7 1.5-1.5 1.4-3.5a42 42 0 0 1-2.2-7.5q-2.9-7.5-9.1-9.6z" fill="#AAA9A9" stroke="#1F1A17" id="path180"/><path d="M398 226.1v.2l-.3-1-.2.7v-.6q-1.4-3.3-2-6.9-.6-1.7-1.4-3.2a14 14 0 0 0-7.7-7l.2-.1a17 17 0 0 1 10.5 6.9l.1.1-.2.2c-1 .7-1.9 1.5-1.2 2.8l.3.3q1.1.9 2.5 1.5c-.1 1 .6 4.8.1 5q-.5.5-.6 1.1z" fill="#fff" stroke="#AAA9A9" id="path181"/></g><g stroke="#1F1A17" stroke-linejoin="round" stroke-width=".0762" id="g184"><path d="M379 198.3c-1.8-1.5-3-3.6-.5-5.5 1-.8 2.7-1 4-1.2.5 0 .9-1 1-1.7.3.7.6 1.7 1.1 1.8q1.9.2 3.4 1.2c2.6 1.8 2.2 4.2-.2 5.4q-4.4-.9-8.8 0z" fill="#1F1A17" id="path182"/><linearGradient id="a" x1="152.51" x2="157.41" y1="522.84" y2="522.84" gradientTransform="matrix(2.8346 0 0 -2.8346 -56 1676.2)" gradientUnits="userSpaceOnUse"><stop stop-color="#AAA9A9" offset="0" id="stop182"/><stop stop-color="#fff" offset=".4902" id="stop183"/><stop stop-color="#AAA9A9" offset="1" id="stop184"/></linearGradient><path d="M379.3 198.1c-1.8-1.5-3-3.4-.6-5.2a8 8 0 0 1 3.8-1.2c.6 0 .9-1 1-1.6.3.6.6 1.6 1 1.7q1.8.2 3.2 1.2c2.5 1.7 2.2 4-.1 5.1q-4.1-.9-8.3 0z" fill="url(#a)" id="path184"/></g><circle cx="386.31" cy="195.24" r="1.642" fill="#1F1A17" stroke="#1F1A17" stroke-linejoin="round" stroke-width=".0762" id="circle184"/><path d="M386.3 193.8a1.4 1.4 0 0 1 0 2.8q-1.3-.1-1.4-1.4c-.1-1.3.6-1.4 1.4-1.4" fill="url(#i)" id="path187"/><circle cx="380.5" cy="195.24" r="1.642" fill="#1F1A17" stroke="#1F1A17" stroke-linejoin="round" stroke-width=".0762" id="circle187"/><path d="M380.5 193.8a1.4 1.4 0 0 1 0 2.8q-1.3-.1-1.4-1.4c-.1-1.3.6-1.4 1.4-1.4" fill="url(#h)" id="path190"/><g stroke-linejoin="round" stroke-width=".0762" id="g194"><path d="m382.8 191.6-.7-3.5q-3.8.3-7.5-1.8 2.9 2.7 7.3 3.2l.4 2.2z" fill="#AAA9A9" stroke="#1F1A17" id="path191"/><path d="m382 189.2-.1-.8q-2.7 0-5.3-.9 2.4 1.7 5.3 1.7z" fill="#fff" stroke="#AAA9A9" id="path192"/><path d="m384.4 191.6.6-3.5q3.8.3 7.5-1.8-2.9 2.7-7.3 3.2l-.4 2.2z" fill="#AAA9A9" stroke="#1F1A17" id="path193"/><path d="M385.2 189.2v-.8q2.9 0 5.4-.9a10 10 0 0 1-5.4 1.7z" fill="#fff" stroke="#AAA9A9" id="path194"/></g><g stroke="#1F1A17" stroke-linejoin="round" stroke-width=".0762" id="g197"><path d="M378 203.9c-.3-1.4-.7-2.6-.3-4.4q.2-1 1.3-1.3 4.3-1 8.6 0 .9.3 1.4 1.4c.7 1.3.4 2.6 0 4q-.9 3.2-2.8 4.7a5 5 0 0 1-5.4 0q-1.8-.7-2.8-4.4z" fill="#1F1A17" id="path195"/><radialGradient id="j" cx="155.04" cy="519.54" r="2.1811" gradientTransform="matrix(2.8346 0 0 -2.8346 -56 1676.2)" gradientUnits="userSpaceOnUse"><stop stop-color="#fff" offset="0" id="stop195"/><stop stop-color="#DEDEDD" offset=".451" id="stop196"/><stop stop-color="#AAA9A9" offset="1" id="stop197"/></radialGradient><path d="M378.4 203.9c-.3-1.3-.7-2.5-.3-4.2 0-.4.7-1 1.2-1.2q4-.9 8 0 .7.4 1.3 1.5.8 1.7 0 3.6c-.7 1.8-1.3 3.5-2.6 4.3a5 5 0 0 1-5 .1q-1.6-.7-2.6-4.1z" fill="url(#j)" id="path197"/></g><g stroke="#1F1A17" stroke-linejoin="round" stroke-width=".0762" id="g203"><path d="M391 220.3c.1-5.2-1.7-8.7-5.7-11.4a8 8 0 0 1-3.7 0 12 12 0 0 0-6.5 11.4c0 6.6 4.6 12.2 8.4 15.4 3.6-3.7 7.5-8.7 7.6-15.4z" fill="#1F1A17" id="path198"/><linearGradient id="m" x1="152.26" x2="157.54" y1="512.9" y2="512.9" gradientTransform="matrix(2.8346 0 0 -2.8346 -56 1676.2)" gradientUnits="userSpaceOnUse"><stop stop-color="#AAA9A9" offset="0" id="stop198"/><stop stop-color="#fff" offset=".3882" id="stop199"/><stop stop-color="#fff" offset=".502" id="stop200"/><stop stop-color="#fff" offset=".6196" id="stop201"/><stop stop-color="#AAA9A9" offset="1" id="stop202"/></linearGradient><path d="M390.5 220.4c0-4.8-1.6-8-5.4-10.6q-1.5.4-3.4.1c-3.3 1.7-6 5.1-6 10.5-.1 6.2 4.3 11.4 7.7 14.3 3.4-3.4 7-8 7.1-14.3z" fill="url(#m)" id="path202"/><path d="M390 216.4h-13.8q-.5 1.5-.5 3h14.8q0-1.5-.4-3zm-.6-1.8-.6-1h-11.2q-.4.4-.6 1zm-13.8 6.4q0 1.5.5 2.9h14l.4-3zm1.2 5q.5 1.4 1.3 2.6h10.1q.8-1.2 1.3-2.6z" fill="#838281" id="path203"/></g><g stroke-linejoin="round" stroke-width=".0762" id="g672"><path fill="#1F1A17" stroke="#1F1A17" id="rect203" d="M377.8 396.3h147v16.8h-147z"/><linearGradient id="p" x1="153.37" x2="204.56" y1="448.54" y2="448.54" gradientTransform="matrix(2.8346 0 0 -2.8346 -56 1676.2)" gradientUnits="userSpaceOnUse"><stop stop-color="#fff" offset="0" id="stop203"/><stop stop-color="#C2C1C1" offset="1" id="stop204"/></linearGradient><path fill="url(#p)" stroke="#1F1A17" id="rect204" d="M378.8 397h145.1v15.4H378.8z"/><path fill="#1F1A17" stroke="#1F1A17" id="polygon204" d="m403.7 377.6 97.6.3 23.5 18.4h-147z"/><linearGradient id="q" x1="172.53" x2="188.57" y1="445.38" y2="461.12" gradientTransform="matrix(2.8346 0 0 -2.8346 -56 1676.2)" gradientUnits="userSpaceOnUse"><stop stop-color="#fff" offset="0" id="stop205"/><stop stop-color="#fff" offset=".5686" id="stop206"/><stop stop-color="#C2C1C1" offset="1" id="stop207"/></linearGradient><g stroke="#1F1A17" id="g208"><path fill="url(#q)" id="polygon207" d="m404.7 377.8 95.6.3 23 17.7h-144z"/><path d="M399.7 381.3V298c0-19.4 21.5-46.9 52.3-46.4 29.1.5 52.8 27.6 52.8 46.4v83.3a145 145 0 0 1-105.1 0z" fill="none" id="path207"/><path d="M399.7 381.3V298c0-19.4 21.5-46.9 52.3-46.4 29.1.5 52.8 27.6 52.8 46.4v83.3a145 145 0 0 1-105.1 0z" fill="#1F1A17" id="path208"/></g><linearGradient id="r" x1="197.65" x2="160.93" y1="477.94" y2="477.94" gradientTransform="matrix(2.8346 0 0 -2.8346 -56 1676.2)" gradientUnits="userSpaceOnUse"><stop stop-color="#AAA9A9" offset="0" id="stop208"/><stop stop-color="#AAA9A9" offset=".0902" id="stop209"/><stop stop-color="#fff" offset=".149" id="stop210"/><stop stop-color="#fff" offset="1" id="stop211"/></linearGradient><path d="M400.2 380.7v-82.4c0-19.3 21.3-46.5 51.8-46 28.8.4 52.3 27.3 52.3 46v82.4q-49.5 19.5-104.1 0z" fill="url(#r)" stroke="#1F1A17" id="path211"/><path d="M400.3 307.5v-2c15.7 7.1 34.7 13.2 72.8 10.3a129 129 0 0 1-72.8-8.3z" fill="#C2C1C1" stroke="#C2C1C1" id="path212"/><path d="M504.5 307v.6a137 137 0 0 1-104.5 0v-.5a137 137 0 0 0 104.5 0z" fill="#1F1A17" stroke="#1F1A17" id="path213"/><g fill="#AAA9A9" stroke="#AAA9A9" id="g228"><path d="M403.5 308.3q1.6-2.9 3.8-4.4a12 12 0 0 0-2.8 4.7z" id="path214"/><path d="M408.4 310a15 15 0 0 1 3.3-5 19 19 0 0 0-2.2 5.3q-.6 0-1-.4z" id="path215"/><path d="M417.8 312.8q1.1-2.6 3-4.2-1.4 2.1-1.8 4.5z" id="path216"/><path d="M422.5 314q1-2.8 2.6-4.2-1.2 2-1.6 4.4z" id="path217"/><path d="M417.3 305.1q-1.7 1.6-2.4 4.5 1.5-2.6 3.8-4.3z" id="path218"/><path d="M429 313.7q1-3.5 3.6-5.8l1 .3q-2.8 2.1-4.6 5.5z" id="path219"/><path d="M430.6 315.6q1.3-3 3.5-4.2-1.6 1.9-2.1 4.4z" id="path220"/><path d="M438 316.5q.8-3 3.1-4.6-1.6 1.9-2 4.8z" id="path221"/><path d="M441 316.8q1.6-4.6 4.2-6c-1.1 1.6-2.4 3.3-3 6z" id="path222"/><path d="M457.4 309.5q-2.7 2-4 4.9a8 8 0 0 1 2.2-4.9z" id="path223"/><path d="M461.8 309.2a13 13 0 0 0-2.2 5.3q1.2-3 3.4-5.4z" id="path224"/><path d="M462.1 317q1.2-3.3 3.5-6.1-1.7 2.8-2.2 6z" id="path225"/><path d="M472 308.2q-.7 3-2.4 5.7 2.4-2.6 4-6z" id="path226"/><path d="m471.7 315.9 3.1-5.5q-.8 3-1.6 5.2z" id="path227"/><path id="polygon227" d="m477.8 314.9 3.2-6.3-1.7 5.9z"/><path d="M484.4 305.8a32 32 0 0 1-2 5.4q2-2.3 3.1-5.7z" id="path228"/></g><g fill="#1F1A17" stroke="#1F1A17" id="g240"><path d="M399.9 307.2q1.5-4.6 4.7-6.6a15 15 0 0 0-4 7z" id="path229"/><path d="M405.8 309.5a13 13 0 0 1 5.4-6.6q-2.7 3.1-4.4 7z" id="path230"/><path d="M415.4 312.5q2.4-4.5 5.6-7.1a23 23 0 0 0-4.5 7.5z" id="path231"/><path d="M424.9 314.5q2.2-4.4 5.8-7a23 23 0 0 0-4.5 7.4z" id="path232"/><path d="M434.5 316.2q2.4-4.8 5.6-7.6a30 30 0 0 0-4 7.7l-1.6-.2z" id="path233"/><path d="M444.8 317.1a28 28 0 0 1 5.5-8.1q-2.4 3.6-4 8.2z" id="path234"/><path d="M454.4 317.4a32 32 0 0 1 6-8.3 32 32 0 0 0-4.3 8.2z" id="path235"/><path d="M464.8 316.7q2.3-4.8 5.4-8.6-2.6 4.3-3.8 8.5z" id="path236"/><path d="M474 315.6q2.9-4.4 5-9-1.3 4.6-3.5 8.7z" id="path237"/><path d="M482.9 313.8a55 55 0 0 0 5-9q-1 4.6-2.9 8.5z" id="path238"/><path d="M491.6 311.6q2.5-4 4.4-9.1-.8 4.8-2.6 8.6z" id="path239"/><path d="M499.5 308.8a46 46 0 0 0 3.1-8.8q-.4 4.9-1.5 8.1z" id="path240"/></g><path d="M400.3 313.1v2.3c26.6 11.2 54 12.8 82 7-30.8 4.5-57.8 1.8-82-9.3z" fill="#C2C1C1" stroke="#C2C1C1" id="path241"/><g fill="#1F1A17" stroke="#1F1A17" id="g253"><path d="M504.5 315.1v.6a137 137 0 0 1-104.5 0v-.6a137 137 0 0 0 104.5 0z" id="path242"/><path d="M502 316.5a11 11 0 0 0-5.5-5.8c1.8 2 3.4 3.5 4.5 6z" id="path243"/><path d="M492.9 319.5a18 18 0 0 0-5.2-6.2c1.9 2.2 3 3.6 4 6.5q.6 0 1.2-.4z" id="path244"/><path d="M484.9 321.6q-3-2-6-6.2l4 6.8c.5 0 1.5-.4 2-.6z" id="path245"/><path d="M474.8 324c-2-2.4-3.5-4.1-5.3-7 1.1 3 2.2 4.8 3.7 7.2z" id="path246"/><path d="M465.2 325.2c-2.1-2.4-3.8-4.3-5.4-7.3 1 3.2 2.3 5 3.9 7.4z" id="path247"/><path d="M455.6 325.8a39 39 0 0 1-5.9-7.7c1.1 3.3 2.4 5.5 4.2 7.7z" id="path248"/><path d="M445.7 325.8c-1.9-2.6-3.6-4.8-5.2-8.1q1.4 4.9 3.6 8z" id="path249"/><path d="M436 324.9a82 82 0 0 1-5-8.5q1.4 4.3 3.6 8.2.8 0 1.4.3z" id="path250"/><path d="M425.9 323.1a53 53 0 0 1-5-8.8q1 4.5 2.8 8.3z" id="path251"/><path d="M415.8 320.5a54 54 0 0 1-4.4-9q1 4.8 2.6 8.5z" id="path252"/><path d="M406.6 317.8a46 46 0 0 1-3-8.8q.3 5 1.5 8.2z" id="path253"/></g><g fill="#AAA9A9" stroke="#AAA9A9" id="g266"><path d="M429.7 323.3c-1-1-3-3.9-4.2-5.7q.5 2.2 2 5.4z" id="path254"/><path d="M422.5 321.8c-1.5-1.6-1.6-2.2-2.5-4.6q0 2.7 1 4.3z" id="path255"/><path d="M415 313q.6 3 1.9 5.9-2-2.8-3.4-6.3l1.6.5z" id="path256"/><path d="M412.6 319.2a25 25 0 0 1-3.1-6.9c0 2 .3 4.9 1.3 6.4z" id="path257"/><path id="polygon257" d="m403.4 316.1-2.8-5.9 1.2 5.5z"/><path d="M437.3 324.5q-1.5-2-2.3-5.2 1.9 3.6 4.1 5.4z" id="path258"/><path d="m437.3 317.3 1.5.3c0 2.8.8 4.2 1.6 5.7-1.2-.9-2.3-2.5-3.1-6z" id="path259"/><path d="M447.8 325.3q-1.8-1.8-2.6-5.8 1.7 3.7 4 5.8z" id="path260"/><path d="M452.6 318.1c1.4 4 2.9 5.5 4.3 6.7-1.1-2-2.3-3.7-2.9-6.6z" id="path261"/><path d="M466.5 324.6a10 10 0 0 1-3.4-5.5q2.1 3.9 5.1 5.3z" id="path262"/><path d="M466.7 317.4c1.6 3.3 3.2 5 4.8 6a14 14 0 0 1-3-6.1z" id="path263"/><path d="M477.1 323a8 8 0 0 1-2.9-4q1.8 2.6 4.1 3.7z" id="path264"/><path d="M485.8 321.1q-1.8-1.5-2.8-3.5a9 9 0 0 0 4.3 3z" id="path265"/><path d="M490.3 319.8a43 43 0 0 1-4-5.1 18 18 0 0 0 3.2 5.4z" id="path266"/></g><g fill="#72706F" stroke="#72706F" id="g269"><path d="m490.1 312.9 1-.4q2.4 2.5 3.7 5.5-1.9-3.3-4.7-5.1z" id="path267"/><path d="M494.4 311.5c1.9.9 3 2.9 4 5q-2-3.1-5.2-4.6.6 0 1.2-.4z" id="path268"/><path d="m499 310 1-.4q2.6 1.9 3.2 5-1.4-3-4.1-4.6z" id="path269"/></g><path d="m400 324.1.5-2.3C416 329 435 335.2 473 332.4a130 130 0 0 1-73-8.3z" fill="#C2C1C1" stroke="#C2C1C1" id="path270"/><path d="M504.5 323.7v.5a137 137 0 0 1-104.5 0v-.6a137 137 0 0 0 104.5 0z" fill="#1F1A17" stroke="#1F1A17" id="path271"/><g fill="#AAA9A9" stroke="#AAA9A9" id="g286"><path d="M403.5 324.8q1.6-2.9 3.8-4.4a12 12 0 0 0-2.8 4.8z" id="path272"/><path d="M408.4 326.5a15 15 0 0 1 3.3-5 19 19 0 0 0-2.2 5.4z" id="path273"/><path d="M417.8 329.4q1.1-2.7 3-4.3-1.4 2.2-1.8 4.5z" id="path274"/><path d="M422.5 330.5q1-2.6 2.6-4.1-1.2 1.9-1.6 4.4z" id="path275"/><path d="M417.3 321.7q-1.7 1.6-2.4 4.5 1.5-2.8 3.8-4.3z" id="path276"/><path d="M429 330.3a10 10 0 0 1 3.4-5.5l1 .2a14 14 0 0 0-4.3 5.3z" id="path277"/><path d="M430.6 332.1q1.3-3 3.5-4.2-1.6 2-2.1 4.4z" id="path278"/><path d="M438 333q.8-2.9 3.1-4.6-1.6 2-2 4.8z" id="path279"/><path d="M441 333.3q1.6-4.5 4.2-6c-1.1 1.7-2.4 3.4-3 6.1z" id="path280"/><path d="M457.3 326.1q-2.7 2-3.8 4.8.1-2.6 2-4.7z" id="path281"/><path d="M461.8 326a12 12 0 0 0-2.2 5q1.2-2.9 3.4-5.2z" id="path282"/><path d="M462.1 333.3q1.2-3.2 3.5-5.9c-1 2-2 3.6-2.2 5.7z" id="path283"/><path d="M472 324.7q-.7 3-2.4 5.8 2.4-2.6 4-6z" id="path284"/><path d="m471.7 332.4 3.1-5.4q-.8 3-1.6 5.2z" id="path285"/><path id="polygon285" d="m477.8 331.5 3.2-6.3-1.7 5.9z"/><path d="M484.4 322.4a32 32 0 0 1-2 5.4q2-2.3 3.1-5.7z" id="path286"/></g><g fill="#1F1A17" stroke="#1F1A17" id="g298"><path d="M399.9 323.8q1.5-4.7 4.7-6.6a15 15 0 0 0-4 7z" id="path287"/><path d="M405.8 326.1a13 13 0 0 1 5.4-6.6q-2.7 3-4.4 7z" id="path288"/><path d="M415.4 329q2.4-4.5 5.6-7.1a23 23 0 0 0-4.5 7.5z" id="path289"/><path d="M424.9 331q2.2-4.2 5.8-7a23 23 0 0 0-4.5 7.5z" id="path290"/><path d="M434.5 332.7q2.4-4.6 5.6-7.6a30 30 0 0 0-4 7.8z" id="path291"/><path d="M444.8 333.7a28 28 0 0 1 5.5-8.2q-2.4 3.6-4 8.3z" id="path292"/><path d="M454.4 334a32 32 0 0 1 6-8.4 32 32 0 0 0-4.3 8.3z" id="path293"/><path d="M464.8 333.3q2.3-4.8 5.4-8.6-2.6 4.2-3.8 8.4z" id="path294"/><path d="M474 332.1q2.9-4.3 5-8.9-1.3 4.6-3.5 8.7z" id="path295"/><path d="M482.9 330.4a55 55 0 0 0 5-9q-1 4.6-2.9 8.5z" id="path296"/><path d="M492.3 327.8q2.5-4 4.4-9-.9 4.8-2.6 8.5z" id="path297"/><path d="M500.6 325a46 46 0 0 0 3.1-8.7q-.3 4.9-1.5 8.1z" id="path298"/></g><path d="M400.5 329.8q-.2 1-.2 2.2c26.6 11.2 54 12.7 82 6.9-30.7 4.6-57.7 2-81.8-9.1z" fill="#C2C1C1" stroke="#C2C1C1" id="path299"/><g fill="#1F1A17" stroke="#1F1A17" id="g311"><path d="M504.5 331.7v.5a137 137 0 0 1-104.5 0v-.5a137 137 0 0 0 104.5 0z" id="path300"/><path d="M502 333c-1.4-3.4-3.3-4.5-5.5-5.8 1.8 2 3.4 3.5 4.5 6.1z" id="path301"/><path d="M492.9 336a18 18 0 0 0-5.2-6.1c1.9 2.2 3 3.6 4 6.5z" id="path302"/><path d="M484.9 338.2q-3-2-6-6.3c1.5 2.8 2.6 4.7 4 6.9z" id="path303"/><path d="M474.8 340.6c-2-2.4-3.5-4.2-5.3-7 1.1 3 2.2 4.8 3.7 7.1z" id="path304"/><path d="M465.2 341.7c-2.1-2.4-3.8-4.2-5.4-7.3 1 3.3 2.3 5 3.9 7.4z" id="path305"/><path d="M455.6 342.4c-2.2-2.2-4-4.5-5.9-7.7 1.1 3.3 2.4 5.5 4.2 7.6z" id="path306"/><path d="M445.7 342.4c-1.9-2.6-3.6-4.9-5.2-8.2a26 26 0 0 0 3.6 8z" id="path307"/><path d="M436 341.4a82 82 0 0 1-5-8.5q1.4 4.4 3.6 8.3z" id="path308"/><path d="M425.9 339.7a53 53 0 0 1-5-8.8q1 4.4 2.8 8.3z" id="path309"/><path d="M415.8 337a54 54 0 0 1-4.4-9q1 4.9 2.6 8.6z" id="path310"/><path d="M406.6 334.4a46 46 0 0 1-3-8.8q.3 4.9 1.5 8.1z" id="path311"/></g><g fill="#AAA9A9" stroke="#AAA9A9" id="g324"><path d="M429.7 339.8c-1-1-3-3.8-4.2-5.6.4 1.3.9 3.4 2 5.3z" id="path312"/><path d="M422.5 338.4c-1.5-1.7-1.6-2.3-2.5-4.6q0 2.6 1 4.3z" id="path313"/><path d="M415 329.7q.6 3 1.9 5.7-2-2.8-3.4-6.3c.6 0 1 .5 1.6.5z" id="path314"/><path d="M412.6 335.7a25 25 0 0 1-3.1-6.8c0 2 .3 4.8 1.3 6.3z" id="path315"/><path id="polygon315" d="m403.4 332.7-2.8-5.9 1.2 5.4z"/><path d="M437.3 341q-1.5-2-2.3-5.2 1.9 3.7 4.1 5.4z" id="path316"/><path d="m437.3 333.8 1.5.4c0 2.7.8 4.1 1.6 5.6-1.2-.8-2.3-2.5-3.1-6z" id="path317"/><path d="M447.8 341.8c-1.3-1-2-3.2-2.6-5.7q1.7 3.6 4 5.7z" id="path318"/><path d="M452.6 334.7c1.4 3.9 2.9 5.4 4.3 6.7-1.1-2-2.3-3.8-2.9-6.6z" id="path319"/><path d="M466.5 341.2a10 10 0 0 1-3.4-5.6q2.1 3.9 5.1 5.4-.9 0-1.7.2z" id="path320"/><path d="M466.7 334q2.4 4.7 4.8 5.9c-1.2-1.4-2.3-3-3-6z" id="path321"/><path d="M477.1 339.6a8 8 0 0 1-2.9-4.1q1.8 2.6 4.1 3.8z" id="path322"/><path d="M485.8 337.7q-1.8-1.5-2.8-3.5a9 9 0 0 0 4.3 3z" id="path323"/><path d="M490.3 336.4a43 43 0 0 1-4-5.2 18 18 0 0 0 3.2 5.4z" id="path324"/></g><g fill="#72706F" stroke="#72706F" id="g327"><path d="m490.1 329.4 1-.3q2.4 2.5 3.7 5.5-1.9-3.4-4.7-5.2z" id="path325"/><path d="M494.4 328.1q2.7 1.5 4 5-2-3.2-5.2-4.6z" id="path326"/><path d="m499 326.6 1-.4q2.6 1.8 3.2 5-1.4-3-4.1-4.6z" id="path327"/></g><path d="m400 340.5.4-2.2c15.6 7.2 34.6 13.3 72.7 10.4a130 130 0 0 1-73-8.2z" fill="#C2C1C1" stroke="#C2C1C1" id="path328"/><path d="M504.5 340v.6a137 137 0 0 1-104.5 0v-.6a137 137 0 0 0 104.5 0z" fill="#1F1A17" stroke="#1F1A17" id="path329"/><g fill="#AAA9A9" stroke="#AAA9A9" id="g344"><path d="M403.5 341.2q1.6-2.9 3.8-4.4a12 12 0 0 0-2.8 4.8z" id="path330"/><path d="M408.4 342.9a15 15 0 0 1 3.3-5 19 19 0 0 0-2.2 5.4z" id="path331"/><path d="M417.8 345.7q1.1-2.6 3-4.2-1.4 2.1-1.8 4.5z" id="path332"/><path d="M422.5 346.9q1-2.6 2.6-4.1-1.2 2-1.6 4.3z" id="path333"/><path d="M417.3 338q-1.7 1.8-2.4 4.6 1.5-2.7 3.8-4.3z" id="path334"/><path d="M429 346.6a10 10 0 0 1 3.4-5.4l1 .2a14 14 0 0 0-4.3 5.2z" id="path335"/><path d="M430.6 348.5q1.3-3 3.5-4.2-1.6 2-2.1 4.4z" id="path336"/><path d="M438 349.5q.8-3 3.1-4.7-1.6 2-2 4.8z" id="path337"/><path d="M441 349.7q1.6-4.5 4.2-6c-1.1 1.7-2.4 3.4-3 6.1z" id="path338"/><path d="M457.3 342.7q-2.7 1.9-3.8 4.6.1-2.5 2-4.5z" id="path339"/><path d="M461.7 342.5c-1.2 1.6-1.6 3-2.1 4.9q1.1-2.9 3.4-5z" id="path340"/><path d="M462.1 350q1.2-3.4 3.5-6.2-1.7 3-2.2 6z" id="path341"/><path d="M472 341.4q-.7 2.8-2.4 5.5c1.5-1.8 3-3.3 4-5.7z" id="path342"/><path d="m471.7 348.8 3.1-5.4q-.8 3-1.6 5.2z" id="path343"/><path id="polygon343" d="m477.8 347.9 3.2-6.4-1.7 6z"/><path d="M484.4 338.8a32 32 0 0 1-2 5.4q2-2.4 3.1-5.7-.6 0-1.1.3z" id="path344"/></g><g fill="#1F1A17" stroke="#1F1A17" id="g356"><path d="M399.9 340.2q1.5-4.6 4.7-6.6a15 15 0 0 0-4 7z" id="path345"/><path d="M405.8 342.5a13 13 0 0 1 5.4-6.6q-2.7 3-4.4 7z" id="path346"/><path d="M415.4 345.4q2.4-4.5 5.6-7.1a23 23 0 0 0-4.5 7.5z" id="path347"/><path d="M424.9 347.5q2.2-4.5 5.8-7a23 23 0 0 0-4.5 7.4z" id="path348"/><path d="M434.5 349q2.4-4.5 5.6-7.5a30 30 0 0 0-4 7.8z" id="path349"/><path d="M444.8 350c1.5-3.2 3.2-5.4 5.3-7.5-1.5 2.5-2.8 4.5-3.8 7.7z" id="path350"/><path d="M454.4 350.3a32 32 0 0 1 6-8.3 32 32 0 0 0-4.3 8.3z" id="path351"/><path d="M464.8 349.7q2.3-4.8 5.4-8.7-2.6 4.3-3.8 8.5z" id="path352"/><path d="M474 348.5q2.9-4.3 5-8.9-1.3 4.6-3.5 8.6z" id="path353"/><path d="M482.9 346.8a55 55 0 0 0 5-9q-1 4.5-2.9 8.5z" id="path354"/><path d="M492.3 344.2q2.5-4 4.4-9-.9 4.8-2.6 8.5z" id="path355"/><path d="M500.6 341.4a46 46 0 0 0 3.1-8.8q-.3 5-1.5 8.2z" id="path356"/></g><path d="M400.4 346.2q-.2 1 0 2.2c26.5 11.2 54 12.7 82 6.9-30.8 4.6-57.9 2-82-9z" fill="#C2C1C1" stroke="#C2C1C1" id="path357"/><g fill="#1F1A17" stroke="#1F1A17" id="g369"><path d="M504.5 348v.6a137 137 0 0 1-104.5 0v-.5a137 137 0 0 0 104.5 0z" id="path358"/><path d="M502 349.4c-1.4-3.4-3.3-4.5-5.5-5.8 1.8 2 3.4 3.5 4.5 6.1z" id="path359"/><path d="M492.9 352.4a18 18 0 0 0-5.2-6.1c1.9 2.2 3 3.6 4 6.5z" id="path360"/><path d="M484.9 354.6q-3-2-6-6.3l4 6.9z" id="path361"/><path d="M474.8 357c-2-2.4-3.5-4.2-5.3-7 1.1 3 2.2 4.7 3.7 7.1z" id="path362"/><path d="M465.2 358.1c-2.1-2.4-3.8-4.2-5.4-7.3 1 3.3 2.3 5 3.9 7.4z" id="path363"/><path d="M455.6 358.8a39 39 0 0 1-5.9-7.8c1.1 3.4 2.4 5.6 4.2 7.7z" id="path364"/><path d="M445.7 358.8c-1.9-2.6-3.6-4.9-5.2-8.2a26 26 0 0 0 3.6 8z" id="path365"/><path d="M436 357.8a82 82 0 0 1-5-8.5q1.4 4.4 3.6 8.2z" id="path366"/><path d="M425.9 356a53 53 0 0 1-5-8.7q1 4.4 2.8 8.3z" id="path367"/><path d="M415.8 353.5a54 54 0 0 1-4.4-9.1q1 4.8 2.6 8.6z" id="path368"/><path d="M406.6 350.7a46 46 0 0 1-3-8.7q.3 4.9 1.5 8.1z" id="path369"/></g><g fill="#AAA9A9" stroke="#AAA9A9" id="g382"><path d="M429.7 356.2c-1-1-3-3.8-4.2-5.7q.5 2.2 2 5.4z" id="path370"/><path d="M422.5 354.8c-1.5-1.7-1.6-2.3-2.5-4.7q0 2.7 1 4.4z" id="path371"/><path d="M415 346q.6 3 1.9 5.8-2-2.8-3.4-6.3c.6 0 1 .5 1.6.5z" id="path372"/><path d="M412.6 352.1a25 25 0 0 1-3.1-6.8c0 2 .3 4.8 1.3 6.3z" id="path373"/><path id="polygon373" d="m403.4 349.1-2.8-6 1.2 5.5z"/><path d="M437.3 357.4q-1.5-2-2.3-5.2 1.9 3.7 4.1 5.4z" id="path374"/><path d="m437.3 350.2 1.5.3c0 2.8.8 4.2 1.6 5.7-1.2-.8-2.3-2.5-3.1-6z" id="path375"/><path d="M447.8 358.2q-1.8-1.8-2.6-5.7 1.7 3.6 4 5.7z" id="path376"/><path d="M452.6 351c1.4 4 2.9 5.5 4.3 6.7-1.1-1.9-2.3-3.7-2.9-6.6z" id="path377"/><path d="M466.5 357.5a10 10 0 0 1-3.4-5.5q2.1 3.9 5.1 5.3z" id="path378"/><path d="M466.7 350.3c1.6 3.3 3.2 5 4.8 6-1.2-1.4-2.3-3-3-6z" id="path379"/><path d="M477.1 356a8 8 0 0 1-2.9-4.1q1.8 2.7 4.1 3.8z" id="path380"/><path d="M485.8 354q-1.8-1.4-2.8-3.5a9 9 0 0 0 4.3 3.1z" id="path381"/><path d="M490.3 352.7a43 43 0 0 1-4-5 18 18 0 0 0 3.2 5.3z" id="path382"/></g><g fill="#72706F" stroke="#72706F" id="g385"><path d="m490.1 345.8 1-.3q2.4 2.5 3.7 5.4c-1.3-2-2.8-4-4.7-5z" id="path383"/><path d="M494.4 344.5c1.9.8 3 2.8 4 5q-2-3.2-5.2-4.6z" id="path384"/><path d="m499 343 1-.4q2.6 1.8 3.2 5-1.4-3-4.1-4.7z" id="path385"/></g><path d="M400.3 357v-2.3c15.6 7.2 34.7 13.5 72.8 10.6a130 130 0 0 1-72.8-8.2z" fill="#C2C1C1" stroke="#C2C1C1" id="path386"/><path d="M504.5 356.6v.5a137 137 0 0 1-104.5 0v-.5a137 137 0 0 0 104.5 0z" fill="#1F1A17" stroke="#1F1A17" id="path387"/><g fill="#AAA9A9" stroke="#AAA9A9" id="g402"><path d="M403.5 357.8q1.6-2.9 3.8-4.4a12 12 0 0 0-2.8 4.7z" id="path388"/><path d="M408.4 359.4a15 15 0 0 1 3.3-5 19 19 0 0 0-2.2 5.4q-.6 0-1-.4z" id="path389"/><path d="M417.8 362.3q1.1-2.6 3-4.2-1.4 2.1-1.8 4.5z" id="path390"/><path d="M422.5 363.5q1-2.8 2.6-4.2-1.2 2-1.6 4.4z" id="path391"/><path d="M417.3 354.6q-1.7 1.6-2.4 4.5 1.5-2.6 3.8-4.3z" id="path392"/><path d="M429 363.2q1-3.5 3.6-5.8l1 .3q-2.8 2.1-4.6 5.5z" id="path393"/><path d="M430.6 365q1.3-3 3.5-4.1-1.6 2-2.1 4.3z" id="path394"/><path d="M438 366q.8-3 3.1-4.6-1.6 1.9-2 4.8z" id="path395"/><path d="M441 366.3q1.6-4.6 4.2-6c-1.1 1.6-2.4 3.3-3 6z" id="path396"/><path d="M457.4 359.1q-2.7 2-4 4.8.3-2.6 2.2-4.7z" id="path397"/><path d="M461.8 359a12 12 0 0 0-2.2 5q1.2-3 3.4-5.1z" id="path398"/><path d="M462.1 366.6q1.2-3.4 3.5-6.2-1.7 2.8-2.2 6z" id="path399"/><path d="M472 357.7q-.7 3-2.4 5.7 2.4-2.6 4-6z" id="path400"/><path d="m471.7 365.4 3.1-5.5q-.8 3-1.6 5.2z" id="path401"/><path id="polygon401" d="m477.8 364.4 3.2-6.3-1.7 5.9z"/><path d="M484.4 355.3a32 32 0 0 1-2 5.4q2-2.3 3.1-5.7z" id="path402"/></g><g fill="#1F1A17" stroke="#1F1A17" id="g414"><path d="M399.9 356.7q1.5-4.6 4.7-6.6a15 15 0 0 0-4 7z" id="path403"/><path d="M405.8 359a13 13 0 0 1 5.4-6.6q-2.7 3.1-4.4 7z" id="path404"/><path d="M415.4 362q2.4-4.5 5.6-7.1a23 23 0 0 0-4.5 7.5z" id="path405"/><path d="M424.9 364q2.2-4.4 5.8-7a23 23 0 0 0-4.5 7.4z" id="path406"/><path d="M434.5 365.7q2.4-4.8 5.6-7.6a30 30 0 0 0-4 7.7l-1.6-.2z" id="path407"/><path d="M444.8 366.6a28 28 0 0 1 5.5-8.1q-2.4 3.6-4 8.2z" id="path408"/><path d="M454.4 366.9a32 32 0 0 1 6-8.3 32 32 0 0 0-4.3 8.2z" id="path409"/><path d="M464.8 366.2q2.3-4.8 5.4-8.6-2.6 4.2-3.8 8.5z" id="path410"/><path d="M474 365q2.9-4.2 5-8.8-1.3 4.6-3.5 8.6z" id="path411"/><path d="M482.9 363.3a55 55 0 0 0 5-9q-1 4.6-2.9 8.5z" id="path412"/><path d="M492.3 360.8q2.5-4 4.4-9.1-.9 4.9-2.6 8.6z" id="path413"/><path d="M500.6 358a46 46 0 0 0 3.1-8.8q-.3 5-1.5 8.2z" id="path414"/></g><path d="M400.3 362.8v2.1c26.6 11.2 54 12.8 82 7-30.8 4.5-57.8 2-82-9.1z" fill="#C2C1C1" stroke="#C2C1C1" id="path415"/><g fill="#1F1A17" stroke="#1F1A17" id="g427"><path d="M504.5 364.6v.6a137 137 0 0 1-104.5 0v-.6a137 137 0 0 0 104.5 0z" id="path416"/><path d="M502 366a11 11 0 0 0-5.5-5.8c1.8 2 3.4 3.5 4.5 6z" id="path417"/><path d="M492.9 369a18 18 0 0 0-5.2-6.2c1.9 2.2 3 3.6 4 6.5q.6 0 1.2-.4z" id="path418"/><path d="M484.9 371.1q-3-2-6-6.2a77 77 0 0 0 4 6.8z" id="path419"/><path d="M474.8 373.5c-2-2.4-3.5-4.1-5.3-7 1.1 3 2.2 4.8 3.7 7.2z" id="path420"/><path d="M465.2 374.7c-2.1-2.4-3.8-4.3-5.4-7.3 1 3.2 2.3 5 3.9 7.4z" id="path421"/><path d="M455.6 375.3q-3.2-3.1-5.9-7.7c1.1 3.3 2.4 5.5 4.2 7.7z" id="path422"/><path d="M445.7 375.3c-1.9-2.6-3.6-4.8-5.2-8.1q1.4 4.9 3.6 8z" id="path423"/><path d="M436 374.4a83 83 0 0 1-5-8.5q1.4 4.3 3.6 8.2.8 0 1.4.3z" id="path424"/><path d="M425.9 372.6a53 53 0 0 1-5-8.8q1 4.5 2.8 8.3z" id="path425"/><path d="M415.8 370a54 54 0 0 1-4.4-9q1 4.8 2.6 8.5z" id="path426"/><path d="M406.6 367.3a46 46 0 0 1-3-8.8q.3 5 1.5 8.2z" id="path427"/></g><g fill="#AAA9A9" stroke="#AAA9A9" id="g440"><path d="M429.7 372.7c-1-.9-3-3.8-4.2-5.6q.5 2.2 2 5.4c.4 0 1.8.3 2.2.2z" id="path428"/><path d="M422.5 371.3c-1.5-1.6-1.6-2.2-2.5-4.6q0 2.7 1 4.3z" id="path429"/><path d="M415 362.6q.6 3 1.9 5.8-2-2.8-3.4-6.3l1.6.5z" id="path430"/><path d="M412.6 368.7a25 25 0 0 1-3.1-6.8c0 2 .3 4.8 1.3 6.3z" id="path431"/><path id="polygon431" d="m403.4 365.6-2.8-5.9 1.2 5.5z"/><path d="M437.3 374q-1.5-2-2.3-5.2 1.9 3.6 4.1 5.4z" id="path432"/><path d="m437.3 366.8 1.5.3c0 2.8.8 4.2 1.6 5.7-1.2-.9-2.3-2.5-3.1-6z" id="path433"/><path d="M447.8 374.8q-1.8-1.8-2.6-5.8 1.7 3.7 4 5.8z" id="path434"/><path d="M452.6 367.6c1.4 4 2.9 5.5 4.3 6.7-1.1-2-2.3-3.7-2.9-6.6z" id="path435"/><path d="M466.5 374.1a10 10 0 0 1-3.4-5.5q2.1 3.9 5.1 5.3z" id="path436"/><path d="M466.7 366.9c1.6 3.3 3.2 5 4.8 6a14 14 0 0 1-3-6.1z" id="path437"/><path d="M477.1 372.5a8 8 0 0 1-2.9-4q1.8 2.6 4.1 3.7z" id="path438"/><path d="M485.8 370.6q-1.8-1.5-2.8-3.5a9 9 0 0 0 4.3 3z" id="path439"/><path d="M490.3 369.3a43 43 0 0 1-4-5.1 18 18 0 0 0 3.2 5.4z" id="path440"/></g><g fill="#72706F" stroke="#72706F" id="g443"><path d="m490.1 362.4 1-.4q2.4 2.5 3.7 5.5-1.9-3.3-4.7-5.1z" id="path441"/><path d="M494.4 361c1.9.9 3 2.9 4 5q-2-3.1-5.2-4.6.6 0 1.2-.4z" id="path442"/><path d="m499 359.5 1-.4q2.6 1.9 3.2 5-1.4-3-4.1-4.6z" id="path443"/></g><path d="M400.3 373.4v-2.1c15.7 6.7 34.7 12.5 72.8 9.8-22.4 4-48.4 1.7-72.8-7.7z" fill="#C2C1C1" stroke="#C2C1C1" id="path444"/><path d="M504.5 373v.5q-52.2 19.5-104.5 0v-.5q52.2 19.5 104.5 0z" fill="#1F1A17" stroke="#1F1A17" id="path445"/><g fill="#AAA9A9" stroke="#AAA9A9" id="g460"><path d="M403.5 374q1.6-2.6 3.8-4a11 11 0 0 0-2.8 4.4z" id="path446"/><path d="M408.4 375.6a14 14 0 0 1 3.3-4.6q-1.4 2-2.2 5-.6-.1-1-.4z" id="path447"/><path d="M417.8 378.3q1.1-2.5 3-4-1.4 2-1.8 4.3z" id="path448"/><path d="M422.5 379.4q1-2.5 2.6-3.9a11 11 0 0 0-1.6 4.1z" id="path449"/><path d="M417.3 371.1a9 9 0 0 0-2.4 4.2q1.5-2.5 3.7-3.9-.6 0-1.3-.3z" id="path450"/><path d="M429 379.2c.7-2.2 1.3-3.6 3.1-5l1 .2c-2 1.3-2.8 2.7-4 4.8z" id="path451"/><path d="M430.6 380.9a8 8 0 0 1 3.5-4q-1.6 1.9-2.1 4.2z" id="path452"/><path d="M438 381.8a7 7 0 0 1 3.1-4.4 9 9 0 0 0-2 4.5z" id="path453"/><path d="M441 382q1.6-4.3 4.2-5.6c-1.1 1.6-2.4 3.2-3 5.7z" id="path454"/><path d="M457 375.6a9 9 0 0 0-3.5 4.2c.2-1.7.4-2.8 1.8-4.2z" id="path455"/><path d="M461.5 375.5c-1.3 1.5-1.4 2.6-2 4.4 1-1.9 1.7-3 3.2-4.5z" id="path456"/><path d="M462.1 382.3q1.2-3.1 3.5-5.8-1.7 2.6-2.2 5.6z" id="path457"/><path d="M471.9 374.3a17 17 0 0 1-2.3 5c1.5-1.6 2.9-3 3.8-5.2z" id="path458"/><path d="m471.7 381.2 3.1-5.1q-.8 2.8-1.6 4.8z" id="path459"/><path id="polygon459" d="m477.8 380.3 3.2-5.9-1.7 5.5z"/><path d="M484.4 371.8q-.8 2.8-2 5 2-2.2 3.1-5.3z" id="path460"/></g><g fill="#1F1A17" stroke="#1F1A17" id="g472"><path d="M399.9 373q1.5-4.3 4.7-6a14 14 0 0 0-4 6.5z" id="path461"/><path d="M405.8 375.3q2.2-4.6 5.4-6.2-2.7 2.9-4.4 6.5z" id="path462"/><path d="M415.4 378q2.4-4.2 5.6-6.7-3 3-4.5 7-.6 0-1.1-.3z" id="path463"/><path d="M424.9 380a19 19 0 0 1 5.8-6.7q-2.8 3-4.5 7z" id="path464"/><path d="M434.5 381.4c1.5-2.9 3-4.7 5.2-6.6-1.6 2.3-2.7 4-3.6 6.8z" id="path465"/><path d="M444.8 382.3c1.5-3 3-4.8 5.2-6.8-1.6 2.4-2.7 4-3.7 7z" id="path466"/><path d="M454.4 382.6a30 30 0 0 1 6-7.8q-2.8 3.6-4.3 7.8z" id="path467"/><path d="M464.8 382q2.3-4.6 5.4-8a36 36 0 0 0-3.8 7.8z" id="path468"/><path d="M474 380.9q2.9-4 5-8.3-1.3 4.2-3.5 8z" id="path469"/><path d="M482.9 379.3q2.7-3.9 5-8.5a33 33 0 0 1-2.9 8z" id="path470"/><path d="M492.3 376.9q2.5-3.7 4.4-8.5-.9 4.5-2.6 8z" id="path471"/><path d="M500.6 374.3q1.9-3.5 3.1-8.2a28 28 0 0 1-1.5 7.6z" id="path472"/></g><path d="M400.3 378.8v2c26.6 10.4 54 11.9 82 6.4-30.8 4.3-57.8 1.9-82-8.5z" fill="#C2C1C1" stroke="#C2C1C1" id="path473"/><g fill="#1F1A17" stroke="#1F1A17" id="g485"><path d="M504.5 380.5v.5q-52.2 19.5-104.5 0v-.5q52.2 19.5 104.5 0z" id="path474"/><path d="M502 381.7c-1.4-3.2-3.3-4.2-5.5-5.4 1.8 2 3.4 3.3 4.5 5.7z" id="path475"/><path d="M492.9 384.5a17 17 0 0 0-5.2-5.7c1.9 2 3 3.4 4 6z" id="path476"/><path d="M484.9 386.6q-3-1.9-6-5.9c1.5 2.6 2.6 4.4 4 6.4z" id="path477"/><path d="M474.8 388.8c-2-2.2-3.5-3.9-5.3-6.5a36 36 0 0 0 3.7 6.7z" id="path478"/><path d="M465.2 389.9c-2.1-2.3-3.8-4-5.4-6.8 1 3 2.3 4.6 3.9 6.9z" id="path479"/><path d="M455.6 390.5a37 37 0 0 1-5.9-7.2q1.6 4.3 4.2 7.1z" id="path480"/><path d="M445.7 390.5a48 48 0 0 1-5.2-7.6 25 25 0 0 0 3.6 7.5z" id="path481"/><path d="M436 389.6q-2.7-3.9-5-8 1.4 4.1 3.6 7.7z" id="path482"/><path d="M425.9 388a49 49 0 0 1-5-8.3q1 4.3 2.8 7.8z" id="path483"/><path d="M415.8 385.5a49 49 0 0 1-4.4-8.5q1 4.6 2.6 8z" id="path484"/><path d="M406.6 383q-1.8-3.5-3-8.2.3 4.5 1.5 7.6z" id="path485"/></g><g fill="#AAA9A9" stroke="#AAA9A9" id="g498"><path d="M429.7 388c-1-.8-3-3.5-4.2-5.2q.5 2.1 2 5z" id="path486"/><path d="M422.5 386.8c-1.5-1.6-1.6-2.2-2.5-4.4q0 2.5 1 4z" id="path487"/><path d="M415 378.6q.6 2.7 1.9 5.4-2-2.6-3.4-6l1.6.6z" id="path488"/><path d="M412.6 384.3c-1.1-1.2-2.3-4-3.1-6.4 0 1.9.3 4.5 1.3 5.9z" id="path489"/><path id="polygon489" d="m403.4 381.4-2.8-5.5 1.2 5.1z"/><path d="M437.3 389.2q-1.5-1.8-2.3-4.8 1.9 3.4 4.1 5z" id="path490"/><path d="m437.3 382.5 1.5.3c0 2.6.8 3.9 1.6 5.3-1.2-.8-2.3-2.3-3.1-5.6z" id="path491"/><path d="M447.8 390q-1.8-1.7-2.6-5.4 1.7 3.4 4 5.4z" id="path492"/><path d="M452.6 383.3c1.4 3.6 2.9 5 4.3 6.2-1.1-1.8-2.3-3.5-2.9-6.1z" id="path493"/><path d="M466.5 389.3a9 9 0 0 1-3.4-5.1 12 12 0 0 0 5.1 5z" id="path494"/><path d="M466.7 382.6q2.4 4.3 4.8 5.6a13 13 0 0 1-3-5.7z" id="path495"/><path d="M477.1 387.8a7 7 0 0 1-2.9-3.8q1.8 2.6 4.1 3.6z" id="path496"/><path d="M485.8 386.1q-1.8-1.3-2.8-3.3a9 9 0 0 0 4.3 2.9z" id="path497"/><path d="M490.3 384.9q-2-2.1-4-4.8 1.1 2.9 3.2 5z" id="path498"/></g><g fill="#72706F" stroke="#72706F" id="g501"><path d="m490.1 378.4 1-.3q2.4 2.3 3.7 5-1.9-3.2-4.7-4.7z" id="path499"/><path d="M494.4 377.1c1.9.8 3 2.7 4 4.6a12 12 0 0 0-5.2-4.2z" id="path500"/><path d="m499 375.7 1-.4a7 7 0 0 1 3.2 4.7q-1.4-2.7-4.1-4.3z" id="path501"/></g><path d="m407 277 1.4-1.4c14.3 5.5 32.9 9.4 64.7 7.1a129 129 0 0 1-66.2-5.6z" fill="#C2C1C1" stroke="#C2C1C1" id="path502"/><path d="m496.6 277 .3.3a135 135 0 0 1-90.4-.4l.8-.2a135 135 0 0 0 89.3.2z" fill="#1F1A17" stroke="#1F1A17" id="path503"/><path d="M409.4 277.1a15 15 0 0 1 3.2-5 19 19 0 0 0-2.1 5.4z" fill="#1F1A17" stroke="#1F1A17" id="path504"/><g fill="#AAA9A9" stroke="#AAA9A9" id="g507"><path d="M417.8 279.7q1.1-2.6 3-4.2-1.4 2.1-1.8 4.5z" id="path505"/><path d="M422.5 280.9q1-2.8 2.6-4.2-1.2 2-1.6 4.4z" id="path506"/><path d="M417.3 272q-1.7 1.6-2.4 4.5 1.5-2.6 3.8-4.3z" id="path507"/></g><path d="M405.4 284.8q-1.7 1.6-2.5 4.5 1.7-2.7 4-4.3z" fill="#1F1A17" stroke="#1F1A17" id="path508"/><g fill="#AAA9A9" stroke="#AAA9A9" id="g518"><path d="M429 280.6q1-3.5 3.6-5.8l1 .3q-2.8 2-4.6 5.5z" id="path509"/><path d="M430.6 282.5q1.3-3 3.5-4.2-1.6 2-2.1 4.3-.8 0-1.4-.2z" id="path510"/><path d="M438 283.4q.8-3 3.1-4.6-1.6 1.9-2 4.7z" id="path511"/><path d="M441 283.7q1.6-4.7 4.2-6c-1.1 1.6-2.4 3.3-3 6z" id="path512"/><path d="M457.4 276.4q-2.7 2-4 4.9a8 8 0 0 1 2.2-4.9z" id="path513"/><path d="M461.8 276.1a13 13 0 0 0-2.2 5.2q1.2-3 3.4-5.3z" id="path514"/><path d="M462.1 284q1.2-3.4 3.5-6.2-1.7 2.8-2.2 6z" id="path515"/><path d="M472 275q-.7 3-2.4 5.8 2.4-2.6 4-6z" id="path516"/><path d="m471.7 282.8 3.1-5.5q-.8 3-1.6 5.2z" id="path517"/><path id="polygon517" d="m477.8 281.8 3.2-6.3-1.7 5.9z"/><path d="M484.4 272.7a32 32 0 0 1-2 5.4q2-2.3 3.1-5.7z" id="path518"/></g><g fill="#1F1A17" stroke="#1F1A17" id="g527"><path d="M415.4 279.4q2.4-4.5 5.6-7.2a23 23 0 0 0-4.5 7.6z" id="path519"/><path d="M424.9 281.4q2.2-4.4 5.8-7a23 23 0 0 0-4.5 7.4z" id="path520"/><path d="M434.5 283q2.4-4.6 5.6-7.5a30 30 0 0 0-4 7.7z" id="path521"/><path d="M444.8 284a28 28 0 0 1 5.5-8.1q-2.4 3.6-4 8.2z" id="path522"/><path d="M454.4 284.3a32 32 0 0 1 6-8.4 32 32 0 0 0-4.3 8.3z" id="path523"/><path d="M464.8 283.6q2.3-4.8 5.4-8.6-2.6 4.2-3.8 8.5z" id="path524"/><path d="M474 282.5q2.9-4.4 5-9-1.3 4.6-3.5 8.7z" id="path525"/><path d="M482.9 280.7a55 55 0 0 0 5-9q-1 4.6-2.9 8.5z" id="path526"/><path d="M489.4 279.6c1.6-1.7 2-3.3 2.6-6.5-.1 3.5.2 3.6-.8 6z" id="path527"/></g><path d="m404.6 282.1-1.2 1.5c25.7 10 52 11.2 79 5.6a146 146 0 0 1-77.8-7z" fill="#C2C1C1" stroke="#C2C1C1" id="path528"/><g fill="#1F1A17" stroke="#1F1A17" id="g538"><path d="m500.6 283.6.3.3a136 136 0 0 1-97.7 0v-.6a136 136 0 0 0 97.4.3z" id="path529"/><path d="M492.9 286.3a18 18 0 0 0-5.2-6c1.9 2.1 3 3.5 4 6.4q.6 0 1.2-.4z" id="path530"/><path d="M484.9 288.5q-3-2-6-6.2a77 77 0 0 0 4 6.8z" id="path531"/><path d="M474.8 290.9c-2-2.4-3.5-4.1-5.3-7 1.1 3 2.2 4.8 3.7 7.2z" id="path532"/><path d="M465.2 292a33 33 0 0 1-5.4-7.2c1 3.2 2.3 5 3.9 7.3z" id="path533"/><path d="M455.6 292.7a39 39 0 0 1-5.9-7.7c1.1 3.3 2.4 5.5 4.2 7.7z" id="path534"/><path d="M445.7 292.7c-1.9-2.6-3.6-4.8-5.2-8.1q1.4 4.9 3.6 8z" id="path535"/><path d="M436 291.8a82 82 0 0 1-5-8.5q1.4 4.3 3.6 8.2.8 0 1.4.3z" id="path536"/><path d="M425.9 290a53 53 0 0 1-5-8.8q1 4.4 2.8 8.3z" id="path537"/><path d="M415.8 287.4a54 54 0 0 1-4.4-9q1 4.8 2.6 8.5z" id="path538"/></g><g fill="#AAA9A9" stroke="#AAA9A9" id="g551"><path d="M429.7 290.1c-1-.9-3-3.8-4.2-5.6q.5 2.3 2 5.4c.4 0 1.8.3 2.2.2z" id="path539"/><path d="M422.5 288.7c-1.5-1.6-1.6-2.2-2.5-4.6q0 2.7 1 4.3z" id="path540"/><path d="M415 280q.6 3 1.9 5.8-2-2.8-3.4-6.4l1.6.6z" id="path541"/><path d="M412.6 286a25 25 0 0 1-3.1-6.8c0 2 .3 4.9 1.3 6.4z" id="path542"/><path d="M437.3 291.4q-1.5-2-2.3-5.2 1.9 3.6 4.1 5.4z" id="path543"/><path d="m437.3 284.2 1.5.3c0 2.8.8 4.2 1.6 5.7-1.2-.9-2.3-2.5-3.1-6z" id="path544"/><path d="M447.8 292.2q-1.8-1.8-2.6-5.8 1.7 3.7 4 5.8z" id="path545"/><path d="M452.6 285c1.4 4 2.9 5.5 4.3 6.7-1.1-2-2.3-3.7-2.9-6.6z" id="path546"/><path d="M466.5 291.5a10 10 0 0 1-3.4-5.5q2.1 3.9 5.1 5.3z" id="path547"/><path d="M466.7 284.3c1.6 3.3 3.2 5 4.8 6a14 14 0 0 1-3-6.1z" id="path548"/><path d="M477.1 289.9a8 8 0 0 1-2.9-4q1.8 2.6 4.1 3.7z" id="path549"/><path d="M485.8 288q-1.8-1.5-2.8-3.5a9 9 0 0 0 4.3 3z" id="path550"/><path d="M490.3 286.7a43 43 0 0 1-4-5.1 18 18 0 0 0 3.2 5.4z" id="path551"/></g><path d="m490.1 279.8 1-.4q2.4 2.5 3.7 5.5-1.9-3.3-4.7-5.1z" fill="#72706F" stroke="#72706F" id="path552"/><path d="M494.4 278.4c1.9.9 3 2.9 4 5q-2-3.1-5.2-4.6.6 0 1.2-.4z" fill="#72706F" stroke="#72706F" id="path553"/><path d="m401.2 291.5.5-2c15.3 7 34.5 12.5 71.4 9.8-22 4.2-47.9 1.9-71.9-7.8z" fill="#C2C1C1" stroke="#C2C1C1" id="path554"/><path d="M503.6 290.9v.5a134 134 0 0 1-102.9 0v-.4a137 137 0 0 0 102.9-.1z" fill="#1F1A17" stroke="#1F1A17" id="path555"/><g fill="#AAA9A9" stroke="#AAA9A9" id="g570"><path d="M403.5 291.7q1.6-2.9 3.8-4.4a12 12 0 0 0-2.8 4.8z" id="path556"/><path d="M408.4 293.4a15 15 0 0 1 3.3-5 19 19 0 0 0-2.2 5.4z" id="path557"/><path d="M417.8 296.3q1.1-2.7 3-4.3-1.4 2.2-1.8 4.5z" id="path558"/><path d="M422.5 297.4q1-2.6 2.6-4.1-1.2 1.9-1.6 4.4z" id="path559"/><path d="M417.3 288.6q-1.7 1.7-2.4 4.5 1.5-2.7 3.8-4.3z" id="path560"/><path d="M429 297.2a10 10 0 0 1 3.4-5.5l1 .2a14 14 0 0 0-4.3 5.3z" id="path561"/><path d="M430.6 299q1.3-3 3.5-4.2-1.6 2-2.1 4.4z" id="path562"/><path d="M438 300q.8-3 3.1-4.7-1.6 2-2 4.8z" id="path563"/><path d="M441 300.2q1.6-4.5 4.2-6c-1.1 1.7-2.4 3.4-3 6.1z" id="path564"/><path d="M457.3 293q-2.7 2-3.8 4.8.1-2.6 2-4.7z" id="path565"/><path d="M461.8 292.8a12 12 0 0 0-2.2 5.1q1.2-2.9 3.4-5.2z" id="path566"/><path d="M462.1 300.2q1.2-3.2 3.5-5.9c-1 2-2 3.6-2.2 5.7z" id="path567"/><path d="M472 291.6q-.7 3-2.4 5.8 2.4-2.6 4-6z" id="path568"/><path d="m471.7 299.3 3.1-5.4q-.8 3-1.6 5.2z" id="path569"/><path id="polygon569" d="m477.8 298.4 3.2-6.4-1.7 6z"/><path d="M484.4 289.3a32 32 0 0 1-2 5.4q2-2.4 3.1-5.7-.6 0-1.1.3z" id="path570"/></g><g fill="#1F1A17" stroke="#1F1A17" id="g581"><path d="M405.8 293a13 13 0 0 1 5.4-6.6q-2.7 3-4.4 7z" id="path571"/><path d="M415.4 296q2.4-4.6 5.6-7.2a23 23 0 0 0-4.5 7.5z" id="path572"/><path d="M424.9 298q2.2-4.5 5.8-7a23 23 0 0 0-4.5 7.4z" id="path573"/><path d="M434.5 299.6q2.4-4.6 5.6-7.6a30 30 0 0 0-4 7.8z" id="path574"/><path d="M444.8 300.6a28 28 0 0 1 5.5-8.2q-2.4 3.6-4 8.3z" id="path575"/><path d="M454.4 300.8a32 32 0 0 1 6-8.3 32 32 0 0 0-4.3 8.3z" id="path576"/><path d="M464.8 300.2q2.3-4.8 5.4-8.7-2.6 4.3-3.8 8.5z" id="path577"/><path d="M474 299q2.9-4.3 5-8.9-1.3 4.6-3.5 8.6z" id="path578"/><path d="M482.9 297.3a55 55 0 0 0 5-9q-1 4.5-2.9 8.5z" id="path579"/><path d="M489.8 295.6q2.5-4 4.4-9.1-.9 4.8-2.6 8.6z" id="path580"/><path d="M496.5 293.8a46 46 0 0 0 3-8.8q-.3 4.9-1.5 8.1z" id="path581"/></g><path d="m400.5 296.8-.2 2c26.6 11.3 54 12.8 82 7-30.7 4.6-57.7 2-81.8-9z" fill="#C2C1C1" stroke="#C2C1C1" id="path582"/><g fill="#1F1A17" stroke="#1F1A17" id="g594"><path d="M504.5 298.6v.5a137 137 0 0 1-104.5 0v-.5a137 137 0 0 0 104.5 0z" id="path583"/><path d="M502 299.9c-1.4-3.4-3.3-4.5-5.5-5.8 1.8 2 3.4 3.5 4.5 6.1z" id="path584"/><path d="M492.9 302.9a18 18 0 0 0-5.2-6.1c1.9 2.2 3 3.6 4 6.5z" id="path585"/><path d="M484.9 305q-3-1.8-6-6.2c1.5 2.8 2.6 4.7 4 6.9z" id="path586"/><path d="M474.8 307.4c-2-2.3-3.5-4.1-5.3-6.9 1.1 3 2.2 4.7 3.7 7.1z" id="path587"/><path d="M465.2 308.6c-2.1-2.4-3.8-4.2-5.4-7.2 1 3.2 2.3 4.9 3.9 7.3z" id="path588"/><path d="M455.6 309.3a39 39 0 0 1-5.9-7.8c1.1 3.4 2.4 5.6 4.2 7.7z" id="path589"/><path d="M445.7 309.3c-1.9-2.6-3.6-4.9-5.2-8.2a26 26 0 0 0 3.6 8z" id="path590"/><path d="M436 308.3a82 82 0 0 1-5-8.5q1.4 4.4 3.6 8.3z" id="path591"/><path d="M425.9 306.6a53 53 0 0 1-5-8.8q1 4.4 2.8 8.3z" id="path592"/><path d="M415.8 304a54 54 0 0 1-4.4-9.1q1 4.8 2.6 8.6z" id="path593"/><path d="M406.6 301.3a46 46 0 0 1-3-8.8q.3 4.9 1.5 8.1z" id="path594"/></g><g fill="#AAA9A9" stroke="#AAA9A9" id="g608"><path d="M429.7 306.7c-1-1-3-3.8-4.2-5.6.4 1.3.9 3.4 2 5.3z" id="path595"/><path d="M422.5 305.3c-1.5-1.7-1.6-2.3-2.5-4.6q0 2.6 1 4.3z" id="path596"/><path d="M415 296.5q.6 3 1.9 5.8-2-2.8-3.4-6.3c.6 0 1 .5 1.6.5z" id="path597"/><path d="M412.6 302.6a25 25 0 0 1-3.1-6.8c0 2 .3 4.8 1.3 6.3z" id="path598"/><path d="M403.4 299.6q-1.5-2-2-6-.4 3.3.4 5.5z" id="path599"/><path d="M437.3 308q-1.5-2-2.3-5.3 1.9 3.7 4.1 5.4z" id="path600"/><path d="m437.4 301 1.5.3c-.1 2.7.8 4.1 1.6 5.6-1.2-.8-2.3-2.5-3.1-6z" id="path601"/><path d="M447.8 308.7c-1.3-1-2-3.2-2.6-5.7q1.7 3.6 4 5.7z" id="path602"/><path d="M452.6 301.6c1.4 3.9 2.9 5.4 4.3 6.7-1.1-2-2.3-3.8-2.9-6.6z" id="path603"/><path d="M466.5 308a10 10 0 0 1-3.4-5.5q2.1 3.8 5.1 5.4-.9 0-1.7.2z" id="path604"/><path d="M466.7 300.9q2.4 4.7 4.8 5.9c-1.2-1.4-2.3-3-3-6z" id="path605"/><path d="M477.1 306.5a8 8 0 0 1-2.9-4.1q1.8 2.7 4.1 3.8z" id="path606"/><path d="M485.8 304.6Q484 303 483 301a9 9 0 0 0 4.3 3z" id="path607"/><path d="M490.3 303.3a43 43 0 0 1-4-5.2 18 18 0 0 0 3.2 5.4z" id="path608"/></g><g fill="#72706F" stroke="#72706F" id="g611"><path d="m490.1 296.3 1-.3q2.4 2.5 3.7 5.5-1.9-3.4-4.7-5.2z" id="path609"/><path d="M494.4 295q2.7 1.5 4 5-2-3.2-5.2-4.6z" id="path610"/><path d="m499 293.5 1-.4q2.6 1.8 3.2 5-1.4-3-4.1-4.6z" id="path611"/></g><path d="m418.6 264.5 2.4-2c10.2 3.6 26.8 6 52 4.1a127 127 0 0 1-54.4-2.1z" fill="#C2C1C1" stroke="#C2C1C1" id="path612"/><path d="m485 264.2.5.4a134 134 0 0 1-67.9-.3l.7-.4q33.4 8.6 66.7.3z" fill="#1F1A17" stroke="#1F1A17" id="path613"/><g fill="#AAA9A9" stroke="#AAA9A9" id="g623"><path d="M422.5 264.8q1-2.8 2.6-4.2-1.2 2-1.6 4.4z" id="path614"/><path d="M429 264.5q1-3.5 3.6-5.8l1 .3q-2.8 2-4.6 5.5z" id="path615"/><path d="M430.6 266.4q1.3-3 3.5-4.2-1.6 2-2.1 4.3z" id="path616"/><path d="M438 267.3q.8-3 3.1-4.6-1.6 1.9-2 4.7z" id="path617"/><path d="M441 267.6q1.6-4.6 4.2-6c-1.1 1.6-2.4 3.3-3 6z" id="path618"/><path d="M457.4 260.3q-2.7 2-4 4.9a8 8 0 0 1 2.2-4.9z" id="path619"/><path d="M461.8 260a13 13 0 0 0-2.2 5.3q1.2-3 3.4-5.4z" id="path620"/><path d="M462.1 267.8q1.2-3.3 3.5-6.1-1.7 2.8-2.2 6z" id="path621"/><path d="M472 258.7a23 23 0 0 1-2.4 6q2.4-2.7 4-6.2z" id="path622"/><path d="m471.7 266.7 3.1-5.5q-.8 3-1.6 5.2z" id="path623"/><path id="polygon623" d="m477.8 265.7 1.6-4.1-.1 3.7z"/></g><g fill="#1F1A17" stroke="#1F1A17" id="g629"><path d="M424.9 265.3q2.2-4.4 5.8-7a23 23 0 0 0-4.5 7.4z" id="path624"/><path d="M434.5 267q2.4-4.8 5.6-7.6a30 30 0 0 0-4 7.7l-1.6-.2z" id="path625"/><path d="M444.8 268a28 28 0 0 1 5.5-8.2q-2.4 3.6-4 8.2z" id="path626"/><path d="M454.4 268.2a32 32 0 0 1 6-8.4 32 32 0 0 0-4.3 8.3z" id="path627"/><path d="M464.8 267.5q2.3-4.8 5.4-8.6-2.6 4.2-3.8 8.5z" id="path628"/><path d="M474 266.4c1.9-3 2-3.5 3.4-6.6-1 3-.4 3.6-2 6.3z" id="path629"/></g><path d="m414 268.8-2.4 1.6a138 138 0 0 0 70.8 2.7c-26 4-49.4 3-68.5-4.3z" fill="#C2C1C1" stroke="#C2C1C1" id="path630"/><g fill="#1F1A17" stroke="#1F1A17" id="g638"><path d="m491.5 270.5.7.3q-40.5 12.2-80.8-.3l.3-.4q39.9 12.3 79.8.4z" id="path631"/><path d="M484.9 272.4q-3-2-6-6.2a77 77 0 0 0 4 6.8z" id="path632"/><path d="M474.8 274.8c-2-2.4-3.5-4.1-5.3-7 1.1 3 2.2 4.8 3.7 7.2z" id="path633"/><path d="M465.2 276c-2.1-2.4-3.8-4.3-5.4-7.3 1 3.2 2.3 5 3.9 7.3z" id="path634"/><path d="M455.6 276.6a39 39 0 0 1-5.9-7.7c1.1 3.3 2.4 5.5 4.2 7.7z" id="path635"/><path d="M445.7 276.6c-1.9-2.6-3.6-4.8-5.2-8.1q1.4 4.9 3.6 8z" id="path636"/><path d="M436 275.7a82 82 0 0 1-5-8.5q1.4 4.3 3.6 8.2.8 0 1.4.3z" id="path637"/><path d="M425.9 274a53 53 0 0 1-5-8.9q1 4.4 2.8 8.3z" id="path638"/></g><g fill="#AAA9A9" stroke="#AAA9A9" id="g647"><path d="M429.7 274c-1-.9-3-3.8-4.2-5.6q.5 2.3 2 5.4c.4 0 1.8.3 2.2.2z" id="path639"/><path d="M422.5 272.6c-1.5-1.6-1.6-2.2-2.5-4.6q0 2.7 1 4.3z" id="path640"/><path d="M437.3 275.3q-1.5-2-2.3-5.2 1.9 3.6 4.1 5.4z" id="path641"/><path d="m437.3 268 1.5.4c0 2.8.8 4.2 1.6 5.7-1.2-.9-2.3-2.5-3.1-6z" id="path642"/><path d="M447.8 276q-1.8-1.7-2.6-5.7 1.7 3.7 4 5.8z" id="path643"/><path d="M452.6 269c1.4 3.8 2.9 5.4 4.3 6.6-1.1-2-2.3-3.7-2.9-6.6z" id="path644"/><path d="M466.5 275.4a10 10 0 0 1-3.4-5.5q2.1 3.9 5.1 5.3z" id="path645"/><path d="M466.7 268.2c1.6 3.3 3.2 5 4.8 6a14 14 0 0 1-3-6.1z" id="path646"/><path d="M477.1 273.8a8 8 0 0 1-2.9-4q1.8 2.6 4.1 3.7z" id="path647"/></g><path d="M416.7 271.2a8 8 0 0 1 0-5q-.1 3.3 1.1 5.5z" fill="#1F1A17" stroke="#1F1A17" id="path648"/><path d="M485.8 272q-1.8-1.6-2.8-3.6a9 9 0 0 0 4.3 3z" fill="#AAA9A9" stroke="#AAA9A9" id="path649"/><g fill="#1F1A17" stroke="#1F1A17" id="g651"><path d="M489.5 270.9c-1.4-1.5-3.2-3-4.6-5 .8 2 2.4 3.7 3.7 5.2z" id="path650"/><path d="m475.5 258-.9-.4q-23.2 4-46.6-.3l-.9.4q24.2 4.6 48.4.3z" id="path651"/><circle cx="451.38" cy="300.79" r="10.667" id="circle651"/></g><circle cx="451.38" cy="300.79" r="9.814" fill="#AAA9A9" stroke="#1F1A17" id="circle652"/><circle cx="451.38" cy="300.79" r="7.642" fill="#fff" stroke="#fff" id="circle653"/><g stroke="#1F1A17" id="g657"><circle cx="451.38" cy="300.79" r="4.634" fill="#1F1A17" id="circle654"/><path d="m437.1 390-.2-20.8c-.2-17.8 29.4-17.5 29.5 0l.2 20.7q-13.9 1.7-29.5 0z" fill="#1F1A17" id="path654"/><path d="m437.8 389.7-.2-20.1c-.1-17.4 28-17 28.2 0l.2 20q-13.3 1.6-28.2 0z" fill="#DEDEDD" id="path655"/><path d="m439.5 390-.1-18.4c-.2-15.8 24.7-15.5 24.8 0l.2 18.3q-11.8 1.5-24.9.1z" fill="#1F1A17" id="path656"/><path d="m440.1 390-.1-18c-.2-15.5 23.5-15.2 23.6 0l.2 18a99 99 0 0 1-23.7 0z" fill="#DEDEDD" id="path657"/></g><path d="m440.1 390-.1-18c-.2-15.5 23.5-15.2 23.6 0v6.3z" fill="#838281" stroke="#838281" id="path658"/><linearGradient id="s" x1="178.98" x2="178.98" y1="502.96" y2="499.39" gradientTransform="matrix(2.8346 0 0 -2.8346 -56 1676.2)" gradientUnits="userSpaceOnUse"><stop stop-color="#DEDEDD" offset="0" id="stop658"/><stop stop-color="#838281" offset="1" id="stop659"/></linearGradient><path d="M429.2 257.5q22.4-10.5 44.3.1-24 4.4-44.4-.1z" fill="url(#s)" stroke="#1F1A17" id="path659"/><g fill="#838281" stroke="#838281" id="g671"><path d="M487 296.3q1.9-2.8 2.6-5.6 0 2.7-1 5.2z" id="path660"/><path d="M488.4 312.4q1.8-2.8 2.5-5.6 0 2.6-1 5.2z" id="path661"/><path d="M489.6 328.5q1.9-2.8 2.5-5.6.1 2.7-1 5.2z" id="path662"/><path d="M488.7 345.2q1.9-2.9 2.5-5.6 0 2.6-1 5.1z" id="path663"/><path d="M488.5 361.8q1.9-2.7 2.5-5.6 0 2.7-1 5.2z" id="path664"/><path d="M488.3 378q1.8-3 2.5-5.7 0 2.7-1 5.2z" id="path665"/><path d="M493.6 294.3q1.9-2.8 2.5-5.6.1 2.7-1 5.2z" id="path666"/><path d="M495 310.4q1.7-2.8 2.4-5.6.1 2.6-1 5.2z" id="path667"/><path d="M496.2 326.5q1.9-2.8 2.5-5.6.1 2.7-1 5.2z" id="path668"/><path d="M496.4 342.9q1.8-2.8 2.5-5.6 0 2.5-1 5.2z" id="path669"/><path d="M496.6 359.4q1.9-2.8 2.5-5.6 0 2.6-1 5.2z" id="path670"/><path d="M496.4 375.5q1.9-2.8 2.5-5.6 0 2.7-1 5.2z" id="path671"/></g></g></g><!-- app4joy --></svg>