<svg xml:space="preserve" width="1949" height="1298" viewBox="0 0 1949 1298" id="svg48" xmlns:xlink="http://www.w3.org/1999/xlink" xmlns="http://www.w3.org/2000/svg"><defs id="defs41"><linearGradient id="grad1" x1="107.90783" y1="2647.0183" x2="-67.89035" y2="2822.8165" gradientUnits="userSpaceOnUse" gradientTransform="matrix(5.0228 0 0 .1991 763 108)"><stop offset="0%" stop-color="#699" id="stop1"/><stop offset="100%" stop-color="#eee" id="stop2"/></linearGradient><linearGradient id="grad2" gradientTransform="matrix(.5244 0 0 1.90693 763 108)" x1="1012.5773" y1="255.38495" x2="1033.5534" y2="255.38495" gradientUnits="userSpaceOnUse"><stop offset="0%" stop-color="#688" id="stop3"/><stop offset="100%" stop-color="#ded" id="stop4"/></linearGradient><linearGradient id="grad3"><stop offset="0%" stop-color="#9ba" id="stop5"/><stop offset="100%" stop-color="white" id="stop6"/></linearGradient><linearGradient id="grad4"><stop offset="0%" stop-color="white" id="stop7"/><stop offset="100%" stop-color="#7a9" id="stop8"/></linearGradient><linearGradient id="grad5" x1="0" y1="0" x2="0" y2="1" gradientUnits="objectBoundingBox"><stop offset="0%" stop-color="#8aa" id="stop9"/><stop offset="100%" stop-color="#eee" id="stop10"/></linearGradient><linearGradient id="grad7" x1="0" y1="0" x2="0" y2="1" gradientUnits="objectBoundingBox"><stop offset="0%" stop-color="#fe9" id="stop15"/><stop offset="25%" stop-color="#d80" id="stop16"/><stop offset="65%" stop-color="#fe5" id="stop17"/><stop offset="85%" stop-color="#c70" id="stop18"/><stop offset="100%" stop-color="#e80" id="stop19"/></linearGradient><linearGradient id="grad8"><stop offset="0%" stop-color="#fc3" id="stop20"/><stop offset="15%" stop-color="#e90" id="stop21"/><stop offset="55%" stop-color="#fe4" id="stop22"/><stop offset="90%" stop-color="#e81" id="stop23"/></linearGradient><linearGradient id="grad9"><stop offset="0%" stop-color="#d81" id="stop24"/><stop offset="100%" stop-color="#fd4" id="stop25"/></linearGradient><linearGradient id="grad10" x1="0" y1="0" x2="0" y2="1" gradientUnits="objectBoundingBox"><stop offset="0%" stop-color="#ec5" id="stop26"/><stop offset="100%" stop-color="#fe9" id="stop27"/></linearGradient><linearGradient id="grad11" x1="0" y1="0" x2="0" y2="1" gradientUnits="objectBoundingBox"><stop offset="0%" stop-color="#a81" id="stop28"/><stop offset="100%" stop-color="#ffa" id="stop29"/></linearGradient><linearGradient id="grad12" x1="0" y1="0" x2="0" y2="1" gradientUnits="objectBoundingBox"><stop offset="0%" stop-color="#d70" id="stop30"/><stop offset="100%" stop-color="#f91" id="stop31"/></linearGradient><linearGradient xlink:href="#grad3" id="linearGradient48" gradientTransform="matrix(3.3541 0 0 .29814 763 108)" x1="160.10247" y1="1767.6117" x2="227.18451" y2="1767.6117" gradientUnits="userSpaceOnUse"/><g id="thing"><path fill="white" d="m434 195 19 17L622 37 479 234l19 15-667 759-31 10 4-33Z" id="path31"/><path fill="url(#grad3)" d="M464 226 622 37 479 234Z" id="path32"/><path fill="url(#grad4)" d="m491 250 7-1-667 759-3-3Z" id="path33"/><path fill="url(#grad5)" d="m460 230 31 20-663 755-28 13Z" id="path34"/><path fill="#a99" d="m-172 1005 3 3-31 10Z" id="path35"/></g><g id="hammer"><path fill="url(#grad7)" d="M207 371c57 0 36-122 30-151-12-49-8-61-8-185 0-31-44-31-44 0 0 124 4 136-8 185-6 29-27 151 30 151" id="path36"/><path fill="url(#grad6)" d="M207 360c44 0 31-96 24-124-12-49-8-77-8-201 0-21-32-21-32 0 0 124 4 152-8 201-7 28-20 124 24 124" id="path37"/><path fill="url(#grad8)" d="M92 100h260V89c-67 0-91-34-101-56H91Z" id="path38"/><path fill="url(#grad12)" id="rect38" d="M92 92h260v8H92z"/><path fill="url(#grad9)" d="m92 100 8-8V42l-8-10Z" id="path39"/><path fill="url(#grad10)" d="M92 32h159l-6 10H100Z" id="path40"/><path fill="url(#grad11)" d="M352 92v-3c-67 0-91-34-101-56l-6 9c2 6 26 43 69 50Z" id="path41"/></g><radialGradient id="grad6" cx="207" cy="292" r="300" gradientUnits="userSpaceOnUse"><stop offset="0%" stop-color="#fe9" id="stop11"/><stop offset="10%" stop-color="#fd5" id="stop12"/><stop offset="33%" stop-color="#d60" id="stop13"/><stop offset="100%" stop-color="#fc1" id="stop14"/></radialGradient></defs><g id="g49"><path fill="#ff0000" id="rect41" d="M0 0h1949v1298H0z"/></g><g id="g48"><use xlink:href="#thing" id="use41" transform="translate(763 108)"/><use xlink:href="#thing" transform="matrix(-1 0 0 1 1183 108)" id="use42"/><path fill="#ffffff" d="m422 635 44 27 839 13v-20l220-20-220-18v-21l-839 13z" id="path42"/><path fill="url(#grad1)" d="M422 635h872l11 35-837-13-2 5z" id="path43"/><path fill="#cceedd" d="m1300 635 5 20v20l-2-6-9-34z" id="path44"/><path fill="url(#grad2)" d="m1300 635 5-18v-22l-11 40z" id="path45"/><path fill="url(#linearGradient48)" d="M1300 635h225l-220 20z" id="path46"/><path fill="#558888" d="m1303 669 2 6-839-13 2-5z" id="path47"/><use xlink:href="#hammer" id="use47" transform="translate(763 108)"/><use xlink:href="#hammer" y="740" id="use48" transform="translate(763 108)"/></g><!-- app4joy --></svg>