<svg height="600" width="900" viewBox="0 0 900 600" id="svg8" xmlns="http://www.w3.org/2000/svg"><g id="g9"><path fill="#d20000" id="rect1" d="M0 0h900v600H0z"/><path fill="gold" id="rect2" d="M0 0h250v600H0z"/><path fill="gold" id="rect3" d="M650 0h250v600H650z"/></g><g transform="translate(251.1 86.5)scale(.9916)" id="g8"><path d="m163.9 306.1.1 19 3.9 4.8h65.4l3.9-4.8.1-19h-20.7v4.2h-11.7l-4.3 5-4.4-5h-11.7V306zm120.1 0v29.2c.5 2.7 1.6 5.1 4.5 6.2v2l25.7 18.2v4.3l22.4 16.5.1 18.3H64.4l.2-18.3L86.9 366v-4.3l25.8-18.2v-2c2.9-1.1 3.9-3.5 4.4-6.2V306h-2.8v-32h1.7a17 17 0 0 1-5.2-6.3l-.4 1.9a34 34 0 0 0 .7 13c1 3.9 0 6.6-4.4 6.5-3 2.9-5.7 2.3-8 .3a5 5 0 0 1-5.4-3.8c-2.2-1-2.5-3.9.7-6.9s3-7 2.8-10.9a4 4 0 0 1 1.5-4.8 7 7 0 0 1 10-9h1.5a17 17 0 0 1 13.1-11.3v-.3h.2c-3-7 .1-16 10.2-19.8h4.8l2.8-4.1V47.3h3.5l10.4-9.4 10.4 9.3h3.7v7.5h5.3v-7.3h8.3V36h11l7.1-6.1 7 6.1h11v11.4h8.4v7.3h5.2v-7.5h3.7l10.4-9.3 10.5 9.3h3.5v171l3 4.3h4.6c10 3.8 13.3 12.8 10.2 19.9h.2v.2a17 17 0 0 1 13 11.3h1.6a7 7 0 0 1 10 9.1 4 4 0 0 1 1.5 4.8c-.2 3.9-.3 7.7 2.8 10.9s3 6 .7 6.9a5 5 0 0 1-5.4 3.7c-2.4 2.1-5.1 2.7-8-.2-4.5 0-5.3-2.7-4.4-6.6a34 34 0 0 0 .7-13l-.4-1.8a17 17 0 0 1-5.2 6.2h1.6v32H284z" id="path3"/><path d="m141.7 233.1 5.6-1.6a8 8 0 0 1 7.6-.2h2.4c1-.7 2.6-.8 3.6-1.5s1.7-1.3 2.6-.5v2.4a3 3 0 0 0 2.8-.1 6 6 0 0 0 4.2-2.7 2 2 0 0 1 3-.2l.2.2-.3 2.3c2.8.7 5.3 1 5.2-1.3 1.8-1.6 3.5-2.6 4.8 0 1 1.1 2.2 1.9 4.2 0a1.5 1.5 0 0 1 2.1 0q.6 2 3.4 0c.8 1.5 1.7 2.5 4.2 0a4 4 0 0 1 3.8 0c1.9 1.2 4.4 3.5 3.7 0 .3-1.3 1.4-2.2 2.6 0 1 1.1 2 2 3 .2a1.7 1.7 0 0 1 2.8.3c.9 1.6 2 2 2.7.2q1.3-3.4 2.6.2a6 6 0 0 0 2.9.3c1.3-.8 2.5-1.4 3.8.2l2-.3-.1-1.7h2.2l1.3 2.1q1.2 1.1 1.4.1 1.3-1.5 2.5.2 3.2 1 3-1.6l2.4-.5 3.5 1.8a1.7 1.7 0 0 0 3 .2l.4-2c1-.8 2.1-1.3 3.2.8l1.6 1q1.7 1.6 2.7.2l.6-1.1h2.5l2 2 3.2.1 3.3-.3 1.4 3.5-1 1-4.2-.6q-2.5 4.8-5-.8H255l-1.3 2.7-1.3-2.5h-1.8l-.6 1.8-1.3-1.5-1.6.5-1 2.2-1.4-2.4-2-.5-.6 2.2-1.3-1.8h-2.2l-.6 3-1.7-3-1.8-.1q-.3 1.6-2.4 0c-1.6-1.4-2.4-.5-3 .6-2.4 1.9-3.3.3-4.5-.7q-1.3 1.4-2.3 0l-1 .4q-1.8-1.6-2.2.7a2 2 0 0 1-2.7-.3q-1-1.7-2-.2-.4 1.6-2.9.3l-.8 1.6-2.3-2-1.9-.2-1.1 1.5-2.2-1.2q-.6 3.8-4-.5-1-1.6-2.2-.2l-.5 2-1.3-1.6-1.5-.1-1 1.8-.7.2-1.2-1.8c-1.7-1.6-2.4-.8-2.5 1l1.9 4q-2.7-.7-3.7-4.5h-1.2c-2 1.5-3.1.4-4-1s-1.6-.9-2.6-.2q-1.5 3.5-6.1-.5c-.8-1.6-1.6-1-2.4-.2l-.7 1.6q-4.6 1.2-5.9-1.6a1.2 1.2 0 0 0-1.6.3l-1 1.5q-.7 1.6-2.8.5l-2.2-2.4a1 1 0 0 0-1.6 0q-2.4 1-3-1.7a1.6 1.6 0 0 0-3-.2l-5.8 2q-2.2-.3-.8-1.8" fill="#a15a41" id="path4"/><path d="M171.6 189.2c1.3-2 3.4-2.8 4.6-2s1.3 3.2 0 5-3.3 2.9-4.6 2-1.3-3.1 0-5m57.9 0c-1.3-2-3.4-2.8-4.6-2s-1.3 3.2 0 5 3.3 2.9 4.6 2 1.2-3.1 0-5" fill="#009aff" id="path5"/><path d="M200.6 159.7a3.4 3.4 0 0 0 3.2-2.2h-6.4a3.4 3.4 0 0 0 3.2 2.2m0-16.7a3.4 3.4 0 0 1 3.2 2.2h-6.4a3.4 3.4 0 0 1 3.2-2.2m3.8 50.5c-.5-1.5-1.7-6.2-3.8-6.3-2.1.1-3.4 4.8-3.9 6.3-.6 2.1-.7 4.7 1.1 6.3a4 4 0 0 0 5.5 0c1.9-1.6 1.8-4.2 1.1-6.3" fill="#d20000" id="path6"/><path d="M208.2 266.6a48 48 0 0 1-1.4 6.5H275a14 14 0 0 0 11.6-6.5zm-82.2 6.6h68.2a27 27 0 0 0 3.4-6.6h-83.2a14 14 0 0 0 11.5 6.6M287.4 254a14 14 0 0 0-11.7-7.8 17 17 0 0 1-8 5h-60.3l.7 2.9zm-90.7-.1-1.9-3h-61.7a17 17 0 0 1-8-5 14 14 0 0 0-11.5 8h83z" fill="#008e1f" id="path7"/><path d="M245.1 46.8h-3l3-2.8zm2.3 0h3l-3-2.9zM250 88l-3.7-10.7-3.7 10.7zm-7.5-28.8 3.8 10.8 3.7-10.8zm8.8 20v-11l-3 5.4zm-10-11v11l3-5.5zM252.4 56h-12.7a1.4 1.4 0 0 0-1.4 1.4v32.3a1.4 1.4 0 0 0 1.4 1.4h12.8a1.4 1.4 0 0 0 1.4-1.4V57.5a1.4 1.4 0 0 0-1.4-1.4zm-17.3 43.8v85l.2.2a4 4 0 0 1 5.6.7l.3.5v-74.4a2 2 0 0 1 1.6-1.7h5a2 2 0 0 1 1.7 1.7v88.5a4 4 0 0 1 3 7.1l4.4 6.3V100zm9.4 96.7 1.6 2.1v-85.2h-1.6zm-9.4-146.2h22V97h-22zM108 260a3.4 3.4 0 0 1-3.3 3.4 3.4 3.4 0 0 1-3.4-3.4 3.4 3.4 0 0 1 3.4-3.3 3.4 3.4 0 0 1 3.3 3.3m192.1 0a3.4 3.4 0 0 1-3.3 3.4 3.4 3.4 0 0 1-3.4-3.4 3.4 3.4 0 0 1 3.4-3.3 3.4 3.4 0 0 1 3.3 3.3m-96.4-126.4a3 3 0 0 1-2.8 3 3 3 0 0 1-3-3 3 3 0 0 1 3-2.9 3 3 0 0 1 2.8 3m-45-45.6L155 77.2 151.2 88zm-7.4-28.8L155 70l3.7-10.8zm8.7 19.9v-11l-3.1 5.5zm-10-11v11l3.1-5.5zm119 220 5.1-4.6H264zm0 3.6-5 4.7h10zm3.2-1.8 4.7 5.1V285zm-6.6 0-4.6 5v-10zm-133.5-1.8-5.1-4.6h10.1zm0 3.6 5 4.7H127zM129 290l-4.7 5.1V285zm6.6 0 4.7 5.1V285zm67-16h-4.3a20 20 0 0 0 1.2-22.9h4c.4.6 5.8 12.5-.9 22.8m2.8-102.2H196a170 170 0 0 0-28.2 51h20l3.5-3q1.4-1.2 1-1.9l-3.1-4.4a2 2 0 0 1-.4-2.7c1.3-1.5 3.9-2.2 6.6-2.2-2.3-1.4-2-4.3 1.8-3.5l1.7-.6a9 9 0 0 1-5.3-4c-1.8-3.2-1.1-6.3.3-10a21 21 0 0 1 3.3-5.8 6.6 6.6 0 1 1 6.7.2 21 21 0 0 1 3.2 5.5c1.4 3.7 2.1 7 .3 10.1a9 9 0 0 1-5.3 4l1.7.6c3.7-.9 4.1 2 1.8 3.5 2.7 0 5.3.6 6.6 2.2a2 2 0 0 1-.4 2.7l-3 4.4q-.5.8 1 1.8l3.5 3h20.1a170 170 0 0 0-28.1-50.9m88.3 93.8c-.3 3-.4 5.8 1.4 8.2.4-3.4.5-6.4-1.4-8.2m-.3 12.8c-.3 3-.4 5.7 1.4 8.2.4-3.4.5-6.4-1.4-8.2m7.5 0c-.3 3-.4 5.7 1.4 8.2.4-3.4.5-6.4-1.4-8.2m-3.7-5.9c-.3 3-.4 5.7 1.4 8.2.4-3.4.6-6.4-1.4-8.2m2.2-6.7c-.3 3-.4 5.7 1.4 8.2.4-3.4.5-6.4-1.4-8.2m-90.7-8v-.1m0 0a34 34 0 0 1 0 5.5h81.1v-5.5zm-10.5 0h-86.9v5.5h87.2a15 15 0 0 0-.3-5.5m-90.3 20.7c-2 1.8-1.9 4.8-1.5 8.2 1.8-2.5 1.6-5.3 1.5-8.2m-3.8-5.9c-2 1.8-1.9 4.8-1.5 8.2 1.8-2.5 1.8-5.3 1.5-8.2m3.5-6.9v.1m0 0c-2 1.8-1.9 4.8-1.5 8.2 1.8-2.5 1.7-5.3 1.5-8.2m-5.6 0v.1m0 0c-2 1.8-1.9 4.8-1.5 8.2 1.8-2.5 1.7-5.3 1.5-8.2m-1.6 12.6c-2 1.8-1.9 4.8-1.5 8.2 1.8-2.5 1.7-5.3 1.5-8.2m99.5 27-3 2.9 3.7 3.8 3-2.8zm-.8-15.9v-11h-12.2l3.4 4h6v5.5l-9 7.4v12.1h8l2.8-3.3-2.6-2.5-1.1 1.6h-2.7v-7.4zm-22.4-3-1.4 1.4 2.2 2.3 1.4-1.4zm-1.6 9-7.6-6.9-1.9 1.5 7.3 6.6h10.4v-4zm7.3-17H171v6.2l7.9-3.9 8.7 8.7 3-2.2zm-16 4.7v-4.6h-11.5v-.1 6l1.4.2v-4.2h7.7q1.4.4.5 2.3l-9.6 9.6v4.4h9.8l-4.8-4.1v-3.2m-8.1 11.8v-24h-2.8v26h35.6v-2zm50.4-22.8v11l2.9-1.3v-5.6h5.9l3.3-4zm8.8 20.6v4.2h-2.5l-8.7-8.2-2.3 1.8 10.9 10.9 7-.5v-12.9zm13.5-12.5-2.3 2.3 1.4 1.4 2.2-2.3zm9.4 2-7.7 7-8.3-3v4.1h10.4l7.4-6.6zm-13.2-10.2L205 294.6l1.8 1.5 15.6-15.5 7.9 4v-6.4zm25.9 6v-6h-11.8l.1 4.7 6.4 6.3v3.2l-4.7 4.1h9.9V292l-9.6-9.5q-1-1.9.4-2.4h7.8v4.2m4.5-7.3v24h-33v2.1h35.7v-26zm2.7-.2v.1m-95.7 48.8V307h-3.2v24h5.6a6 6 0 0 1-2.4-5.3m-1.7 8.1 4 4.4h3.5v-4.4zm-4.3-1v-27.6H149l.1 28a11 11 0 0 0 5.8 7.5v7.9h1.6v-8.5a11 11 0 0 1-6-7.4m-5 .2V305h-25v28.6a12 12 0 0 1-2 7.1h29.9a16 16 0 0 1-3-7.6m-29.6 11h34.8v7.1h-34.8zM244.7 307v19a6 6 0 0 1-2.5 5.2h5.6v-24zm-6 26.8v4.4h3.5l4.1-4.4zm11.9-28.6v27.5a11 11 0 0 1-6 7.4v8.5h1.7v-8a11 11 0 0 0 5.8-7.3v-28zm30 28v-28.6h-24.9V333a16 16 0 0 1-2.9 7.6h30a12 12 0 0 1-2.1-7.2m-30 10.6h34.8v7.2h-34.8zm38 3.2v6.9h-42.2l-4.6-4.6-.5-8c-6.2.2-9.6-2.3-8.8-9h-64c.9 6.6-2.5 9.2-8.7 8.9l-.5 8-4.6 4.6h-42.2v-6.8l-18.8 13.7h213.7m-239.8 24h266V398h-266zM314.5 370v7H86.8v-7l-15.9 11.8h259.3zM90 363.4h221.4v10.8H90zm113.7-266a3 3 0 0 1-2.9 3 3 3 0 0 1-2.8-3 3 3 0 0 1 2.8-2.8 3 3 0 0 1 3 2.8m15.7 17.5a3 3 0 0 1-2.9 2.9 3 3 0 0 1-2.8-2.9 3 3 0 0 1 2.8-2.9 3 3 0 0 1 3 3m-32.4 0a3 3 0 0 1-2.9 2.8 3 3 0 0 1-2.8-2.9 3 3 0 0 1 2.8-2.9 3 3 0 0 1 3 3m14.2-.8V103h-1.3v11.2h-10.4v1.4H200v11.2h1.3v-11.2h10v-1.4zm-.9-28.1c-14 0-26 6.4-31.5 15.4v79.7q2.1-2.4 4.4-4.7a4 4 0 0 1 5-5l2.6-2.3a4 4 0 0 1 1.2-4c-.6-1-.2-2.9.7-3v-2.9a8.6 8.6 0 0 1-1.2-12 8 8 0 0 1 2-1.8c-1.3-5.2 5.4-9.6 10.6-7.4l2.5-.5a6 6 0 0 1-.1-8.2l.8-.7V118h-8.4a5.8 5.8 0 1 1 0-6.5h8.4v-9.3a5.8 5.8 0 1 1 8-1.6 6 6 0 0 1-1.5 1.6v9.3h7.9a5.8 5.8 0 1 1 1.5 8L212 118h-7.7v10.7a6 6 0 0 1 1.6 8l-1 1 2.3.5c5.2-2.2 11.9 2.2 10.6 7.3a8.6 8.6 0 0 1 2.5 12l-1.7 2v2.8c.8.2 1.2 2 .6 3a4 4 0 0 1 1.3 3.9l2.5 2.3a4 4 0 0 1 5 2.5 4 4 0 0 1 0 2.5l4.4 4.6v-79.7c-5.4-9-17.5-15.3-31.5-15.3zm-15.7 74.5h31.7v2h-31.7zM196 142a6.5 6.5 0 0 1 9.2 0c-.1-3.8-9.2-3.7-9.2 0m-9 2.5 5.7-3c-1.8-2-6.3-.3-5.8 3m-2.2 11.5v-6.5c-2.4.6-3.1 5.5 0 6.5m8 1.3v-8.6c-3.3.8-4.3 7.2 0 8.6m15.8-8.7v8.7c4.3-1.4 3.3-7.8 0-8.7m8 1v6.5c3.1-1 2.4-5.9 0-6.5m-8-8.2 5.8 3c.5-3.2-4-4.9-5.8-3M156 43.8v2.9h3zm-5.4 2.9h3v-2.9zm4.3 66.7v85.3l1.6-2v-83.3zm84.3 73.5a2 2 0 0 0-1.2-.5l-1 .3 2.3 2.8a2 2 0 0 0-.1-2.6m-75.8-.6a2 2 0 0 0-1.3.5 2 2 0 0 0 0 2.7l2.4-2.9zm-3.5 3.7v2.3l1-1.1zM144 100v114l4.6-6.4a4 4 0 0 1 2.2-7.3h.7v-88.4a2 2 0 0 1 1.6-1.7h5.1a2 2 0 0 1 1.6 1.7v74.5l.4-.6a4 4 0 0 1 5.6-.7V99.9h.2-21.8zm96.5 91.2.9 1v-2zm-89.9 11.6a1.5 1.5 0 0 0-.7 2.8l1.7-2.4zm101 .7a2 2 0 0 0-1.2-.7 1 1 0 0 0-1 .4l1.7 2.4a1.5 1.5 0 0 0 .6-2.1zm-49.2-168V40l3.2-2.5zm-7 1.9 3.2 2.5v-4.4zM219.2 74l4.1 2v-6.4zm-41.6-4.4V76l4.1-2zm-8.2 19.3v1.6A45 45 0 0 1 193.2 80l-3.6-3.4v-3.7l-15-15.5h-6v28.4a66 66 0 0 1 14-6.8l.2-1.8-5.6 2.5q-2.4 1.2-2.5-1.4v-13q.4-1.6 2.4-.9l10.4 10v5a77 77 0 0 0-17.9 9.6m42.8-32.5-2.2 2.1 4.3 4.5 2.1-2.3zm5.4-5.8-2.7 2.8 5.8 5 2.6-2.8v-5zm-34.5 0h-5.7v5l2.7 2.8 5.7-5zm9.5 1-10.1 9.1 3.3 3.5 10.2-9zm1-12.4h-8.4v8.6l2.4 2.8 2.9-2.3-1.5-1.9c0-1.2.3-2.2 2-1.7l8.8 9 4.3-3.8m33.4 150a1.6 1.6 0 1 0 1.7 1.6 2 2 0 0 0-1.7-1.6m-74.2 0a2 2 0 0 0-1.6 1.7 1.6 1.6 0 1 0 1.6-1.7m38.6 7.6a1.5 1.5 0 0 1-1.5 1.5 1.5 1.5 0 0 1-1.5-1.5 1.5 1.5 0 0 1 1.5-1.5 1.5 1.5 0 0 1 1.5 1.5m7.2 5.2a1.5 1.5 0 0 1-1.5 1.5 1.5 1.5 0 0 1-1.5-1.5 1.5 1.5 0 0 1 1.5-1.5 1.5 1.5 0 0 1 1.5 1.5m-26.3-36a2 2 0 0 0-1.6 1.6 1.6 1.6 0 1 0 1.6-1.6m35.1-.2a1.6 1.6 0 1 0 1.6 1.6 2 2 0 0 0-1.6-1.6m-17.3.8a1.6 1.6 0 1 0 1.7 1.6 1.6 1.6 0 0 0-1.7-1.6m-29.2 22a4 4 0 0 1 2 1.5l1.2-2.5a8 8 0 0 1-3.2 1m-14.3 23.1h6.2l1.6-3.7a13 13 0 0 1-7.8 3.7m-5.3-11.9v-.3q-4.3 6-8.3 12.3h7.1c-1.7-3.5-2.4-7 2-10 .9-2-.6-1.4-.8-2m18-2.9a4 4 0 0 1-4-2.6 4.4 4.4 0 0 1-6-1 4 4 0 0 1-.7-3.6l-5.7 7.6a3 3 0 0 1 3 1.6c.5.9 1.3.4 1.8 0l1.6-1.9c1.2-1.4 2.9-1.2 4.1.5.2 1.1-.3 2.4 1.6 2.8a4 4 0 0 1 3.2-.7l1.3-2.7zm-1.5-9c-2-1.3-2.6-4.3-1.7-7.5l-5.5 6.6a4.3 4.3 0 0 1 6 1.7l.2.4a4 4 0 0 1 1.9-.7zm10.3-19.3v-1.3l-4 4.1a5 5 0 0 1 6.2 2.5 5 5 0 0 1 .4 2l2.6-4a4.3 4.3 0 0 1-5.2-3.3m5.8-7.7c-.6.7-1.3 1.9-2 2.5h.4a4.3 4.3 0 0 1 4.3 3.7l4-6.2zm23.2 50.8a14 14 0 0 0-14.6 0zm27.7-4.8 2 4.8h6.3a14 14 0 0 1-8.3-4.8m21.8 4.8q-4-6.2-8.3-12.2v.3c0 .6-1.6 0-.8 1.9 4.5 3.1 3.9 6.5 2 10zm-15.7-22a4.3 4.3 0 0 1-6.6 4.6 4 4 0 0 1-4.1 2.6h-.1l1.3 2.7a4 4 0 0 1 3.2.6c1.9-.3 1.4-1.6 1.6-2.7 1.2-1.7 2.9-1.9 4.1-.5l1.6 1.8c.5.5 1.3 1 1.8.1a3 3 0 0 1 3-1.6l-6-7.6m-15.3-2 1.3 2.5a4 4 0 0 1 1.9-1.5 8 8 0 0 1-3.2-1m8.1-7.3c.9 3.2.3 6.2-1.8 7.5l-.8.5a4 4 0 0 1 2 .7 4.3 4.3 0 0 1 6-2q-2.6-3.4-5.4-6.7m-12-13-.1 1.3a4.3 4.3 0 0 1-5.4 3l2.8 4.3a5 5 0 0 1 .3-2 5 5 0 0 1 6.3-2.5zm-6-6.5h-6.8c1.4 1.8 2.8 4.3 4.2 6.2a4.3 4.3 0 0 1 4.3-4c-.5-.5-1-1.6-1.7-2.2m7.5-92.1-5.6-2.5.1 1.8a66 66 0 0 1 14 6.8V57.3h-6l-15 15.5v3.7L208 80a45 45 0 0 1 23.6 10.6v-1.7a78 78 0 0 0-18-9.5v-5L224 64.3q2-.8 2.5 1v13q-.2 2.4-2.5 1.3m-9.8-40.4H207l-5 3.7 3.7 4 1.9-1.7 3 3.2-8.5 7.4v19a1.9 1.9 0 0 1-3.6 0v-17l-5.8 5V74l8 7 6-6.3V56.4l7.6-6.8zM144 50.3h22v46.5h-22zm-26.8 226.8v26h29v-26zm138 0v26h29v-26zm-40.4-79.6c-2 .4-4-1.6-4.5-4.2s.7-5.3 2.7-5.7c2-.3 4 1.6 4.5 4.3s-.7 5.2-2.7 5.6m-23.6-4.2c-.5 2.7-2.5 4.6-4.5 4.3s-3.2-3-2.7-5.6 2.5-4.7 4.5-4.3 3.2 3 2.7 5.6M161.2 56h-12.7a1.4 1.4 0 0 0-1.4 1.5v32.2a1.4 1.4 0 0 0 1.4 1.5h12.8a1.4 1.4 0 0 0 1.4-1.5V57.5a1.4 1.4 0 0 0-1.4-1.5zm119.2 243.3h-21.7v-18.7h21.7zm-159.7-18.7h21.7v18.7h-21.7zm185.4 84.8h-211a5 5 0 0 0 0 6.7h211a5 5 0 0 0 0-6.7m21.5 30h-254a8 8 0 0 1 0-8.2h254c1.2 2.6 1.5 5.8 0 8.2" fill-rule="evenodd" fill="#ffd700" id="path8"/></g><!-- app4joy --></svg>