<svg width="800" height="533.68" id="svg245" viewBox="0 0 800 533.68" xmlns:xlink="http://www.w3.org/1999/xlink" xmlns="http://www.w3.org/2000/svg"><defs id="defs6"><linearGradient id="e"><stop stop-color="#00adef" offset="0" id="stop1"/><stop stop-color="#46c3f3" offset=".56234" id="stop2"/><stop stop-color="#8cd9f7" offset="1" id="stop3"/></linearGradient><linearGradient id="a"><stop stop-color="#00adef" offset="0" id="stop4"/><stop stop-color="#46c3f3" offset=".5" id="stop5"/><stop stop-color="#8cd9f7" offset="1" id="stop6"/></linearGradient><linearGradient id="d" x1="-347.32" x2="-295.76" y1="592.96" y2="624.08" gradientUnits="userSpaceOnUse" xlink:href="#e"/><linearGradient id="c" x1="-346.49" x2="-408.37" y1="654.37" y2="654.37" gradientUnits="userSpaceOnUse" xlink:href="#a"/><linearGradient id="b" x1="-310.32" x2="-295.11" y1="663.9" y2="673.45" gradientUnits="userSpaceOnUse" xlink:href="#a"/><linearGradient xlink:href="#e" id="linearGradient245" gradientUnits="userSpaceOnUse" x1="-347.32" y1="592.96" x2="-295.76" y2="624.08"/><linearGradient xlink:href="#a" id="linearGradient246" gradientUnits="userSpaceOnUse" x1="-346.49" y1="654.37" x2="-408.37" y2="654.37"/><linearGradient xlink:href="#a" id="linearGradient247" gradientUnits="userSpaceOnUse" x1="-310.32" y1="663.9" x2="-295.11" y2="673.45"/></defs><g id="g248"><path fill="#009bde" id="rect6" d="M0 0h800v533.7H0z"/></g><g id="g247"><path d="M363.4 115v6.2h73.5V115h-36.7z" fill="#cccccc" stroke="#000000" stroke-width="1.2" id="path6"/><g transform="matrix(.50328 0 0 .50316 647 -279.3)" fill="#ffffff" stroke="#000000" stroke-width="1.5898" id="g40"><path d="M-622.7 1522.9v41.8h264.1v-41.8h-132z" id="path7"/><path d="M-595 1494.4c-8.9 9.5-15.4 19.2-27.7 28.5h264.1c-12.2-9.3-18.8-19-27.7-28.5h-104.3z" id="path8"/><g id="g18"><path d="M-561 925.7v12.5h140.8v-12.5h-70.4z" id="path9"/><path d="M-583.6 1339.4v132.4h186v-132.4h-93z" id="path10"/><path d="M-587.2 1263.7a8 8 0 0 0-8 8v12.8a8 8 0 0 0 8 8H-394a8 8 0 0 0 8-8v-12.8a8 8 0 0 0-8-8h-96.5z" id="path11"/><path d="M-564.7 907c-3.6 0-6.5 3-6.5 6.6v9.1c0 3.7 2.9 6.6 6.5 6.6h148.1c3.7 0 6.6-3 6.6-6.6v-9.1c0-3.7-3-6.6-6.6-6.6h-74z" id="path12"/><path d="M-570.7 794.4v20.8h160.1v-20.8h-80z" id="path13"/><path d="M-580 812.7v18.5h178.7v-18.5h-89.3z" id="path14"/><path d="m-554.4 938.2-16.5 325.5h160.6l-16.5-325.5h-63.8z" id="path15"/><path d="M-579.8 831c17.4 24.6 13.1 59 26.3 76h125.7c13.3-17 9-51.4 26.4-76h-89.2z" id="path16"/><path d="M-596 1320.2v22.3h210.7v-22.3h-105.3z" id="path17"/><path transform="translate(-125 76.6)" d="M-289.5 1372.6a7.5 7.5 0 1 1-15 0 7.5 7.5 0 0 1 15 0z" id="path18"/></g><path d="M-528.6 1356.6c0 14.8-17 31-31 31v45c14.3 0 31.1 14.8 31.1 31.2h75.7c0-16.4 16.9-31.1 31.1-31.1v-45.2c-13.9 0-31-16.1-31-30.9h-76z" id="path19"/><path d="M-519.3 1382.3c-2.4 3.5-3.6 6-9.3 9v32.4c4.8 3.1 6.5 4.2 9.4 9h57.1c3-4.8 4.7-5.9 9.4-9v-32.5c-5.7-2.8-6.9-5.4-9.3-8.9z" id="path20"/><path transform="translate(-125 -12.4)" d="M-289.5 1372.6a7.5 7.5 0 1 1-15 0 7.5 7.5 0 0 1 15 0z" id="path21"/><path d="M-438.7 851.5c-.7-6.1-.6-11.4-9.6-17.5-11 4-17.7 10.6-18.6 22" id="path22"/><g transform="translate(0 -.2)" id="g28"><path transform="translate(-125 75.6)" d="M-365.6 1183.7c8.3 0 10.2-5 11.7-8.3 0 0 3 8.3 10.6 8.3s10.2-8.3 10.2-8.3 1.9 8.2 8.7 8.3c6.9 0 9.3-8.3 9.3-8.3s1.2 8.3 8.6 8.3 8.6-8.3 8.6-8.3 0 8.3 5.5 8.3 6.5-8.4 6.5-8.4" id="path23"/><path d="M-490.6 941.5c6.7 0 8.3 3.5 9.5 5.8 0 0 2.4-5.8 8.6-5.8s8.3 5.8 8.3 5.8 1.6-5.8 7.1-5.8 7.5 5.8 7.5 5.8 1-5.8 7-5.8 7 5.8 7 5.8.1-5.8 4.6-5.8 4.6 5.8 4.6 5.8" id="path24"/><path transform="translate(-125 75.6)" d="m-298 1175.4-12.4-304.2" id="path25"/><path transform="translate(-125 75.6)" d="m-315 1175.4-9.4-304.2" id="path26"/><path transform="translate(-125 75.6)" d="m-333.1 1175.4-6-304.2" id="path27"/><path transform="translate(-125 75.6)" d="m-354 1175.4-2-304.2" id="path28"/></g><path transform="translate(-265 76.6)" d="M-289.5 1372.6a7.5 7.5 0 1 1-15 0 7.5 7.5 0 0 1 15 0z" id="path29"/><path transform="translate(-265 -12.4)" d="M-289.5 1372.6a7.5 7.5 0 1 1-15 0 7.5 7.5 0 0 1 15 0z" id="path30"/><g transform="matrix(-1 0 0 1 -981.2 -.2)" id="g36"><path transform="translate(-125 75.6)" d="M-365.6 1183.7c8.3 0 10.2-5 11.7-8.3 0 0 3 8.3 10.6 8.3s10.2-8.3 10.2-8.3 1.9 8.2 8.7 8.3c6.9 0 9.3-8.3 9.3-8.3s1.2 8.3 8.6 8.3 8.6-8.3 8.6-8.3 0 8.3 5.5 8.3 6.6-8.3 6.6-8.3" id="path31"/><path d="M-490.6 941.5c6.7 0 8.3 3.5 9.5 5.8 0 0 2.4-5.8 8.6-5.8s8.3 5.8 8.3 5.8 1.6-5.8 7.1-5.8 7.5 5.8 7.5 5.8 1-5.8 7-5.8 7 5.8 7 5.8.1-5.8 4.6-5.8 4.7 5.8 4.7 5.8" id="path32"/><path transform="translate(-125 75.6)" d="m-298 1175.4-12.4-304.2" id="path33"/><path transform="translate(-125 75.6)" d="m-315 1175.4-9.4-304.2" id="path34"/><path transform="translate(-125 75.6)" d="m-333.1 1175.4-6-304.2" id="path35"/><path transform="translate(-125 75.6)" d="m-354 1175.4-2-304.2" id="path36"/></g><path d="M-543.7 851.5c.8-6.1.7-11.4 9.6-17.5 11.1 4 17.8 10.6 18.7 22" id="path37"/><path d="M-490.6 835.5c-3.4 1.3-20.2 10.6-12.7 25.8 1 2-1.5 3.9-3.2 1.4-15.8-22.4-34.8 16.3-9 14.3 0 0-.4-5.6 4.7-5.2 4.4.4 5.4 7.5 4.6 10.4-3.5 13.5-22.8 13.3-34.5 4.2-5-3.8-9.2-14.3-5.1-17.4 4.4-3.5 6 2.2 3.6 4 29-1.8.8-39.3-10.3-11-.9 2.2-2.4 1-2.2-.3 5.5-34.7-36.6-20.6-21.3-5.2.9-3.7 10.4-1.4 13.8 13.5 9.3 39.7 52.7 47.5 71.6 20.3 18.9 27.2 62.2 19.4 71.5-20.3 3.5-14.9 13-17.2 13.8-13.5 15.3-15.4-26.8-29.5-21.3 5.2.2 1.3-1.3 2.5-2.2.3-11-28.3-39.3 9.2-10.3 11-2.4-1.8-.8-7.5 3.7-4 4 3.1-.2 13.6-5.2 17.4-11.7 9.1-31 9.3-34.5-4.2-.8-3 .3-10 4.6-10.4 5.1-.4 4.7 5.2 4.7 5.2 25.9 2 6.8-36.7-9-14.3-1.7 2.5-4.2.6-3.2-1.4 7.6-15.2-9.3-24.5-12.6-25.8z" id="path38"/><path d="M-591.4 1469.2a10 10 0 0 0-10 10v5.3a10 10 0 0 0 10 10h201.6a10 10 0 0 0 10-10v-5.3a10 10 0 0 0-10-10h-100.8z" id="path39"/><path d="M-609.2 1292.4v32.5H-372v-32.5h-118.5z" id="path40"/></g><g transform="matrix(.50328 0 0 .50316 647 -279.3)" id="g244"><g transform="translate(0 205.2)" id="g243"><g stroke="#000000" id="g52"><path transform="matrix(1.0367 0 0 .96215 -111.7 95.8)" d="M-289.7 505h-149.8c0-8.3 33.2-16.1 74.6-16.1s75.2 7.8 75.2 16z" fill="#800000" stroke-width="0.99488" id="path41"/><g transform="translate(0 -60.8)" stroke-width="0.9936" id="g46"><path d="M-312.8 633c10.6-5.2 23.4-1.2 25.8-6.3 8.1-17.8-14.2-11.5-29.2-20.8-4.7-2.9-10.9-17-17.6-21.6-11.1-7.7-22.6-5.2-22.6.6 0 28.8 38.6 54.8 43.6 48z" fill="url(#linearGradient245)" id="path42"/><path d="M-356.4 584.1c1.7 19 18.1 21.2 19.9 26.6 3.6 12.3-17.7 27.4-18.4 26.7 1.5-15.6-3.8-39.1-1.6-53.3z" fill="#00adef" id="path43"/><path d="M-428 635.7c7.2 34.5 82.4 31.8 89 12 1.7-5.3-.2-11.6 1-17.4 1-5.7 5.3-10.8 1.4-19.8 2.1 25.6-64 45.8-82.4 30.5-3.7-3.7-5.3-3-9-5.3z" fill="url(#linearGradient246)" id="path44"/><path d="M-297.3 654.3c-.2-5.3 8.8-22.7 10.5-28.3-5 7.2-22.7.1-26.1 2-9.8 6.5 10.1 25 15.6 26.3z" fill="#00aeef" id="path45"/><path d="M-291.2 681a27 27 0 0 1 6.7 25c8-7.7 8.3-15.1 7.2-22.6-4.7-33.8-39.8-37-36.1-55.3-2.8.4-4.2 5.5-1.7 21.5-5.5 4.8-4 12 .9 17.4 9 9.7 21.9 21.6 9.9 43 10.5-3 12.3-19 13-29z" fill="url(#linearGradient247)" id="path46"/></g><g transform="matrix(-1 0 0 1 -982.9 -60.8)" stroke-width="0.9936" id="g51"><path d="M-312.8 633c10.6-5.2 23.4-1.2 25.8-6.3 8.1-17.8-14.2-11.5-29.2-20.8-4.7-2.9-10.9-17-17.6-21.6-11.1-7.7-22.6-5.2-22.6.6 0 28.8 38.6 54.8 43.6 48z" fill="url(#d)" id="path47"/><path d="M-356.4 584.1c1.7 19 18.1 21.2 19.9 26.6 3.6 12.3-17.7 27.4-18.4 26.7 1.5-15.6-3.8-39.1-1.6-53.3z" fill="#00adef" id="path48"/><path d="M-428 635.7c7.2 34.5 82.4 31.8 89 12 1.7-5.3-.2-11.6 1-17.4 1-5.7 5.3-10.8 1.4-19.8 2.1 25.6-64 45.8-82.4 30.5-3.7-3.7-5.3-3-9-5.3z" fill="url(#c)" id="path49"/><path d="M-297.3 654.3c-.2-5.3 8.8-22.7 10.5-28.3-5 7.2-22.7.1-26.1 2-9.8 6.5 10.1 25 15.6 26.3z" fill="#00aeef" id="path50"/><path d="M-291.2 681a27 27 0 0 1 6.7 25c8-7.7 8.3-15.1 7.2-22.6-4.7-33.8-39.8-37-36.1-55.3-2.8.4-4.2 5.5-1.7 21.5-5.5 4.8-4 12 .9 17.4 9 9.7 21.9 21.6 9.9 43 10.5-3 12.3-19 13-29z" fill="url(#b)" id="path51"/></g></g><g id="g242"><path d="m-497.6 382.4 4.6 16.6-16.6-4.6v15.3l16.6-4.5-4.6 16.5h15.4l-4.6-16.5 16.5 4.5v-15.3l-16.5 4.6 4.6-16.6z" fill="#f3cd00" stroke="#000000" stroke-width="0.9936" id="path52"/><g fill="#9a6105" stroke="#000000" id="g56"><path transform="matrix(1.0558 0 0 1.2236 -121.4 -15.3)" d="M-328.4 383.7c0 4.2-2.4 7.6-5.3 7.6-3 0-5.3-3.4-5.3-7.6s2.4-7.6 5.3-7.6 5.3 3.4 5.3 7.6z" stroke-width="0.87421" id="path53"/><path transform="matrix(1.1092 0 0 1.4826 -86.7 -110.5)" d="M-328.4 383.7c0 4.2-2.4 7.6-5.3 7.6-3 0-5.3-3.4-5.3-7.6s2.4-7.6 5.3-7.6 5.3 3.4 5.3 7.6z" stroke-width="0.77481" id="path54"/><path transform="matrix(-1.0558 0 0 1.2236 -858.7 -15.3)" d="M-328.4 383.7c0 4.2-2.4 7.6-5.3 7.6-3 0-5.3-3.4-5.3-7.6s2.4-7.6 5.3-7.6 5.3 3.4 5.3 7.6z" stroke-width="0.87421" id="path55"/><path transform="matrix(-1.1092 0 0 1.4826 -893.6 -110.5)" d="M-328.4 383.7c0 4.2-2.4 7.6-5.3 7.6-3 0-5.3-3.4-5.3-7.6s2.4-7.6 5.3-7.6 5.3 3.4 5.3 7.6z" stroke-width="0.77481" id="path56"/></g><g stroke="#000000" id="g60"><path transform="translate(-125 76.7)" d="M-351.1 356.9a13.8 13.8 0 1 1-27.6 0 13.8 13.8 0 0 1 27.6 0z" fill="#f4c901" stroke-width="0.9936" id="path57"/><path d="M-490 419.3c-1.2 0-3.1.2-3.4.7v10c-3 .3-8 .5-10 1.6-.8.4-2 5.6.8 4.7 4-1.4 8.9-1.5 12.6-1.5s8.7.1 12.6 1.5c2.7.9 1.6-4.3 1-4.7-2.2-1.1-7.2-1.3-10.2-1.5v-10c-.2-.6-2.1-.8-3.4-.8z" fill="#c68413" stroke-width="0.9936" id="path58"/><path transform="rotate(-22.2)scale(1 .6988)skewX(35.6)" fill="#f3cd00" stroke-width="1.1886" id="rect58" d="M-1008.6 466.7h12.9v12.9h-12.9z"/><path transform="translate(-125 76.3)" d="M-288.8 426.7c0 26-34 47-76 47s-76.1-21-76.1-47 34-47 76-47 76.1 21 76.1 47z" fill="#880523" stroke-width="0.9936" id="path59"/><path transform="translate(-125 75.6)" d="M-373.6 369.6c-3.7.1-7 .6-6.3 1.9 5.9 9.6 9.3 42.3 9.5 51.5 1.4-.2 4.8-1.9 5.5-3.1.8 1.2 4.2 2.9 5.5 3.1.3-9.2 3.7-41.9 9.5-51.5 1.6-2.5-13.3-2-15-1.4-.8-.3-5-.6-8.7-.5z" fill="#c68413" stroke-width="0.9936" id="path60"/></g><g transform="translate(1.8)" stroke-width="0.5" id="g134"><path d="M-415 556.4c7.4-11.3 18.8-21.1 23.2-31.7 15.7-38.2-8.9-74.5-51.6-72.5-9.6 17-36.2 77.3-44 87 20.4 8.2 77.3 29 72.4 17.2" fill="#d59b11" id="path61"/><g stroke-width="0.5" id="g133"><g transform="translate(-.8 3.5)" id="g65"><path transform="translate(-125 75.6)" d="m-279.7 446.4-2.5-9.4 8-2.8z" fill="#d0a609" id="path62"/><path transform="translate(-125 75.6)" d="m-282.6 437.1 2.8 9.4-13.1-6.8z" fill="#ce8a14" id="path63"/><path transform="translate(-125 75.6)" d="m-286.6 427.5 4.5 9.8 7.8-3z" fill="#f2cc00" id="path64"/><path transform="translate(-125 75.6)" d="m-286.6 427.3-6.1 12.3 10.5-2.4z" fill="#e9c002" id="path65"/></g><g transform="matrix(.98973 -.1327 .07743 1 -57.1 -56.6)" id="g69"><path transform="translate(-125 75.6)" d="m-279.7 446.4-2.5-9.4 8-2.8z" fill="#d0a609" id="path66"/><path transform="translate(-125 75.6)" d="m-282.6 437.1 2.8 9.4-13.1-6.8z" fill="#ce8a14" id="path67"/><path transform="translate(-125 75.6)" d="m-286.6 427.5 4.5 9.8 7.8-3z" fill="#f2cc00" id="path68"/><path transform="translate(-125 75.6)" d="m-286.6 427.3-6.1 12.3 10.5-2.4z" fill="#e9c002" id="path69"/></g><g transform="matrix(.98973 -.20128 .07743 .99464 -70 -86.8)" id="g73"><path transform="translate(-125 75.6)" d="m-279.7 446.4-2.5-9.4 8-2.8z" fill="#d0a609" id="path70"/><path transform="translate(-125 75.6)" d="m-282.6 437.1 2.8 9.4-13.1-6.8z" fill="#ce8a14" id="path71"/><path transform="translate(-125 75.6)" d="m-286.6 427.5 4.5 9.8 7.8-3z" fill="#f2cc00" id="path72"/><path transform="translate(-125 75.6)" d="m-286.6 427.3-6.1 12.3 10.5-2.4z" fill="#e9c002" id="path73"/></g><g transform="matrix(.98973 -.20128 .07743 .99464 -83.2 -91)" id="g77"><path transform="translate(-125 75.6)" d="m-279.7 446.4-2.5-9.4 8-2.8z" fill="#d0a609" id="path74"/><path transform="translate(-125 75.6)" d="m-282.6 437.1 2.8 9.4-13.1-6.8z" fill="#ce8a14" id="path75"/><path transform="translate(-125 75.6)" d="m-286.6 427.5 4.5 9.8 7.8-3z" fill="#f2cc00" id="path76"/><path transform="translate(-125 75.6)" d="m-286.6 427.3-6.1 12.3 10.5-2.4z" fill="#e9c002" id="path77"/></g><g transform="matrix(1.0042 .0214 .07219 .99739 -22.6 20.4)" id="g81"><path transform="translate(-125 75.6)" d="m-281 441.6-1.2-4.6 3.5-.7z" fill="#d0a609" id="path78"/><path transform="translate(-125 75.6)" d="m-282.2 437.1 1.2 4-2 3.3-10-4.7z" fill="#ce8a14" id="path79"/><path transform="translate(-125 75.6)" d="m-286.6 427.5 4.5 9.8 3.8-1.5 1.4-3.3z" fill="#f2cc00" id="path80"/><path transform="translate(-125 75.6)" d="m-286.6 427.3-6.1 12.3 10.5-2.4z" fill="#e9c002" id="path81"/></g><g transform="rotate(-6.4 -490 468.3)" id="g85"><path transform="translate(-125 75.6)" d="m-279.7 446.4-2.5-9.4 8-2.8z" fill="#d0a609" id="path82"/><path transform="translate(-125 75.6)" d="m-282.6 437.1 2.8 9.4-13.1-6.8z" fill="#ce8a14" id="path83"/><path transform="translate(-125 75.6)" d="m-286.6 427.5 4.5 9.8 7.8-3z" fill="#f2cc00" id="path84"/><path transform="translate(-125 75.6)" d="m-286.6 427.3-6.1 12.3 10.5-2.4z" fill="#e9c002" id="path85"/></g><g transform="matrix(.98973 -.1327 .07743 1 -52.4 -70.3)" id="g89"><path transform="translate(-125 75.6)" d="m-279.7 446.4-2.5-9.4 8-2.8z" fill="#d0a609" id="path86"/><path transform="translate(-125 75.6)" d="m-282.6 437.1 2.8 9.4-13.1-6.8z" fill="#ce8a14" id="path87"/><path transform="translate(-125 75.6)" d="m-286.6 427.5 4.5 9.8 7.8-3z" fill="#f2cc00" id="path88"/><path transform="translate(-125 75.6)" d="m-286.6 427.3-6.1 12.3 10.5-2.4z" fill="#e9c002" id="path89"/></g><g transform="matrix(.98973 -.20128 .07743 .99464 -66 -100.7)" id="g93"><path transform="translate(-125 75.6)" d="m-279.7 446.4-2.5-9.4 8-2.8z" fill="#d0a609" id="path90"/><path transform="translate(-125 75.6)" d="m-282.6 437.1 2.8 9.4-13.1-6.8z" fill="#ce8a14" id="path91"/><path transform="translate(-125 75.6)" d="m-286.6 427.5 4.5 9.8 7.8-3z" fill="#f2cc00" id="path92"/><path transform="translate(-125 75.6)" d="m-286.6 427.3-6.1 12.3 10.5-2.4z" fill="#e9c002" id="path93"/></g><g transform="matrix(.98973 -.20128 .07743 .99464 -79.5 -105.2)" id="g97"><path transform="translate(-125 75.6)" d="m-279.7 446.4-2.5-9.4 8-2.8z" fill="#d0a609" id="path94"/><path transform="translate(-125 75.6)" d="m-282.6 437.1 2.8 9.4-13.1-6.8z" fill="#ce8a14" id="path95"/><path transform="translate(-125 75.6)" d="m-286.6 427.5 4.5 9.8 7.8-3z" fill="#f2cc00" id="path96"/><path transform="translate(-125 75.6)" d="m-286.6 427.3-6.1 12.3 10.5-2.4z" fill="#e9c002" id="path97"/></g><g transform="matrix(1.0042 .0214 .07219 .99739 -17.2 8.5)" id="g100"><path transform="translate(-125 75.6)" d="m-281.4 437.2-.2 3.1-1.6 4.2-9.7-4.8z" fill="#ce8a14" id="path98"/><path transform="translate(-125 75.6)" d="m-286.6 427.5 4.4 9.8h1.2l1.3-6.4z" fill="#f2cc00" id="path99"/><path transform="translate(-125 75.6)" d="m-286.6 427.3-6.1 12.3 10.5-2.4z" fill="#e9c002" id="path100"/></g><g transform="translate(10 -22)" id="g104"><path transform="translate(-125 75.6)" d="m-279.7 446.4-2.5-9.4 8-2.8z" fill="#d0a609" id="path101"/><path transform="translate(-125 75.6)" d="m-282.6 437.1 2.8 9.4-13.1-6.8z" fill="#ce8a14" id="path102"/><path transform="translate(-125 75.6)" d="m-286.6 427.5 4.5 9.8 7.8-3z" fill="#f2cc00" id="path103"/><path transform="translate(-125 75.6)" d="m-286.6 427.3-6.1 12.3 10.5-2.4z" fill="#e9c002" id="path104"/></g><g transform="matrix(.98973 -.1327 .07743 1 -47.4 -83.2)" id="g108"><path transform="translate(-125 75.6)" d="m-279.7 446.4-2.5-9.4 8-2.8z" fill="#d0a609" id="path105"/><path transform="translate(-125 75.6)" d="m-282.6 437.1 2.8 9.4-13.1-6.8z" fill="#ce8a14" id="path106"/><path transform="translate(-125 75.6)" d="m-286.6 427.5 4.5 9.8 7.8-3z" fill="#f2cc00" id="path107"/><path transform="translate(-125 75.6)" d="m-286.6 427.3-6.1 12.3 10.5-2.4z" fill="#e9c002" id="path108"/></g><g transform="matrix(.98973 -.20128 .07743 .99464 -60.6 -114.4)" id="g112"><path transform="translate(-125 75.6)" d="m-279.7 446.4-2.5-9.4 8-2.8z" fill="#d0a609" id="path109"/><path transform="translate(-125 75.6)" d="m-282.6 437.1 2.8 9.4-13.1-6.8z" fill="#ce8a14" id="path110"/><path transform="translate(-125 75.6)" d="m-286.6 427.5 4.5 9.8 7.8-3z" fill="#f2cc00" id="path111"/><path transform="translate(-125 75.6)" d="m-286.6 427.3-6.1 12.3 10.5-2.4z" fill="#e9c002" id="path112"/></g><g transform="matrix(.98973 -.20128 .07743 .99464 -74 -119)" id="g116"><path transform="translate(-125 75.6)" d="m-279.7 446.4-2.5-9.4 8-2.8z" fill="#d0a609" id="path113"/><path transform="translate(-125 75.6)" d="m-282.6 437.1 2.8 9.4-13.1-6.8z" fill="#ce8a14" id="path114"/><path transform="translate(-125 75.6)" d="m-286.6 427.5 4.5 9.8 7.8-3z" fill="#f2cc00" id="path115"/><path transform="translate(-125 75.6)" d="m-286.6 427.3-6.1 12.3 10.5-2.4z" fill="#e9c002" id="path116"/></g><g transform="matrix(1.0042 .0214 .07219 .99739 -12.5 -4.3)" id="g118"><path transform="translate(-125 75.6)" d="m-285 437.9-.4 6-7.5-4.2z" fill="#ce8a14" id="path117"/><path transform="translate(-125 75.6)" d="m-286.3 426.4-6.5 13.2 7.8-1.5c.8-5.4-.2-8.8-1.3-11.7" fill="#e9c002" id="path118"/></g><g transform="rotate(-15.2 -531 446)" id="g120"><path transform="translate(-125 75.6)" d="m-281.1 437 1 10.8-11.7-10.3z" fill="#ce8a14" id="path119"/><path transform="translate(-125 75.6)" d="m-285.3 425.8-6.4 11.8 10.3-.5z" fill="#e9c002" id="path120"/></g><g transform="matrix(.97153 -.23086 .17689 .98727 -102 -130.3)" id="g124"><path transform="translate(-125 75.6)" d="m-280.5 447.4-1.7-10.4 7.2-.3z" fill="#d0a609" id="path121"/><path transform="translate(-125 75.6)" d="m-282.6 437.1 2.3 10.6-12.1-8.5z" fill="#ce8a14" id="path122"/><path transform="translate(-125 75.6)" d="m-285.3 425.2 3.2 12.1 6.8-.6z" fill="#f2cc00" id="path123"/><path transform="translate(-125 75.6)" d="m-285.4 425.2-7.1 14 10.3-2z" fill="#e9c002" id="path124"/></g><g transform="matrix(.96868 -.2859 .16293 .98425 -108.9 -157.2)" id="g128"><path transform="translate(-125 75.6)" d="m-279.7 446.4-2.5-9.4 8-2.8z" fill="#d0a609" id="path125"/><path transform="translate(-125 75.6)" d="m-282.6 437.1 2.8 9.4-13.1-6.8z" fill="#ce8a14" id="path126"/><path transform="translate(-125 75.6)" d="m-287 426 4.9 11.3 7.8-3c-4.1-2.7-7-7-12.7-8.3" fill="#f2cc00" id="path127"/><path transform="translate(-125 75.6)" d="m-286.9 426-5.9 13.6 10.6-2.4z" fill="#e9c002" id="path128"/></g><g transform="matrix(.95092 -.34032 .21843 .97344 -158.2 -177.4)" id="g132"><path transform="translate(-125 75.6)" d="m-280 446.4-2.2-9.4 8.5-3.3z" fill="#d0a609" id="path129"/><path transform="translate(-125 75.6)" d="m-282.6 437.1 2.8 9.4-13.1-6.8z" fill="#ce8a14" id="path130"/><path transform="translate(-125 75.6)" d="m-286.6 427.5 4.5 9.8 8.6-3.8c-4-3-8.6-4.3-13-6" fill="#f2cc00" id="path131"/><path transform="translate(-125 75.6)" d="m-286.6 427.3-6.1 12.3 10.5-2.4z" fill="#e9c002" id="path132"/></g></g><path d="M-415 556.4c7.4-11.3 18.8-21.1 23.2-31.7 15.7-38.2-8.9-74.5-51.6-72.5-8.5 15.1-26.8 70.3-41.3 83.2-2 1.8 1 5.4.1 6.5 20.3 8.3 74.5 26.2 69.6 14.5z" fill="none" stroke="#000000" stroke-width="0.9936" id="path133"/></g><g transform="matrix(-1 0 0 1 -982 0)" stroke-width="0.5" id="g207"><path d="M-415 556.4c7.4-11.3 18.8-21.1 23.2-31.7 15.7-38.2-8.9-74.5-51.6-72.5-8.6 15.2-27 66-40.7 83.9-1.5 2 .3 4.8-.5 5.8 20.3 8.2 74.5 26.2 69.6 14.5" fill="#d59b11" id="path134"/><g stroke-width="0.5" id="g206"><g transform="translate(-.8 3.5)" id="g138"><path transform="translate(-125 75.6)" d="m-279.7 446.4-2.5-9.4 8-2.8z" fill="#d0a609" id="path135"/><path transform="translate(-125 75.6)" d="m-282.6 437.1 2.8 9.4-13.1-6.8z" fill="#ce8a14" id="path136"/><path transform="translate(-125 75.6)" d="m-286.6 427.5 4.5 9.8 7.8-3z" fill="#f2cc00" id="path137"/><path transform="translate(-125 75.6)" d="m-286.6 427.3-6.1 12.3 10.5-2.4z" fill="#e9c002" id="path138"/></g><g transform="matrix(.98973 -.1327 .07743 1 -57.1 -56.6)" id="g142"><path transform="translate(-125 75.6)" d="m-279.7 446.4-2.5-9.4 8-2.8z" fill="#d0a609" id="path139"/><path transform="translate(-125 75.6)" d="m-282.6 437.1 2.8 9.4-13.1-6.8z" fill="#ce8a14" id="path140"/><path transform="translate(-125 75.6)" d="m-286.6 427.5 4.5 9.8 7.8-3z" fill="#f2cc00" id="path141"/><path transform="translate(-125 75.6)" d="m-286.6 427.3-6.1 12.3 10.5-2.4z" fill="#e9c002" id="path142"/></g><g transform="matrix(.98973 -.20128 .07743 .99464 -70 -86.8)" id="g146"><path transform="translate(-125 75.6)" d="m-279.7 446.4-2.5-9.4 8-2.8z" fill="#d0a609" id="path143"/><path transform="translate(-125 75.6)" d="m-282.6 437.1 2.8 9.4-13.1-6.8z" fill="#ce8a14" id="path144"/><path transform="translate(-125 75.6)" d="m-286.6 427.5 4.5 9.8 7.8-3z" fill="#f2cc00" id="path145"/><path transform="translate(-125 75.6)" d="m-286.6 427.3-6.1 12.3 10.5-2.4z" fill="#e9c002" id="path146"/></g><g transform="matrix(.98973 -.20128 .07743 .99464 -83.2 -91)" id="g150"><path transform="translate(-125 75.6)" d="m-279.7 446.4-2.5-9.4 8-2.8z" fill="#d0a609" id="path147"/><path transform="translate(-125 75.6)" d="m-282.6 437.1 2.8 9.4-13.1-6.8z" fill="#ce8a14" id="path148"/><path transform="translate(-125 75.6)" d="m-286.6 427.5 4.5 9.8 7.8-3z" fill="#f2cc00" id="path149"/><path transform="translate(-125 75.6)" d="m-286.6 427.3-6.1 12.3 10.5-2.4z" fill="#e9c002" id="path150"/></g><g transform="matrix(1.0042 .0214 .07219 .99739 -22.6 20.4)" id="g154"><path transform="translate(-125 75.6)" d="m-281 441.6-1.2-4.6 3.5-.7z" fill="#d0a609" id="path151"/><path transform="translate(-125 75.6)" d="m-282.2 437.1 1.2 4-2 3.3-10-4.7z" fill="#ce8a14" id="path152"/><path transform="translate(-125 75.6)" d="m-286.6 427.5 4.5 9.8 3.8-1.5 1.4-3.3z" fill="#f2cc00" id="path153"/><path transform="translate(-125 75.6)" d="m-286.6 427.3-6.1 12.3 10.5-2.4z" fill="#e9c002" id="path154"/></g><g transform="rotate(-6.4 -490 468.3)" id="g158"><path transform="translate(-125 75.6)" d="m-279.7 446.4-2.5-9.4 8-2.8z" fill="#d0a609" id="path155"/><path transform="translate(-125 75.6)" d="m-282.6 437.1 2.8 9.4-13.1-6.8z" fill="#ce8a14" id="path156"/><path transform="translate(-125 75.6)" d="m-286.6 427.5 4.5 9.8 7.8-3z" fill="#f2cc00" id="path157"/><path transform="translate(-125 75.6)" d="m-286.6 427.3-6.1 12.3 10.5-2.4z" fill="#e9c002" id="path158"/></g><g transform="matrix(.98973 -.1327 .07743 1 -52.4 -70.3)" id="g162"><path transform="translate(-125 75.6)" d="m-279.7 446.4-2.5-9.4 8-2.8z" fill="#d0a609" id="path159"/><path transform="translate(-125 75.6)" d="m-282.6 437.1 2.8 9.4-13.1-6.8z" fill="#ce8a14" id="path160"/><path transform="translate(-125 75.6)" d="m-286.6 427.5 4.5 9.8 7.8-3z" fill="#f2cc00" id="path161"/><path transform="translate(-125 75.6)" d="m-286.6 427.3-6.1 12.3 10.5-2.4z" fill="#e9c002" id="path162"/></g><g transform="matrix(.98973 -.20128 .07743 .99464 -66 -100.7)" id="g166"><path transform="translate(-125 75.6)" d="m-279.7 446.4-2.5-9.4 8-2.8z" fill="#d0a609" id="path163"/><path transform="translate(-125 75.6)" d="m-282.6 437.1 2.8 9.4-13.1-6.8z" fill="#ce8a14" id="path164"/><path transform="translate(-125 75.6)" d="m-286.6 427.5 4.5 9.8 7.8-3z" fill="#f2cc00" id="path165"/><path transform="translate(-125 75.6)" d="m-286.6 427.3-6.1 12.3 10.5-2.4z" fill="#e9c002" id="path166"/></g><g transform="matrix(.98973 -.20128 .07743 .99464 -79.5 -105.2)" id="g170"><path transform="translate(-125 75.6)" d="m-279.7 446.4-2.5-9.4 8-2.8z" fill="#d0a609" id="path167"/><path transform="translate(-125 75.6)" d="m-282.6 437.1 2.8 9.4-13.1-6.8z" fill="#ce8a14" id="path168"/><path transform="translate(-125 75.6)" d="m-286.6 427.5 4.5 9.8 7.8-3z" fill="#f2cc00" id="path169"/><path transform="translate(-125 75.6)" d="m-286.6 427.3-6.1 12.3 10.5-2.4z" fill="#e9c002" id="path170"/></g><g transform="matrix(1.0042 .0214 .07219 .99739 -17.2 8.5)" id="g173"><path transform="translate(-125 75.6)" d="m-281.4 437.2-.2 3.1-1.6 4.2-9.7-4.8z" fill="#ce8a14" id="path171"/><path transform="translate(-125 75.6)" d="m-286.6 427.5 4.4 9.8h1.2l1.3-6.4z" fill="#f2cc00" id="path172"/><path transform="translate(-125 75.6)" d="m-286.6 427.3-6.1 12.3 10.5-2.4z" fill="#e9c002" id="path173"/></g><g transform="translate(10 -22)" id="g177"><path transform="translate(-125 75.6)" d="m-279.7 446.4-2.5-9.4 8-2.8z" fill="#d0a609" id="path174"/><path transform="translate(-125 75.6)" d="m-282.6 437.1 2.8 9.4-13.1-6.8z" fill="#ce8a14" id="path175"/><path transform="translate(-125 75.6)" d="m-286.6 427.5 4.5 9.8 7.8-3z" fill="#f2cc00" id="path176"/><path transform="translate(-125 75.6)" d="m-286.6 427.3-6.1 12.3 10.5-2.4z" fill="#e9c002" id="path177"/></g><g transform="matrix(.98973 -.1327 .07743 1 -47.4 -83.2)" id="g181"><path transform="translate(-125 75.6)" d="m-279.7 446.4-2.5-9.4 8-2.8z" fill="#d0a609" id="path178"/><path transform="translate(-125 75.6)" d="m-282.6 437.1 2.8 9.4-13.1-6.8z" fill="#ce8a14" id="path179"/><path transform="translate(-125 75.6)" d="m-286.6 427.5 4.5 9.8 7.8-3z" fill="#f2cc00" id="path180"/><path transform="translate(-125 75.6)" d="m-286.6 427.3-6.1 12.3 10.5-2.4z" fill="#e9c002" id="path181"/></g><g transform="matrix(.98973 -.20128 .07743 .99464 -60.6 -114.4)" id="g185"><path transform="translate(-125 75.6)" d="m-279.7 446.4-2.5-9.4 8-2.8z" fill="#d0a609" id="path182"/><path transform="translate(-125 75.6)" d="m-282.6 437.1 2.8 9.4-13.1-6.8z" fill="#ce8a14" id="path183"/><path transform="translate(-125 75.6)" d="m-286.6 427.5 4.5 9.8 7.8-3z" fill="#f2cc00" id="path184"/><path transform="translate(-125 75.6)" d="m-286.6 427.3-6.1 12.3 10.5-2.4z" fill="#e9c002" id="path185"/></g><g transform="matrix(.98973 -.20128 .07743 .99464 -74 -119)" id="g189"><path transform="translate(-125 75.6)" d="m-279.7 446.4-2.5-9.4 8-2.8z" fill="#d0a609" id="path186"/><path transform="translate(-125 75.6)" d="m-282.6 437.1 2.8 9.4-13.1-6.8z" fill="#ce8a14" id="path187"/><path transform="translate(-125 75.6)" d="m-286.6 427.5 4.5 9.8 7.8-3z" fill="#f2cc00" id="path188"/><path transform="translate(-125 75.6)" d="m-286.6 427.3-6.1 12.3 10.5-2.4z" fill="#e9c002" id="path189"/></g><g transform="matrix(1.0042 .0214 .07219 .99739 -12.5 -4.3)" id="g191"><path transform="translate(-125 75.6)" d="m-285 437.9-.4 6-7.5-4.2z" fill="#ce8a14" id="path190"/><path transform="translate(-125 75.6)" d="m-286.3 426.4-6.5 13.2 7.8-1.5c.8-5.4-.2-8.8-1.3-11.7" fill="#e9c002" id="path191"/></g><g transform="rotate(-15.2 -531 446)" id="g193"><path transform="translate(-125 75.6)" d="m-281.1 437 1 10.8-11.7-10.3z" fill="#ce8a14" id="path192"/><path transform="translate(-125 75.6)" d="m-285.3 425.8-6.4 11.8 10.3-.5z" fill="#e9c002" id="path193"/></g><g transform="matrix(.97153 -.23086 .17689 .98727 -102 -130.3)" id="g197"><path transform="translate(-125 75.6)" d="m-280.5 447.4-1.7-10.4 7.2-.3z" fill="#d0a609" id="path194"/><path transform="translate(-125 75.6)" d="m-282.6 437.1 2.3 10.6-12.1-8.5z" fill="#ce8a14" id="path195"/><path transform="translate(-125 75.6)" d="m-285.3 425.2 3.2 12.1 6.8-.6z" fill="#f2cc00" id="path196"/><path transform="translate(-125 75.6)" d="m-285.4 425.2-7.1 14 10.3-2z" fill="#e9c002" id="path197"/></g><g transform="matrix(.96868 -.2859 .16293 .98425 -108.9 -157.2)" id="g201"><path transform="translate(-125 75.6)" d="m-279.7 446.4-2.5-9.4 8-2.8z" fill="#d0a609" id="path198"/><path transform="translate(-125 75.6)" d="m-282.6 437.1 2.8 9.4-13.1-6.8z" fill="#ce8a14" id="path199"/><path transform="translate(-125 75.6)" d="m-287 426 4.9 11.3 7.8-3c-4.1-2.7-7-7-12.7-8.3" fill="#f2cc00" id="path200"/><path transform="translate(-125 75.6)" d="m-286.9 426-5.9 13.6 10.6-2.4z" fill="#e9c002" id="path201"/></g><g transform="matrix(.95092 -.34032 .21843 .97344 -158.2 -177.4)" id="g205"><path transform="translate(-125 75.6)" d="m-280 446.4-2.2-9.4 8.5-3.3z" fill="#d0a609" id="path202"/><path transform="translate(-125 75.6)" d="m-282.6 437.1 2.8 9.4-13.1-6.8z" fill="#ce8a14" id="path203"/><path transform="translate(-125 75.6)" d="m-286.6 427.5 4.5 9.8 8.6-3.8c-4-3-8.6-4.3-13-6" fill="#f2cc00" id="path204"/><path transform="translate(-125 75.6)" d="m-286.6 427.3-6.1 12.3 10.5-2.4z" fill="#e9c002" id="path205"/></g></g><path d="M-415 556.4c7.4-11.3 18.8-21.1 23.2-31.7 15.7-38.2-8.9-74.5-51.6-72.5-8.6 15.2-24.4 67-41.4 84.2-1.7 1.7 1 4.5.2 5.5 20.3 8.3 74.5 26.2 69.7 14.5z" fill="none" stroke="#000000" stroke-width="0.9936" id="path206"/></g><g transform="translate(-2.3)" stroke="#000000" stroke-width="0.9936" id="g215"><path d="M-539 447.5c1.4-3.9 13.2-6.6 19.5 0-14 3.6 18.6 84.5 26.2 85.8q-.7 4.2-3.7 3c-23.2-9.4-43.7-74.3-42-88.8z" fill="#d59b11" id="path207"/><g transform="matrix(-1 0 0 1 -981 0)" fill="#ffffff" id="g214"><path transform="translate(-125 75.6)" d="M-338.3 432.8a3.7 3.7 0 1 1-7.4 0 3.7 3.7 0 0 1 7.4 0z" id="path208"/><path transform="translate(-125 75.6)" d="M-334.1 425.6a4.2 4.2 0 1 1-8.5 0 4.2 4.2 0 0 1 8.5 0z" id="path209"/><path transform="translate(-125 75.6)" d="M-330.6 417.4a4.6 4.6 0 1 1-9.2 0 4.6 4.6 0 0 1 9.2 0z" id="path210"/><path transform="translate(-125 75.6)" d="M-327 408.2a5 5 0 1 1-10 0 5 5 0 0 1 10 0z" id="path211"/><path transform="translate(-125 75.6)" d="M-324.2 398.2a5.2 5.2 0 1 1-10.4 0 5.2 5.2 0 0 1 10.4 0z" id="path212"/><path transform="translate(-125 75.6)" d="M-320.3 387.1a6 6 0 1 1-12 0 6 6 0 0 1 12 0z" id="path213"/><path transform="translate(-125 74.7)" d="M-318.4 375.4a6.8 6.8 0 1 1-13.6 0 6.8 6.8 0 0 1 13.6 0z" id="path214"/></g><path d="M-495.3 499.1c1.4-17.7-6.9-54.9-11.9-52.6a4.2 4.2 0 0 1 6-2.3c1.5.9 10.9 41.1 8.6 54.5-.2 1-2 .1-2.7.4z" fill="#f2cc00" id="path215"/></g><g transform="translate(1.8)" stroke="#000000" stroke-width="0.9936" id="g224"><path transform="translate(-125 75.6)" d="M-315.7 371.9c-1.4-3.9-13.3-6.6-19.6 0 14.1 3.5-18.7 84.2-26.3 85.5q.8 4.4 3.9 3.2c23.2-9.3 43.7-74.2 42-88.7z" fill="#d59b11" id="path216"/><g transform="translate(1.2)" fill="#ffffff" id="g223"><path transform="translate(-125 75.6)" d="M-338.3 432.8a3.7 3.7 0 1 1-7.4 0 3.7 3.7 0 0 1 7.4 0z" id="path217"/><path transform="translate(-125 75.6)" d="M-334.1 425.6a4.2 4.2 0 1 1-8.5 0 4.2 4.2 0 0 1 8.5 0z" id="path218"/><path transform="translate(-125 75.6)" d="M-330.6 417.4a4.6 4.6 0 1 1-9.2 0 4.6 4.6 0 0 1 9.2 0z" id="path219"/><path transform="translate(-125 75.6)" d="M-327 408.2a5 5 0 1 1-10 0 5 5 0 0 1 10 0z" id="path220"/><path transform="translate(-125 75.6)" d="M-324.2 398.2a5.2 5.2 0 1 1-10.4 0 5.2 5.2 0 0 1 10.4 0z" id="path221"/><path transform="translate(-125 75.6)" d="M-320.3 387.1a6 6 0 1 1-12 0 6 6 0 0 1 12 0z" id="path222"/><path transform="translate(-125 74.7)" d="M-318.4 375.4a6.8 6.8 0 1 1-13.6 0 6.8 6.8 0 0 1 13.6 0z" id="path223"/></g><path d="M-484.1 499.1c-1.5-17.7 6.9-54.9 11.8-52.6a4 4 0 0 0-5.9-2.3c-1.5.9-11 41.1-8.6 54.5.2 1 2 .1 2.7.4z" fill="#f2cc00" id="path224"/></g><path transform="translate(-125 75.6)" d="M-365 414.3c-4.4 2.3-3.1 4.6-4.1 7.3-1-.7-7.3-2-8.8 5.7 9.5-.4 7 7.9 6.8 8.2-1.9 3.8-9.6 1-7.5-5-1.4.1-9 .5-5.2 9-4.3.3-10.8 7.8-.3 9.7-.4 1-.8 10.7 6.9 7.5-1.1-1.7-.6-10.1 4.5-7.8 7.8 3.6-.7 13.9-7.8 16.3-7.1 2.1-36 1.7-28-11.4 3.4-3.3 6.4 3.2 6.4 5.7 0 1 6.6-1 3.6-8.5 11-4.3 3.7-9 .3-9 2-4-3.4-8.8-7.4-6.5.8.8 1.5 9.6-6 5.8-1-.6-4-8.9 3.7-6.9-.3-6-2.6-5.5-8.5-5-.6-8-12.2-6.2-8.5 2.3-5.8.3-8.3 3.3-5.9 7.7 2.1-.3 8-.7 6.4 4.4-1.8 5.6-7 1.3-7.8-1.6-4.4-.4-5.4 6.5-3 8.5-6.8 3.6-2.7 9.8 3.6 8.2-2.4 5.8 5.2 8.4 6.6 6-2-2.5-.7-8.8 3.4-7.7 9.2 2.5-3.6 16.7-9.8 17.9-4 .7-23.3-1.6-17.4-7.5 2.2-2.1 4.3.2 6.4 3 3.4-2.5 1.9-6.5-2.3-7.3 7.3-2.4 3.1-10.1-2.5-6.6-.7-2-2.5-7.3-7.6-5 .8.7 3.2 7-2.4 6.7-1.1 0-6.5-5.8-.2-7.2-1-4.5-6.5-2.4-7.3-2.5-.3-2-8.3-6-10.4 1.7 3.2-1.6 7.3 1.4 8.5 10.5 2 16.2 23.7 7 25 24.4l1.7-.7c18.3-6.7 75-13.8 75-14 0 .2 56.7 7.3 75 14l1.7.7c1.2-17.5 22.9-8.2 25-24.4 1.2-9 5.3-12.1 8.5-10.5-2.1-7.8-10.1-3.6-10.5-1.7-.7.1-6.3-2-7.2 2.5 6.3 1.4 1 7.2-.2 7.2-5.6.2-3.2-6-2.4-6.8-5.1-2.2-6.9 3.2-7.7 5-5.5-3.4-9.8 4.3-2.4 6.7-4.2.8-5.7 4.8-2.3 7.3 2-2.8 4.2-5.1 6.3-3 6 6-13.3 8.2-17.3 7.5-6.2-1.2-19-15.4-9.8-17.9 4-1.1 5.4 5.2 3.4 7.7 1.4 2.4 9-.2 6.5-6 6.4 1.6 10.4-4.6 3.7-8.2 2.4-2 1.4-8.9-3-8.5-1 3-6 7.2-7.8 1.6-1.6-5.1 4.3-4.7 6.4-4.4 2.4-4.4-.1-7.4-6-7.7 3.8-8.5-7.8-10.4-8.4-2.3-6-.5-8.2-1-8.5 5 7.7-2 4.6 6.3 3.6 6.9-7.4 3.8-6.8-5-6-5.8-4-2.3-9.3 2.5-7.4 6.6-3.3 0-10.7 4.6.3 8.9-3 7.4 3.6 9.6 3.6 8.5 0-2.5 3-9 6.4-5.7 8 13.1-20.8 13.5-28 11.4-7-2.4-15.5-12.7-7.7-16.3 5-2.3 5.6 6.1 4.5 7.8 7.7 3.2 7.3-6.4 7-7.5 10.4-2 3.8-9.4-.4-9.7 3.8-8.5-3.8-8.9-5.3-9 2.2 6-5.6 8.8-7.5 5-.1-.3-2.7-8.6 6.8-8.2-1.5-7.8-7.8-6.4-8.7-5.7-1-2.7.3-5-4.2-7.4z" fill="#f3cd00" stroke="#000000" stroke-width="0.9936" id="path225"/><g fill="#f2cc00" stroke="#000000" id="g237"><g transform="translate(0 -22.7)" stroke-width="0.9936" id="g228"><path d="M-490 567.7c-39.8 0-66 8.4-76 14a34 34 0 0 0-.3 21.8c7.2-1.4 21.6-13.7 76.3-13.7s69.1 12.3 76.4 13.7c1.4-2.3 3-14.5-.3-21.7-10-5.7-36.3-14-76-14z" id="path226"/><path d="M-490 588.3c-54.6 0-85.6 16.8-77.8 16.8s23.1-12.8 77.8-12.8 70 12.8 77.9 12.8c7.7 0-23.2-16.9-77.9-16.9z" id="path227"/><path d="M-490 566c-54.6 0-85.6 16.8-77.8 16.8s23.1-12.7 77.8-12.7 70 12.7 77.9 12.7c7.7 0-23.2-16.8-77.9-16.8z" id="path228"/></g><g stroke-width="0.5" id="g236"><g stroke-width="0.9936" id="g231"><path transform="translate(-125 75.6)" d="M-302 489.6a3.5 3.5 0 1 1-7 0 3.5 3.5 0 0 1 7 0z" id="path229"/><path transform="translate(-164 68.2)" d="M-302 489.6a3.5 3.5 0 1 1-7 0 3.5 3.5 0 0 1 7 0z" id="path230"/><path transform="translate(-125 75.6)" d="M-300 492.3s14.8 10.3 14.7 6.6v-9.1c0-2.4-9.4 1.4-14.6 2.5z" id="path231"/></g><path transform="rotate(-14.6)scale(1 .74917)skewX(33.5)" stroke-width="1.1479" id="rect231" d="M-963.3 565h13.7v13.8h-13.7z"/><g transform="matrix(-1 0 0 1 -981.2 0)" id="g235"><g stroke-width="0.9936" id="g234"><path transform="translate(-125 75.6)" d="M-302 489.6a3.5 3.5 0 1 1-7 0 3.5 3.5 0 0 1 7 0z" id="path232"/><path transform="translate(-164 68.2)" d="M-302 489.6a3.5 3.5 0 1 1-7 0 3.5 3.5 0 0 1 7 0z" id="path233"/><path transform="translate(-125 75.6)" d="M-300 492.3s14.8 10.3 14.7 6.6v-9.1c0-2.4-9.4 1.4-14.6 2.5z" id="path234"/></g><path transform="rotate(-14.6)scale(1 .74917)skewX(33.5)" stroke-width="1.1479" id="rect234" d="M-963.3 565h13.7v13.8h-13.7z"/></g></g></g><g fill="#ffffff" stroke="#000000" stroke-width="0.9936" id="g241"><path transform="rotate(39.6 -438 331.7)" d="M-266.6 465c0 3.8-1.5 6.8-3.3 6.8-1.9 0-3.4-3-3.4-6.7s1.5-6.8 3.4-6.8 3.3 3 3.3 6.8z" id="path237"/><path transform="rotate(9 -858 -310)" d="M-308.6 449.9c0 3.8-2 6.9-4.5 6.9-2.4 0-4.4-3.1-4.4-7 0-3.7 2-6.8 4.4-6.8s4.5 3 4.5 6.9z" id="path238"/><g transform="matrix(-1 0 0 1 -980.6 0)" id="g240"><path transform="rotate(39.6 -438 331.7)" d="M-266.6 465c0 3.8-1.5 6.8-3.3 6.8-1.9 0-3.4-3-3.4-6.7s1.5-6.8 3.4-6.8 3.3 3 3.3 6.8z" id="path239"/><path transform="rotate(9 -858 -310)" d="M-308.6 449.9c0 3.8-2 6.9-4.5 6.9-2.4 0-4.4-3.1-4.4-7 0-3.7 2-6.8 4.4-6.8s4.5 3 4.5 6.9z" id="path240"/></g><path transform="translate(-125 75.6)" d="M-360.4 442.7c0 4-2 7.3-4.5 7.3s-4.5-3.3-4.5-7.3 2-7.3 4.5-7.3 4.5 3.3 4.5 7.3z" id="path241"/></g></g></g><path transform="rotate(-22.6)scale(1 .71046)skewX(35.1)" fill="#f2cc00" stroke="#000000" stroke-width="1.1788" id="rect243" d="M-1261.6 717.3h13.5v13.5h-13.5z"/></g></g><!-- app4joy --></svg>