<svg id="svg3" width="300" height="200" viewBox="0 0 300 200" xmlns="http://www.w3.org/2000/svg"><path id="rect1" fill="#fff" d="M0 0h300v200H0z"/><path id="path1" d="M174.7 155c1.7 7.4 4.5 8 6.8 5 2-2.5 9.5-9.6-2.2-27-2-3-4.8-7-2.6-13 .9-2.4.6-5-2.6-7.8-2.5 1-3.3 4.3-2.2 5.5s1.4 1.9-.2 2.7c-1.9 1.1-3.7 8.7.8 15.3 3.5 5.2 11.6 24.2 2.2 19.3m-2-31.7c-4.5 3 2.1 9.6 4.4 14.1 1.8 3.6 2.2 5.5 2.5 8.2 2-1.1 1.7-2.8.3-5.9-5.2-11.5-7-8.9-7.1-16.4m19 39.7c7.8-2.2 13.4.8 19.1 1.1 10.5.5 11.4-77.4-9.6-71.2-7.1 2.2-14.8 4.4-18.8 3s-6.5-1.3-6.7 2.6c0 2-1.1 1-2.5.5-3.4-1-6 2.4-1 3.6 3.1.7-2.6 5.3-5.4 6.5-4.5 1.9-1 4.4 1.4 1.6 1.8-2.1 7.6-2.8 9.6.5s1.8 7.3 4.9 10.4c3.5 3.6 5.6 10.1 3 6.3-4.8-6.7-9.7-8.1-4-1.1 11.8 14 15.9 21 15.2 25.6-.5 3-.7 3.5.3 4.7 1.1 1.3 2.4 2.2-.7 2.8-4 .7-4.6 1.8-4.9 3.1M184 81.2c-3.9 1-9 6.3-13.5 4-4-2-4.4-3.6-2.4-4.5 2-1 .8-3 .1-4s.4-3.1 1-4.5c2-.3 2.8 1.2 6.6 1 3.3-.3 8.2 8 8.2 8" fill="#ececec"/><path id="path2" d="M0 0h300v200H0zm164 181c18.9.6 38.5.6 51.7.4-2.8-4-3.6-4.6-6.7-8.8-1.6-2.3.6-4.1 1.7-6 .8-1.3.3-3.3 0-4.1-.7-2.1-2-4-2.5-6.6-.5-2.7-1.2-3.6-2.8-5.7-1.6-2.2-5-6.6-6.6-9.1s-4.2-6-5-8.5-8.7-16.3-12.6-20.9q.2-1.5 1.3-3.1c4 .5 11.5 1.8 11.4-2.4-3.8-.1-4.6-.4-3.9-3-1-.7-3.4-.2-6-1.8 5.2-1.1 9.9 2.9 13 5.5 1.7 1.4 3.7 1.3 5.6 1.2 4.2-.2 7.7-3.1 5.2-6.8 1.2-2.6.6-5-1-5.6-4.7-1.8-10-8-15.7-5.2-1.7-1.8.6-2.3 1.7-3 1-.9 5-3.2 9.4-4.5 4.1-1.1 12.1-6.1 13.4-6 13.3.6 14.7-2.4 6.4-2.2q.5-.6 1.4-1c1.3-.7.4-1.2-.6-1-1.5.3-4 1.1-5.7.2.1-.3.5-1.3 1.3-1.6 2.4-1 2.6-3.2-3.7.1-2 1-20.9 7.6-23.2 8.1-4.6 1.1-14 2.5-17.3 3.9-1.3-.5-2.2-1.4-3.8-2.4q2.3-2.2 2-3.8c1-.4 2.2-.2 3.3-.7.2-1.8.5-3.5-.2-5-1.6 0-3.2-1.2-3.9-2l2.2-.7c-.3-1.7-2-3-3.4-3-9.1.2-10.8 4.9-10 7.7.4 1.3-2 2.7 2 6 1.3 1 1 2.8.3 5.1-8.2.8-14.8-10-18.1-15.5 4 1 5 .7 5.2-.3.4-1.6-1.6-2.3-5-4.2 10.2-29 16.9-47.8 15.1-50.6-3.7.5-9 20.7-19.3 49.6-4.4-.5-5.7-.4-6 1.1 0 .9 1.3 2.3 3.3 2.8-.5 2.2-.3 3.3.2 6-1.4 4.2 3 4.9 3.6.6q.7.9 1.3 2.7c1.5 5.3 5.4 10 10.8 14.5.9 2.7 2.3 6.2 2.3 7.9l-.2 6.4c0 1.7-1 3.8-.2 6.6 2.3 7.8 5 11 5.3 14s6.6 16 7.1 18.3c.6 2.2 2 6.4 2.4 9.9.5 3.4 2 17.7.1 19.7z" fill="#fe0000"/><path id="rect2" fill="#000184" d="M17.2 0h17.2v200H17.2z"/><path id="rect3" fill="#000184" d="M51.6 0h17.2v200H51.6z"/><!-- app4joy --></svg>