<svg height="900" width="1350" id="svg222" viewBox="0 0 1350 900" xmlns="http://www.w3.org/2000/svg"><g id="g222"><path id="rect1" d="M0 0h1350v900H0z" fill="#ffffff"/><path id="rect221" d="M1080 0h270v900h-270z" fill="#ff0000"/></g><g transform="translate(46 -282.3)scale(.41331)" id="g221"><g transform="translate(1.7 89.5)scale(.94831)" id="g220"><path d="M34.4 783.4v801.8a72 72 0 0 0 72 72h230.7a72 72 0 0 1 72 72 72 72 0 0 1 72-72h230.6a72 72 0 0 0 72-72V783.4z" id="path1" fill="#ff0000"/><path d="M752.3 637.8a76 76 0 0 0-31 8.2 31 31 0 0 0-13.6 17c-.2 1.1-1.5 3 0 3.6l-2.5 1.7c-.5-1.2-2.2-.1-3.2-.2a38 38 0 0 0-23.6 12.2 45 45 0 0 0-8.6 32q.6 10.5 3.9 20.6-1.5-.8-2.6-.5l1.1.2-1.6-.2c-7.4.3-15.3.6-21.7 4.8a24 24 0 0 0-8.3 8.9c-2.2 2.3-2.4 5.7-3.1 8.6-.6 2.2-.7 5-2.7 6.5-.7.3 0-1.6-.2-2.2.2-1.6 0-4-2-4.4-1.8-.3-3.6.9-5.4 1-7.4 1.8-12.6 8.5-14.5 15.6-1 2.6-1 5.4-1.7 8-1.5 4-5.8 5.8-8.6 8.8a20 20 0 0 0-5.6 11.5c-.5 6.7 2.9 13.1 6.7 18.4q1 1.3 1.7 2.6c-.7 1-1.6-.3-2-1-1-1.6-2.7-3.7-5-2.9-2.8 1.3-4.2 4.4-6 6.8-2.9 4.8-6.3 9.5-7.5 15-2.4 8.2-2 17 .6 25a55 55 0 0 0 7.1 14.2c1.6 3.8 5.8 5.4 7.8 8.9.2.4.4 1.5 0 1.6-2.7-2.1-5-4.8-7.8-7-1.5.4-.3 2.9-.6 4a46 46 0 0 0 9.3 30 38 38 0 0 0 27.3 11.2q.9 0 .7.5-3.9 0-7.7-.3h-.2a44 44 0 0 0-5.6 28.2 59 59 0 0 0 11.3 24c1 1.2 2.9 1.3 4.2.9.6-.7.2-1.8 1-2.4 3-2.9 7.2-4 11-5.7 4.2-1.7 8.7-2.9 12.8-4.8q.6-.6.4-1.2 1.9 3.3 3.8 7.4.8 1.9 1.8 3.5c-1.5.7-2.5 2.3-3.3 3.7-1.5 2.5-1.2 5.5-1.1 8.3a44 44 0 0 0 7.3 16.2c2.3 3.6 5.1 6.8 7.6 10.3q.5.6.7 1.3c-1.3-1-2.3-2.4-3.7-3.3-2.6 1-4 3.8-4.8 6.3-.9 1.2-.4 2.8-.5 4.2 1 11.3 5.7 22.2 13 30.9 2.3 2.5 4.7 5.3 8 6.3 1 .3 2.2-.3 2.6.8 4.3 5 7.8 10.6 12.6 15.2q2.5 2 5.8 2.2l2 1.3q.9 4 1.5 8c-1.7 1.6-2.3 4-3.5 5.9-2.3 4.3-6 7.7-8.4 11.8q-1 1.8-1.8 3.8c-1.9-.6-4-.4-6-.4-7 0-12.8 4.8-19 7.5-5.5 2.5-11.8 1.2-17.6 1q-11.1-1-22.3-.9a61 61 0 0 1-17.7 10.5c-1.9.7-4 .7-5.9 1.6 0 1.6 1.3 3 1.8 4.6q3.8 8.4 9.5 15.8c2 2.4 5 3.6 7.2 5.7q3.8 2.8 7.4 5.7c-.8 1-2.2-.1-3-.4-2.3-.9-4.2-2.8-6.7-3-1.7.5-.8 2.8-1 4a33 33 0 0 0 4.1 18c3.6 6.7 10 11 16 15.5.6.6 1.9 1.2 2 2-.9.1-2.4-.3-2.5 1-.1 2.1 1.5 3.9 2.4 5.7a29 29 0 0 0 11.6 12.2 40 40 0 0 0 15.7 4.2l-3 .6-2 .1-1.3 9.5c-1 7-2.7 14-.8 21 2.1 9.4 9 16.8 15.8 23.2 2 2 4.9 2.8 6.4 5.2.2.5 0 1-.6.4-1.9-1-3.5-2.7-5.6-3.4-1.4.3-.8 2.2-.5 3.2 2.6 11 7.1 22 14.3 30.9q8.7 10.5 20.5 17.3c11.3 7.3 24.6 13 37.8 15.5.7-1.3 0-2.3.2-3.3.6-236.8 0-501.2 0-701.7q-.2-.6-.8-.7" transform="translate(29.7 226.2)" id="path2" fill="#c0c0c0"/><path d="m381.1 973 15.2 41.5-34.9-12.7v56l34.9-12.8-15.2 41.5h56l-15.2-41.5 34.8 12.7v-56l-34.8 12.8 15.2-41.5z" id="path3" fill="#ffd700" stroke="#000000" stroke-width="2.44652"/><path d="M418.5 1036.2a11.1 11.1 0 1 1-22.3 0 11.1 11.1 0 1 1 22.3 0z" transform="translate(-358 -921.4)scale(1.88303)" id="path4" fill="#ffd700" stroke="#000000" stroke-width="1.29925" stroke-linecap="square"/><path d="M418.5 1036.2a11.1 11.1 0 1 1-22.3 0 11.1 11.1 0 1 1 22.3 0z" transform="translate(-4.6 -22.6)scale(1.01563)" id="path5" fill="#ffd700" stroke="#000000" stroke-width="2.40887" stroke-linecap="square"/><path d="m472.2 1321.2 28.7-35c5 2.1 8.7 5.5 9.6 11.4l-28.7 35q-8.3-2.5-9.6-11.4z" id="path6" fill="#ffd700" stroke="#000000" stroke-width="1.33325" stroke-linecap="square" stroke-linejoin="round"/><path d="M539.3 1246a137.1 137.1 0 1 1-274.3 0 137.1 137.1 0 1 1 274.3 0z" transform="matrix(.91744 0 0 .93019 40.1 52)" id="path7" fill="#ffd700" stroke="#000000" stroke-width="3.28394" stroke-linecap="square" stroke-linejoin="round"/><path d="M426 874v3a118 118 0 0 1 69.3 107.7c0 64.9-51.9 117.5-115.9 117.5-44 0-82.3-25-101.9-61.5l-3 .4c20 38 59.5 63.9 105 63.9 65.4 0 118.6-53.9 118.6-120.3 0-49.7-29.7-92.3-72-110.7m-.2 9-.1 2.8a110 110 0 0 1 61.6 98.9c0 60.4-48.3 109.4-107.9 109.4-40 0-74.8-22-93.4-54.6l-2.8.4c19 34 55 56.9 96.2 56.9 61 0 110.6-50.2 110.6-112.1 0-45.1-26.3-84-64.2-101.8m-.2 4.6v2.8c34.1 17.2 57.6 53 57.6 94.3 0 58.1-46.4 105.2-103.8 105.2-37.8 0-70.8-20.4-89-51l-2.7.4a106 106 0 0 0 91.7 53.2 107 107 0 0 0 106.3-107.8 108 108 0 0 0-60-97.1m-.2 7v2.7a99 99 0 0 1 51.6 87.4c0 54.7-43.7 99-97.6 99a97 97 0 0 1-82.2-45.7l-2.6.4a100 100 0 0 0 84.8 47.7c55.2 0 100-45.4 100-101.4 0-39.2-22-73.2-54-90m-.2 6v2.6a94 94 0 0 1 46.7 81.5 93 93 0 0 1-92.5 93.7 92 92 0 0 1-76.6-41.1l-2.5.3c17 26 46 43.1 79.1 43.1 52.3 0 94.7-43 94.7-96a96 96 0 0 0-48.9-84m-.2 8.2v2.4a87 87 0 0 1 40 73.5c0 48-38.3 86.8-85.6 86.8a85 85 0 0 1-68.9-35.2l-2.3.3c16 22.4 41.9 37 71.2 37a88.3 88.3 0 0 0 87.7-89 89 89 0 0 0-42.1-75.8m-.3 10.5-.1 2.2a78 78 0 0 1 31.8 63.2c0 43.1-34.5 78-77 78a76 76 0 0 1-59-27.8l-2.1.3a78 78 0 0 0 61.1 29.5 79.4 79.4 0 0 0 78.9-80c0-27-13.3-51-33.6-65.5m-.4 11.4v2.1a69 69 0 0 1 23.1 51.9c0 38.1-30.4 69-68 69a67 67 0 0 1-48.1-20.2l-2 .3a69 69 0 0 0 50.1 21.5 71 71 0 0 0 45-124.7M424 941v2a61.6 61.6 0 0 1-44.6 102.9 60 60 0 0 1-38.3-13.8l-2 .2a62 62 0 0 0 40.3 15.1A63 63 0 0 0 424 941.1m-.4 13v2.3a53.3 53.3 0 0 1-44.2 81.3c-9.5 0-18.5-2.7-26.1-7.2l-2 .3a53 53 0 0 0 28.1 8.1 54.5 54.5 0 0 0 44.2-84.8" transform="translate(29.7 226.2)" id="path8" font-family="Sans"/><path d="M409 1083.3q-11.5 0-22.6 2l-1.8 77c-45.8 2.6-83.3 12.5-99.3 25.5a130 130 0 0 0 3.1 59.2c16.1-16.2 64-28 120.7-28 56.6 0 104.5 11.8 120.7 28a129 129 0 0 0 3-59.2q0 0 0 0c-16-13-53.4-22.8-99.2-25.5l-1.8-76.9q-11.1-2-22.7-2z" id="path9" fill="#ffd700" stroke="#000000" stroke-width="1.93862" stroke-linecap="square" stroke-linejoin="round"/><path d="M502.3 1362.7c-7 1.8-13.6 4.7-20.3 7-1 .8-3.6.5-3.4 2.2a87 87 0 0 0 17.1 28.8c3.1 3 7.4 6.2 12 4.8 8.2-2 15.6-6.3 22.5-11.2-.1-1.9-.7-4.5-3-5a15 15 0 0 1-7.4-10c-1.6-1.7-4.2-2-5.7-4-2.2-2-2.8-5-4.2-7.6-2-1.5-4.4-2.6-6.1-4.5a2 2 0 0 0-1.5-.5m94.5-137.6c-6 .3-12.5 1-16.9 5.6a242 242 0 0 1-51.3 30.2c-1.3.6-3 2.3-2.2 3.8 4.6 1.5 9.3 3.3 14.1 3.9 2-.2 4.4-.1 6.2-1 0-2.8-1-5.4-1.3-8 2.1 1 4 2.6 6.2 3.2l3.9-8.8c1.4.8 2.8 4.1 4.3 3.3 2.9-4.6 8-8 12.4-10.7-3 6-8.5 11.4-8.4 18.4.2 1.4.2 3 1 4.2 3.9-.4 7 2.7 9.6 4.7a23 23 0 0 0-7.3 13.1c-1 8.7 1.8 17.2 3.2 25.6-7.5 8.3-15.6 16-23.3 24.2.6 2 1.7 3.9 2.2 5.9 2 1.7 4.6 2.7 6.2 4.9 2 1.8 2.6 4.5 3.7 6.8 1 .8 2.3 1.9 3.6 1.7 4.1-5.4 6.9-11.7 10-17.7a313 313 0 0 0 23.8-70.9c.5-1.8-1.7-.8-2.5-.4-2 .5-3.9 2.4-6 2-1.5-1.4 1.1-2.8 1.8-4 6.7-7.3 13.5-15.7 14.7-26 .5-4.3.9-9.8-2.7-13-1.4-1-3.3-1-5-1" id="path10" fill="#ffd700"/><path d="M504 1362.8c-2.6 3.8-7.9 6.7-6 12 1.7-.8 3.4-1.9 5.8-1.8.3 3.6-.5 6.6-1.4 9.7 1.5.8 5-3.2 8.9-7.4l2.6-.7q-2.5-3-3.4-7.6-4.1-1.3-6.4-4.2" id="path11"/><path d="M687 1194.5c-7 2.8-16.2 5.3-22.7 9.1-1 .5-2 1.8-.6 2.6.3 1-.5 2.2-1.8 1.6-5.8-.1-12-1-17.5 2a23 23 0 0 0-10.1 9.4c.5.7-.7 1.9-2.1 3l-3.7-1.3c-6.6 1.4-12.4 5-17.7 9-2.6 1-1.2 4-1.8 6.1a64 64 0 0 1-13.8 27.1c-1 1 .7 1.1 1.3.5 1-.4 2.4-1.4 3.3-1.4a313 313 0 0 1-29.8 86.1c-1.6 3.4-4.2 6.4-5.4 10 .9 1.5 2.8-.7 4-.9 5.7-2.4 11.2-5.4 17-7.7 14-.3 27.9 1.4 41.6 3.5a37 37 0 0 0 26.2-6.9l7.4-5.3c1.3-4.2 4.8-1 4.6-.2.7 1 2.7.3 3.9.6 8.8.2 17.7 1.6 26.5 1.2 5.5-1.2 10.2-4.7 15.3-6.9 4.7-2.5 10.2-1.8 15.3-1.9q1.8-3.6 4-7.2a28 28 0 0 0 8.3-17c.1-2-4-.5-5.2-1.8-7.3-5.5-13-13-16.7-21.2-2.1-1-6-2.4-8-5a65 65 0 0 1-15-32.7c-.3-3.2-.7-7.8 2.6-9.6.9-.6 2.7 0 3-1-4.7-7.2-10.7-13.9-13-22.4a13 13 0 0 1 2.9-12.2c2.2-.8 0-3.7-.4-5.3-1-1-.3-3.8-1.9-3.9" id="path12" fill="#ffd700"/><path d="m548.9 1412.8 28.7-35c5 2.1 8.7 5.4 9.5 11.4l-28.7 35q-8.1-2.5-9.5-11.4z" id="path13" fill="#ffd700" stroke="#000000" stroke-width="1.33325" stroke-linecap="square" stroke-linejoin="round"/><path d="M540.4 1509.7a33 33 0 1 1-66.1 0 33 33 0 1 1 66.1 0z" transform="translate(182.1 304.7)scale(.75137)" id="path14" fill="#ffd700" stroke="#000000" stroke-width="1.82974" stroke-linecap="square" stroke-linejoin="round"/><path d="M563.3 1419.8h-1.6c9 1 16 9.2 16 19.2s-7 18.3-16 19.2h1.6c9.8 0 17.7-8.5 17.7-19.2s-8-19.2-17.7-19.2" id="path15"/><path d="M540.4 1509.7a33 33 0 1 1-66.1 0 33 33 0 1 1 66.1 0z" transform="translate(224.4 313.8)scale(.75137)" id="path16" fill="#ffd700" stroke="#000000" stroke-width="1.82974" stroke-linecap="square" stroke-linejoin="round"/><path d="M605.6 1429H604c9 1 16 9.2 16 19.2s-7 18.2-16 19.1l1.6.1c9.7 0 17.6-8.6 17.6-19.2s-7.9-19.3-17.6-19.3" id="path17"/><path d="M540.4 1509.7a33 33 0 1 1-66.1 0 33 33 0 1 1 66.1 0z" transform="translate(220.7 264)scale(.75137)" id="path18" fill="#ffd700" stroke="#000000" stroke-width="1.82974" stroke-linecap="square" stroke-linejoin="round"/><path d="m601.9 1379-1.6.1c9 .9 16 9.1 16 19.2s-7 18.2-16 19.1l1.6.1c9.7 0 17.6-8.6 17.6-19.2s-7.9-19.3-17.6-19.3" id="path19"/><path d="M540.4 1509.7a33 33 0 1 1-66.1 0 33 33 0 1 1 66.1 0z" transform="translate(175.3 206.4)scale(.80225)" id="path20" fill="#ffd700" stroke="#000000" stroke-width="1.82974" stroke-linecap="square" stroke-linejoin="round"/><path d="M582.4 1397h-1.8c9.6 1 17.1 9.8 17.1 20.5 0 10.8-7.5 19.5-17 20.5h1.7c10.3 0 18.8-9.1 18.8-20.5s-8.5-20.5-18.8-20.5" id="path21"/><path d="M369.1 1348.5c-3.6 0-7.5 1.6-11.2 6q-1.3 1.4-2.2 3c-8.5 15.7 12.6 39.8 30.7 28.4l27.6-17.4-4.8.2a20 20 0 0 1-12.2-2.9l-5.4-4.4-12.8 8.7c8.7-6.2 1-21.6-9.7-21.6z" id="path22" fill="#ffd700" stroke="#000000" stroke-width="2.0712" stroke-linecap="square"/><path d="M369.1 1348.5c-3.6 0-7.5 1.6-11.2 6q-.6.5-1 1.2c-4.3 14.7 11.5 33.6 29.1 22.8l16.8-10.3q-3-.6-5.8-2.4l-5.4-4.4-12.8 8.7c8.7-6.2 1-21.6-9.7-21.6z" id="path23" fill="#ffd700" stroke="#000000" stroke-width="1.85267" stroke-linecap="square"/><path d="M362 1367c-4-12.8 6.7-12.2 10.8-10.9" id="path24" fill="none" stroke="#000000" stroke-width="2.0712" stroke-linecap="square"/><path d="M385.1 1254.1h-1c-1.4 0-4.2 1.5-2.8 3.3 3.2 4 6 9.7 3.4 14.6-1.6 3.2-5.3 3.8-8.5 3.9-1.8.5-.3 2.8-.4 4 2.5 14 5 28.3 10.8 41.3q5.5 9.8 12.7 18.3c-.2.6 1 1.4 1.2 1.9q11 13.5 24 25c2 1.6 4 3.7 6.7 3.6 12.6.7 25.2 2.3 37.8 3 3 0 6-1.7 8.8-2.6 8-3 16-6.4 24.3-9 .8-.6-.2-1.5-.4-2.3-.5-1.1-.4-2.6-1.4-3.5q-3.3-1.2-5.7-3.9c-2-2-2.6-4.7-3.5-7.2-.6-.9-1.9-.8-2.7-1.4a12 12 0 0 1-5.5-6.2c-.7-1.3-.8-2.8-1.5-4-1.3-.8-3-1.2-4.2-2.3q-3.4-3-4.8-7.3 0-.5-.6-.4l-6 3c-1 .7-2.5 1-3.4 2 .3 1.4 1.3 2.6 2 3.9q1.5 3.2 3.4 6.2c1 .7 2.4.6 3.5 1.3-2.8-.2-6-1.6-6.9-4.5-.3-2.1-1.4-4.1-2.3-6q-.2-.5-.5-.6c.2-.8-.7-1.6-1-2.3a21 21 0 0 0-11-9.7l-2.8-.7c3.5-3.3 4.3-8.4 4-13q-.1-6.8-2-13.3c-1-2.7-3-4.8-4.8-6.9 1-5 2.1-10.3.1-15.2a18 18 0 0 0-7.2-8.7c-2.6-1.4-5.6-1.3-8.4-1.4-1.9.2-4 .2-5.6 1.3-.7.9.6 1.3 1.3 1.3h2.3l-.8.7q-1.7 0-3.3.6-.2 5.4 0 11c.2 1.3-.2 3 .6 4.2 1.1 1.5 3.4.7 4.5-.5 2.5-2.5 4.1-6.1 4.3-9.7 0-2.1-.8-4.8-3.1-5.3q-.4 0-.5-.6 2 .7 3.2 2.4c1.3 2.5 1 5.5.1 8.1-1.3 3.6-4 7.2-8 7.9-1.2-.1-1.2 1.2-1 2 0 13.3 1 26.8 4.9 39.6a81 81 0 0 0 7.4 17.1c-.3.7.9 1.5 1.1 2.2l6 8.8a26 26 0 0 1-6.6-8.8c-.6-.6-.7-1.8-1.5-2.1-.3-1.7-1.8-3.4-2.5-5-3-5.3-7.6-10.9-14.2-11.4-1.4-.9-.7-3.7-1.2-5.4-.9-8.9-3.6-17.4-6.7-25.7q-.9-5-5-7.8c-1.6-1.8-4.4-3-4.8-5.6.1-1.8 2-3.2 1.2-5.2-1.2-7-6.3-13.5-12.8-16.3q-1.3-.6-2.7-.7m-6.8 1.8c-2.3.8-3.7 3-4.6 5.2a18 18 0 0 0-.4 9.2c.4 1.4.4 3.3 2 3.8 2.3 1 5.3 1.1 7-.8 2.8-2.9 2.8-7.4 1.6-11q-1.3-4-4.8-6.2-.4-.3-.8-.2m-33.8 5h-.4c-.4.9.7 1.6 1 2.4 2 4.5 3.3 9.7 2.1 14.6a9 9 0 0 1-6.3 6.5c-.8.3-2.5.2-2 1.4a123 123 0 0 0 25.5 48.3 230 230 0 0 0 32.6 31.7 20 20 0 0 0 12.2 3c4.6-.1 9.2-.7 13.8-1 1.2-.6-.6-1.6-1-2.2-8.3-8.6-16.2-17.7-24.4-26.5-4.4-5-6.6-11.5-11.2-16.3q-1.6-1.7-3.9-2.9l-3-13.2a47 47 0 0 0-12.6-22.2c-1-1.2-2.5-1.6-2.9-3.2-2.3-5.4-4.5-11-8.4-15.5a15 15 0 0 0-11-5m-3.6.6a14 14 0 0 0-8.4 8.3c2 4.3 3.2 9 5.8 13 3.3 1.4 7-1.5 8-4.6 1.9-5.5.9-12.5-3.8-16.3q-.7-.5-1.6-.4m183.9 4c-1.9.9-2.1 3.5-3.3 5q-5.5 10.7-13 20.3c.5 2 1.8 4 2.2 6.2 1.6 1.7 4.2 2.3 5.7 4.3q2.8 3.2 4 7.1c2 2 4.6 2.8 6.3 5 1.8 1.8 2.5 4.2 3.3 6.6 2 1.7 4.6 2.6 6.2 4.8 1.9 1.9 2.5 4.5 3.6 6.8 1.9 1.6 4.2 2.6 5.9 4.3 4.5-4 8.6-8.7 13-13 3.3-3.6 7-7 10-10.8-1.4-8.9-4.3-18-2.5-27q1.6-5.8 5.6-10.3c0-1.5-2.5-1.4-3.5-2.2-2.6-1-5.1-2.8-8-2-4.2.3-8.4.2-12.4 1v.4c-6.4-2-18-5.5-23.1-6.4m-216.8 20c-2.6.3-5.4 1.7-6.6 4 .3 2.3 3 3.3 4.6 4.7 3.4 2.6 7.9 4.8 9.2 9 .6 2.5-.3 4.8-1 7 9.5 7.7 18.8 15.8 26.7 25a32 32 0 0 0 25.5 7.6c.9-1.2-1-2.7-1.3-3.9q-8.5-12.8-16-26.3c-3.1-5.1-6.5-11.6-13-12.7-2.2-.5-4.6 0-6.7-.6-6-5-11.3-11.8-19.3-13.7zm-8.2 7c-2 .7-1.4 3.6-.6 5.1 2.7 4 7.2 6 10.7 9 1 .6 2 2.2 3.2.9 2.5-2.7.2-6.4-1.9-8.6-3-3.2-7-6-11.4-6.4" id="path25" fill="#ffffff"/><path d="M572.8 1245.9a34 34 0 0 0-13.5 11.7l-3.9-4.2-4 9.3-6.5-3.7 1.9 8.6-6.6 1h.1c-5.8-1.3-11.6-3.6-16.8-4.8-.4 3.3 6.5 2.4 9 4q4.5 1.2 9 2.7c9 10.7 5.5 34.6 1.8 51.5 6-18.6 7.6-29.4 5-50.3q2 0 4.3-.3l10.5-.6 8.6 3.7a23 23 0 0 0-6.6 17.6c.2 6.6 2.1 13.5 3.4 20.1l-23.7 24.3 1.9.9c10.1-6.9 16.8-17.1 23.8-24.5-1-7.3-3.2-14.5-3.4-20.9 1-9.1 2.5-13.2 8-18.2-1.9-.4-3-2.3-4.4-3.3-1-.6-2.3-1.6-3.2-1.6l-2.6.2c-3.6-9.3 4.5-15.7 8-23.2m-189.3 7c-8.7.3-13.6 9.8-11.2 17.6 3 8.8 3.6 18.1 5.7 27.1-3.1-9.5-12.8-14.8-16.3-23.7-3.2-9.3-14-18.1-23.8-12.4-3.3 2.4-8.5 6.8-5.4 11.2a175 175 0 0 1 9 25c4.7 7-9.3-.2-12.8-.3-6.8-6.2-17.1-18.4-26.8-10.3-3.3 3.8-9.5 10.5-1.3 13.4 14 12 29.6 22.6 41 37.3a57 57 0 0 0 31.2 7.4c9 8.2 17.4 18.6 28.2 24 9 3 20.6-4 27.3 3.2l43 1.7c9.4-3.4 18.8-7.3 28.4-10.6l4.1-1-.7-1.7c-11 3-23 8.7-32.8 11.8-13.8-.6-27-2.5-40.7-3.1-5.8-2.4-33.6-30.2-43.7-50.5-5.3-13.7-8-28.4-10.3-42.9 13.5 1.4 12.7-12.5 5.2-19.8 5.3-7 20.8 7.2 19.4 17-5.6 6.7 8 7.7 8.2 15.8q6.6 15.4 7.7 32c10.5-.1 14.7 11.6 19.3 19.3 1.2 4 12.2 14.4 5.3 5-14.8-18.7-18.1-43.4-17.7-66.5 9.2-.4 15-19.2 3.3-19.7-10 .3 5.8-4.7 12.1.8 9.1 7.8 6.2 17 5.1 22.5 3.6 3.5 5 6.3 5.5 9.1 1.5 7.7 3.5 18.7-3.1 24.3 9.5.7 15.1 9.8 18 18.1 0 7.4 15.8 6.5 4.1 3.8-4.5-8.8-10.8-20.5-18.2-23.7 3-10.6 2.6-23.7-4.8-32.5 2.8-10.4-.4-25-14-24.8-7.3.1-10 1.4-9.4 4.7.1 10.1.8 14.2 0 18.2-.3 10.2 2.8 36.5 6.6 46.2-6-5.7-13.4-6.2-12-16.1-2.7-11.2-5-23.7-13.8-31.9-.9-7.3-3.4-20.2-13.2-24a12 12 0 0 0-5.7-1m-5.1 3.2c9.5 5.4 7 23-3.9 17.2-2-5.8-2.2-13.9 3.9-17.2m48 4.6c11.2-.3.8 20.8-3.5 14.8l-.2-14.4 2-.3zm-82 .5c12-.4 16.4 14 19.7 21.4 12 8.8 15.3 24 18 37.8 6.6 2 9.7 13.3 15.3 19.1 8.8 9.2 16.8 19 25.8 28-9.3 0-20.8 3.6-28.1-3.8-24.9-20.5-48.1-46.3-55.9-78.5 13.7-2.2 8.6-19.3 5.2-24m-2.9.4c8.7 5.3 6.5 23.3-3.3 21l-5.4-13c1.8-3.6 4.7-7 8.7-8m-33.2 24.1c9.2.7 14.8 9.5 21.5 14.4 13.8-2.4 17.6 11 23.2 20.3 4 8 12.3 17.5 13.4 22.3-9.8.2-17-1-24.8-7a165 165 0 0 0-27.2-25.7c7-11.6-11.9-15.7-12.8-20.4 1.6-2 4-3.8 6.7-3.9m-8.8 7.1c7.4.3 18.7 10.8 12.5 15.2-3.6-4.6-16.4-9-12.5-15.2" id="path26" font-family="Sans"/><path d="M55.2 799.8s10 41.4 17.7 50.5L308 1135a127 127 0 0 1 37.8-34.3L102.3 825.2c-7.8-9.1-47-25.4-47-25.4z" id="path27" fill="#c0c0c0" stroke="#000000" stroke-width="2.32943" stroke-linecap="square"/><path d="M75 823s1.6 17.7 6.5 23.5l234 279q9-10.2 20.2-18.2L97.2 833c-5-5.7-22.2-10-22.2-10Z" id="path28" fill="#c0c0c0" stroke="#000000" stroke-width="1.54805" stroke-linecap="square"/><path d="M597.6 1222.8c-7.4.5-15.7 1.3-20.7 7.3q-25.7 15-51.4 29.7l-2 4 2.4.6 1.5-2.8a226 226 0 0 0 52.4-30.5c4.3-5 11.6-5.4 17.8-5.8 9-.7 7.5 12.2 5.8 18.2-2.6 9.7-9.6 17-16.4 24.3.7 4 3.8.5 6 0 6.4-4.9 2 4 1.6 7.7a283 283 0 0 1-32.2 81.5l1.8 1.6q7-11.3 12.5-23.1c11-23.5 18.3-48.6 23.5-74-3 1.4-9.1 5.1-3.3-.3 6.2-8.6 13-18.5 12.5-29.6-.3-6-6.4-9-11.8-8.8m-119 148.5-2.2.9A79 79 0 0 0 497 1405c7.7 7 18 .5 25.7-3.2q4.6-2.8 9-6-.6-1-1-2.2a62 62 0 0 1-25.1 12.1c-8.5-.5-13.4-9.1-17.8-15.4q-5.6-9-9.2-19" id="path29" font-family="Sans"/><path d="m686.6 1192.2-6.6 2.4c-6.3 2.2-12 4.2-15.5 6.2q-2.8 1.4-3.7 3.4-.3.8-.1 1.4a32 32 0 0 0-16.8 1.8q-7.6 3.5-11.8 11c-9.9.7-18 6.6-24.8 11.4l-.6.4.2.8c.8 4-1 10.4-4.2 16.5a77 77 0 0 1-11.2 16.3l-.2.2v.3l-.8 2.4-1 2.6 2.6-1.2 4.7-2.2c-9 41.2-22.3 72.3-36.8 94.7v.3l-.4 1-.8 2.6 2.5-1.2 24.5-11.4c18.3 0 27.8 1.5 34.8 2.6 7 1 11.6 1.8 19.8.3a58 58 0 0 0 20.4-11.3c5.9-.2 13.1.3 19.7.7 6.6.5 12.4 1 15.5.6 3.9-.5 7.5-2.7 11.1-4.7 3.7-2 7.5-4 11.6-4.3q3-.2 7.2.4l.5-2.4q-4.5-.7-8-.4c-4.7.4-8.7 2.5-12.4 4.6s-7.1 4-10.3 4.4c-2.4.3-8.4 0-15-.6q-7.6-.6-15.1-.8c5.7-20.7 16.3-38.8 1.3-70.4l4.5-7.8-1.8-.7-8 7.1c14.9 25.4 8.1 48.7-.9 71.9q-.7 0-1.2.3s-2.6 2.3-6.3 4.8a39 39 0 0 1-13.2 6.2c-7.9 1.5-12 .8-19-.3s-16.8-2.7-35.4-2.7h-.3l-.2.2-17.2 7.9c14.4-23 23.1-52.2 31.8-93.5l.5-2.4-2.2 1-4 1.9a78 78 0 0 0 11-15.9 31 31 0 0 0 4.3-17.2c6-4.3 11-8.9 19.5-10.2 7 2.5 16 6.3 20.5 11.8q4.4 5.5 6.7 12.1l2.3-.8a40 40 0 0 0-24-24.9q3.8-6.7 10.6-9.7 7-3.3 18.4-1.3l15 5.7-14.2-7.7v-.3q-.9-.5-1-.8v-.2q.1-.6 2.6-2.1a117 117 0 0 1 15.2-6l6.5-2.4zm-62.6 55.3q-1.1-.1-1.3 1.4s-3.3 35.2-2.4 46.9c.2 3 10 12.5 10 12.5 1.3 2 2.1-.1 1.5-1 0 0-6-7.7-7.2-12.4-4.2-14.8.5-45.9.5-45.9q-.1-1.4-1.1-1.5" id="path30" font-family="Sans"/><path d="M563.9 1184q-2.2 0-4.4.5c-26.2 6.3-10.2 38 5 30.6l-31.3 16.5a128 128 0 0 1-8.8 30.3l52.3-30.2c21.9-12.7 8.3-48-12.8-47.8z" id="path31" fill="#ffd700" stroke="#000000" stroke-width="2.44652" stroke-linecap="square"/><path d="m561.4 1184.1-1.9.4c-26.2 6.3-10.2 38 5 30.6l-31.3 16.5q-1.6 10.2-4.9 20l41-24.4c18-10.8 8.6-39.6-8-43z" id="path32" fill="#ffd700" stroke="#000000" stroke-width="2.18838" stroke-linecap="square"/><path d="M555 1195.7c-4 6.4-.5 15.7 9.8 12.5" id="path33" fill="none" stroke="#000000" stroke-width="2.44652" stroke-linecap="square"/><path d="M667.2 1271.3c14.6 31.1 4 49.2-1.6 69.7 4.9 0 10.2.5 15 .8 6.7.5 12.7 1 15.1.6 3.2-.4 6.6-2.4 10.3-4.4s7.7-4.2 12.5-4.6q3.4-.2 8 .4c1.2-2.6 1.8-5.6 3.2-8.1l1.2-2.4c-14.6.5-29.2.2-43.4 7-1.4-28.3-6-51.3-20.3-59" id="path34" opacity="0.5"/><path d="m624.9 1248 .2 1s-4.7 31.1-.5 46a54 54 0 0 0 7.2 12.3l-.2 1.4c4.8-2 7.1-5.8 9.9-9.2-18.8-15-9.3-34-12.6-51z" id="path35" opacity="0.5"/><path d="M599.5 1265a294 294 0 0 1-35 93.2q.4.5.8.6l19.8-9.2.2-.2h.3c18.6 0 28.3 1.5 35.3 2.7 7 1 11.2 1.8 19.1.3 4.5-.8 9.4-3.6 13.2-6.1 3.8-2.6 6.3-5 6.3-5q.5-.2 1.2-.2l3.4-9.2c-19.7 4.7-16.8 12.5-73 5.3 11.8-23.7 10.5-48 8.4-72.3" id="path36" opacity="0.5"/><path d="m539.3 1401.3 28.7-35c5 2.2 8.7 5.5 9.6 11.5l-28.7 35q-8.2-2.7-9.6-11.5z" id="path37" fill="#ffd700" stroke="#000000" stroke-width="1.33325" stroke-linecap="square" stroke-linejoin="round"/><path d="m529.7 1389.9 28.7-35c5 2.1 8.7 5.4 9.6 11.4l-28.7 35q-8.2-2.5-9.6-11.4z" id="path38" fill="#ffd700" stroke="#000000" stroke-width="1.33325" stroke-linecap="square" stroke-linejoin="round"/><path d="m520.1 1378.4 28.7-35c5 2.2 8.8 5.5 9.6 11.5l-28.7 35q-8.2-2.7-9.6-11.5z" id="path39" fill="#ffd700" stroke="#000000" stroke-width="1.33325" stroke-linecap="square" stroke-linejoin="round"/><path d="m510.5 1367 28.7-35c5 2.1 8.8 5.4 9.6 11.4l-28.7 35q-8.1-2.5-9.6-11.4z" id="path40" fill="#ffd700" stroke="#000000" stroke-width="1.33325" stroke-linecap="square" stroke-linejoin="round"/><path d="m501 1355.5 28.7-35c5 2.2 8.7 5.5 9.5 11.5l-28.7 35q-8.1-2.7-9.5-11.5z" id="path41" fill="#ffd700" stroke="#000000" stroke-width="1.33325" stroke-linecap="square" stroke-linejoin="round"/><path d="m491.4 1344 28.7-35c5 2.2 8.7 5.6 9.6 11.5l-28.7 35q-8.3-2.5-9.6-11.4z" id="path42" fill="#ffd700" stroke="#000000" stroke-width="1.33325" stroke-linecap="square" stroke-linejoin="round"/><path d="m481.8 1332.6 28.7-35c5 2.2 8.7 5.5 9.6 11.5l-28.7 35q-8.3-2.7-9.6-11.5z" id="path43" fill="#ffd700" stroke="#000000" stroke-width="1.33325" stroke-linecap="square" stroke-linejoin="round"/><path d="m529.7 1389.9 28.7-35c5 2.1 8.7 5.4 9.6 11.4l-28.7 35q-8.2-2.5-9.6-11.4z" id="path44" fill="#ffd700" stroke="#000000" stroke-width="1.33325" stroke-linecap="square" stroke-linejoin="round"/><path d="m529.7 1389.9 28.7-35c5 2.1 8.7 5.4 9.6 11.4l-28.7 35q-8.2-2.5-9.6-11.4z" id="path45" fill="#ffd700" stroke="#000000" stroke-width="1.33325" stroke-linecap="square" stroke-linejoin="round"/><path d="M783.7 862.5c-25.8 1.9-37.8 9-43.9 18.5a41 41 0 0 0-4.8 11.5 42 42 0 0 0-26.1 11 39 39 0 0 0-10.3 22.5 79 79 0 0 0 4 35l-.7.8c-17.6 25.6-19.6 45.2-13 61.4a83 83 0 0 0 23.4 29.7v2.7a57 57 0 0 0 16.4 44.7l-.3.8-3.7 8.3a41 41 0 0 0-19.4 7 17 17 0 0 0-6.3 11.7c-.6 5.1.5 10.7 1.6 16-6.2 7.6-13.6 12.1-16.8 19.6-3.1 7.7-2.6 19 6 38.6q-6 5.7-3.2 15.5a64 64 0 0 0 11.6 20.2 10 10 0 0 0-5.1 6.8c-.6 3-2.3 8-.7 12.2 3.2 8.5 8.1 25.5 22.3 30.5 3.7 4.6 9 11.5 12 15 3.4 4 5 7.3 9.5 7.2 2.4 1.7-.5 2.7-3.3 8.3-2.6 5-4 10.1-5.8 13-2.5 3.7-2 9.6-1.1 14.8q0 .7.3 1.2a12 12 0 0 0-4.2 7.6 20 20 0 0 0 1.6 8.7q1.4 3.5 3.5 6.8l-.1.7c-.5 3.7-2.4 6.9-2.5 12.3a57 57 0 0 0 7.2 25.4c-1.5 19.4 2.7 33.2 9.7 42.5 5.3 7 12.2 11.3 19.1 13.5q-1.8.1-2.4 1.7c-.5 1 0 2.3.5 3.6 1 2.6 4 5.6 6.2 10 4 8.3 11 18.5 18 26l1.7-.8c-5.8-8.1-13.7-18-18.2-26.3-2.3-4.3-5-7.3-6-9.6-.6-1.5-.8-2.8.7-2.9 3.1-.2 5.4.2 8-1.3-8.6-1-19.4-6.2-26.1-15a75 75 0 0 1-9.3-41.7c-3-8-7.4-16.7-7.3-25 .2-4.2 1.3-7 2-10.2l6.5 7.6c2.3 2.8 3.8 2.5 1.7-.8-3.7-5.7-9-11.4-11.2-17.2a18 18 0 0 1-1.5-7.8 8 8 0 0 1 2.1-4.8l2.4 5.2 1.7-.6v-.1c0-.2-1.4-4.2-2.3-9-.8-5-1-10.7.8-13.5q3-4.4 7.2-11.8c1.3-2.5 3.7-4.5 4.6-6.2.3-.8-.2-3.7 0-4.2 4.8 8.6 13.4 12.6 22 16.6l.1.2 1.2-1.4v-.1c-6.8-4.6-15.3-6.2-18.8-16.4-.8-4-3.6-2.5-6.2-3.2-1-.3-2.1-1.9-2.3-1.8-3.7.2-5.2-1-8.7-5s-6.8-9.3-10.4-13.3c-5.1 3.4-23.4-19.5-22.4-40.3.9-2.3 1.8-4.1 4.2-5.4l2.2 2.2c3.4 3.5 2.1-.3 1.3-1.3a73 73 0 0 1-14.3-23.3q-2.5-9.3 3.1-14.1l1.5-.2-1.6-1.6c-8.6-19.7-8.7-29.8-5.8-37 2.7-6.8 10.3-12.6 15.3-17.6l1.4 8.6 1.7-.5c0-8.9-3.9-18.6-3-26.6.4-4 1.9-7.5 5.6-10.4s9.7-5.4 19-6.8h.5l.2-.5 3.4-7.6 8.3 7v.2h.2l1.3-1.3c-12.7-13.4-26.2-25.4-25.3-51.6l11.8 6.8 1.1-1.5c-15.6-12.2-30.2-24.6-36.4-40.1-6.2-15.3-4.6-33.7 12-58.4l3.5 5.4 1.6-1a79 79 0 0 1-7.3-42.3 36 36 0 0 1 9.8-21.3 39 39 0 0 1 24.2-10.4c-1.4 5.8-2.3 11.7-4 17.3-.1 2.2.3 1.5 1.8.5l5.6-18.9c.4-1.2.6-1.3-.7-1.2q1.3-5.4 4.3-10.2c5.7-8.9 16.9-15.8 42.4-17.6z" id="path46" font-family="Sans"/><path d="M701.3 957.2c-10.5 0-22.7 1-29.4 10.3-4.9 5-3.8 15.3-13.2 12.6-11 1.2-17.7 12-18.9 22.2-.7 7.6-11.1 9.9-13.1 17.7-5.1 6.7 2.3 15.5.6 21-12.4 12-19.8 30.6-14 47.6.6 6.7 8.6 13.3 6.7 16.7-.8 15.2 2 33.3 15.8 42.2a51 51 0 0 0 31.2 6c2.4 5.3 17.8 13.1 18.1 8.6-7 .1-13.6-6.2-17.8-10.5-14 1.3-30.6-1.2-38.8-14a54 54 0 0 1-6.6-30l8.1 7.5c3.3-3.7-6.8-7.3-7.4-11.6a44 44 0 0 1-4.5-46.9c3-3.8 8-16.3 12.5-13 1.7 1.1 2.9 5.8 5 3.1-6-7.4-12-18-6.6-27.3 2.2-7.3 12.8-8.7 12.6-16.5 1-9.3 6.6-19.5 16.8-20.8 6.3-2.8 6 1.6 5.2 6 5.2-.7 3-12.2 7.4-16 4.6-9.4 15.5-13 25.3-12.8 1.7-.8 7.3 1.3 5-2.1" id="path47" font-family="Sans"/><path d="M649.3 1152.7c-3.3 6.7-6 13.9-6 22a52 52 0 0 0 11.7 30.6h2.3a52 52 0 0 1-12.1-30.5c0-8 2.6-15 6-21.8q-1 0-2-.3" id="path48" font-family="Sans"/><path d="m637.5 1355.3-2 .2c1.2 3.1 3 6.2 4.1 8.9q4.9 9.1 12 16.9a35 35 0 0 0 11 33.7c6.2 3 7.3 9.2 10 14.8a32 32 0 0 0 28.2 17.6c7-.5 12.8.1 15.7 7.3a46 46 0 0 0 43.7 17.7l-1-1.5a44 44 0 0 1-34.9-10.5c-4.9-4-8.3-10-12.1-14.5-12.1.2-26.4-.7-34.2-11.4-1.7-2.5-8.1-11.6-4.8-11 6.4.8-4.6-5.7-6.3-7.2a32 32 0 0 1-14-29.5c-2.1-8.3 9.7 5 10.7-.1l-11.6-9c-3.6-.7-8.8-10.8-11.7-16-.6-1.7-1.9-4-2.8-6.4" id="path49" font-family="Sans"/><path d="M695.1 1445.5c-.2 11.7-5.5 23.8-1 35.4a54 54 0 0 0 13.2 18.7 80 80 0 0 0 30.8 51.6c11 8.6 24 14.8 37.4 18.5 2.1-.1 10.4 3.2 7.9-.5-13.8-2.2-27-8.1-38.9-15.9a69 69 0 0 1-33-43.5c0-2.1-3.5-9.3.4-5.8l4.9 3.3c2.9-3.4-5.7-5-7-8-8.8-7.7-16.4-18.3-15.6-30.5.3-7.9 2.8-15.5 2.8-23.3z" id="path50" font-family="Sans"/><path d="M409 1083.3q-5.7 0-11.4.5l-2.8 88.6c-22 1.4-83 8.9-111 26.9a131 131 0 0 0 1.6 34.9c35.2-17.8 76.7-26.8 123.7-27.8 47 1 88.4 10 123.7 27.8a130 130 0 0 0 1.6-35c-28-18-89-25.4-111-26.8l-2.8-88.6a126 126 0 0 0-11.5-.5z" id="path51" fill="#fbe403" stroke="#000000" stroke-width="3.03368"/><path d="M424.4 1187.7a18.3 18.3 0 1 1-36.6 0 18.3 18.3 0 0 1 36.6 0z" id="path52" fill="#ffd700" stroke="#000000" stroke-width="2.7401" stroke-linecap="square" stroke-linejoin="round"/><path d="M406.1 1173.5H405c6.6.7 11.8 6.8 11.8 14.2s-5.2 13.5-11.8 14.1h1.2c7.2 0 13-6.3 13-14.1s-5.8-14.2-13-14.2z" id="path53" stroke="#000000" stroke-width="0.67541"/><path d="M455.7 1191.7a14.4 14.4 0 1 1-28.9 0 14.4 14.4 0 0 1 28.9 0z" id="path54" fill="#ffd700" stroke="#000000" stroke-width="2.7401" stroke-linecap="square" stroke-linejoin="round"/><path d="M441.2 1180.6h-.9c5.2.5 9.3 5.3 9.3 11.1s-4 10.6-9.3 11.1h1c5.6 0 10.2-5 10.2-11 0-6.2-4.6-11.2-10.3-11.2z" id="path55" stroke="#000000" stroke-width="0.531198"/><path d="M485.7 1194.9a14.4 14.4 0 1 1-28.8 0 14.4 14.4 0 0 1 28.8 0z" id="path56" fill="#ffd700" stroke="#000000" stroke-width="2.7401" stroke-linecap="square" stroke-linejoin="round"/><path d="M471.3 1183.7h-1c5.3.6 9.4 5.4 9.4 11.2s-4.1 10.5-9.3 11l.9.1c5.6 0 10.2-5 10.2-11.1 0-6.2-4.6-11.2-10.2-11.2z" id="path57" stroke="#000000" stroke-width="0.531198"/><path d="M512.8 1203.4a14.4 14.4 0 1 1-28.8 0 14.4 14.4 0 0 1 28.8 0z" id="path58" fill="#ffd700" stroke="#000000" stroke-width="2.7401" stroke-linecap="square" stroke-linejoin="round"/><path d="M498.4 1192.3h-1c5.3.5 9.3 5.3 9.3 11.1s-4 10.6-9.2 11.1h.9c5.6 0 10.2-5 10.2-11 0-6.2-4.6-11.2-10.2-11.2z" id="path59" stroke="#000000" stroke-width="0.531198"/><path d="M539.2 1213a14.4 14.4 0 1 1-28.8 0 14.4 14.4 0 0 1 28.8 0z" id="path60" fill="#ffd700" stroke="#000000" stroke-width="2.7401" stroke-linecap="square" stroke-linejoin="round"/><path d="M524.8 1201.9h-1a11 11 0 0 1 9.3 11.1c0 5.9-4 10.6-9.3 11.1h1c5.6 0 10.2-4.9 10.2-11 0-6.2-4.6-11.2-10.2-11.2z" id="path61" stroke="#000000" stroke-width="0.531198"/><path d="M388.4 1191.2a14.7 14.7 0 1 1-29.5 0 14.7 14.7 0 0 1 29.5 0z" id="path62" fill="#ffd700" stroke="#000000" stroke-width="2.7401" stroke-linecap="square" stroke-linejoin="round"/><path d="M373.6 1179.8h-1c5.4.6 9.6 5.4 9.6 11.4s-4.2 10.8-9.5 11.4h1c5.7 0 10.4-5.1 10.4-11.4s-4.7-11.4-10.5-11.4z" id="path63" stroke="#000000" stroke-width="0.543738"/><path d="M358.8 1196.3a14.7 14.7 0 1 1-29.5 0 14.7 14.7 0 0 1 29.5 0z" id="path64" fill="#ffd700" stroke="#000000" stroke-width="2.7401" stroke-linecap="square" stroke-linejoin="round"/><path d="M344 1184.8h-.9c5.4.6 9.5 5.5 9.5 11.5s-4.1 10.8-9.5 11.3h1c5.8 0 10.4-5 10.4-11.3s-4.6-11.5-10.4-11.5z" id="path65" stroke="#000000" stroke-width="0.543738"/><path d="M330.9 1204.1a14.7 14.7 0 1 1-29.5 0 14.7 14.7 0 0 1 29.5 0z" id="path66" fill="#ffd700" stroke="#000000" stroke-width="2.7401" stroke-linecap="square" stroke-linejoin="round"/><path d="M316.1 1192.7h-1c5.4.6 9.6 5.5 9.6 11.4s-4.2 10.9-9.5 11.4h1c5.7 0 10.4-5 10.4-11.4 0-6.3-4.7-11.4-10.5-11.4z" id="path67" stroke="#000000" stroke-width="0.543738"/><path d="M302.7 1214a14.7 14.7 0 1 1-29.5 0 14.7 14.7 0 0 1 29.5 0z" id="path68" fill="#ffd700" stroke="#000000" stroke-width="2.7401" stroke-linecap="square" stroke-linejoin="round"/><path d="M288 1202.5h-1c5.4.6 9.5 5.5 9.5 11.4s-4.1 10.8-9.5 11.4h1c5.8 0 10.5-5 10.5-11.4 0-6.3-4.7-11.4-10.5-11.4" id="path69"/><path d="M423 1153.4a14.4 14.4 0 1 1-28.8 0 14.4 14.4 0 0 1 28.8 0z" id="path70" fill="#ffd700" stroke="#000000" stroke-width="2.7401" stroke-linecap="square" stroke-linejoin="round"/><path d="M408.6 1142.3h-1a11 11 0 0 1 9.3 11.1c0 5.9-4 10.6-9.3 11.2h1c5.6 0 10.2-5 10.2-11.2s-4.6-11.1-10.2-11.1z" id="path71" stroke="#000000" stroke-width="0.531198"/><path d="M423.3 1124.8a14.4 14.4 0 1 1-28.8 0 14.4 14.4 0 0 1 28.8 0z" id="path72" fill="#ffd700" stroke="#000000" stroke-width="2.7401" stroke-linecap="square" stroke-linejoin="round"/><path d="M409 1113.6h-1c5.2.6 9.3 5.4 9.3 11.2s-4.1 10.6-9.3 11l1 .1c5.6 0 10.1-5 10.1-11.1 0-6.2-4.5-11.2-10.2-11.2z" id="path73" stroke="#000000" stroke-width="0.531198"/><path d="M423.4 1099.9a14.4 14.4 0 1 1-27.6-8.3 14.4 14.4 0 0 1 27.6 8.3z" id="path74" fill="#ffd700" stroke="#000000" stroke-width="2.7401" stroke-linecap="square" stroke-linejoin="round"/><path d="m412.8 1085-.9-.1c4.8 2 7.4 7.7 5.7 13.3-1.7 5.5-7 9-12 8l.8.3c5.4 1.6 11.2-1.9 13-7.8s-1.2-12-6.6-13.6z" id="path75" stroke="#000000" stroke-width="0.531198"/><path d="M383.9 918c-13.8-.1-27.2.3-40.2 3l-.6-.5c5.7 6 33.1 10.5 66 10.5 33 0 60.4-4.5 66.2-10.5l-.7.4c-20.7-4.2-42.6-2.7-65.4-2.7q-12.9 0-25.3-.3z" id="path76" opacity="0.98" fill="#ffd700" stroke="#000000" stroke-width="1.05451" stroke-linecap="square"/><path d="M369.6 825c-11.7-.1-33.8 17.2-37.3 28.5-4.5 14.5-2.3 29.4 9.8 44.7h.3a415 415 0 0 1 66.8-3.9c22.7 0 43.7-.2 66.7 4h.3c12-15.4 14.3-30.3 9.8-44.8-3.5-11.3-25.5-28.6-37.3-28.5l-18.6.2a72 72 0 0 0-21 13.5 72 72 0 0 0-20.9-13.5z" id="path77" fill="#ffd700" stroke="#000000" stroke-width="1.58176"/><path d="M409.2 821a53 53 0 0 0-13 8q7 4.3 13 9.7 5.9-5.5 13-9.7a53 53 0 0 0-13-8z" id="path78" fill="#ffd700" stroke="#000000" stroke-width="1.58176" stroke-linecap="square"/><path d="M448.7 825h-2.6l-1.8 5.3-4.7-1.7-.6-.2v3l4.3 1.5a69 69 0 0 1-3.7 7.7l-.6-.2v6.3l1.8-2.4a68 68 0 0 1 7.9 4.3q-2 4.6-4 8.6L439 854v3.1l4.5 2.5q-2.5 4.5-4.5 6.7v3.7l1.6-1.2q2.6-2.6 5.3-7.7 4.4 3 8.1 6.5l-5 9.7q-4.8-3.4-10-6.5v3.3q4.5 2.7 8.6 5.7l-3 5q-3.1 4.5-5.6 7v2.6h1.5a46 46 0 0 0 6.4-8.1l3-4.8 6.2 4.9a33 33 0 0 1-8.5 8.4l4.5.3q3.3-2.8 6.2-6.8l5.1 4.5-3 3.1 3.6.5 1.6-1.7 2.3 2.2 5 .8-5.5-5.2 4-5.7q3.3 4.2 7 8.4l1.7-2.5-7.2-8.5q2.4-4 4.3-8.5l7.4 8.5 1.2-3-7.3-8.4.6-1.2 2.7-7.1 6 7 .4-4-5.4-6.1q1.6-5 2.7-9.5a24 24 0 0 0-2.2-3.9q-.9 5-2.7 10.8l-5.9-6.5a71 71 0 0 0 2.3-11.7l-2.7-2.6q-.1 4.7-2 11.9l-6-5.9q1.9-6.4 1.8-10.9l-3.1-2 .1.9c.3 2.1-.1 5.7-1.2 10q-3.6-3-7.5-5.5l2.7-8.8-2.6-1-2.6 8.2a70 70 0 0 0-7-3.5q1.3-3.3 2.2-6.5zm-2.8 9a67 67 0 0 1 7 3.8l-3.1 8.1a71 71 0 0 0-7.5-4.1q2-3.6 3.6-7.7m9.5 5.4q4 2.7 7.6 5.8l-.3 1.2-2.6 7.2a86 86 0 0 0-7.9-6zm10 7.8 6.1 6-2.8 8.7-6.3-6.3zm-14.3 3q4.2 3 7.9 6.3-1.7 4.3-3.7 8.5a74 74 0 0 0-8.1-6.3zm22.7 5.5q3 3 5.8 6.4l-3.1 8.4-5.6-6.3zm-12.6 2.8q3.3 3 6.4 6.4l-1 2.3q-1.3 3.3-2.8 6.3-3-3.3-6.3-6.5zm8.5 8.7 5.5 6.3a107 107 0 0 1-4.2 8.4l-5.2-6q1.9-3.7 3.5-7.6zm-13.5 2.5q3.2 3.1 6.2 6.6-2.2 4.2-4.7 7.8-3-2.6-6.4-5 2.5-4.5 4.9-9.4m8.2 9 5 5.8a68 68 0 0 1-4.2 6.1L460 886q2.3-3.5 4.4-7.4" id="path79" font-family="Sans"/><path d="M427.2 826.4a64 64 0 0 0-10.2 6V893h10.2z" id="path80" fill="none" stroke="#000000" stroke-width="1.05451" stroke-linecap="square"/><path d="M427.2 826.4a64 64 0 0 0-10.2 6v2.2l10.2-7.1z" id="path81"/><path d="m417 838.5 10.2-7v2.4L417 841z" id="path82"/><path d="m417 845 10.2-7.1v2.5l-10.2 7.1z" id="path83"/><path d="m417 851.5 10.2-7.1v2.5l-10.2 7z" id="path84"/><path d="m417 858 10.2-7.2v2.5l-10.2 7.1z" id="path85"/><path d="m417 864.4 10.2-7.1v2.5l-10.2 7.1z" id="path86"/><path d="m417 870.9 10.2-7.1v2.5l-10.2 7z" id="path87"/><path d="m417 877.3 10.2-7v2.4l-10.2 7.1z" id="path88"/><path d="m417.5 883.8 10.2-7.1v2.5l-10.2 7.1z" id="path89"/><path d="m417.5 890.3 10.2-7.1v2.5l-10.2 7z" id="path90"/><path d="m417 832.4-2 1.5v3h2z" id="path91" fill="#ffd700" stroke="#000000" stroke-width="0.708353" stroke-linecap="square"/><path id="rect91" d="M414.9 837.5h2.1v4.5h-2.1z" fill="#ffd700" stroke="#000000" stroke-width="0.708353" stroke-linecap="square"/><path id="rect92" d="M414.9 842h2.1v4.5h-2.1z" fill="#ffd700" stroke="#000000" stroke-width="0.708353" stroke-linecap="square"/><path id="rect93" d="M414.9 846.5h2.1v4.5h-2.1z" fill="#ffd700" stroke="#000000" stroke-width="0.708353" stroke-linecap="square"/><path id="rect94" d="M414.9 851.6h2.1v4.5h-2.1z" fill="#ffd700" stroke="#000000" stroke-width="0.708353" stroke-linecap="square"/><path id="rect95" d="M414.9 856.1h2.1v4.5h-2.1z" fill="#ffd700" stroke="#000000" stroke-width="0.708353" stroke-linecap="square"/><path id="rect96" d="M414.9 860.6h2.1v4.5h-2.1z" fill="#ffd700" stroke="#000000" stroke-width="0.708353" stroke-linecap="square"/><path id="rect97" d="M414.9 865.7h2.1v4.5h-2.1z" fill="#ffd700" stroke="#000000" stroke-width="0.708353" stroke-linecap="square"/><path id="rect98" d="M414.9 870.2h2.1v4.5h-2.1z" fill="#ffd700" stroke="#000000" stroke-width="0.708353" stroke-linecap="square"/><path id="rect99" d="M414.9 874.7h2.1v4.5h-2.1z" fill="#ffd700" stroke="#000000" stroke-width="0.708353" stroke-linecap="square"/><path id="rect100" d="M414.9 879.8h2.1v4.5h-2.1z" fill="#ffd700" stroke="#000000" stroke-width="0.708353" stroke-linecap="square"/><path id="rect101" d="M414.9 884.3h2.1v4.5h-2.1z" fill="#ffd700" stroke="#000000" stroke-width="0.708353" stroke-linecap="square"/><path id="rect102" d="M414.9 888.8h2.1v4.5h-2.1z" fill="#ffd700" stroke="#000000" stroke-width="0.708353" stroke-linecap="square"/><path d="M343 915.4c-1.9 3-1.6 4.2.7 5.5 20.7-4.2 42.6-2.7 65.5-2.7s44.7-1.5 65.4 2.7c2.3-1.3 2.6-2.6.7-5.5-22.1-2.5-43.4-2.4-66.1-2.4a643 643 0 0 0-66.2 2.4z" id="path102" fill="#ffd700" stroke="#000000" stroke-width="1.05451"/><path d="M409.2 898.7c-22.9 0-45-.6-66 5l-.2 11.7c22.2-2.5 43.4-2.7 66.2-2.4 22.7-.3 44-.1 66.1 2.4l-.1-11.6c-21.1-5.7-43.2-5-66-5" id="path103"/><path d="M369.6 825h2.7l1.8 5.3 4.6-1.7.6-.2v3l-4.2 1.5q1.6 4.2 3.6 7.7l.6-.2v6.3l-1.7-2.4a68 68 0 0 0-8 4.3q2 4.6 4 8.6 2.7-1.7 5.7-3.1v3.1l-4.4 2.5q2.5 4.5 4.4 6.7v3.7l-1.5-1.2a31 31 0 0 1-5.4-7.7 71 71 0 0 0-8 6.5q2.3 5 5 9.7 4.6-3.4 9.9-6.5v3.3q-4.5 2.7-8.5 5.7l3 5q3.1 4.6 5.5 7v2.6h-1.5a46 46 0 0 1-6.4-8.1l-3-4.8-6.1 4.9q4.1 5.7 8.4 8.4l-4.4.3a41 41 0 0 1-6.3-6.8l-5.1 4.5q1.5 1.8 3 3.1l-3.6.5-1.6-1.7-2.3 2.2-5 .8 5.5-5.2-4-5.7q-3.3 4.2-7 8.4l-1.7-2.5 7.2-8.5q-2.3-4-4.3-8.5l-7.4 8.5-1.2-3q3.8-4.2 7.3-8.4l-.5-1.2-2.7-7.1-6.2 7-.2-4 5.3-6.1q-1.6-5-2.6-9.5a24 24 0 0 1 2.1-3.9q.9 5 2.7 10.8l5.9-6.5a71 71 0 0 1-2.3-11.7l2.7-2.6q.2 4.7 2 11.9l6-5.9q-1.8-6.4-1.8-10.9l3.1-2-.1.9a30 30 0 0 0 1.3 10q3.4-3 7.5-5.5-1.8-5-2.8-8.8l2.6-1 2.7 8.2q3.2-2 6.9-3.5-1.3-3.3-2.2-6.5zm2.8 9a67 67 0 0 0-7 3.8l3.1 8.1q3.6-2.3 7.6-4.1-2-3.6-3.7-7.7m-9.4 5.4a81 81 0 0 0-7.7 5.8l.4 1.2 2.5 7.2q3.7-3.3 8-6-1.8-4.2-3.2-8.2m-10 7.8-6.2 6 2.8 8.7 6.4-6.3zm14.2 3q-4.1 3-7.9 6.3l3.7 8.5q3.8-3.5 8.1-6.3zm-22.7 5.5q-3 3-5.8 6.4l3.2 8.4 5.5-6.3zm12.6 2.8q-3.3 3-6.3 6.4l.9 2.3q1.3 3.3 2.8 6.3 3-3.3 6.3-6.5zm-8.5 8.7-5.4 6.3a107 107 0 0 0 4.2 8.4l5-6-3.3-7.6zm13.5 2.5-6.2 6.6q2.2 4.2 4.7 7.8l6.4-5q-2.5-4.5-4.9-9.4m-8.2 9-5 5.8q2.1 3.4 4.2 6.1l5.2-4.6q-2.3-3.5-4.4-7.4" id="path104" font-family="Sans"/><path d="M391.1 826.4a64 64 0 0 1 10.2 6V893h-10.2z" id="path105" fill="none" stroke="#000000" stroke-width="1.05451" stroke-linecap="square"/><path d="M391.1 826.4a64 64 0 0 1 10.2 6v2.2l-10.2-7.1z" id="path106"/><path d="m401.3 838.5-10.2-7v2.4l10.2 7.1z" id="path107"/><path d="m401.3 845-10.2-7.1v2.5l10.2 7.1z" id="path108"/><path d="m401.3 851.5-10.2-7.1v2.5l10.2 7z" id="path109"/><path d="m401.3 858-10.2-7.2v2.5l10.2 7.1z" id="path110"/><path d="m401.3 864.4-10.2-7.1v2.5l10.2 7.1z" id="path111"/><path d="m401.3 870.9-10.2-7.1v2.5l10.2 7z" id="path112"/><path d="m401.3 877.3-10.2-7v2.4l10.2 7.1z" id="path113"/><path d="m400.8 883.8-10.2-7.1v2.5l10.2 7.1z" id="path114"/><path d="m400.8 890.3-10.2-7.1v2.5l10.2 7z" id="path115"/><path d="m401.3 832.4 2 1.5v3h-2z" id="path116" fill="#ffd700" stroke="#000000" stroke-width="0.708353" stroke-linecap="square"/><path transform="scale(-1 1)" id="rect116" d="M-403.4 837.5h2.1v4.5h-2.1z" fill="#ffd700" stroke="#000000" stroke-width="0.708353" stroke-linecap="square"/><path transform="scale(-1 1)" id="rect117" d="M-403.4 842h2.1v4.5h-2.1z" fill="#ffd700" stroke="#000000" stroke-width="0.708353" stroke-linecap="square"/><path transform="scale(-1 1)" id="rect118" d="M-403.4 846.5h2.1v4.5h-2.1z" fill="#ffd700" stroke="#000000" stroke-width="0.708353" stroke-linecap="square"/><path transform="scale(-1 1)" id="rect119" d="M-403.4 851.6h2.1v4.5h-2.1z" fill="#ffd700" stroke="#000000" stroke-width="0.708353" stroke-linecap="square"/><path transform="scale(-1 1)" id="rect120" d="M-403.4 856.1h2.1v4.5h-2.1z" fill="#ffd700" stroke="#000000" stroke-width="0.708353" stroke-linecap="square"/><path transform="scale(-1 1)" id="rect121" d="M-403.4 860.6h2.1v4.5h-2.1z" fill="#ffd700" stroke="#000000" stroke-width="0.708353" stroke-linecap="square"/><path transform="scale(-1 1)" id="rect122" d="M-403.4 865.7h2.1v4.5h-2.1z" fill="#ffd700" stroke="#000000" stroke-width="0.708353" stroke-linecap="square"/><path transform="scale(-1 1)" id="rect123" d="M-403.4 870.2h2.1v4.5h-2.1z" fill="#ffd700" stroke="#000000" stroke-width="0.708353" stroke-linecap="square"/><path transform="scale(-1 1)" id="rect124" d="M-403.4 874.7h2.1v4.5h-2.1z" fill="#ffd700" stroke="#000000" stroke-width="0.708353" stroke-linecap="square"/><path transform="scale(-1 1)" id="rect125" d="M-403.4 879.8h2.1v4.5h-2.1z" fill="#ffd700" stroke="#000000" stroke-width="0.708353" stroke-linecap="square"/><path transform="scale(-1 1)" id="rect126" d="M-403.4 884.3h2.1v4.5h-2.1z" fill="#ffd700" stroke="#000000" stroke-width="0.708353" stroke-linecap="square"/><path transform="scale(-1 1)" id="rect127" d="M-403.4 888.8h2.1v4.5h-2.1z" fill="#ffd700" stroke="#000000" stroke-width="0.708353" stroke-linecap="square"/><path id="rect128" d="M430.2 824.9h5.9v66.5h-5.9z"/><path id="rect129" d="M436.1 824.9h2.9v4.6h-2.9z" fill="#ffd700" stroke="#000000" stroke-width="0.843608" stroke-linecap="square"/><path id="rect130" d="M436.1 830h2.9v4.5h-2.9z" fill="#ffd700" stroke="#000000" stroke-width="0.843608" stroke-linecap="square"/><path id="rect131" d="M436.1 834.5h2.9v4.5h-2.9z" fill="#ffd700" stroke="#000000" stroke-width="0.843608" stroke-linecap="square"/><path id="rect132" d="M436.1 839h2.9v4.6h-2.9z" fill="#ffd700" stroke="#000000" stroke-width="0.843608" stroke-linecap="square"/><path id="rect133" d="M436.1 844.1h2.9v4.5h-2.9z" fill="#ffd700" stroke="#000000" stroke-width="0.843608" stroke-linecap="square"/><path id="rect134" d="M436.1 848.6h2.9v4.5h-2.9z" fill="#ffd700" stroke="#000000" stroke-width="0.843608" stroke-linecap="square"/><path id="rect135" d="M436.1 853.1h2.9v4.6h-2.9z" fill="#ffd700" stroke="#000000" stroke-width="0.843608" stroke-linecap="square"/><path id="rect136" d="M436.1 858.2h2.9v4.5h-2.9z" fill="#ffd700" stroke="#000000" stroke-width="0.843608" stroke-linecap="square"/><path id="rect137" d="M436.1 862.7h2.9v4.5h-2.9z" fill="#ffd700" stroke="#000000" stroke-width="0.843608" stroke-linecap="square"/><path id="rect138" d="M436.1 867.2h2.9v4.5h-2.9z" fill="#ffd700" stroke="#000000" stroke-width="0.843608" stroke-linecap="square"/><path id="rect139" d="M436.1 872.3h2.9v4.5h-2.9z" fill="#ffd700" stroke="#000000" stroke-width="0.843608" stroke-linecap="square"/><path id="rect140" d="M436.1 876.8h2.9v4.5h-2.9z" fill="#ffd700" stroke="#000000" stroke-width="0.843608" stroke-linecap="square"/><path id="rect141" d="M436.1 881.3h2.9v4.5h-2.9z" fill="#ffd700" stroke="#000000" stroke-width="0.843608" stroke-linecap="square"/><path id="rect142" d="M436.1 886.4h2.9v4.5h-2.9z" fill="#ffd700" stroke="#000000" stroke-width="0.843608" stroke-linecap="square"/><path d="m430 825.2-2.9 1.3v3.2h3z" id="path142" fill="#ffd700" stroke="#000000" stroke-width="0.843608" stroke-linecap="square"/><path id="rect143" d="M427.1 830.2h3v4.6h-3z" fill="#ffd700" stroke="#000000" stroke-width="0.843608" stroke-linecap="square"/><path id="rect144" d="M427.1 834.8h3v4.5h-3z" fill="#ffd700" stroke="#000000" stroke-width="0.843608" stroke-linecap="square"/><path id="rect145" d="M427.1 839.3h3v4.5h-3z" fill="#ffd700" stroke="#000000" stroke-width="0.843608" stroke-linecap="square"/><path id="rect146" d="M427.1 844.3h3v4.6h-3z" fill="#ffd700" stroke="#000000" stroke-width="0.843608" stroke-linecap="square"/><path id="rect147" d="M427.1 848.9h3v4.5h-3z" fill="#ffd700" stroke="#000000" stroke-width="0.843608" stroke-linecap="square"/><path id="rect148" d="M427.1 853.4h3v4.5h-3z" fill="#ffd700" stroke="#000000" stroke-width="0.843608" stroke-linecap="square"/><path id="rect149" d="M427.1 858.4h3v4.5h-3z" fill="#ffd700" stroke="#000000" stroke-width="0.843608" stroke-linecap="square"/><path id="rect150" d="M427.1 862.9h3v4.6h-3z" fill="#ffd700" stroke="#000000" stroke-width="0.843608" stroke-linecap="square"/><path id="rect151" d="M427.1 867.5h3v4.5h-3z" fill="#ffd700" stroke="#000000" stroke-width="0.843608" stroke-linecap="square"/><path id="rect152" d="M427.1 872.5h3v4.5h-3z" fill="#ffd700" stroke="#000000" stroke-width="0.843608" stroke-linecap="square"/><path id="rect153" d="M427.1 877h3v4.6h-3z" fill="#ffd700" stroke="#000000" stroke-width="0.843608" stroke-linecap="square"/><path id="rect154" d="M427.1 881.6h3v4.5h-3z" fill="#ffd700" stroke="#000000" stroke-width="0.843608" stroke-linecap="square"/><path id="rect155" d="M427.1 886.6h3v4.5h-3z" fill="#ffd700" stroke="#000000" stroke-width="0.843608" stroke-linecap="square"/><path d="M356 426.4a2.7 2.7 0 1 1-5.3 0 2.7 2.7 0 1 1 5.3 0z" transform="translate(60.5 378.4)scale(1.05451)" id="path155" fill="#ffd700" stroke="#000000" stroke-width="0.8" stroke-linecap="square"/><path d="M356 426.4a2.7 2.7 0 1 1-5.3 0 2.7 2.7 0 1 1 5.3 0z" transform="translate(60.5 385)scale(1.05451)" id="path156" fill="#ffd700" stroke="#000000" stroke-width="0.8" stroke-linecap="square"/><path d="M356 426.4a2.7 2.7 0 1 1-5.3 0 2.7 2.7 0 1 1 5.3 0z" transform="translate(60.5 391.5)scale(1.05451)" id="path157" fill="#ffd700" stroke="#000000" stroke-width="0.8" stroke-linecap="square"/><path d="M356 426.4a2.7 2.7 0 1 1-5.3 0 2.7 2.7 0 1 1 5.3 0z" transform="translate(60.5 398)scale(1.05451)" id="path158" fill="#ffd700" stroke="#000000" stroke-width="0.8" stroke-linecap="square"/><path d="M356 426.4a2.7 2.7 0 1 1-5.3 0 2.7 2.7 0 1 1 5.3 0z" transform="translate(60.5 404.6)scale(1.05451)" id="path159" fill="#ffd700" stroke="#000000" stroke-width="0.8" stroke-linecap="square"/><path d="M356 426.4a2.7 2.7 0 1 1-5.3 0 2.7 2.7 0 1 1 5.3 0z" transform="translate(60.5 411)scale(1.05451)" id="path160" fill="#ffd700" stroke="#000000" stroke-width="0.8" stroke-linecap="square"/><path d="M356 426.4a2.7 2.7 0 1 1-5.3 0 2.7 2.7 0 1 1 5.3 0z" transform="translate(60.5 417.6)scale(1.05451)" id="path161" fill="#ffd700" stroke="#000000" stroke-width="0.8" stroke-linecap="square"/><path d="M356 426.4a2.7 2.7 0 1 1-5.3 0 2.7 2.7 0 1 1 5.3 0z" transform="translate(60.5 424.2)scale(1.05451)" id="path162" fill="#ffd700" stroke="#000000" stroke-width="0.8" stroke-linecap="square"/><path d="M356 426.4a2.7 2.7 0 1 1-5.3 0 2.7 2.7 0 1 1 5.3 0z" transform="translate(60.5 430.7)scale(1.05451)" id="path163" fill="#ffd700" stroke="#000000" stroke-width="0.8" stroke-linecap="square"/><path d="M356 426.4a2.7 2.7 0 1 1-5.3 0 2.7 2.7 0 1 1 5.3 0z" transform="translate(60.5 437.2)scale(1.05451)" id="path164" fill="#ffd700" stroke="#000000" stroke-width="0.8" stroke-linecap="square"/><path transform="scale(-1 1)" id="rect164" d="M-388.2 824.9h6v66.5h-6z"/><path transform="scale(-1 1)" id="rect165" d="M-382.2 824.9h2.9v4.6h-2.9z" fill="#ffd700" stroke="#000000" stroke-width="0.843608" stroke-linecap="square"/><path transform="scale(-1 1)" id="rect166" d="M-382.2 830h2.9v4.5h-2.9z" fill="#ffd700" stroke="#000000" stroke-width="0.843608" stroke-linecap="square"/><path transform="scale(-1 1)" id="rect167" d="M-382.2 834.5h2.9v4.5h-2.9z" fill="#ffd700" stroke="#000000" stroke-width="0.843608" stroke-linecap="square"/><path transform="scale(-1 1)" id="rect168" d="M-382.2 839h2.9v4.6h-2.9z" fill="#ffd700" stroke="#000000" stroke-width="0.843608" stroke-linecap="square"/><path transform="scale(-1 1)" id="rect169" d="M-382.2 844.1h2.9v4.5h-2.9z" fill="#ffd700" stroke="#000000" stroke-width="0.843608" stroke-linecap="square"/><path transform="scale(-1 1)" id="rect170" d="M-382.2 848.6h2.9v4.5h-2.9z" fill="#ffd700" stroke="#000000" stroke-width="0.843608" stroke-linecap="square"/><path transform="scale(-1 1)" id="rect171" d="M-382.2 853.1h2.9v4.6h-2.9z" fill="#ffd700" stroke="#000000" stroke-width="0.843608" stroke-linecap="square"/><path transform="scale(-1 1)" id="rect172" d="M-382.2 858.2h2.9v4.5h-2.9z" fill="#ffd700" stroke="#000000" stroke-width="0.843608" stroke-linecap="square"/><path transform="scale(-1 1)" id="rect173" d="M-382.2 862.7h2.9v4.5h-2.9z" fill="#ffd700" stroke="#000000" stroke-width="0.843608" stroke-linecap="square"/><path transform="scale(-1 1)" id="rect174" d="M-382.2 867.2h2.9v4.5h-2.9z" fill="#ffd700" stroke="#000000" stroke-width="0.843608" stroke-linecap="square"/><path transform="scale(-1 1)" id="rect175" d="M-382.2 872.3h2.9v4.5h-2.9z" fill="#ffd700" stroke="#000000" stroke-width="0.843608" stroke-linecap="square"/><path transform="scale(-1 1)" id="rect176" d="M-382.2 876.8h2.9v4.5h-2.9z" fill="#ffd700" stroke="#000000" stroke-width="0.843608" stroke-linecap="square"/><path transform="scale(-1 1)" id="rect177" d="M-382.2 881.3h2.9v4.5h-2.9z" fill="#ffd700" stroke="#000000" stroke-width="0.843608" stroke-linecap="square"/><path transform="scale(-1 1)" id="rect178" d="M-382.2 886.4h2.9v4.5h-2.9z" fill="#ffd700" stroke="#000000" stroke-width="0.843608" stroke-linecap="square"/><path d="m388.2 825.2 3 1.3v3.2h-3z" id="path178" fill="#ffd700" stroke="#000000" stroke-width="0.843608" stroke-linecap="square"/><path transform="scale(-1 1)" id="rect179" d="M-391.2 830.2h3v4.6h-3z" fill="#ffd700" stroke="#000000" stroke-width="0.843608" stroke-linecap="square"/><path transform="scale(-1 1)" id="rect180" d="M-391.2 834.8h3v4.5h-3z" fill="#ffd700" stroke="#000000" stroke-width="0.843608" stroke-linecap="square"/><path transform="scale(-1 1)" id="rect181" d="M-391.2 839.3h3v4.5h-3z" fill="#ffd700" stroke="#000000" stroke-width="0.843608" stroke-linecap="square"/><path transform="scale(-1 1)" id="rect182" d="M-391.2 844.3h3v4.6h-3z" fill="#ffd700" stroke="#000000" stroke-width="0.843608" stroke-linecap="square"/><path transform="scale(-1 1)" id="rect183" d="M-391.2 848.9h3v4.5h-3z" fill="#ffd700" stroke="#000000" stroke-width="0.843608" stroke-linecap="square"/><path transform="scale(-1 1)" id="rect184" d="M-391.2 853.4h3v4.5h-3z" fill="#ffd700" stroke="#000000" stroke-width="0.843608" stroke-linecap="square"/><path transform="scale(-1 1)" id="rect185" d="M-391.2 858.4h3v4.5h-3z" fill="#ffd700" stroke="#000000" stroke-width="0.843608" stroke-linecap="square"/><path transform="scale(-1 1)" id="rect186" d="M-391.2 862.9h3v4.6h-3z" fill="#ffd700" stroke="#000000" stroke-width="0.843608" stroke-linecap="square"/><path transform="scale(-1 1)" id="rect187" d="M-391.2 867.5h3v4.5h-3z" fill="#ffd700" stroke="#000000" stroke-width="0.843608" stroke-linecap="square"/><path transform="scale(-1 1)" id="rect188" d="M-391.2 872.5h3v4.5h-3z" fill="#ffd700" stroke="#000000" stroke-width="0.843608" stroke-linecap="square"/><path transform="scale(-1 1)" id="rect189" d="M-391.2 877h3v4.6h-3z" fill="#ffd700" stroke="#000000" stroke-width="0.843608" stroke-linecap="square"/><path transform="scale(-1 1)" id="rect190" d="M-391.2 881.6h3v4.5h-3z" fill="#ffd700" stroke="#000000" stroke-width="0.843608" stroke-linecap="square"/><path transform="scale(-1 1)" id="rect191" d="M-391.2 886.6h3v4.5h-3z" fill="#ffd700" stroke="#000000" stroke-width="0.843608" stroke-linecap="square"/><path d="M356 426.4a2.7 2.7 0 1 1-5.3 0 2.7 2.7 0 1 1 5.3 0z" transform="matrix(-1.05451 0 0 1.05451 757.8 378.4)" id="path191" fill="#ffd700" stroke="#000000" stroke-width="0.8" stroke-linecap="square"/><path d="M356 426.4a2.7 2.7 0 1 1-5.3 0 2.7 2.7 0 1 1 5.3 0z" transform="matrix(-1.05451 0 0 1.05451 757.8 385)" id="path192" fill="#ffd700" stroke="#000000" stroke-width="0.8" stroke-linecap="square"/><path d="M356 426.4a2.7 2.7 0 1 1-5.3 0 2.7 2.7 0 1 1 5.3 0z" transform="matrix(-1.05451 0 0 1.05451 757.8 391.5)" id="path193" fill="#ffd700" stroke="#000000" stroke-width="0.8" stroke-linecap="square"/><path d="M356 426.4a2.7 2.7 0 1 1-5.3 0 2.7 2.7 0 1 1 5.3 0z" transform="matrix(-1.05451 0 0 1.05451 757.8 398)" id="path194" fill="#ffd700" stroke="#000000" stroke-width="0.8" stroke-linecap="square"/><path d="M356 426.4a2.7 2.7 0 1 1-5.3 0 2.7 2.7 0 1 1 5.3 0z" transform="matrix(-1.05451 0 0 1.05451 757.8 404.6)" id="path195" fill="#ffd700" stroke="#000000" stroke-width="0.8" stroke-linecap="square"/><path d="M356 426.4a2.7 2.7 0 1 1-5.3 0 2.7 2.7 0 1 1 5.3 0z" transform="matrix(-1.05451 0 0 1.05451 757.8 411)" id="path196" fill="#ffd700" stroke="#000000" stroke-width="0.8" stroke-linecap="square"/><path d="M356 426.4a2.7 2.7 0 1 1-5.3 0 2.7 2.7 0 1 1 5.3 0z" transform="matrix(-1.05451 0 0 1.05451 757.8 417.6)" id="path197" fill="#ffd700" stroke="#000000" stroke-width="0.8" stroke-linecap="square"/><path d="M356 426.4a2.7 2.7 0 1 1-5.3 0 2.7 2.7 0 1 1 5.3 0z" transform="matrix(-1.05451 0 0 1.05451 757.8 424.2)" id="path198" fill="#ffd700" stroke="#000000" stroke-width="0.8" stroke-linecap="square"/><path d="M356 426.4a2.7 2.7 0 1 1-5.3 0 2.7 2.7 0 1 1 5.3 0z" transform="matrix(-1.05451 0 0 1.05451 757.8 430.7)" id="path199" fill="#ffd700" stroke="#000000" stroke-width="0.8" stroke-linecap="square"/><path d="M356 426.4a2.7 2.7 0 1 1-5.3 0 2.7 2.7 0 1 1 5.3 0z" transform="matrix(-1.05451 0 0 1.05451 757.8 437.2)" id="path200" fill="#ffd700" stroke="#000000" stroke-width="0.8" stroke-linecap="square"/><path d="M405.7 803.5v7h-7.1v7.3h7.1v20.8h7v-20.8h7v-7.4h-7v-7z" id="path201" fill="#ffd700" stroke="#000000" stroke-width="0.986861"/><path d="M403.4 834v60.3h11.5v-60.4l-5.7 4.8z" id="path202" stroke="#000000" stroke-width="0.843608" stroke-linecap="square"/><path d="M409.2 865.2a5 5 0 0 0-4.8 4.8v3.8c-2.7 0-4.9-.3-7.2 1.1-1 .8-2 2.1-2 3.7s1 2.9 2 3.7c1.5 1 4 1.2 6 1.1a16 16 0 0 1-12.7 8c-5 0-9.8-3.5-12.8-8 2.3 0 4 .3 6-1a4.5 4.5 0 0 0 0-7.4c-1.7-1.3-4.7-1.2-7.1-1.1V870c0-2.6-2.1-4.8-4.8-4.8a5 5 0 0 0-4.8 4.8v3.8c-2.7 0-4.9-.4-7.2 1.1a4.4 4.4 0 0 0 0 7.3c1.6 1.2 4.1 1.2 6.3 1.2-2.4 4.5-7.6 8.2-11.6 8.2-5 0-7.8-1.6-11-5.9 2.4-.8 4.1-1 5.8-3q1.3-1.8.6-4.2a5 5 0 0 0-3-2.8c-2.1-.7-4.8.3-7.1 1.1l-1.2-3.6a5 5 0 0 0-6-3q-1.3.4-2.2 1.4c1 8.7 4.6 17.6 11.7 26.5h.3c23-4 44-4.2 66.8-3.9 22.7-.3 43.7-.2 66.7 4h.3q10.5-13.5 11.7-26.6a5 5 0 0 0-2.1-1.4c-2.5-.9-5.2.6-6 3l-1.2 3.6c-2.3-.8-5-1.8-7.2-1.1a5 5 0 0 0-3 2.8q-.6 2.4.7 4.1c1.6 2 3.4 2.3 5.8 3.1-3.3 4.3-6.1 6-11 6-4.1 0-9.3-3.8-11.6-8.3 2.1 0 4.6 0 6.2-1.2 1-.7 2-2 2-3.6s-1-3-2-3.7c-2.3-1.5-4.5-1.1-7.2-1.1V870c0-2.7-2.2-4.8-4.8-4.8a5 5 0 0 0-4.8 4.8v3.8c-2.4 0-5.3-.2-7.2 1.1q-1.7 1.3-1.9 3.7.2 2.4 2 3.6c2 1.4 3.7 1.2 6 1.2-3 4.4-7.8 8-12.8 7.8a16 16 0 0 1-12.7-7.9c2 0 4.5 0 6-1.1 1-.8 2-2.1 2-3.7s-1-2.9-2-3.7c-2.3-1.4-4.4-1.1-7.1-1.1V870c0-2.6-2.2-4.8-4.8-4.8z" id="path203" font-family="Sans" fill="#ffd700" stroke="#000000" stroke-width="1.05451"/><path d="M409.2 867.8q-2 .2-2.2 2.2v6.4h-6.1c-1.7 0-3 1-3 2.2s1.3 2.2 3 2.2h6v1.2c-1.8 7-10.4 10.4-16.4 12.1-6-1.7-14.6-5.1-16.5-12.1v-1.2h6.1c1.7 0 3-1 3-2.1s-1.3-2.2-3-2.2H374V870q-.2-2-2.2-2.2-2 .2-2.1 2.2v6.4h-6.2c-1.6 0-3 1-3 2.2s1.4 2.1 3 2.1h6.2v1.3c-1.9 6.7-9.2 10.5-15.2 12.2-6.3.4-10.5-2.6-14.6-8.8l-.4-1.1 5.8-2c1.6-.5 2.5-1.8 2.1-3-.3-1-2-1.6-3.5-1.1l-5.8 2-2-6.2a2 2 0 0 0-2.7-1.3 2 2 0 0 0-1.4 2.7l2 6.1-1.2.4 1.7 4q2.8 6 7.6 12.2h.3c23-4 44-4.2 66.8-3.9 22.7-.3 43.7-.2 66.7 4h.3a62 62 0 0 0 9.3-16.3l-1.2-.4 2-6c.4-1.2-.2-2.5-1.3-2.8-1.2-.4-2.4.2-2.7 1.3l-2 6.1-6-1.9c-1.5-.5-3 0-3.4 1.2-.4 1 .6 2.4 2 3l6 1.9-.4 1c-4.2 6.3-8.4 9.3-14.7 9-6-1.8-13.3-5.6-15.1-12.3v-1.3h6.1c1.7 0 3-1 3-2.1s-1.3-2.2-3-2.2h-6.1V870c0-1.2-1-2.2-2.2-2.2q-2 .2-2.1 2.2v6.4h-6.2c-1.6 0-3 1-3 2.2s1.4 2.1 3 2.1h6.2v1.2c-2 7-10.5 10.4-16.6 12.1-6-1.7-14.6-5.1-16.5-12.1v-1.2h6.2c1.6 0 2.9-1 2.9-2.2s-1.3-2.2-3-2.2h-6V870q-.2-2-2.2-2.2" id="path204"/><path d="M342.4 898.2c-1.8 3-1.6 4.3.7 5.6 21.2-5.6 43.2-5 66-5 22.9 0 45-.6 66.1 5 2.3-1.3 2.5-2.6.7-5.6-23-4-44-3.8-66.7-3.9a415 415 0 0 0-66.8 4z" id="path205" fill="#ffd700" stroke="#000000" stroke-width="1.05451"/><path d="m409.8 894.3 2.7 4.4h1.8l-2.7-4.4zm6.8 0 2.7 4.4h1.8l-2.6-4.3zm-13.8 0 2.8 4.4h1.9l-2.8-4.3zm20.7 0 2.6 4.4h1.8l-2.6-4.3zm-25.8.1H396l2.8 4.3h1.9zm32.7 0 2.5 4.4h1.7l-2.5-4.3zm-39.6.1h-1.9l2.9 4.2h1.8zm46.4.1 2.4 4.4h1.8l-2.4-4.3zm-53.9 0-1.4.1 2.9 4.2h1.8l-2.8-4.2zm60.7.2 2.4 4.6h1.8l-2.4-4.5zm-67.2.1-1.9.1 3 4h1.8zm74 .3 1.7 3.3.8 1.5 1.8.1-2.3-4.5-.1-.2zm-81 .1-1.9.1 3 4h1.8zm-7 .5-1.8.1 3.1 4.1 1.8-.1-1.4-1.9zm94.9 0 2.4 5 1.8.2q-1.1-2.6-2.4-5zm-101.9.6-1.9.2 3.5 4.3 1.8-.3zm108.8.1 2.3 5.4 1.8.4-.5-1.2-1.8-4.3zm-116 .8-1.9.2 2.2 2.3 2 2.2 1.6-.3zm122.8.2q1 2.6 1.7 5l.2.8 1.3.3q.1-1.9-.7-4l-.6-1.8zm-129.6 1.8-.6 1.6q1.7 1.1 3 2.5h.2q.8 0 1.7-.3l-2.6-2.6z" id="path206"/><path d="M405.9 913H404l3.2 5.2h1.8zm5 0 3 5.2h1.8l-3-5.2zm6.7 0 3 5.1h1.7l-3-5zm-20.4 0 3.3 5.1h1.8l-3.3-5zm27 0 3 5h1.7l-2.8-5zm-32 0-1.8.1 3.2 5h1.8zm38.8 0 2.7 5h1.7l-2.6-4.9zm-45.7.2h-1.8l3.2 4.8h1.8q-1.4-2.4-3.2-4.8m52.3 0 2.7 4.8h1.7l-2.6-4.8zm-59.1.1h-1.9l3.1 4.7h1.9zm65.8 0 2.5 4.8h1.7l-2.4-4.7zm-72.8.2h-1.8l3.1 4.5h1.9zm79.4 0 2.5 4.8 1.8.2-2.5-4.9zm-86.3.3h-1.8q1.5 2.3 3.2 4.5h1.8q-1.5-2.3-3.2-4.5m93 0 2.5 5 1.8.2-2.5-5zm-99.8.4-1.9.1 3.3 4.5 1.8-.2zm106.5.2 2.5 5.2 1.8.3-2.5-5.4zm-113.4.2-1.8.2 3.5 4.7 1.7-.2zm120 .3 2.8 5.9 1 .1q.2 0 .5-.4l-2.4-5.4zm-126.8.4-1.1.1-.3.5 3.5 4.6 1.6-.3z" id="path207"/><path d="M408.5 899.7v2l4.4 3.6-4.4 3.6v2l6.7-5.6zm6.8 0v2l4.2 3.7-4.3 3.5v2l6.7-5.5zm-13.5 0v2l4.4 3.6-4.3 3.7v2l6.6-5.7zm20.2.2v1.9l4.2 3.8-4.4 3.5v1.9l6.7-5.4q-3.2-3-6.5-5.7m-27 0v2l4.6 3.5-4.3 3.7v2l6.5-5.7zm33.7.1v2l4.2 3.8-4.5 3.5v1.9l6.8-5.3zm-40.4.1.1 2 4.5 3.5-4.2 3.7v2l6.5-5.8zm47.1.2v2l4.1 3.8-4.5 3.4-.1 2 7-5.3zm-53.8.2.1 1.9 4.6 3.4-4.2 3.9.1 1.9 6.3-5.9zm60.5.2v2l4 3.8-4.5 3.4-.1 2 7-5.2zm-67.2.2v1.9l4.7 3.3-4.1 4 .1 1.9 6.3-6zm74 .2-.2 2 4.1 3.9-4.6 3.3-.1 2 7-5.1zm-80.7.3.1 1.9 4.6 3.3-4 4 .2 1.9 6.2-6q-3.5-2.7-7.1-5.1m87.4.3-.2 1.9 4 4-4.6 3.2-.2 2 7.2-5zm-94.2.3.2 1.9 4.7 3.2-4 4 .2 2 6.1-6.2zm100.9.3-.2 1.9 4 4-4.7 3.2-.2 2 7.2-5zm-107.5.3.2 2 4.7 3.1-4 4 .2 2 6-6.2zm114.2.3-.2 2 4 4q-2.5 1.5-4.8 3.2l-.2 2 7.2-4.9zm-121 .5.3 2 4.7 3-3.8 4.1.2 2 6-6.3zm-5 2v1.7l3.5 2.1-3.5 3.7v2.3l5.7-6.3z" id="path208" fill="#ffd700"/><path d="M449.7 918.2c14.1 17.3 29 21.6 44.3 17.6-8.8-4.4-17-9.1-22.2-15.4q-10.9-2-22.1-2.2z" id="path209" fill="#6495ed" stroke="#000000" stroke-width="0.527255"/><path d="M511 893.3q-1.4 0-2.6.2c-9.6 2.1-14.2 25-17 28s-5.4 6-10.3 7q6 3.9 13 7.3c8-3.4 12.8-16.1 13.7-19.7 5-19.5 12.7-18.8 19.5-19.3.2 0-9.8-3.5-16.3-3.5z" id="path210" fill="#0000ff" stroke="#000000" stroke-width="0.527255"/><path d="M527.2 896.8c-4.6.4-9.7.2-14 6.3 1.3-1.2 7.2 6.7 7.6 14.4.4 7.1 6.7 6.4 7.5 20 4.7 2 9.8 0 14.8-.8 2.1.3 3.8-9.7.6-13.6-3.2-4.2-7-7.2-9.7-11.7-3-4.5-6.7-14.5-6.7-14.6q0 0 0 0z" id="path211" fill="#6495ed" stroke="#000000" stroke-width="0.527255" stroke-linecap="square"/><path d="M543 930c-5.9-.3-9.3 2.5-17.1 2-2 2 .7 4 2.4 5.5 5.4 2 9.8 0 14.4-.8-2.6-3.4-2.4-6.8.2-6.6z" id="path212" fill="#0000ff" stroke="#000000" stroke-width="0.527255" stroke-linecap="square"/><path d="M368.5 918.2c-14.1 17.4-29 21.6-44.3 17.6 8.8-4.4 17-9.1 22.2-15.4q10.8-1.8 22-2.2z" id="path213" fill="#6495ed" stroke="#000000" stroke-width="0.527255"/><path d="M307.2 893.3q1.4 0 2.6.3c9.6 2 14.2 24.9 17 27.9s5.4 6 10.2 7q-6 4-12.8 7.3c-8-3.3-12.9-16-13.8-19.7-5-19.5-12.7-18.7-19.5-19.3-.2 0 9.7-3.5 16.3-3.5z" id="path214" fill="#0000ff" stroke="#000000" stroke-width="0.527255"/><path d="M291 896.8c4.6.4 9.7.2 14 6.4-1.3-1.2-7.3 6.6-7.7 14.3-.3 7.1-6.7 6.4-7.4 20-4.7 2-9.8 0-14.8-.8-2.1.3-3.9-9.6-.7-13.6s7-7.2 9.8-11.7 6.7-14.5 6.7-14.6q0 0 0 0z" id="path215" fill="#6495ed" stroke="#000000" stroke-width="0.527255" stroke-linecap="square"/><path d="M275.3 930c5.8-.3 9.2 2.5 17 2.1 2 1.9-.8 3.9-2.5 5.4-5.3 2-9.7 0-14.3-.8 2.5-3.4 2.4-6.8-.2-6.6z" id="path216" fill="#0000ff" stroke="#000000" stroke-width="0.527255" stroke-linecap="square"/><path d="M640 1001.2a89 89 0 0 1 2.7 18.6l5.6 2.8h.2l13.8 6.8q-.6-3.7.3-7c-5.5-3.5-11.2-4.1-17-4.8z" transform="translate(29.7 226.2)" id="path217" fill="#7f6b00"/><path d="m640 1001.2 1 19.9 25.3 13.2-1-3.4c-7.3-4-14.3-9-22.6-11a89 89 0 0 0-2.6-18.7" transform="translate(29.7 226.2)" id="path218"/><path d="m640 1001.2 1 19.9 22.4 11.7-.7-2-.5-1.7c-6.3-3.6-12.4-7.4-19.5-9.3a89 89 0 0 0-2.6-18.6" transform="translate(29.7 226.2)" id="path219"/><path d="M34.4 783.4v801.8a72 72 0 0 0 72 72h230.7a72 72 0 0 1 72 72 72 72 0 0 1 72-72h230.6a72 72 0 0 0 72-72V783.4z" id="path220" fill="none" stroke="#000000" stroke-width="5.27255"/></g></g><!-- app4joy --></svg>