<svg width="800" height="533.33" id="svg43" viewBox="0 0 800 533.33" xmlns="http://www.w3.org/2000/svg"><defs id="defs14"><clipPath id="n"><path d="M319.2 557.6c6.4-45.2 14-90.6-24.2-125.3-46.8 9.5-280.8 4.4-269.7 120.2z" fill="none" stroke="#000" stroke-linejoin="round" stroke-width="4" id="path1"/></clipPath><clipPath id="m"><path d="M319.2 557.6c6.4-45.2 14-90.6-24.2-125.3-46.8 9.5-280.8 4.4-269.7 120.2z" fill="none" stroke="#000" stroke-linejoin="round" stroke-width="4" id="path2"/></clipPath><clipPath id="l"><path d="M287.9 460.6c6.4-45.2-7.3-85.5-52.5-110.1C188.6 360 92 387.2 106 480.8z" fill="none" stroke="#000" stroke-linejoin="round" stroke-width="4" id="path3"/></clipPath><clipPath id="k"><path d="M297.3 187.6c6.4-45.1-7.3-85.5-52.5-110C198 87 101.4 114.2 115.5 207.7z" fill="none" stroke="#000" stroke-linejoin="round" stroke-width="4" id="path4"/></clipPath><clipPath id="j"><path d="M187.9 393C150 331-12 330.3-31.3 388.8c-1.2 97.8 1.5 193.6 111.1 233.3z" fill="none" stroke="#000" stroke-linejoin="round" stroke-width="4" id="path5"/></clipPath><clipPath id="i"><path d="M187.9 393C150 331-12 330.3-31.3 388.8c-1.2 97.8 1.5 193.6 111.1 233.3z" fill="none" stroke="#000" stroke-linejoin="round" stroke-width="4" id="path6"/></clipPath><clipPath id="h"><path d="M28.3 362.6c-8.6-64.8 102.2-75 127.3-76.8 51.7-4.5 89.6 7.1 79.8 74.8-62.6 80.1-137.3 11-207.1 2z" fill="none" stroke="#000" stroke-linejoin="round" stroke-width="4" id="path7"/></clipPath><clipPath id="g"><path d="M28.3 362.6c-8.6-64.8 102.2-75 127.3-76.8 51.7-4.5 89.6 7.1 79.8 74.8-62.6 80.1-137.3 11-207.1 2z" fill="none" stroke="#000" stroke-linejoin="round" stroke-width="4" id="path8"/></clipPath><clipPath id="f"><path d="M95 310c-36-44.7-74.6-37-113.2-32.2-9.1 65.3-3.5 116.4 51.5 120.2z" fill="none" stroke="#000" stroke-linejoin="round" stroke-width="4" id="path9"/></clipPath><clipPath id="e"><path d="M95 310c-36-44.7-74.6-37-113.2-32.2-9.1 65.3-3.5 116.4 51.5 120.2z" fill="none" stroke="#000" stroke-linejoin="round" stroke-width="4" id="path10"/></clipPath><clipPath id="d"><path d="M-17.2 148.5C18.6 99 86.8 137.7 95 168.7c16 31.3 11 98.2 47.4 137.4l-178.8 40.4z" fill="none" stroke="#000" stroke-linejoin="round" stroke-width="4" id="path11"/></clipPath><clipPath id="c"><path d="M-17.2 148.5C18.6 99 86.8 137.7 95 168.7c16 31.3 11 98.2 47.4 137.4l-178.8 40.4z" fill="none" stroke="#000" stroke-linejoin="round" stroke-width="4" id="path12"/></clipPath><clipPath id="b"><path d="M193.8.6c.2-17-11.7-48.8-23.5-49.2C115.5-45.6 86-132 82-150.4c-.3-13-3.6-23.7-12.6-30.2 1.7-17.8 21.7-31 32.2-29.8 5 10 15.2 14.9 27.8 17.2 17.5 6.7 98.5 49 87.2 102.8-1.5 11.7 28.1 28.3 45 30.8-34.3 10.3-56.4 30.8-67.8 60.2z" fill="none" stroke="#000" stroke-linejoin="round" stroke-width="4" id="path13"/></clipPath><clipPath id="a"><path d="M184.4 273.6c.1-17-11.7-48.8-23.5-49.2-54.9 3-84.4-83.6-88.3-101.9-.4-12.9-3.6-23.6-12.7-30.1 1.8-17.8 21.8-31 32.2-29.8 5.1 10 15.2 14.8 27.9 17.2 17.5 6.7 98.5 49 87.1 102.8-1.4 11.7 28.2 28.3 45 30.7-34.3 10.4-56.3 30.9-67.7 60.3z" fill="none" stroke="#000" stroke-linejoin="round" stroke-width="4" id="path14"/></clipPath></defs><g id="g44"><path fill="#da251d" id="rect14" d="M-34.3-38.1h880v620h-880z" display="inline"/></g><g id="g43"><path d="M264.3 220.8c10.4 13.9-32.8 70.7-73.6 62.5-16.5-47.5 18-86 73.6-62.5z" fill="#ffffff" stroke="#000000" stroke-linejoin="round" stroke-width="4" id="path15"/><path clip-path="url(#c)" fill="#ffd400" id="rect15" d="M-20.7 108.3H140v203.6H-20.7z"/><path clip-path="url(#a)" fill="#ffffff" id="rect16" d="M35.7 53.3h225v237.9h-225z"/><path d="M110.7 208c-12.5-15-57.6-99-116.4-60.7-9.2-46.8 38-30.3 64-37.5 29 28.5 55.2 60.3 52.4 98.2" clip-path="url(#d)" fill="#f19e29" id="path16"/><path d="M-17.2 148.5C18.6 99 86.8 137.7 95 168.7c16 31.3 11 98.1 47.4 137.3l-178.8 40.4z" fill="none" stroke="#000000" stroke-linejoin="round" stroke-width="4" id="path17"/><g id="g19" transform="translate(-9.4 273)"><path d="M192.3 6c12.6-22.5-.5-57.7-10-67.8-9.2-10-38-6.7-50-21.4-24.6-25.4-37-67.6-47.5-88.2a24 24 0 0 0-13.2-16.8l-7.9 40.7c19.4 76 78.8 109.7 128.6 153.6" clip-path="url(#b)" fill="#cccccc" id="path18"/><path transform="translate(9.4 -273)" clip-path="url(#e)" fill="#ffd400" id="rect18" d="M-22.2 260.6h105v114.1h-105z"/><path transform="translate(9.4 -273)" d="M81.8 318.2c-18.3-30-75.4-34-87.9-27.8-12-25.9 20.9-27.5 41.5-35.9 76 12.4 48.7 39.9 46.4 63.7" clip-path="url(#f)" fill="#f19e29" id="path19"/></g><path d="M95 310c-36-44.7-74.7-37-113.2-32.2-9.1 65.3-3.5 116.4 51.5 120.2z" fill="none" stroke="#000000" stroke-linejoin="round" stroke-width="4" id="path20"/><path clip-path="url(#g)" fill="#ffd400" id="rect20" d="M15.7 255.5h230.7v136.4H15.7z"/><path d="M237.5 303.3c-43.9-10.7-208.8-14.2-196.8 75C-5.8 354.1 24 322.2 30 292.6c72.6-8 154-39 207.5 10.7" clip-path="url(#h)" fill="#f19e29" id="path21"/><path d="M28.3 362.6c-8.6-64.8 102.2-75 127.3-76.8 51.7-4.5 89.6 7.1 79.8 74.8-62.6 80.1-137.3 11-207.1 2z" fill="none" stroke="#000000" stroke-linejoin="round" stroke-width="4" id="path22"/><path clip-path="url(#i)" fill="#ffd400" id="rect22" d="M-37.4 313.1h206.1v239.4H-37.4z"/><path d="M170.7 388.9c-38.7-42.3-154.8-42.2-197 10-3.5-80 67.3-64.6 122.3-69.6 60.6 6 86.8 25.3 74.7 59.6" clip-path="url(#j)" fill="#f19e29" id="path23"/><path d="M187.9 393C150 331-12 330.3-31.3 388.8c-1.2 97.8 1.5 193.6 111.1 233.3z" fill="none" stroke="#000000" stroke-linejoin="round" stroke-width="4" id="path24"/><path clip-path="url(#k)" fill="#ffd400" id="rect24" transform="translate(-9.4 273)" d="M101.4 60.4h212.1v156.5H101.4z"/><path d="M248 352.5c-78.3 23.2-143.6 53-128.8 112.1l-55.6-1C96.1 386 172.5 317.8 248 352.6" clip-path="url(#l)" fill="#f19e29" id="path25"/><path d="M287.9 460.6c6.4-45.2-7.3-85.5-52.5-110.1C188.6 360 92 387.2 106 480.8z" fill="none" stroke="#000000" stroke-linejoin="round" stroke-width="4" id="path26"/><path clip-path="url(#m)" fill="#ffd400" id="rect26" d="M15.7 409h325v143.6h-325z"/><g stroke="#000000" stroke-linejoin="round" stroke-width="4" id="g30" transform="translate(-9.4 273)"><path transform="translate(9.4 -273)" d="M158.6 222.6c11-18.5 23.7-35.3 47.8-40.7" fill="none" id="path27"/><path transform="translate(9.4 -273)" d="M59.3 92.3c-8.8 7.3-30.4-4.3-22.9-19.7a67 67 0 0 1 44-34.3c12.6-3.3 27 17.3 12.1 24.3" fill="#ffffff" id="path28"/><path transform="translate(9.4 -273)" d="M40.4 89c10.4-22.6 29.5-36.6 54.2-45" fill="none" id="path29"/><path transform="translate(9.4 -273)" d="M238.4 232.3c48.4 34.4 142.3 78.4 139.4 162.6 24.3 33.4 44.7 66.7 55.6 100 6 20.3 27.6 40.5 46.4 60.7l-152.5-9.1c41.7-75-49.6-197.7-66.7-213.2-21.7-20.2-40.5-46.2-59.6-71.7z" fill="#ffffff" id="path30"/></g><path d="M50 559.6C17.6 446.6 277.5 442.5 314.7 448L302 417.7c-107.4 27.6-272-7.1-284.8 123.7z" clip-path="url(#n)" fill="#f19e29" id="path31"/><g fill="none" stroke="#000000" stroke-linejoin="round" stroke-width="4" id="g39" transform="translate(-9.4 273)"><g id="g38"><path d="M328.6 284.6c6.5-45.2 14-90.6-24.2-125.3-46.8 9.5-280.8 4.5-269.7 120.3z" id="path32"/><path transform="translate(9.4 -273)" d="M401.4 534c-26.7-14.3-43.7-37-57.1-62.8" id="path33"/><path transform="translate(9.4 -273)" d="M337.1 454.8c-3.8-59.5-46.4-95.6-76.4-139.3" id="path34"/><path transform="translate(9.4 -273)" d="M218.6 256.9c19.5 27.2 41.7 51.3 70.7 67.1 26.3 12.6 56.5 38 80 65" id="path35"/><path transform="translate(9.4 -273)" d="M289.3 334c48 35 75.8 70 91.4 105 14.6 35.3 36.2 67 62.2 96.5" id="path36"/><path transform="translate(9.4 -273)" d="M257.1 280.5c40.2 27.8 84.7 52.8 108.6 91.4" id="path37"/><path transform="translate(9.4 -273)" d="M357.9 346.9c-25.3-43.7-84.1-66-127.9-97.9" id="path38"/></g><path d="M193.8.6c.2-17-11.7-48.8-23.5-49.2C115.5-45.6 86-132 82-150.4c-.3-13-3.6-23.7-12.6-30.2 1.7-17.8 21.7-31 32.2-29.8 5 10 15.2 14.9 27.8 17.2 17.5 6.7 98.5 49 87.2 102.8-1.5 11.7 28.1 28.3 45 30.8-34.3 10.3-56.4 30.8-67.8 60.2z" id="path39"/></g><g stroke-linejoin="round" id="g42" transform="translate(-9.4 273)"><path transform="translate(9.4 -273)" d="M251 213.7c7.7-1.7 17.2 6.2 10.4 8.6-29 12.4-54 27-67.8 56.4-3.6 7.1-10.8.7-9.7-5 14.9-34.3 32.7-47.3 67.2-60z" fill="#ffffff" stroke="#000000" stroke-width="4" id="path40"/><path transform="translate(9.4 -273)" d="m192 280.6 5-8" fill="none" stroke="#ffffff" stroke-width="4.9" id="path41"/><path d="m264.8-48 7.2-3.4" fill="none" stroke="#ffffff" stroke-width="4.9" id="path42"/></g></g><!-- app4joy --></svg>