<svg width="637.8" height="425.2" fill-rule="evenodd" viewBox="0 0 637.8 425.2" id="svg7" xmlns="http://www.w3.org/2000/svg"><g id="g8"><path d="M0 .5h637.8v425.2H0z" fill="#f8c301" id="path1"/></g><g id="g7"><path d="m286 319 1.8-2.1 1 7.2 1.6-2.3 1.6 7.1 1.5-2.5c.5 2 2.2 6.1.6 6.8-5.2 1.7-12 4.4-13.4 6.6-2.7.6-6.1 2.1-7 4.4q2.7-1.3 5.5-1.5l.2.5a8 8 0 0 0-5.5 4.2c1.5-.6 4.2-1.7 6.2-1.8l.3.5a9 9 0 0 0-5 4.3c2-.6 4.2-1.8 6.5-2.2l.5.4a9 9 0 0 0-4.5 3.8q3.2-1 6.5-1.7h2.5l24.9-3c1.5-.1 4.4.1 4.8-2.5q.4-2.3.4-4.5v-16.1l2 2.7V306l1.5-4.4c2 8 4.5 13.3 8.2 21.4v.1l1.3-3 3.6 7.2 1-3.2 4.4 6.7.4-2.9c1.3 2.1 4 7.2 2.6 7.7-4.6 1.8-10.7 3.4-14 7.3-2.5.6-5.5 2.2-6.2 4.4 1.9-.8 3.2-1.3 5.5-1.6l.2.5c-2.4.8-4.7 2.4-5.4 4.3 1.5-.7 4-1.7 6.3-1.9l.2.5c-2.4.9-4.5 2.5-5.3 4.2 2-.6 4.5-1.6 6.9-2q.1.3.4.5c-2.1 1-3.6 1.8-4.5 3.5 2.4-.7 5-1.3 6.9-1.7.9.2 2.4.2 3 .1l25.8-3.4c1.5-.2 3.4-.7 3.7-2.9v-4.9l-2-15.7 2.5 2.3-4-23v-26l3.4 2.8.4-36.2v-13c0-3.3-.2-6.7-1.8-13.6a74 74 0 0 0-4.4-15.2L359 186l2.6 1-.8-8.3 2.4 1-1.4-8.2 2.5.8-1.8-8.1 2.7.7-2.4-7.8 3 .8q-3.1-12.9-8.6-23.3l24.4-17.6q.8.6 1.7 0l.2-.2q.6-.4.6-1l1.3-1.1a26 26 0 0 1 2.3 6.2 18 18 0 0 1 0 5.2 16 16 0 0 1-2.5 6.3c-1.2 1.8-1.9 2.5-3.3 4.2q1.3 0 2.6-.3.7-.1 1.3-.4a19 19 0 0 0 8.7-8.4 23 23 0 0 0 2-7.5 25 25 0 0 0-1-8.4l-1.4-3.6 1.5-1.1q.8.5 1.7 0l.3-.2q.8-.7.4-1.8l.4-.2a4.4 4.4 0 0 0 5.7-4.9l1.4-1.2a23 23 0 0 1 6.1.9l15.6-18.8-22.7 8.9v1.2a24 24 0 0 1-1.1 4.9l-1.6.9a4.4 4.4 0 0 0-6.4 3.9l-.4.2q-.9-.8-1.9-.2l-.2.2q-1 .7-.5 1.8l-.7.4-2-5.5a22 22 0 0 1-.5-7.3l.1-1 1.3-3.8a26 26 0 0 1 2.5-4l2.9-2.9 1.3-1q1.8-1.2 3.8-2l-2.8-1.4-1-.5-2.1-.9-2.1-.6-2.1-.6-1-.2-1-.1-1.1-.2h-5.1l-1 .2-1.1.1-1 .2-1 .3-2 .6-2.1.8-2 .9-2 1-2.1 1.3-2 1.4-1.9 1.4-1.7 1.4-1.6 1.4-1.4 1.6-1.4 1.6-1.2 1.6-1.2 1.8-.5.9-.4.9-.5 1-.4.9-.3 1-.3 1-.3 1-.3 1-.2 1.1-.1 1.1-.2 1.1v5.9l.2 1.3.5 3.1 2.9-2.7a19 19 0 0 1 6-3.3 20 20 0 0 1 8-.6l.9.1a22 22 0 0 1 4.3 1.3 22 22 0 0 1 4.5 2.8l2 2-1.6 1q-.7 0-1.2.2l-.3.2q-.8.6-.5 1.7l-23.8 17.2-4.4-6.8h2.5l-4-5.5h2.5l-4.3-4.3 2.4-.3-4.5-4.3 2.3-.5a74 74 0 0 0-14.2-14.6s1.8-1 1.9-2.4-1.8-3.7-3.7-5.1c-2-1.5-4.2-1.7-5.2-1.2a5 5 0 0 0-1.6 1.9q-1.6-1.2-3.5-2l-.2-.1-.8-.3-2.6-.5q-1.6-.2-3.4-.2c-5.3-.1-11.4.8-16.8 2.1-2 .5-5.5 3.7-5.5 3.7l-13.9 1c-3-.1-2 3.1-1.6 5.4l.5 3.4c5.6 1.8 8.7 2.9 10.4 4.6a4 4 0 0 1 0 2.2c-1.4-.7-5.2-2.4-8.6-2.3-.4 0 .1 1.8.6 3.5.3 1 2 2.3 4.1 4 5.3 4.3 7.7 12 8.6 15.8l1.5-1.5.4 5.6 1.3-1.7 1 5.4 1.2-1.7 2.2 5v7h-5.5c-4.6 0-7 0-10.3-3.3L265.5 124c-1.2-1.3-3.3-4-6.8-5.7l-12.2-6a15 15 0 0 0-9-2.1c-3.2-1-6.2-1.7-7.8-.1q3 .7 5.4 1.5l-.6.7c-3-.1-6.4-.5-7.5 1.3q3.2 0 6.4.7l-.3 1c-2.7 0-5.4.2-6.2 1.8h6v1.1c-2.5.4-5 .8-5.7 2.5q3-.6 5.8-.6l.3 1.1c-2.1.6-3.9 1.3-4.3 2.7a25 25 0 0 1 5.3-1c7 5 12.2 15 18.5 17.5l1.8 2.7-4 .5 6.3 6-3.6.7 6.5 5.8-3.6.7 6.8 5.5-3.6 1 7.3 5.4-3.6 1.1 13.6 9.3-19.4 4.8c-7.6 1.9-10.3 4.3-12.7 7.6l-11 15.1c-3 4-4 6.4-4.4 9.9v1.2l-1 3.1-17 12.2-.3.4-.2.5v.9l.2.4.1.4.5.7.5.7.3.2.4.3.4.2h1l.4-.2 17-12.2.5.6.2-1.1 2.2-1.6q-.1 2.3 1.1 3.4.1-2.5.7-4.7l1.2-.8h.2c0 2.5 0 5 1.4 5.8q0-3 .5-6.1.6 0 1-.3c.2 2.6.4 5.2 2 6-.3-2.5 0-4.7 0-7.3 5-4 10.5-6.8 14.7-11.6l3-.8-1.4 3.3 8.3-2.3-1.2 3.4 8.1-2.7-1 3.5 7.8-3-.2.9-.6 2.5 11.5-2.2h.1a469 469 0 0 0-2.2 33.6l2.2-1-1.5 6.6 2-1.1-.8 6.6 1.9-1.2c.1 1 .2 5.5.6 8.9l-7.7 16.4c-3 6.4-4.3 16.8-3.5 24.9 1.5 7.8 1.8 9 3.3 15.2" fill="#2c2c2b" id="path2"/><path d="M389.3 132.6a16 16 0 0 1-5.2 2.9c2.9-3.5 4.7-6.8 4.8-11.4a18 18 0 0 0-2.6-10l7-5.6.3.5q3 6.5 1.6 13.4-1.1 6-6 10.2m-3.5-19.4-2.7 2v.7l-.4.3q-.3.1-.6-.1l-2.7-3.7q-.2-.3 0-.7 0-.3.4-.4l.6.2 3-1.9-1.8-2A19 19 0 0 0 368 102a20 20 0 0 0-14 5.8c-2.1-13.5 3.4-22.4 13-29.3 10.8-7.7 21-8.9 32-3.2l-2.3 1.4a19.5 19.5 0 0 0-6.6 24.7l1.3 2.9 2.4-1.6-.3-.4q-.3-.3-.1-.7t.4-.4q.4 0 .6.2l.5.6 1.5-1a3.4 3.4 0 0 1 5.4-3.4l2.4-1.3.3-.9a23 23 0 0 0 1-5.2L424 83l-12.8 15.4a23 23 0 0 0-4.7-.7l10.8-9.8-7 5-5.2 4.8-2 1.8a3.4 3.4 0 0 1-4.9 4.1l-1.5 1.2.3.3q.2.4 0 .8l-.4.3-.6-.2-.3-.4-2.6 2z" fill="#fff" id="path3"/><path d="M366.2 83q3.4-2.9 7.2-4.9c4-2.1 10.7-4.5 19.6-1.6l-1.8 1.9a24 24 0 0 0-21 4.5 24 24 0 0 0-10.7 18.3l-2.5 1.2c0-10.1 6.4-17 9.2-19.4m38.3 12.4-.3.9 6.2-3.5 7-5-12.7 7.1zm-4.7 1.6a3.4 3.4 0 1 1-1.5 6.5l-.7.6h-.1l-.7.6-2-2.7.8-.5.8-.6v-.5c0-1.8 1.6-3.4 3.4-3.4m-1.7 6.4h-.1m1.7-5.7a2.4 2.4 0 0 1 0 4.7 2.4 2.4 0 0 1 0-4.7m-6.7 5.5 1.5 2.3-11.2 8.3-2-2.7v-.1l-.9.5 2.6 3.6.1.2.5-.4 11.4-8.8.8-.6-2-2.8zm-6.7 10.9 2-1.6 2 4.5a20 20 0 0 1 .8 9.7 18 18 0 0 0 .6-16l-.3-.6zm4.7-10.7-2 1.3-1.6-3.3a23 23 0 0 1-1-14.2q.4-1.8 1.2-3.4 1.2-2.5 2.8-4.6c-7-1.7-13.6.3-19.5 4.6a23 23 0 0 0-10.4 17q6-2 12.3-.7l1 .3q2.5.7 4.9 2a22 22 0 0 1 6 5.1l-2 1.4.7.7 6-4 2-1.3z" fill="#b1b4b6" id="path4"/><path d="m214 236.6 17.2-12.4q-.1-1.8.4-4.2l-.5-.2-1.5 1-1 2.6q-.5-.6-.5-1.4l-16.2 11.6c-1 .7 1.2 3.7 2.2 3m18.6-13.3 1.9-1.4v-1l-1-.3zm72-52 76.4-55-2.2-3-84.8 61.1z" fill="#e21c2a" id="path5"/><path d="M379.7 114.5 298 173.2l-2.8.8 83.8-60.3zM231.3 221.3l-2.7 2q.2-1 .6-1.7l2.3-1.6zm-2.9 2L213 234.6l-.6-.8 15.8-11.4z" fill="#f39b7e" id="path6"/><path d="m283.5 340.3 2.5-.6-.8-.6zm17.9-246.8q-2.6-.8-4.6-.9c0-2 2.1-1.5 3-.9q.8.6 1.5 1.8m-51.5 97.1 1.8-.8-.7-.3zm-7.3 8 1.8-1.7h-.9zm1.9 2.3 2-2h-1zm57.7 68.4V267l-.7.6zm1.5-142.5.6-2.5-.9.5zm7.7-5.3.3-2.6-.8.6zm1.8-7.7-.6-2.5-.5.8zm5.9 3.8-.6-2.5-.5.8zm5-15.6-1.2-2.3-.3 1zm-1.6 9.1-.8-2.5-.5.9zm-14 16.9 1.2-3-1.1.5zm8.2-4 .3-3.1-.9.7zm-9.9 23.5 1.6-3-1.2.4zm5.5-5.2 1.2-2.3-1 .3zm-5 1 1.1-2.3-.9.3zm-4.8.8 1.2-2.3-1 .3zm-56.6 49.8 1.8-1.6h-.9zm76.4 21.8 2-5.4-2 .8zm13.5-8.3 1.3-3.5-1.3.5zm-3.5 3.7 1.5-4-1.5.6zm-57.8-13 2.4-.5-.8-.4zm30-18.2 2.5-.7-.9-.5zm-24.3 21.7 2.5-.8-.8-.4zm12.4.8 2.5-.8-.9-.5zM272 188.8l2.4-.5-.7-.4zm28.9-3 2.4-.7-.8-.5zm5 5 2.4-.8-.8-.5zm-9 1.3 2.6-.8-.9-.5zm-4.2-5 2.4-.7-.8-.5zm-7.7-.3 2.4-.8-.8-.5zm-18 6.8 2.5-.4-.8-.4zm14.4.6 2.5-.8-.9-.4zm8.6 2 2.5-.8-.9-.5zm-13.5-12.9 2.5-.8-.9-.4zm25.7 14 2.5-.8-.8-.4zm-5.8-17.8 2.5-.8-.9-.4zm-7.4 1.9 2.4-.8-.8-.5zm20.1 18.1 2.5-.8-.8-.4zm23-57.5 2.2-1.4-1-.3zm-15.6 5.8 2.7-3.7-1.7.3zm-13 2.8 2-3.8-1.5.5zm-2.4-.8 1.8-3.9-1.5.5zm3.2-4.1 1.6-3-1.2.4zm9.4 1 2.3-3.7-1.6.3zm18.5-9.1 2.2-1.5-1-.2zm5.2-4 2.3-1-.9-.4zM324 139l1.7-2h-1zm12.2-1 2.3-1-.9-.4zm-7.5-.7 2.2-1.4-1-.2zm-19 9.9 2.4-3.6-1.6.3zm-1.7 5.2 2.3-3.5-1.6.3zm13.4-9.6 1.8-1.8h-1zm-1.5 6.1 1.8-2.8-1.2.2zm7.7-7.6 1.8-1.9h-1zm-.2 3.8 2.1-1.5-1-.2zm-10.3-2.6 1.8-2.8-1.2.3zm-14.7 22.6 2-3.7-1.5.4zm.2-4.9 2.7-5-2 .5zm8.4-9 2.3-3.6-1.6.4zm13.7-34-.8-2.5-.4.8zm13-1.7-1-3.4-.7 1.1zm-2 15.4-.2-4.9-1.3 1.4zm-16.9-4.2.8-3-1 .6zm12.5-28-1.1-2.3-.4.9zm-4.2 14.6-.7-2.5-.5.8zm4.3 19-.2-5-1.3 1.3zm-7.8 2.4.7-4.9-1.5 1zm4.8-26.7-1-2.4-.4.9zm-34 106.2 1-3-1 .5zm59 91.5v-2.4l-.7.6zm-7.2 8.3v-2.5l-.7.7zm-4.6-8.4V302l-1 1zm-12.7.9v-2.7l-.7.7zm14.5 5v-3.3l-.8.8zM343 295l.5-3.1-1 .6zm-3.7-29.4 1.5-3.8-1.4.6zm8.7 0 1-2.5-1 .4zm-1.7-9.4 1-2.4-1 .4zM345 121.8l-.5-2.6-.6.8zm-9.6-11.8-.9-2.4-.4.9zm3.5 17-.5-4.1-1 1.2zm-12.3-5.2-.4-3-.7.9zm2.6-2.5-.4-3.6-.9 1zm3.7-13.2-1-2.4-.4.8zm-13.4 26.2 1-4.1-1.3.7zm-3.6-.2 1.1-3.5-1.2.6zm-1.9-3.6.8-3-1 .6zm8.7-5.6-.1-3-.8.7zm-23 9.2 1.2-2.4-1 .3zm29.5-28.9-.9-2.4-.4.9zm6.6 1-1.1-2.4-.4 1zm3.7 6.7-.9-2.5-.4.9zm2.7 5.4-.7-2.5-.5.8zm-10.5-3-.9-3.5-.7 1.2zm8.3 7.5-.8-4.2-1 1.3zm2.4 5-.3-4.2-1 1.2zm-8-7-.9-3.5-.7 1.1zm-2.7 6.8-.5-4.9-1.2 1.4zm-4 9.5.3-4.8-1.4 1.2zm-.2-6.8-.2-5-1.3 1.4zm-3.9.8.3-4.9-1.4 1.2zm-13.7 3.2 1.3-3.4-1.2.5zm0 5.7 1.6-4-1.5.6zm-3.3-.9 1.2-3-1.2.5zm-1.6-3.8 1.2-3-1.1.5zm-3.1 3.8 1.2-3-1.2.5zm13.7.6 1.1-4.2-1.4.8zm4-.3 1.2-4.6-1.6.9zm16.4-12.8-.7-4.2-1 1.3zm-22.7 10 .9-3.5-1.2.7zm5.3 81.4 1.5-4-1.5.7zm-8.5-.6 1.5-4-1.5.7zm-8.3-.5 1.5-4-1.5.6zm-4.4.4 1.5-4-1.5.6zm-42.1-27.6 3.2-.6-1-.6zm-3.2 4.1 3.6-1.2-1.2-.6zm.8 4.7 3.6-1.2-1.2-.7zm53.2 18.2 1.5-4-1.5.7zm8.7-.3 1.4-4-1.4.7zm13.4 50 1.5-4-1.5.7zm15.6-10.4 1-2.5-1 .4zm-30.2-14.5.9-4.1-1.4.8zm7 .3.8-4.1-1.3.8zm-21.2 84.3.5-2.4-.8.5zm-4.3-103.5 1.5-4-1.4.6zm1.4 18.2 1-3-1 .5zm5-3.6 2-5.4-2 .8zm20-10 1.6-4-1.5.6zm-2 21.2.4-3.3-1 .8zm-4.3 3.8.4-3.3-1 .8zm5.3 2.1.4-3.2-1 .7zm-73.2-55.5 3-2-1.4-.2zm-1.1 6.7 1.4-1.4h-.7zm7.5-3.7 1.9-.9-.7-.3zm-4.4 0 2.4-1.5-1-.3zm-8.2 4.5 2-1.8-1-.1zm-2-2.2 2-1.8h-1zm24.5-13.6 2.5-.8-.8-.5zm50.9-32.4 1.2-2.2-1 .2zm8.4-6.2 1.7-2h-1zm-4.3 4 1.2-2.3-1 .2zm4.7-7.9 2.3-2.4h-1.3zm-24.5 21.3 1.8-3.8-1.5.5zm.5-5.4 1.9-3.8-1.5.5zm7-2.8 2.4-5.2-2 .7zm-1.8-5.3 2.7-5-2 .6zm3.3 8.1 1.8-3.9-1.5.6zm3.9-3.3 1.8-3.9-1.5.5zm4.8-6 1.8-2.9-1.2.3zm-6.6 3.8 1.7-3.9-1.5.6zm3.2-3.4 2.4-3.8-1.6.4zm-12.9 2.9 1.9-3.9-1.6.5zm39.5 47.5 1.2-3.3-1.2.5zm-3.2 8.4 1.2-3.3-1.2.5zm-3.1 6.2 1.5-4-1.5.6zm-1 8.2 1.4-4-1.5.7zm-2.9-3.6 1.5-4-1.5.7zm-8-2.3 1.4-4-1.4.6zm5-6.2 1.3-3.5-1.3.6zm6.5 63 2-5.3-2 .8zm3.8 35v-3.6l-1 1zm-2.8.9v-3.7l-1 1zm.6-4.4v-3.7l-1 1zm-3.2 1v-3.7l-1 1zm.5-4.4v-3.6l-1 1zm5.4.7v-3.7l-1 1zm-5.2-6.4.4-4.2-1.3 1zm-3.2 1.3.3-4.3-1.2 1zm8.2-18.2 1.6-4-1.5.6zm-11 10 .8-4.3-1.4 1zm-3-2 .6-4.3-1.3 1zm-3.2-2.3 1.1-3-1.1.5zm-.1-5.4 1.1-3-1.1.5zm6.5-8.2 2-5.3-2 .8zm1 4.3 2.1-5.3-2 .8zm-2.6 9 1.5-4-1.5.7zm3.3 1 2-5.4-2 .8zm-1.3-4 2-5.4-2 .9zm3-4 2-5.4-2 .9zm1-7 2-5.3-2 .9zm-6.8 2.8 1.5-4-1.4.7zm-23.4-34 1.5-4-1.4.6zm17.5-14.5 1.5-4-1.5.7zm-2.5-8.2 2-5.4-2 .9zm-3.4 4 2-5.3-2 .9zm-3.4-.6 2-5.4-2 .9zm-11 4.9 1.6-4-1.5.6zm17 4.7 1.4-4-1.4.6zm-4.1 2.1 1.5-4-1.5.7zm19-18 1.4-4-1.4.7zm-4 1.9 1.5-4-1.5.6zm-30 16.7 1-3-1 .5zm-3-3 1.1-3-1 .5zm14.4 6.5 1.8-4.8-1.8.8zm1.1-10 2-5.3-2 .8zm-3.8.8 2-5.4-2 .9zm-2.9-2.1 2-5.4-2 .9zm3.3-4.6 2-5.3-2 .8zm-4.8.7 2-5.4-2 .8zm8 51.4-.8-2.3-.4.8zm5.8 1.7-.8-2.3-.4.9zm2.8-6.9V268l-.7.6zm-11-5.4-.1-2.4-.7.6zM293 240.7l.7-3.1-1 .6zm36.7 6.3.7-3-1 .7zm-20.5 17 .4-3.2-1 .7zm16.7-9.4.4-3.3-1 .8zm-5.2 7 .4-3.2-1 .7zm-5.4 1.9.4-3.3-1 .8zm-3.8 7.6-.3-3.3-.8 1zm-4-11.7.5-3.2-1 .8zm8.8-4.3.4-3.3-1 .8zm-4.2 3.7.4-3.2-1 .7zm20-5.5.6-3-1 .6zm-7.5-5.6.7-3-1 .6zm.2-5.9.9-4.1-1.4.8zm.9-6.6 1.3-3.5-1.3.6zm-7.4-1 1.5-4-1.5.7zm8.7-6.1 1-3-1 .4zm-4.7 3.9 1.5-4-1.5.7zm3.3-7.3 1.5-4-1.5.7zm15.4-10 .9-2.4-.9.4zm-23.7 8.4 2-5.3-2 .8zm27 8.4 1-2.5-1 .4zm1.9-8.7.9-2.4-1 .3zm-4.8 22.1.9-2.4-1 .4zm-41.2 9.7.4-3.2-1 .7zm37.3-25.9 1-2.4-1 .4zm.6 7.8.9-2.4-1 .4zm-8.4-4.2.9-2.4-1 .4zm4.8 11.6 1-2.4-1 .4zm-4-5 1-2.4-1 .4zM295 231l1.5-4-1.5.7zm11.3 39v-2.5l-.7.6zm-11.5-24.7.7-3.2-1 .6zm3-1.9.6-3.1-1 .6zm1.1 5.8.7-3.2-1 .6zm-3.5 3.2.6-2.6-.8.5zm2.3 6.6-.1-2.7-.7.7zm3.7 4.9v-2.7l-.8.7zm2-4.6v-2.7l-.7.7zm0-7.5.4-3.2-1 .7zm6 2.6.9-3.1-1 .5zm-4-20.4 1.5-4-1.4.6zm-3.3 12.8 1-4.2-1.4.9zm5.5 3.7.8-4.2-1.3 1zm4.5-3.3 1-4.2-1.4.9zm4.1-4.4.9-4.2-1.4.9zm-6.7.5.9-4.1-1.4.8zm-4 1.6.9-4.2-1.4.9zm-2.2-5.5 1.5-4-1.5.6zM292.7 226l1.1-3-1 .5zm41 7.1 1-2.4-1 .4zm-34.7-14 1.5-4-1.5.6zm-2.4 5.7 1.5-4-1.5.6zm18.3 2.4 1.5-4-1.5.6zm-3.3 2.2 1.5-4-1.4.7zm-2.8 2.8 1.4-4-1.4.7zm-10.1.4 1.5-4-1.5.7zm.5 4.7 1.5-4-1.4.7zm38-17.2.9-2.4-1 .4zm-29.7-.9 2-5.4-2 .9zm4.4-.7 2-5.4-2 .9zm-8.8 1.8 2-5.4-2 .9zm38.3-12 1-2.5-1 .4zm-36.6 48.2.4-3.3-1 .8zm48.2 77.4v-2.4l-.6.6zm-4.8-1.1v-2.5l-.6.7zm8-3v-2.4l-.6.7zm-29.4-25 .5-3.2-1 .7zm22.9-4 .9-2.4-1 .4zm-1.3 8.7V307l-.7.7zm-12.2 8V314l-1 1zm9.6 1.2v-2.4l-.7.6zm-6.4-47.5 1.5-3.8-1.4.6zm6 35 .7-3.2-1 .6zm2.8-11.3.4-2.7-.8.6zm-3.2 5.7.5-3.2-1 .7zm9.8 19v-2.4l-.6.7zm-3-7.5v-2.4l-.6.6zm-5.2-29.5 1-2.4-1 .4zm4.8 10.7 1-2.4-1 .3zm-5.7-4 .9-2.4-.9.4zm-14-28.1 1.3-3.5-1.3.5zm-9.7 25.1 1.5-4-1.5.7zm20.3-2.6 1-2.4-1 .4zm2 45.2v-2.4l-.6.6zm7.9-2.4V324l-.7.7zm-3-7.8v-2.5l-.6.6zm-15.9 1.3v-2.4l-.7.6zm6.3 5.1v-2.4l-.7.6zm.2-4.8v-2.5l-.7.7zm-18.6-26.6.8-3.1-1 .6zm2.8 2.3.7-3.1-1 .6zm2.2 4 .4-4.3-1.2 1zm-3.6.7.6-2.5-.8.5zm3 7.4-.1-2.7-.7.7zm2.5 3.6V309l-.7.7zm3.4 2.2v-2.7l-.7.7zm9.3-14 .5-3.2-1 .7zm-9.2-15.7 1.5-4-1.5.6zm-3 11 .9-4-1.4.7zm5.5 8.3.8-4.2-1.3.9zm4.6-8 1-4.2-1.4.8zm2.3-4.9 1-4.1-1.4.8zm-5 2.1 1-4.1-1.4.8zm-4 1.3 1-4.2-1.4.9zm-1.2-4.8 1.5-4-1.4.6zm14-20 1-2.4-1 .4zm3.5 2.1 1-2.4-1 .4zm1.7 5 1-2.5-1 .4zm-5.2 1 1-2.4-1 .4zm-1.5 9.4 1-2.4-1 .3zm7-2.6 1-2.4-1 .4zm-24.7-18.6 1-2.4-1 .4zm-.3 4.5 1.6-4-1.5.7zm-3 4.7 1.6-4-1.5.7zm14-3 1.6-4-1.5.6zm4.6 2.5 1.6-4-1.5.6zm-.3 6 1.3-3.5-1.3.6zm-6.7 7.8 1.8-4.7-1.8.7zm3.6-10.7 1.5-4-1.5.7zm-2.7 3.8 1.6-4-1.5.7zm-10.2.9 1.5-4-1.5.6zm-2.6-.7 1.5-4-1.5.7zm16.2 6 1.5-4-1.4.6zm4.3-21.1 1.4-3.8-1.4.6zm-8 2.5 2.1-5.4-2 .9zm-2.2-2.3 2-5.3-2 .8zm-2.8 3.6 2-5.4-1.9.9zm11.5-10.1 1.4-3.8-1.4.6zm2.3 1.4.9-2.4-1 .3zm9.6 1.9 1-2.4-1 .3zm-.7-9.6.9-2.4-1 .4zm-3.4 5.6.9-2.4-1 .4zM340 255l1-2.4-1 .3zm-3.1 8 2-5.3-2 .8zm-1.6-4.2 1.6-4-1.5.7zm13.3 66.6v-2.5l-.7.7zM338 301v-3.6l-1 1zm-2.8-3 1.1-3.4-1.2.6zm5 11.6V306l-1 1zm-1 4.8V311l-1 1zm2.6 3.2V314l-1 1zm2.1 6.7v-2.9l-.8.8zM258.2 193l3.2-.6-1-.6zm1.8 4.7 2.5-.5-.8-.4zm93.1 32.3.4-2.5-.8.5zm-2.9-17.6.4-2.5-.8.5zm-.8 29.8.3-2.6-.8.6zm-62.6 40.7 1.3-3.3-1.3.5zm8.2 11.7.7-4.2-1.3.9zm-5.2-.6 2.1-5.3-2 .8zm2.6-13 2.1-5.3-2 .9zm-2.7 7 2.1-5.3-2 .8zm3.2 4 2-5.3-2 .9zm0-5.4 2-5.3-2 .8zm4.9 8 .7-4.2-1.3.9zm2.7-4 1.5-4-1.4.6zM299 287l2-5.4-1.9.9zm-11.9 1.6 1.4-3.4-1.3.5zm2.6-7 1.3-3.3-1.3.5zm0-3.7 1.3-3.4-1.3.5zm-1.9 16.2.7-3.5-1.1.7zm2.1 3.9.7-3.6-1.1.7zm-.2 19.4.4-2.4-.7.5zm4.7-12 .4-2.4-.7.5zm1.6-2 .7-3.5-1.1.7zm-.4-4.6.7-3.5-1.2.7zm-7.5 4.6.4-2.6-.8.6zm2.3 1.6.5-2.3-.7.5zm3.8 5.4.4-2.4-.8.5zm5.9-13.7.7-4.2-1.4 1zm-4.2-7.5 1.6-4-1.5.6zm.4-4.9 2-5.3-2 .8zm-3.6-9.9 1.3-3.4-1.2.6zm2.7 44.5.4-2.4-.8.5zm3.8-12.9.5-2.3-.8.5zm-14-16.4.5-2.3-.7.5zm2.8 19.5.5-2.3-.8.4zm-1-10 .5-2.2-.7.5zm21.7-1.9.4-2.4-.8.5zm-18.2 3.5.5-2.3-.7.5zm2.2-3.3.7-3.6-1.2.8zm9.7.9 1.2-3.6-1.3.6zm2.8 9 .6-3.2-1 .6zm.3-7 .4-2.3-.8.5zm-4 9.8.4-2.4-.8.5zm6.8.7.5-2.4-.8.5zm1-7.6.5-2.4-.8.5zm-4.8 18 .1-2.4-.7.6zm3.8-3.4.4-2.4-.7.5zM305 314l.4-2.4-.8.5zm-13-.4.5-2.4-.8.5zm.1-6 .4-2.3-.8.5zm10.3-3.4.6-3.2-1 .7zm-17.7-8.7.4-2.6-.8.6zm.7 6.9.4-2.6-.8.5zm15.8 14.9.4-2.5-.8.6zm-2.1-15.5.7-4.2-1.3.9zm-5.6.5.6-3.6-1.1.8zm3.4 5.7.6-3.6-1.1.8zm1 5.4.4-2.8-.9.6zm7.6-18.2 1-2.6-1 .4zm5.1-3 1.3-3-1.2.4zm-6.8 0 1.5-4-1.5.7zm3.2-2.2 1.6-4-1.5.7zm-9.1-13.2 1.5-4-1.4.7zm2.1 3 1.6-4-1.5.7zm2.1 3.6 1.6-3.9-1.5.6zm2 3.1 1.5-4-1.5.7zm-9.8-16.4 1.3-3.3-1.2.5zm1.1 10.8 1.8-4.5-1.7.7zm.6-6.1 1.8-4.6-1.7.7zm15.7-102.2 2.1-2.4h-1.2zm40.5-20.2 2.6-3h-1.5zm-3.7-1.9 3.8-4.3H350zm-28.6 45 2.1-1.6-1-.1zm8.5-1.5 1.5-2h-1zm15.6-16.1 2.5-3.4-1.6.2zm-6.1 5 2.5-3.5-1.6.2zm-4.6-1.3 2.5-3.5-1.5.2zm11.9-15.7 2.5-3.4-1.6.2zM334 188l1.6-2h-1zm13.5-20.1 1.5-2.1-1 .1zm6.6-10.8 1.5-2h-1zm-1.4 6.9 1.5-2h-1zm-4.3 8.3 1.6-2h-1zM337 195.1l1.5-2.1-1 .1zm14.2-50.8 1.7-2-1 .1zm-8.5 43 1.5-2h-1zm-14.5-.2 3.1-2.9h-1.6zm6.4-12 3.7-4.2h-2.1zm-23.2 2.5 2.5-.8-.9-.5zm10.1 11 2.5-.7-.8-.5zm-7 3.6 2.6-.7-.9-.5zm-6-9.7 3.6-1-1.2-.6zm10.7-5 2.8-3.1h-1.6zm-3.6 4.3 4.2-1-1.4-.9zm12.4-15 3.4-3.8-2 .1zm7.1-12.2 2.5-2.9h-1.4zm3.7 21 2.5-3.4-1.6.2zm3.7-3.3 2.5-3.4-1.6.2zm6.9-12 2.5-3.5-1.6.2zm-25.5 19 3.8-4.3h-2.2zm-7.4-5.5 2.5-2.8h-1.4zm3 10 4.1-1-1.3-1zm-6.4 2.9 3.3-.8-1-.7zm13.7-4.8 4.6-3.4-2.1-.4zm2.4-5.1 3.8-4.4-2.2.1zm16.8-30.1 2.6-3h-1.5zm.8 9.7 3.7-4.3-2.1.1zm6.4 14.6 1.5-2.1-1 .1zm-25.7 1.7 3.8-4.3h-2.1zm5.1-5.7 3.8-4.3h-2.2zm6.5 2.5 3.8-4.3h-2.1zm-5.1 2.2 3.7-4.3-2.1.1zm3.6-5.7 3.8-4.3-2.1.1zm3.2-13.5 3-3.5h-1.7zm7.1 27.7 1.6-2h-1zm-15-19.4 3.4-3.8h-1.9zm11.6-9.3 2.6-3h-1.5zm-25.7 16.3 2.1-2.4-1.1.1zm10.5-8.2 2.4-2.8h-1.4zm-4.7 5.4 2.4-2.8h-1.4zm-2 6.1 2.8-3.2-1.6.1zm15-9.3 3.9-4.3h-2.2zm-.8-3.5 3.3-3.8-1.9.1zm5.6 4 3.8-4.3-2.2.1zm-.4-5.1 3.7-4.3h-2.1zm-73-22.3.7 2 .3-.7zm1 7.4.6 2 .4-.7zm-4.8-3.3.6 1.9.4-.7zm21.3 16 2.2 1.4-.2-1zm-11.9 2 1.8 2v-1zm-14.9-9.2 1.2 2.3.3-1zm-1-4.5 1.3 2.3.3-1zm24 26.4 3 2.2-.2-1.4zM274 143l.6 2 .3-.8zm-9.7.2 1.2 2.3.3-.9zm3.3 21 3.4 2.5-.2-1.6zm-.7 2.7 3.4 2.6-.2-1.6zm26.2-7.6 2.2 1.3-.2-1zm-29.4-3.2 1.7 2v-1zm6.6 1.2 2.8 3.2.1-1.6zm13.8 9.6 2.9 2.1-.2-1.3zm10-2 2.2 1.2-.2-1zm-5.3-3.8 2.2 1.3-.2-1zm-3 2.8 2.3 1.3-.3-1zm3.9 2.7 2.2 1.3-.2-1zm3.8 3.7 2.2 1.3-.2-1zm-4.6.3 3 2.2-.3-1.4zM271.4 148l1.2 2.3.3-1zm-4.2 3.7 2 3.8.5-1.5zm-4.5-4.9 1.9 3.8.5-1.5zm5 1.3 1.2 2.3.3-1zm12.8 1.4 1.2 2.3.3-.9zm-8.7 3.3 1.2 2.3.3-.9zm13 5.6 1.8 1.8v-1zm-6.6.9 1.8 1.8v-1zm4.1 1.4 1.8 1.9v-1zm-6.4-12 1.2 2.3.3-1zm5.3 6.2 1.2 2.3.3-.9zm-5.1-1.4 1.1 2.3.4-1zm-15.7-.9 1.7 2v-1zm1.7 6.2 1.6 2 .1-1zm4.6-2.7 2.8 3.2.2-1.5zm-3.6-4.1 2.7 3.2.2-1.6zm11.4 9 2.8 3.2.1-1.6zm-9-1.2 2.8 3.2.1-1.6zm4.3.7 4.3 3.8-.1-2.2zm9.7 2.9 2.9 2.2-.2-1.4zm-2 5.6 4.7 3.4-.3-2.1zm-5.7-4.5 4.6 3.4-.3-2.1zm-.2 3.3 4.6 3.4-.2-2.1zm5.8-2.4 2.9 2.1-.2-1.3zm-4.8 6.8 4.6 3.4-.3-2.1zm7.1 3 3.4 2.5-.2-1.6zm7.1-2.2 3 2.2-.2-1.4zm-10.4-1.3 4 3-.3-2zm5.8 2.1 3.9 3-.3-1.9zm54.3 169 3.6-.3-1-.9zm11.6-2 2.4-.5-.8-.6zm-3-2 2.4-.6-.8-.5zm-9.6 7.8 2-.5-.7-.4zm15-4.1 2 .1-.5-.6zm-4.5 1 2 .2-.5-.6zm-6 1.4 2.7-.3-.8-.7zm2.7-2.7 2.8-.1-.7-.8zm-2.3-2.3 3.5-.3-1-.9zm1-2.7 2.1-.2-.6-.5zm-6 3.2 3.4-.9-1-.7zm-3.4 4 2.7-.6-.9-.5zm-.6-2.5 2.5-.6-.8-.5zm-42.8-.8 3.5-.3-1-.9zm11.6-2 2.4-.5-.8-.5zm-3-2 2.3-.6-.7-.5zm-9.6 7.8 2-.4-.7-.4zm15-4.1 2 .1-.5-.6zm-4.5 1 2 .2-.5-.6zm-6 1.4 2.7-.2-.8-.7zm2.7-2.7 2.8-.1-.8-.7zm-2.3-2.3 3.5-.3-1-.9zm1-2.7 2-.2-.5-.5zm-6 3.2 3.4-.9-1.1-.7zm-3.4 4.1 2.7-.7-.9-.5z" fill="#88898b" id="path7"/></g><!-- app4joy --></svg>