<svg width="600" height="400" id="svg64" viewBox="0 0 600 400" xmlns="http://www.w3.org/2000/svg"><g id="g65"><path fill="#3daa5f" id="rect4" d="M0 0h600v199.4H0z"/><path fill="#da2439" id="rect5" d="M0 198.8h600V400H0z"/></g><g id="g66" display="inline"><rect x="149.19" y="15.754" width="300.47" height="180.86" ry="0" fill="#3daa5f" stroke-width="0" id="rect8" paint-order="fill markers stroke"/><path class="st5" d="M205.6 174.1c-8.5-7.7-9.7-12-14.3-21.6q0-1.4 1.5-1.7c2.3-1.5 7.2-2.3 17-4.3 1 1 1 2.5 1 3.8-5 2.5-11.3 2-15.8 3.6 3 5.3 5.1 10.8 11.5 16l14.7-6.1c2.4-1.3 6-1.8 8.6-2 0 .4 1 .7.4 1.6a258 258 0 0 1-24.6 10.7" fill="#ffffff" id="path8"/><path class="st5" d="M383 175c8.4-7.6 9.6-12 14.2-21.5 0-1 0-3.4-1-3.6-2.3-1.5-11.6-2-21.2-2.9-1 1-3.7 2.7-3.7 4 8.6 1 14.3 1.4 21 2.4-3 5.2-6 13.5-8.5 17.6-4.1-1.2-20-9.7-21.8-9.9-4-.5-7.4.3-6.8 1.3 8.4 4.1 20.4 10 27.8 12.7" fill="#ffffff" id="path9"/><path class="st0" d="M146.5 327.6V11.7h307v317.6l-.2.6c0 1.8-.6 3.5-.8 5.3q-.4 2.5-1.2 4.9a45 45 0 0 1-6 12.6 37 37 0 0 1-18.4 14.5q-3.4 1.3-7 1.9l-2.4.4-2.5.4-1.6.2-1-.1q-1.3.2-2.7.1-1.6 0-2.8.3h-3.6l-3.8.1-4 .2h-16.7q-1.2-.3-2.4-.1h-2.1l-6.1-.2-3.7-.1-5-.3q-1.5 0-2.8-.2t-2.4-.2l-2.4-.1-2.4-.2q-1.4.1-2.5-.1-2.2-.4-4.4-.3h-1q-2.3-.4-4.4-.1-1.5.3-3-.1h-.4l-3.1.5q-4.3.8-8.2 2.7l-6 3.1a59 59 0 0 0-13 10.4l-3 2.9h-.2l-1-.9-1.5-1.5-2.2-2.2-2.4-2.2q-3.2-2.6-6.5-5-3.7-2.4-7.5-4.3a44 44 0 0 0-7.7-2.7l-1.8-.4-2.8-.4q-1.6-.2-2.8-.1l-3.1.2-4.4.2-2.8.2q-2.6 0-5.2.3c-1.4.2-2.8 0-4.2.3q-2.1.3-4.2.2l-1.2.2-1.4-.1-3.1.2-6.1.3-7.1.2q-4.8.2-9.8 0-4.4.1-8.7-.1-3-.2-6-.1-2.3.2-4.7-.2l-.6-.1-3.7-.2-5.1-.5-4.2-.8q-1.4-.2-2.6-.7-3.7-1.2-7-2.9l-4.3-2.5q-2.1-1.3-3.7-3l-.3-.3c-1.6-.9-2.6-2.5-3.7-3.8-1-1-1.5-2.3-2.4-3.3q-1.4-2-2.4-4.1l-2.2-4.9a43 43 0 0 1-2.4-8.5c-.4-2.1-1-4.1-.8-6.3l-.1-.5q.2-.4-.1-.4m4.5-126.5v116.8c0 4.2-.3 8.4.2 12.6l.5 3.4.6 2.6q.8 4.2 2.6 7.9 3 6.6 8.1 11.7a35 35 0 0 0 19.1 9.3q1.5.4 3.1.4h.4c1.4.4 2.8.1 4.2.5 3 0 6 .4 9 .3h.7l4.8.3h10.2q5.2.2 10.3-.2l4.6-.1 4.5-.3 3.1-.2 2.7-.1 1.3-.1q2.3 0 4.7-.3l4.2-.3c2.1-.2 4.2 0 6.4-.3q1.6-.2 3.2-.1h.7l1.4-.1q3.2-.1 6.2.2 2.2.3 4.3.8 4.2 1 8.1 2.9a59 59 0 0 1 14 8.9l4.6 4 1.3.9c1-.4 1.4-1 2-1.5q1.6-1.6 3.4-3 3.3-2.8 7-5.1 4.9-3.1 10.1-5.3a38 38 0 0 1 19.3-2.5l8 .4h.3c1.8.4 3.6.2 5.4.5s3.7 0 5.5.3l4 .2q3.7.4 7.4.3 1.7-.1 3.4.1 2 .3 3.8.2h9.7q4.8.1 9.6-.2 3.2-.2 6.3-.1h1.1q3.1-.5 6.2-.5l1.4-.2.8-.1q1.3 0 2.4-.3a39 39 0 0 0 21.4-11c1-1 2-2 2.7-3.1l2.2-3.5a42 42 0 0 0 5.5-16.6q.4-2.7.4-5.5V202l-.2-.8-.5-.1zM449.6 16l-.7-.1-298 .3v179.2q-.2.6.2 1.1h297.7l.8-.1z" fill="#1d1d1b" id="path10"/><path class="st1" d="m150.7 201 298.2.1.6.1.2.8v124q0 2.8-.4 5.5a48 48 0 0 1-7.7 20.1l-2.7 3.1-1.2 1.4q-2.1 2.1-4.6 3.7-4.6 3-9.7 4.5-3 .9-6 1.4l-2.3.3-.8.1-1.4.2q-3.1 0-6.2.5h-1.1q-3.2-.1-6.2.1-4.8.3-9.6.2H380l-4-.1q-1.8-.2-3.5-.1-3.7 0-7.4-.3l-4-.2c-1.8-.3-3.7 0-5.5-.3s-3.6 0-5.4-.5h-.4q-4 0-7.9-.4l-5.9-.2q-6.8 0-13.1 2.6a61 61 0 0 0-10.1 5.3q-3.7 2.4-7 5.1-1.8 1.4-3.4 3c-.6.5-1.3 1.6-2.2 1.9q-.7-.4-1.3-1l-4.6-4-5.6-4a57 57 0 0 0-16.5-7.7q-2.1-.6-4.3-1-3-.5-6-.4l-1.4.1-4 .1c-2 .3-4.2.1-6.3.3l-4.7.4-4.7.3h-1.3q-1.4.3-2.7.2-1.6 0-3.1.2l-4.5.3h-4.6c-3.4.5-7 .3-10.3.3h-10.2l-4.8-.3h-.8l-9-.3c-1.3-.4-2.7 0-4.1-.5h-.4q-1.5 0-3.1-.4-6.6-1.3-12.5-4.4a38 38 0 0 1-17.3-24.5l-.6-2.6-.5-3.4c-.5-4.2-.3-8.4-.3-12.6v-12.6c.1-34.5.2-70.3 0-104.3" fill="#da2439" id="path11"/><path class="st5" d="M258.8 144c1.4.5 1.9 2.2 3 3 1.3-.5 1.8-.8 2.3.7-.2.9-1 1.4-1.5 2.2l.4 2.1q-1.7 2-4.1 2.9c-2.6-.2-2.7-2-3.2-4.4.5-.4 0-.7.1-1-.7 0-.6-2.3-1-3 .6-1.2 2.8-2.1 4-2.5" fill="#ffffff" id="path12"/><path class="st2" d="m356.3 182 .7.1v.4l-.5.1z" fill="#3daa5f" id="path13"/><g fill="#da2439" id="g17"><path class="st1" d="M284.4 268.8q-1.1 1.1-2.6 1.8a11 11 0 0 0-4.5 4.9q-1.8 3.8-4.2 7.3-2.7 4.1-6.9 6.7a20 20 0 0 1-5.5 2.2c-2.4.6-4.8.4-7.2.3a64 64 0 0 1-15.8-5.6q-4.8-2.5-9.5-5.3-5.4-3.4-11.3-6.3a118 118 0 0 0-11.8-5l-.5-.3a2 2 0 0 1 1.5-.6h2.3l9-.3 8.7-.1 21-.2h36.5q.5 0 .5.2z" id="path14"/><path class="st1" d="M389.4 267.8q-1.4 1-2.4 1.4-7.4 3-14 7.1-5.5 3.6-11.1 7-5.1 3.1-10.7 5.4a17 17 0 0 1-13.3 0 43 43 0 0 1-11.2-6.5q-2.4-2-4.6-4.4-3.3-3.8-6.9-7.2l-2.4-2q0-.3.3-.2h.6c7.9-.4 15.6-.1 23.4-.2q3 .1 6-.1c5-.4 10-.1 15-.2h30.1z" id="path15"/><path class="st1" d="m300.4 243.5 1.9-1.1 4.5-2.3 1.3-.7h.7q3.3 4.5 6.2 9.4l-5.8 8.9-6 8.6q-1.2.2-2.4.1-.4-1-.4-2.1z" id="path16"/><path class="st1" d="M283.2 245.3c1-1.6 3.7-4.6 4.6-5.2q4.7 1.3 9 3.7l.1 1.1v19.9l-.2.7-.8-.1-.3-.6-1.6-2.4-5.4-8.2-3.8-5.7-1.4-2.4z" id="path17"/></g><g fill="#b9aea4" id="g20"><path class="st3" d="M294.5 331.6c1.5.3 3 1.4 4.2 2.3.6 2.6 1.5 5.3 1.8 7.8l1.7-7.8 2-1.5q.8-.7 2-1 .3.2 0 .7-2.6 9.2-5.4 17.5c0 .3-.5.7-.7 1a75 75 0 0 1-5.6-19" id="path18"/><path class="st3" d="M334.5 315c2.1 6 4.6 12 5.6 17.6-1 .3-2.3-1-3-1.5-3.9-3.7-8.2-6.2-11.5-10q0-.6.2-.8l3.3-.1 6 5.5c-.2-1.6-1-2.4-1.4-3.6l-1.7-3.6q0-.6.2-1.1c.2-.9 1-3.2 1.4-4q.6.6 1 1.7" id="path19"/><path class="st3" d="M268 317.8q.8 1 .9 2.4-1.6 3.7-2.8 7.1c3.8-3.8 4.5-4.3 6.4-5.9 1.4-.4 2.5.2 3.7.6l-1.1 1.2-7 5.6-3 2.7-3.2 2.3-1.3.7v-1q.2-1 .6-1.9l3-7.8 1.3-4.1.4-.7 1.2-2.4q.7.3.8 1.2" id="path20"/></g><g fill="#da2439" id="g26"><path class="st1" d="m263.8 219.9 1.7 2.4 6 8.8 9.9 14.4 5.4 8 7 10.4 1.4 2v.5l-.6.2-1-1.4-7.4-10.9-2.1-2.9-.5-.8-1-1.6-4.4-6.7-6.2-9-7.5-11-1.2-2 .2-.3q0-.2.3-.1" id="path21"/><path class="st1" d="M298 215.9q.6-.1.8.4V266q-.3.6-1 .4l-.1-1.8v-11.4z" id="path22"/><path class="st1" d="M304.6 281q.5-.5 1-.3l24.6 37-.2.7h-.7a33 33 0 0 1-3.7-5.3q-3-5-6.4-9.9l-6.4-9.7-4.7-7q-1.6-2-2.8-4.3z" id="path23"/><path class="st1" d="M301.4 333.2h-1v-4.7c-.5-9.3-.3-18.5-.4-27.8l-.2-2.7v-17.4c.4-.3.6.1.8.3v1.5l.1 10.4c.2 4.5 0 9 .3 13.5q.3 7.1.2 14.2l.1 6 .2 5.8q-.2.3-.2.9" id="path24"/><path class="st1" d="M305.6 266.8h-.8l-.1-.3q.8-1.7 2-3.2a215 215 0 0 0 7.7-11.7l2.2-3.5 1.3-2.1 5.8-8.6 9.2-14.2q.7-1.2 1.9-2.5l.4.5q-1 2.3-2.6 4.4l-6.3 9.3-5.7 8.9-3 4.6-3.2 4.6-3 4.6-4.7 7q-.6.8-1.2 2.2" id="path25"/><path class="st1" d="m270 322.3-.4-.4q.4-1.2 1.1-2.1l.7-1 6.7-10.2 4.8-7.5 6-8.9 4.3-6.8 2-2.9.4-.9.8-.5.6.6-4 6.2-8.3 12.5-4.8 7.3-6 9.2-2.6 4q-.5.9-1.3 1.4" id="path26"/></g><g fill="#b9aea4" id="g31"><path class="st3" d="M345.4 225.2c-6.4 10.6-17.2 24.2-17.5 24.7h-1.3l-7.3-.6q-.5 0-1.1-.3a672 672 0 0 1 16.3-25.1c3.2.2 8.2.2 10.9 1.3" id="path27"/><path class="st3" d="M285.9 210.8c1.3.5 8 4.8 10.6 7 .4 5.7.8 12.3.4 24.5-4-1.3-6.9-2-9.4-3-.4-.3-2-23.7-1.7-27.4z" id="path28"/><path class="st3" d="M268 246.7c-.1-.3-13.7-19-16-23.8l.4-.3 3 .1h6.6l1.7.1.4.7c5.5 7 16 22.2 15.7 23.3l-.3.3-1.1.1h-8.8q-.7.1-1.6-.5" id="path29"/><path class="st3" d="M328.3 212.8a63 63 0 0 1 4.6 9c-.2.4-17 25.6-17.9 25.4a43 43 0 0 1-4.7-8.9c6.3-7.5 11.2-19.2 18-25.5" id="path30"/><path class="st3" d="m270.5 211.3.2.1c1.5 1 16 24.7 16.2 25q0 .5-.3 1l-3 5.7-1.2 1.3c-.6 0-17.3-23.8-17.5-24.1.3-1.4 3.8-6.2 5.6-9" id="path31"/></g><path class="st1" d="M250 300.4q.8-.2 1.3.1l2.4.8q1.6.6 3.3.5 2.6.3 5-.8l.8-.1a5 5 0 0 1-3.6 1.8q-3 .7-6.1-.4-1.8-.6-3.1-1.9" fill="#da2439" id="path32"/><path class="st3" d="m307.8 212 .5.1c.4.3.3 25 0 25.4a44 44 0 0 1-7 4.4q-.5 0-.8.3l-.6-.9-.2-23.8z" fill="#b9aea4" id="path33"/><path class="st0" d="M267 312.5c1 2 1.5 4.1 2.5 6q.6 0 .7-.3l1.4-1.8 6.3-10 6-9.3q2-3.4 4.3-6.8l3-4.5 2.5-4.2.5-1-.4-.2c-2.8-.2-5.4.6-8 1.6a6 6 0 0 0-2.6 2.1l-4.6 6.1a48 48 0 0 1-7.5 8.1 25 25 0 0 1-8.7 5.2q-2.7 1-5.5 1h-1.6c-1.8 0-4.7-.6-6.5-1.2q-4-1.6-7.6-4.1-5.6-3.7-11.3-7.2l-6.8-4.6q-5.6-4-11.5-7.7-2.5-1.6-5.4-2.8l-2.8-1.2q-1.8-.7-3.8-1.2l-3.3-.6q-1.2-.3-2.5-.2l-1.2.6a7 7 0 0 0-.8 3.7q-1.1 3-4 3.1-1.5.2-2.9-.4-1.7-1.2-1.9-3.2-.4-1.4 0-2.9.4-2.5 2.4-4 2-1.4 4.3-2.1 3-.8 5.7-.8h5l1.7.1h.3c1-.3 2 .1 3.1 0h6.1c5.7-.4 11.4-.1 17.2-.2l17.1-.1q10.2-.2 20.5-.1l20.8-.1q2.5 0 5-.6l.6-.3q.2-.5 0-.9l-1.6-2.5-4.5-6.5-2.9-4-3.2-4.4q-1.6-.1-3.5.2l-1 .1q-1.5 0-2.9.3l-1.4.1-2.6.1-.6-.5-2.3-3.2-3.8-5.6-3.2-4.7-4-6-4-6.2-.6-1.4.7-.1q2-.1 4 .2h.4c1 .2 2-.2 3.1-.1l3.1.1.6-.1c.1-.6-.4-1-.5-1.5q.6-.9 1.8-1.5l1 .8.3-.2.7-1.2 1.3-2.2 1.4-2.6q.8-1.4 1.8-2.3l.7-.4a15 15 0 0 1 2.5 4.1l.4.7 4 5.9 3.1 5 2.5 4q1 1.8 2.3 3.2c.3-1.1.3-1.4.3-2.4v-4l-.3-3.2q0-1.7-.2-3.2v-2.4l-.2-2.3.1-1.6-.5-.9v-2.9l.5-.6.3.1 3.6 2q2.7 1.3 5 3.2.8.6 1.8.8l.1-1.1 1.1-.4h1.6q1 .5 1 1.4l1.6-.4c1.2-1.6 3-2.5 4.6-3.6l2-1.3.5-.2q.5.6.4 1.3v4q0 1.3.3 2.5v.6a13 13 0 0 0 0 4.4v2.1q-.5 2.4 0 4.6v.7q-.4 1.4 0 2.8l.1 2.1q.5 0 .9-.3l3.3-3.9 4.3-5.6 7-9.3 2.5-3.5q.3-.7 1-.9l2.5 4.3q1 2.2 2.7 4.2c.5 0 .9-.8 1.8-.3l.6.6.8.9c0 .8-.8 1.2-.8 1.9l2 .4 3 .1 5 .3q.4 0 .8.3l-.2.7q-.3.8-1 1.6l-6 8.4-3.5 4.5-4 5.6-3.7 4.9-1 1.2q-1.9 0-3.4-.2l-5.8-.4-.8.9-6.5 9.8-2.5 3.9q-.6.6-.4 1.6l.6.3h30c6.4-.4 13-.1 19.3-.3q6.5-.2 13.1-.2l13-.1 11.1-.3q1.8-.2 3.5.4 2 .6 3.5 1.8a7 7 0 0 1 2.3 5.5q0 1.2-.9 2.2a5 5 0 0 1-2.8 2l-.8.3h-2q-3-1.1-3.9-4.1l-.5-1.8-3.6.7a46 46 0 0 0-10.3 4.8q-4.7 3-9 6.3l-4.3 3.5a66 66 0 0 1-19.9 11.8l-3.3.9h-5q-1.7-.1-3.3-.6-3.7-1-6.8-3.3a38 38 0 0 1-6.6-6q-2-2.3-4.2-4.4a27 27 0 0 0-6-4.5q-1.6-1-3.6-.6l.2.5 4.3 6.6 6.1 9 7 10.2 5.4 7.8.8.9c1.2-1.7 1.3-3.7 2.3-5.4q.4 0 .5.4l2 5.5q.9 3.4 2 6.7 1.5 4.7 2.8 9.5l.4 1.7q-.6.3-.9-.2l-3.3-2.4-6-4.9-4.8-3.7v-.1l-3.4-2.9-.5-.6q0-.6.6-.6l3.7-.3q.6 0 1-.5l-.3-.6-1.4-2.4-5.3-8.2-3.5-5.3-6-9-3.9-5.5-2.5-3.4q-1-1.5-2.6-2.7l-.8.3v6.2l.1 3 .1 3q0 7.5.4 15c.2 3.3 0 6.6.2 9.9q.3 3.3.2 6.7v4.7q0 .8.2 1.5l.6-.2 2.7-1.9 2.5-1.9.5.2q0 .8-.4 1.5l-2 6.9-4.5 13-1.3 3.7q-.1.3-.5.6l-.4-.8-3-9.6-1.8-5.7-2.2-7.6q-.2-.7-.2-1.7l1.4 1q1.5 1.2 2.8 2.5.8.8 2 1.4l.1-.6v-13.9c-.4-7.4 0-14.8-.4-22.2l-.2-12.1q.1-.7-.4-1.5h-.5l-1.3 1.9-5.8 9-7 10.9-8 12.6-.7.8c0 .8-1.2 1.4-.9 2.5.7.3 1.5 0 2.3.1s1.6-.4 2.4-.1l.1.6q-1.9 2-3.9 3.8-3.2 3.1-6.7 5.9L267 332q-.6.7-1.2.9l-2 1.9-3.5 2.9-.8.4v-.8l.3-1.6 2.6-8.1 2.3-7.3 2.3-6.8q-.5-.7 0-1m24.4-72.2q0 .3.3.1zl-.1-.6q-1.4-1.6-3-2.5l-.5-.1q-.4.8-.2 1.8 1.7 1.3 3.9 1.4m107.9 30.4q-.2-.4-.6-.4zq0 .3.4.7.6.7 1 1.6c-.4.8-1.5.6-2 1.3q.6 1 1.8 1.1l1-.5q1.2-1.3 0-2.4l-1.5-1.6q-.3-.3-.7-.2m-108.1-56-.7-.6-4.2-2.8q0 .5-.3 1 .4 1 1.5 1.5.6.3 1 1.1-.8.2-1.4-.4-.4-.5-1.1-.4-.4.7 0 1.2 0 .3.5.4a65 65 0 0 0 9.9 6.6l-.1-1.6-2-1.3-5.7-4.1q-.2-.1-.2-.4l.6.2.6.3 5.4 3.6q.4.5 1.3.6v-1.5l-2.8-2.1q-.8-.6-2.3-1.3m-20-1.4q.3-.3 0-.7l-.7-1q-.7.4-.9 1.1l-1.4 2.4-2 3.4q-1 .9-.8 2.2.3.6 1 .5l.1-.3 4-6.6q.1-.6.6-1m11.3 18.4-4.2 7.3c.4.4.4.9 1 1q.6-.5 1-1.2l2.2-3.9q.8-1 1.2-2.3l.5-.2c-.5-.5-.5-1.1-1.1-1.3zm-9.3-15.3q-.5.5-.8 1.1-.5 1.6-1.7 3.1l-2.3 3.9 1 1.1a65 65 0 0 0 5-8.4 2 2 0 0 0-.9-1.3zm43.5 13.6-.2.3a51 51 0 0 0 4.6 8.6q.5-.5.9-1.4l-.9-1.7-3-5.6q-.2-.6-.8-.8zm-41.4-9.8.5-.1v-.5q-.1-.7-1-1.2l-.4.9c-.6 1.3-1.8 2.2-2.2 3.7-.6.5-.6 1.4-1.1 1.9q-.6.9-.8 1.9 0 .3.4.6 0 .4.4.4l.2-.2 3.8-6.4q0-.6.3-1m33.2 3.9q.3-.4 0-.9l-.2-.5-1.7 1-4.9 3q-1 .6-1.7 1.7c0 .4-.2.9.4 1.1l1.8-1.1 5-3.2q.7-.3 1.3-1.1m2.2 13.9-.3.4c.7 2.1 3.5 7.4 4.5 8.7l.7-1.1q-.1-1.1-.6-1.8-1.4-3.2-3.4-6.1v-.5q-.7-.1-.9.4m11.1-15v-.2l-.3.1q-.6.2-.8.9 1.9 4 4 7.9l.6.8q.5-.7.8-1.5-.1-.5-.5-1.1l-1-2.1q-1.3-2.6-2.8-4.8m-34.6-1.2 8.1 5.7q.7.5 1.4.6v-1.5l-2.7-2-5.4-3.6q0-.5-.6-.5l-.8-.3q-.1-.6-.8-.5v1.5q.2.4.8.6m20.5-7.1-.7.7q-.4.4-.9.6l-4 2.7-.6.3q-.8.4-1.5 1.2l.1 1.4 2-1.2 4.8-3.1q.8-.4 1.3-1.1.1-.6-.2-1.3c-.2-.1-1.4.8-1.7.8l2-2-.2-1.3q-.6 0-.8.3l-2 1.8q-1.2.3-2.3 1l-2.7 2-.2.3.2 1.3 2-1.2 3.2-2c.3-.4 2.6-1.7 2.2-1.2M268 317.8q0-.6-.7-1-.6.2-.6.8l-.6 1.4-.4.7q-.5 2.2-1.4 4.1l-3.5 9.7v.9l1.2-.7 3.1-2.4 3.2-2.6 6.8-5.6 1.1-1.1c-1.3-.4-2.3-.9-3.5-.6l-1.3 1.1-1.4 1.3q-1.5 2-3.4 3.4l-.6.1 1.5-3.6q.9-1.8 1.4-3.5-.3-1.4-.8-2.4m65.2-3.1-.9 2.5-.2 1.1 1.7 3.6q1 1.7 1.4 4l-6-5.6-2.9.1q-.5-.1-.6.5l1.3 1.5q.7 1 1.8 1.5l.8.5 2.8 2.4 4.9 4.1 2 1.5q.2.3.6 0l-.1-1.6-1.5-4.9-4.5-12.1q-.5.4-.5.9m-48.8-45.9-.1-.2-.5-.2h-36.5c-7 .1-14-.1-21 .2l-8.8.1-9 .3h-2.2q-.7 0-1.5.6l.5.3 1.4.6q5.2 1.8 10.3 4.4 5.8 3 11.4 6.3 4.6 2.8 9.5 5.3 5.4 2.9 11.2 4.6 2.2.7 4.6 1 3.5.4 7-.3 3-.7 5.7-2.2 4.1-2.6 6.8-6.7 2.4-3.6 4.3-7.3 1.4-3 4.4-4.9 1.4-.8 2.6-1.9m105-1h-31.6q-7.5-.2-15 .2l-6 .1c-7.8.1-15.5-.2-23.3.2h-.6q-.2-.1-.4.2l2.5 2q3.6 3.4 6.8 7.2a48 48 0 0 0 11 8.7q2.3 1.4 4.8 2.2 2.6.9 5.3 1.3 4.2.3 8-1.3a67 67 0 0 0 10.7-5.4l11.1-7q6.6-4.1 14-7.1 1.5-.2 2.7-1.3m-89-24.3v20.7l.3 2.1q1.3.1 2.5-.1l6-8.6c1.8-3 4-5.8 5.7-8.9q-2.9-4.8-6.2-9.4h-.7l-1.2.7-4.6 2.3q-1 .8-1.9 1.2m-17.2 1.7.1.6 1.5 2.4 3.7 5.7 5.5 8.2 1.5 2.4.4.6.7.1.3-.7v-21a44 44 0 0 0-9-3.7c-.9.8-3.6 3.8-4.7 5.4m11.5 86.7v1.1q1.8 6.8 4 13.4.7 1.8 1.2 3.8l.5.1.4-.8 2.6-7.9 2.8-9.3q.2-.4 0-.8-1.1.4-1.9 1l-1.9 1.3-.5 2.5q-.4 2.5-1 4.9l-.4.7-.9-4-.9-3.9q-1.8-1.4-4-2.1m-31-112h-.5l-.1.3q.4 1 1.2 2l7.5 11 6.2 9 4.5 6.7.9 1.6.5.8 2 2.9 8.5 12.3.7-.2-.1-.5-1.3-2-7.1-10.4-5.4-8-9.8-14.4-6-8.8zm34.3-4-.2 3.8v46.6q.7.3 1.1-.4v-49.7q-.2-.4-.9-.3m6.6 65.1.7 1.3 2.8 4.3 4.7 7 6.4 9.7q3.3 4.9 6.4 9.9 1.6 2.8 3.7 5.3h.7l.2-.7-24.5-37q-.6-.3-1 .2m-3.3 52.2.1-1-.2-5.8v-6c-.2-4.7 0-9.5-.3-14.2-.3-4.5 0-9-.3-13.5q-.2-5.2 0-10.4v-1.5c-.4-.2-.5-.6-.9-.3v17.4l.2 2.7q0 13.9.3 27.8v3.3l.1 1.4zm4.2-66.5q.8-1.2 1.3-2.4l4.6-7 3.1-4.6 3.1-4.6 3-4.6q3-4.4 5.8-8.9l6.2-9.3q1.6-2 2.7-4.4l-.5-.5q-1 1.2-1.8 2.5l-9.3 14.2-5.7 8.6-1.4 2.1-2.2 3.5-2.5 3.8-5.2 7.9-2 3.2.1.3q.2.3.8.2M270 322.3q.9-.4 1.2-1.2l2.6-4 6-9.2 4.8-7.3 8.2-12.5 4.1-6.2-.5-.6-.9.5-.4.9-2 2.9-4.4 6.8-5.9 8.9-4.7 7.5-6.8 10.2q-.2.6-.6 1-.8.9-1.3 2.1.6-.1.7.2m60.5-91.6.1.1 7 .9 2.2.2 1-.1c.3-.5.9-.9.8-1.6l-.7-.2c-1-.1-2-.5-3.2-.4l-1.4-.1-3.8-.5h-1q-.8 1-1 1.7m2-2.5c3.7.7 8.7 1.3 10.2 1.1q.7-.6 1-1.5l-2.2-.5-4.9-.6q-1.4-.2-3.3-.2c-.4.7-1 1-.9 1.7m.3-6.7-2-4.1-2.3-4.1a2 2 0 0 0-1 .9c-.3.8.1 1.4.4 1.9l3.3 6.6q.1.4.5.4.6-.4 1.1-1.6m-69 18.7 2 .1h8l1.1-.1.2-.2-.6-1.1-1.2-.2-9.9-.1q-.3-.1-.5.2.2.8 1 1.4m32.7-16.6-.6-.6-4.9-3.4-3.9-2.6c-.2-.1-.5-.5-.9-.2l.1 1.2c1.6 1.5 9.1 6.5 10.3 7zm.3 11.4-.4-.3-7.5-5.1q-1-.8-2-1.1-.5.6-.2 1.4l1.2 1 4 2.6 4.2 3q.4.2.7 0zm30.3 1.2 3.3.4q1.5.3 3.1.4c1.1 0 2.1.6 3.3.2q.8-.5 1-1.6c-1.6-.6-3.2-.6-4.8-.8l-4.8-.6q-.9.8-1 2m1.8 12.1q-1.7-.6-3.3-.6l-3.2-.3h-3.2q-.7.7-.9 1.6l1.2.3 7.2.6h1.3q.3-.7 1-1.6m-71.4-17.4 2.1.2h9l.7-.1-1-1.5h-11.5zm82.4 2.1-1.8-.5-4.6-.5-3.5-.3q-.7.7-1 1.6c2.8.7 8.7 1.4 10 1.2q.5-.5 1-1.5m-6-7.3.5.3c1.2 0 2.3.5 3.5.4l.6.1 4.6.5 1-.1q.7-.7.7-1.5c-1-.6-2.3-.3-3.3-.6s-2.2-.1-3.4-.4q-1.6-.3-3.4-.1-.7.6-.9 1.4m-47.2 1 3.6 2.6 5.5 3.7q.4.4 1.1.3v-1.6l-2.5-1.6-2.6-1.8-2.5-1.7q-1.2-.9-2.6-1.6zm37.1 14.9c1 .5 2.1.3 3.2.4q1.6.3 3.2.3c1.1-.1 2.1.4 3.2.2.4-.6 1-1.1 1-1.8-1.2-.3-2.2-.1-3.3-.4l-3.4-.2a9 9 0 0 0-3.2 0q-.5.6-.7 1.5m-2.2 2.6 1 .1q1.7 0 3.2.3l5.6.4c.3-.6 1-1 .7-1.7q-.6-.4-1-.4l-2-.1-3-.2q-1.5 0-2.8-.2h-.6q-.6.7-1 1.8m4-5.4 3.2.4 3.1.5c1.1 0 2.1.4 3.2.2q.7-.7.8-1.5l-.7-.3-5.4-.6-.7-.1q-1.4-.3-2.9-.1a3 3 0 0 0-.6 1.5M286.5 224l1.3 1 3.2 2.3 4.5 3q.5.4 1.2.4.3-.7 0-1.6-5-3.5-10.2-6.7zm39-7.1q0 .9.2 1.5l3.4 7 .4.5q.8-.6 1.2-1.9a11 11 0 0 0-1.8-3.3q-.5-1.7-1.4-3.1-.3-1-1.2-1.6zm-28.9 21-8.4-5.9-1-.6-.3.1v1.2l.7 1 1.3.9 6.4 4.5.6.4q.3.3.7.2zm32.8 9.5q.6-.7.8-1.3l.2-.7-2.2-.1-2.2-.2-3.4-.2h-1.8q-.6.7-1 1.7zm-42.3-13.3v1q.2.8 1 1.2l7.5 5.3q.4.4 1 .5v-1.6a72 72 0 0 0-9.4-6.4m-14.2 2.8q-2-.5-11.2-.2l-.5.1q.3.8.9 1.2l9.2.1 2-.2v-.3zm-13.8-3.8c1.8.2 9.5.4 11.1.3l.4-.2q0-.8-.6-1.4l-1-.1-10 .2-.4.2zm22.2-4.8-.9 1.4-2 3.6q-.2.8-.8 1.3-.7.8-1 1.7l1 1.3a59 59 0 0 0 5-8zm30.8 8.7q1.3 2.4 2.2 4.6.9 1.8 2.2 3.6l.9-1.4-.5-1.2q-1.8-3.7-4-7.2l-.8.8zm-59.6-13.1q.9.5 1.5.4h8.8l1.1-.1.3-.3q0-.3-.3-.5l-.4-.5-1.7-.1h-6.5l-3-.1-.4.2zm24.8-2q-.4-.7-1-1.1l-3.4 5.3q-1 1.3-1.4 2.9.3.7 1 1.1c.7-.9 4.2-6.9 4.8-8.2m-.3 21.3h-11q-.2 0-.3.2l.8 1.1H278q0-.7-.8-1.3m-.8-1.1q0-.8-.6-1.2c-1.2-.2-10-.2-11.4 0q0 .8.6 1.2c1.2.2 10 .2 11.4 0m-9.7-14.8c-1.6-.2-10.2-.1-11.3 0q0 .8.6 1.1c1.1.1 8.7.2 10.8.1l.6-.1zm12.6 18.4h-11.6q.2.9.8 1.3l.4.1h10l.4-.1.3-.2zm-7.8-11.1h-10.9l-.5.1q.1.9.7 1.2l.3.1h10.3q.4.2.6-.3 0-.5-.5-1.1M265 225l-.5-.1H254l-.6.2.7 1.3h10.1q.6.1 1.2-.4-.1-.6-.4-1m13.4-1.8q-.7.8-1 1.4l-.9 1.6-2.6 4.7q-.3.5-.2 1.2l.7.8.5-.6 4.4-7.5zm51 3.6c-1-2.6-3.6-7.2-4.5-8.2q-.7.1-1 .8l.5 1.3 4 7.1.3.3zm-7-5.5q1.9 4.6 4.4 8.8.7-.6 1-1.3l-.2-.6-3.3-6.2q-.2-.6-.8-1.1l-.4-.2q-.4 0-.8.6m-41.4 21 4.4-7.4.1-.5-.7-.9-.8.1c-1 2.6-2.7 4.9-4 7.4 0 .6 0 1.2 1 1.3M308 228l-.6.2-2.6 1.6-2.3 1.5q-1.5.8-2.8 2l.1 1.5 8.2-5.2q.2-.8 0-1.6m15 7-1-2.1-2.6-4.6-.8-1-.3-.1-.6.7.1.4 4 7.8.5.5q.7-.7.7-1.6m-14.8-9.8-5 2.9q-1.8 1.2-3.5 2.6l.1 1.1h.4l8-5.1zm10.8.3q.1 1.1.7 1.9l3.3 6.2.6.7.7-1.4c-.6-1.5-2.9-5.9-3.9-7.6q-.1-.3-.6-.7zm-47-11.9-.4.2c-.7.8-.9 1.9-1.8 2.5q-.5 1.5-1.4 2.7l-1.7 3c.3.4.3.9 1 1.1.8-1 5-8.2 5-8.7zm27.8 13.5 8.1-5.2q.6-.8.1-1.9-4.2 2.6-8.2 5.4zm8.3 6.4q-.8-.2-1.2.4l-2.8 1.9-1.3.8q-1.5.8-3 2.2v1.3c2.4-1.2 4.6-2.9 7-4.2l1.3-1.1zm-22.3 2a35 35 0 0 0-4.4 8.1q0 .7 1 .6l.5-.7 3.5-6.1.3-1-.7-.8zm22-4.9-4 2.6-4 2.8q-.2.8.1 1.5l8.1-5.1q.1-.9-.2-1.8m11.4 10.3.2-.1q1-1 .2-2.2-1.4-3-3.2-6l-.9-1.2-.8 1c.5 1.5 3.5 7.1 4.5 8.5m-11-23.5-.8.3-7.7 5.1.1 1.4.8-.4 6.5-4.1q.8-.3 1.2-1.1zm5.1 16.9q0 .5.3.9l3.8 7.2.5.6.7-1.3-.4-1q-1.7-3.6-3.9-7.1l-.3-.2zm-37.6 1.3q1-.5 1.1-1.3l3-5.2q.6-.7.8-1.6-.2-.7-.9-1.1l-.4.4-4.2 7.4zm-26 64.8q1.5 1.3 3.1 1.9 3 1.1 6.1.4 2-.1 3.6-1.8l-.7.1q-2.4 1-5 .8-1.8 0-3.3-.5l-2.4-.8q-.6-.4-1.4-.1m57.7-64-7.3 4.6v.8l.2.3.7-.3c2.4-1.2 6.3-3.7 7.1-4.3q.2-.6-.2-1zm26.2 60.3c2 2.7 9 4 12.2 1.1h-.6l-1.9.5q-2 .4-3.8 0-1.9-.4-3.8-1.1-1-.5-2-.5m-145.4-19.4q-.9-.6-1-1.4c0-1.2 1.5-1.5 1.5-2.7q-1-.4-1.8.2-1.5.8-1.8 2.5.3 1 1.2 1.6.7.4 1.5.3z" fill="#1d1d1b" id="path34"/><g fill="#da2439" id="g37"><path class="st1" d="M333.9 296.7q1.1.1 2 .5 2 .7 3.9 1.1a12 12 0 0 0 5.7-.5h.6c-3.3 2.9-10.2 1.6-12.2-1.1" id="path35"/><path class="st1" d="m188.6 277.3-.3.5q-1 .2-1.6-.3-.8-.5-1.1-1.6c0-1.2.9-1.9 1.8-2.5q.7-.6 1.8-.2c-.1 1.2-1.5 1.5-1.6 2.7q0 .9 1 1.4" id="path36"/><path class="st1" d="M399.3 270.7q.3-.1.7.2 1 .7 1.7 1.6.8 1 0 2.4l-1.1.5c-.8-.2-1.5-.3-1.9-1.1.6-.7 1.7-.5 2-1.3q-.3-.9-1-1.6-.3-.2-.4-.7" id="path37"/></g><path class="st3" d="M311.7 238h-1q.2-.5.8-.5z" fill="#b9aea4" id="path38"/><path class="st1" d="m399.3 270.7-.6-.4q.5.1.6.4" fill="#da2439" id="path39"/><g fill="#866c5d" id="g44"><path class="st4" d="M308.6 224.1v-.9q.3.4 0 .9" id="path40"/><path class="st4" d="M206.5 168.6q-.4-.1-.6-.4-3.3-4-6.3-8.4c-1.1-1.7-2.9-3.7-4-5a79 79 0 0 0 15.8-4.6s-.3-.5-.7-3.5a312 312 0 0 1 35.7-8c7.9-2 14.6-6.9 21-11q2.5-1.7 5.1-3c1.2 1.3 1.1 3.8 2.1 5.2l-1.8 1.4-12 8.9c-1.7 1.4-2.3 2-4.8 1.8a5 5 0 0 0-2.9 2.4c.2 2.3.3 4.2-1.8 5.2l-4.6 3.3-7.5 5.6-2.8 2q-1.5 1-3.1.9l-4-.2-2 .1-1 .1q-2.4 0-4.5.9a92 92 0 0 0-8.6 3.6l-6.2 2.7z" id="path41"/><path class="st4" d="M391.4 155a83 83 0 0 1-7.7 15.8c-6.7-3-12.4-6.2-18.6-8.9l-3-.9q-3-.4-6-.5a11 11 0 0 1-5.7-2c-3.7-2.3-7-4.2-10-6.8a8 8 0 0 1-3-3.6q.4-.2.8 0l2.8 1.6c.3.2.5.5.8 0l-.4-.4q-1.6-1.4-3.4-2.5-3.6-2.7-7.2-5a357 357 0 0 0-14.4-9.5L299.5 121l-.6-.5v-.6l1.2-2.1.6-.8q.9-.2 1.3.2l2.1 1.4 27 17.5 9.8 6.2c2 1.2 3.8 1 5.6 1.2l.7.3c-1 1 24.6 2.7 27.4 2.7-2.9 4-3.6 4.2-2.5 4.7 8.8 1.2 21.4.6 19.3 3.7" id="path42"/><path class="st4" d="m362.7 71.7-1 .8A9659 9659 0 0 1 278 128l-2-4.3q-.6-1.2.5-1.7c24-15.8 60.5-39.3 83.3-52.4q.7-.5 1.7-.4 1 .8 1.1 2.6" id="path43"/><path class="st4" d="M224.3 71.9c.5-1.4 1.2-2.7 2.5-2.2 21.3 13.9 43.9 27.1 63.7 40.5 2.2 1.4.8 1.7-2.3 3.7-22-14.4-38.2-24.5-63.9-42" id="path44"/></g><g fill="#ffffff" id="g47"><path class="st5" d="M285.2 115.3q-27.2-17.5-53-34.6c.4-.8 1-1 1.6-1.7 18.7 10.1 35.5 23.4 51.7 33.8 2.6 1.5.8 2-.3 2.5" id="path45"/><path class="st5" d="M332.4 145.8c-18-11.5-20.5-12.7-37.8-24 .5-.8 2.2-1.3 2.8-1.9 17 11.2 19.2 13 35.4 23.4 2.6 1.6.8 2-.4 2.5" id="path46"/><path class="st5" d="m396.6 53.3-14.8 11.3c-6 3.8-11.2 9-16.4 11.3l-1.3-1.7c-2.7 1.3-5.3 3.8-7.9 5.1a2 2 0 0 1-.7-1.7q2.5-2.2 5.4-4l1.8-1.2q.8-.6 1.8-.7l1.4.7q1-.3 1.8-1l9.4-6.3 18.3-12.5 2.3-.9a4 4 0 0 1-1.1 1.6" id="path47"/></g><path class="st6" d="M352.7 143.3H350l-.4-.7-1.9-6-.4-1.3-.9-.4-4.6-1.7-1.2-.7-3-1-6 2.9h-.6c-.6-.3-1.4-.5-1.6-1.5l6.8-2.9.8-.3q1-.5 2 0l8 2.7 2.8 1.2 1 3.2 1 3.3z" fill="#999999" id="path48"/><path class="st5" d="M353.5 81.5a6544 6544 0 0 1-92.7 62.3q-.9-.7-1.2-1.8c.4-.7 87.7-59.3 92.6-62.4q1.2.6 1.3 1.9" fill="#ffffff" id="path49"/><path class="st6" d="m243.7 138.2-1.8.5q-.6-.3-.5-.7l.6-2 1.1-2.6 1.3-2.4q3.3-2.2 7.1-4 1.2-.6 2.6-.3l6.3 1.3q1 .2 1.7.6.2.6-.2.8l-1 .6-4-1.3c-1.3-.4-2.5-1.1-4.2-.7-2.2 1.3-5 2.4-7 4z" fill="#999999" id="path50"/><path class="st5" d="M329.2 149q.9.2 1-.6c.2 0 0-1.4 1-1.8.8-.3 1.3 1 2.1 1 .6.2 1.2 1 1.7 1.6.4 0 .5.2 1.2 1-1 1.4-1.7 3.1-2.8 4.2-.6.2-1.6-.4-2.4-.3l-.5.4c-1.6.4-2-1-2.4-1.7l-.1-.8a5 5 0 0 1-1.3-2.3c.5-.5.7-1.7 2.5-.7" fill="#ffffff" id="path51"/><path class="st5" d="M229 76.2q0 .8-.5 1.3c-2.5-1.5-6 .2-8.5-1.4l-26.7-20.2q.3-.7.9-1l24.5 15.9c3-1.6 8 3.6 10.4 5.4" fill="#ffffff" id="path52"/><path class="st0" d="m304.7 117.5 6.4 4.5 6.8 4.3 7.3 4.4 2.5 1.3.7.2 3-1.2 4.5-1.9q1.5-.7 3.1-.3l3.6 1.1q2.3.6 4.4 1.5l1 .5 2.3.9.3.5q1 2.4 1.6 4.9.5 2.4 1.5 4.8 1.5.6 3.1.7l3.5.5.4.1 3.7.3 5.4.8h1q1-.1 2.1.3h.4q2.5 0 4.9.6h.4q2.2 0 4.3.5h.4q2 0 4 .3l5.3.6 4 .6 1 .3q.3.6.2 1.4a31 31 0 0 1-1.5 6.7A68 68 0 0 1 391 168l-2.4 3.9q-1.4 2-3 3.4-.9.7-1.6 1-2 .2-3.4-.5l-5.3-2-3.6-1.6-4.2-2A139 139 0 0 1 355 163l-8.7-5.8-8.1-5.2q-.7-.5-1.6-.7c-1.4 1-1.7 2.8-3 4l-1.4.1q-1 .4-1.8 1.1-.8.6-2 .9-1-.1-1.7-1c-.4-1.2 0-2.5.3-3.7-.7-1.4-1.8-2.6-1.4-4.3q1.2-1.7 3.5-1.6 0-1-.6-1.6-1.2 0-2.2.2a15 15 0 0 1-5.6.6c-1-.4-1-1.2-1-2l-.1-1.9v-2.4q-1-1.3-2.3-1.9l-3.7-2.3-3.7-2.5-9.5-6.1-5-3.1q-.7-.7-2.2-.3l-11.4 7.6q-6 3.8-11.5 7.8c-.7 1.6-.2 3.1-.5 4.5q-.6.9-1.6 1.3c-1.4-.2-2.5-1.1-3.5-1.9-.8 0-1.3.6-1.8.9l-1.5 1.2q0 .9.6 1.3c.9.5 1.3-.5 2-.4q.9.4 1.2 1.5.6.6.4 1.5l-1.8 1.6.4 2.3-1.2 1.1q-1.6 1.3-3.7 2.1-.7.3-1.5.1a21 21 0 0 1-3.7-5.3q-.4-.5-1.4-.2-1.8 1.3-3.7 3l-.2.2-7.6 5.6a88 88 0 0 1-10.2 6l-9 4.1-9 3.7q-3 1.3-6 2.1l-1.3.1q-1.3-.5-2-1.2l-4.3-4.4a42 42 0 0 1-6.7-10.7q-1.1-2.4-1.8-5c-.3-1.1-.1-2.1-.2-3q.3-.7.8-.9 1.9-.6 3.8-.9l2.5-.6 6.6-1.4 5.8-1.3q1.7-.5 3.6-.7l2.5-.6 5.5-1.1 3.6-.8 5.5-1.2 7.6-1.7.9-.3q1.3-.3 1.5-1.5 1.2-3 2.6-5.9.6-1.3 1.9-2l4.8-2.7 2.3-1.1q1.9-.2 3.8.4l6 1.4.5.4h2q2-.5 3.6-1.7l5-3.2 4.9-3.3 3.3-2.2q1-.6 1.7-1.6l-.5-.7-3.4-2.3-9-5.8-6.8-4.6-9.7-6.3-6.1-3.9-3.6-2.5-4.6-3-4.5-2.9q-2.4-1.4-4.6-3l-3.7-2.4-1.1-.7-1.1-.5c-.6.5-.8 1.3-1.7 1.6l-1-.5-3.7-2.7-6.5-5-2.7-2-3-2.1q-1.8-1.6-4-3l-4.3-3.4q-1.9-1.2-3.6-2.8l-3.7-2.8q-3-2-5.6-4.3l-5.5-4.2-6-4.7-2.4-1.8-4.6-3.6-1.7-1.8c.2-.5.6-.3.8-.2q.8.3 1.5.8l14.8 9.7 7.8 5.3 4.7 3.2 5.2 3.6 8.2 5.5 7.6 5.2 2.7 1.8 1 .6 1.6-1.5c.8 0 1.3.7 2 .8q.8-.4 1.2-1.2.6-1 1.9-1.4l2.9 1.8 11.5 7.5 10 6.4 15.2 9.9 8.5 5.6 10.9 7.1 5.5 3.5 1.8 1.1 1 .4q.6-.1 1-.4l3.7-2.2 3.8-2.3 6.7-4.2 5.2-3.2 2.4-1.6 3.7-2.3q3.7-2.4 7.5-4.6l3.5-2.3 4.2-2.6 2-1.4 3.9-2.3q1.8-1.3 3.8-2.4 2.3-1.3 4.6-2.9t4.6-2.8l8-4.8q.5-.4 1.3-.3l.8.5q.8-.2 1.7-.8h.9l.4.4 1 1.4q.1.3.5.5l2.8-1.6 8.6-5.7 7.6-5 7.3-4.8 5.9-4.1 9-6 5.5-3.4 7-4.5.9-.4h.5q-.1.6-.5.9l-3 2.3-2.1 1.4-2 1.7-9 6.8-8.2 6.2-.1.1-2.6 1.9-2.6 2-2.6 2-6.7 4.8-6 4.4-9 6.6-3.5 2.6-1.2.7-1.6-.9-1 .6L342 91.2l-9 6-7 4.7-12.5 8.6-3.5 2.3-3.1 2.2-1.5 1.1-1.1 1c-.6-1 0 0 .4.4m6 14.5 1 .2q.3-.7.2-1.6l-.4-.6-2.2-1.7-10-7-1.5-.8c-1-.4-2 .6-2.8 1.4l1 .5c2.9 1.2 5 3.1 7.5 4.7 2.8 1.7 4.8 3 7.1 4.9m-92.1-57.4.2.2 1.3.9c.7-.5.7-.8 1.2-1.6q-4-3.2-8.7-6.2l-5.6-4-5.2-3.4c-2.8-1.7-5-4.2-7.8-5.1q0-.3-.3-.1l.2.2q.6 1 1.6 1.7l2 1.5c3 2.3 5.8 5 9 6.8 2.9 2.1 5 4.2 7.7 6.1 1.7.8 2.9 2.2 4.4 3m170.8 91.7q0 .3.3.7 0-.4.3-.6-.1-.5.4-.9.8-1 1-1.9l-.2-3.3.3-.1.4 1.2q-.1.4 0 .8.3.2.4 0l.2-.1q1-1.2.9-2.7v-3.6l.6.7q.1.6.7.8l.2-.3q.9-3.1 1.4-6.3l-.2-.6c-1.4-.1-2.4.9-3.6 1.1-.3-.6.5-.9.2-1.5l-.5-.3q-1.4.7-2.4 1.5c-.9.4-.8 0-.8 0l.6-.7q.5-.3.5-1c-1.1-.6-1.4-.6-2.4.4l-1 .8q-.3.4-1 .3l.3-.5q.5-.6.2-1.3-1-.5-1.7.4l-1.5.9q-.3 0-.2-.3t.2-.6c.5-.5.2-.8-.1-1.2q-.9-.2-1.3.5l-1 .7-.8.5-.4-.1v-.6l.2-.4q.3-.3.1-.8c-.5-.4-1-.7-1.7-.1q-1 .3-2 1.1l-.3-.3.3-1.1q-1-.6-1.7.3-1.5 1-2.5 2.5v.5l10.2 1q5.2.4 10.3 1.2v.6l-1 2.8-4.2 9.3q-.5 1.3-1.3 2.5l-1.4 2.4q0 .6-1 .8l-1.1-.5-11.2-5.5-6.6-3.3c-2.2-1.1-4.6-1-6.9-.8l-1 .3q-.5.1-.2.5l3.1.1 2.6.1q.4 0 .4.4l-.9.1-1.6.1q-1 0-1.6.6 1.6 1.4 3.7 1.3l4.5.1 1.8.1.3.2q-.4.4-.9.3H364q-.5 0-.9.2.8 1 1.7 1.1l5 .3v.6h-1.4l-.5.1q-.4-.2-.5.4l2.2 1.1 6.4-.1v.1l-3.8.8q.4.5.8.6l2.6 1.4q.9.6 2.1.3 2.4-.3 4.8-.3l1 .1q-1 .6-1.7.7t-1.6.3l.1.5q1 1 2.6 1.3 1.9-1.3 3.1-3.3v-2.5c1 .3.4 1.3 1.2 1.7 1-1.4 2.1-2.7 1.6-4.6l.6-.4.1.1zm7.9-114.2q-.8 0-1.5.7h-.3l-1.2 1-4 2.5q-1.1.6-2 1.5l-.5.2-10.6 7.1-9.4 6.3q-.7.7-1.8 1l-1.4-.7q-1 .1-1.8.7-.7.7-1.8 1.2a34 34 0 0 0-5.4 4q0 1 .7 1.6.9-.3 1.8-1l5-3.6q.5-.4 1.2-.4l1.2 1.6q1-.3 1.8-1l14.5-10.5 6.8-5.1.8-.5 5.9-4.5.7-.7.3-.3q0-.2.2-.2.7-.1.8-.9s.3 0 0-.2zM194.7 156.2q-.7-.2-1.1.1.1.8 1 1.1c.4.6 1.2.9 1.6 1.7l-.5.3-.9.1q.2 1 1 1.1l1.3 1c.4.4 1 .5 1.3 1.1l-.8.1h-.6q0 .9.6 1 .8.9 2 1.6l.8.7v.5l-.9.3.4.8a4 4 0 0 0 2 1l1.6 1.1v.4q-.7 0-1 .5a4 4 0 0 0 1.8 2.1l.3.2.5.6q.6.5 1.2-.4l2-2q0-.3.6-.2v.8q-.6.4-.2 1.1c.4-.4 1-.5 1-1.1l1.3-1.3q.4-.6 1-.7l.1 1.1q.9-.4 1.3-1.1c.4-.4.8-1.3 1.3-1.5.4.5-.4 1.3 0 1.7q.7-.3 1.4-1.2c.7-1 1-1.3 2-1.6l-.3 2 1.9-1.9 1.2-1.2.5-.1v1.1c.9-.4.9-.4 1.4-1.1l1-1 1.2-.5.3.9q1.3-.7 2-1.9l1.3-.3q.6.2 1.4 0l.3-.5q-.7-.9-1.4-.6l-2.3.1-.4.1a17 17 0 0 0-5 1.7l-13.3 5.6-1.4.5a5 5 0 0 1-2.5-1.9l-3.7-4.6-2.1-3q0-.3-.2-.3l-.8-1.4q0-.5-.3-.6l-1.1-2q0-.4-.3-.6l-.6-1.8.8-.4 1.9-.4 6.2-1.3 5.7-1.1 1.3-.5c0-1.3 0-2.5-1-3.5-1.2.3-2.4.2-3.4.9q0 1 .9 1.1.1.5-.4.7l-2.4-1.3-.6.3q0 .6.3 1.1l-.2.2-1.5-.8q-.7-.8-1.7-.3l.2 1.2h-.3l-1-.5a1 1 0 0 0-1.2-.2q-.2.6.3.7l.8 1.1-.2.2-.7-.1-2-.8c-.3-.5-.8-.3-1.2-.5l-.8.4.6.6.5.4-.3.4q-1.6 0-2.7-.6-1.3.3-1.3 1.7l.8 1.2zm61.5-7.1.1.4v.4l-.4.1v1.4q1.2 2.4 2.6 3.6c1.7-1 3.6-1.8 4.4-3.1l-.4-2.1c.5-.8 1.3-1.3 1.5-2.2q0-.7-.8-.8l-1.5.4c-1.2-.9-1.7-2.5-3-3.1q-.9.2-1.4.6-1.4.6-2.4 1.9.2 1.5 1.2 2.5m64.4-6.9v.8c-.3.7.1 1.2.3 1.9l1 .1q1 0 2.1-.4c.6-.2 1.4-.2 2-.9a6 6 0 0 0-2.3-1.9l-.9-.6q-.9-1-2.2-1.1-.4 1.3 0 2.1m-106.3 5.7-.6-.2-1.2-.7q-.8-.4-1.5-.1a4 4 0 0 0 1 1.9q1.2.8 2 1.6.8.6 1.7.7l.6-.4-.4-.8q-.4-.4-.6-.9l.1-.1.8.5q.8.7 2 1l.5-.5q0-.7-.7-1.3-1.3-1.6-3.3-2.4-.7-.4-1 0zm116.1 6.6.6-.6q.5-.1 1.1.2.5.4 1.2.3 1-.8 1.4-2 .2-.7.8-1.2l.2-.5.3-.5q-.4-.7-1-.9l-1.8-1.7c-.6-.3-1-.8-2-.6q-.7.4-1 1.4t-1 .7q-.6-.5-1.3-.3-.8.1-1 .8-.2.6.1 1.1l1.1 1.3a8 8 0 0 0 .1 3.7l.8.3q.9-.5 1.4-1.5m-54-22.8-.9-.5q-1.2.4-2 1.2l-7 4.8-6.4 4.3-.5.6a2 2 0 0 0 1.1 1.5l1.1-.7 13.8-9.2 1-.7q.5-.1.8-.8zm74.3-50.9-5.2 3.5L328 96l-18.5 12.4-15.2 10.2-13 8.8q-1.1.5-1.8 1.5l.3.6q0 .4.5.7.6 0 1-.7l1.2-.7 3-1.9 2.6-1.8 2.8-1.9 2.8-1.9 2.7-1.8 3-1.9 2.7-1.9 2.7-1.8 2.8-1.8 3.4-2.3 3.6-2.3 17.7-11.8L351 83.3l2.1-1.6.3-.2q-.4-1-1-1.6l-.4.2zm-144.3 87.8.7-.2 6.2-2.7q4.2-2 8.6-3.6 2.3-.9 4.5-.9l1-.1q1.1-.2 2.1-.1c1.3.3 2.6.1 4 .2a5 5 0 0 0 3-.9q1.6-1 2.8-2l7.5-5.6 4.6-3.3q1-.7 1.4-1.8c-.3-1.1.3-2.2.1-3.2l1.3-1.6 2-1h2l2.7-1.8 4-2.8 3.4-2.6 4.6-3.5q.8-.5 1.4-1.2v-.6l-1.5-3.7q0-.2-.3-.5l-.3-.2q-.7.1-1.2.5l-3.2 2.1-5.9 3.9-3.6 2.4-8.7 6-5.4 3.6-4 2.4q-5.9 3-12 5.4-3.9 1.6-7.8 2.9a90 90 0 0 1-17 4l-2.9.6-.8.4.1.5q3 4.3 6.3 8.4 0 .5.4.6m182.8-9.8-.7-.1-3-.2q-2.8 0-5.5-.3l-4.8-.3h-.2q-1-.3-2-.2h-1c-1-.4-2.1-.2-3.2-.5q-1.6-.1-2.8-.4c-1-.3-2 0-2.8-.5q-2.4-.2-4.6-.9-4.7-1-9-3.2l-3.8-2.2q-2.4-1.4-4.2-3.3l-.2-.6 2.5.3q2-1 3.4-2.5l-.7-.3-2-.1q-2 0-3.6-1.1l-10-6.2-8-5.2-2.1-1.4q-.6-.4-1.3-.2l-.6.8-1.2 2.1v.6l.6.5 4.7 3.1q4 2.3 7.8 4.9l7.3 5.3 3.4 2.6.4.5q-.5.4-1 0-1.3-.9-2.7-1.6-.3-.2-.7 0 .3 1.1 1.2 1.9l1.7 1.5 2.3 1.9 7.7 5q2.6 1.7 5.7 1.8 3 .2 5.9.6 1.5.2 3 .8l5.6 2.5 6 3.1 1.9.8q2.3 1.4 5 2.4l.6-.9 1.6-2.7 3-6q.4-.5.5-1.1zM351.5 79q-.2-1.7-1.2-2.7c-.6-.2-1.2.2-1.7.4l-3.2 2a136 136 0 0 0-9.6 6l-4.4 2.8q-3 1.7-5.7 3.6l-4.8 2.9-5.6 3.5-3.5 2.2-5.5 3.4-5.9 3.7-7 4.5q-3 2-5.9 3.7l-4.5 2.9-6.2 3.9-.8.9v.8l2.2 4.3 1-.6 1.6-1.2 13-8.5 22.5-15 7-4.7 11.6-7.7 7.3-4.9 8.2-5.5q.7-.3 1-.7m-117-.6c10 6.9 19.6 12.8 28.7 19l9.2 6 8.2 5.3 5.1 3.4q1.4 1 2.8 1.5a9 9 0 0 0 2.8-2.1q-.2-.8-.8-1l-6.8-4.5-6.3-4-9.7-6.1-9.3-5.9-10.3-6.6a204 204 0 0 0-11.8-7.2q-1.4.5-1.8 2.2m52.2 35.6-.9-.7-.7-.4q-.5-.6-1.2-1l-18.5-12.3-9.7-6.3-9.3-6.1-11.2-7.3q-.6-.5-1.4-.7l-.8.7-.8.7L239 85l6.5 4.3 6.7 4.3 6.5 4.3 6.7 4.3 6.7 4.3 6.6 4.2 6.6 4.3c.5-.1 1.3-.1 1.5-1m66 29.3-1-3.4-.9-3.3-1-3.2q-1.4-.7-2.9-1.2l-8-2.7q-1-.4-1.9 0l-.7.3-6.8 2.9c0 1 .9 1.2 1.6 1.5h.5l6-2.9 3 1q.8.3 1.3.7l4.6 1.7.9.4.4 1.3 1.9 6 .4.7zm-54-23.3.5.5 5 3.5 1.4.9 3.3 2.4 1.8 1.4q1.3.8 2.5 1.3c1-.8 1.2-2.1 2-2.9l-.1-.6-1.5-1.2-10.1-6.7q-.7-.6-2-.8-1.5.6-2.8 2.2m33.6 15.5q3 2.3 6.3 3.8c1.2-.9 2-2.2 3.5-2.9l1 .1.8.8q0 1-.2 1.8l-.4 1.2c-.1.6-.6 1.1-.4 1.7.7.1 4.2.2 4.8.1q.2 0 .5-.3-.8-2.7-2-5.4l-.8-.9-.8-.4-5.7-2.3h-1.4l-2.8 1.1q-1.3.5-2.4 1.6m-72.8-4.6a2 2 0 0 0-1.4-.9l-2.2-.6q-1.2-.3-2.2-.1-2.5.6-4.5 1.9a6 6 0 0 0-2.4 2.3l-1.2 2.4q-.5 1-.6 2.2v.3q2.3-.3 4.4-1.2l-.2-1a7 7 0 0 1 .2-3.5q0-.3.6-.6l2.7 2.6q1.3.1 2-.7 2.8-1.2 4.8-3.1m-16 7.2 2-6.1c2-1.6 4.8-2.7 7-4 1.7-.3 2.9.4 4.2.7l4 1.3 1-.6q.4-.2.2-.8-.8-.4-1.7-.6l-6.2-1.3q-1.5-.3-2.7.3a54 54 0 0 0-7 4q-.9 1.2-1.4 2.4l-1 2.6-.7 2q-.1.4.4.7zm72.3-3.9q.4 1 1 1.3l12.8 8.7q.2.4 1 .3l.5-.7.4-.8-.5-.4-7-4.6q-.9-.8-2.1-1.3-1.4-.6-2.3-1.5a9 9 0 0 0-2.4-1.6l-.6-.1zm37.7-60.4.9 2q0 .3.3.5l7.4-4.5.2-.5-.4-1-.8-.9q-3.8 1.8-7.7 4.4M225 71.7q1.7 2 3.9 3 .6.5 1.3.3c.3-.6 1-1.1 1-2a16 16 0 0 0-4.2-3h-.8zm145 75.2c-1-.2-1.3-.2-2.1.2q-1.7.7-3.2 1.9l-2.5 1.7q-.3.7 0 1.3.5.2 1.2-.1a18 18 0 0 0 4.6-2.9l1.6-1.4zm4-.1-1 .1q-.8.2-1.3.6-2 1.2-3.7 2.6a4 4 0 0 0-1.6 2.4q0 .2.2.2l.4.2c1.8-.5 3-1.8 4.6-2.9.7-1.1 2-1.7 2.4-3.2m-7.7-.6q-.8-.2-1.4.1l-1.3.5a16 16 0 0 0-5.3 3.9v.5l.5.1h.8c3-1.3 6-3.5 6.6-5.1M229 76.2q-3.5-2.6-7.1-4.9l-.6-.3q-.6.3-1 1l.8.6q3.5 2.6 7.3 4.9.5-.5.6-1.3m126 74.3c2.4-.4 4-1.6 5.9-2.9q1.3-1 1.5-1.9-.9-.2-1.6.1l-3.7 1.9q-1.3.8-2.3 2.1zm2.3-5.2c-4.5 2-4.8 2.2-6.1 3.7v.5q.9.3 1.4-.1 2.2-1 4.2-2.3a5 5 0 0 0 1.5-1.7zm-140.5.2a9 9 0 0 0 4.7 4.1q.4-.3.5-.9a13 13 0 0 0-4.3-3.5q-.6 0-1 .3m8 3.2q.3-1.2-.6-1.9-1.4-1.5-3.4-2.3l-1 .1v.3a9 9 0 0 0 4.2 3.8zm41-7.1q1 1.5 2.7 1.7l.7-.7c0-1.1.3-2.2-.7-3q-1.6.5-2.7 2m82.9 6.9q2.4-.4 4-1.8 1.3-.6 1.9-1.7c-.6-.5-1.1-.1-1.6.1q-2.5.8-4.3 2.7zm-121.1-1.4a12 12 0 0 0-3.6-3.2l-1 .1v.6c1.2 1.1 2 2.6 3.9 3zm-2-3.4c.9 1.8 2.5 2.7 4 3.7l.5-.6a8 8 0 0 0-4-3.4zm140.7 11.7q1.4.8 3.3.6.1-.7 0-1.6c-1-.2-2-.9-3.2-.5zm-130.6-10.5a7 7 0 0 0-3-2.8q-.5-.4-1.1-.1v.5q1.6 1.8 3.6 2.8zm-3 .8-.4-.8q-1.3-1.7-3.3-2.5l-.3.2-.3.2c.9 1.4 2.2 2.1 3.4 3zm112.4 1.2 1.2.1.8-.2q1.1-.6 1.9-1.4.5-.4.7-1c-.7-.4-1.2 0-1.8.2q-1.6.6-2.8 2.3m25.7 6.2q1.5.6 3 .4.7-.7.2-1.4c-1.1-.5-1.4-.6-3-.3zm-136-12-.7.1q0 .5.2.7 1.2 1.5 3 2.3l.5-.5q-1.1-1.7-3-2.6m5.3 2.3q-.1-.5-.4-.9l-2-1.7-.7-.3-.4.6q1.3 1.6 2.9 2.5zm133.5 11.8c-.8-.1-1.5-.6-2.4-.4l-.1.7v.8l1 .3h1.2l.3-.2zm-170.7-1.6-2 .2c0 .6-.2 1.2.3 1.7l1.5-.2.6-.3q.1-1-.4-1.4m159.2 1.2c.7.6 1.6.4 2.3.7q.6-.6.2-1.4-1-.6-2.2-.5-.3.4-.3 1.2m-148.6-3.3q-1.4 0-2.4.2-.2.9.4 1.5l2-.1zm147.3 3.1q.6-.7.3-1.5c-.7-.2-1.4-.6-2.1-.3q-.5.4-.3 1.2zm20.5 1.3H379l-.4.2v.9l.2.3c.8-.1 1.4.5 2.2.1zm-4-.2a6 6 0 0 0-2.2-.1v1.3c.9.1 1.6.6 2.3.1q.5-.6 0-1.3m11.6-.5h2.2c.2-.7.2-.7 0-1.4l-1.8-.3q-.6.8-.4 1.7m-9.8-2.7q-.2.9 0 1.6h2.3v-1.3zm-169.2 1.2q.2-.9-.2-1.6c-.7.1-1.4-.2-2.1.4v1.2q1.2.2 2.3 0m175-.2-.3-.4H383l-.4.2v.7l.1.4c1.4.5 1.8.5 2.2.3zm2.9 1.5q.5-.8.2-1.6l-1-.1h-1.3v1.3zm-183.5-1.9q-.4.8.5 1.4c.5-.2 1.3.2 1.9-.4l-.4-1.2q-1-.3-2 .2m181.5 3.3h-2.2l-.3.2q-.2.6.3 1.2 1 .1 2.2-.1zm-188.1-.4q1.3.2 2.2-.3l-.2-1.3q-1-.1-2.1.1zm179.9-2.5q.1-.8-.2-1.4h-2.1v1.4zm-160.4.4-.4-.8H215l-.3.7.3.6q1 .1 1.8-.1zm-13.6 2.2q-1.2-.1-2.2.1-.3.8.2 1.2c.7-.1 1.4.2 2-.4zm23.2-6.3c-.9.2-1.7-.2-2.4.4l.5 1h1.3l.5-.1q.5-.4 0-1.3m-22 6.8q1.4.3 2.2-.5 0-.5-.2-.9c-.8.1-1.5-.2-2 .5zm16.4-4.5q1.2.7 2.4-.2l-.2-.9q-1.2-.2-2.1.4zm20.9-10.2q-1-1.4-2.4-2h-.3l-.1.2q.7 1.2 2.2 2 .3 0 .5-.2M200.5 157h-1.8l-.6.3.4.8 2-.2zm9.6-2.3q-1-.1-2 .1l-.2.2q-.2.7.3 1l1.9-.3zm10.4-1.5-.2-1.1q-1-.1-2.1.1v.9zm9.9-4.4h-2q0 .3-.3.5l.4.5q.9.1 1.9-.1l.3-.6zm-19.1 5.4v.6l.3.1q1 .1 2-.1l-.2-1c-.7.1-1.5-.2-2.2.4m30.7-14.5 1.5.8h1q.4.1 1-.2a5 5 0 0 0-3.5-.6m-7 7.6c.6-.1 1 .1 1.4-.3l-.2-.9-1.3.1-.2.3zm-1.7 1.1-.3-1.1-1 .2q-.3.5 0 .9z" fill="#1d1d1b" id="path53"/><g fill="#ffffff" id="g56"><path class="st5" d="M265.8 141.6a5 5 0 0 1 2.7-2c1 .8.8 1.9.8 3l-.8.7a4 4 0 0 1-2.7-1.7" id="path54"/><path class="st5" d="M320.6 143c0-1-.4-1.5 0-2.9q1.4.1 2.2 1l.9.7q1.4.6 2.3 1.9-.9.8-2 1l-2.1.3-1-.1q-.5-.9-.4-1.9" id="path55"/><path class="st5" d="M328 152.7c2.2 1.8.2 1.6 2.5 1.8q-.4 1-1.4 1.5-.6-.1-1-.4-.9-.8 0-2.9" id="path56"/></g><path class="st3" d="M391 160.4v-.3l.3.1z" fill="#b9aea4" id="path57"/><path class="st4" d="m395.9 53.5.3-.3z" fill="#866c5d" id="path58"/><g fill="#1d1d1b" id="g64"><path class="st0" d="M306.9 215.3v-.2l.2.1z" id="path59"/><path class="st0" d="m199.5 150.9.2.3-.4-.1z" stroke-width="0.94085" id="path60"/><path class="st0" d="m204 148.9.4.6q-.2.3-.5.2z" id="path61"/><path class="st0" d="m214.7 168.3.3.3c-.2 0-.2.5-.3.5z" id="path62"/><path class="st0" d="m214.5 147.9.2.1-.2.1z" id="path63"/><path class="st0" d="M215.5 149.1q-.2-.1-.2-.3l.3.1z" id="path64"/></g></g><!-- app4joy --></svg>