<svg width="262.305" height="125.391" viewBox="0 0 262.305 125.391" id="svg1" xmlns="http://www.w3.org/2000/svg"><g id="g2"><path id="path1592" d="M.4.4h261.5L193.1 125H.4Z" style="display:inline;fill:none;fill-opacity:1;stroke:#000000;stroke-width:0.770935;stroke-linecap:round;stroke-linejoin:round;stroke-miterlimit:4;stroke-dasharray:none;stroke-opacity:1"/><path style="fill:#e3001b;fill-opacity:1;stroke-width:1.35412" id="rect1" d="M.8.7h115.8v123.9H.8z"/></g><g id="g3532" transform="translate(113.9 6.8)scale(.22708)"><path style="display:inline;fill:none;fill-opacity:0.75;fill-rule:evenodd;stroke:#000000;stroke-width:0.59394px;stroke-linecap:butt;stroke-linejoin:miter;stroke-opacity:1" d="M-303.8 73.7c-.2 0-.5 0 0 0z" id="path2893"/><g id="g2895" transform="matrix(.55625 0 0 .63418 -49.4 20)"><a style="fill:none;fill-opacity:1" id="a2897">
        <path style="fill:#000000;fill-opacity:1;fill-rule:evenodd;stroke:none;stroke-width:1px;stroke-linecap:butt;stroke-linejoin:miter;stroke-opacity:1" d="M-457.9 94.7C-469 84-470 62.7-461.2 50c8.7-12.7 20.8-15.1 35.4-9.8 7.8 6 15 10.1 21.4 20.2 4-3.1 7.5-3 12.5 2.4 50.4-10.7 75.4 32.7 72.4 61.8-2.3 20.8-7.6 42.6 1.5 59.5a132 132 0 0 1 15 45.3c37.9-4.5 71.8-17 99.5-41.5 10.6-4.3 6.8-10.3 1.5-16.6-24.4-16.1-26.5-77.7 31.7-86.6 45.4-5.3 81.2 20.1 89 85.1 1.3 38.2-6.1 77.1-20.4 114.6-6.4 64.7-25.6 104-46 147a42 42 0 0 0-10.5 25.5q-12.9 9-16.6 0l-9-15c-13.1 9.6-23.5-9.6-34.7-20.4-16 15.4-26.3-5-38.5-13.5l-15 2.2 18.8 24.1-14.3 6.8c-2.2 7.3 4.3 14.6 12 21.9 7.3 7.4 12.8 4.4 18.1 0 7.8-8.1 17-14.2 34.7-8.3 21.4 1 19.5 13.6 21.8 24h-65.5l61 .8c7.9 15.4 3.7 27.6-10.5 37l-9-15.1-14.4-.8 6.8 12.1c6.2 27-10.2 34-20.4 37.7 6.5-12.7 4.4-20-5.2-22.6-19.5-6-18.5-11.3-20.4-21.1-6.3-6.7-8-22.5-25.6-6.8-9.5 4.6-19.5 12-27.1 5.3-3.3 4.5-9.5 7.5-5.3 15.8-14.7-1.5-28.8-32.8-.7-37 8.9-8.7 20.9-5.1 31.6-6.7V469c-2.5-4.3-3.8-7.8-21.9-21.9l-7.5 17.4c-15.6-7.6-19.6-26.6-25.6-43.7-8 8.6-16.4 17.2-6.8 27.8q23 23.4-5.3 43.8c-7.1 73 47.3 94.6 85.2 62.5 8.5 36.8-1.5 59.9-39.2 62.5 1 11.6-1.4 21.5-4.4 31.1a52 52 0 0 1-34.8-5.4 149 149 0 0 1-37 46.7 188 188 0 0 1-35.3-46.7c-19 5.8-18.5 6.6-32.7 6.5-2.8-11-4-12.4-4.3-33-45.6.6-52.9-32-42.9-58 48.5 24.6 84.9 13.1 87.4-67.8-15-8.8-21.5-30-4.5-38.4.8-7.7 3.4-19.8-5.3-25.6a56 56 0 0 0-17.3 36.2c-8.3 1-13-5.2-17.4-12.1-12.8 5.3-23.1 12.3-24 25.6 8.9 3.4 30.3-2 34.6 6.8 24.2 4 22.3 24.3 3.8 37 1.6-6.2 2.1-6.5-7.6-9.9-18.4 7.6-22.1-13.2-32.4-14.3-7.5-3.3-10.7-.2-14.3 2.3-22.7 5.3-3.8 25.8-30.9 33.1l1.5 15.9c-18-1.7-31.3-11.9-18.8-34.7l1.5-7.5c-16.5-8.1-19.2 4.3-24.1 13.5-15-9.2-22.8-22.7-9-34.6-8.8-25.3 9.4-30.2 25.6-29.4 11.4-1.2 21.4 9 30.8 10.5 15 6 23.2-7.2 27.2-24.8-4.5 1.1-9 2.4-17.4-2.3 6.4-8.5 13.4-17 15.9-25.6-14.6 7-13.1-.1-12-6.8-13.1 12.9-30.7 32.3-37 13.6-6.5 15.7-25.9 35.2-34.7 20.3-3.2 16.1-11.6 25.6-20.3 27.9-12.1-30-59.3-103.6-61.8-177.1-22.8-60.3-43.6-198.2 60.3-205 51.9-4.8 82.4 53.3 36.1 91.2-1 4.3-2.2 8.5 4.6 12.8 20.7 15.4 62.4 43 107 39.2a63 63 0 0 1 24.9-36.9c3.4-9.1 10.2-20.4 18.8-24.1q10.7-7.2 3-10.6c-21.7-12.8-24.9-46.8-41.5-65.5-4.7-7.5-10.4-7-12.5 3" id="path2899"/>
      </a><g id="g2901"><g id="g2903"><path id="path2905" d="M-459.4 81.4c-5.9-16.9 3-40.7 23-38.3 12.3 4 29 16.8 30.5 23.4 3.6-7.4 8.9-3.4 8.1 2-3.2 14.4-6.7 31.5-2 43.5 1.7 12 20.6 16 10.2 34.6-11.1 3.6-19.3-1.3-24.9-13.6-10.3-18.4-20.5-36.9-32.4-49a4.6 4.6 0 0 1 6-6c13.1 15.3 27 29.8 34 50.5 2.1 12.9 14.8 13.6 14.5 2.1-18.4-16-11.5-24.2-18.5-33-6-7.6-13.4-8-22-21.3-8.7-15.4-24.7-5.3-26.5 5.1z" style="fill:#ffee00;fill-opacity:1;fill-rule:evenodd;stroke:#ffee00;stroke-width:1px;stroke-linecap:butt;stroke-linejoin:miter;stroke-opacity:1"/><path id="path2907" d="M-327.3 110.8c-7-20.6-19.1-48-59.5-43.4-8.3.6-9.5 8-4.2 14.1 20.1 3 34.3 14.7 32.6 34.3-5.2 3.6-15 4.8-25.2-1.3-9.4-5.1-8.6-12.1-7.4-22.6.6-5.7-4.7-1.7-4.6-.7-5.7 21.6 5.9 25.5 10.6 37.9 4.3 11.1 4.1 20.2-12.6 23.2-.7 6.9 3.7 10-1.3 13.6-14 9.9-16.3 16.7-20.7 22 20 2.3 31.2-8 41.3-11.6 2 6 1.5 10.6 6.9 15 11-3.5 11.7-8.1 18-14.3 4.3 8 4.9 17 29.8 10.8-15.2-31.6 3.2-56.8-3.7-77" style="fill:#ffffff;fill-opacity:1;fill-rule:evenodd;stroke:none;stroke-width:1px;stroke-linecap:butt;stroke-linejoin:miter;stroke-opacity:1"/><path id="path2909" d="M-442.1 224.6c24.9 3.5 30-14.2 31.3-27.6 0-1-11.4 12.8-11.4 12-1-.4 7.8-15.3 6.7-15.2-10.4 1-26.4 17.1-26.6 30.8" style="fill:#ffffff;fill-opacity:1;fill-rule:evenodd;stroke:none;stroke-width:1px;stroke-linecap:butt;stroke-linejoin:miter;stroke-opacity:1"/><path style="fill:#ffffff;fill-opacity:1;fill-rule:evenodd;stroke:none;stroke-width:1px;stroke-linecap:butt;stroke-linejoin:miter;stroke-opacity:1" d="M-313.3 224.7c-27-2.5-24.4-11.5-18.3-31.2.2-.5 6.6 18.8 6.8 18.2.6 0-1-16.6-2-20 9.5 2.5 17.2 22.2 13.5 33" id="path2911"/><g id="g2913"><g id="g2915"><path id="path2917" d="M-591.8 116.2c-7.7-2.5-11.3 3-12.6 8.9-3.4-2.5-13.6-4.2-16.8 4.3s6.3 14.9 13.1 13.7a87 87 0 0 0-10.2 40.2c5.2 62.8 102 80 162.2 85.8l-.6-12c-76.8-1.5-148.3-35.6-150.5-73.5a77 77 0 0 1 7.8-37.6c3.1 3.9 14.3 6.2 18-1.5a9.3 9.3 0 0 0-7.5-14c3-3 4.7-11.6-3-14.3" style="opacity:1;fill:#ffee00;fill-opacity:1;fill-rule:nonzero;stroke:none;stroke-width:2.83465;stroke-linecap:round;stroke-linejoin:round;stroke-miterlimit:4;stroke-dasharray:none;stroke-dashoffset:0;stroke-opacity:1"/><path id="path2919" d="M-455.1 234.9c4.3 7-.6 14.1-2.1 18.2-52.7.5-106.7-20.5-123.2-36-24-19.2-26.8-34.5-19-55.5 2.3-7.8 6.8-8.8 12-7.7 10.7 1.4 17-13.6 7-25a14 14 0 0 0-26-10.8c-23-2.5-25 20.6-10.3 28 2.6 5.1-.6 9-1.6 12.1-14.7 45.2 11.5 56 11.2 70.6.8 29.4-4.4 33-14.6 36.3-10.8-5.7-9.5-14.3-14.7-30.5-1.4 28.6-1.7 45.8-15.3 48.5-12.3-34.2-33.6-106.9 2.2-161.8 24.5-35.7 83.7-35.6 94.5-8.3 12.1 28-.7 46.4-11.6 57.3-4 6.4-6.5 14 2.8 21.8 28.1 29.6 87.7 44.3 108.7 42.8" style="fill:#ffffff;fill-opacity:1;fill-rule:evenodd;stroke:none;stroke-width:1px;stroke-linecap:butt;stroke-linejoin:miter;stroke-opacity:1"/><g id="g2921"><path style="fill:#ffffff;fill-opacity:1;fill-rule:evenodd;stroke:none;stroke-width:1px;stroke-linecap:butt;stroke-linejoin:miter;stroke-opacity:1" d="M-601.2 229.3c-4.1 8.2-2.4 38 13.1 45.5 13.3-5.8 11.6-17.5 10.8-28.4-8-4.4-16-9.7-23.9-17" id="path2923"/><path style="fill:#f7f7ff;fill-opacity:1;fill-rule:evenodd;stroke:none;stroke-width:1px;stroke-linecap:butt;stroke-linejoin:miter;stroke-opacity:1" d="M-572.4 248.8c.2 12-1.3 27.7 10.8 32.6 12.4-4.5 11.7-17 12-24.1-7.7-2.2-15.9-5.6-22.8-8.5" id="path2925"/><path style="fill:#f7f7ff;fill-opacity:1;fill-rule:evenodd;stroke:none;stroke-width:1px;stroke-linecap:butt;stroke-linejoin:miter;stroke-opacity:1" d="M-544 259.5c-.4 10.1.7 23.2 10.1 29.7 6.4-2.7 10.8-10.5 12.2-23.7q-10.9-2.7-22.4-6" id="path2927"/><path style="fill:#f7f7ff;fill-opacity:1;fill-rule:evenodd;stroke:none;stroke-width:1px;stroke-linecap:butt;stroke-linejoin:miter;stroke-opacity:1" d="M-518.3 266c-.8 10.5 1 23.3 9.3 26.2 6.8-.5 9.3-9.8 9.8-22.8a139 139 0 0 1-19-3.5" id="path2929"/><path id="path2931" d="M-493.2 270.7c-.7 10.6.1 21.5 8.4 24.4 6.8-.5 8.8-9.4 9.3-22.4-5.6-.4-12.5-.8-17.7-2" style="fill:#f7f7ff;fill-opacity:1;fill-rule:evenodd;stroke:none;stroke-width:1px;stroke-linecap:butt;stroke-linejoin:miter;stroke-opacity:1"/><path style="fill:#f7f7ff;fill-opacity:1;fill-rule:evenodd;stroke:none;stroke-width:1px;stroke-linecap:butt;stroke-linejoin:miter;stroke-opacity:1" d="M-471.3 273.3c-.8 10.5-.7 19.5 7.7 22.4 6.8-.5 7.7-9 8.2-22-7.1.2-10.7-.3-15.9-.4" id="path2933"/><g id="g2935" transform="translate(-750 3.3)"><path id="path2937" d="M127.6 184.9a212 212 0 0 0 2.2 59.9c3-3 3-33.5 3.9-41.8-3.8-6.6-4.4-10-6-18.1" style="fill:#000000;fill-opacity:1;fill-rule:evenodd;stroke:none;stroke-width:1px;stroke-linecap:butt;stroke-linejoin:miter;stroke-opacity:1"/><path id="path2939" d="M158.2 233.7c.2 5.7-.1 18.5 4 23.4 2.5-3.5 2.7-12.8 3-18.4z" style="fill:#000000;fill-opacity:1;fill-rule:evenodd;stroke:none;stroke-width:1px;stroke-linecap:butt;stroke-linejoin:miter;stroke-opacity:1"/><path style="fill:#000000;fill-opacity:1;fill-rule:evenodd;stroke:none;stroke-width:1px;stroke-linecap:butt;stroke-linejoin:miter;stroke-opacity:1" d="M186.8 249.2c.6 5.5-.7 13.4 2.1 18.5a39 39 0 0 0 3.8-16.2z" id="path2941"/><path id="path2943" d="M214.7 258.6c.7 5.6.6 10.7 2.3 16.3 3.4-3.4 3-10.4 4.2-14.6z" style="fill:#000000;fill-opacity:1;fill-rule:evenodd;stroke:none;stroke-width:1px;stroke-linecap:butt;stroke-linejoin:miter;stroke-opacity:1"/><path style="fill:#000000;fill-opacity:1;fill-rule:evenodd;stroke:none;stroke-width:1px;stroke-linecap:butt;stroke-linejoin:miter;stroke-opacity:1" d="M263.5 268.5q0 6.3 2.1 14.5c2.2-2.7 3-9.6 3.3-14.1z" id="path2945"/><path id="path2947" d="M284 270.1c.5 5.6.5 8 3 13.7 3-2.5 2-9.4 2.8-13.4z" style="fill:#000000;fill-opacity:1;fill-rule:evenodd;stroke:none;stroke-width:1px;stroke-linecap:butt;stroke-linejoin:miter;stroke-opacity:1"/><path style="fill:#000000;fill-opacity:1;fill-rule:evenodd;stroke:none;stroke-width:1px;stroke-linecap:butt;stroke-linejoin:miter;stroke-opacity:1" d="M239.7 264c0 5-2 11.2 1.7 16.8 1.9-3 3.4-11.6 3.7-15.5z" id="path2949"/></g><path style="fill:none;fill-opacity:0.75;fill-rule:evenodd;stroke:#000000;stroke-width:1px;stroke-linecap:butt;stroke-linejoin:miter;stroke-opacity:1" d="M-515.9 267.3z" id="path2951"/></g></g><g id="g2953"><path id="path2955" d="M-606.5 260.7c4.9 65.3 38.6 167.2 18.4 188.7-2.4 7.8-4.8 5.2-7.2 4.4-13.5-30.5-47-85.8-56-165 8.9-.3 14.8-10 17.5-18.9 9.7 45.8 16.5 93.8 31.2 130.4-12-42.3-19-89.8-27.3-133.8 8.6 5 17.5.8 23.4-5.8" style="fill:#ffffff;fill-opacity:1;fill-rule:evenodd;stroke:none;stroke-width:1px;stroke-linecap:butt;stroke-linejoin:miter;stroke-opacity:1"/><path id="path2957" d="M-577.8 273.8c-3.3 3-7 4.7-9.8 7a23 23 0 0 1-9.7-4.6c6.5 53 26.7 114.4 24.8 156.2 6.3 12.7 28-12 27.7-31.2l-5.3-120c-4 1.8-8 2.4-11.7 5.4-6-2.9-7-3.4-9.7-8l9.7 111.5z" style="fill:#ffffff;fill-opacity:1;fill-rule:evenodd;stroke:none;stroke-width:1px;stroke-linecap:butt;stroke-linejoin:miter;stroke-opacity:1"/><path id="path2959" d="m-543.3 288.9 10 6.5 9.8-6.7 2.8 88 2-84.5 9 6 8.2-4c0 29.3.4 58.4-1.3 88.1-3 16.4-14 28-28.2 35-12.6-.8-6-87.9-12.3-128.4" style="fill:#ffffff;fill-opacity:1;fill-rule:evenodd;stroke:none;stroke-width:1px;stroke-linecap:butt;stroke-linejoin:miter;stroke-opacity:1"/><path id="path2961" d="M-493.2 296c6 5.8 10.3 6.5 14.8 1.1l-1.2 67.3 7.3-67.3c4.5 1.7 9.2 5.5 13 2.8l-1.3 49c-.5 19.7-11.5 51.4-31.2 53.6-12-5.2 4-4.8-1.4-106.5" style="fill:#ffffff;fill-opacity:1;fill-rule:evenodd;stroke:none;stroke-width:1px;stroke-linecap:butt;stroke-linejoin:miter;stroke-opacity:1"/></g></g><g id="g2963"><g id="g2965"><path style="opacity:1;fill:#ffee00;fill-opacity:1;fill-rule:nonzero;stroke:none;stroke-width:2.83465;stroke-linecap:round;stroke-linejoin:round;stroke-miterlimit:4;stroke-dasharray:none;stroke-dashoffset:0;stroke-opacity:1" d="M-168.8 116.2c7.6-2.5 11.3 3 12.6 8.9 3.4-2.5 13.6-4.2 16.7 4.3 3.3 8.6-6.2 14.9-13 13.7a87 87 0 0 1 10.2 40.2c-5.3 62.8-102 80-162.2 85.8l.5-12c76.9-1.5 148.4-35.6 150.5-73.5a77 77 0 0 0-7.7-37.6c-3.1 3.9-14.3 6.2-18-1.5a9.3 9.3 0 0 1 7.5-14c-3.1-3-4.7-11.6 2.9-14.3" id="path2967"/><path style="fill:#ffffff;fill-opacity:1;fill-rule:evenodd;stroke:#000000;stroke-width:1px;stroke-linecap:butt;stroke-linejoin:miter;stroke-opacity:1" d="M-302.2 234.7c-4.3 7-.6 12.6 1 16.7 52.7.5 106.6-20.5 123.2-36 21.8-18.7 25.6-33.4 17.8-54.4-2.2-7.8-5.6-10-10.9-8.8-10.6 1.4-16.9-13.6-6.8-25a14 14 0 0 1 25.8-10.8c23-2.5 25.1 20.6 10.4 28-2.7 5.1.6 9 1.6 12.1 14.7 45.2-12.1 56.5-12.4 67.8-2 22 2.7 36.4 15.8 39C-126 257.7-126 244-122 233c-1.5 28 1.7 45.2 15.3 48 12.2-34.3 33.6-106.4-2.2-161.4-22.8-40.2-84.8-34.3-95.7-7-12 28-1 45.2 12.7 57.8 4.1 6.4 5.4 11.1-3.9 19-28.1 29.5-85.5 46.9-106.4 45.4z" id="path2969"/><g transform="matrix(-1 0 0 1 -759.5 0)" id="g2971"><path id="path2973" d="M-601.2 229.3c-4.1 8.2-2.4 38 13.1 45.5 13.3-5.8 11.6-17.5 10.8-28.4-8-4.4-16-9.7-23.9-17" style="fill:#ffffff;fill-opacity:1;fill-rule:evenodd;stroke:none;stroke-width:1px;stroke-linecap:butt;stroke-linejoin:miter;stroke-opacity:1"/><path id="path2975" d="M-572.4 248.8c.2 12-1.3 27.7 10.8 32.6 12.4-4.5 11.7-17 12-24.1-7.7-2.2-15.9-5.6-22.8-8.5" style="fill:#f7f7ff;fill-opacity:1;fill-rule:evenodd;stroke:none;stroke-width:1px;stroke-linecap:butt;stroke-linejoin:miter;stroke-opacity:1"/><path id="path2977" d="M-544 259.5c-.4 10.1.7 23.2 10.1 29.7 6.4-2.7 10.8-10.5 12.2-23.7q-10.9-2.7-22.4-6" style="fill:#f7f7ff;fill-opacity:1;fill-rule:evenodd;stroke:none;stroke-width:1px;stroke-linecap:butt;stroke-linejoin:miter;stroke-opacity:1"/><path id="path2979" d="M-518.3 266c-.8 10.5 1 23.3 9.3 26.2 6.8-.5 9.3-9.8 9.8-22.8a139 139 0 0 1-19-3.5" style="fill:#f7f7ff;fill-opacity:1;fill-rule:evenodd;stroke:none;stroke-width:1px;stroke-linecap:butt;stroke-linejoin:miter;stroke-opacity:1"/><path style="fill:#f7f7ff;fill-opacity:1;fill-rule:evenodd;stroke:none;stroke-width:1px;stroke-linecap:butt;stroke-linejoin:miter;stroke-opacity:1" d="M-493.2 270.7c-.7 10.6.1 21.5 8.4 24.4 6.8-.5 8.8-9.4 9.3-22.4-5.6-.4-12.5-.8-17.7-2" id="path2981"/><path id="path2983" d="M-471.3 273.3c-.8 10.5-.7 19.5 7.7 22.4 6.8-.5 7.7-9 8.2-22-7.1.2-10.7-.3-15.9-.4" style="fill:#f7f7ff;fill-opacity:1;fill-rule:evenodd;stroke:none;stroke-width:1px;stroke-linecap:butt;stroke-linejoin:miter;stroke-opacity:1"/><g transform="translate(-750 3.3)" id="g2985"><path style="fill:#000000;fill-opacity:1;fill-rule:evenodd;stroke:none;stroke-width:1px;stroke-linecap:butt;stroke-linejoin:miter;stroke-opacity:1" d="M129.3 188c-3.3 16.2-2.2 41.8.8 53.3 3-3 4-25.4 5-33.7-3.8-6.5-4-11.3-5.8-19.5" id="path2987"/><path style="fill:#000000;fill-opacity:1;fill-rule:evenodd;stroke:none;stroke-width:1px;stroke-linecap:butt;stroke-linejoin:miter;stroke-opacity:1" d="M159 234.6c.2 5.8-1.2 18 3 23 2.4-3.5 2.9-13.3 3.3-18.9z" id="path2989"/><path id="path2991" d="M186.8 249.2c.6 5.5.1 14.1 3 19.2a46 46 0 0 0 3-16.9z" style="fill:#000000;fill-opacity:1;fill-rule:evenodd;stroke:none;stroke-width:1px;stroke-linecap:butt;stroke-linejoin:miter;stroke-opacity:1"/><path style="fill:#000000;fill-opacity:1;fill-rule:evenodd;stroke:none;stroke-width:1px;stroke-linecap:butt;stroke-linejoin:miter;stroke-opacity:1" d="M214.7 258.6c.7 5.6-.8 12 2.9 17.5 3.4-3.4 2.4-11.6 3.6-15.8z" id="path2993"/><path id="path2995" d="M263.5 268.5c0 4.2-.5 9.8 2.4 14 2.2-2.7 2.6-9.1 3-13.6z" style="fill:#000000;fill-opacity:1;fill-rule:evenodd;stroke:none;stroke-width:1px;stroke-linecap:butt;stroke-linejoin:miter;stroke-opacity:1"/><path style="fill:#000000;fill-opacity:1;fill-rule:evenodd;stroke:none;stroke-width:1px;stroke-linecap:butt;stroke-linejoin:miter;stroke-opacity:1" d="M285.6 269.9c.6 5.5-2.5 9.1 1.1 14.6 3-2.4 2.3-10 3.1-14.1z" id="path2997"/><path id="path2999" d="M239.7 264c0 5-1.4 11.5 2.3 17a48 48 0 0 0 3-15.7z" style="fill:#000000;fill-opacity:1;fill-rule:evenodd;stroke:none;stroke-width:1px;stroke-linecap:butt;stroke-linejoin:miter;stroke-opacity:1"/></g><path id="path3001" d="M-515.9 267.3z" style="fill:none;fill-opacity:0.75;fill-rule:evenodd;stroke:#000000;stroke-width:1px;stroke-linecap:butt;stroke-linejoin:miter;stroke-opacity:1"/></g></g><g id="g3003" transform="matrix(-1 0 0 1 -760.3 .4)"><path style="fill:#ffffff;fill-opacity:1;fill-rule:evenodd;stroke:none;stroke-width:1px;stroke-linecap:butt;stroke-linejoin:miter;stroke-opacity:1" d="M-606.5 260.7c4.9 65.3 38.6 167.2 18.4 188.7-2.4 7.8-4.8 5.2-7.2 4.4-13.5-30.5-47-85.8-56-165 8.9-.3 14.8-10 17.5-18.9 9.7 45.8 16.5 93.8 31.2 130.4-12-42.3-19-89.8-27.3-133.8 8.6 5 17.5.8 23.4-5.8" id="path3005"/><path style="fill:#ffffff;fill-opacity:1;fill-rule:evenodd;stroke:none;stroke-width:1px;stroke-linecap:butt;stroke-linejoin:miter;stroke-opacity:1" d="M-577.8 273.8c-3.3 3-7 4.7-9.8 7a23 23 0 0 1-9.7-4.6c6.5 53 26.7 114.4 24.8 156.2 6.3 12.7 28-12 27.7-31.2l-5.3-120c-4 1.8-8 2.4-11.7 5.4-6-2.9-7-3.4-9.7-8l9.7 111.5z" id="path3007"/><path style="fill:#ffffff;fill-opacity:1;fill-rule:evenodd;stroke:none;stroke-width:1px;stroke-linecap:butt;stroke-linejoin:miter;stroke-opacity:1" d="m-543.3 288.9 10 6.5 9.8-6.7 2.8 88 2-84.5 9 6 8.2-4c0 29.3.4 58.4-1.3 88.1-3 16.4-14 28-28.2 35-12.6-.8-6-87.9-12.3-128.4" id="path3009"/><path style="fill:#ffffff;fill-opacity:1;fill-rule:evenodd;stroke:none;stroke-width:1px;stroke-linecap:butt;stroke-linejoin:miter;stroke-opacity:1" d="M-493.2 296c6 5.8 10.3 6.5 14.8 1.1l-1.2 67.3 7.3-67.3c4.5 1.7 9.2 5.5 13 2.8l-1.3 49c-.5 19.7-11.5 51.4-31.2 53.6-12-5.2 4-4.8-1.4-106.5" id="path3011"/></g></g><g id="g3013"><path style="fill:#ffee00;fill-opacity:1;fill-rule:evenodd;stroke:none;stroke-width:2.83465;stroke-linecap:butt;stroke-linejoin:miter;stroke-miterlimit:4;stroke-dasharray:none;stroke-opacity:1" d="M-441.1 489.7c11.2 1.8 10.8 15 3.2 20.8-1-5.2-5.1-5-7.6-5.4-3.5-7.7-1.2-12.4 4.4-15.4" id="path3015"/><path style="fill:#ffee00;fill-opacity:1;fill-rule:evenodd;stroke:none;stroke-width:0.585;stroke-linecap:butt;stroke-linejoin:miter;stroke-miterlimit:4;stroke-dasharray:none;stroke-opacity:1" d="M-537.6 516.7c7 .2 9.3 2.2 11.7 9.8q-8.1 2.6-6.4 12.6a12.7 12.7 0 0 1-5.3-22.4" id="path3017"/><path style="fill:#ffee00;fill-opacity:1;fill-rule:evenodd;stroke:none;stroke-width:2.83465;stroke-linecap:butt;stroke-linejoin:miter;stroke-miterlimit:4;stroke-dasharray:none;stroke-opacity:1" d="M-558.4 485.2c2.7 4.3 4.4 6.8 2 12.6-7.1 3.2-11.4 3.5-12 8.2-6.6-4-9.2-21.5 10-20.8" id="path3019"/><path style="fill:#ffee00;fill-opacity:1;fill-rule:evenodd;stroke:none;stroke-width:0.585;stroke-linecap:butt;stroke-linejoin:miter;stroke-miterlimit:4;stroke-dasharray:none;stroke-opacity:1" d="M-558 461.9c3.3 4.9 2 8.9-.1 13.8-9-2.6-8.1-2.6-13.3 2.4-2-10.6-.1-17.1 13.5-16.2" id="path3021"/><path style="fill:#ffee00;fill-opacity:1;fill-rule:evenodd;stroke:none;stroke-width:0.71;stroke-linecap:butt;stroke-linejoin:miter;stroke-miterlimit:4;stroke-dasharray:none;stroke-opacity:1" d="M-479.5 436.9c-9.2 18.3-9.5 27.9-24.6 38.7a38 38 0 0 1-24-6.3c-5-5-12.8-9.2-21.1-6.1 1 5.2-.3 7.2-2 12.4 4.2 1.6 6.2 3 12.3 1 11.7-1.7 22.6-1.2 31 3.9-13.3.8-18.9 2.4-26.7 1.5-8-1-12.6-3.3-17.9 1.1 2.2 6.4.7 8.8.7 13.4 5.8 5.1 10.5 1.9 16.3-1.9 2.3-10.7 17-6.3 22.8-5.5-1.6 7.2-2.7 6-5.5 10.4-10 2.4-14.6 6-13.8 12.4 3.6 2.2 7.7 5.2 10.7 10.1 3.5.9 6.7-3.6 6.8-12.1 10.3-15.4 17.3-30.7 47.4-17.6.3 9.5 3.6 9.5 15.3 12.8-1-5.7.2-12.4 3.8-16-3.6-7.7-7.5-8-16.8-7.2l-13-.4c-8.7-2.2-10.2-2.2-6.3-11.6 8.8-14 9.8-13.3 22.6-25.7-3.3-4.6-11-10-18-7.3" id="path3023"/></g><g transform="matrix(-1 0 0 1 -762.1 0)" id="g3025"><path id="path3027" d="M-441.1 489.7c11.2 1.8 10.8 15 3.2 20.8-1-5.2-5.1-5-7.6-5.4-3.5-7.7-1.2-12.4 4.4-15.4" style="fill:#ffee00;fill-opacity:1;fill-rule:evenodd;stroke:none;stroke-width:2.83465;stroke-linecap:butt;stroke-linejoin:miter;stroke-miterlimit:4;stroke-dasharray:none;stroke-opacity:1"/><path id="path3029" d="M-537.6 516.7c7 .2 9.3 2.2 11.7 9.8q-8.1 2.6-6.4 12.6a12.7 12.7 0 0 1-5.3-22.4" style="fill:#ffee00;fill-opacity:1;fill-rule:evenodd;stroke:none;stroke-width:0.585;stroke-linecap:butt;stroke-linejoin:miter;stroke-miterlimit:4;stroke-dasharray:none;stroke-opacity:1"/><path id="path3031" d="M-558.4 485.2c2.7 4.3 4.4 6.8 2 12.6-7.1 3.2-11.4 3.5-12 8.2-6.6-4-9.2-21.5 10-20.8" style="fill:#ffee00;fill-opacity:1;fill-rule:evenodd;stroke:none;stroke-width:2.83465;stroke-linecap:butt;stroke-linejoin:miter;stroke-miterlimit:4;stroke-dasharray:none;stroke-opacity:1"/><path id="path3033" d="M-558 461.9c3.3 4.9 2 8.9-.1 13.8-9-2.6-8.1-2.6-13.3 2.4-2-10.6-.1-17.1 13.5-16.2" style="fill:#ffee00;fill-opacity:1;fill-rule:evenodd;stroke:none;stroke-width:0.585;stroke-linecap:butt;stroke-linejoin:miter;stroke-miterlimit:4;stroke-dasharray:none;stroke-opacity:1"/><path id="path3035" d="M-479.5 436.9c-9.2 18.3-9.5 27.9-24.6 38.7a38 38 0 0 1-24-6.3c-5-5-12.8-9.2-21.1-6.1 1 5.2-.3 7.2-2 12.4 4.2 1.6 6.2 3 12.3 1 11.7-1.7 22.6-1.2 31 3.9-13.3.8-18.9 2.4-26.7 1.5-8-1-12.6-3.3-17.9 1.1 2.2 6.4.7 8.8.7 13.4 5.8 5.1 10.5 1.9 16.3-1.9 2.3-10.7 17-6.3 22.8-5.5-1.6 7.2-2.7 6-5.5 10.4-10 2.4-14.6 6-13.8 12.4 3.6 2.2 7.7 5.2 10.7 10.1 3.5.9 6.7-3.6 6.8-12.1 10.3-15.4 17.3-30.7 47.4-17.6.3 9.5 3.6 9.5 15.3 12.8-1-5.7.2-12.4 3.8-16-3.6-7.7-7.5-8-16.8-7.2l-13-.4c-8.7-2.2-10.2-2.2-6.3-11.6 8.8-14 9.8-13.3 22.6-25.7-3.3-4.6-11-10-18-7.3" style="fill:#ffee00;fill-opacity:1;fill-rule:evenodd;stroke:none;stroke-width:0.71;stroke-linecap:butt;stroke-linejoin:miter;stroke-miterlimit:4;stroke-dasharray:none;stroke-opacity:1"/></g><ellipse id="path3037" style="opacity:1;fill:#ffee00;fill-opacity:1;fill-rule:nonzero;stroke:none;stroke-width:0.71;stroke-linecap:round;stroke-linejoin:round;stroke-miterlimit:4;stroke-dasharray:none;stroke-dashoffset:0;stroke-opacity:1" cx="-380.98627" cy="469.91071" rx="34.198769" ry="20.399265"/><path id="path3039" d="M-394.8 188.7c4.8-1.1 6-3.2 8.8-5.2-.1 3-1.2 6.5-1.5 10.5l5.8-9.8 3.6 7c-2 7.3-7 8.3-11.9 9.7-2.7-2.3-5-5-4.8-12.2" style="fill:#ffffff;fill-opacity:1;fill-rule:evenodd;stroke:none;stroke-width:1px;stroke-linecap:butt;stroke-linejoin:miter;stroke-opacity:1"/><path id="path3041" d="M-356.8 195c-.5.4 0-9.8-.5-9.3-3 3.2-4.8 6.1-7.8 6.7.8 8.9 4.2 9.9 7.8 10q8.3-1.1 10.4-11.1-3.3-1.3-6.7-6c-.3-.4-2.8 10.2-3.2 9.7" style="fill:#ffffff;fill-opacity:1;fill-rule:evenodd;stroke:none;stroke-width:1px;stroke-linecap:butt;stroke-linejoin:miter;stroke-opacity:1"/><path id="path3043" d="M-374.5 206c-.5.5.1-11.3-.4-10.7-3.3 3.8-5.3 8-8.7 7.5.9 6 4.7 10.7 8.1 11.5 4.7-.1 9.8-5 11.6-9-3.3-1-6-5.5-7.6-9.9-.3-.6-2.7 11.2-3 10.5" style="fill:#ffffff;fill-opacity:1;fill-rule:evenodd;stroke:none;stroke-width:1px;stroke-linecap:butt;stroke-linejoin:miter;stroke-opacity:1"/><path id="path3045" d="M-406 198.7c-2.9 16.2-1.4 28 8.6 31.2 9-1.7 13.7-6.8 14.9-14.5-.8-6.7-3.8-8.7-8.6-9-.8 0-3.6 10.1-4.4 10.1 1.2-.1 2-11.5 1.8-12-2-11.5-7.9-7.1-12.3-5.8" style="fill:#ffffff;fill-opacity:1;fill-rule:evenodd;stroke:none;stroke-width:1px;stroke-linecap:butt;stroke-linejoin:miter;stroke-opacity:1"/><path id="path3047" d="M-343.9 198a34 34 0 0 1-12 10.7c-.4.3-2.1 11.9-2.6 12.1-.2-1.2-.1-11.7-.3-12.2-3.3.5-8.1 7-12.6 10.2 0 6.6 5.7 8.5 11.5 12.2 10-4.6 19.6-10 20.8-28.2z" style="fill:#ffffff;fill-opacity:1;fill-rule:evenodd;stroke:none;stroke-width:1px;stroke-linecap:butt;stroke-linejoin:miter;stroke-opacity:1"/><path id="path3049" d="M-431.9 228.3c-2.8-.3-5 .8-7.2 1.2-.4.1-2.2 11.6-3.4 13-.8-1.9.4-9.5 1-12.8q-1.5-.2-3.1-1.2c-4.6 8.7-8.8 28.5-6.8 30.2 10 6 25.3-10 19.5-30.4" style="fill:#ffffff;fill-opacity:1;fill-rule:evenodd;stroke:none;stroke-width:1px;stroke-linecap:butt;stroke-linejoin:miter;stroke-opacity:1"/><path id="path3051" d="M-415.3 240.5c-.5.3.7-19.7.2-19.4-3.2 2-4.4 5.6-10.6 5.5-2.3 18.7-4.6 36.7 9.4 40.7 7.8-.4 14.6-8 13.8-35-6.5-2.4-8-6.5-9.5-9.7-.3-.7-1.7 18-3.3 18" style="fill:#ffffff;fill-opacity:1;fill-rule:evenodd;stroke:none;stroke-width:1px;stroke-linecap:butt;stroke-linejoin:miter;stroke-opacity:1"/><path id="path3053" d="M-380.6 249.3c-1.3-1.5 1-27 .2-26-3.7 4.6-8.5 9.6-14.7 9.8-2.2 16.2-2.2 30.8 12.6 33.9 17.8-3.7 15.5-19.3 16.8-32.7-4.7-1.5-8-6.3-11-11.1-.5-1-2.7 25-3.9 26" style="fill:#ffffff;fill-opacity:1;fill-rule:evenodd;stroke:none;stroke-width:1px;stroke-linecap:butt;stroke-linejoin:miter;stroke-opacity:1"/><path id="path3055" d="M-338.6 219.9c-2 2.7-3.4 4.7-5.4 6.6-.5.4-.5 21.6-2 23-1.3-2.8-1.2-20.5-1.8-20.1a37 37 0 0 1-11.7 5.5c-2 15.1 1.7 25.9 13.8 30 12.9-3.6 13.5-18.9 11.5-36.5.7-5.5-2-6.8-4.4-8.5" style="fill:#ffffff;fill-opacity:1;fill-rule:evenodd;stroke:none;stroke-width:1px;stroke-linecap:butt;stroke-linejoin:miter;stroke-opacity:1"/><path id="path3057" d="M-330 225.5c4 2 7 3 10.6 3.6.6 0 1 13.2 2.4 16 .8-1.2.5-15.7 1-15.7l6-.1c2 9.2 1.9 19.6.9 30.3-17.2-1.6-20.6-14.8-21-34.1" style="fill:#ffffff;fill-opacity:1;fill-rule:evenodd;stroke:none;stroke-width:1px;stroke-linecap:butt;stroke-linejoin:miter;stroke-opacity:1"/><path id="path3059" d="M-436.2 283.3c-2-2.5 1.1-24.1.4-23.5-4.1 4-7.6 8.3-13.4 8.8.2 15.3-3.5 33 12.5 38 10.3.3 12.7-16.6 13.3-37.6q-5.9-2.5-8.6-8.2c-1.2 3.3-2 20.9-4.2 22.5" style="fill:#ffffff;fill-opacity:1;fill-rule:evenodd;stroke:none;stroke-width:1px;stroke-linecap:butt;stroke-linejoin:miter;stroke-opacity:1"/><path id="path3061" d="M-402.9 288.3c-2.2-1.2 1-28.2.4-27.5-3.8 6.4-9.5 11.3-15 10-2.6 14-2.2 29.5 12.8 40.5 16-10 16.1-14.8 16.6-39.3a65 65 0 0 1-10.4-10.4c-.5-.6-2.3 25.3-4.4 26.7" style="fill:#ffffff;fill-opacity:1;fill-rule:evenodd;stroke:none;stroke-width:1px;stroke-linecap:butt;stroke-linejoin:miter;stroke-opacity:1"/><path id="path3063" d="M-365.7 260.5a29 29 0 0 1-16.2 11c-1.5 20.3.9 31.2 17 39.8 17.5-3.9 22-21.5 19.5-41.2-5.4-2.4-10.7-5-15.1-12.1.3 11-1.4 24.9-3 30.3-1.9-5.4-2.2-19.4-2.2-27.8" style="fill:#ffffff;fill-opacity:1;fill-rule:evenodd;stroke:none;stroke-width:1px;stroke-linecap:butt;stroke-linejoin:miter;stroke-opacity:1"/><path id="path3065" d="M-330.4 254.3c-2.9 5-5.4 10.8-9.2 14-2.3 27 2.2 33.2 13.3 38.2 9-3.1 15.9-12.6 16.2-41.2-6.9-3.9-14.4-6.9-15.7-10.8l.2 27.8c-2.8-1.7-4-20.4-4.8-28" style="fill:#ffffff;fill-opacity:1;fill-rule:evenodd;stroke:none;stroke-width:1px;stroke-linecap:butt;stroke-linejoin:miter;stroke-opacity:1"/><path id="path3067" d="M-440.8 355.5q0-.3 0 0z" style="fill:none;fill-opacity:0.75;fill-rule:evenodd;stroke:#000000;stroke-width:1px;stroke-linecap:butt;stroke-linejoin:miter;stroke-opacity:1"/><path id="path3069" d="M-440.4 355.8c-16-6.8-12.7-34.2-11.2-55.5 1.6 1.5 3.9 5.7 5.7 7.1 0 3.4-.9 18.7 1.6 23.9 1.6-2.7 1.3-21.8 2-21.5q4 2 8.2.6c0 15.3 4.5 41.9-6.3 45.4" style="fill:#ffffff;fill-opacity:1;fill-rule:evenodd;stroke:none;stroke-width:1px;stroke-linecap:butt;stroke-linejoin:miter;stroke-opacity:1"/><path id="path3071" d="M-420.3 330.4c-2.8-2.4-2.2-26.5-2.7-25.8q-3.8 4.4-7.4 6.4c1.7 17.9.3 37.8 17.4 45.5 9.9-4 9.5-21.3 8-40.1-5-1.8-9.5-6.4-13.9-12.5 0 1.7.7 25.1-1.4 26.5" style="fill:#ffffff;fill-opacity:1;fill-rule:evenodd;stroke:none;stroke-width:1px;stroke-linecap:butt;stroke-linejoin:miter;stroke-opacity:1"/><path id="path3073" d="M-386.6 300.3a47 47 0 0 1-12 13.7c-1.5 21.6 1.6 38.2 15.3 41.1 14.4-.8 14.9-19.6 14.4-39.7-5-3-10.2-8.5-14.4-15 .6 8.5 1 18-1 23-2.5-4.7-2.5-13-2.3-23" style="fill:#ffffff;fill-opacity:1;fill-rule:evenodd;stroke:none;stroke-width:1px;stroke-linecap:butt;stroke-linejoin:miter;stroke-opacity:1"/><path id="path3075" d="M-348.4 330.7c-.8 1 3.7-29 2.9-28-4.6 5.7-9.6 10.6-16.4 12 1.5 14.8-4.9 34.8 10.4 40.8 15.6-6.7 17.6-26.1 18.3-46.8-5-1.3-6.5-4-8-6.7-.6-.9-4.5 28-7.2 28.7" style="fill:#ffffff;fill-opacity:1;fill-rule:evenodd;stroke:none;stroke-width:1px;stroke-linecap:butt;stroke-linejoin:miter;stroke-opacity:1"/><path id="path3077" d="m-312.8 302.3.7 43.8c-1.2 6.5-4.6 8.5-8.4 9.7-13.8 1.7-6.6-29-8.7-45.4a21 21 0 0 0 8.4-2c0 2.3.9 29.2 1.7 30.3.6-.4 1.6-30 1.6-32.2q2.6-1.8 4.7-4.2" style="fill:#ffffff;fill-opacity:1;fill-rule:evenodd;stroke:none;stroke-width:1px;stroke-linecap:butt;stroke-linejoin:miter;stroke-opacity:1"/><path id="path3079" d="M-448.3 360.3c-.2 11.4-9.8 22.2-14.9 33.6 14.4 3 25-9.3 32.6-33.3-2.6 1-5.8 2.4-8.4 2.8-.7 4.5-5.1 15-9.2 18.4a60 60 0 0 0 5.8-18.8c-1.6-.5-4-1.4-5.9-2.7" style="fill:#ffffff;fill-opacity:1;fill-rule:evenodd;stroke:none;stroke-width:1px;stroke-linecap:butt;stroke-linejoin:miter;stroke-opacity:1"/><path id="path3081" d="M-313.5 361.1a77 77 0 0 0 16.8 34.1c-13 0-27.2-8.1-32.8-32q3.6 1.6 6.9 1.8c.7 0 3 11.6 9.3 16.4a53 53 0 0 1-5.4-17q2.8-.9 5.2-3.3" style="fill:#ffffff;fill-opacity:1;fill-rule:evenodd;stroke:none;stroke-width:1px;stroke-linecap:butt;stroke-linejoin:miter;stroke-opacity:1"/><path id="path3083" d="M-425.7 373.7c0 11 7.5 26.4-1 37.3a25.6 25.6 0 0 1-7-35.7c3.3 2.1 1.1 15.4 4 20.3 2-3.4-.7-20.8 4-21.9" style="fill:#ffffff;fill-opacity:1;fill-rule:evenodd;stroke:none;stroke-width:1px;stroke-linecap:butt;stroke-linejoin:miter;stroke-opacity:1"/><path id="path3085" d="M-424.6 356.6c3 2 5.8 4.9 9.4 5l4.8 22.1.2-22.8c4.2.4 7.1-5.5 10.2-7.5.8 14 .3 35 4 41.2 1.5 5.6-3.3 12.3-8.8 11.7-20.9 0-15-32.1-19.8-49.7" style="fill:#ffffff;fill-opacity:1;fill-rule:evenodd;stroke:none;stroke-width:1px;stroke-linecap:butt;stroke-linejoin:miter;stroke-opacity:1"/><path id="path3087" d="M-394.4 355.1c2.6 2.8 4.9 6.1 9.3 6.7.8.1 3 23.7 4 23.6.8 0 .1-23.7.9-23.9 4-1.1 7.2-4.4 10.5-7.8-.5 19.7 5.3 45.9-11.4 52.3-12-9-11-32.2-13.3-50.9" style="fill:#ffffff;fill-opacity:1;fill-rule:evenodd;stroke:none;stroke-width:1px;stroke-linecap:butt;stroke-linejoin:miter;stroke-opacity:1"/><path id="path3089" d="M-352.3 361.2q-4.3-.2-10.6-7c.6 18.2-6.9 46.2 5.3 50.6 13.5-6.6 18.8-27.8 22-52.3-3.9 3-7.7 6.6-12.2 8-1 .3-2.1 19.3-6.5 25.7 1.5-7.6 2.6-25 2-25" style="fill:#ffffff;fill-opacity:1;fill-rule:evenodd;stroke:none;stroke-width:1px;stroke-linecap:butt;stroke-linejoin:miter;stroke-opacity:1"/><path id="path3091" d="M-332.8 392.9c-.2-9.6-1-21.5-1.6-20.3-9 20.2-9.1 34.2 2 40.5 8-6 11.8-25.9 2.3-40.8-.8-1.1-.3 17-2.7 20.6" style="fill:#ffffff;fill-opacity:1;fill-rule:evenodd;stroke:none;stroke-width:1px;stroke-linecap:butt;stroke-linejoin:miter;stroke-opacity:1"/><path id="path3093" d="M-478.6 419.3a61 61 0 0 0 10.9-16.5c-10.8-1.5-28.3 22-26.9 32 9.5.1 16.3-4.8 22.5-11.4 4-4.4 9.2-13.4 8-17.8-.2-.9-10 12.2-14.5 13.7" style="fill:#ffffff;fill-opacity:1;fill-rule:evenodd;stroke:none;stroke-width:1px;stroke-linecap:butt;stroke-linejoin:miter;stroke-opacity:1"/><path id="path3095" d="M-284.5 417c.2-3.2-11.6-17-10.9-17.1 4.5-.9 10.2 4.6 16 10.5 5.8 6.2 13.2 13 10.2 19.8-11.1 5.2-14.8-3-20.7-9.8-5.2-6-8.8-13.3-8-18 2 .5 10.2 10.5 13.4 14.6" style="fill:#ffffff;fill-opacity:1;fill-rule:evenodd;stroke:none;stroke-width:1px;stroke-linecap:butt;stroke-linejoin:miter;stroke-opacity:1"/><path id="path3097" d="M-322.1 405.7c8.2 5.5 12.3 45.8 2 46.6-5-8.7-14.3-23.3-12.5-33.9q2-1.2 4.7-3.6c.4-.4 4.4 13.8 5.4 17.9 1.7-3.6-2.6-21-2-22q1.7-2.3 2.4-5" style="fill:#ffffff;fill-opacity:1;fill-rule:evenodd;stroke:none;stroke-width:1px;stroke-linecap:butt;stroke-linejoin:miter;stroke-opacity:1"/><path id="path3099" d="M-437.2 409.6q1.6.6 2.9 1.5c1 .6-1 8.4-6.7 19.4 4.4-1.8 10.1-15.3 10.4-14.3q3 10.6-12.6 34.2c-17.3-17.8-1-28.3 6-40.8" style="fill:#ffffff;fill-opacity:1;fill-rule:evenodd;stroke:none;stroke-width:1px;stroke-linecap:butt;stroke-linejoin:miter;stroke-opacity:1"/><path id="path3101" d="M-456 416.8c4.2-3 10.7-16.2 11-15.4 2.6 6.6-.2 9.6-3.6 16.3-4.4 8.5-8.2 16.8-17.2 17-2.5-14.8 1-16.9 4.8-23 4.4-7.3 5.7-13.2 12-12.7 1 0-5.7 15-7 17.8" style="fill:#ffffff;fill-opacity:1;fill-rule:evenodd;stroke:none;stroke-width:1px;stroke-linecap:butt;stroke-linejoin:miter;stroke-opacity:1"/><path id="path3103" d="M-320.8 395.8c2.7 11.8 16.6 41.5 26.7 39.6 2-12.2-2.3-17-6.2-25.2-2-4.3-2.4-7.7-5.4-10.2q-1.4-1.4-4.4-2.3c-.7-.3 4.3 9.5 5.2 18a83 83 0 0 0-9.8-19.1c-1.6-.3-4-.7-6.1-.8" style="fill:#ffffff;fill-opacity:1;fill-rule:evenodd;stroke:none;stroke-width:1px;stroke-linecap:butt;stroke-linejoin:miter;stroke-opacity:1"/></g><path style="fill:#ffffff;fill-opacity:1;fill-rule:evenodd;stroke:none;stroke-width:1px;stroke-linecap:butt;stroke-linejoin:miter;stroke-opacity:1" d="M-415.7 408.1c4.4 2 9.4 3.5 14 1.7l3 36-6 1.7c-5-5.4-7.9-11.6-5.4-19.3-4-6-8.3-11.9-5.6-20.1" id="path3105"/><path style="fill:#ffffff;fill-opacity:1;fill-rule:evenodd;stroke:none;stroke-width:1px;stroke-linecap:butt;stroke-linejoin:miter;stroke-opacity:1" d="M-391.2 402a17 17 0 0 1-5.5 7.6l3.3 34.5 9-.5-.1-33.8c-2.5-2.2-5.3-3.9-6.7-7.8" id="path3107"/><path style="fill:#ffffff;fill-opacity:1;fill-rule:evenodd;stroke:none;stroke-width:1px;stroke-linecap:butt;stroke-linejoin:miter;stroke-opacity:1" d="M-379.8 410.3c4.4-.9 7.9-5.6 11-8.7 1.4 2.4 2.6 6 6.2 7.2l-9 35-7.5-.8z" id="path3109"/><path id="path3111" style="fill:#ffffff;fill-opacity:1;fill-rule:evenodd;stroke:none;stroke-width:1px;stroke-linecap:butt;stroke-linejoin:miter;stroke-opacity:1" d="M-355 429c4-4.5 6-14.7 7.7-25.7-3.4 3-6.7 6.1-11.1 7.5l-8.7 33.3 8.4 2.6c4.2-.8 2.9-11 3.7-17.7"/></g><g id="g3113"><path style="fill:#ffffff;fill-opacity:1;fill-rule:evenodd;stroke:none;stroke-width:1px;stroke-linecap:butt;stroke-linejoin:miter;stroke-opacity:1" d="M-404.7 492.1c-3.1 73.4-36.7 98.6-89 74.3-8.8 13.6 3.2 56.2 56 41.3a76 76 0 0 0 38.9-43.8c4.4-23 4.3-46.2 5-69.3z" id="path3115"/><path style="fill:#000000;fill-opacity:1;fill-rule:evenodd;stroke:none;stroke-width:1px;stroke-linecap:butt;stroke-linejoin:miter;stroke-opacity:1" d="M-403.2 546.2c-7 43.6-46 55.3-69.9 42.3 41 2.8 60.4-15 69.9-42.3" id="path3117"/></g><g transform="matrix(-1 0 0 1 -764.3 0)" id="g3119"><path id="path3121" d="M-404.7 492.1c-3.1 73.4-39.7 99.1-87 72.3-10.8 16.6 1.2 58.2 54 43.3a76 76 0 0 0 38.9-43.8c4.4-23 4.3-46.2 5-69.3z" style="fill:#ffffff;fill-opacity:1;fill-rule:evenodd;stroke:none;stroke-width:1px;stroke-linecap:butt;stroke-linejoin:miter;stroke-opacity:1"/><path id="path3123" d="M-403.2 546.2c-7 43.6-46 55.3-69.9 42.3 41 2.8 60.4-15 69.9-42.3" style="fill:#000000;fill-opacity:1;fill-rule:evenodd;stroke:none;stroke-width:1px;stroke-linecap:butt;stroke-linejoin:miter;stroke-opacity:1"/></g><path id="path3125" d="M-390.4 496.5q.3-.3 0 0z" style="fill:none;fill-opacity:0.75;fill-rule:evenodd;stroke:#000000;stroke-width:1px;stroke-linecap:butt;stroke-linejoin:miter;stroke-opacity:1"/><path id="path3127" d="M-391 496.5h6l1.4 73.8c2.9 22.5 4.9 43.1.5 66.9a210 210 0 0 1 1-69.8l1-70.9 7.4-.4c0 41 4.3 76.7 14.7 108.6a61 61 0 0 1-1 45.8c-5.3 14.6-14.8 21.7-22.6 31.4-8.5-9.9-15.6-15.8-24.6-31.4-7.7-13.6-2.6-33.4 1-48.2 13.2-29.8 14.3-62.8 15.3-105.8z" style="fill:#ffffff;fill-opacity:1;fill-rule:evenodd;stroke:#000000;stroke-width:1px;stroke-linecap:butt;stroke-linejoin:miter;stroke-opacity:1"/><g id="g3129"><path style="fill:#ffffff;fill-opacity:1;fill-rule:evenodd;stroke:none;stroke-width:1px;stroke-linecap:butt;stroke-linejoin:miter;stroke-opacity:1" d="M-404.7 587c-13.5 14.9-27.8 26.5-42.6 29.8q-3 12.4 2.8 24.8a55 55 0 0 0 26.8-5.4c.2-18 6.4-33.3 13-49.2" id="path3131"/><path style="fill:#000000;fill-opacity:1;fill-rule:evenodd;stroke:none;stroke-width:1px;stroke-linecap:butt;stroke-linejoin:miter;stroke-opacity:1" d="M-411 596.2c-11.4 10.8-20.5 20.8-22.9 30.1 12.3-4.9 18-17 23-30" id="path3133"/></g><g transform="matrix(-1 0 0 1 -763.5 .5)" id="g3135"><path id="path3137" d="M-404.7 587c-13.5 14.9-27.8 26.5-42.6 29.8-2 8.3-3 17.1.8 25.4a64 64 0 0 0 28.8-6c.2-18 6.4-33.3 13-49.2" style="fill:#ffffff;fill-opacity:1;fill-rule:evenodd;stroke:none;stroke-width:1px;stroke-linecap:butt;stroke-linejoin:miter;stroke-opacity:1"/><path id="path3139" d="M-411 596.2c-11.4 10.8-20.5 20.8-22.9 30.1 12.3-4.9 18-17 23-30" style="fill:#000000;fill-opacity:1;fill-rule:evenodd;stroke:none;stroke-width:1px;stroke-linecap:butt;stroke-linejoin:miter;stroke-opacity:1"/></g></g><path style="fill:#fefeff;fill-opacity:1;fill-rule:evenodd;stroke:none;stroke-width:1px;stroke-linecap:butt;stroke-linejoin:miter;stroke-opacity:1" d="M-264.2 77.9c2-2 3.1-.7 4 2.4-3.9 5 2.4 14 7.2 5.7 1.8-.3 2.2 4 1.4 4.9-1.4 2.4-7.2 3.3-11.3-1.8-2-2.6-2.1-5-1.3-11.2" id="path3142"/><path transform="matrix(.55066 .08969 -.07867 .62781 -458.3 -17.2)" d="M381.5 104.4a2.8 5.6 0 0 1-2.8 5.6 2.8 5.6 0 0 1-2.8-5.6 2.8 5.6 0 0 1 2.8-5.6 2.8 5.6 0 0 1 2.8 5.5" id="path2459" style="fill:#ffffff;fill-opacity:1;stroke:none;stroke-width:2.83465;stroke-linecap:round;stroke-linejoin:round;stroke-miterlimit:4;stroke-dasharray:none;stroke-opacity:1"/></g><!-- app4joy --></svg>