<svg xml:space="preserve" width="799.99994" height="571.42865" style="shape-rendering:geometricPrecision;text-rendering:geometricPrecision;image-rendering:optimizeQuality;fill-rule:evenodd;clip-rule:evenodd" id="svg2" viewBox="0 0 800 571.43" xmlns="http://www.w3.org/2000/svg"><g id="g1"><path id="_66103056" style="fill:#ffffff" transform="matrix(3.80953 0 0 3.80954 0 -280)" d="M50 198.5v-100h160v100z"/><path id="_113327016" style="fill:#db261b;stroke-width:3.80954" d="M190.5 476.2H800v95.2H190.5z"/><path id="_113326944" style="fill:#facf00;stroke-width:3.80954" d="M0 0h190.5v571.4H0z"/><path id="_113326800" style="fill:#0093dd;stroke-width:3.80954" d="M190.5 0H800v95.2H190.5z"/></g><g id="g12" transform="matrix(3.80953 0 0 3.80954 0 -280)" style="shape-rendering:geometricPrecision;text-rendering:geometricPrecision;image-rendering:optimizeQuality;fill-rule:evenodd;clip-rule:evenodd"><path id="_66102984" d="M165.6 154.4a35.5 35.5 0 0 1-71.2 0v-47h71.2z" style="fill:#0a0b0c"/><path id="_66102912" d="M130.1 148.4v-39.6H164v39.6zm-17.5 35q-3.3-2.1-6.1-4.8h23.3v4.7zm-10.7-10.1q-1.5-2.2-2.7-4.7h30.6v4.7zm-4.6-10q-.7-2.3-1-4.7h33.5v4.7zm-1.3-10v-4.6h33.8v4.6z" style="fill:#db261b"/><g id="g16"><path id="_66102840" d="M148.4 136.6q.5.2.6.9t-.8 1c.3 2 2 2.6 3.5 1.6.3-.1.5-.4.4.1 0 1.3-1.7 2.4-3.3 1.5.3.5 1.5 1.2 2.8.8q.6-.3.2.3c-.8 1.4-3 1.2-3.6.3q0 1-.6 1.8-.1.3-.4 0-.5-.8-.5-1.8c-.7.9-2.8 1.1-3.7-.3q-.2-.6.3-.3c1.3.4 2.4-.3 2.8-.8-1.6.9-3.3-.2-3.4-1.5 0-.5.2-.2.4-.1 1.7 1 3.3.3 3.5-1.7a1 1 0 0 1-.7-1q0-.6.6-.8l-.3-2-1 1.8q-.6.6-.6 1.4 0 .3-.3.2l-.5-.3-3.4 4.7q-.4.4.2.4l1.2.1c.7 0 1 .8.6 1.5q-.2.3-.3 0c-.4-.4-1.9-.6-2.6-.7h-.6q-1.4.4-3 1.2l-.6.6q0 .3-.3 0c-.3-.3-.8-1 0-1.6.5-.3 1.5-.5 2-.7q-1.8-.2-3 .7 0 .2-.2 0-.7-1.2.5-1.6 1.2-.2 2.4 0a6 6 0 0 0-2.9-.5q-.3 0-.1-.3.6-1.4 2.2-.8l2.4 1.4h.5l3.2-5q-.5 0-.8-.2v-.3q.8-.7 1.4-1.6.6-1.5.8-3.1 0-1.7 1.3-1.8l-.9-2.4-1 5.1c-.3 1.1-1 2.5-2.4 2.7q-.5 0-.2-.3.7-1.2.7-2.6l.2-4.4-1.5 8.7a3 3 0 0 1-2 2.3q-.6.2-.4-.3.4-1.2.5-2.2l.6-8.3-1.3 7.6c-.2 1.3-1 1.7-2.1 2q-.6.1-.4-.3.6-1 .7-2.1l.5-8.3-1 5.8c0 1.1-1 1.7-2 1.8q-.5 0-.3-.3.5-1 .6-2l.2-9.7.2-4.9c.3-2 1.7-5 4.2-5 1.8.1 3 1.6 3 3.1q0 2.5-2.2 3.3c.1 1.8 2 3.3 5.9 3.4l1.5-1.8q.8-1 .8-2.3-.2 0-.4-.5l-.8-1.3-.8-1.2q-.4-.5-1-.3l.2-1.7q.8-1 1.8-.3l1.5.9c.2-.7.1-2-.3-2.8l.1-.2q.6 0 .8.3c.3-.3 1-.5 1.2.5q0 .3-.2.2-.5 0-.6.3c0 .7.8.7 1.1.5q.6-.5.2-.9-.3 0-.1-.2.4-.4.7-.3.3-.4.7-.4t.4.2v.8q.4.3.1.8 0 .1-.2 0-.4-.2-.5.1v1q.5.3.8 0 .5-.1 0-.6l.1-.3q1.2-.3 1 .7.7 0 .9.5l-.2.2a5 5 0 0 0-2.7 1.5q0 1-.4 1.7-.7 1-.3 2 .4 1.5 1.2 2.9c3.7-.1 5.4-1.7 5.6-3.4q-2.3-.7-2.2-3.3a3 3 0 0 1 3-3c2.4-.1 3.9 2.9 4.2 5 .2 1.7.2 3.7.2 4.8l.1 9.6q0 1 .7 2 .2.4-.3.4-1.8-.2-2-1.8l-1-5.8.4 8.3q.1 1 .7 2.1.2.4-.3.3c-1-.3-1.9-.7-2.1-2l-1.4-7.6.6 8.3.6 2.2q.2.5-.4.3a3 3 0 0 1-2-2.3l-1.6-8.7.2 4.4q.1 1.5.8 2.6.1.4-.3.3c-1.4-.2-2-1.6-2.3-2.7l-1-5-.8 2.3q1 .1 1.2 1.8 0 1.5.8 3 .6 1.2 1.3 1.7.2 0 0 .3t-.7.3l3.1 4.8q.3.3.5.1l2.5-1.4q1.6-.7 2.2.8.1.4-.2.3a6 6 0 0 0-2.8.6c.8 0 1.6-.3 2.3-.1.9.2 1 1 .5 1.6q0 .2-.2 0-1-.8-3-.7c.6.2 1.6.4 2.1.7.8.6.2 1.3 0 1.6q-.4.3-.4 0-.2-.5-.6-.6-1.5-.8-2.9-1.2h-.7c-.7.1-2.1.3-2.5.8q-.2.2-.3-.1-.6-1.2.5-1.5h1.3q.6-.1.2-.5l-3.4-4.7-.6.3q-.4.1-.3-.2 0-.8-.5-1.4l-1-1.7z" style="fill:#0a0b0c"/><path id="_66102768" d="M137.4 115.7a.7.7 0 0 1 1.3 0q0 .7-.6.7v.1a.7.7 0 1 1-1 .3q0-.1 0 0h-.3a.7.7 0 0 1 0-1.3q.3 0 .5.2 0 .2 0 0m6.4-.7.2-1.1c.2-.6 1-.6 1.4-.4l1.6 1v1.2q0 .6.2 1 .2.7 0 1l-.4.6q-.1.3-.3 0l-.8-1.2-.7-1.2q-.4-.8-.9-.7c.1-.4.8-.1 1 0l1.5 2q0 .2.3.2v-.4l-1.5-1.8q-.7-.8-1.6-.2m13.7.7a.7.7 0 0 0-1.3 0q0 .7.5.7.2 0 0 .1a.7.7 0 1 0 1 .3q0-.1.1 0h.3a.7.7 0 0 0 0-1.3q-.3 0-.5.2-.1.2-.1 0m-5 21.4 3.3 5.1q.3.3.7.1l2.4-1.3q1.4-.7 2 .5c-1-.2-2.2.4-3 .7q-.6.3 0 .5l2.5-.2q1 0 .5 1.2c-.6-.7-2-.7-3.1-.7q-.7 0-.2.4c.5.2 1.5.3 2 .7.9.5.2 1 0 1.2q0-.4-.7-.7-1.5-.7-2.8-1.1h-.8c-.7.1-2.3.3-2.6.7q-.4-1 .5-1t1.3-.2q.7 0 .3-.6l-3.6-4.9q.5-.4.4-.8zm-1-12.7a16 16 0 0 0 9.8-5.2l.1 3.2q-4.4 2-9.8 2.8zm6.8-7.4c1 .9 1.3 2.7 1.2 3.7l-2 1.4c.2-.2 1.7-2.5.4-4.7v-.4zm-11.5 19.7h1.2q.7.1.8.8-.1.6-.8.7h-1.2a1 1 0 0 1-.7-.7q0-.7.7-.8m.2-25.2q.6.8.3 2.7c1.3-.6 2.7.3 3 1.7q1.4-1.4 2.7-1.4-.1-.5-.7-.3-.2 0-.1-.1.1-.9-.7-.6.5.3.2.7-.7.7-1.3.1l-.2-.7c0-.5.4-1.1.8-.7v-.5l-.2-.1v-.7q-.6 0-.7.4 0 .2-.1 0-.3-.1-.5.1c.4.1.3.7.1 1q-.3.4-.9.4t-.8-.9q0-.5.7-.5c0-.5-.5-.7-.7-.3q-.2.3-.3 0 .2-.2-.6-.3m-4.7 25.6-3.3 5.1q-.3.3-.7.1l-2.4-1.3q-1.3-.6-2 .5c1-.2 2.2.4 3.1.7q.6.3-.1.5l-2.4-.2c-.5 0-1 .5-.5 1.2.6-.7 1.9-.7 3-.7q.8 0 .2.4c-.4.2-1.4.3-2 .7-.8.5-.1 1 0 1.2q.2-.4.7-.7 1.5-.7 2.9-1.1h.7c.8.1 2.4.3 2.7.7q.3-1-.5-1t-1.4-.2-.2-.6l3.5-4.9q-.4-.4-.4-.8zm1.1-12.7a16 16 0 0 1-9.9-5.2v3.2a39 39 0 0 0 9.9 2.8zm-6.8-7.4c-1 .9-1.3 2.7-1.2 3.7l2 1.4a4 4 0 0 1-.4-4.7v-.4z" style="fill:#facf00"/><path id="_66102696" d="M144 123c-2 0-5.7-.7-6-3.8 1.5-.2 2.3-1.5 2.3-2.9 0-1.6-1-3-2.6-3q-1.8 0-2.9 1.6-1.1 1.8-1.2 3.9.7 1 1.6 1.7c0-2 .7-3.2 1.2-3.6a.8.8 0 0 1 .4-1.6q.3 0 .5.2a.8.8 0 0 1 1.6.3q0 .5-.5.7l.2.6a.8.8 0 0 1-1.5.4c-.8 1.3-.6 3.3.6 4.7q3 1.8 5.8 2zm2.8 15.5c-.2 2-1.9 3-3.8 1.8 0 1.3 2.3 2 3.2 1 .3-.3.3.2.2.3-.6 1.2-2.3 1.4-3.1 1.1.9 1.4 3 .8 3.3 0q.2-.2.3.1 0 1 .5 2 .7-1 .6-2 0-.4.3 0c.3.7 2.4 1.3 3.3 0-.8.2-2.6 0-3.1-1.2-.1-.1 0-.6.2-.3.9 1 3.2.3 3.2-1-2 1.2-3.6.3-3.9-1.8zM151 123c2 0 5.5-.8 5.8-3.8-1.4-.2-2.2-1.5-2.2-2.9 0-1.6 1-3 2.6-3q1.8 0 2.8 1.6 1.2 1.8 1.3 3.9l-1.6 1.7c0-2-.8-3.2-1.2-3.6a.8.8 0 0 0-.4-1.6q-.3 0-.5.2a.8.8 0 0 0-1.6.3q0 .5.5.7l-.2.6a.8.8 0 0 0 1.5.4c.7 1.3.5 3.3-.7 4.7q-3 1.7-5.7 2zm-3.8-8.2c.2-.8 1.3-.6 1.9-.3q.7.4 1 1l.1 1q-.1.8-.5 1.5-.7 1.2-.1 2.5l1.4 3.1q.6 1.8 0 3.8l-.7 2q-.9 1.9-1.5 3.9l-.8 3.2h-1.2q-.3-2.2-1.1-4.5l-1.6-4.3c-.4-1.4-1-2.9 0-4.2q.3-.6 1-1.2c.8-1 1.8-2 1.8-3.4l.1-.6.4-.4q.4-.6 0-1.2l-.2-1.4h.2q.3.7.8.7t.8-.7h.4c-.1-.5-1.3-.6-1.8-.3h-.3q-.3 0-.1-.2m.4.6q.2.4.6.3t.6-.5l-.1-.2-.2.1q0 .4-.3.4t-.3-.2zm13.8 7.3.2 9.8q0 1 .7 2.2-1.9-.4-2-1.9l-1.4-8.4h-.1l.6 11.2q.1 1.1.7 2.2c-1.2-.3-1.8-.7-2-2l-1.8-10.4h-.2l.8 11.2q.1 1.3.5 2.3c-.9-.1-1.8-1.2-1.9-2.2l-2-10.9h-.2l.4 6.8q0 1.5.8 2.6c-1.4-.1-2-1.5-2.2-2.7l-1-5.1q.3-1 .3-2 5-.7 9.8-2.7m-11.2 7.7q.7.1 1 1l.2 1.6q.3 1.8 1.4 3.1l.6.6q-.6.5-1.7-.2-.3-.3-.3 0-.1 1-1 1.2.2-.7-.3-1.2 0-.3-.6-1t-.7-1.4q.5-1.8 1.4-3.7m-16.8-7.7-.1 9.8q0 1-.7 2.2 1.8-.4 2-1.9l1.3-8.4h.2l-.7 11.2q-.1 1.1-.7 2.2c1.2-.3 1.9-.7 2-2l1.9-10.4h.2l-.8 11.2q-.2 1.3-.6 2.3c1-.1 1.8-1.2 2-2.2l1.9-10.9h.2l-.3 6.8q-.1 1.5-.8 2.6c1.3-.1 1.9-1.5 2.1-2.7l1.2-5.4-.3-1.6q-5-.7-10-2.8m11.4 7.7q-1 .1-1.1 1l-.2 1.6a7 7 0 0 1-1.4 3.1q-.3.4-.7.6.6.5 1.8-.2.2-.3.2 0 .2 1 1 1.2-.1-.7.3-1.2l.6-1c.2-.3.8-1 .7-1.4q-.4-1.9-1.2-3.7" style="fill:#ffffff"/></g><path id="_66102600" d="M96 148.4v-39.6h33.8v39.6zm68 5.8a34 34 0 0 1-33.9 34v-39.5H164z" style="fill:#0093dd"/><g id="g22"><path id="_66102528" d="m146 151 1 2.8 3-.5q.4 0 .1.2l-1.8 2.3 1.8 2.3q.2.3 0 .3l-3-.5-1 2.8q-.3.3-.3 0l-1-2.8-3 .5q-.3 0-.2-.3l2-2.3-2-2.3q-.1-.2.2-.2l3 .5 1-2.8q0-.3.2 0" style="fill:#0a0b0c"/><path id="_66102456" style="fill:#facf00" d="m142 153.6 2.9.5 1-2.7 1 2.7 2.9-.5-1.8 2.2 1.8 2.3-2.9-.5-1 2.7-1-2.7-2.9.5 1.8-2.3z"/></g><g id="g26"><path id="_66102360" d="m136.6 151 1 2.8 3-.5q.3 0 0 .2l-1.8 2.3 1.9 2.3q.1.3-.2.3l-2.9-.5-1 2.8q-.1.3-.3 0l-1-2.8-3 .5q-.4 0-.1-.3l1.9-2.3-2-2.3q0-.2.2-.2l3 .5 1-2.8q0-.3.3 0" style="fill:#0a0b0c"/><path id="_66102288" style="fill:#facf00" d="m132.5 153.6 2.9.5 1-2.7 1.1 2.7 2.8-.5-1.8 2.2 1.8 2.3-2.8-.5-1.1 2.7-1-2.7-2.9.5 1.9-2.3z"/></g><g id="g30"><path id="_66102192" d="m155.5 151 1 2.8 3-.5q.3 0 .1.2l-1.9 2.3 1.9 2.3q.2.3-.1.3l-3-.5-1 2.8q0 .3-.3 0l-1-2.8-3 .5q-.3 0 0-.3l1.8-2.3-1.9-2.3q-.1-.2.1-.2l3 .5 1-2.8q.2-.3.3 0" style="fill:#0a0b0c"/><path id="_66102120" style="fill:#facf00" d="m151.5 153.6 2.8.5 1.1-2.7 1 2.7 2.8-.5-1.8 2.2 1.8 2.3-2.8-.5-1 2.7-1.1-2.7-2.8.5 1.8-2.3z"/></g><g id="g34"><path id="_66102024" d="m146 161.8 1 2.8 3-.5q.4 0 .1.2l-1.8 2.3 1.8 2.3q.2.3 0 .3l-3-.5-1 2.8q-.3.3-.3 0l-1-2.8-3 .5q-.3 0-.2-.3l2-2.3-2-2.3q-.1-.2.2-.2l3 .5 1-2.8q0-.3.2 0" style="fill:#0a0b0c"/><path id="_66101952" style="fill:#facf00" d="m142 164.4 2.9.4 1-2.7 1 2.7 2.9-.4-1.8 2.2 1.8 2.3-2.9-.5-1 2.7-1-2.7-2.9.5 1.8-2.3z"/></g><g id="g38"><path id="_66101856" d="m136.6 161.8 1 2.8 3-.5q.3 0 0 .2l-1.8 2.3 1.9 2.3q.1.3-.2.3l-2.9-.5-1 2.8q-.1.3-.3 0l-1-2.8-3 .5q-.4 0-.1-.3l1.9-2.3-2-2.3q0-.2.2-.2l3 .5 1-2.8q0-.3.3 0" style="fill:#0a0b0c"/><path id="_66101784" style="fill:#facf00" d="m132.5 164.4 2.9.4 1-2.7 1.1 2.7 2.8-.4-1.8 2.2 1.8 2.3-2.8-.5-1.1 2.7-1-2.7-2.9.5 1.9-2.3z"/></g><g id="g42"><path id="_66101688" d="m155.5 161.8 1 2.8 3-.5q.3 0 .1.2l-1.9 2.3 1.9 2.3q.2.3-.1.3l-3-.5-1 2.8q0 .3-.3 0l-1-2.8-3 .5q-.3 0 0-.3l1.8-2.3-1.9-2.3q-.1-.2.1-.2l3 .5 1-2.8q.2-.3.3 0" style="fill:#0a0b0c"/><path id="_66101616" style="fill:#facf00" d="m151.5 164.4 2.8.4 1.1-2.7 1 2.7 2.8-.4-1.8 2.2 1.8 2.3-2.8-.5-1 2.7-1.1-2.7-2.8.5 1.8-2.3z"/></g><g id="g46"><path id="_66101520" d="m146 172.6 1 2.8 3-.5q.4 0 .1.2l-1.8 2.3 1.8 2.3q.2.3 0 .2l-3-.4-1 2.7q-.3.5-.3 0l-1-2.7-3 .4q-.3 0-.2-.2l2-2.3-2-2.3q-.1-.3.2-.2l3 .5 1-2.8q0-.3.2 0" style="fill:#0a0b0c"/><path id="_66101448" style="fill:#facf00" d="m142 175.2 2.9.4 1-2.7 1 2.7 2.9-.4-1.8 2.2 1.8 2.3-2.9-.5-1 2.7-1-2.7-2.9.5 1.8-2.3z"/></g><g id="g50"><path id="_66101352" d="m136.6 172.6 1 2.8 3-.5q.3 0 0 .2l-1.8 2.3 1.9 2.3q.1.3-.2.2l-2.9-.4-1 2.7q-.1.5-.3 0l-1-2.7-3 .4q-.4 0-.1-.2l1.9-2.3-2-2.3q0-.3.2-.2l3 .5 1-2.8q0-.3.3 0" style="fill:#0a0b0c"/><path id="_66101280" style="fill:#facf00" d="m132.5 175.2 2.9.4 1-2.7 1.1 2.7 2.8-.4-1.8 2.2 1.8 2.3-2.8-.5-1.1 2.7-1-2.7-2.9.5 1.9-2.3z"/></g><g id="g54"><path id="_66101184" d="M110.3 117.5h-2c-1.1 0-3.7-.1-4.3-1.3h-.5v6.9h.5c.6-1.2 3.2-1.3 4.2-1.3h2.1v4.8h-5.7c-1 0-3.6-.1-4.2-1.3h-.6v6.9h.6c.6-1.2 3.2-1.3 4.2-1.3h5.7v10.5c0 1 0 3.6-1.2 4.3v.5h6.8v-.5c-1.2-.7-1.3-3.3-1.3-4.3V131h5.7c1 0 3.6.1 4.3 1.3h.5v-6.9h-.5c-.7 1.2-3.3 1.3-4.3 1.3h-5.7v-4.8h2.1c1 0 3.6.1 4.3 1.3h.5v-6.9h-.5c-.7 1.2-3.3 1.3-4.3 1.3h-2V116c0-1 0-3.6 1.2-4.2v-.5H109v.5c1.1.6 1.2 3.2 1.2 4.2z" style="fill:#0a0b0c"/><path id="_66101112" d="M114.4 130.6v10.8c0 .9.1 3.6 1.2 4.4v.1h-6.3c1.2-.9 1.3-3.6 1.3-4.5v-10.8h-6c-.9 0-3.6.2-4.4 1.3h-.1v-6.3h.1c.8 1.1 3.5 1.2 4.4 1.2h6v-5.2h-2.3c-1 0-3.7 0-4.5 1.2v-6.3c.8 1.1 3.5 1.3 4.5 1.3h2.3V116c0-1-.1-3.7-1.3-4.5h6.3c-1.1.8-1.2 3.5-1.2 4.5v1.8h2.3c1 0 3.6-.2 4.4-1.3h.1v6.3c-.9-1.1-3.6-1.2-4.5-1.2h-2.3v5.2h5.9c1 0 3.6 0 4.4-1.2h.1v6.3c-.9-1.1-3.6-1.3-4.5-1.3z" style="fill:#facf00"/></g><path id="_113327112" d="M129.8 188.2q-9.2-.1-16.7-4.6h16.7zm-23.6-9.9q-2.3-2.1-4-4.7h27.6v4.7zm-7-10q-1.2-2.2-1.9-4.7h32.5v4.7zm-3-10-.2-4.1v-.6h33.8v4.7z" style="fill:#ffffff"/></g><!-- app4joy --></svg>