<svg height="500" width="800" id="svg2" viewBox="0 0 800 500" xmlns="http://www.w3.org/2000/svg"><g id="g1"><path id="rect2723" style="fill:#ffffff;fill-opacity:1;fill-rule:nonzero;stroke:none;stroke-width:4;stroke-linecap:round;stroke-linejoin:bevel;stroke-miterlimit:4;stroke-dasharray:none;stroke-opacity:1" d="M0 0h800v200H0z"/><path id="rect2721" style="fill:#d51216;fill-opacity:1;fill-rule:nonzero;stroke:none;stroke-width:4;stroke-linecap:round;stroke-linejoin:bevel;stroke-miterlimit:4;stroke-dasharray:none;stroke-opacity:1" d="M0 200h800v100H0z"/><path id="rect2719" style="fill:#fcc300;fill-opacity:1;fill-rule:nonzero;stroke:none;stroke-width:4;stroke-linecap:round;stroke-linejoin:bevel;stroke-miterlimit:4;stroke-dasharray:none;stroke-opacity:1" d="M0 300h800v200H0z"/></g><g transform="matrix(.56 0 0 .56 -334.2 151.3)" id="g2682"><g id="g2602" transform="matrix(.98637 0 0 .97757 180.2 -211.4)"><path style="fill:#000000;fill-rule:evenodd;stroke:none" d="M851.3 74.4h595.2v368.4a298 298 0 0 1-297.6 297.6 298 298 0 0 1-297.6-297.6z" id="path1937"/><path style="fill:#d51216;fill-opacity:1;fill-rule:evenodd;stroke:none;stroke-width:1.00019;stroke-miterlimit:4;stroke-dasharray:none" d="M857.2 81h583.4v361.1c0 160.6-131 291.7-291.7 291.7A292.3 292.3 0 0 1 857.2 442z" id="path1939"/></g><g id="g2649" transform="matrix(.82442 0 0 .81781 1006.9 -158.7)"><path id="path2780" d="M301 96.8s17.2-26.3 42.7-26.3c0 0-7.3 7-4.8 11.3 2.6 4.4-1 14.6-6.9 16.4-5.8 1.8-8.4 9.1-8.4 9.1l-24-5z" style="fill:#ffffff;fill-opacity:1;fill-rule:evenodd;stroke:#000000;stroke-width:4;stroke-linecap:round;stroke-linejoin:round;stroke-miterlimit:4;stroke-dasharray:none;stroke-opacity:1"/><path id="path4556" d="M544.5 85s24-3.2 39-12.3c0 0-27.3 32-69.6 28.8-42.3-3.3 29.9-17.1 30.6-16.4" style="fill:#ffffff;fill-opacity:1;fill-rule:evenodd;stroke:#000000;stroke-width:4;stroke-linecap:round;stroke-linejoin:round;stroke-miterlimit:4;stroke-dasharray:none;stroke-opacity:1"/><path id="path3667" d="M339 105.5s16.7-12.8 24.4-21.9 17.8-27 44.8-27v0s-34.3 20.1-32.8 36.1c1.4 16 61.2-28.4 61.2-28.4S452.3 50.1 475 53c0 0-38.3 19.3-38.6 31.7s42.6-11.3 52-19c9.5-7.6 25.6-11.6 35.8-6.1 0 0-31.4 12-33.5 24.8-2.2 12.7 30.7.5 48.4-8.4 12-6 23.4-13.9 26.6-19 0 0-.7 29.6-53.5 44.1 0 0-22.3 8-38 .4 0 0-2.9-2.6-9.8-.7-7 1.8-24.8 5.8-39-2.2 0 0-6.5-3.7-14.6.7s-31 11.7-40.4 11.7l-28.4 5z" style="fill:#ffffff;fill-opacity:1;fill-rule:evenodd;stroke:#000000;stroke-width:4;stroke-linecap:round;stroke-linejoin:round;stroke-miterlimit:4;stroke-dasharray:none;stroke-opacity:1"/><path id="path6330" d="M526.3 176.2s31.7-29.1 32.8-50c0 0 1.4 26-3.3 37.6s-29.2 13.1-29.5 12.4" style="fill:#ffffff;fill-opacity:1;fill-rule:evenodd;stroke:#000000;stroke-width:4;stroke-linecap:round;stroke-linejoin:round;stroke-miterlimit:4;stroke-dasharray:none;stroke-opacity:1"/><path id="path5443" d="M359 130.7s17.1 17 41.9 4.7 39.7-1.8 39.7-1.8-4.7 4.3-15.3 5.8c-10.5 1.5-25.1 6.2-27.7 14.2 0 0-.3 16.8 42.3-1.8 0 0 32.8-19.7 48.8-9.9 0 0-33.1 11-41.5 25.6 0 0 13.1 13.4 37.9-3.7 0 0 30.2-26.6 49.6-28.8 0 0-25 23.8-27.4 29.5-2.5 6.2-9.5 12.8 8.4 10.2 17.9-2.5 62-21.8 71.8-45.1 0 0-7.6 68.8-98.4 57.2 0 0-39.4 5.8-55-7.7 0 0-25.2 3-49.6-12.7 0 0-35.7-17.2-37.2-26-1.4-8.7 2.2-9.4 2.2-9.4z" style="fill:#ffffff;fill-opacity:1;fill-rule:evenodd;stroke:#000000;stroke-width:4;stroke-linecap:round;stroke-linejoin:round;stroke-miterlimit:4;stroke-dasharray:none;stroke-opacity:1"/><path id="path2855" d="M389.3 327s30.5 15 64.1 9.8c33.6-5 104.4-2.8 125.4 63.8 3 9.6 6.2 15.4 17.5 28.5 0 0-20.9 6.8-29.1-11.3 0 0-12.9 70.4 17.3 101 0 0 6.2 5.8 7.5 15.7s5.9 9.3 8.9 11.8c6.3 5.2 10.4 11.7 4.9 25.6 0 0-9.5 43-.7 84.6 0 0 4.3 9.8-3.6 11.5-3.2.2-8.2 8.8-1.3 13 0 0 6 4.7.4 13.5 0 0-3.3 8.6-10.9 17 0 0-4.6 7-8.5.4 0 0-8.9 9.5-11.2-3.3 0 0-4.2-18 4.6-32.8 0 0 5-4.9 2-11.8 0 0-3-5.2 1-13.1s7.5-47.6 7.5-47.6 3.3-32.4-22.6-55.4c0 0-12.1 53.1-8.2 93.8 0 0 2.6 11.5-4.3 17.7-6.8 6.3.4 8.9.4 8.9s4.9 3.3-.7 12.4-12.8 15.5-12.8 15.5-10.1 9.8-11.5-.4c0 0-8.2 7.3-8.5-3.6s3.6-29.5 9.9-34c0 0 5.7-2.8 3.2-9.3-2.2-6 1.8-10.7 2.3-13.4 4.7-22.5 8.6-34.5 3.3-71.8 0 0-3-11.9-12.5-19-9.5-7.3-63-42.7-70.1-67.6 0 0-127.6 26.2-198.5-40 0 0-6.9 6.5-9.8 7.8s-9.2 5-12.8.7c0 0-3.6-2-6-1 0 0-37.6 2.3-90.1-37.4 0 0-7.2-3-8.9 3.3-1.6 6.2-14.7 59-9.5 70.5 0 0 6 13.5-3 11.8 0 0-9.1 1-1.6 12.5 0 0 7.6 2.6 6.6 23 0 0-3.6 15-9.5 9.8 0 0-1.7 13-7.9 3.3 0 0-23-28.6-11.1-46.3 0 0 4.2-4.3 2.2-16-2-11.9-2-13.8.7-19.7 0 0 14.1-45 14.4-59.4 0 0-25.4 17-29.5 26.2-2 4.5-1 8.6-1 8.6s.7 11.1-6.9 11.1c-7.5 0-4.5 8.2-4.5 8.2s7 14.1-5.5 30.3c0 0-4 6-9.2 2.4 0 0-8.8 10.1-10.2-1.3-1.5-11.4-2-19.7-.9-27.8 0 0 .3-8.3 7.7-15.6s5.1-13.2 5.1-13.2-1.5-5.7 6.5-12.4c0 0 46-38.6 54-53.1s19.5-12.3 20.9-12.3c4 .2 9.4 5.7 13 5.7 0 0 24 5.5 44.3 16.9v0l3.7 2.8S184 339 216 311.5c0 0-6.9-19.7 20.2-52.5l8.6-38 12.5.6c-2.8-1.1 36.7-44.8 29.1-53 0 0-15 1.4-45.9-4l-5.1-1.5c-6.1 4.2-26.7 9.5-24.9-3.7 0 0-9 .9-8.5-10s.6-12 6.8-13.7c0 0 13.7-5 17-4.4 0 0 33.6-20.3 40.7-22.3 7.3-2 9.8-3.8 15.5-8 5.2-4.7 24.5-3.7 26.5-.6 1.7 2.8 9.5-.3 10.4-1.7s10.9-4.5 17 2.3c0 0 6.9 5.3 8 11 0 0 23.7-7.1 41 1.8 0 0-13.2 3.2-20 11.6s-9.1 12-17.8 15.2c0 0 6.2 7.8 2.7 12.3 0 0 26 39-.4 96.8l5 25.6-7.8 10.9-2.2 16.4z" style="fill:#ffffff;fill-opacity:1;fill-rule:evenodd;stroke:#000000;stroke-width:4;stroke-linecap:round;stroke-linejoin:round;stroke-miterlimit:4;stroke-dasharray:none;stroke-opacity:1"/><path id="path1882" d="m227.4 194.2 3.8 63.4s33.3 2.7 59 12.1a259 259 0 0 1 52.6 28.3l43.5-46.2s-12-6.3-23.3 5.4c0 0-9.5-19.4-23.3.3 0 0 13.2 2.4 7.5 12.3-7 11.8-22-5-20-11 0-.1-16.7 10.1-20.7-3.7-4.3-14.8 15.3-15.8 16-8.2 0 0 13.3-10.4-6.8-18.7 0 0 3-11.9-3.4-20.7-10.6 2.7-15.6 13.8-15.6 13.8-20.7-6.4-17.1 10-17.1 10 5.4-5.3 19.7 8 7 16.6-12 8-18.2-10.5-18.3-10.3-2.3 5.9-24.6 9-22.4-4.4 1.9-11.3 13.6-4.8 13.6-4.8 2-23.8-17.7-15-17.7-15a20 20 0 0 0-14.4-19.2z" style="fill:#fcc300;fill-opacity:1;fill-rule:evenodd;stroke:#000000;stroke-width:4;stroke-linecap:butt;stroke-linejoin:miter;stroke-miterlimit:4;stroke-dasharray:none;stroke-opacity:1"/><path id="path10757" d="M562.5 548c.6-1-92.3-43.7-110.3-103.7 0 0-4.4-15.5-13.5-19.4" style="fill:none;fill-opacity:0.75;fill-rule:evenodd;stroke:#000000;stroke-width:4;stroke-linecap:round;stroke-linejoin:round;stroke-miterlimit:4;stroke-dasharray:none;stroke-opacity:1"/><path id="path11644" d="M452.6 477.1s8.2-1.8 12-6.8" style="fill:none;fill-opacity:0.75;fill-rule:evenodd;stroke:#000000;stroke-width:4;stroke-linecap:round;stroke-linejoin:round;stroke-miterlimit:4;stroke-dasharray:none;stroke-opacity:1"/><path id="path13416" d="M254.7 437.5s-2.6-28.3 14.2-38.7" style="fill:none;fill-opacity:0.75;fill-rule:evenodd;stroke:#000000;stroke-width:4;stroke-linecap:round;stroke-linejoin:round;stroke-miterlimit:4;stroke-dasharray:none;stroke-opacity:1"/><path id="path14303" d="m108 401.8 2-12s0-5 4.1-7.7 12.7-7.8 18-5.1c5.2 2.7 6.3 1 7.8 1s28-2.9 65.6 22.9c0 0 1.3-8 13-13.4 0 0-13.8-39.5 1.7-48.9" style="fill:none;fill-opacity:0.75;fill-rule:evenodd;stroke:#000000;stroke-width:4;stroke-linecap:round;stroke-linejoin:round;stroke-miterlimit:4;stroke-dasharray:none;stroke-opacity:1"/><path id="path15190" d="M195.6 376.2s6.5 19.9 10.2 24.3" style="fill:none;fill-opacity:0.75;fill-rule:evenodd;stroke:#000000;stroke-width:4;stroke-linecap:butt;stroke-linejoin:miter;stroke-miterlimit:4;stroke-dasharray:none;stroke-opacity:1"/><path id="path16077" d="M345.5 303.2c0-.5-21.1-9.6-39.4 4.6" style="fill:#ffffff;fill-opacity:1;fill-rule:evenodd;stroke:#000000;stroke-width:4;stroke-linecap:round;stroke-linejoin:round;stroke-miterlimit:4;stroke-dasharray:none;stroke-opacity:1"/><path id="path16964" d="M337.7 165.9s14.8 23.2 4 53.5" style="fill:#ffffff;fill-opacity:1;fill-rule:evenodd;stroke:#000000;stroke-width:4;stroke-linecap:round;stroke-linejoin:round;stroke-miterlimit:4;stroke-dasharray:none;stroke-opacity:1"/><path id="path17851" d="M349.1 139.9s-13.9.6-20.4 0" style="fill:#ffffff;fill-opacity:1;fill-rule:evenodd;stroke:#000000;stroke-width:4;stroke-linecap:round;stroke-linejoin:round;stroke-miterlimit:4;stroke-dasharray:none;stroke-opacity:1"/><path id="path18738" d="M361.7 120s-11.4 1.2-18.8 8.7c0 0-4 3.6-6 .3s3.5-6.4 3.5-6.4 11.9-4.8 21.3-2.6z" style="fill:#ffffff;fill-opacity:1;fill-rule:evenodd;stroke:#000000;stroke-width:4;stroke-linecap:butt;stroke-linejoin:miter;stroke-miterlimit:4;stroke-dasharray:none;stroke-opacity:1"/><path id="path18740" d="M323.3 118.2s6.3 4.9 20.8-6.4" style="fill:#ffffff;fill-opacity:1;fill-rule:evenodd;stroke:#000000;stroke-width:4;stroke-linecap:round;stroke-linejoin:round;stroke-miterlimit:4;stroke-dasharray:none;stroke-opacity:1"/><path style="fill:#ffffff;fill-opacity:1;fill-rule:evenodd;stroke:#000000;stroke-width:4;stroke-linecap:round;stroke-linejoin:round;stroke-miterlimit:4;stroke-dasharray:none;stroke-opacity:1" d="M316.5 147.4s2.2 18.1-29.8 21.2" id="path19627"/><path id="path19629" d="M225.4 155.3s-3.9 3-15.2 4.2" style="fill:none;fill-opacity:0.75;fill-rule:evenodd;stroke:#000000;stroke-width:4;stroke-linecap:round;stroke-linejoin:round;stroke-miterlimit:4;stroke-dasharray:none;stroke-opacity:1"/><path style="fill:none;fill-opacity:0.75;fill-rule:evenodd;stroke:#000000;stroke-width:4;stroke-linecap:round;stroke-linejoin:round;stroke-miterlimit:4;stroke-dasharray:none;stroke-opacity:1" d="M243 158.5s-3.1 2.3-7.5 4.6" id="path19631"/><path id="path19633" d="M210.1 145.6c2.4-2.6 7.2-7.1 11.8-6.6 6.6.6 5.3 5 5.3 5s.2 3.7-6.4 1.7c-3.5-1-5.7-.3-10 .9-2.2.6-.7-1-.7-1z" style="fill:#000000;fill-opacity:1;fill-rule:evenodd;stroke:#000000;stroke-width:2;stroke-linecap:butt;stroke-linejoin:miter;stroke-miterlimit:4;stroke-dasharray:none;stroke-opacity:1"/><ellipse transform="rotate(60.4 289 118.8)" id="path19635" style="fill:#000000;fill-opacity:1;fill-rule:nonzero;stroke:#000000;stroke-width:4;stroke-linecap:round;stroke-linejoin:round;stroke-miterlimit:4;stroke-dasharray:none;stroke-dashoffset:0;stroke-opacity:1" cx="287.93576" cy="118.77656" rx="5.607286" ry="4.268867"/><path style="fill:none;fill-opacity:0.75;fill-rule:evenodd;stroke:#000000;stroke-width:4.6;stroke-linecap:round;stroke-linejoin:round;stroke-miterlimit:4;stroke-dasharray:none;stroke-opacity:1" d="M275.2 120.2s7.5-16.2 26.5-1.5" id="path20522"/><path style="fill:none;fill-opacity:0.75;fill-rule:evenodd;stroke:#000000;stroke-width:4;stroke-linecap:round;stroke-linejoin:round;stroke-miterlimit:4;stroke-dasharray:none;stroke-opacity:1" d="M568 419.7s-5.6-13.1-15.6-22.7" id="path26721"/><path id="path26723" d="M215.7 311.7q5.3-5.1 12-10.3" style="fill:none;fill-opacity:0.75;fill-rule:evenodd;stroke:#000000;stroke-width:4;stroke-linecap:round;stroke-linejoin:round;stroke-miterlimit:4;stroke-dasharray:none;stroke-opacity:1"/><path id="path27610" d="M51.7 460.4s-3.4 9.8-.8 25.5" style="fill:none;fill-opacity:0.75;fill-rule:evenodd;stroke:#000000;stroke-width:4;stroke-linecap:round;stroke-linejoin:round;stroke-miterlimit:4;stroke-dasharray:none;stroke-opacity:1"/><path style="fill:none;fill-opacity:0.75;fill-rule:evenodd;stroke:#000000;stroke-width:4;stroke-linecap:round;stroke-linejoin:round;stroke-miterlimit:4;stroke-dasharray:none;stroke-opacity:1" d="M101.3 521.3s2.6 6.8 9 17" id="path28497"/><path id="path28499" d="M530.3 680.7s-4.2 6-4.7 17.4" style="fill:none;fill-opacity:0.75;fill-rule:evenodd;stroke:#000000;stroke-width:4;stroke-linecap:round;stroke-linejoin:round;stroke-miterlimit:4;stroke-dasharray:none;stroke-opacity:1"/><path style="fill:none;fill-opacity:0.75;fill-rule:evenodd;stroke:#000000;stroke-width:4;stroke-linecap:round;stroke-linejoin:round;stroke-miterlimit:4;stroke-dasharray:none;stroke-opacity:1" d="M581.5 691c-.7 0-3.3 9.3-1.2 21.3" id="path28501"/><path transform="translate(6.3 4.3)" id="path2135" d="M275.4 96.9c-4 2.6-6.7 9.3.6 12.3" style="color:#000000;display:inline;overflow:visible;visibility:visible;opacity:1;fill:none;fill-opacity:1;fill-rule:nonzero;stroke:#000000;stroke-width:4;stroke-linecap:round;stroke-linejoin:miter;stroke-miterlimit:4;stroke-dasharray:none;stroke-dashoffset:0;stroke-opacity:1;marker:none;marker-start:none;marker-mid:none;marker-end:none"/><path id="path4829" d="M275.2 120.2s1-6.1 7.2-6.7" style="fill:none;fill-opacity:0.75;fill-rule:evenodd;stroke:#000000;stroke-width:4.6;stroke-linecap:round;stroke-linejoin:round;stroke-miterlimit:4;stroke-dasharray:none;stroke-opacity:1"/></g></g><!-- app4joy --></svg>