<svg width="800" height="500" id="svg2" viewBox="0 0 800 500" xmlns="http://www.w3.org/2000/svg"><defs id="defs4"><marker id="ArrowEnd" viewBox="0 0 10 10" refX="0" refY="5" markerUnits="strokeWidth" markerWidth="4" markerHeight="3" orient="auto"><path d="m0 0 10 5-10 5z" id="path7"/></marker><marker id="ArrowStart" viewBox="0 0 10 10" refX="10" refY="5" markerUnits="strokeWidth" markerWidth="4" markerHeight="3" orient="auto"><path d="M10 0 0 5l10 5z" id="path10"/></marker><marker orient="auto" markerHeight="3" markerWidth="4" markerUnits="strokeWidth" refY="5" refX="10" viewBox="0 0 10 10" id="marker2261"><path id="path2263" d="M10 0 0 5l10 5z"/></marker><marker orient="auto" markerHeight="3" markerWidth="4" markerUnits="strokeWidth" refY="5" refX="0" viewBox="0 0 10 10" id="marker2257"><path id="path2259" d="m0 0 10 5-10 5z"/></marker><style id="style6" type="text/css">.fil1{fill:#E60D2E}</style></defs><g id="g1"><path style="fill:#e60d2e;fill-opacity:1;fill-rule:evenodd;stroke:none" d="M0 0h800v500H0z" id="path2194"/></g><g id="g2223" transform="translate(-1167 317.2)scale(1.4945)"><path style="fill:#000000;fill-rule:nonzero" id="path14" d="M995-100.8q.4.4 1 .5 2 .4 4.6.1 3.1 0 5-1.1 1.5-.9 2-2.8v-7.2q0-2.2-.8-3.4a4 4 0 0 0-2.2-1.7h-.1a7 7 0 0 1-3-2.4q-1-1.5-.9-3.8l.4-8.6a7 7 0 0 1 1.3-3.4q.9-1.4 2.7-2a19 19 0 0 0 6-6q2.3-3.3.5-9.5l-.5-1.8c2.7 1.3 5.2 2.7 6.9 5.4l30.3-28.3.6-1.2q.2-.5.1-1.1-.2-3 .6-4 1-1.3 2.4-.5t1.8 2.5a36 36 0 0 1 2.3 14.7q-.7 5.9-4 9.2a976 976 0 0 1-23.8 26.2h1.5a273 273 0 0 0 30.4-20.9q.8-.6 1.2-1.6.6-1.3.8-2.7.3-1.8 1.1-2.2 1-.6 2 0 .7.5.8 1.4c2.3 20.8-1.9 24-6.6 27.4l-1.6 1.3q-13.4 9.1-27.5 17.2 13.5-3 27-7.2l5.2-1.5a10 10 0 0 0 6.4-5.4c.6-1.5 2.2-3.3 3.7-1.7q.5.6.6 2a30 30 0 0 1-3.2 16q-3.7 6-10.5 7.8a244 244 0 0 1-31 7.9 776 776 0 0 0 32.6 0c4.2 0 5.9-1.5 7.6-3 .8-.7 1.5-1.8 2.6-2.2 1.6-.5 2.5 1 2.3 2.3v.1a30 30 0 0 1-8.2 15.7 19 19 0 0 1-13.1 4.8 610 610 0 0 1-30.8.5l13.1 3.6q12.5 3 25.4 5.8 2.4.4 4.2-.1c1.8-.5 3.7-2.4 5.2-2.6 1.7-.1 2.5 1.7 1.9 3a35 35 0 0 1-10.8 13c-4.2 2.7-9.7 3.4-17.8 1.7a151 151 0 0 1-34.5-9.9l.4 1a475 475 0 0 0 39.6 22.7q4.2 2.1 8.8.7c3.7-1.6 4.8 1.5 2.4 3.7q-6.7 6.3-13.9 8.4a23 23 0 0 1-14.8-.9q-13.2-6.1-23.3-13 3.9 8.2 8 14.6c3.2 4.9 6.7 8.5 10.6 10l2.4.9-2.5.6c-9.6 2.8-16.3-2.1-21.1-8.4 4.3 8.6 9 15.9 16.4 16.2l5 .3-4.9 1.3q-2.7.9-5.3 1l9.2 12.3q1.5 1.7 3.2 1.9t3.8-1l13.6-6.3c1.8-.8 4.7 0 6.3 1.4l1.2.8q3.1 2 3.9 4.3c.8 2.4-.3 4.6-1.3 6.8-1.3-2-2.5-3.3-5-3.9a6 6 0 0 1-6.7.6l-9 2.8 12.5 2.9q1 .2 1.8.9 2.9 1.9 3.5 3.9.3 1 0 2c.4 2.3.4 5-1.2 7.2-1.4 2-3.6 2.6-5.8 3.2.5-2.4.5-4.2-.4-6.5q-2.4-.5-4.1-3.3l-9.7-3.9 6 10.8c.4.8.6 1.2.8 2.2q.3 3-1.1 4.4l-.6 1.2q-2 3.6-5 4c-3 .6-5.7-.8-8.3-2 2.3-1.2 5-2.2 5.7-5a7 7 0 0 1-.5-4.5l-4-10.6q-.2-.8-.5-.3l-8.6 9q.2 3.6-1.8 4.8v.1c.4 2 2.4 3.6 3.9 5-2.3.9-4.4 1.6-6.7 0a18 18 0 0 1-4.3-5.1l-.6-1q-1.5-1.3-.8-3.5c1.2-4 4.6-6.7 9.2-10.3l3.4-2.7q1.4-1 1.3-2.1c0-.7-.6-1.4-1-1.8l-21-19.5a36 36 0 0 1-8 14.7V10a53 53 0 0 0-13.4-35.3l-.7 3a77 77 0 0 0 9.2 29 29 29 0 0 0 19.2 14l1.8.3c-7.8 5.9-16 6.3-25.3 6.1l1.8 3.2a53 53 0 0 0 29.7 23.5l1.5.5a52 52 0 0 1-16.2 8.5c-6.4 2-9.2-1-13-5l-6-6.9q.8 3.1.8 7a43 43 0 0 1-4.2 16 26 26 0 0 1-8.7 11.1l-.5.3-.5-.4a36 36 0 0 1-9.4-11.7Q951.7 66 951 58q-.3-3 .5-6.3l-3.7 5.4q-2.2 3-4.8 4.8t-6.9 1.5q-6.9-.8-11.6-2.8t-8-4.8l-1-1 1.2-.4a62 62 0 0 0 32.6-27.3c-9.2.1-17-.4-24.6-6l1.8-.5a29 29 0 0 0 19.2-14c4.4-7 7.2-16.3 9-27q-.8-2.4-1.1-4.9a53 53 0 0 0-13.5 35.5v2.3l-1.5-1.8A31 31 0 0 1 932.2-2l-20 18.7q-2 1.4-.4 3.3l4 3.2c4.7 3.6 8 6.2 9.2 10.3q.6 2-.7 3.5l-1 1.6q-2.4 3.6-4.2 4.9c-2.2 1.3-4.3.4-6.4-.4 1.5-1.4 3.4-3 3.8-5V38q-2-1.3-1.8-4.9l-8.6-9q-.2-.2-.4.4l-4.1 10.6q.5 2.7-.5 4.5c.8 2.7 3.4 3.7 5.7 5-2.6 1.2-5.3 2.6-8.2 2q-3.1-.5-5-4l-.7-1.2c-1-1.2-1.6-3-.7-5.7v-.1l6.4-11.6-9.6 4a7 7 0 0 1-4 3.3c-1 2.3-.9 4.1-.5 6.5-2.3-.6-4.4-1.2-5.8-3.4-1.4-2-1.4-4.7-1.3-7.1 0 0 0-1.7.3-2.4q.9-2.2 4.6-4.2h.1l.1-.1 12.9-3-9-2.7a6 6 0 0 1-6.9-.6c-2.3.6-3.5 2.1-4.9 3.9L874 17a8 8 0 0 1-.8-5.7q.7-2.6 4-4.5c1.5-1.2 4.7-2.7 7-2.1l13.3 6.1c1.5.7 2.8 1.6 4.5 1.4q1.8-.3 3.2-1.9L914-1.3q-2.7 0-5.7-1l-5-1.3 5.1-.2c7.7-.4 12.5-8.3 17-17.5-4.6 7.2-10.6 12.9-21.7 9.7l-2.5-.7 2.4-.9q5.8-2.3 10.6-10c3.3-5 6.5-11.3 9.7-17.8v-.3q-1.8 1.5-3.9 2.9A173 173 0 0 1 896-25h-.1q-7.6 3-14.9.9a34 34 0 0 1-13.9-8.4 4 4 0 0 1-1.3-2.2q0-1.5 1.2-1.9c1.6-.4 4.6 1.1 6.7 1q2.2-.1 4.6-1.3A406 406 0 0 0 918.4-60l.6-.8a151 151 0 0 1-35.3 10.2c-8.1 1.7-13.5 1-17.8-1.6a35 35 0 0 1-10.7-13q-.4-1 0-2 .5-1.1 1.8-1 1 0 2 .9 1.4 1 3.3 1.6 1.8.5 4.2.1a724 724 0 0 0 38.4-9.4 471 471 0 0 1-30.8-.5 19 19 0 0 1-13-4.8 30 30 0 0 1-8.2-15.7c-.3-1.5.6-3 2.2-2.4 1.1.4 1.8 1.5 2.6 2.3 1.8 1.4 3.4 2.9 7.6 3a426 426 0 0 0 32.7-.1 310 310 0 0 1-31-8 17 17 0 0 1-10.5-7.7 30 30 0 0 1-3.3-16q0-1.4.7-2 .9-.9 2.1-.3a4 4 0 0 1 1.6 2q.9 1.8 2.4 3.2t4 2.2l5.1 1.5q13.5 4.2 27 7.2a424 424 0 0 1-29-18.5c-4.8-3.5-9-6.6-6.7-27.4q0-1 .9-1.4 1-.6 1.9 0 .8.4 1.2 2.2.2 2.5 1.9 4.3a323 323 0 0 0 30.6 21l.1-1.4a455 455 0 0 1-22.7-24.9 15 15 0 0 1-3.9-9.2 36 36 0 0 1 2.3-14.7q.5-1.6 1.8-2.5 1.5-.8 2.4.5.8 1 .6 4l.1 1.1.6 1.2 31.8 29.6.1-.3q2.3-3.5 6.6-6.4l1.9-1.2-.7 2.1q-1 3.6-.6 6.3c.5 3 2.3 4.6 4.6 6.2a12 12 0 0 1 5.2 5.9q.4 1.7.3 3.6v10.2q0 1.6-.6 3-.9 1.7-2.5 2.4c-2.3 1-4.6 2.1-4.3 4.5l.7 6.3q.4 3 2.2 3.9c2 1.1 5.6 1 7.8 1q4 0 5.6-.6.5 0 .8-.4 2.5-7.1 8.6-14.1-2.2-.6-4.2-1.7l2.7-.5q5.8-1 8.8-5.4c2.4-3.3 3.7-7.8 4.3-12.5-6.4-4.3-8.8-4.4-11.1-4.5-2.7-.1-8.3-1-7.7-4.8q-3.7.1-7.1-.7a12 12 0 0 1-6.7-4.8c-2.5-3-.7-2.9 2.2-1.4q1 .6 2.2.9 3.4.7 7 .6a88 88 0 0 1 10.2.6l-.3-1.6c-.2-1.5-.4-2.9-2.1-3.8q-1-.5-2.3-.5h-2.8c-1.2.1-2.4 1.2-3.3 2q-1 .9-1.7 1-1 0-1.2-1.2l.2-2c.1-3.8.3-7.7 5.7-8.3q3-.3 6 0h1.8q-.3-6.6 2.4-9.3 3-2.9 8-3.1A50 50 0 0 1 972-174c6.4 1.5 12.7 3 19.5 1.1l.6-.1.3.6q1.4 3.2-.7 5.6-1.2 1.7-3.4 3.1c2.9.6 4.9-.2 7.3-1.2l-.7 1.8q-1.6 3.6-4.5 5.5-2.6 1.7-6 2.8-1.4 10.8.7 17.6a21 21 0 0 0 6.3 10.5l1 .8c-1.9 1-3 1.3-5 1q.3 3.1 1.6 5.6c1.5 2.7 3.7 3.6 6.3 4.6a11 11 0 0 1-5 2q3.3 6 4.5 11.8"/><path style="fill:#ffffff" id="path16" d="M898.8-132.8q4.2-.5 8.2.7a220 220 0 0 1-16.1-20c4.8 4.1 15.4 17.2 17 16.7a16 16 0 0 1 1.1-10l-.2-.7-31-28.9a5 5 0 0 1-1.8-2.5l-.2-1.7c0-.1.2-3-.3-3-.6.2-1.1 1.3-1.2 1.6q-2.9 8.7-2.3 14t3.6 8.3a970 970 0 0 0 23.2 25.5m-2 3.8a273 273 0 0 1-31.6-21.6 7 7 0 0 1-1.6-2.2q-.6-1.3-.9-3.1-.1-1-.4-1.1-.2-.1-.3.1c-2.1 20 1.7 22.8 6 26 9.7 7 21 13.8 31.6 19.8q2.6-.8 6-.8a21 21 0 0 1-4.5-4.2l-1.3-.9c-5.1-3.7-9-6.6-14.5-11 4.7 2.5 9.8 5.6 13 6.8a23 23 0 0 1-1.4-7.8m-1 19.5q-13.6-3-27.1-7.2c-3.4-1-7.2-1.7-9.8-4q-1.8-1.7-2.8-3.8c-.2-.4-.9-2-1.2-.9v.5q-.3 9.7 3 15.2a15 15 0 0 0 9.5 7 242 242 0 0 0 31.7 7.8q-4-1.4-6.5-5c-4.1-4-13-5.6-20.1-7.7 8 1.5 14 2.7 18.7 2.7a13 13 0 0 1 4.5-4.6m2.4 18a784 784 0 0 1-33 0c-4.7 0-6.6-1.7-8.5-3.4l-1.7-1.7q-.7-.5-.5.3Q857-86 862-81.6q5 4.5 12 4.4h.1a609 609 0 0 0 26.8.6q-4.6-1.2-9-5.7c-4.8-.6-11.6-1-18.3-1.5 6.2-.3 13.5-.4 18.5-1.2q2.1-4.1 6-6.6m9.2 17.5q-7.4 2.3-15.2 4.2c-8.7 2.2-16.9 4.5-25.7 5.9q-4.7.7-8.5-2-.5-.6-1.1-.7-.5.2-.2.6c3.2 5.7 6.1 10 10 12.4s9 3 16.7 1.4a149 149 0 0 0 29.1-7.8q-4.1-.3-9.4-3.4c-2.8.4-9.5 2-18.6 3.1 11.8-3 15.1-4.2 17.7-6.3l.4-.2q1.7-4 4.8-7.2m9.2 17.1a475 475 0 0 1-37.7 21.5q-2.7 1.4-5.2 1.5t-4.8-.6c-.2-.1-1.6-.7-1.5-.3q0 .5.7 1.2 6.5 6 13.2 8 6.7 1.8 13.9-.8 13.5-6.4 23.8-13.4 5.5-3.7 9.8-7.8l-2 .8q-4 1.2-8.7 0h-.3c-4 2.2-8 4-16.8 8.3a71 71 0 0 0 14-9.7v-.2q-.3-4.5 1.6-8.5m28.3 7.4a42 42 0 0 1-8.4-35 25 25 0 0 1-.1-14c-1.8.5-4 .5-5.7.5-4.4 0-7-.3-8.7-1.3-1.8-1-2.6-3-3-5l-.7-6.4c-.4-3.6 2.4-4.9 5.3-6.2q1.1-.6 1.8-1.6.4-1 .4-2.2v-10.7c0-2.2-.3-3.5-1.8-5.2-1.5-1.9-3.8-2.8-5.5-4.5a9 9 0 0 1-2.8-5.3q-.4-2.2.1-4.9a18 18 0 0 0-4.3 4.7 15 15 0 0 0-2.2 8q0 4 2 7.1 1 1.6 2.5 2.9c1.4 1 .6 2.5-1 1.3a24 24 0 0 0-6.6-3.3q-3.6-1.1-7.6-.5-.4 7.5 2.4 12 3 4.8 8.2 7.4c.3.4 0 1.6-.5 1.6q-7-.6-11 1.4-3.5 1.8-5.3 5 2.6 5.8 7.2 7.3 4.7 1.5 10.4 1.3c1.3 0 .8 1.6 0 1.6q-6.7.6-10.7 3.2-4.1 2.5-6.1 7a17 17 0 0 0 12 5.7q5.4-.2 11.1-2.4c3-1.3 3.5.4.6 1.6a27 27 0 0 0-8.1 5.3q-3.5 3.6-5 8.1c4.5 2.7 7.9 3.8 11.1 3.3 3.3-.4 6.4-2.4 10.3-5.8 1-.8 1.6.8 1 1.3q-5.2 4.9-7.5 8.9a16 16 0 0 0-2.1 8.3q5.2 1.8 9.7.6 4.8-1.4 8.8-6.4l1.1-1.4c.5-.4 1.2 0 1 .6l-.8 1.8-2.5 4.4q5-1 11 0M941-29.9l.2-.4zq-.5-.5-2.8 4.1l-.5 1a61 61 0 0 1-10.6 16.1c-4 4-8.8 6.2-14.6 5.6 7.6-3 12.2-12.8 16.9-22.9q2-4.6 4.2-8.8c1-1.7 0-3.3-1.3-1.5q-2.4 3.5-4.7 7.8c-4.7 8.5-9.9 17.8-21.3 15.8q4.9-3 9.2-9.6c3.4-5 6.5-11.4 9.8-18q2.7-5.9 8-7.3l3.4-.6h5l4 .5q.3 5.4 2.3 10.5 1.7 4.5 4.3 8.8l.6 1.6a53 53 0 0 0-14.2 34.6c-8.7-12.2-5-20.4.7-32.3q2.2-4.6 1.6-5.4m15 12.7a72 72 0 0 1-8.7 24.8 31 31 0 0 1-18.4 14.3 41 41 0 0 0 21.5 3.7 73 73 0 0 0 7-20c-1.8 3-4.1 6.2-7.6 8.4a52 52 0 0 0 9-19.7q.5-2.8.5-5.6a31 31 0 0 1-3.3-6m27 24.9a74 74 0 0 1-8.9-26.1 35 35 0 0 1-3.6 7.5q-.1 2.6.5 5.1c1.4 6.6 4.9 14 8.6 19.8a41 41 0 0 1-7.6-9.3 79 79 0 0 0 7.2 21c7.3 0 15.8.2 22.3-3.7Q989.6 18.5 983 7.6M960.7-9.3A80 80 0 0 1 949.1 31a64 64 0 0 1-30.4 24.6 28 28 0 0 0 6.6 3.7q4.5 2 11 2.6 3.7.3 6-1.2t4.3-4.4q4-5.4 7.1-10.8l3.8-8.4a76 76 0 0 0 6.5-16.9l1.3-6.2.3 5.6.2 1.3q1 7.5 3.9 13.7l3 5.3 3 5.5q4.2 6 9.5 11.5c3.3 3.6 5.8 6.3 11.2 4.5a50 50 0 0 0 13.1-6.3 55 55 0 0 1-29-23.7 81 81 0 0 1-11.7-40 34 34 0 0 1-3.7 3.9q-2.4-2.1-4.4-4.5m2.2 38.4-3.9 8.6c-3.5 7.2-6.8 14.2-6.3 20.3q.6 7.6 4.1 14.5 3.3 6.4 8.6 10.9c3-2.1 5.6-5.8 7.6-10a40 40 0 0 0 4-15.4c.2-7.2-2.7-12.2-5.8-17.4a60 60 0 0 1-5.1-10.3c-.3 7.6-.3 13-1 21.7-1.2-9.2-.6-14.5-2.2-22.9m33.6-62.8q2 3.7 3.6 7.6c4.7 10 9.3 20 16.9 22.9-5.9.6-10.6-1.6-14.6-5.7A61 61 0 0 1 991.8-25l-.5-1q-2.4-4.8-2.9-4l-.1-.5.1.4c-.2.4.3 2.6 1.7 5.5 5.7 11.9 9.4 20 .8 32.3a53 53 0 0 0-14.3-34.6l.6-1.8a33 33 0 0 0 4.7-9q1.5-4.6 2.1-10.2 6.9-1.2 12.1.2 5.4 1.3 8.1 7.2c3.3 6.7 6.4 13 9.8 18a30 30 0 0 0 9.2 9.7c-12.5 1.9-19.5-11.2-23.7-19.3l-1.6-2.9q-1.5-2.6-2-2c-.5.6.3 2.7.6 3.3m13.1-23.3a475 475 0 0 0 37.9 21.6q2.8 1.4 5.2 1.5c1.4.1 3.6 0 4.9-.6 1.5-.7 2-.3.7 1q-6.5 5.9-13.2 7.9-6.7 1.8-13.8-.8a171 171 0 0 1-25.4-14.5l-.2-.3a14 14 0 0 0-7.3-7.5l-.3-.5 2 1.1a16 16 0 0 0 8.6 1.4c3.9 2.1 8 3.9 16.7 8.2-8.7-5-12.2-8-14.8-10.6q.1-4.2-1-8m10.2-16.8 14.4 4q12.6 3 25.4 5.8a11 11 0 0 0 8.9-2q.4-.5 1-.6.5.2.3.6c-3.3 5.7-6.2 10-10.1 12.4-4 2.4-9 3-16.7 1.4a149 149 0 0 1-30-8.2q4.8.6 11.4-2c2.9.4 9.5 2 18.5 3-11.8-2.9-15.1-4.2-17.7-6.3a20 20 0 0 0-5.4-8m6.3-17.9a835 835 0 0 0 35 .2c4.8 0 6.7-1.7 8.7-3.4l1.5-1.6q.7-.8.7.2-2.7 10.4-7.7 14.7-5 4.5-12 4.4a609 609 0 0 1-26 .6q4.2-1.3 8.3-5l.4-.4-.1-.3c4.7-.7 11.3-1 17.8-1.5-6.6-.3-14.4-.5-19.5-1.4a20 20 0 0 0-7.1-6.5m4.3-17.8c9.2-1.8 18.3-4.5 27.4-7.2l5.2-1.5a12 12 0 0 0 4.5-2.6c1.5-1.3 2.2-2.8 3.2-4.4.3-.5.7-1 .8 0v.3q.3 9.7-3 15.2a15 15 0 0 1-9.5 7 242 242 0 0 1-28 7.3q4.2-2 7.4-6.8c4.6-2.6 11.6-4 17.4-5.7-8.1 1.5-14 2.7-18.8 2.7a24 24 0 0 0-6.6-4.3m-11.7-37.6 30.7-28.6a5 5 0 0 0 1.2-3.5v-2.3c.3-1.6 1.3.2 1.5.8q2.9 8.8 2.3 14.2-.7 5.2-3.5 8.2a971 971 0 0 1-24.6 26.8l-1.8.8-1.9.5q-3.2.9-6.2 3l1.2-3c4.7-5.2 13.4-15.4 18-21.8-4.4 3.6-13.3 14.4-16.3 16.3q.8-3.3.6-6.5a14 14 0 0 0-1.2-4.9m13.7 16.4a278 278 0 0 0 26.8-18.3c1.5-1.2 2.8-2 3.6-3.8.6-1.2 1-3.4 1.1-4q.3-.4.5 0c2.2 19.8-1.7 22.7-6 25.9l-1.5 1.2-.2.1a405 405 0 0 1-30.5 18.8l-2.8-.4a36 36 0 0 0 6.8-7.4l1.6-1c5-3.8 9-6.7 14.5-11-5 2.6-10.4 5.8-13.5 6.9h-.1q1-2.7 1-6l.1-.7zm-36.7 32h-.4a39 39 0 0 1-.3 13.5l-.1.7h-1.5q1.1 10.7-1 18.8a34 34 0 0 1-8.1 14.7l-.1 1.3h.5q6.3-.9 11.5.3l-2.5-4.5c-.8-1.2.9-1.7 1.6-.6a14 14 0 0 0 5.4 5q3.4 1.5 8.2 1 .3-5.1-1.3-9.3a17 17 0 0 0-5.3-7.3c-.7-.6 0-2.1 1.1-1.3l.7.7q3.4 2.7 7.8 3.6 5 .9 12-2-1.4-5-4.9-8.2-3.4-3.2-8.2-5.3c-1.5-.7-1-2.2.5-1.6q5.2 2 10.6 1.8c3.6-.3 7.3-1.7 11-5a19 19 0 0 0-6.2-7 36 36 0 0 0-9.8-3.8c-1.4-.1-1.8-1.4.1-1.6 3.8-.1 8.7-.2 12-1.5q4.5-1.7 8-6.7a22 22 0 0 0-15.7-6.7c-1.6 0-1.5-.8-.6-1.5q4.6-3.4 7.8-7.8 3-4.1 3.6-10-5-.8-9 .4-4.4 1.3-8.3 4.5-2.5 1.5-1.3-1c2.8-5.5 5-11.7 4.7-17q-.2-5.2-4.6-8.5 1 5.4-1 8.9-2 3.1-5.1 5.3c-1.2.9-3 1.6-3.9 2.8q-.7 1-1 2.5l-.3 8.5q-.1 1.8.6 2.9.8 1 2.2 1.8a6 6 0 0 1 3 2.2q1.2 1.6 1.2 4.4l-.1 7.3v.1q-.4 2.7-2.8 4a13 13 0 0 1-5.7 1.4q-2.8.3-5-.2m-45.8-72.9q-2.3 2.3-2 8.2l1.2.1c1.7-7.5 8.2-8 16.6-6.4q5.4 1.1 11.4 3l9.4 2.5q2.5-1.7 4-3.5 1.2-1.4.8-3.3c-6.9 1.6-13.2.2-19.5-1.3-5-1.1-10-2.3-15-1.9q-4.4.3-6.9 2.6m23.2 26.4c4.1 5 5.2 9.2 5.2 14 2.6 2.6 6 4.6 11 4.9a23 23 0 0 1-5.7-10.4 46 46 0 0 1-.7-18.2q-11.3-6.1-19-8.2.6 1.8-.4 3.4-1.2 1.8-3.4 2.3-2.3.6-4.1-.7-2-1.2-1.9-4.8a5 5 0 0 0-1.5 1.4l.5.7q1.4 2.3 1 6.4c5 2.9 7.3 6 7.8 9.3s-.7 6.7-3 10.2c-.5 5-2 9.8-4.6 13.4q-2.4 3.5-6.4 5.2h1.3v.1q5 .3 9-.7 4.5-1 8-3.5l-.4-1c-1-3-1.4-5.3-1.2-8.7 0-1.2-.2-2.2 1-2.1 1.1 0 .7 1.3.7 2.3a19 19 0 0 0 5.8 15.3c2.5-5 4.3-10 4.5-15.1.2-5.2-.6-9.5-4.9-14.7q-1.1-1.1-.4-2c.7-.6 1.3.6 1.8 1.2m-25.3 30.5a44 44 0 0 0-9.2 14.7 24 24 0 0 0-.7 14q7.9-4.9 12.5-11.7a31 31 0 0 0 4.9-17l-1.3.1q-3 2.3-5.6 6c-1.2 1.7-3 3.5-5 8.2 1-5 3.3-7.8 4.2-9q1.9-3 4-5-1.9 0-3.8-.3m-9.7 30.5q-1.8 10.5.5 19.1a40 40 0 0 0 8 15q3-2.5 5.1-6.4a27 27 0 0 0 2.9-10 24 24 0 0 1-6.8-9.3 37 37 0 0 1-2.7-11.7q-1.5 3.4-1.7 7.5c-.2 2-.5 4.2-.3 10.6-1.5-6.6-1.1-8.9-1-10.6q.2-4.3 1.5-8a54 54 0 0 1-5.5 3.8m9.1 35.8q.4 5.5 2.3 10.7 2 5 5 9.8a29 29 0 0 0 9.3-16.1 14 14 0 0 1-6-7.2q-1.5-3.4-2.3-8-1.2 3.3-1.6 7c0 2-.2 4 .3 9.6-1.9-7-1.5-8.6-1.4-10.1l.2-2.7a25 25 0 0 1-5.8 7m8 22A30 30 0 0 0 965.1-7q7.5-7.2 9.5-20.2a22 22 0 0 1-9.1-10.9l-.4 17.8-1-18.4a29 29 0 0 1-8.9 12.5m20-2.4q3.3-4 5-9.4 2-5.6 2.4-12.7a17 17 0 0 1-6.2-6.2q.3 2.7.2 5.3c0 1.7-.2 4-1.3 8.3 0-3.6.4-6.6.3-8.2q0-3.5-1-7-.9 4.6-2.5 7.6a19 19 0 0 1-6.2 7 20 20 0 0 0 2.9 9 20 20 0 0 0 6.5 6.3m8-23.6q5.4-5.6 7.5-13.7a50 50 0 0 0 1-19 35 35 0 0 1-6.4-4.3l1.1 9.1c.2 1.7.5 4.8-.1 10.8l-1-10.2q-.5-3.7-1.2-7-.6 4.9-2.2 9.4-2.1 6.4-6.4 11.2.4 4.8 2.4 8.3 1.9 3.3 5.4 5.4M973.8-66a19 19 0 0 1-6.2-7.8 30 30 0 0 1-1.7-5.1l-1.2 22.2-.3-22.7a32 32 0 0 1-8 13.4 47 47 0 0 0 3 14.2q2 5 5.5 6.6a17 17 0 0 0 5.9-6.5 36 36 0 0 0 3-14.3M964-86.4a31 31 0 0 1-8.3-17q-1.4 4.6-1.5 9.3c0 2-.3 7 .3 11.9-2-6.4-1.5-10.1-1.5-12q0-3 .5-5.8a32 32 0 0 1-7 9.3q.2 8.5 2.7 14.3a22 22 0 0 0 6.4 8.6 33 33 0 0 0 8.4-18.6m18.8-5.3a38 38 0 0 1-6.6-9.1l.2 3.6c0 2-.4 9.2-1.6 14.3-.1-6 .3-12 .2-14.2 0-2.8-.7-6-1.6-8.2a32 32 0 0 1-7.2 19.3q.6 6.8 2.7 11.4 2.1 4.5 5.5 7.1a33 33 0 0 0 5.9-10.4 47 47 0 0 0 2.5-13.8m10.6 5.5a37 37 0 0 0-5-26.4q-2.8-.6-5.7-2.5l2 3.6c1 1.6 2.3 3.6 3.8 10.3-2-4.7-3.9-8-4.8-9.6a44 44 0 0 0-7.4-9.6q-1.4 3.8-3.2 7.4a54 54 0 0 0 7 15.4 34 34 0 0 0 9.6 9.4c1 .7 2.6 1.8 3.7 2M967-118.9l-1.5 1-.8 15.6-.8-14.8q-3 1.5-6.4 2.1-1.1 8 .8 15.1 1.9 6.6 6.9 12.2h.5q3.4-4.7 5.1-10.4 2-6.4.7-14.8a23 23 0 0 1-4.5-6m24.6 4.4q-2.6-1.5-3.9-4-1.5-2.9-1.8-6.7-2.5-.5-4.6-1.7l-3-2.1q-.2 3.4-1.3 6.9 3 3.1 6.6 5.5c2.5 1.6 5 3 8 2.1m-35.7-49.1q-.3 3.2 1.1 4.2 1.3.7 2.8.4 1.6-.4 2.4-1.6.9-1.2-.2-3l-2.6-.3q-.5.7-.5 1.6-.1 1 .4 1.7l.2.6-.5-.2q-1-.2-1.5-1.1-.5-.8-.2-2.6zm-5 .8.5.3q3.2-4.4 11.6-2.5a85 85 0 0 1 21 8.7q3.1-.8 5.7-2.6a11 11 0 0 0 3-3l-2.1.2c-3.8-.1-9.8-2.4-13.8-3.5q-6-1.7-11.3-2.9c-7.5-1.5-13.4-1-14.7 5.3"/><path style="fill:#000000;fill-rule:nonzero" id="path2195" d="M963.3 8.2c.3-1 .5-2.3 1.8-2.3q.6 0 1 .4c1.6 1.9 2.7 9.3 4 12.3q3.1 8.5 7.5 16.4c-6-7-7.4-15-11.2-22.2-.4-.8-1.7-.9-2.3.3-4 7.7-6.3 16-13 23.6a97 97 0 0 0 12.2-28.5"/><path style="fill:#e6b012" id="path2197" d="M917.8 39.5q-.7 1.7-2 3 1.4.3 2.4-.3t2.1-2.2q-1 .2-2.5-.5M896 43.3c2 2.3 4.5 2.3 7.2 1.2q-1.7-.9-3-2.5a8 8 0 0 1-4.2 1.3m-17-12.6q.3 3.4 3.5 4.8-.1-1.6.2-3.1a6 6 0 0 1-3.7-1.7m-2.6-21.3q-2.5 2.3-1.4 5.7 1.2-1.2 2.7-2a6 6 0 0 1-1.3-3.7M1012.6 40q-1.6.6-2.8.1c1.2 1.6 2.6 3.2 4.8 2.9a9 9 0 0 1-2-3m21.8 3.8q-2.3 0-4.2-1.3-1.2 1.5-3 2.6c2.7 1 5.3 1 7.2-1.3m17-12.4q-1.5 1.3-3.7 1.5.4 1.5.3 3 3.3-1 3.4-4.5m2.6-21.3q0 2-1.2 3.6 1.5.6 2.6 1.9 1.5-3.3-1.4-5.5m-31.7-.4-7.6-10.2q-5.4-.5-10-4-3.8-3-6.8-6.2l.4 2.7q.4 2.7.4 4.7l20.7 19.3.2.2q1.3 1.4 1.4 2.7c.2 2.6-3.6 4.8-5.4 6.2-4.4 3.4-7.5 5.9-8.6 9.5q-.5 1.5 1 2.4c1.2.9 3.2 1.2 4.7.4q1.6-.8 1.3-3.8v-.4l.3-.3 8.9-9.3c.6-.5 1.5-.9 2.2-.4q.7.5 1 1.3l4 10.8.1.3v.2q-.6 3.5 1.4 5c1.2.9 3.2 1.2 4.4 0q1.2-1 .4-4l-7.5-13.4-.7-1.3.6-.3 1.2.4 12 4.9.4.1.1.3c1.1 2.2 3 3 4.8 2.8 1.7-.1 4-1.3 3.9-3.3q0-2-4-4.3l-15.8-3.6-1.4-.3-.2-.8 1.6-.5 12.4-3.8h.3l.3.1c2 1.2 4 .8 5.2-.2 1.4-1 2.5-3.3 1.6-5q-.8-1.6-4.8-1.8l-13.7 6.3a7 7 0 0 1-4.8 1.2 7 7 0 0 1-3.9-2q-1.1-1.1-2-2.6M915.7-1l-9.2 12.3v.1a7 7 0 0 1-4.3 2.4q-2.2.3-4.7-1.2l-13.8-6.3q-4 .2-4.7 1.8c-1 1.7.1 3.9 1.5 5 1.3 1 3.2 1.4 5.2.2l.3-.2.4.1 12.3 3.8 1.2.4.1.3.2.5-1.5.4-15.8 3.6q-4 2.2-4 4.2c-.1 2 2.2 3.3 4 3.4s3.6-.6 4.7-2.8l.2-.3.2-.1 12.2-4.9 1.2-.5.4.5-.6 1.2-7.5 13.5q-.8 2.9.4 4c1.2 1 3.2.7 4.4-.1 1.2-1 2-2.6 1.4-5v-.5l4.2-10.8q.2-.8 1-1.3.7-.5 2 .3h.1l9 9.4.2.3v.3q-.3 3 1.4 3.9c1.4.8 3.4.5 4.7-.5q1.6-1.1.7-3c-1.2-3.2-4.3-5.6-8.4-8.8l-4-3.3h-.1l-.2-.2a4 4 0 0 1-1-2.7q0-1.4 1.3-2.7l.3-.2 20.6-19.3v-4.4l.2-2.7q-2.9 3.3-6.5 6-4.4 3.5-9.7 3.9m36.4-145q1.2.8 1.7 2.2a55 55 0 0 0-12.6-1.9c-3.2.1-7.2 0-10-.7s-3.6-2-5.4-3.7c3.3 1.5 6.3 2 10.1 1.9h2.4q10.1-.1 13.8 2.2m5.9 9.6q2.8-4.5 2.3-8.4-.6-4.4-7.4-8.4l-.5-.3v-.5q.5-3.9-.7-6-1-1.6-4.1-1.8c-2.8 0-6.2-.3-9 0-3.9.5-4 3.7-4.2 6.8v.8c1.2-1 2.6-2.2 4.3-2.3h3q1.6 0 3 .6c2.4 1.3 2.7 3.2 3 5l.1 1.1c3.6 1 6.8 2.7 8 6.4q.9 2.9-1.7 1.7-2.6-1.4-6-1.8-3.8-.5-8-.4c-.1 1 .7 1.5 1.5 1.9q2.8 1 4.6 1c2.5 0 5.2.2 11.8 4.6"/></g><!-- app4joy --></svg>