<svg xml:space="preserve" width="800" height="500" style="shape-rendering:geometricPrecision;text-rendering:geometricPrecision;image-rendering:optimizeQuality;fill-rule:evenodd;clip-rule:evenodd" viewBox="0 0 800 500" id="svg2" xmlns="http://www.w3.org/2000/svg"><g id="g1"><path id="rect10" style="fill:#48a5f7;stroke-width:3.80952" d="M0 0h800v500H0z"/><path id="rect12" style="fill:#ffffff;stroke-width:3.80952" d="M150 0h500v500H150z"/></g><g id="g2" transform="translate(0 -315.7)scale(3.80952)"><path id="_131888952" d="M70.7 108v46.2c0 19 15 34.8 34 34.9 16.8 0 34.6-12 34.6-33.6v-46l-1.4-1.6z" style="fill:#000000"/><path id="_131889024" d="M104.3 187h1c10.1 0 21.4-5.1 27.5-15.9q4.2-7.4 4.4-18.2v-44.4h-32.9v1.2h8.5l-.9 1.4-.2.2-.1.2-.2.3-.1.2-.2.2-.1.3-.2.2-.1.3-.2.3-.2.2-.1.3-.2.3-.1.3-.2.2-.1.3-.2.3-.1.3-.2.3-.1.3-.1.2-.2.3-.1.3-.1.3-.1.3-.1.3-.1.2v.1l.3-.1.3-.1.3-.1.2-.1.3-.2.3-.1.3-.1.3-.2.3-.1.3-.2.2-.1.3-.2.3-.1.3-.2.2-.1.3-.2.3-.1.2-.2.3-.2.3-.1.2-.2.3-.1.2-.2.2-.1.3-.2.2-.1 1.3-1v17l-1.3-.9-.2-.1-.3-.2-.2-.1-.2-.2-.3-.1-.2-.2-.3-.2-.3-.1-.2-.2-.3-.1-.3-.2-.2-.2-.3-.1-.3-.2-.3-.1-.2-.2-.3-.1-.3-.1-.3-.2-.3-.1-.3-.1-.3-.2h-.2l-.3-.2-.3-.1-.3-.1v.3l.2.3v.3l.2.3.1.3.2.2v.3l.2.3.2.3.1.3.2.3.1.2.2.3.1.3.2.3.1.3.2.2.2.3.1.2.2.3.1.2.2.3.1.2.2.3.1.2.2.2 1 1.4h-8.6zm27.9-22.6.2-.1.1-.1h.3l.5-.2v.8h1.2v.6l-.1.1v.1h-.1v.2l-.1.1v.2h-.1v.1l-.2.2-.1.2h-.2v.1h-.2l-.2.1h-.6v.2h.1v.2h.1l.1.2.2.1.2.2.2.4-.4.2h-.2v.1h-.7v.2h.1v.1l.2.2v.3l-.2.3h-.8v.6h-.2v.1l-.3.2-.3-.2v.2h-.1v.2l-.2.1v.1l-.1.1-.1.1v.1l-.2.1v.1h-.1v.1l-.2.1.2.1.1.1.2.2v1h-.4v.8h-.1v.1l-.1.1-.1.1-.1.1h-.3v.1h-.1l-.7.2.1-.4v-.1h-.3l-.2-.2h-.2l-.6.4v.5l-.2.1v.1l-.1.1-.1.1v.1h-.1v.1h-.1l-.2.1h-.3l-.4.1-.1.1v.1h-.1v.1h-.1v.1c-.3.3-.2.2-.3.5l-.5-.5h-.1v-.1l-.1-.1-.1-.2v-.6.1l-.1.1v.2h-.1v.1h-.1l-.1.1v.1l-.2.1h-.2l-.1.1h-.3v.1l-.6.2v-.6h-.2v.1h-.1v.1l-.2.2h-.2l-.3.1-.2-.5v-.8h.1v-.1l.1-.1v-.8h.1v-.1h.1v-.2h.2q0-.4-.4-.3l-.3.1-.1.3-.3-.7v-.6l.1-.1v-.2l.3-.3.1-.1h.9v-.3h.4l.1-.1h1v.4h.1v.2h.4l.1.1h.2l.1.2h.1v.1h.6v-.1l.2-.1h.1v-.1h.1l.1-.1h.1v-.1h.2l.2-.1v-.1l.2-.1.2-.1v-.1l.2-.2v-.3h.1v-.2l.1-.1v-.5h.1v-.5h.1v-.3h.1l.1-.2v-.1l.1-.1v-.6l-.6-.4v.4l-.2.1v.1l-.1.1-.1.1v.1l-.2.2h-.1l-.3.2-.2-.2v-.1l-.1-.2-.1.2h-.1v.1l-.2.2h-.2l-.6.2v-.1h-.8l-.6-.5q.5 0 .5-.3l.1-.2h.1v-.1h.1v-.2h.1v-.3h-.8v-.8h.1v-.3l.1-.2v-.4l.1-.1v-.4l.2-.2.1-.2.1-.1.2-.3h.3v-.1h.2v-.3l.1-.1v-.2h.1v-.2l-.1-.1v-.2l-.1-.2v-1.8h.1v-.3h.1v-.3.1l-.1.1h-.2l-.1.1h-.2l-.1.1h-.1v.1h-.3v.1l-.2.1-.2.1h-.1l-.1.1h-.2v.1h-.2l-.2.1h-.2v.1h-.1l-.1.2h-.2v.1l-.1.1v.1h-.1v.1l-.1.1-.1.1h-.1v.1h-.1l-.1.1v.1h-.1v2.5l-.1.1v.5l-.1.2v1.6h.1l.1.1h.1v.1h.1v.1l.1.1v.3l.1.2v.3h-.1v.4l.1.2v.4h-.1v.1l-.1.1h-.2v.1h-.2l-.2.1h-.5l-.1-.1h-.2v-.2l-.2.1v.1h-.1v.1h-.1l-.1.1v.2l-.2.1-.1.1-.2.1-.1.2h-.1l-.1.1h-.1v.3l.2.1v.7l-.1.3-.2.3v.1l-.1.1v.1h-.1v.1h-.1v.1l-.2.1h-.4l-.7.1.2-.3v-.4h-.3v-.3.2l-.1.1h-.1v.2l-.1.2-.1-.1-.1.2v.1l-.1.2v.3l.1.3v.4h-.2v.1h-.1v.1h-.1v.1h-.1l-.2.2h-.2v-.1h-.2v.1l-.1.1v.1l-.1.1v.5h-.7l-.1-.1h-.1v-.1h-.1l-.2-.2v-.4l-.1-.1v-.1h-.1l-.3-.2v-.1h-.9l-.3-.1-.2.2q-.4 0-.3.4l-.4-.8v-1.1l.1-.1.1-.2h.1v-.6l.1-.2h.1v-.1l.2-.1.1-.1h.1l.2-.2h.1-.1v-.1h-.1l-.2-.2-.1-.6-.2-.1h-.6v-.9h.1v-.1l.2-.1h.1v-.1l.2-.1h1.1v-.1h1v.1h.1v.1h.1l.2.2v.5h.2v.1h.5l.1.1h.2l.1.1h.1v-.1l.1-.1.1-.1v-.1h.1v-.2h.1v-.1l.1-.1.1-.1v-.1h.1v-.1h.1v-.2h.1v-.1l.2-.1v-.2h.2v-.1l.2-.1V166h-.1v-.1h-.1v-.2l-.1-.1v-.2l-.1-.1v-.2h-.1v.1h-.1v.1l-.2.1v.1h-.1l-.2.2h-.3v.1h-.9v-1h.2-.1l-.2.1h-1v-.1h-.2l-.2-.2v-.5h-.2v-.2l-.2-.1v-1.1h.5l.2.1v.1h.1v.1h.6v-.1l-.1-.1-.1-.1v-.1h-.1l-.1-.2v-.4l-.1-.4h1.2l.1-.1h.7v.1h.3l.1-.1v-.2h.2v-.1h.1v-.1h.1l.1-.2h.3v-.1l.2-.2h.2v-.1h.1l.2-.1h.1l.1-.1h.1l.1-.1h.2l.1-.1h.3v-.1h.3l.1-.1h.1l.1-.1h.2l.1-.1h.3v-.1h.3v-.1h.2l.1-.1.2-.1h.3l.1-.1.2-.1.1-.1h.1l.2-.2h.4l.1-.1.2-.1h.1l.1-.1h.1l.1-.1h.1l.1-.1h.1l.1-.1h.1l.2-.1.2-.1.2-.1.1-.1h.3v-.1h.2-.2v-.1h-.2v-.1h-.1l-.1-.1h-.2l-.1-.1h-.2v-.1h-.2l-.1-.1h-.1v-.1h-.2l-.1-.1h-.2v-.1h-.1v-.1h-.1l-.1-.1-.3-.2h-.1l-.1-.1-.1-.1h-.1v-.1h-.1l-.2-.1v-.1l-.2-.1v-.5h-.2l-.1.1h-.2l-.6.2v-1.3l-.1.1h-.1v.1l-.2.2h-.2l-.1.1-.1.1h-.4l-.5.2v-.3h-.1l-.2.3v.1h-.1v.1h-.1v.1h-.2v.1l-.1.1-.2.1-.1.1-.2.2h-.1l-.1.1h-.1v.1h-.1l-.1.1h-.1v.1h-.1l-.1.1h-.1v.1h-.1v.3l.1.1v.4l.1.4h.2v1.2h-.1v.2l-.1.1h-.1v.1h-.1l-.2.2h-.2l-.3.1-.1-.3v-.1h-.1v-.6h-.1l-.2.1h-.2v-.1h-.1l-.3-.2v-.2h-.1v.1l-.2.1v.3h-.4l-.1.2h-.3v1.1h-.1l-.1.3h-.8v.2l-.2.1v.2l-.1.6-.9-.2-.1-.2-.2-.2v-.9l-.1-.2h-.1l-.2-.2v-.3.1h-1v-.2l-.1.2.1.3h-.5l-.2-.2-.2-.1-.1-.1v-.1l-.2-.2v-1l.1-.2h.2l.1-.2h.4v-.7l.1-.1.1-.1h1v-.2h-.9v-1h.1v-.2h.1v-.1h.2v-.1h.1l.2-.1h1v.3h.1l.2-.1h.5l.2.1v.1h.1v.1l.1.1v.2l.1.1h.3l.2-.1h.3v-.1h.1v-.1h.3l.1-.1h.2v-.1l.1-.2h.1v-.1h.1v-.1h.1v-.1l.2-.1.1-.1h.1v-.1l.1-.1v-.1l.1-.1.1-.1v-.1l.1-.1v-.1l.1-.1.1-.1.1-.1h.1v-.3h-.2l.2-.3h-.6l-.2-.2-.3-.5.3-.1.2-.1.1-.1h.1l.1-.1h.1v-.1h.1v-.1h.1v-.3h.1v-.5l.1-.1v-.2l.1-.1v-.2h.1v-.1l.1-.1v-.1l.1-.2h-.2l-.1-.1h-.3v-.2h-.3v-.6l.2-.2h-.4v.1l-.1.2h-.1v.1h-.1v.1l-.3.3v.1l-.2.2v.1h-.1v.1h-.1l-.1.1-.1.1h-.1v.1h-.9l-.1-.1-.3-.2.2-.3v-.2l.1-.2h.1v-.1l-.2-.2v-.6h-.7l-.1-.1h-.3v-.1h-.1l-.2.1v.1l-.2.1-.1.1h-.1l-.2.1h-.1l-.2.1-.2-.2h-.1l-.2-.2v-.2l-.3.2h-.4l-.3.3-.3-.3-.2-.2v-.7h.2v-.1l.1-.1v-.1h.1l.1-.1.1-.1h.1v-.5l.2-.1-.1-.2h-.1l-.1-.1v-.1l-.3-.4.2-.1h-.4l-.2.4-.2-.6v-.7h.1v-.1l.1-.1v-.1h.1l.1-.1h.1l.2-.2h.6l.1.2.1.1h.1v-.2h.2v-.1l.2-.2h.4l.1.2.1.1.1.1.2.2.1.1h.1v-.2h-.1v-.1h-.1l-.4-.4.3-.3h.1v-.1h.1l.2-.1h.2l.1-.1h.4v.1h.2v.1h.1v.1h.1v.1h.1v.2h.1v.1l.2.2v.2h-.1.3v.1l.1.1.1.1v.1l.2.2v.2h-.1v.2h-.1v.1l-.1.1v.1h.2l.1.1h.1v.1h.2v.1h.2l.2.1h.1v.1h.1l.1.1h2l.2-.1h.4v-.1h1v-.2l-.2-.6.2.2h.6v-.1h.2v-.1l.2-.2.1-.1.1-.1v-.1h.1l.1-.1.1-.1.1-.1.1-.1h.1v-.1l.1-.1h.1v-.1h.2v-.1h.2l.2-.1v-.3h.1v-.2h.1v-.1l.2-.1h.1v-.1h-.1l-.1-.1h-.1v-.1h-.8v-.1h-.2l-.1-.1v-.1h-.1l-.1-.1v-.1l-.1-.1v-.2l-.2-.5h1.8-.1l-.1-.1h-2.2l-.2-.1h-.3v-.1h-.1l-.1-.1h-.1v-.1h-.2v-.1h-.1v-.1h-.1v-.1h-.1v-.1l-.2-.1v-.3h-.1v-1l.2-1.2q0 .8.6 1.1v.1l.1.1v.1l.2.1.1.1h.1l.1.2h.1l.1.1h.1v.1h.2v.1h.3l.1.1h.4l.1.1h.8l.1.1h1.1v-.2l-.1-.1h-.1v-.1h-.2l-.2-.1h-1v.1h-.9v-.1h-.2l-.2-.1v-.2l-.2-.1v-1l.1-.1v-.6l.1-.1h.1v-.2h.2l.2-.1h.2l.1-.1h.2v-.1h.2v-.1l.2-.1.1-.1v-.1h.1v-.1h.1l.1-.1.1-.1.2-.2h.4v-.4l-.1-.6-.1-.2-.1-.2-.1-.2-.1-.2-.1-.1v-.1l-.1-.1v-.1l-.1-.1v-.1l-.1-.1-.6-.8 1 .2h.2l.1.2h.5v.1h.2l.2.2v.1l.2.2v.6h-.2l.1.2h.1l.2.2.1.2h.2l.2-.2h.1l.1-.1v-.1h.1v-.1h-.1l-.2-.2v-.1l-.1-.1-.1-.2v-.4h.1v-.2h.1l.2-.3h.4v-.1h.1v-.2l.4-.4.3.3v.2l.2.2v.2h.3v.1h.1l.2.2v.8h-.1l-.1.1-.1.1h-.4v.5h.1v.1l.3.3h.7v-.1h.2v-.1h.1v-.2h-.1l-.1-.1v-.3l-.1-.2v-.2l.1-.1h.1v-.1l.2-.1h.2l.2-.1h.3v.1h.3l.2-.1h.2l.7.3-.6.4h-.1v.1h-.1v.2l-.2.1v.2h-.1v.1l-.1.1v.1h-.1v.2h-.1v.1l-.1.1v.1h-.1v.1h-.1l-.1.3h.7v.1l.3.1v1.3h-.2v.2l-.1.1v.1l-.1.2-.1.1-.2.1v.1h.1l.1.1.1.2v.1l.1.1v.1h.1l.1.2v.1h.1l.2.2v.2l.2.5h-.6v.2l.1.2v2h.1v.7h-.1l-.1.1h-.1v2l.1.2v.7h-.6v.5h.1v1.8l.1.5h-.4v.4h.1v.2l.1.1v.1h.1v.1l.2.1v.7h-.6v.8h.2l.2.2v.2h.2v.4l.2.1v.2l.1.1v.1l.1.2.1.2.1.1v.2h.1v.2h.1l.1.2v.2h.1v.1l.1.1v.2h.1v.1h.1v.2l.1.1v.1h.1l.1.1h.1l.1.1.1.1h.1v.1h.2v.2h.1l.1.1.1.1v.1h.1v.1l.1.1v.2h.1v.2l.1.1.1.2v.1l.1.2v.4l.2.2v.1h.8v-.1h.1v-.2h.1v-.8h-.1v-.2h-.1l-.1-.1h-.1v-.1h-.1v-.1h-.2v-.1h-.1v-.1l-.1-.1-.1-.1-.1-.1h-.1v-.1h-.1v-.1h-.1v-.1h-.1l-.2-.2v-.2l-.1-.1-.1-.2-.1-.2h-.2v-.3l-.1-.1v-.2l-.1-.1v-.2h-.1v-.1l-.1-.1v-.4h-.1v-.4h-.1v-.1l-.1-.3v-.8l-.1-.1v-1.7h.1v-.5l.1-.1v-.2h.1v-.3l.1-.1v-.2l.1-.1.1-.1v-.2h.1v-.1l.1-.3h.1v-.1l.1-.1.1-.3h.1v-.1h.1v-.2h.1v-.1l.1-.2.1-.1v-.1h.1v-.2h.1l.1-.2.1-.1.1-.1v-.1l.1-.3h.1v-.2h.1v-.2l.1-.1v-.3l.1-.1v-.1l.1-.8-.2-.5h-.2l-.1.2v.5l-.3.1h-.7v-.2h-.2v-.2h-.1l-.1-.1v-.9l.1-.1.1-.1v-.1h.1l.1-.2h-.1v-.1h-.1l-.2-.2v-.2l-.1-.4.4-.1h.1v-.1l-.1-.1h-.1v-.1l-.1-.1-.1-.1v-.1h-.1l-.1-.2v-.2l-.1-.2v-.2l-.1-.1v-1.1l.1-.1v-.1l.1-.1v-.1l.3-.2h.1v-.1h.2v-.1h.2l.2-.1h.7l.2.1h.1v.1h.1l.2.1.1.1.2.1v.3h.1v.2l.1.1v.6l-.2.2-.3.2-.2-.1v-.1h-.6v.5h.1v.1h.1l.1.2.1.1h.1l.1.2v.1h.1l.1.2h.1v.1h.1v.2h.1v.1h.1l.2.2v.3h.1l.1.1v.2l.1.1v.1l.1.2.1.2v.2h.1v.4h.1v1.6l-.1.1v.3l-.1.1v.3h-.1v.2l-.2.3v.1h-.1v.1l-.1.2v.1h-.1v.2h-.1v.1h-.1v.3h-.1v.1l-.1.1-.1.2-.1.1v.1l-.2.3v.1h-.1v.1l-.1.1v.1l-.1.2h-.1v.1h-.1v.3h-.1v.1l-.1.2v.1h-.1v.3h-.1v.4l-.1.1v.9h-.1v1.1l.1.1v.4h.1v.3l.1.1v.3h.1v.1l.2.2v.2l.1.1.1.1v.1l.1.1.2.2v.2h.1v.1h.1l.2.2.1.2.2.1v.1l.1.1h.1v.1h.1v.1h.1v.1h.1v.1l.1.1v.1l.1.1v.2h.1v.2h.1v.1l.1.2.1.1v1.5l-.1.2h-.1v.1l-.1.1-.1.2h-.1v.1h-.1v.1h-.1v.1l-.2.1h-.3l-.2.1h-1v1.2h-.1v.2l-.1.1v1.7h.1v.2h.1l.1.1.1.1h.1l.1.1h.2v.1h.2l.2.1.3.1v.1l.1.1h.1l.1.1h.8v.1h.2v.2l.2-.1zm-20 7.3h.4l.1.1h.2v-.1h.1v-.2h-.1l-.1.2z" style="fill:#48a5f7"/><path id="_131889096" d="M107 119.2a29 29 0 0 1 4.4-8.8H97.2a29 29 0 0 1 4.4 8.8 29 29 0 0 1-8.8-4.4v14.3a29 29 0 0 1 8.8-4.4 29 29 0 0 1-4.4 8.7h14.2a29 29 0 0 1-4.3-8.7 29 29 0 0 1 8.7 4.4v-14.2a29 29 0 0 1-8.7 4.3m-23.8 30.4.5-.2v-.2h-1l.5-.3v-.3l-1.4.3-.2.1.6.6zm1-11.4.4-.1v-.1l.7-.1v-.1l-1.5.2-.4.1zm5.6 29v-.2q0-.3-.4-.4H89l-.2-.1v-.6l.2-.2.2-.8H89l-.2.7-.4.5v.3l.5.6h.7zm-10.6 1.4-.5-1-.2-.1-.4-1-.4-.2v-.4h.7l.6-.5h-1.3l-.1.4h-.3v.7l.6.4 1.1 1.7zm1.3-19.1.7-.1v-.5l-2.2-.4-.7-.3 1.3.2 2.4-.1-.3-.3h-.3l-2.3-.2-1.8-.6h-.6l-.2.2v.2l.4.6 1 .6c.6.1.6.1 1.6.6zM83 148l.2-.4-.6-.3h-.4l.5-.2v-.3l-1.7-.2v.3l.1.3 1.4.8zm-2.3-1v-.2l-.2-.3-2-1.1 1.8.7v.2l1.2.1h.3v-.3l-.5-.4-2-.7-1-.6-1.3-.9-.4-.3h-.2v.9l1 1.2.9.7 1.9 1zm2.8 27.6.2-.5q0-.2.2-.3l.7-.3v-.3H84l-.2-.3c-.3-.3-.3-.3-1.3-.5l.3-.4v-.5l.2.2.5.1h1.1q.3 0 .8-.3v-.2l-.3-.3-1.6.3h-.6l-.5-.3-.8-1.3-.3-.3-.6-1.3-.5-1-.3-.7.4-.4 2.5-.4 1.4-.4.6-1.4v-.6l-.6-2.3-.1-.7v-1.4l.4-1 .7-.4 1-.4 3.8-1.2 1.5-.9.2-.2v-.3q-.4 0-.6.3l-.2-.7v-.3l-.2-.4v-.7h.1l.1.6.4.9h.4v-.4l.3-.3.3.6v.6h.3q.3 0 .4-.3l.3-.6-.1-1.4-.2-.4v-.3q.3 0 .5.3l1.1.2.4-.2v-.1l-.8-.6v-.2l-.6-.4v-.3l-.3-.3v-.3l.5.5.2.5h.3l.2-.1-.1-1.5c-.2-.8-.2-.8-.5-1.2l-.2-.4.2-.2v-.3l-.6-.8v-.2l-.4-.2-.2-.3-1.4-1.1h.5v-.3l-.6-.6-.6-.3h-.3l-.6-.5h-.3v-.3h.6l-.3-.4-1.3-1-.4-.8-.1-.2-.3-1 .1-.3q.2 0 .3-.4l.6-1v-.7l-.2.1-.5.7-.3.2q-.4 0-.7-.2l-.5-.3h-.3v-.3l.3-.3.6-.2 1.3-.1h.6l.1-.2v-.3l-.3-.2-.6-.1-2.1.7-1 .4-.4.1v.4l.7.1-1.7.2-.9.4-1 .5.6.2 1 .2h1.1l1-.2q.1.1 0 .2l-.9.3-.4.7v.4l.4.2v.7l.3.6.6.7.2.6.2 1 .2.1.1-.1.6 1.5.4 1v1.8l1.8.2q.6 0 1 .3l.3.3-.1.2-.8-.4-1.8-.2-1.7-.5-.5-.4-.5-.7-.3-.9v-.4l.3-.5V144c-.2 0-.4-.4-1.6-1.5l-1.2-1.2-.7-.7v-.1l-.2-.1-.5-.7-1.1-1.4-.5-1-.2-.3v-.2l-.3-.5-.3-.1h-.3l-.2.4v1l2 3.7q.8.6 1.5 1.7h.4l.3-.1v-.2l-1.3-1.7v-.1l1 1c.6.8.6.8 1.6 1.6h.5v.2h-.3l-.2.5v.7l.2.4.2.2v.5l-.6.4v.5l.4.4h.5v.2q0 .3-.3.2v.6l.1.5h.8l.1-.2h.3l-.1.9.2.3h.4l.4-.3q0-.2.2-.3l.3.7.2.2h.4l.3-.2.2-.4h.3v.3l.4.5h.6l.3-.4.1-.3h.2l.4.7h.5l.3-.2.1-.4h.1l.3.1-.2.7-.5.3-.4.5v-.3l-.2-.2-.3.1-.1.9v.1h.6l.4-.2.7-.7v.1l-.5.8-.6 1.7c-.4.5-.3.5-.7.8l-.6.2-.4-.1.1-.9v-.4H88q-.2.4-.6.7-.3 0-.5.2h-.6v-.8H86l-1 1-1.1.2c-.2.3-.2.3-1 .7l-1 .6-1.6 1.2-1 1.3c-.3.5-.3.5-.6 1.6l.2 1.4.6.9.4.1h.1v-.5l-.5-.7-.1-.5v-1l.3-.7 1-1.1.7-.6-.6 2v2.5l-.2 1.2-.4.8-.2.3-1 .6-1.7.1q-.3.2-.4.5l-.3 1.5.2.6q.6 0 .7.2l1.6 2 1.1 1.3.4.8v.4l-.4.3v.2l-.7.3v.2l.4 1 .5-.1v-.4l.4-.5h.2v.2h.9l.6.6h.4v.5q0 .5.2.4zm-.8-30v-.3l-.3-.4v-.1h.6v-.2l-.8-.5h-.4q0 .5.2.8l.4.6zm-.1 1.5.1-.4-.4-.1-.1-.1.8-.2v-.2l-1.6-.4.2.7q.2.5.5.6zm-1.7-1.2.1-.3-2.1-1.8-1-1.2v-.2l1 1.2 1.1.8.2.2h.1l1 .6.3.1.1-.5-.2-.3-1.5-.9-1.5-1.2c0-.2-.8-1.1-.8-1.3l-.8-.8h-.3l-.1.1v.7c0 .5 0 .5.4 1.3L78 143l1 1 1.4 1zm3.5-2q0-.2-.3-.5l-.7-.8-2.1-2.3v-.3l-.4-.2-.4-.7v-.3l-1-1.7H79l-.1.2c0 .3 0 .3.5 1.2l.9 1.4.3.2v.3c1 1 1 1 1.2 1.4l2.4 2.1zm-1.1-5.5v-.4h.7l.2-.2v-.3l-.3-.1-2.3.2.3.2zm4.4 0 .4-.6v-.2H88l-.4.5-.4-.3-.1-.2h-.2l.1.6.2.1zm0-.7v-.2h-.2v.2zm6.8 11.3h.5c.7 0 1.9.2 2.4.4l-.6.3-.6.5v.3l.6.1.1.1h.5v-.6l.2-.2h.5c.4 0 .4 0 1.3.5h.9v.6h-.6v.2l.4.4h.6l.5-.4q.1-.4 0-.4v-.4l-.9-.5-1.2-.4-.1-.2v-.2l.9.3c1 0 1 0 1.3.2v.3h-.3v.2h.3l.2-.1.3-1v-.2l-.6-.2-.8.2-1.4-.1.2-.2.5-.1.8-.6v.5l.3-.2.3-.8h-1.2l-1.2.7-.6.2h-1l-3-.7h-.1zm-1.6 6.7 1.8.8c.6.3 1.8.6 2.3.7q.1-.1-.4-.6l-.3-.6v-.3l.7.1h.5l-.2.7.1.3.4.2h1.4l.9.5.1-.6-.4-.2v-.2l.6-.2q.3 0 .5.2l.3.6v.3l-.4.4-1 .1h-1.4v.2l.9.1 1.3.3v-.3l-.1-.1v-.1h.3l.1.3-.1 1-.2.1h-.5l-.7-.5-1.3-.5.1.3.4.3.5.8.2-.4.2.3v.8l-.8-.2-.4-.3-.8-1-.5-.5-1-.4-3-.7h-1.8q0-.4-.3-.7c.5-.3 1-1 1.3-.5h.2q.4-.2.5-.5m-1.3 20v-.4l-.9-.6q-.5 0-.5-.2l1 .2.5.3.4.3 1 .3h.1l-1.4-1.7-.6-.4-1.4-.5-.5-.5-1-1.2-2.2-3q-1.2-1.5-1.5-1.6H84v.4l1.4 1.4.2.4.8.9.9 1.2.2.5.1.7.2.2.6 1.3.4.8.7.7.6.3zm-6.4-1.5v-.6l.3-.4h.2v-.2h-2.5v.2zm11.5-.2.2-1c.4-.3.3-.2.4-.6l-.7-.6-.8-.3v-.3q.7.4 1.5.5l.1-.2.3.4c1 0 .7-.3.7-.8v-.7c-2 .2-2 .2-2.4.1l-.2-.2 1.3-.1h.7q0-.4-.3-.7.2-1-.8-.6l-.3.5c-.6.5-1.8.6-2.2 0l-1.9-1.7-.5-.3q0-.5-.6-1v-.3l1-2c.1-.5.5-.5 1-.8q.6-1.6-.8-2.8c-1.8-.8-3.8-1-5.7-1.6q-1-.8-2 .2-.5.9 0 1.6 1.8 1 3.7 1.8c.5.3 1.2 1.8.4 2.1l-.7 1.8-.6.6 1 1.3c.2.2.2.2 1 .4q1.7.8 3.3 2c0 .4-.6.2-.6.7l.8.4q0 .5.2.5h.3l.1-.6.7.1.8.5q.1.4.6.5c.2.5.2 1.2 1 1.2M89 154.3l.6-.7.5-1v-.4h-.2l-.5.9-.2-1.2v-.2h-.3c-.1.2 0 1.6-.2 2.4v.1zm-4.6-.2c.5 0 .5-.2 1-.4.1-.3.3-.2 1-1.2l-.1-.4H86l-.9 1.2v-.1l.5-.8v-.8h-.3l-.6 1.3-.5 1zm2.5-.3.5-.2.8-1v-.4h-.4l-.4.7v-.3l.2-.5-.1-.1H87l-.4 1.8zm-4.7-.1.7-.3.8-.5 1-.9v-1h-.2l-1.2 1.4-.4.4h-.2l.8-.7q0-.3.3-.5v-.4h-.5l-.8.8-1 .8-.6.6v.3zm6-1.8.3-.2.4-.5.1-.7h-.1l-.6.7v-.4H88v1.1zm-1.7 0 .3-.1.8-.6.2-.6v-.3l-.3.1-.5.8h-.2l.1-.5-.3-.1-.4.7v.5zm-6-.2 1.5-.3 1-.3v-.6l.3-.3h-.4l-.8.4-1 .2 1-.6h.2v-.3h-.6l-1.2.4c-1 .1-1 .1-1.8.4l-.2.3v.3l.9.3zm4.7-.2.8-.3.2-.4v-.6H86l-.5.9v-1h-.3l-.4 1.1v.2zm-1.5-.7c.5-.1.5-.1.9-.4l.3-.3v-.3h-.4l-.1.3H84q0-.2.3-.5v-.3H84c-.5.7-.5.7-1 1.1v.3zm36.9-12.5-.3-.1v-.2h.2l.2.2h.2l.3-.3.1-.1h.2l-.1.4h-.1l-.3.1z" style="fill:#ffffff"/><path id="_131889168" d="M122.7 175.5v-1l-.2-.2-.5-.2h-.3v-.3l.2-.2.2-.1h.8l.5-.4h.2l.3-.1v-.1h-.4v-.1h-.2l-.1.2-.4.2h-.7v-.2l.3-.4v-.2l.1-1h.8v.2h.1v.5l.2-.1h.7v.5l.1-.1 1.1-.2v-.1l.3-.1.1-.1.5-.3h.2v-.1l.5-.5.2-.7.1-.5.2-.7v-.1l.3-.7v-.3l-.1-.4-.7-.5-.5-.2h-.2v.9l-.3.5h-.2l-.2-.7v-.8h-.2v.8l-.2.6-.2.2h-.3l.1-.6v-.3l-.2.7-.4.3h-.4v-.3l.1-.1.3-.6v-.9l.3-.6v-.1l-.3.5-.5.5h-.4v-.1l.2-.3.2-1.3.4-.6.5-.2.1-.2.2-.5h.1v-.2l-.2-.4V161l.2-.3v-.4h.1q0-.4.3-.8v-.7l-.2-.7-.2-.3q-.2 0-.5-.3l-.6-.2-.4-.2h-.2l-.4-.3h-.2l-.1-.1-.3-.1-.7-.5h-.2l-.1-.2-.3-.1v-.1h-.1v-.4h.3l.2-.2h.1l.3-.3.4-.5.1-.3h.3v.3h.2v.3h.3l.4-.4h.1l.2-.3.1-.2.3-.3.3-.7h.5v-.3h.2l.2.3v.2h.1v.2h.2v.3l.2.3v.2h.1v.2h.1l.2.5.7 1.2.7.5.3.3.2.3.2.5.2.4v.5l.2.2v.2l.5.1h.6l.2-.1.3-.4v-1.1l-.3-.4-.3-.2-.2-.1v-.1l-.8-.7v-.2l-.2-.1-.3-.6h-.1l-.2-.5-.2-.4-.2-1-.2-1.2v-1.3l.1-.1v-.5l.2-.2.3-.8.2-.5.3-.6h.1l.2-.3v-.2l.5-.7h.1l.1-.3v-.2h.1l.4-1.2v-1.4l-.1-.2-.2-.2h-.3l-.2.1-.3.3v.5h-.3l-.3-.2v-.8l.2-.3.5-.1v-.2h-.3l-.4-.4v-.3h.9l.1.1h.1v-.1l-.8-.5-.6-.7-.2-.7v-.7l.2-.5.3-.2.4-.2h.3l.4.1h.1l.2.2.3.1q0 .3.2.5v.4h-.4l-.2-.1h-.2l-.5.2v.9l.6.6.1.2.2.2.1.2.3.3v.1l.2.2.1.3.3.6v.2l.1.1v1.4l-.2 1-.1.3-.2.2v.2l-.4.6-.1.3-.1.2h-.1l-.4.7v.1l-.2.4-.2.2-.2.5-.2.4-.1.7v.3h-.1v1.6l.2.8.1.6.2.2v.3l.6.7v.2l.3.2.6.7.2.1.2.3.1.2v.2h.1l.3.6v.7l-.1.6-.2.1v.3q-.2 0-.5.3l-.6.2h-1.4l.3.4v.8l-.1.4v1.8l.2.4.3.3.5.2.5.2q.3.3.5.3h.7l.2.2.2.3.1.5.1.2h.1v-.5h1l.4-.2h.6v.2l-.2.3v.3l-.2.2-.2.2-.4.2h-1v.3l.3.5.2.2.4.3v.1l-.3.2h-.5l-.2-.1-.4-.5h-.1l.1.2.1.3v.5h.2v.3l.2.2v.1h-.7l-.1-.2-.1-.3h-.2v.8l.2.2v.3h-.2l-.3-.2v-.2h-.2v.3l-.2.4v.2l-.5.6-.2.2h-.1l-.1.2h-.2v.4l.6.1v.7h-.6l-.5.3-.1.2-.1.2h-.3l-.2-.3v-.2l.1-.2.2-.1v-.5h-.2v.4l-.3.3-.2.5-.6.6h-.3v.7l-.3.3v.1l-.2.1h-.3l-.1-.1q0-.3-.3-.4l-.2-.1h-.8v-.5h.1l.2-.2h.6l.1-.3.4-.4h-.2l-.3.3-.2.1-.8.2v.1l-.2.5-.1.2h-.4v.2l.1.1v.3l-.4.3zm7.3-6.6.1-.4h.1l.1-.3h.1v.3h-.1v.3q-.2 0-.3.2m.6-1.2v-.6l.4-.4v-.5q-.2 0-.3-.3h-.6v-.1l-.2-.3-.2-.1v-.2l.5.4h.6l.1.1.3.2v.3l.1.5-.1.3-.2.1zm-10.7-12.6v-.9l-.1-.9v-.5l.2-.1.1-.3v-.5l.3-.1v-.3h-.1l-.4.4-.2.5v.2h-.1l-.2 1.3-.5.5h-.2l-.2.2h-.4v-.1l.3-.4.2-.9v-.3.3l-.2.1q0 .4-.3.8l-.3.3-.4.2h-.4v-.2l.2-.4.2-.6.2-1.2v-.1l.1-.4.2-.3v-.4q.2 0 .3-.2l.3-.4q0-.3.3-.4h-.2l-.4.4-.2.2-.1.1-.1.3-.2.1v.2h-.1v.3h-.1v.4h-.2v.2l-.1.3-.4.6-.3.2h-.2v.1H115v-.2l.8-1h.1l.5-1.2v-.2h-.1v.2l-.3.2-.3.8-.5.6h-1v-.2q.3 0 .5-.3l.3-.2v-.2l.2-.5v-.4l.4-.8.2-.3.5-.2.2-.2.3-.1.8-.4.3-.2v-.1h-.1l-.3.2-1.6.7h-.9v-.1h-.2v-.3l.5-.2 1.1-1 .9-.2-.2-.1-.3.1h-.6v-.3l.4-.2.3-.3h.2l.1-.2.2-.1 1.5-.5.5-.2.2-.2v-.2l-.5.2-.1.2h-.6l-.1.1-.5.1v-.2l.5-.5.3-.3.5-.4.1-.2.2-.2.7-.2h.1l.4-.1v-.2h-.5v-.2l.5-.3h1l.1-.1h.4l.4.5h.2l.3-.3v-.3l.3-.2h.5v-1l.2-.6v-.5h.3v-.2l-.1-.3-.3-.3v-.2l-.4-.2h-.2l.3.2.3.4v.3h-.5l.2.4v1l-.1.6-.2.1-.2-.2-.2-.4v1.1h-.1v.2h-.3l-.1-.2h-.1l-.2-.3v-.4h-.2v.2l-.2.1h-.1l-.2.2h-.9l-.5-.3h-.8l-.2-.2-.1-.1-.1-.2v-.2h2l.4-.1.2-.3.1-.2v-.7l-.2-.6-.4-.3h-.3v-.1h-.7l-.8.2h-.4l-.4-.2-.1-.1v-.8h.4v-.2h-.3v-.6h.3l.4-.2.4-.2h.1l.3-.2.1-.3.4-.2 1-.2h1.2l.6.1 1.2.3v.1l-.5.3v.2h.1l.4-.2 1.4-.5h.2l.1.1v1l-.4.6-.5.3-.6.1v.1l.2.2h.3l.3-.2h.1l.3.2.1.4.2.2v.2l.3.2v.2h-.4l-.5-.4v.2l.1.1v.2l.2.2.2.3v.2l.1.6v1.4l.1.2v.2q-.2 0-.3-.2l-.2-.2v-.2l-.2-.5-.3.1v.2l.5.7.2 1v.4l-.1.2v.7l.1.4v.2h-.1q-.3 0-.4-.3l-.2-.2h-.1v-.4l-.2-.2v-.3l-.1-.1-.2.2v.2l.3.4v.3h.1l.5 1.6v1.7h-.1l-.4-.3-.4-1-.3-.4v-.1h-.2v.5h.1l.3.3.2.2v.2h.1v.3h.1v.4h.1l.3 1 .2.3h.1v.3h-.5v-.2q-.3 0-.3-.2v.2h.1v.4l.1.2v.7l-.1.1-.6-.3v-.4l-.3-.1v-.3l-.1-.3-.2-.4v-.2h-.3l-.1-.1h-.2l.2.2q0 .2.2.2l.1.3v.2h.1l.2.4v.2l.1.3.1.2.1.3v.4l-.1.4-.2.2-.3-.5-.2-.2v.2l.1.2v.1h.1v.7l-.2.2h-.2l-.1-.2-.1-.4-.4-.4-.1-.5-.3-1h-.2l.1.2.1.6v1.3l-.1.3-.2.4h-.2l-.1.3q-.3 0-.5.3v-1.4l-.1-.4-.1.7v.7h-.2v.2l-.3.3zm5.4-17v-.4h-.5v.2h-.3v-.2h.1l.5-.3h.4v.5zm-4.7.5-.2-.1-.1-.2h-.9v-.2h.4l.2-.3.3-.3h1.8v.2l-.2.3-.1.1-.4.1-.3.4zm4.5-2.6h-.2l-.1-.1h.2l.5-.6v-.2h-.3v-.1h-.1v-.5l.1-.1h.5l.1.1v.1l.6-.2-.3.3v.2h-.2v.1l-.2.3v.1l-.1.1-.2.2v.1zm-2.1-1v-1.3h.2l-.1.7zm-2.1.3-.2-.1v-.1l-1-1.6q.4 0 .6.3v.1h.6l.1.1v.4h-.2v.2l.2.4.2.2h.1zm1.3 0q.3 0 .5-.3v-.2h.1v-.3l.1-.1v-.1h-.4q-.3 0-.2-.3l.1-.4h.6l.2-.6v.2h.1v.6h.6l.1.3v.1l-.2.2h-.1l-.4-.1-.1.2v.2l.1.4v.3l.2.1h-.3l-.2-.3h-.1l-.4.2zm-.9.4h1.9l1.6.5.1.1h-.3l-.2-.1-2.3-.5zm-.4.6v-.4h1.7v.1h.4l1.7.5h.3v.4l-3-.6zm11.6 29-.2-.1v-.1l-.2-.1v-.2l.6-.3h.2v.2l-.1.5zm-3.7 8.6v-.8l.3-.2h.2l.1.1v.6l-.1.2zm-4 1.8-.3-.4v-.1l.1-.5h.8v.5h-.2v.2zm-3.3-.3v-.5l.2-.3.6-.1.2.2v.2l-.3.2-.3.1-.2.2zm-.3-2.8-.1-.1v-.5l.3-.3h.7v.8zm-4 .6.1-.6.3-.2h.3l.1.2v.1l-.1.3-.2.2zm-3 2.5-.3-.3v-.7l.1-.3h.4l.1.2.1.2v.1l-.1.3-.1.4zm-2.8-1.4-.1-.3v-.5l.1-.2h.6l.2.3-.1.2zm.4-4h-.6v-.3l.2-.1.2-.2h.8v.5l-.2.1zm-2-14.2h-.9v-.3l.1-.3h.1l.3-.2h.3l.3.1v.6zm-1.7 3.1-.2-.3v-.8l.1-.1h.7v.5l-.2.3-.2.4zm2.5 1.8-.1-.2-.1-.3v-.5l.4-.2h.2l.2.1v.5l-.2.3v.2l-.1.1zm4.4-1.7-.2-.4v-.9h.5l.2.1v.9l-.3.3zm-3-9.4.2-.3.4-.5.1-.1h.1q.3 0 .4.3v.2l-.4.4-.3.1h-.3zm-4.2-2 .1-.2.2-.2.2-.2h.5l.1.2.1.2-.3.3h-.3l-.2.1h-.2zm-.4-2.8.1-.3.2-.2.3-.3h.3l.4.5v.1l-.2.3zm3.4-.7-.1-.2-.5-.4.3-.2h.6l.4.5v.2l-.4.2zm-1.5 3.8v-.7l-.2-.1v-.2h-.3q0-.2-.2-.3v-.3l.3-.2h.3l.4.3h.5l-.4-.3-.2-.3v-.3l-.4.3h-.6q0-.3-.3-.4l.8-.6.1-.5v-.3l.2-.1h.1l.7.7v.4l.3.2h.1l.5.5v-.5h-.1l-.4-.2-.1-.1v-.4l.2-.1h1.3l.1.1v.3l-.2.5.2.3.4.2.3.1h.2l.6.4h1.2c1.3-.2 1.4-.3 2.2-.2l-.4.3-.2.2-.6.3v.3l.1.2v.3h-.7l-.1-.2-.2.6-.7-.1-.4-.2h-.2l.3.5v.2l-.3.2-.4-.2h-.7l-.1.1h-.1v-.3l.4-.4-.2-.2H111l-.3-.2v-.2h-.2l-.2.2v.3l-.3.2h-.2l-.3.1zm2.5 11.9-.2-.2v-.2l-.4-.1h-1l-.1-.1v-.4l.1-.3h.6v-.1l.4-.2v-.2h-.1l-.5.2h-.4v-.3h-.3v.5l-.1.2-.3.2h-.4V158l-.4-.5-.1-.2v-.2h1.2l.2.2.4-.1h.7v-.2h-.2l-.2-.1h-.1l-.3.1h-.2l-.3-.2v-.3h.2l.2-.4.2-.4.3-.2h.4v.3l.3.5h.3l.5-.2h.3l.2-.2.6-.1.2-.4.3-.2v-.1l.4-.2.6-1h1l.4-.2.3-.1.1-.2h.3v.3l-.3.5-.2.1v.1l.3.3.2.1h.3l-.2.4-.6.4h-.1v.2l-.4.1-.8.6-.5.2v.2h.6v.2l.1.4-.4.2-.4.2-.1.3v.2h-.3v-.2l-.1-.5h-.4l-.1.3-.4.3v.2h-.3v.2h-.4v-.1l-.3.2v.3l.2.2v.5h-.1v.3zm3.4 14.6h-.2v-.2l-.5-.2-.3-.1h-.2l-.4.3h-.2v-.5l.2-.2.3-.2.5-.2-.2-.1v-.2l.6-.6.1-.1v-.1h-.3v.2q-.3 0-.4.3l-.5.3h-.2l-.2-.1v.9l-.3.3-.2.1h-.3l-.1-.6v-.2l-.5-.6-.2-.2v-.2l.1-.2.4-.3h.3l.3.3h.1l.1-.3.2-.1.7-.2.2-.2-.1-.1h-.8l-.2-.2v-.2l-.2.2-.2.1h-.5v-.3l.6-.7.2-.7h.4l.4.2v.5h-.1l.6.3.7.2-.1.2v.2l.6-.5.7-1 .2-.1.1-.3.6-.5.1-.3V166q-.2 0-.3-.3l-.3-.8v-.7h-.3l-.1.4v.3l-.4.4-.2.1v.1h-.7v-.2l.2-.3v-.4l.1-.3h.1v-.2q-.3 0-.6.4l-.4.2h-.7l-.2-.2v-.2h.4l.1-.2h-.4l-.5-.3v-.6l.3.2.2.1h.3l.6-.2.3-.3.3-.1v-.1h-.7l-.4-.4v-.4h.7l.4-.1h.2l.2.1.2.1.1.4.1-.1.1-.4h.2l.5-.6h.2l.2-.2v-.2l.5-.2.6-.2.8-.3.2-.1.8-.2.6-.3h.3l.7-.4h.4l.2-.2 1.7-.9h.9l.3.4.2.3v.7h-.2v.2l-.2.4-.3.3-.6.2-.5.3h-.2l-.3.1v.1l-.8.3-.2.1v.1l-.2.1-.4.6-.3.2-.7.7v.2l.3-.2h.2v.4l-.1 1.5-.1.9v1.8l.1.1.4.4v.7h-.1l-.3-.1v.1l.1.2v.2l.4.2v.1l-.1.1-.4.2h-.2l-.4-.2-.2-.3h-.3v.3l-.5.6-.6.5-.3.1v.7l.1.1.1.2v.3h-.3l-.2-.1h-.3l-.3.2h-.2v-.8h-.1v.2l-.2.1-.3.3-.2.3-.1.2v.2l-.2.1-.1.2v.1l-.1.2h-.1v.3l.1.2v.4zm3-5 .3-.2.5-.7h.3l.1-.1.1-.2v-.7l-.2-.1-.2-.1v-.2l.1-.3v-.8h.1v-.7h.1v1.9l.3.1.1.2.1.4v.4l-.3.3-.3.1q-.2 0-.5.3l-.5.5zm-32.9-35-.1-.2-.1-.3-.1-.2v-.1h.1l.3.6zh.1zm-1.2 1.3.2-.1h.1v-.1h.2v-.1h.2l.4-.1.1-.1.6-.2 1.9-.3h.1-.5l-2.5.7q-.3 0-.5.2h-.2m-.3.4.2-.1h.3l.1-.1.1-.1h.4l.2-.1v-.1h.3l.1-.1h.3l.2-.1 1.9-.4h.3v.2c-.8-.1-1.8.4-2.7.6q-.2 0-.3.2H85v.1h-.3v.1H84m8.5 3.8.3-.3.2-.5c-.5 0-.5 0-.8.2h-.7l-.8-.5-1.6-.4h-.3v.3l1 .3 1.5.9zm-4 .4 1.3-.6v-.2h-1.1l-.3.1-.2-.6.4-.8.7-.4h.6l.2-.3.2-.2h.3l1 .5.4.3.2-.6-.1-.6q.1-.3-.4-.7l-.4-.2h-1l-.7.1v-.2h.2v-.4h-.5l-.1.8H89l-.2.4v.7l-.5.5-.6 1 .5 1.3zm-.3-6-.3.1h-.1l.1-.1.3-.7-.1-.1h-.6v-.1l-.1-.2v-.1l.2-.2h.5q.2 0 .4-.3h.1l-.2.4v1.1zm-3.1.7.2-.4v-.5l-.1-.1H85v.1h-.2l-.3-.1q-.1-.3 0-.4v-.1h.4l.1-.1-.1-.5h.1l.2.2.1.2.2.1.1-.1.2-.1h.2l.2.1v.4h-.6v.3h.1v.1l.3.3.3.2h.2l-.1.1h-.7l-.3.3zm-1.4.5h-.3l-1.7-.9h1v-.1h.5l.2.1v.2l-.2.1v.1l.1.1.4.1.3.1h.1l-.2.1zM97.2 151v-.7l-.5-.1-.3.1.4.6zm.7 3-.3.7H97l-.3-.3.6-.4zm1.4-2.8h.4v-.5h-.2l-.4.4zm.5 3.6.3.2-.1.3h-.2q-.3-.5-.1-.5zm-20.6 19.5.3-.3v-.6l-.4.1-.2.4.1.4zm5.6.8.2-.3v-.4l-.5-.3h-.3l-.2.3.1.3.5.4zm1.4-1.2.2-.2v-.3l-.3-.3-.2-.2h-.3l-.2.1v.3l.6.6zm.1-2.2.1-.2v-.2l-.9-.2.1.5zm6.5.7q0-.6.2-.7v-.4l-.2-.2h-.6v.7l.2.4zm5.2 1 .1-.5-.3-.7h-.6v.6q.3.5.7.6m.7-4.6h.1v-.3l-.3-.5q-.6 0-.7.2l-.1.2.2.4.3-.1zm0 2 .7.5q.3-.7-.2-1.2l-.5-.2z" style="fill:#ffd300"/><path id="_131883000" d="M104.3 187h-1a32 32 0 0 1-27.5-15.9q-4.3-7.4-4.5-18.2v-44.4h33v1.2h-8.5l1 1.4v.2l.2.2.2.3.1.2.2.2.2.3.1.2.2.3.1.3.2.2.2.3.1.3.2.3.1.2.2.3.1.3.2.3.1.3.1.3.2.2.1.3.1.3.1.3.2.3v.2l.2.3v.1h-.1l-.3-.1-.3-.1-.2-.1-.3-.1-.3-.2-.3-.1-.3-.1-.3-.2-.2-.1-.3-.2-.3-.1-.3-.2-.3-.1-.2-.2-.3-.1-.3-.2-.3-.1-.2-.2-.3-.2-.2-.1-.3-.2-.2-.1-.3-.2-.2-.1-.2-.2-.3-.1-1.3-1v17l1.3-.9.3-.1.2-.2.2-.1.3-.2.2-.1.3-.2.2-.2.3-.1.2-.2.3-.1.3-.2.3-.2.2-.1.3-.2.3-.1.3-.2.3-.1.2-.1.3-.2.3-.1.3-.1.3-.2h.3l.2-.2.3-.1.3-.1v.3l-.1.3-.2.3v.3l-.2.3-.1.2-.2.3-.1.3-.1.3-.2.3-.1.3-.2.2-.1.3-.2.3-.1.3-.2.3-.2.2-.1.3-.2.2-.1.3-.2.2-.2.3-.1.2-.2.3-.1.2-.2.2-1 1.4h8.6zm16.6-45.6-1.2-.4H118l-.6-.1-.4-.2-.4-.4-.1-.4v-.8h.1v.2l.2.1v.3l.8.5.3.2.8.2 1.4.2h.6l.4.2v.4m-36.6-8-.1.3v.5l.1.1.2.1.1.1h.2v.1h.3v.2l-.1.1-.2.3-.4-.1H84l-.2-.1v-.4l-.1-.1-.1-.1-.2-.1h-.1l-.2-.1h-.4v.1h-.9l-1 .3 1 .5h.2l.1.1h.1l.1.1h.1l.1.1h.1l.1.1.1.1h.1l.1.1h.1l.1.1.3.2h-.6l-.2.1h-.9v.1h-.3l-.4.3.5.5v.1l.3.1.2.1h.2l.1.2h-.2l-.1.1-.2.1-.2.1-.7.4v-.1h-.1v-.3h-.1v-.3l-.1-.1-.1-.1v-.1l-.1-.1v-.1l-.1-.1v-.1l-.1-.1-.1-.1v-.1l-.1-.1v-.2H80l-.1-.2-.1-.2h-.2l-.1-.1h-.6l-.2.2h-.2l-.2-.2h-.5l-.2.2-.1.2v.2l-.1.1v1.2l.1.2.1.2v.1l.1.1.1.2v.1h.1v.2l.1.1v.2h.1v.2l.2.1v.3l.2.1v.3h.1v.2h.1v.2h.1v.2h.2v.2l.1.2.2.1v.1l.1.1v.1l.2.1v.1h.2v.2l.5.6-.5-.3-.1-.2h-.2v-.2h-.2v-.1h-.1v-.1H79v-.2h-.1v-.1l-.1-.1v-.1h-.1l-.1-.2-.2-.2-.1-.2-.1-.2H78v-.3l-.1-.1-.1-.1-.1-.2h-.1v-.1h-.1v-.1h-.1v-.1h-.1l-.1-.1-.2-.2h-.6l-.1.2-.2.2v1.2l.1.1v.3h.1v.1l.1.2.1.2.1.2.1.1.1.1v.1l.1.1.1.1.1.1v.1l.1.1.1.1.1.1.1.1v.1l.3.3.1.1.1.1.1.1h.1v.2h.2v.2h.2v.1h.1v.2h.2v.1l.3.2.7.5-.6-.4H79l-.1-.1h-.1l-.1-.1h-.1v-.1h-.2v-.1h-.2v-.1h-.1v-.1H78v-.1h-.1v-.1l-.2-.1-.2-.1-.1-.1-.1-.1h-.1l-.1-.1-.1-.1v-.1l-.2-.1h-.3l-.5-.1v1.1l.1.2.1.3h.1v.2h.1v.1l.1.1.1.1.1.2h.1v.2h.1v.1l.2.2h.1l.1.2h.1l.1.1h.1v.1h.2v.1h.1v.1h.1l.1.1h.1l.1.1h.1v.1h.1l.1.1h.1v.1h.1l.1.1h.1l.1.1h.2v.1h.2v.1h.1v.1h.1l.2.2h-.7l-.2-.1h-.2l-.1-.1h-.2l-.2-.1h-.2l-.1-.1h-.2l-.2-.1h-.1l-.2-.1h-.9v.1l-.1.1-.1.2v.6h.1v.1l.1.1.1.2.2.2h.2v.2h.3v.1h.2v.1h.1l.1.1h.1l.1.1h.2v.1h.4v.1h.2l.1.1h.2l.2.1.1.1.2.1h.5l.2.1h.4v.1h-.2l-.1.1h-.6l-.1.1H79l-.1.1h-.2l-.2.1h-.2v.1h-.1v.1h-.1v.2H78v.8l.2.1h.1l.1.1h.3l.1.1h.3l.1.1h.9l.2.1h1v-.1h.3v.1l-.2.1-.1.1-.2.1v.1H81l-.1.2h-.1v.2h-.2v.2h-.2v.3l-.2.3.2.2.2.2h1.7l.1-.1h.2l.1-.1h.1l.1-.1h.1v-.1h.2v-.1h.1l.1-.1h.1l.1-.1.2-.1v-.1h.2v.1l-.1.1-.1.1v.2l-.1.1v.1l-.1.3.1.1v.1h-.2v.1h-.1v.1h-.2v.1h-.1l-.1.1-.1.1h-.1l-.1.1h-.1l-.2.1-.2.2H82l-.1.2h-.1l-.2.2-.2.1-.2.2H81v.1h-.1v.1h-.1l-.1.1-.1.1-.1.1h-.1v.1h-.1l-.1.1v.1H80l-.1.2-.1.1-.1.2h-.1v.1l-.1.1-.2.2v.1l-.1.1-.1.2-.1.1-.2.2v.2l-.1.2v.2h-.1v.4h-.1v.4l-.1.1v1.1l.1.2v.2l.1.2.1.1v.1l.1.1.1.1v.1h.1v.1h.1v.1l.1.2.2.1.2.1.1.1.1.1v.1h.1v.6l-.1.1-.1.1-.1.1-.2.2h-.2l-.1.1H79l-.2.1h-.4l-.1.1h-1v.1H77v.2l-.1.1-.1.1v.1l-.1.1v.3h-.1v.4l-.1.1v.4l-.1.1v.9h.1v.2h.1l.2.2h.4v.1h.1l.2.2v.2l.2.1v.1l.1.1.1.1v.1l.2.1v.1l.1.1.1.2h.1v.2h.1l.1.2.2.2.1.2.2.1.1.2.1.1.2.2.2.2v.1l.2.1v.1h.1l.1.2.1.2v.6h-.1v.2H80l-.1.1h-.2v.1h-.1l-.2.2v.1h-.1l-.1.2H79v.1h-.2v.1l-.1.1v.1h-.1v.2l-.1.1v.6l.1.2.2.1.5.1v-.2h.1v-.1h.1v-.1h.1l.1.1.1.1h.4l.2-.1.1-.1.2-.2v-.3h.1v-.1H82v.2h.2l.1.1.2.2h.1v.5h.1v.2h.1v.1h.1l.1.2h.7v-.1h.2v-.1h.1l.1.2h.1l.2.1v.5l.6-.3.1-.2.1-.1v-.1h.1v-.8l-.1-.2h.2l.1-.1h.1l.3.3v.2l.5-.3.1-.1.2-.2v-.7l-.1-.1v-.1h-.1v-.1l-.1-.1h-.1v-.1h-.1l-.1-.1v-.6h.1l.3.1.1-.2.1-.1v-.8h-.2l-.1-.1H86l-.2-.1h-1.3v.1h-.3l-.2.1h-.2l-.2.1h-.8v-.1h-.1l-.1-.1v-.1l-.1-.2-.1-.1v-.1h-.1v-.2h-.1v-.1H82v-.4h-.1l-.1-.1h-.1v-.1h-.1v-.2l-.1-.1v-.2h-.1v-.2h-.1v-.1l-.1-.2-.1-.2-.1-.2v-.1h-.1v-.2l-.1-.1v-.2h-.1v-.1h-.1v-.3h-.1v-.2l-.1-.1v-.2h.1l.2-.1h.4v-.1h.5l.2-.1h.5v-.1h.8l.3.2.2.2.2.1.2.2.1.1.1.1.2.1v.1l.1.1h.1v.1l.2.1v.1h.1l.1.2.1.1v.1h.1v.1h.1v.2h.1v.1h.1v.1h.1v.1h.1v.1h.1v.1h.1v.1l.1.1h.1v.2h.1v.2h.1v.1h.1v.2h.1v.1l.2.2v.1h.1v.2l.1.1v.3h.1v.1l.1.2v.1l.1.1.1.2.1.2v.1l.1.1v.1h.1v.2l.1.1v.2h.1v.2h.1v.2h.1v.2l.1.1v.1h.1v.2h.1v.1l.1.1v.1l.1.2h.2v.2h.1v.1h.1v.2h.2v.1l.2.1.3.1v.1h.2l.1.1h.4l.2.1h1l.2.1h.1l.1-.1v-.1l.1-.1h.4l.1.1h.2l.2.1h.1l1-.1-.4-.3-.3-.4-.1-.2-.1-.1-.2-.2-.1-.2h-.1v-.2h-.2v-.1l-.1-.1-.2-.2-.1-.1-.2-.1-.1-.1-.2-.1v-.1h-.1l-.2-.2H91l-.1-.1h-.2v-.1h-.2l-.1-.1h-.1l-.1-.1-.1-.1H90l-.1-.1-.1-.1-.1-.1-.1-.1-.1-.1v-.1h-.1v-.1l-.1-.1-.1-.1v-.1H89v-.1h-.1v-.1h-.1v-.1l-.1-.1h-.1v-.1l-.1-.1-.1-.2-.1-.1-.1-.2H88l-.1-.2-.1-.2h-.1l-.1-.2-.1-.2h-.1l-.1-.2-.1-.2h-.1l-.1-.2-.1-.2h-.1l-.1-.2-.1-.1-.1-.2-.1-.1-.1-.1-.1-.2-.1-.1-.1-.1-.1-.2h-.1l-.1-.2-.1-.1-.2-.2-.2-.2v-.1l-.2-.1-.1-.1v-.1h-.1l-.3-.4v-.1h.1v-.2l.1-.1v-.2l.1-.1v-.2l.2-.1v-1.9l-.1-.2v-.3h-.1v-.3h-.1v-.3l-.1-.1v-.3h-.1v-.5l-.1-.2.5.2.2.1.1.1h.1l.1.1h.2v.1h.1v.1h.1l.1.1h.3v.1h.2v.1h.1v.1h.2l.1.1h.2l.1.1h.2v.1h.2l.1.1h.1l.1.1h.2v.1h.1v.1h.2v.1h.1v.1l.1.1v.1l.1.1v1l-.2.3v.2h-.1v.3l-.1.1v.2l-.1.2v.1l-.1.1v.1l-.1.1v.1h-.1v.1h-.1v.1l-.1.1-.1.1-.1.2-.3.2.2.3v.1l.1.2.1.2.1.1.1.1v.1h.1v.2h.1l.1.1v.1l.1.1.2.2h.2l.1.1h.2v.1h.3l.1.1h.2v.1h.2l.1.1h.1v.1h.2l.1.1.1.1h.1v.1h.2l.1.1.1.1h.1l.2.1.1.1h.1l.1.1.2.1.1.1h.1l.1.1.2.1v.1h.2v.2H92l-.1.1v.1l-.1.2-.1.4v1.2h.1v.1l.1.1v.1l.1.1.2.1.1.1h.1v.1h.2l.5.1v-.9h.3l.3-.1v-.5h.5v.1h.1l.1.1h.1v.1h.1v.1h.1l.1.2h.1l.1.2h.1l.1.1h.1v.2l.1.1v.2l.1.1.1.2.2.2.2.2h.3l.2.1h.3l.2-.1v-.2l.1.1.1.1h.1v.1h.1l.1.1.4.2.2-.2.1-.2.1-.1v-.8l-.1-.1v-.1h-.1v-.2l-.2-.1-.2-.1v-.2h-.1v-.2h.5v-.1h.3v-.1l.2-.1h.1l.1.1h.1v.1l.5.6.2-.7.1-.2v-.7l-.1-.2-.1-.1-.1-.1-.1-.1-.2-.1-.1-.1h-.2l-.1-.1v-.3h-.6l-.1-.2h.4l.5.2.2-.4v-.5l-.2-.2v-.2h-.1v-.1l-.1-.1-.2-.1h-.8v.1h-.2l-.2-.2h-.7l-.2.2-.1.1h-.1v.1l-.1.1v.3H96l-.1.1h-.2v.1h-.9l-.1-.1h-.1v-.1l-.1-.1h-.1l-.2-.2-.2-.1v-.1l-.2-.1v-.1l-.2-.1h-.1l-.1-.2h-.1l-.1-.2h-.1l-.1-.2h-.1l-.1-.1-.2-.1v-.1l-.1-.1-.1-.1h-.1v-.1h-.1l-.1-.1v-.1l-.1-.1v-.1h-.1v-.1h-.1v-.1h-.1v-.1h-.1v-.6l.2-.1v-.2l.1-.2h.1v-.2l.1-.1v-.1l.1-.1v-.1l.2-.2v-.2l.1-.1.1-.1v-.1h.1v-.1h.1v-.1h.1v-.1h.2v-.1l.2-.1.1-.1.1-.2v-.1l.1-.2v-.4h.1v-.8l-.1-.2-.1-.2v-.1l-.1-.1v-.1h-.1v-.2h-.1v-.1H93v-.2h-.1v-.1h-.1v-.1h-.1l-.2-.2-.2-.1h-.1l-.2-.1h-.2l-.1-.1-.2-.1h-.1l-.2-.1H91l-.1-.1h-.3l-.2-.1h-.2l-.1-.1h-.2l-.1-.1h-.4l-.1-.1H89l-.2-.1h-.3l-.1-.1h-.2l-.2-.1h-.3l-.2-.1h-.1l-.2-.1H87l-.2-.1-.2-.2h-.3.1v-.1h.3l.2-.2h.6v-.1h.4v-.1h.4v-.1h.4v-.1h.2l.1-.1h.2l.1-.1h.2v-.1h.2l.1-.1h.1v-.1h.2l.2-.2h.2l.3.4.2.3h1.2l3.8.7h.1v.1h.2v.1h.2l.1.1h.2l.1.1v.1h.1l.1.1.1.1v.1h.1l.1.1v.1l.1.1.1.1v.1l.2.1v.1l.1.2.2.2h.1v.2h.2l.2.1h.1l.1.1h.3v.1h.2l.4.2v-.5l.1-.1v-.4l.1-.1v-.1h.9v-.1l.1-.1v-.1h.1v-.1l.1-.1v-.3l.1-.1v-1l.1-.1v-.1h.1v-.2h.1v-.3l.1-.4-1-1.2-.6-.3h-.2l-.4-.1v.3h-.1v.6l.2.3v.2h-.1v.1H98v-.1h-.1v-.1h-.2v-.2l.1-.2.1-.3v-.4h.1v-.2h.1l.3-.6h-.7v-.1H97v.1l-.1.1-.1.1-.4.4H96v1l.1.2v.2h-.3l-.1-.1h-.3l-.1-.1H95l-.1-.1h-.2l-.1-.1h-.1l-.1-.1h-.1l-.1-.1h-.1l-.1-.1-.1-.1h-.2v-.1h-.1l-.1-.1h-.1v-.5h.1v-.1l.2-.2v-1.1l-.1-.2v-.2h.3l.2.1h.9v-.1h.1l.3-.2v-.5l-.2-.2H95v-.1h-.1l-.1-.1h-.1v-.3l.1-.2V149l-.1-.2v-.2h-.1v-.2h1.6v.1h.2v.1h-.1v.1l-.1.1H96l-.2.2v.8l.1.1.2.5v.1l.1.1v.2h.1l.2.2h.3l.1.1.6.2v-1.2l.1-.4v-.3h.2l.1-.1h.5l.1.1h.1l.1.1h.1l.2.1.2.1v.1h.1v.3l-.3.3-.1.1-.1.2v.1l-.1.4h.3v.1h.9v-.2h.3v-.1h.5l.2-.1v-.1h.2v-.2h.2l.1-.3v-.1l.1-.1v-.6l-.1-.1.2-.2v-.2l.1-.1v-.2l.1-.1v-.3h.1v-.6l-.1-.2h-.3v-.1h-.2v-.1h-.2v-.6h.1v-.1l.1-.6h-.8v-.1h-.8l-.2.1-.2.1-.1.1h-.1l-.1.1-.2.1h-.1v.1h-.2v.1h-.1l-.1.1H98v.1h-1.7l-.1-.1H96l-.2-.1h-.3l-.1-.1H95v-.1h-.3l-.1-.1h-.3l-.2-.1h-.2l-.1-.1h-.2v-.3l-.2-.1h-.1l-.1-.1v-.1H93v-.1l-.1-.1-.1-.1h-.1l-.1-.1-.1-.1-.2-.2h-.1v-.2h-.1v-.2l-.1-.2v-.3l-.2-.2h-.1l-.1-.1v-.1h-.1l-.1-.1-.1-.2h-.2l-.1-.1-.1-.1-.1-.1h-.3v-.1h-.2v-.2h.1v-.1l-.1-.1v-.3h-.1v-.2H90v-.2l-.2-.1h-.1l-.2-.2-.1-.1-.1-.1h-.1v-.1q-.5-.4 0-.6h.2l.1-.1h.1v-.1h.2l.2-.2h.3v-.2h.3l.1.1h.1l.1.1h.1l.2.1.2.1h1.3l.1-.1h.1v-.1h.1l.2-.1v-.2l.1-.1v-.3h.1v-.6H93v.1h-.4l-.1.1h-.8l.2-.1.4-.3.2-.2v-.2l.1-.1v-.3l.1-.2v-.7l-.1-.2v-.2h-.1v-.1l-.2-.2-.1-.2h-.3v-.1h-.1l-.2-.2h-1.2v-.4H89v-.2l-.1-.1-.2-.6v-.2l.1-.1v-.7h.1v-.5l.4-.7h-.7v.1h-.1l-.2.1v.1l-.1.1h-.5l-.1.1h-.1v.1h-.1l-.1.1v.2h-.1v.6h.1v.1h.1v.1h.3l.2.1-.1.1h-.1l-.8.5-.3-.2h-.2v-.1h-.1l-.1-.1.1-.1.1-.1.1-.1v-.2h.1v-.3l-.1-.2h-.1v-.1l-.1-.1h-.8l-.1-.2h-.2v-.1H85v-.1l-.5-.1-.1.4zm4.4 5.8h.2l.3.2h-.5zm2.7-.2-.1-.2H91l-.2-.1h-.1l-.1-.1h-.3l-.1-.1H90l.1-.2.1-.1v-.1h.1v-.2h.4l.2.1h.1v.1h.2v.1h.1l.1.1v.1l.1.2v.5zm-8.9-.1h.3l.1.1h.3l.1.1h.3v.3h.1v.8l.1.1v.1h.2v.3h.1v.4l.1.1v.3h.1v.1l.1.1v.1h.1v.1l.1.1.1.1v.1l.1.1v.1l.1.1v.1l.1.1v.2l.1.1v.1l.1.2v.4l.1.1v.2h.1v.2l.1.4h.4v.1l.1.1v.2h.1v.3l.1.1v.3h.1v.2l.1.2v.1l.1.1v.1h.1v.1h.1v.5l-.1.1v.2h-.1v.6H86v-.1h-.1v-.1h-.1l-.1-.1-.1-.1-.2-.2v-.2h-.1v-.1h-.1v-.2H85v-1.3l.1-.1V144l-.1-.1-.1-.1v-.2l-.1-.1v-.5h-.1v-.3l-.1-.1-.1-.1-.1-.2h-.1v-.1h-.1v-.1H84l-.1-.1-.1-.1-.1-.1-.1-.1-.1-.1-.1-.1-.1-.1-.1-.2h-.1v-.2H83v-.2h-.1l-.1-.1v-.1h-.1l-.1-.1v-.1h-.1v-.1l-.1-.1-.1-.1-.1-.1-.1-.1-.1-.1-.1-.1v-.1h-.1v-.1l-.1-.1-.1-.1v-.3h-.2v-.1h-.1v-.1h-.1l-.1-.3h.2v.1h.2l.1.1h.1l.1.1h.2v.1h.5m-2.4 22.4v-.2H80v-.2l-.1-.1v-1.3h.1v-.2l.1-.1v-.1l.2-.1v-.1h.1l.1-.2v1.1l.1.1v1.4l-.1.1v.1h-.1l-.1-.1z" style="fill:#ff0000"/></g><!-- app4joy --></svg>