<svg xml:space="preserve" width="1000" height="500" style="shape-rendering:geometricPrecision;text-rendering:geometricPrecision;image-rendering:optimizeQuality;fill-rule:evenodd;clip-rule:evenodd" viewBox="0 0 1000 500" id="svg2" xmlns="http://www.w3.org/2000/svg"><g id="g2"><path d="M.1 0v500H500c82 0 155-40 200.6-101.2L999.8 0z" id="path10" style="display:inline;fill:#ffffff;stroke:#0a0b0c;stroke-width:0.190443"/><path d="M500 450c65.6 0 124-32 160.4-81L899.8 50H.1v400z" id="path12" style="display:inline;fill:#d12421;fill-opacity:1;stroke-width:2.49925"/></g><g id="g1"><path d="M149.6 206.6c7.8-9.5 3.9-19 2.6-23.5 15.8.5 27.7 6.2 34.7 14.9 3.6 4.5 8.9 7.8 15.6 7.8 3 0 4.5 1.5 1.5 4.4-9.1 9-24.2 7.8-33.3 7.8l-1.2-.7c-8.7-5.2-16.7-9-19.9-10.7z" id="path14" style="fill:#f7d417;stroke:#0a0b0c;stroke-width:1.76347"/><path d="M77 247c-8.5-9.5-9.7-25.6-5.5-36.4 10-26 56.7-28.5 80.6-27.6 1.3 4.4 5.4 14-2.5 23.6 11.1 5.8 78.2 37.3 42.4 60.5v.2c-37.3-1-69.4-4.1-98.9-3.3.5-12.2 14.3-15.7 30.7-15.3 18.7.4 39.4 1.2 45.8 1.1q11.2 0 11-3.2c.5-5.7-9.4-12.8-19.8-12.8-17.5 0-35.2-2.6-51.6-3.6-11.5-.6-33 4.3-32.3 16.7z" id="path16" style="fill:#f7d417;stroke:#0a0b0c;stroke-width:1.76347"/><path d="M149.7 206.7a74 74 0 0 0-39.2-1.8" id="path18" style="fill:none;stroke:#0a0b0c;stroke-width:1.76347"/><path d="M166 185.3c-9.7 4.3-7.4 17.3 2.1 21 6.5 2.6 12 .4 11.5-7.9-.3-4.4-2.2-8.2-6.1-10.6-2-1.2-4.7-2.6-7.4-2.5" id="path20" style="fill:#0a0b0c;stroke-width:2.49925"/><path d="M287.8 122.4c3.5 0 6.8 1.3 9 3.3 1.7-6.9 8.8-9.6 17-9.5s8.3 1.9 4.8 8.5l-26.6 52-130.3-5.9-22.4-58c-1.8-4.6-2-7.6 4.4-7.7 13.8-.3 17 4.6 17.7 12.4q3.3-2.3 8-2.4c6.8 0 12.4 4.7 12.4 10.5s-5.6 10.6-12.5 10.6q-2.4 0-4.6-.8c2.5 5 7.4 8 13.3 9.3a79 79 0 0 0 25.5.5c6.2-1.3 11.3-5 13.7-11.7a14 14 0 0 1-7.2 2c-6.8 0-12.4-4.8-12.4-10.6s5.6-10.5 12.4-10.5q4.8.1 8.3 2.6-1-2-1.1-4.4c0-6 5.9-11 13-11 7.2 0 13 5 13 11q0 3.3-2 6 2.7-1.2 5.7-1.2c6.9 0 12.5 4.7 12.5 10.5s-5.6 10.6-12.5 10.6q-5.9-.2-9.5-3.8c1.2 7.1 6.1 11 12.3 13a71 71 0 0 0 28.2 1.7c4.4-.9 9.3-2.9 11.9-6h-2c-6.9 0-12.5-4.7-12.5-10.5s5.6-10.5 12.5-10.5z" id="path22" style="fill:#f7d417;stroke:#0a0b0c;stroke-width:1.76347"/><path d="M152.2 183.1c15.8.5 27.7 6.2 34.7 14.9 3.6 4.5 8.9 7.8 15.6 7.8 3 0 4.5 1.5 1.5 4.4-9.1 9-24.2 7.8-33.3 7.8 21.2 12.7 46.3 32.9 21.3 49.1-7 26.4-35.4 33.2-57.5 34.6 9.3 24.8 45.2 21.8 61.5 5-23.2 58-75.2 65.8-116.8 67 32.7 31.4 105 21.8 130.2-29.1-4 10-4 36.8-1 50 2 9.4 6.4 9.6 11.9 4.3 7.8-7.5 21.8-35.2 26-53.3a138 138 0 0 0 17.7 52.5c4.5 7 7.1 6.7 9.7-2.3 5.9-20.5 3.9-48.9.6-68.7 10.5 24.6 32.7 56.1 46 67.4 6.6 5.5 12.4 6.9 11.3-5.2-2.6-29.4-23.5-62.6-38.8-87.3 1 1 37.1 40.4 55 50.5 11.2 6.4 10.5-2.1 7-9.6-15.2-33.6-46.2-66.6-57.5-81.3 14.3 10.7 35.4 32 51.9 37.2 9.8 3 8-3.7 3.5-12.1-12.8-23.6-42.9-49-62.6-68.1 5.7 4.6 28 22.7 40.4 27.2 8.8 3.1 15.2-2.2 8.8-12a271 271 0 0 0-40.3-47q-9.6-8.6-16.1-10.5l-119.2-5.5c-8.2.5-11.4 8.2-11.6 12.2v.1z" id="path24" style="fill:#ffffff;stroke:#0a0b0c;stroke-width:1.76347"/></g><!-- app4joy --></svg>