<svg width="812.22546" height="511.68927" id="svg2" viewBox="0 0 812.22546 511.68927" xmlns="http://www.w3.org/2000/svg"><g transform="translate(228.4 3.3)scale(.47563)" id="g3030"><path transform="scale(-1 1)" id="rect3053" style="fill:#d62828;fill-opacity:1;stroke:none" d="M-659.4-7H-88v1075.9h-571.4z"/><path id="rect3024" style="fill:#ffffff;fill-opacity:1;stroke:none" d="M-480.2-7H88v1075.9h-568.2z"/><path id="rect3028" style="fill:#ffffff;fill-opacity:1;stroke:none" d="M659.4-7h568.1v1075.9H659.4z"/></g><g transform="translate(312.2 140)scale(.25272)" id="g3970"><path d="M748.1-2.7 5-2l.8 511.5c.2 149.3 151 330 368.5 332 217.4 1.8 373.2-179.3 373.4-334Z" id="path3944" style="fill:#000000;fill-opacity:1;stroke:none"/><path d="m737.7 9.3-722.3.6.8 497c.3 145.2 146.8 320.8 358.1 322.6s362.8-174.2 363-324.4zM344.5 48.5c18.4.2 40 8.8 52.2 14.4 10-12.8 28.2-4.2 47.5-4.5 14.3-.3 16.5-8.6 26.3-9.4-7.3 8-8.7 22.6-23.3 29.2 8.9 6.2 24.6-12 39.1-7.4-15 9.3-9.5 16.4-21.7 28-11.1 10.5-30.4 9-32.3 10.6 9 7.4 8.4 23.2 19.4 25.3-5.7 7.5-9.6 7-15.4 8.4 5.2 5 2 12 19.7 24.9-3.8 1.6-9.5.9-15.4 1 1.8 7.8 3.1 9.2 12.4 14.8-4.3 5.2-8.7 10.2-16.2 7.9 2.4 10 2.6 18.8 3 27.7l-8-1c.4 15-2.4 27.8-13.4 35.2l-3.3-4.1c-1.2 9.7.4 22.4-12.2 19.8-.5 5 0 10-2 14.9 9 .6 17.4 3 20.4 11l8.8-1.8c-.5-13.6 3-24.7 5-36.8 11.4-1.2 20 3.2 23.2 17.2 11-18.3 1.1-35.7.6-54 14.3 1.7 29.2 3.9 38.2 24.9 5.4-49.4 7.4-101.8 18.6-146.4 31.9 16.2 20.6 108.5 20.3 133.3 45.5-49.5 56.8-112.4 50.7-182 71.3 24 23.8 136.9 11 168.7 22-22.3 46.7-62.8 81-57.5 8.5 16.8-45.6 64.5-64.4 97.4 12.8-15.3 63-38.6 72.6-13.8 1.2 4-65 56-97.4 74-2.2 1.7-4.7 3.3-3.2 5.5 31.8-15.4 100.8-7 96 26.2a342 342 0 0 0-144.7 16.1c-11 12.8-33.1 19.3-59.8 20.2v7.9c-26.7.6-41.7-8.3-59.7-14.8 4 9.2 36.6 40 68 53.3 15 7.7 53.2 25.6 58.8 75.9 4.8 28.5 23.4 73.4 58 84 8.5 3.1 26.5 5 28-.9-1.5-8.3-13.6-2-21.2-.9 3.9-17.6 13.5-25.2 32.6-16-.1-16.7-24-23.2-37.6-34-24.3-17.7-34-40.3-30.4-67.2.6-30.6-22.3-34.4-42.7-40.9 15.4-9.3 48.1-22.3 62.8 4.2 4.1-4.8 8.2-12.3 17.6-18.7 13.6-10 12.2-29.4 20.2-37.9 18.3-24.3 54.5-9.6 43.7 30-5.5 10.7-21.1 20.8-10.4 32.5 7.6 4.3 14.6 2 15.3-1.2.7-5-3.3-6.6-10.7-6.4 3.7-8 24.7-9 26.4 6.9-1 24.4-47.3 35.7-56.4-.6-2-21.7 22.7-41.5 14.8-48.4-9.3-3.5-10.5 23.8-18.2 35.4-5.5 9.7-12.3 16.7-18.8 24.4 21.2-2.2 30.7 6.9 32.8 23.8-12.3-11-35.2-10.2-39.7 1.8 17-12.5 40.5-7 39.6 14.5-14-9.8-26.4-6-30.2 1.9 15.6-10 38.7 1.4 30.2 24.5-3.5-8.4-19.5-8.1-20.2 2.2-1.8 11.5 35.5 25 36.2 61-1 44.3-57.9 41.6-80.6 33.5-40.8-16.6-54.5-71.4-62.5-94.5q-6.1-32.9-25.3-50.2c3.8 60-6.5 60.4-32 103-1 5.4 10 9.2 21.1 2.8 16.6-8.6 33.4-4.7 39.9 14.3 5 15.3 3.7 17 22.5 16-5.8 15-14.4 25.9-32.1 19.8 2.1 20.6 20.6 4.2 31.9 4-9 19.2-20.2 41.8-45.4 22.5a171 171 0 0 1-5.5 43.4c-2 5.8-2 11 6.3 13.5 12.9 4.5 25.3 21.8 12.5 30.6 1 20.7-8.6 24.4-19.4 25.8 2-6.6 4.4-13.4 1.6-17.8-9.5 2.9-12.3-.9-16.1-3.7-3.5 10-11.8 12.4-19.5 15.5-7.4 2.6-13.1 26.3-41.8 13.7-16.8-2.6-18.6 8.2-24.8 15.2-1.3-12.6-4.8-26.7 15.4-34.6-4.5-2.1-6.4-4.2-8.8-6.3-9.1-5-16.9 1.2-24.3 10.2-.1-14.9.3-29.3 20-30.9l3-4.2c-3.4-2.3-3.6-6.7-3.9-11-11.5-3.9-14 6.8-20.6 10.7-3.7-19.9 8.8-30.1 27.8-31.6 16-6 26.8 3.8 36.4 16.7 12.5 2 16.3-4.5 12.4-18.4-2.2-10.3-4.5-20.5-4-30.8 1.6-24.5-16.6-20.4-27.2-27.2 3.1 29.2-27.8 21.5-42.7 22.5 14.2-12.5 23.9-13.1 10.2-34.6-14.7-23.5-.7-46 2-70.5-15.3 0-30.1-3-45-6.3-12.6-2-27-3.8-28.3 7.6-1.5 8.8 26 10.2 25.2 30 0 17.6-10.3 21.3-10.3 28-1.3 8 11.4 12.9 13.9 20-15.8-1.2-34 4-42.5-16.1-8.8 16.7 9.4 16.8 17.3 23.3-17.1 9.6-33.5 16-43.7-4a253 253 0 0 1-50.3 37.3c5.6 13.1 13.7 29-3.4 33.1-3 14.2-11.6 19.8-22.7 21.4 1.6-6.7 5-13 2-21.2-17-1.3-14-12.5-13-22.7-21.7-4.5-66.3 4.6-63-24.5-11.6-6.7-15.3 1.9-22 4.5-1.8-14.1 14.5-27.4 29.4-21.3l2.2-3.2c-2-3.1-1-6.2.2-9.2-5.4-10.1-16.4-6.7-26-6.6 6.2-14.7 24.5-21.4 37.7-9l4.4-2.8c.7-4 2-7.6 7-8.4-1.6-11.4-15.1-5-23.5-7.3 7.3-15.1 34.1-16.6 42.3-.7 11-1 17.6 7.8 15.5 36.2-.6 12.5 18 9.7 18 .8 6-21.2 19.1-36.2 34.8-50.5 5.6-7.5 6.5-14.3.2-18-16-7.6-19.3-17.7-19-30.2-26.6 6.8-29.8-11.6-30.7-30.4 11 7.5 19.4 14.1 27-5.3 10-19.6 36.7-29 64-20.5 11.6 5 50.2 5.8 62.3.5-6-16.7-61.8-4.5-110.2-55.5-6 21.3-19.1 10-24-10.4-16.7 4.3-33.3 4-25.5-10-9.5.4-12.2-3-11.5-8.3l-39.7 3.3c0 16.1 13 44-4.8 44-7.3 21-26 20-37.8 6.3 11.1.1 20.9-1.2 21-12.1-6.4-5.2-9-11.2-2.4-19.1l-.6-8.6c-11.3-2-18.4-6.5-14-17.7l-11.8-8.1c-13.2.6-20.7-3.1-16.3-15.6-7-5-16.7-4.2-26.5-3.3 4.4-15.4 20.4-18 31.6-13.9 17.7-10.2 14.4 14.4 24 14.9-2.1-5.7-5-11.6-4-16.3-10.4-5.8-10.8-12.4-9.6-19-6.6-12-17.4-8.3-26.5-11.1 9.2-10.6 24.4-15.4 37.7-3.3 19 1.1 16.8 28.6 23.9 44.8a15 15 0 0 1 5.9-11.4 13 13 0 0 1-2.6-9.7c-10.6-4.6-12.3-24-1.2-27.7-2.4-12.5-10.1-18.4-17-25.5 11.7-.6 26.5 1.5 32.7 21.4 10.9.9 11.3 12.6 11.1 27.7-.2 11.4-1.1 25.4-8 34.3 8.9 0 18.2-2 26.4-3.6-7.4-10-3.7-15.5 12-16-6.8-4.6-8.3-17.2-10.7-28.3 8.4 4.2 16.6 9.3 26 6.9-2-12-1.3-20.8 2.3-25.3-3.3-11.6 1.2-22.8 3.2-34a104 104 0 0 0-37-25.9c7.2-8.1 17.2-6.8 27.2-5.7-5.4-8.3-13.6-14.2-14.2-26.3 3.9-2.2 7.2-1.8 10.5-1.4l-19.5-29.7c-4.1 15.2 3.7 41.1-22.7 36.4-19.5 10.3-32.1 0-35.6-15.8 8 1.3 16.4 9.8 23.7 3-2-11.1 3.6-16 12.3-18.2-1.6-4.9-3.2-9.7 0-15.5-4.8-4-8-9.3-7.9-16.7-5-5-13-9.3-17.5-15.2-11.3.7-25.2-13.3-16-21.3-5-12.5-16-7.8-24.9-9.3 6.2-16.7 24.4-18.5 36-4.5 13.1-1 19.1 16.4 28.7 24.7l-.4-10c-9.7-8-16.6-15.9-6-23.9-1.2-8-10.6-13.5-22.5-18.3 15.2-8 29-6.9 40.3 13.7 10.2 4.3 11.1 16.5 12.6 28.7 3.3-2.2 2-6.9 4.4-9.4-3.8-10-2.6-17 9.2-17.4-1.3-10.4-9.9-16.3-16.5-23 12.4-2.4 35.8 5.9 33.8 27.4 2.8 2.3 4.1 5.3 4 9.9-1.9 13.3-11.8 16-25 41.8 7.1 15.7 22 27 33.8 40.2 2-4.4 7-8 11.2-11.8 1.8 8 3.4 15.9 8.4 22.5 2.3-8.4 8.4-11.3 15.8-12.3 1.6 12.2-1.8 26.3 9 34.9 32.7-11.2 71.2-14 91.1-64.4-18.8-10.9-40.4-9.8-61.9-3.5a39 39 0 0 1 17.4-18.3c-8-.6-15 5.3-21.8 7.6 3-6.6 10.6-14.7 22.9-21.3-12.8-10.7-28 2-30.4 20-13.9-14.4-16.4-31-1.4-49 9.3-11 19.5-20.7 36.6-18.8 4.1-15.2 16.4-20 30.6-19.8m20 40.6c5.4 11.7-7.5 13.6-9.1.7-4.8-.2-8.9 0-9.7 3.8.3 3.3 12.7 11.8 18.1 10.3 4-.3 8-2.8 8.5-7.6.3-5.3-3-7-7.8-7.2" id="path2972" style="fill:#ffffff;fill-opacity:1;stroke:none"/><path d="M277 123.7q.3 0 0 0z" id="path3644" style="fill:none;stroke:#feed00;stroke-width:1px;stroke-linecap:butt;stroke-linejoin:miter;stroke-opacity:1"/><path d="M354.8 89.7z" id="path3654" style="fill:none;stroke:#feed00;stroke-width:1px;stroke-linecap:butt;stroke-linejoin:miter;stroke-opacity:1"/><path d="M53.8 356.8z" id="path1362" style="fill:none;stroke:#000000;stroke-width:1px;stroke-linecap:butt;stroke-linejoin:miter;stroke-opacity:1"/><path d="M53.6 356.8z" id="path1364" style="fill:none;stroke:#000000;stroke-width:1px;stroke-linecap:butt;stroke-linejoin:miter;stroke-opacity:1"/><path d="M175.6 353q.2 0 0 0z" id="path2279" style="fill:none;stroke:#000000;stroke-width:1px;stroke-linecap:butt;stroke-linejoin:miter;stroke-opacity:1"/><path d="M502 764.2c3-8.5 2.5-15-3-20.4.1-7.7 5.7-10.4 13.5-6.6 4.8 13.9-.7 25.8-10.5 27m-101.6 18.9c4.4-8.4 12.7-11.3 22.5-11.7 1.6-6.8-3-11.8-6.9-13.6-12.3 2.7-19.2 12.7-15.6 25.3m-17.5-31c-1-9.7 4.7-22.5 20.9-20.5 4.9 6.2 4.1 11.8 2 15-11.3-4.4-17.7-.4-22.9 5.4m-1.3-36.8a21.3 21.3 0 0 1 23.7-18.8 12 12 0 0 1-1 16.7c-7.8-5.7-15.8-4.4-22.7 2.1M144.3 590.7c10.4-.7 20.4-.4 24.4 12.4 5.2 2.2 11.8-1.6 11.1-8.2-9.5-14.6-26.2-12-35.5-4.2M118 618c10.8-2.2 18.6 0 25 8.7 7 .3 9.8-5 8.4-10.8a20.8 20.8 0 0 0-33.4 2m-8.2 38.9c4.8-3.6 14.8-9.9 24-1.8 4.2-1 7.8-4.8 4.6-12.2-14.8-5.4-28.1 4.1-28.6 14m97 64c5-8.5 3.2-18.8.1-23.8 3.2-11 12.9-8 16-2-.3 16.6-6.6 24.7-16.1 25.8M106.6 446c8.4-.7 16-1.8 17-13 2.8-2.3 9-1.8 11.5 1.7-2.4 18.1-20.6 19-28.5 11.4m-53.1-89.2c8.2.2 16.3-2.7 25.1 5 5.8-1.8 5.4-6.3 3.4-11.6-13.3-5.3-24 .4-28.5 6.6m16-43.8c8.5 0 18.4.6 23.4 10 2.1 1 9.6-4.3 7.7-9a21.4 21.4 0 0 0-31-1m47.7-28.8c14 0 23.7 11.4 24.6 22.3-1.5 4.2-9.1 2.9-11.4 1.6.9-11-6.8-17-13.2-24m181.9-140.8c19.5-7.2 35.7-7 50.8 1.9 7.7 3.3 12-10 6-16.7-22-7.9-46.2 4.4-56.8 14.8m54.6-24c-2.7-13.6-9.5-26.9-21.4-30.2-11.6-4-14.9-9.6-17.5-16.1-26-2.3-52.6 33.3-36.9 52.6 5-20.7 30.4-25.5 38.8-8.8 12.5-2.3 25-1 37 2.4M120 200c5.4 1.3 14.6 7.9 21.3.7 3.3-1 8.6 3.2 7.6 6.7-8.8 11.4-28 2.4-29-7.4m-.1-97.5c2.8 3.6-5 9.6-7.6 8.3-5.5-10-12.1-11.3-22.5-10.3 5-12.3 23.6-8.4 30 2m8.2-31c13-6 24.6 3.6 29.3 14.6.8 6.1-9.2 8.2-11.3 3.5-2.3-10.5-9.7-14.8-18-18m61 18.7a9 9 0 0 0 11.2 1.1c3.3-18-14.1-25.3-23.5-25 6.4 7.5 14.4 10 12.3 24" id="path2828" style="fill:#f9d616;fill-opacity:1;fill-rule:evenodd;stroke:none"/><path d="M305.5 306.3c-15.2 9.1-30.8 16-47.4 17.3-17.5 6.4-35.7 11.9-38.5 41.4 3.6 26.4 23.3 41 36.6 60.1 13.3-19.3-1.8-31.8-14-43.5 12.5 4.8 24.4 7.3 33.5-5.5-4-8.3-15.7-9.5-27.4-10.8 10.4-2 22-2.6 26.3-12.2-5.7-9.9-15.9-8-25-9.2 10-2 21-.5 28.2-10.5-2.6-5-6.4-4.9-9.7-6.5 5.4-.4 9.7-2 14.3 6.7-2.7 7.1-5.6 9.4-9.7 10.9 10.8 8.2 3.5 14.4-4.9 20.5 19.8 6.3 20.3 22-14.3 24.4 14 7.5 16.4 36.5 36 37.4 5-17.1-4.2-25.6-14.9-34.1 16.5 2 33.1 4.2 43.3-7.9-4-10.4-29-8.4-30.8-12.5 10.2-2.7 22.8-1.5 30.3-13.5-6-10.2-26-9-32.2-11.6 16.1-1.9 31.2-4.3 32.4-14.7-.5-5-11-6-19-6.5 31.3-6.8 28.4 16 6.9 22.2 19.2 3.3 21.8 20.2-4.4 23.9 30.4 5.4 28.3 24.5-12.4 26.5 4.8 15.6 13.9 26.4 29.8 25.2 4.4-12.3-9.8-24.2-7.6-26.5 3.6-2.2 25.2 24.6 39.5 23.2 3.6-16.8-13.8-25.8-20.8-38.7 15.6-1.2 34.5 5 44.9-7.8-7.2-15.6-29.2-11.8-44.7-16.5 20.7-4 47.1-1.5 56.6-18-11.2-10-36.3-5-54.7-7.2 15.6-4.7 38.1-1.6 43.3-17.9-6-8-36.2-7-55-6.5 3.7-3.2 68.3-10.5 60 14l27.8-5-33 11c11.8 12.1 33.2 2.9 54.1-5.4 16.6-7 34.8-13.4 37.4-24.6-39-11.7-43.8 14.7-85.8 9 14.5-2 26.7-5.2 37.6-9.3-4.8-11.8-19.5-9.4-32.5-9.5-48.8-13.2-71.3-3.2-84.2 15.2 12.5-5.3 24.8-11.8 37.9-11.6l3.5 1.9a106 106 0 0 0-37.3 12.7m55.7 80.8c5.8 6.9 15 18.1 15.7 27.2-24-3.6-30.4-16.6-36.4-27.7zm28.7-25c2 .6 1.3 1.3 3.2 2 26.6 9.9 47.5 23 79.5 24.3-2.6-26.6-19.8-32.2-42.6-29.8.1 4.2 12.3 7.1 15 11.3-13.4-2.6-19.4-14-55-7.9m-13.9 2c14.2 2 35.8 14.2 39.6 44.6-6.4-.2-15-6.2-22.7-11.4-12.9-8.6-25.1-10.1-23-13.2 4.6-1.2 6-4.3 7.8-6.8 7.6.7 12.4 10.3 19.3 11.3-3.9-6.2-19.3-9.5-21-24.5m-2.4-7.4c32.7.7 121.8-2.3 139-23.3-7.6-8.3-82.1.4-121.6 4.9-.6 2-1 4-3.4 6.1 11.2 2.5 24.5-.6 36.8-1q4 1.5 0 3.2c-18.3 1.7-44.7-2.7-50.8 10m93 6.3a92 92 0 0 1 10.2 17.2c22.7-1.8 45.4-3.4 56-17.9-13.9-9.2-42.8 2.5-66.3.7m72-1.7c45.3-17 93-19.5 140.2-17.1-14.3-32.4-83.3-26.6-102.4-10.8-11.2 13.5-24.5 18.8-37.5 24.7zm-81.6-4c36-5.3 65.4-18 88.2-41 13.6-10 33.8-31.4 51-31.5-9.2 44.4-48 77-73 70.6 14.5-11.3 27.2-19.4 45.3-36.7-.3-2-1.6-1.7-3.2-.5-22.5 25-51.4 42.2-104.9 41.4zm38.2-34 15-.2 28.2-25.5q4.8-2.4 0 4L512.9 324l5.9 8.3c19.2-12.1 54.8-44.2 55.4-79.7-20.7 6.7-30.4 21.3-41.2 33.4-33.2 33.2-40.5 34.9-37.8 37.2m-71.7 5c5.5 2.2 14.6 1.5 23 1.5 11-2 40.6-15.8 57.3-46 1.8-2.6 3-.4 1.4 2-10 21-35.8 35.6-43 42.5 34.8 7.2 78-59.7 71.5-90.1-22.3 14.4-42.5 45.5-66.8 68.3a33 33 0 0 1-17.8 11c-10.3 3.6-20.6 7.2-25.6 10.8M594 309.4c5.2 1.5 84-60.5 87-66.3-25.1-15.2-82.7 22-81 43 3.9 4.5 7.4-8 37.3-25.3 2.2-.6 2 0 1 1.6-7.5 2.8-44.7 29.6-44.3 47m-20-30.6c2.7-31.4 67.1-118.2 98.7-113.6 6.2 12.8-58.4 68-78.2 113.6-5.9 1.7-13.8 5.7-21.1 9.6l45.8-70c4-5 1.3-5.9-3.3-.8-14.3 17.4-29.2 52.6-42 61.2m-38.6-8.8 4.4-29.4c46-66.5 55.6-88.9 52.7-181.7 55.7 24.2 10.2 142-13.2 187l-38.6 24.6c36.3-55.7 38.6-50.3 60.6-114.6-.1-6-1.9-4.5-4-1.3-16.7 59.5-21.8 59.2-61.9 115.4M519 106c15.9 4.6 15 102.4 7.4 128.5-2.3 7.8-8 10.4-12.1 13 .8-16 3.2-30.7 3-56.6-4.8 7.6-1.9 72-16 70 1-29.8 13.5-146.3 17.7-155m-54.4 120c5 30 9.6 32.4-8.7 63 .1 4.7 3.7 4 7.1 3.5 4.3-2 6-9.3 8.9-11.2l-2.5 8.8c-1 1.9.8 7 4.7 5.5 26.8-26.3 24.4-65.5-9.5-69.7m-30.7 66 4.6-30.7c11.6.7 17.8 11.1 12.7 29.5zM227 396.1c7.5 5.9 16.6 23 8.1 29.3-11.2-1.9-13-20.9-8.1-29.3M216.3 378a47 47 0 0 1-14.2 20.2c-3.2 2-5.5 5-5.1 8.7 19.7 4.2 36.8-7.9 19.3-28.9m0-23.6c1 23.2-6.5 38.6-29 39.5-.8-3.5 4.2-7.7 5.3-12.5 2.6-10.5 9.4-22 23.7-27m-40.7-1.3c.9-2.6 9.7-2.3 17-2 9 .2 16.8-1 17.3 1.7-5.8 10.6-29.6 9.8-34.3.3m7.4-26.7c13.5 7.2 33.4-1.2 45.3 8.7-10.5 27.6-47.5 8.6-45.3-8.7m-47.7 64.4c9.5-4 26.6-3.7 41.2-4.4 14.3-1 19-13.6 17-21.1-16.6-1.5-36.2 7.5-58.4 4.4-23.5-3.3-12.6-49.3-32.5-52.8q-.7 6.2-7.5 8.1c-3.1 8 2.8 13.2 10.7 16.3-.1 4.6-.5 9.2 3 13.7q-.1 9 10 17.7c-14.5-3.7-24.3-10-27.6-20-3-6-5.5-3.6-8-1.8 3.3 5.3 2 9.5-2.3 13-2.8 11.2 6.6 8.6 13.8 8.6 1.4 2.6 2.6 5.4 7.6 5.6 1.7 4 6.2 5.7 7.7 6.2-6.3 10.7-.3 14.6 12.6 14.7.6 11.9-.3 12.4 10.4 16.3-17.2-1-16.1 7.5-8.8 13.4 4.4-.8 8.6-.7 11.8 4 5.5.2 5.7-5.5 3.8-14 .7-9.3-2.2-18.6-4.5-27.9m1-22c18.1-3.2 15-55.2 10.7-59.3q-7.2-.8-8.4 3c-5.4-.9-10.1-1-11.2 2.6q-2 6.3.7 12.8c2.5 3 5.8-.3 9.2 3.3-4 3.6-2.4 10 .3 13.5-7.1 7.1-11.4 19.2-1.3 24.1M426 186.2c-1.4 9.3-10.3 8.7-15.7 5.2l-1 18.2-3.1-11c-8.6 19.8-19 12.6-23.8-4.1-2.8 4.4-5.7 11.6-8 10.6-.7-3.1 3-6.8 4.8-12-10.7 6.6-18.9 7.4-20-4-10 5.2-20 11.1-30.4 6.7-11 5.3-22 10.7-28.1 17.5 8.6 11 25.5 3.8 40.5-7-11.6 24.8 10 10.2 22.6-.5-.7 23.2 5.9 15.5 18 4.3-7.2 11.4-17.3 24-23.4 4.3-6.4 4.4-19 15.7-25.3 1.1-8.4 8.2-40.3 11.4-36.7-3.7-4.2.3-34.2 6.1-37.4 15 2.9 4.4 11.3 3.3 19 2.9-20 21.2 15.4 18.8 30.7 6.1-9.4 23.9 22.8 9.4 30.7-.7-8.3 23.3 18.9 13.3 26-1.5 1.1 27.7 32.4-5.4 34.8-18 6 18 13.3 17.8 18-1 3 16.6-7.2 26.8-18.3 11-8.7 13-28.4 35.4-37.4 17-2.7 5-27.5 18.2-29.3 1.4-12.4 8.6-28.4 13.7-31.8 0-13.7 8.4-44.4 9.1-32-10.8-7.2 2-13.2 1.4-15.4-6.5-16.1 8-27.5 20-29 34.4 9.1 1.9 16.7-4 25-6.5-4.4 5.4-12.5 9.5-10.2 19.7 14 .8 24-7.1 35.2-12.8-.8 5.3-4.7 10.5-.6 15.8 12.9 3.6 23.3-8.2 34.8-13-4.8 8.5-7.5 17.6 0 18.8 14 .4 22.5-7.6 32.4-16.4-.4 4.5-3.3 9.6 1.1 13.2 9.4.2 16-8 23.7-13.2-.1 4.9-1.6 10.3.5 14.3 5.2.1 20-9.8 19.4-24 2.6-8 5.6-12 10.2-3.1 3.1 5 5.5 11.1 12 11 1.3-8.7-1-24.5 5-25.2 3.2.9 4.3 2.8 6.3 4.7 7.5-6.1 6-21.3 6.5-34.5l7 3.8c1.5-10.5-2-25.9-7.3-27.5m2.4-21c-2.1 21.6 1.3 22.2 15.7 21.1.8-1-.2-3.6-1-4-9.9-4.3-1.9-17.3-14.7-17.1m-19.4-8.5c4.1 0 3.6 12.4 5 13l.2-.3c1.6.7 1.9-2.3-1-13.5 4-.2 9.3 5 11.8 8 .3 10 2 22.3-6.3 27-7.3-2.4-17.5-9.2-16.1-23a32 32 0 0 0 6.4-11.2m-9.7 17c7 8 6 27.7-4.4 33.9-12-5.7-9.9-31.9-3.5-33.8 3.8.7 2.5 9.7 3 15.2l1.8.5c.8-5.7-1-15.1 3-15.8m-21.7-13.8c-11 3.6-16.8 23.4-12 35.5 15.2-1.6 29.2-22.8 14.6-35.2-1.4 4.7-1.8 8.5-3.1 9.7-.5-2 .4-4.3.5-10M331 193.6c7.7-5.8 13-12.8 17.2-20.4 6 2.2 10.7-.6 15.6-1.1-6.8 18.3-19.7 23.7-32.8 21.5m84.3-116.5c16-2 33 3.6 45.2-18.7C437.5 71 408.2 52 402 65c5 3.6 11.7 1.6 17.3 4q-2.5 4-3.9 8m19.2 16c-7-2-19.3-3.6-18.9 3.2 1.7 5.5 15.3 1.6 18.9-3.2m-23.3-20.7c2.3 7.4-8 8.4-13.6 10.8l9.4.6-3.9 6.8c.8-1.2 2.6 1 3.2-.2 7.8-16.3 35 4 68.8-15.5-11.4 22.3-19.4 26-48.9 29.2-5.5 7.5-14.8 6.9-24.7 4.9 4.7 10 15.7 6 25.8 4 10.2 3 7.3 19.1 17.3 22.2-7.2 4.2-12.8 1.4-17.7-4 4.5 11 7.5 23.1 14.6 32-20.6 1.5-22.8-13.7-32.2-22.2-2.5 11.2-2 22.8-14.2 30.2-8.8-5.6-11.9-14.2-14.6-24.3-8.2 16.6-17.7 25-29.9 22.4 5.6-12.2 14.5-20 11.7-41.7h3.4c-3.3-7.5-10.7-12.9-11.9-20.7 9.4 3 18.4 5 23.3-9.6q7.3.2 16.3 3.6c-5.9-7-14.4-11.2-22.4-16-6.5-3.4-13.3-3-22.5.4-10.7 3.9-24 1-28.5-11.9-.7-16 14.5-19.6 27.7-19 23.3 1.7 41.7 15.1 63.5 18M458 89.5c-9.6 4.1-25 6.5-33.5 11-10.1 4.4-13.9 2-15-3.2-.9-7.2 6.1-9.4 17.4-9.3a81 81 0 0 0 31 1.5m-157.7 38c15.6-6.4 33.3-4.9 50.6-3.9-2.3-8.8-45.4-7.8-50.6 3.8m-95 63.9a106 106 0 0 1 34.6 38.1c1.5 2.2-5.2 8-7.9 7.2-4.8-4.1-8.6-13-12.8-20.2q-3.3-.8-2.3 2.5c3.5 6.9 6 12.3 10.8 21 1.2 2.7-1.8 7.9-7.9 7.6-14-16.6-16-36.2-14.4-56.2m43-3.9c-1.1 11.7.1 22.5 7.8 30.7-3.4 3.7-6.4 7.4-14.4 9.8-7.2-11.8-2.5-36 6.7-40.5M225 181a49 49 0 0 0 11.8 20.7c0 4.9-2.3 7.6-5.1 9.7-10.3-10-13.9-21.8-6.7-30.4m-37.8 28.6c.2 6.3 10.1 21.6 18.4 22.6-.5-21.4-1.3-22.5-18.4-22.6m-12 29a64 64 0 0 1 32.2 21.7c4.8-2.3 6.4-5.5 8.7-8.4-9.3-16-28-22.2-41-13.3m4.1-99.5c-3.7-4.9-7.6-9.6-6.7-17.6 1.6-2.8 3.3-5.5 6-6.6.5-4 1.6-7.6 5.3-10-5.4-7.1-4.2-13.5 4.1-13 3.6 3.6 8 3.4 12.4 2.3 5 7 .1 14-5 19.7a134 134 0 0 0-16 25.2m22.1 69.7c1-8.6.5-15 1.2-19.8 3.8-2 7.4 2.8 13 2.8-11.3-20-32-27.5-38-50.8-6.4-4.8-9-10.9-8.6-20.2-2-10.4 1.2-21.2-9.5-30.9-5 5.7-9 3.7-13.3 4-9.5 4.7 1.7 15.9 10.5 15.3-5.4 9.4-2.6 18.6 3.2 28.8-13.8-4-28.1-35-36.9-34-1.4 4.9-3.4 7.7-9.2 8.8-8.5 9.3 6.2 18.6 13.8 15 2 8.8 14 11.5 21.2 19-1.9 8.4 1.8 13.3 8.2 16.4-2.7 4.9-4.7 10.4-1.4 20.4-8 2.5-15.1 8-11.9 14.6 4.8 1.7 6.8 4.4 7.8 9 19.3 6 15.5-30.7 17-47.6 11.5 14.8 20.7 33.6 33 49.2m20.3 85.2c-4.8 3.8-10.8 6.2-16.5 4.7.2 8.8-6 17.2 3 27.3 5 .5 10-.5 14.1-5.4l4.8 10.8a55 55 0 0 0 27.6-16.2c9 10.4 29.8-3.4 37.8-11.8-17 5.5-27 9.6-34-4.4-18.6 15.2-31 17-36.8-5m-.4-39.5a48 48 0 0 0-14.8 42.2q11.4-1.6 17.5-11.5c.4 8.7 2.2 16.8 11.5 22a43 43 0 0 0 26.6-18c.2 6.4 1.3 12.2 6.8 16 19.5 0 30-11.7 44.7-19.3-15.5 1.3-14.6-6-13.4-13.5-17 12.9-34.6 11-32.3-1.7-22.5 16-39.4 8-33-7-12 1.3-15 4.8-13.6-9.2m447.4 206.4c21 .8 34-30 9.1-26.9 24.2 9.2-6.6 27.2-20 8.4-7.5-21.5 19.3-27.3 13.8-52-5.8-19.8-27.3-22.2-37.8-1.1-6.4 9.9-2.3 19.9-20.7 36.5-8 7.4-15.8 14-19.5 26.7-7.4-32.3-27.8-28.6-49.8-20.4 19.7 3.2 40.8 13.4 36.6 48.6-1.5 27.6 12.5 45.3 33 58.3 14.8 10.7 41.9 18.9 33.4 46.4-9.4-9-23-14.5-29.3-2.4 20.2-7.6 29.5 17.6 4 18-47.2.6-75-49.7-80.5-87.5-5.2-37-25.6-59.9-49.4-71.5-42.4-18-62.6-38-79.6-59 3.7 10 9 19.5 8.6 30.6-19.6 1.5-33.7-15-50.5-22.9 4.2 9.4 13.4 18.2 12.3 28.2-11 4.2-18-4.2-26.7-6.7.6 5.5 1 11-2.2 14.6-12 5.2-21.7-9.2-32.5-14.4 1.5 5.3 2.6 10.6.3 15.9-13.5 3-18.7-4-27-7.2-.2 3.1.1 6.3-3.8 8.9-15.2.3-17.6-9-25.3-15-1.8 3.7-3.7 7.3-4.3 11.6 18 16 30.7 22.3 84.2 34.4 27.5 9.6 75.1 11 57.5 75.6l-8.9 38c-4.4 21.5-7.6 23 4 45.2 6.3 11.2 9.1 21.8-1.8 29.8 13.7.4 26.6 0 20.2-18.5-3-7.1-8.3-15.2-8.4-21.2 2.6-1.4 8.4 16.1 30 22 11.6 3 20.3 9.9 19.8 28.8-.5 8.6.5 16.2 1.9 23.6 7.3 20.8.8 30.2-15 31.8-10.5.3-15-27-36-19.8 3.8 7.4 2.5 13.3-2.7 18-3.2 8 2.1 7.3 7.7 6.3 15.2-5.8 17.8 10.3 44.8 2.7-13.9 18.5-41.6-11-52.5 6.7q5.6 5.8 2.7 17.4c3 4.8 7.7 2.8 12-1.3 14-12.8 24.5 4.7 42.8-13.2-10.7 26.6-41.6.7-45.2 22.9 7 2.5 8 8 6.7 14.4q13.4 9.6 26.7-4.8c5-5.2 10-10.8 16.2-12.3 18-5.6 12.6-20.6 14.6-32.7 4.3 8.8 1.4 30.2 14.7 23 1.5-11 7.5-12.4 16.6-7.4 9.2-4 .5-18.4-10-19.7-7.9-.7-14-8.2-10.4-20.7 8.1-24.8 4.2-55.4 6.7-60.6 13 25 26.4 27.8 38.5 6-28.3 4.5-26.9-13.7-29.3-28.9 9.7 11.2 21.8 19.2 32.7 1.2-14 1.5-15.4-7.4-18.3-15.1-7.1-25-23.2-21-40.4-13-19.6 6.2-27.4-8.6-19-19.5a198 198 0 0 0 27-49.8c6.6-19.2-1.5-49.7 1.8-54 24.6 7.8 32.7 42.5 42.4 74.4 10.4 35 29 76.2 81.8 80.1 32.4 1.4 69.5-27.5 21.2-74.6-27.8-21.4-2.8-42 8.6-31.5 3-19.7-30.1-19-32 4.8-12.2-23.2 15.1-40 32-28.8-5-16.5-31.9-13.2-40.9 7.7-8.2-29.6 23.3-34.6 38.5-25.3-9.8-21-36.8-8.1-45.5 3.4 2.1-5 4.6-12.9 14.4-22.6 13.7-13.2 23-25.2 26.4-39.7 3.6-16 8.5-23 15.5-20.7 12 5.4 3.4 17.3-2.6 27.6-15.7 17.8-6.4 45 15.9 44M290.7 609.3c-12.9 17.4-5.2 39.8 22 28-25-15.2-11.8-25-.5-38.9-1.4 13.8-2.2 27.2 24 25.6q-12.4-13.4-3.4-25.1c16-20 3-29.7-15.8-39.3-6.9-7.3-.6-19.6 9-21.9 19-4.6 35.8 8.1 66.5 7.4 9.3-20.7-21.5-61.4-32.1-65.7a123 123 0 0 1-72 1.5 42 42 0 0 0-58.8 21c-3.7 14-16.4 12.7-24.3 7.8 2.3 22.5 20.6 21.2 32.5 5.7 2 6.1-2 12.3-2.2 17-.4 9 2 14.8 13 20.5 16.7 9.4 10.8 27.1-2.1 36.9-14.6 11.7-22.8 27.7-29.3 44.9-5.5 12.5-24.2 7.7-25.8-1.8-2.3-12.4 4-32.6-8.5-35.8-3.4 7.5-8.4 10-14.7 8.7-6.6-1-7.8 4.1-3.5 7.2 12.3 6.8 10.7 24.2 27.1 33.8-17.5 2.4-22.6-42.2-39-30.4 1.6 5.2.6 9.7-7 12.6-2.5 1.7-6 6.2 1.6 7.4 23 .4 15.5 19.4 39.3 20 2.1 0 2 2.4-.5 2.7-9.3-1-15.3-2.7-20.7-8-4.8-7.7-13.2-15.9-23.6-9.5 1.4 6.6 2.7 13.2-5.6 16.3-6 18 23.9 11.2 36 16.7 27 .5 24.3 5 34-10 1.1 4.8-2.2 9.7-6 14.5-1.9 3-4 7-4 10.7 0 6.3 4 11.3 8.5 6.1 3.6-10.8 16.5-11.5 20-.8 1.5 3.1 5.1 3.4 6-.2 1.4-13.4-6.6-14.3-7.7-27.1 31-19 52.2-35.4 67.6-58.5m67.7-137.1c16 12.4 31 30 39 48 9-29.9-21-47.2-39-48m18-191.5a31 31 0 0 0 15.3-23.1c6.1-1.2 8 12.3 4 25.4-3.7 3.2-15.1 2-19.3-2.3" id="path3023" style="fill:#d62828;fill-opacity:1;fill-rule:evenodd;stroke:none"/></g><!-- app4joy --></svg>