<svg id="svg21" width="317.5" height="158.75" viewBox="0 0 317.5 158.75" xml:space="preserve" xmlns="http://www.w3.org/2000/svg" xmlns:xlink="http://www.w3.org/1999/xlink"><defs id="defs2"><clipPath id="c"><path id="path1" d="M182 65c-1 7.9-2 14.9-2 23 0 50.1 20.4 93.8 53 110 32.6-16.2 53-59.9 53-110 0-8.1-1-15.1-2-23a57 57 0 0 1-51 0 57 57 0 0 1-51 0" stroke-width=".2646"/></clipPath><clipPath id="a"><path id="path2" d="M48.2 17.2q-.5 3-.6 6c0 13.3 5.4 24.9 14 29.2 8.7-4.3 14-15.9 14-29.1q0-3.1-.5-6.1a15 15 0 0 1-13.5 0 15 15 0 0 1-13.4 0" stroke-width=".2646"/></clipPath></defs><g id="g22"><path id="path3" d="M0 0h317.5v158.8H0Z" fill="#d7111b"/></g><g id="g21"><path id="path4" d="M49.3 36.5q-3 4-3 9.3a15.6 15.6 0 1 0 28.2-9.3 13 13 0 0 1 .4 3.2 13 13 0 1 1-25.6-3.2" fill="#369d27"/><path id="path5" d="M46.6 14.6c-1.4 0-4.4.5-5.2 4.8 0 0-2.7 2-5 6 0 0-.3-.6.5-1.5 0 0 2.5-2.7.8-8.3 0 0-4.2 4.7-2 8.7 0 0 .5.5.5 1.3 0 0-2.4 4-3 8 0 0-.5-1.2-.4-2 0 0 1.2-2.9.8-5 0 0-.6-2.5-1.8-4 0 0-3.8 4.8-.3 8.4l.7 1.4.4 1.3.4 1s-.8 4.8-.3 7.6c0 0-1.2-1.5-1.2-2.7 0 0 .8-5.1-3-8.5 0 0-2.2 4.6.1 7.2l1.8 2s2 2 2.5 3.4c0 0 .6 4.4 1.2 5.5 0 0-1.8-.8-2.1-3.6 0 0-.3-3.3-4.3-5.5 0 0-1.4 5.3 3.4 7.9 0 0 3 1.5 3.6 2.7 0 0 2.1 4.7 3.3 5.9 0 0-1-.2-2-1.3 0 0-2.4-5.7-7-6.2 0 0-.1 5.8 6.3 7.3 0 0 2 .2 3 .7 0 0 2.6 3.2 4.7 5 0 0-2.4 0-3-1.2 0 0-1.8-3.9-7.6-3.8 0 0 1 5.2 7.7 5.3 0 0 3-.2 3.8.3 0 0 3.7 2.9 6 3.8 0 0-1.4.1-2.5-.3 0 0-5.4-3.8-9.5-1.1 0 0 2 4.1 9.5 2.3 0 0 3.2-.6 3.8-.3 0 0 4.4 1.7 5.8 1.9 0 0-1.4.9-3.8-.1 0 0-3-1.8-6.6 1 0 0 3 3.7 8.7.7 0 0 2.3-1.5 3.3-1.3l1.6.3s-3 3-5.8 4.7c0 0-.6.3 0 .5 0 0 2.2 1 4.1 1.1 0 0 2.8-2.7 3.4-6 .6 3.3 3.4 6 3.4 6 2 0 4.2-1.1 4.2-1.1.5-.2 0-.5 0-.5a34 34 0 0 1-6-4.7l1.7-.3c1-.2 3.4 1.3 3.4 1.3 5.7 3 8.6-.7 8.6-.7-3.5-2.8-6.6-1-6.6-1-2.3 1-3.8 0-3.8 0 1.4-.1 5.9-1.8 5.9-1.8.6-.3 3.7.3 3.7.3 7.5 1.8 9.5-2.3 9.5-2.3-4-2.7-9.5 1.1-9.5 1.1-1 .4-2.5.3-2.5.3 2.3-1 6-3.8 6-3.8.8-.5 3.8-.3 3.8-.3 6.8 0 7.7-5.3 7.7-5.3-5.8 0-7.6 3.8-7.6 3.8-.6 1.1-3 1.2-3 1.2 2.2-1.8 4.7-5 4.7-5 1-.5 3-.7 3-.7a8 8 0 0 0 6.5-7.3c-4.7.5-7 6.2-7 6.2-1 1.1-2 1.3-2 1.3 1-1.2 3.3-6 3.3-6 .6-1.1 3.5-2.6 3.5-2.6 4.8-2.6 3.4-7.9 3.4-7.9-4 2.2-4.3 5.5-4.3 5.5-.3 2.8-2.1 3.6-2.1 3.6.6-1 1.3-5.5 1.3-5.5.4-1.3 2.5-3.5 2.5-3.5l1.7-1.9c2.4-2.6.2-7.2.2-7.2-3.9 3.4-3 8.5-3 8.5-.1 1.2-1.3 2.7-1.3 2.7.5-2.8-.2-7.6-.2-7.6l.3-1 .4-1.3c.5-1.2.8-1.4.8-1.4 3.4-3.6-.4-8.3-.4-8.3-1.2 1.4-1.8 4-1.8 4-.4 2 .8 5 .8 5 .2.7-.4 2-.4 2-.6-4.2-3-8.1-3-8.1q.2-1.2.4-1.3c2.3-4-1.8-8.7-1.8-8.7-1.8 5.6.7 8.3.7 8.3.8 1 .5 1.5.5 1.5-2.3-4-5-6-5-6-.8-4.3-3.8-4.8-5.2-4.8h-.7c.4 5 5.6 5.6 5.6 5.6 3 2.6 4.5 5.5 4.5 5.5l-1-.7c-3-4.6-7.7-3.8-7.7-3.8 2 5.2 7.7 5.2 7.7 5.2 1.6 0 2 1.1 2 1.1a27 27 0 0 1 2.2 6.4l-.8-1c-2.2-6-6.9-5.8-6.9-5.8 1.4 6 6.1 6.4 6.1 6.4.9.1 1.8 1.4 1.8 1.4.5 3.6.3 6.6.3 6.6 0-.3-.4-1-.4-1-.3-.6-.5-2-.5-2-.8-4.2-4.7-5-4.7-5-.8 5.5 4.9 7.6 4.9 7.6 1.6 1.4-.7 7.6-.7 7.6l-.1-1c.5-6.6-4.5-7.5-4.5-7.5 0 3.1.5 4.2.5 4.2.5 1.4 3 3.2 3 3.2.6.6.8 1.7.8 1.7-.4 2.6-4 7.6-4 7.6-.1-1.1.3-1.9.3-1.9 2.6-4.7-.7-7.9-.7-7.9-3.2 4.3-.4 7.5-.4 7.5.4.8.3 2.9.3 2.9a36 36 0 0 1-4.8 4.6V62l1-1.9c3-3.6 0-7.9 0-7.9-2.8 3.2-1.6 7.1-1.6 7.1.8 1.8 0 3.1 0 3.1-1.5 1.7-5.9 3.6-5.9 3.6.8-1 1.7-1.8 1.7-1.8 3.3-2.6 1.6-7.3 1.6-7.3-4.2 2.4-3.2 7.4-3.2 7.4-.1 1.8-1.4 2.3-1.4 2.3-1.9.8-4.6 1.4-4.6 1.4q.6-.7.8-.7c4.6-2.6 3.3-6.7 3.3-6.7-4.4 1.7-4.3 6.7-4.3 6.7 0 1-1 1-1 1l-1.4.2c1.8-1.1 1.7-2.3 1.7-2.3-.2-3-4-2-4-2s-4-1-4.2 2c0 0-.1 1.2 1.7 2.3l-1.5-.2s-.8 0-.9-1c0 0 .2-5-4.3-6.7 0 0-1.3 4.1 3.3 6.7q.2 0 .8.7s-2.7-.6-4.6-1.4c0 0-1.3-.5-1.4-2.3 0 0 1-5-3.2-7.4 0 0-1.7 4.7 1.6 7.3 0 0 1 .9 1.7 1.8 0 0-4.4-1.9-5.8-3.6 0 0-.8-1.3 0-3.1 0 0 1.1-3.9-1.7-7 0 0-3 4.2 0 7.8q.1-.1 1 1.9v.1s-3.7-3-4.7-4.6c0 0-.2-2 .2-2.9 0 0 2.8-3.2-.4-7.5 0 0-3.3 3.2-.7 8 0 0 .5.7.4 1.8 0 0-3.7-5-4-7.6 0 0 .1-1 .8-1.7 0 0 2.5-1.8 3-3.2 0 0 .5-1 .4-4.2 0 0-5 .9-4.5 7.5l-.1 1s-2.3-6.2-.7-7.6c0 0 5.7-2 5-7.5 0 0-4 .7-4.8 5 0 0-.2 1.3-.5 2 0 0-.4.6-.4.9 0 0-.2-3 .3-6.6 0 0 1-1.3 1.8-1.4 0 0 4.7-.4 6.1-6.4 0 0-4.7-.2-6.9 5.8l-.8 1s.9-4.2 2.2-6.4c0 0 .4-1 2-1.1 0 0 5.8 0 7.7-5.2 0 0-4.8-.8-7.6 3.8l-1 .7s1.5-3 4.4-5.5c0 0 5.3-.6 5.6-5.6zM62 65q1 0 1.1.5c.1.5-.5.4-1 .4q-1.1 0-1.2-.4 0-.6 1.1-.5m0 2.1q.9 0 1 .5-.1.4-1 .5-.9-.1-1-.5.1-.5 1-.5m0 1.6q.8 0 .9.6t-.9.6-.8-.6.8-.6m-2.8-3q.1-.2.3.4s0 .7.2 1.2c0 0 .5.6.5.9 0 0-.6 0-1-1.4 0 0-.4-1.3 0-1.2m5.7 1.1c-.5 1.4-1 1.4-1 1.4 0-.3.4-.9.4-.9.3-.5.2-1.2.2-1.2q.1-.6.3-.5c.4 0 .1 1.2.1 1.2" fill="#ffec00"/><path id="path6" d="M48.4 17.2q-.4 3-.5 6c0 13.3 5.4 24.9 14 29.2 8.7-4.3 14-15.9 14-29.1q0-3.1-.5-6.1a15 15 0 0 1-13.5 0 15 15 0 0 1-13.5 0" fill="#ffec00"/><g id="g20" transform="translate(.3)" clip-path="url(#a)"><path id="b" d="M49.1 16.3v37" fill="none" stroke="#fff" stroke-width=".3969"/><use id="use6" transform="translate(1.7)" xlink:href="#b"/><use id="use7" transform="translate(3.3)" xlink:href="#b"/><use id="use8" transform="translate(5)" xlink:href="#b"/><use id="use9" transform="translate(6.7)" xlink:href="#b"/><use id="use10" transform="translate(8.4)" xlink:href="#b"/><use id="use11" transform="translate(10)" xlink:href="#b"/><use id="use12" transform="translate(11.7)" xlink:href="#b"/><use id="use13" transform="translate(13.4)" xlink:href="#b"/><use id="use14" transform="translate(15)" xlink:href="#b"/><use id="use15" transform="translate(16.7)" xlink:href="#b"/><use id="use16" transform="translate(18.4)" xlink:href="#b"/><use id="use17" transform="translate(20)" xlink:href="#b"/><use id="use18" transform="translate(21.8)" xlink:href="#b"/><use id="use19" transform="translate(23.4)" xlink:href="#b"/><use id="use20" transform="translate(25.1)" xlink:href="#b"/></g><path id="path20" transform="translate(.3)scale(.26458)" d="m174 164 126-74" clip-path="url(#c)" fill="none" stroke="#fff" stroke-width="26"/><path id="path21" d="m70.1 26.7-1.8 1.5-.4.5v.7q.2.4.7.5l.7.2q.2.1 0 .2-1 .5-1.5 1.6l-.1.8q0 .3-.3.3t-.3-.4v-.4q-.2 0-.2.2a1 1 0 0 0 0 .9l.7.3q.4.1.5-.4l.2-.6v-.7q.3-.8 1-1.1l.4-.4h.4q.6.2 1.3.1.3 0 .5-.3.1-.5-.1-1l-.2-.4-.3.6q.3.2.3.4t-.2.3l-1.1-.2-1.9-.6q-.2 0-.2-.3l.3-.2 1.6-1.3zm-2 .4v.4h.5v-.4zm2 1.3-.1.5h.4l.1-.4zM65.6 30q-.5 0-.8.5l-.2.8.1.6h.6l.4.1v.3l-.6.4q-.6.4-1.2.3l-.6-.4-.2-.5q0 .7.2 1.2 0 .5.6.5t1-.3q.5 0 .8-.4t.4-1l-.3-.6h-.4l-.4-.2V31q.1-.3.4-.3l.5.3.2-.4-.2-.4zm-4.9 2v.5h-.6v.6h.7v-.4h.6V32zm1 1.3q-.5 0-.7.5-.3.3-.1.8t.5.4q.5 0 .7-.4l.3-.4.2.3q0 .3-.4.5-.6.6-1.4.8-.5.2-.9 0l-.4-.4-.4-.5-.3.5q.4.3.6.7l-.1.5-1 .4.1.2q0 .3.4.3l.9-.5.2-.6q.5.2.9 0A4 4 0 0 0 63 35q.3-.4 0-.9-.1-.3-.5-.4-.3-.3-.7-.3m3.8.2-.1.5-.4-.2-.2.5.5.3.1-.5.4.2.2-.6zm-3.8.4.2.1q0 .3-.4.4v-.3q0-.2.2-.2m-4.2 1.8q0 .4-.6.6l-.6.2q-.5.1-.9.5-.2.1-.2.6.2.3.6.4v-.5l.7-.4h.2l-.5 1.6q0 .5.4.9.5.3 1.1.2l.8-.2q.6-.2 1-1v-.4q-.7.6-1.5.9h-1a1 1 0 0 1-.3-1q0-.4.4-1l.8-.8z" fill="#ffec00"/></g><!-- app4joy --></svg>