<svg id="svg2" width="1440" height="720" viewBox="0 0 1440 720" xml:space="preserve" xmlns="http://www.w3.org/2000/svg"><defs id="defs6"><clipPath id="clipPath18"><path id="path16" d="M0 0h1080v540H0z" clip-rule="evenodd"/></clipPath><clipPath id="clipPath36"><path id="path34" d="M0 540h1080V0H0" clip-rule="evenodd"/></clipPath><clipPath id="clipPath46"><path id="path44" d="M0 540h1080V0H0" clip-rule="evenodd"/></clipPath></defs><g id="g12" transform="matrix(1.3333 0 0 -1.3333 0 720)"><g id="g14" clip-path="url(#clipPath18)"><path id="path20" d="M0 0h1080v540H0z" fill="#cc0000" fill-opacity=".98824" fill-rule="evenodd"/></g></g><g id="g1"><path id="path22" d="m618.4 259-4.1 3.7a148.7 148.7 0 1 0 210.3 0l-4.1-3.7 2 1.2a184.3 184.3 0 1 1-206 0z" fill="#ffffff" fill-rule="evenodd"/><path id="path24" d="M654 258.5h50l15.4-49.9 15.5 50h49.9l-40.4 30.7 15.4 49.9-40.4-30.8-40.4 30.8 15.5-49.9z" fill="#ffffff" fill-rule="evenodd"/><path id="path26" d="M627 470.9h16.2V192.6H627z" fill="#ffffff" fill-rule="evenodd"/><path id="path28" d="M795.7 470.9h16.1V192.6h-16.1z" fill="#ffffff" fill-rule="evenodd"/><g id="g30" transform="matrix(1.3333 0 0 -1.3333 0 720)"><g id="g32" clip-path="url(#clipPath36)"><path id="path38" d="M459.7 372.1v25.2l16.6 12.7 16.7-12.7V372l-16.7 13z" fill="#ffffff" fill-rule="evenodd"/></g></g><g id="g40" transform="matrix(1.3333 0 0 -1.3333 0 720)"><g id="g42" clip-path="url(#clipPath46)"><path id="path48" d="M586.2 372.1v25.2l16.6 12.7 16.6-12.7V372l-16.6 13z" fill="#ffffff" fill-rule="evenodd"/></g></g><path id="path50" d="m618 157.7 17.2-35 17.3 35-17.3 35z" fill="#ffffff" fill-rule="evenodd"/><path id="path52" d="m786.4 157.7 17.3-35 17.3 35-17.3 35z" fill="#ffffff" fill-rule="evenodd"/><path id="path54" d="M486 215.7c17-.3 35.1 10.6 52.7 24.3l9.7 8 22-19.4c2.4 19.9-1 36 10.6 47.5 51.8 52 122.5 123.2 132 150.6-31.7-6-121.3-98.3-159.6-119.5-19.7-11-46.5-2-75.6 2.4l47.2-41.3-4-5.7a38 38 0 0 0-55.5.4c-.7-7.4-7.3-21.2-14.3-24.4 10.3-16.2 22.2-22.7 34.8-23" fill="#ffffff" fill-rule="evenodd"/><path id="path56" d="M954 215.7c-17-.3-35.1 10.6-52.7 24.3l-9.7 8-22-19.4c-2.4 19.9 1 35.9-10.6 47.4-51.8 52-122.5 123.1-132 150.6 31.7-6 121.3-98.3 159.6-119.5 19.7-11 46.5-1.9 75.6 2.4L915 268.3l4-5.8a38 38 0 0 1 55.5.5c.7-7.4 7.3-21.2 14.3-24.4-10.3-16.2-22.2-22.7-34.8-23" fill="#ffffff" fill-rule="evenodd"/></g><!-- app4joy --></svg>