<svg id="flag" width="1024" height="512" viewBox="0 0 1024 512" xmlns="http://www.w3.org/2000/svg"><g id="g1"><path id="blue" d="M0 0h1024v512H0z" fill="#3771c8"/><path id="white" d="M341.3 0H1024v512H341.3z" fill="#fff"/><path id="yellow" d="M682.7 0H1024v512H682.7z" fill="#ff0"/></g><g id="tree" stroke-width="2.3944"><path id="black" d="M625.6 410s.4-3-3.1-2.8l-.7-3.5s-.2-1.8-1.3-.6c0 0-2.3 2.4-4.5 2l-.5-4.8s-.2-1.1-2.2-.7c0 0-3.4 1-4.3 1 0 0-1-3.3-.5-5.7 0 0 1.3-3.7-3.2-1.7l-4.8 2.6-1.7-5.6s-.3-1.3-1.8-.6l-4.3 2V384s0-1.9-2-.9c0 0-4.9 2.2-5.6-.2 0 0-1-6-3.3-6.2l-6 3.3-1.6-5.2-5.6 2-3.8-7.6s-.6-1.7-2.4-.2l-6.8 6.4s-3-2-4-5.6c0 0-.5-2.1-2.8-.4l-6 4.1s-1.3.7-2-.6l-.6-1.3-1.4-2.6s-.7-1.3-2.1-.4c0 0-5.8 4.2-7.5 5.7 0 0-1.4 1.3-2.9-.4 0 0-4.8-7-5.6-5.8l-4.1 5.2s-2 3-2-.8l-2.5-121.9s1.7-7.8 11.4 2.7c0 0-3.4 3.3-3.8 8.5 0 0-.4 4.6-1.2 5.9 0 0-1.3 2.6.4 3.9 0 0 .7 1.3 0 2.4 0 0-1.2 4.6 2 5.4 0 0 3.3.8 4.4 3.4 0 0 1.6 3.3 4.6 3.3 0 0 3.2.2 4.5 1 0 0 4.8.8 5-2.2 0 0 .8-5.3 3.4-10.5 0 0 7.2-20.8-16-23.3 0 0-1.8-3-7-8.2l-5-5.2s1.8-33.4 1.6-37.1c0 0-1.8-.9-2.6-1.1l.8-5.2s.4-2.4-2.2-3c0 0-1.3-15 15.8-13.3 0 0 9.6.6 9.6 20.4 0 0 3.2 1.3 4.3-4.8 0 0 1.4-4.1 2.8-.9 0 0 1.5 6.5-.8 9.1 0 0-2.8 2.9 1 2.2 0 0 .7 2 1.6 1.3l.9-.7 4.3-2.8s4.2 8.4-6.5 25.9c0 0-2.2 3 .9 1.3l8.6-5.7s2.1-.5 2.8 2.3c0 0 .5 3.7 2 4 0 0 .4 0 .2-1.8 0 0-.7-9.1 3.2-7.2 0 0 0 4.5 4 4 0 0 1-3-2.6-12.7 0 0-.9-2.4 1.3-2.9 0 0 3.2-.6 3.4-1.5 0 0 .3-.5-1.7-1 0 0-6.7-2.6-4-5.3 0 0 3-1 5.5-1.1 0 0 5.5-1.2 6.2-4 0 0 .6-1.3-1.5-.8 0 0-3 .1-7-1 0 0-2.6-.5-4.7-.7 0 0 .8-3.9 3.8-4.6 0 0 5.2-1 5-3.5l-9.8-.1s-.4-1.3 2.8-3.5c0 0 6.5-3.3 3.2-5 0 0-3.9 2.2-11.4 1.4 0 0-.7-7.2.5-10 0 0 .8-2-.6-.9 0 0-3.3 2.4-5.6 1.6 0 0-.3-3.5 1.9-5.3 0 0 .6-1.4-1-1.3 0 0-4.2 3.1-6.2 2.3 0 0-1-.2.2-1.8 0 0 2-2.4.2-2 0 0-4.3 1.4-6.4 4.3 0 0-1.1 1.3-2 0 0 0-.9-1.8-1.5 0 0 0-1 8-17.3 6.2 0 0 14-14 34.1-12 0 0 7.8 1.7 11.8 13.1 0 0 2.8-3.5 2.4-5.4 0 0-1-5 1.7-2.6 0 0 3.7 2.1 8.3 8.4 0 0 1.7.2 1-1.8 0 0-1.5-7.1-3.7-10.6 0 0-.3-2.2 3.8-3.7 0 0 2.6-.5.4-1.8 0 0-5.4 1-5.6-.8 0 0-.2-2 1.7-3.5 0 0 3-2 2.4-4.3 0 0-1.8 1-5 1.3l-3.3.3h-3.6s2.3-3.3 1.9-5.5l-8.2 3.2s-2.8 1.3-2-2.4l1-7.9s-6.4 7.7-9.9 7c0 0-1.5-1.2 1.7-6.9 0 0-.6-.6-1.5.3 0 0-6.2 5.9-8.4 5.2 0 0 0-2.1 1.4-6 0 0 1.7-3 0-2.1l-.6.3s-7.7 3.3-13.3 14.9c0 0-4.2 9.8-11.5 16.2 0 0-.8-8.5 7.1-18.5l10.5-12s10-9.2 18.9.6c0 0-.2-6.7 3.4-5.9 0 0 6.3 2.3 9.1 1.9 0 0-1.7-7.6-5-8.4l-2.9-.9s-2.6-1.3-.6-2.6c0 0 4.9-4.8 2.3-4.4 0 0-3.7 2.5-5.2 1.8 0 0-2.2-.8-3.9.7 0 0-2.1 1.3-3.2.7 0 0-.6-3.5.8-5.9 0 0 .8-2-1-1.3 0 0-3.5 1.4-7 4.4 0 0-2.3 2.2-2.1-.2 0 0 .8-5.4-.5-3.9l-6.2 8s-2 2.5-2.2-.3l.4-4.3s-7.7 5.2-10.3 14.2c0 0-.1 7-1.6 7 0 0-1.3-1.1-.3-9 0 0 4.5-22.2-4.4-29.5 0 0-2.5-.8-3 3 0 0-1.7 12.3-1.9 18 0 0-1.1 7.3.7 22 0 0 2 18.8-.6 27.5 0 0-5-3.7-4.7-16 0 0 1.2-19.2-2.6-25.5 0 0-1.3-1.3-1.3 1.6 0 0 .3 5.8-1.2 5.8 0 0-1.3-1.9-1.1-5.2l.2-3.2s.5-4.4-1.4-1.5c0 0-2.1 2.4-2.3-1.3l-.3-6.1s-.5-2-1.5 0c0 0-2.1 6.3-3.7 4.6 0 0-2.4-7.1-7.2-11.7 0 0-1.3.3-.9 2 0 0 2.7 8.2-1 6.5 0 0-6.5-3-8.5-6.8 0 0-2-2-1.7.4 0 0 2.2 4 .5 4.1 0 0-3 .6-4.8-1.9 0 0-2.4-2-2 .7 0 0 2 6.3.7 6.3 0 0-2.8.2-5-.8 0 0-4.9-2-4.5-.2.2 1 .9 1.5 2.2 3.2 0 0 2.4 2.4 0 3 0 0-5.8 2-10.9 13.8 0 0-.7 2.7 2.6.2 0 0 18.7-18.8 37.5 2.8l-2.4 2.6-9.2-8.9s-1.9 2 1 6.3c0 0 2.2 3 .5 6 0 0-14.6-15.4-15.1-13.9 0 0-1.7 1.6 2 7 0 0 1 4-.8 4.1 0 0-6.6-.5-12-1.2 0 0-2.2-.1-3.5-.7 0 0-1.1 2 2.1 3.4 0 0 9.7 5 3.3 5.9 0 0-5.1.8-11.2-3.3 0 0-1.5 4.1 4.6 9.2 0 0 1.7 1.1.2 2.5 0 0-4.3 3.3-5.4 9.2 0 0-.5 4.5-1.8 6.8 0 0 2.8.7 5.8-2.9l2.4-2.3s1.6-.6 2 1.7c0 0 0 8.5 2 8.5 0 0 .7.2 1.4-2.3 0 0 5.5-22 22-19.7 0 0 12 1 23.3 11.5 0 0-.5 1-4.3 1 0 0-5-6.4-17.7-9.5 0 0-3-.7-.9 1.3 0 0 5.1 4 3.3 5.1 0 0-8.8-2-14.2-1 0 0-.6 1 1 1.7 0 0 5.6 2.6 2.6 3.6 0 0-8-.5-12.6 3.4 0 0 1.5 1.8 5 2.6 0 0-7.5 3.6-10.3 7.7 0 0-.5 1.1 1.4 1 0 0 9.4-.8 7.2 1.2 0 0-8.3 4.2-12.6 16 0 0-.1 2 1.8.8 0 0 6-4 6-1.6 0 0-.6 15.4 1 16.7 0 0 1.2 2.5 5.5-6.1 0 0 2.4-6.1 5.7-1.8l4.4 5.3s1.9 3 2.4 0c0 0 1.3-5 .9-10.5 0 0 .4-1.6 1.3-.4 0 0 .1 4.4 2.3 2.5V208s5-1.6 5.1 2v3.7s-.9 3.5.7 5.8v3s-.2 2.6 1.1.6l1.3-1.9 1.9-2.8s1.1-1.8 2-.4c0 0 4.5 7.3 11.9 7.8l.6-11.6s2.5-.2 1-5.5c0 0-.8-2.2.5-3 0 0 .8-.8 0-2 0 0-1.2-3.1 1-4.3 0 0 .6-1-.4-2.6 0 0-2-11 1.5-13 0 0 1.8-.8 1.8 1v1.7s-2.3 52.7-1.3 82.4l1.3 106.7s-1.4 5.7-6.7-.1c0 0-2.4-3.7-4.5-1 0 0-1.1 2.5-2.2 1.2l-3.7-3.2-1.5 1.8s-.8 1.4-2.4-1.1c0 0-1.1-1.8-2.6-.4l-3.4 3s-6-6.8-8.5-7.5l-5.8 8.6s-1.5 3-2.8.8c0 0-1.6-2.4-2.8-.4l-.7 1.1s-.4 1.2-1.7.7c0 0-1.8-2-2.9.3l-1 2.1-1.9 4.8s-1.2 2.6-3 .5c0 0-3.3-3.5-3.7.2l-.4 2.9s-.4 2.4-2.4 1c0 0-2-1.9-3-.1l-2.1 4s-1.5 1.7-2.6.6l-1.1-1s-1.8-2.5-2.6 0l-.8 2.5s-.5 2.7-2.8 1.4l-2.9-1.5-1.2 3.5s-.6 2.2-2.6.4c0 0-2.2-2.1-3 .5l-.9 2.6s-.8 3.3-2.4 1.8c0 0-2.7-3.6-3.6.2l-.9 3-4.3-.3s-3.5-.4-1 2.8l2.3 3.2s.8 2.2-1.4 3.3c14.7 5.1 24 4.1 31.6 1s13.5-8.4 26.3-10.8c14-2.3 31.8-1.8 31.8-1.8 10.9-3.7 21-3.1 32.4-2.3 0 0 9.4 3.6 17 2.4 0 0 5.7-.8 12.7-.5 41 .6 66.3 16.5 71.7 4.2" fill="#161413"/><path id="green" d="M489.6 402c-27.8-2.5-44.1 9.1-44.1 9.1l-7.6-.1c-.2-1.1.2-4.2.2-4.2.2-1.8 2.8-.8 2.8-.8l3 .2c1.2-3.5 2.6-4.4 2.6-4.4l3.7.8c2.8.7 2.8-1.5 2.8-1.5s0-1 .4-2c.7-1.7 2-1.1 2-1.1l2.8 1.7c2.6 2.4 4.9-5.7 4.9-5.7l.8-1.7c.7-1.4 1.8-.7 1.8-.7l3.9 3c2.2 1 2.6-2.2 2.6-2.2l.2-2c0-2.3 1.7-.6 1.7-.6l2.6 2.1c2.2 1.8 4-3.7 4-3.7 1.2-2.5 2.9-.7 2.9-.7l3 3c2.2 1.8 4.4-1.3 4.4-1.3 2.7-3 4.7.4 4.7.4l1.8 2.2c1.7 2.1 3.2.6 3.2.6l2-2.2c1.9-2.6 4.3 1.3 4.3 1.3 2.2 2.8 3.5-.3 3.5-.3 2.7-5.2 6-.5 6-.5 2 2.6 3.5.9 3.5.9l5-6c.9-.7 1.7.5 1.7.5l3.2 4.7 2.2-2.6c.8-1.3 2.1 0 2.1 0l1.6 1.7c1.7 1.7 3.2.8 3.2.8l3.3-2.6 1 1.7c1.4 2.4 4.2-.4 4.2-.4 1-1.4 1.5-.3 1.5-.3l3.2 3.3 2-1.6c1.5-1 2.1-.2 2.1-.2l2 3.4 3-2.2 1.4 2.2c1 2.2 3.8.2 3.8.2 3-1 3 .6 3 .6l.3 2.2 4-.7c1-.4 1.2.6 1.2.6l.7 1.8c.6 2.4 2.6 1.2 2.6 1.2l1.5-.6 2.2 3.2 3.2-1c3.3 1 .3 3 .3 3-5.6 1-13.3-2.1-13.3-2.1-13.2-5.3-34.6.7-34.6.7-2.4.7-3.9-.4-3.9-.4-21.2-7.4-39.2-1.4-39.2-1.4-1.9 1.1-5 .7-5 .7m123.4 6.1-.7-4.8s-1.5-.8-3.2.5c0 0-2.2 0-3-.8l-.3-5.2s-1-1.1-2.6-.2l-1.8.8-2.1 1.1s-1.8 1-2.2-1.7l-.2-2.8s-.8-3.2-3.7-1c0 0-4.3 4.1-4-2.4l.2-3s.3-2.4-2.3-1.3l-2.6 1s-2.8 1.6-3-2l-.3-3.8s-.5-2.6-2.4-1.2l-2 1.3-2.3 1.5s-1.8-.4-2-3c0 0 .2-3.3-2.4-1.7l-2.6 1.7s-2.6-1.9-2.8-4.3c0 0-.3-3.7-2-4l-6.7 5.8s-2 1.6-3.2-.8l-2.4-4.5s-1.6-1.3-4 .6l-3 2.5s-1.9 2.4-3.8 0l-2.5-3s-1-1.8-3 0l-2 1.7-2.7 2.5s-2.1 2.8-4.5-.2l-2.5-3s-1.7-2.4-2.8-.7l-1 1.8-4.7 6.8s-.7 1.8 1 3.2l1.8 1.3s2.2 2 3.5.2l4.7-5.5s1.3-2 2.5-.4l1.3 1.8c0 .1 2 3.6 3.1 1.6l1.3-2.8s.6-1.9 2.3.2l1.6 2.1s1.6 2.8 3.5 1.5l2.4-2.2s1.9-1.5 2.4.6c0 0 .2 3.5 2.6 1.8l1.7-1.6s.7-1.2 1.5.7l.9 2.1s.4 1.8 2.2.4l1.7-1.3s2-1.7 2.6.2c0 0 0 4 2 2.6 0 0 2.3-2.6 3-.2v2s.9 2.5 3.7.3c0 0 4.5-3 5 .2 0 0 0 3.3 2.1 1.7 0 0 2.4-2 2.8-.2l1 2.1s.4 2.4 2.1 1.3c0 0 2-1.5 2.2 0 0 0-.4 4.1 2.6 2.6l1.7-1.1s2-1.3 2.4 1c0 0 .2 3.3 1.7 2.4 0 0 3.3-1.7 2.9 1 0 0-.5 3.4 5.9 4l9.3 1.4zm-205 6.6s13.3-3.4 18.9-4.5l2.8-4.6 4 1.7s1 .2 1.6-1.5l.6-1.8.9-2.1s1-2.7 2.8-.7l1.7 2s.7.3 1.3-1.2l1.5-3.9s.8-2.2 3-.7l2.2 1.5s.8.7 1.3-.6l.6-1.8 1.3-3.5s.6-2 2.1-.2l1.6 1.7 1.8 2 4.2-8.3s1-2.9 2.8-1l1.7 2s3.3 3.7 3.3-.2c0 0 .2-5 2.3-4.6l3.7 2.8s2 1.5 3.3-.7l1.2-2.2 1.1-2 5 4.1s1.8 2.2 4 .4l2-1.7 1.6-1.4 4.1 5s1.2 1.4 2.6-.5l1.7-2.1s1.3-1.8 2.8-.7l1.6 1s2.2 2.6 3.2.7l1-2s.8-.9-1-2.6l-1.3-1s-4-4-5.4-2.4l-1.3 1.7s-.5 1.6-3.3-.6l-2.8-2.1s-1.7-2-2.4-.2c0 0-1.5 4.3-3.2 2l-1.8-2.4s-2-2.6-3.2.7c0 0-.4 2.1-2 .6 0 0-1.5-2.8-3-1.2 0 0-2.8 4.3-5.6 1.1l-2.9-3.2s-2.7-3.9-4.1-1.7l-5.8 8.3-1.3-1.1s-1.4-1.5-2 0c-.5 1.6-.6 1.5-.6 1.5s-.6 2.2-2.1 1.6l-1.5-.9s-1.6-1-2.4 2l-.6 3.3s-.6 3.2-2.8 2.4l-2.2-.9s-2.2-1.2-2.8 1.4l-.8 3s-.1 1.7-1.8.9c-1.9-1-2-.9-2-.9s-1.9-.8-3 1.4l-1 2.2s-.6 2-2 1l-1.2-.8s-1.9-1.5-2.3-.4l-.8 1.7-.8 2.7s-.1 1.1-2 .4l-2.1-.8s-2.2-1.2-2.4.6c0 0-.4 4.2-1.5 3.3l-1-.9s-2-2.1-2.9 0l-1 3.1s-1 3.7-3.7 2l-2.2-1s-.2 1 .3 2.3c0 0 .4 1.5-1.7 1.3 0 0-2.6-.4-1.6 1.1zm126.4-285.2s8.4-2.8 13.8 0c0 0 2 1.3 1.6-.4l-.3-1.8-.4-1.8s2.6-.9 4.6.6c0 0 2.3 2 5.7 1 0 0 .1-5-10.3-3.7h-.6l2.5-3.5s1.5-1.8-1.1-1.1c0 0-6.3 1.5-10.7 7 0 0-1.9 1.2-1.1-.7l4.5-8.9s.6-2.6-1-1.3c0 0-4.4 1.2-8.2 14.8zm-5.8 3.5c6.4-5.1 4.6-15.9 4.6-15.9-8 4.5-4.6 15.9-4.6 15.9m-5.3 6.2s2.7-3 2.8-7.8l.2-4.8s.4-9.9-1.6-8c0 0-3.8 3.3-3.1 7.4 0 0 1.3 8.3 1.7 13.2m-5.8 8.2 2.3-3s0-6.3.7-8c0 0 .8-7-.5-8.4 0 0-.9-.6-1.5 2.1 0 0-.6 5-1.2 6 0 0-1 1.7-.8 4.3l.2 2.6s.2 5.6.8 4.4m-8 1.7.4 12.4c2 .6 2.1-10.6 2.1-10.6.3-3-.3-4.6-.3-4.6-1.3-2.4-2.7-8.6-2.7-8.6-1.4 6.9.4 11.4.4 11.4m-1.6-21 2.9 8.6.8 3c.9 2.9 1.2.6 1.2.6l.2-5.7.2-3.3c.1-3.2-2.7-9-2.7-9l-.8-1.9c-.9-2-1.8-.6-1.8-.6zm.8-20.9a26 26 0 0 0 3.4 12.6l1 2.6c1 2.6 1-5.6 1-5.6l.2-5.2c.1-5.2-2.8-8.8-2.8-8.8-2.3-2.9-2.8 4.4-2.8 4.4m-2.4 81.3-.2 2.5c0 2.5 1.4.5 1.4.5 3-13.7 16.1-16.6 16.1-16.6-9.8-3.3-17.3 11.9-17.3 11.9zm24-12.3c6.8 3.3 9.8 15.2 9.8 15.2 2.6-3.8.8-8.8.8-8.8-.4-2.1 2.2-1 2.2-1a35 35 0 0 1 4.9 12.2c3.5-5.6.7-9.2.7-9.2-5-6.8-18.4-9.3-18.4-9.3-.8 0 0 .9 0 .9m-18 65.2-.2 3.4s3.5-.9 5.5 1.4c0 0 2.4 1.1 0-1.3 0 0-2.8-3-5.3-3.5m-6.8-3.2c2 1.6 3.9.6 3.9.6 3.2-2.4 3.2-8.7 3.2-8.7l-.2-16zm1.6-25.3c-1.3 3-2.2 9.6-2.2 9.6l.2 8c.2-1.1 3.6-12.1 3.6-12.1l1.3-3.6c1.3-3.6.2-9.1.2-9.1-.6 3.2-3.1 7.2-3.1 7.2M505 206v3c0 3 .5 2.1.5 2.1 1.7-.2 3.5-11 3.5-11v-7.3c-4.7 1.4-4 13.2-4 13.2m46.2-7.9c5.5-7 .6-10 .6-10-2.1.4-.6 10-.6 10m3.7.8c1.5 2.5 1.2 7.2 1.2 7.2 1.1-8.7-.7-10.3-.7-10.3-.8 0-.5 3.1-.5 3.1m-5 23.5c5.4-.3 5.6-15 5.6-15a49 49 0 0 1-5.5 15m8.5-16.3s-.3 6.2-1.5 8c0 0-1.3 2 0 7.3 0 0 1.2 1 1.2-1.2v-4.7s0-2.1 1.5-1l1.5 1.2s2.8 2.2 2.4-.2c0 0-.3-3-4.2-4.9 0 0-1.5-1.8.3-2l1.8-.1s3 0 .8-1.8c0 0-1.2-1.5-3.8-.6m-.5-6.7.2 3s1 .6 2.5-1c0 0 3.6-3 4.4-3 0 0 2.5-1.7-1.1-2.2 0 0-3.3-.3-6 3.2m-.2-5 3-4.8s.3-.4.2-.7c-.4-.5-4 .9-4 .9-1.9.8.8 4.5.8 4.5m-2.5-6 4.5-7.3c-4.4-1.4-7.6 2.9-7.6 2.9zm-6-6.2c1.7 1.3 3-2 3-2 1.3-3.4 0-8.3 0-8.3-3.3.8-6 7.2-6 7.2-.3 1.3 3 3 3 3m-17.9-8.8 2.3.3s-.5-2.5.7-2.5c0 0-2.5-1-3 2.2m5.2-2.3c-.8 2 .4 3.9.4 3.9l1.1.4c3.1.8 1.4-7.1 1.4-7.1-.5-1.7-2.9 2.8-2.9 2.8m9.6-3c-1.7 0-3.9 4-3.9 4-1.3 2.7-.1 5-.1 5l1.3.9c3.1 1.3 3-5 3-5 .2-2 .8-3.7.8-3.7.7-1.8-1.1-1.3-1.1-1.3m-35.3 7.6s3.6-7.2 6.7-8c0 0 5.2-3.2 6.6-5.3 0 0-10 2.3-13.8 12.3 0 0-.5 1.2.5 1m-2.2-5.2c-.6 1.8 1.1.6 1.1.6 1.8-3 1-4.5 1-4.5zM563 166l.1-3.6c-.7-2.1-5.5-3.2-5.5-3.2 0 1.3 5.4 6.8 5.4 6.8m-12.8-11h4.6s5.8-4.3 6-6.8c0 0-1.2-1-4.8 1 0 0-7.7 4.2-5.8 5.8m8.3 1.6s5.4 1.2 9.7-4c0 0 1.8-2.5-3.9-.8 0 0-6.3 2.3-5.8 4.8m4.9 2.2 7.7 5.2s2 1.3.5-1.2l-3-3.5s-.7-1.2.8-1c0 0 2.8-.4 1.3-.8 0 0-10.2-1-7.3 1.3m-38.3 1.2s11-11.7 10.6-18.2l-.6-2.3s-2 3.3-3.2 4.3c0 0-9.4 13-9.9 16.4 0 0 .4 1.1 3.1-.2m8.4-3s9-6.6 9.6-13.5c0 0-.5-1.3-2 .2 0 0-8.3 7.4-11 13.1 0 0-.5 1.3 1.8 1zm11-8.4L541 152c-3.4 3.5-2 4-2 4 3 .4 7.2-1.8 7.2-1.8 7.3-5 6-11.3 6-11.3-4 1.2-7.8 5.7-7.8 5.7m-44.7 31.5s-25.7 9.7-7.5 38c0 0 1.7.5.5-1.1l-1.1-1.6-2.3-4.3s-.9-2.7 1-1l2 1.8 2.8 2.6s2.1-2.8-4.8-11.4c0 0-1.5-2.2.7-2 0 0 .8.2 1.8 1.5l1 1.3s1.8 2.3 1.7.8c0 0 .6-3.4-5.2-8 0 0-1.9-3.5.4-2.2 0 0 2.6 2.1 3.6 3.9 0 0 3 2 1.6-1.3l-3.2-6s-1-2.1 0-2.8c0 0 1.4-1.3 2.2 1.1 0 0 1.2 3.3 1.7 3.3 0 0 .8 1 .6-2 0 0 .3-7.5 2.5-9.8 0 0 1.6-.8 0-.8m-4.7-12.2 5.3 3.9s0-3-4.6-7.7c0 0-1-.8-.7 1.2 0 0 .7 1.6 0 2.6m-2.4-1.8s1.4-11-6-15.9c0 0-.3.5.5 1.8 0 0 3.3 4.7 3 9.3 0 0-1.1 2-2 1 0 0 .3-7.4-3.3-9.1 0 0-1.9 0-.9 7 0 0 .3.8 1.3 1.4l2 1.2zm-43.5 5.8s9-15.6 16.5-15.1c0 0 5.3-.7 15.6 3 0 0 .8.6.6-2.7 0 0 1-9.5-5.3-13.5 0 0 1.4 8.3-4.3 12 0 0-2.6 1.4-2.4-1.7l.3-3.4s.5-3-5.6-8c0 0-1-.7-1.2.4 0 0-.6 4.6 1 7.3 0 0 2.6 4.2.1 4.4 0 0-1.1.9-3-3.2 0 0-2.1-6.7-9.9-5 0 0-1.1.5.7 1.7 0 0 2 1.1 2.6 3.5 0 0 1 3.3 4.6 3.7 0 0 1.8 1.3 0 1 0 0-7.5-2.4-14.8-1.3 0 0-1.5.2 0 .6l1.5.5 3.6 1.6s-10.2 6.6-8.9 12.6c0 0 1.3.2 3-1.5l1.6-1.6 6.7-6 .5.7s-5.3 6.4-4.1 10.2zm44.9 6.8s-1.1-.3-2.3 1.6l-.4.7s2.4-1.4 2.7-2.3m-12.7 14.6c1.4-2.5.6-5 .6-5-2 3.4-.6 5-.6 5m.7 21c1.6-3.6 3.5-4 3.5-4 .3-7-2-7-2-7-3 4.8-1.5 11-1.5 11m-7-12.6.3 4.7s3-3.5-.2-4.7m6.5-2.2c4.2-1.4 2.7-4.6 2.7-4.6-3.2.5-2.7 4.6-2.7 4.6m4.7-17.8 4.4-5.8s1.6-1.5-2.5-1c0 0-5.2-6-8.8-6.4 0 0-.3.8.3 2.3 0 0 1.9 5.7 1 6.2l-1 .5s-6.1-6-10.5-5.8c0 0 1 3.1 4.6 5.8 0 0 3.1 2.8 1.5 4.1 0 0-.8.8-3-1 0 0-4.7-4.5-11.8-4 0 0 8.1 4 10 7 0 0 .6 2.1-1.5 1.5 0 0-11-5.1-15.3-.7 0 0 9.5 2.4 11.1 6.6 0 0 0 1.6-3 1.3 0 0-11.1-2.3-14.9 8.6 0 0-.4 1.6 1.3.7l1.6-.7s2.7-.5 4.7-1.8c0 0 3.2-1.5 3.6 0 0 0 .2.9-.8 1.2 0 0-5.2 2.2-5.1 8v5.6s.5 2.1 1.6.5c0 0 5.3-7.2 5.5-11.5v-1.8s1.9-.5 1.7 1.2l-.1 3s-.1 3.7 5 7.7c0 0 1.6 1.8 1.4-.5l-.2-2.3s-.6-5-2.3-7.2c0 0-1.7-6.5 1.2-7.1 0 0 2.8 5.5 5.6 6.1 0 0 2.1.6-.8-11.9 0 0-.3-3.2.6-3.4 0 0 1.8-1.2 2.3 2.3 0 0 0 4.2 2.9 5.6 0 0 2.5-1.5 2.5-7 0 0 .4-7.7 4-9.8 0 0 1.6-1 1.7.3 0 0 .3 5.4 1.5 3.6m7.9-33.2s-9.1-18.3-26.8-20.3c0 0-1.3.2 1.4.8a44 44 0 0 0 24.2 19.2s.9 2 1.2.3m-8.3-2.7 2 2.1c2.2 2.1 2.2.8 2.2.8l-5-5.3c-1 1 .8 2.4.8 2.4m-33.5-17.1c-2.9 1.6-.6 2.4-.6 2.4l5.3-3.1c-1.1-.5-4.7.7-4.7.7m46.7 22.9s1.4-7.4-.5-11.6c0 0-.6-1.5-1.4 1.5 0 0-2 4.7.7 10.2 0 0 .7 2.5 1.2-.1m-8.3-15.6c-1.4 3.3.2 4.6.2 4.6 1 1 2.8 3.4 2.8 3.4 2.1.6.6-6.2.6-6.2-.8-2.5-1-5.6-1-5.6-.5-1.8-2.6 3.8-2.6 3.8m-5.4-2.2 2.5 2.7s1.1 1.8 1.6-2.8c0 0 1.7-7.5-.4-10.6 0 0-3 3-3 6.4 0 0 0 2.8-.7 4.3m-3-2.3s4.4-3.8 1.3-10.4L482 117s-1.3-2-1.7.8c0 0-.6 3.4-.6 6 0 0 0 7 2.8 7.7m-4.6-2.9s1.3-8.1-4.5-10.7c0 0-1.7-1-1 .5 0 0 1.2 2.1 1 3.7 0 0 1.5 6.9 4.5 6.5m-5.3-2s.3-8.7-7.7-8.8c0 0-.6.5 0 2 0 0 2.4 6.8 6.6 7.4 0 0 1 .3 1.1-.7m-9-1.8s-1.9-3-6-2.2c0 0-.6.5 0 1.1 0 0 1.5 1.4 4.5 1.6 0 0 1.9.2 1.4-.5" fill="#008f33"/><path id="brown" d="M509.2 361.7h-1.8c-1.8 0-1.6 1.1-1.6 1.1v2.1c.8 2 0 3.1 0 3.1v3.5c0 3.4.7 3.5.7 3.5l1.5 1.7 1.8 1.7c1.4 1.4 1.8.7 1.8.7 1.3-1.7.6-5.6.6-5.6-.3-1.8 0-7.8 0-7.8v-2c-.1-1.9-1.9-1.9-1.9-1.9zm1.3-1.8s1.8-.6 1.4-2.7l-.2-1.4s-.2-6.9.1-8c0 0 .4-2.9-1.6-3h-2.5s-2-.7-1.9 1.9l-.1 2.8s-.5 1.8-.1 6c0 0-.3 4.2 1.3 4.2 0 0 2.6 0 3.6.2m-4.8-26.8c-.3 1.2-.1 6-.1 6l-.2 1.7c-.1 1.8 1 1.3 1 1.3 1-.3 1.5.3 1.5.3 2.7.7 3-.5 3-.5 1.5-3 .2-6.8.2-6.8-.4-2-.2-4.3-.2-4.3v-.9c.1-.6-.8-.8-.8-.8-.4.3-1 0-1 0-.7-.2-1.5 0-1.5 0-2.7-.4-1.9 4-1.9 4m-.7-20 .2 2.8-.3 6.5c0 4.6 2.7 4.6 2.7 4.6h2.2c1.7 0 1.3-5.5 1.3-5.5-.3-2-.4-7.6-.4-7.6-1-.8-5.7-.8-5.7-.8m.5-15.1c-2-.3-1 1.3-1 1.3v1.6l.1 5.4c-.5 6 3.5 5.3 3.5 5.3 3 0 2.7-3 2.7-3-.5-3 0-7.7 0-7.7l.3-2c-.9-2.4-3.5-1.1-3.5-1.1zm1.2-20.4-1.8-.3c-.8-.1-.7 2.3-.7 2.3l.1 10 .2 3.8c.2 3.8 4 2.3 4 2.3 1-.2 1.7-2.5 1.7-2.5l-.3-14c.2-2.3-3.2-1.6-3.2-1.6m.6-17.1-1.8.1c-2-.8-1.6 3.6-1.6 3.6.4 1.2 0 5.7 0 5.7-.5 4.8 1.6 5 1.6 5q2 .2 2 .4c2.5.6 2.2-1.8 2.2-1.8v-10.1c.2-4-2.4-3-2.4-3m1.1-19.1h-1.9c-1.4-.7-1.8.2-1.8.2a21 21 0 0 1-.1 4.5c.3 3.8-.4 7-.4 7-1 4.6 1.6 4.1 1.6 4.1h.6l1 .2c2.5.4 1.8-2.3 1.8-2.3-.5-3.4.2-11.8.2-11.8.6-2.2-1-2-1-2m29 16.8-1.4-.4c-2 0-.3 2.6-.3 2.6l2 3.4 2.7-2c-.8-.2-3-3.6-3-3.6m-2.7 13c-1.6 1.4 0 3.7 0 3.7l1 1.1c1 1.2 3 .5 3 .5 1.9-1.3-.6-2.8-.6-2.8-.5 0-2.1-2-2.1-2zm2-5.6c-1.3.2 0 3.4 0 3.4l1.2 1.6 1.3 1c1.3 1 1.7.1 1.7.1-.2-.6.7-1.4.7-1.4 1-1-.1-2.2-.1-2.2l-2.3-2.2c-1.7-.8-2.5-.3-2.5-.3m-6-1.3s3 1 3.8 0c0 0 0-5.6-3.8-4-1 .4-1.6 2.9 0 4m.8 15.8.7 1c.6 1 1.1 2.3 1.1 2.3l1.2 1.1c1.4.8 2.4-1 2.4-1 2-3.8-4-6-4-6-2.9-.4-1.4 2.6-1.4 2.6m-5-.7c-.3 1.1.6 1.6.6 1.6-.6 1.5 1.5 2.7 1.5 2.7 2.1.5 2.1-1.6 2.1-1.6-.7-4.7-3-4.9-3-4.9-.8-.1-1.2 2.2-1.2 2.2m-6.1-12c-.9 2.4.6 3.4.6 3.4l2.5-2.2c2-1.3 1.4-3.2 1.4-3.2-.5-1.5-1.8-1-1.8-1-2.6 1.2-2.7 3-2.7 3m8.6 2.7c-1.8 2.6.8 4.7.8 4.7 1.5 0 1.6-2.5 1.6-2.5l.2-1.5c.8-2-1-2.2-1-2.2-1.1-.3-1.6 1.5-1.6 1.5m-7.8 5.2c.7 2.8 3.3 1.5 3.3 1.5 1.3-.5 1-2 1-2 2.2-1.2.6-3 .6-3-.8-1.7-3 0-3 0-1.4 1-1.9 3.5-1.9 3.5m12-18.8c1.5-.7 0-1.5 0-1.5-1.3.4-2-.8-2-.8-1.2-1.3-1.7.2-1.7.2-.5 3.1 3.8 2 3.8 2m-10.8 4c0 1.6 2.3-.8 2.3-.8 0-1 1-2 1-2-.4-.8-.9-.7-.9-.7-2.6 0-2.4 3.5-2.4 3.5m5 3.9c2-.2 1-4.4-.1-4.4s-2.8 4.6.2 4.4m-1.7 4.6c.4 1 3.9-1.2 3.3-2.5-.5-1.2-3.6 1.5-3.3 2.5" fill="#ac5341"/></g><!-- app4joy --></svg>