<svg id="svg834" width="1200" height="600" viewBox="0 0 1200 600" xmlns="http://www.w3.org/2000/svg"><g id="g3"><path id="rect824" d="M0 0h600v400H0z" fill="#77ccff" stroke-width="2"/></g><g id="g2"><path id="path826" d="M600 300H0v-60c25.4-3.9 48.8-24 58.6-39.7 21.5 0 41-23.4 62.5-48.8 4-7.8 9.8-9.8 19.6-2 7.8 9.8 9.7 2 13.7-11.7 2-4 5.8-7.8 9.7-4 5.9 8 7.8 2 13.7-1.9 9.8-2 23.5-2 33.2 2 5.9-4 15.7-4 25.4-4a25 25 0 0 0 23.5 0c3.9-1.9 9.8-3.8 17.5-3.8 11.8-9.8 21.6-19.5 29.3-15.6a136 136 0 0 0 66.5 0c3.9 9.8 5.8 9.8 7.8 0 2-6 2-9.8 11.7-11.8 0-9.8 4-11.7 11.8-3.8a48 48 0 0 0 39 9.7c0 11.7 2 11.7 7.8 0 2-11.7 9.8-7.8 21.6 9.8a28 28 0 0 1 3.8 11.7c43 68.4 76.4 98.2 123.3 113.9z" fill="#002b7f" stroke-width="2.1167"/></g><g id="g1" stroke-width="2"><path id="path828" d="M600 200v200h600V200z" fill="#ffffff"/><path id="rect830" d="M600 0h600v200H600z" fill="#0484d6"/><path id="rect832" d="M0 400h1200v200H0z" fill="#f5362f"/></g><!-- app4joy --></svg>