<svg id="Layer_1" width="1200" height="600" viewBox="0 0 1200 600" xml:space="preserve" xmlns="http://www.w3.org/2000/svg" xmlns:xlink="http://www.w3.org/1999/xlink"><defs id="defs348"><clipPath id="clipPath3"><path id="rect3" d="M0 0h1200v600H0z" fill="#fcd116"/></clipPath></defs><g id="g1"><path id="rect335" d="M0 0h1200v600H0z" fill="#fcd116"/><path id="path339" d="M0-100v300l1200 600V500z" clip-path="url(#clipPath3)" fill="#ce1126"/><path id="polygon337" d="M1200 600V400L400 0H0z"/></g><g id="g7" transform="rotate(16.6 615.5 302.3)"><path id="path4" d="m600 154.5-20.5 93.6-18 102.4-12.8 95 51.3-81 51.3 81-12.7-95-18-102.4z" fill="#fcd116"/><use id="use6" transform="rotate(80 600 304.5)" xlink:href="#path4"/><path id="path7" d="m503.6 189.6 44.4 85 90.6 75.9 91.3 29-70.8-64.6-7.1-40.4 44.4-84.9-75.9 58.5h-41z" fill="#fcd116"/></g><!-- app4joy --></svg>