<svg xmlns="http://www.w3.org/2000/svg" id="svg112" width="317.5" height="158.8" version="1.1" viewBox="0 0 317.5 158.8"><g id="g113" style="display:inline"><path id="path1" fill="#ffcd00" stroke-width="1.2" d="M0 0h317.5v158.8H0Z"/><path id="path110" fill="#003087" d="M0 0h105.8v158.8H0Z" style="display:inline;stroke-width:1.2"/></g><g id="g114" style="display:inline"><path id="path2" fill="#003087" d="M189.7 57v24.8c0 27.3 18 31 22 32.3 3.9-1.3 22-5 22-32.3V56.9Z" style="stroke-width:1.2"/><g id="g110" transform="scale(1.2)"><g id="g8" stroke="#003087"><path id="path3" fill="#fff" stroke-linecap="round" stroke-linejoin="round" stroke-width=".3" d="M167.3 59.4v2a.4.4 0 0 1-.4.5h0a.4.4 0 0 1-.5-.5v-2a.4.4 0 0 1 .5-.4h0a.4.4 0 0 1 .4.4zm-.9.4v2a.4.4 0 0 1-.4.4h0a.4.4 0 0 1-.4-.5v-2a.4.4 0 0 1 .4-.3h0a.4.4 0 0 1 .4.4zm-.8.4V62a.4.4 0 0 1-.5.4h0a.4.4 0 0 1-.4-.5V60a.4.4 0 0 1 .5-.4h0a.4.4 0 0 1 .4.5zm-.9.3v1.9a.4.4 0 0 1-.4.4h0a.4.4 0 0 1-.4-.4v-1.9a.4.4 0 0 1 .4-.4h0a.4.4 0 0 1 .4.4zm-.8.4v1.8a.4.4 0 0 1-.5.4h0a.4.4 0 0 1-.4-.4v-1.8a.4.4 0 0 1 .5-.4h0a.4.4 0 0 1 .4.4zm-.9.4V63a.4.4 0 0 1-.4.4h0a.4.4 0 0 1-.4-.4v-1.7a.4.4 0 0 1 .4-.4h0a.4.4 0 0 1 .4.4zm-.8.4v1.6a.4.4 0 0 1-.5.4h0a.4.4 0 0 1-.4-.4v-1.6a.4.4 0 0 1 .4-.4h0a.4.4 0 0 1 .5.4z"/><path id="path4" fill="#fff" fill-rule="evenodd" stroke-width=".3" d="M193.2 49.8c0-.1-1.9-.2-2.8.1-7.1 2.6-11.5 4.3-23.4 9l1.1 2.6c11.8-4.9 16.1-6.7 23-9.8 1-.3 2.2-1.7 2.1-1.9z"/><path id="path5" fill="none" stroke-linecap="round" stroke-width=".4" d="m167.6 60.2 21.6-8.7"/><g id="g7" fill="#fff" stroke-width=".3"><path id="path6" fill-rule="evenodd" d="M167.5 56.1c-.1-.4-.9-.4-1 .1-.1 1.3 0 3.1.4 4.3a9.2 9.2 0 0 0 2.7 3.3c.5.3 1-.4.6-.8a7.4 7.4 0 0 1-2.2-3 7.4 7.4 0 0 1-.5-3.7.4.4 0 0 0 0-.2z"/><path id="path7" stroke-linecap="round" stroke-linejoin="round" d="m161.9 63-.4-1c-.1-.3-.5-.4-.7-.3l-1 .5c-.2.1-.3.4-.2.7l.3.8c.1.2.4.3.7.3l1-.3c.2-.1.4-.4.3-.7z"/></g></g><g id="g33" fill="#fff"><g id="g12" stroke="#003087" stroke-linecap="round" stroke-linejoin="round"><g id="g9" transform="rotate(-68 96 378.9) scale(.26458)"><ellipse id="ellipse8" cx="1605.8" cy="1286.6" stroke-width="1" rx="4" ry="7.5"/><path id="path8" d="m1608.8 1275.7-7.2 3a1.6 1.6 0 0 0-.8 2h0a1.6 1.6 0 0 0 2 .9l7.2-3a1.6 1.6 0 0 0 .8-2v-.1a1.6 1.6 0 0 0-2-.8zm0 3.7-7.2 3a1.6 1.6 0 0 0-.8 2v.1a1.6 1.6 0 0 0 2 .8l7.2-3a1.6 1.6 0 0 0 .8-2h0a1.6 1.6 0 0 0-2-.9zm0 3.8-7.2 3a1.6 1.6 0 0 0-.8 2v.1a1.6 1.6 0 0 0 2 .8l7.2-3a1.6 1.6 0 0 0 .8-2h0a1.6 1.6 0 0 0-2-.9zm0-11.3-7.2 3a1.6 1.6 0 0 0-.8 2h0a1.6 1.6 0 0 0 2 1l7.2-3.1a1.6 1.6 0 0 0 .8-2v-.1a1.6 1.6 0 0 0-2-.8z"/></g><g id="g11" transform="scale(-.26458 .26458) rotate(68 1243 -948.6)"><ellipse id="ellipse9" cx="1605.8" cy="1299.8" rx="4.1" ry="9.2"/><rect id="rect9" width="8.3" height="3.7" x="1601.6" y="1289.9" rx="1.9"/><rect id="rect10" width="8" height="13.8" x="1601.8" y="1309.8" rx="3.1" ry="5.5"/><rect id="rect11" width="8.3" height="3.7" x="1601.6" y="1306.5" rx="1.9"/></g></g><path id="path12" d="m160 50 .5-.4.7.6h.4a2.4 2.7 22 0 1 3-1.2 2.4 2.7 22 0 1 1.2 3.4 2.4 2.7 22 0 1-3.2 1.6 2.4 2.7 22 0 1-1.4-2.9l-.2-.3h-1V50zm2 .9a1.6 1.8 22 0 0 .9 2.3 1.6 1.8 22 0 0 1.3-.1v-1l-.4-.3-.3.8-.5-.2.3-.7-.6-.3.2-.4.6.2.3-.7.4.2-.3.7.5.2.7-.8a1.6 1.8 22 0 0-.8-1A1.6 1.8 22 0 0 162 51z"/><g id="g32" stroke="#003087" stroke-linecap="round" stroke-linejoin="round"><g id="g28" stroke-width=".5"><g id="g19" transform="rotate(-68 96.3 378.7) scale(.26458)"><circle id="circle12" cx="1615.1" cy="1199.9" r="1.4"/><circle id="circle13" cx="1616" cy="1202.5" r="1.4"/><circle id="circle14" cx="1615.8" cy="1205.2" r="1.4"/><circle id="circle15" cx="1615.1" cy="1208" r="1.4"/><circle id="circle16" cx="1613.3" cy="1210.1" r="1.4"/><circle id="circle17" cx="1613.6" cy="1197.6" r="1.4"/><circle id="circle18" cx="1611.3" cy="1195.9" r="1.4"/><circle id="circle19" cx="1608.7" cy="1194.6" r="1.4"/></g><g id="g27" transform="scale(-.26458 .26458) rotate(68 1242 -949.5)"><circle id="circle20" cx="1615.1" cy="1199.9" r="1.4"/><circle id="circle21" cx="1616" cy="1202.5" r="1.4"/><circle id="circle22" cx="1615.8" cy="1205.2" r="1.4"/><circle id="circle23" cx="1615.1" cy="1208" r="1.4"/><circle id="circle24" cx="1613.3" cy="1210.1" r="1.4"/><circle id="circle25" cx="1613.6" cy="1197.6" r="1.4"/><circle id="circle26" cx="1611.3" cy="1195.9" r="1.4"/><circle id="circle27" cx="1608.7" cy="1194.6" r="1.4"/></g><path id="path27" stroke-width=".1" d="M162.2 50.6a.3.3 0 1 1-.2.6c-.2 0-.6-.6-.6-.6h.8z"/></g><g id="g31" transform="scale(-.26458 .26458) rotate(68 1241.9 -949.4)"><path id="path28" d="M1610 1226.9c0 3.3-1.9 6.8-4.2 6.8-2.3 0-4.2-3.5-4.2-6.8 0-3.4 1.9-3 4.2-3 2.3 0 4.2-.4 4.2 3zm.5-9.8c0 3.8-2.1 6-4.7 6s-4.7-2.2-4.7-6c0-3.7 2.1-3.9 4.7-3.9s4.7.2 4.7 4z"/><rect id="rect28" width="8.3" height="3.7" x="1601.6" y="1221.2" rx="1.9"/><rect id="rect29" width="10.7" height="2.9" x="1600.5" y="1211.5" rx="1.5"/><rect id="rect30" width="7.8" height="16.8" x="1601.9" y="1234.9" rx="0" ry="1.9"/><rect id="rect31" width="8.3" height="3.7" x="1601.6" y="1231.7" rx="1.9"/></g></g></g><g id="g78"><g id="g34" fill="#fff" fill-rule="evenodd" stroke="#003087" stroke-width=".3"><path id="path33" d="m176.4 88.5-.8-3.3.8-1.6.8 1.6z"/><path id="path34" d="m176.4 88.5-3.4-.2-1.3-1.3 1.8-.2zm0 0-1.3 3.2-1.6.8.3-1.8zm0 0 2.6 2.2.3 1.8-1.6-.8zm0 0 2.9-1.7 1.7.2-1.2 1.3z" opacity="1"/></g><g id="g37" transform="matrix(-.26458 0 0 .26458 352.5 .3)"><g id="g36" stroke="#003087"><path id="path35" fill="#fff" fill-rule="evenodd" d="M676.4 341.9c1-.8 1.8-2.3 2.5-4.4 1.2-3.9 1.2-6.2-1.4-7-1.5-.5-2.7-.2-6.4 1.3l-.3-.3v-.5c4-.9 5-1.3 6-2.6 1.6-2.2.3-4.1-3-6.5-3.2-2.4-5.4-3-7-.8-1 1.3-1 2.5-.7 6.5l-.4.2-.5-.2c.4-4 .3-5.2-.6-6.5-1.6-2.2-3.9-1.6-7.1.8-3.3 2.4-4.6 4.3-3 6.5 1 1.3 2.1 1.7 6 2.6v.5a3.9 3.9 0 0 0-.3.3c-3.6-1.5-4.8-1.8-6.4-1.3-2.5.8-2.6 3.1-1.4 7 1.3 3.8 2.7 5.6 5.3 4.8 1.5-.5 2.3-1.5 4.3-4.9l.5.1.2.4c-2.6 3-3.2 4-3.2 5.7 0 2.7 2.1 3.5 6.2 3.5 4 0 6.2-.8 6.2-3.5 0-1.6-.7-2.7-3.3-5.7l.2-.4h.5c2 3.3 2.8 4.3 4.4 4.8 1 .3 2 .2 2.7-.4z"/><path id="path36" fill="none" stroke-linecap="round" stroke-linejoin="round" stroke-width=".8" d="M662.3 343c-.4.6 0 1.6 1 1.6s1.4-.5 2.4-.5 1.3.5 2.3.5c1 0 1.4-1 1-1.6m-13.8-10c-.6-.1-1.4.5-1.1 1.5.3 1 .9 1 1.2 2 .3 1 0 1.4.2 2.4.3 1 1.4 1 1.8.5m5.3-16.2c0-.7-1-1.2-1.8-.7-.8.6-.7 1.2-1.5 1.8-.9.6-1.4.4-2.2 1-.8.6-.6 1.6 0 1.9m17.1 0c.6-.3.9-1.3 0-2-.7-.5-1.3-.3-2.1-.9-.8-.6-.8-1.2-1.6-1.8-.8-.5-1.7 0-1.8.7m5.3 16.2a1 1 0 0 0 1.8-.5c.3-1 0-1.4.2-2.4.4-1 1-1 1.3-2 .3-1-.5-1.6-1.2-1.5"/></g><path id="path37" fill="#003087" d="M669.8 336.7c-.3-.4-1-.2-1.5.1-.4.3-.8 1-.5 1.4.3.4 1.1.6 1.7.2.5-.4.6-1.2.3-1.7zm.5-6.4c-.5.2-.5 1-.3 1.5.1.4.6 1 1 .9.6-.2 1-.9.8-1.5-.2-.7-1-1-1.5-.9zm-5.9-2.4c0 .5.8.7 1.3.7s1.2-.2 1.2-.7c0-.6-.5-1.2-1.2-1.2s-1.3.6-1.3 1.2zm-4.2 4.8c.6.2 1-.5 1.2-1 .1-.4.1-1.2-.4-1.4-.5-.1-1.3.2-1.5.9-.2.6.2 1.4.7 1.5zm3.4 5.5c.3-.5-.2-1.1-.6-1.4-.4-.3-1.1-.5-1.4 0-.4.4-.3 1.2.3 1.6.5.4 1.4.2 1.7-.2z"/><circle id="circle37" cx="342.7" cy="-660.8" r="3.1" fill="none" stroke="#003087" stroke-linecap="square" transform="scale(1 -1) rotate(36)"/></g><path id="path38" fill="#fff" stroke="#003087" stroke-linecap="square" stroke-width=".3" d="M172.8 63h7.2v10.3h-7.2z"/><path id="path39" fill="#003087" fill-rule="evenodd" d="M176.2 67v.6h-.6v.4h.6v1.4h.4V68h.6v-.4h-.6V67z"/><g id="g43" fill="#fff" stroke="#003087" stroke-width=".3"><path id="path40" stroke-linecap="round" d="M172.7 61h1.1v2h-1.1Zm6.3 0h1v2h-1z"/><g id="g42" fill-rule="evenodd"><path id="path41" d="M174.5 60.7v1.6l-1.3.1V61h-1v2.6l4.2-.3 4.3.3V61h-1v1.4h-1.4v-1.7H177v1.6h-1.3v-1.6z"/><path id="path42" d="M176.4 63c-1.1 0-2.8 0-4.2.5l.5 1.3c0-.3.2-.8.5-.8s.6.3.6.6v1-1c0-.4.2-.7.5-.7s.5.3.5.6v1-1c0-.3.2-.7.5-.7s.5.4.5.7v1-1.2c0-.3.3-.6.6-.6s.5.3.5.6v1.2-1c0-.3.3-.7.6-.7.2 0 .4.4.4.7v1h.1v-1c0-.3.2-.6.5-.6.2 0 .5.3.5.6v1-1c0-.2.3-.5.6-.5s.5.5.5.8l.5-1.3c-1.4-.4-3-.4-4.2-.4z"/></g></g><path id="path43" fill="#fff" fill-rule="evenodd" d="M181.6 73v2.5h1v.5h-1v.7h1v.5h-1v.6h1v.5h-1v.7h1v.4h-1v.7h1v.5h-1v.6h1v.5h-1v.4h.3l-.5.6-.5-.6h.3v-.4H180v.4h.2l-.5.6-.5-.6h.3v-.4h-1.2v.4h.3l-.5.6-.5-.6h.2v-.4h-1.2v.4h.3l-.5.6-.5-.6h.3v-.4H175v.4h.2l-.5.6-.5-.6h.3v-.4h-1.2v.4h.2l-.5.6-.5-.6h.3v-.4h-1.2v.4h.3l-.5.6-.5-.6h.2v-.4h-1v-.5h1v-.6h-1V80h1v-.7h-1V79h1v-.7h-1v-.5h1v-.6h-1v-.5h1V76h-1v-.5h1v-2.4h.5v2.4h1.2v-2.4h.5v2.4h1.2v-2.4h.5v2.4h1.2v-2.4h.4v2.4h1.2v-2.4h.5v2.4h1.2v-2.4h.5v2.4h1.2v-2.4h.4zm-.4 3H180v.7h1.2zm-1.7 0h-1.2v.7h1.2zm-1.7 0h-1.2v.7h1.2zm-1.6 0H175v.7h1.2zm-1.7 0h-1.2v.7h1.2zm-1.7 0h-1.2v.7h1.2zm8.4 1.2H180v.6h1.2zm-1.7 0h-1.2v.6h1.2zm-1.7 0h-1.2v.6h1.2zm-1.6 0H175v.6h1.2zm-1.7 0h-1.2v.6h1.2zm-1.7 0h-1.2v.6h1.2zm8.4 1H180v.8h1.2zm-1.7 0h-1.2v.8h1.2zm-1.7 0h-1.2v.8h1.2zm-1.6 0H175v.8h1.2zm-1.7 0h-1.2v.8h1.2zm-1.7 0h-1.2v.8h1.2zm8.4 1.2H180v.7h1.2zm-1.7 0h-1.2v.7h1.2zm-1.7 0h-1.2v.7h1.2zm-1.6 0H175v.7h1.2zm-1.7 0h-1.2v.7h1.2zm-1.7 0h-1.2v.7h1.2zm8.4 1.2H180v.6h1.2zm-1.7 0h-1.2v.6h1.2zm-1.7 0h-1.2v.6h1.2zm-1.6 0H175v.6h1.2zm-1.7 0h-1.2v.6h1.2zm-1.7 0h-1.2v.6h1.2z"/><g id="g47" stroke="#003087" stroke-width=".3"><path id="path44" fill="#fff" fill-rule="evenodd" d="M167 71v11.6h3.8V80c1.8-3 4.2-4.9 5.6-4.9 1.3 0 3.7 2 5.6 4.9v2.6h3.7V71Z"/><path id="path45" fill="none" d="M170 82.6v-2.8c2.1-3.4 4.8-5.6 6.4-5.6 1.5 0 4.3 2.2 6.4 5.6v2.8"/><path id="path46" fill="#fff" fill-rule="evenodd" d="M185.4 69.3v4.8h-.8v-.4a1 1 0 0 0-1-1 1 1 0 0 0-1 1v.4-.4a1 1 0 0 0-1-1 1 1 0 0 0-1 1v.4h-.1v-.4a1 1 0 0 0-1-1 1 1 0 0 0-1 1v.4-.4a1 1 0 0 0-1-1 1 1 0 0 0-1 1v.4h-.1v-.4a1 1 0 0 0-1-1 1 1 0 0 0-1 1v.4h-.1v-.4a1 1 0 0 0-1-1 1 1 0 0 0-1 1v.4-.4a1 1 0 0 0-1-1 1 1 0 0 0-1 1v.4h-.1v-.4a1 1 0 0 0-1-1 1 1 0 0 0-1 1v.4h-.9v-4.8h1.4v1.3h1.4v-1.3h1.4v1.3h1.4v-1.3h1.4v1.3h1.4v-1.3h1.4v1.3h1.4v-1.3h1.4v1.3h1.4v-1.3h1.4v1.3h1.3v-1.3z"/><path id="path47" fill="none" stroke-linecap="square" d="M185.4 71.4v.7h-18v-.7z"/></g><g id="g49" fill-rule="evenodd"><path id="path48" fill="#fff" stroke="#003087" stroke-width=".3" d="m163.4 66.9-.5 12h5.5l-.5-12z"/><path id="path49" fill="#003087" d="M164.5 71v.5h-.6v.5h.6v1.3h.4V72h.6v-.5h-.6V71zm2.1 3.8v.6h-.6v.4h.6v1.4h.5v-1.4h.6v-.4h-.6v-.6z"/></g><g id="g51" fill="#fff" stroke="#003087" stroke-width=".3"><path id="path50" stroke-linecap="square" d="M168.8 80h-6.3v3.4h6.3z"/><path id="path51" fill-rule="evenodd" d="M163 78h5.4l.6 2.8h-6.8z"/></g><g id="g55" fill="#fff" stroke="#003087" stroke-width=".3"><path id="path52" stroke-linecap="round" d="M168.3 64.4h-.8v1.9h.8zm-4.5 0h-.8v1.9h.8z"/><g id="g54" fill-rule="evenodd"><path id="path53" d="M167 64v1.6l1 .1v-1.3h.7V67l-3-.3-3.1.3v-2.6h.7v1.3h1V64h.9v1.5h.9V64z"/><path id="path54" d="M165.6 66.6c-1.2 0-2.3.2-3 .4l.5 1.7h.4v-.2c0-.4.2-.6.4-.6s.4.2.4.6v.7-.9c0-.3.2-.6.4-.6s.4.3.4.6v.9-1c0-.3.3-.6.5-.6.3 0 .5.3.5.5v1-.8c0-.3.3-.6.5-.6s.4.3.4.6v.9-.7c0-.4.2-.6.4-.6s.4.2.4.6v.2h.4l.5-1.7c-.7-.2-1.9-.4-3-.4z"/></g></g><g id="g56" fill-rule="evenodd"><path id="path55" fill="#fff" stroke="#003087" stroke-width=".3" d="m189.4 66.9.5 12h-5.5l.5-12z"/><path id="path56" fill="#003087" d="M188.3 71v.5h.6v.5h-.6v1.3h-.4V72h-.6v-.5h.6V71zm-2.1 3.8v.6h.6v.4h-.6v1.4h-.5v-1.4h-.6v-.4h.6v-.6z"/></g><g id="g58" fill="#fff" stroke="#003087" stroke-width=".3"><path id="path57" stroke-linecap="square" d="M184 80h6.3v3.4H184z"/><path id="path58" fill-rule="evenodd" d="M189.9 78h-5.5l-.7 2.8h6.8z"/></g><g id="g62" fill="#fff" stroke="#003087" stroke-width=".3"><path id="path59" stroke-linecap="round" d="M184.5 64.4h.8v1.9h-.8zm4.5 0h.8v1.9h-.8z"/><g id="g61" fill-rule="evenodd"><path id="path60" d="M185.8 64v1.6l-1 .1v-1.3h-.7V67l3-.3 3 .3v-2.6h-.7v1.3h-.9V64h-.9v1.5h-1V64z"/><path id="path61" d="M187.1 66.6c1.2 0 2.4.2 3 .4l-.4 1.7h-.4v-.2c0-.4-.2-.6-.4-.6s-.4.2-.4.6v.7-.9c0-.3-.2-.6-.4-.6s-.4.3-.4.6v.9-1c0-.3-.3-.6-.6-.6s-.4.3-.4.5v1h-.1v-.8c0-.3-.2-.6-.4-.6s-.4.3-.4.6v.9-.7c0-.4-.2-.6-.4-.6s-.4.2-.4.6v.2h-.4L184 67c.7-.2 1.8-.4 3-.4z"/></g></g><g id="g77" stroke-width=".7"><path id="path62" fill="#fff" fill-rule="evenodd" stroke="#003087" stroke-width=".2" d="M176.9 52v1.6l3.8 3-1.4 3.2h-5.8l-1.5-3.2 3.9-3V52Z"/><g id="g76" transform="matrix(-.27712 0 0 .27712 361.4 -2.6)"><g id="g75" fill="#fff" stroke="#003087"><g id="g72" stroke-linecap="square"><path id="path63" d="M657.7 209.4a1.4 1.4 0 0 1-1.3 1.4 1.4 1.4 0 0 1-1.4-1.4 1.4 1.4 0 0 1 1.4-1.4 1.4 1.4 0 0 1 1.3 1.4z"/><path id="path64" d="M660 207.7a1.4 1.4 0 0 1-1.5 1.4 1.4 1.4 0 0 1-1.3-1.4 1.4 1.4 0 0 1 1.3-1.3 1.4 1.4 0 0 1 1.4 1.3z"/><path id="path65" d="M662 206.1a1.4 1.4 0 0 1-1.3 1.4 1.4 1.4 0 0 1-1.3-1.4 1.4 1.4 0 0 1 1.3-1.4 1.4 1.4 0 0 1 1.4 1.4zm-6.5 5a1.4 1.4 0 0 1-1.3 1.3 1.4 1.4 0 0 1-1.4-1.4 1.4 1.4 0 0 1 1.4-1.3 1.4 1.4 0 0 1 1.3 1.3z"/><path id="path66" d="M653.4 212.7a1.4 1.4 0 0 1-1.4 1.4 1.4 1.4 0 0 1-1.4-1.4 1.4 1.4 0 0 1 1.4-1.4 1.4 1.4 0 0 1 1.4 1.4zm10.9-8.2a1.4 1.4 0 0 1-1.4 1.3 1.4 1.4 0 0 1-1.4-1.3 1.4 1.4 0 0 1 1.4-1.4 1.4 1.4 0 0 1 1.4 1.4z"/><path id="path67" d="M666.5 202.8a1.4 1.4 0 0 1-1.4 1.4 1.4 1.4 0 0 1-1.4-1.4 1.4 1.4 0 0 1 1.4-1.4 1.4 1.4 0 0 1 1.4 1.4z"/><path id="path68" d="M677.3 209.4a1.4 1.4 0 0 0 1.4 1.4 1.4 1.4 0 0 0 1.3-1.4 1.4 1.4 0 0 0-1.3-1.4 1.4 1.4 0 0 0-1.4 1.4z"/><path id="path69" d="M675.1 207.7a1.4 1.4 0 0 0 1.4 1.4 1.4 1.4 0 0 0 1.3-1.4 1.4 1.4 0 0 0-1.3-1.3 1.4 1.4 0 0 0-1.4 1.3z"/><path id="path70" d="M673 206.1a1.4 1.4 0 0 0 1.3 1.4 1.4 1.4 0 0 0 1.4-1.4 1.4 1.4 0 0 0-1.4-1.4 1.4 1.4 0 0 0-1.4 1.4zm6.5 5a1.4 1.4 0 0 0 1.3 1.3 1.4 1.4 0 0 0 1.4-1.4 1.4 1.4 0 0 0-1.4-1.3 1.4 1.4 0 0 0-1.3 1.3z"/><path id="path71" d="M681.7 212.7a1.4 1.4 0 0 0 1.3 1.4 1.4 1.4 0 0 0 1.4-1.4 1.4 1.4 0 0 0-1.4-1.4 1.4 1.4 0 0 0-1.3 1.4zm-11-8.2a1.4 1.4 0 0 0 1.4 1.3 1.4 1.4 0 0 0 1.4-1.3 1.4 1.4 0 0 0-1.4-1.4 1.4 1.4 0 0 0-1.4 1.4z"/><path id="path72" d="M668.6 202.8a1.4 1.4 0 0 0 1.3 1.4 1.4 1.4 0 0 0 1.4-1.4 1.4 1.4 0 0 0-1.4-1.4 1.4 1.4 0 0 0-1.3 1.4z"/></g><g id="g74" stroke-linecap="square" transform="matrix(-1 0 0 1 1335 0)"><ellipse id="ellipse72" cx="-692.3" cy="152.2" rx="2.2" ry="1.5" transform="scale(-1 1) rotate(-5.8)"/><path id="path73" d="M676.7 222c-.2.8.6 1.7 1.8 2 1.2.2 1.8-.3 2-1 .2-.8-.1-1.6-1.3-1.9-1.2-.3-2.3.1-2.5.9z"/><ellipse id="ellipse73" cx="667.5" cy="221.3" rx="2.2" ry="1.5"/><ellipse id="ellipse74" cx="635.8" cy="287.5" rx="2.2" ry="1.5" transform="rotate(-5.8)"/><path id="path74" d="M658.3 222c.2.8-.6 1.7-1.8 2-1.1.2-1.8-.3-2-1-.2-.8.1-1.6 1.3-1.9 1.2-.3 2.4.1 2.5.9z"/></g><path id="path75" fill-rule="evenodd" d="M671.6 208.3c.6 0 1.2.2 1.8.6l5.9 4.8v2.6l-1.7-.5v1.5l1 .4-.9 1.8h-2l-.4-.7h-.6v-2l2.1.2v-1.5l-2.1-.1v-2.5h-1.5v2.4l-2.2-.1v1.5h2.2v2.1h-4.5v-2.3h1.5V215h-1.5v-5.2c0-.6 1-1.4 2.3-1.5h.6zm-8.2 0a3.5 3.5 0 0 0-1.8.6l-5.9 4.8v2.6l1.7-.5v1.5l-1 .4.9 1.8h2l.4-.7h.6v-2l-2.1.2v-1.5l2.1-.1v-2.5h1.5v2.4l2.2-.1v1.5h-2.2v2.1h4.6v-2.3h-1.6V215h1.6v-5.2c0-.6-1-1.4-2.4-1.5a3.6 3.6 0 0 0-.6 0z"/></g><rect id="rect75" width="1.5" height="3.8" x="666.7" y="204.5" fill="#003087" opacity="1" rx=".6"/></g></g></g><g id="g109"><g id="g79" stroke="#003087" stroke-linecap="round" stroke-width=".4"><path id="path78" fill="#fff" fill-rule="evenodd" stroke-linejoin="round" d="M142.5 82.4c.4 2.7.8 7.8-.1 9-.8 1.2-3 .7-3.2 2.5a9 9 0 0 1 5-.3c1 .4 1.4 1.3 1.9 2.2.3-.7.7-1.6 1.5-1.7a7 7 0 0 1 5 .8c-.6-1-1.7-1.8-2.6-1.9.1-1.4-3.9-.1-5.2-2.1-.8-1.3.3-7.2.7-8z"/><path id="path79" fill="none" d="M148.5 93h1.5"/></g><g id="g87" fill-rule="evenodd"><path id="path80" fill="#fff" stroke="#003087" stroke-width=".4" d="M152.2 78.7c1.5-2.2 3.1-3.3 3.7-5.4.4-1.8 1.1-6.7 2.5-9-.4 2.3-.4 3.7-.3 5.3 0 .6 1.8-.4 1.8-.4-.7 1.6-1.9 2.7-1.9 3.7 0 2.2.8 4.7 1.8 6.4-1-.3-2.3-1.6-3.2-2.7-.3-.4-1.2 2.1-2.3 3.9z"/><g id="g86" fill="#003087"><path id="path81" d="M145.1 82.4h4.8c.7-.2 1.7-1.1 2-1.1 1.1 0 2.5 0 2.8-.2.6-.6 1.4-1.7 1.7-2.2-.6 0-1 0-1.5-.3V77c-1.4 0-3.9 1-5.3.5z"/><g id="g85" stroke="#ffcd00" stroke-width=".4"><path id="path82" d="M149.3 51.8c-1-1.2-1.4-2.6-1.9-3.5 4.8-2.5-8-10-6 .3z"/><g id="g84" stroke-linejoin="round"><path id="path83" stroke-linecap="round" d="M127 76.3c3.8-1 7-6.1 7.3-8.7l4 7.5c-2 1.5-6 4.5-8 1.8l1.2-1.3c-1.3 1.2-2.3 1.4-4.5.7z"/><path id="path84" d="M137.7 82.6c-.6.5-1.3 1-2.3 1v-1c-1 8.8-9 7.7-5.9 1.8l-1.1 1.6c-3-5.2 5.5-8.5 8.9-11.9z"/></g><path id="path85" d="M146.2 83.1c-1.8-3.2-5.1-2.8-7-4.3-2.4-1.7-4.3-19.2-2.4-23.8.5-1.4 5.4-1.7 4-2.5-13.2-7.1-2.7-20 6-14.7 2.8 1.7 3.3.7 6.2 3 1.8 1.4 2.2 5.7 2.8 9.9-2.6-1.4-3.4-2.7-4.6-3.6-.8-.6-2.3-1.5-2.8-2.8-1.3-2.8-3.4-3.8-4.6-3.9-3.6-.1-4.5 1-4.8 2.7-.4 2.2 2.4 4.4 4.5 5.2 4 1.4 13.6 4 13.6 13 0 5.1-1.6 6.2-2.4 9.1-.6 2.3-.6 4.2-2 6.2-1.9 3-3.3 2-6.5 6.5z"/></g><path id="path86" d="M149.7 75.8c-1.8 2.2-1.9 3.6-2.2 5.3-.4 1.6-1.6 2-2.6 5a7.3 7.3 0 0 0-.8-3c-.6.4-1.3 1.2-1.7 1.7 0-1.7-.2-2-.4-2.7a7.5 7.5 0 0 0-2.4-2.2"/></g></g><path id="path87" fill="none" stroke="#ffcd00" stroke-linecap="round" stroke-linejoin="round" stroke-width=".4" d="M142.4 84.8c0-1.4-.2-2-.5-2.6a7.2 7.2 0 0 0-2.3-2.3m10.1-4.1c-1.8 2.2-1.9 3.6-2.2 5.3-.4 1.6-2.2 3-2.3 5"/><g id="g90" style="fill:#003087;fill-rule:evenodd;stroke:#ffcd00;stroke-width:0.39687;stroke-linecap:round;stroke-linejoin:round"><path id="path88" d="M146.7 61.9c-1.1 1.2-3 1.4-4-1.2m1.7-.2c-1.4 1.1-2.7 1.4-3.6-1.1m1.4-.2c-.9 1.2-2.7 1.8-3.3-1"/><path id="path89" d="M151.1 66.5c.4 4.3-1 5-2 3.4m.5-1.4c.6 4.1-.6 5.3-2.8 3.8m.8-2.1c.3 5-.8 5.2-2.6 4m.7-2.3c1 5.3-1.5 6.3-3.2 4.5m1-2.3c.5 5-2.4 6.6-4.4 7"/><path id="path90" d="M151.2 59.2c-1.7-1.7-4.4-1.8-4.5 0a2.8 2.8 0 0 0-2.5-2.1c3.4-2.5-.4-7.6-4.7-7.6-4.2 0-7 3.6-7.4 6.7-1.6 16.1 6 11.4 4.5 30.8 6-8.6 4.6-14.2 3.7-16.9 1.3-3.9.3-6.6-2.8-10.4 1.8-.3 2.7-2.3 2.5-3.7"/></g><g id="g92" stroke="#003087"><path id="path91" fill="#fff" fill-rule="evenodd" stroke-width=".3" d="M149.3 41.3c.3-.4 1.8.8 3.3 2 .2.1 0 .5 0 .6-.7.8-1.8.9-2.2.5-.8-.6-.2-1.9-.3-2-.4-.5-1.1-.8-.8-1.1z"/><path id="path92" fill="none" stroke-linecap="round" stroke-width=".4" d="m151.1 43.5.5-.9"/></g><g id="g106" fill-rule="evenodd"><path id="path93" fill="#fff" stroke="#003087" stroke-width=".4" d="M152.5 44.5c.3-.2.9 1 2 .3l2.4 7.8-4.6-5c.7-2.6-.1-2.9.2-3.1z"/><path id="path94" fill="#003087" d="M153.5 46c0-.2.4-.3.5-.1.1.3.5 1.1.5 1.5 0 .4-.8-.9-1-1.5z"/><g id="g105" fill="#fff" stroke="#003087" stroke-width=".4"><path id="path95" d="M206.9 49.6c-3.6 1-5.6-1.6-2.1-3.1-1.2-3 5.2-3.8 4.6-.3 2.8-.2 2.1 1.5 1.1 2.3zm-6.3 29.1c-1.6-2.2-3.1-3.3-3.7-5.4-.4-1.8-1.1-6.7-2.5-9 .4 2.3.4 3.7.3 5.3 0 .6-1.8-.4-1.8-.4.6 1.6 1.9 2.7 1.9 3.7 0 2.2-.8 4.7-1.9 6.4 1.1-.3 2.4-1.6 3.2-2.7.3-.4 1.3 2.1 2.4 3.9z"/><path id="path96" stroke-linecap="round" stroke-linejoin="round" d="M210.3 82.4c-.4 2.7-.8 7.8 0 9 .9 1.2 3 .7 3.3 2.5a9 9 0 0 0-5-.3c-1 .4-1.4 1.3-1.9 2.2-.3-.7-.7-1.6-1.5-1.7a7 7 0 0 0-5 .8c.5-1 1.7-1.8 2.6-1.9-.1-1.4 3.9-.1 5.2-2.1.8-1.3-.3-7.2-.7-8z"/><path id="path97" d="M207.6 82.4c-3.4.1-5.8.2-7.7-.1-1-.2-2.9-2.2-3.5-3.4.6 0 1 0 1.5-.3V77c1.4 0 3.9 1 5.2.5z"/><g id="g99" stroke-linejoin="round"><path id="path98" stroke-linecap="round" d="M225.7 76.3c-3.7-1-6.8-6.1-7.3-8.7l-3.9 7.5c2 1.5 6 4.5 8 1.8l-1.2-1.3c1.3 1.2 2.3 1.4 4.4.7z"/><path id="path99" d="M215 82.6c.7.5 1.4 1 2.4 1v-1c1 8.8 9 7.7 5.8 1.8l1.2 1.6c3-5.2-5.6-8.5-8.9-11.9z"/></g><path id="path100" d="M206.6 83.1c1.7-3.2 5-2.8 7-4.3C216 77.1 218 59.6 216 55c-.6-1.4-5.4-1.7-4-2.5 13.1-7.1 2.7-20-6-14.7-2.9 1.7-3.4.7-6.3 3-1.7 1.4-2.3 4.9-1.3 7.6 1-1.2 1.3-.7 3-1.5a5.8 5.8 0 0 0 3-2.6c1.3-2.8 3.4-3.8 4.6-3.9 3.6-.1 4.4 1 4.8 2.7.4 2.2-2.4 4.4-4.5 5.2-4 1.4-13.6 4-13.6 13 0 5.1 1.6 6.2 2.4 9.1.6 2.3.6 4.2 1.9 6.2 2 3 3.4 2 6.6 6.5z"/><path id="path101" stroke-linecap="round" stroke-linejoin="round" d="M203 75.8c1.8 2.2 1.7 3.7 2.3 5.3.7 1.9 2.3 2.9 2.5 3.6l.5-2.9.7 2.9 1-2 .1 1.4.7-2c.2-.5.2-2.7 0-4.2"/><g id="g104" stroke-linecap="round" stroke-linejoin="round"><path id="path102" d="M206 61.9c1.2 1.2 3 1.4 4.1-1.2m-1.7-.2c1.4 1.1 2.7 1.4 3.6-1.1m-1.5-.2c1 1.2 2.8 1.8 3.4-1"/><path id="path103" d="M201.7 66.5c-.4 4.3 1 5 2 3.4m-.6-1.4c-.5 4.1.7 5.3 2.9 3.8m-.8-2.1c-.4 5 .7 5.2 2.6 4M207 72c-1 5.3 1.5 6.3 3.1 4.5m-1-2.3c-.5 5 2.5 6.6 4.5 7"/><path id="path104" d="M201.6 59.2c1.7-1.7 4.4-1.8 4.4 0a2.8 2.8 0 0 1 2.6-2.1c-3.4-2.5.3-7.6 4.7-7.6 4.2 0 7 3.6 7.3 6.7 1.7 16.1-6 11.4-4.4 30.8-6-8.6-4.6-14.2-3.7-16.9-1.3-3.9-.4-6.6 2.8-10.4-1.8-.3-2.7-2.3-2.6-3.7"/></g><path id="path105" d="m198.3 44.8-2.4 7.8 4.5-5-2.1-2.8z"/></g><path id="path106" fill="#003087" d="M203 41a.1.1 0 0 0-.2.1c-.5.7-1.3 1.2-1.9 1.7l-.8.8a1.8 1.8 0 0 0-.4.9c0 .1-.4-.3-1.8-.2-.4 0-.7 2.3-.3 2.3l1.8.1c.5.3.6.7.9 1.2 0 .2 1-.6.8-.7-.3-.2-.9-.4-1-.8-.2-.3-.4-1.6-.2-1.7h1.5a2 2 0 0 0 1-.6c.2-.4.2-1 .2-1.3l-.1-.6.5-1a.1.1 0 0 0 0-.1zm-.8 1.1.2.6c0 .4 0 .9-.2 1.2-.2.3-.4.4-.8.5H200l.3-.6.8-.8 1-.9z"/></g><g id="g108" fill="none" stroke="#003087" stroke-linecap="round" stroke-width=".4"><path id="path107" d="M201.4 43.4a2.1 2.1 0 0 1-.3-.5"/><path id="path108" d="M204.2 93h-1.4"/></g></g></g></g><g id="g112" style="display:inline"><path id="path111" d="m54.8 19.8 2.6 8 7.8-3-4.6 7 7.1 4.2-8.3.7 1.2 8.3-5.8-6-5.7 6 1.1-8.3L42 36l7.2-4.3-4.6-7 7.8 3zM69 78.3l2 5 5.4.3-4.1 3.5 1.3 5.2-4.6-2.8-4.5 2.8 1.2-5.2-4-3.5 5.3-.4zM19.6 58l2.6 8 7.7-3-4.6 7 7.2 4.2-8.3.7 1.1 8.3-5.7-6-5.7 6 1.1-8.3-8.3-.7 7.2-4.3-4.6-7 7.8 3Zm66.6-9.6 2.6 8 7.8-3-4.6 7 7.1 4.2-8.3.8 1.2 8.2-5.8-6-5.7 6 1.1-8.2-8.3-.8 7.2-4.2-4.6-7 7.8 3zm-31.4 65.4 2.6 8 7.8-3-4.6 7 7.1 4.2-8.3.7 1.2 8.3-5.8-6-5.7 6 1.1-8.3-8.3-.7 7.2-4.3-4.6-7 7.8 3z" style="clip-rule:evenodd;fill:#ffffff;fill-rule:evenodd;stroke-width:1.2;image-rendering:optimizeQuality;shape-rendering:geometricPrecision;text-rendering:geometricPrecision"/></g><!-- app4joy --></svg>