<svg width="600" height="400" id="svg15" viewBox="0 0 600 400" xmlns:xlink="http://www.w3.org/1999/xlink" xmlns="http://www.w3.org/2000/svg"><g id="g16"><path fill="#da121a" id="rect1" d="M0 0h600v400H0z"/></g><g stroke="#000" id="g15"><g fill="#fff" id="g5"><g stroke-width="1.2" id="g4"><path d="M309.3 75.4s.5-8.9-7.3-10.3v-9.5h6.3v-4H302v-5.3h-3.9v5.2H292v4.1h6.2v9.5c-7.8 1.4-7.3 10.3-7.3 10.3" id="path1"/><path d="M277.9 95H322c0-12-11-21.7-22-21.7S277.9 83 277.9 95z" id="path2"/><path d="m322.9 105.5 2.5-.9V95h-50.7v9.7l2.5.9z" id="path3"/><path d="M322.4 200.6v-95.1h-44.9v95.1" id="path4"/></g><path d="M207.9 276.7c7.4-33.4 4.7-66.5 4.7-66.5h174.8s-2.7 33.1 4.7 66.5c8 36.3 15.2 48.8 15.2 48.8v14.6H192.8v-14.6s7.1-12.5 15.1-48.8z" id="path5"/></g><g id="b" fill="none"><g stroke-width="1.2" fill="#fff" id="g9"><path d="M233.9 82.4h8.4v11.1h5.4V82.4h8.7v11.1h5.7V82.4h8.3v22l-2.8 1.1h-45.5l-3.3-1.2v-22h8.7v11.2h6.4z" id="path6"/><path d="M222.1 105.5h45.4v96.4h-45.4z" id="path7"/><path d="m232.6 69.3 4.1-7.1-4.1-7.2h8.2l4.2-7 4 7h8.3l-4.1 7.2 4.1 7.1h-8.2l-4.1 7.1-4.2-7.1z" id="path8"/><path d="M301 185.4h-8v13h-13v-13h-14.4v13h-12v-13h-13.9v13H228v-13h-16.2v24.7l3.9 1H301" id="path9"/></g><path stroke-width="2" d="M222.1 106h45.4" id="path10"/><path stroke-width="2.5" d="M266.4 340.1v-73.8c0-6.7 9-30.8 33.6-30.8" id="path11"/><path d="M277 340.1v-69.8c0-11.4 9-24.5 23-24.5" id="path12"/><path id="a" fill="#000" d="M283.9 321.3c0-3.2 1.2-3.2 2.1-3.2s-.1 1.3-.1 3 1 3.3.1 3.3-2.1-.2-2.1-3.1zm-6.9-.1h6.5"/><path stroke-width="2" d="M193 325.5h73" id="path13"/><use xlink:href="#a" y="-50" id="use13"/></g><use xlink:href="#b" transform="matrix(-1 0 0 1 600 0)" id="use14"/><path d="M212.2 210.2h175.6M277.8 106H322" stroke-width="2" id="path14"/><path d="M300 245.8v94.3" id="path15"/></g><!-- app4joy --></svg>