<svg width="900" height="600" id="svg70" viewBox="0 0 900 600" xmlns="http://www.w3.org/2000/svg"><g id="g71"><path fill="#ffce00" id="rect1" d="M0 0h900v600H0z"/><path fill="#D00" id="rect2" d="M0 0h900v400H0z"/><path fill="#000" id="rect3" d="M0 0h900v200H0z"/></g><g id="g70"><path fill="#d00" d="M420.3 500.5a174 174 0 0 1-174-173.8V101.3h347.8v225.4c0 96-77.8 173.8-173.9 173.8" id="path3"/><path fill="#000" d="M594.3 325.7a174.3 174.3 0 0 1-348.6 0V100h348.6zM420 491.8c91.7 0 166-75 166-166.7V108.2H254v217.5a166 166 0 0 0 166 166.1" id="path4"/><path fill="#000" d="M425.6 233.2c3.2-.9 3.4-6.9 2.7-10-2.7-4.9 4.4-9.2 1.2-14.9-.1-3.5-4.6-5.6-2.2-9a17 17 0 0 0-6.5-17.4c0-5.9-.3-14-7-16.2-4.5-.5-2.6-5-4.5-7.8-2-2.5-5-3.2-5.7-6.6-3.3-5.9-12.2-1-15-6.8-2.7-5-2.8-11.1-4.3-16.3-5.6-1.4-7.2 5.5-8.4 9.4-2.8-1.8 3.6-7.7-3.9-5.1 1.6-6.7-5.4-4-6.8-.3-.3 4.8-5.8 2.2-8.7 4.4-3.9 1.6-4 7.6-1.4 10.2-3.4 2.3-10.6 1-10.8 7-4.5 3.6-9 6.8-13.5 10.7-4.3.5-6.5 4.4-9.7 6.8-2.3 4.7 1.5 9.4 0 14.3-1 7.7 9.8 3.6 10.6 8.2 1.7 5 8 2 11.6 3 5.6-.6 4.9-10.2 11.3-7.7 3.4 1.3 7-1.1 10-1.2 4.1 5.2-.4 12.4-3.8 16.9-5.8 6.4-12.7 13.4-12.7 22.8-2.4 3.7-7.1 5.6-8.5 10.2-1.9 2 0 10.4-4.4 6.1-5.4-2.7-11.8-3.4-15.3-8.8a56 56 0 0 0-15.4-1.2c-4.3.9-5.8 5.1-7.3 8.4-5 5.8-9.9 12.9-16.5 17.2-2.5 2.8-7.2 4.1-7.4 8.4-2.7 5.2 1 11-.3 16.7-.5 5-.7 10.9 5.4 12.2 3 2.4 7 7 11 4.8 2.8-7.2 6.1-15.4 3.7-23.1-2.4-1.7-3.5-4.4-6.5-5.3-1.1-4 3.5-7.2 5.2-2.4 7-1.2 8.4-10 11.6-15.3 1.7-6.6 11.3-6.9 14-.9 3.4 4.9 7.8 10 11.4 14.3-6.5 0-12.5-2.6-18.2-5.1-4.7-1.4-7.2 2.7-8.8 6.2-4.7 2.4-7 8.4-4.2 13a88 88 0 0 1-1.1 30.6c-2 5.3 2.7 9 2.5 14 .4 4.7 4.7 7.3 4.8 11.9 2 4.2 7.7 3.7 11.6 5.8 5.2 2.3 9.9-.9 8-6.5-.4-6 .3-14-4.8-18-4-1-11.3-.8-8.5-7.2 3.7-1.5 7.4-2.6 5-7.6-2.7-6.6-6.1-13.4-4.1-20.9 2.2-5 9.9-1.8 12.2 1.8 8 8.4 16.9 17.1 28.9 19.1 5.9.3 10.7 7.8 16.9 4.6 1.4-4.3 5.5-3.6 9-1.6 6.8 2.8 12.7 7.5 20 9 11.8 4 24.6 3.1 36.7 1a15 15 0 0 1 14.8 8.4c3.5 5 10 3 15 4 3.2 6.1 10.7 5 16.7 5.8 8.4 4.3 11.8 14.2 15.4 22.4 4.5 9.8 4 22.2-3 30.5-2 4.5-9.5 4-9 10-1.2 5.2-7 10.1-6.1 16.2 5.8 2.2 13 .8 19-.6 6.4-1 13.4-5.9 11.7-13.3-3-3.6-1-7.8 2.2-10.5 1.3-3.2 3-5.7 6.8-5.2 4.8 1.7 2.7-6 2.4-8.8-.7-5-4.6-8.6-5.8-13.6-1-3.2-3.7-12.9 1.6-7.3a41 41 0 0 1 13 22.8c2.2 7.6.6 15.4-1.5 22.7-2 4-4.8 8-9 9.8-1.5 3-2.4 5.9-4.5 8.7-1.2 4.2-5.9 8.4-3.7 12.7a34 34 0 0 0 27.9-6.3c3.2-5.3-2.6-12.5 3-17 1.8-3.5 5-5 8.9-5.5 5-1.1 3.2-8.5 2.3-12.3-3.5-7.1-7.5-14-8.5-22.2-2-5.1-3.9-10.8-3-16.3-2.3-7.7-12.4-7.6-16.3-14a64 64 0 0 0-10.7-13.6c.3-6.4 2.7-13.2 0-19.7-2.3-6.2.3-13.3-2.4-19.6-.6-3.2-2.3-6.2-3-9.2a16 16 0 0 0 16.4-9.3c4.4-4.2 9.7 3.2 6 7.2-2.6 4.1-7 7.7-6.7 13.3-1.2 8.9 4.2 16.4 10.5 21.7 3.3 4 1.6 11.4-4 8.9.1 5.9 7.8 3.1 10.6 1 2.5-4.9 3.8-8.1 3 0-.4 3-7.3 6.6-.6 5.7 4.8-1.3 5.9-6.9 6.9-10.7-.7 6.9 3.4 2.7 3.5-1.4 1.2-.7.9 9-.8 12-2 4.2-9.9 7.9-12.5 2.7-3.8 4.5 5.5 7.4 9.1 5.4 9-2.3 14.8-11.7 15-20.6-.2-4-2.6-7.5-4.2-11 4.3 3 10.6 2.4 12.3-2.9 2-7.2-4.8 2.3-7.6-2.7-4.9-7.2 3.1-14.2 2.4-21.7 1.8-6.8-2-13.1-6-18.2 2.2-8.3 2-18.6-5.4-24.3-3.5-4.3-9.9-4-15-4.5-4-9-16.9-8.3-24.8-4.7-10.5 4.2-16.3 19.4-8.8 28.5 4.8 2.3 7.8 9.8 2.1 13-5 4-12-.7-16.5-3.5a47 47 0 0 0-33.6-10.7 66 66 0 0 1-37.3-7.5c-3.5-2-2.2-3.5 0-6 .6-1.8 2-2.8 2.7-4.5" id="path5"/><g fill="#fff" id="g12"><path d="M425 234c-3.4-3 0-6.6-1.3-10q-6.5-6.5-1.3 1c-2.8 1.5-6.4-4.2-7.7-5.7 1 5 7.1 6.2 7.3 11.7-.5 5.4-2.3 6.4-2.5.5-.4-4.4-6.6-4.7-6.5-9.4-1.5 2.7 2.4 5.8 4.6 7.4 2 2.7 1.5 9.4-2.7 8.8 2.8-4.2 0-8-3.5-10.3-3-4-.8 4.5.2 8-2.4-4.8-.1 8.7 3.1 4.5a58 58 0 0 0 38.7 12.7c8.6.3 17.7-.5 25.8 3 10 3 17 12.4 27.8 13 5.8 0 11-6.1 8-11.7-1.1-5-7.8-6.8-7.9-12.3a17 17 0 0 1 9-18.3 22 22 0 0 1 20.4-1.3c3.3 1 2.9 6.2 6.7 5.8 6.1-.4 12.3 1.8 15.4 7.4 4.4 5.8 1.3 13.4 2 20 3 4.5 6.5 9 5.7 15A35 35 0 0 1 562 289c0-6 3.3-12.3.5-18.2 2.2 8-4.1 15.6-.9 23.4 1 3.5 3.6 6.8 6.6 7.7-7.5.4-13-8.2-11-15.3.2-5.9 2.8-13.2-2.3-17.7.3 3.6 1.7 9.6.6 14.1-2.5 7.3-1.9 15.9 3.2 21.7 5.1 7.6 4 20.2-4 25 .3-2.3 2.7-5.7 2.3-8.9 3-8.3-3.9-15-8.4-20.9-5.1-6.7 1.1-15-1.7-22 .2 2.5.4 6.7-.8 9.8-2.1 6.8 1 13.5 5.2 18.5 3.3 9 .1 5.6-3 1-3-5.2-9.6-9-9.4-15.9-1.4 4 1.8 9.1 5 12 3.3 4.4 6.6 10.6 3.7 16.2-1.5-5-2.6-11.8-8-14.6-4.3-3.7-7.5-8.7-7.2-14.6-1.8 4.3 1.4 10.4 4.5 14.2 2.8 3.2 6 9.8 2.2 13 .3-5.7-3.4-10-7.4-13.2-5.3-5.3-6.1-13.7-4.1-20.6 4-4.2 9.6-10.2 5.1-16.2-1.2-2-8.2-2-3.3-3.9 3.3-2.8 9 7.6 7.7 2.5-2.3-5.4-10.9-6.1-13-.4-1.8 8.4-12 12.6-19.5 8.9-5.9.3 3.6 4.9 3.1 8.4a44 44 0 0 1 2.4 21.3c2.6 6.8 3.6 14.7.4 21.4a36 36 0 0 1 9.8 11.3c2.7 4.6 6 9.3 11.3 11.3 2.6 2 6.8 4 6.5 7.5 0 7.8 3.3 15.5 5.5 23 1.4 7.8 8.4 13.9 6.8 22.4-2.6 3-8.6-.7-8.5 3.1-1 4.6-5.8 7.1-7 11.5-7.5-1.1 6 4.8.7 5.1-3.7-2.8-10.1-2.3-13.5-2.7 4.7 2.4 12.7.5 14.7 6.6-5.6 6-15 7-22.8 6.7-3-2 1.4-5.9 2-8.6 1.3-3.4 4.7-5.5 4.5-9.4 5.4-2 8.2-7.8 11.2-12.4 1.2 4.9 2.5.6 6.8-.5 0-2.2-7.9-1.1-6.4-5.3 2.5-6.6-.4-13.8-1.5-20.4q-2.3-8.8-8.3-15.7c-3.7-5.7-10-8.5-16.3-10.4a40 40 0 0 1-20.3-11.9c-3.3-2.7-6.6-5.7-11.2-6.4-6.1-.7-9.8-6-11.6-11.5-3.6-6.7-12-9.3-19.2-9.6-3.5.6 5.5.9 7.6 2.1 4.3 1.5 9.7 4.3 10.6 9-3.6 1-8.8 1.2-10.6-3.1-4-3.7 5.1-2.8-4.2-3.9-13.4 2-27 6.3-40.6 3.2a78 78 0 0 1-27.4-10.6c-6-1-4.7-4.4.6-2.2 3.5 2 3.6 1.2 1.3-2.3-1.8-2.2 1.8-12 1.1-4.8.3 13.1 2.6 1 2.3-4.9-4.9 1.4-7.4 5.8-10.6 9.2-4 .7-5 4.7-6.7 7.5-6.2.2-10-6.2-16.5-5.8a53 53 0 0 1-22.4-14.1c-4.4-4.8-10.4-12.1-17.7-8.4-3 2.7-4.5 8.1-3.4 11.7 1.3-6.7 1 3.8 2 6 .4 4 5.7 7.8 3 11.4-6.3.6-6 9.4-1.9 12.4-.7 4.7 6.3-2.4 8.6 2.3 2.4 6 3.1 13.2 1.6 19.2-4.5-.1-9.3-2.2-13.4-3.3-3.6-1-.3-4.8-3.3-6.5-3.1-3.7-2.9-9-3.7-13.5 4.5 2 5.1-9.6 1.6-2-4 4.3-3.6-3.9-2.5-6.8 2-9.6 1.2-19.6.5-29.2-2.4-4.4.2-8.6 3.8-11 1.8-3.3 5.3-7.4 9.3-4.2 7.6 4.5 16.5 3.7 24.6 6a33 33 0 0 1 14.3 9.7c1-2-8.5-8.2-1.4-6.2 3 1.1 5.5 5.3 9.1 4-2.4-1.7-6-3-8.5-5q-7.1-1.2-3.5-7.9c3-6-.4-13 3.2-19 1.6-5 6.5-7.9 10.6-10.5 3-3.5 7.3-4.6 11.3-6.2-4.4-.4-10.2 2.6-13.5 6.4-6.4 1.8-10.3 8.3-11.7 14.6-.4 5.2.6 10.5-2.6 15-.5 3.4-1 8-5 4.4-3.4-3-1.3-9.2.1-13.1 3-6.7-1.4-14.5 2.6-21 2.8-5.6 3.7-2.9 2 2-1.3 2 1.2 10.4 1.5 5.2-2-7.4 5.2-12.7 5.1-19.8.7-8.8 8.5-14 13.3-20.5 2.9-4.6 5.4-10.2 4.1-15.9 2 1 8-1.1 7.3-1-5 4.4-1 3.5 1.8-.7 1.3-3.6 6.6-4.6 6.8-9 2.2-9.4-.3-11.7-1.5-2.2-.6 7.2-9.8 11.2-16 7.6-5 0-9.3 4.1-14.5 2-1-5.2-2.5 3-5.5 3.4-2.2 9.3-5.3.8-9.5 4.8-6.3.3 3.8-1.5 4-5 4-2.4 4.6-6.2-1.4-4.6-4.2 1.2-6.6 7-11.8 4.8-4.5 1-7.4-4.7-4.1-7.6 0-3.5-3.2-8.5 1.3-10.5 1.7-3.6 5.6-3.5 8.5-5.3 2.8-5.8 10.6-6.4 13.6-11.7.4-5.5 8-2.7 10.6-6.5 3.2-3.5 6.9-.5 10.6-.7.6-2.3-5.8-2-6.7-5.3-5 1.5-9.2.8-3.5-3.5 3.9-1.6 8.4.8 11 2.9.3-8 4.7-4.5 6.3.8-.8 3.4-1 7.6 1.5 10.4 0-2.5-1.6-6.3 0-9.7 1.6-3.8.6-9.4 4.7-11.8 1.5 3.6 1.7 9 3.6 13 1.5 3.8 3.5 10.2-1.6 12.2-2.6.9 5.4 1.4 4.4 2.7 2.3 2.2 1.8 5.7 1.6 8.6 1.2-4.5.4-11.8 3-3.7 1.8 2.2-2 10.5 1.3 5.7-1.1-7.4 1.1-6.3 3.4-.9 1.5 5 3.6 10.3 2 15.4 3.3-2 .3-9.1-.5-12.7-1-5.4 3 1 2.9 3 1 2.8.2-4.6 2.5 2.1 3 7.9 5.3 16 5.4 24.5a62 62 0 0 1-5.6 27.4c1.3 0 4-8.4 2.3-1.6-.3 1.3-2.8 7.4-1.3 4.9a70 70 0 0 0-8.4-70.3c-1.7-3.3-4.8-5.6-7.5-8-1.6-4.6 5.8-1.8 9-1.7 5.2.5 4.1 6-.8 4-5.3-1 3 2.2 5 1.3 3 .3 7.7 4.2 4.4 7-4.9-4.2-2.1.4.6 2.7 2.7 1.2 7.6 1 8 4.8-4.4-1.4-10.5-.6-2.9.2 3.7.4 6.7 6.7 1.3 3.4-3.8-1.3-9.2-1.3-2 .2 3 .2 8.4 6 2.9 6.1-3.8-1.8-6.4-3.5-1.4.3 3.5 1.8 8.8 2.8 9.4 7.5-2.6.7-11.8-5.3-7-1 3.8 1.3 9.4 2.7 9 8.2 1.3 5.8-3.3 6.6-2.2.2-1-4.6-6.4-3.3-9-6 1.8 3.6 9.4 3.3 7.6 9-1.3 5.3-8.8-7-4.1 1 3.5 2.3 8.1 3.1 9.9 7.4 3.5 2.4-2.8 13.3-1.8 8.8 2.3-4.1-.6-10.2-5.3-10.6 2 1.7 5.8 4.6 4.3 7.3-2.4-2.5-6.8-2.4-7.6-6.6-1.9-1.2 1.9 6.3 5.1 6 5 5.8-6.1 5-5.7-.5-2.2-1.1 1.5 5.8 4 5.8 6.5 1.5 7.1 9.4 5 14.5-.3.8 1.6 1 0 1.8" id="path6"/><path d="M459.6 323.6q1.5 0 2.9 1l1 1.4q.3.7 0 1.4-.2.5-.8.8t-1.4.2h-3.5l-1.8-.1-2-.7-.8-.5q-.3-.8.2-1.4.5-.8 1.3-1.1.6-.2 1.3-.2 1.2 0 2.2-.5z" id="path7"/><path d="M368.6 131.5q.5 0 .8.2.4.8.3 1.8.3 1.2-.4 2.2-.4.8-1 1.4h-1q-.8-.4-.8-1.2-.1-1 .1-1.9l.5-1 .5-.6.6-.6" id="path8"/><path d="M340.9 187.2q-.5 1.1-1.2 1.8t-1.2 1.3q-.7.8-1.5 1.2a5 5 0 0 1-2 .6q-.8 0-1.3-.3-.2 0-.5-.3 0-.6.6-.5l1.5-.1 1-.2q.6 0 .9-.4l.8-1.1c.6-.4.8-1.2 1.5-1.6q.6-.4 1.4-.4" id="path9"/><path d="M277.4 265.2q1.3-.6 2.3-1.6 2-2 4.3-3.3l3.4-3.1q3-2.7 5.3-5.8 2.4-2.7 4.6-5.5 1.2-1.3 2.3-3c.4-1.2 1.4-2.3 1.7-3.7.8-1 1.5-2.4 2.8-2.8 1.3-.5 2.7-.9 4-.2q3.4 1 6.8.1c1.5-.2 3.5-.5 4.6.8.9.4.8 1.5 1.6 2 .9 1.3 1.8 2.6 3.4 3 2.4 1 5 1.6 7.4 2.9 2 1.1 4.5 1.4 6 3.4 1.3.8 1 2.5 1.2 3.8 0 1.8 0 3.6-.9 5.3-1.5.4-1.3 2-2 3-2.3.5 1-3-1.6-1.8-1.4 1.5-3.2 2.8-5.3 2.7-.1 1.7 2 1.8 2.3 3.4q.7 1.5 2 2.4c1 .4 2.7.4 2.6 1.7-.8.8-2.8.2-3.5-.7l-4.7-4q-.7-1.5-1.9-2.6a20 20 0 0 1-4.3-5.2c-.4-.9-1.3-1.4-1.6-2.4l-1.6-2.3a11 11 0 0 0-5.4-3.2q-2-.7-4.1-.8c-2.3 0-4 1.5-6 2.5a22 22 0 0 0-2.9 5.4 89 89 0 0 1-3.6 8q-1.2 1-2 2.4c-.7 1.4-2 1.7-3 .3-1-.8-2.6-.7-3.7-.6-1 .8-2.3 1.6-2.9 2.8a9 9 0 0 0-.6 7.5c.8 1 2.9-.6 3.6 1 .5.9 1.6 1.1 2.1 2 1.6 2.3 1.5 5.3.9 7.9 0 2.5-.9 5-1.5 7.4l-1.6 4.2c-.8 1.4-2.4.3-3.5-.2l-3.2-2q-1.1-.7-2.1-1.7c-.9 0-2.5-1.3-1.2-2a7 7 0 0 0 2.8-2.1c1.2-1.9 1.8-4 2.7-6 .1-1.1 1-1.8 1.4-2.8a7 7 0 0 1 2.5-2.3c-1-1.5-3 1.3-4 2.4q-1.5 3.2-2.8 6.7-1 1.4-2.4 2.4c-.3 2.2-3.9 2.1-2.8-.1 2-.8-.2-3 0-4.5q.6-3.9.5-7.8 0-2.8-1.2-5.3c-.3-1.2-.3-2.6.6-3.4.5-1.4.5-3 1.8-4q.1-.4.5-.6" id="path10"/><path d="M507.2 381.2c-.9 0-1.6.3-2.4 0-1-.3-1.6-1.4-2.5-1.7-1-1-1.1-2.7-.5-3.9q.2-2.4 0-4.8l-1.6-7.2q-1.2-2.9-1.9-5.8c-.8-1.7-1.2-3.6-2-5.3-.3-.9-1.9-2.2-.5-2.8 1 0 2.5-1 3.4 0l1.8 1.4q1.6.8 2.2 2.4c.6.7.9 1.8 2 1.7 1.5.2 1.1 2.3 1.7 3.4.3 1.4 1.2.3.8-.6-.3-1.6-1.3-3.2-.8-4.8.7-1.7 2.7-.7 2.6 1q1.2 4 1.7 8.1c.7 2 1 4.3 1.9 6.2.6 1 .8 2.3 1.8 3 .9 1.2 1.2 2.6 2.2 3.7q.9 2.8 1.4 5.7-.2 1.6-1.5 3c-1.3.3-2.5 1.4-3.9.7-1.3.4-2.1-2-3-.2-1 1.6.2 3.4-.8 5-.8.7-.8 1.9-1.6 2.6-.2 1-1.3 1.3-1.6 2.3q-.6 1.8-1 3.7c-.5.9-3-.5-2.5 1 1.1.2 2.4.6 2.8 1.7 1.4 1.6.2 3.3-1.5 2q-4.6-1.5-9.3-1c-1 .4-5.1-1.1-3.6.4 2.6 1.2 5.4 0 8 .5 1.3 0 2.6 0 3.7.9a7 7 0 0 1 3.3 2.6c.3 1 .8 2-.2 2.7-1.2.9-2 2.3-3.5 2.7q-2.7 1.1-5.5 1.8-3.5 1-7 1.4-2.7.4-5.4.3c-1.1-.4-3.8.7-3.2-1.4a16 16 0 0 1 2.7-7q1-1.5 1.7-3.2c.5-.9.2-2 1.1-2.7.5-1.4-.2-3.4 1.3-4.2 1.5-.3 2.6-1.4 3.9-2l1.9-1.4c1.3-.8 1.5-2.3 2.4-3.5l3.2-5.3 1.5-2c1.4-1.4 1.2 1.2 1 2.2 1.3.3 1.7-.5 2.7-1s2.5-1 2.6-2.3" id="path11"/><path d="m411.7 229.8.6.5.7.6.7.7.2.4.2.5.3.7q.2.6 0 1.3l-.2.7q0 .1 0 0l-1-2.5z" id="path12"/></g><g fill="#000" id="g69"><path d="M381.3 138c-.7 0-1 .8-1 1.4-.2 1.6.2 3.1-.2 4.7q-.1.8-.6 1.6l-.5 2q0 .8.3 1.7 0 .6.6 1l.5.4c.7.2.7-.7.5-1.2q-.2-.8-.2-1.7c0-.7 1-.8 1.1-.2q.8 1 .3 2.3-.5.6-.7 1.2c-.4.6.2 1.5.9 1q.8-.6 1.2-1.5.6-1 .3-2.3l-.4-1.6-.8-1.5q-.4-.5-.6-1.2l-.4-1.4q-.4-.8-.4-1.7v-1.9q.3-.5.1-1z" id="path13"/><path d="M359.7 152.8q-1 .1-1.9.4-.7 0-1.6.4-1 .2-2 .9-1.2.7-1.4 2c-.3.7.6 1 .8.4q.3-.8.8-1.5l1-1q.7-.4 1.5-.4 1 0 1.7-.4h1.8q1 0 1.7.3 1 .3 1.8 1.1.7.5 1 1.4c-.1.5.6 1 .9.4q.5-1-.4-1.8-.6-.3-1-1l-1.4-.8q-.7 0-1.5-.3l-1.7-.1z" id="path14"/><path d="M372.3 153.3q-.4.3-.7.8-.4.9-.6 1.9l-.2.8q-.4.3-.5.8l-.6.7-1 .7-.7.6q-.2.7.5.8.6-.1 1.2-.5.4-.1.7-.5l.8-.6.4-.7.2-.6q0-.4.3-.8v-.9q0-1.1.5-2.1 0-.3-.3-.5z" id="path15"/><path d="M357.5 155.3q-1 .2-1.7.6a4 4 0 0 0-1.5 1.4q-.6.5-.8 1.2l-1 1.3c-.4.5.4 1.2.9.7q.7-.4 1.3-1 .5-.6.8-1.4.4-.6 1-1 .9-.4 1.5.2.1 1-.8 1.5c-.6.2-.5 1 0 1.2q.7.6 1.7.4c.6-.2 1-.9 1.6-1q.4.1.8.5l.9.9q1 .1 2 .5 1 .1 1.6-.7c.4-.5-.3-.8-.8-.6h-1.2l-1.3-.7q-.8-.8-1.2-2a5 5 0 0 0-3.8-2" id="path16"/><path d="M355.4 161v.6q.4.5 1 .8l1 .3 1.5-.2.7-.2q.5 0 .7-.6l-.1-.4-1.1.3-.6.2-.9.1-.9-.2-.4-.3q-.1-.3-.5-.3z" id="path17"/><path d="m345.5 162.7-2 1q-1.1 1-2.4 1.6-1.4.8-2.3 2-1.2.8-1.7 2c-.6 1-.4 2.2-.5 3.2a6 6 0 0 1-2 3.8l-2.6 1.9c-.6.2-1.1 1.5 0 1.2a24 24 0 0 0 3.8-2.2l1.3-1.7q.7-.9.9-2c0-1-.4-2-.3-3a4 4 0 0 1 1.3-2.3q1.8-1.6 3.7-2.8l2-1.5c.5-.1 2-1 1-1.2z" id="path18"/><path d="m332.5 170-1.6.5-1.2.7-1 1.3-1.4 1q-.7.6-1 1.4-.2.7.2 1.3c.4.2.7-.3.9-.6q.4-.6 1-.5l1.3.5c.5.3-.3.8-.5 1q-.4.7-.8 1c-.4.4-.9 1-.4 1.5.6.1.8-.6 1.1-.9q.6-.8 1.4-1.3.7-.2 1.2-.8l1.2-.7 1-1 .6-1.4a3 3 0 0 0-.2-1.7q-.5-1-1.6-1.2h-.2z" id="path19"/><path d="M361.8 172c-.4 0-.7.8-.7 1.5q0 1.1.6 2.5 1 2 .4 3.8t-2.7 2.9c-1.3.6-2.7 1-3 1.4s.5.8 1.4.6q1.5-.2 3.1-1.5c1-1 2.2-2 2.7-3.4q.5-2.1-.3-4.5c-.3-1.5-1-3-1.4-3.3z" id="path20"/><path d="m377.5 172.4-.6.2c-.5.5-.3 1.4-.3 2.2q-.1 1-.7 2.3c-.5.9-1.2 2-1 2 .1.2 1.3-.6 2.2-1.8.8-1.4 1.5-3.1 1.3-4a1 1 0 0 0-.9-.9" id="path21"/><path d="M380.9 172.5q-.5 0-.8 1-.4 1.2-.7 3.2a7 7 0 0 1-1.1 3.1q-1 .8-2 .8-1 .2-1.4.8-.3.8 1 1.3c.6 0 2-.5 2.9-1.6a10 10 0 0 0 2-4.4c.4-1.6.6-3.2.4-3.9q0-.3-.3-.3" id="path22"/><path d="M402.3 185.3q-.3 0-.5.6-.5 1-.7 2.7-.4 1.4-1.6 3.2l-1.7 3.5c-.1.5.5 0 1-.6q.9-1 1.5-2l1.2-1.6q.5-.6 1-2.1c.3-1 .5-2.5.3-3.2q-.1-.5-.5-.5" id="path23"/><path d="m377.8 191-1 .6q-1 .7-1.8 1.5l-2 2c-.9.9-2.1 2-2.3 2.5s.7.5 1.5.2q1.1-.7 2.3-1.8l2.4-2.4q1.4-1.7 1.4-2.3 0-.3-.5-.2z" id="path24"/><path d="M403.5 191.7c-.4.1-.5 1.2-.8 2.3q-.6 1.8-1.6 4c-.7 1.6-1.5 3.4-1.3 3.5.3.1 1.4-1.4 2.5-3q1.6-2.5 2-4.7c.1-1.3-.5-2.1-.8-2z" id="path25"/><path d="M375.5 197.3q-.6.1-1.7 1.3c-1 .7-2.2 1.7-2.3 2.1s1.1.5 2.1.1 1.8-1.2 2.1-2q.5-1.2-.1-1.5z" id="path26"/><path d="M404.6 199.4q-.3 0-.8.5-.7 1.2-1.3 3.2l-1.4 3.2q-.6 1.3-.4 1.7.6.3 1.5-.6.6-.7 1.2-2.8c.6-1.5 1.4-3.5 1.5-4.5q0-.6-.3-.7" id="path27"/><path d="M405.8 205.4q-.5 0-.9.5-.4 1-.5 2.3c-.2.9-.6 1.6-1.4 3a26 26 0 0 0-2.2 4.5c-.2 1 .7.8 1.3 0q.9-.9 1.5-2.5l1.6-3.3c.5-1.4 1.3-3 1.1-3.9q0-.6-.5-.6" id="path28"/><path d="M363.6 219.6c-.5 0-1.9.4-3.1 1q-2 1.4-2.5 2.4-.2 1 1.2.7 1.1-.5 2.8-2c1-.8 2-1.8 1.8-2z" id="path29"/><path d="m364.9 222.2-1.3.2q-1.4.6-3 1.8-1.5 1-2.7 2.3-1.1 1-2 2.3c-.6.8-1 2-1.3 2.8q-.7 1.4-.5 1.8c.2.3 1 0 1.5-.5q.6-.9.8-1.9a6 6 0 0 1 1.3-2q1-1.2 3-2.8c1.6-1.2 3.7-2.7 4.3-3.4q.4-.6-.1-.6" id="path30"/><path d="M527.2 229.8q-.6 0-.8.4-.5.9 1 1.6c1 .5 2.7.6 3.8.8l2.3.3h.8a20 20 0 0 0-5.4-3q-1-.2-1.7-.1" id="path31"/><path d="M525.2 233.9q-2.2-.1-3.1.5c-.6.5-.3 1.3.2 1.5q.8.1 2.1-.4 1.5-.3 3 0l2.4.6q1.2.2 2.3.9c.6.4 1 1 1.4.9.1-.1.2-1-.2-1.6q-.5-.8-1.7-1.4a8 8 0 0 0-2.6-1z" id="path32"/><path d="m542 235-.1.1q-.4.4.5 1t2.4 1.3l2.4 1.6q1.5 1 2.2 1.2c.3-.1 0-1-.5-1.5q-.6-.8-1.6-1.4l-1.7-1.2q-1.2-.6-2.4-.8z" id="path33"/><path d="M541.3 238.5q-1.3.2-1 1c.3.4 1.3.6 2.1 1a8 8 0 0 1 2.5 1.2c.8.7 1.9 1.7 2.7 2q1.2.2 1-.8-.3-1-2.4-2.3a14 14 0 0 0-4.9-2z" id="path34"/><path d="M538.8 241.3c-.9 0-1 .7-.6 1q.8.4 2 .6 1.1.4 2 1.2l2.5 1.4q1.5.2 1.7-.4-.2-.5-1.5-1.4-.7-.8-2.4-1.5c-1-.5-2.8-1-3.7-1z" id="path35"/><path d="M363 241.5h-.6a7 7 0 0 0-2.2 1q-1 .6-2 1.8-1.4 1.3-2.6 3.2c-.8 1.3-1.5 2.8-1.4 3.4 0 .6.6.4 1 0q.6-.9.8-1.9c.2-1 .6-1 1.5-2l3.8-3c1.4-1.1 2.7-1.7 2.8-2q-.1-.6-1-.5z" id="path36"/><path d="M408.2 243.4q-.7.1-.9 1 0 1 .7 3l1.3 4 1 2a28 28 0 0 0 0-6.2q-.6-3-1.6-3.6z" id="path37"/><path d="m410.3 253.4-.2 1.3q.6-.4.3-1.1z" id="path38"/><path d="m413.2 245.5-.4.2q-.5.3.2 1.9.4 1.6.5 3.8l-.5 3.6c.1 1 .8 1.3 1.1 1.1q.4-.4.5-1.8l.3-2.9c.2-1.4.3-3.6 0-4.7q-.9-1.3-1.7-1.2" id="path39"/><path d="m417.8 248.5-.6.3q-.2.8 0 3c0 1.4-.2 3 .2 3.6.3.5 1-.2 1.5-1q.5-1 .4-2.5c-.1-1.5 0-2-.4-2.7q-.5-.7-1-.7z" id="path40"/><path d="M360.4 248.8h-.6a14 14 0 0 0-5.2 4 15 15 0 0 0-1.8 3.6q0 1 1 .2.5-.6 1.1-1.8.8-1.4 2.2-2.5t2.6-1.8q1.5-.9 1.6-1.3 0-.5-1-.5z" id="path41"/><path d="M421.7 250.9q-.5 0-1 1a8 8 0 0 0 0 2.9q0 1.5.5 1.4c.2 0 .6-1 .8-2.1s.2-2.6 0-3q0-.2-.3-.2" id="path42"/><path d="m395.4 255.2-.9.5a8 8 0 0 0-1.4 2.5c-.7 1.5-1.7 4.1-3 6.4a36 36 0 0 1-4.8 5.7q-2.3 2.1-2.7 2.7.2.7 1.7 0 1.4-.6 3.2-2.5a31 31 0 0 0 8.3-13.7l-.1-1.5z" id="path43"/><path d="M395.5 263.5q-.3.1-.8.8l-1.2 2.3q-.6 1.2-1.6 2.6-1 1.2-2.7 2.7l-3.8 3.4c-1.4 1.2-3 2.2-3.8 2.9q-1.1.7-1 1 4.3-1.7 7.6-4.1 3-2.5 4.9-4.9t2.8-4.4c.4-1.2 0-2-.2-2.2z" id="path44"/><path d="M395.2 270.8q-.8.1-1.7 1.4l-1.3 2.7a15 15 0 0 1-3.5 4.3c-.8.7-1.7 1.5-1.7 1.9s1 .4 1.9 0a8 8 0 0 0 2.3-2.2l2-2.6q1.2-1.4 1.9-2.9c.4-1 .6-2.2.2-2.5z" id="path45"/><path d="M309 271.6c-.3 0-1.1 1.2-2 2.5-.7 1.2-1.4 2.3-1 2.9s1.7.5 3 0a6 6 0 0 0 2.3-2.2c.2-.5-.7-.1-1.3-.1q-1 0-1-1.1c0-.8.3-2 0-2" id="path46"/><path d="M496.4 277.6q-.6.5 0 1.7t1.6 2.4q1 1 2 3 .8 2.6 1.1 5.5.2 2.8.1 4.3 0 1.9.3 2.6c.3.7.8.4 1.2.1s.5-1 .6-1.7v-2.8q.2-1.7-.7-4.9c-.6-2.2-2-5-2.8-6.7a8 8 0 0 0-2.1-2.6q-.8-.8-1.3-.9" id="path47"/><path d="M385.7 282q-.5 0-1 .3c-.8.3-1.5 1.2-1.4 1.5q.3.5 1.6-.2t1.3-1.3q0-.3-.5-.3" id="path48"/><path d="M494.5 289.7q-.6 0-1 .4-.5.8-.2 2.7c0 1.3.1 3-.1 4s-.7 1.3-1.1 2-.8 1.7-.6 2.1 1 .2 1.5-.3.7-1.3 1-2.5l1.3-4.4q.5-2.6 0-3.5a1 1 0 0 0-.8-.5" id="path49"/><path d="M338.4 291.6c-1 .3.8 1.5 1.2 2 1.1.6 1.9 1.8 3 2.4q1.5.6 2.9 1.7c1.3.5 2.8.5 3.8 1.6 1 .4 2.1 0 3.1.3 1.7.4 3.5.3 5 1.1 1.3.4 2 1.4 3 2.1q1.5 1.2 3.3 1.2c1.2.3 2.6 0 3.2-1q1.2-1.3 1.9-3c.6-1.1 2-1.8 3.2-2.3 1-.2 2.2-2.3.4-1.6q-1.3.9-2.7 1.5-1.6.8-2.7 2.1-1.3 2.1-3.7 2.6-2.2-.2-3.6-2c-1-.9-2.3-1.8-3.8-1.5q-3 .2-6-.8l-3.4-1c-1.1-.3-1.9-1.1-2.9-1.6q-1.6-1.4-3.4-2.7c-.6-.3-1-1-1.8-1.1" id="path50"/><path d="M388.2 293.6c-.3 0-.7.8-1 1.5q-.5 1-.6 3.3a17 17 0 0 0 .2 5.3c.3 1.3 1.2 1.2 1.6.9q.4-.7.3-3l-.4-8z" id="path51"/><path d="M497 295q-.5.2-.8 1.3l-.7 2.5q-.1 1.2-.9 2.8c-.5 1.1-1.3 2.6-2 3.6q-1.1 1.7-1.1 2s.9-.2 1.4-.6q.9-.8 1.4-1.9l1.5-2.4q1-2 1.7-4 .2-2.4-.5-3.1v-.1z" id="path52"/><path d="M392.5 295.2q-.7 0-1.5 2.5a12 12 0 0 0 0 5.5q.6 2.3 1.6 2.4.8-.1.8-1.3 0-.8-.4-1.8c-.4-1-.2-1.5-.2-3s.2-3.7-.1-4.2z" id="path53"/><path d="M396.8 296.6q-.4 0-.9.6a2 2 0 0 0-.6 1.2q-.2.5-.2 2-.1 2.2.4 3.8t1.3 1.4q.7-.3 1-1.3-.1-1-.6-2.1t-.6-2.9c0-1 .5-2.2.4-2.6z" id="path54"/><path d="M400.7 300q-.5 0-.6 1.1 0 1.3.3 2.8.6 1.5 1.2 1.7.6-.2.7-1.3-.1-1-.7-2.2c-.3-.8-.5-1.8-.8-2z" id="path55"/><path d="M499.3 301.4q-.6 0-1 .4-.5.6-.6 1.7-.2 1.2.1 1.7.5.2 1.2-.7t.7-1.5q.3-1-.1-1.5z" id="path56"/><path d="M503.2 301.4q-.6.2-.5 1.3 0 1 .7 2.3.6 1.4.5 4.1a21 21 0 0 1-1 6.2c-.6 1.7-1.4 2.6-2.2 3.6q-1.2 1.6-1.3 2.5c0 .5.8.5 1.4 0q.8-.6 1.8-2.7c.8-1.5 2-3.5 2.6-6s.6-5.4.1-7.5-1.4-3.4-2-3.7h-.1z" id="path57"/><path d="M497.2 306.8q-.4 0-1 .6l-1.2 2c-.5.8-1.3 1.5-1.4 2q.2.7 1 .4.8-.5 1.5-2 1.2-2.1 1.3-2.8 0-.3-.2-.3z" id="path58"/><path d="m501 307.9-4.3 6q-2.2 2.3-3 3.4-.3 1.3.6 1c.6 0 1.1-.8 1.7-1.5q1-1 2-2.4a31 31 0 0 0 3-6.5" id="path59"/><path d="M492.6 312.7c-.5 0-1.1.7-1 1.1.2.3 1.1.4 1.4 0s0-1.1-.4-1.1" id="path60"/><path d="M505.7 316.7h-.1q-.4.7-.7 2.2a7 7 0 0 1-1.2 2.7c-.7 1-1.8 2.5-2.1 3.5s.1 1.4.9.6 2-2.7 3-4.4q1.1-2.4 1.2-3.7c0-.7-.6-1-1-1z" id="path61"/><path d="M489.5 320.8c-2 0-5.2 1.7-7.4 1.9-5 .5-9.5-2-13.7-1.8-.5 0-.9.8-.8 1q.1.4 1 .4l2.2.8c3.3 1 6.5 2 10 2 2.3 0 8.4-1.7 9.6-3.7.3-.4-.4-.6-.9-.6" id="path62"/><path d="M313.8 324.7q-1 1.1-1.4 2.4-.5 1.2-.4 2.3l-.2 2.4-.2 2a5 5 0 0 1-.8 1.9q-1 1.4-2.2 2.6c-.5.3-.8 1.6 0 1.2q.8-.6 1.5-1.4l1.5-1.3q.8-1.5 1.2-3l.3-3.3.1-1.7q.3-1.4.9-2.7c.1-.4.6-1.1 0-1.4z" id="path63"/><path d="M492.3 324.8q-.8 0-2 .7a10 10 0 0 1-6.2 1q-1.7-.4-2.3-.3-.5.5-.5 1.1-.1.5.6.5l2.4.4c.8.2 1.4.2 2.8-.2 1.5-.3 4-1 5-1.7s.8-1.4.2-1.5" id="path64"/><path d="M509.9 329q-1.2 0-1.1 1c.2.6 1.7 1.7 3 2.7a10 10 0 0 0 2.5 1.8c.3 0 .1-.9-.3-1.5l-1.3-2c-.6-.7-1.2-1.7-2.1-2z" id="path65"/><path d="M280.5 270h.4q.4.5.1 1t-1 1q-.6 1-1.5 1.6-1 .8-2.3.5-.6-.2-.4-.8.3-.4.8-.3h.8l1.2-.6.8-.8.7-.8z" id="path66"/><path d="M306.4 240.7c-1.7.5-2.7 1.8-2.8 2.4s.8.5 1.7.2c1-.2 2.1-.7 3.9-.5s4.3.9 5.6 1c1.4 0 1.6-.7 1.8-1.7s.3-2.3-.4-2.5-2.2.5-4 .7c-1.9.3-4.2 0-5.8.4" id="path67"/><path d="M329.3 252.6a5 5 0 0 0 2-1.1c.6-.5 1.4-1 1.4-1.4-.1-.2-1.1-.2-1.9 0q-1.1.5-2 1.3c-.5.5-1.2 1-1.1 1.1q.4.4 1.6 0z" id="path68"/><path d="m330.4 256 2.4-1q1.5-.7 2-1.3 0-.9-1.1-.9c-.8 0-1.5.8-2.3 1.3q-1.2.8-2 1-.7.3-.3.5.5.4 1.3.3z" id="path69"/></g><path fill="#fff" d="m330.7 175.3.6-.7q0-.3.3-.5t.3-.4.2-.7l.1-.6.2-.5q.3-.3.6-.1.5.3.5 1 0 .3-.3.7l-.4.4q-.6.9-1.6 1.3z" id="path70"/></g><!-- app4joy --></svg>