<svg id="svg2" height="300" width="500" viewBox="0 0 500 300" xmlns="http://www.w3.org/2000/svg"><defs id="defs6"><clipPath id="clipPath7160-4"><path id="path7162-0" d="M435.8 163.3h62.4V203h-62.4z"/></clipPath></defs><g id="g1"><path id="path7150" d="M0 300h500V0H0z" style="stroke-width:1.25"/><path id="path7152" d="M0 198.8h500v-101H0z" fill="#dd0000" style="stroke-width:1.25"/><path id="path7154" d="M0 300h500V198.9H0z" fill="#ffce00" style="stroke-width:1.25"/></g><g id="g7156" transform="matrix(7.56637 0 0 -7.56637 -3279.7 1517.7)"><g id="g7158" clip-path="url(#clipPath7160-4)"><g id="g7164" transform="translate(475.8 192.8)"><path id="path7166" d="M0 0h.6v-15.2l-.3-1.5v-.1l-.1-.3-.1-.3-.6-1.4A10 10 0 0 0-9.3-24h-.8l-1.4.2-1.9.7a10 10 0 0 0-5.8 9V0z" fill-rule="evenodd"/></g><g id="g7168" transform="translate(475.8 192.8)"><path id="path7170" d="M0 0h.6v-15.2l-.3-1.5v-.1l-.1-.3-.1-.3-.6-1.4A10 10 0 0 0-9.3-24h-.8l-1.4.2-1.9.7a10 10 0 0 0-5.8 9V0z" stroke="#000000" stroke-miterlimit="22.926" stroke-width="0.015" fill="none"/></g><g id="g7172" transform="translate(457.3 192.8)"><path id="path7174" d="M0 0h19.1v-14.9l-.4-1.8-.7-2A10 10 0 0 0 9.2-24h-.8l-1.3.2-2 .7a10 10 0 0 0-5.7 9V0z" fill="#ffffff"/></g><g id="g7176" transform="translate(457.3 192.8)"><path id="path7178" d="M0 0h19.1v-14.9l-.4-1.8-.7-2A10 10 0 0 0 9.2-24h-.8l-1.3.2-2 .7a10 10 0 0 0-5.7 9V0z" stroke="#000000" stroke-miterlimit="22.926" stroke-width="0.015" fill="none"/></g><g id="g7180" transform="translate(475.3 191.8)"><path id="path7182" d="M0 0h-17.7v-14a9 9 0 0 1 5.1-7.3l1.6-.5h.2l2-.3a9 9 0 0 1 8.5 6.6L0-14v.7z" fill="#ffffff"/></g><g id="g7184" transform="translate(475.3 191.8)"><path id="path7186" d="M0 0h-17.7v-14a9 9 0 0 1 5.1-7.3l1.6-.5h.2l2-.3a9 9 0 0 1 8.5 6.6L0-14v.7z" stroke="#000000" stroke-miterlimit="22.926" stroke-width="0.015" fill="none"/></g><g id="g7188" transform="translate(466.3 169)"><path id="path7190" d="M0 0a9.5 9.5 0 0 0-9.3 8.7v14.9h19v-14a10 10 0 0 0-1-4.4A10 10 0 0 0 .2 0z" fill-rule="evenodd"/></g><g id="g7192" transform="translate(457.2 192.3)"><path id="path7194" d="M0 0h18.7v-13.8a9 9 0 0 0-1-4.3 9.3 9.3 0 0 0-12.3-4.2 10 10 0 0 0-5.5 8.5z"/></g><path id="path7196" d="M466.5 192.3H457v-10.2h9.4z" fill-rule="evenodd" fill="#176fc1"/><g id="g7198" transform="translate(463.8 185.4)"><path id="path7200" d="M0 0v-.5q0-.3-.3-.2.1-.4.4-.1V-1l.4.2V-1h.4v-.3l.1-.2V-2l-.2.3-.3.3-.2-.2q-.3 0-.5-.2H0V-2q0-.3.3-.1l.1-.3H.2v.1H0l-.2-.1-.3-.1v-.4H.7L1-3l.1-.1h.2v.2h.1v.4-.2l.1.1V-3q.5.2.4.6v-.2q.3.1.2.3v-.1q.4.1.2.5l.2-.2v.2l-.1.3.1.2v.8h-.1l.1.1v.3h-.1V0L2-.3l-.2.1-.2.1-.2.1v.7l.6.2.3.1h.3v.2l-.2.1.2.5v1.5l-.2-.1-.1-.2-.5.9v.7h-.4l.3.1H2l.1-.1-.1-.3-.1-.2H2V4q.3-.2.2-.4H2q.4-.2.6.3v.4l-.2.1.2.4-.1.1q-.3-.3-.6 0h-.6q-.1.3.1.6h-.2l.3.3q-.2-.3.3-.5l.4-.2.3-.1v.8l-.3.3.2.1q0 .3-.2.4H2q.3 0 .1-.3h-.3L1.6 6q-.3 0-.5-.4L1 5.2l.1-.6Q.7 4.1 1 3.4l.5-1-.2-.2V2q0-.2.2-.3l.2-.1v-.3l-.1-.1-.9.7-.6.5-.2.2.3.2L0 3l.4.1-.2.2v.3h.3v.1L.4 4v.2h.1L.6 4h.2l-.3.5.3.2-.2.2-.2.3h.3v.3H.6v.2H.3L.2 6q.2.3.4.3l-.2.3H0v-.3h-.1v.3h-.1l-.3.3-.2-.1v-.1l-.2-.1v-.3l-.1.3h-.6v-.3q.3 0 .3-.2v-.2h-.4l-.2-.1H-2v-.4h.1l.3-.2v-.1h-.6q-.4.1-.2.5-.4 0-.5-.2 0-.5.5-.6h.8v-.2l.1-.1h.1q0-.2-.3 0h-.2l-.3.1h-.4.2l.1-.2h-.6q-.2 0-.5.3c-.3.2-1 .5-1 .9l.2.5q0 .3-.3.3 0 .2-.3.2H-5l.2-.3-.2-.1.1-.2v-.3l-.3.3v.4h-.4q0 .3-.3.2l-.3-.1.2-.3V6l.2-.2.1-.2h-.5l-.3-.3v-.4l.3.2.2-.1h.2q0-.3.2-.4h.1v-.1q.2 0 .4.3h.2v-.3q-.2-.2 0-.4h.1V4h.2v-.1h.1v-.1l.1-.2h.4v-.2q0-.3-.2-.2h-.3l-.2.2q-.2-.4.3-.6h.7l-.4-.3q-.4 0-.6-.3t-.5 0q0 .4-.3.3l-.3.1q-.3 0-.3-.2.2 0 .2-.2V2h.2q0-.3.2-.3h.1-.2v-.2h-.2l-.2.1v-.1l-.3-.1V.7q0 .3.3.2V.8h.4l.1.1h.2l.1.1V.8h-.2l-.1-.3V.3h.1L-5 0l.2.2v.6q.3-.5.6-.2l.2.2.4.2V.9l.2.1.2.1V1l.3.3V1l.3.2v-.1l.2.2.2-.2v.2h.6l-.1.1v.2-.1l.3-.3h.9l-.8-.4H-2l-.4-.1q-.2.3-.5-.1h-.4q0-.3-.2-.1v.2q-.3 0-.3-.3l.2-.2c-.2-.1.2-.3.3-.3h.3l-.2-.3.2-.2h-.2v-.2l-.3-.2-.4-.3-.4-.2-.2.1v.2q0 .2-.2.2h-.5a.3.3 0 0 1-.2-.4q0 .2.3.1l-.1-.1v-.2l.2-.1V-2h-1l-.1-.2v-.2h.4v-.3h.3v.1-.1h.1l.2.1v-.2l.2-.3h.4v.3h.1q.1 0 0-.2.4-.3.6.2v.5h.1l.1-.3q0-.2.4-.1l.2.1h-.2v.3l.1-.1v-.2l.1-.2.2.3v-.2q.2 0 .3.3h.3l.1.3h.3L-2-2v.1h.1l.1.1V-2q.4 0 .4.3l-.1.3v.1q0-.2.3-.2v.6l-.2.2q-.4.3 0 .5h.3c.3 0 1 0 1.1.2m1.6 2.2.2-.3h-.2zm.6-.3q0 .4-.4.7v.3-.1q-.2 0-.2.6l-.2-.2V4l-.2-.1v.5c.4-1 1.3-1.8 1-2.4" fill-rule="evenodd"/></g><g id="g7202" transform="translate(463.9 191.5)"><path id="path7204" d="m0 0 .4.3-.2.1H0V.2h-.3v.3l-.3.2-.2-.2h-.1V.1H-1l-.1.3-.1-.1h-.3v.1q.3 0 .3-.3z" fill-rule="evenodd" fill="#ffce00"/></g><g id="g7206" transform="translate(464.1 191.1)"><path id="path7208" d="M0 0v-.1l.2.1z" fill-rule="evenodd" fill="#ffffff"/></g><g id="g7210" transform="translate(464 190.9)"><path id="path7212" d="M0 0h.3z" fill-rule="evenodd" fill="#ffffff"/></g><g id="g7214" transform="translate(458.8 192)"><path id="path7216" d="m0 0 .4-.2H.2z" fill-rule="evenodd" fill="#ffffff"/></g><g id="g7218" transform="translate(458.2 191.8)"><path id="path7220" d="m0 0-.2-.2q0 .2-.2.3z" fill-rule="evenodd" fill="#ffffff"/></g><g id="g7222" transform="translate(459 191)"><path id="path7224" d="m0 0 .3-.2.1.5Q.5.7.3.7L0 .6V.2z" fill-rule="evenodd" fill="#ffffff"/></g><g id="g7226" transform="translate(457.6 190.9)"><path id="path7228" d="M0 0v-.2l-.2-.1q0 .2.2.3" fill-rule="evenodd" fill="#ffffff"/></g><g id="g7230" transform="translate(458.3 190)"><path id="path7232" d="M0 0v.2h-.2z" fill-rule="evenodd" fill="#ffffff"/></g><g id="g7234" transform="translate(458.9 190.4)"><path id="path7236" d="m0 0-.1-.1h-.1l-.1-.2-.2-.2v.3q0 .2.2.3v.2L-.6.1v.2-.1L-.8 0l.1.1v.1L-1 .1v.3l-.1.2h.3c0-.1.4-.1.4 0h-.2v.2l-.2.1V1q-.2 0 0 .2.2 0 .3.2c.5 0 0-.3.4-.7L.3.4l.5-.6.5-.1.5-.4q0-.1-.4 0 0-.5.4-.4l-.2-.2q0-.2-.3-.2l-.2-.1-.1-.2v.6l-.4-.1h.1l.1.3-.2-.2H.4l.2.2v.2L.5-.9.4-1v.3L.3-.8H.2v.4L0-.6zm.1 0v.1zm0-.1v-.2m0 .2v-.2zm0 0q.2 0 0-.1zm.1 0h.1v-.2zm.1-.1h.1v-.2zm.1 0v-.2l.1-.1zm.1-.1v-.2zm.1 0v-.4zm.1 0L1-.7V-1v.4m0 0V-1v.2zm.1 0v-.6zm0-.1v-.6zm.1 0 .1-.6zm.1 0v-.6zm.1-.1v-.3zm.1-.1v-.3z" fill-rule="evenodd" fill="#ffffff"/></g><g id="g7238" transform="translate(462.5 191.4)"><path id="path7240" d="M0 0h1.2v-.1h.3v-.5.2l-.1.1h-.1l-.1-.1L1-.5h.2v-.1L1-.7h.2v.1-.1L1-1l.2.1.2.2-.1-.2-.1-.1h.2v.2-.2h-.2l.2.1.2.2V-1q.3 0 .2-.3h-.2v-.3l.1-.1h-.2v-.5h-.3v-.4l.1-.2h-.2L1-3v-.2l-.2.1v.3l.2.3-.2-.2V-3l-.3-.3v-.1l.2-.1-.3.1v.7l.1-.1.4.2v.3l-.2-.3v.2l-.1-.3H.4v-.2H.1L.4-3v-.6l-.1.2H0l.1.2v.2-.3h-.2v.2-.2l-.1-.2h-.3.2l.1.4.2.2-.3-.2q-.3 0-.3-.2v-.4q-.2-.2-.3.1t.2.6c.2.1.8.2.7.5l-.4-.3q-.3 0-.4-.2t-.4-.1q0-.2.3-.1l-.5-.1-.4-.3.6.9c.3.5 1 .1 1.1.5l-.3-.1q-.5 0-.7-.3l-.3-.3h-.4l-.7-.3.5.3q.4 0 .6.2h-.3l-.6-.2q-.3-.5-.8-.4-.3 0-.4.4L-3-3q.6.1.7.4l.3.1.2.4h.2q.2.2.8.1-.4.2-.8 0-.3 0-.5.2l.7.1.8-.1h-.8.4q.3-.2.7 0 .4 0 .4.3l-.4-.3h-.4l-.2.2-.1.1h.3l.4-.2.3.2h-.2q-.2 0-.2.2.6 0 .8.2v.3l-.1.1h-.7l-.2.1c0 .2-.2 0-.2.3v.1l.1-.2q.2.3.4.2T0 0m.4-.1v-.1m-.2 0v-.1l.1-.1h.2-.1zM0 0h.2q0 .2.2 0h.3-.1v-.2h.2-.2v-.2H.4v.1H.2l-.1.2H0zm-.5-.2v-.1zm1.7-1.6h.1zm0 .1v.1h.2q0 .2 0 0zm0 .2.2.1zm0 .1v.1h.1l.1.1v-.1zm0 .3h.1v-.1zH1zm-.4-.6V-2H.7v.2zm-.2 0V-2zM.4-2v-.2H.3zm.1 0v-.2H.3zm.4.4V-2q0-.1 0 0v-.1H.7v.2zm0 .6H.5h.2zm-.1-.2v.1H.5v.1h.1zm-.2 0h.2v-.1l-.1-.1v-.2q-.1 0 0 .1v.3m-.3-.3v.1h.1v-.1zm.1.3v-.5zm.2.6L.4-.9m-.3-.4" fill-rule="evenodd" fill="#ffffff"/></g><g id="g7242" transform="translate(463.3 188.4)"><path id="path7244" d="m0 0 .1-.2q-.2-.3-.2 0z" fill-rule="evenodd" fill="#ffffff"/></g><g id="g7246" transform="translate(457.7 187.8)"><path id="path7248" d="M0 0h.5L.3-.2Q.3.1 0 0" fill-rule="evenodd" fill="#ffffff"/></g><g id="g7250" transform="translate(457.4 186.3)"><path id="path7252" d="m0 0 .4.2Q.4.4.2.5 0 .3 0 0" fill-rule="evenodd" fill="#ffffff"/></g><g id="g7254" transform="translate(458.8 185.5)"><path id="path7256" d="m0 0-.2.4h-.3Q-.3 0 0 0" fill-rule="evenodd" fill="#ffffff"/></g><g id="g7258" transform="translate(459.1 186.1)"><path id="path7260" d="M0 0q.2-.3.4 0L.3.1z" fill-rule="evenodd" fill="#ffffff"/></g><g id="g7262" transform="translate(461 188.4)"><path id="path7264" d="M0 0h-.3q-.2-.2-.5-.2l-.1-.2-.6-.3c-.2 0-.6-.5-.8-.4l-.2.3-.1.2q0-.2-.3-.2V-1h.2v-.2h.5v-.1h.2v-.1h-.2l-.2-.1.2.1h-.4l-.2-.2q-.2.1-.4 0V-2h.1l.1.2h.1v-.1l.1.1v-.1h.2q0 .3.2.2h.1v-.2l-.2-.3q-.2 0-.2-.3h.6v.2l-.1.2.1-.1v.3L-2-2v.2h.2V-2l.1-.1h.2l.2-.1v.3l-.2.1h.2v.2h-.1v.1h.2v.1q0 .2 0 0h.1v.1h.2l-.1.1q0 .1.2 0 0 .1.2 0l-.1.2.2-.1v.1h.2v.1h.1L0-1v.1h.3v.1h.1v.1l.1-.1v.2q.1 0 0-.2l.2.1-.2.3v.1c-.1.1-.6-.1-.6-.3h.2v.1h.3v.1-.2H.1L0-.7h-1q-.2.1 0 .2h.2v-.1h.3l.2.3V0zm-1.8-1.2v-.1H-2z" fill-rule="evenodd" fill="#ffffff"/></g><g id="g7266" transform="translate(459.8 187)"><path id="path7268" d="M0 0h.3l.1.1h.1l.1.1H1v.3q.1-.2.3-.1.2 0 0 .1h.5l.2.2.3-.2v-.7Q2-.2 2 .4V0q-.2 0-.2.3v-.5l-.2.1v.3V0h-.2v-.1l-.1.1v.2q-.2 0-.2-.3L1 .1.9-.3V0L.6-.3V0v-.2L.5 0 .4-.3V0L.2-.4.1-.7z" fill-rule="evenodd" fill="#ffffff"/></g><g id="g7270" transform="translate(462 187.6)"><path id="path7272" d="m0 0 .4.1Q.6.1.7.5q.4-.3.7 0 .3-.2.3-.4C2-.4 3-.6 3.1-1.2h.2q.2 0 .3.2h-.3q.3 0 .2.4-.3.1-.5.5l.2.4.4.2-.2-.3-.2-.2v-.3l.4-.1v.5l-.2.1.2.1.2-.4v-.6H4c.1 0 .3.7.2.9q-.2.7-.7 1.3l-.1.3-.2.5-.3.9q0 .4.3.5 0 .2.4.2 0 .3.4.3l.1.1v.1l.1-.2L4 4l.2-.1.1-.3V3v.3l-.2.1v-.3l-.1.1v.3q-.2 0 0-.3-.3.3-.2.5l-.2-.3v.4L3 3.6v-.3h.3L3 3q0-.4.2-.7l.2.3V2l.1-.4.3-.5.3-.4.2.3V0l-.2-.8q.2 0 .2-.2H4q-.4-.3-.9-.3L3-1.8l.2-.4.1-.2h.3l.2-.1.4.2v-.3l-.3-.1h.3L4-2.9q0-.2-.3-.2l.3-.1-.2-.1q0-.2.2-.1 0-.2-.3-.1l.2-.1-.2-.1q.3 0 .4-.3l-.4.1.2-.3-.3.1v-.3h-.2l.1-.1q-.3 0-.4-.3l-.2.4V-5h-.3q-.3 0-.2.4l-.2-.3-.1.2-.2-.1-.2-.1v.2q0-.3-.2-.1v.2h.1l.1.2.2-.1h.4l-.2.1v.2h-.3v.2l.1.1v.1h.2l.2-.1v-.3l.3-.1v.3l.1.3-.2.5v.3h-.2l-.2.2-.3-.3v.4Q2-3 1.6-3c.2.2 0 .4.3.5v.3q0 .3.2.2v.3q.2 0 0 0l.1.1v.3l-.1.1v.2q-.2 0-.1-.2l-.3.2h-.3l-.5.1-.4.1h.1l-.2.1.1.1H.3l-.1.1-.1.1zm.2-.2V0h.1l.2.2L.4 0zm.1-.2.2.1.1.1v-.1zm.2-.2.1.2h.2q0 .2 0 0l-.1.1zm.2-.1.1.2zm.2 0 .1.2q.2 0 0 0zm.1 0 .2.1.1.2v-.2zm.3-.1.1.2h.1v-.2zm.1 0v.2h.1v-.2zm.2-.1.2.1zm1-.2-.1-.2zm.1-.4q.1 0 0 0m0-.2v-.1h-.1zm0 0V-2h-.1zm0-.2q0-.1 0 0m0-.2v.1m0-.2H3m.3-.1H3m-1 .5q0 .1 0 0h.2zM2-2h.1q0-.1 0 0zm0-.1v-.1q-.2 0 0 .1m.3-.4h.1Zm0 0v-.1h-.1v.1Zm.5-.6.1.1zm0-.2h.1zm0-.1h.1zM3-4h-.1zm0-.2h-.1zm-.1 0-.2.1zm.5 1.1.1.2v.1h.1V-3zm-.2-1.2h.2zm.2.2v.1h.1zm-.1-.2h.1v.1h.1zm.2.9q0 .1 0 0m0-.3v.2h.1zm0-.2q0 .1.1 0zm0-.2" fill-rule="evenodd" fill="#ffffff"/></g><g id="g7274" transform="translate(461.5 188.8)"><path id="path7276" d="M0 0v-.1h-.1v-.1l-.1-.1v.1zm-.1-.1"/></g><g id="g7278" transform="translate(461.2 189)"><path id="path7280" d="m0 0-.2-.2h-.4.3z"/></g><g id="g7282" transform="translate(461.7 189.3)"><path id="path7284" d="M0 0h-.8.2v.1h.4z"/></g><g id="g7286" transform="translate(462.5 189.5)"><path id="path7288" d="M0 0h-.3z"/></g><g id="g7290" transform="translate(463 191.3)"><path id="path7292" d="M0 0q0-.2 0 0m-.2-.1L0-.4h.2L0-.1z" fill-rule="evenodd" fill="#ffffff"/></g><g id="g7294" transform="translate(462.2 190.6)"><path id="path7296" d="M0 0v.1z" fill-rule="evenodd" fill="#ffffff"/></g><g id="g7318" transform="translate(461.2 191)"><path id="path7320" d="M0 0h-.3v-.4l.1.2.1-.3q.5-.3.9-.1h.7v.1q.2 0 0 .1H.4Q0-.4 0 0" fill-rule="evenodd" fill="#dd0000"/></g><g id="g7322" transform="translate(465.2 190.1)"><path id="path7324" d="M0 0q.3.3.7 0H1L.9-.1c.4-.3 0-.5 0-.7v.5-.3q-.3 0-.2.4L.5-.5l.1.4Q.4.2 0 0" fill-rule="evenodd" fill="#ffffff"/></g><g id="g7326" transform="translate(465.4 188)"><path id="path7328" d="m0 0-.1-.1q-1 1.3-.4 2v-1V1l.3-.7v.2z" fill-rule="evenodd" fill="#ffffff"/></g><g id="g7330" transform="translate(464 186.2)"><path id="path7332" d="m0 0-.6.4h.4z" fill-rule="evenodd" fill="#ffffff"/></g><g id="g7334" transform="translate(463.6 183.7)"><path id="path7336" d="M0 0h.4-.2z" fill-rule="evenodd" fill="#ffffff"/></g><g id="g7338" transform="translate(463.3 182.8)"><path id="path7340" d="M0 0q0 .2.2.2V0z" fill-rule="evenodd" fill="#ffffff"/></g><g id="g7342" transform="translate(465 182.3)"><path id="path7344" d="M0 0v.3L-.3.2z" fill-rule="evenodd" fill="#ffffff"/></g><g id="g7346" transform="translate(465.4 182.6)"><path id="path7348" d="M0 0v.3h.2Q.2.1 0 0" fill-rule="evenodd" fill="#ffffff"/></g><g id="g7350" transform="translate(463.3 186.5)"><path id="path7352" d="M0 0q-.6-.4-1.2-.3T-2-.5q-.1.3-.4 0h-.3Q-3-1-3-.5q-.3-.3.4-.4H-3q.3-.3.5 0l.1-.3q-.5-.2 0-.5h-.2l.1-.2q-.5 0-.8-.4t-.7-.2l-.1.3h-.1q-.1-.3-.5-.3 0-.3.5-.1-.4-.3 0-.4l-.3-.1h-.3q-.3 0-.4-.5l.3.3v-.2l.2.1h.4q-.2 0-.3-.3.4 0 .4-.2.2 0 0 .2h.2v.3h.2q-.3-.1-.1-.4.2.3.5.2l-.2.4h.2v.1l.3-.3q0-.2.3-.3v.3l-.1.2q.4 0 .4-.4l-.1.5q.3-.1.4-.5c.1.2-.2.5 0 .6q0-.3.3-.3-.2.2 0 .4l.1-.3.1.3.1-.3v.6l.2-.2v.3l.3-.4v.5l-.2.2q.4.2.4-.2.2.2 0 .4-.4.2-.3.6c.2.6 1.3.1 1.6.5L-.9-1c.4 0 1.1 0 1.3.3l-.6-.1.5.2-1-.4H-1q.7 0 1.3.4H.1l.4.2q-.8-.4-1.6-.4C-1-.7.1-.5.3-.2Q-.4-.6-1-.5c.2 0 .9 0 1.1.5Q-.3-.4-1-.4c.2 0 1 .2 1 .4m-1.7-1.7.3.3zM-2-1l.1.3h.1v-.1zm.4-.8.1.3v-.2zm.1 1V-1h-.1zm.1 0V-1h-.1v.1zm0 0h.1v-.1l-.1-.2q-.2 0 0 0zm-.2-.5.1.2.2.2-.1-.2zm-.1 0v.3h.1zm-.1 0q-.2.1 0 .1l.2.3zm-.2 0 .2.2zm0 .2.2.2V-1zm0-.6v-.1l-.2-.1zm0 .2-.2-.3q-.1 0 0 0zm0 .1-.2-.2zm0 0-.2-.1zm.5-1 .2.1zm0 .1h-.1l.2.2zm0 .1.2.2zm0 .4.3.2-.2-.1zm-.2-.4v-.2H-2zm0 .2h.1-.4zm.4-.3v-.1h-.3zm-.2-.2v-.1h-.1l-.2.1zm-.1-.1H-2l-.1.1h.3m-.2 0v-.1zh.2m-.4 0h.1l.2-.2zm.2-.2h-.3v.1h.1zm-.2-.1h-.2v.1zm-.1 0v-.1h-.3v.1zm-.5-.1h.3V-3h-.1zm0 0q-.1 0 0 0h.2V-3H-3m-.2 0h.2zm-.2 0h.4-.2m-.1 0h.2v-.1zm1.2 1v-.1h-.1l-.1-.1h-.1v.1h.2zm-.4-.2v-.1l-.2-.1H-3v-.1.2h.5m-2-.3h.2zm.2-.3h.2L-4-3v.1zm0-.3q.1 0 0 0 0-.2 0 0m0 .1v.1zm.2.1q.1 0 0-.1zm.1.1h.1V-3zm0 0h.1V-3z" fill-rule="evenodd" fill="#ffffff"/></g><g id="g7354" transform="translate(458.5 184.2)"><path id="path7356" d="M0 0h.3l.2.1Q.2.3 0 0" fill-rule="evenodd" fill="#ffffff"/></g><g id="g7358" transform="translate(457.7 183.2)"><path id="path7360" d="M0 0h.4v.2z" fill-rule="evenodd" fill="#ffffff"/></g><g id="g7362" transform="translate(459 182.4)"><path id="path7364" d="M0 0v.3h-.3q0-.4.3-.3" fill-rule="evenodd" fill="#ffffff"/></g><g id="g7366" transform="translate(459.5 182.4)"><path id="path7368" d="M0 0v.4h.3Q.3 0 0 0" fill-rule="evenodd" fill="#ffffff"/></g><g id="g7370" transform="translate(460.3 190.9)"><path id="path7372" d="m0 0 .2.6c.4 0 .3.6 0 .4.2.3-.4.4-.3 0Q-.6.8-.1.7zm4.4.2.2.5q.4.1 0 .4-.2.3-.3 0-.4-.3 0-.4zm-6.8-2.7-.2.6q-.3.1 0 .4c0 .3.5.2.4 0q.5-.2 0-.5zM4-3.2l.2.4q.5.2 0 .4c.1.3-.3.3-.3 0q-.4-.1 0-.3zM-2.4-7l.3 1q-.2.5-.5 0-.4-.2 0-.3z" fill-rule="evenodd"/></g><g id="g7374" transform="translate(460.3 191.2)"><path id="path7376" d="m0 0 .1.4Q.5.6.1.6C.3.9 0 1 0 .6Q-.4.5 0 .4zm4.4.1.2.4q.3.1 0 .2-.2.4-.2 0Q4 .6 4.3.5zm-6.8-2.6-.1.4q-.4 0 0 .2.2.4.2 0 .4-.1 0-.3zM4-3.2l.2.3q.3.1 0 .1-.1.5-.2 0-.4 0 0-.1zm-6.5-3.6v.5c.2.3-.1.3-.1 0-.2.1-.3-.3 0-.2z" fill-rule="evenodd" fill="#ffffff"/></g><g id="g7378" transform="translate(466.1 185.4)"><path id="path7380" d="m0 0 .1.3.1.2.1.2H.1V1h-.3q0-.2-.2-.2V.5l.3-.2z" fill-rule="evenodd"/></g><g id="g7382" transform="translate(463 183)"><path id="path7384" d="m0 0 .2.6.2.1V1H.3v.3h-.4V1Q-.7.9-.2.7V.4z" fill-rule="evenodd"/></g><g id="g7386" transform="translate(462 182.2)"><path id="path7388" d="m0 0 .2.3Q.4.3.4.7L.2.9 0 1-.2.8Q-.6.6-.2.4z" fill-rule="evenodd"/></g><g id="g7390" transform="translate(459.4 184.5)"><path id="path7392" d="m0 0 .2.5.3.2V1l-.2.1q-.1.3-.4 0h-.1Q-.5.7-.2.6z" fill-rule="evenodd"/></g><g id="g7394" transform="translate(459.4 184.8)"><path id="path7396" d="M0 0v.4Q.5.4.4.6H0v.2q0 .1-.1 0L-.4.6l.1-.2H0z" fill-rule="evenodd" fill="#ffffff"/></g><g id="g7398" transform="translate(462 182.5)"><path id="path7400" d="M0 0v.3l.2.1-.1.1Q0 .9-.1.8V.6h-.1Q-.4.3-.2.3l.1-.1z" fill-rule="evenodd" fill="#ffffff"/></g><g id="g7402" transform="translate(463 183.4)"><path id="path7404" d="m0 0 .1.4h.2v.2H0V1Q-.2.9 0 .6h-.3V.3H0z" fill-rule="evenodd" fill="#ffffff"/></g><g id="g7406" transform="translate(466 185.7)"><path id="path7408" d="M0 0v.3h.2q0 .3-.2.2v.2Q-.2.7-.1.5h-.1Q-.4.4-.2.3L0 .1z" fill-rule="evenodd" fill="#ffffff"/></g><g id="g7410" transform="translate(474.2 179.4)"><path id="path7412" d="M0 0h-.1l.1.4.2.3v.6l.3.6q.2.4-.1.4c.4.4.7-.3.4-.5q-.4-.3-.4-.6l.5.5.4.2v.5q.3-.4 0-.6h.2l-.2-.4h.1L1.2 1H1h.4Q1.3.7 1 .7h.4L1.1.6H.5L.4.5H.3L0 .3zm1 1.7-.2-.3L.7 1v.4z" fill-rule="evenodd" fill="#ffce00"/></g><g id="g7414" transform="translate(474.2 178.2)"><path id="path7416" d="M0 0h-.2q-.5.3-.3.9L0 1h1C.6.6.2 1 0 1L-.5.5c0-.3.3-.2.4-.6m.2 1h-.5z" fill-rule="evenodd" fill="#ffce00"/></g><g id="g7418" transform="translate(474 178.6)"><path id="path7420" d="M0 0v.3h.2V0Q0 0 .2.3H0z" fill-rule="evenodd" fill="#ffce00"/></g><g id="g7422" transform="translate(475.2 178.1)"><path id="path7424" d="M0 0q-.5-.3-.8-.1H-1l-.3-.1h.2V0q-.4 0-.5-.3v-.4l.1-.1.8-.4q-.2.6-.6.5v.3l.2.1Q-.4-.5 0 0" fill-rule="evenodd" fill="#ffce00"/></g><g id="g7426" transform="translate(474.6 177.1)"><path id="path7428" d="m0 0-.1.2-.2.4h.1L0 .2z" fill="#ffce00"/></g><g id="g7430" transform="translate(474.2 177.8)"><path id="path7432" d="m0 0 .1-.3z" fill="#ffce00"/></g><g id="g7434" transform="translate(474.6 176.6)"><path id="path7436" d="M0 0q.4-.8 0-1.2-.3-.4-1.1-.3.7 0 1 .4.3.3.2 1.1" fill="#ffce00"/></g><g id="g7438" transform="translate(474.4 176.6)"><path id="path7440" d="m0 0 .1-.2v-.2.2z" fill="#ffce00"/></g><g id="g7442" transform="translate(468.3 174.7)"><path id="path7444" d="m0 0 .4.5q.1.2.5.2.2.4.6.3.2 0 .3.2h.6q.1-.2.6 0l.6-.2H2.5h1l-1-.1h.8L2.4.7l.4-.1h.4-.8L2.2.3h1c-.3 0-.9 0-1-.2l.4.1h.5H3Q2.4.3 2 0l.8.2.4-.1h-.6Q2.1.1 2-.3l.3-.6V-1q-.2 0-.1-.4l.2-.3-.1.1-.1.1-.1-.1c-.1.2-.1-.2-.2-.3v.3q-.2 0-.2-.2V-2v.2L1.6-2l-.2-.3-.2-.2v.2-.2L1-2.6l-.1.2v.4h.2l.4.3.2.2v-.1.2q.3-.1.3.1h-.3l-.1-.1h-.1l-.2-.3v.2l-.1-.2v.1l-.3-.3v.2L.7-2H.5l-.2-.2h.3l.2-.3H.1v-.1H0v-.1q.2-.2.1-.3-.3.2-.4 0v.7h-.1v-.1q0-.2-.1 0l-.2-.1-.1-.2-.2-.2q0 .4-.3.4l.3.2.2.2c0 .2-.3-.1-.3 0v.2l-.1.2.2.2.2-.2v-.2h.1l.3.1.4.2h.1v-.1l.2.1H.2l.3.4.5.2-.2.2v1L.5 0H.3l.2.3.2.1v.1zm2-1.2v.1l.1.1zm-.2 0v.1H2l.1.1zm0 0H2v.1zm0 0v.1l.2.2zm0 .2.2.1v.2zm0 0 .2.2V-1zm0 .1h-.1v.1H2zm0 .1L2 0v-.1zm0 .1V0H2q0 .2 0 0h-.3m.1 0h.1l.1.2V0zm.2.3V.1zh-.3v.2-.1l.2.1V.4h-.1zM1.1 0l.3.3-.1-.3L1-.3zm0-.3.1.1.2.2v.2l.2.1V0l-.2-.2v-.3l-.2-.1v.1l.2.1h-.1zm.1-.2.2.3zm.1-.1v.2h.1zm.1.5V0l.1.1v-.2m0-.2V0zM1-1.4H.8v.1l.1.1zm-.2 0H.6v.1H1q-.1 0 0-.1m-.4-.1v.2h.1zM0-2v.2zm0 0h-.1v.1zm0-.3h-.1l-.1.2h.1z" fill-rule="evenodd" fill="#ffce00"/></g><g id="g7446" transform="translate(472 180.8)"><path id="path7448" d="m0 0 .2-.1H.1zm0 0h.1v.1m-1-.5.2-.1v.1zm.4 0v-.2zm.2 0 .1-.1zm.1-.4" fill-rule="evenodd" fill="#ffffff"/></g><g id="g7450" transform="translate(472 180.1)"><path id="path7452" d="M0 0h-1q-.5 0-.8.3l-.3.2V.3Q-1.8 0-.8 0zm0 1h1zm-.3.1h1.4v.1l.2.2.1.2-.4-.1q-.1 0 0-.2H.5l.2.1q0 .2-.2 0-.2.2 0 .3c-.4 0-.2-.1-.3-.2H.1l.1-.2q.3 0-.1-.1l-.2.2h-.2q0 .2-.2.1v-.2zm-2.8.3-.1-.2.1-.1q.2.3 0 .3M-4.3 0l.2-.1v-.2zM-5 0l.3.2-.1.2Q-5 .3-5 0m.1 1.3h.3l.1.1zm.1-4.4h.4v.1zM-5-4q0 .3.2.4V-4zm1-.8-.1.3.2-.1v-.2m.6.3.1.2h.2q0-.2-.3-.2m.1-3.8.2.4h-.2zm-.5-.3v.3H-4q0-.3.2-.3m-1.3.3.2.2-.1.2q-.1-.3 0-.4M-5.3-7h.4q-.2.3-.4 0m3.1-1 .4-.2.1.2q-.2.2-.5 0m.2-1.1h.3l-.1.2zm1.5-.3-.2.2h-.1q0-.2.3-.2M0-9l-.1.3.1.2z" fill-rule="evenodd" fill="#dd0000"/></g><g id="g7454" transform="translate(475.2 177)"><path id="path7456" d="M0 0q-.2-.3-.8-.3-.5 0-.2-.4.2 0 .3-.2.1-.4-.2-.6-.4-.4-1-.2c-.1-.3-.6-.6-.6-.7l-.1-.3q-.1 0 0 0 .4 0 .4-.2L-2-3h1q-.1-.4-.7-.3l.5-.1-.3-.1-.4-.1q0-.3.3-.2l-.4-.1.1-.4-.2.2v-.5l-.1.2-.1-.5q0 .2-.2.3V-5v.1l-.1-.1-.2.2q-.1-.3.1-.4-.2-.1-.4.1h-.2l.2-.2q-.3 0-.4-.2v.2h-.2v-.2h-.1l.2-.3L-4-6l-.1.2v.1h-.2v-.2h-.3l-.1-.1-.3.3.2.1h.2l.1.2h.2-.2l-.3.1-.2.1q.3 0 .2.4.2 0 .3-.2t.3-.2q0 .4.3.6t.2.4l.2.3q.1.2 0 .4v.2l-.2-.2q0 .4-.2.4-.2.2 0 .5 0 .2.4.3v.3l.2.3.3.4v.4l-.1-.2-.6.2-.6.3v-.2.2q-.2 0-.2-.3v.2h-.2l-.3.1-.1.2q0-.2-.2-.3v.3l-.2-.4v.3l-.1-.3-.2-.1v.4q0-.3-.3-.5.2.1 0 .4-.2 0-.1-.2V-1h-.5v.2h.1v.1h-.2V-1c-.3-.2-.1-.5-.4-.5q0 .2-.3.2l.1.2.3.2q-.1.2-.4 0H-8q.1.3 0 .4h.7q.2 0 0 0h-.1l-.2.2-.2.2q.3 0 .2.3l.3-.3.5-.2.4.4q.3 0 .5.2.3.1.5.4h.5-.1q-.3 0-.3-.4h.8l.2.2V.2q.2 0 .3.4l-.2-.2v.3l-.2-.3h-.8q0 .2.3.2.3.1.2.4-.1-.2-.5-.2h-.4l-.3-.2q.2.4.6.4.5 0 .6.3-.3-.2-.7-.2L-6 .8q-.2-.3-.6-.2-.4.3-.7-.1 0 .4.3.4h.6l.5.1q0 .4.6.6l.3.1.5.2h-.4c-.4-.3-.6.2-1 0v-.4l.1.2v-.2l.1.3.1-.2q-.3-.2-.4-.6v.3c-.2 0 0-.1-.3-.2v.4-.1l-.2-.1v.6q0-.4-.2-.4V2l-.1.2L-7 2l.1.5-.3-.2q0 .3.3.4h-.5l.1.2v.3h.2v.2h-.3l-.1-.1h-.1l-.2-.2H-8q.2.4-.1.5h.4l.3.2V4q-.1 0 0 0v.2h-.2V4l-.1.2h-.1l.2.4q.2 0 .3-.2L-7 4l.3.2.1.2.3-.2q0-.2-.2-.2l-.2-.2.2-.2c.3-.8.5-.8 1-1l.3-.2c.2-.5 0-.1.5-.1l.7-.1q0 .2-.2.2h-.4.1l.3.1h.4q.3 0 .3.2h-.3v.1h.6q.3.1.1.4 0 .3-.2.2l-.6.1q-.3-.2-.3.1-.2.2 0 .3h.6l.3.2h1L-2 4v-.1q0-.4 0 0 .2.3.2-.1l-.2-.2-.1.1v.2q0 .1-.1 0l-.3-.2h.3v-.2.1q0-.2-.3-.2.4-.2.5.2 0-.3-.2-.3h.2l.1.2h.1l.1.3h.6q-.1-.4-.5-.2 0-.4.4-.3-.1-.2-.4-.2 0-.3.4-.4 0-.3-.4-.3l-.1-.5q-.1-.3.2-.5-.3-.1-.4.2l-.1.2-.1.1V2l-.2-.2v-.1l.1.1.2-.2-.2-.5.1-.5q-.4.2-.3.6c-.2 0-.1-.6 0-.8q-.5.4-.2.8-.5-.4-.2-.9c-.3.1-.2.8 0 1q-.4-.3-.2-1-.3.4-.2.6c-.3 0 0-.4 0-.6q-.3.1-.4.5l-.1-.1V0l-.1.2v.2H-4v-.5h.1l-.1.2h.2l.1-.2.1.5v.2h.1q.1-.5.7-.4c.1-.9.5-.3.8-1.3l.3-.4q.1-.2.6-.1.4 0 .4.5c0 .3-.8.3-.5.8.2.4.7 0 1.3.3m-3.6 3.7v.1m.3.1q.3.2.4-.1h.2v-.3h-.1v.2q-.1-.2-.4-.1zm.5-1q-.1 0 0 0L-3 3v.2h.2V3l.2-.1v-.1h.1q.1 0 0-.1h-.1V3zm-.3.4h.2zm.2.6h.2v-.1zm0 .2h.3zm.7-1v.2l.1.2h.1v-.1zl.1.2zm0-.3V3l.2.2v-.6l-.2-.2v-.2h-.2l.2.2h-.1l.2.2v.2zl.2.2v-.1zm-.2-.2-.2-.1h-.2q0-.2-.2-.3l-.1-.1-.1-.2v-.1.1l-.1.2v.3q.2 0 .1.2l-.1-.1-.1-.1v.2l-.1-.1-.1-.2h-.2.1l.1.2v.1h.5v-.2l-.2-.3V2l.2.2.2.3v.3l.1-.1.2-.1zm-.2-.5v-.2l-.2-.1.1.1zm0-.3v-.2h-.1v.1zm-3.6 1.1v-.2zm.2-.2h.1v-.2zm-.2 0v-.1zm-1 .9v-.2h-.1Zm0 0v-.2zm.3.1v-.2zm-.1-.7v-.2zm.2 0v-.4.1-.3l.1.1V2v.1l-.1.3-.1.2zm.3-.5V2l.1.1v.3-.6.1zm.2-.3V2h.1v-.2h.1v-.2.1h-.1v.2l-.1.1zm0 .4v-.2zm.1-.2V2zm1.7-.2h-.4q-.1 0 0 0zm-1.2-.8.1.2h.2-.2zm.4.3.3.1.2.1h.2q.2 0 .3.2 0-.2-.3-.2h-.2l-.2-.1q0-.2-.3-.1m1.3.2q0-.2-.2-.3h-.2l.2.1zm0-.4q0-.2-.2-.2l-.2-.2-.1-.2V1l.2.2h.1zm.5 0-.2-.1-.2-.2q0 .2.2.2zm-.3-.4V.9M-6.8-.2h.2v-.1h-.1m0 .1V0h.2v-.1zm.1.1.2-.1zm1 .5-.1-.2h-.2q0-.2 0 0h.1zm-.1 0-.1-.2zm-.1-1H-6v.1zm0 0q.1 0 0 0m.2 0-.2.2zm.2 0-.2.1zm.3 0-.2.2zm.2 0V0zm.2 0H-5V0zm.2 0q0-.2 0 0V0zm.3-.1-.1.2zm0 .2v.2l.2-.2zm0 0h.1v-.2zm.3-.4.1.1.1.1h.3-.2l-.5.3zm0 0h.3zm.2-.1.1.2zm.1-.1.1.2q.1 0 0 0zm.2 0h.1zm.1 0 .1.1m0-.1.1.1zm.7-.4h.1v.1h.1zm0-.1h.1l.2.1-.1-.1zm0-.2.2.1h.1zm0-.2h.1l.2.1h-.1zm-.1-.2h.2zm0 0h.1v.2zm0 0h.1v.2zm-.1 0v-.1h.2-.2m-.1 0v-.1h.2q0-.1-.2 0zm0-.3h.2zm0-.1h.2zm0-.1h.2zm-.8.1v-.1zm-.2-.3h.1zm0 .2h.2v-.1zm-.1-.3h.2zm.5-.2v-.1h.1m.5.3.2-.1v-.2.2zm.4-.2v-.5l-.2-.1h.1v.3zm-.3-.7h.3zm-.7.1L-3-4zm-.2 0 .1-.1zm.7 0h.2zm-.2-.1h.3zm-.1-.1h.3zm-.1-.1h.3v-.1h-.1q-.1-.3-.3-.1h.2zm-.3-.3h.3v-.1zm-.4-.1h.3v-.1zm-.3.5h.2zm-.2-.1L-4-5h.1-.1m0 0h.1v-.1M-4-5h.2v-.1zm-.2-.4.1.2h.2v-.1zm2.9 4.8v.2zm.1.2h.3q0 .2 0 0h.1zm-2.2-.8.1-.2z" fill-rule="evenodd" fill="#ffce00"/></g><path id="path7458" d="M475.9 192.3h-3.6v-4.2h3.6zm-5.5 0h-3.8v-4.2h3.8zm-3.8-10.2h3.8v4.2h-3.8zm5.7 0h3.6v4.2h-3.6z" fill-rule="evenodd" fill="#ffffff"/><g id="g7460" transform="translate(472 192.3)"><path id="path7462" d="M0 0v-4.3L-.7-5l-.8.7V0Zm-5.4-4.4v-1.5h3.8l.8.8-.8.7zm4-5.8H0v4.3l-.7.7-.8-.7zm5.3 4.3v1.5H.1L-.6-5 0-6z" fill="#dd0000"/></g><g id="g7464" transform="translate(471.3 192.3)"><path id="path7466" d="M0 0v-5zm0-5.1h4.6zm0-.1v-5zm-.2 0h-4.5v.1H0z" fill="#ffffff"/></g><g id="g7468" transform="translate(457.1 180.2)"><path id="path7470" d="M0 0v-2.1a9.4 9.4 0 0 1 9-9zm9.4-5.5v7.3H3.3Z" fill-rule="evenodd" fill="#ffce00"/></g><g id="g7472" transform="translate(466.5 174.5)"><path id="path7474" d="m0 0-6.3 7.5h-3V6.1L-.2-5.3H0Z" fill-rule="evenodd" fill="#dd0000"/></g><g id="g7476" transform="translate(464.3 176.8)"><path id="path7478" d="M0 0q-.4 0-.7.2l.4-.4q-.3-.2-.8.1l.4-.4h-.6l.8-.5-.3-.2q.2-.2.1-.4h-.5l-.1-.1-.1.2-.5.8q.2-.4 0-.8 0 .5-.3.6.4-.4.1-1 0 .5-.4.8.3-.5.2-1L-3.7-.3q-.4.2-.3.6v.3h.2l.2.1q.2 0 .3-.2l.3-.1.1.1v.2H-3l-.2-.1v.3q-.4.3 0 .5 0 .2.3 0l.3-.2h.1l-.1-.2h.3v.2q-.3.3 0 .7l.3.2q.5-.1.7-.6z"/></g><g id="g7480" transform="translate(464 177)"><path id="path7482" d="m0 0-1 1.2-.4.4q-.2.3-.5 0c-.3-.3.2-.6.1-.8q0-.2-.3-.2t-.3.2l.2.1q-.2 0-.3.2-.2.1-.4 0V1l.2-.4h.2q.2-.2 0-.5-.3 0-.5.2-.5.3-.6-.2 0-.3.4-.6L-2-2q0 .4-.4 1v.2c0 .2.6-.7.7-.8l-.4 1.1.6-.7-.2.8q.5-.2.8-1.1l.1.2c.1 0-.1-.3.4-.3q0 .4-.3.4h.4q-.8.3-1 1.2.2-.4.7-.5l-.5.8q.4-.4 1-.6-.6.5-.7 1z" fill-rule="evenodd" fill="#ffffff"/></g><g id="g7484" transform="translate(461.6 180)"><path id="path7486" d="M0 0q-.4 0-.7.2l.4-.4-.8.2.4-.4h-.6q.3-.4.8-.5 0-.2-.3-.2l.1-.4h-.5l-.1-.1-.1.2-.5.8q.2-.4 0-.8 0 .5-.3.6.3-.4.1-1-.1.5-.4.8.2-.3.2-1l-1.4 2q-.4.2-.3.5l.1.3.1.1h.2l.3-.1.3-.2.1.1v.2H-3l-.2-.1V1q-.3.3 0 .5h.3l.3-.2h.1V1q0-.2.2-.1v.3q-.2.3 0 .6 0 .3.3.2.5-.1.7-.6z"/></g><g id="g7488" transform="translate(461.3 180.2)"><path id="path7490" d="m0 0-1 1.2-.4.5h-.5c-.2-.4.2-.6.1-.9L-2 .7q-.2 0-.3.2h.2l-.3.2q-.2.3-.3.2V1l.1-.3h.2q.2-.2 0-.5-.3 0-.5.2-.5.3-.6-.2l.3-.6L-2-2q0 .4-.4 1v.3l.6-.9-.3 1.1.6-.7-.2.8q.4-.3.8-1.1l.1.1q-.2-.1.4-.2 0 .4-.3.4h.4q-.8.3-1 1.1.1-.3.7-.4-.4.2-.5.7.4-.4 1-.5-.6.5-.7 1z" fill-rule="evenodd" fill="#ffffff"/></g><g id="g7492" transform="translate(466.5 173.6)"><path id="path7494" d="m0 0-.2.2q0-.2.2-.3v-.2l-.6.2.3-.4h-.5q.3-.4.8-.5l-.3-.2v-.5l-.2.1h-.2l-.1-.1-.1.2-.5.8q.2-.4 0-.8 0 .4-.3.6.3-.4.1-1-.1.5-.5.8.4-.5.3-1L-3.3-.2l-.3.5q-.1.3.2.4h.3l.3-.1.2-.2h.1v.3h-.2l-.1.3q-.2.2 0 .5h.4l.2-.3h.2l-.1-.2h.2v.3q-.2.3 0 .6l.4.2q.5-.1.7-.6l.8-1Z"/></g><g id="g7496" transform="translate(466.5 174)"><path id="path7498" d="m0 0-.9 1.1-.4.4q-.2.2-.5 0c-.2-.3.2-.6.1-.8q0-.3-.3-.2l-.3.2.2.1-.3.2q-.2.2-.3.1-.2-.1 0-.2l.1-.4h.2q.2-.1 0-.5l-.5.2q-.5.3-.6-.2l.4-.6L-2-2.2l-.3 1q-.2 0-.1.3l.7-1-.4 1.2.6-.7-.2.8q.5-.3.8-1.1l.2.1s-.2-.2.3-.2q0 .4-.3.4h.4q-.7.3-1 1.1.3-.4.7-.4l-.5.8q.4-.4 1-.6-.6.6-.7 1z" fill-rule="evenodd" fill="#ffffff"/></g></g></g><!-- app4joy --></svg>