<svg xmlns="http://www.w3.org/2000/svg" id="svg9" width="1000" height="700" version="1.0" viewBox="0 0 1000 700"><g id="g10"><path id="path1" d="M0 0h1000v700H0Z" style="display:inline;opacity:1;fill:#ffffff;fill-opacity:1;stroke:none;stroke-width:2;stroke-linecap:butt;stroke-linejoin:bevel;stroke-miterlimit:4;stroke-dasharray:none;stroke-opacity:1"/><path id="path2" d="m0 0 250 250h750v200H250L0 700Z" style="display:inline;fill:#00994c;fill-opacity:1;fill-rule:evenodd;stroke:none;stroke-width:1px;stroke-linecap:butt;stroke-linejoin:miter;stroke-opacity:1"/><path id="path3" d="M1000 200H270.7L70.7 0H1000Z" style="display:inline;fill:#002580;fill-opacity:1;fill-rule:evenodd;stroke:none;stroke-width:1px;stroke-linecap:butt;stroke-linejoin:miter;stroke-opacity:1"/><path id="path4" d="m70.7 700 200-200H1000v200z" style="display:inline;fill:#f3e718;fill-opacity:1;fill-rule:evenodd;stroke:none;stroke-width:1px;stroke-linecap:butt;stroke-linejoin:miter;stroke-opacity:1"/><path id="path5" d="m0 0 250 250h750v-17H257L24 0Zm0 700 250-250h750v17H257L24 700Z" style="display:inline;fill:#000000;fill-opacity:1;fill-rule:evenodd;stroke:none;stroke-width:1px;stroke-linecap:butt;stroke-linejoin:miter;stroke-opacity:1"/><path id="path6" d="m46.7 0 217 217H1000v-17H270.7L70.7 0Zm0 700 217-217H1000v17H270.7l-200 200Z" style="display:inline;fill:#000000;fill-opacity:1;fill-rule:evenodd;stroke:none;stroke-width:1px;stroke-linecap:butt;stroke-linejoin:miter;stroke-opacity:1"/></g><g id="g9" style="display:inline"><path id="path7" d="m152 398-6 12 18 24 18-24-6-12 36-36 12 6 24-18-24-18-12 6-36-36 6-12-18-24-18 24 6 12-36 36-12-6-24 18 24 18 12.6-6 35.4 36z" style="fill:#fff;fill-opacity:1;fill-rule:evenodd;stroke:#000;stroke-width:5;stroke-linecap:butt;stroke-linejoin:miter;stroke-miterlimit:4;stroke-opacity:1"/><path id="path8" d="m164 386 36-36-36-36-36 36 36 36z" style="stroke-opacity:1;stroke-miterlimit:4;stroke-linejoin:miter;stroke-linecap:butt;stroke-width:5;stroke:#000;fill-rule:evenodd;fill-opacity:1;fill:#038301"/><path id="path9" d="m116 350-12-6-8 6 8 6 12-6zm96 0 12-6 8 6-8 6-12-6zm-48-48 6-12-6-8-6 8 6 12zm0 96 6 12-6 8-6-8 6-12z" style="fill:#000;fill-opacity:1;fill-rule:evenodd;stroke:none;stroke-width:1px;stroke-linecap:butt;stroke-linejoin:miter;stroke-opacity:1"/></g><!-- app4joy -->
</svg>