<svg xmlns="http://www.w3.org/2000/svg" xmlns:xlink="http://www.w3.org/1999/xlink" id="svg57" width="720" height="504" version="1.1" viewBox="-200 -140 400 280"><defs id="defs1"><clipPath id="a"><ellipse id="ellipse1" cy="25" fill="#fff" rx="190" ry="240"/></clipPath><path id="b" fill="#fff" d="m0-25.4 16.5 50.7L-26.6-6h53.2l-43 31.3z"/></defs><g id="g58"><path id="path1" fill="#258f44" d="M-200-140h400v280h-400z"/><path id="path2" fill="#fff200" d="M-166 0 0-106 166 0 0 106z"/><circle id="circle2" r="70" fill="#fff"/></g><g id="g57" transform="scale(.10526)"><path id="path3" fill="#613a21" d="M193.7-300a1286.2 1286.2 0 0 0-387.8 0l-10.4 2.5 44.6-106.5 3.2-.2c51.6-8.4 104.3-14.2 156.7-14.4 52.3-.2 103.9 5.5 155.5 14.2l3.2.6 45.8 105.5z"/><path id="path4" fill="#cfa550" d="m154.4-315-4.7-18.6h.8c11.4 1.3 22.8 2.7 34.2 4.3h.3l8.4 19.4c-13-1.9-26-3.6-39-5zm27.4-19.8a1190.3 1190.3 0 0 0-82.3-8l-.4-.1-3-17.9h.6c26.1 2 52.1 4.6 78 8.3h.3l7.7 17.8zm-10-23.1a1084.9 1084.9 0 0 0-28.8-3.6h-.3L138-380l.7.1c8.5 1 17 2.2 25.5 3.4h.3l8 18.6zm-10.4-24a1099 1099 0 0 0-69.7-7.5h-.4l-3.1-18.8h.6c22 2.5 44 5.6 65.8 9.3h.2l7.5 17.2zM83-408.7l3.2 18.9h-.6c-27.4-2-54.8-3-82.2-3H3V-413h.5c26.5.1 53 1.7 79.3 4.3zm-85-4.4v20.3h-.6a1237.4 1237.4 0 0 0-83 3.1h-.6l3.1-18.8h.4A846.4 846.4 0 0 1-2.6-413zm-86.2 5.1-3.1 18.8h-.4a1173.6 1173.6 0 0 0-70.7 7.5l-.9.1 7.2-17.1h.3a1235.4 1235.4 0 0 1 67-9.2zm-77 31.7a1148.4 1148.4 0 0 1 26.2-3.3l.8-.1-4.8 18.7h-.3c-9.8 1.1-19.6 2.3-29.3 3.6l-1 .2 8-19zm-10.3 24.4a1153 1153 0 0 1 78.7-8.3h.6l-3 17.8h-.3a1297.9 1297.9 0 0 0-82.8 8.1l-1 .1 7.5-17.7zm-9.7 23c11.5-1.5 23-2.9 34.5-4l.7-.2-4.8 19.2c-13 1.5-26 3.1-39 4.9l8.3-19.8zm35.7 14.4 4.8-19 .3-.1c30.9-3.1 61.8-5.1 92.8-6.2h.5l-1.7 18a1486.7 1486.7 0 0 0-96.7 7.3zm101.8-7.6L-46-340h.4a1598.9 1598.9 0 0 1 91-.3h.5l1.6 17.7a1375.4 1375.4 0 0 0-95.2.5zm100.3-.4L50.9-340h.6c30.9 1 61.8 2.8 92.6 6h.3l4.7 18.5c-32.1-3.5-64.3-5.8-96.5-6.9zm80.2-58 4.6 18.3h-.7a1200.7 1200.7 0 0 0-87.7-6h-.5L47-387h.5c28.4 1 56.7 3.2 85 6.4zM41.9-387l1.6 18.7h-.6c-27.6-.8-55.3-.7-82.9.2h-3.7L-42-387h.5c27.7-1 55.4-1 83.1-.1zm-89 .3-1.6 18.9h-.4a1312.8 1312.8 0 0 0-87.8 6.2l-.8.1 4.8-18.7h.3a1189.3 1189.3 0 0 1 85-6.5zm-43.5 26.1a1419 1419 0 0 1 88-3.2h.5v18.1h-.5a1547.3 1547.3 0 0 0-90.8 3h-.6l3-17.8zm94-3.2c29 0 58.2.8 87.2 2.7h.4l3 18h-.7a1475.9 1475.9 0 0 0-89.9-2.6H3v-18.1"/><path id="path5" fill="#613a21" d="M-113.8-451.2v-18l5.4-.5a1294.9 1294.9 0 0 1 43.3-3.5l6.4-.5 19.2 18.2 12-.3v-19h5.9a2260 2260 0 0 1 43.2-.1h6v19l12.2.2 19-18v-.2l6.3.4c14.5 1 29 2.1 43.4 3.5l5.4.6v18.2l31.1-14.2 7 1.2c14.5 2.4 29 5.1 43.4 8l4.8 1v24.2l-.7 1.3-10.2 22L177-397l-2 1.5-2.5-.4A1095.6 1095.6 0 0 0 16.8-410c-63-1-125.3 4-187.5 13.8l-2.5.4-2-1.6-14.4-10.7-9.8-21.6-.7-1.3v-24.3l4.9-1A1413.1 1413.1 0 0 1-152-464l7-1.1z"/><path id="path6" fill="#cfa550" d="M-151-439.8c14.4-2 28.7-3.8 43.1-5.4v-18.6a1331 1331 0 0 1 43.1-3.5v18.7a1558 1558 0 0 1 43.2-1.5v-18.8c14.3-.2 28.7-.2 43.1-.1v18.8c14.4.3 28.7.7 43.1 1.3v-18.7c14.4 1 28.8 2.1 43.2 3.5v18.5a1283 1283 0 0 1 43.1 5.5v-18.2c14.5 2.4 28.8 5 43.2 7.9v17.9l-7.4 14h-.2c-63.8-10-122-16-186.5-15.7a1245 1245 0 0 0-187 15.4c-2.4-4.5-4.8-9-7.1-13.7v-17.9c14.3-2.8 28.7-5.4 43.1-7.7z"/><path id="path7" fill="#cfa550" d="m-171.6-402.2-14.4-10.7a1119.4 1119.4 0 0 1 371.6.5l-12.2 10.6a1056.5 1056.5 0 0 0-345-.4z"/><path id="path8" fill="#dcc89c" d="m125.2-449.6 19.8-8.7v11.3l-19.8-2.6zm-270.2-8.7v11.6c6.8-1 13.6-1.8 20.4-2.6zm97.7 3-11.4-11v11.5l11.4-.4zm94.8-.1 11.2-10.8v11.2l-11.2-.4z"/><path id="path9" fill="#613a21" d="M-35-325.8c.8-7.3 1.4-14.5 2.6-21.8 3.2-18.3 11-36.6 32.5-36.6a28 28 0 0 1 19.5 7.1c13 11.8 13.8 34.8 15.5 51.1l.6 5.6-71.3.2z"/><path id="path10" fill="#e7cf9c" d="M-23.2-325.4c1.4-16.2 1.5-47.1 23-47.1 22.3 0 22.4 30.4 24 47H30C28-346 27.3-379.2.1-379.2c-26.7 0-28 33.6-30.1 53.9l6.8-.1z"/><path id="path11" fill="#613a21" d="M-87.5-331.3c-5.6.6-11.3.7-16.9 1.2l-15 1.2 1.4-15c1-11.9 3-23.7 4.1-35.5l.3-3.2 1.7-2.6c5.5-8.4 15.5-14.3 25.7-11.6a21 21 0 0 1 13.6 12.2l1.3 3.1-.4 3.4-4.5 35.8-1.3 10z"/><path id="path12" fill="#e7cf9c" d="M-88.2-337.6c-5.5.6-11.1.7-16.7 1.1l-7.5.7.7-7.5c1-12 3-23.7 4-35.6l.2-1.5.9-1.4c4-6 11.2-10.9 18.8-8.9 4.4 1.2 7.6 4.5 9.4 8.6l.7 1.6-.2 1.7-4.6 35.7-.6 5z"/><path id="path13" fill="#613a21" d="m-88.8-343.9 4.6-35.7c-3.3-7.6-12-6.6-17.1 1.3-1.2 13.2-3 22.3-4.1 35.5 6.7-.5 11.4-.5 16.6-1zm173 12.6c5.6.6 11.3.7 16.9 1.2l15 1.2-1.4-15c-1-11.9-3-23.7-4.1-35.5l-.3-3.2-1.7-2.6c-5.5-8.4-15.5-14.3-25.7-11.6a21 21 0 0 0-13.6 12.2l-1.3 3.1.4 3.4c1.4 12 3 23.9 4.5 35.8l1.3 10z"/><path id="path14" fill="#e7cf9c" d="M84.8-337.6c5.6.6 11.2.7 16.8 1.1l7.5.7-.7-7.5c-1-12-3-23.7-4.1-35.6l-.1-1.5-.9-1.4c-4-6-11.2-10.9-18.8-8.9a14.4 14.4 0 0 0-9.4 8.6l-.7 1.6.3 1.7 4.5 35.7.6 5 5 .6z"/><path id="path15" fill="#613a21" d="m85.5-343.9-4.6-35.7c3.3-7.6 12-6.6 17.1 1.3 1.2 13.2 3 22.3 4.1 35.5-6.7-.5-11.4-.5-16.6-1z"/><path id="path16" fill="#231f20" d="M-5.2 464.9c-12.9-24.9-43.8-46-67-60.4-35-21.6-72.4-40-108.5-59.4-34.8-18.7-70.7-39-101.6-63.6-26.5-21.2-51.6-47.8-61.8-80.9a107.2 107.2 0 0 1-4.7-31.4c0-49.7 17.3-94.4 35.8-139.7 13.8-33.7 33.6-76.8 29.5-113.8-4.2-37.8-30.6-63.8-61.1-83.4l-5.4-3.5 101.9-131.2 2.2-.4c163.2-27.8 329-31.4 492 0l2.1.5 101.8 131-5.4 3.6c-30.5 19.6-56.9 45.6-61 83.3-4.2 37.1 15.6 80.2 29.4 114 18.5 45.2 35.8 89.8 35.8 139.6a107.1 107.1 0 0 1-4.7 31.4c-10.1 33.1-35.3 59.7-61.8 80.9-31 24.7-66.8 44.9-101.5 63.6-36.2 19.4-73.6 37.8-108.5 59.4C49 418.8 18 440 5.3 464.9L0 475l-5.2-10.1z"/><path id="path17" fill="#f5f5f5" d="M0 462.2c-49-95-342.9-150.7-342.9-293s148.5-247 1.5-341.9l96.5-124.3c173-29.5 336-29.7 489.8 0l96.5 124.3c-147 95 1.5 199.5 1.5 341.9C342.9 311.5 49 367.3 0 462.2z"/><path id="path18" fill="#231f20" d="M-4.1 419a304.4 304.4 0 0 0-52.7-39.4c-35.6-22-73.2-40.5-110-60.3C-215.7 293-298.8 248-316 192a78 78 0 0 1-3.4-23c0-45.1 16.8-87.3 33.6-128.5 16.3-39.7 35.8-84.4 31-128.2-4-35.7-23.1-63.5-50-86.2l-4.4-3.7 77.1-97.9 2.3-.4c152.3-24.9 307.3-28 459.5-.2l2.2.4 77.3 98.1-4.3 3.7c-27 22.7-46 50.5-50 86.2-5 43.8 14.6 88.5 30.9 128.2 16.8 41.2 33.6 83.4 33.6 128.6 0 69.3-99.6 121.6-152.6 150-36.8 19.9-74.4 38.4-110 60.4a304.4 304.4 0 0 0-52.7 39.3L0 423l-4.1-4z"/><path id="path19" fill="#258f44" d="M0 414.7c16.2-15.7 35.7-29 53.7-40.1 35.5-22 73.5-40.7 110.3-60.5 49.7-26.7 149.5-78.7 149.5-145 0-44.2-16.6-85.9-33.2-126.3C263.6 2 244-43.2 249-88.2c4.2-37.9 24.6-67 52-90.1l-72.4-92C77-298-77-294.7-228.9-270l-72.2 91.7c27.5 23.1 47.9 52.2 52.1 90 5 45-14.6 90.3-31.3 131.1-16.6 40.4-33.2 82-33.2 126.4a72 72 0 0 0 3.2 21.1c16.5 54 99.8 98.8 146.3 123.8 36.8 19.8 74.8 38.5 110.3 60.5A313 313 0 0 1 0 414.7z"/><path id="path20" stroke="#231f20" stroke-width="8" d="m245 270-505-505"/><ellipse id="ellipse20" cy="25" fill="#231f20" rx="200" ry="250"/><g id="g51" clip-path="url(#a)"><path id="path21" fill="#80d6f7" d="M190 20h-380v-245h380z"/><path id="path22" stroke="#b49700" stroke-width="5" d="m-83 25-294.2-58.5M-83 25-360.2-89.8M-83 25l-249.4-166.7M-83 25l-212.1-212.1M-83 25l-166.7-249.4M-83 25l-114.8-277.2M-83 25l-58.5-294.2M-83 25v-300m0 300 58.5-294.2M-83 25 31.8-252.2M-83 25 83.7-224.4M-83 25l212.1-212.1M-83 25l249.4-166.7M-83 25 194.2-89.8M-83 25l294.2-58.5M-150.5 25a67.5 67.5 0 0 1 135 0"/><path id="path23" fill="#fbc707" d="M-148 25a65 65 0 0 1 130 0z"/><path id="path24" fill="#fcd7a8" d="M-49 62c-3.7 13.8 2.2 30.2 7.6 42.7 8 18.4 18.4 36 27.4 53.9 16.3 33 30.4 70.9 13.8 106.3h138.4v-69.7c-41.4-21.4-98.6-26-130.6-59.8C-24.9 101-29.6 61-10.8 30.2-26.1 35.6-44.6 45.7-49 62Z"/><path id="path25" fill="#231f20" d="M95.7-33.1c26.8-2.9 22.8-57.4 70.5-57.9h23.6l.2 116H-8C-4 13.2 6.2-1.8 13.9-11.5c6.2-7.8 13.4-15.6 21.3-21.6 6-4.6 14.4-9.7 22.3-8.4 5.4.9 10.9 2.3 16.2 3.7 4.7 1.2 17.5 5.2 22 4.7z"/><path id="path26" fill="#2a723f" d="M96.3-28.2c-7.4.8-27-6.4-39.6-8.4C39.4-39.4 5.3 2.8-2 24.9l192 .1V-86h-24c-44.8.5-38.8 54.5-69.7 57.8z"/><path id="path27" fill="#231f20" d="M190 25H71.1l14.7-8.3c13.2-8.3 23-18 33.5-29.4 6.8-7.3 15.5-17.5 25.8-19.4a21 21 0 0 1 6.5-.3c5.6.7 11.3 1.8 17 3 4.8 1 9.6 2 14.5 2.7l6.9 1.2z"/><path id="path28" fill="#2a723f" d="M186.2-21.1c-9.8-1.3-24.7-5-35.2-6.3-18.4-2.2-40 42-73 52.4h112v-45.5l-3.8-.6z"/><path id="path29" fill="#cd7f4b" d="M-2 25c-17.4 27.4-26 65.4 13.2 107 31.1 33 88.1 37.4 130 59.3H190V25z"/><path id="path30" fill="#54a7aa" d="M-8 25c-126.2 40 49 148.4 3 239.9l-185 .1V25z"/><path id="path31" fill="#231f20" d="M-117.2 163.8c-20.7-42.3-20.7-83.7 23.6-108.7l15.5-8.8-8.6 15.6a31.6 31.6 0 0 0-4.5 18.8c2 20.4 28.8 41.2 43.7 53l8.3 6.6-10.4 2.2c-20.6 4.3-42.9 10.8-60.2 23.2l-4.8 3.4z"/><path id="path32" fill="#fff" d="M-112.7 161.6c-24-48.9-13.5-82.4 21.6-102.2-16 28.6 6.8 51.5 40.5 78.2-23.8 5-45.4 12-62.1 24z"/><path id="path33" fill="#231f20" d="M-58.7 162.7h-11l.1-.6v-6a2.5 2.5 0 0 0-2.5-2.6h-6a2.5 2.5 0 0 0-2.6 2.6v6l.1.6H-124v-3.8h-8.5v3.8h-9.5c-2.5 2-2.5 4.4 0 7.2a260 260 0 0 0 83.4 0c2.4-2.4 2.4-4.8 0-7.2z"/><path id="path34" stroke="#231f20" stroke-width="5" d="M195 22.5h-395"/><g id="g42" fill="#231f20"><path id="path35" fill="#fbc707" d="M-70.5-103v8h-25v-8z"/><circle id="circle35" cx="-83" cy="-123" r="9"/><circle id="circle36" cx="-83" cy="-123" r="4" fill="#fff"/><path id="path36" fill="#fff" stroke="#231f20" stroke-width="5" d="M-93-83.5h20l4 64h-28z"/><path id="path37" fill="#fff" stroke="#231f20" stroke-width="5" d="M-65.5-93.5v15h-35v-15z"/><path id="path38" d="M-50 25h-66v-92h66z"/><path id="path39" fill="#fff" d="M-103-62v8.3h8V-62h8v8.3h8V-62h8v8.3h8V-62h8v82h-56v-82z"/><path id="path40" d="M-76 2v19h-14V2c0-5 3-8 7-8s7 3 7 8zm-14-23v-14h14v14zm37-24v5h-60v-5zm0 29v5h-60v-5zm-30-107c10 0 18 6 18 15v6h-36v-6c0-9 9-15 18-15z"/><path id="path41" fill="#fff" d="M-83-118c7 0 13 5 13 10v1h-26v-1c0-5 6-10 13-10z"/><path id="path42" d="M-92-95h-5v-8h5zm11.5 0h-5v-8h5zm11.5 0h-5v-8h5z"/></g><g id="g47" fill="#231f20"><path id="path43" d="M9.4-139c17-.4 33.8 1.2 49.9 7 13.8 5 25.8 12.8 36.4 23l7.8 7.3-36.6 4.2-1.7-2c-15.9-17.8-36-20.9-57.6-27.2-3.7-1-11-2-10.2-7.7.8-5.6 8.1-4.6 12-4.7z"/><path id="path44" fill="#fff" d="M9.6-134c16.4-.4 32.5 1.1 48 6.7a99.5 99.5 0 0 1 34.7 21.9l-23.4 2.6c-17-19-38-22.3-59.9-28.7-9.1-2.6-8.7-2.4.6-2.6z"/><path id="path45" d="M121-123a12.2 12.2 0 0 1 5.7 9c2.7 4 2.8 10.4-1.5 13.3-7 4.5-14.5 5-21.7 7.3 3.6 11.5 9.7 22.6 9.3 35a64.2 64.2 0 0 1-.7 7c-2.3 17.1-10.7 32.2-13.7 48.8-.5 3.3 0 9.9-5.4 10-5.5.3-5.3-6.3-5.9-9.6-2-11.6-3-23.8-4.2-35.5-1.2-11-3.5-32.2-9.7-42a67 67 0 0 0-12.9-6h-.1l-.1-.1c-3-1.2-7-1.7-10.3-2-3.2.8-7 1.2-10.2 2L32-83.5l1.4-7.8a46.1 46.1 0 0 1 3.4-10.6c3-6.7 8.2-11.3 15.7-10.7l23-4.8h.7c4 .3 8.3-.8 12.1-2 4.2-1.5 8.3-3.5 12.3-5.4 3-1.4 7-3.5 10.4-4.1 4-.8 8.4 2.2 10 6z"/><path id="path46" fill="#fff" d="M75.8-112.5c13.6 1 29.6-10.3 36.1-11.6 2.2-.4 6.2 3.3 4.2 5.1-1.2 1.2-8.6 4-10.7 5.1-1.4.7 10.4-5.5 12-5.2 3.3.5 5.3 6 3.8 7 0 0-10.5 3-13.6 4.4-3 1.3 8.7-4.1 13.6-4.3 1.8-.1 3.8 5.4 1.3 7-7.4 4.9-17.2 5-25 8.6 3 11.9 10.7 25.5 10.3 37.8-.6 19.2-11 37.2-14.3 55.1-1.2 7 0 8.6-1.5.5-4-23.5-4.4-65-15.2-80.3A71.2 71.2 0 0 0 62-90.4c-3-1.2-7.1-2-12.6-2.5-3 .8-8.6 2-11.6 2.9 1-5.6 4.5-19 15-17.7z"/><path id="path47" d="M51.8-98.6c1.3.1 2.4-.9 2.4-2.2a2.4 2.4 0 0 0-2-2.6c-1.4-.1-2.5.9-2.6 2.2a2.4 2.4 0 0 0 2.2 2.6zm38.7 34.3 3.9-1.2 10.1 35-3.2 3.3zm4.8-6.8 3.5-1.8 10.5 22.2-2 4.7zm21.8-50.5 4 2.5-16.6 7.8-1.8-3.5zm5.8 8.5 1.8 3.7-18.1 4.3-.8-4z"/></g><g id="g50" fill="#231f20"><path id="path48" d="M69 121.6c2-7.8 4-14.2 7.7-20.8l-9.2 9.3-2.8-2.9L72 100a52 52 0 0 0-14 12.4l-.3 1.1v1.3l1.8 17.6 8.7-9.1.6-.7.3-.9zm24.2-12.4.7 23.3 3.6-8.4v-.5l-.2-.3c-1.4-5-2.5-9.7-4.1-14.1zm1 32.7c.7 22.2 1.5 44.4 2 66.6v4H73.3l2.4-71.5-3.2-7.3.2 11.5h-4l-.2-11-3.8 10.4-3.8-1.4 4.1-11-7.7 8.2-2.9-2.8 1.3-1.4-1.1-11.8-3 11.5-4-1 3-11.2-6.5 9.4-3.3-2.2 7.3-10.5-10 6.4-2.2-3.3 9.4-6.1-3.2.7-1.1 2-2.4-1.3-4.2.9-.9-4 1.2-.2-2.4-2.3 9.7-10.1-11.9 7-2-3.5 13-7.6-14.5 3.2-1-3.9 12-2.7-12.2-.4.1-4 13.7.5-13.1-4.3 1.2-3.8 13 4.2-6.8-4.6-1 .1-.2-1-3.5-2.3 2.3-3.3 3.3 2.3 8.8-1.4-12.7-1.4.4-4 14.4 1.6-13-5.6 1.6-3.7L47 70.2l-10.8-9.3 2.6-3L49.6 67l-7.7-12.3 3-1.8.7-1.9 4 1.7-.3-1.6 1.6-.5-3.2-2.4L50 45l12.5 9.2-9.2-12 3.2-2.5 10 13.2L61 37.6l3.8-1.4 4.6 13-1.2-13.7 4-.4 1.3 15.1 3-15 4 .8-3 14.9 4.4-8.6-1.4-2.8 3.5-1.8.1.3.5-.9L88 39l-1.7 3.4 4.7 9.2-3-15 4-.7 3 15 1.3-15.1 4 .4-1.2 13.7 4.6-13 3.8 1.3-5.5 15.4 10-13.1 3.2 2.4-9.2 12 12.5-9.2 2.3 3.2-2.6 2 1.4.4-.5 2 3.8-1.5.5 1.2.2-.2 3.4 2.1-7.7 12.3 10.8-9.3 2.6 3-10.8 9.4 13-5.7 1.7 3.7-13 5.6 14.4-1.6.4 4-12.7 1.4 9.8 1.6 3.6-2.5 2.3 3.3-5 3.3L130 88l13-4.3 1.3 3.8-13.2 4.3 13.7-.5.2 4-12.3.4 12 2.7-1 4-14.5-3.3 13 7.6-2 3.4-11.8-7 9.7 10.2-2.4 2.3 1.1.3-.8 3.9-4.3-.9-2.3 1.3-1.2-2-3.2-.7 9.5 6-2.2 3.5-10-6.5 7.2 10.5-3.2 2.2-6.6-9.4 3 11.2-3.9 1-3-11.4-1.2 11.8 1.3 1.4-2.9 2.7-7.7-8.1 4.1 10.9-3.7 1.4-3.9-10.3-.1 11-4-.1.1-11.5-3.5 8.2zM76 131.6l.7-21.5a96.3 96.3 0 0 0-3.6 11.9l-.4 1.3v.8zm33.7-51.8a78.5 78.5 0 0 0-11.3 5.6l12.8-2.2.6 4L101 89c5.2.2 10.3 1 15.2 2.6l.5.1.5-.1 13.5-9.2-18.5-2.9-1.4-.2zm-18.1 5.4c5.2-4 11.7-7.2 17-9.3l.6-.3.1-.6 4-15L98 66.2l-.9.4-.6.8A60.3 60.3 0 0 0 90 80.8l11-12.7 3 2.7zm20.8 27A47.8 47.8 0 0 0 96.7 99l8.4 8.7-2.9 2.8-7.5-7.8c2.9 5.8 4.3 11.7 6.2 18.6l.3 1.4 1 .7 8.7 9.1 1.7-17.6.2-1.3-.4-1.2zM87 77.6a64 64 0 0 1 6.1-12l.2-.6v-.5l-9.1-17.7-8.9 17 .2 1.1a64.4 64.4 0 0 1 7.6 15.8V62.9h4v14.6zm27.7 17.8a48.6 48.6 0 0 0-13.1-2.3l9.6 3.2-1.3 3.8-8-2.6a52.7 52.7 0 0 1 14.9 14l.1.2 8.6 1.9-9.5-17-.5-.8-.9-.4zm-.2-40.2.6-1.9-5.3 3.9zm3.4 3-1.8 6.8 5-8.1zM72 66.8l-.6-.7-.9-.5-14.9-6 4 15.4.8 1a68 68 0 0 1 18.8 10.7h.1L65 71.8l3-2.8 10.8 11.3A60.1 60.1 0 0 0 72 66.8ZM58.9 79.6l-1-.3-1.2.2-17.4 2.8L53 91.6h1.1a56.8 56.8 0 0 1 15-2.6l-10.9-2 .7-4 11.2 2zm9.5 17.8-8.2 2.8-1.2-3.8L69 93c-4.6.2-9.1 1-13.4 2.3l-.8.5-.6.8-9.5 16.8 8.6-1.8.3-.4.5-.4a57 57 0 0 1 14.3-13.4zm-24.7 9.7-7.8 8.2 3.6-.8zM51 57.6l-3.5-1.4 5.4 8.7zm3.3-3 4.5 1.9-5-3.7zm76.4 60 3.7.7-7.9-8.2z"/><path id="path49" d="m81.3 92.3-3.9 116.2h14.7c-.8-39.3-2.5-76.8-3.3-116.2-2.9-4-5.3-3-7.5 0z"/><path id="path50" fill="#a4835b" d="m81.3 92.3-.2 5.6 8 6-.2-6.4-7.3-5.5zM77.6 202l-.2 6.1.7.5h8.3zm.4-12.2-.2 6 14.3 10.8-.2-6.4zm.5-12.3-.2 6.1 13.5 10.2-.2-6.4zm.4-12.2-.2 6.1 12.7 9.6-.2-6.4zm.4-12.2-.2 6 12 9-.3-6.3zm.4-12.3-.2 6.1 11.1 8.4-.2-6.4zm.4-12.2-.2 6.1 10.3 7.8-.2-6.5zm.4-12.2-.2 6 9.5 7.2-.2-6.4zM81 104l-.2 6.1 8.7 6.5-.2-6.4z"/></g></g><use xlink:href="#b" id="use51" transform="translate(-215 -121)"/><use xlink:href="#b" id="use52" transform="translate(-232 10)"/><use xlink:href="#b" id="use53" transform="translate(-253 128)"/><use xlink:href="#b" id="use54" transform="translate(-212 222)"/><use xlink:href="#b" id="use55" transform="translate(-110 290)"/><use xlink:href="#b" id="use56" transform="translate(0 333)"/><use xlink:href="#b" id="use57" transform="translate(110 290)"/></g><!-- app4joy -->
</svg>