<svg xmlns="http://www.w3.org/2000/svg" id="svg4" width="1320" height="924" version="1.1" viewBox="0 0 1320 924"><g id="g5" stroke-width="1"><path id="path1" fill="#fff" d="M0 297h1320v330H0z"/><path id="path2" fill="#0096e1" d="M0 0h1320v297H0z"/><path id="path3" fill="#f09bbe" d="M0 627h1320v297H0z"/></g><g id="g4"><path id="path4" fill="#0096e1" stroke-width=".8" d="m329.2 528-16.3-37-12.6 6-3.3-7.5 33.8-16.4 3.3 7.5-12.6 6.2 16.3 37-8.6 4.1m26.7-12.7-17.5-45.6 18.5-7.8c4.6-2 8.1-3 10.5-3 2.5-.2 4.7.6 6.8 2 2 1.7 3.6 3.8 4.6 6.5 1.3 3.4 1.5 6.7.4 9.7-1 3-3.4 5.7-7 7.8 2.4.4 4.5 1 6.2 1.9a54 54 0 0 1 7.9 5.2l8.7 6.6-10.5 4.5-10.2-7.2a51 51 0 0 0-7.2-4.7 6.3 6.3 0 0 0-3.3-.8c-1 0-2.6.5-4.6 1.3l-1.8.8 7.3 19-8.8 3.8m-1.3-30 6.4-2.8c4.3-1.8 6.8-3.1 7.7-3.9 1-.8 1.5-1.8 1.7-3 .3-1.1.2-2.4-.4-3.8-.6-1.5-1.4-2.6-2.6-3.2a5.5 5.5 0 0 0-4-.4c-.7.2-2.9 1-6.5 2.5l-6.8 3 4.5 11.6m85.2-2.9L430 486l-7.2-9.2-17.7 6.4-.2 11.8-9.6 3.5 2.2-52.7 9.5-3.4 32.8 40M417.3 470l-11.7-15-.4 19.3 12.1-4.3m15-36.3 18-5.3a50 50 0 0 1 8-1.9 11.8 11.8 0 0 1 9 20.7c3 0 5.6.9 7.6 2.4 2 1.6 3.3 3.8 4 6.5a14.9 14.9 0 0 1-2.3 12.8c-1.4 1.6-3.2 3-5.5 4-1.5.6-5.1 1.8-10.9 3.5l-15.4 4.5-12.6-47.2m11.3 5.1 2.9 11 5.9-1.8a96 96 0 0 0 6.6-2.1 6.6 6.6 0 0 0 3.2-2.7 6 6 0 0 0 .4-4.1 5.6 5.6 0 0 0-2.1-3.3c-1-.6-2.3-.9-3.9-.6l-7.8 2.1-5.2 1.5m5 18.9 3.3 12.6 8.4-2.5c3.4-1 5.4-1.6 6.2-2a6 6 0 0 0 2.8-3 6 6 0 0 0 .2-4.4 5.7 5.7 0 0 0-5.4-4.6c-1.3 0-4 .5-8.2 1.7l-7.4 2.2m83.3.7-10 2.3-6.3-10-18.3 4.2-1.5 11.8-9.8 2.2 7.9-52 9.8-2.3 28.2 43.8m-21-15.1-10-16.4-2.5 19.2 12.5-2.8m26.4 14.2-7.4-48.1 9.4-1.5 6 39.9 23.3-4 1.2 8.2-32.5 5.5m39.3-6.5-4.8-48.8 9.4-1 1.9 19.2 18.5-2-2-19.2 9.5-1 4.7 48.8-9.4 1-2-21.3-18.5 2 2 21.3-9.3 1m89.2-6.6-10.2.4-4.6-11-18.7.8-3.4 11.4-10 .4 16.3-49.9 10-.4 20.6 48.3m-18.2-18.6-7-18-5.7 18.5 12.7-.5m59.7 19.4 3.1-49 34.6 2.4-.4 8.3L719 405l-.7 11 23.5 1.5-.5 8.3-23.5-1.6-.9 13.4 26.2 1.7-.6 8.3-35.5-2.5m112-4.5 8.6 4.6a20.8 20.8 0 0 1-8.9 10.6c-3.6 2-8 2.5-12.8 1.6a20.3 20.3 0 0 1-14-9.3 26.6 26.6 0 0 1-3-19c1.4-8.2 4.4-14 9-17.7a19.9 19.9 0 0 1 16.8-4c5.6 1.1 10 3.6 12.9 7.8a19 19 0 0 1 3.2 9.8l-9.5.6c-.2-2.6-1-4.8-2.5-6.5a9.7 9.7 0 0 0-6-3.4c-3.3-.6-6.4.2-8.9 2.4-2.6 2.1-4.3 6.1-5.3 11.9-1 6.2-.6 10.7 1 13.7 1.7 3 4.2 4.7 7.6 5.3 2.4.5 4.7 0 6.8-1.3 2-1.3 3.7-3.7 5-7.1m17.6-3a31 31 0 0 1 5-11.7 21.8 21.8 0 0 1 12.5-8.4 25 25 0 0 1 10.2.6 22 22 0 0 1 14.7 10.5c3 5.4 3.6 12 1.9 19.8a25.5 25.5 0 0 1-10.1 16.6c-5 3.4-10.9 4.2-17.6 2.6a22 22 0 0 1-14.7-10.5c-3-5.3-3.6-11.8-1.9-19.4m9.6 2c-1.3 5.4-1 9.8.8 13.3a12 12 0 0 0 8.1 6.3c3.7 1 7 .3 10-1.9 3-2.1 5-6 6.3-11.6 1.3-5.4 1-9.8-.6-13.1a11.9 11.9 0 0 0-8.3-6.3c-3.7-1-7-.4-10 1.8s-5 6-6.3 11.5m36.4 34.7 13.6-47 9 2.7 9.2 37.2 8.7-31.4 9 2.6-13.8 47.1-9.1-2.8-9.3-36.4L891 477l-8.4-2.6M928 489l16-46.2 29.8 11.3-2.1 7.9-21.6-8-3.7 11 18.7 6.8-3 7.8-18.6-6.8-6.5 19.6-9-3.4m37.3 14.4 17.5-45.7 8.2 3.6-16.8 45.7-9-3.6m56 24.7-9.8-4.4.7-11.9L995 504l-7.4 8.6-9.7-4.2 35.4-37.4 9.7 4.2-1.9 52.9m-8.3-25.1.6-19.4-12.5 14 11.9 5.4"/></g><!-- app4joy -->
</svg>