<svg xmlns="http://www.w3.org/2000/svg" id="svg3" width="1500" height="1050" version="1.1" viewBox="0 0 1500 1050"><g id="g4"><path id="rect1" fill="#FFF" d="M0 0h1500v1050H0z"/><path id="rect2" fill="#00923F" d="M490 265h520v520H490z"/></g><g id="g3"><path id="path2" fill="#F8C300" d="M713 488V383l26-26v-48h-26l37-37 37 37h-26v48l26 26v105h105l26 26h48v-26l37 37-37 37v-26h-48l-26 26H787v105l-26 26v48h26l-37 37-37-37h26v-48l-26-26V562H608l-26-26h-48v26l-37-37 37-37v26h48l26-26h105z"/><path id="path3" fill="#00923F" d="m676 525 74-74 74 74-74 74-74-74z"/></g><!-- app4joy -->
</svg>