<svg xmlns="http://www.w3.org/2000/svg" id="svg162" width="100" height="70" version="1.0" viewBox="0 0 100 70"><g id="g1" transform="scale(.17857)"><path id="rect996" fill="#1fa22e" fill-rule="evenodd" stroke-width="6.4" d="M0 0h560v392H0z"/><path id="rect1281" fill="#fd0" fill-rule="evenodd" stroke-width="12.2" d="M0 49h560v49H0z"/><path id="path158" fill="#00519e" d="M0 0h196v147H0Z"/></g><g id="g895" fill="#fff" transform="translate(0 .5) scale(.06667)"><path id="path888" d="M298.2 245.8 261.4 219l-36.9 27 14-43.6-36.8-26.9h45.6l14-43.5 14.2 43.5H321l-36.8 27z"/><path id="path886" d="m147 339.7-47-34.1-47 34.1 18-55.3-47-34.1h58l18-55.3 18 55.3h58l-47 34.1z" transform="scale(1.04547 1.04998)"/><path id="path884" d="m147 164.7-47-34.1-47 34.1 18-55.3-47-34.1h58L100 20l18 55.3h58l-47 34.1z" transform="scale(1.04547 1.04998)"/><path id="path882" d="m447 164.7-47-34.1-47 34.1 18-55.3-47-34.1h58L400 20l18 55.3h58l-47 34.1z" transform="scale(1.04547 1.04998)"/><path id="path160" d="m447 339.7-47-34.1-47 34.1 18-55.3-47-34.1h58l18-55.3 18 55.3h58l-47 34.1z" transform="scale(1.04547 1.04998)"/></g><g id="g2" fill="#fd0" fill-rule="evenodd" stroke-width="12.2" style="display:inline" transform="scale(.17857)"><path id="rect1281-6" d="M0 147h560v49H0z"/><path id="rect1281-6-1" d="M0 245h560v49H0z"/><path id="rect1281-6-1-1" d="M0 343h560v49H0z"/></g><!-- app4joy -->
</svg>