<svg xmlns="http://www.w3.org/2000/svg" xml:space="preserve" id="svg5" width="600" height="420" style="shape-rendering:geometricPrecision;text-rendering:geometricPrecision;image-rendering:optimizeQuality;fill-rule:evenodd;clip-rule:evenodd" version="1.1" viewBox="0 0 600 420"><defs id="defs1"><style id="style1">.fil2{fill:#000}</style></defs><g id="g7"><path id="path1" d="M-.2 0h600v420H-.2zm300 97.1 60 104 60 103.9h-240l60-104zM339 317.4h-14v6h9.8v2.5H325v6.7h14v2.4h-16.4v-20H339zM236.8 335v-17.6h-8.2V315h18.7v2.4h-8.1V335zm27.2-17.1-4.2 9.3h8.3zm-1.4-3h2.7l9 20h-2.7l-2.4-5.3h-10.5l-2.4 5.4h-2.7zm22 20v-20h1.6l11.7 10.3 11.6-10.2h1.7v20h-2.4v-16.2l-11 9.6-.7-.7-9.7-8.4-.4-.5V335zm65.3 0v-20h1.7l17 16.2V315h2.3v20h-1.8l-16.8-16v16zM338 134.3c-1.2.7-2.4.7-3.4.4a5 5 0 0 1-1.6-.8v.4l-2.4-.4.5-2.5-2.3-3.8c-.4-.8-.8-2.2-.5-3.6.2-1 .8-2 2-2.8l10.2-5.8a3.8 3.8 0 0 1 5.2 1.4l3.7 6.4.3.5c.3.8.4 1.6.2 2.4-.2.9-.7 1.7-1.7 2.3zm-3.5-8.3-1 5 .2.3c.3.3.8.9 1.6 1 .4.2 1 .2 1.5-.1l10.2-6c.3-.1.5-.3.6-.6 0-.4 0-.8-.3-1.2l-3.7-6.4c-.2-.4-.5-.6-.8-.7a2 2 0 0 0-1.1.1l-10.2 6c-.5.2-.8.6-.9 1-.1.8 0 1.6.3 2l.8 1.4.4-2.2zm68.1 94.2-5.8-10-5.2 3 4 7-2.1 1.1-4-6.9-5.8 3.4 5.8 10-2.1 1.2-7-12.1 17.3-10 7 12zm9.3 16-4.4-7.6-5.3 3 4.4 7.7c.2.3.5.5 1 .6h1l2.7-1.7c.4-.2.6-.5.7-.8.2-.4.1-.8-.1-1.2l2-1.2zm2-1.2a3.8 3.8 0 0 1-1.4 5.3l-2.8 1.6c-.8.5-1.9.6-2.8.3-1-.3-1.8-.9-2.4-1.7l-.3-.6-5.6 8.5-1.3-2.3 5.6-8.5-2.8-4.8-7.9 4.6-1.2-2.1 17.3-10zm6.4 17.3-9.8 1.3 3.8 6.4zm-19.4.2 1.3 2.2 5.8-.8 4.7 8.1-3.6 4.6 1.3 2.3 13.2-17.1-.6-1.1-.6-1.2zm-18.9-51-3.2-5.7a4 4 0 0 1-.5-2.8c.3-1 .8-1.9 1.7-2.4l3-1.7a3.8 3.8 0 0 1 5.2 1.5l3.7 6.3.3.6c.2.7.3 1.6.2 2.3a3 3 0 0 1-1.7 2.3l-.3.2-1.2-2.1.3-.2c.3-.1.5-.4.5-.7.1-.3 0-.8-.2-1.1l-3.7-6.4c-.2-.4-.5-.7-.9-.8-.3 0-.7 0-1 .2l-3 1.7c-.3.2-.4.4-.5.8 0 .4 0 .8.2 1.1l3.2 5.7c.5.8.8 2 .6 3a4.1 4.1 0 0 1-1.9 3.2h-.1l-2.2 1.3c-1.2.7-2.4.7-3.4.4a5.4 5.4 0 0 1-3-2.2l-2.8-4.9c-.4-.7-.9-2.2-.6-3.6.3-1 .9-2 2-2.7l.4-.2 1.2 2-.3.3a2 2 0 0 0-1 1.1c0 .8.1 1.5.4 2l2.8 4.8c.2.4.8 1 1.5 1.1.5.2 1 .2 1.6-.2l2.2-1.2c.6-.4.8-.9.9-1.4 0-.6-.1-1.2-.3-1.6l1-.6zm-16.3-43.7L356 159l3.7 6.4zm-19.3.2 1.3 2.2 5.7-.8 4.7 8.1-3.5 4.6 1.2 2.3 5.5 9.4 2.1-1.2-6-10.3 4.5-5.7 3.6 6.3 2.1-1.2-4.1-7.2 4-5.2 5.5 9.6 2.1-1.2-6-10.4-.7-1.1-.6-1.1zm2.2-5.4c-1.2.7-2.4.7-3.4.4a5.4 5.4 0 0 1-3-2.2l-2.8-4.9c-.4-.7-.8-2.2-.5-3.6.2-1 .8-2 2-2.7l13.5-7.8 1.2 2-13.5 7.9c-.5.3-.8.7-.9 1.1-.2.8 0 1.5.3 2l2.8 4.8c.2.4.8 1 1.6 1.1.4.2 1 .2 1.5-.2l13.3-7.7 1.2 2.1zM211.4 195l-5.8 10 5.3 3 4-6.9 2 1.2-4 7 5.9 3.3 5.7-10 2.1 1.2-7 12.1-17.3-10 7-12zm10.2-17.7-4.4 7.7 5.2 3 4.5-7.6c.1-.3.2-.7 0-1.1 0-.4-.2-.8-.5-.9l-2.8-1.6c-.3-.2-.7-.3-1-.2-.4.1-.8.3-1 .7l-2-1.2c.5-1 1.4-1.6 2.4-1.8 1-.2 2 0 2.8.4l2.8 1.6c.8.5 1.4 1.4 1.7 2.4.2 1 .1 2-.4 2.9l-.3.5 10.2.6-1.3 2.3-10.2-.5-2.8 4.7 8 4.6-1.3 2-17.3-10 5.6-9.7zm-24.2 42-4 6.9 5.3 3 4-6.9v-1c0-.5-.3-.9-.6-1l-2.6-1.5c-.4-.2-.8-.3-1.2-.2-.4 0-.7.3-1 .7zm7.3 4.2-4 7 5.9 3.3 4-7c.3-.5.5-1.2.3-1.8 0-.4-.4-.8-1-1.2l-2.2-1.3c-.6-.3-1.1-.4-1.6-.3-.4 0-.9.4-1.3 1.1zm8 4.6-5.3 9-17.3-10 5.2-9c.6-1 1.4-1.6 2.4-1.8a4 4 0 0 1 3 .4l2.6 1.5c.7.4 1.2 1 1.6 1.9l.7-.3a5 5 0 0 1 3.3.6l.2.2 2 1.1c1.3.8 2 1.7 2.2 2.8a5 5 0 0 1-.7 3.6zm-27.6 7.7 17.3 10-1.2 2-17.3-10zm-11.4 19.7 15.3 8.8 6-10.5 2 1.2-7.2 12.5-17.3-10zm72-84.8-15.2-8.8-3.1 5.4-2-1.2 3.6-6.4.6-1 3.1-5.5 2.1 1.2-3 5.4 15.1 8.8zm-3.4-27.7 6 7.8 3.7-6.5zm9.8 16.6 1.3-2.2-3.5-4.6 4.7-8.1 5.7.8 1.3-2.3-21.4-2.9-.6 1.1-.7 1.2zm10-35.5-3.2 5.7a4 4 0 0 1-2.3 1.7c-1 .3-2 .3-2.8-.2l-3-1.7a3.8 3.8 0 0 1-1.4-5.3l3.7-6.4.3-.5a4 4 0 0 1 2-1.3c.8-.3 1.8-.3 2.8.3l.2.1-1.2 2.1-.2-.1a1 1 0 0 0-.9-.1c-.4 0-.7.4-.9.7l-3.7 6.4c-.2.4-.3.8-.2 1.1.1.4.3.7.7.9l3 1.7c.2.2.5.2.9 0 .3 0 .7-.3.9-.6l3.2-5.7a5 5 0 0 1 2.4-2 4 4 0 0 1 3.6 0h.2l2.2 1.4a4 4 0 0 1 2 2.7c.4 1.4 0 3-.4 3.7l-2.8 4.9a6 6 0 0 1-2.9 2.3 4 4 0 0 1-3.3-.4l-.4-.2 1.2-2.1.4.2c.5.3 1 .3 1.4.2.7-.3 1.3-.8 1.5-1.2l2.8-5c.2-.3.4-1 .2-1.8a2 2 0 0 0-.9-1.2L265 123c-.6-.3-1.2-.3-1.6 0-.6.1-1 .6-1.2 1l-1.1-.6z" style="fill:#ffffff"/></g><g id="g6"><path id="path2" d="m299.8 97.1 60 104 60 103.9h-240l60-104z" style="display:inline;fill:#ed1c24"/><path id="path3" d="M338 134.2c-1.2.7-2.4.7-3.4.4a5 5 0 0 1-1.6-.8v.4l-2.4-.4.5-2.5-2.3-3.8c-.4-.8-.8-2.2-.5-3.6.2-1 .8-2 2-2.8l10.2-5.8a3.8 3.8 0 0 1 5.2 1.4l3.7 6.4.3.5c.3.8.4 1.6.2 2.4-.2.9-.7 1.7-1.7 2.3zm-3.5-8.3-1 5 .2.3c.3.3.8.9 1.6 1 .4.2 1 .2 1.5-.1l10.2-6c.3-.1.5-.3.6-.6 0-.4 0-.8-.3-1.2l-3.7-6.4c-.2-.4-.5-.6-.8-.7a2 2 0 0 0-1.1.1l-10.2 6c-.5.2-.8.6-.9 1-.1.8 0 1.6.3 2l.8 1.4.4-2.2zm68.1 94.2-5.8-10-5.2 3 4 7-2.1 1.1-4-6.9-5.8 3.4 5.8 10-2.1 1.2-7-12.1 17.3-10 7 12zm9.3 16-4.4-7.6-5.3 3 4.4 7.7c.2.3.5.5 1 .6h1l2.7-1.7c.4-.2.6-.5.7-.8.2-.4.1-.8-.1-1.2l2-1.2zm2-1.2a3.8 3.8 0 0 1-1.4 5.3l-2.8 1.6c-.8.5-1.9.6-2.8.3-1-.3-1.8-.9-2.4-1.7l-.3-.6-5.6 8.5-1.3-2.3 5.6-8.5-2.8-4.8-7.9 4.6-1.2-2.1 17.3-10zm6.4 17.3-9.8 1.3 3.8 6.4zm-19.4.2 1.3 2.2 5.8-.8 4.7 8.1-3.6 4.6 1.3 2.3 13.2-17.1-.6-1.1-.6-1.2zm-18.9-51-3.2-5.7a4 4 0 0 1-.5-2.8c.3-1 .8-1.9 1.7-2.4l3-1.7a3.8 3.8 0 0 1 5.2 1.5l3.7 6.3.3.6c.2.7.3 1.6.2 2.3a3 3 0 0 1-1.7 2.3l-.3.2-1.2-2.1.3-.2c.3-.1.5-.4.5-.7.1-.3 0-.8-.2-1.1l-3.7-6.4c-.2-.4-.5-.7-.9-.8-.3 0-.7 0-1 .2l-3 1.7c-.3.2-.4.4-.5.8 0 .4 0 .8.2 1.1l3.2 5.7c.5.8.8 2 .6 3a4.1 4.1 0 0 1-1.9 3.2h-.1l-2.2 1.3c-1.2.7-2.4.7-3.4.4a5.4 5.4 0 0 1-3-2.2l-2.8-4.9c-.4-.7-.9-2.2-.6-3.6.3-1 .9-2 2-2.7l.4-.2 1.2 2-.3.3a2 2 0 0 0-1 1.1c0 .8.1 1.5.4 2l2.8 4.8c.2.4.8 1 1.5 1.1.5.2 1 .2 1.6-.2l2.2-1.2c.6-.4.8-.9.9-1.4 0-.6-.1-1.2-.3-1.6l1-.6zm-16.3-43.7L356 159l3.7 6.4zm-19.3.2 1.3 2.2 5.7-.8 4.7 8.1-3.5 4.6 1.2 2.3 5.5 9.4 2.1-1.2-6-10.3 4.5-5.7 3.6 6.3 2.1-1.2-4.1-7.2 4-5.2 5.5 9.6 2.1-1.2-6-10.4-.7-1.1-.6-1.1zm2.2-5.4c-1.2.7-2.4.7-3.4.4a5.4 5.4 0 0 1-3-2.2l-2.8-4.9c-.4-.7-.8-2.2-.5-3.6.2-1 .8-2 2-2.7l13.5-7.8 1.2 2-13.5 7.9c-.5.3-.8.7-.9 1.1-.2.8 0 1.5.3 2l2.8 4.8c.2.4.8 1 1.6 1.1.4.2 1 .2 1.5-.2l13.3-7.7 1.2 2.1z" class="fil2" style="display:inline"/><g id="g4" style="display:inline"><path id="path4" d="m211.4 195-5.8 10 5.3 3 4-6.9 2 1.2-4 7 5.9 3.3 5.7-10 2.1 1.2-7 12.1-17.3-10 7-12zm10.2-17.7-4.4 7.7 5.3 3 4.4-7.6c.1-.4.2-.8 0-1.1 0-.4-.2-.8-.5-.9l-2.8-1.6c-.3-.2-.7-.3-1-.2-.4.1-.8.3-1 .7l-2-1.2c.5-1 1.4-1.6 2.4-1.8 1-.2 2 0 2.8.4l2.8 1.6c.8.5 1.4 1.4 1.7 2.4.2 1 .1 2-.4 2.9l-.3.5 10.2.6-1.3 2.3-10.2-.5-2.8 4.7 8 4.6-1.3 2-17.3-10 5.6-9.7zm-24.2 42-4 6.9 5.3 3 4-6.9v-1c0-.5-.3-.9-.6-1l-2.6-1.5c-.4-.2-.8-.3-1.2-.2-.4 0-.7.3-1 .7zm7.3 4.2-4 7 5.9 3.3 4-7c.3-.5.5-1.2.3-1.8 0-.4-.4-.8-1-1.2l-2.2-1.3c-.6-.3-1.1-.4-1.6-.3-.4 0-.9.4-1.3 1.1zm8 4.6-5.3 9-17.3-10 5.2-9c.6-1 1.4-1.6 2.4-1.8a4 4 0 0 1 3 .4l2.6 1.5c.7.4 1.2 1 1.6 1.9l.7-.3a5 5 0 0 1 3.3.6l.2.2 2 1.1c1.3.8 2 1.7 2.2 2.8a5 5 0 0 1-.7 3.6zm-27.6 7.7 17.3 10-1.2 2-17.3-10zm-11.4 19.7 15.3 8.8 6-10.5 2 1.2-7.2 12.5-17.3-10zm72-84.8-15.2-8.8-3.1 5.4-2-1.2 3.6-6.4.6-1 3.1-5.5 2.1 1.2-3 5.4 15.1 8.8zm-3.4-27.7 6 7.7 3.7-6.4zm9.8 16.6 1.3-2.2-3.5-4.6 4.7-8.1 5.7.8 1.3-2.3-21.4-2.9-.6 1.1-.7 1.2zm10-35.5-3.2 5.7a4 4 0 0 1-2.3 1.7c-1 .3-2 .3-2.8-.2l-3-1.7a3.8 3.8 0 0 1-1.4-5.3l3.7-6.4.3-.5a4 4 0 0 1 2-1.3c.8-.3 1.8-.3 2.8.3l.2.1-1.2 2.1-.2-.1a1 1 0 0 0-.9-.1c-.4 0-.7.4-.9.7l-3.7 6.4c-.2.4-.3.8-.2 1.1.1.4.3.7.7.9l3 1.7c.2.2.5.2.9 0 .3 0 .7-.3.9-.6l3.2-5.7a5 5 0 0 1 2.4-2 4 4 0 0 1 3.6 0h.2l2.2 1.4a4 4 0 0 1 2 2.7c.4 1.4 0 3-.4 3.7l-2.8 4.9a6 6 0 0 1-2.9 2.3 4 4 0 0 1-3.3-.4l-.4-.2 1.2-2.1.4.2c.5.3 1 .3 1.4.2.7-.3 1.3-.8 1.5-1.2l2.8-5c.2-.3.4-1 .2-1.8a2 2 0 0 0-.9-1.2L265 123c-.6-.4-1.2-.3-1.6 0-.6.1-1 .5-1.2 1l-1.1-.6z" class="fil2"/></g><g id="g5" style="display:inline"><path id="path5" d="M339 317.4h-14v6h9.8v2.5H325v6.7h14v2.4h-16.4v-20H339zM236.8 335v-17.6h-8.2V315h18.7v2.4h-8.1V335zm27.2-17.1-4.2 9.3h8.4zm-1.4-3h2.7l9 20h-2.6l-2.5-5.3h-10.5l-2.4 5.4h-2.7zm22 20v-20h1.6l11.7 10.3 11.6-10.2h1.7v20h-2.4v-16.2l-11 9.6-.7-.7-9.7-8.4-.4-.5V335zm65.3 0v-20h1.7l17 16.2V315h2.3v20h-1.7l-16.9-16v16z" class="fil2"/></g></g><!-- app4joy -->
</svg>