<svg xmlns="http://www.w3.org/2000/svg" id="svg1" width="540" height="360" version="1.1" viewBox="0 0 540 360"><g id="g6"><path id="faixa_azul" fill="#3155A4" d="M0 0h540v216H0z"/></g><g id="g1" stroke-width="12"><path id="arco_vermelho" stroke="#c34342" d="M69 270a201 201-157.5 0 1 402 0" style="display:inline;fill:none"/><path id="arco_amarelo" stroke="#ffb511" d="M81 270a189 189-157.5 0 1 378 0" style="display:inline;fill:none"/><path id="arco_verde" stroke="#00ad4a" d="M93 270a177 177-157.5 0 1 354 0" style="display:inline;fill:none"/></g><g id="g5"><path id="faixa_branca" fill="#fff" d="M0 216h540v144H0Z" style="display:inline"/></g><g id="g2"><path id="cruz" fill="none" stroke="#c34342" stroke-width="12" d="M270 243v90m-27-58.5h54" style="display:inline"/></g><g id="g3"><path id="sol" fill="#ffb511" d="m270 126 3 9.2 5.2-8.1.4 9.6 7.1-6.5-2 9.4 8.6-4.4-4.4 8.6 9.4-2-6.5 7 9.6.5-8 5.3 9.1 2.9-9.2 3 8.1 5.2-9.6.4 6.5 7.1-9.4-2 4.4 8.6-8.6-4.4 2 9.4-7-6.5-.5 9.6-5.3-8-2.9 9.1-3-9.2-5.2 8.1-.4-9.6-7.1 6.5 2-9.4-8.6 4.4 4.4-8.6-9.4 2 6.5-7-9.6-.5 8-5.3-9.1-2.9 9.2-3-8.1-5.2 9.6-.4-6.5-7.1 9.4 2-4.4-8.6 8.6 4.4-2-9.4 7 6.5.5-9.6 5.3 8z" style="display:inline"/></g><g id="g4"><path id="strela" fill="#FFB511" d="m270 18 8.8 27-23-16.7h28.4l-23 16.7z"/></g><!-- app4joy -->
</svg>