<svg xmlns="http://www.w3.org/2000/svg" xmlns:xlink="http://www.w3.org/1999/xlink" id="svg13" width="1950" height="1300" version="1.1" viewBox="0 0 1950 1300"><defs id="defs5"><rect id="stripe" width="100%" height="100" fill="#56A134"/><g id="star" transform="scale(200)"><g id="cone"><path id="triangle" fill="#fff" d="M0 0v1h.5z" transform="rotate(18 3.2 -.5)"/><use xlink:href="#triangle" id="use1" transform="scale(-1 1)"/></g><use xlink:href="#cone" id="use2" transform="rotate(72)"/><use xlink:href="#cone" id="use3" transform="rotate(-72)"/><use xlink:href="#cone" id="use4" transform="rotate(144)"/><use xlink:href="#cone" id="use5" transform="rotate(-144)"/></g></defs><g id="g3"><rect id="rect5" width="100%" height="1300" fill="#FFD500"/><use xlink:href="#stripe" id="use6"/><use xlink:href="#stripe" id="use7" y="200"/><use xlink:href="#stripe" id="use8" y="400"/><use xlink:href="#stripe" id="use9" y="600"/><use xlink:href="#stripe" id="use10" y="800"/><use xlink:href="#stripe" id="use11" y="1000"/><use xlink:href="#stripe" id="use12" y="1200"/><path id="rect12" fill="#0B1097" d="M0 0h750v500H0z"/></g><g id="g1"><path id="text12" d="M68.9 470h-5.3v-33.6q-1.9 1.8-5 3.6-3 1.8-5.5 2.8v-5.1q4.4-2.1 7.7-5 3.3-3 4.7-5.8h3.4zm13.5-11.3 5.3-.7q1 4.4 3 6.4 2.3 2 5.4 2 3.7 0 6.3-2.6 2.6-2.6 2.6-6.4 0-3.6-2.4-6-2.4-2.3-6-2.3-1.5 0-3.8.6l.6-4.7.9.1q3.3 0 6-1.8 2.7-1.7 2.7-5.4 0-2.9-2-4.8-1.9-1.9-5-1.9-3 0-5.1 2-2 1.9-2.7 5.7L83 438q1-5.3 4.3-8.2 3.5-3 8.6-3 3.5 0 6.4 1.6 3 1.5 4.6 4.1 1.5 2.6 1.5 5.5 0 2.8-1.5 5.1-1.4 2.3-4.4 3.6 3.8 1 6 3.7 2 2.8 2 7 0 5.5-4 9.5-4.2 3.9-10.4 3.9-5.7 0-9.4-3.4t-4.3-8.7zm52.2 11.3v-43h14.8q5 0 7.6.7 3.7.8 6.3 3 3.4 3 5 7.4 1.8 4.4 1.8 10.2 0 4.9-1.2 8.7-1.1 3.7-2.9 6.2-1.8 2.5-4 4-2 1.3-5 2-3 .8-7 .8Zm5.7-5h9.1q4.3 0 6.7-.9 2.4-.8 3.8-2.2 2-2 3.2-5.4 1.1-3.4 1.1-8.3 0-6.7-2.2-10.3-2.2-3.7-5.4-4.9-2.2-.9-7.3-.9h-9zm37.7 5v-43h31v5.1h-25.3v13.2h23.8v5h-23.8V465h26.4v5.1Zm56.4 0v-43h8.6l10.1 30.5 2 6.3 2.4-6.9 10.3-29.8h7.6V470H270v-36l-12.5 36h-5L240 433.4V470Zm45.5 0 16.5-43h6l17.7 43h-6.5l-5-13h-18l-4.7 13Zm12.4-17.6h14.5l-4.5-12q-2-5.4-3-8.8-.8 4-2.3 8.2zm32.4 17.6v-43h19q5.8 0 8.8 1.2 3 1.2 4.7 4 1.8 3 1.8 6.6 0 4.5-3 7.7-2.9 3.1-9 4 2.2 1 3.3 2.1 2.5 2.3 4.8 5.7l7.4 11.7h-7.1l-5.7-9q-2.5-3.8-4.1-5.9-1.6-2-2.9-2.8-1.3-.8-2.6-1.2-1-.2-3.1-.2h-6.6V470Zm5.7-24h12.2q3.9 0 6-.8 2.3-.8 3.4-2.6 1.2-1.8 1.2-3.8 0-3-2.3-5-2.2-2-7-2h-13.5zm68.2 9 5.7 1.4q-1.8 7-6.5 10.7-4.6 3.6-11.3 3.6-7 0-11.3-2.8-4.4-2.8-6.7-8.2-2.2-5.3-2.2-11.5 0-6.7 2.5-11.7 2.6-5 7.3-7.6 4.8-2.6 10.5-2.6 6.4 0 10.8 3.3t6.1 9.2l-5.6 1.3q-1.5-4.6-4.3-6.8-2.9-2.1-7.2-2.1-5 0-8.3 2.4-3.3 2.3-4.6 6.3-1.4 4-1.4 8.3 0 5.5 1.6 9.6 1.6 4 5 6t7.3 2q4.8 0 8-2.7 3.4-2.7 4.6-8.2zm-17.1 19.5 1.5-5.2h4l-1 3.2q2.4.3 3.7 1.5 1.3 1.2 1.3 2.8 0 2.2-2.2 3.8-2 1.7-6.3 1.7-2.4 0-4.2-.3l.3-3.4h2.7q2.8 0 4-.7.8-.6.8-1.4 0-.6-.4-1-.3-.4-1.2-.7-1-.3-3-.3zm28-25.4q0-10.7 5.8-16.7 5.7-6.1 14.8-6.1 6 0 10.7 2.8 4.8 2.9 7.3 8 2.5 5 2.5 11.5t-2.6 11.7q-2.7 5.1-7.5 7.8-4.8 2.6-10.4 2.6-6.1 0-10.9-2.9-4.8-3-7.2-8-2.5-5-2.5-10.7zm5.9 0q0 7.8 4.1 12.3 4.2 4.5 10.5 4.5 6.5 0 10.6-4.5 4.1-4.6 4.1-12.8 0-5.3-1.7-9.2-1.8-4-5.2-6-3.4-2.2-7.7-2.2-6 0-10.4 4.1-4.3 4.2-4.3 13.9zm59.2 20.9v-43h14.8q5 0 7.6.7 3.7.8 6.3 3 3.4 3 5.1 7.4 1.7 4.4 1.7 10.2 0 4.9-1.1 8.7-1.2 3.7-3 6.2t-3.9 4q-2.1 1.3-5.1 2-3 .8-7 .8Zm5.7-5h9.1q4.3 0 6.7-.9 2.4-.8 3.9-2.2 2-2 3.1-5.4 1.1-3.4 1.1-8.3 0-6.7-2.2-10.3-2.2-3.7-5.3-4.9-2.3-.9-7.4-.9h-9zm37.7 5v-43h31.1v5.1h-25.4v13.2h23.8v5h-23.8V465h26.4v5.1Zm74.3 0h-5.2v-33.6q-2 1.8-5 3.6-3.1 1.8-5.6 2.8v-5.1q4.4-2.1 7.8-5 3.3-3 4.6-5.8h3.4zm21.7-23.3q-3.3-1.2-4.9-3.4-1.6-2.2-1.6-5.4 0-4.6 3.4-7.8t9-3.2q5.6 0 9 3.3 3.4 3.2 3.4 7.9 0 3-1.6 5.2-1.5 2.2-4.7 3.4 4 1.3 6 4.2 2 2.8 2 6.8 0 5.5-3.8 9.3-4 3.7-10.3 3.7-6.3 0-10.2-3.7-4-3.8-4-9.4 0-4.2 2.2-7 2.1-2.9 6-3.9zm-1-9q0 3.1 1.9 5 2 2 5 2 3.1 0 5-2 2-1.9 2-4.6 0-3-2-4.9-2-2-5-2t-5 2q-2 1.9-2 4.6zm-1.8 20q0 2.2 1 4.3 1.1 2 3.3 3.3 2 1.1 4.5 1.1 3.8 0 6.2-2.4 2.5-2.5 2.5-6.2 0-3.8-2.6-6.3-2.5-2.5-6.3-2.5-3.7 0-6.2 2.5-2.4 2.4-2.4 6.1zm55.7 7.2v5.1h-28.4q0-1.9.7-3.7 1-2.9 3.4-5.7 2.4-2.8 7-6.5 7-5.7 9.4-9 2.5-3.4 2.5-6.4 0-3.2-2.3-5.3-2.2-2.2-5.8-2.2-3.8 0-6.1 2.3T645 440l-5.5-.6q.6-6 4.2-9.2 3.7-3.2 9.8-3.2 6.2 0 9.8 3.4 3.6 3.4 3.6 8.5 0 2.6-1 5-1.1 2.6-3.6 5.3-2.4 2.8-8.1 7.6-4.8 4-6.1 5.4-1.4 1.4-2.2 2.8zm5.7-6.2 5.3-.7q.9 4.4 3 6.4 2.3 2 5.4 2 3.7 0 6.3-2.6 2.5-2.6 2.5-6.4 0-3.6-2.3-6-2.4-2.3-6-2.3-1.6 0-3.8.6l.6-4.7.8.1q3.4 0 6.1-1.8 2.7-1.7 2.7-5.4 0-2.9-2-4.8t-5-1.9q-3.1 0-5.2 2-2 1.9-2.6 5.7l-5.3-.9q1-5.3 4.4-8.2 3.5-3 8.6-3 3.5 0 6.4 1.6 3 1.5 4.5 4.1 1.6 2.6 1.6 5.5 0 2.8-1.5 5.1t-4.4 3.6q3.8 1 6 3.7 2 2.8 2 7 0 5.5-4 9.5-4.2 3.9-10.4 3.9-5.7 0-9.4-3.4-3.8-3.4-4.3-8.7z" aria-label="13 DE MARÇO DE 1823" style="font-size:60px;font-family:Arial;text-anchor:middle;fill:#ffffff"/></g><g id="g2"><use xlink:href="#star" id="use13" x="375" y="225"/></g><!-- app4joy -->
</svg>