<svg xmlns="http://www.w3.org/2000/svg" xml:space="preserve" id="svg2" width="900" height="600" version="1.0" viewBox="0 0 900 600"><g id="g6874" style="display:inline" transform="scale(3.56828 3.56829)"><path id="_25731120" d="M.1 0h252.1v84.1H.1z" style="display:inline;fill:#009b3a;fill-opacity:1" transform="scale(1.00062)"/><path id="_25730248" d="M252.2 168.1H.1v-84h252.1z" style="display:inline;fill:#ffffff" transform="scale(1.00062 1.00063)"/><path id="path1342" d="M173.8 35.8v72.4c0 10.8-10 19.6-22.2 19.6h-20a8.3 8.3 0 0 0-5.3 5.7c-.4-2.2-2-4.4-5.4-5.7h-20.3c-12.1 0-22-8.8-22-19.6V35.8Z" style="display:inline;fill:#fedf00;fill-opacity:1;stroke:none" transform="translate(0 -.6)"/></g><g id="g14" style="display:inline" transform="matrix(.15713 0 0 -.1555 243.4 504.8)"><path id="path18" d="M711 1810.6c20.6 0 37.3-22.7 37.3-50.8 0-28-16.7-50.7-37.3-50.7-20.6 0-37.3 22.7-37.3 50.7 0 28 16.7 50.8 37.3 50.8" style="fill:#231f20;fill-opacity:1;fill-rule:evenodd;stroke:none"/><path id="path20" d="M711 1810.6c20.6 0 37.3-22.7 37.3-50.8 0-28-16.7-50.7-37.3-50.7-20.6 0-37.3 22.7-37.3 50.7 0 28 16.7 50.8 37.3 50.8z" style="fill:none;stroke:#231f20;stroke-width:8.33383;stroke-linecap:butt;stroke-linejoin:miter;stroke-miterlimit:22.9256;stroke-dasharray:none;stroke-opacity:1"/><path id="path22" d="M666.6 1700.6c20.6 0 37.3-22.7 37.3-50.8 0-28-16.7-50.7-37.3-50.7-20.6 0-37.3 22.7-37.3 50.7 0 28 16.7 50.8 37.3 50.8" style="fill:#d2cb54;fill-opacity:1;fill-rule:evenodd;stroke:none"/><path id="path24" d="M666.6 1700.6c20.6 0 37.3-22.7 37.3-50.8 0-28-16.7-50.7-37.3-50.7-20.6 0-37.3 22.7-37.3 50.7 0 28 16.7 50.8 37.3 50.8z" style="fill:none;stroke:#231f20;stroke-width:8.33383;stroke-linecap:butt;stroke-linejoin:miter;stroke-miterlimit:22.9256;stroke-dasharray:none;stroke-opacity:1"/><path id="path26" d="M1535.6 728.4c45.1-3.5 74 6.9 119.9 66 37.4 48.3 48.3 98.7 104.7 130.8 58.1 33 129.4 36 185 25.4 82.4-15.7 148.5-84.6 142.7-171.7-6.6-100.5-128.6-162-242-111 27.7 3 62 35.8 97 71 74.7-14.3 148.4 114.2 50 174.4-59 26.5-112.3 32.3-156.7 4-28.9-18.4-34.7-38.8-50.7-67-48.4-84.8-101.9-153-219.2-154 9.6 16 1 26.1-17.9 29.7-9.8.7-3 1.7-12.8 2.4" style="fill:#fff200;fill-opacity:1;fill-rule:evenodd;stroke:none"/><path id="path28" d="M1535.6 728.4c45.1-3.5 74 6.9 119.9 66 37.4 48.3 48.3 98.7 104.7 130.8 58.1 33 129.4 36 185 25.4 82.4-15.7 148.5-84.6 142.7-171.7-6.6-100.5-128.6-162-242-111 27.7 3 62 35.8 97 71 74.7-14.3 148.4 114.2 50 174.4-59 26.5-112.3 32.3-156.7 4-28.9-18.4-34.7-38.8-50.7-67-48.4-84.8-101.9-153-219.2-154 9.6 16 1 26.1-17.9 29.7-9.8.7-3 1.7-12.8 2.4z" style="fill:none;stroke:#231f20;stroke-width:8.33383;stroke-linecap:round;stroke-linejoin:round;stroke-miterlimit:22.9256;stroke-dasharray:none;stroke-opacity:1"/><path id="path30" d="M1884.2 685.6c49.6-7.5 96.4-7 133 25.2 66.7 59.1 67.2 159.3-12.4 208.4-32.4 20-75.8 28.7-128.4 28.5a351.8 351.8 0 0 1-81.3-11.9c-35.5-9.5-61-28.5-82-59.3-18.2-26.9-30.8-57-55.3-84.1-51.6-57-70.6-66.6-109-64.9 9.8-.6-3.3.1 6.5-.6 11.6-4.5 16.7-13.3 14.7-24.1 148.2 3.3 153.8 211.8 293.2 227.3 38.5 12.4 82.3 4.6 129.8-16.8 98.3-60.2 24.6-188.7-50.2-174.5a515.8 515.8 0 0 0-58.6-53.2" style="fill:#00a650;fill-opacity:1;fill-rule:evenodd;stroke:none"/><path id="path32" d="m1856 1543.5 4.6-1.8c-3-230.7-.6-469.6-3.6-700.3 1 29.8 123.2 132.8 123.7 99.2 10.3 4.5-24 604.8-30 604.8l-94.6-1.9" style="fill:#e39125;fill-opacity:1;fill-rule:evenodd;stroke:none"/><path id="path34" d="m1856 1543.5 4.6-1.8c-3-230.7-.6-469.6-3.6-700.3 1 29.8 123.2 132.8 123.7 99.2 10.3 4.5-24 604.8-30 604.8l-94.6-1.9z" style="fill:none;stroke:#231f20;stroke-width:16.6677;stroke-linecap:butt;stroke-linejoin:miter;stroke-miterlimit:22.9256;stroke-dasharray:none;stroke-opacity:1"/><path id="path36" d="M1853.7 902.7c7.6 56.8 17.3 51.7 29 7.7-2.4 18.6-6 32.7-10.6 43.5-7.3 17-8.3 7.9-13-9.1-5-18.2-10-41.6-5.4-42.1" style="fill:#231f20;fill-opacity:1;fill-rule:evenodd;stroke:none"/><path id="path38" d="M1903.4 934.3c10.8 56.7 24.5 51.7 41.2 7.7a129.8 129.8 0 0 1-15.2 43.5c-10.3 17-11.8 7.8-18.4-9.2-7-18.1-14.3-41.5-7.6-42" style="fill:#231f20;fill-opacity:1;fill-rule:evenodd;stroke:none"/><path id="path40" d="M1872.5 959.7c10.8 56.7 24.5 51.7 41.2 7.7a129.9 129.9 0 0 1-15.2 43.5c-10.3 17-11.8 7.9-18.4-9.2-7-18.1-14.3-41.5-7.6-42" style="fill:#231f20;fill-opacity:1;fill-rule:evenodd;stroke:none"/><path id="path42" d="M1932 969c10.8 56.7 24.6 51.7 41.2 7.6a130.3 130.3 0 0 1-15 43.5c-10.4 17-12 7.9-18.5-9.1-7-18.2-14.3-41.5-7.6-42" style="fill:#231f20;fill-opacity:1;fill-rule:evenodd;stroke:none"/><path id="path44" d="M1903.4 1016.7c10.8 56.7 24.5 51.7 41.2 7.7a129.8 129.8 0 0 1-15.2 43.5c-10.3 17-11.8 7.8-18.4-9.2-7-18.1-14.3-41.5-7.6-42" style="fill:#231f20;fill-opacity:1;fill-rule:evenodd;stroke:none"/><path id="path46" d="M1872.5 1042c10.8 56.8 24.5 51.8 41.2 7.8a129.9 129.9 0 0 1-15.2 43.5c-10.3 17-11.8 7.9-18.4-9.2-7-18.1-14.3-41.5-7.6-42" style="fill:#231f20;fill-opacity:1;fill-rule:evenodd;stroke:none"/><path id="path48" d="M1932 1051.3c10.8 56.8 24.6 51.8 41.2 7.7a130.4 130.4 0 0 1-15 43.5c-10.4 17-12 7.9-18.5-9.1-7-18.2-14.3-41.5-7.6-42" style="fill:#231f20;fill-opacity:1;fill-rule:evenodd;stroke:none"/><path id="path50" d="M1903.4 1099c10.8 56.8 24.5 51.8 41.2 7.8a129.8 129.8 0 0 1-15.2 43.5c-10.3 17-11.8 7.8-18.4-9.2-7-18.1-14.3-41.5-7.6-42" style="fill:#231f20;fill-opacity:1;fill-rule:evenodd;stroke:none"/><path id="path52" d="M1872.5 1124.5c10.8 56.7 24.5 51.7 41.2 7.7a130 130 0 0 1-15.2 43.5c-10.3 17-11.8 7.9-18.4-9.2-7-18.1-14.3-41.5-7.6-42" style="fill:#231f20;fill-opacity:1;fill-rule:evenodd;stroke:none"/><path id="path54" d="M1932 1133.7c10.8 56.8 24.6 51.8 41.2 7.7a130.2 130.2 0 0 1-15 43.5c-10.4 17-12 7.9-18.5-9.1-7-18.2-14.3-41.5-7.6-42" style="fill:#231f20;fill-opacity:1;fill-rule:evenodd;stroke:none"/><path id="path56" d="M1900.3 1173.8c9.8 52 22.2 47.4 37.4 7a120 120 0 0 1-13.8 39.9c-9.4 15.6-10.7 7.2-16.7-8.4-6.4-16.6-13-38-7-38.5" style="fill:#231f20;fill-opacity:1;fill-rule:evenodd;stroke:none"/><path id="path58" d="M1872.2 1197c9.8 52 22.3 47.5 37.4 7.1-3.2 17-7.8 30-13.7 39.9-9.4 15.6-10.8 7.2-16.7-8.4-6.4-16.6-13-38-7-38.6" style="fill:#231f20;fill-opacity:1;fill-rule:evenodd;stroke:none"/><path id="path60" d="M1926.3 1205.5c9.8 52 22.2 47.5 37.4 7a120 120 0 0 1-13.8 40c-9.4 15.5-10.7 7.2-16.7-8.4-6.3-16.7-13-38-6.9-38.6" style="fill:#231f20;fill-opacity:1;fill-rule:evenodd;stroke:none"/><path id="path62" d="M1899.3 1233.8c9.5 53.9 21.6 49.1 36.2 7.3-3 17.6-7.5 31-13.3 41.3-9 16.2-10.4 7.5-16.2-8.7-6.1-17.2-12.5-39.4-6.7-39.9" style="fill:#231f20;fill-opacity:1;fill-rule:evenodd;stroke:none"/><path id="path64" d="M1872.2 1258c9.5 53.8 21.5 49 36.2 7.3a130 130 0 0 1-13.3 41.2c-9.1 16.2-10.5 7.5-16.2-8.6-6.2-17.3-12.6-39.4-6.7-40" style="fill:#231f20;fill-opacity:1;fill-rule:evenodd;stroke:none"/><path id="path66" d="M1924.5 1266.7c9.5 53.9 21.6 49.1 36.2 7.3-3 17.6-7.5 31-13.3 41.3-9 16.2-10.4 7.5-16.2-8.7-6.1-17.2-12.5-39.4-6.7-39.9" style="fill:#231f20;fill-opacity:1;fill-rule:evenodd;stroke:none"/><path id="path68" d="M1897.4 1293.1c8.9 52.5 20.2 47.9 33.9 7.1-3 17.2-7 30.3-12.5 40.3-8.5 15.7-9.7 7.3-15.1-8.5-5.8-16.8-11.8-38.4-6.3-38.9" style="fill:#231f20;fill-opacity:1;fill-rule:evenodd;stroke:none"/><path id="path70" d="M1872 1316.6c8.9 52.5 20.2 47.9 33.9 7.1-3 17.2-7 30.3-12.5 40.3-8.5 15.7-9.7 7.3-15.1-8.5-5.8-16.8-11.8-38.4-6.3-38.9" style="fill:#231f20;fill-opacity:1;fill-rule:evenodd;stroke:none"/><path id="path72" d="M1921 1325.2c8.9 52.5 20.1 47.8 33.9 7-3 17.3-7.1 30.3-12.5 40.3-8.5 15.7-9.7 7.3-15.1-8.4-5.8-16.8-11.8-38.4-6.3-39" style="fill:#231f20;fill-opacity:1;fill-rule:evenodd;stroke:none"/><path id="path74" d="M1905 1369.4c8.1 43.2 18.3 39.4 30.7 5.8a101 101 0 0 1-11.2 33.2c-7.7 13-8.8 6-13.7-7-5.3-13.8-10.7-31.6-5.7-32" style="fill:#231f20;fill-opacity:1;fill-rule:evenodd;stroke:none"/><path id="path76" d="M1882.1 1388.7c8 43.3 18.2 39.5 30.7 5.9a101 101 0 0 1-11.3 33.2c-7.7 13-8.8 6-13.7-7-5.2-13.8-10.7-31.6-5.7-32" style="fill:#231f20;fill-opacity:1;fill-rule:evenodd;stroke:none"/><path id="path78" d="M1926.4 1395.8c8 43.3 18.3 39.4 30.7 5.9a101 101 0 0 1-11.3 33.1c-7.7 13-8.8 6-13.7-7-5.2-13.8-10.6-31.6-5.7-32" style="fill:#231f20;fill-opacity:1;fill-rule:evenodd;stroke:none"/><path id="path80" d="M1853.1 998.2c8.2 46.4 18.5 42.3 31.1 6.3a112.2 112.2 0 0 1-11.4 35.6c-7.8 13.9-9 6.4-13.9-7.5-5.3-14.9-10.8-34-5.8-34.4" style="fill:#231f20;fill-opacity:1;fill-rule:evenodd;stroke:none"/><path id="path82" d="M1853.1 1080.6c8.2 46.4 18.5 42.3 31.1 6.3a112.2 112.2 0 0 1-11.4 35.6c-7.8 13.9-9 6.4-13.9-7.5-5.3-14.9-10.8-34-5.8-34.4" style="fill:#231f20;fill-opacity:1;fill-rule:evenodd;stroke:none"/><path id="path84" d="M1853.1 1154.5c8.2 46.5 18.5 42.4 31.1 6.3a112.1 112.1 0 0 1-11.4 35.6c-7.8 14-9 6.4-13.9-7.5-5.3-14.9-10.8-34-5.8-34.4" style="fill:#231f20;fill-opacity:1;fill-rule:evenodd;stroke:none"/><path id="path86" d="M1857.3 1223.8c7 46.4 16 42.3 27 6.3a124.8 124.8 0 0 1-10 35.6c-6.7 14-7.7 6.4-12-7.5-4.6-14.8-9.4-34-5-34.4" style="fill:#231f20;fill-opacity:1;fill-rule:evenodd;stroke:none"/><path id="path88" d="M1859.4 1284.6c6.5 46.5 14.8 42.4 24.8 6.4a132.7 132.7 0 0 1-9.1 35.5c-6.3 14-7.2 6.5-11.1-7.4-4.3-14.9-8.7-34-4.6-34.5" style="fill:#231f20;fill-opacity:1;fill-rule:evenodd;stroke:none"/><path id="path90" d="M1862.8 1347c5.6 46.5 12.8 42.4 21.4 6.3a149.8 149.8 0 0 1-7.8 35.6c-5.4 14-6.2 6.5-9.6-7.5-3.7-14.8-7.5-34-4-34.4" style="fill:#231f20;fill-opacity:1;fill-rule:evenodd;stroke:none"/><path id="path92" d="M1959.7 995.9c7.6 56.7 17.2 51.7 29 7.7-2.5 18.5-6 32.7-10.7 43.5-7.3 17-8.3 7.9-13-9.2-5-18.1-10-41.5-5.3-42" style="fill:#231f20;fill-opacity:1;fill-rule:evenodd;stroke:none"/><path id="path94" d="M1955.2 1077.5c7.6 56.8 17.3 51.8 29 7.7-2.4 18.6-6 32.7-10.6 43.5-7.3 17-8.3 7.9-13-9.1-5-18.2-10-41.5-5.4-42.1" style="fill:#231f20;fill-opacity:1;fill-rule:evenodd;stroke:none"/><path id="path96" d="M1959.6 1169.9c4.1 56.8 9.4 51.8 15.9 7.7a286.4 286.4 0 0 1-5.9 43.5c-4 17-4.6 7.9-7.1-9.1-2.7-18.2-5.5-41.5-3-42.1" style="fill:#231f20;fill-opacity:1;fill-rule:evenodd;stroke:none"/><path id="path98" d="M1955.1 1230.7c4.2 56.8 9.5 51.8 16 7.7a287.5 287.5 0 0 1-6 43.5c-4 17-4.5 8-7-9.1-2.7-18.2-5.5-41.5-3-42" style="fill:#231f20;fill-opacity:1;fill-rule:evenodd;stroke:none"/><path id="path100" d="M1955.1 1295.4c4.2 56.8 9.5 51.8 16 7.7a287.5 287.5 0 0 1-6 43.5c-4 17-4.5 8-7-9.1-2.7-18.2-5.5-41.5-3-42" style="fill:#231f20;fill-opacity:1;fill-rule:evenodd;stroke:none"/><path id="path102" d="M1950.7 1348.6c4.2 56.7 9.5 51.7 16 7.7a288.8 288.8 0 0 1-6 43.5c-4 17-4.5 7.8-7-9.2-2.7-18.1-5.5-41.5-3-42" style="fill:#231f20;fill-opacity:1;fill-rule:evenodd;stroke:none"/><path id="path104" d="M1902.6 1415.6c7.5 44.4 17 40.5 28.7 6a110 110 0 0 1-10.5 34c-7.3 13.4-8.3 6.2-12.9-7.1-4.9-14.2-10-32.5-5.3-33" style="fill:#231f20;fill-opacity:1;fill-rule:evenodd;stroke:none"/><path id="path106" d="M1902.6 1468c7.5 44.4 17 40.4 28.7 6a110 110 0 0 1-10.5 34c-7.3 13.3-8.3 6.2-12.9-7.1-4.9-14.3-10-32.5-5.3-33" style="fill:#231f20;fill-opacity:1;fill-rule:evenodd;stroke:none"/><path id="path108" d="M1873.2 1434c7.5 44.5 17 40.5 28.7 6-2.5 14.6-6 25.7-10.6 34.1-7.2 13.3-8.2 6.2-12.8-7.1-5-14.3-10-32.5-5.3-33" style="fill:#231f20;fill-opacity:1;fill-rule:evenodd;stroke:none"/><path id="path110" d="M1925.4 1434c7.5 44.5 17 40.5 28.7 6-2.4 14.6-6 25.7-10.5 34.1-7.3 13.3-8.3 6.2-12.9-7.1-4.9-14.3-10-32.5-5.3-33" style="fill:#231f20;fill-opacity:1;fill-rule:evenodd;stroke:none"/><path id="path112" d="M764.1 1692.6c20.6 0 37.3-22.7 37.3-50.7 0-28-16.7-50.8-37.3-50.8-20.6 0-37.3 22.8-37.3 50.8 0 28 16.7 50.7 37.3 50.7" style="fill:#d2cb54;fill-opacity:1;fill-rule:evenodd;stroke:none"/><path id="path114" d="M764.1 1692.6c20.6 0 37.3-22.7 37.3-50.7 0-28-16.7-50.8-37.3-50.8-20.6 0-37.3 22.8-37.3 50.8 0 28 16.7 50.7 37.3 50.7z" style="fill:none;stroke:#231f20;stroke-width:8.33383;stroke-linecap:butt;stroke-linejoin:miter;stroke-miterlimit:22.9256;stroke-dasharray:none;stroke-opacity:1"/><path id="path116" d="M702.3 1663.8c20.6 0 37.3-22.7 37.3-50.8 0-28-16.7-50.7-37.3-50.7-20.6 0-37.3 22.7-37.3 50.7 0 28 16.7 50.8 37.3 50.8" style="fill:#d2cb54;fill-opacity:1;fill-rule:evenodd;stroke:none"/><path id="path118" d="M702.3 1663.8c20.6 0 37.3-22.7 37.3-50.8 0-28-16.7-50.7-37.3-50.7-20.6 0-37.3 22.7-37.3 50.7 0 28 16.7 50.8 37.3 50.8z" style="fill:none;stroke:#231f20;stroke-width:8.33383;stroke-linecap:butt;stroke-linejoin:miter;stroke-miterlimit:22.9256;stroke-dasharray:none;stroke-opacity:1"/><path id="path120" d="M714.8 1746c20.6 0 37.3-22.8 37.3-50.8 0-28-16.7-50.8-37.3-50.8-20.6 0-37.3 22.8-37.3 50.8 0 28 16.7 50.7 37.3 50.7" style="fill:#231f20;fill-opacity:1;fill-rule:evenodd;stroke:none"/><path id="path122" d="M714.8 1746c20.6 0 37.3-22.8 37.3-50.8 0-28-16.7-50.8-37.3-50.8-20.6 0-37.3 22.8-37.3 50.8 0 28 16.7 50.7 37.3 50.7z" style="fill:none;stroke:#231f20;stroke-width:8.33383;stroke-linecap:butt;stroke-linejoin:miter;stroke-miterlimit:22.9256;stroke-dasharray:none;stroke-opacity:1"/><path id="path124" d="M674 1554.9c0-3.6 37.3-11 39-8.5a125 125 0 0 0-40-3.6l1 12" style="fill:#231f20;fill-opacity:1;fill-rule:evenodd;stroke:none"/><path id="path126" d="m1996 1807 121.3 131.2-16-54.5 61.6 50-41-53.6 69.6 39.3-51.8-50.9 85.7 42-68.8-56.3 82.2 30.4-73.2-48.2 98.2 25.9-90.2-41.1 114.3 20.5-100-41 92.8 8-92.8-24.1 92-3.6-93.8-18.7 75.9-11.6-75-9 70.5-17.8-84-2.7 58.1-25.9-65.1 4.5 49-39.3-219.6 46.4z" style="fill:none;stroke:#231f20;stroke-width:16.6677;stroke-linecap:butt;stroke-linejoin:miter;stroke-miterlimit:22.9256;stroke-dasharray:none;stroke-opacity:1"/><path id="path128" d="m1996 1807 121.3 131.2-16-54.5 61.6 50-41-53.6 69.6 39.3-51.8-50.9 85.7 42-68.8-56.3 82.2 30.4-73.2-48.2 98.2 25.9-90.2-41.1 114.3 20.5-100-41 92.8 8-92.8-24.1 92-3.6-93.8-18.7 75.9-11.6-75-9 70.5-17.8-84-2.7 58.1-25.9-65.1 4.5 49-39.3-219.6 46.4v100" style="fill:#229845;fill-opacity:1;fill-rule:evenodd;stroke:none"/><path id="path130" d="m1982.4 1824.2 81.3 159.3-45.6-34 25.7 75.2-36.1-57 12.9 78.9-30-66.2 9.9 95-29.1-84 .2 87.6-20-85.4-9.6 101.1-7.5-98.8-20.1 114.4-4-108-24.6 89.9 9.4-95.5-35 85.1 14.7-94.5-37 67.3 17.4-73.5-41 60 26.4-79.7-44.4 45.6 26.7-59.7-53.8 32.6 119.3-190.2 34.5-21.3z" style="fill:none;stroke:#231f20;stroke-width:16.6677;stroke-linecap:butt;stroke-linejoin:miter;stroke-miterlimit:22.9256;stroke-dasharray:none;stroke-opacity:1"/><path id="path132" d="m1982.4 1824.2 81.3 159.3-45.6-34 25.7 75.2-36.1-57 12.9 78.9-30-66.2 9.9 95-29.1-84 .2 87.6-20-85.4-9.6 101.1-7.5-98.8-20.1 114.4-4-108-24.6 89.9 9.4-95.5-35 85.1 14.7-94.5-37 67.3 17.4-73.5-41 60 26.4-79.7-44.4 45.6 26.7-59.7-53.8 32.6 119.3-190.2 34.5-21.3 59.4 55.8" style="fill:#229845;fill-opacity:1;fill-rule:evenodd;stroke:none"/><path id="path134" d="m2045.3 1669.3 165.4-67.8-56.6-4 68.4-40.2-64.6 19.7 61.2-51.5-65.8 30.7 69.3-65.6-76.7 44.8 57.2-66.4-70.8 51.7 58.6-83-70 70.2 59.2-99.9-73.5 79.3 40-84.2-55 78.6 28.8-87.4-50.4 81.3 15.7-75.2-34.6 67.1 8-72.3-32 77.7-3.9-63.4-18.6 62.6-19.6-59.8-33.4 222 3.2 74.9z" style="fill:none;stroke:#231f20;stroke-width:16.6677;stroke-linecap:butt;stroke-linejoin:miter;stroke-miterlimit:22.9256;stroke-dasharray:none;stroke-opacity:1"/><path id="path136" d="m2045.3 1669.3 165.4-67.8-56.6-4 68.4-40.2-64.6 19.7 61.2-51.5-65.8 30.7 69.3-65.6-76.7 44.8 57.2-66.4-70.8 51.7 58.6-83-70 70.2 59.2-99.9-73.5 79.3 40-84.2-55 78.6 28.8-87.4-50.4 81.3 15.7-75.2-34.6 67.1 8-72.3-32 77.7-3.9-63.4-18.6 62.6-19.6-59.8-33.4 222 3.2 74.9 90.5-39.9" style="fill:#229845;fill-opacity:1;fill-rule:evenodd;stroke:none"/><path id="path138" d="m1823.8 1670.5-165.5-67.9 56.6-4-68.4-40.2 64.6 19.7-61.2-51.4 65.8 30.7-69.3-65.6 76.8 44.7-57.2-66.4 70.8 51.8-58.6-83 70 70.1-59.2-99.9 73.4 79.4-40-84.2 55 78.5-28.7-87.4 50.3 81.3-15.7-75.2 34.6 67.2-8-72.4 32 77.7 4-63.4 18.5 62.6 19.7-59.7 33.3 222-12.6 78z" style="fill:none;stroke:#231f20;stroke-width:16.6677;stroke-linecap:butt;stroke-linejoin:miter;stroke-miterlimit:22.9256;stroke-dasharray:none;stroke-opacity:1"/><path id="path140" d="M1823.8 1670.5c-202.7-160.5-121-294.3-46.3-187.7-35-101-31.5-91.7 21.5-6.1l-15.7-75.2 34.6 67.2-8-72.4 32 77.7 4-63.4 18.5 62.6 19.7-59.7 33.3 222-12.6 78-81-43" style="fill:#229845;fill-opacity:1;fill-rule:evenodd;stroke:none"/><path id="path142" d="m1839 1807-121.4 131.2 16.1-54.5-61.6 50 41-53.6-69.6 39.3 51.8-50.9-85.7 42 68.7-56.3-82.1 30.4 73.2-48.2-98.2 25.9 90.2-41.1-114.3 20.5 100-41-92.9 8 92.9-24.1-92-3.6 93.8-18.7-76-11.6 75-9-70.5-17.8 84-2.7-58-25.9 65.1 4.5-49-39.3 219.6 46.4 75.7 32z" style="fill:none;stroke:#231f20;stroke-width:16.6677;stroke-linecap:butt;stroke-linejoin:miter;stroke-miterlimit:22.9256;stroke-dasharray:none;stroke-opacity:1"/><path id="path144" d="m1839 1807-121.4 131.2 16.1-54.5-61.6 50 41-53.6-69.6 39.3 51.8-50.9-85.7 42 68.7-56.3-82.1 30.4 73.2-48.2-98.2 25.9 90.2-41.1-114.3 20.5 100-41-92.9 8 92.9-24.1-92-3.6 93.8-18.7-76-11.6 75-9-70.5-17.8 84-2.7-58-25.9 65.1 4.5-49-39.3 219.6 46.4 75.7 32-75.7 68" style="fill:#229845;fill-opacity:1;fill-rule:evenodd;stroke:none"/><path id="path146" d="m1875.5 1735.5-78 17.6 19.8-16-35.3 2.9 28.6-9.3-35.6-3.2 32-5.6-42.2-6.3 39.5-3.3-37.9-9.6 39.2.8-42.7-15.3 43.5 7.7-47.2-21.4 47.2 10.2-36.2-20.5 40.2 14.6-33-24.6 39.3 16.8-25-23.4 29.9 15.6-21.5-24.4 31.6 20.3-14.8-24.2 22.9 18-8.2-26.8 69.1 72.6z" style="fill:none;stroke:#231f20;stroke-width:16.6677;stroke-linecap:butt;stroke-linejoin:miter;stroke-miterlimit:22.9256;stroke-dasharray:none;stroke-opacity:1"/><path id="path148" d="m1875.5 1735.5-78 17.6 19.8-16-35.3 2.9 28.6-9.3-35.6-3.2 32-5.6-42.2-6.3 39.5-3.3-37.9-9.6 39.2.8-42.7-15.3 43.5 7.7-47.2-21.4 47.2 10.2-36.2-20.5 40.2 14.6-33-24.6 39.3 16.8-25-23.4 29.9 15.6-21.5-24.4 31.6 20.3-14.8-24.2 22.9 18-8.2-26.8 69.1 72.6-25.2 36.8" style="fill:#229845;fill-opacity:1;fill-rule:evenodd;stroke:none"/><path id="path150" d="m1916 1781.5-10.7 79-8.1-24-9.7 34.1 1.3-30.1-15.4 32.2 5.9-31.9-20.6 37.3 10.7-38.2-22.2 32.2 14.4-36.4-29.3 34.7 22.5-38.2-36.6 36.8 26-40.6-31.8 26.7 27.7-32.6-34.5 22.3 29.5-31-30.7 15.3 25-22.5-30.3 11.6 30-22.5-27.8 5.4 25-15-28.1-1.9 92.2-39.3z" style="fill:none;stroke:#231f20;stroke-width:16.6677;stroke-linecap:butt;stroke-linejoin:miter;stroke-miterlimit:22.9256;stroke-dasharray:none;stroke-opacity:1"/><path id="path152" d="m1916 1781.5-10.7 79-8.1-24-9.7 34.1 1.3-30.1-15.4 32.2 5.9-31.9-20.6 37.3 10.7-38.2-22.2 32.2 14.4-36.4-29.3 34.7 22.5-38.2-36.6 36.8 26-40.6-31.8 26.7 27.7-32.6-34.5 22.3 29.5-31-30.7 15.3 25-22.5-30.3 11.6 30-22.5-27.8 5.4 25-15-28.1-1.9 92.2-39.3 25.6 36.6" style="fill:#229845;fill-opacity:1;fill-rule:evenodd;stroke:none"/><path id="path154" d="m1973.4 1741.2 78 16.9-19.8-15.8 35.3 2.5-28.8-9 35.6-3.6-32-5.3 42-6.6-39.5-3 37.9-10-39.2 1.2 42.6-15.7-43.5 8.1 47-21.8-47 10.6 36-20.8-40.2 15 32.7-25-39 17.3 24.7-23.7-29.7 16 21.2-24.7-31.4 20.6 14.6-24.4-22.7 18.4 7.9-27-68.4 73.3z" style="fill:none;stroke:#231f20;stroke-width:16.6677;stroke-linecap:butt;stroke-linejoin:miter;stroke-miterlimit:22.9256;stroke-dasharray:none;stroke-opacity:1"/><path id="path156" d="m1973.4 1741.2 78 16.9-19.8-15.8 35.3 2.5-28.8-9 35.6-3.6-32-5.3 42-6.6-39.5-3 37.9-10-39.2 1.2 42.6-15.7-43.5 8.1 47-21.8-47 10.6 36-20.8-40.2 15 32.7-25-39 17.3 24.7-23.7-29.7 16 21.2-24.7-31.4 20.6 14.6-24.4-22.7 18.4 7.9-27-68.4 73.3 25.7 36.5" style="fill:#229845;fill-opacity:1;fill-rule:evenodd;stroke:none"/><path id="path158" d="m1972.9 1751 70.5 37.4-25.3-.7 28.6 20.8-27.8-11.5 25 25.5-28-16.5 28 32.2-32.2-23.2 22.5 32-29.2-26.1 22.4 39.4-28-34.2 22 47-29.2-38.5 14 39.1-21-37.3 9 40.1-18.8-38.3 3.7 34-12.5-31.3.4 32.5-10.8-35.9-4.5 28-5.5-28.6-11.4 25.7-5.1-100.1z" style="fill:none;stroke:#231f20;stroke-width:16.6677;stroke-linecap:butt;stroke-linejoin:miter;stroke-miterlimit:22.9256;stroke-dasharray:none;stroke-opacity:1"/><path id="path160" d="m1972.9 1751 70.5 37.4-25.3-.7 28.6 20.8-27.8-11.5 25 25.5-28-16.5 28 32.2-32.2-23.2 22.5 32-29.2-26.1 22.4 39.4-28-34.2 22 47-29.2-38.5 14 39.1-21-37.3 9 40.1-18.8-38.3 3.7 34-12.5-31.3.4 32.5-10.8-35.9-4.5 28-5.5-28.6-11.4 25.7-5.1-100.1 43.2-11.5" style="fill:#229845;fill-opacity:1;fill-rule:evenodd;stroke:none"/><path id="path162" d="m1956.1 1678.3 43.1-67.2-21.7 13 14.7-32.2-18.6 23.8 9.2-34.5-16.2 28 8.5-41.7-16.6 36 4-38.9-12.7 37 .2-45.3-7.6 43.6-4-51.7-6.5 47.8-7-41v42.8l-11.8-39.3 2.4 42.6-13.5-31.5 4.5 33.4-15.6-28.4 8.3 36.5-17.7-22.1 9.2 27.6-22.5-16.8 44.7 89.7z" style="fill:none;stroke:#231f20;stroke-width:16.6677;stroke-linecap:butt;stroke-linejoin:miter;stroke-miterlimit:22.9256;stroke-dasharray:none;stroke-opacity:1"/><path id="path164" d="m1956.1 1678.3 43.1-67.2-21.7 13 14.7-32.2-18.6 23.8 9.2-34.5-16.2 28 8.5-41.7-16.6 36 4-38.9-12.7 37 .2-45.3-7.6 43.6-4-51.7-6.5 47.8-7-41v42.8l-11.8-39.3 2.4 42.6-13.5-31.5 4.5 33.4-15.6-28.4 8.3 36.5-17.7-22.1 9.2 27.6-22.5-16.8 44.7 89.7 43.2-11.2" style="fill:#229845;fill-opacity:1;fill-rule:evenodd;stroke:none"/><path id="path166" d="M1929.2 1782.5a53.9 53.9 0 1 0 0-107.7 53.9 53.9 0 0 0 0 107.7" style="fill:#231f20;fill-opacity:1;fill-rule:evenodd;stroke:none"/><path id="path168" d="m710.4 2032.6-1.5-71.3-4-70.7c-35.8 56.4-79 84.6-138.8 102.2-42.3 12.4-37.3 11.3-.4-4 66.7-27.8 110.3-65.5 137.1-131-130.7 15.2-229.4-25-297.8-118 92.9 86.2 192.5 118.4 297.8 106-62.9-49-115.9-105.2-141.3-180.8 44.7 81 96 131.5 149.1 173.6v3.7l.1-3.7A553.3 553.3 0 0 0 859.9 1665c-25.5 75.6-78.5 131.7-141.4 180.9 105.3 12.3 205-20 297.8-106-68.3 93-167.1 133-297.8 118 28.5 69.6 81.3 106 156.4 133.9 20 7.5 29.4 10 1.9 3.1-68.7-17-121.6-43.2-160.4-104.3l-4 70.8zm-159.2-256.5c-2.7-24.3-2.4-48.5 9.1-72.8l14.1 16.5c-18.7 10-21.2 33-23.2 56.3zm25.8 17c-2.3-20-2-39.8 7.5-59.6L596 1747c-15.3 8.2-17.4 27-19 46zm27.1-2.4c-1.1-10-1-20 3.8-30l5.8 6.9c-7.7 4.1-8.8 13.5-9.6 23.1zm50.6 96.5-16.9-24.2 11-2.8zm-22.8 11.5-21.6-31 14-3.6zm26 70.8c-187.9 117.2-248.5 39.7-308-25.6 21.7 15.3 43.4 29.1 65 33-24.1-18-41.2-36.2-51.1-54.3 17.4 13.1 34.8 21 52.2 17-39.4-34.8-54.1-69.6-70.3-104.4 26.2 26.2 52.1 52.9 84.2 70.3-16.4-22.5-27.4-46-26.7-71.3 17 24.5 34.1 44 51.2 62.8-3.3-16.3-5.4-32.6 0-49 9.7 26.2 22.5 49.2 35.1 72.5L481 1865c18.1 47.6 36.2 61.5 54.3 69.2a100 100 0 0 1-24.5-58.6c11 31.7 32 50.8 54.4 68.2-8.8-23-18.5-46.2-12.8-69.3a274.6 274.6 0 0 0 30.9 57.6c-1.8-18.4-2.7-35.2-7.5-59.7l33 40.5-13.8-48c-188-15.9-269-120.4-261-298.2a603.5 603.5 0 0 0 37.3 91.6c-9.5-40.2-15.1-79.8-7.5-117.2a776 776 0 0 0 26.6 95.9c7.1-110.8 19.6-163.4 35.2-183.3a1316 1316 0 0 0 5.3 153.4c7.7-27.7 18.2-71.3 43.7-83-24.4 49.6-15 80.7-7.5 112.9 3-21.7 12.3-39.8 35.2-50.1-12.9 28.3-22.6 57.3-21.3 88.4l19.2-40.4c2.1 10.9-5.7 51.8-15 96.9 12.1-29.1 24.2-56.1 36.3-68.2-9.6 32-6.8 64-2.2 95.9 12.8-24.2 25-48 32-69.3-45.9-107.1-5.5-156.8 20.2-216.2a275.6 275.6 0 0 0-10.6 67.1l33-56.5c-6.4 17-11.7 34.1-9.6 51.2 23.5-31.4 47-50.5 70.3-70.3-21.2 27-33.9 53-34 77.7a84.4 84.4 0 0 1 50-36.2c-21.3 15.4-38.8 34.2-48 60.7a77.2 77.2 0 0 1 41.6-17 220.8 220.8 0 0 0-52.2 49l35.2-16-46.9 54.3 42.6-26.6a139.4 139.4 0 0 0-36.2 55.4l46.9-27.7c-17 14.4-29.4 29.3-35.2 44.8 14.2-9.6 28.4-16.4 42.6-17a55 55 0 0 0-25.5 42.5c11-14.2 24-22.4 38.3-25.5l-23.4 27.7 43.7-13.9c-19.2 14.7-26.3 27-34.1 39.4 10-4.8 19.6-10.6 32-8.5-16.8 35.8-.4 59 17.8 81.5 18.2-22.5 34.6-45.7 17.9-81.5 12.3-2.1 22 3.7 32 8.5-7.9-12.4-15-24.7-34.2-39.4l43.7 13.9-23.4-27.7a65.8 65.8 0 0 1 38.3 25.5 55 55 0 0 0-25.5-42.6c14.2.7 28.4 7.5 42.6 17-5.8-15.4-18.3-30.3-35.2-44.7l47 27.9c-5.8-18-17-36.3-36.2-55.4a93416 93416 0 0 0 42.6 26.6l-46.9-54.3 35.2 16a220.8 220.8 0 0 0-52.2-49 77 77 0 0 1 41.5 17c-9-26.5-26.6-45.3-48-60.7a84.4 84.4 0 0 1 50.2 36.2c-.2-24.7-12.9-50.8-34.1-77.7 23.4 19.8 46.8 38.9 70.3 70.3 2.1-17-3.2-34.1-9.6-51.2l33 56.5c-1-22.4-3.9-44.7-10.6-67.1 25.7 59.4 66 109 20.2 216.2 7 21.4 19.2 45.1 32 69.3 4.6-32 7.4-64-2.2-95.9 12.1 12 24.2 39 36.3 68.2-9.3-45.1-17.1-86-15-97l19.2 40.5c1.4-31.1-8.4-60-21.3-88.4 23 10.3 32.1 28.4 35.2 50 7.4-32.1 17-63.2-7.5-112.8 25.5 11.7 36 55.3 43.7 83a1315 1315 0 0 0 5.3-153.4c15.6 20 28.1 72.5 35.2 183.3a775.2 775.2 0 0 0 26.6-95.9c7.7 37.4 2 77-7.5 117.2a603 603 0 0 0 37.3-91.6c8 177.8-72.9 282.3-261 298.3l-13.8 47.9 33-40.5c-4.8 24.5-5.7 41.3-7.5 59.7a274.4 274.4 0 0 0 31-57.5c5.6 23-4 46.1-12.8 69.2 22.3-17.4 43.3-36.5 54.3-68.2a100 100 0 0 1-24.5 58.6c18-7.7 36.2-21.6 54.3-69.2l-8.5 55.4c12.6-23.3 25.4-46.3 35.1-72.5 5.4 16.4 3.3 32.7 0 49 17-18.8 34.1-38.3 51.2-62.8.7 25.4-10.3 48.8-26.7 71.4 32-17.5 58-44.2 84.2-70.4-16.2 34.8-31 69.6-70.3 104.4 17.4 4 34.8-3.9 52.2-17-10 18.1-27 36.2-51.1 54.3a165.9 165.9 0 0 0 65-29.8c-49.8 61.4-117.5 139.1-308 22.4A128.4 128.4 0 0 1 797 2029c-15.6-14.9-31.2-24.5-46.9-22.3 20 11 28.1 33.7 31 61.8l-26.7-23.5c5.3 15 6.4 29.8 3.2 44.8a51.4 51.4 0 0 0-20.2-24.5c5.3 22.5 2.8 43.1-3.2 62.8a90.2 90.2 0 0 0-18.1-50l-4.9 65.6v35.5l-1.3-17.7-1.3 17.7V2144l-4.8-65.9a90.1 90.1 0 0 0-18.2 50.1c-6-19.7-8.5-40.3-3.2-62.8a51.4 51.4 0 0 0-20.2 24.5 80.4 80.4 0 0 1 3.2-44.8l-26.6 23.5c2.8-28.1 11-50.8 30.9-61.8-15.7-2.2-31.3 7.4-47 22.3a128.4 128.4 0 0 1 35.2-59.6z" style="fill:none;stroke:#231f20;stroke-width:16.5354;stroke-linecap:butt;stroke-linejoin:miter;stroke-miterlimit:22.9256;stroke-dasharray:none;stroke-opacity:1"/><path id="path170" d="m710.4 2032.6-1.5-71.3-4-70.7c-35.8 56.4-79 84.6-138.8 102.2-42.3 12.4-37.3 11.3-.4-4 66.7-27.8 110.3-65.5 137.1-131-130.7 15.2-229.4-25-297.8-118 92.9 86.2 192.5 118.4 297.8 106-62.9-49-115.9-105.2-141.3-180.8 44.7 81 96 131.5 149.1 173.6v3.7l.1-3.7A553.3 553.3 0 0 0 859.9 1665c-25.5 75.6-78.5 131.7-141.4 180.9 105.3 12.3 205-20 297.8-106-68.3 93-167.1 133-297.8 118 28.5 69.6 81.3 106 156.4 133.9 20 7.5 29.4 10 1.9 3.1-68.7-17-121.6-43.2-160.4-104.3l-4 70.8zm-159.2-256.5c-2.7-24.3-2.4-48.5 9.1-72.8l14.1 16.5c-18.7 10-21.2 33-23.2 56.3zm25.8 17c-2.3-20-2-39.8 7.5-59.6L596 1747c-15.3 8.2-17.4 27-19 46zm27.1-2.4c-1.1-10-1-20 3.8-30l5.8 6.9c-7.7 4.1-8.8 13.5-9.6 23.1zm50.6 96.5-16.9-24.2 11-2.8zm-22.8 11.5-21.6-31 14-3.6zm26 70.8c-187.9 117.2-248.5 39.7-308-25.6 21.7 15.3 43.4 29.1 65 33-24.1-18-41.2-36.2-51.1-54.3 17.4 13.1 34.8 21 52.2 17-39.4-34.8-54.1-69.6-70.3-104.4 26.2 26.2 52.1 52.9 84.2 70.3-16.4-22.5-27.4-46-26.7-71.3 17 24.5 34.1 44 51.2 62.8-3.3-16.3-5.4-32.6 0-49 9.7 26.2 22.5 49.2 35.1 72.5L481 1865c18.1 47.6 36.2 61.5 54.3 69.2a100 100 0 0 1-24.5-58.6c11 31.7 32 50.8 54.4 68.2-8.8-23-18.5-46.2-12.8-69.3a274.6 274.6 0 0 0 30.9 57.6c-1.8-18.4-2.7-35.2-7.5-59.7l33 40.5-13.8-48c-188-15.9-269-120.4-261-298.2a603.5 603.5 0 0 0 37.3 91.6c-9.5-40.2-15.1-79.8-7.5-117.2a776 776 0 0 0 26.6 95.9c7.1-110.8 19.6-163.4 35.2-183.3a1316 1316 0 0 0 5.3 153.4c7.7-27.7 18.2-71.3 43.7-83-24.4 49.6-15 80.7-7.5 112.9 3-21.7 12.3-39.8 35.2-50.1-12.9 28.3-22.6 57.3-21.3 88.4l19.2-40.4c2.1 10.9-5.7 51.8-15 96.9 12.1-29.1 24.2-56.1 36.3-68.2-9.6 32-6.8 64-2.2 95.9 12.8-24.2 25-48 32-69.3-45.9-107.1-5.5-156.8 20.2-216.2a275.6 275.6 0 0 0-10.6 67.1l33-56.5c-6.4 17-11.7 34.1-9.6 51.2 23.5-31.4 47-50.5 70.3-70.3-21.2 27-33.9 53-34 77.7a84.4 84.4 0 0 1 50-36.2c-21.3 15.4-38.8 34.2-48 60.7a77.2 77.2 0 0 1 41.6-17 220.8 220.8 0 0 0-52.2 49l35.2-16-46.9 54.3 42.6-26.6a139.4 139.4 0 0 0-36.2 55.4l46.9-27.7c-17 14.4-29.4 29.3-35.2 44.8 14.2-9.6 28.4-16.4 42.6-17a55 55 0 0 0-25.5 42.5c11-14.2 24-22.4 38.3-25.5l-23.4 27.7 43.7-13.9c-19.2 14.7-26.3 27-34.1 39.4 10-4.8 19.6-10.6 32-8.5-16.8 35.8-.4 59 17.8 81.5 18.2-22.5 34.6-45.7 17.9-81.5 12.3-2.1 22 3.7 32 8.5-7.9-12.4-15-24.7-34.2-39.4l43.7 13.9-23.4-27.7a65.8 65.8 0 0 1 38.3 25.5 55 55 0 0 0-25.5-42.6c14.2.7 28.4 7.5 42.6 17-5.8-15.4-18.3-30.3-35.2-44.7l47 27.9c-5.8-18-17-36.3-36.2-55.4a93416 93416 0 0 0 42.6 26.6l-46.9-54.3 35.2 16a220.8 220.8 0 0 0-52.2-49 77 77 0 0 1 41.5 17c-9-26.5-26.6-45.3-48-60.7a84.4 84.4 0 0 1 50.2 36.2c-.2-24.7-12.9-50.8-34.1-77.7 23.4 19.8 46.8 38.9 70.3 70.3 2.1-17-3.2-34.1-9.6-51.2l33 56.5c-1-22.4-3.9-44.7-10.6-67.1 25.7 59.4 66 109 20.2 216.2 7 21.4 19.2 45.1 32 69.3 4.6-32 7.4-64-2.2-95.9 12.1 12 24.2 39 36.3 68.2-9.3-45.1-17.1-86-15-97l19.2 40.5c1.4-31.1-8.4-60-21.3-88.4 23 10.3 32.1 28.4 35.2 50 7.4-32.1 17-63.2-7.5-112.8 25.5 11.7 36 55.3 43.7 83a1315 1315 0 0 0 5.3-153.4c15.6 20 28.1 72.5 35.2 183.3a775.2 775.2 0 0 0 26.6-95.9c7.7 37.4 2 77-7.5 117.2a603 603 0 0 0 37.3-91.6c8 177.8-72.9 282.3-261 298.3l-13.8 47.9 33-40.5c-4.8 24.5-5.7 41.3-7.5 59.7a274.4 274.4 0 0 0 31-57.5c5.6 23-4 46.1-12.8 69.2 22.3-17.4 43.3-36.5 54.3-68.2a100 100 0 0 1-24.5 58.6c18-7.7 36.2-21.6 54.3-69.2l-8.5 55.4c12.6-23.3 25.4-46.3 35.1-72.5 5.4 16.4 3.3 32.7 0 49 17-18.8 34.1-38.3 51.2-62.8.7 25.4-10.3 48.8-26.7 71.4 32-17.5 58-44.2 84.2-70.4-16.2 34.8-31 69.6-70.3 104.4 17.4 4 34.8-3.9 52.2-17-10 18.1-27 36.2-51.1 54.3a165.9 165.9 0 0 0 65-29.8c-49.8 61.4-117.5 139.1-308 22.4A128.4 128.4 0 0 1 797 2029c-15.6-14.9-31.2-24.5-46.9-22.3 20 11 28.1 33.7 31 61.8l-26.7-23.5c5.3 15 6.4 29.8 3.2 44.8a51.4 51.4 0 0 0-20.2-24.5c5.3 22.5 2.8 43.1-3.2 62.8a90.2 90.2 0 0 0-18.1-50l-4.9 65.6v35.5l-1.3-17.7-1.3 17.7V2144l-4.8-65.9a90.1 90.1 0 0 0-18.2 50.1c-6-19.7-8.5-40.3-3.2-62.8a51.4 51.4 0 0 0-20.2 24.5 80.4 80.4 0 0 1 3.2-44.8l-26.6 23.5c2.8-28.1 11-50.8 30.9-61.8-15.7-2.2-31.3 7.4-47 22.3a128.4 128.4 0 0 1 35.2-59.6" style="fill:#229845;fill-opacity:1;fill-rule:evenodd;stroke:none"/><path id="path172" d="M1315.1 771.6c-38.8 33.2-85 57.9-131.5 78.5-62.3 27.5-128.5 49.5-193.4 70.6-46.4 18.7-84.6 47.9-110.9 90.8-66.4 108.6-37 278.7-15.5 397.2 34.7 162.2 23.6 322.4-40.8 475.8l-1.3 3 3.3.3c325.3 26 651.9 19 977.2-4.1l3.3-.2-1.3-3c-77-184.7-67.9-372.2-24.4-564 20.5-95.5 29.4-208-23-295.3-55.3-92.3-151.8-115.4-245.7-150.4-66.2-24.6-137.6-54.3-193-99.3l-1.5-1.2-1.5 1.3" style="fill:#229845;fill-opacity:1;fill-rule:evenodd;stroke:none"/><path id="path174" d="M1315.1 771.6c-38.8 33.2-85 57.9-131.5 78.5-62.3 27.5-128.5 49.5-193.4 70.6-46.4 18.7-84.6 47.9-110.9 90.8-66.4 108.6-37 278.7-15.5 397.2 34.7 162.2 23.6 322.4-40.8 475.8l-1.3 3 3.3.3c325.3 26 651.9 19 977.2-4.1l3.3-.2-1.3-3c-77-184.7-67.9-372.2-24.4-564 20.5-95.5 29.4-208-23-295.3-55.3-92.3-151.8-115.4-245.7-150.4-66.2-24.6-137.6-54.3-193-99.3l-1.5-1.2z" style="fill:none;stroke:#231f20;stroke-width:1.8;stroke-linecap:butt;stroke-linejoin:miter;stroke-miterlimit:22.9256;stroke-dasharray:none;stroke-opacity:1"/><path id="path176" d="M809 1897.7c2-6 80-256 80-256 294 .4 574.4 1.3 868.5 1.6l54 249.4c-329 21.7-662.6 26-1002.5 5" style="fill:#d3d2d2;fill-opacity:1;fill-rule:evenodd;stroke:none"/><path id="path178" d="M1321.8 729.5c-15.5-6-44 8-51.8-13a76.6 76.6 0 0 1 1.8-41.8c5.1-10.7 7.9-22.3 18-27.8 10.3-5.6 16.8-7 26-4.2 19.3 5.8 49 14.2 53.8 38 .4 2.4-1 36.7-1 40.4 0 3.8 0 11.7-7.4 19-7.4 7.5-32 6.1-33.8 0-1.8-6-5-12-5.6-10.6" style="fill:#fff200;fill-opacity:1;fill-rule:evenodd;stroke:none"/><path id="path180" d="M1321.8 729.5c-15.5-6-44 8-51.8-13a76.6 76.6 0 0 1 1.8-41.8c5.1-10.7 7.9-22.3 18-27.8 10.3-5.6 16.8-7 26-4.2 19.3 5.8 49 14.2 53.8 38 .4 2.4-1 36.7-1 40.4 0 3.8 0 11.7-7.4 19-7.4 7.5-32 6.1-33.8 0-1.8-6-5-12-5.6-10.6z" style="fill:none;stroke:#231f20;stroke-width:8.33383;stroke-linecap:butt;stroke-linejoin:miter;stroke-miterlimit:22.9256;stroke-dasharray:none;stroke-opacity:1"/><path id="path182" d="M813.7 791.2C782.3 843 681.2 981 627.8 869a69.8 69.8 0 0 1 1.8-63.7c26-52.4 87.5-18 73 8-34.2-8-27.7 57 14.9 38 25.7-11.6 62.6-37.9 96.2-60" style="fill:#00a650;fill-opacity:1;fill-rule:evenodd;stroke:none"/><path id="path184" d="M1323.7 729c-14.4.7-16.2-83.7 1.4-81.2 17.5 2.4 11.4 10.8 17.7 6.4 6.8-4.7 48.4 55 23.2 75.1-6 4.8-7.1 7.3-9.4 8.7-12 7.1-20.3 5-26.8-1.4-3-3-3.4-4.8-6.1-7.6" style="fill:#00a650;fill-opacity:1;fill-rule:evenodd;stroke:none"/><path id="path186" d="M1825.5 791.2C1856.9 843 1958 981 2011.3 869a69.8 69.8 0 0 0-1.7-63.7c-26-52.4-87.5-18-73.1 8 34.3-8 27.7 57-14.8 38-25.8-11.6-62.6-37.9-96.2-60" style="fill:#00a650;fill-opacity:1;fill-rule:evenodd;stroke:none"/><path id="path188" d="M1932.4 870.7c-120.3-111.7-241.2-170.2-363-154.8-9.2-14.1-18.6-28.2-28-42.3 159.4 8 309.8 41.3 420.2 189.8l-13.5 11.4c-10.8 9-5.2 5.6-15.7-4.1" style="fill:#d2cb54;fill-opacity:1;fill-rule:evenodd;stroke:none"/><path id="path190" d="M1932.4 870.7c-120.3-111.7-241.2-170.2-363-154.8-9.2-14.1-18.6-28.2-28-42.3 159.4 8 309.8 41.3 420.2 189.8l-13.5 11.4c-10.8 9-5.2 5.6-15.7-4.1z" style="fill:none;stroke:#231f20;stroke-width:8.33383;stroke-linecap:butt;stroke-linejoin:miter;stroke-miterlimit:22.9256;stroke-dasharray:none;stroke-opacity:1"/><path id="path192" d="m1601.2 711.6 6.5-35" style="fill:none;stroke:#231f20;stroke-width:8.33383;stroke-linecap:butt;stroke-linejoin:miter;stroke-miterlimit:22.9256;stroke-dasharray:none;stroke-opacity:1"/><path id="path194" d="M1365.8 718.9c18.7 6 37.4 13.4 56 30.3 16 12 32.4 22.6 48.5 18.9 34.4-8 31.7-44.5 70.9-41.7 20.9 1.6 32-20.4 17.7-36.9-18.2-15.5-23-18.2-19-42a143 143 0 0 1 6.8-28.2c11.5-35.7-24.7-52.3-62-50.4a68.6 68.6 0 0 0-38.6 16.5c-26.6 25.7-52.8 51.7-84.9 73.3 6.8 11.8 9.9 29.5 4.6 60.2" style="fill:#fff200;fill-opacity:1;fill-rule:evenodd;stroke:none"/><path id="path196" d="M1365.8 718.9c18.7 6 37.4 13.4 56 30.3 16 12 32.4 22.6 48.5 18.9 34.4-8 31.7-44.5 70.9-41.7 20.9 1.6 32-20.4 17.7-36.9-18.2-15.5-23-18.2-19-42a143 143 0 0 1 6.8-28.2c11.5-35.7-24.7-52.3-62-50.4a68.6 68.6 0 0 0-38.6 16.5c-26.6 25.7-52.8 51.7-84.9 73.3 6.8 11.8 9.9 29.5 4.6 60.2z" style="fill:none;stroke:#231f20;stroke-width:8.33383;stroke-linecap:butt;stroke-linejoin:miter;stroke-miterlimit:22.9256;stroke-dasharray:none;stroke-opacity:1"/><path id="path198" d="M1504.7 576a47 47 0 0 1 9.3 25c1 10 .1 21.3-2.4 33.8-8.5 18-6.8 44.2-7.4 70-.2 21.3-33.4 32.6-55.7 26-19.8-6-37-31.5-60.7-41.2a91.7 91.7 0 0 0-17-5.5c.6 8.6 0 19-2.2 31.6l.5 1.5a139 139 0 0 1 54 28.9c15.5 11.5 31.4 21.7 47.1 18.2 33.4-7.7 30.8-42.8 69-40 20.3 1.4 31.1-19.7 17.2-35.5-17.7-15-22.4-17.6-18.5-40.4 2.2-12.8 5.6-26.5 6.7-27.2 9.4-29-16.1-46.3-44.2-47.9a9.6 9.6 0 0 1 4.3 2.7" style="fill:#00a650;fill-opacity:1;fill-rule:evenodd;stroke:none"/><path id="path200" d="M1241.1 1776.1c-12-22.2-80.3-12.4-63.8 21.2-22 17.9-21.4 33 1.7 45.2-8.7 26.5 5.1 31.3 29.2 26.3 15.7 17.6 31.5 17.7 47.3.4 13.9-1.6 20.8-12.3 17.8-36.4l-17.4-35s-14.8-22.5-14.8-21.7" style="fill:#ffffff;fill-opacity:1;fill-rule:evenodd;stroke:none"/><path id="path202" d="M1241.1 1776.1c-12-22.2-80.3-12.4-63.8 21.2-22 17.9-21.4 33 1.7 45.2-8.7 26.5 5.1 31.3 29.2 26.3 15.7 17.6 31.5 17.7 47.3.4 13.9-1.6 20.8-12.3 17.8-36.4l-17.4-35s-14.8-22.5-14.8-21.7z" style="fill:none;stroke:#231f20;stroke-width:8.33383;stroke-linecap:butt;stroke-linejoin:miter;stroke-miterlimit:22.9256;stroke-dasharray:none;stroke-opacity:1"/><path id="path204" d="M1944.4 782c-126.4-99.3-276-111.9-393.2-105.6-17.1-11.8-9.5-20.9-7.9-34 155.7 17.2 316-5.5 430.3 132.3l-13.5 11.5c-10.8 9-4.5 4.7-15.7-4.1" style="fill:#d2cb54;fill-opacity:1;fill-rule:evenodd;stroke:none"/><path id="path206" d="M1944.4 782c-126.4-99.3-276-111.9-393.2-105.6-17.1-11.8-9.5-20.9-7.9-34 155.7 17.2 316-5.5 430.3 132.3l-13.5 11.5c-10.8 9-4.5 4.7-15.7-4.1z" style="fill:none;stroke:#231f20;stroke-width:8.33383;stroke-linecap:butt;stroke-linejoin:miter;stroke-miterlimit:22.9256;stroke-dasharray:none;stroke-opacity:1"/><path id="path208" d="M1367.8 676.7a81 81 0 0 1 55.2 16c39.2 18.7 60.2 13.7 62.9-15 1.3-27.2-2.4-50.2-36.2-41.4-18.8 4.9-31.4 17.4-48.4 26.7-16.4 9-33.4 16.9-33.5 13.7" style="fill:#d2cb54;fill-opacity:1;fill-rule:evenodd;stroke:none"/><path id="path210" d="M1367.8 676.7a81 81 0 0 1 55.2 16c39.2 18.7 60.2 13.7 62.9-15 1.3-27.2-2.4-50.2-36.2-41.4-18.8 4.9-31.4 17.4-48.4 26.7-16.4 9-33.4 16.9-33.5 13.7z" style="fill:none;stroke:#231f20;stroke-width:8.33383;stroke-linecap:butt;stroke-linejoin:miter;stroke-miterlimit:22.9256;stroke-dasharray:none;stroke-opacity:1"/><path id="path212" d="M1388.3 671.6c4.7-2.3 95.3-15.1 95.3-15.1-.6 9.7 5.2 5.3-.2 23.7-3.6-.6-97.7-12.2-95.1-8.6" style="fill:#fff200;fill-opacity:1;fill-rule:evenodd;stroke:none"/><path id="path214" d="M1388.3 671.6c4.7-2.3 95.3-15.1 95.3-15.1-.6 9.7 5.2 5.3-.2 23.7-3.6-.6-97.7-12.2-95.1-8.6z" style="fill:none;stroke:#231f20;stroke-width:8.33383;stroke-linecap:butt;stroke-linejoin:miter;stroke-miterlimit:22.9256;stroke-dasharray:none;stroke-opacity:1"/><path id="path216" d="M1389 673.2c5.3-.7 95 9 95 9-1 17-6.1 16.2-21 19.2-4.6 6.9-76-28.2-74-28.2" style="fill:#00a650;fill-opacity:1;fill-rule:evenodd;stroke:none"/><path id="path218" d="M1389 673.2c5.3-.7 95 9 95 9-1 17-6.1 16.2-21 19.2-4.6 6.9-76-28.2-74-28.2z" style="fill:none;stroke:#231f20;stroke-width:8.33383;stroke-linecap:butt;stroke-linejoin:miter;stroke-miterlimit:22.9256;stroke-dasharray:none;stroke-opacity:1"/><path id="path220" d="M1583.9 753.7c146.2 158-129.8 92.3-54 30.5-.7 52 111 67.4 54-30.5" style="fill:#00a650;fill-opacity:1;fill-rule:evenodd;stroke:none"/><path id="path222" d="m1671.5 861.6-31.3-57.8-7 5.4 38.3 52.4" style="fill:#00a650;fill-opacity:1;fill-rule:evenodd;stroke:none"/><path id="path224" d="m1431.8 785-53-39-4 8 57 31" style="fill:#00a650;fill-opacity:1;fill-rule:evenodd;stroke:none"/><path id="path226" d="m1803 840.5-43.1-79.8-9.7 7.6 52.8 72.2" style="fill:#00a650;fill-opacity:1;fill-rule:evenodd;stroke:none"/><path id="path228" d="m1793.4 537.5-143.2 67.4 14.3 4.2 129-71.6" style="fill:#00a650;fill-opacity:1;fill-rule:evenodd;stroke:none"/><path id="path230" d="m1762.4 509.2-79 58.8 9.3.8 69.7-59.6" style="fill:#00a650;fill-opacity:1;fill-rule:evenodd;stroke:none"/><path id="path232" d="m1748.9 586.4 57-20.3-57.8 6.2.8 14" style="fill:#00a650;fill-opacity:1;fill-rule:evenodd;stroke:none"/><path id="path234" d="M1700.4 606.7c4.7 0 143.8-10.1 143.8-10.1l-138.3-.8-5.5 11" style="fill:#00a650;fill-opacity:1;fill-rule:evenodd;stroke:none"/><path id="path236" d="M1795.8 615.3c5.4 4.7 61.7 17.2 61.7 17.2l-47.7-26.6-14 9.4" style="fill:#00a650;fill-opacity:1;fill-rule:evenodd;stroke:none"/><path id="path238" d="m1738.7 625.5 107.9 24.2-97.7-34.4-10.2 10.2" style="fill:#00a650;fill-opacity:1;fill-rule:evenodd;stroke:none"/><path id="path240" d="M1587.8 625.5c203.5-81 45.3-170.2-17.2-54 121-68.7 111.2-2.5 17.2 54" style="fill:#00a650;fill-opacity:1;fill-rule:evenodd;stroke:none"/><path id="path242" d="m1835.6 865.5-29.6-79.7-11 7.5 40.6 72.2" style="fill:#00a650;fill-opacity:1;fill-rule:evenodd;stroke:none"/><path id="path244" d="M1485 643.9c23-63-73.2-11-103.5 25 14.5-5.5 29-13.2 53.3-28.6 26.3-18.2 41.6-6.7 50.2 3.6" style="fill:#00a650;fill-opacity:1;fill-rule:evenodd;stroke:none"/><path id="path246" d="m1875.9 822.8 22.9-27.5" style="fill:none;stroke:#231f20;stroke-width:8.33383;stroke-linecap:butt;stroke-linejoin:miter;stroke-miterlimit:22.9256;stroke-dasharray:none;stroke-opacity:1"/><path id="path248" d="m1801.6 769.6 22.8-27.4" style="fill:none;stroke:#231f20;stroke-width:8.33383;stroke-linecap:butt;stroke-linejoin:miter;stroke-miterlimit:22.9256;stroke-dasharray:none;stroke-opacity:1"/><path id="path250" d="M1872 869.6c10 56.7 22.6 51.7 38 7.7-3.3 18.5-8 32.7-14 43.5-9.6 17-11 7.9-17-9.2-6.5-18.1-13.2-41.5-7-42" style="fill:#231f20;fill-opacity:1;fill-rule:evenodd;stroke:none"/><path id="path252" d="m1714.8 730.9 12.4-33.5" style="fill:none;stroke:#231f20;stroke-width:8.33383;stroke-linecap:butt;stroke-linejoin:miter;stroke-miterlimit:22.9256;stroke-dasharray:none;stroke-opacity:1"/><path id="path254" d="m1885.6 742.2 22.9-27.5" style="fill:none;stroke:#231f20;stroke-width:8.33383;stroke-linecap:butt;stroke-linejoin:miter;stroke-miterlimit:22.9256;stroke-dasharray:none;stroke-opacity:1"/><path id="path256" d="m1813.3 706.4 12-33.7" style="fill:none;stroke:#231f20;stroke-width:8.33383;stroke-linecap:butt;stroke-linejoin:miter;stroke-miterlimit:22.9256;stroke-dasharray:none;stroke-opacity:1"/><path id="path258" d="m1722.7 686.4 4.5-35.4" style="fill:none;stroke:#231f20;stroke-width:8.33383;stroke-linecap:butt;stroke-linejoin:miter;stroke-miterlimit:22.9256;stroke-dasharray:none;stroke-opacity:1"/><path id="path260" d="m1605.4 676-.6-35.7" style="fill:none;stroke:#231f20;stroke-width:8.33383;stroke-linecap:butt;stroke-linejoin:miter;stroke-miterlimit:22.9256;stroke-dasharray:none;stroke-opacity:1"/><path id="path262" d="M871 1639.8c294.5 29.4 589 28.2 883.4 4.3-7.5-99.4 11.1-211.1 28.4-301.2 16.4-85.4-4 50.2 18-134.3-313.5 41-638.3 34.4-969.8-.4-.6 73.9 56.3 357.7 40 431.6" style="fill:#2498dc;fill-opacity:1;fill-rule:evenodd;stroke:none"/><path id="path264" d="M871 1639.8c294.5 29.4 589 28.2 883.4 4.3-7.5-99.4 11.1-211.1 28.4-301.2 16.4-85.4-4 50.2 18-134.3-313.5 41-638.3 34.4-969.8-.4-.6 73.9 56.3 357.7 40 431.6z" style="fill:none;stroke:#231f20;stroke-width:16.5354;stroke-linecap:butt;stroke-linejoin:miter;stroke-miterlimit:22.9256;stroke-dasharray:none;stroke-opacity:1"/><path id="path268" d="M1370.4 1776.1c12-22.2 80.3-12.4 63.8 21.2 22 17.9 21.5 33-1.7 45.2 8.7 26.5-5.1 31.3-29.1 26.3-15.8 17.6-31.6 17.7-47.4.4-13.8-1.6-20.8-12.3-17.8-36.4l17.4-35s14.8-22.5 14.8-21.7" style="fill:#ffffff;fill-opacity:1;fill-rule:evenodd;stroke:none"/><path id="path270" d="M1370.4 1776.1c12-22.2 80.3-12.4 63.8 21.2 22 17.9 21.5 33-1.7 45.2 8.7 26.5-5.1 31.3-29.1 26.3-15.8 17.6-31.6 17.7-47.4.4-13.8-1.6-20.8-12.3-17.8-36.4l17.4-35s14.8-22.5 14.8-21.7z" style="fill:none;stroke:#231f20;stroke-width:8.33383;stroke-linecap:butt;stroke-linejoin:miter;stroke-miterlimit:22.9256;stroke-dasharray:none;stroke-opacity:1"/><path id="path272" d="M1324.3 1584.6c-119.5-51-196.6-154.6-137.8-326.2 56.2 31 118.1 76.2 197.8 73.8-107.5 74.6-98 162-60 252.4" style="fill:#e39125;fill-opacity:1;fill-rule:evenodd;stroke:none"/><path id="path274" d="M1324.3 1584.6c-119.5-51-196.6-154.6-137.8-326.2 56.2 31 118.1 76.2 197.8 73.8-107.5 74.6-98 162-60 252.4z" style="fill:none;stroke:#231f20;stroke-width:9.44883;stroke-linecap:round;stroke-linejoin:round;stroke-miterlimit:22.9256;stroke-dasharray:none;stroke-opacity:1"/><path id="path282" d="M706.8 870.7C827 759 948 700.5 1069.7 715.9l28-42.3c-159.3 8-309.8 41.3-420.2 189.8l13.6 11.4c10.8 9 5.2 5.6 15.7-4.1" style="fill:#d2cb54;fill-opacity:1;fill-rule:evenodd;stroke:none"/><path id="path284" d="M706.8 870.7C827 759 948 700.5 1069.7 715.9l28-42.3c-159.3 8-309.8 41.3-420.2 189.8l13.6 11.4c10.8 9 5.2 5.6 15.7-4.1z" style="fill:none;stroke:#231f20;stroke-width:8.33383;stroke-linecap:butt;stroke-linejoin:miter;stroke-miterlimit:22.9256;stroke-dasharray:none;stroke-opacity:1"/><path id="path286" d="m1038 711.6-6.6-35" style="fill:none;stroke:#231f20;stroke-width:8.33383;stroke-linecap:butt;stroke-linejoin:miter;stroke-miterlimit:22.9256;stroke-dasharray:none;stroke-opacity:1"/><path id="path288" d="M1273.4 718.9c-18.7 6-37.4 13.4-56 30.3-16 12-32.4 22.6-48.5 18.9-34.4-8-31.7-44.5-71-41.7-20.8 1.6-32-20.4-17.6-36.9 18.2-15.5 23-18.2 19-42a141 141 0 0 0-6.8-28.2c-11.5-35.7 24.6-52.3 62-50.4 13.4.7 26.2 6.8 38.6 16.5 26.5 25.7 52.8 51.7 84.9 73.3-6.8 11.8-9.9 29.5-4.6 60.2" style="fill:#fff200;fill-opacity:1;fill-rule:evenodd;stroke:none"/><path id="path290" d="M1273.4 718.9c-18.7 6-37.4 13.4-56 30.3-16 12-32.4 22.6-48.5 18.9-34.4-8-31.7-44.5-71-41.7-20.8 1.6-32-20.4-17.6-36.9 18.2-15.5 23-18.2 19-42a141 141 0 0 0-6.8-28.2c-11.5-35.7 24.6-52.3 62-50.4 13.4.7 26.2 6.8 38.6 16.5 26.5 25.7 52.8 51.7 84.9 73.3-6.8 11.8-9.9 29.5-4.6 60.2z" style="fill:none;stroke:#231f20;stroke-width:8.33383;stroke-linecap:butt;stroke-linejoin:miter;stroke-miterlimit:22.9256;stroke-dasharray:none;stroke-opacity:1"/><path id="path292" d="M1134.5 576a47 47 0 0 0-9.4 25c-1 10 0 21.3 2.5 33.8 8.4 18 6.8 44.2 7.4 70 .2 21.3 33.3 32.6 55.7 26 19.8-6 37-31.5 60.7-41.2a99.9 99.9 0 0 1 17-5.5c-.6 8.6 0 19 2.1 31.6l-.4 1.5a139 139 0 0 0-54 28.9c-15.5 11.5-31.4 21.7-47.1 18.2-33.4-7.7-30.8-42.8-69-40-20.3 1.4-31.2-19.7-17.2-35.5 17.7-15 22.4-17.6 18.5-40.4a134.6 134.6 0 0 0-6.7-27.2c-8.9-27.3 11.6-43 38.7-47.3l1.2 2.1" style="fill:#00a650;fill-opacity:1;fill-rule:evenodd;stroke:none"/><path id="path294" d="M1103.6 728.4c-45.1-3.5-74 6.9-120 66-37.4 48.3-48.2 98.7-104.6 130.8-58.1 33-129.4 36-185 25.4-82.4-15.7-148.5-84.6-142.7-171.7 6.6-100.5 128.6-162 242-111-27.7 3-62 35.8-97 71C621.6 724.5 548 853 646.2 913.2c59 26.5 112.3 32.3 156.8 4 28.9-18.4 34.7-38.8 50.7-67 48.3-84.8 101.8-153 219.2-154-9.6 16-1 26.1 17.9 29.7 9.8.7 3 1.7 12.8 2.4" style="fill:#fff200;fill-opacity:1;fill-rule:evenodd;stroke:none"/><path id="path296" d="M1103.6 728.4c-45.1-3.5-74 6.9-120 66-37.4 48.3-48.2 98.7-104.6 130.8-58.1 33-129.4 36-185 25.4-82.4-15.7-148.5-84.6-142.7-171.7 6.6-100.5 128.6-162 242-111-27.7 3-62 35.8-97 71C621.6 724.5 548 853 646.2 913.2c59 26.5 112.3 32.3 156.8 4 28.9-18.4 34.7-38.8 50.7-67 48.3-84.8 101.8-153 219.2-154-9.6 16-1 26.1 17.9 29.7 9.8.7 3 1.7 12.8 2.4z" style="fill:none;stroke:#231f20;stroke-width:8.33383;stroke-linecap:round;stroke-linejoin:round;stroke-miterlimit:22.9256;stroke-dasharray:none;stroke-opacity:1"/><path id="path298" d="M749.2 684.9c-49.6-7.5-90.7-6.4-127.1 26-66.8 59-67.3 159.2 12.3 208.3 32.4 20 75.8 28.7 128.4 28.5a351.7 351.7 0 0 0 81.3-11.9c35.5-9.5 61-28.5 81.9-59.3 18.2-26.9 31-57 55.4-84.1 51.6-57 70.6-66.6 109-64.9-9.8-.6 3.3.1-6.5-.6-11.6-4.5-16.7-13.3-14.8-24.1C921 706 915.4 914.6 776 930c-38.5 12.4-82.3 4.6-129.8-16.8-98.3-60.2-24.6-188.7 50.1-174.5 20.2-20.2 32.7-39.4 51.3-52.8" style="fill:#00a650;fill-opacity:1;fill-rule:evenodd;stroke:none"/><path id="path300" d="M694.8 782c126.4-99.3 276-111.9 393.2-105.6 17-11.8 9.5-20.9 7.8-34C940.2 659.6 780 637 665.5 774.7l13.6 11.5c10.8 9 4.5 4.7 15.7-4.1" style="fill:#d2cb54;fill-opacity:1;fill-rule:evenodd;stroke:none"/><path id="path302" d="M694.8 782c126.4-99.3 276-111.9 393.2-105.6 17-11.8 9.5-20.9 7.8-34C940.2 659.6 780 637 665.5 774.7l13.6 11.5c10.8 9 4.5 4.7 15.7-4.1z" style="fill:none;stroke:#231f20;stroke-width:8.33383;stroke-linecap:butt;stroke-linejoin:miter;stroke-miterlimit:22.9256;stroke-dasharray:none;stroke-opacity:1"/><path id="path304" d="M1271.4 676.7a80.9 80.9 0 0 0-55.2 16c-39.2 18.7-60.2 13.7-63-15-1.2-27.2 2.5-50.2 36.3-41.4 18.8 4.9 31.4 17.4 48.4 26.7 16.4 9 33.4 16.9 33.5 13.7" style="fill:#d2cb54;fill-opacity:1;fill-rule:evenodd;stroke:none"/><path id="path306" d="M1271.4 676.7a80.9 80.9 0 0 0-55.2 16c-39.2 18.7-60.2 13.7-63-15-1.2-27.2 2.5-50.2 36.3-41.4 18.8 4.9 31.4 17.4 48.4 26.7 16.4 9 33.4 16.9 33.5 13.7z" style="fill:none;stroke:#231f20;stroke-width:8.33383;stroke-linecap:butt;stroke-linejoin:miter;stroke-miterlimit:22.9256;stroke-dasharray:none;stroke-opacity:1"/><path id="path308" d="M1250 673.2c-5.1-.7-94.1-8.5-94.1-8.5.9 17 5.4 33.7 20.2 36.7 4.6 6.9 76-28.2 74-28.2" style="fill:#fff200;fill-opacity:1;fill-rule:evenodd;stroke:none"/><path id="path310" d="M1250 673.2c-5.1-.7-94.1-8.5-94.1-8.5.9 17 5.4 33.7 20.2 36.7 4.6 6.9 76-28.2 74-28.2z" style="fill:none;stroke:#231f20;stroke-width:8.33383;stroke-linecap:butt;stroke-linejoin:miter;stroke-miterlimit:22.9256;stroke-dasharray:none;stroke-opacity:1"/><path id="path312" d="M1308 759.2c-37.6 32.2-82.4 56-127.5 76-61.8 27.2-127.5 49-191.7 69.9l-.7.2-.6.2c-49.7 20.1-90.6 51.6-118.7 97.6-69.2 113.2-40.2 285.1-17.7 408.7v.3l.1.3c34 159 23.2 315.7-39.9 466l-10.1 24 26 2c326.2 26.2 653.6 19 979.8-4l26.2-1.9-10.1-24.2c-75.7-181.3-66.3-365.6-23.6-554 21.5-100 29.9-216-25-307.4-58-97-155.5-120.6-254-157.4-64.4-24-134.6-53-188.3-96.6l-12.3-10zM828.7 1885.6c61.3-145.8 78-304 41-477.1-35.8-197-61.4-410.3 125-485.4 152.3-49.5 255-89.1 325.5-149.5 47 38.2 107.5 67.6 193.7 99.7 92.5 34.4 189.5 57.5 244.5 149.3 46.2 77.2 47.4 178.5 22.7 293.7-52.7 232.2-41.4 407.2 24.5 565.3-323.2 22.8-648.2 30.3-976.9 4" style="fill:#231f20;fill-opacity:1;fill-rule:evenodd;stroke:none"/><path id="path314" d="M1055.3 753.7c-146.2 158 129.8 92.3 54 30.5.7 52-111 67.4-54-30.5" style="fill:#00a650;fill-opacity:1;fill-rule:evenodd;stroke:none"/><path id="path316" d="m967.7 861.6 31.3-57.8 7 5.4-38.3 52.4" style="fill:#00a650;fill-opacity:1;fill-rule:evenodd;stroke:none"/><path id="path318" d="m1207.4 785 53-39 4 8-57 31" style="fill:#00a650;fill-opacity:1;fill-rule:evenodd;stroke:none"/><path id="path320" d="m836.2 840.5 43-79.8 9.8 7.6-52.8 72.2" style="fill:#00a650;fill-opacity:1;fill-rule:evenodd;stroke:none"/><path id="path322" d="M845.8 537.5 989 604.9l-14.3 4.2-129-71.6" style="fill:#00a650;fill-opacity:1;fill-rule:evenodd;stroke:none"/><path id="path324" d="m876.8 509.2 79 58.8-9.3.8-69.7-59.6" style="fill:#00a650;fill-opacity:1;fill-rule:evenodd;stroke:none"/><path id="path326" d="m890.3 586.4-57-20.3 57.8 6.2-.8 14" style="fill:#00a650;fill-opacity:1;fill-rule:evenodd;stroke:none"/><path id="path328" d="M938.8 606.7c-4.7 0-143.9-10.1-143.9-10.1l138.4-.8 5.5 11" style="fill:#00a650;fill-opacity:1;fill-rule:evenodd;stroke:none"/><path id="path330" d="M843.4 615.3c-5.5 4.7-61.8 17.2-61.8 17.2l47.7-26.6 14.1 9.4" style="fill:#00a650;fill-opacity:1;fill-rule:evenodd;stroke:none"/><path id="path332" d="m900.5 625.5-108 24.2 97.8-34.4 10.2 10.2" style="fill:#00a650;fill-opacity:1;fill-rule:evenodd;stroke:none"/><path id="path334" d="M1051.4 625.5c-203.6-81-45.4-170.2 17.2-54-121.1-68.7-111.2-2.5-17.2 54" style="fill:#00a650;fill-opacity:1;fill-rule:evenodd;stroke:none"/><path id="path336" d="M1333 1606.7c-124.3-67.5-203.7-159.7-122.2-339.8a416.2 416.2 0 0 0 213.2 72.3c-124.2 69.8-122.8 165.5-91 267.5" style="fill:#ffffff;fill-opacity:1;fill-rule:evenodd;stroke:none"/><path id="path338" d="M1333 1606.7c-124.3-67.5-203.7-159.7-122.2-339.8a416.2 416.2 0 0 0 213.2 72.3c-124.2 69.8-122.8 165.5-91 267.5z" style="fill:none;stroke:#231f20;stroke-width:9.44883;stroke-linecap:round;stroke-linejoin:round;stroke-miterlimit:22.9256;stroke-dasharray:none;stroke-opacity:1"/><path id="path340" d="m803.6 865.5 29.5-79.7 11 7.5-40.5 72.2" style="fill:#00a650;fill-opacity:1;fill-rule:evenodd;stroke:none"/><path id="path342" d="M671.2 1567.7c-1.5-209.7-8.6-416.5-16.3-623 46.6-2 89.4-12.3 117.4-54.6-15.4 227-28.4 454-40.7 681-15-21.2-36.3-18-60.4-3.4" style="fill:#e39125;fill-opacity:1;fill-rule:evenodd;stroke:none"/><path id="path344" d="M671.2 1567.7c-1.5-209.7-8.6-416.5-16.3-623 46.6-2 89.4-12.3 117.4-54.6-15.4 227-28.4 454-40.7 681-15-21.2-36.3-18-60.4-3.4z" style="fill:none;stroke:#231f20;stroke-width:16.6677;stroke-linecap:butt;stroke-linejoin:miter;stroke-miterlimit:22.9256;stroke-dasharray:none;stroke-opacity:1"/><path id="path346" d="M669.7 1373c-.1-4.7 49.6-14.7 51.9-11.2a166.3 166.3 0 0 0-53.2-4.8l1.3 16" style="fill:#231f20;fill-opacity:1;fill-rule:evenodd;stroke:none"/><path id="path348" d="M669.7 1330c-.1-4.7 49.6-14.7 51.9-11.2a166.3 166.3 0 0 0-53.2-4.8l1.3 16" style="fill:#231f20;fill-opacity:1;fill-rule:evenodd;stroke:none"/><path id="path350" d="M667.6 1208c-.2-5.6 57.8-17.2 60.5-13.1-20.7-5-41.3-7.3-62-5.6l1.5 18.7" style="fill:#231f20;fill-opacity:1;fill-rule:evenodd;stroke:none"/><path id="path352" d="M663 1039.5c-.2-5.6 57.8-17.2 60.5-13.1a195 195 0 0 0-62-5.6l1.5 18.7" style="fill:#231f20;fill-opacity:1;fill-rule:evenodd;stroke:none"/><path id="path354" d="M751.8 1161.8c.2-7-72.6-21.6-76-16.5 26-6.3 52-9.1 77.9-7l-2 23.5" style="fill:#231f20;fill-opacity:1;fill-rule:evenodd;stroke:none"/><path id="path356" d="M759.4 1026c.3-8.6-91-26.9-95.2-20.5 32.5-8 65-11.5 97.6-8.8l-2.4 29.4" style="fill:#231f20;fill-opacity:1;fill-rule:evenodd;stroke:none"/><path id="path358" d="M743.6 1325.6c.3-7-72.5-21.5-76-16.4 26-6.3 52-9.2 78-7l-2 23.4" style="fill:#231f20;fill-opacity:1;fill-rule:evenodd;stroke:none"/><path id="path360" d="M738 1414.2c.3-6-62.8-18.6-65.7-14.3a211 211 0 0 1 67.4-6l-1.6 20.3" style="fill:#231f20;fill-opacity:1;fill-rule:evenodd;stroke:none"/><path id="path362" d="M733.8 1463c.1-4.6-49-14.5-51.3-11a162 162 0 0 1 52.6-4.7l-1.3 15.8" style="fill:#231f20;fill-opacity:1;fill-rule:evenodd;stroke:none"/><path id="path364" d="M732.6 1525.8c.2-4.7-49-14.5-51.2-11.1 17.5-4.2 35-6.2 52.5-4.7l-1.3 15.8" style="fill:#231f20;fill-opacity:1;fill-rule:evenodd;stroke:none"/><path id="path366" d="M669.7 1450.9c-.1-4.8 49.6-14.7 51.9-11.3a166.6 166.6 0 0 0-53.2-4.7l1.3 16" style="fill:#231f20;fill-opacity:1;fill-rule:evenodd;stroke:none"/><path id="path368" d="M675.5 1513.6c-.1-4.7 49.6-14.6 51.9-11.2a166.7 166.7 0 0 0-53.2-4.8l1.3 16" style="fill:#231f20;fill-opacity:1;fill-rule:evenodd;stroke:none"/><path id="path370" d="M736.4 1441c.1-3.6-37.2-11-39-8.5a125 125 0 0 1 40-3.6l-1 12" style="fill:#231f20;fill-opacity:1;fill-rule:evenodd;stroke:none"/><path id="path372" d="M736.4 1502.6c.1-3.6-37.2-11-39-8.5a125 125 0 0 1 40-3.6l-1 12" style="fill:#231f20;fill-opacity:1;fill-rule:evenodd;stroke:none"/><path id="path374" d="M1154.2 643.9c-23-63 73.2-11 103.5 25-14.5-5.5-29-13.2-53.4-28.6-26.2-18.2-41.5-6.7-50.1 3.6" style="fill:#00a650;fill-opacity:1;fill-rule:evenodd;stroke:none"/><path id="path376" d="m763.3 822.8-22.9-27.5" style="fill:none;stroke:#231f20;stroke-width:8.33383;stroke-linecap:butt;stroke-linejoin:miter;stroke-miterlimit:22.9256;stroke-dasharray:none;stroke-opacity:1"/><path id="path378" d="m837.6 769.6-22.9-27.4" style="fill:none;stroke:#231f20;stroke-width:8.33383;stroke-linecap:butt;stroke-linejoin:miter;stroke-miterlimit:22.9256;stroke-dasharray:none;stroke-opacity:1"/><path id="path380" d="M924.4 730.9 912 697.4" style="fill:none;stroke:#231f20;stroke-width:8.33383;stroke-linecap:butt;stroke-linejoin:miter;stroke-miterlimit:22.9256;stroke-dasharray:none;stroke-opacity:1"/><path id="path382" d="m753.6 742.2-22.9-27.5" style="fill:none;stroke:#231f20;stroke-width:8.33383;stroke-linecap:butt;stroke-linejoin:miter;stroke-miterlimit:22.9256;stroke-dasharray:none;stroke-opacity:1"/><path id="path384" d="m825.9 706.4-12-33.7" style="fill:none;stroke:#231f20;stroke-width:8.33383;stroke-linecap:butt;stroke-linejoin:miter;stroke-miterlimit:22.9256;stroke-dasharray:none;stroke-opacity:1"/><path id="path386" d="M916.5 686.4 912 651" style="fill:none;stroke:#231f20;stroke-width:8.33383;stroke-linecap:butt;stroke-linejoin:miter;stroke-miterlimit:22.9256;stroke-dasharray:none;stroke-opacity:1"/><path id="path388" d="m1033.7 676 .6-35.7" style="fill:none;stroke:#231f20;stroke-width:8.33383;stroke-linecap:butt;stroke-linejoin:miter;stroke-miterlimit:22.9256;stroke-dasharray:none;stroke-opacity:1"/><path id="path390" d="M1293.7 1056.8c21.4 24.3 48.7 40.5 104.6 18.2 28.3-8.6 55.9-14.2 78 1.5-12.3-11.8-12.8-30-72.7-16-45.2 17.1-79 9.7-110-3.7" style="fill:#99d420;fill-opacity:1;fill-rule:evenodd;stroke:none"/><path id="path392" d="M1568.1 1138c21.5 24.2 48.8 40.5 104.7 18.1 28.3-8.6 55.9-14.2 78 1.6-12.3-11.8-12.9-30-72.7-16-45.2 17-79 9.6-110-3.8" style="fill:#99d420;fill-opacity:1;fill-rule:evenodd;stroke:none"/><path id="path394" d="M977.5 1026.2c17.6 20 40.1 33.5 86.2 15 23.4-7 46-11.7 64.4 1.3-10.2-9.7-10.6-24.8-60-13.1-37.3 14-65 7.9-90.6-3.2" style="fill:#99d420;fill-opacity:1;fill-rule:evenodd;stroke:none"/><path id="path396" d="M1523.4 1049c29.3-28.3 58-28 85.9 1-31.3-17.5-37.6-20-85.9-1" style="fill:#99d420;fill-opacity:1;fill-rule:evenodd;stroke:none"/><path id="path398" d="M1370.2 978.4c29.4-28.3 58-28 85.9 1-31.3-17.4-37.5-19.9-85.9-1" style="fill:#99d420;fill-opacity:1;fill-rule:evenodd;stroke:none"/><path id="path400" d="M1220 902.6c29.4-28.3 58-28 86 1-31.4-17.5-37.6-20-86-1" style="fill:#99d420;fill-opacity:1;fill-rule:evenodd;stroke:none"/><path id="path402" d="M1038.1 978.4c29.3-28.3 58-28 85.9 1-31.3-17.4-37.6-19.9-85.9-1" style="fill:#99d420;fill-opacity:1;fill-rule:evenodd;stroke:none"/><path id="path404" d="M925.1 1027c29.4-28.3 58-28 85.9 1-31.3-17.5-37.6-20-85.9-1" style="fill:#99d420;fill-opacity:1;fill-rule:evenodd;stroke:none"/><path id="path406" d="M1041.9 1112.2c40.7-39.2 80.3-38.7 119 1.5-43.4-24.3-52-27.7-119-1.5" style="fill:#99d420;fill-opacity:1;fill-rule:evenodd;stroke:none"/><path id="path408" d="M1213.3 1056.9c40.6-39.2 80.3-38.8 119 1.4-43.4-24.2-52-27.6-119-1.4" style="fill:#99d420;fill-opacity:1;fill-rule:evenodd;stroke:none"/><path id="path410" d="M1426.3 972.8c14.6 16.5 33.2 27.5 71.3 12.3 19.2-5.8 38-9.6 53.1 1-8.4-8-8.8-20.4-49.5-10.8a92.3 92.3 0 0 1-74.9-2.5" style="fill:#99d420;fill-opacity:1;fill-rule:evenodd;stroke:none"/><path id="path412" d="M1584 1049.3c14.7 16.5 33.3 27.6 71.3 12.4 19.2-5.8 38-9.7 53.1 1-8.4-8-8.8-20.4-49.5-10.8a92.3 92.3 0 0 1-74.8-2.6" style="fill:#99d420;fill-opacity:1;fill-rule:evenodd;stroke:none"/><path id="path414" d="M1264.8 901.5c14.6 16.5 33.2 27.6 71.2 12.4 19.3-6 38-9.7 53.2 1-8.4-8-8.8-20.4-49.5-10.8a92.3 92.3 0 0 1-74.9-2.6" style="fill:#99d420;fill-opacity:1;fill-rule:evenodd;stroke:none"/><path id="path416" d="M1090.4 977.3c14.6 16.5 33.2 27.6 71.3 12.4 19.2-5.9 38-9.7 53 1-8.3-8-8.7-20.4-49.4-10.8a92.3 92.3 0 0 1-74.9-2.6" style="fill:#99d420;fill-opacity:1;fill-rule:evenodd;stroke:none"/><path id="path418" d="M954.7 1155.4c21.4 24.3 48.8 40.5 104.6 18.2 28.4-8.7 56-14.2 78.2 1.5-12.4-11.8-13-30-72.8-16-45.2 17-79 9.6-110-3.7" style="fill:#99d420;fill-opacity:1;fill-rule:evenodd;stroke:none"/><path id="path420" d="M1120 1106.8c21.4 24.3 48.8 40.6 104.7 18.2 28.3-8.6 55.8-14.2 78 1.6-12.3-11.8-12.9-30-72.7-16-45.2 17-79 9.6-110-3.8" style="fill:#99d420;fill-opacity:1;fill-rule:evenodd;stroke:none"/><path id="path422" d="M1359.6 1163c21.4 24.2 48.8 40.5 104.7 18.2 28.3-8.7 55.8-14.3 78 1.5-12.3-11.8-12.9-30-72.7-16-45.2 17-79 9.6-110-3.7" style="fill:#99d420;fill-opacity:1;fill-rule:evenodd;stroke:none"/><path id="path424" d="M1277 1167.5c42.4-41 83.9-40.4 124.3 1.5-45.3-25.3-54.4-28.9-124.3-1.5" style="fill:#99d420;fill-opacity:1;fill-rule:evenodd;stroke:none"/><path id="path426" d="M1489.3 1144.8c42.4-41 83.9-40.5 124.3 1.5-45.3-25.3-54.3-29-124.3-1.5" style="fill:#99d420;fill-opacity:1;fill-rule:evenodd;stroke:none"/><path id="path428" d="M869.8 1155.5c40.6-39.3 80.3-38.8 119 1.4-43.4-24.2-52-27.7-119-1.4" style="fill:#99d420;fill-opacity:1;fill-rule:evenodd;stroke:none"/><path id="path430" d="m1363.8 2116.6 109-11-81.6-73.2 23.1-107.2-94.8 55.2-94.8-55.2 23.2 107.2-81.8 73.1 109.1 11.1 44.3 100.4 44.3-100.4" style="fill:#231f20;fill-opacity:1;fill-rule:evenodd;stroke:none"/><path id="path432" d="m1319.5 2187.7 36.3-82.1 89.3-9.1-67-59.9 19-87.7-77.6 45.1-77.6-45.1 19 87.7-67 59.9 89.4 9 36.2 82.2" style="fill:#ffffff;fill-opacity:1;fill-rule:evenodd;stroke:none"/><path id="path434" d="m994 1776 40.3-34.8-19 65.7s-21.2-29.9-21.2-31" style="fill:#00a650;fill-opacity:1;fill-rule:evenodd;stroke:none"/><path id="path436" d="m994 1776 40.3-34.8-19 65.7s-21.2-29.9-21.2-31z" style="fill:none;stroke:#231f20;stroke-width:8.33383;stroke-linecap:butt;stroke-linejoin:miter;stroke-miterlimit:22.9256;stroke-dasharray:none;stroke-opacity:1"/><path id="path438" d="M970.3 1835.3c-11.6 7-6.1 28.4 1 33.8 9.1 7 13.7-9.7 9.8-16.8 0 0 15.8 25 22.2 18.4 2.4-2.4 3.5-5 4-7.5 1.4-8-.3-40.8-15.9-30.1 0 0-20.2 1.6-21 2.2z" style="fill:none;stroke:#231f20;stroke-width:8.33383;stroke-linecap:butt;stroke-linejoin:miter;stroke-miterlimit:22.9256;stroke-dasharray:none;stroke-opacity:1"/><path id="path440" d="M970.3 1835.3c-11.6 7-6.1 28.4 1 33.8 9.1 7 13.7-9.7 9.8-16.8 0 0 15.8 25 22.2 18.4 2.4-2.4 3.5-5 4-7.5 1.4-8-.3-40.8-15.9-30.1 0 0-20.2 1.6-21 2.2" style="fill:#fff200;fill-opacity:1;fill-rule:evenodd;stroke:none"/><path id="path442" d="M1037.8 1863.9c11.6-4.5 2.5-21.5-6-19.3 0 0 19-7 13.6-15-5.4-8.2-19.4-10.3-21-5.6-.3 1-17.2 9.6-22.2 8.4-16.4-4 2.5 44.4 35.6 31.5z" style="fill:none;stroke:#231f20;stroke-width:8.33383;stroke-linecap:butt;stroke-linejoin:miter;stroke-miterlimit:22.9256;stroke-dasharray:none;stroke-opacity:1"/><path id="path444" d="M1037.8 1863.9c11.6-4.5 2.5-21.5-6-19.3 0 0 19-7 13.6-15-5.4-8.2-19.4-10.3-21-5.6-.3 1-17.2 9.6-22.2 8.4-16.4-4 2.5 44.4 35.6 31.5" style="fill:#fff200;fill-opacity:1;fill-rule:evenodd;stroke:none"/><path id="path446" d="M964.8 1809.5c-14.3 2.8-30.4-19.7-28.9-29.2 2-12.3 19.4-12.3 21.6-3.8 0 0-3.2-20 6.7-19.4 9.8.6 18.6 11.8 15.2 15.6-.6.7-10.4 24.3-8.6 29.2 0 0-4.9 7.4-6 7.6z" style="fill:none;stroke:#231f20;stroke-width:8.33383;stroke-linecap:butt;stroke-linejoin:miter;stroke-miterlimit:22.9256;stroke-dasharray:none;stroke-opacity:1"/><path id="path448" d="M964.8 1809.5c-14.3 2.8-30.4-19.7-28.9-29.2 2-12.3 19.4-12.3 21.6-3.8 0 0-3.2-20 6.7-19.4 9.8.6 18.6 11.8 15.2 15.6-.6.7-10.4 24.3-8.6 29.2 0 0-4.9 7.4-6 7.6" style="fill:#fff200;fill-opacity:1;fill-rule:evenodd;stroke:none"/><path id="path450" d="M966.4 1835c-1 11-19.2 15-25.8 12-8.5-4.1 2.3-13.6 9-13.5 0 0-24.4-2.1-21.8-9.2 2.6-7 9.5-7.5 11.8-10.6 2.5-3.4 22.4-5.1 20.8 5.2 0 0 6 15.2 6 16z" style="fill:none;stroke:#231f20;stroke-width:8.33383;stroke-linecap:butt;stroke-linejoin:miter;stroke-miterlimit:22.9256;stroke-dasharray:none;stroke-opacity:1"/><path id="path452" d="M966.4 1835c-1 11-19.2 15-25.8 12-8.5-4.1 2.3-13.6 9-13.5 0 0-24.4-2.1-21.8-9.2 2.6-7 9.5-7.5 11.8-10.6 2.5-3.4 22.4-5.1 20.8 5.2 0 0 6 15.2 6 16" style="fill:#fff200;fill-opacity:1;fill-rule:evenodd;stroke:none"/><path id="path454" d="M978.5 1836.8c9 0 16.1-7.4 16.1-16.6 0-9.2-7.2-16.7-16.1-16.7-9 0-16.2 7.5-16.2 16.7s7.3 16.6 16.2 16.6z" style="fill:none;stroke:#231f20;stroke-width:8.33383;stroke-linecap:butt;stroke-linejoin:miter;stroke-miterlimit:22.9256;stroke-dasharray:none;stroke-opacity:1"/><path id="path456" d="M978.5 1836.8c9 0 16.1-7.4 16.1-16.6 0-9.2-7.2-16.7-16.1-16.7-9 0-16.2 7.5-16.2 16.7s7.3 16.6 16.2 16.6" style="fill:#fff200;fill-opacity:1;fill-rule:evenodd;stroke:none"/><path id="path458" d="M988.7 1769.3c11.3-4.2 24.2 10.7 20.2 26.3 34-23.7 34.3 45.1-13.6 33.4 3.5-12.8-5-29.1-19.7-29.6-4.5-8.5 2.9-26.4 13-30.2z" style="fill:none;stroke:#231f20;stroke-width:8.33383;stroke-linecap:butt;stroke-linejoin:miter;stroke-miterlimit:22.9256;stroke-dasharray:none;stroke-opacity:1"/><path id="path460" d="M988.7 1769.3c11.3-4.2 24.2 10.7 20.2 26.3 34-23.7 34.3 45.1-13.6 33.4 3.5-12.8-5-29.1-19.7-29.6-4.5-8.5 2.9-26.4 13-30.2" style="fill:#fff200;fill-opacity:1;fill-rule:evenodd;stroke:none"/><path id="path462" d="M1058.2 1736.3c-12.8 14.2-12.7 40.4-3.8 75 6.5-7.7 13-12.4 19.5-14.2 0 0 32.6 21.7 32 17.4 1.7-4.3 0-47.8-2-47.8l16.8-4.9c2.3-8.7-59-32.8-62.5-25.5" style="fill:#00a650;fill-opacity:1;fill-rule:evenodd;stroke:none"/><path id="path464" d="M1058.2 1736.3c-12.8 14.2-12.7 40.4-3.8 75 6.5-7.7 13-12.4 19.5-14.2 0 0 32.6 21.7 32 17.4 1.7-4.3 0-47.8-2-47.8l16.8-4.9c2.3-8.7-59-32.8-62.5-25.5z" style="fill:none;stroke:#231f20;stroke-width:8.33383;stroke-linecap:butt;stroke-linejoin:miter;stroke-miterlimit:22.9256;stroke-dasharray:none;stroke-opacity:1"/><path id="path466" d="m1040.8 1713.4 47.3 73.4" style="fill:none;stroke:#231f20;stroke-width:8.33383;stroke-linecap:butt;stroke-linejoin:miter;stroke-miterlimit:22.9256;stroke-dasharray:none;stroke-opacity:1"/><path id="path468" d="m1070.7 1764.2-6.5 23.4" style="fill:none;stroke:#231f20;stroke-width:8.33383;stroke-linecap:butt;stroke-linejoin:miter;stroke-miterlimit:22.9256;stroke-dasharray:none;stroke-opacity:1"/><path id="path470" d="M1041.4 1713.1c-5.9 18.2-28.7 31.3-63 40.8a41.7 41.7 0 0 0 2.4-24s-35-17.4-31-19c2.9-3.6 41.4-24 42.4-22l-4.1-17.1c6.3-6.4 57.8 34.6 53.3 41.3" style="fill:#00a650;fill-opacity:1;fill-rule:evenodd;stroke:none"/><path id="path472" d="M1041.4 1713.1c-5.9 18.2-28.7 31.3-63 40.8a41.7 41.7 0 0 0 2.4-24s-35-17.4-31-19c2.9-3.6 41.4-24 42.4-22l-4.1-17.1c6.3-6.4 57.8 34.6 53.3 41.3z" style="fill:none;stroke:#231f20;stroke-width:8.33383;stroke-linecap:butt;stroke-linejoin:miter;stroke-miterlimit:22.9256;stroke-dasharray:none;stroke-opacity:1"/><path id="path474" d="m981.7 1712.3 58.4-.4" style="fill:none;stroke:#231f20;stroke-width:8.33383;stroke-linecap:butt;stroke-linejoin:miter;stroke-miterlimit:22.9256;stroke-dasharray:none;stroke-opacity:1"/><path id="path476" d="m999.6 1718-5.5 21.8" style="fill:none;stroke:#231f20;stroke-width:8.33383;stroke-linecap:butt;stroke-linejoin:miter;stroke-miterlimit:22.9256;stroke-dasharray:none;stroke-opacity:1"/><path id="path478" d="M1034.3 1747.7c2.7-5.5 10.9-25.6 25.5-34.8 14.7-9.2 32-2.2 36.4-12 4.4-9.7 5-12.5 5-12.5" style="fill:none;stroke:#231f20;stroke-width:8.33383;stroke-linecap:butt;stroke-linejoin:miter;stroke-miterlimit:22.9256;stroke-dasharray:none;stroke-opacity:1"/><path id="path480" d="M1300.6 1754.6c9 27-64 30.7-73.1 9.7 7.8 10.4 2.4 16.2-9 19.9 40.6 9 20 34-4.1 60 4.4 2 22.4 4 26.9-3 22.7-36.5 33.8-23.5 28.9 24.2 30.2-38.7 33.7-20.9 33.4 5 11.2-24 22.5-24.2 33.8-.8-.1-31-1.6-66.3 19-27-1.9-31 10.5-40 40.2-22.5-12.5-17.5-8.8-32.1 8.5-38.5-2.6-.8-55.9-8.8-63.9-13.5-8-4.6-17.3-6-22.4-10.1-5-4.3-19.5-3.4-18.2-3.4" style="fill:#00a650;fill-opacity:1;fill-rule:evenodd;stroke:none"/><path id="path482" d="M1300.6 1754.6c9 27-64 30.7-73.1 9.7 7.8 10.4 2.4 16.2-9 19.9 40.6 9 20 34-4.1 60 4.4 2 22.4 4 26.9-3 22.7-36.5 33.8-23.5 28.9 24.2 30.2-38.7 33.7-20.9 33.4 5 11.2-24 22.5-24.2 33.8-.8-.1-31-1.6-66.3 19-27-1.9-31 10.5-40 40.2-22.5-12.5-17.5-8.8-32.1 8.5-38.5-2.6-.8-55.9-8.8-63.9-13.5-8-4.6-17.3-6-22.4-10.1-5-4.3-19.5-3.4-18.2-3.4z" style="fill:none;stroke:#231f20;stroke-width:8.33383;stroke-linecap:round;stroke-linejoin:round;stroke-miterlimit:22.9256;stroke-dasharray:none;stroke-opacity:1"/><path id="path484" d="M1300.6 1752c-8.5 12.1-37.1 23.2-67.2.1-21-16-20.7-.6-34.3-3.9 10.9-25 6.5-42.5-13-52.8 17-9.9 35.7-7.3 56.2 7.6a70.3 70.3 0 0 0-5.1-22c20.3 7.3 42.1 38.4 62.6 52.9 0 0 8.9-1.3 8.4 3-.4 4.1-7.6 15.1-7.6 15.1" style="fill:#00a650;fill-opacity:1;fill-rule:evenodd;stroke:none"/><path id="path486" d="M1300.6 1752c-8.5 12.1-37.1 23.2-67.2.1-21-16-20.7-.6-34.3-3.9 10.9-25 6.5-42.5-13-52.8 17-9.9 35.7-7.3 56.2 7.6a70.3 70.3 0 0 0-5.1-22c20.3 7.3 42.1 38.4 62.6 52.9 0 0 8.9-1.3 8.4 3-.4 4.1-7.6 15.1-7.6 15.1z" style="fill:none;stroke:#231f20;stroke-width:8.33383;stroke-linecap:round;stroke-linejoin:round;stroke-miterlimit:22.9256;stroke-dasharray:none;stroke-opacity:1"/><path id="path488" d="M1321.3 1744.9c-11-16.6 49-70.5 63.5-60l.4 13.9c26.4-5.2 44 .3 55.8 13a90.2 90.2 0 0 1-47.4 23.7c4.4 5 5.4 4.8 9.8 9.8-1.1 11.8-84 14.2-82-.4" style="fill:#00a650;fill-opacity:1;fill-rule:evenodd;stroke:none"/><path id="path490" d="M1321.3 1744.9c-11-16.6 49-70.5 63.5-60l.4 13.9c26.4-5.2 44 .3 55.8 13a90.2 90.2 0 0 1-47.4 23.7c4.4 5 5.4 4.8 9.8 9.8-1.1 11.8-84 14.2-82-.4z" style="fill:none;stroke:#231f20;stroke-width:8.33383;stroke-linecap:round;stroke-linejoin:round;stroke-miterlimit:22.9256;stroke-dasharray:none;stroke-opacity:1"/><path id="path492" d="M1297.2 1730.9c-8 2.5-36 17-43.1 8-7.2-8.8-5-15.6-19.9-22.4-14.8-6.7-17.3-7.2-17.3-7.2" style="fill:none;stroke:#231f20;stroke-width:8.33383;stroke-linecap:butt;stroke-linejoin:miter;stroke-miterlimit:22.9256;stroke-dasharray:none;stroke-opacity:1"/><path id="path494" d="M1334.4 1739.4c10.2-11.9 19.5-19 22.5-22.9" style="fill:none;stroke:#231f20;stroke-width:8.33383;stroke-linecap:butt;stroke-linejoin:miter;stroke-miterlimit:22.9256;stroke-dasharray:none;stroke-opacity:1"/><path id="path496" d="M1336.1 1736.8c3.8-1.3 14.4 5.5 27-5.9 12.8-11.4 13.6-12.7 25.5-14.8 11.8-2.1 21.5-1.3 23.6-2.1" style="fill:none;stroke:#231f20;stroke-width:8.33383;stroke-linecap:butt;stroke-linejoin:miter;stroke-miterlimit:22.9256;stroke-dasharray:none;stroke-opacity:1"/><path id="path498" d="M1305.7 1765.6c-.9 2.5-4.7 25-14 33s-16.9 11.8-13 16.9" style="fill:none;stroke:#231f20;stroke-width:8.33383;stroke-linecap:butt;stroke-linejoin:miter;stroke-miterlimit:22.9256;stroke-dasharray:none;stroke-opacity:1"/><path id="path500" d="M1312 1829.8c.5-5 7.6-17.7 2.6-32-5.1-14.5-8.5-19.5-4.7-27.6 3.8-8 3.8-9.3 3.8-9.3" style="fill:none;stroke:#231f20;stroke-width:8.33383;stroke-linecap:butt;stroke-linejoin:miter;stroke-miterlimit:22.9256;stroke-dasharray:none;stroke-opacity:1"/><path id="path502" d="M1338.2 1816.7s6.4-9.7-3-21.1c-9.2-11.4-16-12.7-18.5-22.4-2.6-9.7-3-14.8-3-14.8" style="fill:none;stroke:#231f20;stroke-width:8.33383;stroke-linecap:butt;stroke-linejoin:miter;stroke-miterlimit:22.9256;stroke-dasharray:none;stroke-opacity:1"/><path id="path504" d="m1630.8 1776-40.2-34.8 19 65.7s21.2-29.9 21.2-31" style="fill:#00a650;fill-opacity:1;fill-rule:evenodd;stroke:none"/><path id="path506" d="m1630.8 1776-40.2-34.8 19 65.7s21.2-29.9 21.2-31z" style="fill:none;stroke:#231f20;stroke-width:8.33383;stroke-linecap:butt;stroke-linejoin:miter;stroke-miterlimit:22.9256;stroke-dasharray:none;stroke-opacity:1"/><path id="path508" d="M1654.5 1835.3c11.7 7 6.2 28.4-1 33.8-9.1 7-13.6-9.7-9.7-16.8 0 0-15.9 25-22.3 18.4a14 14 0 0 1-3.9-7.5c-1.4-8 .3-40.8 15.9-30.1 0 0 20.1 1.6 21 2.2z" style="fill:none;stroke:#231f20;stroke-width:8.33383;stroke-linecap:butt;stroke-linejoin:miter;stroke-miterlimit:22.9256;stroke-dasharray:none;stroke-opacity:1"/><path id="path510" d="M1654.5 1835.3c11.7 7 6.2 28.4-1 33.8-9.1 7-13.6-9.7-9.7-16.8 0 0-15.9 25-22.3 18.4a14 14 0 0 1-3.9-7.5c-1.4-8 .3-40.8 15.9-30.1 0 0 20.1 1.6 21 2.2" style="fill:#fff200;fill-opacity:1;fill-rule:evenodd;stroke:none"/><path id="path512" d="M1587 1863.9c-11.5-4.5-2.5-21.5 6-19.3 0 0-19-7-13.6-15 5.4-8.2 19.5-10.3 21-5.6.4 1 17.2 9.6 22.3 8.4 16.4-4-2.6 44.4-35.7 31.5z" style="fill:none;stroke:#231f20;stroke-width:8.33383;stroke-linecap:butt;stroke-linejoin:miter;stroke-miterlimit:22.9256;stroke-dasharray:none;stroke-opacity:1"/><path id="path514" d="M1587 1863.9c-11.5-4.5-2.5-21.5 6-19.3 0 0-19-7-13.6-15 5.4-8.2 19.5-10.3 21-5.6.4 1 17.2 9.6 22.3 8.4 16.4-4-2.6 44.4-35.7 31.5" style="fill:#fff200;fill-opacity:1;fill-rule:evenodd;stroke:none"/><path id="path516" d="M1660 1809.5c14.4 2.8 30.4-19.7 29-29.2-2-12.3-19.4-12.3-21.7-3.8 0 0 3.2-20-6.6-19.4-9.9.6-18.7 11.8-15.3 15.6.7.7 10.4 24.3 8.6 29.2 0 0 5 7.4 6 7.6z" style="fill:none;stroke:#231f20;stroke-width:8.33383;stroke-linecap:butt;stroke-linejoin:miter;stroke-miterlimit:22.9256;stroke-dasharray:none;stroke-opacity:1"/><path id="path518" d="M1660 1809.5c14.4 2.8 30.4-19.7 29-29.2-2-12.3-19.4-12.3-21.7-3.8 0 0 3.2-20-6.6-19.4-9.9.6-18.7 11.8-15.3 15.6.7.7 10.4 24.3 8.6 29.2 0 0 5 7.4 6 7.6" style="fill:#fff200;fill-opacity:1;fill-rule:evenodd;stroke:none"/><path id="path520" d="M1658.5 1835c1 11 19.1 15 25.7 12 8.6-4.1-2.3-13.6-9-13.5 0 0 24.4-2.1 21.9-9.2-2.6-7-9.5-7.5-11.8-10.6-2.5-3.4-22.5-5.1-20.9 5.2 0 0-6 15.2-6 16z" style="fill:none;stroke:#231f20;stroke-width:8.33383;stroke-linecap:butt;stroke-linejoin:miter;stroke-miterlimit:22.9256;stroke-dasharray:none;stroke-opacity:1"/><path id="path522" d="M1658.5 1835c1 11 19.1 15 25.7 12 8.6-4.1-2.3-13.6-9-13.5 0 0 24.4-2.1 21.9-9.2-2.6-7-9.5-7.5-11.8-10.6-2.5-3.4-22.5-5.1-20.9 5.2 0 0-6 15.2-6 16" style="fill:#fff200;fill-opacity:1;fill-rule:evenodd;stroke:none"/><path id="path524" d="M1646.4 1836.8c-9 0-16.2-7.4-16.2-16.6 0-9.2 7.2-16.7 16.2-16.7 8.9 0 16.1 7.5 16.1 16.7s-7.2 16.6-16.1 16.6z" style="fill:none;stroke:#231f20;stroke-width:8.33383;stroke-linecap:butt;stroke-linejoin:miter;stroke-miterlimit:22.9256;stroke-dasharray:none;stroke-opacity:1"/><path id="path526" d="M1646.4 1836.8c-9 0-16.2-7.4-16.2-16.6 0-9.2 7.2-16.7 16.2-16.7 8.9 0 16.1 7.5 16.1 16.7s-7.2 16.6-16.1 16.6" style="fill:#fff200;fill-opacity:1;fill-rule:evenodd;stroke:none"/><path id="path528" d="M1636.2 1769.3c-11.4-4.2-24.2 10.7-20.3 26.3-34-23.7-34.2 45.1 13.6 33.4-3.4-12.8 5-29.1 19.8-29.6 4.4-8.5-3-26.4-13.1-30.2z" style="fill:none;stroke:#231f20;stroke-width:8.33383;stroke-linecap:butt;stroke-linejoin:miter;stroke-miterlimit:22.9256;stroke-dasharray:none;stroke-opacity:1"/><path id="path530" d="M1636.2 1769.3c-11.4-4.2-24.2 10.7-20.3 26.3-34-23.7-34.2 45.1 13.6 33.4-3.4-12.8 5-29.1 19.8-29.6 4.4-8.5-3-26.4-13.1-30.2" style="fill:#fff200;fill-opacity:1;fill-rule:evenodd;stroke:none"/><path id="path532" d="M1566.7 1736.3c12.8 14.2 12.7 40.4 3.8 75a41.7 41.7 0 0 0-19.6-14.2s-32.6 21.7-32 17.4c-1.7-4.3 0-47.8 2.1-47.8l-16.8-4.9c-2.4-8.7 58.9-32.8 62.5-25.5" style="fill:#00a650;fill-opacity:1;fill-rule:evenodd;stroke:none"/><path id="path534" d="M1566.7 1736.3c12.8 14.2 12.7 40.4 3.8 75a41.7 41.7 0 0 0-19.6-14.2s-32.6 21.7-32 17.4c-1.7-4.3 0-47.8 2.1-47.8l-16.8-4.9c-2.4-8.7 58.9-32.8 62.5-25.5z" style="fill:none;stroke:#231f20;stroke-width:8.33383;stroke-linecap:butt;stroke-linejoin:miter;stroke-miterlimit:22.9256;stroke-dasharray:none;stroke-opacity:1"/><path id="path536" d="m1584 1713.4-47.2 73.4" style="fill:none;stroke:#231f20;stroke-width:8.33383;stroke-linecap:butt;stroke-linejoin:miter;stroke-miterlimit:22.9256;stroke-dasharray:none;stroke-opacity:1"/><path id="path538" d="m1554.1 1764.2 6.6 23.4" style="fill:none;stroke:#231f20;stroke-width:8.33383;stroke-linecap:butt;stroke-linejoin:miter;stroke-miterlimit:22.9256;stroke-dasharray:none;stroke-opacity:1"/><path id="path540" d="M1583.5 1713.1c5.9 18.2 28.6 31.3 63 40.8a41.7 41.7 0 0 1-2.5-24s35.1-17.4 31.1-19c-3-3.6-41.4-24-42.5-22l4.2-17.1c-6.4-6.4-57.8 34.6-53.3 41.3" style="fill:#00a650;fill-opacity:1;fill-rule:evenodd;stroke:none"/><path id="path542" d="M1583.5 1713.1c5.9 18.2 28.6 31.3 63 40.8a41.7 41.7 0 0 1-2.5-24s35.1-17.4 31.1-19c-3-3.6-41.4-24-42.5-22l4.2-17.1c-6.4-6.4-57.8 34.6-53.3 41.3z" style="fill:none;stroke:#231f20;stroke-width:8.33383;stroke-linecap:butt;stroke-linejoin:miter;stroke-miterlimit:22.9256;stroke-dasharray:none;stroke-opacity:1"/><path id="path544" d="m1643.2 1712.3-58.5-.4" style="fill:none;stroke:#231f20;stroke-width:8.33383;stroke-linecap:butt;stroke-linejoin:miter;stroke-miterlimit:22.9256;stroke-dasharray:none;stroke-opacity:1"/><path id="path546" d="m1625.3 1718 5.5 21.8" style="fill:none;stroke:#231f20;stroke-width:8.33383;stroke-linecap:butt;stroke-linejoin:miter;stroke-miterlimit:22.9256;stroke-dasharray:none;stroke-opacity:1"/><path id="path548" d="M1590.6 1747.7c-2.7-5.5-10.9-25.6-25.6-34.8-14.6-9.2-32-2.2-36.4-12-4.3-9.7-4.9-12.5-4.9-12.5" style="fill:none;stroke:#231f20;stroke-width:8.33383;stroke-linecap:butt;stroke-linejoin:miter;stroke-miterlimit:22.9256;stroke-dasharray:none;stroke-opacity:1"/><path id="path550" d="M1292.6 1295c-5.6 1.3-27.7 9.9-27.7 9.9s12.3 16 8.6 15.4c-3.7-.6-14.8-16.6-14.8-16.6s-3.7 11-9.9 0c-6.1-11.1-10.5-10.5-10.5-15.5 0-4.9 9.9-3.7 9.9-11 0-7.4 3.7-17.3 4.3-14.2l4.3 18.5s9.3 0 10.5-4.3c1.3-4.4-1.8-1.3-2.4-16.7-.7-15.4 3-3.7 4.9 1.2 1.8 5 7.4 22.8 7.4 22.8z" style="fill:none;stroke:#231f20;stroke-width:8.33383;stroke-linecap:round;stroke-linejoin:round;stroke-miterlimit:22.9256;stroke-dasharray:none;stroke-opacity:1"/><path id="path552" d="M1292.6 1295c-5.6 1.3-27.7 9.9-27.7 9.9s12.3 16 8.6 15.4c-3.7-.6-14.8-16.6-14.8-16.6s-3.7 11-9.9 0c-6.1-11.1-10.5-10.5-10.5-15.5 0-4.9 9.9-3.7 9.9-11 0-7.4 3.7-17.3 4.3-14.2l4.3 18.5s9.3 0 10.5-4.3c1.3-4.4-1.8-1.3-2.4-16.7-.7-15.4 3-3.7 4.9 1.2 1.8 5 7.4 22.8 7.4 22.8l15.4 10.5" style="fill:#231f20;fill-opacity:1;fill-rule:evenodd;stroke:none"/><path id="path554" d="M1325.3 1306.1c0-9.2 3-11.7 8.6-15.4 5.6-3.7 9.3 0 9.3-8s-10-14.2-10-19.1c0-5 17.4 3 17.4 6.8 0 3.7-.7 14.2 3 5 3.7-9.3 9.9-4.4 9.9 4.2 0 8.7-6.8 27.2-11.7 29.6-5 2.5-16.7 6.2-17.9 3.1-1.2-3-10.5-7.4-8.6-6.2z" style="fill:none;stroke:#231f20;stroke-width:8.33383;stroke-linecap:round;stroke-linejoin:round;stroke-miterlimit:22.9256;stroke-dasharray:none;stroke-opacity:1"/><path id="path556" d="M1325.3 1306.1c0-9.2 3-11.7 8.6-15.4 5.6-3.7 9.3 0 9.3-8s-10-14.2-10-19.1c0-5 17.4 3 17.4 6.8 0 3.7-.7 14.2 3 5 3.7-9.3 9.9-4.4 9.9 4.2 0 8.7-6.8 27.2-11.7 29.6-5 2.5-16.7 6.2-17.9 3.1-1.2-3-10.5-7.4-8.6-6.2" style="fill:#231f20;fill-opacity:1;fill-rule:evenodd;stroke:none"/><path id="path558" d="M1412.8 1247c-4.2 27.8-23.7 48.1-55.5 61.6-1.2.5-4 1.6-3 2.5 3.7 3.3 9 4.5 13.5 6.8 0 0-1.8 4.3-8.6 4.3s-15.4.6-15.4.6c-2 4.7-1 11.3-3.1 16 0 0-19.7.6-19.7-6.2 0-6.7 1.2-9.2 1.2-12.3 0-3-13.6-14.2-13.6-14.2l16.7 1.3c8.6.6 16-.7 16-.7s6.2-6.7 6.8-12.3c.6-5.5 12.3-7.4 12.3-13.5 0-6.2 1.3-9.3 1.3-14.8 0-5.6 12.3.6 12.3.6 6-2 23.3-3 17.9-6.2-6.6-3.7-15.7 7.5-22.2 3.7-6-3.4-3.7-13.1-5.6-19.7 0 0 13.6-3.1 17.3-3.1 3.7 0 31.7 3.6 31.4 5.5z" style="fill:none;stroke:#231f20;stroke-width:8.33383;stroke-linecap:round;stroke-linejoin:round;stroke-miterlimit:22.9256;stroke-dasharray:none;stroke-opacity:1"/><path id="path560" d="M1412.8 1247c-4.2 27.8-23.7 48.1-55.5 61.6-1.2.5-4 1.6-3 2.5 3.7 3.3 9 4.5 13.5 6.8 0 0-1.8 4.3-8.6 4.3s-15.4.6-15.4.6c-2 4.7-1 11.3-3.1 16 0 0-19.7.6-19.7-6.2 0-6.7 1.2-9.2 1.2-12.3 0-3-13.6-14.2-13.6-14.2l16.7 1.3c8.6.6 16-.7 16-.7s6.2-6.7 6.8-12.3c.6-5.5 12.3-7.4 12.3-13.5 0-6.2 1.3-9.3 1.3-14.8 0-5.6 12.3.6 12.3.6 6-2 23.3-3 17.9-6.2-6.6-3.7-15.7 7.5-22.2 3.7-6-3.4-3.7-13.1-5.6-19.7 0 0 13.6-3.1 17.3-3.1 3.7 0 31.7 3.6 31.4 5.5" style="fill:#e39125;fill-opacity:1;fill-rule:evenodd;stroke:none"/><path id="path562" d="M1270.4 1288.9c2.4-8.5 4.3-34.6 4.3-34.6s4.3-1.8 8.6 1.9c4.4 3.7 8.7 22.2 8.7 22.2l19.7-4.3s-13-21-13-24c0-3.1 10.5 1.2 14.2 4.9a292 292 0 0 1 16 22.2l-22.7 8.6s-17.3 9.2-20.4 10.5c-3.4 1.3-22.4 8-22.2 6.1l6.8-13.5z" style="fill:none;stroke:#231f20;stroke-width:8.33383;stroke-linecap:round;stroke-linejoin:round;stroke-miterlimit:22.9256;stroke-dasharray:none;stroke-opacity:1"/><path id="path564" d="M1270.4 1288.9c2.4-8.5 4.3-34.6 4.3-34.6s4.3-1.8 8.6 1.9c4.4 3.7 8.7 22.2 8.7 22.2l19.7-4.3s-13-21-13-24c0-3.1 10.5 1.2 14.2 4.9a292 292 0 0 1 16 22.2l-22.7 8.6s-17.3 9.2-20.4 10.5c-3.4 1.3-22.4 8-22.2 6.1l6.8-13.5" style="fill:#e39125;fill-opacity:1;fill-rule:evenodd;stroke:none"/><path id="path566" d="M1118.1 1237.7c6.8-8.6 27.1-16 27.1-16l363.1-1 10 17.6s-400.8 0-400.2-.6" style="fill:#e39125;fill-opacity:1;fill-rule:evenodd;stroke:none"/><path id="path568" d="M1118.1 1237.7c6.8-8.6 27.1-16 27.1-16l363.1-1 10 17.6s-400.8 0-400.2-.6z" style="fill:none;stroke:#231f20;stroke-width:8.33383;stroke-linecap:round;stroke-linejoin:round;stroke-miterlimit:22.9256;stroke-dasharray:none;stroke-opacity:1"/><path id="path570" d="M1269.8 1262.4c-3.1-5.6-9.3-11.1-6.2-18.5 3.1-7.4 1.9-10.5 1.9-23.5v-24.6" style="fill:none;stroke:#231f20;stroke-width:8.33383;stroke-linecap:round;stroke-linejoin:round;stroke-miterlimit:22.9256;stroke-dasharray:none;stroke-opacity:1"/><path id="path572" d="M1283.3 1267.3s7.4-14.2 7.4-33.3v-34" style="fill:none;stroke:#231f20;stroke-width:8.33383;stroke-linecap:round;stroke-linejoin:round;stroke-miterlimit:22.9256;stroke-dasharray:none;stroke-opacity:1"/><path id="path574" d="M1301.8 1267.3s1.3-24.7 1.3-38.8v-27.2" style="fill:none;stroke:#231f20;stroke-width:8.33383;stroke-linecap:round;stroke-linejoin:round;stroke-miterlimit:22.9256;stroke-dasharray:none;stroke-opacity:1"/><path id="path576" d="M1327.1 1300.7s3.7.5 5.6-3.8c1.8-4.3 3.7-4.3 6.1-8.6 2.5-4.4 3.1-6.2-4.3-14.2-7.4-8-29-33.3-29-33.3s2.5-14.8 2.5-22.8v-23.5" style="fill:none;stroke:#231f20;stroke-width:8.33383;stroke-linecap:round;stroke-linejoin:round;stroke-miterlimit:22.9256;stroke-dasharray:none;stroke-opacity:1"/><path id="path578" d="M1327.1 1298.5c9.3-12.4 14.2-6.5 15.4-14 1.3-7.3-6.7-8-13.5-21-6.8-12.9-13-25.2-13-25.2l2.5-30.2.6-8" style="fill:none;stroke:#231f20;stroke-width:8.33383;stroke-linecap:round;stroke-linejoin:round;stroke-miterlimit:22.9256;stroke-dasharray:none;stroke-opacity:1"/><path id="path580" d="m1327.1 1251.9 3.1-52.4" style="fill:none;stroke:#231f20;stroke-width:8.33383;stroke-linecap:round;stroke-linejoin:round;stroke-miterlimit:22.9256;stroke-dasharray:none;stroke-opacity:1"/><path id="path582" d="m1332.7 1263.6 9.2-66" style="fill:none;stroke:#231f20;stroke-width:8.33383;stroke-linecap:round;stroke-linejoin:round;stroke-miterlimit:22.9256;stroke-dasharray:none;stroke-opacity:1"/><path id="path584" d="M1353.6 1248.8s-2.4-32-2.4-37v-17.3" style="fill:none;stroke:#231f20;stroke-width:8.33383;stroke-linecap:round;stroke-linejoin:round;stroke-miterlimit:22.9256;stroke-dasharray:none;stroke-opacity:1"/><path id="path586" d="M1360.4 1247s3.7-22.2 3.7-29.6v-21.6" style="fill:none;stroke:#231f20;stroke-width:8.33383;stroke-linecap:round;stroke-linejoin:round;stroke-miterlimit:22.9256;stroke-dasharray:none;stroke-opacity:1"/><path id="path588" d="M1369 1245.7c0-3.7 5.6-25.3 5-30.2l-1.9-16" style="fill:none;stroke:#231f20;stroke-width:8.33383;stroke-linecap:round;stroke-linejoin:round;stroke-miterlimit:22.9256;stroke-dasharray:none;stroke-opacity:1"/><path id="path590" d="m1183.1 1350-14.3-2 26.7-86.4-2-15.6 28.6-.6 27.3 17.5-45.5 9.1 9.8 11c-13.4 8.3-21 31-27.3 56.6l-3.3 10.4" style="fill:#231f20;fill-opacity:1;fill-rule:evenodd;stroke:none"/></g><!-- app4joy -->
</svg>