<svg xmlns="http://www.w3.org/2000/svg" id="svg90" width="1000" height="700" version="1.1" viewBox="-1000 -700 2000 1400"><g id="g91"><rect id="rect1" width="100%" height="100%" x="-50%" y="-50%" fill="#da251d"/><path id="path1" fill="#00923f" d="M-1000 0v-700h2000z"/><path id="path2" fill="#fff500" d="M1000 0v700h-2000z"/><ellipse id="ellipse2" fill="#fff" rx="300" ry="350"/></g><g id="g90"><path id="path3" d="M87.9 228.2c-3.9-2-3.7-6.4-3.8-9.8-.2-3-.2-3-.4-3-3-.7-6.6-1.8-7-4.7L78 206a46 46 0 0 1-12.1 2 67 67 0 0 1-12.3-3c-7 1-14 2.1-20.9 3.4-1.8 1.9-3.8 3.2-6.1 1.8l-.1-.1c-1.8.3-3.5 1-5 1.8-5 6.9-9.5-6.1-13-6.2-1.4-.7-1.3-.3-2.6.4-8.5.9-7.5-11.3 1-9 .2-1 0-1 .8-1.3 1.6-4.4 1.5-12.8 8.4-9.2.9-.4 5.7.2 7.3.2 1.6-1.8 3.7-2.2 5.7.1 3.3 2-.8-3.3-1-3.5-6.6-1.3-6.6-1.3-8.9-1.6-2.6 1.4-3.5-1.2-6-1-4.1 2.4-5 1-5.8-2.8-.1-4.2 0-12.9 5.5-13.5 1.3.3 2.3.8 2.7 2.5l2.2.7c.8-.2 2.4-.7 2.9.9l.4.1-2.2-7.6c-.8-5.4-1.3-10.6-1.8-15.7-.1-12.5.6-24.6 1.6-36.9.1-7.7 1-15.6 2.2-23.1.2-8.6.6-17.4 2-25.6.3-1 1.8-5.3.8-6.4-2-1.5-.8-1.5-1-3 .4-.4 2-.8 2.1-1-.8-.4-1.6 0-2.1-.3l-1.3-2.6h-.3c.4 2 2 3.6-.7 4.7-1.3 0-3.5-2.2-3.2-2.8.8 0 1.3 1.2 2.3 0 .3-1.2-.2-2-.3-2.8-1.4 0-1.5.4-2 1.5h-.3c-.6-1.2-.3-2 .5-2.6l1.9-.1c-.7-.8-2-.5-2.6-.6-.7-.7-5.3-8.2-5.3-8.9l.4-.1c2.4 1.7 5 3.3 8 5 .2.2.9 3.6 1.5 3.3 0-2.1-.3-2.8 2.2-2.5l.3.3c-.6.8-1.5.3-1.5 1.6.8 0 3 1.9 2.8-.9l-.3-.6c.8-.7 2.5 1.3 3 2.2-.1 3-3 1.4-4.6 1.7.6.2 2.2.7 2.8 1.2 0 0 0 1.2.4 1.5.5-1.4.1-1.4 1.3-1.5 0 0 .2.1.2.3l1-.2c1 1 2.3 2.6.5 3.6l-1.2-.2c.1.6 1.4 1.6 2.1 2.3.8-.3 2.9-7.4 2.9-7.4 1.6-3.9 3-7.5 6.3-10.2 0-.4-1.6-1.5-1.7-1.5l-.2-1.8c-.8.2 0 2.4-.5 3.7-1.8 2.7-3.6 0-3.8-1.7 1.4-.1 2.4.7 2.5-1.9l-.4-.8c-1 0-1.3-.2-2 .6-.7 0-.3-1.2-.2-1.4.5-.8 1.8-1.1 2.6-.2h.4c0-1-2.7-1.6-3-1.8-.8-2.1-4.2-9.4-4.1-10.2l.3-.2c2.5 2.1 5.4 5 8.4 7.3l.5 3.5c.6-.4-.3-4 2.6-2.4 0 .7-1.3.3-1.3 2.1.6.5 1.5 2 2.8.8.4-.8 0-1.3 0-2h.4c.6.6 1.9 2 1.7 3.4-1.3 2.5-4-.4-5-.1 0 .2 1.3.9 1.8 1.3 1.1 4 4.7 8.1 7.2 11.8l4.1 6 7.1 10.5C67 69.5 66 69 67.6 70.2c2.4-1.9 4.8-4 7.2-5.7 0-.3 0-.3-3.5-8.2-1.7-.8-1-1-1-2.3l-2-4.3c-1-.2-1.3 0-2-.4-2.9-9.3-6.7-18.1-9.2-27h.2c1.5 1.5 6.4 15.8 8.1 20 .4 1.4 1.3 3.6 2.1 5.1.3 0 .3 0 .5-.2l-.2-.4c.5-.5.9-.5 1.7-.7 1.4 2 2 4.5 3.1 7.2.8.1 1.8.6 1.1 2 0 1.8 2.2 5.5 3.2 7.9 3.3-1.3 6.5-3.3 10-4.5L85 50.2c-1.1-.6-1-1.2-.6-2l-1.1-5.7c-1 .1-1.8 0-2.4-.4-1-6.3-2.1-13.6-4.8-29.6v-1.2h.4L82 37.6l.7 2.6h.3c.3-.9.7-1 2-.8l.7 2c.1 1.6.3 4.2 1.2 6 1.6.7.7 1.4.4 2.5 1.3 5.7 1.3 5.7 1.6 8 2.6 0 6.2-.8 9.2-1l.2-19.6c-.2-2.2-2.2-3-3-1.3v1l-.2.2c-5-3.2.8-7.9 3.4-3.6h.3c.4-.8.4-1.6.5-2.4h-6c-3.5-2.3 5.7-1.8 6-1.8 0-1-1.3-2.3-1.6-2.8 0-2 .8-11.8 2.1-26.6l.6-.1 2 26.5c-.7 1-1 1.9-1.5 3h6.6c3.5 1.8-5.5 1.8-6.4 1.8V33h.1c2.6-1.6 6.3-1.6 5.1 2.7-.6 1.3-1 .5-1-.2-1.3-1-2.3 0-3.3.4l-.3 20.8c2.8.2 6 1 9.2 1.2a93 93 0 0 0 1.6-7.6c-1.6-1.6.3-1.4.7-2.2L115 41c.8-1 0-2.7 2.1-1.7v1l.4-.2c.3-.6.9-3.8 1.5-6.4 3.5-16.4 4.4-22.6 5.2-22.4l-4.5 29c-.5 1.5-.8 2.6-2.7 2.6-.3 1.3-1.5 4.8-1.2 6.1 1.6 1.4-.1 1.3-.6 2-.5 2.4-1.5 5.1-1.6 7.8 3 1.5 6.4 2.4 9.8 4.3.4 0 3.1-6.7 3.3-7.3-.2-1.8-.7-2 1-2.4.6-1.2 2.4-6.5 3.8-7.6.7 0 1.3-.1 1.5 1l.3-.3c1.4-5.2 5-10.3 6.3-15.3l5.4-12.9h.4l-9.8 28.3c-.5 1.3-1.4 4.3-3.3 3.3h-.4L130 54c0 1.3.5 1.7-1 2.4-.6 1.3-3.7 7.5-3.4 8.1 2.5 1.7 5 3.7 7.6 6 .2-.2 2-2.5 2-3 6.9-9.8 13.7-20.1 20.3-30 .3-.2 3-4.6 3.3-4.8 0-2.5.4-1.8 2.2-3.3v-.3c-2.1 1-5.2 2.2-5.2-1 .5-1.4 1-1.5 2-2.3.7.7-1.5 2.2 1.7 2.6.6-.2 1.6-1.7 1.6-2.2-.8-.8-.8-.6-1.4-.7v-.3c2-1 2.4.2 2.7 2.2.5-1 .4-2.4.4-3.4 2.5-1.9 4.6-3.8 7-6 .8-.1-1.7 6-2.1 7l-.5 1.8-2.6 1.7v.3c1.1-.8 3-.5 3 1.5h-.2c-1-.8-1.2-.7-2-.6-.4.9-1.7 3.2.8 3 .5-.1.4-.3 1-.3.1 1.3-.7 2.4-1.8 3-3-.4-2.2-3-2-4.8l-.4-.2c-.2.2-.6 2.1-.7 2.9-.3.2-.7.3-1 .6v.3c2.4 2.4 4 6.6 5.3 10.3 1 2.2 2.1 4.2 3.5 6.7.1-.1 2-1.5 1.8-2-3.7 0-2.4-1.3-.4-3 .4 0 .4.2 1 .4.5-.2 1 0 1.3 1l1.2-1.8 2.4-1-.3-.5c-1.5 0-4.5 2.2-4.9-.6.2-.9 2.5-3.9 3.2-2.7-1.8 1.8 1 3.4 1.5 1.5l1-.4c.2-1.2-1.2-1.5-1.4-1.6v-.3c2.2-1.4 2 1.4 2.8 2.3.5-.3.5-2 .5-2.4l8.9-5.7c.8.4-1.8 3.4-2.2 4-2.4 4.3-2.4 4.3-2.8 4.7-.6 0-2 .2-2.5.6.4.4 1.3 0 2 1.2v1.4h-.4c-.7-.9-1-1.1-1.8-1 0 1-1.7 2.2-.2 3.4.3 0 1.9-.6 2.2-.3a4 4 0 0 1-2.2 2.6c-3.5 0-2-2.8-2-4.8-.9-.6-1 1.5-1.6 2.2-2 .8-2 .7-1.9 1l1.4.3c0 .2.2.3.2.9.3 0 .6.2.8.4 0 1-1 2-2 2.5-.3 1.6.7 4.6 1 6.9.8 3.6.8 3.6 1 5.6 1 11.2 1.8 22.5 2.7 33.7-.1 3.8-.5 7.8.4 11.7.5 6.7 1.5 13.6 1.7 20.5 0 7.8-.7 15.4-.6 23.4-.3 4.5-2 8.5-3.2 12.9.5-.1 1-.5 1.5-.8 1-.3 2.5.1 3.9-.5 1.1-5.8 5-1.6 6.8 1.7 1.2 3.6 2.4 9.8-1.2 12.9-1.7.6-2.5-.1-3.2-1.2-1 0-1.8.3-2.7.4-.8 1-2.7 1.9-3.5.6-2.9 0-6 1-8.7 1.4l-1.9 3.3c.5.4 1.7-.5 2.2-1 1.5-.3 3.2-.5 4.5 1.2 2.3.2 4.7 0 7.1-.4 6.1-4.7 7.8 5.6 8.2 9.8 1.3 0 1 1 3.2.4 4.9.1 7.1 5.3 2.8 8.6-2.7 1.2-3.2.3-5.5-.1-.7.9-1 .7-1.9.6-1.5 3.1-5.4 9.4-9.7 8l-2-1.7c-1.6-.7-4.5-1.6-5.6-1.8-2.2 1.7-3.9.6-5.2-1.2l-20-3.6c-7.8 3.8-17.6 5-25.5 1.3h-.3l1 5c0 2.5-4.5 3.8-6.2 4.3-.9 3.7-.1 10-4.6 12.5-1.8 0-2.2-2.5-2.6-3.7-2.5-2.6-2.8-6.8-3.4-9.8l-.2-4.9c-1 .2-2.6.6-3.2 0 0-4.3.2-8.4.1-12.2l-.1-.4c-2.2-.5-3.4-.6-5.1 0l-.2 11.1c0 .9-.3 1.5-.7 2.4l-2-.4c-.4 2.9-.8 7-2 10l-1.8 3.3c-.5 1.4-1.4 4.4-3.1 5z" style="fill:#1f1a17" transform="matrix(2.25 0 0 2.25 -225 -298.8)"/><path id="path4" d="m111.7 217.7-.2-.3c.2-.2.2-.2.5-.2v.5h-.3zm.1 1.2c-.4-.4-.3-.6-.3-.7h.1c.2 0 .4 0 .5.6l-.3.1zm.1 1.4c-.5-.6-.8-1-.8-1.2h.5c.2.1.6.5.6 1.1h-.3zm-.1 1.2c-.4-.6-1.2-1.3-1-1.6.2 0 1.2.7 1.2 1.5h-.2zm-.7 1-1-1.5.2-.1 1.1 1.6h-.3zm1 4-.6-1.2c-1-.3-3-4-2.9-5l-.4-.7c.4-.1.4-.1.5-.3l-.6-.9.6-.1-.6-.6c.5-.1.5-.1.6-.3l-.3-.3.4-.2-.6-.2.1-.8 7-.4-.3 5.7-.3.1c0 .2 0 .4.2.6-.2.2-.2.2-.6.2.6.9 0 .7-.3.7 0 .2.5.7.2 1l-.5-.3.3 1h-.2l-.5-.4c0 .3.2.5.2 1.2l-.2.1-.6-.6v.1c0 .2.4.6.3 1-.6 0-.6-.4-.7-.6h-.3c0 .2.5.8.3 1.3a1 1 0 0 0-.3 0zm-1.4-24.7h-.1c0-.2.1-.3.2-.3h1c.2.2.2.2.1.4h-1.2zm1.7 1-2.7-.2v-.1h3s-.1.4-.3.3zm-2 1c-.2-.7.2-.5 2-.5-.1.7-1.6.4-2 .4zm-.6 1v-.4h3.7c-.6.6-3.1.4-3.7.4zm.8.6-.1-.3h2.1c.2.1.2.1.1.3h-2zm-.2 1c-.1-.3-.1-.3 0-.4l2.9-.1v.3l-2.9.1zm-.6.9-.1-.1c.3-.4 4-.6 4.5-.4l.1.2-.2.3h-4.3zm-4.4 1-.2-.3-1.1.3c0-.8.7-.3 1-.8l-.1-.2-1 .2v-.5l.8-.2v-.3h-.7v-.5c.4 0 .4 0 .4-.2s0-.2-.4-.2v-.6l.5-.3c-.3-.3-.4-.2-.5-.2v-.4c.3-.1.3-.3.3-.5h-.3c.1-.7.3-.6.6-.8l-.6-.1c0-.6.3-.3.5-.7l-.5-.2v-.6h.5l-.4-.3v-.4l.4-.3-.5-.3c-.2-.7.4-.2.6-.6l-.6-.1v-.5l.6-.3v-.2h-.7v-.5c.4 0 .6-.2.7-.4-.3-.3-.6 0-.8 0l.1-3.2c2.4 1.7 4.6 4.1 7.3 6.2v.4h-1v.4c1.9 0 1.5-.4 3.7 1 2 1 5.3 2.3 7.4 3.7l-.1.1-2.3-.7v.4l2.5.8v.3c-.9 0-2-1-2.2-.4 0 0 2.6.8 2.4 1.3-1-.2-1.8-.8-2.4-.7v.4c.7 0 1.7.4 2.6.9.2.3.2.3 0 .4-1-.2-2-.7-2.8-.9l-.2.3c-3.6-.5-7-.5-10.2-.3l-3.3.6zM80.8 211l-.1-.1c0-.1.5-.5.7 0h-.6zm-.3.6c-.6-.3-.5-.4-.6-.6 1 .3 1 .3 1.1.5h-.5zm6 .5c-1.3-.3-1.3-.3-1.8-.6l3 .3.2.1c-.6.3-1 .2-1.4.2zm-8.2-.1c-.5-.3-.5-.6-.6-.8 0-.2.1-.3.3-.4l.4 1-.1.2zm2.1.5c-.6-.3-1.2-.9-1.1-1.3l1.5 1v.4h-.4zm6 .7-1-.3-.1-.1h2.3c-.3.5-.9.4-1.1.4zm0 .6h-1v-.4c.3 0 1.2 0 1.7.4h-.8zm1 .9-3.6-.6v-.3l4 .6c.2.1.2.1.1.3h-.5zm5.2 1c-.7-.2-1.1-.6-1.4-.1-3.8-.6-7.2-1.5-10.8-2.3v-.4c-1.3-.7-1.9-1.5-2-2.4 3.5-2 8.3-1.8 12.5-1.4 1.2.4 2.5.5 2.7.7v.1l-1.6-.2v.3l1.6.3v.5h-1.3c0 .2 0 .2 1 .5l.1.5h-1.2l1.1.4c0 .5 0 .5-.2.6-.6-.2-1.1-.5-1.4-.2.2.4 1.8-.2 1.5 1.1l-1.3-.2v.3c.7.1 2 .5 1 1l-1-.2c-.3.5.7 0 1 1h-.3z" style="fill:#fcdb00;stroke:#000;stroke-width:.005" transform="matrix(2.25 0 0 2.25 -225 -298.8)"/><path id="path5" d="M87 202.1c-.1-.1-.1-.1 0-.2h1.5l-.1.2H87zm-.2.8-.3-.2h2.1v.3h-1.8zm1.4 1-3.2-.2v-.3c1.1-.2 3.1.2 4.8.4l-.1.2h-1.5zm-1.7.6v-.1c.4 0 1.5-.4 1.2.2l-1.2-.1zm.3 1.2-1.2-.1v-.3l2.9.3-1.7.1zm1.7 1-3.9-.3c0-1 3.3-.2 4.3 0v.3h-.4zm1 1c-2.1-.3-4.2-.3-6-.2v-.6c2.3 0 4.5 0 6.8.4v.4h-.7zm-11.2 1.2c.3-.7.8-.7 1.6-.9v-.3h-1.2c.3-.4.7-.4.9-.6l-.5-.3c0-.2 1-.5 1-.6h-.8c.1-1.3 1.3-.4 1.6-1.1l-.3-.2c.8-.7 2-1 3.2-1.5 2.5-1.6 3-2.4 6.2-2v-.4l-1.7-.2c-.3-.5 1.2-1.3 1.6-1.5 5-4.7 6.5-6.4 7-6.2l-.5 3.4c.2.1 0 .6-.2.8.7.4-.3.7-.3.7v.3l.6.1v.5h-1.1v.3l1.1.1v.6l-1.5-.2v.3l1.4.4v.5c-.4 0-1.3-.4-2-.4v.3l2 .5v.6c-1-.2-1-.2-1.5-.1 0 .2 0 .2 1.5.6v.4c-.1.1-.6 0-1.2-.1v.3l1.2.4c0 .8-.8 0-1.2.2v.2l1.2.5v.1l-1.2-.1v.3l1.1.3v.4l-1.3-.1c-.2.3.7.4 1.3.6v.6l-1-.2-.2.2 1.2.5v.5l-1.4-.2c-.4.7 1.7.3 1.4 1-3-.4-2.5-.5 0 .5l-.1.5c-.7 0-2-.3-4-.6-4-.5-7.8-.6-11.6-.2-.4.1-2 .6-2.3.5zm30.9 5.9c-.7-.5-1.3-.2-1.7-.3l.9-.3v-.4h-1v-.1l.9-.1v-.4h-1v-.3l1-.1v-.2c-.3-.4-1-.2-1.1-.2v-.5l1-.3c-.6-.3-.6 0-1 0v-.8c.6-.1.6-.1.7-.3-.3-.3-.6 0-.7 0v-.5l1.2-.3-1.2-.2v-.3c1.5-.6 15.3-1.5 14.7 2.2-.1.4-.4.5-.7.5-.6 1-2.2 1.3-3 1.5-.7 1.3-6 .3-7 1.2-.7 0-1.4 0-2 .2zm10.4-4.2.1-.4.6.1c-.1.3-.5.3-.7.3zm.1.7v-.1c.3-.3.3-.4 1-.5-.1.4-.8.6-1 .6zm-6.5.3c.4-.3.7-.2 1.4-.2-.4.5-1.1.3-1.4.2zm6.4.8v-.4c.7-.2 1.2-1 1.6-.8 0 .8-1.1 1-1.6 1.2zm-7-.2.1-.1h.8c-.4.2-.6.1-.8.1zm5.3.5c-.6-.8 1-.5 1-.4-.3.4-.8.4-1 .4zm-6.2.2v-.3l3.4-.2c.1.1.1.1 0 .4-1.9.2-1.9.2-3.4.1zm1.2.9c-.3-.5 1.5-.6 1.8-.6v.3l-1.8.3zm-22.2 3.7v-.3c.4-.2.4-.2.5 0v.2l-.5.1zm.5.7v-.2c0-.1.1-.3.5-.3 0 .5-.4.5-.5.5zm-3 1c-.4-.4-.2-.5-.2-.5h.4l.1.2-.3.3zm-.2 1.6c-.5-.3.3-1.5.7-.6-.2.2-.4.5-.7.6zm0 1.5c0-1.1.3-1 1-1h.1l-.8 1a1 1 0 0 0-.3 0zm0 1.9c.1-1.2.8-2.1 1.6-2.6l.2.1-1.4 2.5a1 1 0 0 0-.3 0zm.1 2.8a2 2 0 0 1-.9-1.1c-.3 0-.3 0-.3.2a4 4 0 0 0-.5-.4l.3-.7-.2-.2-.3.5c-.4-.5-.1-1-.2-1.3 0 .2-.2.3-.3.4-.6-.6.3-1 .2-1.5l-.5.7c-.2-.4-.2-.4-.2-1 .4-.2.5-.5.4-.7a2 2 0 0 0-.4.3c0-.7.4-1.6.3-1.8h-.2l.2-1.4h-.3c0-1.7 0-1.7-.3-3.3 1.7.2 10.2 1 7.2 3.2-.6-.4-.9 0-1 .3l.9-.2c.2.3-.7 1-.9 1 0 .4.2.5.2.7-1.4 1.8-2 4.1-3 6.3h-.2z" style="fill:#fcdb00" transform="matrix(2.25 0 0 2.25 -225 -298.8)"/><path id="path6" d="M65.9 207a49 49 0 0 1-28.1-13c-.4-.8-2.3-2.2-2.4-2.3-3.6-4-6.1-8.2-8.7-12.5-.6-1.2-2.6-4.8-2.7-6.2 1.8 0 4.1-.4 6.1-.3 1 .8 3.1 2.8 4.9 3.6v-.1c-1.5-1.3-3.3-2.5-4.4-3.6.5 0 2.8 1.8 3 1.4l-2-1.3c.5-.1.5-.4.6-.6 4.5-1.7 8.4-4.5 12.7-7.2.5 0 1.7 1.2 2.4 1.6l-.2.3-1.3-1v.3l1.5 1.1-.1.2-.4-.2v.3c3.2 2.3 3.8 3 4.5 2.8-.4-.8-3.2-1.8-3.7-2.7.6 0 1.6 1.4 2.5 1.4v-.1a186.9 186.9 0 0 1-2.6-2.1l1.4.7v-.3c-1-.6-3-2-3-2.2l.2-.1 2.3 1.3c.1-.2-2.5-1.7-2.5-1.8.2-.5.5 0 1.2 0 .2-.4-.2-.4-.2-.6.2-.5 7.4-5 8.2-5 2.9 4.7 5.6 8.9 9.6 13.3A63.8 63.8 0 0 0 82 184.5c2.7 1 5.7 2 8.8 2.7v.4c-.3.4-2 1.8-1.8 2.2.9-.8 1.8-1.7 2.3-2.4l6.2.6c-.4 3-.4 3-.6 3.3-1 .7-8 8-8.5 7.7a71.5 71.5 0 0 1-5.6 3.2c.7-.4 4.5-2.7 4.8-3.7-.4.1-.4.1-2.7 1.6v.5a98 98 0 0 0-6.3 3.8l1-.2h.1c-2.6 1.7-8 2.2-10.8 2.7h-3zm14-2.8c-.3-.3 1.6-1.5 2.2-1l-2.3 1z" style="fill:#fcdb00;stroke:#000;stroke-width:.005" transform="matrix(2.25 0 0 2.25 -225 -298.8)"/><path id="path7" d="M129.3 207.2c-5-1-8.5-3-12.4-5.6 2 0 6.3 4 8.6 3.6 0-.2-1.9-.8-4-1.9v-.3l2 .7c-.3-.7-3-2-3.1-2l.4.4-.2.2-1.8-1.2v.3l1.6 1.2-.1.1-4-2-.3.5c-2.3-1.2-2.3-1.2-2.6-1.5l-.1.2c.2.2 7.6 4.1 7.5 4.5h-.2l-8.5-4.5c-3-2.3-6.1-4.9-8.3-7.4l-1.1-4.7c5 0 9.9-2.3 14.7-3.6 2.7-1.3 2.7-1.3 3-1.3v.2l-.1.3c.1.1 3-.5 2.6-1-.4.2-2.2.7-2.4.4 1-.4 1-.2 1.9-1.2 9.4-5.1 17-14.7 22.2-23.7 1 0 4.3 3.3 5.2 4 1.2.5 2.4 1 3.6 1.3l-1.2 1.5h.3l1.2-1.3c2.8.8 5.1 3.6 8.2 5l1.9 1.2c-.6.7-1.4 1.8-1.7 2.7h.2c1.1-.8 1.2-1.7 2.1-2.5 1.5.5 3 1 4.6 1.7-.2.2-1 .7-1 .9h.3c.3-.2.9-1 1.4-.7a196.3 196.3 0 0 0-2.9 2.7c.8-.6 3-2.8 4-2.6-1 1.4-3.4 2.6-4.8 3.5v.3c.9-.6 4.3-2.5 4.8-3.6.6 0 3.7-.3 4.8 0-3.5 7.8-7.1 15-13 21.6-1.6 1.3-3.4 3-4.9 4.1-5.6 4-10.1 6.5-16.4 8.6-4.3.7-8 1-12 1z" style="fill:#fcdb00" transform="matrix(2.25 0 0 2.25 -225 -298.8)"/><path id="path8" d="m193 202.9-1.6-.5c-1.4-4.5 2.1-6.7 6.2-4.8l1 1c-1.2 3-2.5 4.3-5.6 4.3zm-2 1.8c-3.7-1.3-.6-11 1.6-8-1.7 2-3 3.3-1.5 6.3.3.4 1.4 1.7-.2 1.7zm-10.8 2.7a27 27 0 0 1 2.6-16.5c1.7-2.7 2.4-4.4 6-3a13 13 0 0 1 2.3 8c-1.8.8-2.2 4.6-2.3 6.5l-.5.2V201c-1.4-.1.2 2.2-1 2.2V201h-.4v2.6l-.7.4.1-2.7-.2-.1c-1 .7-.5 2-.5 3.3-.3.3-.3.3-.7.4-.3-1.4 0-2.5 0-3.6l-.2-.2c-1 .4-.8 3.2-.5 4.3a3 3 0 0 0-.6.2c-.3-1.5.1-2.8 0-4-.5-.3-.5-.3-.8-.2v4.7l-.6.3c0-1.2 0-4.1-.2-4.6h-.4c-.1.4-.2 4.6-.1 5l-.6.1-.1-4.7c-1 .2-.2 5-.6 5.1zm-3.4-3c-.5-1 0-2.4 0-3.2h.2s.5 3.4-.2 3.1zm4.6 8.3c-4.2-1.8-3.4-10-3.4-13 1-5.3 2.6-10.5 6.7-14 1.8-.5 3.2-.7 4.3 1.5l-.1.2c-5.8-2-6.2 3.4-8.4 7.6-.9 4.1-3.1 14.4 2.1 17l.8.3c-.5.6-1.6.4-2 .4zm-4-5.5c-.3 0-.6-.2-.8-.3-.4-2-.5-4-.5-5.7-.3-.2-.3-.2-.4 0 0 1.8.2 3.4 0 5.4-.4 0-.8-.3-.8-.3V201c-1.3.4-.7 3.5-.7 5l-.5-.1c-.2-1.5-.2-1.5-.2-4.9l-.3-.1c-.5.7-.2 3.2-.2 4.6l-1-.2.3-4.5h-.9l.1 4.2h-.3c-1-1 .3-3.9-.5-4.7-.9.4-.4 3.1-.4 4.3h-.5c0-.9-.2-4-.6-4.3-.1.5 0 3-.2 3.2-.8-5-.1-9.2 2-13.5a7.5 7.5 0 0 1 3.8-3.2c2.5 0 5.3 0 8-.2v.5a22.8 22.8 0 0 0-5.3 14.1l.1 6h-.3zm-7 2.7c-3.9-1.2-3.4-8.7-3.3-11 .2-2.8 2.7-17.4 8.4-12.8-6.8 1.8-7.5 9-7.4 15.1.3 2.6.4 5.3 2.8 7.4l1.4.8c-.8.6-1.4.5-2 .5zm-4-6h-.7v-4.7c-.8-.5-.6 4-.6 4.5h-.9l.1-4.3h-.3c-.4.6-.3 2.8-.3 4l-.8-.1c0-1.6 0-3 .3-4.2h-.4c-.5.7-.4 3-.5 4.1h-.7c0-1.6 0-2.9.2-4l-.2-.2c-.5.9-.5 2.5-.7 4l-.9-.1c0-1.3.2-2.6.4-4l-.3.2c-.5 1 .2 3.8-1.3 3.5l.4-3.7c-.8-.4-.9 2.9-1 3.3-.2.3-.8 0-.9 0 .1-1 .6-2.8.5-3.6 5-3.5 8-7 11.4-11.9.4 0 .4 0 .7.2a35.3 35.3 0 0 0-3.6 17zm-11.5-2.3-.8-.1c.2-.5.8-1 1.4-.8l-.3.9h-.3zm1.4.4-.5-.1c.2-1.5.2-1.7 1.3-2.7.1.7 0 1.9-.4 2.8h-.4zm-110.7.2v-1l1.1.6v.2l-1 .2zm-1.4.3c-.2-1.7-.2-1.7 0-2.3l.7.6v1.6l-.7.1zm-1.7.4c0-1.3-.5-3-.3-4 1.5 1 1.3 1.3 1.4 3.6-.3 0-.7.2-1 .4zm-9 1.5c.2-6.3-.6-10.7-3.3-16h1.3a48 48 0 0 0 10.1 10c-.2 1 .3 3.1.3 4.6h-1c0-1.4-.1-3.4-.7-4.2l-.2.2.2 4c-.7.4-.7.4-.8.3L39 199h-.5c0 .7 1.1 4.8-.5 4.5 0-1.5-.2-3-.4-4 0-.2-.1-.2-.2-.2-.3 0 0 3.2 0 4.2l-.8.3c0-.8-.1-4-.6-4.3l-.2.3.2 4-.6.2-.3-4.3-.3-.2-.3.2c.2 1.8.2 1.8.2 4.3l-1.2.3zm-15.4 9-1.7-.9c1.2-.2 2.9.1 3.5-1.5 1.3-1.2 1.3-5.3 1.3-6.7-.3-7-2-15.5-9.2-17.6 4.6-3.7 9.4 9.9 10 12.9.2 2.5.7 12-2.8 13.6-.4 0-.8 0-1.1.2zm10-3.2c-.7-.1-.7-.1-.8-.3l3.1-1.1c1.2-2.4 1.4-4.6 1.5-6.7-.4-5.1-1.7-14.7-7.6-15.2 0-1 1.5-1 2.3-1 6.4 3.3 7.6 16 5.3 22.5-1.1 1.3-2.2 1.9-3.8 1.8zm-8-3-.1-4.4c-.7-.3-.4 3.4-.6 4.2h-1c0-1.4.2-3.4 0-4.4l-.4-.1c0 .6.4 5-1.3 4l.2-4h-.4c-.6 1-.2 2.3-.4 3.7-.2 0-.7-.2-1-.5l.2-3h-.4c-.4.4-.3 1.8-.4 2.6l-.1.1-.7-.5c-.1-1.2.7-2.6-.3-2.7-.3 1.2-.4 1.3-.4 2l-.1.2-.8-.5V202l-.2-.1c-.7.3 0 1.2-.5 1.5l-.6-.5c.4-3.2-.4-4.9-2.3-6.9 0-.7.5-1.8.7-2.3.6-3.6 1.3-8.2 5.9-5.2a23.3 23.3 0 0 1 5.5 18.6 2 2 0 0 0-.5 0zm2.6-.6a26.8 26.8 0 0 0-5.8-19.3c3.1 0 5.9.3 9.2.6 4.7 3 5.1 11.5 5 16.9-.2.1-.3.3-.3.4l-.3-4.4h-.3l-.1 4.4-.8.2c0-4.3.1-4.4-.7-4.3.2 1.8.2 1.8.1 4.3l-.9.2-.1-4.4H27l.3 4.4-1.3.3-.2-4.3c-1 0-.3 3.7-.3 4.4l-.9.2-.2-4H24c-.3.7 0 3 0 4-.6.3-.6.3-1.3.4zm-14.2-1.5-.2-.4c2-3 1.5-5.1-1-7.3.1-.7.1-.7.3-1h.7c2.3 2 2.6 4.8 1.5 8-.4.7-.7.7-1.3.7zm-3.8-1.6c-2.5-.6-4.2-3.2-2.6-5 3-1.8 6.2-1.2 7 2.6 0 2-3 2.4-4.4 2.4zm93.2-9.2.7-5.9c.4-.6 2.1-.6 3-.2.3 1.4.9 3.1 1 4.9a4 4 0 0 0-.4.2V192l-.3.1c-.2.4-.2.9-.3 1.3 0-1 0-1-.2-1.2-.4.1-.3.8-.4 1.4h-.5v-1.2l-.3.1-.2 1.4h-.3v-1h-.5c0 .7 0 .7-.2 1.2l-.3-1c-.3.2 0 .6-.4 1.1H98z" style="fill:#c0a062" transform="matrix(2.25 0 0 2.25 -225 -298.8)"/><path id="path9" d="M41.4 184.4a76.5 76.5 0 0 1-6.2-4.5l4 2.8 2.4 1.6h-.2zm1 1.2c-2-.9-4.2-1.8-5.5-3a35 35 0 0 1 5.7 3h-.3zm1 1-5-1.9v-.1c1 0 3.8 1.2 5.4 1.9h-.4zm1.7 1.2c-1.6-.5-5.1-1.4-6-2.2 0 0 5.9 1.7 6.2 2 0 .2 0 .2-.2.2zm29 2c-.2 0-.2-.1-.3-.2 2-.9 3.4.2.2.2zm-27.3-.5c-1.3-.4-5.1-1.5-5.6-2 0 0 5.9 1.3 6.3 2h-.7zm2 1.3c-4.7-1.3-4.7-1.3-6-1.8l.2-.1c.3 0 6.1 1.6 6.3 1.8h-.6zm23.5.7v-.4l.9.1c.1.3-.6.3-.9.3zm13 .9c.5-.9 2.7-3.5 3.6-3.5l1-1.1.3.1a18.4 18.4 0 0 1-5 4.5zm-35-.5c-1.6-.3-5-1-6-1.6 0-.2 6 1.3 6.7 1.5l-.6.1zm17.5.8-1.2-.3a7 7 0 0 1 2 .3h-.8zm-1.6.1-.6-.2.6.2zm-1 .3-.4-.2h.7c0 .2 0 .2-.3.2zm-12.6 0-6.2-1.5v-.1c2 .2 4.2.7 6.5 1.4 0 .2 0 .2-.3.2zm30.5.5c1.2-1.4 2.8-2.7 4-4.1h.2s-3.7 4.4-4.2 4zm-2 .9c1.3-1.2 2.5-2.5 3.6-3.8h.3c-.3.4-3.1 4-3.8 3.8zm-27.2-.4-5.3-1.1v-.1c.8-.4 4.4.8 6 1v.2h-.7zm2.2 1c-5.2-.6-5.2-.6-5.7-.8v-.1l6.2.6c.1.3-.4.3-.5.3zm-1.5.8c-.7 0-1.7-.2-1.8-.3 1.8-.3 4-.2 6.2 0v.2l-4.4.1zm.5 1a1 1 0 0 0-.7-.3c.6-.6 5.4-.4 7.3-.2v.2l-6.6.2zm21 .4c1.2-1.5 3-2.5 4.3-4.1h.3c-.2.3-.6.4-.5 1a206.5 206.5 0 0 1 3-2.6c-1.3 1.4-3 3.2-4.6 4.3-1 0-2 1.6-2.5 1.4zm-19 .1v-.3c2 0 4.3 0 6.4-.6l.3.1c-.4.8-6.3.8-6.7.8zm15.2 1c.2-.3.2-.3 4.8-3.8v.3l-1.4 1.2.3.1c.4-.3 2.4-2.3 2.8-2-.6.5-4 3.6-4.6 3.4.2-.4 1.5-1 1.4-1.3-.3.1-3.1 2.1-3.3 2zm-12.6-.2v-.3a36.9 36.9 0 0 0 6.6-1c-1.3 1-5 1.2-6.6 1.3zm10.9.4c0-.3 4.8-3.3 4.9-3.3-1 1.1-3.6 3.1-5 3.3zm-1.9.1c.5-.3 5-3.4 5.1-3a18 18 0 0 1-5 3zm-2.2.5c.3-.4 4.9-3.2 5.2-3a27 27 0 0 1-5.2 3zm-1.7.2c.5-1 3-1.6 4.2-2.5-2.3 0-4.5 2-7 1.7.9-.4 2-.4 3.1-.7 1.2-.5 3-1.6 4.5-1.2-.5.8-4 2.5-4.8 2.7zm-14.9.4-.1-.2c0-.1.9-.6 1.2-.2l-1 .4zm1.7.6c.3-.2.4-.2 1.2-.2.2.2.2.2.1.3h-1.3zm1 .7c-.4-.4 1-.4 1.5-.3v.3h-1.6zm.8.6v-.3l1.9-.3c.2.6-1.8.6-1.9.6zm1.6.7-.2-.3c.2-.4 1.3-.8 2-.5-.2.3-1.7.8-1.8.8zm27.2 1c-.1-.2.2-.3.5-.2-.2.2-.2.2-.5.2zm-26.6-.2v-.3l-1-.1a15 15 0 0 1 4.6-1.1c-.6 1.1-2.8.5-3.3 1.2 1.7 0 3.7-1.3 5.3-1.1-.9.8-4.5 1.4-5.6 1.4zm21 .9c.3-.5 1.2-.6 1.8-.8.7-.3 5-3.2 5.7-3-.7.8-6.7 4-7.4 3.8zm-19.6-.3c.4-.5 4.4-1.2 5.7-1.9v.3c-1.2.7-4.7 1.8-5.7 1.6zm15.7.4-.1-.1c1.8-1.1 4.2-1.8 6.4-2.9v.3c-2 1-4.2 2.1-6.3 2.7zm-10.9-.2v-.3c.4 0 5.5-1.5 5.8-1.4-.3.7-5.1 1.6-5.8 1.7zm-2.5 0c0-.1 5.6-2 5.8-1.8-.6.8-5.2 1.9-5.8 1.7zm15 .3c.3-.8 5.8-2.1 6.9-3.7l1.6-.6v.3c-1.7.8-7.4 4.3-8.6 4zm-3.9.1zm-4.4 0c.1-.2 5.6-2.3 6-2.3v.2c-.6.3-5.1 2.3-6 2zm-1.8 0c0-.1 5.2-2.2 5.5-2-.2.4-5.2 2-5.5 2zm3.6.1a76 76 0 0 1 6.4-2.5c-.4.7-6.1 2.7-6.4 2.5zM40 183l-6.7-4.9c.8 0 4.7 3.3 5.2 3.6l1.7 1.2H40zm-3.7-4.5c-1.6-1-5-3.6-5.4-4.3h.1a2207 2207 0 0 1 5.3 4.3zm1.4 2c-1.2-.9-5.4-3.6-6.2-4.7h.3a155326.5 155326.5 0 0 1 6.2 4.6l-.3.1zm21.6-9.7-2-1.1c.4 0 1.9.4 2.3 1l-.3.1zm1 1.4-2.1-1.2c.2 0 2 .5 2.4 1 0 .2 0 .2-.3.2zm3.2 3.2c-.7-.5-2.7-1.4-2.8-1.6l.3-.2-1.6-1.2c.5 0 1.7.9 2.5 1.3l-.1.3 1.8 1c.1.2.1.2 0 .4h-.1zm.8 1.2-3-1.6c.3-.4 2.5 1 3.3 1.4v.3h-.3zm1.4 1.4-3.3-1.7c.2 0 3.2.8 3.6 1.6l-.3.1zm3.7 2.6c-.7-.4-3.6-1-3.3-1.5 1 .3 1 .3 1.1.2l-3.2-1.5c.6 0 3 .6 3.7 1.4l-.2.4c.6.2 1.4.3 2.2 1h-.3zm2.3 1.5c-1.6-.5-3.6-1.1-4.6-1.6 1.5 0 3 .7 4.9 1.4v.2h-.3zm1.3.9-5.4-1.4c1.6 0 4.2.6 5.7 1.3H73zm3.5 2.2a15 15 0 0 1-3.6-.8h1.3l-2.9-.8.2-.2-2.1-.6c.8 0 4.5.5 5.2 1v.1l-1.5-.1 3 .7v.1h-1.7c.5.1 3 .3 3.2.5l-1 .1zm-22-9.4c-1.9-1-3.3-2.1-4.6-3.2.8 0 2.9 2 4.3 2.8.5.1.5.1.6.3l-.3.1zm-.7-1.4a36.6 36.6 0 0 1-5.2-3.7c.5 0 4.1 2.7 5.4 3.5 0 .3 0 .3-.2.2zm-1.5-2.1c-1.6-1.4-4.3-2.2-5.2-3.5h.2c1.6 1 3.6 2 5.3 3.4h-.3zm3.5 5.2c-1.5-.8-4-2.2-4.6-3.2.9 0 3.4 2.4 5 3.1l-.4.1zm5.5 5.4c-1.5-.9-4.3-1.8-5-2.6.5 0 2 1.2 2.7 1 0-.7-5-2.6-5.4-3.6l.3-.2-1-1c.2-.2 3.6 2.4 4.7 2.8.2.2.2.2.1.3-1.2-.4-3-1.9-3.4-1.7 1.2 1.1 3.9 2 5.1 3.2l-.3.3c.2.1 2 .8 2.4 1.4h-.2zm1.4 1.4c-1.6-.8-4.3-1.9-5-2.7.3 0 4.6 2 5.2 2.6l-.2.1zM70 190c-1.5-.3-4.6-1.6-5-2.2v-.2l-1.6-1.1.2-.2-2.5-1.5 1 .1c-.2-.2-3-1.5-3-1.7h.1c3.5 1.7 5.6 2.3 5.7 2.5-.4.4-2.5-.7-2.7-.6.4.2 4.6 2 4.7 2.2-.9.2-1.5-.5-2-.3 1 .6 2.5.9 3.8 1.7v.1c-.7 0-1.3-.3-1.4-.2.3.6 2.4.5 3.3 1.3H70zm10-4-.1-.2a6 6 0 0 1 2.8-.4c-.4.4-2.5.5-2.7.6zm-9.3 6.2-3.2-.6c1-.5 2.5-.2 4-.3-1.1-.6-4-1-4.3-1.7.7 0 6.6 2.2 7.3.8-.8-.4-1.8-.2-2.4-.2v-.1l1.4-.4v-.2c1-.7 3 .2 4.3-1h-2.4c.3-.6 2.5-.1 2.9-.6H77c.4-.3 3-.5 3.1-.7l-2-.2c0-.2 1-.2 1-.4-.2-.2-.2-.2 0-.3.9 0 1.6-.3 2.8-.2.3.3-.2.3-.5.4-.2.8-1 1-1.7 1.3-.2.6-.8.4-1.2.7l.2.2c-.2.4-1.8.6-2.2.9l.7.2a3 3 0 0 1-1.8.5c.6.1.6.1.6.3l-1.9.4c-.9 1.8-3.4 0-4.4.6 1 .3 1 .3 3 .4.2.1.2.1 0 .3h-1.9zm-5 1.2c-5.6-1.8-5.6-1.8-5.6-2 0 0 5.3.9 6.5.5l2.3.5s2.9-.2 2.6.4l-3.3.3v.3l-2-.3-.1.3h-.4zm-3.7 0c-1-.6-4-2-4.7-1.9.6.5 2 .7 2.9 1.5-1.5 0-4.1-1.7-5.2-2.3l.1-.3c.6.3 1 .7 2 1v-.4c1.8.5 5.4.9 7.3 2.3h-.1l-2.5-.6v.2c.3.1.6.2.7.4H62z" style="fill:#1f1a17" transform="matrix(2.25 0 0 2.25 -225 -298.8)"/><path id="path10" d="M9.9 181.3c-3.8-3.3-1.1-18 3.9-15.9.7.6.7.6.9 1-.1.2-1.1.2-2 .3-3.6 1.7-4.6 10.5-2.3 13.7.3 0 .6 0 .9.6-.7.3-1 .3-1.4.3zm7.8.4c-5-1.8-1-16.6 2.3-13.1l-1 .4c-3.1 2.3-3.4 6.6-2.2 10.4.3.5 1.6 1.3 1.7 2.2h-.8zm8.5-.8c-.7-1-1.3-2.9-2-3 0 .5 1.1 2 1.1 2.7-.6.4-1.9-2.8-1.9-2.8-.6.2.4 2 .6 2.7h-.6c0-.8-1-2.4-1.4-2.5.1.7.7 2.1.7 2.2H22c0-.8-.6-2-.9-2.2h-.3c0 .6.6 1.3.5 1.8-1.3 0-1.1-1.5-1.5-2h-.3c0 .2.6 1.8.5 2-1-.5-1-1-1-1.8h-.6c0 .2.2 1.2.1 1.3-1-.7 0-1.7-1.2-2l.5 2-.2.1c-1.6-2.7-1-8.3 1.7-9.8.9 0 1.4-.3 2.4.2 1.3 3.6 3.8 7.2 4.8 11h-.3zm-11.3-1.5c-.6-.6-.6-1.7-.7-2.2h-.5c-.2.4.4 1.7.2 2-.8-.3-.8-1.8-.8-2l-.3-.1c-.6.6.3 1.1.1 1.9-1 0-.8-1.3-.9-1.7h-.4l.2 1.3c-1.3 0-.5-1.3-1-1.7l-.4.2v1.1c-.8-.5-.3-5.5-.3-6.3 1-3.7 2.5-6.3 6.6-3.6 0 .6-1 2.6-1.3 3.4-.6 2.5-.6 4.7-.3 7.6h-.2zm166.8 2-.7-.3c3.3-3.2 3.4-6.8 1.9-10.9-.5-.9-2.2-2.3-2.2-2.3 3.5-1.7 6.3 12.3 1 13.5zm6.6-.2c-.4-.3-.7-.4-1-.8l1.3-.4c3.9-3 1.6-15.4-3.7-13.8.3-1.5.6-1.4 2.1-1.5 4.4 2.5 5.5 10.5 3.6 15.1-1 1-1.1 1.3-2.3 1.4zm-15-.8c-.2-2.2 4.2-9.9 4.9-11.5 5-1.7 5.4 5.3 4.8 8.8-.5.8-.5 1.2-1.2 1 .1-.6.6-1.6.2-1.8-.6.3-.8 3-2 2.4l.7-2-.3-.1c-.3.8-.7 2.3-1.7 2.6 0-.9.5-1.3.6-2h-.3l-1.1 2-.4-.1c0-.6.4-1.2.5-1.8l-.2-.1c-.6.4-.8 1.3-1.2 2.1h-.7l.8-2h-.2c-.9.3-1 2.4-2 2.2l.7-1.8c-1.2 0-.9 1.6-1.8 2.1zm12.3-1.8.4-2.1h-.4a26 26 0 0 0-.5 1.8c-.3-.6 0-1.2 0-1.5.1-3.4-.2-6.3-2-8.7 0-.3 3-1.4 3.6-1.4 2.7 2 3.3 5.8 3.2 9.5-.2 1 0 1.6-1 2-.1-.6-.1-.6.1-1.7l-.2-.1c-.4.2-.5 1.3-.7 1.9l-.5.1c0-.9.2-1.2.3-2-.8 0-.7 1.1-1 1.9l-.2.2.2-2.3c-.6-.3-.8 1.7-1 2.3h-.3z" style="fill:#c0a062" transform="matrix(2.25 0 0 2.25 -225 -298.8)"/><path id="path11" d="M97 186.8a49.9 49.9 0 0 1-20.2-6A61.1 61.1 0 0 1 55.9 158c-.7-1-.7-1-.8-1.5a67.5 67.5 0 0 1-8.2-29.9c.2-6.7.8-12.5 1.8-19l2.2-8.6a60.6 60.6 0 0 1 26.8-35c3.5-1.7 7-3.3 10.7-4.6a46.3 46.3 0 0 1 38.1 6.9 65.3 65.3 0 0 1 17.8 20.2c1.4 2.9 4.3 7.3 4.7 10.8 2.1 3.7 2.8 11 3.6 15.7.2 7.1.2 7.1.1 11a70.4 70.4 0 0 1-14.4 41.7c-2.3 3.3-5.5 6-8.1 9a51.5 51.5 0 0 1-18 10.1c-3.1 2-11.6 2-15.3 2z" style="fill:#7c9ccd" transform="matrix(2.25 0 0 2.25 -225 -298.8)"/><path id="path12" d="M97.2 175.8c-6.4-.6-12.2-3-17.2-6.3-.7-1-2.4-1.9-3-2.3l-4.8-5-.5-.6a63.5 63.5 0 0 1-13-41.9A61.8 61.8 0 0 1 73 82.5l-.1-.2c1-.2 1.5-1.7 2.4-2.3a45 45 0 0 1 10.8-8.1c.9-.1 5.6-2.5 6.7-2.2 8-2.5 17.7-.4 25.2 3.5a54.4 54.4 0 0 1 19 23.2c2 5.8 3.7 11 4.8 17.4.4 3 .4 6.4.4 9.7a76.3 76.3 0 0 1-6 26.3 53.6 53.6 0 0 1-18 20.6 38 38 0 0 1-21.2 5.4z" style="fill:#1f1a17" transform="matrix(2.25 0 0 2.25 -225 -298.8)"/><path id="path13" d="M24 172.4c-1.3-.6-3.6-8.8-4-9.8a136.8 136.8 0 0 1-1.4-39.4c.8-.8 3-2.6 4-2.5 1.4 3 1.6 3.8 1.9 3.5-.5-1.4-1.2-2.7-1.2-3h.1c.3.5.7 1.4 1 1.2 0-1-1.3-1.8-1-2.4h.4l.6.9-.3-1.3c2.5-1.9 5.7-3.7 8.3-5.6.3 1 1 4.3 2.1 5.3v-.3c-.9-1.7-1.8-3.9-1.6-5.4h.4l1.3 3.1c0-1.1-.9-2.5-1-3.5 1-.6 0 .4 1 1 .2 0-.2-1.5-.2-1.6l3.7-2.5c3.8-1.7 3.8-1.7 4.6-2.2h.4a10 10 0 0 0 1.4 3.7c0-1.3-1-3-1.2-4 .5 0 .9 1 1.2 1.8l.2-.1-.9-1.9c.1-.8 3.9-2.8 4.6-3.3v.3c-1.3 5-1.8 10.4-2.4 15.8-.1 6 0 11.8 1.2 18.2 1.7 6.9 4 13 7.5 19.6-.5.8-7.4 5.2-7.9 5-.8-.6-3.9-3.3-4.3-3.1.4.8 2.9 2.4 4.2 3.4-1.1.9-2.6-2-3.4-2.3v.1l2.7 2.6c-.7.7-1.2 0-1.6-.3v.3l.6.5c0 .5-4.7 3-5.8 4-1.5.8-6.1 3.5-8 3.5-.8-.5-4.4-3.5-4.7-3.4.1 0 4.4 3.6 4 3.6-.6-.5-2.4-2.1-2.9-2l2.6 2c-.2.4-1-.2-1.1-.1l.3.3c-1 .5-4.6.3-5.5.3z" style="fill:#de4046" transform="matrix(2.25 0 0 2.25 -225 -298.8)"/><path id="path14" d="M44.4 113.5c-.7-1-1.7-4-1.5-4.8.2 0 1.5 4.8 1.5 4.8zm0 1.9c-1.2-1.8-1.5-3.6-1.9-5.3h.3c.4 1.6.7 3.2 1.6 5v.3zm-10.6 5-.3-.6h.2l.2.6h-.1zm-10.6.6-.3-.6h.2l.3.5-.2.1zm11.8 3c-.6-1.3-2.5-5.2-2.3-6 0 .1.3.4.4.3l-.5-2c0 .1 2.5 5.5 2.1 5.7l-.6-1c-.4.8 1.2 2 1.1 3H35zm10 .5c-1-1.8-1.4-3.3-1.8-4.7-.2-2.6 0-5.1-.7-7.3l.3-.1L44 116l.5 1.3-.1.1-.8-1.5c0 1.2 1.2 2.8 1 4l-1-2c-.1 1.2 1.4 3.3 1.2 4.4-.6-.4-.5-.9-.7-1-.3.8 1.1 2 1.1 3.1H45zm-20.6 2c-.6-1.2-2-4-1.9-4.8.2.1 2.2 4.3 2 4.9l-.1-.1zm0 2.1c-2-4.9-2.2-5-2-5.2.3.2 2.2 4 2.2 5.2h-.2zm-.7 1.6c-.2-.4-.2-.4-.1-.6l.4.5h-.3zm1 .2c-.1-.3-2.2-4.5-2-4.8.7 1 1.2 3.8 2.3 4.5 0 .2-.2.4-.3.3zm10.2.7a30 30 0 0 1-2.1-6.5c.4-.2 0-.7 0-1 .2.1.2.1.5.7h.1l-1-3.2.5-.2c-.3-.8-.3-.8-.2-1a27.3 27.3 0 0 1 2.3 5.7c-1-1.1-1.3-3.3-1.8-3.7 0 1.8 2 4 2 5.5-.4.3-1.5-2.6-1.7-3 0 1 1 3 1.4 4.2a34.1 34.1 0 0 1 .5 1.3c-1.2-1.6-1.3-3.8-2.2-4.8-.2 1.9 2 4.2 2 6h-.3zm10.6 1.2c-1-3.3-1.4-6.8-2-9.8v-.3a30 30 0 0 1 1.7 4.8c-.4-.5-.6-1.1-.8-1.2 0 .6 1 4 1.3 5.3v1.2h-.2zm-20 3.7c-.5-1-2.2-4.1-2.2-5l.6.6c0-1-1-2.1-.8-2.5l.4.4a8 8 0 0 1-.7-2c.2.2 2.5 4 2.4 4.5l-1.2-1.6c0 .6 1.9 3.3 1.5 3.5-1.2-1.8-1.2-1.8-1.4-1.9 0 1.3 1.8 3 1.7 4h-.2zm10.8.7c-1.4-2.2-2.4-4-2.7-6.2.7-.3-1-2.7-.8-3.1.1 0 3.2 7 3.1 7.1-1-1-1.2-2.9-1.8-3.3 0 1 .6 2 1.1 3.2 1.3 2 1.3 2 1.3 2.2h-.2zm-10.2 1.5c-.5-1-2.8-4.8-2.5-5.3l2.7 5.2-.2.1zm.7 3c-.7-1.3-3-5.2-2.7-5.8.1.2 2.9 5.9 2.7 5.8zm11 .4c-.7-1-4.2-6.3-3.9-7.3a68 68 0 0 1 3.5 5.3c-.9-.7-1.3-1.6-1.8-2.2-.5.4 2.8 4.5 2.2 4.2zm.4 2-3-4.5c.3-.4 2.9 3.8 3.3 4.5h-.3zm1 2.6c-1.6-1.3-2.4-3.5-3.3-5h.2c.9 1.5 2.2 3.1 3.2 5h-.1zm-11-.1c-.9-1.2-3.2-5.1-3-5.6l.6.6c0-1.1-1.6-2.7-1.3-3.2.4.5 3 5 2.8 5.4a32.8 32.8 0 0 1-1.1-1.2l2 4zm1.1 4.6c-2.4-3.8-2.4-3.8-3-5l.2-.4-.6-1.5.2-.1c.7.7 1.7 3.3 2.7 4.7h-.1l-1.4-1.6c1.3 2.5 1.3 2.5 2.2 3.8 0 .1 0 .1-.2 0zm12 1.2-2-2.1c-1.2-1.7-2.7-4-2.5-5.7-.5-.7-1-1.4-.9-2 .8.4 2.3 4.5 4 5.7v.3l-3-3.6c-.9.6 3.7 4.8 3.7 5.6l-.6-.3c0-.3 0-.3-.5-.6v.1c.4.6 1.5 1.5 2 2.6h-.2zm-11.5.7c-.8-1.1-2.8-3.8-2.8-4.8.3.4 3 4.4 3 4.8h-.2zm12.5 2.5c-1.2-1.4-2.6-2.5-3.4-3.7 0-.2.1-.3.3-.3-.6-.6-1-1-1-1.5 1.2 1.2 2.2 2.5 3.8 3.6v.3l-2.7-2.2v.2c.7 1 1.8 2.1 3.1 3.2v.4zM31.4 157c-.3-.2-4.3-6.7-4-7.2a36.8 36.8 0 0 1 3.4 5.3 43.5 43.5 0 0 0-.7-.3c1.5 2 1.5 2 1.4 2.2zm12.7 1.5c-2-1.5-3-2.8-4.2-4.4l.3-.2-.5-.5h.3l3.4 3.3c-.3.5-2-1.8-2.4-1.6 1 1.1 1.9 2.2 3.4 3.3h-.3zm2 3.3c-.8-.6-4.4-3.7-4.1-4.2l-1.2-1.2c.3 0 4.5 3.6 5.2 4.2l-.1.1c-.7-.5-2.3-2-2.7-1.9.5.8 1.8 2 3 2.7l-.1.3zm-11.4 2.3c-2-2.2-2.5-4.3-3.8-6.2 0-1.4-1.7-2.3-1.4-3 1 1.1 2.2 3.3 3.4 4.8 0 .7 1.1 3.2 2 4.3-.1.1-.1.1-.2 0zm-4 6.7c-.5-.4-5-3.5-4.7-4 .6.1 2.2 2.2 2.8 2-1-1-3.8-3.2-3.6-3.8a51 51 0 0 0 4.1 3.8l-.1.5 1.9 1.4-.3.1z" style="fill:#000" transform="matrix(2.25 0 0 2.25 -225 -298.8)"/><path id="path15" d="M173 171.4h-1.8v-.2c.2-.2.6-.5.5-.8-.7.5-1 .7-1.5.7 0-.8 2.6-2 2.3-2.6-1 .8-2.2 2.2-3.4 2.4l-.1-.1 3.6-3.2c-.4 0-1.9 1.3-1.9 1.3v-.2l2.6-2.6h-.1c-1 .8-2.3 2.3-3.4 2.8v.4l.2-.1.2.1c-1 .9-1.4 1.5-2.6 1.2l-3-1.2v-.1c.5-.6 1-1.1 1-1.7l-1.3 1.5-.4-.1c.4-.5 2.9-3.3 2.7-3.7l-3 3.5c-1 0-8.6-5.2-9.2-5.6 0-.8 1.3-1.3 1.1-2-.3.6-1.1 1.5-1.9 1.7 0-1 2.4-2 2.1-2.7-2.2 2.2-2.4 3-5.4 1.7a17.6 17.6 0 0 1-4.3-3.8l-1-.8c2.1-3.1 3.4-7.2 4.6-10.5a149.2 149.2 0 0 0 5-21.5l-.2-.2c.3-1.2 1.1-4.4 1-5.1-.2 0-.5.7-.6.9 0-1.5 1.4-4.8 1-5.6l-.6 1.3c-1-.7 1.5-3.1 1-4 0 0-2 4.1-1.5 4.5.3-.2.3-.2.4-.1-.2 1.1-.6 2.6-.7 4l.3.2-.5 1c.2.2.2.2.5 0 .1.7-.7 2.1-.7 3.2.3.1.1 2-.4 2.6a74.2 74.2 0 0 0-1.1-23.2l2.9 1.6v.5l-.2.1c0 .2 0 .2.4.4l-.3.6h.3l.5-1 .2.1c-.1.4-1.3 2.4-1.1 2.8.6-.3 1-2 1.5-2.8l.2.1c-.4 1.4-1.6 3-2 4.4.3.2 0 1-.2 1.3.7.5 2.3-4.9 2.4-5.4.6 0 5.4 2.3 5.7 3-.1.4-.5.7-.4 1.2.3-.2.5-.7.7-.9h.3c0 .8-1.7 2.7-.9 3.4 0 .3-.3.4-.2 1 .2-.1 1.3-2.3 2.1-3.7 1.8 1.3 4.9 4.2 7.5 5.1 0 .4-.4.8-.4 1.4.2-.1.2-.1.6-1l.6.1c0 .8-1 2-1.5 3h.3l1.5-2.5h.5c-.1.6-2.2 4-2 4.4 1-1.3 1.5-2.7 2.3-4 1 0 5.4 3.6 7.2 5 1.2 7 .6 15.1-.1 22.4 0 7.2.5 14.1-2.7 21.2-1.4 4.1-1.2 5-5.3 5z" style="fill:#de4046" transform="matrix(2.25 0 0 2.25 -225 -298.8)"/><path id="path16" d="M170.8 167.5c.3-.3 3.2-3.3 3.5-3.1-.3.3-3 3.2-3.5 3zm-6.8-.3a15 15 0 0 1 3-3.8l.1.2-2.7 3.6h-.4zm7-1c.3-.6 3.5-3 4-3.3v.3l-3.8 3.2-.1-.2zm-6.2-1a145.3 145.3 0 0 1 3-3.8c-.3.6-2.5 4-3 3.8zm.6-1.6a14 14 0 0 1 2.7-4.3c0 .5-2 4-2.7 4.3zm.7-2.3c.1-.4.1-.4 2-3h.2l-2 3h-.2zm-12.3-.4 1.5-1.5c-.1-.2-.5-.2-.6-.3l1.5-1.9c-.2-2 1.9-4.8 2.8-6.3h.1c-.4 1.4-2.3 3-2.2 4.4 1.4-1.6 1.5-2 1.8-1.8-.3.5-2.2 2.4-2 3 .4-.3.4-.3 1.5-1.7v.3c-.2.2-1.4 1.4-1.2 1.8.4-.2.4-.2.5-.1 0 .8-2.7 3.4-3.4 4.1h-.3zm12.8-1.4c-.2-.3 2-3.2 2.3-3.8 0 .6-2 3.5-2 3.8h-.3zm-11.2-.3c-.6-.6.5-1.3 1.1-1.2l-1.1 1.2zm11.5-1.8c.7-1.2 1.7-3.2 2.7-4.2 0 .2-2.6 4.3-2.7 4.2zm.2-1.6.9-1.5-.4-.3.6-1.1-.3-.4 2.1-3.4c0 .5-2 3-1.5 3.3l.7-.8c.2.6-1.5 1.2-1.2 2.4l1.6-2.1a13 13 0 0 1-2.4 4l-.1-.1zm-10.3-2.6c-.1-.1 2.4-4.2 2.6-4.5 0 .5-2 4.4-2.6 4.5zm.3-1.7c0-.8.8-1.6 1.2-2.3l-.4-.1c.3-.7 2.2-4.4 2-4.8-1.5 2.5-1.5 2.5-1.7 2.5v-.1l1.3-2.2c-.5 0-.5 0-.6-.2 1.2-2 2-3 2-3.4h-.2c0-.4 0-.4.5-.9l.3.8c-.8 1.3-1 2.8-1.5 4.5l-1.6 3.3.1.1c.6-.8.6-.8 1.5-2.5.2.3-2.1 4.3-2.6 5.3h-.3zm11-.8c2.3-3.7 2.3-3.7 2.5-3.7 0 .8-1.5 2.8-2.1 3.7h-.4zm.7-2.3c.4-1.4.6-4 2-4.8l-1.1 2.5v.1l1.2-2c.3.3-1.4 3.7-2.1 4.2zm0-2.6c.4-1.5 1.6-2.7 2.2-4 .2.2-1.5 3.2-1.8 4h-.3zm-9.2-1.4c-.5-.6.8-2 1-2.4.3.3-.8 2-1 2.4zm9.3.2c0-1.2 2.2-3.9 2.8-5 .4.8-2 3.3-2.5 4.9h-.3zm-9.7-2.2c1-2.8 1.2-5.7 2-8.4l-.4-.2.8-2-.4-.2c0-.4.4-1 .4-1.2h-.4c.4-2 1.3-3.7 2-5.4.5.2-1.7 4.2-1.6 5.2a9 9 0 0 0 1.4-3.4h.3c-.3 2.2-1.1 4.1-2 6.4l.1.2 1-1.8c0 1.3-1.6 2.7-1.3 4 .5-.3.6-1.3 1.1-1.8l-.5 1.7h.3c-.1 1-.5 1.6-.5 2.8l-2 4h-.3zm10.1 0c.2-2 1.7-5.1 3-6.3 0 1.3-2.3 3-2 4.2l1.8-2.7c.3.2-2.3 4.4-2.5 4.8h-.3zm-9.1-2.3a5 5 0 0 1 1-2.2 4 4 0 0 1-1 2.2zm10-1.6c.2-1 2.4-3.7 2.2-4.1-.4.3-1.3 1.8-1.5 2l-.3-.3s-.3.3-.4.2l2.2-3.9c0 1.2-1.4 2-1.4 3.1v.1c.5-.6.9-2 1.7-1.4 0 .7-1.8 3.9-2.6 4.3zm-9.5-.8c.3-.9.5-1.5 1-2 .2.2-.7 1.7-.8 2h-.2zm9.5-3c.4-.5 1.9-3.2 2.3-3.4.1.4-1.6 3-2 3.5h-.3zm.2-1.2a15 15 0 0 1 2.3-4c0 .3-2 4.3-2.3 4zm0-1.7 2.5-4c0 .6-1.6 3.6-2.3 4h-.1zm-8.4-1.2c0-.7.6-1.7.7-2 .2.2-.5 2-.7 2zm8.6 0c.1-.6 2.1-4.9 2.5-4.4-.1.4-2.2 4.7-2.5 4.4zm0-2 2.4-3.9c0 .3-2 4.3-2.5 4zm-9.3-.4.4-1c-.8-1.2 1.3-4.5 1.8-5l-.2 1c.4.4-1.5 4.3-1.8 5h-.2zm.4-1.2-.1-.2.4-.6v.1l-.3.7zm9-.3 2.5-4c0 .8-1.6 3.1-2.3 4.1l-.1-.1zm-8.6-.6-.1-.2.6-1.2-.5 1.4zm9-.8c.5-1 2.4-3.7 2.2-4.7-.7.4-1 2.1-1.8 3-.2-.8 1.8-3.8 2-4.4.4.2-.1.6-.1 1.2l.3.2c0 .6-2 4.5-2.6 4.8v-.1zm-8.4-.7-.1-.1.2-.4h.2l-.3.5zm-1-.3c.6-1.6 1.2-3.2 2-4.4 0 1-1.2 3.2-1.7 4.4h-.3zm.3-2.2c.3-1.7 1.2-3 1.8-4.5 0 .8-1.2 3.3-1.6 4.4h-.2zm.1-2c.3-1.1 1.9-4.4 1.7-4.7-.2.2-1.6 3.1-1.8 3.2-.2-.1 2.1-4.9 2.2-5 0 2.2-1 4.1-1.9 6.4h-.2zm.1-3.5c.4-1.5 1.4-2.9 2.2-4.3 0 1-1.4 3.2-1.9 4.2l-.3.1zm-7.7-1.7 1.6-3.4.1.1-1.3 3.3h-.4zm8.3-1.5c0-.3.7-2.7 1.3-2.2 0 .5-.9 1.9-1.3 2.2z" style="fill:#000" transform="matrix(2.25 0 0 2.25 -225 -298.8)"/><path id="path17" d="m151 166.8 2.7-2.8h.3c-.2.4-2.5 3-3 2.8zm-2.6 4.2c1.1-1.5 3-2.9 4.3-4.2h-.2c-.4.3-2.4 2.2-2.8 2.1.4-.5 3.6-3.5 3.8-3.4l-.4.7c.4.8-4.3 5-4.7 4.8zm-21.6 34-.9-.3c.7 0 .7 0 1.3.2h-.4zm5-.1c-2.4-.5-7.2-.8-8.5-2.4.8 0 1.3.8 2.7.6l2.2.4v-.3l6 1.6h-1.7l-.1.1h-.5zm0-.2-1.4-.5 1.9.4h-.4zm-6.6-.2c-.7-.3-1.3-.6-1.5-.9h.7c0 .3.7.2 1 .8h-.2zm10.3 0a39 39 0 0 1-5-1v-.2l2.3.3.3-.3 2 .1v-.3l5.9.6c-.5.8-6.7 0-7.5 0 .2.3 1.8.6 2.4.7l-.4.1zm-6.8-.3c-2-.4-2-.4-2.1-.6.3 0 3.5.7 2.1.6zm12.6-.9-5.2-.4 2.2-.2.1-.4h1c.2-.6 1.3-.4 2.1-.4l.1-.3c2.8 0 8.1 0 1.8.2l1.9.2-4.1.3c2 .2 2 .2 2.3.4h-4.7l3.4.5-.9.1zm1.8-2.2.1-.2h3.7l-3.8.2zm1.5-.7v-.1c3-.3 3-.3 4.8-.3-1 .4-4 .5-4.8.4zm2-.6v-.3s1 0 1.2-.3l-.2-.4 4.7-.6c.2.4-1.6.6-1.7.6l.6.3c-.3.3-3.9.5-4.7.7zm4.2-2-.2-.2 1.9-.2v.3l-1.7.1zm-23.6-.5c-2.7-.8-5.4-1-7.3-2.7v-.3c.2.2 2.3 1.5 2.8 1.3l-.6-.6h.2c.7.4 4.3 2.2 5.3 2-1-1-2.7-1.2-3.1-2h.2c.6.9 4 1.9 5.3 2.3-1 0-1 0-1.7-.2-.3.3-1 .2-1.1.2zm6.6 0c-.7 0-5.2-1.3-4.7-1.8 1.6.7 3.8 1 5.6 1.9h-1zm-2.6 0c-1.7-.5-4-1-4.9-2.1l.2-.1c1.2 1 3.2 1.5 5.1 2-.1.2-.1.2-.4.2zm4.8-.1c-1-.2-4.1-.5-3.9-1.5.8.7 3.6 1.2 4.8 1.4h-.9zm-13.5-.5a37 37 0 0 1-8.2-3.7c-1-.9-5.3-5-4.6-6 .4.2.7.4 1 1.6l.7 1 .2-.6c.4.5.2 1 1.2 1.9 0-.2.2-.3.3-.3.9 1.5 1.7 2.4 3.6 3.7 0-.5-1.5-1.8-1.6-2 0-.2 2.7 2.1 3.7 2.8l.1-.3c-.7-.5-1.3-1-1.2-1.4 1.6 1.1 2.9 2.2 5.2 3.2h-.4zm29.9.5v-.4h.9c-.2.2-.2.2-1 .4zm-13.3-.4c-1.7-.2-4.4-.4-5.3-1.4 0 0 5.4 1.1 5.7 1.3l-.4.1zm14.6-.5c.1-.2.4-.7.8-.5l-.8.5zm-16.3-.4c-1-.1-1-.1-1.7-.4 1.3-.1 3.2.2 4.9.2 1.4-.2 1.4-.2 1.6-.1l-.1.1c-1.8.2-3.2.3-4.7.2zm2-.7c-.9-.1-.9-.1-1-.3l5.6-.2v-.2l-1.7.1-.2-.2c.4-.2 4-.5 5-.8 3.3-1 3.3-1 3.4-.9-.2.5-3 1.1-3.4 1.2-.8 1.5-6.3 1.3-7.8 1.3zm4.8-.6h.5-.5zm.6-.1.7-.1-.7.1zm1-.2h.4-.5zm0-1.3c-.3-.4 2-.4 2.4-.5l5-1.7c1-.5 1-.5 1.2-.4-.6 1-7.2 2.6-8.7 2.6zm3-1.3c0-.1 5.4-2.2 6.1-2a18 18 0 0 1-6.2 2zm2.4-1.6c1.1-1 4.3-1.9 6-2.8-.4-.6-3.7 1.7-4.4 1.4 0 0 4.7-2.3 5.2-2-.2.2-.2.2-.1.4-.8.7-6 3.1-6.7 3zm-22.5-2.2c-.4-.5.8-.5 1-.6.1 0 4.5-2.3 4.9-2-.3.5-5 2.4-5.9 2.6zm2 0v-.2c1.2-.5 5.7-3.1 6-2.9-.6 1-5.1 3-6 3zm2.1 0c-.1-.3 5-3 5.7-3.8 1-.8 7.2-6.4 7.6-6.2-.7 1.2-2.8 2-3.6 3.1h.1c.3-.1.7-.6 1.2-.5l-1.9 1.4c-.2 1-8 6-9 6zm-5.7-.4h-.1l5.1-2c-.8.8-4.1 2-5 2zm7.7.2-.1-.2c.4-.2 5.3-3.2 5.6-3-.3.4-5 3.2-5.5 3.2zm-10-.6c-.7-1.5 4.6-1.2 5.2-2.4l-.6-.1.7-.5-.1-.2 1-.7-.5-.2 1.3-.8v-.6l3.8-2.2.2.2-2.5 1.4.1.3c.5-.3.8-.5 1.5-.6l-3.7 2.2c.8.2 2-1.3 2.8-1-1 1-2.6 1.8-3.8 2.5v.2l1.9-.9v.2l-1.2.8.3.1-1.2.6c0 .5-3.2 1.6-3.7 1.5-.2-.5-1 .1-1.5.2zm12.4.2c-.3-.5 4.4-3.2 4.6-3-.3.7-4 2.8-4.6 3zm-14.2-.5v-.1c.7-.4 4.1-1.9 5-1.6l-5 1.7zm3.4 0c-.1-.2.3-.5.8-.4l-.8.3zm12.4 0c.4-.6 4-2.6 4.8-3.1l.1.4c.8-.5 1.9-1 2.4-1.7v.3c-.6.6-.6.6-5.4 3.8l-.3-.3c-.6.3-1 .6-1.6.7zm16.2.3c0-.2 6.7-3.5 7-3.4a25 25 0 0 1-7 3.4zm-27.6-.8.6-.3v.1l-.5.3-.1-.1zm-4.7-.2-.1-.2a13 13 0 0 1 4-1.2c-.1.1-3.6 1.5-4 1.4zm5.5-.1v-.1c.2-.2.2-.2.5-.2l-.2.3h-.3zm-6-.5-.3-.2a9 9 0 0 1 3.5-1.1c.2.3-3 1.3-3.2 1.3zm20.7 0c-.3-.2 5.2-3.6 5.3-3.5-1.4 1.2-3.8 3.3-5.3 3.6zm13.6.3s6.4-4 7-3.9c0 .3-6.2 4-7 3.9zm-35.6-1c-.2-.4 3.2-1.6 3.7-1.4a8 8 0 0 1-3.7 1.4zm24 .4-.2-.2c.4-.4 3-2.3 3.1-2.1l-.6.7h.2l4.6-3.9v.4l-5.1 4.2-.3-.3-1.7 1.2zm-24.4-1.2c.1-.3 2.3-1.1 2.9-1-.2.4-2.5 1-3 1zm38.5-.1-.1-.1 1.6-1.1-.3-.2c2.3-1.8 4.7-4 7.3-5.7v.1c-.5.4-3.2 2-3.7 2.9h.2c1-.5 1.9-1.1 2-1-.5.6-5 3-4.8 3.4 1-.2 2.8-1.8 3.5-1.8-.2.4-5 3.4-5.7 3.5zm-10.3-.4c.7-.7 3.8-3.8 4.2-3.6-.4.5-3.6 3.8-4.2 3.6zm12-1c0-.2 0-.2.3-.3l.1.1-.4.3zm-28-2 .8-.8c-.1-.1-.1-.1-.6.1-.2-.6 4.3-3 4.4-3l-3.6 2.6.3.1c.4-.2 2.2-1.6 2.5-1.4-.7 1-2.7 1.4-3.4 2.4h-.4zm10.2-.8v-.1c1.4-1.3 3.5-3 4.6-4.5-.7-.2-2.7 3-3.7 2.6 1.6-1.4 3.2-2.7 4.8-4.3h-.2c-.5.4-2.2 2-2.8 1.9 1.5-1 2.7-3 4.4-3.5-.3.4-.8.6-.7 1.2-.9.9-1.5 1.5-2 2.7-3.4 3.2-4 4-4.4 4zm20.4-.7a19 19 0 0 1 5.2-3.5c-.4.6-5 3.6-5.2 3.5zm-29.4-.8c.6-1.7 2.9-1.6 4-2.8v.3c-1 .7-2.7 2-4 2.5zm30.6-1s5-4 5.6-4a37 37 0 0 1-5.6 4zm-29.6-.7v-.1s3.5-2.9 3.8-2.7c-.5.7-3.3 2.8-3.8 2.8zm1.4-2c.3-1 2.8-2.4 3.7-3.1.2.4-3.3 3-3.7 3zm10.7-1.2c.7-.7 4.3-4 4.4-3.8-.6.7-3.9 4-4.4 3.8zm-9.7-.5c-.2-.3 2.9-2.5 3.5-3v.3c-3.4 2.8-3.4 2.8-3.5 2.7zm.9-1.6v-.1c.3-.4.7-.8 1.2-1.1l-.4-.4c.4-.3 3.2-3 3.5-2.9-.8 1-2 1.9-2.8 2.8h.2c.4-.3 1.7-1.8 2-1.6-.4.9-3.4 3.3-3.7 3.3z" style="fill:#1f1a17" transform="matrix(2.25 0 0 2.25 -225 -298.8)"/><path id="path18" d="M18.5 122.5c-.2-4.3.5-8.5 1-12.6.2-8.2 1.3-16.2 2.3-24.2.3-8.3.1-16.8 1.8-24.7.1 3.6.2 6.6-.5 10.5 0 2-.6 2.6 1.8 2.9 0 .6-1 5.7 0 6.3l1.5.4c-.1.7.4 3.1 1 3.8l-.2-1.6.3-.2L27 81h.8c.3-.4.3-.4.4-1 1-9.7-.7-19.4.1-28.7 3.2 2.6 7 5.6 10 9.3a854.9 854.9 0 0 1 8.5 8.1c1.6 1.8 4.1 4.6 6.5 6.2 1 1.6 3.5 3.6 5.3 5.3a16 16 0 0 1-2.4 4.4l-3.9 7.6c-1.2 3.6-2.5 7.3-3.6 11.1-.5.4-4 3-4.4 3-.4-1.1-1-2.5-.9-3.3l1 2.4c0-.6-1.3-5.4-1.6-5.6l.2 2h-.3l1.3 4.7c-.2 0-.3.2-.4.3l-.8-2.4-.1.1c0 .8.3 1.6.2 2.8-2.6 1.5-5.4 2.5-8 4.3-.7 0-2-6-2.4-6.7-.3.7 1.1 2.5.8 3.9a13 13 0 0 0-.6-.8c0 1.2 1 3 1.2 4.4-.4.3-.4.3-.6.2 0-.8-.3-1.5-.5-1.9 0 .6 0 1.5.2 2.2-2.7 1.8-5.7 4.6-8.4 5.9-.5-1.1-1-2.7-.9-3.4.7 1.9.9 2.5 1.1 2.3-1.3-4.6-1.4-4.9-1.7-5l.6 2.2-.1.1-.6-.3s1.2 4.3 1 4.4c-.8-.8-.5-2.2-1.1-2.8-.1.3.5 2.4.7 3-.2.2-.2.2-.5.2l-.4-.9h-.3l.4 1.3c-1.5.8-3 2.1-4.3 2.6zm162.2-.6c-5.4-4-5.4-4-7.2-5.1.2-.8.2-.8 0-.9l-.5.6c-1-.3.4-1.4.2-2-.2.3-.9 1.6-1.2 1.5 0-1.4 1.6-2.6 1.4-3.9-.6 1-1 2.5-1.7 3.5-1.3 0-6.8-4.5-7.1-5l-.3.1c0-.6.3-1 .3-1.4h-.1l-.7 1-.3-.1c.2-.6 1.4-2.9 1.2-3-.2 0-1.5 2.6-1.7 2.7l-5.5-3-.1-.7-.3.4.1-.8c-.3-.2-.5.4-.7.6-.5-.4 1-1.4.8-1.9-.4.3-1 1.3-1.1 1.4 0-1.3 1.4-2.6 1.2-3.6-.1.1-1.6 3.5-1.8 3.5-1.1-.7-2.5-1.2-3.3-1.9l-2.3-7.5c-1.9-3-2.8-8.3-5-10.6-.6-1.2-3.4-5.3-3.4-6L152 69.4c4.7-3.7 9.3-9 13.6-13.2l5.7-5.5-.1 10.4.5 19.1c.4.3 1 .5 2 .6 1.1.6-2 2.9-1.6 4 .2 0 .2 0 1.5-2.3 0 .8-1.4 3-1.2 3.4.4-.1 1.8-3.2 1.8-3.5l-.3-.3c.1-.7.3-.8.4-1.1l1-.1c-.4-2.5-.8-4.7-.6-6.7.2 0 1.5 0 1.8-.4 0-4-.6-7.9-.5-11.5 1.4 3.8 1 9 1.3 13.2a314.6 314.6 0 0 1 1.8 31.1c.6 4.6 1.7 10.3 1.6 15.3zM59 79.8c-2.4-1.7-2.6-4.3-4.4-5.4l-.1.1c.2.5 2 2.1 1.7 2.7l-9.4-9-.4-.7h-.2L31 53c0-1.7 1.3-3.1 1.6-4.7.4-.5 1.6-4.3 2.7-7 1.4-2.5 3.4-6 6.2-7.3.4.3.4.3 1.2 1.6l-.4.2v.5a2 2 0 0 1-.4-.2c-.3.3.5 4.1 1.2 4.6.6-.5-1-3.4-.8-4.2.1.3 1.4 4.2 1.8 3.9-.2-1-1.3-4-1.2-4.4l5.4 7.7c0 .4 1 5 1.7 4.7 0-1.1-1.1-2.6-.8-3.3.2 0 2.1 3 2.4 3.3l5.7 8.3c0 .8.6 3.7 1.6 4.5.6-.5-1-2.5-1-3.2l.1-.1c2.9 4.2 6 8.2 8.9 12.7 0 .3-2.9 3.4-3.6 3.8a92 92 0 0 1-4.3 5.4zm82-.5a70.6 70.6 0 0 0-7-8c0-1.2 3.3-5.4 3.9-6.3 6-8.9 14.2-21 14.4-21 0 1-1.2 2-1.2 3.2.7.4 1.7-3 1.5-3.8l6.5-9.7c3.2 2.7 5 6 6.5 10.5a176.2 176.2 0 0 0 3.9 7.8c-1.8 1.2-4.7 4.5-6 5.8l-.1-.1.6-1c-.5-.5-1.5 1.5-1.6 2.2l-6.8 6.5c0-.7.6-1.4.5-1.7-.7.4-1.1 1.3-1.1 2.3-7.8 7.6-7.8 7.6-7.9 7.5 0-.3.2-.5.1-.7-.8.4-1 1.1-1.2 2-1 1-4 4.3-5 4.5z" style="fill:#009a50" transform="matrix(2.25 0 0 2.25 -225 -298.8)"/><path id="path19" d="M56.6 76c-.7 0-1.7-2.4-1.8-2.5.5 0 1.5 1.8 2 2.5h-.2zm0-1a6.8 6.8 0 0 1-1.7-2.7c.4-.2 1.8 2.8 1.7 2.7zm0-1.4c-.8-.5-1.6-2.2-1.3-2.4l1.3 2.4zm-.2-1.6c-.5-.9-1.1-1.8-1-2.4.3.1 1 1.6 1.3 2.3h-.3zm0-1.6c-.5-1-1.1-2-1-2.6.2 0 .2 0 1.2 2.4l-.1.2zm.2-1.5-1.3-2.5.3-.1 1.3 2.6h-.3zm-9.4-1.2c-.9-1-1.7-2.7-2-3.7.5-.1 1.6 2.7 2.3 3.7h-.3zm9.7-.2a6.7 6.7 0 0 1-1.4-3h.1a12 12 0 0 1 1.5 3h-.2zm-11-.7c-.3-.5-.9-1.3-.7-1.6.2.1 1 1 1 1.6H46zm11.2-.8c-.6-1-1.3-2.9-1.2-3.4h.3s1.3 3.5.9 3.4zm-10.5-1-1.1-2.2c.6-.3 1.4 2.3 1.1 2.2zm10.8-.3a5.7 5.7 0 0 1-1.1-3.8s1.3 3.1 1.3 3.7h-.2zM47 63.8c-.4-.5-1.5-2-1-2.2 0 0 1.6 2.4 1 2.2zm10.6-.8c-.5-.9-1.3-3.4-1-3.6.2.2.6 2 1.3 3.7h-.3zM47 62.5c-.2-.4-1.8-2.4-1.2-2.8.2.2 1.4 2 1.4 2.8H47zm11.2-.5a8.9 8.9 0 0 1-1.2-3.7l.1-.1c.5 1 1.2 2.3 1.4 3.7h-.3zM47 60.4c-.7-1-1.3-2-1.5-2.8h.4c.6 1.4.6 1.4 1.4 2.7l-.3.1zm.2-1.7c-.7-.7-1.5-2.6-1.4-3l.4.1c0 .4 1.2 2.4 1.1 2.9h-.1zM37 58.4c-.4-.9-.8-1.6-.9-2.2.1 0 1.4 1.4 1.4 2-.2.2-.2.2-.5.2zm1.6 0a6 6 0 0 1-2-3.4s2 2.5 2.2 3.4h-.2zm8.9-1.4a5.6 5.6 0 0 1-1.2-3.2c.3 0 1.4 2.2 1.4 3.2h-.2zM38 55.8 37 54c.1-.2.1-.2.3-.2.1 0 1 1.1 1 2H38zm1.2 0c-.6-1-2.4-3.9-1.8-4.2.2.1 2 3.6 2 4.1h-.2zm8.6-.9c-1-.8-1.3-2.2-1.4-3.1.4.1 1.6 2.3 1.6 3l-.2.1zm.2-1.4c-.7-1.4-1-3-1-4.2h.4c.1.7 1.1 2.5 1.1 3.3h-.1l-.5-.4.1 1.3zm-8.9-.4c-.4-.5-1.3-1.9-1.2-2.2h.4c.6 1.4 1 1.9 1 2.2H39zm.6-1.3c-1-1-2-2.4-1.7-3.4a9 9 0 0 1 1.8 3.4h-.1zm8.6-1.4a8.7 8.7 0 0 1-1-3.8c.3-.2 1.3 2.6 1.2 3.7h-.2zm-8.2-.5c-1.2-1.2-1.4-1.5-1.6-3 .5-.5 1 1.6 1.3 2.2l.4.8h-.1zm9-.5c-.7-.7-.9-2.3-1-3h.4c.5 1.8.5 1.8 1 2.8l-.1.2H49zm-9.5-1.8a47.2 47.2 0 0 1-.5-2.3c.2.2.9 1.4.7 2.3h-.2zm1.1-.2c-.4-.7-2-3.6-1.4-3.8l1.7 3.7-.3.1zm0-2.2c-.7-.8-.8-1.7-1-2.2l.4.1.8 1.8c0 .2 0 .2-.2.3zm.9-.4a10 10 0 0 1-1.8-4.3h.3c.3.4 1.7 3.3 1.7 4.3h-.2zm.1-2.1c-.6-1.3-1-2.4-1.3-3.6l.2-.2s1.4 2.8 1.3 3.8h-.2zm1-.4c-.6-1.5-1.5-3-1.5-4.4.3 0 1.7 3.4 1.7 4.4h-.2z" style="fill:#000" transform="matrix(2.25 0 0 2.25 -225 -298.8)"/><path id="path20" d="m24.5 73.8-.2-.1.5-.2c0-.8-.3-.8-.5-1.2l-.4.3v1h.2l-.3.1c-.3-1.3 0-2.7.2-3.7 0 .1 0 .3.2.4h.3V70h.5c0-.8 0-.8-.2-1l-.2.4-.1-.6h-.2c-.1-2.6 0-12.9.9-13.4 0 5.7.2 11.4 0 17.3 0 1 0 1-.7 1.1zM26 54.3c0-2.1.3-2 .4 0H26zm0 2.4c-.3-.4 0-1 0-1l.2-.2c.2.3.2.3.1 1.2h-.2zm0 23.8c0-1 0-1-.2-1.2-.2.2-.2.2-.3 1l-.4-.1c-.2-1.3 0-4.5.5-5.6v1c.2.2.2.2.4.1.2-1.7.2-1.7.1-2h-.3V62.4c0-3.9-.3-8.1.5-11.7l.4-.2c.4 1 .2 4.4.2 6h.4c.5-.8.1-5 0-6-.1-.2-.3-.2-.5-.3l.5-.7h.2l.3 1.2c0 9.3.3 18.6.2 27.8-.2 1.5-.2 1.5-.4 1.8v-1.5c-.9-.4-.3 1.4-.7 1.7l-.3-1.5h-.1l-.2 1.4H26zm.5-4.5c-.2-.2-.4-2.8.3-2.5 0 .5.2 1.7-.1 2.5h-.2zm.6.6c0-4.4-.2-4.6.5-4.3 0 3.4.2 4.3-.5 4.3zm147.6 3.8c-.1-.3-.2-.9-.4-1 0 .1 0 1-.4.9l-.2-.9h-.3l-.1.9-.3-1.5-.2-.1c-.2.4-.1.7-.2 1.4a1 1 0 0 0-.3 0l.1-5c0 .6 0 1.2.2 1.8l.5-.5c0 .7 0 .7.2.8.6-.6.3-3.7-.2-3.9l-.1 2.1c-.2-.5-.2-.5-.4-.6l-.2.2-.6-10.7.2-9c.3.4 0 1.6.7 2.3-.1-2.2-.3-4.1-.2-6 .2 3 .2 3 .4 3.5h.1l.1-3.6c.1.5.1.5.3.6.4-.2.3-.4.6-.6l.3.5c-.3.3-.1.8-.1 1.4l.3.2c.1.7-.2 13-.2 20.2l-.2-.4h-.4l.3 3.7c.5-.3.3-1.3.3-1.7a223.6 223.6 0 0 0 .4 5zm-1.8-4.1.1-.8a1567.5 1567.5 0 0 0 0 .8zm2.5-2.7-.2-1.2h-.4c-.6-5.2.1-10.5.4-15.4.7.4.6 10.3.7 12.2l-.4.1c0 .5 0 .5.2.7l.3-.3c0 1.2.4 2.2.2 3.7h-.1c-.2-1-.2-1-.4-1.2l-.1.1v1.3h-.2zm-.4-3v-2.3h.3v2.1l-.3.2zm-1.1-13.8c-.5-1.4-.3-2.8-.3-4h.1c.4 1 .3 2.6.4 4h-.2zm-1.6-5.6c-.5-.5 0-.9.1-1.2l.2.1-.3 1.1zm-43 2.7c-.5-.3-.5-.3-1-.3l1.9-4.7c.5 0 .5-.1 1.3.3 0 1-1.3 3.5-1.8 4.7h-.4zM125 64.1l-.9-.6c0-1.9 2.3-5.8 3-7.5.4 0 .4 0 1.3.4 0 1-2.4 5.9-3.2 7.6h-.2zm-10-15.4-1.1-.2c.1-1 .1-1 1.4-6.5.3 0 .7 0 1.2.6l-1.4 6h-.2zm-2.3 9.8-1-.3 1.6-7.5 1.2.2c.1.1.1.1-1.6 7.6h-.2zm-13-1.7-.4-.1c0-6.4 0-12.7.2-19l.7.8c.4-.1.7-.6 1-1h.1l-.1 19.2h-1.5zm-28.9-3.1c-.7-1.5-1.6-3.3-1.8-4.5.5 0 .7-.2 1.6 0l1.5 4-1.3.5zm4.6 10.2c-1-2-3.3-6-3.4-7.7l1.3-.3c1 2.3 2.3 4.8 3.2 7.5-.3.3-.8.6-1.1.5zM85 47.7l-1-5.5c.2-.2.2-.2 1.1-.2.5 1.3 1.4 3.6 1.1 5.4l-1.2.3zm2.3 10.8c-.4-2-1.9-7-1.6-8.4L87 50c1.4 6.9 2 8 1.7 8.4l-1.3.2z" style="fill:#da251d" transform="matrix(2.25 0 0 2.25 -225 -298.8)"/><path id="path21" d="m128.3 55.7-.7-.3.2-1.1c.4 0 .9-.2 1.3.7l-.4.7h-.4zm-14-5.6-.8-.2.1-.7 1 .1c0 .6.1.8-.3.8zm-42.9 5.3c-.3-.6-.3-.6-.3-1 .4-.3.9-.5 1.3-.5l.4 1.2a2 2 0 0 1-1.4.3zm14-6-.1-1c.3 0 .6-.2 1.3-.1v.8c-.4.2-.9.3-1.2.2zm-18.3-.2c-1.1-1-1-2.9-1.7-3.8-.4-1.3-3.5-9.5-3.3-10 .2.4 4.7 11.7 4.8 12.3l.8.4c.6 0 2.5-1 2.5.4-1.1 0-2.3.7-3 .7zM82 42l-.5-.3-2.2-13.1c-.1-1-.8-4.3-.7-5.3.4 1 3.1 14.6 3.2 15.6.2.4 0 1.8 1.1 2 0 0 2.7-.4 2.2.5-1.3 0-2.2.6-3.1.6zm-3.6-19.3V22v.6zm54.4 26.8-2-1.4v-.3c.9-.8 1.7.7 2.8-.8a2349.7 2349.7 0 0 1 7-17.3l.2.2-6.8 19c-.5.2-.5.5-1.2.6zM117 42.2c-.4-.2-.7-.5-1.6-.7l.1-.6c.7-.3 1.6.4 2.5-.8l3.4-15.7L119 41c-.8 1-.8 1-1.8 1.2z" style="fill:#c0a062" transform="matrix(2.25 0 0 2.25 -225 -298.8)"/><path id="path22" d="M24.7 53.8c-.6-.3-.5-.7-.6-.9l.5-.4c.5.2.7.4.3 1.2h-.2zm-1-1c-.7-.8-.8-.4-.6-1.2h.3v.5l.6-.1.2.2-.4.6zM25 52c-.3-.6-1.2-1-1.5-1.1v-.5c.4-.3 1-.7 1.8-.5l-1.2.7c.2.2.6 0 1 0-.1.4-.2.4-.1.7l.7-.7v.9c-.6.6-.6.6-.7.5zm-5.2-1.5-1-.9c1.6-1 1.4-1.2 1.5-3 .8 0 2.2 4-.5 4zM26 50c-.5-.3-.3-.7-.3-.8 1-1 1.4-.4.6.8a1 1 0 0 0-.3 0zm2.9-.7c0-.3.2-.7.4-1 .1-.2.2-.2.4-.2 0 .8.2 1-.8 1.2zm-1.2-.5.6-.5-.7-.2.1-.7-.1-.1-.6.9c0-.5 0-1 .2-1.5.5 0 1.4.9 1.4 1.9a1 1 0 0 1-.9.2zm-4.4 0c-.8-1.6-2-2.6-.7-3.5 1 .2 1.4.5 2.8 1 .2 2.6.8 2.3-2.1 2.4zm5.8-1c-.5-.7-.5-.7-.6-1.1.4.1.6.3 1 1l-.4.1zm-9-1.8c-1-.5 1.7-2.6 2.7-2.7.5 1-2 2.6-2.8 2.7zm4.7-1.5L24 44l1-.2c.7-.7.8-1 .9-1.8.8 0 2.1 2.1.6 2.6h-1.6zm-5-1.3c-1-.4-2.3-.5-2.6-.7L14.5 38c.8 0 3.2 1.6 4.6 2.5.1.2 1 2.6.7 2.7z" style="fill:#c0a062;stroke:#000;stroke-width:.005" transform="matrix(2.25 0 0 2.25 -225 -298.8)"/><path id="path23" d="m175.6 52.9-.3-.7.2-.3.7.2v-.2l-.3-.4c.5-.6.3-.5 1.1-.4l.3.3c-.1.2-1.3 1.5-1.7 1.5zm-1-1.2-.2-.5.1-.2.4.1v-.4h.7v-.3l-.6-.3h1.3c0 .5-1.2 1.7-1.7 1.6zm-1-1.3c-.7-.5-.9-.9-.9-1.2.6-.6 1.4-1 1.8.4-.6.5-.7.8-1 .8zm6.6.1c-1.8-.4-1-2.8-.9-3.8l.4.1c-.3 1.5 0 2.2 1.8 2.5.2-.2.2-.2.5-.1-.6.8-1 1.1-1.8 1.3zm-7.9-1.7a17 17 0 0 0-.6-.4V48c.3-.2.6-.9 1.3-.9l.1 1h-.1c-.2 0-.3-.2-.4-.3-.3.1 0 .4 0 1h-.3zm-2-.1c-.2-.1-.2-.1-.2-.6.2 0 .3-.2.5-.3.5.5.5.5.5.7l-.9.2zm4.1-.2-.2-.3c.8-.9 2-3 3.7-2.6-.9 1.7-1.3 2.7-3.5 3zm-3.4-.8-.2-.1c.1-.4.7-1 1.2-.6l-.7.7h-.3zm8.7-1.5c-1.2-1-2.3-2.2-2.3-3.3 1 0 2.7 1.7 2.9 3l-.6.3zm-5.7-1.5c-2.2-.6-1-1.8 0-2.7.4 1.2.5 1.5 2.2 2-.5.5-1.6.6-2.2.7zm5.9-1.5.7-2.6c1.5-.8 4.8-3.8 6-3.5l-3.2 5-3.5 1z" style="fill:#c0a062" transform="matrix(2.25 0 0 2.25 -225 -298.8)"/><path id="path24" d="M100 37.8c-1.8-2.6-1-2.3-.2-5l.2-1.5h.4c0 1.6.4 2.8.8 4.6 0 .3-1 2-1.1 1.9zm-5.7-2c-2-3.3 2-4 4.2-1.3 0 .5 0 .5-.3.7-2.6-1.8-3 .6-3.9.6zm11.5-.4c-.8-2-3-1-4-.3-1.3-.7 2.2-4 4-1.5.1.3.2 1.9 0 2v-.2zm-12-4.6-.6-.2c.1-1.1 1-.6 14.3-.5l.1.2c-.6 1.1-12.5.5-13.8.5zm6.4-2.3c-.7-1.3-1.1-1.8-1.7-2.5l1.6-18.6c1 5.8 1 12.2 1.7 18.4-1.3 2.6-1.5 2.8-1.6 2.7z" style="fill:#c0a062;stroke:#000;stroke-width:.005" transform="matrix(2.25 0 0 2.25 -225 -298.8)"/><path id="path25" d="M35.3 35.3c-1.2-.4-1-1-1.3-1.6h1.2c.7-1 1-1.4 1.1-2.3h.3c.1 1.2.9 4-1.3 3.9zm4.7-1.5a6.1 6.1 0 0 0-1.5-1.4c-.3-1-.1-1.4 0-2l.3-.3c1.4 1 2.2.6 2.2 3.1l-1 .6zm-3.8-3V30c.8-.6 2-2 3.3-1.8v.5c-.6.8-2.2 2.1-3.3 2.1zm6.6-.6c-.7-.1-1.9-.4-2-.7 1.2-.1 1.7-.4 2.3-1.6h.2c.7 1 1 2.1-.5 2.3zm-9-.6c.4-.5 1.9-.3 1.6 0h-1.6zm3.1-1a11 11 0 0 0-2.9-1.8c-.5-1.1-3.2-6.6-3-7l5.6 4.8.8 3.8c-.4.2-.4.2-.5.1zm127.6 6.2c-1.3-1.2-1-2.8-.7-4h.4c.1 1.8 0 2.3 2.3 2.5-.2 1.3-1 1.4-2 1.5zm-4.5-1.5c-.8-.6-.2-1.7-.2-2.2l2.2-1.3.3.3c-.4 1.6-.3 2.8-2.3 3.2zm3.9-3.1c-1.5-.8-2.9-1.3-3.1-2.6 1.2 0 2.5 1.2 3.7 2.1 0 .6-.2.5-.6.5zm-6.5-.5c-1.7-.3-1.1-2.1-.3-2.6.4 1.6 1.3 1.8 3.2 1.7a4 4 0 0 1-2.9 1zm6.3-1.3-.4-.3.6-4c1.2-1 3.2-3 4.5-3.7 0 1.2-1.4 4.4-2 6-.1 0-2.5 2-2.7 2z" style="fill:#c0a062" transform="matrix(2.25 0 0 2.25 -225 -298.8)"/><path id="path26" d="M34.1 112c-.2-1-.9-2.4-.7-3l1 3-.1.1H34zm-10.3-.1-.2-.4h.2v.4zm1 4a36 36 0 0 1-1.6-5.1h.3c-.3-1.2-.3-1.2-.2-1.7l.2.2c.2-1-.6-1.8-.4-2.3.2.5 1.7 4.3 1.5 5l-.6-1.5c0 .9.5 2.3.9 3.4-.6.3-.8-1.6-1-1.8 0 1.1 1.2 2.7 1 3.8h-.2zm-.2-5.9a40 40 0 0 1-1.3-4.4c.6.6 1.2 3.2 1.6 4.4h-.3zm9.7-.8c-.5-1.6-1.9-5.1-1.5-5.8l.2.1c.1-.8-.5-1.8-.3-2.7l.2.1c.1-.1.1-.1-.3-2.2h.2c.3.5 1.8 5.5 1.7 6l-1.4-3.3c-.6 1.6 1.7 4.3 1.3 5.8-.6-1.6-.6-1.6-1-2.1 0 1 .5 2.6 1.2 4h-.3zm-9.6-1c-1-3.7-1.4-4.3-1.3-4.5a10 10 0 0 1 1.6 4.5h-.3zm.3-1.8-1.5-4.5c.6.4 1.4 3 1.7 4.5H25zm.1-2-1.1-4 .7 1.5c0-.3-.7-3-.6-3.2a10 10 0 0 1 1.3 4.5h-.3l.2 1.2h-.2zm8-.1v-.4l.2.3h-.1zm11.6-.5c-.6-1.5-1.7-4.7-1.5-5.7l1.8 5.7h-.3zM25 103c-.2-.5-.3-.6-.2-1l.2 1zm18.3-.2-.1-.7s.4 1 0 .7zm-8.5-.4zm10.3.1c-.8-2.2-2-4.6-1.9-6.6.5-.2-.1-1.5 0-2 .3.4 1.6 4.8 2 6-.6.3-1.3-3.4-1.7-3.6l1.6 6.2zm-19.6-1.1c-.1-.7-1.4-4.6-1.3-4.8a13 13 0 0 1 1.6 4.8h-.3zm9.4-1.4a19 19 0 0 1-1.4-6.3l.4 1c0-1.5-.8-3-.6-3.8.2.1 1.7 6 1.7 6.8-.3-.3-.9-2.8-1-2.8 0 1.4 1 3.4 1 5zm-9.1-.8c-.4-1.3-1.7-4.5-1.5-5.2.5.5 1.6 4 1.7 5.1h-.2zM45 97.9c-.7-.7-1.8-5.7-1.8-6.2.1.1 2 6.3 1.8 6.2zm-18.8-.6-1.7-5c.3.2 2 4 2 5h-.3zm19-1.5c-.8-1.4-2-4.5-1.6-5.6.6.7 1 4 1.8 5.6h-.2zm-18.8-.5c-1.3-4.6-1.5-5-1.3-5.4.2.3 1.7 4.8 1.4 5.5zm8.3-.7c-.4-1.6-1.5-4.6-1.3-5.9 0 .1 1.6 4.8 1.6 5.9h-.3zm10.6-.5c-.8-1.8-1.3-3.7-1.5-5.2h.2l.9 3.7.6 1.5h-.2zm-18.8-1L25 88.3h.2l1.5 4.8h-.3zm8.6-.5-1.3-5.2c.4-.3 1.3 4 1.5 5.2H35zm10.5.1L44 87.3l.2-.2 1.5 5.6zm-18.8-1.4c-.3-1.9-1.5-3.3-1.3-4.7.2.2 2 4.9 1.3 4.7zm8.3-1.1c-.4-1.2-1.4-4.8-1.2-5.6 0 0 1.7 4.5 1.3 5.7v-.1zm-8-.3-1.4-4.6c.3 0 1.8 4.8 1.3 4.6zm18.3.1c-.5-1.6-1.8-4.4-1.6-5.6 0 0 2.2 5.8 1.6 5.6zm-18-1.4c-.5-1.4-1.6-3.6-1.4-4.6 0 0 2 4.8 1.4 4.6zm8-.3c-.3-1.4-1.5-4.7-1.3-5.5l.4.4c0-1-.6-2-.4-2.6l.4.4-.2-1.8h.3l-.2-1.7h.3c0 1 1 3.4.8 4.5l-.4-.8.5 2.8a2 2 0 0 0-.3.2l.3 2c-.7.4-.7-2.6-1-2.8 0 1.2.6 3.1 1 5l-.2-.1zm10-.3c-.4-1.2-1.7-4.5-1.4-5.4l.3.4-.4-2.2h.1l1.6 5.1-.1.1c-.4-.7-.4-.7-1.1-2.8 0 1.6 1.2 3 1.2 4.8h-.2zm-18.2-1.5-1.2-4h.3l1.1 3.8-.2.2zM45.8 85c-.6-1.9-1.6-4.3-1.6-5.8h.2c.3 1.1.5 2 1.7 5.6-.1 0-.2 0-.3.2zm-10.7-1-.2-1.2.4 1.1H35zm-8-1-.1-.7c.1.3.2.7 0 .8zm19 0a56 56 0 0 1-1.8-5c.2-.2.2.2.5.6.1-.6-.2-1.3 0-1.5l1.5 4.4c-.4.2-.8-1.4-1.3-2.7-.5 0 1.5 4.4 1 4.3zm-11.3-.5c-.3-.8-.3-.8-.2-1.2l.3 1.2h-.1zm.7-4-.6-2.8.1-.1c.4.4.7 1.8.6 2.8h-.1zm0-2.7L35 74l.2-.1c.3.2.4 1.1.4 1.8h-.3zm.3-1.6-.5-2.1h.3l.4 2h-.2zm.1-2.1-.1-1.4c.1-.1.1-.1.4 0l-.2-1.5c.5-.2.6 1 .6 1.7h-.4V72h-.3zm.8-3.3-.3-1.3c.4-.1.7.6.5 1.3h-.2zm.2-1.9-.2-.5.4-.1c.2-.5 0-.3.4-.4l.2.2c-.3.3-.3.3-.4.8h-.4z" style="fill:#000" transform="matrix(2.25 0 0 2.25 -225 -298.8)"/><path id="path27" d="m57.5 109.9-6.4-1.6.7-2.7.5-1.5.8-.6h1.1c.5.1.8.4 1 .7.3.4.4.9.4 1.4l.7-.5 1.2-.5 1.4-.5-.3 1.6-1.7.6-1 .4a1 1 0 0 0-.4.3l-.3.7v.2l2.6.7-.3 1.3zm-3.4-2.2.3-1 .2-1.2c0-.1 0-.3-.2-.4a.9.9 0 0 0-.4-.2h-.6c-.2 0-.3.2-.4.4l-.2 1-.3 1 1.6.4zm5-4.3-6.3-2.1 1.6-4.7 1 .4-1 3.4 1.3.4 1-3 1.1.3-1 3.1 1.7.6 1.2-3.5 1 .4-1.6 4.7zm2-5.7L55 95l.8-2 .7-1.4a2 2 0 0 1 1-.6c.4 0 .8 0 1.3.2l.9.6c.2.3.3.5.3.8v.7c0 .4-.2.8-.4 1.3l-.4.8 2.3 1-.6 1.3zm-4.5-3.5 1.7.8.3-.7.3-1a.9.9 0 0 0-.5-.8.9.9 0 0 0-.6 0 1 1 0 0 0-.5.3l-.5.8-.2.6zm1.3-5.5.7-1.2 3 1.9 1 .5h.8c.2-.1.5-.3.7-.7.2-.3.2-.6.2-.8a1 1 0 0 0-.3-.6l-1-.6-3-1.9.6-1.1 3 1.7a9 9 0 0 1 1.4 1l.5.8v.9l-.4 1.2-1 1.1a2 2 0 0 1-.9.4h-.8a8 8 0 0 1-1.5-.8l-3-1.8zm.6-1.8-.8-1.2.7-1.2.5 1.7-.4.7zm3.3-4.7 1.6-2 .8-1 .6-.3c.2-.1.5-.1.8 0 .2 0 .5 0 .7.2l.5.7v1c.4-.3.7-.4 1-.4.4 0 .8 0 1 .3a2 2 0 0 1 .8 1.6l-.3.9-1 1.3-1.3 1.7-5.2-4zm1.7-.4 1.2 1 .5-.7.6-.8.1-.6c0-.2 0-.3-.3-.4a.7.7 0 0 0-.5-.2c-.1 0-.3 0-.4.2l-.8 1-.4.5zm2 1.6 1.4 1.1.8-1 .5-.7.1-.5c0-.2-.1-.4-.3-.5a.9.9 0 0 0-.5-.2l-.5.1-.8.9-.7.8zm5.6-2.4-4.7-4.5 1-1 3.8 3.8 2.3-2.4.8.8-3.2 3.3zm4-3.9-4.4-5 1-.8 4.3 5-1 .8zm4-6.2 1.2-.4c.3.7.3 1.4.1 2a2 2 0 0 1-1.1 1.3c-.7.5-1.5.7-2.3.5-.8-.1-1.5-.6-2-1.5-.7-.9-1-1.7-.8-2.6a3 3 0 0 1 1.3-2c.6-.4 1.3-.6 2-.5.4 0 .8.2 1.2.6l-.9 1c-.2-.2-.5-.4-.8-.4-.4 0-.7 0-1 .3-.3.3-.6.6-.6 1.1 0 .5.1 1 .6 1.7.5.6 1 1 1.4 1.2.4 0 .8 0 1.2-.3.3-.2.5-.4.6-.8 0-.3 0-.7-.2-1.2zm8.6-1.8-1.3.6-1.1-1.1-2.4 1 .1 1.7-1.3.6-.4-7 1.3-.7 5.1 4.9zm-3.3-1.4L82.6 66l.2 2.6 1.6-.8zm6.4.3-1.2-6.5 2.7-.5c.7-.1 1.2-.2 1.6-.1.3 0 .6.2.8.5.3.2.5.5.5 1 .1.4 0 .8-.2 1.2a2 2 0 0 1-1.1.9c.3 0 .6.2.8.4l1 .9 1 1-1.6.4-1.2-1.2-.9-.9a1 1 0 0 0-.4-.1h-1l.6 2.8-1.4.2zm.6-4 1-.2a5 5 0 0 0 1.1-.3c.2 0 .3-.2.4-.3v-.5c0-.2-.1-.4-.3-.5a.8.8 0 0 0-.5-.2l-1 .2-1 .2.3 1.6zm6 3-.5-6.7h1.3l.5 6.5-1.3.1zm2.4-3.5c0-.7.2-1.2.4-1.7l.6-.9.9-.5c.4-.2.9-.3 1.4-.2 1 0 1.8.3 2.3 1 .6.6.8 1.4.8 2.5 0 1-.3 1.9-1 2.4a3 3 0 0 1-2.3.9 3 3 0 0 1-2.3-1 4 4 0 0 1-.8-2.5zm1.4 0c0 .7.1 1.3.5 1.7.3.4.7.6 1.2.6.6 0 1-.1 1.4-.5.3-.4.5-1 .5-1.7 0-.8 0-1.3-.4-1.7-.3-.4-.7-.6-1.3-.6-.5 0-1 .1-1.3.5-.4.4-.6 1-.6 1.7zm6.2 2.1.2-1.2 2.5.5-.3 1.3-2.4-.6zm6.4 1.2.3-1 2.7 1-.9 2.4c-.3.2-.8.3-1.3.3a5 5 0 0 1-1.7-.3 4 4 0 0 1-1.5-1c-.4-.5-.6-1-.7-1.6 0-.6 0-1.2.3-1.7a3 3 0 0 1 1-1.6 3 3 0 0 1 1.6-.7c.5-.1 1 0 1.6.2.8.3 1.3.7 1.6 1.1.3.5.5 1 .4 1.7l-1.4-.2c0-.4 0-.7-.2-1-.2-.2-.4-.4-.8-.5a2 2 0 0 0-1.5 0c-.4.2-.8.7-1 1.4-.3.7-.3 1.3-.1 1.8.2.5.5.8 1 1l.9.2.8-.2.3-.8-1.4-.5zm3 3.9L120 65l2.5 1.4c.6.3 1 .6 1.2.9.2.2.3.5.4 1l-.3 1c-.3.4-.6.7-1 .8-.4.1-.9 0-1.4-.1l.3.8.1 1.3v1.5l-1.3-.8-.1-1.7-.1-1.2a1 1 0 0 0-.2-.4l-.6-.4-.2-.2-1.4 2.4-1.1-.6zm3-2.7.9.5 1 .6.5-.1.4-.4v-.5c0-.2 0-.3-.2-.5l-.9-.5-.9-.5-.8 1.4zm7.1 10-1.1-1 .5-1.5-2-1.7-1.4.8-1-.9 6.1-3.4 1.1 1L127 78zm-.2-3.6.9-2.4-2.3 1.3 1.4 1.1zm.7 4.2 4.9-4.4.8 1-1.4 4.9 3.3-3 .8 1-5 4.3-.8-1 1.4-4.8-3.2 2.9-.8-1zm9.8 1.2 1.4 2 .6 1.1v1.2c0 .4-.2.7-.5 1-.3.4-.7.8-1.2 1.1-.4.3-.9.5-1.3.6a2 2 0 0 1-1.3.1c-.3 0-.7-.2-1-.5a4 4 0 0 1-.7-.9l-1.4-2 5.4-3.7zm-.2 1.7-3.6 2.4.6.9.5.6.5.3h.7l1.1-.6.9-.8c.2-.2.3-.5.3-.7V83a6 6 0 0 0-.6-.9l-.4-.5zm-1.6 7.6 5.8-3.2 2.3 4.3-1 .5-1.7-3.1-1.2.7 1.6 2.9-1 .5-1.6-2.9-1.6.9 1.8 3.2-1 .6-2.4-4.4zm2.8 5.4 6.2-2.5.4 1.2-3 4.2 4-1.7.5 1.2-6 2.5-.6-1.3 3-4-4 1.6-.5-1.2zm4.3 5.3.5 1.2c-.4.2-.6.4-.7.7-.2.3-.2.6 0 1 0 .4.3.7.5.9.2.1.5.2.7 0 .1 0 .3 0 .3-.2l.2-.5v-1.1c-.1-.7 0-1.3.1-1.6a1.7 1.7 0 0 1 2-1c.4.1.7.3 1 .6l.6 1.2c.2.8.2 1.4 0 2a2 2 0 0 1-1.2 1l-.4-1.3c.3-.1.5-.3.5-.6.1-.2.1-.5 0-.8-.1-.4-.3-.7-.5-.8a.5.5 0 0 0-.4-.1c-.2 0-.3.1-.4.3v2.8a2 2 0 0 1-.5.9 2 2 0 0 1-1 .6 2 2 0 0 1-2-.7c-.2-.3-.5-.7-.6-1.3-.3-.8-.3-1.4 0-2 .2-.5.7-1 1.3-1.2zm-.3 6.9 6.5-1.4 1 4.8-1 .2-.8-3.5-1.5.3.7 3.3-1 .2-.7-3.2-1.8.3.8 3.6-1.1.3-1-5zM52.7 117l1.1 3.4 3.6.2-2.9 2.1 1 3.5-3-2.1-3 2 1.2-3.4-2.8-2.3h3.5l1.3-3.4zm95 1.7 1.2 3.4 3.6.1-2.9 2.1 1 3.5-3-2.1-3 2 1.2-3.4-2.8-2.3h3.5l1.3-3.3z" style="fill:#1f1a17" transform="matrix(2.25 0 0 2.25 -225 -298.8)"/><path id="path28" d="M171.4 114.8v-.1l2.1-4c.2.3-1.3 3.7-2 4.1zm0-1.5c.4-.5 1.8-4 2.1-3.7-.3.8-1.3 3.7-2.1 3.7zm.3-1.6 2.3-4.5c0 .4-2 4.8-2.3 4.5zm.4-2 1.9-4.8c.5 0-1.5 4-1.6 4.7l-.3.1zm-9.3-.6c.2-.5 1.3-2.7 1.2-3-.2.2-.5.8-.8 1-.1-.6.5-1.5.7-2l-.4.1c0-1 1.8-4.8 2.4-5.4 0 1-.8 2.8-.7 3.9.5.5-1.7 4.6-2 5.4h-.4zm9-1.3c1.3-2.3 1.3-2.3 2.1-4.6.5.3-1.8 4.9-2 4.6zm-.1-1.9c2-4.1 2-4.1 2-4.5h.4l-2.3 4.6h-.1zm-16.5-.6c-.3-.5 2.7-4 1.9-4.5-.2.2-1.2 2.6-1.6 2.5l2.4-5c0 1.7-1.5 6.5-2.7 7zm8.9-.4-.2-.2a18 18 0 0 1 1.4-3.1c0 .9-.8 2.4-1.2 3.3zm7.5-.9 2.3-4.4c-.1.5-1.4 4-2.2 4.6v-.2zm-7.8-1c-.2-.8 1.7-3.5 2.2-4.6.3.2-1.7 4-2 4.5h-.2zm-8.1-1.3c.4-.8 2-4 1.9-4.3-.2 0-.8 1.4-1.4 2.4h-.4c.3-.4 2.3-4.4 2.5-4l-.2.7.1.1c-.3 1-1.6 4.4-2.4 5.2l-.1-.1zm16.2 0c.4-1.6 1.5-3 2.2-4.6h.3c-.3.7-1.5 4.3-2.5 4.6zm-8-.4c0-1.2 2-4.5 2.6-5.5 0 1-2 4.4-2.4 5.5h-.3zm-6.6-.6c-.3-.3.1-.7.2-.7v.2l-.2.5zm14.6-1c1-1.2 1.8-3 2.2-4.4-1.1.5-1 2.6-1.8 3 0-1.2 1.9-3.6 1.6-4.5-.7 1.1-1.3 2.5-1.6 2.7l2-4.7c.4.3-.1 1.1-.3 1.7l.4.2-.4 1.4.4.1c0 .8-1.3 3.6-2.1 4.6h-.4zm-7.8-.5a13 13 0 0 1 2.4-4.8 18 18 0 0 1-2.4 4.8zm-8-1.4c.4-2 2.2-3.9 2.6-5.7 0-.2.2-.3.3-.3.5.3-2.2 5.2-2.6 5.9l-.4.1zm8.4-1.3 2.3-4.2c0 1-1.3 3.1-2 4.2h-.3zm-8-.6L159 90a15 15 0 0 1-2.5 5.9v-.1zm8.6-1.4c-.1-.2 2.2-4.5 2.5-5.1h.1a21.7 21.7 0 0 1-2.6 5.1zm-8.7-.7c1-1.8 2.1-3.8 2.5-5.5 0 0 .2 0 .2.2 0 0-1.8 5.3-2.7 5.3zm16 .2c1-1.1 1.2-3.2 2.1-4 0 1-1.2 3-1.8 4h-.3zm-.3-1s2-4.8 2.4-4.6c-.2.7-1.8 4.8-2.4 4.6zm-6.8-.6 2.7-5.2c0 .7-1.8 4.9-2.6 5.3zm-8.3-1c.5-1.2 1.2-3.4 2-4.4 0 .6-1.2 3.5-1.7 4.5h-.3zm15.3-.5 1.9-4.3h.3c-.4 1.5-1.2 3-2 4.4l-.2-.1zm-6.6-.4c.6-1.6 1.2-3.2 2.2-4.5l-2 4.6-.2-.1zm-8.9-1.5c.7-1 2.1-4.3 2.4-4.6 0 1.3-1.2 3.3-2 4.6h-.4zm15.5 0c.9-1.2 1.6-2.9 2.1-4.2h.3c-.2 1.3-1.3 3-2 4.3h-.4zm-15.4-.7c-.2-.2 2-4.7 2.4-5.6 0 .5-2.3 5.8-2.4 5.6zm15.6-1c.4-.7 1.8-4.3 2.2-4a12 12 0 0 1-2 4.1h-.2zm-6-.1 2.3-5c.4.3-1.7 4.4-2 5h-.3zm-9.6-.3c.5-1.9 1.4-4.4 2.4-6 0 1.3-1.6 4.5-2.1 6h-.3zm10.1-2.3c.2-.4 1.9-3.4 1.7-3.8-.4.4-2 3.2-2.2 3.2l-.1-.2c.6-.8 2.6-4.3 2.6-4.4-.4-.3-1 .4-1.2.3l1.4-3c.3 0 .3 0 .3.2a88 88 0 0 0-.7 1.9l.7-1v.6l.3.3-.8 1.4c.3.6-1.6 4.7-2 4.5zm-9.5-.6.3-1c1.4-4.4 1.4-4.4 1.7-4.8 0 .3-1.6 6-2 5.8zm0-2.5c.1-2 1.7-4 1.6-5.9-.4.8-.5 2.2-1.3 3 0-1.1 1-3.6 1.3-4.2v1l.3.2c0 .8-1.5 6-1.8 6zm11-4.3c0-.6.2-.9.5-1.4l-.4-.3c.4-1 .4-1 .6-1 0 .6.2 2.2-.8 2.7zM158 75.7c-.1-.1.6-2.2.5-2.4l-.7 1.5h-.3l1.6-4.1c-.2.1-.2.1-.7 1l-.3.2c.2-.5 1-2.8 1.4-2.5 0 .5-.3 1.4-.3 2.3l.2.3-1.2 3.7h-.2zm-12.1-2.2v-.1c.1-.3 1.8-2.6 2.4-2.6l-.3.8c-1 .2-1.1 1-1.7 1.9h-.4zm23 .4c0-.4 0-1.1.4-.9 0 .2 0 1-.5.9zm-10.2-.7-.2-.2.2-.3v.5zm10-.5.5-.7-.1.8-.3-.1zm-22.7-.5.8-2h-.1s-.9 1.6-1.3 1.4c.2-.7.7-1.3 1.2-1.7l.3.2 1-1.3c.3 0-1.5 3.2-2 3.4zm-.5-2c.5-1 1-2.5 1.8-3 0 .8-1.1 2.1-1.5 3h-.3zm12.5.2 1-2.4c.5.3-.4 2-1 2.4zm-12.6-1.7c.1-.4.1-.4 1.5-2.7h.3c-.1.4-.1.4-1.5 2.7a1 1 0 0 0-.3 0zm13-.6c-.2-.4.4-1.1.7-1.4 0 .3 0 1.1-.6 1.4zm-12.8-1.2c.4-1.2 1-2.2 1.7-3 0 .7-1 2.1-1.4 3h-.3zm8.2-.3-.2-.2.5-.3v.4h-.3zm-8.2-1.2 1.5-2.8c.4.2-1 2.4-1.2 2.9l-.3-.1zm8.7.3c.1-.9 1.8-4 2-3.7a19 19 0 0 1-2 3.7zm-9.5-1.1c0-.8 1.3-3.1 1.9-3.5 0 .8-1.2 2.6-1.6 3.4h-.3zm9.5-.8c0-.4.3-.8.4-1.1h-.4a182.9 182.9 0 0 1 1.5-2.7c-.2.4-1 1.7-.8 2.3 0-.1 0-.3.5-.1l-1 1.6h-.2zm-8.9-2 1.3-2.5h.1c0 .8-.9 1.8-1 2.6h-.4zm8.2.3 2-4.1h.4l-2.1 4h-.3zm-9-.7v-.2c.3-.7 1.1-3 1.9-3.3-.2.4-1.4 3.8-1.9 3.5zm-.1-1.4c-.3-.4 1.6-3.2 1.8-3.4 0 .7-1.2 2.8-1.7 3.4h-.1zm9.6-.7c1-2.3.9-2.5 1.2-2.3l-1 2.3h-.2zm-9.8-.7v-.2c.7-1.2 1-2.9 2-3.5 0 .3-1.5 3.8-2 3.7zm17.5-.2-.1-.1.8-1.2.3.1-.8 1.2h-.2zm-.5-.4c.2-1 1.3-2.4 1.6-3.4h.4c-.4 1-1.1 2.8-2 3.4zm-17.5-.6h-.1c.5-1 1.5-3 2.2-3.2-1.7 3-2 3.4-2.1 3.2zm10 .1v-.1l1.1-2.3.2.1a43 43 0 0 0-1 2.3h-.3zm-.4-1A14 14 0 0 1 155 53h.1c-.4 1.2-.4 1.2-1.5 3.5h-.2zm7.9 0c.2-1.1.8-2.8 1.5-3.3 0 .8-.9 2.3-1.3 3.2h-.2zm1.8 0V56l.4-.4v.2c-.2.5-.2.5-.4.5zm-10-1.6 1.4-3.3h.2c0 .3-1 3.5-1.5 3.3zm8-.5c.3-1 1.1-2.4 1.3-2.4 0 .5-.7 2-1.3 2.5v-.1zm-.4-1 1.3-2.9h.4c-.4.9-1 2.3-1.6 3l-.1-.2zm-7.5-.3c0-.4.7-2.5 1.2-2.3-.2.6-.6 1.9-1.2 2.3zm7.5-1c0-1.1.8-2.1 1.3-3h.3c-.2.5-1 2.6-1.6 3zm-7.8-.7 1.1-2.6c.3.2-.6 2.8-1 2.6zm-.6-1.5c-.3-.4 1.2-3 1.3-3 0 .9-.6 1.9-1 3h-.3zm8.2 0v-.2c.5-1 1-2.3 1.2-2.4 0 .7-.6 1.8-1 2.5h-.2zm-.3-1.5c-.1-.1.5-1.2 1-2.2h.3l-1 2.1h-.3zm-8.6-.4c.3-.8.7-1.7 1.2-2.5h.3c-.3.7-.7 2.4-1.5 2.5zm8.2-.5c1.4-3.1 1.4-3.4 1.7-3.1-.2.6-1 2.8-1.6 3.2l-.1-.1zm-.2-1.9c.2-.8.7-2.3 1.3-2.6 0 .6-.7 1.9-1 2.6h-.3zm-.3-1.5c0-.2.8-2.4 1.2-2.1a8 8 0 0 1-1 2h-.2zm-.4-.3c.1-.8.6-2.6 1.3-2.4l-1 2.3h-.3zm-.7-1.1c.1-.3.8-1.3 1.6-3.4h.2c0 1-.8 2.3-1.5 3.4h-.3zm-.3-1.9c.2-.5.8-2.2 1.3-2.5 0 .6-.6 1.8-1 2.5h-.3zm-.4-.8c0-.5 1.1-3.3 1.5-3.6 0 1-.8 2.6-1.3 3.5h-.2zm-.9-1c0-.1.6-1 1.8-3.8h.3a19 19 0 0 1-1.7 3.7h-.4z" style="fill:#000" transform="matrix(2.25 0 0 2.25 -225 -298.8)"/><path id="path29" d="M19.1 217.3c7.2 11.6 32 26.4 44.4 28.6-1.5 3-2.5 6.1-2.9 8-.6 2.1-1.6 3.4-2.8 3.5-6.3 1.5-38.4-17.7-46.1-28.5-.5-.7-.8-1.7-.5-2.3 1-2.5 4.4-4.4 7-9.4.6-.9.8-.4 1 .1" style="fill:none;stroke:#1f1a17;stroke-width:.36160001;stroke-linecap:round" transform="matrix(2.25 0 0 2.25 -225 -298.8)"/><path id="path30" d="M181.5 216.7c-3.2-3.1-8.3 4.9-36.2 6.6 5 2.1 11 3.9 18.2 4.1a60.6 60.6 0 0 0-18.6 9.1c7.8-1.4 15.8-2.7 22.6-2.7 6-5.5 15-10.6 14-17.1zm-163.2-.1c3-3.1 8.3 4.7 36.1 6.6-5 2.1-11 3.9-18.2 4.1a54 54 0 0 1 18.5 9.1c-7.8-1.5-15.6-2.8-22.6-2.8-6-5.5-15-10.7-13.8-17z" style="fill:#dededd;fill-opacity:1;stroke:#1f1a17;stroke-width:.36160001" transform="matrix(2.25 0 0 2.25 -225 -298.8)"/><path id="path31" d="M118.3 247.2c1 3 2 6 2.4 9 10.5 2.7 17.3-.2 21.7-6.4a34 34 0 0 0-1-9c-.3-.9-1.6-1.4-3.2-.5a36 36 0 0 1-17.3 5.2c-2 .2-2.6 1.2-2.6 1.7z" style="fill:#dededd;stroke:#000;stroke-width:.3" transform="matrix(2.25 0 0 2.25 -225 -298.8)"/><path id="path32" d="M124 251.2c4-2.7 2-3.3-.6-3-1.4 0-3.6.6-4.7-.2m19-1c-5-.2-3.4-2-.8-3.2 1.2-.5 4-1.4 4.5-2.5" style="fill:none;stroke:#1f1a17;stroke-width:.2491;stroke-linecap:round" transform="matrix(2.25 0 0 2.25 -225 -298.8)"/><path id="path33" d="M58.2 239.8c-1 3-2 5.9-3.4 8.6 7.2 8.4 14.5 9.9 21.7 7.2 1.8-2.7 3-4.8 4.3-8 .3-.8-.5-2-2.3-2.2a34.1 34.1 0 0 1-17.3-5.6c-1.7-1-2.7-.5-3 0z" style="fill:#dededd;stroke:#000;stroke-width:.3" transform="matrix(2.25 0 0 2.25 -225 -298.8)"/><path id="path34" d="M60.5 246.2c4.9.2 3.5-1.4 1.2-2.8-1.2-.7-3.2-1.5-3.7-2.7m16 9.8c-3.8-2.8-1.3-3.5 1.4-3 1.3.3 4.1 1.3 5.2.5" style="fill:none;stroke:#1f1a17;stroke-width:.2491;stroke-linecap:round" transform="matrix(2.25 0 0 2.25 -225 -298.8)"/><path id="path35" d="M19.1 217.3c7.2 11.6 32 26.4 44.4 28.6-1.5 3-2.5 6.1-2.9 8-.6 2.1-1.6 3.4-2.8 3.5-6.3 1.5-38.4-17.7-46.1-28.5-.5-.7-.8-1.7-.5-2.3 1-2.5 4.4-4.4 7-9.4.6-.9.8-.4 1 .1zm162.1-.1c-7.2 11.6-33.8 27.2-46.1 29.5a42 42 0 0 1 2.9 8c.6 2 1.6 3.3 2.6 3.4 6.5 1.5 39.7-17.3 47.4-28 .5-.8 1.2-2.5.8-4-1-2.4-4-4-6.6-9-.6-.9-.9-.4-1 .1zM72.5 248.8c-.8 5.5-2.2 7.5-2.4 11-.2 1.3.3 2.2 1.8 2.6 19.8 4.6 38 3.9 54.7.5 1.6-.4 2-1.1 1.7-2.5l-1.9-11.1c-7.3 4.7-46.8 4.2-54-.5z" style="fill:#dededd;stroke:#000;stroke-width:.3" transform="matrix(2.25 0 0 2.25 -225 -298.8)"/><path id="path36" d="M49.9 251.2v-.3l.2-.4c.2.2.4.2.5 0l.7-.7.5-1 .6-1.1c.3-.4.4-.7.3-1l-.3-.2.3-.7 3.7 1.4v2h-.7c0-.4-.1-1-.3-1.2-.2-.3-.5-.6-.8-.7h-.4c-.1.1-.3.2-.4.6l-.5.8h.8c.2 0 .3-.3.6-.5h.4a4 4 0 0 1-.7 1.3l-.6 1.3c-.3 0-.4-.1-.5-.3.1-.2.2-.5.1-.7l-.2-.4-.3-.1-.6 1.4c-.3.2-.3.3-.3.5l.3.3c.4.2.9.2 1.2 0 .6-.1 1-.3 1.6-.7 0 .1.2.2.2.5l-.9.7a7 7 0 0 1-1 .8l-3.5-1.6zm0-1.5c0-.2.1-.2.2-.3.3-.2.5-.6.8-1l.5-1.2-.1-1.2c-.1-.5-.7-1-1.4-1.3v1l.2.5v.7c0 .3-.2.4-.2.5v2.3zm0-5v1c-.1-.3-.4-.4-.6-.5-.2-.2-.3-.2-.4 0-.1 0-.3 0-.4.5h-.1V244l1.2.5c.2 0 .2.2.3.2zm0 2.7v2.3c-.3 0-.5.2-.8.3l-.7.2v-1l.7-.5c.2-.3.4-.5.5-1 .2 0 .2-.2.3-.3zm0 3.5v.3l-.3-.2.3-.1zm-1.5-6.9v1.7l-.7 1.2-.7 1.3c-.3.3-.3.5-.3.6l.3.4h1.4v1c-.5 0-1.2-.3-1.8-.5l-1.6-.8v-.9c.1.2.2.2.4 0l.6-.6c.1-.4.4-.7.6-1l.5-1c.3-.4.4-.7.4-.9 0 0-.1-.2-.4-.3l.4-.7.9.5zm-3.4 1.4.1-.6.5-2.3c-.2 0-.4 0-.6-.2v3.1zm0-3.1v3.1l-.4 1.6v.7s0 .2.2.3c0 .2-.3.4-.5.5l-.8-.3V245h.2l.3-.7c0-.4 0-.6.2-.9l-.6.6h-.1v-1l1.1-1c.1.2.3.3.4.3zm0 5.7h-.1a1 1 0 0 1-.6.5l.7.4v-.9zm-1.5-5v1l-.7.7c.3 0 .5.2.7.3v.8c-.4-.3-.8-.5-1.3-.6l-.6.5h-.2v.5s.2 0 .3.2c-.1.3-.3.4-.4.5-.5-.1-.9-.4-1.4-.6v-.9c.4.1.8 0 1.3-.4l1.8-1.5.5-.5zm0 3.2v.5h-.2v.2l-.2.1h-.5l-.4.4 1.3.8v-2zm-3.6-1.4.4-.3c.3-.2.5-.6.8-1l.5-1v-1.2c-.2-.6-.7-1.3-1.4-1.8h-.3v.8c.3.2.5.6.5 1v.7l-.5 1v1.8zm0-5.4v.9l-.2-.1c-.1-.2-.3-.2-.4-.2l-.5.5-.1.3v-2.1l1.2.7zm0 3.5v1.9l-.6.2h-.6v-1l.6-.3c.3-.3.5-.5.6-.8zm0 2.5v.9c0-.1-.2-.3-.5-.3.3-.2.4-.3.5-.6zm-1.2-6.7v2l-.7 1-.7 1.3c-.3.3-.3.5-.3.7 0 0 .2 0 .3.2.5.3.9.4 1.4.1v1c-.5 0-1.2 0-1.8-.5-.4-.2-.7-.5-1.1-.6v-1.2c.2 0 .4-.3.6-.7l.6-.8.5-1c.3-.4.4-.7.4-1 0 0 0-.2-.2-.3l.3-.6.7.4zm-3 1.2c.5-.1.7-.4.8-.6.4-.5.4-.9.3-1.4-.1-.4-.4-.7-.9-1.1h-.1v3.1zm0-3.1v3.1l-.4.1v-1l.2-.5.1-.6-.3-.6v-.9l.5.4zm0 5.9v1.2l-.4-.4v-.8h.5zm-.4-6.3v.9H35c0-.1-.2-.3-.3-.1h-.2V236l.7.4zm0 2.5v1.1h-.5v2.3l.3.4-.5.5V239h.7zm0 3.9c-.2.1-.4.2-.5.5l.5.2v-.7zm-.7-6.8v1.2c0 .1 0 .2-.2.3l-.6 1v.2l.8.3v4.2l-1.2-.8.1-1.5.1-1.5-.3-.2-.4.6-.5.9s.1.2.4.3l-.6.7c-.2-.3-.5-.4-.7-.5v-1.7l.2-.3c.3-.4.5-.8.8-1 .1-.4.4-.7.6-1 .3-.4.4-.7.4-.9l-.2-.4.3-.6 1 .7zm-3.1-1.2.1.4.1 1.3h.5c.2-.3.2-.6.3-1l.3-1-1.3-.8v1.1zm0-1.1v1.1a1 1 0 0 0-.5-.5l-.4-.2-.5.5c-.1.2-.2.5-.5.7l.3.1c0 .1.3.3.5.1l.5-.4.5.2c-.3.5-.5.9-1 1.2l-.7 1.2-.4-.4c.2-.3.3-.5.3-.8 0 0 0-.3-.3-.5l-1 1.2-.2.6.2.4 1.2.2c.5 0 1-.2 1.5-.5l.2.5a2 2 0 0 1-1 .6c-.2.3-.5.5-.9.7l-2.9-2v-1l.6.1.6-.8c.2-.2.5-.6.6-1a7 7 0 0 0 1.1-1.7c.2-.2 0-.4 0-.5l.3-.6 1.9 1.5zm0 5.8-.3.3c-.2.1-.3 0-.5-.1l-.5.6 1.3.9v-1.7zm-5-3.7c0-.1.2-.1.2-.3.3-.3.4-.6.4-.8l-.1-1 .6-.1.6-.5c.1-.3.3-.5.3-.8v-.7a1 1 0 0 0-.3-.5l-.7-.7-1-.8v1.3l.6.2c.2 0 .4.3.4.6l-.3.7c-.1.3-.4.4-.5.4h-.3v3zm0-6.2v1.3c-.2 0-.3.2-.4.4 0 .1-.2.1-.2.3V229c.2 0 .4.3.5.5zm0 3.2v3l-.3.2c-.1 0-.1.2-.3.2v-3.6c.3 0 .4.2.5.2zm0 3.9v1l-.6-.4.5-.6zm-.6-7.6v2.5l-.5.6c.3.1.4.2.5.4v1.2c0-.1 0-.4-.3-.5l-.7-.5c0 .3 0 .4-.2.5v-2.1l.2-.4.5-.9a1 1 0 0 0-.2-.5c.1 0 .4-.3.5-.6l.2.3zm0 5.2v1.9l-.3.1c-.3.1-.5.1-.8 0h-.1v-1.1c.1.1.1.1.2 0 .4 0 .7-.1.8-.5l.2-.4zm0 3-1.2-8.2h.2l.5-.5-.7-.7v1.2l1.2 8.2zm-4.1-12.1.1.1h-.1v-.1zm2.9 2.7v1.2h-.3l-.6.7c-.3.4-.5.8-.8 1l-.7 1-.5.8v-2.3l.2-.2c.3-.4.5-.8.8-1 .4-.5.5-.8.5-1 .1-.2 0-.3-.1-.4l.5-.8c.2.4.6.7 1 1zm0 3.3c-.3.2-.4.4-.5.6-.3.4-.5.8-.8 1-.2.5-.5.8-.6.8-.1 0-.4 0-.5-.2l-.5.7 2 1.6.9.6v-1.1l-.5-.1c-.3-.3-.3-.4-.3-.5l.4-.8c.1-.1.3-.2.4-.5v-2.1zm-3 2.2v-.3h.2l-.1.3zm-1-9.2 1 1v.1c0 .3-.2.4-.3.6h-.6v-1.7zm0 5.6c0 .1 0 .4.2.5l-.1.1v-.6zm1 .5c0 .3-.2.5-.4.8-.3.2-.4.5-.5.6v1.5l.6.6.4-.4v-3zm0 3.8-2.8-2.4-3-2.6.6-.7c.1.2.2.2.5.2l.6-.8 1-1.1.7-1 .6-.9c0-.2-.1-.4-.3-.5l.5-.6.7.5v1.7l-.7.7-.8 1c-.3.5-.5.8-1 1.2-.2.4-.3.5-.3.8l.3.3c.2.3.6.4 1 .3.5 0 .8-.1 1.5-.5v.7l-1 .5-1 .8 3 2.4-1-2.4-.1.1-.6-.1c0 .2-.3.4-.5.6l1.2.9v-1.5l1 2.4zm95.5 25v-1 1zm0-4.3.1.6.5.1.3 1 .1 1.3.1 1c.2.6.2 1 0 1 0 .3-.1.3-.3.5v.7c1.5-.2 2.9-.6 4.2-1l.3-1.1.1-1c-.1-.1-.2-.3-.5-.3a3 3 0 0 1-.7 1.4 2 2 0 0 1-1 .8c-.2 0-.4 0-.6-.2v-.5l-.3-1.5h.2c.3 0 .4 0 .5.2.1 0 .3.3.4.7l.5-.1-.2-1.4-.3-1.4a1 1 0 0 0-.5.2v.7c-.1.1-.3.3-.5.3h-.3v-1.5c0-.2.2-.2.4-.3.3 0 .6 0 1 .3.4 0 .7.5 1 .8.2 0 .3-.2.4-.3-.1-.3-.2-.7-.5-.9l-.4-.9-4 .6v.2zm0-.2v.2-.2zm0 3.5v1.2c-.1.5-.3.8-.5 1-.4.7-1 1.2-2 1.3v-.8c.4 0 .7-.4 1-.8l.1-.9v-1l-.1-1c-.1-.3-.3-.6-.5-.7a1 1 0 0 0-.5-.5v-.9c.6 0 1.1.3 1.5.6.2.3.5.5.6 1 .3.3.3.8.4 1.3v.2zm-2.5-3v.8c-.3 0-.5-.1-.8 0l-.4.1v.8c0 .5 0 1 .2 1.6v1.7l.3.7h.7v.8l-2.7.4v-.9c.3 0 .4 0 .4-.2l.1-1v-1.3c-.2-.5-.2-.8-.2-1.3-.1-.5-.1-1-.3-1l-.2-.2v-.8l2.1-.3h.8zm-3 7h.3l-.1-1h-.1v1zm0-6.8v.8h-.2v-.8h.3zm0 5.8h-.2l-.4-.7-1-2.5-.8-2.4h-.7v1.9l.3.6c.1.4.2.8.4 1l-.7.1v.8h1l.3.9v.2c.1.1 0 .3 0 .4l-.4.1h-.1l.1.8c.8 0 1.5-.2 2.3-.3v-.9zm-3-5.6v1.9-.4l-.3 1.1c-.2.3-.2.7-.3 1h.5v.8l-.7.1c0 .3 0 .6-.2.9v.2l.2.4.5.1v.8l-2.2.2v-.8c.4-.2.7-.5.8-1.3l.6-2.5.5-2.4h.5zm-5.2 7.3v-1c.3 0 .6-.3.7-.7l.4-.7v-1.1l-.1-1.2-.4-.7c-.1-.4-.4-.5-.6-.6v-1c.7 0 1.2.5 1.6.8.2.3.5.7.6 1.2.2.3.3.8.3 1.3l-.1 1.5a3 3 0 0 1-.6 1.2c-.3.5-1 .8-1.8 1zm0-7v1l-.5-.2c-.3 0-.6.2-.6.3v4.1c0 .4 0 .6.2.8h.9v1h-2.9v-.8l.3-.2c.2-.2.2-.5.2-1.2V258l-.2-1c0-.1-.2-.2-.5-.2v-1h3zm-11.3 4.3v-.8h.5c0-.4 0-.7-.2-1l-.1-1c-.2 0-.2.2-.2.3v-2l1 .2.7 2.6a14.5 14.5 0 0 0 .9 3.2c0 .2.2.3.5.3l-.2.9-2.5-.2v-.8h.5l.1-.4v-.3l-.2-1h-.8zm7.4 2.8-4.3-.1v-1c.2 0 .5 0 .5-.2l.1-1v-1.3l.1-1.3-.1-1.1c-.1-.1-.3-.3-.5-.3v-.7h2.5v.9c-.2 0-.4 0-.5.2l-.1 1v3l.1.8h.5c.3 0 .6 0 1-.4.3-.3.7-.8.9-1.4l.4.4-.3 1.2-.3 1.3zm-7.4-7.3v2c0 .2 0 .4-.2.7l-.4 1h.6v.8h-.8c-.2.3-.2.5-.3 1v.2l.1.3.4.2v.7l-1.9-.1v-.9c.3-.1.5-.5.6-1v-.1l1-2.4.8-2.4h.1zm-2.5.8h.3v-.9h-.3v.9zM79 253.9v.1-.1zm10.8 1.6v.9l-.2.1c-.2.1-.2.5-.3 1v1.1l-.1 1-.1 1.4-.4.8c-.3 0-.4.3-.8.3-.2.2-.5.2-.9.2-.7-.2-1.2-.4-1.5-.8-.3-.5-.3-1.1-.3-1.9v-1.2l.2-1.3v-1c-.1-.2-.2-.3-.5-.3l.1-.9 2.4.4-.1.7c-.3 0-.4.1-.5.3l-.1 1-.2 1.2v2.3c.3.2.4.5.8.5s.6 0 .9-.3c.2-.2.4-.7.4-1.2v-3.4c0-.1-.2-.3-.4-.3l.1-.7 1.5.1zm0 6h-.2v.9h.2v-.9zm-10.8-3v-1.2c0-.5.1-1 .4-1.4 0-.4.3-.6.6-.9.2-.4.5-.5.9-.6l1-.1.6.2c.1.1.3.1.5.4l.1-.3h.4l.1 1.3c.2.4.2.7.2 1.1-.2.1-.4.1-.5.3-.3-.7-.4-1.2-.7-1.5-.2-.3-.5-.5-.8-.5-.4-.2-.7 0-1 .5a2 2 0 0 0-.3.7l-.3 1v1.1c0 .4 0 .7.2 1 0 .4.5.7.8.7.3 0 .7 0 .8-.2.3 0 .4-.3.4-.7v-.6c-.1-.2-.3-.2-.5-.3l.1-.7c.8 0 1.5.2 2.3.3v.8l-.5.2c-.2.2-.3.4-.3.8l-.1.9v.8h-.8v-.7c-.3.2-.6.4-1 .4h-.7c-.4 0-.7-.2-1-.4-.2-.3-.4-.5-.5-.9-.3-.2-.4-.7-.4-1.2v-.3zm0-4.5-.1.8c-.3-.2-.4 0-.5.1-.2.1-.2.4-.3 1l-.1 1.2c-.2.4-.2.8-.3 1.3v1l.5.4-.1.7c-.9-.1-1.6-.4-2.4-.6l.1-.8h.4c.1-.2.3-.5.3-1s0-.8.2-1.3l.1-1.3c.2-.5.2-.9 0-1 0-.1 0-.2-.3-.2v-.9l2.5.5v3.7a1 1 0 0 0 0 1V254zm99.6-20.3v-1c.5-.4.6-.8.6-1.3a1 1 0 0 0-.3-.7l-.3-.8v-1.7a8.2 8.2 0 0 1 1.5 2v1.1c0 .6-.3 1.3-1 1.9-.2.1-.4.2-.5.5zm0-6.8h.2l.6.8.7.9.7.8.5.8-.2.5c.1.1.2.4.5.5l3-2.4c-.3-.4-.4-.7-.5-1.1l-.4-1h-.5l.1 1.5c0 .5-.2.7-.5 1l-.5.2-.3-.5-1-1s.2 0 .2-.2h.5c.1 0 .4.1.6.4.2 0 .3-.2.4-.3l-.9-1.1-.9-1-.3.2.3.8-.2.5-.1.1-.5-.7-.4-.5.2-.4c.3-.3.5-.4 1-.4l1.2.3.1-.5-.9-.5-.7-.5-2 1.8v1zm0-1v1l-.3.2-.5-.5.8-.7zm0 2.3v1.7h-.2l-.6-.7-.6-.4h-.7v-.9h1c.4 0 .7.2 1 .3zm0 4.5v1c-.6.2-1 .6-1.3.9l-.4-.5.1-.5c0-.2 0-.4-.3-.8l-.2-.1v-2l.4.5.9 1.2c.1.3.4.4.5.4l.3-.1zm-2 2.5.7-.5-.5-.6h-.3v1zm0-7.3v1c-.3 0-.4 0-.6.2l-.2.3.2.7c.2 0 .4.3.5.6v2l-.5-.8-.6-.8-.6-.7c-.2 0-.3 0-.4.2l-.5-.7 1.8-1.3.8-.7zm0 6.3h-.2l-.5-.4-1.8-1.2-1-.8v1.5l.8.5-.8.5v3.5l1.5-1.1c0-.3-.2-.4-.3-.7l-.4.2-.3-.2c0-.3-.2-.6-.3-.8l1-1 .7.5.1.1.2.1v.3l-.3.2v.1l.4.5a7 7 0 0 0 1.1-.8v-1zm-3.5-2.4v1.5c0-.2-.3-.4-.6-.6l.3.9.3.8v-.1 3.5c0-.3-.2-.4-.3-.6.2-.2.2-.7 0-1.3l-.6-2-.3-1.2v-1.1l.5-.4.7.6zm-1.2 6.6.2-.7-.1-1.2-.1-.3v2.2zm0-6.8v1c-.2-.2-.3-.4-.3-.8l.3-.2zm0 4.6v2.2c-.3.4-.5.8-1 1l-2 1.4-.3-.5c.2-.1.2-.3.2-.5 0-.1 0-.4-.3-.8l-.2-.3v-2.2l.5 1 .8 1.2.5.3c0 .2.3 0 .4 0 .4-.3.6-.7.6-1.2l-.2-.8-.4-.8-.5-.7-.6-.3c-.4-.2-.8-.2-1 0v-.8c.4-.2 1-.3 1.3-.2.4 0 .7.1 1 .4l.8.8.4.8zm-3.6 5c.2 0 .3 0 .4-.2l-.4-.6v.9zm0-6.8v.8l-.2.1c-.1.1-.3.2-.3.4l.3.5.2.3v2.2c0-.2-.2-.4-.3-.5l-.7-1c-.2-.4-.3-.7-.5-.7h-.5l-.2-.3v-.3l1.7-1.2c.2-.1.3-.3.5-.3zm0 6.1h-.5l-.5-.6-.6-1-.5-.9-.1-.2v2.2l.2.5c.3.4.4.7.4 1l-.2.3.3.6 1.5-1.1v-.8zM166 243v-.1.1zm0-6.1v-.9.3l-.2-.2h.2v.8zm-.3.1v.3c0 .1 0 .3.3.6v2.2c-.2 0-.3-.2-.4-.3l-.5-1-.3-.4v-1.6l.8-.5.4.6-.3.1zm.3 5.9v.1l-.7.4c-.2 0-.3-.1-.5-.3v-2s.2 0 .2.2l1 1.6zm-1.2-6.1v1.6l-.2-.4-.5.1-.4-.6 1.1-.7zm0 4.2-.8-1.5-.4-.7c0-.3.1-.4.2-.5l-.3-.5c-.6.2-1 .5-1.4.8l.3.7c.2-.2.3-.3.4-.2.1.2.4.3.7.8l.3.6.4.6c-.5-.2-1-.6-1.5-1l-1.5-1c-.1 0-.1.2-.3.2v2.2l.5.9.7 1 .2.9s0 .2-.2.3c0 .3.2.4.3.7l1.6-1-.4-.5h-.5c-.2 0-.3-.3-.5-.7l-.7-1.2-.7-1.1c.7.3 1.4.8 2 1.3l1.6 1v-2zm-3.8 5v-1.8h.2l.6.5.4-.2c0 .3.2.5.3.7l-1.5.8zm0-6.8v2.2-.1c-.2-.4-.3-.6-.5-.6a.4.4 0 0 0-.5 0l-.4-.7 1.4-.8zm0 5-1.5-1.5-1.5-1.7v1.5l.5.7.6.7-.8.5-.2-1v-.6 5.1l1.7-1-.4-.6-.4.1-.2-.2-.2-.2c0-.3 0-.6-.2-.8l1.2-.8.7.6.1.2h.1v.3l-.2.3h-.2l.4.6c.3-.1.4-.2.5-.4v-1.8zm-3 3.7v-.1.1zm0-6.9v1.5h-.1l.1.3v5l-.4-.6c.3-.2.4-.7.3-1.3l-.4-1.9v-2.7l.4-.3h.1zm0 6.8-.4-.5h-.1v.9c.1-.2.3-.2.5-.3v-.1zm-.5-6.5v2.7-.3l-.5-2.2c.3 0 .4-.2.5-.2zm0 6c-.1.1-.2.1-.4 0l-.5-.8-.5-1-.6-1c-.3-.5-.3-.8-.3-1l.3-.3a1 1 0 0 0-.3-.7c-.6.3-1.2.5-1.9 1l.5 1.8.4 1.9-1.2-1.5c-.4-.5-1-1-1.3-1.5-.4 0-.8.3-1 .5v1c.1 0 .4.3.5.8l.6 1 .5 1.2c.3.5.3.7.3.8 0 .3 0 .4-.3.4l.4.8 1.7-.8-.4-.7h-.5c-.2 0-.4-.3-.5-.8l-.7-1.2-.6-1.4 1.5 1.9 1.7 2c0-.2.3-.3.5-.4l-.5-2.4-.5-2.4c0 .4.3 1 .6 1.3.1.5.4.9.6 1.2.3.5.4.8.3 1 0 .2-.2.3-.3.4 0 .3.1.4.3.6l1.6-.8v-1zm-6.8 4.5v-3.4l.1.4.5 1.1v.9c0 .2-.1.5-.4.6l-.2.4zm-4.2-.4.4.6h.5l.3.8-1.2.5v-1.9zm4.2-6.7v1c-.1-.2-.3-.2-.4 0l-.4-.8.8-.2zm0 3.7a1 1 0 0 1-.3-.5l-.3-.9-.4-.8.2-.4c0-.3 0-.5-.2-.8l-1.5.7.2.7h.5c.2.1.3.4.5.9l.5 1c.2.2.3.6.4.9.3.5.4.8.3 1 0 .5-.3.6-.5.7-.3.1-.5.1-.8 0l-.6-.7-.5-1.2-.4-1-.4-1 .3-.3c0-.3-.2-.5-.3-.8l-.9.4v1.7l.2.4c0 .4.3.8.5 1.1 0 .4.3.8.5 1 .1.4.3.8.5.9.1.2.4.5.6.5.4.2.9.2 1.5 0l.4-.1v-3.4zm-7.8 6.1-.3-.7.3-.4-.3-1-.5-1.1-.5-1.3c-.1-.5-.4-.7-.5-.8-.1-.2-.2-.3-.4-.2l-.3-.7 2.1-.6c0 .2.1.5.3.7-.2 0-.3.1-.3.3-.1.2 0 .5.3 1l.2.6 1.5-.5a2 2 0 0 0-.2-.6l-.5-1h-.4l-.4-.7 2.2-.7c0 .2 0 .5.2.7l-.2.4c0 .1 0 .5.2.9l.5 1.2.5 1.2.1.2v1.9l-.8.3-.4-.7.4-.4-.4-1-.4-1c-.5.3-1 .4-1.6.5l.5 1c0 .5.3.9.5 1h.5l.2.8-2.1.7 3.6-8.2-1.1.4.3.7.5.1.3.5v-1.7l-3.6 8.2z" style="fill:#1f1a17" transform="matrix(2.25 0 0 2.25 -225 -298.8)"/><path id="path37" d="M100.6 176.1c23 0 42-24 42-53.6 0-29.7-19-53.9-42-53.9-23.3 0-42.3 24.2-42.3 53.9 0 29.5 19 53.6 42.3 53.6z" style="fill:#fff" transform="matrix(2.25 0 0 2.25 -225 -298.8)"/><path id="path38" d="M142.2 122.5h.7v2.7l-.2 2.8-.2 2.7-.4 2.6-.5 2.6-.6 2.6-.6 2.5-.8 2.4-.8 2.4-1 2.4-1 2.2-1.1 2.2-1.2 2.1-1.2 2-1.4 2-1.4 2-1.4 1.7-1.6 1.7-1.6 1.6-1.7 1.5-1.7 1.4-1.7 1.4-1.9 1.2-1.9 1-1.9 1-2 .9-2 .7-2 .6-2 .5-2.2.3-2.2.3h-2.1v-.7l2-.1 2.2-.2 2-.3 2.1-.5 2-.6 2-.7 2-.9 1.8-1 1.8-1 1.8-1.2 1.8-1.2 1.7-1.4 1.6-1.5 1.6-1.6 1.5-1.7 1.4-1.7 1.4-1.9 1.3-2 1.3-2 1.1-2 1.1-2.2 1-2.2 1-2.3.8-2.4.8-2.4.6-2.5.6-2.5.4-2.6.4-2.6.3-2.7.1-2.7.1-2.7zm0 0zM100.6 69v-.7h2.1l2.2.2 2.1.4 2 .5 2.1.6 2 .7 2 .9 2 1 1.8 1 1.9 1.2 1.7 1.3 1.7 1.5L126 79l1.6 1.6 1.6 1.7 1.4 1.8L132 86l1.4 2 1.2 2 1.2 2.1 1.1 2.2 1 2.3 1 2.3.8 2.4.8 2.5.6 2.5.6 2.5.5 2.7.4 2.6.2 2.7.2 2.8v2.8h-.7v-2.8l-.2-2.7-.3-2.7-.4-2.6-.4-2.6-.6-2.5-.6-2.5-.8-2.5-.8-2.3-1-2.3-1-2.3-1-2.1-1.2-2.1-1.3-2-1.3-2-1.4-1.9-1.4-1.7-1.5-1.7-1.6-1.6-1.6-1.5-1.7-1.4-1.8-1.2-1.8-1.2-1.8-1.1-1.9-1-2-.8-1.9-.7-2-.6-2-.5-2.1-.3-2.1-.2h-2.1zm0 0zm-42 53.5H58v-2.8l.2-2.8.3-2.7.4-2.6.5-2.7.5-2.5.7-2.5.8-2.5.8-2.4 1-2.3 1-2.3 1.1-2.2 1.2-2.1 1.3-2 1.3-2 1.4-2 1.5-1.7 1.6-1.7L75 79l1.6-1.5 1.8-1.5 1.7-1.3 1.9-1.2 1.9-1 2-1 1.9-.9 2-.7 2-.6 2.2-.5 2.1-.4 2.2-.2h2.2v.7h-2.2l-2.1.3-2 .3-2.1.5-2 .6-2 .7-2 .9-1.9.9-1.8 1-1.8 1.3-1.8 1.2-1.7 1.4-1.6 1.5-1.6 1.6-1.5 1.7-1.5 1.7-1.4 2-1.3 1.8-1.3 2-1.1 2.2-1.1 2.1-1 2.3-1 2.3-.8 2.3-.8 2.5-.6 2.5-.6 2.5-.5 2.6-.3 2.6-.3 2.7-.2 2.7v2.8zm0 0zm42 53.3v.7h-2.2l-2.2-.3-2.1-.3-2.1-.5-2-.6-2.1-.7-2-.9-2-1-1.8-1-1.9-1.2-1.7-1.4-1.8-1.4-1.6-1.5-1.6-1.6-1.6-1.7-1.5-1.8-1.4-1.9-1.3-2-1.3-2-1.2-2-1.1-2.3-1-2.2-1-2.4-.8-2.4-.8-2.4-.7-2.5-.5-2.6-.5-2.6-.4-2.6-.3-2.7-.1-2.8v-2.7h.7v2.7l.2 2.7.3 2.7.3 2.6.5 2.6.6 2.5.6 2.5.8 2.4.8 2.4 1 2.3 1 2.2 1 2.2 1.2 2 1.3 2 1.3 2 1.4 1.9 1.5 1.7 1.5 1.7 1.6 1.6 1.6 1.5L79 168l1.8 1.2 1.8 1.2 1.8 1 2 1 1.9.9 2 .7 2 .6 2 .5 2.1.3 2.1.2h2.2zm0 0z" style="fill:#1f1a17;fill-rule:nonzero" transform="matrix(2.25 0 0 2.25 -225 -298.8)"/><path id="path39" d="M69.6 152.1H82c3.6.8 5 4.6 8.6 4.9 3.3.2 5.2-3.6 9-3.9 3.5-.1 5.3 4.3 8 4.4 4.6 0 6.5-5.4 10.5-5.8h11.5c1.3.7 2.8 2 4 3.2-5 9.3-18.2 21.3-32.7 21.2-14.5.1-28.6-11-34.3-22.5.9-1 1.6-1 3-1.5z" style="fill:#5e7d58" transform="matrix(2.25 0 0 2.25 -225 -298.8)"/><path id="path40" d="m99.8 89.1-19.7 31.8 19.6 32 19.6-32-19.5-31.8z" style="fill:#495f5f;stroke:#1f1a17;stroke-width:.36160001" transform="matrix(2.25 0 0 2.25 -225 -298.8)"/><path id="path41" d="M75.8 88.4c1.5 0 2.7-1.2 2.7-2.6 0-1.4-1.2-2.6-2.7-2.6a2.7 2.7 0 0 0-2.6 2.6c0 1.4 1.2 2.6 2.6 2.6z" style="fill:#fff;stroke:#1f1a17;stroke-width:.2491" transform="matrix(2.25 0 0 2.25 -225 -298.8)"/><path id="path42" d="M76.3 84.1h1.4c.7.4.8 1.2.8 2.2-.1 1-1 2-2.2 2.1-1.2 0-2.6-.4-2.6-1.6 0-.6.6-1.4.7-1.2.2.3.6 1.3 2.2 1 1.3-1.5-1.4-2.1-.3-2.5z" style="fill:#1f1a17;stroke:#1f1a17;stroke-width:.2491" transform="matrix(2.25 0 0 2.25 -225 -298.8)"/><path id="path43" d="M72.6 93.1H79l.6 44.4-7.4.2.4-44.6zm.2-4.8h6v1.1l-6 .1v-1.2zm.7 2.3 5.1-.1.1 1.4-5.2.1v-1.4z" style="fill:#c0a062;stroke:#000;stroke-width:.3" transform="matrix(2.25 0 0 2.25 -225 -298.8)"/><path id="path44" d="M73.5 92h5.2v1.2l-5 .2-.2-1.4z" style="fill:#c0a062;stroke:#000;stroke-width:.3" transform="matrix(2.25 0 0 2.25 -225 -298.8)"/><path id="path45" d="M72 94c1 0 2-.9 2-2 0-1.3-1-2.2-2-2.2-1.2 0-2.2 1-2.2 2.1 0 1.2 1 2 2.2 2z" style="fill:#c0a062;stroke:#000;stroke-width:.3" transform="matrix(2.25 0 0 2.25 -225 -298.8)"/><path id="path46" d="M73.9 92.5c0-2.1-2-1.8-2.3-1.4-1 1 .4 2.3.8 1.2" style="fill:none;stroke:#000;stroke-width:.3" transform="matrix(2.25 0 0 2.25 -225 -298.8)"/><path id="path47" d="M80.2 94c1.2 0 2.2-.9 2.2-2 0-1.3-1-2.2-2.2-2.2-1.2 0-2.2 1-2.2 2.1 0 1.2 1 2 2.2 2z" style="fill:#c0a062;stroke:#000;stroke-width:.3" transform="matrix(2.25 0 0 2.25 -225 -298.8)"/><path id="path48" d="M78.1 92.5c.2-2.1 2-1.8 2.5-1.4 1 1-.4 2.3-1 1.2" style="fill:none;stroke:#000;stroke-width:.3" transform="matrix(2.25 0 0 2.25 -225 -298.8)"/><path id="path49" d="M72 90.8c2.6-.4 5.4-.3 8 0l1.2-.8c-.4-.7-9.8-.8-10 0 .3.2.5.6.9.8z" style="fill:#c0a062" transform="matrix(2.25 0 0 2.25 -225 -298.8)"/><path id="path50" d="M71.4 135.5h9V149h-9v-13.5z" style="fill:#c0a062;stroke:#000;stroke-width:.3" transform="matrix(2.25 0 0 2.25 -225 -298.8)"/><path id="path51" d="M72 90.8c2.6-.4 5.4-.3 8 0m1.4-.7c-.8-.8-10-1-10.6 0" style="fill:none;stroke:#000;stroke-width:.3" transform="matrix(2.25 0 0 2.25 -225 -298.8)"/><path id="path52" d="M72 130.3c-.8-.3-1.2 1.2-.4 1.9-.6.1-1 1.4-.2 1.9-.8.1-1 1.3-.3 1.8 3 0 6.4-.2 9.5-.1.6-.3.7-1.5-.2-1.8.5-.5.4-1.7-.3-1.7.6-.7.5-2-.5-2.2-2.6 0-4.9 0-7.5.2z" style="fill:#c0a062;stroke:#000;stroke-width:.3" transform="matrix(2.25 0 0 2.25 -225 -298.8)"/><path id="path53" d="m71.6 132.2 8.5.1m-8.7 1.8 9-.1" class="fil8 str4" style="fill:none;stroke:#1f1a17;stroke-width:.2491;stroke-linecap:round" transform="matrix(2.25 0 0 2.25 -225 -298.8)"/><path id="path54" d="M70.8 148.5h10.1v1.3H70.8v-1.3z" style="fill:#c0a062;stroke:#000;stroke-width:.3" transform="matrix(2.25 0 0 2.25 -225 -298.8)"/><path id="path55" d="M69.8 149.7H82v2H69.8v-2z" style="fill:#c0a062;stroke:#000;stroke-width:.3" transform="matrix(2.25 0 0 2.25 -225 -298.8)"/><path id="path56" d="M88.6 107.4H111v27.4H88.6v-27.4z" style="fill:#fff;stroke:#1f1a17;stroke-width:.2491" transform="matrix(2.25 0 0 2.25 -225 -298.8)"/><path id="path57" d="M99.1 128c-1 1.3-2.4 2-3.9 2.8 0 .2-.4.5 0 .6 1.4-.6 3-1.8 4-3.2v-.3zm1.2.2a19 19 0 0 0 4 3c.9 0 .3-.4.4-.6-1.5-.5-3-1.6-4.2-2.8l-.2.4z" style="fill:#1f1a17;stroke:#1f1a17;stroke-width:.2491" transform="matrix(2.25 0 0 2.25 -225 -298.8)"/><path id="path58" d="M93 111.4c.4 0 1 1 1.2 2.4-.2 1-.3 2.1-.6 2.4a4 4 0 0 1-1.3-2.4c-.2-1.3.2-2.4.6-2.4z" style="fill:#3c746b;stroke:#1f1a17;stroke-width:.2491" transform="matrix(2.25 0 0 2.25 -225 -298.8)"/><path id="path59" d="M95.4 111.2c-.5-.2-1.4.7-1.8 2a4 4 0 0 0 0 2.4c.4-.1 1.5-1.3 1.8-2 .5-1.2.5-2.3 0-2.4zm.2 4.1c-.5 0-1.3.5-1.7 1.7-.2 1.1 0 2.3 0 2.8.4-.1 1.2-.7 1.7-2s.5-2.3 0-2.5z" style="fill:#3c746b;stroke:#1f1a17;stroke-width:.2491" transform="matrix(2.25 0 0 2.25 -225 -298.8)"/><path id="path60" d="M97.2 113c-.4-1.5.1-2.8 2.2-3.8.4 0 1.3-.2 1.8 0 .7.2.8.6 1 1.4-.2.6-1.1.3-1.5-.2.1.4.7.4 1 .8.7.4.4 1.5.4 1.7h-5z" style="fill:#da251d;stroke:#1f1a17;stroke-width:.2491" transform="matrix(2.25 0 0 2.25 -225 -298.8)"/><path id="path61" d="M99.7 113.5c1.4 0 2.4-.2 2.4-.6 0-.2-1-.4-2.4-.4s-2.5.2-2.5.4c0 .4 1 .6 2.5.6z" style="fill:#da251d;stroke:#1f1a17;stroke-width:.2491" transform="matrix(2.25 0 0 2.25 -225 -298.8)"/><path id="path62" d="M98.9 128.2c.2 1.2.2 3.7 1 3.7.7 0 .6-2.5.8-3.7l-.1-1.7-.9-14-1 14.1c.2.6.2 1 .2 1.6z" style="fill:#fddc00;stroke:#1f1a17;stroke-width:.2491" transform="matrix(2.25 0 0 2.25 -225 -298.8)"/><path id="path63" d="M90.9 115.1c.5-.1 1.3.5 1.8 1.6.2.4.9 1.3.9 2.2-.4 0-1.9 0-2.5-1.3-.6-1.2-.7-2.3-.2-2.5z" style="fill:#3c746b;stroke:#1f1a17;stroke-width:.2491" transform="matrix(2.25 0 0 2.25 -225 -298.8)"/><path id="path64" d="M99 128.3c.4.5.8 1 1.6 1m-1.5 0c.4.6.9 1 1.4.8m-1.4 0c.4.7.9 1 1.2 1" style="fill:none;stroke:#1f1a17;stroke-width:.2491;stroke-linecap:round" transform="matrix(2.25 0 0 2.25 -225 -298.8)"/><path id="path65" d="M90.2 119.3c.4-.2 2 0 2.7 1 .4.3 1.4 1 1.7 1.9-.2.1-2.3.2-3.3-.6-.9-.9-1.4-1.8-1.1-2.3zm1.2 4.2c.1-.6 1.7-1 2.9-.4.5.2 1.4.9 2.2 1.5-.2.2-1.7.8-3.2.5-1.2-.5-2-1.1-2-1.6zm5.7-4.4c-.6 0-1.6.8-1.6 2.1 0 .5.2 1.6.5 2.5.3 0 1.4-1 1.7-2.5 0-1.2-.2-2.1-.6-2.1z" style="fill:#3c746b;stroke:#1f1a17;stroke-width:.2491" transform="matrix(2.25 0 0 2.25 -225 -298.8)"/><path id="path66" d="M93.6 115.6c-.3 6.3 2 8.1 5.3 11.3" style="fill:none;stroke:#1f1a17;stroke-width:.2491;stroke-linecap:round" transform="matrix(2.25 0 0 2.25 -225 -298.8)"/><path id="path67" d="M103.7 114c-.1 1 .1 1.7.6 2.7 1.4 1 1.8.7 2.2 1.5l-.2-2.3c-.6-1.2-1.7-1.2-2.6-1.9zm6.2 2.2c-.1 1-.2 2.3-1.1 3.3-1.4.9-2.2.6-2.8 1.5l.9-2.8c1.2-1.2 1.9-1.2 3-2zm-7.5 9.5a7 7 0 0 0 1.6-2.8c0-1-.8-1.4-1.1-2.6-.9 1.2-.9 2.2-1 2.8-.1 1 .4 1.1.5 2.6zm1.2-.9a7 7 0 0 0 3.5-.1c1.1-.6 1.1-1.4 2-2.4-1.6-.2-2.7.4-3.4.6-.9.5-.9 1-2.1 2zm1.7-2.6c.4-.9.5-2.3.2-3.1-.4-1-1.2-1.1-2-2-.4 1.4.1 2.4.3 3 .3.9.8.9 1.5 2zm2.9-10.3s-1.7 1.4-1.7 2.8l.1 1.7c.1-.7 1.6-.8 2-2a8 8 0 0 1-.4-2.5z" style="fill:#3c746b;stroke:#1f1a17;stroke-width:.2491" transform="matrix(2.25 0 0 2.25 -225 -298.8)"/><path id="path68" d="M106.1 110.4h.8c0 .3-.2.5-.4.8h-.7c-.1-.3 0-.5.3-.8m-1.9.6c.5 0 .9 0 1 .2 0 0 0 .4-.5.6-.4.2-.7.2-.9 0-.2-.2 0-.5.4-.8m-.4 1.8h.8c0 .2-.2.4-.4.5h-.6c-.1-.1 0-.3.2-.5" style="fill:none;stroke:#1f1a17;stroke-width:.2491;stroke-linecap:round" transform="matrix(2.25 0 0 2.25 -225 -298.8)"/><path id="path69" d="m106.3 111.3-.6 2 .6 1.8" class="fil8 str4" style="fill:none;stroke:#1f1a17;stroke-width:.2491;stroke-linecap:round" transform="matrix(2.25 0 0 2.25 -225 -298.8)"/><path id="path70" d="M106.3 115.1c1 4.7-1.1 8.9-5 11.6" style="fill:none;stroke:#1f1a17;stroke-width:.2491;stroke-linecap:round" transform="matrix(2.25 0 0 2.25 -225 -298.8)"/><path id="path71" d="m104.8 111.9.9 1.5m-1.5 0 1.8 1.2" class="fil8 str4" style="fill:none;stroke:#1f1a17;stroke-width:.2491;stroke-linecap:round" transform="matrix(2.25 0 0 2.25 -225 -298.8)"/><path id="path72" d="m98.8 126.6-2.5-.6v2.5l2.6-.6h2l2.5.4V126l-2.7.6h-2z" style="fill:#fddc00;stroke:#1f1a17;stroke-width:.2491" transform="matrix(2.25 0 0 2.25 -225 -298.8)"/><path id="path73" d="M98.8 126.6h1.9v1.3h-1.8l-.1-1.3z" style="fill:none;stroke:#1f1a17;stroke-width:.2491;stroke-linecap:round" transform="matrix(2.25 0 0 2.25 -225 -298.8)"/><path id="path74" d="m100 136.2 1.3 3.5 3.9.2-3 2.3 1 3.7-3.2-2-3.4 1.9 1-3.5-2.8-2.5h3.7l1.5-3.6zm-.2-39.8 1.2 3.5 4 .3-3 2.2.8 3.7-3-2.1-3.4 2 1.1-3.5-3-2.5h3.7l1.6-3.6z" style="fill:#c0a062;stroke:#1f1a17;stroke-width:.36160001" transform="matrix(2.25 0 0 2.25 -225 -298.8)"/><path id="path75" d="M123.5 88.3c1.5 0 2.7-1.2 2.7-2.6 0-1.5-1.2-2.7-2.7-2.7a2.7 2.7 0 0 0-2.6 2.7c0 1.4 1.2 2.6 2.6 2.6z" style="fill:#fff;stroke:#1f1a17;stroke-width:.2491" transform="matrix(2.25 0 0 2.25 -225 -298.8)"/><path id="path76" d="M124 84h1.4c.7.3.8 1.2.8 2.1-.1 1.1-1 2-2.2 2.2-1.2 0-2.6-.5-2.6-1.7 0-.6.6-1.3.7-1.2.2.4.6 1.3 2.2 1 1.3-1.5-1.4-2-.3-2.4z" style="fill:#1f1a17;stroke:#1f1a17;stroke-width:.2491" transform="matrix(2.25 0 0 2.25 -225 -298.8)"/><path id="path77" d="M120.3 93h6.4l.6 44.3-7.4.3.4-44.6zm.2-4.8h6v1l-6 .2v-1.2zm.7 2.2h5.1l.1 1.4h-5.2v-1.4z" style="fill:#c0a062;stroke:#000;stroke-width:.3" transform="matrix(2.25 0 0 2.25 -225 -298.8)"/><path id="path78" d="m121.2 91.9 5.2-.1V93l-5 .1-.2-1.3z" style="fill:#c0a062;stroke:#000;stroke-width:.3" transform="matrix(2.25 0 0 2.25 -225 -298.8)"/><path id="path79" d="M119.7 93.8c1 0 2-.8 2-2s-1-2.2-2-2.2c-1.2 0-2.2 1-2.2 2.2 0 1.2 1 2 2.2 2z" style="fill:#c0a062;stroke:#000;stroke-width:.3" transform="matrix(2.25 0 0 2.25 -225 -298.8)"/><path id="path80" d="M121.6 92.4c0-2.2-2-1.8-2.3-1.5-1 1 .4 2.3.8 1.2" style="fill:none;stroke:#000;stroke-width:.3" transform="matrix(2.25 0 0 2.25 -225 -298.8)"/><path id="path81" d="M127.9 93.8c1.2 0 2.2-.8 2.2-2s-1-2.2-2.2-2.2c-1.2 0-2.2 1-2.2 2.2 0 1.2 1 2 2.2 2z" style="fill:#c0a062;stroke:#000;stroke-width:.3" transform="matrix(2.25 0 0 2.25 -225 -298.8)"/><path id="path82" d="M125.8 92.4c.2-2.2 2-1.8 2.5-1.5 1 1-.4 2.3-1 1.2" style="fill:none;stroke:#000;stroke-width:.3" transform="matrix(2.25 0 0 2.25 -225 -298.8)"/><path id="path83" d="M119.8 90.7c2.5-.5 5.3-.4 7.9 0l1.2-.9c-.4-.7-9.8-.8-10 0l.9.9z" style="fill:#c0a062" transform="matrix(2.25 0 0 2.25 -225 -298.8)"/><path id="path84" d="M119 135.4h9v13.4h-9v-13.4z" style="fill:#c0a062;stroke:#000;stroke-width:.3;stroke-miterlimit:4" transform="matrix(2.25 0 0 2.25 -225 -298.8)"/><path id="path85" d="M119.8 90.7c2.5-.5 5.3-.4 7.9 0m1.4-.7c-.8-.9-10-1-10.6 0" style="fill:none;stroke:#000;stroke-width:.3" transform="matrix(2.25 0 0 2.25 -225 -298.8)"/><path id="path86" d="M119.8 130.1c-.9-.2-1.3 1.2-.5 2-.6 0-1 1.4-.2 1.9-.8 0-1 1.3-.3 1.8 3 0 6.4-.3 9.5-.2.6-.2.7-1.4-.2-1.8.5-.4.4-1.6-.3-1.6.6-.8.5-2-.5-2.2l-7.5.1z" style="fill:#c0a062;stroke:#000;stroke-width:.3" transform="matrix(2.25 0 0 2.25 -225 -298.8)"/><path id="path87" d="m119.3 132 8.5.2M119 134l9-.2" class="fil8 str4" style="fill:none;stroke:#1f1a17;stroke-width:.2491;stroke-linecap:round" transform="matrix(2.25 0 0 2.25 -225 -298.8)"/><path id="path88" d="M118.5 148.3h10.1v1.4h-10.1v-1.4z" style="fill:#c0a062;stroke:#000;stroke-width:.3" transform="matrix(2.25 0 0 2.25 -225 -298.8)"/><path id="path89" d="M117.5 149.5h12.3v2h-12.3v-2z" style="fill:#c0a062;stroke:#000;stroke-width:.3" transform="matrix(2.25 0 0 2.25 -225 -298.8)"/><path id="path90" d="m53.3 141.3-1.2.2-1-4.3c.4 0 .8 0 1.3.2.4.1 1 .4 1.9 1l1.3.7c.3.1.5.1.8 0 .3 0 .4-.1.6-.3v-.7c0-.2-.2-.4-.4-.5-.2-.1-.4-.2-.8 0l-.2-1.3c.7-.1 1.3 0 1.6.3.4.3.7.7.8 1.3.2.6.2 1.2 0 1.6-.3.5-.7.8-1.2.9h-.9l-1-.3a8 8 0 0 1-1-.6 13.6 13.6 0 0 0-1.2-.7l.6 2.5zm4.4 1c-.6 0-1.2.1-2 .4-1.1.4-2 .8-2.3 1.3-.3.6-.4 1.1-.2 1.7.2.6.6 1 1.1 1.2.7.3 1.6.2 2.8-.2 1.2-.3 2-.8 2.3-1.4.3-.5.4-1 .2-1.6a2 2 0 0 0-1-1.2l-1-.2zm0 1.2.6.1c.2.1.3.2.3.4v.4c0 .2-.2.3-.5.5l-1.4.6-1.6.4a1 1 0 0 1-.6-.1.6.6 0 0 1-.3-.4v-.4c0-.2.2-.3.5-.5l1.5-.6 1.6-.4zm4.3 6.6-5.8 3.1 1.2 2.3.6 1 1 .5c.3.1.8.2 1.3 0 .4 0 .9-.1 1.3-.4.6-.3 1-.6 1.3-1 .3-.3.5-.6.6-1 .2-.4.2-.7.1-1.1 0-.3-.2-.7-.5-1.2L62 150zm-.4 1.7.3.6.5 1v.6c0 .3-.2.5-.4.7l-1 .7-1.1.4h-.7c-.2 0-.4-.2-.5-.3l-.4-.7-.5-1 3.8-2zm-1.5 8.5 5.5-3.6 2.7 4-1 .7-1.9-3-1.2.8L66 162l-1 .6-1.7-2.8-1.5 1 2 3-1 .7-2.7-4.2zm8 7 1 .8c-.3.4-.4.7-.4 1 0 .3.2.6.4 1 .3.2.6.4.9.4l.7-.1.2-.4-.1-.6-.6-1c-.3-.6-.5-1-.5-1.5a1.7 1.7 0 0 1 1.4-1.8c.4 0 .7 0 1 .2.4.1.8.4 1.1.8.6.6.9 1.2 1 1.7 0 .6-.3 1-.7 1.5l-1-1c.3-.2.4-.5.3-.7 0-.3-.1-.5-.4-.8-.2-.3-.5-.4-.8-.5l-.4.1-.2.5.5 1.2c.4.5.6 1 .7 1.3v1l-.6 1a2 2 0 0 1-2.1.3c-.4-.2-.8-.5-1.2-1-.6-.5-.9-1.1-.9-1.7 0-.6.2-1.2.7-1.7zm4 6.8 4.1-5.2 3.9 3-.7 1-2.8-2.3-1 1.2 2.7 2-.7.9-2.6-2-1.1 1.4 2.9 2.2-.7 1-4-3.2zm7.6 5 2.6-4.7-1.7-1 .6-1 4.6 2.6-.6 1-1.7-1-2.6 4.8-1.2-.6zm5 2.4 2-6.3 4.7 1.5-.4 1-3.4-1-.4 1.4 3.1 1-.3 1-3.2-1-.5 1.7 3.5 1.2-.4 1-4.7-1.5zm7.2 2.1.8-6.5 2 .2.6 4.6 1.7-4.3 2 .2-.8 6.6-1.2-.2.6-5.1-1.9 5-1.3-.2-.6-5.3-.7 5.2-1.2-.2zm11.8-6h-.7l-2.6.2.6 6.6 2.2-.2 1.6-.2.9-.4.5-.7.1-1c0-.3-.2-.6-.4-.9-.2-.3-.6-.4-1-.5l.7-.6c0-.3.2-.6.1-1 0-.2 0-.4-.2-.7a1.7 1.7 0 0 0-1.3-.7h-.5zm0 1 .5.2c.2.1.2.3.3.5 0 .2 0 .4-.2.5-.1.2-.3.3-.5.3l-1 .1h-.8l-.2-1.4.8-.1h1.1zm.2 2.6h.4l.5.3.1.5-.1.6c-.1.1-.3.3-.5.3l-.9.1-1.2.1-.1-1.7 1-.1h.8zm7.4-5.2c-.3 0-.8 0-1.5.2l-2.7.8 1.8 6.3 1.3-.3-.8-2.7h.3c.3-.1.5-.2.7-.1l.4.1 1 .7 1.3 1.2 1.5-.5-1.1-1-1-.8-.9-.4c.6-.2 1-.5 1.1-.9.2-.4.2-.8.1-1.3a2 2 0 0 0-.6-1c-.2-.1-.5-.3-.9-.3zm-.5 1.2.4.1.3.5v.5l-.3.4-1.1.4-1 .2-.4-1.6 1-.3a11.5 11.5 0 0 1 1-.2zm7-4c-.4 0-1 0-1.5.3-.5.2-.9.5-1.2.9a2 2 0 0 0-.5.9c-.1.3-.2.7-.1 1 0 .5.1 1 .4 1.7.5 1 1.1 1.5 1.9 1.8a3 3 0 0 0 2.5-.2 3 3 0 0 0 1.7-1.8 4 4 0 0 0-.3-2.6c-.5-1-1.1-1.6-2-2h-.8zm-.3 1.1.7.1c.5.2.9.7 1.2 1.3.3.7.4 1.3.3 1.8-.1.5-.4.9-1 1-.4.3-.9.3-1.3.1-.5-.1-1-.6-1.3-1.2-.3-.7-.4-1.3-.2-1.8 0-.5.4-.8.9-1 .2-.2.5-.3.7-.3zm8.7-7c-.3 0-.6 0-.9.2l-1 .7-1.8 1.7 4.4 4.8 1.9-1.6.7-1c.3-.3.4-.6.4-1s0-.8-.3-1.3l-.8-1.1c-.4-.5-.8-.8-1.2-1a2.9 2.9 0 0 0-1.4-.4zm0 1.2c.2 0 .5.1.7.3.3 0 .5.4.9.7l.7 1 .2.7-.3.6-.5.6-.8.6-2.9-3.2.5-.4.8-.7.7-.2zm6.7.9-5-4.3 3-3.7.9.7-2.3 2.7 1.1 1 2.2-2.6.8.7-2.1 2.6 1.4 1.1 2.3-2.8.9.7-3.2 3.9zm8.1-11.2-.6 1-4.1-2.2v1.9l-1-.6v-1.2c0-.5-.3-1-.5-1.2l.5-1 5.7 3.3zm-1.9-8.8-.5.1a2 2 0 0 0-1 1.1 2 2 0 0 0-.2 1.5c.1.5.4.8.9 1l.8.2c.3 0 .5-.2.8-.5a1.7 1.7 0 0 0 1 1.8c.6.2 1.2.2 1.7 0 .5-.3.8-.7 1.1-1.2.3-.6.3-1.1.1-1.6a2 2 0 0 0-1-1.2 1.7 1.7 0 0 0-2 .3c0-.3 0-.5-.2-.8l-.7-.6-.6-.1h-.2zm.1 1.2h.3l.5.5v.6c-.2.2-.3.4-.5.4h-.6a.8.8 0 0 1-.5-.5v-.6a.7.7 0 0 1 .8-.4zm2.4 1 .6.1.6.6v.7c-.2.2-.3.4-.6.5l-.8-.1c-.3-.1-.4-.3-.6-.5v-.8c.2-.2.3-.4.6-.5h.2zm4.2-8.8.3-1.3.7-.1a.9.9 0 0 0 .3-1.2c-.2-.3-.5-.5-.9-.6h-1a1 1 0 0 0-.4.6c-.1.4 0 .7.2 1.1l-.4 1-3.1-1.6.9-3.2 1.1.3-.6 2.3 1 .5v-1c.2-.4.5-.8 1-1.1.5-.3 1-.3 1.7-.1.5.1 1 .4 1.2.8.5.6.6 1.2.4 2-.2.6-.5 1-.9 1.3a2 2 0 0 1-1.5.3zm-2.2 6 .3-1.3c.3.1.5.1.8 0 .2 0 .3-.2.4-.5v-.7c-.1-.3-.3-.4-.7-.6-.3 0-.5-.1-.8 0-.2 0-.4.2-.5.5v.6l-1-.6c.1-.3.1-.6 0-.8 0-.2-.2-.4-.4-.5h-.6c-.2 0-.3.2-.4.4v.6l.5.6-.6 1-.8-.7-.2-.9.1-1c.3-.6.6-1 1.2-1.2.4-.2.8-.2 1.2 0 .5.2.8.7 1 1.4.2-.3.4-.5.8-.6.3-.2.7-.1 1 0 .6.2 1 .6 1.3 1.2.2.5.2 1.1 0 1.7-.3.6-.6 1-1.1 1.2a2 2 0 0 1-1.5.2" style="fill:#1f1a17" transform="matrix(2.25 0 0 2.25 -225 -298.8)"/></g><!-- app4joy -->
</svg>