<svg xmlns="http://www.w3.org/2000/svg" xmlns:xlink="http://www.w3.org/1999/xlink" id="svg325" width="836" height="608" version="1.1" viewBox="-418 -304 836 608"><g id="g325"><path id="rect1" fill="#ED1C24" d="M-418-304h836v608h-836z"/><path id="rect2" fill="#fff" d="M-418-101.3h836v202.7h-836z"/><path id="path2" fill="#A6CE39" d="M-342 0 0-228 342 0 0 228z"/></g><g id="brasao"><defs id="defs2"><path id="C" d="M-4-2.4A6.8 6.8 0 0 1-.7-5.7C0-6.2.6-6.2 1-6.2c.6 0 1 .4 1.4.6.3.2.6.2 1 .2H4l.5.4c.2.6.3 1 .3 1.6C4.8-2 4-.6 3.5-.6S3-.7 2.9-.9c-.4-.4-.5-.9-.6-1.3l-.6-1C1-3.7.4-3.8-.2-3.6c-.6.2-.8 1-1 2.2-.3 1.3 0 3.3.4 3.8.5.6 1.1.7 1.7.8.7 0 1.4-.3 1.8-.8l.5-.3c.5.1.5.5.4.8a3 3 0 0 1-1 2C1.6 5.8.5 6.2-.8 6.2c-.5 0-1.3 0-1.9-.4a6 6 0 0 1-2.2-4.6c0-1.5.4-2.6.8-3.6z"/><path id="." d="M0 3.6c1 0 1.4.7 1.4 1.2 0 .8-.6 1.3-1.3 1.3-1.2 0-1.4-.6-1.4-1.4 0-.7.6-1.1 1.4-1.1z"/><path id="N" d="M-3.9-3v-.7l-.9-.8V-5c0-.3 0-.5.3-.7.3-.2.7-.4 1.3-.4h.8c.3 0 .7.3 1 .7l3 3.7s.3.4.6.4c.2 0 .3-.2.3-.5v-1.7c0-.4 0-.5-.3-.7-.4-.2-.7-.5-.7-1 0-1 1-1 1.9-1 .7 0 1.6 0 1.6 1 0 .7-.4.8-.6 1-.3.1-.3.2-.3.7V4c-.1 1-.2 2-.5 2s-.6-.5-1-1L-1 .8l-.6-.5c-.2 0-.4.3-.4.7v2.4c0 .5.2.5.5.7.4.2.6.5.6.8 0 1.1-1 1.1-2 1.1S-5 6-5 4.9c0-.3.6-.7.7-.8.4-.3.4-.3.4-.7z"/><path id="S" d="m2.7-5.8.9.2.6.1c.3.4.3.9.5 1.4l.2.8c0 .9-.5 1.5-1.1 1.5a.9.9 0 0 1-.7-.4l-.6-.9c-.4-.6-.7-.7-1.3-.8-.5 0-1 .2-1.1.9 0 .4.1.8.5.9C2.2-1.4 3.8-.6 4.1.5a4 4 0 0 1-.4 3.3C2.5 5.9 1.1 6.2-.9 6.2c-1 0-1.8-.2-2.6-.4-.5-.1-1-.5-1.2-1L-4.9 2c0-.7.4-.8.7-.8.3 0 .6.3.8.9.3 1.3 1.2 1.8 2.2 2 .9.2 1.1-.2 1.3-.7.1-.3-.1-.8-.3-.9L-2.5 1A5 5 0 0 1-4-2.4c0-.6.4-1.4 1.2-2.3.8-1 2.1-1.5 3.6-1.5.7 0 1.4.2 1.9.4z"/><path id="E" d="M-3.1-3.4c0-.3 0-.5-.2-.7 0-.2-.2-.1-.5-.3a.5.5 0 0 1-.3-.5c.2-.6.6-1 1.3-1h5.3c.5 0 1 0 1.3-.2l.8-.2c.2 0 .4.2.6.4l.3 1.2c0 .6-.1 1.1-.4 1.5-.2.2-.3.4-.6.4-.5 0-.6-.6-.8-.9-.1-.1-.3-.4-.6-.5a3.7 3.7 0 0 0-1.4-.1c-.5 0-1 .1-1.4.3l-.2.4-.3 2.3c0 .2 0 .3.2.3.4.1.8 0 1.1-.1.3-.2.3-.5.4-.8l.3-.7c0-.1.2-.3.5-.3s.6.3.6.8v1.8c-.3 1.7-.7 2.7-1.4 2.7-.2 0-.4-.2-.4-.6v-1C.7.2 0 .5-.3.8l-.2.5-.3 2.4c0 .6.5.7 1.4.7.8 0 1.4-.2 1.7-.4.7-.4 1-1.1 1.5-1.8.2-.4.4-.4.6-.4.5 0 .7.3.6 1.1-.2 1-.7 1.9-1.2 2.7l-.5.5H3C.7 5.7-1.7 6-3.2 6h-2c-.2 0-.2-.3-.2-.5 0-.5.2-.6.4-.7.5-.3.7-.6.8-1z"/><path id="O" d="M4.1 3.6a6 6 0 0 0 1-3.6c0-1.3-.4-3-1.2-4.1A4.4 4.4 0 0 0 0-6.2a4.9 4.9 0 0 0-4.1 2.5c-.7 1-1 2.5-1 3.7 0 1.4 0 2.5.7 3.7 1 1.7 2.2 2.5 4 2.5 2 0 3.5-1 4.5-2.6zM-1.8 0c0-.8.2-2.1.5-2.9.3-.7.8-1 1.4-1 1 0 1.3 1.6 1.4 2.6.2 1.2 0 2.4-.3 3.6-.3 1-.9 1.9-1.6 1.9-1.4 0-1.5-2.8-1.4-4.2z"/><path id="D" d="M-5.5 4.6v.7l.2.4c.3.2.7 0 1 .1 1.4.1 2.8.4 4.2.4 1.7 0 3-.3 4-1C5.2 4 5.7 2.1 5.7 0c0-1.3-.3-2.5-1.2-3.7-1-1.4-2.3-2-3.9-2.2a21.5 21.5 0 0 0-5.9-.2c-.2 0-.5.3-.5.6 0 .6.3.7.5.9l.4.4a24.3 24.3 0 0 1 .4 7.1c0 .4 0 .8-.3 1 0 .2-.3.3-.5.5 0 0-.2 0-.2.2zm4.3-8.2c0-.2 0-.4.2-.5.2-.1.5 0 .8 0 .5.2 1 .5 1.3 1 .6 1 1 2.3 1 3.5 0 1.1-.3 2.4-1 3.3-.1.3-.4.5-.8.5-.2.1-.6.2-.9 0a1 1 0 0 1-.4-.7z"/><path id="A" d="M-3.5 6.2c.9 0 1.9 0 1.9-.8l-.1-.6-.4-.3c-.1-.2-.2-.5-.1-.7 0-.2.3-.6.6-.6h2c.5 0 .7.3.7.5l-.2.5-.5.5c-.2.2-.2.5-.2.8 0 .7 1.4.7 2.6.7 1.4 0 2.6 0 2.6-1.4 0-.3-.2-.4-.4-.6a1 1 0 0 1-.5-.6L2.4-4.3a3 3 0 0 0-.9-1.4c-.3-.4-.6-.5-1.1-.5-.3 0-.6.2-.8.3l-.4.5-.2.6-.2 1.4-.3.9L-4.2 4c0 .2 0 .3-.2.4-.7.3-1 .7-1 1 0 .8 1.1.8 1.9.8zm2.6-5.1-.3-.3c0-.6.6-1.7.7-1.8.1-.2 0-.4.2-.4.3 0 .4.3.5.5C.5-.4.5.1.6.7c0 .2 0 .4-.2.4z"/><path id="R" d="M-3.9 3.6c0 .4-.2.7-.5.9-.2.2-.5.3-.5.6 0 1.1 1 1.1 2.4 1.1s2.4 0 2.4-1.1c0-.3-.3-.4-.5-.6-.3-.3-.4-.5-.4-.9V1.5c0-.4.1-.7.4-.7.5 0 .7.6.9 1 .4.9.2 1.9.4 2.7.2.7.3 1 .7 1.3.4.4.8.4 1.6.4 1.3 0 1.9 0 1.9-1.1 0-.4-.4-.4-.7-.6-.1-.1-.3-.2-.3-.5-.1-1-.3-2.2-.6-3a1.2 1.2 0 0 0-.5-.6c-.3-.2-.6-.3-.6-.5 0-.4.6-.7.9-1.2.3-.5.4-1.3.4-1.6 0-.9 0-1.6-.6-2.2C1.8-6.2.4-6.2-1-6.2l-2.1.1c-.5 0-.9.1-1.3.3-.3.1-.3.3-.3.7 0 .3.1.3.2.4.3.3.6.6.6.9zm3-5v-2.4c0-.5.2-.6.4-.6.8 0 .9 1.1.9 1.7C.4-1.8 0-1-.6-1c-.2 0-.3-.2-.3-.4z"/><path id="T" d="m1.8-6 1.4-.2c.3 0 .5.2.8.7.4.8.8 1.9.8 2.7 0 .4 0 .8-.2 1a.8.8 0 0 1-.6.3c-.6 0-1-.3-1.2-1-.1-.5-.2-.9-.7-1.1-.2 0-.5.3-.5.9V3c0 .6.1.8.4 1 .3.3 1 .5 1 1.1 0 .6-.3.8-.7.9a9 9 0 0 1-2.3.2A9 9 0 0 1-2.3 6c-.4-.1-.7-.3-.7-.9 0-.6.7-.8 1-1 .3-.3.4-.5.4-1.1v-5.7c0-.6-.3-1-.5-.9-.5.2-.6.6-.7 1.1-.2.7-.6 1-1.2 1a.8.8 0 0 1-.6-.3c-.2-.2-.2-.6-.2-1 0-.8.4-2 .8-2.7.3-.5.5-.7.8-.7l1.4.2z"/><path id="I" d="M-1.6-3c0-.7-.1-.9-.4-1.1-.3-.2-.9-.4-.9-1 0-1.1 1.4-1.1 2.9-1.1s2.9 0 2.9 1.1c0 .6-.6.8-.9 1-.3.2-.4.4-.4 1.1v6c0 .7.1.9.4 1.1.3.2.9.4.9 1C2.9 6.2 1 6.2 0 6.2c-1.5 0-2.9 0-2.9-1.1 0-.6.6-.8.9-1 .3-.2.4-.4.4-1.1z"/><circle id="cafe" r="4" fill="#ed1c24" stroke="#231f20"/></defs><g id="suportes" stroke="#231f20"><g id="ramos" fill="#00a650"><path id="path3" d="m109-65.1-4-12.1c-1-4-3.9-8.6-6.1-11.5L94-95.5l-4.2.7 4.7 4.8c6.4 4 8.6 14.4 11.6 22.6l1.7 5.7L109-65m1.5 12.5c-3-22.6-20.8-25-27.2-29.1 1.4 7.2 1.4 12.3 6.1 19.5 4.7 7.2 7.6 13 13.3 14.7z"/><path id="path4" d="m104-73-1.7-5.3c-.8-3.7-4.6-11.2-15.3-4.2 5.4 1.7 5.5 3.7 8.3 5.3 2.7 1.6 5.7 2.9 8.7 4.2z"/><path id="path5" d="M99.4-83.8c-4-2.7-14-3.3-21.7.1A28 28 0 0 1 93-85.4c-13.3 7.2-10.4.6-19.3 4.1 3.9-9 10.1-11 15.9-4.7 3.2.7 4.5-.2 9.8 2.2M70.3-114c-4.6 4.2-9.3 4.9-16.8 2.2-7.6-2.8-11.8-7.1-17.7-10.7 10.4-3.6 20-4.8 30.1 1 2.7 2.2 3 5 4.4 7.5"/><path id="path6" d="M69.5-114c-2.7-4-6-10-2.2-20.2 2.7 5.6 3.4 6 7.6 8.3 5 3.7 2 9.8 3 14.6l-8.4-2.7"/><path id="path7" d="M86-101c-2.7-1.7-2.6-5-14.7-4.7-6-3.1-1.6-11.3 5-11.5-1.6 10.6 6.5 10.8 9.7 16.2"/><path id="path8" d="M86.3-100.8c-1.8-1.7-3.3-3.7-5.3-5-4.7-3.3-9.3-15.5 1.1-17 2.9-.5 2.1 2 6.8 2-5 2.9-10.2 7.8-1 20.9M55-95.8c-4.8-6 4.5-15.3 14.8-11 1.6.7 2.9 2 4.4 3-6.5 5.2-13.6 16.4-19.5 15.7 2-2.2 3.1-4.1.3-7.6z"/><path id="path9" fill="#ed1c24" d="M87.6-97.5c2 0 3.5 1.5 3.5 3.4s-1.6 3.4-3.5 3.4S84-92.2 84-94s1.6-3.4 3.6-3.4"/><path id="path10" d="M86-99.5c-16.1-6-20.7 10-31.3 11.4 10.1-6.3 4.7-14.1 16.8-17.2 10.4-2.7 13.3 3.3 14.4 5.8M97.4-31c-2.3-9-6.6-24.8-6.9-26.8 2 2.4 5.5.6 9.7 5.2 3.4 3.7 4.4 9 7.8 12.8 4.1 4.5 3.8 16.3 5.8 24.5L97.4-31"/><path id="path11" d="M110 12.4 98.4-15.1c-3.2-7.3-7.6-14.2-9.7-21.8l7.5 5.7c10 .6 13.5 7.4 14.8 11.4l3.5 17-4.6 15.2"/><path id="path12" stroke-linecap="round" d="M104-56 93.8-69"/><path id="path13" d="m113 7.2-6.5 15.3 10-3.5c7.7-1.4 12-5.6 15.8-12.3 2.3-2 4.9-3.8 8.4-5.6-3.6-.5-18-4.8-27.7 6.1z"/><path id="path14" d="m117-20.2-5.4 27.8 2.4-2c3.2-4 12.7-2.9 19.6-23.5.8-8.5 4.1-11.6 6.2-17.4A34.7 34.7 0 0 0 117-20z"/><path id="path15" d="M117-20.5c8.7-9.5 11.7-19.2 22.1-26.3-15.4 3.2-15.2 9.3-22.8 14l-1 17.2c1-1.4.9-3.5 1.8-4.9"/><path id="path16" d="m111-34.7 1.6 19.1c2.4-3.2 5.5-6 7.4-9.5 3.2-7.6 10.2-15.1 9.6-22.6 0-5.4.8-9.1 6.7-14-15.5 0-24.4 14.3-25.3 27zm-3 49c4.8-22.9-6-28.6-22.4-33.7 2.8 5.4 1.4 7.3 2.1 10.8C89.6.2 94.5 2.8 97 4c5 2.4 7.4 6.9 11 10.3M76.5 80.2c15.9-1.8 13.9-9.3 29-13.8-5.6-1.6-8.7-4.4-18.2-2.3l-15.4 7.5 4.6 8.6"/><path id="path17" d="M75.9 66.9c1.2-2.5 3.1-4.8 3.6-7.5.4-2.9.7-6.3-.8-8.8-8.4-14.4-6.6-15.3-6.2-23 .2-2.7 1.4-4.3-.5-8 6.5 2.8 11.4 10.5 14.6 16 8.1 13.4-7.8 27.2-7.6 33 5.3-3 13.8-14.2 13.4-20.4.8-.1.9-1 1.7-1.3-.6 1.7-.2 5.4-.8 7l3.4-3.5c.4.4 1.2.3 1.6.7-2.1 2.2-4.6 5-6.7 7 1.8-1 3.5-2.2 5.3-3.3l.6 2.6C90.3 59 88 64 84.2 68.3c-3.2 3.5-7 6.5-10.5 9.8L72 72.4l4-5.4"/><path id="path18" fill="none" stroke-linecap="round" d="M76.5 25.9c9 13.4 5 32.5 5 32.5"/><path id="path19" d="M-113.9-95.2c1.7 4.1 2.5 4.6 4.3 7.4 1.8 3 2 7.5 1.8 11 .5 8.6 2.5 16.4 2.2 26A65.6 65.6 0 0 0-102-76c-.2-5-8-18.3-11.9-19.2zm75 234.2c3.6 5.5-12.7 7.6-16.1 8 8.9-3.3 14.4-10.5 16.1-8zm68.2-14 9.4 4 6.7 5c-5.9-2.5-15.1-5.6-20.3-8.7zm-7.7 0 32.9 15.8-4.2.6L18.2 124z"/><path id="path20" d="m21.9 126 34.5 18.4 4.9 5.4-7.3-.7c-15.1-10-28.5-19.6-45.5-27.3zm-15-2a83 83 0 0 1 20.4 22.3c-2.1-1.6-4-2.7-6.1-4.2a66.5 66.5 0 0 0-15.3-17zm19.9 13 23.3 16.6c-4.1-1.7-6.3-2-9.7-2.4-6.4-5-12.1-10.2-19-15.3l.8-2.1zM-97.6-76.6l-6.4 26a24.6 24.6 0 0 0-1.3-1.1c.7-10.5 2.4-16.4 3.7-25.1 1.3-8.3 5-14.4 7-22.6 1.5 7.8-.3 15.7-3 22.9z"/><path id="path21" d="M7.7 123c7.1 4.4 15.1 9.2 21.6 15.2a16 16 0 0 0-8.4-2c-4.3-4.6-9-8.2-14-11.8zm.7-1A316.3 316.3 0 0 1 40 143.6c1.7.4 4 .8 5.6 1.3-.4-.8-1.7-2-2-2.7-12-6.7-24.5-15.2-35.4-20.2zM-87.5-61.4C-98.2-47-97-38-100.9-26.2l-2.4-14.4 6-12.9a73 73 0 0 1 17.5-23.7c6.8-6 12.8-7 20-9a63.8 63.8 0 0 0-27.7 25zm-10-15.6c2.2-5 4.8-9.4 7.3-13.6l.8-2.5c1.3 1.1 1.8.3 1.8 0l1.5 2c-9 7.6-17.2 36.3-19.2 41.6zM117-54.4c1.2-6.3.5-15.4.7-21.4-.8-11-6-12.9-6.7-21.2-4.3 6-5.6 7.6-6.6 17l7 24.6c2-.9 3.6 1.8 5.6 1zM-59.3 148c7.5-3.2 13.5-9.4 17.3-10.7 3-.4 16.6-4.7 34.4-15.9l2.1 3.5-29.9 16.6c-5 5.1-14.6 7.5-24 6.6zM100-86c2.2-9.5 1-16-1.5-21.1-2.2-4.3-5.2-4.9-7.4-11.2-2.9 5.6-5.6 9.5-3.4 18.4L100-86z"/><path id="path22" d="M-96.7-92.6c.9-1.6 2.9-4.4 2.2-6.9-1.4-4.6-7.3-6.3-12-7.4 3.2 4.8 7.4 2.7 9.6 14.3m-1.8 143.9 1.5.2 8.8 10.3 7.3 7.9 1.7-1.6L-95.9 50zM-100-53c4.3-11.4 8.3-20 14.6-24.6l2.7-1a30 30 0 0 1-.6-2.2l-3.2.1-.2 1.2a51.3 51.3 0 0 0-15.9 26.2l-2.1 12.5L-100-53"/><path id="path23" d="M-78.3-96.3a126.7 126.7 0 0 0-17.5 21.1c-11 17.5-11.8 35.8-13.1 45.1l2.7.3A81 81 0 0 1-92-76.1a108 108 0 0 1 13-16.5l2.4-1.2 2.4-2.7-3.3-2.6-.9 2.9M-101-13.4l12.3-33.9-10 10.7-4 17.7z"/><path id="path24" d="M-111-53.4c.9 13-.5 24.8 2.6 39.2l4.3 20.5 2.8-8.7c-4.7-9-5.7-26.8-6.2-40.3.7-11.6-.8-19.1-5.9-26.4.1 5.7 2.7 7 2.4 15.7z"/><path id="path25" d="m-110.9-25.4 3.7 15.3-8.9-25.1c-.5-6.2 2-15.5-1.5-18.4-3.7-4-5.1-6.8-11.5-10.4 12 3 18.4 8.2 17.6 17-.7 8.7-.6 14.9.6 21.6z"/><path id="path26" d="M-119-30.7c2.6 6 2.6 9.2 7.4 18.2 2.3 4.4 3 14.6 5.4 22.3 1.6 4.5 3.2 9 5 13.6l-2.9-18.2c-2.1-5.3-1.3-10.1-3.2-14.7-3-7.4-4.9-15.7-7-20.8a46.4 46.4 0 0 0-14.4-21.3c3.2 7.2 6.6 13.6 9.7 20.9z"/><path id="path27" d="M-112-3.6c1.8-4.3 5.2-4.3 7.4-4.4 3.6 1.2 2.7 4.2 4 6.3-3.5-2.7-6.5-5.8-11.4-1.9M-71.3 72c-4.7-4.7-10.4-7.7-14-14.2a29.1 29.1 0 0 0-.5-2l-3.3 1.2 2.3 1.6 9.3 12 6.2 1.4m-1.3-175.2 2.3-5.2c3.5-4.8 4.8-9.8 10.7-14.4 4-3.2 4.3-9 5-12.6 1.3 3 2 12.7-1 16-5.3 5.9-11.4 10.9-17 16.2"/><path id="path28" d="M-88.6-28.4c-6 5.6-13.2 11.7-14.5 26.6-1.6 8.3-.8 14.7-.5 25l7.1 14.1c.2-9.6-2-17.4-2.9-26.1 1-27.5 7.3-26.5 10.8-39.7m23.2 25.3c-18.3 8.7-15.6 20.7-23.1 28 0-1.8 0-3.6-.2-5.3l3.8-10.1C-78.5-2.4-71-.6-65.4-3.1m-9.4 62.9L-81.5 45c-2-6.6-1-10-.8-15.3.2 6.8 3.3 5.5 6 16.6l4.2 12.6 3.8 9-6.5-8"/><path id="path29" d="M-82.2 31.5c-.2-7 3-5 5.5-9-1 4.8-3.9 8.8-3.2 14.5-1.2-1.9-2-1.7-2.3-5.5m15.5 40.1-6.9-1.8-5.8-7.2c-5.4-6.7-6.1-13-7.2-21.2 3.4 10 12.2 21 17.8 29.2l2 1"/><path id="path30" d="M-79.5 62.7c-3.4-4.4-11.4-10.5-9.5-18.2l-.4-12 3 8.6c.6 5 .5 13.3 6.9 21.6m-6.3-26.4c1.5-6.7 4-11.6 8.5-14.8 1.1-.8 2.6-1 4-1.6 3-1.1 4.7-.9 7.9 2 1.4 1.6 3 2.8 4.2 4.5 1.5 2.2 2.4 4.8 3.6 7.2-.6-3.4 0-7-1.8-10.2a25.8 25.8 0 0 0-7.4-7.9c-3-2.2-4.2-2.9-9.8.5a22 22 0 0 0-11.1 13c-1 2.9 0 5.2 1.9 7.3M-118 57c5.3 1.6 10.8-3.1 15.9-2.5-.8-1-3.6-3.3-4.8-3.3-3.9 2-3.3 3.8-11.1 5.8z"/><path id="path31" d="m-44.2 93.5-21.3-8.3c-18.7-10.4-36.9-32.6-41-34 7.8.2 13.9 4.2 21.7 12.2 8.4 8.5 27.6 17.2 41.4 25.8l-.8 4.4"/><path id="path32" d="m-67.6 72.9 1.5 2.2 10.7 6.7-11.1-5.5-2.1 1-1-.7.8-1.8zm23.7 12.2c-5-1.4-19.7-11-22.8-20.9l.6-1.8-2.1 1.2-1.5.2.2 1.3h.9C-66 75.4-49.3 84.6-44 86.9c5.2 2.3 4 2 .2-1.7"/><path id="path33" d="M-45.2 91.1c-5.9-6-15.6-10.4-21.8-18.6A104.2 104.2 0 0 1-90.6 26l-.6-1.2h1.4l.5 1h1.4v1.4c.2 9.6 10.1 28 22.3 43C-58.9 80-51.9 81.7-45 87.5z"/><path id="path34" d="M-42.3 91.9c-5-9.4-27.2-30.1-21.7-65.5 5.3 33.6 14.2 39.3 22.4 59.9-1 1.3.3 4.4-.7 5.7"/><path id="path35" d="M-28.5 103c-12.3-6.6-11.2-5.3-16.9-8-5-2.7-9.1-1.8-19.6-7-1.5-.4-9.6 0-14.3-.8 1.9-1.2 3.8-2 6.8-2.3 22.7-1.9 29 8 44 18.1M-120 5.6c5.2 4.2 5.4 6 10.8 9.7l6 10.6 3 8.8c-10.7-12-10.4-20.3-29.4-29.7-4-2.6-6.7-5-10-7.7 7.1 3.6 15.5 5 19.6 8.3z"/><path id="path36" d="m-112 11.9 2 .6 1.2-2.7.2 2.7L-99 33l-1 2.9-10.4-22zm-2 12.8 10.7 13.2-11.5-8.6c-2.4-1.5-4.6-2.2-7.1-4.4-5-3-7.7-7.1-11.6-10.6 8.1 5 13 7 19.5 10.5zm9-33.1 4.3-.4-.5 1.7c-.3 6.6 2.3 14.3 5.4 27.6l-1.5 1.7c-5.5-16.4-4.3-19-5.7-29l-2-1.7m211 24.7 1.4 6c5.1-14.1 6.3-27 7.2-43.3a79 79 0 0 0-2.6-24.5l3.3-2.4c1.8 13.8 2.7 25.4 1.3 41.7-2 9.8-2.7 17.6-7.7 29.5l1.4-2.5c.4.2.9.5 1.3.9-.8 1.2-2 2-2.4 3.7l-.4 4.6-3.4 1c-.1-4 .6-10-.3-11.8l.9-2.8m-8.3 22c-.7-1.7-1.1-8.5-7.8-13.7a24.4 24.4 0 0 1-7.4-9.1c-1.8-3-1.9-5.1-3-8 4.3.5 10 .4 12.5 1 6.6 1.5 12.6 11 12 20.2zm10.3 5.8c16.4 1.3 21-10.1 33.4-14.2-5.4-2.3-7.7-2.9-15.2-2.3-15.1 2.6-17.7 9-18.2 16.6"/><path id="path37" d="M112 40.5c9.7-2.3 11.9-7.4 12.8-8.3 3.9-8.3 6.7-8.6 17.7-14.2-10.3-1.5-21.8-3-31.8 7.8-2.3 5.1-4.6 6.2 1.3 14.8"/><path id="path38" d="M96.4 41.8c-1.2 3 .9 4.3 1.3 6.5 3.3-1 7-.7 10-3.1 9.5-8.2 7-13.2 10.6-20-4.4 1.6-15-4.3-22 16.6zm-1.3 21.5c3 1 14-8 23.6 1.2-1-5.7-3.5-8.3-8.5-9.7l-14 1.5c-.4 2.3-.8 4.7-1 7"/><path id="path39" d="M123 53.7c-5.9-7.5-9.4-12-21.5-6.5a26 26 0 0 0-8.7 7.8c-2 2.5-3.2 5.2-4.6 8.5 25-2 17.2-15.8 34.9-9.8zM52.7 89.2c6.2-4.9 7.5-6.2 9.5-14.7A6341 6341 0 0 1 70 42.1c3.6 8 10 6.5 9.2 17.9-.4 4.7-2.5 8.6-5.2 13l-7.9 3.9L56.6 89l-3.9.2"/><path id="path40" d="m48 96 8.3-4.8c4-1.8 5.7.2 8.7 0 5-.3 11.6-5.4 18.3-6.3-9.5-6.6-14.8-6.9-23.2-.8L42 96.5l1 2.6 5-3.1zm-2.4-20.8c.7 5.8-2 12.3 2.1 17.1 2.6-1.8 5.1-3.6 7.8-5.3 1.7-1.6 3.5-8.8 0-12.4-2-2.4-4.2-3.2-5.8-7a714.2 714.2 0 0 1-4 7.6zm33.4-7c-1.5-3.4 8-11 6.8-18.1-.6-3.7-3.4-7.3-10-10.4a7.9 7.9 0 0 0-6.3-.5c2-2.2 4.4-2 6.7-3.3 6.7-3.5 12.4-1.8 15.4 5.4 2.4 6 2.9 3.8-1.6 15a33 33 0 0 1-11 12"/><path id="path41" stroke-linecap="round" d="M113-2.5c0-2.5-7.3-19.5-16.4-26.3m15.4 44s16-13 22-13.3m0-33.8s-6.3 5.9-8.4 8.8a103 103 0 0 0-4.6 7.4M117-29c.8-4 1.5-21 13.7-30.3M109 12.2c-2.8-15.3-13.9-23.9-20-28.7"/><path id="path42" d="M109 15s-4.6-11-9.4-12.2c-4.8-1.2-8.5-3.1-10.3-6.4"/><path id="path43" stroke-linecap="round" d="M123 35c5-2 6-5 13-5m-35 2c-1-15-12-16-16-21m32 17.3c9.7-9.1 19.6-9.7 19.6-9.7M114 28.9c-3.8 2.5-5.7 7.8-8.9 10.3a25.1 25.1 0 0 0-6.2 7.3M116 60.2s-3-2.3-4.2-2.5c-1.2-.3-3.9 0-5.8.1m12-7.1s-7.2-3.3-12.9-.5L99.6 53"/><path id="path44" d="M56.3 91.3S72.3 81 75 77m3.9-8.6-5 5.3"/></g><use xlink:href="#cafe" id="use44" transform="translate(66 80)"/><use xlink:href="#cafe" id="use45" transform="translate(73 80)"/><use xlink:href="#cafe" id="use46" transform="translate(70 75.5)"/><use xlink:href="#cafe" id="use47" transform="translate(95 49)"/><use xlink:href="#cafe" id="use48" transform="translate(92.5 41.5)"/><use xlink:href="#cafe" id="use49" transform="translate(99 42.5)"/><use xlink:href="#cafe" id="use50" transform="translate(109.5 22)"/><use xlink:href="#cafe" id="use51" transform="translate(106 14)"/><use xlink:href="#cafe" id="use52" transform="translate(115 17)"/><use xlink:href="#cafe" id="use53" transform="translate(109 -12)"/><use xlink:href="#cafe" id="use54" transform="translate(116 -11)"/><use xlink:href="#cafe" id="use55" transform="translate(111 -17)"/><use xlink:href="#cafe" id="use56" transform="translate(118 -17)"/><use xlink:href="#cafe" id="use57" transform="translate(108 -47)"/><use xlink:href="#cafe" id="use58" transform="translate(116 -50)"/><use xlink:href="#cafe" id="use59" transform="translate(112 -54)"/><use xlink:href="#cafe" id="use60" transform="translate(88 -94)"/><use xlink:href="#cafe" id="use61" transform="translate(91 -98)"/><use xlink:href="#cafe" id="use62" transform="translate(84 -97)"/><path id="path62" fill="none" stroke-linecap="round" d="M47.4 92.5c4-5.2 3.8-8.6 3.8-9.9 0-1.4-1.5-5.3-1-9.5M98 66.3s-7 1-9.7 2c-2.7 1.2-9 4.6-9 4.6m-7-5c2-4.5 2.2-4.9 2.3-7.5.1-2.7-.7-6.1-1.7-8-.8-1.4-2-4.7-2-4.7m12.8-9.2a12 12 0 0 1 4.7 5.9c1.3 3.5 1.2 7.6.4 11.3-.7 3-4.5 8.2-4.5 8.2"/><path id="path63" fill="none" d="M98.7 36c-1.5-12.9-4.7-11.8-7.2-12.2-2.1-.4-6.1-3.6-7.4-5.5"/><path id="path64" fill="none" stroke-linecap="round" d="M73.9-117s-3.8-3.6-6.6-12m2.3 15a60.8 60.8 0 0 0-28.7-8.5"/><path id="path65" fill="none" d="M-90.2-65.7s-2.3 6.2-3.8 9.3-2.8 4.3-2.8 4.3"/><path id="path66" fill="none" stroke-linecap="round" d="M96-97c1-7-7-8-5-16m23 52c-2-6-6-24-4.1-31"/><g id="trigo" fill="#fff200" stroke="#231f20"><path id="path67" d="M-71.6-115c-1.1-5 .3-4.3 2-6.4.1 2.9 1 3.6-2 6.4m2.7-3c0-4.8 2-2.7 4.5-5.3-1.9 3.3.2 3.6-4.5 5.3"/><path id="path68" d="M-69.2-117c2.6-4 2-2 5.5-3-2.1 2-.6 4.2-5.5 3m-2.9 4c3-4.5 2.2-2.2 6.2-3.4-2.4 2.3-.7 4.7-6.2 3.4"/><path id="path69" d="M-75-110c3-4.5 2.2-2.2 6.2-3.4-2.4 2.3-.7 4.7-6.2 3.4"/><path id="path70" d="M-77.4-107c3-4.5 2.2-2.2 6.2-3.4-2.4 2.3-.7 4.7-6.2 3.4"/><path id="path71" d="M-80.1-104.5c3-4.5 2.2-2.2 6.2-3.4-2.4 2.3-.7 4.7-6.2 3.4"/><path id="path72" d="M-82.6-100.9c3.5-4.5 2.6-2.2 7.5-3.4-3 2.3-.9 4.7-7.5 3.4"/><path id="path73" d="M-85-97.7c3.5-4.5 2.3-2.7 7.1-3.9-2.9 2.3-.5 5.2-7.1 3.9"/><path id="path74" d="M-86.2-94.7c3.5-4.5 2.3-2.7 7.1-3.9-2.9 2.3-.5 5.2-7.1 3.9"/><path id="path75" d="M-88.2-92c.9-3.9 3.1-2.6 5.7-3.2-1.2 1.8-1.7 5.9-5.7 3.2m16.9 125.6c4.8-4.9.3-6.1 0-11.9.1 8.2-4 5 0 11.9z"/><path id="path76" d="M-72.9 36.3c4-4.9-.9-6.1-2.4-11.9 1.8 8.2-3.2 5 2.4 11.9zm-3.2 0c.2 5.6-1.9 3.8 3.7 10.6 4-4.9-3.7-6.4-3.7-10.6"/><path id="path77" d="M-71 39.2c6.8-3.8 1.6-7.2 2.4-12.9-1.5 8-5.4 5.8-2.4 12.9z"/><path id="path78" d="M-71.5 44.3c6.8-3.8 3.8-4.5 4.6-10.1-1.5 8-7.6 3-4.6 10.1z"/><path id="path79" d="M-66.3 39.5c-3.5 6.2-7.6 3-4.6 10.1 6.8-3.8 3.9-4.5 4.6-10.1"/><path id="path80" d="M-66 44.8c-3.5 6.2-7.6 3-4.6 10.1 6.8-3.8 3.9-4.5 4.6-10.1"/><path id="path81" d="M-65.5 49.8c-3.5 6.2-7.6 3-4.6 10.1 6.8-3.8 3.9-4.5 4.6-10.1"/><path id="path82" d="M-68.3 63.9c6.8-3.8 2.9-5 3.6-10.6-3.5 6.2-6.6 3.5-3.6 10.6zm-4.3-22.6c3.6-6.5-3.9-3-4.6-12.3 2.6 8.6-1.9 9.7 4.6 12.3zm-4.8-2.1c2.6 7.9-1 11 5.5 13.6 3.6-6.5-4-5.7-5.5-13.6"/><path id="path83" d="M-76.4 45.7c2.6 7.9-1 11 5.5 13.6 3.6-6.5-4-5.7-5.5-13.6"/><path id="path84" d="M-75 54c2.6 7.9-1 7.4 5.5 10 3.5-6.5-4-2.1-5.5-10m-13.8-66.3c-4.7-3.4-.3-6.6-1.7-9 1.4 2.4 3.4 3.9 1.7 9"/><path id="path85" d="M-89.3-6.3c-6-4.3-1.5-7.8-3.2-10.8 1.7 3 5.3 4.3 3.2 10.8"/><path id="path86" d="M-89.7-1.3c-6.7-3.3-3.6-8.6-5.3-11.6 1.7 3 5.7 2.5 5.3 11.6"/><path id="path87" d="M-89.7 5.2c-5.7-2.7-3.1-6.9-4.9-9.9 1.8 3 7 2.6 4.9 9.9m1.7-16.8c5.7-2.7 2.5-7 4.2-10-1.7 3-6.3 2.8-4.2 10"/><path id="path88" d="M-88.5-6.4C-82.8-9-85-14-83.2-17c-1.8 3-7.4 3.4-5.3 10.6m1.8-19.2c-.2 4.3-3 2.4-1.4 8.6 5.7-4.4 1.2-4.8 1.4-8.6"/><path id="path89" d="M-89.5-.5c5.7-2.8 4-8.1 5.7-11.1-1.7 3-7.8 3.8-5.7 11"/><path id="path90" d="M-89 5.5c5.7-2.7 3.7-9.6 5.4-12.6-1.7 3-7.5 5.3-5.4 12.6"/><path id="path91" d="M-89.5 11.4c5.7-2.1 3.7-8.6 5.4-11.6-1.7 3-7 4-5.4 11.6"/><path id="path92" d="M-90.3 9.3C-96 6.6-92.9 3.5-94.7.5c1.8 3 6.5 1.5 4.4 8.8"/><path id="path93" d="M-90 14.6c-5.7-2.7-3.8-5.4-5.5-8.4 1.7 3 6-.8 5.5 8.4"/><path id="path94" d="M-89.8 19.8c-5.7-2.7-3.5-5-5.2-8 1.7 3 7.3.7 5.2 8"/><path id="path95" d="M-89.3 15.9c5.7-2.7 2.2-4.2 3.9-7.2-1.7 3-6 0-3.9 7.2"/><path id="path96" d="M-89.2 22c5.7-2.7 2.3-6 4-9-1.7 3-6 1.7-4 9"/><path id="path97" d="M-89.2 25.6c5-1.4 2.3-3.7 4-6.7-1.7 3-5.9 1.4-4 6.7"/><path id="path98" d="M-90.5 24.8c-5.7-2.7-3.4-6-5.1-9 1.7 3 7.2 1.7 5.1 9m5.9-123.2c-2.2-6 .6-4.2 1.3-7 1.4 2.8 1.5 3.8-1.3 7m10.4-13.6c-1.1-5 1-4 1.6-6.8 1.3 2.7 1.3 4-1.6 6.8"/><path id="path99" d="M-76.8-109c-1.1-5 1-4 1.6-6.8 1.3 2.7 1.3 4-1.6 6.8M-86-95.1c-3-3.8-.9-3.2-.3-6.2 1.4 2.6 3 3 .3 6.2m4.3-7.6c-2.2-5.5.7-4.3 1.3-7 1.3 2.7 1.5 3.8-1.3 7"/><path id="path100" d="M-79.2-106c-1.1-5 1-4 1.6-6.8 1.3 2.7 1.3 4-1.6 6.8m-9.2 13.7c-2.7-3.1-.4-4.3.1-6.2.6 2.3 2 2.3 2 3.6 0 1-1 1-2.1 2.6m-1.4 159.1c2.9 1.4 6.2-1 6 2.6-2.8 2.2-4-1-6-2.6m-5.5-1.7c-4.2 2.7-6.6-.8-10.6-3.9 4.3.5 8.8 0 10.6 3.9z"/><path id="path101" d="M-92.5 65c-4.7 1-5.4-3.2-8-5 4.3.4 8 1.3 8 5z"/><path id="path102" d="M-89.6 67.3c-3 2.9-8 .2-11.3.3 4.9-1.7 9.5-3.5 11.3-.3z"/><path id="path103" d="M-95.7 60c4.5 2.8 7.7 3.4 7 7-4 .4-4.4-3.9-7-7"/><path id="path104" d="M-84.8 67.8c-4.1.3-4.9-3.7-6.8-7.2 4.6 2.8 7.4 3.6 6.8 7.2z"/><path id="path105" d="M-86.8 62.7c3 3.8 9.2 2.3 6.8 7.2-5.3 1.3-5-3.6-6.8-7.2"/><path id="path106" d="M-81.4 65.6c3 3.8 8.6 2 6.2 7-5.3 1.3-4.3-3.4-6.2-7"/><path id="path107" d="M-77.4 66.6c3 3.8 8 2.2 5.5 7.2-5.3 1.2-3.6-3.6-5.5-7.2"/><path id="path108" d="M-68.1 75.1c-5.3 1.3-3.1-3-4.4-6.4 4 3.1 6.9 1.4 4.4 6.4zm-18.5-4.9c-2.7 3.1-2 1.1-8.4-.1 5-1.8 6.7-4.7 8.4.1z"/><path id="path109" d="M-80 71c-2.7 3.1-4.6 2.5-10 1.3 4.1-1.8 8.3-6 10-1.3z"/><path id="path110" d="M-76.9 72.8c-2.7 3.1-4.6 2.5-10 1.3 4.1-1.8 8.3-6 10-1.3z"/><path id="path111" d="M-72.2 74.2c-.5 2.7-6.2 2.5-9.3 1.3 3.4-.4 3.4-4 9.3-1.3z"/><path id="path112" d="M-69.1 75.3c-.5 2.7-5.7 3.2-8.8 2 3.4-.4 2.9-4.7 8.8-2zM-39.9-117c-.2-3.9 4.6-3 7.2-3-.3 3.6-2 3.7-7.2 3"/><path id="path113" d="M-38-119c-.2-3.9 4.6-3 7.2-3-2.7 1.7-2 3.7-7.2 3m-6 5c.3-4.2 5.3-2.6 8.1-2.3-2.2 2-2.6 3.8-8.1 2.3"/><path id="path114" d="M-49.2-112c.3-4.2 5.3-2.6 8.1-2.3-2.2 2-2.6 3.8-8.1 2.3"/><path id="path115" d="M-54.4-109c.3-4.2 5.3-2.6 8.1-2.3-2.2 2-2.6 3.8-8.1 2.3"/><path id="path116" d="M-59.1-106c.3-4.2 5.3-2.6 8.1-2.3-2.2 2-2.6 3.8-8.1 2.3"/><path id="path117" d="M-63.6-103.6c.3-4.2 5.3-2.6 8.1-2.3-2.2 2-2.6 3.8-8.1 2.3"/><path id="path118" d="M-67.9-100.6c.3-4.2 5.3-2.6 8.1-2.3-2.2 2-2.6 3.8-8.1 2.3"/><path id="path119" d="M-72.8-98.9c.3-4.2 5.3-2.6 8.1-2.3-2.2 2-2.5 3.8-8.1 2.3"/><path id="path120" d="M-76-96.7c.3-4.2 5.3-2.6 8.1-2.3-2.2 2-2.6 3.8-8.1 2.3m34.4-23.3c-.4-3.9 3.9-4 6.5-4.2-2.6 1.9-1.2 4.6-6.5 4.2"/><path id="path121" d="M-46.1-118c-.4-3.9 2.2-3.9 4.9-5.6-1.5 2.5.4 6-4.9 5.6"/><path id="path122" d="M-50.9-115c-.4-4.6 2.8-5.5 5.5-7.3-1.5 2.5-.2 7.7-5.5 7.3"/><path id="path123" d="M-55.5-113c-.4-4.6 2.4-4.8 5-6.6-1.4 2.5.3 7-5 6.6"/><path id="path124" d="M-59.4-111c-.4-4.6 2.4-4.8 5-6.6-1.4 2.5.3 7-5 6.6"/><path id="path125" d="M-63-109c-.4-4.6 2.4-4.8 5-6.6-1.4 2.5.3 7-5 6.6"/><path id="path126" d="M-67.4-107c-.4-4.6 2.4-4.8 5-6.6-1.4 2.5.3 7-5 6.6"/><path id="path127" d="M-71.4-103.4c-.4-4.7 2.4-4.9 5.2-6.7-1.5 2.6.2 7-5.2 6.7"/><path id="path128" d="M-74.4-101.4c-.4-4.7 2.4-4.9 5.2-6.7-1.5 2.6.2 7-5.2 6.7"/><path id="path129" d="M-77.4-98c-.4-4.7 2.4-4.9 5.2-6.7-1.5 2.6.2 7-5.2 6.7m34.1-18c-.2-3.9 4.6-3 7.2-3-2.7 1.7-1.7 4.7-7.2 3"/><path id="path130" d="M-49.4-114c-.2-3.9 5-3.1 7.5-3.1-2.7 1.6-2 4.8-7.5 3.1"/><path id="path131" d="M-54.5-111c-1.2-4.5 4.2-3.3 6.8-3.3-2.7 1.7-1.3 5-6.8 3.3"/><path id="path132" d="M-58.7-109c-1.2-4.5 3-2.8 6.4-4-2 1.8-.9 5.7-6.4 4"/><path id="path133" d="M-63.3-106c-1.2-4.5 3.2-3 6.6-4-2 1.6-1 5.7-6.6 4"/><path id="path134" d="M-67.2-103.8c-1.2-4.5 3.7-2.3 6.2-4.3-2 1.7-.7 6-6.2 4.3"/><path id="path135" d="M-71.1-100.6c-1.2-4.5 3.1-2.4 5.6-4.3-1.9 1.7 0 6-5.6 4.3"/><path id="path136" d="M-76.2-96.8c-1.2-4.5 3.4-3.1 5.9-5-2 1.6-.4 6.7-5.9 5M-96.9 28.3c-3.5-2-2.8-5-3-7.2.9 2.3 4.3 3 3 7.2"/><path id="path137" d="M-96 32.2c-3.1 0-3.4-3.5-4-5.5 2.4 1.5 5.5.4 4 5.5"/><path id="path138" d="M-95.7 37c-3.1 0-3.4-3.5-4-5.5 2.4 1.5 5.5.4 4 5.5"/><path id="path139" d="M-94.6 41.7c-3.1 0-3.7-4.6-4.3-6.6 2.5 1.5 5.8 1.5 4.3 6.6"/><path id="path140" d="M-93.6 46.7c-3.1 0-3.7-4.6-4.3-6.6 2.5 1.5 5.8 1.5 4.3 6.6"/><path id="path141" d="M-92.3 51c-3.1 0-3.7-4.6-4.3-6.6 2.5 1.5 5.8 1.5 4.3 6.6m-3.5-21.6c-1.8-3.8.2-5.8 1.7-7.6-1 2.2 3 5.1-1.7 7.6"/><path id="path142" d="M-94.9 34c-1.8-3.8.9-5.8 2.4-7.6-1 2.2 2.2 5.1-2.4 7.6"/><path id="path143" d="M-94.1 37.6c-1.8-3.8.9-5.8 2.4-7.6-1 2.2 2.2 5.1-2.4 7.6"/><path id="path144" d="M-93.8 42.7c-1.8-3.8.9-5.8 2.4-7.6-1 2.2 2.2 5.1-2.4 7.6m2.7 8.5c-1.8-3.8.9-5.8 2.4-7.6-1 2.2 2.2 5.1-2.4 7.6"/><path id="path145" d="M-92.4 46.9c-1.8-3.8.9-5.8 2.4-7.6-1 2.2 2.2 5.1-2.4 7.6m4.3 7.6c-2.7-3.2-.7-5.9.3-8-.3 2.4 3.5 4.4-.3 8"/><path id="path146" d="M-86.4 56.6c-2.7-3.2 0-3.1 1-5.2-.4 2.4 2.8 1.6-1 5.2m-2.9-2c-3 .9-4.8-3.4-6-5.2 2.9.8 6-.1 6 5.2"/><path id="path147" d="M-86.7 57.7c-3 .9-4-1-5.2-3 2.9 1 5.3-2.3 5.2 3M-120 14.6l5.3 6.5c-.3 3.3.1 5.8 3.5 6.3 1.2-4.6-2-5-3.6-6.4z"/><path id="path148" d="m-118 23.7 2.8 3c1 3.3 2.9 4.3 5.1 4.5 1-3.5-4-4.6-5-4.5z"/><path id="path149" d="m-111 21.7.1 1.9c-2 2.8-.7 3.5.7 5.3 2.7-2.8.6-5.1-.7-5.2z"/><path id="path150" d="m-109 24.1.1 1.9c-2 2.8-.7 4.4.6 6.2 2.7-2.8.7-6-.6-6.1z"/><path id="path151" d="m-107 27.6.2 2.2c-2.2 2.8-1.5 4.5 0 6.3 3.2-2.9 1.4-6 0-6.2z"/><path id="path152" d="m-105 30.8.2 2.2c-2.2 2.8-1 5.2.5 7 3.2-2.9 1-6.8-.6-6.9z"/><path id="path153" d="m-102 34.2.2 2.2c-2.2 2.8-1.5 4.5 0 6.3 3.2-2.9 1.4-6 0-6.2z"/><path id="path154" d="m-99.1 37.1-.5 2.4c-2.3 2.9-1.5 4.5 0 6.3 3.2-2.9 1.4-6 0-6.2z"/><path id="path155" d="m-96.6 40.4-.6 2.4c-2.3 2.9-1.2 5 .4 6.8 4.2 2.7 1.1-6.6-.4-6.7zM-117 27.7l3.3 2.7c.9 3.3 2.3 5 5.6 4.5.5-4.7-4-4.8-5.6-4.5z"/><path id="path156" d="m-115 31.9 4 3.5c.8 3.2 2.6 4.4 6 3.8.4-4.7-4.5-4.2-6-4z"/><path id="path157" d="M-116 33.1c2.1 3 5 4.4 7.7 6.6.8 3.2 3.6 4 7 3.4.4-4.7-5.5-3.8-7-3.5-2.6-2.2-5.7-3.5-7.7-6.5"/><path id="path158" d="M-114 37.6c2.1 3 4.2 3.5 6.7 5.7 1 3.3 5.3 4.4 8.6 3.8.5-4.6-7-4.1-8.6-3.9-2.5-2.1-4.7-2.6-6.7-5.6"/><path id="path159" d="M-112 41.9c2.1 3 3.5 3.9 6.7 5.7 1 3.3 5.3 4.4 8.6 3.8.5-4.7-7-4.2-8.6-3.9-3.3-1.9-4.7-2.6-6.7-5.6m-14-78.3 1.8 6.4s-2 5.6 1.7 6.5c1.7-2.7 0-5.5-1.6-6.5z"/><path id="path160" d="m-126-28.8 1.4 4.4s-.5 6.3 3.1 7.2c1.7-2.6-1.4-5.9-3-7zm5-1.1 1.2 3.8s-2.5 5.2 1.5 6.3c2-3 .4-4.8-1.3-5.9z"/><path id="path161" d="M-126-19.3c2.3 3.5.8 3.6 2.9 5.8 1.7.1 2.4-1.2 1.3-3.6-1.7-1-2 .4-4.2-2.2"/><path id="path162" d="m-123-16.5.6.9s.3 5.2 4 4.7c.6-3.1-2.5-5.1-3.9-4.6zm0-10.6.2 1.7s-1.8 4.8 2.2 5.8c1.8-2.9-.7-5.7-2.2-5.8zm5 4.3-.2 2.2s-3.3 3.6.2 5.8c2.7-2.3 1.3-5.1-.2-5.7z"/><path id="path163" d="m-116-17.8-.3 2.3s-3.5 3.5 0 5.7c2.7-2.2 1.5-5.1 0-5.6z"/><path id="path164" d="m-115-14.3-.3 2.5s-3.5 4 0 6.4c2.7-2.4 1.5-5.7 0-6.2z"/><path id="path165" d="m-113-9-.3 2.4s-3.5 4 0 6.4c2.7-2.4 1.5-5.7 0-6.3z"/><path id="path166" d="m-112-5.5-.3 2.5s-3.5 4 0 6.4c2.7-2.5 1.5-5.7 0-6.3z"/><path id="path167" d="m-110-1.4-.3 2.5s-3.5 4 0 6.4c2.7-2.5 1.5-5.7 0-6.3z"/><path id="path168" d="m-108 2.3-.5 2.4s-4 3.6-.7 6.4c2.8-2.2 2-5.5.7-6.3zm-13-23.8.2 1s-1.6 5 2 6c1.7-2.7-.5-5.8-2-5.8z"/><path id="path169" d="m-120-17.2.2 1s-1.7 5 2 6c1.7-2.7-.5-5.8-2-5.8z"/><path id="path170" d="m-118-12.4.2 1.1s-1.6 5 2 5.9c1.7-2.7-.5-5.7-2-5.8z"/><path id="path171" d="m-124-14.8.6.9s0 5.9 5 5.2c.5-3.1-3.4-5.2-4.9-5.1z"/><path id="path172" d="m-124-11.3 1.9 2.4s.7 4.9 4.8 4c.3-3.5-3.3-4.6-4.7-3.9z"/><path id="path173" d="m-122-7 .7 1s.7 7.6 6.4 6.8c.6-3.5-4.6-6.7-6.3-6.6z"/><path id="path174" d="m-120-1.4.7.9s.2 6.3 6.2 5.6c.7-3-4.3-5.6-6-5.6z"/><path id="path175" d="m-120 2.6.7.8s0 5.6 6 4.9c.6-3-4-4.8-5.9-4.8z"/><path id="path176" d="m-118 6.6.9.8s-.7 5.4 5 3.5c.2-3-3.2-3.8-5-3.5zm1-14.4.2 1.1s-1.6 5 2 5.9c1.7-2.7-.5-5.7-2-5.8z"/><path id="path177" d="m-115-2.8.2 1s-1.6 5 2 6c1.7-2.8-.5-5.8-2-5.8z"/><path id="path178" d="m-114 2 .2 1s-1.7 5 2 6c1.7-2.8-.5-5.8-2-5.8z"/><path id="path179" d="m-112 5.9.2 1s-1.7 5 2 6c1.7-2.7-.5-5.8-2-5.8zm5-43.5c-.3 3.3-.9 4.3 2.6 6-.1-4 .8-4-2.6-6"/><path id="path180" d="M-107-33.5c-.3 3.3-.9 4.3 2.6 6-.1-4 .8-4-2.6-6"/><path id="path181" d="M-107-29c-.3 3.3-.4 4.2 3 6-.1-4 .4-4-3-6"/><path id="path182" d="M-107-25.4c-.3 3.3-.1 4.4 3.3 6.2 0-4 0-4.2-3.3-6.2"/><path id="path183" d="M-107-21.5c-.3 3.3-.1 4.4 3.3 6.2.7-3.7 0-4.2-3.3-6.2"/><path id="path184" d="M-107-17.3c-.3 3.3-.1 4.4 3.3 6.2.7-3.7 0-4.2-3.3-6.2"/><path id="path185" d="M-107-14c-.3 3.2 2.2 6.5 4 5.5.6-3.7-.6-3.6-4-5.6m5-23.1c-1.5 3-3 1.9-2.5 6.6 4-2.6 3-2.5 2.5-6.6"/><path id="path186" d="M-101-34.6c-1.2 3.3-3.9 2.5-3 7.5 5-2.7 3-3.6 3-7.5"/><path id="path187" d="M-100-30.9c-2.3 3.4-3.8 1.8-3.2 6.5 5-2.7 3.2-2.6 3.2-6.5"/><path id="path188" d="M-100-27.2c-2.3 3.4-3.8 1.8-3.2 6.5 5-2.7 3.2-2.6 3.2-6.5"/><path id="path189" d="M-99.7-23.4c-3.5 3-5.2 4.5-3.5 6.9 3.2-.5 3.5-3 3.5-6.9"/><path id="path190" d="M-99-20.2c-2.6 3.7-5.9 2.7-3.9 8 4.7-1.6 2-4.1 3.9-8"/><path id="path191" d="M-98.3-16.8c-2.1 5-6 2.9-4 7.8 4 .7 2.4-3.1 4-7.8m-5.7-24.5c-1.4 4.4-2 3.5.5 6.5 1.8-3.6 1.6-3.2-.5-6.5m19.9-37.3c.3-4.5 6.2-1.9 9.3-1.5-3.6 1.1-5.4 3.8-9.3 1.5m6.7-4.6c.3-4.5 6.2-1.8 9.3-1.5-3.6 1.1-5.4 3.8-9.3 1.5m24.8-13.2c.3-4.2 5.8-1.7 8.6-1.4-2.3 2-3 2.9-8.6 1.4"/><path id="path192" d="M-56.6-94.3c.3-4.2 5.8-1.7 8.6-1.4-2.3 2-3 2.9-8.6 1.4"/><path id="path193" d="M-61.5-92.2c.3-4.5 6.2-1.9 9.3-1.5-2.5 2.1-3.3 3-9.3 1.5"/><path id="path194" d="M-65.4-90.4c.3-4.5 6.2-1.9 9.3-1.5-2.5 2.1-3.3 3.1-9.3 1.5"/><path id="path195" d="M-69.1-88.2c.3-4.5 6.2-1.9 9.3-1.5-2.5 2.1-3.3 3-9.3 1.5"/><path id="path196" d="M-73.1-85.6c.3-4.5 6.2-1.9 9.3-1.5-2.5 2.1-3.3 3-9.3 1.5m21.9-13c-.2-3.9 5.6-2.5 8.2-2.6-2.7 1.7-3 3.3-8.2 2.6"/><path id="path197" d="M-53.9-99.8c-.5-3 4.4-3.6 7-3.8-2.6 1.9-1.7 4.2-7 3.8"/><path id="path198" d="M-59-98.2c-.5-4.5 4.4-5.3 7-5.6-2.6 2.8-1.7 6.2-7 5.6"/><path id="path199" d="M-63.3-96.2c-.5-4.5 3.4-5 5.8-6.1-1.3 3.1-.5 6.7-5.8 6.1"/><path id="path200" d="M-67.8-93.4c-1-4.3 2.7-5.5 5-6.8-.8 3.3.3 6.7-5 6.8"/><path id="path201" d="M-71.4-90.6c-1.6-4.2 2-5.8 4.2-7.3-.5 3.3 1 6.6-4.2 7.3"/><path id="path202" d="M-76.8-86.6c-1.6-4.2 2.7-6.8 4.8-8.4-.4 3.3.5 7.7-4.8 8.4"/><path id="path203" d="M-81.7-84.2c-1.6-4.2 2.7-6.4 4.8-8-.4 3.4.5 7.3-4.8 8"/><path id="path204" d="M-85.8-80.4c-1.6-4.2 2.7-6.4 4.8-8-.4 3.4.5 7.3-4.8 8m29.5-15.8c-1.2-4.5 3.4-3.1 6.3-3.5-2.7 1.7-1.6 4.4-6.3 3.5"/><path id="path205" d="M-63.5-93.6c-1.2-4.5 5.4-3.7 8.3-4.1-1.7 1.8-3.6 5-8.3 4.1"/><path id="path206" d="M-67.8-91.4c-.5-4.5 4.3-3.5 7.2-4-1.8 1.9-2 5.9-7.2 4"/><path id="path207" d="M-72.5-88.9c-.5-4.5 4.3-3.5 7.2-4-1.8 1.9-2 5.9-7.2 4"/><path id="path208" d="M-76.3-86.6c-.4-4.1 4-3.3 6.6-3.6-1.6 1.6-1.8 5.4-6.6 3.6m-5.3 6c.3-4.5 6.2-1.9 9.3-1.5-3.6 1.1-5.4 3.8-9.3 1.5"/><path id="path209" d="M-80.8-83.8c-.4-4.1 4-3.3 6.6-3.6-1.6 1.6-1.8 5.3-6.6 3.6"/><path id="path210" d="M-85.2-79.8c-.4-4.1 3.4-4.2 6-4.6-1.6 1.7-1.2 6.3-6 4.6M-96.4 24.5c-4-3.3-1.4-4.8-1.2-7 .4 2.3 3.3 3 1.2 7"/></g></g><g id="listel" stroke="#231f20"><path id="path211" fill="#ed1c24" d="M20.5 109c1-.5 1.8-1.4 2.9-1.6a42.8 42.8 0 0 0 19.1-6.5c3-2 4.2-3 4.7-6.2.3-1.5-.4-2.9-.8-4.8-.5-5.1 1.8-11-1.2-14.7a34 34 0 0 0-6.5-6.6c-3.6-2.8-7.8-8-11.4-7.5-6.4.6-14.1 6.1-16.4 12.6-.4 1 .6 7.2.5 10.8 0 1.1-.8 2.2-1.3 3.6-1.7 2.3-3.3 4.4-3.8 5.7-1.5 4-.3 5-1.5 9.2l3.6 7.1zm-25.8-8c-1-5-3.7-10-3-15.1 0-1 2.2-6.6 2.5-10.1a8 8 0 0 0-1.1-5c-3.1-4-5.4-7.3-11.1-10.5-3.7-1.6-7.7-.6-10.6 1.8-3 2.4-5.9 5-8.3 7.9-2.5 3-5.7 6-6.4 9.7-1.1 5.7-3 11.6-2.4 15 .8 3.6 10.2 9 12.5 9.4 3.8.8 7.7.5 11.1 1.5 1.5.4 2.8 1.3 4.2 2l8.2-.1z"/><path id="path212" fill="#ed1c24" d="M-9.5 107c.7.8-2-.8-3-1-1-.3-2-.1-2.8-.5-2.2-.8-4.2-2.3-6.4-3.2-1-.5-2.3-.7-3.4-1l-3.8-.6c-1.7-.1-3.5 0-5.1-.5-1.5-.4-2.9-1.4-4.2-2.2-.6-.3-1.3-1-2-1.3-.6-.2-1.4 0-2-.2-.5-.2-1.3-.6-1.5-1.2-.1-.6.1-1.4.6-1.9.6-.5 1.7-.5 2.4-.9 1.9-1.3 3.6-3.2 5.6-4.6.9-.6 2-1 2.9-1.3l2.7-.5c1 0 2-.2 2.7 0 .9.2 1.7.7 2.3 1.3A9 9 0 0 1-23 90c.4 1.1.5 2.3.9 3.3.6 1.8 1.2 3.7 2.3 5.2 1.2 1.5 3 2.5 4.4 3.6 2 1.6 4.4 2.9 5.8 4.8"/><path id="path213" fill="none" stroke-linecap="round" d="M-8.4 86.4c0-9-2-9.2-3.6-13.2m22 14.6s3.8-4.3 3.5-8a14 14 0 0 1 .3-6 42 42 0 0 1 6.4-7.3m26.1 23s-5-5-6.9-7.9c-1.8-2.8-2.6-7.5-3.9-9.3a20 20 0 0 0-6.3-5M15.4 90s-3.1 5.2-4.6 9.1c-1.5 4-.5 3.5-3.9 7.3m1.3 3.5s6.2-3.5 8.3-6.2c2-2.6 7.3-11 8-13.8.6-2.8 8.6-5 8.6-5s1-1 2.8-1c1.8 0 2.6 1.3 2.6 1.3s1.7 3.4 2.6 4.3c.8.9 3.7 3.3 3.6 4.9-.1 1.5-3.2 4-3.2 4s-6.1 2.7-8.8 4.6m-43.1 2.9-4.2-2.1s-.9-.7-1.8-.9c-1-.1-1.3-1-1.9-1.3-1-.5-.7-.4-3-1.1"/><path id="path214" fill="none" stroke-linecap="round" stroke-width=".8" d="m-14.6 103-5.8-2.7c-.9-.4-.4-.6-2.5-1.1-2.1-.5-4.3.3-6.2-2.9m13.5 5.7-4.8-3.2s-2.9-1-4-1c-1-.1-4.4-2-4.5-3.1"/><path id="path215" fill="none" stroke-linecap="round" stroke-width=".8" d="m-18.3 100-4-2s-.6-1-2-1.4c-1.5-.4-2.8-.4-3.6-1.4-.2-.3-2.1-1.7-2.1-1.7m-.1-1.5s2.2 1.9 3.3 2.6c1.2.8 3.7 1.3 3.7 1.3l3.2 2.3m-8.8-6s2.4 1.8 4 2.7l3.6 1.8m-6.2-4.4s1.8.8 2.7 1.7c1 1 3.5 2 3.5 2"/><path id="path216" fill="none" stroke-linecap="round" stroke-width=".8" d="M-29.5 91.1s2.8.3 3.8 1c1 .5 1 1 1.8 1.6.7.5 1.5.9 2.1 1.5"/><path id="path217" fill="none" stroke-linecap="round" d="M-29.9 89.4s1.4.3 2.1.8c.7.5 2.5 2 3.6 2.5 1.2.4 2 1.7 2.6 2m-9.2-7.1 9 6.7m-6.7-5.9c1.4.3 1.8 1.2 2.8 1.7a12 12 0 0 1 3.4 3.4m-6.8-6.1s1.2-.2 2 .3a11.7 11.7 0 0 1 4.6 4.6M19.6 104c-2.4.3-5.8 2.3-5.8 2.3M21 103c-2.8 0-4.5.8-4.5.8m7-1.8s-4-.2-6.4 1m8.2-3c-2.3 0-5.4.2-7 1.3m8.3-1.3a21 21 0 0 0-7.7.2M29.1 99c-3.8-.8-4-.8-9.6.7m11-1.7c-6.8-1.5-7.6-.7-10.2 0m8.8-2c-5.9 0-4.7-.3-8 .7m8.3-.7c-4.5-.9-5-1.8-7.6-.5m8.8-.5c-3.7-2-4.6-1.6-8-.8m10.2.6c-6-2.3-5.4-3.1-9.4-1.8"/><path id="path218" fill="none" stroke-linecap="round" d="M35 94c-2.5-1-3.8-1.1-5.5-1.2l-6.2.2m12.5-8.4-5.5 1.3m4.1-.1s-4.3.6-8.3 2.2m8.3-.9s-.6-.8-2.6-.6c-2 .2-5 1.4-6.7 2.4m9.9-.5c-1.8-1.2-3.3-.6-3.3-.6l-7.5 3"/><path id="path219" fill="none" stroke-linecap="round" d="M34 89.8a5.2 5.2 0 0 0-3.6-.5c-1.4.2-6.4 2.3-6.4 2.3"/><path id="path220" fill="none" stroke-linecap="round" d="M34.3 91.2c-1.4-1.5-3.5-.6-5.3-.4a13 13 0 0 0-5 1.3m10.7.3s-2-1-3.5-.8l-7.3.6m.8-2.5c6.7-2.8 8.3-3.4 9.5-3"/><g id="listel_esquerdo" fill="#ed1c24" display="inline"><path id="path221" d="M-79.5 96.5c-11-22.9-31.7-18-38.5-24.3-11.4-9.2.1-21.1-12.6-25.2 6.3 8.8-6.8 20 6.3 30.7-19.7-5.6-4.6-14.1-16.2-20.4 2.5 5-2.2 12.6.8 19.2 3.2 6.2 8.2 9.3 14 12.2 5.8 2.8 15.7 1.5 25.2 9.7z" transform="translate(0 -5)"/><path id="path222" d="M0 112c-6 0-21.4 2.7-30.5.5-3.9-1.2-14.2-5.5-18-7C-61.8 100.3-70.8 96-85 96c-15.3 0-34.4 6.7-36 16 6 8.4 5.7 7.6 6.4 19.5 7.5 11.8 32 2.6 35.1-15 10.9 2 20.3 6.3 29.5 9.5 6 2 12.9 4.6 20 4.5 9.3-.3 23.5-2.7 30-4.5" transform="translate(0 -5)"/><g id="g225" fill="none"><path id="path223" d="M-77.5 116.5a37.2 37.2 0 0 0-18 1c-5.4 1.6-14.8 4.2-15 11 0 1.1.2 7 10.7 5.3m-1.1-1.3c-7.3 1.8-9.1-1.9-9.1-1.9m8.1.9c-6.1 1.9-7.9-1.4-7.9-1.4m5.9.4c-7 1.6-6.6-2.3-6.6-2.3" transform="translate(-2 -5)"/><path id="path224" stroke-width=".8" d="M-107 124a3.6 3.6 0 0 1-5.2-1.4m4.2.4c-3 1.3-4-1.2-4-1.2"/><path id="path225" stroke-width=".5" d="M-109 122c-2 .6-2.8-1-2.8-1m2.5 0c-1.8.6-2.2-.8-2.2-.8"/></g></g><use xlink:href="#listel_esquerdo" id="use225" transform="scale(-1 1)"/><g id="moto" fill="#fff" transform="translate(0 -5)"><use xlink:href="#D" id="use226" transform="rotate(15 -447 -200)"/><use xlink:href="#E" id="use227" transform="rotate(-30 153 261)"/><use xlink:href="#E" id="use228" transform="rotate(8 -883 -131)"/><use xlink:href="#D" id="use229" transform="rotate(15 -471 -84.8)"/><use xlink:href="#S" id="use230" transform="rotate(-20 256 334)"/><use xlink:href="#S" id="use231" transform="rotate(1.4 -4957 737)"/><use xlink:href="#T" id="use232" transform="rotate(-5 1169 1072)"/><use xlink:href="#T" id="use233" transform="rotate(.9 -7736 1788)"/><use xlink:href="#A" id="use234" transform="rotate(5 -1256 -850)"/><use xlink:href="#A" id="use235" transform="rotate(-8.9 794 -171)"/><use xlink:href="#A" id="use236" transform="rotate(-20.5 342 -103)"/><use xlink:href="#A" id="use237" transform="rotate(-18.7 363 -172)"/><use xlink:href="#A" id="use238" transform="rotate(35 -124 234)"/><use xlink:href="#O" id="use239" transform="rotate(20 -349 -102)"/><use xlink:href="#." id="use240" transform="translate(43.7 120)"/><use xlink:href="#N" id="use241" transform="rotate(20 -258 345)"/><use xlink:href="#C" id="use242" transform="rotate(-20.9 339 -76)"/><use xlink:href="#T" id="use243" transform="rotate(-20.9 332 -123)"/><use xlink:href="#I" id="use244" transform="rotate(11.5 -478 521)"/><use xlink:href="#R" id="use245" transform="rotate(-4.4 1410 -1055)"/></g><g id="no"><path id="path245" fill="#ed1c24" d="M-1.3 101c-4.9 0-8.5 3.6-8.8 8.7a20.7 20.7 0 0 0 4.6 14.8A7.7 7.7 0 0 0 8 122c1.5-5 .5-11.5.2-14.2-.5-4.1-4.7-6.8-9.5-6.7z"/><path id="path246" fill="#ed1c24" d="M7.7 109c-.5 4.5-3.5 6.7-8.4 7.5-4.8.8-9.4-3.1-9.4-7.5 0-4.5 3.9-8.5 8.5-8.5 4.8 0 9.5 3.4 9.3 8.5z"/><path id="path247" fill="none" stroke-linecap="round" d="M1.7 105c1.4-2.3 1.2-2.7.1-3.9m.7 4.9c1.3-1.6 1.6-2.4 1.3-4m-.9 5c1.1-1.3 1.8-2.2 1.8-4.3M3.1 108c1.6-1.4 2.4-2.7 2.5-4.5m-2 10.5c4.7-3.5 3.9-7 3.9-7m-4 5c3.4-2.8 3.8-5.9 3.8-5.9M3.5 110c1.6-1 3-2.7 3.4-5.1M3.4 109c2-1.4 2.9-4.5 2.9-4.5m0 10.5c1.9-.4 2.1-2 2.3-3.3m-3 5c1.8-.8 2.9-.7 3.2-2.5M5.4 118c1.9-.7 2.7-1 3.4-2m-3.9 3s3.4-.6 3.9-2m-4.3 3.5s3.1-.8 4.1-1.8m-4.2 3.1s2.2.2 3.8-1.1M4 123s3-.2 3.9-1.1M3.4 124s2.4.2 3.7-.8m-4.8 2.6s2.7 0 3.6-.8"/></g></g><g id="estrela"><path id="path248" fill="#fff" stroke="#231f20" stroke-linecap="round" d="m0-142.5 25.6 78.8h82.8l-67 48.6L67 63.6 0 15l-67 48.6L-41.4-15l-67-48.6h82.8z"/><path id="path249" fill="none" stroke="#231f20" d="M-24.2-61.8h-78.3l63.4 46-24.3 74.5L0 12.7l63.4 46L39-15.8l63.4-46H24.1L0-136.3z"/><path id="path250" fill="#231f20" d="M-108.3-64.2h-1.5v5.2l67 48.6 1.5-5.2zm216.6 0h1.5v5.2l-67 48.6-1.5-5.2z"/><path id="path251" fill="#231f20" d="m67 63.7.9 1.3 3.4-4.6-25.6-78.7-4.3 3.3zm-134 0-.9 1.3 5.4 1.8 67-48.6-4.5-3zM0-142.5v-1.5l5.4 1.7L31-63.6l-5.4-.1z"/></g><g id="ancora_chave"><path id="path252" fill="#fff200" d="M-31.7-21.3c2.4 2.4-3.1 9.2-8.3 4.8z"/><path id="path253" fill="#231f20" d="m-40.2-16.9.4.8v-.8l.5.4.5.3.5.2.4.2.4.1.5.1h1.6l.4-.2h.4l.3-.3.4-.2.3-.2.3-.2.3-.3.3-.3.2-.2.3-.3.1-.3.2-.4.1-.3.1-.3.1-.3v-1l-.1-.2-.1-.2-.2-.2.6-.7.3.3.2.4.1.3.1.4v1.5l-.2.4-.2.3-.2.4-.2.4-.3.3-.2.4-.3.3-.4.3-.3.3-.4.2-.4.3-.5.2-.4.1-.5.1-.4.1h-2.1l-.5-.2-.5-.2-.6-.3-.5-.4-.5-.4zm.5 0-.6.7h-.1v-.6h.1v-.1h.5zm8.3-4.8v.8l-8.4 4.8-.4-.8 8.3-4.8zm0 .8-.5-.8h.1v-.1h.4v.1l.1.1v.6h-.1z"/><path id="path254" fill="#231f20" d="m-19-10.3-12-8.6-.6-2.9 13.8 9.7.7 2.1zm-9-12c5-1.8 4.9-8.3-.3-10.5 4.2 4.6 3 7.5-2.1 9.2.8.5 1.6 1 2.4 1.3"/><path id="path255" fill="#fff200" stroke="#231f20" d="M-40.9-22c-6.4-4 1.1-14.5 7.2-9.1 4.3-6 14 4.4 3.3 7.8l15 10.2-.8 1.9L-31.7-22C-33-11-45-15.9-41-22z"/><path id="path256" fill="#fff" d="m-37-23.6-2.7-2 2.2-3.7 4 2.5 4-3 1.3 1.3-.8 2.3-5.4 1 .3 3.5-1.3 2.2-2 .8-1.4-1.5z"/><path id="path257" fill="#fff200" stroke="#231f20" d="M-34.2 19.8-1.5 1.6-4-.1l-27.8 15-4.9 4.1zm28.6-21 23.9-14.3 2.3.4L-4-.1zM42 13l1.3 1.3-6.5 9.2-1.3-1.5z"/><path id="path258" fill="#fff200" stroke="#231f20" d="M34.8 22.7 42 13l-4-2.7-3.3 4.4c-1.3.4-1.3.4-1.3-1l3-4.5-4.2-2.8L29 11c-1 .6-2-.3-1.5-1.1l3.2-4.5L27.2 3l-7 9.5zM-3.9-.1l22.6-14c-.6 1.4.7 2-1.7 4.3L-1.5 1.6z"/><path id="path259" fill="#fff200" stroke="#231f20" d="m-12.8-10.7 49.6 34.8-1.3 3.7-54.3-38.5z"/><path id="path260" fill="#fff200" stroke="#231f20" d="M35.6 28c-.7-.3-.6-1.5-.2-2.5.4-1 1-1.4 1.8-1 .7.3.8 1 .4 2.1-.4 1-1.2 1.7-2 1.4z"/><path id="path261" fill="#fff200" stroke="#231f20" stroke-miterlimit="22.9" d="M27.4-35.8a86 86 0 0 1 11.1 26l1.1 5.3c-1 1-2.1 1.8-4.6 1.6a88 88 0 0 1-6.5-10.3l-3-7.3c-1.5-4.2-3.2-8.7-4-14z"/><path id="path262" fill="#fff200" stroke="#231f20" d="m23.6-12.1 4.1-.4 4.1-2.5-2-5-4.7 3.5-2.7.5-3 2.2zm.8-24.6c1.6-.4 2.8-.1 2.8.6s-1.2 1.6-2.8 2c-1.6.3-3 0-3-.7s1.4-1.5 3-1.9"/><path id="path263" fill="#fff200" stroke="#231f20" stroke-linejoin="round" d="M20-14.4a9 9 0 0 1 5-2.2l5-3.4-4.3-.3-7.7 5z"/><path id="path264" fill="#231f20" d="M-38.9 16c.1-2.5 3.9-4.3 5.9-6.6 3.3 3 6 .3 8.5-2-2.4 1.6-4.6 4-8.8.3-3.9 2.4-10.8 9.8-5.6 8.3m5.2 3.6 2.6-4.4 4.8-2.8-3.2 4.8zm8.4-4.7 3.5-5 6.6-3.4-3.9 4.9zM-14 8l3.5-4.2 5.3-3-3.1 4zM5.2-2.6l2.6-4.3 7.2-4.4-3 4.6z"/><path id="path265" fill="#fff200" stroke="#231f20" d="M-2.6 9.5c-3.9 9.4-13.6 14-17.3 12A52.2 52.2 0 0 1-48 27l-.7-1.2 25.7-5.5z"/><path id="path266" fill="#fff200" stroke="#231f20" d="M-26.6-1.4c-5.9 1.2-6.6 3.1-7.8 8.4-9.3 4.7-14.8 15.3-14.4 18.2 11.3 2 33-5.6 46-16.3-6.8-.4-20 2.2-18.9 8.8-3.7 2.5-11.7 3.6-14.9 1.8C-33.4 14.9-13.3 6.3-3.9-.1l-1.7-1.2-26.7 14.8c-2 1.3-7.5 4-8.1 2.6.1-3.5 5.4-7.2 7.4-8.4 7.3 6.6 12.3-6.4 14.6-9.3-2.7 0-5.4-.3-8 .2z"/><path id="path267" fill="#231f20" d="m-33.7-26.3 1.4-.2c4-4.8 5.8.6-1.4.8v.9c10.4.8 5.3-10.6 0-3.8zm-3 2.4c-4.4-1.5.2-6.9 2.7-2.3h.3v-2.4a11.6 11.6 0 0 0-.6.9C-38-35-45-24.1-37.6-23.5c-6.7 5.2 5.5 9.2 3.6-1.3h.3v-.9h-1c1.4 8.2-6.2 7-1.6 3.9.2-.5.6-1.2-.4-2.1"/><path id="path268" fill="none" stroke="#231f20" d="m25-12.2.3-4.1s-2.6 2-2.3 3.7m-39.3 34.4A39.8 39.8 0 0 0-4.1 11.2m-13.4 10.7A55 55 0 0 0-4.6 10.8"/><path id="path269" fill="#231f20" d="m-25.2 23.2 18.5-11-11.4 9.4-2.1-.3zm-24 2.4c.8.4 6.4.5 9.7 0l-2.1 1.4h-6.5z"/><path id="path270" fill="#231f20" d="M-38.2 25.1c.8.4 4.8-1 8.1-1.6-1.6 1-2.4.7-3.6 2.3-2.7.4-5.3 1.3-8 1.2 2.1-.4 2.5-1.1 3.5-1.9"/><path id="path271" fill="#231f20" d="M-33.7 25.8c3.5-1.6 3-1.7 4.6-2.6l5.7-2c-.9.7-2 2.1-2.9 3-2.6.7-4.8.9-7.4 1.6"/><path id="path272" fill="#fff200" stroke="#231f20" d="m36.3 9.4 1.4 1.4-2.9 4c-.7.7-2.3-.5-1.5-1.3z"/><path id="path273" stroke="#231f20" d="m27.7-12.5-2.4-3.8"/><path id="path274" stroke="#231f20" stroke-linecap="round" d="M25.6-34.2s9.2 19.6 10.1 24.8"/><path id="path275" fill="#fff200" stroke="#231f20" d="m31.8 6.7-1.3-1.2-3 4.3 1.5 1.1z"/><path id="path276" fill="#231f20" stroke="#231f20" d="m27.8-13 1.8-6.5.8 5z"/><path id="path277" fill="#fff200" stroke="#231f20" d="M33.7-25.2c.8-1.2 1.8-2 2.8-2 5-1 4.8 3.4 3.9 4.6l-4 4.9z"/><path id="path278" fill="#231f20" stroke="#231f20" d="m34.6-23 4.1-2.5-1.6 6.8-1 .7z"/><path id="path279" fill="#fff200" stroke="#231f20" d="M43.3-26.2c0-2-1.3-3.7-3-3.7-1.3 0-2.4 1.2-3 3-.3.7-.3 1.2-.6 1.5-.5.3-1.2.6-1.7.4-.5-.3-.8-1-.8-1.6a6.4 6.4 0 0 1 6.3-6.8c3.6 0 6.4 3.2 6.4 7.1 0 4-2.8 7.1-6.4 7.1-.6 0-2-.4-2.5-.5 1-1 1-1.4 2-2.3 1.4-.3 3.3-2.3 3.3-4.2z"/><path id="path280" fill="none" stroke="#231f20" stroke-linecap="round" d="M26.7-34.9c3.8 6.1 11 23.9 12 31"/><path id="path281" stroke="#231f20" d="m-35.5 20 .7-2.3"/></g><g id="aguia"><path id="path282" fill="#b87619" stroke="#231f20" d="M19-54c1 3.5.6 6.1 0 8.1.4 2 1.6 2 2.4 2.9 1.1-4.2 3.6-4 3.6-12.6a20 20 0 0 1-1.3 8c.6 2 2 2.7 2.8 3.6 1.1-4.1 4.4-2.4 4-14.5 0 3.4-.1 5.7-.5 7.6 1.1 2.5 1.8 3.5 3.4 4.5.5-5.7 3.3-6.4 1.4-17 1.5 4.4.2 10.7 4.5 13.4 3-8 3.3-8.6-.2-16.4 2.6 7.6 5.5 6.8 8.4 9.4-.7-2 2.3-5.1-4.6-13.7 3.8 5.5 5.5 7.7 9.3 8.9 1.4-5.8.2-8-3.3-12.8 5.8 6.8 14.2 9.1 17.7 6l-15.4-10c11 6.4 18.6 9.3 22.6 8.3a114 114 0 0 0-18.5-11.3c7.7 5 27.5 12.5 30.4 8.1-8-3-12.7-5.7-19.3-8.5 9.1 2 17 8.9 29.9 4.5-5.7-4.6-4.8-4.6-14.2-7.2 9.3 2.5 18.6 4 29.1 1.4-1.1-1-1.6-1.8-4-2-28.3-.8-22.4-4.4-31.3-5 4.7.4 6.4 2.2 10.2 3 1.5.3 3 .7 6.8 1 3.7.4 6 .7 8.5.8h5.4c2.8 0 5.6-.6 8.2-1.2a16 16 0 0 0 7.2-3c1-.8 1.3-1.4 1-1.6-.6-.9-1.8-.7-2.8-.7-5 .3-10.1 1.4-15.3 1.3-8.2.2-17.3-.3-25-1.1-7-.8-13.9-1.1-20.8-1.3 0 0-17-.2-19.8 0a18 18 0 0 0-12.4 5.6c-1.6 1.9-2.8 3.2-2.9 7 0 3.7 0 5.4-1.6 6.8-.8.8-2 .9-3 1-2.4.6-3.8-.1-6-1.1-8.9-3.9-11-7.5-30.2 2.2 0 0-6.2 1.1-7-3.6-.3-1.3 1-2 1-3.8.1-1.8-2.8-7-4.5-8.4-6-4.8-14.4-5.1-19.1-5.7-9.4-1-16.6 1.5-27.7 2.4l-14.2.8c-12 .8-25.1-2-36.2-1-.1 1.6 6.7 4.2 18.8 6.6 12-.7 16.9-.8 25.7-2.9-8.8 2.2-13.5 2.3-19.3 2.5-9.2 0-6.5 1.4-11.3 2.4 3.5 4 15.5 3.1 40.6-1.3L-84.4-81c-6.3 1.6-14 2.8-15.3 5.5 8 2.3 22.4-1.6 33.3-5-7.2 3.5-14.5 4.4-21.5 8.4 7.6 4.6 18.7-2.4 38-9.6-8.6 4-23 11-25.5 12.6 3.8 3.6 14.5-.2 28.2-7.2-5.9 4.8-14.6 7.4-16.4 8.8 4.8 1.8 13 0 18.1-5-4.3 4.3-6.4 5.5-6.5 12.6 1.9-.6 4.6.2 5.9-1.8 1.4-4.4 3.2-6.3 5.7-9.6-4 4.8-7.4 9.2-5 17.3 1.6-1.1 4.1-1.2 4.9-3.6.4-3.8 2.2-6 4.6-10.5-3.9 7.3-6.6 9.2-3 18.2 1.4-1.2 3-1.9 4.3-3.9 0-3.5 1.7-7.7 2.8-9.9-1.8 3.7-4.4 11-.7 16.3l3.2-3c-.3-2.4.5-6 1.7-9.7-2.7 8.1-1.2 12.3.5 15.8.9-.7 1.6-1.6 2.7-2.2a22 22 0 0 1 2-11.4c-1.6 2.8-3.6 11.2-.1 15.7l3.8-3c-.5-3-1.9-5.2.5-10.9A14 14 0 0 0-17-42.4c-1 3-.3 2.8 0 4.3.5-.7 1.7-1.7 2.7-2.6-6.7 5.3-.4 11.2-.5 16.8.5-2.7 2-4.2 1.5-8.5v4.8c.7 2.4 2.2 2 2.4 7.2 1-2.1 4.2-5.9 1.6-11.4 2.4 4.5 1 6.1 2.1 9.1.5-1.6 1.6-5.6-.4-10.2 1.2 3 1.6 5.6 2 9.2.9-1.6 1.8-1.9 2.6-5.2 0-6-2.3-7-3.3-10.8 1.1 4.2 3.7 5 3.4 12.5 1.6-3 2.3-3.4 3-8.8.3 4 2.7 4.2 3.6 6.6 0-7.2.8-5.8 1-10.2.2 2.7-1.3 5.1-.8 8.2-.1 2.4 2.7 5.3 3.3 7.6.2-3.3.5-6 .4-8.7.8 1.2-.2 2.6-.1 4-.2 2.5 2.7 4.8 3.3 7 .2-3.2.3.3-.3-3.8.5 5.4 2.3 5.2 2.9 7.5-.6-4.5 1.8-7.2 1.5-12.4-.3 2.1 1.3 6.5 2 8.8.1-3.3 3.2-8 .6-13.9-1.4-1.7-3.1-2-4.2-5.4 2 4.7 3.7 3.2 5.8 7.8-.8-3.7.3-7-1.7-10.2A12 12 0 0 0 18.9-54z"/><path id="path283" fill="none" stroke="#231f20" d="M41.1-88.3c5 2.7 9.7 2.1 9.7 2.1l4.6-.8s-3.9-2.8-5.5-3.1"/><path id="path284" fill="#b87619" stroke="#231f20" d="M.2-71.1c-.9 1-.5 1.7-2.6 3 0-.8-.3-1 .2-2.3l1.6-6.8zm4.9-1.5c.5 1.4 3 3 3.3 4.3-2.3-.6-4.7 0-5.7-3.6l.8-6zm2.7-3.1c4.1 2.8 2.6 3.7 5.2 5.8-1.8-.8-3.8-.2-5.2-2.3l-2.2-4.2z"/><path id="path285" fill="#b87619" stroke="#231f20" d="M12-80.4c-.8 3.7 3 5.2 5.6 5.8-4.4 3.3-8.3-1-9.8-2.5 1.5 2.6-.1 4 1.2 7-4-2.4-3-3.1-4.6-4.9-.8 1.7-.3 3.6-2.3 5.1-1.7-1.3-1.4-2.5-2-3.8-1 2-.7 3.8-5 4.8 0-2.6.4-3.8 1-5-2.1 1-6.3 5.5-10.2 2 1-.9 4.4-2.8 6.4-4-1-.3-2.3.3-3.5-.1 2.8-2.7 4-1.9 5.2-4.1a6 6 0 0 0 .7-4.5l.7-1.5 1.4-.4-1.7-4.2h-.3l-2.4-3 6.1-2L9-90.4l.6 1.5.7 1.5.7 2.6.8 2-1.7-.1z"/><path id="path286" fill="none" stroke="#231f20" d="M10.6-83s.3 1.4.7 1.7c.4.3.7.6.6 1.1l-.4 2.2s-1.3-1.2-2.3-1.5c-1-.2-2.3-3.5-2.4-4.5l-1.5 9.1s-2.5-2.9-3-4.1L.7-74.6s-3-2-2.4-4.7"/><path id="path287" fill="#f68712" stroke="#231f20" d="M-5.7-96.7c-1.5 0-2.5 0-2.7 1.4l2.2 2.5c2.5.5 1.4.9 3.2-.8-3-.2-3.5-2.7-2.7-3.1"/><path id="path288" fill="#f68712" stroke="#231f20" d="M-11.8-89.5c2.4 1.3 4.5.1 7.7 2.6.4-1.4-2-3.9-3.2-3.9-.6-.3-1.5 0-2.8-1.8-1.6-1.4-3.7 2-3.3 1 .9-1.8 1.3-4.3 4.6-4.1 1.6 1.6.7 1.7 3.5 3.6 1 1.4 2.2 2.6 2.7 4.3.2.8-.3 2-.8 2.5-1.4-1-1.5.8-2 .5-2-2.4-5.1-2-6.4-4.7z"/><path id="path289" fill="#f68712" stroke="#231f20" stroke-width=".5" d="M-5.8-88.2c-1.3-3-2.9-1.6-5-2.3 1.3 1.3 3.7 1.3 3.6 2z"/><path id="path290" fill="#b87619" stroke="#231f20" d="M-5.8-96.8c-.8.9.1 2.5 2 3.2 3.5-.3 5.6.6 11.6 4.1 1.2.7 1.8.5 2.7.2 1.4-.4 1.3-1.6 2-2.4-.8 0-1.6.2-2.3-.1-1.5-.7-2.7-2.2-4.2-2.8A38.5 38.5 0 0 0-2-97c-1.3-.3-1.6-.7-3.8.1"/><path id="path291" fill="#fff" stroke="#231f20" d="M.8-93.3c1.6.4 2.7 1.4 2.5 2.3-.3.9-1.7 1.3-3.3 1-1.6-.4-2.7-1.5-2.5-2.4.2-.9 1.7-1.3 3.3-.9"/><path id="path292" fill="#231f20" d="M1-93.3c1.3.3 2.1 1.1 2 1.8-.2.7-1.3 1-2.5.7-1.3-.3-2.1-1-2-1.8.2-.7 1.3-1 2.5-.7"/><path id="path293" fill="none" stroke="#231f20" d="M9.7-39.6c.2 2.8-1.7 8.1-1.7 8.1l-1.6-3.8c-.3-.4-1.7-3.5-1.7-5.3m11-20.5c-.1 1 1.8 4 1.8 4l1.8-3.5c.1-.4.6-1.1.5-2s-.9-2-.9-2M-15-52.8s-2.4-2-2.6-3.4c-.1-1.4.1-4.6.1-4.6"/><path id="path294" fill="#f68712" stroke="#231f20" d="m-11.7-11-2.2-1.4.5 2.2v3c-.1 1.4-1.5 2.1-4 .1 0 1.2-2.3 1.5-4.1-1.8-1.8 2-4.2-3.8-1.9-1.3-2.5-1.5-.6-4-.1-4.4 1-1.6 3.9-1.7 5.8-2.5 3.5-2.2 2-3.8 3-5.7l1.3-3c.9 1.4 2 2.4 1.7 4.2-4.4 9 .7 8 0 10.6z"/><path id="path295" fill="none" stroke="#231f20" d="M61.5-90.2s7.2 3.7 9.6 4a16 16 0 0 0 7.6-1.1"/><path id="path296" fill="none" stroke="#231f20" d="M49.8-90s6 2.8 8.6 3c2.7.4 8 .6 8 .6s-2.3-3.1-4.9-3.8m-27.5 3s4.6-2.2 6.7-1.4c2 .9 6 3.7 5 3.6a22 22 0 0 0-6.9 1.7c-1 .3-3-.2-3-.2M66.6-82s6.4.7 8 .7c1 0 5-.7 5.4-.7 1.4-.2 4.2 0 3.8-.2-1.7-.6-5.2-3.6-8.7-4.1 1.8.4 7.4 1.7 9.3 1.8 2 .2 10.2-.1 9.5-.1-.6 0-3.5-2-3.5-2"/><path id="path297" fill="none" stroke="#231f20" d="M57-87.2c6.7 1.5 11.4 7 11.4 7s-7-1.1-10-1.3c-3 0-13-4-13-4m-25 16.6s3.6 3.3 3.8 4.5c.2 1.2 0 3.2-.2 4-1.1-1-2.3-2.4-3.2-2.8-.8-.4-3-2.2-3-2.2"/><path id="path298" fill="none" stroke="#231f20" d="M19.6-70.4c1.8 1.7.7 5.6.4 6.9 0 0-2.4-1.3-3-2.4"/><path id="path299" fill="none" stroke="#231f20" stroke-linecap="round" d="M15.3-60.1s-.4 3.7.7 5c1 1.3 2.3 2.3 2.1 2.8.9-2.8 3.6-4.2 4.2-7.4.8 1.8 2.7 3.7 3 4.5.5-1.4 2-4 2.1-6.1 0-2-1-4.7-1-4.7"/><path id="path300" fill="none" stroke="#231f20" d="M-13.9-42.8c-.6 2.7-.7 5.6-.5 6.9a19 19 0 0 0 2 5c.6 1 1.6 3.4 1.7 4.2.6-2.1 1.3-5.3 2-6.5m-5.8-29.2s-1.2 1.1-2.2 1.3h-1.4s-.8-2.2.6-4m44.2-.9s1.2 4.8 1.8 5.5c.6.6 1.6 1.7 2 3 .4-1.4 2-5.9 1.9-7.2 0-1.2-1-4-3.3-6"/><path id="path301" fill="none" stroke="#231f20" d="M30.6-70.6s.2 2.9 2 4.7l2.5 2.7s1.3-2.1 1.4-3.6c0-1.5-2-4.4-2-4.4s1.8 3.5 2.7 4.3c.9.8 1.9 1.3 1.9 1.3s1.2-2.6.9-4.3c-.3-1.6-1.7-3.7-1.7-3.7l-2.6-3s4.5 4.9 5.9 5.3l3 1.4s0-4.4-1.3-5.9-2.7-3-5.7-4.8l7.4 4.4s3.3 1.8 5.5 1.5c0 0-.3-2.3-1.5-4.3M9.5-88.9c1.3 1.9.8 3.1 1.4 4.6l.8 1.5s-1 0-2-.6a10 10 0 0 1-2-2.2L8-83l-1.5-1.4c-.5-.7-1-2.4-1-2.4s-.9 1.2-1 1.9c-.3.7-.1 2-.1 2S3-84 2.5-84.7c-.6-.8-1.2-2.7-1.2-2.7M-66-89.1c-5.7-.1-13.8 1.5-13.8 1.5s-5 .8-7 .9a11 11 0 0 1-7-2.6c4.4-.6 21.6-1.5 21.6-1.5m19-.8c-4 0-4.6 0-7 .4-2.3.4-5.8 2-5.8 2s2.8 1.9 6.6 2A27 27 0 0 0-50-89c2.2-.7 8-1.8 10.4-1.3m-38.3 3.7-1.9 1.2s3.7 1.9 7.7 1.8c4 0 12.4-.8 14.8-1.8"/><path id="path302" fill="none" stroke="#231f20" d="M-50.5-88.7s-4.3 1.4-6.4 3c1.3 1.3 5.6.8 8.4.6 2.3-.2 6.6-1.7 6.6-1.7s5-1.7 6.4-1.5m-2.7 4.3-3 1.9s2.3.3 4.2 1c2 .8 6.3-1.7 6.3-1.7"/><path id="path303" fill="none" stroke="#231f20" d="M-28-78.3s-3.5 1.3-5.1 1.1c-1.7-.2-4-3-4-3l2.9-1"/><path id="path304" fill="none" stroke="#231f20" d="M-27-75s-3.6 1.4-5 1.3c-1.4-.1-3.2-2.5-3.2-2.5l4.4-1.2m5.8 7.2s-1.6 1.5-2.7 1.6c-1.2 0-3.8-1.9-3.8-1.9l1.6-1m13 5.6c-2 1.2-3.4 2.3-6 2.5 0 0-.6-2.6 1.8-5.6"/><path id="path305" fill="none" stroke="#231f20" d="M-17.5-61s-.3 3.7-1 4.5c-.6.9-1.1.9-2.3 2.6-.6-1.2-1.9-2.8-1.7-5 .2-2.1 1.4-3.6 1.4-4.8"/><path id="path306" fill="none" stroke="#231f20" d="M-22.1-60.6s-.7 2.4-1.7 3.4-1.2.8-2 1.8a5.6 5.6 0 0 1-1.7-5 14 14 0 0 1 3.6-6.1"/><path id="path307" fill="none" stroke="#231f20" d="M-28.4-67.4s-2.5 1.3-3 2.4a5.8 5.8 0 0 0-.4 2.7c0 .8.5 2.3.5 2.3a8.8 8.8 0 0 0 5.1-3.5"/><path id="path308" fill="none" stroke="#231f20" d="m-31.8-63.8-3.7.8c0-1-.4-3.7.4-4.8.9-1.1 4.2-2.3 4.2-2.3"/><path id="path309" fill="none" stroke="#231f20" d="M-34.5-68.4s-1.8.5-3.1.1-2-.2-2-.2 1-2.6 1.8-2.9l3.8-1.4"/><path id="path310" fill="none" stroke="#231f20" d="M-32.6-77.1c-5.8.7-12.9 4.6-12.9 4.6s3.9 1.2 5.1 1.1c1.3 0 4.3-.2 5.8-1.2"/><path id="path311" fill="none" stroke="#231f20" d="m-37.2-80.7-11 4.7s3.6 1.8 6.4 1.7m-5.2-9-4.8 2.5-4.7 3.7s6 1.4 9.2.7m-9-9c-4.4.5-10.3 4.5-11 5 0 0 4.5 1.3 8.6.7 4-.6 6.8-1.2 8-1.9m64 41.4c2 4.2 2.7 5 2.1 7.6-.4 1.6-.6 3.6-1.6 4.9 0-1.4-1.7-5.3-1.9-6-.2-.8-2-4.9-2-6.3"/><path id="path312" fill="none" stroke="#231f20" d="M8.5-33c-.7 2.6 2.5 8.5 2.5 8.5s1.5-6.6 1-8.8"/><path id="path313" fill="#f68712" stroke="#231f20" d="M16.7-22.1c.2.9.3 2 .6 2.8.2.7.4 1.4 1 1.8 1 .8 2.5 1 3.7 1.5 1 .4 2.2.6 3 1a5 5 0 0 1 1.5 1.4c.3.6.5 1.4.4 2-.1.6-.6 1.8-1.1 2.1-.5.3-1 .8-1.7.8-.5 2.3-2.6 4.6-5.1 2.8A3.2 3.2 0 0 1 14-7c4.3-1.8 1.2-3.7 1.6-6.8L12-11.1l-.1-.5c-.2-2 1.7-1.8 2.5-2.7 1-1.5.4-2 .2-2.8-.3-1.1-.9-2.1-1-3.2 0-1.4.4-2 1-3.2l.5-3.2z"/><path id="path314" fill="none" stroke="#231f20" d="M-6.3-39.6c.2 2.8-1.7 8.1-1.7 8.1l-1.6-3.8c-.3-.4-1.7-3.5-1.7-5.3m7.4 7a12.4 12.4 0 0 0-1.7 10c2.1-2 2.7-5 2.7-5"/><path id="path315" fill="none" stroke="#231f20" stroke-linecap="round" d="M-18-17c-5.8 3.8-3.2 6.7-3.2 6.7s1 1.8 3.6.8"/><path id="path316" fill="none" stroke="#231f20" stroke-linecap="round" d="M-16.5-13.3s-2.1 5-.6 6.5c1.5 1.6 3-.6 3-.6s1.6-1.3.2-5"/><path id="path317" fill="none" stroke="#231f20" d="m-21.9-11-1.8.6M18-13.5c4.7 6.2.5 9.2-3 6m4.2-7.3c7.5 2.2 3.5 11.2.6 7.6m51-83c3 0 6.1 2.6 7.9 3 1.9.4 2.6 1 7-.2m-55 4c3.7-2.6 8.5 2.3 8.5 2.3-2.5 1.1-5.3.6-8.4 0"/><path id="path318" fill="none" stroke="#231f20" d="M28.6-77.2s4.5 1.5 6.4.9c1.9-.7 2.6-.6 2.6-.6s-.6-2.4-1.8-3c-1.2-.6-5-1.1-5-1.1"/><path id="path319" fill="none" stroke="#231f20" d="M28.7-77.1s2.7 1 4 2c1.3 1 1.8 3.9 1.8 3.9l-4.2.7c-1.7.2-5.5-1.6-5.5-1.6s3.1 1 3.7 2.7c.6 1.7 1 3.7.8 4.6-.6-.5-1.8-1.3-2.9-1.2-1.1 0-2-.1-2.9-.6-.8-.4-3-2.3-3-2.3m19.3-14.7s7 4.1 8.6 4.3l6 1.3c1.5 0 3.6.8 3.6.8s-.9-2.6-3.8-5.2m-128.7-6s-2.1-.1-5 1.6a48.3 48.3 0 0 0 25.6-.6m10.2 1.2s-2.6 1.4-3.3 3c2.6-.2 3.7.2 5.6 0 3-.6 4.8-1.2 8.4-3m5.9 14s-1.9 1-3.7.7c-1.8-.4-3-1.4-3-1.4l2.7-.9M-21-69s-1.7 2.3-3.2 2.7c-1.5.4-4.5-1-5.4-1.7l2.8-.8"/><path id="path320" fill="#fff" stroke="#231f20" d="M-11.9-40.2c-3-.6-7-3.5-5.7-8.9 1.5-6.4 4.5-10.4-.5-15.7l6.2-5.6c4.9 3 7.3 3.7 11.9 0 4.6 3.7 7 3 11.9 0l6.2 5.6c-5 5.3-2 9.3-.5 15.7 1.2 5.4-2.7 8.3-5.7 8.9-3 .6-9.9-1.5-11.9 4.5-2-6-8.9-3.9-11.9-4.5z"/><path id="path321" fill="#fff" stroke="#231f20" d="M-10.2-42.3a6 6 0 0 1-4.7-7.5c1.2-5.3 4.3-10.2.1-14.7l3.5-3.1c4 2.4 6.6 2.3 11.3-.3 4.7 2.6 7.2 2.7 11.3.3l3.5 3.1c-4.2 4.5-1.1 9.4.1 14.7 1 4.5-2.2 7-4.7 7.5S1.8-43 0-39.3c-1.8-3.7-7.7-2.5-10.2-3z"/><path id="path322" fill="#231f20" d="M-3.7-58.2h-.5V-62a2 2 0 0 1-.7.7v-.9c.2 0 .3-.2.5-.5a2.4 2.4 0 0 0 .3-.8h.4zm.7-4.2v-1h1.7v.8l-.4 1.1a11.5 11.5 0 0 0-.4 3.3h-.5a12.8 12.8 0 0 1 .8-4.2zm4.3-1h.4l.3.5c.2.2.2.5.3.9a7.4 7.4 0 0 1-.2 3.2 1.1 1.1 0 0 1-.4.4.8.8 0 0 1-.4.2v-.9a.6.6 0 0 0 .2 0 .6.6 0 0 0 .2-.3v-.5l.1-1a6.4 6.4 0 0 0 0-.8 1.6 1.6 0 0 0-.2-.6.5.5 0 0 0-.2-.2h-.1Zm-1.1 0h1v.9H.8v3.4h.6v.9H.2zm2.6 5.2v-5.3h2v.9H3.4v1.2h1.3v.8H3.4v1.5h1.4v.9zm-13.4 6.5V-57h.5l1 3.5V-57h.6v5.3h-.6l-1-3.5v3.5zm3.8-5.3c.4 0 .7.2 1 .7.2.4.3 1.1.3 2a4 4 0 0 1-.4 2c-.2.4-.5.7-.9.7v-1c.2 0 .4 0 .5-.4.2-.3.2-.7.2-1.4 0-.6 0-1-.2-1.3 0-.3-.3-.5-.5-.5zM-8-54.3l.2-1.5.5-1a.9.9 0 0 1 .6-.2v.9c-.2 0-.4.1-.5.4l-.2 1.4c0 .6 0 1 .2 1.3.1.3.3.5.5.5v.9c-.4 0-.7-.2-.9-.7a5 5 0 0 1-.4-2m3.7 2.6-1-5.3h.6l.7 3.9.6-3.9h.6l-1 5.3zm1.7 0V-57h2v.9H-2v1.2h1.3v.8H-2v1.5h1.4v.9zm2.5 0V-57h.8l.4 3.6.5-3.6h.8v5.3h-.5V-56l-.5 4.2H.8L.3-56v4.2zm4-5.2h.7l.3.5.1.8-.1.7c0 .2-.2.3-.3.4l.4.5.1.8-.1 1-.4.4H4v-.8h.4l.1-.3v-.8a.4.4 0 0 0-.2-.2H4v-1a.3.3 0 0 0 .2-.2 1 1 0 0 0 0-.4v-.4l-.1-.1h-.3zm-1 0h1v.8h-.4v1.2H4v1h-.5v1.3H4v.9H2.8Zm3.7 0 .7.1.3.5.1.8c0 .4 0 .8-.2 1 0 .3-.2.4-.5.5l.3.4.3.9.3 1h-.6l-.4-1.1a9.7 9.7 0 0 0-.3-.8v-1.1H7v-1.1a.4.4 0 0 0 0-.2h-.4zm-1 5.2v-5.2h1v.8H6v1.4h.5v1a.5.5 0 0 0-.1-.1H6v2.1zM9.3-57c.4 0 .7.2 1 .7.2.4.3 1.1.3 2a4 4 0 0 1-.4 2c-.2.4-.5.7-.9.7v-1c.2 0 .4 0 .5-.4.2-.3.2-.7.2-1.4 0-.6 0-1-.2-1.3 0-.3-.3-.5-.5-.5Zm-1.2 2.7.1-1.5.5-1a.9.9 0 0 1 .6-.2v.8c-.2 0-.4.2-.5.5l-.2 1.4c0 .6 0 1 .2 1.3.1.3.3.5.5.5v.9c-.4 0-.7-.2-.9-.7-.2-.5-.3-1.1-.3-2m-14 3.9h.5l.3.5.3.9a7.4 7.4 0 0 1 0 2.4 3 3 0 0 1-.3.8c0 .2-.2.3-.3.4a.9.9 0 0 1-.5.2v-.9a.6.6 0 0 0 .2 0 .5.5 0 0 0 .2-.3l.2-.5v-1a6.4 6.4 0 0 0 0-.8 1.6 1.6 0 0 0-.2-.6.5.5 0 0 0-.2-.2H-6zm-1 0h1v.9h-.5v3.4h.5v.9h-1zm2.6 5.3v-5.3h2v.9h-1.5v1.2h1.4v.8h-1.4v1.5h1.5v.9zm4.6 0h-.5V-49a2 2 0 0 1-.6.7v-.9c.1 0 .3-.2.4-.5a2.3 2.3 0 0 0 .3-.8h.4zM2-50.4c.3 0 .5 0 .6.3.2.3.2.6.2 1v.7a1 1 0 0 1-.3.4l.3.5.1.8-.1.8c0 .3-.2.5-.3.6a.7.7 0 0 1-.5.2v-.8c.2 0 .2 0 .3-.2l.1-.7v-.6l-.4-.2v-.8l.3-.1v-1l-.3-.1ZM1.5-48a1 1 0 0 1-.3-.4 2 2 0 0 1 0-.7c0-.4 0-.7.2-1 .1-.2.3-.3.5-.3v.8l-.2.1v.9c0 .2.2.2.2.2v.8l-.2.2-.1.6v.7l.4.2v.8c-.3 0-.5-.1-.7-.4l-.2-1.2.1-.8c0-.2.2-.4.3-.5M4-50.4c.2 0 .4 0 .6.3l.2 1-.1.7a1 1 0 0 1-.3.4c.1.1.3.3.3.5l.1.8v.8a1.4 1.4 0 0 1-.4.6.7.7 0 0 1-.4.2v-.8s.2 0 .2-.2l.1-.7v-.6l-.3-.2v-.8l.2-.1v-1l-.2-.1ZM3.6-48a1 1 0 0 1-.3-.4 2 2 0 0 1-.1-.7c0-.4 0-.7.2-1 .1-.2.3-.3.6-.3v.8l-.3.1v1l.3.1v.8c-.1 0-.2 0-.3.2v1.4l.3.2v.8c-.3 0-.5-.1-.6-.4-.2-.3-.3-.7-.3-1.2l.1-.8.4-.5M6-46s.2 0 .2-.2l.2-1.2-.3.3a.4.4 0 0 1-.1.1v-.7l.2-.2.1-.7-.1-.8-.2-.2v-.9c.2 0 .4.2.6.6.2.5.3 1.1.3 2a6 6 0 0 1-.3 2.2c-.2.3-.4.6-.6.6zm-.8-.4.5-.1c0 .4 0 .6.2.6v.8a.5.5 0 0 1-.5-.3l-.2-1M6-47h-.1c-.2 0-.4-.1-.5-.5-.2-.3-.3-.7-.3-1.2s.1-1 .3-1.3c.1-.3.3-.5.6-.5v.9c-.2 0-.2 0-.3.2v1.4c0 .2.2.3.3.3z"/></g><g id="barrete" stroke="#231f20"><path id="path323" fill="#ed1c24" d="M1.5-152.1c-.8-.3-1.5-.7-2.2-1.2-.8-.6-1.5-1.5-2.5-1.6-1.5-.2-3.2 0-4.6.4a4 4 0 0 0-2 1.8c-.8 1.2-1.2 2.6-1.6 3.9-.7 2.1-1.1 4.4-2 6.5-.4 1.1-1.2 2.2-1.8 3.2-.7 1-2 1.8-2.4 3-.6 2.3.8 4.9 2.4 6.2a20 20 0 0 0 5.8 3.4l3.8 1.2 2.2-6.8 13.7 4.8 3.2 11 3.7.6c5.1 2 6.4-3.8 6.5-5 .1-1.3-1.6-6.6-2-10-.4-2.6 0-5.2-.4-7.8-.3-2.4-1.7-4.7-2-7-.3-3 .9-6.3 0-9-1.8-5.5-5-7.6-8.9-10.7-5-4.5-14-5-15.6-4.6-1.6.4-7.2 2.5-7.5 8.6-.3 6 5.3 6.5 7.7 6.1 2.3-.4 5.1-3.3 10.6-2.4C0-158.5-2-156-5-155.1c3.8-.4 3.5 3 9.6 3.7l-3.1-.7z"/><path id="path324" fill="none" stroke-linecap="round" d="M9.5-132.7s4 1.6 5.3 2.4c1.3.9 7.2 4.3 8 5.4m-12.7-9.5c4.8 1.5 10.3 6.5 10.3 6.5l2.1 1.7M12-135.3s8.3 4.2 10.4 7.7m-10.6-8.7s7.2 3.9 9.9 7.4m-8.5-8.4s6.9 4.6 8.8 7.8m-8.3-8.8s5.4 2.7 8 7.2m-6.8-8.2c1.3.5 4.5 2.8 6.7 6.7m-7.1-8.7s6.4 3.6 7 7.3M10-145.4s6.6 4.4 7.9 5.7c1.2 1.3 3 2.5 3.5 3.8M10-148s6.5 4 7.3 5.4c1 1.4 3.6 3.1 4 4.7M10-149.4s3.7 2.1 5.3 3.5c1.5 1.5 4.3 3 5.4 6.3M12-150.4s5.1 2.4 8.1 7.8m-7-8.8s5.6 4.3 6.4 6.8m-7.1-9.8 6.8 7.2m-7.4-9.2s6.6 5.4 7.5 8.6m-6-12.6s3.8 3.5 5.3 6.3c.8 1.5 1 2.5 1 2.5m-6.8-6.8a23 23 0 0 1 6.5 8.5m-7-7.5c4.7 3 7.2 8 7.2 8"/><path id="path325" fill="#231f20" d="M13.9-126c2.3.8 4.7 2.4 6.5 4.5.5.5.6 2.8.2 3.3-.5.6-1.5.6-3.6.2-2.4-.4-4.3-1-4.3-1l-2.4-8.3L14-126zm-19-.8c-2.5-1-5.7-2-7.6-3.5a6.4 6.4 0 0 1-2.1-2.7c-.1-.5.1-1.4.6-1.6a6 6 0 0 1 3-.3c2.6.8 5 1.9 7.8 2.8z"/></g></g><!-- app4joy -->
</svg>