<svg xmlns="http://www.w3.org/2000/svg" id="svg4395" width="1000" height="700" x="0" y="0" version="1.0" viewBox="0 0 1000 700"><g id="layer1"><path id="rect4431" d="M0 0h1000v175H0z" style="fill:#00923f;fill-opacity:1.0000000;stroke:none;stroke-opacity:1.0000000"/><path id="rect7491" d="M0 350h1000v175H0z" style="fill:#00923f;fill-opacity:1.0000000;stroke:none;stroke-opacity:1.0000000"/><path id="rect7493" d="M0 175h1000v175H0z" style="fill:#f8c300;fill-opacity:1.0000000;stroke:none;stroke-opacity:1.0000000"/><path id="rect8253" d="M0 525h1000v175H0z" style="fill:#f8c300;fill-opacity:1.0000000;stroke:none;stroke-opacity:1.0000000"/><path id="rect9013" d="M0 0h350v350H0z" style="fill:#28166f;fill-opacity:1.0000000;stroke:none;stroke-opacity:1.0000000"/><path id="path9773" d="m222 239.7-47-34.1-47 34.1 18-55.3-47-34.1h58L175 95l18 55.3h58l-47 34.1 18 55.3z" style="fill:#ffffff;fill-opacity:1.0000000;stroke:none;stroke-opacity:1.0000000"/><path id="path11291" d="M83.5 322.4 60 305.3l-23.5 17 9-27.6-23.5-17h29l9-27.7 9 27.6h29l-23.5 17.1 9 27.7z" style="fill:#ffffff;fill-opacity:1.0000000;stroke:none;stroke-opacity:1.0000000"/><path id="path11293" d="M313.5 92.4 290 75.3l-23.5 17 9-27.6-23.5-17h29l9-27.7 9 27.6h29l-23.5 17.1 9 27.7z" style="fill:#ffffff;fill-opacity:1.0000000;stroke:none;stroke-opacity:1.0000000"/><path id="path11295" d="M83.5 92.4 60 75.3l-23.5 17 9-27.6-23.5-17h29L60 20l9 27.6h29L74.5 64.7l9 27.7z" style="fill:#ffffff;fill-opacity:1.0000000;stroke:none;stroke-opacity:1.0000000"/><path id="path11297" d="M313.5 322.4 290 305.3l-23.5 17 9-27.6-23.5-17h29l9-27.7 9 27.6h29l-23.5 17.1 9 27.7z" style="fill:#ffffff;fill-opacity:1.0000000;stroke:none;stroke-opacity:1.0000000"/></g><!-- app4joy -->
</svg>